<?xml version="1.0" encoding="iso-8859-1"?>
<!-- Generator: Adobe Illustrator 22.1.0, SVG Export Plug-In . SVG Version: 6.00 Build 0)  -->
<svg version="1.1" id="fatal_x5F_error" xmlns="http://www.w3.org/2000/svg" xmlns:xlink="http://www.w3.org/1999/xlink" x="0px"
	 y="0px" viewBox="0 0 800 600" enable-background="new 0 0 800 600" xml:space="preserve">
<linearGradient id="SVGID_1_" gradientUnits="userSpaceOnUse" x1="194" y1="156" x2="356.7882" y2="318.7882">
	<stop  offset="0" style="stop-color:#FFDC2E"/>
	<stop  offset="0.0395" style="stop-color:#FFDE39"/>
	<stop  offset="0.3022" style="stop-color:#FFEA7F"/>
	<stop  offset="0.5389" style="stop-color:#FFF3B6"/>
	<stop  offset="0.7414" style="stop-color:#FFF9DE"/>
	<stop  offset="0.9018" style="stop-color:#FFFDF6"/>
	<stop  offset="1" style="stop-color:#FFFFFF"/>
</linearGradient>
<circle fill="url(#SVGID_1_)" cx="278" cy="240" r="106"/>
<linearGradient id="SVGID_2_" gradientUnits="userSpaceOnUse" x1="116" y1="492" x2="678" y2="492">
	<stop  offset="0" style="stop-color:#EDEDED"/>
	<stop  offset="1" style="stop-color:#DDDDDD"/>
</linearGradient>
<rect x="116" y="488" fill="url(#SVGID_2_)" width="562" height="8"/>
<linearGradient id="SVGID_3_" gradientUnits="userSpaceOnUse" x1="434" y1="440.6667" x2="434" y2="488.0141">
	<stop  offset="0" style="stop-color:#303030"/>
	<stop  offset="0.4031" style="stop-color:#393939"/>
	<stop  offset="1" style="stop-color:#424242"/>
</linearGradient>
<path fill="url(#SVGID_3_)" d="M384,444v2c0,23.196,18.804,42,42,42c0.67,0,15.343,0.094,16,0c23.196,0,42-18.804,42-42v-2H384z"/>
<linearGradient id="SVGID_4_" gradientUnits="userSpaceOnUse" x1="420" y1="465.0405" x2="504" y2="465.0405">
	<stop  offset="0" style="stop-color:#424242"/>
	<stop  offset="0.2413" style="stop-color:#464646"/>
	<stop  offset="1" style="stop-color:#4F4F4F"/>
</linearGradient>
<path fill="url(#SVGID_4_)" d="M504,446c0,22.526-12,38-26,42c-0.638,0.182-15.33,0-16,0c-23.196,0-42-18.804-42-42v-4h84V446z"/>
<linearGradient id="SVGID_5_" gradientUnits="userSpaceOnUse" x1="478" y1="402" x2="478" y2="486.3801">
	<stop  offset="0" style="stop-color:#515151"/>
	<stop  offset="0.018" style="stop-color:#525252"/>
	<stop  offset="0.6261" style="stop-color:#6A6A6A"/>
	<stop  offset="1" style="stop-color:#737373"/>
</linearGradient>
<circle fill="url(#SVGID_5_)" cx="478" cy="446" r="42"/>
<circle fill="#AAAAAA" cx="478" cy="446" r="18"/>
<linearGradient id="SVGID_6_" gradientUnits="userSpaceOnUse" x1="281" y1="265.5" x2="281" y2="356.1104">
	<stop  offset="0" style="stop-color:#FF6954"/>
	<stop  offset="0.2245" style="stop-color:#FF8141"/>
	<stop  offset="0.4882" style="stop-color:#FF9531"/>
	<stop  offset="0.7486" style="stop-color:#FFA227"/>
	<stop  offset="1" style="stop-color:#FFA624"/>
</linearGradient>
<path fill="url(#SVGID_6_)" d="M287.347,268c-4.509,0-8.639,2.526-10.693,6.54L236,354h44l46-86H287.347z"/>
<linearGradient id="SVGID_7_" gradientUnits="userSpaceOnUse" x1="314.2661" y1="280.9327" x2="243.1879" y2="352.011">
	<stop  offset="0" style="stop-color:#C4EAFC"/>
	<stop  offset="0.2111" style="stop-color:#DAF2FD"/>
	<stop  offset="0.4793" style="stop-color:#EEF9FE"/>
	<stop  offset="0.7442" style="stop-color:#FBFEFF"/>
	<stop  offset="1" style="stop-color:#FFFFFF"/>
</linearGradient>
<path fill="url(#SVGID_7_)" d="M310,280h-24.763c-0.759,0-1.455,0.425-1.802,1.1l-37.411,72.853
	c-0.011,0.021,0.005,0.047,0.028,0.047H272L310,280z"/>
<linearGradient id="SVGID_8_" gradientUnits="userSpaceOnUse" x1="148.8279" y1="311" x2="268" y2="311">
	<stop  offset="0" style="stop-color:#FF6B61"/>
	<stop  offset="0.0238" style="stop-color:#FE6D5B"/>
	<stop  offset="0.1559" style="stop-color:#FC7841"/>
	<stop  offset="0.3019" style="stop-color:#FA812D"/>
	<stop  offset="0.4669" style="stop-color:#F8861F"/>
	<stop  offset="0.6671" style="stop-color:#F78A17"/>
	<stop  offset="1" style="stop-color:#F78B14"/>
</linearGradient>
<path fill="url(#SVGID_8_)" d="M232,354l-82.582-82.582c-1.261-1.261-0.368-3.418,1.416-3.418h30.336
	c0.531,0,1.04,0.211,1.416,0.587L268,354H232z"/>
<linearGradient id="SVGID_9_" gradientUnits="userSpaceOnUse" x1="162" y1="350" x2="162" y2="428.1025">
	<stop  offset="0" style="stop-color:#FF6B61"/>
	<stop  offset="0.0238" style="stop-color:#FE6D5B"/>
	<stop  offset="0.1559" style="stop-color:#FC7841"/>
	<stop  offset="0.3019" style="stop-color:#FA812D"/>
	<stop  offset="0.4669" style="stop-color:#F8861F"/>
	<stop  offset="0.6671" style="stop-color:#F78A17"/>
	<stop  offset="1" style="stop-color:#F78B14"/>
</linearGradient>
<path fill="url(#SVGID_9_)" d="M140,354h56v90h-68v-78C128,359.373,133.373,354,140,354z"/>
<linearGradient id="SVGID_10_" gradientUnits="userSpaceOnUse" x1="210" y1="440.6667" x2="210" y2="488.0141">
	<stop  offset="0" style="stop-color:#303030"/>
	<stop  offset="0.4031" style="stop-color:#393939"/>
	<stop  offset="1" style="stop-color:#424242"/>
</linearGradient>
<path fill="url(#SVGID_10_)" d="M160,444v2c0,23.196,18.804,42,42,42c4.169,0,16,0,16,0c23.196,0,42-18.804,42-42v-2H160z"/>
<linearGradient id="SVGID_11_" gradientUnits="userSpaceOnUse" x1="196" y1="465" x2="280" y2="465">
	<stop  offset="0" style="stop-color:#424242"/>
	<stop  offset="0.2413" style="stop-color:#464646"/>
	<stop  offset="1" style="stop-color:#4F4F4F"/>
</linearGradient>
<path fill="url(#SVGID_11_)" d="M196,442v4c0,23.196,18.804,42,42,42h16v-3.173c16-6.294,26-21.299,26-38.827v-4H196z"/>
<linearGradient id="SVGID_12_" gradientUnits="userSpaceOnUse" x1="254" y1="402" x2="254" y2="486.3801">
	<stop  offset="0" style="stop-color:#515151"/>
	<stop  offset="0.018" style="stop-color:#525252"/>
	<stop  offset="0.6261" style="stop-color:#6A6A6A"/>
	<stop  offset="1" style="stop-color:#737373"/>
</linearGradient>
<circle fill="url(#SVGID_12_)" cx="254" cy="446" r="42"/>
<linearGradient id="SVGID_13_" gradientUnits="userSpaceOnUse" x1="254" y1="465.5" x2="254" y2="427">
	<stop  offset="0" style="stop-color:#D1D1D1"/>
	<stop  offset="0.1125" style="stop-color:#CBCBCB"/>
	<stop  offset="0.6621" style="stop-color:#B3B3B3"/>
	<stop  offset="1" style="stop-color:#AAAAAA"/>
</linearGradient>
<circle fill="url(#SVGID_13_)" cx="254" cy="446" r="18"/>
<linearGradient id="SVGID_14_" gradientUnits="userSpaceOnUse" x1="363" y1="266.6667" x2="363" y2="442.1267">
	<stop  offset="0" style="stop-color:#FF6954"/>
	<stop  offset="0.2245" style="stop-color:#FF8141"/>
	<stop  offset="0.4882" style="stop-color:#FF9531"/>
	<stop  offset="0.7486" style="stop-color:#FFA227"/>
	<stop  offset="1" style="stop-color:#FFA624"/>
</linearGradient>
<path fill="url(#SVGID_14_)" d="M560,362v82h-39.34l-5.261-15.784C513.763,423.309,509.172,420,504,420h-51.995
	c-5.174,0-9.768,3.311-11.405,8.22l-4.348,13.044c-0.545,1.634-2.074,2.737-3.797,2.737H298.885c-1.723,0-3.252-1.102-3.797-2.737
	l-4.349-13.048c-1.635-4.906-6.227-8.216-11.399-8.216h-50.68c-5.172,0-9.763,3.309-11.399,8.216l-4.337,13.011
	c-0.552,1.656-2.102,2.773-3.847,2.773H166v-78c0-6.627,5.373-12,12-12h86.645c4.515,0,8.649-2.529,10.706-6.548l37.304-72.911
	c2.054-4.015,6.184-6.54,10.693-6.54h158.122c5.109,0,9.658,3.231,11.341,8.055l24.342,69.782c1.705,4.888,6.316,8.163,11.493,8.163
	H552C556.418,354,560,357.582,560,362z"/>
<linearGradient id="SVGID_15_" gradientUnits="userSpaceOnUse" x1="478" y1="465.5" x2="478" y2="427">
	<stop  offset="0" style="stop-color:#D1D1D1"/>
	<stop  offset="0.1125" style="stop-color:#CBCBCB"/>
	<stop  offset="0.6621" style="stop-color:#B3B3B3"/>
	<stop  offset="1" style="stop-color:#AAAAAA"/>
</linearGradient>
<circle fill="url(#SVGID_15_)" cx="478" cy="446" r="18"/>
<rect x="580" y="454" fill="#FFDCC0" width="30" height="8"/>
<linearGradient id="SVGID_16_" gradientUnits="userSpaceOnUse" x1="118" y1="434" x2="178" y2="434">
	<stop  offset="0" style="stop-color:#F5F5F5"/>
	<stop  offset="0.3165" style="stop-color:#F1F1F1"/>
	<stop  offset="0.6443" style="stop-color:#E4E4E4"/>
	<stop  offset="0.9762" style="stop-color:#D0D0D0"/>
	<stop  offset="1" style="stop-color:#CECECE"/>
</linearGradient>
<path fill="url(#SVGID_16_)" d="M178,428c0-2.209-1.791-4-4-4h-52c-2.209,0-4,1.791-4,4v12c0,2.209,1.791,4,4,4h52
	c2.209,0,4-1.791,4-4V428z"/>
<linearGradient id="SVGID_17_" gradientUnits="userSpaceOnUse" x1="128" y1="398" x2="166" y2="398">
	<stop  offset="0" style="stop-color:#AA734D"/>
	<stop  offset="0.5359" style="stop-color:#A76F49"/>
	<stop  offset="1" style="stop-color:#A0663F"/>
</linearGradient>
<rect x="128" y="384" fill="url(#SVGID_17_)" width="38" height="28"/>
<linearGradient id="SVGID_18_" gradientUnits="userSpaceOnUse" x1="160" y1="383.5" x2="160" y2="413.1671">
	<stop  offset="0" style="stop-color:#D4836D"/>
	<stop  offset="1" style="stop-color:#BE7A5C"/>
</linearGradient>
<path fill="url(#SVGID_18_)" d="M162,412h4v-28h-4c-4.418,0-8,3.582-8,8v12C154,408.418,157.582,412,162,412z"/>
<linearGradient id="SVGID_19_" gradientUnits="userSpaceOnUse" x1="122" y1="383.5" x2="122" y2="413.1671">
	<stop  offset="0" style="stop-color:#D4836D"/>
	<stop  offset="1" style="stop-color:#BE7A5C"/>
</linearGradient>
<path fill="url(#SVGID_19_)" d="M124,412h4v-28h-4c-4.418,0-8,3.582-8,8v12C116,408.418,119.582,412,124,412z"/>
<linearGradient id="SVGID_20_" gradientUnits="userSpaceOnUse" x1="180" y1="388" x2="196" y2="388">
	<stop  offset="0" style="stop-color:#302926;stop-opacity:0.1"/>
	<stop  offset="0.1782" style="stop-color:#392922;stop-opacity:0.1"/>
	<stop  offset="0.4688" style="stop-color:#512A18;stop-opacity:0.1"/>
	<stop  offset="0.8336" style="stop-color:#792C08;stop-opacity:0.1"/>
	<stop  offset="1" style="stop-color:#8D2D00;stop-opacity:0.1"/>
</linearGradient>
<path fill="url(#SVGID_20_)" d="M196,390c0,1.105-0.895,2-2,2h-12c-1.105,0-2-0.895-2-2v-4c0-1.105,0.895-2,2-2h12
	c1.105,0,2,0.895,2,2V390z"/>
<linearGradient id="SVGID_21_" gradientUnits="userSpaceOnUse" x1="515" y1="232.6667" x2="515" y2="334.3339">
	<stop  offset="0" style="stop-color:#FCE08E"/>
	<stop  offset="0.2729" style="stop-color:#FCDF8A"/>
	<stop  offset="0.5557" style="stop-color:#FDDC7D"/>
	<stop  offset="0.8419" style="stop-color:#FED769"/>
	<stop  offset="1" style="stop-color:#FFD45A"/>
</linearGradient>
<path fill="url(#SVGID_21_)" d="M504,336h22V234h-12c-5.523,0-10,4.477-10,10V336z"/>
<linearGradient id="SVGID_22_" gradientUnits="userSpaceOnUse" x1="351.7381" y1="294.0714" x2="290.9973" y2="354.8122">
	<stop  offset="0" style="stop-color:#C4EAFC"/>
	<stop  offset="1" style="stop-color:#FFFFFF"/>
</linearGradient>
<path fill="url(#SVGID_22_)" d="M330,280h-1.542c-1.509,0-2.892,0.844-3.581,2.187L289.52,351.04
	c-0.694,1.352,0.288,2.96,1.808,2.96H330c1.105,0,2-0.895,2-2v-70C332,280.895,331.105,280,330,280z"/>
<linearGradient id="SVGID_23_" gradientUnits="userSpaceOnUse" x1="407.4983" y1="281.4982" x2="342.354" y2="346.6425">
	<stop  offset="0" style="stop-color:#C4EAFC"/>
	<stop  offset="0.6335" style="stop-color:#EDF8FE"/>
	<stop  offset="1" style="stop-color:#FFFFFF"/>
</linearGradient>
<path fill="url(#SVGID_23_)" d="M346,280h52c1.105,0,2,0.895,2,2v70c0,1.105-0.895,2-2,2h-52c-1.105,0-2-0.885-2-1.99
	c0-10.514,0-59.52,0-70.025C344,280.881,344.896,280,346,280z"/>
<linearGradient id="SVGID_24_" gradientUnits="userSpaceOnUse" x1="487.2933" y1="287.2932" x2="418.5428" y2="356.0437">
	<stop  offset="0" style="stop-color:#C4EAFC"/>
	<stop  offset="0.6335" style="stop-color:#EDF8FE"/>
	<stop  offset="1" style="stop-color:#FFFFFF"/>
</linearGradient>
<path fill="url(#SVGID_24_)" d="M501.17,354H414c-1.105,0-2-0.895-2-2v-70c0-1.105,0.895-2,2-2h61.166
	c1.698,0,3.211,1.072,3.774,2.674l24.122,68.656C503.52,352.634,502.553,354,501.17,354z"/>
<linearGradient id="SVGID_25_" gradientUnits="userSpaceOnUse" x1="349.6667" y1="334" x2="399.3736" y2="334">
	<stop  offset="0" style="stop-color:#E5E5E5"/>
	<stop  offset="1" style="stop-color:#CECECE"/>
</linearGradient>
<path fill="url(#SVGID_25_)" d="M360,314c-4.418,0-8,3.582-8,8v4c0,4.418,3.582,8,8,8c-4.418,0-8,3.582-8,8v12h48v-20v-20H360z"/>
<linearGradient id="SVGID_26_" gradientUnits="userSpaceOnUse" x1="454" y1="334" x2="512.6818" y2="334">
	<stop  offset="0" style="stop-color:#E5E5E5"/>
	<stop  offset="1" style="stop-color:#CECECE"/>
</linearGradient>
<path fill="url(#SVGID_26_)" d="M492,334h-4c-4.42,0-8-3.58-8-8v-4c0-4.42,3.58-8,8-8h-28c-4.42,0-8,3.58-8,8v4c0,4.42,3.58,8,8,8
	c-4.418,0-8,3.582-8,8v12h48L492,334z"/>
<path fill="#F78B14" d="M400,362h-2v4H290v-4h-2v4h-4v2h4v32.281L307.44,432H400v-64h4v-2h-4V362z M398,430h-89.44L290,399.719V368
	h108V430z"/>
<path fill="#F78B14" d="M506,366h-4v-4h-2v4h-86v-4h-2v4h-4v2h4v64h18.678l6.207-15.523c1.09-2.719,3.686-4.477,6.615-4.477H502v-44
	h4V366z M500,410h-56.5c-3.752,0-7.078,2.25-8.471,5.734L429.322,430H414v-62h86V410z"/>
<linearGradient id="SVGID_27_" gradientUnits="userSpaceOnUse" x1="470" y1="171.25" x2="470" y2="195.7513" gradientTransform="matrix(-1 0 0 1 986 0)">
	<stop  offset="0" style="stop-color:#F9CDAF"/>
	<stop  offset="0.5359" style="stop-color:#F8CAAB"/>
	<stop  offset="1" style="stop-color:#F7C4A1"/>
</linearGradient>
<path fill="url(#SVGID_27_)" d="M516,172h12v12c0,6.627-5.373,12-12,12s-12-5.373-12-12S509.373,172,516,172z"/>
<linearGradient id="SVGID_28_" gradientUnits="userSpaceOnUse" x1="541" y1="438" x2="541" y2="331.7466">
	<stop  offset="0" style="stop-color:#2EABFF"/>
	<stop  offset="0.2742" style="stop-color:#2FA6FF"/>
	<stop  offset="0.6042" style="stop-color:#3397FF"/>
	<stop  offset="0.9618" style="stop-color:#3A7FFF"/>
	<stop  offset="1" style="stop-color:#3B7CFF"/>
</linearGradient>
<rect x="522" y="330" fill="url(#SVGID_28_)" width="38" height="106"/>
<linearGradient id="SVGID_29_" gradientUnits="userSpaceOnUse" x1="568" y1="319.8033" x2="568" y2="456.1859">
	<stop  offset="0" style="stop-color:#2ECAFF"/>
	<stop  offset="0.207" style="stop-color:#2FC6FF"/>
	<stop  offset="0.4215" style="stop-color:#30B9FF"/>
	<stop  offset="0.6395" style="stop-color:#33A5FF"/>
	<stop  offset="0.8584" style="stop-color:#3888FF"/>
	<stop  offset="1" style="stop-color:#3B71FF"/>
</linearGradient>
<path fill="url(#SVGID_29_)" d="M522,322v16c0,11.046,8.954,20,20,20h30c2.209,0,4,1.791,4,4v94h38v-98v-36H522z"/>
<linearGradient id="SVGID_30_" gradientUnits="userSpaceOnUse" x1="615.6667" y1="327" x2="521.8333" y2="327">
	<stop  offset="0" style="stop-color:#00009A;stop-opacity:0.15"/>
	<stop  offset="0.2384" style="stop-color:#0F0D9B;stop-opacity:0.1142"/>
	<stop  offset="0.71" style="stop-color:#27219C;stop-opacity:0.0435"/>
	<stop  offset="1" style="stop-color:#30299C;stop-opacity:0"/>
</linearGradient>
<rect x="522" y="324" fill="url(#SVGID_30_)" width="92" height="6"/>
<path fill="#52BDFF" d="M618,454c0,1.105-0.895,2-2,2h-42c-1.105,0-2-0.895-2-2v-4c0-1.105,0.895-2,2-2h42c1.105,0,2,0.895,2,2V454z
	"/>
<linearGradient id="SVGID_31_" gradientUnits="userSpaceOnUse" x1="672.9136" y1="243" x2="610.676" y2="243">
	<stop  offset="0" style="stop-color:#FCE08E"/>
	<stop  offset="0.2729" style="stop-color:#FCDF8A"/>
	<stop  offset="0.5557" style="stop-color:#FDDC7D"/>
	<stop  offset="0.8419" style="stop-color:#FED769"/>
	<stop  offset="1" style="stop-color:#FFD45A"/>
</linearGradient>
<path fill="url(#SVGID_31_)" d="M666,252h-56v-18h44c6.627,0,12,5.373,12,12V252z"/>
<linearGradient id="SVGID_32_" gradientUnits="userSpaceOnUse" x1="596" y1="459" x2="596" y2="484.4031">
	<stop  offset="0" style="stop-color:#E5E5E5"/>
	<stop  offset="1" style="stop-color:#CECECE"/>
</linearGradient>
<path fill="url(#SVGID_32_)" d="M610,466.156V460h-30v6.156c-4,2.064-8,7.053-8,12.889V484h48v-4.955
	C620,473.209,616,468.22,610,466.156z"/>
<linearGradient id="SVGID_33_" gradientUnits="userSpaceOnUse" x1="569.5" y1="486" x2="622.5212" y2="486">
	<stop  offset="0" style="stop-color:#353535"/>
	<stop  offset="1" style="stop-color:#797979"/>
</linearGradient>
<rect x="570" y="484" fill="url(#SVGID_33_)" width="52" height="4"/>
<path fill="#E8F4F9" d="M560.006,436h-38.012c-1.101,0-1.994,0.893-1.994,1.994V460c0,2.209-1.791,4-4,4h-19.497
	c-6.571,0-12.3,5.063-12.498,11.631C483.802,482.427,489.25,488,496,488h24h24h6c6.627,0,12-5.373,12-12v-38.006
	C562,436.893,561.107,436,560.006,436z"/>
<linearGradient id="SVGID_34_" gradientUnits="userSpaceOnUse" x1="488.5507" y1="462" x2="561.0397" y2="462">
	<stop  offset="0" style="stop-color:#FFFFED"/>
	<stop  offset="0.4291" style="stop-color:#FCFCEC"/>
	<stop  offset="0.6871" style="stop-color:#F4F4E8"/>
	<stop  offset="0.8991" style="stop-color:#E6E6E1"/>
	<stop  offset="1" style="stop-color:#DCDCDC"/>
</linearGradient>
<path fill="url(#SVGID_34_)" d="M560,436h-38c-1.1,0-2,0.9-2,2v22c0,2.2-1.8,4-4,4h-19.5c-6.56,0-12.5,5.06-12.5,11.64V476
	c0,6.62,5.36,12,12,12h54c6.62,0,12-5.38,12-12v-38C562,436.9,561.1,436,560,436z"/>
<linearGradient id="SVGID_35_" gradientUnits="userSpaceOnUse" x1="586" y1="472" x2="606" y2="472">
	<stop  offset="0" style="stop-color:#353535"/>
	<stop  offset="1" style="stop-color:#797979"/>
</linearGradient>
<path fill="url(#SVGID_35_)" d="M606,472c0,1.105-0.895,2-2,2h-16c-1.105,0-2-0.895-2-2l0,0c0-1.105,0.895-2,2-2h16
	C605.105,470,606,470.895,606,472L606,472z"/>
<linearGradient id="SVGID_36_" gradientUnits="userSpaceOnUse" x1="502" y1="333" x2="522" y2="333">
	<stop  offset="0" style="stop-color:#FCE08E"/>
	<stop  offset="0.2821" style="stop-color:#FDDC7B"/>
	<stop  offset="0.7266" style="stop-color:#FED663"/>
	<stop  offset="1" style="stop-color:#FFD45A"/>
</linearGradient>
<path fill="url(#SVGID_36_)" d="M522,336h-18c-1.105,0-2-0.895-2-2v-2c0-1.105,0.895-2,2-2h18V336z"/>
<linearGradient id="SVGID_37_" gradientUnits="userSpaceOnUse" x1="513" y1="336" x2="513" y2="371.5879">
	<stop  offset="0" style="stop-color:#F7C4A1"/>
	<stop  offset="0.2366" style="stop-color:#FACCAC"/>
	<stop  offset="0.6248" style="stop-color:#FED5B9"/>
	<stop  offset="1" style="stop-color:#FFD8BD"/>
</linearGradient>
<path fill="url(#SVGID_37_)" d="M504,336v32c0,2.209,1.791,4,4,4s4-1.791,4-4v-19c0-0.56,0.44-1,1-1s1,0.44,1,1v7
	c0,2.209,1.791,4,4,4s4-1.791,4-4v-20H504z"/>
<linearGradient id="SVGID_38_" gradientUnits="userSpaceOnUse" x1="689.8286" y1="258" x2="610.6219" y2="258">
	<stop  offset="0" style="stop-color:#D4836D"/>
	<stop  offset="1" style="stop-color:#BE7A5C"/>
</linearGradient>
<path fill="url(#SVGID_38_)" d="M678,264h-66v-12h66c3.314,0,6,2.686,6,6l0,0C684,261.314,681.314,264,678,264z"/>
<linearGradient id="SVGID_39_" gradientUnits="userSpaceOnUse" x1="568" y1="233" x2="568" y2="324.7054">
	<stop  offset="0" style="stop-color:#EA8D58"/>
	<stop  offset="0.232" style="stop-color:#EB8661"/>
	<stop  offset="0.6102" style="stop-color:#EF7379"/>
	<stop  offset="1" style="stop-color:#F45B99"/>
</linearGradient>
<path fill="url(#SVGID_39_)" d="M614,238v86h-92v-86c0-2.2,1.8-4,4-4h84C612.2,234,614,235.8,614,238z"/>
<circle opacity="0.15" cx="568" cy="274" r="4"/>
<circle opacity="0.15" cx="568" cy="294" r="4"/>
<linearGradient id="SVGID_40_" gradientUnits="userSpaceOnUse" x1="556" y1="234" x2="580" y2="234">
	<stop  offset="0" style="stop-color:#F9D6BD"/>
	<stop  offset="1" style="stop-color:#F9CEB2"/>
</linearGradient>
<path fill="url(#SVGID_40_)" d="M568,246L568,246c-6.627,0-12-5.373-12-12v-12h24v12C580,240.627,574.627,246,568,246z"/>
<linearGradient id="SVGID_41_" gradientUnits="userSpaceOnUse" x1="551" y1="241" x2="585" y2="241">
	<stop  offset="0" style="stop-color:#FCE08E"/>
	<stop  offset="0.2729" style="stop-color:#FCDF8A"/>
	<stop  offset="0.5557" style="stop-color:#FDDC7D"/>
	<stop  offset="0.8419" style="stop-color:#FED769"/>
	<stop  offset="1" style="stop-color:#FFD45A"/>
</linearGradient>
<path fill="url(#SVGID_41_)" d="M568,251c-9.373,0-17-7.626-17-17c0-1.657,1.344-3,3-3s3,1.343,3,3c0,6.065,4.936,11,11,11
	s11-4.935,11-11c0-1.657,1.344-3,3-3s3,1.343,3,3C585,243.374,577.373,251,568,251z"/>
<linearGradient id="SVGID_42_" gradientUnits="userSpaceOnUse" x1="556" y1="227.2" x2="580" y2="227.2">
	<stop  offset="0" style="stop-color:#302926;stop-opacity:0"/>
	<stop  offset="1" style="stop-color:#000000;stop-opacity:0.1"/>
</linearGradient>
<path fill="url(#SVGID_42_)" d="M580,224.4v4c-4,1.04-7.84,1.6-12,1.6s-8-0.56-12-1.6v-4c4,1.04,7.84,1.6,12,1.6
	S576,225.44,580,224.4z"/>
<linearGradient id="SVGID_43_" gradientUnits="userSpaceOnUse" x1="472" y1="171.25" x2="472" y2="195.7513" gradientTransform="matrix(-1 0 0 1 988 0)">
	<stop  offset="0" style="stop-color:#F9CDAF"/>
	<stop  offset="0.5359" style="stop-color:#F8CAAB"/>
	<stop  offset="1" style="stop-color:#F7C4A1"/>
</linearGradient>
<path fill="url(#SVGID_43_)" d="M516,172h12v12c0,6.627-5.373,12-12,12s-12-5.373-12-12S509.373,172,516,172z"/>
<linearGradient id="SVGID_44_" gradientUnits="userSpaceOnUse" x1="620" y1="171.25" x2="620" y2="195.7513">
	<stop  offset="0" style="stop-color:#F9CDAF"/>
	<stop  offset="0.5359" style="stop-color:#F8CAAB"/>
	<stop  offset="1" style="stop-color:#F7C4A1"/>
</linearGradient>
<path fill="url(#SVGID_44_)" d="M620,172h-12v12c0,6.627,5.373,12,12,12s12-5.373,12-12S626.627,172,620,172z"/>
<linearGradient id="SVGID_45_" gradientUnits="userSpaceOnUse" x1="620" y1="177.5" x2="620" y2="190.5384">
	<stop  offset="0" style="stop-color:#EFBC9A"/>
	<stop  offset="0.7147" style="stop-color:#F3C09E"/>
	<stop  offset="1" style="stop-color:#F7C4A1"/>
</linearGradient>
<path fill="url(#SVGID_45_)" d="M620,178h-6v6c0,3.314,2.686,6,6,6s6-2.686,6-6S623.314,178,620,178z"/>
<path opacity="0.05" d="M626,184c0,0.34-0.02,0.68-0.1,1c-0.46-2.84-2.92-5-5.9-5h-6v-2h6C623.32,178,626,180.68,626,184z"/>
<linearGradient id="SVGID_46_" gradientUnits="userSpaceOnUse" x1="470" y1="177.5" x2="470" y2="190.5384" gradientTransform="matrix(-1 0 0 1 986 0)">
	<stop  offset="0" style="stop-color:#EFBC9A"/>
	<stop  offset="0.7147" style="stop-color:#F3C09E"/>
	<stop  offset="1" style="stop-color:#F7C4A1"/>
</linearGradient>
<path fill="url(#SVGID_46_)" d="M516,178h6v6c0,3.314-2.686,6-6,6s-6-2.686-6-6S512.686,178,516,178z"/>
<path opacity="0.05" d="M510,184c0,0.34,0.02,0.68,0.1,1c0.46-2.84,2.92-5,5.9-5h6v-2h-6C512.68,178,510,180.68,510,184z"/>
<linearGradient id="SVGID_47_" gradientUnits="userSpaceOnUse" x1="522" y1="191" x2="614" y2="191">
	<stop  offset="0" style="stop-color:#FFDEC7"/>
	<stop  offset="1" style="stop-color:#FFD8BD"/>
</linearGradient>
<path fill="url(#SVGID_47_)" d="M522,180c0,25.405,20.595,46,46,46s46-20.595,46-46v-24h-92V180z"/>
<circle fill="#FFFFFF" cx="588" cy="180" r="8"/>
<circle fill="#FFFFFF" cx="548" cy="180" r="8"/>
<linearGradient id="SVGID_48_" gradientUnits="userSpaceOnUse" x1="588" y1="175.875" x2="588" y2="183.4124">
	<stop  offset="0" style="stop-color:#4C4B4B"/>
	<stop  offset="1" style="stop-color:#3A3838"/>
</linearGradient>
<path fill="url(#SVGID_48_)" d="M592,180c0,2.2-1.8,4-4,4s-4-1.8-4-4c0-2.2,1.8-4,4-4c0.42,0,0.82,0.06,1.18,0.18
	c-0.7,0.32-1.18,1.02-1.18,1.82c0,1.1,0.9,2,2,2c0.8,0,1.5-0.48,1.82-1.18C591.94,179.18,592,179.58,592,180z"/>
<linearGradient id="SVGID_49_" gradientUnits="userSpaceOnUse" x1="548" y1="175.875" x2="548" y2="183.4124">
	<stop  offset="0" style="stop-color:#4C4B4B"/>
	<stop  offset="1" style="stop-color:#3A3838"/>
</linearGradient>
<path fill="url(#SVGID_49_)" d="M552,180c0,2.2-1.8,4-4,4s-4-1.8-4-4c0-2.2,1.8-4,4-4c0.42,0,0.82,0.06,1.18,0.18
	c-0.7,0.32-1.18,1.02-1.18,1.82c0,1.1,0.9,2,2,2c0.8,0,1.5-0.48,1.82-1.18C551.94,179.18,552,179.58,552,180z"/>
<linearGradient id="SVGID_50_" gradientUnits="userSpaceOnUse" x1="-396.3613" y1="304.0048" x2="-396.3613" y2="307.7735" gradientTransform="matrix(0.9397 0.342 -0.342 0.9397 1067.1389 13.9543)">
	<stop  offset="0" style="stop-color:#AF6E52"/>
	<stop  offset="1" style="stop-color:#A5765D"/>
</linearGradient>
<path fill="url(#SVGID_50_)" d="M596.322,166.173l-11.276-4.104c-1.038-0.378-2.186,0.157-2.563,1.195l0,0
	c-0.378,1.038,0.157,2.186,1.195,2.563l11.276,4.104c1.038,0.378,2.186-0.157,2.563-1.195l0,0
	C597.895,167.698,597.36,166.551,596.322,166.173z"/>
<linearGradient id="SVGID_51_" gradientUnits="userSpaceOnUse" x1="1522.2296" y1="361.4642" x2="1522.2296" y2="365.2329" gradientTransform="matrix(0.9397 -0.342 0.342 0.9397 -1008.7614 345.0298)">
	<stop  offset="0" style="stop-color:#AF6E52"/>
	<stop  offset="1" style="stop-color:#A5765D"/>
</linearGradient>
<path fill="url(#SVGID_51_)" d="M550.954,162.068l-11.276,4.104c-1.038,0.378-1.573,1.525-1.195,2.563l0,0
	c0.378,1.038,1.525,1.573,2.563,1.195l11.276-4.104c1.038-0.378,1.573-1.525,1.195-2.563l0,0
	C553.14,162.226,551.992,161.691,550.954,162.068z"/>
<linearGradient id="SVGID_52_" gradientUnits="userSpaceOnUse" x1="568" y1="181.8438" x2="568" y2="191.2655">
	<stop  offset="0" style="stop-color:#F9CDAF"/>
	<stop  offset="0.5359" style="stop-color:#F8CAAB"/>
	<stop  offset="1" style="stop-color:#F7C4A1"/>
</linearGradient>
<path fill="url(#SVGID_52_)" d="M572,188c0,2.209-1.791,4-4,4l0,0c-2.209,0-4-1.791-4-4v-2c0-2.209,1.791-4,4-4l0,0
	c2.209,0,4,1.791,4,4V188z"/>
<linearGradient id="SVGID_53_" gradientUnits="userSpaceOnUse" x1="568" y1="199.5555" x2="568" y2="212.6709">
	<stop  offset="0" style="stop-color:#F9808F"/>
	<stop  offset="0.391" style="stop-color:#F97792"/>
	<stop  offset="1" style="stop-color:#F96099"/>
</linearGradient>
<path fill="url(#SVGID_53_)" d="M579.96,210.96c0.04,0.56-0.44,1.04-1,1.04h-21.92c-0.56,0-1.04-0.48-1-1.04
	c0.24-2.68,1.34-5.08,3.02-6.96c0.62-0.7,1.32-1.32,2.1-1.86c1.94-1.36,4.3-2.14,6.84-2.14s4.9,0.78,6.84,2.14
	c0.78,0.54,1.48,1.16,2.1,1.86C578.62,205.88,579.72,208.28,579.96,210.96z"/>
<linearGradient id="SVGID_54_" gradientUnits="userSpaceOnUse" x1="518" y1="130" x2="618" y2="130">
	<stop  offset="0" style="stop-color:#FAFAFA"/>
	<stop  offset="0.2946" style="stop-color:#F1F1F1"/>
	<stop  offset="0.7734" style="stop-color:#D9D9D9"/>
	<stop  offset="1" style="stop-color:#CBCBCB"/>
</linearGradient>
<path fill="url(#SVGID_54_)" d="M618,154v2H518v-2c0-4.86,0.7-9.56,2-14c1.94-6.68,5.24-12.8,9.6-18c9.16-11,22.96-18,38.4-18
	s29.24,7,38.4,18c4.36,5.2,7.66,11.32,9.6,18C617.3,144.44,618,149.14,618,154z"/>
<linearGradient id="SVGID_55_" gradientUnits="userSpaceOnUse" x1="531" y1="180.5" x2="531" y2="155.5977">
	<stop  offset="0" style="stop-color:#AF6E52"/>
	<stop  offset="1" style="stop-color:#A5765D"/>
</linearGradient>
<path fill="url(#SVGID_55_)" d="M530,156h-8v24h4c2.209,0,4-1.791,4-4v-12c0-1.105,0.895-2,2-2h2c3.314,0,6-2.686,6-6H530z"/>
<linearGradient id="SVGID_56_" gradientUnits="userSpaceOnUse" x1="402" y1="180.5" x2="402" y2="155.5977" gradientTransform="matrix(-1 0 0 1 1007 0)">
	<stop  offset="0" style="stop-color:#AF6E52"/>
	<stop  offset="1" style="stop-color:#A5765D"/>
</linearGradient>
<path fill="url(#SVGID_56_)" d="M606,156h8v24h-4c-2.209,0-4-1.791-4-4v-12c0-1.105-0.895-2-2-2h-2c-3.314,0-6-2.686-6-6H606z"/>
<linearGradient id="SVGID_57_" gradientUnits="userSpaceOnUse" x1="518" y1="148" x2="618" y2="148">
	<stop  offset="0" style="stop-color:#FAFAFA"/>
	<stop  offset="1" style="stop-color:#EBEBEB"/>
</linearGradient>
<path fill="url(#SVGID_57_)" d="M618,154v2H518v-2c0-4.86,0.7-9.56,2-14h96C617.3,144.44,618,149.14,618,154z"/>
<linearGradient id="SVGID_58_" gradientUnits="userSpaceOnUse" x1="520" y1="131" x2="616" y2="131">
	<stop  offset="0" style="stop-color:#F8F8F1"/>
	<stop  offset="0.3822" style="stop-color:#EFEFEA"/>
	<stop  offset="1" style="stop-color:#D7D7D7"/>
</linearGradient>
<path fill="url(#SVGID_58_)" d="M616,140h-96c1.94-6.68,5.24-12.8,9.6-18h76.8C610.76,127.2,614.06,133.32,616,140z"/>
<linearGradient id="SVGID_59_" gradientUnits="userSpaceOnUse" x1="520" y1="131" x2="592" y2="131">
	<stop  offset="0" style="stop-color:#F5F5F5"/>
	<stop  offset="0.3379" style="stop-color:#ECECEC"/>
	<stop  offset="0.8875" style="stop-color:#D4D4D4"/>
	<stop  offset="1" style="stop-color:#CECECE"/>
</linearGradient>
<path fill="url(#SVGID_59_)" d="M592,140h-72c1.94-6.68,5.24-12.8,9.6-18L592,140z"/>
<linearGradient id="SVGID_60_" gradientUnits="userSpaceOnUse" x1="657" y1="262.3333" x2="657" y2="323.0009">
	<stop  offset="0" style="stop-color:#FCE08E"/>
	<stop  offset="0.2729" style="stop-color:#FCDF8A"/>
	<stop  offset="0.5557" style="stop-color:#FDDC7D"/>
	<stop  offset="0.8419" style="stop-color:#FED769"/>
	<stop  offset="1" style="stop-color:#FFD45A"/>
</linearGradient>
<rect x="648" y="264" fill="url(#SVGID_60_)" width="18" height="60"/>
<linearGradient id="SVGID_61_" gradientUnits="userSpaceOnUse" x1="646" y1="484" x2="646" y2="265.9908">
	<stop  offset="0" style="stop-color:#E5E5E5"/>
	<stop  offset="1" style="stop-color:#CECECE"/>
</linearGradient>
<path fill="url(#SVGID_61_)" d="M674,322h-26v-10.1l23.304-34.179c0.453-0.665,0.696-1.451,0.696-2.256v-9.424
	c0-1.122-0.918-2.04-2.04-2.04H614v15.64l22,32.26V322h-6c-2.209,0-4,1.791-4,4c0,2.209,1.791,4,4,4h6v154h12V330h26
	c2.209,0,4-1.791,4-4C678,323.791,676.209,322,674,322z M625.506,275.168c-0.911-1.337,0.046-3.168,1.664-3.168h29.661
	c1.618,0,2.575,1.831,1.664,3.168l-14.83,21.762c-0.799,1.172-2.528,1.167-3.327-0.005L625.506,275.168z"/>
<linearGradient id="SVGID_62_" gradientUnits="userSpaceOnUse" x1="634" y1="486" x2="650" y2="486">
	<stop  offset="0" style="stop-color:#353535"/>
	<stop  offset="1" style="stop-color:#797979"/>
</linearGradient>
<rect x="634" y="484" fill="url(#SVGID_62_)" width="16" height="4"/>
<linearGradient id="SVGID_63_" gradientUnits="userSpaceOnUse" x1="662" y1="326" x2="670" y2="326">
	<stop  offset="0" style="stop-color:#F7C4A1"/>
	<stop  offset="0.2366" style="stop-color:#FACCAC"/>
	<stop  offset="0.6248" style="stop-color:#FED5B9"/>
	<stop  offset="1" style="stop-color:#FFD8BD"/>
</linearGradient>
<path fill="url(#SVGID_63_)" d="M670,322c0-2.209-1.791-4-4-4l0,0c-2.209,0-4,1.791-4,4v8c0,2.209,1.791,4,4,4l0,0
	c2.209,0,4-1.791,4-4V322z"/>
<linearGradient id="SVGID_64_" gradientUnits="userSpaceOnUse" x1="654" y1="327" x2="662" y2="327">
	<stop  offset="0" style="stop-color:#F7C4A1"/>
	<stop  offset="0.2366" style="stop-color:#FACCAC"/>
	<stop  offset="0.6248" style="stop-color:#FED5B9"/>
	<stop  offset="1" style="stop-color:#FFD8BD"/>
</linearGradient>
<path fill="url(#SVGID_64_)" d="M662,322c0-2.209-1.791-4-4-4l0,0c-2.209,0-4,1.791-4,4v10c0,2.209,1.791,4,4,4l0,0
	c2.209,0,4-1.791,4-4V322z"/>
<linearGradient id="SVGID_65_" gradientUnits="userSpaceOnUse" x1="646" y1="326" x2="654" y2="326">
	<stop  offset="0" style="stop-color:#F7C4A1"/>
	<stop  offset="0.2366" style="stop-color:#FACCAC"/>
	<stop  offset="0.6248" style="stop-color:#FED5B9"/>
	<stop  offset="1" style="stop-color:#FFD8BD"/>
</linearGradient>
<path fill="url(#SVGID_65_)" d="M654,322c0-2.209-1.791-4-4-4l0,0c-2.209,0-4,1.791-4,4v8c0,2.209,1.791,4,4,4l0,0
	c2.209,0,4-1.791,4-4V322z"/>
<linearGradient id="SVGID_66_" gradientUnits="userSpaceOnUse" x1="576" y1="446" x2="614.9369" y2="446">
	<stop  offset="0" style="stop-color:#302926;stop-opacity:0"/>
	<stop  offset="1" style="stop-color:#000000;stop-opacity:0.1"/>
</linearGradient>
<rect x="576" y="444" fill="url(#SVGID_66_)" width="38" height="4"/>
<linearGradient id="SVGID_67_" gradientUnits="userSpaceOnUse" x1="560.6157" y1="434" x2="522.0683" y2="434">
	<stop  offset="0" style="stop-color:#302926;stop-opacity:0"/>
	<stop  offset="1" style="stop-color:#000000;stop-opacity:0.1"/>
</linearGradient>
<rect x="522" y="432" fill="url(#SVGID_67_)" width="38" height="4"/>
<linearGradient id="SVGID_68_" gradientUnits="userSpaceOnUse" x1="366" y1="386" x2="386" y2="386">
	<stop  offset="0" style="stop-color:#302926;stop-opacity:0.1"/>
	<stop  offset="0.1782" style="stop-color:#392922;stop-opacity:0.1"/>
	<stop  offset="0.4688" style="stop-color:#512A18;stop-opacity:0.1"/>
	<stop  offset="0.8336" style="stop-color:#792C08;stop-opacity:0.1"/>
	<stop  offset="1" style="stop-color:#8D2D00;stop-opacity:0.1"/>
</linearGradient>
<path fill="url(#SVGID_68_)" d="M386,382c0-1.105-0.895-2-2-2h-16c-1.105,0-2,0.895-2,2v8c0,1.105,0.895,2,2,2h16
	c1.105,0,2-0.895,2-2V382z"/>
<path opacity="0.05" d="M386,391c0,0.552-0.448,1-1,1l0,0c-0.552,0-1-0.448-1-1v-10c0-0.552,0.448-1,1-1l0,0c0.552,0,1,0.448,1,1
	V391z"/>
<linearGradient id="SVGID_69_" gradientUnits="userSpaceOnUse" x1="254" y1="438.3333" x2="254" y2="411.9979">
	<stop  offset="0" style="stop-color:#302926;stop-opacity:0"/>
	<stop  offset="0.29" style="stop-color:#27211F;stop-opacity:0.058"/>
	<stop  offset="0.7616" style="stop-color:#0F0D0C;stop-opacity:0.1523"/>
	<stop  offset="1" style="stop-color:#000000;stop-opacity:0.2"/>
</linearGradient>
<path fill="url(#SVGID_69_)" d="M296.03,446c0,0.62-0.035,1.24-0.075,1.84l-5.207-15.62c-1.64-4.92-6.227-8.22-11.408-8.22h-50.68
	c-5.18,0-9.76,3.3-11.4,8.22l-5.2,15.62c-0.04-0.6-0.09-1.22-0.09-1.84c0-0.72,0.03-1.44,0.03-2.16v-0.02l5.23-15.6
	c1.64-4.92,6.25-8.22,11.43-8.22h50.68c5.18,0,9.79,3.3,11.43,8.22l5.23,15.6v0.02C296,444.56,296.03,445.28,296.03,446z"/>
<linearGradient id="SVGID_70_" gradientUnits="userSpaceOnUse" x1="478" y1="438.3333" x2="478" y2="411.9979">
	<stop  offset="0" style="stop-color:#302926;stop-opacity:0"/>
	<stop  offset="0.29" style="stop-color:#27211F;stop-opacity:0.058"/>
	<stop  offset="0.7616" style="stop-color:#0F0D0C;stop-opacity:0.1523"/>
	<stop  offset="1" style="stop-color:#000000;stop-opacity:0.2"/>
</linearGradient>
<path fill="url(#SVGID_70_)" d="M520.03,446c0,0.62-0.035,1.24-0.075,1.84l-5.207-15.62c-1.64-4.92-6.227-8.22-11.408-8.22h-50.68
	c-5.18,0-9.76,3.3-11.4,8.22l-5.2,15.62c-0.04-0.6-0.09-1.22-0.09-1.84c0-0.72,0.03-1.44,0.03-2.16v-0.02l5.23-15.6
	c1.64-4.92,6.25-8.22,11.43-8.22h50.68c5.18,0,9.79,3.3,11.43,8.22l5.23,15.6v0.02C520,444.56,520.03,445.28,520.03,446z"/>
<path opacity="0.1" d="M272,448c0,9.94-8.06,18-18,18s-18-8.06-18-18c0-0.34,0-0.68,0.02-1c0.52,9.48,8.38,17,17.98,17
	s17.46-7.52,17.98-17C272,447.32,272,447.66,272,448z"/>
<path opacity="0.1" d="M496,448c0,9.94-8.06,18-18,18s-18-8.06-18-18c0-0.34,0-0.68,0.02-1c0.52,9.48,8.38,17,17.98,17
	s17.46-7.52,17.98-17C496,447.32,496,447.66,496,448z"/>
<linearGradient id="SVGID_71_" gradientUnits="userSpaceOnUse" x1="521" y1="443.6667" x2="521" y2="463.8581">
	<stop  offset="0" style="stop-color:#302926;stop-opacity:0"/>
	<stop  offset="1" style="stop-color:#000000;stop-opacity:0.05"/>
</linearGradient>
<path fill="url(#SVGID_71_)" d="M524,460c0,2.2-1.8,4-4,4h-4c2.2,0,4-1.8,4-4v-22c0-1.1,0.9-2,2-2h4c-1.1,0-2,0.9-2,2V460L524,460z"
	/>
<path opacity="0.1" d="M360,314c-4.418,0-8,3.582-8,8v4c0,4.418,3.582,8,8,8c-4.418,0-8,3.582-8,8v12h48v-20v-20H360z"/>
<path opacity="0.1" d="M492,334h-4c-4.42,0-8-3.58-8-8v-4c0-4.42,3.58-8,8-8h-28c-4.42,0-8,3.58-8,8v4c0,4.42,3.58,8,8,8
	c-4.418,0-8,3.582-8,8v12h48L492,334z"/>
<linearGradient id="SVGID_72_" gradientUnits="userSpaceOnUse" x1="491.5882" y1="314" x2="491.5882" y2="354">
	<stop  offset="0" style="stop-color:#E5E5E5"/>
	<stop  offset="1" style="stop-color:#CECECE"/>
</linearGradient>
<path fill="url(#SVGID_72_)" d="M503.06,351.34l-6.1-17.34l-7.02-20H488c-4.42,0-8,3.58-8,8v4c0,4.42,3.58,8,8,8c-4.42,0-8,3.58-8,8
	v12h21.18C502.56,354,503.52,352.64,503.06,351.34z"/>
<linearGradient id="SVGID_73_" gradientUnits="userSpaceOnUse" x1="390" y1="312.6667" x2="390" y2="389.3362">
	<stop  offset="0" style="stop-color:#E5E5E5"/>
	<stop  offset="1" style="stop-color:#CECECE"/>
</linearGradient>
<path fill="url(#SVGID_73_)" d="M388,314c-4.418,0-8,3.582-8,8v4c0,4.418,3.582,8,8,8c-4.418,0-8,3.582-8,8v12h20v-20v-20H388z"/>
<linearGradient id="SVGID_74_" gradientUnits="userSpaceOnUse" x1="513" y1="325.75" x2="513" y2="330.0961">
	<stop  offset="0" style="stop-color:#7E3615;stop-opacity:0"/>
	<stop  offset="1" style="stop-color:#8F3900;stop-opacity:0.08"/>
</linearGradient>
<rect x="504" y="326" fill="url(#SVGID_74_)" width="18" height="4"/>
<rect x="596" y="440" fill="#007CC1" width="20" height="2"/>
<path fill="#FFFFFF" d="M311.302,214.344l1.59,5.134c0.241,0.779,0.851,1.389,1.631,1.631l5.134,1.59
	c0.459,0.142,0.459,0.791,0,0.933l-5.134,1.59c-0.779,0.241-1.389,0.851-1.631,1.631l-1.59,5.134c-0.142,0.459-0.791,0.459-0.933,0
	l-1.59-5.134c-0.241-0.779-0.851-1.389-1.631-1.631l-5.134-1.59c-0.459-0.142-0.459-0.791,0-0.933l5.134-1.59
	c0.779-0.241,1.389-0.851,1.631-1.631l1.59-5.134C310.511,213.885,311.16,213.885,311.302,214.344z"/>
<path fill="#FFFFFF" d="M237.302,256.344l1.59,5.134c0.241,0.779,0.851,1.389,1.631,1.631l5.134,1.59
	c0.459,0.142,0.459,0.791,0,0.933l-5.134,1.59c-0.779,0.241-1.389,0.851-1.631,1.631l-1.59,5.134c-0.142,0.459-0.791,0.459-0.933,0
	l-1.59-5.134c-0.241-0.779-0.851-1.389-1.631-1.631l-5.134-1.59c-0.459-0.142-0.459-0.791,0-0.933l5.134-1.59
	c0.779-0.241,1.389-0.851,1.631-1.631l1.59-5.134C236.511,255.885,237.16,255.885,237.302,256.344z"/>
<path fill="#FFFFFF" d="M247.302,200.343l1.59,5.134c0.241,0.779,0.851,1.389,1.631,1.631l5.134,1.59
	c0.459,0.142,0.459,0.791,0,0.933l-5.134,1.59c-0.779,0.241-1.389,0.851-1.631,1.631l-1.59,5.134c-0.142,0.459-0.791,0.459-0.933,0
	l-1.59-5.134c-0.241-0.779-0.851-1.389-1.631-1.631l-5.134-1.59c-0.459-0.142-0.459-0.791,0-0.933l5.134-1.59
	c0.779-0.241,1.389-0.851,1.631-1.631l1.59-5.134C246.511,199.884,247.16,199.884,247.302,200.343z"/>
<linearGradient id="SVGID_75_" gradientUnits="userSpaceOnUse" x1="618.4167" y1="258" x2="613.9968" y2="258">
	<stop  offset="0" style="stop-color:#7E3615;stop-opacity:0"/>
	<stop  offset="1" style="stop-color:#593900;stop-opacity:0.1"/>
</linearGradient>
<rect x="614" y="252" fill="url(#SVGID_75_)" width="4" height="12"/>
<linearGradient id="SVGID_76_" gradientUnits="userSpaceOnUse" x1="254" y1="454.1667" x2="254" y2="437.3804">
	<stop  offset="0" style="stop-color:#302926;stop-opacity:0"/>
	<stop  offset="0.2844" style="stop-color:#2C2523;stop-opacity:0.0427"/>
	<stop  offset="0.579" style="stop-color:#1F1B19;stop-opacity:0.0868"/>
	<stop  offset="0.8773" style="stop-color:#0B0909;stop-opacity:0.1316"/>
	<stop  offset="1" style="stop-color:#000000;stop-opacity:0.15"/>
</linearGradient>
<circle fill="url(#SVGID_76_)" cx="254" cy="446" r="8"/>
<linearGradient id="SVGID_77_" gradientUnits="userSpaceOnUse" x1="478" y1="454.1667" x2="478" y2="437.3804">
	<stop  offset="0" style="stop-color:#302926;stop-opacity:0"/>
	<stop  offset="0.2844" style="stop-color:#2C2523;stop-opacity:0.0427"/>
	<stop  offset="0.579" style="stop-color:#1F1B19;stop-opacity:0.0868"/>
	<stop  offset="0.8773" style="stop-color:#0B0909;stop-opacity:0.1316"/>
	<stop  offset="1" style="stop-color:#000000;stop-opacity:0.15"/>
</linearGradient>
<circle fill="url(#SVGID_77_)" cx="478" cy="446" r="8"/>
<linearGradient id="SVGID_78_" gradientUnits="userSpaceOnUse" x1="372.0143" y1="184.6546" x2="448.8741" y2="184.6546">
	<stop  offset="0" style="stop-color:#FFE552"/>
	<stop  offset="1" style="stop-color:#FF9617"/>
</linearGradient>
<path fill="url(#SVGID_78_)" d="M398,171.895c0-1.144-0.869-2.056-1.998-1.871c-6.714,1.104-12.586,7.234-12.586,14.631
	s5.835,13.527,12.549,14.631c1.128,0.185,2.035-0.727,2.035-1.871V171.895z"/>
<linearGradient id="SVGID_79_" gradientUnits="userSpaceOnUse" x1="368.4139" y1="221.1791" x2="446.4537" y2="221.1791">
	<stop  offset="0" style="stop-color:#FFE552"/>
	<stop  offset="1" style="stop-color:#FF9617"/>
</linearGradient>
<path fill="url(#SVGID_79_)" d="M445.683,230.158c0,21.593-18.098,38.97-39.949,37.785c-19.863-1.077-35.76-17.941-35.735-37.833
	c0.013-10.215,4.074-19.475,10.661-26.276l0.033-0.049c2.77,4.18,7.687,6.868,13.126,6.614c7.99-0.372,14.18-7.336,14.18-15.334
	v-18.821c0-1.555,1.693-2.432,2.943-1.507C430.84,189.463,445.683,210.258,445.683,230.158z"/>
<linearGradient id="SVGID_80_" gradientUnits="userSpaceOnUse" x1="426.8416" y1="249.1538" x2="426.8416" y2="177.5384">
	<stop  offset="0" style="stop-color:#FF3B2A;stop-opacity:0"/>
	<stop  offset="1" style="stop-color:#D43200;stop-opacity:0.2"/>
</linearGradient>
<path fill="url(#SVGID_80_)" d="M445.683,230.157c0,11.892-5.484,22.522-14.078,29.419c5.277-6.502,8.429-14.757,8.429-23.765
	c0-18.959-14.034-38.728-32.034-53.297v-6.276c0-1.093,0.881-1.847,1.842-1.885c0.057,0,0.13,0.019,0.186,0.019
	c0.283,0.037,0.564,0.15,0.828,0.358C430.758,189.468,445.683,210.255,445.683,230.157z"/>
<path fill="#FFFFFF" d="M576.94,204h-17.88c0.62,0,1.32-1.32,2.1-1.86c1.94-1.36,4.3-2.14,6.84-2.14s4.9,0.78,6.84,2.14
	C575.62,202.68,576.32,204,576.94,204z"/>
<linearGradient id="SVGID_81_" gradientUnits="userSpaceOnUse" x1="568" y1="208.8177" x2="568" y2="212.123">
	<stop  offset="0" style="stop-color:#EA5770"/>
	<stop  offset="0.5523" style="stop-color:#EA4F79"/>
	<stop  offset="1" style="stop-color:#EA4684"/>
</linearGradient>
<path fill="url(#SVGID_81_)" d="M573.64,212h-11.28c0.8-2,3.02-2.938,5.64-2.938S572.84,210,573.64,212z"/>
</svg>
