<?xml version="1.0" encoding="iso-8859-1"?>
<!-- Generator: Adobe Illustrator 22.1.0, SVG Export Plug-In . SVG Version: 6.00 Build 0)  -->
<svg version="1.1" id="no_x5F_comments" xmlns="http://www.w3.org/2000/svg" xmlns:xlink="http://www.w3.org/1999/xlink" x="0px"
	 y="0px" viewBox="0 0 800 600" enable-background="new 0 0 800 600" xml:space="preserve">
<linearGradient id="SVGID_1_" gradientUnits="userSpaceOnUse" x1="168" y1="152.0375" x2="168" y2="255.7825">
	<stop  offset="0" style="stop-color:#F5F6ED"/>
	<stop  offset="0.6225" style="stop-color:#EDEDE9"/>
	<stop  offset="1" style="stop-color:#E5E5E5"/>
</linearGradient>
<path fill="url(#SVGID_1_)" d="M178.216,156h-20.432C133.603,156,114,175.265,114,199.197v-0.068
	c0,23.932,19.603,43.299,43.784,43.299c0,13,12.219,17.316,21.892,17.316c-5.825-5.766-6.932-11.613,0.04-17.379
	C203.201,241.582,222,222.5,222,199.066v0.134C222,175.267,202.397,156,178.216,156z"/>
<linearGradient id="SVGID_2_" gradientUnits="userSpaceOnUse" x1="169.0036" y1="262.6811" x2="168.457" y2="240.2698">
	<stop  offset="0" style="stop-color:#302926;stop-opacity:0"/>
	<stop  offset="0.3246" style="stop-color:#2D2623;stop-opacity:0.0325"/>
	<stop  offset="0.5853" style="stop-color:#231E1C;stop-opacity:0.0585"/>
	<stop  offset="0.823" style="stop-color:#120F0E;stop-opacity:0.0823"/>
	<stop  offset="1" style="stop-color:#000000;stop-opacity:0.1"/>
</linearGradient>
<path fill="url(#SVGID_2_)" d="M179.556,259.531c-9.577,0-21.667-3.531-21.667-17.531c-0.274,0,2.571,0,4.333,0
	c0,12,8.58,15.843,17.001,17.1C179.339,259.215,179.44,259.415,179.556,259.531z"/>
<linearGradient id="SVGID_3_" gradientUnits="userSpaceOnUse" x1="674" y1="135.728" x2="540.3661" y2="269.3619">
	<stop  offset="0" style="stop-color:#FFDC2E"/>
	<stop  offset="0.0147" style="stop-color:#FFDD34"/>
	<stop  offset="0.1575" style="stop-color:#FFE669"/>
	<stop  offset="0.302" style="stop-color:#FFEE97"/>
	<stop  offset="0.4454" style="stop-color:#FFF4BD"/>
	<stop  offset="0.5876" style="stop-color:#FFF9DA"/>
	<stop  offset="0.7282" style="stop-color:#FFFCEE"/>
	<stop  offset="0.8666" style="stop-color:#FFFEFB"/>
	<stop  offset="1" style="stop-color:#FFFFFF"/>
</linearGradient>
<circle fill="url(#SVGID_3_)" cx="602" cy="207.728" r="84"/>
<linearGradient id="SVGID_4_" gradientUnits="userSpaceOnUse" x1="150" y1="474" x2="650" y2="474">
	<stop  offset="0" style="stop-color:#EDEDED"/>
	<stop  offset="1" style="stop-color:#DDDDDD"/>
</linearGradient>
<rect x="150" y="470" fill="url(#SVGID_4_)" width="500" height="8"/>
<polygon opacity="0.1" points="239.41,354 228,354 228,462 239.41,462 274,462 274,354 "/>
<linearGradient id="SVGID_5_" gradientUnits="userSpaceOnUse" x1="275.5" y1="408" x2="160.868" y2="408">
	<stop  offset="0" style="stop-color:#FF764A"/>
	<stop  offset="0.2384" style="stop-color:#FF853E"/>
	<stop  offset="0.71" style="stop-color:#FF9D2B"/>
	<stop  offset="1" style="stop-color:#FFA624"/>
</linearGradient>
<path fill="url(#SVGID_5_)" d="M274,354v108h-88l-7.1-8.116c-2.8-3.16-5.28-6.588-7.4-10.088c-0.8-1.32-1.54-2.674-2.24-4.034
	c-2.7-5.12-4.68-10.517-5.98-16.017c-2.18-9.2-2.46-18.728-0.82-28.008c0.24-1.34,0.5-2.684,0.82-4.004
	c1.3-5.5,3.28-10.882,5.98-16.002c2.56-4.96,5.78-9.545,9.64-13.885L186,354H274z"/>
<linearGradient id="SVGID_6_" gradientUnits="userSpaceOnUse" x1="239.4" y1="408" x2="274" y2="408">
	<stop  offset="0" style="stop-color:#392926;stop-opacity:0.2"/>
	<stop  offset="1" style="stop-color:#473300;stop-opacity:0.2"/>
</linearGradient>
<path fill="url(#SVGID_6_)" d="M274,354v108h-34.6l7.1-8.116c23.34-26.24,23.34-65.732,0-91.972L239.4,354H274z"/>
<linearGradient id="SVGID_7_" gradientUnits="userSpaceOnUse" x1="180" y1="466" x2="274" y2="466">
	<stop  offset="0" style="stop-color:#EDEDED"/>
	<stop  offset="1" style="stop-color:#DDDDDD"/>
</linearGradient>
<path fill="url(#SVGID_7_)" d="M274,462v8h-90c-1.1,0-2.1-0.576-2.82-1.316c-0.74-0.72-1.18-1.652-1.18-2.752
	c0-2.2,1.8-3.932,4-3.932H274z"/>
<linearGradient id="SVGID_8_" gradientUnits="userSpaceOnUse" x1="180" y1="350" x2="274" y2="350">
	<stop  offset="0" style="stop-color:#EDEDED"/>
	<stop  offset="1" style="stop-color:#DDDDDD"/>
</linearGradient>
<path fill="url(#SVGID_8_)" d="M184,354h90v-8h-90c-2.209,0-4,1.655-4,3.864v0.068C180,352.141,181.791,354,184,354z"/>
<linearGradient id="SVGID_9_" gradientUnits="userSpaceOnUse" x1="262.6557" y1="408" x2="190.0657" y2="408">
	<stop  offset="0" style="stop-color:#302926;stop-opacity:0.05"/>
	<stop  offset="1" style="stop-color:#783300;stop-opacity:0.1"/>
</linearGradient>
<path fill="url(#SVGID_9_)" d="M246.51,361.844l-7.1-7.844H228h-12l-7.1,7.844c-23.32,26.24-23.32,65.868,0,92.108L216,462h12h11.41
	l7.1-8.048C269.83,427.712,269.83,388.084,246.51,361.844z"/>
<linearGradient id="SVGID_10_" gradientUnits="userSpaceOnUse" x1="224.63" y1="440" x2="224.63" y2="444.3461">
	<stop  offset="0" style="stop-color:#000000;stop-opacity:0.07"/>
	<stop  offset="1" style="stop-color:#302926;stop-opacity:0"/>
</linearGradient>
<path fill="url(#SVGID_10_)" d="M280,440v4H171.5c-0.8-2-1.54-2-2.24-4H280z"/>
<linearGradient id="SVGID_11_" gradientUnits="userSpaceOnUse" x1="216.7779" y1="376" x2="216.7779" y2="391.1379">
	<stop  offset="0" style="stop-color:#F2F2F2"/>
	<stop  offset="0.4351" style="stop-color:#EEEEEE"/>
	<stop  offset="0.8852" style="stop-color:#E1E1E1"/>
	<stop  offset="1" style="stop-color:#DDDDDD"/>
</linearGradient>
<path fill="url(#SVGID_11_)" d="M274,376v16H160.565c-0.651,0-1.139-0.752-0.978-1.382c1.247-4.871,3.033-9.571,5.387-14.138
	c0.173-0.336,0.524-0.48,0.902-0.48H274z"/>
<linearGradient id="SVGID_12_" gradientUnits="userSpaceOnUse" x1="216.7779" y1="424.375" x2="216.7779" y2="440.2898">
	<stop  offset="0" style="stop-color:#F2F2F2"/>
	<stop  offset="0.4351" style="stop-color:#EEEEEE"/>
	<stop  offset="0.8852" style="stop-color:#E1E1E1"/>
	<stop  offset="1" style="stop-color:#DDDDDD"/>
</linearGradient>
<path fill="url(#SVGID_12_)" d="M274,424v16H165.877c-0.378,0-0.729-0.348-0.902-0.684c-2.354-4.567-4.141-9.266-5.387-14.138
	c-0.161-0.63,0.327-1.178,0.978-1.178H274z"/>
<linearGradient id="SVGID_13_" gradientUnits="userSpaceOnUse" x1="274.6667" y1="432" x2="227.5486" y2="432">
	<stop  offset="0" style="stop-color:#302926;stop-opacity:0"/>
	<stop  offset="1" style="stop-color:#000000;stop-opacity:0.05"/>
</linearGradient>
<rect x="228" y="424" fill="url(#SVGID_13_)" width="46" height="16"/>
<linearGradient id="SVGID_14_" gradientUnits="userSpaceOnUse" x1="275" y1="384" x2="227.8819" y2="384">
	<stop  offset="0" style="stop-color:#302926;stop-opacity:0"/>
	<stop  offset="1" style="stop-color:#000000;stop-opacity:0.05"/>
</linearGradient>
<rect x="228" y="376" fill="url(#SVGID_14_)" width="46" height="16"/>
<linearGradient id="SVGID_15_" gradientUnits="userSpaceOnUse" x1="180" y1="380.603" x2="180" y2="387.4095">
	<stop  offset="0" style="stop-color:#B5B5B5"/>
	<stop  offset="0.4252" style="stop-color:#B2B2B2"/>
	<stop  offset="0.6808" style="stop-color:#AAAAAA"/>
	<stop  offset="0.891" style="stop-color:#9C9C9C"/>
	<stop  offset="1" style="stop-color:#919191"/>
</linearGradient>
<circle fill="url(#SVGID_15_)" cx="180" cy="383.728" r="3"/>
<linearGradient id="SVGID_16_" gradientUnits="userSpaceOnUse" x1="212" y1="380.603" x2="212" y2="387.4095">
	<stop  offset="0" style="stop-color:#B5B5B5"/>
	<stop  offset="0.4252" style="stop-color:#B2B2B2"/>
	<stop  offset="0.6808" style="stop-color:#AAAAAA"/>
	<stop  offset="0.891" style="stop-color:#9C9C9C"/>
	<stop  offset="1" style="stop-color:#919191"/>
</linearGradient>
<circle fill="url(#SVGID_16_)" cx="212" cy="383.728" r="3"/>
<linearGradient id="SVGID_17_" gradientUnits="userSpaceOnUse" x1="246" y1="380.603" x2="246" y2="387.4095">
	<stop  offset="0" style="stop-color:#B5B5B5"/>
	<stop  offset="0.4252" style="stop-color:#B2B2B2"/>
	<stop  offset="0.6808" style="stop-color:#AAAAAA"/>
	<stop  offset="0.891" style="stop-color:#9C9C9C"/>
	<stop  offset="1" style="stop-color:#919191"/>
</linearGradient>
<circle fill="url(#SVGID_17_)" cx="246" cy="383.728" r="3"/>
<linearGradient id="SVGID_18_" gradientUnits="userSpaceOnUse" x1="180" y1="428.478" x2="180" y2="434.8201">
	<stop  offset="0" style="stop-color:#B5B5B5"/>
	<stop  offset="0.4252" style="stop-color:#B2B2B2"/>
	<stop  offset="0.6808" style="stop-color:#AAAAAA"/>
	<stop  offset="0.891" style="stop-color:#9C9C9C"/>
	<stop  offset="1" style="stop-color:#919191"/>
</linearGradient>
<circle fill="url(#SVGID_18_)" cx="180" cy="431.728" r="3"/>
<linearGradient id="SVGID_19_" gradientUnits="userSpaceOnUse" x1="212" y1="428.478" x2="212" y2="434.8201">
	<stop  offset="0" style="stop-color:#B5B5B5"/>
	<stop  offset="0.4252" style="stop-color:#B2B2B2"/>
	<stop  offset="0.6808" style="stop-color:#AAAAAA"/>
	<stop  offset="0.891" style="stop-color:#9C9C9C"/>
	<stop  offset="1" style="stop-color:#919191"/>
</linearGradient>
<circle fill="url(#SVGID_19_)" cx="212" cy="431.728" r="3"/>
<linearGradient id="SVGID_20_" gradientUnits="userSpaceOnUse" x1="213" y1="470.3333" x2="213" y2="465.949">
	<stop  offset="0" style="stop-color:#000000;stop-opacity:0.07"/>
	<stop  offset="1" style="stop-color:#302926;stop-opacity:0"/>
</linearGradient>
<path fill="url(#SVGID_20_)" d="M246,466v4h-62c-1.1,0-2.1-0.44-2.82-1.18C180.44,468.1,180,468,180,466H246z"/>
<linearGradient id="SVGID_21_" gradientUnits="userSpaceOnUse" x1="218.23" y1="392" x2="218.23" y2="396.3461">
	<stop  offset="0" style="stop-color:#000000;stop-opacity:0.07"/>
	<stop  offset="1" style="stop-color:#302926;stop-opacity:0"/>
</linearGradient>
<path fill="url(#SVGID_21_)" d="M274,392v4H162.46c0.24-2,0.5-2,0.82-4H274z"/>
<linearGradient id="SVGID_22_" gradientUnits="userSpaceOnUse" x1="199" y1="396.3333" x2="199" y2="391.949" gradientTransform="matrix(1 0 0 -1 0 742)">
	<stop  offset="0" style="stop-color:#000000;stop-opacity:0.05"/>
	<stop  offset="1" style="stop-color:#302926;stop-opacity:0"/>
</linearGradient>
<path fill="url(#SVGID_22_)" d="M218,350v-4h-34c-1.1,0-2.1,0.44-2.82,1.18C180.44,347.9,180,348,180,350H218z"/>
<linearGradient id="SVGID_23_" gradientUnits="userSpaceOnUse" x1="219" y1="450.5903" x2="252.3366" y2="450.5903">
	<stop  offset="0" style="stop-color:#FFE552"/>
	<stop  offset="1" style="stop-color:#FF9617"/>
</linearGradient>
<path fill="url(#SVGID_23_)" d="M218.886,450.168c7.754-1.551,14.162,3.565,15.831,5.046c0.347-12.06-8.753-20.448-14.023-23.084
	C240,427.762,246,439.881,246,439.881L249.615,470c0,0-30.794,0-30.729,0C229.732,464,224.309,453.783,218.886,450.168z"/>
<linearGradient id="SVGID_24_" gradientUnits="userSpaceOnUse" x1="231.0432" y1="441.7798" x2="276.2969" y2="441.7798">
	<stop  offset="0" style="stop-color:#FFE552"/>
	<stop  offset="1" style="stop-color:#FF9617"/>
</linearGradient>
<path fill="url(#SVGID_24_)" d="M273.114,470c0,0,6.886-62-50.613-56.036c18.076,7.23,28.922,22.036,19.884,56.036
	c-0.301,0,14.461,0,14.461,0H273.114z"/>
<linearGradient id="SVGID_25_" gradientUnits="userSpaceOnUse" x1="341.4167" y1="336" x2="370.875" y2="336">
	<stop  offset="0" style="stop-color:#9DDD43"/>
	<stop  offset="1" style="stop-color:#FFFFFF"/>
</linearGradient>
<rect x="342" y="320" fill="url(#SVGID_25_)" width="28" height="32"/>
<linearGradient id="SVGID_26_" gradientUnits="userSpaceOnUse" x1="276" y1="212.9847" x2="276" y2="470.1207">
	<stop  offset="0" style="stop-color:#B6DD54"/>
	<stop  offset="0.1433" style="stop-color:#B2DC54"/>
	<stop  offset="0.2918" style="stop-color:#A5D753"/>
	<stop  offset="0.4428" style="stop-color:#91D051"/>
	<stop  offset="0.5954" style="stop-color:#74C64F"/>
	<stop  offset="0.7494" style="stop-color:#4EB94D"/>
	<stop  offset="0.9024" style="stop-color:#21A949"/>
	<stop  offset="1" style="stop-color:#009E47"/>
</linearGradient>
<path fill="url(#SVGID_26_)" d="M346,212v258h-88V368h-36c-8.84,0-16-7.432-16-16.272v-68c0-9.18,7.74-16.56,17.06-15.96
	c8.5,0.54,14.94,7.98,14.94,16.5v49.46c0,1.1,0.9,2.272,2,2.272h18V212H346z"/>
<linearGradient id="SVGID_27_" gradientUnits="userSpaceOnUse" x1="234" y1="208" x2="370" y2="208">
	<stop  offset="0" style="stop-color:#C98039"/>
	<stop  offset="1" style="stop-color:#DDA058"/>
</linearGradient>
<path fill="url(#SVGID_27_)" d="M370,208c0,2.209-1.791,4-4,4H238c-2.209,0-4-1.791-4-4l0,0c0-2.209,1.791-4,4-4h128
	C368.209,204,370,205.791,370,208L370,208z"/>
<linearGradient id="SVGID_28_" gradientUnits="userSpaceOnUse" x1="302" y1="203.6699" x2="302" y2="122.489">
	<stop  offset="0" style="stop-color:#C98039"/>
	<stop  offset="1" style="stop-color:#E89849"/>
</linearGradient>
<path fill="url(#SVGID_28_)" d="M325.871,125.98l-14.329,13.055c-5.407,4.927-13.676,4.927-19.084,0l-14.329-13.055
	c-7.724-7.037-20.129-1.557-20.129,8.891V204h88v-69.129C346,124.423,333.595,118.943,325.871,125.98z"/>
<linearGradient id="SVGID_29_" gradientUnits="userSpaceOnUse" x1="350.6667" y1="200" x2="254.1665" y2="200">
	<stop  offset="0" style="stop-color:#935227"/>
	<stop  offset="1" style="stop-color:#A06740"/>
</linearGradient>
<path fill="url(#SVGID_29_)" d="M348,196h-92c-1.105,0-2,0.623-2,1.728V204h96v-6.272C350,196.623,349.105,196,348,196z"/>
<linearGradient id="SVGID_30_" gradientUnits="userSpaceOnUse" x1="274.0617" y1="255.728" x2="329.9383" y2="255.728">
	<stop  offset="0" style="stop-color:#FF981A"/>
	<stop  offset="0.4844" style="stop-color:#FF951A"/>
	<stop  offset="0.7754" style="stop-color:#FF8D1A"/>
	<stop  offset="1" style="stop-color:#FF801A"/>
</linearGradient>
<path fill="url(#SVGID_30_)" d="M315.938,251.96c-3.864-11.591-13.298-6.403-13.938-6.035c-0.64-0.368-10.075-5.556-13.938,6.035
	c-4,12-14,6-14,6s2,6,8,8c5.972,1.991,15.901,1.992,19.938-7.867c4.037,9.859,13.967,9.858,19.938,7.867c6-2,8-8,8-8
	S319.938,263.96,315.938,251.96z"/>
<linearGradient id="SVGID_31_" gradientUnits="userSpaceOnUse" x1="340.2122" y1="200.2884" x2="340.2122" y2="206.6218" gradientTransform="matrix(0.9613 -0.2756 0.2756 0.9613 -63.1128 117.9298)">
	<stop  offset="0" style="stop-color:#FF981A"/>
	<stop  offset="0.4844" style="stop-color:#FF951A"/>
	<stop  offset="0.7754" style="stop-color:#FF8D1A"/>
	<stop  offset="1" style="stop-color:#FF801A"/>
</linearGradient>
<path fill="url(#SVGID_31_)" d="M325.902,214.915l-13.458,3.859c-1.593,0.457-2.514,2.118-2.057,3.711l0,0
	c0.457,1.593,2.118,2.514,3.711,2.057l13.458-3.859c1.593-0.457,2.514-2.118,2.057-3.711l0,0
	C329.156,215.379,327.495,214.458,325.902,214.915z"/>
<linearGradient id="SVGID_32_" gradientUnits="userSpaceOnUse" x1="269.7538" y1="242.7364" x2="269.7538" y2="249.0697" gradientTransform="matrix(0.9613 0.2756 -0.2756 0.9613 92.4761 -91.0034)">
	<stop  offset="0" style="stop-color:#FF981A"/>
	<stop  offset="0.4844" style="stop-color:#FF951A"/>
	<stop  offset="0.7754" style="stop-color:#FF8D1A"/>
	<stop  offset="1" style="stop-color:#FF801A"/>
</linearGradient>
<path fill="url(#SVGID_32_)" d="M291.556,218.774l-13.458-3.859c-1.593-0.457-3.254,0.464-3.711,2.057l0,0
	c-0.457,1.593,0.464,3.254,2.057,3.711l13.458,3.859c1.593,0.457,3.254-0.464,3.711-2.057v0
	C294.069,220.892,293.148,219.23,291.556,218.774z"/>
<linearGradient id="SVGID_33_" gradientUnits="userSpaceOnUse" x1="302" y1="245.478" x2="302" y2="263.7043">
	<stop  offset="0" style="stop-color:#4D3326;stop-opacity:0"/>
	<stop  offset="0.4178" style="stop-color:#4F3323;stop-opacity:0.0627"/>
	<stop  offset="0.6691" style="stop-color:#57341B;stop-opacity:0.1004"/>
	<stop  offset="0.8756" style="stop-color:#64350D;stop-opacity:0.1313"/>
	<stop  offset="1" style="stop-color:#6F3600;stop-opacity:0.15"/>
</linearGradient>
<path fill="url(#SVGID_33_)" d="M315.94,255.968c-3.86-11.6-13.3-6.42-13.94-6.04c-0.64-0.38-10.08-5.56-13.94,6.04
	c-2.46,7.4-7.2,7.96-10.48,7.28c-2.56-2.42-3.52-5.28-3.52-5.28s10,6,14-6c3.86-11.6,13.3-6.42,13.94-6.04
	c0.64-0.38,10.08-5.56,13.94,6.04c4,12,14,6,14,6s-0.96,2.86-3.52,5.28C323.14,263.928,318.4,263.368,315.94,255.968L315.94,255.968
	z"/>
<linearGradient id="SVGID_34_" gradientUnits="userSpaceOnUse" x1="342" y1="145.5389" x2="342" y2="195.3751">
	<stop  offset="0" style="stop-color:#4D3326;stop-opacity:0"/>
	<stop  offset="0.5035" style="stop-color:#4F3324;stop-opacity:0.0504"/>
	<stop  offset="0.7174" style="stop-color:#55341D;stop-opacity:0.0717"/>
	<stop  offset="0.8759" style="stop-color:#603510;stop-opacity:0.0876"/>
	<stop  offset="1" style="stop-color:#6F3600;stop-opacity:0.1"/>
</linearGradient>
<rect x="338" y="146" fill="url(#SVGID_34_)" width="8" height="50"/>
<linearGradient id="SVGID_35_" gradientUnits="userSpaceOnUse" x1="302" y1="162.353" x2="302" y2="180.6304">
	<stop  offset="0" style="stop-color:#FFE057"/>
	<stop  offset="0.3317" style="stop-color:#FFD750"/>
	<stop  offset="0.8711" style="stop-color:#FFBF3E"/>
	<stop  offset="1" style="stop-color:#FFB839"/>
</linearGradient>
<path fill="url(#SVGID_35_)" d="M302.901,162.239l2.191,4.439c0.146,0.296,0.429,0.502,0.756,0.549l4.898,0.712
	c0.824,0.12,1.153,1.132,0.557,1.713l-3.544,3.455c-0.237,0.231-0.345,0.563-0.289,0.889l0.837,4.878
	c0.141,0.821-0.721,1.446-1.457,1.059l-4.381-2.303c-0.293-0.154-0.642-0.154-0.935,0l-4.381,2.303
	c-0.737,0.387-1.598-0.238-1.457-1.059l0.837-4.878c0.056-0.326-0.052-0.658-0.289-0.889l-3.544-3.455
	c-0.596-0.581-0.267-1.594,0.557-1.713l4.898-0.712c0.327-0.048,0.61-0.253,0.756-0.549l2.191-4.439
	C301.468,161.493,302.532,161.493,302.901,162.239z"/>
<linearGradient id="SVGID_36_" gradientUnits="userSpaceOnUse" x1="302" y1="417.3333" x2="302" y2="278.7532">
	<stop  offset="0" style="stop-color:#FFFFED;stop-opacity:0"/>
	<stop  offset="1" style="stop-color:#FFFFFF;stop-opacity:0.2"/>
</linearGradient>
<path fill="url(#SVGID_36_)" d="M326,392c0,13.255-10.745,24-24,24h0c-13.255,0-24-10.745-24-24v-88c0-13.255,10.745-24,24-24h0
	c13.255,0,24,10.745,24,24V392z"/>
<linearGradient id="SVGID_37_" gradientUnits="userSpaceOnUse" x1="298" y1="192" x2="298" y2="196.18">
	<stop  offset="0" style="stop-color:#302926;stop-opacity:0"/>
	<stop  offset="1" style="stop-color:#000000;stop-opacity:0.05"/>
</linearGradient>
<rect x="258" y="192" fill="url(#SVGID_37_)" width="80" height="4"/>
<linearGradient id="SVGID_38_" gradientUnits="userSpaceOnUse" x1="246.0833" y1="352" x2="258.0833" y2="352">
	<stop  offset="0" style="stop-color:#302926;stop-opacity:0"/>
	<stop  offset="0.2844" style="stop-color:#2C2523;stop-opacity:0.0142"/>
	<stop  offset="0.579" style="stop-color:#1F1B19;stop-opacity:0.0289"/>
	<stop  offset="0.8773" style="stop-color:#0B0909;stop-opacity:0.0439"/>
	<stop  offset="1" style="stop-color:#000000;stop-opacity:0.05"/>
</linearGradient>
<rect x="246" y="336" fill="url(#SVGID_38_)" width="12" height="32"/>
<linearGradient id="SVGID_39_" gradientUnits="userSpaceOnUse" x1="319.9997" y1="227.3947" x2="319.9997" y2="239.1184">
	<stop  offset="0" style="stop-color:#28AF28"/>
	<stop  offset="0.4204" style="stop-color:#31AF31"/>
	<stop  offset="1" style="stop-color:#45AF45"/>
</linearGradient>
<path fill="url(#SVGID_39_)" d="M320,238.729c-4.773,0-9.093-2.827-11.002-7.203c-0.441-1.012,0.021-2.191,1.033-2.633
	c1.012-0.439,2.192,0.021,2.633,1.033c1.273,2.918,4.153,4.803,7.336,4.803c3.182,0,6.062-1.885,7.335-4.801
	c0.441-1.012,1.623-1.473,2.634-1.032c1.012,0.442,1.475,1.621,1.032,2.634C329.09,235.903,324.772,238.729,320,238.729z"/>
<linearGradient id="SVGID_40_" gradientUnits="userSpaceOnUse" x1="284.001" y1="227.3947" x2="284.001" y2="239.1184">
	<stop  offset="0" style="stop-color:#28AF28"/>
	<stop  offset="0.4204" style="stop-color:#31AF31"/>
	<stop  offset="1" style="stop-color:#45AF45"/>
</linearGradient>
<path fill="url(#SVGID_40_)" d="M284,238.728c-4.77,0-9.087-2.824-10.998-7.194c-0.443-1.013,0.019-2.191,1.03-2.634
	c1.01-0.441,2.192,0.018,2.634,1.03c1.275,2.915,4.153,4.798,7.334,4.798c3.182,0,6.061-1.884,7.336-4.8
	c0.443-1.013,1.623-1.474,2.633-1.031c1.013,0.442,1.475,1.621,1.031,2.633C293.089,235.902,288.771,238.728,284,238.728z"/>
<linearGradient id="SVGID_41_" gradientUnits="userSpaceOnUse" x1="242" y1="333.3781" x2="242" y2="348.29">
	<stop  offset="0" style="stop-color:#302926;stop-opacity:0"/>
	<stop  offset="0.29" style="stop-color:#27211F;stop-opacity:0.029"/>
	<stop  offset="0.7616" style="stop-color:#0F0D0C;stop-opacity:0.0762"/>
	<stop  offset="1" style="stop-color:#000000;stop-opacity:0.1"/>
</linearGradient>
<path fill="url(#SVGID_41_)" d="M246,336l-8,11.728v-14c0,1.1,0.9,2.272,2,2.272H246z"/>
<linearGradient id="SVGID_42_" gradientUnits="userSpaceOnUse" x1="302" y1="461.7917" x2="302" y2="470.0017">
	<stop  offset="0" style="stop-color:#302926;stop-opacity:0"/>
	<stop  offset="1" style="stop-color:#000000;stop-opacity:0.1"/>
</linearGradient>
<rect x="258" y="462" fill="url(#SVGID_42_)" width="88" height="8"/>
<linearGradient id="SVGID_43_" gradientUnits="userSpaceOnUse" x1="289.7535" y1="131.1462" x2="304.8785" y2="144.7712">
	<stop  offset="0" style="stop-color:#4D3326;stop-opacity:0"/>
	<stop  offset="0.3207" style="stop-color:#513322;stop-opacity:0.0321"/>
	<stop  offset="0.6529" style="stop-color:#5C3415;stop-opacity:0.0653"/>
	<stop  offset="0.9894" style="stop-color:#6E3601;stop-opacity:0.0989"/>
	<stop  offset="1" style="stop-color:#6F3600;stop-opacity:0.1"/>
</linearGradient>
<path fill="url(#SVGID_43_)" d="M313.7,137.068l-8.42,8.22c-4.5,4.4-11.6,4.62-16.36,0.52l-6.08-5.24l5.92-4.9l3.7,3.36
	c5.4,4.94,13.68,4.94,19.08,0L313.7,137.068z"/>
<linearGradient id="SVGID_44_" gradientUnits="userSpaceOnUse" x1="469.0833" y1="336" x2="481.0833" y2="336" gradientTransform="matrix(-0.6667 0 0 1 666.6667 0)">
	<stop  offset="0" style="stop-color:#302926;stop-opacity:0"/>
	<stop  offset="0.2844" style="stop-color:#2C2523;stop-opacity:0.0142"/>
	<stop  offset="0.579" style="stop-color:#1F1B19;stop-opacity:0.0289"/>
	<stop  offset="0.8773" style="stop-color:#0B0909;stop-opacity:0.0439"/>
	<stop  offset="1" style="stop-color:#000000;stop-opacity:0.05"/>
</linearGradient>
<polygon fill="url(#SVGID_44_)" points="354,352 346,352 346,320 354,320 "/>
<path fill="#E8E33D" d="M352,408h-6v-4h6c1.105,0,2,0.759,2,1.864v0.068C354,407.037,353.105,408,352,408z"/>
<path fill="#E8E33D" d="M352,410h-6v-4h6c1.105,0,2,0.759,2,1.864v0.068C354,409.037,353.105,410,352,410z"/>
<linearGradient id="XMLID_3_" gradientUnits="userSpaceOnUse" x1="484.7271" y1="454.3576" x2="511.5547" y2="454.3576" gradientTransform="matrix(-1 0 0 1 1106.2506 0)">
	<stop  offset="0" style="stop-color:#FFE552"/>
	<stop  offset="1" style="stop-color:#FF9617"/>
</linearGradient>
<path id="XMLID_1_" fill="url(#XMLID_3_)" d="M621.615,454.013c-6.24-1.248-11.397,2.856-12.74,4.048
	c-0.279-9.705,7.044-16.462,11.285-18.583c-15.537-3.515-22.378,6.261-22.378,6.261L596.886,470c0,0,24.781,0,24.729,0
	C612.887,466,617.251,456.923,621.615,454.013z"/>
<linearGradient id="SVGID_45_" gradientUnits="userSpaceOnUse" x1="517.4" y1="390" x2="485.6632" y2="390">
	<stop  offset="0" style="stop-color:#9DDD43"/>
	<stop  offset="1" style="stop-color:#FFFFFF"/>
</linearGradient>
<rect x="488" y="374" fill="url(#SVGID_45_)" width="28" height="32"/>
<linearGradient id="SVGID_46_" gradientUnits="userSpaceOnUse" x1="582" y1="272.7557" x2="582" y2="470.0926">
	<stop  offset="0" style="stop-color:#B6DD54"/>
	<stop  offset="0.1433" style="stop-color:#B2DC54"/>
	<stop  offset="0.2918" style="stop-color:#A5D753"/>
	<stop  offset="0.4428" style="stop-color:#91D051"/>
	<stop  offset="0.5954" style="stop-color:#74C64F"/>
	<stop  offset="0.7494" style="stop-color:#4EB94D"/>
	<stop  offset="0.9024" style="stop-color:#21A949"/>
	<stop  offset="1" style="stop-color:#009E47"/>
</linearGradient>
<path fill="url(#SVGID_46_)" d="M652,329.728v46c0,8.84-7.16,16.272-16,16.272h-36v78h-88V272h88v88h18c1.1,0,2-1.172,2-2.272
	v-27.46c0-8.52,6.44-15.96,14.94-16.5C644.26,313.168,652,320.548,652,329.728z"/>
<linearGradient id="SVGID_47_" gradientUnits="userSpaceOnUse" x1="556" y1="436.9412" x2="556" y2="339.1199">
	<stop  offset="0" style="stop-color:#FFFFED;stop-opacity:0"/>
	<stop  offset="1" style="stop-color:#FFFFFF;stop-opacity:0.2"/>
</linearGradient>
<path fill="url(#SVGID_47_)" d="M580,412c0,13.255-10.745,24-24,24l0,0c-13.255,0-24-10.745-24-24v-48c0-13.255,10.745-24,24-24l0,0
	c13.255,0,24,10.745,24,24V412z"/>
<linearGradient id="SVGID_48_" gradientUnits="userSpaceOnUse" x1="566" y1="461.7917" x2="566" y2="470.0017">
	<stop  offset="0" style="stop-color:#302926;stop-opacity:0"/>
	<stop  offset="0.2844" style="stop-color:#2C2523;stop-opacity:0.0142"/>
	<stop  offset="0.579" style="stop-color:#1F1B19;stop-opacity:0.0289"/>
	<stop  offset="0.8773" style="stop-color:#0B0909;stop-opacity:0.0439"/>
	<stop  offset="1" style="stop-color:#000000;stop-opacity:0.05"/>
</linearGradient>
<rect x="522" y="462" fill="url(#SVGID_48_)" width="88" height="8"/>
<linearGradient id="SVGID_49_" gradientUnits="userSpaceOnUse" x1="88.0833" y1="376" x2="100.0833" y2="376" gradientTransform="matrix(-0.6667 0 0 1 666.6667 0)">
	<stop  offset="0" style="stop-color:#302926;stop-opacity:0"/>
	<stop  offset="0.2844" style="stop-color:#2C2523;stop-opacity:0.0199"/>
	<stop  offset="0.579" style="stop-color:#1F1B19;stop-opacity:0.0405"/>
	<stop  offset="0.8773" style="stop-color:#0B0909;stop-opacity:0.0614"/>
	<stop  offset="1" style="stop-color:#000000;stop-opacity:0.07"/>
</linearGradient>
<polygon fill="url(#SVGID_49_)" points="608,392 600,392 600,360 608,360 "/>
<linearGradient id="SVGID_50_" gradientUnits="userSpaceOnUse" x1="379" y1="290.0074" x2="379" y2="368.0556">
	<stop  offset="0" style="stop-color:#59D9FF"/>
	<stop  offset="0.1641" style="stop-color:#56D0FF"/>
	<stop  offset="0.4318" style="stop-color:#4FB8FF"/>
	<stop  offset="0.7677" style="stop-color:#4490FF"/>
	<stop  offset="1" style="stop-color:#3B71FF"/>
</linearGradient>
<path fill="url(#SVGID_50_)" d="M386,314l2-22h-2c-8.837,0-16,6.891-16,15.728v50c0,4.418,3.582,8,8,8l0,0c4.418,0,8-3.582,8-8V314
	L386,314z"/>
<linearGradient id="SVGID_51_" gradientUnits="userSpaceOnUse" x1="477" y1="290.0074" x2="477" y2="368.0556">
	<stop  offset="0" style="stop-color:#59D9FF"/>
	<stop  offset="0.1641" style="stop-color:#56D0FF"/>
	<stop  offset="0.4318" style="stop-color:#4FB8FF"/>
	<stop  offset="0.7677" style="stop-color:#4490FF"/>
	<stop  offset="1" style="stop-color:#3B71FF"/>
</linearGradient>
<path fill="url(#SVGID_51_)" d="M470,314l-2-22h2c8.837,0,16,6.891,16,15.728v50c0,4.418-3.582,8-8,8l0,0c-4.418,0-8-3.582-8-8V314
	L470,314z"/>
<linearGradient id="SVGID_52_" gradientUnits="userSpaceOnUse" x1="328.98" y1="411.8568" x2="401.02" y2="411.8568">
	<stop  offset="0" style="stop-color:#2ECAFF"/>
	<stop  offset="0.2414" style="stop-color:#2FC6FF"/>
	<stop  offset="0.4916" style="stop-color:#31B9FF"/>
	<stop  offset="0.7457" style="stop-color:#35A5FF"/>
	<stop  offset="1" style="stop-color:#3B88FF"/>
</linearGradient>
<path fill="url(#SVGID_52_)" d="M401.02,412.028l-15.02,7.82l-4,2.08l-27.02,14.04c-1.94,1.02-4.36,0.28-5.4-1.68l-20.6-38.86
	l1.76-0.94c9.76-5.18,21.86-1.46,27.04,8.3l24.22-12.46l4-2.06l1.92-0.98L401.02,412.028z"/>
<linearGradient id="SVGID_53_" gradientUnits="userSpaceOnUse" x1="428" y1="474" x2="428" y2="335.9855">
	<stop  offset="0" style="stop-color:#2ECAFF"/>
	<stop  offset="1" style="stop-color:#3B71FF"/>
</linearGradient>
<path fill="url(#SVGID_53_)" d="M470,447.728V336h-84v111.728c-11.046,0-20,8.954-20,20V470h44c2.209,0,4-2.063,4-4.272v-46.441
	c4.385,1.552,9.083,2.441,14,2.441s9.615-0.889,14-2.441v46.441c0,2.209,1.791,4.272,4,4.272h44v-2.272
	C490,456.682,481.046,447.728,470,447.728z"/>
<linearGradient id="SVGID_54_" gradientUnits="userSpaceOnUse" x1="428" y1="402.3857" x2="428" y2="383.1346">
	<stop  offset="0" style="stop-color:#F9808F"/>
	<stop  offset="0.391" style="stop-color:#F97792"/>
	<stop  offset="1" style="stop-color:#F96099"/>
</linearGradient>
<path fill="url(#SVGID_54_)" d="M428,401.728L428,401.728c-5.523,0-10-4.477-10-10V382h20v9.728
	C438,397.251,433.523,401.728,428,401.728z"/>
<linearGradient id="SVGID_55_" gradientUnits="userSpaceOnUse" x1="428" y1="394.3796" x2="428" y2="385.4073">
	<stop  offset="0" style="stop-color:#302926;stop-opacity:0.1"/>
	<stop  offset="0.29" style="stop-color:#27211F;stop-opacity:0.129"/>
	<stop  offset="0.7616" style="stop-color:#0F0D0C;stop-opacity:0.1762"/>
	<stop  offset="1" style="stop-color:#000000;stop-opacity:0.2"/>
</linearGradient>
<path fill="url(#SVGID_55_)" d="M428,393.728L428,393.728c-1.105,0-2-0.895-2-2V382h4v9.728
	C430,392.833,429.105,393.728,428,393.728z"/>
<linearGradient id="SVGID_56_" gradientUnits="userSpaceOnUse" x1="428" y1="385.499" x2="428" y2="255.2137">
	<stop  offset="0" style="stop-color:#55C2FF"/>
	<stop  offset="0.1665" style="stop-color:#5EC7FF"/>
	<stop  offset="0.4381" style="stop-color:#76D4FF"/>
	<stop  offset="0.7789" style="stop-color:#9EEAFF"/>
	<stop  offset="1" style="stop-color:#BBFAFF"/>
</linearGradient>
<path fill="url(#SVGID_56_)" d="M470,297.728v60c0,15.46-12.54,28.272-28,28.272h-28c-15.46,0-28-12.812-28-28.272v-60
	c0-1.7,0.16-3.38,0.44-5c0.06-0.32,0.12-0.62,0.2-0.94c2.72-12.62,13.94-22.06,27.36-22.06c0.2,0,0.28-0.24,0.16-0.36l-4.4-4.4
	c-2.62-2.62-2.32-7.06,0.92-9.24c2.4-1.62,5.68-1.14,7.72,0.92l6.74,6.74c1.58,1.58,4.14,1.58,5.72,0l6.9-6.9
	c2.42-2.42,6.38-2.34,8.7,0.24c2.18,2.4,1.84,6.18-0.46,8.48l-4.16,4.16c-0.12,0.12-0.04,0.36,0.16,0.36c13.4,0,24.6,9.42,27.36,22
	c0.02,0.12,0.04,0.26,0.08,0.38C469.8,293.928,470,295.808,470,297.728z"/>
<circle fill="#FFFFFF" cx="446" cy="331.728" r="9"/>
<linearGradient id="SVGID_57_" gradientUnits="userSpaceOnUse" x1="446" y1="327.9195" x2="446" y2="336.0097">
	<stop  offset="0" style="stop-color:#4C4B4B"/>
	<stop  offset="1" style="stop-color:#3A3838"/>
</linearGradient>
<path fill="url(#SVGID_57_)" d="M450,331.548v0.18c0,2.2-1.8,4-4,4s-4-1.664-4-3.864c0-2.2,1.8-3.864,4-3.864h0.18
	c-0.12,0-0.18,0.504-0.18,0.864c0,1.66,1.34,2.932,3,2.932C449.36,331.796,449.68,331.668,450,331.548z"/>
<linearGradient id="SVGID_58_" gradientUnits="userSpaceOnUse" x1="446" y1="312" x2="446" y2="318.353">
	<stop  offset="0" style="stop-color:#259CE5"/>
	<stop  offset="0.018" style="stop-color:#259BE4"/>
	<stop  offset="0.6261" style="stop-color:#2183D3"/>
	<stop  offset="1" style="stop-color:#1F7ACC"/>
</linearGradient>
<path fill="url(#SVGID_58_)" d="M454,314c0-1.105-0.895-2-2-2h-12c-1.105,0-2,0.895-2,2v2c0,1.105,0.895,2,2,2h12
	c1.105,0,2-0.895,2-2V314z"/>
<circle fill="#FFFFFF" cx="410" cy="331.728" r="9"/>
<linearGradient id="SVGID_59_" gradientUnits="userSpaceOnUse" x1="410" y1="327.9195" x2="410" y2="336.0097">
	<stop  offset="0" style="stop-color:#4C4B4B"/>
	<stop  offset="1" style="stop-color:#3A3838"/>
</linearGradient>
<path fill="url(#SVGID_59_)" d="M414,331.548v0.18c0,2.2-1.8,4-4,4s-4-1.664-4-3.864c0-2.2,1.8-3.864,4-3.864h0.18
	c-0.12,0-0.18,0.504-0.18,0.864c0,1.66,1.34,2.932,3,2.932C413.36,331.796,413.68,331.668,414,331.548z"/>
<linearGradient id="SVGID_60_" gradientUnits="userSpaceOnUse" x1="410" y1="312" x2="410" y2="318.353">
	<stop  offset="0" style="stop-color:#259CE5"/>
	<stop  offset="0.018" style="stop-color:#259BE4"/>
	<stop  offset="0.6261" style="stop-color:#2183D3"/>
	<stop  offset="1" style="stop-color:#1F7ACC"/>
</linearGradient>
<path fill="url(#SVGID_60_)" d="M418,314c0-1.105-0.895-2-2-2h-12c-1.105,0-2,0.895-2,2v2c0,1.105,0.895,2,2,2h12
	c1.105,0,2-0.895,2-2V314z"/>
<linearGradient id="SVGID_61_" gradientUnits="userSpaceOnUse" x1="428" y1="361.75" x2="428" y2="373.7734">
	<stop  offset="0" style="stop-color:#259CE5"/>
	<stop  offset="0.018" style="stop-color:#259BE4"/>
	<stop  offset="0.6261" style="stop-color:#2183D3"/>
	<stop  offset="1" style="stop-color:#1F7ACC"/>
</linearGradient>
<path fill="url(#SVGID_61_)" d="M434,374h-12c-2.209,0-4-1.927-4-4.136v0.068c0-4.418,3.582-7.932,8-7.932h4
	c4.418,0,8,3.446,8,7.864v0.068C438,372.141,436.209,374,434,374z"/>
<linearGradient id="SVGID_62_" gradientUnits="userSpaceOnUse" x1="406.9596" y1="294.6447" x2="406.9596" y2="275.2995">
	<stop  offset="0" style="stop-color:#FFFFED;stop-opacity:0"/>
	<stop  offset="1" style="stop-color:#FFFFFF;stop-opacity:0.25"/>
</linearGradient>
<path fill="url(#SVGID_62_)" d="M396.918,294.728c-0.41,0-0.828-0.084-1.227-0.264c-1.512-0.678-2.188-2.453-1.508-3.965
	c4.027-8.973,12.982-14.771,22.816-14.771c1.656,0,3,1.344,3,3s-1.344,3-3,3c-7.475,0-14.281,4.408-17.344,11.229
	C399.158,294.07,398.064,294.728,396.918,294.728z"/>
<linearGradient id="SVGID_63_" gradientUnits="userSpaceOnUse" x1="408.8451" y1="460.8661" x2="384.5833" y2="446.0475">
	<stop  offset="0" style="stop-color:#302926;stop-opacity:0"/>
	<stop  offset="0.29" style="stop-color:#27211F;stop-opacity:0.029"/>
	<stop  offset="0.7616" style="stop-color:#0F0D0C;stop-opacity:0.0762"/>
	<stop  offset="1" style="stop-color:#000000;stop-opacity:0.1"/>
</linearGradient>
<path fill="url(#SVGID_63_)" d="M406,463.728c0,0.66-0.04,1.32-0.1,1.96c-1.02-10.08-9.54-17.96-19.9-17.96v-4
	C397.04,443.728,406,452.688,406,463.728z"/>
<linearGradient id="SVGID_64_" gradientUnits="userSpaceOnUse" x1="480.903" y1="460.7713" x2="456.6412" y2="445.9527" gradientTransform="matrix(-1 0 0 1 928 0)">
	<stop  offset="0" style="stop-color:#302926;stop-opacity:0"/>
	<stop  offset="0.29" style="stop-color:#27211F;stop-opacity:0.029"/>
	<stop  offset="0.7616" style="stop-color:#0F0D0C;stop-opacity:0.0762"/>
	<stop  offset="1" style="stop-color:#000000;stop-opacity:0.1"/>
</linearGradient>
<path fill="url(#SVGID_64_)" d="M450,463.728c0,0.66,0.04,1.32,0.1,1.96c1.02-10.08,9.9-17.96,19.9-17.96v-4
	C458,443.728,450,452.688,450,463.728z"/>
<linearGradient id="SVGID_65_" gradientUnits="userSpaceOnUse" x1="477.7771" y1="482.982" x2="453.5153" y2="468.1634" gradientTransform="matrix(0.4683 0.8836 -0.8836 0.4683 559.8726 -219.2031)">
	<stop  offset="0" style="stop-color:#302926;stop-opacity:0"/>
	<stop  offset="0.29" style="stop-color:#27211F;stop-opacity:0.029"/>
	<stop  offset="0.7616" style="stop-color:#0F0D0C;stop-opacity:0.0762"/>
	<stop  offset="1" style="stop-color:#000000;stop-opacity:0.1"/>
</linearGradient>
<path fill="url(#SVGID_65_)" d="M353.006,427.953c-0.583,0.309-1.185,0.583-1.779,0.829c8.429-5.622,11.401-16.84,6.55-25.994
	l3.534-1.873C366.482,410.67,362.761,422.783,353.006,427.953z"/>
<linearGradient id="SVGID_66_" gradientUnits="userSpaceOnUse" x1="452" y1="351.228" x2="452" y2="364.2376">
	<stop  offset="0" style="stop-color:#CCF1FF"/>
	<stop  offset="0.2817" style="stop-color:#CBF6FF;stop-opacity:0.7183"/>
	<stop  offset="1" style="stop-color:#C9FFFF;stop-opacity:0"/>
</linearGradient>
<circle opacity="0.5" fill="url(#SVGID_66_)" cx="452" cy="357.728" r="6"/>
<linearGradient id="SVGID_67_" gradientUnits="userSpaceOnUse" x1="404" y1="351.5614" x2="404" y2="363.8958">
	<stop  offset="0" style="stop-color:#CCF1FF"/>
	<stop  offset="0.2817" style="stop-color:#CBF6FF;stop-opacity:0.7183"/>
	<stop  offset="1" style="stop-color:#C9FFFF;stop-opacity:0"/>
</linearGradient>
<circle opacity="0.5" fill="url(#SVGID_67_)" cx="404" cy="357.728" r="6"/>
<linearGradient id="SVGID_68_" gradientUnits="userSpaceOnUse" x1="381.5555" y1="405.098" x2="386.3385" y2="405.098">
	<stop  offset="0" style="stop-color:#302926;stop-opacity:0"/>
	<stop  offset="1" style="stop-color:#000000;stop-opacity:0.07"/>
</linearGradient>
<polygon fill="url(#SVGID_68_)" points="386,388.268 386,419.848 382,421.928 382,390.328 "/>
<linearGradient id="SVGID_69_" gradientUnits="userSpaceOnUse" x1="327" y1="440.364" x2="386" y2="440.364">
	<stop  offset="0" style="stop-color:#FFE057"/>
	<stop  offset="0.3124" style="stop-color:#FFDC54"/>
	<stop  offset="0.6359" style="stop-color:#FFCF4B"/>
	<stop  offset="0.9636" style="stop-color:#FFBB3B"/>
	<stop  offset="1" style="stop-color:#FFB839"/>
</linearGradient>
<path fill="url(#SVGID_69_)" d="M333,470h-6c0-32,26.467-59.272,59-59.272v6C356.775,416.728,333,440,333,470z"/>
<path opacity="0.1" d="M486,353.728v4c0,4.42-3.58,8-8,8c-2.2,0-4.2-0.9-5.66-2.34c-1.44-1.46-2.34-3.46-2.34-5.66v-4
	c0,2.2,0.9,4.2,2.34,5.66c1.46,1.44,3.46,2.34,5.66,2.34C482.42,361.728,486,358.148,486,353.728z"/>
<path opacity="0.1" d="M386,353.728v4c0,4.42-3.58,8-8,8c-2.2,0-4.2-0.9-5.66-2.34c-1.44-1.46-2.34-3.46-2.34-5.66v-4
	c0,2.2,0.9,4.2,2.34,5.66c1.46,1.44,3.46,2.34,5.66,2.34C382.42,361.728,386,358.148,386,353.728z"/>
<path opacity="0.1" d="M438,369.728c0,1.1-0.44,2.236-1.18,2.956C436.1,373.424,435.1,374,434,374h-12c-2.2,0-4-1.936-4-4.136
	c0-0.4,0.02-0.712,0.1-1.092c0.38,1.8,1.98,3.228,3.9,3.228h12c1.1,0,2.1-0.576,2.82-1.316c0.54-0.54,0.92-1.288,1.08-2.048
	C437.98,369.016,438,369.328,438,369.728z"/>
<linearGradient id="SVGID_70_" gradientUnits="userSpaceOnUse" x1="428" y1="390.2222" x2="428" y2="387.1621">
	<stop  offset="0" style="stop-color:#302926;stop-opacity:0"/>
	<stop  offset="1" style="stop-color:#000000;stop-opacity:0.05"/>
</linearGradient>
<rect x="418" y="386" fill="url(#SVGID_70_)" width="20" height="4"/>
<path opacity="0.2" d="M434,374h-12c-2.209,0-4-1.927-4-4.136v0.068c0-4.418,3.582-7.932,8-7.932h4c4.418,0,8,3.446,8,7.864v0.068
	C438,372.141,436.209,374,434,374z"/>
<linearGradient id="SVGID_71_" gradientUnits="userSpaceOnUse" x1="573.3121" y1="289.2458" x2="573.3121" y2="306.5245">
	<stop  offset="0" style="stop-color:#28AF28"/>
	<stop  offset="0.4204" style="stop-color:#31AF31"/>
	<stop  offset="1" style="stop-color:#45AF45"/>
</linearGradient>
<path fill="url(#SVGID_71_)" d="M580.607,306h-13.592c-1.217,0-2.305-0.863-2.77-1.986c-0.465-1.125-0.211-2.474,0.65-3.336
	l10.297-10.331c0.781-0.781,2.047-0.798,2.828-0.017s0.781,2.174,0,2.956L569.436,302h11.172c1.105,0,2,0.895,2,2
	S581.713,306,580.607,306z"/>
<linearGradient id="SVGID_72_" gradientUnits="userSpaceOnUse" x1="537.5991" y1="289.2719" x2="537.5991" y2="306.5237">
	<stop  offset="0" style="stop-color:#28AF28"/>
	<stop  offset="0.4204" style="stop-color:#31AF31"/>
	<stop  offset="1" style="stop-color:#45AF45"/>
</linearGradient>
<path fill="url(#SVGID_72_)" d="M544.199,306H530c-1.105,0-2-0.895-2-2s0.895-2,2-2h11.779l-8.586-8.722
	c-0.781-0.781-0.781-2.115,0-2.896s2.047-0.815,2.828-0.034l10.297,10.28c0.861,0.861,1.115,2.27,0.65,3.395
	C546.504,305.146,545.416,306,544.199,306z"/>
<path fill="#FFFFFF" d="M566,310h-20c-1.105,0-2,0.623-2,1.728V314h24v-2.272C568,310.623,567.105,310,566,310z"/>
<linearGradient id="SVGID_73_" gradientUnits="userSpaceOnUse" x1="556" y1="313.017" x2="556" y2="325.7036">
	<stop  offset="0" style="stop-color:#28AF28"/>
	<stop  offset="0.4204" style="stop-color:#31AF31"/>
	<stop  offset="1" style="stop-color:#45AF45"/>
</linearGradient>
<path fill="url(#SVGID_73_)" d="M568,314c0,4-1.78,7.064-4.54,9.264c-2.04,1.64-4.64,2.532-7.46,2.532s-5.42-0.858-7.46-2.498
	C545.78,321.098,544,318,544,314H568z"/>
<path opacity="0.12" d="M563.46,323.128c-2.04,1.64-4.64,2.6-7.46,2.6s-5.42-0.96-7.46-2.6c1.14-2.46,4.06-3.4,7.46-3.4
	S562.32,320.668,563.46,323.128z"/>
<linearGradient id="SVGID_74_" gradientUnits="userSpaceOnUse" x1="500" y1="269" x2="612" y2="269">
	<stop  offset="0" style="stop-color:#FFE552"/>
	<stop  offset="1" style="stop-color:#FF9617"/>
</linearGradient>
<path fill="url(#SVGID_74_)" d="M612,272H500v-2.272c0-2.209,1.791-3.728,4-3.728h104c2.209,0,4,1.519,4,3.728V272z"/>
<linearGradient id="SVGID_75_" gradientUnits="userSpaceOnUse" x1="556" y1="225.6667" x2="556" y2="268.0013">
	<stop  offset="0" style="stop-color:#FFFFDE"/>
	<stop  offset="0.1697" style="stop-color:#FFFDDA"/>
	<stop  offset="0.3456" style="stop-color:#FEF9CD"/>
	<stop  offset="0.5243" style="stop-color:#FDF1B9"/>
	<stop  offset="0.7049" style="stop-color:#FCE69C"/>
	<stop  offset="0.8853" style="stop-color:#FAD877"/>
	<stop  offset="1" style="stop-color:#F9CE5B"/>
</linearGradient>
<path fill="url(#SVGID_75_)" d="M586,226h-60c-8.837,0-16,6.891-16,15.728V266h92v-24.272C602,232.891,594.837,226,586,226z"/>
<linearGradient id="SVGID_76_" gradientUnits="userSpaceOnUse" x1="587" y1="225" x2="587" y2="267.5029">
	<stop  offset="0" style="stop-color:#FF981A"/>
	<stop  offset="0.4844" style="stop-color:#FF951A"/>
	<stop  offset="0.7754" style="stop-color:#FF8D1A"/>
	<stop  offset="1" style="stop-color:#FF801A"/>
</linearGradient>
<path fill="url(#SVGID_76_)" d="M572,226c8.84,0,14,6.888,14,15.728V266h16v-24.272c0-8.84-7.16-15.728-16-15.728H572z"/>
<linearGradient id="SVGID_77_" gradientUnits="userSpaceOnUse" x1="526" y1="223.3333" x2="526" y2="267.6967">
	<stop  offset="0" style="stop-color:#FF981A"/>
	<stop  offset="0.4844" style="stop-color:#FF951A"/>
	<stop  offset="0.7754" style="stop-color:#FF8D1A"/>
	<stop  offset="1" style="stop-color:#FF801A"/>
</linearGradient>
<path fill="url(#SVGID_77_)" d="M542,226c-8.84,0-16,6.888-16,15.728V266h-16v-24.272c0-8.84,7.16-15.728,16-15.728H542z"/>
<linearGradient id="SVGID_78_" gradientUnits="userSpaceOnUse" x1="556" y1="239.1947" x2="556" y2="256.7952">
	<stop  offset="0" style="stop-color:#FFE3A4"/>
	<stop  offset="1" style="stop-color:#F9B938"/>
</linearGradient>
<circle fill="url(#SVGID_78_)" cx="556" cy="247.728" r="8"/>
<linearGradient id="SVGID_79_" gradientUnits="userSpaceOnUse" x1="550" y1="224" x2="562" y2="224">
	<stop  offset="0" style="stop-color:#FFE3A4"/>
	<stop  offset="1" style="stop-color:#F9B938"/>
</linearGradient>
<path fill="url(#SVGID_79_)" d="M562,226h-12l0,0c0-2.209,1.791-4,4-4h4C560.209,222,562,223.791,562,226L562,226z"/>
<linearGradient id="SVGID_80_" gradientUnits="userSpaceOnUse" x1="499.25" y1="390" x2="512.197" y2="390">
	<stop  offset="0" style="stop-color:#302926;stop-opacity:0"/>
	<stop  offset="1" style="stop-color:#000000;stop-opacity:0.1"/>
</linearGradient>
<polygon fill="url(#SVGID_80_)" points="512,406 500,406 500,374 512,374 "/>
<linearGradient id="SVGID_81_" gradientUnits="userSpaceOnUse" x1="556" y1="461.7917" x2="556" y2="470.0017">
	<stop  offset="0" style="stop-color:#302926;stop-opacity:0"/>
	<stop  offset="1" style="stop-color:#000000;stop-opacity:0.1"/>
</linearGradient>
<rect x="512" y="462" fill="url(#SVGID_81_)" width="88" height="8"/>
<linearGradient id="SVGID_82_" gradientUnits="userSpaceOnUse" x1="448" y1="357.3781" x2="448" y2="372.29" gradientTransform="matrix(-1 0 0 1 1064 0)">
	<stop  offset="0" style="stop-color:#302926;stop-opacity:0"/>
	<stop  offset="0.29" style="stop-color:#27211F;stop-opacity:0.029"/>
	<stop  offset="0.7616" style="stop-color:#0F0D0C;stop-opacity:0.0762"/>
	<stop  offset="1" style="stop-color:#000000;stop-opacity:0.1"/>
</linearGradient>
<path fill="url(#SVGID_82_)" d="M612,360l8,11.728v-14c0,1.1-0.9,2.272-2,2.272H612z"/>
<path fill="#E8EF56" d="M252,256h6v-4h-6c-1.105,0-2,0.759-2,1.864v0.068C250,255.037,250.895,256,252,256z"/>
<path fill="#E8EF56" d="M252,320h6v-4h-6c-1.105,0-2,0.759-2,1.864v0.068C250,319.037,250.895,320,252,320z"/>
<path fill="#E8EF56" d="M352,300h-6v-4h6c1.105,0,2,0.759,2,1.864v0.068C354,299.037,353.105,300,352,300z"/>
<path fill="#E8EF56" d="M352,364h-6v-4h6c1.105,0,2,0.759,2,1.864v0.068C354,363.037,353.105,364,352,364z"/>
<path fill="#E8EF56" d="M252,384h6v-4h-6c-1.105,0-2,0.759-2,1.864v0.068C250,383.037,250.895,384,252,384z"/>
<path fill="#E8EF56" d="M352,234h-6v-4h6c1.105,0,2,0.759,2,1.864v0.068C354,233.037,353.105,234,352,234z"/>
<path fill="#E8EF56" d="M506,306h6v-4h-6c-1.105,0-2,0.759-2,1.864v0.068C504,305.037,504.895,306,506,306z"/>
<path fill="#E8EF56" d="M606,284h-6v-4h6c1.105,0,2,0.759,2,1.864v0.068C608,283.037,607.105,284,606,284z"/>
<path fill="#E8EF56" d="M606,348h-6v-4h6c1.105,0,2,0.759,2,1.864v0.068C608,347.037,607.105,348,606,348z"/>
<path fill="#E8EF56" d="M606,412h-6v-4h6c1.105,0,2,0.759,2,1.864v0.068C608,411.037,607.105,412,606,412z"/>
<path fill="#E8EF56" d="M506,370h6v-4h-6c-1.105,0-2,0.759-2,1.864v0.068C504,369.037,504.895,370,506,370z"/>
<path fill="#E8EF56" d="M506,434h6v-4h-6c-1.105,0-2,0.759-2,1.864v0.068C504,433.037,504.895,434,506,434z"/>
<linearGradient id="SVGID_83_" gradientUnits="userSpaceOnUse" x1="428" y1="165.0309" x2="428" y2="242.7674">
	<stop  offset="0" style="stop-color:#F5F6ED"/>
	<stop  offset="0.6225" style="stop-color:#EDEDE9"/>
	<stop  offset="1" style="stop-color:#E5E5E5"/>
</linearGradient>
<path fill="url(#SVGID_83_)" d="M436,168h-16c-17.673,0-32,14.191-32,31.864v-0.068c0,15.755,11.392,28.793,26.385,31.447
	c2.009,0.356,3.812,1.431,5.036,3.063l8.579,11.43l8.579-11.442c1.224-1.632,3.027-2.727,5.036-3.083
	C456.608,228.557,468,215.484,468,199.729v0.135C468,182.191,453.673,168,436,168z"/>
<linearGradient id="SVGID_84_" gradientUnits="userSpaceOnUse" x1="428" y1="219.5754" x2="428" y2="179.8751">
	<stop  offset="0" style="stop-color:#55C2FF"/>
	<stop  offset="0.1665" style="stop-color:#5EC7FF"/>
	<stop  offset="0.4381" style="stop-color:#76D4FF"/>
	<stop  offset="0.7789" style="stop-color:#9EEAFF"/>
	<stop  offset="1" style="stop-color:#BBFAFF"/>
</linearGradient>
<path fill="url(#SVGID_84_)" d="M444,203.728c0,8.837-7.163,16-16,16s-16-7.163-16-16c0-12,16-24,16-24S444,191.728,444,203.728z"/>
<path opacity="0.1" d="M444,203.728c0,8.84-7.16,16-16,16s-16-7.16-16-16c0-0.64,0.04-1.28,0.14-1.9c1.02,7.84,7.74,13.9,15.86,13.9
	s14.84-6.06,15.86-13.9C443.96,202.448,444,203.088,444,203.728z"/>
<linearGradient id="SVGID_85_" gradientUnits="userSpaceOnUse" x1="556" y1="278" x2="556" y2="272.2991">
	<stop  offset="0" style="stop-color:#302926;stop-opacity:0"/>
	<stop  offset="1" style="stop-color:#000000;stop-opacity:0.05"/>
</linearGradient>
<rect x="512" y="272" fill="url(#SVGID_85_)" width="88" height="6"/>
<path fill="#E8E8E8" d="M181.141,309.118l1.041,3.361c0.158,0.51,0.557,0.91,1.068,1.068l3.361,1.041c0.3,0.093,0.3,0.518,0,0.611
	l-3.361,1.041c-0.51,0.158-0.91,0.557-1.068,1.068l-1.041,3.361c-0.093,0.3-0.518,0.3-0.611,0l-1.041-3.361
	c-0.158-0.51-0.557-0.909-1.068-1.068l-3.361-1.041c-0.3-0.093-0.3-0.518,0-0.611l3.361-1.041c0.51-0.158,0.91-0.557,1.068-1.068
	l1.041-3.361C180.623,308.818,181.048,308.818,181.141,309.118z"/>
<linearGradient id="SVGID_86_" gradientUnits="userSpaceOnUse" x1="168" y1="172.9155" x2="168" y2="223.9042">
	<stop  offset="0" style="stop-color:#FFEFAB"/>
	<stop  offset="0.1814" style="stop-color:#FFEDA7"/>
	<stop  offset="0.3695" style="stop-color:#FEE79A"/>
	<stop  offset="0.5605" style="stop-color:#FDDD86"/>
	<stop  offset="0.7537" style="stop-color:#FCD069"/>
	<stop  offset="0.9467" style="stop-color:#FABE44"/>
	<stop  offset="1" style="stop-color:#F9B938"/>
</linearGradient>
<circle fill="url(#SVGID_86_)" cx="168" cy="199.728" r="26"/>
<circle opacity="0.3" fill="#993E00" cx="158" cy="197.728" r="4"/>
<path opacity="0.3" fill="#993E00" d="M174,197.728c0-2.209,1.791-4,4-4s4,1.791,4,4s-1.791,4-4,4S174,199.937,174,197.728
	L174,197.728z"/>
<path opacity="0.3" fill="#993E00" d="M172.921,210c0.624,0,1.086-0.706,0.993-1.323c-0.482-3.209-2.947-4.881-5.915-4.881
	s-5.432,1.706-5.915,4.915c-0.093,0.617,0.369,1.289,0.993,1.289H172.921z"/>
</svg>
