<?xml version="1.0" encoding="iso-8859-1"?>
<!-- Generator: Adobe Illustrator 22.1.0, SVG Export Plug-In . SVG Version: 6.00 Build 0)  -->
<svg version="1.1" id="bad_x5F_gateway" xmlns="http://www.w3.org/2000/svg" xmlns:xlink="http://www.w3.org/1999/xlink" x="0px"
	 y="0px" viewBox="0 0 800 600" enable-background="new 0 0 800 600" xml:space="preserve">
<path fill="#E8E8E8" d="M587.191,390.427l1.215,3.921c0.184,0.595,0.65,1.061,1.245,1.245l3.921,1.215
	c0.35,0.108,0.35,0.604,0,0.713l-3.921,1.215c-0.595,0.184-1.061,0.65-1.245,1.245l-1.215,3.921c-0.108,0.35-0.604,0.35-0.713,0
	l-1.215-3.921c-0.184-0.595-0.65-1.061-1.245-1.245l-3.921-1.215c-0.35-0.108-0.35-0.604,0-0.713l3.921-1.215
	c0.595-0.184,1.061-0.65,1.245-1.245l1.215-3.921C586.587,390.076,587.083,390.076,587.191,390.427z"/>
<linearGradient id="SVGID_1_" gradientUnits="userSpaceOnUse" x1="148" y1="502" x2="620" y2="502">
	<stop  offset="0" style="stop-color:#EDEDED"/>
	<stop  offset="1" style="stop-color:#DDDDDD"/>
</linearGradient>
<rect x="148" y="498" fill="url(#SVGID_1_)" width="472" height="8"/>
<linearGradient id="SVGID_2_" gradientUnits="userSpaceOnUse" x1="637.6" y1="114.3997" x2="444.1151" y2="307.8846">
	<stop  offset="0" style="stop-color:#76E5FF"/>
	<stop  offset="0.0234" style="stop-color:#83E7FF"/>
	<stop  offset="0.0918" style="stop-color:#A4EEFF"/>
	<stop  offset="0.1683" style="stop-color:#C1F3FF"/>
	<stop  offset="0.2534" style="stop-color:#D8F8FF"/>
	<stop  offset="0.3511" style="stop-color:#E9FBFF"/>
	<stop  offset="0.4688" style="stop-color:#F6FDFF"/>
	<stop  offset="0.6272" style="stop-color:#FDFFFF"/>
	<stop  offset="1" style="stop-color:#FFFFFF"/>
</linearGradient>
<circle fill="url(#SVGID_2_)" cx="544" cy="208" r="108"/>
<linearGradient id="SVGID_3_" gradientUnits="userSpaceOnUse" x1="427" y1="329.75" x2="427" y2="399.5287">
	<stop  offset="0" style="stop-color:#FFB024"/>
	<stop  offset="0.2814" style="stop-color:#FDA726"/>
	<stop  offset="0.7389" style="stop-color:#F88F2B"/>
	<stop  offset="1" style="stop-color:#F47E2F"/>
</linearGradient>
<path fill="url(#SVGID_3_)" d="M416,398h22v-68h-10c-6.627,0-12,5.372-12,12V398z"/>
<rect x="580" y="296" fill="#89512B" width="12" height="4"/>
<linearGradient id="SVGID_4_" gradientUnits="userSpaceOnUse" x1="586" y1="305.75" x2="586" y2="333.2909">
	<stop  offset="0" style="stop-color:#965B32"/>
	<stop  offset="1" style="stop-color:#89512B"/>
</linearGradient>
<path fill="url(#SVGID_4_)" d="M580,306h12v22c0,2.2-1.8,4-4,4h-4c-2.2,0-4-1.8-4-4V306z"/>
<linearGradient id="SVGID_5_" gradientUnits="userSpaceOnUse" x1="568" y1="298" x2="604" y2="298">
	<stop  offset="0" style="stop-color:#C4875F"/>
	<stop  offset="1" style="stop-color:#C47A51"/>
</linearGradient>
<path fill="url(#SVGID_5_)" d="M604,298c0,1.105-0.895,2-2,2h-32c-1.105,0-2-0.895-2-2l0,0c0-1.105,0.895-2,2-2h32
	C603.105,296,604,296.895,604,298L604,298z"/>
<linearGradient id="SVGID_6_" gradientUnits="userSpaceOnUse" x1="590" y1="306.25" x2="590" y2="312.1263">
	<stop  offset="0" style="stop-color:#FFDDCA"/>
	<stop  offset="1" style="stop-color:#FFD3C0"/>
</linearGradient>
<path fill="url(#SVGID_6_)" d="M596,309c0,1.657-1.343,3-3,3h-6c-1.657,0-3-1.343-3-3l0,0c0-1.657,1.343-3,3-3h6
	C594.657,306,596,307.343,596,309L596,309z"/>
<linearGradient id="SVGID_7_" gradientUnits="userSpaceOnUse" x1="591" y1="311.5" x2="591" y2="318.3852">
	<stop  offset="0" style="stop-color:#FFDDCA"/>
	<stop  offset="1" style="stop-color:#FFD3C0"/>
</linearGradient>
<path fill="url(#SVGID_7_)" d="M598,315c0,1.657-1.343,3-3,3h-8c-1.657,0-3-1.343-3-3l0,0c0-1.657,1.343-3,3-3h8
	C596.657,312,598,313.343,598,315L598,315z"/>
<linearGradient id="SVGID_8_" gradientUnits="userSpaceOnUse" x1="591" y1="312.0625" x2="591" y2="305.8219">
	<stop  offset="0" style="stop-color:#610000;stop-opacity:0.05"/>
	<stop  offset="0.1446" style="stop-color:#640807;stop-opacity:0.0428"/>
	<stop  offset="0.6743" style="stop-color:#6C201E;stop-opacity:0.0163"/>
	<stop  offset="1" style="stop-color:#6F2926;stop-opacity:0"/>
</linearGradient>
<path fill="url(#SVGID_8_)" d="M598,309c0,1.657-1.343,3-3,3h-8c-1.657,0-3-1.343-3-3l0,0c0-1.657,1.343-3,3-3h8
	C596.657,306,598,307.343,598,309L598,309z"/>
<linearGradient id="SVGID_9_" gradientUnits="userSpaceOnUse" x1="591" y1="318.0833" x2="591" y2="311.968">
	<stop  offset="0" style="stop-color:#610000;stop-opacity:0.05"/>
	<stop  offset="0.1446" style="stop-color:#640807;stop-opacity:0.0428"/>
	<stop  offset="0.6743" style="stop-color:#6C201E;stop-opacity:0.0163"/>
	<stop  offset="1" style="stop-color:#6F2926;stop-opacity:0"/>
</linearGradient>
<path fill="url(#SVGID_9_)" d="M598,315c0,1.657-1.343,3-3,3h-8c-1.657,0-3-1.343-3-3l0,0c0-1.657,1.343-3,3-3h8
	C596.657,312,598,313.343,598,315L598,315z"/>
<linearGradient id="SVGID_10_" gradientUnits="userSpaceOnUse" x1="562" y1="312.9999" x2="598" y2="312.9999">
	<stop  offset="0" style="stop-color:#FFDDCA"/>
	<stop  offset="1" style="stop-color:#FFC4B0"/>
</linearGradient>
<path fill="url(#SVGID_10_)" d="M598,304v6c0,1.66-1.34,3-3,3s-3-1.34-3-3v-4h-9.979c-1.116,0-2.021,0.904-2.021,2.021V324h-5.151
	c-0.543,0-1.064,0.216-1.448,0.6L572,326l-10-10l12.22-13.98c1.14-1.28,2.76-2.02,4.48-2.02H594C596.2,300,598,301.8,598,304z"/>
<linearGradient id="SVGID_11_" gradientUnits="userSpaceOnUse" x1="593.1031" y1="204.6664" x2="593.1031" y2="295.649">
	<stop  offset="0" style="stop-color:#E5E5E5"/>
	<stop  offset="0.4987" style="stop-color:#DCDCDC"/>
	<stop  offset="1" style="stop-color:#CECECE"/>
</linearGradient>
<path fill="url(#SVGID_11_)" d="M595.076,216.96l-11.567-13.013c-1.227-1.38-3.509-0.512-3.509,1.334V296h12l11.944-35.833
	C608.928,245.215,605.547,228.74,595.076,216.96z"/>
<linearGradient id="SVGID_12_" gradientUnits="userSpaceOnUse" x1="593.0957" y1="252.4997" x2="593.0957" y2="202.7472">
	<stop  offset="0" style="stop-color:#FFFFED;stop-opacity:0"/>
	<stop  offset="1" style="stop-color:#FFFFFF;stop-opacity:0.25"/>
</linearGradient>
<path fill="url(#SVGID_12_)" d="M605.78,252.18c-1.16-8.48-4.8-16.6-10.7-23.22L580,212v-6.72c0-1.84,2.28-2.72,3.5-1.34
	l11.58,13.02C603.7,226.68,607.52,239.58,605.78,252.18z"/>
<linearGradient id="SVGID_13_" gradientUnits="userSpaceOnUse" x1="542.1816" y1="314.7498" x2="542.1816" y2="348.1708">
	<stop  offset="0" style="stop-color:#FFB024"/>
	<stop  offset="0.2814" style="stop-color:#FDA726"/>
	<stop  offset="0.7389" style="stop-color:#F88F2B"/>
	<stop  offset="1" style="stop-color:#F47E2F"/>
</linearGradient>
<path fill="url(#SVGID_13_)" d="M546.77,348H512v-18h30.599c1.071,0,2.098-0.426,2.855-1.183l14.183-14.182l12.727,12.728
	l-17.129,17.13C552.99,346.739,549.945,348,546.77,348z"/>
<path fill="#FF9022" d="M569.443,331.685l-14.129-14.129c-0.793-0.793-0.793-2.078,0-2.871l1.371-1.371
	c0.793-0.793,2.078-0.793,2.871,0l14.129,14.129c0.793,0.793,0.793,2.078,0,2.871l-1.371,1.371
	C571.522,332.478,570.236,332.478,569.443,331.685z"/>
<linearGradient id="SVGID_14_" gradientUnits="userSpaceOnUse" x1="518.25" y1="339" x2="513.7483" y2="339">
	<stop  offset="0" style="stop-color:#B54400;stop-opacity:0"/>
	<stop  offset="1" style="stop-color:#702700;stop-opacity:0.15"/>
</linearGradient>
<rect x="514" y="330" fill="url(#SVGID_14_)" width="4" height="18"/>
<linearGradient id="SVGID_15_" gradientUnits="userSpaceOnUse" x1="474" y1="310.75" x2="474" y2="387.0016">
	<stop  offset="0" style="stop-color:#FFB024"/>
	<stop  offset="0.2814" style="stop-color:#FDA726"/>
	<stop  offset="0.7389" style="stop-color:#F88F2B"/>
	<stop  offset="1" style="stop-color:#F47E2F"/>
</linearGradient>
<rect x="434" y="312" fill="url(#SVGID_15_)" width="80" height="74"/>
<linearGradient id="SVGID_16_" gradientUnits="userSpaceOnUse" x1="520" y1="460" x2="576" y2="460">
	<stop  offset="0" style="stop-color:#D86E27"/>
	<stop  offset="1" style="stop-color:#D8893A"/>
</linearGradient>
<path fill="url(#SVGID_16_)" d="M544,452v-8h-24v32h56v-12c0-4.418-3.582-8-8-8h-20C545.791,456,544,454.209,544,452z"/>
<linearGradient id="SVGID_17_" gradientUnits="userSpaceOnUse" x1="518" y1="280.75" x2="518" y2="302.9533">
	<stop  offset="0" style="stop-color:#FFD3BB"/>
	<stop  offset="1" style="stop-color:#FFC4B0"/>
</linearGradient>
<path fill="url(#SVGID_17_)" d="M518,282h-10v10c0,5.523,4.477,10,10,10s10-4.477,10-10S523.523,282,518,282z"/>
<linearGradient id="SVGID_18_" gradientUnits="userSpaceOnUse" x1="420" y1="286" x2="517.0967" y2="286">
	<stop  offset="0" style="stop-color:#FFDDCA"/>
	<stop  offset="1" style="stop-color:#FFD7C7"/>
</linearGradient>
<path fill="url(#SVGID_18_)" d="M434,260v22h-4c-5.523,0-10,4.477-10,10s4.477,10,10,10c1.424,0,2.774-0.308,4-0.844V312h80v-52H434
	z"/>
<circle fill="#FFFFFF" cx="458" cy="286" r="8"/>
<linearGradient id="SVGID_19_" gradientUnits="userSpaceOnUse" x1="458" y1="281.75" x2="458" y2="290.0651">
	<stop  offset="0" style="stop-color:#4C4B4B"/>
	<stop  offset="1" style="stop-color:#3A3838"/>
</linearGradient>
<path fill="url(#SVGID_19_)" d="M462,285.82V286c0,2.2-1.8,4-4,4s-4-1.8-4-4c0-2.2,1.8-4,4-4h0.18c-0.12,0-0.18,0.64-0.18,1
	c0,1.66,1.34,3,3,3C461.36,286,461.68,285.94,462,285.82z"/>
<linearGradient id="SVGID_20_" gradientUnits="userSpaceOnUse" x1="494" y1="311.3333" x2="494" y2="386.7728">
	<stop  offset="0" style="stop-color:#B54400;stop-opacity:0"/>
	<stop  offset="0.3685" style="stop-color:#B64000;stop-opacity:0.0737"/>
	<stop  offset="0.7497" style="stop-color:#B73300;stop-opacity:0.1499"/>
	<stop  offset="1" style="stop-color:#B92700;stop-opacity:0.2"/>
</linearGradient>
<rect x="474" y="312" fill="url(#SVGID_20_)" width="40" height="74"/>
<linearGradient id="SVGID_21_" gradientUnits="userSpaceOnUse" x1="518" y1="287.5" x2="518" y2="297.1677">
	<stop  offset="0" style="stop-color:#FFC7B8"/>
	<stop  offset="1" style="stop-color:#FFB19F"/>
</linearGradient>
<path fill="url(#SVGID_21_)" d="M518,288h-4v4c0,2.209,1.791,4,4,4s4-1.791,4-4C522,289.791,520.209,288,518,288z"/>
<linearGradient id="SVGID_22_" gradientUnits="userSpaceOnUse" x1="430" y1="287.8333" x2="430" y2="296.6726">
	<stop  offset="0" style="stop-color:#FFC7B8"/>
	<stop  offset="1" style="stop-color:#FFB19F"/>
</linearGradient>
<path fill="url(#SVGID_22_)" d="M430,288h4v4c0,2.209-1.791,4-4,4s-4-1.791-4-4C426,289.791,427.791,288,430,288z"/>
<path opacity="0.05" d="M522,292c0,0.34-0.04,0.68-0.14,1c-0.44-1.72-2-3-3.86-3h-4v-2h4C520.2,288,522,289.8,522,292z"/>
<path opacity="0.05" d="M426,292c0,0.34,0.04,0.68,0.14,1c0.44-1.72,2-3,3.86-3h4v-2h-4C427.8,288,426,289.8,426,292z"/>
<linearGradient id="SVGID_23_" gradientUnits="userSpaceOnUse" x1="474" y1="287.8333" x2="474" y2="298.3664">
	<stop  offset="0" style="stop-color:#FFC8B0"/>
	<stop  offset="1" style="stop-color:#FFC4B0"/>
</linearGradient>
<path fill="url(#SVGID_23_)" d="M478,294c0,2.209-1.791,4-4,4l0,0c-2.209,0-4-1.791-4-4v-2c0-2.209,1.791-4,4-4l0,0
	c2.209,0,4,1.791,4,4V294z"/>
<linearGradient id="SVGID_24_" gradientUnits="userSpaceOnUse" x1="428" y1="297.5" x2="428" y2="308.3241">
	<stop  offset="0" style="stop-color:#FFCC4D"/>
	<stop  offset="1" style="stop-color:#FFBB25"/>
</linearGradient>
<path fill="url(#SVGID_24_)" d="M430,306c0,1.105-0.895,2-2,2l0,0c-1.105,0-2-0.895-2-2v-6c0-1.105,0.895-2,2-2l0,0
	c1.105,0,2,0.895,2,2V306z"/>
<linearGradient id="SVGID_25_" gradientUnits="userSpaceOnUse" x1="474" y1="301.75" x2="474" y2="354.2503">
	<stop  offset="0" style="stop-color:#FF8224"/>
	<stop  offset="1" style="stop-color:#FF6639"/>
</linearGradient>
<path fill="url(#SVGID_25_)" d="M512,302h-8c-5.523,0-10,4.477-10,10c0-5.523-4.477-10-10-10h-10h-10c-5.523,0-10,4.477-10,10
	c0-5.523-4.477-10-10-10h-8c-1.105,0-2,0.895-2,2v28c0,5.523,4.477,10,10,10s10-4.477,10-10v12c0,5.523,4.477,10,10,10
	s10-4.477,10-10c0,5.523,4.477,10,10,10s10-4.477,10-10v-12c0,5.523,4.477,10,10,10s10-4.477,10-10v-28
	C514,302.895,513.105,302,512,302z"/>
<path fill="#FFFFFF" d="M486,314c0,2.209-1.791,4-4,4h-16c-2.209,0-4-1.791-4-4l0,0c0-2.209,1.791-4,4-4h16
	C484.209,310,486,311.791,486,314L486,314z"/>
<linearGradient id="SVGID_26_" gradientUnits="userSpaceOnUse" x1="474" y1="240.4444" x2="474" y2="224.5808">
	<stop  offset="0" style="stop-color:#4C3E34"/>
	<stop  offset="1" style="stop-color:#594B42"/>
</linearGradient>
<path fill="url(#SVGID_26_)" d="M510,224h-72c-4.418,0-8,3.581-8,8v8h88v-8C518,227.581,514.418,224,510,224z"/>
<linearGradient id="SVGID_27_" gradientUnits="userSpaceOnUse" x1="474" y1="196.4997" x2="474" y2="261.0078">
	<stop  offset="0" style="stop-color:#895E46"/>
	<stop  offset="1" style="stop-color:#705747"/>
</linearGradient>
<path fill="url(#SVGID_27_)" d="M518,236h-6c-3.32,0-6-2.68-6-6v-2c0-17.673-14.327-32-32-32s-32,14.327-32,32v2c0,3.32-2.68,6-6,6
	h-6c-6.627,0-12,5.373-12,12s5.373,12,12,12h88c6.627,0,12-5.373,12-12S524.627,236,518,236z"/>
<path fill="#FFFFFF" d="M483.4,234.58c-0.58-0.6-0.74-1.5-0.38-2.26c1.3-2.72,1.3-5.92,0-8.64c-0.36-0.76-0.2-1.66,0.38-2.26
	l0.5-0.5c0.78-0.78,0.78-2.04,0-2.82c-0.38-0.38-0.9-0.58-1.42-0.58c-0.5,0-1,0.2-1.4,0.58l-0.5,0.5c-0.6,0.58-1.5,0.74-2.26,0.38
	c-2.72-1.3-5.92-1.3-8.64,0c-0.76,0.36-1.66,0.2-2.26-0.38l-0.5-0.5c-0.78-0.78-2.04-0.78-2.82,0c-0.38,0.38-0.58,0.9-0.58,1.42
	c0,0.5,0.2,1,0.58,1.4l0.5,0.5c0.58,0.6,0.74,1.5,0.38,2.26c-1.3,2.72-1.3,5.92,0,8.64c0.36,0.76,0.2,1.66-0.38,2.26l-0.5,0.5
	c-0.78,0.78-0.78,2.04,0,2.82c0.38,0.38,0.9,0.58,1.42,0.58c0.5,0,1-0.2,1.4-0.58l0.5-0.5c0.6-0.58,1.5-0.74,2.26-0.38
	c2.72,1.3,5.92,1.3,8.64,0c0.76-0.36,1.66-0.2,2.26,0.38l0.5,0.5c0.78,0.78,2.04,0.78,2.82,0c0.38-0.38,0.58-0.9,0.58-1.42
	c0-0.5-0.2-1-0.58-1.4L483.4,234.58z M474,234c-3.32,0-6-2.68-6-6c0-3.32,2.68-6,6-6s6,2.68,6,6C480,231.32,477.32,234,474,234z"/>
<linearGradient id="SVGID_28_" gradientUnits="userSpaceOnUse" x1="485" y1="410" x2="547.3939" y2="410">
	<stop  offset="0" style="stop-color:#3A3C3D"/>
	<stop  offset="0.824" style="stop-color:#484B4F"/>
	<stop  offset="1" style="stop-color:#4B4F54"/>
</linearGradient>
<path fill="url(#SVGID_28_)" d="M484,386v28h32c1.105,0,2,0.895,2,2v18h28v-20v-16c0-6.627-5.373-12-12-12H484z"/>
<linearGradient id="SVGID_29_" gradientUnits="userSpaceOnUse" x1="434" y1="416" x2="514" y2="416">
	<stop  offset="0" style="stop-color:#3A3C3D"/>
	<stop  offset="0.1553" style="stop-color:#3F4143"/>
	<stop  offset="0.5848" style="stop-color:#484C50"/>
	<stop  offset="1" style="stop-color:#4B4F54"/>
</linearGradient>
<path fill="url(#SVGID_29_)" d="M462,386h-28v60h28v-28c0-2.209,1.791-4,4-4h28c11.046,0,20-8.955,20-20v-8H462z"/>
<linearGradient id="SVGID_30_" gradientUnits="userSpaceOnUse" x1="514" y1="438" x2="550" y2="438">
	<stop  offset="0" style="stop-color:#3A3C3D"/>
	<stop  offset="0.1553" style="stop-color:#3F4143"/>
	<stop  offset="0.5848" style="stop-color:#484C50"/>
	<stop  offset="1" style="stop-color:#4B4F54"/>
</linearGradient>
<path fill="url(#SVGID_30_)" d="M550,444c0,1.105-0.895,2-2,2h-32c-1.105,0-2-0.895-2-2v-12c0-1.105,0.895-2,2-2h32
	c1.105,0,2,0.895,2,2V444z"/>
<linearGradient id="SVGID_31_" gradientUnits="userSpaceOnUse" x1="448" y1="453.5" x2="448" y2="501.0102">
	<stop  offset="0" style="stop-color:#D86E27"/>
	<stop  offset="1" style="stop-color:#D8893A"/>
</linearGradient>
<path fill="url(#SVGID_31_)" d="M458,452l-0.86,10l-0.36,4l-2.26,26.02c-0.3,3.38-3.12,5.98-6.52,5.98s-6.22-2.6-6.52-5.98
	L439.22,466l-0.36-4L438,452H458z"/>
<linearGradient id="SVGID_32_" gradientUnits="userSpaceOnUse" x1="432" y1="453" x2="464" y2="453">
	<stop  offset="0" style="stop-color:#FFCC4D"/>
	<stop  offset="1" style="stop-color:#FFB03E"/>
</linearGradient>
<path fill="url(#SVGID_32_)" d="M456,462h-16c-4.418,0-8-3.582-8-8v-8c0-1.105,0.895-2,2-2h28c1.105,0,2,0.895,2,2v8
	C464,458.418,460.418,462,456,462z"/>
<path fill="#845535" d="M578,474c0-1.105-0.895-2-2-2h-56c-1.105,0-2,0.895-2,2l0,0c0,1.105,0.895,2,2,2h56
	C577.105,476,578,475.105,578,474L578,474z"/>
<linearGradient id="SVGID_33_" gradientUnits="userSpaceOnUse" x1="552" y1="453.875" x2="552" y2="462.5009">
	<stop  offset="0" style="stop-color:#4C3E34"/>
	<stop  offset="1" style="stop-color:#594B42"/>
</linearGradient>
<path fill="url(#SVGID_33_)" d="M554,460c0,1.105-0.895,2-2,2l0,0c-1.105,0-2-0.895-2-2v-4c0-1.105,0.895-2,2-2l0,0
	c1.105,0,2,0.895,2,2V460z"/>
<linearGradient id="SVGID_34_" gradientUnits="userSpaceOnUse" x1="560" y1="453.875" x2="560" y2="462.5009">
	<stop  offset="0" style="stop-color:#4C3E34"/>
	<stop  offset="1" style="stop-color:#594B42"/>
</linearGradient>
<path fill="url(#SVGID_34_)" d="M562,460c0,1.105-0.895,2-2,2l0,0c-1.105,0-2-0.895-2-2v-4c0-1.105,0.895-2,2-2l0,0
	c1.105,0,2,0.895,2,2V460z"/>
<linearGradient id="SVGID_35_" gradientUnits="userSpaceOnUse" x1="524" y1="472.0938" x2="524" y2="463.997">
	<stop  offset="0" style="stop-color:#000000;stop-opacity:0.1"/>
	<stop  offset="1" style="stop-color:#302926;stop-opacity:0"/>
</linearGradient>
<path fill="url(#SVGID_35_)" d="M528,472h-8v-8h4c2.209,0,4,1.791,4,4V472z"/>
<linearGradient id="SVGID_36_" gradientUnits="userSpaceOnUse" x1="508" y1="487" x2="588" y2="487">
	<stop  offset="0" style="stop-color:#E5E5E5"/>
	<stop  offset="1" style="stop-color:#CECECE"/>
</linearGradient>
<path fill="url(#SVGID_36_)" d="M578,476h-60c-5.523,0-10,4.477-10,10v8c0,2.209,1.791,4,4,4h72c2.209,0,4-1.791,4-4v-8
	C588,480.477,583.523,476,578,476z"/>
<path fill="#FF9022" d="M434,402h-18c-1.105,0-2-0.896-2-2v-2c0-1.105,0.895-2,2-2h18V402z"/>
<linearGradient id="SVGID_37_" gradientUnits="userSpaceOnUse" x1="436" y1="407.7497" x2="436" y2="435.1381">
	<stop  offset="0" style="stop-color:#E5E5E5"/>
	<stop  offset="0.4987" style="stop-color:#DCDCDC"/>
	<stop  offset="1" style="stop-color:#CECECE"/>
</linearGradient>
<path fill="url(#SVGID_37_)" d="M436,435c-8.822,0-16-7.178-16-16v-7c0-2.209,1.791-4,4-4s4,1.791,4,4v7c0,4.412,3.588,8,8,8
	s8-3.588,8-8c0-2.209,1.791-4,4-4s4,1.791,4,4C452,427.822,444.822,435,436,435z"/>
<linearGradient id="SVGID_38_" gradientUnits="userSpaceOnUse" x1="416" y1="407.4998" x2="434" y2="407.4998">
	<stop  offset="0" style="stop-color:#FFCC4D"/>
	<stop  offset="1" style="stop-color:#FFB03E"/>
</linearGradient>
<path fill="url(#SVGID_38_)" d="M416,404c0,4.971,4.029,9,9,9s9-4.029,9-9v-2h-18V404z"/>
<linearGradient id="SVGID_39_" gradientUnits="userSpaceOnUse" x1="434" y1="384" x2="514" y2="384">
	<stop  offset="0" style="stop-color:#965B32"/>
	<stop  offset="1" style="stop-color:#89512B"/>
</linearGradient>
<rect x="434" y="382" fill="url(#SVGID_39_)" width="80" height="4"/>
<linearGradient id="SVGID_40_" gradientUnits="userSpaceOnUse" x1="474" y1="378.3333" x2="474" y2="389.3384">
	<stop  offset="0" style="stop-color:#E5E5E5"/>
	<stop  offset="0.4987" style="stop-color:#DCDCDC"/>
	<stop  offset="1" style="stop-color:#CECECE"/>
</linearGradient>
<path fill="url(#SVGID_40_)" d="M482,388c0,1.105-0.895,2-2,2h-12c-1.105,0-2-0.895-2-2v-8c0-1.105,0.895-2,2-2h12
	c1.105,0,2,0.895,2,2V388z"/>
<linearGradient id="SVGID_41_" gradientUnits="userSpaceOnUse" x1="513" y1="259.5" x2="513" y2="282.7554">
	<stop  offset="0" style="stop-color:#FF8224"/>
	<stop  offset="1" style="stop-color:#FF6639"/>
</linearGradient>
<path fill="url(#SVGID_41_)" d="M517,270c2.761,0,5-2.238,5-5c0-2.761-2.239-5-5-5h-13v2c0,4.418,3.582,8,8,8h2v12h3
	c2.761,0,5-2.239,5-5v-2C522,272.238,519.761,270,517,270z"/>
<linearGradient id="SVGID_42_" gradientUnits="userSpaceOnUse" x1="435" y1="259.5" x2="435" y2="282.7554">
	<stop  offset="0" style="stop-color:#FF8224"/>
	<stop  offset="1" style="stop-color:#FF6639"/>
</linearGradient>
<path fill="url(#SVGID_42_)" d="M431,260c-2.761,0-5,2.238-5,5c0,2.761,2.239,5,5,5c-2.761,0-5,2.238-5,5v2c0,2.761,2.239,5,5,5h3
	v-12h2c4.418,0,8-3.582,8-8v-2H431z"/>
<linearGradient id="SVGID_43_" gradientUnits="userSpaceOnUse" x1="590" y1="318.125" x2="590" y2="324.5">
	<stop  offset="0" style="stop-color:#FFDDCA"/>
	<stop  offset="1" style="stop-color:#FFD3C0"/>
</linearGradient>
<path fill="url(#SVGID_43_)" d="M596,321c0,1.657-1.343,3-3,3h-6c-1.657,0-3-1.343-3-3l0,0c0-1.657,1.343-3,3-3h6
	C594.657,318,596,319.343,596,321L596,321z"/>
<linearGradient id="SVGID_44_" gradientUnits="userSpaceOnUse" x1="590" y1="324.0417" x2="590" y2="318.0266">
	<stop  offset="0" style="stop-color:#610000;stop-opacity:0.05"/>
	<stop  offset="0.1446" style="stop-color:#640807;stop-opacity:0.0428"/>
	<stop  offset="0.6743" style="stop-color:#6C201E;stop-opacity:0.0163"/>
	<stop  offset="1" style="stop-color:#6F2926;stop-opacity:0"/>
</linearGradient>
<path fill="url(#SVGID_44_)" d="M596,321c0,1.657-1.343,3-3,3h-6c-1.657,0-3-1.343-3-3l0,0c0-1.657,1.343-3,3-3h6
	C594.657,318,596,319.343,596,321L596,321z"/>
<linearGradient id="SVGID_45_" gradientUnits="userSpaceOnUse" x1="579" y1="498" x2="579" y2="474.9132">
	<stop  offset="0" style="stop-color:#000000;stop-opacity:0.07"/>
	<stop  offset="0.1227" style="stop-color:#0B0909;stop-opacity:0.0614"/>
	<stop  offset="0.421" style="stop-color:#1F1B19;stop-opacity:0.0405"/>
	<stop  offset="0.7156" style="stop-color:#2C2523;stop-opacity:0.0199"/>
	<stop  offset="1" style="stop-color:#302926;stop-opacity:0"/>
</linearGradient>
<path fill="url(#SVGID_45_)" d="M588,486v8c0,2.2-1.8,4-4,4h-8c2.2,0,4-1.8,4-4v-8c0-5.52-4.48-10-10-10h8
	C583.52,476,588,480.48,588,486z"/>
<linearGradient id="SVGID_46_" gradientUnits="userSpaceOnUse" x1="462" y1="365" x2="486" y2="365">
	<stop  offset="0" style="stop-color:#FFCC4D"/>
	<stop  offset="1" style="stop-color:#FFBB25"/>
</linearGradient>
<rect x="462" y="364" fill="url(#SVGID_46_)" width="24" height="2"/>
<linearGradient id="SVGID_47_" gradientUnits="userSpaceOnUse" x1="461" y1="361.133" x2="461" y2="369.0042">
	<stop  offset="0" style="stop-color:#FFCC4D"/>
	<stop  offset="1" style="stop-color:#FFBB25"/>
</linearGradient>
<circle fill="url(#SVGID_47_)" cx="461" cy="365" r="4"/>
<linearGradient id="SVGID_48_" gradientUnits="userSpaceOnUse" x1="487" y1="361.133" x2="487" y2="369.0042">
	<stop  offset="0" style="stop-color:#FFCC4D"/>
	<stop  offset="1" style="stop-color:#FFBB25"/>
</linearGradient>
<circle fill="url(#SVGID_48_)" cx="487" cy="365" r="4"/>
<linearGradient id="SVGID_49_" gradientUnits="userSpaceOnUse" x1="494" y1="287" x2="514" y2="287">
	<stop  offset="0" style="stop-color:#3A3C3D"/>
	<stop  offset="0.1553" style="stop-color:#3F4143"/>
	<stop  offset="0.5848" style="stop-color:#484C50"/>
	<stop  offset="1" style="stop-color:#4B4F54"/>
</linearGradient>
<rect x="494" y="286" fill="url(#SVGID_49_)" width="20" height="2"/>
<linearGradient id="SVGID_50_" gradientUnits="userSpaceOnUse" x1="488" y1="271" x2="490" y2="271">
	<stop  offset="0" style="stop-color:#3A3C3D"/>
	<stop  offset="0.1553" style="stop-color:#3F4143"/>
	<stop  offset="0.5848" style="stop-color:#484C50"/>
	<stop  offset="1" style="stop-color:#4B4F54"/>
</linearGradient>
<rect x="488" y="260" fill="url(#SVGID_50_)" width="2" height="22"/>
<linearGradient id="SVGID_51_" gradientUnits="userSpaceOnUse" x1="490" y1="294.1664" x2="490" y2="277.536">
	<stop  offset="0" style="stop-color:#3A3C3D"/>
	<stop  offset="0.1553" style="stop-color:#3F4143"/>
	<stop  offset="0.5848" style="stop-color:#484C50"/>
	<stop  offset="1" style="stop-color:#4B4F54"/>
</linearGradient>
<circle fill="url(#SVGID_51_)" cx="490" cy="286" r="8"/>
<linearGradient id="SVGID_52_" gradientUnits="userSpaceOnUse" x1="458" y1="265.9997" x2="458" y2="276.5472">
	<stop  offset="0" style="stop-color:#FF8224"/>
	<stop  offset="1" style="stop-color:#FF6639"/>
</linearGradient>
<path fill="url(#SVGID_52_)" d="M463.019,275.45l-11.591-3.106c-1.067-0.286-1.7-1.383-1.414-2.449l0.518-1.932
	c0.286-1.067,1.383-1.7,2.449-1.414l11.591,3.106c1.067,0.286,1.7,1.383,1.414,2.449l-0.518,1.932
	C465.183,275.103,464.086,275.736,463.019,275.45z"/>
<linearGradient id="SVGID_53_" gradientUnits="userSpaceOnUse" x1="490" y1="266.0073" x2="490" y2="276.5548">
	<stop  offset="0" style="stop-color:#FF8224"/>
	<stop  offset="1" style="stop-color:#FF6639"/>
</linearGradient>
<path fill="url(#SVGID_53_)" d="M496.664,271.767l-11.276,4.104c-1.038,0.378-2.186-0.157-2.563-1.195l-0.684-1.879
	c-0.378-1.038,0.157-2.186,1.195-2.563l11.276-4.104c1.038-0.378,2.186,0.157,2.563,1.195l0.684,1.879
	C498.237,270.241,497.702,271.389,496.664,271.767z"/>
<linearGradient id="SVGID_54_" gradientUnits="userSpaceOnUse" x1="444" y1="327.6247" x2="444" y2="342.6507">
	<stop  offset="0" style="stop-color:#B54400;stop-opacity:0"/>
	<stop  offset="0.4204" style="stop-color:#B63B00;stop-opacity:0.1261"/>
	<stop  offset="1" style="stop-color:#B92700;stop-opacity:0.3"/>
</linearGradient>
<path fill="url(#SVGID_54_)" d="M454,328v4c0,5.52-4.48,10-10,10s-10-4.48-10-10v-4c0,5.52,4.48,10,10,10S454,333.52,454,328z"/>
<linearGradient id="SVGID_55_" gradientUnits="userSpaceOnUse" x1="504" y1="327.6247" x2="504" y2="342.6507">
	<stop  offset="0" style="stop-color:#B54400;stop-opacity:0"/>
	<stop  offset="0.4204" style="stop-color:#B63B00;stop-opacity:0.1261"/>
	<stop  offset="1" style="stop-color:#B92700;stop-opacity:0.3"/>
</linearGradient>
<path fill="url(#SVGID_55_)" d="M514,328v4c0,5.52-4.48,10-10,10s-10-4.48-10-10v-4c0,5.52,4.48,10,10,10S514,333.52,514,328z"/>
<linearGradient id="SVGID_56_" gradientUnits="userSpaceOnUse" x1="484" y1="340.6664" x2="484" y2="354.6822">
	<stop  offset="0" style="stop-color:#B54400;stop-opacity:0"/>
	<stop  offset="0.4204" style="stop-color:#B63B00;stop-opacity:0.1261"/>
	<stop  offset="1" style="stop-color:#B92700;stop-opacity:0.3"/>
</linearGradient>
<path fill="url(#SVGID_56_)" d="M494,340v4c0,5.52-4.48,10-10,10s-10-4.48-10-10v-4c0,5.52,4.48,10,10,10S494,345.52,494,340z"/>
<linearGradient id="SVGID_57_" gradientUnits="userSpaceOnUse" x1="464" y1="340.6664" x2="464" y2="354.6822">
	<stop  offset="0" style="stop-color:#B54400;stop-opacity:0"/>
	<stop  offset="0.4204" style="stop-color:#B63B00;stop-opacity:0.1261"/>
	<stop  offset="1" style="stop-color:#B92700;stop-opacity:0.3"/>
</linearGradient>
<path fill="url(#SVGID_57_)" d="M474,340v4c0,5.52-4.48,10-10,10s-10-4.48-10-10v-4c0,5.52,4.48,10,10,10S474,345.52,474,340z"/>
<linearGradient id="SVGID_58_" gradientUnits="userSpaceOnUse" x1="425" y1="347.8235" x2="425" y2="397.0791">
	<stop  offset="0" style="stop-color:#B54400;stop-opacity:0"/>
	<stop  offset="0.3685" style="stop-color:#B64000;stop-opacity:0.0737"/>
	<stop  offset="0.7497" style="stop-color:#B73300;stop-opacity:0.1499"/>
	<stop  offset="1" style="stop-color:#B92700;stop-opacity:0.2"/>
</linearGradient>
<rect x="416" y="348" fill="url(#SVGID_58_)" width="18" height="48"/>
<linearGradient id="SVGID_59_" gradientUnits="userSpaceOnUse" x1="532" y1="425.9167" x2="532" y2="430.25">
	<stop  offset="0" style="stop-color:#302926;stop-opacity:0"/>
	<stop  offset="1" style="stop-color:#000000;stop-opacity:0.15"/>
</linearGradient>
<rect x="518" y="426" fill="url(#SVGID_59_)" width="28" height="4"/>
<linearGradient id="SVGID_60_" gradientUnits="userSpaceOnUse" x1="448" y1="439.9167" x2="448" y2="444.25">
	<stop  offset="0" style="stop-color:#302926;stop-opacity:0"/>
	<stop  offset="1" style="stop-color:#000000;stop-opacity:0.15"/>
</linearGradient>
<rect x="434" y="440" fill="url(#SVGID_60_)" width="28" height="4"/>
<linearGradient id="SVGID_61_" gradientUnits="userSpaceOnUse" x1="448" y1="466.25" x2="448" y2="461.5981">
	<stop  offset="0" style="stop-color:#B54400;stop-opacity:0"/>
	<stop  offset="0.236" style="stop-color:#B14200;stop-opacity:0.0472"/>
	<stop  offset="0.4805" style="stop-color:#A43D00;stop-opacity:0.0961"/>
	<stop  offset="0.7289" style="stop-color:#903400;stop-opacity:0.1458"/>
	<stop  offset="0.9785" style="stop-color:#732800;stop-opacity:0.1957"/>
	<stop  offset="1" style="stop-color:#702700;stop-opacity:0.2"/>
</linearGradient>
<polygon fill="url(#SVGID_61_)" points="457.14,462 456.78,466 439.22,466 438.86,462 "/>
<linearGradient id="SVGID_62_" gradientUnits="userSpaceOnUse" x1="532" y1="450.25" x2="532" y2="445.5981">
	<stop  offset="0" style="stop-color:#B54400;stop-opacity:0"/>
	<stop  offset="0.236" style="stop-color:#B14200;stop-opacity:0.0472"/>
	<stop  offset="0.4805" style="stop-color:#A43D00;stop-opacity:0.0961"/>
	<stop  offset="0.7289" style="stop-color:#903400;stop-opacity:0.1458"/>
	<stop  offset="0.9785" style="stop-color:#732800;stop-opacity:0.1957"/>
	<stop  offset="1" style="stop-color:#702700;stop-opacity:0.2"/>
</linearGradient>
<rect x="520" y="446" fill="url(#SVGID_62_)" width="24" height="4"/>
<linearGradient id="SVGID_63_" gradientUnits="userSpaceOnUse" x1="424" y1="412.3122" x2="424" y2="415.9458">
	<stop  offset="0" style="stop-color:#000000;stop-opacity:0.07"/>
	<stop  offset="1" style="stop-color:#302926;stop-opacity:0"/>
</linearGradient>
<path fill="url(#SVGID_63_)" d="M428,412.48v3c-0.94,0.34-1.94,0.52-3,0.52c-1.84,0-3.56-0.56-5-1.52V412c0-0.18,0.02-0.34,0.04-0.5
	c1.42,0.96,3.14,1.5,4.96,1.5C426.06,413,427.06,412.82,428,412.48z"/>
<linearGradient id="SVGID_64_" gradientUnits="userSpaceOnUse" x1="280" y1="169.6667" x2="280" y2="210.6721">
	<stop  offset="0" style="stop-color:#00C9FF"/>
	<stop  offset="1" style="stop-color:#2C6DFF"/>
</linearGradient>
<path fill="url(#SVGID_64_)" d="M392,186v24H168v-24c0-8.84,7.16-16,16-16h192C384.84,170,392,177.16,392,186z"/>
<linearGradient id="SVGID_65_" gradientUnits="userSpaceOnUse" x1="280" y1="210" x2="280" y2="496.8508">
	<stop  offset="0" style="stop-color:#E5E5E5"/>
	<stop  offset="0.4987" style="stop-color:#DCDCDC"/>
	<stop  offset="1" style="stop-color:#CECECE"/>
</linearGradient>
<path fill="url(#SVGID_65_)" d="M392,210v272c0,8.84-7.16,16-16,16H184c-8.84,0-16-7.16-16-16V210H392z"/>
<path fill="#FFFFFF" d="M380,314c0,2.209-1.791,4-4,4H184c-2.209,0-4-1.791-4-4v-88c0-2.209,1.791-4,4-4h192c2.209,0,4,1.791,4,4
	V314z"/>
<linearGradient id="SVGID_66_" gradientUnits="userSpaceOnUse" x1="280" y1="233.3684" x2="280" y2="308.9576">
	<stop  offset="0" style="stop-color:#EBEBEB"/>
	<stop  offset="0.5523" style="stop-color:#F4F4F4"/>
	<stop  offset="1" style="stop-color:#FFFFFF"/>
</linearGradient>
<path fill="url(#SVGID_66_)" d="M368,304c0,1.105-0.895,2-2,2H194c-1.105,0-2-0.895-2-2v-68c0-1.105,0.895-2,2-2h172
	c1.105,0,2,0.895,2,2V304z"/>
<path fill="#FFFFFF" d="M382,482c0,2.209-1.791,4-4,4H184c-2.209,0-4-1.791-4-4V334c0-2.209,1.791-4,4-4h194c2.209,0,4,1.791,4,4
	V482z"/>
<circle fill="#FFFFFF" cx="186" cy="190" r="6"/>
<circle fill="#FFFFFF" cx="210" cy="190" r="6"/>
<circle fill="#FFFFFF" cx="234" cy="190" r="6"/>
<linearGradient id="SVGID_67_" gradientUnits="userSpaceOnUse" x1="280" y1="340.8421" x2="280" y2="479.4223">
	<stop  offset="0" style="stop-color:#EBEBEB"/>
	<stop  offset="1" style="stop-color:#FFFFFF"/>
</linearGradient>
<path fill="url(#SVGID_67_)" d="M368,472c0,1.105-0.895,2-2,2H194c-1.105,0-2-0.895-2-2V344c0-1.105,0.895-2,2-2h172
	c1.105,0,2,0.895,2,2V472z"/>
<path fill="#D6D6D6" d="M218,452h-4v-8c0-1.104-0.895-2-2-2h-4v-4h4c3.314,0,6,2.686,6,6V452z"/>
<linearGradient id="SVGID_68_" gradientUnits="userSpaceOnUse" x1="216" y1="447.5" x2="216" y2="454.1667">
	<stop  offset="0" style="stop-color:#3A3C3D"/>
	<stop  offset="1" style="stop-color:#4B4F54"/>
</linearGradient>
<path fill="url(#SVGID_68_)" d="M218,448h-4c-1.105,0-2,0.895-2,2v4h8v-4C220,448.895,219.105,448,218,448z"/>
<linearGradient id="SVGID_69_" gradientUnits="userSpaceOnUse" x1="236.5" y1="453.5" x2="193.9735" y2="496.0265">
	<stop  offset="0" style="stop-color:#3A3C3D"/>
	<stop  offset="0.5013" style="stop-color:#44484B"/>
	<stop  offset="1" style="stop-color:#4B4F54"/>
</linearGradient>
<path fill="url(#SVGID_69_)" d="M240,474c0,13.255-10.745,24-24,24h0c-13.255,0-24-10.745-24-24v0c0-13.255,10.745-24,24-24h0
	C229.255,450,240,460.745,240,474L240,474z"/>
<linearGradient id="SVGID_70_" gradientUnits="userSpaceOnUse" x1="205.5153" y1="466.833" x2="205.5153" y2="454.514">
	<stop  offset="0" style="stop-color:#FFFFED;stop-opacity:0"/>
	<stop  offset="1" style="stop-color:#FFFFFF;stop-opacity:0.2"/>
</linearGradient>
<path fill="url(#SVGID_70_)" d="M201.029,466c-0.383,0-0.769-0.109-1.11-0.338c-0.918-0.615-1.164-1.857-0.55-2.775
	c2.392-3.572,5.931-6.322,9.964-7.748c1.048-0.359,2.185,0.182,2.552,1.221c0.368,1.041-0.179,2.184-1.22,2.553
	c-3.226,1.139-6.057,3.34-7.972,6.201C202.308,465.689,201.674,466,201.029,466z"/>
<linearGradient id="SVGID_71_" gradientUnits="userSpaceOnUse" x1="216" y1="469.9997" x2="216" y2="498.707">
	<stop  offset="0" style="stop-color:#000000;stop-opacity:0"/>
	<stop  offset="0.8625" style="stop-color:#000000;stop-opacity:0.1725"/>
	<stop  offset="1" style="stop-color:#000000;stop-opacity:0.2"/>
</linearGradient>
<path fill="url(#SVGID_71_)" d="M240,474c0,6.64-2.68,12.64-7.02,16.98S222.64,498,216,498c-13.26,0-24-10.74-24-24
	c0-1.02,0.06-2.02,0.2-3c1.46,11.84,11.56,21,23.8,21c6.64,0,12.64-2.68,16.98-7.02c3.68-3.68,6.16-8.54,6.82-13.98
	C239.94,471.98,240,472.98,240,474z"/>
<linearGradient id="SVGID_72_" gradientUnits="userSpaceOnUse" x1="274" y1="168" x2="294" y2="168">
	<stop  offset="0" style="stop-color:#3EA3FF"/>
	<stop  offset="0.2493" style="stop-color:#3AA1FD"/>
	<stop  offset="0.5076" style="stop-color:#2D9BF7"/>
	<stop  offset="0.769" style="stop-color:#1992EC"/>
	<stop  offset="1" style="stop-color:#0086E0"/>
</linearGradient>
<path fill="url(#SVGID_72_)" d="M290,166h-12c-2.209,0-4,2-4,4h20C294,168,292.209,166,290,166z"/>
<linearGradient id="SVGID_73_" gradientUnits="userSpaceOnUse" x1="284" y1="99.0794" x2="284" y2="168.7005">
	<stop  offset="0" style="stop-color:#E5E5E5"/>
	<stop  offset="0.4987" style="stop-color:#DCDCDC"/>
	<stop  offset="1" style="stop-color:#CECECE"/>
</linearGradient>
<rect x="282" y="98" fill="url(#SVGID_73_)" width="4" height="68"/>
<linearGradient id="SVGID_74_" gradientUnits="userSpaceOnUse" x1="214" y1="120" x2="286" y2="120">
	<stop  offset="0" style="stop-color:#C8C8C8"/>
	<stop  offset="1" style="stop-color:#919191"/>
</linearGradient>
<path fill="url(#SVGID_74_)" d="M218,146h68V98c0-2.209-1.791-4-4-4h-64c-2.209,0-4,1.791-4,4v44C214,144.209,215.791,146,218,146z"
	/>
<linearGradient id="SVGID_75_" gradientUnits="userSpaceOnUse" x1="356" y1="383.3846" x2="356" y2="408.7711">
	<stop  offset="0" style="stop-color:#E5E5E5"/>
	<stop  offset="0.4987" style="stop-color:#DCDCDC"/>
	<stop  offset="1" style="stop-color:#CECECE"/>
</linearGradient>
<rect x="354" y="384" fill="url(#SVGID_75_)" width="4" height="24"/>
<linearGradient id="SVGID_76_" gradientUnits="userSpaceOnUse" x1="268" y1="445.9998" x2="396" y2="445.9998">
	<stop  offset="0" style="stop-color:#965B32"/>
	<stop  offset="1" style="stop-color:#89512B"/>
</linearGradient>
<path fill="url(#SVGID_76_)" d="M388,486l-12.353-56.822C371.184,408.645,353.012,394,332,394s-39.184,14.645-43.647,35.178L276,486
	c-4.418,0-8,3.582-8,8v4h8h112h8v-4C396,489.581,392.418,486,388,486z"/>
<linearGradient id="SVGID_77_" gradientUnits="userSpaceOnUse" x1="239.2224" y1="377.4344" x2="359.2224" y2="456.1011">
	<stop  offset="0" style="stop-color:#73767A"/>
	<stop  offset="1" style="stop-color:#616468"/>
</linearGradient>
<path fill="url(#SVGID_77_)" d="M228.189,416.496l69.418,61.045c13.21,11.617,33.747,8.241,42.543-6.994l31.65-54.82
	c3.796-6.575,0.615-14.978-6.584-17.39l-106.027-35.534L228.189,416.496z"/>
<linearGradient id="SVGID_78_" gradientUnits="userSpaceOnUse" x1="232.5515" y1="414.9832" x2="300.8848" y2="476.6498">
	<stop  offset="0" style="stop-color:#302926;stop-opacity:0"/>
	<stop  offset="1" style="stop-color:#000000;stop-opacity:0.2"/>
</linearGradient>
<path fill="url(#SVGID_78_)" d="M304,474l-2.54,6.38c-1.34-0.82-2.64-1.76-3.86-2.84l-69.42-61.04l0.02-0.04
	c0,0.02,0.02,0.02,0.02,0.02c1.42,0.82,3.66-0.06,6.38-2.24L304,474z"/>
<linearGradient id="SVGID_79_" gradientUnits="userSpaceOnUse" x1="406.8748" y1="409.873" x2="302.0997" y2="514.6481">
	<stop  offset="0" style="stop-color:#D86E27"/>
	<stop  offset="1" style="stop-color:#D8893A"/>
</linearGradient>
<path fill="url(#SVGID_79_)" d="M408,486v12H296v-12l0.88-4l11.48-52.82C312.82,408.64,330.98,394,352,394s39.18,14.64,43.64,35.18
	L407.12,482L408,486z"/>
<circle opacity="0.08" cx="356" cy="434" r="24"/>
<linearGradient id="SVGID_80_" gradientUnits="userSpaceOnUse" x1="288" y1="492" x2="416.6775" y2="492">
	<stop  offset="0" style="stop-color:#B76D3B"/>
	<stop  offset="1" style="stop-color:#B75D21"/>
</linearGradient>
<path fill="url(#SVGID_80_)" d="M416,498H288v-4c0-4.418,3.582-8,8-8h112c4.418,0,8,3.581,8,8V498z"/>
<linearGradient id="SVGID_81_" gradientUnits="userSpaceOnUse" x1="332" y1="431.9997" x2="380" y2="431.9997">
	<stop  offset="0" style="stop-color:#FFB024"/>
	<stop  offset="0.2814" style="stop-color:#FDA726"/>
	<stop  offset="0.7389" style="stop-color:#F88F2B"/>
	<stop  offset="1" style="stop-color:#F47E2F"/>
</linearGradient>
<circle fill="url(#SVGID_81_)" cx="356" cy="432" r="24"/>
<circle opacity="0.08" cx="356" cy="434" r="16"/>
<linearGradient id="SVGID_82_" gradientUnits="userSpaceOnUse" x1="340" y1="431.9997" x2="372" y2="431.9997">
	<stop  offset="0" style="stop-color:#FFCC4D"/>
	<stop  offset="1" style="stop-color:#FFB03E"/>
</linearGradient>
<circle fill="url(#SVGID_82_)" cx="356" cy="432" r="16"/>
<linearGradient id="SVGID_83_" gradientUnits="userSpaceOnUse" x1="356" y1="440.1664" x2="356" y2="423.9129">
	<stop  offset="0" style="stop-color:#B54400;stop-opacity:0"/>
	<stop  offset="0.4204" style="stop-color:#B63B00;stop-opacity:0.0841"/>
	<stop  offset="1" style="stop-color:#B92700;stop-opacity:0.2"/>
</linearGradient>
<circle fill="url(#SVGID_83_)" cx="356" cy="432" r="8"/>
<linearGradient id="SVGID_84_" gradientUnits="userSpaceOnUse" x1="346" y1="373.3353" x2="366" y2="373.3353">
	<stop  offset="0" style="stop-color:#FFE552"/>
	<stop  offset="1" style="stop-color:#FF9617"/>
</linearGradient>
<path fill="url(#SVGID_84_)" d="M366,376c0,5.522-4.475,9.998-9.996,10c-2.085,0.001-4.077-0.86-5.727-2.136
	c-10.13-7.836,0.394-19.02,4.35-22.665c0.757-0.697,1.977-0.706,2.734-0.009C360.098,363.708,366,369.854,366,376z"/>
<linearGradient id="SVGID_85_" gradientUnits="userSpaceOnUse" x1="345.875" y1="380.0097" x2="366.0469" y2="380.0097">
	<stop  offset="0" style="stop-color:#FF3B2A;stop-opacity:0"/>
	<stop  offset="1" style="stop-color:#D43200;stop-opacity:0.2"/>
</linearGradient>
<path fill="url(#SVGID_85_)" d="M366,376c0,5.52-4.48,10-10,10s-10-4.48-10-10c0-0.66,0.06-1.32,0.2-1.98
	c0.94,4.54,4.96,7.98,9.8,7.98s8.86-3.44,9.8-7.98C365.94,374.68,366,375.34,366,376z"/>
<linearGradient id="SVGID_86_" gradientUnits="userSpaceOnUse" x1="250.746" y1="393.3719" x2="236.371" y2="385.7469">
	<stop  offset="0" style="stop-color:#3A3C3D"/>
	<stop  offset="0.5013" style="stop-color:#44484B"/>
	<stop  offset="1" style="stop-color:#4B4F54"/>
</linearGradient>
<path fill="url(#SVGID_86_)" d="M250.64,393.641c-8.56,14.827-18.602,25.056-22.428,22.847c-3.826-2.209,0.011-16.02,8.572-30.847
	c8.56-14.827,18.602-25.056,22.428-22.847C263.038,365.003,259.2,378.814,250.64,393.641z"/>
<linearGradient id="SVGID_87_" gradientUnits="userSpaceOnUse" x1="352" y1="482" x2="352" y2="486.0311">
	<stop  offset="0" style="stop-color:#B54400;stop-opacity:0"/>
	<stop  offset="1" style="stop-color:#702700;stop-opacity:0.15"/>
</linearGradient>
<polygon fill="url(#SVGID_87_)" points="408,486 296,486 296.88,482 407.12,482 "/>
<path fill="#AFAFAF" d="M334,257c0,1.657-1.343,3-3,3h-64c-1.657,0-3-1.343-3-3l0,0c0-1.657,1.343-3,3-3h64
	C332.657,254,334,255.343,334,257L334,257z"/>
<path fill="#AFAFAF" d="M324,271c0,1.657-1.343,3-3,3h-54c-1.657,0-3-1.343-3-3l0,0c0-1.657,1.343-3,3-3h54
	C322.657,268,324,269.343,324,271L324,271z"/>
<path fill="#AFAFAF" d="M314,285c0,1.657-1.343,3-3,3h-44c-1.657,0-3-1.343-3-3l0,0c0-1.657,1.343-3,3-3h44
	C312.657,282,314,283.343,314,285L314,285z"/>
<path fill="#E8E8E8" d="M415.191,166.427l1.215,3.921c0.184,0.595,0.65,1.061,1.245,1.245l3.921,1.215
	c0.35,0.108,0.35,0.604,0,0.713l-3.921,1.215c-0.595,0.184-1.061,0.65-1.245,1.245l-1.215,3.921c-0.108,0.35-0.604,0.35-0.713,0
	l-1.215-3.921c-0.184-0.595-0.65-1.061-1.245-1.245l-3.921-1.215c-0.35-0.108-0.35-0.604,0-0.713l3.921-1.215
	c0.595-0.184,1.061-0.65,1.245-1.245l1.215-3.921C414.587,166.076,415.083,166.076,415.191,166.427z"/>
<linearGradient id="SVGID_88_" gradientUnits="userSpaceOnUse" x1="228" y1="244.6663" x2="228" y2="294.4235">
	<stop  offset="0" style="stop-color:#E4E4E4"/>
	<stop  offset="0.3752" style="stop-color:#E0E0E0"/>
	<stop  offset="0.7634" style="stop-color:#D3D3D3"/>
	<stop  offset="1" style="stop-color:#C8C8C8"/>
</linearGradient>
<circle fill="url(#SVGID_88_)" cx="228" cy="270" r="24"/>
<path fill="#FFFFFF" d="M227.56,254c-7.66,0.24-13.56,6.92-13.56,14.58V275c0,1.66,1.34,3,3,3h3c1.1,0,2,0.9,2,2v2c0,1.1,0.9,2,2,2
	h8c1.1,0,2-0.9,2-2v-2c0-1.1,0.9-2,2-2h3c1.66,0,3-1.34,3-3v-7C242,260.12,235.5,253.76,227.56,254z M222,273c-1.66,0-3-1.34-3-3
	c0-1.66,1.34-3,3-3c1.66,0,3,1.34,3,3C225,271.66,223.66,273,222,273z M229,276h-2c-0.56,0-1-0.44-1-1c0-0.56,0.44-1,1-1h2
	c0.56,0,1,0.44,1,1C230,275.56,229.56,276,229,276z M234,273c-1.66,0-3-1.34-3-3c0-1.66,1.34-3,3-3c1.66,0,3,1.34,3,3
	C237,271.66,235.66,273,234,273z"/>
<circle fill="#AFAFAF" cx="234" cy="270" r="3"/>
<circle fill="#AFAFAF" cx="222" cy="270" r="3"/>
<path fill="#AFAFAF" d="M230,275c0,0.552-0.448,1-1,1h-2c-0.552,0-1-0.448-1-1l0,0c0-0.552,0.448-1,1-1h2
	C229.552,274,230,274.448,230,275L230,275z"/>
<linearGradient id="SVGID_89_" gradientUnits="userSpaceOnUse" x1="284" y1="150.0938" x2="284" y2="145.9957">
	<stop  offset="0" style="stop-color:#302926;stop-opacity:0"/>
	<stop  offset="1" style="stop-color:#000000;stop-opacity:0.1"/>
</linearGradient>
<rect x="282" y="146" fill="url(#SVGID_89_)" width="4" height="4"/>
<path fill="#FFFFFF" d="M257.192,126.364L250.828,120l6.364-6.364c1.172,1.172,3.071,1.172,4.243,0s1.172-3.071,0-4.243
	c-0.546-0.546-1.25-0.826-1.965-0.864c-0.037-0.715-0.318-1.419-0.864-1.965c-1.172-1.172-3.071-1.171-4.243,0
	c-1.172,1.171-1.414,2.828,0,4.243L248,117.172l-6.364-6.364c1.172-1.172,1.172-3.071,0-4.243c-1.171-1.171-3.071-1.172-4.243,0
	c-0.546,0.546-0.826,1.25-0.864,1.965c-0.714,0.037-1.419,0.318-1.965,0.864c-1.172,1.171-1.172,3.071,0,4.242s2.828,1.414,4.243,0
	l6.364,6.364l-6.364,6.364c-1.414-1.414-3.071-1.171-4.243,0c-1.171,1.172-1.172,3.071,0,4.243c0.546,0.546,1.25,0.826,1.965,0.864
	c0.037,0.714,0.318,1.419,0.864,1.965c1.172,1.171,3.071,1.171,4.243,0c1.172-1.171,1.172-3.071,0-4.243l6.364-6.364l6.364,6.364
	c-1.414,1.414-1.171,3.071,0,4.243c1.171,1.171,3.071,1.171,4.243,0c0.546-0.546,0.826-1.251,0.864-1.965
	c0.714-0.037,1.419-0.318,1.965-0.864c1.172-1.171,1.171-3.071,0-4.243C260.263,125.192,258.607,124.95,257.192,126.364z"/>
</svg>
