<?xml version="1.0" encoding="iso-8859-1"?>
<!-- Generator: Adobe Illustrator 22.1.0, SVG Export Plug-In . SVG Version: 6.00 Build 0)  -->
<svg version="1.1" id="camera_x5F_access" xmlns="http://www.w3.org/2000/svg" xmlns:xlink="http://www.w3.org/1999/xlink" x="0px"
	 y="0px" viewBox="0 0 800 600" enable-background="new 0 0 800 600" xml:space="preserve">
<linearGradient id="SVGID_1_" gradientUnits="userSpaceOnUse" x1="228" y1="494" x2="584" y2="494">
	<stop  offset="0" style="stop-color:#EDEDED"/>
	<stop  offset="1" style="stop-color:#DDDDDD"/>
</linearGradient>
<rect x="228" y="490" fill="url(#SVGID_1_)" width="356" height="8"/>
<linearGradient id="SVGID_2_" gradientUnits="userSpaceOnUse" x1="509.8055" y1="333.1945" x2="509.8055" y2="100.3206">
	<stop  offset="0" style="stop-color:#FFFFFF;stop-opacity:0"/>
	<stop  offset="0.359" style="stop-color:#F9F9F9;stop-opacity:0.359"/>
	<stop  offset="0.8279" style="stop-color:#E9E9E9;stop-opacity:0.8279"/>
	<stop  offset="1" style="stop-color:#E1E1E1"/>
</linearGradient>
<circle fill="url(#SVGID_2_)" cx="509.805" cy="218" r="116"/>
<linearGradient id="SVGID_3_" gradientUnits="userSpaceOnUse" x1="259.929" y1="212.8245" x2="310.4179" y2="414.7798">
	<stop  offset="0" style="stop-color:#00E35E"/>
	<stop  offset="1" style="stop-color:#00B248"/>
</linearGradient>
<path fill="url(#SVGID_3_)" d="M359.805,403.56l-57.7-18c-41.16-12.82-79.06-58.34-84.24-101.14l-6.52-54.12
	c-0.1-0.8,0.06-1.56,0.4-2.22c0.8-1.56,2.68-2.5,4.56-1.9l52.04,16.22c41.16,12.82,79.06,58.34,84.22,101.14l7.1,58.86
	L359.805,403.56z"/>
<linearGradient id="SVGID_4_" gradientUnits="userSpaceOnUse" x1="358.6954" y1="405.2119" x2="184.4101" y2="247.7339">
	<stop  offset="0" style="stop-color:#304F26;stop-opacity:0"/>
	<stop  offset="0.3876" style="stop-color:#2D4E24;stop-opacity:0.0388"/>
	<stop  offset="0.6206" style="stop-color:#254A1D;stop-opacity:0.0621"/>
	<stop  offset="0.8122" style="stop-color:#174312;stop-opacity:0.0812"/>
	<stop  offset="0.9812" style="stop-color:#033A02;stop-opacity:0.0981"/>
	<stop  offset="1" style="stop-color:#003900;stop-opacity:0.1"/>
</linearGradient>
<path fill="url(#SVGID_4_)" d="M359.805,403.56l-57.7-18c-41.16-12.82-79.06-58.34-84.24-101.14l-6.52-54.12
	c-0.1-0.8,0.06-1.56,0.4-2.22l147.92,174.32L359.805,403.56z"/>
<linearGradient id="SVGID_5_" gradientUnits="userSpaceOnUse" x1="174.5845" y1="354.2923" x2="328.8655" y2="354.2923">
	<stop  offset="0" style="stop-color:#B6DD54"/>
	<stop  offset="0.1433" style="stop-color:#B2DC54"/>
	<stop  offset="0.2918" style="stop-color:#A5D753"/>
	<stop  offset="0.4428" style="stop-color:#91D051"/>
	<stop  offset="0.5954" style="stop-color:#74C64F"/>
	<stop  offset="0.7494" style="stop-color:#4EB94D"/>
	<stop  offset="0.9024" style="stop-color:#21A949"/>
	<stop  offset="1" style="stop-color:#009E47"/>
</linearGradient>
<path fill="url(#SVGID_5_)" d="M328.866,425.32l-0.64-0.1l-38.24-6.52c-51.84-8.84-93.68-47.28-106.88-98.2l-8.4-32.42
	c-0.3-1.18-0.02-2.32,0.6-3.2c0.82-1.14,2.22-1.82,3.78-1.56l33.02,5.62c2.24,0.38,4.46,0.82,6.66,1.32
	c48.74,10.86,87.6,48.16,100.22,96.88l1.04,4L328.866,425.32z"/>
<linearGradient id="SVGID_6_" gradientUnits="userSpaceOnUse" x1="315.004" y1="440.2389" x2="156.004" y2="296.5722">
	<stop  offset="0" style="stop-color:#304F26;stop-opacity:0"/>
	<stop  offset="0.3876" style="stop-color:#2D4E24;stop-opacity:0.0388"/>
	<stop  offset="0.6206" style="stop-color:#254A1D;stop-opacity:0.0621"/>
	<stop  offset="0.8122" style="stop-color:#174312;stop-opacity:0.0812"/>
	<stop  offset="0.9812" style="stop-color:#033A02;stop-opacity:0.0981"/>
	<stop  offset="1" style="stop-color:#003900;stop-opacity:0.1"/>
</linearGradient>
<path fill="url(#SVGID_6_)" d="M328.225,425.22l-38.24-6.52c-51.84-8.84-93.68-47.28-106.88-98.2l-8.4-32.42
	c-0.3-1.18-0.02-2.32,0.6-3.2L328.225,425.22z"/>
<linearGradient id="SVGID_7_" gradientUnits="userSpaceOnUse" x1="366" y1="153.85" x2="366" y2="488.9641">
	<stop  offset="0" style="stop-color:#45A0FF"/>
	<stop  offset="0.0516" style="stop-color:#4B96FE"/>
	<stop  offset="0.3713" style="stop-color:#6C60F9"/>
	<stop  offset="0.6473" style="stop-color:#8538F6"/>
	<stop  offset="0.8659" style="stop-color:#9420F4"/>
	<stop  offset="1" style="stop-color:#9917F3"/>
</linearGradient>
<path fill="url(#SVGID_7_)" d="M441.806,158H293.805C282.76,158,274,166.954,274,178v50l-1.729,0.864
	c-1.392,0.696-2.271,2.118-2.271,3.674v26.922c0,1.556,0.879,2.978,2.271,3.674L274,264v16l-1.729,0.864
	c-1.392,0.696-2.271,2.118-2.271,3.674v26.922c0,1.556,0.879,2.978,2.271,3.674L274,316v154c0,11.046,8.76,20,19.805,20H462V177.999
	C462,166.954,452.851,158,441.806,158z"/>
<path opacity="0.15" d="M446,448c0,4.418-3.582,8-8,8H298c-4.418,0-8-3.582-8-8V184c0-4.418,3.582-8,8-8h140c4.418,0,8,3.582,8,8
	V448z"/>
<path fill="#FFFFFF" d="M446,446c0,4.418-3.582,8-8,8H298c-4.418,0-8-3.582-8-8V182c0-4.418,3.582-8,8-8h140c4.418,0,8,3.582,8,8
	V446z"/>
<linearGradient id="SVGID_8_" gradientUnits="userSpaceOnUse" x1="342" y1="166" x2="394" y2="166">
	<stop  offset="0" style="stop-color:#302926;stop-opacity:0.15"/>
	<stop  offset="1" style="stop-color:#000000;stop-opacity:0.3"/>
</linearGradient>
<path fill="url(#SVGID_8_)" d="M394,166c0,1.105-0.895,2-2,2h-48c-1.105,0-2-0.895-2-2l0,0c0-1.105,0.895-2,2-2h48
	C393.105,164,394,164.895,394,166L394,166z"/>
<linearGradient id="SVGID_9_" gradientUnits="userSpaceOnUse" x1="368" y1="299" x2="368" y2="437.3709">
	<stop  offset="0" style="stop-color:#EBEBEB"/>
	<stop  offset="0.5523" style="stop-color:#F4F4F4"/>
	<stop  offset="1" style="stop-color:#FFFFFF"/>
</linearGradient>
<path fill="url(#SVGID_9_)" d="M438,434c0,2.209-1.791,4-4,4H302c-2.209,0-4-1.791-4-4V302c0-2.209,1.791-4,4-4h132
	c2.209,0,4,1.791,4,4V434z"/>
<path opacity="0.15" d="M438,288c0,2.209-1.791,4-4,4H302c-2.209,0-4-1.791-4-4V188c0-2.209,1.791-4,4-4h132c2.209,0,4,1.791,4,4
	V288z"/>
<linearGradient id="SVGID_10_" gradientUnits="userSpaceOnUse" x1="368" y1="182.5" x2="368" y2="290.8744">
	<stop  offset="0" style="stop-color:#EBEBEB"/>
	<stop  offset="0.5523" style="stop-color:#F4F4F4"/>
	<stop  offset="1" style="stop-color:#FFFFFF"/>
</linearGradient>
<path fill="url(#SVGID_10_)" d="M438,286c0,2.209-1.791,4-4,4H302c-2.209,0-4-1.791-4-4V186c0-2.209,1.791-4,4-4h132
	c2.209,0,4,1.791,4,4V286z"/>
<path fill="#B6B9B9" d="M382,211c0,1.657-1.343,3-3,3h-70c-1.657,0-3-1.343-3-3l0,0c0-1.657,1.343-3,3-3h70
	C380.657,208,382,209.343,382,211L382,211z"/>
<path fill="#B6B9B9" d="M366,225c0,1.657-1.343,3-3,3h-54c-1.657,0-3-1.343-3-3l0,0c0-1.657,1.343-3,3-3h54
	C364.657,222,366,223.343,366,225L366,225z"/>
<path fill="#B6B9B9" d="M382,247c0,1.657-1.343,3-3,3h-70c-1.657,0-3-1.343-3-3l0,0c0-1.657,1.343-3,3-3h70
	C380.657,244,382,245.343,382,247L382,247z"/>
<path fill="#B6B9B9" d="M366,261c0,1.657-1.343,3-3,3h-54c-1.657,0-3-1.343-3-3l0,0c0-1.657,1.343-3,3-3h54
	C364.657,258,366,259.343,366,261L366,261z"/>
<linearGradient id="SVGID_11_" gradientUnits="userSpaceOnUse" x1="412" y1="208" x2="412" y2="228">
	<stop  offset="0" style="stop-color:#00E35E"/>
	<stop  offset="1" style="stop-color:#00B248"/>
</linearGradient>
<path fill="url(#SVGID_11_)" d="M430,218c0,5.523-4.477,10-10,10h-16c-5.523,0-10-4.477-10-10v0c0-5.523,4.477-10,10-10h16
	C425.523,208,430,212.477,430,218L430,218z"/>
<linearGradient id="SVGID_12_" gradientUnits="userSpaceOnUse" x1="412" y1="243.9167" x2="412" y2="263.9167">
	<stop  offset="0" style="stop-color:#E4E4E4"/>
	<stop  offset="0.3752" style="stop-color:#E0E0E0"/>
	<stop  offset="0.7634" style="stop-color:#D3D3D3"/>
	<stop  offset="1" style="stop-color:#C8C8C8"/>
</linearGradient>
<path fill="url(#SVGID_12_)" d="M430,254c0,5.523-4.477,10-10,10h-16c-5.523,0-10-4.477-10-10v0c0-5.523,4.477-10,10-10h16
	C425.523,244,430,248.477,430,254L430,254z"/>
<circle fill="#FFFFFF" cx="419.805" cy="218" r="6"/>
<circle fill="#B6B9B9" cx="403.805" cy="254" r="6"/>
<linearGradient id="SVGID_13_" gradientUnits="userSpaceOnUse" x1="277.9027" y1="445.6667" x2="277.9027" y2="489.6667">
	<stop  offset="0" style="stop-color:#E5E5E5"/>
	<stop  offset="1" style="stop-color:#CECECE"/>
</linearGradient>
<path fill="url(#SVGID_13_)" d="M285.805,490H270.02c-1.993,0-3.84-1.361-4.16-3.328c-0.408-2.506,1.516-4.672,3.945-4.672h10
	c1.105,0,2.195-0.895,2.195-2v-29.786c0-1.993,1.361-3.84,3.328-4.16c2.506-0.408,4.672,1.516,4.672,3.945v36
	C290,488.209,288.015,490,285.805,490z"/>
<linearGradient id="SVGID_14_" gradientUnits="userSpaceOnUse" x1="333.9027" y1="445.6667" x2="333.9027" y2="489.6667">
	<stop  offset="0" style="stop-color:#E5E5E5"/>
	<stop  offset="1" style="stop-color:#CECECE"/>
</linearGradient>
<path fill="url(#SVGID_14_)" d="M341.805,490h-16c-2.209,0-3.805-1.791-3.805-4v-35.786c0-1.993,1.361-3.84,3.328-4.16
	c2.506-0.408,4.672,1.516,4.672,3.945v30c0,1.105,0.701,2,1.805,2h9.786c1.993,0,3.84,1.361,4.16,3.328
	C346.159,487.834,344.235,490,341.805,490z"/>
<linearGradient id="SVGID_15_" gradientUnits="userSpaceOnUse" x1="252" y1="339.7" x2="252" y2="348.4207">
	<stop  offset="0" style="stop-color:#FFDE52"/>
	<stop  offset="0.6178" style="stop-color:#FFD23A"/>
	<stop  offset="1" style="stop-color:#FFCE31"/>
</linearGradient>
<path fill="url(#SVGID_15_)" d="M262,348h-20v-4c0-2.209,1.596-4,3.805-4h12c2.209,0,4.195,1.791,4.195,4V348z"/>
<linearGradient id="SVGID_16_" gradientUnits="userSpaceOnUse" x1="360" y1="339.7" x2="360" y2="348.4207">
	<stop  offset="0" style="stop-color:#FFDE52"/>
	<stop  offset="0.6178" style="stop-color:#FFD23A"/>
	<stop  offset="1" style="stop-color:#FFCE31"/>
</linearGradient>
<path fill="url(#SVGID_16_)" d="M370,348h-20v-4c0-2.209,1.596-4,3.805-4h12c2.209,0,4.195,1.791,4.195,4V348z"/>
<linearGradient id="SVGID_17_" gradientUnits="userSpaceOnUse" x1="214.8074" y1="389.6667" x2="214.8074" y2="443.6018">
	<stop  offset="0" style="stop-color:#E5E5E5"/>
	<stop  offset="1" style="stop-color:#CECECE"/>
</linearGradient>
<path fill="url(#SVGID_17_)" d="M232.408,390.963c-1.676-1.438-4.202-1.24-5.64,0.434c-0.995,1.161-24.431,28.585-30.624,42.991
	c-0.653,1.518-0.335,3.272,0.833,4.44l2,2c0.752,0.752,1.771,1.172,2.828,1.172c0.073,0,0.147-0.002,0.222-0.006
	c1.136-0.062,2.191-0.607,2.901-1.496l5.208-6.51l2.84,2.84c0.78,0.781,1.805,1.172,2.828,1.172c1.121,0,2.243-0.468,3.044-1.405
	c1.386-1.621,1.112-4.095-0.396-5.603l-5.744-5.744c-0.695-0.695-0.798-1.787-0.232-2.591c8.83-12.555,20.201-25.863,20.365-26.054
	C234.28,394.926,234.085,392.4,232.408,390.963z"/>
<linearGradient id="SVGID_18_" gradientUnits="userSpaceOnUse" x1="391.6793" y1="387.4371" x2="391.6793" y2="439.0719">
	<stop  offset="0" style="stop-color:#E5E5E5"/>
	<stop  offset="1" style="stop-color:#CECECE"/>
</linearGradient>
<path fill="url(#SVGID_18_)" d="M401.802,440c-2.096,0-3.855-1.631-3.988-3.75c-1.85-29.605-15.984-38.77-16.128-38.857
	c-1.873-1.172-5.051-7.52-3.88-9.393c1.17-1.875,6.25,1.438,8.119,2.607c0.725,0.453,17.77,11.479,19.873,45.143
	c0.139,2.205-1.537,4.104-3.742,4.242C401.97,439.998,401.886,440,401.802,440z"/>
<linearGradient id="SVGID_19_" gradientUnits="userSpaceOnUse" x1="306" y1="321" x2="306" y2="454.2113">
	<stop  offset="0" style="stop-color:#FFDE52"/>
	<stop  offset="0.6178" style="stop-color:#FFD23A"/>
	<stop  offset="1" style="stop-color:#FFCE31"/>
</linearGradient>
<path fill="url(#SVGID_19_)" d="M384,362v76c0,2.92-0.877,5.66-2.257,8c-2.74,4.78-8.017,8-13.937,8h-124
	c-5.92,0-11.003-3.22-13.743-8c-1.38-2.34-2.063-5.08-2.063-8v-76c0-8.84,6.965-16,15.805-16h18c2.88,0,5.52-1.54,6.94-4
	c0.18-0.3,0.34-0.62,0.48-0.96l2.94-7.04l2.94-7.04c1.26-3,4.18-4.96,7.44-4.96h46.52c3.26,0,6.18,1.96,7.44,4.96l2.94,7.04
	l2.54,6.1l0.44,1.02c0.12,0.3,0.28,0.6,0.44,0.88c1.42,2.46,4.06,4,6.94,4h18C376.645,346,384,353.16,384,362z"/>
<linearGradient id="SVGID_20_" gradientUnits="userSpaceOnUse" x1="305.8055" y1="446" x2="305.8055" y2="455.1138">
	<stop  offset="0" style="stop-color:#302926;stop-opacity:0"/>
	<stop  offset="1" style="stop-color:#AF4100;stop-opacity:0.1"/>
</linearGradient>
<path fill="url(#SVGID_20_)" d="M381.645,446c-2.74,4.78-7.92,8-13.84,8h-124c-5.92,0-11.1-3.22-13.84-8H381.645z"/>
<circle opacity="0.05" cx="307.805" cy="404" r="38"/>
<linearGradient id="SVGID_21_" gradientUnits="userSpaceOnUse" x1="307.8055" y1="361" x2="307.8055" y2="439.0256">
	<stop  offset="0" style="stop-color:#FFFFFF"/>
	<stop  offset="1" style="stop-color:#FAFAFA"/>
</linearGradient>
<circle fill="url(#SVGID_21_)" cx="307.805" cy="400" r="38"/>
<linearGradient id="SVGID_22_" gradientUnits="userSpaceOnUse" x1="240" y1="362" x2="240" y2="438.1052">
	<stop  offset="0" style="stop-color:#FFD31A"/>
	<stop  offset="1" style="stop-color:#FF7F0B"/>
</linearGradient>
<path fill="url(#SVGID_22_)" d="M243.805,438H228v-76h15.805c4.418,0,8.195,3.582,8.195,8v60C252,434.418,248.224,438,243.805,438z"
	/>
<linearGradient id="SVGID_23_" gradientUnits="userSpaceOnUse" x1="307.8055" y1="367.3333" x2="307.8055" y2="432.0137">
	<stop  offset="0" style="stop-color:#FF7E45"/>
	<stop  offset="0.1983" style="stop-color:#FE7A4B"/>
	<stop  offset="0.4578" style="stop-color:#FC6D5B"/>
	<stop  offset="0.7499" style="stop-color:#F85876"/>
	<stop  offset="1" style="stop-color:#F44293"/>
</linearGradient>
<circle fill="url(#SVGID_23_)" cx="307.805" cy="400" r="32"/>
<circle opacity="0.05" cx="367.805" cy="364" r="8"/>
<linearGradient id="SVGID_24_" gradientUnits="userSpaceOnUse" x1="367.8055" y1="353.6667" x2="367.8055" y2="370.3342">
	<stop  offset="0" style="stop-color:#FFD31A"/>
	<stop  offset="1" style="stop-color:#FF7F0B"/>
</linearGradient>
<circle fill="url(#SVGID_24_)" cx="367.805" cy="362" r="8"/>
<circle fill="#FFFFFF" cx="291.805" cy="394" r="8"/>
<circle fill="#FFFFFF" cx="323.805" cy="394" r="8"/>
<linearGradient id="SVGID_25_" gradientUnits="userSpaceOnUse" x1="323.927" y1="389.75" x2="323.927" y2="398.6285">
	<stop  offset="0" style="stop-color:#4C4B4B"/>
	<stop  offset="1" style="stop-color:#3A3838"/>
</linearGradient>
<path fill="url(#SVGID_25_)" d="M328,393.82V394c0,2.2-1.897,4-4.097,4s-4.049-1.8-4.049-4c0-2.2,1.751-4,3.951-4h0.18
	c-0.12,0.32-0.18,0.64-0.18,1c0,1.66,1.437,3,3.097,3C327.263,394,328,393.94,328,393.82z"/>
<path opacity="0.3" fill="#4C1000" d="M317.805,408c0,3.167-1.483,6-3.783,7.833c-1.7,1.367-3.867,2.167-6.217,2.167
	s-4.517-0.8-6.217-2.167c-2.3-1.833-3.783-4.667-3.783-7.833H317.805z"/>
<rect x="298" y="404" fill="#FFFFFF" width="20" height="4"/>
<path opacity="0.2" fill="#4C1000" d="M314.022,415.833c-1.7,1.367-3.867,2.167-6.217,2.167s-4.517-0.8-6.217-2.167
	c0.95-2.05,3.383-2.833,6.217-2.833S313.072,413.783,314.022,415.833z"/>
<linearGradient id="SVGID_26_" gradientUnits="userSpaceOnUse" x1="267.8055" y1="452" x2="347.8055" y2="452">
	<stop  offset="0" style="stop-color:#E98F00;stop-opacity:0.05"/>
	<stop  offset="1" style="stop-color:#FF8700;stop-opacity:0.15"/>
</linearGradient>
<path fill="url(#SVGID_26_)" d="M343.334,450h-71.058c-1.514,0-2.899,0.856-3.576,2.21l-0.895,1.79h80l-0.895-1.79
	C346.233,450.856,344.849,450,343.334,450z"/>
<linearGradient id="SVGID_27_" gradientUnits="userSpaceOnUse" x1="367.8055" y1="357.75" x2="367.8055" y2="366.2565">
	<stop  offset="0" style="stop-color:#302926;stop-opacity:0"/>
	<stop  offset="0.146" style="stop-color:#392B23;stop-opacity:0.0438"/>
	<stop  offset="0.384" style="stop-color:#51301C;stop-opacity:0.1152"/>
	<stop  offset="0.6846" style="stop-color:#79370F;stop-opacity:0.2054"/>
	<stop  offset="1" style="stop-color:#AA4100;stop-opacity:0.3"/>
</linearGradient>
<circle fill="url(#SVGID_27_)" cx="367.805" cy="362" r="4"/>
<linearGradient id="SVGID_28_" gradientUnits="userSpaceOnUse" x1="291.927" y1="389.75" x2="291.927" y2="398.6285">
	<stop  offset="0" style="stop-color:#4C4B4B"/>
	<stop  offset="1" style="stop-color:#3A3838"/>
</linearGradient>
<path fill="url(#SVGID_28_)" d="M296,393.82V394c0,2.2-1.897,4-4.097,4s-4.049-1.8-4.049-4c0-2.2,1.751-4,3.951-4h0.18
	c-0.12,0.32-0.18,0.64-0.18,1c0,1.66,1.437,3,3.097,3C295.263,394,296,393.94,296,393.82z"/>
<linearGradient id="SVGID_29_" gradientUnits="userSpaceOnUse" x1="305.8055" y1="334" x2="305.8055" y2="346">
	<stop  offset="0" style="stop-color:#E98F00;stop-opacity:0.05"/>
	<stop  offset="1" style="stop-color:#FF8700;stop-opacity:0.15"/>
</linearGradient>
<path fill="url(#SVGID_29_)" d="M349.805,346h-88c2.88,0,5.52-1.54,6.94-4c0.18-0.3,0.34-0.62,0.48-0.96l2.94-7.04h67.28l2.54,6.1
	l0.44,1.02c0.12,0.3,0.28,0.6,0.44,0.88C344.285,344.46,346.925,346,349.805,346z"/>
<linearGradient id="SVGID_30_" gradientUnits="userSpaceOnUse" x1="326" y1="453.875" x2="326" y2="462.6819">
	<stop  offset="0" style="stop-color:#000000;stop-opacity:0.05"/>
	<stop  offset="1" style="stop-color:#302926;stop-opacity:0"/>
</linearGradient>
<rect x="322" y="454" fill="url(#SVGID_30_)" width="8" height="8"/>
<linearGradient id="SVGID_31_" gradientUnits="userSpaceOnUse" x1="286" y1="453.875" x2="286" y2="462.6819">
	<stop  offset="0" style="stop-color:#000000;stop-opacity:0.05"/>
	<stop  offset="1" style="stop-color:#302926;stop-opacity:0"/>
</linearGradient>
<rect x="282" y="454" fill="url(#SVGID_31_)" width="8" height="8"/>
<linearGradient id="SVGID_32_" gradientUnits="userSpaceOnUse" x1="228.8242" y1="396.9454" x2="220.4909" y2="404.9454">
	<stop  offset="0" style="stop-color:#000000;stop-opacity:0.05"/>
	<stop  offset="1" style="stop-color:#302926;stop-opacity:0"/>
</linearGradient>
<path fill="url(#SVGID_32_)" d="M228,390.54v12.14c-2,2.76-6,6.26-8,10.08V399.8c4-4.74,6.62-8.02,6.96-8.4
	C227.26,391.04,228,390.76,228,390.54z"/>
<path opacity="0.15" d="M339.805,400c0,0.34,0,0.68-0.02,1c-0.52-17.22-14.64-31-31.98-31s-31.46,13.78-31.98,31
	c-0.02-0.32-0.02-0.66-0.02-1c0-17.68,14.32-32,32-32S339.805,382.32,339.805,400z"/>
<linearGradient id="SVGID_33_" gradientUnits="userSpaceOnUse" x1="383.5058" y1="394.9993" x2="390.3391" y2="401.7493">
	<stop  offset="0" style="stop-color:#000000;stop-opacity:0.05"/>
	<stop  offset="1" style="stop-color:#302926;stop-opacity:0"/>
</linearGradient>
<path fill="url(#SVGID_33_)" d="M392,396.04v14.7c-2-6.02-6-9.68-8-11.6v-9.82c0,0.48,1.6,0.96,2.12,1.28
	C386.38,390.78,388,392.38,392,396.04z"/>
<linearGradient id="SVGID_34_" gradientUnits="userSpaceOnUse" x1="283.8055" y1="120.9688" x2="283.8055" y2="212.7603">
	<stop  offset="0" style="stop-color:#FFDE52"/>
	<stop  offset="0.6178" style="stop-color:#FFD23A"/>
	<stop  offset="1" style="stop-color:#FFCE31"/>
</linearGradient>
<circle fill="url(#SVGID_34_)" cx="283.805" cy="166" r="44"/>
<linearGradient id="SVGID_35_" gradientUnits="userSpaceOnUse" x1="283.8055" y1="128.9412" x2="283.8055" y2="203.5901">
	<stop  offset="0" style="stop-color:#EC6BF7"/>
	<stop  offset="0.2068" style="stop-color:#E36AF8"/>
	<stop  offset="0.544" style="stop-color:#CB68FA"/>
	<stop  offset="0.9674" style="stop-color:#A364FF"/>
	<stop  offset="1" style="stop-color:#A064FF"/>
</linearGradient>
<circle fill="url(#SVGID_35_)" cx="283.805" cy="166" r="36"/>
<linearGradient id="SVGID_36_" gradientUnits="userSpaceOnUse" x1="283.8055" y1="187.6944" x2="283.8055" y2="142.9569">
	<stop  offset="0" style="stop-color:#812A4F;stop-opacity:0"/>
	<stop  offset="0.3042" style="stop-color:#782253;stop-opacity:0.0913"/>
	<stop  offset="0.7987" style="stop-color:#600B5E;stop-opacity:0.2396"/>
	<stop  offset="1" style="stop-color:#540063;stop-opacity:0.3"/>
</linearGradient>
<circle fill="url(#SVGID_36_)" cx="283.805" cy="166" r="22"/>
<linearGradient id="SVGID_37_" gradientUnits="userSpaceOnUse" x1="283.8055" y1="180" x2="283.8055" y2="150.6434">
	<stop  offset="0" style="stop-color:#FFFFED;stop-opacity:0.05"/>
	<stop  offset="1" style="stop-color:#FFFFFF;stop-opacity:0.5"/>
</linearGradient>
<path fill="url(#SVGID_37_)" d="M297.805,166c0,7.74-6.26,14-14,14c-1,0-1.98-0.1-2.92-0.3c0.58-1.1,0.92-2.36,0.92-3.7
	c0-4.42-3.58-8-8-8c-1.34,0-2.6,0.34-3.7,0.92c-0.2-0.94-0.3-1.92-0.3-2.92c0-7.74,6.26-14,14-14S297.805,158.26,297.805,166z"/>
<linearGradient id="SVGID_38_" gradientUnits="userSpaceOnUse" x1="273.8055" y1="184" x2="273.8055" y2="168">
	<stop  offset="0" style="stop-color:#FFFFED;stop-opacity:0.05"/>
	<stop  offset="1" style="stop-color:#FFFFFF;stop-opacity:0.5"/>
</linearGradient>
<path fill="url(#SVGID_38_)" d="M281.805,176c0,1.34-0.34,2.6-0.92,3.7c-1.34,2.56-4,4.3-7.08,4.3c-4.42,0-8-3.58-8-8
	c0-3.08,1.74-5.74,4.3-7.08c1.1-0.58,2.36-0.92,3.7-0.92C278.225,168,281.805,171.58,281.805,176z"/>
<linearGradient id="SVGID_39_" gradientUnits="userSpaceOnUse" x1="283.8055" y1="137" x2="283.8055" y2="196.1138">
	<stop  offset="0" style="stop-color:#812A4F;stop-opacity:0"/>
	<stop  offset="1" style="stop-color:#540063;stop-opacity:0.3"/>
</linearGradient>
<path fill="url(#SVGID_39_)" d="M283.805,195c-15.99,0-29-13.01-29-29s13.01-29,29-29s29,13.01,29,29S299.796,195,283.805,195z
	 M283.805,139c-14.888,0-27,12.112-27,27s12.112,27,27,27s27-12.112,27-27S298.693,139,283.805,139z"/>
<path opacity="0.1" d="M319.805,166c0,0.66-0.02,1.34-0.06,2c-1.02-18.94-16.72-34-35.94-34s-34.92,15.06-35.94,34
	c-0.04-0.66-0.06-1.34-0.06-2c0-19.88,16.12-36,36-36S319.805,146.12,319.805,166z"/>
<linearGradient id="SVGID_40_" gradientUnits="userSpaceOnUse" x1="457.9024" y1="459.3333" x2="457.9024" y2="492.0272">
	<stop  offset="0" style="stop-color:#E5E5E5"/>
	<stop  offset="1" style="stop-color:#CECECE"/>
</linearGradient>
<path fill="url(#SVGID_40_)" d="M465.805,490h-15.786c-1.993,0-3.84-1.361-4.16-3.328c-0.408-2.506,1.516-4.672,3.945-4.672h10
	c1.105,0,2.195-0.895,2.195-2v-15.786c0-1.993,1.361-3.84,3.328-4.16c2.506-0.408,4.672,1.516,4.672,3.945v22
	C470,488.209,468.014,490,465.805,490z"/>
<linearGradient id="SVGID_41_" gradientUnits="userSpaceOnUse" x1="529.9024" y1="459.3333" x2="529.9024" y2="492.0272">
	<stop  offset="0" style="stop-color:#E5E5E5"/>
	<stop  offset="1" style="stop-color:#CECECE"/>
</linearGradient>
<path fill="url(#SVGID_41_)" d="M537.805,490h-16c-2.209,0-3.805-1.791-3.805-4v-21.786c0-1.993,1.361-3.84,3.328-4.16
	c2.506-0.408,4.672,1.516,4.672,3.945v16c0,1.105,0.7,2,1.805,2h9.786c1.993,0,3.84,1.361,4.16,3.328
	C542.158,487.834,540.234,490,537.805,490z"/>
<linearGradient id="SVGID_42_" gradientUnits="userSpaceOnUse" x1="522" y1="471.875" x2="522" y2="480.6819">
	<stop  offset="0" style="stop-color:#000000;stop-opacity:0.1"/>
	<stop  offset="1" style="stop-color:#302926;stop-opacity:0"/>
</linearGradient>
<rect x="518" y="472" fill="url(#SVGID_42_)" width="8" height="8"/>
<linearGradient id="SVGID_43_" gradientUnits="userSpaceOnUse" x1="466" y1="471.875" x2="466" y2="480.6819">
	<stop  offset="0" style="stop-color:#000000;stop-opacity:0.1"/>
	<stop  offset="1" style="stop-color:#302926;stop-opacity:0"/>
</linearGradient>
<rect x="462" y="472" fill="url(#SVGID_43_)" width="8" height="8"/>
<linearGradient id="SVGID_44_" gradientUnits="userSpaceOnUse" x1="577.8108" y1="364.6721" x2="577.8108" y2="430.5493">
	<stop  offset="0" style="stop-color:#E5E5E5"/>
	<stop  offset="1" style="stop-color:#CECECE"/>
</linearGradient>
<path fill="url(#SVGID_44_)" d="M596.625,424.82l-2,2c-0.74,0.76-1.76,1.18-2.82,1.18c-0.22,0-0.42-0.02-0.64-0.06
	c-1.28-0.2-2.36-1-2.94-2.16l-4.2-8.42l-4.44,2.22c-0.56,0.28-1.18,0.42-1.78,0.42c-1.74,0-3.42-1.14-3.9-3.08
	c-0.46-1.82,0.56-3.72,2.24-4.56l7.36-3.68c0.96-0.48,1.38-1.64,0.96-2.62c-3.8-8.76-8.42-15.68-12.66-20.84
	c-3.02-3.7-5.84-6.5-8-8.46c-2.52-2.28-4.16-3.4-4.22-3.44c-1.84-1.22-2.32-3.72-1.1-5.54c1.18-1.76,3.5-2.3,5.32-1.22
	c0.08,0.02,0.14,0.08,0.22,0.12c0.36,0.24,3.5,2.38,7.78,6.58c8.16,8.02,20.5,23.56,25.92,47.9
	C598.005,422.48,597.585,423.88,596.625,424.82z"/>
<linearGradient id="SVGID_45_" gradientUnits="userSpaceOnUse" x1="414.805" y1="365.75" x2="414.805" y2="437.4455">
	<stop  offset="0" style="stop-color:#E5E5E5"/>
	<stop  offset="1" style="stop-color:#CECECE"/>
</linearGradient>
<path fill="url(#SVGID_45_)" d="M401.805,438c-2.209,0-4-1.791-4-4c0-45.447,26.436-66.305,27.561-67.17
	c1.75-1.35,4.264-1.018,5.609,0.73s1.021,4.254-0.723,5.604l0,0c-0.244,0.189-24.447,19.514-24.447,60.836
	C405.805,436.209,404.014,438,401.805,438z"/>
<linearGradient id="SVGID_46_" gradientUnits="userSpaceOnUse" x1="494" y1="272.606" x2="494" y2="468.6037">
	<stop  offset="0" style="stop-color:#2ECAFF"/>
	<stop  offset="0.2433" style="stop-color:#2FC6FF"/>
	<stop  offset="0.4954" style="stop-color:#33B9FF"/>
	<stop  offset="0.7506" style="stop-color:#38A5FF"/>
	<stop  offset="1" style="stop-color:#4089FF"/>
</linearGradient>
<path fill="url(#SVGID_46_)" d="M564,464c0,4.418-3.582,8-8,8H432c-4.418,0-8-3.582-8-8V280c0-4.418,3.582-8,8-8h124
	c4.418,0,8,3.582,8,8V464z"/>
<path opacity="0.15" d="M552,440c0,1.105-0.895,2-2,2H438c-1.105,0-2-0.895-2-2V288c0-1.105,0.895-2,2-2h112c1.105,0,2,0.895,2,2
	V440z"/>
<linearGradient id="SVGID_47_" gradientUnits="userSpaceOnUse" x1="494" y1="440.6342" x2="494" y2="283.9538">
	<stop  offset="0" style="stop-color:#76E5FF"/>
	<stop  offset="0.1665" style="stop-color:#7FE7FF"/>
	<stop  offset="0.4381" style="stop-color:#97EDFF"/>
	<stop  offset="0.7789" style="stop-color:#BFF8FF"/>
	<stop  offset="1" style="stop-color:#DCFFFF"/>
</linearGradient>
<path fill="url(#SVGID_47_)" d="M552,438c0,1.105-0.895,2-2,2H438c-1.105,0-2-0.895-2-2V286c0-1.105,0.895-2,2-2h112
	c1.105,0,2,0.895,2,2V438z"/>
<circle fill="#FFFFFF" cx="475.805" cy="336" r="8"/>
<circle fill="#FFFFFF" cx="511.805" cy="336" r="8"/>
<linearGradient id="SVGID_48_" gradientUnits="userSpaceOnUse" x1="511.9268" y1="331.75" x2="511.9268" y2="340.6285">
	<stop  offset="0" style="stop-color:#4C4B4B"/>
	<stop  offset="1" style="stop-color:#3A3838"/>
</linearGradient>
<path fill="url(#SVGID_48_)" d="M516,335.82V336c0,2.2-1.898,4-4.098,4s-4.049-1.8-4.049-4c0-2.2,1.751-4,3.951-4h0.18
	c-0.12,0.32-0.18,0.64-0.18,1c0,1.66,1.438,3,3.098,3C515.262,336,516,335.94,516,335.82z"/>
<linearGradient id="SVGID_49_" gradientUnits="userSpaceOnUse" x1="475.9268" y1="331.75" x2="475.9268" y2="340.6285">
	<stop  offset="0" style="stop-color:#4C4B4B"/>
	<stop  offset="1" style="stop-color:#3A3838"/>
</linearGradient>
<path fill="url(#SVGID_49_)" d="M480,335.82V336c0,2.2-1.898,4-4.098,4s-4.049-1.8-4.049-4c0-2.2,1.751-4,3.951-4h0.18
	c-0.12,0.32-0.18,0.64-0.18,1c0,1.66,1.438,3,3.098,3C479.262,336,480,335.94,480,335.82z"/>
<linearGradient id="SVGID_50_" gradientUnits="userSpaceOnUse" x1="493.8048" y1="369" x2="493.8048" y2="345.5916">
	<stop  offset="0" style="stop-color:#5E5D5C"/>
	<stop  offset="1" style="stop-color:#4C4B4B"/>
</linearGradient>
<path fill="url(#SVGID_50_)" d="M509.787,360.463c-1.251-3.078,0.393-5.551-1.279-9.507c-0.606-1.434-1.43-2.81-2.761-3.853
	c0,0-1.096-0.85-2.354-1.262c-4.475-1.119-7.859,1.238-9.589,4.799c-1.731-3.56-5.115-5.917-9.589-4.799
	c-1.258,0.411-2.354,1.262-2.354,1.262c-1.33,1.043-2.155,2.419-2.761,3.853c-1.671,3.956-0.027,6.429-1.279,9.507
	c-0.784,1.928-2.557,5.114-7.671,5.114c0.25,0.326,0.668,0.812,1.279,1.279c2.671,2.043,7.427,1.511,8.95,1.279
	c5.921-0.846,10.156-4.494,12.346-9.456c0.415-0.94,1.742-0.94,2.157,0c2.191,4.962,6.425,8.61,12.346,9.456
	c1.523,0.233,6.279,0.764,8.95-1.279c0.61-0.467,1.028-0.953,1.279-1.279C512.344,365.578,510.571,362.392,509.787,360.463z"/>
<path opacity="0.17" d="M477.823,363.021c-0.614,1.509-1.828,3.785-4.782,4.705c-0.588-0.217-1.125-0.499-1.611-0.869
	c-0.614-0.473-1.023-0.959-1.279-1.279c5.114,0,6.892-3.184,7.671-5.114c0.32-0.78,0.447-1.637,0.486-2.57
	C478.359,359.786,478.423,361.563,477.823,363.021z"/>
<path opacity="0.17" d="M517.459,365.578c-0.256,0.32-0.665,0.806-1.279,1.279c-0.486,0.371-1.023,0.652-1.611,0.869
	c-2.954-0.921-4.168-3.196-4.782-4.705c-0.601-1.458-0.537-3.235-0.486-5.127c0.038,0.933,0.166,1.79,0.486,2.57
	C510.567,362.394,512.344,365.578,517.459,365.578z"/>
<linearGradient id="SVGID_51_" gradientUnits="userSpaceOnUse" x1="512" y1="323.75" x2="512" y2="317.6135">
	<stop  offset="0" style="stop-color:#5E5D5C"/>
	<stop  offset="1" style="stop-color:#4C4B4B"/>
</linearGradient>
<path fill="url(#SVGID_51_)" d="M520,321c0-1.657-1.343-3-3-3h-10c-1.657,0-3,1.343-3,3l0,0c0,1.657,1.343,3,3,3h10
	C518.657,324,520,322.657,520,321L520,321z"/>
<linearGradient id="SVGID_52_" gradientUnits="userSpaceOnUse" x1="476" y1="323.75" x2="476" y2="317.6135">
	<stop  offset="0" style="stop-color:#5E5D5C"/>
	<stop  offset="1" style="stop-color:#4C4B4B"/>
</linearGradient>
<path fill="url(#SVGID_52_)" d="M484,321c0-1.657-1.343-3-3-3h-10c-1.657,0-3,1.343-3,3l0,0c0,1.657,1.343,3,3,3h10
	C482.657,324,484,322.657,484,321L484,321z"/>
<linearGradient id="SVGID_53_" gradientUnits="userSpaceOnUse" x1="513.9024" y1="441.3333" x2="513.9024" y2="379.9855">
	<stop  offset="0" style="stop-color:#FFFFFF"/>
	<stop  offset="0.4689" style="stop-color:#F6F6F6"/>
	<stop  offset="1" style="stop-color:#E6E6E6"/>
</linearGradient>
<path fill="url(#SVGID_53_)" d="M552,425.58V438c0,1.1-1.095,2-2.195,2h-74l40.92-49.2c1.6-1.92,4.658-1.92,6.258,0L552,425.58z"/>
<linearGradient id="SVGID_54_" gradientUnits="userSpaceOnUse" x1="481.9024" y1="441.3333" x2="481.9024" y2="379.9855">
	<stop  offset="0" style="stop-color:#FFFFFF"/>
	<stop  offset="0.4689" style="stop-color:#F6F6F6"/>
	<stop  offset="1" style="stop-color:#E6E6E6"/>
</linearGradient>
<path fill="url(#SVGID_54_)" d="M527.805,440h-90c-1.1,0-1.805-0.9-1.805-2v-12.42l36.822-44.4c1.6-1.92,4.511-1.92,6.111,0
	l0.896,1.1L527.805,440z"/>
<linearGradient id="SVGID_55_" gradientUnits="userSpaceOnUse" x1="530.4218" y1="438.769" x2="504.0885" y2="406.4356">
	<stop  offset="0" style="stop-color:#302926;stop-opacity:0"/>
	<stop  offset="0.1227" style="stop-color:#25201D;stop-opacity:0.0061"/>
	<stop  offset="0.421" style="stop-color:#110E0D;stop-opacity:0.0211"/>
	<stop  offset="0.7156" style="stop-color:#040403;stop-opacity:0.0358"/>
	<stop  offset="1" style="stop-color:#000000;stop-opacity:0.05"/>
</linearGradient>
<polygon fill="url(#SVGID_55_)" points="535.585,440 527.805,440 501.805,408.74 505.705,404.06 "/>
<path opacity="0.15" d="M516,450c0,1.105-0.895,2-2,2h-66c-1.105,0-2-0.895-2-2v-2c0-1.105,0.895-2,2-2h66c1.105,0,2,0.895,2,2V450z
	"/>
<path opacity="0.15" d="M494,462c0,1.105-0.895,2-2,2h-44c-1.105,0-2-0.895-2-2v-2c0-1.105,0.895-2,2-2h44c1.105,0,2,0.895,2,2V462z
	"/>
<linearGradient id="SVGID_56_" gradientUnits="userSpaceOnUse" x1="532.8048" y1="464.75" x2="532.8048" y2="444.9984">
	<stop  offset="0" style="stop-color:#302926;stop-opacity:0.05"/>
	<stop  offset="1" style="stop-color:#000000;stop-opacity:0.2"/>
</linearGradient>
<circle fill="url(#SVGID_56_)" cx="532.805" cy="455" r="9"/>
<linearGradient id="SVGID_57_" gradientUnits="userSpaceOnUse" x1="445.3333" y1="268" x2="542.6667" y2="268">
	<stop  offset="0" style="stop-color:#5E5D5C"/>
	<stop  offset="1" style="stop-color:#4C4B4B"/>
</linearGradient>
<path fill="url(#SVGID_57_)" d="M542,268c0,2.209-1.791,4-4,4h-88c-2.209,0-4-1.791-4-4l0,0c0-2.209,1.791-4,4-4h88
	C540.209,264,542,265.791,542,268L542,268z"/>
<linearGradient id="SVGID_58_" gradientUnits="userSpaceOnUse" x1="494" y1="232.25" x2="494" y2="264.25">
	<stop  offset="0" style="stop-color:#5E5D5C"/>
	<stop  offset="0.471" style="stop-color:#5A5958"/>
	<stop  offset="0.9583" style="stop-color:#4D4C4C"/>
	<stop  offset="1" style="stop-color:#4C4B4B"/>
</linearGradient>
<path fill="url(#SVGID_58_)" d="M515.805,232h-44c-6.627,0-11.805,5.373-11.805,12v20h68v-20C528,237.373,522.432,232,515.805,232z"
	/>
<linearGradient id="SVGID_59_" gradientUnits="userSpaceOnUse" x1="458" y1="260" x2="530" y2="260">
	<stop  offset="0" style="stop-color:#FFD31A"/>
	<stop  offset="1" style="stop-color:#FF7F0B"/>
</linearGradient>
<path fill="url(#SVGID_59_)" d="M527.805,256h-68c-1.105,0-1.805,0.895-1.805,2v6h72v-6C530,256.895,528.909,256,527.805,256z"/>
<linearGradient id="SVGID_60_" gradientUnits="userSpaceOnUse" x1="517.9025" y1="231.5" x2="517.9025" y2="255.7539">
	<stop  offset="0" style="stop-color:#302926;stop-opacity:0"/>
	<stop  offset="0.2844" style="stop-color:#2C2523;stop-opacity:0.0427"/>
	<stop  offset="0.579" style="stop-color:#1F1B19;stop-opacity:0.0868"/>
	<stop  offset="0.8773" style="stop-color:#0B0909;stop-opacity:0.1316"/>
	<stop  offset="1" style="stop-color:#000000;stop-opacity:0.15"/>
</linearGradient>
<path fill="url(#SVGID_60_)" d="M528,244v12h-8v-12c0-6.62-5.575-12-12.195-12h8C522.425,232,528,237.38,528,244z"/>
<linearGradient id="SVGID_61_" gradientUnits="userSpaceOnUse" x1="494" y1="251.9167" x2="494" y2="255.959">
	<stop  offset="0" style="stop-color:#302926;stop-opacity:0"/>
	<stop  offset="1" style="stop-color:#000000;stop-opacity:0.15"/>
</linearGradient>
<rect x="460" y="252" fill="url(#SVGID_61_)" width="68" height="4"/>
<linearGradient id="SVGID_62_" gradientUnits="userSpaceOnUse" x1="563.8048" y1="249.2969" x2="563.8048" y2="311.882">
	<stop  offset="0" style="stop-color:#FF7E45"/>
	<stop  offset="0.1983" style="stop-color:#FE7A4B"/>
	<stop  offset="0.4578" style="stop-color:#FC6D5B"/>
	<stop  offset="0.7499" style="stop-color:#F85876"/>
	<stop  offset="1" style="stop-color:#F44293"/>
</linearGradient>
<circle fill="url(#SVGID_62_)" cx="563.805" cy="280" r="30"/>
<polygon opacity="0.15" points="556.81,299.131 545.387,287.707 548.215,284.879 556.792,293.455 579.378,270.595 582.224,273.405 
	"/>
<linearGradient id="SVGID_63_" gradientUnits="userSpaceOnUse" x1="563.8053" y1="265.75" x2="563.8053" y2="297.3975">
	<stop  offset="0" style="stop-color:#FFFFFF"/>
	<stop  offset="1" style="stop-color:#FAFAFA"/>
</linearGradient>
<polygon fill="url(#SVGID_63_)" points="556.81,295.131 545.387,283.707 548.215,280.879 556.792,289.455 579.378,266.595 
	582.224,269.405 "/>
<linearGradient id="SVGID_64_" gradientUnits="userSpaceOnUse" x1="533.9024" y1="298" x2="564" y2="298">
	<stop  offset="0" style="stop-color:#302926;stop-opacity:0"/>
	<stop  offset="0.2384" style="stop-color:#211C1A;stop-opacity:0.0238"/>
	<stop  offset="0.71" style="stop-color:#090807;stop-opacity:0.071"/>
	<stop  offset="1" style="stop-color:#000000;stop-opacity:0.1"/>
</linearGradient>
<path fill="url(#SVGID_64_)" d="M564,310v4c-16,0-30.098-13.44-30.098-30c0-0.68,0.069-1.34,0.129-2C535.051,297.64,548,310,564,310
	z"/>
<linearGradient id="SVGID_65_" gradientUnits="userSpaceOnUse" x1="425.3096" y1="375.8112" x2="416.3096" y2="382.9779">
	<stop  offset="0" style="stop-color:#000000;stop-opacity:0.05"/>
	<stop  offset="1" style="stop-color:#302926;stop-opacity:0"/>
</linearGradient>
<path fill="url(#SVGID_65_)" d="M424,368.18v11.64c-2,2.22-3.84,4.98-5.88,8.34c-0.72,1.18-2.12,2.42-2.12,3.74v-14.94
	C420,372.62,422,369.72,424,368.18z"/>
<linearGradient id="SVGID_66_" gradientUnits="userSpaceOnUse" x1="564.9219" y1="372.5153" x2="571.5469" y2="378.7653">
	<stop  offset="0" style="stop-color:#000000;stop-opacity:0.05"/>
	<stop  offset="1" style="stop-color:#302926;stop-opacity:0"/>
</linearGradient>
<path fill="url(#SVGID_66_)" d="M572,373.26v11.96c-4-3.7-6-6.5-8-8.46v-10.2c0,0.02,0.14,0.08,0.22,0.12
	C564.58,366.92,568,369.06,572,373.26z"/>
<linearGradient id="SVGID_67_" gradientUnits="userSpaceOnUse" x1="217.5898" y1="299.45" x2="274" y2="299.45">
	<stop  offset="0" style="stop-color:#304F26;stop-opacity:0"/>
	<stop  offset="0.2844" style="stop-color:#2C4D23;stop-opacity:0.0284"/>
	<stop  offset="0.579" style="stop-color:#1F4719;stop-opacity:0.0579"/>
	<stop  offset="0.8773" style="stop-color:#0B3E09;stop-opacity:0.0877"/>
	<stop  offset="1" style="stop-color:#003900;stop-opacity:0.1"/>
</linearGradient>
<path fill="url(#SVGID_67_)" d="M274,316v0.9c-16-12.84-34.637-22.08-55.137-26.64c-0.36-1.96-0.709-3.9-0.949-5.84L217.59,282
	c0.4,0.08,0.885,0.16,1.285,0.26c18.78,4.18,37.125,12.3,51.125,23.52v5.68c0,1.56,0.88,2.98,2.28,3.68L274,316z"/>
<path fill="#E8E8E8" d="M588.996,344.427l1.215,3.921c0.184,0.595,0.65,1.061,1.245,1.245l3.921,1.215
	c0.35,0.108,0.35,0.604,0,0.713l-3.921,1.215c-0.595,0.184-1.061,0.65-1.245,1.245l-1.215,3.921c-0.108,0.35-0.604,0.35-0.713,0
	l-1.215-3.921c-0.184-0.595-0.65-1.061-1.245-1.245l-3.921-1.215c-0.35-0.108-0.35-0.604,0-0.713l3.921-1.215
	c0.595-0.184,1.061-0.65,1.245-1.245l1.215-3.921C588.392,344.077,588.888,344.077,588.996,344.427z"/>
<path fill="#E8E8E8" d="M346.996,122.427l1.215,3.921c0.184,0.595,0.65,1.061,1.245,1.245l3.921,1.215
	c0.35,0.108,0.35,0.604,0,0.713l-3.921,1.215c-0.595,0.184-1.061,0.65-1.245,1.245l-1.215,3.921c-0.108,0.35-0.604,0.35-0.713,0
	l-1.215-3.921c-0.184-0.595-0.65-1.061-1.245-1.245l-3.921-1.215c-0.35-0.108-0.35-0.604,0-0.713l3.921-1.215
	c0.595-0.184,1.061-0.65,1.245-1.245l1.215-3.921C346.392,122.077,346.888,122.077,346.996,122.427z"/>
</svg>
