<?xml version="1.0" encoding="iso-8859-1"?>
<!-- Generator: Adobe Illustrator 22.1.0, SVG Export Plug-In . SVG Version: 6.00 Build 0)  -->
<svg version="1.1" id="logged_x5F_out" xmlns="http://www.w3.org/2000/svg" xmlns:xlink="http://www.w3.org/1999/xlink" x="0px"
	 y="0px" viewBox="0 0 800 600" enable-background="new 0 0 800 600" xml:space="preserve">
<linearGradient id="SVGID_1_" gradientUnits="userSpaceOnUse" x1="636.4001" y1="113.6" x2="453.6644" y2="296.3357">
	<stop  offset="0" style="stop-color:#76E5FF"/>
	<stop  offset="0.0862" style="stop-color:#97EBFF"/>
	<stop  offset="0.188" style="stop-color:#B7F1FF"/>
	<stop  offset="0.2988" style="stop-color:#D2F6FF"/>
	<stop  offset="0.4201" style="stop-color:#E6FAFF"/>
	<stop  offset="0.5572" style="stop-color:#F4FDFF"/>
	<stop  offset="0.7235" style="stop-color:#FCFFFF"/>
	<stop  offset="1" style="stop-color:#FFFFFF"/>
</linearGradient>
<circle fill="url(#SVGID_1_)" cx="548" cy="202" r="102"/>
<linearGradient id="SVGID_2_" gradientUnits="userSpaceOnUse" x1="232" y1="306" x2="428" y2="306">
	<stop  offset="0" style="stop-color:#FF8533"/>
	<stop  offset="0.4689" style="stop-color:#FF7C3B"/>
	<stop  offset="1" style="stop-color:#FF6C4A"/>
</linearGradient>
<rect x="232" y="152" fill="url(#SVGID_2_)" width="192" height="308"/>
<linearGradient id="SVGID_3_" gradientUnits="userSpaceOnUse" x1="150" y1="496" x2="634" y2="496">
	<stop  offset="0" style="stop-color:#EDEDED"/>
	<stop  offset="1" style="stop-color:#DDDDDD"/>
</linearGradient>
<rect x="150" y="492" fill="url(#SVGID_3_)" width="484" height="8"/>
<linearGradient id="SVGID_4_" gradientUnits="userSpaceOnUse" x1="236" y1="460" x2="236" y2="153.3391">
	<stop  offset="0" style="stop-color:#FFFFED;stop-opacity:0"/>
	<stop  offset="0.0417" style="stop-color:#FFFFEE;stop-opacity:0.0063"/>
	<stop  offset="0.529" style="stop-color:#FFFFFB;stop-opacity:0.0793"/>
	<stop  offset="1" style="stop-color:#FFFFFF;stop-opacity:0.15"/>
</linearGradient>
<polygon fill="url(#SVGID_4_)" points="240,452 232,460 232,152 240,160 "/>
<linearGradient id="SVGID_5_" gradientUnits="userSpaceOnUse" x1="424.0001" y1="156" x2="233.2003" y2="156">
	<stop  offset="0" style="stop-color:#FFFFED;stop-opacity:0"/>
	<stop  offset="0.471" style="stop-color:#FFFFF1;stop-opacity:0.0707"/>
	<stop  offset="0.9583" style="stop-color:#FFFFFE;stop-opacity:0.1437"/>
	<stop  offset="1" style="stop-color:#FFFFFF;stop-opacity:0.15"/>
</linearGradient>
<polygon fill="url(#SVGID_5_)" points="416,160 240,160 232,152 424,152 "/>
<linearGradient id="SVGID_6_" gradientUnits="userSpaceOnUse" x1="230.6665" y1="456" x2="426.78" y2="456">
	<stop  offset="0" style="stop-color:#610000;stop-opacity:0.1"/>
	<stop  offset="0.3084" style="stop-color:#620404;stop-opacity:0.0692"/>
	<stop  offset="0.6279" style="stop-color:#67110F;stop-opacity:0.0372"/>
	<stop  offset="0.9515" style="stop-color:#6E2523;stop-opacity:0.0048"/>
	<stop  offset="1" style="stop-color:#6F2926;stop-opacity:0"/>
</linearGradient>
<polygon fill="url(#SVGID_6_)" points="424,452 240,452 232,460 424,460 "/>
<linearGradient id="SVGID_7_" gradientUnits="userSpaceOnUse" x1="420" y1="152" x2="420" y2="461.1163">
	<stop  offset="0" style="stop-color:#610000;stop-opacity:0.1"/>
	<stop  offset="0.3084" style="stop-color:#620404;stop-opacity:0.0692"/>
	<stop  offset="0.6279" style="stop-color:#67110F;stop-opacity:0.0372"/>
	<stop  offset="0.9515" style="stop-color:#6E2523;stop-opacity:0.0048"/>
	<stop  offset="1" style="stop-color:#6F2926;stop-opacity:0"/>
</linearGradient>
<polygon fill="url(#SVGID_7_)" points="416,452 424,460 424,152 416,160 "/>
<linearGradient id="SVGID_8_" gradientUnits="userSpaceOnUse" x1="288" y1="287.75" x2="288" y2="185.4973">
	<stop  offset="0" style="stop-color:#FFFFED;stop-opacity:0"/>
	<stop  offset="0.5969" style="stop-color:#FFFFF6;stop-opacity:0.0597"/>
	<stop  offset="1" style="stop-color:#FFFFFF;stop-opacity:0.1"/>
</linearGradient>
<path fill="url(#SVGID_8_)" d="M302,288h-28c0-4.418-4-8-8-8v-86c4,0,8-3.582,8-8h28c0,4.418,4,8,8,8v86
	C306,280,302,283.582,302,288z"/>
<path opacity="0.4" fill="#7C230A" d="M314,300h-52v-2c0-3.309-2.691-6-6-6h-2V182h2c3.309,0,6-2.691,6-6v-2h52v2
	c0,3.309,2.692,6,6,6h2v110h-2c-3.309,0-6,2.691-6,6V300z M265.799,296h44.402c0.797-3.912,3.799-7.002,7.799-7.799V185.799
	c-4-0.797-7.002-3.887-7.799-7.799h-44.402c-0.797,3.912-3.799,7.002-7.799,7.799v102.402C262,288.998,265.002,292.088,265.799,296z
	"/>
<path opacity="0.4" fill="#7C230A" d="M394,300h-52v-2c0-3.309-2.691-6-6-6h-2V182h2c3.309,0,6-2.691,6-6v-2h52v2
	c0,3.309,2.692,6,6,6h2v110h-2c-3.309,0-6,2.691-6,6V300z M345.799,296h44.402c0.797-3.912,3.799-7.002,7.799-7.799V185.799
	c-4-0.797-7.002-3.887-7.799-7.799h-44.402c-0.797,3.912-3.799,7.002-7.799,7.799v102.402C342,288.998,345.002,292.088,345.799,296z
	"/>
<path opacity="0.4" fill="#7C230A" d="M314,438h-52v-2c0-3.309-2.691-6-6-6h-2V320h2c3.309,0,6-2.691,6-6v-2h52v2
	c0,3.309,2.692,6,6,6h2v110h-2c-3.309,0-6,2.691-6,6V438z M265.799,434h44.402c0.797-3.912,3.799-7.002,7.799-7.799V323.799
	c-4-0.797-7.002-3.887-7.799-7.799h-44.402c-0.797,3.912-3.799,7.002-7.799,7.799v102.402C262,426.998,265.002,430.088,265.799,434z
	"/>
<path opacity="0.4" fill="#7C230A" d="M394,438h-52v-2c0-3.309-2.691-6-6-6h-2V320h2c3.309,0,6-2.691,6-6v-2h52v2
	c0,3.309,2.692,6,6,6h2v110h-2c-3.309,0-6,2.691-6,6V438z M345.799,434h44.402c0.797-3.912,3.799-7.002,7.799-7.799V323.799
	c-4-0.797-7.002-3.887-7.799-7.799h-44.402c-0.797,3.912-3.799,7.002-7.799,7.799v102.402C342,426.998,345.002,430.088,345.799,434z
	"/>
<linearGradient id="SVGID_9_" gradientUnits="userSpaceOnUse" x1="327.0109" y1="281.1667" x2="327.0109" y2="253.9">
	<stop  offset="0" style="stop-color:#F0F0F0"/>
	<stop  offset="0.411" style="stop-color:#EDEDED"/>
	<stop  offset="0.6581" style="stop-color:#E5E5E5"/>
	<stop  offset="0.8612" style="stop-color:#D7D7D7"/>
	<stop  offset="1" style="stop-color:#C8C8C8"/>
</linearGradient>
<polygon fill="url(#SVGID_9_)" points="292.586,280.811 291.414,279.189 328.017,252.754 362.608,279.206 361.393,280.794 
	327.984,255.246 "/>
<path opacity="0.2" d="M374,337c0,0.552-0.448,1-1,1h-90c-0.552,0-1-0.448-1-1l0,0c0-0.552,0-19,0-21h92
	C374,316,374,336.448,374,337L374,337z"/>
<linearGradient id="SVGID_10_" gradientUnits="userSpaceOnUse" x1="328" y1="275.6667" x2="328" y2="336.6994">
	<stop  offset="0" style="stop-color:#FFFFE8"/>
	<stop  offset="0.4462" style="stop-color:#FBFBE9"/>
	<stop  offset="0.9077" style="stop-color:#EEEEEA"/>
	<stop  offset="1" style="stop-color:#EBEBEB"/>
</linearGradient>
<path fill="url(#SVGID_10_)" d="M374,334c0,1.105-0.895,2-2,2h-88c-1.105,0-2-0.895-2-2v-56c0-1.105,0.895-2,2-2h88
	c1.105,0,2,0.895,2,2V334z"/>
<linearGradient id="SVGID_11_" gradientUnits="userSpaceOnUse" x1="328.0001" y1="249.625" x2="328.0001" y2="258.6254">
	<stop  offset="0" style="stop-color:#F0F0F0"/>
	<stop  offset="0.3124" style="stop-color:#ECECEC"/>
	<stop  offset="0.6359" style="stop-color:#DFDFDF"/>
	<stop  offset="0.9636" style="stop-color:#CBCBCB"/>
	<stop  offset="1" style="stop-color:#C8C8C8"/>
</linearGradient>
<circle fill="url(#SVGID_11_)" cx="328" cy="254" r="4"/>
<linearGradient id="SVGID_12_" gradientUnits="userSpaceOnUse" x1="328.0001" y1="284.3333" x2="328.0001" y2="328.4858">
	<stop  offset="0" style="stop-color:#FF5E48"/>
	<stop  offset="1" style="stop-color:#F47836"/>
</linearGradient>
<path fill="url(#SVGID_12_)" d="M328,286c-11.028,0-20,8.973-20,20s8.972,20,20,20s20-8.973,20-20S339.028,286,328,286z
	 M312.202,303.437c1.061-6.734,6.501-12.174,13.235-13.235c4.238-0.668,8.216,0.358,11.402,2.485
	c0.513,0.343,0.559,1.086,0.122,1.522l-20.752,20.752c-0.436,0.436-1.18,0.391-1.522-0.122
	C312.561,311.654,311.535,307.676,312.202,303.437z M330.563,321.798c-4.238,0.668-8.216-0.358-11.402-2.485
	c-0.513-0.343-0.559-1.086-0.122-1.522l20.752-20.752c0.436-0.436,1.18-0.391,1.522,0.122c2.127,3.186,3.153,7.164,2.485,11.402
	C342.737,315.296,337.297,320.736,330.563,321.798z"/>
<linearGradient id="SVGID_13_" gradientUnits="userSpaceOnUse" x1="328.0001" y1="123.8333" x2="328.0001" y2="135.8475">
	<stop  offset="0" style="stop-color:#FFC622"/>
	<stop  offset="0.3622" style="stop-color:#FFC221"/>
	<stop  offset="0.7367" style="stop-color:#FFB51F"/>
	<stop  offset="1" style="stop-color:#FFA81D"/>
</linearGradient>
<path fill="url(#SVGID_13_)" d="M256,136c0-6,5.373-12,12-12h120c6.627,0,12,6,12,12H256z"/>
<linearGradient id="SVGID_14_" gradientUnits="userSpaceOnUse" x1="328.0001" y1="110.6667" x2="328.0001" y2="154.4604">
	<stop  offset="0" style="stop-color:#FFE67B"/>
	<stop  offset="0.2119" style="stop-color:#FFE477"/>
	<stop  offset="0.4316" style="stop-color:#FEDD6A"/>
	<stop  offset="0.6547" style="stop-color:#FCD256"/>
	<stop  offset="0.8789" style="stop-color:#FAC239"/>
	<stop  offset="1" style="stop-color:#F9B826"/>
</linearGradient>
<path fill="url(#SVGID_14_)" d="M428,136h-69.016c-3.702,0-6.832-2.562-7.777-6.142C348.494,119.579,339.132,112,328,112
	s-20.494,7.579-23.207,17.858c-0.945,3.579-4.075,6.142-7.777,6.142H228c-0.491,0-0.977,0.022-1.456,0.065
	c-9.936,0.896-8.901,15.935,1.075,15.935h200.763c9.976,0,11.01-15.038,1.075-15.935C428.977,136.022,428.491,136,428,136z"/>
<linearGradient id="SVGID_15_" gradientUnits="userSpaceOnUse" x1="328.0001" y1="123.75" x2="328.0001" y2="149.9335">
	<stop  offset="0" style="stop-color:#E98800;stop-opacity:0.2"/>
	<stop  offset="1" style="stop-color:#FF8E00;stop-opacity:0"/>
</linearGradient>
<circle fill="url(#SVGID_15_)" cx="328" cy="136" r="12"/>
<linearGradient id="SVGID_16_" gradientUnits="userSpaceOnUse" x1="233.75" y1="464" x2="171.5" y2="464">
	<stop  offset="0" style="stop-color:#7C483E"/>
	<stop  offset="1" style="stop-color:#896257"/>
</linearGradient>
<path fill="url(#SVGID_16_)" d="M202,492L202,492c-16.569,0-30-13.431-30-30v-26h60v26C232,478.569,218.569,492,202,492z"/>
<linearGradient id="SVGID_17_" gradientUnits="userSpaceOnUse" x1="168" y1="439" x2="232" y2="439">
	<stop  offset="0" style="stop-color:#B16464"/>
	<stop  offset="1" style="stop-color:#936864"/>
</linearGradient>
<path fill="url(#SVGID_17_)" d="M232,442h-62c-1.105,0-2-0.895-2-2v-2c0-1.105,0.896-2,2-2h62V442z"/>
<linearGradient id="SVGID_18_" gradientUnits="userSpaceOnUse" x1="189" y1="491.1379" x2="189" y2="442.0444">
	<stop  offset="0" style="stop-color:#000000;stop-opacity:0.15"/>
	<stop  offset="0.1227" style="stop-color:#0B0909;stop-opacity:0.1316"/>
	<stop  offset="0.421" style="stop-color:#1F1B19;stop-opacity:0.0868"/>
	<stop  offset="0.7156" style="stop-color:#2C2523;stop-opacity:0.0427"/>
	<stop  offset="1" style="stop-color:#302926;stop-opacity:0"/>
</linearGradient>
<path fill="url(#SVGID_18_)" d="M206,491.72c-1.3,0.18-2.64,0.28-4,0.28c-16.56,0-30-13.44-30-30v-20h8v20
	C180,477.2,191.32,489.78,206,491.72z"/>
<linearGradient id="SVGID_19_" gradientUnits="userSpaceOnUse" x1="327" y1="459.125" x2="327" y2="477.3904">
	<stop  offset="0" style="stop-color:#EDEDED"/>
	<stop  offset="1" style="stop-color:#DDDDDD"/>
</linearGradient>
<path fill="url(#SVGID_19_)" d="M438,476H216v-10c0-3.314,2.686-6,6-6h210c3.314,0,6,2.686,6,6V476z"/>
<linearGradient id="SVGID_20_" gradientUnits="userSpaceOnUse" x1="328" y1="476.3333" x2="328" y2="493.3366">
	<stop  offset="0" style="stop-color:#EDEDED"/>
	<stop  offset="1" style="stop-color:#DDDDDD"/>
</linearGradient>
<path fill="url(#SVGID_20_)" d="M456,492H200v-10c0-3.314,2.686-6,6-6h244c3.314,0,6,2.686,6,6V492z"/>
<linearGradient id="SVGID_21_" gradientUnits="userSpaceOnUse" x1="426" y1="488.5" x2="426" y2="418.5">
	<stop  offset="0" style="stop-color:#FFBE2C"/>
	<stop  offset="0.3899" style="stop-color:#FFBA2C"/>
	<stop  offset="0.7931" style="stop-color:#FFAD2C"/>
	<stop  offset="1" style="stop-color:#FFA42C"/>
</linearGradient>
<rect x="422" y="418" fill="url(#SVGID_21_)" width="8" height="70"/>
<linearGradient id="SVGID_22_" gradientUnits="userSpaceOnUse" x1="586" y1="488.5" x2="586" y2="418.5">
	<stop  offset="0" style="stop-color:#FFBE2C"/>
	<stop  offset="0.3899" style="stop-color:#FFBA2C"/>
	<stop  offset="0.7931" style="stop-color:#FFAD2C"/>
	<stop  offset="1" style="stop-color:#FFA42C"/>
</linearGradient>
<rect x="582" y="418" fill="url(#SVGID_22_)" width="8" height="70"/>
<linearGradient id="SVGID_23_" gradientUnits="userSpaceOnUse" x1="420" y1="428" x2="432" y2="428">
	<stop  offset="0" style="stop-color:#FFBE2C"/>
	<stop  offset="1" style="stop-color:#FFA42C"/>
</linearGradient>
<path fill="url(#SVGID_23_)" d="M430,430h-8c-1.105,0-2-0.895-2-2v-2h12v2C432,429.105,431.105,430,430,430z"/>
<linearGradient id="SVGID_24_" gradientUnits="userSpaceOnUse" x1="392" y1="422" x2="620" y2="422">
	<stop  offset="0" style="stop-color:#FFBE2C"/>
	<stop  offset="1" style="stop-color:#FFA42C"/>
</linearGradient>
<path fill="url(#SVGID_24_)" d="M620,424c0,1.105-0.895,2-2,2H394c-1.105,0-2-0.895-2-2v-4c0-1.105,0.895-2,2-2h224
	c1.105,0,2,0.895,2,2V424z"/>
<linearGradient id="SVGID_25_" gradientUnits="userSpaceOnUse" x1="420" y1="490" x2="432" y2="490">
	<stop  offset="0" style="stop-color:#FFBE2C"/>
	<stop  offset="1" style="stop-color:#FFA42C"/>
</linearGradient>
<path fill="url(#SVGID_25_)" d="M432,492h-12v-2c0-1.105,0.896-2,2-2h8c1.105,0,2,0.895,2,2V492z"/>
<linearGradient id="SVGID_26_" gradientUnits="userSpaceOnUse" x1="580" y1="490" x2="592" y2="490">
	<stop  offset="0" style="stop-color:#FFBE2C"/>
	<stop  offset="1" style="stop-color:#FFA42C"/>
</linearGradient>
<path fill="url(#SVGID_26_)" d="M592,492h-12v-2c0-1.105,0.896-2,2-2h8c1.105,0,2,0.895,2,2V492z"/>
<linearGradient id="SVGID_27_" gradientUnits="userSpaceOnUse" x1="506" y1="383.5" x2="506" y2="404.0548">
	<stop  offset="0" style="stop-color:#FFBE2C"/>
	<stop  offset="1" style="stop-color:#FFA42C"/>
</linearGradient>
<path fill="url(#SVGID_27_)" d="M612,386c0-1.105-0.895-2-2-2H402c-1.105,0-2,0.895-2,2v16c0,1.105,0.895,2,2,2h208
	c1.105,0,2-0.895,2-2V386z"/>
<linearGradient id="SVGID_28_" gradientUnits="userSpaceOnUse" x1="506" y1="345.3333" x2="506" y2="365.6694">
	<stop  offset="0" style="stop-color:#FFBE2C"/>
	<stop  offset="1" style="stop-color:#FFA42C"/>
</linearGradient>
<path fill="url(#SVGID_28_)" d="M612,348c0-1.105-0.895-2-2-2H402c-1.105,0-2,0.895-2,2v16c0,1.105,0.895,2,2,2h208
	c1.105,0,2-0.895,2-2V348z"/>
<linearGradient id="SVGID_29_" gradientUnits="userSpaceOnUse" x1="580" y1="428" x2="592" y2="428">
	<stop  offset="0" style="stop-color:#FFBE2C"/>
	<stop  offset="1" style="stop-color:#FFA42C"/>
</linearGradient>
<path fill="url(#SVGID_29_)" d="M590,430h-8c-1.105,0-2-0.895-2-2v-2h12v2C592,429.105,591.105,430,590,430z"/>
<linearGradient id="SVGID_30_" gradientUnits="userSpaceOnUse" x1="426" y1="337.6667" x2="426" y2="418.0443">
	<stop  offset="0" style="stop-color:#FFBE2C"/>
	<stop  offset="1" style="stop-color:#FFA42C"/>
</linearGradient>
<path fill="url(#SVGID_30_)" d="M436,418h-20v-78c0-1.105,0.896-2,2-2h16c1.105,0,2,0.895,2,2V418z"/>
<linearGradient id="SVGID_31_" gradientUnits="userSpaceOnUse" x1="586" y1="335" x2="586" y2="418.7622">
	<stop  offset="0" style="stop-color:#FFBE2C"/>
	<stop  offset="1" style="stop-color:#FFA42C"/>
</linearGradient>
<path fill="url(#SVGID_31_)" d="M596,418h-20v-78c0-1.105,0.896-2,2-2h16c1.105,0,2,0.895,2,2V418z"/>
<linearGradient id="SVGID_32_" gradientUnits="userSpaceOnUse" x1="462" y1="308.6667" x2="462" y2="400.243">
	<stop  offset="0" style="stop-color:#73767A"/>
	<stop  offset="0.0417" style="stop-color:#727579"/>
	<stop  offset="0.529" style="stop-color:#65686C"/>
	<stop  offset="1" style="stop-color:#616468"/>
</linearGradient>
<path fill="url(#SVGID_32_)" d="M450,398h24v-88h-12c-6.627,0-12,5.373-12,12V398z"/>
<linearGradient id="SVGID_33_" gradientUnits="userSpaceOnUse" x1="550" y1="308.6667" x2="550" y2="400.243">
	<stop  offset="0" style="stop-color:#73767A"/>
	<stop  offset="0.0417" style="stop-color:#727579"/>
	<stop  offset="0.529" style="stop-color:#65686C"/>
	<stop  offset="1" style="stop-color:#616468"/>
</linearGradient>
<path fill="url(#SVGID_33_)" d="M562,398h-24v-88h12c6.627,0,12,5.373,12,12V398z"/>
<linearGradient id="SVGID_34_" gradientUnits="userSpaceOnUse" x1="506" y1="308.6667" x2="506" y2="420.1616">
	<stop  offset="0" style="stop-color:#73767A"/>
	<stop  offset="0.0417" style="stop-color:#727579"/>
	<stop  offset="0.529" style="stop-color:#65686C"/>
	<stop  offset="1" style="stop-color:#616468"/>
</linearGradient>
<path fill="url(#SVGID_34_)" d="M537.958,310H524h-50c-4.418,0-8,3.582-8,8v100h40h40v-99.958C546,313.6,542.4,310,537.958,310z"/>
<linearGradient id="SVGID_35_" gradientUnits="userSpaceOnUse" x1="526" y1="308.6667" x2="526" y2="422.6686">
	<stop  offset="0" style="stop-color:#302926;stop-opacity:0"/>
	<stop  offset="0.2844" style="stop-color:#2C2523;stop-opacity:0.0427"/>
	<stop  offset="0.579" style="stop-color:#1F1B19;stop-opacity:0.0868"/>
	<stop  offset="0.8773" style="stop-color:#0B0909;stop-opacity:0.1316"/>
	<stop  offset="1" style="stop-color:#000000;stop-opacity:0.15"/>
</linearGradient>
<path fill="url(#SVGID_35_)" d="M546,318.042V418h-40v-90c10,0,18-8.1,18-18h13.958C542.4,310,546,313.6,546,318.042z"/>
<linearGradient id="SVGID_36_" gradientUnits="userSpaceOnUse" x1="482" y1="472.875" x2="482" y2="456.7382">
	<stop  offset="0" style="stop-color:#F9D6BD"/>
	<stop  offset="1" style="stop-color:#F9CEB2"/>
</linearGradient>
<rect x="472" y="458" fill="url(#SVGID_36_)" width="20" height="14"/>
<linearGradient id="SVGID_37_" gradientUnits="userSpaceOnUse" x1="530" y1="472.2917" x2="530" y2="456.1838">
	<stop  offset="0" style="stop-color:#F9D6BD"/>
	<stop  offset="1" style="stop-color:#F9CEB2"/>
</linearGradient>
<rect x="520" y="458" fill="url(#SVGID_37_)" width="20" height="14"/>
<linearGradient id="SVGID_38_" gradientUnits="userSpaceOnUse" x1="483.75" y1="408" x2="528.6271" y2="408">
	<stop  offset="0" style="stop-color:#3A3C3D"/>
	<stop  offset="0.4369" style="stop-color:#3C3F40"/>
	<stop  offset="0.7965" style="stop-color:#44474A"/>
	<stop  offset="1" style="stop-color:#4B4F54"/>
</linearGradient>
<rect x="484" y="398" fill="url(#SVGID_38_)" width="44" height="20"/>
<linearGradient id="SVGID_39_" gradientUnits="userSpaceOnUse" x1="514" y1="430" x2="546" y2="430">
	<stop  offset="0" style="stop-color:#3A3C3D"/>
	<stop  offset="0.1553" style="stop-color:#3F4143"/>
	<stop  offset="0.5848" style="stop-color:#484C50"/>
	<stop  offset="1" style="stop-color:#4B4F54"/>
</linearGradient>
<path fill="url(#SVGID_39_)" d="M546,462h-32v-56c0-4.418,3.582-8,8-8h16c4.418,0,8,3.582,8,8V462z"/>
<linearGradient id="SVGID_40_" gradientUnits="userSpaceOnUse" x1="448" y1="401" x2="466" y2="401">
	<stop  offset="0" style="stop-color:#B5B5B5"/>
	<stop  offset="1" style="stop-color:#919191"/>
</linearGradient>
<path fill="url(#SVGID_40_)" d="M466,404h-16c-1.105,0-2-0.895-2-2v-2c0-1.105,0.896-2,2-2h16V404z"/>
<linearGradient id="SVGID_41_" gradientUnits="userSpaceOnUse" x1="546" y1="401" x2="564" y2="401">
	<stop  offset="0" style="stop-color:#B5B5B5"/>
	<stop  offset="1" style="stop-color:#919191"/>
</linearGradient>
<path fill="url(#SVGID_41_)" d="M562,404h-16v-6h16c1.105,0,2,0.895,2,2v2C564,403.105,563.105,404,562,404z"/>
<linearGradient id="SVGID_42_" gradientUnits="userSpaceOnUse" x1="444" y1="403.25" x2="444" y2="418.2004">
	<stop  offset="0" style="stop-color:#F9CDAF"/>
	<stop  offset="0.5359" style="stop-color:#F8CAAB"/>
	<stop  offset="1" style="stop-color:#F7C4A1"/>
</linearGradient>
<path fill="url(#SVGID_42_)" d="M452,404v6h-26c-2.209,0-4,1.791-4,4v4h40c2.209,0,4-1.791,4-4v-4v-6H452z"/>
<linearGradient id="SVGID_43_" gradientUnits="userSpaceOnUse" x1="568" y1="403.875" x2="568" y2="417.9961">
	<stop  offset="0" style="stop-color:#F9CDAF"/>
	<stop  offset="0.5359" style="stop-color:#F8CAAB"/>
	<stop  offset="1" style="stop-color:#F7C4A1"/>
</linearGradient>
<path fill="url(#SVGID_43_)" d="M586,410h-26v-6h-14v6v4c0,2.209,1.791,4,4,4h40v-4C590,411.791,588.209,410,586,410z"/>
<linearGradient id="SVGID_44_" gradientUnits="userSpaceOnUse" x1="497.75" y1="430" x2="465.5703" y2="430">
	<stop  offset="0" style="stop-color:#3A3C3D"/>
	<stop  offset="0.1553" style="stop-color:#3F4143"/>
	<stop  offset="0.5848" style="stop-color:#484C50"/>
	<stop  offset="1" style="stop-color:#4B4F54"/>
</linearGradient>
<path fill="url(#SVGID_44_)" d="M498,462h-32v-56c0-4.418,3.582-8,8-8h16c4.418,0,8,3.582,8,8V462z"/>
<linearGradient id="SVGID_45_" gradientUnits="userSpaceOnUse" x1="464" y1="458" x2="500" y2="458">
	<stop  offset="0" style="stop-color:#73767A"/>
	<stop  offset="0.0417" style="stop-color:#727579"/>
	<stop  offset="0.529" style="stop-color:#65686C"/>
	<stop  offset="1" style="stop-color:#616468"/>
</linearGradient>
<path fill="url(#SVGID_45_)" d="M500,460c0,1.105-0.895,2-2,2h-32c-1.105,0-2-0.895-2-2v-4c0-1.105,0.895-2,2-2h32
	c1.105,0,2,0.895,2,2V460z"/>
<linearGradient id="SVGID_46_" gradientUnits="userSpaceOnUse" x1="549.05" y1="458" x2="511.6952" y2="458">
	<stop  offset="0" style="stop-color:#73767A"/>
	<stop  offset="0.0417" style="stop-color:#727579"/>
	<stop  offset="0.529" style="stop-color:#65686C"/>
	<stop  offset="1" style="stop-color:#616468"/>
</linearGradient>
<path fill="url(#SVGID_46_)" d="M548,460c0,1.105-0.895,2-2,2h-32c-1.105,0-2-0.895-2-2v-4c0-1.105,0.895-2,2-2h32
	c1.105,0,2,0.895,2,2V460z"/>
<linearGradient id="SVGID_47_" gradientUnits="userSpaceOnUse" x1="462.3335" y1="409" x2="451.6654" y2="409">
	<stop  offset="0" style="stop-color:#793A00;stop-opacity:0"/>
	<stop  offset="1" style="stop-color:#793A00;stop-opacity:0.15"/>
</linearGradient>
<polygon fill="url(#SVGID_47_)" points="452,410 462,410 452,408 "/>
<linearGradient id="SVGID_48_" gradientUnits="userSpaceOnUse" x1="548.0001" y1="409" x2="560" y2="409">
	<stop  offset="0" style="stop-color:#793A00;stop-opacity:0"/>
	<stop  offset="1" style="stop-color:#793A00;stop-opacity:0.15"/>
</linearGradient>
<polygon fill="url(#SVGID_48_)" points="560,410 548,410 560,408 "/>
<linearGradient id="SVGID_49_" gradientUnits="userSpaceOnUse" x1="494" y1="310" x2="518" y2="310">
	<stop  offset="0" style="stop-color:#F9D6BD"/>
	<stop  offset="1" style="stop-color:#F9CEB2"/>
</linearGradient>
<path fill="url(#SVGID_49_)" d="M506,322L506,322c-6.627,0-12-5.373-12-12v-12h24v12C518,316.627,512.628,322,506,322z"/>
<linearGradient id="SVGID_50_" gradientUnits="userSpaceOnUse" x1="550.0001" y1="253.6667" x2="550.0001" y2="275.3564">
	<stop  offset="0" style="stop-color:#F9CDAF"/>
	<stop  offset="0.5359" style="stop-color:#F8CAAB"/>
	<stop  offset="1" style="stop-color:#F7C4A1"/>
</linearGradient>
<path fill="url(#SVGID_50_)" d="M550,254h-10v10c0,5.523,4.477,10,10,10s10-4.477,10-10S555.523,254,550,254z"/>
<linearGradient id="SVGID_51_" gradientUnits="userSpaceOnUse" x1="550.0001" y1="257.5" x2="550.0001" y2="270.1678">
	<stop  offset="0" style="stop-color:#EFBC9A"/>
	<stop  offset="0.7147" style="stop-color:#F3C09E"/>
	<stop  offset="1" style="stop-color:#F7C4A1"/>
</linearGradient>
<path fill="url(#SVGID_51_)" d="M550,258h-6v6c0,3.314,2.686,6,6,6s6-2.686,6-6S553.314,258,550,258z"/>
<path opacity="0.05" d="M556,264c0,0.34-0.02,0.68-0.1,1c-0.46-2.84-2.92-5-5.9-5h-6v-2h6C553.32,258,556,260.68,556,264z"/>
<linearGradient id="SVGID_52_" gradientUnits="userSpaceOnUse" x1="462" y1="253.6667" x2="462" y2="275.3564">
	<stop  offset="0" style="stop-color:#F9CDAF"/>
	<stop  offset="0.5359" style="stop-color:#F8CAAB"/>
	<stop  offset="1" style="stop-color:#F7C4A1"/>
</linearGradient>
<path fill="url(#SVGID_52_)" d="M462,254h10v10c0,5.523-4.477,10-10,10s-10-4.477-10-10S456.477,254,462,254z"/>
<linearGradient id="SVGID_53_" gradientUnits="userSpaceOnUse" x1="462" y1="257.5" x2="462" y2="270.1678">
	<stop  offset="0" style="stop-color:#EFBC9A"/>
	<stop  offset="0.7147" style="stop-color:#F3C09E"/>
	<stop  offset="1" style="stop-color:#F7C4A1"/>
</linearGradient>
<path fill="url(#SVGID_53_)" d="M462,258h6v6c0,3.314-2.686,6-6,6s-6-2.686-6-6S458.686,258,462,258z"/>
<path opacity="0.05" d="M456,264c0,0.34,0.02,0.68,0.1,1c0.46-2.84,2.92-5,5.9-5h6v-2h-6C458.68,258,456,260.68,456,264z"/>
<linearGradient id="SVGID_54_" gradientUnits="userSpaceOnUse" x1="466" y1="270" x2="546" y2="270">
	<stop  offset="0" style="stop-color:#FFDEC7"/>
	<stop  offset="1" style="stop-color:#FFD8BD"/>
</linearGradient>
<path fill="url(#SVGID_54_)" d="M506,304L506,304c-22.091,0-40-17.909-40-40v-28h80v28C546,286.091,528.091,304,506,304z"/>
<circle fill="#FFFFFF" cx="524" cy="258" r="8"/>
<linearGradient id="SVGID_55_" gradientUnits="userSpaceOnUse" x1="524.0001" y1="253.875" x2="524.0001" y2="262.0913">
	<stop  offset="0" style="stop-color:#4C4B4B"/>
	<stop  offset="1" style="stop-color:#3A3838"/>
</linearGradient>
<path fill="url(#SVGID_55_)" d="M528,258c0,2.2-1.8,4-4,4s-4-1.8-4-4c0-2.2,1.8-4,4-4c0.64,0,1.24,0.14,1.78,0.42
	c-0.48,0.36-0.78,0.94-0.78,1.58c0,1.1,0.9,2,2,2c0.36,0,0.7-0.1,0.98-0.26C528,257.82,528,257.92,528,258z"/>
<linearGradient id="SVGID_56_" gradientUnits="userSpaceOnUse" x1="524" y1="245.6667" x2="524" y2="252">
	<stop  offset="0" style="stop-color:#FF8724"/>
	<stop  offset="1" style="stop-color:#FF6839"/>
</linearGradient>
<path fill="url(#SVGID_56_)" d="M532,249c0-1.657-1.343-3-3-3h-10c-1.657,0-3,1.343-3,3l0,0c0,1.657,1.343,3,3,3h10
	C530.657,252,532,250.657,532,249L532,249z"/>
<circle fill="#FFFFFF" cx="488" cy="258" r="8"/>
<linearGradient id="SVGID_57_" gradientUnits="userSpaceOnUse" x1="488.0001" y1="253.875" x2="488.0001" y2="262.0913">
	<stop  offset="0" style="stop-color:#4C4B4B"/>
	<stop  offset="1" style="stop-color:#3A3838"/>
</linearGradient>
<path fill="url(#SVGID_57_)" d="M492,258c0,2.2-1.8,4-4,4s-4-1.8-4-4c0-2.2,1.8-4,4-4c0.64,0,1.24,0.14,1.78,0.42
	c-0.48,0.36-0.78,0.94-0.78,1.58c0,1.1,0.9,2,2,2c0.36,0,0.7-0.1,0.98-0.26C492,257.82,492,257.92,492,258z"/>
<linearGradient id="SVGID_58_" gradientUnits="userSpaceOnUse" x1="488" y1="245.6667" x2="488" y2="252">
	<stop  offset="0" style="stop-color:#FF8724"/>
	<stop  offset="1" style="stop-color:#FF6839"/>
</linearGradient>
<path fill="url(#SVGID_58_)" d="M496,249c0-1.657-1.343-3-3-3h-10c-1.657,0-3,1.343-3,3l0,0c0,1.657,1.343,3,3,3h10
	C494.657,252,496,250.657,496,249L496,249z"/>
<linearGradient id="SVGID_59_" gradientUnits="userSpaceOnUse" x1="506" y1="259.875" x2="506" y2="270.0193">
	<stop  offset="0" style="stop-color:#F9CDAF"/>
	<stop  offset="0.5359" style="stop-color:#F8CAAB"/>
	<stop  offset="1" style="stop-color:#F7C4A1"/>
</linearGradient>
<path fill="url(#SVGID_59_)" d="M510,266c0,2.209-1.791,4-4,4l0,0c-2.209,0-4-1.791-4-4v-2c0-2.209,1.791-4,4-4l0,0
	c2.209,0,4,1.791,4,4V266z"/>
<linearGradient id="SVGID_60_" gradientUnits="userSpaceOnUse" x1="562" y1="232" x2="450" y2="232">
	<stop  offset="0" style="stop-color:#3A3C3D"/>
	<stop  offset="0.1553" style="stop-color:#3F4143"/>
	<stop  offset="0.5848" style="stop-color:#484C50"/>
	<stop  offset="1" style="stop-color:#4B4F54"/>
</linearGradient>
<path fill="url(#SVGID_60_)" d="M562,232c0,2.209-1.791,4-4,4H454c-2.209,0-4-1.791-4-4l0,0c0-2.209,1.791-4,4-4h104
	C560.209,228,562,229.791,562,232L562,232z"/>
<linearGradient id="SVGID_61_" gradientUnits="userSpaceOnUse" x1="548.8333" y1="208" x2="463.8293" y2="208">
	<stop  offset="0" style="stop-color:#3A3C3D"/>
	<stop  offset="0.1553" style="stop-color:#3F4143"/>
	<stop  offset="0.5848" style="stop-color:#484C50"/>
	<stop  offset="1" style="stop-color:#4B4F54"/>
</linearGradient>
<path fill="url(#SVGID_61_)" d="M536,188h-60c-6.627,0-12,5.373-12,12v28h84v-28C548,193.373,542.628,188,536,188z"/>
<linearGradient id="SVGID_62_" gradientUnits="userSpaceOnUse" x1="462" y1="224" x2="550" y2="224">
	<stop  offset="0" style="stop-color:#2ECAFF"/>
	<stop  offset="0.207" style="stop-color:#2FC6FF"/>
	<stop  offset="0.4215" style="stop-color:#30B9FF"/>
	<stop  offset="0.6395" style="stop-color:#33A5FF"/>
	<stop  offset="0.8584" style="stop-color:#3888FF"/>
	<stop  offset="1" style="stop-color:#3B71FF"/>
</linearGradient>
<path fill="url(#SVGID_62_)" d="M548,220h-84c-1.105,0-2,0.895-2,2v6h88v-6C550,220.895,549.105,220,548,220z"/>
<linearGradient id="SVGID_63_" gradientUnits="userSpaceOnUse" x1="538.0001" y1="187.3333" x2="538.0001" y2="219.6718">
	<stop  offset="0" style="stop-color:#302926;stop-opacity:0"/>
	<stop  offset="0.2844" style="stop-color:#2C2523;stop-opacity:0.0427"/>
	<stop  offset="0.579" style="stop-color:#1F1B19;stop-opacity:0.0868"/>
	<stop  offset="0.8773" style="stop-color:#0B0909;stop-opacity:0.1316"/>
	<stop  offset="1" style="stop-color:#000000;stop-opacity:0.15"/>
</linearGradient>
<path fill="url(#SVGID_63_)" d="M548,200v20h-8v-20c0-6.62-5.38-12-12-12h8C542.62,188,548,193.38,548,200z"/>
<linearGradient id="SVGID_64_" gradientUnits="userSpaceOnUse" x1="546.0001" y1="235.75" x2="546.0001" y2="253.2661">
	<stop  offset="0" style="stop-color:#FF8724"/>
	<stop  offset="0.2755" style="stop-color:#FF792E"/>
	<stop  offset="0.6439" style="stop-color:#FF6C36"/>
	<stop  offset="1" style="stop-color:#FF6839"/>
</linearGradient>
<path fill="url(#SVGID_64_)" d="M549,244h1c2.209,0,4-1.791,4-4c0-2.209-1.791-4-4-4h-12v2c0,3.314,2.686,6,6,6h2v10h3
	c2.761,0,5-2.239,5-5C554,246.239,551.762,244,549,244z"/>
<linearGradient id="SVGID_65_" gradientUnits="userSpaceOnUse" x1="466.0001" y1="235.75" x2="466.0001" y2="253.2661">
	<stop  offset="0" style="stop-color:#FF8724"/>
	<stop  offset="0.2755" style="stop-color:#FF792E"/>
	<stop  offset="0.6439" style="stop-color:#FF6C36"/>
	<stop  offset="1" style="stop-color:#FF6839"/>
</linearGradient>
<path fill="url(#SVGID_65_)" d="M462,236c-2.209,0-4,1.791-4,4c0,2.209,1.791,4,4,4h1c-2.761,0-5,2.239-5,5c0,2.761,2.239,5,5,5h3
	v-10h2c3.314,0,6-2.686,6-6v-2H462z"/>
<linearGradient id="SVGID_66_" gradientUnits="userSpaceOnUse" x1="505.9999" y1="275.75" x2="505.9999" y2="283.876">
	<stop  offset="0" style="stop-color:#FF8724"/>
	<stop  offset="1" style="stop-color:#FF6839"/>
</linearGradient>
<path fill="url(#SVGID_66_)" d="M518,284h-24c-1.105,0-2-0.895-2-2l0,0c0-3.314,2.686-6,6-6h16c3.314,0,6,2.686,6,6l0,0
	C520,283.105,519.104,284,518,284z"/>
<linearGradient id="SVGID_67_" gradientUnits="userSpaceOnUse" x1="494" y1="304.08" x2="518" y2="304.08">
	<stop  offset="0" style="stop-color:#302926;stop-opacity:0"/>
	<stop  offset="1" style="stop-color:#000000;stop-opacity:0.1"/>
</linearGradient>
<path fill="url(#SVGID_67_)" d="M518,302.16v2c-4,1.2-7.82,1.84-12,1.84s-8-0.64-12-1.84v-2c4,1.2,7.82,1.84,12,1.84
	S514,303.36,518,302.16z"/>
<linearGradient id="SVGID_68_" gradientUnits="userSpaceOnUse" x1="488.0001" y1="317.5" x2="524.0001" y2="317.5">
	<stop  offset="0" style="stop-color:#B5B5B5"/>
	<stop  offset="1" style="stop-color:#919191"/>
</linearGradient>
<path fill="url(#SVGID_68_)" d="M524,310c0,9.92-8.08,18-18,18s-18-8.08-18-18c0-1.66,1.34-3,3-3s3,1.34,3,3c0,6.62,5.38,12,12,12
	s12-5.38,12-12c0-1.66,1.34-3,3-3S524,308.34,524,310z"/>
<linearGradient id="SVGID_69_" gradientUnits="userSpaceOnUse" x1="518" y1="350" x2="538" y2="350">
	<stop  offset="0" style="stop-color:#E5E5E5"/>
	<stop  offset="1" style="stop-color:#CECECE"/>
</linearGradient>
<path fill="url(#SVGID_69_)" d="M538,352h-20v-2c0-1.105,0.896-2,2-2h16c1.105,0,2,0.895,2,2V352z"/>
<linearGradient id="SVGID_70_" gradientUnits="userSpaceOnUse" x1="518" y1="358" x2="538" y2="358">
	<stop  offset="0" style="stop-color:#B5B5B5"/>
	<stop  offset="1" style="stop-color:#919191"/>
</linearGradient>
<path fill="url(#SVGID_70_)" d="M528,364L528,364c-5.523,0-10-4.477-10-10v-2h20v2C538,359.523,533.523,364,528,364z"/>
<path fill="#FFFFFF" d="M522,348l3.125-3.125c1.588-1.588,4.162-1.588,5.75,0L534,348H522z"/>
<linearGradient id="SVGID_71_" gradientUnits="userSpaceOnUse" x1="482" y1="467.5" x2="482" y2="488.2635">
	<stop  offset="0" style="stop-color:#C8C8C8"/>
	<stop  offset="0.2651" style="stop-color:#C4C4C4"/>
	<stop  offset="0.5398" style="stop-color:#B7B7B7"/>
	<stop  offset="0.8179" style="stop-color:#A3A3A3"/>
	<stop  offset="1" style="stop-color:#919191"/>
</linearGradient>
<path fill="url(#SVGID_71_)" d="M496,488h-28v-17.979c0-1.116,0.905-2.021,2.021-2.021h23.958c1.116,0,2.021,0.905,2.021,2.021V488z
	"/>
<linearGradient id="SVGID_72_" gradientUnits="userSpaceOnUse" x1="502.25" y1="490" x2="461.6017" y2="490">
	<stop  offset="0" style="stop-color:#353535"/>
	<stop  offset="1" style="stop-color:#797979"/>
</linearGradient>
<rect x="462" y="488" fill="url(#SVGID_72_)" width="40" height="4"/>
<linearGradient id="SVGID_73_" gradientUnits="userSpaceOnUse" x1="464" y1="481" x2="500" y2="481">
	<stop  offset="0" style="stop-color:#E5E5E5"/>
	<stop  offset="1" style="stop-color:#CECECE"/>
</linearGradient>
<path fill="url(#SVGID_73_)" d="M488,474h-12c-6.627,0-12,5.373-12,12v2h36v-2C500,479.373,494.628,474,488,474z"/>
<linearGradient id="SVGID_74_" gradientUnits="userSpaceOnUse" x1="530" y1="467.8333" x2="530" y2="488.1674">
	<stop  offset="0" style="stop-color:#C8C8C8"/>
	<stop  offset="0.2651" style="stop-color:#C4C4C4"/>
	<stop  offset="0.5398" style="stop-color:#B7B7B7"/>
	<stop  offset="0.8179" style="stop-color:#A3A3A3"/>
	<stop  offset="1" style="stop-color:#919191"/>
</linearGradient>
<path fill="url(#SVGID_74_)" d="M544,488h-28v-17.979c0-1.116,0.905-2.021,2.021-2.021h23.958c1.116,0,2.021,0.905,2.021,2.021V488z
	"/>
<linearGradient id="SVGID_75_" gradientUnits="userSpaceOnUse" x1="550.25" y1="490" x2="509.25" y2="490">
	<stop  offset="0" style="stop-color:#353535"/>
	<stop  offset="1" style="stop-color:#797979"/>
</linearGradient>
<rect x="510" y="488" fill="url(#SVGID_75_)" width="40" height="4"/>
<linearGradient id="SVGID_76_" gradientUnits="userSpaceOnUse" x1="512" y1="481" x2="548" y2="481">
	<stop  offset="0" style="stop-color:#E5E5E5"/>
	<stop  offset="1" style="stop-color:#CECECE"/>
</linearGradient>
<path fill="url(#SVGID_76_)" d="M536,474h-12c-6.627,0-12,5.373-12,12v2h36v-2C548,479.373,542.628,474,536,474z"/>
<linearGradient id="SVGID_77_" gradientUnits="userSpaceOnUse" x1="506" y1="215.9167" x2="506" y2="219.959">
	<stop  offset="0" style="stop-color:#302926;stop-opacity:0"/>
	<stop  offset="1" style="stop-color:#000000;stop-opacity:0.15"/>
</linearGradient>
<rect x="464" y="216" fill="url(#SVGID_77_)" width="84" height="4"/>
<circle opacity="0.1" cx="506" cy="346" r="4"/>
<circle opacity="0.1" cx="506" cy="366" r="4"/>
<circle opacity="0.1" cx="506" cy="386" r="4"/>
<linearGradient id="SVGID_78_" gradientUnits="userSpaceOnUse" x1="482" y1="449.9167" x2="482" y2="454.25">
	<stop  offset="0" style="stop-color:#302926;stop-opacity:0"/>
	<stop  offset="1" style="stop-color:#000000;stop-opacity:0.15"/>
</linearGradient>
<rect x="466" y="450" fill="url(#SVGID_78_)" width="32" height="4"/>
<linearGradient id="SVGID_79_" gradientUnits="userSpaceOnUse" x1="530" y1="449.9167" x2="530" y2="454.25">
	<stop  offset="0" style="stop-color:#302926;stop-opacity:0"/>
	<stop  offset="1" style="stop-color:#000000;stop-opacity:0.15"/>
</linearGradient>
<rect x="514" y="450" fill="url(#SVGID_79_)" width="32" height="4"/>
<linearGradient id="SVGID_80_" gradientUnits="userSpaceOnUse" x1="482" y1="465.875" x2="482" y2="462.355">
	<stop  offset="0" style="stop-color:#302926;stop-opacity:0"/>
	<stop  offset="0.29" style="stop-color:#27211F;stop-opacity:0.029"/>
	<stop  offset="0.7616" style="stop-color:#0F0D0C;stop-opacity:0.0762"/>
	<stop  offset="1" style="stop-color:#000000;stop-opacity:0.1"/>
</linearGradient>
<rect x="472" y="462" fill="url(#SVGID_80_)" width="20" height="4"/>
<linearGradient id="SVGID_81_" gradientUnits="userSpaceOnUse" x1="530" y1="465.875" x2="530" y2="462.355">
	<stop  offset="0" style="stop-color:#302926;stop-opacity:0"/>
	<stop  offset="0.29" style="stop-color:#27211F;stop-opacity:0.029"/>
	<stop  offset="0.7616" style="stop-color:#0F0D0C;stop-opacity:0.0762"/>
	<stop  offset="1" style="stop-color:#000000;stop-opacity:0.1"/>
</linearGradient>
<rect x="520" y="462" fill="url(#SVGID_81_)" width="20" height="4"/>
<linearGradient id="SVGID_82_" gradientUnits="userSpaceOnUse" x1="458" y1="340.8333" x2="458" y2="401.5">
	<stop  offset="0" style="stop-color:#302926;stop-opacity:0"/>
	<stop  offset="1" style="stop-color:#000000;stop-opacity:0.5"/>
</linearGradient>
<rect x="450" y="342" fill="url(#SVGID_82_)" width="16" height="56"/>
<linearGradient id="SVGID_83_" gradientUnits="userSpaceOnUse" x1="554" y1="340.8333" x2="554" y2="401.5">
	<stop  offset="0" style="stop-color:#302926;stop-opacity:0"/>
	<stop  offset="1" style="stop-color:#000000;stop-opacity:0.5"/>
</linearGradient>
<rect x="546" y="342" fill="url(#SVGID_83_)" width="16" height="56"/>
<linearGradient id="SVGID_84_" gradientUnits="userSpaceOnUse" x1="288" y1="427.3333" x2="288" y2="322.8537">
	<stop  offset="0" style="stop-color:#FFFFED;stop-opacity:0"/>
	<stop  offset="0.5969" style="stop-color:#FFFFF6;stop-opacity:0.0597"/>
	<stop  offset="1" style="stop-color:#FFFFFF;stop-opacity:0.1"/>
</linearGradient>
<path fill="url(#SVGID_84_)" d="M302,426h-28c0-4.418-4-8-8-8v-86c4,0,8-3.582,8-8h28c0,4.418,4,8,8,8v86
	C306,418,302,421.582,302,426z"/>
<linearGradient id="SVGID_85_" gradientUnits="userSpaceOnUse" x1="368" y1="427.3333" x2="368" y2="322.8537">
	<stop  offset="0" style="stop-color:#FFFFED;stop-opacity:0"/>
	<stop  offset="0.5969" style="stop-color:#FFFFF6;stop-opacity:0.0597"/>
	<stop  offset="1" style="stop-color:#FFFFFF;stop-opacity:0.1"/>
</linearGradient>
<path fill="url(#SVGID_85_)" d="M382,426h-28c0-4.418-4-8-8-8v-86c4,0,8-3.582,8-8h28c0,4.418,4,8,8,8v86
	C386,418,382,421.582,382,426z"/>
<linearGradient id="SVGID_86_" gradientUnits="userSpaceOnUse" x1="328.0001" y1="124" x2="328.0001" y2="137">
	<stop  offset="0" style="stop-color:#000000;stop-opacity:0.1"/>
	<stop  offset="1" style="stop-color:#302926;stop-opacity:0"/>
</linearGradient>
<path fill="url(#SVGID_86_)" d="M340,136c0,0.34-0.02,0.68-0.04,1c-0.52-6.16-5.68-11-11.96-11s-11.44,4.84-11.96,11
	c-0.02-0.32-0.04-0.66-0.04-1c0-6.62,5.38-12,12-12S340,129.38,340,136z"/>
<path opacity="0.15" d="M268,304h-10.367c-0.827-2.325-3.024-4-5.633-4c-3.314,0-6,2.686-6,6s2.686,6,6,6
	c2.609,0,4.806-1.675,5.633-4H268c1.105,0,2-0.896,2-2C270,304.895,269.105,304,268,304z"/>
<linearGradient id="SVGID_87_" gradientUnits="userSpaceOnUse" x1="368" y1="287.75" x2="368" y2="185.4973">
	<stop  offset="0" style="stop-color:#FFFFED;stop-opacity:0"/>
	<stop  offset="0.5969" style="stop-color:#FFFFF6;stop-opacity:0.0597"/>
	<stop  offset="1" style="stop-color:#FFFFFF;stop-opacity:0.1"/>
</linearGradient>
<path fill="url(#SVGID_87_)" d="M382,288h-28c0-4.418-4-8-8-8v-86c4,0,8-3.582,8-8h28c0,4.418,4,8,8,8v86
	C386,280,382,283.582,382,288z"/>
<path fill="#E8E8E8" d="M617.192,446.427l1.215,3.921c0.184,0.595,0.65,1.061,1.245,1.245l3.921,1.215
	c0.35,0.108,0.35,0.604,0,0.713l-3.921,1.215c-0.595,0.184-1.061,0.65-1.245,1.245l-1.215,3.921c-0.109,0.35-0.604,0.35-0.713,0
	l-1.215-3.921c-0.184-0.595-0.65-1.061-1.245-1.245l-3.921-1.215c-0.35-0.108-0.35-0.604,0-0.713l3.921-1.215
	c0.595-0.184,1.061-0.65,1.245-1.245l1.215-3.921C616.587,446.077,617.083,446.077,617.192,446.427z"/>
<path fill="#E8E8E8" d="M169.192,366.427l1.215,3.921c0.184,0.595,0.65,1.061,1.245,1.245l3.921,1.215
	c0.35,0.108,0.35,0.604,0,0.713l-3.921,1.215c-0.595,0.184-1.061,0.65-1.245,1.245l-1.215,3.921c-0.108,0.35-0.604,0.35-0.713,0
	l-1.215-3.921c-0.184-0.595-0.65-1.061-1.245-1.245l-3.921-1.215c-0.35-0.108-0.35-0.604,0-0.713l3.921-1.215
	c0.595-0.184,1.061-0.65,1.245-1.245l1.215-3.921C168.587,366.077,169.083,366.077,169.192,366.427z"/>
<linearGradient id="SVGID_88_" gradientUnits="userSpaceOnUse" x1="386" y1="436.275" x2="386" y2="346.8983" gradientTransform="matrix(-1 0 0 1 590 0)">
	<stop  offset="0" style="stop-color:#0E77FF"/>
	<stop  offset="0.1316" style="stop-color:#218CFF"/>
	<stop  offset="0.3531" style="stop-color:#3BA9FF"/>
	<stop  offset="0.5735" style="stop-color:#4DBDFF"/>
	<stop  offset="0.7906" style="stop-color:#58CAFF"/>
	<stop  offset="1" style="stop-color:#5CCEFF"/>
</linearGradient>
<path fill="url(#SVGID_88_)" d="M204,348L204,348c6.627,0,12,5.373,12,12v76h-24v-76C192,353.373,197.373,348,204,348z"/>
<linearGradient id="SVGID_89_" gradientUnits="userSpaceOnUse" x1="190" y1="435.7" x2="190" y2="387.3404">
	<stop  offset="0" style="stop-color:#0E77FF"/>
	<stop  offset="0.1316" style="stop-color:#218CFF"/>
	<stop  offset="0.3531" style="stop-color:#3BA9FF"/>
	<stop  offset="0.5735" style="stop-color:#4DBDFF"/>
	<stop  offset="0.7906" style="stop-color:#58CAFF"/>
	<stop  offset="1" style="stop-color:#5CCEFF"/>
</linearGradient>
<path fill="url(#SVGID_89_)" d="M190,388L190,388c5.523,0,10,4.477,10,10v38h-20v-38C180,392.477,184.477,388,190,388z"/>
<linearGradient id="SVGID_90_" gradientUnits="userSpaceOnUse" x1="224" y1="367.7167" x2="224" y2="436.0846">
	<stop  offset="0" style="stop-color:#2EABFF"/>
	<stop  offset="0.2197" style="stop-color:#30A2FF"/>
	<stop  offset="0.5779" style="stop-color:#348AFF"/>
	<stop  offset="1" style="stop-color:#3B65FF"/>
</linearGradient>
<path fill="url(#SVGID_90_)" d="M224,368L224,368c4.418,0,8,3.582,8,8v60h-16v-60C216,371.582,219.582,368,224,368z"/>
<linearGradient id="SVGID_91_" gradientUnits="userSpaceOnUse" x1="202" y1="442.1667" x2="202" y2="446.0036">
	<stop  offset="0" style="stop-color:#000000;stop-opacity:0.07"/>
	<stop  offset="1" style="stop-color:#302926;stop-opacity:0"/>
</linearGradient>
<rect x="172" y="442" fill="url(#SVGID_91_)" width="60" height="4"/>
<linearGradient id="SVGID_92_" gradientUnits="userSpaceOnUse" x1="204" y1="436.25" x2="204" y2="431.8967">
	<stop  offset="0" style="stop-color:#000000;stop-opacity:0.05"/>
	<stop  offset="1" style="stop-color:#302926;stop-opacity:0"/>
</linearGradient>
<rect x="180" y="432" fill="url(#SVGID_92_)" width="48" height="4"/>
<linearGradient id="SVGID_93_" gradientUnits="userSpaceOnUse" x1="198.01" y1="386.8" x2="198.01" y2="436.5041">
	<stop  offset="0" style="stop-color:#000000;stop-opacity:0.1"/>
	<stop  offset="1" style="stop-color:#302926;stop-opacity:0"/>
</linearGradient>
<path fill="url(#SVGID_93_)" d="M204,398v38h-4v-38c0-4.84-3.44-8.86-7.98-9.8c0.64-0.14,1.3-0.2,1.98-0.2
	C199.52,388,204,392.48,204,398z"/>
<path opacity="0.3" fill="#AF4612" d="M432,426v2c0,1.105-0.895,2-2,2h-8c-1.105,0-2-0.895-2-2v-2H432z"/>
<path opacity="0.3" fill="#AF4612" d="M592,426v2c0,1.105-0.895,2-2,2h-8c-1.105,0-2-0.895-2-2v-2H592z"/>
<linearGradient id="SVGID_94_" gradientUnits="userSpaceOnUse" x1="426" y1="488.25" x2="426" y2="484.0254">
	<stop  offset="0" style="stop-color:#000000;stop-opacity:0.1"/>
	<stop  offset="1" style="stop-color:#302926;stop-opacity:0"/>
</linearGradient>
<rect x="422" y="484" fill="url(#SVGID_94_)" width="8" height="4"/>
<linearGradient id="SVGID_95_" gradientUnits="userSpaceOnUse" x1="586" y1="488.25" x2="586" y2="484.0254">
	<stop  offset="0" style="stop-color:#000000;stop-opacity:0.1"/>
	<stop  offset="1" style="stop-color:#302926;stop-opacity:0"/>
</linearGradient>
<rect x="582" y="484" fill="url(#SVGID_95_)" width="8" height="4"/>
<path opacity="0.3" fill="#AF4612" d="M432,492v-2c0-1.105-0.895-2-2-2h-8c-1.105,0-2,0.895-2,2v2H432z"/>
<path opacity="0.3" fill="#AF4612" d="M592,492v-2c0-1.105-0.895-2-2-2h-8c-1.105,0-2,0.895-2,2v2H592z"/>
<linearGradient id="SVGID_96_" gradientUnits="userSpaceOnUse" x1="576.0392" y1="356" x2="571.9306" y2="356">
	<stop  offset="0" style="stop-color:#000000;stop-opacity:0.07"/>
	<stop  offset="1" style="stop-color:#302926;stop-opacity:0"/>
</linearGradient>
<rect x="572" y="346" fill="url(#SVGID_96_)" width="4" height="20"/>
<linearGradient id="SVGID_97_" gradientUnits="userSpaceOnUse" x1="576.0392" y1="394" x2="571.9306" y2="394">
	<stop  offset="0" style="stop-color:#000000;stop-opacity:0.07"/>
	<stop  offset="1" style="stop-color:#302926;stop-opacity:0"/>
</linearGradient>
<rect x="572" y="384" fill="url(#SVGID_97_)" width="4" height="20"/>
<linearGradient id="SVGID_98_" gradientUnits="userSpaceOnUse" x1="370.0392" y1="356" x2="365.9306" y2="356" gradientTransform="matrix(-1 0 0 1 966 0)">
	<stop  offset="0" style="stop-color:#000000;stop-opacity:0.07"/>
	<stop  offset="1" style="stop-color:#302926;stop-opacity:0"/>
</linearGradient>
<polygon fill="url(#SVGID_98_)" points="600,366 596,366 596,346 600,346 "/>
<linearGradient id="SVGID_99_" gradientUnits="userSpaceOnUse" x1="370.0392" y1="394" x2="365.9306" y2="394" gradientTransform="matrix(-1 0 0 1 966 0)">
	<stop  offset="0" style="stop-color:#000000;stop-opacity:0.07"/>
	<stop  offset="1" style="stop-color:#302926;stop-opacity:0"/>
</linearGradient>
<polygon fill="url(#SVGID_99_)" points="600,404 596,404 596,384 600,384 "/>
<linearGradient id="SVGID_100_" gradientUnits="userSpaceOnUse" x1="416.0392" y1="356" x2="411.9306" y2="356">
	<stop  offset="0" style="stop-color:#000000;stop-opacity:0.07"/>
	<stop  offset="1" style="stop-color:#302926;stop-opacity:0"/>
</linearGradient>
<rect x="412" y="346" fill="url(#SVGID_100_)" width="4" height="20"/>
<linearGradient id="SVGID_101_" gradientUnits="userSpaceOnUse" x1="416.0392" y1="394" x2="411.9306" y2="394">
	<stop  offset="0" style="stop-color:#000000;stop-opacity:0.07"/>
	<stop  offset="1" style="stop-color:#302926;stop-opacity:0"/>
</linearGradient>
<rect x="412" y="384" fill="url(#SVGID_101_)" width="4" height="20"/>
<linearGradient id="SVGID_102_" gradientUnits="userSpaceOnUse" x1="530.0392" y1="356" x2="525.9306" y2="356" gradientTransform="matrix(-1 0 0 1 966 0)">
	<stop  offset="0" style="stop-color:#000000;stop-opacity:0.07"/>
	<stop  offset="1" style="stop-color:#302926;stop-opacity:0"/>
</linearGradient>
<polygon fill="url(#SVGID_102_)" points="440,366 436,366 436,346 440,346 "/>
<linearGradient id="SVGID_103_" gradientUnits="userSpaceOnUse" x1="530.0392" y1="394" x2="525.9306" y2="394" gradientTransform="matrix(-1 0 0 1 966 0)">
	<stop  offset="0" style="stop-color:#000000;stop-opacity:0.07"/>
	<stop  offset="1" style="stop-color:#302926;stop-opacity:0"/>
</linearGradient>
<polygon fill="url(#SVGID_103_)" points="440,404 436,404 436,384 440,384 "/>
<linearGradient id="SVGID_104_" gradientUnits="userSpaceOnUse" x1="190.0001" y1="312" x2="190.0001" y2="260">
	<stop  offset="0" style="stop-color:#55C2FF"/>
	<stop  offset="1" style="stop-color:#A6E9FF"/>
</linearGradient>
<path fill="url(#SVGID_104_)" d="M196,304h-8v-8h8c2.209,0,4-1.791,4-4c0-2.209-1.791-4-4-4h-8v-28h-8v48c0,2.209,1.791,4,4,4h4h4h4
	c2.209,0,4-1.791,4-4C200,305.791,198.209,304,196,304z"/>
<linearGradient id="SVGID_105_" gradientUnits="userSpaceOnUse" x1="184.0001" y1="268.6667" x2="184.0001" y2="227.3212">
	<stop  offset="0" style="stop-color:#55C2FF"/>
	<stop  offset="1" style="stop-color:#A6E9FF"/>
</linearGradient>
<circle fill="url(#SVGID_105_)" cx="184" cy="248" r="20"/>
<circle fill="#FFFFFF" cx="184" cy="248" r="12"/>
<linearGradient id="SVGID_106_" gradientUnits="userSpaceOnUse" x1="184" y1="267.6" x2="184" y2="272">
	<stop  offset="0" style="stop-color:#0000B8;stop-opacity:0.1"/>
	<stop  offset="1" style="stop-color:#3029BD;stop-opacity:0"/>
</linearGradient>
<path fill="url(#SVGID_106_)" d="M188,267.6v4.06c-2,0.22-2.64,0.34-4,0.34s-2-0.12-4-0.34v-4.06c2,0.26,2.62,0.4,4,0.4
	S186,267.86,188,267.6z"/>
</svg>
