<?xml version="1.0" encoding="iso-8859-1"?>
<!-- Generator: Adobe Illustrator 22.1.0, SVG Export Plug-In . SVG Version: 6.00 Build 0)  -->
<svg version="1.1" id="success" xmlns="http://www.w3.org/2000/svg" xmlns:xlink="http://www.w3.org/1999/xlink" x="0px" y="0px"
	 viewBox="0 0 800 600" enable-background="new 0 0 800 600" xml:space="preserve">
<linearGradient id="SVGID_1_" gradientUnits="userSpaceOnUse" x1="620.3326" y1="105.1148" x2="393.5717" y2="331.8757">
	<stop  offset="0" style="stop-color:#5FD4FF"/>
	<stop  offset="0.0384" style="stop-color:#71D9FF"/>
	<stop  offset="0.1292" style="stop-color:#97E3FF"/>
	<stop  offset="0.2275" style="stop-color:#B7ECFF"/>
	<stop  offset="0.3329" style="stop-color:#D1F3FF"/>
	<stop  offset="0.4483" style="stop-color:#E6F8FF"/>
	<stop  offset="0.5788" style="stop-color:#F4FCFF"/>
	<stop  offset="0.737" style="stop-color:#FCFEFF"/>
	<stop  offset="1" style="stop-color:#FFFFFF"/>
</linearGradient>
<path fill="url(#SVGID_1_)" d="M474.145,115.556L339.813,249.888l135.746,135.746l134.332-134.332
	c37.485-37.485,37.485-98.261,0-135.746C572.406,78.071,511.631,78.071,474.145,115.556z"/>
<path fill="#FFFFFF" d="M615.774,185.545c0,26.156-13.598,49.153-34.095,62.311c-7.219,4.639-15.278,8.039-23.897,9.939
	c-5.159,1.14-10.499,1.74-15.998,1.74c-25.257,0-47.573-12.658-60.912-31.996c-8.259-11.938-13.078-26.396-13.078-41.994
	c0-40.195,32.056-72.91,71.99-73.97c0.68-0.02,1.34-0.02,2-0.02c8.399,0,16.478,1.4,23.997,3.979
	c26.656,9.139,46.454,33.075,49.553,62.012C615.634,180.166,615.774,182.845,615.774,185.545z"/>
<linearGradient id="SVGID_2_" gradientUnits="userSpaceOnUse" x1="503.951" y1="230.5096" x2="503.951" y2="109.3433">
	<stop  offset="0" style="stop-color:#68D4FF"/>
	<stop  offset="1" style="stop-color:#7BE6FF"/>
</linearGradient>
<path fill="url(#SVGID_2_)" d="M504,181.545v13.998c0,3.313,2.475,6.456,5.789,6.456h9.999c3.313,0,6.213,2.229,6.213,5.542v13.998
	c0,3.313-2.899,6.46-6.213,6.46h-38.915c-8.259-12-12.971-26.627-12.971-42.225c0-40.195,32.098-73.141,72.098-74.2v19.977
	c0,3.313-2.901,6.448-6.215,6.448h-7.999c-3.313,0-5.787,2.237-5.787,5.551v25.996c0,3.313-2.899,6.453-6.212,6.453h-3.999
	C506.475,176,504,178.232,504,181.545z"/>
<linearGradient id="SVGID_3_" gradientUnits="userSpaceOnUse" x1="579.6672" y1="114.2143" x2="579.6672" y2="203.4636">
	<stop  offset="0" style="stop-color:#7BE6FF"/>
	<stop  offset="0.1172" style="stop-color:#64DEFF"/>
	<stop  offset="0.2563" style="stop-color:#51D8FF"/>
	<stop  offset="0.4182" style="stop-color:#43D3FF"/>
	<stop  offset="0.6218" style="stop-color:#3BD1FF"/>
	<stop  offset="1" style="stop-color:#39D0FF"/>
</linearGradient>
<path fill="url(#SVGID_3_)" d="M615.334,178h-9.559c-3.313,0-5.776,2.232-5.776,5.545v11.998c0,3.313-2.909,6.456-6.223,6.456
	h-25.996c-3.313,0-5.781-3.143-5.781-6.456v-19.997c0-3.313-2.904-5.546-6.218-5.546h-5.999c-3.313,0-5.783-3.139-5.783-6.452
	v-9.999c0-3.313,2.47-5.549,5.783-5.549h9.999c3.313,0,6.218-3.136,6.218-6.449v-26.016C592,124.673,612.235,150,615.334,178z"/>
<linearGradient id="SVGID_4_" gradientUnits="userSpaceOnUse" x1="561.8939" y1="216.0231" x2="561.8939" y2="256.6553">
	<stop  offset="0" style="stop-color:#7BE6FF"/>
	<stop  offset="0.1172" style="stop-color:#64DEFF"/>
	<stop  offset="0.2563" style="stop-color:#51D8FF"/>
	<stop  offset="0.4182" style="stop-color:#43D3FF"/>
	<stop  offset="0.6218" style="stop-color:#3BD1FF"/>
	<stop  offset="1" style="stop-color:#39D0FF"/>
</linearGradient>
<path fill="url(#SVGID_4_)" d="M558,257.795v-6.259c0-3.313-2.904-5.536-6.217-5.536h-3.999c-3.313,0-5.784-3.149-5.784-6.462
	V223.54c0-3.313,2.47-5.54,5.784-5.54h27.976c3.321,0,6.01,2.468,5.999,5.789l0.029,24.182C574.569,252.611,566,255.895,558,257.795
	z"/>
<linearGradient id="SVGID_5_" gradientUnits="userSpaceOnUse" x1="491.7912" y1="210.8748" x2="491.7912" y2="268.9282">
	<stop  offset="0" style="stop-color:#FFDD6C"/>
	<stop  offset="0.2603" style="stop-color:#FFDB68"/>
	<stop  offset="0.53" style="stop-color:#FFD55B"/>
	<stop  offset="0.8031" style="stop-color:#FFCA47"/>
	<stop  offset="1" style="stop-color:#FFC033"/>
</linearGradient>
<circle fill="url(#SVGID_5_)" cx="491.791" cy="239.538" r="27.996"/>
<path fill="#FF9627" d="M530.786,239.538c0,2.42-4.879,4.059-11.478,5.139c-8.519,1.4-19.917,1.86-27.516,1.86
	s-18.997-0.46-27.516-1.86c-6.599-1.08-11.478-2.72-11.478-5.139c0-2.42,4.879-4.06,11.478-5.139c-0.14,0.68-0.24,1.38-0.32,2.08
	c-5.919,1.02-9.019,2.2-9.159,3.06c0.14,0.86,3.24,2.04,9.159,3.06c6.239,1.08,15.598,1.94,27.836,1.94s21.597-0.86,27.836-1.94
	c5.899-1.02,8.999-2.2,9.159-3.06c-0.16-0.86-3.26-2.04-9.159-3.06c-0.08-0.7-0.18-1.4-0.32-2.08
	C525.906,235.478,530.786,237.118,530.786,239.538z"/>
<linearGradient id="SVGID_6_" gradientUnits="userSpaceOnUse" x1="494.9507" y1="208.5418" x2="494.9507" y2="262.2676">
	<stop  offset="0" style="stop-color:#E96F00;stop-opacity:0"/>
	<stop  offset="0.5148" style="stop-color:#F26C00;stop-opacity:0.1287"/>
	<stop  offset="1" style="stop-color:#FF6800;stop-opacity:0.25"/>
</linearGradient>
<path fill="url(#SVGID_6_)" d="M519.787,239.538c0,8.759-4.019,16.558-10.319,21.677c3.959-4.819,6.319-10.978,6.319-17.678
	c0-15.458-12.538-27.996-27.996-27.996c-6.699,0-12.858,2.36-17.678,6.319c5.119-6.299,12.918-10.319,21.677-10.319
	C507.249,211.541,519.787,224.08,519.787,239.538z"/>
<linearGradient id="SVGID_7_" gradientUnits="userSpaceOnUse" x1="550.6832" y1="101.5564" x2="550.6832" y2="260.8842">
	<stop  offset="0" style="stop-color:#30295D;stop-opacity:0"/>
	<stop  offset="0.1857" style="stop-color:#2B2B66;stop-opacity:0.0279"/>
	<stop  offset="0.4884" style="stop-color:#1E307E;stop-opacity:0.0733"/>
	<stop  offset="0.8684" style="stop-color:#0838A6;stop-opacity:0.1303"/>
	<stop  offset="1" style="stop-color:#003BB5;stop-opacity:0.15"/>
</linearGradient>
<path fill="url(#SVGID_7_)" d="M615.774,185.545c0,22.457-10.019,42.574-25.816,56.152c11.098-12.938,17.818-29.776,17.818-48.153
	c0-2.7-0.14-5.379-0.44-7.999c-3.1-28.936-22.897-52.873-49.553-62.012c-7.519-2.58-15.598-3.979-23.997-3.979
	c-0.66,0-1.32,0-2,0.02c-17.618,0.48-33.715,7.099-46.194,17.858c13.158-15.378,32.515-25.277,54.193-25.856
	c0.68-0.02,1.34-0.02,2-0.02c8.399,0,16.478,1.4,23.997,3.979c26.656,9.139,46.454,33.075,49.553,62.012
	C615.634,180.166,615.774,182.845,615.774,185.545z"/>
<linearGradient id="SVGID_8_" gradientUnits="userSpaceOnUse" x1="361.8088" y1="330.0699" x2="361.8088" y2="508.2157">
	<stop  offset="0" style="stop-color:#FFDC2E"/>
	<stop  offset="0.0147" style="stop-color:#FFDD34"/>
	<stop  offset="0.1575" style="stop-color:#FFE669"/>
	<stop  offset="0.302" style="stop-color:#FFEE97"/>
	<stop  offset="0.4454" style="stop-color:#FFF4BD"/>
	<stop  offset="0.5876" style="stop-color:#FFF9DA"/>
	<stop  offset="0.7282" style="stop-color:#FFFCEE"/>
	<stop  offset="0.8666" style="stop-color:#FFFEFB"/>
	<stop  offset="1" style="stop-color:#FFFFFF"/>
</linearGradient>
<path fill="url(#SVGID_8_)" d="M189.832,506c0-94,76.997-171.977,171.977-171.977S533.785,412,533.785,506H189.832z"/>
<linearGradient id="SVGID_9_" gradientUnits="userSpaceOnUse" x1="164" y1="510" x2="648" y2="510">
	<stop  offset="0" style="stop-color:#EDEDED"/>
	<stop  offset="1" style="stop-color:#DDDDDD"/>
</linearGradient>
<rect x="164" y="506" fill="url(#SVGID_9_)" width="484" height="8"/>
<linearGradient id="SVGID_10_" gradientUnits="userSpaceOnUse" x1="362" y1="144.2102" x2="362" y2="235.7494">
	<stop  offset="0" style="stop-color:#50D6FF"/>
	<stop  offset="0.1119" style="stop-color:#59D8FF"/>
	<stop  offset="0.2946" style="stop-color:#71DEFF"/>
	<stop  offset="0.5252" style="stop-color:#99E7FF"/>
	<stop  offset="0.7919" style="stop-color:#D0F4FF"/>
	<stop  offset="1" style="stop-color:#FFFFFF"/>
</linearGradient>
<path fill="url(#SVGID_10_)" d="M361.9,145.55h0.054c32.028,0,58.046,25.964,58.046,57.992V234H304v-30.458
	C304,171.514,329.872,145.55,361.9,145.55z"/>
<linearGradient id="SVGID_11_" gradientUnits="userSpaceOnUse" x1="334" y1="452.6852" x2="334" y2="333.8531">
	<stop  offset="0" style="stop-color:#F0F0F0"/>
	<stop  offset="0.2791" style="stop-color:#EAEAEA"/>
	<stop  offset="0.6434" style="stop-color:#DADADA"/>
	<stop  offset="1" style="stop-color:#C3C3C3"/>
</linearGradient>
<rect x="316" y="334" fill="url(#SVGID_11_)" width="36" height="116"/>
<linearGradient id="SVGID_12_" gradientUnits="userSpaceOnUse" x1="300" y1="238" x2="424" y2="238">
	<stop  offset="0" style="stop-color:#F0F0F0"/>
	<stop  offset="0.3335" style="stop-color:#EDEDED"/>
	<stop  offset="0.6012" style="stop-color:#E3E3E3"/>
	<stop  offset="0.8453" style="stop-color:#D2D2D2"/>
	<stop  offset="1" style="stop-color:#C3C3C3"/>
</linearGradient>
<path fill="url(#SVGID_12_)" d="M424,240c0,1.104-0.895,2-2,2H302c-1.104,0-2-0.895-2-2V236c0-1.104,0.895-2,2-2H422
	c1.104,0,2,0.895,2,2V240z"/>
<linearGradient id="SVGID_13_" gradientUnits="userSpaceOnUse" x1="362" y1="241.3333" x2="362" y2="449.3333">
	<stop  offset="0" style="stop-color:#FBFBFB"/>
	<stop  offset="0.3899" style="stop-color:#F7F7F7"/>
	<stop  offset="0.7931" style="stop-color:#EAEAEA"/>
	<stop  offset="1" style="stop-color:#E1E1E1"/>
</linearGradient>
<path fill="url(#SVGID_13_)" d="M316,242v103.523C316,363.194,330.14,378,347.811,378h19.997c2.209,0,4.192,1.309,4.192,3.518V450
	h36V242H316z"/>
<linearGradient id="SVGID_14_" gradientUnits="userSpaceOnUse" x1="370" y1="476" x2="444" y2="476">
	<stop  offset="0" style="stop-color:#B5B5B5"/>
	<stop  offset="1" style="stop-color:#919191"/>
</linearGradient>
<path fill="url(#SVGID_14_)" d="M410,476.831v-29.326c0-1.102-1.091-1.505-2.193-1.505h-36.003c-1.102,0-1.804,0.403-1.804,1.505
	V506h74v-10.234c0-5.905-4.408-10.927-10.243-11.828l-20.421-3.161C411.388,480.477,410,478.801,410,476.831z"/>
<linearGradient id="SVGID_15_" gradientUnits="userSpaceOnUse" x1="368" y1="504" x2="446" y2="504">
	<stop  offset="0" style="stop-color:#3A3C3D"/>
	<stop  offset="0.1553" style="stop-color:#3F4143"/>
	<stop  offset="0.5848" style="stop-color:#484C50"/>
	<stop  offset="1" style="stop-color:#4B4F54"/>
</linearGradient>
<path fill="url(#SVGID_15_)" d="M446,504c0,1.104-0.895,2-2,2H370c-1.104,0-2-0.895-2-2V504c0-1.104,0.895-2,2-2H444
	C445.105,502,446,502.895,446,504L446,504z"/>
<linearGradient id="SVGID_16_" gradientUnits="userSpaceOnUse" x1="396" y1="460" x2="412" y2="460">
	<stop  offset="0" style="stop-color:#73767A"/>
	<stop  offset="0.0417" style="stop-color:#727579"/>
	<stop  offset="0.529" style="stop-color:#65686C"/>
	<stop  offset="1" style="stop-color:#616468"/>
</linearGradient>
<path fill="url(#SVGID_16_)" d="M412,460c0,1.104-0.895,2-2,2H398c-1.104,0-2-0.895-2-2V460c0-1.104,0.895-2,2-2H410
	C411.105,458,412,458.895,412,460L412,460z"/>
<linearGradient id="SVGID_17_" gradientUnits="userSpaceOnUse" x1="396" y1="468" x2="412" y2="468">
	<stop  offset="0" style="stop-color:#73767A"/>
	<stop  offset="0.0417" style="stop-color:#727579"/>
	<stop  offset="0.529" style="stop-color:#65686C"/>
	<stop  offset="1" style="stop-color:#616468"/>
</linearGradient>
<path fill="url(#SVGID_17_)" d="M412,468c0,1.104-0.895,2-2,2H398c-1.104,0-2-0.895-2-2V468c0-1.104,0.895-2,2-2H410
	C411.105,466,412,466.895,412,468L412,468z"/>
<linearGradient id="SVGID_18_" gradientUnits="userSpaceOnUse" x1="376" y1="502.125" x2="376" y2="489.8648">
	<stop  offset="0" style="stop-color:#302926;stop-opacity:0"/>
	<stop  offset="0.29" style="stop-color:#27211F;stop-opacity:0.0348"/>
	<stop  offset="0.7616" style="stop-color:#0F0D0C;stop-opacity:0.0914"/>
	<stop  offset="1" style="stop-color:#000000;stop-opacity:0.12"/>
</linearGradient>
<path fill="url(#SVGID_18_)" d="M382,502h-12v-12h3.807c4.418,0,8.193,3.085,8.193,7.503V502z"/>
<linearGradient id="SVGID_19_" gradientUnits="userSpaceOnUse" x1="385" y1="241.1667" x2="385" y2="323.0073">
	<stop  offset="0" style="stop-color:#FFFFFF;stop-opacity:0"/>
	<stop  offset="0.1205" style="stop-color:#FBFBFB;stop-opacity:0.012"/>
	<stop  offset="0.2454" style="stop-color:#EEEEEE;stop-opacity:0.0245"/>
	<stop  offset="0.3724" style="stop-color:#DADADA;stop-opacity:0.0372"/>
	<stop  offset="0.5008" style="stop-color:#BCBCBC;stop-opacity:0.0501"/>
	<stop  offset="0.6304" style="stop-color:#979797;stop-opacity:0.063"/>
	<stop  offset="0.761" style="stop-color:#696969;stop-opacity:0.0761"/>
	<stop  offset="0.8898" style="stop-color:#343434;stop-opacity:0.089"/>
	<stop  offset="1" style="stop-color:#000000;stop-opacity:0.1"/>
</linearGradient>
<path fill="url(#SVGID_19_)" d="M408,242v80h-46v-60h35.804c1.1,0,2.196-1.365,2.196-2.465v-7.999c0-1.1-1.096-1.536-2.196-1.536
	H362v-8H408z"/>
<linearGradient id="SVGID_20_" gradientUnits="userSpaceOnUse" x1="280" y1="476" x2="354" y2="476">
	<stop  offset="0" style="stop-color:#B5B5B5"/>
	<stop  offset="1" style="stop-color:#919191"/>
</linearGradient>
<path fill="url(#SVGID_20_)" d="M314,476.831v-29.326c0-1.102,0.709-1.505,1.811-1.505h36.003c1.102,0,2.186,0.403,2.186,1.505V506
	h-74v-10.234c0-5.905,4.216-10.927,10.052-11.828l20.517-3.161C312.516,480.477,314,478.801,314,476.831z"/>
<linearGradient id="SVGID_21_" gradientUnits="userSpaceOnUse" x1="278" y1="504" x2="356" y2="504">
	<stop  offset="0" style="stop-color:#3A3C3D"/>
	<stop  offset="0.1553" style="stop-color:#3F4143"/>
	<stop  offset="0.5848" style="stop-color:#484C50"/>
	<stop  offset="1" style="stop-color:#4B4F54"/>
</linearGradient>
<path fill="url(#SVGID_21_)" d="M356,504c0-1.104-0.895-2-2-2H280c-1.104,0-2,0.895-2,2V504c0,1.104,0.895,2,2,2H354
	C355.105,506,356,505.105,356,504L356,504z"/>
<linearGradient id="SVGID_22_" gradientUnits="userSpaceOnUse" x1="312" y1="460" x2="328" y2="460">
	<stop  offset="0" style="stop-color:#73767A"/>
	<stop  offset="0.0417" style="stop-color:#727579"/>
	<stop  offset="0.529" style="stop-color:#65686C"/>
	<stop  offset="1" style="stop-color:#616468"/>
</linearGradient>
<path fill="url(#SVGID_22_)" d="M328,460c0-1.104-0.895-2-2-2H314c-1.104,0-2,0.895-2,2V460c0,1.104,0.895,2,2,2H326
	C327.105,462,328,461.105,328,460L328,460z"/>
<linearGradient id="SVGID_23_" gradientUnits="userSpaceOnUse" x1="312" y1="468" x2="328" y2="468">
	<stop  offset="0" style="stop-color:#73767A"/>
	<stop  offset="0.0417" style="stop-color:#727579"/>
	<stop  offset="0.529" style="stop-color:#65686C"/>
	<stop  offset="1" style="stop-color:#616468"/>
</linearGradient>
<path fill="url(#SVGID_23_)" d="M328,468c0-1.104-0.895-2-2-2H314c-1.104,0-2,0.895-2,2V468c0,1.104,0.895,2,2,2H326
	C327.105,470,328,469.105,328,468L328,468z"/>
<linearGradient id="SVGID_24_" gradientUnits="userSpaceOnUse" x1="348" y1="502.125" x2="348" y2="489.8648">
	<stop  offset="0" style="stop-color:#302926;stop-opacity:0"/>
	<stop  offset="0.29" style="stop-color:#27211F;stop-opacity:0.0348"/>
	<stop  offset="0.7616" style="stop-color:#0F0D0C;stop-opacity:0.0914"/>
	<stop  offset="1" style="stop-color:#000000;stop-opacity:0.12"/>
</linearGradient>
<path fill="url(#SVGID_24_)" d="M342,502h12v-12h-4.19c-4.418,0-7.81,3.085-7.81,7.503V502z"/>
<linearGradient id="SVGID_25_" gradientUnits="userSpaceOnUse" x1="362" y1="249.875" x2="362" y2="262.5099">
	<stop  offset="0" style="stop-color:#FBFBFB"/>
	<stop  offset="0.4556" style="stop-color:#F2F2F2"/>
	<stop  offset="1" style="stop-color:#E1E1E1"/>
</linearGradient>
<path fill="url(#SVGID_25_)" d="M400,260c0,1.104-0.895,2-2,2H326c-1.104,0-2-0.895-2-2V252c0-1.104,0.895-2,2-2H398
	c1.104,0,2,0.895,2,2V260z"/>
<linearGradient id="SVGID_26_" gradientUnits="userSpaceOnUse" x1="418" y1="243.993" x2="418" y2="389.0669">
	<stop  offset="0" style="stop-color:#F0F0F0"/>
	<stop  offset="0.3335" style="stop-color:#EDEDED"/>
	<stop  offset="0.6012" style="stop-color:#E3E3E3"/>
	<stop  offset="0.8453" style="stop-color:#D2D2D2"/>
	<stop  offset="1" style="stop-color:#C3C3C3"/>
</linearGradient>
<path fill="url(#SVGID_26_)" d="M428,253.536v129.982c0,2.2-1.8,3.999-4,3.999s-4-1.8-4-3.999V365.52c0-1.1-0.9-2-2-2s-2,0.9-2,2
	v7.999c0,1.48-0.899,2.76-2.099,3.459c-0.58,0.34-1.231,0.54-1.951,0.54c-2.2,0-3.95-1.8-3.95-3.999V242h7.802
	C422.421,242,428,246.917,428,253.536z"/>
<linearGradient id="SVGID_27_" gradientUnits="userSpaceOnUse" x1="306" y1="241" x2="306" y2="311.7518">
	<stop  offset="0" style="stop-color:#F0F0F0"/>
	<stop  offset="0.528" style="stop-color:#EEEEEE"/>
	<stop  offset="0.7181" style="stop-color:#E7E7E7"/>
	<stop  offset="0.8537" style="stop-color:#DCDCDC"/>
	<stop  offset="0.9626" style="stop-color:#CBCBCB"/>
	<stop  offset="1" style="stop-color:#C3C3C3"/>
</linearGradient>
<path fill="url(#SVGID_27_)" d="M307.816,242C301.19,242,296,246.909,296,253.536v19.997V312h20v-38.467V242H307.816z"/>
<linearGradient id="SVGID_28_" gradientUnits="userSpaceOnUse" x1="428" y1="284.5" x2="428" y2="302.507">
	<stop  offset="0" style="stop-color:#B5B5B5"/>
	<stop  offset="1" style="stop-color:#919191"/>
</linearGradient>
<path fill="url(#SVGID_28_)" d="M430,288c0-1.104-0.895-2-2-2H428c-1.104,0-2,0.895-2,2V300c0,1.104,0.895,2,2,2H428
	c1.104,0,2-0.895,2-2V288z"/>
<linearGradient id="SVGID_29_" gradientUnits="userSpaceOnUse" x1="396" y1="281" x2="396" y2="300.25" gradientTransform="matrix(-1 0 0 1 692 4)">
	<stop  offset="0" style="stop-color:#B5B5B5"/>
	<stop  offset="1" style="stop-color:#919191"/>
</linearGradient>
<path fill="url(#SVGID_29_)" d="M298,300c0,1.104-0.895,2-2,2H296c-1.104,0-2-0.895-2-2V288c0-1.104,0.895-2,2-2H296
	c1.104,0,2,0.895,2,2V300z"/>
<linearGradient id="SVGID_30_" gradientUnits="userSpaceOnUse" x1="318.9069" y1="396.8333" x2="318.9069" y2="418.6673">
	<stop  offset="0" style="stop-color:#E1E1E1"/>
	<stop  offset="0.4581" style="stop-color:#DDDDDD"/>
	<stop  offset="0.932" style="stop-color:#D0D0D0"/>
	<stop  offset="1" style="stop-color:#CECECE"/>
</linearGradient>
<path fill="url(#SVGID_30_)" d="M325.814,407.757c0-5.522-4.477-9.757-9.999-9.757h-2c-1.104,0-1.815,0.411-1.815,1.516v15.998
	c0,1.104,0.711,2.486,1.815,2.486h2c5.522,0,9.999-4.599,9.999-10.121V407.757z"/>
<linearGradient id="SVGID_31_" gradientUnits="userSpaceOnUse" x1="404.902" y1="398.5" x2="404.902" y2="418.0064">
	<stop  offset="0" style="stop-color:#E1E1E1"/>
	<stop  offset="0.4581" style="stop-color:#DDDDDD"/>
	<stop  offset="0.932" style="stop-color:#D0D0D0"/>
	<stop  offset="1" style="stop-color:#CECECE"/>
</linearGradient>
<path fill="url(#SVGID_31_)" d="M412,399.516c0-1.104-1.093-1.516-2.198-1.516h-2c-5.522,0-9.999,4.235-9.999,9.757v0.122
	c0,5.522,4.477,10.121,9.999,10.121h2c1.104,0,2.198-1.382,2.198-2.486V399.516z"/>
<linearGradient id="SVGID_32_" gradientUnits="userSpaceOnUse" x1="235.73" y1="318" x2="313.8345" y2="318">
	<stop  offset="0" style="stop-color:#E6E6E6"/>
	<stop  offset="0.5553" style="stop-color:#E4E4E4"/>
	<stop  offset="0.7554" style="stop-color:#DDDDDD"/>
	<stop  offset="0.8974" style="stop-color:#D2D2D2"/>
	<stop  offset="1" style="stop-color:#C3C3C3"/>
</linearGradient>
<path fill="url(#SVGID_32_)" d="M265.868,312l-3.761-3.762c-2.714-2.713-6.394-4.238-10.231-4.238h-8.051
	c-2.209,0-3.999,1.791-3.999,4s1.791,4,3.999,4H254v20h49.817c6.627,0,12.183-5.847,12.183-12.474V312H265.868z"/>
<linearGradient id="SVGID_33_" gradientUnits="userSpaceOnUse" x1="408" y1="274" x2="432" y2="274">
	<stop  offset="0" style="stop-color:#55C2FF"/>
	<stop  offset="1" style="stop-color:#39D0FF"/>
</linearGradient>
<path fill="url(#SVGID_33_)" d="M429.8,270H408v8h21.8c1.104,0,2.2-1.363,2.2-2.467v-3.999C432,270.429,430.904,270,429.8,270z"/>
<linearGradient id="SVGID_34_" gradientUnits="userSpaceOnUse" x1="250" y1="504.6667" x2="250" y2="172.2145">
	<stop  offset="0" style="stop-color:#F0F0F0"/>
	<stop  offset="0.3335" style="stop-color:#EDEDED"/>
	<stop  offset="0.6012" style="stop-color:#E3E3E3"/>
	<stop  offset="0.8453" style="stop-color:#D2D2D2"/>
	<stop  offset="1" style="stop-color:#C3C3C3"/>
</linearGradient>
<path fill="url(#SVGID_34_)" d="M254,506h-8V174h5.753c1.169,0,2.247,0.494,2.247,1.663V506z"/>
<linearGradient id="SVGID_35_" gradientUnits="userSpaceOnUse" x1="252" y1="311.75" x2="252" y2="317.8801">
	<stop  offset="0" style="stop-color:#F5F5F5"/>
	<stop  offset="0.6827" style="stop-color:#ECECEC"/>
	<stop  offset="1" style="stop-color:#E6E6E6"/>
</linearGradient>
<path fill="url(#SVGID_35_)" d="M264,315c0-1.657-1.343-3-3-3H243c-1.657,0-3,1.343-3,3V315c0,1.657,1.343,3,3,3H261
	C262.657,318,264,316.657,264,315L264,315z"/>
<linearGradient id="SVGID_36_" gradientUnits="userSpaceOnUse" x1="251" y1="317.75" x2="251" y2="326.2509">
	<stop  offset="0" style="stop-color:#F5F5F5"/>
	<stop  offset="0.6827" style="stop-color:#ECECEC"/>
	<stop  offset="1" style="stop-color:#E6E6E6"/>
</linearGradient>
<path fill="url(#SVGID_36_)" d="M264,321.999c0-2.209-1.791-3.999-3.999-3.999h-18.001c-2.209,0-3.999,1.791-3.999,3.999v0.001
	c0,2.209,1.791,3.999,3.999,3.999h18.001c2.209,0,3.999-1.791,3.999-3.999V321.999z"/>
<linearGradient id="SVGID_37_" gradientUnits="userSpaceOnUse" x1="251" y1="326" x2="251" y2="331.7717">
	<stop  offset="0" style="stop-color:#F5F5F5"/>
	<stop  offset="0.6827" style="stop-color:#ECECEC"/>
	<stop  offset="1" style="stop-color:#E6E6E6"/>
</linearGradient>
<path fill="url(#SVGID_37_)" d="M260,329c0-1.657-1.343-3-3-3H245c-1.657,0-3,1.343-3,3V329c0,1.657,1.343,3,3,3H257
	C258.657,332,260,330.657,260,329L260,329z"/>
<linearGradient id="SVGID_38_" gradientUnits="userSpaceOnUse" x1="184.3121" y1="196.8421" x2="184.3121" y2="285.2632">
	<stop  offset="0" style="stop-color:#FFBD1A"/>
	<stop  offset="1" style="stop-color:#FF671A"/>
</linearGradient>
<path fill="url(#SVGID_38_)" d="M155.656,280H216v-80h-60.344c-2.45,0-3.884,2.53-2.478,4.536l21.446,30.473
	c1.954,2.787,1.954,6.442,0,9.229l-21.446,30.793C151.772,277.036,153.207,280,155.656,280z"/>
<linearGradient id="SVGID_39_" gradientUnits="userSpaceOnUse" x1="222" y1="171.8947" x2="222" y2="256.1069">
	<stop  offset="0" style="stop-color:#FFE552"/>
	<stop  offset="1" style="stop-color:#FF9627"/>
</linearGradient>
<path fill="url(#SVGID_39_)" d="M191.832,174h59.992c1.104,0,2.176,0.442,2.176,1.546V254h-64v-78.454
	C190,174.442,190.728,174,191.832,174z"/>
<polygon opacity="0.15" points="215.783,279.996 189.787,254 215.829,254 "/>
<linearGradient id="SVGID_40_" gradientUnits="userSpaceOnUse" x1="249.8241" y1="156.5489" x2="249.8241" y2="172.3463">
	<stop  offset="0" style="stop-color:#EDEDED"/>
	<stop  offset="1" style="stop-color:#DDDDDD"/>
</linearGradient>
<circle fill="url(#SVGID_40_)" cx="249.824" cy="165.548" r="7.999"/>
<linearGradient id="SVGID_41_" gradientUnits="userSpaceOnUse" x1="316.75" y1="274" x2="290.9406" y2="274">
	<stop  offset="0" style="stop-color:#55C2FF"/>
	<stop  offset="1" style="stop-color:#39D0FF"/>
</linearGradient>
<path fill="url(#SVGID_41_)" d="M293.818,270H316v8h-22.182c-1.104,0-1.818-1.363-1.818-2.467v-3.999
	C292,270.429,292.714,270,293.818,270z"/>
<circle fill="#FFFFFF" cx="379.806" cy="197.543" r="7.999"/>
<path fill="#3A3D42" d="M383.806,197.543c0,2.2-1.8,3.999-3.999,3.999s-3.999-1.8-3.999-3.999c0-2.2,1.8-3.999,3.999-3.999
	c0.42,0,0.82,0.06,1.18,0.18c-0.7,0.32-1.18,1.02-1.18,1.82c0,1.1,0.9,2,2,2c0.8,0,1.5-0.48,1.82-1.18
	C383.746,196.723,383.806,197.123,383.806,197.543z"/>
<circle fill="#FFFFFF" cx="343.811" cy="197.543" r="7.999"/>
<path fill="#3A3D42" d="M347.811,197.543c0,2.2-1.8,3.999-3.999,3.999c-2.2,0-3.999-1.8-3.999-3.999c0-2.2,1.8-3.999,3.999-3.999
	c0.42,0,0.82,0.06,1.18,0.18c-0.7,0.32-1.18,1.02-1.18,1.82c0,1.1,0.9,2,2,2c0.8,0,1.5-0.48,1.82-1.18
	C347.751,196.723,347.811,197.123,347.811,197.543z"/>
<path fill="#FFFFFF" d="M354.443,208c-0.343,0-0.635,0.064-0.608,0.406c0.324,4.12,3.77,7.249,7.974,7.249
	c4.204,0,7.651-3.071,7.974-7.192c0.027-0.342-0.265-0.463-0.608-0.463H354.443z"/>
<linearGradient id="SVGID_42_" gradientUnits="userSpaceOnUse" x1="338.8121" y1="180.6706" x2="338.8121" y2="154.5659">
	<stop  offset="0" style="stop-color:#FFFFED;stop-opacity:0"/>
	<stop  offset="0.4031" style="stop-color:#FFFFF6;stop-opacity:0.1612"/>
	<stop  offset="1" style="stop-color:#FFFFFF;stop-opacity:0.4"/>
</linearGradient>
<path fill="url(#SVGID_42_)" d="M329.814,169.438c-0.842,0-1.678-0.352-2.272-1.04c-1.082-1.254-0.943-3.148,0.311-4.231
	c5.609-4.84,12.035-8.36,19.102-10.463c1.589-0.468,3.258,0.432,3.73,2.019c0.473,1.588-0.432,3.257-2.019,3.73
	c-6.247,1.86-11.931,4.974-16.893,9.257C331.207,169.199,330.508,169.438,329.814,169.438z"/>
<linearGradient id="SVGID_43_" gradientUnits="userSpaceOnUse" x1="317.4455" y1="179.8014" x2="324.5706" y2="172.6762">
	<stop  offset="0" style="stop-color:#FFFFED;stop-opacity:0"/>
	<stop  offset="0.4031" style="stop-color:#FFFFF6;stop-opacity:0.1612"/>
	<stop  offset="1" style="stop-color:#FFFFFF;stop-opacity:0.4"/>
</linearGradient>
<path fill="url(#SVGID_43_)" d="M320.956,179.483c-0.57,0-1.147-0.162-1.658-0.502c-1.38-0.918-1.754-2.78-0.837-4.159
	c0.296-0.444,0.597-0.885,0.905-1.319c0.957-1.352,2.828-1.673,4.181-0.715c1.352,0.957,1.673,2.829,0.715,4.181
	c-0.273,0.388-0.543,0.779-0.806,1.175C322.879,179.014,321.927,179.483,320.956,179.483z"/>
<linearGradient id="SVGID_44_" gradientUnits="userSpaceOnUse" x1="388.9542" y1="236.0102" x2="388.9542" y2="145.2506">
	<stop  offset="0" style="stop-color:#30295D;stop-opacity:0"/>
	<stop  offset="0.3189" style="stop-color:#2F2A60;stop-opacity:0.0478"/>
	<stop  offset="0.5106" style="stop-color:#2A2B68;stop-opacity:0.0766"/>
	<stop  offset="0.6687" style="stop-color:#222E76;stop-opacity:0.1003"/>
	<stop  offset="0.8085" style="stop-color:#17328A;stop-opacity:0.1213"/>
	<stop  offset="0.9351" style="stop-color:#0938A4;stop-opacity:0.1403"/>
	<stop  offset="1" style="stop-color:#003BB5;stop-opacity:0.15"/>
</linearGradient>
<path fill="url(#SVGID_44_)" d="M420,203.542V234h-8v-30.458c0-30.696-23.916-55.792-54.092-57.832c1.32-0.12,2.71-0.16,4.049-0.16
	C393.994,145.55,420,171.507,420,203.542z"/>
<path fill="#FFFFFF" d="M214.4,225.702l-8.585-8.585c-0.781-0.781-0.781-2.047,0-2.828l0,0c0.781-0.781,2.047-0.781,2.828,0
	l7.141,7.141l19.2-20.02c0.764-0.797,2.03-0.823,2.827-0.059l0.001,0.001c0.797,0.764,0.823,2.03,0.059,2.827l-20.613,21.493
	C216.481,226.481,215.193,226.494,214.4,225.702z"/>
<linearGradient id="SVGID_45_" gradientUnits="userSpaceOnUse" x1="186" y1="227" x2="190" y2="227">
	<stop  offset="0" style="stop-color:#882E26;stop-opacity:0"/>
	<stop  offset="1" style="stop-color:#7C2200;stop-opacity:0.05"/>
</linearGradient>
<rect x="186" y="200" fill="url(#SVGID_45_)" width="4" height="54"/>
<linearGradient id="SVGID_46_" gradientUnits="userSpaceOnUse" x1="328" y1="256" x2="396" y2="256">
	<stop  offset="0" style="stop-color:#EA8D58"/>
	<stop  offset="0.232" style="stop-color:#EB8661"/>
	<stop  offset="0.6102" style="stop-color:#EF7379"/>
	<stop  offset="1" style="stop-color:#F45B99"/>
</linearGradient>
<path fill="url(#SVGID_46_)" d="M396,256c0,1.104-0.895,2-2,2H330c-1.104,0-2-0.895-2-2V256c0-1.104,0.895-2,2-2H394
	C395.105,254,396,254.895,396,256L396,256z"/>
<linearGradient id="SVGID_47_" gradientUnits="userSpaceOnUse" x1="414.0555" y1="309.7594" x2="407.9722" y2="309.7594">
	<stop  offset="0" style="stop-color:#000400;stop-opacity:0"/>
	<stop  offset="1" style="stop-color:#000000;stop-opacity:0.05"/>
</linearGradient>
<path fill="url(#SVGID_47_)" d="M414,242v134.979c0,0.34-1.28,0.54-2,0.54c-2.2,0-4-1.8-4-3.999V242H414z"/>
<linearGradient id="SVGID_48_" gradientUnits="userSpaceOnUse" x1="311.75" y1="277" x2="316.3856" y2="277">
	<stop  offset="0" style="stop-color:#000400;stop-opacity:0"/>
	<stop  offset="1" style="stop-color:#000000;stop-opacity:0.05"/>
</linearGradient>
<rect x="312" y="242" fill="url(#SVGID_48_)" width="4" height="70"/>
<linearGradient id="SVGID_49_" gradientUnits="userSpaceOnUse" x1="312" y1="328" x2="412" y2="328">
	<stop  offset="0" style="stop-color:#68D4FF"/>
	<stop  offset="1" style="stop-color:#4589FF"/>
</linearGradient>
<path fill="url(#SVGID_49_)" d="M412,332c0,1.104-0.895,2-2,2H314c-1.104,0-2-0.895-2-2V324c0-1.104,0.895-2,2-2H410
	c1.104,0,2,0.895,2,2V332z"/>
<linearGradient id="SVGID_50_" gradientUnits="userSpaceOnUse" x1="362" y1="317.75" x2="362" y2="338.8035">
	<stop  offset="0" style="stop-color:#2EABFF"/>
	<stop  offset="0.3432" style="stop-color:#2EA8FF"/>
	<stop  offset="0.5497" style="stop-color:#30A0FF"/>
	<stop  offset="0.7199" style="stop-color:#3392FF"/>
	<stop  offset="0.8695" style="stop-color:#367EFF"/>
	<stop  offset="1" style="stop-color:#3B65FF"/>
</linearGradient>
<path fill="url(#SVGID_50_)" d="M372,334.001c0,2.209-1.791,3.999-3.999,3.999h-12.001c-2.209,0-3.999-1.791-3.999-3.999v-12.001
	c0-2.209,1.791-3.999,3.999-3.999h12.001c2.209,0,3.999,1.791,3.999,3.999V334.001z"/>
<linearGradient id="SVGID_51_" gradientUnits="userSpaceOnUse" x1="316" y1="328" x2="352" y2="328">
	<stop  offset="0" style="stop-color:#30299A;stop-opacity:0"/>
	<stop  offset="0.29" style="stop-color:#272195;stop-opacity:0.0435"/>
	<stop  offset="0.7616" style="stop-color:#0F0D89;stop-opacity:0.1142"/>
	<stop  offset="1" style="stop-color:#000081;stop-opacity:0.15"/>
</linearGradient>
<rect x="316" y="326" fill="url(#SVGID_51_)" width="36" height="4"/>
<linearGradient id="SVGID_52_" gradientUnits="userSpaceOnUse" x1="408.3333" y1="328" x2="371.8329" y2="328">
	<stop  offset="0" style="stop-color:#30299A;stop-opacity:0"/>
	<stop  offset="0.29" style="stop-color:#272195;stop-opacity:0.0435"/>
	<stop  offset="0.7616" style="stop-color:#0F0D89;stop-opacity:0.1142"/>
	<stop  offset="1" style="stop-color:#000081;stop-opacity:0.15"/>
</linearGradient>
<rect x="372" y="326" fill="url(#SVGID_52_)" width="36" height="4"/>
<linearGradient id="SVGID_53_" gradientUnits="userSpaceOnUse" x1="362" y1="332.5" x2="362" y2="323.375">
	<stop  offset="0" style="stop-color:#30299A;stop-opacity:0.03"/>
	<stop  offset="0.29" style="stop-color:#272195;stop-opacity:0.0706"/>
	<stop  offset="0.7616" style="stop-color:#0F0D89;stop-opacity:0.1366"/>
	<stop  offset="1" style="stop-color:#000081;stop-opacity:0.17"/>
</linearGradient>
<path fill="url(#SVGID_53_)" d="M366,330c0,1.104-0.895,2-2,2H360c-1.104,0-2-0.895-2-2V326c0-1.104,0.895-2,2-2H364
	c1.104,0,2,0.895,2,2V330z"/>
<linearGradient id="SVGID_54_" gradientUnits="userSpaceOnUse" x1="306" y1="307.9167" x2="306" y2="312.174">
	<stop  offset="0" style="stop-color:#000400;stop-opacity:0"/>
	<stop  offset="1" style="stop-color:#000000;stop-opacity:0.03"/>
</linearGradient>
<rect x="296" y="308" fill="url(#SVGID_54_)" width="20" height="4"/>
<linearGradient id="SVGID_55_" gradientUnits="userSpaceOnUse" x1="334" y1="415.375" x2="334" y2="448.9116">
	<stop  offset="0" style="stop-color:#302926;stop-opacity:0"/>
	<stop  offset="0.29" style="stop-color:#27211F;stop-opacity:0.0435"/>
	<stop  offset="0.7616" style="stop-color:#0F0D0C;stop-opacity:0.1142"/>
	<stop  offset="1" style="stop-color:#000000;stop-opacity:0.15"/>
</linearGradient>
<rect x="316" y="418" fill="url(#SVGID_55_)" width="36" height="28"/>
<rect x="414" y="310" fill="#DBDBDB" width="16" height="2"/>
<linearGradient id="SVGID_56_" gradientUnits="userSpaceOnUse" x1="372.9035" y1="489.3889" x2="372.9035" y2="444.7696">
	<stop  offset="0" style="stop-color:#302926;stop-opacity:0"/>
	<stop  offset="0.29" style="stop-color:#27211F;stop-opacity:0.029"/>
	<stop  offset="0.7616" style="stop-color:#0F0D0C;stop-opacity:0.0762"/>
	<stop  offset="1" style="stop-color:#000000;stop-opacity:0.1"/>
</linearGradient>
<path fill="url(#SVGID_56_)" d="M375.807,446c-1.1,0-1.807,0.409-1.807,1.509V490h-4v-42.491c0-1.1,0.708-1.509,1.807-1.509H375.807
	z"/>
<linearGradient id="SVGID_57_" gradientUnits="userSpaceOnUse" x1="402.0946" y1="489.3889" x2="402.0946" y2="444.7696" gradientTransform="matrix(-1 0 0 1 753 0)">
	<stop  offset="0" style="stop-color:#302926;stop-opacity:0"/>
	<stop  offset="0.29" style="stop-color:#27211F;stop-opacity:0.029"/>
	<stop  offset="0.7616" style="stop-color:#0F0D0C;stop-opacity:0.0762"/>
	<stop  offset="1" style="stop-color:#000000;stop-opacity:0.1"/>
</linearGradient>
<path fill="url(#SVGID_57_)" d="M347.811,446c1.1,0,2.189,0.409,2.189,1.509V490h4v-42.491c0-1.1-1.09-1.509-2.19-1.509H347.811z"/>
<linearGradient id="SVGID_58_" gradientUnits="userSpaceOnUse" x1="250.544" y1="158.9885" x2="250.544" y2="173.5466">
	<stop  offset="0" style="stop-color:#000400;stop-opacity:0"/>
	<stop  offset="1" style="stop-color:#000000;stop-opacity:0.05"/>
</linearGradient>
<path fill="url(#SVGID_58_)" d="M257.823,165.548c0,4.419-3.579,7.999-7.999,7.999c-2.72,0-5.119-1.36-6.559-3.44
	c1.3,0.9,2.88,1.44,4.559,1.44c4.419,0,7.999-3.58,7.999-7.999c0-1.68-0.54-3.26-1.44-4.559
	C256.463,160.428,257.823,162.828,257.823,165.548z"/>
<linearGradient id="SVGID_59_" gradientUnits="userSpaceOnUse" x1="384.8057" y1="272.3873" x2="384.8057" y2="286.3854">
	<stop  offset="0" style="stop-color:#FFE057"/>
	<stop  offset="0.3317" style="stop-color:#FFD750"/>
	<stop  offset="0.8711" style="stop-color:#FFBF3E"/>
	<stop  offset="1" style="stop-color:#FFB839"/>
</linearGradient>
<path fill="url(#SVGID_59_)" d="M385.742,273.115l1.637,3.317c0.034,0.069,0.1,0.117,0.176,0.128l3.661,0.532
	c0.856,0.124,1.198,1.177,0.579,1.781l-2.649,2.582c-0.055,0.054-0.08,0.131-0.067,0.207l0.625,3.646
	c0.146,0.853-0.749,1.503-1.515,1.101l-3.274-1.721c-0.068-0.036-0.15-0.036-0.218,0l-3.274,1.721
	c-0.766,0.403-1.661-0.248-1.515-1.101l0.625-3.646c0.013-0.076-0.012-0.153-0.067-0.207l-2.649-2.582
	c-0.62-0.604-0.278-1.656,0.579-1.781l3.661-0.532c0.076-0.011,0.142-0.059,0.176-0.128l1.637-3.317
	C384.252,272.339,385.359,272.339,385.742,273.115z"/>
<linearGradient id="SVGID_60_" gradientUnits="userSpaceOnUse" x1="250" y1="258.1667" x2="250" y2="253.851">
	<stop  offset="0" style="stop-color:#000400;stop-opacity:0"/>
	<stop  offset="1" style="stop-color:#000000;stop-opacity:0.05"/>
</linearGradient>
<rect x="246" y="254" fill="url(#SVGID_60_)" width="8" height="4"/>
<linearGradient id="SVGID_61_" gradientUnits="userSpaceOnUse" x1="250" y1="501.8333" x2="250" y2="506.0833">
	<stop  offset="0" style="stop-color:#000400;stop-opacity:0"/>
	<stop  offset="1" style="stop-color:#000000;stop-opacity:0.05"/>
</linearGradient>
<rect x="246" y="502" fill="url(#SVGID_61_)" width="8" height="4"/>
<linearGradient id="SVGID_62_" gradientUnits="userSpaceOnUse" x1="490" y1="384.5571" x2="578" y2="384.5571">
	<stop  offset="0" style="stop-color:#F48851"/>
	<stop  offset="0.2084" style="stop-color:#F48457"/>
	<stop  offset="0.4812" style="stop-color:#F47A67"/>
	<stop  offset="0.7882" style="stop-color:#F46982"/>
	<stop  offset="1" style="stop-color:#F45B99"/>
</linearGradient>
<path fill="url(#SVGID_62_)" d="M573.78,470h-79.989c-2.209,0-3.791-2.284-3.791-4.493V390.03c0-23.719,7.458-46.821,21.485-65.948
	l15.836-21.665c3.229-4.403,9.778-4.403,13.007,0l15.985,21.665C570.34,343.209,578,366.311,578,390.03v75.477
	C578,467.716,575.989,470,573.78,470z"/>
<linearGradient id="SVGID_63_" gradientUnits="userSpaceOnUse" x1="534" y1="377" x2="534" y2="463.5004">
	<stop  offset="0" style="stop-color:#FFFFFF;stop-opacity:0"/>
	<stop  offset="1" style="stop-color:#FFFFFF;stop-opacity:0.15"/>
</linearGradient>
<path fill="url(#SVGID_63_)" d="M570,458.001c0,2.209-1.791,3.999-3.999,3.999h-64.001c-2.209,0-3.999-1.791-3.999-3.999v-76.001
	c0-2.209,1.791-3.999,3.999-3.999h64.001c2.209,0,3.999,1.791,3.999,3.999V458.001z"/>
<linearGradient id="SVGID_64_" gradientUnits="userSpaceOnUse" x1="533.7855" y1="395.5164" x2="533.7855" y2="445.0197">
	<stop  offset="0" style="stop-color:#2F0400;stop-opacity:0.05"/>
	<stop  offset="1" style="stop-color:#5B0000;stop-opacity:0.15"/>
</linearGradient>
<circle fill="url(#SVGID_64_)" cx="533.785" cy="419.513" r="23.997"/>
<linearGradient id="SVGID_65_" gradientUnits="userSpaceOnUse" x1="548.7834" y1="404.5152" x2="519.1706" y2="434.128">
	<stop  offset="0" style="stop-color:#50D6FF"/>
	<stop  offset="1" style="stop-color:#FFFFFF"/>
</linearGradient>
<circle fill="url(#SVGID_65_)" cx="533.785" cy="419.513" r="19.997"/>
<circle opacity="0.15" cx="563.781" cy="455.508" r="2"/>
<circle opacity="0.15" cx="503.79" cy="455.508" r="2"/>
<circle opacity="0.15" cx="563.781" cy="383.518" r="2"/>
<circle opacity="0.15" cx="503.79" cy="383.518" r="2"/>
<linearGradient id="SVGID_66_" gradientUnits="userSpaceOnUse" x1="574.4466" y1="474" x2="494.4575" y2="474">
	<stop  offset="0" style="stop-color:#3A3C3D"/>
	<stop  offset="0.1553" style="stop-color:#3F4143"/>
	<stop  offset="0.5848" style="stop-color:#484C50"/>
	<stop  offset="1" style="stop-color:#4B4F54"/>
</linearGradient>
<path fill="url(#SVGID_66_)" d="M573.78,470l-1,3.753l-0.24,1.104c-0.44,1.78-2.04,3.144-3.88,3.144H498.91
	c-1.84,0-3.439-1.487-3.879-3.267l-0.24-0.857l-1-3.876H573.78z"/>
<linearGradient id="SVGID_67_" gradientUnits="userSpaceOnUse" x1="533.7855" y1="476.5" x2="533.7855" y2="506.8498">
	<stop  offset="0" style="stop-color:#F5F5F5"/>
	<stop  offset="0.3538" style="stop-color:#F2F2F2"/>
	<stop  offset="0.638" style="stop-color:#E8E8E8"/>
	<stop  offset="0.8971" style="stop-color:#D7D7D7"/>
	<stop  offset="1" style="stop-color:#CECECE"/>
</linearGradient>
<path fill="url(#SVGID_67_)" d="M583.599,506c-0.94-6-5.879-10.248-11.818-10.248c-2.534,0-4.871,0.654-6.795,1.986
	c-0.577,0.399-1.355,0.042-1.525-0.639c-1.08-4.336-5.012-7.564-9.678-7.564c-2.414,0-4.534,0.851-6.266,2.284
	c-0.649,0.537-1.516,0.05-1.516-0.792v-9.522c0-2.2,1.584-3.505,3.783-3.505h-31.996c2.2,0,4.212,1.305,4.212,3.505v9.522
	c0,0.842-1.082,1.313-1.731,0.776c-1.733-1.433-4.013-2.299-6.428-2.299c-4.666,0-8.624,3.197-9.705,7.533
	c-0.17,0.681-0.961,0.976-1.538,0.577c-1.924-1.332-4.267-1.862-6.801-1.862c-5.939,0-10.885,4.248-11.825,10.248H583.599z"/>
<linearGradient id="SVGID_68_" gradientUnits="userSpaceOnUse" x1="516.4128" y1="429.8867" x2="544.225" y2="402.0745">
	<stop  offset="0" style="stop-color:#FFFFED;stop-opacity:0"/>
	<stop  offset="0.4031" style="stop-color:#FFFFF6;stop-opacity:0.1209"/>
	<stop  offset="1" style="stop-color:#FFFFFF;stop-opacity:0.3"/>
</linearGradient>
<path fill="url(#SVGID_68_)" d="M546.884,404.415l-28.196,28.196c-1.6-1.84-2.86-3.959-3.7-6.299l25.597-25.596
	C542.924,401.555,545.044,402.815,546.884,404.415z"/>
<linearGradient id="SVGID_69_" gradientUnits="userSpaceOnUse" x1="525.9115" y1="439.3854" x2="553.7237" y2="411.5732">
	<stop  offset="0" style="stop-color:#FFFFED;stop-opacity:0"/>
	<stop  offset="0.4031" style="stop-color:#FFFFF6;stop-opacity:0.1209"/>
	<stop  offset="1" style="stop-color:#FFFFFF;stop-opacity:0.3"/>
</linearGradient>
<path fill="url(#SVGID_69_)" d="M553.783,419.513l-19.997,19.997c-4.499,0-8.659-1.5-11.998-3.999l27.996-27.996
	C552.283,410.854,553.783,415.014,553.783,419.513z"/>
<linearGradient id="SVGID_70_" gradientUnits="userSpaceOnUse" x1="507.3428" y1="420.8167" x2="535.155" y2="393.0045">
	<stop  offset="0" style="stop-color:#FFFFED;stop-opacity:0"/>
	<stop  offset="0.4031" style="stop-color:#FFFFF6;stop-opacity:0.1209"/>
	<stop  offset="1" style="stop-color:#FFFFFF;stop-opacity:0.3"/>
</linearGradient>
<path fill="url(#SVGID_70_)" d="M531.686,399.616l-17.798,17.798C514.868,408.055,522.327,400.596,531.686,399.616z"/>
<linearGradient id="SVGID_71_" gradientUnits="userSpaceOnUse" x1="477" y1="395.4748" x2="477" y2="482.0587">
	<stop  offset="0" style="stop-color:#FFDD6C"/>
	<stop  offset="0.2603" style="stop-color:#FFDB68"/>
	<stop  offset="0.53" style="stop-color:#FFD55B"/>
	<stop  offset="0.8031" style="stop-color:#FFCA47"/>
	<stop  offset="1" style="stop-color:#FFC033"/>
</linearGradient>
<path fill="url(#SVGID_71_)" d="M468.736,481.863L490,465.507v-73.99l-22.849,17.575c-1.986,1.528-3.151,3.891-3.151,6.396v64.044
	C464,481.972,466.802,483.35,468.736,481.863z"/>
<linearGradient id="SVGID_72_" gradientUnits="userSpaceOnUse" x1="477" y1="403.182" x2="477" y2="473.8673">
	<stop  offset="0" style="stop-color:#E96F00;stop-opacity:0"/>
	<stop  offset="0.4248" style="stop-color:#ED6E00;stop-opacity:0.085"/>
	<stop  offset="0.8643" style="stop-color:#FA6A00;stop-opacity:0.1729"/>
	<stop  offset="1" style="stop-color:#FF6800;stop-opacity:0.2"/>
</linearGradient>
<path fill="url(#SVGID_72_)" d="M486,399.516l-17.202,13.379c-0.503,0.391-0.798,0.992-0.798,1.629v60.875
	c0,0.858,0.883,1.34,1.56,0.813l15.59-12.085c0.503-0.391,0.849-0.992,0.849-1.629V399.516z"/>
<linearGradient id="SVGID_73_" gradientUnits="userSpaceOnUse" x1="477" y1="432.9035" x2="477" y2="477.2349">
	<stop  offset="0" style="stop-color:#E96F00;stop-opacity:0"/>
	<stop  offset="0.4248" style="stop-color:#ED6E00;stop-opacity:0.0637"/>
	<stop  offset="0.8643" style="stop-color:#FA6A00;stop-opacity:0.1296"/>
	<stop  offset="1" style="stop-color:#FF6800;stop-opacity:0.15"/>
</linearGradient>
<path fill="url(#SVGID_73_)" d="M486,435.511v26.956c0,0.656-0.407,1.276-0.925,1.679l-15.46,12.064
	c-0.678,0.527-1.615,0.044-1.615-0.815v-25.886L486,435.511z"/>
<linearGradient id="SVGID_74_" gradientUnits="userSpaceOnUse" x1="591" y1="393.4958" x2="591" y2="481.1767">
	<stop  offset="0" style="stop-color:#FFDD6C"/>
	<stop  offset="0.2603" style="stop-color:#FFDB68"/>
	<stop  offset="0.53" style="stop-color:#FFD55B"/>
	<stop  offset="0.8031" style="stop-color:#FFCA47"/>
	<stop  offset="1" style="stop-color:#FFC033"/>
</linearGradient>
<path fill="url(#SVGID_74_)" d="M599.264,481.863L578,465.507v-73.99l22.849,17.575c1.986,1.528,3.151,3.891,3.151,6.396v64.044
	C604,481.972,601.198,483.35,599.264,481.863z"/>
<linearGradient id="SVGID_75_" gradientUnits="userSpaceOnUse" x1="356" y1="403.182" x2="356" y2="473.8673" gradientTransform="matrix(-1 0 0 1 947 0)">
	<stop  offset="0" style="stop-color:#E96F00;stop-opacity:0"/>
	<stop  offset="0.4248" style="stop-color:#ED6E00;stop-opacity:0.085"/>
	<stop  offset="0.8643" style="stop-color:#FA6A00;stop-opacity:0.1729"/>
	<stop  offset="1" style="stop-color:#FF6800;stop-opacity:0.2"/>
</linearGradient>
<path fill="url(#SVGID_75_)" d="M582,399.516l17.202,13.379c0.503,0.391,0.798,0.992,0.798,1.629v60.875
	c0,0.858-1.098,1.34-1.775,0.813l-15.483-12.085c-0.503-0.391-0.742-0.992-0.742-1.629V399.516z"/>
<linearGradient id="SVGID_76_" gradientUnits="userSpaceOnUse" x1="356" y1="432.9035" x2="356" y2="477.2349" gradientTransform="matrix(-1 0 0 1 947 0)">
	<stop  offset="0" style="stop-color:#E96F00;stop-opacity:0"/>
	<stop  offset="0.4248" style="stop-color:#ED6E00;stop-opacity:0.0637"/>
	<stop  offset="0.8643" style="stop-color:#FA6A00;stop-opacity:0.1296"/>
	<stop  offset="1" style="stop-color:#FF6800;stop-opacity:0.15"/>
</linearGradient>
<path fill="url(#SVGID_76_)" d="M582,435.511v26.956c0,0.656,0.193,1.276,0.711,1.679l15.567,12.064
	c0.678,0.527,1.722,0.044,1.722-0.815v-25.886L582,435.511z"/>
<linearGradient id="SVGID_77_" gradientUnits="userSpaceOnUse" x1="579.3464" y1="379.2425" x2="531.6622" y2="297.4265">
	<stop  offset="0" style="stop-color:#000400;stop-opacity:0"/>
	<stop  offset="1" style="stop-color:#000000;stop-opacity:0.12"/>
</linearGradient>
<path fill="url(#SVGID_77_)" d="M577.08,378h-8.039c-2.24-20-9.379-37.636-20.857-53.253l-15.878-21.797c-0.8-1.08-1.8-1.96-2.9-2.5
	c3.44-2.22,8.259-1.59,10.898,1.99l15.878,21.903C567.741,340.079,574.9,358,577.08,378z"/>
<path opacity="0.1" d="M553.783,419.513c0,0.34,0,0.66-0.02,0.98c-0.54-10.579-9.279-18.977-19.977-18.977
	s-19.437,8.399-19.977,18.977c-0.02-0.32-0.02-0.64-0.02-0.98c0-11.039,8.959-19.997,19.997-19.997S553.783,408.475,553.783,419.513
	z"/>
<linearGradient id="SVGID_78_" gradientUnits="userSpaceOnUse" x1="491.6912" y1="364" x2="575.8797" y2="364">
	<stop  offset="0" style="stop-color:#FBFBFB"/>
	<stop  offset="0.3899" style="stop-color:#F7F7F7"/>
	<stop  offset="0.7931" style="stop-color:#EAEAEA"/>
	<stop  offset="1" style="stop-color:#E1E1E1"/>
</linearGradient>
<path fill="url(#SVGID_78_)" d="M575.88,370h-84.189c0.26-2,0.52-2.92,0.84-4.24c0.28-1.34,0.62-2.56,0.96-3.88
	c0.36-1.34,0.74-1.88,1.16-3.88h78.269c0.42,2,0.8,2.42,1.16,3.76c0.34,1.32,0.68,2.78,0.96,4.12
	C575.36,367.2,575.62,368,575.88,370z"/>
<linearGradient id="SVGID_79_" gradientUnits="userSpaceOnUse" x1="533.7855" y1="473.9445" x2="533.7855" y2="469.8882">
	<stop  offset="0" style="stop-color:#302926;stop-opacity:0"/>
	<stop  offset="0.29" style="stop-color:#27211F;stop-opacity:0.029"/>
	<stop  offset="0.7616" style="stop-color:#0F0D0C;stop-opacity:0.0762"/>
	<stop  offset="1" style="stop-color:#000000;stop-opacity:0.1"/>
</linearGradient>
<polygon fill="url(#SVGID_79_)" points="573.78,470 572.78,474 494.791,474 493.791,470 "/>
<linearGradient id="SVGID_80_" gradientUnits="userSpaceOnUse" x1="491.6367" y1="364" x2="574.8963" y2="364">
	<stop  offset="0" style="stop-color:#302926;stop-opacity:0"/>
	<stop  offset="0.2844" style="stop-color:#2C2523;stop-opacity:0.0341"/>
	<stop  offset="0.579" style="stop-color:#1F1B19;stop-opacity:0.0695"/>
	<stop  offset="0.8773" style="stop-color:#0B0909;stop-opacity:0.1053"/>
	<stop  offset="1" style="stop-color:#000000;stop-opacity:0.12"/>
</linearGradient>
<path fill="url(#SVGID_80_)" d="M575.04,366h-82.509c0.28-2,0.62-2,0.96-4h80.589C574.42,364,574.76,364,575.04,366z"/>
<path fill="#E8E8E8" d="M196.972,352.911l1.041,3.36c0.158,0.51,0.557,0.909,1.067,1.067l3.36,1.041c0.3,0.093,0.3,0.518,0,0.611
	l-3.36,1.041c-0.51,0.158-0.909,0.557-1.067,1.067l-1.041,3.36c-0.093,0.3-0.518,0.3-0.611,0l-1.041-3.36
	c-0.158-0.51-0.557-0.909-1.067-1.067l-3.36-1.041c-0.3-0.093-0.3-0.518,0-0.611l3.36-1.041c0.51-0.158,0.909-0.557,1.067-1.067
	l1.041-3.36C196.454,352.611,196.879,352.611,196.972,352.911z"/>
<path fill="#E8E8E8" d="M470.935,308.918l1.041,3.36c0.158,0.51,0.557,0.909,1.067,1.067l3.36,1.041c0.3,0.093,0.3,0.518,0,0.611
	l-3.36,1.041c-0.51,0.158-0.909,0.557-1.067,1.067l-1.041,3.36c-0.093,0.3-0.518,0.3-0.611,0l-1.041-3.36
	c-0.158-0.51-0.557-0.909-1.067-1.067l-3.36-1.041c-0.3-0.093-0.3-0.518,0-0.611l3.36-1.041c0.51-0.158,0.909-0.557,1.067-1.067
	l1.041-3.36C470.417,308.618,470.842,308.618,470.935,308.918z"/>
<linearGradient id="SVGID_81_" gradientUnits="userSpaceOnUse" x1="390" y1="415.375" x2="390" y2="448.9116">
	<stop  offset="0" style="stop-color:#302926;stop-opacity:0"/>
	<stop  offset="0.29" style="stop-color:#27211F;stop-opacity:0.0435"/>
	<stop  offset="0.7616" style="stop-color:#0F0D0C;stop-opacity:0.1142"/>
	<stop  offset="1" style="stop-color:#000000;stop-opacity:0.15"/>
</linearGradient>
<rect x="372" y="418" fill="url(#SVGID_81_)" width="36" height="28"/>
<linearGradient id="SVGID_82_" gradientUnits="userSpaceOnUse" x1="418" y1="241.3333" x2="418" y2="270.0948">
	<stop  offset="0" style="stop-color:#BBE2FF"/>
	<stop  offset="0.1704" style="stop-color:#B7E1FF"/>
	<stop  offset="0.3469" style="stop-color:#AAE0FF"/>
	<stop  offset="0.5263" style="stop-color:#96DDFF"/>
	<stop  offset="0.7077" style="stop-color:#79D9FF"/>
	<stop  offset="0.8888" style="stop-color:#54D4FF"/>
	<stop  offset="1" style="stop-color:#39D0FF"/>
</linearGradient>
<path fill="url(#SVGID_82_)" d="M428,253.535V270h-20v-28h7.802C422.421,242,428,246.916,428,253.535z"/>
<linearGradient id="SVGID_83_" gradientUnits="userSpaceOnUse" x1="306" y1="241.3333" x2="306" y2="270.341">
	<stop  offset="0" style="stop-color:#BBE2FF"/>
	<stop  offset="0.1704" style="stop-color:#B7E1FF"/>
	<stop  offset="0.3469" style="stop-color:#AAE0FF"/>
	<stop  offset="0.5263" style="stop-color:#96DDFF"/>
	<stop  offset="0.7077" style="stop-color:#79D9FF"/>
	<stop  offset="0.8888" style="stop-color:#54D4FF"/>
	<stop  offset="1" style="stop-color:#39D0FF"/>
</linearGradient>
<path fill="url(#SVGID_83_)" d="M316,242v28h-20v-16.465c0-6.619,5.197-11.535,11.816-11.535H316z"/>
</svg>
