<svg xmlns="http://www.w3.org/2000/svg" viewBox="0 0 577.6 327.49"><title>Fatal error + financial growth</title><g id="Layer_2" data-name="Layer 2"><g id="Layer_1-2" data-name="Layer 1"><path d="M57.75,131.59c-5.11-3-10.43-.75-13.68,3.59L11.71,178.31c-2.67,3.56-1.25,9.16,1.56,12.12Q26.91,204.79,41.65,218c9.55,8.58,23.74-5.52,14.14-14.14q-11.53-10.35-22.37-21.39l27.92-37.21C64.58,140.95,62,134.1,57.75,131.59Z" style="fill:#cf4327;"/><path d="M62.42,301.33c-.17,4.67-.27,9.34-.34,14-1.41.05-2.82,0-4.24,0-6.43-.35-6.41,9.65,0,10a49.39,49.39,0,0,0,10.5-.64c2.15-.34,3.65-2.81,3.67-4.82q.08-9.25.42-18.5C72.65,294.89,62.65,294.9,62.42,301.33Z" style="fill:#3b301b;"/><path d="M119.38,315.29c-1.42.08-2.83.1-4.24,0-.07-4.67-.18-9.34-.34-14-.23-6.42-10.23-6.45-10,0q.33,9.25.42,18.5c0,2,1.53,4.48,3.67,4.82a49.39,49.39,0,0,0,10.5.64C125.78,324.94,125.82,314.93,119.38,315.29Z" style="fill:#3b301b;"/><path d="M125.62,293.64q.72-27.24-.6-54.46c-.15-3.2-5.15-3.22-5,0,0,.07,0,.13,0,.2l-13.31,1.08c-3.17-5.33-9.92-8.95-16-9.64-8.57-1-20.81.9-25.33,9.31l-9.18-.74c0-.07,0-.13,0-.2.15-3.22-4.85-3.21-5,0q-1.28,27.21-.6,54.46c.1,3.87-.65,9.12.45,12.87a4.59,4.59,0,0,0,2.37,3.07c2.9,1.37,7.47.91,10.58,1,4.36.16,8.72.08,13.08-.16a2.55,2.55,0,0,0,2.5-2.5l.83-51.35c5.12.25,10.25.42,15.38.46l.82,50.89a2.55,2.55,0,0,0,2.5,2.5c4.36.24,8.72.32,13.08.16,2.93-.11,7.86.32,10.58-1a4.67,4.67,0,0,0,2.37-3.07C126.31,302.83,125.52,297.49,125.62,293.64Z" style="fill:#e5a024;"/><path d="M545.19,226.75a547.75,547.75,0,0,0-32.8-49.17l25.71-8.49c1.94-.64,2.59-3.51.6-4.57l-49.35-26.17a227.51,227.51,0,0,0,24.92-18.11,2.51,2.51,0,0,0-1.1-4.18q-34.89-6.94-69.91-13.17a2.6,2.6,0,0,0-3.08,1.75l-15,37.93-9.28,23.54a57.29,57.29,0,0,0-2.45,6.22,11.16,11.16,0,0,0-.27,3.48l-15.76-19.3c-1.23-1.51-3.7-.56-4.18,1.1-1.45,5.09.35,11,1.06,16.17L397,193.31l5.42,39.06c.31,2.26,3.56,2.25,4.57.6q6.55-10.71,12.66-21.68l9.51,53.79c.48,2.7,4,2,4.82,0L449,227c8.92,18.23,20.12,35.25,28.58,53.72.86,1.87,4.25,1.48,4.57-.6A548.38,548.38,0,0,0,488,213.23a436.43,436.43,0,0,0,54.37,17.2A2.53,2.53,0,0,0,545.19,226.75Z" style="fill:#e5a024;"/><path d="M459.87,7c-29,.84-58.06.44-87.06.47q-46.79,0-93.59-.26C247.38,7,215.49,6,183.65,6.23c-4.12,0-5.49,1.82-5.59,5.84-.22,8.63-.1,17.27-.14,25.9q-.13,22.91-.25,45.83l-.3,53.8q-.07,13-.14,25.9c0,7-.5,14.16.24,21.15a2.56,2.56,0,0,0,2.5,2.5q107,1.56,214,1.26,30.37-.09,60.73-.33a2.28,2.28,0,0,0,2-1c1.18,1.72,4.58,1.26,4.59-1.39q.54-88.08,1.08-176.16A2.53,2.53,0,0,0,459.87,7Z" style="fill:#eae2c2;"/><path d="M466.21,8.34c-1.44-4.83-7.24-5.66-11.32-5.63Q366,3.39,277.2,3.44q-25,0-49.91,0c-15.41,0-31.08-.89-46.45.06a5.11,5.11,0,0,0-5,5l-1.53,94.9q-.38,23.72-.77,47.45c-.2,12.2-1.57,25,.3,37,.33,2.13,2.81,3.67,4.82,3.67l201.51-.37,57.86-.11c6.43,0,6.45-10,0-10l-201.51.37-53.41.1c-.19-3.62,0-7.25.11-10.93q.18-11.37.37-22.74.38-23.23.75-46.46.71-44.08,1.42-88.16c14.78-.59,29.77.16,44.53.18q28,0,55.9,0,54.9,0,109.81-.34,30.2-.16,60.39-.39-.1,74.81-.2,149.62c0,6.43,10,6.44,10,0q.06-44.61.12-89.21l.06-44.61q0-5.45,0-10.9C466.38,14.79,467,11.09,466.21,8.34Z" style="fill:#3b301b;"/><path d="M197.62,46.5l244-1.61c2.41,0,2.42-3.77,0-3.75l-244,1.61c-2.41,0-2.42,3.77,0,3.75Z" style="fill:#e5a024;"/><path d="M197.87,84.5l244-1.61c2.41,0,2.42-3.77,0-3.75l-244,1.61c-2.41,0-2.42,3.77,0,3.75Z" style="fill:#e5a024;"/><path d="M198.37,160.5l244-1.61c2.41,0,2.42-3.77,0-3.75l-244,1.61c-2.41,0-2.42,3.77,0,3.75Z" style="fill:#e5a024;"/><path d="M198.12,122.5l244-1.61c2.41,0,2.42-3.77,0-3.75l-244,1.61c-2.41,0-2.42,3.77,0,3.75Z" style="fill:#e5a024;"/><path d="M542.85,264.14c-39.94-41.89-77.36-86.25-115.77-129.53-9-10.17-18.06-20.33-27.25-30.35-3.56-3.88-9.07-2.16-11.78,1.52L376,122.18,333.19,73.5c-3.5-4-9.1-2.06-11.78,1.52L304.23,98Q281.29,72.75,258,47.88c-3.32-3.54-9.41-2.55-11.78,1.52q-12,20.63-25.31,40.43a295.11,295.11,0,0,1-21.55-24.08c-2.55-3.19-7.94-2.61-10.61,0-3.16,3.09-2.52,7.46,0,10.61a294.56,294.56,0,0,0,28,30.37c3.72,3.5,9,2.51,11.78-1.52Q241.91,85.82,254,65.62q22.9,24.53,45.44,49.38c3.56,3.93,9.06,2.11,11.78-1.52l17.09-22.84,42.81,48.73c3.49,4,9.12,2.09,11.78-1.52l12.19-16.53c37.16,40.81,73,82.81,109.94,123.83,9,10,18,19.89,27.19,29.58C538.92,281.75,549.52,271.13,542.85,264.14Z" style="fill:#cf4327;"/><path d="M551.66,251.07V251a2.53,2.53,0,0,0-4.17-1.72l0,0,0,0-31.75,31.75a2.53,2.53,0,0,0,1.77,4.27h31.75a2.54,2.54,0,0,0,2.5-2.5V251.11S551.66,251.09,551.66,251.07Z" style="fill:#cf4327;"/><path d="M565.15,279.85l9.32,2c3.14.69,4.48-4.13,1.33-4.82l-9.32-2c-3.14-.69-4.48,4.13-1.33,4.82Z" style="fill:#cf4327;"/><path d="M556.13,294.41l5.32,6a2.5,2.5,0,0,0,3.54-3.54l-5.32-6a2.5,2.5,0,0,0-3.54,3.54Z" style="fill:#cf4327;"/><path d="M540.66,301.37V308c0,3.22,5,3.22,5,0v-6.67c0-3.22-5-3.22-5,0Z" style="fill:#cf4327;"/><path d="M330.71,317.49h-6v-129c0-6.43-10-6.45-10,0v129h-6c-6.43,0-6.45,10,0,10h22C337.14,327.49,337.15,317.49,330.71,317.49Z" style="fill:#3b301b;"/><path d="M219.38,160.84c-2,2.29-4,4.42-7.09,5a22.69,22.69,0,0,1-3.18.39c5.32-2.33,9.95-5.87,11.73-11.78.93-3.09-3.89-4.41-4.82-1.33a12.6,12.6,0,0,1-6.24,7.24,13.29,13.29,0,0,0-.12-14.39,2.59,2.59,0,0,0-4.47.28,2.77,2.77,0,0,0-3.13-2.65c-7.79,1.15-9.06,9.2-7.67,15.67-2.17,1.72-4.22,3.69-6.26,5.55a2.69,2.69,0,0,0-.24.18c-.33.3-.71.64-1.1,1l-.28.24a2.7,2.7,0,0,0-.4.43c-1.32,1.37-2.57,3-2.44,4.75.2,2.82,4.12,5.85,6,7.65,2.2,2.05,3.62,2,5.93.15a110.72,110.72,0,0,0,8.58-8.05,32.58,32.58,0,0,0,10.45-.78c3.44-1,5.93-3.49,8.24-6.09C225,162,221.52,158.43,219.38,160.84Zm-16-12.38a2,2,0,0,0,1.57-1,2.44,2.44,0,0,0,.38,1.08,8.45,8.45,0,0,1-.21,9.91,9.45,9.45,0,0,0-1.74-1.21,6.33,6.33,0,0,0-4.44-.58C198.39,153,199,149.11,203.39,148.46Z" style="fill:#3b301b;"/><path d="M197.89,177.36c-2.76-3.22-6.15-8.84-9.79-11-4-2.42-7.47,3.24-10.57,6.17l-14.21,13.4a416.88,416.88,0,0,1-27.22-50c-2.2-4.79-9.11-6-13.34-3.5-4.91,2.87-5.7,8.54-3.5,13.34a416.91,416.91,0,0,0,33.86,60.1c3.57,5.27,10.52,6.5,15.31,2,5.14-4.89,10.32-9.73,15.48-14.6,4.88-4.6,10.54-8.87,14.07-14.6a.89.89,0,0,0-.11-1.32Z" style="fill:#cf4327;"/><path d="M118.12,133.47c8.63,11,9.55,26,9.79,40q.3,17.45,0,34.91c-.27,13.57-4.41,24.88-18.71,28.67-6.44,1.71-13.2,1.54-19.86,1.35H85.85c-6.66.18-13.42.36-19.86-1.35-14.3-3.8-18.44-15.11-18.71-28.67q-.34-17.45,0-34.91c.24-14,1.16-29,9.79-40" style="fill:#3b301b;"/><path d="M116,134.73c11,14.72,9.53,34.87,9.59,52.3,0,9.35.74,19.23-.76,28.49-1.09,6.72-4,12.92-10,16.53C107.1,236.66,97.63,236,89,235.88c-7.73-.09-15.55.73-23.09-1.46-17.46-5.09-16.24-23.95-16.34-38.66-.12-19.65-2.92-44.33,9.57-61,1.93-2.58-2.41-5.07-4.32-2.52C42.47,148.8,44.56,172.32,44.6,191.88c0,15.36-2,36,13.79,44.81,8.45,4.71,18.36,4.31,27.71,4.19,8.41-.1,17,.75,25.12-1.85,17.55-5.58,19.09-22.58,19.27-38.43.14-12.54.41-25.22-.5-37.75-.79-10.9-3-21.74-9.71-30.65-1.9-2.55-6.25-.06-4.32,2.52Z" style="fill:#3b301b;"/><path d="M133.92,189.5q-.05-13.46-.4-26.91-.17-6.48-.4-13c-.13-3.75.29-8.26-.81-11.91-1.47-4.88-7.19-6.88-11.88-6.58s-8.12,3.32-10.71,7c-3.4,4.81-6,10.23-9.18,15.2-3.92,6.17-8,12.21-12.26,18.16Q81.93,162.58,76,153.34c-3.16-5-5.78-10.4-9.18-15.2-2.53-3.58-5.84-6.54-10.38-6.94-4.76-.43-10.7,1.54-12.21,6.54-1.11,3.69-.67,8.12-.81,11.91q-.22,6-.37,12-.37,13.95-.42,27.9-.11,26.91.94,53.81a2.54,2.54,0,0,0,2.5,2.5h84.38a2.26,2.26,0,0,0,2.1-1.22,2.48,2.48,0,0,0,.4-1.28Q134,216.42,133.92,189.5Z" style="fill:#cf4327;"/><path d="M121.19,139.61l-5.14,24.86-10.2-1a2.52,2.52,0,0,0-2.41,3.16l3.66,11.65c1.62,5.17,3.68,9.12,1,14.39-3.83,7.63-8.8,14.9-13.14,22.26-1.64,2.78,2.68,5.3,4.32,2.52l8.09-13.7c2.34-4,5.51-8.06,7.13-12.37,1.47-3.93-.59-8-1.76-11.75l-3.4-10.83,8.67.86a2.5,2.5,0,0,0,2.41-1.84L126,140.94C126.66,137.8,121.84,136.46,121.19,139.61Z" style="fill:#3b301b;"/><path d="M69,192.67c-3.45-7.6,2.28-18.37,4.69-26a2.52,2.52,0,0,0-2.41-3.16l-10.2,1L56,139.61c-.65-3.15-5.47-1.82-4.82,1.33l5.56,26.89a2.5,2.5,0,0,0,2.41,1.84l8.67-.86-3.4,10.83c-1.18,3.75-3.24,7.82-1.76,11.75,1.62,4.31,4.79,8.41,7.13,12.37l8.09,13.7c1.63,2.77,6,.26,4.32-2.52C77.88,207.65,72.52,200.35,69,192.67Z" style="fill:#3b301b;"/><path d="M167.18,100.49a2.79,2.79,0,0,0-.19-.38c0-.07,0-.14-.07-.21-2.07-4.89-5.21-9.32-9.72-11.82,6.72-5.81,10.15-15.3,7.47-24S154.13,49.29,145.4,48.11a18,18,0,0,0-2-20.25c-5.68-6.54-15-7.58-22.71-4.65A12.79,12.79,0,0,0,117.21,14c-4.4-4.65-11.12-4.51-16.49-1.87-7.51-7.93-17.91-7.1-25.5.22C69.79,9.48,62.87,9.19,58.35,14a12.79,12.79,0,0,0-3.47,9.23c-7.73-2.92-17-1.89-22.71,4.65a18,18,0,0,0-2,20.25C21.43,49.29,13.5,55.37,10.87,64s.74,18.21,7.44,24C6.08,94.55,3,114.43,8.91,125.91c6.21,11.95,22.35,16.35,31.84,7a29,29,0,0,0,16.88,14.62,28.56,28.56,0,0,0,15.53.42c6.15-1.54,10.59-5.49,17.32-4.32,9.23,1.61,17.08,6.9,26.76,4.12a28.88,28.88,0,0,0,17.58-14.88,19.35,19.35,0,0,0,24.87,1.21C170.31,126.24,171.44,112.1,167.18,100.49Z" style="fill:#e5a024;"/><path d="M106.92,38c-6.46-1.19-12.64,0-19.07,0-6.1,0-12.27-1-18.33-.66-16.41.85-27.54,11.88-29.59,28-1,8.3.21,17.34,4.9,24.43,4,6.08,10.86,10.06,17.95,9.24-2.8,12.38-.57,27.26,12.76,31.68,9.71,3.22,23.67,1.83,30-7.14a2.56,2.56,0,0,0,.43-.6,2.66,2.66,0,0,0,.27-.57c3.4-7,3.71-15.58,2-23.26,14.22,2.19,22.93-15,23.18-27.67C131.7,55.76,123.19,41,106.92,38Z" style="fill:#3b301b;"/><path d="M111.56,55.39c-3.35-2.2-7.82-1.68-11.18.29C95.63,58.47,94,63.82,93.32,69c-.86,8.76-.07,22.42,11.84,22.24,8.12-.12,12-8.13,12.83-15.19C118.78,69.31,117.8,59.5,111.56,55.39Z" style="fill:#eae2c2;"/><path d="M71.34,55.68c-3.36-2-7.83-2.48-11.18-.29C53.92,59.48,52.94,69.33,53.74,76c.85,7.05,4.7,15.07,12.83,15.19C78.49,91.38,79.26,77.72,78.4,69,77.74,63.8,76.08,58.49,71.34,55.68Z" style="fill:#eae2c2;"/><path d="M103,66a33.13,33.13,0,0,1,.26,15.64c-.7,3.13,4.12,4.47,4.82,1.33a38.85,38.85,0,0,0-.26-18.3c-.79-3.12-5.62-1.8-4.82,1.33Z" style="fill:#3b301b;"/><path d="M63.31,64.64a38.85,38.85,0,0,0-.26,18.3c.7,3.14,5.52,1.81,4.82-1.33A33.13,33.13,0,0,1,68.13,66c.8-3.12-4-4.45-4.82-1.33Z" style="fill:#3b301b;"/><path d="M91,63a157.12,157.12,0,0,1,14.5-12.63c2.52-1.93,0-6.27-2.52-4.32A167.36,167.36,0,0,0,87.47,59.46C85.16,61.71,88.7,65.25,91,63Z" style="fill:#cf4327;"/><path d="M81.14,109.19c-1.2-4,.25-9.91,5.32-10,5.34-.06,4.61,7.06,4.22,10.59-.35,3.19,4.65,3.17,5,0,.76-6.9-.95-16.36-10-15.54-7.9.72-11.45,9.27-9.36,16.24.92,3.07,5.75,1.76,4.82-1.33Z" style="fill:#cf4327;"/><path d="M153.76,60.5c-10,3.54-14.8,10-15,20.57-.16,9.35,4.78,18.31,15.33,17.23,10.32-1.06,16.59-12,17.43-21.45C172.49,66.08,164.66,57.47,153.76,60.5Z" style="fill:#3b301b;"/><path d="M17.85,60.5C7,57.46-.86,66.08.08,76.84.9,86.33,7.19,97.22,17.5,98.29,28.06,99.39,33,90.41,32.83,81.07,32.66,70.49,27.88,64,17.85,60.5Z" style="fill:#3b301b;"/><path d="M30.31,64.62a5,5,0,0,0-5.25,3.1,6.2,6.2,0,0,0,1.13,6.16A8.14,8.14,0,0,0,32,76.6a10,10,0,0,0-5.39,9.83c.66,6,7.6,11.27,13.12,7.46" style="fill:#e5a024;"/><path d="M30.31,62.12c-4.75,0-8.56,3.57-8.07,8.5.52,5.23,5,7.88,9.75,8.48l-1.26-4.66c-5.66,3.33-8.44,10.26-5.36,16.36,3,5.94,9.71,8.6,15.61,5.25,2.8-1.59.28-5.91-2.52-4.32-3.58,2-7.44-.14-8.85-3.78s.36-7.27,3.65-9.2c2.33-1.37,1-4.37-1.26-4.66a3.73,3.73,0,0,1-3.57-2q-3.12-2.41,1.9-5c3.22,0,3.22-5,0-5Z" style="fill:#e5a024;"/><path d="M139.39,64c3,1.2,6.13,3.38,6.29,6.59a7.93,7.93,0,0,1-1.94,5,19.9,19.9,0,0,1-4.3,4.18,5.89,5.89,0,0,1,6,3.85,8.44,8.44,0,0,1-1,7.33c-1.7,2.72-6.37,7-9.77,7" style="fill:#e5a024;"/><path d="M138.13,66.17c3,1.35,6.2,2.87,4.24,7-.92,1.94-3,3.53-4.69,4.81s-.21,4.27,1.77,4.27c5.27,0,3.75,6.61,1.43,9.15-1.57,1.72-3.79,3.75-6.22,4-3.17.34-3.2,5.34,0,5,5.64-.6,11.42-5.49,13.13-10.91,1.9-6-1.81-12.24-8.34-12.24l1.77,4.27c3.3-2.55,7.12-6.41,7-10.95-.15-4.36-3.91-7.13-7.53-8.75-2.91-1.3-5.46,3-2.52,4.32Z" style="fill:#e5a024;"/><path d="M130.87,1.3A1.88,1.88,0,0,0,129.08,0a2.63,2.63,0,0,0-2.9,3.12h0c.77,5.48-.39,10.3-2.77,15.21-1.72,3.57-4.43,7.14-5.35,11-1.4,5.93,4,10.57,9.75,9.91,6.82-.77,9.36-8.68,9.63-14.53C137.81,17.1,136.22,7.23,130.87,1.3Z" style="fill:#3b301b;"/><path d="M52.11,19C49.55,13.91,48.21,8.92,49,3.17h0A2.63,2.63,0,0,0,46.12,0,1.87,1.87,0,0,0,44.33,1.3c-5.21,5.76-6.75,15.13-6.61,22.64.11,6.06,2.53,14.58,9.67,15.39,5.51.63,10.89-3.62,9.83-9.37C56.51,26.08,53.85,22.52,52.11,19Z" style="fill:#3b301b;"/><path d="M87.27,164.09c-4.43,11.24-2.58,25-2.63,36.84l-.2,40.92c0,3.22,5,3.22,5,0l.19-38.93q0-9.48.09-19c0-6.35,0-12.54,2.37-18.54,1.18-3-3.65-4.29-4.82-1.33Z" style="fill:#3b301b;"/><path d="M202.83,158.75l23.37-42.65c1.55-2.82-2.77-5.35-4.32-2.52l-23.37,42.65c-1.55,2.82,2.77,5.35,4.32,2.52Z" style="fill:#cf4327;"/><path d="M119.33,121c3.22,0,3.22-5,0-5s-3.22,5,0,5Z" style="fill:#cf4327;"/><path d="M128,107c3.22,0,3.22-5,0-5s-3.22,5,0,5Z" style="fill:#cf4327;"/><path d="M133.33,119.66c3.22,0,3.22-5,0-5s-3.22,5,0,5Z" style="fill:#cf4327;"/><path d="M145.33,105.66c3.22,0,3.22-5,0-5s-3.22,5,0,5Z" style="fill:#cf4327;"/><path d="M152,121.66c3.22,0,3.22-5,0-5s-3.22,5,0,5Z" style="fill:#cf4327;"/><path d="M138,89.66c3.22,0,3.22-5,0-5s-3.22,5,0,5Z" style="fill:#cf4327;"/><path d="M139.33,73.66c3.22,0,3.22-5,0-5s-3.22,5,0,5Z" style="fill:#cf4327;"/><path d="M118,136.32c3.22,0,3.22-5,0-5s-3.22,5,0,5Z" style="fill:#cf4327;"/><path d="M133.33,47.66c3.22,0,3.22-5,0-5s-3.22,5,0,5Z" style="fill:#cf4327;"/><path d="M136.66,61.66c3.22,0,3.22-5,0-5s-3.22,5,0,5Z" style="fill:#cf4327;"/><path d="M108,33.66c3.22,0,3.22-5,0-5s-3.22,5,0,5Z" style="fill:#cf4327;"/><path d="M106.66,21.66c3.22,0,3.22-5,0-5s-3.22,5,0,5Z" style="fill:#cf4327;"/><path d="M92.66,33c3.22,0,3.22-5,0-5s-3.22,5,0,5Z" style="fill:#cf4327;"/><path d="M91.33,21c3.22,0,3.22-5,0-5s-3.22,5,0,5Z" style="fill:#cf4327;"/><path d="M75.33,33c3.22,0,3.22-5,0-5s-3.22,5,0,5Z" style="fill:#cf4327;"/><path d="M70.66,23c3.22,0,3.22-5,0-5s-3.22,5,0,5Z" style="fill:#cf4327;"/><path d="M38.66,57c3.22,0,3.22-5,0-5s-3.22,5,0,5Z" style="fill:#cf4327;"/><path d="M30.66,67c3.22,0,3.22-5,0-5s-3.22,5,0,5Z" style="fill:#cf4327;"/><path d="M32.66,80.32c3.22,0,3.22-5,0-5s-3.22,5,0,5Z" style="fill:#cf4327;"/><path d="M42,99c3.22,0,3.22-5,0-5s-3.22,5,0,5Z" style="fill:#cf4327;"/><path d="M31.33,105.66c3.22,0,3.22-5,0-5s-3.22,5,0,5Z" style="fill:#cf4327;"/><path d="M18,113c3.22,0,3.22-5,0-5s-3.22,5,0,5Z" style="fill:#cf4327;"/><path d="M28,125c3.22,0,3.22-5,0-5s-3.22,5,0,5Z" style="fill:#cf4327;"/><path d="M40,114.32c3.22,0,3.22-5,0-5s-3.22,5,0,5Z" style="fill:#cf4327;"/><path d="M52,132.32c3.22,0,3.22-5,0-5s-3.22,5,0,5Z" style="fill:#cf4327;"/><path d="M54,111.66c3.22,0,3.22-5,0-5s-3.22,5,0,5Z" style="fill:#cf4327;"/><path d="M62.66,137.66c3.22,0,3.22-5,0-5s-3.22,5,0,5Z" style="fill:#cf4327;"/><path d="M86,140.32c3.22,0,3.22-5,0-5s-3.22,5,0,5Z" style="fill:#cf4327;"/><path d="M102,139c3.22,0,3.22-5,0-5s-3.22,5,0,5Z" style="fill:#cf4327;"/><path d="M40.63,20.16a16.17,16.17,0,0,0,2.46,9.64c2.22,3.54,7.84.28,5.61-3.28a10.17,10.17,0,0,1-1.57-6.36,3.25,3.25,0,0,0-6.5,0Z" style="fill:#574730;"/><path d="M122.9,23.34,121.55,28a3.25,3.25,0,1,0,6.27,1.73l1.35-4.66a3.25,3.25,0,1,0-6.27-1.73Z" style="fill:#574730;"/><path d="M158.08,71.27a11.63,11.63,0,0,1,5.14-.52c1.75.19,3.25-1.63,3.25-3.25a3.33,3.33,0,0,0-3.25-3.25,16.29,16.29,0,0,0-6.87.75,3.32,3.32,0,0,0-2.27,4,3.28,3.28,0,0,0,4,2.27Z" style="fill:#574730;"/><path d="M13.43,72.67,16.76,72A3.27,3.27,0,0,0,19,68a3.33,3.33,0,0,0-4-2.27l-3.33.67a3.27,3.27,0,0,0-2.27,4,3.33,3.33,0,0,0,4,2.27Z" style="fill:#574730;"/><path d="M58.86,42.2c-15.27,6.66-18.16,24.43-14.09,39,1.13,4,7.4,2.31,6.27-1.73-3.36-12-1.52-26.13,11.1-31.64,3.82-1.67.52-7.27-3.28-5.61Z" style="fill:#574730;"/><path d="M35.42,199.27,28.65,192c-2.27-2.43-5.31-4.95-6.79-8-1.8-3.65.49-7.33,2.51-10.42,4.45-6.78,10.66-12.3,16.49-17.86,3-2.89-1.57-7.48-4.6-4.6-7.18,6.85-15.38,13.94-19.72,23.06-1.76,3.7-2.64,7.67-1,11.56,2.86,6.91,10.31,12.69,15.32,18.06,2.86,3.06,7.45-1.54,4.6-4.6Z" style="fill:#db6653;"/><path d="M46.73,174a63.68,63.68,0,0,0-.32,18.23c.54,4.09,7,4.14,6.5,0A58,58,0,0,1,53,175.68c.64-4.09-5.63-5.86-6.27-1.73Z" style="fill:#db6653;"/><path d="M141.19,175.07l7.51,13.78c2,3.72,3.82,8.1,7,11,5.92,5.55,12.34,1.19,16.38-4.06,2.55-3.31-3.1-6.55-5.61-3.28a10.32,10.32,0,0,1-2.28,2.51c-3.06,1.85-4.19.12-5.64-1.93a68.16,68.16,0,0,1-3.76-6.75l-8-14.59c-2-3.67-7.62-.4-5.61,3.28Z" style="fill:#db6653;"/><path d="M32,35.49v4.67a3.25,3.25,0,0,0,6.5,0V35.49a3.25,3.25,0,0,0-6.5,0Z" style="fill:#f3bc63;"/><path d="M22.26,51.86l-.67.67a3.25,3.25,0,1,0,4.6,4.6l.67-.67a3.25,3.25,0,1,0-4.6-4.6Z" style="fill:#f3bc63;"/><path d="M8.69,117.7a18.55,18.55,0,0,0,10.23,12.57,3.35,3.35,0,0,0,4.45-1.17,3.27,3.27,0,0,0-1.17-4.45A12.44,12.44,0,0,1,15,116c-1-4.07-7.23-2.35-6.27,1.73Z" style="fill:#f3bc63;"/><path d="M63.53,23.63l1.38-4a3.27,3.27,0,0,0-2.27-4,3.33,3.33,0,0,0-4,2.27l-1.38,4a3.27,3.27,0,0,0,2.27,4,3.33,3.33,0,0,0,4-2.27Z" style="fill:#f3bc63;"/><path d="M83.32,19.77l2-2.67a3.26,3.26,0,0,0,.33-2.5,3.31,3.31,0,0,0-1.49-1.94,3.28,3.28,0,0,0-2.5-.33,3.79,3.79,0,0,0-1.94,1.49l-2,2.67a3.26,3.26,0,0,0-.33,2.5,3.31,3.31,0,0,0,1.49,1.94,3.28,3.28,0,0,0,2.5.33,3.79,3.79,0,0,0,1.94-1.49Z" style="fill:#f3bc63;"/><path d="M55.49,257.51a274.15,274.15,0,0,0,0,41.31c.31,4.15,6.81,4.18,6.5,0a274.15,274.15,0,0,1,0-41.31c.32-4.17-6.19-4.15-6.5,0Z" style="fill:#f3bc63;"/><path d="M101.68,259.33a145.31,145.31,0,0,0-.33,37.49c.51,4.1,7,4.15,6.5,0a139.15,139.15,0,0,1,.1-35.76c.55-4.09-5.71-5.86-6.27-1.73Z" style="fill:#f3bc63;"/><path d="M404.59,206.83l1.31,10c.23,1.74,1.33,3.25,3.25,3.25,1.58,0,3.48-1.5,3.25-3.25l-1.31-10c-.23-1.74-1.33-3.25-3.25-3.25-1.58,0-3.48,1.5-3.25,3.25Z" style="fill:#f3bc63;"/><path d="M428,220.16a198.25,198.25,0,0,0,.49,24c.34,4.14,6.84,4.18,6.5,0a198.25,198.25,0,0,1-.49-24c.17-4.18-6.33-4.18-6.5,0Z" style="fill:#f3bc63;"/><path d="M458.75,231l10,25.33c1.52,3.84,7.81,2.17,6.27-1.73l-10-25.33c-1.52-3.84-7.81-2.17-6.27,1.73Z" style="fill:#f3bc63;"/><path d="M500.25,207.63l12.67,6c3.76,1.78,7.06-3.82,3.28-5.61l-12.67-6c-3.76-1.78-7.06,3.82-3.28,5.61Z" style="fill:#f3bc63;"/><path d="M509.22,171.41a40.5,40.5,0,0,0,10.2-1.45c4-1.11,2.32-7.38-1.73-6.27a33.24,33.24,0,0,1-8.47,1.22c-4.18.06-4.19,6.56,0,6.5Z" style="fill:#f3bc63;"/><path d="M477.41,136.61l16-6c3.88-1.45,2.2-7.74-1.73-6.27l-16,6c-3.88,1.45-2.2,7.74,1.73,6.27Z" style="fill:#f3bc63;"/></g></g></svg>