<svg xmlns="http://www.w3.org/2000/svg" viewBox="0 0 487.02 344.98"><title>No messages + Retiree</title><g id="Layer_2" data-name="Layer 2"><g id="Layer_1-2" data-name="Layer 1"><path d="M324.56,322.88a115.53,115.53,0,0,0-36.51,5.54,296.76,296.76,0,0,0,24-38.75c1.24-2.39-1.39-5.63-3.94-3.94a204.51,204.51,0,0,0-39.85,34.69,427,427,0,0,0,10.31-44.24c.48-2.7-2.64-5-4.81-2.8a116.93,116.93,0,0,0-29.21,48.21,151.68,151.68,0,0,0-15-25.86c-1.59-2.2-5.37-1.6-5.36,1.45a157.85,157.85,0,0,0,5.33,40.41,2.72,2.72,0,0,0,.89,1.44,2.9,2.9,0,0,0,2.75,3.33A382.51,382.51,0,0,0,291,340.67c12.35-1.32,28.8-1.6,36.09-13.46A2.9,2.9,0,0,0,324.56,322.88Z" style="fill:#e5a024;"/><path d="M68.25,266a2.93,2.93,0,0,0-2.89-2.65,2.65,2.65,0,0,0-2.49,1.36,107.88,107.88,0,0,0-13,32.34,343,343,0,0,0-24-51.53c-1.19-2.07-4.71-1.76-5.26.69-3.1,14-.14,28.37,3.79,41.88A164.49,164.49,0,0,0,35,315c-1.9-.93-3.83-1.75-5.67-2.55a66.17,66.17,0,0,0-9.46-3.57c-5.4-1.39-10.94-1-16.23-3-2.39-.89-4.5,2.2-3.25,4.23C7.06,321,18.05,328.27,28.82,334.69c7.48,4.46,17.41,9.94,26.44,7.48,11.47-3.12,12.57-18.17,14.06-27.81A131.63,131.63,0,0,0,68.25,266Z" style="fill:#eae2c2;"/><path d="M479.84,247.13A208.57,208.57,0,0,0,419.73,299q-.85-33.27-4.66-66.35c-.32-2.8-3.68-4-5.36-1.45a165.46,165.46,0,0,0-26.85,71.7,157.39,157.39,0,0,0-34-38.77,2.9,2.9,0,0,0-4.81,2.8,162.62,162.62,0,0,0,18,51.63,107.55,107.55,0,0,0-19.74-2.38c-3.26-.09-3.88,4.8-.76,5.65,2.32.63,5.1,4.59,6.79,6.24a33.71,33.71,0,0,0,8.81,6.43,56.91,56.91,0,0,0,32.39,5.6c19.93-2.24,41.06-6.67,55.56-21.42,8.21-8.85,14.31-19.17,19.8-29.87,6.41-12.5,12.58-25.13,18.85-37.7C485,248.56,482.45,245.64,479.84,247.13Z" style="fill:#eae2c2;"/><path d="M383.42,337V178.43c0-7.4-11.51-7.42-11.51,0V337c0,7.4,11.51,7.42,11.51,0Z" style="fill:#cf4327;"/><path d="M440.49,135.91c-7-13.38-20-17.13-34.24-17-19.54.24-39.1,0-58.64,0H329.18c-1.17,0-2.36,0-3.56,0-3.69.14-3.72,5.75,0,5.75h3.24c13.84.46,24.17,7.55,28,21.66,3.24,11.81,2.46,24.36,3.32,36.47a2.93,2.93,0,0,0,2.88,2.88h79.55a2.92,2.92,0,0,0,1.22-.25c1.7.49,3.76-.38,3.6-2.63C446.37,167.33,448,150.13,440.49,135.91Z" style="fill:#cf4327;"/><path d="M361.38,142c-3.82-13.44-15.07-20.67-28.12-22.94h-.1a3.21,3.21,0,0,0-.67-.1c-15.39-.59-28.78,5.58-34.91,20.28-5.69,13.65-4.42,29.16-5.45,43.6a2.91,2.91,0,0,0,2.88,2.88h67.81a2.91,2.91,0,0,0,2.88-2.88C365.31,169,365.19,155.37,361.38,142Z" style="fill:#3b301b;"/><path d="M360.41,182.73h-61c-1.54,0-3.57-.35-5.09.05-3.78,1-5.41,7-6.89,10.18-2.65,5.66-6,11.42-5.75,17.88.56,15.33,19.78,15.14,30.76,13.86,13.65-1.82,26-6.55,36.68-15.57,7.39-6.27,10.55-14.1,14.07-22.76C363.9,184.6,362.1,182.73,360.41,182.73Z" style="fill:#cf4327;"/><path d="M80.2,325.51H73.4V276.8c0-11.1-17.26-11.12-17.26,0v51.78c0,5.29,3.91,8.06,8,8.31a6.4,6.4,0,0,0,1.29.13H80.2C87.61,337,87.62,325.51,80.2,325.51Z" style="fill:#e5a024;"/><path d="M138.12,325.51H131.5V276.8c0-11.1-17.26-11.12-17.26,0v51.78c0,5.18,3.75,7.94,7.75,8.29a6.34,6.34,0,0,0,1.36.14h14.77C145.52,337,145.53,325.51,138.12,325.51Z" style="fill:#e5a024;"/><path d="M408.58,137.32c-.9-7.49-7.21-12.27-14.25-13v-37H404c3.7,0,3.71-5.75,0-5.75H392a2.69,2.69,0,0,0-1.8.64,2.6,2.6,0,0,0-1.65,2.53v39.91a17.37,17.37,0,0,0-13.39,17.63c.48,9.5,9.1,14.83,18.1,14.27a3.2,3.2,0,0,0,.53-.09l.23,0C402.82,154.95,409.66,146.28,408.58,137.32Zm-15.63,13.49c-5.55.23-11.59-2.33-12-8.53a11.6,11.6,0,0,1,7.64-11.65v10.74c0,3.7,5.75,3.71,5.75,0V130C406.27,131.38,404.65,148.4,392.95,150.81Z" style="fill:#3b301b;"/><path d="M279.31,211.79c4,19.45,31.58,16.68,45.81,12.52,19.93-5.82,36.21-21.57,40.16-42.27.69-3.62-4.85-5.17-5.55-1.53-3.32,17.37-16,31.15-32.56,37.09-11.13,4-38.85,9.39-42.32-7.34-.75-3.62-6.3-2.09-5.55,1.53Z" style="fill:#3b301b;"/><path d="M150.11,268.23c.16-16.82-.1-33.72-.82-50.53-.54-14.15.48-28.32-.18-42.46-.32-6.94-.89-13.89-.26-20.83.48-5.33,1.3-10.43.13-15.74-4.06-18.33-27.94-23.83-44.08-24.1-17.8-.29-36.13,6.31-48,20C42,151.78,39.48,176.07,39.77,198c.19,14.26.88,28.51,1.41,42.76.25,6.73.48,13.46.6,20.2q.11,5.62.12,11.24c0,2.16-.68,5.61.08,7.66,2.17,5.87,15.45,4.72,20.15,4.89,25.93,1,52-.24,77.93-1.44,2.08-.1,6.07.43,7.95-.76C151.39,280.38,150.08,271.43,150.11,268.23Z" style="fill:#cf4327;"/><path d="M54.24,191.21c0-4,1.74-7.21,5.75-8.38,3.22-.94,7.76-.51,9.69,2.18,1.44,2,1.45,4.6,3.11,6.54a10,10,0,0,0,5.92,3.11c4.24.79,9.69-.2,12.55-3.69,1.42-1.73,1.81-4,3.13-5.85,2.6-3.58,6.2-3.64,10.06-2.54,5.71,1.64,7.9,5.35,11.9,9.16,2.82,2.69,6.29,4.15,10.2,3.25,3.58-.82,6-3.33,7.84-6.38.89-1.5,1.47-3.63,2.65-4.93,1.91-2.12,3.42-.71,5.59.81,3,2.12,5.92-2.86,2.9-5-3.39-2.37-7.56-4.27-11.23-1.37-3.26,2.58-3.57,7.46-6.72,10-5.72,4.67-10-4.64-13.84-7.51-4.05-3-10.15-5.11-15.22-4.41-6.43.9-7.85,5.22-11.07,9.93a6.82,6.82,0,0,1-5.6,3c-4.08.19-5-2.6-6.24-5.66a9.48,9.48,0,0,0-3.83-4.82c-10.09-6.33-23.39,1-23.29,12.53,0,3.7,5.78,3.71,5.75,0Z" style="fill:#3b301b;"/><path d="M51.82,227.9c.67-4.3,3.44-9.17,8.5-7.82,2.48.66,4,2.79,5.51,4.71,2.5,3.14,4.87,6.36,8.74,7.89,8.12,3.19,13.77-2.35,19.61-7,10.06-8,14.32,5.69,23.13,8.37a10.93,10.93,0,0,0,10-2c2.44-1.81,12.8-15,14.68-6.42.79,3.61,6.34,2.08,5.55-1.53a8.73,8.73,0,0,0-9.34-6.88c-5.48.38-8.65,4.55-12.19,8.19-7.48,7.68-12-2-18.09-5.94a13,13,0,0,0-12-1.55c-4.46,1.73-7.36,5.71-11.31,8.21-7.77,4.92-11.76-2.38-16.29-7.36-8.14-8.94-20.25-3.77-22,7.62-.56,3.62,5,5.18,5.55,1.53Z" style="fill:#3b301b;"/><path d="M54.59,263.88c1.53-2.89,4-6.32,7.74-6.33,2.69,0,4.52,1.91,6.43,3.41,2.58,2,5,4.12,8.25,4.9,7.9,1.87,13.58-3.51,19.64-7.47,5.61-3.67,8.72-.84,13.22,2.67a16.73,16.73,0,0,0,8.38,3.76,15.59,15.59,0,0,0,9.19-1.62c4.2-2.2,10.1-11.62,14.67-5.07,2.1,3,7.09.14,5-2.9s-4.77-5.56-8.72-5.47c-4.57.1-7.53,3.63-10.75,6.33-6.91,5.8-12,1.79-18-2.67-3.24-2.4-6.87-3.52-10.85-2.4-4.59,1.29-7.82,5-11.82,7.31-3.27,1.91-7.15,3-10.72,1.08-2.29-1.21-4.07-3.31-6.17-4.79-7.84-5.52-16.18-1.54-20.37,6.37-1.73,3.27,3.23,6.18,5,2.9Z" style="fill:#3b301b;"/><path d="M170.91,128.14c-4.1-7.4-11.32-8.91-18.64-7.64,1.27-12.13-3.51-25.53-13.11-33l-.17-.11a3.22,3.22,0,0,0-.41-.34c-12.55-8.5-31.55-8.56-43,2-12.09,11.18-16.43,30-12.07,45.65,4.83,17.28,19.08,27.49,36.35,30.2,16.63,2.61,37.67,1.58,48.31-13.46C172.8,144.91,175,135.47,170.91,128.14Z" style="fill:#e5a024;"/><path d="M170.38,121.62c-2.29-2.09-5.48-3.82-8.67-3.09-3.79.86-6,5-5.76,8.67.38,6.28,7.16,12.91,13.68,10.68a3.2,3.2,0,0,0,.49-.22l.19-.06C177.4,134.4,175,125.83,170.38,121.62Z" style="fill:#cf4327;"/><path d="M139.63,155.81a4.47,4.47,0,0,1,4-5.63c3.24-.43,4.4,2.14,3.86,5.24-.62,3.62,4.92,5.18,5.55,1.53.59-3.45.46-7.18-2.08-9.87a9.25,9.25,0,0,0-7.52-2.64,10.3,10.3,0,0,0-9.38,12.89c.88,3.59,6.43,2.07,5.55-1.53Z" style="fill:#cf4327;"/><path d="M146,101c-3.52-8.57-16.37-5.72-23.49-5.5a3.16,3.16,0,0,0-.69.1h-.07c-10.65,1.54-10.25,18.52-8.82,26.29,1,5.17,3.21,8.05,8.67,8.48,5.62.44,12.84,1.91,18.23-.37,4.81-2,6.67-6.77,7.37-11.64C147.89,113.24,148,105.85,146,101Z" style="fill:#eae2c2;"/><path d="M151.35,109.67c-1.25.08-2.51.08-3.76,0A26.67,26.67,0,0,0,146,101c-3.52-8.57-16.37-5.72-23.49-5.5a3.16,3.16,0,0,0-.69.1h-.07c-6.83,1-9.12,8.33-9.5,15.52H90.94c-3.7,0-3.71,5.75,0,5.75h21.32a45.82,45.82,0,0,0,.62,5c1,5.17,3.21,8.05,8.67,8.48,5.62.44,12.84,1.91,18.23-.37,4.81-2,6.67-6.77,7.37-11.64.13-.9.24-1.88.32-2.9,1.29,0,2.58,0,3.87,0a2.88,2.88,0,1,0,0-5.75ZM140,122.16c-2.83,4.47-7.45,3-11.92,2.63-4-.33-8,.82-9.53-3.66-1.5-4.31-1.46-18.48,4.3-19.91,4.62-.19,9.78-1.23,14.3-.18,4.14,1,3.95,4.06,4.28,7.8C141.82,113.08,142.38,118.43,140,122.16Z" style="fill:#3b301b;"/><path d="M129.48,117.45a4.94,4.94,0,0,1,.59-3.11c.46-.63,1.5-1.46,2.35-1.2,1,.32,1.73,2.39,1.6,3.34a2.23,2.23,0,0,0,1.51,2.65,2.17,2.17,0,0,0,2.65-1.51c.47-3.4-1.21-8-5-8.73a6.69,6.69,0,0,0-5.85,2c-1.78,1.78-2.23,4.09-2.19,6.53,0,2.77,4.35,2.78,4.31,0Z" style="fill:#3b301b;"/><path d="M106.1,93.09c5.37-4.77,6.28-12.39,3.62-18.82v0a3.14,3.14,0,0,0-.28-.67C104.2,64.35,91.2,63,83.2,69.68a15,15,0,0,0-4.68,13c-8.73-.31-17.85,2-21.49,10.84a14.39,14.39,0,0,0,2.46,15.37c-10.4,3.54-15.88,16.66-13.8,27.5,2.82,14.71,16.93,23.09,31.23,21.12A33.77,33.77,0,0,0,104,136.74a40.63,40.63,0,0,0-3.88-39.35A29.89,29.89,0,0,0,106.1,93.09Z" style="fill:#eae2c2;"/><path d="M168.13,201.79c13.58-3.59,12.33,13.32,12.29,21.73q-.09,17.77-.08,35.53,0,36.1.42,72.21c.08,7.4,11.59,7.42,11.51,0q-.48-44.12-.4-88.25,0-10.89.08-21.78c0-6.12.45-12.54-1.78-18.36-3.85-10.07-14.92-14.85-25.09-12.17-7.15,1.89-4.12,13,3.06,11.09Z" style="fill:#3b301b;"/><path d="M146.81,69.51a1.44,1.44,0,0,0-2.88,0c0,3.24-.61,6.65-3.07,9a7.7,7.7,0,0,1-2,1.36,8.14,8.14,0,0,0-.92-6.72c-2.74-4.12-8.78-3.5-9.93,1.5-1,4.25,2.33,7.68,6.19,8.58a18.36,18.36,0,0,1-4.09,4.45c-1.44,1.16.61,3.19,2,2a22.26,22.26,0,0,0,5.3-6.35C144,82.29,146.83,75.49,146.81,69.51ZM131.45,78a2.86,2.86,0,0,1-.58-3.08l4.19-.8c2,.69,1.1,4.43.43,6.41A4.77,4.77,0,0,1,131.45,78Z" style="fill:#eae2c2;"/><path d="M85.15,211.1a57.93,57.93,0,0,0,46.5,12.76A51.09,51.09,0,0,0,154,214.66c4.31-3.18,12.67-12.24,19-11.22,4.63.75,9.23-1.2,10.61-6,1.18-4.11-1.43-9.87-6-10.61-7.59-1.23-14.88.91-21.45,4.8-6.77,4-11.94,10.18-19.38,13.14-12.85,5.11-28.61,3-39.34-5.84-8.5-7-20.78,5.12-12.2,12.2Z" style="fill:#e5a024;"/><path d="M104.24,190.31c-2.29-5.16-8.53-9.9-12.94-13.18-5.62-4.19-12.09-7.64-19-9.06-9.92-2-22.56,1.09-25.82,11.93-2.84,9.45,1.82,21.36,10.75,25.75a2.88,2.88,0,0,0,3.52-.71L76,218.15c-2.14,2.75,1.78,6.6,4.2,3.89l17.25-19.35C100.4,199.4,106.44,195.25,104.24,190.31Z" style="fill:#cf4327;"/><path d="M83,334.14H78v-9c0-3.7-5.75-3.71-5.75,0v9H61.12c-3.7,0-3.71,5.75,0,5.75H83C86.69,339.89,86.69,334.14,83,334.14Z" style="fill:#3b301b;"/><path d="M141.66,334.14h-5v-9c0-3.7-5.75-3.71-5.75,0v9H119.8c-3.7,0-3.71,5.75,0,5.75h21.86C145.37,339.89,145.37,334.14,141.66,334.14Z" style="fill:#3b301b;"/><path d="M81.64,254.17c3.7,0,3.71-5.75,0-5.75s-3.71,5.75,0,5.75Z" style="fill:#3b301b;"/><path d="M61.32,271.43c3.7,0,3.71-5.75,0-5.75s-3.71,5.75,0,5.75Z" style="fill:#3b301b;"/><path d="M98.71,267.4v.38a2.88,2.88,0,0,0,5.75,0v-.38a2.88,2.88,0,0,0-5.75,0Z" style="fill:#3b301b;"/><path d="M121.15,253.79c3.7,0,3.71-5.75,0-5.75s-3.71,5.75,0,5.75Z" style="fill:#3b301b;"/><path d="M138.4,267.6c3.7,0,3.71-5.75,0-5.75s-3.71,5.75,0,5.75Z" style="fill:#3b301b;"/><path d="M137.25,233.85c3.7,0,3.71-5.75,0-5.75s-3.71,5.75,0,5.75Z" style="fill:#3b301b;"/><path d="M99.28,235.38c3.7,0,3.71-5.75,0-5.75s-3.71,5.75,0,5.75Z" style="fill:#3b301b;"/><path d="M61.32,235c3.7,0,3.71-5.75,0-5.75s-3.71,5.75,0,5.75Z" style="fill:#3b301b;"/><path d="M79,222.72c3.7,0,3.71-5.75,0-5.75s-3.71,5.75,0,5.75Z" style="fill:#3b301b;"/><path d="M104.65,192.43c3.7,0,3.71-5.75,0-5.75s-3.71,5.75,0,5.75Z" style="fill:#3b301b;"/><path d="M139.17,194c3.7,0,3.71-5.75,0-5.75s-3.71,5.75,0,5.75Z" style="fill:#3b301b;"/><path d="M121.91,183.22c3.7,0,3.71-5.75,0-5.75s-3.71,5.75,0,5.75Z" style="fill:#3b301b;"/><path d="M237.5,40.72a22.07,22.07,0,0,1-.25-5c.11-1.85-2.77-1.84-2.88,0a25.39,25.39,0,0,0,.35,5.77c.31,1.82,3.08,1,2.77-.76Z" style="fill:#3b301b;"/><path d="M248.57,56.87A32.86,32.86,0,0,1,243.1,52c-1.23-1.38-3.26.66-2,2a36.12,36.12,0,0,0,6.06,5.37c1.51,1.08,2.95-1.42,1.45-2.48Z" style="fill:#3b301b;"/><path d="M273.74,76.9c-2.41-6.07-7.31-10.06-12.87-13.19a1.44,1.44,0,0,0-1.45,2.48c4.83,2.73,9.44,6.15,11.55,11.48.67,1.7,3.46,1,2.77-.76Z" style="fill:#3b301b;"/><path d="M256,90.57c3.74,5.85,11.24,6.34,15.82,1.14,1.22-1.38-.81-3.42-2-2-3.29,3.73-8.52,3.79-11.31-.56-1-1.55-3.49-.11-2.48,1.45Z" style="fill:#3b301b;"/><path d="M272.31,66.42a23.36,23.36,0,0,0-14.63,9c-1.12,1.48,1.38,2.91,2.48,1.45a20.52,20.52,0,0,1,12.91-7.68c1.82-.33,1-3.11-.76-2.77Z" style="fill:#3b301b;"/><path d="M291.42,70.42a21.33,21.33,0,0,0-3.49-2,1.48,1.48,0,0,0-2,.52,1.45,1.45,0,0,0,.52,2,21.33,21.33,0,0,1,3.49,2,1.45,1.45,0,0,0,2-.52,1.47,1.47,0,0,0-.52-2Z" style="fill:#3b301b;"/><path d="M295.49,95.21a27.73,27.73,0,0,0,2.76-10.58c.09-1.85-2.79-1.85-2.88,0A24,24,0,0,1,293,93.75c-.78,1.67,1.7,3.13,2.48,1.45Z" style="fill:#3b301b;"/><path d="M287.69,115.88a31.5,31.5,0,0,1,1.88-8.21c.63-1.74-2.15-2.49-2.77-.76a34.29,34.29,0,0,0-2,9c-.15,1.85,2.73,1.84,2.88,0Z" style="fill:#3b301b;"/><path d="M292,134.12a31.74,31.74,0,0,1-2.4-5c-.64-1.72-3.42-1-2.77.76a36,36,0,0,0,2.69,5.69,1.44,1.44,0,0,0,2.48-1.45Z" style="fill:#3b301b;"/><path d="M226.47,130.65a23,23,0,0,1-1.74-6.23c-.22-1.82-3.1-1.84-2.88,0A27.83,27.83,0,0,0,224,132.1c.72,1.7,3.2.23,2.48-1.45Z" style="fill:#3b301b;"/><path d="M242.59,144.08a14.33,14.33,0,0,1-8.13-2.72c-1.5-1.08-2.94,1.41-1.45,2.48a17.07,17.07,0,0,0,9.58,3.12c1.85.06,1.85-2.82,0-2.88Z" style="fill:#3b301b;"/><path d="M262.67,140.37a48.16,48.16,0,0,0-7.3,1.33,1.44,1.44,0,0,0,.76,2.77,43.19,43.19,0,0,1,6.53-1.23c1.82-.19,1.84-3.07,0-2.88Z" style="fill:#3b301b;"/><path d="M287.89,148.71a31.32,31.32,0,0,0-11.38-6.93c-1.75-.61-2.51,2.17-.76,2.77a27.88,27.88,0,0,1,10.11,6.19c1.34,1.27,3.38-.76,2-2Z" style="fill:#3b301b;"/><path d="M247.19,184a23.14,23.14,0,0,0-1.09,5.54c-.14,1.85,2.73,1.84,2.88,0a20,20,0,0,1,1-4.78c.58-1.76-2.19-2.52-2.77-.76Z" style="fill:#3b301b;"/><path d="M262.46,168.51a29.83,29.83,0,0,0-6.4,3.6c-1.47,1.09,0,3.59,1.45,2.48a27,27,0,0,1,5.72-3.31c1.68-.7.94-3.49-.76-2.77Z" style="fill:#3b301b;"/><path d="M280.51,166.34q-2.07-.23-4.15-.27c-1.85,0-1.85,2.84,0,2.88q2.08,0,4.15.27a1.45,1.45,0,0,0,1.44-1.44,1.47,1.47,0,0,0-1.44-1.44Z" style="fill:#3b301b;"/><path d="M243.71,23.51c2.28-2.87-1.76-7-4.07-4.07l-5.36,6.73c-2-1-4-2-6.1-2.91-3.37-1.44-6.3,3.51-2.9,5q4.26,1.83,8.32,4.06a2.91,2.91,0,0,0,3.49-.45Z" style="fill:#3b301b;"/><path d="M228.54,107.84q-2.79,3.49-5.86,6.72l-4-2.18c-3.25-1.79-6.15,3.18-2.9,5l6,3.28a3,3,0,0,0,3.49-.45,103.53,103.53,0,0,0,7.35-8.27C234.9,109,230.85,104.95,228.54,107.84Z" style="fill:#3b301b;"/><path d="M253.35,199.8c-1.56-2.4-3.85-6.77-6.74-7.68-1.62-.51-3,.36-4.36,1.15l-5.36,3.1c-3.21,1.85-.31,6.82,2.9,5l3.3-1.91,1.65-1a4,4,0,0,0,.46-.15c.37.44.73.88,1.08,1.34.75,1,1.44,2,2.11,3C250.4,205.79,255.38,202.91,253.35,199.8Z" style="fill:#3b301b;"/><path d="M298.46,143.5a6.2,6.2,0,0,0,4.86,1.94c1.84-.11,1.85-3,0-2.88a3.4,3.4,0,0,1-2.83-1.09c-1.27-1.35-3.31.69-2,2Z" style="fill:#eae2c2;"/><path d="M312.14,144.68a17.84,17.84,0,0,0,6.1-1.73c1.66-.81.21-3.29-1.45-2.48a13.82,13.82,0,0,1-4.64,1.34c-1.82.19-1.84,3.07,0,2.88Z" style="fill:#eae2c2;"/><path d="M326.94,138.1a25.58,25.58,0,0,1,4.4-3.87c1.52-1,.08-3.54-1.45-2.48a28.82,28.82,0,0,0-5,4.32c-1.25,1.36.78,3.4,2,2Z" style="fill:#eae2c2;"/><path d="M339.31,130.64a10.76,10.76,0,0,1,4.27-.91,1.44,1.44,0,0,0,0-2.88,14.32,14.32,0,0,0-5.73,1.3,1.45,1.45,0,0,0-.52,2,1.47,1.47,0,0,0,2,.52Z" style="fill:#eae2c2;"/><path d="M299.23,157.3a7.89,7.89,0,0,0,6,2.32c1.84-.1,1.85-3,0-2.88a5,5,0,0,1-4-1.48,1.44,1.44,0,0,0-2,2Z" style="fill:#eae2c2;"/><path d="M316.36,160.37l4.22-1.15a1.44,1.44,0,0,0-.76-2.77l-4.22,1.15a1.44,1.44,0,0,0,.76,2.77Z" style="fill:#eae2c2;"/><path d="M330.19,155.25l6.13,1.16c1.81.34,2.58-2.43.76-2.77L331,152.48c-1.81-.34-2.58,2.43-.76,2.77Z" style="fill:#eae2c2;"/><path d="M343.38,159.95l3.1,3.42c1.24,1.38,3.27-.66,2-2l-3.1-3.42c-1.24-1.38-3.27.66-2,2Z" style="fill:#eae2c2;"/><path d="M349.63,170.82a4.32,4.32,0,0,1,1,2.34,1.47,1.47,0,0,0,1.44,1.44,1.45,1.45,0,0,0,1.44-1.44,7,7,0,0,0-1.36-3.79,1.49,1.49,0,0,0-2-.52,1.45,1.45,0,0,0-.52,2Z" style="fill:#eae2c2;"/><path d="M298.71,171.5a5.9,5.9,0,0,1,2.72.61,1.47,1.47,0,0,0,2-.52,1.45,1.45,0,0,0-.52-2,9.1,9.1,0,0,0-4.17-1,1.44,1.44,0,0,0,0,2.88Z" style="fill:#eae2c2;"/><path d="M310.25,176.33a10,10,0,0,1,2.6,2.9,1.44,1.44,0,0,0,2.48-1.45,13.59,13.59,0,0,0-3.63-3.93,1.45,1.45,0,0,0-2,.52,1.47,1.47,0,0,0,.52,2Z" style="fill:#eae2c2;"/><path d="M291.15,102.17l1.15-2.3a1.47,1.47,0,0,0-.52-2,1.45,1.45,0,0,0-2,.52l-1.15,2.3a1.47,1.47,0,0,0,.52,2,1.45,1.45,0,0,0,2-.52Z" style="fill:#3b301b;"/><path d="M285,123.55l.38.38a1.44,1.44,0,0,0,2-2l-.38-.38a1.44,1.44,0,0,0-2,2Z" style="fill:#3b301b;"/><path d="M279.17,69l1.15.37a1.44,1.44,0,1,0,.76-2.77l-1.15-.37a1.44,1.44,0,1,0-.76,2.77Z" style="fill:#3b301b;"/><path d="M294,76.07l.77,1.15a1.47,1.47,0,0,0,2,.52,1.45,1.45,0,0,0,.52-2l-.77-1.15a1.47,1.47,0,0,0-2-.52,1.45,1.45,0,0,0-.52,2Z" style="fill:#3b301b;"/><path d="M257.49,82.63l.39-1.53c.45-1.8-2.32-2.56-2.77-.76l-.39,1.53c-.45,1.8,2.32,2.56,2.77.76Z" style="fill:#3b301b;"/><path d="M273,83.78l-.38-1.92a1.44,1.44,0,1,0-2.77.76l.38,1.92a1.44,1.44,0,0,0,2.77-.76Z" style="fill:#3b301b;"/><path d="M251.82,61.52l.76,1.15a1.47,1.47,0,0,0,2,.52,1.45,1.45,0,0,0,.52-2l-.76-1.15a1.47,1.47,0,0,0-2-.52,1.45,1.45,0,0,0-.52,2Z" style="fill:#3b301b;"/><path d="M235.73,46.55l.77,1.53A1.44,1.44,0,1,0,239,46.63l-.77-1.53a1.44,1.44,0,1,0-2.48,1.45Z" style="fill:#3b301b;"/><path d="M226.48,136.32l.39.76a1.44,1.44,0,0,0,2.48-1.45l-.39-.76a1.44,1.44,0,1,0-2.48,1.45Z" style="fill:#3b301b;"/><path d="M248.41,146.75l.77-.38a1.44,1.44,0,1,0-1.45-2.48l-.77.38a1.44,1.44,0,1,0,1.45,2.48Z" style="fill:#3b301b;"/><path d="M268,142.42l.77,1.15a1.47,1.47,0,0,0,2,.52,1.45,1.45,0,0,0,.52-2l-.77-1.15a1.47,1.47,0,0,0-2-.52,1.45,1.45,0,0,0-.52,2Z" style="fill:#3b301b;"/><path d="M269.54,168.66c-.12.06.19,0,.08,0a1.49,1.49,0,0,0,2-.52,1.45,1.45,0,0,0-.52-2,3.34,3.34,0,0,0-3,0,1.45,1.45,0,0,0-.52,2,1.47,1.47,0,0,0,2,.52Z" style="fill:#3b301b;"/><path d="M252.39,179.24l.76-1.15a1.44,1.44,0,0,0-2.48-1.45l-.76,1.15a1.44,1.44,0,1,0,2.48,1.45Z" style="fill:#3b301b;"/><path d="M235.64,8.63l-1.5-5c-.53-1.77-3.31-1-2.77.76l1.5,5c.53,1.77,3.31,1,2.77-.76Z" style="fill:#3b301b;"/><path d="M246.79,8.24l2.68-6.52C250.18,0,247.4-.74,246.7,1L244,7.47c-.7,1.71,2.08,2.46,2.77.76Z" style="fill:#3b301b;"/><path d="M255.38,16.55l5-1.92c1.71-.66,1-3.44-.76-2.77l-5,1.92c-1.71.66-1,3.44.76,2.77Z" style="fill:#3b301b;"/><path d="M207.77,106.35a25.29,25.29,0,0,1-5.45-4.78c-1.21-1.41-3.24.64-2,2a28,28,0,0,0,6,5.23c1.56,1,3-1.48,1.45-2.48Z" style="fill:#3b301b;"/><path d="M213.06,99.27a11.19,11.19,0,0,1-2.84-3.93,1.45,1.45,0,0,0-2-.52,1.47,1.47,0,0,0-.52,2A13.14,13.14,0,0,0,211,101.3c1.38,1.23,3.42-.8,2-2Z" style="fill:#3b301b;"/><path d="M221.56,94.9l-1.12-4.23a1.44,1.44,0,0,0-2.77.76l1.12,4.23a1.44,1.44,0,0,0,2.77-.76Z" style="fill:#3b301b;"/><path d="M205.11,115.69l-2.68.77a1.44,1.44,0,0,0,.76,2.77l2.68-.77a1.44,1.44,0,0,0-.76-2.77Z" style="fill:#3b301b;"/><path d="M239.56,214.62l-2.68,5c-.88,1.63,1.6,3.08,2.48,1.45l2.68-5c.88-1.63-1.6-3.08-2.48-1.45Z" style="fill:#3b301b;"/><path d="M248.19,215.34a14.26,14.26,0,0,0,.82,5.75c.62,1.73,3.4,1,2.77-.76a12.13,12.13,0,0,1-.72-5c.12-1.85-2.76-1.84-2.88,0Z" style="fill:#3b301b;"/><path d="M257.43,211.76l2.3,1.92a1.48,1.48,0,0,0,2,0,1.45,1.45,0,0,0,0-2l-2.3-1.92a1.48,1.48,0,0,0-2,0,1.45,1.45,0,0,0,0,2Z" style="fill:#3b301b;"/><path d="M483.38,286.87c-11.64,3.54-22.26,9.33-33.23,14.47-3.44,1.61-7.45,3.31-11.18,5.42a306.77,306.77,0,0,0,19-64.07,2.9,2.9,0,0,0-4.81-2.8,217.93,217.93,0,0,0-56.34,75.68c-.28-2-.57-3.9-.76-5.84-.9-9-1.28-18-3.12-26.92-.63-3.07-4.6-2.37-5.55,0a143.59,143.59,0,0,0-8.47,29.39c-1.22,7.29-3.11,16.16-2.15,23.59,1.73,13.29,20,8.29,29,8.23,14.59-.1,31.71,3,44.21-6.58,7.74-5.9,14.19-14.29,20.07-21.94a279.07,279.07,0,0,0,16.5-24.28l.07-.12A2.91,2.91,0,0,0,483.38,286.87Z" style="fill:#e5a024;"/><path d="M296.14,313.36a2.38,2.38,0,0,0-3.2-1.37,143.28,143.28,0,0,0-19.5,8.94,232.73,232.73,0,0,0,7.28-26.54c.63-3-2.58-4.53-4.81-2.8a140.18,140.18,0,0,0-24.16,24q-.5-10.2-1.51-20.37c-.27-2.71-3.8-4.08-5.36-1.45a165,165,0,0,0-14.19,30.57c-3.65-3.39-9.07-6.22-11.75-8.11-2.19-1.55-4.73,1-4.23,3.25,1.58,7.07,3.22,18.17,10.06,22.46,2.82,1.77,6.32,1.72,9.53,1.69,6.44,0,12.88-.18,19.33-.28,9.61-.14,19.22,1.09,26.9-5.69a64.66,64.66,0,0,0,9.35-11c2-2.75,3.27-7.81,5.85-9.88A2.33,2.33,0,0,0,296.14,313.36Z" style="fill:#3b301b;"/><path d="M51.18,159.4a83.32,83.32,0,0,0-8.58,47.41c.55,4.72,8,4.78,7.48,0a76.39,76.39,0,0,1,7.56-43.64c2.16-4.29-4.29-8.08-6.46-3.77Z" style="fill:#db6653;"/><path d="M66.79,183.38c2.37-2.15,8.55,2.47,10.34,3.59a67.48,67.48,0,0,1,9.49,7.29c3.56,3.23,8.86-2,5.29-5.29-6.73-6.12-21.27-19.17-30.41-10.88-3.57,3.24,1.73,8.52,5.29,5.29Z" style="fill:#db6653;"/><path d="M420.53,134c10.13,10,9.7,24.68,9.2,37.9-.18,4.81,7.3,4.81,7.48,0,.58-15.34.27-31.7-11.39-43.19-3.43-3.38-8.72,1.9-5.29,5.29Z" style="fill:#db6653;"/><path d="M295.31,208.91a14.73,14.73,0,0,1,5.39-14.22c3.78-2.88.06-9.37-3.77-6.46a22.62,22.62,0,0,0-8.83,22.67c.88,4.72,8.09,2.72,7.21-2Z" style="fill:#db6653;"/><path d="M245,326.45a24.69,24.69,0,0,1,1.82-10.38c.8-1.87.55-4-1.34-5.12-1.56-.94-4.33-.51-5.12,1.34a33.44,33.44,0,0,0-2.84,14.16c.12,4.8,7.6,4.82,7.48,0Z" style="fill:#574730;"/><path d="M260.84,327.4a41.55,41.55,0,0,1,6-12.06c2.79-3.94-3.7-7.68-6.46-3.77a48,48,0,0,0-6.72,13.85c-1.4,4.62,5.81,6.59,7.21,2Z" style="fill:#574730;"/><path d="M273.84,335.23l4.6-4.6a3.74,3.74,0,0,0-5.29-5.29l-4.6,4.6a3.74,3.74,0,0,0,5.29,5.29Z" style="fill:#574730;"/><path d="M408.65,329.67a114.62,114.62,0,0,1,30.19-57.25c3.36-3.45-1.93-8.75-5.29-5.29a121.8,121.8,0,0,0-32.11,60.55c-1,4.7,6.25,6.71,7.21,2Z" style="fill:#f3bc63;"/><path d="M390,332.59A66.32,66.32,0,0,1,394.46,306c1.73-4.5-5.5-6.44-7.21-2a71.69,71.69,0,0,0-4.73,28.61c.18,4.8,7.66,4.82,7.48,0Z" style="fill:#f3bc63;"/><path d="M435.54,333a75,75,0,0,1,19.31-23.83c3.72-3.05-1.59-8.32-5.29-5.29a80.2,80.2,0,0,0-20.47,25.34c-2.2,4.27,4.25,8.06,6.46,3.77Z" style="fill:#f3bc63;"/><path d="M269.57,291.93v-.47c0-4.81-7.48-4.82-7.48,0v.47c0,4.81,7.48,4.82,7.48,0v-.47c0-4.81-7.48-4.82-7.48,0v.47c0,4.81,7.48,4.82,7.48,0Z" style="fill:#f3bc63;"/><path d="M298.39,304.55l3.84-3.84a3.74,3.74,0,1,0-5.29-5.29l-3.84,3.84a3.74,3.74,0,1,0,5.29,5.29Z" style="fill:#f3bc63;"/><path d="M103,148.11A19.3,19.3,0,0,0,120.09,159c4.81.11,4.81-7.37,0-7.48a11.92,11.92,0,0,1-10.63-7.21c-2-4.36-8.48-.57-6.46,3.77Z" style="fill:#f3bc63;"/><path d="M115,93.81l6.14-1.53a3.74,3.74,0,1,0-2-7.21L113,86.6a3.74,3.74,0,0,0,2,7.21Z" style="fill:#f3bc63;"/><path d="M125.7,217.25a72.82,72.82,0,0,0,21.45-7.37c6.88-3.67,12.8-9.92,20.74-11.07,4.74-.69,2.73-7.9-2-7.21-7.52,1.09-13,6.12-19.24,9.94a66.26,66.26,0,0,1-23,8.5c-4.73.85-2.73,8.06,2,7.21Z" style="fill:#f3bc63;"/><path d="M57.35,295a132.59,132.59,0,0,1-.09,23c-.43,4.79,7,4.76,7.48,0a132.59,132.59,0,0,0,.09-23c-.4-4.76-7.88-4.8-7.48,0Z" style="fill:#f3bc63;"/><path d="M116.35,298.07v21.48c0,4.81,7.48,4.82,7.48,0V298.07c0-4.81-7.48-4.82-7.48,0Z" style="fill:#f3bc63;"/></g></g></svg>