<svg xmlns="http://www.w3.org/2000/svg" viewBox="0 0 514.25 351.57"><title>Payment processed + hand shake</title><g id="Layer_2" data-name="Layer 2"><g id="Layer_1-2" data-name="Layer 1"><path d="M127.06,250.35c-12.36-36.39-26.62-73-44.89-106.84-1.28-2.36-4.44-1-4.66,1.26a444.46,444.46,0,0,0,1.85,101.7c-12.65-24.25-25.77-48.27-41.48-70.7-1.31-1.87-4.8-1.41-4.66,1.26A473.31,473.31,0,0,0,56.06,298.86,294.4,294.4,0,0,0,3.72,264.19a2.52,2.52,0,0,0-3.42,3.42A177.79,177.79,0,0,0,50.55,329a2.8,2.8,0,0,0,4.32-1.37L83.35,332c-.21,1.9,1.65,3.92,3.59,2.52C100.83,324.5,115.21,314,124,298.94,133.17,283.32,132.75,267.12,127.06,250.35Z" style="fill:#eae2c2;"/><path d="M124.53,324.55c-1.88-12.87-8.32-24.91-14.47-36.19-4.08-7.48-8.24-15.36-13.78-21.88-1.91-2.25-4-4.32-6-6.49-1.28-1.39-5.17-4.64-5.38-6.63A2.26,2.26,0,0,0,82.19,251a2.09,2.09,0,0,0-2.32,2.38,163.54,163.54,0,0,0,3.89,44.73,280.9,280.9,0,0,0-56.4-64.9c-1.46-1.23-4.53-.59-4.27,1.77,3.48,31.37,17.28,59.81,34.7,85.69-2.28-1.16-4.58-2.26-6.76-3.43-8.14-4.36-15.3-8.57-24.41-10.74a2.53,2.53,0,0,0-2.82,3.67c6.89,13.55,20,23.49,33.49,29.94,15.85,7.58,33.11,9.78,50.48,8,5.92-.61,11.76-1.64,14.82-7.3C125.25,335.86,125.32,330,124.53,324.55Z" style="fill:#e5a024;"/><path d="M510.82,272.81A182.31,182.31,0,0,0,458.88,297a631.79,631.79,0,0,0,39.81-79.19c1.18-2.83-2.76-4.18-4.6-2.68a281.36,281.36,0,0,0-54.53,59.69A369.79,369.79,0,0,0,449.63,207c.14-2.56-3-3.39-4.69-1.94-34.68,29.78-46.18,75.63-54.82,118.6-.67,3.34,4.24,4.82,5.21,1.78l21.4,8.79c-.7,1.7.08,4,2.37,3.72,39.67-3.94,68.48-33.08,94.4-60.59C515.34,275.45,513.53,272,510.82,272.81Z" style="fill:#cf4327;"/><path d="M483.81,310.25c-9.48,3.27-21.16,3.71-31.09,7.22a289.66,289.66,0,0,0,31.85-52.36,2.52,2.52,0,0,0-3.42-3.42,196.32,196.32,0,0,0-58.25,44,301.06,301.06,0,0,0,6.39-33.35v0h0c0-.22.06-.44.09-.66.37-2.83-4.2-3.32-4.91-.66-.88,3.33-6.54,6.72-9,8.8a75.34,75.34,0,0,0-10.54,10.52A166.31,166.31,0,0,0,382.42,327c-2.45,5.38-8.68,15.54.36,18.28,2.62.79,5.54.5,8.23.49,4.44,0,8.89,0,13.33-.06,8.34-.07,16.67-.26,25-.7,22.26-1.31,41.95-14.93,56.9-30.61C487.87,312.72,486.27,309.4,483.81,310.25Z" style="fill:#3b301b;"/><path d="M335.1,200.82q-30.34-1.63-60.54-5.19" style="fill:#e5a024;"/><path d="M259.68,189.84a17.8,17.8,0,0,0-.23,11.27,5.47,5.47,0,0,0,1.22,2.18,6.63,6.63,0,0,0,3.1,1.42,364,364,0,0,0,71.32,11.12c7.85.43,15.35-7.21,15-15-.38-8.49-6.59-14.54-15-15q-16.51-.9-33-2.36-8.65-.76-17.28-1.68c-7.3-.78-13-.34-20.07,2.42A9.21,9.21,0,0,0,259.68,189.84Z" style="fill:#e5a024;"/><path d="M451.45,276.8a11.59,11.59,0,0,0-6.13,1.14c.19-.4.39-.8.58-1.22,1.7-3.83,3.85-9,1-12.88-2.2-3-6.08-3.35-9.4-2.26,3.16-7.46,3.76-15.47-4.26-18.4-5.58-2-11.74.08-16.84,2.42a67.36,67.36,0,0,0-13.36,8.21c0-1.18.05-2.34.07-3.43.06-4.83-.27-9.64-.15-14.47.45-18.09-.24-36.16-.31-54.24,0-9.42,1.2-21.85-7.44-28.19-11.86-8.69-28,1-40.44,2.69l-.09,0C329.48,159.72,314.77,179,306.84,202c-9.54,27.65-11.88,60.83,3,87.11,22.26,39.24,75.84,49,114.76,30.67,13-6.15,24.48-16.3,30.07-29.79C456.57,285.46,458.47,277.73,451.45,276.8Z" style="fill:#e5a024;"/><path d="M144.38,92.14,142.4,71c-.38-4-3.18-7.5-7.5-7.5-3.76,0-7.88,3.44-7.5,7.5l1.26,13.4L121.1,69.87c-4.47-8.56-17.42-1-13,7.57l7.32,14-8.38-7.13c-3.08-2.62-7.58-3-10.61,0-2.69,2.69-3.1,8,0,10.61l16.19,13.79c3.08,2.62,7.58,3,10.61,0a7.94,7.94,0,0,0,1.45-8.73,8.55,8.55,0,0,0,6-3.84,7.1,7.1,0,0,0,6.17,3.48C140.65,99.64,144.77,96.19,144.38,92.14Z" style="fill:#cf4327;"/><path d="M203,189.43a225.53,225.53,0,0,0-28.43-72.7l17.27-15.42a2.54,2.54,0,0,0,0-3.54c-18.67-20.21-53.2-16.09-73.35-.68-26,19.89-32.16,52.32-31.17,83.29C87.86,199,89.61,217.54,92,236a53.38,53.38,0,0,0-12.17-8.37c-4.8-2.38-12.21-6-17.72-4-7.74,2.85-4,11.46,1.48,19-7.67-3.33-15.52-4.44-16.21,4.22-.62,7.89,3.79,15.2,9.35,21.45-2.93-1.41-6-2.82-9.33-2.6-6.8.45-7.6,7-6,12.33,4.46,15.13,15.31,28,28.47,36.4,28.54,18.27,71.58,19.79,100.12.71,15.79-10.56,26.2-27,31.92-44.89C209.71,244.18,208.22,215.86,203,189.43Z" style="fill:#3b301b;"/><path d="M197.91,169.86a2.18,2.18,0,0,0-.18-2.13,230.58,230.58,0,0,0-22.89-50.94L192,101.49a2.79,2.79,0,0,0,0-3.89c-20.43-22.12-58-15.27-78.23,3.09-11.61,10.52-19.56,24.75-23.37,39.87a108.8,108.8,0,0,0-2.4,13.1c-.54,4.3-1.8,10.1-1,14.42,1.1,6.1,7.56,11,13.18,12.71,13.06,3.89,19.92-5.78,23.1-16.49,5,10.49,14,19.43,26.72,16.43,9.33-2.2,13-10.11,14.23-18.67,2.69,5.26,6.33,9.9,11.83,12.47,7,3.26,16.32,2.82,21.24-3.66A2.37,2.37,0,0,0,197.91,169.86Z" style="fill:#cf4327;"/><path d="M127.69,341h-2.19a150.66,150.66,0,0,1,.68-17.83c.31-3.2-4.69-3.18-5,0a150.7,150.7,0,0,0-.64,20,2.38,2.38,0,0,0,.73,1.69,2.52,2.52,0,0,0,2.08,1.14h4.33a2.5,2.5,0,1,0,0-5Z" style="fill:#3b301b;"/><path d="M144.69,340.33h-2.83V324.49c0-3.22-5-3.22-5,0v18.67a2.49,2.49,0,0,0,3.64,2.17h4.2a2.5,2.5,0,0,0,0-5Z" style="fill:#3b301b;"/><path d="M163.47,95.91c-17.94-2.43-36.13,14.81-41.35,30.77a2.52,2.52,0,0,0,3.08,3.08,75.25,75.25,0,0,0,23.59-9.29c7.87-5.31,13.86-12.21,16.43-21.48C165.54,97.81,164.81,96.09,163.47,95.91Z" style="fill:#eae2c2;"/><path d="M153,109.26a6.34,6.34,0,0,0-4.71-4.68C142.5,103,136,108.81,138,114.86a6.27,6.27,0,0,0,3.86,4.09c2.47.83,5-.24,7-1.72.09-.06.16-.14.24-.21l.27-.18C151.63,115,153.63,112.32,153,109.26Z" style="fill:#3b301b;"/><path d="M404.78,129.93c-2.62-12.76-5.56-24.43-14.86-34.12a38.58,38.58,0,0,0-33.14-11.57c-10.17,1.23-20.26,5.48-26.69,13.72-8,10.31-6.47,22.22-7,34.31-10-2.36-21.57,3.18-23.54,14-2.72,15,11.45,21.53,23.75,23.29,14.63,2.09,30.17,1.54,44.92.93,9.67-.4,20.39-1.71,28.67-7.13C408.82,155.51,407.23,142.38,404.78,129.93Z" style="fill:#e5a024;"/><path d="M440.83,145.82c-2.39-8.39-9.86-14.31-18.28-14.22,2.75-11.66,2-24.06-3.67-34.83C413.32,86.18,403.11,77.45,391,75.84c-3.3-.44-6.74-.38-10-1.24-4.1-1.1-5.59-3-7.43-6.61-2.6-5.11-5.6-9.74-10.08-13.41-8.75-7.16-20.06-8.49-30.68-5.19-9,3.24-17.22,9.32-20.42,18.69-3.13,9.16.45,18.64,7.75,24.69,8,6.6,18.44,7.13,28.31,6.35,8.18-.64,21.39-3.7,26.75,4.62,3.42,5.31,3.45,12.25,3.68,18.34.29,7.54.53,15.09.8,22.63.36,9.94.65,21.09,7.5,29,11.47,13.29,37.27,14.92,48.34.27A33.63,33.63,0,0,0,440.83,145.82Z" style="fill:#cf4327;"/><path d="M370.46,117.14c-3.06-8.33-12-11.8-20.33-9.07-10.06,3.31-13.65,14.8-9.56,24a2.58,2.58,0,0,0,.29.68,2.53,2.53,0,0,0,.41.59c5,7.3,14.29,8.92,22,4.73C370.9,133.94,373.37,125.06,370.46,117.14Z" style="fill:#eae2c2;"/><path d="M361.61,117.69a9,9,0,0,0-10.82-1,9.08,9.08,0,0,0-2.25,12.77,2.53,2.53,0,0,0,.5.62,2.56,2.56,0,0,0,.58.47,9,9,0,0,0,11.56-.53C364.52,126.89,365,121,361.61,117.69Z" style="fill:#3b301b;"/><path d="M318.15,126.95a2.92,2.92,0,0,0-.3-.63,2.85,2.85,0,0,0-.44-.61,12.11,12.11,0,0,0-15.86-3.35c-6.21,3.81-6.09,12.17-.81,16.76a12,12,0,0,0,14.31.94C319.66,137,320.32,131.65,318.15,126.95Z" style="fill:#cf4327;"/><path d="M325.46,147.24c-2.06,7.2,1.48,14.82,9.72,14.7,7.93-.11,11.86-7.52,9.64-14.61-1.05-3.37-6.36-1.93-5.3,1.46,1.16,3.69,0,7.5-4.34,7.65-4.6.15-5.48-4-4.41-7.74,1-3.41-4.33-4.86-5.3-1.46Z" style="fill:#cf4327;"/><path d="M167.82,103.88a8.49,8.49,0,0,0,13.83,4.57c5-4.43,2.8-11.86-2.93-14.27-3-1.25-4.26,3.59-1.33,4.82a3.44,3.44,0,0,1,.71,5.9c-2.22,1.69-4.88.13-5.46-2.35-.74-3.13-5.56-1.8-4.82,1.33Z" style="fill:#3b301b;"/><path d="M265,185.25l1.28-.29c4.39-1,2.53-7.77-1.86-6.75q-9,2.1-18.13,3.58a7.65,7.65,0,0,0-2.85-1.08,19.07,19.07,0,0,0-5.79.22c-9.68,1.37-19.62,1.58-29.45,2.45q-16.86,1.5-33.76,2.43c-7.82.43-15.38,6.59-15,15,.35,7.76,6.61,15.46,15,15,11.15-.61,22-1.62,33-3.17,3.65-.51,7.16-.92,10.81-1.58,5.23-.94,10.5-1.61,15.77-2.31a186.87,186.87,0,0,0,27.52-3.6c3.45-.71,3-5,.6-6.39l1.09-.23c3.35-.73,3.06-4.8.81-6.29l1.53-.26C269.62,191.31,268.5,185.81,265,185.25Z" style="fill:#3b301b;"/><path d="M238,187.13c4.23-5.14,10.65-11.13,17.85-8.69,3.05,1,4.36-3.79,1.33-4.82-8.94-3-17.31,3.41-22.71,10-2,2.47,1.49,6,3.54,3.54Z" style="fill:#3b301b;"/><path d="M274.7,183.39c-5.06-6.93-11.6-8.52-20.07-7.73a20.21,20.21,0,0,0-16.78,13.1c-1,3.05,3.79,4.37,4.82,1.33,1.84-5.43,7.75-9.27,13.3-9.51,6-.27,10.75.32,14.41,5.34,1.88,2.57,6.22.08,4.32-2.52Z" style="fill:#e5a024;"/><path d="M385.38,263.09a22.8,22.8,0,0,1-2,7.07c-.9,1.62-1,2.36-2.42,1.21s-1.59-3.77-1.59-5.33c0-3.12-4.52-3.71-5.4-.73-.72,2.43-.39,7.58-2.9,8.2s-2.62-1.19-3.57-3.64a29.48,29.48,0,0,1-1.35-5.15c-.61-3.23-5.17-2.17-5.4.73-.17,2.13,0,5.87-1.22,7.77q-.17,3.17-3.09,1.08l-.85-2c-1-2.91-.9-6.06-1-9.09s-.4-6.33-.61-9.49c-.62-9-1.11-18-.84-27,.41-14,2.31-39.15,21.63-38,3.54.2,3.52-5.3,0-5.5-18.47-1.06-24.58,17.32-26.36,32.48-2,17-.39,34.51.87,51.53.37,5.06,2.16,14.65,9,14.36,3.16-.14,5-2.34,6.14-5.19,1.5,2.44,3.53,4.26,6.29,4.28,3.65,0,5.44-2.15,6.5-4.92a6.29,6.29,0,0,0,5.19,2.44c5.77-.26,7.64-9.32,8.38-13.59C391.29,261.09,386,259.61,385.38,263.09Z" style="fill:#cf4327;"/><path d="M361.19,321.83v18.83h-3.5c-3.22,0-3.22,5,0,5h5.67a2.35,2.35,0,0,0,2.41-2.42,2.39,2.39,0,0,0,.42-1.41v-20C366.19,318.61,361.19,318.61,361.19,321.83Z" style="fill:#e5a024;"/><path d="M383.09,321.83c0-3.22-5-3.22-5,0v18.83h-3.5c-3.22,0-3.22,5,0,5h5.67a2.35,2.35,0,0,0,2.41-2.42,2.39,2.39,0,0,0,.42-1.41Z" style="fill:#e5a024;"/><path d="M318.76,187.84l-2,3a2.77,2.77,0,0,0,1,3.76,2.82,2.82,0,0,0,3.76-1l2-3a2.77,2.77,0,0,0-1-3.76,2.82,2.82,0,0,0-3.76,1Z" style="fill:#cf4327;"/><path d="M310.76,203.9l-1.45,5a2.75,2.75,0,1,0,5.3,1.46l1.45-5a2.75,2.75,0,0,0-5.3-1.46Z" style="fill:#cf4327;"/><path d="M306.88,224.67l-.5,4a2.75,2.75,0,0,0,2.75,2.75,2.83,2.83,0,0,0,2.75-2.75l.5-4a2.75,2.75,0,0,0-2.75-2.75,2.83,2.83,0,0,0-2.75,2.75Z" style="fill:#cf4327;"/><path d="M305.78,244.66v4a2.75,2.75,0,0,0,5.5,0v-4a2.75,2.75,0,1,0-5.5,0Z" style="fill:#cf4327;"/><path d="M306.38,262.39l1,3.5a2.75,2.75,0,1,0,5.3-1.46l-1-3.5a2.75,2.75,0,1,0-5.3,1.46Z" style="fill:#cf4327;"/><path d="M310.87,278.89l1,3a2.75,2.75,0,0,0,5.3-1.46l-1-3a2.75,2.75,0,1,0-5.3,1.46Z" style="fill:#cf4327;"/><path d="M319.65,296.55l2,3a2.75,2.75,0,0,0,4.75-2.78l-2-3a2.75,2.75,0,0,0-4.75,2.78Z" style="fill:#cf4327;"/><path d="M333.64,310.54l2.5,1.5a2.75,2.75,0,1,0,2.78-4.75l-2.5-1.5a2.75,2.75,0,1,0-2.78,4.75Z" style="fill:#cf4327;"/><path d="M346.58,318.11l1,1a2.75,2.75,0,0,0,3.89-3.89l-1-1a2.75,2.75,0,0,0-3.89,3.89Z" style="fill:#cf4327;"/><path d="M316.76,218.16l-.51,4a2.75,2.75,0,0,0,2.75,2.75,2.83,2.83,0,0,0,2.75-2.75l.51-4a2.75,2.75,0,0,0-2.75-2.75,2.83,2.83,0,0,0-2.75,2.75Z" style="fill:#cf4327;"/><path d="M324.62,198.76l-1.49,3a2.75,2.75,0,0,0,4.75,2.78l1.49-3a2.75,2.75,0,0,0-4.75-2.78Z" style="fill:#cf4327;"/><path d="M315.88,236.93a15.75,15.75,0,0,0-.6,5.23,2.75,2.75,0,0,0,5.5,0,10,10,0,0,1,.4-3.77,2.75,2.75,0,1,0-5.3-1.46Z" style="fill:#cf4327;"/><path d="M316.4,255.94a5.14,5.14,0,0,0,1.17,4.68,2.76,2.76,0,0,0,3.89,0,2.82,2.82,0,0,0,0-3.89c.12.15.37.48.13.12q-.1-.19,0,.12t0,0c0,.1,0,.65,0,.28,0-.57-.16.68,0,.13a2.75,2.75,0,0,0-5.3-1.46Z" style="fill:#cf4327;"/><path d="M318.88,271.39l.5,2.5a2.77,2.77,0,0,0,3.38,1.92,2.82,2.82,0,0,0,1.92-3.38l-.5-2.5A2.77,2.77,0,0,0,320.8,268a2.82,2.82,0,0,0-1.92,3.38Z" style="fill:#cf4327;"/><path d="M325.65,287.55l1.5,2a3,3,0,0,0,1.64,1.26,2.81,2.81,0,0,0,2.12-.28c1.13-.73,1.91-2.53,1-3.76l-1.5-2a3,3,0,0,0-1.64-1.26,2.81,2.81,0,0,0-2.12.28c-1.13.73-1.91,2.53-1,3.76Z" style="fill:#cf4327;"/><path d="M334.72,299l1,1.49a2.75,2.75,0,1,0,4.75-2.78l-1-1.49a2.75,2.75,0,0,0-4.75,2.78Z" style="fill:#cf4327;"/><path d="M330.88,272.89l.5,2a2.75,2.75,0,1,0,5.3-1.46l-.5-2a2.75,2.75,0,1,0-5.3,1.46Z" style="fill:#cf4327;"/><path d="M325.83,255.4l.52,3a2.76,2.76,0,0,0,3.38,1.92,2.83,2.83,0,0,0,1.92-3.38l-.52-3a2.76,2.76,0,0,0-3.38-1.92,2.83,2.83,0,0,0-1.92,3.38Z" style="fill:#cf4327;"/><path d="M325.82,241.41a3,3,0,0,1,.08.31q.06.31,0-.21a5,5,0,0,1,0,.63l0-.31a4.16,4.16,0,0,1-.09.41l-.06.2q.23-.49,0-.08a2.75,2.75,0,0,0,4.75,2.78,7.25,7.25,0,0,0,.58-5.18,2.75,2.75,0,1,0-5.3,1.46Z" style="fill:#cf4327;"/><path d="M325.88,224.93l-.5,1.5a2.77,2.77,0,0,0,1.92,3.38,2.81,2.81,0,0,0,3.38-1.92l.5-1.5a2.77,2.77,0,0,0-1.92-3.38,2.81,2.81,0,0,0-3.38,1.92Z" style="fill:#cf4327;"/><path d="M329.95,211.45l-.49,1.5a2.77,2.77,0,0,0,1.92,3.38,2.81,2.81,0,0,0,3.38-1.92l.49-1.5a2.77,2.77,0,0,0-1.92-3.38,2.81,2.81,0,0,0-3.38,1.92Z" style="fill:#cf4327;"/><path d="M335.88,258.39l.5,2.5a2.77,2.77,0,0,0,3.38,1.92,2.82,2.82,0,0,0,1.92-3.38l-.5-2.5A2.77,2.77,0,0,0,337.8,255a2.82,2.82,0,0,0-1.92,3.38Z" style="fill:#cf4327;"/><path d="M333.41,232.44a7.2,7.2,0,0,0,.71,5.13,2.78,2.78,0,0,0,3.76,1,2.81,2.81,0,0,0,1-3.76q-.1-.17-.18-.35l.13.3s-.28-.9-.13-.39,0-.18,0-.31c0-.73-.11.42,0-.14a2.75,2.75,0,0,0-5.3-1.46Z" style="fill:#cf4327;"/><path d="M421.42,262l3-2a2.75,2.75,0,1,0-2.78-4.75l-3,2a2.75,2.75,0,1,0,2.78,4.75Z" style="fill:#cf4327;"/><path d="M412,273.15l2-2a2.75,2.75,0,0,0-3.89-3.89l-2,2a2.75,2.75,0,0,0,3.89,3.89Z" style="fill:#cf4327;"/><path d="M424.4,276.51l1.5-1a2.75,2.75,0,0,0-2.78-4.75l-1.5,1a2.75,2.75,0,0,0,2.78,4.75Z" style="fill:#cf4327;"/><path d="M436.91,277.53l1-.51a2.77,2.77,0,0,0,1-3.76,2.82,2.82,0,0,0-3.76-1l-1,.51a2.77,2.77,0,0,0-1,3.76,2.82,2.82,0,0,0,3.76,1Z" style="fill:#cf4327;"/><path d="M423.93,289.56l1.51-1a2.75,2.75,0,0,0-2.78-4.75l-1.51,1a2.75,2.75,0,1,0,2.78,4.75Z" style="fill:#cf4327;"/><path d="M446.41,294.55l.51-1a2.75,2.75,0,0,0-4.75-2.78l-.51,1a2.75,2.75,0,1,0,4.75,2.78Z" style="fill:#cf4327;"/><path d="M429,307.11l2-2a2.75,2.75,0,0,0-3.89-3.89l-2,2a2.75,2.75,0,0,0,3.89,3.89Z" style="fill:#cf4327;"/><path d="M433.41,296l1.5-1.5a2.75,2.75,0,0,0-3.89-3.89l-1.5,1.5a2.75,2.75,0,1,0,3.89,3.89Z" style="fill:#cf4327;"/><path d="M412.54,302.67l1.5-1.5a2.75,2.75,0,1,0-3.89-3.89l-1.5,1.5a2.75,2.75,0,0,0,3.89,3.89Z" style="fill:#cf4327;"/><path d="M409.9,288l1.5-2a2.76,2.76,0,0,0,.28-2.12,2.8,2.8,0,0,0-1.26-1.64,2.78,2.78,0,0,0-2.12-.28,3.21,3.21,0,0,0-1.64,1.26l-1.5,2a2.76,2.76,0,0,0-.28,2.12,2.8,2.8,0,0,0,1.26,1.64,2.78,2.78,0,0,0,2.12.28A3.21,3.21,0,0,0,409.9,288Z" style="fill:#cf4327;"/><path d="M412.92,315l2-1a2.77,2.77,0,0,0,1-3.76,2.82,2.82,0,0,0-3.76-1l-2,1a2.77,2.77,0,0,0-1,3.76,2.82,2.82,0,0,0,3.76,1Z" style="fill:#cf4327;"/><path d="M392,321.91h1a2.75,2.75,0,0,0,0-5.5h-1a2.75,2.75,0,0,0,0,5.5Z" style="fill:#cf4327;"/><path d="M183.64,221.5a5.89,5.89,0,0,0,.71,4.44,2.5,2.5,0,1,0,4.32-2.52,2.49,2.49,0,0,1-.24-.43q.21.52.08.14a2.44,2.44,0,0,1-.06-.24q-.06-.29,0,.26a2.41,2.41,0,0,1,0-.25c0-.65-.11.43,0-.07a2.5,2.5,0,0,0-4.82-1.33Z" style="fill:#eae2c2;"/><path d="M193.53,234.66v3.5a2.5,2.5,0,0,0,5,0v-3.5a2.5,2.5,0,0,0-5,0Z" style="fill:#eae2c2;"/><path d="M180.71,244.51l-.5,3a2.56,2.56,0,0,0,1.75,3.08,2.53,2.53,0,0,0,3.08-1.75l.5-3a2.56,2.56,0,0,0-1.75-3.08,2.53,2.53,0,0,0-3.08,1.75Z" style="fill:#eae2c2;"/><path d="M191,258l-1,2a2.5,2.5,0,1,0,4.32,2.52l1-2A2.5,2.5,0,0,0,191,258Z" style="fill:#eae2c2;"/><path d="M177.87,273.9l-1.5,2.5a2.5,2.5,0,1,0,4.32,2.52l1.5-2.5a2.5,2.5,0,1,0-4.32-2.52Z" style="fill:#eae2c2;"/><path d="M186.66,281.51a6.51,6.51,0,0,1-.52,1.53c-.14.28-.31.54-.47.8s-.21.29-.08.14l-.35.4a2.5,2.5,0,0,0,3.54,3.54,11.67,11.67,0,0,0,2.7-5.08,2.5,2.5,0,0,0-4.82-1.33Z" style="fill:#eae2c2;"/><path d="M172,299l-2,3a2.51,2.51,0,0,0,.9,3.42,2.56,2.56,0,0,0,3.42-.9l2-3a2.51,2.51,0,0,0-.9-3.42,2.56,2.56,0,0,0-3.42.9Z" style="fill:#eae2c2;"/><path d="M162.76,294.89l-1,1a2.5,2.5,0,0,0,3.54,3.54l1-1a2.5,2.5,0,1,0-3.54-3.54Z" style="fill:#eae2c2;"/><path d="M152.84,308.18l-1.5.49a2.5,2.5,0,1,0,1.33,4.82l1.5-.49a2.5,2.5,0,1,0-1.33-4.82Z" style="fill:#eae2c2;"/><path d="M136,317.16h-1a2.5,2.5,0,0,0,0,5h1a2.5,2.5,0,1,0,0-5Z" style="fill:#eae2c2;"/><path d="M142,305.16c3.22,0,3.22-5,0-5s-3.22,5,0,5Z" style="fill:#eae2c2;"/><path d="M62.37,258.42l1,2a2.52,2.52,0,0,0,3.42.9,2.56,2.56,0,0,0,.9-3.42l-1-2a2.52,2.52,0,0,0-3.42-.9,2.56,2.56,0,0,0-.9,3.42Z" style="fill:#eae2c2;"/><path d="M74.27,241.82l2,1a2.5,2.5,0,0,0,2.52-4.32l-2-1a2.5,2.5,0,0,0-2.52,4.32Z" style="fill:#eae2c2;"/><path d="M76.77,256.32l2,1.5a2.51,2.51,0,0,0,1.93.25,2.55,2.55,0,0,0,1.49-1.15,2.52,2.52,0,0,0,.25-1.93,2.92,2.92,0,0,0-1.15-1.49l-2-1.5a2.51,2.51,0,0,0-1.93-.25,2.55,2.55,0,0,0-1.49,1.15,2.52,2.52,0,0,0-.25,1.93,2.92,2.92,0,0,0,1.15,1.49Z" style="fill:#eae2c2;"/><path d="M68.81,275.45l.51,1a2.52,2.52,0,0,0,3.42.9,2.56,2.56,0,0,0,.9-3.42l-.51-1a2.52,2.52,0,0,0-3.42-.9,2.56,2.56,0,0,0-.9,3.42Z" style="fill:#eae2c2;"/><path d="M54.76,283.93l1.5,1.5a2.5,2.5,0,1,0,3.54-3.54l-1.5-1.5a2.5,2.5,0,0,0-3.54,3.54Z" style="fill:#eae2c2;"/><path d="M64.76,300.43l1,1a2.5,2.5,0,1,0,3.54-3.54l-1-1a2.5,2.5,0,0,0-3.54,3.54Z" style="fill:#eae2c2;"/><path d="M71.26,289.93l.31.31c2.28,2.28,5.81-1.26,3.54-3.54l-.31-.31c-2.28-2.28-5.81,1.26-3.54,3.54l.31.31c2.28,2.28,5.81-1.26,3.54-3.54l-.31-.31c-2.28-2.28-5.81,1.26-3.54,3.54Z" style="fill:#eae2c2;"/><path d="M82.78,309.8l1.51,1a2.52,2.52,0,0,0,3.42-.9,2.56,2.56,0,0,0-.9-3.42l-1.51-1a2.52,2.52,0,0,0-3.42.9,2.56,2.56,0,0,0,.9,3.42Z" style="fill:#eae2c2;"/><path d="M94.27,300.32l1,.5a2.5,2.5,0,0,0,2.52-4.32l-1-.5a2.5,2.5,0,0,0-2.52,4.32Z" style="fill:#eae2c2;"/><path d="M106,318.16c3.22,0,3.22-5,0-5s-3.22,5,0,5Z" style="fill:#eae2c2;"/><path d="M440.66,86.94c-.76-5.23-5.86-8.22-10.79-8.32-4.15-.09-8.43,1.34-12.42,3.3,4.59-9.38,7.92-22-3.07-25.16-10.78-3.12-15.46,10-16.64,20.31-2.66-3.39-5.88-6.27-10.37-6.87-4.9-.65-9.57,1.84-11,6.73-2,7,1.86,13.23,7.56,16.72a14.56,14.56,0,0,0-4.72,3,11.17,11.17,0,0,0,12.57,18,15.72,15.72,0,0,0,6.17-4.87,16.08,16.08,0,0,0,3.07,8.17c3,3.87,8.39,6.55,13.24,4.8,10-3.6,7.31-14.79,2.68-22.73a29.61,29.61,0,0,0,14.48-.59C436.79,97.79,441.54,93,440.66,86.94Z" style="fill:#eae2c2;"/><path d="M415,99.24c2.23-5.61,1.32-11.51-3.73-15.35-4.47-3.4-11.13-4.35-16-1.3-6.31,3.91-7.25,13.26-3.1,19,5.74,8,17.31,6.87,22.24-1.18a2.49,2.49,0,0,0,.38-.61A2.76,2.76,0,0,0,415,99.24Z" style="fill:#e5a024;"/><path d="M262,132.64c2.23-2.82,3.89-6,3.93-9.66.14-11.94-13.08-18.88-22.85-12.62-3.79,2.43-7.62,8.28-12.62,8-4.75-.31-6-4.75-3.75-8.2,4.59-7,13.43-10.55,19.52-16.08,4.77-4.34-2.32-11.4-7.07-7.07a73.32,73.32,0,0,1-7.33,5.66l-6.27-7.14c-1.78-2-5.25-1.82-7.07,0a5.1,5.1,0,0,0,0,7.07l5.34,6.08a33.38,33.38,0,0,0-4.12,4.24c-5.79,7.21-5.7,17.1,2.3,22.81,4.72,3.37,11.24,3.31,16.33.77,4.1-2,7-6.76,11.22-8.33a4.51,4.51,0,0,1,5.71,2.36c1.8,3.3-1,6-3.2,8.27a76.21,76.21,0,0,1-18.24,13.59c-5.64,3.11-.6,11.75,5,8.63A90.94,90.94,0,0,0,255,139.74l4.82,4.83a5,5,0,1,0,7.07-7.07Z" style="fill:#e5a024;"/><path d="M291,32.38a52.65,52.65,0,0,1-6.19-2.44l2.1-6.49a3.59,3.59,0,1,0-7-1.76l-1.79,5.53a24,24,0,0,0-4.13-1C267.5,25.3,261.43,29,260.85,36a11.6,11.6,0,0,0,5.53,10.36c2.77,1.78,6.74,1.83,9.26,3.86a3.24,3.24,0,0,1,.65,4.39C274.9,57,272.2,56.22,270,55.7a54.71,54.71,0,0,1-15.09-6.26c-4-2.34-7.47,3.95-3.47,6.29a65.31,65.31,0,0,0,12.83,5.79l-1.21,4.75A3.59,3.59,0,0,0,270,68l1.22-4.78a11.47,11.47,0,0,0,7.41-1.13A10.66,10.66,0,0,0,278,43.4c-2.89-1.45-7.91-1.66-9.54-4.86-1.56-3,.73-5.45,3.69-5.33,6,.25,11.44,4.41,17.1,6.13C293.71,40.68,295.46,33.72,291,32.38Z" style="fill:#e5a024;"/><path d="M194.52,14.36c4.37-1.94,9.67-.89,14.28-1.65,3.62-.6,2.41-6.16-1.19-5.56a41.72,41.72,0,0,1-5.25.44l-.79-5.35A2.84,2.84,0,0,0,196,3.43L196.69,8a19,19,0,0,0-3.28.75c-5,1.66-8,6.4-5.94,11.6A9.19,9.19,0,0,0,195,25.75c2.59.29,5.43-1.07,7.93-.51a2.57,2.57,0,0,1,2,2.89c-.16,2.13-2.34,2.55-4.08,3a43.32,43.32,0,0,1-12.9.86c-3.65-.26-3.91,5.42-.26,5.68a51.7,51.7,0,0,0,11.14-.4l.81,3.79a2.84,2.84,0,0,0,5.56-1.19L204.41,36a9.08,9.08,0,0,0,4.86-3.4,8.44,8.44,0,0,0-7-13.08c-2.56,0-6.19,1.6-8.48-.1S192.38,15.31,194.52,14.36Z" style="fill:#e5a024;"/><path d="M232.65,221.11l-4,7.33c-1.7,3.11,3.05,5.89,4.75,2.78l4-7.33c1.7-3.11-3.05-5.89-4.75-2.78Z" style="fill:#cf4327;"/><path d="M249.71,223.82a173.09,173.09,0,0,0,2.43,17.45c.67,3.47,6,2,5.3-1.46a158.49,158.49,0,0,1-2.23-16c-.31-3.5-5.81-3.53-5.5,0Z" style="fill:#cf4327;"/><path d="M265.41,220.49l4.41,6.18a2.83,2.83,0,0,0,3.76,1,2.77,2.77,0,0,0,1-3.76l-4.41-6.18a2.83,2.83,0,0,0-3.76-1,2.77,2.77,0,0,0-1,3.76Z" style="fill:#cf4327;"/><path d="M292.78,300.13A168.37,168.37,0,0,0,266,318.86a161.76,161.76,0,0,0,2-30.6c-.06-1.94-2.85-3.59-4.27-1.77a158.45,158.45,0,0,0-20,33.38A220.46,220.46,0,0,0,233,290c-1-2.21-3.87-1.13-4.57.6A115,115,0,0,0,220,331.39a146.29,146.29,0,0,0-18.71-13,2.53,2.53,0,0,0-3.67,2.82c1.91,9.07,4.81,19.85,12.93,25.41,7.7,5.27,18.63,4.48,27.52,4.86,9.35.4,18.82-.18,27.52-3.93,9.1-3.92,15.8-11,20.48-19.64,4.65-7.81,7.57-16.34,10.38-24.94C297.15,300.82,294.61,299.1,292.78,300.13Z" style="fill:#e5a024;"/><path d="M100.16,161.65a76.87,76.87,0,0,1,22.78-54c3-3-1.62-7.55-4.6-4.6a83.55,83.55,0,0,0-24.69,58.59c0,4.18,6.46,4.19,6.5,0Z" style="fill:#db6653;"/><path d="M128.28,152.53A27.67,27.67,0,0,0,136,167.9c2.93,3,7.53-1.6,4.6-4.6a21.92,21.92,0,0,1-6.07-12.5c-.6-4.12-6.87-2.37-6.27,1.73Z" style="fill:#db6653;"/><path d="M168.27,153.9A19.07,19.07,0,0,0,177.33,165c3.68,2,7-3.61,3.28-5.61a12.42,12.42,0,0,1-6.08-7.26c-1.25-4-7.53-2.28-6.27,1.73Z" style="fill:#db6653;"/><path d="M331.31,57.48c-11.44,3.63-16.32,17.07-8.83,26.84,2.51,3.27,8.16,0,5.61-3.28-4.8-6.26-2.9-14.8,4.95-17.29,4-1.26,2.28-7.54-1.73-6.27Z" style="fill:#db6653;"/><path d="M385.34,127.65c-.58,10.19-1.06,21.26,4.18,30.45,4.1,7.19,11.1,12.25,19.48,12.57,4.18.16,4.18-6.34,0-6.5-17.93-.68-17.89-23.75-17.16-36.51.24-4.18-6.26-4.17-6.5,0Z" style="fill:#db6653;"/><path d="M432.2,235.19a32.49,32.49,0,0,1,7.09-9.85c3-2.89-1.56-7.48-4.6-4.6a37.45,37.45,0,0,0-8.11,11.17c-1.77,3.76,3.83,7.07,5.61,3.28Z" style="fill:#db6653;"/><path d="M462.31,262.57A91.1,91.1,0,0,1,476.6,244c3-3-1.64-7.56-4.6-4.6a97.88,97.88,0,0,0-15.3,19.91c-2.11,3.62,3.51,6.9,5.61,3.28Z" style="fill:#db6653;"/><path d="M476.45,301.14a137.59,137.59,0,0,1,23.48-15.31c3.72-1.93.43-7.54-3.28-5.61a145.56,145.56,0,0,0-24.79,16.32c-3.25,2.64,1.37,7.21,4.6,4.6Z" style="fill:#db6653;"/><path d="M365.71,196.22c-10.76,14.55-10.37,32.95-9.46,50.19.22,4.16,6.72,4.19,6.5,0-.86-16.16-1.53-33.24,8.57-46.91,2.49-3.37-3.15-6.61-5.61-3.28Z" style="fill:#f3bc63;"/><path d="M305,149.65a9.52,9.52,0,0,0,3,7.62,3.25,3.25,0,0,0,4.6-4.6,5.86,5.86,0,0,1-.46-.46l-.09-.13a6.31,6.31,0,0,1-.32-.57q.12.34,0,0c0-.12-.29-1.16-.21-.57a5.62,5.62,0,0,1,0-1.31,3.26,3.26,0,0,0-3.25-3.25,3.34,3.34,0,0,0-3.25,3.25Z" style="fill:#f3bc63;"/><path d="M332.09,104.64a22.24,22.24,0,0,0-2.92,19.19c1.21,4,7.49,2.29,6.27-1.73a16,16,0,0,1,2.26-14.18c2.38-3.45-3.25-6.71-5.61-3.28Z" style="fill:#f3bc63;"/><path d="M36.69,319.63a167.24,167.24,0,0,1,17.91,8.86c3.64,2.08,6.92-3.54,3.28-5.61A167.24,167.24,0,0,0,40,314c-3.81-1.61-7.13,4-3.28,5.61Z" style="fill:#f3bc63;"/><path d="M34,251.28l5.33,6a3.25,3.25,0,0,0,4.6-4.6l-5.33-6a3.25,3.25,0,0,0-4.6,4.6Z" style="fill:#f3bc63;"/><path d="M225.68,303.65a180.18,180.18,0,0,0-.67,20c.09,4.18,6.59,4.19,6.5,0a180.18,180.18,0,0,1,.67-20c.37-4.17-6.13-4.14-6.5,0Z" style="fill:#f3bc63;"/><path d="M200.66,330.05l6,8.64a3.34,3.34,0,0,0,4.45,1.17,3.28,3.28,0,0,0,1.17-4.45l-6-8.64a3.34,3.34,0,0,0-4.45-1.17,3.28,3.28,0,0,0-1.17,4.45Z" style="fill:#f3bc63;"/><path d="M250.44,332.46a50,50,0,0,1,7.4-18.44c2.3-3.51-3.33-6.77-5.61-3.28a54.88,54.88,0,0,0-8.05,20c-.77,4.09,5.5,5.84,6.27,1.73Z" style="fill:#f3bc63;"/><path d="M270.37,333.26a77.59,77.59,0,0,1,10.88-14.64c2.87-3-1.72-7.64-4.6-4.6a85,85,0,0,0-11.89,16c-2.09,3.63,3.52,6.91,5.61,3.28Z" style="fill:#f3bc63;"/><path d="M92.23,189a363.14,363.14,0,0,0,4.83,46.87c.69,4.12,7,2.37,6.27-1.73A349.63,349.63,0,0,1,98.73,189c-.16-4.17-6.66-4.19-6.5,0Z" style="fill:#574730;"/><path d="M467.15,283.87c.28-.3.56-.59.86-.87l.46-.4c-.35.29,0,0,.2-.13a12.08,12.08,0,0,1,1-.63c.18-.1.37-.18.55-.28.46-.26-.66.24.21-.09a3.33,3.33,0,0,0,2.27-4c-.5-1.54-2.3-2.92-4-2.27a16.1,16.1,0,0,0-6.2,4.06,3.25,3.25,0,1,0,4.6,4.6Z" style="fill:#574730;"/><path d="M443.18,335.89a49.13,49.13,0,0,1,20.62-9.76c4.08-.9,2.36-7.16-1.73-6.27a56.19,56.19,0,0,0-23.49,11.43c-3.25,2.63,1.37,7.2,4.6,4.6Z" style="fill:#574730;"/><path d="M246.56,203c-25.18,3.44-50.35,6.11-75.66,8.38-11.14,1-22.66,3-33.85,2.67-5.13-.15-11-1.12-14.77-4.95-3.93-4-4.78-10.47-1.41-15,1.92-2.58-2.41-5.08-4.32-2.52-5.62,7.54-2.28,18.69,5.32,23.54,10.2,6.51,24.08,3.48,35.29,2.48,30.33-2.72,60.55-5.66,90.73-9.78C251.07,207.34,249.71,202.52,246.56,203Z" style="fill:#cf4327;"/></g></g></svg>