<svg xmlns="http://www.w3.org/2000/svg" viewBox="0 0 352.75 373.17"><title>Page under construction + science</title><g id="Layer_2" data-name="Layer 2"><g id="Layer_1-2" data-name="Layer 1"><path d="M188,170.61c25.48,3.62,51.22-3.6,69.88-21.73a82.1,82.1,0,0,0,20.83-34.54,105.74,105.74,0,0,0,4-20.48c.53-5-.93-13.66,3.74-17.11,3.54-2.62,5.23-7,2.9-11.08-2-3.49-7.57-5.5-11.08-2.9-5,3.72-8.82,8.18-10.27,14.41-1.4,6-.88,12.48-1.7,18.59-1.69,12.74-6.15,25.44-14.23,35.57A65.52,65.52,0,0,1,192.32,155c-4.36-.62-8.65,1.07-10,5.65-1.08,3.79,1.33,9.34,5.65,10Z" style="fill:#3b301b;"/><path d="M128.26,155a65.6,65.6,0,0,1-59.19-23c-7.82-9.46-12.21-21.21-14.29-33.19-1.13-6.51-.56-13.51-2.39-19.86C50.74,73.16,47.1,68.53,43,64.28c-7.24-7.52-18.68,3.94-11.45,11.45,4.72,4.9,5.45,8.43,6,15.13a113.63,113.63,0,0,0,3.88,22.24A82.44,82.44,0,0,0,62.09,148.3c18.63,18.55,44.76,26,70.47,22.3,4.32-.61,6.73-6.13,5.65-10-1.3-4.65-5.59-6.27-10-5.65Z" style="fill:#3b301b;"/><path d="M217.84,191.4c-.05-19-1-38.17-7.62-56.18a2.1,2.1,0,0,0-2-1.49H116.93a2.09,2.09,0,0,0-2,1.49c-6.61,18-7.56,37.17-7.62,56.18-.06,21.1.14,42.21.22,63.32,0,2.6,4.06,2.61,4,0H213.57c0,2.6,4,2.61,4,0C217.7,233.62,217.9,212.51,217.84,191.4Z" style="fill:#3b301b;"/><path d="M234.65,106.1A59.32,59.32,0,0,0,210.78,88a64.13,64.13,0,0,1,20.69-18.54,2,2,0,0,0,0-3.5c-12.73-6.43-26.17-12.67-40.58-11.16a84.05,84.05,0,0,1,6.93-12.93,2,2,0,0,0-1.75-3,43.81,43.81,0,0,0-19.77,3.37A42.44,42.44,0,0,0,168,46.93c-.86.62-5.71,5.81-6.15,5.81s-4.72-4.75-5.49-5.32a42.87,42.87,0,0,0-9-5.16,43.74,43.74,0,0,0-19.77-3.37,2,2,0,0,0-1.75,3,84.05,84.05,0,0,1,6.93,12.93c-14.4-1.51-27.85,4.74-40.58,11.16a2,2,0,0,0,0,3.5A64.13,64.13,0,0,1,112.91,88,59.32,59.32,0,0,0,89,106.1a2.05,2.05,0,0,0,1.43,3.45,43.91,43.91,0,0,1,20.09,5.38,85.91,85.91,0,0,0-9.77,31.88c-.17,1.62,1.82,2.4,3,1.75a74,74,0,0,1,21.42-7.75,1.68,1.68,0,0,0,1.45-1.94l73.51.52a2.21,2.21,0,0,0,2.52,2c6.49-1,11.44,4.48,17,6.94a2.05,2.05,0,0,0,3-1.75c-.15-11.23-4.21-21.88-9.56-31.63a44,44,0,0,1,20.05-5.36A2.05,2.05,0,0,0,234.65,106.1Z" style="fill:#cf4327;"/><path d="M207.4,118.52c-2.06-5.28-6-8.14-8.92-12.72-3.92-6.15.65-15-.52-21.91a25.67,25.67,0,0,0-8.14-14.62,2.16,2.16,0,0,0-.33-.32c-12.56-9.79-34-9.86-48.28-4.05a25,25,0,0,0-15.48,19c-1,5.66,1.16,10.85,1,16.46-.16,6.56-7,10.62-9.65,16.3-3.59,7.59-4,17.25,1.74,23.92,7.14,8.36,18.56,8.5,28.67,8.82,13.28.42,27.21,1.05,40.42-.67,8.78-1.14,17.8-5.62,20.49-14.69A24.24,24.24,0,0,0,207.4,118.52Z" style="fill:#3b301b;"/><path d="M154.65,104c2.87-7,3.11-16.52.3-23.53S144.78,72.75,139.64,78c-2.92,3-3.78,6.72-4.14,10.76-.46,5.11-1,11.57,1.17,16.39,3.59,8.1,12.71,6.63,17.15.44a2.65,2.65,0,0,0,.5-.73A2.77,2.77,0,0,0,154.65,104Z" style="fill:#eae2c2;"/><path d="M188.25,89.74c-.31-4.39-1-8.5-4.21-11.76-5.12-5.26-12.5-4.47-15.3,2.53S166.16,97,169,104a2.76,2.76,0,0,0,.33.8,2.63,2.63,0,0,0,.49.73c4.44,6.18,13.56,7.66,17.15-.44C189,100.57,188.59,94.58,188.25,89.74Z" style="fill:#eae2c2;"/><path d="M142.5,86.78a42.31,42.31,0,0,0,.51,17.16c.6,2.53,4.51,1.46,3.9-1.08a37.12,37.12,0,0,1-.51-15c.44-2.55-3.46-3.64-3.9-1.08Z" style="fill:#3b301b;"/><path d="M176.48,87.85a37.13,37.13,0,0,1-.51,15c-.6,2.53,3.3,3.61,3.9,1.08a42.31,42.31,0,0,0,.51-17.16c-.44-2.56-4.34-1.48-3.9,1.08Z" style="fill:#3b301b;"/><path d="M171.36,116.67c-.72-10.51-20.06-8.89-19,1.7a4.07,4.07,0,0,0,.75,2.27C157.34,127.71,172,126.19,171.36,116.67Z" style="fill:#cf4327;"/><path d="M153.4,132.54c-1.22,5,2.46,10.78,7.92,10.86s9.3-5.4,8.35-10.53c-.48-2.56-4.38-1.47-3.9,1.08s-1.73,5.5-4.44,5.4-4.62-3.22-4-5.73-3.29-3.61-3.9-1.08Z" style="fill:#cf4327;"/><path d="M175.16,56.21c-1.46-1.47-3.56,0-3.44,1.64l-15.29,1.62A2.12,2.12,0,0,0,153,58.25a7.12,7.12,0,0,0,2.65,12.24,7.6,7.6,0,0,0,8.85-3.65c2.13,2.82,5.16,4.51,9.17,2.66C179.12,67,179.06,60.13,175.16,56.21Z" style="fill:#cf4327;"/><path d="M185,123.72a9.1,9.1,0,0,1,5.59-1.85c2.6,0,2.61-4.06,0-4a13.59,13.59,0,0,0-8.46,3,2,2,0,0,0,0,2.86,2.07,2.07,0,0,0,2.86,0Z" style="fill:#cf4327;"/><path d="M139.34,120.86a10.88,10.88,0,0,0-7.63-3c-2.6,0-2.61,4.07,0,4a6.68,6.68,0,0,1,4.77,1.84c1.89,1.79,4.76-1.07,2.86-2.86Z" style="fill:#cf4327;"/><path d="M291.68,86.23a14.58,14.58,0,0,1,10.14-.51c2.5.74,3.57-3.16,1.08-3.9a18.94,18.94,0,0,0-13.26.92c-2.38,1-.32,4.53,2,3.5Z" style="fill:#3b301b;"/><path d="M280.41,49.94V93.8c0,9.26,14.4,9.28,14.4,0V49.94Z" style="fill:#e5a024;"/><path d="M278.25,50.79H297c2.6,0,2.61-4,0-4H278.25c-2.6,0-2.61,4,0,4Z" style="fill:#e5a024;"/><path d="M284.1,64.91V92.28c0,4.51,7,4.52,7,0V64.91C291.12,60.39,284.1,60.39,284.1,64.91Z" style="fill:#cf4327;"/><path d="M270.25,79.38a19.85,19.85,0,0,1,18.05-20.1c2.57-.26,2.59-4.31,0-4-12.74,1.27-22.07,11.26-22.1,24.14,0,2.6,4,2.61,4,0Z" style="fill:#3b301b;"/><path d="M289.39,66.93h6.4c2.6,0,2.61-4.05,0-4h-6.4c-2.6,0-2.61,4.05,0,4Z" style="fill:#3b301b;"/><path d="M289.38,73.89l6.18-.65a2.08,2.08,0,0,0,2-2,2,2,0,0,0-2-2l-6.18.65a2.08,2.08,0,0,0-2,2,2,2,0,0,0,2,2Z" style="fill:#3b301b;"/><path d="M290.78,79.83a36.43,36.43,0,0,0,5.55-1.27c2.48-.78,1.42-4.68-1.08-3.9a36.43,36.43,0,0,1-5.55,1.27,2,2,0,0,0-1.41,2.49,2.08,2.08,0,0,0,2.49,1.41Z" style="fill:#3b301b;"/><path d="M39.15,49.94H24.75V93.8c0,5.06,3.94,7.36,7.6,7.36S40,98.86,40,93.8V49.94Z" style="fill:#eae2c2;"/><path d="M41.71,46.74H23c-2.6,0-2.61,4,0,4H41.71C44.32,50.79,44.32,46.74,41.71,46.74Z" style="fill:#eae2c2;"/><path d="M35.05,92.28V64.91c0-3.47-5.4-3.48-5.4,0V92.28c0,3.47,5.4,3.48,5.4,0Z" style="fill:#e5a024;"/><path d="M53.77,79.38c0-12.88-9.36-22.87-22.1-24.14-2.59-.26-2.57,3.79,0,4a19.85,19.85,0,0,1,18.05,20.1c0,2.6,4.05,2.61,4,0Z" style="fill:#3b301b;"/><path d="M30.58,62.89h-6.4c-2.6,0-2.61,4,0,4h6.4c2.6,0,2.61-4,0-4Z" style="fill:#3b301b;"/><path d="M30.58,69.85,24.4,69.2a2,2,0,0,0-2,2,2.07,2.07,0,0,0,2,2l6.18.65a2,2,0,0,0,2-2,2.07,2.07,0,0,0-2-2Z" style="fill:#3b301b;"/><path d="M30.27,75.93a36.43,36.43,0,0,1-5.55-1.27c-2.49-.78-3.56,3.13-1.08,3.9a36.43,36.43,0,0,0,5.55,1.27,2.09,2.09,0,0,0,2.49-1.41,2,2,0,0,0-1.41-2.49Z" style="fill:#3b301b;"/><path d="M23.3,84.74a26.94,26.94,0,0,0,7.79.93c2.6-.07,2.61-4.12,0-4a23,23,0,0,1-6.71-.78c-2.52-.68-3.59,3.23-1.08,3.9Z" style="fill:#3b301b;"/><path d="M283.32,25.66l-3.83-3.82a1.35,1.35,0,0,0-1.91,1.91l3.83,3.82a1.35,1.35,0,0,0,1.91-1.91Z" style="fill:#cf4327;"/><path d="M289.44,23.05l.26-5.26c.08-1.74-2.61-1.73-2.7,0l-.26,5.26c-.08,1.74,2.61,1.73,2.7,0Z" style="fill:#cf4327;"/><path d="M280.71,31.21l-3.59,2.15a1.35,1.35,0,0,0,1.36,2.33l3.59-2.15a1.35,1.35,0,0,0-1.36-2.33Z" style="fill:#cf4327;"/><path d="M286.51,34.28l.51,4.3a1.39,1.39,0,0,0,1.35,1.35,1.36,1.36,0,0,0,1.35-1.35l-.51-4.3a1.39,1.39,0,0,0-1.35-1.35,1.36,1.36,0,0,0-1.35,1.35Z" style="fill:#cf4327;"/><path d="M293.39,32.29a20.41,20.41,0,0,0,3.67,1.81,1.36,1.36,0,0,0,1.66-.94,1.38,1.38,0,0,0-.94-1.66,17,17,0,0,1-3-1.54c-1.47-.93-2.83,1.4-1.36,2.33Z" style="fill:#cf4327;"/><path d="M295.51,25.8l2.39-1.92a1.36,1.36,0,0,0,0-1.91A1.38,1.38,0,0,0,296,22l-2.39,1.92a1.36,1.36,0,0,0,0,1.91,1.38,1.38,0,0,0,1.91,0Z" style="fill:#cf4327;"/><path d="M271.36,7.28c2.6,0,2.61-4,0-4s-2.61,4,0,4Z" style="fill:#cf4327;"/><path d="M254.09,20.25c6.95,0,7-10.79,0-10.79s-7,10.79,0,10.79Z" style="fill:#cf4327;"/><path d="M53.71,21.82l-1.8-4.12A2,2,0,0,0,49.14,17a2.08,2.08,0,0,0-.73,2.77l1.8,4.12a2,2,0,0,0,2.77.73,2.08,2.08,0,0,0,.73-2.77Z" style="fill:#e5a024;"/><path d="M63.1,23.73a16.29,16.29,0,0,0,2-4.34c.75-2.5-3.15-3.57-3.9-1.08a12.5,12.5,0,0,1-1.61,3.38,2,2,0,0,0,3.5,2Z" style="fill:#e5a024;"/><path d="M63.53,32.25a12.46,12.46,0,0,0,5.2,0,2,2,0,1,0-1.08-3.9,7.43,7.43,0,0,1-3,0,2.07,2.07,0,0,0-2.49,1.41,2,2,0,0,0,1.41,2.49Z" style="fill:#e5a024;"/><path d="M58,40.76l2.83,3.35a2,2,0,0,0,2.86,0,2.07,2.07,0,0,0,0-2.86L60.85,37.9a2,2,0,0,0-2.86,0,2.07,2.07,0,0,0,0,2.86Z" style="fill:#e5a024;"/><path d="M50.51,36.1l-3.36,3.59A2,2,0,1,0,50,42.55L53.37,39a2,2,0,0,0-2.86-2.86Z" style="fill:#e5a024;"/><path d="M47.56,28.28H44.21a2,2,0,0,0,0,4h3.35a2,2,0,1,0,0-4Z" style="fill:#e5a024;"/><path d="M17,34.51c3.47,0,3.48-5.4,0-5.4s-3.48,5.4,0,5.4Z" style="fill:#e5a024;"/><path d="M27.89,17.69c6.95,0,7-10.79,0-10.79s-7,10.79,0,10.79Z" style="fill:#e5a024;"/><path d="M5.18,5.4c3.47,0,3.48-5.4,0-5.4s-3.48,5.4,0,5.4Z" style="fill:#e5a024;"/><path d="M207.27,104.68h3.84a2.7,2.7,0,1,0,0-5.4h-3.84a2.7,2.7,0,1,0,0,5.4Z" style="fill:#e5a024;"/><path d="M204.8,77.45l3-1.28A2.7,2.7,0,0,0,209,74.56a2.7,2.7,0,0,0-4-3l-3,1.28a2.7,2.7,0,0,0-1.24,1.61,2.7,2.7,0,0,0,4,3Z" style="fill:#e5a024;"/><path d="M181,54.28a5.24,5.24,0,0,0,.44-.71c0,.08-.42.5-.06.09l.29-.3.24-.23s.46-.4.12-.1.05,0,.14-.08l.43-.25a2.72,2.72,0,0,0,1-3.69,2.76,2.76,0,0,0-3.69-1,9,9,0,0,0-3.54,3.51A2.7,2.7,0,0,0,181,54.28Z" style="fill:#e5a024;"/><path d="M149.34,51.88c-.28-.15-.54-.31-.8-.48-.51-.34.4.39,0,0l-.34-.32-.32-.34c-.34-.36.19.31,0,0s-.38-.57-.54-.87a2.72,2.72,0,0,0-3.69-1,2.76,2.76,0,0,0-1,3.69,9.77,9.77,0,0,0,4,4,2.7,2.7,0,1,0,2.72-4.66Z" style="fill:#e5a024;"/><path d="M123.65,66.94,119,66.48a2.72,2.72,0,0,0-2.7,2.7,2.76,2.76,0,0,0,2.7,2.7l4.69.46a2.72,2.72,0,0,0,2.7-2.7,2.76,2.76,0,0,0-2.7-2.7Z" style="fill:#e5a024;"/><path d="M115.27,95.12l-4.69.85a2.72,2.72,0,0,0-1.88,3.32,2.76,2.76,0,0,0,3.32,1.88l4.69-.85A2.72,2.72,0,0,0,118.59,97a2.76,2.76,0,0,0-3.32-1.88Z" style="fill:#e5a024;"/><path d="M108.27,132.83c0-.1.25-.52.08-.2-.06.12-.12.24-.19.36s-.12.18-.17.27c-.15.27.44-.49.08-.1l-.45.46c-.34.33.38-.24.1-.07l-.34.22a2.7,2.7,0,1,0,2.72,4.66,8.06,8.06,0,0,0,3.38-4.16,2.71,2.71,0,0,0-1.88-3.32,2.77,2.77,0,0,0-3.32,1.88Z" style="fill:#e5a024;"/><path d="M210.91,137.17l.85.85a2.7,2.7,0,0,0,3.82-3.82l-.85-.85a2.7,2.7,0,0,0-3.82,3.82Z" style="fill:#e5a024;"/><path d="M223.05,105.11h.85a2.7,2.7,0,1,0,0-5.4h-.85a2.7,2.7,0,0,0,0,5.4Z" style="fill:#e5a024;"/><path d="M219.31,72.76l.47-.36A3,3,0,0,0,221,70.79a2.76,2.76,0,0,0-.27-2.08c-.71-1.1-2.49-1.89-3.69-1l-.47.36a3,3,0,0,0-1.24,1.61,2.76,2.76,0,0,0,.27,2.08c.71,1.1,2.49,1.89,3.69,1Z" style="fill:#e5a024;"/><path d="M196.46,65.72l.39-.12a2.7,2.7,0,1,0-1.43-5.2l-.39.12a2.7,2.7,0,0,0,1.43,5.2Z" style="fill:#e5a024;"/><path d="M106.17,64.73h-1.28a2.7,2.7,0,0,0,0,5.4h1.28a2.7,2.7,0,0,0,0-5.4Z" style="fill:#e5a024;"/><path d="M128.78,63.73h1.71a2.7,2.7,0,0,0,0-5.4h-1.71a2.7,2.7,0,0,0,0,5.4Z" style="fill:#e5a024;"/><path d="M117.26,87.62h.85a2.7,2.7,0,0,0,0-5.4h-.85a2.7,2.7,0,0,0,0,5.4Z" style="fill:#e5a024;"/><path d="M100.74,98.88l-1.27.45a2.7,2.7,0,0,0,1.43,5.2l1.27-.45a2.7,2.7,0,1,0-1.43-5.2Z" style="fill:#e5a024;"/><path d="M203.86,93.59h.43a2.7,2.7,0,0,0,0-5.4h-.43a2.7,2.7,0,0,0,0,5.4Z" style="fill:#e5a024;"/><path d="M113.85,111.93h.43a2.7,2.7,0,1,0,0-5.4h-.43a2.7,2.7,0,1,0,0,5.4Z" style="fill:#e5a024;"/><path d="M209.83,114.07c3.47,0,3.48-5.4,0-5.4s-3.48,5.4,0,5.4Z" style="fill:#e5a024;"/><path d="M78.56,343.62c-1.1-10.82-6.67-19.93-12.8-28.67a201.88,201.88,0,0,0-22.32-26.54,2,2,0,0,0-3.38,2,225.32,225.32,0,0,0,10.83,30.9A139.73,139.73,0,0,0,2.54,291.93c-1.7-.61-3.15,1.53-2.29,3a246,246,0,0,0,35.19,45.63,112.11,112.11,0,0,0-33.08-9.4c-1.9-.24-2.45,2.29-1.43,3.45,13.12,15,29.52,29.84,50.16,32.26,6.72.79,14.23.27,19.9-3.81C77.27,358.52,78.94,351,78.56,343.62Z" style="fill:#cf4327;"/><path d="M350.78,339.43A159.47,159.47,0,0,0,306.46,345a421.82,421.82,0,0,0,44.68-43.17c1.26-1.41.07-4.07-2-3.38a259.78,259.78,0,0,0-65.41,32.91l1-2.1c2.6-5.67,5.68-11.07,8.53-16.61,5.88-11.39,11.89-23,16-35.11l.69-1.39c1.07-1.68-1.08-3.89-2.77-2.77a228.28,228.28,0,0,0-38.53,32c-7.27,7.61-15.14,15.94-19.17,25.81-11.83,28.95,36.79,30.9,54,29.14A108,108,0,0,0,351.8,343.2,2,2,0,0,0,350.78,339.43Z" style="fill:#3b301b;"/><path d="M281.29,254.74l-.09-.09-.05,0a2.49,2.49,0,0,0-1.84-.73H41.84a2.74,2.74,0,0,0-2.7,2.7v22.67a2.74,2.74,0,0,0,2.7,2.7H279.31a2.74,2.74,0,0,0,2.7-2.7V256.56A2.49,2.49,0,0,0,281.29,254.74Z" style="fill:#eae2c2;"/><path d="M261.5,279.92l-.09-.09-.05,0a2.49,2.49,0,0,0-1.84-.73H61.63a2.74,2.74,0,0,0-2.7,2.7v82.39a2.74,2.74,0,0,0,2.7,2.7H259.52a2.74,2.74,0,0,0,2.7-2.7V281.75A2.49,2.49,0,0,0,261.5,279.92Z" style="fill:#eae2c2;"/><path d="M210.93,235.1v-4.61a2.7,2.7,0,1,0-5.4,0v4.61a2.7,2.7,0,0,0,5.4,0Z" style="fill:#cf4327;"/><path d="M210.93,163.93V153c0-3.47-5.4-3.48-5.4,0v10.95c0,3.47,5.4,3.48,5.4,0Z" style="fill:#e5a024;"/><path d="M242.55,250.16c-2.75-4.2-5.37-8.52-8.26-12.62-2.55-3.61-6.85-2.44-11-2.44a2.74,2.74,0,0,0-2.7,2.7v6.12H202.32a2.74,2.74,0,0,0-2.7,2.7v4.9a2.49,2.49,0,0,0,.72,1.82l.09.09.05,0a2.49,2.49,0,0,0,1.84.73h37.89A2.72,2.72,0,0,0,242.55,250.16Z" style="fill:#cf4327;"/><path d="M242.64,197.14a30.73,30.73,0,0,0-12.57-6.88c-.39-.1-.78-.17-1.16-.26V178.34a5.48,5.48,0,0,0-5.4-5.4h-8.64a5.48,5.48,0,0,0-5.4,5.4V195a5.48,5.48,0,0,0,5.4,5.4c7.15.05,13.3-1,19.38,3.73,4.93,3.85,7.82,10.4,6.6,16.64-1.09,5.58-5.51,10.75-11.31,11.39-7.51.82-15.73-.19-23.31-.19-6.95,0-7,10.79,0,10.79,5.62,0,11.26-.13,16.88.08,5.09.19,10,.32,14.68-1.9,7.66-3.6,13-11.81,13.92-20.12A28.37,28.37,0,0,0,242.64,197.14Z" style="fill:#e5a024;"/><path d="M211.4,159.21l-6.92.14a2.57,2.57,0,0,0-1.68.62,2.45,2.45,0,0,0-1,2.08v24.85c0,2.34-.71,6.07,0,8.28,1.07,3.36,5.47,5.34,8.25,7.37,1.71,1.24,4.06-.44,4.06-2.33V161.91A2.73,2.73,0,0,0,211.4,159.21Z" style="fill:#cf4327;"/><path d="M211.22,206.29V196.2c0-3.47-5.4-3.48-5.4,0v10.09c0,3.47,5.4,3.48,5.4,0Z" style="fill:#cf4327;"/><path d="M219.47,188.05c6.95,0,7-10.79,0-10.79s-7,10.79,0,10.79Z" style="fill:#cf4327;"/><path d="M92.69,248.83H81.6V178.34c0-3.47-5.4-3.48-5.4,0v70.49H65.11c-3.47,0-3.48,5.4,0,5.4H92.69C96.16,254.22,96.17,248.83,92.69,248.83Z" style="fill:#3b301b;"/><path d="M117.41,217.7a1.31,1.31,0,0,0-1.17-.67c-7,.49-13.81,0-20.77.13a1.33,1.33,0,0,0-1.17.67c-3.15,7.23-.34,16.28,8.37,17.64,7,1.09,13.42-1.66,15.93-8.48a1.27,1.27,0,0,0,.2-.53,1.33,1.33,0,0,0,.07-.56A14.77,14.77,0,0,0,117.41,217.7Z" style="fill:#cf4327;"/><path d="M113.71,206.77v-21.7a2.05,2.05,0,0,0-2-2H100.08a2.05,2.05,0,0,0-2,2v21.71c-12.18,5.84-18.26,23.18-5.45,32,10.76,7.38,29,4.07,33.33-9.06a2.06,2.06,0,0,0,.18-.54,2.09,2.09,0,0,0,.08-.62C127.53,219.38,121.9,210.64,113.71,206.77Zm-16.39,30c-12.75-5.82-8.23-22.26,3.3-26.72a2.1,2.1,0,0,0,1.49-2v-21h7.56v21a2.09,2.09,0,0,0,1.49,2c7,2.68,12.43,10.48,11.06,18C119.25,238.13,106,240.72,97.32,236.75Z" style="fill:#eae2c2;"/><path d="M117.75,190.15H63.9a8.49,8.49,0,0,0-2-4.27,2,2,0,0,0-.39-.42,2.1,2.1,0,0,0-.51-.37,7.57,7.57,0,0,0-10.72,2.2,7.82,7.82,0,0,0,3.28,10.93,7,7,0,0,0,9.16-2.5,7.88,7.88,0,0,0,.78-1.52h54.28C120.35,194.19,120.36,190.15,117.75,190.15Zm-58.09,2.71A3.2,3.2,0,0,1,56.37,195a3.87,3.87,0,0,1-3.13-4.44c.44-2.24,3.47-3.74,5.37-2.2A4,4,0,0,1,59.66,192.85Z" style="fill:#eae2c2;"/><path d="M173.7,236.7a1.37,1.37,0,0,0-1.35-1.35H156.12a1.37,1.37,0,0,0-1.35,1.35v12.25a1.37,1.37,0,0,0,1.35,1.35h16.23a1.24,1.24,0,0,0,.91-.36l0,0,0,0a1.24,1.24,0,0,0,.37-.92Z" style="fill:#e5a024;"/><path d="M178,218.92H147.08a1.88,1.88,0,0,0-1.3.48,1.64,1.64,0,0,0-.65,2.09c1.06,2.83,2.35,5.66,3.21,8.55a25.79,25.79,0,0,1,.3,5.19V254a2.05,2.05,0,0,0,2,2H178a2.05,2.05,0,0,0,2-2v-33.1A2.05,2.05,0,0,0,178,218.92Zm-28,4h26v4.72h-3.19a1.35,1.35,0,0,0,0,2.7H176v3.33h-3.19a1.35,1.35,0,0,0,0,2.7H176v3.33h-3.19a1.35,1.35,0,0,0,0,2.7H176v3.33h-3.19a1.35,1.35,0,0,0,0,2.7H176V252H152.69V234.38C152.69,230.15,151.46,226.74,150,223Z" style="fill:#eae2c2;"/><path d="M161.9,204.67a4.34,4.34,0,0,0-1.14,5.47c1.34,2.26,4.16,2,6,.64a1.46,1.46,0,0,0,.26-.21,1.34,1.34,0,0,0,.29-.35C170,206.94,165.4,201.93,161.9,204.67Zm1.13,4a1.65,1.65,0,0,1,.61-2c1.06-.66,2.42,1,1.49,1.94C164.57,209.15,163.46,209.54,163,208.71Z" style="fill:#e5a024;"/><path d="M173.27,200.36a1.53,1.53,0,0,0-.12.28l0,0a5.44,5.44,0,0,0,3.36,7.25,5.53,5.53,0,0,0,6.45-3.37C185.28,198.81,176.14,194.91,173.27,200.36Zm7.19,3.2a2.93,2.93,0,0,1-2.93,1.86c-1.86-.33-2.39-2.26-1.86-3.81a2.34,2.34,0,0,1,3.06-1.07C179.94,201,181,202.22,180.46,203.56Z" style="fill:#e5a024;"/><path d="M157.16,198.86c2.6,0,2.61-4,0-4s-2.61,4,0,4Z" style="fill:#e5a024;"/><path d="M63.25,286.06H258.62c3.47,0,3.48-5.4,0-5.4H63.25c-3.47,0-3.48,5.4,0,5.4Z" style="fill:#e5a024;"/><path d="M313.67,344.76a136.76,136.76,0,0,0-26.21,8c10.91-14.83,21.2-30.14,27-47.79a2,2,0,0,0-3-2.29,155.84,155.84,0,0,0-44,38.35,244.12,244.12,0,0,0,3.91-49.77,2,2,0,0,0-3.77-1,151.11,151.11,0,0,0-24.72,62.64A74.72,74.72,0,0,0,225.47,328a1.9,1.9,0,0,0-1.9-.49,1.66,1.66,0,0,0-1.56,1.73,1.69,1.69,0,0,0,.05.77c1,10.47,2.49,22.67,7.83,31.9,4.56,7.89,13.27,9.34,21.69,9.9,23,1.54,51.42-2.78,64.38-24.1A2,2,0,0,0,313.67,344.76Z" style="fill:#cf4327;"/><path d="M124.59,333.17a2.28,2.28,0,0,0-1.33-2.84,2.47,2.47,0,0,0-2.67,0,96.25,96.25,0,0,0-20.75,15.86,193,193,0,0,0,3.16-45c-.1-2.09-3-3.87-4.61-1.91a114.28,114.28,0,0,0-21.32,42.67c-5.26-15.94-11.57-31.52-22.7-44.4a2.71,2.71,0,0,0-4.51,1.19C47.15,314,51,328.52,56.52,342.54a61,61,0,0,0-22.63-11.67,2.73,2.73,0,0,0-3,4c5.48,11.16,11.53,23,21.93,30.43,9.49,6.75,21.47,8.77,32.89,7.59,10.42-1.07,18.57-4.59,25.26-12.84,6.22-7.66,10.17-16.89,13.42-26.13A2.32,2.32,0,0,0,124.59,333.17Z" style="fill:#e5a024;"/><path d="M207.59,348.59a1.78,1.78,0,0,0-2.11-.72,59.58,59.58,0,0,0-10.42,4.21c2.61-6.53,5.79-13.59,4.49-20.19a2,2,0,0,0-3.38-.89,165.87,165.87,0,0,0-15.75,17,180.62,180.62,0,0,0-2.75-27.05c-.32-1.78-2.87-1.88-3.7-.48a115,115,0,0,0-13,31.82c-2.86-4.67-7.59-9.1-11.09-10.9-1.23-.64-3.21.12-3,1.75.77,7.76,1.73,17.12,6.73,23.47,4,5,10.48,4.65,16.31,4.83,8.58.26,16.79,1.3,24.09-4,5.85-4.27,9.9-10.55,13.76-16.55A1.75,1.75,0,0,0,207.59,348.59Z" style="fill:#3b301b;"/><path d="M134.23,47.82l4.32.73a3.59,3.59,0,0,0,4.32-2.45c.39-1.7-.52-4-2.45-4.32l-4.32-.73a3.59,3.59,0,0,0-4.32,2.45c-.39,1.7.52,4,2.45,4.32Z" style="fill:#db6653;"/><path d="M172.75,52.11l7.2-2.87a3.62,3.62,0,0,0,2.45-4.32c-.46-1.67-2.55-3.16-4.32-2.45l-7.2,2.87a3.62,3.62,0,0,0-2.45,4.32c.46,1.67,2.55,3.16,4.32,2.45Z" style="fill:#db6653;"/><path d="M202.08,63.83a22.19,22.19,0,0,1,6.86,1.68c1.74.75,3.76.52,4.8-1.26.87-1.48.49-4-1.26-4.8a32.65,32.65,0,0,0-10.41-2.64,3.54,3.54,0,0,0-3.51,3.51,3.58,3.58,0,0,0,3.51,3.51Z" style="fill:#db6653;"/><path d="M256.45,352a96.86,96.86,0,0,1,5.88-22.28c1.66-4.2-5.12-6-6.77-1.87a96.86,96.86,0,0,0-5.88,22.28c-.62,4.42,6.14,6.32,6.77,1.87Z" style="fill:#db6653;"/><path d="M276.65,351.89A60,60,0,0,1,291,332.76c3.38-3-1.6-8-5-5a65,65,0,0,0-15.45,20.55c-1.94,4.05,4.11,7.62,6.06,3.54Z" style="fill:#db6653;"/><path d="M16.1,311.78l11.51,11.51c3.2,3.2,8.16-1.76,5-5L21.06,306.82c-3.2-3.2-8.16,1.76-5,5Z" style="fill:#db6653;"/><path d="M12.5,344.16a25.16,25.16,0,0,0,8.74,5.22,3.51,3.51,0,0,0,1.87-6.77,16.54,16.54,0,0,1-5.65-3.42c-3.33-3-8.3,1.9-5,5Z" style="fill:#db6653;"/><path d="M57.25,139.69a79,79,0,0,0,41,26.08c4.37,1.14,6.24-5.62,1.87-6.77a72.7,72.7,0,0,1-37.92-24.27c-2.88-3.48-7.82,1.51-5,5Z" style="fill:#574730;"/><path d="M116,155.82a108.36,108.36,0,0,0-1.59,21.08c.11,4.51,7.13,4.52,7,0a98.78,98.78,0,0,1,1.34-19.21c.76-4.42-6-6.31-6.77-1.87Z" style="fill:#574730;"/><path d="M246.33,151.18a79,79,0,0,0,31.4-58.47c.27-4.51-6.75-4.49-7,0a71.43,71.43,0,0,1-27.92,52.41c-3.55,2.69-.06,8.79,3.54,6.06Z" style="fill:#574730;"/><path d="M320.52,323.42l10.79-8.64c1.48-1.18,1.24-3.73,0-5a3.59,3.59,0,0,0-5,0l-10.79,8.64c-1.48,1.18-1.24,3.73,0,5a3.59,3.59,0,0,0,5,0Z" style="fill:#574730;"/><path d="M281.21,314.55a122.28,122.28,0,0,1,16.94-20c3.27-3.12-1.69-8.08-5-5a130.83,130.83,0,0,0-18,21.41c-2.54,3.75,3.54,7.27,6.06,3.54Z" style="fill:#574730;"/><path d="M120.57,118.26c-3.14,12,2,24,11.62,31.45,10.83,8.36,25,10.54,38.18,7.94,4.43-.87,2.55-7.64-1.87-6.77-18.2,3.59-47.3-7.36-41.18-30.76,1.14-4.37-5.62-6.24-6.77-1.87Z" style="fill:#574730;"/><path d="M86,346.92a102.34,102.34,0,0,1,6.55-22.29c1.75-4.15-5-6-6.77-1.87a102.34,102.34,0,0,0-6.55,22.29c-.77,4.42,6,6.31,6.77,1.87Z" style="fill:#f3bc63;"/><path d="M53.84,319.38a48.54,48.54,0,0,0,7.09,21.89c2.37,3.83,8.44.31,6.06-3.54a40.77,40.77,0,0,1-6.13-18.35c-.36-4.47-7.38-4.51-7,0Z" style="fill:#f3bc63;"/><path d="M42.13,344.92a35,35,0,0,0,8.52,8.4,3.54,3.54,0,0,0,4.8-1.26,3.58,3.58,0,0,0-1.26-4.8,25.13,25.13,0,0,1-6-5.89,3.61,3.61,0,0,0-4.8-1.26c-1.52.89-2.37,3.25-1.26,4.8Z" style="fill:#f3bc63;"/><path d="M102.38,356.39l7.2-7.2c3.2-3.2-1.76-8.16-5-5l-7.2,7.2c-3.2,3.2,1.76,8.16,5,5Z" style="fill:#f3bc63;"/></g></g></svg>