<svg xmlns="http://www.w3.org/2000/svg" viewBox="0 0 484.04 422.6"><title>Done + education + Student</title><g id="Layer_2" data-name="Layer 2"><g id="Layer_1-2" data-name="Layer 1"><path d="M267.67,159.51c-1.24-1.72-4.1-1.68-4.71.62a91.77,91.77,0,0,1-3.38,10.22,23.06,23.06,0,0,0-8.36-8.74c-2.39-1.48-4.5,1.35-3.53,3.53a32.75,32.75,0,0,1-12.7,41.4c-2.81,1.76-.22,6.22,2.6,4.45.38-.23.74-.48,1.1-.72l2.12,1.32c-1.15,2.11,1.08,5.22,3.41,3.55,9.68-6.94,19.85-14.59,25-25.69C273.67,179.89,274,168.3,267.67,159.51Z" style="fill:#cf4327;"/><path d="M154.12,395.13c-7.86-8.35-15.12-16.23-25.26-21.91a2.4,2.4,0,0,0-2.11-.18,2,2,0,0,0-1.77,2.41l0,.11a2.29,2.29,0,0,0,.11.73A83.42,83.42,0,0,0,131.37,399a299.56,299.56,0,0,0-36.43-14.22c-2.55-.81-4.2,2.51-2.51,4.31A246.81,246.81,0,0,0,111.06,407q-9.08.35-18.11,1.46c-2.3.28-3.81,3.49-1.3,4.81,10.22,5.36,22.22,5.16,33.48,5.66,9.71.43,24.17,3.32,32.16-3.93C164.65,408.26,159.58,400.92,154.12,395.13Z" style="fill:#3b301b;"/><path d="M221.11,390.55a40.78,40.78,0,0,0,19.11-46.33c-2.57-9.55-17.33-5.58-15,3.94-3.07-2.39-9.22.42-8.37,5.61a30.77,30.77,0,0,1-7.6,25.33l-.23.08c-3.61,1.2-7.05,5.48-5.4,9.52,3.6,8.83,7.54,17.48,12,25.94,4.61,8.83,18,1,13.36-7.81C226.18,401.48,223.54,396.06,221.11,390.55Z" style="fill:#cf4327;"/><path d="M331.38,367.77c-4.29-1.73-9.5-3.17-14.06-5.19,2.08-9.8,1-19.86-5.18-28.4A36.14,36.14,0,0,0,282,319.23c-9.95.19-10,15.66,0,15.48a21.65,21.65,0,0,1,7.7,1.25,4.92,4.92,0,0,0,1.24,4.67,34.7,34.7,0,0,1,9.12,24.79,4.77,4.77,0,0,0,1,3.16,9.23,9.23,0,0,0,4.34,5.28c6.55,3.81,14.82,6,21.85,8.86,3.9,1.58,8.46-1.72,9.52-5.4C338,372.89,335.23,369.33,331.38,367.77Z" style="fill:#cf4327;"/><path d="M304.15,209.2c8.1-15.48,12.92-35,5.19-51.53-.75-1.61-2.91-1.51-4.05-.52a340.6,340.6,0,0,1-40.69,30c-12.11,7.65-25.1,13.77-35.37,24-20.65,20.51-29.85,49.43-30.37,78.06-.24,13.4.42,28.07,5.55,40.64,4.7,11.53,13,18.94,25.11,22.1s26.22,2.48,37.44-3.45c10.21-5.4,16.71-16.3,20.76-26.73,10.79-27.71,2.38-57.81-17.53-79C285.28,237.11,296.91,223,304.15,209.2Z" style="fill:#cf4327;"/><path d="M257.6,192l-44.51-.46a2.61,2.61,0,0,0-1.82,4.4,201.82,201.82,0,0,1,14.86,17.15,286.83,286.83,0,0,0-46.62,10.62,2.6,2.6,0,0,0,0,5q15.45,5.91,30.9,11.79c2.62,1,4-2.38,2.49-4.17l42-39.17,2.73,0C260.92,197.21,260.93,192.05,257.6,192Z" style="fill:#cf4327;"/><path d="M213,332.5c.69-3.64,2-11.37-3.24-10.31-1.55.31-2.76,2.17-3.81,3.11a36.52,36.52,0,0,1-7,5,31.08,31.08,0,0,1-17.4,3.7c-25.57-2.22-34-30.66-38.55-51.56-4.43-20.32-9.49-43.29-28.67-54.88-19.66-11.88-46.84-12.65-68-4.61-23,8.74-40.84,28.73-45.76,53-.56,2.77,3.18,4.62,4.71,2,4.06-7,12.61-8.69,20-6.95,8.88,2.08,15.25,9.4,20.06,16.71,10,15.2,17.82,31.52,29.23,45.87C85.52,347.19,99,359,115.3,365.86c17.05,7.14,34.9,7.17,52.26,1,16.46-5.82,37.15-15.3,44.76-32.24a2.38,2.38,0,0,0,.48-1.1A2.45,2.45,0,0,0,213,332.5Z" style="fill:#cf4327;"/><path d="M309.39,157.08c-2.93-3.24-7.59-.13-10.34,1.84s-5.91,5.92-2.68,9c2.64,2.56,6.57.12,9.18-1.17,1.88-.91,3.73-2,4.62-4A5.37,5.37,0,0,0,309.39,157.08Z" style="fill:#3b301b;"/><path d="M288.25,200.63c-.66-4.37-5.06-7.46-9-8.57-10.82-3-22.23,5-26.32,14.75-3.12,7.44-1.53,22,9.27,21.81,4-.07,7.15-3,8.48-6.59,2.24-6.13,1.51-11.84,9.53-13.32C284.43,208,289,205.64,288.25,200.63Z" style="fill:#eae2c2;"/><path d="M274.94,203.11c-.14-3.92-4-6.23-7.65-6.17a6.86,6.86,0,0,0-6.6,7.07,7,7,0,0,0,5.8,7.15,2.65,2.65,0,0,0,.8.11,2.53,2.53,0,0,0,.9-.09A8.27,8.27,0,0,0,274.94,203.11Z" style="fill:#3b301b;"/><path d="M251.51,253.49c-12.15,3.31-23.22,13-24.21,26.19-1,12.92,9.41,27.43,23.41,21.41,13.15-5.65,23.76-17.88,24.45-32.52S263.56,250.71,251.51,253.49Z" style="fill:#eae2c2;"/><path d="M289,190.22a8.58,8.58,0,0,0,12.68-.47c3.59-4.44,1.57-9.67-2-13.38-2.29-2.41-5.94,1.24-3.65,3.65,1.52,1.6,3.24,3.8,1.92,6a3.35,3.35,0,0,1-5.34.51c-2.4-2.3-6,1.34-3.65,3.65Z" style="fill:#3b301b;"/><path d="M146.5,190.92h0l3.87-3.09a2.59,2.59,0,0,0,0-3.65,2.66,2.66,0,0,0-3.65,0l-2.56,2v-4.35c0-3.32-5.16-3.32-5.16,0v2.89q-1.09-1.5-2.3-2.91a2.6,2.6,0,0,0-3.65,0,2.63,2.63,0,0,0,0,3.65,34.5,34.5,0,0,1,2.28,3,15.29,15.29,0,0,1-1.83-.61,2.6,2.6,0,0,0-3.17,1.8,2.64,2.64,0,0,0,1.8,3.17,16.53,16.53,0,0,0,4.5,1.06A55.09,55.09,0,0,0,146,216.39c3.83,5.35,12.78.21,8.91-5.21A46,46,0,0,1,146.5,190.92Z" style="fill:#cf4327;"/><path d="M342.68,174.47a2.63,2.63,0,0,0-3.17-1.8c-.26.06-.51.16-.76.24l1.3-2.16a2.58,2.58,0,1,0-4.45-2.6l-.73,1.21-.09-1.94a2.63,2.63,0,0,0-2.58-2.58,2.6,2.6,0,0,0-2.58,2.58l.22,4.7-1.62-2.38a2.64,2.64,0,0,0-3.53-.93,2.6,2.6,0,0,0-.93,3.53l2.82,4.14a3,3,0,0,0,1,.91,54.07,54.07,0,0,1-6.16,20c-3.13,5.85,5.78,11.07,8.91,5.21a66.49,66.49,0,0,0,7.39-23.44,3.27,3.27,0,0,0,1.2-.62c-.49.4.2-.13.31-.2s.41-.24.63-.35l.12-.06.11,0c.26-.08.52-.16.79-.23A2.6,2.6,0,0,0,342.68,174.47Z" style="fill:#cf4327;"/><path d="M308.53,290c-5.87-9.39-12.19-18.49-18.79-27.38-2.93-3.95-6-7.77-8.93-11.74-1.83-2.5-3.61-6.51-6.65-7.77s-4.57.56-5.7,3c-2.48,5.43-4.89,10.9-7.46,16.3-1,2.17-2.07,4.35-3.15,6.5-.67,1.35-1.35,2.69-2.06,4-.23.43-.54.86-.78,1.31-7.64-4.14-15.35-8.16-23-12.31-4-2.18-8-4.4-12-6.7-3.15-1.83-6.29-4.11-9.87-5-12.13-3-13.42,14.15-14.77,22A357.22,357.22,0,0,0,190.28,329q-.07,7.14.15,14.28c.1,3.2-.41,7.41,1.53,10.21,1.54,2.23,4.39,2.88,6.83,3.59,4.36,1.27,8.77,2.39,13.19,3.39a235.88,235.88,0,0,0,62.55,5.42,2.66,2.66,0,0,0,2.58-2.58c.33-3.23-.77-16.35,2.91-16.4,4.82-.06,8.69,8.65,13.42,6.28,3.4-1.7,6.4-6.45,8.83-9.22,3.75-4.28,7.45-8.62,11-13,3.35-4.15,6.26-8.72,6.64-14.21C320.62,307,313.39,297.73,308.53,290Zm-54.07-14.68c-.31.34-.54.21,0,0Z" style="fill:#3b301b;"/><path d="M284.43,278.61q2.87-1.49,5.67-3.12A131.23,131.23,0,0,0,327,243.07a135.55,135.55,0,0,0,13.36-20.73q2.87-5.49,5.22-11.22c1.55-3.76,2-7.49,3.16-11.35a.89.89,0,0,0-.67-1.36c-8-3-16-5.94-24.23-7.87a5.11,5.11,0,0,0-2.46-.15c-2.72.73-3.62,7.53-4.56,9.86a89.21,89.21,0,0,1-4.86,9.83,98.33,98.33,0,0,1-11,16.16c-10.09,11.84-18.84,18.69-32.25,25.64-7.42,3.84-9.62,14.22-5.55,21.17C267.66,280.59,277,282.47,284.43,278.61Z" style="fill:#3b301b;"/><path d="M179,236.26a92.15,92.15,0,0,1-14-17.86c-2-3.19-3.78-6.5-5.59-9.8-1.2-2.19-2.36-5.93-5.28-6.21-2.07-.2-5.54,2.12-7.38,3a90.28,90.28,0,0,0-16.31,9.81c-2.5,1.89,1.13,6.4,2.26,8.55,14.63,27.77,37.6,51.5,68.61,59.88,7.83,2.12,17-4.46,18.11-12.3,1.28-8.82-3.92-15.84-12.3-18.11a32.74,32.74,0,0,1-7-2.51,77,77,0,0,1-8-4.12,41.27,41.27,0,0,1-5.56-3.84A92,92,0,0,1,179,236.26Z" style="fill:#3b301b;"/><path d="M335.85,379.38a31.84,31.84,0,0,0,5.46-9.84,5.2,5.2,0,0,0-3.6-6.35,5.28,5.28,0,0,0-6.35,3.6c-.06.17-.76,1.94-.4,1.14-.24.54-.51,1.07-.8,1.6s-.59,1-.91,1.53c-.1.15-1.21,1.66-.69,1-1.68,2.11-2.21,5.27,0,7.3,1.87,1.72,5.5,2.25,7.3,0Z" style="fill:#cf4327;"/><path d="M225.58,417.82a31.33,31.33,0,0,0,9.18-5.41c2.07-1.75,1.93-5.52,0-7.3a5.29,5.29,0,0,0-7.3,0l-.73.6q.62-.49-.1,0c-.47.29-.92.61-1.4.89s-1,.55-1.46.79l-.86.4q.76-.31-.08,0c-2.51,1-4.52,3.51-3.6,6.35.79,2.45,3.65,4.64,6.35,3.6Z" style="fill:#cf4327;"/><path d="M102.65,222c-1.68-1.72-5.27-2-7.49-2.48a85.59,85.59,0,0,0-43.28,1C26.13,228,5.44,249.26.07,275.73c-.68,3.33,3.81,5.55,5.66,2.39,6.32-10.83,21.56-8.22,29.78-1.32C45.78,285.42,51.35,299,58.12,310.3a3.19,3.19,0,0,0,3.5,1.42A23.76,23.76,0,0,0,78.33,278c7.61,1.47,15.42.18,18.89-8.06,4.26-10.1-1.69-18.78-9.53-24.56a39.45,39.45,0,0,0,6.4-2.28,3.39,3.39,0,0,0,.68-.31,3.36,3.36,0,0,0,.6-.37c4.4-2.76,8.07-6.82,8.81-12.13C104.51,227.9,104.51,223.93,102.65,222Z" style="fill:#eae2c2;"/><path d="M360.85,20.93l-32.21-.54-16.11-.27c-3.28-.05-6.45-.59-9.09,1.68-3.18,2.74-5.69,7.07-8.22,10.43q-4.59,6.08-8.89,12.37-8.56,12.51-15.94,25.76a2.61,2.61,0,0,0,2.23,3.88q16.52,1.41,33.1,1.64a2.53,2.53,0,0,0,1.18-.26c5.53.14,11.14-.08,16.14-2.75,6.06-3.23,10.14-9.6,14.4-14.75l15.25-18.44c3.63-4.38,10.73-10.09,10.76-16.18A2.62,2.62,0,0,0,360.85,20.93Z" style="fill:#3b301b;"/><path d="M351.3,58.15A4.24,4.24,0,0,1,350,59.92c-6.73,6.53-15.65,12.14-24.16,16.09-5.25,2.45-10.4,6.17-16.34,6.77-5,.5-7.73-3-9.45-7.35s-2.45-9.38-3.5-12.54a8.88,8.88,0,0,1-.52-2.18h0a3.4,3.4,0,0,1,0-1,5.5,5.5,0,0,1,1.53-2.59c3.41-3.73,8-6.1,12.49-8.38q11.17-5.65,22.42-11.1c2.28-1.09,5-2.18,7.23-.86a7,7,0,0,1,1.76,1.64c2.21,2.69,4.3,7.38,5.73,9.71.38.62,1,1.6,1.6,2.72C350.24,53.37,351.76,56.59,351.3,58.15Z" style="fill:#3b301b;"/><path d="M349.07,56.85c-2.62,4.81-9.48,8.48-14,11.26-5,3.09-10.35,5.51-15.55,8.25C314,79.27,307,83,303.14,76c-2.46-4.48-3.74-10.95-4.62-16l-1.19,2.91h0a2.58,2.58,0,0,0,1.28-2.23c.15-4.31,9.55-8.06,12.77-9.7,5.43-2.77,10.89-5.47,16.37-8.15,2-1,6.15-4,8.34-3.85,3.64.19,5.24,3.71,6.7,6.4,1.91,3.53,6.26,8.64,5.92,12.74-.27,3.31,4.89,3.29,5.16,0,.47-5.74-4.94-12.56-7.74-17.36-3.28-5.62-6.94-8.67-13.51-6C324,38.35,315.56,43,307.29,47.32,302.14,50,293.7,54,293.47,60.7l1.28-2.23h0a2.64,2.64,0,0,0-1.19,2.91c1.1,6.31,2.7,14.88,6.91,20,4,4.82,9.69,4.59,15.19,2.52A135.53,135.53,0,0,0,336.2,73.47c5.67-3.36,14.1-8.09,17.33-14C355.12,56.54,350.67,53.93,349.07,56.85Z" style="fill:#3b301b;"/><path d="M352.7,51C348.61,44,346,37.18,336.8,37c-7.74-.12-16.13,3.24-22.87,6.77-7.13,3.74-16.06,10.13-19.5,17.72-1,2.3-.31,4.71.35,7,.47,1.65,1,3.27,1.55,4.91.24.78,1,3.8,1.12,3.25a3.12,3.12,0,0,0,5.17,3c6.5-6.36,15-10.83,23.1-14.85s16.35-7.68,25.13-9.3a2.53,2.53,0,0,0,2.23-2.49A2.9,2.9,0,0,0,352.7,51Z" style="fill:#eae2c2;"/><path d="M304.68,71.5c-4.1,3.54-8,10.33-1.78,14.24,6.42,4,15.85-.55,21.95-3.07,6.72-2.77,13.33-6,19.1-10.43,4-3.13,11.21-9.25,10.89-15C353.93,40.72,309.69,67.49,304.68,71.5Z" style="fill:#3b301b;"/><path d="M385.08,9.75a42.68,42.68,0,0,1,.28-7.17A2.59,2.59,0,0,0,382.78,0a2.64,2.64,0,0,0-2.58,2.58,42.72,42.72,0,0,0-.32,4.94l-3.44-.36a2.6,2.6,0,0,0-2.58,2.58,2.64,2.64,0,0,0,2.58,2.58l4.53.48c7.36,9,4,23.82-7.93,27-9.35,2.54-14.12-10.92-24-6.16-3,1.44-.38,5.89,2.6,4.45,4.41-2.13,8.39,3.48,11.79,5.4a14,14,0,0,0,6.46,1.85c5.16.13,10.07-2.58,13.63-6.15C391.88,30.9,392.17,18.85,385.08,9.75Z" style="fill:#3b301b;"/><path d="M340.45,85.07c-3.16-1-4.52,4-1.37,5,6.74,2.19,10.82,10.89,10.42,17.62a15,15,0,0,1-.88,4.29c-2.82-4.24-7.88-7.21-13.07-6.17a10,10,0,0,0-7.88,10.58c.58,5.25,6,8.15,10.88,8.17a15.17,15.17,0,0,0,7.83-2.18,30.6,30.6,0,0,1-.23,4.11c-.91,7.81-3.75,15.86-8.8,21.93-2.11,2.53,1.52,6.2,3.65,3.65,6.76-8.12,12.77-22.63,10.16-34a16.32,16.32,0,0,0,1.43-2.25C358.18,105.1,352.06,88.84,340.45,85.07Zm1.63,33.69c-3.35,1.22-12,.06-8.66-5.66,3-5.08,9.63-1,11.57,2.85.14.28.25.57.37.87A10.24,10.24,0,0,1,342.08,118.75Z" style="fill:#e5a024;"/><path d="M451.27,407.22A188.83,188.83,0,0,0,427,409a272.78,272.78,0,0,0,24.87-23,2.6,2.6,0,0,0-2.51-4.31,195,195,0,0,0-48.15,19.51,243.55,243.55,0,0,0,18.38-37.32c.83-2.13-2-4-3.79-2.91a176.22,176.22,0,0,0-54.46,53.65c-2.83-.92-5.14,3.22-2.25,4.58,7.26,3.44,15.05,2.53,22.86,2.17,8.86-.42,17.73-.86,26.58-1.45s17.69-1.32,26.51-2.33c6.56-.75,12.81-1.59,18.07-5.89C454.88,410.17,453.36,407.21,451.27,407.22Z" style="fill:#3b301b;"/><path d="M423.22,380.91a130.42,130.42,0,0,0-40.89,16,259.92,259.92,0,0,0,21.5-47.1c.7-2-2-4.2-3.79-2.91a150.3,150.3,0,0,0-36.52,36.68,57.34,57.34,0,0,0,.82-11.7c-.15-2.83-.59-5.66-.92-8.47-.19-1.66-1-5.05-.57-6.28,1-3-3.08-4.11-4.71-2-6.67,8.63-13.15,17.42-17.16,27.65-4.3,11-6.16,22.72-7.08,34.41-1.21,1.44-.58,4.3,1.89,4.35q15.2.31,30.41.11c8.42-.12,17.09-.22,25-3.36,15-5.92,26.24-20.6,34.9-33.57C427.47,382.7,425.27,380.49,423.22,380.91Z" style="fill:#e5a024;"/><path d="M216,389.44a112.66,112.66,0,0,0-24,12.15,201.67,201.67,0,0,0,3.12-42.85c-.07-2.15-2.82-3.52-4.4-1.82a124.79,124.79,0,0,0-26.34,43,80.67,80.67,0,0,0-17-17.31c-1.73-1.31-3.71.53-3.88,2.23a60.11,60.11,0,0,0,.78,17.29,75.46,75.46,0,0,0-21.7-11.76,2.6,2.6,0,0,0-3.17,3.17,93.5,93.5,0,0,0,12.89,26.32,2.71,2.71,0,0,0,3.81.62l.09,0a299.67,299.67,0,0,0,54.67,0c6-.56,13.32-.33,17.36-5.5,4.73-6.05,7.38-14.78,10.64-21.71C219.81,391.4,218.35,388.6,216,389.44Z" style="fill:#e5a024;"/><path d="M320.8,367.25a199.27,199.27,0,0,0-29.07,38.09l-2.53-14.17c-1-5.83-1.52-12-4.78-17.1a2.61,2.61,0,0,0-4.45,0,111,111,0,0,0-12.81,31.48,85.5,85.5,0,0,0-18.89-18.84c-2.57-1.87-4.78,2-3.13,4.05-.78-1,.09,1.38.2,2.14.24,1.67.36,3.37.51,5.05.22,2.58.32,5.21.75,7.77.79,4.71,2,12.57,6.53,15.25,5.26,3.14,13.74.78,19.55.75q17.57-.08,35.07-1.59c3.21-.35,6.25-1,8.21-3.76,2.57-3.68,3.34-9.22,4.4-13.49a176.31,176.31,0,0,0,4.86-33.8A2.61,2.61,0,0,0,320.8,367.25Z" style="fill:#e5a024;"/><path d="M474.31,146.53c-10.24-5.13-20.14-.79-28.43,5.65a11.69,11.69,0,0,0-.79-3.8c-2-5.12-7-6.91-12.13-5.8-10.22,2.23-19.16,9.37-24.84,18.13-10.1-12.06-35.92,7.91-25,17.42.07.06.15.1.22.16a3.41,3.41,0,0,0,.41.33c4.61,3,10.81,3.09,16.14,3.15,6.67.07,13.31-.11,20,0,10.16.23,20.33.29,30.49-.06,7.76-.27,17.77.44,24.8-3.53C487.36,171.28,486.93,152.85,474.31,146.53Z" style="fill:#eae2c2;"/><path d="M213,92.14a33.42,33.42,0,0,0-16.28,3.72c1.54-3.94,2.63-8,1.48-12.32-1.82-6.89-8.07-9.21-14.63-8-11.09,2.06-20.35,10-25.13,20.06a18,18,0,0,0-8.83-6.72,3,3,0,0,0-.93-.32,3.16,3.16,0,0,0-1-.13c-6.74-.76-12.89,2.4-17.3,7.55-3.57,4.17-6.73,10.4-4.36,15.89,2,4.61,7.11,6.67,11.76,7.44,8,1.33,16.68.24,24.79.26,15.26,0,30.67.76,45.92.24,9.06-.31,22.3-3.47,21-15.28C228.59,96.33,220.43,92.41,213,92.14Z" style="fill:#eae2c2;"/><path d="M79.71,310.33l1.21,7.28a3.12,3.12,0,0,0,3.81,2.16A3.17,3.17,0,0,0,86.89,316l-1.21-7.28a3.12,3.12,0,0,0-3.81-2.16,3.17,3.17,0,0,0-2.16,3.81Z" style="fill:#eae2c2;"/><path d="M91.09,300.14a42.35,42.35,0,0,1,8.46-.41c4,.18,4-6,0-6.19a50.37,50.37,0,0,0-10.11.63c-1.65.26-2.57,2.33-2.16,3.81a3.17,3.17,0,0,0,3.81,2.16Z" style="fill:#eae2c2;"/><path d="M105.25,272.91a27.21,27.21,0,0,0,.59,8,3.1,3.1,0,0,0,6-1.65,21.51,21.51,0,0,1-.37-6.4,3.12,3.12,0,0,0-3.1-3.1,3.16,3.16,0,0,0-3.1,3.1Z" style="fill:#eae2c2;"/><path d="M112,255.47a6.94,6.94,0,0,1,5.36-.25c3.8,1.23,5.42-4.74,1.65-6a13.31,13.31,0,0,0-10.13.87c-3.57,1.76-.44,7.11,3.12,5.34Z" style="fill:#eae2c2;"/><path d="M115.13,300.86l4.61-4.68a3.1,3.1,0,0,0-4.38-4.38l-4.61,4.68a3.1,3.1,0,0,0,4.38,4.38Z" style="fill:#eae2c2;"/><path d="M99.12,312.94a9.62,9.62,0,0,1-.65,4.85A3.2,3.2,0,0,0,99.58,322c1.3.76,3.58.44,4.23-1.11a17.47,17.47,0,0,0,1.28-9.62c-.23-1.66-2.35-2.56-3.81-2.16-1.79.49-2.39,2.14-2.16,3.81Z" style="fill:#eae2c2;"/><path d="M95.14,338.72a69.73,69.73,0,0,0,9,1c4,.17,4-6,0-6.19a56.91,56.91,0,0,1-7.4-.79A3.18,3.18,0,0,0,93,334.91a3.12,3.12,0,0,0,2.16,3.81Z" style="fill:#eae2c2;"/><path d="M118.9,312.06a11.15,11.15,0,0,0-.15,7.34,3.16,3.16,0,0,0,3.81,2.16,3.13,3.13,0,0,0,2.16-3.81,5.43,5.43,0,0,1,.15-4,3.12,3.12,0,0,0-2.16-3.81,3.17,3.17,0,0,0-3.81,2.16Z" style="fill:#eae2c2;"/><path d="M121.49,277.32l4.15-1.48a3.1,3.1,0,1,0-1.65-6l-4.15,1.48a3.1,3.1,0,1,0,1.65,6Z" style="fill:#eae2c2;"/><path d="M134.49,324.63a16.9,16.9,0,0,1,2.91,4.78,3.19,3.19,0,0,0,3.81,2.16c1.48-.41,2.78-2.24,2.16-3.81a25.64,25.64,0,0,0-4.5-7.51,3.12,3.12,0,0,0-4.38,0,3.16,3.16,0,0,0,0,4.38Z" style="fill:#eae2c2;"/><path d="M124.7,337.35l-3.68,7.7a3.18,3.18,0,0,0,1.11,4.23,3.12,3.12,0,0,0,4.23-1.11l3.68-7.7a3.18,3.18,0,0,0-1.11-4.23,3.12,3.12,0,0,0-4.23,1.11Z" style="fill:#eae2c2;"/><path d="M122.77,361.63a24,24,0,0,0,8-1.13c3.78-1.21,2.16-7.19-1.65-6a18.61,18.61,0,0,1-6.4.91c-4-.12-4,6.07,0,6.19Z" style="fill:#eae2c2;"/><path d="M143.41,342.88l1.51,5.68a3.1,3.1,0,0,0,6-1.65l-1.51-5.68a3.1,3.1,0,0,0-6,1.65Z" style="fill:#eae2c2;"/><path d="M155.78,358.54a18.76,18.76,0,0,0,6.5-1.14,3.18,3.18,0,0,0,2.16-3.81,3.12,3.12,0,0,0-3.81-2.16,13.66,13.66,0,0,1-4.85.92c-4,0-4,6.2,0,6.19Z" style="fill:#eae2c2;"/><path d="M170.23,344.09h5.16a3.1,3.1,0,0,0,0-6.19h-5.16a3.1,3.1,0,0,0,0,6.19Z" style="fill:#eae2c2;"/><path d="M181.12,345.84l-1,4.13a3.1,3.1,0,0,0,6,1.65l1-4.13a3.1,3.1,0,0,0-6-1.65Z" style="fill:#eae2c2;"/><path d="M107.42,351.87l1.55-2.06a3.11,3.11,0,0,0,.31-2.38,3.16,3.16,0,0,0-1.42-1.85,3.12,3.12,0,0,0-2.38-.31,3.62,3.62,0,0,0-1.85,1.42l-1.55,2.06a3.11,3.11,0,0,0-.31,2.38,3.16,3.16,0,0,0,1.42,1.85,3.12,3.12,0,0,0,2.38.31,3.62,3.62,0,0,0,1.85-1.42Z" style="fill:#eae2c2;"/><path d="M77.77,329.77l2.06,2.58a3.1,3.1,0,0,0,2.19.91,3.15,3.15,0,0,0,2.19-.91,3.11,3.11,0,0,0,.91-2.19,3.58,3.58,0,0,0-.91-2.19l-2.06-2.58a3.1,3.1,0,0,0-2.19-.91,3.15,3.15,0,0,0-2.19.91,3.11,3.11,0,0,0-.91,2.19,3.58,3.58,0,0,0,.91,2.19Z" style="fill:#eae2c2;"/><path d="M111.36,237.82l1.55,2.06a3.39,3.39,0,0,0,1.85,1.42,3.16,3.16,0,0,0,2.38-.31,3.12,3.12,0,0,0,1.42-1.85,3,3,0,0,0-.31-2.38l-1.55-2.06a3.39,3.39,0,0,0-1.85-1.42,3.16,3.16,0,0,0-2.38.31,3.12,3.12,0,0,0-1.42,1.85,3,3,0,0,0,.31,2.38Z" style="fill:#eae2c2;"/><path d="M358,19.66A265.42,265.42,0,0,0,303.6,18.1a3.3,3.3,0,0,0-2.45,1.29A3.42,3.42,0,0,0,298,20.81a368.93,368.93,0,0,0-29.19,46.61c-2,3.81,3.78,7.21,5.79,3.38a369,369,0,0,1,28.76-46h.27A265.42,265.42,0,0,1,358,26.37C362.26,26.93,362.21,20.22,358,19.66Z" style="fill:#574730;"/><path d="M314.14,82.07A58.23,58.23,0,0,0,346,65.58c3.05-3.06-1.69-7.8-4.74-4.74A52.24,52.24,0,0,1,312.36,75.6c-4.25.7-2.45,7.16,1.78,6.47Z" style="fill:#574730;"/><path d="M288.95,250.52a98,98,0,0,0,36-38.63c2-3.83-3.81-7.22-5.79-3.38a91.38,91.38,0,0,1-33.61,36.22c-3.67,2.25-.31,8.05,3.38,5.79Z" style="fill:#574730;"/><path d="M154.37,219.49a63.72,63.72,0,0,0,29.22,33.66c3.79,2.06,7.18-3.73,3.38-5.79a56.67,56.67,0,0,1-26.14-29.65c-1.52-4-8-2.26-6.47,1.78Z" style="fill:#574730;"/><path d="M204,341.62a225.85,225.85,0,0,1,3-54.82c.76-4.22-5.7-6-6.47-1.78a233.16,233.16,0,0,0-3.25,56.61c.28,4.28,7,4.32,6.71,0Z" style="fill:#574730;"/><path d="M267.51,277.83a111.67,111.67,0,0,1,6.84-16.26c2-3.83-3.81-7.22-5.79-3.38A123,123,0,0,0,261,276c-1.36,4.11,5.11,5.87,6.47,1.78Z" style="fill:#574730;"/><path d="M347,411.79a82.07,82.07,0,0,1,10.25-35.56c2.09-3.78-3.7-7.16-5.79-3.38a89.85,89.85,0,0,0-11.17,38.94c-.23,4.31,6.47,4.3,6.71,0Z" style="fill:#f3bc63;"/><path d="M363,411.93a110.91,110.91,0,0,1,20.62-39.09c2.72-3.31-2-8.08-4.74-4.74a119.19,119.19,0,0,0-22.34,42.05c-1.22,4.15,5.25,5.92,6.47,1.78Z" style="fill:#f3bc63;"/><path d="M381,412.82a100.51,100.51,0,0,1,20.68-16.57c3.69-2.23.32-8-3.38-5.79a107.39,107.39,0,0,0-22,17.62c-3,3.12,1.75,7.86,4.74,4.74Z" style="fill:#f3bc63;"/><path d="M173.09,411.94a78.76,78.76,0,0,1,11.77-30.74c2.35-3.63-3.45-7-5.79-3.38a83.4,83.4,0,0,0-12.44,32.34c-.67,4.22,5.79,6,6.47,1.78Z" style="fill:#f3bc63;"/><path d="M192.42,414.77a56.84,56.84,0,0,1,8.37-8.14c1.42-1.12,1.18-3.57,0-4.74a3.44,3.44,0,0,0-4.74,0,56.84,56.84,0,0,0-8.37,8.14,3.45,3.45,0,0,0,0,4.74,3.38,3.38,0,0,0,4.74,0Z" style="fill:#f3bc63;"/><path d="M144.83,396a43.68,43.68,0,0,0,2.89,11.89,3.46,3.46,0,0,0,4.12,2.34c1.59-.44,3-2.43,2.34-4.12A37.68,37.68,0,0,1,151.53,396a3.45,3.45,0,0,0-3.35-3.35c-1.66,0-3.55,1.54-3.35,3.35Z" style="fill:#f3bc63;"/><path d="M127.41,403.85l4.13,6.88c2.22,3.7,8,.33,5.79-3.38l-4.13-6.88c-2.22-3.7-8-.33-5.79,3.38Z" style="fill:#f3bc63;"/><path d="M197,227l21.22-3.74c4.24-.75,2.44-7.21-1.78-6.47l-21.22,3.74c-4.24.75-2.44,7.21,1.78,6.47Z" style="fill:#db6653;"/><path d="M223.51,202.3a127.46,127.46,0,0,1,14.93,1c4.27.54,4.23-6.17,0-6.71a127.46,127.46,0,0,0-14.93-1c-4.32,0-4.32,6.67,0,6.71Z" style="fill:#db6653;"/><path d="M278.93,187.31,291.3,178c3.41-2.56.07-8.38-3.38-5.79l-12.38,9.29c-3.41,2.56-.07,8.38,3.38,5.79Z" style="fill:#db6653;"/><path d="M123,258.91c10.73,8.88,9,26,11.67,38.46,2.74,13,8.54,25.21,19.83,32.77,3.6,2.41,7-3.4,3.38-5.79-13-8.71-16.58-24.79-18.47-39.36-1.43-11-2.49-23.23-11.66-30.83-3.3-2.73-8.07,2-4.74,4.74Z" style="fill:#db6653;"/></g></g></svg>