<svg xmlns="http://www.w3.org/2000/svg" viewBox="0 0 497.99 361.85"><title>Page Not Found</title><g id="Layer_2" data-name="Layer 2"><g id="Layer_1-2" data-name="Layer 1"><path d="M290.93,194.76,354,173c10-3.46,5.71-19.47-4.4-16l-63,21.8c-10,3.46-5.71,19.47,4.4,16Z" style="fill:#3b301b;"/><path d="M359.77,262.76a2.43,2.43,0,0,0-.55-3.3,2.71,2.71,0,0,0-2.08-.86c-19.15.16-38.06,3-56.79,6.87-14.95,3.07-26.69,9-35.77,21.5a92.81,92.81,0,0,0-16.13,39.34c-.87,5.49-1.6,12.12,5,14.12,3.58,1.09,7.89.66,11.59.73q8.34.15,16.68,0a416.22,416.22,0,0,0,69.38-7.55,2.78,2.78,0,0,0,.33-5.47,518.45,518.45,0,0,0-72.58-18.2c28.35-12.48,57.45-24,79.92-46.07A2.22,2.22,0,0,0,359.77,262.76Z" style="fill:#3b301b;"/><path d="M360.92,294.28a228.87,228.87,0,0,0-65.45-4.12,224.22,224.22,0,0,0-26.31,3.52q14-8.76,27.23-18.57C312.77,263,329.84,250,340.29,232.18c1.34-2.29-1.24-4.36-3.38-3.85-43.19,10.22-88.75,26.26-113.11,66.11-1.18,1.93.4,3.62,2.18,3.83l-4.19,36.56c-2.23-.23-4.26,2.89-2.15,4.87,5.25,5,12,7.35,18.74,9.61,9,3,17.93,6.09,27.25,8.13,16.44,3.6,35.7,7.37,51.89.91a2.8,2.8,0,0,0,1.39-4.15c-4.1-5.81-10.34-8.83-16.53-12a221.64,221.64,0,0,0-23.28-10.7q-7.66-2.85-15.5-4.93c34.24-2.1,67.86-10.86,98.32-27.29C364.11,298.1,363.1,294.73,360.92,294.28Z" style="fill:#e5a024;"/><path d="M277.9,259.73a153.18,153.18,0,0,1,42-18.45c3.43-.93,1.62-6.16-1.81-5.22a158.15,158.15,0,0,0-43.25,19.08c-3,1.91.07,6.5,3.08,4.59Z" style="fill:#f3bc63;"/><path d="M281.93,300.87a215.54,215.54,0,0,1,58.45-1.47c3.51.39,4.62-5,1.07-5.42a220.94,220.94,0,0,0-59.93,1.38c-3.48.56-3.12,6.08.41,5.52Z" style="fill:#f3bc63;"/><path d="M265.07,336.74a138,138,0,0,1,39.65,16.38c3,1.85,5.5-3.11,2.48-4.94a142.92,142.92,0,0,0-41.05-16.86c-3.46-.83-4.53,4.59-1.07,5.42Z" style="fill:#f3bc63;"/><path d="M312.84,273.49a167.93,167.93,0,0,1,31.3-6.69c3.52-.41,3.14-5.93-.41-5.52a175.77,175.77,0,0,0-32.7,7c-3.39,1.07-1.59,6.3,1.81,5.22Z" style="fill:#574730;"/><path d="M316.39,326.57a122.65,122.65,0,0,1,18,4.53c3.37,1.12,4.41-4.31,1.07-5.42a122.65,122.65,0,0,0-18-4.53c-3.5-.6-4.59,4.82-1.07,5.42Z" style="fill:#574730;"/><path d="M135.82,267.29c-6.63-19.2-17.81-33.66-35.93-43.12a367.93,367.93,0,0,0-81.58-31,3.73,3.73,0,0,0-3,.49,3.34,3.34,0,0,0-1.79,4.25,3.05,3.05,0,0,0,1,1.76c23.08,36.67,58.41,61.34,92.4,87a713.62,713.62,0,0,0-103,1.35c-4.34.37-5.31,5.62-1.29,7.43a574,574,0,0,0,79.44,29.11c13.79,3.91,27.76,7.42,41.84,10.15,8.54,1.66,15.69.5,17.6-9.1C145.23,307,142,285.1,135.82,267.29Z" style="fill:#cf4327;"/><path d="M196.43,296.83c.9,7.93-5.69,17.49-10.37,23.08-2.44,2.92-5.24,5.64-6.78,9.12s-1.67,7.11-2.36,10.71c-2.35,12.28-16.93,11.86-27.37,12.8-12.67,1.14-25.19,2.36-37.94,2.14-23.15-.4-50.16-1.46-69.78-15.25a3.85,3.85,0,0,1-.55-6c7.34-6.48,16.66-8.56,25.94-10.81,11.47-2.78,22.84-5.47,34.58-6.94,7.46-.93,14.94-1.45,22.41-1.66C79,300.35,36.69,277.95,1.08,246.25-1.49,244,1,239.77,4,239.85a315,315,0,0,1,89,15.25,308.53,308.53,0,0,1,34.12,13.07Q111.17,252,96.51,234.67c-18.1-21.45-36.85-44.19-45.18-71.44-1.06-3.48,3.06-5.43,5.74-4.09l.86.43c31.18,15.69,62,33.62,87.18,58.08A210.25,210.25,0,0,1,183.82,268c4.48,8.28,9.45,17.78,12.18,26.77A11.65,11.65,0,0,1,196.43,296.83Z" style="fill:#e5a024;"/><path d="M85.09,188.14a217.75,217.75,0,0,1,41.67,32.25c3.48,3.44,9.07-1.72,5.58-5.18a226.07,226.07,0,0,0-43.17-33.5c-4.21-2.51-8.29,3.91-4.08,6.42Z" style="fill:#f3bc63;"/><path d="M46.72,254.45q31.1,6.84,61.38,16.7c4.66,1.52,6.95-5.74,2.29-7.26Q80.11,254,49,247.2c-4.75-1-7.08,6.2-2.29,7.26Z" style="fill:#f3bc63;"/><path d="M63.24,333.82c17.24-6.17,35.33-8.21,53.46-10,4.8-.46,5.15-8.07.28-7.6-18.8,1.81-37.59,3.76-55.49,10.16-4.55,1.63-2.87,9.06,1.75,7.41Z" style="fill:#f3bc63;"/><path d="M32.26,209.93a206.09,206.09,0,0,1,39.25,16.14c4.3,2.31,8.4-4.1,4.08-6.42a216,216,0,0,0-41-17c-4.7-1.39-7,5.86-2.29,7.26Z" style="fill:#db6653;"/><path d="M30.87,297.05a131,131,0,0,1,25.45,1.26c4.84.71,5.08-6.9.28-7.6a131,131,0,0,0-25.45-1.26c-4.86.23-5.18,7.84-.28,7.6Z" style="fill:#db6653;"/><path d="M239.2,22.87c3.25.23,6.25-.43,7-4,1.14-5.79-5.73-6.43-10.28-6.91C236.76,7.46,238,1.19,232.6.13c-5.79-1.14-6.43,5.73-6.91,10.28-4.49-.89-10.75-2.15-11.82,3.27-1.14,5.79,5.73,6.43,10.28,6.91-.89,4.49-2.15,10.75,3.27,11.82,4.27.84,5.74-2.68,6.41-6.41a39.8,39.8,0,0,1,8.25,22.6c.18,3.93,6.31,3.95,6.13,0A46.66,46.66,0,0,0,239.2,22.87Zm-7.56-8,.16,0V15Z" style="fill:#e5a024;"/><path d="M230.53,9.71a6.58,6.58,0,1,0,5.93,7.89,3.62,3.62,0,0,0,.07-.55c0-.09,0-.17,0-.26A6.62,6.62,0,0,0,230.53,9.71Z" style="fill:#eae2c2;"/><path d="M265.87,67.16c-17.8-2.81-37.54-2.64-54.12,5-2.4,1.11-.69,4.88,1.77,4.2s7.3,2.18,11,5.06a100.44,100.44,0,0,0-58.49,18.26,2.3,2.3,0,0,0,2.32,4c2.87-1.38,7.56.35,10.52,1,1.8.38,3.59.74,5.34,1.18a100.22,100.22,0,0,0-42,20.65c-1.73,1.43-.11,3.7,1.62,3.92a29.22,29.22,0,0,1,11.66,4.05,92,92,0,0,0-37,34.1,2.31,2.31,0,0,0,3.14,3.14,26.29,26.29,0,0,1,8.88-3.36,42.8,42.8,0,0,0-12,21.16,2.17,2.17,0,0,0,.58,2.13,1.87,1.87,0,0,0,2.58.6,1.9,1.9,0,0,0,.77-.52c17.82-12.85,38-21.41,57-32.25,21-11.95,41.82-24.1,61.55-38,9.65-6.82,19.1-13.92,28.56-21,5.88-4.39,17.62-10.06,19-18.17C290.39,71.31,273.32,68.34,265.87,67.16Z" style="fill:#cf4327;"/><path d="M291,294.09a91,91,0,0,1-16,17.19c-43.19,35.48-102.81,26.73-150.79,7.64-24.61-9.79-45.24-30-53.15-55.64-1.22-4-2.41-8.12-1.74-12.21a1.47,1.47,0,0,1,.4-.92,1.51,1.51,0,0,1,1.46,0c2.86,1,5.44,2.71,8.3,3.71,12,4.18,23-6.77,28-16.85,6.46-13.17,10.8-27.22,16.32-40.78,6-14.79,15.43-28.25,25.59-40.49,20.45-24.63,45.2-47.27,73.51-62.5a172.08,172.08,0,0,1,45.29-16.63c14.41-3.11,29.64-5,44-.45a3.11,3.11,0,0,1,.73,5.6,137.35,137.35,0,0,0-17,13.91c1.11.2,2.15.43,3.08.6a153.48,153.48,0,0,1,19.77,5c2.65.84,3.15,5.33,0,5.9-20.6,3.76-36,25.29-36.38,45.76-.17,10.38,3.4,17.84,8.73,26.13,6.64,10.32,11.56,22.77,14.87,35.69.56,2.19,1.08,4.37,1.54,6.57C312.69,246.27,305.94,273.31,291,294.09Z" style="fill:#3b301b;"/><path d="M283.54,99.9a3.13,3.13,0,0,0-.09-.9c-.89-9-7.73-16.37-17.18-16.37a17.26,17.26,0,0,0-.77,34.49c9.75.43,17-7.05,18-16.31A3.13,3.13,0,0,0,283.54,99.9Z" style="fill:#eae2c2;"/><path d="M277.57,99.9a3.11,3.11,0,0,0-.09-.9c-.71-5.72-5.14-10.4-11.21-10.4a11.29,11.29,0,0,0-.45,22.58c6.24.25,10.93-4.48,11.66-10.37A3.13,3.13,0,0,0,277.57,99.9Z" style="fill:#3b301b;"/><path d="M300.11,88.82,302.7,93A3.06,3.06,0,0,0,308,89.93l-2.59-4.21a3.06,3.06,0,0,0-5.29,3.09Z" style="fill:#3b301b;"/><path d="M497.91,50.09l0-.15a3,3,0,0,0-2.14-2.14l-19.85-3.51,2-10.48a3.1,3.1,0,0,0-4.5-3.46L460.2,37.87,458.57,30c-.49-2.4-3.52-2.78-5.12-1.35l-15.72,14c-3,2.62,1.39,6.95,4.33,4.33L453.69,36.6l1.41,6.85a3.09,3.09,0,0,0,4.5,1.83l11.09-6.33-1.33,7c-.29,1.51.41,3.46,2.14,3.77L487,52.45l-12.81,8.41a3.1,3.1,0,0,0-1.1,4.19l4.24,6.29-13.07-1.49c-2.12-.24-3.31,2.14-3,3.88l1.33,6.45-15.08-5c-3.75-1.25-5.36,4.67-1.63,5.91l20,6.63c2.36.78,4.21-1.62,3.77-3.77l-1.55-7.52,15.47,1.76c2.28.26,3.86-2.81,2.65-4.61L480,64.36,496.5,53.55A3.19,3.19,0,0,0,497.91,50.09Z" style="fill:#e5a024;"/><path d="M131.36,164.31a115.83,115.83,0,0,1,19.57-15.85c3.31-2.13.24-7.43-3.09-5.29A123.26,123.26,0,0,0,127,160c-2.78,2.8,1.55,7.14,4.33,4.33Z" style="fill:#db6653;"/><path d="M152.84,129a119.25,119.25,0,0,1,30.53-12.85c3.81-1,2.19-6.93-1.63-5.91a125.42,125.42,0,0,0-32,13.46c-3.39,2-.31,7.31,3.09,5.29Z" style="fill:#db6653;"/><path d="M177.88,101.54A105.33,105.33,0,0,1,215.66,90c3.88-.42,3.92-6.55,0-6.13a113.49,113.49,0,0,0-40.88,12.36c-3.49,1.83-.4,7.12,3.09,5.29Z" style="fill:#db6653;"/><path d="M225,75.77a115.31,115.31,0,0,1,36.93-1.27c3.9.48,3.87-5.65,0-6.13a120.46,120.46,0,0,0-38.56,1.49c-3.86.77-2.23,6.68,1.63,5.91Z" style="fill:#db6653;"/><path d="M288.73,56.16,282.14,55A19.72,19.72,0,0,0,266,33.12c-10.49-1.77-19.88,5.26-22.31,15.31l-6-1c-3.86-.66-5.51,5.24-1.63,5.91l51,8.76C291,62.73,292.62,56.83,288.73,56.16Z" style="fill:#3b301b;"/><path d="M247.77,50.81l29.29,5c2.89.5,4.14-3.93,1.22-4.43l-29.29-5c-2.89-.5-4.14,3.93-1.22,4.43Z" style="fill:#cf4327;"/><path d="M362.06,186.76l14.59-48.55a55.35,55.35,0,1,0-21.73-6.53l-14.59,48.55a8.07,8.07,0,0,0,5.4,10l6.28,1.89A8.06,8.06,0,0,0,362.06,186.76ZM348.36,73.13a34.49,34.49,0,1,1,23.1,43A34.5,34.5,0,0,1,348.36,73.13Z" style="fill:#3b301b;"/><path d="M420.46,75.57,409.57,55a2.41,2.41,0,0,0-3.21-1L387.16,64.23,377,45a2.41,2.41,0,0,0-3.21-1L353.23,54.94a2.41,2.41,0,0,0-1,3.21l10.18,19.19L343.23,87.53a2.41,2.41,0,0,0-1,3.21l10.89,20.54a2.19,2.19,0,0,0,1.32,1.12l.09,0,.08,0a2.2,2.2,0,0,0,1.73-.19l19.19-10.18,10.18,19.19A2.2,2.2,0,0,0,387,122.4l.09,0,.08,0a2.2,2.2,0,0,0,1.73-.19l20.54-10.89a2.41,2.41,0,0,0,1-3.21L400.28,89l19.19-10.18A2.41,2.41,0,0,0,420.46,75.57Z" style="fill:#cf4327;"/><path d="M359.09,87q11.88-5.86,23.56-12.1,5.64-3,11.22-6.13c1-.54,11.45-6,11.46-5.77.15,3,4.9,3.2,4.75.14-.55-11-15.36-.27-19.23,1.87q-16.77,9.31-34,17.79c-2.75,1.36-.52,5.55,2.23,4.2Z" style="fill:#db6653;"/><path d="M365.23,51c-3,1.42-9.11,3.66-9.44,7.56-.17,2,1.11,3.83,2,5.51l4.14,8.14c1.39,2.73,5.59.5,4.2-2.23s-4-6.24-4.73-9.3q-1.22-1.15.07-2.14,1-.62,2-1.2c1.33-.77,2.69-1.47,4.07-2.13,2.76-1.33.53-5.52-2.23-4.2Z" style="fill:#db6653;"/><path d="M379.59,105.24q3.57,6,6.61,12.28c1.33,2.76,5.53.53,4.2-2.23q-3-6.28-6.61-12.28c-1.56-2.62-5.77-.41-4.2,2.23Z" style="fill:#db6653;"/><path d="M350.8,90.83c2.92.9,4.32-3.65,1.39-4.54s-4.32,3.65-1.39,4.54Z" style="fill:#db6653;"/><path d="M180.13,316.54a224.69,224.69,0,0,0-10.7,25.69c-3,8.85.87,10.18,8.49,14.18,4.71,2.47,8.91-4.67,4.18-7.15-1.84-1-4.4-1.52-5.1-3.62-.52-1.55,2.41-6.8,3-8.4,2.16-5.63,4.62-11.11,7.26-16.52C189.6,315.95,182.46,311.74,180.13,316.54Z" style="fill:#3b301b;"/><path d="M237,341.3l-5.89,3.21-1.59.86c-2.06-3.62-3.51-8.31-5.18-11.85l-6.67-14.13c-2.27-4.82-9.42-.62-7.15,4.18l6.67,14.13c2.1,4.45,3.89,10.08,6.67,14.13,4.45,6.46,12.56-.79,17.32-3.39S241.73,338.75,237,341.3Z" style="fill:#3b301b;"/><path d="M237,222.93c-1-5.23-9-3-8,2.2,1.6,8.62-3.69,18.47-12.77,20.17a16.65,16.65,0,0,1-7.09-.32c4.57-5.48,6.38-12.61,2.74-20.25-3.93-8.24-14.6-11.11-20.59-3.29-5.58,7.29-2.71,18,3.12,24.17l.21.21-.49.22c-8.73,3.59-17.7.46-22.56-7.6-7.13-11.83-3.54-29.77,4.22-40.42,9.09-12.49,24.83-19.78,39.94-14.84,5.08,1.66,7.25-6.33,2.2-8-20.7-6.76-43.16,5.48-52.73,24.3-8.56,16.82-8.74,44,10.33,53.83,7.75,4,18.18,2.56,26.19-2.15C219.22,260.06,241,244.19,237,222.93Zm-32.12,6.41c.8,2.44.14,5.7-.94,7.94a15.94,15.94,0,0,1-2.51,3.7,12.77,12.77,0,0,1-4.62-8.68C196.42,226.46,202.81,223,204.91,229.35Z" style="fill:#eae2c2;"/><path d="M253.74,189.71q.44.5-.1-.18.17.23.31.48l.14.25q.3.61-.07-.21a4.72,4.72,0,0,0,.24.82q.13.69,0-.26,0,.28,0,.57a4.14,4.14,0,0,0,8.28,0,10.82,10.82,0,0,0-2.95-7.31,4.17,4.17,0,0,0-5.86,0,4.23,4.23,0,0,0,0,5.86Z" style="fill:#cf4327;"/><path d="M273.56,188.29c.24.37.45.76.67,1.15.41.74-.16-.65.08.24l.26,1q.13.71,0-.12,0,.33.05.66a4.21,4.21,0,0,0,4.14,4.14c2.13-.1,4.28-1.83,4.14-4.14a14.34,14.34,0,0,0-2.21-7.06,4.14,4.14,0,0,0-7.15,4.18Z" style="fill:#cf4327;"/><path d="M268.14,210.49l1.09,4.42a4.18,4.18,0,0,0,5.09,2.89,4.22,4.22,0,0,0,2.89-5.09l-1.09-4.42A4.18,4.18,0,0,0,271,205.4a4.22,4.22,0,0,0-2.89,5.09Z" style="fill:#cf4327;"/><path d="M288.59,212.69c.1.43.19.85.28,1.28s.1.58,0,.2q0,.33.06.65a20.34,20.34,0,0,1,0,2.84,4.16,4.16,0,0,0,4.14,4.14,4.24,4.24,0,0,0,4.14-4.14,24,24,0,0,0-.7-7.17,4.18,4.18,0,0,0-5.09-2.89,4.23,4.23,0,0,0-2.89,5.09Z" style="fill:#cf4327;"/><path d="M281.92,232.58c.19,1,0-.86,0,.18a6,6,0,0,1,0,1l.07-.46q-.05.32-.13.63a9.35,9.35,0,0,1-.29.93,4.16,4.16,0,0,0,2.89,5.09,4.25,4.25,0,0,0,5.09-2.89,12.52,12.52,0,0,0,.36-6.66,4.16,4.16,0,0,0-5.09-2.89,4.25,4.25,0,0,0-2.89,5.09Z" style="fill:#cf4327;"/><path d="M293.62,251.35l-.67,4.4a4.53,4.53,0,0,0,.42,3.19,4.22,4.22,0,0,0,2.47,1.9c2,.45,4.74-.6,5.09-2.89l.67-4.4a4.53,4.53,0,0,0-.42-3.19,4.22,4.22,0,0,0-2.47-1.9c-2-.45-4.74.6-5.09,2.89Z" style="fill:#cf4327;"/><path d="M268.22,249.15l-1.12,4.41a4.14,4.14,0,1,0,8,2.2l1.12-4.41a4.14,4.14,0,0,0-8-2.2Z" style="fill:#cf4327;"/><path d="M277,267.9,275.34,274a4.14,4.14,0,1,0,8,2.2L285,270.1a4.14,4.14,0,0,0-8-2.2Z" style="fill:#cf4327;"/><path d="M267.58,296.44l-3.31,3.31a4.14,4.14,0,0,0,5.86,5.86l3.31-3.31a4.14,4.14,0,0,0-5.86-5.86Z" style="fill:#cf4327;"/><path d="M255.31,283.61c-.28.27-.56.53-.85.78-.09.08-.41.27-.44.37.07-.26.64-.47,0,0A19.78,19.78,0,0,1,252,286a4.18,4.18,0,0,0-1.49,5.66,4.23,4.23,0,0,0,5.66,1.49,23.88,23.88,0,0,0,5-3.72,4.14,4.14,0,0,0-5.86-5.86Z" style="fill:#cf4327;"/><path d="M244.76,300.89l-4.44,2.72a4.14,4.14,0,1,0,4.18,7.15l4.44-2.72a4.14,4.14,0,1,0-4.18-7.15Z" style="fill:#cf4327;"/><path d="M247.55,263l-1.62,2.78a4.14,4.14,0,1,0,7.15,4.18l1.62-2.78a4.14,4.14,0,0,0-7.15-4.18Z" style="fill:#cf4327;"/><path d="M252.71,228.7a21.2,21.2,0,0,1,.4,5.52,4.17,4.17,0,0,0,4.14,4.14,4.23,4.23,0,0,0,4.14-4.14,30.34,30.34,0,0,0-.7-7.73,4.17,4.17,0,0,0-5.09-2.89,4.24,4.24,0,0,0-2.89,5.09Z" style="fill:#cf4327;"/><path d="M262.3,167.77q.55.32-.31-.3a2.65,2.65,0,0,1,.29.3q-.62-.86-.3-.31-.37-1-.22-.5c.29.91,0-.92,0-.16q0,.66.06-.48-.19.61.18-.4a4.22,4.22,0,0,0,1.49,5.66c1.88,1,4.62.58,5.66-1.49a7.09,7.09,0,0,0-2.67-9.48,4.14,4.14,0,1,0-4.18,7.15Z" style="fill:#cf4327;"/><path d="M216.5,303.49c-.14.08-.83.4-.21.16s-.18,0-.26,0c-.59.17.17-.11.31,0h-.4q-.49,0,.44.08a4.52,4.52,0,0,0-3.19.42,4.22,4.22,0,0,0-1.9,2.47c-.45,2,.6,4.74,2.89,5.09a9.15,9.15,0,0,0,6.5-1.09,4.14,4.14,0,1,0-4.18-7.15Z" style="fill:#cf4327;"/><path d="M230.2,318.51l-5.51,1.14a4.17,4.17,0,0,0-2.89,5.09,4.24,4.24,0,0,0,5.09,2.89l5.51-1.14a4.17,4.17,0,0,0,2.89-5.09,4.24,4.24,0,0,0-5.09-2.89Z" style="fill:#cf4327;"/><path d="M228.27,278.65l-4.13,3.64a4.16,4.16,0,0,0,0,5.86,4.24,4.24,0,0,0,5.86,0l4.13-3.64a4.16,4.16,0,0,0,0-5.86,4.24,4.24,0,0,0-5.86,0Z" style="fill:#cf4327;"/><path d="M198.74,316.76H196a4.14,4.14,0,0,0,0,8.28h2.76a4.14,4.14,0,0,0,0-8.28Z" style="fill:#cf4327;"/><path d="M365.45,165.37l5,1.7a4.17,4.17,0,0,0,5.09-2.89,4.24,4.24,0,0,0-2.89-5.09l-5-1.7a4.17,4.17,0,0,0-5.09,2.89,4.24,4.24,0,0,0,2.89,5.09Z" style="fill:#3b301b;"/><path d="M363.8,174.18l5,1.6a4.17,4.17,0,0,0,5.09-2.89A4.23,4.23,0,0,0,371,167.8l-5-1.6a4.17,4.17,0,0,0-5.09,2.89,4.23,4.23,0,0,0,2.89,5.09Z" style="fill:#3b301b;"/><path d="M361.06,182.93l3.31.58a4.47,4.47,0,0,0,3.19-.42,4.22,4.22,0,0,0,1.9-2.47c.46-2-.61-4.69-2.89-5.09l-3.31-.58a4.47,4.47,0,0,0-3.19.42,4.22,4.22,0,0,0-1.9,2.47c-.46,2,.61,4.69,2.89,5.09Z" style="fill:#3b301b;"/><path d="M342.18,151.44a18.53,18.53,0,0,0-1,10.21c.34,2.21,3.12,3.44,5.09,2.89,2.36-.65,3.23-2.87,2.89-5.09a10.84,10.84,0,0,1,1-5.81c.87-2.06-.94-4.56-2.89-5.09-2.39-.66-4.22.82-5.09,2.89Z" style="fill:#3b301b;"/><path d="M157,192.2c18-30.9,43.67-55.62,74.46-73.7,10.33-6.07,1-22.18-9.4-16.09-33.45,19.65-61.56,46.82-81.15,80.39-6.05,10.38,10,19.77,16.09,9.4Z" style="fill:#574730;"/><path d="M125.61,215.6a65.09,65.09,0,0,1-22,36.78c-9.13,7.79,4.1,20.92,13.17,13.17a81.42,81.42,0,0,0,26.77-45c2.5-11.69-15.46-16.69-18-5Z" style="fill:#574730;"/></g></g></svg>