<svg xmlns="http://www.w3.org/2000/svg" viewBox="0 0 507.16 299.1"><title>Sign up form + workspace</title><g id="Layer_2" data-name="Layer 2"><g id="Layer_1-2" data-name="Layer 1"><path d="M115.34,212.1c-12.84-27.3-33.88-51.93-55.77-72.39a2.53,2.53,0,0,0-4.27,1.77,237.41,237.41,0,0,0,21.11,94.24A357.37,357.37,0,0,0,8.8,181.14C7,180,4.39,181.89,5.12,184a248.77,248.77,0,0,0,50.54,84.3A173.69,173.69,0,0,0,2.48,252.62c-2.12-.27-3.34,2.94-1.77,4.27,21.65,18.36,45.75,37.85,75.79,36.81a2.52,2.52,0,0,0,2.36-3.1l16.08-4.07a2.46,2.46,0,0,0,4.14,1.17c9.68-10,19.22-21.39,22.5-35.3S121.22,224.62,115.34,212.1Z" style="fill:#eae2c2;"/><path d="M133.09,113.58A92.83,92.83,0,0,0,71,151.51c-1.12,1.56.38,3.8,2.16,3.76l14.46-.33c-15.37,12-25.31,29.49-34.6,46.49-.94,1.71.68,4.56,2.82,3.67q9.08-3.75,18.42-6.7a171.82,171.82,0,0,0-24.87,53.36c-.54,2,1.81,4.07,3.67,2.82q9.42-6.28,19.31-11.74a109.49,109.49,0,0,0-5.62,42.07c.12,2,2.75,3.51,4.27,1.77a171.68,171.68,0,0,1,31.54-28.24,2.67,2.67,0,0,0-.68-4.68l31.26-135.14c.43-.07.85-.15,1.27-.21C137.59,117.95,136.24,113.13,133.09,113.58Z" style="fill:#e5a024;"/><path d="M477,123.75c-6.16-3.3-13-5.67-19.43-8.46L421,99.42,346,66.88l-84.1-36.5a2.58,2.58,0,0,0-3,.39q-64.46,75-122.32,155.41c-1.39,1.94.62,3.8,2.52,3.59l13.51,87.92c-2.83.38-2.71,5,.38,5H430.73a2.58,2.58,0,0,0,2.41-1.84q14.07-37.32,26.57-75.21,6.08-18.48,11.78-37.09,2.85-9.3,5.6-18.63,1.38-4.67,2.73-9.34c.89-3.08,2.42-6.51,2.32-9.75C482,127.33,479.85,125.28,477,123.75Z" style="fill:#3b301b;"/><path d="M210.47,15a90.3,90.3,0,0,0-15.62,4.37,91.24,91.24,0,0,1,10.9-10.71c2.48-2.05-1.07-5.57-3.54-3.54a96.58,96.58,0,0,0-26.65,35.53,25.43,25.43,0,0,1,0-17.91c1.09-3-3.74-4.34-4.82-1.33A30.28,30.28,0,0,0,173,46.94a96.38,96.38,0,0,0-5.25,42.74c.34,3.17,5.34,3.2,5,0a91.73,91.73,0,0,1,.64-24.11l.14-.1a42.47,42.47,0,0,1,17.85-9.21c3.12-.78,1.8-5.6-1.33-4.82a47.51,47.51,0,0,0-15.19,6.77,93.61,93.61,0,0,1,13.64-30.68,86.84,86.84,0,0,1,23.26-7.76C215,19.19,213.62,14.37,210.47,15Z" style="fill:#3b301b;"/><path d="M377.15,162.59c-17.27-10-34.57-20-52.83-28-4.12-1.82-8.29-3.55-12.5-5.15s-10.14-4.7-14.78-5c-2.5-.15-3.67,1.38-5,3.31-5.37,7.64-9.25,16.58-13.34,24.93-4,8.08-7.78,16.22-11.59,24.36-8.49,18.15-17.78,35.71-23.92,54.85a2.54,2.54,0,0,0,1.15,2.82c11.49,7.17,24.77,10.44,37.75,13.8,7.42,1.92,14.74,4.13,22.08,6.33,8.29,2.48,16.6,4.94,25,7.12,2.43.63,9.41,3.48,12.79,2.25a2,2,0,0,0,1.59-1.28c13.67-31.75,23.29-65,34.81-97.51A2.52,2.52,0,0,0,377.15,162.59Z" style="fill:#eae2c2;"/><path d="M325.34,147.19a2.36,2.36,0,0,0-.41-1.1c-4-5.92-12.43-7.71-18.79-9.94a2.51,2.51,0,0,0-2.82,1.15,211.19,211.19,0,0,1-10.8,19,2.52,2.52,0,0,0,.9,3.42q9.61,5,19.48,9.45a2.61,2.61,0,0,0,3-.39c2.63-2.54,4.25-7.3,5.86-10.5C323.3,155.28,326.36,150.79,325.34,147.19Zm-8.83,10.45q-1.3,2.53-2.68,5c-.12.22-.41.7-.7,1.19q-7.54-3.46-14.93-7.24c3-4.92,6-9.84,8.55-15,4.73,1.45,11,3,13.71,6.83C320.89,150.91,317.55,155.64,316.51,157.65Z" style="fill:#e5a024;"/><path d="M330.36,165.22l8.72,4.3c2.18,1.08,6.42,2.15,7.79,4.16,1.8,2.64,6.13.15,4.32-2.52-1.69-2.48-4.48-3.44-7.09-4.73l-11.21-5.53c-2.88-1.42-5.41,2.89-2.52,4.32Z" style="fill:#e5a024;"/><path d="M324.37,174.12l17.11,8.31c2.88,1.4,5.42-2.91,2.52-4.32L326.9,169.8c-2.88-1.4-5.42,2.91-2.52,4.32Z" style="fill:#e5a024;"/><path d="M289,179.28q27.09,11,53.86,22.78c2.92,1.28,5.47-3,2.52-4.32q-27.36-12-55-23.28c-3-1.21-4.28,3.62-1.33,4.82Z" style="fill:#e5a024;"/><path d="M313.94,203.9,334.2,212c3,1.2,4.28-3.64,1.33-4.82l-20.25-8.11c-3-1.2-4.28,3.64-1.33,4.82Z" style="fill:#e5a024;"/><path d="M290.57,223.76q18.44,8,37.46,14.63c3,1.05,4.36-3.78,1.33-4.82q-18.41-6.35-36.26-14.13c-2.92-1.27-5.47,3-2.52,4.32Z" style="fill:#e5a024;"/><path d="M286.69,238.84l19.94,7.79c3,1.17,4.3-3.66,1.33-4.82L288,234c-3-1.17-4.3,3.66-1.33,4.82Z" style="fill:#e5a024;"/><path d="M211.47,236.66a264.8,264.8,0,0,0-24.3-47.33c-6.71-10.42-26.81-34-11.93-45.32,5.64-4.3,12.66-6.29,17.46-11.78,5.29-6,6.4-13.66,8-21.24a40,40,0,0,1,4.72-13c2.26-3.64,6.71-5.79,8.51-9.64,2.85-6.11-3.86-10.86-6.79-15.34a2.57,2.57,0,0,0-3.42-.9C187.51,80,170,84.67,153.58,92.14a99.14,99.14,0,0,0-39,30.83c-10.5,14-17.18,31.05-22.26,47.7a276,276,0,0,0-10.45,54.67,370.1,370.1,0,0,0-.27,63,2.55,2.55,0,0,0,2.5,2.5l118.76-1.19,16.89-.17a2.29,2.29,0,0,0,2.11-1.26,2.51,2.51,0,0,0,.39-1.24C223.2,269.64,217.71,252.67,211.47,236.66Z" style="fill:#cf4327;"/><path d="M174.18,221.35c13.47,17.9,36.31,27.15,58.42,21.94,20.86-4.92,37.76-23.21,41.57-44.19,1.71-9.44-12.74-13.49-14.46-4-2.83,15.64-14.15,29.14-29.72,33.36-15.36,4.16-33.25-2-42.84-14.7-2.45-3.26-6.45-4.86-10.26-2.69-3.21,1.83-5.12,7-2.69,10.26Z" style="fill:#cf4327;"/><path d="M264.5,193c-5.66-1.19-7.09-8.8-1.19-11,3-1.13,1.69-6-1.33-4.82-4.63,1.76-8,6.1-7.5,11.23a11,11,0,0,0,8.69,9.45c3.14.66,4.48-4.16,1.33-4.82Z" style="fill:#cf4327;"/><path d="M303.73,195a17.7,17.7,0,0,0-7.66-9.22.63.63,0,0,0-.92.71c.68,2.38.91,4.89-.58,7a22.07,22.07,0,0,1-3.29,3.2.63.63,0,0,0,.44,1.07c1.88.11,3.23.71,5.21.51a14.5,14.5,0,0,0,6.52-2.56l.05,0A.51.51,0,0,0,303.73,195Z" style="fill:#e5a024;"/><path d="M291.88,197.78c-1.21.07-2.74-.94-3.79-1.36l-4.79-2-19.17-7.87-12.26-5L248,180c-7.84-3.23-4.38-16.11,3.55-12.86l6.56,2.69,19.21,7.9,9.61,3.95c3,1.25,6.3,2.3,9.22,3.81,2.31,1.2,1.88,4.45,1.14,6.54s-2.72,5-5,5.71A1.75,1.75,0,0,1,291.88,197.78Z" style="fill:#3b301b;"/><path d="M258.13,169.93a.66.66,0,0,0-.46-.6c-3-1.21-7-3.92-10.33-2.72a6.44,6.44,0,0,0-3.87,5.06,7.65,7.65,0,0,0,1.74,6.49,9.4,9.4,0,0,0,3.6,2.22c.78.32,2,1.13,2.84,1.12s2.07-1,2.67-1.38l.05-.06.07,0C257.32,177.54,258.35,173.62,258.13,169.93Z" style="fill:#e5a024;"/><path d="M303.73,195a10.86,10.86,0,0,0-.62-1.51.63.63,0,0,0-1.14.15,6.43,6.43,0,0,1-.58,2c-.26.52.29,1.22.85.86.4-.26.79-.52,1.2-.76l.05-.05A.53.53,0,0,0,303.73,195Z" style="fill:#3b301b;"/><path d="M262.54,176.08q17.78,7.41,35.29,15.42c.73.33,1.36-.74.63-1.08q-17.66-8.08-35.59-15.54c-.74-.31-1.07.9-.33,1.21Z" style="fill:#e5a024;"/><path d="M261,182.13l33.81,14.39c.73.31,1.37-.76.63-1.08l-33.81-14.39c-.73-.31-1.37.76-.63,1.08Z" style="fill:#e5a024;"/><path d="M269.66,196.32c3.08-6.14,4.74-13.07,0-18.8-2.06-2.47-5.58,1.08-3.54,3.54,3.15,3.78,1.18,8.91-.74,12.75-1.44,2.87,2.87,5.4,4.32,2.52Z" style="fill:#cf4327;"/><path d="M275.34,187.79a15,15,0,0,1-5.79,5.78c-2.8,1.58-.29,5.9,2.52,4.32a20,20,0,0,0,7.58-7.57c1.59-2.8-2.73-5.33-4.32-2.52Z" style="fill:#cf4327;"/><path d="M278.11,194.59a6.49,6.49,0,0,1-5,2.53c-3.21.07-3.22,5.07,0,5a11.32,11.32,0,0,0,8.51-4,2.57,2.57,0,0,0,0-3.54,2.52,2.52,0,0,0-3.54,0Z" style="fill:#cf4327;"/><path d="M278.46,201.93a4.2,4.2,0,0,1-4.29-.51,2.52,2.52,0,0,0-3.42.9,2.55,2.55,0,0,0,.9,3.42,8.81,8.81,0,0,0,8.14,1,2.57,2.57,0,0,0,1.75-3.08,2.52,2.52,0,0,0-3.08-1.75Z" style="fill:#cf4327;"/><path d="M185.08,89.71c-16.64,4.43-33.9,12.56-42.81,28.22a2.24,2.24,0,0,0-.22.37v0c0,.05,0,.11-.07.16l0,.08a2.32,2.32,0,0,0,.41,2.58,2.41,2.41,0,0,0,1.85.95c9.09.47,17.88-3.28,25.32-8.26,8.15-5.44,13.23-12.3,18.4-20.44A2.53,2.53,0,0,0,185.08,89.71Z" style="fill:#eae2c2;"/><path d="M163.6,104.76a8.87,8.87,0,0,1,3.16,4.59c.93,3.07,5.76,1.76,4.82-1.33a14.48,14.48,0,0,0-5.46-7.58,2.52,2.52,0,0,0-3.42.9,2.56,2.56,0,0,0,.9,3.42Z" style="fill:#3b301b;"/><path d="M211.18,77.38c-1.55-2.65-3.15-7.28-6.85-6.46a2.61,2.61,0,0,0-.59.16c-3.05,1.24-13.09,3.59-9.66,8.89,1.54,2.38,5.34,2.35,7.83,2.43,3.21.1,6.33.29,8.88-2A2.53,2.53,0,0,0,211.18,77.38Z" style="fill:#3b301b;"/><path d="M154.17,18.17a56.25,56.25,0,0,0-26.71,12.46A69.1,69.1,0,0,1,146.92,4.16c2.47-2.07-1.08-5.59-3.54-3.54a73.73,73.73,0,0,0-26.14,60.8A41.61,41.61,0,0,1,106.88,41c-.63-3.15-5.45-1.82-4.82,1.33A46.06,46.06,0,0,0,117,68.17a2.59,2.59,0,0,0,1,.55,73.8,73.8,0,0,0,19.58,39.85c2.23,2.33,5.76-1.21,3.54-3.54a68.73,68.73,0,0,1-12.26-17.71,43.9,43.9,0,0,1,11.72-20.85c2.28-2.28-1.26-5.82-3.54-3.54a49,49,0,0,0-11.17,17.12,69.6,69.6,0,0,1-1.82-39,2.72,2.72,0,0,0,.36-.35A52.06,52.06,0,0,1,155.5,23C158.66,22.44,157.32,17.62,154.17,18.17Z" style="fill:#3b301b;"/><path d="M132.8,105.91a195.55,195.55,0,0,0-41,4.59c-2,.44-2.24,2.84-1.1,4.18a133,133,0,0,0,23.4,21.67c2.56,1.86,5-2.28,2.65-4.21l14.35-21.2,1.71,0C136,110.89,136,105.89,132.8,105.91Z" style="fill:#cf4327;"/><path d="M162.44,87a152.2,152.2,0,0,0-20.38-6c-1.66-.37-3.85,1.18-3.08,3.08a132.34,132.34,0,0,0,7.81,16c1.61,2.79,5.93.27,4.32-2.52l-.13-.23,8.35-6.11c.59.21,1.18.41,1.77.63C164.13,93,165.43,88.14,162.44,87Z" style="fill:#cf4327;"/><path d="M174.6,120c1.7,5.78,8.68,8.8,13.73,5a9.21,9.21,0,0,0,3.7-7.38c-.05-3.53-2.45-6.34-4.68-8.83s-5.68,1.14-3.54,3.54c2,2.24,4.73,5.41,2,8.24-2.16,2.27-5.61.82-6.42-1.93-.91-3.08-5.73-1.77-4.82,1.33Z" style="fill:#3b301b;"/><path d="M436.07,195.32c-2.89-2.73-7.7-3.38-11.35-4.56a124.25,124.25,0,0,0-16.07-4.3,2.4,2.4,0,0,0-1.11-.17c-3.27.22-5,4.12-6.41,6.63-2.36,4.36-4.32,8.94-6.23,13.51-2.11,5.06-3.37,10.4-5.38,15.49-2.34,5.93-9,11.6-6,18.59,2.23,5.23,11.62,7.59,16.3,9.55,5,2.12,12.39,6.45,17.53,2.51,5.55-4.27,8.81-12.86,11.18-19.21,2.81-7.54,6.1-15,8.59-22.65C438.72,205.87,440.33,199.35,436.07,195.32Z" style="fill:#cf4327;"/><path d="M436.88,196c-.24-2.91-2.06-4.42-4.36-6a61.13,61.13,0,0,0-23.86-9.48,2.39,2.39,0,0,0-1.12-.18c-3,.2-4.65,3.49-6,5.82a127,127,0,0,0-5.94,12.58c-2,4.62-3.73,9.32-5.42,14.05-1.5,4.19-2.94,8.4-4.42,12.59-.94,2.65-3.11,6.22-2.28,9.14.65,2.28,3,3.35,4.89,4.33a118.49,118.49,0,0,0,11.13,5c4.28,1.67,11.07,6.22,15.82,4.25,5-2.09,7.49-10.63,9.35-15.28,3.14-7.86,6.49-15.66,9-23.74C435,205.22,437.21,200.15,436.88,196Zm-7.12,9q-1.61,5.41-3.59,10.7c-2.63,7-5.3,14.3-8.57,21-1.7,3.52-3.46,7.75-8.12,5.76-2.6-1.11-5.14-2.19-7.78-3.2-3.44-1.32-7.78-2.58-10.76-4.78-2.47-1.82-2.33-2.21-1.27-5.13q1.13-3.14,2.23-6.29c2.22-6.33,4.37-12.69,6.86-18.91,1.44-3.6,3-7.17,4.67-10.67.85-1.77,1.72-3.55,2.7-5.25.39-.68.94-1.35,1.26-2.06a2,2,0,0,1,.63-.76A58.6,58.6,0,0,1,427.91,193C433.18,196.23,431.25,200,429.76,205.06Z" style="fill:#eae2c2;"/><path d="M432.37,195.33c-1.12-2.81-4.4-4.28-6.88-5.6-4.78-2.54-12.63-7.41-18.17-4.72-4.33,2.1-5.71,7.61-7.23,11.74-3.2,8.69-7,17.19-10.44,25.8-2.6,6.89-1.78,12.93,5.42,16.14,4.53,2,10.67,4.82,15.63,5.08,6.59.35,7.73-5.86,9.8-11,3.61-8.89,7-17.88,10-27C431.56,202.69,433.69,198.66,432.37,195.33Z" style="fill:#3b301b;"/><path d="M397.41,229.43l9.89,4.73c2.89,1.38,5.43-2.93,2.52-4.32l-9.89-4.73c-2.89-1.38-5.43,2.93-2.52,4.32Z" style="fill:#eae2c2;"/><path d="M239.13,172.85a2.79,2.79,0,0,0-.18-.39c0-.07,0-.14-.08-.21-8.3-17.15-41.3-3.72-46.38,10.13-5.44,14.84,12.58,20.65,23.79,18.82C228.84,199.15,243.92,187.07,239.13,172.85Z" style="fill:#e5a024;"/><path d="M228.24,152c-7.72-7.91-26.18-5.42-32.31,3.59a17,17,0,0,0-1.86,3.64,7.91,7.91,0,0,0-10.9,5.79c-1.25,6.89,4.76,11.53,11,12a2.28,2.28,0,0,0,1.27-.25,21.84,21.84,0,0,0,4.79,6.4c8.06,6.76,21,7.19,27.91-1.49C234.18,174,235.36,159.24,228.24,152ZM188,167c-.16-2.56,2.65-4.83,4.74-2.68.06.06.12.1.18.15a22.94,22.94,0,0,0,.7,7.49C191,171.55,188.2,169.92,188,167Z" style="fill:#e5a024;"/><path d="M227.7,156.93h0a2.69,2.69,0,0,0-.25-.59c-6.54-11.4-30-9.1-28.82,6.18C200.09,180.7,234.84,174.57,227.7,156.93Z" style="fill:#3b301b;"/><path d="M202.95,187c9.69,7,21.21,3,27.69-6.42,6-8.71,5.87-20.06,4.37-30.08-.24-1.59-2.65-.91-2.41.66,1.23,8.25,1.47,17.34-2.29,25-4.88,10-16.38,15.74-26.1,8.66-1.3-.95-2.55,1.22-1.26,2.16Z" style="fill:#3b301b;"/><path d="M320.07,68.73l-54.9-1.55-13.72-.39c-3.32-.09-8-1.19-11.06.31-2.38,1.17-3,3.6-3.89,5.94-1.27,3.44-2.49,6.9-3.72,10.35a137.08,137.08,0,0,0-8.89,27.87,2.54,2.54,0,0,0,2.41,3.16q35,1.36,69.92,2.24c3.5.09,8.71,1.24,11.93-.56s3.72-6.79,4.64-10.07l9.69-34.14A2.53,2.53,0,0,0,320.07,68.73Z" style="fill:#eae2c2;"/><path d="M325.78,61.32l-.36-16.8-.3-13.83c-.1-4.72.74-10.72-.56-15.27-.7-2.45-2.38-3.11-4.82-3.34-5.22-.51-10.69-.13-15.94-.19l-31.88-.38L258,11.34c-4.31-.05-9.9-1.06-14,.37-3.15,1.09-4.4,3.79-4.81,6.89-.67,5.08-.47,10.41-.65,15.53l-1.26,34.81a2.29,2.29,0,0,0,2.65,2.39,2.41,2.41,0,0,0,1.91,1q30.69,1.71,61.44,1.26c4.64-.07,9.38.05,14-.37,2.57-.23,5.26-.84,7-2.91C326.28,67.79,325.85,64.44,325.78,61.32Z" style="fill:#eae2c2;"/><path d="M228.14,118.59q18.64,1.12,37.32,1.24c10.41.05,20.89,1.06,31.29.51a46,46,0,0,0,13.16-2.17c4-1.45,4.41-4.05,5.61-7.87,3.81-12.05,7.4-24,10.45-36.29.78-3.12-4-4.46-4.82-1.33-2.6,10.44-5.51,20.65-8.75,30.91-.77,2.44-1.23,5.87-2.55,8.08-1.19,2-3.16,2.32-5.42,2.78a70.16,70.16,0,0,1-14.9,1c-20.44-.28-41-.63-61.38-1.86-3.21-.19-3.2,4.81,0,5Z" style="fill:#cf4327;"/><path d="M327.22,14.86c0-3.21-5-3.22-5,0q.41,26.5-.27,53c-.08,3.22,4.92,3.22,5,0Q327.63,41.36,327.22,14.86Z" style="fill:#cf4327;"/><path d="M317.39,20.51c-.55-5-7.25-3.68-10.83-3.64-8,.08-15.91.35-23.86-.09-8.24-.48-16.54-.58-24.8-.54-2.85,0-7-.52-9.73.55-4.41,1.72-2.65,10.34-2.54,14,.26,8.72,0,17.41-.09,26.13,0,2.9-1,7.56,1.37,9.92,2,2,5.65,1.52,8.14,1.6,19.36.64,38.73.9,58.1.91a2.55,2.55,0,0,0,2.5-2.5c.36-7.6.72-15.2,1-22.81.14-3.82.35-7.64.37-11.46S317.8,24.24,317.39,20.51Z" style="fill:#3b301b;"/><path d="M246.12,83a14.36,14.36,0,0,0,6,.57c1.94-.25,3.85-1.55,3.75-3.75-.08-1.82-1.67-4-3.75-3.75-.79.1-1.56,0-2.35.08q-.41,0,.1,0l-.53-.1c-.42-.08-.82-.2-1.23-.32a3.79,3.79,0,0,0-4.61,2.62A3.83,3.83,0,0,0,246.12,83Z" style="fill:#3b301b;"/><path d="M262.17,82.35a18.67,18.67,0,0,0,7.49.32c1.95-.27,3.19-2.86,2.62-4.61-.69-2.14-2.52-2.91-4.61-2.62.62-.09-.58,0-.58,0-.4,0-.79,0-1.19,0-.74,0,.22.1-.57-.05-.39-.07-.77-.16-1.16-.26a3.75,3.75,0,0,0-2,7.23Z" style="fill:#3b301b;"/><path d="M281.62,82.52l5.5-.51c1.95-.18,3.85-1.6,3.75-3.75-.08-1.88-1.66-3.94-3.75-3.75l-5.5.51c-1.95.18-3.85,1.6-3.75,3.75.08,1.88,1.66,3.94,3.75,3.75Z" style="fill:#3b301b;"/><path d="M298.16,81.88a15.57,15.57,0,0,0,7,.17,3.77,3.77,0,0,0,2.62-4.61,3.85,3.85,0,0,0-4.61-2.62c-1.09.21.69,0-.43.06-.36,0-.72,0-1.08,0-.17,0-1.18-.14-.43,0-.36-.06-.7-.15-1.05-.24a3.75,3.75,0,1,0-2,7.23Z" style="fill:#3b301b;"/><path d="M253.13,93.13l6-.38a3.75,3.75,0,0,0,0-7.5l-6,.38a3.75,3.75,0,0,0,0,7.5Z" style="fill:#3b301b;"/><path d="M270.64,92.92l3,.54a4,4,0,0,0,2.89-.38,3.82,3.82,0,0,0,1.72-2.24c.42-1.83-.56-4.24-2.62-4.61l-3-.54a4,4,0,0,0-2.89.38A3.82,3.82,0,0,0,268,88.31c-.42,1.83.56,4.24,2.62,4.61Z" style="fill:#3b301b;"/><path d="M286.63,92l2.5.52a4,4,0,0,0,2.89-.38A3.75,3.75,0,0,0,293.36,87a3.74,3.74,0,0,0-2.24-1.72l-2.5-.52a4,4,0,0,0-2.89.38,3.75,3.75,0,0,0-1.35,5.13A3.74,3.74,0,0,0,286.63,92Z" style="fill:#3b301b;"/><path d="M291.66,102.38a26.51,26.51,0,0,0,7.83.66,3.89,3.89,0,0,0,3.62-2.75,64.34,64.34,0,0,1,3.75-9.54c2.12-4.32-4.35-8.12-6.48-3.79a76.79,76.79,0,0,0-4.5,11.33l3.62-2.75a19.46,19.46,0,0,1-5.84-.39c-4.7-1.08-6.7,6.15-2,7.23Z" style="fill:#3b301b;"/><path d="M238.15,104.9l3.5.53a4.1,4.1,0,0,0,2.89-.38,3.82,3.82,0,0,0,1.72-2.24c.41-1.79-.55-4.3-2.62-4.61l-3.5-.53a4.1,4.1,0,0,0-2.89.38,3.82,3.82,0,0,0-1.72,2.24c-.41,1.79.55,4.3,2.62,4.61Z" style="fill:#3b301b;"/><path d="M254.63,105q12.77-.2,25.5.7c4.82.34,4.8-7.16,0-7.5q-12.74-.9-25.5-.7c-4.82.08-4.84,7.58,0,7.5Z" style="fill:#3b301b;"/><path d="M240.14,94l.3-.07-1,.13a2.74,2.74,0,0,1,.61,0l-1-.13a3.15,3.15,0,0,1,.45.12l-.9-.38a2.68,2.68,0,0,1,.53.3l-.76-.59.12.1a4,4,0,0,0,2.65,1.1,3.82,3.82,0,0,0,2.65-1.1,3.77,3.77,0,0,0,1.1-2.65,3.7,3.7,0,0,0-1.1-2.65,6.32,6.32,0,0,0-2.6-1.45,6.19,6.19,0,0,0-3.06,0,3.75,3.75,0,1,0,2,7.23Z" style="fill:#3b301b;"/><path d="M409.65,151l-2-2c1.6-2.71,2.26-5.59.62-8a71.79,71.79,0,0,0-9.45-10.81c-2.34-2.23-4.64-3.11-7.64-1.79a2.16,2.16,0,0,0-1.1,1l-.06.05c-.9,1-1.93,2.08-3,3.15a17.35,17.35,0,0,1-3.27-2.49c1.53-2.17,2.58-4.51,1.71-7.35-1.32-4.27-5.68-6.18-8.39-9.37a2.29,2.29,0,0,0-1-.72c-5-4.48-10.73-6.22-15.77-1.4L360,111l-.21-.15q.18.15,0,0a8.7,8.7,0,0,1-.86-.8l-.35-.39-.1-.12-.14-.21a2.57,2.57,0,0,0-3.42-.9,2.52,2.52,0,0,0-.9,3.42,13.17,13.17,0,0,0,3,3.12c-2.32,2.93-4.89,6.61-4,10.12,1,3.83,5.85,7.06,8.78,9.35,2.76,2.15,6.78,5.87,10.62,5.53,3.24-.29,6-3.35,8.18-6a21.92,21.92,0,0,0,2.82,2.22,26.22,26.22,0,0,0-3.73,5c-1.27,2.36-.52,4.51,1.17,6.4A64.34,64.34,0,0,0,392.4,157c2.71,1.84,4.63,2,7.37.07a32.82,32.82,0,0,0,4.77-4.18l1.57,1.57a2.5,2.5,0,0,0,3.54-3.54Zm-35-18.06c-2.91,2.09-4.59,1.36-7.32-.54a54.75,54.75,0,0,1-6.16-5c-2.71-2.53-3.13-4.09-1.35-7.61,1.2-2.38,4.14-6.68,7-6.81s5.39,2.8,7.24,4.72a2.48,2.48,0,0,0,.93.62c2.89,2.48,6.76,4.74,4.66,8.76A21.51,21.51,0,0,1,374.69,132.91Zm21.47,20.35c-1.63,0-4.67-3.09-5.8-4s-5.1-3.32-5.53-4.76c-.63-2.17,1.92-3.86,3.44-5.59l5.27-6a2.76,2.76,0,0,0,.18-.25c1.23-.37,8.78,8.64,9.37,9.91,1.36,2.93-.65,5-2.49,7.09C399.64,150.72,397.62,153.29,396.16,153.25Z" style="fill:#cf4327;"/><path d="M482.34,143.81c-2.8-11-5.24-22.08-8.34-33q-2.12-7.49-4.51-14.9c-1.08-3.33-2-7.15-5.41-8.83-4.15-2-9.85-.83-14.26-.64l-18.28.76c-5.25.22-20.51-1.86-20.42,6.81a2.43,2.43,0,0,0,.37,1.3L416.62,128c1.71,10.94,2.86,22.16,5.17,33,1.76,8.28,10.52,6.79,17.33,6.87,9.3.1,18.55-.73,27.83-.7,5.57,0,13.56.09,16.84-5.43S483.73,149.27,482.34,143.81Z" style="fill:#e5a024;"/><path d="M484.57,157.58a2.54,2.54,0,0,0-2.5-2.5c-13.42.26-26.83.48-40.25.77-3.52.08-9.46-.29-11.62,3.23a3.63,3.63,0,0,0,2.27,5.66,2.44,2.44,0,0,0,1.67-.19,2.73,2.73,0,0,0,.49,0c15.88-.38,32.45.57,48.17-1.74a2.5,2.5,0,0,0,1.84-2.41Q484.6,159,484.57,157.58Z" style="fill:#eae2c2;"/><path d="M463.35,113c-2.86-4-6-10.1-11.84-7.49-2.89,1.3-5.24,3.74-8,5.35-4.36,2.59-8.59,5.37-12.93,8a2.53,2.53,0,0,0-1.15,2.82c1.57,4,3.61,10.55,9.11,9.6,3.76-.65,7.76-4,10.95-6,4.42-2.77,8.72-5.73,12.93-8.82a2.79,2.79,0,0,0,.45-.42A2.05,2.05,0,0,0,463.35,113Zm-18.7,9.38c-1.85,1.13-5.22,4.12-7.23,3.35-1.29-.5-2-2.11-2.51-3.63,4.58-2.72,9.28-5.44,13.61-8.46,1.3-.91,3.46-3.4,5.07-3.61,1.79-.23,3.15,1.77,4.25,3.58C453.55,116.66,449.17,119.61,444.66,122.35Z" style="fill:#cf4327;"/><path d="M111.1,182.21a104.53,104.53,0,0,1,10.71-16,51.43,51.43,0,0,0,9.2,20.12c1.19,1.58,4,1.7,4.57-.6a57.17,57.17,0,0,1,10-21.61,40.14,40.14,0,0,0,13.52,20.23,2.54,2.54,0,0,0,4.27-1.77,87.67,87.67,0,0,1,2.28-16c.74-3.13-4.08-4.46-4.82-1.33a94.85,94.85,0,0,0-2,12.08,36.05,36.05,0,0,1-9.5-19.38c-.3-1.84-3-2.42-4.18-1.1a62.47,62.47,0,0,0-12.91,22.35,46.63,46.63,0,0,1-6.36-18.61c-.23-2-2.67-3.54-4.27-1.77a110,110,0,0,0-12.18,16.36,57.87,57.87,0,0,1-2.82-20.83c.14-3.22-4.86-3.21-5,0a63,63,0,0,0,5.19,27.88C107.53,184,110.28,183.72,111.1,182.21Z" style="fill:#eae2c2;"/><path d="M110.76,224.86a198,198,0,0,1,8.59-19.67,74.7,74.7,0,0,0,14.6,20.8,2.53,2.53,0,0,0,4.27-1.77,52.2,52.2,0,0,1,7.28-22.93,87.93,87.93,0,0,0,19.19,19.61c1.71,1.28,3.55-.53,3.76-2.16a79.52,79.52,0,0,1,8.54-27c1.49-2.85-2.82-5.38-4.32-2.52a86,86,0,0,0-8.52,25,81.2,81.2,0,0,1-16.56-18.69,2.54,2.54,0,0,0-4.32,0,57.11,57.11,0,0,0-9.37,23.07,68.65,68.65,0,0,1-12-19.84c-.73-1.86-3.47-2.66-4.57-.6a207.83,207.83,0,0,0-9.59,20.74,46.09,46.09,0,0,1-6.77-22c-.15-3.2-5.16-3.22-5,0a51.14,51.14,0,0,0,10.2,28.59A2.54,2.54,0,0,0,110.76,224.86Z" style="fill:#eae2c2;"/><path d="M105.73,257.44c.9-8.81,6.71-15.78,11.57-23,1.9,5.2,4.15,10.36,7.89,14.41,1.76,1.9,3.63,3.71,5.46,5.55,1,1,2.06,2.07,3.06,3.12.37.38,1.8,2.2,1.46,1.31.81,2.11,4.24,2.63,4.82,0a74.58,74.58,0,0,1,9.27-23A60,60,0,0,0,169,254.71a2.52,2.52,0,0,0,3.67-1.49,131,131,0,0,1,7.24-21.71,45,45,0,0,0,13.21,17.25,2.54,2.54,0,0,0,4.27-1.77,67.32,67.32,0,0,1,3.68-15c1.11-3-3.72-4.33-4.82-1.33a70.68,70.68,0,0,0-3.09,11.36,40.43,40.43,0,0,1-10.55-17.79c-.56-1.94-3.59-2.6-4.57-.6a136.69,136.69,0,0,0-9.34,24.91,54.84,54.84,0,0,1-17.21-18.71,2.53,2.53,0,0,0-4.32,0,78.27,78.27,0,0,0-10.75,22.82c-1.77-1.73-3.77-3.33-5.2-4.78-5.56-5.64-8.26-12.34-10.86-19.79a2.53,2.53,0,0,0-4.57-.6c-4.7,8.19-11.12,15.27-13.87,24.19-4.34-6.14-8.24-14.29-6.77-21.15.67-3.14-4.15-4.48-4.82-1.33-2.25,10.46,4.58,22.31,11.13,30C103,261,105.53,259.38,105.73,257.44Z" style="fill:#eae2c2;"/><path d="M211.23,257.47l-10.11,18.87a94.48,94.48,0,0,1-15.57-15.11,2.52,2.52,0,0,0-3.93.51,200.49,200.49,0,0,0-9.33,18.45l-17.81-15.45a2.55,2.55,0,0,0-3.93.51,148,148,0,0,0-9,14q-8.95-8.87-18.25-17.36a2.53,2.53,0,0,0-3.93.51l-11,18.4a40.06,40.06,0,0,1-9.12-11.22c-1.56-2.81-5.88-.29-4.32,2.52a45.48,45.48,0,0,0,12.86,14.58,2.53,2.53,0,0,0,3.42-.9l10.89-18.2q9.31,8.57,18.26,17.53a2.52,2.52,0,0,0,3.93-.51,148,148,0,0,1,8.88-14.44L171.43,286c1.07.93,3.25,1.09,3.93-.51a200.45,200.45,0,0,1,8.86-18.18,99.45,99.45,0,0,0,16.47,14.87,2.52,2.52,0,0,0,3.42-.9L215.54,260C217.06,257.16,212.75,254.63,211.23,257.47Z" style="fill:#eae2c2;"/><path d="M133.59,251.57c-5.34-9.86-11.32-20.06-18.72-28.57a2.52,2.52,0,0,0-3.43-.8,2.31,2.31,0,0,0-1.24,2.09,150,150,0,0,0,3.18,33.6A213.46,213.46,0,0,0,60.85,204a2.51,2.51,0,0,0-3.76,2.16,163.86,163.86,0,0,0,22,66.06A449.75,449.75,0,0,0,34.37,247,2.52,2.52,0,0,0,31,250.4c8.91,16.92,21.08,35.5,39.38,43.14,16.82,7,35.79,6,53.55,4.41,5.35-.47,12.43.08,16.88-3.54,3.09-2.51,4.16-6.39,4.2-10.24C145.08,272.87,138.82,261.22,133.59,251.57Z" style="fill:#3b301b;"/><path d="M504.06,246.36c-13.58,4.12-26.81,9.07-39.91,14.5a127.22,127.22,0,0,0-13.9,6.27,319.06,319.06,0,0,0,18.82-47c.6-1.92-1.9-4.19-3.67-2.82a177.56,177.56,0,0,0-49.26,58.43,85.53,85.53,0,0,0-14.26-12.8c-1.6-1.15-3.73.41-3.76,2.16-.14,7.82-.68,18.24,7.77,22.08,4.55,2.07,10.52,2.23,15.44,2.5a103.27,103.27,0,0,0,19.16-.79,99.92,99.92,0,0,0,34.75-10.91c11.48-6.25,20.4-15.71,29.19-25.18l2.06-2.21C508.14,248.78,506.53,245.61,504.06,246.36Z" style="fill:#cf4327;"/><path d="M289.81,266.17A67.63,67.63,0,0,0,260.28,276a113.53,113.53,0,0,0,3.92-18.66c.23-1.85-2.31-3.16-3.76-2.16a89.28,89.28,0,0,0-22.25,22,117.09,117.09,0,0,0-9.26-19.89,2.27,2.27,0,0,0-2.07-1.2,2.21,2.21,0,0,0-2.25,1.2c-3.71,6.65-7.38,15-6.49,22.76,1.23,10.78,12.58,11.77,21.44,11.24,10.64-.64,21.53.86,31.7-3.12,9-3.51,15.52-10.38,20.72-18.3C293,268.43,291.68,266,289.81,266.17Z" style="fill:#eae2c2;"/><path d="M70.34,223.63A225.33,225.33,0,0,1,99.44,264c2.06,3.64,7.68.37,5.61-3.28A233.08,233.08,0,0,0,74.93,219c-2.81-3.11-7.4,1.5-4.6,4.6Z" style="fill:#574730;"/><path d="M44.89,262.77a279,279,0,0,1,25.83,16.3c3.42,2.43,6.67-3.21,3.28-5.61a279,279,0,0,0-25.83-16.3c-3.66-2-6.94,3.57-3.28,5.61Z" style="fill:#574730;"/><path d="M114.17,237a125.3,125.3,0,0,0,12.07,30.84c2,3.66,7.64.39,5.61-3.28a118.67,118.67,0,0,1-11.41-29.28c-1-4.06-7.26-2.34-6.27,1.73Z" style="fill:#574730;"/><path d="M262.46,20c-15.86-1.67-11.41,26.51-9.79,35.06.78,4.11,7,2.37,6.27-1.73s-4.58-27.68,3.53-26.83c4.16.44,4.12-6.07,0-6.5Z" style="fill:#574730;"/><path d="M413.48,185.65c-4.87,1.21-7.15,5.41-9.13,9.67A94.29,94.29,0,0,0,398,214.06c-.93,4.07,5.33,5.81,6.27,1.73a91,91,0,0,1,3.92-13c1.25-3.2,3.15-9.93,7-10.9,4.06-1,2.34-7.28-1.73-6.27Z" style="fill:#574730;"/><path d="M208.84,168.74a15.64,15.64,0,0,0,14.47-4.22c3-3-1.63-7.56-4.6-4.6a8.87,8.87,0,0,1-8.15,2.55c-4.08-.84-5.83,5.42-1.73,6.27Z" style="fill:#574730;"/><path d="M102.37,118.83a153.06,153.06,0,0,0,20-.67c4.12-.41,4.17-6.91,0-6.5a153.06,153.06,0,0,1-20,.67c-4.18-.13-4.18,6.37,0,6.5Z" style="fill:#db6653;"/><path d="M118.9,147.12a71.39,71.39,0,0,1,19-30c3-2.88-1.56-7.47-4.6-4.6a78.25,78.25,0,0,0-20.72,32.85c-1.3,4,5,5.69,6.27,1.73Z" style="fill:#db6653;"/><path d="M209.48,237.54a52.28,52.28,0,0,0,50.83-21.79c2.39-3.44-3.24-6.69-5.61-3.28a45.46,45.46,0,0,1-43.49,18.81c-4.09-.62-5.86,5.64-1.73,6.27Z" style="fill:#db6653;"/><path d="M427.25,278.35a88.94,88.94,0,0,1,22.68-34.55c3-2.88-1.56-7.47-4.6-4.6A96,96,0,0,0,421,276.62c-1.42,3.94,4.86,5.64,6.27,1.73Z" style="fill:#db6653;"/><path d="M448.49,278.1a140.06,140.06,0,0,1,28.77-14.66c3.89-1.44,2.21-7.72-1.73-6.27a147.37,147.37,0,0,0-30.32,15.31c-3.47,2.3-.22,7.93,3.28,5.61Z" style="fill:#db6653;"/><path d="M401.16,273.79a16.36,16.36,0,0,0,5.6,8.73,3.35,3.35,0,0,0,4.6,0c1.13-1.13,1.39-3.5,0-4.6a10.66,10.66,0,0,1-3.93-5.86c-1.05-4-7.32-2.33-6.27,1.73Z" style="fill:#db6653;"/><path d="M86,147l8-5.32c3.47-2.3.22-7.94-3.28-5.61l-8,5.32c-3.47,2.3-.22,7.94,3.28,5.61Z" style="fill:#f3bc63;"/><path d="M71.13,186.51a77.22,77.22,0,0,1,11.55-12c3.2-2.7-1.41-7.28-4.6-4.6a84.41,84.41,0,0,0-12.57,13.27c-1.08,1.4-.2,3.63,1.17,4.45,1.66,1,3.38.22,4.45-1.17Z" style="fill:#f3bc63;"/><path d="M428.57,144.77q-2.16-13.68-4.21-27.37c-.68-4.56-1.38-9.13-2-13.7-.75-5.38,3.71-4.49,7.56-5.66s2.29-7.49-1.73-6.27c-3.57,1.08-8,.66-10.74,3.6-3.07,3.27-1.65,8.1-1.08,12q2.85,19.57,5.94,39.11c.65,4.12,6.91,2.37,6.27-1.73Z" style="fill:#f3bc63;"/><path d="M202.79,180.84l4.69,2c1.57.66,3.64-.71,4-2.27a3.35,3.35,0,0,0-2.27-4l-4.69-2c-1.57-.66-3.64.71-4,2.27a3.35,3.35,0,0,0,2.27,4Z" style="fill:#f3bc63;"/></g></g></svg>