<svg xmlns="http://www.w3.org/2000/svg" viewBox="0 0 571.55 351.85"><title>No comments + coffee break</title><g id="Layer_2" data-name="Layer 2"><g id="Layer_1-2" data-name="Layer 1"><path d="M569.77,333a103.12,103.12,0,0,0-40.67-.41q16.95-20.61,32-42.71c1.16-1.71-.8-4.48-2.82-3.67-19.75,7.92-36.26,21.09-51.77,35.33a440,440,0,0,0,20.84-80.84c.29-1.86-1.72-4.29-3.67-2.82a140.67,140.67,0,0,0-47.15,62.36,2,2,0,0,0,1.17,2.77c-2.46,10.55-3.5,22.4-.42,32.68,3,10,11.25,14.06,21.11,14.81,13,1,26.35-.91,39.24-2.57,11.53-1.49,22.95-3.87,32.79-10.36C572,336.42,572,333.42,569.77,333Z" style="fill:#cf4327;"/><path d="M98,291.44c-3.12-14.3-9.87-27.75-16.72-40.59A342.65,342.65,0,0,0,56.83,211.8c-1.12-1.56-4.14-1.72-4.57.6-3,16,.39,33,3.84,48.68A251.19,251.19,0,0,0,64,288.9,262.63,262.63,0,0,0,25.4,247.62c-1.45-1.25-4.52-.58-4.27,1.77,3,27.71,13.9,53.44,29.61,76.15A134.6,134.6,0,0,0,2.41,310.42c-2.31-.27-3.08,2.83-1.77,4.27a111.29,111.29,0,0,0,65.21,34.88,2.67,2.67,0,0,0,2.91-1.72,2.24,2.24,0,0,0,2.44.72C95.66,341.69,102.82,313.65,98,291.44Z" style="fill:#e5a024;"/><path d="M354.3,232.06c-3.13-5-6.26-10.21-6-16.35.14-3.22-4.86-3.21-5,0-.31,7,3.08,13.09,6.67,18.88,1.69,2.73,6,.22,4.32-2.52Z" style="fill:#cf4327;"/><path d="M355.82,227.26a20.45,20.45,0,0,1-3.39-6.54c-1-3.06-5.79-1.75-4.82,1.33a27.1,27.1,0,0,0,4.68,8.75,2.51,2.51,0,0,0,3.54,0,2.56,2.56,0,0,0,0-3.54Z" style="fill:#cf4327;"/><path d="M494,144.82a21.88,21.88,0,0,0,8.22-22.21c-2.24-9.43-10.88-15.83-20.16-17a18.89,18.89,0,0,0-3.45-25.26c-8.44-6.94-18.28-4.5-26.28,1-.18-9.08-8.44-17.16-18.12-17.42-11-.29-22.06,7.77-25.12,18.19A13.23,13.23,0,0,0,400,76.49c-6.17-.72-12.18,2.86-16.52,6.91-7.61,7.1-10.72,18.51-6.16,27.46a11.16,11.16,0,0,0-5.76,2.56c-4.39,3.73-5,9.65-4.18,15,3.32,14.28,16.2,13.93,28.26,14.51,7.25.35,13.73,2.56,18.79,7.93,4.21,4.48,7,10.12,9.9,15.48s5.91,10.59,10.07,15c5.77,6.09,13.49,9.32,21.53,11.2,16.61,3.88,36.28,1.93,46.51-13.42C510.29,167.31,506.42,150.47,494,144.82Z" style="fill:#3b301b;"/><path d="M63.73,222.88a190.48,190.48,0,0,0,1.13,46.19c1.58,10.86,3.57,22.57,10.12,31.67,7.61,10.57,19.65,15,32.26,16.06a93,93,0,0,0,20.81-.84c5.89-.82,11.62-2,17.29.52,3.73,1.64,8,1.06,10.26-2.69,1.9-3.17,1-8.63-2.69-10.26-5.73-2.52-11.43-4-17.74-3.53-5.92.43-11.71,1.72-17.66,2-10.21.42-22.95-.25-29.78-9.06-5.86-7.56-7.15-18.66-8.43-27.82a178.94,178.94,0,0,1-.6-42.2c.4-4-3.73-7.5-7.5-7.5-4.39,0-7.1,3.45-7.5,7.5Z" style="fill:#eae2c2;"/><path d="M81.58,305.38V341c0,7.24,11.25,7.25,11.25,0V305.38c0-7.24-11.25-7.25-11.25,0Z" style="fill:#eae2c2;"/><path d="M132.38,310v31c0,7.24,11.25,7.25,11.25,0V310c0-7.24-11.25-7.25-11.25,0Z" style="fill:#eae2c2;"/><path d="M196.37,91.07c-.33-2.47-3.13-3.39-4.66-1.26l-6.26,8.74c-1.5-14.29-10.7-26.73-19.42-37.91-1.38-1.77-4.28-.23-4.27,1.77a114.39,114.39,0,0,1-1.6,20A69.82,69.82,0,0,0,125.7,53.74c-2.2-.86-3.71,1.92-2.82,3.67a87.14,87.14,0,0,1,8.65,27.65A67.11,67.11,0,0,0,84.37,96.36,2.52,2.52,0,0,0,85.63,101a24.43,24.43,0,0,1,15.15,6.84c-15,8.25-28.94,19.2-38,33.85-1.47,2.36,2.07,5.23,3.93,3s7.73-2,10.49-2.13a37.64,37.64,0,0,1,10,1.2,105.3,105.3,0,0,0-31.7,28.78c-1.18,1.62.44,3.7,2.16,3.76,11.53.38,22.26,3,29.87,12.22,1.91,2.32,5.09-.62,3.87-3l92.91-55.59a2.48,2.48,0,0,0,4.26,0A61.34,61.34,0,0,0,196.37,91.07Z" style="fill:#cf4327;"/><path d="M202.92,346.92h-9.34c-3.83.12-7.92-2.29-8.22-7.21-.07-1.14-.11-2.3-.13-3.49-.22-11.65,1.28-25-6.2-34.59-4.63-5.94-11.27-8.69-18.35-9.69a28.76,28.76,0,0,1,9,9.64c6.13,10.49,5.82,22.72,5.83,34.5,0,1.21,0,2.43,0,3.63a8.06,8.06,0,0,1-.27,2.21h1.94c3.22,0,3.21,5,0,5h-8.31c-4,.35-8.29-2-8.36-7.21,0-1.33,0-2.68,0-4,.14-8,.65-16.65-2.52-24-2.73-6.35-7.1-8.89-12.73-9.78-15.43-1.17-31.88,4-46.42-2.89-10.7-5.1-17.31-15.73-20.67-26.78q-.45-1.44-.81-2.88c-3.72-14.7-4.37-31-3.21-46.09,1.11-14.57,4.59-29.21,12.13-41.86a55.49,55.49,0,0,1,13.38-15.67c5.37-4.16,11.41-7.33,16.86-11.37,2.42-1.8,4.76,1.89,3,3.92l29.88,31.15c1.4-1.41,4.63,0,4.24,2.57a399.79,399.79,0,0,0-4.4,65.3c.07,4.3.26,8.58.49,12.85l.33,6.5c14.66-.82,30,2.93,39.79,14.61,10.88,13,9.75,29.17,10.37,45,0,1.17.1,2.34.17,3.5a7.47,7.47,0,0,1-.17,2.21h2.73C206.14,341.92,206.13,346.92,202.92,346.92Z" style="fill:#e5a024;"/><path d="M212.39,233.22c9.07-2.18,16.68-7.78,16.63-17.84,0-3.22-5-3.22-5,0,0,7.8-6.11,11.37-13,13-3.13.75-1.8,5.57,1.33,4.82Z" style="fill:#e5a024;"/><path d="M193.17,171.27c-.46-5.94-5.31-7.05-8-11.53-2.84-4.8,1.66-13.13,2.23-18.36a42.37,42.37,0,0,0-1.12-15,44.47,44.47,0,0,0-15.85-24.27c-17.2-13.15-43.47-9.6-57.55,6.53-12.57,14.4-18.23,41.17-8.63,58.29,5.52,9.84,15.51,16.18,25.7,20.33,13.08,5.34,27.76,9.43,42,8.64,8.08-.7,15.17-3.58,18.59-11.41A29.41,29.41,0,0,0,193.17,171.27Z" style="fill:#e5a024;"/><path d="M194.22,176.07c1.67-4.28,1-9.35-2.69-12.44-3.13-2.62-8.47-3.63-10.88.51-4.29,7.37,7.43,21.61,13,13.08a2.53,2.53,0,0,0,.35-.57A2.74,2.74,0,0,0,194.22,176.07Z" style="fill:#cf4327;"/><path d="M173,127.45c-4.66-8.72-11.94-15.35-21.59-18a2.56,2.56,0,0,0-3.08,1.75c-.92,2.66.58,7.22,1,9.9A44.17,44.17,0,0,0,153.48,134c3.89,8.09,9.9,16.28,17.31,21.59,1.38,1,3.22-.08,3.67-1.49A35.93,35.93,0,0,0,173,127.45Z" style="fill:#eae2c2;"/><path d="M166.87,149a23.41,23.41,0,0,0,7.83-4.67c2.4-2.16-1.15-5.68-3.54-3.54a17.07,17.07,0,0,1-5.62,3.39,2.57,2.57,0,0,0-1.75,3.08,2.52,2.52,0,0,0,3.08,1.75Z" style="fill:#cf4327;"/><path d="M161.24,164.38c-2.83,0-5,2.12-6.12,4.58-1.64,3.64-.9,7.56-.07,11.32.69,3.14,5.51,1.81,4.82-1.33v-.05l3.7-1.11c.51,2.44,4.71,2.19,4.95-.73C168.92,172,167.87,164.26,161.24,164.38Z" style="fill:#cf4327;"/><path d="M159.1,169.88a12.08,12.08,0,0,0,1.37,6.46c.74,1.43,2.9.17,2.16-1.26a9.6,9.6,0,0,1-1-5.2c.12-1.61-2.39-1.6-2.5,0Z" style="fill:#e5a024;"/><path d="M138.58,84.63c-1.33-2.9-5.59-.42-4.34,2.47l-16.29,9a2.12,2.12,0,0,0-3.33-1c-8.83,6.51-16.18,14.78-20.5,25-2.35,5.55-3.17,11.25-4.22,17.13S86.19,149,86.57,155.09c.57,9.16,7,7.15,11.73,2.24s9.83-10.61,13.27-16.9a71.77,71.77,0,0,0,2.93,9.85,2.54,2.54,0,0,0,4.57.6,76.69,76.69,0,0,0,11.51-30.81,50.31,50.31,0,0,1,3.59,8.73,2.52,2.52,0,0,0,4.82,0C144.79,114,145.22,99.15,138.58,84.63Z" style="fill:#cf4327;"/><path d="M156.6,183.84c1.78-2.82,5.23-5.19,8.73-4.27a5.85,5.85,0,0,1,4,7.54c-1.05,3,3.77,4.36,4.82,1.33A10.84,10.84,0,0,0,167.53,175c-5.94-2.1-12.08,1.28-15.25,6.29-1.72,2.73,2.6,5.24,4.32,2.52Z" style="fill:#3b301b;"/><path d="M168.94,117.27l9.4,16.3c1.61,2.79,5.93.27,4.32-2.52l-9.4-16.3c-1.61-2.79-5.93-.27-4.32,2.52Z" style="fill:#cf4327;"/><path d="M248.68,181.34c-2.06-2.6-5.65-6.19-8.73-7.61a4.14,4.14,0,0,0-4.48.51c-3.58,2.51-6.46,7.25-9.13,10.66-5.35,6.91-11,13.52-16.49,20.28-3.08,3.78-10.51,10.42-7,15.8a28.41,28.41,0,0,0,7.43,6.91c2,1.28,3.51,1.55,5.61.19,5.94-3.85,10.39-11.41,15.13-16.63A194.66,194.66,0,0,0,246.16,193C249.08,188.89,252.23,185.82,248.68,181.34Z" style="fill:#3b301b;"/><path d="M215.15,219.34q12.71-16.13,26.49-31.37c4.31-4.76-2.74-11.86-7.07-7.07q-13.78,15.24-26.49,31.37c-3.94,5,3.09,12.12,7.07,7.07Z" style="fill:#eae2c2;"/><path d="M214,203.54a26.39,26.39,0,0,0-7.07-3c.27,0,.53,0,.8,0a2.57,2.57,0,0,0,2.5-2.5,2.54,2.54,0,0,0-2.36-2.49,2.33,2.33,0,0,0,1-2,2.54,2.54,0,0,0-2.5-2.5l-.52,0c.5-1.68-.78-3.88-3-3.24a54.72,54.72,0,0,0-6.1,2.23,1.74,1.74,0,0,0-.45.29l-.31,0c-10.6,2-18.29,9.62-25.5,17.1-3.33,3.45-6.71,7.1-11,9.39-5,2.69-10.95,2.91-16.5,2.16-4-.54-8,1-9.23,5.24-1,3.49,1.23,8.69,5.24,9.23,13.28,1.79,24.81-.08,35.28-8.86,5.85-4.91,10.71-11.76,17.06-16.08a6.71,6.71,0,0,0,3.24,3.49c2.7,1.2,5.28-.18,7.38-1.88a2.52,2.52,0,0,0,0-3.54,2.56,2.56,0,0,0-3.54,0c-.49.4-1.32,1.1-2,.77a2.25,2.25,0,0,1-.79-1.23,21,21,0,0,1,4.29-1.32c.27-.05.53-.12.78-.19a21.42,21.42,0,0,1,10.67,3.18C214.21,209.54,216.72,205.21,214,203.54Z" style="fill:#e5a024;"/><path d="M99.55,164a51.44,51.44,0,0,0,53.13,34.67c3.18-.27,3.21-5.27,0-5-21.45,1.83-41.2-10.58-48.3-31-1.05-3-5.88-1.72-4.82,1.33Z" style="fill:#3b301b;"/><path d="M125.56,210.19c-1,5.56,3.08,10.84,8.51,11.9,5.87,1.14,11.45-3.32,12.42-9,0,0,0-.09,0-.13a2.76,2.76,0,0,0,.08-.53C147.21,199.84,127.85,197.7,125.56,210.19Z" style="fill:#cf4327;"/><path d="M134.2,195.88v10c0,3.22,5,3.22,5,0v-10c0-3.22-5-3.22-5,0Z" style="fill:#3b301b;"/><path d="M220.53,227.19a67.29,67.29,0,0,0-7.69,2.3,14.31,14.31,0,0,1-2.36-16.21c1.45-2.86-2.86-5.4-4.32-2.52a19.53,19.53,0,0,0,2.66,21.77c-1.06,1.65-1.8,3.94-3,5.43a31.23,31.23,0,0,1-11.47,8.77c-8.87,4.13-19.23,5.09-28.86,3.93A66.38,66.38,0,0,1,120.26,224c-2.38-3.32-6.51-4.83-10.26-2.69-3.27,1.86-5,7-2.69,10.26a82.34,82.34,0,0,0,59.48,34.18c12.92,1.19,26.56-1.16,37.86-7.68s18.58-16.86,18.53-30.32C222.84,226.84,221.49,226.92,220.53,227.19Z" style="fill:#e5a024;"/><path d="M149,267.76a.54.54,0,0,0-.29.06h.11Z" style="fill:#3b301b;"/><path d="M202.69,336.21c-.57-16,0-32.92-10.58-46.08-9.62-11.94-24.9-16.25-39.71-16.06l-.2-3.94a2.53,2.53,0,0,0-3.17-2.37s0,0-.19.06a2.66,2.66,0,0,0-.91.54,2.7,2.7,0,0,1,.8-.54,2.66,2.66,0,0,1-.39,0,13.86,13.86,0,0,0-2.42.14c-2.71.14-5.43.25-8.15.35-7.72.29-15.43.53-23.15.75-12,.35-24.41,1.45-36.45.67a2.52,2.52,0,0,0-2.41,3.16c5.87,18.51,19,31.32,39,32.22a156.86,156.86,0,0,0,16.58-.56c5.23-.32,11.27-1.14,16.34.47,12,3.82,10.51,20.73,10.31,30.65a2.54,2.54,0,0,0,2.5,2.5q7.48.28,15,.42a2.53,2.53,0,0,0,2.5-2.5c0-13.49-.45-27.9-8.23-38.64a21.8,21.8,0,0,1,11.08,13c2.66,8.23,1.79,17.24,1.9,25.76a2.54,2.54,0,0,0,2.5,2.5q7.48.05,15,0a2.42,2.42,0,0,0,1.31-.38A2.16,2.16,0,0,0,202.69,336.21Z" style="fill:#3b301b;"/><path d="M93.67,184.39,92.61,188a2.5,2.5,0,1,0,4.82,1.33l1.06-3.65a2.5,2.5,0,1,0-4.82-1.33Z" style="fill:#eae2c2;"/><path d="M85.91,196l-1,3a2.52,2.52,0,0,0,1.75,3.08,2.56,2.56,0,0,0,3.08-1.75l1-3A2.52,2.52,0,0,0,89,194.28,2.56,2.56,0,0,0,85.91,196Z" style="fill:#eae2c2;"/><path d="M82,208l-1,3.67a2.5,2.5,0,1,0,4.82,1.33l1-3.67A2.5,2.5,0,0,0,82,208Z" style="fill:#eae2c2;"/><path d="M93.65,206.05l-.67,3a2.5,2.5,0,1,0,4.82,1.33l.67-3a2.5,2.5,0,0,0-4.82-1.33Z" style="fill:#eae2c2;"/><path d="M84.5,222.37l-.33,3a2.51,2.51,0,0,0,2.5,2.5,2.57,2.57,0,0,0,2.5-2.5l.33-3a2.51,2.51,0,0,0-2.5-2.5,2.57,2.57,0,0,0-2.5,2.5Z" style="fill:#eae2c2;"/><path d="M79.51,235l-.34,3.33a2.51,2.51,0,0,0,2.5,2.5,2.57,2.57,0,0,0,2.5-2.5l.34-3.33a2.51,2.51,0,0,0-2.5-2.5,2.57,2.57,0,0,0-2.5,2.5Z" style="fill:#eae2c2;"/><path d="M91.2,236v2.67a2.5,2.5,0,0,0,5,0V236a2.5,2.5,0,0,0-5,0Z" style="fill:#eae2c2;"/><path d="M83.87,251.38v3a2.5,2.5,0,0,0,5,0v-3a2.5,2.5,0,0,0-5,0Z" style="fill:#eae2c2;"/><path d="M94.5,258.33q.18.35-.07-.19a2.21,2.21,0,0,1,.07.29l-.06-.37a2.37,2.37,0,0,1,0,.3q.1-.59,0-.3a1.76,1.76,0,0,1-.06.21q.25-.55.07-.19t.13-.15a2.5,2.5,0,1,0,3.54,3.54,4.92,4.92,0,0,0,.68-5.67,2.52,2.52,0,0,0-3.42-.9,2.55,2.55,0,0,0-.9,3.42Z" style="fill:#eae2c2;"/><path d="M80.91,265.29l.33.67a2.52,2.52,0,0,0,3.42.9,2.56,2.56,0,0,0,.9-3.42l-.33-.67a2.52,2.52,0,0,0-3.42-.9,2.56,2.56,0,0,0-.9,3.42Z" style="fill:#eae2c2;"/><path d="M100.87,245v2.33a2.5,2.5,0,0,0,5,0V245a2.5,2.5,0,0,0-5,0Z" style="fill:#eae2c2;"/><path d="M100.54,221.71v1.67a2.5,2.5,0,0,0,5,0v-1.67a2.5,2.5,0,0,0-5,0Z" style="fill:#eae2c2;"/><path d="M104.28,195.71l-.34,2.33a2.75,2.75,0,0,0,.25,1.93,2.55,2.55,0,0,0,1.49,1.15c1.18.27,2.88-.36,3.08-1.75l.34-2.33a2.75,2.75,0,0,0-.25-1.93,2.55,2.55,0,0,0-1.49-1.15c-1.18-.27-2.88.36-3.08,1.75Z" style="fill:#eae2c2;"/><path d="M108.87,232.38v1.33a2.5,2.5,0,0,0,5,0v-1.33a2.5,2.5,0,0,0-5,0Z" style="fill:#eae2c2;"/><path d="M108.83,259.72l.34,2.67a2.75,2.75,0,0,0,.73,1.77,2.54,2.54,0,0,0,1.77.73c1.21-.05,2.68-1.11,2.5-2.5l-.34-2.67a2.75,2.75,0,0,0-.73-1.77,2.54,2.54,0,0,0-1.77-.73c-1.21.05-2.68,1.11-2.5,2.5Z" style="fill:#eae2c2;"/><path d="M493.17,214.38a180,180,0,0,1-.6,42.2c-1.25,9.1-2.53,20.36-8.43,27.82-6.94,8.78-19.48,9.46-29.78,9.06-6-.24-11.74-1.51-17.66-2-6.31-.48-12,1-17.74,3.53-3.74,1.64-4.53,7-2.69,10.26,2.19,3.85,6.58,4.31,10.26,2.69,5.66-2.49,11.42-1.34,17.29-.52a92.81,92.81,0,0,0,20.81.84c12.62-1.09,24.65-5.49,32.26-16.06,6.55-9.1,8.55-20.82,10.12-31.67a190.93,190.93,0,0,0,1.13-46.19c-.4-4-3.16-7.5-7.5-7.5-3.75,0-7.9,3.44-7.5,7.5Z" style="fill:#eae2c2;"/><path d="M496.21,261.43c-.47,2.67-1,5.31-1.69,7.9-.08.32-.18.63-.26.95-4.62,21.54-26.52,24.22-45.26,23.85-9.34-.18-19.39-1.57-27.54,2.93-4.25,2.35-6.73,6.23-8.16,10.79-2.73,8.7-1.61,19.86-1.6,27.53,0,9.67-15,9.65-15,0,0-10.35-.5-21.63,2.5-31.69a36,36,0,0,1,6.46-12.54c4.66-5.77,11.06-9,18-10.62-.2-.31-.41-.62-.6-.94-11.27,1.52-22.68,4.12-31.26,11.42a24,24,0,0,0-5.35,6.44c-6.29,10.9-4.17,25.79-4.1,37.93,0,9.67-15,9.65-15,0-.08-15.44-1.45-32.51,6.34-45.89a35.75,35.75,0,0,1,7.5-9.08c10.44-9.12,23.37-12.84,36.66-15a44,44,0,0,1-.72-6.67c0-.46,0-.91,0-1.36,0-8.69,2.1-17.22,3.25-25.84,1.84-13.82,0-26.08-2-39.56-.39-2.61,2.84-4,4.24-2.57l29.88-31.15c-1.8-2,.54-5.72,3-3.92,5.45,4,11.49,7.21,16.86,11.37a55.49,55.49,0,0,1,13.38,15.67c7.54,12.65,11,27.29,12.13,41.86A155,155,0,0,1,496.21,261.43Z" style="fill:#cf4327;"/><path d="M479.07,294.18V341c0,7.24,11.25,7.25,11.25,0V294.18c0-7.24-11.25-7.25-11.25,0Z" style="fill:#eae2c2;"/><path d="M428.27,303.19V341c0,7.24,11.25,7.25,11.25,0V303.19c0-7.24-11.25-7.25-11.25,0Z" style="fill:#eae2c2;"/><path d="M462.57,113.36c-11.82-17.83-36.94-24.81-56-14.59-17,9.12-25.72,30.17-21,48.68,1.17,4.57,3.67,9.81-.19,13.82-1.69,1.75-3.84,3-5.16,5.12-2.76,4.42-1.44,10.57,0,15.24,2.94,9.47,10.18,13.47,19.66,14.28,13,.72,25.85-2.8,38-7.12,9.31-3.32,18.61-8.06,25.22-15.6C477.12,157.25,473.7,130.15,462.57,113.36Z" style="fill:#cf4327;"/><path d="M391.25,164.15c-2.37-4-7.5-3.22-10.66-.69-3.85,3.08-4.63,8.22-2.91,12.61a2.75,2.75,0,0,0,.24.59,2.57,2.57,0,0,0,.35.57C383.82,185.74,395.6,171.5,391.25,164.15Z" style="fill:#3b301b;"/><path d="M398.64,114.75l-9.4,16.3c-1.61,2.79,2.71,5.31,4.32,2.52l9.4-16.3c1.61-2.79-2.71-5.31-4.32-2.52Z" style="fill:#cf4327;"/><path d="M362.61,205.86c-5.66-7-11.52-13.83-17-21-2.67-3.41-5.41-7.68-8.82-10.38-1.4-1.11-2.74-1.62-4.49-.92-3.17,1.26-7,5.16-9,7.74-3.56,4.5-.42,7.52,2.52,11.69a194.68,194.68,0,0,0,15.14,18.43c2.68,3,5.32,5.89,7.85,9,2.13,2.6,4.41,5.79,7.28,7.66,2.1,1.36,3.64,1.11,5.61-.19a28.2,28.2,0,0,0,7.43-6.91C372.46,215.75,365.62,209.6,362.61,205.86Z" style="fill:#3b301b;"/><path d="M363.82,212.27q-12.71-16.13-26.49-31.37c-4.33-4.78-11.38,2.31-7.07,7.07q13.78,15.24,26.49,31.37c4,5.05,11-2.07,7.07-7.07Z" style="fill:#eae2c2;"/><path d="M426.74,216.31a38,38,0,0,1-31.25-9.11,7.84,7.84,0,0,0-.6-6.76c-1.63-2.77-6-.26-4.32,2.52a3.47,3.47,0,0,1,.38,1,11,11,0,0,0-2.48-3,2.5,2.5,0,0,0-3.75,3.3c-7.39-6.45-18.69-9.56-27.37-4.13-2.72,1.7-.21,6,2.52,4.32,7.5-4.69,17-1,22.83,4.79a6.39,6.39,0,0,0,.06,6.18,5,5,0,0,1-4.8.14c-2.85-1.49-5.38,2.82-2.52,4.32A10.22,10.22,0,0,0,386.3,219a53.93,53.93,0,0,0,44.43,11.74C440.22,229.14,436.2,214.68,426.74,216.31Z" style="fill:#cf4327;"/><path d="M467.53,162.63c-7.1,20.42-26.85,32.83-48.3,31-3.21-.27-3.19,4.73,0,5A51.44,51.44,0,0,0,472.35,164c1.06-3-3.77-4.35-4.82-1.33Z" style="fill:#3b301b;"/><path d="M446.34,210.19c-2.28-12.49-21.65-10.34-21,2.2a2.82,2.82,0,0,0,.08.53s0,.09,0,.13c1,5.62,6.31,10,12.09,9.08C443.09,221.24,447.38,215.87,446.34,210.19Z" style="fill:#e5a024;"/><path d="M432.7,195.88v10c0,3.22,5,3.22,5,0v-10c0-3.22-5-3.22-5,0Z" style="fill:#3b301b;"/><path d="M339.36,243a2.54,2.54,0,0,0-2.5-2.5H226.53A2.54,2.54,0,0,0,224,243v14a2.54,2.54,0,0,0,2.5,2.5h3.74c0,.16,0,.31,0,.47v79.39c0,9.65,15,9.67,15,0v-66.8h73.67v66.8c0,9.65,15,9.67,15,0V260c0-.16,0-.32,0-.47h3a2.31,2.31,0,0,0,1.69-.67l.08-.08,0,0a2.31,2.31,0,0,0,.68-1.7Z" style="fill:#eae2c2;"/><path d="M274.2,236.38h-6.87a9.1,9.1,0,0,0,2.83-1.82c3.68-3.52,3.88-8.79,3.58-13.52a2.58,2.58,0,0,0-.32-1.11,2.26,2.26,0,0,0-2.18-1.39H245.58a2.55,2.55,0,0,0-2.5,2.5h0c-3.71-.23-8.12,2.31-7.08,6.62,1,4,5.28,4.51,8.79,4.46a10.64,10.64,0,0,0,1.41,1.93,10.12,10.12,0,0,0,3.24,2.34h-5.76c-3.22,0-3.22,5,0,5h30.5C277.41,241.38,277.42,236.38,274.2,236.38Zm-34.2-9c-1.59-1.87,1.59-2.57,3-2.56a20.23,20.23,0,0,0,.42,3.69A4.28,4.28,0,0,1,240,227.35Z" style="fill:#3b301b;"/><path d="M326.52,221h0a2.55,2.55,0,0,0-2.5-2.5H298.37a2.26,2.26,0,0,0-2.17,1.38,2.58,2.58,0,0,0-.33,1.12c-.29,4.54-.15,9.47,3.12,13a9.45,9.45,0,0,0,3.38,2.34h-7c-3.22,0-3.22,5,0,5h30.5c3.22,0,3.22-5,0-5h-5.67a9.84,9.84,0,0,0,2.7-1.82,10.45,10.45,0,0,0,1.83-2.34c3.56,0,7.79-.45,8.83-4.51C334.7,223.4,330.22,220.8,326.52,221Zm3.09,6.39a4.22,4.22,0,0,1-3.46,1.15,20.65,20.65,0,0,0,.45-3.79C328.07,224.76,331.17,225.5,329.61,227.42Z" style="fill:#3b301b;"/><path d="M419.17,126c-8.33-3.57-16.4,1.19-20.08,8.91-3.51,7.38-1.86,17.26,5.62,21.58,8.26,4.78,18.2-1.51,21.83-9.19a2.72,2.72,0,0,0,.11-.32,2.66,2.66,0,0,0,.14-.28C429.86,138.63,427.55,129.62,419.17,126Z" style="fill:#eae2c2;"/><path d="M417.39,140.45c-3.79-3.13-9.76-3.4-13.39.12-3.49,3.37-2.89,8.48.55,11.64a9.58,9.58,0,0,0,12.2,1,2.76,2.76,0,0,0,.5-.36,2.6,2.6,0,0,0,.43-.43C421.08,149,421.36,143.73,417.39,140.45Z" style="fill:#3b301b;"/><path d="M484.84,139.87,452.11,95.36c1.45-1.17,1.56-3.87-.75-4.33-10.92-2.19-20.31-7.88-31.8-5.58-8.17,1.63-18.34,7-21.58,15.21-2.64,6.66.86,13.6,7.29,16.34,7,3,14.34,1,20.23-3.22.94,12.23,12.09,21.54,24.44,19.37-2.1,9.42,2.42,20.13,11.86,23.82,11.13,4.35,24.06-3.12,26.94-14.4C489.38,140.09,486.46,138.75,484.84,139.87Z" style="fill:#3b301b;"/><path d="M410.84,182A55,55,0,0,1,426,172.55c2.93-1.22,1.64-6.06-1.33-4.82a62.37,62.37,0,0,0-17.34,10.74c-2.43,2.12,1.12,5.65,3.54,3.54Z" style="fill:#3b301b;"/><path d="M394.77,342.57H405c3.22,0,3.22-5,0-5H394.77c-3.22,0-3.22,5,0,5Z" style="fill:#cf4327;"/><path d="M365.08,342.57h10.21c3.22,0,3.22-5,0-5H365.08c-3.22,0-3.22,5,0,5Z" style="fill:#cf4327;"/><path d="M497.82,261a2.36,2.36,0,0,0-.51-1.06c-1.85-3.11-6-3.15-9.32-3.2-7.91-.1-15.84.11-23.75.17-15.72.12-31.44-1-47.13-.71a2.53,2.53,0,0,0-2.5,2.5c.08,1.56.23,3.1.42,4.64-16.89,3.09-34.17,9.51-43.52,24.85a2.55,2.55,0,0,0,.9,3.42c4.18,2.78,8.41,5.46,12.76,8a2.55,2.55,0,0,0,3.42-.9c4.55-7.38,12.11-11.36,20.25-13.74a36.61,36.61,0,0,0-12,18.05,2.56,2.56,0,0,0,1.75,3.08,82.33,82.33,0,0,0,14.1,4.16,2.57,2.57,0,0,0,3.08-1.75c4.75-13.86,19.64-12.29,31.63-11.93,8.23.25,16.64,0,24.67-2,7.23-1.8,14.22-5.27,18.91-11.2C495.26,277.92,499.31,268.08,497.82,261Z" style="fill:#3b301b;"/><path d="M466,226.37a8.45,8.45,0,0,0-3.83-5.46c-3.71-2.12-8.2-.95-10.92,2.83a65.75,65.75,0,0,1-44.92,26.42c-10.37,1.24-20.52-.14-28.59-3.89a30.52,30.52,0,0,1-11.29-8.63,16.05,16.05,0,0,1-1.65-3,21.13,21.13,0,0,0-1.36-2.55,19.56,19.56,0,0,0,2.31-21.39c-1.46-2.87-5.77-.34-4.32,2.52a14.29,14.29,0,0,1-2,15.82,41.82,41.82,0,0,0-6-1.88c-.69-.18-1.34-.34-1.91-.51-1.28-.37-2.81-.33-3.26.89l0,.17c0,12.82,6.62,23.74,18.78,30.76a63.51,63.51,0,0,0,31.61,8q3.26,0,6.55-.3A83.06,83.06,0,0,0,465,231.9h0A6.84,6.84,0,0,0,466,226.37Z" style="fill:#cf4327;"/><path d="M472.47,188.15a67.83,67.83,0,0,1,9.46-6.66c2.77-1.63.26-6-2.52-4.32a75.38,75.38,0,0,0-10.47,7.45c-2.46,2.08,1.09,5.6,3.54,3.54Z" style="fill:#e5a024;"/><path d="M478,201.88a102.71,102.71,0,0,1,10.73-4.09c3.05-1,1.75-5.81-1.33-4.82a114.28,114.28,0,0,0-11.93,4.59c-2.93,1.32-.39,5.63,2.52,4.32Z" style="fill:#e5a024;"/><path d="M482,215l9.69-1.49a2.52,2.52,0,0,0,1.75-3.08,2.56,2.56,0,0,0-3.08-1.75l-9.69,1.49a2.52,2.52,0,0,0-1.75,3.08A2.56,2.56,0,0,0,482,215Z" style="fill:#e5a024;"/><path d="M483.37,231.55h11c3.22,0,3.22-5,0-5h-11c-3.22,0-3.22,5,0,5Z" style="fill:#e5a024;"/><path d="M485,248.91a82.5,82.5,0,0,1,9.34.13c3.21.23,3.2-4.77,0-5a82.5,82.5,0,0,0-9.34-.13c-3.21.14-3.22,5.14,0,5Z" style="fill:#e5a024;"/><path d="M383.2,258v3.33a2.5,2.5,0,0,0,5,0V258a2.5,2.5,0,1,0-5,0Z" style="fill:#e5a024;"/><path d="M394.86,258.71a10.38,10.38,0,0,0,.77,4,2.57,2.57,0,0,0,3.08,1.75c1.15-.37,2.29-1.78,1.75-3.08a8.65,8.65,0,0,1-.49-1.51q0-.18-.07-.36,0,.33,0,.06c0-.29,0-.57,0-.86a2.5,2.5,0,0,0-5,0Z" style="fill:#e5a024;"/><path d="M408.55,259.31l1.33,2.33a2.5,2.5,0,0,0,4.32-2.52l-1.33-2.33a2.5,2.5,0,0,0-4.32,2.52Z" style="fill:#e5a024;"/><path d="M421.55,254l1.69,3a2.5,2.5,0,1,0,4.32-2.52l-1.69-3a2.5,2.5,0,0,0-4.32,2.52Z" style="fill:#e5a024;"/><path d="M435.28,248.13l1.67,1.33a2.72,2.72,0,0,0,1.77.73,2.54,2.54,0,0,0,1.77-.73c.83-.9,1.09-2.67,0-3.54l-1.67-1.33a2.72,2.72,0,0,0-1.77-.73,2.54,2.54,0,0,0-1.77.73c-.83.9-1.09,2.67,0,3.54Z" style="fill:#e5a024;"/><path d="M444.62,240.46a7.37,7.37,0,0,0,3.41,2,2.5,2.5,0,0,0,1.33-4.82l-.31-.09q-.38-.14.15.08l-.5-.26-.2-.13q-.33-.23.12.1a4.83,4.83,0,0,1-.46-.45,2.52,2.52,0,0,0-3.54,0,2.55,2.55,0,0,0,0,3.54Z" style="fill:#e5a024;"/><path d="M454.68,231.51l1.67.66a2.51,2.51,0,0,0,1.93-.25,2.5,2.5,0,0,0-.6-4.57l-1.67-.66a2.51,2.51,0,0,0-1.93.25,2.5,2.5,0,0,0,.6,4.57Z" style="fill:#e5a024;"/><path d="M460.72,219.77l1.66.67a2.51,2.51,0,0,0,1.93-.25,2.5,2.5,0,0,0,.9-3.42,2.92,2.92,0,0,0-1.49-1.15l-1.66-.67a2.51,2.51,0,0,0-1.93.25,2.5,2.5,0,0,0-.9,3.42,2.92,2.92,0,0,0,1.49,1.15Z" style="fill:#e5a024;"/><path d="M441.63,145.53l4.67-2a2.52,2.52,0,0,0,.9-3.42,2.57,2.57,0,0,0-3.42-.9l-4.67,2a2.52,2.52,0,0,0-.9,3.42,2.57,2.57,0,0,0,3.42.9Z" style="fill:#e5a024;"/><path d="M443.46,158.13a21.68,21.68,0,0,1,6.25-3.32c3-1,1.73-5.86-1.33-4.82a28.88,28.88,0,0,0-8.46,4.6,2.51,2.51,0,0,0,0,3.54,2.56,2.56,0,0,0,3.54,0Z" style="fill:#e5a024;"/><path d="M448.78,169.78l8.72-7.6c2.43-2.12-1.12-5.64-3.54-3.54l-8.72,7.6c-2.43,2.12,1.12,5.64,3.54,3.54Z" style="fill:#e5a024;"/><path d="M458.84,173.17l4.67-6a2.58,2.58,0,0,0,0-3.54,2.52,2.52,0,0,0-3.54,0l-4.67,6a2.58,2.58,0,0,0,0,3.54,2.52,2.52,0,0,0,3.54,0Z" style="fill:#e5a024;"/><path d="M372,254.38l-.67,2a2.52,2.52,0,0,0,1.75,3.08,2.56,2.56,0,0,0,3.08-1.75l.67-2a2.52,2.52,0,0,0-1.75-3.08,2.56,2.56,0,0,0-3.08,1.75Z" style="fill:#e5a024;"/><path d="M364.22,249.13l-.66,1a2.52,2.52,0,0,0,.9,3.42,2.56,2.56,0,0,0,3.42-.9l.66-1a2.52,2.52,0,0,0-.9-3.42,2.56,2.56,0,0,0-3.42.9Z" style="fill:#e5a024;"/><path d="M291,69.89c-3.49-15.07-16.57-24.56-32-23.18s-28.6,12.53-33.8,27c-6,16.83-2,43.35-22.21,51.36-1.89.75-2.62,3.42-.6,4.57,4.58,2.6,9,2.87,14.23,3.07a122.83,122.83,0,0,0,18.8-.67c16.45-2.16,33.11-7.44,44.22-20.45C289.24,100.31,294.38,84.6,291,69.89Z" style="fill:#eae2c2;"/><path d="M354.09,7.09C342.57-2,327-2.7,315.69,7S300,33.24,301.86,47.82c2.45,19,15.31,33,30.4,43.69a122.82,122.82,0,0,0,16.33,9.35c4.66,2.23,8.75,4.13,14,4a2.53,2.53,0,0,0,1.77-4.27C351,84.87,364.4,65,367.9,48.27,371.07,33.09,366.54,16.91,354.09,7.09Z" style="fill:#cf4327;"/><path d="M343.11,20.05q-3.51,7.27-7,14.57-2.19-3.25-4.36-6.52c-3.55-5.33-12.22-.33-8.63,5,2.67,4,5.35,8,8.09,11.94q-3.37,7.25-6.67,14.52c-2.64,5.82,6,10.91,8.63,5q2.33-5.13,4.69-10.25,2.35,3.19,4.79,6.33c4,5.07,11-2.05,7.07-7.07-2.44-3.12-4.79-6.32-7.08-9.55q4.47-9.53,9.06-19C354.53,19.33,345.91,14.26,343.11,20.05Z" style="fill:#3b301b;"/><path d="M268.95,96q-5.18-5.58-10.28-11.23c1.39-4.07,2.84-8.13,4.38-12.14,2.31-6-7.35-8.61-9.64-2.66-.81,2.1-1.59,4.22-2.35,6.34-2.44-2.73-4.89-5.44-7.31-8.19-4.26-4.84-11.31,2.26-7.07,7.07q5.3,6,10.67,11.95c-2.55,7.77-4.93,15.61-7.27,23.42-1.85,6.18,7.79,8.82,9.64,2.66,1.76-5.86,3.53-11.72,5.38-17.57,2.26,2.47,4.51,5,6.79,7.41C266.26,107.81,273.32,100.73,268.95,96Z" style="fill:#cf4327;"/><path d="M312.23,212.69c-1.89-4.32,2.85-6.57,4.44-9.92a9.3,9.3,0,0,0-.38-8.35c-1.42-2.89-5.74-.35-4.32,2.52,2,4.05-2.72,6.38-4.26,9.58-1.4,2.92-1.06,5.82.2,8.69s5.59.4,4.32-2.52Z" style="fill:#eae2c2;"/><path d="M260.51,214c-2.23-5.3,6.25-11.61,8-16.68,2-6-.45-10.65-4-15.35-1.93-2.52-6.27,0-4.32,2.52,2.46,3.22,4.84,6.32,3.8,10.65-.81,3.38-3.25,5.88-5.37,8.47-2.79,3.41-4.67,7.39-2.85,11.72,1.23,2.92,6.07,1.64,4.82-1.33Z" style="fill:#eae2c2;"/><path d="M105.5,283.92a1.94,1.94,0,0,0-2.19-1.28,2,2,0,0,0-2.13,1.28,118.17,118.17,0,0,0-9.79,36.91,300.93,300.93,0,0,0-37.51-63.48c-1.45-1.88-4.58-1.42-4.66,1.26A174.39,174.39,0,0,0,60.8,326.11Q54.68,320,48.36,314c-5.17-4.85-11.54-13.19-19.36-13-1.45,0-3.06,1.6-2.41,3.16,5.92,14.39,14.55,30.48,27.1,40.24,11.32,8.8,26.13,7.18,39.62,7.22,6.12,0,12.87.24,16.75-5.35,3.16-4.56,3.7-10.7,3.91-16.07A106.7,106.7,0,0,0,105.5,283.92Z" style="fill:#cf4327;"/><path d="M545.13,323.33a2.36,2.36,0,0,0-2.89-1.49,95,95,0,0,0-24.68,10.23A280.12,280.12,0,0,0,532.07,297c.73-2.18-1.85-3.78-3.67-2.82a106.88,106.88,0,0,0-33.31,27.45,286.66,286.66,0,0,0,2.19-50.73c-.1-2.08-2.71-3.41-4.27-1.77a105,105,0,0,0-27.94,58.42,58,58,0,0,0-15-17.56c-1.59-1.25-4.32-.6-4.27,1.77.24,10.74,2.19,23.1,7,32.86,2,3.94,4.45,6,8.92,6.46,7.81.76,15.89.5,23.74.58s15.43.11,23.13-.08c5.06-.13,9.47-1,13.6-4a161.25,161.25,0,0,0,13.25-11.42c2.78-2.57,5.14-7.87,8.47-9.55a2.4,2.4,0,0,0,.46-.26A2.06,2.06,0,0,0,545.13,323.33Z" style="fill:#e5a024;"/><path d="M313.36,325.58a2.07,2.07,0,0,0-2.47-1.73,2,2,0,0,0-1.32.47c-4.12,1.58-8.42,2.75-12.38,4.71a34.27,34.27,0,0,0-4.07,2.42,134.1,134.1,0,0,0,9.66-27c.48-2-1.77-4.09-3.67-2.82a119.7,119.7,0,0,0-29,27.26,245.1,245.1,0,0,0-4.47-40.69c-.45-2.32-3.43-2.18-4.57-.6a95.79,95.79,0,0,0-17.6,46.16A64.61,64.61,0,0,0,228.28,319a2.51,2.51,0,0,0-3.76,2.16c.7,7.85,2.22,16.1,7.19,22.47,5.93,7.6,14.34,8.34,23.35,8.25l20.74-.22c5.58-.06,11.41.36,16.75-1.56,9.28-3.34,16.6-13.85,20.74-22.39A2.48,2.48,0,0,0,313.36,325.58Z" style="fill:#cf4327;"/><path d="M129.95,67.93l3.91,15.36c1,4.05,7.3,2.33,6.27-1.73L136.21,66.2c-1-4.05-7.3-2.33-6.27,1.73Z" style="fill:#db6653;"/><path d="M162.39,73.76l.72,13.33c.22,4.16,6.72,4.19,6.5,0l-.72-13.33c-.22-4.16-6.72-4.19-6.5,0Z" style="fill:#db6653;"/><path d="M101.2,99.76a31.35,31.35,0,0,1,15.09-2.64c4.18.26,4.16-6.24,0-6.5a38.23,38.23,0,0,0-18.37,3.53c-3.8,1.73-.5,7.33,3.28,5.61Z" style="fill:#db6653;"/><path d="M75.9,137.37a55.38,55.38,0,0,1,17.93-10.46c3.92-1.39,2.23-7.67-1.73-6.27a64,64,0,0,0-20.8,12.13c-3.16,2.75,1.45,7.33,4.6,4.6Z" style="fill:#db6653;"/><path d="M67.74,170.56a35.28,35.28,0,0,1,16.12-10.24c4-1.2,2.29-7.48-1.73-6.27a41.72,41.72,0,0,0-19,11.91c-2.81,3.09,1.77,7.7,4.6,4.6Z" style="fill:#db6653;"/><path d="M53,276.65a218,218,0,0,0,8.23,35.29c1.28,4,7.56,2.27,6.27-1.73a218,218,0,0,1-8.23-35.29c-.61-4.12-6.87-2.37-6.27,1.73Z" style="fill:#db6653;"/><path d="M34.11,314.1a113.72,113.72,0,0,0,14.57,18.61c2.91,3,7.51-1.59,4.6-4.6a105.46,105.46,0,0,1-13.56-17.3c-2.22-3.53-7.84-.28-5.61,3.28Z" style="fill:#db6653;"/><path d="M99.24,296.25a120.63,120.63,0,0,0-2.86,29.51c.11,4.17,6.62,4.19,6.5,0A113.21,113.21,0,0,1,105.51,298c.9-4.08-5.36-5.82-6.27-1.73Z" style="fill:#db6653;"/><path d="M256.1,304.08a43.56,43.56,0,0,0-6.24,16.82c-.6,4.09,5.66,5.86,6.27,1.73a38.94,38.94,0,0,1,5.58-15.27c2.23-3.56-3.39-6.82-5.61-3.28Z" style="fill:#db6653;"/><path d="M227.49,331.4l4.67,7.33c2.24,3.52,7.87.26,5.61-3.28l-4.67-7.33c-2.24-3.52-7.87-.26-5.61,3.28Z" style="fill:#db6653;"/><path d="M279.72,332a57.88,57.88,0,0,1,9.55-11.3c3.08-2.84-1.52-7.43-4.6-4.6a64.66,64.66,0,0,0-10.56,12.62c-2.27,3.53,3.35,6.79,5.61,3.28Z" style="fill:#db6653;"/><path d="M184.82,168.07l1.33,2.67a3.27,3.27,0,0,0,4.45,1.17,3.33,3.33,0,0,0,1.17-4.45l-1.33-2.67a3.27,3.27,0,0,0-4.45-1.17,3.33,3.33,0,0,0-1.17,4.45Z" style="fill:#db6653;"/><path d="M391.47,122.11a35.8,35.8,0,0,0-3,27.19c1.14,4,7.42,2.31,6.27-1.73a29,29,0,0,1,2.36-22.18c2-3.68-3.63-7-5.61-3.28Z" style="fill:#db6653;"/><path d="M440.54,236a71.13,71.13,0,0,0,15.31-20.56c1.85-3.74-3.76-7-5.61-3.28a66.08,66.08,0,0,1-14.29,19.24c-3.07,2.86,1.54,7.45,4.6,4.6Z" style="fill:#db6653;"/><path d="M135.66,286.75c18.2-1.1,33.19,12.69,33.23,31,0,4.18,6.51,4.19,6.5,0a37.43,37.43,0,0,0-39.73-37.51c-4.16.25-4.19,6.75,0,6.5Z" style="fill:#574730;"/><path d="M176.66,287.22a38.34,38.34,0,0,1,15.58,29.21c.19,4.17,6.69,4.19,6.5,0a45.29,45.29,0,0,0-18.8-34.82c-3.38-2.47-6.63,3.16-3.28,5.61Z" style="fill:#574730;"/><path d="M388.53,84a19.21,19.21,0,0,0-4.84,13.09c.08,4.18,6.58,4.19,6.5,0a12.35,12.35,0,0,1,2.93-8.49c2.72-3.15-1.86-7.77-4.6-4.6Z" style="fill:#574730;"/><path d="M430.75,71.23a15.81,15.81,0,0,0-11.7,13.87c-.19,1.75,1.63,3.25,3.25,3.25a3.33,3.33,0,0,0,3.25-3.25,9.16,9.16,0,0,1,6.92-7.6c4-1,2.33-7.31-1.73-6.27Z" style="fill:#574730;"/><path d="M467.62,83.09a16.68,16.68,0,0,0-12.76,8.39c-2,3.66,3.58,6.94,5.61,3.28a9.92,9.92,0,0,1,7.15-5.17c1.74-.23,3.25-1.33,3.25-3.25,0-1.58-1.5-3.48-3.25-3.25Z" style="fill:#574730;"/><path d="M489.82,112a11,11,0,0,0-11.12,2.84c-2.91,3,1.68,7.61,4.6,4.6a4.45,4.45,0,0,1,4.8-1.17c4,1.27,5.71-5,1.73-6.27Z" style="fill:#574730;"/><path d="M432.81,104.78a12.67,12.67,0,0,0-1,10.5,3.34,3.34,0,0,0,4,2.27,3.28,3.28,0,0,0,2.27-4,6.32,6.32,0,0,1,.3-5.5c2-3.66-3.58-6.94-5.61-3.28Z" style="fill:#574730;"/><path d="M404.72,94.85a8.54,8.54,0,0,0-.07,11.21c1.11,1.36,3.45,1.15,4.6,0a3.33,3.33,0,0,0,0-4.6,2.24,2.24,0,0,1,.07-2,3.34,3.34,0,0,0,0-4.6,3.28,3.28,0,0,0-4.6,0Z" style="fill:#574730;"/><path d="M458.74,127.4a19,19,0,0,0-3,12.36A3.35,3.35,0,0,0,459,143c1.61,0,3.44-1.49,3.25-3.25a13.32,13.32,0,0,1,2.09-9.08c2.28-3.52-3.35-6.79-5.61-3.28Z" style="fill:#574730;"/><path d="M415.94,294.74A51.52,51.52,0,0,1,454.29,278c4.18,0,4.19-6.48,0-6.5a58,58,0,0,0-42.95,18.68c-2.83,3.07,1.75,7.68,4.6,4.6Z" style="fill:#574730;"/><path d="M385.18,288.45a83.92,83.92,0,0,1,26-12.91c4-1.18,2.3-7.46-1.73-6.27a89,89,0,0,0-27.52,13.57c-3.34,2.45-.1,8.09,3.28,5.61Z" style="fill:#574730;"/><path d="M479.51,291.47a114.8,114.8,0,0,0-10.6,45.63c-.1,4.18,6.4,4.18,6.5,0a106.76,106.76,0,0,1,9.71-42.35c1.74-3.77-3.86-7.08-5.61-3.28Z" style="fill:#f3bc63;"/><path d="M451.16,328l2.67,8.67c1.23,4,7.5,2.29,6.27-1.73l-2.67-8.67c-1.23-4-7.5-2.29-6.27,1.73Z" style="fill:#f3bc63;"/><path d="M496.93,343.32a92.72,92.72,0,0,1,18.23-26c3-3-1.64-7.57-4.6-4.6A97.93,97.93,0,0,0,491.32,340c-1.78,3.76,3.83,7.06,5.61,3.28Z" style="fill:#f3bc63;"/><path d="M520.59,344.06l5.33-5.33a3.25,3.25,0,1,0-4.6-4.6L516,339.46a3.25,3.25,0,0,0,4.6,4.6Z" style="fill:#f3bc63;"/><path d="M32.16,264.74l6,11.33c2,3.7,7.57.42,5.61-3.28l-6-11.33c-2-3.7-7.57-.42-5.61,3.28Z" style="fill:#f3bc63;"/><path d="M15.43,324.9l4.67,1.33A3.25,3.25,0,1,0,21.83,320l-4.67-1.33a3.25,3.25,0,0,0-1.73,6.27Z" style="fill:#f3bc63;"/><path d="M53.83,228.63l2,6a3.32,3.32,0,0,0,4,2.27,3.28,3.28,0,0,0,2.27-4l-2-6a3.32,3.32,0,0,0-4-2.27,3.28,3.28,0,0,0-2.27,4Z" style="fill:#f3bc63;"/><path d="M106.57,160.87c4,9.64,10.74,22.95,21.47,26.35,4,1.27,5.71-5,1.73-6.27-8.16-2.59-13.89-14.49-16.93-21.81-1.58-3.81-7.87-2.14-6.27,1.73Z" style="fill:#f3bc63;"/><path d="M115.77,225.91a69,69,0,0,0,40,30.81c15.39,4.52,37.94,5.12,49.46-8,2.75-3.13-1.83-7.75-4.6-4.6-10.27,11.72-31.06,10.2-44.5,5.94a62.06,62.06,0,0,1-34.73-27.41c-2.12-3.6-7.75-.33-5.61,3.28Z" style="fill:#f3bc63;"/></g></g></svg>