<svg xmlns="http://www.w3.org/2000/svg" viewBox="0 0 455.93 452.11"><title>Upgrade (buy premium account) + plant growth</title><g id="Layer_2" data-name="Layer 2"><g id="Layer_1-2" data-name="Layer 1"><path d="M377.59,50.74A23.26,23.26,0,0,1,382.37,58a2.43,2.43,0,0,0,3.31.87,2.48,2.48,0,0,0,.87-3.31A26.77,26.77,0,0,0,381,47.32c-2.18-2.23-5.6,1.19-3.42,3.42Z" style="fill:#eae2c2;"/><path d="M374.52,295.93a210.19,210.19,0,0,0-8.89-25.6c-2.67-6.33-5.17-13.4-11.25-17.21-2-1.25-3.81.81-3.55,2.73a203.79,203.79,0,0,0,7.77,34.35c-9-8.47-18.81-16-31.08-18.85-2.22-.51-3.55,1.65-2.73,3.55a84,84,0,0,0,24.79,32.37,95.76,95.76,0,0,0-24.43,3.7,2.45,2.45,0,0,0-.58,4.42,45.84,45.84,0,0,0,34.65,3.77,2.46,2.46,0,0,0,.7-4.33l10.91-16.25C372.46,299.57,375.18,298.29,374.52,295.93Z" style="fill:#3b301b;"/><path d="M425.75,239.22a100.73,100.73,0,0,0-29.12,14.43,91.3,91.3,0,0,0,10.31-33.09,1.88,1.88,0,0,0,.12-1.43,2.05,2.05,0,0,0-2.34-1.84,2.42,2.42,0,0,0-1.78.59c-9.66,8.14-15.34,18.89-21.25,29.82-5.06,9.36-10.92,18.49-11.76,29.41-.34,4.44.4,9.2,3.1,12.86,3,4.08,7.68,5,12.51,5a30.93,30.93,0,0,0,9.74-1.69c1.91-.6,3.8-1.22,5.71-1.82.94-.3,1.92-.54,2.84-.87.33-.12,2.11-.32,1.05-.48,2.55.39,4.4-2.93,1.86-4.42a53.22,53.22,0,0,0-17.81-6.52,117.41,117.41,0,0,0,39.55-36.44C429.67,241,427.7,238.62,425.75,239.22Z" style="fill:#cf4327;"/><path d="M380.25,420.43c-8.73-3.3-18.68-4.47-28-4.76a133.31,133.31,0,0,0-37.49,4.46c-8,2.09-23.26,6.87-19.93,18a2.62,2.62,0,0,0,.23.54l0,0c3.81,7.4,13.88,9,21.28,10a175.18,175.18,0,0,0,30.75,1.67c9.51-.34,19.63-1,28.71-4.05,6.06-2.07,14.18-6,14.9-13.32C391.41,426.55,385.69,422.48,380.25,420.43Z" style="fill:#3b301b;"/><path d="M330.32,57.24l14.78-4c3-.82,1.72-5.49-1.29-4.66l-14.78,4c-3,.82-1.72,5.49,1.29,4.66Z" style="fill:#eae2c2;"/><path d="M336.77,71.41,349,67.62c3-.92,1.7-5.58-1.29-4.66l-12.27,3.79c-3,.92-1.7,5.58,1.29,4.66Z" style="fill:#eae2c2;"/><path d="M392.52,166a33.56,33.56,0,0,0-29.33-14.19,2.33,2.33,0,0,0-1.91,1.11,2.24,2.24,0,0,0-2.59-1c-6.69,1.74-14.15,5.16-18.44,10.82-4.59,6.05-.37,11.42,4,16.12a72.1,72.1,0,0,0,40,21.66,2.45,2.45,0,0,0,3-3,73.32,73.32,0,0,0-15.09-29.28,138.38,138.38,0,0,0,18.31,1.4C392.14,169.62,393.61,167.49,392.52,166Z" style="fill:#cf4327;"/><path d="M341.24,82.87l8.4-2.5c3-.89,1.71-5.55-1.29-4.66l-8.4,2.5c-3,.89-1.71,5.55,1.29,4.66Z" style="fill:#eae2c2;"/><path d="M358.87,69.46l7.69,7.79c2.19,2.22,5.61-1.2,3.42-3.42L362.29,66c-2.19-2.22-5.61,1.2-3.42,3.42Z" style="fill:#eae2c2;"/><path d="M369.52,58.6a42.8,42.8,0,0,0,6.71,7.06,2.49,2.49,0,0,0,3.42,0,2.44,2.44,0,0,0,0-3.42,37.72,37.72,0,0,1-6-6.08,2.5,2.5,0,0,0-3.31-.87,2.43,2.43,0,0,0-.87,3.31Z" style="fill:#eae2c2;"/><path d="M351.3,407.91c-6.8-16,.71-36.38,6.55-51.51,6.93-17.93,16-34.93,22.67-53,6.4-17.42,10.57-36.6,8.46-55.22a80,80,0,0,0-7.84-27.06c-4.35-8.74-10.4-16.45-15.8-24.54-11-16.41-19.81-35.89-11.66-55.42,2-4.82-2.17-10.64-6.75-11.9-5.57-1.53-9.88,1.91-11.9,6.75-7.85,18.82-3.18,39.89,5.87,57.37,8.66,16.72,23.25,30.55,27.67,49.27,9,38.22-16.67,75.33-29.67,109.39-8,21-13.41,44.07-4.29,65.6,2,4.81,9.14,5.87,13.23,3.47,5-2.91,5.52-8.4,3.47-13.23Z" style="fill:#e5a024;"/><path d="M417.92,395.94A112.56,112.56,0,0,0,370,407.15c13.76-16.3,27.14-33.57,33.51-54,.51-1.65-1.24-3.64-3-3-7,2.69-12.27,7.25-17.91,12a139.08,139.08,0,0,0-18.37,18.06,125.25,125.25,0,0,0-13.83,20.54c-1.77,3.3-3.41,6.69-4.84,10.16-.87,2.1-1.34,4.67-2.47,6.63-.93,1.62-2.5,3-3.58,4.56-1.19,1.7.28,3.34,1.91,3.49-.34.14-.69.3-1,.48-2.77,1.43-.32,5.6,2.44,4.18s8.48,2.52,11.54,3.23a66.24,66.24,0,0,0,11.1,1.17l25.35,1.46c2.56.15,3.07-3.26,1.22-4.51a66.53,66.53,0,0,0-21-9.37,292.78,292.78,0,0,0,48.06-21.77A2.44,2.44,0,0,0,417.92,395.94Z" style="fill:#cf4327;"/><path d="M354.17,163.33a2.51,2.51,0,0,0-4.57,1.29l-14.27.41a2.65,2.65,0,0,0-3.66-2,80.94,80.94,0,0,0-31.4,25.2c-1.13,1.49.4,3.68,2.09,3.64,9.33-.23,17.45-4.18,24.52-9.73a92.77,92.77,0,0,0-7.07,36.61,2.44,2.44,0,0,0,4.13,1.71,90.43,90.43,0,0,0,22.49-39.86,60.48,60.48,0,0,0,12.32,17.36,2.45,2.45,0,0,0,4.13-1.71A52.83,52.83,0,0,0,354.17,163.33Z" style="fill:#3b301b;"/><path d="M347.39,425.78c-.51.12-1,.23-1.54.34l-9.37-8.58a2,2,0,0,0,.33-2.83,47.33,47.33,0,0,0-31-19.32,2.44,2.44,0,0,0-2.35,4L319,418.18A80.32,80.32,0,0,0,293,421c-1.9.53-2.49,3.46-.58,4.42,8.4,4.21,17.32,5.38,26.61,5.78,10,.43,19.79,1.58,29.66-.79C351.7,429.72,350.42,425.06,347.39,425.78Z" style="fill:#cf4327;"/><path d="M326.3,357.86c5.7,3.17,6.7,10.69,7.24,16.58.65,7.07.9,14.21,1.16,21.31q.78,21,.18,42.05c-.17,6.23,9.5,6.22,9.67,0q.67-24.76-.5-49.52c-.63-12.92.28-31.47-12.87-38.77-5.45-3-10.33,5.33-4.88,8.35Z" style="fill:#eae2c2;"/><path d="M197.76,215.6a72.87,72.87,0,0,0-50-23.76c-6.58-.36-18.58-1-23.19,4.89-3.46,4.46.13,8.88,4.46,12A75.48,75.48,0,0,0,92,224.68c-4.27,3.44-12.09,9.35-10.6,15.85.66,2.9,3.15,4.31,5.89,4.82.61.11,1.23.2,1.85.3a53.1,53.1,0,0,0-23.92,20c-3.07,4.73-7.77,12.67-6.12,18.56,1.24,4.44,4.82,6.06,8.77,6.34a53.23,53.23,0,0,0-14.4,22.15c-1.43,4.27-3.25,10.12,1.32,13.15A7.29,7.29,0,0,0,58,327c-4.58,5.87-8.23,12.65-9.59,19.77-1.1,5.75.91,11.95,5.5,14.51-5,3.74-9.58,8.32-10.42,14.67-.64,4.89,1,9.87,4.63,12.81-5.66,4.12-10.94,9.61-10.41,16.53A15.54,15.54,0,0,0,27,407.48,8.55,8.55,0,0,0,17.5,402a7,7,0,0,0-12-1.7C-1,408.79,9.28,418.16,15.6,422.67c16.06,11.47,39.84,13.18,55.85.75,9.95-7.72,16.44-19.66,21.93-30.73a185,185,0,0,0,13.52-36.94c6.8-26.83,9.5-55.69,24.89-79.45,8.2-12.66,19.76-21.11,32.8-28.28,6.24-3.43,12.65-6.56,18.76-10.22,5-3,9.74-6.61,10.82-12.62a2.46,2.46,0,0,0-1.19-2.61l1.83-3.15C196.9,220.84,199.68,217.74,197.76,215.6Z" style="fill:#3b301b;"/><path d="M180.28,271.25c1.94-7.35,5-14.38,6.59-21.84,1.76-8.48,2.53-18-.19-26.33-7.61-23.4-37.41-14.54-52.67-4.72-11.05,7.11-20,17.34-27.82,27.79A188.17,188.17,0,0,0,84,284.45a223.51,223.51,0,0,0-13.11,41.7c-3.22,15.09-4.62,30.49-7.62,45.62-3.16,15.92-8.32,34.38-23.71,42.66A23.58,23.58,0,0,1,4.76,396.86c-.37-2.67-5.06-2.07-4.75.64,1.11,9.81,3,19.87,8.54,28.25s14,13.77,23.09,17.4c19.49,7.79,41.34,6.89,61.93,6.5,19.58-.37,40.07-2.91,57.35-12.8,19.57-11.2,29.45-30.54,31.16-52.62,1.13-14.6-1.15-29-2.93-43.49-1.85-15-3.36-30.08-2.62-45.22A125,125,0,0,1,180.28,271.25Z" style="fill:#cf4327;"/><path d="M179.89,338.9c-1.17-9.63-2.22-19.29-2.52-29-.08-2.4-.11-4.8-.09-7.19,0-2.08.76-5.23.22-7.2-.86-3.15-4.59-5.31-7.12-7.2-4.34-3.24-10.18-9.16-16.22-7.47-6.27,1.75-9.16,10.56-10.7,16.08-4.8,17.18-1,35.36,5.27,51.63a216.43,216.43,0,0,0,12.79,27.31c4.29,7.73,8.86,17.26,16.1,22.69a1.89,1.89,0,0,0,2.33.11,2.05,2.05,0,0,0,1.22-1.56C185.29,377.66,182.26,358.34,179.89,338.9Z" style="fill:#eae2c2;"/><path d="M118.21,316.9c10.2,23.14,29.9,42.66,55,48.55s55.64,3.14,74.32-16.21c6.48-6.72-3.76-17-10.26-10.26-15.34,15.9-41.6,17.37-61.93,12.05-20.92-5.47-36.08-22.17-44.58-41.46-1.59-3.61-6.8-4.38-9.92-2.6-3.72,2.12-4.17,6.36-2.6,9.92Z" style="fill:#cf4327;"/><path d="M199.16,441.95c.68-13.4-4.52-27.77-12.32-38.55C178,391.18,164,383.28,150.09,378.12c-8.77-3.25-12.55,10.77-3.86,14,10.58,3.92,22.27,10.27,28.87,19.73,6,8.62,10.09,19.5,9.55,30.11-.47,9.33,14,9.31,14.51,0Z" style="fill:#cf4327;"/><path d="M225.82,285.7c-.93-10.84-4.12-22-7.07-32.41-3.56-12.59-8.86-24.8-18.55-33.89-15.39-13.53-39.59-19.37-55.7-3.95-16.67,16-21.79,42-13,63.19s30.42,33.11,52.44,36.17c11,1.53,23.93,1.74,33.25-5.31C224.72,303.83,226.59,294.66,225.82,285.7Z" style="fill:#cf4327;"/><path d="M188.32,236.57c-9.61-4.23-20.21-.37-25.56,8.53a22,22,0,0,0,10,31.49c12,5.11,25.54-2.16,28.56-14.73a2.66,2.66,0,0,0,.07-.57C202.93,251,198.08,240.87,188.32,236.57Z" style="fill:#eae2c2;"/><path d="M194.37,256.69h0c-.9-6-7.58-12.34-13.92-11.6s-11,7.7-10.23,13.74,6.22,11.22,12.38,11.1c6.7-.14,11.9-6.08,11.87-12.59A2.61,2.61,0,0,0,194.37,256.69Z" style="fill:#cf4327;"/><path d="M242.06,341.69A9.36,9.36,0,0,1,251.7,336c3,.43,4.36-4.22,1.29-4.66a14.15,14.15,0,0,0-15.1,7.91c-1.27,2.81,2.9,5.28,4.18,2.44Z" style="fill:#cf4327;"/><path d="M245.51,344.42c2.77,1,5.48,2,8.14,3.25s5.27-2.88,2.44-4.18q-4.56-2.09-9.3-3.74c-2.95-1-4.21,3.65-1.29,4.66Z" style="fill:#cf4327;"/><path d="M252.54,348l-4.84-2.57a2.47,2.47,0,0,0-3.31.87,2.44,2.44,0,0,0,.87,3.31l4.84,2.57a2.47,2.47,0,0,0,3.31-.87,2.44,2.44,0,0,0-.87-3.31Z" style="fill:#cf4327;"/><path d="M241.9,353.74a12,12,0,0,0,4.89,3,2.44,2.44,0,0,0,3-1.69,2.47,2.47,0,0,0-1.69-3,6.66,6.66,0,0,1-2.76-1.72,2.42,2.42,0,0,0-3.42,3.42Z" style="fill:#cf4327;"/><path d="M330.07,352.95c-1.64-2.58-4.75-4.36-7.27-5.95-3.88-2.46-7.65-5-11.5-7.53s-7.76-4.93-11.53-7.62c-3.11-2.23-6.82-4.79-10.86-4.29-3.29.41-5.11,2.76-7,5.25q-2.15,2.88-4.29,5.77c-5.45-4.23-11.85-7.85-19-7.53-7,.31-13.07,4.52-16.75,10.32-7,11-2.78,25.94,8.11,32.6a41.57,41.57,0,0,0-6.48,10.8c-2.54,6.75.37,10.07,5.65,14.13a158.89,158.89,0,0,0,13.26,9.19c4.29,2.66,9,6,13.85,7.56,5,1.65,7.36-2.48,9.93-6q6-8.25,11.76-16.65c3.46-5,6.74-10.09,9.89-15.31,2.94-4.88,6.29-12.08,11.56-14.76C323.88,361.33,334.39,359.73,330.07,352.95Zm-73.85,13.57a5.36,5.36,0,0,0-.9-.66c-6.18-3.61-9.18-11.67-5.84-18.25,4.92-9.72,14.93-7.3,22-1.69a5.65,5.65,0,0,0,.48.34l-2.18,2.94C265.37,355.12,260.93,360.88,256.22,366.52Z" style="fill:#3b301b;"/><path d="M191.7,448.89h11.45c3.11,0,3.12-4.84,0-4.84H191.7c-3.11,0-3.12,4.84,0,4.84Z" style="fill:#cf4327;"/><path d="M51.13,422.56l4.47-3.29a2.49,2.49,0,0,0,.87-3.31,2.44,2.44,0,0,0-3.31-.87l-4.47,3.29a2.49,2.49,0,0,0-.87,3.31,2.44,2.44,0,0,0,3.31.87Z" style="fill:#e5a024;"/><path d="M66.74,406.12,69.32,401a2.48,2.48,0,0,0-.87-3.31,2.44,2.44,0,0,0-3.31.87l-2.58,5.16a2.48,2.48,0,0,0,.87,3.31,2.44,2.44,0,0,0,3.31-.87Z" style="fill:#e5a024;"/><path d="M74.12,386.22l1.29-5.16c.76-3-3.9-4.31-4.66-1.29l-1.29,5.16c-.76,3,3.9,4.31,4.66,1.29Z" style="fill:#e5a024;"/><path d="M77.41,364.3v-5.8c0-3.11-4.84-3.12-4.84,0v5.8c0,3.11,4.84,3.12,4.84,0Z" style="fill:#e5a024;"/><path d="M80.52,344.3l.67-5.16a2.43,2.43,0,0,0-2.42-2.42,2.48,2.48,0,0,0-2.42,2.42l-.67,5.16a2.43,2.43,0,0,0,2.42,2.42,2.48,2.48,0,0,0,2.42-2.42Z" style="fill:#e5a024;"/><path d="M85,321.09l.66-5.16a2.43,2.43,0,0,0-2.42-2.42,2.48,2.48,0,0,0-2.42,2.42l-.66,5.16a2.43,2.43,0,0,0,2.42,2.42A2.48,2.48,0,0,0,85,321.09Z" style="fill:#e5a024;"/><path d="M90.71,297.83l2.09-5.75a2.44,2.44,0,0,0-1.69-3,2.47,2.47,0,0,0-3,1.69L86,296.55a2.44,2.44,0,0,0,1.69,3,2.47,2.47,0,0,0,3-1.69Z" style="fill:#e5a024;"/><path d="M100.48,276.6a6.54,6.54,0,0,1,2-3.42,2.42,2.42,0,0,0-3.42-3.42,11.45,11.45,0,0,0-3.27,5.55,2.42,2.42,0,1,0,4.66,1.29Z" style="fill:#e5a024;"/><path d="M112.5,257.18l3.33-5.09a2.42,2.42,0,0,0-4.18-2.44l-3.33,5.09a2.42,2.42,0,1,0,4.18,2.44Z" style="fill:#e5a024;"/><path d="M125.72,241.6l2-1.91a2.42,2.42,0,0,0-3.42-3.42l-2,1.91a2.42,2.42,0,1,0,3.42,3.42Z" style="fill:#e5a024;"/><path d="M113.92,274l2-3.84a2.42,2.42,0,0,0-4.18-2.44l-2,3.84a2.42,2.42,0,1,0,4.18,2.44Z" style="fill:#e5a024;"/><path d="M105.59,294l.68-3.86a2.47,2.47,0,0,0-1.69-3,2.45,2.45,0,0,0-3,1.69l-.68,3.86a2.47,2.47,0,0,0,1.69,3,2.45,2.45,0,0,0,3-1.69Z" style="fill:#e5a024;"/><path d="M98,313.36l1.29-3.87a2.44,2.44,0,0,0-1.69-3,2.47,2.47,0,0,0-3,1.69l-1.29,3.87a2.44,2.44,0,0,0,1.69,3,2.47,2.47,0,0,0,3-1.69Z" style="fill:#e5a024;"/><path d="M94,337.21l.67-3.86a2.48,2.48,0,0,0-1.69-3,2.45,2.45,0,0,0-3,1.69l-.67,3.86a2.48,2.48,0,0,0,1.69,3,2.45,2.45,0,0,0,3-1.69Z" style="fill:#e5a024;"/><path d="M91.46,356.55l.65-3.22A2.42,2.42,0,1,0,87.45,352l-.65,3.22a2.42,2.42,0,1,0,4.66,1.29Z" style="fill:#e5a024;"/><path d="M88.29,377.19l.64-3.22a2.42,2.42,0,1,0-4.66-1.29l-.64,3.22a2.42,2.42,0,1,0,4.66,1.29Z" style="fill:#e5a024;"/><path d="M82.89,399l1.93-3.87a2.42,2.42,0,1,0-4.18-2.44l-1.93,3.87A2.42,2.42,0,1,0,82.89,399Z" style="fill:#e5a024;"/><path d="M72.76,420.73l1.93-1.93a2.42,2.42,0,0,0-3.42-3.42l-1.93,1.93a2.42,2.42,0,1,0,3.42,3.42Z" style="fill:#e5a024;"/><path d="M32.47,429.9l1.94-.63a2.42,2.42,0,0,0-1.29-4.66l-1.94.63a2.42,2.42,0,0,0,1.29,4.66Z" style="fill:#e5a024;"/><path d="M13.1,424l3.22,1.29a2.43,2.43,0,0,0,3-1.69,2.49,2.49,0,0,0-1.69-3l-3.22-1.29a2.43,2.43,0,0,0-3,1.69,2.49,2.49,0,0,0,1.69,3Z" style="fill:#e5a024;"/><path d="M51.74,433.91v-.07l-.33,1.22q-1.53,1.83-3.29.45l-.62-1.07-.07-.51a2.43,2.43,0,0,0,2.42,2.42,2.48,2.48,0,0,0,2.42-2.42,2.68,2.68,0,0,0-5.36,0,2.42,2.42,0,1,0,4.84,0Z" style="fill:#e5a024;"/><path d="M89.5,412l1.42-5.12c.83-3-3.83-4.28-4.66-1.29l-1.42,5.12c-.83,3,3.83,4.28,4.66,1.29Z" style="fill:#e5a024;"/><path d="M100.62,384.93v-3.87a2.42,2.42,0,0,0-4.84,0v3.87a2.42,2.42,0,1,0,4.84,0Z" style="fill:#e5a024;"/><path d="M104.44,363q-.09-.39,0,.19a2.72,2.72,0,0,1,0-.31c0-.45-.15.5,0,0a2.13,2.13,0,0,1,.06-.22q.09-.26-.1.22c-.08,0,.64-.84,0-.15a2.42,2.42,0,1,0-3.42-3.42,5.39,5.39,0,0,0-1.22,4.94,2.42,2.42,0,1,0,4.66-1.29Z" style="fill:#e5a024;"/><path d="M107.72,346.25a3,3,0,0,1,.22-1.4c.19-.6-.14.17.16-.38a7.85,7.85,0,0,1,.56-.87,2.43,2.43,0,0,0-.87-3.31,2.49,2.49,0,0,0-3.31.87,8.55,8.55,0,0,0-1.61,5.09,2.42,2.42,0,0,0,4.84,0Z" style="fill:#e5a024;"/><path d="M110.21,324.32l.64-3.22a2.42,2.42,0,1,0-4.66-1.29l-.64,3.22a2.42,2.42,0,1,0,4.66,1.29Z" style="fill:#e5a024;"/><path d="M114.81,304.34v-2.58a2.42,2.42,0,1,0-4.84,0v2.58a2.42,2.42,0,0,0,4.84,0Z" style="fill:#e5a024;"/><path d="M119.84,288.86l.64-2.58a2.42,2.42,0,0,0-4.66-1.29l-.64,2.58a2.42,2.42,0,0,0,4.66,1.29Z" style="fill:#e5a024;"/><path d="M118.54,355.9l1.3-3.22a2.42,2.42,0,0,0-1.69-3,2.49,2.49,0,0,0-3,1.69l-1.3,3.22a2.42,2.42,0,0,0,1.69,3,2.49,2.49,0,0,0,3-1.69Z" style="fill:#e5a024;"/><path d="M114.76,381.07l.66-1.93a2.43,2.43,0,0,0-1.69-3,2.48,2.48,0,0,0-3,1.69l-.66,1.93a2.43,2.43,0,0,0,1.69,3,2.48,2.48,0,0,0,3-1.69Z" style="fill:#e5a024;"/><path d="M103.31,405.09l.72-.55a2.66,2.66,0,0,0,1.11-1.44,2.47,2.47,0,0,0-.24-1.86c-.64-1-2.23-1.69-3.31-.87l-.72.55a2.66,2.66,0,0,0-1.11,1.44,2.47,2.47,0,0,0,.24,1.86c.64,1,2.23,1.69,3.31.87Z" style="fill:#e5a024;"/><path d="M229.93,195.44a57.12,57.12,0,0,0-32.88,18.37c3.2-14.75,9.51-28.74,15.81-42.46.8-1.75-.55-4.29-2.73-3.55-23.54,7.93-43.4,26.29-45.73,52.06-.26,2.85,3.8,3.05,4.68.68l19.58,5.87a2.58,2.58,0,0,0,2.2,2.93,2.49,2.49,0,0,0,2,.57l8.4,13.05a9.24,9.24,0,0,0,.7,5.55c1.43,2.76,5.61.32,4.18-2.44s2-10,3.08-12.61A109,109,0,0,1,215.87,220c4.13-7.36,8.17-16,15.93-20.16C234.37,198.49,232.48,195,229.93,195.44Z" style="fill:#cf4327;"/><path d="M228.75,290.18c-3.49-4.78-10.05-4.81-14.37-1.21a2.47,2.47,0,0,0-.53.45,2.52,2.52,0,0,0-.43.55,11.1,11.1,0,0,0,.61,13.86,9.48,9.48,0,0,0,14.09.13C231.67,300.31,231.69,294.21,228.75,290.18Z" style="fill:#3b301b;"/><path d="M183.69,290.46c-5.43,5.07-3,14,4,16.12,7.65,2.31,14-4.15,14.37-11.49.14-3.11-4.7-3.1-4.84,0-.17,3.93-3.1,7.67-7.36,7a4.75,4.75,0,0,1-2.72-8.24c2.28-2.13-1.14-5.54-3.42-3.42Z" style="fill:#3b301b;"/><path d="M395.29,60A4.72,4.72,0,0,0,393,58a4.1,4.1,0,0,0-5.3,1l-41.6,46.85-19.49-56.8c-1.26-3.66-5.2-4.47-8.08-2.13-16.24,13.16-28.67,30.4-31,51.63-2,18.19,2.79,37.74,15.08,51.6,27.5,31,79.28,17.36,97.2-16.84C411.83,110.43,408.76,81.53,395.29,60Z" style="fill:#e5a024;"/><path d="M322.35,90.23c-11.36-4.69-22.92,3.89-26.91,14.32a2.6,2.6,0,0,0-.14.54c-3,11.46,4.14,25.78,16.45,27.93,11,1.93,20.54-6.74,22.58-17.12C336.27,106,332.22,94.31,322.35,90.23Z" style="fill:#3b301b;"/><path d="M325.66,108.55a11.19,11.19,0,0,0-14-8.29,11.4,11.4,0,0,0-8.37,13.25,3.85,3.85,0,0,0,.19.87,5.19,5.19,0,0,0,.48,1.19,10.87,10.87,0,0,0,13.25,6C322.85,120,327,114.46,325.66,108.55Z" style="fill:#e5a024;"/><path d="M314.57,105.89c-6.22,0-6.23,9.67,0,9.67S320.8,105.89,314.57,105.89Z" style="fill:#3b301b;"/><path d="M382.52,96.46c-11.36-4.69-22.92,3.89-26.91,14.32a2.61,2.61,0,0,0-.14.54c-3,11.46,4.14,25.78,16.45,27.93,11,1.93,20.54-6.74,22.58-17.12C396.45,112.21,392.39,100.54,382.52,96.46Z" style="fill:#3b301b;"/><path d="M385.84,114.78a11.19,11.19,0,0,0-14-8.29,11.4,11.4,0,0,0-8.37,13.25,3.88,3.88,0,0,0,.19.87,5.2,5.2,0,0,0,.48,1.19,10.87,10.87,0,0,0,13.25,6C383,126.24,387.18,120.69,385.84,114.78Z" style="fill:#eae2c2;"/><path d="M374.75,109.7c-9.33,0-9.35,14.51,0,14.51S384.1,109.7,374.75,109.7Z" style="fill:#cf4327;"/><path d="M383.92,52.45q-16.75,20-35.1,38.56-7.42-23.12-16.21-45.77c-1.41-3.64-4.88-6.2-8.92-5.07-3.48,1-6.5,5.24-5.07,8.92q11,28.33,19.86,57.41a7.33,7.33,0,0,0,12.12,3.2,634,634,0,0,0,43.57-47C400.13,55.6,389.92,45.28,383.92,52.45Z" style="fill:#cf4327;"/><path d="M352,438.09l8.66-10.67c1.94-2.4-1.46-5.84-3.42-3.42l-8.66,10.67c-1.94,2.4,1.46,5.84,3.42,3.42Z" style="fill:#eae2c2;"/><path d="M329.56,435.64a79.14,79.14,0,0,1-6-8c-1.69-2.6-5.88-.18-4.18,2.44a89,89,0,0,0,6.74,9c2,2.38,5.42-1.06,3.42-3.42Z" style="fill:#eae2c2;"/><path d="M365.12,419.91c3.11,0,3.12-4.84,0-4.84s-3.12,4.84,0,4.84Z" style="fill:#eae2c2;"/><path d="M274,429.26c-3.08,1.77-6.19,3.5-9.31,5.2a92.48,92.48,0,0,0,3.36-15.34c.31-2.32-2.73-2.85-4.13-1.71a123.39,123.39,0,0,0-15.42,15,161.27,161.27,0,0,0-4.35-23.29c-.57-2.15-3.27-2.2-4.42-.58a79.11,79.11,0,0,0-13.12,31c-3.42-2.26-7.77-3.46-11.36-4.56l-.24-.08c-1.92-.64-3.94,1.83-2.73,3.55,3.17,4.5,6.63,10.6,12.26,12.27,6.34,1.88,14.8,1.48,21.29.9,6.87-.61,14.05-1.87,19.82-5.85a35.73,35.73,0,0,0,7.58-6.85c1.42-1.76,2.1-4.35,3.69-5.87C279,431.15,276.41,427.9,274,429.26Z" style="fill:#e5a024;"/><path d="M294.82,49.06a85.94,85.94,0,0,1-11-10.31c-2.53-2.84-7.71-2.77-10.26,0a7.42,7.42,0,0,0,0,10.26,85.94,85.94,0,0,0,11,10.31c3,2.34,7.39,3.12,10.26,0,2.4-2.61,3.18-7.75,0-10.26Z" style="fill:#cf4327;"/><path d="M336,18.75,332,7.16c-1.21-3.59-5-6.32-8.92-5.07-3.56,1.15-6.37,5.07-5.07,8.92L322,22.61c1.21,3.59,5,6.32,8.92,5.07,3.56-1.15,6.37-5.07,5.07-8.92Z" style="fill:#cf4327;"/><path d="M377.81,21.27,382,9.13C383.26,5.55,380.6,1,377,.21A7.43,7.43,0,0,0,368,5.28l-4.21,12.13c-1.24,3.59,1.42,8.09,5.07,8.92a7.43,7.43,0,0,0,8.92-5.07Z" style="fill:#cf4327;"/><path d="M409.38,39.15l9.71-6.39c3.17-2.08,4.8-6.51,2.6-9.92-2-3.16-6.53-4.83-9.92-2.6l-9.71,6.39c-3.17,2.08-4.8,6.51-2.6,9.92,2,3.16,6.53,4.83,9.92,2.6Z" style="fill:#cf4327;"/><path d="M422.5,80.79a67.42,67.42,0,0,0,14.88-2.64,7.25,7.25,0,0,0-3.86-14,49.78,49.78,0,0,1-11,2.12c-3.91.27-7.25,3.14-7.25,7.25,0,3.71,3.32,7.53,7.25,7.25Z" style="fill:#cf4327;"/><path d="M278.7,222.46c-.82-4.94-5.54-5.38-9.51-4a23.93,23.93,0,0,0-8.67,5.41c-1.2-5.59-4.11-11.57-9.71-6.61-2.95,2.61-3.06,7.78-3.33,11.42a58.16,58.16,0,0,0,1.15,16c-.32,1.84,1.53,3.92,3.5,2.6,6.11-4.11,12.22-8.22,18-12.76C273.87,231.6,279.61,228,278.7,222.46Z" style="fill:#cf4327;"/><path d="M290.72,273.09a14.18,14.18,0,0,0-6.74-4.41,14.73,14.73,0,0,0,4.59-6.26c1.19-3.44,0-7-4.1-6.88s-9.37,3.28-12.91,5.19c-4.32,2.33-8.62,5.15-11.68,9a2.67,2.67,0,0,0-.52,2.39,2.52,2.52,0,0,0,.95,2.69,49.33,49.33,0,0,0,16,8c4.2,1.2,11.39,3.39,15-.18C294.06,280,293,275.79,290.72,273.09Z" style="fill:#cf4327;"/><path d="M423.07,207.75a71.45,71.45,0,0,1,16.59,53.42c-.3,3.09,4.53,3.07,4.84,0a76.19,76.19,0,0,0-18-56.84c-2-2.37-5.43,1.06-3.42,3.42Z" style="fill:#3b301b;"/><path d="M447.27,218.58A52.73,52.73,0,0,1,451,241.16c-.16,3.11,4.68,3.1,4.84,0a56,56,0,0,0-3.92-23.86c-1.14-2.86-5.82-1.61-4.66,1.29Z" style="fill:#3b301b;"/><path d="M257.77,112.87a78.36,78.36,0,0,0,16.54,53.37c1.91,2.45,5.31-1,3.42-3.42a73.38,73.38,0,0,1-15.13-50c.2-3.11-4.63-3.09-4.84,0Z" style="fill:#3b301b;"/><path d="M245.22,140.62a69.34,69.34,0,0,0,7.57,21.16c1.5,2.73,5.68.29,4.18-2.44a65.25,65.25,0,0,1-7.09-20c-.56-3.06-5.22-1.76-4.66,1.29Z" style="fill:#3b301b;"/><path d="M307.11,65.36a48.68,48.68,0,0,0-9.67,20.78c-.78,4,5.28,5.64,6.06,1.67a42,42,0,0,1,8.05-18c2.46-3.15-2-7.63-4.44-4.44Z" style="fill:#f3bc63;"/><path d="M313.59,152.21l11.6,5.16c3.66,1.63,6.87-3.79,3.17-5.43l-11.6-5.16c-3.66-1.63-6.87,3.79-3.17,5.43Z" style="fill:#f3bc63;"/><path d="M370.31,236.87c15.86,32.41-9.39,66.58-20.23,96.18-1.39,3.8,4.68,5.44,6.06,1.67,11.68-31.89,36.62-66.25,19.6-101-1.78-3.63-7.2-.45-5.43,3.17Z" style="fill:#f3bc63;"/><path d="M348.06,349.92c4,0,4.05-6.29,0-6.29s-4.05,6.29,0,6.29Z" style="fill:#f3bc63;"/><path d="M235.36,421.36a53.52,53.52,0,0,0-2,17.62c.22,4,6.51,4,6.29,0A48.05,48.05,0,0,1,241.42,423c1.1-3.9-5-5.56-6.06-1.67Z" style="fill:#f3bc63;"/><path d="M323.31,60.23a131.72,131.72,0,0,1,7,18.51c1.14,3.87,7.21,2.22,6.06-1.67a142.67,142.67,0,0,0-7.61-20c-1.71-3.66-7.13-.47-5.43,3.17Z" style="fill:#db6653;"/><path d="M368.77,84.64A77.05,77.05,0,0,1,382.53,70.5c3.16-2.53-1.32-6.95-4.44-4.44a82.93,82.93,0,0,0-14.74,15.41c-2.42,3.25,3,6.39,5.43,3.17Z" style="fill:#db6653;"/><path d="M397.19,240.05l5.8-9.67c2.09-3.48-3.35-6.64-5.43-3.17l-5.8,9.67c-2.09,3.48,3.35,6.64,5.43,3.17Z" style="fill:#db6653;"/><path d="M400.57,263.75,409,257.3a3.25,3.25,0,0,0,1.13-4.3c-.77-1.32-2.95-2.17-4.3-1.13l-8.38,6.45a3.25,3.25,0,0,0-1.13,4.3c.77,1.32,2.95,2.17,4.3,1.13Z" style="fill:#db6653;"/><path d="M355.69,414a142.35,142.35,0,0,1,30.12-37.84c3-2.7-1.43-7.13-4.44-4.44a147.48,147.48,0,0,0-31.1,39.11c-1.95,3.55,3.48,6.72,5.43,3.17Z" style="fill:#db6653;"/><path d="M179.3,206.31a41.58,41.58,0,0,1,14.39-17.89c3.28-2.32.14-7.77-3.17-5.43a49.25,49.25,0,0,0-17.28,21.64c-1.56,3.73,4.52,5.36,6.06,1.67Z" style="fill:#db6653;"/><path d="M204.57,218.13a70,70,0,0,1,11-9.18c3.34-2.25.19-7.7-3.17-5.43a78.05,78.05,0,0,0-12.24,10.16c-2.83,2.89,1.61,7.34,4.44,4.44Z" style="fill:#db6653;"/><path d="M188.79,222.38A99.44,99.44,0,0,1,214,270.92c.82,4,6.88,2.28,6.06-1.67a105.56,105.56,0,0,0-26.84-51.31c-2.79-2.94-7.23,1.51-4.44,4.44Z" style="fill:#db6653;"/><path d="M118.53,437.87a54.47,54.47,0,0,0,45.68-24.54c2.23-3.39-3.21-6.54-5.43-3.17a47.94,47.94,0,0,1-40.25,21.42c-4,0-4.05,6.26,0,6.29Z" style="fill:#db6653;"/><path d="M315.51,183.23l9.62-5.24c3.55-1.94.38-7.37-3.17-5.43l-9.62,5.24c-3.55,1.94-.38,7.37,3.17,5.43Z" style="fill:#574730;"/><path d="M257.3,389.64q15.75-24,33.52-46.56c2.48-3.14-1.94-7.62-4.44-4.44q-18.28,23.16-34.5,47.83c-2.23,3.39,3.21,6.54,5.43,3.17Z" style="fill:#574730;"/><path d="M70.94,278.53a25.35,25.35,0,0,1,13.15-15.27c3.62-1.81.44-7.23-3.17-5.43a31.6,31.6,0,0,0-16,19c-1.21,3.87,4.86,5.53,6.06,1.67Z" style="fill:#574730;"/><path d="M92,238.67c4.63-6.8,12.84-9.43,20.33-11.8,3.84-1.22,2.2-7.29-1.67-6.06-9.23,2.92-18.42,6.37-24.08,14.69-2.28,3.35,3.16,6.5,5.43,3.17Z" style="fill:#574730;"/><path d="M134.84,204.09a24.67,24.67,0,0,1,14.45-1.27c3.94.86,5.63-5.2,1.67-6.06a30.66,30.66,0,0,0-17.8,1.27c-3.73,1.45-2.11,7.53,1.67,6.06Z" style="fill:#574730;"/><path d="M62.44,316,69,306.44c2.29-3.35-3.15-6.49-5.43-3.17L57,312.86c-2.29,3.35,3.15,6.49,5.43,3.17Z" style="fill:#574730;"/><path d="M59,343.09c0-.11.41-1.21.17-.63a8.37,8.37,0,0,1,.53-1c.06-.1.71-1,.34-.57a9.69,9.69,0,0,1,.79-.86,3.14,3.14,0,0,0-4.44-4.44,13.62,13.62,0,0,0-3.45,5.87A3.14,3.14,0,1,0,59,343.09Z" style="fill:#574730;"/><path d="M55,374.79l.64-.64a3.14,3.14,0,0,0-4.44-4.44l-.64.64A3.14,3.14,0,0,0,55,374.79Z" style="fill:#574730;"/><path d="M335.52,285.18l5.8,6.45a3.14,3.14,0,0,0,4.44-4.44l-5.8-6.45a3.14,3.14,0,0,0-4.44,4.44Z" style="fill:#574730;"/><path d="M353.75,268.41a26.38,26.38,0,0,1,3.51,7.65c1.08,3.89,7.14,2.24,6.06-1.67a32,32,0,0,0-4.14-9.15c-2.22-3.36-7.67-.21-5.43,3.17Z" style="fill:#574730;"/></g></g></svg>