<?xml version="1.0" encoding="utf-8"?>
<!-- Generator: Adobe Illustrator 20.1.0, SVG Export Plug-In . SVG Version: 6.00 Build 0)  -->
<svg version="1.1" id="Capa_1" xmlns="http://www.w3.org/2000/svg" xmlns:xlink="http://www.w3.org/1999/xlink" x="0px" y="0px" viewBox="0 0 800 600" style="enable-background:new 0 0 800 600;" xml:space="preserve">

<g>
	<g>
		<path d="M411.7,438.4c-0.2-5.3-0.8-10.6-1.1-15.8c-1.5-20.9-3-41.7-4.5-62.6c1.3-1.4,0-4.6-2.6-4.2
			c-23.6,3.3-47.3,5.5-71.1,6.6c-11.3,0.5-22.5,0.7-33.8,0.8c-11.1,0.1-22.2,0.7-33,3.8c-1,0.3-1.9,1.3-1.8,2.4
			c1.1,31.1,2.2,62.3,3.2,93.4c0,1.4,1.1,2.5,2.5,2.5c40.3,0.2,80.7-3.3,120.3-10.8c6.4-1.2,16.2-1.5,20.3-7.5
			C411.9,444.4,411.9,441.4,411.7,438.4z" style="fill:#4A3B2A;"/>
		<path d="M354.1,396.8c-1.3-12-2.6-24-3.9-36c-0.1-1.3-1-2.6-2.5-2.5c-8.7,0.5-17.3,1.6-25.8,3.3
			c-2.2,0.4-2.2,2.8-1,4.1c0.8,11.7,1.6,23.4,2.5,35.1c0.2,2.9,0.5,5.9,3.4,7.3c4.1,2.1,10.9,1.2,15.4,1.5c3.3,0.2,7.3,0.7,10.1-1.5
			C355.6,405.3,354.5,400.5,354.1,396.8z" style="fill:#FFFFFF;"/>
		<path d="M562.3,246.7c-1-13.7-2.9-27.3-5.8-40.7c-1.4-6.3-3-12.6-4.9-18.8c-1.5-4.9-3-10.4-7.6-13.2
			c-4.7-2.9-11.2-3-16.5-3.5c-7.6-0.7-15.2-0.7-22.9-0.4c-13.4,0.6-26.8,2.4-40.1,4.7c-22.3,3.8-46.7,11.7-58.6,31.6
			c-15.4,15.3-26.2,35.4-29.2,57c-2.2,15.4-0.1,32.9,10.8,44.7c9.3,10,25.1,15.4,38,9.8c6.3-2.7,10.7-7.3,13.8-12.8
			c-2.2,26.4-3.6,52.9-4.3,79.4c-29.8,14.8-62.1,23.9-95.3,26.9c-2.3,0.2-3.6,3.4-1.3,4.7c3.1,1.6,6.1,3.3,9.2,4.9
			c-2.1,1.1-4,2.6-5.7,4.4c-1.3,1.3-0.8,3.7,1.1,4.2c2,0.5,4.1,1,6.1,1.5c-1.6,1.3-3.1,2.8-4.4,4.5s-0.5,4.1,1.8,4.3
			c1.9,0.1,3.8,0.4,5.6,0.7c-2.2,1.9-4,4.3-5.3,7.1c-0.8,1.7,0.1,3.7,2.2,3.8c32.3,1.2,65.4,1.7,96.8-6.9
			c15.9-4.4,30.1-11.8,44.7-19.3c15.9-8.1,33.4-15.4,51.5-11.5c1.2,0.3,2.8-0.4,3.1-1.7C556.2,357.7,566.4,302.3,562.3,246.7z" style="fill:#F4BFAB;"/>
		<path d="M552.6,168.6c-10.4-9-23.8-11.8-37.2-13.3c3.1-4.5,5.3-9.4,5.2-14.9c0.2-1,0.3-2,0.4-3
			c0.2-1.3-1.1-2.4-2.4-2.5c-0.9-0.4-2-0.3-2.7,0.5c-3.9,4.5-6.8,9.5-8.7,15c-0.2-0.6-0.5-1.3-0.7-1.9c-1-2.7-2-5.4-3.2-8
			c-0.5-1.1-1.6-1.4-2.6-1.1c-1.7-1.2-3.5-1.4-5.5-0.1c-1,0.7-1.4,1.7-1.1,2.8c0.7,4,1.9,7.9,3.4,11.7c-17.3-1.2-34.9-1.2-51,5.8
			c-7.2,3.2-17.7,8.9-21.1,16.5c-1.2,2.7-0.2,5.4,1.6,6.9c-0.4,0.8-0.7,1.7-0.8,2.5c-0.9,5.3,4.5,6.7,8.7,6.8
			c4.2,0,8.3-1.2,12.1-2.9c-2.2,4.3-4,8.7-4.7,13.4c-0.7,4.2-1,10.7,3.5,13c5.7,3,11-3.6,14.3-7.3c3.4-3.8,6.6-7.8,9.6-12
			c-0.2,11.8,0.7,30.4,9.9,28.3c5.2-1.2,8.2-9.3,9.6-13.8c0.8-2.7,1.4-5.4,1.7-8.2c1.1,2.8,2.4,5.5,3.8,8.2
			c2.7,4.9,6.2,11.7,12.7,11.8c6.7,0,7.9-6.5,8.6-11.8c0.4-3.1,0.7-6.2,0.7-9.3c4,7.6,9.5,14.5,17.4,15.2c8.3,0.7,9.6-6,8.2-13.3
			c7,5.5,15.8,8.5,22.7,3.9C579.5,197.6,561,175.9,552.6,168.6z" style="fill:#4A3B2A;"/>
		<path d="M478.5,246.4c-0.1-3.2-5.1-3.2-5,0c0.1,2.9-0.9,10-5.1,9.7c-3.9-0.3-4.3-6.3-4.5-9.1c-0.2-3.2-5.2-3.2-5,0
			c0.5,5.8,2.3,13.9,9.7,14.1C475.7,261.3,478.7,252.2,478.5,246.4z" style="fill:#4A3B2A;"/>
		<path d="M398.9,256.1c-0.7,3.5-1.7,7-3,10.4c-1.2,3,3.7,4.3,4.8,1.3c1.3-3.4,2.3-6.8,3-10.4
			C404.4,254.3,399.6,252.9,398.9,256.1z" style="fill:#4A3B2A;"/>
		<path d="M402.5,292.8c-1.5-2.6-2.5-5.3-3.1-8.3c-0.7-3.1-5.5-1.8-4.8,1.3c0.7,3.3,2,6.5,3.6,9.5
			C399.8,298.1,404.1,295.6,402.5,292.8z" style="fill:#4A3B2A;"/>
		<path d="M415.3,285.6c-0.9-2.1-1.7-4.1-2.6-6.2c-0.5-1.2-1.7-2.1-3.1-1.7c-1.2,0.3-2.3,1.8-1.7,3.1
			c0.9,2.1,1.7,4.1,2.6,6.2c0.5,1.2,1.7,2.1,3.1,1.7C414.7,288.4,415.8,286.9,415.3,285.6z" style="fill:#4A3B2A;"/>
		<path d="M541.5,273.9c-0.3-3.2-5.3-3.2-5,0c0.2,2.4,0.4,4.8,0.6,7.2c0.3,3.2,5.3,3.2,5,0
			C541.9,278.7,541.7,276.3,541.5,273.9z" style="fill:#4A3B2A;"/>
		<path d="M553.1,278.3c-0.8-3.1-5.6-1.8-4.8,1.3c0.9,3.9,1.1,7.8,0.6,11.8c-0.4,3.2,4.6,3.2,5,0
			C554.5,287,554.1,282.7,553.1,278.3z" style="fill:#4A3B2A;"/>
		<path d="M548.3,296.1c-0.3-3.2-5.3-3.2-5,0c0.2,2.7,0.2,5.5-0.2,8.2c-0.2,1.3,0.3,2.7,1.7,3.1
			c1.2,0.3,2.9-0.4,3.1-1.7C548.4,302.4,548.6,299.3,548.3,296.1z" style="fill:#4A3B2A;"/>
		<path d="M561.6,388.4c0.1-24.9,0.2-49.8,0.3-74.6c0-1.1-0.6-1.8-1.4-2.2c-0.4-0.5-1-0.7-1.7-0.7
			c-40.1,3.8-80.4,5.9-120.7,6.4c-1.3-1.4-4.3-0.9-4.5,1.6c-1.1,19.9-2.3,39.7-3.4,59.6c-20.6,8.9-41.4,17.3-62.5,25
			c-1.2,0.5-2.2,1.7-1.7,3.1c3.1,10.3,6.3,20.6,9.5,30.8c1.4,4.4,2.8,8.1,5.6,10.2c0.1,0.8,0.7,1.6,1.8,1.7
			c15.8,2.4,31.2,1.4,46.9-1.5c9.8-1.9,19.6-3.8,29.3-5.7c0.6,2.6,1.7,5,4,6.9c3.6,3,8.5,2.7,12.1,0s5.1-6.9,5.7-11.2l0,0
			c16.8-3.4,33.7-6.8,50.5-10.2c3-0.6,7.5-0.8,10.9-2.4c1.3-0.3,2.5-0.6,3.8-1c3-0.5,6-0.9,9.1-1.4c0.8-0.1,1.3-0.6,1.6-1.1
			c1.2-0.4,2.3-0.9,3.1-1.7c3-2.8,1.7-9.1,1.8-12.7C561.6,401.1,561.6,394.7,561.6,388.4z" style="fill:#ED7354;"/>
		<path d="M322.1,296.2c0-5,0-9.9,0-14.9c0-1.3-0.8-2-1.7-2.3c-0.5-0.3-1.2-0.4-1.9-0.2c-9.2,3.7-19.3,4.4-29.1,5.8
			l-26.1,3.5c-3.1,0-2.2,0.1-2.3-3.3l-0.1-8.7c0-2.3-2.6-3.1-4.3-1.8c-10.4,8.2-19.2,18-26.6,29c-0.6,1-0.3,2.2,0.4,3
			c7.3,8.4,15.1,16.3,23.5,23.6c1.1,1,3.2,1,3.9-0.5c2.1-4.3,4.2-8.7,6.3-13c1-2,1.5-4.1,3.9-4.5c1.8-0.3,4.4,0.5,6.2,0.6
			c9.3,0.7,18.7,0.6,27.9-0.5c3.9-0.5,7.8-1,11.7-1.8c2.8-0.5,6.2-0.8,7.6-3.6C322.9,303.7,322.1,299.3,322.1,296.2z" style="fill:#ED7354;"/>
		<path d="M495.9,346.8c-21.5,11.3-43.5,21.5-66,30.5c-3,1.2-1.7,6,1.3,4.8c22.9-9.1,45.4-19.5,67.2-31
			C501.2,349.6,498.7,345.3,495.9,346.8z" style="fill:#FFFFFF;"/>
		<path d="M406.6,449.9c-3.9-17.4-9.1-34.5-15.4-51.2c-1.1-3-6-1.7-4.8,1.3c0.5,1.4,1,2.7,1.5,4.1
			c-5.4,1.6-10.8,3.1-16.2,4.7c-3.1,0.9-1.8,5.7,1.3,4.8c5.5-1.6,11-3.2,16.6-4.8c1.1,3,2.1,6,3,9c-6.3,2-12.6,3.9-19,5.9
			c-3.1,0.9-1.8,5.8,1.3,4.8c6.4-2,12.8-3.9,19.2-5.9c0.9,3,1.8,6,2.7,9.1c-5.5,0.8-10.9,2.2-16.1,4.4c-2.9,1.2-1.7,6,1.3,4.8
			c5.2-2.1,10.5-3.6,16.1-4.4c1.3,4.9,2.5,9.8,3.6,14.7C402.5,454.4,407.3,453,406.6,449.9z" style="fill:#FFFFFF;"/>
		<path d="M561.8,319.9c-4.4-0.7-8.7-0.5-12.9,0.1c-0.3-1.4-0.5-2.8-0.8-4.2c-0.6-3.2-5.4-1.8-4.8,1.3
			c0.2,1.2,0.5,2.5,0.7,3.7c-3.3,0.6-6.6,1.4-9.9,2c-1.1,0.2-2.1,0.4-3.2,0.6l-1-8.9c-0.4-3.2-5.4-3.2-5,0s0.8,6.5,1.1,9.7
			c-3.8,0.6-7.7,1.3-11.6,1.8c-0.7-3.5-0.8-7-0.4-10.6c0.4-3.2-4.6-3.2-5,0c-0.5,3.8-0.3,7.5,0.4,11.3c-2.7,0.4-5.5,0.7-8.2,1
			c-0.9,0.1-1.9,0.2-2.8,0.3c-0.3-3.2-0.7-6.4-1-9.6s-5.3-3.2-5,0c0.4,3.4,0.7,6.8,1.1,10.1c-3.4,0.3-6.8,0.6-10.2,0.9
			c-0.5-3.6-0.5-7.3-0.2-11c0.3-3.2-4.7-3.2-5,0c-0.4,3.8-0.3,7.5,0.2,11.3c-4.1,0.3-8.2,0.5-12.3,0.6v-9c0-3.2-5-3.2-5,0v9.1
			c-3.7,0.1-7.3,0.2-11,0.2v-10.3c0-3.2-5-3.2-5,0v10.3c-2.2,0-4.4,0-6.6-0.1c-3.2-0.1-3.2,4.9,0,5c20.3,0.4,40.7-0.5,60.9-2.8
			c9.5-1.1,19-2.4,28.5-4c5.5-0.9,11.3-2.5,17.1-3.6c0.7,2.6,4.5,1.7,4.8-0.7c3.7-0.4,7.3-0.5,10.8,0
			C563.6,325.2,565,320.4,561.8,319.9z" style="fill:#FFFFFF;"/>
		<path d="M343.6,404.2c-1.8-15.5-3.7-31-5.5-46.6c-0.4-3.2-5.4-3.2-5,0c1.8,15.5,3.7,31,5.5,46.6
			C339,407.3,344,407.4,343.6,404.2z" style="fill:#4A3B2A;"/>
	</g>
	<path d="M458.7,165.4c-1.5,1.7-3.3,2.5-5.6,2.5c-3.2-0.1-3.2,4.9,0,5c3.5,0.1,6.8-1.3,9.1-3.9
		C464.4,166.5,460.9,163,458.7,165.4z" style="fill:#FFFFFF;"/>
	<path d="M480.7,170.4c-0.8-1.2-2.2-1.5-3.4-0.9c-1,0.5-2,1-3,1.5c-1.2,0.6-1.6,2.3-0.9,3.4c0.8,1.2,2.2,1.5,3.4,0.9
		c1-0.5,2-1,3-1.5C481,173.2,481.4,171.5,480.7,170.4z" style="fill:#FFFFFF;"/>
	<path d="M467.6,181.7c-0.4-1.3-1.8-2.1-3.1-1.7c-3.1,0.8-5.4,3.1-6.4,6.1c-0.4,1.3,0.5,2.7,1.7,3.1
		c1.4,0.4,2.7-0.5,3.1-1.7c0.4-1.3,1.5-2.3,2.9-2.6C467.2,184.5,467.9,183,467.6,181.7z" style="fill:#FFFFFF;"/>
</g>
</svg>
