<?xml version="1.0" encoding="utf-8"?>
<!-- Generator: Adobe Illustrator 20.1.0, SVG Export Plug-In . SVG Version: 6.00 Build 0)  -->
<svg version="1.1" id="Capa_1" xmlns="http://www.w3.org/2000/svg" xmlns:xlink="http://www.w3.org/1999/xlink" x="0px" y="0px" width="800px" height="600px" viewBox="0 0 800 600" style="enable-background:new 0 0 800 600;" xml:space="preserve">

<g>
	<path d="M476.8,246.4c-0.8-29.9-1.8-59.8-3.1-89.6c-0.7-14.9-1.4-29.9-2.2-44.8c-0.4-6.8-0.7-13.7-1.1-20.5
		c-0.3-4.4,0.3-10.5-3-14.1c-3.5-3.8-10.4-2.8-15.1-3c-7.4-0.2-14.8-0.4-22.2-0.5c-14.8-0.2-29.6,0-44.5,0.4c-29,0.9-58,3-86.8,6.2
		c-6.7,0.8-13.6,1.3-20.3,2.5c-4.7,0.9-8.1,3.3-8.7,8.3c-0.8,6,0.2,12.6,0.4,18.6c0.3,8.1,0.5,16.2,0.8,24.3
		c1,29.3,2.1,58.6,3.3,87.9c1.3,33,2.8,66.1,4.4,99.1c0.8,16.8,1.7,33.7,2.5,50.5c0.9,16.7,1.9,33.6-1.1,50.2
		c-0.3,1.9,1.5,3.1,2.9,2.9c0.1,0,0.1,0,0.2,0c34.5,1.7,69,3.4,103.4,5.1c17.1,0.8,34.2,1.7,51.3,2.5c12.6,0.6,28.2,3.6,38.7-5.3
		c0.7-0.6,0.8-1.2,0.7-1.8c0.4-0.4,0.7-0.9,0.7-1.7C478.7,364.7,478.3,305.6,476.8,246.4z" style="fill:#4A3B2A;"/>
	<path d="M449.2,261.4c-0.6-27.5-1.3-55-2.3-82.5c-0.5-13.7-1-27.5-1.6-41.2c-0.3-6.3-0.5-12.6-0.8-18.9
		c-0.2-4,0.2-9.7-2.1-12.9c-2.5-3.5-7.4-2.6-10.6-2.7c-5.2-0.2-10.5-0.4-15.7-0.5c-10.5-0.2-20.9-0.1-31.4,0.3
		c-20.5,0.8-41,2.7-61.3,5.7c-4.8,0.7-9.6,1.2-14.3,2.3c-3.3,0.8-5.7,3-6.2,7.6c-0.6,5.5,0.1,11.6,0.3,17.1
		c0.2,7.5,0.4,14.9,0.6,22.4c0.7,27,1.5,54,2.4,80.9c1,30.4,2,60.8,3.2,91.2c0.6,15.5,1.2,31,1.8,46.5c0.6,15.4,1.3,30.9-0.7,46.2
		c-0.2,1.8,1,2.9,2.1,2.7c0,0,0.1,0,0.1,0c24.4,1.6,48.7,3.2,73.1,4.8c12.1,0.8,24.1,1.6,36.2,2.4c8.9,0.6,19.9,3.4,27.3-4.8
		c0.5-0.5,0.6-1.1,0.5-1.7c0.3-0.3,0.5-0.9,0.5-1.5C450.6,370.3,450.3,315.8,449.2,261.4z" style="fill:#FFFFFF;"/>
	<path d="M424.2,260.8c-0.5-27.5-1.1-54.9-2-82.4c-0.4-13.7-0.9-27.4-1.4-41.2c-0.2-6.3-0.5-12.6-0.7-18.9
		c-0.2-4,0.2-9.7-1.8-12.9c-2.1-3.5-6.3-2.6-9.1-2.7c-4.5-0.2-9-0.4-13.4-0.5c-9-0.2-17.9-0.1-26.9,0.3c-17.5,0.8-35,2.7-52.5,5.6
		c-4.1,0.7-8.2,1.2-12.3,2.3c-2.9,0.8-4.9,3-5.3,7.6c-0.5,5.5,0.1,11.5,0.2,17.1c0.2,7.4,0.3,14.9,0.5,22.3
		c0.6,26.9,1.3,53.9,2.1,80.8c0.8,30.4,1.8,60.7,2.8,91.1c0.5,15.5,1,30.9,1.6,46.4c0.5,15.4,1.2,30.9-0.6,46.1
		c-0.2,1.8,0.9,2.9,1.8,2.7c0,0,0.1,0,0.1,0c20.8,1.6,41.7,3.2,62.5,4.8c10.3,0.8,20.7,1.6,31,2.4c7.6,0.6,17.1,3.4,23.4-4.8
		c0.4-0.5,0.5-1.1,0.4-1.7c0.3-0.3,0.4-0.9,0.4-1.5C425.5,369.6,425.2,315.2,424.2,260.8z" style="fill:#ED7354;"/>
	<path d="M412.1,264.3c-1.2-3.9-4.7-8.2-9.2-7.5c-0.3,0-0.6,0.1-0.8,0.2c-2.9-0.5-5.8,2.9-6.9,5.6
		c-1.7,4-0.9,8.7,1.9,12c2.9,3.3,8.1,5.1,11.8,2.2C412.4,273.9,413.3,268.4,412.1,264.3z" style="fill:#FFFFFF;"/>
	<path d="M405.7,268.1c-0.2-0.8-0.4-1.6-0.6-2.4c-0.3-1.2-1.7-2-2.9-1.6c-1.2,0.4-2,1.6-1.6,2.9
		c0.2,0.8,0.4,1.6,0.6,2.4c0.3,1.2,1.7,2,2.9,1.6C405.3,270.6,406,269.4,405.7,268.1z" style="fill:#4A3B2A;"/>
	<path d="M322.1,395.9l0,10.2c0,3,4.7,3,4.7,0l0-10.2C326.8,392.9,322.1,392.9,322.1,395.9z" style="fill:#FFFFFF;"/>
	<path d="M326.2,367.2l0,4.8c0,3,4.7,3,4.7,0l0-4.8C330.9,364.2,326.2,364.2,326.2,367.2z" style="fill:#FFFFFF;"/>
	<path d="M339.3,384.5c-0.2-3-4.9-3-4.7,0c0.2,2.2,0,4.4-0.5,6.5c-0.7,2.9,3.8,4.2,4.5,1.2
		C339.3,389.8,339.5,387.2,339.3,384.5z" style="fill:#FFFFFF;"/>
	<path d="M349.1,402.9c-0.4-1.2-1.6-2-2.9-1.6c-1.2,0.3-2,1.7-1.6,2.9c0.4,1.2,0.6,2.4,0.4,3.6
		c-0.2,1.2,0.4,2.5,1.6,2.9c1.1,0.3,2.7-0.4,2.9-1.6C349.8,407,349.8,404.9,349.1,402.9z" style="fill:#FFFFFF;"/>
	<path d="M347.1,367.7c-0.1-1.3-1-2.3-2.4-2.3c-1.2,0-2.5,1.1-2.3,2.4c0.2,2.2,0.5,4.4,0.7,6.6c0.1,1.3,1,2.3,2.4,2.3
		c1.2,0,2.5-1.1,2.3-2.4C347.6,372.1,347.3,369.9,347.1,367.7z" style="fill:#FFFFFF;"/>
	<path d="M335.7,342c-0.6-3-5.2-1.7-4.5,1.3c0.5,2.4,0.6,4.8,0.3,7.2c-0.1,1.3,1.2,2.3,2.4,2.3c1.4,0,2.2-1.1,2.3-2.4
		C336.5,347.6,336.3,344.8,335.7,342z" style="fill:#FFFFFF;"/>
	<path d="M525.2,492.1c-5.1-7.3-10.5-14.4-16.2-21.2c-5.4-6.5-11-13.5-17.5-18.9c-6.3-5.3-13.3-6.1-21.4-6
		c-19.9,0.4-39.8,0.9-59.7,1.3c-22.4,0.5-44.8,1-67.1,1.4c-10.8,0.2-21.6,0.4-32.4,0.7c-6.3,0.2-13.1,0.9-18,4.9
		c0-0.1-0.1-0.1-0.1-0.2c-1.8-2.4-5.9,0-4.1,2.4c0.5,0.7,1.1,1.4,1.6,2.1c0.2,0.6,0.6,1.2,1.2,1.5c9.9,13,20.4,25.4,31.6,37.3
		c6.2,6.6,12.7,13.1,19.3,19.3c5.8,5.5,11.2,9.4,19.5,9.3c9.6-0.1,19.3-1.4,28.8-2.2c9.9-0.8,19.9-1.6,29.8-2.3
		c19.5-1.5,39.1-3.1,58.6-4.6c9.9-0.8,19.9-1.6,29.8-2.3c5.9-0.5,15.2,0.3,19.5-4.8C533.3,504.3,528.7,497.1,525.2,492.1z" style="fill:#F4BFAB;"/>
	<path d="M510.2,166.2c-0.3-1.7-2.8-2.3-3.9-1c-1.4,1.6-2.7,3.3-3.8,5.2c-0.4-1.7-0.7-3.4-1.1-5.1
		c-0.4-2-3.3-2.2-4.3-0.6c-0.9,1.5-1.7,3.1-2.4,4.6c-0.3-1.1-0.5-2.1-0.8-3.2c-0.6-2.3-3.8-2.1-4.5,0c-0.4,1.4-0.9,2.7-1.3,4.1
		c-0.5-1.4-1.1-2.7-1.6-4.1c-0.2-0.4-0.4-0.7-0.7-1c-0.4-2.7-4.8-2.6-4.6,0.3c0.7,15.8-0.6,30.8-12.8,42.2
		c-11.7,10.8-27.9,14.3-43.4,14.8c-1.4,0-2.2,1.1-2.3,2.2c-0.1,0.2-0.1,0.4-0.1,0.6c-0.1,6.6-0.1,13.2,0,19.7
		c0.1,3.9-1.3,11.1,2.5,13.7c3.7,2.5,10.7,2,14.9,1.6c5-0.4,9.7-1.7,14.3-3.7c4.1,6.5,11.4,13.5,19.4,8.7c5.8-3.5,5.5-9.9,2.5-14.8
		c14.6-3.8,23.8-17,29-30.6C511.7,202.7,513.2,184.2,510.2,166.2z" style="fill:#F4BFAB;"/>
	<path d="M470.3,239.9c-1.8,0.5-3.7,0.8-5.6,0.9c-3,0.1-3,4.8,0,4.7c2.3-0.1,4.6-0.4,6.8-1
		C474.4,243.6,473.2,239.1,470.3,239.9z" style="fill:#4A3B2A;"/>
	<path d="M463.1,231.7c-0.4-1.3-1.6-1.9-2.9-1.6c-1.3,0.3-2.6,0.5-3.9,0.8c-1.2,0.3-2,1.7-1.6,2.9
		c0.4,1.3,1.6,1.9,2.9,1.6c1.3-0.3,2.6-0.5,3.9-0.8C462.7,234.3,463.4,232.8,463.1,231.7z" style="fill:#4A3B2A;"/>
	<path d="M446.7,242.5c-0.4-1.2-1.6-2-2.9-1.6c-1,0.3-2.1,0.6-3.1,0.8c-1.2,0.3-2,1.7-1.6,2.9c0.4,1.2,1.6,2,2.9,1.6
		c1-0.3,2.1-0.6,3.1-0.8C446.2,245.1,447.1,243.7,446.7,242.5z" style="fill:#4A3B2A;"/>
	<path d="M518,500c-0.9-1.1-1.8-2.2-2.7-3.3c-0.1-0.3-0.3-0.7-0.7-1c-6.4-5.6-12.4-11.6-17.6-18.3
		c-2.8-3.6-5.5-7.3-7.9-11.2c-2-3.2-3.6-6.7-5.9-9.7c-5-6.2-13.6-4.4-20.6-4.3c-9.9,0.2-19.8,0.5-29.6,0.8
		c-39.5,1.4-78.9,4.1-118.2,8.1c0,0-0.1-0.1-0.1-0.1c-2-2.2-5.3,1.1-3.3,3.3c16.2,17.9,32.8,35.4,49.7,52.6c1.2,1.2,2.7,0.7,3.5-0.3
		c51-1,101.9-5.3,152.4-12.7C518.9,503.6,519,501.1,518,500z M455.1,457c4.9-0.1,9.9-0.2,14.8-0.3c5-0.1,8.1,0.3,11.1,5
		c8.1,13,16.5,24.7,27.8,35c-62.5-4.9-124.5-15.6-185-31.8c34.4-3.3,69-5.7,103.5-7C436.6,457.5,445.9,457.2,455.1,457z
		 M363.4,511.9c-0.2,0-0.4,0-0.6,0.1c-13.8-14-27.2-28.2-40.5-42.7c59.5,16,120.3,26.6,181.7,31.7
		C457.4,507.4,410.4,511,363.4,511.9z M511.2,500c0.1-0.3,0.1-0.6,0.1-1c0,0.1,0.1,0.1,0.1,0.2c0.2,0.2,0.4,0.5,0.6,0.7
		C511.7,499.9,511.4,500,511.2,500z" style="fill:#ED7354;"/>
</g>
</svg>
