<?xml version="1.0" encoding="utf-8"?>
<!-- Generator: Adobe Illustrator 20.1.0, SVG Export Plug-In . SVG Version: 6.00 Build 0)  -->
<svg version="1.1" id="Capa_1" xmlns="http://www.w3.org/2000/svg" xmlns:xlink="http://www.w3.org/1999/xlink" x="0px" y="0px" width="800px" height="600px" viewBox="0 0 800 600" style="enable-background:new 0 0 800 600;" xml:space="preserve">

<g>
	<path d="M478.2,497.7c-5.1-7.4-10.6-14.5-16.4-21.5c-5.5-6.6-11.1-13.7-17.7-19.1c-6.4-5.3-13.5-6.2-21.6-6
		c-20.1,0.4-40.2,0.9-60.3,1.3c-22.6,0.5-45.2,1-67.9,1.5c-10.9,0.2-21.8,0.4-32.7,0.7c-6.4,0.2-13.2,0.9-18.2,5
		c0-0.1-0.1-0.1-0.1-0.2c-1.8-2.4-5.9,0-4.1,2.4c0.5,0.7,1.1,1.4,1.6,2.1c0.2,0.6,0.6,1.2,1.2,1.5c10,13.1,20.7,25.7,32,37.7
		c6.3,6.7,12.8,13.2,19.5,19.6c5.9,5.6,11.3,9.5,19.7,9.4c9.7-0.1,19.5-1.4,29.2-2.2c10-0.8,20.1-1.6,30.1-2.4
		c19.8-1.5,39.5-3.1,59.3-4.6c10-0.8,20.1-1.6,30.1-2.4c6-0.5,15.4,0.4,19.8-4.8C486.4,509.9,481.7,502.7,478.2,497.7z" style="fill:#F4BFAB;"/>
	<path d="M470.9,505.6c-0.9-1.1-1.8-2.2-2.7-3.4c-0.1-0.4-0.3-0.7-0.7-1c-6.5-5.6-12.5-11.8-17.8-18.5
		c-2.9-3.6-5.5-7.4-8-11.3c-2-3.2-3.6-6.8-6-9.8c-5-6.2-13.7-4.5-20.8-4.3c-10,0.2-20,0.5-30,0.8c-39.9,1.4-79.7,4.2-119.5,8.2
		c0,0-0.1-0.1-0.1-0.1c-2.1-2.3-5.4,1.1-3.4,3.4c16.4,18.1,33.1,35.8,50.3,53.2c1.2,1.2,2.7,0.7,3.5-0.3
		c51.6-1,103.1-5.3,154.1-12.9C471.9,509.3,471.9,506.8,470.9,505.6z M407.4,462.2c5-0.1,10-0.2,15-0.3c5.1-0.1,8.2,0.3,11.2,5.1
		c8.2,13.1,16.7,24.9,28.1,35.3c-63.2-4.9-125.8-15.7-187-32.2c34.8-3.3,69.7-5.7,104.6-7.1C388.7,462.7,398,462.4,407.4,462.2z
		 M314.6,517.7c-0.2,0-0.4,0-0.6,0.1c-13.9-14.1-27.5-28.5-40.9-43.1c60.1,16.2,121.6,26.9,183.7,32
		C409.7,513.1,362.2,516.8,314.6,517.7z M464.1,505.6c0.1-0.3,0.1-0.6,0.1-1c0,0.1,0.1,0.1,0.1,0.2c0.2,0.2,0.4,0.5,0.6,0.7
		C464.6,505.6,464.3,505.6,464.1,505.6z" style="fill:#ED7354;"/>
	<g>
		<path d="M434.9,242.4c-0.8-30.2-1.8-60.4-3.1-90.6c-0.7-15.1-1.4-30.2-2.2-45.3c-0.4-6.9-0.8-13.8-1.1-20.7
			c-0.3-4.4,0.3-10.6-3-14.2c-3.6-3.9-10.6-2.8-15.2-3c-7.5-0.2-15-0.4-22.5-0.5c-15-0.2-30,0-44.9,0.4c-29.3,0.9-58.6,3-87.8,6.3
			c-6.8,0.8-13.8,1.3-20.5,2.6c-4.8,0.9-8.1,3.3-8.8,8.4c-0.8,6.1,0.2,12.7,0.4,18.8c0.3,8.2,0.5,16.4,0.8,24.6
			c1,29.6,2.1,59.2,3.3,88.9c1.4,33.4,2.9,66.8,4.5,100.2c0.8,17,1.7,34,2.6,51c0.9,16.9,1.9,34-1.1,50.8c-0.3,1.9,1.5,3.2,2.9,2.9
			c0.1,0,0.1,0,0.2,0c34.9,1.7,69.7,3.4,104.6,5.2c17.3,0.9,34.5,1.7,51.8,2.6c12.8,0.6,28.5,3.7,39.1-5.3c0.7-0.6,0.9-1.2,0.8-1.8
			c0.4-0.4,0.7-0.9,0.7-1.7C436.8,362,436.4,302.1,434.9,242.4z" style="fill:#4A3B2A;"/>
		<path d="M405.8,256.9c-0.6-27.8-1.3-55.5-2.3-83.2c-0.5-13.9-1-27.7-1.6-41.6c-0.3-6.4-0.5-12.7-0.8-19.1
			c-0.2-4.1,0.2-9.8-2.2-13.1c-2.6-3.5-7.6-2.6-11-2.8c-5.4-0.2-10.8-0.4-16.2-0.5c-10.8-0.2-21.6-0.1-32.3,0.3
			c-21.1,0.8-42.2,2.7-63.2,5.7c-4.9,0.7-9.9,1.2-14.8,2.3c-3.4,0.8-5.9,3.1-6.4,7.7c-0.6,5.6,0.1,11.7,0.3,17.3
			c0.2,7.5,0.4,15.1,0.6,22.6c0.7,27.2,1.6,54.4,2.4,81.7c1,30.7,2.1,61.4,3.3,92.1c0.6,15.6,1.2,31.3,1.9,46.9
			c0.6,15.6,1.4,31.2-0.8,46.6c-0.2,1.8,1.1,2.9,2.1,2.7c0,0,0.1,0,0.1,0c25.1,1.6,50.2,3.2,75.2,4.8c12.4,0.8,24.9,1.6,37.3,2.4
			c9.2,0.6,20.5,3.4,28.2-4.9c0.5-0.5,0.6-1.1,0.5-1.7c0.3-0.4,0.5-0.9,0.5-1.5C407.2,366.8,406.9,311.8,405.8,256.9z" style="fill:#ED7354;"/>
		<path d="M397.9,260.4c-1.2-4-4.7-8.3-9.3-7.6c-0.3,0-0.6,0.1-0.8,0.2c-3-0.5-5.8,2.9-7,5.6c-1.7,4.1-0.9,8.8,1.9,12.1
			c2.9,3.4,8.2,5.2,12,2.2C398.3,270.1,399.1,264.6,397.9,260.4z" style="fill:#FFFFFF;"/>
		<path d="M391.5,264.3c-0.2-0.8-0.4-1.6-0.6-2.4c-0.3-1.2-1.7-2-2.9-1.6c-1.2,0.4-2,1.6-1.6,2.9
			c0.2,0.8,0.4,1.6,0.6,2.4c0.3,1.2,1.7,2,2.9,1.6C391.1,266.8,391.8,265.6,391.5,264.3z" style="fill:#4A3B2A;"/>
		<path d="M278.5,393.5l0,10.3c0,3.1,4.8,3,4.7,0l0-10.3C283.2,390.4,278.5,390.5,278.5,393.5z" style="fill:#FFFFFF;"/>
		<path d="M282.6,364.5l0,4.8c0,3.1,4.8,3,4.7,0l0-4.8C287.4,361.4,282.6,361.4,282.6,364.5z" style="fill:#FFFFFF;"/>
		<path d="M295.9,382c-0.2-3-5-3-4.7,0c0.2,2.3,0,4.4-0.5,6.6c-0.7,3,3.9,4.2,4.6,1.2
			C295.9,387.3,296.1,384.6,295.9,382z" style="fill:#FFFFFF;"/>
		<path d="M305.8,400.6c-0.4-1.2-1.6-2-2.9-1.6c-1.2,0.3-2.1,1.7-1.6,2.9c0.4,1.2,0.6,2.4,0.4,3.6
			c-0.2,1.3,0.4,2.6,1.7,2.9c1.2,0.3,2.7-0.4,2.9-1.7C306.5,404.7,306.4,402.6,305.8,400.6z" style="fill:#FFFFFF;"/>
		<path d="M303.7,365c-0.1-1.3-1-2.4-2.4-2.4c-1.2,0-2.5,1.1-2.4,2.4c0.2,2.2,0.5,4.4,0.7,6.6c0.1,1.3,1,2.4,2.4,2.4
			c1.2,0,2.5-1.1,2.4-2.4C304.2,369.4,304,367.2,303.7,365z" style="fill:#FFFFFF;"/>
		<path d="M292.2,339c-0.7-3-5.2-1.7-4.6,1.3c0.5,2.4,0.6,4.8,0.3,7.3c-0.1,1.3,1.2,2.4,2.4,2.4c1.4,0,2.2-1.1,2.4-2.4
			C293,344.6,292.8,341.8,292.2,339z" style="fill:#FFFFFF;"/>
	</g>
	<g>
		<path d="M564.7,138.8c-1.3-10.7-4.4-21.3-10.8-29.7c-1.5-2-3.1-3.9-5.1-5.5c-1.5-1.3-3.1-2.6-4.9-3.7
			c-0.4-0.3-0.8-0.4-1.2-0.4c-12-6.1-27.1-4.3-38.9,1.7c-12.1,6.2-21.2,16.7-29.1,27.7c-9.8,9.6-18.5,20.4-25.4,32.1
			c-5.9,10-9.9,22-5.8,33.4c3.6,10.2,13,16.4,23.8,15.4c8.2-0.8,14.8-4.9,20.1-10.4c-3.4,9.1-6.9,18.1-10.8,27
			c-1.3,3.1-2.6,6.3-4.1,9.4c-1.8,3.6-4.1,5.1-8.1,5.5c-6.7,0.6-13.7,0.2-20.3-0.6c-13.4-1.7-26.4-5.9-38.3-12.4
			c-5.9-3.2-11.2-7-16.5-11.1c-4.5-3.4-9.1-6.3-15-6c-1.7,0.1-3.1,2-2,3.6c1.7,2.5,3.3,5.1,5,7.6c-3.8-0.4-7.7-0.8-11.5-1.3
			c-1.6-0.2-2.6,1.7-2.3,3c0.8,3.3,2,6.3,3.6,9.2c-3.4-0.5-6.9-0.5-10.5,0c-1.5,0.2-2.2,2.3-1.4,3.5c1.6,2.4,3.2,4.7,4.8,7.1
			c-2.1,1-3.7,3.1-4,5.8c-0.6,5.2,3.7,9.7,7.1,13.1c8,8.2,17.9,14.2,28.6,18.3c21.2,8.3,44.6,9.4,67.1,8.7
			c-10.9,58.4-20,117.1-27.4,176c-6.5-0.3-12.7,2-17.3,7c-1.4,1.5-0.4,4,1.7,4.1c9.1,0.4,18.1,0.9,27.2,1.3
			c6.1,0.3,12.2,0.9,16.3-4.5c4.7-6.2,7.5-14.6,10.7-21.6c3.4-7.4,6.6-14.9,9.6-22.4c10.5-25.9,19.2-52.4,25.9-79.5
			c0.6,21.3,2.4,42.6,5.3,63.8c1.8,12.8,4.8,25.5,5.9,38.4c0.9,11,0.2,22.7-8.2,30.9c-1.5,1.5-0.4,4,1.7,4.1
			c14,0.2,29.1-1.4,36.1-15.3c6.1-12.2,4.3-26.9,2.8-39.9c-2.3-20.1-3.5-40.3-4.2-60.5c6.6-38.1,11.7-76.4,15.1-115
			c1.9-21,3.3-42.1,4.3-63.2C565.4,175.3,567,156.8,564.7,138.8z" style="fill:#F4BFAB;"/>
		<path d="M463.2,464.4c-2-3.4-9.4-4.7-12.8-5.6c-5.6-1.4-11.3-2-17-2c-1.1-1-3.4-1-4.2,0.9c-0.9,2.3-1.4,4.5-1.6,6.8
			c-4.6,0.9-14.4,3.5-15,7.1c-0.1,0.2-0.3,0.3-0.4,0.4c-1.2,1.4-0.7,3.4,1,4c2.9,0.9,5.8,1.7,8.8,2.3c3.5,1,7.4,1.5,11.2,1.6
			c0,0.1,0.1,0.1,0.1,0.1c1.4,0,2.7,0.1,4.1,0.1c0,0,0-0.1,0.1-0.1c4.1,0,8.1-0.1,11.7,0.1c5.1,0.2,8.6,0.8,10.9-4.4
			C461.4,473.1,465.1,467.6,463.2,464.4z" style="fill:#ED7354;"/>
		<path d="M553.3,464.1c-0.6-2.6-0.6-7.2-2.6-9.3c-1.8-1.8-6-1.4-8.2-1.6c-3.5-0.2-7-0.2-10.5,0.3
			c-5.7,0.8-10.9,3.1-14.8,7.3c-1.2,0.3-2.2,1.4-1.9,2.9c1.9,9.5-7.2,10-11.2,16.1c-1.9,3-2.2,7.5,0.8,10c3.9,3.2,11.5,1,15.8,0
			c7.1-1.7,13.8-4.7,20.3-7.8c4.6-2.2,11.7-4.6,13-10.3C554.6,469.2,553.8,466.6,553.3,464.1z" style="fill:#ED7354;"/>
		<path d="M574.7,149.5c-0.3-12.3-6.4-24.6-13-34.8c-3.2-5-7-9.8-11.4-13.8c-3.4-3.1-6.3-4.6-6.4-9.9
			c-0.1-3.7-0.1-7.4-0.2-11.1c0-2.5-3.1-3.1-4.4-1.2c-1.4,2-2.6,4-3.5,6.2c-1-3.1-2.3-6.1-3.9-9c-1-1.8-3.8-1.4-4.3,0.6
			c-1.5,5.2-2,10.4-1.5,15.6c-15.7-4-31.3,3.7-43.4,13.7c-5.2,4.3-13.8,10.3-13.3,18c0.3,4.6,4.2,8.1,8.4,7.8
			c9.6,3.9,20.8,2.3,29.1-3.6c-1.2,5-2.2,10.1-2.9,15.2c-0.5,3.9-1,9.4,3.7,10.9c4.7,1.5,8.7-3.1,11-6.5c2.1-3.1,3.9-6.3,5.6-9.6
			c0.4,2.6,1,5.3,1.8,7.8c1.3,4,3.2,9.9,7.6,11.7c7.1,2.9,11.3-7.1,13.5-15.4c2.8,7.4,6.4,14.5,12.8,19.3c3.2,2.4,7.3,4.5,10.8,1.6
			C574.4,160,574.8,153.8,574.7,149.5z" style="fill:#4A3B2A;"/>
		<path d="M521.7,169.3c-0.8,3-1.8,7.9-5.6,8.4c-3.8,0.5-3.4-4.8-3.3-7.2c0.2-3.1-4.6-3-4.7,0c-0.3,5,0.9,11.7,7.2,11.9
			c6.8,0.2,9.6-6.4,11-11.9C527,167.6,522.5,166.3,521.7,169.3z" style="fill:#4A3B2A;"/>
		<path d="M501.2,168.5c-4.8,10.5-10.4,20.6-16.9,30.2c-1.7,2.5,2.4,4.9,4.1,2.4c6.5-9.6,12.1-19.6,16.9-30.2
			C506.5,168.2,502.4,165.7,501.2,168.5z" style="fill:#4A3B2A;"/>
		<path d="M465.4,169.4c-0.8-0.8-2.5-1-3.4,0c-1.6,1.9-2.7,4.1-3.2,6.5c-0.2,1.3,0.3,2.6,1.7,2.9
			c1.1,0.3,2.7-0.4,2.9-1.7c0.3-1.6,0.9-3.2,1.9-4.4C466.2,171.8,466.3,170.4,465.4,169.4z" style="fill:#4A3B2A;"/>
		<path d="M473.3,149.9c-1.2-0.6-2.5-0.2-3.2,0.9c-0.6,0.8-1.1,1.7-1.7,2.5c-0.7,1-0.2,2.7,0.9,3.2
			c1.2,0.6,2.5,0.2,3.2-0.9l1.7-2.5C474.8,152.1,474.3,150.5,473.3,149.9z" style="fill:#4A3B2A;"/>
		<path d="M477.2,160.1c-1.3,0.1-2.3,1-2.4,2.4c0,0.1,0,0.3,0,0.4c0,0,0,0.1,0,0.2c-0.1,0.2-0.1,0.5-0.2,0.7
			c0,0.1,0,0.1-0.1,0.2c0,0-0.1,0.1-0.1,0.2c-0.2,0.3-0.3,0.6-0.5,0.8c-0.7,1-0.2,2.7,0.9,3.2c1.2,0.7,2.5,0.2,3.2-0.9
			c1-1.4,1.5-3.1,1.6-4.9C479.6,161.3,478.4,160.1,477.2,160.1z" style="fill:#4A3B2A;"/>
		<path d="M457.3,160.8c-0.9-0.8-2.5-1-3.4,0c-1,1.2-2,2.5-3,3.7c-0.8,1-1,2.4,0,3.4c0.9,0.8,2.5,1,3.4,0
			c1-1.2,2-2.5,3-3.7C458.1,163.2,458.3,161.7,457.3,160.8z" style="fill:#4A3B2A;"/>
		<path d="M561,177.5c-2.6-5.7-10.6-6.2-14-1.1c-1.7,2.5,2.4,4.9,4.1,2.4c1.5-2.3,5-1.2,5.8,1.1c1,3-1,6.6-4.3,6.5
			c-3.1-0.1-3.1,4.7,0,4.7C559.5,191.4,563.8,183.5,561,177.5z" style="fill:#4A3B2A;"/>
		<path d="M553.9,306.5c-31.3-3.9-62.6-7.8-93.9-11.7c-0.7-1.8-4-1.9-4.5,0.4c-8.3,38.4-13.9,77.3-17,116.4
			c-3,16.2-6.3,32.4-9.8,48.5c-0.4,1.7,0.7,2.8,2.3,3c10,1.3,19.8,4,29.1,7.8c0.9,0.4,2.3-0.2,2.7-1.1c16.4-34.4,30.3-70,41.6-106.5
			c4,34.3,7.1,68.7,9.3,103.1c0.1,1.3,1,2.4,2.4,2.4c7.1-0.2,13.9-2,20.4-4.9c5.4-2.3,13.5-5,17.2-9.8c3.7-4.9,1.9-11.5,1-17
			c-1.3-8.5-2.3-17.1-3.1-25.6c-2.9-34.1-1.4-68.4,4.6-102.1C556.5,307.8,555.5,306.7,553.9,306.5z" style="fill:#4A3B2A;"/>
		<path d="M566.2,216.1c-1.6-3.3-5.9-2.9-9-3.1c-20.5-1.3-41.1-2-61.6-2.1c-2.5,0-5,0-7.5,0c-2.2,0-5.4-0.5-7.5,0.1
			c-2.6,0.8-3.5,3.6-4.3,6c-2.5,7.6-1.5,16.3-10,20.3c-8.7,4.1-19.7,2-28.7,0.2c-11.3-2.1-22.2-5.6-32.7-10.2
			c-1.1-0.5-2.7-0.4-3.2,0.9c-6.6,15.4-13.2,30.8-19.8,46.2c-0.4,0.8-0.2,1.6,0.1,2.3c-1,1-1.2,2.8,0.5,3.5
			c22.1,9.9,45.9,15.1,70,15.2c-1,4.8-1.4,9.7-1,14.7c0.1,1.4,1,2.2,2.4,2.4c17.9,1.7,35.8,3.4,53.7,5c8.7,0.8,17.4,1.7,26.1,2.4
			c7.9,0.7,15.7,0.9,23.4-1.5c0.7-0.2,1.5-0.8,1.7-1.7c3.6-19.8,6.1-39.8,7.3-59.8c0.6-10.1,0.9-20.2,0.9-30.3
			C566.8,223.5,567.6,219,566.2,216.1z" style="fill:#ED7354;"/>
		<path d="M419.3,233.6c0-0.1-0.1-0.2-0.1-0.3c-0.4-1.1-1.6-2.2-2.9-1.7c-2.8,1.2-3.4,4.9-4.6,7.5l-6.3,14.4
			c-4.2,9.6-8.4,19.2-12.6,28.8c-1.2,2.8,2.9,5.2,4.1,2.4c3.7-8.5,7.4-16.9,11.1-25.4l5.2-11.8c1-2.3,2-4.5,3-6.8
			c0.5-1.1,1-2.3,1.5-3.4c0.3-0.5,0.5-0.8,0.6-1.1C419.1,235.8,419.6,234.5,419.3,233.6z" style="fill:#FFFFFF;"/>
		<path d="M564.8,230c-30.2,0.7-60.4-1.7-90.2-7.3c-3-0.6-4.3,4-1.3,4.6c30.2,5.6,60.8,8.1,91.4,7.5
			C567.8,234.7,567.8,229.9,564.8,230z" style="fill:#FFFFFF;"/>
		<path d="M481.4,286c-10.7,4.6-22,7.7-33.5,9.2c-3,0.4-3,5.1,0,4.7c12.5-1.6,24.4-4.9,35.9-9.8
			C486.6,288.9,484.2,284.8,481.4,286z" style="fill:#FFFFFF;"/>
		<path d="M476.9,233.6c-5.9,1-11.9,1.4-17.9,1.2c-3.1-0.1-3.1,4.6,0,4.7c6.4,0.2,12.8-0.3,19.2-1.4
			C481.2,237.6,479.9,233.1,476.9,233.6z" style="fill:#FFFFFF;"/>
		<path d="M508.1,371.4c-1.7-11.2-3.4-22.3-5.1-33.5c-0.5-3-5-1.7-4.6,1.3c1.7,11.2,3.4,22.3,5.1,33.5
			C504,375.6,508.6,374.4,508.1,371.4z" style="fill:#FFFFFF;"/>
		<path d="M429.3,459.2c-2.3-2.1-5.6,1.3-3.4,3.4c1.5,1.4,2.6,3.2,2.8,5.3c0.1,1.3,1,2.4,2.4,2.4c1.2,0,2.5-1.1,2.4-2.4
			C433.2,464.5,431.8,461.5,429.3,459.2z" style="fill:#FFFFFF;"/>
		<path d="M425.6,469.6c-0.4-1.6-0.9-3.3-1.3-4.9c-0.8-3-5.4-1.7-4.6,1.3c0.4,1.6,0.9,3.3,1.3,4.9
			C421.8,473.8,426.4,472.6,425.6,469.6z" style="fill:#FFFFFF;"/>
		<path d="M520.8,468.3l-3.7-2.5c-1-0.7-2.7-0.2-3.2,0.9c-0.6,1.2-0.2,2.5,0.9,3.2c1.2,0.8,2.4,1.7,3.7,2.5
			c1,0.7,2.7,0.2,3.2-0.9C522.2,470.4,521.8,469.1,520.8,468.3z" style="fill:#FFFFFF;"/>
		<path d="M513.9,476.7c-1-0.8-2.1-1.6-3.1-2.5c-1-0.8-2.4-1-3.4,0c-0.8,0.9-1,2.5,0,3.4c1,0.8,2.1,1.6,3.1,2.5
			c1,0.8,2.4,1,3.4,0C514.7,479.2,514.9,477.5,513.9,476.7z" style="fill:#FFFFFF;"/>
		<path d="M533.9,114.5c-0.5-1.9-1-3.8-1.4-5.7c-0.7-3-5.3-1.7-4.6,1.3c0.5,1.9,1,3.8,1.4,5.7
			C530.1,118.7,534.7,117.5,533.9,114.5z" style="fill:#FFFFFF;"/>
		<path d="M553.5,124c-1.4-2.4-2.8-4.7-4.3-7.1c-1.6-2.6-5.7-0.2-4.1,2.4c1.4,2.4,2.8,4.7,4.3,7.1
			C551,129,555.1,126.6,553.5,124z" style="fill:#FFFFFF;"/>
		<path d="M566.7,138.7c-0.5-1.4-0.9-2.8-1.4-4.3c-0.4-1.2-1.6-2-2.9-1.7c-1.2,0.3-2.1,1.7-1.7,2.9
			c0.5,1.4,0.9,2.8,1.4,4.3c0.4,1.2,1.6,2,2.9,1.7C566.2,141.3,567.1,139.9,566.7,138.7z" style="fill:#FFFFFF;"/>
		<path d="M532.1,264.6V276c0,3.1,4.7,3.1,4.7,0v-11.4C536.9,261.6,532.1,261.6,532.1,264.6z" style="fill:#FFFFFF;"/>
		<path d="M545,283.2v11.4c0,3.1,4.7,3.1,4.7,0v-11.4C549.7,280.1,545,280.1,545,283.2z" style="fill:#FFFFFF;"/>
		<path d="M530.7,303.1v7.1c0,3.1,4.7,3.1,4.7,0v-7.1C535.5,300,530.7,300,530.7,303.1z" style="fill:#FFFFFF;"/>
	</g>
</g>
</svg>
