<?xml version="1.0" encoding="utf-8"?>
<!-- Generator: Adobe Illustrator 21.0.0, SVG Export Plug-In . SVG Version: 6.00 Build 0)  -->
<svg version="1.1" xmlns="http://www.w3.org/2000/svg" xmlns:xlink="http://www.w3.org/1999/xlink" x="0px" y="0px" viewBox="0 0 2157.3 2948.8" style="enable-background:new 0 0 2157.3 2948.8;" xml:space="preserve">

<g>
	<g>
		<g>
			<path d="M1424.2,917.9l0.8,0.3c13.4,4.3,20.7,18.7,16.4,32s-18.7,20.7-32,16.4l-0.8-0.3c-13.4-4.3-20.7-18.7-16.4-32
				C1396.5,921,1410.8,913.6,1424.2,917.9z" style="fill:#F1592B;"/>
		</g>
		<g>
			<path d="M1520.2,949l0.8,0.3c13.4,4.3,20.7,18.7,16.4,32c-4.3,13.4-18.7,20.7-32,16.4l-0.8-0.3
				c-13.4-4.3-20.7-18.7-16.4-32C1492.5,952,1506.8,944.6,1520.2,949z" style="fill:#F1592B;"/>
		</g>
		<g>
			<path d="M1616.2,980l0.8,0.3c13.4,4.3,20.7,18.7,16.4,32c-4.3,13.4-18.7,20.7-32,16.4l-0.8-0.3
				c-13.4-4.3-20.7-18.7-16.4-32S1602.8,975.7,1616.2,980z" style="fill:#F1592B;"/>
		</g>
		<g>
			<path d="M1454.2,825.2l0.8,0.3c13.4,4.3,20.7,18.7,16.4,32c-4.3,13.4-18.7,20.7-32,16.4l-0.8-0.3
				c-13.4-4.3-20.7-18.7-16.4-32C1426.5,828.2,1440.8,820.9,1454.2,825.2z" style="fill:#F1592B;"/>
		</g>
		<g>
			<path d="M1550.2,856.2l0.8,0.3c13.4,4.3,20.7,18.7,16.4,32c-4.3,13.4-18.7,20.7-32,16.4l-0.8-0.3
				c-13.4-4.3-20.7-18.7-16.4-32C1522.5,859.2,1536.8,851.9,1550.2,856.2z" style="fill:#F1592B;"/>
		</g>
		<g>
			<path d="M1646.2,887.2l0.8,0.3c13.4,4.3,20.7,18.7,16.4,32c-4.3,13.4-18.7,20.7-32,16.4l-0.8-0.3
				c-13.4-4.3-20.7-18.7-16.4-32S1632.8,882.9,1646.2,887.2z" style="fill:#F1592B;"/>
		</g>
		<g>
			<path d="M1484.2,732.4l0.8,0.3c13.4,4.3,20.7,18.7,16.4,32c-4.3,13.4-18.7,20.7-32,16.4l-0.8-0.3
				c-13.4-4.3-20.7-18.7-16.4-32C1456.5,735.4,1470.8,728.1,1484.2,732.4z" style="fill:#F1592B;"/>
		</g>
		<g>
			<path d="M1580.2,763.4l0.8,0.3c13.4,4.3,20.7,18.7,16.4,32c-4.3,13.4-18.7,20.7-32,16.4l-0.8-0.3
				c-13.4-4.3-20.7-18.7-16.4-32S1566.8,759.1,1580.2,763.4z" style="fill:#F1592B;"/>
		</g>
		<g>
			<path d="M1676.1,794.4l0.8,0.3c13.4,4.3,20.7,18.7,16.4,32c-4.3,13.4-18.7,20.7-32,16.4l-0.8-0.3
				c-13.4-4.3-20.7-18.7-16.4-32C1648.4,797.5,1662.8,790.1,1676.1,794.4z" style="fill:#F1592B;"/>
		</g>
		<g>
			<path d="M1364.3,1103.5l0.8,0.3c13.4,4.3,20.7,18.7,16.4,32c-4.3,13.4-18.7,20.7-32,16.4l-0.8-0.3
				c-13.4-4.3-20.7-18.7-16.4-32S1350.9,1099.2,1364.3,1103.5z" style="fill:#F1592B;"/>
		</g>
		<g>
			<path d="M1460.3,1134.5l0.8,0.3c13.4,4.3,20.7,18.7,16.4,32c-4.3,13.4-18.7,20.7-32,16.4l-0.8-0.3
				c-13.4-4.3-20.7-18.7-16.4-32C1432.6,1137.5,1446.9,1130.2,1460.3,1134.5z" style="fill:#F1592B;"/>
		</g>
		<g>
			<path d="M1556.3,1165.5l0.8,0.3c13.4,4.3,20.7,18.7,16.4,32s-18.7,20.7-32,16.4l-0.8-0.3
				c-13.4-4.3-20.7-18.7-16.4-32C1528.5,1168.5,1542.9,1161.2,1556.3,1165.5z" style="fill:#F1592B;"/>
		</g>
		<g>
			<path d="M1394.2,1010.7l0.8,0.3c13.4,4.3,20.7,18.7,16.4,32c-4.3,13.4-18.7,20.7-32,16.4l-0.8-0.3
				c-13.4-4.3-20.7-18.7-16.4-32C1366.5,1013.7,1380.9,1006.4,1394.2,1010.7z" style="fill:#F1592B;"/>
		</g>
		<g>
			<path d="M1490.2,1041.7l0.8,0.3c13.4,4.3,20.7,18.7,16.4,32s-18.7,20.7-32,16.4l-0.8-0.3
				c-13.4-4.3-20.7-18.7-16.4-32C1462.5,1044.7,1476.9,1037.4,1490.2,1041.7z" style="fill:#F1592B;"/>
		</g>
		<g>
			<path d="M1586.2,1072.7l0.8,0.3c13.4,4.3,20.7,18.7,16.4,32c-4.3,13.4-18.7,20.7-32,16.4l-0.8-0.3
				c-13.4-4.3-20.7-18.7-16.4-32C1558.5,1075.8,1572.9,1068.4,1586.2,1072.7z" style="fill:#F1592B;"/>
		</g>
		<g>
			<path d="M1304.3,1289l0.8,0.3c13.4,4.3,20.7,18.7,16.4,32s-18.7,20.7-32,16.4l-0.8-0.3c-13.4-4.3-20.7-18.7-16.4-32
				C1276.6,1292,1290.9,1284.7,1304.3,1289z" style="fill:#F1592B;"/>
		</g>
		<g>
			<path d="M1400.3,1320l0.8,0.3c13.4,4.3,20.7,18.7,16.4,32c-4.3,13.4-18.7,20.7-32,16.4l-0.8-0.3
				c-13.4-4.3-20.7-18.7-16.4-32C1372.6,1323,1386.9,1315.7,1400.3,1320z" style="fill:#F1592B;"/>
		</g>
		<g>
			<path d="M1496.3,1351.1l0.8,0.3c13.4,4.3,20.7,18.7,16.4,32c-4.3,13.4-18.7,20.7-32,16.4l-0.8-0.3
				c-13.4-4.3-20.7-18.7-16.4-32S1482.9,1346.7,1496.3,1351.1z" style="fill:#F1592B;"/>
		</g>
		<g>
			<path d="M1334.3,1196.3l0.8,0.3c13.4,4.3,20.7,18.7,16.4,32c-4.3,13.4-18.7,20.7-32,16.4l-0.8-0.3
				c-13.4-4.3-20.7-18.7-16.4-32C1306.6,1199.3,1320.9,1191.9,1334.3,1196.3z" style="fill:#F1592B;"/>
		</g>
		<g>
			<path d="M1430.3,1227.3l0.8,0.3c13.4,4.3,20.7,18.7,16.4,32c-4.3,13.4-18.7,20.7-32,16.4l-0.8-0.3
				c-13.4-4.3-20.7-18.7-16.4-32S1416.9,1222.9,1430.3,1227.3z" style="fill:#F1592B;"/>
		</g>
		<g>
			<path d="M1526.3,1258.3l0.8,0.3c13.4,4.3,20.7,18.7,16.4,32c-4.3,13.4-18.7,20.7-32,16.4l-0.8-0.3
				c-13.4-4.3-20.7-18.7-16.4-32C1498.6,1261.3,1512.9,1254,1526.3,1258.3z" style="fill:#F1592B;"/>
		</g>
	</g>
</g>
<polygon points="758.9,2296.2 795.8,2285.5 665.4,1940.3 1081.1,1609.9 1040.1,1541.9 566.7,1907.1 " style="fill:#0185D0;"/>
<polygon points="1360.3,2296.2 1323.4,2285.5 1453.9,1940.3 1038.1,1609.9 1079.1,1541.9 1552.6,1907.1 " style="fill:#0185D0;"/>
<path d="M1152.4,1502.4h-188v-169.8c0-39.8-32.4-72.2-72.2-72.2H783c-35.1,0-69.2-6.9-101.3-20.5
	c-31-13.1-58.8-31.9-82.7-55.7c-23.9-23.9-42.6-51.7-55.7-82.7c-13.6-32.1-20.5-66.2-20.5-101.3V999c0-35.1,6.9-69.2,20.5-101.3
	c13.1-31,31.9-58.8,55.7-82.7c23.9-23.9,51.7-42.6,82.7-55.7c32.1-13.6,66.2-20.5,101.3-20.5h555.1c19.3,0,37.5-7.5,51.2-21.3
	s21.1-31.9,21.1-51.3c-0.1-39.7-32.6-72-72.2-72H580.3v-188h757.7c69.3,0,134.6,27,183.7,75.9c49.1,48.9,76.3,114.1,76.5,183.4
	c0.1,35.2-6.7,69.4-20.2,101.6c-13.1,31.1-31.8,59-55.7,83c-23.9,24-51.7,42.8-82.8,56c-32.2,13.7-66.4,20.6-101.5,20.6H783
	c-39.8,0-72.2,32.4-72.2,72.2v1.2c0,39.8,32.4,72.2,72.2,72.2h109.3c35.1,0,69.2,6.9,101.3,20.5c31,13.1,58.8,31.9,82.7,55.7
	c23.9,23.9,42.6,51.7,55.7,82.7c13.6,32.1,20.5,66.2,20.5,101.3V1502.4z" style="fill:#FFDA54;"/>
<circle cx="1058.6" cy="1575.9" r="199.7" style="fill-rule:evenodd;clip-rule:evenodd;fill:#B3D8DD;"/>
<circle cx="1058.6" cy="2280.3" r="269.9" style="fill-rule:evenodd;clip-rule:evenodd;fill:#F1592B;"/>
<circle cx="1058.6" cy="1575.9" r="83.9" style="fill-rule:evenodd;clip-rule:evenodd;fill:#0185D0;"/>
<circle cx="1481.4" cy="1923.7" r="94" style="fill-rule:evenodd;clip-rule:evenodd;fill:#B3D8DD;"/>
<path d="M1107.9,2264.9c-13.5-7.5-27.9-13.2-42.2-19.1c-8.3-3.4-16.2-7.4-23.1-13c-13.7-11-11.1-28.8,5-35.8
	c4.6-2,9.3-2.6,14.2-2.9c18.7-1,36.4,2.4,53.3,10.5c8.4,4.1,11.2,2.8,14-6c3-9.3,5.5-18.7,8.3-28c1.8-6.3-0.4-10.4-6.3-13
	c-10.8-4.8-21.9-8.2-33.6-10c-15.2-2.4-15.2-2.4-15.3-17.7c-0.1-21.6-0.1-21.6-21.7-21.6c-3.1,0-6.3-0.1-9.4,0
	c-10.1,0.3-11.8,2.1-12.1,12.2c-0.1,4.6,0,9.1-0.1,13.7c-0.1,13.5-0.1,13.3-13.1,18c-31.3,11.4-50.7,32.7-52.8,66.9
	c-1.8,30.3,14,50.7,38.8,65.6c15.3,9.2,32.3,14.6,48.5,21.8c6.3,2.8,12.4,6,17.7,10.4c15.6,12.9,12.7,34.3-5.8,42.4
	c-9.9,4.3-20.4,5.4-31.1,4.1c-16.6-2.1-32.5-6.4-47.4-14.2c-8.8-4.6-11.3-3.3-14.3,6.1c-2.6,8.2-4.8,16.4-7.1,24.7
	c-3.1,11.1-1.9,13.7,8.7,18.9c13.5,6.5,28,9.9,42.7,12.2c11.5,1.9,11.9,2.4,12,14.3c0.1,5.4,0.1,10.9,0.1,16.3
	c0.1,6.8,3.3,10.8,10.4,11c8,0.1,16,0.1,24-0.1c6.6-0.1,9.9-3.7,9.9-10.3c0-7.4,0.4-14.9,0.1-22.3c-0.4-7.5,2.9-11.4,10.2-13.4
	c16.7-4.6,31-13.5,41.9-26.9C1162.7,2342.9,1151.1,2288.8,1107.9,2264.9L1107.9,2264.9z M1107.9,2264.9" style="fill:#FFDA54;"/>
<circle cx="637.9" cy="1922.9" r="94" style="fill-rule:evenodd;clip-rule:evenodd;fill:#B3D8DD;"/>
<g>
	<path d="M1273.3,584.3c-1-3.3-2-6.4-3-9.4c-0.4-1.1-0.7-2.4-1.5-3.1c-1.4-1.3-4.4-2-4.6-3.3c-0.7-3.8-0.8-7.9-0.2-11.8
		c0.7-5.1,2.1-10.1,3.5-15.1c1.3-4.6,0.7-9.3,1.7-13.9c1-4.7,3-9.3,3.9-14c0.8-4.2,0.6-8.6,1.3-12.9c0.2-1.4,1.7-2.6,2.9-4.3
		c-2.2-2.8-3-5.7,0.2-9.8c1.9-2.4,0.6-7.2,1.4-10.8c0.6-2.7,2.3-5.3,3.6-8c-0.3-1.4-0.7-3.7-1.1-6c0.3,0,0.6,0.1,0.8,0.1
		c0.3-3.1,0.6-6.1,0.8-9.2c0-0.3-0.3-0.6-0.2-0.9c1.3-4.6,2.7-9.3,4-13.9c0.2-0.7,0-1.5,0.1-2.2c0.2-1.8-0.1-4.3,0.9-5.4
		c5-5.6,1.9-11.6,1.5-17.5c-0.1-1.1,1.5-2.3,2.6-3.9c0-1.1,0-2.9,0-5.5c2.5,2.4,4.6,5.2,7.4,1.5c0,2,0,3.9,0,6.2
		c1.2-0.5,2.1-0.8,3.7-1.3c-0.3,3-0.6,5.6-0.9,8.4c0.2,0.1,1.1,0.3,2.9,0.9c-3.7,1.6-3.7,3.6-2.9,6.6c0.5,1.7-1,4.1-1.9,6
		c-0.1,0.3-2-0.3-3.1-0.5c-0.4,1.2-0.8,2.6-1.2,3.9c1.6,0.5,4,0.6,4.9,1.8c0.7,1-0.5,3.3-0.7,5c-0.7,5.2-1.1,10.5-2.1,15.6
		c-0.5,2.7-2,5.2-3,7.9c-0.2,0.4-0.4,0.8-0.4,1.3c-0.1,4.8-0.1,9.6-0.3,14.5c-0.1,1.7,1.8,4-1.3,5c-0.3,0.1-0.7,1.2-0.5,1.6
		c2.9,6.7-2.3,12.6-1.7,19.2c0.2,2.2-1.9,4.4-2.4,6.8c-0.3,1.7,0.6,3.7,0.4,5.5c-0.3,3-1.2,5.9-1.7,8.9c-0.3,1.8-0.3,3.6-0.2,5.5
		c0.1,1.8,0.9,3.6,0.6,5.3c-0.7,3.7-3.3,7.7-2.5,11c1.3,5.7-2.3,10.3-1.8,15.6c0.2,2.3-1.1,4.7-1.5,7.1c-0.2,1.3,0.3,2.7,0.3,4
		C1281.6,581.3,1278,582.7,1273.3,584.3z"/>
	<path d="M1302.4,747.5c4.3,2.9,4.2,7.5,3.5,11.6c-0.6,3.9,0.9,6.5,3.3,9.7c-1.2,0.6-2.3,1.2-2.8,1.5c1.2,2.8,2.4,5.6,3.5,8.4
		c1.5,3.9,3.3,7.8,4.4,11.9c1.3,4.8,1.8,9.8,2.7,14.7c0.5,2.5,1.3,5,1.8,7.5c1.1,4.9,2,9.9,3.2,14.8c0.3,1.3,0.7,3,1.6,3.7
		c2.2,1.5,1.9,2.3,0.8,4.7c-0.8,1.6,1.4,4.6,2.2,7c0.6,1.8,1.4,3.6,1.8,5.4c1.9,8.9,3.3,17.9,5.5,26.7c1.1,4.6,3.6,8.9,4.9,13.5
		c0.7,2.5,0.1,5.3,0.1,8.5c2.1,1.2,2.3,3,2,6.2c-0.3,3.6,2.4,7.6,4.4,11.1c1.8,3.2,0.2,3.5-2,3.7c0.6,4.5,1.2,9.1,1.9,14.5
		c-3.2,0.3-7.3,0.7-11,1c-0.7-4-1.5-8-2-11.9c-0.2-1.4,0.1-2.9,0.3-4.4c0.1-0.9,0.8-2.1,0.5-2.7c-3.3-5.7,0.1-12.9-4.1-18.5
		c-1.1-1.4-1-3.8-1.5-5.9c0.6-0.1,1.4-0.4,2-0.5c-1.4-3-2.8-5.9-4.2-8.8c-0.3-0.5-0.7-1.3-0.5-1.7c1.4-3.2-0.2-5-2-7.7
		c-1.7-2.6-1.7-6.5-2.1-9.9c-0.3-2.9-0.7-5.4-4.2-6c-0.7-0.1-1.5-1.1-1.7-1.9c-1.9-5-3.9-10-5.3-15.1c-0.7-2.6,0.1-5.5,0.1-8.3
		c0-0.5-0.1-1-0.3-1.5c-1.5-5.7-2.7-11.5-4.6-17c-1.5-4.4-0.1-9.4-3.2-13.6c-1.4-1.9-0.9-5.2-1.5-7.8c-0.3-1.3-1.2-2.4-1.9-3.9
		c1.4,0,2.8,0,4,0c-2.1-4.1-4.1-8.1-6.6-13c2.1,0.7,3.2,1.1,4.7,1.6c0.1-0.9,0.4-1.8,0.1-2c-3.4-3-4.9-6.3-4.7-11.2
		c0.2-3.8-1.9-7.6-2.9-11.5c-0.3-1,0-2.1,0-3.5c1.8,0,3.5,0,4.5,0c-0.2-2.6-0.3-4.7-0.4-6.8c0.6-0.2,1.2-0.5,1.8-0.7
		c1.3,2.7,2.7,5.5,4,8.2c-0.9,0.1-1.7,0.3-2.7,0.4c0.5,3.1,1,6.1,1.5,9.1c0.7-0.1,1.4-0.2,2.1-0.3
		C1303.1,753.7,1302.7,750.6,1302.4,747.5z"/>
	<path d="M1402.7,745.7c-1.6-2.4-3.2-4.8-5-7.1c-0.9-1.1-2.3-1.8-3.2-2.9c-0.7-0.8-1.1-2-2.1-4c-5.7-1.4-2.3-7.2-2.9-11.2
		c-1.7-0.7-3.2-1.3-4.7-1.9c0.9-2.1,1.8-4.2,2.5-5.6c1.4,2.3,2.5,3.8,3.5,5.4c0.4-0.2,0.8-0.5,1.2-0.7c-0.2-0.9-0.5-1.8-0.9-3.6
		c2,1.4,3.6,2.1,4.5,3.4c0.7,1.1,0.6,2.8,0.7,3.6c1.8,2.6,3.5,5,5.2,7.3c0.5,0.6,1.2,1,1.9,1.5c0.9,0.6,2.3,0.9,2.6,1.7
		c2.6,6.4,8.6,9.9,12.6,15c1.8,2.2,2.8,5.1,4.7,7.1c2.7,2.9,5.9,5.3,8.9,7.9c0.1,0.1,0.3,0.2,0.3,0.3c2,6.9,9.7,8.6,12.8,13.9
		c3.2,5.5,9.1,7.6,12.1,12.5c3.6,5.8,9.2,8.5,14,12.5c1.7,1.4,2.3,4.3,3.6,7c0,0,1-0.4,1.8-0.7c2,2.3,5.1,4.4,5.3,6.7
		c0.3,3.6,3.2,5.3,4.7,7.6c1.2,1.9,3.8,2.8,3.2,5.9c-0.1,0.3,1.4,1.4,1.7,1.2c4.6-2.5,3.5,1.5,4.3,3.6c0.4,1.2,1.3,2.2,2.2,3.1
		c1.2,1.3,2.7,2.3,4.3,3.8c0.4-0.1,1.6-0.4,1.8-0.5c2.3,3.1,4.3,5.6,6,8.3c1,1.6,1.8,3.4,2.2,5.2c0.6,3,0.8,6.1,1.2,10.2
		c-0.3,0.4-1.2,1.7-2.1,2.9c-3.6-4.1-6.9-8.2-10.4-12c-0.9-1-2.5-2.4-3.2-2.1c-3.4,1.4-3.2-1.7-4.4-3.1c-1.3-1.5-2.5-3-3.9-4.3
		c-2.5-2.5-5.1-4.8-7.6-7.2c0.3-0.4,0.5-0.8,0.8-1.2c-1.1,0.1-2.3,0.3-3.6,0.4c0.1-0.5,0.1-0.9,0.2-1.3c0.2-0.9,1-2.2,0.6-2.7
		c-1.5-2.2-3.2-4.1-4.9-6.1c-2.6-3.1-5.5-5.9-7.7-9.2c-2.4-3.6-7.3-5.2-8.1-10.1c-0.1-0.3-1.7-0.3-2.6-0.4
		c-0.4-2.8-9.6-10.7-14.1-12c1.1-0.6,1.8-1.1,2.2-1.3c-2.1-2.4-4.1-5-6.4-7.2c-5.8-5.4-12-10.5-17.8-15.9c-1.4-1.3-2.1-3.4-3-5.1
		c-0.3-0.6-0.3-1.6-0.8-1.9c-5.5-3.2-6.8-10.6-13-13.2c-0.5-0.2-0.1-2.4-0.1-3.7C1403.4,745.5,1403,745.6,1402.7,745.7z"/>
	<path d="M1166.8,558.3c1.1,0,1.9,0,2.9,0c-4.5,6-4.6,7.2-2.5,8.9c-0.2,6.2-0.4,11.6-0.4,17c0,3.3,2.7,6.9-2,9.3
		c-0.9,0.4-1,2.5-1.3,3.8c-0.9,3.5-1.8,7-2.9,11c-1.1-0.9-1.9-1.2-1.9-1.6c-0.7-6.4-1.2-12.8-1.9-19.2c-0.2-2-1-4-1.4-6
		c-1.1-6.4-0.2-12.7,0.8-19.1c0.4-2.4,0.3-5,0-7.5c-0.2-1.3-1.3-2.5-2.1-4.1c1.2-4,2.7-8.6,0.8-13.7c-0.4-1.1,1.3-3.1,2.3-5
		c-0.8-0.6-1.9-1.6-3-2.5c3.8-7.7,3.7-11.5,0.7-14.9c0.4-5.7,1.4-10.4,0.8-14.9c-0.7-5.5-1.3-10.8,0.7-16.1c0.3-0.9-0.8-2.2-0.9-3.4
		c-0.6-3.7-0.5-7.4-2.2-10.9c-0.1-0.2,0.6-0.7,0.6-1.1c0.5-2.3,2.2-4.7-0.6-6.9c-0.4-0.4-0.6-1.5-0.4-2.1c2-6.6,0.1-13.1-0.6-19.6
		c-0.1-0.9,1.4-1.9,1.6-2.2c-0.6-2.8-1.2-5.2-1.7-7.6c-0.2-1,0-2.1-0.4-3c-1.7-3.7-0.1-5.5,4.1-6.2c-1.4-0.8-2.3-1.3-3.5-2
		c0.8-1,1.6-2,2.6-3.3c-1.6-1.1-3-2.1-4.5-3.1c3.5-0.4,6.7-0.8,10-1.1c-0.3,1.7-0.8,3-0.6,4.1c0.4,2.5,0.9,5.1,2,7.4
		c2.9,6,1.5,12.3,1.6,18.5c0.1,4.2,1.5,8.4,2,12.6c0.4,3.2,0,6.5,0.4,9.7c0.7,6.3,2.6,12.6,2.4,18.9c-0.2,4.4-1,8.5,1.6,12.3
		c-4.3,1.1-4.3,1.1,1.2,7.6c-2.4,0.8-4.4,1.4-6.9,2.2c0,0.4-0.1,2-0.2,3.5c0.8,0.1,1.5,0.1,2.6,0.2c-0.8,1.7-1.4,3.1-2.3,5.1
		c1.5-0.2,2.6-0.3,3.8-0.4c-0.9,2-1.6,3.6-2.4,5.2c1,0.1,2,0.3,3.8,0.5c-1.3,1.2-2.3,2.1-3.4,3.1c0.5,1.5,1.1,3.1,1.7,4.9
		c-0.6-0.3-1-0.5-2.1-1c0,2.6-0.2,5,0,7.4c0.4,3.6,1,7.3,1.5,10.9c0.3,1.9,1.2,3.9,1.1,5.8C1168.4,552.5,1167.5,555.3,1166.8,558.3z
		"/>
	<path d="M876.4,732.6c-3.1,5.6,3.4,8,3.9,12.2c0.1,0.7,0.6,1.4,0.7,2.1c0.1,1.6,0.1,3.3,0.1,4.9c-1.4,0-2.9,0-5.8,0
		c1.5,1.5,2.3,2.9,3.4,3.3c2.6,0.8,3,2.5,4.2,4.8c3,5.9-1.7,11.3,0.3,16.8c0.6,1.7,0.7,3.6,1,5.4c0.7,4.7,3.9,9.4,0.4,14.3
		c-0.3,0.5,0.1,1.8,0.5,2.6c1.9,4,1.5,7.8-1,11.4c-0.3,0.5-0.5,1.2-0.4,1.8c0.7,3.7,1.5,7.3,2,11c0.2,1.4-0.3,2.9-0.5,4.3
		c-0.4,2.1-3.1,4.4,0.8,5.9c0.1,0.1-0.1,1.1-0.2,1.7c-0.5,1.7-1.8,3.8-1.3,5c2.8,6.5,1,13.6,2.1,21.2c-0.4,0.8-5.3,1.8,0,4.7
		c2.2,1.2-0.7,9.1-2.4,10.3c2.8,18.2,2.8,35.8,2.4,53.3c-5.8,0.6-6.6-1.3-8.7-6.7c-2.3-6-0.8-12.1-2-18c-0.6-2.7-1.4-5.6-0.9-8.2
		c2-9.4,0.6-18.6-0.3-27.8c-0.6-6.1-1.6-12.2-1.9-18.4c-0.2-4.5,0.5-9.1,0.4-13.7c0-3.3-0.7-6.5-1-9.8c-0.2-2.5-0.1-5,0-7.5
		c0.1-3,2.1-6.2-0.7-9.1c-0.5-0.5,0.3-2.4,0.5-3.6c0.2-1.1,0.8-2.2,0.6-3.1c-2.6-9.5-1.7-19.2-0.8-28.7c0.7-7.7-0.9-15.5,0.8-23.2
		c0.5-2.2-0.4-4.8-0.6-7.2c0-0.1-0.3-0.3-0.3-0.3C873.2,740.4,874.8,736.5,876.4,732.6z"/>
	<path d="M1179.4,829.8c-0.5,4.9,4.7,8.5,1.5,13.9c-0.7,1.1-0.1,2.9-0.3,4.3c-0.5,3.2-1.1,6.4-1.7,10c5.3,2.1,1.7,7,2.3,10.9
		c0.5,3.2,1,6.3,1.4,9c-0.5,1.7-1.7,4.4-1.3,4.7c3.5,2.6,0.1,4-0.8,5.8c1.4,1.5,4.5,2.5,0.2,4.8c-1.4,0.8-2.5,5.8-1.5,6.8
		c2.4,2.5,0.2,3.9-0.2,5.7c-0.5,2.1-1,4.2-1.7,6.8c1.4-0.4,2.4-0.6,4.8-1.2c-2.3,1.7-3.4,2.6-5.2,3.9c1.6,0.9,2.9,1.5,4.2,2.3
		c-0.3,2-0.3,4.3-0.9,6.3c-0.7,2.1-2.1,4-3.1,6c-0.7,1.4-1.3,2.9-2.2,4.9c-4.3,0.3-8.3-4-6.4-10.4c1.7-5.7-0.7-10.8,0.3-16.2
		c0.8-4,0.8-8.2,0.7-12.3c-0.1-3.8-0.8-7.5-1.3-11.2c-0.1-0.8-0.4-1.7-0.2-2.5c1.2-6.2-1-11.9-1.7-17.9c-0.2-2.1,2-4.5,3.3-7
		c-0.6-0.8-1.5-1.9-2.4-3c0.4-0.4,0.9-0.8,1.1-1.3c0.8-1.7,1.8-2.7,0.5-5.4c-1.7-3.6-2.1-8.3,1.5-12.2c0.7-0.8-1-3.8-2.1-5.7
		c1.5-7.4,1.8-19.8-0.1-23.1c3-1.2,4.1-2.9,2.5-6.3c-0.7-1.5,0.1-3.7,0-5.6c0-1.4-0.3-2.8-0.5-4.3c0-0.1-0.2-0.3-0.2-0.4
		c-0.6-2.6,1.9-5-0.3-8c-1.1-1.5,0.3-4.8,0.8-7.3c0.7-4.1,1.5-8.1,2.7-12.1c-1.1-1.4-3.2-2.4-1.1-5.7c0.8-1.3-1.4-4.4-1.2-6.5
		c0.2-2.6,1.6-5,2.6-7.8c6.5,3,2,6.8,3.6,10.5c1-1.8,2-3.6,3.1-5.6c0.1,1.4,0.1,2.7,0.2,4.1c1.2,0.3,2.5,0.6,4.3,1.1
		c-0.5,1.9-1,3.5-1.6,5.5c0.3,0.2,1.2,0.7,2.1,1.2c-1.3,1.8-2.6,3.7-3.9,5.5c0.8,1.9,1.7,3.9,2.5,6c-0.4,0-0.8,0-1.2,0
		c-0.5,3.3-0.8,6.6-1.4,9.9c-0.8,5-2,9.9-2.6,14.9c-0.2,1.6,1.1,3.4,1.1,5.2c0,1.5-0.8,3.1-1.2,4.4c0.3,4.6,0.6,9.2,0.9,13.8
		c0.1,1.5,0.6,3.1,0.5,4.6C1180,825.6,1179.6,827.7,1179.4,829.8z"/>
	<path d="M1545.7,609.9c0,0.2,0.1-0.8,0.2-2.1c2.2,1.3,4.1,2.3,5,2.8c7.2-3.7,14.1-4.5,21.5-5.2c6.8-0.6,13.4-2.7,21-1
		c-2,0.9-3.6,2.1-5.3,2.4c-5.8,1-7.3,7.4-12,9.4c-2.9,1.2-6.2,2.1-9.3,2.3c-8.6,0.6-17.2,1.5-25.4,4.4c-1.5,0.5-3.4,0-5,0.4
		c-3,0.7-6.5-0.9-9,2.8c-0.9,1.3-4.1,0.9-6.3,1.5c-1.8,0.6-4.1,0.6-5.4,1.7c-5.2,4.3-12.3,0.4-17.5,4.8c-2,1.7-5.5,1.6-8.4,2
		c-4.6,0.7-9,1.9-13.3,3.8c-1.5,0.7-3.8-0.4-6.2-0.7c-0.1,0.9-0.3,2.1-0.5,4c-1.7-0.8-2.9-1.4-3.9-1.9c-3.4,1.7-7.3,5.3-9.6,4.4
		c-4.8-1.8-7,2.2-10.6,2.8c-6.4,0.9-12.5,3.5-18.9,5.4c0-0.2,0.2-1.3,0.3-2.3c-0.2-0.1-0.5-0.2-0.7-0.3c-0.7,1.1-1.4,2.1-2.1,3.2
		c-4.3-3.2-5.5,1.8-8.5,3.1c-0.4-0.8-0.8-1.7-1.1-2.5c-1.6,0.7-3.2,1.4-5.4,2.4c-0.3-2.8-0.5-5-0.6-6.6c3.5-1.5,6.6-2.8,9.7-4
		c3.1-1.2,6.3-2.1,9.5-3.1c0.3-0.1,0.7-0.1,0.8-0.3c3.4-4.8,9.3-2,13.5-4.5c0.9-0.5,2.5,0.1,2.5,0.1c4.7-2.6,8.5-4.7,12.4-6.7
		c2.6-1.3,5.3-2.6,8-3.6c0.9-0.3,2.2-0.1,3.1,0.4c1,0.5,1.8,1.4,2.7,2.2c4.2-7.1,10.9-8.9,13.2-5c3-1.8,5.8-3.8,8.9-5.2
		c3.4-1.4,7-2.2,10.6-3.3c1.8-0.5,4.6,0.9,4.9-2.5c0-0.2,0.8-0.4,1.3-0.4c4.8,0,9.7,0.2,14.5-0.1c2-0.1,3.9-1.5,5.9-2
		C1535.1,611.9,1540.2,611,1545.7,609.9z"/>
	<path d="M642.9,1122.2c-5.9,0.9-13.1,7.6-13.6,13.3c-4.6-4.1-5.1,1.9-6.7,3.2c-5.2,4.4-9.3,10.2-14.2,15c-2.6,2.5-6.2,4-9.3,6.1
		c-1.9,1.3-3.5,3-5.3,4.4c-1,0.8-2.3,1.2-3.4,2c-1.2,0.9-2.4,2-3.4,3.1c-1.7,1.9-2.8,4.5-4.8,5.5c-1.4,0.7-5.4-0.2-5.7-1.1
		c-0.6-2.3-0.4-5.3,0.6-7.5c1.1-2.5,3.5-4.4,5.5-6.8c0.7,0.5,1.6,1.3,3.1,2.4c-2.3-7.8,4.4-8.1,7.9-10.3c2.8-1.8,4.7-3.4,6.1-6.6
		c1.2-2.7,4.7-4.3,6.9-6.7c1.1-1.1,1.6-2.8,2.2-3.9c1.2-0.3,3-0.2,3.9-1.1c5.5-5.2,10.7-10.8,16.2-16c2.3-2.2,4.8-4,6.3-5.2
		c1.6-0.3,2.6-0.2,3.3-0.7c1.8-1.4,3.4-3,5.1-4.6c0.1-0.1,0.3-0.2,0.3-0.3c1.6-7.6,9.4-5.6,13.6-9.2c1.2-1.1,1.9-2.7,3.2-3.6
		c2.5-1.7,5.4-2.9,7.9-4.7c0.8-0.6,1-2.2,1.5-3.6c3.5,1.5,5.9,0.2,7.9-3.1c2.3-3.9,6.6-4.7,10.5-6.1c1.6-0.6,2.9-2,4.3-3
		c-0.2-0.5-0.4-0.9-0.5-1.4c2.2,0.4,4.3,0.8,6.5,1.1c-0.3-0.4-0.6-0.7-0.9-1.1c2.9-3.4,5.9-6.9,8.8-10.3c0.3,0.2,0.6,0.5,1,0.7
		c-1.1,1.7-2.2,3.3-3.2,4.9c3.3,1.5,3.7,1.1,5.1-2.2c1.2-2.8,2.6-7.3,4.6-7.7c2.7-0.6,4-2,5.8-3.4c2-1.6,3.7-3.4,5.8-4.9
		c3.7-2.7,3.6,1.1,4.3,3.5c1.4-1.6,2.4-2.6,3.4-3.8c-0.7-0.5-1.9-1-2.3-1.9c-0.5-1-0.4-2.3-0.5-3.5c1.1,0.4,2.3,0.5,3.3,1.1
		c1.4,0.9,2.5,2.2,4,3.5c-3.1,4.2-5.9,8.8-9.7,12.6c-2.6,2.6-6.6,3.9-9.8,6c-2.4,1.6-4.5,3.8-6.9,5.3c-2.8,1.8-4.4,5.8-8.7,5.1
		c-0.6-0.1-1.5,0.3-1.8,0.7c-2.4,3.7-6.1,5.9-10,7.5c-3.2,1.3-6.3,2.3-7.4,6.1c-0.1,0.4-1.1,1.1-1.4,0.9c-5.1-2.7-6.1,3-9,4.7
		c-3.4,2-6.1,5.1-9.3,7.3c-3.6,2.5-7.4,5.1-11.4,6.8C647.7,1112.7,643.3,1117.3,642.9,1122.2z"/>
	<path d="M869.8,497.5c-2.2-2.7-4.4-5.1-0.5-8.6c1.2-1.1,0.3-4.5,0.4-6.9c0.2-5.5,0.3-11,0.8-16.5c0.5-5.3,3.2-10.9,2-15.6
		c-1.5-6.2,0.2-11.7,0.2-17.5c0-4.1,1.4-8.3,1.9-12.4c0.5-3.7,0.8-7.5,1-11.3c0.2-2.8-1.1-6.2,3.7-6.6c0.8-0.1,1.5-2.4,3.3-3.6
		c0.2,1.3,0.7,2.7,0.7,4c-0.2,4.8-0.8,9.7-1,14.5c-0.2,3.8,0,7.6,0.1,11.8c0,0,0.9,0.2,2.2,0.6c-5.6,8.5,0.9,18.7-4.4,27.4
		c3.8,3.6,1,8.5,1,13c0,1.5-0.7,2.9-0.7,4.4c-0.1,5.3,1.5,11.2-0.4,15.6c-2.3,5.1,1.5,11-3,15.4c-0.4,0.4,0.4,2.2,0.8,3.3
		c0.7,2.5,2.1,4.7-0.4,7.4c-1.1,1.2-0.6,4.3-0.1,6.4c0.7,2.7,1.4,4.8-0.1,7.8c-1.2,2.5-1.3,5.8-2.1,8.8c-1.3,5.1,0,10.8-1.1,15.9
		c-2.7,12.3-1.1,24.8-2.5,37.1c-0.1,0.6-0.4,1.1-0.4,1c-3.3,1.4-6,2.5-10.1,4.3c0-4.9-0.4-8.7,0.1-12.3c1.1-7.5,3.3-14.9,4.1-22.5
		c0.6-5.9-0.3-12-0.2-18c0-2.7,0.6-5.3,1-8c0.5-3.4,1.2-6.7,1.5-8.9c-0.7-2.8-2.1-5.3-1.4-6.4c2.7-4.2,0.5-8.4,0.7-12.6
		C867.3,504.8,865.3,500.3,869.8,497.5z"/>
	<path d="M755.5,915.4c1.2,0.5,2.3,1,3.8,1.7c-0.7-1.9-1.4-3.6-2-5.2c-0.4,0.3-0.7,0.6-1.1,0.9c-0.9-1-2-2-2.6-3.1
		c-1.3-2.3-2-5-3.5-7.2c-1.4-2.3-3.9-3.9-2.8-7.3c0.2-0.8-0.4-2.2-1.1-2.8c-1.5-1.6-3.3-2.9-5.3-4.5c3.2-1.3,5.4-2.4,1.6-5.3
		c-1.1-0.8-0.9-3.3-1.5-4.9c-0.6-1.6-1.3-3.2-2-4.7c-0.3,0.1-0.7,0.3-1,0.4c0-2.3,0-4.6,0-6.9c0-0.6-0.1-1.7-0.3-1.7
		c-5.4-1.2-2.7-5.4-3.4-8.5c-0.8-3.3-3.3-6.3-5-9.4c-0.8-1.5-1.2-3.1-2.1-4.5c-1.1-1.9-2.8-3.5-3.7-5.5c-1.5-3.3-2.6-6.7-3.7-10.1
		c-0.5-1.6-0.5-3.3-0.8-5.1c-1.2,0-2.4,0-2.6,0c-1.5-3.5-2.8-6.5-4.3-10c0.2-0.2,1-0.7,1.6-1.1c-4.5-8.4-8.9-16.7-13.4-24.9
		c0.3-0.2,0.7-0.3,1-0.5c-2-1.7-4.1-3.3-6-5.1c-2.7-2.7,1.6-3.9,1.3-6.6c-3.4-3.2-8.4-5.9-8.9-11.8c-0.1-1.6-0.2-4.2,0.6-4.7
		c2.7-1.6,7.4,0.3,7.9,3c0.3,1.5,0.1,3,0.1,3.9c2.9,4.3,7.4,6.9,6.9,12.5c-0.1,0.9,1.2,2.6,2,2.7c4.9,0.8,4.5,4.4,4.5,6.7
		c2.3,1.8,4.3,3,5.8,4.6c0.3,0.3-0.7,2-1.4,3.7c1.2,0.3,3,0.5,4.7,1.1c0.6,0.2,1.4,1.7,1.2,2c-3.6,5,1.8,7.3,3.3,10.6
		c1.4,3.2,4.3,5.8,6.2,8.3c-0.9,0.7-2,1.5-3.2,2.3c0.2,0.4,0.5,0.9,0.7,1.3c1.1-0.1,2.2-0.2,2.8-0.2c1.2,4,1.2,9.6,3.7,11.4
		c4.4,3,4.4,7.9,7.4,11c2,2.1,4,2.6,1.1,4.6c0.3,1.5,0.8,3,0.7,4.5c-0.2,3,4.4,11,7.4,12.2c-3.5,4.2,1.3,6.8,2,10.3
		c0.3,1.3,0.7,2.6,1.2,3.8c1.7,4.2,3.5,8.3,5.2,12.5c0.5,1.2,0.4,2.7,0.8,4c0.5,1.5,1.2,3,1.9,4.9c-2.1,2.6-1,7.5,2.8,9.4
		c2.2,1.1,3.9,8.2,2.6,10.5c-1.3,2.1-5.9,2-9-0.2c-0.8-0.6-1.6-1.3-2.4-2C755.4,915.8,755.5,915.6,755.5,915.4z"/>
	<path d="M685.1,961.5c-0.4,0.5-1.5,1.9-2.3,3c-6.5,0.6-9.2-8.5-16.4-5.8c-1.1-1.4-2.3-3.1-3.9-5.1c-0.4,1-0.7,1.7-1,2.6
		c-4.9-2.9-9.9-5.9-15-8.9c0.3-0.5,0.6-1,0.9-1.5c-2.9,0.7-6.5,3.7-7.2-2.4c-0.1-0.9-2.8-1.4-4.2-2.2c-2.9-1.8-5.8-3.8-9.3-6.1
		c0,0-1,0.6-1.2,0.6c-5.6-4.6-11.8-6.4-18-8.5c-1.4-0.5-2.3-2.3-3.2-3.4c-1.3,0.2-3,0.9-3.5,0.4c-3.9-4-8.5-5.8-14.1-5.8
		c-1.5,0-2.9-1.9-4.5-2.7c-6.8-3.4-13.5-6.9-20.4-9.9c-2.3-1-3.2-6.5-6.4-2.7c-4.8-2.8-9.1-5.3-13.5-7.9c1.5-1.4,3-2.7,4.9-4.6
		c2.9,1.6,6.2,3.5,9.4,5.3c0.5,0.3,1.3,0.7,1.7,0.5c5.1-1.9,7.9,1.1,10.1,5.1c5.5-4,7.2-5,8.2,2.9c3.3,0.2,6.8,0.1,10,0.9
		c1.5,0.4,2.4,3.2,4,3.8c3.8,1.6,7.8,2.6,11.8,3.7c1.8,0.5,3.7,0.6,6.2,1.1c0,0.4,0.1,1.8,0.2,2.4c2.4,1.4,4.3,2.6,6.3,3.8
		c0.2-0.4,0.7-1.2,0.6-1.1c2.5,0.7,4.5,1.2,7.4,2c4,6,11.2,8.7,19.3,10.4c-0.7,1.1-1.3,2-1.3,2c4.7,1.9,10,2.9,13.8,6
		c4.1,3.2,8.8,4.7,13.1,7.3c2.2,1.4,4.8,2.1,7.4,3.2c0.1-0.1,0.7-0.9,1.6-2c1.5,1.9,2.8,3.7,4.1,5.4c0.1-0.3,0.2-0.6,0.2-1
		c3.4,0.9,7.4,1,10,3c2.6,2,4.6,0,6.6,0.5c2,0.5,3.8,1.5,5.7,2.4c1.4,0.7,2.7,1.8,4.2,2.5c2.6,1.1,5.4,1.7,7.8,3.1
		c1.2,0.7,1.8,2.6,2.3,4.1c0.5,1.6,0.4,3.4,0.6,5.3c-4,3.1-7.7,1.4-12-1.1c-4.8-2.8-10.3-4.2-15.4-6.5
		C689,965,687.6,963.4,685.1,961.5z"/>
	<path d="M1002.4,1309.2c0.6,0.5,1.2,1.1,2,1.7c-1.7,0.2-3.7-0.1-4.5,0.7c-3.3,3.1-6.3,2.9-9.6-0.6c-1.2,5.9-6.2,5.1-9.7,6.5
		c-2,0.8-4.8-0.1-4.6,2.8c-3.5-0.4-6.5-1-9.4-0.7c-0.6,0.1-0.8,3.5-1.3,5.5c-1.2-0.2-2.9-0.4-5.6-0.8c2.2-3.4,4.2-6.4,6.6-10
		c0.9,2.2,1.2,3,1.3,3.2c2.4-1.3,4.6-2.5,7.5-4.1c0-0.3,0.2-1.7,0.4-3.2c2,0.1,4.2-0.2,6.1,0.4c2.5,0.8,3.4,0.9,4.5-2.2
		c1.3-3.5,4.1-6.3,8.7-3.8c0.9,0.5,2.4-0.2,4.9-0.5c-2.2-0.9-3.2-1.3-4.2-1.7c0-0.4-0.1-0.9-0.1-1.3c2.1-0.2,4.2-0.4,6.3-0.7
		c1.6-0.2,3.4-0.2,4.7-1c3.2-1.9,6-4.5,9.3-6.2c5.3-2.7,11-4.8,16.8-7.3c0.3,0.3,1.2,1.2,3.2,3.1c-0.4-2.7-0.6-4.1-0.8-5.7
		c1-0.8,2.2-1.9,3.4-3c2.2,1.9,4.8,1.7,7.9-0.1c2.4-1.4,4.9-2.7,8.5-4.6c0.7-3.7,4.1-5.5,9.4-5.2c2.2,0.1,4.7-1,6.8-2.1
		c3.5-1.9,8.3-0.8,10.9-5.4c1.2-2,5.1-2.4,8.4-3.9c0-0.1,0-1.2,0-1.8c5.8-1.2,11.3-2.3,16.8-3.3c1.6-0.3,3.5-0.8,5-0.3
		c5.7,1.9,10.1-1.7,15-3.3c2.4-0.7,5.2-0.1,7.7-0.1c0.4,5.7-1.3,9.5-6.6,13.1c-3.3,0.3-8.8,1.2-14.3,1c-5.8-0.2-10,7.3-15.6,3.8
		c-3.1,1.2-5.7,2.2-8.3,3.2c-0.4,0.1-1.3-0.1-1.3,0c-0.9,5.8-5.5,3.6-8.9,4.3c-1.3,0.3-2.6,1.6-3.5,2.7c-1.8,2.1-3.4,3.4-5.1,0.1
		c-2,0.9-1.6,6.3-5.4,2.7c-0.3-0.3-3.2,1.1-3.3,1.9c-0.4,5.1-5.3,3.8-8,6.6c-0.4-1.5-0.7-2.5-1.4-4.7c-0.9,2.1-1.5,3.3-2.1,4.7
		c-2.6,0.9-7.1-0.9-7.5,3.3c-4.4,1.8-8.4,3.1-12.2,4.9c-5.8,2.7-11.3,6-17.1,8.5C1010.4,1308.1,1006.5,1308.4,1002.4,1309.2z"/>
	<path d="M1031.5,739c-0.8,1.3-1.6,2.6-2.6,4.1c1.2,0.7,2.1,1.2,3.1,1.7c-0.7,3.5-1.3,6.9-2,10.3c-0.1,0.8-0.4,1.5-0.3,2.3
		c0.4,3.5,0.8,7.1,1.4,10.6c0.8,5,1.9,10,2.4,15.1c0.3,2.9-0.6,5.8-0.8,8.4c-0.2,0.1,0.4-0.2,0.6-0.3c0.6,5.5,0.8,11.1,2,16.5
		c1.2,5.6,1.1,10.9,0.1,16.5c-0.7,4-2.7,8.7,0.6,12.3c0.3,1.4,0.6,2.8,0.9,4.2c0,0.1,0.2,0.3,0.2,0.4c-0.3,5.8-0.6,11.5-0.8,17.3
		c0,1-0.2,2,0,2.9c0.5,2.3,2.1,4.7,1.8,6.7c-0.7,3.8,0.5,7.2,0.7,10.8c0.1,1.5-2.3,3.2-4,5.4c0.7,0.1,2.2,0.4,4,0.7
		c-0.4,4.8-2.5,10.8-0.8,15.3c2.4,6.3-2.3,11.9-0.3,17c1.4,3.7,0.8,6.5,0.1,9.7c-0.5,2-1.5,3.8-2.5,5.7c-0.2,0.3-1.3,0-2,0
		c0.2-5.6-4-2.9-7.3-3.6c0.2-2.2-0.5-5.4,0.8-6.7c4.6-4.9,1.6-10.6,2.5-15.9c0.3-1.5,0.2-3.3-0.3-4.8c-0.4-1.1-1.8-1.9-3-3.2
		c1-2,2.2-4.5,3.9-8c-2-2.9-4.4-7.1-0.8-12c0.2-0.2,0-1.1-0.2-1.3c-4.8-3.8-2.8-9.4-2.3-13.6c0.6-5.3,0.6-10.4,0.5-15.6
		c0-0.6-0.3-1.2-0.6-1.7c-3.7-4.8-1.7-9.4,0.2-14.1c-2.3-1.1-3.2-2.4-1.3-4.8c2-2.5,1.6-4.6-1.5-6.3c2.3-1.9,3.2-3.8,1.3-6.8
		c-0.9-1.4,0-4-0.1-6c-0.2-6.3-0.6-12.6-0.7-19c0-1.4,0.6-2.8,0.7-3.1c-0.6-2.7-1-4.6-1.4-6.5c-0.1-0.9,0.2-1.9-0.1-2.7
		c-1.2-3.3-1.8-6.2-0.8-9.9c1.1-4,0-8.6,0.3-12.9c0.2-3.6,1.7-6.9,0-10.8C1021.5,740.4,1026.3,737.9,1031.5,739z"/>
	<path d="M1457.2,451.7c-0.1-3.9,1.9-5.2,5.7-5.6c2.1-0.2,4-2.4,6.6-2.9c-1,2.6-2.1,7.3-2.9,7.3c-3.6-0.3-0.2,8.5-5.9,4.5
		c1.4,0.7,2.8,1.4,4.4,2.2c-3.3,3.2-6.4,6.2-9.3,9.2c-0.5,0.5-0.6,1.6-0.5,2.4c0.5,4.5-0.4,6.3-5,8.6c0.6,0.8,1.1,1.5,1,1.4
		c-2.4,3.3-4.6,6.3-6.6,9c-1.3,1-3.6,2-3.5,2.7c0.5,5.7-4.7,7.9-6.8,12c-1.8,3.7-4.4,7-6.6,10.5c-1.4,2.1-2.7,4.3-4.3,6.9
		c1.2,3.1,0.2,5.4-4.1,5.9c-0.6,0.1-1.5,1.1-1.5,1.6c0.1,3-0.9,5.1-3.6,6.6c-0.6,0.3-0.2,2.3-0.3,3.7c-1.5,0.7-6.5-1.2-3,3.7
		c0.3,0.5-0.8,2.2-1.5,3.3c-1.9,2.8-3.9,5.6-5.9,8.4c0.3,0.4,0.7,0.7,1,1.1c-1-0.2-2-0.4-2.4-0.5c-1.4,8.4-7.8,13.6-12.3,20
		c0.3,0.4,0.8,1.1,1.5,2.2c-5.6,0.9-7.6,4-6.6,7.9c-6.3,5.8-12.2,11.1-18,16.4c4-13.5,12.3-24.5,19.7-36.7c-0.2-0.2-0.9-1-1.2-1.4
		c2.1-2.8,4.3-5,5.8-7.7c2.5-4.7,4.4-9.7,6.8-14.3c1.4-2.7,3.7-4.9,5.3-7.6c2.1-3.5,3.6-7.4,5.6-10.9c2.1-3.7,4.5-7.2,6.8-10.8
		c1-1.6,2.2-3,3.1-4.8c1.2-1.7,2.3-3.5,3.5-5.2c2.5-3.7,5.6-7.2,7.5-11.2c1.9-4.1,5.3-7.4,6.5-11.4c1.2-4,2.5-2.6,5.1-1.4
		c-2.2-3.5-3.2-6.6,3.1-7.9c-2-0.9-2.9-1.3-4.6-2.1c3.2-1.2,6.1-1.9,8.5-3.5c0.9-0.6,0.5-3.2,0.8-5.5c0.7-0.3,2.2-0.8,3.2-1.1
		c0.7-2.2,1.3-4.2,1.9-6.2C1455.2,450.6,1456,451,1457.2,451.7z"/>
	<path d="M905.9,1261c0-1.4,0.3-2.7-0.1-3.7c-0.2-0.6-1.7-0.6-3.3-1c1.8-1.5,3.5-2.9,5.2-4.3c-0.4-0.1-0.7-0.2-1.1-0.3
		c1.4-3.6,2.8-7.3,4.2-10.9c0.3,0.2,0.5,0.3,0.8,0.5c-0.2-1.6-0.5-3.2-0.9-5.8c2.8,1.3,4.4,2.1,7.1,3.4c-0.9-1.7-1.1-2.5-1.6-2.8
		c-3.1-1.8-3.2-3.9-1.4-6.8c1.1-1.7,0.8-4.3,1.9-5.9c2.6-3.8,4.6-7.4,5.5-12.3c0.9-5.2,5-9.8,7.2-14.9c1.8-4.1,3.1-8.5,4.3-12.9
		c1-3.7,1.7-7.5,2.5-11.2c0.2-0.7,0.4-1.9,0.9-2.1c5-2,4.2-6.9,5.5-10.8c0.3-0.9,1.4-1.6,2.1-2.4c0.5-0.5,1.4-1,1.4-1.5
		c0-8.8,5.9-15.2,9.1-22.6c0.1-0.1,0.2-0.3,0.2-0.4c-1.9-4.8,1.8-8.3,3.7-11.4c3.3-5.5,4.8-11.5,6.9-17.4c1.2-3.4,3.8-6.2,6-9.8
		c2.6,5.8,6.3,0.8,9.9,1c-1.8,3.8-7.1,5.7-5.4,11c-4.4,1.4-2,5.7-3.6,8.4c-1.5,2.6-2.4,5.5-3.8,8.2c-0.4,0.8-1.8,1-3.2,1.7
		c0.6,0.6,1.2,1.3,1.8,1.9c-0.9,2.1-2,4.8-3.2,7.3c-2.6,5.7-5.8,11.2-8,17c-3.1,8.4-4.4,17.7-8.8,25.4c-2.8,5-1.5,11.5-6.7,15.6
		c-1.9,1.5-1.8,5.7-2.8,8.6c-2.2,7.2-4.5,14.3-6.8,21.5c-0.9,2.8-1.7,5.6-2.5,8.3c-1.2,4-2.5,7.9-4.2,11.3c-2.2,2.9-5.5,5.5-6.2,8.6
		C915.9,1261.6,915.9,1258.8,905.9,1261z"/>
	<path d="M1005.7,411.2c-0.2,0.4-0.4,0.8-0.6,1.2c8.4,2.4,4.7,8.8,4.7,14c0,0.9,0.5,1.7,0.8,2.6c0.4,1.3,1.2,2.6,1.3,4
		c0.3,7.5-0.6,15.2,0.7,22.5c1.5,8.2,1,16.2,1.2,24.3c0.1,7.4,1.9,14.7,2.5,22.1c0.3,3.6-0.2,7.3-0.2,10.9
		c-0.1,4.4-0.2,8.9-0.1,13.3c0,1.3,0.9,2.5,0.6,3.6c-0.3,2-0.6,4-0.9,6.1c-0.2,1.4-0.4,2.8-0.7,4.3c-0.1,0.5-0.7,1.1-0.6,1.3
		c4.7,5.8,0.2,12.6,2,18.8c0.4,1.3-2.9,4.7-1,5.8c3.3,1.9,1.8,4.1,1.2,5.7c-2.5,6-0.4,12.2-1.1,18.3c-0.6,5.1-1.8,6.5-6.7,5.1
		c-1.6-0.4-3.4-0.1-6-0.1c1.5-7.3,3-14.8,4.7-22.6c-0.7-0.3-1.7-0.8-3-1.5c1.6-1,2.9-1.8,4.4-2.7c-0.6-0.4-0.9-0.7-1.1-0.7
		c-1.6,0.3-3.2,0.7-4.8,1.1c0.7-1.4,1.9-2.7,2.1-4.1c0.4-2.5,1.4-6.3,0.2-7.5c-2.6-2.6,0.2-4.4-0.2-6.5c-0.3-1.5-0.1-3.1-0.1-4.9
		c0.9-0.5,2.2-1.1,4.1-2c-1-0.3-1.5-0.4-1.6-0.6c-1.5-3.4-2.9-6.8-4.3-10.3c6.3-3.1,0.7-7.9,1.8-12.3c0.5,0.6,0.8,1,1.9,2.4
		c-0.9-5.2-1.5-9.4-2.2-13.5c0.3,0,0.5,0.1,0.8,0.1c0.3-1.7,0.8-3.4,0.8-5.1c-0.2-6.5-0.6-12.9-0.9-19.4c-0.3-5.6-0.7-11.3-0.7-16.9
		c0-5.2,1-10.4,0.6-15.6c-0.5-7.3-1.8-14.5-2.8-21.8c-0.1-0.4-0.4-1.1-0.2-1.3c3.5-4.1-0.7-7.6-0.6-11.3c0.1-2.6,0-6.5,4.4-6.8
		L1005.7,411.2z"/>
	<path d="M715.7,410.7c-1.8-1.7-3.8-4.1-0.8-8.5c0.3,1.7,0.4,2.5,0.5,3.5c1.4-0.2,3-0.5,4.1-0.7c0,3.7,0,7,0,10.7
		c1.3-0.6,2.2-1.1,3.3-1.6c1.7,4.9-5.8,9-0.5,13.7c-1,2.5-5.5,5.4,0.4,7.1c-0.9,2.1-2.1,4.2-2.6,6.5c-0.2,1.2,0.9,2.7,1.4,4.1
		c0.3,0.8,1.1,2,0.8,2.4c-2.1,2.8,1,6.4,0.2,7.5c-2.8,4.2,0,8.2-0.7,12.1c-0.4,2-0.5,4.2-0.1,6.2c1.1,5.6,1.1,11,0,16.8
		c-0.9,4.8,0.9,10.2,1.6,15.9c-4.2,3.3-1.2,7.2,0.3,10.4c-1.3,3.9-2.5,7.2-3.8,11c2,0,2.9,0,3.9,0c0.3,0.4,0.7,0.8,1,1.2
		c-2.1,1-4.1,2-6.2,3c0.4,0.5,0.9,1.1,1.3,1.6c0.9-0.2,1.7-0.4,2.9-0.7c-0.7,5.4-1.5,10.5-2.2,15.7c0.4,0.3,0.8,0.5,1.3,0.8
		c0.6-1,1.2-2,1.7-3c0.1,0.1,0.3,0.2,0.4,0.3c-0.8,2.7-1.5,5.4-2.3,8.4c0.4,0.3,1.1,0.8,2.1,1.4c-1,1.1-1.9,2.1-2.3,2.6
		c0.6,11.4-0.5,22.1-2.2,33c1.1-0.1,2.3-0.3,3.9-0.5c-1,2.5-1.9,4.8-3,7.6c-0.9-1.2-1.5-2-2.2-2.9c0.8-0.4,1.6-0.7,3-1.3
		c-1.3-0.8-2-1.6-2.7-1.6c-3.5,0.2-3.5-2.5-3.7-4.6c-0.6-6.8-1.1-13.7-1.4-20.6c-0.2-5.4,0.2-10.9,0.1-16.3
		c-0.1-6.4-0.7-12.9-0.7-19.3c0-3.6,1.1-7.1,1.3-10.7c0.2-3.2-0.6-6.2-1.7-9.4c-1.3-4,0.2-9,0.5-13.6c0-0.8-0.5-1.6-0.4-2.4
		c0.1-2.1-2.5-4.4,0.7-6.3c0.7-0.4,1.1-2.7,0.6-3.2c-2.3-2.7-1-5.5-1.1-8.5c-0.2-4.5,0.9-8.7,1-13c0.2-10-0.1-20-0.2-30
		c-0.1-6.9-0.1-13.9,0.1-20.8C713.3,413.6,714.7,412.3,715.7,410.7z"/>
	<path d="M788.2,1249.4c-0.8-2.1-0.8-4.2,0.3-7.5c1.8-5.4,2.1-11.3,2.2-17.1c0-2,2.4-4.4-0.4-6.3c5.2-4-1.8-9.8,2-14
		c0.7-0.8,1.5-1.6,2.5-2.6c-1.6-1.1-3.2-2.3-4.8-3.5c0.1-0.3,0.3-0.5,0.4-0.8c0.7,0.1,1.4,0.3,1.8,0.3c0.5-3.2,2.4-6.9,1.4-9.3
		c-3.9-8.4,1.8-15.7,1.6-23.7c-0.1-5.8,1.4-11.7,2-17.5c0.1-1.1-0.7-2.3-1.1-3.4c0.4,0,0.8,0.1,1.2,0.1c0.3-1.4,0.9-2.9,0.9-4.3
		c0-5.3,0.9-10.4,2.1-15.5c0.5-1.9,0.1-4.1-0.1-6.1c0-0.7-0.8-1.6-0.6-2.1c5-8.2,2.6-17.5,3.6-26.2c0.7-5.6,2.2-11.2,3.4-17
		c1.2,0.1,2.6,0.1,3.9,0.2c0.5,3.3,1.1,6.6,1.4,9.9c0.1,1.7-0.6,3.5-0.7,5.3c-0.2,4.3,0.2,8.6-0.3,12.8c-0.8,7.1-2,14-2.9,21.1
		c-0.2,1.6,0.1,3.3,0.4,4.9c0.2,1.7,2.5,3.8-1.1,4.7c-0.1,0,0.2,1.3,0.3,1.9c0.1,0.9,0.7,1.9,0.4,2.6c-2.9,6.2-1.5,12.6-1.8,19
		c-0.3,5.6-2.4,11.1-3.5,16.6c-0.4,2.2-0.9,4.6-0.5,6.7c0.6,3.4,1.2,6.2-1.7,9.2c-1.7,1.8-1.7,5.3-2.6,8.4c1.6-0.1,2.6-0.2,2.8-0.2
		c0,4.4,0.2,8.6-0.2,12.7c-0.1,0.6-3,0.8-5.1,1.3c4.4,3.5,3.5,7.8,1.9,12.4c4.3,0.2,2.8,2.7,2.1,5.7c-1.2-1-2.1-1.7-3-2.4
		c-0.5,0.2-0.9,0.5-1.4,0.7c1.1,2.8,2.2,5.6,3.5,8.9c-0.4,0.2-1.5,0.7-2.3,1.1c0,4,0,7.8,0,12c-2.9,1.7-2.9,1.9-0.2,5.7
		c-1.1,0.4-2.2,0.8-3.4,1.2c1.7,1.7,0.1,8.8-1.9,9.1c-3.9,0.6-4.3-3.6-4.4-5.1C786.1,1256.3,787.5,1252.8,788.2,1249.4z"/>
	<path d="M1005.9,411.3c-0.8-1.1-1.7-2.1-2.6-3.3c1.3-1.6,2.5-3,3.8-4.6c0.5,2.7,0.8,4.9,1.3,7.3c-0.6,0.1-1.6,0.2-2.6,0.4
		C1005.7,411.2,1005.9,411.3,1005.9,411.3z"/>
</g>
</svg>
