<?xml version="1.0" encoding="utf-8"?>
<!-- Generator: Adobe Illustrator 21.0.0, SVG Export Plug-In . SVG Version: 6.00 Build 0)  -->
<svg version="1.1" xmlns="http://www.w3.org/2000/svg" xmlns:xlink="http://www.w3.org/1999/xlink" x="0px" y="0px" viewBox="0 0 3525.9 3501" style="enable-background:new 0 0 3525.9 3501;" xml:space="preserve">

<g>
	<path d="M1582.1,669.4c-190.6,98.6-382.3,197.9-552.8,328.1c-118.4,90.4-228.2,198.8-289,334.8s-65.3,303.8,17.2,427.9
		c72.1,108.3,200.1,169.4,328.9,187.9c128.8,18.5,259.7-0.5,387.9-23c246.3-43.3,506.6-108.9,675-293.9
		c187.6-206.2,246.7-505.2,246.4-776.1c-0.1-71.2-7.3-145.2-44-206.2c-46.7-77.5-135.9-122.3-225.7-133.5
		C1934.9,491.6,1746.4,584.4,1582.1,669.4z" style="fill:#E5E5E5;"/>
	
		<rect x="1005.9" y="1836.7" transform="matrix(0.1886 -0.9821 0.9821 0.1886 -444.1151 3154.9414)" width="1362.7" height="19" style="fill:#333333;"/>
	<g>
		<path d="M2103.7,2162.3l0.8-0.3c13.2-4.7,27.8,2.3,32.4,15.5s-2.3,27.8-15.5,32.4l-0.8,0.3
			c-13.2,4.7-27.8-2.3-32.4-15.5C2083.5,2181.5,2090.5,2167,2103.7,2162.3z" style="fill:#009B4D;"/>
		<path d="M2198.9,2128.7l0.8-0.3c13.2-4.7,27.8,2.3,32.4,15.5s-2.3,27.8-15.5,32.4l-0.8,0.3
			c-13.2,4.7-27.8-2.3-32.4-15.5C2178.7,2147.9,2185.6,2133.4,2198.9,2128.7z" style="fill:#009B4D;"/>
		<path d="M2294,2095.2l0.8-0.3c13.2-4.7,27.8,2.3,32.4,15.5c4.7,13.2-2.3,27.8-15.5,32.4l-0.8,0.3
			c-13.2,4.7-27.8-2.3-32.4-15.5S2280.8,2099.8,2294,2095.2z" style="fill:#009B4D;"/>
		<path d="M2389.1,2061.6l0.8-0.3c13.2-4.7,27.8,2.3,32.4,15.5c4.7,13.2-2.3,27.8-15.5,32.4l-0.8,0.3
			c-13.2,4.7-27.8-2.3-32.4-15.5C2368.9,2080.8,2375.9,2066.3,2389.1,2061.6z" style="fill:#009B4D;"/>
		<path d="M2484.3,2028l0.8-0.3c13.2-4.7,27.8,2.3,32.4,15.5c4.7,13.2-2.3,27.8-15.5,32.4l-0.8,0.3
			c-13.2,4.7-27.8-2.3-32.4-15.5S2471,2032.7,2484.3,2028z" style="fill:#009B4D;"/>
		<path d="M2579.4,1994.5l0.8-0.3c13.2-4.7,27.8,2.3,32.4,15.5c4.7,13.2-2.3,27.8-15.5,32.4l-0.8,0.3
			c-13.2,4.7-27.8-2.3-32.4-15.5S2566.2,1999.1,2579.4,1994.5z" style="fill:#009B4D;"/>
		<path d="M2071.3,2070.4l0.8-0.3c13.2-4.7,27.8,2.3,32.4,15.5c4.7,13.2-2.3,27.8-15.5,32.4l-0.8,0.3
			c-13.2,4.7-27.8-2.3-32.4-15.5S2058.1,2075,2071.3,2070.4z" style="fill:#009B4D;"/>
		<path d="M2166.4,2036.8l0.8-0.3c13.2-4.7,27.8,2.3,32.4,15.5c4.7,13.2-2.3,27.8-15.5,32.4l-0.8,0.3
			c-13.2,4.7-27.8-2.3-32.4-15.5C2146.2,2056,2153.2,2041.5,2166.4,2036.8z" style="fill:#009B4D;"/>
		<path d="M2261.6,2003.2l0.8-0.3c13.2-4.7,27.8,2.3,32.4,15.5c4.7,13.2-2.3,27.8-15.5,32.4l-0.8,0.3
			c-13.2,4.7-27.8-2.3-32.4-15.5C2241.4,2022.4,2248.3,2007.9,2261.6,2003.2z" style="fill:#009B4D;"/>
		<path d="M2356.7,1969.7l0.8-0.3c13.2-4.7,27.8,2.3,32.4,15.5c4.7,13.2-2.3,27.8-15.5,32.4l-0.8,0.3
			c-13.2,4.7-27.8-2.3-32.4-15.5C2336.5,1988.9,2343.5,1974.3,2356.7,1969.7z" style="fill:#009B4D;"/>
		<path d="M2451.8,1936.1l0.8-0.3c13.2-4.7,27.8,2.3,32.4,15.5c4.7,13.2-2.3,27.8-15.5,32.4l-0.8,0.3
			c-13.2,4.7-27.8-2.3-32.4-15.5C2431.6,1955.3,2438.6,1940.8,2451.8,1936.1z" style="fill:#009B4D;"/>
		<path d="M2547,1902.5l0.8-0.3c13.2-4.7,27.8,2.3,32.4,15.5c4.7,13.2-2.3,27.8-15.5,32.4l-0.8,0.3
			c-13.2,4.7-27.8-2.3-32.4-15.5C2526.8,1921.7,2533.7,1907.2,2547,1902.5z" style="fill:#009B4D;"/>
		<path d="M2038.9,1978.4l0.8-0.3c13.2-4.7,27.8,2.3,32.4,15.5c4.7,13.2-2.3,27.8-15.5,32.4l-0.8,0.3
			c-13.2,4.7-27.8-2.3-32.4-15.5C2018.7,1997.6,2025.6,1983.1,2038.9,1978.4z" style="fill:#009B4D;"/>
		<path d="M2134,1944.9l0.8-0.3c13.2-4.7,27.8,2.3,32.4,15.5c4.7,13.2-2.3,27.8-15.5,32.4l-0.8,0.3
			c-13.2,4.7-27.8-2.3-32.4-15.5C2113.8,1964.1,2120.8,1949.5,2134,1944.9z" style="fill:#009B4D;"/>
		<path d="M2229.1,1911.3l0.8-0.3c13.2-4.7,27.8,2.3,32.4,15.5c4.7,13.2-2.3,27.8-15.5,32.4l-0.8,0.3
			c-13.2,4.7-27.8-2.3-32.4-15.5C2208.9,1930.5,2215.9,1916,2229.1,1911.3z" style="fill:#009B4D;"/>
		<path d="M2324.3,1877.7l0.8-0.3c13.2-4.7,27.8,2.3,32.4,15.5c4.7,13.2-2.3,27.8-15.5,32.4l-0.8,0.3
			c-13.2,4.7-27.8-2.3-32.4-15.5C2304.1,1896.9,2311,1882.4,2324.3,1877.7z" style="fill:#009B4D;"/>
		<path d="M2419.4,1844.2l0.8-0.3c13.2-4.7,27.8,2.3,32.4,15.5c4.7,13.2-2.3,27.8-15.5,32.4l-0.8,0.3
			c-13.2,4.7-27.8-2.3-32.4-15.5C2399.2,1863.4,2406.2,1848.8,2419.4,1844.2z" style="fill:#009B4D;"/>
		<path d="M2514.5,1810.6l0.8-0.3c13.2-4.7,27.8,2.3,32.4,15.5c4.7,13.2-2.3,27.8-15.5,32.4l-0.8,0.3
			c-13.2,4.7-27.8-2.3-32.4-15.5C2494.3,1829.8,2501.3,1815.3,2514.5,1810.6z" style="fill:#009B4D;"/>
		<path d="M2168.6,2346.2l0.8-0.3c13.2-4.7,27.8,2.3,32.4,15.5c4.7,13.2-2.3,27.8-15.5,32.4l-0.8,0.3
			c-13.2,4.7-27.8-2.3-32.4-15.5C2148.4,2365.4,2155.4,2350.8,2168.6,2346.2z" style="fill:#009B4D;"/>
		<path d="M2263.7,2312.6l0.8-0.3c13.2-4.7,27.8,2.3,32.4,15.5c4.7,13.2-2.3,27.8-15.5,32.4l-0.8,0.3
			c-13.2,4.7-27.8-2.3-32.4-15.5C2243.6,2331.8,2250.5,2317.3,2263.7,2312.6z" style="fill:#009B4D;"/>
		<path d="M2358.9,2279l0.8-0.3c13.2-4.7,27.8,2.3,32.4,15.5c4.7,13.2-2.3,27.8-15.5,32.4l-0.8,0.3
			c-13.2,4.7-27.8-2.3-32.4-15.5C2338.7,2298.2,2345.6,2283.7,2358.9,2279z" style="fill:#009B4D;"/>
		<path d="M2454,2245.5l0.8-0.3c13.2-4.7,27.8,2.3,32.4,15.5c4.7,13.2-2.3,27.8-15.5,32.4l-0.8,0.3
			c-13.2,4.7-27.8-2.3-32.4-15.5C2433.8,2264.7,2440.8,2250.1,2454,2245.5z" style="fill:#009B4D;"/>
		<path d="M2549.1,2211.9l0.8-0.3c13.2-4.7,27.8,2.3,32.4,15.5c4.7,13.2-2.3,27.8-15.5,32.4l-0.8,0.3
			c-13.2,4.7-27.8-2.3-32.4-15.5C2529,2231.1,2535.9,2216.6,2549.1,2211.9z" style="fill:#009B4D;"/>
		<path d="M2644.3,2178.3l0.8-0.3c13.2-4.7,27.8,2.3,32.4,15.5c4.7,13.2-2.3,27.8-15.5,32.4l-0.8,0.3
			c-13.2,4.7-27.8-2.3-32.4-15.5C2624.1,2197.5,2631,2183,2644.3,2178.3z" style="fill:#009B4D;"/>
		<path d="M2136.2,2254.2l0.8-0.3c13.2-4.7,27.8,2.3,32.4,15.5c4.7,13.2-2.3,27.8-15.5,32.4l-0.8,0.3
			c-13.2,4.7-27.8-2.3-32.4-15.5C2116,2273.4,2122.9,2258.9,2136.2,2254.2z" style="fill:#009B4D;"/>
		<path d="M2231.3,2220.7l0.8-0.3c13.2-4.7,27.8,2.3,32.4,15.5s-2.3,27.8-15.5,32.4l-0.8,0.3
			c-13.2,4.7-27.8-2.3-32.4-15.5C2211.1,2239.9,2218.1,2225.3,2231.3,2220.7z" style="fill:#009B4D;"/>
		<path d="M2326.4,2187.1l0.8-0.3c13.2-4.7,27.8,2.3,32.4,15.5s-2.3,27.8-15.5,32.4l-0.8,0.3
			c-13.2,4.7-27.8-2.3-32.4-15.5C2306.2,2206.3,2313.2,2191.8,2326.4,2187.1z" style="fill:#009B4D;"/>
		<path d="M2421.6,2153.5l0.8-0.3c13.2-4.7,27.8,2.3,32.4,15.5s-2.3,27.8-15.5,32.4l-0.8,0.3
			c-13.2,4.7-27.8-2.3-32.4-15.5C2401.4,2172.7,2408.3,2158.2,2421.6,2153.5z" style="fill:#009B4D;"/>
		<path d="M2516.7,2120l0.8-0.3c13.2-4.7,27.8,2.3,32.4,15.5s-2.3,27.8-15.5,32.4l-0.8,0.3
			c-13.2,4.7-27.8-2.3-32.4-15.5C2496.5,2139.2,2503.5,2124.6,2516.7,2120z" style="fill:#009B4D;"/>
		<path d="M2611.8,2086.4l0.8-0.3c13.2-4.7,27.8,2.3,32.4,15.5s-2.3,27.8-15.5,32.4l-0.8,0.3
			c-13.2,4.7-27.8-2.3-32.4-15.5C2591.6,2105.6,2598.6,2091.1,2611.8,2086.4z" style="fill:#009B4D;"/>
		<path d="M2233.5,2530l0.8-0.3c13.2-4.7,27.8,2.3,32.4,15.5s-2.3,27.8-15.5,32.4l-0.8,0.3
			c-13.2,4.7-27.8-2.3-32.4-15.5C2213.3,2549.2,2220.2,2534.7,2233.5,2530z" style="fill:#009B4D;"/>
		<path d="M2328.6,2496.5l0.8-0.3c13.2-4.7,27.8,2.3,32.4,15.5s-2.3,27.8-15.5,32.4l-0.8,0.3
			c-13.2,4.7-27.8-2.3-32.4-15.5C2308.4,2515.7,2315.4,2501.1,2328.6,2496.5z" style="fill:#009B4D;"/>
		<path d="M2423.8,2462.9l0.8-0.3c13.2-4.7,27.8,2.3,32.4,15.5s-2.3,27.8-15.5,32.4l-0.8,0.3
			c-13.2,4.7-27.8-2.3-32.4-15.5C2403.6,2482.1,2410.5,2467.6,2423.8,2462.9z" style="fill:#009B4D;"/>
		<path d="M2518.9,2429.3l0.8-0.3c13.2-4.7,27.8,2.3,32.4,15.5s-2.3,27.8-15.5,32.4l-0.8,0.3
			c-13.2,4.7-27.8-2.3-32.4-15.5C2498.7,2448.5,2505.6,2434,2518.9,2429.3z" style="fill:#009B4D;"/>
		<path d="M2614,2395.8l0.8-0.3c13.2-4.7,27.8,2.3,32.4,15.5s-2.3,27.8-15.5,32.4l-0.8,0.3
			c-13.2,4.7-27.8-2.3-32.4-15.5S2600.8,2400.4,2614,2395.8z" style="fill:#009B4D;"/>
		<path d="M2709.2,2362.2l0.8-0.3c13.2-4.7,27.8,2.3,32.4,15.5c4.7,13.2-2.3,27.8-15.5,32.4l-0.8,0.3
			c-13.2,4.7-27.8-2.3-32.4-15.5C2689,2381.4,2695.9,2366.9,2709.2,2362.2z" style="fill:#009B4D;"/>
		<path d="M2201.1,2438.1l0.8-0.3c13.2-4.7,27.8,2.3,32.4,15.5c4.7,13.2-2.3,27.8-15.5,32.4l-0.8,0.3
			c-13.2,4.7-27.8-2.3-32.4-15.5S2187.8,2442.8,2201.1,2438.1z" style="fill:#009B4D;"/>
		<path d="M2296.2,2404.5l0.8-0.3c13.2-4.7,27.8,2.3,32.4,15.5c4.7,13.2-2.3,27.8-15.5,32.4l-0.8,0.3
			c-13.2,4.7-27.8-2.3-32.4-15.5C2276,2423.7,2282.9,2409.2,2296.2,2404.5z" style="fill:#009B4D;"/>
		<path d="M2391.3,2371l0.8-0.3c13.2-4.7,27.8,2.3,32.4,15.5c4.7,13.2-2.3,27.8-15.5,32.4l-0.8,0.3
			c-13.2,4.7-27.8-2.3-32.4-15.5S2378.1,2375.6,2391.3,2371z" style="fill:#009B4D;"/>
		<path d="M2486.5,2337.4l0.8-0.3c13.2-4.7,27.8,2.3,32.4,15.5c4.7,13.2-2.3,27.8-15.5,32.4l-0.8,0.3
			c-13.2,4.7-27.8-2.3-32.4-15.5C2466.3,2356.6,2473.2,2342.1,2486.5,2337.4z" style="fill:#009B4D;"/>
		<path d="M2581.6,2303.8l0.8-0.3c13.2-4.7,27.8,2.3,32.4,15.5c4.7,13.2-2.3,27.8-15.5,32.4l-0.8,0.3
			c-13.2,4.7-27.8-2.3-32.4-15.5S2568.3,2308.5,2581.6,2303.8z" style="fill:#009B4D;"/>
		<path d="M2676.7,2270.3l0.8-0.3c13.2-4.7,27.8,2.3,32.4,15.5c4.7,13.2-2.3,27.8-15.5,32.4l-0.8,0.3
			c-13.2,4.7-27.8-2.3-32.4-15.5C2656.5,2289.5,2663.5,2274.9,2676.7,2270.3z" style="fill:#009B4D;"/>
		<path d="M1974,1794.6l0.8-0.3c13.2-4.7,27.8,2.3,32.4,15.5c4.7,13.2-2.3,27.8-15.5,32.4l-0.8,0.3
			c-13.2,4.7-27.8-2.3-32.4-15.5C1953.8,1813.8,1960.7,1799.2,1974,1794.6z" style="fill:#009B4D;"/>
		<path d="M2069.1,1761l0.8-0.3c13.2-4.7,27.8,2.3,32.4,15.5c4.7,13.2-2.3,27.8-15.5,32.4l-0.8,0.3
			c-13.2,4.7-27.8-2.3-32.4-15.5S2055.9,1765.7,2069.1,1761z" style="fill:#009B4D;"/>
		<path d="M2164.3,1727.4l0.8-0.3c13.2-4.7,27.8,2.3,32.4,15.5c4.7,13.2-2.3,27.8-15.5,32.4l-0.8,0.3
			c-13.2,4.7-27.8-2.3-32.4-15.5S2151,1732.1,2164.3,1727.4z" style="fill:#009B4D;"/>
		<path d="M2259.4,1693.9l0.8-0.3c13.2-4.7,27.8,2.3,32.4,15.5c4.7,13.2-2.3,27.8-15.5,32.4l-0.8,0.3
			c-13.2,4.7-27.8-2.3-32.4-15.5S2246.1,1698.5,2259.4,1693.9z" style="fill:#009B4D;"/>
		<path d="M2354.5,1660.3l0.8-0.3c13.2-4.7,27.8,2.3,32.4,15.5c4.7,13.2-2.3,27.8-15.5,32.4l-0.8,0.3
			c-13.2,4.7-27.8-2.3-32.4-15.5S2341.3,1665,2354.5,1660.3z" style="fill:#009B4D;"/>
		<path d="M2449.7,1626.7l0.8-0.3c13.2-4.7,27.8,2.3,32.4,15.5c4.7,13.2-2.3,27.8-15.5,32.4l-0.8,0.3
			c-13.2,4.7-27.8-2.3-32.4-15.5C2429.5,1645.9,2436.4,1631.4,2449.7,1626.7z" style="fill:#009B4D;"/>
		<path d="M2038.9,1978.4l0.8-0.3c13.2-4.7,27.8,2.3,32.4,15.5c4.7,13.2-2.3,27.8-15.5,32.4l-0.8,0.3
			c-13.2,4.7-27.8-2.3-32.4-15.5C2018.7,1997.6,2025.6,1983.1,2038.9,1978.4z" style="fill:#009B4D;"/>
		<path d="M2134,1944.9l0.8-0.3c13.2-4.7,27.8,2.3,32.4,15.5c4.7,13.2-2.3,27.8-15.5,32.4l-0.8,0.3
			c-13.2,4.7-27.8-2.3-32.4-15.5C2113.8,1964.1,2120.8,1949.5,2134,1944.9z" style="fill:#009B4D;"/>
		<path d="M2229.1,1911.3l0.8-0.3c13.2-4.7,27.8,2.3,32.4,15.5c4.7,13.2-2.3,27.8-15.5,32.4l-0.8,0.3
			c-13.2,4.7-27.8-2.3-32.4-15.5C2208.9,1930.5,2215.9,1916,2229.1,1911.3z" style="fill:#009B4D;"/>
		<path d="M2324.3,1877.7l0.8-0.3c13.2-4.7,27.8,2.3,32.4,15.5c4.7,13.2-2.3,27.8-15.5,32.4l-0.8,0.3
			c-13.2,4.7-27.8-2.3-32.4-15.5C2304.1,1896.9,2311,1882.4,2324.3,1877.7z" style="fill:#009B4D;"/>
		<path d="M2419.4,1844.2l0.8-0.3c13.2-4.7,27.8,2.3,32.4,15.5c4.7,13.2-2.3,27.8-15.5,32.4l-0.8,0.3
			c-13.2,4.7-27.8-2.3-32.4-15.5C2399.2,1863.4,2406.2,1848.8,2419.4,1844.2z" style="fill:#009B4D;"/>
		<path d="M2514.5,1810.6l0.8-0.3c13.2-4.7,27.8,2.3,32.4,15.5c4.7,13.2-2.3,27.8-15.5,32.4l-0.8,0.3
			c-13.2,4.7-27.8-2.3-32.4-15.5C2494.3,1829.8,2501.3,1815.3,2514.5,1810.6z" style="fill:#009B4D;"/>
		<path d="M2006.4,1886.5l0.8-0.3c13.2-4.7,27.8,2.3,32.4,15.5s-2.3,27.8-15.5,32.4l-0.8,0.3
			c-13.2,4.7-27.8-2.3-32.4-15.5C1986.2,1905.7,1993.2,1891.2,2006.4,1886.5z" style="fill:#009B4D;"/>
		<path d="M2101.6,1852.9l0.8-0.3c13.2-4.7,27.8,2.3,32.4,15.5s-2.3,27.8-15.5,32.4l-0.8,0.3
			c-13.2,4.7-27.8-2.3-32.4-15.5C2081.4,1872.1,2088.3,1857.6,2101.6,1852.9z" style="fill:#009B4D;"/>
		<path d="M2196.7,1819.4l0.8-0.3c13.2-4.7,27.8,2.3,32.4,15.5c4.7,13.2-2.3,27.8-15.5,32.4l-0.8,0.3
			c-13.2,4.7-27.8-2.3-32.4-15.5C2176.5,1838.6,2183.5,1824,2196.7,1819.4z" style="fill:#009B4D;"/>
		<path d="M2291.8,1785.8l0.8-0.3c13.2-4.7,27.8,2.3,32.4,15.5c4.7,13.2-2.3,27.8-15.5,32.4l-0.8,0.3
			c-13.2,4.7-27.8-2.3-32.4-15.5C2271.6,1805,2278.6,1790.5,2291.8,1785.8z" style="fill:#009B4D;"/>
		<path d="M2387,1752.2l0.8-0.3c13.2-4.7,27.8,2.3,32.4,15.5c4.7,13.2-2.3,27.8-15.5,32.4l-0.8,0.3
			c-13.2,4.7-27.8-2.3-32.4-15.5S2373.7,1756.9,2387,1752.2z" style="fill:#009B4D;"/>
		<path d="M2482.1,1718.7l0.8-0.3c13.2-4.7,27.8,2.3,32.4,15.5c4.7,13.2-2.3,27.8-15.5,32.4l-0.8,0.3
			c-13.2,4.7-27.8-2.3-32.4-15.5S2468.9,1723.3,2482.1,1718.7z" style="fill:#009B4D;"/>
		<path d="M1941.6,1702.6l0.8-0.3c13.2-4.7,27.8,2.3,32.4,15.5s-2.3,27.8-15.5,32.4l-0.8,0.3
			c-13.2,4.7-27.8-2.3-32.4-15.5C1921.4,1721.8,1928.3,1707.3,1941.6,1702.6z" style="fill:#009B4D;"/>
		<path d="M2036.7,1669.1l0.8-0.3c13.2-4.7,27.8,2.3,32.4,15.5c4.7,13.2-2.3,27.8-15.5,32.4l-0.8,0.3
			c-13.2,4.7-27.8-2.3-32.4-15.5C2016.5,1688.3,2023.4,1673.7,2036.7,1669.1z" style="fill:#009B4D;"/>
		<path d="M2131.8,1635.5l0.8-0.3c13.2-4.7,27.8,2.3,32.4,15.5c4.7,13.2-2.3,27.8-15.5,32.4l-0.8,0.3
			c-13.2,4.7-27.8-2.3-32.4-15.5C2111.6,1654.7,2118.6,1640.2,2131.8,1635.5z" style="fill:#009B4D;"/>
		<path d="M2227,1601.9l0.8-0.3c13.2-4.7,27.8,2.3,32.4,15.5c4.7,13.2-2.3,27.8-15.5,32.4l-0.8,0.3
			c-13.2,4.7-27.8-2.3-32.4-15.5C2206.8,1621.1,2213.7,1606.6,2227,1601.9z" style="fill:#009B4D;"/>
		<path d="M2322.1,1568.4l0.8-0.3c13.2-4.7,27.8,2.3,32.4,15.5c4.7,13.2-2.3,27.8-15.5,32.4l-0.8,0.3
			c-13.2,4.7-27.8-2.3-32.4-15.5C2301.9,1587.6,2308.8,1573,2322.1,1568.4z" style="fill:#009B4D;"/>
		<path d="M2417.2,1534.8l0.8-0.3c13.2-4.7,27.8,2.3,32.4,15.5c4.7,13.2-2.3,27.8-15.5,32.4l-0.8,0.3
			c-13.2,4.7-27.8-2.3-32.4-15.5C2397,1554,2404,1539.5,2417.2,1534.8z" style="fill:#009B4D;"/>
		<path d="M1909.1,1610.7l0.8-0.3c13.2-4.7,27.8,2.3,32.4,15.5c4.7,13.2-2.3,27.8-15.5,32.4l-0.8,0.3
			c-13.2,4.7-27.8-2.3-32.4-15.5C1888.9,1629.9,1895.9,1615.4,1909.1,1610.7z" style="fill:#009B4D;"/>
		<path d="M2004.3,1577.1l0.8-0.3c13.2-4.7,27.8,2.3,32.4,15.5c4.7,13.2-2.3,27.8-15.5,32.4l-0.8,0.3
			c-13.2,4.7-27.8-2.3-32.4-15.5C1984.1,1596.3,1991,1581.8,2004.3,1577.1z" style="fill:#009B4D;"/>
		<path d="M2099.4,1543.6l0.8-0.3c13.2-4.7,27.8,2.3,32.4,15.5c4.7,13.2-2.3,27.8-15.5,32.4l-0.8,0.3
			c-13.2,4.7-27.8-2.3-32.4-15.5C2079.2,1562.8,2086.1,1548.2,2099.4,1543.6z" style="fill:#009B4D;"/>
		<path d="M2194.5,1510l0.8-0.3c13.2-4.7,27.8,2.3,32.4,15.5c4.7,13.2-2.3,27.8-15.5,32.4l-0.8,0.3
			c-13.2,4.7-27.8-2.3-32.4-15.5C2174.3,1529.2,2181.3,1514.7,2194.5,1510z" style="fill:#009B4D;"/>
		<path d="M2289.7,1476.4l0.8-0.3c13.2-4.7,27.8,2.3,32.4,15.5c4.7,13.2-2.3,27.8-15.5,32.4l-0.8,0.3
			c-13.2,4.7-27.8-2.3-32.4-15.5C2269.5,1495.6,2276.4,1481.1,2289.7,1476.4z" style="fill:#009B4D;"/>
		<path d="M2384.8,1442.9l0.8-0.3c13.2-4.7,27.8,2.3,32.4,15.5c4.7,13.2-2.3,27.8-15.5,32.4l-0.8,0.3
			c-13.2,4.7-27.8-2.3-32.4-15.5C2364.6,1462.1,2371.5,1447.5,2384.8,1442.9z" style="fill:#009B4D;"/>
	</g>
	<g>
		<path d="M846.5,2257.1c0.1,2,0.4,4,0.2,5.9c-0.1,1.3,1.1,3.9-2.7,2.7c-1.4-0.4-4.5,2.5-5.9,4.5c-2.5,3.5-4.3,7.4-5.9,10.2
			c-2.9-0.3-4.8-0.5-7.9-0.8c1,3.4,1.7,5.8,2.4,8.6c-0.7,0.6-1.8,1.5-3.5,2.9c-0.3-0.2-1.3-0.8-3.4-2.1c0.4,3.5,0.7,6,1.1,8.5
			c-3,0.3-5.1,3.6-5.4,7.2c-0.1,1.6-2,4.1-3.4,4.3c-2.9,0.6-5.5,0.1-6.1,4.4c-0.3,2.2-2.4,4.2-4.2,6.2c-1.5,2-3,4-4.4,6.1
			c-3.6,5.2-7.4,10.4-10.7,15.8c-1.6,2.6-2.4,5.7-3.6,8.6c0.5,0.3,1,0.5,1.5,0.8c-2.1,0.9-4.2,1.7-6.4,2.6c-0.3-1.4-0.6-2.6-1.1-4.6
			c-1.1,1.9-1.8,3.1-2.6,4.5c1.3,0.9,2.5,1.7,4.1,2.7c-1.1,1.1-1.9,2-2.7,2.7c1.1,0.9,2.2,1.9,3.9,3.3c-2.2,0.3-3.7,0.5-5.5,0.7
			c0.3,1.1,0.6,1.9,1.2,3.5c-1.7-1.2-2.9-2.1-4.1-3c-0.3,0.2-0.6,0.5-0.9,0.7c0.8,1.1,1.6,2.3,2.7,3.8c-7.1-1.2-6.5,5.5-8.8,9
			c-2.9,4.3-5.7,9.5-0.2,14.4c0.5-0.6,1.2-1.3,1.5-1.6c1.1,1.9,2.1,3.8,3.3,5.9c-1.2,0.1-2.5,0.3-4.2,0.5c2.4,2.6-3.7,6.4,1.1,7.9
			c-0.9,0.9-2.1,1.9-3,3.1c-3.3,4.6-6.5,9.2-10,14.2c3,3.1,1.3,6.2-1.8,9.1c-0.9,0.8-1.9,1.9-2.1,3c-0.6,2.8-1.2,5.6-1.2,8.5
			c0,2.1,0.9,4.3,1.4,6.3c-3.5-0.5-5,0.7-5,5.1c0,4.6,1.7,9.7-2.2,14c-0.9,1-0.2,3.3-0.4,5c-0.1,1.6-0.2,3.2-0.6,4.7
			c-1,3.2-2.8,6.3-3.3,9.6c-0.3,1.9,1.3,4.2,2.5,7.7c-2.3-1.3-3.1-1.8-4.5-2.5c-0.4,2.7-0.8,5.2-1.3,8.2c1.7,0,3.1,0,4.5-0.1
			c0.1,0.4,0.2,0.9,0.3,1.3c-2.2,0.6-4.5,1.1-7.6,1.9c2.4,0.9,4,1.5,7.2,2.8c-9.7,1.5-5.5,10-9.4,14.1c1.4,0.6,2.8,1.3,5.5,2.6
			c-3.4,0.8-5.3,1.3-8,1.9c1.4,2.3,2.8,4.6,4.3,7c-2.6,1.5-5.6,2.9-3.4,6.7c0.2,0.3,0.1,1.1-0.2,1.3c-4.9,4.1-1,7.6,0.5,10.8
			c-5.6,7.8-1.5,17.5-4.9,25.9c1.1,0.4,3.1,1.1,5,1.7c-1.3,0.6-2.7,1.1-4.2,1.8c-0.2,4.6,1.1,10.3-1,14.1c-3.6,6.6,0.5,9.3,3.4,13.6
			c2.4,3.5,3.3,8.1,4.9,12.2c0.2,0.4,0.3,1.3,0,1.4c-7.1,5.1-0.8,10.4-0.3,15.7c0.3,2.8-0.1,5.6-0.1,8.4c0,2.1,0.1,4.1,0.2,6.4
			c5.3-0.8,0,4.3,2.2,5.6c-2.7,4.5,0.3,8.5,1.2,12.6c0.3,1.2,0.6,2.4,0.7,3.6c0.1,2.5,0.2,5,0,7.5c-0.2,2.2-0.8,4.4-1.1,6.6
			c-0.2,1.2-0.9,2.8-0.4,3.6c3.8,6.2,0.9,10.6-4.2,15.1c2.5,0.1,4.4,0.2,7.3,0.3c-1.9,4-3.6,7.8-5.5,11.8c1.5,0.4,2.6,0.6,4.5,1.1
			c-1.5,1.5-2.5,2.4-3.4,3.3c2.4,4,4.7,8.1,7.3,12.4c-1.2,0.2-2.5,0.3-3.7,0.5c0.4,2.1,0.8,3.8,1.1,5.6c-0.3,0-0.6,0.1-1,0.1
			c0.9,1,1.7,2.2,2.7,3.1c2,1.9-0.5,6.5,4,6.8c-2,4.4,4.1,6.9,2.5,11.4c-1,2.8,0.5,4.1,2.4,3.3c1.7,4.2,4,8.2,4.8,12.5
			c0.8,4.1,0.2,8.5,0.2,11.6c2.5,6.8,4.8,13,7.1,19.1c0.3,0.9,0.6,1.7,0.9,2.6c0.6,2,1.1,4.1,1.9,7c0,0,1.3,0.1,2.9,0.3
			c-0.1,2.4-0.3,4.7-0.4,7.7c1.2-0.4,2.9-0.9,4.3-1.3c-0.2,3.2-0.4,6.8-0.7,11.4c2.4-1.3,3.2-1.7,3.3-1.7c0.2,3.1-0.2,6.4,0.6,9.3
			c0.9,3.1,2.9,6,4.4,9c-5.1,2-8,0.6-11.9-5.6c1-0.3,2-0.6,4.3-1.2c-2.8-2.3-5-4.2-6.6-5.5c0.2-1.7,0.4-3.1,0.6-4.8
			c0.9-0.1,2-0.2,3.2-0.4c-0.2-0.5-0.4-0.9-0.4-0.9c-3.5,0.8-4.3-1.2-5.9-4c-1.7-3.2-0.7-7.8-5.1-9.8c-1.7-0.8-0.1-7,2.4-9.7
			c-2.8-1.8-5.5-3.7-8.5-5.7c2.6-0.1,5.1-0.2,7.6-0.3c0-0.1,0-0.3,0-0.4c-3.1-0.5-6.1-1-9.2-1.4c0-0.5,0.1-1.1,0.1-1.6
			c1.1-0.5,2.2-0.9,3.3-1.4c0-3-10.6-13.8-14.4-14.5c1-1.1,1.8-2,3.7-4.1c-3,0.7-4.6,1.1-6.6,1.6c0.7-4.3-2.6-8.2-3-11.6
			c-0.5-4.3-3.7-5.1-4.5-7.8c-0.6-2.2,0.6-4.9,1.1-7.7c-4.8-2.5-6.3-6.5-4.9-12.9c0.4-1.6,0.1-3.9-0.8-5.2c-2.6-3.5-2.8-3.4-0.5-7.3
			c-2.7-1.7-5-8.8-4.3-11.8c0.3-1.1-0.4-2.6-1-3.7c-0.9-1.7-2.2-3.3-3.4-5.1c2.3-1.5,3.9-2.6,5.9-3.9c-2.2-1.8-4.9-3.1-5.9-5.2
			c-0.9-1.7,0.1-4.4,0.3-7c-0.4,0.1-1.3,0.4-1.5,0.4c-0.5-4.1-1-8.3-1.5-12.3c2.3-0.8,3.9-1.4,5.5-1.9c-5.5,0.1-6.7-4.1-8.6-8.2
			c5.9-0.5,1.6-5.1,4.2-8.4c-2.4,0.5-3.7,0.7-4.9,1c-0.3-0.3-0.5-0.6-0.8-1c1.2-1,2.4-2,2.5-2.1c-0.6-4.7-0.9-9-1.7-13.2
			c-0.7-3.9-2-7.7-2.7-11.6c-0.3-1.5,0.6-3.2,0.6-4.7c0-4.7,0-9.4-0.2-14c0-1-1-1.9-1.3-2.9c-0.3-1.3-0.9-3.5-0.4-3.8
			c4.9-3.4,2.6-6.5,0.1-9.8c-0.4-0.5-0.6-1.1-1-2c1.2-0.7,2.4-1.3,3.7-2c-0.2-1.1-0.5-2.3-0.7-3.6c-0.7-4.4-1.1-8.7,2.6-12.4
			c0.3-0.3-1.1-2.4-1.7-3.6c-0.5,0.1-0.9,0.3-1.4,0.4c1.4-3.6,3.1-7.1,4-10.7c0.3-1.3-1.1-3.1-1.9-5c1.3-1.8,3-4.2,5.1-7
			c-2.4-0.8-4.1-1.4-6-2.1c2.1-3.8,4.4-7.2,5.7-11c1.3-3.6,1.5-7.5,2.3-11.5c1.7,0.2,3.4,0.5,5.2,0.7c-5.9-2.4-5.4-7.1-4.6-11.7
			c0.8,0.1,1.8,0.1,3.1,0.2c-1.8-3.3-3.3-6.1-4.2-7.7c0.7-4.5,1.3-8.2,2-12.9c-2,1.1-2.8,1.5-4.1,2.2c0.1-0.9,0-1.5,0.2-1.9
			c0.6-1.2,1.2-2.4,2-3.5c2.1-3,3.6-5.9-0.8-9.5c2.7-0.5,5.4-1,9.3-1.7c-6.8-3.1-6.4-7.1-4.4-12.4c1.5-4.1,0.5-9.1,5.2-11.8
			c-1.7-2.8-4-5.1,0.6-8.3c1.9-1.3,1.3-6.2,2.1-9.4c0.3-1.3,1.5-2.3,2.7-4.1c-1.6-1.9-1.8-4.9,0.4-8.6c1.2-1.9,0.3-4.9,1.1-7.2
			c1.2-3.7,3.1-7.3,4.8-11.3c1.6-0.2,4.1-0.5,6.6-0.8c-8.6-1.2-3.8-5.7-2.7-8.3c-1.9-1.5-3.4-2.8-5.8-4.8c3-0.4,5-0.6,7.1-0.9
			c-2.1-2.3-4.1-4.4-6.1-6.6c2.8-4.6,5.7-4.6,9.1-0.4c0.3-0.4,0.6-0.8,1-1.2c-1.1-1.9-2.3-3.8-4-6.6c1.7-1.8,4.4-4.7,7.8-8.4
			c0.2,3.2,0.4,5.5,0.6,8c0.8,0.2,2.1,0.6,3.9,1.2c-0.3-2.7-0.6-5.1-1.1-8.4c-0.5-0.3-1.8-1.1-3-1.8c0.7-2.9,0.6-6.4,4.5-7.3
			c-1.4,4.4,1.2,6.4,3.5,7.4c2.5-3.3,5.1-5.8,6.6-8.9c1.2-2.2,4-4.9,0.6-7.8c1.2-0.4,2.7-0.5,3.5-1.3c2.3-2.5,4.4-5.2,6.5-7.9
			c0.5-0.6,1.5-1.5,1.4-1.8c-1.9-4,1.9-5.6,3-8.4c0.8-2.2,6.4-0.2,3.8-5.1c-0.8-1.5,0.8-4.6,1.9-6.7c1.6-2.9,3.5-5.6,5.6-8.1
			c2.1-2.4,1.7-5.6,4.2-8.3c3.4-3.7,5.9-7.7,11.3-8.4c-0.4-2.1-0.8-3.9-1.4-7c1.9,1.8,2.8,2.6,2.8,2.6c2.7-2.7,5.2-4.8,7.2-7.4
			c2.2-2.7,3.9-5.7,6-8.9c0.7,0.4,1.7,1,3.5,1.9c1.7-4.6,3.3-8.9,5-13.3c0.8,4.7,3.1,5.5,7.2,3.5c0-2.9,0-6,0.1-9
			c0.5-0.1,0.9-0.1,1.4-0.2c0.5,1.8,1,3.6,1.4,5.2c2.3-2.6,4.7-5.3,7.3-8.1c-1-1-2.5-2.6-4.1-4.2c0-0.5,0.1-1,0.1-1.4
			c1.2,0.2,2.5,0.2,3.7,0.6c1.4,0.5,2.6,1.2,3.9,1.9L846.5,2257.1z"/>
		<path d="M1806.7,2782.8c-1.5,1.5-3,2.2-3.2,3.2c-1,4.5-1.5,6.2-4.1,9.4c0.9,0.7,1.9,1.4,2.8,2c-0.9,0.8-2.1,1.4-2.6,2.3
			c-1.6,3-3.1,6-4.2,9.2c-0.8,2.5-1,5.2-1.2,6.9c-3,1.1-5.3,1.9-7.1,2.6c0.5,2,1,3.7,1.5,5.5c-2.6-0.2-4.4-0.7-5.9-0.3
			c-2.3,0.6-3.7,1.9-0.8,4c0.6,0.4,0.4,3.2,0.1,3.3c-6.9,2-6,8.6-8.2,13.4c-1.4,3-2.5,6.1-4.1,8.9c-0.3,0.5-2.5,0.3-3.7-0.1
			c-1.1-0.4-2.1-1.4-3.4-2.4c0.8-0.4,1.5-0.7,3.1-1.4c-2.3-1.3-4.2-2.4-6.1-3.5c0.3-2.4,0.6-4.8,0.9-7.2c-0.5-0.2-0.9-0.5-1.4-0.7
			c2.3-1.3,4.5-2.7,6.8-4c0.1,0.3,0.3,0.7,0.4,1c0.5-2.4,1-4.9,1.5-7.6c0.3,0.5,0.4,0.6,0.5,0.7c0,0.2,0,0.4,0,0.5
			c0.2,0.4,0.4,0.7,1.1,1.9c0-2.7,0.1-4.6,0.1-6.4c0.3,0,0.5-0.1,0.8-0.1c0.3,1.5,0.5,2.9,0.8,4.4c0.4,0,0.8,0,1.2,0
			c0.1-1.5-0.2-3.1,0.3-4.4c0.5-1.4,1.8-2.6,2.7-3.9c0.8-1.1,1.7-2.2,2.6-3.2c1.2-1.4,2.3-3.3,3.8-4c4.2-1.9,3.6-3.6,1.3-5.3
			c1.5-5,2.8-9.7,4.4-14.4c0.9-2.7,1.9-5.5,3.7-7.6c2.7-3.1,1.7-4.9-2-6.8c2.2-1.4,3.9-2.5,5.8-3.8c1.9-3.4-5.2-9.2,2.7-11.8
			c-0.7-0.5-1.4-0.8-1.5-0.9c0.8-3.2,1.6-6.3,2.3-9.4c1.1,0.7,2.3,1.3,3.4,2c-0.9-1.1-1.9-2.2-2.8-3.4c6-5.7,6.8-14.4,2.3-20.7
			c-0.6-0.9-0.5-2.7,0-3.9c1.3-3.3,2.9-6.5,4.9-10.7c-0.1-0.1-1-1.3-1.8-2.4c1.7-7.4,6.4-14.3,4-22.6c-0.2-0.7,0.3-1.6,0.3-2.4
			c0.1-3.1,0.1-6.1-0.6-9.3c1.1-1.6,5.2-1.9,2.8-6.2c-0.3-0.5,1.2-1.9,1.2-1.8c-0.1-2-0.4-3.2-0.2-4.3c0.4-2.9,3.3-5.8-0.4-8.8
			c-0.6-0.5,0.6-3.3,1.1-5c0.7-2.4,3.1-5.9,2.2-7c-3-4.1-0.1-6.7,1.1-9.8c0.5-1.4,1.5-2.6,1.6-4c0.3-4.7,0.4-9.4,0.5-12.6
			c2.8-3,4.7-4.9,6.3-6.7c-2.1-2-4.6-3.3-5.2-5.3c-0.4-1.2,2-3.4,3.1-4.9c3.2-4.8-2.4-10.5,1.9-15.6c0.7-0.8-0.3-3.4-1-4.9
			c-0.9-2.2-3-4-0.3-6.6c0.7-0.6-0.1-3.3-0.9-4.7c-1.2-2.3-2.4-4.3,0.5-4.7c-3.1-9.6-2.4-18.8-0.3-28.4c-1.1-0.3-2.2-0.6-3.5-0.9
			c0.6-7.5,1.2-15.2,1.8-23.2c-0.4-0.2-1.4-0.7-1.9-0.9c0.7-4.1,1.5-7.8,1.8-11.6c0.1-1.7-0.9-3.6-1.4-5.4c-0.4-1.2-1.5-3.1-1.1-3.5
			c4.1-4.5-0.8-8.9-2.2-10c-3.3-2.5-1-4.8-1.4-7c-0.5-3.2-0.8-6.5-1.3-9.8c-0.5,0.1-0.9,0.2-1.4,0.2c1-1.1,1.9-2.1,2.9-3.2
			c-2.8-3.5-7.4-6.7-7.9-10.4c-0.7-5.5-4.6-8.2-6.6-12.4c-0.3-0.6,0-1.6,0-2.5c1.8,0.9,3.4,1.7,5,2.5c0.3-0.6,0.6-1.2,0.9-1.8
			c-1.8-0.9-3.6-1.8-6-3c1.3-1,2.2-1.7,3.4-2.7c-2.4-2.4-4.8-4.7-7.4-7.4c1.7-2.8,0.5-5.3-3.1-7.4c-1.2-0.7-1.7-2.7-2-4.4
			c-5.7-2.8-6.2-3.8-3.8-9.4c-1.9-0.5-4.5-0.4-5.6-1.6c-1.2-1.4-1.3-3.9-1.6-6c-0.3-2.2-0.2-4.4-0.6-6.5c-0.2-0.7-1.4-1.3-2.2-1.9
			c-2.2-1.5-4.2-3.1-6.5-4.3c-3.6-1.9-2.2-4.2-1.5-7c0.3-1-1.7-2.5-2.6-3.8c-1.1-1.7-2.3-3.3-3.1-5.1c-2.5-5.1-4.8-10.3-7.2-15.6
			c1.4,0.2,3.1,0.4,4.9,0.6c0.2-0.4,0.4-0.9,0.6-1.3c-1.9-1.2-3.8-2.4-5.8-3.6c2.8-2,5.2-3.7,8-5.7c0.9,1.2,2,2.7,3.3,4.4
			c-1.2,1.1-2.2,2.1-3.3,3.1c1.5,2.2,3,4.3,4.7,6.8c-2.4,1-4.3,1.7-6.2,2.4c0,0.5,0,1,0,1.5c5.6-0.9,11.2-1.7,15.5,3.2
			c0.2,1.1-6.4,3.9,1,4.1c1.7,0.1,3.4,3.5,4.1,6c1,0.2,2,0.4,2.9,0.6c-0.5,2.3,1.8,4.8,1.7,5.4c-1.7,5.3,1.7,3.8,4.3,3.7
			c0.9,0,1.7,0.5,3.8,1.3c-2.2,1.2-3.6,1.9-4.9,2.7c7,0.2,2,6.1,4.4,9.4c0.3-1.1,0.4-1.8,0.7-2.5c0.2-0.5,0.8-1.1,1.2-1.1
			c0.5,0,1.5,0.6,1.5,0.9c-0.5,2.8,2.2,5.6,1.9,7.1c-1.4,5.6,2,6.2,5.9,7.3c-0.4,0.1-0.7,0.2-1.1,0.3c-0.4,0-0.9,0-2,0
			c3.2,4.3,1.9,10.4,7.2,13.2c0.8,0.4,1.7,0.9,2.3,1.5c0.7,0.9,1.1,2,1.4,3c0.1,0.4-0.4,1.1-0.3,1.5c2.3,7.3,4,15,10.9,19.9
			c-0.5,0.2-1,0.4-1.5,0.7c1.1,2.9,1.9,6,3.4,8.7c2.4,4.4,2.6,4.4-1,5.7c2.5,5.2,5.1,10.4,7.9,16.1c-0.7,0.6-1.8,1.6-2.6,2.2
			c1.3,2.4,2.5,4.7,3.7,7.1c-3,0.9-1.2,2.4-0.7,4c1.4,4.7,2.2,9.7,3.9,14.3c1,2.7,3.6,4.9-0.4,7.5c5.4,0.5,7.5,5.9,4.8,10.6
			c1.3,4,5.7,6.8,4.2,12c-0.3,1,1.2,2.5,1.7,3.9c0.4,1,1.2,2.4,0.9,3.1c-3,6,1.5,11.5,0.9,17.4c-0.2,2.4,2.7,4.9,3.4,7.5
			c0.4,1.7-0.3,3.9-1.1,5.5c-0.5,1.1-2.2,1.6-3.6,2.6c5.6,2.1,6.6,5.6,3.4,10.2c-1.7,2.5-4.4,5-0.6,8.2c0.8,0.6,0.4,2.7,0.7,4.8
			c-4.2-3.5-7.2-6.9-6.1-12.3c0.2-1.1,1.2-2,1.4-2.3c-2.2-6.1-4.3-12-6.4-17.9c-0.4,0-0.9,0-1.3,0.1c-0.2,1.9-0.4,3.8-0.5,5.7
			c-0.1,4.6-0.3,9.2-0.3,13.7c0,1.3,0.3,2.6,0.7,3.8c2.1,6.4,2.2,6.4-0.6,12.1c1,2.2,1.7,4.2,2.7,6.1c0.7,1.3,1.7,2.3,2.7,3.4
			c2,2.1,3.4,3.8,2,7.3c-1.6,4.2-1.5,8.9-2.1,13.4c-0.4,3.2-0.6,6.5-0.8,8.3c-1.7,1.5-2.7,2.4-3.7,3.3c4.1,2.1,0.9,5,0.9,7.6
			c0,0.8,0.2,1.6,0.3,2.5c-1.6,1.2-6.9,0.9-2.3,4.9c0.2,0.1-0.5,1.2-0.7,1.8c-0.6,2.2-2.1,4.6-1.7,6.5c1,4,0.8,6.3-4,5.6
			c0.5,3.7,0.9,7.1,1.3,10.8c-3.1,2.5-6.1,5.5-3.7,10.5c0.2,0.4-0.5,1.1-0.6,1.7c-1,4.9-1.9,9.7-3,14.6c-0.3,1.4-0.9,3.2-2,3.9
			c-3.7,2.6-1.8,4.8,0.4,7.5c-2.1,2.6-4.3,5.2-6.2,7.4c1.8,1.7,3.9,3.8,6.1,5.8c-0.3,0.4-0.6,0.9-0.9,1.3c-1.5-0.4-2.9-0.9-5-1.5
			c0.5,4,1,7.9,1.4,11.1C1813.2,2758.5,1810.5,2771.3,1806.7,2782.8z"/>
		<path d="M1921.9,2378.8c4.2,2.8,8.4,5.5,12.5,8.5c1,0.7,1.4,2.3,1.9,3.5c0.8,2.1,1.4,3.8,4.2,2.2c0.8-0.5,2.3,0.4,3.5,0.6
			c0,0.4-0.1,0.9-0.1,1.3c-1.1,0.5-2.3,0.9-4.2,1.7c2.7,1.9,4.8,3.3,7,4.8c-0.5,2.7-1,5.8-1.5,8.8c0.5,0.1,1,0.2,1.5,0.3
			c0.6-1.6,1.1-3.1,1.6-4.4c5.3,8.4,10.5,16.6,16.1,25.4c-1.1,0.2-2.6,0.5-5.2,1.1c1.7,1.6,3,4,4.2,4c5.5-0.3,5.5,3.4,6,7
			c0.5,3.8,1.1,7.6,1.7,11.5c0.7,4.4,1.6,8.8,1.7,13.4c2.3,2.6,7.1,4.4,2.2,9.5c-0.4,0.4,0.4,1.8,0.5,2.8c0,2.4-0.1,4.7-0.1,7.1
			c0,1-0.6,2.6-0.1,3c3.5,3.5,1.5,9,4.7,12.6c0.5,0.6,0.4,1.8,0.7,3.1c-1-0.6-1.6-1-2.2-1.4c-0.2,0.1-0.4,0.3-0.6,0.4
			c0.7,1.1,1.2,2.8,2.2,3.3c3.7,1.8,3.4,4.2,1.9,7.4c-0.8,1.8-1.2,4.1-0.8,6c0.6,3.3,4.3,6.2-0.3,9.9c0.5,0.2,1.1,0.4,1.6,0.6
			c1.5-1.4,3.1-2.8,5.1-4.6c0.8,1.8,1.6,3.4,2.4,5.2c-2.8,1.5-5.3,2.8-7.7,4c2.7,1.9,5.3,3.4,7.3,5.4c0.4,0.4-1.2,2.9-2.2,5.2
			c0.2,1.9,0.6,4.8,1,7.7c0.6,5.9,2.2,11.4,0.3,17.7c-1.2,4.2,1.1,9.3,1.4,14.1c0.2,2.4-0.6,4.9-0.7,7.4c-0.2,3.9,0,7.9-0.3,11.8
			c-0.3,4-1.3,8-1.7,12c-0.3,2.8,0.6,5.8-0.3,8.3c-2.5,7.5-3.2,15.1-3.1,22.9c0,4,0.3,7.9,0.3,11.9c0,0.8-0.7,1.8-1.4,2.4
			c-3.7,3.2-3.6,4.5,0.8,6.7c-0.9,0.1-1.6,0.2-2.3,0.3c1.6,4.3-4,7.6-1,12.8c1.6,2.8-1.2,8.1-2.2,12.3c-0.6,2.4-3.2,5.1,1.6,6.8
			c-2.1,3.9-4.5,7.5-6,11.4c-0.7,1.6,0.3,3.9,0.6,6.3c-1.4,0.3-2.9,0.5-4.7,0.8c0.9,4.5,4.4,9.4-2.6,12.3c1.3,1.5,2.4,2.7,3.5,4
			c-2.1,7.8-4.2,15.6-6.4,23.4c-2.6-0.2-4.8-0.4-7.1-0.6c-0.5,4.8-8.4,6.8-4.6,13.1c-2.9,1.2-5.6,2.4-8.6,3.6c3,4.4,1.3,6.9-2.5,8.3
			c-0.1,2.4,5.1,6.9-2.5,5.7c-0.5-0.1-1.4,2.6-1.7,3.2c1,2.1,1.7,3.6,2.4,5.1c-2.8,0.2-5.6,0.4-9.3,0.6c0,0-0.4,1.1-1.2,2.8
			c-0.5-0.7-1-1-1-1.4c-0.2-0.9-0.5-2.3-0.1-2.8c3-3.5,1.7-8,3.1-11.9c1.2-3.5,1.5-7.2,2.3-11.4c0.8,0.5,2.4,1.7,4.8,3.4
			c-0.3-2.1,0-3.9-0.6-4.4c-3.3-2.5-3.4-4.5-0.4-7.6c1.4-1.4,0.9-4.7,1.3-7.5c0.9,0.6,2,1.3,3.5,2.3c-0.4-3.3-1.3-6.2-0.9-8.8
			c0.2-1.2,3-2,4-2.7c1-5.1,1.9-10.4,3-16c1.5,0.5,2.5,0.7,3.2,0.9c-0.3-2.4-1.1-4.8-0.7-7.1c0.3-2.1,1.7-4.1,2.9-6.5
			c0.5-0.1,1.6-0.3,2.2-0.4c-0.6-3-1.1-5.7-1.5-7.8c2.3-1.1,4.7-1.5,4.9-2.4c0.3-1.4-0.9-3.2-1.5-5c0-3,0.1-6.4,0.2-10.7
			c1.4,1.5,2,2.1,2.6,2.7c0.3-0.5,0.5-0.8,0.6-1c0.5-3.3,0.2-6.9,1.5-9.8c1.9-4,2.1-8.4,2-12.3c-0.1-4.7,1.7-8.7,2.2-13.2
			c0.5-5.2,0.7-10.5,1-15.7c0-0.3-0.2-0.8,0-0.9c6-6.5,1.1-14.5,3-21.5c0.5-2,2-4,2.1-6c0.1-3.9,1.7-7.8-1.9-11.7
			c-1.2-1.3,1.3-6.1,2.1-9c-0.3-4.5-0.5-9.2-0.9-14.5c0.2,0-1-0.1-2.7-0.3c0.3-2.2,0-4.5,0.9-6.2c2-3.7,1.5-6.1-0.7-6.9
			c-1.1-4.7-2.2-8.1-2.6-11.5c-0.3-2.1,0.4-4.3,0.8-7.4c-2.4-1.4-1.1-2.9,2.7-3.8c-2.1-1.2-3.6-2-5.2-2.9c0.6-2.5,1.1-4.8,1.4-5.7
			c-2-2.3-5.2-4.5-4.9-5.8c1.3-5.8-2.2-10.3-3.1-15.4c-0.5-3.1,0.3-3.8,4.9-3.3c-2.6-3.3-5.1-6.4-7.5-9.5c4.7-4.5,4.7-4.5-3.6-9.5
			c1.7-0.9,3-1.6,4.3-2.2c-2.5-8-5.1-16.2-7.9-24.8c0.1,0-0.9,0.2-1.9,0.3c0.2-2.8,0.4-5.4,0.5-8.1c1.6-1.9,4.9-3.7,2.5-9
			c-1.3,2.1-2.2,3.4-3.6,5.6c-0.4-3-0.6-4.9-1-7.9c-1,0.1-3,0.2-4.9,0.3c0.2-2.6,0.5-5.5,0.8-8.7c-1.8-0.3-3.2-0.5-4.6-0.7
			c-0.2-0.4-0.3-0.9-0.5-1.3c1.8-0.8,3.5-1.7,4.4-2.1c0.9-2,1.6-3.7,2.5-5.3c1.4-2.6,3.5-4.3-1.2-6.8c-2.5-1.3-2.5-7.2-3.9-10.8
			c-0.8-2.1-2.4-3.9-3.7-5.7c-0.2-0.2-0.9-0.3-0.9-0.3c1.4-5.6-5.2-8-5.1-12.9c0-1.1,1-2.1,1.5-3.2
			C1924.5,2389.2,1921.5,2384.8,1921.9,2378.8L1921.9,2378.8z M1944.3,2440.2c2,3.3,4,6.5,6.5,10.6c3-6.2,0.1-9.5-2.9-13
			C1946.6,2438.7,1945.5,2439.4,1944.3,2440.2z"/>
		<path d="M555.8,2596.5c1.6-4.1,3-7.6,4.3-10.8c-0.7-5.2-1.3-10.7-2-16.3c0.2,0,0.5,0,0.7,0c-1.1-1.7-2.2-3.3-3.3-5
			c0.4-0.5,0.8-1,1.2-1.5c1.4,0.9,2.9,1.8,4.3,2.7c0.2-0.2,0.4-0.3,0.7-0.5c-1.9-3.7-3.9-7.3-5.8-11c-0.2-0.5-0.4-1.4-0.2-1.7
			c4.3-4.8,2.4-9.3-0.7-14.1c3.3-2.2,2.7-4.6,1.1-7.9c-1-1.9,0.2-4.8,0-7.2c-0.1-1.4-0.9-3.7-1.7-3.8c-1.7-0.4-3.8,0.1-5.5,0.8
			c-1,0.4-1.6,1.8-2.3,2.7c1.5,4.5,3.4,8.9-0.3,13.3c-6.7-5.9-7-17.5-0.8-24.5c-1.4-1.5-2.9-3-5.3-5.6c3.9-2,7.5-3.8,11.4-5.8
			c-3-1.7-5.5-3.1-8.2-4.6c4.6-0.1-1.8-9.2,7.5-6.5c-2.5-1.7-3.7-2.5-4.8-3.2c0.3-0.1,0.6-0.3,0.9-0.4c-0.6-1.9-1.1-3.7-1.9-6.4
			c4.2,3.3,8.5,4.9,11.6,0.2c2.1-3.1-1.3-7.5-7.2-10.2c1.8-1.8,3.7-3.4,5.2-5.4c0.9-1.3,1.9-3.4,1.4-4.6c-3.5-8-1.1-15.2,2.1-22.5
			c0.6-1.3,0.5-2.8,0.6-4.2c0-0.3-0.6-0.6-0.5-0.8c0.8-5.7,1.7-11.3,2.6-17.4c-5.2-3.2-3.3-15.1,4.8-23.6c-1.3-2.9-3.8-5.5,0.5-8.5
			c1.4-1,1.2-4.3,1.9-7c-0.1,0,0.9,0,1.8-0.1c-1.5-6.4,5.6-6.9,7.4-11.1c-0.9-0.6-2-1.2-3.2-2c-0.5,0.9-1.1,1.8-1.7,2.9
			c-0.5-0.7-1.1-1.3-1-1.5c3.8-6.1,5.6-13.2,10.7-18.5c0.3-0.3,1.2-0.2,0.3-0.1c1.3-4,2.3-7.1,3.2-10.2c0.6-2.1,0.8-4.5,1.7-6.5
			c2.7-6.5,5.5-12.9,8.6-19.2c1.6-3.3,0.8-8,5.6-9.5c0.3-0.1-0.3-3-0.4-3.7c2.8-1.8,5.1-3.2,7.7-4.9c-1.4-0.9-2.6-1.7-3.4-2.2
			c5.1-7.7,12.1-13.8,17.5-21.5c1.1,0.1,2.8,0.3,5.2,0.5c-1.5-5.5,0.6-8,5.7-8.5c5.1-0.4,4.7-4,3.8-9c2.8,0.8,5,1.4,7.7,2.2
			c0.7-1.4,1.7-3.3,2.9-5.5c1.9,1.3,3.5,3,5.6,3.7c4.4,1.7,2.3,4.8,0.8,6.2c-3.8,3.8-8.3,6.9-12.6,10.2c-0.4,0.3-1.4-0.1-2.1-0.2
			c-0.4,2.5,3.7,5.5-1.4,7.7c-0.7,0.3-3.4,3-4.2,4.3c-3.2,5.9-8.5,10.2-11.7,15.9c-0.9,1.7-2.5,3-4.3,5c0.7,0.9,1.9,2.8,3.5,5
			c-4.9,1.6-5.6,5.2-4.8,9.4c0.2,0.9,0.3,2.1-0.2,2.8c-3.4,4.6-7,9.1-10.4,13.5c0-0.1-0.7-1.1-1.4-2.1c-0.5,0.1-0.9,0.2-1.4,0.3
			c0.1,3.4,0.2,6.7,0.3,9.9c-0.8-0.5-2-1.3-3.2-2c-0.4,0.1-0.9,0.3-1.3,0.4c0.4,2.1,0.8,4.1,1.2,6c-4.5,0.1-6.9,2.5-5.7,7.9
			c1.1,5.3-1.4,8.7-4.2,12.1c-2.2,2.6-3.9,4.4-1.7,8c1,1.7,0.2,4.5,0.3,6.7c-0.5-0.4-1-0.8-1.5-1.3c-2,0.9-3.9,1.7-5.9,2.6
			c0.1,0.4,0.2,0.8,0.4,1.2c1.2-0.1,2.4-0.3,3.7-0.5c-0.7,2.3-1.4,4.5-2.2,6.9c-0.7-0.3-1.7-0.6-1.6-0.6c-2.1,2.8-4.1,4.7-5.2,7.1
			c-1.2,2.6-1.5,5.7-2.3,8.9c-0.5-0.2-1.1-0.5-3-1.2c0.2,6.2,0.5,12.1,0.8,18.8c-2.8,1.8-2.6,13.8,1.3,16.2
			c-2.1,2.9-5.2,5.5-6.1,8.7c-1.3,4.7,5.5,1.6,6.8,5.6c-2.3-0.4-4.1-0.6-7.2-1.1c3.2,5.2,5.7,9.3,8.5,13.9c-1.8,0.1-3.2,0.1-5.7,0.2
			c2,1.5,3.2,2.4,4.5,3.3c-3.3,2.9-5.6,5.5-3.6,10.5c0.7,1.9,0.5,5.9-2,8.5c-1.1,1.1-1.1,3.3-1.6,5.1c1.5,1,3,2,4.5,3
			c-0.2,0.4-0.3,0.7-0.5,1.1c-0.8-0.3-1.6-0.6-2.8-1c1.5,1.5-2.8,3.9,1.3,4.9c0.1,0,0.1,0.4,0.1,0.4c-4.2,5.4,1.8,11.7-0.4,15.9
			c-2.2,4.1-1.3,7.4-1.2,10.9c0.2,7.2,0.7,14.3,1.5,21.5c0.4,3.3,1.7,6.5,2.6,9.8c0.2,0.8,0.2,2-0.2,2.4c-3.3,2.8-2.3,5,0.1,7.9
			c0.9,1-0.7,3.9-0.5,5.8c0.2,1.9,1.3,3.7,1.8,5.6c0.4,1.6,1.4,4.1,0.7,4.8c-2.9,3,0.1,3.5,0.8,4.1c1.1,8.7,2.1,16.7,3.1,24.9
			c-1,0.9-2.2,2-3.3,3.1c5.3,3.8,9.1,8,7.6,14.9c-0.2,0.7,0.2,1.6,0.4,2.4c1,3.9,1.9,7.9,2.9,11.9c-7.3,2.5-1.2,5.6-0.2,7.5
			c-2.1,0.6-4,1.7-5.7,1.5c-1-0.1-1.7-2.4-2.9-4.2c-1.8,0.3-5.3,6-3.2,7.5c3.1,2.2,1.5,3.5,0.6,5.5c-0.2,0.4,0.5,1.2,0.5,1.7
			c0,1.4-0.1,2.9-1.3,4c-1.6-4.6-3.3-9.1-5.1-14.1c-0.5-0.2-2-0.6-3.8-1.2c4.9-5.1,4.7-6.5-1.4-9.5c1.2-1,2.5-1.7,3.3-2.9
			c0.4-0.6,0-2-0.5-2.8c-1.5-2.4-3.4-4.6-4.9-7.1c-0.4-0.7-0.4-2.4,0.1-2.7c3.9-2.8,0.7-4-1.2-5.4c0.6-0.9,1.2-1.6,1.7-2.4
			c-0.5,0.1-1,0.1-1.4,0.2c-0.4-2.3-1.2-4.5-1.3-6.8c-0.2-4.2-0.7-8.5,0.3-12.4C560.5,2597.4,559.3,2596.9,555.8,2596.5z
			 M550.6,2504.7c0.4,2.2,0.9,4.2,1,6.2c0.3,4.7,2.1,5.9,5.2,4c-0.6-2.8-1.1-5.4-1.8-8.9C554,2505.7,552,2505.1,550.6,2504.7z
			 M575,2622.8c0.9,3.7,1.7,7.2,2.5,10.6c0.3,0,0.6,0,1,0c1.2-2.9,2.3-5.8,3.6-8.9C579.7,2623.9,577.6,2623.4,575,2622.8z"/>
		<path d="M1742.1,2861c0.3-1.3,0.2-2.8,1-3.7c1-1.1,2.5-1.9,3.9-2.4c0.3-0.1,1.3,1.9,1.9,2.9c0.6,0.8,1.2,1.7,2.4,2.3
			c-4.3-8-0.3-13.4,5.4-18c0.8,2.6,1.7,5.7,2.5,8.1c-1.4-0.4-3.6-1.6-5.5-1.2c-1.8,0.4-0.5,5.4,2.4,9.3c3.4,0.7,4.2-8.5,8.9-2.6
			c0.1,4.7-8.9,2.3-5,10.1c-3.2-2.2-4.9-3.4-7.3-5c-0.6,2-1,3.7-1.4,5.1c2.5,0.7,4.6,1.2,7.7,2.1c-3.2,1.5-4.9,2.3-7.3,3.4
			c-2-3.9-4.1-8.1-6.1-12.2c-1,0.5-2.3,1.2-3.6,1.8L1742.1,2861z"/>
		<path d="M1742,2860.9c0.8,4.2,1.5,8.3,2.3,12.6c-2.7,0.7-4.8,1.3-7.5,2c0.9,1.3,1.9,2.5,3.1,4.1c-2,3.4-4,7.1-6.3,10.6
			c-1.6,2.4-3.9,1-5.7-3.6c1.2-0.4,2.4-0.7,3.6-1.1c-1.3-2.4-2.7-4.8-3.9-7.2c2.6-0.3,5.3-0.7,7.8-1c-0.2-2-1.4-4.6-0.5-6.1
			c0.7-1.1,3.8-0.7,6.5-1c0.1-0.7,0.2-2.4,0.4-4.5c-1.2,0-2.4-0.1-3.6-0.1c-0.3-0.4-0.6-0.8-0.9-1.2c1.6-1.2,3.3-2.4,4.9-3.7
			C1742.1,2861,1742,2860.9,1742,2860.9z"/>
		<path d="M538.4,2544.2c1.5,0.6,3,1.3,4.7,2c0-0.8,0.1-1.1-0.1-1.3c-1.3-1.6-2.6-3.1-3.8-4.6c2,0,4.1,0.3,6.1,0
			c1.3-0.2,2.5-1.3,4.2-2.2c0.2,2.4,0.3,4.4,0.5,6.4c-0.3-0.1-0.6-0.2-0.9-0.4c-1.8,4.4-3.7,8.8-5.7,13.6c5.4-0.9,5.4-0.9,5.8,2.1
			c-2.7,0.7-5.4,1.4-8,2.1c0.1-1.2,0.2-3.6-4.8-0.9C540.8,2554.9,542,2549.7,538.4,2544.2z"/>
		<path d="M862.1,2240.7c-2.4,4.1-4.5,7.7-7.2,12.4c-1-3.5-1.5-5.5-2.1-7.7c5.8-2.1,2.7-5,0.9-7.6c2.1-2.5,4.2-5,6.2-7.4
			c1.5,1.3,3.1,2.8,4.7,4.2c0.4-0.4,0.8-0.7,1.2-1.1c-0.3-1.5-0.6-3.1-0.9-4.6c0.4-0.1,0.8-0.2,1.2-0.3c0.4,2,1.8,4.4,1.1,5.8
			C865.8,2237.1,866.5,2242.4,862.1,2240.7z"/>
		<path d="M578.5,2656.8c1.8-0.6,3.5-1.2,5.7-1.9c0.7,2.1,1.4,4.3,2.2,6.5c-0.4,0.3-0.8,0.5-1.2,0.8c1.3,0.3,2.7,0.5,5.3,1
			c-1.6,1.3-3,3.1-3.6,2.9c-2.5-1.1-4.9-2.5-6.9-4.4C579,2660.8,579,2658.7,578.5,2656.8z"/>
		<path d="M545.5,2562.5c0,2.4,0.5,4.9-0.1,7.2c-0.7,2.9-2.3,5.6-3.3,8.2C538.5,2575.2,538.5,2575.2,545.5,2562.5z"/>
		<path d="M668.5,2239.1c-2.1,1.1-3.3,1.9-4.6,2.4c-1.2,0.5-2.5,0.7-3.7,1c0.2-1.5,0.3-3.1,0.6-4.6c0-0.2,0.5-0.3,0.8-0.5
			c1.3-1.2,2.5-2.5,3.8-3.7C666.5,2235.6,667.5,2237.4,668.5,2239.1z"/>
		<path d="M1921.9,2378.8c-0.4-2.1-0.9-4.2-1.2-5.7c-1.8-0.6-3.5-1.2-5.1-1.8c7.7-0.6,13.2,2,13.3,10.8c-1.3-2-2.7-4.1-4.3-6.6
			C1923.5,2376.8,1922.7,2377.8,1921.9,2378.8C1921.9,2378.8,1921.9,2378.8,1921.9,2378.8z"/>
		<path d="M846.6,2257.2c0.6-2.8,1.3-5.5,1.8-7.5c1.8,2.1,3.9,4.5,5.5,6.4c-1,0.6-2.4,1.8-4.1,2.3c-0.9,0.3-2.2-0.8-3.3-1.3
			C846.5,2257.1,846.6,2257.2,846.6,2257.2z"/>
		<path d="M661.1,2247.5c-4.7,0.5-8-0.2-5.7-6.6C657.7,2243.5,659.4,2245.5,661.1,2247.5z"/>
		<path d="M759.5,2358.2c-0.4,1.3-0.8,2.6-0.8,2.7c-2.7,0.1-4.3,0.2-6,0.3c-3.5-3,1.1-4.7,0.8-6.9
			C755.7,2355.7,757.6,2357,759.5,2358.2z"/>
		<path d="M779.6,2856.7c-1.5,2.5-2.5,4.2-3.8,6.3c-1.3-1.4-2.5-2.8-4.1-4.5C774.6,2857.8,776.7,2857.4,779.6,2856.7z"/>
	</g>
	<g>
		<g>
			<path d="M1207.7,2206.3c10.7-1.3,21.3-2.7,32-4c1.2,0,2.4,0.2,3.6,0.1c42.5-3.3,84.6,0,125.8,10.9
				c103,27.2,183,86.1,239.5,176.4c22.7,36.2,38.4,75.5,47.8,117.2c1.8,7.8,3.4,15.7,5,23.6c1.3,10.7,2.7,21.3,4,32
				c0,1.6-0.1,3.1,0,4.7c2.3,29.7,1.3,59.2-3.6,88.6c-17.7,106.4-69.8,192.1-156,256.9c-43.5,32.6-92.1,54.5-145.1,66.6
				c-7.6,1.7-15.2,3.3-22.8,5c-11.1,1.4-22.3,2.8-33.4,4.2c-1.2,0-2.4-0.2-3.6-0.1c-42.2,3.2-83.9-0.1-124.7-10.9
				c-103.2-27.2-183.2-86.1-239.9-176.6c-22.7-36.3-38.4-75.5-47.8-117.2c-1.7-7.6-3.3-15.2-4.9-22.8c-1.4-11.1-2.8-22.3-4.2-33.4
				c0-1.4,0.2-2.9,0.1-4.3c-2.2-29.5-1.1-59,3.6-88.2c15.7-96.2,60.6-176.3,134.5-239.8c48.5-41.7,104.3-69.3,166.6-83.6
				C1191.9,2209.5,1199.8,2207.9,1207.7,2206.3z" style="fill:#0185D0;"/>
		</g>
	</g>
	<g>
		<path d="M1231.6,2362.1c7.5-0.9,14.9-1.9,22.4-2.8c0.9,0,1.9,0.2,2.8,0.1c13.2-0.9,26.4-0.8,39.5,0.7
			c65.1,7.5,118.5,36.7,159.9,87.4c22.2,27.1,37,58.1,45.1,92.2c1.2,5.1,2.3,10.2,3.4,15.3c0.9,7.1,1.8,14.2,2.7,21.4
			c0,1.2,0,2.4,0,3.6c-0.2,12.3,0.6,24.7-0.6,36.9c-6.4,64.1-34.5,117.2-83.5,159c-28.1,23.9-60.3,39.9-96.2,48.5
			c-4.9,1.2-9.9,2.2-14.8,3.4c-7.5,0.9-14.9,1.9-22.4,2.8c-0.9,0-1.9-0.2-2.8-0.1c-13.3,1-26.6,0.8-39.8-0.8
			c-67.1-7.8-121.5-38.5-163.1-91.7c-20.4-26.1-34.1-55.6-41.7-87.8c-1.2-5.1-2.3-10.2-3.4-15.3c-0.9-7.1-1.8-14.2-2.7-21.4
			c0-1.1,0.1-2.3,0-3.4c-0.9-13.3-0.8-26.6,0.8-39.8c7.2-63,35-115.1,83.1-156.2c28.1-24,60.4-40,96.4-48.6
			C1221.8,2364.3,1226.7,2363.3,1231.6,2362.1z" style="fill:#D3E9EF;"/>
	</g>
	<g>
		<path d="M1285.2,2479c-1.9,0.7-3.7,1.8-6.1,0.1c0.7,2.1,1.1,3.7,1.7,5.6c0.6-1.1,0.8-1.8,1.3-2.4c0.4-0.5,1.1-0.8,1.7-1.2
			c0.3,0.5,1,1.1,1,1.6c-0.2,1.7-0.6,3.4,0.9,4.9c0.2,0.2,0,0.9,0,0.9c-2.6,0-1.4,1.6-0.4,3.1c-1.2-0.4-1.6-0.6-2-0.7
			c-0.1,0.1-0.2,0.2-0.3,0.3c1,1.1,2.1,2.2,3.2,3.4c-1.3,1-4.2,0.4-3.8,3.2c0.1,0.5,0.8,0.9,1.5,1.6c-1,1.2-1,2.4,1.1,3.1
			c0.3,0.1,0.7,1,0.6,1.4c-0.4,1.2-1.1,2.3-1.8,3.7c0.1,0,0.7,0.4,1.4,0.8c-0.5,4-1.1,8.1-1.7,12.1c0.6,0.4,1.3,0.8,2.3,1.5
			c-3.7,1.4-3.8,1.8-1.6,4.5c0.5,0.7,0.7,2.6,0.4,2.7c-1.7,0.9-1.2,2.3-0.8,3.3c1,2.5-1.3,4.5-0.2,6.7c0.2,0.8,1,2,0.7,2.4
			c-2.4,3.1-0.2,6.4-0.8,9.5c-0.5,2.6,0.9,5.1-0.2,7.8c-0.5,1.3,0.3,3,0.4,4.2c0.7,1.5,1.3,2.7,2,4.3c-0.8-0.8-1.2-1.1-1.6-1.5
			c-0.3,0.3-0.7,0.6-1,0.9c0.9,1.7,1.9,3.3,3,5.4c-0.8,1.1-0.7,4.2-4.1,3.9c-2.5-0.2-5.1,1.7-7.3-0.7c-3.5,2.6-5.1,2.7-7,0.1
			c-0.3,0.8-0.5,1.5-0.7,2.2c-3.1,0.4-6.1,0.8-8.5,1.1c0-1.7,0-3.2,0-4.7c0-2.6-0.3-5.4,0.2-7.9c0.6-2.9-0.1-5.5-0.2-8.3
			c0-0.9,0.6-1.8,0.6-2.7c0-1.6-0.4-3.2-0.6-5.3c1.8-1.6,1.1-4.4,0.8-7.1c-0.3-2.5-1-5.1-1-7.6c0-1.3,1.3-2.6,2-4
			c-1.3-0.1-2.3-0.2-3.4-0.3c0-0.3,0-0.5-0.1-0.8c1-0.7,1.9-1.3,3.3-2.2c-0.7-0.2-1.2-0.4-2.1-0.6c1-0.5,1.4-0.7,1.8-0.9
			c-0.4-0.8-0.6-2.1-1.1-2.3c-1.7-0.5-0.4-1.9-1-2.7c-0.5-0.7-0.2-1.9-0.3-3.5c0-0.4,0-1.4,0-2.4c0-0.5,0.3-1,0.4-1.5
			c0.5,0.2,1,0.3,1.6,0.5c0,0,0.3-0.6,0.6-1.4c-0.9-0.3-1.7-0.5-2.6-0.8c1.1-1.7,3.3-3.7,2.9-4.6c-1.2-2.7,0.4-5.2,0-7.7
			c-0.2-1.1,0.6-2.5-1.3-2.9c-0.2,0-0.4-1.2-0.1-1.7c0.3-0.5,1-0.7,2-1.2c-0.1-1.2-0.8-3.4-0.1-4.4c1.7-2.4-1.8-5,0.7-7
			c0.1,0-0.3-0.5-0.4-0.9c-0.2-1.6-0.7-3-0.2-4.8c0.5-1.7-0.3-3.8-0.5-5.7c-0.2-1.7-1.4-3.6,0.9-4.9c0.2-0.1,0.3-1.2,0-1.5
			c-1.3-1.5-1.4-2.9-0.7-4.7c0.4-0.9-0.2-2.2-0.3-3.3c-0.3,0-0.5,0-0.8,0c0.3-1,0.7-2,1-3c1.3,0.2,2.6,0.4,3.8,0.6
			c0.1-0.2,0.1-0.4,0.2-0.6c-0.7-0.4-1.4-0.9-2.5-1.6c1-0.7,1.7-1,2.3-1.6c0.4-0.3,1-1.2,0.9-1.2c-1.7-1.6,0-2.3,0.6-3.5
			c0.7-1.4,0.5-3.2,0.8-4.7c0.2-1.1,0.6-2.1,0.8-3.1c0.1-0.5-0.3-1-0.5-1.9c2.3,0.8,4.6,2.6,7.1-0.2c-1-0.4-1.9-0.8-3.4-1.4
			c1.1-0.8,2.1-1.5,3.2-2.3c0.2,0.3,0.4,0.5,0.5,0.8c-0.5,0.3-1.1,0.7-1.7,1.1c1.7,1,3.4,2,5.1,2.9c0.3-0.2,0.5-0.3,0.8-0.5
			c0.1,1.7,0.2,3.5,0.3,5.2c0.2,2.4,3.3,4.1,1.4,7.2c2.3,1.7,2.3,3.6,1,6c-0.1,0.1,2,1.5,3.3,2.4c-0.8,1.9-0.6,5-4.9,3.7
			c0.1,0.3,0.3,0.6,0.4,0.9c1.5,0.2,3,0.3,5.1,0.6c-0.6,1.1-1.3,1.9-1.4,2.9c-0.1,1.1,0.2,2.3,0.4,3.8c-4.2-0.3-4.7,2.6-4.3,5.4
			C1282.1,2476.6,1283.6,2477.8,1285.2,2479z M1281.9,2489.7c0.2-0.4,0.9-1,1-1.8c0.1-0.6-0.4-1.6-0.8-1.8c-1.1-0.3-2.4-0.3-3.3-0.3
			C1279.7,2487,1280.7,2488.2,1281.9,2489.7z"/>
		<path d="M1433.5,2679.1c-0.2,0.5-0.4,1-0.6,1.4c4.3,3.4,9.3,5.4,14.6,6.9c-0.7,0.3-1.1,0.5-2.2,1c2.9,0.5,5.4,0.8,3.7,4.8
			c-1.8-1.4-3.4-2.7-5.4-4.3c-3.1,0.5-3.5,0.3-3.3-3.2c-1.5,0.7-2.7,1.4-4.1,1.8c-0.7,0.2-1.5-0.3-2.3-0.5c0.2-0.6,0.4-1.2,0.6-1.8
			c0.1-0.3,0.2-1,0.2-1c-0.5-0.2-1-0.3-1.5-0.3c-1-0.1-2,0-3-0.3c-0.9-0.2-1.8-0.8-2.9-1.3c-0.3-0.4-0.8-1.4-1.5-1.7
			c-0.6-0.2-1.5,0.5-2.4,0.8c-0.1-0.2-0.4-0.8-0.7-1.4c-3,0.8-5.1,0.1-5.7-2.2c-0.2-0.9,0.4-1.9,0.4-2.9c0-0.7-0.4-1.4-0.7-2.1
			c-0.3,0.6-0.7,1.1-0.8,1.8c-0.2,0.8-0.2,1.7-0.3,3c-1.2-0.6-2.2-1.1-3-1.6c0.6-2.3,1.2-4.2,1.7-6.1c-2.7,0.6-3.6,2.1-2.2,4.8
			c-1.1,0.3-2,0.5-3,0.8c0-0.8,0-1.3,0-1.8c-2.2-0.4-4.3-0.9-6.7-1.3c1.4-3.6,4.8-0.3,6.4-2.4c-1.2-1-2.3-1.9-2.8-2.3
			c-1.7,0.6-3,1-4.4,1.5c-0.2-0.5-0.5-1.1-0.8-1.7c-0.6,0.2-1.3,0.5-2.1,0.8c-0.1-1-0.2-1.8-0.3-2.4c-2.6-0.4-5.1-0.7-7.3-1
			c-0.6-0.7-1-1.6-1.6-1.8c-2.2-0.9-4.4-1.6-6.8-2.2c-1.2-1.4-2.4-2.7-4.8-2.5c-0.8,0.1-1.7-1-2.4-1.7c-0.6-0.7-0.7-2.2-2.2-0.9
			c-0.1,0.1-1.3-1.1-1.5-1.3c-1.9-0.6-3.8-0.7-4.8-1.6c-2.1-1.9-4.2-2.9-7.1-3.2c-1.6-0.2-3-1.6-4.5-2.6c-0.7-0.4-1.3-1.2-2-1.4
			c-3.4-0.9-6.4-2.2-8.9-4.7c-0.6-0.6-2-0.2-3.1,0.1c-1.3-0.4-1.6-2.5-4-2c-1,0.2-2.3-1.7-3.5-2.4c-1.8-1.2-4.5-1-5.7-3.4
			c-0.2-0.3-1.2-0.5-1.7-0.3c-2.2,0.9-3.4-0.2-4.4-1.9c-1.8-2.9-5-3.4-7.9-4.5c-1-0.4-2-0.9-3.2-1.4c-2.1,1.8-2.7-2-4.6-2.1
			c0.4-0.3,0.9-0.6,1.5-1c-1.7-0.6-3.3-1.1-4.8-1.6c0-0.3,0-0.6,0.1-0.9c-0.6,0.4-1.3,0.7-1.4,0.8c-2.2-1.7-4.2-3.2-6.8-5.2
			c1.8-0.8,3.2-1.4,5.1-2.3c-0.5,1.2-0.9,2.1-1,2.4c1.9,0.3,3.9,0.6,6.6,1.1c-2.6-1.8-4.8-3.3-7.5-5.3c1.1-1.5,2.4-3.1,3.9-5.2
			c-0.4-1,0.9-3.3,2.6-3.3c0.3,0,0.8,0,1,0.3c2,2.6,5.2,2.4,7.9,3.5c1.8,0.8,4.8,0.9,4.7,3.3c3.4,1.6,6.5,3,9.3,4.3
			c-0.4,1.2-0.6,1.9-0.9,2.6c1.8-1.9,2.3-2.4,6.3,1.4c0-0.8-0.1-1.3-0.1-2.1c1.6,1.4,2.4,3.4,4.9,2.8c0.4-0.1,1.5,0.5,1.6,1
			c0.5,2.3,2,2.6,4,2.2c0.4-0.1,0.9,0.2,1.6,0.4c-0.1-0.8-0.2-1.3-0.2-2c1.9,0.5,1.1,4.5,4.6,2.8c-0.3,1.3-0.5,2.3-0.8,3.8
			c1.5-0.2,2.9-0.4,4.6-0.6c0.1,0.6,0.2,1.7,0.4,3.1c3.2-1.6,4.1,1.8,6.1,2.8c1.4,0.7,2.4,2.2,3.6,3.1c1.5,1.2,3.2,2.3,5,3.5
			c-0.1-0.9-0.2-1.6-0.3-2.4c0.2,0,0.4-0.1,0.7-0.1c0.1,1.2,0.3,2.3,0.5,3.6c1.4,0.5,3.1,2.8,4.2-0.6c1.3,3.2,13.1,10.4,16.9,10.1
			c0.1,0.7,0.2,1.5,0.3,2.6c0.8-0.7,1.4-1.1,2.1-1.6c0.1,0.9,0.2,1.5,0.2,1.8c4.2,1.6,8.7,2.4,11.3,6.9c0.3-0.6,0.6-1.1,1.1-1.9
			c1.1,2.1,2.4,2.7,4.8,2.5c1.2-0.1,2.6,2.1,3.9,3.4c0.4,0.4,0.4,1,1.1,1.5c0.1-0.6,0.2-1.1,0.3-1.8c0.7,0.3,1.3,0.6,2,0.9
			c-0.5,0.5-0.9,0.8-1.3,1.2c0.2,0.1,0.4,0.3,0.5,0.3c3.4-0.6,6,1.7,8.9,2.6c0.7,0.2,1,1.4,1.7,1.9c0.6,0.5,1.5,0.6,2.3,0.9
			c0.7,0.3,1.3,0.7,2,1.1c3.4,2.2,6.9,4.3,10.3,6.5c1.2,0.8,2.2,1.9,3.8,3.2c-1.3,0.8-2.4,1.4-3.5,2
			C1440.3,2680.9,1435.5,2678.5,1433.5,2679.1c-0.3-0.7-0.5-1.4-0.9-2.1c-0.3-0.5-0.7-0.9-1.2-1.3c-0.1,0-0.7,0.5-0.7,0.6
			c0.3,0.5,0.6,0.9,1.5,2c-2-0.7-3.5-1.3-5.3-1.9C1428.6,2679.8,1431,2679.8,1433.5,2679.1z M1329.3,2628.7
			c-0.2,0.1-0.4,0.2-0.6,0.3c-0.6-0.4-1.4-0.7-1.8-1.2c-1.1-1.4-2-3-4.3-2.2c0.1,0.5,0.1,1,0.2,1.5c0.6,2.8,0.9,2.9,3.9,2.6
			c0.3,0,0.9,0.5,1,0.9c0.5,1.2,4,3.9,5.1,3.4c1.7-0.8,2.3,0.2,3.1,1.2c0.5,0.6,1.2,0.9,1.8,1.4c0.3-0.3,0.5-0.7,0.8-1
			c-1.4-1.5-2.9-3-4.2-4.4c-1,0.4-1.7,0.7-1.9,0.8c-1.2-0.7-1.8-1.2-2.9-1.8C1329.5,2630,1329.4,2629.4,1329.3,2628.7z
			 M1312.1,2619.1c-0.2,0.2-0.3,0.4-0.5,0.6c0.3,1.1,0.5,2.3,0.7,3c1.2,0.2,2.2,0.4,3.9,0.8
			C1314.5,2621.7,1313.3,2620.4,1312.1,2619.1z M1422.1,2676.2c0.3,0.3,0.6,0.7,0.9,1c0.6-0.6,1.2-1.1,1.9-1.7
			c0.4,0.3,0.9,0.6,1.4,0.9c0.1-0.2,0.3-0.4,0.4-0.6c-0.7-0.5-1.5-1.4-2.1-1.3C1423.6,2674.7,1422.9,2675.6,1422.1,2676.2z"/>
	</g>
	<g>
		<g>
			<path d="M1281,2630.6c-2.8,0.3-5.6,0.7-8.3,1c-0.5-0.1-1-0.3-1.5-0.3c-14.6-0.9-25.1-8-31.7-21
				c-1-2.1-1.7-4.4-2.6-6.5c-0.3-2.8-0.7-5.6-1-8.3c0.1-0.6,0.2-1.2,0.3-1.8c1-14.4,8-24.8,20.8-31.3c2.2-1.1,4.5-1.8,6.8-2.7
				c2.8-0.3,5.6-0.7,8.3-1c0.5,0.1,1,0.3,1.5,0.3c14.6,0.9,25.1,8,31.7,21c1,2.1,1.7,4.4,2.6,6.5c0.3,2.8,0.7,5.6,1,8.3
				c-0.1,0.7-0.2,1.4-0.3,2.1c-1,13.7-7.6,23.9-19.6,30.4C1286.4,2628.7,1283.6,2629.5,1281,2630.6z" style="fill:#F1592B;"/>
		</g>
	</g>
	<polygon points="2220.7,1010.8 2065.8,878.8 1935.4,879.9 1889.8,903.4 1869.6,924.8 1625.3,1085.1 1298.3,1258.9 
		1343.3,1314.7 1361.2,1334.9 1400,1427.6 1435,1451.7 1451.7,1458.1 1485.2,1424 1553.5,1342.3 1559.9,1305.9 1561.7,1277.4 
		1696.6,1207.7 1716.2,1197.9 1865.9,1168.4 1938.8,1136.3 1976.6,1154.1 2004.1,1183.2 2017.6,1216.5 1881.1,1291 1918.1,1388.2 
		2177.7,1304.4 2274.7,1178.8 	" style="fill:#FFFFFF;"/>
	<g>
		<path d="M2073.1,1148.2c1.7-5.7,3.5-11.4,5.2-17.1c0.5-1.5,1.1-3,1.4-4.5c1.1-4.9-1.4-9.4-5.8-10.8
			c-4.5-1.5-9.5,0.4-11.2,5.1c-4,11.1-8.4,22.2-7.4,34.4c0.3,3.4-0.9,5.2-3.8,7c-13.1,7.8-26.2,15.6-38.9,24
			c-4.8,3.2-8.5,2.5-13,0.1c-12.1-6.5-22.4-15.4-32.6-24.5c-5.5-4.8-11.5-9-17.3-13.4c-3.5-2.7-6.8-5.5-10.4-8
			c-0.8-0.6-2.4-1.1-3.1-0.7c-11.6,5.9-24.3,6.5-36.7,7.5c-25.8,2.1-51.6,3.9-77.4,5c-9.8,0.4-19.7-1.4-29.5-2.1
			c-5.5-0.4-10.9-0.6-16.4-0.8c-6.7-0.3-13.4-0.1-20-0.8c-11-1.3-21.9-3.2-32.9-4.7c-2.6-0.3-2.8-1.7-2.8-3.7
			c-0.1-8.5-0.1-17.1-0.6-25.6c-0.3-5.5-4.4-8.9-9.4-8.8c-5.2,0.2-8.8,4.4-8.7,9.8c0.2,10.1,0.3,20.2,0.2,30.3
			c0,1.4-0.8,3.2-1.8,4.1c-5.4,4.8-11,9.2-18.1,11.3c-2.9,0.9-5.6,2.5-8.3,3.9c-18,9.2-36.5,16.8-55.8,22.8
			c-17.3,5.4-34.5,11.5-51.7,17.2c-3.2,1.1-6.6,1.7-10,2.3c-20.6,3.4-41.2,6.7-61.8,10c-1.2,0.2-2.4,0.3-3.6,0.4
			c-10.6,0.7-10.9,0.5-14.3-9.4c-1.9-5.4-3.8-10.8-5.7-16.2c-1.3-3.5-3.8-5.6-7.6-6c-3.9-0.4-6.9,1.2-8.9,4.6
			c-1.8,3.3-1.8,6.7-0.5,10.2c3,7.6,6,15.2,8.7,22.9c0.4,1-0.4,2.9-1.2,3.8c-7.9,8.6-15.6,17.5-24.1,25.5
			c-19.8,18.8-42,34.6-65.2,48.9c-8.8,5.4-18.3,9.7-27.5,14.5c-6.4,3.3-12.6,6.9-19.2,9.9c-3.4,1.5-7.2,2.4-10.9,2.9
			c-7.8,1-15.8,2.1-23.6,1.9c-5.2-0.1-10.5-2-15.5-4c-6-2.4-11.5-5.8-17.3-8.7c-0.6-0.3-1.4-0.7-1.8-1.2c-6.6-7.5-12-15.1-11.7-26.1
			c0.2-7.8,2.4-14.5,6.1-21c1.6-2.8,4.1-5.2,5.8-8c5.5-9.1,12.9-16.7,20.2-24.4c4.9-5.2,10.6-9.6,15.8-14.6
			c5.5-5.3,10.8-10.9,16.3-16.2c5.5-5.4,10.9-10.8,16.7-15.8c11.5-9.8,22.9-19.6,33-30.9c8.5-9.7,17.7-18.8,26.9-27.9
			c8.5-8.5,17.3-16.7,26.1-25c11.2-10.5,22.2-21.2,33.7-31.4c5.3-4.8,11.8-8.3,17.3-12.9c11.5-9.7,25.9-12.5,39.4-17.3
			c6.5-2.3,13-4.9,19.6-7.1c8.3-2.9,16.6-5.6,24.9-8.4c9.6-3.2,19.2-6.3,28.8-9.6c9.7-3.3,19.3-6.8,28.8-10.3
			c6.8-2.5,13.6-5.4,20.4-7.9c7.8-2.9,15.6-5.6,23.4-8.3c10-3.5,20.1-6.8,30-10.4c10.4-3.8,20.7-7.7,31.1-11.7
			c9.8-3.7,19.5-7.7,29.3-11.3c3.5-1.3,7.3-2.1,10.8-3.3c11.4-3.9,22.6-8.2,34.2-11.7c13.5-4.1,27.1-7.8,40.9-11.1
			c15.2-3.6,30.4-7.2,45.8-9.7c27.2-4.4,54.5-8.3,82.2-8.9c14.1-0.3,28.2-1.2,42.4-1.4c5.6-0.1,11.2,1.1,16.8,1.3
			c5.3,0.2,10.7,0.2,16-0.3c4.9-0.5,8-4.9,7.6-9.6c-0.4-4.6-4-8-8.8-8.3c-9.6-0.5-19.2-1.4-28.8-1.3c-18.4,0.3-36.8,0.7-55.2,1.9
			c-17.4,1.1-34.7,3.3-52.1,5c-0.7,0.1-1.3,0-2.3-0.7c1.8-1,3.7-2,5.5-3.1c5.2-3.1,10.5-6.1,15.6-9.5c8.2-5.5,17.3-8.3,26.8-10.2
			c11.9-2.4,23.8-4.7,35.8-6.7c4.5-0.7,9.2-0.4,13.9-0.3c11.8,0.3,23.6,0.5,35.4,1.1c7.2,0.4,14.3,1.4,21.4,2.1
			c8,0.9,15.9,1.9,23.9,2.6c10.5,1,21.1,1.6,31.7,2.5c14.1,1.2,28.1,2.7,42.2,3.7c13,0.9,26,1.5,39,1.8c7.3,0.2,14.6-0.8,21.9-1
			c7.4-0.1,14.9,0.1,22.3,0.2c11.1,0.1,22.1,0.2,33.2,0.1c13.5,0,27-0.2,40.5-0.4c7.3-0.1,14.6-0.5,21.9-0.7
			c10.9-0.4,21.9-0.8,32.8-1.3c9.7-0.4,19.5-0.8,29.2-1.5c10.5-0.7,20.9-1.6,31.3-2.5c11.4-1,22.8-1.8,34.2-3.1
			c9.3-1.1,18.5-3,27.8-4.1c7.6-0.9,15.3-1.1,22.9-1.6c7.8-0.5,15.6-1.4,23.3-1.3c19.7,0.2,38.6-5.1,57.9-7.7
			c13.6-1.8,27-5.1,40.6-7.2c13.6-2.2,27.2-3.9,40.9-5.7c13.5-1.8,27.1-3.5,40.6-5.2c10.5-1.3,21.1-2.4,31.5-3.9
			c9.9-1.4,19.7-3.2,29.6-4.8c16.8-2.8,33.6-5.7,50.4-8.5c10.9-1.8,21.9-3.6,32.8-5.3c10.5-1.6,21-3,31.5-4.4
			c11-1.5,21.9-3.1,32.9-4.7c1.2-0.2,2.3-0.8,3.4-1.2c3.9-1.2,7.8-2.5,11.8-3.5c1.9-0.5,3.9-0.4,5.8-0.8c5.4-1.1,5.2-1,7.7,3.7
			c4.3,8.2,8.8,16.3,13,24.6c1,2,0.8,4.6,1.9,6.5c4.9,8.8,8.3,18.2,10.8,27.8c2.8,10.7,5,21.6,7.4,32.4c1.4,6.4,3.1,12.8,4.2,19.3
			c2.6,14,5,28,7.3,42.1c2.3,14.4,4.8,28.8,6.5,43.3c1,7.9,0.8,16,0.8,24.1c0,8.4-0.1,16.8-0.5,25.2c-0.4,7.5-1.3,15-2,22.5
			c-0.8,8-1.4,16-2.4,24c-1,8.1-2.3,16.1-3.6,24.2c-1.7,10.3-4.2,20.6-5.1,31c-0.9,10.5-5.2,19.9-7.6,30c-0.3,1.1-2.3,2.6-3.4,2.5
			c-5.2-0.2-10.4-1-15.5-1.5c-14.4-1.5-28.8-3.1-43.2-4.5c-15.6-1.5-31.3-2.6-46.9-4.2c-9.4-1-18.8-2.7-28.2-3.8
			c-7.1-0.8-14.3-1.1-21.5-1.9c-7.9-0.8-15.7-2-23.6-2.8c-7.1-0.7-14.3-1.3-21.5-1.6c-7.7-0.4-15.3-0.5-23-0.5
			c-8.2,0-16.3,0.5-24.5,0.3c-13.9-0.3-27.7,0.7-41.6-1.3c-12.9-1.8-25.9-1.8-38.9,0.3c-9.5,1.5-19.2,1.9-28.6,3.9
			c-9.7,2.2-19.4,5.1-28.5,9c-12.2,5.1-24.2,10.9-35.8,17.3c-11.6,6.4-22.6,13.8-33.9,20.9c-5.2,3.3-10.6,6.5-15.4,10.4
			c-8.1,6.5-15.6,13.6-23.5,20.2c-6.5,5.5-13.1,10.9-19.9,16c-8.9,6.7-18.1,13.3-27.2,19.7c-3.1,2.2-6.5,3.8-9.6,5.9
			c-10.2,6.7-20.1,13.8-30.4,20.1c-6.7,4.1-14,7.3-21.1,10.9c-9.5,4.7-18.9,9.5-28.5,13.9c-8,3.6-16.1,6.9-24.4,9.7
			c-7.3,2.5-14.9,4.5-22.5,5.9c-8.4,1.6-16.9,2.9-25.3,3.2c-14.9,0.5-29.9,0.3-44.9-0.1c-10-0.3-19.9-1.9-29.8-2.5
			c-10.3-0.6-20.7-1.3-31-0.9c-10.3,0.3-20.6,1.6-30.8,3c-9.9,1.4-19.6,3.9-29.4,5.5c-13.8,2.3-27.7,4.1-41.6,6.2
			c-13.5,2.1-27.1,3.3-40.1,8.1c-6,2.2-12.4,3.5-18.6,5.4c-11.3,3.5-21.3,9.4-31.2,15.8c-9.9,6.4-20.1,12.5-30.8,17.3
			c-13.3,6-27,11.1-40.9,15.5c-10.4,3.3-21.4,4.7-32.1,7c-4.8,1-9.5,2-14.3,3.1c-13.4,3.1-26.9,4.4-40.6,3.3c-9-0.7-18.2-1.7-27-4
			c-7.5-1.9-14.5-5.6-21.5-9c-4.9-2.4-9.3-5.7-14-8.4c-7.9-4.4-11.2-12.2-14.1-19.8c-3.7-9.8-5.8-20.2-5-30.8
			c0.6-7.8,1.8-15.4,6.4-22.4c7.7-11.7,18.2-19.9,29.4-27.4c7.6-5.1,16.3-8,25.3-10c5.6-1.2,10.9-3.4,16.4-5c8-2.4,16.3-4.2,24.2-7
			c10.2-3.6,20.3-7.5,30.1-12.2c11.7-5.6,23.1-12,34.5-18.3c5.9-3.3,11.4-7.5,17.2-11c7.5-4.3,15.1-8.4,22.8-12.3
			c3.9-2,8-3.5,12.1-5c8.2-3,16.4-6,24.7-8.9c11.9-4.1,23.5-8.6,34.1-15.6c12-7.9,24.5-15.1,36.8-22.5c14.4-8.7,28.7-17.6,43.2-26.1
			c13.1-7.6,27.7-10.5,42.7-11.9c8.9-0.8,17.7-1.5,26.6-2.1c2.8-0.2,5.6,0,8.4,0.1c5.8,0.2,10.3-3.6,10.5-8.9
			c0.2-5.3-3.9-9.6-9.8-9.6c-6.1,0-12.2,0.2-18.3,0.7c-20.8,1.7-41.7,3.1-61.1,11.8c-2.1,0.9-4.1,1.9-6.2,2.8
			C2073.7,1148.6,2073.4,1148.4,2073.1,1148.2z M1958.5,1289.3c-0.6-4.6-0.8-9.3-1.8-13.8c-1.2-5.6-5.7-8.5-10.8-7.5
			c-5.1,1-8,5.7-7.2,11.4c1,6.3,2,12.5,2.8,18.8c2.1,15.1,8.1,28.8,14.4,42.4c1.7,3.7,5.6,5.4,9.4,4.8c3.7-0.6,7.1-3.4,7.3-7.1
			c0.1-2.5-0.5-5.3-1.6-7.7C1965.4,1317.4,1959.6,1304.1,1958.5,1289.3z M1920.7,1296.5c-6,0.7-9.8,6.4-7.3,13.3
			c4.5,12.6,9.7,24.9,15.1,37.1c2.1,4.9,7.8,6.1,12.2,3.7c4.4-2.4,6-7.7,3.6-12.3c-5.9-11.1-10.6-22.7-13.6-34.9
			C1929.4,1298.7,1925.3,1296,1920.7,1296.5z" style="fill:#FFA1AF;"/>
		<path d="M1865.9,1168.4c-15.2,6.9-30.6,11.2-45.9,15.6c-16.4,4.7-33.3,5.6-50.1,7.8c-17.9,2.3-35.8,4.1-53.7,6.2
			c-2.4,0.3-3.8-0.2-5-2.4c-0.8-1.6-2.2-2.9-3.6-4.1c-3.7-3.3-8.8-3.3-12.3-0.1c-3.3,3.1-3.8,8-1.2,12c3.8,5.6,3.7,5.5-1.4,10.1
			c-5.8,5.3-11.3,11-17.2,16.4c-7.4,6.7-15,13.2-22.6,19.7c-6.2,5.3-12.3,10.6-18.8,15.6c-6.5,5-13.4,9.7-20.2,14.4
			c-5.3,3.7-10.6,7.4-16,11c-6.7,4.4-13.5,8.7-20.2,13.1c-5,3.4-9.8,7.2-15,10.3c-9.5,5.8-18.9,11.7-28.8,16.7
			c-13.8,7-28.1,13.1-42.1,19.7c-1.9,0.9-2.7,0.5-3.8-1c-3.3-4.6-6.5-9.1-10.1-13.4c-3.9-4.7-9.5-5.3-13.5-1.9
			c-4.1,3.5-4.1,8.9-0.3,13.7c3.3,4.1,6.5,8.2,9.5,12.6c0.8,1.2,1.2,3.2,0.7,4.5c-6.5,20.6-14.1,40.8-24.8,59.7
			c-8.9,15.7-16.7,32-25.8,47.6c-4.4,7.5-10.1,14.4-16.2,20.6c-6.4,6.7-13.6,12.8-21,18.5c-8.5,6.5-18.4,10.1-29.2,11.6
			c-9.4,1.2-18.8,1.4-28-0.5c-7.9-1.6-15.4-4.5-21.7-10.5c-5.2-5-8.9-10.8-11-17.4c-1.7-5.3-2.5-11-2.6-16.5
			c-0.2-12.1,1.8-24.1,6.4-35.3c2.7-6.6,6.7-12.7,10-19.1c5.1-10.1,9.9-20.3,15.1-30.4c3.3-6.5,7.1-12.8,10.7-19.1
			c7.1-12.8,15-25.1,20.9-38.4c3-6.9,8.2-9.3,13.7-12.3c6.5-3.6,13.1-7,19.4-11c23.8-15.5,46.4-32.4,66.6-52.4
			c7.1-7,13.3-14.9,19.9-22.4c0.8-0.9,2.2-1.8,3.3-1.7c17.3,1.3,34-2.8,50.8-5.6c12.3-2.1,24.7-3.4,36.7-6.6
			c16.3-4.4,32.2-10.6,48.4-15.7c20.2-6.4,39.9-13.6,59-22.9c8.2-4,16.6-7.6,24.6-12c4.9-2.8,9.2-6.8,13.8-10.2
			c1.2-0.8,2.8-1.6,4.1-1.5c10,1.2,20.1,2.6,30.1,4.2c10.4,1.6,20.7,2.8,31.3,2.1c7.7-0.5,15.6,0.7,23.3,1.8
			c14.4,2,28.7,0.8,43.1,0.2C1851.8,1169.1,1858.5,1168.7,1865.9,1168.4z" style="fill:#FFA1AF;"/>
		<path d="M1553.5,1342.3c-1.9,3.9-3.7,7.9-5.6,11.8c-3.7,7.6-7.1,15.5-11.4,22.8c-6,10.3-12.5,20.3-19.3,30
			c-6,8.6-12.7,16.6-18.9,25c-7.5,10.1-16.3,18.7-27.7,24.2c-2,1-4.4,1.7-6.6,1.8c-3.9,0.3-7.8,0.1-12.3,0c1.3-2.4,2.3-4.5,3.5-6.5
			c15-24.9,27.3-50.9,35.8-78.7c0.4-1.4,1.9-2.8,3.3-3.4c11.8-5.6,23.7-11,35.5-16.5c7.7-3.6,15.3-7.4,23-11.1
			C1553,1342,1553.3,1342.2,1553.5,1342.3z" style="fill:#FFA1AF;"/>
	</g>
</g>
<g id="COLORS" style="display:none;">
	<rect x="-1742.1" y="3035.2" width="216.2" height="216.2" style="display:inline;fill:#0185D0;"/>
	<rect x="-1526" y="3035.2" width="216.2" height="216.2" style="display:inline;fill:#B3D8DD;"/>
	<rect x="-1742.1" y="3263.1" width="216.2" height="216.2" style="display:inline;fill:#0070CC;"/>
	<rect x="-1526" y="3263.1" width="216.2" height="216.2" style="display:inline;fill:#00A1C6;"/>
	<rect x="-1309.8" y="3035.2" width="216.2" height="216.2" style="display:inline;fill:#D3E9EF;"/>
	<rect x="-1742.1" y="1738.1" width="216.2" height="216.2" style="display:inline;fill:#F26981;"/>
	<rect x="-1742.1" y="1954.3" width="216.2" height="216.2" style="display:inline;fill:#9EA09E;"/>
	<rect x="-1967.6" y="1954.3" width="216.2" height="216.2" style="display:inline;fill:#333333;"/>
	<rect x="-1967.6" y="2170.5" width="216.2" height="216.2" style="display:inline;fill:#D48F00;"/>
	<rect x="-1742.1" y="2170.5" width="216.2" height="216.2" style="display:inline;fill:#F4B321;"/>
	<rect x="-1742.1" y="2386.6" width="216.2" height="216.2" style="display:inline;fill:#003501;"/>
	<rect x="-1742.1" y="2819" width="216.2" height="216.2" style="display:inline;fill:#9B1F0F;"/>
	<rect x="-1309.8" y="1954.3" width="216.2" height="216.2" style="display:inline;fill:#E5E5E5;"/>
	<rect x="-1309.8" y="2170.5" width="216.2" height="216.2" style="display:inline;fill:#FFDA54;"/>
	<rect x="-1309.8" y="2386.6" width="216.2" height="216.2" style="display:inline;fill:#009B4D;"/>
	<rect x="-1742.1" y="2602.8" width="216.2" height="216.2" style="display:inline;fill:#B45116;"/>
	<rect x="-1309.8" y="2819" width="216.2" height="216.2" style="display:inline;fill:#F1592B;"/>
	<rect x="-1526" y="1738.1" width="216.2" height="216.2" style="display:inline;fill:#FEAEB6;"/>
	<rect x="-1526" y="1954.3" width="216.2" height="216.2" style="display:inline;fill:#DDDDDD;"/>
	<rect x="-1526" y="2170.5" width="216.2" height="216.2" style="display:inline;fill:#FFC52D;"/>
	<rect x="-1526" y="2386.6" width="216.2" height="216.2" style="display:inline;fill:#004901;"/>
	<rect x="-1526" y="2602.8" width="216.2" height="216.2" style="display:inline;fill:#D46400;"/>
	<rect x="-1526" y="2819" width="216.2" height="216.2" style="display:inline;fill:#A55C54;"/>
	<rect x="-1749.7" y="1463.4" width="245" height="286.5" style="display:inline;fill:#FFA1AF;"/>
	<g style="display:inline;">
		<path d="M3446.8,6115.5c-0.2-0.9-0.4-1.8-0.7-2.7c-0.5-1.4-1.6-2.9-1.4-4.2c0.1-0.7,2.3-1.2,3.8-1.9
			c-0.6-1.9-1.5-4.2-2.2-6.6c-1-3.3-1.8-6.7-2.7-10c-0.1-0.5-0.3-1.2-0.7-1.4c-1.7-0.9-1.9-2-1.4-3.9c0.5-1.8-0.1-3.3-2.5-3.6
			c-1-0.1-1.8-1.1-3-1.9c1.2-0.6,2-1,2.7-1.3c-0.1-0.2-0.2-0.5-0.3-0.7c-0.7,0.1-1.4,0.2-1.7,0.2c-2.3-5.9-4.2-11.7-7.1-17
			c-0.8-1.4-1.2-2.7-1.7-4.1c-0.5-1.5-1.6-3.4-2.9-3.8c-2.9-0.9-2.8-2.3-1.9-3.9c-1-1.7-1.6-3-2.5-4.2c-2-2.8-4.3-5.3-6.2-8.2
			c-0.9-1.3-1-3-1.4-4.3c-1.7-2.7-3.5-5.3-5-8c-0.8-1.5-0.8-3.5-1.5-5.1c-0.5-1.1-1.6-1.9-2.3-2.8c-2.3-3.1-3-7.1-4.9-10.4
			c-2.2-3.9-5-7.4-7.5-11.2c-0.8-1.2-1.6-2.5-2.7-4.2c0-0.6,0-1.9-0.3-3.2c-0.1-0.4-1.1-1-1.6-0.9c-1.8,0.1-3.7,0.6-5.5,0.8
			c-0.6,0.1-1.7-0.1-1.8-0.3c-0.5-2.5-4.6-2.3-4.1-5.5c0.1-0.4-0.5-1.1-0.8-1.2c-3.2-0.8-4-3.6-5.4-6c-0.9-1.5-2.3-2.7-3.4-4.1
			c-2.5-3.2-5-6.4-7.6-9.6c-0.3-0.3-0.6-0.6-1-0.8c-2.1-1.1-4-1.9-5.3-4.5c-1.5-3-4.9-4.9-7.4-7.4c-2.9-3-5.7-6.1-8.7-9.1
			c-0.6-0.6-1.8-0.6-3-0.9c-0.3-1.6-0.8-3.5-1.2-5.6c-0.2,0.1-1.2,0.3-2.4,0.6c-0.1-1-0.1-1.8-0.2-2.6c-3.7-0.3-4.9-3.5-6.8-5.8
			c-0.4-0.5-1-1.5-1.4-1.5c-5.5,0.3-7.5-4.7-11.1-7.4c-0.3-0.2,0.1-1.3,0.2-1.6c-2.3-0.1-4.5-0.3-7.3-0.4c1-2.8,1.8-5.1,2.9-8.3
			c0.7,1.7,1.2,2.7,1.9,4.5c0.7-1.4,1.1-2.3,1.8-3.7c0.7,1.2,1.4,2.4,2.3,3.8c1.9,0.6,5,0.1,4.4,4.4c-0.2,1.4,2,3.4,3.5,4.7
			c3,2.7,6,5.5,10.8,5.4c-0.8,0.4-1.6,0.8-2.5,1.3c2,3.3,2.6,0,4.1-1.3c1.3,2,2.5,3.9,3.7,5.8c0.9-1,1.8-2.2,3.2-3.8
			c0.7,1.7,1.1,2.7,1.4,3.6c3.1-0.6,13.2,4.1,14.8,6.8c3.4-1.2,4.6-0.2,5.9,5.5c0.9-1.1,1.6-1.9,2.1-2.5c1.6,1.4,3.4,2.9,5.2,4.4
			c-0.1,0.2-0.3,0.8-0.6,1.4c1.1,0.1,2.1,0.2,3.3,0.3c0.3,1.8,0.2,4.3,3.8,3.8c0.9-0.1,2.2,1.2,3,2.2c2.5,3.3,7.2,4.2,8.5,8.8
			c0.6,2,2.7,3.5,4.4,5.5c4.3-0.6,4.5-0.5,4,4c1,0,1.9,0,2.1,0c1.4,2.1,2.7,3.8,3.8,5.6c0.7,1.2,1.3,2.5,1.4,3.8
			c0.2,2.6,1.4,1.8,2.9,1c2.2,6.3,4.5,12.6,6.9,19.4c0.8-2.1,1.3-3.5,1.9-5c0.4,0.2,0.8,0.4,1.2,0.5c-0.5,0.9-1.5,2-1.3,2.7
			c0.5,1.8,1.3,3.5,2.4,5c0.5,0.7,1.7,0.8,2.6,1.1c0.3-0.9,0.7-1.7,1-2.7c-4.8-1.3-4.7-1.3-3.3-5.5c0.3-1,0.7-2.1,0.6-3.1
			c0-0.9-0.6-1.7-1.2-3.1c4.2,1.3,1.8,4.6,2.9,6.1c1.1,0.1,2.2-0.1,2.7,0.3c1.1,0.9,2.7,2.1,2.8,3.3c0.1,2-0.3,3.4,2.6,3.1
			c0.6-0.1,1.5,1.3,2.2,2.2c1.3,1.7,2.8,3.3,3.8,5.1c1.3,2.4,4.9,3.7,3.8,7.1c0.9,0.5,2.2,0.8,2.4,1.5c1.2,4.8,5,7.9,7.3,12
			c1,1.7,1.6,3.5,2.7,5.1c0.5,0.9,1.6,1.4,2.1,1.9c0.4,1.7,0.4,3.4,1.2,4.7c1,1.6,2.7,2.7,3.8,4.2c0.8,1.2,1,2.7,1.5,4.1
			c0.7,1.7,1.5,3.4,2.1,5.2c0.7,1.9,1.1,3.9,1.4,5.1c2.1,2.7,3.7,4.8,5.8,7.5c-0.6,2.5,0.8,5.3,3.6,6c-1.2,3.4-0.3,5.2,3.7,6.7
			c-1.1,0-1.6,0-2.4,0c0.3,1.6,0.4,3.1,0.9,4.5c0.2,0.7,0.8,1.6,1.4,1.9c3.2,1.5,3.4,1.9,0.8,4.8c1,0.4,1.9,0.8,3,1.3
			c-0.9,3.2-0.3,5.8,3.4,7.1c0.6,0.2,0.6,1.9,0.8,3c0.1,0.3-0.2,0.8,0,1c1,2.2,2.1,4.4,3.2,6.5c1.1,2.2,2.2,4.4,3.4,6.8
			c0.3-0.1,0.9-0.5,1.6-0.9c1.3,4.2,2.5,8.4,3.9,12.9c3.6,0.5,2.8,4.2,3.7,7c0.5,1.5,0.6,3.5,1.6,4.3c2.4,2,1.4,3.7,0.3,5.6
			c-0.5,0.9-1.1,1.7-1.6,2.6c0.2,0.2,0.5,0.4,0.7,0.6c0-0.8,0.1-1.7,0.1-2.5c0.6,0.4,1.2,0.8,1.7,1.2c-0.4,2.4,0.6,5-1.6,7.4
			c-0.7,0.7,0.1,2.9,0.4,4.4c1,4.3,3.8,8,4,12.6c0.2,3.4,1.7,6.8,2.6,10.2c0.2,1-0.1,2.1,0.2,3.1c1.2,3.8,2.5,7.7,3.8,11.5
			c0.3,1,0.9,1.9,1.3,2.9c0.3-0.3,0.6-0.6,0.9-1c-0.5,3.5-1,7-1.5,10.8c0.7-0.2,1.2-0.4,2-0.7c0.8,2.1,1.9,4.2-0.3,6.3
			c-0.8,0.8-1.6,1.7-2.4,2.5c-0.2-0.2-0.5-0.4-0.7-0.7c0.4-0.4,0.8-0.8,1.3-1.2c-0.1-0.3-0.3-0.6-0.4-0.9c-1.3,0.5-2.7,0.9-4,1.4
			c-1,0.3-2.4,1.4-2.8,1.1c-2.3-1.9-3.8-0.2-5.7,0.6c-2.5,1.1-5,2.1-8.1,1c-2.8-0.9-6-0.5-9-0.7c-1.2-0.1-2.3-0.5-3.4-0.7
			c-1.2-0.1-2.5-0.4-3.5-0.1c-2.9,1-7.2,0-9-2.3c-0.2-0.2-0.2-0.8-0.3-0.9c-6-1.7-3.8-6.3-3.7-10.2c0-1.5-1.4-3.1-1.4-4.6
			c0-1.8,0.9-3.7,1.1-5.5c0.1-0.9-0.2-2-0.4-2.9c0-0.1-0.8,0-1.2,0c0.1,0.9,0.1,1.9,0.2,2.8c-0.2,0.1-0.5,0.2-0.7,0.2
			c-0.3-0.9-0.8-1.8-0.8-2.7c0.1-3.1,0.9-3.5,3.7-2.4c0.3,0.1,1,0.1,1.1-0.1c0.2-0.4,0.3-1,0.2-1.3c-1-2-2-4-4.9-1.2
			c0.2-2.5,5.3-4.4,0.5-6.4c0.3-1.4,0.6-2.9,0.9-4.3c-0.3,0.2-0.6,0.3-0.9,0.5c0.9,1,1.8,1.9,2.8,2.9c0.2-0.3,0.5-0.6,0.7-1
			c1.2-0.7,2.3-1.4,4-2.5c-1.3-0.4-2.7-0.8-4.8-1.5c-1.4-1.3,1.9-6.3-3.5-6.3c0.8-0.2,1.7-0.4,2-0.4c-0.2-2.5-0.3-4.6-0.5-6.8
			c0-0.6,0.1-1.5-0.2-1.7c-3-1.6-2.1-4-1.5-6.4c0.2-0.9-0.4-2.9-0.8-2.9c-3.5-0.2-1-3.3-2.3-4.4c2.2-2.4-0.2-3.4-1.4-4.7
			c-0.3-0.3-0.6-0.5-1.2-1c2.7-1.9,2.3-3.4-0.5-4.7c-0.5-0.2-1.1-0.7-1.1-1.1c-0.4-3-0.3-6-2.2-8.7c-0.5-0.6,0.7-2.4,1-3.7
			c0.3-1.2,1-2.6,0.7-3.4c-0.4-0.9-1.9-1.2-3.2-1.9c0-0.2,0.1-0.7,0.2-1.3c0-0.1,0.2-0.2,0.2-0.2
			C3446.5,6115.2,3446.7,6115.3,3446.8,6115.5c1.2,0.1,2.3,0.1,3.5,0.2c0-1.1-0.1-2.2-0.1-3.2c0-0.8,0.1-1.7,0-2.5
			c-0.1-0.8-0.4-1.5-0.7-2.4c-3.2,2.5-1.3,4.8-0.4,7C3448.1,6114.9,3447.5,6115.2,3446.8,6115.5z M3343.6,5933.5
			c-0.3-1.2-0.6-2.3-0.9-3.5c-1.2,0.1-2.4,0.3-3.5,0.4c-0.1,0.3-0.2,0.6-0.3,0.9C3340.5,5932,3342.1,5932.7,3343.6,5933.5
			c0.2,0.6,0.2,1.5,0.6,1.9c2.1,2,4.3,4,6.6,5.8c2.4,1.9,4.1,1.2,5-1.9c-3.3,1.7-7,0.3-7.9-3.4
			C3347.3,5933.1,3345.9,5932.9,3343.6,5933.5z M3476,6175.4c-1.2,0.6-2.2,0.8-2.7,1.4c-1.7,2-2.6,4.3-0.7,6.8
			c-0.9,0.7-1.6,1.3-2.4,1.9c0.3-0.1,0.7-0.2,1-0.3c1.1,1.5,2.2,2.9,3.2,4.4c1,1.6,1.9,3.3,3.1,5.3c0.4-2.2,0.7-3.8,1-5.6
			C3474.6,6187.2,3474.1,6182.7,3476,6175.4z M3465.4,6146.8c-2.9-3.3-1.1-9.1-6-11c-1.2,0.9-2.2,1.7-2.5,1.9
			c1.2,3.2,2.4,6.1,3.5,8.9C3461.2,6146,3461.3,6146,3465.4,6146.8z M3463.1,6183.5c-0.1,0.3-0.3,0.7-0.2,0.9c1,2,1.9,3.9,0.7,6.2
			c-0.2,0.3,1,1.7,1.8,2.1c0.5,0.2,1.8-0.3,2.1-0.8c0.3-0.6,0-1.7-0.3-2.4c-0.3-0.7-1.1-1.3-1.6-1.9
			C3468.1,6184.5,3468.1,6184.5,3463.1,6183.5z M3443,6066.5c1.3-3.1,2.4-5.9,3.5-8.7c-0.3-0.1-0.6-0.3-0.9-0.4
			c-1.9,0.9-3.7,1.8-5.6,2.6C3444.8,6060.7,3440.4,6065,3443,6066.5z M3463.8,6156.8c-1.5,5.1,3,7.5,3,9.5
			C3465.5,6164.8,3467.3,6160.4,3463.8,6156.8z M3448.1,6065.8c-0.3,0.1-0.7,0.2-1,0.4c-0.3,2.5,1.4,4.5,2.8,6.4
			c0.5,0.7,1.9,0.7,3,1C3451,6070.5,3449.5,6068.2,3448.1,6065.8z M3385.6,5974.8c0-0.3,0-0.5-0.1-0.8c0.8,0.1,1.6,0.1,2.2,0.4
			c0.9,0.5,1.7,1.3,2.5,2c0.4-0.4,0.7-0.8,1.1-1.3c-1.3-1-2.5-2.4-3.9-2.9c-0.8-0.2-3,1.2-3,1.8c0.1,1.2,1.2,2.4,1.9,3.6
			c0.4-0.3,0.8-0.6,1.2-0.9C3386.8,5976.2,3386.2,5975.5,3385.6,5974.8z M3366.3,5958.2c-0.4,0.5-0.9,0.9-1.3,1.4
			c1.9,1.8,3.9,3.5,5.8,5.3c0.3-0.3,0.6-0.6,1-1C3370,5961.9,3368.2,5960,3366.3,5958.2z M3475.3,6199c0.3-0.1,0.5-0.3,0.8-0.4
			c-0.7-1.7-1.2-3.6-2.2-5.2c-0.2-0.3-1.9,0.3-2.8,0.5C3472.7,6195.8,3474,6197.4,3475.3,6199z M3383.1,5983.3
			c-0.8-1.9-1.6-3.6-2.5-5.9c-0.4,0.7-1.4,1.8-1.2,2.2C3380.2,5981,3379.3,5984.2,3383.1,5983.3z M3440.3,6050.2
			c-0.4,0.2-0.7,0.4-1.1,0.6c1.3,2.3,2.6,4.5,3.9,6.8c0.4-0.3,0.9-0.5,1.3-0.8C3443.1,6054.6,3441.7,6052.4,3440.3,6050.2z
			 M3381.9,5968.9c-0.3-0.1-0.6-0.2-0.9-0.3c-0.4,1.2-0.9,2.3-1.3,3.5c1.1,0.2,2.2,0.3,3.9,0.6
			C3382.7,5970.8,3382.3,5969.9,3381.9,5968.9z M3452.6,6122c-0.4,0-0.7,0-1.1,0c-0.2,0.9-0.9,2.3-0.6,2.7c0.7,0.8,2,1,3,1.5
			c0.1-0.2,0.3-0.4,0.4-0.6C3453.8,6124.4,3453.2,6123.2,3452.6,6122z M3388.3,5977.1c0.8,1.1,1.7,2.2,2.8,3.8
			c0.7-1.4,1.3-2.6,1.9-3.8C3391.1,5977.1,3389.8,5977.1,3388.3,5977.1z" style="fill:#FFFFFF;"/>
		<path d="M3286.1,5900.9c1.9-2,3.4-3.6,5.2-5.5c0.9,2.5,1.1,4.7,2.4,5.7c0.8,0.7,3.1-0.5,4.8-0.8
			c0.7,1.5,1.2,2.7,1.7,3.7c1.4-0.4,2.8-0.7,4.3-1.2c-0.5,2.4-0.8,3.9-1.2,5.7c-0.6,0.1-1.4,0.3-2,0.5c-0.2-3.9-5.3-1.6-5.9-4.7
			c-2.2,1.2-4.3,2.4-5.9-0.9C3289.2,5902.4,3287.7,5901.9,3286.1,5900.9z" style="fill:#FFFFFF;"/>
		<path d="M3287.7,5897.3c-1.8-0.4-3.2-0.6-4.5-0.9c-0.3,0.3-0.5,0.6-0.8,0.8c0.8,1.1,1.6,2.2,2.4,3.4
			c0.4-0.3,0.9-0.5,1.3-0.8c-1.6,0.3-3.2,0.5-4.5,0.7c-0.2-1.2-0.3-2.3-0.5-3.3c-1,0.3-2,0.6-3.1,1c-1.2-1.5-0.5-5.5,1.5-6.4
			c0.4-0.2,1.3,0,1.4,0.2c1.1,2.6,3.8,2.5,5.9,3.5C3287.2,5895.8,3287.4,5896.8,3287.7,5897.3z" style="fill:#FFFFFF;"/>
		<path d="M3265.3,5891.2c0.7-1.4,1.3-2.8,2-4.3c4.4-0.1,1,3.3,2,5c0.9-0.6,1.8-1.2,2.8-1.8c0.1,0.9,0.2,1.8,0.3,2.9
			c1.1,0,2,0,3.1,0c-0.2,1-0.3,2-0.4,2.8C3271.4,5895.9,3269.1,5894.9,3265.3,5891.2z" style="fill:#FFFFFF;"/>
		<path d="M3252.6,5885c-1.7-1-3.2-1.9-4.7-2.8C3250,5880.8,3252.2,5881.9,3252.6,5885z" style="fill:#FFFFFF;"/>
	</g>
	<g style="display:inline;">
		<circle cx="5586.5" cy="6534.6" r="783.2" style="fill:none;stroke:#000000;stroke-width:50;stroke-linecap:round;stroke-linejoin:round;stroke-dasharray:0,136.71;"/>
	</g>
</g>
</svg>
