<?xml version="1.0" encoding="utf-8"?>
<!-- Generator: Adobe Illustrator 21.0.0, SVG Export Plug-In . SVG Version: 6.00 Build 0)  -->
<svg version="1.1" id="Слой_18" xmlns="http://www.w3.org/2000/svg" xmlns:xlink="http://www.w3.org/1999/xlink" x="0px" y="0px" viewBox="0 0 3928.5 3532.6" style="enable-background:new 0 0 3928.5 3532.6;" xml:space="preserve">

<g>
	<path d="M2810.9,836.7c32.9-14.6,66.3-15.9,100.1-10.1c15.8,2.7,30.8,8.7,44,18.2c8.9,6.3,17.6,12.9,25.9,20.1
		c11.6,10,15.8,24.3,21,37.9c6.3,16.6,6.4,34,6.3,51.3c-0.1,8.2-8.9,16.8-20.7,19.2c-6.7,1.4-13.9,0.9-20.8,1.1
		c-9.8,0.3-19.6,0.3-29.4,0.6c-26.3,0.6-52.4-1.4-78.6-4.1c-26-2.7-52.4-2.3-78.7-2.9c-30.6-0.8-61.2-1.4-91.8-1.7
		c-34.9-0.3-69.8,0.1-104.8-0.5c-29.2-0.4-58.4-2.1-87.6-2.5c-18-0.3-36,1.4-54,1c-8.4-0.2-17.2-2.4-25.1-5.5
		c-8.8-3.5-13.2-11.6-12.7-21c0.6-13.7,2.3-27.3,3.3-40.9c4.6-61,47.8-131,96.8-166.1c43.5-31.2,99-45.2,152-38.3
		c63,8.1,104.2,45.9,137.7,97c6.9,10.6,9.7,23.9,14.2,36.1C2809.2,828.7,2809.8,832.3,2810.9,836.7z" style="fill:#B3D8DD;"/>
	<path d="M1062.8,1648.2c5.9-11.2,11-22.1,17.2-32.4c40.6-67.8,129.3-122.5,209.8-101.9c41.2,10.6,75.8,40.3,98.5,76.2
		c29.4,46.4,35.1,96.4,45.3,148.7c1.7,9,3.4,17.7,2.3,26.7c-0.5,4.3-2.4,8.5-4.4,12.4c-7.8,15.4-21,17.2-37.1,17
		c-51.6-0.6-103.2,0.8-154.8,0.9c-53.2,0.2-106.5-0.6-159.7-0.2c-26.9,0.2-53.8,2.4-80.8,2.8c-21.4,0.3-42.9-0.7-64.4-1.2
		c-10.2-0.2-20.5-0.2-30.7-0.9c-14.9-1.1-26-10.8-25.4-26.3c1.2-33,13.7-61.1,37.2-84.3c17.4-17.3,37.3-30.8,60.6-38.8
		C1005.2,1637,1034,1635.1,1062.8,1648.2z" style="fill:#B3D8DD;"/>
</g>
<g>
	<path d="M1594.4,2891.2l-0.3-1c-4.5-16,4.9-32.5,20.8-37c16-4.5,32.5,4.9,37,20.8l0.3,1c4.5,16-4.9,32.5-20.8,37
		S1598.8,2907.1,1594.4,2891.2z" style="fill:#FFC52D;"/>
	<path d="M1562.3,2776.6l-0.3-1c-4.5-16,4.9-32.5,20.8-37c16-4.5,32.5,4.9,37,20.8l0.3,1c4.5,16-4.9,32.5-20.8,37
		S1566.8,2792.5,1562.3,2776.6z" style="fill:#FFC52D;"/>
	<path d="M1530.2,2662l-0.3-1c-4.5-16,4.9-32.5,20.8-37s32.5,4.9,37,20.8l0.3,1c4.5,16-4.9,32.5-20.8,37
		C1551.3,2687.3,1534.7,2677.9,1530.2,2662z" style="fill:#FFC52D;"/>
	<path d="M1483.6,2922.2l-0.3-1c-4.5-16,4.9-32.5,20.8-37c16-4.5,32.5,4.9,37,20.8l0.3,1c4.5,16-4.9,32.5-20.8,37
		S1488.1,2938.1,1483.6,2922.2z" style="fill:#FFC52D;"/>
	<path d="M1451.6,2807.6l-0.3-1c-4.5-16,4.9-32.5,20.8-37c16-4.5,32.5,4.9,37,20.8l0.3,1c4.5,16-4.9,32.5-20.8,37
		S1456,2823.5,1451.6,2807.6z" style="fill:#FFC52D;"/>
	<path d="M1419.5,2693l-0.3-1c-4.5-16,4.9-32.5,20.8-37s32.5,4.9,37,20.8l0.3,1c4.5,16-4.9,32.5-20.8,37
		C1440.5,2718.2,1424,2708.9,1419.5,2693z" style="fill:#FFC52D;"/>
	<path d="M1372.9,2953.2l-0.3-1c-4.5-16,4.9-32.5,20.8-37s32.5,4.9,37,20.8l0.3,1c4.5,16-4.9,32.5-20.8,37
		S1377.3,2969.1,1372.9,2953.2z" style="fill:#FFC52D;"/>
	<path d="M1340.8,2838.6l-0.3-1c-4.5-16,4.9-32.5,20.8-37c16-4.5,32.5,4.9,37,20.8l0.3,1c4.5,16-4.9,32.5-20.8,37
		S1345.3,2854.5,1340.8,2838.6z" style="fill:#FFC52D;"/>
	<path d="M1308.7,2724l-0.3-1c-4.5-16,4.9-32.5,20.8-37c16-4.5,32.5,4.9,37,20.8l0.3,1c4.5,16-4.9,32.5-20.8,37
		S1313.2,2739.9,1308.7,2724z" style="fill:#FFC52D;"/>
	<path d="M1815.9,2829.2l-0.3-1c-4.5-16,4.9-32.5,20.8-37c16-4.5,32.5,4.9,37,20.8l0.3,1c4.5,16-4.9,32.5-20.8,37
		S1820.3,2845.2,1815.9,2829.2z" style="fill:#FFC52D;"/>
	<path d="M1783.8,2714.6l-0.3-1c-4.5-16,4.9-32.5,20.8-37s32.5,4.9,37,20.8l0.3,1c4.5,16-4.9,32.5-20.8,37
		C1804.8,2739.9,1788.3,2730.6,1783.8,2714.6z" style="fill:#FFC52D;"/>
	<path d="M1751.7,2600l-0.3-1c-4.5-16,4.9-32.5,20.8-37s32.5,4.9,37,20.8l0.3,1c4.5,16-4.9,32.5-20.8,37
		C1772.8,2625.3,1756.2,2616,1751.7,2600z" style="fill:#FFC52D;"/>
	<path d="M1705.1,2860.2l-0.3-1c-4.5-16,4.9-32.5,20.8-37c16-4.5,32.5,4.9,37,20.8l0.3,1c4.5,16-4.9,32.5-20.8,37
		S1709.6,2876.2,1705.1,2860.2z" style="fill:#FFC52D;"/>
	<path d="M1673,2745.6l-0.3-1c-4.5-16,4.9-32.5,20.8-37s32.5,4.9,37,20.8l0.3,1c4.5,16-4.9,32.5-20.8,37
		C1694.1,2770.9,1677.5,2761.6,1673,2745.6z" style="fill:#FFC52D;"/>
	<path d="M1641,2631l-0.3-1c-4.5-16,4.9-32.5,20.8-37s32.5,4.9,37,20.8l0.3,1c4.5,16-4.9,32.5-20.8,37
		C1662,2656.3,1645.5,2647,1641,2631z" style="fill:#FFC52D;"/>
	<path d="M2037.4,2767.3l-0.3-1c-4.5-16,4.9-32.5,20.8-37c16-4.5,32.5,4.9,37,20.8l0.3,1c4.5,16-4.9,32.5-20.8,37
		S2041.8,2783.2,2037.4,2767.3z" style="fill:#FFC52D;"/>
	<path d="M2005.3,2652.7l-0.3-1c-4.5-16,4.9-32.5,20.8-37s32.5,4.9,37,20.8l0.3,1c4.5,16-4.9,32.5-20.8,37
		C2026.3,2677.9,2009.8,2668.6,2005.3,2652.7z" style="fill:#FFC52D;"/>
	<path d="M1973.2,2538.1l-0.3-1c-4.5-16,4.9-32.5,20.8-37c16-4.5,32.5,4.9,37,20.8l0.3,1c4.5,16-4.9,32.5-20.8,37
		S1977.7,2554,1973.2,2538.1z" style="fill:#FFC52D;"/>
	<path d="M1926.6,2798.3l-0.3-1c-4.5-16,4.9-32.5,20.8-37s32.5,4.9,37,20.8l0.3,1c4.5,16-4.9,32.5-20.8,37
		C1947.6,2823.5,1931.1,2814.2,1926.6,2798.3z" style="fill:#FFC52D;"/>
	<path d="M1894.5,2683.7l-0.3-1c-4.5-16,4.9-32.5,20.8-37s32.5,4.9,37,20.8l0.3,1c4.5,16-4.9,32.5-20.8,37
		C1915.6,2708.9,1899,2699.6,1894.5,2683.7z" style="fill:#FFC52D;"/>
	<path d="M1862.5,2569.1l-0.3-1c-4.5-16,4.9-32.5,20.8-37s32.5,4.9,37,20.8l0.3,1c4.5,16-4.9,32.5-20.8,37
		S1867,2585,1862.5,2569.1z" style="fill:#FFC52D;"/>
</g>
<path d="M1322.6,1625.6c82.8,153.8,225.6,268.4,384.6,326.9c118.3,43.6,245.2,57.2,369.4,47.4
	c124.3-9.8,238.2-60.6,348.9-118.4c12.3-6.4,24.5-13,36.7-19.6c134.9-151,217.9-348.6,228-551c11.3-226.3-74.6-440-207-620.3
	c-36.1-49.1-75.5-96.2-122.2-135.3c-113.2-94.8-263.8-137.1-411.4-138.7c-15.7-0.2-31.5,0.1-47.3,0.8
	c-140.3,6.1-281,45.9-399.4,120.3c-159.4,180.8-254.4,422.7-266.8,669.7C1228.9,1351.2,1254.6,1499.3,1322.6,1625.6z" style="fill:#70C654;"/>
<path d="M2425.5,1881.4c-110.6,57.8-224.6,108.6-348.9,118.4c-124.2,9.8-251-3.9-369.4-47.4
	c-159-58.5-301.8-173.1-384.6-326.9c-68-126.3-93.8-274.4-86.5-418.3c12.4-247.1,107.5-488.9,266.8-669.7
	c-61.6,38.8-117.2,86.9-163.4,144.6c-131.7,164.3-190.8,379.6-198.3,587.4c-6,168.1,19.8,342.5,108.8,485.2
	c78.9,126.5,204.2,221,343.3,274.8c139.1,53.8,291.5,68.4,440.1,55.7c60.7-5.2,121.7-14.9,178.5-37.1c57.2-22.3,109-56.7,156.4-95.9
	c33.6-27.7,64.9-58,93.9-90.5C2450,1868.5,2437.8,1875,2425.5,1881.4z" style="fill:#5EB545;"/>
<rect x="2518.2" y="2633.6" width="19.9" height="106.6" style="fill:#FFC52D;"/>
<path d="M2607.5,2653.1h-158.7c-7.3,0-13.1-5.9-13.1-13.1l0,0c0-7.3,5.9-13.1,13.1-13.1h158.7c7.3,0,13.1,5.9,13.1,13.1
	l0,0C2620.6,2647.2,2614.7,2653.1,2607.5,2653.1z" style="fill:#333333;"/>
<g>
	<path d="M2083.6,2882.5c1.7,1,3.3,2,4.9,3.1c0.1,0-0.6,1-0.8,1.6c3.9,2.3,8.2,4,10.9,8.3c1,1.5,3.3,3,6,2.6c4.1-0.6,4.1-0.4,3,4
		c-0.2,0.8-0.1,1.8-0.2,2.5c2.3,2.5,4-1.3,6.1-0.2c2.1,1.1,4.3,2.1,6.8,3.3c-1.7,1.6-2.1,3.8-0.3,5.3c2.1,1.9,4.8,3.1,7.2,4.7
		c1.5,1,2.8,2.1,4.6,3.5c0.3-0.1,1.3-0.5,1.5-0.6c6.8,4.3,13,8.4,19.4,12.1c2.6,1.5,5.9,1.9,8.7,3.1c2,0.9,2.9,2.7,0.8,5.3
		c3.3,0,6.7-0.5,7.5,3.7c2.3-1.3,4.1-2.4,5.9-3.4c0.3,0.3,0.5,0.5,0.8,0.8c-0.7,1.1-1.4,2.3-2.1,3.4c0.2,0.3,0.4,0.8,0.7,1
		c4.1,3.1,9.5,3.6,13.5,6.8c0.5,0.4,1.3,0.9,1.9,0.7c4.5-1.2,6.7,2.9,9.9,4.5c3.8,2,6.8,5.3,11.1,6.9c1.1,0.4,3.2,1.1,3.4,3.6
		c0.3,3.3,2,4.1,4.7,3c0.6-0.2,0.9-1,1.4-1.4c0.5-0.4,1.1-0.6,1.9-1.1c3.7,4.9,8.5,7.2,15.5,5.1c-0.7,1.7-1.1,2.6-1.4,3.3
		c1.6,1.2,3,2.5,4.6,3.5c1.8,1.2,3.7,2.7,5.7,3.1c5.4,1.2,9.8,3.9,14.1,7.1c0.4,0.3,0.7,0.8,1,0.8c5.2-0.6,8.5,3.5,12.7,5.3
		c3.1,1.3,3.1,1.2,7.6-0.9c1.1,2.6,2.2,5.2,3.6,8.5c1.4-2,2.4-3.6,3.4-5c4.7,2.2,9.5,4.2,14.1,6.6c1.9,1,3.3,2.8,5.1,4.4
		c0.8-0.1,1.9-0.3,2.9-0.4c0.2-0.9,0.4-1.9,0.8-4.2c0.9,2,1.2,2.8,1.6,3.5c0.3,0.5,0.8,1,1.4,1.8c1.7-2.2,2.9-3.6,5.9-1.1
		c1.8,1.5,5.9,0.3,10.2,0.3c1.3,1.2,3.6,3.3,6.2,5.7c3.3-1.6,6.9-3.4,10.5-5.2c1.2,1.4,2.2,2.6,3.1,3.7c7.1-2.1,8.7-1.5,11.1,4.3
		c1.3-0.8,2.6-1.5,4.8-2.8c0.6-0.4,1.3,6.4,3.7,0c0.6,3.3,3.9,2.1,5.1,5.3c1.2,3.1,4.2-0.4,6.8-0.5c0.6,0.8,1.2,1.8,2.1,3.2
		c2.2-1.9,4.7-2.8,7.5-0.8c2.8,2,1.9,4.6,1.5,7c2.3,1.4,4.4,2.6,6.8,4c0.6-0.4,1.6-1.1,3.6-2.3c-0.2,2.1-0.4,3.2-0.5,4.3
		c3.5,2.3,4.1-2.3,7.3-3.6c-0.7,2.7-1.1,4.4-1.6,6.3c4.1-0.1,7.5-0.7,7.6-6.8c4.2,5.3,11.3,1,14.2,8.1c1.4-2.1,2.3-3.5,2.9-4.5
		c1,0.9,3.4,3.1,3.6,2.9c3.1-2.6,2.3,1.9,4.6,1.9c0.7-0.6,1.8-1.6,2.3-2.1c1.7,0.1,2.9,0.4,4.2,0.3c0.9-0.1,2.2-1,2.6-0.7
		c2.7,2.6,4.6-1,7.1-1c3.5,0.1,2.5,4.1,5.2,3.8c2.6-0.3,5,0.8,8-0.1c4-1.2,8.8,0,13.2,0.1c0.2,0,0.5,0.1,0.6,0.2
		c3.4,5.5,7.7,4.3,11.8,1.3c2.3,2.9,5,4.8,8,4.3c4.4-0.7,8.1-0.2,11,3.3c0.2,0.3,0.8,0.2,1.7,0.4c0.9-0.9,1.8-2,2.4-2.6
		c2.5,1.1,4.8,2.3,7.2,3.2c3.8,1.4,7.4,3.6,11.7,3.5c2.9,0,6.1-2,8.6,1.2c0.2,0.2,1.5-0.5,2.3-0.7c1.8-0.4,3.1,0,4.9,1.1
		c2.4,1.6,4.6,4.5,8.3,3.2c0.4-0.2,1.6,0.3,1.6,0.6c0.6,3.4,4.6,3.4,6.1,7.6c0.2,1.7,0.1,4.8-2.3,7.3c-0.5,0-0.9,0-1.4,0
		c0.2-1.5,0.3-3,0.6-5.3c-2.2,0.9-4,1.2-5.2,2.2c-1.7,1.4-3,1-4.9,0.5c-2.1-0.6-4.6,0.6-6.7,0.1c-2.1-0.5-3.8-3-5.8-3.1
		c-6.7-0.3-12.8-4.4-19.9-2.7c-1.2,0.3-3.1-1.2-4.2-2.3c-2.5-2.5-5.1-3.4-8.3-1.7c-0.8,0.4-1.7,1-2.4,0.8c-7-1.4-14.3,0.5-21.2-1.4
		c-1.3-0.4-4.7-0.3-3.4-3.7c0.1-0.3-1.7-2-2.1-1.8c-1.3,0.5-2.3,1.7-3.9,2.9c1.6,0.8,2.6,1.4,3.7,1.9c-0.5,0.4-0.9,0.9-1.2,0.8
		c-4.2-1.1-8.5-2.1-8.4-8.4c-2.9,1.3-5.6,2.5-8.5,3.8c-2.1-1.7-4.6-3.7-7.8-6.2c-0.8,2.2-1.3,3.5-1.9,5.2c-2.1,0-4.2,0-6.4,0
		c-1.3-2-2.7-3.9-4.2-6.2c-0.7,1.1-1.4,2-2,2.9c-3.4-1.2-6.2-2.8-9.3-3.2c-3.3-0.4-6.8-1.1-10-1.2c-10.3-0.3-19.5-4.1-28.9-7.3
		c-0.4-0.1-0.8,0.1-1.9,0.3c0.8,1,1.4,1.7,2.2,2.6c-0.5,0.6-0.9,1.3-1.5,1.9c-0.5,0.5-1.1,0.7-1.7,1c-3.9-1.7-7.7-3.3-11.6-5
		c-1.3,0.7-2.7,2.1-4.2,2.2c-1.2,0.1-2.5-1.6-4.1-2.7c-1.5,1.5-4.1,2.5-5.8,0c-1.8-2.5-4.7-2.3-6.8-3.7c-0.5-0.3-1.5-0.6-1.9-0.3
		c-7.1,4.6-11.2,0.6-14.3-4.5c-2.5,1.1-4.7,2.2-6.8,3.2c-5.4-4.1-11.1-6.5-17.4-6.6c-3-0.1-5.2-0.9-6.8-3.4
		c-1.2-1.9-2.5-3.9-4.1-5.5c-1.3-1.3-2.9-1.8-4.1,0.6c-0.6,1.1-1.9,1.9-3.2,2.5c0.7-1.7,1.8-3.1,0-4.5c-3.9-3.1-5.3,1.8-8.3,2.6
		c-1.2-0.8-2.4-1.7-3.7-2.5c0.6-0.9,1.1-1.9,1.7-2.8c-0.3-0.2-0.5-0.5-0.6-0.5c-3.4,2.8-5.5-3.3-9-1.2c0.1-1.4,0.2-2.6,0.3-4
		c-3.9,0-7.5,0-11.6,0c-1.6-3.8-6.3-3.4-8.9-5.7c-3.1-2.7-6.1-3.4-10-3.5c-0.7-4.3-3.9-4.8-7.3-4.9c-2.4-4-5.9-1.9-9.5-1.6
		c-0.8-1-1.5-2.5-2.7-3.1c-1-0.5-2.6,0-3.9,0c-5.4,0-9.4-3-13.3-6.1c-0.6-0.5-0.8-1.9-1.3-2c-6-1.1-9.4-6.4-15.2-8.6
		c-1.1,0.4-2.6,1-4.2,1.6c-7-8.1-10.6-10.4-16.6-9.4c-0.6-1.7-1.2-3.5-1.9-5.6c-3.9,2.7-4.3-1.8-6.3-3c-1.9-1.1-5.9-0.4-9,1.5
		c-1.1-0.9-2.2-1.9-3.5-3.1c1.7-1.6,3.3-3.1,4.9-4.5c-0.2-0.3-0.3-0.6-0.5-1c-1.9,0.9-4,1.5-5.7,2.7c-1.9,1.2-3,1.6-4.3-0.7
		c-0.3-0.5-2.2,0.1-3.6,0.2c-1.7-3.3,3.6-8.2-2.5-10.8c-0.7,1.1-1.5,2.2-2.5,3.6c-2.8-1.4-5.5-2.7-8.2-4.1c0.3-0.4,0.9-1,1.4-1.7
		c-3.6-3.1-8.8-2.1-12.6-5.1c-1-0.8-3.3,0.3-5.6,0.5c1.1-1.5,1.9-2.6,2.8-3.8c-0.6-3.8-6.5-5.3-5-10.7c-1.5,1.4-2.9,2.9-4.7,4.6
		c-1.5-1.3-5.7-1-3.2-4.9c-2.6-3.3-5.6-6.2-7.5-9.8c-2.8-5.1-6.2-9.5-11.2-12.9c1.1-1.3,2.1-2.4,3-3.5c-4-4.8-4.4,3.7-8.3,1.2
		c0.4-2.9,0.8-6.3,1.3-10.2c-1.9,0.4-3.5,2.7-5.7,0.9c-1.3-1.1-2.5-2-1.7-3.9C2079.5,2884.2,2081.6,2883.4,2083.6,2882.5z"/>
	<path d="M2083.6,2882.5c-2.1,0.9-4.1,1.8-6.2,2.7c-4.3-0.8-4.3-0.8-5.2-5.4c-0.8,0.1-1.7,0.2-2.5,0.3c-0.7,0.1-1.3,0.2-2.4,0.4
		c-0.7-4.2-2.8-7.2-6.7-9.2c-0.8-0.4-1-2.2-0.5-3.9c0.8,0.9,1.6,1.7,2.3,2.5c0.8-3.6,0-4.2-5.9-4.6c-1.8-2.8-3.4-5.3-5.1-8
		c-2.5,2.4-2.5,2.4-5,1.3c1.8-1.6,3.5-3.1,5.5-4.9c-4-1.9-4.6,2.9-7.3,2.6c-3.4,0-1.1-6.6-5.4-5.1c0-3.1,0-6,0-9.1
		c-4.5-0.2-6.6-2.5-7.2-6.9c-1.3,0.9-2.3,1.6-3.8,2.5c-1.4-1.3-3-2.8-4.9-4.5c1-1.6,1.8-3.1,2.7-4.5c-4.4-1.3-4.4-1.3-3.6-6.7
		c-3-3-4.5,1.1-7.5,1.5c0.2-1.5,0.6-2.8,0.4-4.2c-0.2-1.3-1-2.6-1.3-3.9c-0.7-3.1-0.5-6.7-4.6-8c-0.5-0.2-0.5-1.6-0.9-2.4
		c-1.1-2.6-1.8-5.4-4.4-7.2c-0.9-0.6-1.3-2.1-1.7-3.3c-0.5-1.2-0.3-3-1.1-3.7c-2.7-2.1-1.9-4.6-0.4-8c-1.8,0.8-2.5,1-3.7,1.5
		c-0.2-1.2-0.5-2.7-0.8-4.2c-1,0-1.9-0.1-3.4-0.2c0-3.2,0-6.4,0-10.9c-1.4,2-1.9,2.8-2.5,3.7c-1.7-3.4-0.1-8.3-4.9-10.2
		c-0.3-0.1-0.7-0.8-0.6-1.1c1.1-5-2.5-7.2-5.9-9.4c-0.4-0.2-0.7-1-0.6-1.4c0.5-1.8-0.8-3-1.9-2.5c-3.1,1.7-3-2-5.4-2.4
		c-0.3,2.2-0.7,4.5-1,6.7c-2.4,1.1-3-0.4-3-2.1c-0.1-1.3,0.3-2.6,0.5-3.9c-2.7-2.2-5.6-4.1-4.4-8.2c0.1-0.5-0.2-1.4-0.7-1.7
		c-3-2.3-1.9-7.1-5.6-9c-0.6-0.3-0.6-1.9-0.5-3c0-1.8,0.4-3.6-1.9-4.3c-0.4-0.1-0.8-0.7-0.8-1.1c-0.1-6-3.9-10.4-6.5-15.3
		c1.4-3.4-0.8-6.2-1.4-9.2c-0.6-2.7-2.3-4.1-6.2-3c1.5-3.8-0.8-6.3-0.9-9c-0.1-2.7,1.4-5.4,2.1-7.9c-3.5-3.2-6.7-6.2-10.8-9.9
		c2.7-0.2,4-0.3,5.2-0.3c1.1-1.7,2.2-3.3,3.3-5.1c-1.7-0.1-3.4-0.2-5-0.2c-2.5-3.1-2.9-6.8-2-10.1c0.9-3.4,0-5.7-2.4-7.8
		c1-2.2,1.9-4.1,3.4-7.2c-2,0.9-2.9,1.3-3.5,1.5c-2.1-4.5-4.1-9.1-6-13.3c1.3-1.8,2.7-3.7,4.7-6.5c-4.6,1.2-4.6,1.2-7,3.5
		c-0.5-1.9-0.9-3.8-1.5-6.1c1.6-0.6,3.2-1.2,4.9-1.8c-0.3-0.6-0.4-1.6-0.7-1.7c-2.4-0.9-4.8-1.5-8-3.7c1.3-0.7,2.7-1.4,4.3-2.4
		c-1.6-2.1-3-3.9-4.3-5.7c-0.4,0.2-0.7,0.4-1.1,0.6c0.4,1.2,0.8,2.3,1.3,3.7c-1.4,1.5-2.9,3.2-4.4,4.8c0.9,1,1.8,2,2.7,3
		c-5.2,2-5.9-1.8-7.1-5c0.1-0.2,0.2-0.5,0.3-0.5c0.8,0.1,1.7,0.2,2.5,0.4c-1.3-3.2-0.9-6.3,1.9-8.1c3.3-2.1,2.8-4.6,2.4-7.4
		c-2.1-0.9-3.7-0.5-3.6,1.6c0.2,3.4-1.3,5-4.1,5.6c-0.7-2.4-1.4-4.6-2.2-7.2c1.2-0.9,2.7-1.9,3.9-2.8c0.6-3.3,1.1-6.5,1.8-10.3
		c-2.5,0.3-4.6,0.5-6.6,0.7c0.5-6.5,2.2-12.9,0.5-19.4c-0.6-2.3-2.1-4.3-2.8-6.5c-0.6-2.1-0.8-4.4-1.2-7c1.3-0.2,2.6-0.4,3.8-0.5
		c0.1-0.4,0.3-1,0.2-1.1c-2-1.6-4.1-3.1-6.3-4.8c0.3-0.8,0.5-1.6,1-2.3c2-2.9,2.1-6.1,0.2-8.8c-1.9-2.7-2.1-5.8-1.3-8.4
		c1.4-4.6-0.6-8-2.8-11.5c2.7-4.2,2.7-4.2-0.2-6.1c1.5-2.8,3.3-5.9-0.3-8.5c0.5-3,1-6,1.6-9.4c-1.9-2.2-3-4.7-0.6-8.3
		c1.1-1.6,3.7-4.3,0.8-6.8c1.6-2.4,0.7-4.2-0.7-6.6c-1-1.7,0.3-4.7-3.4-5.4c2.7-4.1,3.6-8,1.8-12.4c-0.5-1.2,0.6-3.3,1.3-4.8
		c0.8-1.7,0.8-3-1-4c1.6-2.7,3.2-5.4,4.9-8.3c-1.1-1.7-2.2-3.5-3.6-5.6c-0.4-3.1,3.4-6.7-0.1-10.1c2.5-3-0.6-5.2-0.8-7.7
		c-0.5-4.4-2.5-9.1-0.2-13.6c0.2-0.5,1.2-0.6,2.4-1.1c-1.6-0.6-2.9-1.1-4.2-1.7c0.9-2.5,1.7-5.4,2.9-7.9c1.5-3.1-2.2-5-1.5-8.4
		c0.4-1.9,0.1-6.5-5.1-7.2c2.4-1.2,4.1-2,6-3c-1.8-4.2-3.4-8-5.2-12.2c0.9-0.8,2.1-1.8,3.6-3c-1.4-3.2-4.9-6.8,0.8-9.2
		c-2.6-3.8,0.4-9.5-4.7-11.7c0.8-1.8,2.4-3.7,1.9-4.4c-1-1.7-0.8-2.4,1-3c-1.2-4-4.3-0.1-6.5-1.8c5.4-1,3.2-6.2,5.5-8.9
		c-0.9-0.7-1.8-1.6-2.8-1.9c-0.6-0.2-1.5,0.6-2.3,1c-1.6-2.8,0.3-3.2,1.7-4.8c2-2.2,3.5-0.2,5-0.7c-0.8-3.6-1.6-7.2-2.6-11.2
		c-0.6-0.1-1.8-0.3-3.6-0.5c1.7-1.1,3-1.9,4.6-2.9c-1.7-0.7-3.3-1.3-5-1.9c1.7-2.1,3.3-4.1,5.2-6.4c1.2,0.5,2.4,1.1,3.7,1.7
		c0.2-0.3,0.4-0.6,0.6-1c-1.4-1.1-2.9-2.1-4.3-3.2c1.3-1.2,2.9-2.5,4.7-4.1c-0.8-0.9-1.6-2-2.5-2.7c-2-1.4-3.2-2.6-2.3-5.5
		c0.7-2.2-0.2-4.8-2.4-6.4c0.6-0.4,1.3-0.9,2.4-1.6c-1-0.5-1.7-0.8-2.6-1.2c1.3-2.2,1-5.3,4.8-6.1c-1.4-1.8-2.6-3.4-4.4-5.7
		c1.3-0.7,2.7-1.5,4.2-2.3c-2.7-4.7-4.1-8.6,0.2-12.6c1.1-1,0.6-3.6,0.8-5.9c1.2-0.3,2.9-0.8,4.3-1.2c-0.7-0.8-2.3-2.2-2.1-2.6
		c1.7-3.2-2-3.4-2.9-5.4c1.3-1.1,2.6-2.1,4.3-3.5c-1.4-0.6-2.1-0.9-3.2-1.4c1.1-2.7,2.2-5.4,3.4-8.2c0.8,0.3,1.4,0.4,1.9,0.8
		c6.5,4.2,6.5,4.3,0,9.1c1.7,2.3,4,4.6,1.8,8c-0.3,0.5,0.7,2,1.4,2.8c1.2,1.3,2.6,2.5,4,3.8c-0.8,2.5-1.6,5-2.6,8.1c2,0,3.8,0,6,0
		c-0.5,3.8-5.3,6-3.5,10.9c1.3,3.4,0.9,7.5,1.2,11.5c-1.5,1-3.5,2.3-5.4,3.6c0.1,0.3,0.2,0.7,0.4,1c1-0.1,2-0.3,3-0.4
		c0.7,2,1.5,3.9,2,6c0.5,2.1,0.7,4.2,1.1,7.1c-1.7,0.3-3.4,0.5-5.4,0.8c0,2.3,0,5.2,0,8.6c1.2-0.5,1.9-0.8,2.6-1.1
		c0.7-0.3,1.5-0.9,2-0.7c2.1,0.7,0,1.4,0,1.9c0.1,1.6,0.8,3.2,1.4,5.3c-2.4,0.6-4.6,1.1-7,1.6c1.2,4,2.2,7.6,3.3,11.3
		c1.2-0.2,2.2-0.3,3.3-0.5c-0.5,6,1,12.5-3.8,18c1.3-0.5,2.6-1.1,4.5-1.8c-0.2,2.1-0.4,3.8-0.5,5.7c-1.4,0.4-4.5-1.1-4.1,2
		c0.4,4.1-2.7,8.8,2,12.2c0.5,0.3,0.6,1.2,1.1,2.3c-1.4,0.8-2.9,1.7-4.7,2.8c1,2.6,3.6,5.7-1.4,7.7c1.9,0.5,3.5,0.4,4.3,1.1
		c1.8,1.8-1.1,2.5-1.3,3.8c-0.4,2.7-2.6-1.5-3,1c-0.2,1.4-1.4,2.7-2.4,4.4c2.5,1.5,3.3,3.4,3.4,6.8c0.2,4.1-3.3,8.9,1.6,12.2
		c-1,2.1-1.9,3.9-2.9,5.9c2.2,1.1,4,2.1,5.9,3c-0.1,0.3-0.2,0.7-0.3,1c-0.9-0.1-1.9-0.3-3.5-0.5c0,4.5-3.8,8.6-0.3,13.4
		c1,1.4,0.1,5-1.2,8.8c-1,3,1.6,3.8,3.3,5.4c-0.3,1.5-0.3,3.1-0.9,4.5c-1.1,2.4-0.5,4.3,0.7,6.4c0.9,1.7,0.8,6.1,0.2,8.2
		c-0.7,2.4-1.2,4.8-0.6,7.5c0.7,2.7,0.3,5.7,0.5,8.5c0.1,2.2,0.2,4.5,0.4,6.7c0.2,2.3-0.9,5,2.5,6.2c0.5,0.2,0.4,2.3,0.3,3.4
		c-0.2,2.6-2.5,5.1-0.4,7.7c1.8,2.2-3.9,3.4-0.5,5.5c1.4,0.9,0.4,4,3.3,3.3c0.5,3,0.4,5.9-1.1,8c1,1.8,2.5,3.3,2.4,4.8
		c-0.3,6.3-0.5,6.7,1.3,11.9c-1.1,0.9-2.2,1.8-3.3,2.7c0.3,0.6,0.5,1.2,0.7,1.2c2.9,0.1,3.7,1.8,3.9,4.4c0.2,2.8,0.2,5.5,1.9,8.2
		c1,1.6,0.3,4.7-0.4,6.8c-1.5,4.7-1.7,4.7,1.9,7.7c0.7,0.6,2,1,2,1.5c0,1.8-1.3,4.5-0.6,5.1c1.4,1.2,2.3,1.8,2.3,4.1
		c0.1,4.8,1.3,9.6,1.5,14.5c0.2,2.6,4.7,2.7,3.1,6c3,4.8,0.5,11.1,4.7,15.8c-1.6,0.8-3.1,1.5-4.6,2.3c0.1,0.3,0.1,0.6,0.2,0.9
		c1.4,0.1,2.7,0.2,4.5,0.3c0.1,1.1,0.3,2.6,0.5,4.1c0.3,3.3,2,7.2,3.7,11.3c1.3,3.2,1.5,6.7,2.3,11.1c0,0,0.8,0.7,1.7,1.4
		c-0.5,2.7-1,5.4-1.5,8.3c0.9,0,1.9,0,2.8,0c0.9,10,0.9,10,3.2,11.7c0.4,3.6,0,7.4,1.3,10.3c1,2.2,1.9,4.1,2.1,6.6
		c0.1,0.8,1,1.2,0.1,2.6c-0.9,1.3-0.6,3.4-0.9,5.8c1.8-0.1,3-0.5,4.1-0.2c2.7,0.7,3.4,2.1,1.9,4.4c-2.4,3.7-3.4,7.5-1.7,12.2
		c1.6-0.6,3.4-1.2,5.1-1.9c2.4,2.9,0.6,5.6-1.1,7.2c-2.5,2.4-1.9,4.6-1.3,7.6c5.5-0.9,4.2,4.7,6.5,7.1c2.5,2.6,6.6,4.2,6.9,8.8
		c-0.9,0.7-1.9,1.5-2.1,1.8c0.9,1.4,2.1,2.7,2.5,4.3c0.4,1.6,0.1,3.4,0.1,5.4c1.6,0.1,3.1,0.2,4.9,0.2c-0.2,1.4-0.4,2.9-0.6,4.4
		c1.8,1.4,4,2.6,5.5,4.3c1.4,1.6,2.1,3.8,3.2,5.9c-1,0.7-2.1,1.5-3.4,2.4c6,2.6,9.8,5.9,9.2,12.7c5.9,1.2,6.3,7.3,9.9,10.7
		c-0.7,0.8-1.4,1.6-2.5,2.8c3.5,0.9,7,1.3,6.3,5.8c3.5,2,2.3,7.3,7,9c3,1.1,2.9,5.1,1.4,8.5c2.2,0,4,0,5.9,0c1.4,2.8,2.5,6,4.4,8.7
		c1.6,2.3,4.1,4,6.9,6.7c-2.7,0.9-4.3,1.5-6.1,2.1c0.5,0.8,0.6,1.3,0.9,1.5c1.8,1.2,4.2-0.2,6.1,2.2c2,2.5,3.3-0.1,4.6-2.6
		c0.6,2.9,1.2,5.3,1.4,7.8c0.2,2.4,0,4.8,0,7.6c2.3-0.9,4.6-1.8,7.1-2.8c1.1,2.4,1.9,4.2,2.9,6c0.9,1.5,1.7,3.1,3,4.3
		c5,4.8,5.1,5,8.8,13.4c0.5,1.2,2.2,2.1,3.5,2.7c4.8,2.3,9.7,4.5,14.4,6.7c0.2,3.2,0.3,5.9,0.4,8.9c5.7,2.4,11.5,4.8,16.2,6.8
		c2.2,3.8,4,6.8,5.8,9.8c0.3,0.6,0.9,1.3,0.8,1.8c-0.8,3.7,2.2,3.2,4.1,3.6c1,0.2,2.1-0.5,3.6-1c0,2.2,0,4,0,6.1
		c-2.2,1.9-4.7,4-7.7,6.7c0-2.8,0-5.1,0-6.8c-3.1-1.4-6-2.8-9.3-4.3C2086,2879.6,2084.8,2881,2083.6,2882.5z"/>
	<path d="M1895,2181.6c2.3-0.3,4.5-0.6,6.6-0.8c1.8-1.9-1.3-5.2,2.5-6.5c1.6,3.5,1,6.7-1,9.7c-2-1-2.6,1.7-3.1,1.6
		c-1.8-0.3-3.5-1.4-5.3-2.3C1894.8,2182.7,1894.9,2182.1,1895,2181.6z"/>
</g>
<g>
	<path d="M1997.3,2240.6c-63.8,0.3-125.7,2.5-189.1-1.6c3.6-7.7,6.4-13.9,9.3-20c4.9-10.2,10.6-20,14.9-30.4
		c10.2-24.9,19.8-50,29.4-75.1c5.1-13.4,9.3-27.2,14.6-40.5c5.1-12.6,25.1-21.5,38.2-17.6c9.1,2.7,15.2,8.7,16.8,18.1
		c5.1,30.6,19,58,30.8,86.1c3.3,8,5,16.6,8.5,24.5c6.9,15.4,14.5,30.5,21.7,45.8C1993.9,2232.7,1995.1,2235.6,1997.3,2240.6z" style="fill:#009B4D;"/>
</g>
<g>
	<path d="M2660.5,2740.5c0,15.8,0.7,31.5-0.3,47.2c-0.6,8.7-4,17.3-6.1,25.9c-4.4,18.2-9,36.4-8.6,55.3
		c0.1,2.5-0.1,5.1,0.3,7.5c5.6,31.5,4.1,62.7-2.5,94c-3,14.3-4.9,28.9-6,43.4c-0.6,7.8,1.4,15.8,2.3,23.7c1,9.3,2.7,18.5,3,27.8
		c0.3,7.5-4.1,11.6-11.6,11.5c-27.4-0.4-54.9-1.1-82.3-1.7c-1.1,0-2.6,0.1-3.3-0.6c-2.4-2-5.8-4.1-6.4-6.7c-0.4-2,2.4-5.7,4.8-7
		c11.7-6.3,23.5-12.3,35.5-17.9c12.1-5.6,17.8-14.4,16.2-27.8c-2.4-19.5-5.2-38.9-7.2-58.5c-3.4-33.6-11.8-66.6-12-100.6
		c0-4.9-1.2-10.1-2.9-14.8c-13-36.2-9.2-73.6-8.5-110.8c0.3-17.3,2.4-34.7,3.4-52c0.3-4.9,2-7.4,7.3-7.6c8.8-0.3,14.6-5.3,19.1-12.7
		c1.5-2.4,4.5-5,7.1-5.3c25.6-3.1,46.6-15.8,65.8-31.7c13.4-11.1,26.7-22.4,38.5-35c9.4-10.1,16.4-22.3,24.4-33.7
		c3.7-5.2,7.1-10.7,10.8-15.9c7.1-9.8,9.7-21.1,10.6-32.8c0.2-2.3-2.7-4.9-4.2-7.3c-1.9,2.1-5.2,4-5.5,6.4
		c-2.1,15.2-9,27.8-17.3,40.5c-11.3,17-21.6,34.7-37.5,47.7c-17.6,14.5-35.4,29-54.7,41.1c-10.2,6.4-23.6,7.9-35.7,10.7
		c-4.4,1-7.7,1.7-9.3,6.3c-3,8.7-9,12.5-18.4,12.2c-6.4-0.3-12.8,1.1-19.1,0.8c-10.2-0.5-14.4-5.1-12.9-15.1
		c1.3-8.7,3.8-17.4,6.9-25.7c2.7-7.2,10.3-8.6,16.9-9.6c6.5-1,13.2-1.1,19.8-1.2c11-0.1,20.5-3.8,29.1-10.4
		c15-11.6,27.2-25.9,37.3-41.8c7.3-11.4,17.6-17.8,30-21.3c5.1-1.4,6.9-3.9,7.3-9c1.4-18.9,2.2-37.9,13.1-54.7
		c1.4-2.2,1.5-5.8,1.1-8.6c-2.1-16.4,0.4-31.9,8.8-46.3c0.6-1,1.6-2.1,1.4-3c-0.4-2.6-1.3-5.1-2-7.7c-2.2,1.1-5.5,1.5-6.6,3.3
		c-8.7,14.6-14,30.4-12,47.7c0.8,6.7-0.1,12.5-3.6,18.3c-7.7,12.6-8.7,26.8-9.4,41c-0.3,6.2-2.1,10.2-8.5,12.1
		c-17.3,5.2-25.6,20.3-36,33.3c-8.4,10.4-18,20.1-27.8,29.2c-7.1,6.6-16.2,9-27,7.5c-1.2-21-2.2-42-3.6-62.9
		c-0.9-14.6-1.4-29.3-3.7-43.6c-2.8-17.4-2.3-34.6-0.2-51.9c0.3-2.5-0.2-5.1-0.4-8.5c-9.7,4.6-10.6,12.8-10.8,20.2
		c-0.3,13.7,0.1,27.4,1.7,41c1,9.2,0.4,17.2-4.6,25.3c-9.6,15.4-17.3,32-19.7,50.1c-2,15.3-1.5,30.9-2.3,46.4
		c-0.5,9.8-0.9,19.6-1.7,29.4c-0.6,7-5.5,10.7-11.5,13.2c-11.5,4.7-22.8,5.4-34.6,0.3c-12-5.2-15.1-9.2-14.7-22.3
		c0.1-3.4,0.4-6.8,0.6-10.3c0.7-12,8-19.4,20-19.7c5.1-0.1,7-3.3,7.6-7.2c1-7.7,1.6-15.5,1.8-23.2c0.2-10.5-0.1-21-0.5-31.5
		c-1.3-32.5,9.2-60.9,28.7-86.6c5.1-6.7,7.7-15.3,11-23.3c11.7-27.8,28.6-50,60.4-56.1c0.9-0.2,1.8-0.4,2.7-0.6
		c12.8-1.8,14.1-0.7,15.1,12.1c0.1,1.4-0.2,3,0.4,4c1.2,1.9,3,3.4,4.6,5c1.4-2,4-4.1,3.9-6.1c-1.1-25.2-9.1-47-32.1-60.7
		c-5.3-3.2-6.9-7.6-4.7-13.5c1.3-3.7,3-7.3,3.7-11c1.2-6.8,3.2-13.7-5-18.6c-5.3-3.2-4.8-8.8-0.1-13.4c3.1-3,6.6-5.7,9.6-8.8
		c5.1-5.2,7.8-11.3,9-18.7c1.2-7.5,3.7-15.2,7.5-21.8c9-15.4,23.7-20.3,40.5-17.6c11.2,1.8,22.6,4.5,32.8,9.2
		c21.7,9.9,26,21.1,24.1,43.9c-1.6,18.6-11.3,33.4-20.6,48.7c-11,18.2-14.8,38-10.6,59.2c9.8,2.3,19.1,4.7,28.4,6.7
		c29.1,6.1,56.2,31,58.5,57.6c2.8,32.6,2.7,65.4-8,97.1c-8.6,25.4-14,51.3-11.1,78.2c2.4,22.2,6.5,44.3,9.6,66.5
		c4.4,31.7,7.9,63.6,4.6,95.7c-2.5,24.5-5.9,48.9-8.4,73.4c-1.5,14.5-2.8,29,0.4,43.6c4.1,18.8,0.6,37.7-1.6,56.6
		c-3.7,31.3-7.3,62.7,2.7,93.8c2.3,7.3,2.7,15.3,2.9,23c0.2,9.6-5.1,14.7-14.4,14.7c-24.4,0-48.9-0.2-73.3-0.7
		c-2.9-0.1-7.7-2.3-8.1-4.2c-0.5-2.9,1.1-7.7,3.5-9.4c5.5-4,12-6.5,17.9-9.8c7.2-4,14.3-7.9,21.2-12.3c4.8-3.1,6.6-8,5.8-13.7
		c-2.5-16.9-4.4-34-7.7-50.8c-5.9-30.4-10.8-60.8-9.9-91.8c0.4-15.2-5.7-28.6-9.4-42.6c-5.2-19.4-12.4-38.3-13.4-58.6
		c-0.7-14.8-1.1-29.7-0.9-44.5c0.1-6.6-2.1-9-8.4-9.5c-4.2-0.4-8.2-2.4-12.4-3.1c-2.3-0.4-4.8,0.6-7.2,1c0.6,2.4,0.5,6.1,2,7.1
		c4.4,2.6,9.4,4.2,14.2,6.1C2658.9,2740.5,2659.7,2740.5,2660.5,2740.5z" style="fill:#FFA1AF;"/>
</g>
<g>
	<path d="M1751,1348c0,6.4,0.2,11.5-0.1,16.6c-0.2,3.5-1.2,7-1.9,10.7c2.4,1.3,5,2.8,8.3,4.6c1.8-1.5,4.1-3.5,6.1-5.3
		c1.2,1.7,2.7,4.6,4.8,6.6c1,0.9,3.4,0.1,5.7,0.1c-0.3-3.1-0.5-5.8-0.8-8.4c3.8,2.6,7.1,4.9,10.4,7.2c2.4-1.7,1.7-7.5,6.3-4.3
		c2.1,1.5,3.5,3.9,5.4,6c1-2,1.4-4.3,2.6-4.9c1.3-0.6,3.5,0.1,5.2,0.7c2.2,0.9,4.3,2.2,6.5,3.4c1.5-1.2,3-2.5,4.5-3.7
		c0.4,0.3,0.9,0.7,1.3,1c-0.5,1.2-1.5,2.5-1.5,3.6c0.1,0.9,1.4,1.8,3,3.7c0.6-3.1,1-4.9,1.4-7.3c1.8,0,4.2-0.8,5.6,0.1
		c8.5,5.2,16.2,2.9,21.4-0.2c2.6,2.2,4.5,3.8,7.2,6.2c1.7-3.4,2.3-4.6,3-5.9c5.2,2,10.8-0.8,16.1,2.1c1.4,0.8,4.2-0.8,6.9-1.4
		c2.2,4.6,5.4,3.7,8.7-0.5c2.3,3.1,4.9,3,8.2,2.9c3.5-0.1,7.9-1.5,11.2,2.2c0.8,0.9,4.3,1.1,4.9,0.3c4.1-5.4,8.4-1.9,12.1-0.3
		c4.2,1.8,6.8,1.2,8.8-3.8c4.2,1.7,8.1,3.7,12.2,4.7c5.1,1.2,10.4,2.2,15.6,2.1c5.1-0.1,6.4,0,8.5,4.9c0.4,1,1.8,1.6,2.7,2.4
		c0.3-0.3,0.7-0.7,1-1c-0.8-1.5-1.7-2.9-2.6-4.5c3-2.1,5.1-4.9,7.9,0.5c2.5,4.8,4.8,4.7,9.4,1.6c1.1-0.7,2.2-1.5,3.5-2.3
		c1.2,1.5,2.3,2.9,3.6,4.5c4-2.4,7.3-3.1,11.9-0.6c4.1,2.2,9.6,1.8,14.5,2.6c0.2,0,0.5,0.1,0.6,0c3.3-3.5,7.7-2.3,11.6-3.2
		c9.4-2.1,11.1-2.1,17.7,4.2c3.4-5.4,6.8-10.8,10.5-16.6c-0.7-0.5-1.8-1.1-2.7-1.9c-1-0.8-2.7-2-2.5-2.7c1.1-5-1.3-11.1,4.7-14.8
		c1.4-0.9,1.5-4,1.9-4.9c-3-2.7-6.7-4.4-7.3-6.9c-0.7-3,1.2-6.7,1.9-10c-0.7-2.3-2.6-5.1-2-7.3c0.6-2.4,3.5-4.1,5.8-6.6
		c-1.4-0.7-3.1-1.4-4.7-2.2c0.9-3.2,2.4-6,1.3-10.1c-1-3.5,1.3-7.8,2-11.8c0.3-2.1,0.8-4.4,0.1-6.3c-2.9-7.6-2.3-10.2,4.5-15.3
		c-0.9-1.2-1.9-2.4-2.6-3.7c-0.6-1.1-0.9-2.5-1.3-3.8c4-0.8,4-0.8,3.5-5.8c1.6,0.2,3,0.3,4.5,0.5c0.5-0.6,0.9-1.2,1.4-1.9
		c-1.7-1.8-3.4-3.7-5.1-5.5c-0.2,0.5-0.3,1.1-0.5,1.6c0.7-2.7,2.8-6.6,1.7-8c-3.1-3.9,0.5-5.6,2.3-8.6c1.2,2.4,2.5,4.9,3.9,7.8
		c1.2-1,2.5-2,3.7-3c1.1,1.8,2.2,3.5,3.2,5.2c0.5-0.1,1-0.1,1.5-0.2c0.4-2.3,0.8-4.5,1.1-6.8c11.8,4.7,15.3,12.4,8.6,19.5
		c1,4.1,3.4,8,1.3,12.9c-0.8,2,1.9,5.5,3.1,8.5c-1.4,1.2-2.6,2.3-4.5,3.9c6.2,2.1,5.3,5.7,3.3,10c-0.9,1.9-0.4,4.4-0.6,6.5
		c-0.2,2.2-0.6,4.3-1,7.9c1.5,1.6,3.9,4.7,1.3,8.9c-0.1,0.2-0.2,0.4-0.2,0.6c0.4,3.5,2.5,8.2,1,10.2c-2.8,3.6-1.2,6.3-0.8,9.5
		c0.2,1.8,0,3.6-0.1,5.4c-0.5,6.4-1.1,12.8-1.4,19.2c-0.2,4.1,0.6,8.3-0.2,12.2c-0.8,4-0.2,6.5,3.5,8.4c1.7,0.9,2.9,2.6,4.5,4.1
		c-0.8,1.7-1.5,3.3-2.2,4.9c0.5,0.4,1,1,1.2,0.9c1.1-0.4,3-1.2,2.9-1.5c-0.5-3.7,2.1-5,4.6-7c1,8.4-1,12.7-8.2,13.4
		c-3.9,0.3-3.1,8.1-7.8,3.3c-0.7,4.4-1.2,8-2,12.8c-5.4-3.5-9.7-6.3-14.4-9.3c-8.2,5-17.3,3.1-25.9,1.7c-6-1-9.6-0.2-12.1,5.5
		c-1.6-0.7-2.8-1.3-4.1-1.8c-3.4-1.2-5.6-0.5-6.7,3.4c-0.5,1.9-2,3.4-3.4,5.8c-3.4-3.9-5.8-4.9-9.9-2.2c-2.8,1.9-7.5,0.9-11.3,1.4
		c-1.9,0.3-3.7,1-6.1,1.7c-3.9-5.2-10.3-5.1-16.3-5.7c-0.8-0.1-2-0.1-2.5,0.4c-4.5,4.3-9.4,1.5-14.1,0.9c-2.2-0.3-4.5-0.7-6.6-0.2
		c-2.9,0.7-5.7,3.3-8.3-0.4c-0.3-0.4-1.4-0.5-1.9-0.2c-7.3,3.4-13.8,0.9-20.2-2.6c-3.9,3.1-7.5,7.4-12.7,2c-0.7-0.7-3.1,0.5-4.5,0
		c-3.9-1.5-9.2-0.2-11.4-5.5c-0.2-0.5-2-0.4-4.1-0.8c1,2.1,1.6,3.3,2.2,4.5c-6.3,6.1-13.9,5.6-20.6-0.8c-1.4,1-2.9,2-4.3,3.1
		c-3.7,3-7.4,2.9-11-0.4c-4.6-4.2-5.1-4.2-9.6-0.3c-2.1-0.5-4.3-2-5.6-1.3c-5.8,3-11,0.2-16.5-0.9c-2-0.4-4.3,0.1-6.4,1.4
		c-1.6-1.1-3.2-3.1-4.7-3c-1.6,0.1-3.1,2.1-5,3.6c-1.6-1.3-3.2-2.7-4.9-4.1c-5.8,4.4-12.5,2.4-17.9-5.3c-6,4.2-9.6-0.9-14.2-4.2
		c-1.3,2.3-2.5,4.5-3.7,6.7c-0.5,0-0.9,0-1.4-0.1c-0.2-1.7-1.1-4-0.3-5.1c2.7-3.9,0.6-6.6-1.8-10.2c-1.2,3.1,1.8,8-3.9,7.9
		c-2.8-2.4-5.7-4.8-8.2-7c-0.3,0.7-1.1,2.4-1.8,4.1c-0.5,1.3-1.6,2.8-1.2,3.8c1.3,3.7-0.6,5-4.9,5.6c5.6,2.8,3,5.8,1.2,8.1
		c-1.2,1.5-3.9,2.9-5.6,2.6c-2.5-0.4-4.3-2.4-4.4-5.8c-0.1-3.2-1.4-6.4-2.5-9.5c-2.2-6.4-2.8-12.6-0.8-19.3c0.7-2.3-1.8-5.9-3.6-8.3
		c-4-5.6-3.8-13.5,2.4-20c-1.4-0.6-3-1.1-4.2-2.1c-1.2-1-1.8-2.6-2.9-4.2c2.2-2,3.5-3.9,2-7.4c-1.3-3-0.4-6.9-0.4-10.5
		c0-4.1,0-8.2,0-13.5c1.1-2.6,2.8-6.6,4.6-11.2c-2.3-0.6-4.1-1-6.1-1.6c2.7-3.8,5.2-7.3,7.4-10.4c-2.2-3.5-3.8-6.2-5.3-8.7
		c2.7-3.4,5.1-6.3,7.5-9.3c-0.2-0.3-0.4-0.6-0.7-0.9c-1.8,0.9-3.6,1.8-5.4,2.7c-0.2-0.4-0.6-1-0.4-1.2c5.2-7.7,4.5-17.1,7.3-25.5
		c1.1-3.4,1.9-7.4,7.1-9.1c-0.7,5.2-1.2,9.6-1.8,14.1c3.5,0,3.5,0,4.4-5.4c2.9-1.4,4.3-0.4,5.6,2.5c1.5,3.3,3.9,6.2,6.2,9.6
		c-3.5,2-2.8,6-1.2,10.5c-1.4-0.1-2.3-0.2-3.5-0.4c-0.2,0.6-0.7,1.5-0.5,1.7c4.6,4.7,2.2,10.1,1.7,15.4c-0.5,4.4-0.5,8.9-0.8,13.4
		c-0.1,0.9,0,1.9-0.5,2.6c-4.4,6.2-1.9,12.1-0.4,18.5c0.9,3.6,0.2,9.2-2.1,11.4C1744.6,1346.4,1748.9,1347,1751,1348z M2083.9,1248
		c-1,4.6-1.6,7.6-2.3,11.1c3,0,5.6,0,9.2,0C2088.5,1255.3,2086.6,1252.2,2083.9,1248z M1789.6,1409.8c1.8-2.4,3.2-4.2,4.3-5.6
		c-3.4-2.3-5.9-4.1-8.5-5.9c-0.4,0.3-0.8,0.5-1.2,0.8C1785.9,1402.3,1787.5,1405.5,1789.6,1409.8z" style="fill:#FFFFFF;"/>
	<path d="M1871.9,1021.9c1.1,1.8,1.8,2.9,2.9,4.7c0.9-1.9,1.5-3.2,2.1-4.5c1.5-3.1,1.4-7.6,6.7-7.7
		c0.9,0,1.9-3.1,2.4-4.9c0.4-1.4,0.2-3,0.3-4.6c3.5,0,6.5,0,10.4,0c-1.5-1.6-2.5-2.6-4.1-4.3c9.2-4.6,17.1-10.2,21.2-20.7
		c1.1-0.1,3.2-0.4,6.5-0.7c-1.1-1.7-2-3-2.9-4.4c2.2-1,4.5-2,7,1.2c0.9,1.1,4.3,0.2,7.5,0.2c-5.6,7.7,4.6,12.9,2.2,20.6
		c-2.5-2.8-0.2-8.7-5.9-9.2c1.6,11.1,5.2,13.9,12.5,9.8c-0.4-1.5-0.4-3.3-1.2-4.6c-0.8-1.3-2.3-2.3-3.6-3.5c4.5-4.1,6.9-0.7,9.1,1.4
		c2.5,2.5,4.3,5.6,6.3,8.6c1.8,2.7,3.5,5.5,5.3,8.4c0,0,0.7-0.5,2.2-1.4c-1.2,4.1-0.2,6.4,3.2,8.6c2.4,1.6,3.1,5.5,4.7,8.6
		c2.9-0.7,5.1-0.4,5.8,4.1c0.3,2.6,3,5,4.9,7.2c3.1,3.8,6.5,7.3,9.7,11.1c0.6,0.8,0.8,2.3,0.6,3.3c-1.6,7,3.4,10.4,7.4,14.4
		c0.8,0.8,2.2,1.7,2.3,2.7c0.4,5.2,2.8,9,6.3,12.9c3.2,3.5,5.2,8.1,8,12.7c0.4,0,1.9,0,3.4,0c0,1.4-0.3,2.8,0,4.1
		c0.4,1.5,0.8,3.7,1.9,4.3c6.2,3.6,8.3,9.4,9,16c0.1,0.9,0.2,2.4,0.5,2.5c4.9,1.1,3.2,5.2,4.1,8.2c0.6,1.9,1.7,3.6,2.9,6
		c-2.1,1.4-3.4,4.8-1.4,8c1.6,2.7,4.6,4.5,7.8,7.4c0,1.3,0,3.7,0,6.5c1.7-0.3,2.9-0.5,4.1-0.8c0.2,0.5,0.4,1.1,0.6,1.6
		c-2.1,0.8-4.1,2.2-6.2,2.3c-2.6,0.2-5.3-0.9-7.9-0.8c-2.3,0.1-4.6,1.3-7.6,1.1c0.9-0.7,1.8-1.5,3.1-2.5
		c-10.1-6.5-15.1-16.9-20.4-27.2c-1.3-2.5-4.7-3.9-7.5-6.1c1.4-1.6,2.3-2.5,3.5-3.8c-7.1-1.8-8.9-7.6-11.4-12.7
		c-1.4-2.8-2-6.5-6.5-5.4c-0.5-2.2,3.7-5.3-2.2-6.2c-2.4-0.4-5.2-4.8-5.8-7.8c-1.7-7.7-6.9-12.9-10.9-19.1
		c-4.2-6.4-8.4-12.5-14.9-16.9c-0.9-0.6,0.2-3.7-0.7-4.7c-6.2-7.4-11.5-15.3-16.1-23.8c-2.1-3.8-4-7.7-6.1-11.7
		c-2.1,2.3-4,4.4-6.4,7c0.9,1,2.3,2.2,3.3,3.6c0.9,1.2,1.9,2.7,2,4.1c0.1,4.1-2.2,8-0.6,12.4c0.3,0.9-1.6,2.5-2.6,3.8
		c1.6,2.4,3.3,4.8,4.8,7.4c0.6,1,0.7,2.5,0.6,3.7c-0.3,3.9-2.6,7.7,0.4,11.6c0.3,0.3-1,1.9-1.1,2.1c5.1,11.7,3.4,22.9,0.9,34.6
		c4.9,5.3,4.7,13.8-1.3,16.4c1.6,1.2,2.9,2.2,4.4,3.4c0,3.3-3.4,6.9,0.6,10.2c0.6,0.5,0.6,2.4,0.1,3.2c-2.8,4.5,1.5,9.7-2,14.5
		c-1.2,1.6,1.1,6.1,2.1,9.1c1.4,4.3,2.5,7.8,0.3,13.1c-1.9,4.6-4,10.7-2.7,16.7c0.4,1.8-1.7,3.9-2.2,6c-0.3,0.9,0.3,2.1,0.5,3.1
		c1-0.2,2-0.4,3.2-0.7c-0.7,7-1.4,14.1-2.1,21.7c-0.9,0-2.4,0-3.7,0c0.8,2.2,1.2,4.7,2.6,6.4c3.4,4,3.6,3.9,4.8,8.2
		c-6.2,4.9-6.3,5.1-2.7,14.2c-1.3,1.9-7.8,2.4-1.9,6.5c-1.5,6.5,2.9,13.7-2.2,19.9c-0.7,0.8,0.2,2.9,0.6,4.2
		c-0.4,9.2-1.2,18.6-10.6,24.5c-1.1-2.3-4.2-3.6-4.2-7.6c0-3.1-1.2-6.1-2-9.2c-0.2-2.7,7.1-2.5,2.5-7.2c-1.4,1.5-2.8,3-4.3,4.7
		c-4.2-6,1.9-8.3,3.6-12.1c-1.2-2.8-2.9-5.5-3.6-8.5c-0.6-2.5-1-5.9,0.2-7.9c2.7-4.7,0.7-7.1-3.3-9.1c3.2-6.7,6.3-13.3,0.1-19.8
		c3.1-4.5,2-7.4,0.2-13.7c-1.4-4.7,0.1-10.2,0.5-15.3c0.1-1.8,1.2-3.6,1.2-5.4c0-2.9-0.7-5.8-0.8-8.7c-0.2-6.7-1-13.5-0.1-20
		c1-7.2,0.3-13.7-3-20c-0.3-0.5,0.1-1.3,0.3-2.7c1.4,1.2,2.5,2.1,4.4,3.8c-0.1-2.2-0.2-3.7-0.3-5.3c-0.2-1.7-1.1-3.8-0.5-5
		c1.3-2.3,0.8-3.9,0-6.1c-2.8-7.4-1.2-14.7,0.1-22.3c0.8-4.6-0.7-9.5-0.7-14.2c0-8.1,0.2-16.3,0.6-24.4c0.1-1.2,1.3-2.4,2.2-3.8
		c-2.8-6-4.8-12.7-3.1-20c0.5-1.9,0.4-4.1-0.1-6c-0.9-3.7-0.5-7,1.1-10.4c0.7-1.5-0.2-3.7-0.4-6.1c-4.2,4.6-7.5,8.2-10.8,11.9
		c-3,3.3-5.8,6.6-7,11.3c-0.5,2.2-4.4,3.5-6.4,5.6c-2.6,2.7-5,5.7-7.4,8.6c-0.9,1-1.5,2.8-2.5,3c-5.7,1-6,5.5-6.7,9.3
		c-4.6,3.4-8.9,6.6-14.7,10.8c3.7-0.2,6.1-0.3,8.5-0.4c-1,4.1-7,3.8-7.5,8.5c0,0.3-1.9,0.4-2.9,0.6c-1,0.2-2.8,0.3-3,0.8
		c-1.3,4.4-7.1,6-6.9,11.7c0.1,1.8-3.4,3.9-5.5,5.5c-4.7,3.6-6.9,9.6-12.2,12.8c-2.9,1.8-4.5,0.8-5.7-1c-1.6,3.1-3.4,6.4-5.3,10.1
		c-3.6-1.7-6.8-3.6-10.1-4.7c-1.9-0.6-4.2,0.2-6.6,0.3c0-1.3,0-3,0-4.6c2.4,0.1,4.8,0.2,7.4,0.4c0-2.7,0-4.7,0-7
		c1.7-0.4,3.4-0.9,5.2-1.3c-0.6-1.3-1.1-2.6-1.9-4.3c1.4-0.3,2.7-0.7,4.4-1.1c0.3-5.9,1.7-11.2,7.8-14.6c2.5-1.4,3.6-5.2,5.6-7.7
		c1.9-2.3,3.3-4.8,6.4-6.6c3.6-2,5.9-6.6,8.1-10.5c1.8-3.1,3-3.9,6.8-2.2c1.3-4.5,4.7-5.8,10.6-5.2c-3.1-2.9-5-4.7-7.9-7.3
		c4.1,1.5,5-1.6,6.9-2.6c3.2-1.7,4.4-2.3,3.3-6.2c-0.4-1.6,2.7-5.5,4.8-6.1C1868.5,1034.9,1869.4,1028.6,1871.9,1021.9z" style="fill:#FFFFFF;"/>
</g>
<g>
	<path d="M2419.2,1483.1c5.5-12.9,10.3-26,16.4-38.3c7-14.3,14.7-28.3,22.9-42c7.6-12.7,15.8-25.1,24.6-37
		c10-13.5,20.2-27,31.6-39.4c14-15.3,28.7-30.1,44.4-43.6c12-10.3,25.6-19.2,39.4-26.9c14.3-8,29.4-14.5,44.7-20.4
		c13.8-5.3,28.1-9.6,42.4-13.3c15-3.8,30.2-7.1,45.5-9.2c16-2.2,32.2-3,48.4-4c28.1-1.8,53.8,8.3,79.7,17.2
		c9.9,3.4,19.6,7.4,28.8,12.3c7.2,3.8,14,8.7,20,14.3c15.5,14.5,31,29,45.3,44.6c10.7,11.7,20.3,24.6,29.1,37.8
		c8.3,12.5,15.9,25.7,22.1,39.3c10.1,22.4,18.7,45.4,28.3,69.1c1.5-0.8,4.1-1.7,6.1-3.2c13.5-10,28.3-17.8,44.4-22.3
		c19.4-5.5,39-7.9,59.4-4.6c19.6,3.2,36.3,11.8,52.3,22.4c7.3,4.8,14.1,11.2,19.5,18.1c9.7,12.3,18.3,25.5,27.4,38.4
		c2.9,4.1,5.6,8.3,8.7,12.9c1.8-0.6,3.9-0.9,5.6-1.8c26.2-13.9,54.4-16.3,83.6-15.9c22.2,0.3,41.2,8.2,58.2,20.8
		c15.4,11.4,28.3,25.9,35.6,44.2c6.2,15.6,12.7,31.3,17,47.5c3.8,14.2,6.7,29.3,6.4,43.9c-0.5,23-16.5,48.2-47.2,43.4
		c-17.2-2.7-35.1-1-52.7-0.9c-19.6,0.1-39.3,0.4-58.9,0.9c-19.8,0.5-39.7,1.6-59.5,2c-21.5,0.4-42.9,0.4-64.4,0.5
		c-25.3,0.1-50.7,0-76,0c-25.6,0-51.2,0.1-76.7,0.1c-19.4,0-38.8,0-58.2-0.3c-20.8-0.4-41.5-1.4-62.3-1.8
		c-20.1-0.4-40.2-0.4-60.3-0.5c-20.1-0.1-40.2,0-60.3,0c-20.3,0-40.6-0.1-61,0.1c-26,0.2-52,0.6-78.1,1.1
		c-25.6,0.4-51.1,1.2-76.7,1.4c-25.8,0.3-51.6,0-77.4,0.2c-19.4,0.1-38.8,0.8-58.2,1c-20.6,0.2-41.1-0.1-61.7,0.2
		c-31,0.5-62.1,1.4-93.1,1.9c-19.6,0.3-39.2,0.2-58.8,0.3c-2.7,0-5.4,0.3-8.1,0.5c-39.4,2.8-66.6-25.5-58.8-64.8
		c4.7-23.6,14.5-45.2,26.7-65.6c8.8-14.6,20.4-27.2,33.3-38.8c12.9-11.5,27.1-20.9,42.6-28.1c16.1-7.6,32.9-13.4,50.8-15.5
		c14.5-1.7,28.9-3.8,43.5-5.1c19.1-1.7,38.2-2.2,57,3.6C2408.2,1480.7,2414,1481.8,2419.2,1483.1z" style="fill:#D3E9EF;"/>
	<path d="M1339.5,1009c20.5-0.6,39.6-1.9,58.7-1.4c18.9,0.5,36,7.7,51.4,18.6c22.1,15.6,39.1,35.6,51.1,59.8
		c9.1,18.4,13.8,38.2,16.2,58.5c0.8,6.8,1.9,13.6,2.2,20.4c0.2,4.9-0.2,10.1-1.4,14.8c-3.3,12.6-11,19.9-24.9,19.9
		c-19.2,0.1-38.3,0.9-57.5,1.3c-43.2,1.1-86.3,2.7-129.5,3.1c-45.9,0.4-91.8-0.4-137.7-0.8c-37.7-0.3-75.3-0.6-113-1
		c-33.6-0.4-67.2-1.2-100.8-1.1c-26.7,0.1-53.4,1.5-80.1,2c-24.9,0.4-49.8,0.3-74.7,0.7c-46.8,0.7-93.6,2-140.5,2.5
		c-30.4,0.3-60.7-0.4-91.1-0.7c-16.7-0.2-33.5,0.8-49.9-1.2c-12.5-1.5-25.2-5.5-36.4-11c-9.4-4.6-10.8-16-9.8-25.5
		c3.4-34.3,14-65.9,36.8-92.7c13.4-15.8,28.4-29.6,47.7-38.2c20.1-9,41.2-14.6,63.2-12.4c16.7,1.7,33.1,5.7,49.6,9.1
		c3.5,0.7,6.7,2.8,10.3,4.3c6.1-10.9,12.1-21.9,18.4-32.7c13.4-23.3,32.5-41.1,55.2-55.1c17.5-10.8,36.3-17.9,56.4-22.4
		c40.9-9,75.8,1.4,105,31.3c1.3,1.3,2.6,2.6,3.9,3.8c0.7,0.6,1.5,0.9,3.5,2.1c1.9-7.6,4-14.5,5.2-21.5c7.3-41.7,28-76,57.8-105.2
		c12.6-12.4,28-20.4,44.1-27.2c27.8-11.9,56.8-18.6,87-20.2c36-1.9,71.4,0.8,103.9,18.1c31,16.5,57.3,38.3,74.1,69.9
		c8.5,16.1,18.2,32,24.1,49.1c8.3,24.1,13.7,49.1,20.3,73.8C1338.9,1004.7,1339.2,1007.6,1339.5,1009z" style="fill:#D3E9EF;"/>
</g>
<rect x="2481.6" y="2745.6" width="93" height="314.9" style="fill:#0185D0;"/>
<rect x="2463.1" y="3049.9" width="130.1" height="26.3" style="fill:#FFC52D;"/>
<rect x="2463.1" y="2727.1" width="130.1" height="26.3" style="fill:#FFC52D;"/>
<path d="M2607.5,2626.8h-14c-0.2,0.3-0.4,0.5-0.6,0.7c-3.1,4.8-3.4,10.9-5,16.4c-0.9,3.2-2.2,6.3-3.9,9.2h23.4
	c7.3,0,13.1-5.9,13.1-13.1l0,0C2620.6,2632.7,2614.7,2626.8,2607.5,2626.8z" style="fill:#333333;"/>
<path d="M2404.3,837.5c10.7,33.6,14.4,71.4,0.4,104.1c-5.9,13.8-15.4,26.7-28.5,33.6c-31.3,16.4-69.2-7.5-87.9-37.7
	c-18.7-30.2-26.7-66.7-47.3-95.6c-21.4-30.1-54.2-49.1-79.8-75.4c-25.6-26.3-44.2-67.3-27.3-100.8c29.7-58.9,114.7-36.9,153.7-4
	C2337.5,703.8,2384.3,774.6,2404.3,837.5z" style="fill:#FFFFFF;"/>
</svg>
