<?xml version="1.0" encoding="utf-8"?>
<!-- Generator: Adobe Illustrator 21.0.0, SVG Export Plug-In . SVG Version: 6.00 Build 0)  -->
<svg version="1.1" xmlns="http://www.w3.org/2000/svg" xmlns:xlink="http://www.w3.org/1999/xlink" x="0px" y="0px" viewBox="0 0 3084.3 3539" style="enable-background:new 0 0 3084.3 3539;" xml:space="preserve">

<g>
	<g>
		<g>
			<path d="M757.8,549.6l0.3,0.8c4.6,13.3-2.4,27.8-15.6,32.4c-13.3,4.6-27.8-2.4-32.4-15.6l-0.3-0.8
				c-4.6-13.3,2.4-27.8,15.6-32.4C738.7,529.4,753.2,536.4,757.8,549.6z" style="fill:#E5E5E5;"/>
			<path d="M791,644.9l0.3,0.8c4.6,13.3-2.4,27.8-15.6,32.4c-13.3,4.6-27.8-2.4-32.4-15.6l-0.3-0.8
				c-4.6-13.3,2.4-27.8,15.6-32.4C771.9,624.6,786.4,631.6,791,644.9z" style="fill:#E5E5E5;"/>
			<path d="M824.3,740.1l0.3,0.8c4.6,13.3-2.4,27.8-15.6,32.4c-13.3,4.6-27.8-2.4-32.4-15.6l-0.3-0.8
				c-4.6-13.3,2.4-27.8,15.6-32.4C805.2,719.8,819.7,726.8,824.3,740.1z" style="fill:#E5E5E5;"/>
			<path d="M857.6,835.3l0.3,0.8c4.6,13.3-2.4,27.8-15.6,32.4c-13.3,4.6-27.8-2.4-32.4-15.6l-0.3-0.8
				c-4.6-13.3,2.4-27.8,15.6-32.4C838.4,815.1,852.9,822.1,857.6,835.3z" style="fill:#E5E5E5;"/>
			<path d="M890.8,930.6l0.3,0.8c4.6,13.3-2.4,27.8-15.6,32.4c-13.3,4.6-27.8-2.4-32.4-15.6l-0.3-0.8
				c-4.6-13.3,2.4-27.8,15.6-32.4C871.7,910.3,886.2,917.3,890.8,930.6z" style="fill:#E5E5E5;"/>
			<path d="M924.1,1025.8l0.3,0.8c4.6,13.3-2.4,27.8-15.6,32.4c-13.3,4.6-27.8-2.4-32.4-15.6l-0.3-0.8
				c-4.6-13.3,2.4-27.8,15.6-32.4C905,1005.6,919.5,1012.6,924.1,1025.8z" style="fill:#E5E5E5;"/>
			<path d="M849.8,517.5l0.3,0.8c4.6,13.3-2.4,27.8-15.6,32.4c-13.3,4.6-27.8-2.4-32.4-15.6l-0.3-0.8
				c-4.6-13.3,2.4-27.8,15.6-32.4S845.2,504.2,849.8,517.5z" style="fill:#E5E5E5;"/>
			<path d="M883.1,612.7l0.3,0.8c4.6,13.3-2.4,27.8-15.6,32.4c-13.3,4.6-27.8-2.4-32.4-15.6l-0.3-0.8
				c-4.6-13.3,2.4-27.8,15.6-32.4C864,592.5,878.5,599.5,883.1,612.7z" style="fill:#E5E5E5;"/>
			<path d="M916.3,708l0.3,0.8c4.6,13.3-2.4,27.8-15.6,32.4c-13.3,4.6-27.8-2.4-32.4-15.6l-0.3-0.8
				c-4.6-13.3,2.4-27.8,15.6-32.4C897.2,687.7,911.7,694.7,916.3,708z" style="fill:#E5E5E5;"/>
			<path d="M949.6,803.2l0.3,0.8c4.6,13.3-2.4,27.8-15.6,32.4c-13.3,4.6-27.8-2.4-32.4-15.6l-0.3-0.8
				c-4.6-13.3,2.4-27.8,15.6-32.4C930.5,782.9,945,789.9,949.6,803.2z" style="fill:#E5E5E5;"/>
			<path d="M982.9,898.4l0.3,0.8c4.6,13.3-2.4,27.8-15.6,32.4c-13.3,4.6-27.8-2.4-32.4-15.6l-0.3-0.8
				c-4.6-13.3,2.4-27.8,15.6-32.4C963.7,878.2,978.2,885.2,982.9,898.4z" style="fill:#E5E5E5;"/>
			<path d="M1016.1,993.7l0.3,0.8c4.6,13.3-2.4,27.8-15.6,32.4c-13.3,4.6-27.8-2.4-32.4-15.6l-0.3-0.8
				c-4.6-13.3,2.4-27.8,15.6-32.4C997,973.4,1011.5,980.4,1016.1,993.7z" style="fill:#E5E5E5;"/>
			<path d="M941.9,485.3l0.3,0.8c4.6,13.3-2.4,27.8-15.6,32.4c-13.3,4.6-27.8-2.4-32.4-15.6l-0.3-0.8
				c-4.6-13.3,2.4-27.8,15.6-32.4C922.7,465.1,937.2,472.1,941.9,485.3z" style="fill:#E5E5E5;"/>
			<path d="M975.1,580.6l0.3,0.8c4.6,13.3-2.4,27.8-15.6,32.4c-13.3,4.6-27.8-2.4-32.4-15.6l-0.3-0.8
				c-4.6-13.3,2.4-27.8,15.6-32.4C956,560.3,970.5,567.3,975.1,580.6z" style="fill:#E5E5E5;"/>
			<path d="M1008.4,675.8l0.3,0.8c4.6,13.3-2.4,27.8-15.6,32.4c-13.3,4.6-27.8-2.4-32.4-15.6l-0.3-0.8
				c-4.6-13.3,2.4-27.8,15.6-32.4C989.3,655.6,1003.8,662.6,1008.4,675.8z" style="fill:#E5E5E5;"/>
			<path d="M1041.6,771.1l0.3,0.8c4.6,13.3-2.4,27.8-15.6,32.4c-13.3,4.6-27.8-2.4-32.4-15.6l-0.3-0.8
				c-4.6-13.3,2.4-27.8,15.6-32.4C1022.5,750.8,1037,757.8,1041.6,771.1z" style="fill:#E5E5E5;"/>
			<path d="M1074.9,866.3l0.3,0.8c4.6,13.3-2.4,27.8-15.6,32.4c-13.3,4.6-27.8-2.4-32.4-15.6l-0.3-0.8
				c-4.6-13.3,2.4-27.8,15.6-32.4C1055.8,846,1070.3,853,1074.9,866.3z" style="fill:#E5E5E5;"/>
			<path d="M1108.2,961.5l0.3,0.8c4.6,13.3-2.4,27.8-15.6,32.4c-13.3,4.6-27.8-2.4-32.4-15.6l-0.3-0.8
				c-4.6-13.3,2.4-27.8,15.6-32.4C1089,941.3,1103.5,948.3,1108.2,961.5z" style="fill:#E5E5E5;"/>
			<path d="M573.7,613.9l0.3,0.8c4.6,13.3-2.4,27.8-15.6,32.4c-13.3,4.6-27.8-2.4-32.4-15.6l-0.3-0.8
				c-4.6-13.3,2.4-27.8,15.6-32.4C554.6,593.7,569.1,600.6,573.7,613.9z" style="fill:#E5E5E5;"/>
			<path d="M607,709.1l0.3,0.8c4.6,13.3-2.4,27.8-15.6,32.4c-13.3,4.6-27.8-2.4-32.4-15.6l-0.3-0.8
				c-4.6-13.3,2.4-27.8,15.6-32.4C587.8,688.9,602.3,695.9,607,709.1z" style="fill:#E5E5E5;"/>
			<path d="M640.2,804.4l0.3,0.8c4.6,13.3-2.4,27.8-15.6,32.4c-13.3,4.6-27.8-2.4-32.4-15.6l-0.3-0.8
				c-4.6-13.3,2.4-27.8,15.6-32.4C621.1,784.1,635.6,791.1,640.2,804.4z" style="fill:#E5E5E5;"/>
			<path d="M673.5,899.6l0.3,0.8c4.6,13.3-2.4,27.8-15.6,32.4c-13.3,4.6-27.8-2.4-32.4-15.6l-0.3-0.8
				c-4.6-13.3,2.4-27.8,15.6-32.4C654.4,879.4,668.9,886.4,673.5,899.6z" style="fill:#E5E5E5;"/>
			<path d="M706.8,994.9l0.3,0.8c4.6,13.3-2.4,27.8-15.6,32.4s-27.8-2.4-32.4-15.6l-0.3-0.8
				c-4.6-13.3,2.4-27.8,15.6-32.4C687.6,974.6,702.1,981.6,706.8,994.9z" style="fill:#E5E5E5;"/>
			<path d="M740,1090.1l0.3,0.8c4.6,13.3-2.4,27.8-15.6,32.4s-27.8-2.4-32.4-15.6l-0.3-0.8
				c-4.6-13.3,2.4-27.8,15.6-32.4S735.4,1076.8,740,1090.1z" style="fill:#E5E5E5;"/>
			<path d="M665.7,581.8l0.3,0.8c4.6,13.3-2.4,27.8-15.6,32.4c-13.3,4.6-27.8-2.4-32.4-15.6l-0.3-0.8
				c-4.6-13.3,2.4-27.8,15.6-32.4C646.6,561.5,661.1,568.5,665.7,581.8z" style="fill:#E5E5E5;"/>
			<path d="M699,677l0.3,0.8c4.6,13.3-2.4,27.8-15.6,32.4c-13.3,4.6-27.8-2.4-32.4-15.6l-0.3-0.8
				c-4.6-13.3,2.4-27.8,15.6-32.4C679.9,656.7,694.4,663.7,699,677z" style="fill:#E5E5E5;"/>
			<path d="M732.3,772.2l0.3,0.8c4.6,13.3-2.4,27.8-15.6,32.4c-13.3,4.6-27.8-2.4-32.4-15.6l-0.3-0.8
				c-4.6-13.3,2.4-27.8,15.6-32.4C713.1,752,727.6,759,732.3,772.2z" style="fill:#E5E5E5;"/>
			<path d="M765.5,867.5l0.3,0.8c4.6,13.3-2.4,27.8-15.6,32.4c-13.3,4.6-27.8-2.4-32.4-15.6l-0.3-0.8
				c-4.6-13.3,2.4-27.8,15.6-32.4C746.4,847.2,760.9,854.2,765.5,867.5z" style="fill:#E5E5E5;"/>
			<path d="M798.8,962.7l0.3,0.8c4.6,13.3-2.4,27.8-15.6,32.4c-13.3,4.6-27.8-2.4-32.4-15.6l-0.3-0.8
				c-4.6-13.3,2.4-27.8,15.6-32.4C779.7,942.5,794.2,949.5,798.8,962.7z" style="fill:#E5E5E5;"/>
			<path d="M832.1,1058l0.3,0.8c4.6,13.3-2.4,27.8-15.6,32.4c-13.3,4.6-27.8-2.4-32.4-15.6l-0.3-0.8
				c-4.6-13.3,2.4-27.8,15.6-32.4C812.9,1037.7,827.4,1044.7,832.1,1058z" style="fill:#E5E5E5;"/>
			<path d="M1125.9,421.1l0.3,0.8c4.6,13.3-2.4,27.8-15.6,32.4c-13.3,4.6-27.8-2.4-32.4-15.6l-0.3-0.8
				c-4.6-13.3,2.4-27.8,15.6-32.4C1106.8,400.8,1121.3,407.8,1125.9,421.1z" style="fill:#E5E5E5;"/>
			<path d="M1159.2,516.3l0.3,0.8c4.6,13.3-2.4,27.8-15.6,32.4c-13.3,4.6-27.8-2.4-32.4-15.6l-0.3-0.8
				c-4.6-13.3,2.4-27.8,15.6-32.4C1140.1,496,1154.6,503,1159.2,516.3z" style="fill:#E5E5E5;"/>
			<path d="M1192.5,611.5l0.3,0.8c4.6,13.3-2.4,27.8-15.6,32.4c-13.3,4.6-27.8-2.4-32.4-15.6l-0.3-0.8
				c-4.6-13.3,2.4-27.8,15.6-32.4C1173.3,591.3,1187.8,598.3,1192.5,611.5z" style="fill:#E5E5E5;"/>
			<path d="M1225.7,706.8l0.3,0.8c4.6,13.3-2.4,27.8-15.6,32.4c-13.3,4.6-27.8-2.4-32.4-15.6l-0.3-0.8
				c-4.6-13.3,2.4-27.8,15.6-32.4C1206.6,686.5,1221.1,693.5,1225.7,706.8z" style="fill:#E5E5E5;"/>
			<path d="M1259,802l0.3,0.8c4.6,13.3-2.4,27.8-15.6,32.4c-13.3,4.6-27.8-2.4-32.4-15.6l-0.3-0.8
				c-4.6-13.3,2.4-27.8,15.6-32.4C1239.8,781.8,1254.4,788.8,1259,802z" style="fill:#E5E5E5;"/>
			<path d="M1292.2,897.3l0.3,0.8c4.6,13.3-2.4,27.8-15.6,32.4c-13.3,4.6-27.8-2.4-32.4-15.6l-0.3-0.8
				c-4.6-13.3,2.4-27.8,15.6-32.4C1273.1,877,1287.6,884,1292.2,897.3z" style="fill:#E5E5E5;"/>
			<path d="M941.9,485.3l0.3,0.8c4.6,13.3-2.4,27.8-15.6,32.4c-13.3,4.6-27.8-2.4-32.4-15.6l-0.3-0.8
				c-4.6-13.3,2.4-27.8,15.6-32.4C922.7,465.1,937.2,472.1,941.9,485.3z" style="fill:#E5E5E5;"/>
			<path d="M975.1,580.6l0.3,0.8c4.6,13.3-2.4,27.8-15.6,32.4c-13.3,4.6-27.8-2.4-32.4-15.6l-0.3-0.8
				c-4.6-13.3,2.4-27.8,15.6-32.4C956,560.3,970.5,567.3,975.1,580.6z" style="fill:#E5E5E5;"/>
			<path d="M1008.4,675.8l0.3,0.8c4.6,13.3-2.4,27.8-15.6,32.4c-13.3,4.6-27.8-2.4-32.4-15.6l-0.3-0.8
				c-4.6-13.3,2.4-27.8,15.6-32.4C989.3,655.6,1003.8,662.6,1008.4,675.8z" style="fill:#E5E5E5;"/>
			<path d="M1041.6,771.1l0.3,0.8c4.6,13.3-2.4,27.8-15.6,32.4c-13.3,4.6-27.8-2.4-32.4-15.6l-0.3-0.8
				c-4.6-13.3,2.4-27.8,15.6-32.4C1022.5,750.8,1037,757.8,1041.6,771.1z" style="fill:#E5E5E5;"/>
			<path d="M1074.9,866.3l0.3,0.8c4.6,13.3-2.4,27.8-15.6,32.4c-13.3,4.6-27.8-2.4-32.4-15.6l-0.3-0.8
				c-4.6-13.3,2.4-27.8,15.6-32.4C1055.8,846,1070.3,853,1074.9,866.3z" style="fill:#E5E5E5;"/>
			<path d="M1108.2,961.5l0.3,0.8c4.6,13.3-2.4,27.8-15.6,32.4c-13.3,4.6-27.8-2.4-32.4-15.6l-0.3-0.8
				c-4.6-13.3,2.4-27.8,15.6-32.4C1089,941.3,1103.5,948.3,1108.2,961.5z" style="fill:#E5E5E5;"/>
			<path d="M1033.9,453.2l0.3,0.8c4.6,13.3-2.4,27.8-15.6,32.4c-13.3,4.6-27.8-2.4-32.4-15.6l-0.3-0.8
				c-4.6-13.3,2.4-27.8,15.6-32.4S1029.3,439.9,1033.9,453.2z" style="fill:#E5E5E5;"/>
			<path d="M1067.2,548.4l0.3,0.8c4.6,13.3-2.4,27.8-15.6,32.4c-13.3,4.6-27.8-2.4-32.4-15.6l-0.3-0.8
				c-4.6-13.3,2.4-27.8,15.6-32.4C1048,528.2,1062.5,535.2,1067.2,548.4z" style="fill:#E5E5E5;"/>
			<path d="M1100.4,643.7l0.3,0.8c4.6,13.3-2.4,27.8-15.6,32.4c-13.3,4.6-27.8-2.4-32.4-15.6l-0.3-0.8
				c-4.6-13.3,2.4-27.8,15.6-32.4C1081.3,623.4,1095.8,630.4,1100.4,643.7z" style="fill:#E5E5E5;"/>
			<path d="M1133.7,738.9l0.3,0.8c4.6,13.3-2.4,27.8-15.6,32.4c-13.3,4.6-27.8-2.4-32.4-15.6l-0.3-0.8
				c-4.6-13.3,2.4-27.8,15.6-32.4C1114.5,718.7,1129.1,725.7,1133.7,738.9z" style="fill:#E5E5E5;"/>
			<path d="M1166.9,834.2l0.3,0.8c4.6,13.3-2.4,27.8-15.6,32.4c-13.3,4.6-27.8-2.4-32.4-15.6l-0.3-0.8
				c-4.6-13.3,2.4-27.8,15.6-32.4C1147.8,813.9,1162.3,820.9,1166.9,834.2z" style="fill:#E5E5E5;"/>
			<path d="M1200.2,929.4l0.3,0.8c4.6,13.3-2.4,27.8-15.6,32.4c-13.3,4.6-27.8-2.4-32.4-15.6l-0.3-0.8
				c-4.6-13.3,2.4-27.8,15.6-32.4C1181.1,909.1,1195.6,916.1,1200.2,929.4z" style="fill:#E5E5E5;"/>
			<path d="M1218,388.9l0.3,0.8c4.6,13.3-2.4,27.8-15.6,32.4c-13.3,4.6-27.8-2.4-32.4-15.6l-0.3-0.8
				c-4.6-13.3,2.4-27.8,15.6-32.4C1198.8,368.7,1213.3,375.6,1218,388.9z" style="fill:#E5E5E5;"/>
			<path d="M1251.2,484.1l0.3,0.8c4.6,13.3-2.4,27.8-15.6,32.4c-13.3,4.6-27.8-2.4-32.4-15.6l-0.3-0.8
				c-4.6-13.3,2.4-27.8,15.6-32.4C1232.1,463.9,1246.6,470.9,1251.2,484.1z" style="fill:#E5E5E5;"/>
			<path d="M1284.5,579.4l0.3,0.8c4.6,13.3-2.4,27.8-15.6,32.4c-13.3,4.6-27.8-2.4-32.4-15.6l-0.3-0.8
				c-4.6-13.3,2.4-27.8,15.6-32.4C1265.4,559.1,1279.9,566.1,1284.5,579.4z" style="fill:#E5E5E5;"/>
			<path d="M1317.8,674.6l0.3,0.8c4.6,13.3-2.4,27.8-15.6,32.4c-13.3,4.6-27.8-2.4-32.4-15.6l-0.3-0.8
				c-4.6-13.3,2.4-27.8,15.6-32.4C1298.6,654.4,1313.1,661.4,1317.8,674.6z" style="fill:#E5E5E5;"/>
			<path d="M1351,769.9l0.3,0.8c4.6,13.3-2.4,27.8-15.6,32.4c-13.3,4.6-27.8-2.4-32.4-15.6l-0.3-0.8
				c-4.6-13.3,2.4-27.8,15.6-32.4C1331.9,749.6,1346.4,756.6,1351,769.9z" style="fill:#E5E5E5;"/>
			<path d="M1384.3,865.1l0.3,0.8c4.6,13.3-2.4,27.8-15.6,32.4c-13.3,4.6-27.8-2.4-32.4-15.6l-0.3-0.8
				c-4.6-13.3,2.4-27.8,15.6-32.4C1365.1,844.9,1379.7,851.8,1384.3,865.1z" style="fill:#E5E5E5;"/>
		</g>
	</g>
	<path d="M1603.2,2557.2c97.2-114.4,214.6-218.4,320.7-300.4c80.4-62.1,171-115.5,271.3-131.7
		c125.5-20.3,260.2,33.2,318.6,150.2c103.4,207.4-29.5,471.3-159.3,634.5c-162.5,204.2-379.8,278.4-637.2,250.1
		c-207.7-22.8-374.6-138.8-272.5-362.8C1482.3,2714.8,1538.2,2633.7,1603.2,2557.2z" style="fill:#0185D0;"/>
	<polygon points="1933.5,2942.9 2021.5,2942.9 1941.5,2205 1753.5,2205 	" style="fill:#B45116;"/>
	<polygon points="835.1,2942.9 747.2,2942.9 827.2,2205 1015.1,2205 	" style="fill:#B45116;"/>
	<g>
		<path d="M1966.6,681c-2.4,1.1-5,1.9-7.1,3.3c-4.4,3-7.7,3.4-11.4-1.5c-3.8-5-6.8,0.6-9.6,2.1c-2.1,1.2-3.4,4-5.3,6.3
			c0.9,0.8,1.8,1.5,2.8,2.3c-0.1,0.3-0.1,0.6-0.2,0.9c-1.2-0.2-2.4-0.4-4.1-0.7c-0.1,1.8-0.2,3.8-0.3,5.3c-3.3,2.8-6.3,5.3-9.3,7.8
			c0-0.4,0-1.5,0-3.6c-5.6,7.9-10.7,15.1-16.1,22.7c-0.1-1.5-0.1-2.7-0.2-4.9c-1.2,2.4-2,3.9-2.7,5.5c0.7,0.4,1.4,0.7,1.1,0.6
			c-2.8,4.1-5.6,8.2-8.4,12.3c0.2,0.1,0.4,0.2,0.6,0.3c-1.3,1.2-2.7,2.4-4,3.7c-1.2,1.3-2.4,2.7-4.2,4.7c0.5,2.5-0.2,4.7-4.4,6.7
			c-2.9,1.4-3.8,7-5.9,10.5c-2.9,4.9-5.1,11-9.4,14c-6.2,4.3-8.2,11.3-13.1,16.4c-4.3,4.4-9.2,9.2-10.6,16.3
			c-0.6,3.3-4.3,5.9-6.6,8.8c-0.2,0.2-0.6,0.5-0.8,0.5c-8.7-1.1-8,8.4-13.3,11.6c-0.3-0.7-0.6-1.5-0.9-2.2c-1.1,0.8-1.5,0.9-1.6,1.1
			c-2.1,3.2-3.5,7.3-6.3,9.4c-6.6,4.7-9.7,12.4-16.1,17.1c-1.3,1-2.4,2.5-3.8,2.9c-4.6,1.3-1.6,2.8,0,4.6c-5.9,1.5-8.6,5.5-9.1,11.3
			c-0.1,0.8-2,2.4-2.5,2.2c-3.4-1.4-3.9,1.8-5.7,2.7c-5.6,2.8-4.5,7.1-4.9,11.6c-0.2,2.7-2.4,5.2-3.9,8c-5-3.5-0.5-4,2.5-5.8
			c-2.4-0.7-4.6-1.8-4.9-1.4c-1.4,1.7-3.4,5.2-3,5.6c3.2,3.2-1,4.4-0.8,6.9c-2-0.5-3.6-0.9-5.3-1.4c-1.2,1.4-2.6,2.8-3.7,4.4
			c-0.7,1.1-1,2.5-1.5,3.7c1.4,0.2,2.7,0.4,4,0.6c-1.1,1.8-1.9,4-3.5,5.5c-0.4,0.3-2.9-1.6-5.2-2.8c-0.1,0.1-1.1,1.3-2.3,2.7
			c4.8,2.1,2.7,5.7,1.2,8.5c-0.3,0.5-4-0.8-6.4-1.4c-0.2,2.4-1.1,4.4-5.1,5.4c-3.1,0.8-6.4,4.4-7.7,7.6c-1.7,4-4.1,6.3-7.7,8.5
			c-2.7,1.6-5,4.7-6.2,7.6c-2,5.2-6.5,7.7-10.2,11.3c-3.7,3.6-6.6,7.9-9.5,11.5c-1.9,0-3.8,0-6,0c1.4,2.5,2.3,4.2,3.8,7
			c-5-1.1-8.7-1.8-8,4.2c0.1,1-2.4,2.4-3.8,3.5c-0.6,0.5-1.9,1.1-1.9,1.3c1,3.4-1.8,4.4-3.5,6.3c-3.2,3.6-6.2,7.4-9.2,11.2
			c-3.3,4.1-6.7,8-9.9,12.2c-3.5,4.5-6.7,9.4-10.5,13.7c-2.8,3.1-6.4,5.5-9.7,8.3c0.9,0.5,1.5,0.9,1.4,0.8
			c-3.2,3.9-6.3,7.9-9.7,11.6c-2.5,2.8-5,5.9-8.2,7.8c-5.1,3.1-7,8.4-10,12.9c-1.1,1.6-3.2,2.6-4.5,4.1
			c-5.5,6.5-10.7,13.4-16.5,19.7c-3.8,4.1-8.3,7.5-12.7,11.1c-0.7,0.6-2.3,0.1-4.4,0.1c1.3,1.6,2.3,2.7,2.7,3.1
			c-3.3,3.5-6.8,6.8-9.9,10.4c-6.8,7.8-12.9,16.3-20.3,23.5c-2.1,2-3.1,4.4-4.9,6.6c-0.6-0.6-1.1-1.2-1.7-1.9
			c-3.9,9.8-10.2,17.2-18.2,23.6c-2,1.6-3.7,3.8-5,6c-2.6,4.3-4.7,8.8-6.1,11.3c-7,7-12.6,12.7-18.2,18.3c-0.4-0.3-0.8-0.6-1.1-1
			c0.4,3,0.8,6,1.2,9.3c-2.6,0-4.6,0-7.1,0c2.4,6.3-2.3,6.9-7,8.1c7.6,5.2,0.2,6.2-1.5,9c-0.5-0.9-1-1.7-1.5-2.6
			c-2.6,4.3-5.1,8.4-7.6,12.5c0.2,0.1,1,0.7,1.5,1c-2.7,2.7-5.4,5.4-8.1,8c-1.2-1.3-2.2-2.3-3.5-3.6c2.3-0.9,2.4-5.1,6.1-5.7
			c0.3,0,0.7-0.9,0.6-1.2c-0.2-0.5-0.9-1.3-1.3-1.2c-1.1,0.1-2.5,0.2-3.2,0.9c-2.9,2.7-5.5,5.6-8.3,8.4c-0.5,0.5-1.5,1.1-2,1
			c-6.2-2.1-7.8,2.4-9.8,6.6c-0.4,0.7-1.7,1.1-2.6,1.4c-3,0.9-5,2.5-6.7,5.4c-1.3,2.2-4.1,3.5-6.6,4.7c0.8-4.3-0.4-9.2,4.3-11.5
			c1.2-0.6,2.6-1.1,3.6-2c1.4-1.4,2.5-3,3.4-4.7c0.5-0.9,0.5-2.2,0.8-3.8c0.7,1.2,1,1.8,0.9,1.5c3.1-3.7,6.1-7.4,9.3-11.1
			c1.4-1.6,2.9-3.2,4.4-4.7c2-2.1,4.6-3.8,6-6.2c3.5-6.1,10.4-9.6,12.3-16.9c0.3-1.2,2.8-1.8,4.3-2.6c0.4,0.5,0.8,1,1.1,1.5
			c2-3.8,3.1-9.4,6.2-10.9c5.8-2.7,7.5-7.8,10.8-12.1c4-5.2,8.4-10,12.8-14.9c3.6-4,7.4-7.9,11.2-11.8c3.1-3.2,6.1-6.7,10.8-7.8
			c-0.2-7.1,10.2-6.4,10.1-13.7c0-0.9,2.5-1.7,3.7-2.7c1.8-1.5,3.4-3.1,5.1-4.7c-0.3-0.3-0.5-0.7-0.8-1c1.3-0.3,2.5-0.6,3.8-0.9
			c-0.3-0.2-0.5-0.4-0.8-0.6c1.7-2.3,3.4-4.6,4.7-6.3c1.9-3.1,3.2-5.7,5-7.8c3.1-3.6,6.5-6.9,9.8-10.3c4.8,3.6,7.6,0.2,10.6-2.9
			c0.8-0.8,1.5-2,2.3-2.2c5.8-1.1,6.3-5.1,5.9-9.9c-4.4,4.7-8.8,9.3-13.3,14.1c-3-2.1-3.3-4.3-0.5-5.6c2.7-1.3,3-3.6,4.4-5.6
			c2.1-3.2,4.6-6.2,7.3-8.8c3.8-3.6,8.4-6.4,11.9-10.4c3.9-4.4,6.8-9.7,10.2-14.6c1-1.5,1-4.3,4.5-3.2c0.6,0.2,2.6-4,4.2-6.5
			c1.2,0.2,2.8,0.6,5,1c-0.7-1.6-1.3-2.8-1.9-4c0.8-2.6,5.7-1.7,6-5.9c0.9-0.4,3.9-1,4.1-2c1-5.5,4.5-3.6,7.1-2.8
			c-1-2.9-1.9-5.7-2.8-8.4c5-0.7,9.5-1.4,14.1-2c-0.1-0.7-0.1-1.5-0.2-2.2c-3.1,0.4-6.3,0.8-9.5,1.1c1-4.4,4.2-5.7,9.4-3.4
			c-0.5-1.2-1-2-1.1-2.8c-0.2-0.9-0.1-1.9-0.2-3.4c1.7,0.4,3,0.7,3.4,0.9c1-1.7,1.6-3.4,2.8-4.3c1.3-1,3.3-1.2,5.8-2.1
			c0.3-1.4,0.9-3.9,1.2-5.1c4-3.9,7.2-7.4,10.7-10.6c3.8-3.6,8.1-6.9,9.2-12.6c0.2-1.1,2.7-1.6,3.6-2.7c7.5-9.4,14.9-18.9,22.4-28.3
			c3.8-4.8,8.4-9.1,11.5-14.3c3.4-5.8,9-8.8,13.5-13.2c0.3-0.3,0.9-0.3,1.4-0.3c0.6,0.1,1.3,0.4,2.2,0.7c-0.1-1.9-0.2-3.7-0.2-4.2
			c4-2.6,7.5-5,11.3-7.4c-1-1.2-1.6-1.9-2.8-3.2c2.9-0.4,5.3-0.8,8.9-1.3c-2.5-1.8-4-2.8-4.5-3.2c1.6-2,3-4.2,4.8-5.7
			c1.8-1.5,4.2-2.4,6.6-3.7c-3.1-7.6,2.4-4.6,6.7-5.1c-0.9-0.9-1.8-1.8-2.9-3c1.6-1.5,2.6-5.7,7.4-4.1c0.5,0.2,1.5-0.6,1.9-1.1
			c3.6-4.5,7-9,10.7-13.7c0.5,0.9,1.1,2.1,1.7,3.2c-0.8-8,7.9-9.7,9.6-15.8c0.3,0.5,0.7,0.9,1,1.4c1-0.5,2.6-0.9,2.7-1.5
			c1.1-6.2,6-9.3,10.2-12.8c1.1-0.9,3.3-1.3,3.5-2.3c1-3.7,1.5-7.5,6.6-7.7c0.3,0,0.5-1.7,1-3.6c-1.5,1.1-2.3,1.8-3.1,2.4
			c-0.4-0.4-0.6-0.6-0.6-0.6c3.1-4.7,6.2-9.4,9.5-14c0.3-0.4,1.9,0.2,2.9,0.3c0.3,0,0.6,0,1,0c-1.1-5.7,1.2-9.4,6.4-9.9
			c0-1.4,0-2.8,0-4.5c2,0.5,3.7,1,4.3,1.1c2.4-4.3,5.3-8.2,6.8-12.5c2-5.9,8.8-2.4,11.9-7.3c-3,1-5.3,1.7-7.7,2.5
			c4.8-6.3,9.3-12.4,13.9-18.5c0.2,0.6,0.6,1.6,1,2.6c0.3,0,0.6,0.1,0.9,0.1c0.3-1.8,0.5-3.6,0.9-5.8c5.8-1.6,11-5,13.1-12
			c0.1-0.4,0.5-0.9,0.8-1.2c5.7-4.9,7.6-13.1,12.5-17.5c4.6-4.2,5.9-10.5,11.7-13.8c3.3-1.9,4.8-6.7,7.3-10.1
			c2.7-3.6,5.9-6.8,8.2-10.5c2.7-4.5,5.7-8.6,10.1-11.5c-0.8-7.9,9.4-7.6,10.5-14.1c0.4-2.2,4.2-4.9-0.9-6.4
			c-0.3-0.1-0.4-0.9-0.6-1.3c-1.1-3,2.2-10.5,5-12.3c3.8-2.5,7.1-0.1,9.6,1.7c6.2,4.4,11.9,9.5,17.8,14.4c-0.4,0.2-0.8,0.5-1.2,0.7
			c0.7,1.8,1.4,3.7,2,5.5C1966.6,680.3,1966.6,680.7,1966.6,681z"/>
		<path d="M815.6,648c1.8,0.6,3.6,1.2,5.4,1.8c4.6,7.9,4.4,15.4-2.9,21.9c3.8,7.1,7.5,13.8,14.6,17.7c0.8,0.4,1,1.8,1.5,2.8
			c-1.3,0.8-2.6,1.5-4,2.3c-8.2,0.6-9.2-0.6-7.6-8.5c0.1-0.5-0.5-1.1-0.8-1.8c-1.5,0.7-2.9,1.3-5.6,2.6c1.4-2.1,2-3,2.2-3.4
			c-1.5-1.9-2.8-3.6-4.6-6c-1.9,2-4.1,4.7-6.7,7.1c-5.9,5.4-7.1,5.2-11.6-1.1c-0.1-0.2-0.6-0.2-0.9-0.3c0-4.7,0-9.3,0-14
			c6.4-7.3,10.8-16.4,20-21C814.9,648,815.3,648,815.6,648z"/>
		<path d="M830.2,694.4c1.3-0.8,2.6-1.5,4-2.3c2.3,2.2,4.5,4.5,6.8,6.7c0.9,0.8,1.9,1.5,3.4,1.5c1.9,2.9,3.8,5.7,6.3,9.5
			c0.7-2.3,1.1-3.4,1.4-4.4c0.5,0.2,1,0.3,1,0.5c0.6,4.4,3.4,7.3,5.5,10.8c2.4,3.8,6,5.6,8.4,8.9c5.1,6.9,11,13.2,17.8,18.5
			c0.8,0.6,0.9,2,1.6,3.5c0.3,0,1.5-0.1,2.9-0.3c-2.5,3.8,1,3.9,2.6,5.5c3.3,3.2,7.2,6.1,8.3,11.4c2.4-0.4,5.4-0.7,5.1,4
			c0,0.6,2.7,1.3,5,2.3c-0.4,5.4,5.5,8.2,9.4,12.4c0.9,1,1.2,2.6,2.1,4.4c0.2-0.1,1.3-0.4,2-0.7c2.5,2.8,4.9,5.2,6.9,7.9
			c1.2,1.6,2.5,3.9,2.2,5.7c-0.7,4.3,1.8,5.8,4.7,7.8c1.5,1.1,2.1,3.5,3.3,5.5c0,0,0.8-0.6,0.8-0.6c2.8,2,5.8,3.4,7.8,5.7
			c1.5,1.8,1.6,4.7,2.3,7.1c0.1,0.4,0,0.9,0,0.1c3.5,3,6.4,5.4,10.3,8.7c2.9-0.3,5.6,2.2,7.1,6.5c0.3,0.8,0.6,2.1,0.9,2.1
			c6.7,0,4.7,4.5,4.3,8.1c4.3-0.3,6.8,2.6,6.1,7c3.5,0,6.1,3.2,6,6.9c1.8,0.6,4.4,0.7,4.9,1.8c2.5,5.4,8.7,7.8,10.6,14.3
			c1.2,4.3,6.5,7.3,9.8,11c3.4,3.8,7.7,7.2,9.7,11.7c2.9,6.9,10.3,8.8,13.8,14.7c1.8,3,3.9,5.9,5.9,8.9c8.8,4.9,11.4,16.3,21.8,21.7
			c-2.5,0.2-3.3,0.3-4.2,0.4c0.1,0.6,0.2,1.1,0.3,1.2c7.5,2.1,9.3,9.6,13.9,14.4c3.8,4,8,7.7,11.7,11.8c1.6,1.8,2.2,4.5,3.8,6.4
			c2,2.4,4.6,4.3,6.8,6.6c2.7,2.8,6.8,5.4,7.6,8.7c1.3,5.7,7,5.7,9.6,9.7c2.7,4.3,6.8,7.7,10.3,11.5c4.2,4.6,8.3,9.1,12.4,13.7
			c7.1,7.8,14.2,15.5,21,23.5c1.2,1.4,0.7,4.1,1,6.7c0.3,0,1.6-0.2,2.8,0c2.1,0.5,5.4,0.2,3.7,4.2c-0.1,0.3,0.2,1.1,0.5,1.3
			c2.9,2.4,5.8,4.7,8.6,7.1c1.5,1.2,2.8,2.6,4.5,4.2c-1.6,0.1-2.7,0.2-3.9,0.3c0.2,0.4,0.4,0.8,0.5,0.8c4.3-0.7,5.4,3.5,7.7,5.5
			c2.8,2.4,4.6,5.8,7.1,8.5c1.6,1.7,3.8,2.9,5.7,4.4c1.4,1.1,3,2.2,3.9,3.6c2.1,3.1,3.2,8.2,5.9,9.2c8.3,3,7.9,14.1,16.4,16.2
			c0.8,6.2,7.5,7.6,10.1,12.5c2.1,4,6.2,6.9,9.2,10.3c4,4.5,7.9,9,11.7,13.7c0.6,0.7,0.1,2.4,1,3.9c0.5-0.8,0.9-1.6,1.8-3.2
			c3.8,5.5,7.3,10.8,11,16c1.6,2.3,3.4,4.6,5.4,6.7c3.7,3.9,7.7,7.6,11.3,11.6c2.8,3.1,5.3,6.5,7.8,9.8c1.2,1.5,2,3.7,3.5,4.5
			c3.3,1.8,5.6,4,7.1,7.6c0.5,1.3,2.6,1.9,4,3c-0.3,0.5-0.9,1.4-1.7,2.8c5.2,1,8.3,3.7,10.8,8.1c2,3.5,6.3,5.6,8.6,8.9
			c1.2,1.7,0,4.8,0.4,7.2c0.4,2.6,1.1,5.3,2.3,7.7c1.7,3.6,4,6.9,6.2,12.5c0.1-1.2,0.2-2.3,0.3-3.5c0.7,0.2,1.3,0.3,2,0.5
			c0.2,2.6,0.3,5.1,0.5,8.3c-5.1-3.3-9.4-5.7-13.3-8.7c-1.7-1.3-2.4-3.8-2.9-6.2c-6.9-0.8-9.2-5.6-9.6-12.6c-1.1,0.9-1.8,1.5-3,2.5
			c-1.3-2.6-2.5-5-3.3-6.7c-2.1-1.1-4.3-1.6-5.4-2.9c-5.5-6.9-10.6-14.2-16.1-21.2c-2.3-2.8-5.2-5.1-7.9-7.7
			c-0.4-0.4-1.4-0.7-1.4-1.1c-0.4-5.1-7.9-5-7.6-10.5c-6,0.2-4.2-9.5-11-8.8c-0.4,0-1.3-3.6-1.4-5.8c-1.8-1.4-5,0.7-7.2-3.8
			c-2.3-4.7-7.9-7.7-11.1-12.1c-3.6-4.9-9.6-7.5-12.2-13.3c-0.4-0.9-2.3-1-4.2-1.8c-1.5-2-1.6-5.7-5.5-7.5c-2.3-1.1-3-5.3-5-7.5
			c-8.9-10.2-18-20.1-26.8-30.3c-2-2.3-3.3-5.4-5.2-7.8c-4.9-5.9-10.1-11.5-14.9-17.3c-1.9-2.3-3.1-5.2-4.8-7.7
			c-0.8-1.3-2-2.3-3-3.4c-0.4,0.2-0.7,0.4-1.1,0.6c-0.5-2.9-1-5.8-1.5-9.2c-1.6,0.7-2.8,1.2-4.7,1.9c-0.3-3-0.5-5.5-0.8-8.5
			c-0.8,0.5-1.7,1-2.5,1.5c-0.7-0.8-1.6-1.8-2.5-2.9c0.6-1,1.4-2.2,2-3.2c-1.9-0.3-3.7-0.7-5.5-1c0.3-0.8,0.7-1.5,1.2-2.7
			c-1.9-1-4-2.1-6.5-3.4c0.9-1.1,1.7-2.2,2.3-2.8c-10.7-13.1-20.8-26.6-34.3-38.3c0,0.2,0.3-1.6,0.2-1.6c-5.1-1.5-5.4-7.4-9.3-9.9
			c-6.9-4.4-16.6-14.9-19.7-20.5c-0.6-1.2-2.5-1.6-3.3-2.8c-1.2-1.8-1.8-4-2.7-6.1c0.5-0.1,0.3-0.1,0.2,0c-0.1,0.1,0,0.4-0.1,0.5
			c-1.3,1.1-2,2-2.3-0.9c-0.2-1.7-1.9-4.4-3.4-4.7c-4.2-0.9-5.8-4.1-7.1-7.2c-1.3-3.1-1.8-5.9-6-6.1c-2.6-0.2-4.4-6.9-2.7-10.3
			c-7,3.2-5.4-4.4-8.5-6.3c-2.3-1.4-4-3.7-6.7-6.3c0-0.2,0.1-1.7,0.2-3.9c-1.7,0.3-3.2,0.5-4.7,0.8c-2.7-8.4-9.8-17.1-15-17.7
			c-0.3-7.8-6.4-12.1-12.2-16.8c-0.6,0.2-1.9,0.6-3.3,1.1c-0.2-0.4-0.4-0.7-0.5-1.1c1-0.9,2.1-1.8,3.5-3.1c-3.4-1.4-6.3-2.6-9.3-3.8
			c0.1-0.3,0.2-0.6,0.3-0.8c1,0.2,2,0.5,3.2,0.8c-0.1-1.3-0.2-2.5-0.3-3.8c-3-0.3-5.8-0.5-8.6-0.8c0.1-0.5,0.1-1,0.2-1.5
			c1.2,0.1,2.4,0.1,4.3,0.2c-1.1-1.8-1.9-3.1-2.7-4.4c-5.1,1.6-12.6-4.7-13.8-11.8c-0.6,1.1-1,1.8-1.7,3c-1.1-1-2.2-1.8-4.1-3.5
			c0.8-0.2,1.4-0.2,1.7-0.5c0.6-0.6,0.9-1.3,1.4-2c-0.6-0.2-1.2-0.5-1.8-0.7c-0.1,0-0.3,0.1-0.5,0.1c-2.8-0.2-6.9-9.9-5.1-12.6
			c1.1,1.3,2.2,2.6,3.3,3.8c0.4-0.3,0.8-0.7,1.2-1c-1.7-1.9-3.4-3.8-5.3-5.9c-1.4,2.4-2.3,4.1-3.4,6c-0.4-5.7-3.8-8.9-8.7-7.8
			c0-2.3,0-4.5,0-6.2c-2.7-1.1-5.2-2.1-8.3-3.4c2.1-1.7,3.2-2.6,4.4-3.6c1.7,1,3.4,2,5,3c1.8,3,3.5,6,5.3,9c0.5-0.3,1-0.7,1.6-1
			c-2-2.9-1.8-7.6-7-7.9c0-1.5,0.6-3.7-0.1-4.3c-2.2-2-5-3.4-7.6-5c-0.6-6.1-4.9-9.6-9.6-12.6c1-1.6,1.9-3.2,2.8-4.7
			c-0.5-0.3-0.9-0.6-1.4-0.9c-1.4,2.2-2.8,4.5-4.1,6.5c1.7,2,3.2,3.8,4.8,5.8c-1.1,0.9-2,1.7-3.8,3.2c0-4.8-5.6-7-2.6-12.7
			c0.9-1.8-2.6-6-4.7-10.1c-1.2,2.5-1.8,3.7-2.3,4.7c-0.8-2-1.6-3.9-2.4-5.8l0,0.2c-2.1-3.2-4.2-6.5-6-9.2c-5-4.3-9.8-8.5-14.9-12.9
			c-0.4,1.3-0.7,2.5-1.5,5.1c-0.7-2.7-1.6-4.3-1.2-5.4c1.3-3.4,1.3-4.9-3-6.6c-3.5-1.3-6-5.5-8.8-8.5c-2.5-2.7-4.7-5.6-7-8.5
			c-1.2-1.5-2.2-3.1-3.3-4.7c-1-1.3-1.8-2.8-3.1-3.7c-4.6-3.1-6.6-4.9-9.8-9.5c-1.9-2.7-9.5-7.6-10.8-10.4
			c-2.3-4.5-7.8-5.5-9.3-10.2c-0.4-1.3-0.5-2.7-0.7-4.1c-4.8,1.2-4.4-1.5-2.9-5.1c-1.6,0.3-3,0.6-5.4,1.1
			C828.3,697.6,829.3,696,830.2,694.4z"/>
		<path d="M914.7,792.5l0-0.2c-1,1.1-2,2.1-3.2,3.4c-2.7-0.3-4.5-1.5-4.8-5.1c-0.2-2.8-1.7-5.8-5.9-3.3c3.2-3.7,5.7-1.3,8.2,0.6
			C910.8,789.4,912.8,790.9,914.7,792.5z"/>
		<path d="M937.5,819c-0.3,0.8-0.6,1.7-0.9,2.5c-2.7-0.5-5.4-0.9-8-1.4C930.4,817,933.4,816.5,937.5,819z"/>
	</g>
	<g>
		<g>
			<path d="M2113.6,2405c-496.7,0-993.3,0-1490,0c-0.9-0.3-1.8-0.7-2.8-0.9c-40.4-5.4-73.2-33.9-83.8-73.2
				c-1.4-5.3-2.3-10.6-3.4-16c0-329.3,0-658.7,0-988c0.3-0.9,0.7-1.8,0.9-2.8c5.7-41.9,35.4-74.8,76.6-84.6c4.2-1,8.4-1.8,12.6-2.6
				c496.7,0,993.3,0,1490,0c0.9,0.3,1.8,0.8,2.8,0.9c40,5.2,72.6,33.3,83.4,72.2c1.6,5.6,2.5,11.3,3.8,16.9c0,329.3,0,658.7,0,988
				c-0.3,0.9-0.8,1.8-0.9,2.8c-5.4,40.3-33.5,72.8-72.7,83.6C2124.6,2402.9,2119.1,2403.8,2113.6,2405z" style="fill:#FFC52D;"/>
		</g>
	</g>
	<path d="M610.6,1624.4c3.6,0.4,7.3,0.7,10.9,1.2c43.2,6.1,75.6,37.1,116.1,51.9c42.9,15.7,90.9,6.3,130.6-18.1
		c19.7-12.1,37.6-27.6,57.8-38.5c40.5-21.9,87.7-23.8,131.5-13.2c44.9,10.8,83.8,41.2,127.1,57.6c40.7,15.4,87.8,19.7,129.5,6.8
		c42.7-13.3,80.9-40.5,123.8-53c22.7-6.6,47.1-8.8,69.5-1c26.4,9.2,47.4,30.6,71.7,44.6c26.5,15.3,59.5,18.3,88.8,16
		c47.1-3.7,79.5-27.1,116.8-56.6c0,72.8,0,145.7,0,218.5c-18.8,27.2-40.5,55.2-71.9,62.1c-29,6.4-58.3-8.3-83.4-25.9
		s-49.1-38.8-77.6-47.7c-37.1-11.6-80.2-1.3-114.3,17.4c-33.2,18.2-63.7,47.2-101.6,50.8c-37.6,3.5-68.8-19.9-101.2-37.6
		c-34-18.6-68.6-36.4-104.6-49.4c-72.8-26.3-148.9-28-218.2,12c-32.4,18.7-61.9,44.9-96.8,56.5c-36.3,12.1-74.7,6.7-110.3-5.8
		c-18.4-6.4-36.2-14.8-53.7-24c-1.7-0.9-40.3-19.7-40.3-18.8C610.6,1761.7,610.6,1693.1,610.6,1624.4z" style="fill:#DDDDDD;"/>
	<path d="M1784.6,1992c0,52.4,0,104.9,0,157.3c-35,31.4-73.6,72.6-121.6,75.7c-67.6,4.3-120.8-69.2-188.2-75.1
		c-93.7-8.2-149.1,107.4-242.8,92.5c-33.1-5.3-63.8-22.1-91.9-41.8c-23.1-16.2-45-34.5-69.6-47.9c-24.5-13.4-52.6-21.8-79.6-16.2
		c-27.2,5.6-50.2,24.3-74.5,38.6c-23.7,14-49.3,24.1-75.7,29.9c-17.5,3.8-35.8,5.8-53.2,1.1c-17.1-4.6-32.1-15.3-47.8-23.9
		c-21-11.4-43.7-19.2-66.9-23c-5.1-0.8-62.1-4.6-62.1,6.4c0-64.7,0-129.5,0-194.2c52.2,0,94.8,13.8,143.2,34.2
		c14.3,6,28.7,11.7,43.8,14.3c45.2,7.6,90-14,130.7-36.8c40.7-22.7,82.9-47.8,128.7-47.7c63.4,0.2,116.9,45.6,168.1,80.1
		c42.4,28.5,82,30.8,127.6,8c33.4-16.7,64-40.8,99.5-51.4c28.8-8.6,59.9-7.7,88.2,2.4c33.9,12.2,62.6,36.7,94.7,53.5
		c38.3,20.1,78.2,23.6,113.7-4C1752.8,2021,1784.6,1996.6,1784.6,1992z" style="fill:#DDDDDD;"/>
	<path d="M1620.6,1313c7.4,1.4,14.9,2.6,22.3,4.2c28.7,6.4,54.2,19.5,76.8,39.1c32.3,28.1,52.3,63.9,61.4,106.6
		c0.3,1.6-0.4,4.3-1.6,5.1c-32.1,23-71.7,37.1-109.6,45.9c-37.8,8.7-75,7.5-111.5-6.2c-36.1-13.5-70.9-34.3-110-36.2
		c-62-3-117.9,39.7-179.5,47.8c-99.7,13.1-176.4-71.7-273.9-67.1c-45.9,2.1-91.2,18.6-129.5,44.8c-23.8,16.2-46.5,36.4-74.3,42.3
		c-28.4,6-57.8-4-83.6-17.8c-30.5-16.4-58.1-35.9-90.5-48.3c-3.2-1.2-4.3-1.6-3.6-5.8c5.1-30.9,17.2-58.6,35.8-82.9
		c25.6-33.5,58.5-55.8,98.5-66.1c8.1-2.1,16.6-2.9,24.9-4.4c0.8-0.1,1.5-0.6,2.2-1C1056.6,1313,1338.6,1313,1620.6,1313z" style="fill:#DDDDDD;"/>
	<g>
		<g>
			<path d="M2057.6,1865c-56.3,0-112.7,0-169,0c-1.1-0.3-2.1-0.8-3.2-1c-23.4-5.2-38.8-19.2-46.3-42c-1-3-1.7-6-2.5-9
				c0-141,0-282,0-423c0.3-1.1,0.8-2.1,1-3.2c5.2-23.4,19.2-38.8,42-46.3c3-1,6-1.7,9-2.5c56.3,0,112.7,0,169,0
				c1.1,0.3,2.1,0.8,3.2,1c23.4,5.2,38.8,19.2,46.3,42c1,3,1.7,6,2.5,9c0,141,0,282,0,423c-0.3,1.1-0.8,2.1-1,3.2
				c-5.2,23.4-19.2,38.8-42,46.3C2063.7,1863.5,2060.6,1864.2,2057.6,1865z" style="fill:#F1592B;"/>
		</g>
	</g>
	<path d="M1980.6,1559c-5.3,0-10.7,0-16,0c-0.9-0.3-1.8-0.7-2.8-0.9c-28.3-5.5-46.4-22.1-54.9-49.5
		c-1-3.1-1.6-6.4-2.3-9.6c0-5.3,0-10.7,0-16c0.3-1.1,0.7-2.2,1-3.3c5.6-27.7,22-45.8,49-54.2c3.3-1,6.7-1.7,10.1-2.5
		c5.3,0,10.7,0,16,0c0.9,0.3,1.8,0.7,2.8,0.9c28.2,5.5,46.4,22.1,54.9,49.5c1,3.1,1.6,6.4,2.3,9.6c0,5.3,0,10.7,0,16
		c-0.3,0.9-0.7,1.9-0.9,2.8c-5.4,28-21.9,46.2-49,54.7C1987.4,1557.6,1984,1558.2,1980.6,1559z" style="fill:#F4B321;"/>
	<path d="M1980.6,1781c-5.3,0-10.7,0-16,0c-0.9-0.3-1.8-0.7-2.8-0.9c-28.3-5.5-46.4-22.1-54.9-49.5
		c-1-3.1-1.6-6.4-2.3-9.6c0-5.3,0-10.7,0-16c0.3-1.1,0.7-2.2,1-3.3c5.6-27.7,22-45.8,49-54.2c3.3-1,6.7-1.7,10.1-2.5
		c5.3,0,10.7,0,16,0c0.9,0.3,1.8,0.7,2.8,0.9c28.2,5.5,46.4,22.1,54.9,49.5c1,3.1,1.6,6.4,2.3,9.6c0,5.3,0,10.7,0,16
		c-0.3,0.9-0.7,1.9-0.9,2.8c-5.4,28-21.9,46.2-49,54.7C1987.4,1779.6,1984,1780.2,1980.6,1781z" style="fill:#F4B321;"/>
	<g>
		<path d="M2064.6,1916c-0.2,0.8-0.3,1.6-0.6,2.3c-0.3,0.9-0.8,1.8-1.2,2.6c1,0.1,2,0.2,3.1,0.3c1.4,0.1,2.8,0.2,4.3,0.3
			c0.1,0.5,0.3,0.9,0.4,1.4c0.8-1.2,1.7-2.5,2.8-4c2.7,3,5.2,5,8.4,0.7c0.7-1,3.9-0.1,6.1,0.4c2.2,0.1,4.5-0.2,6.5,0.4
			c1.9,0.6,3.4,2.2,5.4,3.6c0.5-0.7,1-1.6,1.6-2.5c0.4-0.1,0.9-0.2,1.3-0.3c0.6,2.7,1.1,5.4,1.6,7.7c-4.2,0.4-7.5,1-10.8,1
			c-2.1,0-4.1-1.1-6.2-1.3c-1.1-0.1-2.3,1.1-3.4,1c-5.5-0.1-10.9-0.5-16.4-0.7c-2.2-0.1-4.4,0.6-6.6,0.5c-2.4-0.1-4.7-0.5-7.1-1.5
			c-4.8,3.7-10.7,3.5-16.6,3c-6.4-0.6-12.7-1.4-19.2-2.1c0,0.6,0,1.5,0,1.7c-1.4-0.3-2.7-0.9-4.1-0.9c-8.3-0.2-16.7-0.5-25-0.5
			c-4.8,0-9.5,0.6-14.3,1.2c-1.4,0.2-2.6,1.9-4,2.2c-6.6,1.1-13.2,3.5-19.9,0.3c-1.5-0.7-3.2-1.2-5-1.8c-0.2,1.3-0.3,2.6-0.5,4.1
			c-5-3-10.1-1.5-15.2-0.9c-2.6,0.3-5.3,0.1-8,0.1c-5.4,0.1-10.7,0.6-16.1,0.3c-6.1-0.3-12.7,2-18.1-3.9c-0.3,1.8-0.4,2.8-0.5,3.4
			c-6.6,0-13.3,0-19.9,0c0-0.3,0.1-0.6,0.1-0.9c-2.4,0.8-5.6,3-7.1,2.1c-5.3-2.9-12.7-1.7-17.1-8.9c3.4,0.9,6,1.6,8.1,2.2
			c0.7-2.2,1.2-4,1.8-5.9c0.5,0.1,1,0.2,1.5,0.4c-0.2,1.6-0.3,3.1-0.6,6.2c1.6-1.4,2.6-2,3.3-2.9c1-1.5,1.7-4.6,2.6-4.7
			c2.2-0.1,4.5,1.2,7.1,2c0-0.2,0.1-1.3,0.3-2.4c1.5,0.8,3,2.3,4.6,2.4c2.6,0.1,5.2-1,7.8-1.1c3.8-0.2,7.6,0.2,11.4,0
			c3.2-0.1,6.3-0.8,9.4-0.8c1.9,0,3.8,1,5.9,1.6c1.1-0.5,2.9-2.1,4.7-2.1c5.4-0.1,10.9,0.4,16.3,0.9c2.6,0.2,5,1.3,7.8-0.2
			c1.4-0.7,3.9,1,5.9,1.2c1.7,0.1,3.8-0.1,5-1c3.3-2.7,4.3-0.7,5.2,2.6c2.9-4.2,5.5-4.6,6.8-1.1c8.2-0.7,15.8-1.6,23.4-2.1
			c6.3-0.4,12.6-0.4,18.9-0.4c1.6,0,3.2,0.7,4.8,1.2c0.9,0.3,2.3,1.3,2.6,1c4.2-3.8,8.7-0.3,13-0.5c4.8-0.2,9.6-0.2,14.3-0.3
			c2,0,4-0.2,6-0.6c2.9-0.3,6.2-1.5,8.7-0.6c7.3,2.3,9.3,1.8,12.8-5.3C2063.3,1916,2063.9,1916,2064.6,1916z"/>
		<path d="M1882.6,2308c0.4-0.8,0.8-1.6,1.1-2.4c0.3-0.8,0.5-1.7,0.8-2.5c-0.9-0.2-1.8-0.5-2.7-0.6c-1.7-0.1-3.4,0-6.1,0
			c0,0-0.7,1.2-1.7,2.8c-2.7-3.2-5.2-5-8.4-0.8c-0.8,1-4,0.1-6.1-0.3c-2.2-0.1-4.5,0.2-6.5-0.4c-1.9-0.6-3.4-2.2-5-3.3
			c-1.1,0.5-2.3,1.2-3.5,1.8c-0.2-2.6-0.4-5.1-0.5-7.7c2.1,0.5,3.5,1.3,4.2,0.9c4.2-2.2,8.1-2.3,12.1,0.3c0.6,0.4,2.2-1.1,3.3-1.1
			c5.5,0.1,10.9,0.6,16.4,0.7c2.2,0,4.4-0.7,6.6-0.7c2.4,0.1,4.7,0.7,8.5,1.3c3.3-2.5,8.3-3.6,14.3-2.4c6.4,1.2,13,1.2,19.9,1.7
			c0-0.3,0.1-1.2,0.1-1.2c2,0.3,3.8,0.8,5.7,0.9c6.1,0.3,12.2,0.7,18.3,0.5c6.8-0.2,14.7,0.9,20.2-2c5.1-2.6,10.4-1,15-3.9
			c1-0.7,3.3,0.6,5,1.1c2.5,0.7,5.1,1.6,7.9,2.5c0.2-1,0.4-2.2,0.7-4c6.5,4.7,13.2-0.3,19.9,0.7c4.9,0.7,10,1.1,15,1.1
			c3.8,0.1,7.6-0.9,11.4-0.8c3.7,0.1,7.4,1,11.4,1.5c0,0,0.1-1,0.2-1.5c4.8,0,9.5,0,14.2,0c1.5,0,3,0.2,4.5,0.3c0.8,0,1.9,0.4,2.5,0
			c4.9-2.9,8.9,0,13.5,1.1c3.1,0.8,5.5,1.9,7.8,3.9c0.3,0.3,0.3,1.1,0.5,2.2c-2.8-0.8-5.1-1.6-7.1-2.2c-0.7,2.3-1.3,4.1-1.8,5.9
			c-0.5-0.1-1-0.3-1.5-0.4c0.2-1.6,0.3-3.1,0.6-5.7c-1.3,0.9-2.6,1.3-3.1,2.1c-1,1.8,0.7,5.5-3.3,5.1c-2.1-0.2-4.2-1.5-6.5-2.3
			c0,0.4-0.1,1.5-0.2,2.6c-1.6-0.9-3.1-2.3-4.6-2.4c-2.6-0.1-5.2,0.8-7.8,1.1c-2.6,0.3-5.2,0.6-7.8,0.6c-4.5,0.1-9.1,0.3-13.6,0.1
			c-1.8-0.1-3.5-1.1-5.2-1.6c-1.3,0.6-3.1,2.2-5,2.2c-5.4,0.1-10.9-0.3-16.3-0.9c-2.7-0.3-5-1-7.8,0.2c-1.5,0.7-3.9-1.2-5.9-1.2
			c-1.8,0-3.7,0.7-5.3,1.4c-3.1,1.4-3.4,1.3-4.6-2.6c-2.7,1.9-5.9,6.4-7,0.7c-8.3,0.7-15.9,1.6-23.5,2.1c-6.3,0.4-12.6,0.3-18.9,0.5
			c-0.5,0-1.1,0.4-1.4,0.2c-5.8-3.8-12.3-0.3-18.5-1.8c-4.6-1.2-9.8-0.1-14.8,0c-2,0-4,0.2-6,0.6c-2.9,0.3-6.2,1.4-8.7,0.6
			c-7.3-2.3-9.3-1.8-12.8,5.3C1883.9,2308,1883.3,2308,1882.6,2308z"/>
		<path d="M1996.6,1963.6c1.7,0,3.5,0.1,5.2,0c1.8-0.1,4.4,0.3,5.3-0.7c2-2.3,3.1-2,5.3-0.3c1.4,1,3.8,0.8,5.8,1
			c4.4,0.5,8.9,1.8,13.3,1.4c7.8-0.7,15.5,0.4,23.2,0.4c1.1,0,2.2,0.8,4.7,1.7c1.7-0.7,4.8-3.8,8.4,0.5c0.5,0.6,3.2-0.8,5.6-1.4
			c0.2,0.2,0.9,1,1.1,1.2c9.4-0.9,18.2-2.6,27.3,0.3c0.4-0.4,0.8-0.8,1.2-1.3c0.2,3,0.7,5.9,0.5,8.9c-0.2,3.4-2.8,3.8-5.8,3.8
			c-4.6,0.1-9.2,0.7-13.8,1.1c-0.3,0-0.7,0.2-1,0.1c-4.7-1-9.3-2.1-14-3.1c-0.8-0.2-1.7-0.6-2.4-0.4c-8.1,3.1-16.2-0.2-24.3,0.1
			c-4.2,0.2-8.5-1.1-12.8-1.7c-0.8-0.1-1.7-0.3-2.3,0c-3.9,2.7-6.7,1.1-9.3-2.4c-1.9,2-3.4,4.4-6.7,1.5c-0.9-0.8-4.5,1.8-6.2,1.2
			c-5.6-2.2-11.2,0-16.7-0.6c-5.3-0.6-10.4,0.2-15.6,0.5c-6.6,0.4-13.3-1.1-20-1.5c-2.1-0.1-4.2,0.9-6.3,1
			c-3.8,0.2-7.7,0.7-11.3-0.2c-5.8-1.4-11.3,0.1-17,0.2c-3.9,0.1-7.8-1.2-11.7-1.4c-3.5-0.2-7,0.3-10.5,0.5c-0.3,0-0.7,0.1-1,0.1
			c-10.4-2.4-21.3,1.3-31.7-2.4c-3.5-1.2-7.5-0.7-11.3-1.3c-1.3-0.2-2.4-1.4-4-2.4c-0.2,0.4-0.7,1.4-1.1,2.4
			c-2.3-0.7-4.5-1.3-6.9-2.1c0.8-3.4,1.2-7.1,6.5-4.7c2-4.1,5.3-1,8-1.5c4.6-0.9,8.8-1.1,12.7,2.1c0.1,0.1,0.3,0.1,0.5,0.1
			c5.6-0.2,11.2-0.5,16.8-0.6c2.3,0,4.5,0.4,6.7,1.2c1.7-0.1,2.3-6.1,5.7-0.6c0.3,0.5,2.3,0.4,3.2-0.1c3.8-2.1,6.9-0.7,10.1,1.4
			c1.1-1.2,2.3-3.8,3.6-3.8c4,0,8,1,12.1,1.5c1.8,0.3,3.6,0.6,5.4,0.8c4.3,0.3,8.6,0.5,12.9,0.7c3.1,0.1,6.2,0.4,9.3,0.2
			c7.6-0.3,15.1-0.8,22.7-1.2c1.2-0.1,2.6-0.5,3.4,0.1c4.9,3.1,9.2,0,13.7-0.8c1.1-0.2,2.4,0.9,3.7,1.4
			C1996.6,1964.1,1996.6,1963.9,1996.6,1963.6z"/>
		<path d="M2099.4,2255.9c0.1-0.3,0.5-1.3,0.9-2.3c2.2,0.6,4.1,1.2,6.1,1.7c-0.1,1.7-0.2,3.5-0.3,6.1c-7,0.2-14.2,0.4-21.4,0.5
			c-1.1,0-2.2-0.8-3.4-1.1c-1.4-0.4-3.1-1.4-4.1-0.9c-6,2.8-12.1-0.9-18.1,0.5c-0.9,0.2-2.1-0.9-3.7-1.5c-1.1,0.5-1.7,6.4-5,1
			c-0.3-0.5-2.3-0.4-3.2,0.1c-3.7,2-6.9,1.1-9.9-1.5c-1.2,1.4-2.5,4-3.7,4c-4,0-8-1-12.1-1.5c-1.8-0.3-3.6-0.7-5.4-0.8
			c-4.3-0.3-8.6-0.5-12.8-0.7c-3.1-0.1-6.2-0.4-9.3-0.2c-7.6,0.3-15.1,0.8-22.7,1.2c-1.2,0.1-2.6,0.5-3.4,0c-4.9-3.2-9.2,0-13.7,0.8
			c-1.1,0.2-2.4-0.8-3.7-0.6c-1.7,0-3.5-0.1-5.2,0c-1.9,0.2-3.8,0.6-5.7,1c-1.3,0.3-3.5,1.3-3.6,1c-2-3.4-5.1-2-7.9-2.3
			c-5.1-0.4-10.5-2.3-15.2-1.3c-7.1,1.6-13.9-1-20.8-0.1c-0.9,0.1-2-1.1-3.6-2.1c-2.4,1.3-5.8,3.8-9.3-0.5c-0.3-0.4-2.9,1.1-5,1.9
			c-0.4-0.4-1.1-1.2-0.9-1.1c-2.9,0-4.8,0-6.7,0c-1.4,0-2.8,0.2-4.3,1.5c-2.9-0.2-5.9-0.3-8.8-0.6c-2.6-0.3-5.1-0.9-7.6-1.4
			c-0.1,0.4-0.3,0.8-0.4,1.1c-1.2-2.1-2.3-4.1-3.7-6.5c1.4-0.3,2.5-0.5,3.6-0.8c-1.4-4.8-0.7-5.4,4.2-5.4c4.6,0,9.2-0.7,13.8-1.1
			c0.3,0,0.7-0.2,1-0.1c4.7,1,9.3,2.1,14,3.1c0.8,0.2,1.7,0.6,2.4,0.4c8.1-3.1,16.2,0.1,24.2-0.1c4.2-0.1,8.5,1.1,12.8,1.7
			c0.8,0.1,1.7,0.4,2.3,0c3.9-2.6,6.7-1.2,8,0.5c3.6,0.2,5.7,0.6,7.8,0.4c2.2-0.2,4.7-2,6.3-1.3c5.5,2.1,10.8,0.4,16.2,0.7
			c5.4,0.3,10.7,0,16.1-0.5c6.6-0.5,13.3,1,20,1.4c2.1,0.1,4.2-0.8,6.3-0.9c3.8-0.2,7.8-0.8,11.3,0.1c5.8,1.4,11.3-0.2,17-0.2
			c3.9,0,7.8,1.1,11.7,1.3c3.5,0.2,7-0.3,10.5-0.4c0.3,0,0.7-0.2,1-0.1c10.4,2.4,21.3-1.3,31.7,2.4c3.2,1.1,7,0.3,10.4,0.9
			C2096,2253.5,2097.6,2254.9,2099.4,2255.9z"/>
		<path d="M2088.2,2127.9c-2.3,1.9-3.1,3.9-2,6.9c1.3,3.6-1.4,4-4.2,4c-2.1,0-4.2,0-6.4,0c-6.6,0.1-13.1,0.3-19.7,0.3
			c-0.8,0-1.6-1.3-2.4-2c-1,1.5-1.9,3-3,4.8c-2.8-1.2-5.4-2.9-8.2-3.2c-3.2-0.4-6.5,0.5-9.8,0.8c-0.8,0.1-1.6,0.5-2.3,0.4
			c-2.6-0.5-6.4-2.6-7.4-1.6c-3.8,3.8-5-1-6.8-1.3c-4.1,0.7-7.6,1.7-11.2,1.8c-9.8,0.2-19.6,0.2-29.4,0c-3.3-0.1-7.3-0.2-9.6-2
			c-2.7-2.2-4.4-0.7-6.7-0.3c-1.7,0.3-3.5,0.1-5.3,0.1c-0.1-0.5-0.2-0.9-0.4-1.4c-0.9,0.9-1.8,1.7-2.7,2.6c-1.3-1.3-2.5-2.5-4.8-4.7
			c0.3,2.8,0.5,3.9,0.6,5c-1-0.1-2-0.3-3-0.3c-1.3,0-2.6,0.3-3.9,0.4c-2.1,0.1-4.3,0.2-6.4,0.2c-6.6,0.1-13.2,0-19.7,0.3
			c-2.3,0.1-4.6,1.2-7.4,2c0.9-1.2,1.6-2.2,2.4-3.2c-2,3.7-8.5-3.8-8.8,3.3c-4.6-1-10.2-4.1-13.5-2.4c-5.6,2.7-11.9-1.5-16.7,3
			c-0.3,0.3-2.4-1.5-4-2.5c-3.7-0.2-8.2-0.5-12.4-0.7c-1.3-2.6-2.5-5-3.8-7.5c1.5-0.3,2.8-0.7,4.2-0.7c1.2-0.1,2.5,0.1,3.6,0.9
			c4.2-1.5,8.4-3,12.6-4.5c0.6,1.1,1.2,2.3,1.8,3.5c1.2-0.9,2.4-1.7,3.9-2.8c0.2,0.8,0.5,1.8,0.7,2.3c1.6-0.5,3.2-0.9,5.3-1.5
			c0,0.2,0-1-0.1-1.1c2.7-0.2,5.4-0.4,8.8-0.6c3.4,4.7,8.3-0.7,12.9,0.1c5.1,0.9,10.5,0.5,15.7,0.7c5.1,0.2,10.2,0.4,15.3,0.6
			c1.2,0,2.7-0.3,3.4,0.3c3.6,3.1,5,1,5.4-1c5.4,0.3,10.3,0.5,15.2,0.8c3.9,0.2,7.9,0.7,11.8,0.7c1.8,0,3.7-0.7,5.5-0.9
			c1-0.1,2.1,0.1,3.2,0.3c0.2,0,0.6,0.6,0.7,0.6c5.2-2.6,10.2,0.3,15.3,0.4c3.1,0,6.3,0.9,9.4,0.6c1.8-0.2,3.6-1.8,5.2-2.9
			c4-2.9,4-3,5.4-0.1c8.9,0,17.2,0,25.8,0c2.4-3.2,5.7-0.5,8.8-0.2c3,0.3,6.1,0.1,9.9,0.1c0.1-0.2,0.5-1.4,0.8-2
			c2.3,2.6,4.7,5.2,7.1,7.9c0.3-0.2,0.5-0.4,0.8-0.7c-1-1.2-1.9-2.3-2.8-3.4c5.9-3.4,8.4-3,10.5,2.1c1.1-1.2,2.2-2.3,3.8-4
			c0.3,2.2,0.6,3.6,1,6.3c1.3-3.1,2.2-5.2,3.4-8.1c1.7,1.3,3,2.3,4.3,3.3C2087.9,2127.6,2088,2127.7,2088.2,2127.9z"/>
		<path d="M1859.6,2096.3c0.5-2.3,1.4-4.6,1.3-6.8c-0.2-3.3,1.2-4.8,4.5-4.2c1.9,0.3,4,0.2,6,0.2c6.7-0.2,13.4-0.4,20.1-0.5
			c0.7,0,1.3,1.3,2.4,2.4c1.2-7,5.4-3.7,9.1-3.2c3.7,0.6,7.9,1.8,11,0.6c2.2-0.9,2.7-0.3,4.3,0.3c2,0.7,5.3,1.6,6.2,0.7
			c3.9-4.2,4.8,1.9,7.4,0.9c2.2,0,4.4,0.1,6.5,0c2.3-0.1,4.6-0.4,6.9-0.5c9.5-0.4,19-0.9,28.5-1c2.5,0,5.8,0.4,7.2,2
			c2.6,2.9,4.6,1.1,7,0.6c1.7-0.3,3.6,0.1,5.3,0.2c0.3,0.6,0.7,1.2,1,1.8c0.4-1.3,0.9-2.6,1.3-3.9c2,2,3.2,3.2,5.2,5.2
			c-0.2-2.7-0.3-3.8-0.3-4.9c1,0.2,2,0.3,3,0.5c0.8,0.2,1.7,0.7,2.3,0.5c6.2-2.7,12.9,0.6,19.2-1.8c1-0.4,4.2,0.9,6.5,0.3
			c2.8-0.6,5.6-1,8.5-1.5c-0.3,0.5-1,1.5-1.7,2.5c2.2-3.1,8.2,3.6,8.9-3.3c4.5,0.9,9.8,3.8,13.2,2.4c5.6-2.4,11.7,1.4,16.7-2.7
			c0.5-0.4,2.4,1,3.3,2.3c4.5,0.2,8.9,0.5,13.4,0.7c1.3,2.6,2.5,5.1,4,8.1c-3.1,0-5.7,0-8.2,0c0-0.2,0.1-0.4,0.1-0.6
			c-4.2,1.5-8.4,2.9-12.6,4.4c-0.6-1.3-1.2-2.6-2-4.5c-1.4,1.8-2.2,2.9-3.5,4.5c-0.4-1.5-0.7-2.5-1-3.4c-1.7-0.4-2.4,6.1-4.9-0.9
			c0,2.7,0,3.9,0,4.6c-4.2-0.3-8.1-0.7-13.9-1.1c-2.4,1.5-7,1.5-11.7,0.3c-0.9-0.2-1.8,0-2.8,0c-5.9,0.2-11.9,0.6-17.8,0.5
			c-3.4-0.1-7.2-0.1-10-1.6c-3.7-1.9-5.1-1.6-5.2,1.2c-5.5-0.2-10.8-0.4-16-0.7c-3.8-0.2-7.5-0.8-11.3-0.9c-1.8,0-3.7,0.8-5.5,1
			c-0.9,0.1-2,0.1-2.9-0.1c-0.4-0.1-0.8-1-0.9-0.9c-7.2,3.4-14.3-1.2-21.7-0.5c-5,0.5-7.9,3.5-12.1,5.1c-0.7-1.6-1.2-2.8-1.7-4
			c-0.1,0.5-0.2,1-0.3,1.6c-8.1,0-16.2,0-25,0c-2.1,3.2-5.4,0.4-8.6,0.3c-3.2-0.2-6.4,0-10.2,0c0,0.1-0.4,1.2-0.5,1.9
			c-2.3-2.5-4.8-5.3-7.2-8c-0.3,0.2-0.5,0.5-0.8,0.7c1,1.2,2,2.4,2.9,3.5c-6.5,3.2-8.3,2.8-10.9-2.6c-0.9,1.6-1.7,2.9-2.5,4.3
			c-0.4-0.3-0.8-0.5-1.1-0.8c-0.3-1.5-0.5-2.9-0.8-4.8c-1.5,2.4-2.6,4.5-4.1,6.3c-0.1,0.2-2.3-1.3-3.5-2
			C1859.6,2096.7,1859.6,2096.5,1859.6,2096.3z"/>
		<path d="M1955.8,2019c-2.7,0.5-4.6,1.3-6.4,1.1c-3.5-0.2-7-0.9-10.5-1.4c-1.4-0.2-2.9-0.5-4.3-0.5c-4.8-0.1-9.6,0-14.3-0.3
			c-4.8,0.3-9.6,1-14.3,0.8c-8.4-0.3-16.9-1.1-25.3-1.6c-3.1-0.2-6.3,0.2-9.4,0.1c-4.8-0.2-9.6-0.9-14.3-0.8
			c-2.8,0.1-3.7-1.3-3.4-3.2c0.2-1.3,2-3.2,3.2-3.3c7.5-0.7,15-1.2,22.6-1.4c11.3-0.4,22.6-0.5,33.9-0.7c2.9-0.1,5.9,0.3,8.8,0.1
			c1.7-0.1,3.2-1.4,4.9-1.5c3.4-0.4,6.9-0.9,10.2-0.3c4.1,0.7,7.9,1.6,11-1.4c2.4,0.6,4.8,1.2,7.1,1.7c0.3-0.4,0.5-0.9,0.8-1.3
			c0.1,0.7,0.3,1.4,0.2,1c5.5-0.2,11-0.5,16.4-0.6c7.7-0.1,15.4,0.1,23.1-0.1c4.8-0.1,10.1-2.1,14.4-0.9c5.8,1.6,11-0.3,16.4-0.2
			c4,0.1,8.5,2.3,11.8,1c3.5-1.4,6.9,2.7,9.9-0.9c0.4-0.5,2.9,1,4.5,1c1.7,0,3.3-0.8,5-1.2c12.8,0.9,25.8,1.8,38.8,2.7
			c1.1-0.8,2.5-1.7,3.9-2.7c-0.3,5.3-9,11.2-13.1,11.1c-8.6-0.2-17.2,0.1-25.7-0.2c-6.6-0.2-13.2-1.2-19.8-1.4
			c-6.3-0.2-12.7,0-19,0.5c-1.2,0.1-2.3,1.9-3.3,2.9c-4.9,0-9.9,0.5-14.9-0.2c-3.8-0.5-8.3,2.3-11.4-2c-0.2-0.2-1.2-0.2-1.4,0
			c-2.6,3.8-6.8,2-10.1,3.1c-1.1,0.4-1.8,2-2.9,3.3c0,0-0.6,0.2-0.7,0.1c-3.5-4.4-6.8-3.8-11.3-1c-4.6,2.9-3.4-1.4-3.3-3.9
			C1960.7,2017.6,1958.1,2018.3,1955.8,2019z"/>
		<path d="M1928.9,2206.4c2.4,0,5.8-0.5,9.1,0.1c5.4,0.9,11.4-2.2,16.3,2.4c0.2,0.2,1.2,0.1,1.4-0.2c2.4-3.8,6.4-2.2,9.7-3.1
			c1.3-0.3,2.1-2.1,3.3-3.3c0.1,0,0.6-0.1,0.7,0c3.2,4.7,6.6,3.9,10.8,1c3.8-2.6,4.4,0.1,3.3,3.9c2.7-2.1,7.4,2,7.6-2.4
			c2.8-0.5,4.8-1.3,6.8-1.1c3.5,0.3,7,1.1,10.6,1.7c1.4,0.2,2.9,0.3,4.3,0.3c4.6,0,9.3,0,13.9,0.6c5.2-1.2,10.4-1.9,15.9-0.2
			c2.3,0.7,5.1-0.5,7.6-0.3c9.9,0.7,19.8,1.7,29.7,2.4c3.5,0.2,7.1-0.5,10.6-0.2c1.2,0.1,3.1,2,3.1,3.1c0.1,1.1-1.8,3.1-3,3.2
			c-8,0.6-16,1-24,1.3c-10.8,0.3-21.6,0.6-32.4,0.7c-3.2,0-6.5-0.4-9.7-0.4c-1,0-2.5,0-3.1,0.7c-3.5,3.8-7.7,2.7-11.6,1.5
			c-4.1-1.3-7.4,0-10.7,1.6c-2.4-0.6-4.8-1.3-7.2-1.9c-0.3,0.4-0.5,0.9-0.8,1.3c-0.1-0.7-0.3-1.4-0.2-0.9c-5.5,0.3-10.7,0.6-16,0.7
			c-8.5,0.1-17.1,0.6-25.5-0.3c-5.2-0.6-10,2.5-15.5-0.2c-3.2-1.5-8,0.5-12.1,0.9c-1.2,0.1-2.5,0.6-3.5,0.2
			c-4.1-1.7-8.2-0.2-12.3-0.1c-3.7,0.1-7.5-0.5-11.2-0.5c-1.6,0-3.3,0.5-6.4,1c-11.4-0.8-24.4-1.8-38.1-2.8
			c-0.7,0.6-1.9,1.8-3.2,2.9c-0.3-5,8.3-11.6,12.4-11.3c7.7,0.6,15.6,1.9,23.2,1.3c9-0.7,17.8,0.2,26.7,1c5,0.5,10.2-0.4,15.2-1.1
			C1926,2209.4,1927.2,2207.8,1928.9,2206.4z"/>
		<path d="M1855.7,2166.8c2.3,0,5-0.1,7.8,0c4.5,0.1,8.9,0.1,13.4-1.6c1.5-0.6,4.3,2.2,6.7,3.5c0.1-0.4,0.2-1.4,0.3-2.7
			c4,0.8,8,2.1,12,2.3c4.4,0.1,8.9-0.8,13.4-1.3c0.3,0,0.8-0.5,0.8-0.4c5.3,5.4,12.1-2.1,17.7,2c0.8,0.6,2.3,0.3,3.4,0.1
			c3-0.7,7.1,0.5,8.8-0.1c5.2-2,9.7-1.3,14.5-0.1c0.4,0.1,1.2-0.6,1.2-0.6c2.8,4.3,5.6,2.7,8.6,0.2c-0.5,0.5-1,1-2,2.2
			c11.3,0,22,0,32.6,0c5.4,0,10.8-0.4,16.1,0.2c4.3,0.5,11.6-0.6,13-2c3.5,0,5.5,0,7.5-0.1c1.3,0,3-0.6,3.9-0.1c2.7,1.7,5,3.2,8,0.6
			c0.7-0.6,2.1-0.5,3.2-0.7c0-0.4-0.1-0.8-0.1-1.2c2.9,0.8,5.8,1.6,9,2.5c1.4-4.2,4.2-3.6,8.4-2c2.8,1.1,6.7-0.7,10.3-1.2
			c0,1,0,2,0,3c0.6,0,1.1,0.1,1.1,0c0.8-3.7,5.5-5.4,9.3-3.4c0.6,0.3,1.5,0.1,2.2,0.3c1.9,0.7,3.7,1.5,6.2,2.6
			c0.2-0.5,0.9-2.2,1.6-3.9c0.5,0.4,1.1,0.8,1.6,1.2c0.4,1.4,0.9,2.7,1.3,4.1c0.3-0.1,0.6-0.1,0.8-0.2c0-1.2,0-2.5,0-4.3
			c1.1,1.7,1.7,2.9,2.5,3.9c0.8,0.9,1.8,1.6,2.5,2.9c-1.8,0.1-4.1,3.4-5-0.9c-1.6,1-3.1,2-5.8,3.6c-2.2,0.3-6.2,0.6-9.9,1.6
			c-3,0.8-5.7,2.6-7,0.2c-6.3,0.5-11.9,0.8-17.4,1.4c-4.9,0.6-9.8,1.5-14.4,3.1c-1.8-0.6-3.5-1.8-5.3-1.8c-6.3,0.1-12.7,0.6-19,1
			c-0.7-0.4-1.7-1.5-2.6-1.5c-2.9,0.2-6.2,2-8.7,1.2c-8-2.6-15.9,0.4-23.9-1c-6-1-12.6,0.9-18.5-0.2c-6-1.2-11.8,0.2-17.7-0.3
			c-3.2-0.2-6.9,0.9-9.5-0.3c-3.3-1.5-6.2-0.2-9.2-0.7c-7.3-1.3-14.6-2-22.1-1.4c-5.8,0.5-11.8-0.6-17.7-0.6
			c-8.6,0.1-17.2,0.8-25.9,0.8c-2.3,0-4.6-1.8-6.9-2.8c-1.2-0.5-2.4-1-3.6-1.6c-0.5,1.4-1,2.7-1.4,4.1c-0.2,0.7-0.4,1.5-0.8,2.7
			c-3.5-1.6-6.7-3.1-9.8-4.6c0.2-0.5,0.4-1.1,0.6-1.6c1.3,0.2,2.6,0.5,5.1,0.9c-0.7-1.9-1.2-3.2-1.8-4.6c-0.6,0.1-1.1,0.1-1.7,0.2
			c0.9-1.6,1.8-3.2,2.5-4.5c1.5,2.1,2.6,5.1,3.9,5.2C1851.4,2170.5,1853.3,2168.3,1855.7,2166.8z"/>
		<path d="M1854.5,2054.9c-0.7,0.8-1.8,2-3.2,3.5c-0.6-1.9-1.1-3.3-1.6-4.6c-0.3,0.1-0.5,0.1-0.8,0.2c0,1.2,0,2.5,0,3.2
			c-2.2-1.9-4.5-3.9-6.7-5.8c2.3,0.2,5-3.2,6.7,0.9c1.6-0.9,3.1-1.8,4.7-2.7c-0.2-0.2-0.4-0.4-0.6-0.7c3.9-0.5,7.8-0.7,11.5-1.8
			c3.2-0.9,6-2.3,7.3-0.1c6.3-0.6,11.5-1,16.7-1.6c5.1-0.6,10.1-1.3,14.9-2.9c1.9,0.6,3.8,1.8,5.7,1.7c6.2-0.1,12.4-0.6,18.5-1
			c0.9,0.4,2.1,1.5,3.1,1.4c3.7-0.5,7-1.6,11.1,0.4c2.9,1.4,7.4-0.6,11.2-0.7c5.4-0.1,10.7,0.2,16.1,0.2c4.2,0,8.9-1.4,12.6,0
			c6.4,2.5,12.8-1.3,19.1,1.2c2.2,0.9,5.9-1.5,7.7-0.4c3.4,2.1,6.5,0.4,9.7,0.7c7.2,0.8,14.4,0.9,21.7,1.2c4.9,0.3,9.8,0.8,14.7,0.7
			c9.6-0.1,19.2-0.8,28.9-0.8c2.3,0,4.6,1.7,6.9,2.7c1.2,0.5,2.4,1.1,3.6,1.7c0.5-1.3,1-2.7,1.5-4c0.3-0.7,0.4-1.5,0.7-2.6
			c2.9,1.3,5.5,2.4,7.5,3.2c-1.3,2.2-2.2,3.7-3.1,5.3c0.9,0.3,1.7,0.6,3.1,1.1c-0.8,1.4-1.7,3-2.4,4.3c-1.4-2-2.6-5-3.9-5.1
			c-1.8-0.1-3.7,2-6.2,3.6c-2.2,0-5.5,0.5-8.7-0.1c-4.5-0.9-8.2,0.6-12.3,1.7c-1.8,0.5-4.3-2.2-6.7-3.5c-0.1,0.5-0.2,1.5-0.2,1.4
			c-8.9,0-17.7,0-26.4,0c0-0.1,0-0.2,0.1-0.3c-2.1-0.3-4.1-0.8-6.2-0.8c-2.7,0-5.4,0.3-8.1,0.4c-3.9,0.1-8.2,1.3-11.6,0.1
			c-4.7-1.7-8.1,0.9-12.1,1.5c-1,0.2-2.2-1.2-3.4-1.7c-0.9-0.3-2-0.3-2.9-0.4c-0.8-0.2-1.8-0.2-2.5-0.6c-1.8-1.3-3.5-3.5-4.9,0.5
			c-0.2,0.5-1.4,0.5-2.2,0.8c0.4-0.5,0.8-1.1,1.7-2.3c-4.8,0-9.1,0-13.4,0c-9.8,0.1-19.7,0.3-29.5,0.4c-1.4,0-3.2,0.2-4.3-0.5
			c-4.4-2.9-8.4,1-12.7,0.5c-1-0.1-2.2,1.8-3.6,3c-1.4-2.1-2.9-4.7-5.9-1.6c-0.6,0.6-2.7,0.7-3.3,0.2c-2.8-2.4-5.9-1.8-9-1.4
			c-1,0.1-1.9,1.4-3.3,2.5c-2.3-0.7-5.2-1.5-8.4-2.4c-1.2,4-4.2,4.3-8.1,2.1c-0.7-0.4-2.1-0.8-2.1-0.6c-1.7,3.5-4,1.1-6.2,0.9
			c-0.7-0.1-1.5,0.5-2.3,0.9c0-1,0-2,0-3c-0.6,0-1.1,0-1.2,0.1c-0.7,3.5-5.1,5.4-8.7,3.4c-1.3-0.7-1.7-1.2-3.3-0.3
			C1858.9,2058.2,1856.6,2056.1,1854.5,2054.9z"/>
		<path d="M1859.6,2096.3c0,0.2,0,0.4,0,0.7c-3,2.6-3.5,2.4-6.1-1.7c-2.2-0.8-6,2.9-7-1.6c2.5-1.3,4.4-2.7,6.5-3.3
			c1-0.3,2.7,0.5,3.6,1.3C1857.8,2092.9,1858.6,2094.7,1859.6,2096.3z"/>
		<path d="M2088.2,2127.9c-0.2-0.2-0.3-0.3-0.4-0.5c3.5-5.4,4.3,0,6.1,1.5c2.3,0.5,5.9-2.7,7,1.6c-2.7,1.4-4.5,2.7-6.5,3.1
			c-1.1,0.2-2.8-0.7-3.7-1.6C2089.5,2130.9,2088.9,2129.3,2088.2,2127.9z"/>
	</g>
	<path d="M610.5,1639.8c-2.6-34,2-157.3,5.2-172.6c1-4.6,79.3,39.3,85.6,42.7c24,13.2,50.5,24,77.8,22.4
		c54.2-3.2,92.3-49.1,139.4-70c57.8-25.6,130.1-15.1,186.2,9.1c44,19,88.4,42,136.3,42.4c74.9,0.7,143.4-53.8,218-47
		c50.1,4.6,94.1,36.5,143.8,44c60.5,9.1,127.2-16.8,178.4-47.1c0.5-0.3,1.2-0.3,3-0.8c0.8,5.8,2.1,11.5,2.2,17.3
		c0.4,24.7,0.4,49.3,0.5,74c0.1,23-0.1,46,0.1,69c0,4.7-1.3,7.7-5.2,10.8c-29.1,23.4-50.8,46.9-89.7,54.1
		c-30.7,5.7-62.6,1.8-92.4-7.4c-16.5-5.1-32.5-11.8-47.3-20.6c-12.9-7.7-24.9-17-38.7-22.7c-34.9-14.5-75-3.8-109.7,11.2
		c-67,28.9-131.6,54.5-205.4,32.2c-24.1-7.3-46.3-19.7-69.2-30.2c-60.3-27.8-131.7-42.4-192.7-16.1c-23.8,10.3-44.7,26.2-67.7,38.1
		c-40.2,20.9-88.5,29.1-131.4,14.5c-21.2-7.2-40.2-19.4-60.3-29.1C656.4,1647.8,632.8,1644.8,610.5,1639.8z" style="fill:#9EA09E;"/>
	<path d="M1787,1833.7c0,3,0,5.9,0,8.9c0,48.7-0.1,97.3,0.1,146c0,6.4-1.3,11-6.9,15.2c-11.9,8.9-22.7,19.5-34.6,28.3
		c-43.4,32.1-96.5,7.3-138.5-16.3c-37.3-20.9-76.5-44.7-119.2-41.8c-21.4,1.5-41.7,9.7-61.3,18.2c-39.4,17.2-77,50.3-121.4,52.3
		c-30.6,1.4-59.4-13.5-85-30.3c-31.4-20.6-61-39.6-96.4-52.8c-31.7-11.8-66.3-17.4-99.5-10.9c-43.9,8.6-80.9,37.1-122,54.8
		c-35.1,15.1-79.7,27.1-117.6,17c-11.7-3.1-171.1-56.6-171.1-42.6c0-52.5-3-104.3-3-157.5c3.3,0.9,9.5,1.4,12.4,2.7
		c65.1,29.1,134.5,64,206.8,36.5c24.7-9.4,46.2-25.5,69.1-38.6c30-17.2,63.1-29.5,97.4-34.4c55.3-7.8,111.8,4,164.2,23.4
		c31,11.5,62,25.1,91.2,40.4c30.4,15.9,60.9,34.6,96.9,28.3c20.7-3.6,38.9-15.3,57-25.8c44.9-26,97.8-46.9,147.7-33
		c50,13.9,88.4,60.7,140.1,64.7c30.9,2.4,73.2-15.2,85.7-45.9c1.2-2.8,3.8-5.1,5.8-7.6C1785.5,1833.1,1786.2,1833.4,1787,1833.7z" style="fill:#9EA09E;"/>
	<path d="M613.4,2159.6c46.6-15,87.4-3.6,131,16.4c17.6,8.1,34.8,17.8,53.8,21.7c42.3,8.7,84.4-12.6,122.5-32.8
		c38.2-20.2,80.9-40.7,122.8-30.4c51.6,12.7,92,59.7,140.7,80.7c28.6,12.4,60.5,18.9,91.1,12.9c39.5-7.8,71.8-35.1,106.5-55.6
		c30.2-17.9,64.9-31.2,99.8-27.4c65.8,7.3,117.4,73.4,183.5,69.5c42.5-2.6,78.5-33.9,109.4-60.2c3.4-2.9,6.9-5.8,11.7-9.9
		c0,9.4,0.6,16.9-0.1,24.3c-9.2,91.3-86.7,161.2-178.6,161.2c-271.3,0-542.6,0-813.9,0c-89.5,0-164.7-64.2-178.5-152.4
		C614.2,2172.1,614,2166.4,613.4,2159.6z" style="fill:#9EA09E;"/>
</g>
<g id="COLORS" style="display:none;">
	<rect x="-1967.6" y="3719.4" width="216.2" height="216.2" style="display:inline;fill:#0185D0;"/>
	<rect x="-1751.4" y="3719.4" width="216.2" height="216.2" style="display:inline;fill:#B3D8DD;"/>
	<rect x="-1967.6" y="3947.4" width="216.2" height="216.2" style="display:inline;fill:#0070CC;"/>
	<rect x="-1751.4" y="3947.4" width="216.2" height="216.2" style="display:inline;fill:#00A1C6;"/>
	<rect x="-1535.2" y="3719.4" width="216.2" height="216.2" style="display:inline;fill:#D3E9EF;"/>
	<rect x="-1967.6" y="2422.4" width="216.2" height="216.2" style="display:inline;fill:#F26981;"/>
	<rect x="-1967.6" y="2638.6" width="216.2" height="216.2" style="display:inline;fill:#9EA09E;"/>
	<rect x="-2193.1" y="2638.6" width="216.2" height="216.2" style="display:inline;fill:#333333;"/>
	<rect x="-2193.1" y="2854.7" width="216.2" height="216.2" style="display:inline;fill:#D48F00;"/>
	<rect x="-1967.6" y="2854.7" width="216.2" height="216.2" style="display:inline;fill:#F4B321;"/>
	<rect x="-1967.6" y="3070.9" width="216.2" height="216.2" style="display:inline;fill:#003501;"/>
	<rect x="-1967.6" y="3503.3" width="216.2" height="216.2" style="display:inline;fill:#9B1F0F;"/>
	<rect x="-1535.2" y="2638.6" width="216.2" height="216.2" style="display:inline;fill:#E5E5E5;"/>
	<rect x="-1535.2" y="2854.7" width="216.2" height="216.2" style="display:inline;fill:#FFDA54;"/>
	<rect x="-1535.2" y="3070.9" width="216.2" height="216.2" style="display:inline;fill:#009B4D;"/>
	<rect x="-1967.6" y="3287.1" width="216.2" height="216.2" style="display:inline;fill:#B45116;"/>
	<rect x="-1535.2" y="3503.3" width="216.2" height="216.2" style="display:inline;fill:#F1592B;"/>
	<rect x="-1751.4" y="2422.4" width="216.2" height="216.2" style="display:inline;fill:#FEAEB6;"/>
	<rect x="-1751.4" y="2638.6" width="216.2" height="216.2" style="display:inline;fill:#DDDDDD;"/>
	<rect x="-1751.4" y="2854.7" width="216.2" height="216.2" style="display:inline;fill:#FFC52D;"/>
	<rect x="-1751.4" y="3070.9" width="216.2" height="216.2" style="display:inline;fill:#004901;"/>
	<rect x="-1751.4" y="3287.1" width="216.2" height="216.2" style="display:inline;fill:#D46400;"/>
	<rect x="-1751.4" y="3503.3" width="216.2" height="216.2" style="display:inline;fill:#A55C54;"/>
	<rect x="-1975.2" y="2147.7" width="245" height="286.5" style="display:inline;fill:#FFA1AF;"/>
	<g style="display:inline;">
		<path d="M3221.3,6799.7c-0.2-0.9-0.4-1.8-0.7-2.7c-0.5-1.4-1.6-2.9-1.4-4.2c0.1-0.7,2.3-1.2,3.8-1.9
			c-0.6-1.9-1.5-4.2-2.2-6.6c-1-3.3-1.8-6.7-2.7-10c-0.1-0.5-0.3-1.2-0.7-1.4c-1.7-0.9-1.9-2-1.4-3.9c0.5-1.8-0.1-3.3-2.5-3.6
			c-1-0.1-1.8-1.1-3-1.9c1.2-0.6,2-1,2.7-1.3c-0.1-0.2-0.2-0.5-0.3-0.7c-0.7,0.1-1.4,0.2-1.7,0.2c-2.3-5.9-4.2-11.7-7.1-17
			c-0.8-1.4-1.2-2.7-1.7-4.1c-0.5-1.5-1.6-3.4-2.9-3.8c-2.9-0.9-2.8-2.3-1.9-3.9c-1-1.7-1.6-3-2.5-4.2c-2-2.8-4.3-5.3-6.2-8.2
			c-0.9-1.3-1-3-1.4-4.3c-1.7-2.7-3.5-5.3-5-8c-0.8-1.5-0.8-3.5-1.5-5.1c-0.5-1.1-1.6-1.9-2.3-2.8c-2.3-3.1-3-7.1-4.9-10.4
			c-2.2-3.9-5-7.4-7.5-11.2c-0.8-1.2-1.6-2.5-2.7-4.2c0-0.6,0-1.9-0.3-3.2c-0.1-0.4-1.1-1-1.6-0.9c-1.8,0.1-3.7,0.6-5.5,0.8
			c-0.6,0.1-1.7-0.1-1.8-0.3c-0.5-2.5-4.6-2.3-4.1-5.5c0.1-0.4-0.5-1.1-0.8-1.2c-3.2-0.8-4-3.6-5.4-6c-0.9-1.5-2.3-2.7-3.4-4.1
			c-2.5-3.2-5-6.4-7.6-9.6c-0.3-0.3-0.6-0.6-1-0.8c-2.1-1.1-3.9-1.9-5.3-4.5c-1.5-3-4.9-4.9-7.4-7.4c-2.9-3-5.7-6.1-8.7-9.1
			c-0.6-0.6-1.8-0.6-3-0.9c-0.3-1.6-0.8-3.5-1.2-5.6c-0.2,0.1-1.2,0.3-2.4,0.6c-0.1-1-0.1-1.8-0.2-2.6c-3.7-0.3-4.9-3.5-6.8-5.8
			c-0.4-0.5-1-1.5-1.4-1.5c-5.5,0.3-7.5-4.7-11.1-7.4c-0.3-0.2,0.1-1.3,0.2-1.6c-2.3-0.1-4.5-0.3-7.3-0.4c1-2.8,1.8-5.1,2.9-8.3
			c0.7,1.7,1.2,2.7,1.9,4.5c0.7-1.4,1.1-2.3,1.8-3.7c0.7,1.2,1.4,2.4,2.3,3.8c1.9,0.6,5,0.1,4.4,4.4c-0.2,1.4,2,3.4,3.5,4.7
			c3,2.7,6,5.5,10.8,5.4c-0.8,0.4-1.6,0.8-2.5,1.3c2,3.3,2.6,0,4.1-1.3c1.3,2,2.5,3.9,3.7,5.8c0.9-1,1.8-2.2,3.2-3.8
			c0.7,1.7,1.1,2.7,1.4,3.6c3.1-0.6,13.2,4.1,14.8,6.8c3.4-1.2,4.6-0.2,5.9,5.5c0.9-1.1,1.6-1.9,2.1-2.5c1.6,1.4,3.4,2.9,5.2,4.4
			c-0.1,0.2-0.3,0.8-0.6,1.4c1.1,0.1,2.1,0.2,3.3,0.3c0.3,1.8,0.2,4.3,3.8,3.8c0.9-0.1,2.2,1.2,3,2.2c2.5,3.3,7.2,4.2,8.5,8.8
			c0.6,2,2.7,3.5,4.4,5.5c4.3-0.6,4.5-0.5,4,4c1,0,1.9,0,2.1,0c1.4,2.1,2.7,3.8,3.8,5.6c0.7,1.2,1.3,2.5,1.4,3.8
			c0.2,2.6,1.4,1.8,2.9,1c2.2,6.3,4.5,12.6,6.9,19.4c0.8-2.1,1.3-3.5,1.9-5c0.4,0.2,0.8,0.4,1.2,0.5c-0.5,0.9-1.5,2-1.3,2.7
			c0.5,1.8,1.3,3.5,2.4,5c0.5,0.7,1.7,0.8,2.6,1.1c0.3-0.9,0.7-1.7,1-2.7c-4.8-1.3-4.7-1.3-3.3-5.5c0.3-1,0.7-2.1,0.6-3.1
			c0-0.9-0.6-1.7-1.2-3.1c4.2,1.3,1.8,4.6,2.9,6.1c1.1,0.1,2.2-0.1,2.7,0.3c1.1,0.9,2.7,2.1,2.8,3.3c0.1,2-0.3,3.4,2.6,3.1
			c0.6-0.1,1.5,1.3,2.2,2.2c1.3,1.7,2.8,3.3,3.8,5.1c1.3,2.4,4.9,3.7,3.8,7.1c0.9,0.5,2.2,0.8,2.4,1.5c1.2,4.8,5,7.9,7.3,12
			c1,1.7,1.6,3.5,2.7,5.1c0.5,0.9,1.6,1.4,2.1,1.9c0.4,1.7,0.4,3.4,1.2,4.7c1,1.6,2.7,2.7,3.8,4.2c0.8,1.2,1,2.7,1.5,4.1
			c0.7,1.7,1.5,3.4,2.1,5.2c0.7,1.9,1.1,3.9,1.4,5.1c2.1,2.7,3.7,4.8,5.8,7.5c-0.6,2.5,0.8,5.3,3.6,6c-1.2,3.4-0.3,5.2,3.7,6.7
			c-1.1,0-1.6,0-2.4,0c0.3,1.6,0.4,3.1,0.9,4.5c0.2,0.7,0.8,1.6,1.4,1.9c3.2,1.5,3.4,1.9,0.8,4.8c1,0.4,1.9,0.8,3,1.3
			c-0.9,3.2-0.3,5.8,3.4,7.1c0.6,0.2,0.6,1.9,0.8,3c0.1,0.3-0.2,0.8,0,1c1,2.2,2.1,4.4,3.2,6.5c1.1,2.2,2.2,4.4,3.4,6.8
			c0.3-0.1,0.9-0.5,1.6-0.9c1.3,4.2,2.5,8.4,3.9,12.9c3.6,0.5,2.8,4.2,3.7,7c0.5,1.5,0.6,3.5,1.6,4.3c2.4,2,1.4,3.7,0.3,5.6
			c-0.5,0.9-1.1,1.7-1.6,2.6c0.2,0.2,0.5,0.4,0.7,0.6c0-0.8,0.1-1.7,0.1-2.5c0.6,0.4,1.2,0.8,1.7,1.2c-0.4,2.4,0.6,5-1.6,7.4
			c-0.7,0.7,0.1,2.9,0.4,4.4c1,4.3,3.8,8,4,12.6c0.2,3.4,1.7,6.8,2.6,10.2c0.2,1-0.1,2.1,0.2,3.1c1.2,3.8,2.5,7.7,3.8,11.5
			c0.3,1,0.9,1.9,1.3,2.9c0.3-0.3,0.6-0.6,0.9-1c-0.5,3.5-1,7-1.5,10.8c0.7-0.2,1.2-0.4,2-0.7c0.8,2.1,1.9,4.2-0.3,6.3
			c-0.8,0.8-1.6,1.7-2.4,2.5c-0.2-0.2-0.5-0.4-0.7-0.7c0.4-0.4,0.8-0.8,1.3-1.2c-0.1-0.3-0.3-0.6-0.4-0.9c-1.3,0.5-2.7,0.9-4,1.4
			c-1,0.3-2.4,1.4-2.8,1.1c-2.3-1.9-3.8-0.2-5.7,0.6c-2.5,1.1-5,2.1-8.1,1c-2.8-0.9-6-0.5-9-0.7c-1.2-0.1-2.3-0.5-3.4-0.7
			c-1.2-0.1-2.5-0.4-3.5,0c-2.9,1-7.2,0-9-2.3c-0.2-0.2-0.2-0.8-0.3-0.9c-6-1.7-3.8-6.3-3.7-10.2c0-1.5-1.4-3.1-1.4-4.6
			c0-1.8,0.9-3.7,1.1-5.5c0.1-0.9-0.2-2-0.4-2.9c0-0.1-0.8,0-1.2,0c0.1,0.9,0.1,1.9,0.2,2.8c-0.2,0.1-0.5,0.2-0.7,0.2
			c-0.3-0.9-0.8-1.8-0.8-2.7c0.1-3.1,0.9-3.5,3.7-2.4c0.3,0.1,1,0.1,1.1-0.1c0.2-0.4,0.3-1,0.2-1.3c-1-2-2-4-4.9-1.2
			c0.2-2.5,5.3-4.4,0.5-6.4c0.3-1.4,0.6-2.9,0.9-4.3c-0.3,0.2-0.6,0.3-0.9,0.5c0.9,1,1.8,1.9,2.8,2.9c0.2-0.3,0.5-0.6,0.7-1
			c1.2-0.7,2.3-1.4,4-2.5c-1.3-0.4-2.7-0.8-4.8-1.5c-1.4-1.3,1.9-6.3-3.5-6.3c0.8-0.2,1.7-0.4,2-0.4c-0.2-2.5-0.3-4.6-0.5-6.8
			c0-0.6,0.1-1.5-0.2-1.7c-3-1.6-2.1-4-1.5-6.4c0.2-0.9-0.4-2.9-0.8-2.9c-3.5-0.2-1-3.3-2.3-4.4c2.2-2.4-0.2-3.4-1.4-4.7
			c-0.3-0.3-0.6-0.5-1.2-1c2.7-1.9,2.3-3.4-0.5-4.7c-0.5-0.2-1.1-0.7-1.1-1.1c-0.4-3-0.3-6-2.2-8.7c-0.5-0.6,0.7-2.4,1-3.7
			c0.3-1.2,1-2.6,0.7-3.4c-0.4-0.9-1.9-1.2-3.2-1.9c0-0.2,0.1-0.7,0.2-1.3c0-0.1,0.2-0.2,0.2-0.2
			C3221.1,6799.5,3221.2,6799.6,3221.3,6799.7c1.2,0.1,2.3,0.1,3.5,0.2c0-1.1-0.1-2.2-0.1-3.2c0-0.8,0.1-1.7,0-2.5
			c-0.1-0.8-0.4-1.5-0.7-2.4c-3.2,2.5-1.3,4.8-0.4,7C3222.7,6799.2,3222,6799.5,3221.3,6799.7z M3118.2,6617.8
			c-0.3-1.2-0.6-2.3-0.9-3.5c-1.2,0.1-2.4,0.3-3.5,0.4c-0.1,0.3-0.2,0.6-0.3,0.9C3115.1,6616.3,3116.7,6617,3118.2,6617.8
			c0.2,0.6,0.2,1.5,0.6,1.9c2.1,2,4.3,4,6.6,5.8c2.4,1.9,4.1,1.2,5-1.9c-3.3,1.7-7,0.3-7.9-3.4
			C3121.9,6617.4,3120.5,6617.1,3118.2,6617.8z M3250.5,6859.6c-1.2,0.6-2.2,0.8-2.7,1.4c-1.7,2-2.6,4.3-0.7,6.8
			c-0.9,0.7-1.6,1.3-2.4,1.9c0.3-0.1,0.7-0.2,1-0.3c1.1,1.5,2.2,2.9,3.2,4.4c1,1.6,1.9,3.3,3.1,5.3c0.4-2.2,0.7-3.8,1-5.6
			C3249.2,6871.5,3248.7,6867,3250.5,6859.6z M3240,6831.1c-2.9-3.3-1.1-9.1-6-11c-1.2,0.9-2.2,1.7-2.5,1.9c1.2,3.2,2.4,6.1,3.5,8.9
			C3235.7,6830.3,3235.8,6830.3,3240,6831.1z M3237.7,6867.8c-0.1,0.3-0.3,0.7-0.2,0.9c1,2,1.9,3.9,0.7,6.2c-0.2,0.3,1,1.7,1.8,2.1
			c0.5,0.2,1.8-0.3,2.1-0.8c0.3-0.6,0-1.7-0.3-2.4c-0.3-0.7-1.1-1.3-1.6-1.9C3242.6,6868.8,3242.6,6868.8,3237.7,6867.8z
			 M3217.5,6750.7c1.3-3.1,2.4-5.9,3.5-8.7c-0.3-0.1-0.6-0.3-0.9-0.4c-1.9,0.9-3.7,1.8-5.6,2.6
			C3219.4,6745,3214.9,6749.3,3217.5,6750.7z M3238.4,6841.1c-1.5,5.1,3,7.5,3,9.5C3240.1,6849,3241.9,6844.7,3238.4,6841.1z
			 M3222.6,6750.1c-0.3,0.1-0.7,0.2-1,0.4c-0.3,2.5,1.4,4.5,2.8,6.4c0.5,0.7,1.9,0.7,3,1C3225.6,6754.8,3224.1,6752.4,3222.6,6750.1
			z M3160.1,6659.1c0-0.3,0-0.5-0.1-0.8c0.8,0.1,1.6,0.1,2.2,0.4c0.9,0.5,1.7,1.3,2.5,2c0.4-0.4,0.7-0.8,1.1-1.3
			c-1.3-1-2.5-2.4-3.9-2.9c-0.8-0.2-3,1.2-3,1.8c0.1,1.2,1.2,2.4,1.9,3.6c0.4-0.3,0.8-0.6,1.2-0.9
			C3161.4,6660.5,3160.8,6659.8,3160.1,6659.1z M3140.9,6642.4c-0.4,0.5-0.9,0.9-1.3,1.4c1.9,1.8,3.9,3.5,5.8,5.3
			c0.3-0.3,0.6-0.6,1-1C3144.6,6646.2,3142.8,6644.3,3140.9,6642.4z M3249.9,6883.2c0.3-0.1,0.5-0.3,0.8-0.4
			c-0.7-1.7-1.2-3.6-2.2-5.2c-0.2-0.3-1.9,0.3-2.8,0.5C3247.3,6880.1,3248.6,6881.7,3249.9,6883.2z M3157.6,6667.5
			c-0.8-1.9-1.6-3.6-2.5-5.9c-0.4,0.7-1.4,1.8-1.2,2.2C3154.8,6665.2,3153.9,6668.5,3157.6,6667.5z M3214.9,6734.5
			c-0.4,0.2-0.7,0.4-1.1,0.6c1.3,2.3,2.6,4.5,3.9,6.8c0.4-0.3,0.9-0.5,1.3-0.8C3217.7,6738.9,3216.3,6736.7,3214.9,6734.5z
			 M3156.4,6653.2c-0.3-0.1-0.6-0.2-0.9-0.3c-0.4,1.2-0.9,2.3-1.3,3.5c1.1,0.2,2.2,0.3,3.9,0.6
			C3157.3,6655.1,3156.8,6654.1,3156.4,6653.2z M3227.2,6806.3c-0.4,0-0.7,0-1.1,0c-0.2,0.9-0.9,2.3-0.6,2.7c0.7,0.8,2,1,3,1.5
			c0.1-0.2,0.3-0.4,0.4-0.6C3228.4,6808.7,3227.8,6807.5,3227.2,6806.3z M3162.9,6661.4c0.8,1.1,1.7,2.2,2.8,3.8
			c0.7-1.4,1.3-2.6,1.9-3.8C3165.6,6661.4,3164.4,6661.4,3162.9,6661.4z" style="fill:#FFFFFF;"/>
		<path d="M3060.7,6585.2c1.9-2,3.4-3.6,5.2-5.5c0.9,2.5,1.1,4.7,2.4,5.7c0.8,0.7,3.1-0.5,4.8-0.8
			c0.7,1.5,1.2,2.7,1.7,3.7c1.4-0.4,2.8-0.7,4.3-1.2c-0.5,2.4-0.8,3.9-1.2,5.7c-0.6,0.1-1.4,0.3-2,0.5c-0.2-3.9-5.3-1.6-5.9-4.7
			c-2.2,1.2-4.3,2.4-5.9-0.9C3063.7,6586.6,3062.3,6586.2,3060.7,6585.2z" style="fill:#FFFFFF;"/>
		<path d="M3062.2,6581.5c-1.8-0.4-3.2-0.6-4.5-0.9c-0.3,0.3-0.5,0.6-0.8,0.8c0.8,1.1,1.6,2.2,2.4,3.4
			c0.4-0.3,0.9-0.5,1.3-0.8c-1.6,0.3-3.2,0.5-4.5,0.7c-0.2-1.2-0.3-2.3-0.5-3.3c-1,0.3-2,0.6-3.1,1c-1.2-1.5-0.5-5.5,1.5-6.4
			c0.4-0.2,1.3,0,1.4,0.2c1.1,2.6,3.8,2.5,5.9,3.5C3061.8,6580.1,3062,6581.1,3062.2,6581.5z" style="fill:#FFFFFF;"/>
		<path d="M3039.9,6575.4c0.7-1.4,1.3-2.8,2-4.3c4.4-0.1,1,3.3,2,5c0.9-0.6,1.8-1.2,2.8-1.8c0.1,0.9,0.2,1.8,0.3,2.9
			c1.1,0,2,0,3.1,0c-0.2,1-0.3,2-0.4,2.8C3045.9,6580.2,3043.7,6579.1,3039.9,6575.4z" style="fill:#FFFFFF;"/>
		<path d="M3027.2,6569.2c-1.7-1-3.2-1.9-4.7-2.8C3024.5,6565.1,3026.7,6566.2,3027.2,6569.2z" style="fill:#FFFFFF;"/>
	</g>
	<g style="display:inline;">
		<circle cx="5361" cy="7218.9" r="783.2" style="fill:none;stroke:#000000;stroke-width:50;stroke-linecap:round;stroke-linejoin:round;stroke-dasharray:0,136.71;"/>
	</g>
</g>
</svg>
