<?xml version="1.0" encoding="utf-8"?>
<!-- Generator: Adobe Illustrator 21.0.0, SVG Export Plug-In . SVG Version: 6.00 Build 0)  -->
<svg version="1.1" baseProfile="tiny" id="Layer_3" xmlns="http://www.w3.org/2000/svg" xmlns:xlink="http://www.w3.org/1999/xlink"
	 x="0px" y="0px" viewBox="0 0 2000 2000" xml:space="preserve">
<g>
	<path fill="#FECE2F" d="M1263,1848.9c-395.5-16-817.6-75.9-1069.7-436.4c-313-447.6-42.8-866.5,410.1-1069.2s819.3,59,1158.5,482.1
		C2102.6,1250.4,1761.2,1869,1263,1848.9z"/>
</g>
<g>
	<path fill="#FECE2F" d="M1000.5,186.4c-2.7,1.6-34.2,33.6-34.2,64s6.4,52.3,25.1,54.4c18.7,2.1,18.7,2.1,18.7,2.1l-7.5,36.3
		l53.4,30.4l46.4-27.8l-24-70.5c0,0,13.3,4.8,21.3,1.6c8-3.2,12.3-15.5,7.5-23c-4.8-7.5-23-4.8-23-4.8l0.5-32l-28.3-31
		c0,0-35.8-15.5-37.9-14.9s-12.8,3.7-12.8,3.7L1000.5,186.4z"/>
</g>
<g>
	<path fill="#FECE2F" d="M587.9,390.2c0,0-10.1-26.2-27.8-32c-17.6-5.9-36.8-7.5-36.8-7.5s-45.9-10.1-48-4.3
		c-2.1,5.9,20.3,15.5,20.3,15.5s-13.3,7.5-17.6,6.9c-4.3-0.5-51.2-12.3-53.4-5.3c-2.1,6.9,45.4,20.8,45.4,20.8s47-2.1,49.1,0.5
		c2.1,2.7,16.5,43.8,18.1,43.8s23.5-9.1,31-15.5C575.6,406.8,587.9,390.2,587.9,390.2z"/>
</g>
<g>
	<path fill="#FECE2F" d="M1492,479.4c0,0,15.5,24.6,24.6,33.1s18.1,13.3,18.1,13.3s24-35.8,28.8-35.2c4.8,0.5,39.5,9.1,39.5,9.1
		l55-3.2c0,0-2.1-10.1-11.7-11.7c-9.6-1.6-39-1.6-39-1.6l-18.7-12.3c0,0,28.3-3.7,25.6-8.5c-2.7-4.8-31.5-5.9-45.4-6.4
		c0,0-26.2-6.4-34.7-2.1C1525.7,458,1492,479.4,1492,479.4z"/>
</g>
<g>
	<path fill="#1A1A1A" d="M659.4,761.5C659.4,761.5,659.3,761.5,659.4,761.5c-24.4-0.7-48.7-20.8-72.4-59.7
		c-17.4-28.5-28-57.3-28.1-57.6c-0.6-1.6,0.2-3.3,1.8-3.8c1.6-0.6,3.3,0.2,3.8,1.8c0.4,1.1,41.6,111.8,94.9,113.3
		c1.7,0,3,1.4,2.9,3.1C662.3,760.2,661,761.5,659.4,761.5z"/>
</g>
<g>
	<path fill="#1A1A1A" d="M1424.7,766.3c-0.8,0-1.6-0.3-2.2-1c-1.1-1.2-1-3.1,0.2-4.2c59.7-53.4,99.8-134.4,100.2-135.2
		c0.7-1.5,2.5-2.1,4-1.4c1.5,0.7,2.1,2.5,1.4,4c-0.4,0.8-41,82.8-101.6,137C1426.2,766.1,1425.4,766.3,1424.7,766.3z"/>
</g>
<g>
	<path fill="#FECE2F" d="M1051.7,87.1c11.7-0.7,34.5,9.3,46.6,30.2s27,57.3,27.4,81.5s-8.2,48.4-18.9,52.7L1094,244
		c0,0-0.4-24.6-33.4-59.8c-33.1-35.2-34.5-19.9-34.5-19.9l-19.6-1.4c0,0-32-1.8-31-3.2c1.1-1.4-6.4-21,9.6-21.7
		c16-0.7,29.2,7.8,29.2,7.8s-2.1-31.3,11.4-45.2C1039.2,86.7,1051.7,87.1,1051.7,87.1z"/>
</g>
<g>
	<path fill="#FFFFFF" d="M1036.1,143.4c3.3-1.7,7.2-2.9,10.7-1.7c3.7,1.3,6,5.3,6.5,9.2s-0.4,7.8-1.5,11.6c-0.6,2.2-1.3,4.5-3.2,5.8
		c-2.5,1.7-6,0.8-8.3-1.1C1032.6,160.8,1024.1,149.7,1036.1,143.4z"/>
</g>
<path fill="#FFFFFF" d="M990.5,199.3c2.5,0.6,5.2,1.9,7.9,3.8c6.4,4.4,9.8,10.5,7.7,13.5c-2.1,3-8.9,1.8-15.3-2.6
	c-2.8-1.9-5-4.2-6.4-6.3"/>
<path fill="#1A1A1A" d="M1000.1,200.7c-2.9-2-6-3.5-8.9-4.3c-1.6-0.4-3.2,0.5-3.7,2.1c-0.4,1.6,0.5,3.2,2.1,3.7
	c2.2,0.6,4.7,1.8,7,3.4c0.1,0.1,0.2,0.1,0.3,0.2c-1.8,0-3.3,0.5-4.1,1.6c-0.7,1.1-0.8,2.5-0.2,4.1c0,0-0.1,0-0.1-0.1
	c-2.4-1.7-4.4-3.6-5.7-5.6c-0.9-1.4-2.8-1.7-4.2-0.8c-1.4,0.9-1.7,2.8-0.8,4.2c1.7,2.6,4.2,5,7.2,7.1c4.6,3.2,9.2,4.9,12.9,4.9
	c2.9,0,5.2-1,6.6-2.9C1011.7,213.8,1008.2,206.4,1000.1,200.7z"/>
<g>
	<path fill="#FFFFFF" d="M1107.9,130.8c8,18,14.5,33.6,17.5,53c3,19.5,1.5,40.1-7.6,57.6c-1.4,2.7-3,5.3-5.4,7.1
		c-2.4,1.8-5.8,2.5-8.5,1.1c-1.8-1-3-2.8-4.2-4.5c-10.6-16.2-21.2-32.5-27.8-50.6c3.8,2.2,9,1.8,12.4-1c3.4-2.8,4.8-7.8,3.4-12
		c15.8,3.2,20.7-10.7,21-15c0.9-16.4-1.6-27.9-5.2-42.3L1107.9,130.8z"/>
</g>
<g>
	<path fill="#FFFFFF" d="M1146.3,374.6c0,0,62.6,20.3,103.9,57.6c41.3,37.4,82.2,115.3,92.2,170.4l3.2,3.6l147-126.3
		c0,0,4.6,13.2,24.9,32.7c8.4,8.1,30.2,21.7,30.2,21.7s-9.4,14.3-16.4,23.8c-4.1,5.6,10.3,7.1,10.3,7.1l-59.1,86.5
		c0,0-63,80.8-79,93.6c-16,12.8-58.4,45.9-93.6,29.2c-35.2-16.7-74-66.2-74-66.2l-28.6,124.5l-5.6,14.8l40.5,252l104.3,628.7
		l-37.7-5l-84.4-9.5l-73.6-206.1c0,0-42.7-123.1-59.8-185c-17.1-61.9-45.5-159.4-45.5-159.4l3.6,142.3l5.7,392.2l-82.5,14.1
		l-27.8,5.7L901.2,1510l-54.8-283.9c0,0-30.6-213.5-30.6-268.3s6.4-137.3,6.4-137.3l22.1-172.2c0,0-88.2,77.6-133.1,79.7
		c-44.8,2.1-65.5-9.3-116.7-93.9c-51.2-84.7-79-162.3-79-162.3s12-2.1,26-8.8L526,432.4l37.4-16.5l25.4-24.6l128.9,165.1
		c0,0,17.1-49.1,69-109.6s133.1-84.7,189.3-85.4l26.3-16.4l53.4,29.2l47-27.8L1146.3,374.6z"/>
</g>
<g>
	<path fill="#1A1A1A" d="M1056.5,374.8L994,425.8c0,0,16.5,41.6,27.2,53.9c10.7,12.3,33.6,41.8,33.6,41.8s23.5-16.7,38.4-39.1
		c14.9-22.4,26-45.2,26-45.2L1056.5,374.8z"/>
</g>
<g>
	<path fill="#FECE2F" d="M1201.9,847.7c0,0-19.1,2-58.7,7.2c-208,27-321-34.4-321-34.4s-6.4,82.6-6.4,137.3
		c0,54.8,30.6,268.3,30.6,268.3l54.8,283.9l43.4,207.8l27.8-5.7l82.5-14.1l-5.7-392.2l-3.6-142.3c0,0,28.5,97.5,45.5,159.4
		c17.1,61.9,59.8,185,59.8,185l73.6,206.1l84.4,9.5l37.7,5l-104.3-628.7L1201.9,847.7z"/>
</g>
<g>
	<path fill="#FFFFFF" d="M1178.7,1165.6c12.2,41.9,23.2,84.1,33.8,126.4c10.5,42.3,20.6,84.7,30.2,127.3
		c9.6,42.5,18.8,85.1,27.5,127.9c8.6,42.7,16.9,85.6,23.8,128.7c-12.2-41.9-23.2-84.1-33.8-126.4c-10.5-42.3-20.6-84.7-30.2-127.3
		c-9.6-42.5-18.8-85.1-27.5-127.9C1193.9,1251.5,1185.7,1208.7,1178.7,1165.6z"/>
</g>
<g>
	<path fill="#FECE2F" d="M605.8,412.7c0,0-21.5,10.2,11.8,58.5c120.2,174.5,146.9,130.2,146.9,130.2L605.8,412.7z"/>
</g>
<g>
	<path fill="#FECE2F" d="M1290.8,640.4c0,0,21.9,22.4,77.4-19.6c168.9-127.9,123.1-136.1,123.1-136.1L1290.8,640.4z"/>
</g>
<g>
	<path fill="#FECE2F" d="M1145.1,373.2l-5.9,15.8c0,0,55.9,19.4,118.5,81.1c59.7,58.9,69.7,153.2,69.7,153.2l16.7-16.4
		c0,0-26-97.5-63-142C1244.2,420.5,1182.6,383.5,1145.1,373.2z"/>
</g>
<g>
	<polygon fill="#FECE2F" points="1089.1,356.4 1139.2,389 1146.3,374.6 1102.4,345.9 	"/>
</g>
<g>
	<polygon fill="#FECE2F" points="977.7,372.5 1011.7,351.1 1002.6,343.3 975.9,360 	"/>
</g>
<g>
	<path fill="#FECE2F" d="M733.9,572.1c0,0,40.2-80.5,91.8-124.2c88.6-75.1,151.9-75.4,151.9-75.4l-1.8-11c0,0-89.4,0.5-150.9,50.5
		c-19.2,15.7-96.1,91.8-108.9,142.3L733.9,572.1z"/>
</g>
<polygon fill="#FECE2F" points="1070.8,415.6 1081.3,396.4 1056.7,370.6 1026.6,396.8 1036.5,415.2 1021.8,483.9 1054.5,526 
	1084,498.9 "/>
<g>
	<polygon fill="#FFFFFF" points="1228.5,742.9 1252.5,835 1241.3,829 1208.2,827.4 	"/>
	<path fill="#1A1A1A" d="M1252.5,838c-0.5,0-1-0.1-1.4-0.4l-10.6-5.7l-32.5-1.6c-0.9,0-1.7-0.5-2.3-1.2c-0.5-0.7-0.7-1.6-0.5-2.5
		l20.3-84.5c0.3-1.3,1.5-2.3,2.9-2.3c1.4,0,2.6,0.9,2.9,2.2l24,92.2c0.3,1.2-0.1,2.4-1.1,3.1C1253.8,837.8,1253.2,838,1252.5,838z
		 M1212,824.6l29.5,1.4c0.4,0,0.9,0.1,1.3,0.4l5.1,2.8l-19.2-73.9L1212,824.6z"/>
</g>
<line fill="#1A1A1A" x1="523.3" y1="431.5" x2="540.4" y2="463.5"/>
<g>
	<path fill="#1A1A1A" d="M1548.6,535.5c-0.6,0-1.3-0.2-1.8-0.6c-1.3-1-1.5-2.8-0.6-4.1c0.4-1.9-3.4-8.5-5.2-10.4
		c-1-0.7-1.5-2.1-1.1-3.4c0.5-1.6,2.2-2.4,3.8-1.9c2.5,0.8,6.9,8.6,7.9,12.1c0.9,3,0.7,5.4-0.6,7.1
		C1550.4,535.1,1549.5,535.5,1548.6,535.5z M1541.8,520.8C1541.8,520.8,1541.8,520.8,1541.8,520.8
		C1541.8,520.8,1541.8,520.8,1541.8,520.8z M1541.8,520.8C1541.8,520.8,1541.8,520.8,1541.8,520.8
		C1541.8,520.8,1541.8,520.8,1541.8,520.8z"/>
</g>
<path fill="#1A1A1A" d="M1060.5,903.7l-9.1-49.3c-0.1-0.4-0.2-0.8-0.4-1.1c-0.8-1.2-80.3-122.9-117.1-248.3
	c-22-74.8-30.6-133.1-34-168.8c-3.7-38.7-2.2-59.9-2.2-60.2c0.1-1-0.4-2-1.2-2.6c-0.3-0.2-8.5-6-21.7,0c-13,5.9-15,15.6-15.1,16.1
	c0,0.1,0,0.3,0,0.5c0,1.1-3.2,112.4,43.4,260.1c24.4,77.3,64.5,142.9,93.8,184.2c31.8,44.8,58.2,71.8,58.5,72.1
	c0.6,0.6,1.4,0.9,2.1,0.9c0.5,0,0.9-0.1,1.4-0.3C1060.1,906.3,1060.8,905,1060.5,903.7z"/>
<path fill="#1A1A1A" d="M1398,1831.7c0.9,0,1.7-0.1,2.6-0.2c3.3-0.6,7.8-2.6,10.5-9c1.3-3.2,1.2-6.4-0.2-9.6
	c-1.9-4.2-6.4-8.3-13.4-12.1c6.8-0.1,13-1.7,18-5.5c5.1-3.8,7.5-11.4,5.7-18.4c-3.5-13.4-18.5-16.8-24.8-17.6
	c-23.4-3.1-60.5,3-70.9,4.9l-10.7-36.5l31.4,3.7c0.1,0,0.2,0,0.4,0c0.8,0,1.6-0.3,2.2-0.9c0.7-0.7,0.9-1.6,0.8-2.6l-144.4-880.7
	c-0.3-1.6-1.8-2.7-3.4-2.5c-1.6,0.3-2.7,1.8-2.5,3.4l143.8,876.8l-84.4-10l-239-770.9c0-0.1-0.1-0.2-0.1-0.3c0-0.1,0-0.1-0.1-0.2
	c-0.1-0.1-0.1-0.2-0.2-0.3c-0.1-0.2-0.3-0.4-0.4-0.5c0,0,0,0,0,0c-0.1-0.1-0.2-0.2-0.4-0.3c0,0,0,0,0,0c-0.1-0.1-0.3-0.2-0.4-0.2
	c0,0,0,0,0,0c-0.1-0.1-0.3-0.1-0.4-0.1c0,0-0.1,0-0.1,0c-0.1,0-0.3-0.1-0.4-0.1c-0.1,0-0.2,0-0.3,0c-0.1,0-0.1,0-0.2,0l-91.8,5
	c-1.7,0.1-2.9,1.5-2.8,3.2c0.1,1.6,1.4,2.8,3,2.8c0.1,0,0.1,0,0.2,0l20.8-1.1c-0.1,5.6,0.8,27.3,17.3,47.2c2.6,3.2,5.4,6.4,8.1,9.5
	c16.1,18.4,31.3,35.9,27,62.3c-1.3,7.7-3.1,15.5-4.8,23.1c-5.7,24.5-11.5,49.9,0.3,74.8c4.3,9.1,10.4,18.4,16.7,28.1
	c15.9,24.3,33.9,51.9,36.2,92l1.7,130.3c-6.8-8.8-19.5-24.9-34-43c-21.9-27.3-34.9-41.2-45.1-41.8c-2.9-0.2-5.5,0.9-7.6,2.9
	c-12.1,12.1,1.6,38.3,13.2,51.9c2.7,3.2,5.1,5.9,7.3,8.2c7.3,8,11.3,12.5,12.9,22.3c0.5,3,0.5,6.2,0.6,9.7
	c0.2,11.6,0.5,26,17.3,43.2c6,6.2,11.7,11.1,16.6,15.4c11.6,10.1,18.9,16.5,20.1,28.7l2.4,178.8l-76.7,14.5
	c-1.2-5.3-3.2-14.1-5.9-26c-1.2-5-2.4-10.6-3.8-16.7c1.9-0.5,3.7-1.4,5.3-2.6c3.1-2.4,5.2-5.9,5.7-9.8c0.5-3.9-0.5-7.8-2.9-11
	l-5.6-7.4c-8.8-11.5-15-24.9-18.2-39l-1.3-6.1c-1-4.4-0.9-8.9,0.3-13c1.1-3.8,2.3-4.8,2.8-5.1c3.3-1.9,7.7,1.9,13.6,7.6
	c5.7,5.5,12.8,12.3,19.2,6.7c8.3-7.2,1.3-25.6-22.7-59.4c-5.1-7.2-12.4-17.3-21.7-29.9c-10.9-14.9-18.3-31.5-22-49.6
	c-12.7-61.9-23.5-118.6-32.2-168.5c-0.2-1.2,0.5-1.8,0.9-2c0.3-0.2,1.2-0.6,2.2,0c10.6,7.4,17.3,4.8,21,1.3
	c7.7-7.2,0.6-24.7-6.2-41.7c-3.7-9.3-8.4-20.8-7.2-24.3c1.2-3.5,2.3-3.5,6.5-3.1c3.8,0.3,9,0.7,14.5-3.2
	c10.5-7.5,4.6-27.3-20.5-68.1c-2.1-3.4-4.1-6.8-6.1-10.1c-22.2-37.7-34.7-80.9-36.1-124.9c-3.6-112.9,8.9-166,9.1-166.6
	c0.4-1.5-0.5-3-1.9-3.5l-36-13c0.2-1.6-0.9-3.1-2.5-3.4c-1.6-0.3-3.2,0.9-3.4,2.5c0,0,0,0.1,0,0.2c-0.7,0.5-1.1,1.3-1.2,2.1
	c0,0.3-0.7,9.5-1.5,23.7c-1.1,12.9-2.2,30.5-2.7,52.2c-0.9,20.1-1.5,41.2-1.5,59.4c0,11.6,1.4,30.5,3.6,53
	c2.1,34.8,5.6,73.6,11.4,116c25.3,186.9,112.8,588.6,113.7,592.7c0.3,1.4,1.5,2.4,2.9,2.4c0.2,0,0.4,0,0.6-0.1l25.4-4.8
	c1.6,14.6,3.6,37.4,2.9,45.1c-3-5.2-8.5-13.4-16.6-20.3c-10.2-8.6-21.2-13.1-28.1-11.4c-3.2,0.8-5.5,2.8-6.7,5.9
	c-0.9,2.4-0.8,5,0.4,7.5c1.4,2.9,4.3,5.8,8.1,8.6c-13.2-4.2-22.5-5.1-28.2-2.7c-3.1,1.3-5.2,3.6-6.1,6.7c-2.1,7.4,0.3,12.2,2.8,14.9
	c5.3,5.8,16.5,8.7,33.2,8.7c2.2,0,4.6-0.1,7-0.2c-16.5,6.5-39,14.8-68.1,24.7c-24.1,8.2-24.4,18.1-24,20.9c0.7,4.2,4.4,6.9,9.6,6.9
	l2.4,0c26.4,0.3,49,0.3,67.7,0.3c18.8,0,33.7-0.1,44.8-0.2c94.6-0.9,98.1-4.6,99.9-6.5c5.5-5.9,1.7-24.3-5.2-54
	c-2.8-12.2-5.5-23.7-6.3-31.1c-0.7-7-2.1-42-2.1-42.9l-2.4-178.5c0.1-0.3,0.1-0.6,0.1-0.9l-0.8-47.2l-2.4-180c0-0.2,0.1-0.4,0.1-0.7
	l-0.8-95.4c9.8,33.9,25.6,88.8,36.6,128.5c16.9,61.3,59.4,184,59.8,185.2l4.5,12.5c37.4,109.3,68,190.4,69.1,193.6
	c5.4,17.4,32.6,103.4,45,111.4c6.1,4,38,21.2,69.6,36.2c38.1,18.2,63,27.4,74.3,27.4c1.3,0,2.3-0.1,3.2-0.3c2.6-0.6,3.8-2.1,4.4-3.1
	c2.8-5.1,0.3-16.4-38.1-61.1C1387.2,1829.6,1393.1,1831.7,1398,1831.7z M957.5,1772.1c-4.8,0.6-10.6,1.2-16.6,1.5
	c-19.4,1-32.7-1.3-37.5-6.5c-2.1-2.3-2.6-5.3-1.5-9.2c0.4-1.4,1.2-2.2,2.6-2.8c1.1-0.4,2.7-0.8,5.3-0.8c5.5,0,15.2,1.8,32.1,8.7
	c6.8,2.7,13.1,5.7,18,8.1C959.2,1771.4,958.4,1771.8,957.5,1772.1z M952.6,1757.5c-18.8-8.1-23.6-13.7-24.9-16.3
	c-0.6-1.3-0.5-2.2-0.2-2.7c0.5-1.2,1.3-1.9,2.6-2.3c0.6-0.1,1.2-0.2,1.9-0.2c5.2,0,13.4,4,20.9,10.3c6.4,5.4,11.1,12,14,16.7
	C963,1761.7,957.9,1759.7,952.6,1757.5z M978.5,1738.4c-0.8-9.5-1.7-18.7-2.2-22.5l75.7-14.3c0.3,8,1.2,27.5,1.8,36.5L978.5,1738.4z
	 M1241.6,1756.3c-3.9-11.3-8.2-24.2-12.8-38.8l79.3,9.4l11.8,40.3L1241.6,1756.3z M1331.2,1769.3c14-2.3,44.6-6.6,64.2-4
	c14.8,2,18.8,9.1,19.8,13.2c1.4,5.2-0.7,10-3.4,12c-12.4,9.2-35.1,2.1-52-5.6C1348.1,1779.6,1337.5,1773.3,1331.2,1769.3z
	 M1349.2,1790.8c5.9,1.3,14.5,3.4,25.8,7.1c22.9,7.5,28.9,14.2,30.4,17.5c0.8,1.7,0.8,3.2,0.1,4.8c-1.3,3.2-3.2,4.9-5.9,5.3
	c-0.6,0.1-1.1,0.1-1.7,0.1c-10.3,0-27.2-13.5-40.4-25.9C1354.6,1796.7,1351.8,1793.6,1349.2,1790.8z"/>
<g>
	<circle fill="#1A1A1A" cx="1006.9" cy="723.3" r="12.2"/>
	<path fill="#1A1A1A" d="M1006.9,738.5c-8.4,0-15.2-6.8-15.2-15.2s6.8-15.2,15.2-15.2s15.2,6.8,15.2,15.2S1015.2,738.5,1006.9,738.5
		z M1006.9,714.1c-5.1,0-9.2,4.1-9.2,9.2s4.1,9.2,9.2,9.2s9.2-4.1,9.2-9.2S1011.9,714.1,1006.9,714.1z"/>
</g>
<g>
	<circle fill="#1A1A1A" cx="1009.5" cy="653.1" r="12.2"/>
	<path fill="#1A1A1A" d="M1009.5,668.3c-8.4,0-15.2-6.8-15.2-15.2s6.8-15.2,15.2-15.2s15.2,6.8,15.2,15.2S1017.9,668.3,1009.5,668.3
		z M1009.5,643.9c-5.1,0-9.2,4.1-9.2,9.2s4.1,9.2,9.2,9.2s9.2-4.1,9.2-9.2S1014.6,643.9,1009.5,643.9z"/>
</g>
<g>
	<path fill="#1A1A1A" d="M1445.8,533.7c-5.7,0-10.4,4.7-10.4,10.4c0,5.7,4.7,10.4,10.4,10.4c5.7,0,10.4-4.7,10.4-10.4
		C1456.2,538.4,1451.5,533.7,1445.8,533.7z"/>
	<path fill="#1A1A1A" d="M1468,515.1c-5.7,0-10.4,4.7-10.4,10.4s4.7,10.4,10.4,10.4s10.4-4.7,10.4-10.4S1473.7,515.1,1468,515.1z"/>
</g>
<g>
	
		<rect x="1122.3" y="548.6" transform="matrix(0.9872 0.1596 -0.1596 0.9872 104.5448 -177.5064)" fill="#FECE2F" width="70.2" height="27.1"/>
</g>
<path fill="#1A1A1A" d="M625.8,461.3c-5.7-0.4-10.7,3.9-11.1,9.6c-0.2,2.8,0.7,5.5,2.5,7.6c1.8,2.1,4.3,3.4,7.1,3.6
	c0.3,0,0.5,0,0.8,0c2.5,0,4.9-0.9,6.8-2.5c2.1-1.8,3.4-4.3,3.6-7.1C635.9,466.8,631.5,461.8,625.8,461.3z"/>
<path fill="#1A1A1A" d="M608.8,437.8c-5.8-0.4-10.7,3.9-11.1,9.6c-0.2,2.8,0.7,5.5,2.5,7.6c1.8,2.1,4.3,3.4,7.1,3.6
	c0.3,0,0.5,0,0.8,0c2.5,0,4.9-0.9,6.8-2.5c2.1-1.8,3.4-4.3,3.6-7.1C618.8,443.2,614.5,438.2,608.8,437.8z"/>
<g>
	<path fill="#1A1A1A" d="M1000.5,255.9c-0.8,0-1.5-0.3-2.1-0.8c-8.1-7.9-8.7-14.9-6.6-18.9c1.8-3.3,5.4-4.8,9.3-4
		c1.7,0.4,2.6-0.1,3.1-0.5c2.6-2,3.4-7.7,3.5-9.5c0.1-1.7,1.5-2.9,3.1-2.8c1.7,0.1,2.9,1.5,2.8,3.1c0,1-0.6,10-5.9,14
		c-2.3,1.7-5.1,2.3-8.1,1.6c-0.7-0.2-2.1-0.3-2.7,0.9c-1.1,2,0.1,6.6,5.5,11.8c1.2,1.2,1.2,3.1,0.1,4.2
		C1002,255.6,1001.2,255.9,1000.5,255.9z"/>
</g>
<ellipse transform="matrix(0.5735 -0.8192 0.8192 0.5735 253.8736 946.7731)" fill="#FFFFFF" cx="1036.2" cy="229.6" rx="6.6" ry="14"/>
<path fill="#1A1A1A" d="M1049.6,229.9c-1.7-2.9-4.5-5.8-7.9-8.2s-7.1-4-10.5-4.6c-5.5-1-8,1.3-9,2.7c-1,1.4-2.2,4.5,0.5,9.4
	c1.7,2.9,4.5,5.8,7.9,8.2c4.6,3.2,9.2,4.9,12.9,4.9c2.9,0,5.2-1,6.6-2.9C1051.2,237.9,1052.4,234.8,1049.6,229.9z M1028,226.2
	c-1-1.7-1-2.8-0.8-3c0.1-0.1,0.6-0.4,1.6-0.4c0.4,0,0.9,0,1.5,0.1c2.4,0.4,5.4,1.7,8,3.6c0.1,0.1,0.2,0.1,0.3,0.2
	c-1.8,0-3.3,0.5-4.1,1.6c-0.7,1.1-0.8,2.5-0.2,4.1c0,0-0.1,0-0.1-0.1C1031.5,230.6,1029.2,228.3,1028,226.2z"/>
<g>
	<path fill="#1A1A1A" d="M1054.4,221.4c-0.5,0-0.9-0.1-1.4-0.3c-14.3-7.3-17-23.7-17.1-24.4c-0.3-1.6,0.9-3.2,2.5-3.4
		c1.6-0.3,3.2,0.9,3.4,2.5c0,0.2,2.4,14.1,13.9,19.9c1.5,0.8,2.1,2.6,1.3,4C1056.5,220.8,1055.4,221.4,1054.4,221.4z"/>
</g>
<g>
	<path fill="#1A1A1A" d="M1005.7,198.3c-3.3,0-7.1-0.5-11.1-1.9c-1.6-0.5-2.4-2.3-1.8-3.8c0.5-1.6,2.3-2.4,3.8-1.8
		c10.2,3.6,18.5-0.1,18.6-0.2c1.5-0.7,3.3,0,4,1.5c0.7,1.5,0,3.3-1.5,4C1017.4,196.2,1012.7,198.3,1005.7,198.3z"/>
</g>
<g>
	<path fill="#1A1A1A" d="M1002.6,281.2c-1,0-2-0.5-2.6-1.4c-3.6-5.8-7.5-9.1-11.3-9.6c-4.1-0.5-7.2,2.3-7.2,2.4
		c-1.2,1.2-3.1,1.1-4.2,0c-1.2-1.2-1.1-3.1,0-4.2c0.2-0.2,5.1-4.9,12.1-4c5.8,0.7,11.1,4.9,15.7,12.3c0.9,1.4,0.4,3.3-1,4.1
		C1003.7,281,1003.1,281.2,1002.6,281.2z"/>
</g>
<path fill="#1A1A1A" d="M1126.5,181.2c-6.1-32.6-26.5-75.1-50.1-89.9c-10.7-6.7-22.4-8.6-33-5.5c-10.8,3.2-19.6,11.1-25,22.4
	c-5,10.5-6.8,25.5-7.5,32.7c-12.7-5.9-24.4-7.8-31.8-4.2c-10.1,4.9-7.7,18-6.1,23.7c-1.9,3.7-3.3,9.1-2.5,16.7
	c1.4,13,11,18,18.4,19.4c-7.6,8.9-13.6,18.4-18,28.3c-6.5,14.7-9,29.9-7.3,44c2.1,17.1,10.2,30.7,21.7,36.2c6,2.9,12.6,4,19.4,4
	c0.4,0,0.7,0,1.1,0l-7.2,35.4c-0.3,1.6,0.7,3.2,2.3,3.5c0.2,0,0.4,0.1,0.6,0.1c1.4,0,2.6-1,2.9-2.4l1.1-5.5c0.1-0.2,0.1-0.4,0.2-0.5
	l1.1-4.4c3.4-9.5,13.1-14.1,23.3-19c5.1-2.4,9.9-4.7,13.9-7.7c9.6-7,11.5-15.3,11.6-15.7c0-0.1,0-0.2,0-0.3c0,0,0-0.1,0-0.1
	c0-0.2,0-0.3,0-0.5c0,0,0-0.1,0-0.1c0-0.1,0-0.3-0.1-0.4c0-0.1,0-0.1-0.1-0.2c0-0.1-0.1-0.3-0.2-0.4c0,0,0,0,0-0.1c0,0,0,0,0,0
	c-0.1-0.2-0.2-0.3-0.3-0.4c0,0-0.1-0.1-0.1-0.1c-0.1-0.1-0.2-0.2-0.3-0.3c0,0-0.1-0.1-0.1-0.1c0,0,0,0-0.1-0.1
	c-0.1-0.1-0.2-0.1-0.3-0.2c0,0-0.1,0-0.1-0.1c-0.2-0.1-0.3-0.1-0.5-0.2c0,0-0.1,0-0.1,0c-0.1,0-0.3-0.1-0.4-0.1c-0.1,0-0.1,0-0.2,0
	c-0.1,0-0.3,0-0.4,0c0,0-0.1,0-0.1,0c-0.2,0-0.3,0.1-0.5,0.1c0,0-0.1,0-0.1,0c-0.1,0-0.3,0.1-0.4,0.2c0,0-0.1,0-0.1,0
	c-0.4,0.2-39.5,21.5-63.4,10.1c-9.5-4.5-16.5-16.6-18.3-31.5c-3.4-28.3,11.6-59.5,40.3-84c8.2,7.4,18.3,5.3,24.6,2.1
	c4,7.1,12.4,9,18.2,8.9c4.4,12.8,15.4,16.1,23,16.1c0.5,0,0.9,0,1.4-0.1c1.3,1.8,2.8,3.8,4.3,6c-2.6,2.2-10.3,9.6-11.3,21.2
	c-0.9,10.3,3.3,16,7.1,17.9c1,0.5,2,0.7,3,0.7c1.3,0,2.5-0.4,3.4-1.2c0,0,0.1,0,0.1-0.1c4.8-3.7,9.7-5.1,14.3-4.1
	c4.1,0.9,7.1,3.6,8.2,5.8c1.5,2.9,2.1,7.6,0.2,11.5c-1.6,3.4-4.9,5.6-9.6,6.6c-11.9,2.4-16.1-3.4-16.4-3.8c0-0.1-0.1-0.1-0.1-0.2
	c-0.1-0.1-0.1-0.2-0.2-0.3c-0.1-0.1-0.1-0.1-0.2-0.2c-0.1-0.1-0.1-0.1-0.2-0.2c-0.1-0.1-0.2-0.1-0.3-0.2c-0.1,0-0.2-0.1-0.2-0.1
	c-0.1,0-0.2-0.1-0.3-0.1c-0.1,0-0.2-0.1-0.3-0.1c-0.1,0-0.2,0-0.3,0c-0.1,0-0.2,0-0.3,0c-0.1,0-0.2,0-0.3,0c-0.1,0-0.2,0-0.3,0
	c-0.1,0-0.2,0-0.3,0.1c-0.1,0-0.1,0-0.2,0c0,0,0,0,0,0c-0.1,0-0.2,0.1-0.3,0.1c-0.1,0-0.2,0.1-0.3,0.1c0,0,0,0,0,0
	c-0.1,0-0.1,0.1-0.2,0.1c-0.1,0.1-0.2,0.1-0.3,0.2c-0.1,0.1-0.1,0.1-0.2,0.2c-0.1,0.1-0.1,0.1-0.2,0.2c-0.1,0.1-0.1,0.2-0.2,0.3
	c0,0.1-0.1,0.2-0.1,0.2c0,0.1-0.1,0.2-0.1,0.3c0,0.1-0.1,0.2-0.1,0.3c0,0.1,0,0.2,0,0.3c0,0.1,0,0.2,0,0.3c0,0.1,0,0.2,0,0.3
	c0,0.1,0,0.2,0,0.3c0,0.1,0,0.2,0.1,0.3c0,0.1,0,0.1,0.1,0.2l24.6,72.1c0.4,1.2,1.6,2,2.8,2c0.3,0,0.6-0.1,1-0.2
	c1.6-0.5,2.4-2.2,1.9-3.8l-21.7-63.6c2.1,0.7,4.6,1.2,7.7,1.2c2,0,4.2-0.2,6.7-0.7c8.3-1.7,12.1-6.3,13.8-9.9
	c3-6.2,1.7-12.9-0.3-16.9c-0.3-0.6-0.7-1.2-1.1-1.8C1125.5,244,1132.5,213.6,1126.5,181.2z M1015.1,161.2c-3.4-3.4-12-11-22.4-11.3
	c-5.8-0.2-11,1.4-14.9,4.6c-0.7-4.6-0.5-10.2,3.9-12.4c7.3-3.6,25.6,1,44.1,14.6c0.4,0.6,0.9,1,1.6,1.2c0.2,0.2,0.5,0.4,0.7,0.5
	C1023.1,158.6,1017.9,160.2,1015.1,161.2z M1044.8,165.3c-4.1-4.2-8.5-8.1-13-11.5c0.1-0.4,0.3-0.8,0.4-1.1c1.4-3.3,3.7-6.1,6.4-7.6
	c2.4-1.4,4.9-1.7,6.9-0.8c2,0.9,3.5,2.8,4.2,5.6c0.7,3,0.3,6.6-1.1,9.9C1047.8,161.8,1046.4,163.7,1044.8,165.3z M1049.1,169.5
	c2.1-2.1,3.8-4.6,5.1-7.5c0.5-1.3,1-2.6,1.3-3.9c7.2,4.5,25.7,17.3,36.2,37.8c11.5,22.3,10.3,36.3,7.8,43.5
	c-3.7-12.1-12.2-24.7-18.1-32.5c-0.1-0.3-0.2-0.5-0.4-0.8c-0.3-0.5-8.1-11.3-13.2-17.3C1063,182.9,1055.8,175.5,1049.1,169.5z
	 M1105.8,248.5c-0.9-0.6-1.9-1.2-3-1.6c3.9-6.5,9.9-23.4-5.7-53.7c-4.2-8.1-9.4-15.1-14.8-20.8c3.1-11.3,11.7-18,11.8-18.1
	c1.3-1,1.6-2.9,0.6-4.2c-1-1.3-2.9-1.6-4.2-0.6c-0.4,0.3-8.8,6.7-13,18.1c-9.6-9.1-18.6-14.5-21.4-16.1c-0.1-1.1-0.2-2.1-0.5-3.1
	c-1.1-4.6-3.8-8-7.6-9.7c-2-0.9-4.2-1.1-6.4-0.9c-3.7-10.5,0.5-22.4,0.5-22.6c0.6-1.6-0.3-3.3-1.8-3.8c-1.6-0.6-3.3,0.2-3.8,1.8
	c-0.2,0.6-4.9,14.1-0.6,26.6c-0.1,0-0.1,0.1-0.2,0.1c-3.8,2.2-6.9,5.8-8.8,10.3c-3.4-2.3-6.8-4.4-10.1-6.3c0.4-5,1.9-22.1,7.1-33
	c4.6-9.7,12.2-16.6,21.2-19.2c9.1-2.7,18.8-1,28.2,4.9c19.9,12.4,40.8,50.1,47.4,85.9c2.9,15.8,2.7,31.6-0.6,44.4
	C1117,238,1111.9,245.9,1105.8,248.5z"/>
<path fill="#FFFFFF" d="M1070.5,412.5h-32.4c-1.7,0-3,1.3-3,3s1.3,3,3,3h32.4c1.7,0,3-1.3,3-3S1072.2,412.5,1070.5,412.5z"/>
<path fill="#1A1A1A" d="M1655.9,486.2c-5.3-3.5-21.9-4.2-40-4.7c-3.6-0.1-6.4-0.2-7.9-0.3c-2.4-0.2-7.8-4-13-8.1
	c9.1-1,20.4-3.2,22.3-8.1c0.4-1.1,0.8-3.4-1.5-5.8c-6.5-6.8-42.7-6.8-53.6-6.7c-0.1,0-0.3,0-0.4,0c-10.5-2.8-23.2-3.3-35.9,1.3
	c-17.6,6.4-33.7,22.1-35.2,23.6l-144.9,124.1c-2.3-8.4-7.6-27-15.7-49l-1.6-5.2c-0.2-0.5-0.4-0.9-0.8-1.2
	c-10.7-28-25.6-60.1-44.2-83c-43.2-53.2-95-74.9-96.7-75.6c0,0,0,0,0,0l-40.3-17l-42.5-27.6c-1-0.6-2.3-0.6-3.3,0l-44.4,28.4
	l-53.4-29c-0.9-0.5-2-0.5-3,0.1l-25,14.8c-41.5,2.1-81,12.9-117.4,32.2c-31.6,16.7-60.6,39.9-83.9,67c-17,19.8-30,39.1-39.5,55.2
	c-0.3,0.3-0.6,0.6-0.7,0.9l-1,2.1c-9.3,16-15,28.6-17.6,34.8L608.3,411c-0.1-0.1-0.1-0.2-0.2-0.3l-16.3-21.2
	c-1.2-3.6-8.4-22.4-31.2-34c-11.5-5.8-22.5-7.2-31.9-6.8c-2.3-0.4-13.6-2.4-25.4-3.9c-27.6-3.6-30.7-1.3-32.2-0.2
	c-1,0.7-1.6,1.7-1.7,2.9c-0.5,4.1,3.5,7.9,12.9,12.1c2.2,1,4.3,1.8,6.2,2.6c-5.7,2.7-11.9,4.8-17.4,4.1c-2.8-0.4-6.8-1.2-11.4-2.2
	c-18.8-3.9-33.6-6.5-39.5-2.1c-1.6,1.2-2.5,2.9-2.7,4.9c-0.1,1.4,0.7,2.6,2,3l49.1,17.1c0.4,0.1,0.7,0.2,1.1,0.2
	c20.5-0.9,43.5-0.9,47.6,0.6c1.8,2.8,7.5,16.3,12.5,29c-9.6,8.9-10.5,12.4-9.9,14.8c0.2,0.8,0.6,1.5,1.2,2l4.4,8.3c0,0,0,0,0,0
	c-2.7,2.8-16,17.4-15.6,26.4c0.1,1.9,0.8,3.6,1.9,4.8c2.2,4.8,20,43.1,41.4,86.2c20.7,41.6,37.9,74,51.5,96.8l0.7,1.3
	c0.1,0.3,0.3,0.5,0.6,0.7c6,10,11.4,18.1,15.9,24.2c18.3,24.6,34.4,38.6,52.3,45.5c8.2,3.1,16.7,4.7,25.7,4.7c14.9,0,31.2-4.3,49-13
	c33.1-16.1,67.2-43.6,90.9-64.7l-20,165.4c-0.1,1.2,0.4,2.3,1.4,2.9c1.2,0.7,30.5,18,92.3,30.2c30.8,6.1,73.3,11.4,127.4,11.4
	c45.6,0,99.4-3.8,161.5-14c0,0,0,0,0,0c0.2,0,0.4-0.1,0.5-0.1c0.1,0,0.1-0.1,0.2-0.1c0.1,0,0.2-0.1,0.3-0.2c0.1,0,0.1-0.1,0.2-0.1
	c0.1-0.1,0.2-0.1,0.3-0.2c0.1,0,0.1-0.1,0.2-0.1c0.1-0.1,0.2-0.2,0.2-0.3c0,0,0.1-0.1,0.1-0.1c0.1-0.1,0.2-0.3,0.2-0.4
	c0,0,0-0.1,0-0.1c0.1-0.2,0.1-0.3,0.2-0.5l0,0c0,0,0,0,0,0l33.8-132.4c11.4,13.8,45.7,53,74.2,63c7.9,2.7,15.3,4.1,22.5,4.1
	c25.2,0,48-16,78.7-44.2c16.3-15,43.4-48.3,80.4-99c26.8-36.7,49.4-69.7,50.8-71.7c1.8-2.1,2.8-4.6,2.7-7.4
	c-0.2-5.4-4.1-10.5-6.4-12.9l9.6-13.7c0.7-1,0.9-2.4,0.3-3.4c0.6-1.7,0.5-5.7-6.7-15.9c7.3-11.1,14.5-20.7,17.1-21.4
	c2.6-0.4,17.9,2.8,37.3,7.9c1.2,0.3,2.4,0.5,3.7,0.4l57-2.1c1.3,0,2.4-0.9,2.8-2.2C1662.7,497,1663.9,491.6,1655.9,486.2z
	 M1611.4,463.1c-2.5,1.8-12.3,3.8-22.1,4.5c-0.3,0-0.5,0.1-0.7,0.2c-4.6-3.7-8.9-7.2-11.9-9.1c0,0-0.1-0.1-0.1-0.1
	C1592.9,459,1608.3,460.6,1611.4,463.1z M1147,377.2l35.1,14.8c-7.5,27.9-19.6,69.2-23.9,74.9c-3.6,4.8-16.1,4.7-24.4,4.7
	c-4.5,0-7.8,0-9.8,0.6c-4.7,1.4-5.3,7.9-1.9,21.7c0.8,3.1-0.6,6.3-3.3,8c-17.8,10.7-34.2,14.7-44.7,16.2c-3.9,0.5-7.3,0.8-10.1,0.9
	c21.8-16.6,42.1-44.8,60.5-84C1136.7,408.9,1144.4,385.5,1147,377.2z M1102.4,349l39.2,25.5c-2.2,7.1-9.9,31-22.7,58.1l-57.6-57.3
	L1102.4,349z M1116.1,438.3c-14.6,29.8-35.1,62.1-60.8,79.4c-6.3-6.7-29.3-32.7-49-71.7c-3.3-6.5-6.2-12.9-8.8-19.2l58.8-48
	L1116.1,438.3z M1001.6,348.3l49.6,26.9L995.2,421c-11.3-29.1-15.2-52.7-16.1-59.4L1001.6,348.3z M943,366.6
	c10-1.7,20.1-2.8,30.3-3.4c1.5,10.2,7.7,46.1,27.7,85.5c18.1,35.9,39.1,61,47.7,70.6c-32.7,2.3-78.8-23.6-81.8-28.8
	c-0.8-2.5,4.7-13.6,7.7-19.5c4.8-9.7,7.5-15.3,6.9-18.8c-0.2-1.2-0.9-2.3-2-3c-3.3-2.2-9.6-0.8-20.3,1.9c-5.3,1.3-13.1,3.2-15.7,2.8
	C940.6,447.5,941,405.5,943,366.6z M555.3,424.2c17.8-9.8,29.1-22.4,33.8-28.3l12.8,16.6c-12.8,13.6-31.6,28.7-50.6,40.6
	c-3.6,2.3-6.9,4.2-9.9,5.9l-13-24.4C533.4,434.1,541.9,431.6,555.3,424.2z M476.2,349.2c2.6-0.4,9.5-0.5,26.9,1.7
	c2.6,0.3,5.2,0.7,7.7,1.1c-2.5,0.7-4.5,1.5-5.9,2c-2.4,0.9-5.3,2.4-8.6,4.2c-0.2,0.1-0.3,0.2-0.5,0.3
	C487.1,355.7,478.7,351.6,476.2,349.2z M493.4,380.6c-10.5,0.1-20.9,0.5-23.4,0.6l-43.9-15.3c6.8-1.2,23,2.1,32.3,4.1
	c4.7,1,8.8,1.8,11.8,2.3c10.1,1.4,20.5-4.2,28.9-8.8c3.1-1.7,5.7-3.1,7.8-3.8c4.1-1.5,11.7-4.2,21.3-4.8c0.4,0.1,0.9,0,1.3-0.1
	c8.4-0.4,18.2,1,28.5,6.2c18.9,9.6,26.1,25,27.9,29.6c-3.1,4.1-14.5,18-33.3,28.5c-5.3,2.9-9.6,5-13.3,6.4l-3.1-8.7c0,0,0,0,0,0
	c0,0,0,0,0,0c-1.9-4.8-11.3-29.1-14.3-32.8C520.6,382.3,519,380.4,493.4,380.6z M1507.8,611c-0.5,0.1-1,0.4-1.4,0.8
	c-0.4,0.4-35.9,37.6-66.9,52.7c-9.5,4.7-18.7,8.7-26.8,12.2c-22.8,10-39.3,17.2-44,30c-2.3,6.2-0.7,10,1.1,12.2
	c3.1,3.7,9.1,5.1,16.5,3.8c2.7-0.5,5.2-1,7.4-1.5c8.3-1.8,11.6-2.3,13.1,0.4c0.8,1.4,0.8,3.1,0,4.9c-2.3,5.6-10.6,11.5-21.3,14.8
	c-3.4,1.1-6.9,2-10.3,3c-15,4.2-29.3,8.1-30.2,19.4c-0.4,4.7,1.3,8.6,5,11.3c-11.4,3.1-22.7,2.7-35.1-1.6
	c-32.4-11.3-74.9-65.2-75.3-65.7c0,0,0,0,0,0c0,0,0,0,0,0c-0.1-0.2-14-16.8-24.8-31.2c-15.7-20.7-25.7-21.4-28.5-21.2
	c-2.2,0.2-5.3,1.3-7.2,5.3c-4.8,9.8,6.9,26.3,18.2,42.2c5.2,7.4,12.4,17.5,12.1,20.3c-0.3,2.3-1,6.2-1.9,10.8
	c-3.7,18.8-6.5,34.9-2.3,42.3c3.5,6.2,6.8,9.1,9.4,10.6l-14.9,58.5c-133.6,21.9-228.4,13.4-284.4,2.5c-46.4-9.1-77.5-22.1-89.1-28.6
	l10.1-83.5c2.2,1.4,5.3,2.6,9.8,2.8c0.3,0,0.5,0,0.8,0c13.3,0,18.6-19.2,22.7-50.1c4.1-30.3,2.4-64.8,2.4-65.1c0-0.2,0-0.3-0.1-0.5
	c0,0,0-0.1,0-0.1c0-0.1-0.1-0.3-0.1-0.4c0-0.1,0-0.1-0.1-0.2c-0.1-0.1-0.1-0.2-0.2-0.4c0,0,0-0.1-0.1-0.1c-0.1-0.1-0.2-0.3-0.3-0.4
	c0,0,0,0,0,0c0,0,0,0-0.1-0.1c-0.1-0.1-0.2-0.2-0.3-0.3c0,0-0.1-0.1-0.1-0.1c-0.1-0.1-0.3-0.2-0.5-0.2c0,0,0,0,0,0c0,0,0,0-0.1,0
	c-0.1-0.1-0.3-0.1-0.4-0.1c-0.1,0-0.1,0-0.2,0c-0.1,0-0.3,0-0.4,0c0,0-0.1,0-0.1,0c-0.2,0-0.3,0-0.5,0.1c0,0,0,0,0,0
	c-0.2,0-0.3,0.1-0.4,0.1c0,0-0.1,0-0.1,0.1c-0.1,0.1-0.2,0.1-0.4,0.2c0,0-0.1,0-0.1,0.1c-0.1,0.1-0.3,0.2-0.4,0.3L856,631.5
	c-20.1,19.4-66,61.3-109.9,82.7c-56.8,27.6-88.9,5.8-119.6-35.4c-3.9-5.2-8.3-11.9-13-19.6c4.4-0.4,8.2-2.1,10.8-4.9
	c2.8-3,3.9-7.1,2.9-11.1c-1.7-6.9-8.7-13.5-15.4-19.9c-5.8-5.5-12.9-12.3-11.2-15.2c0.3-0.5,0.6-0.7,1.2-0.9
	c4.5-1,15.5,6.4,22.8,11.3c5.6,3.8,10,6.7,13.1,7.7c4.3,1.3,9.5-0.3,13.5-4.1c4.2-4,6-9.5,4.8-14.2c-3.1-12.4-22.6-24.2-52.2-42.2
	c-29.4-17.9-59.3-39.5-59.6-39.7c-0.3-0.2-0.7-0.4-1.1-0.5c-11.3-23.3-20.1-42.1-24-50.5c8.7-1.2,22.5-8.7,33.9-15.7
	c19.7-12.2,39.1-27.6,52.6-41.8l108.2,140.6c0.3,0.4,0.7,0.7,1.1,0.9c2.6,4,8,12.1,14.2,20.2c12.3,15.9,21.7,23.7,28.6,23.9
	c0.2,0,0.3,0,0.5,0c6,0,8.8-2.8,10.2-5.2c4-7.1-0.7-19-3.6-23.6c-1-1.6-2.4-3.3-3.8-5.2c-4.8-6.1-10.8-13.7-8.3-21.7l0.2-0.7
	c2.1-6.5,6.2-19.8-12.7-33.5c9.3-15.5,21.8-33.9,38-52.8c22.8-26.6,51.2-49.3,82.2-65.6c24.2-12.8,49.9-21.8,76.6-26.9
	c-0.4,7.3-1.1,24.4-1.4,41.6c-0.8,47.5,2.4,48.9,5,50c3.6,1.5,9.9,0.1,20-2.4c4.7-1.1,12.1-3,15-2.8c-0.6,2.8-4,9.6-6.3,14.2
	c-6.1,12.3-9.7,20.1-7.9,24.5c3.4,8.1,49.6,32.6,83.6,32.6c2.3,0,4.5-0.1,6.6-0.4l-1.6,16.6c-0.1,0.3-0.2,0.5-0.2,0.8l-0.6,6.4
	c-1.2,9.7-3.8,15.7-6.2,21.5c-2.2,5.3-4.3,10.3-5,17.1c-1,9.5,0,17.4,1,25.8c1,8,2.1,16.9,1.6,28.8l-1,10.6
	c-0.7,5.5-1.9,13.2-3.9,18.6c-1.8,4.7-3.1,7.7-4.1,9.9c-2.1,4.8-2.9,6.5-3.8,13.8c-0.6,4.7,0.5,9.4,1.7,14.8
	c1.5,6.3,3.1,13.5,2.6,23c-0.2,1.2-1.6,9.6-5,18c-3.2,7.8-2.4,17-1.7,26.7c0.5,5.9,1,12,0.7,18.3l-0.6,6.5c0,0.3,0,0.7,0.1,1
	l-5.6,56.5c-0.2,1.6,1.1,3.1,2.7,3.3c0.1,0,0.2,0,0.3,0c1.5,0,2.8-1.2,3-2.7l18.5-193.5l1.3-13.5c0,0,0-0.1,0-0.1
	c0.1-0.3,0.2-0.6,0.3-1c0.1-1.4,0.3-2.7,0.4-4l5.6-61.7l5.8-61.6c1.1,0.1,2.5,0.1,4.2,0.1c11.2,0,34.1-2.3,60.1-17.9
	c5-3,7.4-8.9,6-14.5c-2.5-10.2-2-13.7-1.8-14.6c1.5-0.3,4.6-0.3,7.7-0.2c10,0,23.8,0,29.2-7.1c6-7.9,20.6-60.9,24.7-76.1
	c11.7,5.4,54.6,27.3,91.2,72.5c18.2,22.4,32.9,54.6,42.8,80.2c-10.7,7.4-14.7,25.3-12.1,39.1c1.7,8.7-4.5,15.1-11,22
	c-3.1,3.3-6.4,6.7-8.6,10.4c-4.3,7.1-5,14.5-1.8,19.3c1.4,2,4.5,5.1,11,5.1c1.1,0,2.4-0.1,3.7-0.3c14.3-2.2,39.9-29.8,43.3-33.5
	l127.2-109c2.4,5.4,9.9,20.6,27,39.4c15.9,17.5,30.9,25.4,37.6,28.2C1533.6,574.4,1522.2,590.8,1507.8,611z M1528.5,555.8
	c-6.7-4.3-15-10.8-23.6-20.3c-19.6-21.6-26.2-38.5-26.6-39.5l13.6-11.6c3.2,5.7,11.1,17.8,26.6,32.4c12.3,11.5,20.1,16.1,24.9,17.8
	L1528.5,555.8z M1602.5,495.8c-0.7,0-1.3,0-1.9-0.2c-15.9-4.1-35.8-8.9-40.1-7.9c-6.9,1.5-20.4,22.8-27.1,34
	c-3-2.3-6.6-5.3-10.8-9.2c-16.1-15.1-23.7-27.6-26.1-32.1c4.4-4.1,17.7-15.8,31.5-20.8c17.6-6.4,35-2,45.5,4.3
	c2.8,1.7,7,5.1,11.5,8.8c10.5,8.6,17.7,14.2,22.7,14.6c1.6,0.1,4.5,0.2,8.2,0.3c9.8,0.3,32.6,0.9,36.8,3.7c1.5,1,2.4,1.9,3,2.7
	L1602.5,495.8z"/>
<g>
	<g>
		<g>
			<rect x="369.6" y="1226.4" fill="#FECE2F" width="38.4" height="467.6"/>
		</g>
	</g>
	<path fill="#1A1A1A" d="M416.9,1176.1h-17.4h-27.8c-1.7,0-3,1.3-3,3v100.7v544.1c0,1.7,1.3,3,3,3h27.8c1.7,0,3-1.3,3-3V1796h11.1
		v27.8c0,1.7,1.3,3,3,3s3-1.3,3-3v-46.3v-141.7l0.4-456.8C419.9,1177.5,418.6,1176.1,416.9,1176.1z M396.5,1820.9h-21.8v-40.3h21.8
		V1820.9z M396.5,1651.6l-21.8,21.6v-391.9l21.8-15.2V1651.6z"/>
	<g>
		<path fill="#FECE2F" d="M445.4,1773c-12.9,18.2-16.8,32.7-17.6,42.7h52.4c0,0-0.8-17.2,10.7-42.3c21-45.9,89.3-84.7,89.3-84.7
			C492,1705,466.6,1743.2,445.4,1773z"/>
	</g>
	<g>
		<g>
			<path fill="#FFFFFF" d="M486.3,1179.2H190.8v-125.7c0-51.7,41.9-93.7,93.7-93.7h0h295.1"/>
		</g>
	</g>
	<path fill="#FECE2F" d="M581.5,960l0-0.1h-4.6l0,0H286.4c-26.9,0-51.2,11.4-68.3,29.6h290.5c-15.7,16.8-25.4,39.3-25.4,64.1v43.2
		c-7.8,0.4-40.2,1.8-59.4-1.7c-21.9-4-17.9-21.1-34.2-21.6c-16.3-0.5-40.3,8.5-59.5,12.5c-19.2,4-22.1-7.2-29.4-13.6
		c-10.9-9.6-35-2.7-62.7,7.5c-26.3,9.6-45.4,19.7-45.4,19.7l0,50.7h290.5v29h187.3v-125.7C670.6,1003.3,631.1,962.4,581.5,960z"/>
	<g>
		<path fill="#FECE2F" d="M237.2,1678c0,0,107.5,32,129.5,131.7l-46.3,0.7c0,0-6.4-41.3-29.2-78.3C270.3,1698,237.2,1678,237.2,1678
			z"/>
	</g>
	<g>
		<g>
			<path fill="#FECE2F" d="M529.7,1665.9c0,0-133.1,38.4-148.7,159.4l56.9-2.8c0,0-3.8-27.6,19.2-70.5
				C477.7,1713.6,529.7,1665.9,529.7,1665.9z"/>
		</g>
		<path fill="#1A1A1A" d="M532.3,1664.4c-0.7-1.2-2.1-1.8-3.4-1.4c-1.4,0.4-34.2,10-69.4,34.8c-32.6,22.9-73.3,63.6-81.5,127.1
			c-0.1,0.9,0.2,1.8,0.8,2.4c0.6,0.6,1.4,1,2.2,1c0,0,0.1,0,0.1,0l56.9-2.8c0.8,0,1.6-0.4,2.2-1.1c0.4-0.5,0.6-1.1,0.7-1.7
			c0-0.2,0-0.4,0-0.6c0-0.2-2-16.7,7.6-43.5c0.1-0.3,0.2-0.5,0.3-0.8c0.3-0.8,0.6-1.6,0.9-2.4c0.2-0.5,0.4-1,0.6-1.4
			c0.2-0.6,0.5-1.3,0.8-1.9c0.3-0.6,0.5-1.3,0.8-1.9c0.2-0.5,0.4-1,0.7-1.6c0.3-0.7,0.7-1.5,1-2.3c0.2-0.5,0.4-0.9,0.6-1.4
			c0.4-0.8,0.8-1.7,1.2-2.5c0.2-0.4,0.4-0.8,0.6-1.2c0.4-0.9,0.9-1.8,1.4-2.8c0.2-0.4,0.4-0.7,0.5-1.1c0.7-1.3,1.3-2.6,2.1-3.9
			c0.5-0.9,1-1.8,1.5-2.7c0.1-0.2,0.2-0.3,0.3-0.5c0.5-0.9,1-1.7,1.5-2.6c0.1-0.2,0.3-0.5,0.4-0.7c0.5-0.8,1-1.7,1.6-2.5
			c0.2-0.2,0.3-0.5,0.5-0.7c0.4-0.6,0.8-1.2,1.2-1.9c0.2-0.4,0.5-0.7,0.7-1.1c0.4-0.7,0.9-1.3,1.3-2c0.3-0.5,0.7-1,1-1.5
			c0.2-0.2,0.3-0.4,0.5-0.7c0.7-1,1.5-2.1,2.2-3.1c0,0,0,0,0-0.1c23.6-32.5,58.8-65,59.2-65.4C532.8,1667.1,533,1665.6,532.3,1664.4
			z M413.2,1751.2c12.8-18,29.4-34.2,49.6-48.4c8.8-6.2,17.5-11.4,25.5-15.8c-2.5,2-5.1,4.2-7.7,6.5c-20.9,19-48.3,54-59.9,113.5
			l-4.6,13.4l-31.7,1.6C388.3,1796.4,398,1772.6,413.2,1751.2z"/>
	</g>
	<g>
		<path fill="#FECE2F" d="M306.6,1647.7c0,0,42.7,25.1,71,82.2c29.2,58.9,23,87.5,23,87.5l-33.6-2.1c0,0-5.2-59.1-14.9-87
			C335.4,1680.8,306.6,1647.7,306.6,1647.7z"/>
	</g>
	<path fill="#1A1A1A" d="M541.3,1823c-0.3,0-33.1-1.9-54.6-10.5c-13.6-5.4-29.7-10.6-46.4-8.4c-4.3,0.6-8.2,1.2-12,1.8
		c-13.4,2.2-24,3.9-39.6,0.7c-4.9-1-9.8-2.7-14.9-4.5c-15.7-5.5-33.6-11.6-62.7-1.4c-4.7,1.6-9.3,3.7-14.2,5.8
		c-15.3,6.7-32.6,14.2-62.7,16.3c-1.6,0.1-2.8,1.5-2.8,3.1c0.1,1.6,1.4,2.9,3,2.9h306.7c1.6,0,3-1.3,3-2.9
		C544.1,1824.5,542.9,1823.1,541.3,1823z"/>
	<g>
		<path fill="#1A1A1A" d="M583,1687.6c-0.5-1.4-1.9-2.2-3.4-1.9c-87.6,16.2-114.1,53.6-135.4,83.6l-1.4,1.9
			c-13.7,19.3-17.4,34.7-18.1,44.2c-0.1,0.8,0.2,1.7,0.8,2.3c0.6,0.6,1.4,1,2.2,1h52.4c0.2,0,0.4,0,0.6-0.1c0.1,0,0.1,0,0.2-0.1
			c0.1,0,0.2-0.1,0.4-0.1c0.1,0,0.2-0.1,0.2-0.1c0.1,0,0.2-0.1,0.3-0.2c0.1-0.1,0.2-0.1,0.2-0.2c0.1-0.1,0.1-0.1,0.2-0.2
			c0,0,0,0,0,0c0,0,0,0,0,0c0.1-0.1,0.1-0.2,0.2-0.3c0-0.1,0.1-0.1,0.1-0.2c0.1-0.1,0.1-0.2,0.2-0.3c0-0.1,0.1-0.1,0.1-0.2
			c0-0.1,0.1-0.3,0.1-0.4c0-0.1,0-0.1,0-0.2c0-0.2,0-0.4,0-0.6c0,0,0-1.1,0.1-3.1c0.3-5.9,2-19.7,10.3-37.9c0,0,0,0,0,0
			c0.4-1,0.9-1.9,1.4-2.8c0.1-0.3,0.3-0.5,0.4-0.8c0.5-0.9,0.9-1.8,1.4-2.7c0.2-0.3,0.4-0.6,0.6-1c0.3-0.6,0.7-1.1,1-1.7
			c1.1-1.8,2.2-3.6,3.4-5.3c0,0,0,0,0-0.1c26-38.1,79.2-68.6,79.8-69C583,1690.5,583.5,1689,583,1687.6z M447.8,1774.7l1.4-1.9
			c17.6-24.8,38.9-54.8,97.3-72.9c-20.1,10.7-48,29.6-66.3,59.2c-13.8,22.3-20.6,46.8-22.4,53.6h-26.7
			C432.4,1803.8,436.4,1790.8,447.8,1774.7z"/>
	</g>
	<g>
		<path fill="#1A1A1A" d="M369.7,1809c-11.6-52.4-46.8-86-74.3-105c-29.7-20.5-56.2-28.5-57.3-28.9c-1.4-0.4-3,0.3-3.6,1.7
			c-0.6,1.4-0.1,3,1.2,3.8c0.3,0.2,32.7,20,53.1,53.1c22.2,36,28.7,76.8,28.8,77.2c0,0.1,0,0.2,0.1,0.2c0,0.1,0,0.1,0.1,0.2
			c0,0.2,0.1,0.3,0.2,0.4c0,0,0,0.1,0,0.1c0.1,0.2,0.2,0.3,0.3,0.5c0,0,0,0,0,0c0,0,0.1,0.1,0.1,0.1c0.1,0.1,0.2,0.2,0.3,0.3
			c0.1,0.1,0.2,0.1,0.3,0.2c0,0,0.1,0.1,0.1,0.1c0.4,0.2,0.8,0.4,1.3,0.4c0.1,0,0.1,0,0.2,0c0,0,0,0,0,0l16.8-0.3
			c0.1,0.4,0.3,0.7,0.4,1.1c1.1,2.9,1.9,5.1,3.9,5.1c0.4,0,0.7-0.1,1.2-0.2c1.2-0.4,2.5-1.5,1.8-4.5c-0.1-0.4-0.2-0.9-0.4-1.6
			l22.6-0.3c0.9,0,1.7-0.4,2.3-1.1C369.6,1810.8,369.9,1809.9,369.7,1809z M342.3,1807c-1-3.1-2.2-7-3.7-11.8
			c-12.5-39.2-33.4-66-48.8-81.7c-8.7-8.8-16.5-15.1-22.1-19.2c7.5,3.9,15.9,8.8,24.4,14.7c25.9,17.9,58.9,49.3,70.8,97.7
			L342.3,1807z"/>
	</g>
	<g>
		<path fill="#1A1A1A" d="M380.3,1728.6c-28.4-57.3-70.4-82.4-72.2-83.5c-1.3-0.7-2.9-0.5-3.8,0.7c-0.9,1.1-0.9,2.8,0,3.9
			c0.3,0.3,28.6,33.2,44.8,79.6c7.1,20.3,11.8,57.9,13.8,76c-0.1,0.5-0.1,0.7-0.1,0.8c-0.2,0.9,0,1.7,0.5,2.4c0.5,4.3,0.7,7,0.7,7.1
			c0.1,1.5,1.3,2.6,2.8,2.7l33.6,2.1c0.1,0,0.1,0,0.2,0c1.4,0,2.6-1,2.9-2.4C403.7,1816.9,409.6,1787.8,380.3,1728.6z M397.9,1814.3
			l-15.3-1c0.9-5.5,0.7-20-8-58.1c-7.2-31.6-26.3-61.8-40.6-81.1c13.1,13.2,28.5,32.1,40.9,57.1c14.8,29.8,20.1,51.5,22.1,64.4
			C398.3,1804.9,398.2,1811.1,397.9,1814.3z"/>
	</g>
	<g>
		<path fill="#1A1A1A" d="M389.6,1006c-0.5-0.6-1.3-1-2.1-1L178.9,991c-1.5-0.1-2.9,0.9-3.1,2.4l-15.8,80.7c-0.2,0.9,0,1.8,0.6,2.4
			s1.4,1.1,2.2,1.1l42.2,1.6c0,0,0.1,0,0.1,0c0.9,0,1.7-0.4,2.2-1c0.6-0.7,0.9-1.6,0.7-2.5l-8.1-50.6l184.4,19.8
			c0.8,0.1,1.6-0.2,2.2-0.7c0.6-0.5,1-1.3,1.1-2.1l2.7-34.1C390.4,1007.4,390.1,1006.6,389.6,1006z"/>
		<g>
			<g>
				
					<ellipse transform="matrix(5.904914e-02 -0.9983 0.9983 5.904914e-02 -676.7551 1330.2177)" fill="#FECE2F" cx="367.2" cy="1024.1" rx="8.3" ry="8.3"/>
			</g>
		</g>
	</g>
	<g>
		<g>
			<path fill="#FFFFFF" d="M581.4,1076c-18.9,0-34.3-15.4-34.3-34.3c0-18.9,15.4-34.3,34.3-34.3c18.9,0,34.3,15.4,34.3,34.3
				C615.7,1060.7,600.3,1076,581.4,1076z M581.4,1013.5c-15.6,0-28.3,12.7-28.3,28.3c0,15.6,12.7,28.3,28.3,28.3
				c15.6,0,28.3-12.7,28.3-28.3C609.7,1026.2,597,1013.5,581.4,1013.5z"/>
		</g>
	</g>
	<g>
		<g>
			<circle fill="#1A1A1A" cx="581.4" cy="1012" r="15.2"/>
		</g>
	</g>
	<path fill="#1A1A1A" d="M580.1,956.9c-0.2,0-0.4-0.1-0.6-0.1H284.4c-53.3,0-96.7,43.4-96.7,96.7v125.7c0,1.7,1.3,3,3,3h0.5h291h1h3
		h27.3c0,0.2-0.1,0.5-0.1,0.7c0,3.1,2.5,5.6,5.6,5.6h27.7c3.1,0,5.6-2.5,5.6-5.6c0-0.3,0-0.5-0.1-0.7h47.3c0,0.2-0.1,0.5-0.1,0.7
		c0,3.1,2.5,5.6,5.6,5.6h27.7c3.1,0,5.6-2.5,5.6-5.6c0-0.3,0-0.5-0.1-0.7h32.3c1.7,0,3-1.3,3-3v-125.7
		C673.6,1001.3,631.9,958.6,580.1,956.9z M284.4,962.9h259c-36.8,13.7-63.1,49.1-63.1,90.7v95.9H193.8v-95.9
		C193.8,1003.6,234.4,962.9,284.4,962.9z M667.6,1176.2H486.3h0v-122.7c0-50,40.7-90.7,90.7-90.7c50,0,90.7,40.7,90.7,90.7V1176.2z"
		/>
</g>
<g>
	<g>
		<path fill="#FECE2F" d="M1050.1,850.9l25.1,129.7c0,0,29.9,84.3,33.1,84.3c3.2,0,61.9,32,61.9,32l92.9-4.3l17.1-4.3
			c0,0,18.1-5.9,16.5-38.4c-1.6-32.6-21.9-120.6-21.9-120.6l32.6-4.8c0,0-12.8-41.6-27.8-60.3c-14.9-18.7-35.8-35.2-35.8-35.2
			s-72.1-1.1-104.6,4.3C1106.7,838.6,1050.1,850.9,1050.1,850.9z"/>
	</g>
	<g>
		<path fill="#FFFFFF" d="M1296.7,1049.9c-0.3-6.8-1.5-16.1-3.1-26.5c-20.3-19.4-52.6-22.5-80.2-31.3c-12.2-3.9-25.6-11-28.1-23.6
			c-2.2-10.7,4.8-21.6,14.1-27.4c9.3-5.8,20.4-7.6,31.2-9.3c-26.9-0.6-53-15.8-66.8-38.8c-7.7-12.8-10.4-28.4-7.2-43
			c1.4-6.1,4.9-12.8,7-19.5c-9.2,0.6-17.6,1.5-24.4,2.6c-32.6,5.3-89.1,17.6-89.1,17.6l25.1,129.7c0,0,29.9,84.3,33.1,84.3
			c3.2,0,61.9,32,61.9,32l92.9-4.3l17.1-4.3C1280.1,1088.4,1298.3,1082.5,1296.7,1049.9z"/>
	</g>
	<g>
		<path fill="#1A1A1A" d="M1152.7,926.6c-4.5,0-9-3.3-11-8.4c-1.1-3-1.3-6.1-0.4-8.9c1-3,3-5.3,5.7-6.3c2.7-1,5.8-0.7,8.5,0.9
			c2.5,1.5,4.6,3.9,5.7,6.9l0,0c2.4,6.4,0,13.2-5.4,15.3C1154.9,926.4,1153.8,926.6,1152.7,926.6z M1150.4,908.3
			c-0.4,0-0.7,0.1-1.1,0.2c-1.3,0.5-1.9,1.8-2.2,2.6c-0.5,1.5-0.4,3.3,0.3,5c1.2,3.2,4.2,5.2,6.5,4.3c2.3-0.9,3.1-4.3,1.9-7.5
			c-0.6-1.7-1.8-3.1-3.1-3.9C1152.1,908.7,1151.3,908.3,1150.4,908.3z"/>
	</g>
	<g>
		<path fill="#1A1A1A" d="M1274.4,913.2c-4.5,0-9-3.3-11-8.4c-2.4-6.4,0-13.2,5.4-15.3c5.4-2.1,11.8,1.4,14.2,7.8
			c2.4,6.4,0,13.2-5.4,15.3C1276.6,913,1275.5,913.2,1274.4,913.2z M1272.1,895c-0.4,0-0.8,0.1-1.1,0.2c-2.3,0.9-3.1,4.3-1.9,7.5
			c1.2,3.2,4.2,5.2,6.5,4.3c2.3-0.9,3.1-4.3,1.9-7.5C1276.4,896.8,1274.1,895,1272.1,895z"/>
	</g>
	<path fill="#1A1A1A" d="M1311.1,925c-0.4-1.3-8.9-32.5-28.6-60.4c-11.3-16-21.5-26.1-28.1-31.9c-5.4-4.6-12.2-7.2-19.3-7.1
		c-17.3,0.2-51.3,0.9-85.2,3.9c-56.1,4.9-101.6,22.2-102.6,22.6c0,0,0,0,0,0c0,0,0,0,0,0c0,0-0.1,0-0.1,0.1
		c-0.1,0.1-0.3,0.1-0.4,0.2c-0.1,0.1-0.2,0.1-0.2,0.2c-0.1,0.1-0.2,0.1-0.2,0.2c-0.1,0.1-0.1,0.2-0.2,0.2c-0.1,0.1-0.1,0.1-0.2,0.2
		c-0.1,0.1-0.1,0.2-0.2,0.3c0,0.1-0.1,0.1-0.1,0.2c0,0.1-0.1,0.2-0.1,0.3c0,0.1-0.1,0.2-0.1,0.3c0,0.2-0.1,0.3-0.1,0.5c0,0,0,0,0,0
		c0,0.2,0,0.4,0,0.6c0,0,0,0,0,0c0.1,0.4,6.1,37.3,16,80.9c12.3,54,24.8,94,37.2,119.1c0.1,0.3,0.3,0.5,0.4,0.8
		c0.2,0.4,0.4,0.8,0.6,1.2c0.2,0.4,0.4,0.9,0.7,1.3c0.1,0.3,0.3,0.6,0.4,0.8c0.4,0.7,0.8,1.4,1.1,2.1c0.8,1.5,1.6,2.9,2.4,4.3
		c0.1,0.2,0.3,0.4,0.4,0.6c0.7,1.2,1.4,2.4,2.2,3.6c0.1,0.1,0.1,0.2,0.2,0.3c22.9,36,50.3,41.9,70,41.9c5.6,0,10.7-0.5,14.7-0.9
		c0.8-0.1,1.5-0.1,2.2-0.2l1.6-0.1c15.9-1.4,57.6-5.2,82.2-17.7c0,0,0.1,0,0.1,0c0.7-0.3,1.3-0.7,2-1.1c0.1-0.1,0.2-0.1,0.3-0.2
		c0,0,0,0,0.1,0c5.3-3,9.6-6.4,12.5-10.3c8.5-11.5,8.3-41-0.5-87.4c-5.2-27.4-12-53-14.5-62.2l31-3.3c0.9-0.1,1.7-0.6,2.2-1.3
		S1311.4,925.8,1311.1,925z M1287.9,1078.1c-1.7,2.3-4,4.4-6.9,6.4c-1-4.6-3.2-8.3-6.6-11c-6-4.8-16.2-8.3-49.8-2
		c-25,4.7-43.3-3-54.5-23.1c-2.8-5.1-5.4-11.7-8.2-18.7c-7.4-18.7-15.7-39.9-32.8-39.9c-0.2,0-0.5,0-0.7,0c-10.9,0.4-14,9-16.5,15.9
		c-2.2,6-3.7,9.7-7.7,10.2c-0.2,0-0.4,0-0.6,0c-10.2,0-23.1-33.5-27.4-44.8c-13.3-50.6-22.3-102.1-24.3-114.1
		c4.1-1,12.7-2.2,17.6,2.9l46.8,97.2c0.5,1,1.6,1.7,2.7,1.7c0.1,0,0.2,0,0.3,0l155.2-15.3c3.2,12.3,7.9,31.5,11.8,51.8
		C1296.9,1051.1,1293,1071.1,1287.9,1078.1z M1274.2,926.4c-0.4-0.1-0.9-0.1-1.3,0.1c-0.1,0-0.2,0.1-0.3,0.1l-146.4,15.6
		c-6.8-11.8-45.4-78.2-52.1-85.9c0,0,0,0,0,0c-1.9-2.1-4.2-3.5-6.5-4.5c18.2-5.5,48.5-13.2,82.9-16.2c33.7-3,67.5-3.7,84.7-3.9
		c5.6-0.1,11.1,1.9,15.3,5.6c6.4,5.5,16.2,15.3,27.1,30.8c15.3,21.8,23.9,46.3,26.7,55.1L1274.2,926.4z"/>
</g>
</svg>
