<?xml version="1.0" encoding="utf-8"?>
<!-- Generator: Adobe Illustrator 21.0.0, SVG Export Plug-In . SVG Version: 6.00 Build 0)  -->
<svg version="1.1" baseProfile="tiny" id="Layer_1" xmlns="http://www.w3.org/2000/svg" xmlns:xlink="http://www.w3.org/1999/xlink"
	 x="0px" y="0px" viewBox="0 0 2000 2000" xml:space="preserve">
<path fill="#FECE2F" d="M1059.7,213.4C1591.5,4.3,2025.2,425.7,1906,905.1c-108.5,436.6,160,567-269.7,860.5
	c-380.4,259.8-1108.5,17.2-1425.5-344C-221.9,928.5,392.6,475.6,1059.7,213.4z"/>
<path fill="#1A1A1A" d="M1237.6,732.5c-1.9-7.3-9.4-11.6-16.6-9.7l0,0c-1.7,0.5-3.1,0.9-4.7,1.3l-4.5,1.3c-3,0.9-6,1.8-8.9,2.8
	c-5.9,1.9-11.8,3.9-17.6,6c-11.7,4.2-23.3,8.6-34.7,13.5c-22.8,9.8-45.1,21-66,34.9c-10.4,7-20.4,14.7-29.6,23.4
	c-9.2,8.8-17.6,18.6-23.8,30c-3.1,5.7-5.5,11.7-7.4,17.8c-1.9,6.1-3.2,12.3-4,18.6c-0.8,6.3-1.2,12.5-1.1,18.8
	c0,3.1,0.2,6.2,0.5,9.4c0.2,2.7,0.5,5.3,1,8.1c-2.7,0.8-5.2,2.3-7.2,4.5c-2.6,3-4,6.8-3.7,10.8c0.4,7.3,7.1,23.9,16,23.9
	c0.1,0,0.3,0,0.4,0c4.2-0.3,7.8-4,10.5-10.9c2-5,3.1-11,2.9-14.9c-0.2-4-2-7.6-5-10.3c-2.2-2-4.9-3.2-7.8-3.6
	c-0.2-2.6-0.3-5.3-0.4-8c0-3,0.1-5.9,0.3-8.9c0.4-5.9,1.2-11.7,2.4-17.5c1.2-5.7,2.9-11.3,5-16.7c2.2-5.4,4.7-10.5,7.8-15.3
	c3.1-4.7,6.7-9.2,10.6-13.4c3.9-4.2,8.2-8.1,12.7-11.8c9-7.4,18.8-13.9,29-19.8c20.5-11.7,42.5-20.9,65-28.7
	c11.3-3.9,22.7-7.4,34.1-10.6c5.7-1.6,11.5-3.1,17.3-4.5c2.9-0.7,5.8-1.4,8.7-2l4.3-1c1.4-0.3,2.9-0.6,4.2-0.9
	c0.3-0.1,0.6-0.1,1-0.2C1235.2,747.2,1239.5,739.8,1237.6,732.5z"/>
<g>
	<path fill="#FFFFFF" d="M1865.1,622c-9.7-5-115.3-59-115.3-59s-59.7-33.3-79.7-32c-20,1.3-32.3,17.7-19,34.7
		c13.3,17,27.3,15.3,27.3,15.3l-54.7,16l-94.7,30.7l-184.7,59l-136,42c0,0-20,16.5-28,37s-83,162-83,162l-62,128l51-1
		c0,0-4-17,1.5-31c5.5-14,36.5-49,36.5-49s17.5,10,30.5-7.5s-1-24-1-24l40.5-27.5l23-4.5c0,0,28.5,13,127,14.5s183-26,183-26
		l13.2-4.2c0,0,7.8,47.7-1.2,70.2s-6,41.5-39,89h43.7l3-24.3l50.4-92.9c0,0,16,2.7,23.5-15.3s-3.6-21.6-3.6-21.6l13.6-26.4l74.2-5.8
		l-41.2,72.3l-20.3,39.7l-18.5,22.7l35.7,20.7l7.3-27.3c0,0,26.5-50.3,37.7-62c11.2-11.7,56.3-54.2,58-78.7s-15.5-50.2-74.4-94.3
		c0,0,22.6-57.7,28.6-81.2l26-8l103-12.5c0,0,21.3-3.9,24-22.5C1872.4,626.6,1865.1,622,1865.1,622z"/>
</g>
<g>
	<path fill="#FECE2F" d="M1705.8,934.3c11.2-11.7,56.3-54.2,58-78.7c1.7-24.5-15.5-50.2-74.4-94.3c0,0,2.9-7.5,7-18.2l-0.9-0.4
		l-18,36c0,0,41,24,57,44s18,42-6,66s-50,68-65,103l5.4,3.3C1673.2,986.7,1695.7,944.8,1705.8,934.3z"/>
</g>
<g>
	<path fill="#FECE2F" d="M1403.4,813.6c-58.3,0-105.5,47.2-105.5,105.5c0,0.8,0,1.6,0,2.4l1.9,2.4c0,0,4.7-1.3,14.4,0.7
		c9.3,0.4,19.3,0.7,30.3,0.9c70.1,1.1,133.1-12.5,163.6-20.5C1501.2,853.5,1457,813.6,1403.4,813.6z"/>
</g>
<g>
	<path fill="#FECE2F" d="M1670.1,531c-20,1.3-32.3,17.7-19,34.7c13.3,17,27.3,15.3,27.3,15.3l-54.7,16l-94.7,30.7l-184.7,59l-136,42
		c0,0-20,16.5-28,37c0,0,11.3-17.3,74-35.3s448.7-142,448.7-142l-21.3-34l180.7,66.7l-0.1-0.4c-19.2-9.9-112.6-57.6-112.6-57.6
		S1690.1,529.6,1670.1,531z"/>
</g>
<g>
	<path fill="#1A1A1A" d="M965.8,1058C965.8,1058,965.8,1058,965.8,1058l-382.7-0.7c-1.2,0-2.3-0.7-2.7-1.8c-0.5-1.1-0.3-2.3,0.5-3.2
		c0.7-0.8,18.3-20.2,39.2-23c9.4-1.3,16.6,0.1,23,1.4c7.4,1.4,13.2,2.5,20-1c2.6-1.3,5.5-3.3,8.6-5.3c13.9-9.1,32.9-21.6,58-10.1
		c17.2,7.8,24.7,15.5,29.6,20.6c3.6,3.7,5.2,5.2,7.8,5.2c2.6,0,10.1-5.2,16.7-9.8c13.7-9.6,30.7-21.5,44.9-20.1
		c10.6,1,17.3,5.1,23.2,8.8c6.5,4,12.1,7.5,22.2,6.5c3-0.3,5.6-0.6,8.1-0.9c14.6-1.6,22.7-2.6,38.9,5.9c6.4,3.3,12.3,4.8,18,6.2
		c10.1,2.5,19.6,4.9,29,16.6c0.7,0.9,0.9,2.1,0.4,3.2C968,1057.3,966.9,1058,965.8,1058z"/>
</g>
<g>
	<path fill="#FFFFFF" d="M155.4,1055.6l-9,9.5l-1.5,197l13.3,11.5h1652.1c7.8,0,14.2-6.3,14.2-14.2v-189.7c0-7.8-6.3-14.2-14.2-14.2
		H155.4z"/>
</g>
<g>
	<path fill="#1A1A1A" d="M1807.6,1276.6H161.3c-10.9,0-19.8-8.9-19.8-19.8v-184.3c0-10.9,8.9-19.8,19.8-19.8h1646.3
		c10.9,0,19.8,8.9,19.8,19.8v184.3C1827.4,1267.7,1818.5,1276.6,1807.6,1276.6z M161.3,1058.6c-7.6,0-13.8,6.2-13.8,13.8v184.3
		c0,7.6,6.2,13.8,13.8,13.8h1646.3c7.6,0,13.8-6.2,13.8-13.8v-184.3c0-7.6-6.2-13.8-13.8-13.8H161.3z"/>
</g>
<path fill="#1A1A1A" d="M1731.7,672.3l-103.1-88.7c-6.4-5.5-16.2-4.9-21.8,1.4l-0.4,0.5c-2.8,3.2-4.2,7.2-4,11.5
	c0.3,4.2,2.2,8.1,5.5,10.8l103.5,88.2c2.9,2.4,6.4,3.7,10.1,3.7c0.6,0,1.1,0,1.7-0.1c4.3-0.5,8.1-2.6,10.7-6
	C1738.9,687,1738,677.7,1731.7,672.3z"/>
<path fill="#1A1A1A" d="M1763.4,594.3c-5.6-1.4-11.1-1.8-15.5-1.2c-7.2,1-9.1,4.5-9.6,6.4c-1.8,7.1,8.6,13.7,19.7,16.5
	c3.9,1,7.8,1.5,11.3,1.5c1.5,0,2.9-0.1,4.3-0.3c7.2-1,9.1-4.5,9.6-6.4C1785,603.7,1774.6,597.1,1763.4,594.3z M1744.1,601
	c0.1-0.3,1.1-1.4,4.6-1.9c1-0.1,2.2-0.2,3.4-0.2c3,0,6.4,0.4,9.8,1.3c0.1,0,0.3,0.1,0.4,0.1c-3.4,0.6-5.7,2-6.2,4
	c-0.5,1.8,0.6,3.8,2.8,5.8C1748.5,607.3,1743.7,602.4,1744.1,601z"/>
<path fill="#1A1A1A" d="M1660.5,626.4c-1.1-2.8-4.2-4.3-7.1-3.2L884.5,912.5c-19.3,7.3-37,17.5-52.6,30.3c-0.1,0-0.1,0-0.2,0
	l-27.8,1l-27.8,0.9l-27.8,0.9c-7.2,0.2-14.4,0.5-21.6,0.5c-5.3-8.2-10.7-16.3-16.3-24.2c-13.5-19.3-27.6-38.1-42.1-56.5
	c-14.5-18.4-29.4-36.6-44.9-54.3l0,0c-0.2-0.4-0.7-0.7-1.2-0.8l-1.1-0.2l-39.3-7.3c-1.2-0.2-2.6-0.2-3.9,0
	c-5.7,1.1-9.5,6.6-8.4,12.3c1.1,5.7,6.6,9.5,12.3,8.4l38.1-7.1c14.5,17.5,28.7,35.5,42.4,53.7c14,18.7,27.6,37.7,40.5,57.1
	c5.1,7.6,10,15.3,14.8,23.1c0.1,0.3,0.3,0.6,0.5,0.8c7.2,11.8,14.1,23.7,20.4,35.9c5.3,10.3,10.1,20.7,14,31.4
	c1.9,5.3,3.6,10.7,4.8,16.1c1.2,5.4,2,10.8,2,16l0,0.1c0,0,0,0.1,0,0.1c0,1.4,0.5,2.8,1.4,3.8c0.4,1.5,1.4,2.7,2.9,3.5
	c0.8,0.4,1.6,0.5,2.4,0.5c2,0,4-1.2,5-3.1l21.1-44c19.6-41,53.9-72.4,96.4-88.4l768.9-289.4C1660.2,632.4,1661.6,629.2,1660.5,626.4
	z M782,1006.4l-12.8,26.6c-0.1-0.5-0.2-1-0.4-1.5c-1.5-6-3.5-11.8-5.6-17.4c-4.4-11.2-9.6-21.9-15.3-32.4
	c-5.5-10.2-11.5-20.1-17.6-29.9c6,0.1,11.9,0.4,17.9,0.5l27.8,0.9l27.8,0.9l14.8,0.5C803.8,969.5,791.4,987,782,1006.4z"/>
<g>
	<path fill="#FFFFFF" d="M344.4,811c0,0,20,31.3,104,38.7c0,0,25.3-29.5,37.5-69.5c12.7-41.8,11.9-94.5-5.5-110.5
		c-28.7-26.5-59,9.8-72,28C381.8,735,344.4,811,344.4,811z"/>
</g>
<path fill="#FECE2F" d="M491.9,717.5c0-2.3-0.1-4.6-0.1-6.9l-0.8-0.4l0.8-1.4c0-4.2,0-8.3,0.2-12.5l-6.1,10.9l-18.7-10.5l8.9-15.8
	c0.8-1.4,0.3-3.3-1.1-4.1c-1.4-0.8-3.3-0.3-4.1,1.1l-8.9,15.8l-18.7-10.5l10.1-17.9c0.8-1.4,0.3-3.3-1.1-4.1
	c-1.4-0.8-3.3-0.3-4.1,1.1l-10.1,17.9l-10.5-5.9c-0.1,0.1-0.2,0.3-0.3,0.4c-0.9,1.5-1.9,3-3.1,4.5l11,6.2l-10.5,18.7l-12.3-6.9
	c-0.4,0.7-0.8,1.4-1.2,2.1c-0.6,1.1-1.1,2.1-1.7,3.2l12.3,6.9L411,728.2l-12.1-6.8c-1,1.7-2.1,3.4-3.3,5.1l12.4,7l-10.5,18.7
	l-16.6-9.3c-1.3,1.1-3,2.5-3.9,3.3c-0.2,0.4-0.3,0.8-0.4,1.2l18,10.1l-10.5,18.7l-16.5-9.3c-0.7,1.9-1.4,3.8-2.2,5.7l15.7,8.8
	L370.7,800l-14.3-8.1c-1,1.8-2,3.5-3,5.2l14.4,8.1l-10.4,18.5c0,0.1,0.1,0.1,0.1,0.2c1.8,0.7,3.6,1.5,5.3,2.4l10.2-18.1l18.7,10.5
	l-9.1,16.2c1.6,0.7,3.1,1.5,4.6,2.5c0.2,0.1,0.4,0.3,0.6,0.4l9.1-16.2l18.7,10.5l-5.8,10.3c2.1,0.3,4.3,0.5,6.4,0.8l4.6-8.1
	l18.7,10.5l-0.5,0.9c0.5,0.1,1.1,0.1,1.6,0.1c0.3,0,0.6,0,0.9,0.1l0,0c0.2,0,0.4,0,0.6,0c1.2,0.1,2.3,0.2,3.5,0.2l0,0
	c1.8,0.1,3.7,0.2,5.5,0.3c0.3-0.5,0.6-1,0.9-1.5l-4.4-2.5l10.5-18.7l5.8,3.3c0.2-0.5,0.4-1,0.6-1.4c0.6-1.4,1.2-2.7,1.9-4.1l-5.4-3
	l10.5-18.7l6.6,3.7c0.1-0.1,0.2-0.3,0.3-0.4c1-1.5,2-3.1,3-4.6l-6.9-3.9l10.5-18.7l4.6,2.6c0-2.3,0.1-4.5,0.2-6.8l-1.9-1l2.1-3.6
	c0.2-4.5,0.5-9.1,0.8-13.6l-8,14.3L464.2,758l10.5-18.7l16.6,9.3c0.1-2.2,0.3-4.4,0.4-6.7l-14-7.9l10.5-18.7L491.9,717.5z
	 M440.2,688.4l18.7,10.5l-10.5,18.7l-18.7-10.5L440.2,688.4z M426.8,712.4l18.7,10.5L435,741.6l-18.7-10.5L426.8,712.4z
	 M413.3,736.3l18.7,10.5l-10.5,18.7L402.8,755L413.3,736.3z M426.8,768.5l10.5-18.7l18.7,10.5L445.5,779L426.8,768.5z M442.5,784.2
	L432,803l-18.7-10.5l10.5-18.7L442.5,784.2z M399.9,760.3l18.7,10.5l-10.5,18.7L389.4,779L399.9,760.3z M375.9,802.9l10.5-18.7
	l18.7,10.5l-10.5,18.7L375.9,802.9z M399.9,816.4l10.5-18.7l18.7,10.5l-10.5,18.7L399.9,816.4z M442.5,840.4l-18.7-10.5l10.5-18.7
	l18.7,10.5L442.5,840.4z M456,816.4l-18.7-10.5l10.5-18.7l18.7,10.5L456,816.4z M479.9,773.7l-10.5,18.7l-18.7-10.5l10.5-18.7
	L479.9,773.7z M458.9,755.1l-18.7-10.5l10.5-18.7l18.7,10.5L458.9,755.1z M472.4,731.1l-18.7-10.5l10.5-18.7l18.7,10.5L472.4,731.1z
	"/>
<g>
	<path fill="#FFFFFF" d="M490.8,689.3c8.3,43-2.7,60.7,5.3,93c4,16.3,11,40,54.3,26.7l6.7,21.3c-50,21.3-100.7,10-128.7-54.7
		c-28.1-64.9-9.3-89.3-1.7-99c4.9-6.2,21.5-18.9,40-15C481.1,664.6,489.2,681.2,490.8,689.3z"/>
</g>
<path fill="#1A1A1A" d="M509.3,637.7c0.6-4.3,4.2-7.7,8.6-8.2c5.9-0.6,10.8,4,10.8,9.7c0,0.2,0,0.4,0,0.6c4.6-2,34.1-5.7,37.1-18.7
	c1-4.5-4.7-17.8-34-9.3c-18.1,5.2-26.3,5.9-29.3,11.8c-6.5,12.7,1.2,22.5,8,20.6C509.4,642.2,508.9,640,509.3,637.7z"/>
<g>
	
		<ellipse transform="matrix(0.3669 -0.9302 0.9302 0.3669 -257.7934 917.9769)" fill="#FFFFFF" cx="545.6" cy="648.4" rx="4" ry="8.2"/>
	<path fill="#1A1A1A" d="M553.5,646.5c-1.4-1.5-3.4-2.8-5.7-3.7c-2.3-0.9-4.7-1.3-6.7-1.2c-2.5,0.2-4.3,1.3-5,3
		c-0.7,1.8-0.1,3.7,1.6,5.6c1.4,1.5,3.4,2.8,5.7,3.7c2,0.8,4,1.2,5.8,1.2c0.3,0,0.6,0,0.9,0c2.5-0.2,4.3-1.3,5-3c0,0,0,0,0,0v0
		C555.7,650.4,555.2,648.4,553.5,646.5z M540.6,647.6c-0.8-0.9-0.8-1.4-0.8-1.5c0-0.1,0.4-0.4,1.6-0.5c0.2,0,0.4,0,0.6,0
		c1.3,0,2.8,0.3,4.3,0.9c0.4,0.2,0.8,0.4,1.2,0.6c-0.6,0.3-1,0.7-1.2,1.3c-0.3,0.8-0.1,1.7,0.4,2.6c-0.6-0.2-1.3-0.3-1.9-0.6
		C543.1,649.6,541.5,648.6,540.6,647.6z"/>
</g>
<path fill="#FECE2F" d="M550.4,809c0,0,22.3-9.7,47-1.3l-10.3,23.7l-19.3-5l-10.7,4L550.4,809z"/>
<path fill="#FECE2F" d="M557,825.8c-1.4-1.6-2.6-3.5-3.5-5.5l-12.5,2l-1.7-10.5c-1.3,0.3-2.6,0.4-3.9,0.4c-0.7,0-1.4,0-2.1-0.1
	l1.8,11.2l-21.2,3.4l-3.1-19c-3.5-1.5-6.4-3.9-8.5-6.9l-19.9,3.2l-3.4-21.2l17.3-2.8c-1.1-1.7-2-3.6-2.5-5.7l-15.7,2.5l-3.4-21.2
	l18.2-2.9c-0.2-1.2-0.4-2.3-0.5-3.5c0-0.8,0-1.7,0.1-2.5l-18.8,3l-3.4-21.2l21.2-3.4l2.6,16c0.2-0.5,0.4-0.9,0.7-1.4
	c-0.8-2.1-1.2-4.3-1.3-6.6c-0.1-3,0.5-5.9,1.8-8.5c-0.5-1.6-0.7-3.3-0.8-5c-0.1-2.4,0.3-4.7,1.1-6.9l-1.2-7.6
	c-2.3-3.3-3.7-7.3-3.9-11.5c-0.1-2,0.2-4,0.8-5.9c-1.8-2.4-3.1-5.1-3.8-8.1c-1.6-1.3-3-2.9-4.1-4.6l2.7,17l-21.2,3.4l-3.4-21.2
	l19.9-3.2c-0.5-1.3-0.9-2.7-1.1-4.1c-0.4-0.5-0.9-1-1.3-1.6l-18.4,3l-1.6-9.7c0,0,0,0,0,0c-0.9,0-1.7-0.1-2.5-0.2
	c-0.8,0.1-1.7,0.2-2.5,0.2c-0.4,0-0.7,0-1-0.1l1.7,10.7l-21.2,3.4l-0.5-3.1c-2.4,2.3-4.6,4.7-6.8,7.2c-0.6,0.7-0.9,1.1-0.9,1.1
	c-0.7,0.8-1.3,1.7-2,2.5l5.3-0.8l3.4,21.2l-15,2.4c-0.4,1.9-0.9,3.8-1.4,5.7c-0.1,0.2-0.1,0.4-0.2,0.7l17.5-2.8l3.4,21.2l-19.6,3.2
	c0.6,1.9,1.1,3.9,1.6,5.8l19-3.1l3.4,21.2l-18.9,3c0.4,0.6,0.8,1.2,1.2,1.7c0.9,1.2,1.6,2.5,2.1,3.9l16.5-2.7l3.4,21.2l-12.3,2
	c1.2,1.8,2.1,3.7,2.6,5.7l10.6-1.7l3.3,20.6c1.6,0.8,3,1.8,4.3,3c1,0.9,1.9,1.9,2.7,2.9l-0.1-0.4l21.2-3.4l3.3,20.7
	c3.7,0.8,6.9,2.6,9.4,5l18.7-3l0.9,5.5c0,0,0.1,0,0.1,0c2.2,0,4.2,0.3,6.1,1l-1.2-7.5l21.2-3.4l1,6.3c1.8-0.6,3.7-0.9,5.6-0.9
	c0.1,0,0.2,0,0.3,0l-1-6.4L557,825.8z M487.1,698l3.4,21.2l-21.2,3.4l-3.4-21.2L487.1,698z M434.4,678.7l21.2-3.4l3.4,21.2
	l-21.2,3.4L434.4,678.7z M438.8,705.8l21.2-3.4l3.4,21.2l-21.2,3.4L438.8,705.8z M443.1,732.9l21.2-3.4l3.4,21.2l-21.2,3.4
	L443.1,732.9z M447.5,760l21.2-3.4l3.4,21.2l-21.2,3.4L447.5,760z M455.3,808.3l-3.4-21.2l21.2-3.4l3.4,21.2L455.3,808.3z
	 M486.8,831.1l-3.4-21.2l21.2-3.4l3.4,21.2L486.8,831.1z"/>
<g>
	<circle fill="#FECE2F" cx="1486.9" cy="762.1" r="32.5"/>
</g>
<g>
	<circle fill="#FFFFFF" cx="488.4" cy="1369.6" r="32.5"/>
</g>
<g>
	<circle fill="#FECE2F" cx="1427.4" cy="752.6" r="16.8"/>
</g>
<polygon fill="#1A1A1A" points="1658.6,990.6 1648.3,1014.6 1628.6,1003.6 1644.4,981.4 "/>
<path fill="#1A1A1A" d="M1864,618.4c-11.3-7.1-75.9-38.9-119.7-60.3c3.6-6.8,16.6-17.8,32.1-27c22.3-13.3,24.6-41.6,24.7-42.8
	c0.1-1.1-0.6-2.2-1.6-2.7c-1.1-0.4-2.3-0.2-3,0.7c-10,11.3-28.3,19.5-44.6,26.7c-4.9,2.2-9.5,4.2-13.7,6.3
	c-15.4,7.5-23.2,19-25.7,23.4c-4.9-2.4-8.1-3.9-9-4.4c-7.9-4.3-17-7.6-25.2-9.1c-10.4-1.9-19.1-1-25.2,2.7
	c-7.2,4.4-10.6,12.3-10.3,23.4c0.4,13.6,9.6,22.1,21.2,27.3l-443.5,138.6c-16,5-29.5,16.5-36.9,31.4l-150.8,301.6
	c-0.5,0.9-0.4,2.1,0.1,2.9c0.5,0.9,1.5,1.4,2.5,1.4c0,0,0,0,0.1,0l51-1c1.7,0,3-1.4,2.9-3l-0.3-23.6c0.9-3.4,9.2-30.5,36.3-53.3
	c1.5,0.8,3.1,1.5,4.8,2c2.3,0.7,4.6,1,6.9,1c10.7,0,20.6-7,23.7-17.8c1.8-6.3,1-13-2-18.6c0,0,0,0,0.1,0c6.3-5.9,12.6-10.7,19-14.9
	l2.4,5.2c5.1,10.9,3.9,23.8-3.2,33.6l-48.1,65.7c-0.7,0.9-0.8,2.1-0.3,3.1c0.5,1,1.5,1.6,2.7,1.6h44c1.2,0,2.4-0.8,2.8-1.9l9.8-25.8
	c4.5-4.9,42.3-46.1,53.8-60.8c9.5-12.1,8.3-22.8,6.9-28c24.1,3.6,58.4,7.2,100.8,7.2c10.8,0,22-0.2,33.8-0.7
	c12.4-0.5,24.1-1.4,35.1-2.5c0,0,0,0,0.1,0c0.1,0,0.2,0,0.2,0c2.4-0.2,4.8-0.4,7.1-0.7c3-0.3,6.9-0.8,11.5-1.5
	c57.6-7.6,93.2-21,102.2-24.8c1.3,9.1,2.1,19.4,1.9,31.4c-0.6,37-16.7,74.4-29.1,97.9c-0.2,0.2-0.3,0.5-0.4,0.7
	c-7.6,14.4-13.8,23.4-14,23.6c-0.1,0.1-0.1,0.3-0.2,0.4c-0.1,0.1-0.1,0.2-0.2,0.3c0,0.1,0,0.2-0.1,0.3c0,0.2-0.1,0.3-0.1,0.5
	c0,0.1,0,0.2,0,0.3c0,0.2,0,0.4,0,0.6c0,0.1,0.1,0.1,0.1,0.2c0.1,0.2,0.1,0.4,0.2,0.6c0.1,0.1,0.1,0.2,0.2,0.4c0,0,0,0,0,0
	c0.1,0.1,0.2,0.2,0.2,0.3c0,0,0.1,0.1,0.1,0.1c0.1,0.1,0.1,0.1,0.2,0.2c0.1,0,0.1,0.1,0.2,0.1c0.1,0,0.1,0.1,0.2,0.1
	c0.1,0.1,0.2,0.1,0.3,0.2c0,0,0,0,0,0c0.1,0.1,0.2,0.1,0.4,0.1c0,0,0,0,0,0c0.1,0,0.2,0.1,0.4,0.1c0,0,0,0,0.1,0c0.1,0,0.3,0,0.4,0
	h16.5h27.2c1.5,0,2.8-1.1,3-2.6l2.9-23.8l3.5-6.4c11.2-20.7,28.2-51.8,46-84.9c0.4,0,0.8,0,1.2,0c13.6,0,24.7-11.1,24.7-24.7
	c0-5.4-1.8-10.4-4.8-14.6c3.2-6,6.3-11.8,9.3-17.4c0,0,0,0,0,0c0,0,0.1,0,0.1,0c29.8-3,57.2-8.2,69.3-10.7l-57.4,104.7l-19.2,23.8
	c-0.5,0.7-0.8,1.6-0.6,2.4c0.2,0.9,0.7,1.6,1.4,2l35.7,20.7c0.5,0.3,1,0.4,1.5,0.4c0.4,0,0.8-0.1,1.1-0.2c0.9-0.4,1.5-1.1,1.8-2
	l7.3-27.1c1-2.3,11.5-24.9,37.3-61.3c6.3-8.8,14.8-17.6,23-26c16.2-16.6,32.9-33.8,35.5-54c5.1-39.7-62-87.8-74-96
	c18.7-43.5,25.1-72.9,26.6-81c10.8-1.5,60.4-8.2,116.7-13.7c19.7-1.9,33.4-11.1,36.5-24.5C1874.7,631.8,1871.3,623,1864,618.4z
	 M1040.3,1052.5l9.5-18.9h33.4l0.3,18.1L1040.3,1052.5z M1541.4,1051.6h-20.4l6.1-18.3h16.5L1541.4,1051.6z M1658.9,1019.1l-7.4-4.3
	l8.7-20.1l4.5,2.9L1658.9,1019.1z M1760.8,855.3c-2.4,18.3-18.4,34.7-33.9,50.6c-8.4,8.6-17.1,17.5-23.6,26.7
	c-22,31-32.8,51.7-36.5,59.3l-19.2-12.5l60.1-109.6c0.1-0.1,0.1-0.3,0.2-0.4c0,0,0-0.1,0-0.1c0-0.1,0.1-0.2,0.1-0.4
	c0-0.1,0-0.1,0-0.2c0-0.1,0-0.2,0-0.4c0,0,0-0.1,0-0.1c0,0,0,0,0-0.1c0-0.2,0-0.3-0.1-0.5c0,0,0,0,0-0.1c0-0.2-0.1-0.3-0.1-0.5
	c0-0.1,0-0.1-0.1-0.2c0-0.1-0.1-0.2-0.1-0.3c0-0.1-0.1-0.1-0.1-0.2c0,0,0-0.1-0.1-0.1c0,0-0.1-0.1-0.1-0.1c0,0-0.1-0.1-0.1-0.1
	c-0.1-0.1-0.2-0.2-0.3-0.3c0,0-0.1,0-0.1-0.1c-0.1-0.1-0.3-0.2-0.4-0.3c0,0-0.1,0-0.1-0.1c-0.1-0.1-0.2-0.1-0.3-0.1
	c-0.1,0-0.1,0-0.2,0c-0.1,0-0.2-0.1-0.4-0.1c0,0-0.1,0-0.1,0c-11.6-1.2-20.4-5.9-26-14c-13.3-19.2-5.2-51.6-5.1-51.9
	c0.1-0.4,0.1-0.7,0.1-1.1c7.3-14.3,12.5-25.2,15.8-32.5c0-0.1,0.1-0.2,0.1-0.3C1703.8,775.1,1765.3,820.3,1760.8,855.3z M1835,659.4
	c-63.3,6.2-118.1,13.9-118.6,14c-1.3,0.2-2.3,1.2-2.5,2.5c-0.1,0.3-5.6,34.6-29.1,87.6c-8.6,19.2-31.6,63.9-68.4,132.7
	c-2.1-1.7-4.6-3.1-7.2-4.1c-1.6-0.6-3.3,0.3-3.8,1.8c-0.6,1.6,0.3,3.3,1.8,3.8c7.4,2.6,12.4,9.7,12.4,17.6
	c0,10.3-8.4,18.7-18.7,18.7c-3.9,0-7.6-1.2-10.7-3.4c-1.4-1-3.2-0.6-4.2,0.7c-1,1.4-0.6,3.2,0.7,4.2c2.1,1.5,4.3,2.6,6.7,3.3
	c-17.5,32.4-34,62.8-45.1,83.1l-2.9,5.3h-25.1l-0.3-0.1c12.3-24.1,26.9-60.1,27.5-96.5c0.4-26.2-3.8-44.2-7.4-60.1
	c-3.9-17-7.4-32.2-4.2-53.5c2-10,4.5-19.5,4.5-19.7c0-0.1,0-0.3,0.1-0.4c0,0,0-0.1,0-0.1c0-0.2,0-0.4,0-0.6c0-0.1,0-0.1,0-0.2
	c0-0.1,0-0.3-0.1-0.4c0-0.1,0-0.1-0.1-0.2c0-0.1-0.1-0.2-0.1-0.3c0-0.1-0.1-0.1-0.1-0.2c-0.1-0.1-0.1-0.2-0.2-0.3
	c0-0.1-0.1-0.1-0.2-0.2c-0.1-0.1-0.1-0.1-0.2-0.2c-0.1-0.1-0.1-0.1-0.2-0.2c-0.1-0.1-0.2-0.1-0.3-0.2c-0.1,0-0.1-0.1-0.2-0.1
	c0,0,0,0-0.1,0c-0.1,0-0.2-0.1-0.3-0.1c-0.1,0-0.1,0-0.1-0.1c0,0,0,0,0,0c-0.2-0.1-0.4-0.1-0.6-0.1c0,0,0,0,0,0c-0.2,0-0.3,0-0.5,0
	c-0.1,0-0.1,0-0.2,0c-0.1,0-0.2,0-0.3,0.1c-0.1,0-0.1,0-0.2,0.1c-0.1,0-0.2,0.1-0.3,0.1c-0.1,0-0.1,0.1-0.2,0.1
	c-0.1,0.1-0.2,0.1-0.3,0.2c-0.1,0-0.1,0.1-0.2,0.1c-0.1,0.1-0.2,0.1-0.2,0.2c-0.1,0.1-0.1,0.1-0.2,0.2c0,0,0,0-0.1,0.1
	c-0.5,0.6-11.3,16-18,46.1c-7.4,33.5-35.1,70.7-90.7,78.3c-13.4,1.5-27.8,2.7-43.3,3.4c-81.6,3.6-139.7-6.7-161.8-11.5l-3.9-1
	c2.3-0.9,4.7-1.8,7-2.7c15.1-5.8,29.4-11.2,41.9-20.4c25.6-18.7,34.1-43.3,36.7-60.6c2.8-18.7-0.4-32.9-0.5-33.5
	c-0.4-1.6-2-2.6-3.6-2.2c-1.6,0.4-2.6,2-2.2,3.6c0.1,0.5,12,54.5-33.8,87.9c-11.8,8.6-25.8,14-40.5,19.6c-20.9,8-44.5,17-66.8,37.6
	c-1.1-1.2-2.4-2.4-3.8-3.4c-1.3-1-3.2-0.7-4.2,0.7c-1,1.3-0.7,3.2,0.7,4.2c6.4,4.6,9.2,12.8,7,20.4c-2.9,9.9-13.3,15.6-23.1,12.7
	c-3.7-1.1-6.9-3.2-9.3-6.2c-1-1.3-2.9-1.5-4.2-0.5c-1.3,1-1.5,2.9-0.5,4.2c0.8,1,1.6,1.8,2.5,2.7c-25,21.6-34.2,46-36.5,53.5h-31.1
	l136.1-272.2c6.8-13.5,18.9-23.9,33.4-28.4l450.3-140.8c0.2-0.1,0.4-0.1,0.6-0.2c1.7,0.5,3.3,0.9,5,1.3c11.9,3.2,23.2,3.7,29,3.7
	c2.4,0,3.8-0.1,4.1-0.1c0.1,0,0.1,0,0.2,0c0.1,0,0.3,0,0.4-0.1c0.1,0,0.2,0,0.2-0.1c0.1,0,0.2-0.1,0.4-0.1c0.1,0,0.1-0.1,0.2-0.1
	c0.1-0.1,0.2-0.1,0.3-0.2c0.1-0.1,0.1-0.1,0.2-0.2c0.1-0.1,0.2-0.2,0.3-0.3c0,0,0.1-0.1,0.1-0.1c0,0,0,0,0-0.1
	c0.1-0.1,0.1-0.2,0.2-0.4c0-0.1,0.1-0.1,0.1-0.2c0.1-0.1,0.1-0.3,0.1-0.4c0-0.1,0-0.1,0-0.2c0-0.2,0-0.4,0-0.6c0,0,0-0.1,0-0.1
	c0-0.2,0-0.4-0.1-0.6c0,0,0,0,0,0c-0.3-1.2-7.4-29.2-37.8-36.9c-12.7-3.2-21.9-1.2-27.3,1c0.5-6.8,3-11.6,7.4-14.3
	c10.4-6.4,30.4-1.1,44.5,6.5c0,0,0.1,0,0.1,0.1c1.2,0.6,107.3,51.9,146.9,72.6C1841.9,621.5,1829.3,635.9,1835,659.4z"/>
<path fill="#1A1A1A" d="M600.2,806.4c-0.3-0.8-1-1.4-1.8-1.6c-24.6-8.3-46.6,0.4-49,1.3c-15.8,4.8-27.8,5-35.9,0.4
	c-8.9-5.1-12.1-15.1-14.5-25c-3.7-14.9-3.2-26.4-2.6-39.5c2-19.7,1.3-39.3-2.9-54.1c-0.1-0.6-0.3-1.3-0.5-2l20.6-12.7
	c4.3,3.3,11.3,6.6,22.7,6.6c1.9,0,3.9-0.1,6.1-0.3c6.7-0.6,17.7-6.5,20.7-12.4c0.4-0.3,1.4-0.6,2.1-0.9c3-1.1,7.5-2.9,8.5-7.6
	c1.1-5.1-3.9-7.5-6.6-8.7c-0.5-0.2-1.2-0.6-1.7-0.8c-0.8-6.1-2.6-11.9-4.1-15.9c13.7-5.8,19.8-13.6,20.1-14c2.3-3.1,1.7-7.5-1.4-9.8
	c-2-1.5-4.5-1.8-6.7-1c0.1-5.5-1.2-9.6-1.5-10.3c-1.3-3.6-5.3-5.6-8.9-4.3c-3.6,1.3-5.6,5.3-4.3,8.9c0.2,0.6,0.5,1.8,0.7,3.4
	c-6-5.1-16.2-10.7-33.7-6.1c-18.8,4.9-23.7,16.1-26,22.1c-1.6,4.1-2.3,7.6-2.5,10.6c-0.7-0.2-1.6-0.2-2.3,0.2l-49,26.7
	c-0.2,0.1-0.5,0.3-0.6,0.5c-12.7,5-25.9,17.1-39.4,35.9c-26.3,36.8-63.4,111.9-64.2,113.7c-0.1,0.2-0.2,0.5-0.2,0.7
	c0,0.1,0,0.1,0,0.2c0,0.1,0,0.2,0,0.3c-1.9,28.7-5.4,71.7-8.4,87.3c-0.3,1.2-0.6,2.4-1.1,3.5c-1,2.7-2.2,5.3-3.4,7.8
	c-7,13.4-22.1,39.9-28.5,50.9l-11.3-7.9c-0.7-0.5-1.6-0.7-2.4-0.5c-0.8,0.2-1.5,0.7-1.9,1.5l-38.7,70c-0.1,0.2-0.2,0.4-0.3,0.6
	l-8.7,30c-0.3,0.9-0.1,1.9,0.5,2.6c0.6,0.8,1.5,1.2,2.4,1.2c0,0,0,0,0,0l120.7-0.7c1.3,0,2.5-0.9,2.9-2.2s-0.1-2.6-1.3-3.4
	c-25.8-16.7-37.1-23.6-42.3-26.4c5.1-4.9,17.7-16.1,29.3-26.1c0.7-0.6,1.1-1.5,1-2.4s-0.5-1.8-1.3-2.3l-8.4-5.8
	c6.2-4.9,42-33.6,53.3-55.7c3.2-6.2,6.1-15,8.7-24.6l16.1,13.4c18.1,15.5,36.2,31.3,38.3,33.7c1.6,1.9,2.2,7.7,2.2,13l-13.7,2.1
	c-1.6,0.2-2.7,1.7-2.5,3.3l5.9,50.7l-8.5,29.4c-0.3,0.9-0.1,1.9,0.5,2.6c0.6,0.7,1.5,1.2,2.4,1.2c0,0,0,0,0,0l104.7-0.7
	c1.3,0,2.5-0.9,2.9-2.2c0.4-1.3-0.1-2.6-1.3-3.4c-28.7-18.5-39.5-25-43.8-27.3c2-8.2,13.5-41.2,21-61.9c0.4-1,0.2-2.1-0.5-2.9
	s-1.7-1.2-2.8-1.1l-2.6,0.4c2.2-8.4,4-18.1,2.7-23.5c-6.5-25.7-59.3-75.6-70.8-86.2c2.7-3.4,8-10.3,13.9-19.9c5.4,3.5,11,6.4,17,8.6
	c9.2,3.4,19,5.1,29.3,5.1c14.5,0,29.8-3.3,45.4-10l9.7-3.7l18.4,4.8c0.3,0.1,0.5,0.1,0.8,0.1c1.2,0,2.3-0.7,2.7-1.8l10.3-23.7
	C600.5,808.1,600.5,807.2,600.2,806.4z M497.9,638.1C497.9,638.1,497.9,638.1,497.9,638.1c0.5,1.9,1.4,3.5,2.5,4.9
	c2.2,2.7,5.3,4.3,8.4,4.3c0.8,0,1.7-0.1,2.5-0.3c0.9-0.2,1.6-0.9,2-1.8c0.3-0.9,0.3-1.8-0.2-2.6c-0.8-1.3-1.1-2.8-0.8-4.4
	c0.4-3,2.9-5.4,5.9-5.7c2-0.2,3.8,0.4,5.3,1.7c1.4,1.3,2.2,3.1,2.2,5c0,0.1,0,0.1,0,0.2l0,0.2c-0.1,1,0.4,2,1.3,2.6
	c0.9,0.6,2,0.7,2.9,0.3c0.7-0.3,3-0.8,5.3-1.4c4.5-1.1,10.2-2.4,15.6-4.4c1.8-0.4,3.4-0.9,5-1.4c1.4,3.9,3.2,9.5,3.8,15.3
	c0.3,2.6,2.8,3.8,5,4.8c1,0.5,3,1.4,3.2,2c-0.3,1.4-2.3,2.3-4.8,3.3c-2.2,0.8-4.3,1.6-5.2,3.6c-1.7,3.6-10.7,8.8-16,9.3
	c-26.6,2.4-30.1-12.6-30.2-13.3c-0.3-1.6-1.9-2.7-3.5-2.4c-1.6,0.3-2.7,1.9-2.4,3.5c0,0.2,0.7,3.6,3.6,7.4l-18.4,11.4
	c-2.2-5.3-5-9.6-8.4-12.8c-0.3-0.3-0.6-0.6-1-0.9c-3.5-3.5-7.5-5.9-11.7-7.2c-2.5-0.9-5-1.6-7.6-1.8L497.9,638.1z M388.4,930.3
	c-11.6,22.5-52.1,54-52.5,54.3c-0.2,0.2-0.4,0.3-0.5,0.5L305,963.9c3.9-6.8,11.4-19.9,18.2-32.2c1.2,0.8,2.4,1.5,3.8,2
	c1.8,0.6,3.6,1,5.5,1c2.4,0,4.7-0.5,7-1.6c3.9-1.9,6.9-5.1,8.4-9.2l8.8-24.5c1.5-4.1,1.2-8.5-0.6-12.4s-5.1-6.9-9.2-8.4
	c-1.6-0.6-3.3-0.9-4.9-0.9c2.3-20.5,4.2-46.5,5.1-59.3c7.7,7.4,25.5,20.1,61.3,28.2l-4.6,28.5C400,894.3,394.7,918,388.4,930.3z
	 M465.2,895.3c3.7,4,8.8,6.2,14.2,6.4c0.2,0,0.4,0,0.7,0c4.2,0,8.3-1.3,11.7-3.7c12.5,14.3,23.3,29,25.8,39.1c1.1,4.5-1,14.4-3.3,23
	l-49.2,7.6c0-5.3-0.7-12.5-3.6-16c-1.3-1.5-7.3-6.9-15-13.7c-0.1-0.6-0.4-1.1-0.9-1.6c-11.4-10.5-14-25.1-15.5-54
	c-0.9-17.5-6.6-28-11.1-33.7c8.5,1.6,18,2.9,28.3,3.8c2.1,1.9,8.6,8,16.9,16.2c-2.7,3.4-4.2,7.5-4.4,11.9
	C459.5,886.1,461.5,891.3,465.2,895.3z M447.1,846.5c-70.2-6.4-94.3-30.1-99.2-35.9c3.4-6.8,16.5-33,31.7-60.3
	c0.4-0.2,0.9-0.5,1.2-0.9c0.1-0.1,8.3-10.8,18.7-7.5c2.7,0.9,8.7,4.9,18.8,22c1.9,3.2,3.6,6.3,5.1,9.1c3,6.7,5.3,10.7,5.5,11
	c0.2,0.3,0.3,0.5,0.5,0.7c8.7,17.6,19.5,31.4,32.2,41.1C455,836.4,449.3,843.8,447.1,846.5z M431.2,774.5
	c-11-25.4-14.7-44.4-14.7-58.7c0-3.3,0.3-6.6,0.7-9.9c2.1-14.9,8.4-22.9,11.9-27.3c0.7-0.8,1.5-1.8,2.6-2.8c2.1-1.9,4.3-3.5,6.4-4.9
	c5.7-3.7,13.3-6.9,21.6-6.9c2.1,0,4.3,0.2,6.5,0.7c0.7,0.1,1.3,0.3,1.9,0.5c3.2,1.3,6.3,3.2,9.3,5.9c3.9,3.8,6.7,8.6,8.4,12.8
	c0.7,1.7,1.3,3.6,1.9,5.6c0,0.2,0.1,0.4,0.1,0.6c4.2,21.6,3.4,36.4,2.7,50.7c-0.7,13.5-1.3,26.2,2.7,42.5c2,8.2,5.4,22,17.4,28.7
	c9.2,5.2,21.6,5.5,37.9,0.9l5,15.9C500,850.2,455.5,830.6,431.2,774.5z M585.4,827.8l-16.9-4.4c-0.2-0.1-0.5-0.1-0.8-0.1
	c-0.4,0-0.7,0.1-1.1,0.2l-7.7,2.9l-4.9-15.6c6-2,21.8-6.1,39.2-1.3L585.4,827.8z"/>
<g>
	<path fill="#FFFFFF" d="M1651.4,625.1c-1.3,0-2.5-0.4-3.6-1.3l-33.5-28.5c-2.3-2-2.6-5.4-0.6-7.8c2-2.3,5.4-2.6,7.8-0.6l33.5,28.5
		c2.3,2,2.6,5.4,0.6,7.8C1654.5,624.4,1653,625.1,1651.4,625.1z"/>
</g>
<path fill="#1A1A1A" d="M1498.3,1279.2c-7.9-30.8-39.5-49.4-70.3-41.4c-30.8,7.9-49.4,39.5-41.4,70.3c6.7,26,30.2,43.3,55.9,43.3
	c4.8,0,9.6-0.6,14.4-1.8C1487.6,1341.5,1506.2,1310,1498.3,1279.2z"/>
<path fill="#1A1A1A" d="M959.1,1390.5c-2.8-11-9.8-20.2-19.5-26c-9.8-5.8-21.2-7.4-32.2-4.5c-11,2.8-20.2,9.8-26,19.5
	c-5.8,9.8-7.4,21.2-4.5,32.2c2.8,11,9.8,20.2,19.5,26c6.6,3.9,14,5.9,21.5,5.9c3.6,0,7.1-0.5,10.7-1.4c11-2.8,20.2-9.8,26-19.5
	C960.3,1412.9,961.9,1401.5,959.1,1390.5z"/>
<g>
	
		<ellipse transform="matrix(0.9683 -0.2497 0.2497 0.9683 -273.9166 287.6687)" fill="#FECE2F" cx="996.7" cy="1223.3" rx="20" ry="20"/>
</g>
<g>
	<g>
		
			<ellipse transform="matrix(0.9628 -0.2702 0.2702 0.9628 -246.2919 212.6449)" fill="#1A1A1A" cx="649.1" cy="1000.7" rx="11.5" ry="11.5"/>
	</g>
	<g>
		
			<ellipse transform="matrix(0.2737 -0.9618 0.9618 0.2737 -329.5951 1552.9225)" fill="#1A1A1A" cx="863.4" cy="994.7" rx="6" ry="6"/>
	</g>
	<g>
		
			<ellipse transform="matrix(0.9628 -0.2702 0.2702 0.9628 -240.213 229.3168)" fill="#1A1A1A" cx="712.7" cy="987" rx="8.2" ry="8.2"/>
	</g>
	<g>
		<path fill="#1A1A1A" d="M826.7,1005.1c-2.7,0-5.3-1.3-7-3.7c-2.6-3.8-1.6-9.1,2.3-11.6l18.9-12.7c3.8-2.6,9.1-1.6,11.6,2.3
			c2.6,3.8,1.6,9.1-2.3,11.6l-18.9,12.7C830,1004.6,828.3,1005.1,826.7,1005.1z"/>
	</g>
</g>
<g>
	
		<ellipse transform="matrix(0.9628 -0.2702 0.2702 0.9628 -203.4733 475.1541)" fill="#1A1A1A" cx="1623.8" cy="976.5" rx="6.5" ry="6.5"/>
</g>
<g>
	
		<ellipse transform="matrix(0.2737 -0.9618 0.9618 0.2737 293.3649 2411.2881)" fill="#1A1A1A" cx="1743.3" cy="1011.4" rx="6" ry="6"/>
</g>
<g>
	
		<ellipse transform="matrix(0.9628 -0.2702 0.2702 0.9628 -211.9887 467.7094)" fill="#1A1A1A" cx="1592.5" cy="1003.7" rx="8.2" ry="8.2"/>
</g>
<g>
	<path fill="#1A1A1A" d="M1708.8,1028.2c-2.2,0-4.5-0.9-6.1-2.6l-15.6-16.5c-3.2-3.4-3-8.7,0.3-11.9s8.7-3,11.9,0.3l15.6,16.5
		c3.2,3.4,3,8.7-0.3,11.9C1712.9,1027.4,1710.8,1028.2,1708.8,1028.2z"/>
</g>
<path fill="#1A1A1A" d="M878.4,1093.2c-16.8,0-30.4,13.6-30.4,30.4s13.6,30.4,30.4,30.4s30.4-13.6,30.4-30.4
	S895.2,1093.2,878.4,1093.2z"/>
<path fill="#1A1A1A" d="M732.2,1299.6c-11.9,0-21.6,9.7-21.6,21.6s9.7,21.6,21.6,21.6s21.6-9.7,21.6-21.6S744.1,1299.6,732.2,1299.6
	z"/>
<g>
	<circle fill="#FECE2F" cx="660.4" cy="1339.6" r="21.7"/>
</g>
<g>
	<path fill="#FFFFFF" d="M1749.7,917.7c-0.7,0-1.4-0.2-1.9-0.7c-1.3-1.1-1.4-3-0.4-4.2c7.5-8.8,15-15.7,21.6-21.8
		c11.4-10.4,21.2-19.4,26.5-34.1c7.9-22-13.6-42.2-13.8-42.4c-1.2-1.1-1.3-3-0.2-4.2c1.1-1.2,3-1.3,4.2-0.2
		c1,0.9,24.6,23.1,15.4,48.8c-5.7,16-16.1,25.5-28,36.5c-6.8,6.3-13.9,12.7-21.1,21.3C1751.4,917.4,1750.6,917.7,1749.7,917.7z"/>
</g>
<g>
	<path fill="#FFFFFF" d="M1287.4,676.6c-1.3,0-2.5-0.8-2.9-2.1c-0.5-1.6,0.4-3.3,1.9-3.8l182-58c1.6-0.5,3.3,0.4,3.8,1.9
		c0.5,1.6-0.4,3.3-1.9,3.8l-182,58C1288,676.6,1287.7,676.6,1287.4,676.6z"/>
</g>
<g>
	<path fill="#1A1A1A" d="M702.9,1118.8c0-4.1,3.4-7.5,7.5-7.5h38.5l19.1-38.1H172.7c-5.5,0-10,4.5-10,10v164.1c0,5.5,4.5,10,10,10
		h503.3l19.7-39.4h-67.2c-3,0-5.5-2.5-5.5-5.5s2.5-5.5,5.5-5.5h72.7l15.5-31h-12.2c-2.5,0-4.5-2-4.5-4.5s2-4.5,4.5-4.5h16.7
		l20.3-40.5h-31C706.3,1126.3,702.9,1122.9,702.9,1118.8z"/>
</g>
<g>
	<path fill="#FFFFFF" d="M382.4,687.6c-0.6,0-1.1-0.2-1.7-0.5c-1.4-0.9-1.8-2.8-0.8-4.2c1-1.5,24.4-36.3,62.3-52.9
		c1.5-0.7,3.3,0,4,1.5c0.7,1.5,0,3.3-1.5,4c-36.3,16-59.5,50.4-59.7,50.8C384.3,687.2,383.4,687.6,382.4,687.6z"/>
</g>
<g>
	<g>
		<path fill="#1A1A1A" d="M512.7,621.2c-2.1,0-3.8-0.4-5.1-1.3c-1.1-0.7-2.4-2.1-2.7-4.6c-0.3-2.2,0.3-4.2,1.3-5.9
			c-2.4-0.7-5.1-2-6.9-4.5c-0.9-1.2-1-2.8-0.2-4.1c0.7-1.2,2.3-4.1,23.3-9.9c6.3-1.7,20.2-5.3,23.1-5c1.5,0.1,2.7,0.9,3.5,2.1
			c1.3,2.1,1.1,5.3,0.5,7.9c5.9,1.7,13,4.8,12.1,9.9c-0.3,1.8-1.4,2.9-9.5,5.9c-4.4,1.6-9.5,3.1-12.9,3.9c-3.5,0.8-6.8,1.6-9.7,2.4
			C521.9,619.9,516.6,621.2,512.7,621.2z M505.8,602.8c2,1.1,4.7,1.4,5.8,1.4c1.3,0,2.4,0.8,2.8,2c0.4,1.2,0.1,2.5-0.9,3.3
			c-1,0.9-3,3.2-2.8,4.9c0,0.3,0.1,0.5,0.2,0.5c1.6,1.1,9.5-0.9,17.1-2.7c2.9-0.7,6.2-1.5,9.8-2.4c5.1-1.2,12.9-3.8,16.6-5.4
			c-2-1.1-5.8-2.5-9.4-3.3c-0.8-0.2-1.5-0.7-2-1.5c-0.4-0.7-0.5-1.6-0.2-2.4c0.6-1.8,1-3.9,1-5.1c-2.9,0.4-10.8,2.1-19.6,4.6
			C514,599.4,508.4,601.5,505.8,602.8z M555.6,605.4L555.6,605.4L555.6,605.4z"/>
		<path fill="#1A1A1A" d="M549.4,595.9c0.6-2.6,0.9-5.8-0.5-7.9c-0.8-1.2-2-2-3.5-2.1c-3-0.3-16.9,3.2-23.1,5
			c-20.9,5.8-22.6,8.7-23.3,9.9c-0.8,1.4-0.7,2.9,0.2,4.1c1.8,2.4,4.5,3.7,6.9,4.5c-0.9,1.7-1.6,3.7-1.3,5.9
			c0.4,2.5,1.7,3.9,2.7,4.6c1.4,0.9,3,1.3,5.1,1.3c3.9,0,9.2-1.3,16.7-3.2c2.9-0.7,6.1-1.5,9.7-2.4c3.4-0.8,8.5-2.3,12.9-3.9
			c8.1-2.9,9.2-4.1,9.5-5.9C562.4,600.7,555.3,597.6,549.4,595.9z"/>
	</g>
	<g>
		<g>
			<path fill="#FECE2F" d="M545.7,601.2l-18.1,5.2c-0.3,0.1-0.6,0.1-0.8,0.1c-1.3,0-2.5-0.9-2.9-2.2c-0.5-1.6,0.5-3.3,2.1-3.7
				l17.3-4.9c0.4-1.4,0.6-2.8,0.6-3.7c-2.9,0.4-10.8,2.1-19.6,4.6c-10.2,2.8-15.8,5-18.4,6.3c2,1.1,4.7,1.4,5.8,1.4
				c1.3,0,2.4,0.8,2.8,2c0.4,1.2,0.1,2.5-0.9,3.3c-1,0.9-3,3.2-2.8,4.9c0,0.3,0.1,0.5,0.2,0.5c1.6,1.1,9.5-0.9,17.1-2.7
				c2.9-0.7,6.2-1.5,9.8-2.4c5.1-1.2,12.9-3.8,16.6-5.4C552.5,603.3,549.1,602,545.7,601.2z"/>
		</g>
	</g>
</g>
<path fill="#FFFFFF" d="M1181.1,1012.3l-7.7,20.4h-11.4l8.5-20.5L1181.1,1012.3z"/>
</svg>
