<?xml version="1.0" encoding="utf-8"?>
<!-- Generator: Adobe Illustrator 21.0.0, SVG Export Plug-In . SVG Version: 6.00 Build 0)  -->
<svg version="1.1" baseProfile="tiny" id="Layer_3" xmlns="http://www.w3.org/2000/svg" xmlns:xlink="http://www.w3.org/1999/xlink"
	 x="0px" y="0px" viewBox="0 0 800 800" xml:space="preserve">
<g>
	<g>
		<path fill="#FECE2F" d="M344.4,143.6c-67.9-27.7-138.4-16.8-172,10.6c62,23.8,106,83.8,106,154.1c0,89.2-70.7,161.8-159.1,164.9
			c-6.9,90.4,11.1,228.4,155.1,250.4c130.6,19.9,492-107.5,492-282S550.4,227.6,344.4,143.6z"/>
	</g>
</g>
<g>
	<g>
		<g>
			<g>
				<ellipse fill="#FFFFFF" cx="377.7" cy="204.6" rx="20.6" ry="12.2"/>
			</g>
		</g>
		<path fill="#1A1A1A" d="M377.7,190.3c-12.6,0-22.6,6.2-22.6,14.2s9.9,14.2,22.6,14.2s22.6-6.2,22.6-14.2S390.3,190.3,377.7,190.3z
			 M377.7,214.8c-2.7,0-5.2-0.3-7.6-0.9c4.5-2.2,7.3-5.6,7.3-9.4c0-3.8-2.9-7.1-7.3-9.4c2.3-0.6,4.9-0.9,7.6-0.9
			c10.1,0,18.6,4.7,18.6,10.3S387.8,214.8,377.7,214.8z"/>
		<g>
			<g>
				<path fill="#1A1A1A" d="M368.6,188.2c-2.2,0-4.3-1.4-5.2-3.6c-1-2.9,0.5-6,3.3-7.1c0.3-0.1,2.2-0.8,5.2-1.1
					c3-0.4,5.8,1.8,6.1,4.8c0.4,3-1.8,5.8-4.8,6.1c-1.8,0.2-2.9,0.6-2.9,0.6C369.9,188.1,369.2,188.2,368.6,188.2z"/>
			</g>
		</g>
	</g>
	<path fill="#1A1A1A" d="M732.6,485.6c-2.8-9.6-17.4-14.8-43.6-15.7c-1.1,0-2,0.8-2.1,1.9c0,0.2,0,0.4,0.1,0.5l-364,85.3
		c0-0.1,0-0.2-0.1-0.3c-0.4-1-1.6-1.5-2.6-1.1C281,572.1,249,587.9,227.6,602c-23,15.1-33.2,27.8-30.3,37.7
		c3.5,12.1,25.5,15.8,51.2,15.8c12.6,0,26.2-0.9,38.7-2.1c53-5.2,121.3-19.3,192.4-39.8c71.1-20.5,136.5-44.8,184.1-68.6
		C698,527.9,737.8,503.7,732.6,485.6z"/>
	<path fill="#FECE2F" d="M254.4,518.6l36,15.7l35.3,8l-1.7,6.7c-0.8,2.5-1.4,4.9-2,7.4c0.4,0.2,0.7,0.5,0.9,1c0.4,1-0.1,2.2-1.1,2.6
		c-0.2,0.1-0.3,0.1-0.5,0.2c-6.5,36.1,8.2,74.5,11.7,83c43.8-7.2,93.9-18.7,145.5-33.5c70.9-20.4,136-44.7,183.4-68.3
		c11.5-5.7,21.6-11.3,30.3-16.6l-4.5-51.3c-0.5-0.4-0.8-1-0.8-1.6c0-0.5,0.2-0.9,0.5-1.3l-1.7-19c-6-63.3-17.3-106-17.3-106
		l-28-84.7c0,0-19.3-44.7-33.3-69.3c-14-24.7-65.3-72-65.3-72l-49.3-45.3l-4-5.7h-21l-46.7,13l-25.3,31.7c0,0-16.3,35.7-20.3,49.7
		s1.7,23.7,5.3,33s-3.7,21.3-3.7,21.3s-18.3,42-21.3,54.7s3.3,17.3,3.3,17.3s-10.7,2.7-9.3,14c1.3,11.3,19.3,11.3,19.3,11.3
		s-5.7,3.3-5.3,12c0.3,8.7,14,9.3,14,9.3l13.3,2.3L380.1,357l-19.3,35.3c-11.3,15.3-34.3,24.3-58.3,23c-24-1.3-58-28.3-58-28.3
		l-58-43c0,0-38.7-30.7-51.3-38.3c-12.7-7.7-49.3-13-49.3-13s-18.3-2.7-27.7,13c-9.3,15.7,7.3,26,7.3,26c-22.3,16.7-1,31.3-1,31.3
		c-5.3,18,9.7,22.3,9.7,22.3s-5.7,7.7,4.7,14.3c10.3,6.7,27.7,0.7,27.7,0.7c15.3,15,50.3,12.7,50.3,12.7l16.3,12l29.3,48.3
		L254.4,518.6z"/>
	<g>
		<path fill="#FFFFFF" d="M70.9,333.6c0,0-5,4.3-4.6,13.8c0.4,10.1,5.4,16.2,5.4,16.2s-0.4,5.8,1.2,10.9c2,6.4,6.8,11.4,6.8,11.4
			s-0.8,8.9,6,14.8c2.1,1.8-7.2,1-10-4.5s-1.8-10.5-1.8-10.5s-13.8-4-8.5-23c0,0-12-3.8-10.2-16.5s11.5-14.5,11.5-14.5L70.9,333.6z"
			/>
	</g>
	<g>
		<path fill="#FFFFFF" d="M368.8,314.6c0,0-5.7,3.3-5.3,12c0.3,8.7,14,9.3,14,9.3l0.2,0c-4.9-6.9-3.6-17.5,3-22.8
			c-7,1.5-15.2-0.2-19.3-6.1c-4.1-5.9-1.3-15.9,5.7-17.1c2.1-0.4,4.9-0.5,5.2-2.5c0.3-1.9-1.8-3.1-3.4-4.2
			c-6.1-4.4-4.8-13.7-2.5-20.8c3.7-11.5,8.5-22.8,14.3-33.4c4.2-7.9,9.1-15.8,9.9-24.7c1.1-12.5-5.9-25-3.3-37.2
			c1.4-6.5,5.4-12.1,9-17.8c6.7-10.5,10.8-22.1,17-32.8c5.4-9.4,10.8-17.8,11.9-29c0.2-2.4,0.2-4.8-0.1-7.3l-4.4,1.2l-25.3,31.7
			c0,0-16.3,35.7-20.3,49.7s1.7,23.7,5.3,33s-3.7,21.3-3.7,21.3s-18.3,42-21.3,54.7s3.3,17.3,3.3,17.3s-10.7,2.7-9.3,14
			C350.8,314.6,368.8,314.6,368.8,314.6z"/>
	</g>
	<g>
		<path fill="#FFFFFF" d="M400.4,353c1,0.1-20.7,20.3-30.3,52.7c-10.4,35,1,44.7,1,44.7s-14.7-2-16-23.7s17-58.3,17-58.3
			S389.1,352,400.4,353z"/>
	</g>
	<g>
		<path fill="#FFFFFF" d="M451.8,334.3c0,0-29.7,27.8-50.7,74.3c-16.7,37,4,55.7,4,55.7s-22.7,1.3-25.3-26
			c-2.7-27.3,40.7-92,40.7-92L451.8,334.3z"/>
	</g>
	<g>
		<path fill="#FFFFFF" d="M518.2,186.1c4.3,1.9,6.5,6.9,6.3,11.6c-0.2,4.7-2.5,9-5.1,12.9c5.6-1.6,10.3-6.1,12.4-11.6
			s1.7-11.8-0.8-17.1c-1.1-2.2-2.6-4.4-4.6-5.8c-2.3-1.6-5.2-2.1-8-2.1c-5.5,0.1-13,3.3-14.1,9.4c-0.7,3.7,0.5,2.4,3.9,1.9
			C511.5,185,515.2,184.8,518.2,186.1z"/>
	</g>
	<g>
		<path fill="#FFFFFF" d="M77.8,299.8l-1-6.5c-5.2,1-10.1,3.2-14.4,6.3c-1.7,1.2-3.2,2.6-4.3,4.3c-1,1.5-1.5,3.3-1.9,5.1
			c-1.1,4.6-1.6,9.7,0.2,14.1c1.7,4.5,6.1,8.1,10.9,7.8c-3.9-5.1-5-12.2-2.9-18.3C66.4,306.4,71.6,301.5,77.8,299.8z"/>
	</g>
	<g>
		<g>
			<path fill="#FFFFFF" d="M96.3,355c0.3,0.4,0.6,0.8,0.8,1.2C96.8,355.6,96.6,355.2,96.3,355z"/>
		</g>
		<g>
			<path fill="#FFFFFF" d="M96,354.5C95.9,354.4,95.9,354.4,96,354.5C95.9,354.4,96,354.4,96,354.5z"/>
		</g>
		<g>
			<path fill="#FFFFFF" d="M106.4,302c0,0-26.7,4.3-28.7,25.3c-2.6,27,18.2,27.1,18.2,27.1C74.1,324.5,106.4,302,106.4,302z"/>
		</g>
		<g>
			<path fill="#FFFFFF" d="M96,354.5c0,0.1,0.1,0.1,0.2,0.2C96.1,354.6,96,354.5,96,354.5z"/>
		</g>
		<g>
			<path fill="#FFFFFF" d="M96.2,354.7C96.2,354.7,96.2,354.7,96.2,354.7C96.2,354.7,96.2,354.7,96.2,354.7z"/>
		</g>
	</g>
	<g>
		<path fill="#1A1A1A" d="M497,190.9c1-1.7,1.9-3.2,3-4.7c1-1.5,2.1-3,3.3-4.5c1.2-1.4,2.4-2.8,3.9-4.1c1.4-1.3,2.9-2.5,4.7-3.5
			c1.7-1,3.6-2,5.8-2.5c2.1-0.5,4.6-0.6,6.8-0.1c1.1,0.3,2.2,0.6,3.2,1.1c1,0.5,1.9,1.1,2.8,1.8c1.8,1.4,3.3,3.2,4.5,5.2
			c1.1,2,1.8,4.2,2.1,6.3c0.3,2.2,0.2,4.3-0.1,6.3c-0.6,4.1-2.2,7.9-4.3,11.2c-2.2,3.3-5,6.2-8.4,8.2c-3.4,2.1-7.4,3.2-11.4,2.8
			c-0.8-0.1-1.5-0.8-1.4-1.7c0.1-0.7,0.6-1.3,1.4-1.4l0,0c3.2-0.4,6.1-1.8,8.6-3.8c2.4-2,4.4-4.6,5.9-7.4c1.5-2.8,2.4-5.9,2.6-8.8
			c0.2-3-0.3-5.8-1.7-7.9c-0.7-1.1-1.5-2-2.6-2.7c-0.5-0.4-1.1-0.7-1.7-1.1c-0.6-0.3-1.1-0.6-1.7-0.9c-1.2-0.5-2.4-0.9-3.7-1
			c-1.4-0.1-2.9,0.2-4.3,0.8c-2.8,1.3-5.4,3.4-7.7,5.9c-2.3,2.5-4.3,5.4-5.8,8.3l0,0.1c-0.5,1-1.8,1.4-2.8,0.9S496.4,192,497,190.9
			C497,191,497,190.9,497,190.9z"/>
	</g>
	<g>
		<path fill="#1A1A1A" d="M376.4,256.1c-1,0-1.8-0.7-2-1.7c-0.2-1.1,0.6-2.1,1.7-2.3c5.5-0.8,9.4-2.9,11.4-6.3
			c3.2-5.2,1-11.8,1-11.9c-0.4-1,0.2-2.2,1.3-2.5c1-0.4,2.2,0.2,2.5,1.3c0.1,0.3,2.8,8.5-1.4,15.2c-2.7,4.4-7.5,7.1-14.2,8.1
			C376.6,256.1,376.5,256.1,376.4,256.1z"/>
	</g>
	<g>
		
			<ellipse transform="matrix(0.3292 -0.9443 0.9443 0.3292 28.0201 522.3516)" fill="#1A1A1A" cx="381.7" cy="241.5" rx="6.1" ry="3.6"/>
	</g>
	<g>
		<g>
			<path fill="#1A1A1A" d="M418.1,298c-0.6,0-1.3-0.3-1.6-0.9c-0.6-0.9-0.4-2.2,0.5-2.8c0.3-0.2,8.6-6.2,7-16.2
				c-0.8-4.9-3.3-8-7.5-9.3c-3.4-1-6.6-0.5-6.7-0.5c-1.1,0.2-2.1-0.6-2.3-1.7c-0.2-1.1,0.6-2.1,1.7-2.3c0.3,0,7.4-1.1,12.9,2.9
				c3.2,2.3,5.2,5.8,5.9,10.3c2,12.6-8.2,19.8-8.7,20.1C418.9,297.9,418.5,298,418.1,298z"/>
		</g>
		<g>
			<path fill="#1A1A1A" d="M433.1,296c-0.6,0-1.3-0.3-1.6-0.9c-0.6-0.9-0.4-2.2,0.5-2.8c3.1-2.2,4.8-4.6,5.2-7.4
				c0.6-4.4-2.4-8.2-2.5-8.2c-0.7-0.9-0.6-2.1,0.3-2.8s2.1-0.6,2.8,0.3c0.2,0.2,4.2,5.1,3.3,11.3c-0.5,3.9-2.9,7.3-6.9,10.1
				C433.9,295.9,433.5,296,433.1,296z"/>
		</g>
		<g>
			<path fill="#1A1A1A" d="M454.2,273.3C454.1,273.3,454.1,273.3,454.2,273.3c-1.1,0-2-0.9-2-2c0.1-4.7-1.4-9.5-4.2-13.3
				c-2.8-3.8-6.9-6.6-11.5-7.9c-1.2-0.3-2.5-0.6-3.8-0.8c-1.9-0.4-3.9-0.7-5.9-1.5c-3.3-1.2-7.1-4.1-7.7-8.4
				c-0.1-1.1,0.6-2.1,1.7-2.2c1.1-0.1,2.1,0.6,2.2,1.7c0.3,2.5,2.9,4.3,5.1,5.2c1.6,0.6,3.4,0.9,5.2,1.3c1.4,0.3,2.8,0.5,4.2,0.9
				c5.4,1.5,10.2,4.9,13.6,9.4c3.3,4.5,5.1,10.1,5,15.7C456.1,272.4,455.2,273.3,454.2,273.3z"/>
		</g>
		<g>
			<path fill="#1A1A1A" d="M465.3,268.6c-0.2,0-0.3,0-0.5-0.1c-1.1-0.3-1.7-1.3-1.5-2.4c1.1-4.5,0.3-9.4-2.1-13.4s-6.3-7-10.8-8.3
				c-1.1-0.3-1.7-1.4-1.4-2.5c0.3-1.1,1.4-1.7,2.5-1.4c5.5,1.5,10.2,5.2,13.1,10.1s3.8,10.8,2.5,16.4
				C467,268,466.2,268.6,465.3,268.6z"/>
		</g>
	</g>
	<g>
		<g>
			<g>
				<ellipse fill="#FFFFFF" cx="420" cy="204.6" rx="20.6" ry="12.2"/>
			</g>
		</g>
		<g>
			<g>
				<path fill="#1A1A1A" d="M431.8,189.6c-0.7,0-1.3-0.1-2-0.4c-9.8-3.7-16.8-1.4-17-1.3c-2.9,1-6-0.4-7-3.3s0.5-6,3.3-7.1
					c0.4-0.2,10.9-3.8,24.7,1.4c2.8,1.1,4.3,4.3,3.2,7.1C436.1,188.2,434.1,189.6,431.8,189.6z"/>
			</g>
		</g>
		<path fill="#1A1A1A" d="M420,190.3c-11.6,0-20.9,5.3-22.4,12.3c-0.3,1.3-0.4,2.6-0.4,3.8c-0.2,1.8-0.1,3.6,0,5.4
			c0.2,2.3,0.6,4.6,1.2,6.8c0.6,2.2,1.4,4.5,2.6,6.5c1.2,2,2.7,4.1,4.8,5.4c0.2,0.1,0.4,0.1,0.6,0c0.3-0.2,0.4-0.6,0.2-0.9l0,0
			c-1.1-1.9-1.8-3.9-2.5-5.9c-0.4-1.2-0.8-2.5-1.2-3.7c0.4,0.5,0.9,0.9,1.4,1.3c0.6,0.4,1.1,0.9,1.7,1.3c0.6,0.4,1.2,0.7,1.8,1.1
			l0.9,0.5c0.3,0.1,0.6,0.3,1,0.4l1.9,0.8c1.3,0.4,2.7,0.7,4,0.9c0.2,0,0.5-0.1,0.6-0.2c0.2-0.3,0.1-0.7-0.1-0.9l-0.1,0
			c-1.1-0.8-2.2-1.4-3.3-2.1l-1.5-1.1l-0.8-0.5l-0.7-0.6c-0.5-0.4-0.9-0.8-1.4-1.1c-0.4-0.4-0.9-0.8-1.3-1.3
			c-0.5-0.4-0.9-0.8-1.2-1.3c-0.4-0.5-0.8-0.9-1.2-1.4c-0.4-0.5-0.8-1-1.2-1.6c4.1,2.8,9.9,4.5,16.6,4.5c12.6,0,22.6-6.2,22.6-14.2
			S432.7,190.3,420,190.3z M420,214.8c-2.7,0-5.2-0.3-7.6-0.9c4.5-2.2,7.3-5.6,7.3-9.4s-2.9-7.1-7.3-9.4c2.3-0.6,4.9-0.9,7.6-0.9
			c10.1,0,18.6,4.7,18.6,10.3S430.1,214.8,420,214.8z"/>
	</g>
	<path fill="#FFFFFF" d="M323,557.4c0.4,1-0.1,2.2-1.1,2.6c0,0,0,0,0,0c-1.1,8.6-1.4,17.9-1.1,28c1.3,35.5,9.3,50.4,12.8,55.2
		c6.1-1,12.4-2.1,18.7-3.3c-1.9-4.6-18.5-47.6-7.2-92.2c18.4-72.4,79.3-56,79.3-56s-35-17.3-63.7,1.7
		c-21.5,14.2-34.1,34.8-38.5,63.3C322.6,556.8,322.8,557,323,557.4z"/>
	<g>
		<path fill="#1A1A1A" d="M293.9,457.3c0.8,1.3,1.5,2.7,2.6,3.8s2.5,1.9,4.2,2c1.6,0.1,3.4-0.8,4.2-2.2c0.3-0.6,0.4-1.3,0.4-2
			c-0.1-1.3-0.7-2.5-1.4-3.6c-2.2-3.9-4.7-9.4-10.6-8.5C286.9,447.8,292.4,454.7,293.9,457.3z"/>
	</g>
	<g>
		<path fill="#1A1A1A" d="M231,457.8c-0.9,0.5-1.7,0.4-2.6-0.3c-0.8-0.7-1.6-1.8-2.2-3.4C220.6,438.8,238.7,452.8,231,457.8z"/>
	</g>
	<g>
		<path fill="#FECE2F" d="M475.7,537.1c0,0-37.9,57.2-60.9,105.2S397.4,724,403.1,739s21.8,35.4,43.2,25.5c0,0,13,3.4,21.4-3.8
			c0,0,20.1,6.4,26.6-12.9c0,0,22.5-2.6,24.2-30.2c1.7-27.7-22-21-22-21l6-38l28.3-27.3l40.5-34.7l35.7-48.5
			c0,0,28.5-45.2,35.5-63.5s25.3-45.7,28.7-131c0,0-14.7-68-26.7-95.7c0,0-86,10-110,27s-22.3,33.3-23.7,64.3S507.4,445,500.4,471
			S475.7,537.1,475.7,537.1z"/>
	</g>
	<g>
		<path fill="#FFFFFF" d="M443,751c2,1.5,3.4,3.7,5,5.7c2.9,3.5,6.8,6.2,11.1,7.5c-5.2,1.6-11.1,1-16-1.4c-3.9-1.9-7.9-5.5-9.6-9.6
			C431.4,748.1,440.3,749,443,751z"/>
	</g>
	<g>
		<path fill="#FFFFFF" d="M469.5,749c2.8,1.5,5.1,3.8,7.6,5.7s5.7,3.5,8.8,3c-0.9,1.6-2.9,2-4.8,2.3c-3.6,0.5-7.3,1-10.9,0.6
			c-4-0.5-13.1-3.7-13.9-8.5C455.3,745.6,466.4,747.4,469.5,749z"/>
	</g>
	<g>
		<path fill="#FFFFFF" d="M485.8,737.8c2.7-0.8,5.5-0.4,8.3-0.1c7.8,0.7,16.3-0.3,22-5.7c-2.9,6.4-8.6,11.5-15.3,13.7
			c-5,1.7-10.6,1.7-15.6,0.2c-2.1-0.6-4.3-1.1-3.9-3.7C481.4,740.1,483.9,738.4,485.8,737.8z"/>
	</g>
	<g>
		<path fill="#FFFFFF" d="M540.4,282.3c0,0,15.3,5.3,12.7,24c-2.7,18.7-26.7,29.3-23.3,70s7.3,87.3-12.7,124
			c-20,36.7-57.3,83.3-79.3,130c-22,46.7-34.7,96-4.7,137.3c0,0-26.3-1.3-31.3-35.3s-3.7-50.3,7.3-77.3s48.3-89.3,48.3-89.3l33.7-58
			c0,0,15-62.7,16.3-90.3c1.3-27.7,2.3-73.7,2.3-73.7S504.1,295.3,540.4,282.3z"/>
	</g>
	<g>
		<path fill="#FFFFFF" d="M488.4,72.1c0,0,11.5,21,29,41s46,33.5,68.5,59.5s38.5,46.5,41,78s6.5,44.5,18.5,58s27.5,60.5,20,99.5
			l5-59.8c0,0-11-45.2-20-72.2s-21-57-46.5-93.5s-80.8-90.5-104.2-107L488.4,72.1z"/>
	</g>
	<g>
		
			<ellipse transform="matrix(0.9152 -0.4029 0.4029 0.9152 -136.8949 251.0128)" fill="#1A1A1A" cx="528.2" cy="450.9" rx="9.8" ry="16.2"/>
	</g>
	<path fill="#1A1A1A" d="M608.9,548.6c30.2-48.9,63.6-104.7,63.6-200.3c0-1.1-0.9-2-2-2s-2,0.9-2,2c0,95.8-34,151.3-64.2,200.3
		c-4.9,7-25.9,35.8-45.8,51.8c-28.9,23.3-38.7,28.8-51.1,35.7c-1.8,1-3.7,2.1-5.8,3.3c-30.4,17.4-28.7,49.5-27.5,59
		c2.6,20,15.7,24.9,16.3,25.1c0.2,0.1,0.4,0.1,0.7,0.1c0.2,0,0.3,0,0.5-0.1c1.2,0.5,2.4,0.7,3.6,0.7c1.8,0,3.6-0.5,5.3-1.4
		c6.1-3.4,5.2-11.8,5.2-12.1c-0.1-1.1-1.1-1.9-2.2-1.8c-1.1,0.1-1.9,1.1-1.8,2.2c0,0.1,0.6,6.1-3.2,8.2c-1.9,1.1-4.1,1.2-5.8,0.3
		c-1.9-1-3.2-3.1-3.5-5.9c-0.1-3.4,0.5-13.8,12.4-14.6c3.7-0.2,13.6,1.8,14.9,14c1.3,11.9-1.5,19.3-10.1,26.6
		c-11.1,9.5-25,3.1-25.6,2.8c-1-0.5-2.2,0-2.7,0.9c-0.5,1-0.1,2.2,0.9,2.7c0.4,0.2,5.8,2.7,12.9,2.7c-1.3,3.5-5.8,11.4-18.4,10.1
		c-9.6-1-15.5-9.9-15.5-10c-0.6-0.9-1.8-1.2-2.8-0.6c-0.9,0.6-1.2,1.8-0.6,2.8c0.2,0.3,3.7,5.6,9.9,9.1c-5.1,2.8-10.1,3.6-14.7,2.4
		c-9.4-2.3-14.9-12-15-12.2c-0.5-1-1.7-1.3-2.7-0.8c-1,0.5-1.3,1.8-0.8,2.7c0.2,0.4,4.1,7.2,11.2,11.5c-7.1,2.5-15,1.2-22.1-3.9
		C400.4,745.8,398,713,402.4,687c6.3-37.4,26.7-71.4,47.1-104.3c0.1-0.1,0.1-0.1,0.2-0.2l2.7-4.3c11-16,30.6-29.9,48.1-42.3
		c13.9-9.9,26-18.4,30.5-26c9.2-15.4,0-26.1-8.1-35.6c-1.7-2-3.5-4.1-5.1-6.1c-11.8-15.6-9.4-37.3-9.4-37.6c0-0.4,0-0.8-0.2-1.1
		c3.1-28.5,3.5-55.8,3.8-77.4c0.1-7.7,0.2-14.9,0.4-21.1c0.5-15.7,5.5-28.3,14.8-37.6c6.9-6.8,13.7-9.2,13.9-9.2
		c1-0.3,1.6-1.5,1.3-2.5c-0.3-1-1.5-1.6-2.5-1.3c-0.3,0.1-30,10.2-31.4,50.5c-0.2,6.2-0.3,13.5-0.4,21.2
		c-0.5,41.2-1.4,103.4-21.5,154.2c-9.6,24.3-24.2,48-38.4,70.9c-21.2,34.3-43.1,69.7-49.7,109.2c-8.8,52.2,12.7,72.2,19.5,77.1
		c5.4,3.9,11.4,5.9,17.3,5.9c4.1,0,8.2-1,12-3c0.5,0.2,1,0.3,1.5,0.4c1.7,0.4,3.5,0.6,5.2,0.6c4.9,0,9.8-1.6,14.9-4.9
		c0.1,0,0.1-0.1,0.2-0.1c1.3,0.4,2.6,0.7,4,0.8c1.1,0.1,2.2,0.2,3.2,0.2c15,0,19.2-12.1,20-14.5c4.2-0.6,8.6-2.3,12.8-5.8
		c9.5-8.2,12.9-16.9,11.4-30.1c-0.8-7.2-6.6-18.3-19.1-17.5c-0.1,0-0.2,0-0.3,0c-0.2-1.7-0.5-4.4-0.3-7.8c0.4-3.3,1.2-7.3,3.2-12.1
		c4-10.1,18.7-25.1,35.8-42.4c10.1-10.2,21.4-21.7,32.3-34.1l0.9-0.9c0,0,0.1-0.1,0.1-0.2c0.1-0.1,0.3-0.3,0.5-0.7
		c11-12.5,21.5-25.9,30.1-39.8c0.5-0.8,1-1.6,1.5-2.5c1.6-2.3,2.8-4.3,3.7-5.8C608.8,549,608.8,548.8,608.9,548.6z"/>
	<path fill="#1A1A1A" d="M663,308.4c-22.7-81-44.8-115.5-89.1-166.8c-32-37.1-60-59.3-71.7-66.8c-1.7-1.6-3.6-3.1-5.6-4.4
		c-1-0.7-2.1-1.3-3.1-1.9c-1.1-0.6-2.2-1.2-3.3-1.7c-4.4-2.1-9.1-3.5-13.8-4.3c-1.4-0.2-2.8-0.4-4.3-0.5c2.1-3,5.5-4.2,5.7-4.2
		c2.1-0.6,3.3-2.9,2.7-5c-0.6-2.1-2.9-3.3-5-2.7c-2.8,0.8-7.3,3.3-10.2,7.7c-0.4-3.7,0-7.4,0.3-9c0.4-2.2-1-4.3-3.1-4.7
		c-2.2-0.4-4.3,1-4.7,3.1c-0.1,0.4-1.3,6.5-0.2,13.1c-4.1-4.6-7.1-10.7-8.1-13.4c-0.8-2.1-3.1-3.1-5.1-2.3c-2.1,0.8-3.1,3.1-2.3,5.1
		c0.1,0.4,2,5.2,5.5,10.5c-4-0.1-7.9,0.1-11.9,0.6c-8.9,1.2-17.8,3.9-25.9,8.4c-2,1.1-4,2.4-5.9,3.7l-2.8,2.1
		c-0.9,0.7-1.8,1.5-2.7,2.3c-3.5,3.2-6.7,6.7-9.3,10.6c-0.3,0.5-0.7,1-1,1.5l-0.9,1.5c-0.6,1-1.2,2-1.7,3.1c-1,2.1-2,4.2-2.7,6.4
		c-1.6,4.3-2.4,8.9-2.8,13.4c-0.1,1.1,0.5,2.3,1.5,2.9c1.5,0.8,3.3,0.3,4.2-1.1l0.1-0.2c2.1-3.7,3.9-7.3,6.2-10.6c0,0,0,0,0-0.1
		c-0.4,1.1-0.7,2.1-1,3.2c-0.8,3-1.4,6.1-1.7,9.3c-0.1,1.4-0.2,2.8-0.2,4.2c-9,18-20.4,44.8-16.4,58.4c1.2,4.1,2.5,7.7,3.6,10.9
		c3.1,8.6,5.1,14.2,2.5,20.1c-0.6,1.4-1.9,3.9-3.4,7c-14.2,28.4-26.6,56.2-21.6,67.6c0.5,1.2,1.2,2.1,2.2,3
		c-3.5,2.3-9.8,7.5-8.6,15.5c0.5,3.6,2.7,6.6,6.2,8.8c2.9,1.8,6.7,2.9,11,3.3c-2.7,2.9-4.7,7.4-2.4,13.4
		c2.5,6.5,11.9,10.2,25.7,10.6c-3,4.4-9.3,13.9-15.5,25.2c-11.7,21.2-18,38.7-18.6,51.8c-0.7,15.2,2.3,25.8,9.2,31.5
		c3.5,2.9,7.9,4.3,12.8,4.3c1.9,0,3.8-0.2,5.8-0.7c1.4,2.7,3.2,5,5.4,7c-2.8,6.7-10.1,22.7-14.9,26.9c-0.1,0.1-0.3,0.3-0.4,0.4
		c-0.5,0.2-0.9,0.3-1.4,0.5c-19.7,8.2-35.4,25.6-44.2,49.1c-12.5,33.5-9.7,75.5,7.4,109.7c0.3,0.7,1.1,1.1,1.8,1.1
		c0.3,0,0.6-0.1,0.9-0.2c1-0.5,1.4-1.7,0.9-2.7c-16.6-33.3-19.4-74.1-7.3-106.5c8.4-22.4,23.3-39,41.9-46.8
		c18.5-7.7,40.4-2.1,55.5,3.9c16.6,6.6,28.8,15.1,29,15.2c0.9,0.6,2.2,0.4,2.8-0.5c0.6-0.9,0.4-2.2-0.5-2.8
		c-0.5-0.4-12.7-8.9-29.7-15.6c-18.9-7.5-36.1-9.7-50.4-6.5c4.8-7.1,9.9-18.6,11.7-22.9c1,0.6,2.1,1.2,3.2,1.8
		c6.1,2.8,13.6,4.1,21.8,4.1c17.3,0,38-5.9,55.5-16.7c0.9-0.6,1.2-1.8,0.7-2.8c-0.6-0.9-1.8-1.2-2.8-0.7
		c-24.5,15.1-56.1,20.4-73.6,12.4c-5.6-2.6-9.5-6.9-11.6-12.9c-4.2-12.1-0.6-30.2,10-50.9c4.3-8.4,9-16.5,13.6-24c0,0,0,0,0.1-0.1
		l3.9-5.7c12.2-15.4,33.5-24.5,51-32c11.2-4.8,20.8-8.9,25.8-13.7c9.3-9,10.4-18.1,8.4-23.6c-1.2-3.1-3.4-5.2-5.9-5.3
		c-2.6-0.1-5.2,1.1-8,3.8c-1,0.9-1.9,2-2.7,3.2c-0.2,0.2-0.5,0.4-0.6,0.6c-3.9,6.9-27,26.3-53.7,32.4c-16.2,3.7-30.6,5.1-41.7,4
		c-9.7-0.9-16.1-3.8-17.6-7.8c-2.9-7.6,3.9-11.1,4.6-11.5c0.2-0.1,0.4-0.2,0.5-0.3c6.4-0.3,13.8-1.8,21.6-4.6c1-0.4,1.6-1.5,1.2-2.5
		c-0.4-1-1.5-1.6-2.5-1.2c-15.3,5.3-28.6,5.9-35.7,1.5c-2.5-1.5-4-3.6-4.3-5.9c-1.1-7.7,8.4-12.5,8.6-12.6c0.1,0,0.1-0.1,0.2-0.1
		c2.3,0.8,5.1,1.1,8.2,1.1c16,0,39.2-9.2,42.8-10.7c1-0.4,1.5-1.6,1.1-2.6c-0.4-1-1.6-1.5-2.6-1.1c-18,7.3-48,15.5-52.1,6.4
		c-4.9-11.2,14.3-49.7,21.5-64.2c1.6-3.2,2.9-5.7,3.5-7.2c3.2-7.3,0.8-14.2-2.4-23c-1.1-3.1-2.4-6.7-3.5-10.7
		c-2.3-8,1.4-23.1,10.6-43.8c1-2.3,2-4.5,3.1-6.6c0.2,0.2,0.4,0.4,0.7,0.5c1.3,0.6,2.9-0.1,3.4-1.4l0.1-0.2c1.1-2.6,2.2-5.4,3.2-8
		c0.3-0.8,0.6-1.5,0.9-2.3l0,0.1c0,1.1-0.1,2.2-0.1,3.3c0.1,1.1,0.1,2.2,0.2,3.3c0.1,0.5,0.1,1.1,0.2,1.6l0.3,1.6
		c0.2,1.1,0.4,2.1,0.7,3.2c0.3,1.1,1.2,2,2.4,2.3c1.7,0.3,3.3-0.7,3.6-2.4l0-0.1c1.6-7.8,3.4-14.9,6.7-21.4c0.3-0.7,0.7-1.4,1-2.1
		c-0.2,0.6-0.4,1.3-0.6,1.9c-1.1,3.9-1.8,8-1.8,12.1c0.1,4.1,0.7,8.2,2.1,12c0.4,1,1.3,1.8,2.4,2c1.7,0.3,3.3-0.9,3.6-2.5l0-0.2
		c0.6-3.5,1.2-6.8,2.1-10c0.1-0.3,0.2-0.6,0.3-0.8c0.1,1.2,0.3,2.4,0.5,3.6c0.1,0.5,0.5,1,1,1.3c1,0.5,2.1,0.2,2.7-0.8l0-0.1
		c0.5-1,0.9-1.9,1.4-2.9c0.4,3.1,1,6.1,2.1,9c0.4,0.9,1.2,1.7,2.2,1.9c1.7,0.4,3.3-0.7,3.7-2.4l0-0.2c0.7-3.1,1.2-6.1,1.9-9
		c0.6-2.6,1.3-5.2,2-7.8c0.3,2.1,0.9,4.2,1.9,6.2c0.2,0.4,0.5,0.7,1,0.9c1,0.5,2.2,0,2.7-1l0-0.1c0.3-0.6,0.5-1.2,0.7-1.8
		c0.8,3.1,1.9,6.2,3.2,9.1c0.4,0.7,1.1,1.3,1.9,1.3c1.3,0.1,2.4-0.9,2.5-2.2l0-0.2c0.1-1.4,0.2-2.8,0.2-4.1c0-1.4-0.1-2.7,0.1-4
		c0.1-1.3,0.1-2.7,0.1-4c0-1.3,0.2-2.6,0.2-3.9c0-2.6,0.4-5.2,0.5-7.8c0.1-1.3,0.3-2.6,0.4-3.9l0.2-2l0.3-1.9c0.1-1,0.3-1.9,0.4-2.9
		c0,0.3,0,0.5,0,0.8c0.2,5.1,1,10.2,2.1,15.1c0.6,2.5,1.3,4.9,2.1,7.3c0.9,2.4,1.8,4.7,3,7c0.3,0.6,1,1,1.7,1c1,0,1.9-0.8,1.9-1.9
		v-0.1c0-2.5-0.2-5-0.5-7.4c-0.2-2.5-0.5-4.9-0.7-7.3c-0.3-2.9-0.6-5.7-1-8.6c0.8,2.9,1.8,5.9,3.2,8.7c0.3,0.5,0.8,1,1.5,1.1
		c1.1,0.2,2-0.6,2.2-1.6c0.2-1.1,0.3-2.2,0.3-3.3c0.5,1.7,1,3.3,1.6,5c0.7,2.1,1.5,4.2,2.4,6.2l0,0c0.3,0.6,0.9,1,1.6,1.1
		c1.1,0.1,2-0.7,2.1-1.8c0.2-2.3,0.1-4.5,0.1-6.8c-0.1-1.4-0.2-2.7-0.4-4.1c0.2,0.4,0.4,0.8,0.6,1.2c0.6,1.2,1.2,2.5,2.1,3.7
		l0.1,0.1c0.3,0.4,0.7,0.7,1.2,0.8c1.1,0.2,2.1-0.5,2.3-1.6c0.4-2.3,0.4-4.6,0.2-6.8c0.4,0.7,0.7,1.3,1.1,2c1.1,1.9,2.1,3.8,3.4,5.7
		l0.1,0.1c0.4,0.5,1,0.9,1.7,0.8c1-0.1,1.8-1,1.8-2c-0.1-1.2-0.3-2.3-0.4-3.5c-0.2-1.2-0.4-2.3-0.7-3.4c-0.6-2.2-1.3-4.5-2.2-6.6
		c-1.1-2.9-2.6-5.7-4.2-8.4c0.4,0.3,0.7,0.7,1.1,1c0.8,0.8,1.6,1.4,2.4,2.2c0.8,0.8,1.6,1.5,2.4,2.3c0.4,0.4,0.8,0.7,1.2,1.1
		c0.4,0.4,0.8,0.8,1.2,1.2c0.8,0.8,1.7,1.5,2.6,2.2c1.7,1.5,3.5,3.1,5.6,4.4l0.1,0.1c0.4,0.2,0.9,0.4,1.4,0.3
		c1.1-0.2,1.8-1.2,1.7-2.3c-0.2-1.3-0.5-2.5-0.8-3.7c-0.3-1.2-0.7-2.4-1.2-3.6c-0.5-1.1-1-2.3-1.6-3.4c-0.5-0.9-1-1.9-1.5-2.8
		c2.5,1.9,4.9,4,7.4,6.2l0.1,0c0.5,0.5,1.3,0.6,1.9,0.3c1-0.4,1.5-1.5,1.1-2.5c-0.2-0.6-0.5-1.1-0.7-1.7
		c12.6,9.6,34.5,28.4,60.8,58.8c43.8,50.8,65.8,85,88.3,165.2c4.2,15,7.9,31.7,11.2,49c-0.6,0.4-0.9,1-0.9,1.7
		c0,0.5,1,44.9-12.2,78.6c-1,2.3-1.7,4-1.9,4.6c-0.4,1,0.1,2.1,1.1,2.5c1,0.4,2.1-0.1,2.6-1c0.7-1.5,1.3-3.1,1.9-4.7
		c3.1-6.7,7.7-13.6,11.3-13.2c2.3,0.2,8.2,4.2,12.7,35.4c0,0.1,0,0.1,0,0.2c3.8,36.3,5.4,62.6,5.4,63.2c0.1,1.1,0.9,1.9,2,1.9
		c0,0,0.1,0,0.1,0c1.1-0.1,1.9-1,1.9-2.1C694.3,524.2,686.1,391,663,308.4z M413.3,354.5c-7.3,10.9-16,24.8-23.6,39.7
		c-11.2,21.7-14.8,40.8-10.2,54c0,0.1,0.1,0.2,0.1,0.3c-4.3,0.8-9.8,0.7-14.4-3c-5.7-4.7-8.4-14.5-7.7-28.2
		c0.5-10.5,4.9-23.1,10.5-35c0.1-0.1,0.2-0.2,0.2-0.3l1.9-3.3C383.4,357.3,404.7,354.7,413.3,354.5z"/>
	<g>
		<path fill="#FFFFFF" d="M594.4,328.6c-1.1,0-1.9-0.8-2-1.9c-1-19.9-8.6-31.4-8.7-31.5c-0.6-0.9-0.4-2.2,0.5-2.8
			c0.9-0.6,2.2-0.4,2.8,0.5c0.3,0.5,8.3,12.5,9.3,33.5C596.5,327.6,595.6,328.6,594.4,328.6C594.5,328.6,594.5,328.6,594.4,328.6z"
			/>
	</g>
	<g>
		<path fill="#FFFFFF" d="M604.1,324.1c-1.1,0-2-0.9-2-2c-0.1-8.9-2.5-13.8-2.5-13.8c-0.5-1-0.1-2.2,0.9-2.7c1-0.5,2.2-0.1,2.7,0.9
			c0.1,0.2,2.7,5.7,2.9,15.5C606.1,323.1,605.2,324,604.1,324.1C604.1,324.1,604.1,324.1,604.1,324.1z"/>
	</g>
	<g>
		<path fill="#FFFFFF" d="M628.5,343.6C628.5,343.6,628.5,343.6,628.5,343.6c-1.2,0-2-1-2-2.1c0.4-11.2-3-19.5-3.1-19.6
			c-0.4-1,0.1-2.2,1.1-2.6c1-0.4,2.2,0.1,2.6,1.1c0.2,0.4,3.8,9.3,3.4,21.3C630.5,342.7,629.6,343.6,628.5,343.6z"/>
	</g>
	<g>
		<path fill="#FFFFFF" d="M435.8,731c-0.5,0-1.1-0.2-1.5-0.6c-11.6-12.6-8-29.7-7.8-30.4c0.2-1.1,1.3-1.8,2.4-1.5
			c1.1,0.2,1.8,1.3,1.5,2.4l0,0c0,0.2-3.3,15.8,6.9,26.9c0.7,0.8,0.7,2.1-0.1,2.8C436.7,730.8,436.2,731,435.8,731z"/>
	</g>
	<g>
		<path fill="#FFFFFF" d="M448.8,731.3c-0.4,0-0.9-0.1-1.3-0.4c-9.6-7.8-9.7-17.5-9.7-17.9c0-1.1,0.9-2,2-2c1.1,0,2,0.9,2,2
			c0,0.3,0.2,8.2,8.3,14.8c0.9,0.7,1,2,0.3,2.8C449.9,731.1,449.3,731.3,448.8,731.3z M441.8,713L441.8,713L441.8,713z"/>
	</g>
	<g>
		<path fill="#FFFFFF" d="M566.9,575.1c-0.1,0-0.2,0-0.3,0c-1.1-0.1-1.9-1.2-1.7-2.2c1.9-14.1-5.1-25.6-5.2-25.7
			c-0.6-0.9-0.3-2.2,0.6-2.8c0.9-0.6,2.2-0.3,2.8,0.6c0.3,0.5,7.9,12.8,5.8,28.3C568.8,574.4,567.9,575.1,566.9,575.1z"/>
	</g>
	<g>
		<path fill="#FFFFFF" d="M577.4,564.1c-0.1,0-0.3,0-0.4,0c-1.1-0.2-1.8-1.3-1.6-2.4c1.3-6.7-1.8-13.2-1.8-13.2
			c-0.5-1-0.1-2.2,0.9-2.7c1-0.5,2.2-0.1,2.7,0.9c0.2,0.3,3.8,7.7,2.2,15.8C579.2,563.5,578.4,564.1,577.4,564.1z"/>
	</g>
	<g>
		<g>
			<path fill="#FFFFFF" d="M397.4,531.1c-0.9,0-1.7-0.6-1.9-1.5c-2.1-9-6.1-10.5-6.2-10.6c-1.1-0.3-1.6-1.4-1.3-2.5
				c0.3-1.1,1.5-1.7,2.5-1.3c0.6,0.2,6.2,2.2,8.9,13.5c0.3,1.1-0.4,2.2-1.5,2.4C397.7,531.1,397.6,531.1,397.4,531.1z"/>
		</g>
		<g>
			<path fill="#FFFFFF" d="M409.4,536.6c-1.1,0-1.9-0.8-2-1.9c-0.4-9.7-4.6-12.9-4.7-13c-0.9-0.7-1.1-1.9-0.4-2.8
				c0.6-0.9,1.9-1.1,2.8-0.5c0.2,0.2,5.8,4.2,6.4,16C411.5,535.7,410.6,536.6,409.4,536.6C409.5,536.6,409.5,536.6,409.4,536.6z"/>
		</g>
	</g>
	<g>
		<path fill="#1A1A1A" d="M390.3,458.1l-7.3-9.2c-0.5-0.6-1.3-0.9-2-0.7c-15.4,3.7-20.8-7.9-21-8.4c-7.9-17.7,0.6-42.3,0.7-42.5
			c0.2-0.6,0.1-1.2-0.2-1.7c2.8-3.5,4.1-6.1,4.2-6.4c0.5-1,0.1-2.2-0.9-2.7c-1-0.5-2.2-0.1-2.7,0.9c-0.1,0.1-4.3,8.6-15,15.8
			c-4.9,2.9-9.8,5.1-13.8,6.8c-3.4,1.1-7.1,2-11.2,2.6c-29.9,4.1-53.3-10.3-70.3-23.4c-18.1-13.9-95.4-71.6-106.6-79.5
			c-11.1-8-31.3-13.7-44.3-9c-13.9,5-23.8,17.1-24.8,30.2c0,0.1,0,0.2,0,0.3c-3-0.2-10.6-1.3-14.8-6.3c-2.7-3.2-3.6-7.5-2.7-12.8
			c1.1-6.7,4.9-11.5,11.3-14.4c5-2.2,9.7-2.4,9.8-2.4c1.1,0,2-1,1.9-2.1c0-1.1-1-2-2.1-1.9c-0.2,0-21.8,0.8-24.9,20.2
			c-1.1,6.6,0.2,12,3.6,16.1c1.6,1.9,3.6,3.4,5.7,4.5c-5.2,3.3-11.2,9.8-9.6,19.2c0.9,5.1,4.1,9.2,9.4,12.1
			c-1.2,2.7-2.7,8.4,0.5,15.6c1.4,3.3,4.2,5.8,8.3,7.5c-0.3,2-0.4,5.6,2.3,10.7c2.6,5,10.9,6.5,18.5,6.5c4.7,0,9.2-0.6,12-1.3
			c0.4-0.1,0.8-0.2,1.2-0.3c3.2,3.3,17,14.9,49.2,13.7c4,6.3,26.3,41.2,58.1,74.6c20.1,21.1,38.3,39.5,56,50.5
			c6.2,3.8,12.2,6.7,18.2,8.6c2.6,1,5,1.7,7.2,2.2c2.3,0.5,4.9,0.8,7.5,0.8c1.4,0,2.9-0.1,4.3-0.2c6.2-0.2,12.4-1.4,18.7-3.7
			c0.1-0.1,0.3-0.1,0.4-0.2c0,0,0,0,0.1-0.1c0.1-0.1,0.2-0.2,0.3-0.3c0,0,0.1-0.1,0.1-0.1c0.1-0.1,0.2-0.3,0.3-0.4c0,0,0,0,0,0
			c0.1-0.2,0.1-0.3,0.2-0.5c0,0,0,0,0-0.1c0-0.2,3.1-17.1,18.2-36.8c7.8-10.1,15.2-15.1,20.1-17.6c5.3-2.7,8.8-3,8.8-3
			c0.7,0,1.3-0.4,1.6-1l15.7-28.3C390.9,459.6,390.8,458.7,390.3,458.1z M57.4,350.5c-0.8-4.7,0.7-8.8,4.4-12.4
			c2.6-2.6,5.6-3.9,6.1-4.1c3,0.9,5.8,1.2,7.3,1.3c0.5,6.6,3.1,12.5,7.6,16.5c4.1,3.6,9.1,5.3,13.5,4.5c6.4-1.2,10.5-8.6,11.2-19.2
			c1.2,0.3,2.8,0.6,4.8,0.6c0.5,0,1,0,1.6-0.1c0.1,0,0.1,0,0.2,0c-0.1,2.7,0.1,7.1,1,12.6c-5.7,13.7-18.5,13.7-27,13.7
			c-1.2,0-2.2,0-3.2,0C76.2,364.2,59.3,361.7,57.4,350.5z M67,377.3c-2.6-5.9-1.4-10.4-0.5-12.4c0.3,0.1,0.5,0.2,0.8,0.3
			c6.6,2.3,13.3,2.7,16.5,2.7c0.5,0,0.9,0,1.2,0c0.9,0,1.9,0,3.1,0c8,0,20.9,0.1,28.3-11.6c1,3.7,2.3,7.6,4.2,11.6
			c-1.8,5.9-7.2,15.4-23.3,16.8C80.2,386.1,69.7,383.5,67,377.3z M103.4,398.4c-7.6,1.9-23.4,1.8-26-3.2c-1.9-3.6-2.1-6.2-1.9-7.6
			c3.7,0.9,8,1.4,13.2,1.4c2.8,0,5.7-0.1,8.9-0.4c6.5-0.5,12-2.4,16.5-5.5c0,0.2,0,0.4,0,0.6l0,1c0.1,1.9,0.2,3.6-0.1,5.3
			C112.6,393.9,108.6,397.2,103.4,398.4z M109.7,400.3c1.4-0.7,2.7-1.6,3.8-2.6c0.3-0.1,0.5-0.2,0.8-0.4c0.1-0.1,0.3-0.3,0.6-0.6
			c6.2-5.8,15.2-7.8,24.6-5.4c0,0,0,0,0,0c0.8,0.2,1.7-0.1,2.1-0.8c0.1-0.1,0.3-0.2,0.4-0.4c0.7-0.9,0.5-2.1-0.4-2.8
			c-22.9-17.1-23.7-43.8-23.5-50.4c3.9-1.2,8.5-3.7,12.9-9.2c0.7-0.9,0.6-2.1-0.3-2.8c-0.9-0.7-2.1-0.6-2.8,0.3
			c-3.9,4.9-7.9,7.1-11.4,8c0,0-0.1,0-0.1,0c-0.5,0-0.9,0.1-1.3,0.3c-3.5,0.6-6.3-0.1-7.5-0.5c0-2-0.2-4-0.4-6.1
			c-0.1-1.1-1.1-1.9-2.2-1.7c-1.1,0.1-1.9,1.1-1.7,2.2c1.6,13.2-1.7,23.9-7.6,25c-3.1,0.6-7-0.8-10.1-3.6c-2.7-2.4-7-7.8-6.3-17.6
			c0.9-11.5,9.8-22.3,22.2-26.8c11.5-4.1,30.3,1.1,40.7,8.5c5.2,3.8,25.2,18.5,46.7,34.6c0.1,0.2,0.3,0.4,0.5,0.6
			c0.4,0.4,43.3,37.4,56,54c6.1,7.9,8.8,15.2,11.3,21.6c2.7,7.1,5.1,13.3,11.1,17.8c2.7,2,4.9,2.7,6.9,2.2c2.9-0.8,4.2-3.9,5.6-7.1
			c1.5-3.5,3-7.1,6.4-7.7c12-2,25.9,12.5,31.7,32.9c6.3,22.1,4.4,49.1-11.4,57.7c-15.8,8.7-36.7,4.3-60.5-12.5
			c-23.9-16.9-43.3-46-47.2-70.7c-3.1-19.9-6.1-38.7-16.4-43.8c-3.9-1.9-7-2.4-9.6-1.4c-4.1,1.6-5.9,6.4-7.8,11.4
			c-2.4,6.3-8.5,8.7-9.6,9C127.7,412.9,114.2,404.1,109.7,400.3z"/>
		<path fill="#1A1A1A" d="M209.6,448.4c0.6,2,1.7,3.9,3.5,4.9c1.8,1.1,4.2,1.2,5.8-0.1c0.7-0.6,1.2-1.3,1.5-2.2
			c0.6-1.6,0.6-3.4,0.5-5.2c-0.3-6,0-14.2-7-16.7c-7.5-2.6-5.3,9-5.2,13.1C208.9,444.3,209,446.4,209.6,448.4z"/>
	</g>
</g>
<g>
	<g>
		<g>
			<path fill="#FECE2F" d="M194.3,234.1c0,0,7.5,8.6,17.7,5.2c0,0-4,5.9-9.2,7C198.5,247.2,190.1,243.3,194.3,234.1z"/>
			<path fill="#FECE2F" d="M176.1,241.4c0,0,11.2,2.2,17.2-6.7c0,0,0.1,7.6-3.3,10.6C186.7,248.2,177.6,248.2,176.1,241.4z"/>
			<path fill="#FECE2F" d="M176.5,252.1c0,0,9.4,1.6,15.5-7.3c0,0,0.8,7.5-2.8,10.4C185.5,258,178,258.8,176.5,252.1z"/>
			<path fill="#FECE2F" d="M175.7,260.1c0,0,9.2,2.5,16.1-5.7c0,0,0.1,7.6-3.8,10C184.1,267,176.6,267,175.7,260.1z"/>
			<path fill="#FECE2F" d="M176.6,271.9c0,0,9.6,0.5,14.5-9c0,0,1.7,7.4-1.6,10.6C186.2,276.8,178.9,278.5,176.6,271.9z"/>
			<path fill="#FECE2F" d="M179.2,282.1c0,0,9.6-0.6,13.4-10.6c0,0,2.5,7.1-0.3,10.8C189.3,285.9,182.2,288.4,179.2,282.1z"/>
			<path fill="#FECE2F" d="M182.1,293.8c0,0,9.3-2.2,11.4-12.7c0,0,3.7,6.6,1.5,10.7C192.7,295.7,186.1,299.4,182.1,293.8z"/>
			<path fill="#FECE2F" d="M193.9,242.9c0,0,4.8,8.2,16.4,5c0,0-2.7,6.1-7.9,7.2C198.1,256,189.7,252.2,193.9,242.9z"/>
			<path fill="#FECE2F" d="M192.8,251.9c0,0,5.1,8.6,15.3,5.2c0,0-1.5,5.9-6.8,7C197,265,188.6,261.2,192.8,251.9z"/>
			<path fill="#FECE2F" d="M192.8,262.4c0,0,5.1,8.6,15.3,5.2c0,0-1.5,5.9-6.8,7C197,275.5,188.6,271.7,192.8,262.4z"/>
			<path fill="#FECE2F" d="M194.8,273.8c0,0,5.1,8.6,15.3,5.2c0,0-1.5,5.9-6.8,7C199.1,286.9,190.7,283.1,194.8,273.8z"/>
			<path fill="#FECE2F" d="M196.8,284.9c0,0,5.1,8.6,15.3,5.2c0,0-0.6,4.2-5.8,5.3C201.9,296.4,195.2,294.3,196.8,284.9z"/>
			<path fill="#1A1A1A" d="M213.3,288.6c-0.5-0.4-1.2-0.6-1.9-0.4c-3.4,1.1-6.1,0.7-8.2-0.3c0.2,0,0.4,0,0.5-0.1
				c6.4-1.3,8.2-8.1,8.3-8.4c0.2-0.7,0-1.5-0.6-2c-0.5-0.5-1.3-0.7-2-0.4c-3.6,1.2-6.4,0.6-8.5-0.4c0.2,0,0.5-0.1,0.7-0.1
				c6.4-1.3,8.2-8.1,8.3-8.4c0.2-0.7,0-1.5-0.6-2c-0.5-0.5-1.3-0.7-2-0.4c-2.4,0.8-4.5,0.8-6.3,0.4c0.2,0,0.4,0,0.5-0.1
				c6.4-1.3,8.2-8.1,8.3-8.4c0.2-0.7,0-1.5-0.6-2c-0.5-0.5-1.3-0.7-2-0.4c-0.4,0.1-0.7,0.2-1.1,0.3c3.8-2.4,5.7-6.7,5.8-6.9
				c0.3-0.7,0.2-1.5-0.3-2.1c-0.5-0.6-1.3-0.8-2-0.6c-0.8,0.2-1.5,0.4-2.3,0.5c3.6-2.3,6-5.8,6.2-6c0.5-0.7,0.5-1.6-0.1-2.3
				c-0.5-0.7-1.4-1-2.2-0.7c-8.8,2.9-15.3-4.3-15.6-4.7c-0.4-0.5-1.1-0.8-1.8-0.7c-0.5,0.1-1,0.3-1.3,0.7c-0.4,0.1-0.8,0.4-1,0.8
				c-5.2,7.6-14.8,6-15.2,5.9c-0.7-0.1-1.3,0.1-1.8,0.6c-0.5,0.5-0.7,1.2-0.5,1.8c0.7,3.2,2.9,5.6,6.2,6.7c1,0.3,2.2,0.5,3.3,0.6
				c0,0,0,0,0,0c-3.6,1.4-6.7,1-6.9,1c-0.7-0.1-1.3,0.1-1.8,0.6c-0.5,0.5-0.6,1.2-0.5,1.8c0.6,2.8,2.3,4.9,4.6,6
				c-1.7,0-2.8-0.3-2.9-0.3c-0.6-0.2-1.3,0-1.8,0.4c-0.5,0.4-0.8,1.1-0.7,1.8c0.4,3.1,2,5.5,4.6,6.8c1.2,0.6,2.5,0.8,3.8,0.9
				c0.6,0,1.1,0,1.7-0.1c-3.5,2.1-6.9,2-7.1,2c-0.7,0-1.3,0.3-1.7,0.8c-0.4,0.5-0.5,1.2-0.3,1.9c1,3,3.2,5,5.9,5.6
				c0.6,0.1,1.1,0.2,1.7,0.2c0.8,0,1.5,0,2.2-0.2c-2.8,1.7-5.3,1.9-5.5,1.9c-0.7,0-1.3,0.4-1.6,1c-0.3,0.6-0.4,1.3-0.1,1.9
				c1.4,2.8,3.7,4.6,6.6,4.9c0.2,0,0.4,0,0.6,0c1.4,0.1,2.7-0.2,3.9-0.7c-2.9,3.5-6.6,4.5-6.9,4.6c-0.6,0.2-1.2,0.6-1.4,1.2
				c-0.2,0.6-0.1,1.3,0.3,1.9c1.7,2.3,3.9,3.6,6.5,3.7c0.3,0,0.5,0,0.8,0c3.6-0.2,6.7-2.7,8.4-5.1c0.4,0.6,0.9,1.2,1.3,1.6
				c1.9,1.8,4.3,2.5,6.5,2.6c1,0,1.9-0.1,2.7-0.2c6.5-1.4,7.4-6.8,7.4-7C214.1,289.8,213.9,289.1,213.3,288.6z M206.5,281.7
				c-0.8,1-2,2-3.5,2.3c-1.8,0.4-4.6-0.4-6.1-2.3c-0.8-1-1.2-2.3-1.1-3.8C198.1,280.1,201.8,282,206.5,281.7z M204.4,270.4
				c-0.8,1-2,2-3.5,2.3c-1.8,0.4-4.6-0.4-6.1-2.3c-0.8-1-1.2-2.3-1.1-3.8C196.1,268.8,199.7,270.7,204.4,270.4z M200.9,262.2
				c-1.7,0.4-4.6-0.4-6.1-2.3c-0.7-0.8-1-1.8-1.1-2.9c0-0.3,0.1-0.6,0.1-0.8c2.4,2.1,6.1,4,10.7,3.7
				C203.6,260.9,202.4,261.8,200.9,262.2z M202,253.1c-1.8,0.4-4.6-0.4-6.1-2.3c-0.9-1.1-1.2-2.4-1.1-3.9c2.4,2.1,6.3,3.9,11.3,3.7
				C205,251.7,203.6,252.8,202,253.1z M206.6,242.1c0,0,0.1,0,0.1,0c-1.2,1-2.7,1.9-4.3,2.2c-1.7,0.4-4.6-0.4-6.1-2.3
				c-1-1.2-1.3-2.6-1-4.3C197.6,239.5,201.6,241.9,206.6,242.1z M181.6,244.8c-0.8-0.3-1.4-0.6-2-1.1c3-0.1,7.2-0.7,11-3.3
				c-0.4,1.4-1,2.7-1.9,3.5C187.4,245,184.2,245.6,181.6,244.8z M189.6,250.2c-0.3,1.4-0.9,2.6-1.8,3.4c-1.6,1.3-4.5,2.2-6.8,1.4
				c-0.6-0.2-1-0.5-1.4-0.9C182.4,253.9,186.1,253.1,189.6,250.2z M180,263.5c-0.5-0.3-1-0.6-1.3-1c2.7,0.1,6.5-0.4,10.3-2.9
				c-0.4,1.3-1.1,2.5-2.1,3.2C185.2,263.9,182.2,264.5,180,263.5z M181.5,274.3c-0.6-0.1-1.1-0.4-1.5-0.7c2.6-0.5,6.3-1.8,9.4-5
				c-0.2,1.4-0.5,2.7-1.4,3.5C186.6,273.6,183.9,274.8,181.5,274.3z M184.4,283.9c-0.6-0.1-1.1-0.2-1.6-0.5c2.5-0.8,6-2.5,8.8-6.1
				c0,1.4-0.2,2.8-0.9,3.7C189.3,282.6,186.7,284.2,184.4,283.9z M193.2,290.7c-1,1.8-3.3,3.8-5.7,3.9c-0.6,0-1.1,0-1.7-0.2
				c2.4-1.2,5.5-3.5,7.6-7.5C193.7,288.3,193.7,289.7,193.2,290.7z M205.8,293.5c-1.6,0.3-4,0.2-5.6-1.3c-0.6-0.6-1-1.3-1.3-2.1
				c2.2,1.6,5.1,2.8,8.6,2.8C207.1,293.2,206.5,293.4,205.8,293.5z"/>
		</g>
		<g>
			<g>
				<path fill="#FECE2F" d="M124.8,298.8c-0.1,0.6-0.3,1.4-0.8,1.7c-0.5,0.3-1.1,0.1-1.6,0c-9.6-2.7-20.2-1.5-29,3.3
					c-0.5,0.2-0.9,0.5-1.4,0.5c-0.5,0-0.9-0.2-1.4-0.3c-2.1-0.8-4.2-1.6-6.3-2.5c-0.8-0.3-1.5-0.6-2.2-1.1c-1.1-0.9-1.8-2.3-2.2-3.6
					c-1.1-3.6-1.2-7.6-0.2-11.3c0.8-2.8,2.1-5.4,2.9-8.1c0.5-1.6,0.7-3.3,1.1-4.9c1.4-5.7,4.2-10.9,5.8-16.5c0.5-1.8,0.9-3.6,2.1-5
					c1.2-1.4,3.4-2.1,4.8-0.9c1,0.8,1.2,2.2,1.5,3.4c1.2,5.7,4.5,11.2,9.8,13.5c2.6,1.1,5.4,1.4,8.3,1.6c3.7,0.2,7.4-0.1,11.1,0.1
					c3.8,0.2,1.8,4.5,1.3,7.3C127.3,283.6,126.1,291.2,124.8,298.8z"/>
			</g>
			<g>
				<path fill="#FECE2F" d="M84.9,277.5c-0.5,1.7-1,3.4-2,4.7c-3.7-2.1-7.1-4.9-9.3-8.5c-2.2-3.7-3-8.2-1.7-12.3
					c0.7-2.2,2.1-4.1,3.5-6c0.8-1.1,1.7-2.1,2.8-3c3.7-3,13.1-3.4,12.7,3.2c-0.2,3.3-1.6,6.6-2.5,9.7
					C87.2,269.4,86.1,273.5,84.9,277.5z"/>
			</g>
			<g>
				<path fill="#FECE2F" d="M132.4,222.7c-1.9,3.4-6.4,5.5-10,3.8c-1.9,3.7-3.9,7.3-5.8,11c-1.4-0.2-2.7,0.1-4.1,0
					c-1.4,0-2.9-0.4-3.6-1.6c-0.5-0.8-0.5-1.8-0.5-2.7c0-5.1,0.4-10.2,2-15.1c1.6-4.8,4.5-9.4,8.7-12.2c1.5-1,3.3-1.8,5.1-1.7
					c1.9,0.1,3.6,1.2,4.9,2.5C133,210.8,135.4,217.3,132.4,222.7z"/>
			</g>
			<g>
				<path fill="#FECE2F" d="M101.8,243.3c-4.4,3.6-9.8,20.6,13.4,25.5c12.3,2.6,31.8-2.9,43-17.4c8.3-10.8,22.4-23.9,28.1-23.3
					c0.1,0,1.9,1.4,3.7,2.9c2.4,2,5.9,1.9,8.3-0.1h0c2.3-2,2.1-5.7-0.5-7.3c-4.7-2.9-12-6.3-18.8-4.1c-11.1,3.6-20.6,11.8-33.1,19.8
					C133.1,247.5,118.3,229.5,101.8,243.3z"/>
			</g>
			<g>
				<path fill="#FFFFFF" d="M173.8,221.6c-9,4.1-17.3,11-27.9,17.8c-12.8,8.2-27.6-9.8-44.2,3.9c-4.4,3.6-9.8,20.6,13.4,25.5
					c12.3,2.6,31.8-2.9,43-17.4c6-7.7,14.8-16.6,21.5-20.8L173.8,221.6z"/>
			</g>
		</g>
	</g>
	<path fill="#1A1A1A" d="M201.9,227c-0.1-2.1-1.2-3.9-3-5c-5.2-3.3-13-6.7-20.5-4.3c-8.2,2.6-15.2,7.5-23.4,13.2
		c-3.2,2.2-6.6,4.6-10.2,6.9c-5,3.2-10.4,1.8-16.7,0.2c-2.7-0.7-5.5-1.4-8.4-1.7l3.2-7.4c0.9,0.2,1.7,0.4,2.7,0.4c0.4,0,0.8,0,1.2,0
		c2.7-0.2,5.1-1.4,7-3.6c7.4-8.7-3.1-19.9-3.6-20.3c0,0,0,0,0,0c-3.4-3.7-7.4-5.7-12.1-5.8c-6.8-0.1-14.5,3.8-21.3,10.8
		c-4.9,5.1-10.6,4.8-16.6,4.5c-2.5-0.1-5.2-0.2-7.8,0.1c-6.4,0.8-12,4.1-15.3,9.1c-3.3,5-4,11.2-2.2,17.4c2,6.5,7.2,11.6,14.8,14.1
		c0.7,0.2,1.4,0.5,2.2,0.6c-0.6,1-1.2,2.1-1.8,3.2c-1.8,4.1-2.1,8.3-0.7,11.8c0.6,1.5,1.5,2.9,2.3,4.1c1.9,2.8,4.1,5.5,7.1,7.2
		c-0.7,2.7-1.2,5.1-1.5,7c-0.9,4.6-0.1,8.5,2.3,11.3c3.8,4.5,10.2,5,11.6,5.1c0.1,0,0.2,0,0.3,0c0.5,0,1-0.2,1.3-0.5l0.1,0.2
		l4.9-3.1l-6.3-0.6c-0.1,0-5.9-0.1-8.8-3.6c-1.6-1.9-2.1-4.6-1.4-8c1.8-9.5,6-23.8,11.3-34.8c1.2-0.4,2.3-0.8,3.4-1.3
		c0.1,0.9,0.2,1.7,0.4,2.6c0.2,1,0.6,2.1,1.2,3.2c2.4,5.3,10.2,18.9,27.7,22.6l-3.2,18.9c-0.2,1.1,0.9,0.2,1.9,0.4
		c0.1,0,0.2,0,0.3,0c1,0,1.6,0.9,1.7-0.1l3.4-19.9c0.1-0.2,0.2-0.4,0.2-0.6l1.8-10.9l0,0c0,0,0,0,0,0l0,0c0,0,0,0,0,0
		c10.1-2.3,20.8-8,28.3-17.6c6.2-8,14.3-15.8,20.1-19.7c0.1,0,0.2-0.1,0.3-0.1c0.2-0.1,0.4-0.3,0.5-0.4c2.1-1.3,3.8-2.1,5-2.2
		c0.4,0.3,1.3,1,3.2,2.5c3.2,2.6,7.7,2.5,10.9-0.2C201.2,231.1,202.1,229.1,201.9,227z M79.9,278.4c-1.9-1.4-3.4-3.4-4.9-5.5
		c-0.7-1-1.5-2.1-1.9-3.3c-1-2.5-0.7-5.7,0.7-8.8c0.6-1.4,1.5-2.7,2.4-4c1.2,0.2,2.3,0.3,3.5,0.3c2.6,0.1,5.3-0.1,7.9-0.5
		C84.3,263.8,81.7,271.7,79.9,278.4z M119.6,217.5c3.7-7.7,6.8-9.2,8-9.1c1.5,1.8,7.5,9.3,3.1,14.6c-1.2,1.4-2.5,2.1-4.2,2.2
		c-3.6,0.3-7.3-2.4-8.7-3.4C118.4,220.3,118.9,218.9,119.6,217.5z M115.6,227.7c0.2-0.7,0.5-1.4,0.7-2.1c0.8,0.5,1.7,1.2,2.9,1.7
		l-3.7,8.6c-0.2,0-0.3,0-0.5,0c-0.8-0.1-1.6-0.2-2.4-0.3C113.7,233.1,114.7,230.4,115.6,227.7z M156.6,250.2
		c-10.6,13.6-29.2,19.2-41,16.6c-8.7-1.9-14-5.7-15.3-11.1c-0.3-1.4-0.4-2.7-0.3-3.9c0,0,0,0,0,0c4.7-3.3,7.8-7,10.1-11
		c2.3-0.7,4.6-1,6.8-0.9c3.4,0.1,6.8,1,10.3,1.9c6.6,1.7,13.4,3.4,19.8-0.7c3.7-2.3,7.1-4.7,10.3-7c5.5-3.8,10.5-7.3,15.7-9.9
		l3.4,6.2C169.6,235.4,161.6,243.7,156.6,250.2z M197,229.5c-1.7,1.4-4.1,1.4-5.8,0.1c-4.1-3.3-4.1-3.3-4.8-3.4c-0.1,0-0.2,0-0.3,0
		c-1.7-0.1-3.9,0.7-6.3,2.1l-3.2-5.7c1-0.4,2-0.8,3-1.1c6-1.9,12.6,1.1,17.1,3.9c0.7,0.4,1.1,1.1,1.2,1.9
		C198,228.1,197.7,228.9,197,229.5z"/>
</g>
</svg>
