<?xml version="1.0" encoding="utf-8"?>
<!-- Generator: Adobe Illustrator 21.0.0, SVG Export Plug-In . SVG Version: 6.00 Build 0)  -->
<svg version="1.1" baseProfile="tiny" id="Layer_1" xmlns="http://www.w3.org/2000/svg" xmlns:xlink="http://www.w3.org/1999/xlink"
	 x="0px" y="0px" viewBox="0 0 2000 2000" xml:space="preserve">
<g id="Layer_14">
	<g>
		<path fill="#FECE2F" d="M1395.4,1737.1c-555.6,79.5-941.8,238.2-1213.2-204S40,518.2,470.9,253.8s825.4-10.6,1209.3,336.7
			C2204.4,1064.7,1898.9,1667.3,1395.4,1737.1z"/>
	</g>
</g>
<g id="Layer_13">
	<g>
		<g>
			<path fill="#FFFFFF" d="M1123.4,1834.2l-65-189.9l-6.1-28.6c0,0,13.4-9.4,13.8-30.9c0.3-21.5-12.7-53-20.9-56.7
				c-8.3-3.7-12.5-4.7-15.8,2c0,0-9.3-13.4-18-9.6s-8,14.8-8,14.8s-12.2-15-18-11.8s-7.3,21.7-7.3,21.7s-10.2-7.9-15.2-4.9
				s-4.2,23.2-4.2,23.2s-26.8,23.8-19.5,42s34.8,21.5,38,29.2s38.2,286.3,38.2,286.3L1123.4,1834.2z"/>
		</g>
		<path fill="#1A1A1A" d="M1126.1,1833.2c-28.7-81.4-71-205.5-71-216.5c0.9-1.6,2.3-3.2,3.9-5c4.7-5.3,11-12.6,10-27.1
			c-1.3-17.9-9.2-48.9-22.1-58.9c-3.2-2.5-10.8-6.3-16.4-2.7c-0.9,0.6-1.7,1.4-2.4,2.2c-1.5-2.6-3.7-5.3-6.7-6.9
			c-3.4-1.8-7.1-2-11-0.6c-3,1.1-5.5,3.5-7.1,7c-0.6,1.3-1.1,2.8-1.5,4.3c-0.4-0.6-0.9-1.1-1.4-1.7c-5.4-5.8-11.5-7.8-17.6-5.7
			c-5.4,1.9-8,7.7-7.9,17.1c-2.1-1.3-4.7-2.5-7.5-2.7c-3.3-0.2-6.4,0.9-9,3.2c-2.1,1.8-4.1,6-3.3,21.6c-5.1,5.3-29.2,32.3-17,50.7
			c6.8,10.4,16.6,14.6,24.5,17.9c6.6,2.8,11.8,5,13.6,9.8c3.7,10,27.4,207.2,36.2,282.3c0.2,1.6,1.5,2.7,3,2.7c0.1,0,0.2,0,0.4-0.2
			c1.6-0.2,2.8-1.7,2.6-3.3c-1.3-11-31.7-270.9-36.5-283.7c-2.7-7.2-9.6-10.1-16.9-13.2c-7.5-3.2-16-6.8-21.9-15.7
			c-7.9-11.9,5.3-30.3,12.6-39c0.1,0.6,0.1,1.3,0.2,1.9c1.2,12.8,3.2,25.2,3.2,25.3c0.3,1.5,1.6,2.5,3,2.5c0.2,0,0.4,0,0.5,0
			c1.7-0.2,2.8-1.8,2.5-3.4c-4.1-25.1-5.3-48.8-2.7-51.7c1.5-1.3,2.9-1.8,4.6-1.7c3.5,0.3,7.1,3.4,8.6,4.9c1.1,8,3.2,15,3.3,15.3
			c0.4,1.3,1.6,2.1,2.9,2.1c0.3,0,0.6,0,0.8-0.2c1.6-0.4,2.5-2.1,2-3.7c-3.7-12.1-6.2-31,0.1-33.2c9.3-3.2,16.1,11.3,16.2,11.4
			c0.1,0.2,0.2,0.4,0.4,0.6c0.3,3.5,1.2,7.2,2.5,10.8c0.4,1.2,1.6,2,2.8,2c0.3,0,0.7-0.1,1.1-0.2c1.6-0.6,2.4-2.3,1.8-3.9
			c-2.8-7.6-3-15.7-0.7-20.7c0.6-1.4,1.8-3.2,3.7-3.9c2.3-0.8,4.3-0.8,6.1,0.2c3.9,2.1,6.1,8,6.6,10.1c0.1,0.2,0.1,0.4,0.2,0.6
			c-0.1,3.7,0.4,8.1,1.6,13.4c0.4,1.7,2,2.7,3.6,2.3c1.7-0.4,2.7-2,2.3-3.6c-3.2-14.3-0.1-17.5,0.9-18.2c2.4-1.6,7.1,0.4,9.5,2.3
			c9.9,7.7,18.4,34.9,19.8,54.6c0.9,12-4.1,17.7-8.5,22.7c-1.9,2.2-3.7,4.3-4.9,6.7c-1.1,2.2-2.7,5.6,34.1,114.2
			c18,53.1,36.6,106.1,36.8,106.6c0.4,1.2,1.6,2,2.8,2c0.3,0,0.7,0,0.9-0.2C1125.8,1836.5,1126.7,1834.8,1126.1,1833.2z"/>
	</g>
</g>
<g id="Layer_12">
	<g>
		<g>
			<path fill="#FFFFFF" d="M1769,1940.4l30.3-166c0,0,9.5-65.2,3.1-81.9s-42.6-35.2-50.5-55.3c-7.9-20.1-25.6-69-25.6-69
				s10.3-9.8,21.7,4.2c11.3,14,36.1,42.2,46.7,34.4c10.6-7.8,18.3-124.7,28.4-125.6c10.2-0.9,7.3,85.9,12.6,86.9
				s17.2-53.8,17.2-53.8s5.2-57.7,14.2-57.4s13,43.9,8.5,63.6s-1.7,64,2.8,63.6s23.2-59.1,23.2-59.1s14.2-32.7,19-29.5
				s3.5,30.5,0.3,47.5s-7.2,38.5-7.2,38.5l15-18.5c0,0,15.7-36,21.1-33s0.1,28.2,0.1,28.2l-16,43.8l-12,41.6
				c0,0-25,106.3-27.3,147.3s-3.7,120.7,2.3,133.3C1897,1924.4,1828.7,1942.4,1769,1940.4z"/>
		</g>
		<g>
			<path fill="#1A1A1A" d="M1954.5,1530.6c-1.2-2.2-2.8-3-4-3.2c-7.1-1.4-12.4,9.8-18,21.8c-1.1,2.3-2.1,4.5-3.1,6.5
				c-2.6,5.1-7.7,12.6-12.2,19c1.9-8.4,4.3-19.5,6.3-30.7c7.6-42.4,3.3-49.6-1.8-51.1c-8.9-2.5-16.4,15.6-30.1,54.7
				c-4.3,12.2-10,28.4-13,33c-0.8-2.1-2.2-7.9-1.8-23.9c0.2-11.5,1.4-26.3,3-39.7c2.3-18.8,1.8-49.7-6.3-59.5
				c-2.1-2.6-4.4-3.2-6-3.3c-10.8-0.7-13.2,20.7-15.1,37.9c-0.4,3.5-0.8,6.5-1.1,8.5l-0.2,0.9c-7.6,43.3-12.4,59.4-14.9,65.4
				c-0.6-5.6-0.7-15.7-0.9-24.2c-0.6-33.9-1.7-58.3-10.4-63.1c-1.7-1-4.4-1.6-7.9,0.5c-4.7,2.8-7.3,17.7-13.4,64.2
				c-3.2,24-7.5,56.9-10.9,60.4c-1.3,1.2-3,1.6-5.2,1.3c-8.5-1.2-21.1-12.9-30.6-28.6c-5.4-8.8-11.6-13.9-18.4-15
				c-8.1-1.3-13.9,3.4-14.1,3.6c-1,0.9-1.3,2.2-0.9,3.4c0.3,0.5,20.3,54.2,25.6,68.9c2.9,8.2,12.3,16.6,23.2,26.4
				c9.9,8.8,21,18.9,27.6,29.4c3,4.8,5.3,28-12,130.1c-9.9,58.5-21.7,115-21.8,115.6c-0.4,1.6,0.7,3.2,2.3,3.5
				c0.2,0.1,0.4,0.1,0.6,0.1c1.4,0,2.6-1,3.3-2.6c0.2-0.5,11.9-57.2,21.9-115.8c20.3-119.6,13.5-130.7,11.2-134.3
				c-7-11.2-18.5-21.6-28.7-30.7c-9.9-8.9-19.2-17.2-21.6-24c-4.6-12.9-20.8-56.3-24.7-66.7c1.7-0.8,4.4-1.8,7.6-1.2
				c5,0.9,9.7,5,14.1,12.2c10.7,17.7,24.4,30,34.9,31.5c4,0.5,7.5-0.5,10.1-2.9c4.4-4.1,7.4-23.6,12.7-64
				c3.1-23.7,7.4-56.1,10.7-59.9c1.1-0.6,1.5-0.4,1.7-0.3c0.8,0.5,3.9,3.4,5.6,20.3c1.1,11.4,1.4,25.4,1.6,37.7
				c0.2,8.3,0.3,16,0.7,21.6c0.3,5.2,0.8,11.7,5.2,11.7c3.5,0,7-2.5,13.9-33.2c3.7-16.3,6.9-34.4,7.9-40.3l0.2-0.9
				c0.4-2.1,0.7-5.3,1.1-8.9c0.8-7,1.8-15.7,3.5-22.6c1.8-7.4,4.1-10,5.3-9.9c0.6,0,1.2,0.4,1.8,1.2c5.4,6.5,7.7,32.1,4.9,54.9
				c-1.7,13.4-2.8,28.4-3.1,40c-0.5,21.9,1.9,27.3,4,29.5c1.1,1.1,2.6,1.7,4.1,1.6c4.8-0.4,7.9-8,18.4-37.8
				c4.3-12.3,8.8-24.9,13.1-34.9c6.1-14,9.1-15.8,9.7-16c0.6,0.7,4.4,6.2-2.8,45.8c-3.6,19.4-8.1,38.3-9.2,42.5
				c-0.9,1.3-0.5,3,0.7,3.9c1,0.8,2.3,0.9,3.4,0.2c0.6-0.3,1.1-0.8,1.4-1.4c2.8-3.7,16.3-21.5,21.2-31.3c1-2.1,2.1-4.3,3.2-6.7
				c2.2-4.9,4.6-9.9,6.9-13.6c2.4-3.9,3.8-4.7,4.3-4.9c1.8,2.9,1.6,22.4-12.1,52.8c-14.8,32.8-28.6,102.2-28.7,102.9
				c-0.4,1.8-0.8,3.9-1.3,6.4c-7.2,35.7-26.4,130.2-13,229.5c0.2,1.5,1.5,2.6,3,2.6c0.1,0,0.3,0,0.5,0.2c1.7-0.2,2.8-1.8,2.6-3.4
				c-13.2-98.3,5.7-192.2,12.9-227.5c0.5-2.5,0.9-4.7,1.3-6.5c0.1-0.7,13.8-69.4,28.3-101.6
				C1953.7,1563.9,1958.8,1539,1954.5,1530.6z"/>
			<path fill="#1A1A1A" d="M1826.4,1586.6c-1.7-0.1-3.1,1.1-3.2,2.8l-0.6,10.7c-0.1,1.7,1.1,3.1,2.8,3.2c0.1,0,0.1,0,0.2,0
				c1.6,0,2.9-1.2,3-2.8l0.6-10.7C1829.3,1588.1,1828.1,1586.7,1826.4,1586.6z"/>
			<path fill="#1A1A1A" d="M1860.5,1589.7c-1.6,0.4-2.6,2-2.2,3.6c1,4.1,1.3,8.9,0.6,9.9c-1,1.3-0.8,3.2,0.5,4.2
				c0.6,0.5,1.2,0.7,1.9,0.7c0.9,0,1.7-0.4,2.2-1.1c3.1-3.8,1.2-12.5,0.6-15.1C1863.7,1590.3,1862.1,1589.3,1860.5,1589.7z"/>
			<path fill="#1A1A1A" d="M1894.7,1613c0.6,0.5,1.2,0.7,1.9,0.7c0.9,0,1.8-0.4,2.3-1.2c2.8-3.6,2.6-12.5,2.4-15.1
				c-0.1-1.6-1.5-2.9-3.2-2.8c-1.6,0.1-2.9,1.5-2.8,3.2c0.3,4.7-0.2,9.9-1.1,11C1893.2,1610.1,1893.4,1612,1894.7,1613z"/>
			<path fill="#1A1A1A" d="M1920.5,1612.9c0.6,0.3,1.1,0.5,1.7,0.5c1,0,1.9-0.4,2.4-1.3c2.5-3.8,2.2-8.1,1.6-10
				c-0.5-1.6-2.1-2.5-3.7-2c-1.5,0.5-2.4,2.1-2,3.7c0,0.1,0.7,2.6-0.8,4.9C1918.7,1610.1,1919.1,1612,1920.5,1612.9z"/>
		</g>
	</g>
</g>
<g id="Layer_11">
	<g>
		<g>
			<g>
				<path fill="#1A1A1A" d="M438,1083.1c-4.7,0-8.7-1.4-11.7-4.2c-2.2-2-3.8-4.7-5.2-8.5c-5.3-14.9-1.5-32.5,9.5-43.8
					c4.1-4.2,8.2-6.1,12.4-5.7c3.2,0.4,6.2,2.7,7.5,5.9c1.1,2.7,0.7,5.5-1.1,7.5c-1.2,1.4-3.3,1.6-4.7,0.4c-1.4-1.2-1.6-3.3-0.4-4.7
					c0.2-0.2,0-0.6-0.1-0.7c-0.3-0.9-1.3-1.7-2-1.7c-2.5-0.3-5.1,1.9-6.9,3.7c-9.3,9.6-12.5,24.4-8,37c1,2.7,2.1,4.6,3.4,5.9
					c4.9,4.5,13.6,1.6,17.1,0.2c20.4-8.5,34.6-26.8,48.6-46.3c2.6-3.7,5.2-7.4,7.6-11.1c-2.3-1.2-4.4-2.7-6-4.7
					c-3.1-3.8-4.8-8.9-5.2-15.6c-0.5-9,2.9-18.5,8.5-24.1c3.8-3.8,8.4-5.6,13.4-5.3c3.3,0.2,6.2,1.5,7.9,3.6c2.3,2.7,2.5,6.3,2.4,9
					c-0.5,11.7-4.6,22.4-10.5,32.8c1.3,0,2.6-0.1,4-0.4c6.2-1.3,11.8-5.1,16.5-8.7c16.5-12.6,30.5-28.8,40.6-47
					c-1.9-1.3-3.6-3-4.8-4.9c-2-3.3-2.4-7-1.1-10.3c1.7-4.2,6.8-7.5,11.6-5.7c2.2,0.8,3.9,2.5,4.8,4.7c1.5,3.8,0.5,8.6-1,12.2
					c4.7-0.2,9.4-2.8,14.2-5.7c21.4-12.8,37.8-24.9,48.5-41.8c1-1.6,3-2,4.6-1s2,3,1,4.6c-12.1,19.1-31.5,32.4-50.7,43.9
					c-6.2,3.7-12.8,7.3-20.1,6.5c-0.3,0-0.6-0.1-0.8-0.1c-10.6,19.3-25.3,36.5-42.8,49.8c-5.3,4-11.7,8.4-19.2,9.9
					c-3.1,0.6-6.2,0.7-9.2,0.3c-2.8,4.3-5.7,8.6-8.8,12.9c-14.6,20.4-29.5,39.5-51.5,48.6C446,1082.1,441.8,1083.1,438,1083.1z
					 M513.8,973.7c-2.8,0-5.4,1.1-7.7,3.4c-4.3,4.2-6.9,11.9-6.5,19c0.3,5.2,1.5,9.1,3.7,11.7c1.2,1.4,2.7,2.5,4.4,3.3
					c6-10.1,10.3-20.5,10.8-31.6c0.1-1.5,0-3.5-0.8-4.5c-0.6-0.7-1.7-1.1-3.2-1.2C514.2,973.7,514,973.7,513.8,973.7z M578.5,941.5
					c-1,0-2.2,0.9-2.7,2c-0.7,1.7-0.1,3.3,0.6,4.4c0.6,0.9,1.3,1.8,2.2,2.4c1.4-2.9,1.9-6.2,1.3-7.8c-0.2-0.5-0.5-0.8-0.9-0.9
					C578.9,941.5,578.7,941.5,578.5,941.5z"/>
			</g>
		</g>
		<g>
			<g>
				<path fill="#1A1A1A" d="M1807.8,1393.6c-0.5,0-1-0.1-1.5-0.4c-12.1-6.2-18.6-20.1-19.2-41.4c-10.8,2.1-22.5,3.1-31.4-3.9
					c-3.7-2.9-6.7-7.1-9.1-12.9c-6.6-15.8-6.2-32.8-5-51.7c0.3-4.9,0.7-10.3,1.6-15.8c-14.6,1.5-31.4,1.1-40-11.4
					c-5.6-8.1-5.3-17.9-4.6-28.2c0.4-6,1.6-21.9,13.3-26.8c1.7-0.7,3.7,0.1,4.4,1.8s-0.1,3.7-1.8,4.4c-7,3-8.6,12.9-9.2,21.2
					c-0.7,9-0.9,17.6,3.4,23.9c7.1,10.2,22.8,9.9,36,8.3c1.2-4.2,2.8-8.3,5.1-12.1c2.6-4.2,6.5-8,10.9-10.7c6.6-4,13.4-1.1,16.6,3.9
					c3.3,4.9,3.3,12.3-2.9,16.8c-1.1,0.8-2.3,1.5-3.5,2.2c-6.6,3.6-14,4.9-20.9,5.8c-1,5.3-1.5,11-1.9,17.1
					c-1.1,18.1-1.6,34.3,4.5,48.7c2,4.7,4.3,8.1,7.1,10.3c7,5.5,17.6,4.2,27.2,2.3c0.1-4.9,0.7-9.9,3.5-14.2
					c2.1-3.2,5.6-5.4,9.3-6.1c3-0.5,5.9,0.1,8.2,1.8c0.3,0.2,0.5,0.5,0.7,0.8c4,5.8,1.3,13.7-3.5,17.8c-3.4,2.9-7.7,4.3-11.6,5.2
					c0.4,19.4,5.6,31.8,15.6,36.9c1.6,0.8,2.3,2.8,1.5,4.5C1810.1,1392.9,1809,1393.6,1807.8,1393.6z M1801.9,1331.3
					c-0.3,0-0.6,0-0.9,0.1c-1.9,0.3-3.8,1.6-4.8,3.2c-1.6,2.5-2.2,5.6-2.4,9c2.7-0.7,5.2-1.8,7.2-3.4c2.4-2,3.9-5.8,2.6-8.4
					C1803,1331.4,1802.4,1331.3,1801.9,1331.3z M1767,1242.8c-0.9,0-1.9,0.3-3,0.9c-3.5,2.1-6.5,5.1-8.6,8.5
					c-1.5,2.4-2.6,4.9-3.5,7.6c5.6-0.9,11-2.1,15.8-4.7c0.9-0.5,1.8-1.1,2.7-1.7c3.2-2.3,2.7-5.6,1.3-7.8
					C1770.7,1244.1,1769.1,1242.8,1767,1242.8z"/>
			</g>
		</g>
		<g>
			<g>
				<path fill="#1A1A1A" d="M1066.9,1149.4c-0.3,0-0.6,0-0.8,0c-4.6-0.2-9.1-2.7-12.2-6.7c-3.2-4.2-4.6-9.5-3.7-14.3
					c1.8-9.4,11.7-16.5,21.6-15.3c1.8,0.2,3.1,1.9,2.9,3.7c-0.2,1.8-1.9,3.2-3.7,2.9c-6.4-0.7-13.1,3.9-14.3,10
					c-0.6,2.9,0.3,6.3,2.4,9c1.9,2.5,4.6,4,7.3,4.1c4.4,0.2,9.1-2.6,12-7.3c3-4.7,4-10.5,4.7-16c3.5-27.2-0.7-55.2-11.8-80.2
					c-7,1.4-14.4-0.3-19.8-1.9c-15-4.4-19.3-13.1-18.3-19.7c0.6-3.8,2.9-7.1,6.6-9.2c4.5-2.6,10.3-3.1,15.1-1.2
					c7.9,3.1,12.7,10.3,16.4,16.9c1.2,2.2,2.4,4.5,3.6,6.8c0.1-0.1,0.2-0.1,0.3-0.2c5.4-3.3,8-10,10.1-16.8
					c7.5-24.2,10.4-49.3,8.8-74.6c-0.1-1.8,1.3-3.4,3.1-3.5c1.8-0.1,3.4,1.3,3.5,3.1c1.7,26.1-1.4,52-9.1,76.9
					c-2.3,7.6-5.7,16-13,20.5c-0.3,0.2-0.7,0.4-1.1,0.6c11.4,26,15.7,55.1,12.1,83.3c-0.8,6.3-2.1,12.9-5.7,18.7
					C1080.1,1145.4,1073.4,1149.4,1066.9,1149.4z M1048.8,1012.6c-2,0-4,0.5-5.6,1.4c-1.3,0.8-3,2.2-3.3,4.5
					c-0.9,6.3,8.1,10.7,13.6,12.4c6,1.8,11,2.4,15,2c-0.9-1.9-1.9-3.8-3-5.6c-3.1-5.6-7.1-11.6-13-13.9
					C1051.4,1012.9,1050.1,1012.6,1048.8,1012.6z"/>
			</g>
		</g>
		<g>
			<g>
				<polygon fill="#1A1A1A" points="208.4,1036.6 224.4,1076.6 283.4,1046.6 267.4,1019.6 				"/>
			</g>
		</g>
		<g>
			<g>
				<polygon fill="#FFFFFF" points="650.4,1149.6 674.4,1173.6 710.4,1139.6 689.4,1115.6 				"/>
			</g>
			<g>
				<path fill="#1A1A1A" d="M674.4,1176.6c-0.8,0-1.5-0.3-2.1-0.9l-24-24c-0.6-0.6-0.9-1.4-0.9-2.2s0.4-1.6,1-2.2l39-34
					c1.2-1.1,3.1-1,4.2,0.3l21,24c1.1,1.2,1,3-0.2,4.2l-36,34C675.9,1176.4,675.2,1176.6,674.4,1176.6z M654.8,1149.8l19.7,19.7
					l31.8-30l-17.1-19.6L654.8,1149.8z"/>
			</g>
		</g>
		<g>
			<g>
				<polygon fill="#FFFFFF" points="121.4,1229.6 140.3,1233.6 148.4,1206 123.5,1197.2 				"/>
			</g>
			<g>
				<path fill="#1A1A1A" d="M140.3,1236.6c-0.2,0-0.4,0-0.6-0.1l-18.9-4c-1.5-0.3-2.5-1.6-2.4-3.1l2-32.4c0.1-0.9,0.6-1.8,1.3-2.3
					c0.8-0.5,1.8-0.6,2.7-0.3l25,8.8c1.5,0.5,2.3,2.1,1.9,3.7l-8.1,27.7C142.8,1235.8,141.6,1236.6,140.3,1236.6z M124.6,1227.2
					l13.6,2.9l6.5-22.3l-18.5-6.5L124.6,1227.2z"/>
			</g>
		</g>
		<g>
			<g>
				<polygon fill="#1A1A1A" points="659.4,1329.4 679.4,1346.4 663.4,1383.4 644.4,1372.4 				"/>
			</g>
		</g>
		<polygon fill="#1A1A1A" points="810.4,1089.6 772.4,1007.6 754.2,1017.1 728.4,958.6 705.4,972.6 746.4,1054.6 764.6,1043.1 
			794.4,1098.6 		"/>
		<g>
			<g>
				<polygon fill="#1A1A1A" points="1494.4,1017.6 1505.4,1005.6 1539.4,1056.6 1515.4,1074.6 				"/>
			</g>
		</g>
		<g>
			<g>
				<polygon fill="#1A1A1A" points="1256.4,1142.6 1281.4,1127.6 1304.4,1147.6 1276.4,1177.6 				"/>
			</g>
		</g>
		<g>
			<g>
				<polygon fill="#1A1A1A" points="847.4,1460.6 872.4,1445.6 909.4,1497.6 883.4,1503.6 				"/>
			</g>
		</g>
		<g>
			<g>
				<polygon fill="#1A1A1A" points="1700.4,1116.6 1719.4,1092.6 1752.4,1133.6 1734.4,1152.6 				"/>
			</g>
		</g>
		<g>
			<g>
				<polygon fill="#1A1A1A" points="1731.4,1131.7 1749.6,1116.6 1768.4,1151 1752.3,1163.6 				"/>
			</g>
		</g>
	</g>
</g>
<g id="Layer_10">
	<g>
		<g>
			
				<ellipse transform="matrix(0.9096 -0.4155 0.4155 0.9096 -168.7357 369.7051)" fill="#FECE2F" cx="765.2" cy="572.6" rx="512.8" ry="157.5"/>
		</g>
		<g>
			<g>
				<path fill="#FFFFFF" d="M713.3,451.9c239.1-109.2,461.3-144,521-85.2c-0.7-2.4-1.6-4.8-2.6-7.1
					c-36.1-79.1-274.3-47.8-531.9,69.9s-437.2,277.2-401,356.3c2.6,5.7,6.3,10.8,10.9,15.4C286.6,719.8,463.2,566.1,713.3,451.9z"/>
			</g>
		</g>
		<g>
			<path fill="#1A1A1A" d="M978.6,500.4c-1.4,0-2.8-0.9-3.2-2.4c-0.5-1.8,0.5-3.6,2.3-4.1c41.5-12.3,77.3-20.2,106.5-23.5
				c1.8-0.2,3.5,1.1,3.7,2.9s-1.1,3.5-2.9,3.7c-28.8,3.3-64.3,11.2-105.4,23.3C979.2,500.4,978.9,500.4,978.6,500.4z"/>
		</g>
		<g>
			<path fill="#1A1A1A" d="M927.2,516.9c-1.4,0-2.7-0.9-3.2-2.3c-0.6-1.7,0.3-3.6,2.1-4.2c8.2-2.8,16.4-5.5,24.3-8.1
				c1.8-0.6,3.6,0.4,4.2,2.2s-0.4,3.6-2.2,4.2c-7.9,2.6-16.1,5.3-24.2,8.1C927.9,516.8,927.5,516.9,927.2,516.9z"/>
		</g>
		<g>
			
				<ellipse transform="matrix(0.9486 -0.3165 0.3165 0.9486 -107.9897 279.3384)" fill="#FFFFFF" cx="805.9" cy="472.1" rx="50" ry="25"/>
			<path fill="#1A1A1A" d="M786.3,504c-15.7,0-27.7-5.3-31-15c-5-15.1,13.3-34.3,41.6-43.8c13.2-4.4,26.4-5.9,37.4-4.4
				c11.8,1.7,19.6,6.8,22.2,14.4c2.5,7.6-0.7,16.4-9.1,24.8c-7.8,7.8-19.4,14.6-32.5,18.9C804.8,502.4,795,504,786.3,504z
				 M825.6,447c-8.2,0-17.4,1.6-26.5,4.6c-24,8-41.1,24.2-37.4,35.3c3.7,11.1,27.1,13.8,51.1,5.8c12.2-4.1,22.8-10.2,29.9-17.3
				c6.4-6.4,9.2-13,7.5-18l0,0c-1.7-5-7.8-8.6-16.8-9.9C830.9,447.1,828.3,447,825.6,447z"/>
		</g>
		<g>
			
				<ellipse transform="matrix(0.9486 -0.3165 0.3165 0.9486 -72.4012 348.2431)" fill="#FFFFFF" cx="1035.8" cy="397" rx="50" ry="25"/>
			<path fill="#1A1A1A" d="M1016.1,428.9c-15.7,0-27.7-5.3-31-15c-5-15.1,13.3-34.3,41.6-43.8c13.2-4.4,26.4-5.9,37.4-4.4
				c11.8,1.7,19.6,6.8,22.2,14.4c2.5,7.6-0.7,16.4-9.1,24.8c-7.8,7.8-19.4,14.6-32.5,18.9C1034.7,427.3,1024.8,428.9,1016.1,428.9z
				 M1055.4,371.8c-8.2,0-17.4,1.6-26.5,4.6c-24,8-41.1,24.2-37.4,35.3c3.7,11.1,27.1,13.8,51.1,5.8c12.2-4.1,22.8-10.2,29.9-17.3
				c6.4-6.4,9.2-13,7.5-18l0,0c-1.7-5-7.8-8.6-16.8-9.9C1060.8,372,1058.2,371.8,1055.4,371.8z"/>
		</g>
		<path fill="#FFFFFF" d="M1207.9,395.8c-26.2,8.7-43.9,26.4-39.5,39.5c3.7,11,21.8,15.3,43.1,11.1c13.5-20,21.8-38.7,24.1-55.5
			C1227.2,391,1217.6,392.5,1207.9,395.8z"/>
		<g>
			
				<ellipse transform="matrix(0.8909 -0.4543 0.4543 0.8909 -189.5988 337.6636)" fill="#FFFFFF" cx="607.9" cy="563.4" rx="50" ry="25"/>
			<path fill="#1A1A1A" d="M584,598.6c-11.7,0-20.1-3.9-23.7-10.9c-7.2-14.2,8-35.9,34.6-49.5s53.2-13.1,60.4,1
				c3.6,7.1,1.8,16.3-5.3,25.9c-6.6,8.9-17,17.3-29.3,23.6s-25.2,9.8-36.3,9.9C584.3,598.6,584.2,598.6,584,598.6z M631.9,534.9
				c-9.7,0-21.9,3.1-33.9,9.2c-22.5,11.5-37.1,30-31.7,40.5c2.4,4.7,8.9,7.3,18.1,7.3c10.1-0.1,21.9-3.3,33.3-9.2
				c11.4-5.8,21-13.5,27-21.6c5.4-7.3,7.1-14.2,4.7-18.9C647,537.3,640.5,534.9,631.9,534.9z"/>
		</g>
		<g>
			
				<ellipse transform="matrix(0.8909 -0.4543 0.4543 0.8909 -265.5751 270.8583)" fill="#FFFFFF" cx="430.9" cy="688.1" rx="50" ry="25"/>
			<path fill="#1A1A1A" d="M407.1,723.3c-11.7,0-20.1-3.9-23.7-10.9c-3.6-7.1-1.8-16.3,5.3-25.9c6.6-8.9,17-17.3,29.3-23.6
				c26.6-13.6,53.2-13.1,60.4,1c7.2,14.2-8,35.9-34.6,49.5c-12.3,6.3-25.2,9.8-36.3,9.9C407.4,723.3,407.2,723.3,407.1,723.3z
				 M455,659.6c-9.7,0-21.9,3.1-33.9,9.2c-11.4,5.8-21,13.5-27,21.6c-5.4,7.3-7.1,14.2-4.7,18.9s9,7.3,18.1,7.3
				c10.1-0.1,21.9-3.3,33.3-9.2c22.5-11.5,37.1-30,31.7-40.5C470,662,463.5,659.6,455,659.6z"/>
		</g>
		<g>
			<path fill="#FFFFFF" d="M344.6,811.4c-3.4,1.8-6.7,3.7-9.7,5.7c16.7,6.9,38.1,10.9,63.4,12c3.8-6.7,4.8-13.1,2.2-18.1
				C394.2,798.6,369.2,798.8,344.6,811.4z"/>
			<path fill="#1A1A1A" d="M398.3,832.4c-0.1,0-0.1,0-0.2,0c-26-1.2-47.7-5.3-64.5-12.2c-1.1-0.5-1.9-1.5-2-2.8s0.4-2.4,1.5-3.1
				c3.2-2.1,6.6-4.1,10.1-5.9l0,0c26.6-13.6,53.2-13.1,60.4,1c3,6,2.2,13.3-2.3,21.3C400.6,831.7,399.5,832.4,398.3,832.4z
				 M342.4,816.3c14.7,5.1,32.8,8.2,53.9,9.3c1.9-3.9,3.4-9,1.2-13.2c-5.3-10.5-28.9-9.6-51.4,1.9l0,0
				C344.9,815,343.6,815.6,342.4,816.3z M344.6,811.4L344.6,811.4L344.6,811.4z"/>
		</g>
		<path fill="#1A1A1A" d="M1234.4,358.2c-18.1-39.6-84.1-54-186-40.6c-45.6,6-96.1,17.3-149.2,33.1c-0.2-0.3-0.5-0.6-0.9-0.9
			c-16.4-10.2-46.8-11.6-88-4.1c-40.7,7.4-89.1,23.3-136.3,44.9c-102.2,46.7-176.8,108.2-178.2,146.9c-41.1,27-77.8,54.7-108.7,82.2
			C310.3,688,277.9,747.3,296,786.9c13.6,30,54.8,45.5,118.1,45.5c20.4,0,43.1-1.6,67.9-4.9c6.9-0.9,13.9-2,21.1-3.1c0,0,0,0,0,0
			c0.3,0,0.6-0.1,0.9-0.2c34.3-5.6,70.9-13.8,109.1-24.6c8.2,11,26.4,14.3,45.4,14.3c14.1,0,28.8-1.8,40-3.8
			c47.2-7.9,106-27.2,165.4-54.3c59.4-27.2,112.5-58.9,149.4-89.5c22-18.2,57.2-52.3,46.5-75.8c0,0,0,0,0-0.1
			c31-21.5,59.1-43.4,83.5-65.1c30.5-27.1,54-52.8,70.1-76.4c0.3-0.2,0.6-0.5,0.8-0.8c14.1-20.8,22.4-39.9,24.7-56.9
			c0-0.4,0-0.9-0.1-1.3C1240.2,378.4,1238.7,367.7,1234.4,358.2z M1009.2,661.3c-36.5,30.2-89,61.7-147.9,88.6
			c-58.9,26.9-117.1,46-163.8,53.8c-39.4,6.6-66.9,4.4-77.3-6c67.4-19.4,139.5-46.2,211.7-79.2c82.2-37.6,158.3-80.2,222.4-124.2
			C1059.7,608.8,1043.4,633,1009.2,661.3z M771.4,738.2l187.4-91.3c-40.6,23.2-84.1,45.4-129.4,66.1
			C810,721.9,790.7,730.3,771.4,738.2z M1209.6,443.5c-19.2,3.4-35.1-0.4-38-9.2c-3.7-11.1,13.4-27.3,37.4-35.3
			c7.7-2.6,15.4-4.1,22.7-4.5C1228.9,409.1,1221.4,425.6,1209.6,443.5z M1233,387.7c-8.4,0.3-17.3,2-26.2,4.9
			c-28.3,9.5-46.6,28.7-41.6,43.8c3.2,9.6,14.8,15,30.7,15c2.8,0,5.7-0.2,8.8-0.5c-11.5,16-26.4,32.9-44.4,50.5
			c1.3-5.7,0.9-10.8-1.1-15.3c-5.7-12.5-23.8-18.3-53.8-17.3c-1.8,0-3.3,1.6-3.2,3.4c0,1.8,1.6,3.3,3.4,3.2
			c26.6-1,43.1,3.7,47.5,13.4c2.2,4.7,1.5,10.9-1.9,18.4c-0.5,0.9-0.4,2,0,2.8c-3.9,3.6-7.8,7.2-11.9,10.9
			c-17.8,15.8-37.5,31.7-58.9,47.4c-0.1-0.3-0.3-0.6-0.4-0.9c-18.1-39.6-149.9-18.3-294.5,47.8s-247,151.7-228.9,191.3
			c0.2,0.4,0.4,0.8,0.6,1.2c-18.2,4.1-35.8,7.6-52.9,10.4c-0.3-0.1-0.7-0.2-1-0.2c-22.4-0.1-36.4-4.7-40.4-13.5
			c-3.8-8.2-3.7-33.7,77.7-93.3c59.4-43.5,143.2-90.8,236-133.2c38.5-17.6,77-33.6,114.3-47.6c1.8-0.7,2.6-2.6,2-4.3
			c-0.7-1.8-2.6-2.6-4.3-2c-37.5,14-76.1,30.1-114.8,47.8c-93.2,42.5-177.4,90.1-237.2,133.8c-78.2,57.2-86.6,86.7-79.9,101.4
			c3.2,7.1,10.6,12.1,21.8,14.8c-47.2,6-86.6,6-117-0.1c-31.4-6.3-51.6-18.9-60-37.3c-8.4-18.4-4.7-41.9,11.1-69.8
			c15.5-27.5,41.9-57.9,78.5-90.4c33.7-30,74.3-60.1,120-89.4c21.5-13,71.9-43.2,121.7-69.7c22.1-11.3,44.9-22.4,68.1-33
			c9.6-4.4,19.2-8.7,28.8-12.8c38.7-16.1,81.8-32.6,114.7-44.7c73.5-25.4,143.5-42.9,204.8-50.9c24.5-3.2,46.8-4.8,67-4.8
			c19.8,0,37.4,1.6,52.7,4.6c31.4,6.3,51.6,18.9,60,37.3C1232.6,368.8,1233.9,377.8,1233,387.7z"/>
		<path fill="#FECE2F" d="M1012.7,579.1c-11.2,0-24.4,1.2-39.4,3.7c-46.7,7.8-104.9,26.9-163.8,53.8
			c-58.9,26.9-111.4,58.4-147.9,88.6c-34.9,28.9-51.2,53.6-44.7,67.9c6.5,14.2,35.9,18.1,80.6,10.6c46.7-7.8,104.9-26.9,163.8-53.8
			c58.9-26.9,111.4-58.4,147.9-88.6c34.9-28.9,51.2-53.6,44.7-67.9C1049.5,584,1035,579.1,1012.7,579.1z"/>
		<g>
			<path fill="#FFFFFF" d="M724.5,776.7c-3.5,0-7.1-1.1-10.1-3.2c-7.9-5.6-9.7-16.6-4.1-24.4c0.9-1.3,23.7-32.8,81.3-67
				c8.3-4.9,19-2.2,24,6.1c4.9,8.3,2.2,19-6.1,24c-50.6,30-70.5,57-70.7,57.2C735.3,774.2,729.9,776.7,724.5,776.7z"/>
		</g>
		<g>
			<path fill="#FFFFFF" d="M848,691.5c-6.4,0-12.6-3.5-15.6-9.6c-4.3-8.6-0.9-19.2,7.8-23.5l12.4-6.2c8.6-4.3,19.2-0.9,23.5,7.8
				c4.3,8.6,0.9,19.2-7.8,23.5l-12.4,6.2C853.3,690.9,850.6,691.5,848,691.5z"/>
		</g>
		<path fill="#FFFFFF" d="M952.1,659.1c-90.1,41.2-161,91.1-186.1,127.7c30.3-9.5,62.7-22,95.3-36.9
			c58.9-26.9,111.4-58.4,147.9-88.6c17.2-14.2,29.9-27.5,37.5-38.9C1017.1,631.7,985,644,952.1,659.1z"/>
	</g>
</g>
<g id="Layer_9">
	<g>
		<g>
			
				<ellipse transform="matrix(0.9096 -0.4155 0.4155 0.9096 -151.158 652.6979)" fill="#FECE2F" cx="1424.3" cy="673.7" rx="335.1" ry="102.9"/>
		</g>
		<g>
			<g>
				<path fill="#FFFFFF" d="M1390.4,594.8c156.2-71.4,301.5-94.1,340.5-55.7c-0.5-1.6-1-3.1-1.7-4.6
					c-23.6-51.7-179.2-31.3-347.6,45.7S1095.9,761.3,1119.5,813c1.7,3.7,4.1,7.1,7.1,10.1C1111.6,769.9,1226.9,669.5,1390.4,594.8z"
					/>
			</g>
		</g>
		<g>
			<path fill="#1A1A1A" d="M1563.8,626.5c-0.9,0-1.8-0.6-2.1-1.6c-0.3-1.2,0.3-2.4,1.5-2.7c27.1-8,50.5-13.2,69.6-15.4
				c1.2-0.1,2.3,0.7,2.4,1.9s-0.7,2.3-1.9,2.4c-18.8,2.2-42,7.3-68.9,15.2C1564.2,626.5,1564,626.5,1563.8,626.5z"/>
		</g>
		<g>
			<path fill="#1A1A1A" d="M1530.2,637.3c-0.9,0-1.8-0.6-2.1-1.5c-0.4-1.1,0.2-2.4,1.4-2.8c5.3-1.8,10.7-3.6,15.9-5.3
				c1.1-0.4,2.4,0.3,2.7,1.4c0.4,1.1-0.3,2.4-1.4,2.7c-5.2,1.7-10.5,3.4-15.8,5.3C1530.7,637.3,1530.4,637.3,1530.2,637.3z"/>
		</g>
		<g>
			
				<ellipse transform="matrix(0.9486 -0.3165 0.3165 0.9486 -117.8427 490.4946)" fill="#FFFFFF" cx="1451" cy="608" rx="32.7" ry="16.3"/>
			<path fill="#1A1A1A" d="M1438.1,628.9c-2,0-3.9-0.1-5.7-0.4c-7.7-1.1-12.8-4.4-14.5-9.4s0.5-10.7,5.9-16.2
				c5.1-5.1,12.7-9.5,21.3-12.4c8.6-2.9,17.3-3.9,24.4-2.9c7.7,1.1,12.8,4.4,14.5,9.4c3.3,9.8-8.7,22.4-27.2,28.6
				C1450.4,627.8,1443.9,628.9,1438.1,628.9z M1464,591.6c-5.3,0-11.3,1-17.5,3c-8,2.7-14.9,6.7-19.6,11.3c-4.2,4.2-6,8.5-4.9,11.8
				s5.1,5.6,11,6.5c6.5,0.9,14.5,0,22.4-2.7c15.7-5.2,26.9-15.8,24.4-23.1l0,0C1478.4,594,1472.2,591.6,1464,591.6z"/>
		</g>
		<g>
			
				<ellipse transform="matrix(0.9486 -0.3165 0.3165 0.9486 -94.5808 535.5085)" fill="#FFFFFF" cx="1601.2" cy="558.9" rx="32.7" ry="16.3"/>
			<path fill="#1A1A1A" d="M1588.3,579.8c-2,0-3.9-0.1-5.7-0.4c-7.7-1.1-12.8-4.4-14.5-9.4c-3.3-9.8,8.7-22.4,27.2-28.6
				c8.6-2.9,17.3-3.9,24.4-2.9c7.7,1.1,12.8,4.4,14.5,9.4c3.3,9.8-8.7,22.4-27.2,28.6C1600.6,578.7,1594.2,579.8,1588.3,579.8z
				 M1614.2,542.5c-5.3,0-11.3,1-17.5,3c-15.7,5.2-26.9,15.8-24.4,23.1c2.4,7.3,17.7,9,33.4,3.8c15.7-5.2,26.9-15.8,24.4-23.1l0,0
				C1628.6,544.9,1622.4,542.5,1614.2,542.5z"/>
		</g>
		<path fill="#FFFFFF" d="M1713.6,558.2c-17.1,5.7-28.7,17.3-25.8,25.8c2.4,7.2,14.3,10,28.2,7.3c8.9-13.1,14.3-25.3,15.8-36.2
			C1726.3,555,1720,556,1713.6,558.2z"/>
		<g>
			
				<ellipse transform="matrix(0.8909 -0.4543 0.4543 0.8909 -159.068 673.2716)" fill="#FFFFFF" cx="1321.7" cy="667.7" rx="32.7" ry="16.3"/>
			<path fill="#1A1A1A" d="M1305.9,690.7c-7.6,0-13.1-2.5-15.5-7.1c-2.4-4.7-1.1-10.7,3.5-16.9c4.3-5.8,11.1-11.3,19.2-15.4
				c17.4-8.9,34.7-8.6,39.5,0.7l0,0c4.7,9.2-5.2,23.5-22.6,32.3c-8.1,4.1-16.5,6.4-23.7,6.5C1306.1,690.7,1306,690.7,1305.9,690.7z
				 M1337.2,649.1c-6.3,0-14.3,2-22.2,6c-7.5,3.8-13.7,8.8-17.6,14.1c-3.5,4.8-4.7,9.3-3.1,12.4s5.8,4.8,11.8,4.8
				c6.6-0.1,14.3-2.2,21.8-6c14.7-7.5,24.2-19.6,20.7-26.5l0,0C1347.1,650.7,1342.8,649.1,1337.2,649.1z"/>
		</g>
		<g>
			
				<ellipse transform="matrix(0.8909 -0.4543 0.4543 0.8909 -208.7104 629.6529)" fill="#FFFFFF" cx="1206.1" cy="749.2" rx="32.7" ry="16.3"/>
			<path fill="#1A1A1A" d="M1190.3,772.2c-7.6,0-13.1-2.5-15.5-7.1c-4.7-9.3,5.2-23.5,22.6-32.3c8.1-4.1,16.5-6.4,23.7-6.5
				c0.1,0,0.2,0,0.3,0c7.6,0,13.1,2.5,15.5,7.1l0,0c2.4,4.7,1.1,10.7-3.5,16.9c-4.3,5.8-11.1,11.3-19.2,15.4
				c-8.1,4.1-16.5,6.4-23.7,6.5C1190.5,772.2,1190.4,772.2,1190.3,772.2z M1221.5,730.6c-0.1,0-0.2,0-0.2,0
				c-6.6,0.1-14.3,2.2-21.8,6c-14.7,7.5-24.2,19.6-20.7,26.5c1.5,3,5.8,4.8,11.6,4.8c0.1,0,0.2,0,0.2,0c6.6-0.1,14.3-2.2,21.8-6
				s13.7-8.8,17.6-14.1c3.5-4.8,4.7-9.3,3.1-12.4l0,0C1231.5,732.3,1227.3,730.6,1221.5,730.6z"/>
		</g>
		<path fill="#FFFFFF" d="M1149.5,829.7c-2.3,1.1-4.4,2.4-6.4,3.7c10.9,4.5,24.9,7.1,41.4,7.8c2.5-4.3,3.1-8.5,1.5-11.8
			C1181.9,821.4,1165.5,821.5,1149.5,829.7z"/>
		<path fill="#1A1A1A" d="M1730.9,533.6c-11.9-25.8-55-35.2-121.6-26.5c-29.8,3.9-62.8,11.2-97.6,21.6c-0.1-0.2-0.3-0.3-0.5-0.5
			c-22-13.6-82.3-2.7-146.6,26.7c-66.7,30.5-115.4,70.7-116.4,95.9c-26.8,17.6-50.8,35.7-71,53.7c-50.2,44.6-71.3,83.4-59.5,109.3
			c4.1,9,12.1,16.1,23.6,21c0.2,0.3,0.5,0.5,0.9,0.7c11.1,4.5,25.2,7.2,42.3,8c0.3,0,0.6-0.1,0.9-0.2c3.1,0.1,6.2,0.2,9.5,0.2
			c13.3,0,28.2-1,44.4-3.2c26.4-3.5,55.3-9.6,85.7-18.1c5.3,7.1,17.1,9.3,29.6,9.3c9.3,0,18.8-1.2,26.2-2.5
			c30.9-5.1,69.3-17.8,108.1-35.5c38.8-17.8,73.5-38.5,97.6-58.5c14.4-11.9,37.4-34.1,30.4-49.5c0,0,0,0,0-0.1
			c20.2-14.1,38.6-28.3,54.5-42.5c19.9-17.7,35.2-34.4,45.7-49.8c0.3-0.2,0.5-0.4,0.6-0.6c9.2-13.6,14.6-26.1,16.1-37.2
			c0-0.3,0-0.6-0.1-0.9C1734.7,546.8,1733.7,539.8,1730.9,533.6z M1183.2,839.1c-13.8-0.8-25.6-2.8-35.2-6.1
			c0.8-0.5,1.6-0.9,2.4-1.3c14.7-7.5,30.1-8,33.6-1.2C1185.4,833.2,1184.5,836.5,1183.2,839.1z M1583.9,731.8
			c-23.9,19.8-58.2,40.3-96.7,57.9s-76.5,30.1-107,35.2c-25.9,4.2-43.9,2.8-50.6-4c44-12.6,91.1-30.2,138.3-51.8
			c53.8-24.6,103.5-52.4,145.4-81.2C1617,697.3,1606.3,713.2,1583.9,731.8z M1682.4,627.6c1-3.9,0.8-7.5-0.6-10.5
			c-3.8-8.2-15.6-12-35.2-11.3c-1.2,0.1-2.2,1.1-2.1,2.3s1.1,2.1,2.3,2.1c17.4-0.6,28.2,2.5,31.1,8.8c1.4,3.1,1,7.1-1.3,12
			c-0.3,0.7-0.2,1.4,0.1,2c-2.5,2.4-5.1,4.7-7.8,7.1c-11.6,10.3-24.5,20.7-38.5,31c-0.1-0.3-0.2-0.5-0.3-0.8
			c-11.8-25.9-98-11.9-192.4,31.2c-94.4,43.1-161.4,99.1-149.6,125c0.2,0.4,0.3,0.7,0.5,1.1c-11.8,2.7-23.2,4.9-34.3,6.7
			c-0.4-0.3-0.9-0.5-1.4-0.5c-14.7,0-23.8-3.1-26.4-8.8c-2.5-5.4-2.4-22.1,50.8-61c38.9-28.4,93.6-59.3,154.3-87
			c25.2-11.5,50.3-22,74.7-31.1c1.2-0.4,1.7-1.7,1.3-2.8c-0.4-1.2-1.7-1.7-2.8-1.3c-24.5,9.1-49.7,19.6-75,31.2
			c-60.9,27.9-116,58.9-155,87.5c-51.1,37.4-56.6,56.7-52.2,66.3c2.2,4.9,7.3,8.2,15.2,9.9c-18.6,2.4-35.3,3.4-50,2.9
			c1.7-4.1,1.7-7.9,0.1-11c-4.8-9.3-22.1-9.6-39.5-0.7c-2,1-4,2.1-5.8,3.3c-10.4-4.6-17.6-10.9-21.3-18.9c-5.5-12-3.1-27.4,7.2-45.6
			c10.1-18,27.4-37.9,51.3-59.1c23.1-20.6,51.2-41.3,82.9-61.3c14.6-8.8,41.1-24.5,68.1-39.1c16.6-8.7,33.8-17.1,51.5-25.2
			c8.8-4,17.5-7.9,26.2-11.6c21.5-8.8,44.4-17.6,63.1-24.5c49.6-17.4,96.9-29.4,138.2-34.8c16-2.1,30.6-3.2,43.8-3.2
			c12.9,0,24.5,1,34.5,3.1c20.5,4.2,33.7,12.4,39.2,24.4c2.4,5.2,3.3,11.1,2.7,17.5c-5.5,0.2-11.3,1.2-17.2,3.2
			c-18.5,6.2-30.5,18.8-27.2,28.6c2.1,6.3,9.7,9.8,20.1,9.8c1.9,0,3.9-0.1,6-0.4C1704.2,604.7,1694.4,615.9,1682.4,627.6z
			 M1714.7,589.3c-12.5,2.2-22.9-0.2-24.8-6c-2.5-7.3,8.7-17.9,24.4-23.1c5.1-1.6,10.1-2.6,14.9-2.9
			C1727.4,566.9,1722.5,577.6,1714.7,589.3z"/>
		<path fill="#FECE2F" d="M1586.1,678c-7.3,0-16,0.8-25.7,2.4c-30.5,5.1-68.5,17.6-107,35.2c-38.5,17.6-72.8,38.1-96.7,57.9
			c-22.8,18.9-33.5,35.1-29.2,44.4c4.2,9.3,23.4,11.8,52.7,7c30.5-5.1,68.5-17.6,107-35.2s72.8-38.1,96.7-57.9
			c22.8-18.9,33.5-35.1,29.2-44.4C1610.1,681.1,1600.7,678,1586.1,678z"/>
		<path fill="#FFFFFF" d="M1424.7,813.9c19.9-6.2,41.1-14.4,62.5-24.2c38.5-17.6,72.8-38.1,96.7-57.9c11.4-9.4,19.7-18.2,24.7-25.7
			c-19.5,6.1-40.5,14.2-62.2,24.1C1487.4,757.2,1441,790,1424.7,813.9z"/>
		<g>
			<path fill="#FFFFFF" d="M1397.7,807.1c-2.3,0-4.6-0.7-6.6-2.1c-5.2-3.7-6.3-10.8-2.7-16c0.6-0.9,15.5-21.5,53.2-43.8
				c5.4-3.2,12.5-1.4,15.7,4s1.4,12.4-4,15.7c-33.1,19.6-46.1,37.2-46.2,37.4C1404.8,805.5,1401.3,807.1,1397.7,807.1z"/>
		</g>
		<g>
			<path fill="#FFFFFF" d="M1478.4,751.4c-4.2,0-8.2-2.3-10.2-6.3c-2.8-5.6-0.6-12.5,5.1-15.4l8.1-4.1c5.6-2.8,12.5-0.6,15.4,5.1
				c2.8,5.6,0.6,12.5-5.1,15.4l-8.1,4.1C1481.9,751,1480.2,751.4,1478.4,751.4z"/>
		</g>
	</g>
</g>
<g>
	<g>
		<path fill="#FFFFFF" d="M1719.6,1847.9l-133.5-166.4c0,0-18.7-24.9-17.2-50.4s4.5-37.2-13.8-53.2l-16-11.3c0,0-11.7-27.7-26.7-36
			s-23.7-0.4-26,6.8c0,0-16.3-2.4-22,6.2s-2.6,19.7-2.6,19.7s-11.4,2.6-15.8,12.9c-4.3,10.3-0.5,20.3-0.5,20.3s-8.8,4.4-11.5,11.4
			s-9.3,20.3,19,50.7c28.3,30.3,44,31.3,66.7,67.7c22.7,36.3,63,104.8,84.4,168.4L1719.6,1847.9z"/>
	</g>
	<path fill="#FFFFFF" d="M1470.5,1406.5c-65.5-24.7-121-35.7-121-35.7l76.5-189.1c0,0,65.6,9.1,131.4,26.3L1470.5,1406.5z"/>
	<path fill="#FFFFFF" d="M1677.1,1259.5c8.5-34.2-56-61-123.2-79.3c-2.8-0.8-5.6-1.5-8.4-2.2l-86.9,198.5
		c42.1,15.9,88.4,37.5,126.6,65.6"/>
	<path fill="#1A1A1A" d="M1721.9,1845.9l-133.5-166.4c-13.3-16.7-19-38.6-15.6-60.1c1.5-9.3,1.2-17.2-0.9-24.1
		c-3.9-12.9-19.5-25-31.6-31.5c-0.2-0.1-0.3-0.2-0.5-0.2c0-0.4-0.1-0.8-0.3-1.2c-0.6-1.1-2.7-5.1-5.8-10l146.1-291.5
		c0.3-0.5,0.4-1.1,0.3-1.7c6.3-29.9-36-57.4-125.6-81.8c-2.8-0.8-5.6-1.6-8.4-2.3c-1.4-0.4-2.9,0.3-3.5,1.7l-9.7,22.1
		c-55.9-13.1-105.9-20.1-106.5-20.2c-1.4-0.2-2.7,0.5-3.2,1.8l-76.5,189.1c-0.4,0.9-0.3,1.8,0.1,2.6c0.5,0.8,1.2,1.3,2.1,1.5
		c0.5,0.1,56,11.2,120.5,35.6c0.4,0.1,0.7,0.2,1.1,0.2c1.2,0,2.3-0.7,2.7-1.8l8.2-18.8c39.4,16.5,73,34.7,100.2,54.5l-51.8,103.3
		c-6.8-10-16.3-21.3-25.2-23.2c-8.5-2.3-14,1.5-17,5.1c-2.3,2.7-3.6,5.6-4.1,7.1c-5.1-1.7-9.6-1.6-13.5,0.2
		c-12.8,6.1-13.6,18.1-11.9,25.6c-3.4,1.2-8.8,3.9-12.6,9.6c-4.1,6.1-5.3,14.1-3.6,23.6c-4.2,2-11.4,7.7-12.5,23.5
		c-1.2,16.6,9.6,33.7,36.2,56.5l-33.2,66.2c-0.8,1.5-0.2,3.3,1.3,4c0.4,0.2,0.8,0.3,1.3,0.3c1.1,0,2.1-0.6,2.7-1.6l32.6-64.9
		c4.5,3.7,9.4,7.6,14.7,11.6c52.1,39.6,115.6,203.9,116.2,205.6c0.5,1.2,1.6,1.9,2.8,1.9c0.4,0,0.7,0,1-0.2c1.5-0.6,2.3-2.4,1.7-3.9
		c-0.2-0.4-16.3-42.3-38.7-88.5c-30.2-62.3-57-102.6-79.5-119.7c-5.6-4.3-10.8-8.4-15.5-12.3l13.5-26.9c3.3,1.1,6.7,1.9,9.9,1.9
		c4.2,0,7.9-1.4,10.3-5c1.9,6.4,5.5,12,10.8,16.6c0.6,0.5,1.3,0.7,2,0.7c0.8,0,1.6-0.3,2.3-1c1.1-1.2,0.9-3.1-0.3-4.2
		c-21-18.5-4.4-50.6,0.9-59.5l13.8,12.7c1.2,1.1,3.1,1,4.2-0.2c1.1-1.2,1-3.1-0.2-4.2l-22.3-20.7c-0.8-0.8-1.9-1-2.9-0.7
		c-16.1,4.9-25.5,3.7-30.5,1.7c-2.5-0.9-4.1-2.1-5.2-3.1c6.6-4.2,23.4-14.7,34.4-18.1c4.9-1.5,13.9,0.8,23.7,6
		c14.4,7.7,26,18.9,28.7,28c1.8,6.1,2,13.1,0.7,21.5c-3.7,23.2,2.5,46.8,16.9,64.8l133.5,166.4c0.6,0.7,1.4,1.1,2.3,1.1
		c0.7,0,1.3-0.2,1.8-0.8C1722.7,1849.1,1722.9,1847.2,1721.9,1845.9z M1383.8,1294.3l5.5,17.1c2.6,7.9,11.2,12.2,19.1,9.6
		s12.2-11.2,9.6-19.1l-16.7-50.6c0-0.1,0-0.1-0.1-0.2l26.8-66.1c8.9,1.3,41.9,6.3,81.5,14.8l-77.1,190.2
		c-38.3-12.3-68.7-19.3-78.8-21.4L1383.8,1294.3z M1462.5,1374.9l84.6-193.3c2,0.5,3.9,1.1,5.9,1.6c85.7,23.4,127.6,49.6,121.1,75.7
		c0,0,0,0.1,0,0.1l-36.5,72.8l-15.2-46.9c-4-12.6-17.6-19.5-30.2-15.5s-19.5,17.6-15.5,30.2l30.1,93.5l-22.5,44.8
		C1552.1,1414.7,1511.2,1393.5,1462.5,1374.9z M1502,1639.2c-3.5,6.9-17.8-0.1-23.9-3.1c-0.9-0.5-1.6-0.8-2.2-1.1
		c-5.4-2.5-21.1-4.2-22.9-4.4c-1.7-0.1-3.1,1.1-3.3,2.7c-0.1,1.7,1.1,3.1,2.7,3.3c4.5,0.5,17.1,2.1,21,3.9c0.6,0.3,1.3,0.6,2.1,1
		c1.5,0.7,3.4,1.6,5.6,2.6l-12.6,25.1c-24-20.8-34.1-36.5-33.1-50.6c1.1-14.3,7.6-18,9.8-18.9l12.1,3.3c17,4.6,33.2,13.2,47,25
		C1504.5,1628.4,1505.8,1631.8,1502,1639.2z M1473.3,1578c-1.2,0.8-1.6,2.5-1,3.8c0.3,0.6,5.2,10.3,23,10.3c5.4,0,11.9-0.9,19.9-3.2
		l2.8,2.6c-1.9,3.1-6.3,10.7-9.4,20c-0.1,0.1-0.2,0.1-0.2,0.2c-2,1.7-12.4-0.1-22.3-4c-0.4-0.2-0.8-0.2-1.2-0.2
		c-8.3-4.4-17.1-7.9-26-10.3l-10.8-2.9c-1.6-8.2-0.8-14.9,2.5-19.8c4.3-6.6,11.7-8,11.8-8c0.3-0.1,0.6-0.2,0.9-0.3
		c2.1-0.4,9.7-1.1,19.8,5.6C1477.6,1575.1,1473.7,1577.7,1473.3,1578z M1488.7,1568.4c-10.9-8.1-20-8.7-24.6-8.3
		c-1-4.3-1.9-14.1,8.6-19.1c6.5-3,15.8,2.6,22.4,7.9c4.7,3.8,8.7,7.8,11.2,10.5C1500.5,1561.8,1494.2,1565.2,1488.7,1568.4z
		 M1512.4,1557.2c-2.2-2.4-7.2-7.8-13.5-12.8c-3.4-2.7-6.6-4.8-9.7-6.4c0.3-0.7,1.2-3.4,3.1-5.6c2.8-3.3,6.4-4.3,10.9-3.1
		c0.1,0,0.1,0,0.2,0c9.2,1.9,21.1,19.3,27.7,30.3C1523.6,1556.8,1517,1555.9,1512.4,1557.2z"/>
</g>
<g id="Layer_7">
	<g>
		<g>
			<path fill="#FFFFFF" d="M286.9,1935.1l171.6-222.6c0,0,30.1-8.6,29.9-11.1c0,0-2,17,2.5,17.2s22.5-30.8,22.5-30.8s15.8-7,7-23.2
				c0,0,9-7.5,6-14.8s-2.2-10.2-2.2-10.2s14.9-4,13.4-23c0,0,6.3-4,5.6-3.5s-24.7-38.5-24.7-38.5s-41,5.5-47,8s-239,249.5-239,249.5
				s-16,35,8.5,69.5S286.9,1935.1,286.9,1935.1z"/>
		</g>
		<path fill="#FFFFFF" d="M589.4,1245c0-71.1-281.3-41.3-281.3-41.3l-28.7,202c0,0,152.7-7.3,264.7,38.7"/>
		<path fill="#1A1A1A" d="M592.4,1245c0-8.4-3.6-16-10.7-22.4c-21.1-19.1-73.8-28.5-156.4-28.1c-61.1,0.3-116.9,6.1-117.5,6.2
			c-1.4,0.2-2.5,1.2-2.7,2.6l-28.7,202c-0.1,0.8,0.2,1.7,0.8,2.4c0.6,0.7,1.5,1,2.4,1c1.5-0.1,151.2-6.7,261.1,37.5l-28.6,126.2
			c-11.2,1.3-34.8,4.4-42,7.6c-1.7,0.8-6.1,2.8-126.3,129.2c-59.2,62.3-118,124.9-118.6,125.5c-1.2,1.2-1.1,3.1,0.1,4.2
			c0.6,0.5,1.4,0.8,2.1,0.8c0.8,0,1.6-0.3,2.1-1c93-98.9,234.3-247.8,243.1-253.3c6.8-2.9,32.6-6.2,44.2-7.5l22.8,34.6
			c-0.5,0.1-1,0.2-1.5,0.3c-0.3-0.1-0.6-0.2-0.9-0.2c-0.5,0-0.9,0.2-1.3,0.4c-6.3,0.3-15.3-1.8-20.8-14.5c-0.3-0.7-1-1.3-1.8-1.6
			c-0.9-0.3-1.8-0.1-2.5,0.3l-34,20.5c-1.4,0.8-1.9,2.7-1,4.1c0.8,1.4,2.7,1.9,4.1,1l24.6-14.9l-4.1,18.2c-2.8,1.4-5.9,2.9-8.9,4.4
			c-21.4,11.2-23.4,16.6-22.5,20.3c0.3,1.3,1.2,3.1,3.9,4.2c1.6,0.6,3.6,0.9,6.1,0.9c1.2,0,2.5-0.1,3.9-0.2
			c-1.1,0.7-2.2,1.5-3.3,2.3c-15.8,11.3-17.5,15.9-17.1,19c0.1,1.1,0.8,3,3.5,4.1c1.4,0.6,3.6,0.9,6.2,0.9c3.7,0,8.4-0.5,13.4-1.5
			c-19.1,13.9-17.8,16.7-16.9,18.6c0.5,0.9,1.4,2.2,3.6,3c1.3,0.5,2.9,0.7,4.7,0.7c0.3,0,0.7,0,1,0c-7.7,3.9-19.8,8-32.6,5.4
			c-1.6-0.4-3.2,0.7-3.5,2.3c-0.4,1.6,0.7,3.2,2.3,3.5c2.9,0.6,5.9,0.9,8.7,1l-168.3,218.3c-1.1,1.3-0.8,3.2,0.5,4.2
			c0.5,0.4,1.2,0.6,1.8,0.6c0.9,0,1.8-0.4,2.4-1.1l171.5-222.5c8.5-1.2,15.8-4.2,21.1-7l-14.1,63.4c-0.3,1.6,0.7,3.2,2.3,3.6
			c0.3,0.1,0.5,0.1,0.7,0.1c1.3,0,2.6-0.9,2.9-2.4l12.1-54.2c0.9,1.6,2.3,2.8,4.1,3.4c0.3,0.2,0.7,0.3,1.2,0.3
			c2.6,0,7.4-4.1,26.5-34.6c5.3-4,8.3-8.3,8.8-12.7c0.5-3.9-1-7.1-2.5-9c8.6-8,6-18.1,2.8-23.5c1.2-0.7,2.3-1.3,3.3-2
			c7.8-5.1,10-14.1,10.3-21.7c3.1-0.6,5.2-1.4,5.2-1.4c0.8-0.4,1.5-1.1,1.7-1.9s0.1-1.8-0.4-2.5l-26-39.5c-0.5-0.8-1.4-1.2-2.4-1.3
			l73.7-325.5C592.3,1245.8,592.4,1245.4,592.4,1245z M490.9,1715c-0.1-0.1-0.1-0.3-0.2-0.4c-1.1-3.3,2.2-11.4,5-16
			c0-0.1,0.1-0.1,0.1-0.2c3.3-1.2,6.7-2.8,10.3-4.5C499.8,1703.5,493.6,1712.2,490.9,1715z M520.4,1673.7
			c-0.4,2.7-3.1,8.2-16.8,14.8c-16.2,7.9-24.9,8.7-28.2,8.3c3.6-3.9,14.7-12.2,24.5-18.9c0.5-0.3,0.8-0.8,1-1.2
			c7-2.2,13.6-4.9,18.2-7.7C519.7,1669.8,520.8,1671.5,520.4,1673.7z M518.6,1662.1c-10.7,8.4-43.8,15.6-50,13.5
			c1.8-3.8,14.9-13.8,30-23c8-2.2,16.2-5.1,22.7-8C522.7,1646.8,527.2,1655.3,518.6,1662.1z M526.7,1635
			c-5.7,3.7-17.6,8.5-29.1,11.6c-0.3,0-0.6,0.1-0.8,0.2c-14.8,3.9-20.7,3.1-22,2.5c0.4-1,3-5.1,20.5-14.1
			c10.5-5.4,21.1-9.9,21.2-9.9c1.5-0.6,2.2-2.4,1.6-3.9c-0.6-1.5-2.4-2.2-3.9-1.6c0,0-2.8,1.2-6.9,3l4.1-18.3
			c6.4,11.4,15.5,14.2,22.7,14.3C533.9,1624.7,532.2,1631.4,526.7,1635z M505.9,1427.9c-94.7-27.7-202.1-26-223-25.4l8.3-58.5
			l72.3-38.8c16.7-9,23.1-30,14.1-46.7s-30-23.1-46.7-14.1l-27.7,14.9l7.5-52.9c23.7-2.3,220.5-20.1,266.6,20.2L505.9,1427.9z"/>
		<g>
			<path fill="#1A1A1A" d="M484.1,1340.7l-73.5,38.5c-11.5,6-25.7,1.5-31.7-9.9l0,0c-6-11.5-1.5-25.7,9.9-31.7l73.5-38.5
				c11.5-6,25.7-1.5,31.7,9.9l0,0C500,1320.5,495.5,1334.7,484.1,1340.7z"/>
		</g>
	</g>
</g>
<g id="Layer_6">
	<g>
		<g>
			<path fill="#FFFFFF" d="M971.1,1835.6l-98.7-180l-73.1-127.5l-43.4-19.6l-35.1,31.6l6.5,3.2c0,0-5,18,9.2,29c0,0-14.2,8.8-3.5,23
				c0,0-10.2,3.5-3.8,16.2l4.5,12.5c0,0,9.5,29.8,12.4,30.7c2.9,0.8,8.6-4.7,8.6-4.7l1.8-9.5l24,16.7L889,1913c0,0,36.5,2.5,60-23.5
				C974.6,1861.2,971.1,1835.6,971.1,1835.6z"/>
		</g>
		<path fill="#FFFFFF" d="M770.6,1171.6c89.8,86,243.3,97.1,243.3,97.1l-3.5,172.9c0,0-134,12-246.4-65.7"/>
		<path fill="#1A1A1A" d="M1014.2,1265.8c-0.4,0-38.7-2.9-87.5-16.2c-44.8-12.3-107.7-36-153.6-79.8c-0.5-0.7-1.4-1.1-2.3-1.2
			c-1.6-0.1-3,1.2-3.1,2.9l-11.5,333.9c-0.9-0.1-1.8,0.1-2.4,0.8l-35.1,31.6c-0.7,0.6-1.1,1.4-1,2.3s0.5,1.8,1.2,2.3
			c0.1,0,1.9,1.4,4.8,2.8c-1.7,7.4-2,16.9,4.4,23.8c0.8,0.8,1.7,1.7,2.7,2.7c-4.4,4.4-9.4,13.4-3.3,23.4c-1.9,1.5-4,4.1-4.5,7.9
			c-0.5,4.2,1.1,8.8,4.7,13.7c0,0.1,0,0.2,0.1,0.4c12.1,38,15.3,40.7,17.8,40.7c0.2,0,0.4,0,0.7,0.1c1.8-0.2,3.4-0.9,4.7-2.1
			l-1.9,55.3c-0.1,1.7,1.2,3,3,3.1c1.6,0,2.9-1.3,3-2.9l2.2-65.1c4.4,4,10.8,8.9,18.7,12.2l109.7,258.7c0.5,1.1,1.6,1.8,2.8,1.8
			c0.4,0,0.8-0.1,1.1-0.2c1.5-0.6,2.2-2.4,1.6-3.9l-107.6-253.9c2.8,0.7,5.7,1.1,8.7,1.3c0.1,0,0.1,0,0.2,0c1.6,0,2.9-1.2,3-2.7
			c0.1-1.7-1.1-3.1-2.8-3.2c-13.1-0.7-23.8-7.9-30.3-13.6c1.8,0.6,3.5,0.9,5,0.9c0.2,0,0.5,0,0.8-0.1c2.3-0.2,3.5-1.2,4.2-2
			c1.4-1.6,3.3-4-11.6-22.2c7.1,3.4,13.7,5.6,17.7,5.6c0.4,0,0.7,0,0.8-0.1c3-0.4,4.1-2.1,4.5-3.1c1.2-2.8,0.8-7.8-11.7-22.7
			c-0.9-1.1-1.8-2.1-2.6-3.1c3.4,1.3,6.5,2,8.8,2c0.4,0,0.8,0,1.2-0.1c2.9-0.4,4.3-1.9,4.9-3.1c1.8-3.4,1.2-9-16.7-25.3
			c-2.6-2.3-5.2-4.6-7.6-6.6l0.6-18.8l20.1,20.6c1.1,1.2,3,1.3,4.2,0.1c1.2-1.1,1.3-3,0.1-4.2l-27.7-28.4c-0.6-0.6-1.4-0.9-2.3-0.9
			s-1.7,0.4-2.2,1.1c-8.7,10.9-18,10.6-24,8.6c-0.3-0.2-0.5-0.3-0.9-0.4c-0.2,0-0.4-0.1-0.6-0.1c-0.7-0.3-1.3-0.5-1.8-0.8l30.8-27.7
			c10.9,4.2,35.1,13.9,40.9,18.5c7.1,7.5,106.2,187.3,171.1,306.6c0.5,1,1.5,1.6,2.6,1.6c0.5,0,1-0.1,1.4-0.5c1.5-0.8,2-2.6,1.2-4.1
			c-0.4-0.7-41.5-76.2-83-151.4c-84.2-152.7-88.1-155.7-89.5-156.9c-6.2-5-28.7-14-39.1-18.1l4.4-126.5
			c57.4,38.4,119.8,53.7,162.5,59.7c25.2,3.6,46.6,4.4,61.2,4.4c12.8,0,20.3-0.7,20.6-0.6c1.5-0.1,2.7-1.4,2.7-2.9l3.5-172.9
			C1017,1267.3,1015.8,1265.9,1014.2,1265.8z M747.2,1651.1c-0.1,0.1-0.2,0.2-0.3,0.3c-1.9-3.5-5.7-13.6-9.5-24.6
			c0.1,0,0.1,0.1,0.2,0.1c3,2.6,6,4.9,8.8,7c0,0.2,0.1,0.4,0.1,0.5C748,1639.6,749.2,1648.2,747.2,1651.1z M766.7,1637.5
			c-3.3-0.5-11.5-3.4-25.2-15.2c-11.6-9.9-12.8-15.8-12.5-18.5c0.2-2.1,1.5-3.5,2.3-4.1c3.8,3.8,9.5,8.1,15.9,12
			c0.1,0.5,0.3,0.9,0.7,1.2C755.6,1622,764.2,1632.9,766.7,1637.5z M778.4,1618.9c-6.7,0.4-36.8-14.9-44.9-25.7
			c-6.7-8.8,0.1-16,1.9-17.6c5.5,4.4,12.6,9.2,19.7,13.3c1.7,1.8,6.9,7.2,12,13.3C776.2,1613,778,1617.4,778.4,1618.9z
			 M729.5,1547.1c7,1.7,16.5,1.2,25.5-8.1l-0.6,18.9c-3.5-2.8-5.8-4.6-5.9-4.6c-1.3-1-3.2-0.7-4.2,0.6c-1,1.3-0.7,3.2,0.6,4.2
			c18.4,14,34.2,29.5,34.3,33.7c-1.4,0.4-7.4-0.4-21.1-8.2c-10.4-5.9-20.9-13.6-25.5-18.7C728.2,1560,728.2,1553,729.5,1547.1z
			 M1007.6,1438.8c-8.9,0.5-38.8,1.6-77.9-3.9c-40-5.7-97.6-19.6-151.7-53.4l16.1-186.4c23.1,17,48.5,30.2,72.9,40.4l50,83.4
			c6.8,11.3,21.6,15,32.9,8.3s15-21.6,8.3-32.9l-21.6-36c36.4,9.1,65.4,12.4,74.3,13.2L1007.6,1438.8z"/>
		<g>
			<path fill="#1A1A1A" d="M832.3,1354.5l-28-45.3c-4.4-7.1-2.2-16.4,4.9-20.8l0,0c7.1-4.4,16.4-2.2,20.8,4.9l28,45.3
				c4.4,7.1,2.2,16.4-4.9,20.8l0,0C846,1363.7,836.6,1361.5,832.3,1354.5z"/>
		</g>
	</g>
</g>
<g id="Layer_5">
	<g>
		<g>
			<path fill="#FFFFFF" d="M695.3,1933.2l-17.9-309.6c0,0,18.7-10.6,21.6-26s7.4-55.5-15.1-67.5l-7.6,7.2c0,0-2.1-17.6-12.7-16.4
				c-10.6,1.2-11.9,14.1-11.9,14.1s-4.4-18.9-15.6-17.9c-11.2,1.1-10.5,15.7-10.5,15.7s-9.1-11.6-16.6-5.7s-6.7,19.9-6.7,19.9
				s-19.3,8-27.3,23s2.5,31,21.5,45c0,0,10,6,0.5,43.5s-42,281-42,281s10.9,35.1,72.4,40.6S695.3,1933.2,695.3,1933.2z"/>
		</g>
		<g>
			<path fill="#1A1A1A" d="M685.2,1621.6c5.9-3.9,14-9.2,16.9-23.4c2-9.8,2.8-22.3,2.2-33.4c-0.5-9.4-2.2-22-7.6-29.3
				c-2.4-3.3-8.7-8.9-15.1-7c-1.1,0.4-2.1,0.9-3.1,1.6c-0.7-3-2.1-6.3-4.6-8.7c-2.7-2.6-6.2-3.8-10.4-3.5c-3.3,0.2-6.3,1.9-8.8,4.8
				c-0.9,1.1-1.8,2.3-2.5,3.7c-0.3-0.6-0.6-1.3-0.9-1.9c-3.6-7.1-9-10.7-15.4-10.3c-5.7,0.3-9.8,5.1-12.2,14.3
				c-1.7-1.8-3.8-3.5-6.4-4.5c-3.1-1.1-6.3-0.9-9.5,0.6c-2.5,1.2-5.5,4.7-9,19.9c-5.6,3.2-37.3,23-30.4,44.4
				c3.8,11.8,12.1,18.5,18.8,23.8c5.6,4.5,10.1,8,10.5,13.1c0.9,10.7-32.7,229.8-45.7,313.3c-0.3,1.6,0.9,3.1,2.5,3.4
				c0.2,0,0.3,0,0.5,0c1.5,0,2.8-1,2.9-2.4c1.9-12.2,46.9-301.1,45.8-314.7c-0.6-7.6-6.5-12.3-12.7-17.3c-6.3-5.1-13.6-10.9-16.8-21
				c-4.3-13.7,13.5-27.9,22.9-34.3c-0.1,0.6-0.2,1.1-0.3,1.7c-2.3,12.7-3.7,25.2-3.7,25.3c-0.2,1.6,1,3.1,2.6,3.3c0.1,0,0.2,0,0.3,0
				c1.5,0,2.8-1.1,3.1-2.6c2.5-22.5,7.7-48.2,11.3-50.5c1.7-0.8,3.2-1,4.8-0.4c3.2,1.2,5.9,5.2,6.9,7.1c-1.1,8.1-0.9,15.3-0.9,15.6
				c0,1.6,1.4,2.9,3,2.9c1.7,0,3.1-1.4,3-3.1c-0.3-12.6,2.4-31.5,9.1-31.9c9.8-0.6,12.5,15.1,12.5,15.3c0,0.2,0.1,0.3,0.1,0.5
				c-0.6,3.5-0.8,7.3-0.5,11.2c0.1,1.6,1.5,2.8,3,2.8c0.1,0,0.1,0,0.4-0.1c1.6-0.1,2.8-1.5,2.7-3.2c-0.6-8,1.3-15.9,4.9-20.1
				c1-1.1,2.6-2.6,4.6-2.7c2.4-0.2,4.3,0.4,5.8,1.8c3.1,3.1,3.7,9.3,3.6,11.5c0,0.4,0,0.8,0.2,1.2c-1,3.4-1.7,7.7-2,12.9
				c-0.1,1.6,1.1,3,2.8,3.1c1.6,0.1,3-1.1,3.1-2.8c0.8-14.7,4.6-16.9,5.8-17.3c2.7-0.9,6.7,2.4,8.5,4.8c7.4,10.1,8.2,38.6,4.3,57.9
				c-2.4,11.7-8.7,15.9-14.3,19.5c-2.5,1.6-4.8,3.1-6.6,5.1c-1.7,1.9-4.1,4.7,6.2,159.2c5.1,75.8,10.8,151.8,10.9,152.6
				c0.1,1.6,1.4,2.8,3,2.8c0.1,0,0.1,0,0.4,0c1.7-0.1,2.9-1.5,2.8-3.2c-8.9-117.3-21.1-294.9-18.3-307.7
				C681.4,1624.1,683.2,1622.9,685.2,1621.6z"/>
			<path fill="#1A1A1A" d="M662.8,1743c-1-1.3-2.9-1.5-4.2-0.4c-1.3,1-1.5,2.9-0.4,4.2l7.3,8.7c0.6,0.7,1.4,1.1,2.3,1.1
				c0.6,0,1.3-0.2,1.9-0.7c1.3-1,1.5-2.9,0.4-4.2L662.8,1743z"/>
			<path fill="#1A1A1A" d="M656.9,1765.2c-1-1.4-2.9-1.7-4.2-0.7c-1.4,1-1.7,2.9-0.7,4.2l10,14c0.5,0.9,1.5,1.3,2.4,1.3
				c0.6,0,1.2-0.2,1.8-0.6c1.4-1,1.7-2.9,0.7-4.2L656.9,1765.2z"/>
			<path fill="#1A1A1A" d="M654.1,1795.7c-1-1.3-2.9-1.5-4.2-0.5s-1.5,2.9-0.5,4.2l9.3,12c0.6,0.8,1.5,1.2,2.4,1.2
				c0.6,0,1.3-0.2,1.8-0.7c1.3-1,1.5-2.9,0.5-4.2L654.1,1795.7z"/>
		</g>
	</g>
</g>
<g id="Layer_4">
	<g>
		<g>
			<path fill="#FFFFFF" d="M1359.4,1791.2l-61.8-243l7.8-89.9c0,0,6-24.7,2-39.7s-7.3-15.3-9.7-15.3c-2.3,0,0.3-31.2-6.5-29.4
				c-6.8,1.8-21.2,53.4-25.5,64.8c-4.3,11.3-11.2,25.2-16.3,21.6c-5.1-3.6-14.1-21.9-18.4-50.6s-14.4-56.9-20.9-52.8
				s-4.3,35.1-4.3,35.1s-7.4-19.6-13-16.8c-5.5,2.8,10,105.1,3.6,112.1c0,0-10.4-4.6-18.4-15.3c-8-10.7-30.5-28.8-37.4-16.8
				c0,0,3.7,14.8,22.7,38.8s49.7,58.7,49.7,58.7l15.4,246.3L1359.4,1791.2z"/>
		</g>
		<path fill="#1A1A1A" d="M1362.2,1790.4l-61.7-242.6c0.2-6,3.4-70.9,5.7-86.8c0.1-0.7,0.3-1.9,0.6-3.4c4.6-25.3,7.9-54.7-7.1-57.6
			c-0.4-0.1-0.9,0-1.3,0.1c1.1-23.9-2.5-28.4-6.7-29.2c-7.5-1.3-11.8,11.8-20.2,39.2c-3.7,12.2-7.5,24.8-11.6,34.2
			c-5.6,12.8-8.9,13.2-9.8,13c-6.5-1.4-13.1-31.2-17.4-51c-7.4-33.9-12.5-54.5-23.1-52.4c-1.3,0.3-3.3,1.1-4.8,3.5
			c-2.4,3.8-3.1,11.4-2.7,20.8c-2.5-3.3-5.6-6-9.2-6c-1.1,0-2.1,0.5-2.8,1.3c-3,3.2-2.3,13.8,1.5,51.3c2.2,21.8,5.6,54.6,3,60
			c-2.3-0.7-8.5-7.5-12.6-12.1c-12.3-13.7-29.1-32.4-43.3-19.7c-5.4,4.8,0.5,15.8,46.5,71.2c11.3,13.6,24,28.9,25.2,32.1
			c0.6,10.6,14.5,233.2,15.1,242.8c0.1,1.6,1.4,2.8,3,2.8c0,0,0.1,0,0.4,0.1c1.6-0.1,2.9-1.5,2.8-3.2c-0.2-2.4-14.8-236.3-15.1-243
			c-0.2-3.2-5.5-10-26.6-35.4c-10.6-12.8-22.7-27.4-31.9-39.6c-12.9-17-14.7-22.2-14.8-23.7c8.9-7.3,20.9,4.6,34.4,19.6
			c9,10,15.5,17.2,20.8,12.9c4.7-3.8,3.9-19.7-0.8-65.5c-1.7-16.6-4-38.8-3.2-45.4c3,2,6.7,9,8.6,14.3c0.1,0.3,0.2,0.5,0.4,0.7
			c3.6,29.6,12.8,66.2,14.3,72.3c0.3,1.4,1.6,2.3,2.9,2.3c0.3,0,0.5,0,0.8-0.2c1.6-0.4,2.6-2,2.2-3.6c-9.2-36-20.5-93.4-13.8-104
			c0.3-0.5,0.6-0.7,0.9-0.8c0.1-0.1,3-0.5,7.3,12.6c3.1,9.3,6,22.5,8.8,35.2c7.3,33.3,12.4,53.6,22,55.6
			c11.3,2.4,18.3-17.8,28.5-51.3c4-13,9.9-32.4,13.4-34.9c0.9,1.3,3.8,8.2,0.1,42.8c-2.2,20.2-5.6,39.9-5.6,40.1
			c-0.3,1.7,0.8,3.2,2.4,3.5c1.7,0.3,3.2-0.8,3.5-2.4c0-0.2,3.6-21.5,5.8-42.7c0.5-4.6,0.8-8.7,1.1-12.5c0.2,0.1,0.4,0.1,0.5,0.2
			c4.2,0.8,10,8.5,2.4,50.7c-0.3,1.7-0.5,2.8-0.6,3.6c-2.4,16.8-5.7,84.9-5.8,87.8c0,0.3,0,0.6,0.1,0.9l61.8,243
			c0.3,1.4,1.6,2.3,2.9,2.3c0.3,0,0.5,0,0.6-0.2C1361.6,1793.6,1362.6,1792,1362.2,1790.4z"/>
		<g>
			<path fill="#1A1A1A" d="M1301.8,1632.6c-0.4,0-0.8-0.1-1.3-0.3l-8.7-4c-1.5-0.7-2.2-2.5-1.5-4s2.5-2.2,4-1.5l8.7,4
				c1.5,0.7,2.2,2.5,1.5,4C1304,1632,1302.9,1632.6,1301.8,1632.6z"/>
		</g>
		<g>
			<path fill="#1A1A1A" d="M1305.8,1646.6c-0.5,0-0.9-0.1-1.3-0.3l-12-6c-1.5-0.7-2.1-2.5-1.3-4c0.7-1.5,2.5-2.1,4-1.3l12,6
				c1.5,0.7,2.1,2.5,1.3,4C1307.9,1646,1306.9,1646.6,1305.8,1646.6z"/>
		</g>
		<g>
			<path fill="#1A1A1A" d="M1313.1,1668.6c-0.5,0-0.9-0.1-1.3-0.3l-13.3-6.7c-1.5-0.7-2.1-2.5-1.3-4c0.7-1.5,2.5-2.1,4-1.3l13.3,6.7
				c1.5,0.7,2.1,2.5,1.3,4C1315.3,1668,1314.2,1668.6,1313.1,1668.6z"/>
		</g>
	</g>
</g>
<g id="Layer_3">
	<g>
		<g>
			<path fill="#FFFFFF" d="M229.1,1625c0,0,84-76,87-88.7c0,0-3.3-8.3-18.7-1.7c-15.3,6.7-39.7,32.3-41.3,25
				c-1.7-7.3,20.3-110.3,20.3-110.3l-11,7.7c0,0,3.3-28-3.3-28.3c-6.7-0.3-18.7,21.7-22.7,34.7s-24.7,68-31.7,61.7s-17-31-16.7-52
				s-8.3-41.3-11.7-39.7c-3.3,1.7-8,27.3-8,27.3s-10-1-12.3,5.3s-4.7,34.3-4,46.7c0.7,12.3-8.1,92.1-8.1,92.1l-97.5,231
				c0,0,10.3,40.6,57.6,57.9s72-26.7,72-30.7S229.1,1625,229.1,1625z"/>
		</g>
		<g>
			<path fill="#1A1A1A" d="M318.5,1534.2c-12.1-14.7-31.6,1.3-45.8,13c-4.7,4-11.8,9.8-14.3,10.1c-1.7-5.7,6.5-37.6,12-58.9
				c9.4-36.5,11.6-46.9,9.2-50.5c-0.6-1-1.5-1.5-2.6-1.7c-3.6-0.5-7.2,1.7-10.2,4.7c1.8-9.2,2.2-16.7,0.5-20.8
				c-1.1-2.6-2.9-3.7-4.2-4.2c-10.2-3.6-18.3,16-30.7,48.4c-7.2,18.9-18.2,47.4-24.8,47.8c-0.9,0-4.2-0.8-7.8-14.4
				c-2.6-9.8-4.5-22.9-6.4-35.5c-4.2-28.4-6.5-42-14.1-41.8c-4.3,0.2-8.6,4-11,27.9c-0.4-0.2-0.9-0.3-1.4-0.3
				c-15.3,0.6-16.4,30.2-15.7,55.9c0.1,1.5,0.1,2.7,0.1,3.4c-0.1,16-6.7,80.7-7.3,86.7l-97.3,230.6c-0.6,1.5,0.1,3.3,1.6,3.9
				c0.4,0.1,0.8,0.2,1.2,0.2c1.1,0,2.2-0.7,2.7-1.8l97.5-231c0.1-0.3,0.2-0.6,0.2-0.9c0.3-2.9,7.2-70.7,7.4-87.7
				c0-0.7-0.1-1.9-0.1-3.6c-1.2-42.8,5.7-49.5,9.9-49.7c0.2,0,0.5,0,0.7-0.1c-0.3,3.7-0.6,7.9-0.8,12.5c-1,21.3-0.6,42.9-0.6,43.1
				c0,1.6,1.4,2.9,3,2.9c0.1,0,0.1,0,0.1,0c1.6-0.1,2.9-1.4,2.9-3.1c0-0.2-0.4-20.1,0.5-40.5c1.5-34.8,5.4-41.2,6.5-42.3
				c3.1,3.1,6,23.1,8,36.5c5.1,34.6,9,55.6,20.5,55c9.8-0.5,17.9-19.8,30.1-51.6c4.6-12.2,9.4-24.8,13.9-33.5
				c6.2-12.3,9-11.4,9.1-11.4c0.3,0.1,0.6,0.5,0.8,1c5,11.5-14.7,66.5-29.2,100.7c-0.6,1.5,0.1,3.3,1.6,3.9c0.4,0.1,0.8,0.2,1.2,0.2
				c1.2,0,2.3-0.7,2.7-1.7c2.4-5.8,17-40.6,25-69.4c0.3-0.2,0.6-0.6,0.8-0.9c3-5.5,7.6-11.3,10.7-12.8c-0.3,6.7-5.8,28.2-10,44.4
				c-11.5,44.6-14.7,60.2-10.6,64.7c4.6,5,12.1-1.2,22.5-9.7c15.6-12.8,29.2-22.8,37-14.2c-0.4,1.5-3,6.3-18.2,21.2
				c-10.9,10.7-25,23.3-37.5,34.4c-24.7,22-31,27.9-31.6,31c-1.3,6.6-50.8,235.7-51.3,238c-0.3,1.7,0.7,3.2,2.3,3.6
				c0.2,0.1,0.4,0.1,0.6,0.1c1.4,0,2.6-1,3-2.6c2-9.3,49.2-227.4,51.3-237.8c1.7-3,16.5-16.3,29.7-28
				C315.6,1549.7,323.1,1539.8,318.5,1534.2z"/>
			<path fill="#1A1A1A" d="M183.8,1693.8c0.5,0.5,1.3,0.8,2,0.8c0.8,0,1.6-0.3,2.2-1c1.1-1.2,1-3.1-0.2-4.2l-8.7-8
				c-1.2-1.1-3.1-1-4.2,0.2c-1.1,1.2-1,3.1,0.2,4.2L183.8,1693.8z"/>
			<path fill="#1A1A1A" d="M183.8,1710c0.8,0,1.6-0.4,2.2-1c1.1-1.2,0.9-3.1-0.3-4.2l-10.7-9.3c-1.2-1.1-3.1-0.9-4.2,0.3
				c-1.1,1.2-0.9,3.1,0.3,4.2l10.7,9.3C182.4,1709.8,183.1,1710,183.8,1710z"/>
		</g>
	</g>
</g>
</svg>
