<?xml version="1.0" encoding="utf-8"?>
<!-- Generator: Adobe Illustrator 21.0.0, SVG Export Plug-In . SVG Version: 6.00 Build 0)  -->
<svg version="1.1" baseProfile="tiny" id="Layer_7" xmlns="http://www.w3.org/2000/svg" xmlns:xlink="http://www.w3.org/1999/xlink"
	 x="0px" y="0px" viewBox="0 0 800 800" xml:space="preserve">
<g>
	<circle fill="#FECE2F" cx="392" cy="350.7" r="259.6"/>
</g>
<g>
	
		<ellipse transform="matrix(5.376187e-02 -0.9986 0.9986 5.376187e-02 -52.6227 936.4722)" fill="#FFFFFF" cx="467.8" cy="496" rx="159.8" ry="159.8"/>
</g>
<g>
	<path fill="#1A1A1A" d="M556.4,256.7h201c0,0-14.8-45.8-64.8-41.7c-35.9,2.9-26.1,27.5-83.7,20.3
		C573.4,230.8,558.6,240.4,556.4,256.7z"/>
</g>
<g>
	<path fill="#1A1A1A" d="M441.4,277.7H552c0,0-8.1-25.2-35.7-23c-19.7,1.6-14.4,15.2-46.1,11.2C450.7,263.5,442.6,268.8,441.4,277.7
		z"/>
</g>
<g>
	<path fill="#1A1A1A" d="M111.4,203.3c-1.1-15.6,4.3-29.3-5.7-38.7c-10-9.3-13.3-13.7-16-36.3c-2.7-22.7-9.3-76-36.7-69.7
		s-29,48-22.7,72.3s24.7,45.3,18,69s-18.3,41.3-7.3,76.3s20.4,44.3,26,72c5,24.7,23.3,34.7,33.7,21.7s-11-59,4.3-71
		s24.3-21.3,20.7-49.3C122.1,221.6,113.1,227.6,111.4,203.3z"/>
</g>
<g>
	<g>
		<path fill="#1A1A1A" d="M118.4,229.6c0,0,12.1-9.3,26.3-7c17.7,2.8,52.4,23.5,94.5,22.3c47.9-1.3,76.8-18.8,111.8-37
			s57.7-27.5,109.7-21s137.3-1.5,176-24.3l1.3-7.7c0,0-40.5,18.5-100.8,21.8s-99.8-2.2-106.5-20c-5.8-15.6,18.4-48.9,55.2-69.4
			l3-7.1c0,0-27.2,7-65,41.3s-38,46.3-101,74.8s-107.2,16.3-131.8,4.5c-24.7-11.8-54.7-32.4-82.7-22.3c-8.3,3-21.7,15-16.7,35
			S107.1,238.6,118.4,229.6z"/>
	</g>
	<g>
		<g>
			<path fill="#FECE2F" d="M102.7,191c5.7-2.2,11.8-3.3,18-3.3c6.2,0,12.4,1,18.2,3c2.9,1,5.7,2.2,8.5,3.4c2.8,1.2,5.5,2.4,8.2,3.2
				c1.4,0.4,2.7,0.7,4.1,0.7c1.4,0,2.7-0.2,3.8-0.8c1.1-0.6,2.1-1.6,2.7-2.8c0.6-1.2,0.7-2.6,0.2-3.8l0,0c-0.1-0.3,0-0.5,0.2-0.7
				c0.2-0.1,0.5,0,0.6,0.2c0.5,0.7,0.7,1.5,0.8,2.4c0.1,0.9-0.1,1.7-0.4,2.5c-0.6,1.6-1.7,2.9-3.1,3.9c-1.5,1-3.2,1.4-4.8,1.5
				c-1.7,0.1-3.3-0.2-4.8-0.5c-3.1-0.8-5.9-1.9-8.7-3c-2.8-1.1-5.6-2.3-8.3-3.2c-5.5-1.9-11.4-3-17.2-3.3
				c-5.9-0.3-11.8,0.3-17.7,1.5c-0.3,0.1-0.5-0.1-0.6-0.4C102.4,191.3,102.5,191.1,102.7,191z"/>
		</g>
		<g>
			<path fill="#FECE2F" d="M96,182.2c-1.1,4.9-1.6,9.9-1.7,14.9c0,5,0.5,9.9,1.7,14.7c1.1,4.8,2.7,9.5,5.7,13.3
				c2.9,3.7,7.3,6.5,12.3,6.4c0.2,0,0.4,0.2,0.4,0.4c0,0.2-0.1,0.3-0.3,0.4c-2.6,0.6-5.4,0.2-7.8-0.8c-2.5-1-4.7-2.7-6.5-4.7
				c-3.6-4.1-5.4-9.2-6.6-14.2c-1.1-5.1-1.6-10.3-1.2-15.4c0.4-5.2,1.4-10.3,3.4-15c0.1-0.2,0.3-0.3,0.5-0.2
				C96,181.8,96.1,182,96,182.2z"/>
		</g>
		<g>
			<path fill="#FECE2F" d="M109.2,206.7c0.6-1.9,1.9-3.5,3.5-4.7c1.6-1.2,3.5-1.9,5.4-2.4c1.9-0.5,3.9-0.6,5.8-0.5
				c1.9,0.1,4,0.5,5.9,1.6c1.9,1.2,3.3,3.4,3.1,5.9c-0.1,1.2-0.9,2.5-1.7,3.2c-0.8,0.7-1.6,1.2-2.1,1.7c-2.2,2.2-2.9,6.2-1.2,9.2
				l0,0c0.1,0.2,0,0.5-0.2,0.7c-0.2,0.1-0.5,0.1-0.6-0.1c-2.6-3.1-2.5-8.1,0.4-11.4c0.7-0.8,1.5-1.4,2.1-1.9c0.6-0.6,0.8-1,0.8-1.7
				c0-0.6-0.1-1.3-0.5-1.9c-0.4-0.6-0.8-1.1-1.5-1.5c-1.3-0.8-2.9-1.2-4.7-1.3c-1.7-0.2-3.5-0.1-5.2,0.2c-1.7,0.3-3.4,0.8-4.9,1.7
				c-1.5,0.8-2.7,2.1-3.6,3.6l0,0c-0.1,0.2-0.4,0.3-0.7,0.2C109.3,207.1,109.2,206.9,109.2,206.7z"/>
		</g>
		<g>
			<path fill="#FECE2F" d="M143.2,220.2c-0.2-0.9-0.2-1.8-0.1-2.7c0.1-0.9,0.4-1.7,0.9-2.5c0.8-1.6,2.2-2.9,3.8-3.8
				c1.6-0.9,3.3-1.3,5.1-1.5c1.7-0.2,3.5-0.1,5.3,0.5c1.8,0.6,3.3,1.7,4.6,2.9c1.3,1.2,2.3,2.4,3.5,3.5c2.2,2.1,5,3.5,8,4.1
				c2.9,0.6,6.1,0.2,9.5,0.1c1.7,0,3.5,0.1,5.2,0.4c1.7,0.3,3.3,0.7,4.9,1.3c3.2,1.2,6.4,2.9,8.5,5.9c0.2,0.4,0.5,0.8,0.7,1.2
				c0.2,0.4,0.4,0.8,0.5,1.3c0.3,0.9,0.3,1.9,0.2,2.8c-0.2,1.8-0.8,3.3-1.3,4.9c-0.1,0.3-0.4,0.4-0.6,0.3c-0.2-0.1-0.4-0.3-0.3-0.6
				c0.3-1.6,0.8-3.2,0.8-4.7c0-0.8-0.1-1.5-0.3-2.1c-0.1-0.3-0.3-0.7-0.5-1c-0.2-0.3-0.4-0.6-0.6-0.9c-0.9-1.2-2.1-2.1-3.5-2.9
				c-1.3-0.8-2.8-1.4-4.3-1.8c-3-0.9-6.1-1.5-9.2-1.3c-3.1,0.1-6.6,0.6-10.1-0.1c-3.5-0.7-6.7-2.4-9.3-4.9c-2.4-2.4-4.3-5.1-7-6.1
				c-1.3-0.5-2.9-0.6-4.4-0.6c-1.5,0.1-3,0.4-4.4,1c-1.4,0.6-2.5,1.6-3.3,2.9c-0.8,1.3-1.2,2.8-1,4.3l0,0c0,0.3-0.2,0.5-0.4,0.6
				C143.5,220.6,143.3,220.5,143.2,220.2z"/>
		</g>
		<g>
			<path fill="#FECE2F" d="M189,201.3c-0.9,1.8-1.6,3.6-1.8,5.3c-0.1,0.9,0,1.7,0.2,2.4c0.2,0.7,0.6,1.4,1.1,2
				c1.1,1.1,2.7,1.9,4.4,2.3c1.7,0.4,3.7,0.4,5.7,0.4c2,0,4.1,0,6.3,0.4c2.1,0.5,4.1,1.3,5.9,2.4c0.9,0.6,1.8,1.2,2.6,1.9
				c0.8,0.7,1.5,1.5,2.2,2.3c0.7,0.8,1.2,1.7,1.7,2.6c0.5,0.9,0.9,1.7,1.6,2l0,0c0.3,0.1,0.4,0.4,0.3,0.7c-0.1,0.2-0.3,0.4-0.6,0.3
				c-0.6-0.2-1.1-0.6-1.5-1c-0.4-0.4-0.7-0.9-1-1.3c-0.6-0.8-1.2-1.5-1.8-2.2c-1.3-1.4-2.9-2.5-4.6-3.4c-1.7-0.9-3.5-1.5-5.3-1.8
				c-1.8-0.3-3.7-0.2-5.7-0.2c-2,0.1-4.1,0.2-6.3-0.3c-2.2-0.5-4.4-1.4-6-3.2c-0.8-0.9-1.4-2.1-1.7-3.3c-0.2-1.2-0.2-2.5,0.1-3.6
				c0.6-2.2,1.9-4,3.5-5.4c0.2-0.2,0.5-0.2,0.7,0C189,200.8,189.1,201.1,189,201.3L189,201.3z"/>
		</g>
		<g>
			<path fill="#FECE2F" d="M259.3,222.1c4.9,0.9,10,0.5,14.7-1c2.3-0.8,4.6-1.8,6.6-3.1c0.5-0.3,1-0.7,1.5-1l1.4-1.1
				c0.9-0.8,1.9-1.7,3-2.5c1.1-0.8,2.5-1.6,3.9-1.9c1.4-0.4,2.8-0.5,4.1-0.6c1.3-0.1,2.6-0.1,3.8-0.2c1.2-0.1,2.4-0.3,3.6-0.5
				c1.2-0.2,2.4-0.5,3.6-0.9c1.2-0.4,2.3-0.8,3.3-1.4c1-0.6,1.9-1.3,2.4-2.3c0.6-1,0.8-2.1,0.6-3.2l0,0c-0.1-0.3,0.1-0.5,0.4-0.6
				c0.2-0.1,0.5,0.1,0.6,0.3c0.6,1.3,0.4,2.9-0.2,4.2c-0.6,1.3-1.6,2.4-2.7,3.2c-2.3,1.6-4.8,2.4-7.4,3.1c-2.5,0.7-5.3,0.9-7.8,1
				c-1.2,0.1-2.4,0.2-3.5,0.5c-1.1,0.3-2,0.8-3,1.5c-0.9,0.7-1.9,1.5-2.9,2.4c-0.5,0.4-1.1,0.8-1.6,1.2c-0.6,0.4-1.1,0.7-1.7,1.1
				c-2.3,1.4-4.8,2.4-7.3,3.1c-5.1,1.4-10.6,1.3-15.6-0.3c-0.3-0.1-0.4-0.4-0.3-0.6C258.8,222.2,259.1,222.1,259.3,222.1
				L259.3,222.1z"/>
		</g>
		<g>
			<path fill="#FECE2F" d="M264.2,240.8c1-2.2,2.2-4.3,3.9-6.1c1.7-1.8,3.8-3.4,6.4-4.1c1.3-0.3,2.7-0.4,4-0.2
				c1.3,0.2,2.5,0.6,3.7,1.1c2.3,1,4.2,2.3,6.2,3.5c0.2,0.1,0.3,0.5,0.2,0.7c-0.1,0.2-0.3,0.3-0.6,0.2c-2.3-0.6-4.5-1.6-6.6-2.3
				c-1.1-0.3-2.1-0.6-3.1-0.6c-1-0.1-2,0-3,0.3c-1.9,0.6-3.8,1.7-5.4,3.2c-1.7,1.5-3.1,3.2-4.8,4.9c-0.2,0.2-0.5,0.2-0.7,0
				C264.2,241.2,264.1,241,264.2,240.8z"/>
		</g>
		<g>
			<path fill="#FECE2F" d="M283.8,229.4c0.4-1.5,1.3-2.9,2.2-4.1c1-1.2,2-2.3,3.2-3.3c1.1-1,2.4-1.9,3.9-2.6c1.5-0.7,3.1-1,4.7-1.2
				c3.2-0.3,6.2,0.1,9.1,0.5c2.9,0.4,5.7,0.8,8.4,0.5c2.7-0.2,5.2-1.2,7.3-2.9c2.1-1.6,3.5-4,4.7-6.6c0.6-1.3,1.2-2.7,1.9-4
				c0.8-1.3,1.7-2.6,2.7-3.7c2-2.3,4.5-4.1,7.3-5.2c0.3-0.1,0.5,0,0.7,0.3c0.1,0.2,0,0.5-0.2,0.6c-2.5,1.4-4.7,3.2-6.5,5.4
				c-0.9,1.1-1.6,2.3-2.2,3.5c-0.6,1.3-1.1,2.6-1.7,4c-0.6,1.4-1.1,2.8-2,4.1c-0.8,1.3-1.9,2.6-3.1,3.6c-1.2,1-2.6,1.9-4,2.5
				c-0.7,0.3-1.5,0.6-2.3,0.7l-1.2,0.3l-1.2,0.2c-6.3,0.7-12-1.4-17.4-0.8c-2.7,0.3-5,1.2-7.3,2.9c-2.3,1.7-4.5,3.4-6.1,5.7l0,0
				c-0.2,0.2-0.5,0.3-0.7,0.1C283.8,229.8,283.7,229.6,283.8,229.4z"/>
		</g>
		<g>
			<path fill="#FECE2F" d="M377.6,178.3c2.5-0.1,4.9-1.1,7.2-2.4c2.3-1.4,4.3-3.2,6.2-5.2c3.8-4,6.9-8.8,11-12.8c2-2,4-4.1,5.9-6.1
				c1.9-2,3.7-3.9,5.1-6.2c2.8-4.5,4.2-9.9,4-15.4c0-0.3,0.2-0.5,0.5-0.5c0.2,0,0.5,0.2,0.5,0.4c1.4,5.6,0.3,11.9-2.6,17
				c-0.8,1.3-1.6,2.5-2.6,3.6c-1,1.1-2.1,2.1-3.2,3c-2.3,1.8-4.7,3.2-6.6,5.2c-3.8,4-6.7,8.8-10.4,13.3c-1.8,2.2-3.9,4.3-6.3,6.1
				c-2.4,1.8-5.2,3.2-8.3,3.9l0,0c-1.1,0.2-2.2-0.4-2.4-1.5c-0.2-1.1,0.4-2.2,1.5-2.4C377.4,178.3,377.5,178.3,377.6,178.3z"/>
		</g>
		<g>
			<path fill="#FECE2F" d="M456.7,106.8c-5-1.6-10.7,0.7-13.4,4.8c-0.7,1-1.1,2.1-1.4,3.4c-0.3,1.2-0.5,2.6-0.8,4
				c-0.3,1.4-1,2.9-1.8,4.1c-0.8,1.2-1.8,2.3-2.8,3.3c-2.1,2-4.2,3.6-6,5.5c-1.8,1.9-3.5,4-4.6,6.3c-0.5,1.2-0.9,2.4-1.1,3.6
				c-0.2,1.3-0.2,2.5,0,3.8c0.3,2.5,1.5,5,3.6,6.6l0,0c0.2,0.2,0.3,0.5,0.1,0.7c-0.2,0.2-0.4,0.3-0.7,0.1c-2.5-1.5-4.1-4.3-4.6-7.1
				c-0.6-2.8-0.2-5.9,0.9-8.6c1.1-2.7,2.8-5,4.7-7.1c1.9-2.1,4.1-3.8,6-5.6c0.9-0.9,1.8-1.9,2.5-2.9c0.7-1,1.1-2.1,1.5-3.3
				c0.3-1.2,0.5-2.6,0.9-4c0.3-1.4,1-2.9,1.9-4.1c1.7-2.5,4.4-4.2,7.1-5c1.4-0.4,2.9-0.6,4.3-0.5c1.5,0.1,2.9,0.4,4.2,1
				c0.2,0.1,0.4,0.4,0.2,0.7C457.2,106.8,456.9,106.9,456.7,106.8L456.7,106.8z"/>
		</g>
		<g>
			<path fill="#FECE2F" d="M391.5,186.1c1.7-0.8,3.4-1.8,4.9-2.9c1.5-1.2,2.9-2.5,4.1-3.9c2.4-2.9,4-6.5,6.6-9.7
				c1.2-1.6,2.8-3.1,4.7-4.1c0.9-0.5,2.1-0.8,3.1-1c1.1-0.1,2.2-0.1,3.3,0.1c2.1,0.4,4.2,1.3,5.8,2.8c0.8,0.7,1.5,1.6,2.1,2.5
				c0.6,0.9,1,2,1.3,3.1c0.2,1.1,0.3,2,0.6,2.5c0.3,0.6,0.9,1,1.7,1.3c1.6,0.5,3.5,0.5,5.4,0.4c3.8-0.3,7.6-1.3,11.7-1.5
				c8.1-0.3,16.2,2.9,21.9,8.5c0.2,0.2,0.2,0.5,0,0.7c-0.2,0.2-0.5,0.2-0.7,0c-5.7-5.1-13.5-7.8-21.1-7.4c-3.8,0.2-7.5,1.3-11.6,1.7
				c-1,0.1-2,0.1-3.1,0.1c-1,0-2.1-0.2-3.2-0.5c-1.1-0.4-2.2-1-2.9-2.2c-0.7-1.2-0.7-2.3-0.9-3.1c-0.7-3.3-4-5.9-7.4-6.5
				c-0.9-0.2-1.7-0.1-2.6-0.1c-0.8,0.2-1.6,0.4-2.4,0.8c-1.6,0.8-2.9,2-4.1,3.5c-2.4,2.9-4.2,6.5-6.9,9.5c-2.7,3-6.2,5.3-10,6.5
				c-0.3,0.1-0.5-0.1-0.6-0.3C391.2,186.5,391.3,186.2,391.5,186.1L391.5,186.1z"/>
		</g>
		<g>
			<path fill="#FECE2F" d="M498.9,179.3c1.7,4.1,6.3,6.7,10.4,5.6c2.1-0.4,4.3-1.4,6.6-2.1c1.2-0.4,2.4-0.6,3.6-0.8
				c1.2-0.1,2.5-0.2,3.7-0.1c4.9,0.3,9.6,1.5,14.1,1.3c2.3,0,4.4-0.5,6.3-1.5c1.9-1,3.5-2.5,4.3-4.6l0,0c0.1-0.3,0.4-0.4,0.6-0.3
				c0.2,0.1,0.3,0.3,0.3,0.5c-0.1,1.3-0.6,2.5-1.4,3.6c-0.8,1.1-1.7,2-2.8,2.7c-2.2,1.4-4.9,2-7.4,1.9c-5-0.1-9.5-2.1-14.2-2.3
				c-1.2,0-2.3,0-3.4,0.2c-1.1,0.2-2.2,0.5-3.3,1c-2.1,0.9-4.2,2.1-6.8,2.7c-1.3,0.3-2.6,0.4-3.9,0.1c-1.3-0.2-2.6-0.7-3.7-1.4
				c-2.2-1.4-3.8-3.7-4.2-6.2c0-0.3,0.1-0.5,0.4-0.6C498.5,179,498.8,179.1,498.9,179.3L498.9,179.3z"/>
		</g>
		<g>
			<path fill="#FECE2F" d="M563.7,182.5c0.7-2.8,2.8-5.1,5.3-6.4c2.5-1.4,5.4-1.9,8.2-1.9c2.8,0,5.5,0.4,8.2,0.9
				c2.7,0.5,5.2,1.1,7.9,1.4c0.2,0,0.3,0.2,0.3,0.4c0,0.2-0.2,0.3-0.3,0.3c-2.7,0-5.4-0.3-8.1-0.6c-2.7-0.3-5.3-0.6-7.9-0.5
				c-2.6,0.1-5.1,0.6-7.4,1.7c-2.3,1.1-4.3,2.7-5.6,4.9c-0.1,0.2-0.3,0.2-0.4,0.1C563.8,182.8,563.7,182.6,563.7,182.5z"/>
		</g>
		<g>
			<path fill="#FECE2F" d="M472.6,176.9c0.2,1.2,0.9,2.2,1.8,2.9c0.9,0.7,2,1.2,3.1,1.2c1.1,0.1,2.3-0.2,3.5-0.8
				c1.1-0.5,2.2-1.3,3.3-2.1l0,0c0.2-0.2,0.5-0.1,0.7,0.1c0.1,0.2,0.1,0.4,0.1,0.6c-0.7,1.3-1.7,2.5-3,3.3c-1.3,0.9-2.9,1.4-4.6,1.3
				c-1.7-0.1-3.3-0.9-4.5-2.1c-1.1-1.2-1.8-3-1.4-4.5c0.1-0.3,0.4-0.4,0.6-0.4C472.5,176.5,472.6,176.7,472.6,176.9L472.6,176.9z"/>
		</g>
		<g>
			<path fill="#FECE2F" d="M56.2,67.9c-2.2,3.9-3.3,8.5-3.7,12.9c-0.3,4.5,0.1,9.1,1.2,13.5l0.4,1.6c0.1,0.5,0.4,1.1,0.5,1.6
				c0.4,1.1,0.7,2.1,1.2,3.2l1.4,3.1l1.5,3.1c2,4.2,3.9,8.4,5.4,12.8c3.1,8.8,5.2,17.9,6.1,27.3c0.3,4.7,0.4,9.4-0.1,14
				c-0.5,4.6-1.4,9.2-2.9,13.7c-0.1,0.3-0.4,0.4-0.6,0.3c-0.2-0.1-0.4-0.3-0.3-0.6l0,0c0.8-4.5,1.4-9,1.5-13.6
				c0.1-4.5-0.2-9.1-0.7-13.6c-0.5-4.5-1.5-8.9-2.5-13.3c-1.1-4.4-2.5-8.7-3.9-13.1c-1.4-4.3-2.9-8.6-4.5-12.9l-1.2-3.2l-1.2-3.3
				c-0.4-1.1-0.7-2.3-1-3.4c-0.1-0.6-0.3-1.1-0.5-1.7L52,94.7c-0.9-4.6-1.2-9.3-0.7-14c0.3-2.3,0.7-4.6,1.4-6.9
				c0.7-2.2,1.5-4.4,2.7-6.5c0.1-0.2,0.4-0.3,0.7-0.2C56.3,67.3,56.3,67.6,56.2,67.9L56.2,67.9z"/>
		</g>
		<g>
			<path fill="#FECE2F" d="M51.2,113.5c-1.8,0.9-3.5,2.1-4.6,3.6c-1.2,1.5-1.5,3.3-1.4,5l0.1,0.7c0,0.2,0.1,0.4,0.2,0.7
				c0.1,0.4,0.2,0.9,0.4,1.3c0.2,0.4,0.3,0.9,0.5,1.3l0.6,1.4c0.8,1.9,1.7,3.9,2.5,5.9c1.5,4,2.9,8.2,3.3,12.6
				c0.2,2.2,0.1,4.5-0.3,6.7c-0.5,2.2-1.3,4.3-2.5,6.1c-0.1,0.2-0.5,0.3-0.7,0.2c-0.2-0.1-0.3-0.4-0.2-0.6l0,0c0.6-2,1-4,1.1-6
				c0.1-2-0.1-4-0.4-6c-0.3-2-0.9-3.9-1.5-5.9c-0.6-2-1.3-3.9-2.1-5.8c-0.7-2-1.5-3.9-2.3-5.9l-0.6-1.5c-0.2-0.5-0.4-1.1-0.5-1.7
				c-0.2-0.5-0.3-1.1-0.4-1.7c0-0.3-0.1-0.6-0.1-0.9l0-0.9c0-2.4,1-5,2.7-6.6c1.7-1.7,3.8-2.7,6-3.1c0.3-0.1,0.5,0.1,0.6,0.4
				C51.6,113.1,51.5,113.3,51.2,113.5L51.2,113.5z"/>
		</g>
		<g>
			<path fill="#FECE2F" d="M93,158c-3.5,3.3-6.4,7.2-8.9,11.3c-2.5,4.1-4.6,8.4-6.3,12.9c-1.7,4.5-2.9,9.1-3.7,13.8
				c-0.8,4.7-1.2,9.4-1.5,14.2c-0.7,9.5,0,19.1,1.5,28.6c1.6,9.5,4,18.8,7,28.1c0.1,0.2,0,0.4-0.3,0.5c-0.2,0.1-0.4,0-0.5-0.2
				c-4-8.9-7.2-18.2-9.2-27.8l-0.7-3.6c-0.2-1.2-0.4-2.4-0.6-3.6c-0.4-2.4-0.7-4.9-0.9-7.3c-0.4-4.9-0.6-9.9-0.3-14.8
				c0.3-4.9,1.1-9.9,2.4-14.6c1.3-4.8,2.9-9.4,4.9-14c1.9-4.5,4.3-8.8,7.1-12.9c1.4-2,2.8-4,4.4-5.9c1.6-1.9,3.2-3.7,5.1-5.3
				c0.2-0.1,0.4-0.1,0.6,0C93.2,157.5,93.2,157.8,93,158L93,158z"/>
		</g>
		<g>
			<path fill="#FECE2F" d="M97.4,175.6c-2.8-0.4-5.6,0.7-7.7,2.4c-2.2,1.7-3.8,4.1-4.6,6.8c-0.8,2.7-1,5.5-0.7,8.3
				c0.3,2.8,0.9,5.6,1.8,8.3c0.8,2.8,1.8,5.7,1.7,9c-0.1,3.3-1.1,6.3-2,9c-0.9,2.7-1.7,5.3-1.7,7.9c0,2.5,0.8,5.1,2,7.3
				c0.6,1.1,1.4,2.2,2.3,3.1c0.9,1,2,1.8,3.1,2.8c1.1,1,2.3,2.1,3.2,3.4c0.9,1.4,1.4,3,1.6,4.6c0.4,3.2-0.4,6.2-1.2,9
				c-0.8,2.8-1.7,5.5-1.7,8.2c-0.1,5.4,1.8,10.9,5.5,14.9c3.7,4,9.1,6.5,14.8,6.8c0.2,0,0.4,0.2,0.4,0.4c0,0.2-0.2,0.4-0.4,0.4
				c-5.9,0.8-12.3-1.4-16.8-5.7c-4.5-4.4-6.8-10.8-6.1-17c0.3-3.1,1.4-6,2.4-8.7c0.5-1.4,0.9-2.7,1.1-4.1c0.2-1.4,0.3-2.7,0.1-4.1
				c-0.2-1.3-0.7-2.6-1.5-3.5c-0.8-1-1.9-1.8-3.1-2.5c-1.2-0.8-2.5-1.5-3.8-2.5c-1.3-1-2.4-2.2-3.3-3.6c-1.8-2.7-2.7-6-2.7-9.3
				c0-3.4,1.1-6.4,2.1-9.1c1.1-2.7,2.1-5.3,2.2-7.9c0.2-2.6-0.4-5.3-1.1-8.2c-0.7-2.9-1.2-5.8-1.3-8.9c-0.1-3,0.2-6.1,1.2-9
				c1.1-2.9,3-5.4,5.4-7.2c2.4-1.8,5.6-2.8,8.6-2.2c0.2,0,0.4,0.3,0.3,0.5C97.8,175.5,97.6,175.6,97.4,175.6z"/>
		</g>
		<g>
			<path fill="#FECE2F" d="M58.5,229.1c-1.2,0.7-2.2,1.7-2.9,3c-0.7,1.2-1.2,2.6-1.5,4c-0.3,1.4-0.5,2.8-0.6,4.3
				c-0.1,1.4-0.2,2.9-0.2,4.3c0,5.8,0.8,11.5,2.4,17c0.8,2.7,1.8,5.4,2.9,8c1.1,2.6,2.3,5.2,3.7,7.7c2.8,5,6,9.9,9.3,14.8
				c3.2,4.9,6.5,9.9,9,15.3c2.6,5.4,4.3,11.1,5.3,17c1.8,11.7,0.4,23.9-4.3,34.7c-0.1,0.2-0.2,0.2-0.4,0.2c-0.1-0.1-0.2-0.2-0.2-0.4
				c4.5-10.8,5.7-22.9,3.5-34.3c-0.6-2.8-1.3-5.7-2.2-8.4c-0.4-1.4-1-2.7-1.6-4c-0.3-0.7-0.6-1.3-0.9-2c-0.3-0.7-0.6-1.3-1-1.9
				c-2.7-5.1-6.1-9.8-9.7-14.5c-3.5-4.7-7.2-9.4-10.2-14.6c-1.5-2.6-2.9-5.3-4-8.1c-1.1-2.8-1.8-5.8-2.4-8.7
				c-1.2-5.9-1.6-11.9-1.1-17.9c0.1-1.5,0.3-3,0.5-4.4c0.2-1.5,0.5-3,0.9-4.4c0.4-1.4,1-2.9,1.9-4.1c0.9-1.3,2-2.3,3.4-3
				c0.1-0.1,0.3,0,0.4,0.1C58.7,228.9,58.6,229,58.5,229.1z"/>
		</g>
		<g>
			<path fill="#FECE2F" d="M597.6,170.9c2.2,0.1,4.4,0.1,6.5-0.1c2.1-0.2,4.2-0.6,6.3-1.2c2-0.6,4-1.5,5.9-2.6
				c1.9-1.1,3.6-2.4,5.2-4c0.1-0.1,0.3-0.1,0.4,0c0.1,0.1,0.1,0.3,0,0.4c-1.3,1.8-2.9,3.5-4.8,4.8c-1.9,1.3-3.9,2.4-6.1,3.2
				c-2.2,0.7-4.5,1.2-6.8,1.3c-2.3,0.1-4.6-0.3-6.7-1.2c-0.2-0.1-0.2-0.3-0.2-0.4C597.4,171,597.5,170.9,597.6,170.9z"/>
		</g>
	</g>
	<g>
		<g>
			<path fill="#1A1A1A" d="M464.8,81.2c3.6,8.2,2.7,11.6-0.2,12.9c-3,1.3-6.9-0.1-10.5-8.2s-1.2-17.1-1.2-17.1S461.2,73,464.8,81.2z
				"/>
		</g>
		<g>
			<path fill="#1A1A1A" d="M475.8,83.2c-3.5,10.3-7.1,12.7-10.8,11.5s-6.1-5.7-2.6-16s13.1-16.4,13.1-16.4S479.3,72.9,475.8,83.2z"
				/>
		</g>
	</g>
</g>
<g>
	<g>
		<path fill="#FECE2F" d="M632.1,719.1c-0.1-3.1-1.1-11.7-9.1-16.5c-8-4.9-17.3-12.7-37-19.7c-14-5-26.9-7.7-32.3-8.7
			c-1,0.4-1.5,1.1-1.7,2l2,4.8c0,0,23.6,6.5,38.3,12.6c14,5.7,26,13,27,19c1,6-2.4,10,1.1,19.5c0.8,2.2,1.6,4,2.4,5.5
			c0.1,0.2,0.2,0.3,0.3,0.5c0,0.1,0.1,0.2,0.1,0.3c1.3,2.2,2.5,3.6,3.4,4.5c0.6,0.2,1.3,0.3,1.9,0.2c-0.4-2.8-5-14.1-3.1-14.4
			c0.5-0.1,1.3,0.9,2.3,2.5c0.8,0.9,1.4,2,1.9,3.2c2,3.5,4.2,7.5,6,9c0.8,0.2,1.7-0.1,2.3-0.7c-0.1-3.9-8.1-14.7-6.2-15.4
			c1.5-0.6,4.4,4,6.6,6.6c0.8,0.8,1.9,1.4,2.9,1.2C641.6,732.4,632.2,721.9,632.1,719.1z"/>
	</g>
	<g>
		<path fill="#FECE2F" d="M551.7,431.6c0,0,2.9,5.8,1,16.5c-2,10.7-7.5,25-8.1,39.5c-0.7,14.5,2.4,45.4,2.4,45.4l7.4,34.9
			c0,0,4.9,35.1,3.5,55.1c-1.3,20.1-8.4,48.7-8.4,48.7s9.1,14.4,6.6,30.3c-2.5,15.9-16.4,33.2-27,34s-23.7-22.2-24.3-39.6
			c-0.6-17.4,7.6-24,7.6-24s-12.2-29.7-13.8-50.6s3.6-63.8,3.6-63.8l3.2-38l4.2-35.7c0,0,0.1-15.1-1.4-20.2
			c-1.5-5.1-6-23.7-1.1-31.5c0,0,1.9,17.6,4.1,17.5c2.1-0.1,3.7-19.1,3.7-19.1s2.8,6.2,2.6,9.8s0,9,1.1,8.2s3.4-17,3.4-17
			s4.4,2.9,2.9,11.4c-1.5,8.6-4.8,21.8-5.1,27.6c-0.3,5.9-2.8,93.1,6.6,95.2c0.6-0.3,3,1.5,6.8-30.3c3.7-31.8,2.7-53.9,2.7-53.9
			s-3.3-26.2-2.2-36c1.2-9.8,3.4-14,3.4-14s0.7,15.2,2.2,15c1.5-0.2,5-16.6,5.9-16.2c0.9,0.4,1.2,16.5,2.8,15.3
			C549.3,445.2,549.5,430.3,551.7,431.6z"/>
	</g>
	<g>
		<path fill="#FECE2F" d="M573.8,582.9c0,0,13.8,9.3,24.2,10.1s23.1-1.5,23.1-1.5s9.4,16,30.4,20.9s38.7-2.2,38.7-2.2
			s8.3,18.7,21.4,21.9c13.1,3.2,29.9-1.4,29.9-1.4s-5,28-18.5,42.1c-13.5,14-74.1,31.8-93.5,30.5L605.3,687l-23.9-6.3l-23.4-7
			l1.6-25.7l2.5-41.9L573.8,582.9z"/>
	</g>
	<g>
		<path fill="#FECE2F" d="M494.3,636l10.6,35.6c0,0-16.6,1.6-28.5,8c-11.9,6.4-34.1,24-34.1,24l-27.7-2.5l-38.9-11.4l-35.6-13.9
			l-11.8-12.9c0,0-10.6-16.8-10.5-32.9c0,0,14.2,6.8,29.7,1.3c15.6-5.4,22.2-22.1,22.2-22.1s18.7,10.3,41,0.2
			c22.3-10.1,27.4-20.1,27.4-20.1s16.3,12.9,35.8,4.4l13.6,4l5.1,17.3L494.3,636z"/>
	</g>
	<g>
		<path fill="#FFFFFF" d="M319.1,638.6c0,0,37,7,52.4-24.6c0,0,6.7,5.2,29.8,3.6c23.1-1.6,39.4-18.4,39.4-18.4s12.8,4.2,24.1-1.5
			c0,0-13.4,1.3-25.6-7.6c0,0-10.2,12.1-32,20.8c-21.8,8.7-36.6-1.3-36.6-1.3s-10.8,20.6-29.4,23c-18.7,2.3-22.7-3.2-22.7-3.2
			L319.1,638.6z"/>
	</g>
	<g>
		<path fill="#FECE2F" d="M512.4,672.5l-3.9,7.6c0,0-12.2-0.9-22.8,4.3c-10.5,5.2-24.3,13.5-33.2,21c-8.9,7.5-10.6,10.9-10.3,15
			c0.3,4,2.8,17.9,2,22.7c-0.8,4.8-5.1,16.2-6.2,15.2c-1-1-1-2.6-0.7-3.3c0.3-0.7,1.7-11,0.6-10.3c-1.1,0.7-6.2,11.6-6.8,10.6
			c-0.6-1,1-13.1,1-13.1s-6.2,5.2-6.5,4.3s3.3-9.5,3.3-9.5l3.1-8.2c0,0,0.2-10.6,3.8-16.1c3.5-5.5,10.8-12.9,26.8-23.8
			C478.6,677.9,495.3,670.4,512.4,672.5z"/>
	</g>
	<g>
		<path fill="#FFFFFF" d="M529.1,730.2c-11.3-0.8-17.8-11-21-18c4.7,13,13.5,24.5,21,23.9c6.6-0.5,14.5-7.4,20.1-16.4
			C544.8,725.2,538,730.8,529.1,730.2z"/>
	</g>
	<g>
		<path fill="#FFFFFF" d="M711.6,632.2c-13.1-3.2-21.4-21.9-21.4-21.9s-17.7,7.1-38.7,2.2s-30.4-20.9-30.4-20.9s-12.6,2.3-23.1,1.5
			s-24.2-10.1-24.2-10.1l-2.1,4.2l-0.5,1.7c0,0,10.5,6.7,22.2,8.7c15.1,2.5,26.8-2.4,26.8-2.4s5.9,17,21.1,23
			c21.7,8.5,41.2,4.1,41.2,4.1s4.5,10.1,28.5,16.6c19.3,5.2,29.6-4.1,29.6-4.1l0.1,0c0.6-2.4,0.8-3.9,0.8-3.9
			S724.7,635.4,711.6,632.2z"/>
	</g>
	<g>
		<g>
			<path fill="#1A1A1A" d="M521.5,733.5c-0.2,0.7-0.3,1.4-0.3,2.1c-0.3,5,2.7,9.3,6.7,9.5c4,0.2,7.4-3.7,7.7-8.7
				c0-0.7,0-1.5-0.1-2.2c0,0-4.5,2.3-7.3,1.9C525.3,735.8,521.5,733.5,521.5,733.5z"/>
		</g>
		<g>
			<path fill="#1A1A1A" d="M530.9,702c-0.1,0-0.2,0-0.3,0c-1.6-0.1-2.9-0.7-3.9-1.9c-2.9-3.5-2.2-10.6-2.1-10.9
				c0.1-0.7,0.7-1.2,1.4-1.1c0.7,0.1,1.2,0.7,1.1,1.4c-0.2,1.8-0.3,6.8,1.6,9c0.6,0.7,1.3,1,2.2,1.1c0.9,0,1.5-0.2,2.1-0.8
				c2.1-2.1,2.4-7.5,2.3-9.4c0-0.7,0.5-1.2,1.2-1.3c0.7,0,1.2,0.5,1.3,1.2c0,0.3,0.3,7.9-3,11.2C533.5,701.5,532.3,702,530.9,702z"
				/>
		</g>
		<g>
			<path fill="#1A1A1A" d="M505.4,688.1c0,0-14.7,15.1-10.7,21.1c3,4.5,11-1.7,11-1.7S502.7,697.8,505.4,688.1z"/>
		</g>
		<g>
			<path fill="#1A1A1A" d="M556.9,693.6c0,0,12,12.6,9.9,16.8c-2.1,4.3-11.3-0.9-11.3-0.9L556.9,693.6z"/>
		</g>
		<path fill="#1A1A1A" d="M544,709.4c0-0.1,0-0.1,0-0.1c0,0,0-0.1,0-0.1c0-0.1-0.1-0.3-0.2-0.4c0,0,0,0,0,0c0,0,0,0,0,0
			c-0.1-0.1-0.2-0.2-0.3-0.2c0,0-0.1,0-0.1-0.1c0,0,0,0,0,0c-0.1,0-0.2-0.1-0.3-0.1c0,0,0,0-0.1,0c-0.1,0-0.2,0-0.4,0
			c0,0-0.1,0-0.1,0c-0.1,0-0.2,0.1-0.4,0.2l-1.9,1.5c-13.4,9.4-23.2-1.6-23.6-2.1c0,0,0,0,0,0c-0.1-0.1-0.2-0.2-0.3-0.2
			c0,0,0,0-0.1,0c-0.1-0.1-0.3-0.1-0.4-0.1c0,0-0.1,0-0.1,0c-0.1,0-0.2,0-0.3,0c0,0,0,0,0,0c0,0-0.1,0-0.1,0.1
			c-0.1,0-0.2,0.1-0.3,0.1c0,0,0,0-0.1,0c0,0,0,0.1-0.1,0.1c-0.1,0.1-0.1,0.1-0.2,0.2c0,0-0.1,0.1-0.1,0.1c0,0.1-0.1,0.2-0.1,0.3
			c0,0.1,0,0.1,0,0.2c0,0,0,0,0,0.1c0,11.4,1.5,11.7,2.4,11.8c0.1,0,0.2,0,0.4,0c0.8,0,2.2-0.7,4-6.4c2.3,1.1,5.1,2,8.2,2
			c2.5,0,5.2-0.5,8.1-1.9c2,6.7,3.1,6.9,3.7,7c0.1,0,0.2,0,0.3,0c0.5,0,1.1-0.2,1.5-0.6C544.9,718.9,544.4,712.2,544,709.4z
			 M517.4,717.2c-0.2-1.2-0.4-3.1-0.4-5.1c0.7,0.6,1.4,1.1,1.9,1.4C518.4,715,517.8,716.3,517.4,717.2z M541.6,718.4
			c-0.5-1.1-1.2-3.1-1.8-5.1l1.7-1.2c0.1-0.1,0.2-0.2,0.4-0.3C542,714.7,541.9,717.2,541.6,718.4z"/>
		<g>
			<path fill="#1A1A1A" d="M437.7,759.6c-0.2,0-0.4,0-0.5,0c-0.4-0.1-0.8-0.3-1-0.7c-0.7-1-0.4-3,0.5-8.1c0.3-1.4,0.6-3.2,0.8-4.6
				c-0.7,1.2-1.4,2.8-2,4c-2.7,5.5-3.9,7.9-5.8,7.4c-2.1-0.6-1.4-3.6,0.2-10.3c0.2-1,0.5-2.2,0.8-3.3c-0.1,0.2-0.3,0.3-0.4,0.4
				c-2.1,2.5-4.2,5.1-6.2,3.8c-2-1.2-0.5-4.3,2.3-9.9c1.8-3.7,3.8-7.9,4.2-10.5c0.1-0.5,0.1-1,0.2-1.5c0.7-6.4,1.8-17.1,17.7-28.6
				c1.6-1.2,3.3-2.4,5.1-3.7c15.8-11.6,35.4-26.1,58.1-22.4c0.7,0.1,1.1,0.7,1,1.4c-0.1,0.7-0.8,1.1-1.4,1
				c-21.7-3.5-40.8,10.6-56.2,22c-1.7,1.3-3.4,2.5-5.1,3.7c-15,10.9-16.1,20.9-16.7,26.9c-0.1,0.5-0.1,1.1-0.2,1.5
				c-0.4,3-2.5,7.4-4.4,11.3c-1.1,2.2-2.4,5-2.8,6.4c0.8-0.6,2-2.1,2.7-2.9c1.6-1.9,2.5-3,3.7-3c0.4,0,0.8,0.2,1,0.6
				c0.6,0.9,0.4,2.2-0.9,7.4c-0.4,1.6-1,4-1.3,5.7c0.7-1.3,1.6-3.1,2.2-4.4c2.6-5.4,3.7-7.6,5.5-7.1c1.9,0.5,1.4,3.2,0.3,9.2
				c-0.3,1.8-0.8,4.3-0.9,5.6c0,0,0,0,0,0c1.4-1,3.2-4.5,4.3-11.6c0.8-5.4,0.3-9.5-0.3-14.3c-0.4-3.4-0.9-6.9-0.9-11.2
				c-0.1-10.3,20.6-24,33-31.3c17.3-10.1,32.5-9.9,33.2-9.9c0.7,0,1.2,0.6,1.2,1.3c0,0.7-0.6,1.2-1.3,1.2c-0.1,0-15.2-0.2-31.9,9.5
				c-20,11.7-31.9,22.6-31.8,29.1c0,4.2,0.5,7.6,0.9,10.9c0.6,4.7,1.2,9.2,0.3,14.9c-1.1,6.9-2.9,11.6-5.3,13.2
				C439,759.4,438.3,759.6,437.7,759.6z"/>
		</g>
		<g>
			<path fill="#1A1A1A" d="M637.1,745.1c-0.2,0-0.4,0-0.6-0.1c-2.1-0.5-4.2-3.9-7.4-9.5c-0.8-1.3-1.7-3-2.5-4.2
				c0.4,1.9,1.3,4.7,1.9,6.5c1.6,4.9,1.8,5.9,1,6.6c-0.2,0.2-0.8,0.5-1.6,0.3c-2.1-0.5-5.6-4.5-8.5-12.3c-2.3-6.2-1.8-10.2-1.3-13.7
				c0.3-2.1,0.5-3.9,0.2-6c-0.8-4.8-10.9-11.7-26.3-18.1c-14.5-5.9-37.9-12.5-38.2-12.5c-0.7-0.2-1-0.9-0.9-1.5
				c0.2-0.7,0.9-1,1.5-0.9c0.2,0.1,23.8,6.6,38.4,12.6c7.9,3.2,26.4,11.6,27.8,19.9c0.4,2.5,0.2,4.5-0.1,6.8
				c-0.4,3.4-0.9,6.9,1.2,12.5c2,5.4,4,8.3,5.3,9.7c-0.3-0.9-0.6-1.8-0.8-2.7c-1.9-6.1-2.8-9.1-1.9-10.5c0.3-0.4,0.7-0.7,1.1-0.8
				c1.6-0.2,2.9,1.8,5.9,7c1.5,2.7,4.3,7.4,5.6,8.2c0.1-1.4-2.3-5.7-3.6-8.1c-2.3-4.2-3.3-6.2-2.8-7.5c0.2-0.5,0.5-0.8,1-1
				c1.9-0.7,3.8,1.6,6.1,4.6c0.4,0.5,1,1.2,1.5,1.9c-0.9-1.5-2.2-3.3-3.2-4.7c-3-4.3-4.9-7-4.9-8.7c-0.1-3.2-1.1-11-8.5-15.5
				c-1.7-1-3.4-2.2-5.2-3.4c-7.1-4.7-16-10.7-31.5-16.1c-18.2-6.4-34.6-9.1-34.8-9.1c-0.7-0.1-1.1-0.7-1-1.4c0.1-0.7,0.7-1.1,1.4-1
				c0.2,0,16.8,2.7,35.2,9.2c15.8,5.6,24.8,11.6,32,16.4c1.8,1.2,3.5,2.4,5.2,3.4c8.4,5.1,9.6,14,9.7,17.5c0,1.1,2.7,4.9,4.5,7.4
				c3.6,5.1,5,7.3,4.7,8.8c-0.1,0.5-0.4,0.9-0.8,1.1c-1.9,1.2-3.9-1.3-6.2-4.3c-0.6-0.8-1.5-1.9-2.2-2.7c0.6,1.2,1.4,2.7,2.1,3.9
				c2.9,5.3,5.4,9.8,2.8,11.5C637.8,745,637.5,745.1,637.1,745.1z"/>
		</g>
		<g>
			<path fill="#1A1A1A" d="M594.2,686.5c-0.5,0-1-0.3-1.2-0.9c-0.2-0.6,0.2-1.3,0.8-1.5c61.5-17.8,96.2-74.6,96.5-75.1
				c0.3-0.6,1.1-0.8,1.7-0.4c0.6,0.3,0.8,1.1,0.4,1.7c-0.3,0.6-35.4,58.1-97.9,76.2C594.4,686.5,594.3,686.5,594.2,686.5z"/>
		</g>
		<g>
			
				<ellipse transform="matrix(0.5258 -0.8506 0.8506 0.5258 -303.1304 701.2485)" fill="#1A1A1A" cx="477.3" cy="622.5" rx="3.9" ry="2.9"/>
			<path fill="#1A1A1A" d="M476.5,627.4c-0.7,0-1.3-0.2-1.9-0.5c-2-1.2-2.3-4.1-0.8-6.5c1.5-2.5,4.2-3.4,6.2-2.2
				c2,1.2,2.3,4.1,0.8,6.5l0,0C479.8,626.4,478.1,627.4,476.5,627.4z M478.2,620c-0.7,0-1.6,0.5-2.3,1.6c-0.8,1.4-0.7,2.8,0,3.2
				c0.7,0.4,2-0.1,2.8-1.4l0,0c0.8-1.4,0.7-2.8,0-3.2C478.6,620.1,478.4,620,478.2,620z M479.8,624L479.8,624L479.8,624z"/>
		</g>
		<path fill="#1A1A1A" d="M742.3,629.2c-0.3-0.3-0.8-0.3-1.2-0.2c-13.9,4.8-25.4,4.7-34.2-0.2c-11.5-6.5-14.3-19.3-14.3-19.4
			c-0.1-0.3-0.3-0.6-0.6-0.8c-0.3-0.2-0.7-0.2-1-0.1c-20.3,6.8-38.6,5.9-52.9-2.8c-9.6-5.8-14.4-13.3-15.4-15
			c-0.1-0.5-0.4-0.9-0.9-1c-0.4-0.1-0.8,0-1.2,0.2c-12.5,3.8-23.7,2.7-33.2-1c0,0-0.1,0-0.1-0.1c-0.4-0.1-0.7-0.3-1.1-0.4
			c-17.4-7.3-28.9-23.4-32.6-33.4c-1.1-2.9-2.1-6.9-3.1-11.4c0-0.1,0-0.2,0-0.2c0,0,0,0,0,0c-3.7-17.8-5.9-44.5-4.8-56.5
			c1.2-12.7,3.6-21.3,6.2-30.5c0.5-1.9,1.1-3.7,1.6-5.7c2.8-10.1,0.6-19.1-1.3-21.1c-0.6-0.6-1.3-0.6-1.6-0.5
			c-1.2,0.3-1.4,1.4-2.3,8.7c-0.2,1.8-0.5,4.2-0.8,6.3c-0.1-1.7-0.2-3.6-0.2-5.2c-0.3-7.6-0.5-9.7-1.5-10.6
			c-0.3-0.3-0.7-0.4-1.1-0.4c-1.6,0.2-2.2,2.1-3.8,10.3c-0.5,2.3-1.1,5.5-1.7,7.4c-0.5-3.1-0.9-9.5-1-15c0-0.5-0.4-1-0.9-1.2
			c-0.5-0.1-1.1,0.1-1.4,0.5c-5.9,9.6-3.8,27.5-2.3,40.5c0.4,3.6,0.8,6.7,0.9,9.3c0.3,5.5-0.2,26-1.8,46.8c-2.7,35-6,38.8-6.6,39.2
			c-0.6-0.5-3.8-4.6-5.3-41.5c-0.9-21.7-0.9-43.5-0.6-49.1c0.3-6.5,1.2-9.6,2.2-13.6c0.9-3.4,1.9-7.2,2.8-14.1
			c2.1-15.2-3.1-18.1-3.7-18.4c-0.4-0.2-0.9-0.2-1.3,0.1c-0.4,0.3-0.6,0.7-0.5,1.2c0.8,5.3-0.6,13.2-1.6,17c0-1,0.1-2.4,0.2-4.4
			c0.7-7.6-3.6-13.8-3.8-14.1c-0.3-0.5-0.9-0.6-1.5-0.4c-0.5,0.2-0.8,0.8-0.7,1.3c0.8,4.3-0.2,17-1.7,19.3c-1-2.2-1.6-10.8-1.6-18.2
			c0-0.7-0.5-1.2-1.2-1.2c-0.5,0-0.9,0.2-1.4,0.6c-1.7,1.8-4.3,9.6-3.4,18.2c0.4,3.5,1.3,6.8,2.3,10.3c1.7,6,3.4,12.1,2.7,20.3
			c-0.2,2.5-0.5,6.3-0.9,11c-1.5,19.5-4.4,55.8-8.5,69.5c-6.4,21.6-21.8,32.1-29,34.7c-3.3,1.2-6.7,1.7-10.2,1.6
			c-0.6-0.1-1-0.1-1.2-0.1c-0.1,0-0.2,0-0.3,0c-6.1-0.5-12.4-3-18.9-7.5c0,0,0,0,0,0c0,0-0.1,0-0.2-0.1c-0.1,0-0.2-0.1-0.3-0.1
			c-0.1,0-0.1,0-0.2,0c-0.1,0-0.1,0-0.2,0c-0.6,0.1-0.8,0.3-2.1,1.6c-26,27.4-50.4,25.2-66.4,18.5c0,0-0.1,0-0.1,0
			c-0.1,0-0.2,0-0.2,0c-0.1,0-0.1,0-0.2,0c-0.1,0-0.2,0-0.2,0c0,0-0.1,0-0.1,0c0,0-0.1,0-0.1,0.1c0,0-0.1,0-0.1,0
			c0,0-0.1,0.1-0.1,0.1c-0.1,0.1-0.1,0.1-0.2,0.2c-0.1,0.1-0.1,0.1-0.1,0.2c0,0-0.1,0.1-0.1,0.1c-0.1,0.1-5.6,14.4-19.4,20.4
			c-8.9,3.9-19.3,3.6-30.8-1c-0.4-0.2-0.8-0.1-1.1,0.1c-0.3,0.2-0.5,0.6-0.5,1c0,0.3,1,29.5,25.7,51.7c22.2,19.9,55.8,28,100.1,24.3
			c0.6-0.1,1.1-0.6,1.1-1.2l5.4-3.9c0.5-0.4,0.6-1,0.4-1.6c-0.3-0.5-0.9-0.8-1.5-0.6c-9.2,3.2-25,4.2-27.1-0.6
			c-0.8-1.9,0.4-2.9,3.1-4.6c1.8-1.2,3.7-2.4,3.3-4.3c-0.2-1.2-0.8-2.1-1.8-2.7c-2.1-1.3-5.9-1.1-11.7,0.7c-7.2,2.3-14.6,3.3-22,3
			c-3.8-0.2-4-1.1-4.6-2.7c-0.3-1.1-0.8-2.6-2.2-3.9c-2.2-2.1-5-2-10.1-1.8c-3.6,0.1-8.6,0.3-15.8-0.1c-11.9-0.8-21.8-10-26.3-15
			c-1.6-1.9-2.5-3-2.6-3.1c0,0,0,0-0.1,0c-8.5-13.8-10.5-26.9-11-31.6c11.5,4.2,21.8,4.2,30.9,0.3c11.6-5.1,17.6-15.3,19.7-19.7
			c7.1,10.4,44.3,60.9,101.6,71.5c0.1,0,0.2,0,0.2,0c0.2,0,0.4-0.1,0.5-0.1c0.1,0,0.1,0,0.2,0c0.1,0,0.1,0,0.2,0
			c0.2,0,0.5-0.1,0.7-0.2l5.4-3.5c0.3-0.2,0.5-0.5,0.6-0.9c0-0.1,0-0.2,0-0.3c0,0,0,0,0,0c0.5-0.5,0.4-1.3-0.1-1.7
			c-19.6-17.9-35-71.3-38.6-84.7c6.4,3.9,12.7,6,18.9,6.2c0.1,0,0.2,0,0.3,0c4.3,0.6,10.8,2.3,10.9,5.2c0,0.6-0.4,1.4-0.8,2.2
			c-0.9,1.6-2.1,4,0.6,6.5c1.9,1.7,4.9,0.9,7.7,0.1c3.6-1,6-1.5,7.2,0.3c1.6,2.4,0.7,5.3-0.6,9.4c-0.9,3-2,6.4-2.3,10.5
			c-0.3,4.7,4.2,11,9,17.7c5.4,7.4,11.4,15.8,9.7,21.3c-0.1,0.4-0.1,0.8,0.2,1.1s0.6,0.5,1,0.5l8,0.2c-2.9,4.1-9.6,16-5.9,32.7
			c4,18.1,16.3,31.9,24.4,31.9c0.1,0,0.1,0,0.2,0c7.9-0.2,25.2-14.4,28.1-33.4c1.9-12.8-1.6-23.6-4.2-29.3c2.1,0.3,4.9,0.6,6.6,0.6
			c0.4,0,0.7,0,1-0.1c0.4-0.1,0.7-0.3,0.9-0.6c0.2-0.3,0.2-0.7,0-1.1c-5.4-12,5-29.1,11.2-39.2c2-3.2,3.5-5.8,4.2-7.5
			c1.8-4.8-0.7-6.9-2.8-8.7c-1.5-1.3-2.7-2.3-2.8-4.3c0-1.8,1.4-2.4,4.6-3.4c2.8-0.8,6.3-1.8,7.3-5.3c1.2-3.9-2.3-6.4-5.3-8.7
			c-2.4-1.8-4.6-3.5-4.3-5.3c0.1-0.5,0.3-0.8,0.7-1c2.2-1.4,8.7-0.4,12.3,0.6c5.7,2.2,11.9,3.6,18.7,3.6c4.5,0,9.3-0.6,14.3-2
			c-3.9,12-22.6,68.6-37.8,86.5c-0.5,0.6-0.4,1.4,0.2,1.9c0.2,0.2,0.5,0.3,0.8,0.3l11.2,5c0.1,0.1,0.3,0.1,0.4,0.1
			c0.8,0.5,2.3,1.3,5.2,2.9c3.6,1.9,8.4,4.6,13.1,7.4c7.6,4.6,14.7,10,14.8,10.1c0,0,0.1,0,0.1,0.1c0,0,0.1,0,0.1,0.1
			c0.1,0.1,0.3,0.1,0.4,0.1c1.1,0.1,2.1,0.1,3.2,0.2c3.5,0.2,6.9,0.3,10.3,0.3c27.1,0,49.6-6.6,67-19.7c0.3-0.2,0.6-0.5,1-0.7
			c0.3-0.3,0.7-0.5,1-0.8c0.2-0.2,0.4-0.4,0.6-0.5c0.5-0.4,0.9-0.8,1.4-1.1c0.4-0.4,0.9-0.7,1.3-1.1c0.8-0.7,1.7-1.5,2.5-2.3
			c0.3-0.3,0.7-0.7,1-1c0.5-0.5,1-1,1.5-1.5c0.4-0.4,0.8-0.8,1.1-1.2c0.4-0.4,0.8-0.9,1.2-1.4c0.4-0.5,0.8-0.9,1.2-1.4
			c0.3-0.4,0.7-0.8,1-1.2c0.4-0.5,0.9-1.1,1.3-1.6c0.1-0.2,0.3-0.3,0.4-0.5c0.2-0.3,0.5-0.6,0.7-0.9c0.2-0.3,0.5-0.6,0.7-0.9
			c0.5-0.7,1.1-1.5,1.6-2.2c0.2-0.3,0.4-0.6,0.6-0.8c0.5-0.7,0.9-1.4,1.3-2c0.1-0.1,0.2-0.3,0.2-0.4c0.6-0.9,1.1-1.8,1.6-2.7
			c0,0,0-0.1,0.1-0.1c9.4-16.3,11.1-30.7,11.2-31.4C742.8,629.9,742.6,629.5,742.3,629.2z M445,615.5c0,0.1,0,0.1,0,0.2
			c0,0.1,0.1,0.5,0.3,1.1c0.2,1.2,0.2,3.6-2,6.7l-0.4,0.6c-2,2.7-5,6.9-0.7,10.8c0.9,0.8,1.8,1.6,2.7,2.3c3.6,2.9,5.2,4.4,4.1,6.1
			c-0.8,1.3-2.4,1.2-4.8,0.9c-1.8-0.2-3.5-0.4-4.5,0.6c-0.6,0.6-0.9,1.5-0.8,2.7c0.3,2.8,4.1,5.7,10.4,10.4
			c5.2,3.8,12.3,9.1,11,11.5c-1.6,3.1-16.3,0.5-29-3.7c-0.1,0-0.2,0-0.3,0c-31.4-17.9-51.9-44.7-58.4-53.8
			c16.6,5.8,40.3,5.9,65.2-20.2C439,595.7,441.4,604.6,445,615.5z M554.7,704.1c-2.8,18.5-19.7,31.2-25.7,31.3c0,0-0.1,0-0.1,0
			c-6.2,0-18-11.8-22-30c-3.9-17.7,4.8-29.9,6.3-31.9c0.5-0.3,0.8-1,0.5-1.6c-0.2-0.3-16-35.3-14.8-69.1c0.7-20.7,1.8-27.9,3.1-36.3
			c0.9-5.9,1.9-12.6,2.9-25c0-0.2,0-0.4-0.1-0.6c2.2-16.1,3.8-36.5,4.9-50.5c0.4-4.8,0.7-8.5,0.9-11c0.8-8.7-1.1-15.3-2.7-21.2
			c-1-3.4-1.9-6.6-2.2-9.9c-0.5-5,0.2-9.5,1.1-12.5c0.2,6.1,0.8,14.1,2.7,15.6c0.5,0.4,1,0.5,1.6,0.4c3.1-0.7,3.9-10,4-16.4
			c0.7,2.1,1.2,4.7,1,7.4c-0.6,6.2-0.1,7.8,0.8,8.5c0.4,0.3,1,0.5,1.9,0.2c1.9-0.7,3.6-10,3.7-16.8c0.7,2.4,1.2,6.2,0.3,12.6
			c-0.9,6.7-1.9,10.5-2.7,13.8c-1,3.9-1.9,7.3-2.3,14.1c-0.3,5.8-0.4,28.3,0.6,50.5c1.9,42.4,5.7,42.6,7.6,42.7c0.5,0,1.2-0.1,2-0.8
			c7.1-7.1,9.7-77.3,9-87.8c-0.2-2.6-0.5-5.8-0.9-9.4c-1.2-10.6-2.8-24.5-0.1-33.9c0.2,5.6,0.8,11.7,2.1,12.9
			c0.3,0.3,0.8,0.5,1.2,0.4c1.7-0.2,2.3-2.3,4-10.9c0.4-1.8,0.8-4.1,1.3-5.9c0.2,1.9,0.2,4.3,0.3,6.2c0.3,8.6,0.6,11,2.5,11
			c1.8-0.1,2.3-2.5,3.4-11.9c0.2-1.5,0.4-3.3,0.6-4.7c0.9,3,1.8,9.1-0.2,16.7c-0.5,1.9-1.1,3.8-1.6,5.7c-2.6,9.2-5.1,18-6.3,30.9
			c-1.2,12.8,1.2,40.7,5.1,58.8c1.4,6.9,6.9,35.2,8.1,48.8c0.4,5.3,0.7,10.5,0.7,15.5c-0.1,7.2-0.4,14.5-0.9,21.1
			c-1.4,15.9-4.3,28.9-6.9,37c-0.4,1.1-0.6,1.7-0.6,1.7c0,0.1-0.1,0.2-0.1,0.4c-0.1,0.4-0.2,0.7-0.4,1.1c-0.1,0.4-0.1,0.7,0.1,1.1
			C548.7,672.2,557.4,686.2,554.7,704.1z M737.2,642.7c-0.1,0.2-0.2,0.3-0.2,0.5c-2,5.1-7.2,9.1-11.3,11.5c-2.9,1.7-6.3,2.9-9.5,4
			c-4.5,1.6-9.1,3.2-12.9,6.4c-2.7,2.3-4.7,5.2-6.6,8c-1.4,2-2.8,4.1-4.5,5.8c-3.8,4.1-10,6.4-14,3.4c-0.6-0.5-1.2-1.1-1.8-1.7
			c-1.2-1.3-2.6-2.8-4.6-3.2c-3-0.6-5.5,1.4-7.4,3.1c-1.4,1.3-2.8,2.7-4.1,4.1c-3.3,3.3-6.8,6.8-10.8,9.3
			c-7.1,4.4-16.2,5.4-23.5,2.5c-6.9-2.7-11.4-6.4-13.6-11.3c-0.6-1.3-0.6-2.4-0.2-3.5c1-2.4,4.1-3.6,4.5-3.8l0.1,0
			c0.5-0.2,0.8-0.7,0.8-1.3c5.2-2.5,10.8-5.4,16.4-8.8c19.8-11.7,39.4-33.2,39.6-33.4c0.4-0.5,0.4-1.2,0-1.7
			c-0.4-0.5-1.2-0.5-1.7-0.1c-9.2,7.7-14.4,8-19,8.2c-2.3,0.1-4.5,0.2-7,1.2c-4.1,1.7-5.9,5.1-7.5,8.2c-1.3,2.5-2.5,4.8-4.8,5.9
			c-0.7,0.4-1.3,0.4-1.8,0.3c-1-0.4-1.8-2.1-2.4-3.6c-0.9-2-1.8-4.2-3.8-4.6c-4.5-1-6.5,1.9-10.3,9.3c-4.3,8.4-8.6,15.5-17.5,16
			c-2.1,0.1-3.6-0.4-4.3-1.4c-1.3-1.8-0.6-5.1,0-7c4.9-9.3,10.3-21.6,16-36.8c5.8-15.1,10.3-28.9,12.1-34.4c2.2,3.2,7,9,14.9,13.8
			c18.3,11.2,39.2,8.2,53.8,3.5c1.1,3.6,4.9,13.8,15.2,19.7c9,5.1,20.6,5.4,34.3,1.1C739.6,634.1,738.8,637.9,737.2,642.7z"/>
		<g>
			<path fill="#1A1A1A" d="M703.1,645.6c0.6,2,0,4.3-1.1,6c-1.2,1.8-2.8,3.1-4.5,4.4c-0.9,0.6-1.7,1.2-2.4,2
				c-1.2,1.5-1.7,3.4-2.3,5.2c-0.7,2.1-1.6,4.2-2.7,6.1c-0.6,1-1.2,2-2.1,2.8c-0.9,0.8-2,1.3-3.2,1.2c-0.5,0-1-0.2-1.3-0.6
				c-0.4-0.4-0.5-1-0.5-1.5c-0.3-2-0.2-4,0.3-6c0.7-2.8,4.4-10,4.8-10.7c0.5-1,1-2,1.6-3c1-2,2.1-3.9,3.1-5.9
				c1.4-2.6,3.2-5.6,6.6-4.2C701,642.3,702.6,643.8,703.1,645.6z"/>
			<path fill="#1A1A1A" d="M685.1,674.6c-0.1,0-0.3,0-0.4,0c-0.9-0.1-1.6-0.4-2.1-1c-0.6-0.6-0.8-1.5-0.9-2.2
				c-0.3-2.1-0.2-4.3,0.3-6.4c0.6-2.8,3.9-9.1,4.9-11l4.7-8.9c1.1-2.2,3.5-6.7,8.1-4.7c2.2,0.9,3.9,2.7,4.6,4.8l0,0
				c0.7,2.2,0.2,4.8-1.3,7.1c-1.3,2-3.2,3.5-4.8,4.7l-0.2,0.2c-0.7,0.5-1.4,1-2,1.7c-0.9,1-1.3,2.5-1.8,4c-0.1,0.3-0.2,0.6-0.3,0.8
				c-0.7,2.2-1.6,4.3-2.8,6.3c-0.6,1-1.3,2.2-2.4,3.1C687.7,674,686.4,674.6,685.1,674.6z M697.6,642.4c-1.3,0-2.4,1.2-3.8,3.9
				l-4.7,8.9c-1.9,3.6-4.2,8.4-4.7,10.4c-0.4,1.8-0.5,3.7-0.3,5.5c0,0.2,0.1,0.7,0.2,0.8c0.1,0.1,0.2,0.2,0.5,0.2
				c0.7,0.1,1.6-0.3,2.3-0.9c0.8-0.7,1.3-1.6,1.8-2.5c1.1-1.9,1.9-3.8,2.6-5.9c0.1-0.3,0.2-0.5,0.3-0.8c0.5-1.7,1-3.4,2.3-4.8
				c0.7-0.8,1.6-1.5,2.4-2.1l0.2-0.2c1.6-1.1,3.2-2.4,4.2-4c1.1-1.6,1.4-3.5,1-5l0,0c-0.4-1.4-1.6-2.6-3.2-3.3
				C698.4,642.5,698,642.4,697.6,642.4z"/>
		</g>
		<g>
			<path fill="#1A1A1A" d="M643.4,618.8c-0.5-1.2-1.6-2.2-2.8-2.7c-1.2-0.5-3.2-0.4-4.3,0.8c-1.3,1.5-1.3,5-1.4,6.4
				c-0.3,3.2-2.6,5.8-3.9,8.7c-0.9,2.1-1.3,4.4-1.2,6.7c0.1,1,0.3,2.1,1.1,2.8c0.5,0.4,1.1,0.6,1.7,0.6c2.3,0.1,4.3-1.7,5-3.9
				c0.6-2.1,0.1-4.5,0.9-6.6c0.6-1.7,2.1-3,3.1-4.5c1.2-1.7,1.9-3.6,2.1-5.7C643.8,620.6,643.7,619.6,643.4,618.8z"/>
			<path fill="#1A1A1A" d="M632.8,643.3c-0.1,0-0.1,0-0.2,0c-1,0-1.8-0.3-2.5-0.9c-1.4-1.1-1.5-3-1.5-3.7c-0.2-2.5,0.3-5,1.3-7.3
				c0.5-1.1,1-2,1.6-3c1-1.8,2-3.5,2.2-5.3c0-0.2,0-0.4,0-0.7c0.1-1.8,0.3-4.8,1.7-6.4c1.5-1.7,3.9-1.8,5.6-1.2
				c1.7,0.7,2.9,1.9,3.5,3.4l0,0c0.4,0.9,0.5,2,0.4,3.3c-0.2,2.2-1,4.4-2.3,6.2c-0.4,0.5-0.8,1-1.2,1.5c-0.7,0.9-1.4,1.8-1.8,2.7
				c-0.3,0.9-0.4,2-0.4,3.1c0,1.1-0.1,2.3-0.5,3.4C638,641.3,635.4,643.3,632.8,643.3z M639,617c-0.6,0-1.3,0.2-1.8,0.7
				c-0.8,1-1,3.6-1.1,4.9c0,0.3,0,0.5,0,0.7c-0.2,2.4-1.4,4.4-2.5,6.4c-0.6,0.9-1.1,1.8-1.5,2.8c-0.9,1.9-1.2,4-1.1,6.1
				c0.1,1,0.3,1.6,0.7,1.9c0.2,0.2,0.6,0.3,1,0.3c1.6,0.1,3.2-1.3,3.8-3c0.3-0.9,0.3-1.8,0.3-2.8c0.1-1.3,0.1-2.6,0.6-3.8
				c0.5-1.3,1.4-2.4,2.2-3.4c0.4-0.5,0.7-0.9,1.1-1.4c1-1.5,1.7-3.2,1.8-5.1c0.1-0.9,0-1.6-0.2-2.2l0,0c-0.3-0.8-1.1-1.6-2.1-2
				C639.8,617.1,639.4,617,639,617z"/>
		</g>
		<g>
			
				<ellipse transform="matrix(0.4593 -0.8883 0.8883 0.4593 -225.5413 862.9111)" fill="#1A1A1A" cx="596" cy="616.7" rx="3.4" ry="2"/>
			<path fill="#1A1A1A" d="M595,621.2c-0.4,0-0.8-0.1-1.2-0.3c-0.9-0.5-1.4-1.4-1.5-2.6c0-1,0.2-2.1,0.8-3.1
				c1.2-2.4,3.4-3.6,5.1-2.7c1.7,0.9,2,3.3,0.7,5.7C598,620.1,596.4,621.2,595,621.2z M597,614.9c-0.3,0.1-1,0.5-1.5,1.6
				c-0.5,1-0.5,1.9-0.4,2.1c0.3-0.1,1-0.5,1.5-1.6C597.1,616,597.1,615.1,597,614.9z"/>
		</g>
		<g>
			<path fill="#1A1A1A" d="M416.7,637c1.3,1.1,2.7,1.9,3.9,3.1s1.8,3.1,0.9,4.6c-0.5,0.9-1.6,1.5-2.7,1.6c-1.1,0.1-2.2-0.1-3.2-0.5
				c-0.9-0.3-1.8-0.8-2.7-1.4c-3.1-2.2-4.6-6.1-7.3-8.8c-1.4-1.4-3.1-2.3-4.6-3.6s-2.8-3-2.9-4.9c-0.1-2.5,1.8-4.8,4.2-5.4
				c2.4-0.6,5,0.3,6.8,2s2.8,4.1,3.3,6.5C412.9,632.7,414.8,635.4,416.7,637z"/>
			<path fill="#1A1A1A" d="M418.2,647.5c-0.9,0-1.9-0.2-3.1-0.6c-1.1-0.4-2.1-0.9-2.9-1.5c-2-1.4-3.3-3.3-4.6-5.2
				c-0.9-1.4-1.8-2.7-2.9-3.7c-0.7-0.7-1.6-1.3-2.4-2c-0.7-0.5-1.4-1-2.1-1.6c-2-1.8-3.2-3.8-3.3-5.8c-0.2-3,2.1-5.9,5.2-6.6
				c2.7-0.7,5.7,0.2,8,2.3c2.3,2.2,3.3,5.1,3.6,7.2c0.4,2.1,2.2,4.6,3.8,6c0.4,0.4,0.9,0.7,1.4,1.1c0.9,0.6,1.8,1.3,2.5,2.1
				c1.4,1.5,2.2,4,1.1,6c-0.7,1.2-2,2.1-3.6,2.2C418.7,647.5,418.5,647.5,418.2,647.5z M403.9,622.7c-0.4,0-0.8,0-1.2,0.1
				c-1.9,0.5-3.4,2.3-3.3,4.1c0.1,1.7,1.4,3.1,2.4,4.1c0.6,0.5,1.3,1,1.9,1.5c0.9,0.7,1.8,1.3,2.7,2.2c1.3,1.2,2.3,2.7,3.2,4.1
				c1.2,1.8,2.4,3.4,4,4.6c0.7,0.5,1.5,0.9,2.4,1.2c1.1,0.4,1.9,0.5,2.6,0.4c0.8-0.1,1.5-0.5,1.8-1c0.5-0.9,0-2.3-0.8-3.1
				c-0.6-0.7-1.3-1.2-2.1-1.8c-0.5-0.4-1.1-0.8-1.6-1.2l0,0c-1.9-1.6-4.1-4.6-4.6-7.4c-0.3-1.7-1.1-4.1-2.9-5.9
				C407.1,623.4,405.4,622.7,403.9,622.7z"/>
		</g>
		<g>
			<path fill="#1A1A1A" d="M359.8,656.8c1.5,0.3,3,0.8,4.1,1.8c0.9,0.9,1.5,2,2,3.2c0.3,0.7,0.6,1.5,0.7,2.3c0,0.8-0.2,1.6-0.8,2.1
				c-0.7,0.5-1.6,0.6-2.5,0.5c-5.8-0.7-10.2-5.6-15.7-7.5c-1.9-0.6-3.8-0.9-5.7-1.4c-2.4-0.7-4.8-1.7-7.1-2.7
				c-2.2-1-4.4-2.2-5.8-4.2c-1.4-2-1.6-5,0.2-6.7c0.9-0.8,2.1-1.2,3.3-1.3c0.9-0.1,1.7-0.1,2.5,0.2c2.8,0.7,4.6,3.3,6.3,5.6
				c1.9,2.8,3.7,4.8,7.1,5.6c1.9,0.4,3.7,1.1,5.6,1.4C355.9,656.1,357.9,656.4,359.8,656.8z"/>
			<path fill="#1A1A1A" d="M364,668.1c-0.3,0-0.6,0-0.9-0.1c-3.6-0.4-6.7-2.3-9.7-4.2c-2.1-1.3-4.1-2.6-6.3-3.3
				c-1.1-0.4-2.2-0.6-3.4-0.9c-0.7-0.2-1.5-0.3-2.2-0.5c-2.7-0.7-5.2-1.8-7.3-2.8c-2.2-1.1-4.7-2.4-6.3-4.6
				c-1.6-2.4-1.9-6.1,0.4-8.3c1-0.9,2.3-1.4,4-1.6c1.1-0.1,2.1,0,3,0.2c3.3,0.9,5.4,3.9,7,6.1c1.9,2.7,3.5,4.4,6.3,5.1
				c0.8,0.2,1.6,0.4,2.3,0.6c1.1,0.3,2.1,0.6,3.2,0.8c0.6,0.1,1.2,0.2,1.9,0.3c1.3,0.2,2.7,0.5,4.1,0.8c1.5,0.4,3.3,0.9,4.6,2.1
				c1.1,1,1.8,2.3,2.3,3.6c0.3,0.8,0.7,1.7,0.8,2.7c0.1,1.3-0.4,2.5-1.3,3.2C365.9,667.8,365,668.1,364,668.1z M333.3,644.1
				c-0.2,0-0.5,0-0.7,0c-1.1,0.1-2,0.4-2.6,1c-1.3,1.2-1.1,3.6,0,5.1c1.2,1.8,3.3,2.9,5.3,3.8c2,0.9,4.4,2,6.8,2.7
				c0.7,0.2,1.4,0.3,2.1,0.5c1.2,0.3,2.4,0.5,3.7,1c2.4,0.8,4.7,2.2,6.8,3.6c2.9,1.8,5.6,3.5,8.7,3.9c0.8,0.1,1.3,0,1.6-0.2
				c0.3-0.2,0.4-0.7,0.4-1.1c0-0.6-0.3-1.3-0.6-1.9c-0.5-1.2-1-2.1-1.7-2.8c-0.9-0.8-2.2-1.2-3.5-1.5l0,0c-1.3-0.3-2.6-0.5-3.9-0.7
				c-0.6-0.1-1.3-0.2-1.9-0.3c-1.2-0.2-2.3-0.5-3.4-0.9c-0.7-0.2-1.5-0.4-2.2-0.6c-3.6-0.8-5.6-2.9-7.8-6.1
				c-1.7-2.5-3.3-4.6-5.6-5.2C334.3,644.2,333.8,644.1,333.3,644.1z"/>
		</g>
		<g>
			<path fill="#1A1A1A" d="M392.4,672.8c-0.4,0.2-0.8,0.5-0.9,1c-0.1,0.4,0.1,0.8,0.3,1.1c0.8,1.2,2.2,1.6,3.6,2
				c2.4,0.6,4.9,1,7.4,1.2c1.6,0.1,2.9-0.9,1.6-2.4c-0.8-1-2.4-1.9-3.6-2.3c-1-0.4-2.1-0.4-3.2-0.5
				C396.1,672.7,393.9,672.1,392.4,672.8z"/>
			<path fill="#1A1A1A" d="M403.1,679.2c-0.1,0-0.3,0-0.4,0c-2.6-0.2-5.1-0.6-7.6-1.2c-1.6-0.4-3.4-1-4.4-2.5
				c-0.4-0.6-0.6-1.3-0.5-1.9c0.1-0.8,0.8-1.6,1.6-1.9c0,0,0,0,0,0c1.5-0.6,3.2-0.4,4.7-0.2c0.4,0.1,0.8,0.1,1.2,0.1l0.4,0
				c1,0.1,2.1,0.2,3.1,0.5c0.7,0.2,2.9,1.1,4.2,2.7c1.1,1.4,0.7,2.6,0.5,3C405.4,678.7,404.4,679.2,403.1,679.2z M392.7,674
				c0,0,0,0.1,0.1,0.2c0.5,0.8,1.7,1.2,2.8,1.4c2.4,0.6,4.8,0.9,7.3,1.1c0.4,0,0.7,0,0.8-0.1c0-0.1-0.1-0.2-0.2-0.3
				c-0.6-0.8-2-1.5-3.1-1.9c-0.7-0.3-1.6-0.3-2.5-0.4l-0.4,0c-0.4,0-0.8-0.1-1.3-0.1c-1.2-0.2-2.5-0.3-3.4,0l0,0
				C392.8,673.9,392.7,674,392.7,674C392.7,674,392.7,674,392.7,674z"/>
		</g>
		<g>
			<path fill="#1A1A1A" d="M370.4,645.4c0.7,0.3,1.5,0.6,2.2,0.6c0.8,0,1.6-0.2,2.1-0.8c0.5-0.7,0.5-1.6,0.2-2.3
				c-0.3-0.8-0.9-1.4-1.5-2c-2.8-2.8-6.6-5.9-10.8-5.9c-1.3,0-2.6,0.4-2.8,1.9c-0.2,2.1,2.1,3.8,3.6,4.9
				C365.6,643.3,368,644.4,370.4,645.4z"/>
			<path fill="#1A1A1A" d="M372.8,647.3c-0.1,0-0.2,0-0.2,0c-1-0.1-2-0.4-2.6-0.7c-2.4-1-4.9-2.1-7.2-3.8c-1.6-1.2-4.4-3.2-4.1-6
				c0.2-1.9,1.7-3,4-3c0,0,0,0,0,0c3.7,0,7.5,2.1,11.6,6.3c0.7,0.7,1.3,1.4,1.7,2.4c0.5,1.2,0.4,2.6-0.3,3.6
				C375.1,646.8,374,647.3,372.8,647.3z M362.7,636.2c-1.5,0-1.5,0.6-1.6,0.8c-0.2,1.5,1.9,2.9,3.1,3.8c2.1,1.5,4.5,2.6,6.7,3.5l0,0
				c0.7,0.3,1.3,0.5,1.8,0.5c0.5,0,0.9-0.1,1-0.3c0.2-0.2,0.2-0.7,0-1.1c-0.2-0.6-0.7-1.1-1.2-1.6
				C368.9,638,365.7,636.2,362.7,636.2C362.7,636.2,362.7,636.2,362.7,636.2z"/>
		</g>
		<g>
			<path fill="#1A1A1A" d="M515.6,610.8c-0.3,0-0.6-0.1-0.8-0.3c-4.8-4.3-5.7-9.7-5.7-9.9c-0.1-0.7,0.4-1.3,1-1.4
				c0.7-0.1,1.3,0.4,1.4,1l0,0c0,0,0.8,4.8,4.9,8.5c0.5,0.4,0.5,1.2,0.1,1.7C516.2,610.7,515.9,610.8,515.6,610.8z"/>
		</g>
		<g>
			<path fill="#1A1A1A" d="M519.8,607.6c-0.2,0-0.4,0-0.5-0.1c-4.2-2.1-4.9-7.2-4.9-7.4c-0.1-0.7,0.4-1.3,1.1-1.4
				c0.7-0.1,1.3,0.4,1.4,1.1l0,0c0,0,0.5,4,3.6,5.5c0.6,0.3,0.9,1,0.6,1.6C520.7,607.3,520.2,607.6,519.8,607.6z"/>
		</g>
		<g>
			<path fill="#1A1A1A" d="M541.2,649.9c-0.3,0-0.6-0.1-0.8-0.3c-0.5-0.5-0.5-1.2-0.1-1.7l0,0c0,0,4.2-4.8,3-10.3
				c-0.1-0.7,0.3-1.3,0.9-1.5c0.7-0.1,1.3,0.3,1.5,0.9c1.4,6.7-3.4,12.2-3.6,12.4C541.9,649.7,541.6,649.9,541.2,649.9z"/>
		</g>
		<g>
			<path fill="#1A1A1A" d="M538.3,644.1c-0.3,0-0.6-0.1-0.8-0.3c-0.5-0.5-0.5-1.2-0.1-1.7c0.1-0.1,1.4-1.6,0.9-4
				c-0.1-0.7,0.3-1.3,1-1.4c0.7-0.1,1.3,0.3,1.4,1c0.6,3.6-1.4,5.9-1.5,6C538.9,644,538.6,644.1,538.3,644.1z"/>
		</g>
	</g>
</g>
<g>
	<g>
		<path fill="#1A1A1A" d="M569.6,439.5c0,5.2,0,10.4-0.1,15.6l-0.3,15.6l-0.4,15.6c-0.1,5.2-0.3,10.4-0.5,15.6c0,0.6-0.5,1-1.1,1
			c-0.6,0-1-0.5-1-1.1c0-5.2,0.1-10.4,0.1-15.6l0.3-15.6l0.4-15.6c0.2-5.2,0.3-10.4,0.6-15.6c0-0.6,0.5-1,1-1
			C569.2,438.6,569.6,439,569.6,439.5z"/>
	</g>
	<g>
		<path fill="#1A1A1A" d="M582.4,407.2c0.1,2.3,0.1,4.6,0.2,6.9l0.1,6.9c0.1,4.6,0,9.2,0,13.8c-0.1,4.6-0.1,9.2-0.3,13.8l-0.3,6.9
			c-0.1,2.3-0.2,4.6-0.4,6.9c0,0.5-0.4,0.8-0.9,0.8c-0.4,0-0.8-0.4-0.8-0.8c-0.1-2.3-0.1-4.6-0.1-6.9l0-6.9c0-4.6,0.1-9.2,0.2-13.8
			c0.1-4.6,0.2-9.2,0.5-13.8l0.3-6.9c0.2-2.3,0.3-4.6,0.5-6.9c0-0.3,0.3-0.5,0.6-0.5C582.2,406.7,582.4,406.9,582.4,407.2z"/>
	</g>
	<g>
		<path fill="#1A1A1A" d="M493.1,399.3c0.1,2.1,0.2,4.1,0.2,6.2l0.1,6.2c0.1,4.1,0.1,8.3,0,12.4c0,4.1-0.1,8.3-0.2,12.4l-0.2,6.2
			c-0.1,2.1-0.2,4.1-0.3,6.2c0,0.5-0.5,0.8-0.9,0.8c-0.4,0-0.8-0.4-0.8-0.8c-0.1-2.1-0.1-4.1-0.2-6.2l0-6.2c0-4.1,0-8.3,0.1-12.4
			c0.1-4.1,0.2-8.3,0.4-12.4l0.3-6.2c0.1-2.1,0.2-4.1,0.4-6.2c0-0.3,0.3-0.6,0.6-0.5C492.9,398.8,493.1,399,493.1,399.3z"/>
	</g>
	<g>
		<path fill="#1A1A1A" d="M483,443.8c0.1,2.8,0.2,5.7,0.2,8.5c0,2.8,0,5.7,0.1,8.5l-0.1,8.5c-0.1,2.8-0.1,5.7-0.3,8.5
			c0,0.6-0.6,1.1-1.2,1.1c-0.6,0-1-0.5-1.1-1.1c-0.1-2.8-0.1-5.7-0.1-8.5l0.1-8.5c0.1-2.8,0.1-5.7,0.2-8.5c0.1-2.8,0.2-5.7,0.4-8.5
			c0-0.5,0.4-0.8,0.9-0.8C482.6,443,483,443.4,483,443.8z"/>
	</g>
	<g>
		<path fill="#1A1A1A" d="M297.3,614c0.4,2.4,0.8,4.8,1.2,7.2c0.4,2.4,0.9,4.8,1.5,7.1c1.1,4.7,2.3,9.4,3.8,14
			c1.4,4.6,3.1,9.1,5,13.6l1.5,3.3c0.5,1.1,1.1,2.2,1.6,3.2c1,2.2,2.3,4.2,3.4,6.4l0,0c0.2,0.3,0,0.7-0.3,0.8
			c-0.3,0.1-0.6,0.1-0.8-0.2c-2.9-4-5.5-8.2-7.6-12.6c-2.1-4.4-3.9-9-5.4-13.7c-1.4-4.7-2.6-9.5-3.5-14.3c-0.9-4.8-1.5-9.7-1.6-14.6
			c0-0.3,0.2-0.6,0.6-0.6C297,613.5,297.2,613.7,297.3,614L297.3,614z"/>
	</g>
	<g>
		<path fill="#1A1A1A" d="M293.2,656.2c1.2,3.4,2.7,6.7,4.3,9.9c1.6,3.2,3.3,6.4,5.3,9.4c1.9,3.1,4,6,6.2,8.9
			c2.2,2.9,4.6,5.5,7.1,8.2l0,0c0.3,0.3,0.3,0.8-0.1,1.1c-0.3,0.3-0.7,0.3-1,0c-0.7-0.6-1.4-1.2-2.1-1.8c-0.7-0.6-1.4-1.2-2-1.9
			c-1.3-1.3-2.6-2.7-3.8-4.1c-1.3-1.4-2.3-2.9-3.5-4.4c-0.6-0.7-1.1-1.5-1.6-2.3c-0.5-0.8-1-1.5-1.5-2.3c-2-3.1-3.7-6.4-5.2-9.8
			c-0.7-1.7-1.4-3.4-2.1-5.2c-0.6-1.8-1.2-3.5-1.6-5.4c-0.1-0.4,0.2-0.9,0.6-0.9C292.7,655.6,293.1,655.8,293.2,656.2L293.2,656.2z"
			/>
	</g>
	<g>
		<path fill="#1A1A1A" d="M759.7,616.5c-0.4,4.9-1.3,9.6-2.4,14.3c-1.1,4.7-2.6,9.3-4.1,13.9c-0.8,2.3-1.6,4.5-2.6,6.8
			c-0.9,2.2-1.8,4.5-2.8,6.7c-1,2.2-2.1,4.3-3.1,6.5c-1.1,2.1-2.3,4.2-3.4,6.4c-0.3,0.5-0.9,0.7-1.4,0.4c-0.5-0.3-0.7-0.9-0.4-1.4
			l0,0c2.1-4.3,4.1-8.6,6-13c1.9-4.4,3.6-8.8,5.2-13.3c1.6-4.5,3-9,4.3-13.6c0.6-2.3,1.2-4.6,1.7-6.9c0.5-2.3,1-4.7,1.3-7l0,0
			c0.1-0.5,0.5-0.8,1-0.8C759.4,615.6,759.7,616,759.7,616.5z"/>
	</g>
	<g>
		<path fill="#1A1A1A" d="M761.9,653.4c-1.1,3.9-2.5,7.5-4.2,11.1c-1.7,3.6-3.6,7-5.7,10.4c-2.2,3.3-4.4,6.6-7,9.6
			c-1.2,1.5-2.6,3-3.9,4.4c-1.3,1.4-2.8,2.8-4.2,4.2c-0.4,0.4-1,0.4-1.4,0c-0.4-0.4-0.4-1,0-1.4l0,0c2.6-2.8,5.2-5.7,7.6-8.7
			c2.4-3,4.6-6.2,6.7-9.4c2.1-3.2,3.9-6.6,5.6-10.1c1.7-3.4,3.2-7,4.4-10.6l0-0.1c0.2-0.6,0.8-0.9,1.4-0.7
			C761.7,652.2,762,652.8,761.9,653.4z"/>
	</g>
</g>
<g>
	<g>
		<path fill="#FECE2F" d="M264,212c0,0-0.8-3.2-3.8-2.9s-3,0.8-3,0.8s-3.3-2-4.9-1c0,0-4.5-0.5-5.8,0.5s-4,5.7-5.3,14.8
			c-1.3,9.1,0.3,27.3,0.3,27.3l1.6,22.4c0,0,2.4,41.3-4.2,42.5c-6.6,1.2-7.9-21.2-7.9-21.2l-1.1-27.5l3.5-24.1
			c0,0,3.6-25.5,1.8-31.3c-1.8-5.8-6-3.8-6-3.8s-3.9-2.8-8-1c0,0-4.9-2.1-8.1,0.8l3.9,2.9c0,0,2.1,7.5,1.4,18s-2.8,45.6-2.8,45.6
			l-3.5,42.4l-0.6,12.8l-6.6,8.2l-4.9,28.6c0,0-3.2,26.4-2.2,27.4s1,1.8,1,1.8l-10.3,31.1c0,0-6.7,21.5,2,22.7
			c0,0-4.2,11.5-3.4,15.6c0.8,4.1-0.2,6.9,3.8,6c0,0-0.8,9.7,5.7,10.7s22.2-10.2,22.2-10.2s-2,15.8,3.6,22.5
			c5.6,6.7,14.2,11.8,26.8,11.2s22-11.4,24.2-16.1c2.2-4.7,2.4-14.2,2.4-14.2s14.7,9.7,18.7,4s0.9-33,0.9-33s-5-25.6-7.4-38.3
			c-2.4-12.8-12.9-49.6-12.9-49.6s-7.9-29-8.3-38.5c-0.4-9.5-5-37.1-5-37.1s-4.8-30.7-4.1-40.6s3.3-29.5,3.3-29.5L264,212z"/>
	</g>
	<g>
		<path fill="#FFFFFF" d="M217,209.8c0,0,2.1-1.7,3.6,8.8c1.5,10.6-0.2,26.8-1.3,49.7c-1.2,22.8-1.8,69.5-1.8,69.5l-5.8-5.5l2.3-41
			l4.3-60.8L217,209.8z"/>
	</g>
	<g>
		<path fill="#FFFFFF" d="M214.4,340.6l-5.5,53.2c0,0-9.3,3.5-11.2,0c0,0,0.7-33,7.2-56L214.4,340.6z"/>
	</g>
	<g>
		<path fill="#FFFFFF" d="M201.7,406.9c0,0-8,28.8-5.2,39.5c0,0-9.9,8.8-10.2-4.9s9.2-34.8,9.2-34.8L201.7,406.9z"/>
	</g>
	<g>
		<path fill="#FFFFFF" d="M196.7,447.4c0,0-4.8,16.5-0.5,20c0,0-5.4,5.9-7.4,3.1s-2.5-6.1-2.1-6.8s3.9-12.2,3.9-12.2L196.7,447.4z"
			/>
	</g>
	<g>
		<path fill="#FFFFFF" d="M196.6,468.3c0,0-0.2,10.2,6.7,12c0,0-9.5,5.5-11.8-2.5s-0.6-6.8-0.6-6.8L196.6,468.3z"/>
	</g>
	<g>
		<path fill="#FFFFFF" d="M260.1,213.4c0,0-1.9-0.9-3.6,3.5c-1.2,3.1-3.2,13.5-2.5,30.2s3.6,58.6,11.1,90.1s18.2,82.8,18.2,82.8
			l12.2,36.2c0,0-1.1-21.2-7.9-48.6c-6.8-27.4-15.8-58.9-21.1-88.2s-9.5-75.2-9.5-75.2S257.6,218.4,260.1,213.4z"/>
	</g>
	<g>
		<path fill="#FFFFFF" d="M235.8,338.2c0,0,14.5-2.1,18,7.8c3.5,9.8,13.5,44.2,13.5,44.2l9,13.7L264.4,362c0,0-5.3-22.5-15.8-24.2
			C238.1,336.1,235.8,338.2,235.8,338.2z"/>
	</g>
	<g>
		<path fill="#FFFFFF" d="M292.4,447.4c0-1-10.2-36.8-22-53s-13.7-20.2-25.3-16.8c0,0,11.6,1.4,23.4,25.3
			c14.8,30.2,15.6,35.2,15.6,35.2l10.8,29.5C294.9,467.6,292.4,448.4,292.4,447.4z"/>
	</g>
	<g>
		<path fill="#FFFFFF" d="M250.4,404.9c0,0,9.3,1.8,19.8,20.2s16.2,33,16.2,33l9,14.8l-8-26c0,0-12.8-31.8-22.2-40
			C255.7,398.6,250.4,404.9,250.4,404.9"/>
	</g>
	<g>
		<path fill="#FFFFFF" d="M255.5,504c9.2-3,15.9-11.1,17.7-14.9c1.8-3.9,2.3-11.4,2.4-13.6c-1.4-4.3-11.1-31.3-27.2-31.8
			c0,0,17.6,7.9,20.3,29.6C270.6,489.2,258.6,501.2,255.5,504z"/>
	</g>
	<g>
		<path fill="#FFFFFF" d="M281.9,452.3c0,0-22.2-24.4-31.8-25.3c-6.5-0.6-12,6.2-12,6.2s9.7-4,18.1,2.6c29,22.9,29.4,44,29.4,44
			s8.2,3.1,9.2-3.1S281.9,452.3,281.9,452.3z"/>
	</g>
	<g>
		<path fill="#FFFFFF" d="M255.2,216.3c1.7-0.3,3.4-0.8,5.1-0.8c0.3-2,0.4-3.2,0.4-3.2l3.2-0.3c0,0-0.8-3.2-3.8-2.9
			c-3,0.3-3,0.8-3,0.8s-3.3-2-4.9-1c0,0-4.5-0.5-5.8,0.5c-0.7,0.6-1.9,2.3-3.1,5.4c1.6,1,3.4,1.7,5.4,1.9
			C250.9,216.8,253.1,216.7,255.2,216.3z"/>
	</g>
	<g>
		<path fill="#FFFFFF" d="M234.1,214.9c0.5-0.1,1-0.2,1.5-0.4c-0.1-0.9-0.2-1.7-0.4-2.3c-1.8-5.8-6-3.8-6-3.8s-3.9-2.8-8-1
			c0,0-6.4-1.2-9.6,1.6l5.4,2.1c0,0,0.2,0.7,0.4,1.8c0.9,0.4,1.7,0.8,2.7,1.1C224.6,215.5,229.5,215.9,234.1,214.9z"/>
	</g>
	<g>
		<path fill="#FFFFFF" d="M231.8,302.9c-4,2.1-0.7,11,1,15.4c0.5,1.3,1,2.5,2,3.5c0.9,1,2.3,1.7,3.6,1.5c2.4-0.3,3.7-3,4.4-5.4
			c1.2-4.6,1.7-9.5,1.3-14.3c-0.5,2-0.9,4.1-1.2,6.1c-0.2-0.3-0.3-0.7-0.5-1c-0.7,4.2-1.8,7.1-3.5,7.4
			C234.9,316.9,232.9,309.2,231.8,302.9z"/>
	</g>
	<g>
		<g>
			<path fill="#1A1A1A" d="M247.9,507c-7.4,0-17.2-2.7-23.8-9.1c-5.6-5.4-8.1-12.5-7.4-21c1.8-23.6,22.9-35.4,27.9-35.5l0,1.2l0-1.2
				c0.2,0,0.3,0,0.5,0c5.9,0,12,3,17.6,8.8c8.2,8.3,14.4,21.4,14.1,29.6c-0.5,12.3-13.4,25.7-26,27C249.9,507,248.9,507,247.9,507z
				 M245,443.9c-0.1,0-0.3,0-0.4,0c-3.2,0.1-23.8,10.5-25.6,33.2c-0.6,7.8,1.7,14.2,6.7,19.1c7,6.8,17.8,9,24.8,8.2
				c11.3-1.2,23.3-13.7,23.8-24.7c0.3-6.6-4.8-19.1-13.4-27.8C257.3,448.2,251.6,443.9,245,443.9z"/>
		</g>
		<g>
			<path fill="#1A1A1A" d="M219.5,486.4c-0.1-0.5-0.5-1-1.1-1c-0.5-0.1-1.1,0.3-1.3,0.8c-2.5,6.7-7.8,22.6-3.3,25.1
				c0.5,0.3,1.1,0.5,1.8,0.5c2,0,4.7-1.5,8-4.5c3-2.7,5.4-5.6,5.5-5.8c0.2-0.3,0.3-0.6,0.3-0.9s-0.2-0.6-0.5-0.8
				C228.9,499.8,220.7,493.7,219.5,486.4z"/>
			<path fill="#1A1A1A" d="M278,497.3c-1.6-4.9-3.6-9.2-3.7-9.4c-0.2-0.4-0.6-0.7-1.1-0.7c0,0,0,0,0,0c-0.5,0-0.9,0.3-1.1,0.7
				c-3.9,8.3-8.5,11.1-8.5,11.1c-0.3,0.2-0.5,0.5-0.6,0.8c-0.1,0.3,0,0.7,0.2,1c0.8,1.1,8,10.6,12.8,10.9c0.1,0,0.2,0,0.3,0
				c1,0,1.8-0.4,2.5-1C280.6,508.7,280.3,504.3,278,497.3z"/>
		</g>
		<ellipse fill="#1A1A1A" cx="244.4" cy="443.5" rx="6.4" ry="5.5"/>
		<g>
			<path fill="#1A1A1A" d="M226.6,470.7c-0.4,0-0.7-0.2-0.9-0.4c-0.4-0.5-0.4-1.3,0.2-1.7c0.2-0.2,5.7-4.7,12.7-0.8
				c0.6,0.3,0.8,1.1,0.5,1.7c-0.3,0.6-1.1,0.8-1.7,0.5c-5.5-3-9.8,0.4-10,0.5C227.1,470.6,226.9,470.7,226.6,470.7z"/>
		</g>
		<g>
			<path fill="#1A1A1A" d="M253.3,470.2c-0.3,0-0.6-0.1-0.9-0.4c-0.5-0.5-0.5-1.3,0-1.7c2.2-2.2,7.8-5.1,13.4-0.8
				c0.5,0.4,0.6,1.2,0.2,1.7c-0.4,0.5-1.2,0.6-1.7,0.2c-5.4-4.1-10,0.4-10.2,0.6C253.9,470.1,253.6,470.2,253.3,470.2z"/>
		</g>
		<g>
			
				<ellipse transform="matrix(0.6083 -0.7937 0.7937 0.6083 -192.0222 330.553)" fill="#1A1A1A" cx="238.9" cy="359.8" rx="11.4" ry="5"/>
		</g>
		<g>
			
				<ellipse transform="matrix(0.6083 -0.7937 0.7937 0.6083 -190.6411 343.5421)" fill="#1A1A1A" cx="252.8" cy="364.9" rx="4.2" ry="3"/>
		</g>
		<g>
			<path fill="#1A1A1A" d="M211.3,209.2c0.1,0,5.8-3.7,8.4-0.4c2.5,3.2,3.5,15.8,3.6,20.4c0,0.7,0.6,1.2,1.2,1.2c0,0,0,0,0,0
				c0.7,0,1.2-0.6,1.2-1.3c-0.1-1.6-0.6-15.2-3.4-20.6c1.2-0.6,3.2-1.1,4.7,0.9c2,2.5,2.4,13.5,2.2,19.9c0,0.7,0.5,1.2,1.2,1.3
				c0,0,0,0,0,0c0.7,0,1.2-0.5,1.2-1.2c0.1-1.6,0.4-14.7-1.9-20.1c0.6-0.2,1.3-0.3,2,0c0.7,0.2,1.3,0.8,1.7,1.6
				c2.3,4.8,0.5,17-1.4,29.9c-0.7,5-1.5,10.3-2.1,15.6c-0.5,2-1.5,5.3-3.4,8.8c-3.2,6-3.8,9.3-1.9,14.6s4.6,9.5,4.8,15.8l0,0
				c1.1,14,3.5,22.5,8.9,22.8c0.1,0,0.1,0,0.2,0c0.7,0,1.7-0.2,2.6-1.2c2.9-3,3.8-12.5,3.9-22.6c0.2-4.1,0.8-10.2,2.1-12.8
				c2.1-4.2,3.7-9,0.8-13.7c-3.9-6.2-5-11.1-5.4-13.3c-2.4-33.2,1.4-41.9,4.1-44c0.6-0.5,1.3-0.7,2.1-0.7c-5.5,8.2-4.7,24.3-4.7,25
				c0,0.7,0.6,1.2,1.2,1.2c0,0,0,0,0.1,0c0.7,0,1.2-0.6,1.2-1.3c0-0.2-0.9-18,5.2-24.8c0.5-0.6,1-0.8,1.6-0.8c0,0,0,0,0,0
				c0.8,0,1.6,0.5,2.1,1c-6,7.5-6,23.4-6,24.1c0,0.7,0.5,1.2,1.2,1.2c0,0,0,0,0,0c0.7,0,1.2-0.6,1.2-1.2c0-0.2,0-18.6,6.9-24
				c0.8-0.6,1.3-0.6,1.7-0.5c1.4,0.3,2.6,2.5,3,3.2c0.3,0.6,1,0.9,1.6,0.6c0.6-0.3,0.9-1,0.6-1.6c-0.2-0.4-1.8-3.9-4.6-4.6
				c-0.9-0.2-2.3-0.2-3.8,1c0,0-0.1,0-0.1,0.1c-0.8-0.7-2.1-1.6-3.8-1.6c0,0,0,0,0,0c-0.7,0-1.7,0.2-2.8,1c-2-0.6-3.9-0.3-5.5,0.9
				c-6.1,4.8-7.4,25.1-3.8,60.1c1.7,16.1,2.2,42-2,46.4c-0.4,0.4-0.7,0.4-0.9,0.4c-7-0.3-7.3-30.5-7.3-41.8
				c-0.1-10.4,1.7-22.4,3.3-33c2.1-13.9,3.9-25.9,1.2-31.4c-0.7-1.5-1.8-2.5-3.2-2.9c-1.6-0.5-3.2-0.1-4.2,0.3
				c-2.5-2.4-5.5-1.7-7.5-0.6c-4.1-3.6-10.6,0.5-10.9,0.7c-0.6,0.4-0.7,1.1-0.4,1.7C209.9,209.4,210.7,209.5,211.3,209.2z"/>
			<path fill="#1A1A1A" d="M280.1,373.1c-3-11.2-5.9-21.7-7.7-30.2c-7.5-35-13.1-79.8-13.6-99.7c-0.5-19.1,2.8-29.4,2.9-29.5
				c0.2-0.6-0.1-1.3-0.8-1.5c-0.6-0.2-1.3,0.1-1.5,0.8c-0.1,0.4-3.5,10.8-3,30.3c0.5,20,6.1,65,13.7,100.1
				c1.8,8.5,4.7,19.1,7.7,30.3c6.6,24.1,14.2,52.5,16.4,76.7c-4.8-23.3-15.8-44.4-16.6-45.9c-0.9-3.8-13.2-54.5-20.6-62.9
				c-6.1-7-12.8-6.9-21.6-4.7c-14.7,1.7-19.8-1-21.6-2.8c-1.4-1.4-1.2-2.9-1.2-2.9c0,0,0,0,0-0.1c0,0,0,0,0-0.1
				c0.1-0.8,6-84.7,6.7-101.2c0.5-12.2-1.8-19.6-1.9-19.9c-0.2-0.6-0.9-1-1.5-0.8c-0.6,0.2-1,0.9-0.8,1.5c0,0.1,2.2,7.3,1.8,19.1
				c-0.6,14.3-5.1,79-6.3,96.7c-2.4,1.1-5.8,3.7-6.3,7.5c0,0,0,0.1,0,0.1c0,0.1-2.5,14.5-4.7,29c-4.6,29.8-3.6,31-2.9,31.7
				c0.2,0.3,0.5,0.5,0.9,0.7c-1.9,5-12.5,33.8-12.8,44.8c-0.1,5.2,1,8.5,3.5,9.6c0.3,0.2,0.7,0.3,1.1,0.4
				c-1.5,4.3-5.2,16.2-2.3,20.5c0.6,1,1.6,1.5,2.7,1.7c0,2,0.3,6,2.7,8.5c1.5,1.6,3.4,2.3,5.9,2.3c0.2,0,0.4,0,0.6,0
				c8.1-0.4,20.1-10.5,20.6-10.9c0.5-0.4,0.6-1.2,0.1-1.7c-0.4-0.5-1.2-0.6-1.7-0.1c-0.1,0.1-11.9,10-19.1,10.3
				c-2,0.1-3.5-0.4-4.5-1.6c-2-2.1-2-5.9-2-7.3c4.1-1.8,11.4-8.1,22.6-18.1c13-11.5,29-25.9,35.1-25.9c0.1,0,0.2,0,0.3,0
				c12.2,1,40.6,31.2,43.5,49.7c-0.2,0.7-0.6,1.2-1.2,1.5c-3.3,1.4-11.7-2.6-16.2-5.4c-0.6-0.4-1.3-0.2-1.7,0.4
				c-0.4,0.6-0.2,1.3,0.4,1.7c1.1,0.7,9.9,6.1,15.9,6.1c1,0,1.8-0.1,2.6-0.5c1.4-0.6,2.3-1.7,2.6-3.2c0,0,0,0,0,0c0,0,0-0.1,0-0.1
				c0,0,0,0,0-0.1c0,0,0,0,0,0c0,0,0,0,0,0c0,0,0,0,0,0C301,450.1,289.4,407.4,280.1,373.1z M205.7,339.6c0.5,0.6,1.2,1.2,2,1.6
				c5.5,3.1,15.7,1.8,23.4-0.5c1.7-0.5,3.2-0.9,4.8-1.3c0,0,0,0,0,0c0,0,0.1,0,0.1,0c8.1-2.1,13.9-2.1,19.1,3.9
				c5.2,5.9,13.6,36.5,17.6,52.3c-4.4-7.6-11.3-17.8-17.7-19.8c-9-2.9-17.9,1.7-31.4,8.7c-1.2,0.6-2.3,1.2-3.6,1.8
				c-15.5,8-20.4,8.3-21.7,7.1C197.6,390.1,202.2,360.7,205.7,339.6z M187,440.5c0.2-6.3,4.1-19.1,7.5-29.4c0,0.4,0.6,5.2,5.2,3.9
				c2.7-0.8,5.7-4.4,8.7-7.3c0.8-0.8,2.5-2.6,3.7-2.6c1.6,0.1,2.2,2.1,2.3,3.7c0.1,1.5,0,3-0.2,4.6c-0.1,1.2-0.2,2.6,0.7,3.3
				c0.8,0.6,2,0.3,3-0.1c2.4-1,4.4-2.8,5.8-5c1.3-2,2.1-4.2,2.8-6.3c7.6-22,15.6-26.7,20.8-27.8c2.4-0.3,4.8-0.1,7,0.6
				c9.2,3,20.8,27.1,21,27.4c0.9,1.5,6.4,12.4,11.1,26.4c2.7,8,5.6,18.5,6.8,29c-6.4-24.4-22.9-55.8-33.3-59.6
				c-10.2-3.7-34.4,17.1-56.8,37.9c-2.4,2.2-4.2,3.9-5.2,4.8c-3.8,3.2-7.1,4.7-8.8,3.8C187.6,447.2,186.9,444.5,187,440.5z
				 M250.2,425.8c-6.9-0.5-22.3,13.2-37.2,26.5c-9.5,8.5-20.2,18-23,18c0,0,0,0-0.1,0c-0.5,0-0.9-0.2-1.2-0.6
				c-1.5-2.2-0.3-8.6,1.3-14.3c0.2-0.5,1.2-2.8,3.7-2.8c1,0,2.3,1,3.1,1.8c0.4,0.5,0.7,1.1,1.2,1.5c0.8,0.7,2,0.6,3,0.1
				c0.9-0.5,1.6-1.3,2.3-2.1c2.4-3,4.8-5.9,7.2-8.9c0.8-0.9,1.6-1.9,2.7-2.4c1.8-0.8,3.9-0.2,5.9-0.4c2.6-0.3,4.8-2.1,6.2-4.3
				c1.5-2.1,2.3-4.6,3.3-7.1c2.9-7.4,3.1-12.8,11.3-19.4c8-5.6,15.2-9.1,19.1-7.7c9.6,3.5,28,38.3,33.1,63
				C283.2,448.1,261.2,426.6,250.2,425.8z"/>
		</g>
	</g>
</g>
<g>
	<g>
		<path fill="#FECE2F" d="M380.4,161.7c0,0-2.8,18.2-2.2,33.9c0.7,15.7,5.5,60.7,5.5,60.7s3.7,34.5,7.2,48.3s18.7,70.5,18.7,70.5
			s7.7,39.3,7.2,51.5s-0.5,18-2.3,18.3c-1.8,0.3-10.8,1.2-18.2-5.2c0,0,0.5,28.8-27.2,30c-27.7,1.2-30.8-20.7-30.5-24.7
			s-0.2-8.3-0.2-8.3s-15.2,12.3-22.2,9.2c-7-3.2-4.8-9.5-4.8-9.5s-5-0.5-3.8-8.5s3.7-14.3,3.7-14.3s-7.7,2.2-3.7-17.3
			s7.7-24.7,7.7-24.7l4.2-12.7c0,0-3.5,3.2-0.3-17.3s6.8-42.3,6.8-42.3l6.5-8.2l5.7-78.8l0.3-23.8l-8,3c0,0,0.7-11.3,5.7-12
			c5-0.7,5-0.7,5-0.7s4.7-2.6,6.8-0.5c0,0,5-2.3,6.2-0.7c1.2,1.7,3.3,3,2.8,7.6c-0.6,4.6-3.2,28.1-3.2,28.1s-3.8,19.2-3.1,30.7
			c0.8,11.4,0,37.6,7.9,37.3c7.9-0.2,5.4-30.7,5.4-30.7l-2.2-32.1l-1-26.4c0,0-1.2-24.3,6.7-22.7c0,0,1.9-6.1,6.6-4.8
			c0,0,4.2-8.9,10.1-5.9L380.4,161.7z"/>
	</g>
	<g>
		<path fill="#FFFFFF" d="M379.2,171.8c0.6-6,2.7-9.2,2.7-9.2l3.2-2.5c-4.4-7.4-11.1,4.4-11.1,4.4c-4.7-1.2-6.6,4.8-6.6,4.8
			c-4-0.8-5.7,4.9-6.3,10.9c0,0,1.8-2.6,4-4.2C376.3,168.1,379,172,379.2,171.8z"/>
	</g>
	<g>
		<path fill="#FFFFFF" d="M354.9,303c0,0,13.8,0.3,18.7,8.5c4.8,8.2,8.7,23.5,12,39.5l9.3,13.5l-9.2-35.5c0,0-4.1-24.8-18.2-27.3
			C359.1,300.1,354.9,303,354.9,303z"/>
	</g>
	<g>
		<path fill="#FFFFFF" d="M341.8,199c-0.2-5.2-3.4-10.5-3.4-10.5l0.9,8.9l-2.7,36.4l-4.5,62.8l6.5,5.1c0,0-2.7-5.3-0.2-45.1
			C339.6,238.2,342.1,207.4,341.8,199z"/>
	</g>
	<g>
		<path fill="#FFFFFF" d="M331.9,304.1l-4.5,54c0,0-8.5,3.8-9.5-0.7s8.1-56.2,8.1-56.2L331.9,304.1z"/>
	</g>
	<g>
		<path fill="#FFFFFF" d="M324.4,368.6c0,0-9.2,27.8-7.7,42.5c0.2,2.2-7.7,5.5-9,0.2c-1.3-5.3-3-6.3,1.5-21.3s8-22.7,8-22.7
			L324.4,368.6z"/>
	</g>
	<g>
		<path fill="#FFFFFF" d="M318.4,413c-2.7,9.3-0.8,18.2-0.8,18.2s-7,7.3-9,3.7c-2-3.7,1.2-17.5,2.3-20.6
			C311.9,411.1,319,411.1,318.4,413z"/>
	</g>
	<g>
		<path fill="#FFFFFF" d="M317.6,431.1l-6.3,4.9c0,0-0.2,5.8,2.3,8.8s8.5,1.2,8.5,1.2L317.6,431.1z"/>
	</g>
	<g>
		<g>
			<path fill="#FFFFFF" d="M368.9,407.9c0,0-0.1,0-0.1,0C368.8,407.9,368.8,407.9,368.9,407.9z"/>
		</g>
		<g>
			<path fill="#FFFFFF" d="M368.7,407.9c-0.1,0-0.2,0-0.3,0C368.6,407.9,368.6,407.9,368.7,407.9z"/>
		</g>
		<g>
			<path fill="#FFFFFF" d="M369.2,407.9c-0.1,0-0.2,0-0.3,0C369,407.9,369.1,407.9,369.2,407.9z"/>
		</g>
		<g>
			<path fill="#FFFFFF" d="M370.2,408c-0.4,0-0.7-0.1-1-0.1C369.6,408,370,408,370.2,408z"/>
		</g>
		<g>
			<path fill="#FFFFFF" d="M370.3,408C370.2,408,370.2,408,370.3,408C370.2,408,370.3,408,370.3,408z"/>
		</g>
		<g>
			<path fill="#FFFFFF" d="M370.2,408C370.2,408,370.2,408,370.2,408C370.2,408,370.2,408,370.2,408z"/>
		</g>
		<g>
			<path fill="#FFFFFF" d="M367.9,407.8c-0.1,0-0.2,0-0.3,0C367.7,407.8,367.8,407.8,367.9,407.8z"/>
		</g>
		<g>
			<path fill="#FFFFFF" d="M366.8,407.7c0,0-0.1,0-0.1,0C366.7,407.7,366.7,407.7,366.8,407.7z"/>
		</g>
		<g>
			<path fill="#FFFFFF" d="M368.5,407.9c-0.2,0-0.4,0-0.5-0.1C368.1,407.8,368.3,407.8,368.5,407.9z"/>
		</g>
		<g>
			<path fill="#FFFFFF" d="M391.9,428.4c-4.2-8.6-13.2-19.4-21.7-20.3l-1.5,2.7c0,0,19.9,8.6,19.9,28.2s-12.2,28.4-17.6,30.2
				s0.1,0.9,0.1,0.9s6.9,1.5,17.4-9.8S396.2,437,391.9,428.4z"/>
		</g>
		<g>
			<path fill="#FFFFFF" d="M366.7,407.7C366.5,407.6,366.4,407.6,366.7,407.7L366.7,407.7z"/>
		</g>
		<g>
			<path fill="#FFFFFF" d="M367,407.7c-0.1,0-0.1,0-0.2,0C366.9,407.7,366.9,407.7,367,407.7z"/>
		</g>
		<g>
			<path fill="#FFFFFF" d="M367.6,407.8c-0.2,0-0.4,0-0.6-0.1C367.2,407.7,367.4,407.7,367.6,407.8z"/>
		</g>
	</g>
	<g>
		<path fill="#FFFFFF" d="M415.4,408.3l-8.4-41l-10.1-40c0,0-7.2-26.8-8.8-38.6s-7.1-57.1-7.1-57.1l-3-47c0,0-3.5,3.9-3.6,14.4
			s1.2,32.7,5,64c7.7,62.4,19.4,84.8,19.5,94.4c0.1,5.7-2.5,8.6-2.5,8.6l5.2,13l7.9,21l4,16.4c0,0,2,2.8,1.9,2
			S415.4,408.3,415.4,408.3z"/>
	</g>
	<g>
		<path fill="#FFFFFF" d="M361.3,344.3c0,0,12.1-1.9,17.3,4.8c21.7,28,24.5,48.5,24.5,48.5l6.7,19.5l4,10.2l1.7-9
			c0,0-5.6-18.9-9.7-29.1c-4.1-10.2-10.8-27.5-20.2-38.2C376.3,340.3,372.6,338,361.3,344.3z"/>
	</g>
	<g>
		<path fill="#FFFFFF" d="M405.1,404.3c-6.1-13.6-19.1-38.2-27.4-37.2s-10.5,3.4-10.5,3.4s15.5-6.9,38.8,50.5
			c1.5,3.8,8.2,14.2,8.2,14.2S411.2,417.9,405.1,404.3z"/>
	</g>
	<g>
		<path fill="#FFFFFF" d="M401.9,417c-7.2-9-24.2-26.8-32.5-25.5s-8.8,5-8.8,5s10.2-3.7,21.8,7.3c29.4,27.7,23.7,40,23.7,40
			s3.7,1.5,6,1.3c2.3-0.2,3.7-2,3.5-5.3C415.4,436.5,409.1,426,401.9,417z"/>
	</g>
	<g>
		<path fill="#FFFFFF" d="M348,187.9c2.2-1.7,5-2.4,7.2-4.1c0.3-0.2,0.6-0.5,0.8-0.8c0.2-0.3,0.2-0.7,0.2-1.1c0-0.5,0-1,0.1-1.6
			c-0.6-1.1-1.5-1.9-2-2.7c-1.2-1.7-6.2,0.7-6.2,0.7c-2.2-2.1-6.8,0.5-6.8,0.5s0,0-5,0.7s-5.2,13.4-5.2,13.4l7.6-3.2l-0.3,8.1
			c0.5,1,2.4,2.5,3.5,2.2c0,0,0.2-3,0.6-4.1C343.5,192.9,345.4,189.8,348,187.9z"/>
	</g>
	<g>
		<path fill="#FFFFFF" d="M355.6,285.6c1.8,1.4,4.6,0.5,6-1.3c1.4-1.8,1.8-4.2,1.9-6.5c0.2-2.5,0.3-5.1,0.3-7.6
			c-0.7,5.9-2.2,10.9-5.3,11c-4.5,0.1-6.2-8.1-7-17.4c-0.6,0.5-1.1,1.3-1.1,2.5c-0.3,5.2,1.5,11.8,3.4,16.6
			C354.2,283.9,354.7,285,355.6,285.6z"/>
	</g>
	<g>
		<g>
			<path fill="#1A1A1A" d="M368.4,471.5c-7.4,0-17.2-2.7-23.8-9.1c-5.6-5.4-8.1-12.5-7.4-21c1.8-23.6,22.9-35.4,27.9-35.5l0,1.2
				l0-1.2c0.2,0,0.3,0,0.5,0c5.9,0,12,3,17.6,8.8c8.2,8.3,14.4,21.4,14.1,29.6c-0.5,12.3-13.4,25.7-26,27
				C370.4,471.5,369.4,471.5,368.4,471.5z M365.5,408.4c-0.1,0-0.3,0-0.4,0c-3.2,0.1-23.8,10.5-25.6,33.2
				c-0.6,7.8,1.7,14.2,6.7,19.1c7,6.8,17.8,9,24.8,8.2c11.3-1.2,23.3-13.7,23.8-24.7c0.3-6.6-4.8-19.1-13.4-27.8
				C377.8,412.7,372.1,408.4,365.5,408.4z"/>
		</g>
		<g>
			<path fill="#1A1A1A" d="M340,450.9c-0.1-0.5-0.5-1-1.1-1c-0.5-0.1-1.1,0.3-1.3,0.8c-2.5,6.7-7.8,22.6-3.3,25.1
				c0.5,0.3,1.1,0.5,1.8,0.5c2,0,4.7-1.5,8-4.5c3-2.7,5.4-5.6,5.5-5.8c0.2-0.3,0.3-0.6,0.3-0.9s-0.2-0.6-0.5-0.8
				C349.4,464.3,341.2,458.2,340,450.9z"/>
			<path fill="#1A1A1A" d="M398.5,461.8c-1.6-4.9-3.6-9.2-3.7-9.4c-0.2-0.4-0.6-0.7-1.1-0.7c0,0,0,0,0,0c-0.5,0-0.9,0.3-1.1,0.7
				c-3.9,8.3-8.5,11.1-8.5,11.1c-0.3,0.2-0.5,0.5-0.6,0.8c-0.1,0.3,0,0.7,0.2,1c0.8,1.1,8,10.6,12.8,10.9c0.1,0,0.2,0,0.3,0
				c1,0,1.8-0.4,2.5-1C401.1,473.2,400.8,468.8,398.5,461.8z"/>
		</g>
		<ellipse fill="#1A1A1A" cx="364.9" cy="408" rx="6.4" ry="5.5"/>
		<g>
			<path fill="#1A1A1A" d="M347.1,435.2c-0.4,0-0.7-0.2-0.9-0.4c-0.4-0.5-0.4-1.3,0.2-1.7c0.2-0.2,5.7-4.7,12.7-0.8
				c0.6,0.3,0.8,1.1,0.5,1.7c-0.3,0.6-1.1,0.8-1.7,0.5c-5.5-3-9.8,0.4-10,0.5C347.6,435.1,347.4,435.2,347.1,435.2z"/>
		</g>
		<g>
			<path fill="#1A1A1A" d="M373.8,434.7c-0.3,0-0.6-0.1-0.9-0.4c-0.5-0.5-0.5-1.3,0-1.7c2.2-2.2,7.8-5.1,13.4-0.8
				c0.5,0.4,0.6,1.2,0.2,1.7c-0.4,0.5-1.2,0.6-1.7,0.2c-5.4-4.1-10,0.4-10.2,0.6C374.4,434.6,374.1,434.7,373.8,434.7z"/>
		</g>
		<g>
			
				<ellipse transform="matrix(0.6083 -0.7937 0.7937 0.6083 -116.6491 412.2881)" fill="#1A1A1A" cx="359.4" cy="324.3" rx="11.4" ry="5"/>
		</g>
		<g>
			
				<ellipse transform="matrix(0.6083 -0.7937 0.7937 0.6083 -115.268 425.2772)" fill="#1A1A1A" cx="373.3" cy="329.4" rx="4.2" ry="3"/>
		</g>
		<g>
			<path fill="#1A1A1A" d="M330.3,193.4c0.7,0,1.2-0.5,1.3-1.2c0-0.1,0.4-8.3,4-11.3c1-0.8,2.2-1.1,3.6-0.9
				c2.9,0.5,4.5,10.7,4.6,17.5c0,0.7,0.6,1.2,1.2,1.2c0,0,0,0,0,0c0.7,0,1.2-0.6,1.2-1.2c-0.1-2.6-0.5-13.6-3.9-18
				c0.9-0.6,2.9-1.5,5.1,0.4c2.5,2.1,2.7,11.9,2.2,17.6c-0.1,0.7,0.4,1.3,1.1,1.3c0,0,0.1,0,0.1,0c0.6,0,1.2-0.5,1.2-1.1
				c0.1-1.6,1.1-14.6-2.5-19.1c0.7-0.4,1.7-0.9,2.6-0.8c0.7,0.1,1.3,0.6,1.7,1.4c2.8,4.6,0.8,17.1-1.3,30.4
				c-0.7,4.5-1.4,9.2-2.1,13.9c-0.3,1.8-1.3,5.6-3.6,9.9c-3.2,6-3.8,9.3-1.9,14.6s4.6,9.5,4.8,15.8l0.1-0.2c1.1,12,3.6,18.7,8.8,19
				c0.1,0,0.1,0,0.2,0c0.7,0,1.7-0.2,2.6-1.2c2.9-3,3.8-12.5,3.9-22.6c0.2-4.1,0.8-10.2,2.1-12.8c2.1-4.2,3.7-9,0.8-13.7
				c-4.3-7-5.3-12.3-5.5-13.9c-2.1-27.2-1.4-45.3,2.2-48.3c0.4-0.3,0.8-0.4,1.3-0.3c0.1,0,0.1,0,0.2,0c-1.7,7.1-1.6,17.3-1.6,18.8
				c0,0.7,0.6,1.2,1.2,1.2c0,0,0,0,0,0c0.7,0,1.2-0.6,1.2-1.2c-0.1-5.2,0.3-19.3,3.4-22.8c0.7-0.8,1.4-1,2.2-0.7
				c-2.5,8.6-1.8,19.8-1.7,20.5c0,0.6,0.6,1.1,1.2,1.1c0,0,0.1,0,0.1,0c0.7,0,1.2-0.6,1.1-1.3c0-0.2-1.3-19.9,5-26
				c1.1-1,2-1.5,2.9-1.4c1.3,0.2,2.2,1.7,2.2,1.7c0.3,0.6,1.1,0.8,1.7,0.5c0.6-0.3,0.8-1.1,0.5-1.7c-0.1-0.1-1.4-2.6-4-3
				c-1.7-0.3-3.3,0.4-5,2c-1.4,1.3-2.4,3.1-3.2,5.2c-1.8-0.6-3.5-0.1-4.8,1.4c-0.7,0.8-1.3,2-1.8,3.4c-0.1,0-0.1-0.1-0.2-0.1
				c-1.3-0.4-2.5-0.1-3.5,0.8c-3.5,3-6.7,16.7-1.8,65.1c1.7,16.1,2.2,42-2,46.4c-0.4,0.4-0.7,0.4-0.9,0.4
				c-6.2-0.3-7.2-18.3-7.3-37.8c-0.1-10.1,1.8-22,3.4-32.4c2.3-14.3,4.2-26.7,1-32c-1.1-1.8-2.5-2.4-3.5-2.5c-2.2-0.3-4.2,1-5,1.6
				c-3-1.6-5.9-0.3-7.2,0.8c-0.3-0.1-0.5-0.2-0.8-0.2c-2.1-0.3-4,0.2-5.5,1.4c-4.4,3.6-4.9,12.7-4.9,13.1
				C329.1,192.8,329.6,193.4,330.3,193.4z"/>
			<path fill="#1A1A1A" d="M400.6,337.6c-3-11.2-5.9-21.7-7.7-30.2c-8-37-13.2-99.1-13.6-117.4c-0.5-18.9,2.6-26.7,2.7-26.8
				c0.3-0.6,0-1.3-0.6-1.6c-0.6-0.3-1.3,0-1.6,0.6c-0.1,0.3-3.4,8.2-2.9,27.8c0.5,18.4,5.7,80.7,13.7,117.9
				c1.8,8.5,4.7,19.1,7.7,30.3c6.6,24.1,14.2,52.5,16.4,76.7c-4.8-23.3-15.8-44.4-16.6-45.9c-0.9-3.8-13.2-54.5-20.6-62.9
				c-6.1-7-12.8-6.9-21.6-4.7c-14.7,1.7-19.8-1-21.6-2.8c-1.4-1.4-1.2-2.8-1.2-2.9c0,0,0,0,0,0c0,0,0,0,0-0.1
				c0.1-0.8,6-80.7,6.7-97.2c0.2-5.8,0.2-13-1.4-14.3c-0.5-0.4-1.3-0.3-1.7,0.2c-0.4,0.5-0.3,1.1,0,1.5c0.1,0.3,1,2.5,0.6,12.4
				c-0.6,14.2-5.1,75.5-6.3,92.7c-2.4,1.1-5.8,3.7-6.3,7.5c0,0,0,0.1,0,0.1c0,0.1-2.5,14.5-4.7,29c-4.6,29.8-3.6,31-2.9,31.7
				c0.2,0.3,0.5,0.5,0.9,0.7c-1.9,5-12.5,33.8-12.8,44.8c-0.1,5.2,1,8.5,3.5,9.6c0.3,0.2,0.7,0.3,1.1,0.4
				c-1.5,4.3-5.2,16.2-2.3,20.5c0.6,1,1.6,1.5,2.7,1.7c0,2,0.3,6,2.7,8.5c1.5,1.6,3.4,2.3,5.9,2.3c0.2,0,0.4,0,0.6,0
				c8.1-0.4,20.1-10.5,20.6-10.9c0.5-0.4,0.6-1.2,0.1-1.7c-0.4-0.5-1.2-0.6-1.7-0.1c-0.1,0.1-11.9,10-19.1,10.3
				c-2,0.1-3.5-0.4-4.5-1.6c-2-2.1-2-5.9-2-7.3c4.1-1.8,11.4-8.1,22.6-18.1c13.2-11.7,29.6-26.3,35.4-25.9
				c12.2,1,40.6,31.2,43.5,49.7c-0.2,0.7-0.6,1.2-1.2,1.5c-3.3,1.4-11.7-2.6-16.2-5.4c-0.6-0.4-1.3-0.2-1.7,0.4
				c-0.4,0.6-0.2,1.3,0.4,1.7c1.1,0.7,9.9,6.1,15.9,6.1c1,0,1.8-0.1,2.6-0.5c1.4-0.6,2.3-1.7,2.6-3.2c0,0,0,0,0,0c0,0,0-0.1,0-0.1
				c0,0,0,0,0-0.1c0,0,0,0,0,0c0,0,0,0,0,0c0,0,0,0,0,0C421.5,414.6,409.9,371.9,400.6,337.6z M326.2,304.1c0.5,0.6,1.2,1.2,2,1.6
				c5.5,3.1,15.7,1.8,23.4-0.5c1.7-0.5,3.2-0.9,4.8-1.3c0,0,0,0,0,0c0,0,0.1,0,0.1,0c8.1-2.1,13.9-2.1,19.1,3.9
				c5.2,5.9,13.6,36.5,17.6,52.3c-4.4-7.6-11.3-17.8-17.7-19.8c-9-2.9-17.9,1.7-31.4,8.7c-1.2,0.6-2.3,1.2-3.6,1.8
				c-15.5,8-20.4,8.3-21.7,7.1C318.1,354.6,322.7,325.2,326.2,304.1z M370.7,390.3c-6.9-0.5-22.3,13.2-37.2,26.5
				c-9.5,8.5-20.2,18-23,18c0,0,0,0-0.1,0c-0.5,0-0.9-0.2-1.2-0.6c-1.5-2.2-0.3-8.6,1.3-14.3c0.2-0.5,1.2-2.8,3.7-2.8
				c1,0,2.3,1,3.1,1.8c0.4,0.5,0.7,1.1,1.2,1.5c0.8,0.7,2,0.6,3,0.1c0.9-0.5,1.6-1.3,2.3-2.1c2.4-3,4.8-5.9,7.2-8.9
				c0.8-0.9,1.6-1.9,2.7-2.4c1.8-0.8,3.9-0.2,5.9-0.4c2.6-0.3,4.8-2.1,6.2-4.3c1.5-2.1,2.3-4.6,3.3-7.1c2.9-7.4,3.1-12.8,11.3-19.4
				c8-5.6,15.2-9.1,19.1-7.7c9.6,3.5,28,38.3,33.1,63C403.7,412.6,381.7,391.1,370.7,390.3z M380.5,365.8
				c-10.2-3.7-34.4,17.1-56.8,37.9c-2.4,2.2-4.2,3.9-5.2,4.8c-3.8,3.2-7.1,4.7-8.8,3.8c-1.5-0.7-2.3-3.3-2.1-7.4
				c0.2-6.3,4.1-19.1,7.5-29.4c0,0.4,0.6,5.2,5.2,3.9c2.7-0.8,5.7-4.4,8.7-7.3c0.8-0.8,2.5-2.6,3.7-2.6c1.6,0.1,2.2,2.1,2.3,3.7
				c0.1,1.5,0,3-0.2,4.6c-0.1,1.2-0.2,2.6,0.7,3.3c0.8,0.6,2,0.3,3-0.1c2.4-1,4.4-2.8,5.8-5c1.3-2,2.1-4.2,2.8-6.3
				c7.6-22,15.6-26.7,20.8-27.8c2.4-0.3,4.8-0.1,7,0.6c9.2,3,20.8,27.1,21,27.4c0.9,1.5,6.4,12.4,11.1,26.4c2.7,8,5.6,18.5,6.8,29
				C407.5,401,390.9,369.6,380.5,365.8z"/>
		</g>
	</g>
</g>
</svg>
