<?xml version="1.0" encoding="utf-8"?>
<!-- Generator: Adobe Illustrator 21.0.0, SVG Export Plug-In . SVG Version: 6.00 Build 0)  -->
<svg version="1.1" baseProfile="tiny" id="Layer_6" xmlns="http://www.w3.org/2000/svg" xmlns:xlink="http://www.w3.org/1999/xlink"
	 x="0px" y="0px" viewBox="0 0 2000 2000" xml:space="preserve">
<path fill="#FECE2F" d="M322.9,809.1c271.4-274.5,268.3-411.5,545.5-451.5c291-42,820.5,398.7,896,804c80,429.6-370.1,579.4-804,572
	C112.5,1719.1,24.9,1110.4,322.9,809.1z"/>
<g>
	<path fill="#FECE2F" d="M1307.4,361c0,0-6.7,27-5.3,56.3c1.3,29.3,2,40,5.3,43.7c3.3,3.7,44.3,16,42.7,17c-1.7,1-32,36.3-76,35.7
		c-44-0.7-96.7-32.3-99-96l31,11.7l16-50c0,0-16.7-8.7-19-30.3c-2.3-21.7-15.2-19.2-15.6-22.9c-0.8-6.9,10-18.4,16.2-27.8l20-39.3
		l22.3-6.7l44.7,13.7l16.7,18.3l9,17l-3.3,33.3L1307.4,361z"/>
</g>
<g>
	<path fill="#FECE2F" d="M1012.9,326.6L910.4,239c0,0-74-62.7-118.7-82c-44.7-19.3-80.3-36.8-131.8-30.3s-48.5,19.5-48.5,19.5
		l-26.5,53.5l26.5,54c0,0,9-9.5,8.5-19s-13-28.5-13-28.5l19.5-27c0,0,3.5,13.5,2,18.5s-11.2,31.2-6.7,37c4.5,5.8,11.5-1.3,17-8.2
		c5.5-6.8,24.3-44.2,28.5-43.8c4.2,0.3,29.7,4.2,67.2,22.5s56.8,39.2,56.8,39.2l67.2,91.5l49,71.8c0,0,48.8,55.2,77.5,72.2
		c0,0,24.2-33.8,30.5-79.2S1012.9,326.6,1012.9,326.6z"/>
</g>
<g>
	<path fill="#FECE2F" d="M611.4,144.1l-61.8,16.8c0,0-0.8,9.5,8.2,11.8l-22,14c0,0,4.2,8.2,13.2,7s21-6.5,19.2-6s-23.5,24-23.5,24
		s3.8,5.5,16.2,1s33.5-24,33.5-24L611.4,144.1z"/>
</g>
<g>
	<path fill="#FECE2F" d="M1335.4,909.6l29,106.7l98.7,336c0,0,60,167.3,80,212s69.3,156,69.3,156l-96.7,28.7c0,0-74-102.7-123.3-186
		c-49.3-83.3-116-201.3-136.7-268.7l2,62.7c0,0,7.3,284.7,32.7,394.7l-24-2.7l-82-9.8c0,0-33.3-90.2-46.7-136.8
		c-13.3-46.7-62.7-212-79.3-288s-38-247.3-38-247.3s-6.7-98-10.7-163.3s0.7-83,0.7-83L1335.4,909.6z"/>
</g>
<g>
	<path fill="#FFFFFF" d="M1122.2,1480.3c-2.7-9.7-4-19.6-3.9-29.7c0.1-4.6,0.5-8.5,1.5-9.6c9.3-10.2,17.4,14.7,23.4,21.7
		c9.4,11,23.2,17.7,28.5,0.8c5.2-16.8-23-52.1-43.8-77.3c-0.7-0.8-1.3-1.6-2-2.4c-26.7-33.1-44.5-72.4-52-114.3
		c-3.4-19.2-6.6-38.7-9.5-58.4c-42.5-287.5-22-365.5-22-365.5l-33-24c0,0,11,245.3,31,400c20,154.7,143,517,143,517l27,3
		C1210.4,1741.6,1165.2,1635.4,1122.2,1480.3z"/>
</g>
<g>
	<path fill="#FFFFFF" d="M1350.1,478c0,0,43.3,15.2,94.8,39.2c51.5,24,89.5,44,89.5,44s-2.5,59-19,101s-68.5,88-68.5,88l-56-20.5
		l-55.5,180c0,0-72,7-157-14.5s-152.5-56.5-168-74.5l4.5-191l-86.5-95.5c0,0,50.5-21,71-81.5s21-89,13.5-126c0,0,50,37,64.5,45.5
		s50.8,29.5,97.7,45.5c0,0-0.3,71,68.8,92C1309.9,529.6,1350.1,478,1350.1,478z"/>
</g>
<g>
	<path fill="#FECE2F" d="M1483.5,709.3c-0.1-0.3-6.6-26.9-30.3-36.9c-24.4-10.4-43.6-11.6-57.6-12.6c-14.6-1-25.2-1.7-31.5-12
		c-5.9-9.7-5.7-19.4,0.5-27.3c12-15.1,47.3-23.3,85.6-10.8c54.7,17.9,76.7-3.1,77-3.3l4.2,4.3c-1,1-24.9,23.7-83,4.7
		c-35.4-11.6-68.6-4.4-79,8.8c-4.7,6-4.8,12.9-0.1,20.5c4.7,7.6,13,8.2,26.8,9.1c14.4,1,34.1,2.3,59.5,13
		c26.5,11.2,33.5,39.9,33.7,41.1L1483.5,709.3z"/>
</g>
<g>
	<path fill="#FECE2F" d="M1269.4,906.7l-5.9-1.1c0.1-0.4,6.8-38.5-15.3-64.5c-13.4-15.7-31.4-13-52.2-9.8
		c-8.2,1.3-16.7,2.6-25.4,2.8c-17.6,0.5-28.7-4.2-37.7-8c-9.2-3.9-15.8-6.7-26-3.2c-26.3,9-25.5,38.2-25.5,38.5l-6,0.2
		c0-0.3-1-34.1,29.5-44.5c12.3-4.2,20.6-0.7,30.2,3.4c8.9,3.7,18.9,7.9,35.2,7.5c8.4-0.2,16.7-1.5,24.7-2.8
		c21.7-3.3,42.1-6.5,57.7,11.8C1276.7,865.4,1269.7,905,1269.4,906.7z"/>
</g>
<g>
	<path fill="#FECE2F" d="M1012.1,769.1l-0.3-6c0.1,0,15.1-0.9,31-7.6c20.8-8.8,33.2-23.1,36.7-42.5c7-37.8-42.9-64-43.4-64.3
		l2.7-5.3c0.6,0.3,13.7,7.1,26,19.1c16.7,16.2,23.8,34,20.5,51.6c-3.9,21.2-17.9,37.5-40.5,47
		C1028.1,768.2,1012.7,769.1,1012.1,769.1z"/>
</g>
<g>
	<path fill="#FECE2F" d="M1227.6,612.1c-4.9,0-9.7-0.6-14.4-1.7c-13.7-3.5-24.7-11.7-30.8-23.3c-12.5-23.5-27.4-27.4-40.6-30.8
		c-12.4-3.2-24.1-6.3-28.4-25.3c-3.5-15.9,2.9-31.1,18.7-43.8c11.6-9.4,24-14.1,24.5-14.3l2.1,5.6c-0.5,0.2-46.8,18.2-39.5,51.2
		c3.4,15.4,12.1,17.6,24,20.8c13.7,3.6,30.7,8,44.4,33.8c11.8,22.2,41.2,26.4,61.6,17.5c8.4-3.7,34.7-18.5,21.6-56.4l5.7-2
		c11.8,34-5.1,55.3-24.8,63.9C1244.3,610.5,1235.9,612.1,1227.6,612.1z"/>
</g>
<g>
	<path fill="#FECE2F" d="M989.3,534.5c-11.5,0-23.5-6.4-34.1-18.6l4.5-4c12.1,13.8,25.8,19.3,37.5,15.2
		c11.6-4.1,19.4-17.2,20.2-34.2c1.5-31.3,14.1-35.1,44.5-44.1c4.6-1.4,9.9-2.9,15.6-4.8c7.6-2.4,12.2-6.6,14.2-12.7
		c6.9-21.5-20.7-58.9-21-59.3l4.8-3.6c1.2,1.6,29.8,40.3,21.9,64.7c-2.6,8-8.7,13.6-18.1,16.6c-5.7,1.8-11,3.4-15.7,4.8
		c-29.9,8.9-38.9,11.6-40.2,38.7c-1,19.5-10.2,34.7-24.2,39.6C996,534,992.7,534.5,989.3,534.5z"/>
</g>
<g>
	<polygon fill="#FECE2F" points="1266.4,1749 1278.9,1801.6 1202.9,1793.1 1184.4,1739.1 	"/>
</g>
<g>
	<polygon fill="#FECE2F" points="1611.6,1721.1 1630.8,1755.3 1565.6,1784 1535.6,1744.6 	"/>
</g>
<g>
	<path fill="#1A1A1A" d="M700.3,644.8c-0.3-0.1-0.6-0.1-0.9-0.1h-151c-15.4,0-28,12.6-28,28s12.6,28,28,28h151c0,0,0,0,0,0
		c0.2,0,0.4,0,0.6,0c15.4,0,27.9-12.5,27.9-27.9C728,657.4,715.6,644.9,700.3,644.8z M702.4,694.5v-43.6c11,1.2,19.5,10.5,19.5,21.8
		S713.4,693.3,702.4,694.5z"/>
	<circle fill="#FFFFFF" cx="700" cy="672.7" r="22.1"/>
</g>
<g>
	<path fill="#FECE2F" d="M1534.4,561.1c0,0,73.3,36.5,125.3,80.5s63.3,88,50.7,111.3c-12.7,23.3-63.3,47.3-63.3,47.3
		s-64.7,23.3-90,27.3c-25.3,4-161.3,23.3-161.3,23.3l-37.3,10.7c0,0-32.3,20-34,16s27-29.7,27-29.7s-46.3,18.7-48,16
		c-1.7-2.7-2-5.7-2-5.7s-9,3.3-9.7,0.7c-0.7-2.7,7-14,20-26s20.7-20.7,20.7-20.7s-43.7,10.3-44.3,6c-0.7-4.3,44.7-24,62-28.3
		l41.3,8.7l124.3-58.7l-37.2-13.2c0,0,37.7-52.3,45.7-88.7C1532.1,601.6,1534.4,561.1,1534.4,561.1z"/>
</g>
<g>
	<path fill="#FFFFFF" d="M1659.8,641.6c-21.2-17.9-45.9-34.6-67.8-48.1c4.9,21.4,24.2,53.5,52.6,84.7c24.6,27.1,50.5,47.4,70.6,56.8
		C1716.2,710.5,1700.4,676.1,1659.8,641.6z"/>
</g>
<g>
	<path fill="#1A1A1A" d="M1222.7,999.7l-43.4-3.1c-7-0.5-12.3-6.6-11.8-13.6l0,0c0.5-7,6.6-12.3,13.6-11.8l43.4,3.1
		c7,0.5,12.3,6.6,11.8,13.6v0C1235.8,994.8,1229.7,1000.2,1222.7,999.7z"/>
</g>
<g>
	<path fill="#1A1A1A" d="M1276.8,1136.8l-52.8-41.2c-5.5-4.3-6.5-12.4-2.2-17.9l0,0c4.3-5.5,12.4-6.5,17.9-2.2l52.8,41.2
		c5.5,4.3,6.5,12.4,2.2,17.9l0,0C1290.3,1140.1,1282.3,1141.1,1276.8,1136.8z"/>
</g>
<g>
	<circle fill="#FFFFFF" cx="1084.7" cy="1069.9" r="21.2"/>
</g>
<g>
	
		<path fill="none" stroke="#1A1A1A" stroke-width="6.1055" stroke-linecap="round" stroke-linejoin="round" stroke-miterlimit="10" d="
		M692.7,266.3"/>
</g>
<path fill="#1A1A1A" d="M810.4,475.9c0-0.3,0-0.5,0-0.8c0-0.2,0-0.3-0.1-0.5c-2.7-97.8-78-177.8-173.9-187.8
	c10.9-6.4,18.3-18.3,18.3-31.9c0-11.5-5.2-22.2-14.4-29.3c-1.3-1-3.2-0.8-4.2,0.5c-1,1.3-0.8,3.2,0.5,4.2
	c7.7,5.9,12.1,14.9,12.1,24.5c0,16.2-12.6,29.6-28.5,30.9c-1.4,0-2.7-0.1-4.1-0.1c-0.5,0-0.9,0-1.4,0c-15.7-1.5-28-14.8-28-30.9
	c0-17.1,13.9-31,31-31c1.7,0,3-1.3,3-3s-1.3-3-3-3c-20.4,0-37,16.6-37,37c0,13.4,7.2,25.1,17.8,31.6
	c-97.1,8.7-173.8,89.2-176.6,187.8c-0.1,0.2-0.1,0.5-0.1,0.7c0,0.4,0,0.8,0.1,1.2c0,1.2,0,2.5,0,3.7v135.6H270.4c-1.7,0-3,1.3-3,3
	v180c0,1.7,1.3,3,3,3h151.5v120.2c0,0.1,0,0.2,0,0.3s0,0.2,0,0.3v0.9c0,0.3,0,0.5,0.1,0.8c1.3,10,12.9,23.6,58.2,34.9
	c36.4,9.1,84.6,14.1,136,14.1s99.6-5,136-14.1c44.9-11.2,56.7-24.7,58.1-34.7c0.1-0.3,0.2-0.6,0.2-1V480
	C810.4,478.7,810.4,477.3,810.4,475.9z M804.4,475.7c-0.6,11.5-22.5,23.5-59.9,32v-42.9c0-68.7-33.8-132-89-168.9
	C739.1,313.7,802.3,387.3,804.4,475.7z M616.9,301v219.1c-0.3,0-0.5,0-0.8,0c-10.6,0-20.8-0.2-30.7-0.6v-55.1
	C585.5,398.1,597.4,337,616.9,301z M373.4,621.6v174h-48v-174H373.4z M273.4,621.6h46v174h-46V621.6z M379.4,795.6v-174h42.5v174
	H379.4z M498.4,881.3c-6.3,1.2-12.4,2.6-18.2,4c-29.8,7.5-45,15.9-52.3,23.6V800.3c0.3-0.5,0.5-1,0.5-1.6v-22h6c1.7,0,3-1.3,3-3
	v-45.3c0-1.7-1.3-3-3-3h-6v-36h6c1.7,0,3-1.3,3-3V641c0-1.7-1.3-3-3-3h-6v-19.3c0-0.6-0.2-1.2-0.5-1.6V488.3
	c7.3,7.7,22.5,16.2,52.3,23.6c5.8,1.4,11.8,2.8,18.2,4V881.3z M498.4,509.9c-43.2-8.5-69-21.3-70.4-33.8
	c1.9-93.1,71.8-169.9,161.9-182.5c-56.8,36.6-91.5,100.9-91.5,170.7V509.9z M579.4,872.1c-27,1.3-52.5,4.1-74.9,8.1V517.1
	c22.4,4,47.9,6.8,74.9,8.1V872.1z M579.4,519.2c-28.3-1.3-53.5-4.2-74.9-8.1v-46.8c0-71.8,37.9-137.6,98.9-171.7
	c0.2-0.1,0.4-0.3,0.6-0.4c3.5-0.2,7.1-0.4,10.6-0.4c0.2,0,0.3,0,0.5,0c-22.1,36-35.7,101.4-35.7,172.5V519.2z M668.9,873
	c-16.9-1.2-34.6-1.8-52.7-1.8c-10.4,0-20.6,0.2-30.7,0.6V525.5c10.1,0.4,20.3,0.6,30.7,0.6c0.3,0,0.5,0,0.8,0v121.6c0,1.7,1.3,3,3,3
	s3-1.3,3-3V526c15.7-0.1,31.1-0.7,45.9-1.8V873z M668.9,518.3c-14.4,1-29.8,1.6-45.9,1.8V291.9c3.2,0.1,6.3,0.3,9.5,0.6
	c22.5,34.4,36.5,100.1,36.5,171.8V518.3z M738.4,882.2c-18.9-3.9-40.4-6.9-63.4-8.7V523.8c23-1.8,44.5-4.8,63.4-8.7V882.2z
	 M738.4,509c-18.1,3.8-39.4,6.9-63.4,8.8v-53.5c0-69.7-13.1-134-34.5-170.4c60.4,34.3,97.9,99.6,97.9,170.9V509z M804.4,909
	c-7.3-7.7-22.5-16.2-52.3-23.7c-2.5-0.6-5-1.2-7.6-1.8V513.8c2.6-0.6,5.2-1.2,7.6-1.8c29.8-7.5,45-15.9,52.3-23.7V909z"/>
<g>
	<path fill="#FFFFFF" d="M321.1,914.8c0,0,6.8,32.2-1.5,47.6c-8.3,15.4-23.1,14.8-28.5,9.9c-6.6-6-6.5-18.9,3.9-22.8
		C306.7,945.1,319.8,946.5,321.1,914.8z"/>
	<path fill="#1A1A1A" d="M300.3,978.4c-4.4,0-8.5-1.4-11.2-3.9c-4.3-3.9-6.3-10.2-5.2-16c1-5.5,4.7-9.8,10-11.8
		c1.8-0.7,3.6-1.2,5.4-1.8c9.5-2.9,17.8-5.4,18.8-30.2c0.1-1.5,1.2-2.7,2.7-2.9c1.5-0.1,2.9,0.9,3.2,2.4c0.3,1.4,6.9,33.4-1.8,49.6
		c-4.2,7.9-10.7,13-18.3,14.3C302.7,978.3,301.5,978.4,300.3,978.4z M320.6,934.9c-4.5,11.3-12.3,13.7-19.5,15.8
		c-1.7,0.5-3.4,1-5,1.6c-3.4,1.3-5.6,3.9-6.3,7.3c-0.7,3.8,0.6,8,3.3,10.5c1.7,1.6,5.4,2.8,9.8,2.1c5.7-1,10.7-4.9,14-11.2
		C320.5,954.3,321,944,320.6,934.9z"/>
</g>
<g>
	<path fill="#FFFFFF" d="M474.7,1035.1c0,0-6,28.5,1.3,42.1c7.3,13.6,20.5,13.1,25.2,8.8c5.8-5.3,5.7-16.7-3.5-20.2
		C487.4,1061.9,475.8,1063.1,474.7,1035.1z"/>
	<path fill="#1A1A1A" d="M493.1,1091.7c-1.1,0-2.2-0.1-3.3-0.3c-6.8-1.2-12.6-5.7-16.4-12.8c-7.8-14.4-1.9-43-1.6-44.2
		c0.3-1.5,1.7-2.5,3.2-2.4c1.5,0.1,2.7,1.4,2.7,2.9c0.9,21.8,7.7,23.9,16.4,26.5c1.6,0.5,3.2,1,4.8,1.6c4.8,1.8,8.1,5.7,9.1,10.7
		c1,5.3-0.8,11-4.7,14.5C500.8,1090.5,497.1,1091.7,493.1,1091.7z M475.4,1054.4c-0.3,7.6,0.3,15.9,3.2,21.4
		c2.9,5.4,7.2,8.9,12.2,9.7c3.8,0.6,6.9-0.4,8.4-1.7c2.3-2.1,3.5-5.7,2.8-9c-0.4-2.1-1.6-4.8-5.3-6.2c-1.4-0.5-2.8-1-4.4-1.4
		C486.2,1065.3,479.5,1063.3,475.4,1054.4z"/>
</g>
<g>
	<path fill="#1A1A1A" d="M1236.4,1716.7c-1.4,0-2.7-1-2.9-2.4c-32.7-161.8-59.8-463.8-60-466.8c-0.1-1.7,1.1-3.1,2.7-3.3
		c1.6-0.1,3.1,1.1,3.3,2.7c0.3,3,27.4,304.7,59.9,466.1c0.3,1.6-0.7,3.2-2.3,3.5C1236.8,1716.7,1236.6,1716.7,1236.4,1716.7z"/>
</g>
<g>
	<path fill="#1A1A1A" d="M1543.9,1626.7c-1,0-1.9-0.5-2.5-1.3c-27.2-40.5-57.7-101.2-90.6-180.4c-0.6-1.5,0.1-3.3,1.6-3.9
		c1.5-0.6,3.3,0.1,3.9,1.6c32.8,78.8,63.1,139.1,90,179.3c0.9,1.4,0.6,3.2-0.8,4.2C1545,1626.6,1544.5,1626.7,1543.9,1626.7z"/>
</g>
<g>
	<path fill="#1A1A1A" d="M1402,1313.1c-1.2,0-2.4-0.8-2.8-2c-44.7-124-76.8-232.9-77.1-234c-0.5-1.6,0.4-3.3,2-3.7
		c1.6-0.5,3.3,0.4,3.7,2c0.3,1.1,32.3,109.8,77,233.6c0.6,1.6-0.2,3.3-1.8,3.8C1402.6,1313,1402.3,1313.1,1402,1313.1z"/>
</g>
<ellipse transform="matrix(0.9853 -0.1707 0.1707 0.9853 -34.062 214.584)" fill="#FFFFFF" cx="1230.9" cy="305.4" rx="16.4" ry="7.3"/>
<path fill="#1A1A1A" d="M1250,302.1c-0.3-1.8-1.8-5.1-7.8-6.6c-3.7-0.9-8.3-1-13-0.2c-4.7,0.8-9,2.4-12.2,4.5
	c-5.2,3.5-5.4,7.1-5.1,8.9c0.3,1.8,1.8,5.1,7.8,6.6c2,0.5,4.2,0.7,6.6,0.7c2.1,0,4.2-0.2,6.4-0.6c4.7-0.8,9-2.4,12.2-4.5
	C1250.1,307.5,1250.3,303.9,1250,302.1z M1244.1,303.1c0.1,0.3-0.5,1.5-2.6,2.9c-2.3,1.6-5.7,2.8-9.3,3.5c1.2-1.3,1.7-2.6,1.5-3.9
	c-0.3-1.9-2.2-3.3-5.1-4.1c0.5-0.1,1-0.2,1.6-0.3c1.8-0.3,3.7-0.5,5.4-0.5c1.9,0,3.6,0.2,5.1,0.6
	C1243.1,301.9,1244,302.8,1244.1,303.1L1244.1,303.1z"/>
<g>
	<path fill="#1A1A1A" d="M1246.7,292.5c-0.1,0-0.1,0-0.2,0c-12.1-0.7-20.4-10.3-20.8-10.7c-1.1-1.3-0.9-3.2,0.3-4.2
		c1.3-1.1,3.1-0.9,4.2,0.3l0,0c0.1,0.1,7,8,16.6,8.6c1.7,0.1,2.9,1.5,2.8,3.2C1249.6,291.2,1248.3,292.5,1246.7,292.5z"/>
</g>
<path fill="#1A1A1A" d="M1236.1,345.3c-1-2.1-2.7-4.1-4.9-5.7c-2.2-1.6-4.7-2.7-7-2.9c-2.7-0.3-5,0.5-6.3,2.2
	c-1.3,1.8-1.3,4.2-0.2,6.7c1,2.1,2.7,4.1,4.9,5.7c2.8,2,5.7,3,8.2,3c2.2,0,4-0.8,5.1-2.3C1237.2,350.3,1237.3,347.8,1236.1,345.3z"
	/>
<g>
	<path fill="#1A1A1A" d="M1377.4,1888.6h-313.5c-1.7,0-3-1.3-3-3s1.3-3,3-3h313.5c1.7,0,3,1.3,3,3S1379,1888.6,1377.4,1888.6z"/>
</g>
<g>
	<path fill="#1A1A1A" d="M1021.9,1888.6h-51c-1.7,0-3-1.3-3-3s1.3-3,3-3h51c1.7,0,3,1.3,3,3S1023.6,1888.6,1021.9,1888.6z"/>
</g>
<g>
	<path fill="#1A1A1A" d="M934.9,1888.6h-16.5c-1.7,0-3-1.3-3-3s1.3-3,3-3h16.5c1.7,0,3,1.3,3,3S936.6,1888.6,934.9,1888.6z"/>
</g>
<g>
	<path fill="#1A1A1A" d="M1750.9,1888.6h-280.4c-1.7,0-3-1.3-3-3s1.3-3,3-3h280.4c1.7,0,3,1.3,3,3S1752.5,1888.6,1750.9,1888.6z"/>
</g>
<g>
	<path fill="#FECE2F" d="M1174.2,766.5c-5.4,0-11.6-1.7-19.1-6c-13.6-7.8-20.8-19.4-19.7-31.9c1.1-12.7,10.3-23.9,23.5-28.7
		c4-1.5,7.5-2.6,10.5-3.6c15.7-5.3,19-6.4,31.7-24.1c10.8-15,25.1-17.5,35.3-16.9c18.2,1,34,12.1,39.6,22l0,0
		c8.4,14.9,5.6,25.9,1.8,32.5c-9.2,15.9-33.1,23.4-52.8,23.7c-10.9,0.2-17.4,7.9-24.3,16.1C1193.8,757.7,1186.3,766.5,1174.2,766.5z
		 M1233.8,661.2c-8.4,0-19.4,2.7-27.9,14.5c-13.8,19.2-18.2,20.7-34.6,26.2c-3,1-6.4,2.2-10.4,3.6c-10.8,3.9-18.6,13.3-19.5,23.5
		c-0.9,10.2,5,19.5,16.7,26.2c20.1,11.5,28,2.2,38-9.6c7.1-8.4,15.2-18,28.8-18.2c17.4-0.3,39.7-6.9,47.7-20.7
		c4.4-7.6,3.8-16.6-1.9-26.6l0,0c-4.9-8.6-19.2-18.1-34.7-19C1235.3,661.2,1234.6,661.2,1233.8,661.2z"/>
</g>
<g>
	<path fill="#1A1A1A" d="M1479.5,823.8c-1.2,0-2.4-0.7-2.8-1.9c-0.6-1.6,0.2-3.3,1.8-3.9c7.5-2.8,8.5-13.6,8.5-13.7
		c0.1-1.6,1.6-2.9,3.2-2.8c1.6,0.1,2.9,1.6,2.8,3.2c0,0.6-1.2,14.7-12.3,18.8C1480.2,823.8,1479.9,823.8,1479.5,823.8z"/>
</g>
<g>
	<path fill="#1A1A1A" d="M1501.8,814.5c-1.2,0-2.3-0.7-2.8-1.9c-0.6-1.5,0.2-3.3,1.7-3.9c6-2.4,4.9-10.8,4.9-11.2
		c-0.2-1.6,0.9-3.2,2.5-3.4c1.6-0.2,3.2,0.9,3.4,2.5c0,0.1,0.5,3.3-0.2,7c-1,5.2-3.9,8.9-8.4,10.6
		C1502.6,814.4,1502.2,814.5,1501.8,814.5z"/>
</g>
<path fill="#1A1A1A" d="M1684.2,661.2c-25.5-28.3-66-57.9-120.4-88.2c-83.9-46.7-174.5-82.2-223.2-101.3
	c-15-5.9-25.9-10.2-29.6-12.1c-9.3-4.8-8.2-48.3-4.4-77.6c0,0,0-0.1,0-0.1c0,0,0-0.1,0-0.1c0.5-8.4,6.3-22.8,11.5-35.5
	c2.7-6.6,5.2-12.8,7-18.3c0.6-1.9,1.3-3.7,2-5.6c5.2-14.4,10.6-29.2,1-59.8c-9.4-30-28.8-32.4-34.8-32.4c0,0,0,0,0,0
	c-26.4-30.2-46.7-38.5-67.7-27.6c-7.2,3.7-12,10.6-14,19.9c-0.9,4-1,7.7-1,10.1c-1.6,0.5-3.6,1.3-5.7,2.9c-3.8,2.9-8.3,8.9-8.9,20.9
	c-0.8,17.4,6.9,25.2,10.8,28c-1,1.9-1.9,3.8-2.6,5.4c-0.7,1.5-1.3,3-1.9,4.5c-1.8,4.5-3.5,8.7-6.6,11.9c-1.9,1.9-3.9,3.4-5.8,4.9
	c-4.2,3.2-8.6,6.5-7.3,12.8c1.2,6,7.7,8.7,12,10.5c0.9,0.4,2.1,0.9,2.5,1.1c2.3,2.7,2.8,6.7,3.4,11.7c0.8,6.7,1.7,15.1,8,23.5
	c3,4,6.5,7.3,10.1,10l-12.5,39.3c-0.8,2-1.4,3.9-2,5.9c-13.4-4.5-69.7-24-115.9-50.8c-37-21.4-95.8-70.3-147.7-113.5
	c-22-18.3-42.8-35.6-59-48.3c-50.4-39.4-122.4-82.2-169.7-88.9c-44.3-6.2-88.6,6.5-98.2,13.4l-10.6,6.1c-0.2,0-0.5,0-0.7,0.1
	L548,158.4c-1.4,0.4-2.3,1.6-2.2,3.1c0,0.3,0.4,6.8,5,10.8c0.5,0.4,1,0.8,1.5,1.1l-19,11c-1.4,0.8-1.9,2.6-1.1,4.1
	c1.8,3.3,7,8.8,14.3,8.8c1,0,2.1-0.1,3.2-0.4c2.1-0.5,4.5-1.3,6.9-2.3l-15.3,15.3c-0.6,0.6-0.9,1.4-0.9,2.2c0,0.8,0.3,1.6,0.9,2.1
	c0.2,0.2,4.6,4.2,11.3,4.2c2.5,0,5.3-0.5,8.4-2c5.7-2.7,14.2-9.5,20.6-14.9c0,0.1,0,0.1,0,0.2c0,0.9,0,1.9,14.5,28.4
	c14.9,27.4,15,27.4,17.3,27.4c3.5,0,7.4-8.1,8.9-16c1,0.4,2.1,0.5,3.2,0.3c7.7-1.3,17.6-17.3,30.7-39.7c4.1-7.1,8.8-15,10.3-16.4
	c2.3-0.5,13.2,1.4,33.7,8.8c20,7.2,41.2,16.6,58,25.9c2.5,1.4,5,3,7.7,5l25.6,24.5c31.9,35.7,69,92.3,93.9,130.4
	c2.7,4.1,5.3,8.1,7.7,11.8c11.3,17.2,25.4,33.1,39,46.5c-2,5.5-7.8,22.4-11.7,40.5c-6.6,30.3-5,49.7,4.8,57.8l33,36
	c0.1,0.3,0.3,0.6,0.5,0.8c0,0,0.1,0.1,0.1,0.1l53.4,58c-0.4,13.9-4.6,141-6,189.8c-1.7,57.6,1.4,136,8.5,215.1
	c8.7,97.2,23.1,193.9,41.6,279.6c40.6,188,123.2,420.9,124.1,423.4c0,0,0,0,0,0l27.2,76.6c-12-12.7-31.7-30.9-44.8-30.2
	c-4,0.2-7.2,2.1-9.5,5.5c-2.2,3.3-2.6,6.9-1.2,10.4c1.9,4.6,7,8.9,13.6,12.7c-0.5,0-1-0.1-1.5-0.1c-13-0.9-16.3,4.2-16.7,8.7
	c-0.3,2.9,0.7,5.5,2.9,7.5c4.3,4,13.8,5.3,23.8,5.3c6.5,0,13.3-0.5,19.1-1.2c-9.1,3.6-20.1,8-31,12.7c-15.2,6.5-27.3,12.3-36,17.1
	c-9.2,5.1-17.8,10.6-17.6,16c0.2,6.1,9.8,8.3,47.8,8.3c20.3,0,48.7-0.6,88.1-1.6c17.5-0.4,37.3-1,58.3-1.4c4.1-0.1,6.2-2,7.1-3.5
	c3.8-6.1-1.8-18-10.1-36.1c-2.8-6-6-12.8-9-19.9c-4.2-10-8-21.4-11.1-32.4c0,0,0,0,0-0.1c0-0.6-0.2-1.2-0.5-1.7
	c-1.6-5.5-2.9-10.9-4.2-15.8c0-0.2,0-0.4,0-0.6c-0.1-0.6-0.2-1.2-0.4-1.8c-1-4.5-3.3-15.4-4.5-21l19.5,2.6c0.1,0,0.3,0,0.4,0
	c0.8,0,1.6-0.3,2.2-1c0.7-0.7,0.9-1.7,0.7-2.7c-23.6-112.5-30.8-299.3-33-395l-0.7-46.3c20.2,48.3,40.4,93.5,58.1,128.3
	c5.4,10.6,11,21.2,16.8,31.8c0.1,0.3,0.2,0.6,0.4,0.9c0.3,0.5,0.7,1.1,1,1.6c75.2,138.1,177,276.6,178.1,278.1
	c0.6,0.8,1.5,1.2,2.4,1.2c0.3,0,0.6,0,0.8-0.1l15.5-4.5l45.9,58.6c-15.5-4.1-49-11.6-61.2-2.6c-3.2,2.4-4.9,5.8-4.9,9.8
	c0,3.9,1.6,7.2,4.7,9.3c3.4,2.4,8.7,3.4,14.7,3.4c1.2,0,2.4,0,3.6-0.1c-0.4,0.2-0.9,0.5-1.3,0.7c-11.4,6.4-11.3,12.5-9.3,16.4
	c1.3,2.6,3.6,4.2,6.5,4.7c0.6,0.1,1.2,0.1,1.9,0.1c12.1,0,32.9-17,42.5-25.4l-17.9,29c-3.5,0.9-14.3,3.8-25,7.6
	c-19.2,6.8-28.1,12.6-28.6,18.7c-0.1,1,0.1,2.6,1.5,4.1c1.6,1.7,5.9,6.1,46.6,6.1c1.3,0,2.5,0,3.9,0c21.4-0.1,42-1.4,42.2-1.4
	c0.6,0,1.2-0.3,1.7-0.6c0.2-0.2,20.6-16.5,40.9-33c41.7-34,42.2-35.6,42.6-37.1c0.9-3.1-2-6.1-13-17.1c-9-9-21.3-21.2-29.2-33
	c-7.1-11.2-25.5-44.3-26.5-46.1c-2-4.4-70.5-153.5-115.9-269.9l-41.2-119.5c-25.6-83.8-58.7-202.9-83.4-293.8
	c-0.4-1.7-0.9-3.4-1.4-5.2c0-0.1,0-0.1-0.1-0.1c-18.3-67.3-31.7-117.9-33.6-125l11.5-37.6c3.6-2.2,6.8-4.3,9.3-6l37.3-9.2
	c3.7-0.5,65.9-8.4,137.9-19.3c11.3-1.7,40.7-7.7,43.4-8.4c40.1-9.4,84.4-24.4,112.1-45.2c0.7-0.4,1.2-0.6,1.4-0.7
	c0.6-0.3,1-0.8,1.3-1.3c14.1-11.2,23.3-24,24.5-38.4C1720.2,715.1,1708.8,688.4,1684.2,661.2z M1154.7,1826.5
	c-0.8-0.7-1.1-1.5-1-2.5c0.1-1.1,0.6-1.7,1.6-2.3c1.5-0.8,3.7-1.1,6.3-1.1c9.5,0,24.7,4.5,34.6,8.1
	C1180,1830.6,1160,1831.3,1154.7,1826.5z M1188.8,1818.4c-23.8-8.6-29.5-15.3-30.8-18.6c-0.7-1.7-0.5-3.2,0.6-4.9
	c1.2-1.8,2.7-2.7,4.8-2.8c0.2,0,0.3,0,0.5,0c6.4,0,17.1,6.7,30.2,19c4.9,4.6,9.4,9.4,12.9,13.1
	C1201.9,1822.8,1195.5,1820.8,1188.8,1818.4z M1532.6,1842.4c-1.1-0.2-1.7-0.7-2.2-1.6c-0.5-1-0.5-1.8,0.1-2.8
	c3.9-6.9,25-13.4,38.1-16.6C1556,1832,1539.6,1843.6,1532.6,1842.4z M1556.8,1817c-24.6,5.8-33.1,3.3-36,1.3
	c-1.5-1.1-2.2-2.4-2.2-4.4c0-2.2,0.8-3.8,2.5-5c2.8-2.1,7.8-3.1,14.7-3.1c5.9,0,13,0.7,21.4,2.2c6.7,1.2,13,2.7,17.9,3.9
	C1570.1,1813.5,1563.6,1815.4,1556.8,1817z M1205.5,432.5C1205.5,432.5,1205.5,432.5,1205.5,432.5
	C1205.6,432.5,1205.6,432.5,1205.5,432.5c0.1,0,0.2,0.1,0.3,0.1c0.1,0,0.1,0,0.2,0c0.1,0,0.2,0,0.3,0c0,0,0.1,0,0.1,0
	c0.1,0,0.2,0,0.4,0c0,0,0.1,0,0.1,0c0.1,0,0.2,0,0.3-0.1c0.1,0,0.1,0,0.2,0c0.1,0,0.1-0.1,0.2-0.1c0.1,0,0.1-0.1,0.2-0.1
	c0.1,0,0.1-0.1,0.2-0.1c0.1,0,0.1-0.1,0.2-0.1c0.1,0,0.1-0.1,0.2-0.1c0.1-0.1,0.1-0.1,0.2-0.2c0,0,0.1-0.1,0.1-0.2
	c0.1-0.1,0.1-0.1,0.2-0.2c0-0.1,0.1-0.1,0.1-0.2c0-0.1,0.1-0.1,0.1-0.2c0-0.1,0.1-0.1,0.1-0.2c0-0.1,0.1-0.1,0.1-0.2l4-11.7
	c5.2-11.4,12.9-17.4,23-17.8c26.8-1.1,29-10.4,29.1-12.2c0,0,0,0,0,0c0-0.2,0-0.4,0-0.6c0,0,0,0,0,0c0-0.1,0-0.1,0-0.2
	c0-0.1-0.1-0.3-0.1-0.4c0-0.1-0.1-0.1-0.1-0.2c-0.1-0.1-0.1-0.2-0.2-0.3c0-0.1-0.1-0.2-0.2-0.2c-0.1-0.1-0.1-0.2-0.2-0.3
	c0,0,0-0.1-0.1-0.1c0,0-0.1-0.1-0.2-0.1c-0.1-0.1-0.1-0.1-0.2-0.2c-0.1-0.1-0.2-0.1-0.3-0.2c-0.1,0-0.1-0.1-0.2-0.1
	c-0.1,0-0.2-0.1-0.3-0.1c-0.1,0-0.2,0-0.3-0.1c-0.1,0-0.2,0-0.3-0.1c-0.1,0-0.2,0-0.4,0c-0.1,0-0.1,0-0.2,0c-1,0.1-2,0.1-2.9,0.2
	c-6.3,0.2-21.7-0.2-34.7-8.6c-0.2-0.2-0.5-0.4-0.9-0.6c-3.7-2.5-7.1-5.6-10-9.6c-5.3-7.1-6.1-14.3-6.9-20.6c-0.6-5.7-1.3-11-5-15.1
	c-0.9-1-2.4-1.6-4.6-2.6c-3.1-1.3-7.9-3.3-8.5-6.1c-0.5-2.4,0.8-3.6,5.1-6.8c2-1.5,4.3-3.2,6.5-5.5c4-4.1,6-9.1,7.9-13.9
	c0.6-1.4,1.1-2.9,1.8-4.3c3-6.7,8.9-17.5,18.4-24.6c5.6,10.4,18,12.4,28.2,14c6.2,1,12,1.9,14.7,4.4c4.7,4.3,5,11.9,5.3,18.5
	c0.2,4.6,0.3,8.5,1.8,11.4c1,2,2.5,2.6,3.5,2.8c2.9,0.5,5.3-1.8,8.4-4.7c4.7-4.5,8.7-7.7,12.8-6c1.7,0.7,4.1,2.7,4.9,5.8
	c1,3.5-0.1,7.5-3.2,11.6c-6.9,9.4-15.3,7.7-15.6,7.6c-1.6-0.4-3.1,0.5-3.6,2.1c-0.2,0.5-3.7,12.9,0.2,31.2
	c2.9,13.6,10.1,17.1,14.7,17.9c-0.7,6.1-2.1,20.1-2.4,34.5c-0.9,40.2,7.6,44.6,10.4,46.1c3.9,2.1,14.4,6.1,30.1,12.3
	c1.9,0.8,3.9,1.5,6,2.4c-18.2,19.7-43.8,31-70.8,31c-50.3,0-91.7-38.3-96-87.9C1194.3,428.9,1205.3,432.4,1205.5,432.5z
	 M1146.8,410.3c8.9,3.8,17.3,7.1,24.8,10c3.1,54.1,47.8,96.3,102.1,96.3c29.4,0,57.3-12.6,76.7-34.6c7.4,2.9,15.4,6.1,24.1,9.6
	c-24,31.2-61.4,49.7-100.8,49.7c-70,0-127-57-127-127C1146.8,413,1146.8,411.7,1146.8,410.3z M552.2,163.5l31.6-8.3l-24.5,14.1
	c-1.9,0-3.3-0.5-4.5-1.6C553.4,166.6,552.6,164.9,552.2,163.5z M548.5,191c-4.3,0.9-7.4-1.3-9.3-3.2l21.8-12.6
	c0.8-0.1,1.4-0.5,1.9-1.1l34-19.6l-25.2,25.1C568.7,181.5,556.1,189.4,548.5,191z M558.5,210.9c-4.4,2.1-8,1.5-10.2,0.5l27.3-27.2
	c0.1-0.1,0.2-0.1,0.2-0.1c0.4-0.3,0.7-0.6,0.9-1l22.9-22.8c-5,9.9-9.9,21-13.4,29.2C584.4,191.2,567.2,206.7,558.5,210.9z
	 M622.3,208c-1.4,4.1-2.9,8.5-4,12.6c-3-6.3-6.7-12.2-8.6-15c5.7-8.9,11.9-18.1,15.3-22.7c0.3,2.6,0.5,6.4,0.7,9.4l0.1,2.3
	C626.1,197.1,624.2,202.6,622.3,208z M898.3,388.7c-2.4-3.7-5-7.6-7.7-11.7c-10.4-15.8-22.8-34.8-36.2-54.3c0-0.5,0-1-0.2-1.5
	c-5.1-11.2-6.1-19.6-2.9-24.3c2.6-3.9,8.4-5.6,17.1-5.2c6.9,0.3,12.5-2.5,15.3-7.8c2.6-4.8,2.5-11.1-0.3-14.9
	c-4.9-6.8-23.6-13.2-43.4-19.9c-4.5-1.5-9.2-3.1-13.5-4.7c-29.6-10.5-59.8-26.7-60.1-26.8c-0.5-0.3-1-0.4-1.6-0.4
	c-1.2-0.8-2.4-1.5-3.6-2.1c-17.6-9.7-39.6-19.5-60.3-26.8c-21.2-7.5-33.7-10.1-37.4-7.8c-2.2,1.4-5,5.9-12.4,18.5
	c-4.9,8.4-10.4,17.8-15.6,25.3c-7.5,10.7-10.4,11.5-10.9,11.6c-4.2-3.7,0.4-17.1,3.4-25.9c2.2-6.5,4.1-12,3.9-15.7l-0.1-2.3
	c-0.6-10.1-0.9-14.7-3.4-16.6c-0.9-0.7-2-0.9-3.1-0.7c-1.3,0.3-3.5,0.8-21.6,29.3c0,0,0,0,0,0c-0.1,0.2-0.2,0.3-0.3,0.5
	c0,0.1-0.1,0.2-0.1,0.3c0,0.1,0,0.1-0.1,0.2c0,0.1,0,0.2,0,0.3c0,0.1,0,0.2,0,0.2c0,0.1,0,0.2,0,0.3c0,0.1,0,0.2,0,0.3
	c0,0.1,0.1,0.2,0.1,0.3c0,0.1,0,0.2,0.1,0.2c0.1,0.2,0.2,0.4,0.3,0.5c0,0,0,0,0,0c3.9,5.7,14,22,13.2,29.8c-0.5,5.4-2,9.5-3.3,12
	c-6.1-10.6-23.2-42-25.8-47.6c2.4-6.9,20.3-47.9,27.9-57.2l1.6-1.6c7.1-5.1,49.2-18.6,93.9-12.3c32.2,4.5,98.2,33.9,166.8,87.6
	c16.1,12.6,36.9,29.9,58.9,48.2c24,20,49.5,41.1,73.6,60.3c0,0,0,0.1,0,0.1c0,0.1,4.1,12.3,4.6,33.3c0.4,19.4-2.3,50.5-17.5,88.6
	c-4.1,10.1-8.4,19-12.7,26.8c-6.7-4.9-26.1-19.3-46.6-39.3c-0.2-0.4-0.6-0.7-1-1C923.7,421.7,909.6,405.8,898.3,388.7z M1273,1790.9
	l-68.2-1.2l-16.9-47.4l48.1,6.3c0.2,0.1,0.4,0.2,0.6,0.2c0.3,0.1,25.4,5.9,31.9,24.3C1269.7,1778.4,1271.2,1784.5,1273,1790.9z
	 M1625.5,1750.9l-58.8,30.8l-15.7-20c-0.1-0.3-0.2-0.7-0.4-1c-1.6-2.3-2.2-4.7-1.6-7.2c1.3-6.1,8.7-11.7,11.9-13.7l50.1-14.6
	C1613.5,1729.7,1619.6,1740.6,1625.5,1750.9z M1377.2,1069.4c21.9,80,48.4,174.7,70.4,247.7c-0.2,0.6-0.2,1.3,0,1.9l0,0.1
	c0.2,0.5,1.7,5.2,1.6,10.7c-0.1,7.3-3.1,12.4-8.8,15.2c-2.9,1.4-10.4-0.6-17.6-2.5c-13-3.5-29.2-7.8-37.1,2.7
	c-2.9,3.8-3.8,8.2-2.8,13.1c3.7,17.6,32.1,36,48.7,45.3c42.4,24,66.4,61.6,66.6,62c0.2,0.4,0.6,0.7,0.9,0.9
	c41.9,105.8,99.3,231.8,109.1,253.3l-49.1,14.3c-0.1,0-0.2,0-0.3,0.1l-5.4,1.6l-35.9,10.5c-6.6-9-38.3-52.7-77.2-112
	c-0.1-0.3-0.1-0.7-0.3-1c-13.4-24.9-8.7-37.6-3.9-41.2c5-3.7,18,0.9,29.5,4.9c15.1,5.3,29.4,10.3,36.4,2.7c3.7-4,5.2-8.4,4.4-13
	c-2.6-15.7-31.1-31.4-70.5-53.1l-3.7-2c-39.5-21.7-86.2-58.3-92.4-63.2c-5.8-10.7-11.5-21.4-16.9-32.1
	c-21.6-42.3-46.7-100.1-71.3-160.2l-110.6-289.5c0-0.1-0.1-0.2-0.2-0.3c0-0.1-0.1-0.2-0.1-0.3c-0.1-0.1-0.2-0.2-0.3-0.3
	c-0.1-0.1-0.1-0.2-0.2-0.2c-0.1-0.1-0.2-0.2-0.4-0.3c-0.1,0-0.1-0.1-0.2-0.1c-0.2-0.1-0.4-0.2-0.7-0.3l-58-16
	c-0.2-0.1-0.4-0.1-0.6-0.1c-0.1,0-0.1,0-0.2,0c-0.2,0-0.3,0-0.5,0c-0.1,0-0.1,0-0.2,0.1c-0.1,0-0.3,0.1-0.4,0.1
	c-0.1,0-0.2,0.1-0.2,0.1c-0.1,0.1-0.2,0.1-0.3,0.2c0,0-0.1,0-0.1,0.1c0,0-0.1,0.1-0.1,0.1c-0.1,0.1-0.2,0.2-0.3,0.3
	c-0.1,0.1-0.1,0.1-0.2,0.2c-0.1,0.1-0.2,0.2-0.2,0.3c0,0.1-0.1,0.1-0.1,0.2c-0.1,0.1-0.1,0.2-0.2,0.4c0,0.1-0.1,0.2-0.1,0.2
	c0,0,0,0,0,0c0,0.1-0.1,0.3-0.1,0.4c0,0,0,0.1,0,0.1c0,0,0,0,0,0c0,0,0,0,0,0c-0.1,1.4-1.8,28.7,16.3,45.7
	c15.7,14.8,32,32.6,34.4,52.8c0.8,6.5-0.2,15.7-1.4,26.4c-2.8,25.5-6.2,57.3,11.3,79.2c6.3,7.8,13.2,15.5,20,22.9
	c19.5,21.4,37.9,41.6,39.4,64.8c0.3,4.7,0.3,10.6,0.3,17.4c-0.1,39.7-0.2,106.2,58.8,147.5c3.7,98.8,12,231.9,30.1,321.2l-101-13.2
	c-7.7-21.7-84.6-241.8-123.3-420.9c-18.5-85.5-32.8-182-41.4-278.9c-6.8-75.9-9.9-151-8.7-207.6c9.4,8.5,32.5,27.1,72.4,47.2
	c35,17.6,88.2,38.7,161.4,52.9c3.5,14.2,9.5,33.4,19.3,53.1c11.3,22.9,25.3,41.7,41.6,56c11,9.6,23.1,17.1,36.1,22.6
	c0.2,0.1,0.5,0.3,0.8,0.3c0,0,0.1,0,0.1,0C1354.4,1064.9,1365.5,1067.8,1377.2,1069.4z M1342.6,941.6c6,22.5,14.7,54.7,24.8,91.9
	c0.8,4,1.7,14.6-3.6,19.6c-3.1,2.9-8,3.8-14.7,2.5l-3.2-0.8c-12.6-5.2-24.2-12.4-34.8-21.7c-15.7-13.7-29.3-31.9-40.2-54
	c-8.9-18-14.6-35.7-18.2-49.4C1279.9,934.9,1309.9,939,1342.6,941.6z M1334.2,903.7c-108.3,4.7-190.1-18.3-239.7-38.5
	c-48.2-19.7-76.2-40.5-82-45c0.9-29.3,2.6-84.6,4-127.9c0.6-0.5,0.9-1.2,1-2c1.6-29.4,24.2-42.1,42.3-52.2c3.3-1.9,6.4-3.6,9.3-5.4
	c1.2-0.7,2.5-1.5,3.8-2.3c13.9-8.5,32.8-20.1,36-35.4c1.3-6.5-0.3-13.1-4.9-19.6c-15.2-21.5-40.8-8.7-53.1-2.6
	c-2.2,1.1-4.6,2.3-5.3,2.4c-6.2,1.1-10.1-0.9-14.7-3.2c-4.2-2.2-9-4.6-15.9-4.4c-4.8,0.2-9.6,2.1-15.3,4.3
	c-4.4,1.7-9.4,3.7-15.4,5.3c-8.2,2.2-15.7-3-19-5.9L932.8,536c12.2-4.8,45.6-23.2,70.5-85.3c23.4-58.6,18.7-101.2,15.1-118.1
	c25.3,19.8,48.8,37,67.1,47.6c18,10.4,37.6,19.8,55.5,27.6c-0.1,2.2-0.2,4.3-0.2,6.5c0,73.3,59.7,133,133,133
	c41.8,0,81.5-19.9,106.6-53.4c7.8,3.1,16,6.5,24.5,10.1c0.2,0.2,0.4,0.3,0.7,0.4l0.3,0.1c0.8,0.4,3.9,2.1,4.9,5.6
	c1,3.6-0.4,8.2-4.1,13.5c-1.4,1.9-5.8,5.9-10.9,10.5c-15.1,13.6-35.8,32.2-33.6,46c1.1,6.8,4.9,11.9,10.7,14.4
	c2.6,1.1,5.6,1.7,8.7,1.7c7.4,0,15.8-3,23.9-8.7c5.5-3.9,10.7-8.2,15.2-12c10.1-8.5,18-15.1,24.6-13.2c5.8,1.7,16.8,3,28.3,1.1
	c12.7-2,22.7-7.3,29.1-15.4c9.5,4.7,19.1,9.5,28.6,14.4c-0.6,9.6-5.5,74.3-27.1,114.4c-23.8,44.2-51.2,64.8-57.9,69.3
	c-0.1-0.1-0.3-0.2-0.5-0.2l-1.6-0.6c-4-1.6-14.6-7-15.7-17.9c-0.2-1.7,0.1-3.5,0.5-5.5c0.9-5.2,1.9-11.7-4.3-18.7
	c-11.6-13.1-34.9-2.1-53.9,9c-24.9,14.5-47.8,30.4-46.8,48.1c0.5,8.2,4.3,12.2,7.5,14.1c2.9,1.7,6.4,2.4,9.9,2.4
	c5.4,0,11-1.6,15.2-3.6c4-1.9,15.9-7.4,18.9-4.6l-6.7,21.9c-8.5-2.6-16.1-4.6-18.9-4.4c-6.7,0.3-59.4,21.6-66.5,30
	c-1,1.2-1.4,2.4-1.3,3.6c0.1,1.2,0.8,2.2,1.8,2.9c1,0.7,2.7,1.3,6.1,1.3c4,0,10.4-0.7,21.2-2.9c4-0.8,7.9-1.6,11.3-2.4
	c-3.4,3.1-7.1,6.6-10.7,10c-25.9,24.7-26.1,29-23.8,32.1c1.3,1.7,3.1,2.7,5.2,2.9c1.8,0.1,3.6-0.3,5.3-1.1c0.2,0.7,0.5,1.5,0.9,2.3
	c2.5,5.4,11.8,2.3,39.8-10.3c-16.5,13.9-21.9,20-19.4,24.5c0.6,1.1,1.7,1.9,3,2.2c0.4,0.1,0.8,0.1,1.3,0.1c4.3,0,11.8-3.6,19.3-7.8
	L1334.2,903.7z M1473.1,730.7l31.6,11.4c-28.2,13.8-84.2,39.3-117.6,54.3c-3.8-1.3-8.2-2.7-12.5-4.1l18.3-59.6l52.5,19.9
	c0.9,0.3,1.8,0.2,2.6-0.2C1448.7,751.8,1459.2,745.4,1473.1,730.7z M1712.1,740.1c-1.1,12.9-10,24.9-24.2,35.7
	c-5,2.1-21.9,8.2-53.6,9.4c-2,0.1-3.9,0.1-5.9,0.2c-26.8,1-52.1,1.8-59.9,15c-3.4,5.7-3.2,12.9,0.5,22c-11.5,2.5-23,4.6-34.4,6.3
	c-73.8,11.2-137.3,19.2-137.9,19.3c-0.1,0-0.2,0-0.3,0.1l-38,9.3c-0.3,0.1-0.7,0.2-1,0.4c-11.5,7.8-25.5,15.7-31.2,17.4
	c3.5-4.8,15.2-14.6,20.6-19.1c9.9-8.2,11.1-9.3,10.1-11.9c-0.3-0.8-1-1.4-1.7-1.7c-1.8-0.7-2.8-0.3-16.5,5.8
	c-8.8,4-29,13.1-34.2,13.2c-0.5-1.4-0.3-2.3,0-2.8c0.3-0.3,0.6-0.5,0.8-0.7l42.6-28.4c1.4-0.9,1.8-2.8,0.8-4.2
	c-0.9-1.4-2.8-1.8-4.2-0.8l-42.8,28.5c0,0,0,0,0,0c-0.5,0.3-1,0.7-1.5,1.3c-2,1.6-4.8,3.4-6.5,3.2c-0.1,0-0.2,0-0.3-0.1
	c2.7-6.2,26.4-29.1,49-48.7c1.2-1.1,1.4-3,0.3-4.2c-1.1-1.2-3-1.4-4.2-0.3c-0.1,0.1-2.7,2.3-6.7,5.9c-0.2,0-0.4,0-0.6,0.1
	c-17.4,4.4-33.7,7.3-40.8,7.5c3.8-2.6,12-7.1,27.7-13.9c16.7-7.3,29.9-11.9,32.1-12c3.4-0.2,20.3,5.1,35.1,10.1
	c0.5,0.3,1.1,0.5,1.6,0.6c3.6,1.2,7.1,2.4,10.1,3.5c0.3,0.1,0.7,0.2,1,0.2c2.9,0.9,5.9,1.4,8.8,1.4c0.2,0,0.3,0,0.5,0
	c4.2-0.1,8.1-1.1,11.5-2.9c4.3-2.4,6.4-6.2,8.6-10.2c3.2-5.7,6.8-12.2,18-17.5c0.6-0.3,1-0.7,1.3-1.2c24.7-11.3,51.1-23.6,66.2-31.3
	c0.5-0.1,1-0.4,1.4-0.7c5.2-2.7,8.9-4.7,10.4-5.8c15.8-11.6,18.7-30.5,18.9-31.3c0.2-1.6-0.9-3.2-2.5-3.4c-1.6-0.2-3.2,0.9-3.4,2.5
	c0,0.2-2.7,17.3-16.5,27.4c-1.3,1-4.5,2.7-9.2,5.1l-16.4-5.9c13.1-20.1,29.4-54.8,37.4-109.6c3.9-26.5,4.4-48.4,4.4-57.3
	c7.9,4.1,15.7,8.4,23.5,12.7C1665.4,636.4,1716.2,690.8,1712.1,740.1z"/>
<g>
	<g>
		<path fill="#FFFFFF" d="M353,1435.2c0,0,62-12.4,83-38.7c20.9-26.3,8.6-52.1-4.1-57.9c-15.6-7-38.3,2.9-37.4,24.2
			C395.5,1386.8,407.9,1409,353,1435.2z"/>
		<path fill="#1A1A1A" d="M449.1,1357.6c-2.4-9.9-8.7-18.4-16-21.7c-9.3-4.2-20.9-3.1-29.6,2.8c-8.1,5.5-12.5,14.3-12,24.2
			c0.2,3.6,0.6,7.2,0.9,10.6c2.3,20.1,4.3,37.5-40.8,59c-1.4,0.7-2,2.2-1.6,3.7c0.4,1.2,1.6,2.1,2.8,2.1c0.2,0,0.4,0,0.6-0.1
			c0.6-0.1,15.9-3.2,34-9.6c24.6-8.7,41.6-18.8,50.7-30.2C448.5,1385.5,452.3,1371.1,449.1,1357.6z M433.6,1394.6
			c-6.7,8.4-17.8,15.3-29.8,20.9c1-0.7,1.9-1.4,2.9-2.2c21.1-16.8,30.7-38.4,27.6-62.6c-0.2-1.6-1.7-2.8-3.4-2.6
			c-1.6,0.2-2.8,1.7-2.6,3.4c2.8,22.2-5.7,41.4-25.3,57c-8.3,6.6-17,11.2-23,13.9c22-17.4,20.1-33.7,18.3-49.6
			c-0.4-3.3-0.8-6.8-0.9-10.2c-0.3-7.9,3-14.7,9.4-19c4.2-2.8,9.2-4.3,14.2-4.3c3.3,0,6.6,0.7,9.6,2c5.7,2.6,10.7,9.5,12.6,17.6
			C446.1,1370.6,442.6,1383.3,433.6,1394.6z"/>
	</g>
</g>
<g>
	<g>
		<path fill="#FFFFFF" d="M305,1130.5c0,0,4.3,47.6,22.4,65.5c18.1,17.9,38.5,10.6,43.8,1.6c6.5-11.2,0.9-29-15.2-30
			C338,1166.4,320.4,1174,305,1130.5z"/>
		<path fill="#1A1A1A" d="M374.1,1175.9c-3.6-6.7-10.1-10.9-17.9-11.4c-2.7-0.2-5.5-0.2-8.1-0.1c-15,0.1-28,0.2-40.3-34.9
			c-0.5-1.4-2-2.3-3.5-1.9c-1.5,0.3-2.5,1.7-2.3,3.2c0.2,2,4.7,48.9,23.3,67.3c7.8,7.7,17.1,11.9,26.3,11.9c1.4,0,2.7-0.1,4.1-0.3
			c7.9-1,14.9-5.1,18.1-10.6C377.9,1192.3,378,1183.2,374.1,1175.9z M368.7,1196.1c-1.9,3.2-6.8,6.8-13.7,7.7
			c-8.7,1.1-17.7-2.4-25.4-9.9c-4.4-4.3-7.9-10.6-10.8-17.5c10.7,14.9,25.1,22.8,42,22.8c0.4,0,0.7,0,1.1,0c1.7,0,3-1.4,2.9-3.1
			c0-1.7-1.4-3-3.1-2.9c-0.3,0-0.7,0-1,0c-16.2,0-29.3-7.8-39.1-23.2c-2.9-4.5-5-9-6.6-13c10.6,13.5,22,13.5,33.1,13.4
			c2.5,0,5.1,0,7.7,0.1c5.7,0.4,10.3,3.3,12.9,8.2C371.7,1184.2,371.7,1191,368.7,1196.1z"/>
	</g>
</g>
<g>
	<g>
		<path fill="#FFFFFF" d="M428.9,1247.2c0,0,51.1,3.6,73.2-12.5c22-16.1,17.9-38.9,9.2-46.1c-10.7-8.8-30.5-5.9-34.4,10.9
			C472.5,1218.4,477.5,1238.4,428.9,1247.2z"/>
		<path fill="#1A1A1A" d="M513.1,1186.2c-6.5-5.4-16-7-24.3-4.2c-7.7,2.6-13.1,8.7-15,16.8c-0.7,2.9-1.1,5.7-1.5,8.5
			c-2.5,16-4.6,29.8-44,36.9c-1.5,0.3-2.5,1.6-2.5,3.1c0.1,1.5,1.3,2.7,2.8,2.8c0.3,0,5.1,0.3,12.3,0.3c4.7,0,10.3-0.1,16.5-0.6
			c21.2-1.5,36.8-5.9,46.4-12.9c10.9-8,17-18.6,17.4-30C521.5,1198.5,518.4,1190.5,513.1,1186.2z M515.2,1206.9
			c-0.3,9.5-5.6,18.5-14.9,25.3c-5.7,4.2-13.5,6.9-21.9,8.8c17.1-8.5,27.5-22.5,30.1-40.9c0.2-1.6-0.9-3.2-2.6-3.4
			c-1.6-0.2-3.2,0.9-3.4,2.6c-2.5,17.7-12.7,30.5-30.2,38c-5.7,2.4-11.2,3.9-15.8,4.7c17.9-8.9,19.9-21.5,21.8-33.7
			c0.4-2.7,0.8-5.5,1.5-8.1c1.4-6.1,5.3-10.5,11-12.4c2.1-0.7,4.2-1,6.4-1c4.4,0,8.8,1.5,12.1,4.2
			C512.4,1193.4,515.4,1199.3,515.2,1206.9z"/>
	</g>
</g>
<g>
	<circle fill="#FFFFFF" cx="1627.1" cy="1800.8" r="17"/>
</g>
<g>
	<circle fill="#FFFFFF" cx="1264.1" cy="1845.3" r="17"/>
</g>
</svg>
