<?xml version="1.0" encoding="utf-8"?>
<!-- Generator: Adobe Illustrator 23.0.2, SVG Export Plug-In . SVG Version: 6.00 Build 0)  -->
<svg version="1.1" id="welcome" xmlns="http://www.w3.org/2000/svg" xmlns:xlink="http://www.w3.org/1999/xlink" x="0px" y="0px" viewBox="0 0 1080 1080" style="enable-background:new 0 0 1080 1080;" xml:space="preserve">

<g>
	<path d="M987.6,524.3c46.6-52.6,73.5-119.7,76-189.9C1070,159.3,926.2,14.3,751,19.3C684.4,21.1,620.3,44.9,568.6,87
		c-30.2,24.3-71.9,28.2-106,9.9C414.9,71.5,357.8,61.4,298,73.1C201.5,92,126,167.3,106.9,263.7c-8.3,42.1-5.8,82.8,5.2,119.9
		c20.7,69.7,12.8,144.5-21,208.9c-29.6,56.3-41.2,123.5-27.2,194c22.5,112.5,110,200.8,222.4,224c51.9,10.7,102,7.4,147.3-6.6
		c66.1-20.5,137.9-13.7,198.1,20.4c49.6,28,109.9,39.2,173.2,26c84.8-17.7,169.6-102.5,187.2-187.4c12.8-61.5,2.5-120-23.7-168.7
		C938.7,639.1,946.2,571.2,987.6,524.3z" style="fill:#00ACDC;"/>
	<path d="M133.2,485.9l7.1-4.3c1.9-1.1,4.4-0.5,5.5,1.4c0.2,0.3,0.3,0.6,0.4,1l1.8,7.2c0.5,2.1-0.8,4.1-2.8,4.7l-6,1.6
		c-1.7,0.5-3.5-0.2-4.4-1.7l-2.9-4.6C130.7,489.6,131.3,487.1,133.2,485.9C133.1,486,133.2,486,133.2,485.9z" style="fill:#FDB813;"/>
	<path d="M967.5,809.5l0.2-8.3c0.1-2.2,1.9-3.9,4.2-3.8c0.4,0,0.7,0.1,1.1,0.2l7.1,2.4c2,0.7,3.1,2.9,2.5,4.9l-1.8,6
		c-0.5,1.7-2.1,2.8-3.8,2.8h-5.4C969.2,813.5,967.4,811.7,967.5,809.5C967.5,809.5,967.5,809.5,967.5,809.5z" style="fill:#FDB813;"/>
	<path d="M700.7,220.1l-8-2.3c-2.1-0.7-3.3-2.9-2.6-5c0.1-0.4,0.3-0.7,0.5-1l4.2-6.2c1.2-1.8,3.6-2.3,5.4-1.2l5.3,3.3
		c1.5,0.9,2.2,2.7,1.7,4.4l-1.5,5.2C705,219.4,702.8,220.6,700.7,220.1z" style="fill:#FDB813;"/>
	<path d="M236.8,359.2l5.3,6.4c1.4,1.7,1.1,4.2-0.6,5.6c-0.3,0.2-0.6,0.4-0.9,0.6l-6.9,2.9c-2,0.8-4.2-0.1-5.1-2
		l-2.6-5.7c-0.7-1.6-0.3-3.5,1-4.6l4.1-3.5C232.8,357.3,235.3,357.4,236.8,359.2C236.8,359.1,236.8,359.1,236.8,359.2z" style="fill:#FFFFFF;"/>
	<path d="M349.5,593.8l-6.8,4.7c-1.8,1.2-4.3,0.7-5.5-1.1c-0.2-0.3-0.3-0.6-0.5-0.9l-2.2-7.1c-0.6-2,0.5-4.2,2.5-4.9
		l5.9-2c1.7-0.6,3.5,0,4.5,1.4l3.2,4.4C351.7,590.1,351.3,592.6,349.5,593.8z" style="fill:#FFFFFF;"/>
	<path d="M123.6,832.7l-4.4,7c-1.2,1.8-3.7,2.4-5.5,1.1c-0.3-0.2-0.6-0.4-0.8-0.7l-4.8-5.7c-1.3-1.6-1.2-4,0.4-5.5
		l4.6-4.2c1.3-1.2,3.2-1.3,4.7-0.4l4.6,2.8C124.2,828.4,124.8,830.8,123.6,832.7z" style="fill:#FFFFFF;"/>
	<path d="M455.6,801.8l-4.7,6.8c-1.2,1.8-3.7,2.2-5.5,1c-0.3-0.2-0.6-0.5-0.9-0.8l-4.6-5.9c-1.3-1.7-1-4.1,0.6-5.5
		l4.8-4c1.4-1.1,3.3-1.2,4.7-0.2l4.5,3C456.4,797.5,456.8,800,455.6,801.8C455.6,801.8,455.6,801.8,455.6,801.8z" style="fill:#FFFFFF;"/>
	<path d="M752.6,901.7l1.9,8.1c0.5,2.2-0.9,4.3-3.1,4.7c-0.4,0.1-0.7,0.1-1.1,0.1l-7.4-0.6c-2.1-0.2-3.7-2-3.6-4.1
		l0.3-6.2c0.1-1.7,1.3-3.2,3-3.7l5.3-1.3C750,898.2,752.1,899.6,752.6,901.7z" style="fill:#FFFFFF;"/>
	<path d="M327.8,104.8l-7.4,3.8c-1.9,1-4.3,0.2-5.3-1.7c-0.2-0.4-0.3-0.8-0.4-1.2l-1.2-7.3c-0.3-2.1,1.1-4.1,3.1-4.5
		l6.1-1.2c1.7-0.3,3.4,0.5,4.3,2l2.5,4.8C330.5,101.3,329.7,103.7,327.8,104.8C327.8,104.8,327.8,104.8,327.8,104.8z" style="fill:#10294C;"/>
	<path d="M216.3,805.2l-2.6-7.9c-0.7-2.1,0.4-4.3,2.5-5c0.4-0.1,0.8-0.2,1.2-0.2l7.4-0.1c2.1,0,3.9,1.6,4,3.8l0.3,6.2
		c0.1,1.7-1,3.3-2.6,3.9l-5.1,1.8C219.3,808.4,217,807.3,216.3,805.2z" style="fill:#10294C;"/>
	<path d="M995.3,349.5l-2.6-7.9c-0.7-2.1,0.5-4.4,2.6-5c0.3-0.1,0.7-0.2,1.1-0.2l7.5-0.1c2.1,0,3.9,1.6,4,3.8l0.3,6.2
		c0.1,1.8-1,3.4-2.6,3.9l-5.1,1.8C998.3,352.7,996,351.6,995.3,349.5z" style="fill:#10294C;"/>
	<path d="M819.4,1006.6l7.5-3.6c2-0.9,4.4-0.1,5.3,2c0.2,0.3,0.3,0.7,0.3,1l1.1,7.4c0.3,2.1-1.1,4.1-3.2,4.5l-6.1,1.1
		c-1.7,0.3-3.4-0.6-4.2-2.1l-2.4-4.9C816.6,1010,817.4,1007.6,819.4,1006.6z" style="fill:#10294C;"/>
	<path d="M764,583.8l-0.2-8.3c0-2.2,1.8-4,4-4c0.4,0,0.7,0,1.1,0.1l7.2,2.1c2,0.6,3.2,2.7,2.7,4.8l-1.5,6
		c-0.4,1.7-1.9,2.9-3.7,3l-5.4,0.2C765.9,587.7,764.1,586,764,583.8z" style="fill:#10294C;"/>
	<path d="M159.6,404.5l-3.3,4.3c-1.5,2-1.2,4.8,0.8,6.4c0.4,0.3,0.8,0.5,1.3,0.7l6.2,2.2c2.4,0.8,5-0.4,5.8-2.8
		c0.4-1.1,0.3-2.3-0.2-3.4l-2.9-6.4c-1-2.3-3.8-3.3-6-2.3C160.6,403.5,160,403.9,159.6,404.5z" style="fill:#10294C;"/>
	<path d="M420.8,936.9l1,5.3c0.5,2.5,2.9,4.1,5.3,3.6c0.5-0.1,0.9-0.3,1.4-0.5l5.7-3.2c2.2-1.2,3-4,1.8-6.2
		c-0.6-1-1.5-1.8-2.7-2.1l-6.8-2c-2.4-0.7-4.9,0.7-5.6,3.1C420.8,935.5,420.7,936.2,420.8,936.9z" style="fill:#10294C;"/>
	<path d="M569.9,622l-5.3-0.5c-2.5-0.2-4.7,1.6-4.9,4.1c0,0.5,0,1,0.1,1.5l1.5,6.4c0.6,2.4,3,4,5.5,3.4
		c1.1-0.3,2.1-1,2.8-1.9l3.9-5.9c1.4-2.1,0.8-4.9-1.3-6.3C571.4,622.3,570.6,622.1,569.9,622z" style="fill:#10294C;"/>
	<path d="M914.9,95.8l-2.4,4.8c-1.1,2.3-0.2,5,2,6.1c0.4,0.2,0.9,0.4,1.4,0.4l6.5,1c2.5,0.4,4.8-1.3,5.2-3.8
		c0.2-1.2-0.1-2.4-0.8-3.3l-4.1-5.8c-1.4-2.1-4.3-2.5-6.3-1.1C915.8,94.6,915.3,95.1,914.9,95.8z" style="fill:#10294C;"/>
	<path d="M628.5,150.2l-2.2-4.9c-1-2.3-3.7-3.3-6-2.3c-0.4,0.2-0.9,0.5-1.2,0.8l-4.9,4.4c-1.9,1.7-2,4.6-0.3,6.4
		c0.8,0.9,1.9,1.4,3,1.5l7,0.5c2.5,0.2,4.7-1.7,4.9-4.2C628.9,151.6,628.8,150.8,628.5,150.2z" style="fill:#10294C;"/>
	<path d="M949.6,862.7l-5.4,0.2c-2.5,0.1-4.5,2.2-4.4,4.7c0,0.5,0.1,1,0.3,1.4l2.3,6.2c0.9,2.4,3.5,3.6,5.8,2.7
		c1.1-0.4,2-1.2,2.5-2.3l3.1-6.3c1.1-2.3,0.2-5-2.1-6.1C951.1,862.8,950.4,862.6,949.6,862.7z" style="fill:#10294C;"/>
	<path d="M174.4,214.8l-5.4-0.2c-2.5-0.1-4.6,1.9-4.7,4.4c0,0.5,0,1,0.2,1.4l1.9,6.3c0.7,2.4,3.2,3.8,5.7,3.1
		c1.1-0.3,2.1-1.1,2.7-2.1l3.5-6.1c1.3-2.2,0.5-5-1.7-6.2C175.9,215,175.2,214.8,174.4,214.8z" style="fill:#FFFFFF;"/>
	<path d="M308,972.7l-5.4-0.2c-2.5-0.1-4.6,1.9-4.7,4.4c0,0.5,0,1,0.2,1.4l1.9,6.3c0.7,2.4,3.2,3.8,5.6,3.1
		c1.1-0.3,2.1-1.1,2.7-2.1l3.5-6.1c1.3-2.2,0.5-5-1.7-6.2C309.5,973,308.8,972.7,308,972.7z" style="fill:#FFFFFF;"/>
	<path d="M640.8,695.1l-1,5.3c-0.5,2.5,1.1,4.9,3.6,5.3c0.5,0.1,0.9,0.1,1.4,0.1l6.5-0.8c2.5-0.3,4.2-2.6,3.9-5.1
		c-0.2-1.1-0.7-2.1-1.6-2.9l-5.5-4.4c-1.9-1.6-4.8-1.3-6.4,0.7C641.2,693.7,640.9,694.4,640.8,695.1z" style="fill:#FFFFFF;"/>
	<path d="M952.7,288.2l-4.5-2.9c-2.1-1.4-4.9-0.8-6.3,1.3c-0.3,0.4-0.5,0.9-0.6,1.3l-1.7,6.4c-0.6,2.4,0.8,4.9,3.3,5.6
		c1.1,0.3,2.3,0.1,3.4-0.4l6.2-3.4c2.2-1.2,3-4,1.8-6.2C953.9,289.2,953.3,288.6,952.7,288.2z" style="fill:#FFFFFF;"/>
	<path d="M229.5,594l-4.3-3.3c-2-1.5-4.9-1.1-6.4,0.9c-0.3,0.4-0.5,0.8-0.7,1.3L216,599c-0.8,2.4,0.4,5,2.8,5.8
		c1.1,0.4,2.3,0.3,3.4-0.2l6.4-2.9c2.3-1.1,3.2-3.8,2.2-6.1C230.5,595,230,594.4,229.5,594z" style="fill:#FDB813;"/>
	<path d="M81.2,787l3.1-4.4c1.4-2.1,0.9-4.9-1.2-6.3c-0.4-0.3-0.8-0.5-1.3-0.6l-6.3-1.9c-2.4-0.7-4.9,0.7-5.7,3.1
		c-0.3,1.1-0.2,2.3,0.3,3.4l3.2,6.3c1.2,2.2,3.9,3.1,6.1,1.9C80.3,788.1,80.8,787.6,81.2,787z" style="fill:#FDB813;"/>
	<path d="M524.7,835.9l2.6-4.7c1.2-2.2,0.4-5-1.8-6.2c-0.4-0.2-0.9-0.4-1.4-0.5l-6.5-1.2c-2.5-0.4-4.8,1.2-5.3,3.7
		c-0.2,1.2,0,2.4,0.7,3.3l3.9,5.9c1.4,2.1,4.2,2.7,6.3,1.3C523.8,837.1,524.3,836.5,524.7,835.9z" style="fill:#FDB813;"/>
	<path d="M790.7,992.2l-4.2-3.4c-2-1.6-4.8-1.3-6.4,0.7c-0.3,0.4-0.5,0.8-0.7,1.3l-2.3,6.2c-0.9,2.4,0.3,5,2.7,5.8
		c1.1,0.4,2.3,0.4,3.3-0.1l6.5-2.8c2.3-1,3.4-3.6,2.4-6C791.7,993.3,791.3,992.7,790.7,992.2z" style="fill:#FDB813;"/>
	<path d="M754.6,515.8l4.7-2.5c2.2-1.2,3.1-4,1.9-6.2c-0.2-0.4-0.5-0.8-0.9-1.1l-4.8-4.5c-1.8-1.7-4.7-1.7-6.4,0.2
		c-0.8,0.9-1.3,2-1.3,3.2v7.1c0,2.5,2.1,4.6,4.6,4.5C753.2,516.4,754,516.2,754.6,515.8z" style="fill:#FDB813;"/>
	<path d="M402.7,186.1l5.4,0.5c2.5,0.2,4.7-1.6,4.9-4.1c0-0.5,0-1-0.1-1.4l-1.5-6.4c-0.6-2.4-3-4-5.5-3.4
		c-1.1,0.3-2.1,1-2.8,2l-3.8,5.9c-1.4,2.1-0.8,4.9,1.4,6.3C401.2,185.8,401.9,186,402.7,186.1z" style="fill:#FDB813;"/>
	<path d="M839.4,141l0.9,5.3c0.4,2.5,2.8,4.2,5.3,3.7c0.5-0.1,0.9-0.2,1.4-0.5l5.8-3.1c2.2-1.2,3.1-3.9,1.9-6.2
		c-0.5-1-1.5-1.8-2.6-2.2l-6.7-2.2c-2.4-0.8-5,0.5-5.8,2.9C839.4,139.5,839.3,140.3,839.4,141z" style="fill:#FDB813;"/>
	<path d="M185.7,503.7l1-6.4c0.3-2.1,1.8-3.7,3.9-4.2l1.9-0.5c2.8-0.7,5.6,1,6.4,3.8c0.2,0.9,0.2,1.9-0.1,2.8l-2.2,7.3
		c-0.8,2.8-3.7,4.3-6.5,3.5c-0.4-0.1-0.8-0.3-1.2-0.5l-0.7-0.4C186.4,507.9,185.4,505.8,185.7,503.7z" style="fill:#FFFFFF;"/>
	<path d="M916.8,483l-3.6-5.3c-1.2-1.7-1.2-4-0.1-5.7l1-1.7c1.5-2.4,4.8-3.2,7.2-1.6c0.8,0.5,1.5,1.2,1.9,2.1l3.4,6.8
		c1.3,2.6,0.2,5.7-2.3,7c-0.4,0.2-0.8,0.3-1.2,0.4l-0.8,0.2C920.2,485.7,918,484.8,916.8,483z" style="fill:#FFFFFF;"/>
	<path d="M668.1,257.2l-6.3-1.2c-2.1-0.4-3.7-2-4.1-4l-0.5-1.9c-0.6-2.8,1.2-5.6,4-6.2c0.9-0.2,1.9-0.2,2.8,0.1l7.2,2.4
		c2.7,0.9,4.2,3.9,3.3,6.6c-0.1,0.4-0.3,0.8-0.5,1.1l-0.5,0.7C672.4,256.7,670.3,257.6,668.1,257.2z" style="fill:#FFFFFF;"/>
	<path d="M152.1,620l5,4.1c1.6,1.3,2.3,3.5,1.7,5.5l-0.6,1.9c-0.8,2.8-3.7,4.4-6.4,3.6c-0.9-0.3-1.8-0.8-2.4-1.5
		l-5.2-5.6c-2-2.1-1.8-5.4,0.3-7.4c0.3-0.3,0.7-0.5,1-0.7l0.8-0.4C148.1,618.4,150.4,618.6,152.1,620z" style="fill:#10294C;"/>
	<path d="M441.3,198.8l1.9,6.2c0.6,2,0,4.2-1.6,5.5l-1.5,1.3c-2.2,1.9-5.5,1.6-7.4-0.6c-0.6-0.7-1-1.6-1.2-2.6l-1.2-7.5
		c-0.5-2.9,1.5-5.5,4.3-6c0.4-0.1,0.8-0.1,1.3-0.1l0.9,0.1C438.8,195.3,440.6,196.7,441.3,198.8z" style="fill:#10294C;"/>
	<path d="M626,752l-4.6,4.5c-1.5,1.5-3.7,1.9-5.6,1.2L614,757c-2.7-1.1-4-4.1-2.9-6.8c0.3-0.9,0.9-1.6,1.7-2.2l6.1-4.6
		c2.3-1.8,5.6-1.3,7.3,0.9c0.3,0.3,0.5,0.7,0.7,1.1l0.3,0.8C628,748.2,627.5,750.5,626,752z" style="fill:#10294C;"/>
	<path d="M820.6,430.7l0.9,6.4c0.3,2.1-0.7,4.1-2.5,5.2l-1.7,1c-2.5,1.5-5.7,0.7-7.2-1.8c-0.5-0.8-0.8-1.7-0.8-2.7v-7.6
		c0-2.9,2.3-5.2,5.2-5.2c0.4,0,0.8,0,1.3,0.1l0.8,0.2C818.7,426.9,820.3,428.6,820.6,430.7z" style="fill:#10294C;"/>
	<path d="M201.1,260.8l-5,4c-1.6,1.3-3.9,1.5-5.7,0.6l-1.8-0.9c-2.6-1.3-3.5-4.5-2.2-7.1c0.4-0.8,1.1-1.5,1.9-2l6.5-4
		c2.5-1.5,5.7-0.7,7.2,1.8c0.2,0.4,0.4,0.7,0.5,1.1l0.2,0.8C203.4,257.1,202.8,259.4,201.1,260.8z" style="fill:#FDB813;"/>
	<path d="M470,726.8l-6-2.3c-1.9-0.7-3.3-2.6-3.4-4.6l-0.1-2c-0.1-2.9,2.1-5.3,5-5.5c1,0,1.9,0.2,2.8,0.6l6.7,3.6
		c2.5,1.4,3.5,4.5,2.1,7.1c-0.2,0.4-0.4,0.7-0.7,1l-0.6,0.6C474.3,727,472,727.6,470,726.8z" style="fill:#FDB813;"/>
	<path d="M971.3,247.1l-5,4c-1.6,1.3-3.9,1.5-5.7,0.6l-1.8-0.9c-2.6-1.3-3.6-4.5-2.2-7.1c0.4-0.8,1.1-1.6,1.9-2.1
		l6.5-3.9c2.5-1.5,5.7-0.7,7.2,1.8c0.2,0.4,0.4,0.7,0.5,1.2l0.3,0.8C973.7,243.5,973,245.7,971.3,247.1z" style="fill:#FDB813;"/>
	<path d="M328.4,943.3l-5.8-2.9c-1.9-0.9-3-2.9-2.9-5l0.1-2c0.2-2.9,2.7-5.1,5.5-4.9c0.9,0.1,1.9,0.4,2.6,0.9l6.3,4.3
		c2.4,1.6,3,4.9,1.4,7.3c-0.2,0.4-0.5,0.7-0.8,1l-0.6,0.6C332.6,944,330.3,944.3,328.4,943.3z" style="fill:#FDB813;"/>
	<path d="M787.4,864.2l-0.5-6.4c-0.2-2.1,0.9-4,2.8-5l1.7-0.9c2.5-1.4,5.7-0.4,7.1,2.2c0.4,0.8,0.7,1.8,0.6,2.7
		l-0.4,7.6c-0.2,2.9-2.6,5.1-5.5,4.9c-0.4,0-0.8-0.1-1.2-0.2l-0.8-0.2C789,868.2,787.6,866.4,787.4,864.2z" style="fill:#FDB813;"/>
</g>
<g>
	<path d="M905.5,756c-0.5,2.6-3.1,4.3-5.7,3.8l-28.4-5.8c-2.2,2-4.4,4-6.7,5.8c-3.6,2.9-7.3,5.7-11.1,8.3
		s-7.7,5.2-11.6,7.6c-4,2.4-8.2,4.6-12.4,6.6c-5.3,2.3-11.4-0.1-13.7-5.4c-1.5-3.5-1-7.6,1.4-10.6c2.9-3.7,6.1-7.1,9.5-10.4
		c3.3-3.2,6.8-6.4,10.3-9.4c3.5-3,7.1-5.9,10.9-8.6c3.7-2.8,7.6-5.3,11.6-7.6l3.7-2.1c2.9-1.6,6.4-1.4,9.1,0.5l31.3,22.3
		C905.1,752.2,905.8,754.1,905.5,756z" style="fill:#10294C;"/>
	<path d="M896.1,895.4C896.1,895.4,896,895.3,896.1,895.4c-1-1.2-2-2.1-3.2-2.9c-0.1-0.1-0.2-0.2-0.3-0.2
		c-1.1-0.8-2.4-1.5-3.7-2c-5.6-2.4-13-3.2-21-2l-13.5-48.4l0,0c28.7-18.8,2.3-102-8.9-142.6c-3.2-11.7-21.7-16.7-41.1-11.3
		s-32.6,19.3-29.4,30.9c11.3,40.6,31.5,124.9,66,126.7l0,0l13.4,48.5c-10.1,4.2-17.4,11-19.8,17.8c-0.3,0.9-0.5,1.7-0.7,2.6
		c-2.5,12,4.3,19.7,10,22.6l0.2,0.1c7.2,4,18.4,4.8,30,1.6c13.8-3.8,24.2-12.4,26.7-21c0.1-0.3,0.1-0.5,0.2-0.8s0.1-0.4,0.1-0.6
		c0,0,0,0,0-0.1C902.4,907.6,900.6,900.6,896.1,895.4z M795.1,760.1c-0.2-0.4-0.3-0.8-0.5-1.3c-0.1-0.3-0.1-0.6-0.2-0.9
		c-1.4-8.3,8.9-18,23.7-22.2s28.6-1.1,31.7,6.7c0.1,0.3,0.2,0.7,0.3,1c0.1,0.4,0.2,0.9,0.3,1.3c9.9,38.8,17.7,84.2-4.7,90.2
		S806.6,798.3,795.1,760.1L795.1,760.1z" style="fill:#FFFFFF;"/>
	<path d="M845.7,834.8c22.4-6,14.6-51.4,4.7-90.2c-0.1-0.4-0.1-0.9-0.3-1.3c-0.1-0.3-0.2-0.7-0.3-1
		c-3.2-7.8-17-10.8-31.7-6.7s-25.1,13.9-23.7,22.2c0.1,0.3,0.1,0.6,0.2,0.9c0.1,0.4,0.3,0.9,0.5,1.3
		C806.6,798.3,823.3,840.8,845.7,834.8z" style="fill:#FDB813;"/>
	<path d="M842.2,707.2c-2.8,4.9-6.7,9-11.5,12c-9.3,6.1-20.3,9.1-31.4,8.7c-5.6-0.1-11.1-1.6-16-4.4
		c-0.9-0.5-1.2-1.6-0.6-2.5c0.4-0.8,1.4-1.1,2.2-0.8h0.1c4.7,1.6,9.6,2.3,14.5,2.1c2.5-0.1,5-0.3,7.4-0.7c2.5-0.4,4.9-0.9,7.3-1.5
		c4.8-1.3,9.4-3.2,13.8-5.6c4.3-2.4,8.2-5.5,11.4-9.3l0,0c0.6-0.8,1.7-0.9,2.4-0.3C842.4,705.5,842.6,706.5,842.2,707.2L842.2,707.2
		z" style="fill:#10294C;"/>
	<path d="M848.6,755c-2.3,3.6-5.5,6.7-9.1,9c-3.6,2.3-7.5,4-11.6,5.2c-4.1,1.2-8.3,1.8-12.5,1.8
		c-4.3,0.1-8.6-0.8-12.5-2.5c-0.9-0.4-1.4-1.5-1-2.4c0.3-0.8,1.2-1.2,2.1-1.1h0.1c3.7,0.7,7.4,0.8,11.2,0.5c1.9-0.2,3.7-0.4,5.6-0.8
		c1.9-0.3,3.7-0.8,5.5-1.3c1.8-0.5,3.6-1.1,5.4-1.8c1.7-0.7,3.5-1.5,5.1-2.3c3.3-1.7,6.4-3.8,9.1-6.4h0c0.7-0.7,1.8-0.6,2.5,0.1
		C849,753.6,849,754.4,848.6,755L848.6,755z" style="fill:#10294C;"/>
	<path d="M897.6,912c-2.6,4.7-6.4,8.7-10.9,11.6c-8.9,5.9-19.5,8.8-30.2,8.3c-5.4-0.2-10.7-1.7-15.3-4.5
		c-0.8-0.6-1.1-1.7-0.5-2.5c0.5-0.7,1.3-1,2.1-0.7h0.1c4.4,1.6,9.1,2.3,13.8,2.2c4.7-0.1,9.4-0.8,14-2c4.6-1.2,9-3,13.2-5.4
		c4.1-2.3,7.8-5.3,10.8-8.9l0,0c0.6-0.7,1.7-0.9,2.4-0.3c0,0,0,0,0,0C897.7,910.4,897.9,911.3,897.6,912z" style="fill:#10294C;"/>
	<path d="M855.3,841.3c-0.8,1.1-1.8,2-3,2.7c-1.1,0.7-2.4,1.2-3.7,1.6c-1.3,0.4-2.6,0.5-4,0.5c-1.4,0-2.7-0.3-4-0.8
		c-1-0.4-1.4-1.6-1-2.6c0,0,0,0,0,0c0.2-0.4,0.6-0.8,1-1h0.1c1-0.4,2.1-0.8,3.2-1c1-0.3,2-0.6,3-0.8l3-0.8c1-0.2,2.1-0.5,3.3-0.7
		h0.1c1-0.1,2,0.6,2.1,1.6c0.1,0.5,0,0.9-0.3,1.3L855.3,841.3z" style="fill:#10294C;"/>
	<path d="M871.9,892.7c1.7,4,3.1,8.1,4.5,12.3c0.2,0.5,0.3,1,0.5,1.5l0.1,0.4l0.2,0.5c0.1,0.4,0.2,0.8,0.2,1.2
		c0.1,0.9,0.1,1.8-0.2,2.6c-0.2,0.9-0.6,1.7-1.2,2.5c-0.9,1.2-2.2,2.2-3.5,2.9c-1.1,0.6-2.3,1-3.5,1.4c-1.3,0.4-2.6,0.6-3.9,0.7
		c-1.5,0.1-3.1-0.2-4.5-0.8c-1.6-0.7-2.9-2-3.7-3.6c-0.2-0.4-0.3-0.8-0.5-1.2c-0.1-0.4-0.2-0.7-0.3-0.9l-0.4-1.6
		c-1-4.2-1.9-8.5-2.6-12.8c-0.2-1,0.5-1.9,1.5-2.1c0.8-0.2,1.7,0.3,2,1.1c1.7,4,3.1,8.2,4.4,12.3c0.2,0.9,0.5,1.7,0.9,2.5
		c0.2,0.4,0.5,0.6,0.9,0.8c1.4,0.4,2.9,0.3,4.3-0.3c0.9-0.3,1.7-0.6,2.6-1c0.6-0.3,1.1-0.6,1.5-1.1c0.2-0.3,0.4-0.6,0.3-1
		c0-0.4-0.4-1.7-0.6-2.7c-1-4.2-1.9-8.5-2.5-12.8c-0.1-1,0.5-1.8,1.5-2C870.8,891.5,871.6,891.9,871.9,892.7L871.9,892.7z" style="fill:#10294C;"/>
	<circle cx="817.8" cy="783.2" r="5.4" style="fill:#F04E23;"/>
	<circle cx="837" cy="790.6" r="3.7" style="fill:#F04E23;"/>
	<circle cx="837" cy="822.9" r="3.7" style="fill:#F04E23;"/>
	<circle cx="828.8" cy="747.4" r="3.7" style="fill:#F04E23;"/>
</g>
<g>
	
		<ellipse transform="matrix(0.1822 -0.9833 0.9833 0.1822 250.5435 1471.543)" cx="1009.9" cy="585.1" rx="39" ry="29.3" style="fill:#00ACDC;"/>
	<circle cx="1030.4" cy="669.2" r="16.8" style="fill:#00ACDC;"/>
	<path d="M1008.7,592.9l6.7,4.9c1.8,1.3,2.1,3.8,0.8,5.6c-0.2,0.3-0.5,0.5-0.8,0.8l-6,4.5c-1.7,1.3-4.1,1-5.5-0.7
		l-3.9-4.9c-1.1-1.4-1.1-3.3-0.2-4.7l3.1-4.5C1004.3,592,1006.8,591.6,1008.7,592.9C1008.6,592.8,1008.7,592.9,1008.7,592.9z" style="fill:#FDB813;"/>
</g>
<g>
	<ellipse cx="64.7" cy="465.2" rx="37.2" ry="52.5" style="fill:#00ACDC;"/>
	<path d="M55.8,478.3l1.8-5.1c0.8-2.4-0.4-5-2.8-5.8c-0.5-0.2-0.9-0.2-1.4-0.3l-6.6-0.2c-2.5,0-4.6,2-4.6,4.5
		c0,1.2,0.4,2.3,1.2,3.1l4.8,5.2c1.7,1.9,4.6,2,6.4,0.3C55.1,479.6,55.6,479,55.8,478.3z" style="fill:#FFFFFF;"/>
	<path d="M75.4,445.1l-5.9,2.5c-1.9,0.8-4.1,0.4-5.6-1l-1.4-1.4c-2.1-2-2.2-5.3-0.2-7.4c0.7-0.7,1.5-1.2,2.4-1.4l7.3-2
		c2.8-0.8,5.7,0.9,6.4,3.7c0.1,0.4,0.2,0.8,0.2,1.2v0.9C78.6,442.3,77.4,444.2,75.4,445.1z" style="fill:#10294C;"/>
</g>
<g>
	<path d="M835.3,574.9c-0.8,0.5-1,1.6-0.5,2.4l5.2,8c0.5,0.8,0.3,1.8-0.5,2.4c-0.8,0.5-1,1.6-0.5,2.4l9.6,14.7
		c0.5,0.8,1.6,1,2.3,0.5l57-37c2.6-1.7,4.4-4.4,5-7.5l1.5-8.2c0.6-2.9,2.3-5.4,4.7-7l100.4-64.3c7.3-11.9,13.7-24.4,19.3-37.2
		L835.3,574.9z M897.8,559.5c-1.5,1.7-3.2,3.2-5,4.5c-1.7,1.4-3.6,2.7-5.4,3.8c-1.9,1.2-3.8,2.3-5.8,3.4c-2,1.1-4,2-6.2,2.8
		c-1.6,0.5-3.4-0.4-3.9-2c-0.3-1-0.1-2.2,0.6-3c1.6-1.6,3.2-3.1,5-4.5c1.8-1.4,3.6-2.7,5.4-3.9c1.8-1.2,3.8-2.4,5.7-3.4
		c2-1.1,4.1-2,6.2-2.7c1.6-0.5,3.4,0.4,3.9,2C898.7,557.6,898.4,558.7,897.8,559.5L897.8,559.5z" style="fill:#10294C;"/>
	<path d="M952.8,596.3c0.5-2.6,1-5.2,1.6-7.8c-9.2-2.4-16.9-10.2-22-22.3c-11.1-26.3-25.8-43.4-42.8-49.4
		c-11.6-4.2-23.7-3-36,3.5c-25.4,13.4-31,40-15.2,72.9c1,2,3.3,2.8,5.3,1.9c2-1,2.8-3.3,1.9-5.3c-8-16.8-17.1-47.2,11.8-62.4
		c10.2-5.4,20.1-6.4,29.5-3c14.8,5.3,27.9,20.8,38.1,45C931.1,583.8,941.1,593.4,952.8,596.3z" style="fill:#FFFFFF;"/>
	<path d="M919.8,735.3c-2.2,0-4-1.8-4-4c0-1.1,0.4-2.1,1.2-2.9c9.7-9.5,14.1-35.9,4.7-63.6
		c-5.3-15.6-22.8-52.5-70.8-58.1c-2.2-0.2-3.8-2.1-3.7-4.3c0.2-2.2,2.1-3.8,4.3-3.7c0.1,0,0.2,0,0.3,0c37,4.4,65.2,27.5,77.4,63.5
		c9.7,28.5,6.9,58.7-6.7,71.9C921.9,734.9,920.9,735.3,919.8,735.3z" style="fill:#FFFFFF;"/>
	<ellipse cx="906.6" cy="753" rx="34.9" ry="38.5" style="fill:#F04E23;"/>
	<path d="M917.7,760.2c-2.2-1.5-5.2-0.9-6.7,1.4c0,0,0,0,0,0l-16,24.2c-3,0.1-5.9,0.3-8.9,0.6
		c-4.6,0.5-9.2,1.1-13.7,1.9c-4.5,0.8-9.1,1.7-13.6,2.9c-4.6,1.1-9,2.5-13.4,4.1c-5.4,2.1-8,8.1-6,13.4c1.4,3.6,4.7,6.1,8.5,6.6
		c4.6,0.5,9.3,0.7,14,0.6c4.7,0,9.3-0.3,13.9-0.7s9.2-0.9,13.8-1.6c4.6-0.6,9.1-1.6,13.6-2.8l4.1-1.2c3.2-0.9,5.5-3.5,6.1-6.8
		l6.4-37.9C920.1,763.2,919.3,761.3,917.7,760.2z" style="fill:#10294C;"/>
	<ellipse transform="matrix(0.9872 -0.1595 0.1595 0.9872 -109.0601 158.4059)" cx="932" cy="758.4" rx="5" ry="5.5" style="fill:#10294C;"/>
	
		<ellipse transform="matrix(0.9627 -0.2707 0.2707 0.9627 -164.4032 277.0296)" cx="921.9" cy="734.4" rx="5" ry="5.5" style="fill:#10294C;"/>
	<path d="M919.8,719.4l-25.6-51.7c-1.4-2.8-3.9-4.9-6.9-5.8l-8-2.5c-2.8-0.9-5.1-2.9-6.5-5.5L842,591.5
		c-5.3,4.7-11,9.1-16.9,13.1l62.5,126.1C891.9,739.2,922.6,725,919.8,719.4z M881,685.9c-0.9-2.1-1.5-4.2-2-6.5
		c-0.3-1.7,0.8-3.3,2.4-3.7c1.1-0.2,2.2,0.2,2.9,1c1.5,1.7,2.8,3.5,3.9,5.5c1.2,1.9,2.2,3.8,3.2,5.8c1,2,1.9,4,2.7,6.1
		c0.8,2.1,1.5,4.2,2,6.4c0.4,1.7-0.7,3.3-2.3,3.7c-1.1,0.2-2.3-0.1-3-1c-1.4-1.7-2.7-3.6-3.9-5.5c-1.2-1.9-2.2-3.8-3.2-5.8
		C882.7,690,881.8,688,881,685.9z" style="fill:#10294C;"/>
	<path d="M866.3,582.9c-5.4-5.8-17.6-19.8-42.8-13.6c-0.7,0.2-1.4,0.3-2.1,0.6l0,0c-10.2,3.2-17.7,13.6-17.7,26
		c-0.1,8.2,3.4,16,9.5,21.3c7.4,7.1,16.2,10.2,34.1,9.8C868.6,626.5,871.9,588.9,866.3,582.9z" style="fill:#10294C;"/>
	<ellipse cx="847.3" cy="600" rx="24.5" ry="27" style="fill:#F04E23;"/>
	<path d="M849.3,616.1c-8.2,0-14.9-7.2-14.9-16.1s6.7-16.1,14.9-16.1s14.9,7.2,14.9,16.1S857.5,616.1,849.3,616.1z
		 M849.3,589.9c-4.9,0-8.9,4.5-8.9,10.1s4,10.1,8.9,10.1s8.9-4.5,8.9-10.1S854.2,589.9,849.3,589.9z" style="fill:#10294C;"/>
</g>
<g>
	<path d="M621.3,836c2.2,1.5,5.2,0.8,6.7-1.4l16-24.2c3-0.1,5.9-0.3,8.9-0.6c4.6-0.5,9.2-1.1,13.7-1.9s9.1-1.7,13.6-2.9
		c4.6-1.1,9.1-2.5,13.4-4.2c5.3-2.1,8-8.1,5.9-13.5c-1.4-3.6-4.6-6.1-8.5-6.5c-4.7-0.5-9.4-0.7-14-0.6c-4.7,0-9.3,0.3-13.9,0.7
		c-4.6,0.4-9.2,0.9-13.8,1.6c-4.6,0.7-9.1,1.6-13.6,2.8l-4.1,1.2c-3.2,0.9-5.5,3.5-6.1,6.8l-6.4,38C618.9,833.1,619.7,835,621.3,836
		z" style="fill:#10294C;"/>
	<path d="M734.8,765.9c-14.7-4.1-28.6-1.1-31.7,6.7c-0.2,0.8-0.4,1.5-0.6,2.3c-9.9,38.8-17.7,84.2,4.7,90.2
		s39.1-36.6,50.6-74.8l0.7-2.2C759.9,779.7,749.6,770,734.8,765.9z" style="fill:#FDB813;"/>
	<path d="M734.8,765.9c-14.7-4.1-28.6-1.1-31.7,6.7c-0.1,0.3-0.2,0.7-0.3,1c-0.1,0.4-0.2,0.9-0.3,1.3
		c-9.9,38.8-17.7,84.2,4.7,90.2s39.1-36.6,50.6-74.8c0.2-0.4,0.3-0.8,0.5-1.3c0.1-0.3,0.1-0.6,0.2-0.9
		C759.9,779.7,749.6,770,734.8,765.9z" style="fill:none;"/>
	<path d="M748.6,716.1c-19.5-5.4-37.9-0.4-41.1,11.3c-11.3,40.6-37.7,123.9-8.9,142.6l0,0l-13.5,48.4
		c-8-1.2-15.5-0.4-21,2c-1.3,0.5-2.5,1.2-3.7,2c-0.1,0.1-0.2,0.1-0.3,0.2c-1.1,0.8-2.2,1.8-3.1,2.8c0,0-0.1,0.1-0.1,0.1
		c-4.5,5.2-6.4,12.2-5,18.9c0,0,0,0,0,0.1c0,0.2,0.1,0.4,0.1,0.6s0.1,0.5,0.2,0.8c2.5,8.6,12.8,17.1,26.7,21
		c11.6,3.2,22.8,2.4,30-1.6l0.2-0.1c5.7-2.9,12.5-10.6,10-22.6c-0.2-0.9-0.4-1.7-0.7-2.6c-2.4-6.9-9.7-13.6-19.8-17.8l13.5-48.5l0,0
		c34.4-1.8,54.7-86,66-126.7C781.3,735.4,768.1,721.5,748.6,716.1z M758.5,788c-0.1,0.3-0.1,0.6-0.2,0.9c-0.1,0.4-0.3,0.9-0.5,1.3
		c-11.5,38.2-28.2,80.8-50.6,74.8s-14.6-51.4-4.7-90.2c0.1-0.4,0.1-0.9,0.3-1.3c0.1-0.3,0.2-0.7,0.3-1c3.2-7.8,17-10.8,31.7-6.7
		S759.9,779.7,758.5,788L758.5,788z" style="fill:#FFFFFF;"/>
	<path d="M698.2,868.3c1.2-0.6,2.6-1,4-1.1c1.4-0.1,2.8,0,4.1,0.3c1.4,0.3,2.7,0.9,3.9,1.7c1.2,0.8,2.2,1.9,2.9,3.1
		c0.5,0.9,0.2,2.1-0.7,2.6c-0.4,0.2-0.9,0.3-1.4,0.2l-0.3-0.1c-1.2-0.3-2.1-0.7-3-0.9s-1.9-0.6-2.9-0.8l-3-0.7
		c-1.1-0.2-2.1-0.5-3.2-0.9l-0.4-0.2c-0.9-0.3-1.4-1.4-1.1-2.3C697.5,868.9,697.8,868.5,698.2,868.3L698.2,868.3z" style="fill:#10294C;"/>
	<path d="M695.8,921.2c-0.7,0.2-1.5,0.4-2.2,0.3c-0.7,0-1.4-0.1-2-0.3c-0.6-0.1-1.3-0.4-1.8-0.7
		c-0.7-0.4-1.2-0.8-1.7-1.4l-0.1-0.1c-0.8-0.9-0.7-2.3,0.2-3c0,0,0,0,0,0c0.2-0.1,0.4-0.3,0.6-0.3c0.7-0.3,1.5-0.4,2.3-0.4
		c0.7,0,1.5,0.1,2.2,0.3c0.7,0.2,1.4,0.5,2,0.9c0.7,0.4,1.3,1,1.7,1.6c0.7,0.9,0.5,2.2-0.5,2.9c0,0,0,0,0,0
		c-0.2,0.1-0.3,0.2-0.5,0.3L695.8,921.2z" style="fill:#10294C;"/>
	<path d="M713,949.5c-2.6-4.3-6.3-7.9-10.6-10.5c-2.2-1.4-4.4-2.6-6.7-3.6c-2.3-1.1-4.7-1.9-7.2-2.6
		c-2.4-0.8-4.9-1.3-7.5-1.8c-2.5-0.4-5.1-0.6-7.6-0.7c-5-0.1-10.1,0.8-14.7,2.8l0,0c-0.9,0.4-2,0-2.4-1c-0.3-0.8-0.1-1.7,0.6-2.2
		c2.4-1.7,5.1-3,7.9-3.8c2.8-0.8,5.6-1.3,8.5-1.4c5.7-0.3,11.5,0.4,17,2.1c5.5,1.6,10.7,4.2,15.3,7.5c2.3,1.7,4.5,3.8,6.3,6
		c1.9,2.3,3.4,4.9,4.3,7.7c0.3,0.9-0.2,1.9-1.2,2.2C714.3,950.5,713.5,950.2,713,949.5L713,949.5z" style="fill:#10294C;"/>
	<path d="M752.7,689.4c-2-2.9-3.8-6-5.5-9.1c-1.7-3.1-3.2-6.3-4.7-9.5s-2.8-6.5-4-9.8c-1.2-3.3-2.3-6.7-3.2-10.2
		c-0.3-1.3,0.4-2.7,1.7-3c1-0.3,2.1,0.1,2.7,1c2,2.9,3.8,6,5.5,9.2c1.6,3.1,3.2,6.3,4.6,9.5c1.4,3.2,2.8,6.5,4,9.8
		c1.2,3.3,2.3,6.7,3.1,10.2c0.3,1.3-0.5,2.5-1.8,2.8C754.3,690.6,753.3,690.2,752.7,689.4L752.7,689.4z" style="fill:#FDB813;"/>
	<path d="M767.9,689.5c-0.6-2.3-0.9-4.7-1.1-7.1c-0.2-2.4-0.2-4.7-0.2-7.1c0.1-2.4,0.2-4.7,0.5-7.1
		c0.3-2.4,0.8-4.7,1.5-7c0.4-1.3,1.8-2,3.2-1.6c0.8,0.3,1.4,0.9,1.7,1.8c0.6,2.3,0.9,4.7,1.1,7.1c0.3,4.7,0.2,9.5-0.5,14.2
		c-0.3,2.4-0.8,4.7-1.5,7c-0.4,1.3-1.8,2-3,1.5C768.7,690.9,768.1,690.2,767.9,689.5L767.9,689.5z" style="fill:#FDB813;"/>
	<path d="M745.5,703.5c-2.3-0.8-4.4-1.7-6.5-2.9c-2.1-1.1-4.1-2.3-6-3.7c-1.9-1.3-3.8-2.7-5.6-4.2
		c-1.8-1.5-3.5-3.2-5.1-5c-0.9-1.1-0.7-2.7,0.3-3.5c0.7-0.5,1.6-0.7,2.4-0.5c2.3,0.8,4.4,1.8,6.5,2.9c4.1,2.3,8,5,11.5,8
		c1.8,1.5,3.5,3.2,5,5c0.8,1,0.7,2.5-0.3,3.4C747.1,703.6,746.3,703.8,745.5,703.5z" style="fill:#FDB813;"/>
	<circle cx="712" cy="788.2" r="5.4" style="fill:#F04E23;"/>
	<circle cx="713.9" cy="806.3" r="3.7" style="fill:#F04E23;"/>
	<circle cx="742.8" cy="783.2" r="3.7" style="fill:#F04E23;"/>
</g>
<g>
	
		<ellipse transform="matrix(0.9961 -8.854660e-02 8.854660e-02 0.9961 -89.8971 50.2239)" cx="521.1" cy="1038.4" rx="54.8" ry="29.9" style="fill:#00ACDC;"/>
	<path d="M542.3,994.5l-2.7-8.1c-0.9-2.8-0.7-5.9,0.7-8.5l3.9-7.4c1.5-2.8,1.7-6,0.7-9l-21.7-64.4
		c-0.3-0.9-1.3-1.4-2.2-1.1l-16.6,5.6c-0.9,0.3-1.4,1.3-1.1,2.1c0,0,0,0,0,0c0.3,0.9-0.2,1.8-1.1,2.1c0,0,0,0,0,0l-9,3
		c-0.9,0.3-1.4,1.3-1.1,2.2l27.4,81.4C527.2,992.8,534.8,993.5,542.3,994.5z M518.8,935.9c1.4-0.9,3.4-0.5,4.3,1c0,0,0,0,0,0
		c1.2,1.9,2.2,3.9,3.1,6c0.9,2,1.7,4.1,2.4,6.2c0.7,2.1,1.4,4.2,1.9,6.4c0.6,2.2,0.9,4.4,1.1,6.7c0.1,1.1-0.5,2.2-1.4,2.8
		c-1.4,0.9-3.4,0.6-4.3-0.9c-1.2-1.9-2.3-3.9-3.2-6c-0.9-2-1.7-4.1-2.4-6.2c-0.7-2.1-1.3-4.2-1.8-6.4c-0.5-2.2-0.9-4.4-1.1-6.6
		C517.2,937.6,517.8,936.5,518.8,935.9z" style="fill:#10294C;"/>
	<path d="M641.7,847.8c-1-2-3.4-2.8-5.4-1.8s-2.8,3.4-1.8,5.4c7.1,13.9,0.5,35.1-15.6,50.3
		c-12.5,11.7-29,18.3-46.2,18.4c-12.2,0-26.5-3.3-42.6-12.6c-18-10.4-40.7-5.8-56.6,11.5c-14.5,15.8-23.7,44-10.5,77.6
		c2.7-0.5,5.4-1,8.1-1.4c-12.7-31-4.6-56.7,8.4-70.8c13.3-14.5,32-18.5,46.7-10c18.9,11,37.9,15.3,56.3,13c15.8-2,30.5-9,42-19.9
		C643.3,889.6,650.4,865,641.7,847.8z" style="fill:#FFFFFF;"/>
	<ellipse cx="641.1" cy="832.4" rx="34.9" ry="38.5" style="fill:#F04E23;"/>
	<path d="M652.5,835.6c0.5-2.6,3.1-4.3,5.7-3.8c0,0,0,0,0,0l28.4,5.8c2.2-2,4.4-4,6.7-5.8c3.6-2.9,7.3-5.7,11.1-8.3
		c3.8-2.6,7.7-5.2,11.6-7.6c4-2.5,8.2-4.6,12.4-6.6c5.3-2.3,11.4,0.1,13.7,5.3c1.5,3.5,1,7.6-1.3,10.6c-2.9,3.7-6.1,7.1-9.5,10.4
		c-3.3,3.3-6.8,6.4-10.3,9.4c-3.5,3-7.1,5.9-10.9,8.6c-3.7,2.8-7.6,5.3-11.6,7.6l-3.7,2.1c-2.9,1.6-6.4,1.4-9.1-0.5l-31.3-22.3
		C652.9,839.4,652.2,837.5,652.5,835.6z" style="fill:#10294C;"/>
	<path d="M626.8,862.4c11.6-5.6-5-35.2-13-31.3l0,0l-126.7,60.8c-0.8,0.4-1.2,1.4-0.8,2.3l7.5,15.9
		c0.4,0.8,1.4,1.2,2.3,0.8l50.4-24.2c2.7-1.3,5.7-1.4,8.5-0.3l7.8,3c2.9,1.1,6.2,1,9-0.4L626.8,862.4L626.8,862.4z M593.8,864.3
		c-1.8,1.4-3.6,2.7-5.6,3.8c-1.9,1.2-3.9,2.2-5.9,3.2c-2,1-4,1.8-6.1,2.6c-2.1,0.8-4.3,1.4-6.5,1.9c-1.7,0.3-3.3-0.8-3.6-2.5
		c-0.2-1.1,0.2-2.2,1-2.9c1.7-1.5,3.6-2.7,5.5-3.9c1.9-1.2,3.9-2.2,5.9-3.1s4-1.8,6.2-2.6c2.1-0.8,4.3-1.5,6.5-1.9
		c1.7-0.3,3.3,0.7,3.7,2.4C595.1,862.4,594.7,863.5,593.8,864.3L593.8,864.3z" style="fill:#10294C;"/>
	<path d="M537,884.4c-5.4-5.8-17.6-19.8-42.8-13.6c-0.7,0.2-1.4,0.3-2.1,0.6l0,0c-10.2,3.2-17.7,13.7-17.7,26
		c-0.1,8.2,3.4,16,9.5,21.3c7.4,7.1,16.2,10.2,34.1,9.8C539.3,927.9,542.6,890.3,537,884.4z" style="fill:#10294C;"/>
	<ellipse cx="518" cy="901.4" rx="24.5" ry="27" style="fill:#F04E23;"/>
	<path d="M520,917.5c-8.2,0-14.9-7.2-14.9-16.1s6.7-16.1,14.9-16.1c8.2,0,14.9,7.2,14.9,16.1S528.2,917.5,520,917.5z
		 M520,891.3c-4.9,0-8.9,4.5-8.9,10.1s4,10.1,8.9,10.1s8.9-4.5,8.9-10.1S524.9,891.3,520,891.3L520,891.3z" style="fill:#10294C;"/>
	
		<ellipse transform="matrix(0.9872 -0.1595 0.1595 0.9872 -127.2594 113.4383)" cx="642.8" cy="849.2" rx="5" ry="5.5" style="fill:#10294C;"/>
	
		<ellipse transform="matrix(0.9627 -0.2707 0.2707 0.9627 -199.8071 202.7321)" cx="634.9" cy="825.6" rx="5" ry="5.5" style="fill:#10294C;"/>
	<path d="M562.8,1055.1l-15.1-44.6c-7.5-1.8-15.1-2.5-22.8-2.3l18.9,56C550.6,1062.2,557,1059.1,562.8,1055.1z" style="fill:#10294C;"/>
	<path d="M531.7,1067c-14.3-12.7-33.7-30-47.4-48.5c-2.3,1.3-4.6,2.8-6.7,4.4c12.6,17.1,29.6,33,43.5,45.4
		c0.9-0.1,1.7-0.1,2.6-0.2c2.7-0.2,5.4-0.6,8-1L531.7,1067z" style="fill:#FFFFFF;"/>
</g>
<g>
	<path d="M874.7,41.8c-10.1-4.2-20.5-7.8-31-10.8l-83.2,86.8c-0.9,0.9-0.9,2.5,0,3.4c0,0,0,0,0,0l9.7,9.3
		c1,0.9,1,2.4,0.1,3.4s-0.9,2.5,0.1,3.4l17.8,17.2c1,0.9,2.5,0.9,3.4-0.1c0,0,0,0,0,0l66.6-69.1c3.1-3.2,4.7-7.5,4.5-11.9l-0.5-11.8
		c-0.2-4.2,1.4-8.2,4.3-11.2L874.7,41.8z M841.5,76.6c-1.6,2.8-3.4,5.4-5.4,7.8c-2,2.4-4,4.8-6.2,7c-2.2,2.2-4.5,4.4-6.9,6.4
		c-2.4,2.1-4.9,4-7.6,5.8c-2,1.3-4.7,0.7-6-1.3c-0.9-1.4-0.9-3.1-0.1-4.5c1.6-2.7,3.5-5.3,5.5-7.8c1.9-2.5,4-4.8,6.2-7.1
		c2.2-2.3,4.4-4.5,6.8-6.5c2.4-2.1,4.9-4,7.6-5.7c2.1-1.2,4.8-0.6,6,1.5C842.2,73.6,842.3,75.2,841.5,76.6L841.5,76.6z" style="fill:#10294C;"/>
	<path d="M779.5,475.9c-16.8,0.1-33.4-3.3-48.8-10c-25.1-11.3-40.1-30.4-42.3-53.7c-0.2-2.2,1.4-4.2,3.6-4.4
		s4.2,1.4,4.4,3.6c1.9,20.3,15.3,37,37.7,47.1c33.8,15.2,78.5,11.6,106.3-8.6c14.9-10.8,31.7-31.4,27.6-68c-0.2-2.2,1.4-4.2,3.6-4.4
		c2.2-0.2,4.1,1.3,4.4,3.5c4.5,40.4-14.3,63.3-30.8,75.4C827.3,469.3,803.5,475.9,779.5,475.9z" style="fill:#FFFFFF;"/>
	<path d="M747.4,121.3l-22.5,10.5c-1.2,0.6-1.7,2-1.2,3.2c0,0,0,0,0,0l98.1,208.9c0.6,1.2,2,1.7,3.2,1.2c0,0,0,0,0,0
		l12.2-5.7c1.2-0.6,2.6,0,3.2,1.2c0.6,1.2,2,1.7,3.2,1.2c0,0,0,0,0,0l22.5-10.5c1.2-0.6,1.7-2,1.2-3.2l-40.6-87
		c-1.9-4-5.3-7.1-9.5-8.5l-11.2-3.8c-3.9-1.3-7.2-4.2-8.9-8l-46.5-98.3C750,121.3,748.6,120.8,747.4,121.3
		C747.4,121.3,747.4,121.3,747.4,121.3z M812.5,253.5c2,2.5,3.8,5.1,5.4,7.9c1.6,2.7,3,5.5,4.3,8.4c1.3,2.9,2.5,5.7,3.6,8.7
		c1.1,3,2,6,2.6,9.1c0.5,2.4-1.1,4.7-3.4,5.1c-1.6,0.3-3.2-0.3-4.3-1.6c-2-2.5-3.7-5.1-5.3-7.9c-1.6-2.7-3-5.5-4.4-8.3
		c-1.4-2.8-2.6-5.7-3.6-8.7c-1.1-3-2-6.1-2.6-9.2c-0.4-2.4,1.2-4.7,3.6-5.1C810,251.7,811.5,252.3,812.5,253.5L812.5,253.5z" style="fill:#10294C;"/>
	<path d="M884.3,345.9l-7.8-23.5c-0.4-1.2-1.8-1.9-3-1.5l-219,72.9c-1.2,0.4-1.9,1.7-1.5,3l4.2,12.8
		c0.4,1.2-0.3,2.6-1.5,3c-1.2,0.4-1.9,1.7-1.5,3l7.8,23.5c0.4,1.2,1.7,1.9,3,1.5l91.2-30.1c4.2-1.4,7.6-4.4,9.5-8.4l5.1-10.6
		c1.8-3.8,5-6.6,9-7.9l103.1-34.5C884.1,348.5,884.7,347.2,884.3,345.9C884.3,345.9,884.3,345.9,884.3,345.9z M745.4,395.1
		c-2.7,1.7-5.5,3.2-8.5,4.4c-2.9,1.3-5.8,2.4-8.8,3.3c-3,1-6,1.8-9.1,2.5c-3.1,0.7-6.2,1.3-9.4,1.5c-2.4,0.2-4.5-1.6-4.7-4
		c-0.1-1.6,0.7-3.2,2-4.1c2.7-1.7,5.5-3.1,8.5-4.3c2.9-1.3,5.8-2.4,8.8-3.4c3-1,6-1.9,9-2.6c3.1-0.8,6.2-1.3,9.4-1.5
		c2.4-0.1,4.5,1.7,4.6,4.1C747.5,392.7,746.7,394.2,745.4,395.1L745.4,395.1z" style="fill:#10294C;"/>
	<path d="M904.2,321.5c-8.7-9.3-28.3-31.9-68.8-21.8c-1.2,0.2-2.3,0.5-3.4,0.9l0,0c-16.5,5.2-28.5,21.9-28.5,41.8
		c-0.2,13.1,5.4,25.7,15.3,34.3c11.9,11.4,26,16.5,54.9,15.7C907.8,391.5,913.1,331,904.2,321.5z" style="fill:#10294C;"/>
	<ellipse cx="873.6" cy="348.9" rx="39.4" ry="43.5" style="fill:#F04E23;"/>
	<path d="M876.8,374c-12.8,0-23.2-11.3-23.2-25.1s10.4-25.1,23.2-25.1s23.2,11.3,23.2,25.1S889.5,374,876.8,374z
		 M876.8,331.8c-8.4,0-15.2,7.7-15.2,17.1s6.8,17.1,15.2,17.1s15.2-7.7,15.2-17.1S885.1,331.8,876.8,331.8L876.8,331.8z" style="fill:#10294C;"/>
	<path d="M807.8,118.4c-8.7-9.3-28.3-31.9-68.8-21.8c-1.2,0.2-2.3,0.6-3.4,0.9l0,0c-16.5,5.2-28.5,21.9-28.5,41.8
		c-0.2,13.1,5.4,25.7,15.3,34.3c11.9,11.4,26,16.4,54.9,15.7C811.4,188.4,816.8,127.9,807.8,118.4z" style="fill:#10294C;"/>
	<ellipse cx="777.2" cy="145.8" rx="39.4" ry="43.5" style="fill:#F04E23;"/>
	<path d="M780.4,170.9c-12.8,0-23.2-11.3-23.2-25.1s10.4-25.1,23.2-25.1s23.2,11.3,23.2,25.1S793.2,170.9,780.4,170.9z
		 M780.4,128.7c-8.4,0-15.2,7.7-15.2,17.1s6.8,17.1,15.2,17.1s15.2-7.7,15.2-17.1S788.8,128.7,780.4,128.7z" style="fill:#10294C;"/>
	<path d="M811.9,215.4c81.9-4.9,115.8-49.2,128.7-75.2c8-15.9,12.3-33.4,12.6-51.2c-2.7-2.2-5.4-4.4-8.1-6.5
		c0.8,18.7-3.2,37.3-11.6,54.1c-12.2,24.4-44.2,66.1-122,70.8c-19,1.1-36.3,8.8-48.8,21.7c-11.5,11.9-18.3,27.7-18.7,43.3
		c-0.4,14.7,5.3,28.9,15.6,39.3c11.6,11.7,29.1,19.1,50.7,21.2c0.1,0,0.3,0,0.4,0c2.2,0.1,4.1-1.6,4.2-3.8s-1.6-4.1-3.8-4.2
		c-44.3-4.5-59.6-30-59.1-52.4C752.5,246.6,773.7,217.7,811.9,215.4z" style="fill:#FFFFFF;"/>
	<g>
		<path d="M269.2,257.3C269.2,257.3,269.2,257.3,269.2,257.3c1.6-4.4,5.9-7.2,10.6-7c44.6,2.3,205.7,13.3,392.2,59.9
			c4.5,1.1,7.7,5,8.1,9.5c2.6,32.6,11.5,163.8,0.5,286.7c-0.4,4.9-4.2,8.9-9.1,9.6c-0.9,0-1.7,0.1-2.6,0.1c-0.5,0-1-0.1-1.5-0.2
			c-164.5-38.8-344.4-58.8-389.2-63.5c-5.8-0.6-10.1-5.8-9.5-11.6c10.7-117.9,2.9-240.8,0-279C268.5,260.3,268.7,258.8,269.2,257.3z
			 M662.3,579.2c6.6-98.1,1.7-196.4-1.4-241.9c-0.4-5.4-4.2-9.9-9.4-11.2c-152.2-36.7-285.4-49.6-347.7-54
			c-6.8-0.5-12.7,4.7-13.2,11.5c0,0.5,0,1.1,0,1.6c3,49,6.8,142.6,0,236c-0.5,6.6,4.4,12.5,11,13.2c64.5,7.2,207.3,25.1,345.7,55.9
			c6.7,1.5,13.3-2.7,14.8-9.4C662.2,580.4,662.3,579.8,662.3,579.2z" style="fill:#FDB813;"/>
		<path d="M453.8,563.4c2.5-0.3,5.1-0.3,7.6-0.1c2.5,0.2,5,0.4,7.5,0.8s4.9,0.9,7.4,1.5c2.5,0.6,4.9,1.4,7.2,2.4
			c1.3,0.6,1.8,2,1.3,3.3c-0.4,0.8-1.1,1.4-2,1.5l0,0c-2.5,0.2-5.1,0.3-7.6,0.1c-2.5-0.2-5-0.5-7.5-0.8s-4.9-0.9-7.4-1.5
			c-2.5-0.6-4.9-1.4-7.2-2.5l0,0c-1.2-0.5-1.7-1.9-1.2-3.2C452.3,564,453,563.5,453.8,563.4L453.8,563.4z" style="fill:#10294C;"/>
		<path d="M495.8,167l-5.6-6.1c-1.5-1.6-1.4-4.1,0.2-5.6c0.3-0.3,0.6-0.5,1-0.7l6.7-3.2c1.9-0.9,4.2-0.1,5.2,1.8
			l2.8,5.5c0.8,1.6,0.5,3.5-0.8,4.7l-3.9,3.7C499.8,168.7,497.3,168.6,495.8,167z" style="fill:#FFFFFF;"/>
		<path d="M713.9,301.2c2.5,32.6,11.2,165.2,0.3,288.1c-1.4,15.8-20.5,25.7-42.7,26.8c4.9-0.7,8.6-4.7,9.1-9.6
			c10.9-122.9,2-254.1-0.5-286.7c-0.4-4.6-3.6-8.4-8.1-9.5c-186.5-46.6-347.6-57.6-392.2-59.9c-4.7-0.2-8.9,2.6-10.6,6.9
			c6.1-20.5,28.7-26.4,44.5-25.5c44.6,2.3,205.7,13.3,392.1,59.9C710.3,292.8,713.6,296.6,713.9,301.2z" style="fill:#10294C;"/>
		<path d="M660.9,337.3c3.1,45.4,8,143.7,1.4,241.9c-0.5,6.8-6.4,12-13.2,11.5c-0.6,0-1.2-0.1-1.8-0.3
			c-138.4-30.8-281.1-48.7-345.7-55.9c-6.6-0.7-11.5-6.5-11-13.2c6.8-93.4,3-187,0-236c-0.4-6.8,4.8-12.7,11.6-13.1
			c0.5,0,1.1,0,1.6,0c62.2,4.4,195.4,17.3,347.7,54C656.7,327.5,660.5,332,660.9,337.3z" style="fill:#10294C;"/>
		<path d="M354.5,442.2c3.7-6.8,9.5-22,17.4-30c1.3-1.3,3.5-1.4,4.8-0.1c0.2,0.2,0.3,0.4,0.5,0.6
			c4.7,7.3,10.9,24,15.8,36.3c0.4,1.1,1.4,1.9,2.5,2.1c3.5,0.7,7,1.3,10.6,2c1.8,0.4,3.6-0.9,4-2.7c0.1-0.6,0.1-1.2-0.1-1.8
			c-13-38.1-26.5-56-27.3-57c-2.7-3.4-7.5-4-11-1.5c-16.5,12.1-27.5,37-32.9,47.5c-0.9,1.7-0.2,3.7,1.4,4.6c0.3,0.2,0.7,0.3,1.1,0.4
			c3.1,0.4,6.3,0.9,9.7,1.4C352.5,444.1,353.8,443.4,354.5,442.2z" style="fill:#F04E23;"/>
		<path d="M565.2,478.5c3.7-6.8,9.5-22,17.4-30c1.3-1.3,3.5-1.4,4.8,0c0.2,0.2,0.3,0.4,0.5,0.6
			c4.7,7.3,10.9,24,15.8,36.3c0.4,1.1,1.4,1.9,2.5,2.1c3.5,0.7,7,1.3,10.6,2c1.9,0.3,3.6-0.9,4-2.7c0.1-0.6,0.1-1.2-0.1-1.8
			c-13-38.1-26.5-56-27.3-57c-2.7-3.4-7.5-4-11-1.5c-16.5,12.1-27.5,37-32.9,47.5c-0.9,1.7-0.2,3.7,1.5,4.6c0.3,0.2,0.7,0.3,1.1,0.3
			c3.1,0.4,6.3,0.9,9.7,1.4C563.1,480.4,564.5,479.7,565.2,478.5z" style="fill:#F04E23;"/>
		<path d="M508.2,467.7c-24.4-5.5-49.8-8.9-63.3-10.4c-4.2-0.5-8,2.5-8.6,6.7c-0.1,1.2,0,2.3,0.4,3.5
			c10.8,30.7,68.8,40.8,77.3,9.9c1.2-4.1-1.2-8.4-5.4-9.6C508.4,467.7,508.3,467.7,508.2,467.7z" style="fill:#F04E23;"/>
		<path d="M685.7,307.2c1-1.5,2.2-2.8,3.6-3.8c1.4-1,2.8-1.9,4.4-2.6c1.6-0.7,3.2-1.2,4.9-1.5c1.7-0.3,3.5-0.3,5.2,0
			c1.4,0.3,2.3,1.6,2.1,3c-0.1,0.6-0.5,1.2-1,1.6l-0.2,0.1c-1.2,0.9-2.5,1.6-3.9,2.3c-1.3,0.7-2.6,1.3-3.9,1.8s-2.7,1.1-4.1,1.6
			c-1.4,0.5-2.9,0.9-4.4,1.2l-0.3,0.1c-1.3,0.2-2.6-0.7-2.8-2C685.3,308.3,685.4,307.7,685.7,307.2L685.7,307.2z" style="fill:#FDB813;"/>
		<path d="M704.4,547.7c-1.6,0.4-3.1,0.8-4.6,1.5c-1.6,0.6-3.4-0.1-4-1.7c-0.2-0.5-0.3-1-0.2-1.4
			c0.4-4.7,0.5-9.4,0.4-14.1c0-1.2,0.6-2.2,1.6-2.8c1.9-1,3.9-1.9,5.9-2.5c1.6-0.5,3.4,0.4,3.9,2.1c0.1,0.3,0.1,0.6,0.1,0.9
			c0,5.2-0.2,10.3-0.7,15.5C706.6,546.3,705.7,547.4,704.4,547.7z" style="fill:#F04E23;"/>
		<path d="M703.5,571.3c-1.5,0.4-3,0.8-4.5,1.4c-1.6,0.6-3.4-0.1-4.1-1.8c-0.2-0.5-0.3-0.9-0.2-1.4
			c0.2-1.8,0.2-3.6,0-5.3c-0.1-1.2,0.5-2.4,1.6-3c1.9-1,3.8-1.8,5.9-2.4c1.7-0.5,3.4,0.5,3.9,2.1c0.1,0.3,0.1,0.5,0.1,0.8
			c0,2.3-0.1,4.7-0.4,7C705.7,570,704.8,571,703.5,571.3z" style="fill:#FDB813;"/>
	</g>
</g>
<g>
	<path d="M229.8,902.7L229.8,902.7l-56.1-24.1c-2.9-1.2-6.1-1.2-9,0l-7.7,3.3c-2.7,1.2-5.8,1.2-8.5,0l-61.2-25.7
		c5.1,10.4,10.8,20.5,17.1,30.2l113.6,48.2l0,0C226.3,938.1,241.6,907.8,229.8,902.7z M197.3,906.6c-0.7,0.9-1.9,1.4-3,1.2
		c-2.2-0.4-4.4-0.9-6.5-1.7c-2.1-0.7-4.2-1.5-6.2-2.3c-2-0.8-4.1-1.8-6-2.9c-2-1-3.9-2.3-5.7-3.6c-1.3-1.1-1.6-3-0.5-4.4
		c0.7-0.9,1.8-1.3,2.9-1.2c2.2,0.3,4.4,0.9,6.6,1.6c2.1,0.7,4.2,1.5,6.3,2.4c2,0.9,4.1,1.8,6,2.9c2,1,3.9,2.2,5.7,3.6
		C198.1,903.3,198.3,905.3,197.3,906.6C197.3,906.6,197.3,906.6,197.3,906.6z" style="fill:#10294C;"/>
	<path d="M247.3,903.1c-2.2-0.2-4.1,1.4-4.3,3.6c0,0,0,0,0,0c-1.9,20-15.9,37.2-38.6,47.1c-9.1,3.9-18.8,6.5-28.6,7.7
		c3.1,2.2,6.2,4.4,9.4,6.5c7.7-1.5,15.2-3.8,22.4-6.9c25.5-11.1,41.3-30.7,43.4-53.7C251.1,905.3,249.5,903.3,247.3,903.1
		C247.3,903.1,247.3,903.1,247.3,903.1z" style="fill:#FFFFFF;"/>
	<path d="M328.8,657.2l-0.1-0.3c-1.3-4.3-3-8.4-4.9-12.5c-1.9-4-4-8-6.2-11.9s-4.6-7.7-7.2-11.4
		c-2.6-3.8-5.4-7.3-8.5-10.7c-3.4-3.5-8.5-4.7-13-3c-5.7,2.2-8.9,8.2-7.7,14.2c0.8,4.3,2,8.5,3.4,12.6c1.5,4.3,3.1,8.4,4.9,12.5
		c1.3,2.9,2.6,5.7,4,8.5l0,0l0.1,0.2l0.6,1.2c5,10.3,13.4,38.1,20.4,47.6c0.6,1.2,1.5,2.2,2.8,2.8h0.1l0,0c0.7,0.3,1.5,0.5,2.3,0.5
		c2.9-0.1,5.3-2.3,5.6-5.2l4.2-35.5C329.4,663.6,329.1,660.4,328.8,657.2z" style="fill:#10294C;"/>
	<path d="M301.8,707.3l-7.5-32c-0.5-2.1-1.4-4.1-2.8-5.8l-1.2-1.6c-2.4-3.1-5.1-6.1-8-8.8c-2.9-2.7-5.9-5.3-9-7.7
		s-6.3-4.7-9.7-6.9c-3.4-2.2-6.9-4.1-10.6-5.7c-4.4-1.9-9.4-1-13,2.1c-4.4,4.1-5.4,10.7-2.2,15.8c2,3.3,4.2,6.4,6.7,9.4
		c2.2,2.7,4.6,5.3,7,7.8l0,0c7.3,7.6,30.3,32.9,41.5,39.3c0.5,0.4,1.1,0.7,1.8,0.9h0.1l0,0c1.2,0.4,2.5,0.3,3.6-0.1
		C301.1,713,302.5,710.1,301.8,707.3z" style="fill:#10294C;"/>
	<path d="M288.2,721.8l-15.9-19.3c-0.9-1-2-1.8-3.2-2.3l-3-1.1c-2.6-1.2-5.4-2.1-8.3-2.7c-2.8-0.6-5.7-1.1-8.5-1.3
		c-2.9-0.3-5.8-0.4-8.7-0.2c-3,0.1-6.1,0.5-9,1.2c-3.3,0.9-6.2,3-7.9,6c-3.3,6-1.4,13.6,4.4,17.3c2.3,1.5,4.8,2.8,7.4,3.8
		c2.7,1.1,5.4,2,8.3,2.8c2.6,0.7,5.2,1.2,7.9,1.6l0,0h0.3h0.3h0.4c7.6,1,23.9,3.5,31,3.7h0.8c0.3,0,0.6,0,0.8-0.1
		c1.4-0.3,2.6-1.1,3.4-2.2C290.1,726.9,289.9,723.9,288.2,721.8z" style="fill:#10294C;"/>
	<path d="M362.8,848.5l-56.6,22.8c-2.9,1.2-5.2,3.5-6.3,6.4l-3.1,7.8c-1.1,2.7-3.3,4.9-6,6l-51.8,21
		c-0.9,0.4-1.3,1.3-0.9,2.2c0,0,0,0,0,0l6.6,16.2c0.4,0.9,1.3,1.3,2.2,0.9l130.2-52.6l0,0C385.4,875.9,374.7,843.7,362.8,848.5
		L362.8,848.5z M342.7,874.3c0.2,1.1-0.3,2.3-1.2,2.9c-1.8,1.3-3.8,2.5-5.8,3.5c-2,1-4,2-6,2.8c-2,0.9-4.1,1.6-6.3,2.3
		c-2.1,0.7-4.4,1.2-6.6,1.5c-1.7,0.2-3.3-1-3.5-2.7c-0.1-1.1,0.3-2.2,1.2-2.8c1.8-1.3,3.7-2.5,5.8-3.5c2-1,4-1.9,6.1-2.8
		c2.1-0.8,4.1-1.6,6.3-2.2c2.1-0.7,4.3-1.2,6.6-1.5C340.9,871.5,342.5,872.6,342.7,874.3z" style="fill:#10294C;"/>
	
		<rect x="339.9" y="733.9" transform="matrix(0.8589 -0.5122 0.5122 0.8589 -355.4535 291.0196)" width="21" height="113.2" style="fill:#10294C;"/>
	
		<ellipse transform="matrix(0.8589 -0.5122 0.5122 0.8589 -328.9285 266.0061)" cx="318.2" cy="729.9" rx="34.9" ry="38.5" style="fill:#F04E23;"/>
	<path d="M410,844.4c-5.4-5.8-17.6-19.8-42.8-13.6c-0.7,0.2-1.4,0.3-2.1,0.6l0,0c-10.2,3.2-17.7,13.6-17.7,26
		c-0.1,8.2,3.4,16,9.5,21.3c7.4,7.1,16.1,10.3,34.1,9.8C412.3,888,415.6,850.3,410,844.4z" style="fill:#10294C;"/>
	<ellipse cx="391" cy="861.5" rx="24.5" ry="27" style="fill:#F04E23;"/>
	<path d="M393,877.6c-8.2,0-14.9-7.2-14.9-16.1s6.7-16.1,14.9-16.1s14.9,7.2,14.9,16.1S401.2,877.6,393,877.6z
		 M393,851.3c-4.9,0-8.9,4.5-8.9,10.1s4,10.1,8.9,10.1s8.9-4.5,8.9-10.1S397.9,851.3,393,851.3L393,851.3z" style="fill:#10294C;"/>
	
		<ellipse transform="matrix(0.9105 -0.4136 0.4136 0.9105 -267.5798 204.2026)" cx="337.8" cy="720.1" rx="5" ry="5.5" style="fill:#10294C;"/>
	
		<ellipse transform="matrix(0.8599 -0.5105 0.5105 0.8599 -314.6346 266.1192)" cx="327.4" cy="706.1" rx="5" ry="5.5" style="fill:#10294C;"/>
	<path d="M254.6,915c-2.1,0-3.8-1.5-4-3.6c-3-27.8,6.9-51.7,27.1-65.6c22.1-15.2,52.1-15.7,80.3-1.3
		c2,0.9,2.9,3.3,2,5.3c-0.9,2-3.3,2.9-5.3,2c-0.1,0-0.2-0.1-0.3-0.2c-25.5-13-52.5-12.7-72.1,0.8c-17.7,12.2-26.3,33.4-23.7,58.2
		c0.2,2.2-1.4,4.2-3.6,4.4c0,0,0,0,0,0C254.9,915,254.7,915,254.6,915z" style="fill:#FFFFFF;"/>
	<path d="M267,902.7c-5.4-5.8-17.6-19.8-42.8-13.6c-0.7,0.2-1.4,0.3-2.1,0.6l0,0c-10.2,3.2-17.7,13.6-17.7,26
		c-0.1,8.2,3.4,16,9.5,21.3c7.4,7.1,16.2,10.2,34.1,9.8C269.3,946.2,272.6,908.6,267,902.7z" style="fill:#10294C;"/>
	<ellipse cx="248" cy="919.8" rx="24.5" ry="27" style="fill:#F04E23;"/>
	<path d="M250,935.9c-8.2,0-14.9-7.2-14.9-16.1s6.7-16.1,14.9-16.1c8.2,0,14.9,7.2,14.9,16.1S258.2,935.9,250,935.9z
		 M250,909.6c-4.9,0-8.9,4.5-8.9,10.1s4,10.1,8.9,10.1s8.9-4.5,8.9-10.1S254.9,909.6,250,909.6z" style="fill:#10294C;"/>
	<path d="M391.1,693.5c0.6,2.8,0.9,5.7,0.8,8.5c0,2.7-0.2,5.5-0.6,8.2c-0.4,2.7-0.9,5.3-1.7,7.9
		c-0.7,2.6-1.8,5.2-3.1,7.6l-4.2,7.3c-0.9,1.5-2.4,2.5-4.1,2.7l-30.2,3.6c-3.2,0.4-6-1.9-6.4-5c-0.2-1.9,0.5-3.7,1.9-5l22.6-20.4
		l-8.2,10c-0.1-2.7,0.1-5.5,0.7-8.2c0.5-2.7,1.2-5.3,2.1-7.8c0.9-2.6,1.9-5.1,3.1-7.6c1.3-2.6,2.8-5,4.6-7.2
		c4.6-5.5,12.8-6.3,18.3-1.7C389,688.2,390.5,690.7,391.1,693.5L391.1,693.5z" style="fill:#10294C;"/>
	<path d="M337.7,626.6c5.7-2.1,11.4-3.9,17.3-5.4c5.9-1.5,11.8-2.6,17.9-3.4c1.5-0.2,3-0.4,4.5-0.6s3-0.3,4.5-0.4
		c3-0.3,6.1-0.4,9.1-0.5c1.5,0,3,0,4.6-0.1h2.3l2.3,0.1l4.6,0.1l4.5,0.3c1.5,0.1,3,0.2,4.5,0.4s3,0.3,4.5,0.5c3,0.4,6,0.8,9,1.4
		c6,1.1,11.9,2.5,17.7,4.2c5.8,1.7,11.5,3.8,17.1,6.1c2.8,1.2,5.6,2.4,8.3,3.8s5.4,2.8,8,4.2c0.9,0.5,1.2,1.6,0.7,2.5
		c-0.5,0.8-1.4,1.1-2.3,0.8h0c-10.7-4.9-21.9-8.9-33.3-12c-1.4-0.4-2.9-0.7-4.3-1.1s-2.9-0.7-4.3-1c-2.9-0.6-5.8-1.2-8.7-1.7
		s-5.8-0.9-8.7-1.3c-1.5-0.2-2.9-0.3-4.4-0.5s-2.9-0.3-4.4-0.4c-5.9-0.5-11.8-0.6-17.6-0.5s-11.8,0.5-17.6,1.1
		c-11.8,1.3-23.4,3.5-34.8,6.7c-0.9,0.2-1.9-0.3-2.1-1.3C336.4,627.9,336.9,627,337.7,626.6L337.7,626.6z" style="fill:#10294C;"/>
	<path d="M399.8,643.1c3.6,0.4,7.2,0.8,10.8,1.2c3.6,0.6,7.1,1.3,10.7,1.9c3.5,0.8,7,1.8,10.5,2.6s6.9,2.2,10.4,3.3
		c13.7,4.8,26.8,11.4,38.8,19.5c12.1,8.1,23,17.7,32.6,28.7c2.3,2.8,4.6,5.6,6.9,8.4c2.1,2.9,4.2,5.9,6.3,8.8l5.7,9.3
		c1.7,3.2,3.3,6.4,5,9.6c0.5,0.9,0.1,2-0.7,2.4c-0.9,0.5-1.9,0.2-2.4-0.7l-0.1-0.1c-1.8-3-3.6-6-5.4-9.1l-6-8.7
		c-2.2-2.8-4.2-5.6-6.4-8.4s-4.6-5.3-6.9-8c-9.5-10.3-20.2-19.5-31.9-27.4c-11.7-7.8-24.2-14.3-37.3-19.4c-3.3-1.2-6.6-2.4-10-3.5
		s-6.8-2-10.2-2.9s-6.9-1.6-10.3-2.4c-3.5-0.6-7-1.2-10.4-1.8h-0.1c-0.9-0.1-1.6-1-1.5-2C397.9,643.6,398.8,643,399.8,643.1
		L399.8,643.1z" style="fill:#10294C;"/>
	<path d="M369.8,663c7.7-1.5,15.6-2.2,23.5-2c15.9,0.3,31.5,3.7,46.1,10c7.3,3.1,14.2,7,20.6,11.6
		c0.8,0.6,1,1.7,0.4,2.5c-0.5,0.7-1.5,1-2.3,0.5l0,0c-6.7-3.6-13.6-6.8-20.7-9.6c-14.2-5.4-29.1-8.7-44.2-9.7
		c-7.6-0.5-15.2-0.4-22.9,0.1l0,0c-1,0-1.8-0.7-1.8-1.7C368.4,663.9,369,663.2,369.8,663L369.8,663z" style="fill:#10294C;"/>
</g>
<g>
	<path d="M259.5,293.3c1,2.5,2.1,4.9,3.4,7.2v0.1c1.1,1.9,3.5,2.6,5.3,1.5c0.9-0.5,1.6-1.4,1.9-2.4
		c7.6-28.3,51.3-61.8,83.4-64.9c2.2-0.2,3.8-2.1,3.6-4.3c-0.1-0.9-0.4-1.7-1-2.3c-1.4-1.5-2.7-2.8-3.4-3.5c-3.9-3.8-8-7.4-12.3-11
		c-8.7-7.2-17.9-13.9-27.4-20c-9.7-6.3-19.8-12.4-30.5-18.1c-5.4-2.8-10.9-5.6-16.6-8.2s-11.6-5.1-17.9-7.4
		c-0.3-0.1-0.6-0.2-0.9-0.2c-2.3-0.2-4.3,1.4-4.5,3.7c0,0,0,0,0,0c-0.7,6.7-0.8,13-0.9,19.4s0.1,12.4,0.4,18.5
		c0.7,12.1,1.8,23.9,3.5,35.3c1.5,11.2,3.7,22.4,6.5,33.4c1.4,5.4,2.9,10.6,4.7,15.8C257.6,288.3,258.5,290.8,259.5,293.3z" style="fill:#FFFFFF;"/>
	<g>
		<defs>
			<path id="SVGID_1_" d="M259.5,293.3c1,2.5,2.1,4.9,3.4,7.2v0.1c1.1,1.9,3.5,2.6,5.3,1.5c0.9-0.5,1.6-1.4,1.9-2.4
				c7.6-28.3,51.3-61.8,83.4-64.9c2.2-0.2,3.8-2.1,3.6-4.3c-0.1-0.9-0.4-1.7-1-2.3c-1.4-1.5-2.7-2.8-3.4-3.5c-3.9-3.8-8-7.4-12.3-11
				c-8.7-7.2-17.9-13.9-27.4-20c-9.7-6.3-19.8-12.4-30.5-18.1c-5.4-2.8-10.9-5.6-16.6-8.2s-11.6-5.1-17.9-7.4
				c-0.3-0.1-0.6-0.2-0.9-0.2c-2.3-0.2-4.3,1.4-4.5,3.7c0,0,0,0,0,0c-0.7,6.7-0.8,13-0.9,19.4s0.1,12.4,0.4,18.5
				c0.7,12.1,1.8,23.9,3.5,35.3c1.5,11.2,3.7,22.4,6.5,33.4c1.4,5.4,2.9,10.6,4.7,15.8C257.6,288.3,258.5,290.8,259.5,293.3z"/>
		</defs>
		<clipPath id="SVGID_2_">
			<use xlink:href="#SVGID_1_" style="overflow:visible;"/>
		</clipPath>
		<g style="clip-path:url(#SVGID_2_);">
			<circle cx="266.6" cy="266.7" r="7.2" style="fill:#00ACDC;"/>
			<circle cx="285.5" cy="244.9" r="7.2" style="fill:#FDB813;"/>
			<circle cx="313.7" cy="227.5" r="7.2" style="fill:#F04E23;"/>
			<circle cx="255.4" cy="204.6" r="7.2" style="fill:#FDB813;"/>
			<circle cx="288.3" cy="185.4" r="7.2" style="fill:#FDB813;"/>
			<circle cx="345.2" cy="219.3" r="7.2" style="fill:#FDB813;"/>
			<circle cx="258" cy="235.2" r="7.2" style="fill:#F04E23;"/>
			<circle cx="284.2" cy="212.9" r="7.2" style="fill:#00ACDC;"/>
			<circle cx="258" cy="176.9" r="7.2" style="fill:#F04E23;"/>
			<circle cx="317.6" cy="200.6" r="7.2" style="fill:#F04E23;"/>
		</g>
	</g>
</g>
</svg>
