<?xml version="1.0" encoding="iso-8859-1"?>
<!-- Generator: Adobe Illustrator 23.0.2, SVG Export Plug-In . SVG Version: 6.00 Build 0)  -->
<svg version="1.1" id="delete_confirmation" xmlns="http://www.w3.org/2000/svg" xmlns:xlink="http://www.w3.org/1999/xlink"
	 x="0px" y="0px" viewBox="0 0 1080 1080" style="enable-background:new 0 0 1080 1080;" xml:space="preserve">
<g>
	<path style="fill:#FF3A00;" d="M870.77,152.47c5.13,16.848-1.327,35.071-15.92,44.93c5.67-4.67,5.15-14.16-6.8-18.14
		s-7.23-17.21,2.49-17s11.68-6.21,10.48-8.73c-2.39-5,6.13-11,9.4-2.17c0.09,0.25,0.17,0.49,0.25,0.74S870.74,152.35,870.77,152.47z
		"/>
	<path style="fill:#04294F;" d="M870.42,151.4c-3.27-8.81-11.79-2.8-9.4,2.17c1.2,2.52-0.75,9-10.48,8.73s-14.46,13-2.49,17
		s12.47,13.47,6.8,18.14l0,0c-4.207,2.853-8.928,4.863-13.9,5.92c3.3-14.27,0-26.13-24.59-2.46
		c-8.604-3.787-15.605-10.477-19.78-18.9c-0.23-0.45-0.44-0.89-0.65-1.36c-2-6.16,8.47-11.12,16.63-4.9s15.88-2.06,9.61-11.32
		c-8.66-12.77,4.53-12.54,6.92-18.95c3.35-9-5.69-10.49,1.41-21.32c0.65,0,1.29,0,1.94,0
		C849.635,124.146,864.916,135.11,870.42,151.4z M850.26,142.23c0.65-4.67-3.06-7.24-7.4-5s-4.86,6.15-0.85,12.08
		C846.79,156.42,849.62,146.9,850.26,142.23z"/>
	<path style="fill:#FF3A00;" d="M842.86,137.24c4.34-2.25,8,0.32,7.4,5s-3.47,14.19-8.25,7.09
		C838,143.39,838.5,139.49,842.86,137.24z"/>
	<path style="fill:#FF3A00;" d="M816.34,200.86c24.58-23.67,27.89-11.81,24.59,2.46l0,0c-8.252,1.793-16.86,0.928-24.59-2.47V200.86
		z"/>
	<path style="fill:#FF3A00;" d="M830.5,124.17c-7.1,10.83,1.94,12.32-1.41,21.32c-2.39,6.41-15.58,6.18-6.92,18.95
		c6.27,9.26-1.45,17.55-9.61,11.32s-18.67-1.26-16.63,4.9c-9.095-20.175-0.113-43.903,20.062-52.998
		C820.566,125.6,825.488,124.415,830.5,124.17L830.5,124.17z"/>
</g>
<g>
	<path style="fill:#00AEE0;" d="M562.94,680.56L543.33,645l0,0l-5.33-9.63l0,0l-4-7.2l-15-27.16l-0.06-0.65L402.63,564.9l0,0
		l-3.47-1.06l-259.98-79.13L139,485.3l132.17,231.36L354.32,742l43.54,13.25V767l10.51,3.19l60.16,18.32v-11.78L600.67,817
		l45.09,13.73L562.94,680.56z M439.32,775.49c-0.237,0.316-0.605,0.508-1,0.52c-0.986,0.027-1.972-0.053-2.94-0.24
		c-1.893-0.337-3.738-0.908-5.49-1.7c-0.905-0.391-1.763-0.88-2.56-1.46c-0.547-0.403-0.663-1.173-0.26-1.72l0,0
		c0.225-0.29,0.564-0.469,0.93-0.49c0.985-0.034,1.971,0.04,2.94,0.22c0.95,0.155,1.889,0.372,2.81,0.65
		c0.922,0.269,1.825,0.603,2.7,1c0.906,0.382,1.768,0.862,2.57,1.43c0.577,0.409,0.713,1.208,0.304,1.784
		C439.323,775.486,439.321,775.488,439.32,775.49z M465,776.72h-0.12c-2.78-0.61-5.53-1.35-8.29-2l-8.23-2.22
		c-5.48-1.51-10.9-3.17-16.36-4.75c-5.41-1.73-10.84-3.37-16.23-5.18l-8.07-2.75c-2.67-1-5.35-1.9-8-2.94h-0.1
		c-0.775-0.302-1.159-1.174-0.86-1.95c0.293-0.726,1.089-1.112,1.84-0.89l65.19,19.85c0.789,0.232,1.241,1.06,1.009,1.85
		c-0.003,0.01-0.006,0.02-0.009,0.03C466.507,776.49,465.746,776.899,465,776.72z M355.59,730.11L283.06,708L170.53,511l0.18-0.54
		L254.33,536l152.25,46.45l26.79,8.17l35.16,10.74l0,0l39.79,12.15l0.06,0.53l8.44,15.31l3.18,5.75l2.45,4.46l31.06,56.3l0,0
		l62.79,113.77L355.59,730.11z"/>
	<path style="fill:#04294F;" d="M553.53,695.86L553.53,695.86l-31.06-56.3l-2.47-4.49l-3.18-5.75L508.4,614l-0.06-0.53l-39.79-12.15
		l0,0l-35.16-10.74l-26.79-8.17L254.33,536l-83.62-25.52l-0.18,0.54L283.06,708l72.53,22.12l260.71,79.51L553.53,695.86z
		 M294.19,697.4L200.8,535.5l135.37,41.17L427.49,738L294.19,697.4z M453.19,746.48l-93.4-161.91l135.38,41.17L586.48,787
		L453.19,746.48z"/>
	<path style="fill:#04294F;" d="M489.77,632.46l-112.94-34.34l81.7,141.62l111.12,33.8L489.77,632.46z M433.42,649.4l7.18-7
		l29.93,30.88l9.13-18.2l10.73,5.38l-11,21.94l32.35,33.38l-7.18,7l-29.93-30.87l-9.13,18.2l-10.73-5.38l11-22L433.42,649.4z"/>
	<path style="fill:#04294F;" d="M330.78,583.39L217.85,549l81.69,141.63l111.12,33.8L330.78,583.39z M284.56,645.74l8.88-8.07
		l14.25,15.68l19.94-42l10.84,5.14l-27.62,58.17L284.56,645.74z"/>
	<polygon style="fill:#04294F;" points="399.13,563.84 402.63,564.9 518.99,600.33 526.56,592.59 385.36,550.52 148.93,480.09 
		139,484.65 139.18,484.7 	"/>
	<path style="fill:#FFFFFF;" d="M576.69,683.46l-3.69-6.61l-11.73-21.27l-15.68-28.42l-19.07-34.57l-7.52,7.74l0.06,0.65l15,27.16
		l4,7.2l0,0l5.28,9.55l0,0l19.61,35.61l82.82,150.13l3.28-7.17c0.58-1.6,1.173-3.19,1.78-4.77
		c-5.507-9.127-10.88-18.323-16.12-27.59l-7.94-14.18L619,762.67c-5.18-9.507-10.303-19.053-15.37-28.64
		c-4.63-8.84-9.24-17.69-13.69-26.63l-3.6-6.4l-0.06-0.12L576.69,683.46z"/>
	<path style="fill:#00AEE0;" d="M336.17,576.67L200.8,535.5l93.39,161.9l133.3,40.6L336.17,576.67z M299.54,690.67L217.85,549
		l112.93,34.35l79.88,141.08L299.54,690.67z"/>
	<path style="fill:#FF3A00;" d="M495.16,625.74l-135.38-41.17l93.4,161.91L586.48,787L495.16,625.74z M458.53,739.74l-81.7-141.62
		l112.94,34.34l79.88,141.08L458.53,739.74z"/>
	<polygon style="fill:#FF3A00;" points="454.76,704.73 465.49,710.11 474.62,691.91 504.55,722.78 511.73,715.82 479.38,682.44 
		490.39,660.5 479.66,655.12 470.53,673.32 440.6,642.44 433.42,649.4 465.78,682.78 	"/>
	<polygon style="fill:#00AEE0;" points="327.63,611.37 307.69,653.36 293.44,637.67 284.56,645.74 310.85,674.68 338.47,616.51 	"/>
	<path style="fill:#00AEE0;" d="M619,762.67l7.81,14.25l7.94,14.18c5.26,9.28,10.63,18.497,16.11,27.65
		c-0.613,1.58-1.207,3.17-1.78,4.77c-0.34,0.92-0.68,1.84-1,2.77c-0.079,0.224,0.013,0.473,0.22,0.59
		c0.238,0.131,0.538,0.052,0.68-0.18c1.44-2.51,2.81-5,4.16-7.59c0.149-0.288,0.149-0.632,0-0.92l-0.05-0.1
		c-4.867-9.68-9.867-19.29-15-28.83L630.27,775l-7.88-14.21c-5.287-9.46-10.62-18.883-16-28.27c-5.44-9.38-10.9-18.74-16.55-28
		c-0.164-0.269-0.507-0.369-0.79-0.23c-0.297,0.146-0.42,0.506-0.273,0.803c0.001,0.002,0.002,0.004,0.003,0.007l1.15,2.3
		c4.45,8.94,9.06,17.79,13.69,26.63C608.667,743.61,613.793,753.157,619,762.67z"/>
	<path style="fill:#04294F;" d="M465.79,773.8L400.6,754c-0.751-0.222-1.547,0.164-1.84,0.89c-0.299,0.776,0.085,1.648,0.86,1.95
		h0.1c2.66,1,5.34,2,8,2.94l8.07,2.75c5.39,1.81,10.82,3.45,16.23,5.18c5.46,1.58,10.88,3.24,16.36,4.75l8.23,2.22
		c2.76,0.67,5.51,1.41,8.29,2h0.12c0.756,0.167,1.517-0.265,1.76-1c0.25-0.784-0.182-1.622-0.966-1.873
		C465.806,773.805,465.798,773.802,465.79,773.8z"/>
	<path style="fill:#04294F;" d="M436.48,772.27c-0.875-0.397-1.778-0.731-2.7-1c-0.921-0.278-1.86-0.495-2.81-0.65
		c-0.969-0.18-1.955-0.254-2.94-0.22c-0.366,0.021-0.705,0.2-0.93,0.49c-0.403,0.547-0.287,1.317,0.26,1.72l0,0
		c0.797,0.58,1.655,1.069,2.56,1.46c1.752,0.792,3.597,1.363,5.49,1.7c0.968,0.187,1.954,0.267,2.94,0.24
		c0.395-0.012,0.763-0.204,1-0.52c0.42-0.569,0.299-1.37-0.27-1.79l0,0C438.268,773.13,437.396,772.65,436.48,772.27z"/>
</g>
<g>
	<path style="fill:none;" d="M425.37,508.92L419,515.5l-0.48,0.5h0.06l6.89-7.14h-0.12L425.37,508.92z"/>
	<path style="fill:#00AEE0;" d="M723.05,332c-0.734-0.67-0.786-1.809-0.115-2.543c0.1-0.109,0.212-0.205,0.335-0.287l12.23-8.1
		c0.83-0.547,1.059-1.664,0.511-2.494c-0.249-0.378-0.632-0.648-1.071-0.756L719.75,314c-0.891-0.226-1.466-1.091-1.33-2l4.46-26.34
		c0.182-0.972-0.458-1.907-1.43-2.089c-0.568-0.107-1.153,0.068-1.57,0.469L698,304.22c-0.737,0.675-1.882,0.625-2.557-0.112
		c-0.076-0.083-0.144-0.172-0.203-0.268l-4.09-6.68c-0.517-0.849-1.625-1.117-2.474-0.6c-0.304,0.185-0.546,0.457-0.696,0.78
		l-4.52,9.87c-0.4,0.875-1.418,1.28-2.31,0.92l-20.79-8.41c-0.924-0.368-1.97,0.083-2.338,1.007c-0.162,0.408-0.17,0.86-0.022,1.273
		l8.09,22.33c0.256,0.72,0.027,1.523-0.57,2L651.7,337.3c-0.781,0.615-0.915,1.747-0.299,2.528c0.317,0.402,0.789,0.65,1.299,0.682
		l13.84,0.88c0.869,0.053,1.574,0.724,1.67,1.59l0.5,4.36c0.08,0.772,0.65,1.403,1.41,1.56l3.23,0.69l4.2-2.33
		c-4.004-9.364,0.341-20.201,9.705-24.205s20.201,0.341,24.205,9.705s-0.341,20.201-9.705,24.205
		c-2.278,0.974-4.728,1.479-7.205,1.485c-0.65,0-1.27-0.05-1.89-0.11l1.38,7.74c0.176,0.978,1.112,1.629,2.09,1.453
		c0.453-0.081,0.857-0.333,1.13-0.703l1.83-2.48c0.584-0.797,1.704-0.97,2.502-0.386c0.003,0.002,0.005,0.004,0.008,0.006
		l14.52,10.65c0.801,0.589,1.928,0.417,2.516-0.384c0.258-0.35,0.38-0.782,0.344-1.216l-1.68-20.45
		c-0.079-0.946,0.591-1.791,1.53-1.93l17.68-2.57c0.984-0.14,1.668-1.052,1.528-2.036c-0.06-0.418-0.264-0.802-0.578-1.084
		L723.05,332z"/>
	<path style="fill:#FFB400;" d="M713,340c-0.001-10.184-8.258-18.439-18.442-18.438s-18.439,8.258-18.438,18.442
		c0,2.487,0.504,4.949,1.48,7.236l10.42-7c2.421-1.625,5.702-0.979,7.326,1.442c0.941,1.403,1.154,3.171,0.574,4.758l-4.34,11.78
		l1.09,0.13c0.62,0.06,1.24,0.11,1.89,0.11c10.184,0,18.44-8.256,18.44-18.44C713,340.013,713,340.007,713,340z"/>
	<path style="fill:#04294F;" d="M673,368.48c-2.352-1.905-4.827-3.652-7.41-5.23c-2.515-1.574-5.158-2.936-7.9-4.07
		c-0.33-0.13-0.65-0.23-1-0.35l-22,12.2c8.91,4.14,17.302,9.315,25,15.42c6.982,5.483,13.374,11.68,19.07,18.49l6.47-23.77
		c-1.652-2.374-3.513-4.596-5.56-6.64C677.588,372.363,675.359,370.342,673,368.48z"/>
	<path style="fill:#04294F;" d="M624.82,428.43c-7.413-5.85-15.221-11.179-23.37-15.95c-7.038-4.2-14.417-7.799-22.06-10.76
		l-44.9,24.92c19.2,6,42,18.34,64.13,35.69s39.53,36.54,50,53.74l13.48-49.51c-4.826-6.874-10.222-13.33-16.13-19.3
		C639.359,440.507,632.293,434.215,624.82,428.43z"/>
	<path style="fill:#04294F;" d="M653.56,394.3c-4.884-3.895-10.029-7.45-15.4-10.64c-4.406-2.653-9.014-4.957-13.78-6.89l-32.46,18
		c5.238,2.258,10.358,4.781,15.34,7.56c8.701,4.953,17.036,10.524,24.94,16.67c12.4,9.82,24,20.82,33.65,33.65l9.84-36.19
		c-2.529-3.38-5.282-6.588-8.24-9.6C663.123,402.35,658.481,398.153,653.56,394.3z"/>
	<path style="fill:#04294F;" d="M695.87,346.43c1.003-2.738-0.404-5.771-3.142-6.774c-1.586-0.581-3.355-0.368-4.758,0.574l-10.42,7
		l-4.2,2.33l-8.35,4.68c4.645,2.124,9.011,4.811,13,8c3.62,2.866,6.916,6.119,9.83,9.7l3.73-13.71L695.87,346.43z"/>
	<path style="fill:#00AEE0;" d="M598.62,462.33c-22.15-17.35-44.93-29.68-64.13-35.69c-20.26-6.37-36.51-5.71-43.71,3.49L488,433
		c0.434,0.431,0.547,1.09,0.28,1.64c-1.595,3.209-3.501,6.253-5.69,9.09c-2.105,2.794-4.369,5.465-6.78,8
		c-2.378,2.571-4.96,4.945-7.72,7.1c-1.413,1.082-2.885,2.083-4.41,3c-1.582,0.982-3.257,1.806-5,2.46
		c-0.449,0.161-0.95,0.043-1.28-0.3l-17.25,17.51c18.08-14.75,67.3,1.2,113.87,37.7s73.76,80.52,63.77,101.58l37.82-61.41
		c7.22-9.2,4-25.14-7-43.31C638.15,498.87,620.76,479.68,598.62,462.33z M499.62,462.01c-1.401,1.161-2.863,2.246-4.38,3.25
		c-0.77,0.5-1.55,1-2.37,1.45s-1.59,1-2.41,1.44c-0.689,0.386-1.561,0.14-1.946-0.55c-0.222-0.397-0.242-0.876-0.054-1.29
		c0.38-0.87,0.79-1.71,1.23-2.53s0.8-1.67,1.23-2.48c0.876-1.598,1.834-3.15,2.87-4.65c2.069-2.927,4.366-5.685,6.87-8.25
		c2.338-2.716,4.889-5.241,7.63-7.55c1.401-1.16,2.863-2.245,4.38-3.25c0.77-0.5,1.55-1,2.36-1.45s1.59-1,2.42-1.44
		c0.67-0.408,1.543-0.196,1.951,0.474c0.017,0.028,0.033,0.057,0.049,0.086c0.218,0.394,0.24,0.867,0.06,1.28
		c-0.39,0.87-0.8,1.71-1.23,2.53s-0.81,1.67-1.24,2.48c-0.873,1.6-1.831,3.153-2.87,4.65c-2.066,2.927-4.359,5.685-6.86,8.25
		c-2.366,2.711-4.94,5.232-7.7,7.54L499.62,462.01z M524.28,471.17c-2.743,2.534-5.716,4.807-8.88,6.79
		c-0.668,0.422-1.551,0.223-1.973-0.445c-0.009-0.015-0.018-0.03-0.027-0.045c-0.24-0.388-0.278-0.869-0.1-1.29
		c1.478-3.429,3.272-6.714,5.36-9.81c2.01-3.057,4.187-6.002,6.52-8.82c2.298-2.855,4.812-5.53,7.52-8
		c1.388-1.235,2.84-2.397,4.35-3.48c1.548-1.154,3.202-2.159,4.94-3c0.604-0.287,1.325-0.03,1.612,0.573
		c0.003,0.005,0.005,0.011,0.008,0.017c0.123,0.266,0.145,0.569,0.06,0.85c-0.554,1.844-1.28,3.632-2.17,5.34
		c-0.847,1.653-1.778,3.262-2.79,4.82c-2.016,3.05-4.266,5.939-6.73,8.64c-2.423,2.76-4.997,5.384-7.71,7.86L524.28,471.17z
		 M546.75,483.31c-1.359,1.303-2.788,2.531-4.28,3.68c-1.532,1.205-3.173,2.266-4.9,3.17c-0.588,0.307-1.312,0.079-1.619-0.509
		c-0.004-0.007-0.007-0.014-0.011-0.021c-0.136-0.265-0.171-0.571-0.1-0.86c0.52-1.879,1.21-3.706,2.06-5.46
		c0.809-1.711,1.703-3.379,2.68-5c1.959-3.16,4.151-6.168,6.56-9c2.377-2.849,4.907-5.566,7.58-8.14
		c2.696-2.661,5.632-5.068,8.77-7.19c0.664-0.437,1.557-0.253,1.994,0.412c0.002,0.003,0.004,0.006,0.006,0.008
		c0.25,0.383,0.299,0.864,0.13,1.29c-1.404,3.517-3.128,6.898-5.15,10.1c-1.949,3.158-4.065,6.209-6.34,9.14
		c-2.244,2.979-4.715,5.781-7.39,8.38L546.75,483.31L546.75,483.31z M567.11,497.09c-2.643,2.769-5.531,5.293-8.63,7.54
		c-0.644,0.457-1.537,0.305-1.994-0.339c-0.266-0.375-0.335-0.855-0.186-1.291c1.324-3.59,2.974-7.051,4.93-10.34
		c1.878-3.249,3.931-6.394,6.15-9.42c2.171-3.054,4.575-5.936,7.19-8.62c1.333-1.358,2.739-2.643,4.21-3.85
		c1.507-1.269,3.127-2.397,4.84-3.37c0.584-0.324,1.321-0.113,1.645,0.471c0.002,0.003,0.003,0.006,0.005,0.009
		c0.142,0.263,0.185,0.568,0.12,0.86c-0.477,1.911-1.127,3.776-1.94,5.57c-0.768,1.74-1.626,3.439-2.57,5.09
		c-1.885,3.241-4.014,6.333-6.37,9.25c-2.313,2.947-4.787,5.765-7.41,8.44L567.11,497.09L567.11,497.09z M586.58,513.09
		c-1.307,1.403-2.686,2.739-4.13,4c-1.482,1.326-3.082,2.514-4.78,3.55c-0.575,0.34-1.317,0.15-1.657-0.426
		c-0.001-0.001-0.002-0.003-0.003-0.004c-0.153-0.259-0.203-0.566-0.14-0.86c0.43-1.941,1.035-3.839,1.81-5.67
		c0.729-1.775,1.55-3.511,2.46-5.2c1.813-3.319,3.872-6.498,6.16-9.51c2.26-3.037,4.677-5.954,7.24-8.74
		c2.586-2.864,5.421-5.495,8.47-7.86c0.63-0.476,1.527-0.352,2.003,0.278c0.284,0.375,0.365,0.865,0.217,1.312
		c-1.249,3.653-2.822,7.187-4.7,10.56c-1.808,3.326-3.79,6.554-5.94,9.67c-2.117,3.136-4.463,6.111-7.02,8.9H586.58z M595.99,539.09
		c-0.618,0.492-1.518,0.389-2.009-0.229c-0.292-0.367-0.385-0.853-0.251-1.301c1.169-3.705,2.665-7.299,4.47-10.74
		c1.733-3.398,3.649-6.7,5.74-9.89c2.04-3.217,4.32-6.276,6.82-9.15c1.259-1.453,2.595-2.838,4-4.15
		c1.453-1.371,3.026-2.609,4.7-3.7c0.564-0.359,1.312-0.193,1.671,0.37c0.164,0.258,0.225,0.569,0.169,0.87
		c-0.391,1.963-0.957,3.887-1.69,5.75c-0.69,1.805-1.471,3.574-2.34,5.3c-1.758,3.386-3.764,6.638-6,9.73
		c-2.193,3.12-4.546,6.124-7.05,9c-2.501,2.936-5.251,5.649-8.22,8.11L595.99,539.09z M643.71,549.82
		c1.429-1.497,2.981-2.872,4.64-4.11c0.539-0.361,1.267-0.233,1.65,0.29c0.185,0.253,0.261,0.57,0.21,0.88
		c-0.327,2.041-0.835,4.049-1.52,6c-0.64,1.92-1.39,3.78-2.2,5.59c-1.651,3.595-3.562,7.064-5.72,10.38
		c-2.11,3.35-4.393,6.588-6.84,9.7c-2.447,3.199-5.171,6.178-8.14,8.9c-0.581,0.522-1.474,0.478-2-0.1
		c-0.316-0.357-0.435-0.847-0.32-1.31c1.065-3.887,2.463-7.674,4.18-11.32c1.649-3.6,3.478-7.114,5.48-10.53
		c1.965-3.432,4.17-6.72,6.6-9.84c1.27-1.59,2.56-3.11,3.97-4.56L643.71,549.82z M635,520.1c0.601-0.499,1.492-0.424,2,0.17
		c0.3,0.366,0.404,0.854,0.28,1.31c-1.093,3.761-2.516,7.418-4.25,10.93c-1.668,3.461-3.518,6.833-5.54,10.1
		c-1.981,3.294-4.203,6.436-6.65,9.4c-1.259,1.494-2.594,2.923-4,4.28c-1.426,1.425-2.979,2.717-4.64,3.86
		c-0.556,0.367-1.304,0.22-1.68-0.33c-0.165-0.258-0.229-0.568-0.18-0.87c0.348-1.983,0.873-3.931,1.57-5.82
		c0.651-1.837,1.395-3.639,2.23-5.4c1.681-3.469,3.613-6.812,5.78-10c2.126-3.202,4.419-6.289,6.87-9.25
		C629.276,525.452,632.023,522.647,635,520.1z"/>
	<path style="fill:#04294F;" d="M640.79,925.78c-7,18.22-36.72,25.51-47.33,28.11c-25.62,6.28-59.46,9.75-95.28,9.75
		c-21.795,0.077-43.571-1.313-65.18-4.16l0,0l-1.24-0.17l0,0c-7.47-1-14.59-2.28-21.26-3.68l0,0c-2.62-0.55-5.18-1.12-7.65-1.73
		c-10.61-2.6-40.28-9.89-47.33-28.11c-2.286-5.922-1.999-12.528,0.79-18.23C347.38,924.89,352,940.32,358,947l0,0
		c9.88,14.72,35.18,20.93,44.82,23.29c25.62,6.3,59.46,9.77,95.28,9.77h0.11c35.82,0,69.66-3.47,95.28-9.77
		c9.64-2.36,34.94-8.57,44.82-23.29l0,0c6-6.66,10.59-22.09,1.71-39.43c2.786,5.702,3.075,12.306,0.8,18.23L640.79,925.78z"/>
	<path style="fill:#00AEE0;" d="M628.16,917.57c0,17.62-58.2,31.92-130,31.92c-19.128,0.046-38.241-1.043-57.24-3.26l0,0
		c-2.853-0.34-5.637-0.703-8.35-1.09l0,0c-4.967-0.713-9.713-1.5-14.24-2.36l0,0c-30.58-5.84-50.25-15-50.25-25.21l2.09-7.67
		l5.28-19.32c-7.92,3.94-15.24,9.29-18.95,16.46l-0.26,0.51c-2.789,5.702-3.076,12.308-0.79,18.23
		c7.05,18.22,36.72,25.51,47.33,28.11c2.47,0.61,5,1.18,7.65,1.73l0,0c6.67,1.4,13.79,2.63,21.26,3.68l0,0l1.24,0.17l0,0
		c21.609,2.847,43.385,4.237,65.18,4.16c35.82,0,69.66-3.47,95.28-9.75c10.61-2.6,40.28-9.89,47.33-28.11
		c2.275-5.924,1.986-12.528-0.8-18.23l-0.25-0.51c-3.71-7.17-11-12.52-19-16.46l5.28,19.32L628.16,917.57z"/>
	<path style="fill:#04294F;" d="M468.53,776.73v11.77l-60.16-18.32l0,0L344.7,750.8L334,764.47l0,0l-2.65,3.38l0,0L321.78,780l0,0
		l-2.65,3.37l0,0l-9.62,12.26l0,0l-2.27,2.89l0,0l-12.37,15.76l0,0l196.52,59.9l33.06-68.67l6.83,15.09l-31.35,50.91l-5.42,8.79l0,0
		l0,0l-104.19-31.66l0,0l-3.13-1l-11.72,42.89l-5.28,19.32l-2.09,7.67c0,10.25,19.67,19.37,50.25,25.21l0,0
		c4.52,0.86,9.267,1.647,14.24,2.36l0,0c2.72,0.387,5.503,0.75,8.35,1.09l0,0c18.999,2.217,38.112,3.306,57.24,3.26
		c71.78,0,130-14.3,130-31.92l-2.09-7.67l-5.28-19.32L600.67,817L468.53,776.73z M327.93,781.88l19.47,5.93l8.69-12.43l-18.61-5.66
		l2.65-3.37l18.36,5.59l6.15-8.8l4,1.23l-6.14,8.79l22.05,6.71l5.85-8.88l4,1.22l-5.86,8.88l22.11,6.73l5.58-9l4,1.21l-5.58,9
		l22.17,6.75l5.3-9l3.94,1.19l-5.3,9.05l22.24,6.72l5-9.13l3.91,1.19l-5,9.13l22.29,6.79l4.75-9.22l3.89,1.18l-4.75,9.22l18.47,5.62
		l-1.76,3.65l-18.57-5.66l-6.71,13l19,5.77l-1.83,3.72l-19.06-5.81l-6.76,13.13l19.45,5.92l-1.76,3.64l-19.56-6l-5.66,11l-3.89-1.18
		l5.66-11l-23.38-7.12l-6,10.89l-3.91-1.19l6-10.89l-23.34-7.11l-6.32,10.79l-3.93-1.2l6.31-10.79L392.25,825l-6.64,10.68l-4-1.21
		l6.64-10.67L365,816.72l-7,10.57l-4-1.22l7-10.56l-23.18-7.06l-7.31,10.45l-4-1.23l7.3-10.45L313,800.89l2.65-3.38l20.58,6.27
		l8.77-12.52l-19.72-6L327.93,781.88z M526.05,846.75c0.005-0.276,0.234-0.495,0.51-0.49l0,0c0.236,0.011,0.432,0.186,0.47,0.42
		c1.23,7.72,2.05,15.47,2.81,23.22s1.31,15.52,1.76,23.29c0.26,3.893,0.483,7.78,0.67,11.66c0.187,3.88,0.363,7.77,0.53,11.67
		c0.3,7.78,0.54,15.57,0.53,23.37c-0.005,0.335-0.275,0.605-0.61,0.61c-0.306,0.002-0.564-0.226-0.6-0.53
		c-1-7.73-1.84-15.48-2.57-23.23c-0.36-3.88-0.71-7.76-1-11.64s-0.62-7.76-0.88-11.64c-0.58-7.77-1-15.54-1.33-23.32
		S525.85,854.56,526.05,846.75z M399.78,903.23c-0.66,2.69-1.37,5.37-2.09,8c-1.45,5.35-3,10.69-4.72,16
		c-0.115,0.316-0.466,0.479-0.782,0.364c-0.262-0.096-0.426-0.357-0.398-0.634c0.73-5.52,1.7-11,2.72-16.43
		c0.52-2.72,1.05-5.45,1.63-8.16s1.14-5.42,1.76-8.12c1.17-5.41,2.5-10.79,3.93-16.15s3-10.68,4.95-15.92
		c0.098-0.256,0.383-0.385,0.64-0.29c0.206,0.082,0.336,0.288,0.32,0.51c-0.54,5.56-1.49,11-2.49,16.49s-2.2,10.86-3.5,16.24
		C401.12,897.85,400.47,900.55,399.78,903.23z M435.29,909.14c-0.28,1.9-0.62,3.79-1,5.69c-0.7,3.78-1.45,7.56-2.46,11.31
		c-0.085,0.326-0.419,0.521-0.745,0.435c-0.266-0.07-0.453-0.31-0.455-0.585c0-3.88,0.16-7.73,0.42-11.57
		c0.14-1.92,0.29-3.84,0.49-5.75s0.37-3.82,0.61-5.73c0.41-3.82,1-7.63,1.66-11.41c0.666-3.811,1.564-7.578,2.69-11.28
		c0.086-0.262,0.365-0.409,0.63-0.33c0.199,0.062,0.339,0.242,0.35,0.45c0.17,3.867,0.11,7.74-0.18,11.6
		c-0.28,3.83-0.68,7.66-1.23,11.46C435.87,905.34,435.59,907.24,435.29,909.14L435.29,909.14z M466.29,921.07
		c-0.2,2.43-0.47,4.84-0.73,7.26c-0.55,4.84-1.17,9.66-2,14.48c-0.055,0.327-0.365,0.547-0.692,0.491
		c-0.003,0-0.006-0.001-0.008-0.001c-0.282-0.052-0.491-0.293-0.5-0.58c-0.2-4.88-0.14-9.75,0-14.61c0.07-2.43,0.14-4.86,0.27-7.29
		s0.22-4.86,0.39-7.28c0.27-4.85,0.69-9.7,1.22-14.53s1.21-9.66,2.26-14.46c0.019-0.276,0.259-0.484,0.535-0.465
		s0.484,0.259,0.465,0.535c0.38,4.89,0.35,9.76,0.26,14.63s-0.38,9.71-0.78,14.56c-0.23,2.42-0.43,4.85-0.67,7.26L466.29,921.07z
		 M497.67,942.77c-0.52-4.35-0.8-8.7-1-13c-0.1-2.17-0.2-4.35-0.24-6.52s-0.1-4.35-0.11-6.53c-0.07-4.34,0-8.69,0.22-13
		c0.192-4.353,0.616-8.692,1.27-13c0-0.276,0.224-0.5,0.5-0.5s0.5,0.224,0.5,0.5c0.654,4.308,1.078,8.647,1.27,13
		c0.2,4.35,0.29,8.7,0.21,13c0,2.18,0,4.35-0.1,6.53s-0.14,4.35-0.24,6.52c-0.22,4.35-0.5,8.7-1,13
		c-0.061,0.337-0.384,0.56-0.721,0.499c-0.254-0.046-0.453-0.245-0.499-0.499H497.67z M579.6,817.08
		c0.239-0.035,0.469,0.109,0.54,0.34c2.8,9,5.19,18,7.53,27.11s4.46,18.2,6.5,27.35c1.04,4.573,2.04,9.147,3,13.72
		c1,4.58,2,9.16,2.91,13.75c1.88,9.18,3.71,18.38,5.29,27.63c0.034,0.335-0.211,0.634-0.546,0.668
		c-0.277,0.028-0.538-0.136-0.634-0.398c-2.61-9-5-18.09-7.29-27.17c-1.15-4.54-2.29-9.09-3.38-13.64s-2.19-9.11-3.24-13.68
		c-2.16-9.107-4.187-18.253-6.08-27.44c-1.86-9.19-3.66-18.39-5.06-27.68c-0.034-0.274,0.161-0.524,0.435-0.558
		C579.583,817.081,579.592,817.081,579.6,817.08z M551.13,808.23c0.247-0.014,0.465,0.157,0.51,0.4c2,10.48,3.67,21,5.25,31.57
		s2.94,21.11,4.21,31.7c0.66,5.28,1.3,10.58,1.89,15.87s1.2,10.6,1.77,15.9c1.11,10.6,2.16,21.21,3,31.85
		c0.034,0.324-0.202,0.614-0.526,0.648c-0.011,0.001-0.022,0.002-0.034,0.003c-0.311,0.025-0.589-0.192-0.64-0.5
		c-1.86-10.51-3.46-21-5-31.6c-0.77-5.27-1.53-10.55-2.24-15.83s-1.43-10.56-2.1-15.85c-1.387-10.567-2.647-21.153-3.78-31.76
		c-1.09-10.6-2.12-21.22-2.74-31.88C550.682,808.49,550.871,808.261,551.13,808.23L551.13,808.23z"/>
	<path style="fill:#04294F;" d="M554,519.21c-46.57-36.5-95.79-52.45-113.87-37.7l-2.81,2.86c-3.34,4.26-4.62,9.85-4,16.39
		l1.05-1.07c4.783-4.879,11.884-6.691,18.42-4.7l82.79,25.14c9.157,2.785,16.909,8.953,21.68,17.25l41.91,72.92
		c3.348,5.829,3.241,13.023-0.28,18.75l-2.1,3.4c8.38-0.48,14.92-3.15,18.91-8.23l2.11-3.43C627.79,599.73,600.58,555.71,554,519.21
		z"/>
	<path style="fill:#00AEE0;" d="M617.8,620.79l-2.11,3.43C616.526,623.164,617.234,622.012,617.8,620.79z"/>
	<polygon style="fill:#FFB400;" points="402.6,564.9 402.63,564.9 399.13,563.84 	"/>
	<path style="fill:#FFB400;" d="M499.54,524.81l27.22,8.27L499.54,524.81z"/>
	<path style="fill:#FFB400;" d="M599.16,610.3l-41.91-72.92c-4.771-8.297-12.523-14.465-21.68-17.25L452.78,495
		c-6.536-1.991-13.637-0.179-18.42,4.7l-1.05,1.07L432.1,502l25.2,7.14c5.367,1.552,9.298,6.147,10,11.69
		c2.81,0.7,4.74,2.15,4.74,3.83c0,2.36-3.84,4.28-8.57,4.28s-8.57-1.92-8.57-4.28c0-1.59,1.73-3,4.28-3.71
		c-0.524-2.006-2.086-3.576-4.09-4.11l-27.37-7.75c-0.721-0.253-1.492-0.331-2.25-0.23l-6.86,7.14l25.41,7.2
		c5.367,1.552,9.298,6.147,10,11.69c2.8,0.7,4.73,2.15,4.73,3.83c0,2.36-3.83,4.28-8.56,4.28s-8.57-1.92-8.57-4.28
		c0-1.59,1.72-3,4.28-3.71c-0.528-2.004-2.088-3.572-4.09-4.11l-27.37-7.75c-1.8-0.48-2.36-0.2-2.37-0.2l0,0l-6.33,6.58l-2.4,2.49
		l25.18,7.13c5.367,1.552,9.298,6.147,10,11.69c2.8,0.7,4.73,2.15,4.73,3.83c0,2.36-3.84,4.28-8.57,4.28s-8.57-1.92-8.57-4.28
		c0-1.59,1.73-3,4.28-3.71c-0.522-2.004-2.08-3.573-4.08-4.11L399,539.13c-1.8-0.48-2.36-0.2-2.36-0.2l0,0l-6.34,6.58l-2.75,2.85
		v-0.1l-2.16,2.24l141.2,42.07l19.07,34.57c4.72-4.88,10.4-7.74,16.51-7.74c5.62,0,10.88,2.41,15.36,6.6l0,0l12.64,11.15
		c0.867,0.588,1.689,1.24,2.46,1.95l4.13-6.71l0,0l2.1-3.4C602.363,623.282,602.478,616.118,599.16,610.3z M486.5,529.37
		c-1.334-0.415-2.079-1.833-1.664-3.167c0.113-0.362,0.306-0.695,0.564-0.973l5.8-6.21c1.017-1.096,2.572-1.512,4-1.07l31.52,9.57
		c1.34,0.416,2.088,1.839,1.672,3.179c-0.093,0.298-0.239,0.576-0.432,0.821l-1.19,1.55l-4.68,5.76
		c-0.653,0.818-1.741,1.151-2.74,0.84l-30-9.42l0,0L486.5,529.37z M494.32,543.37c-2.52-0.83-5-1.74-7.5-2.74
		c-2.497-0.988-4.934-2.12-7.3-3.39c-0.294-0.176-0.39-0.556-0.214-0.85c0.121-0.203,0.348-0.32,0.584-0.3
		c2.664,0.326,5.309,0.8,7.92,1.42c2.6,0.6,5.17,1.29,7.71,2.07c2.55,0.76,5.07,1.61,7.54,2.62c2.51,0.991,4.929,2.199,7.23,3.61
		c0.238,0.154,0.309,0.469,0.16,0.71c-0.099,0.156-0.276,0.244-0.46,0.23c-2.696-0.165-5.373-0.563-8-1.19
		c-2.59-0.62-5.14-1.37-7.67-2.21L494.32,543.37L494.32,543.37z M531.5,550.87c-1.44,1.94-2.903,3.86-4.39,5.76
		c-2.93,3.84-6,7.58-9.1,11.26s-6.4,7.26-9.94,10.62c-0.189,0.193-0.5,0.196-0.693,0.007c-0.002-0.002-0.005-0.005-0.007-0.007
		c-0.154-0.159-0.182-0.4-0.07-0.59c2.41-4.24,5.15-8.23,7.94-12.18s5.74-7.77,8.76-11.52c1.5-1.9,3-3.78,4.56-5.64
		s3.08-3.71,4.65-5.55c3.15-3.66,6.35-7.28,9.75-10.76c0.24-0.236,0.626-0.233,0.863,0.007c0.195,0.199,0.231,0.504,0.087,0.743
		c-2.56,4.12-5.32,8.09-8.13,12c-1.41,1.98-2.78,3.91-4.28,5.83L531.5,550.87L531.5,550.87z M544,590.19c-2.14,0-3.88-3.14-3.88-7
		s1.74-7,3.88-7s3.88,3.15,3.88,7S546.14,590.19,544,590.19z M555.64,572.7c-2.14,0-3.88-3.15-3.88-7s1.74-7,3.88-7
		s3.88,3.14,3.88,7S557.78,572.7,555.64,572.7z"/>
	<path style="fill:#FFFFFF;" d="M524.45,805.52L524.45,805.52L524.45,805.52z"/>
	<polygon style="fill:#FFFFFF;" points="494.51,880.31 499.93,871.52 531.28,820.61 524.45,805.52 491.39,874.19 491.65,874.71 	"/>
	<path style="fill:#00AEE0;" d="M437.35,484.37l2.81-2.86C439.12,482.356,438.178,483.316,437.35,484.37z"/>
	<polygon style="fill:#00AEE0;" points="390.32,848.64 494.48,880.35 494.48,880.35 494.48,880.35 494.51,880.31 491.65,874.71 
		491.39,874.19 294.87,814.29 298.53,820.69 378,844.89 378,844.89 387.18,847.69 390.31,848.65 	"/>
	<path style="fill:#04294F;" d="M467.42,523.61c-0.15,2.1-1.91,2.52-4,2.52h-0.29c-2.21-0.16-3.86-0.89-3.7-3.1
		c0.045-0.695-0.033-1.392-0.23-2.06c-2.55,0.74-4.28,2.12-4.28,3.71c0,2.36,3.84,4.28,8.57,4.28s8.57-1.92,8.57-4.28
		c0-1.68-1.93-3.13-4.74-3.83C467.448,521.764,467.481,522.689,467.42,523.61z"/>
	<path style="fill:#04294F;" d="M454.15,537.67c-0.16,2.1-1.91,2.52-4,2.52h-0.3c-2.2-0.16-3.85-0.89-3.69-3.1
		c0.04-0.695-0.038-1.391-0.23-2.06c-2.56,0.74-4.28,2.12-4.28,3.71c0,2.36,3.84,4.28,8.57,4.28s8.56-1.92,8.56-4.28
		c0-1.68-1.93-3.13-4.73-3.83C454.173,535.825,454.207,536.749,454.15,537.67z"/>
	<path style="fill:#04294F;" d="M438.66,553.64c-0.15,2.1-1.91,2.52-4,2.52h-0.3c-2.2-0.16-3.86-0.89-3.7-3.1
		c0.045-0.695-0.033-1.392-0.23-2.06c-2.55,0.74-4.28,2.12-4.28,3.71c0,2.36,3.84,4.28,8.57,4.28s8.57-1.92,8.57-4.28
		c0-1.68-1.93-3.13-4.73-3.83C438.683,551.795,438.717,552.719,438.66,553.64z"/>
	<path style="fill:#FF3A00;" d="M390.27,545.53l6.34-6.58l0,0c0,0,0.56-0.28,2.36,0.2l27.38,7.75c2,0.537,3.558,2.106,4.08,4.11
		c0.197,0.668,0.275,1.365,0.23,2.06c-0.16,2.21,1.5,2.94,3.7,3.1h0.3c2.07,0,3.83-0.42,4-2.52c0.064-0.924,0.037-1.852-0.08-2.77
		c-0.702-5.543-4.633-10.138-10-11.69l-25.18-7.13l2.4-2.49l6.33-6.58l0,0c0,0,0.57-0.28,2.37,0.2l27.37,7.75
		c2.002,0.538,3.562,2.106,4.09,4.11c0.192,0.669,0.27,1.365,0.23,2.06c-0.16,2.21,1.49,2.94,3.69,3.1h0.3c2.08,0,3.83-0.42,4-2.52
		c0.061-0.924,0.031-1.852-0.09-2.77c-0.702-5.543-4.633-10.138-10-11.69L418.61,516h-0.06l0.48-0.5l6.34-6.58l0,0h0.12
		c0.758-0.101,1.529-0.023,2.25,0.23l27.37,7.75c2.004,0.534,3.566,2.104,4.09,4.11c0.197,0.668,0.275,1.365,0.23,2.06
		c-0.16,2.21,1.49,2.94,3.7,3.1h0.29c2.08,0,3.84-0.42,4-2.52c0.065-0.924,0.035-1.852-0.09-2.77
		c-0.702-5.543-4.633-10.138-10-11.69L432.1,502l-2.24-0.63c-3.87-1-7-0.62-9.36,1.19c-2.6,2-3.54,5.26-3.85,8.29l0,0
		c-0.21,1.6-0.31,3.21-0.35,4.52c-3.73-0.92-6.78-0.5-9.06,1.26c-2.61,2-3.54,5.26-3.86,8.28l0,0c-0.289,2.322-0.413,4.661-0.37,7
		l-1.9-0.54c-3.87-1-7-0.62-9.36,1.19c-2.6,2-3.53,5.26-3.85,8.28l0,0c-0.301,2.455-0.421,4.928-0.36,7.4v0.1L390.27,545.53z"/>
	<path style="fill:#FF3A00;" d="M584.29,634.75c-0.899-0.18-1.813-0.271-2.73-0.27c-9.18,0-17,8.74-20.25,21.1L573,676.85
		c-0.873-2.844-1.308-5.805-1.29-8.78c0-9.81,4.39-17.76,9.81-17.76s9.81,8,9.81,17.76s-4.4,17.75-9.81,17.75
		c-1.879-0.081-3.642-0.935-4.87-2.36l9.59,17.38c0.556-0.186,1.101-0.407,1.63-0.66c9-4.17,15.46-17,15.46-32.11
		c0-12.32-4.31-23.07-10.73-28.91c-0.771-0.71-1.593-1.362-2.46-1.95C588.373,636.009,586.384,635.172,584.29,634.75z"/>
	<path style="fill:#FFB400;" d="M581.56,685.82c5.41,0,9.81-8,9.81-17.75s-4.4-17.76-9.81-17.76s-9.81,8-9.81,17.76
		c-0.018,2.975,0.417,5.936,1.29,8.78l3.65,6.61C577.918,684.885,579.681,685.739,581.56,685.82z"/>
	<path style="fill:#04294F;" d="M586.34,701l1.57-0.76l0,0c-0.529,0.253-1.074,0.474-1.63,0.66L586.34,701z"/>
	<path style="fill:#04294F;" d="M581.56,634.48c0.917-0.001,1.831,0.09,2.73,0.27c2.108,0.417,4.111,1.254,5.89,2.46l-12.64-11.15
		l0,0c-4.48-4.19-9.74-6.6-15.36-6.6c-6.11,0-11.79,2.86-16.51,7.74l15.68,28.42C564.53,643.22,572.38,634.48,581.56,634.48z"/>
	<circle style="fill:#00AEE0;" cx="708.81" cy="391.43" r="4.04"/>
	<circle style="fill:#00AEE0;" cx="678.29" cy="292.41" r="4.04"/>
	<path style="fill:#00AEE0;" d="M726.31,375c-1.353-0.006-2.454,1.087-2.46,2.44c-0.006,1.353,1.087,2.454,2.44,2.46
		s2.454-1.087,2.46-2.44c0-0.003,0-0.007,0-0.01C728.75,376.101,727.659,375.005,726.31,375z"/>
	<path style="fill:#00AEE0;" d="M740.6,303.23c-1.348,0-2.44,1.092-2.44,2.44s1.092,2.44,2.44,2.44s2.44-1.092,2.44-2.44
		S741.948,303.23,740.6,303.23L740.6,303.23z"/>
	<circle style="fill:#00AEE0;" cx="715.29" cy="436.91" r="2.44"/>
	<circle style="fill:#00AEE0;" cx="642.43" cy="327.01" r="2.44"/>
	<path style="fill:#04294F;" d="M544,576.15c-2.14,0-3.88,3.15-3.88,7s1.74,7,3.88,7s3.88-3.14,3.88-7S546.14,576.15,544,576.15z"/>
	<path style="fill:#04294F;" d="M555.64,558.66c-2.14,0-3.88,3.14-3.88,7s1.74,7,3.88,7s3.88-3.15,3.88-7
		S557.78,558.66,555.64,558.66z"/>
	<path style="fill:#00AEE0;" d="M519.34,539.68c0.999,0.311,2.087-0.022,2.74-0.84l4.68-5.76l-27.22-8.27
		c-1.559-0.473-3.252-0.015-4.36,1.18l-4.41,4.73l-1.45-0.46l0,0L519.34,539.68z"/>
	<path style="fill:#04294F;" d="M495.18,526c1.108-1.195,2.801-1.653,4.36-1.18l0,0l27.22,8.27l1.19-1.55
		c0.869-1.101,0.682-2.698-0.419-3.568c-0.245-0.193-0.523-0.34-0.821-0.432L495.19,518c-1.428-0.442-2.983-0.026-4,1.07l-5.8,6.21
		c-0.952,1.023-0.895,2.623,0.127,3.576c0.278,0.259,0.61,0.452,0.973,0.564l2.82,0.89l1.45,0.46L495.18,526z"/>
	<path style="fill:#04294F;" d="M510.45,546.5c0.149-0.241,0.078-0.556-0.16-0.71c-2.301-1.411-4.72-2.619-7.23-3.61
		c-2.47-1-5-1.86-7.54-2.62s-5.11-1.47-7.71-2.07c-2.612-0.62-5.256-1.094-7.92-1.42c-0.341-0.029-0.641,0.225-0.67,0.566
		c-0.02,0.236,0.096,0.463,0.3,0.584c2.366,1.27,4.803,2.402,7.3,3.39c2.47,1,5,1.91,7.5,2.74s5.08,1.59,7.68,2.19
		c2.627,0.627,5.304,1.025,8,1.19C510.181,546.74,510.353,546.652,510.45,546.5z"/>
	<path style="fill:#FF3A00;" d="M678,362.22c-3.989-3.189-8.355-5.876-13-8c-1.602-0.718-3.245-1.342-4.92-1.87
		c-1.718-0.553-3.481-0.951-5.27-1.19c-1.97-0.278-3.972-0.213-5.92,0.19c-1.148,0.256-2.239,0.72-3.22,1.37
		c-1.09,0.723-1.966,1.725-2.54,2.9c-0.51,1.088-0.767,2.278-0.75,3.48c0.028,1.017,0.193,2.026,0.49,3
		c0.355,1.231,1.641,1.942,2.872,1.587c1.068-0.308,1.768-1.33,1.668-2.437v-0.09c-0.164-1.006,0.046-2.038,0.59-2.9
		c0.209-0.23,0.47-0.408,0.76-0.52c0.41-0.154,0.842-0.242,1.28-0.26c1.229-0.072,2.461,0.053,3.65,0.37
		c1.019,0.25,2.021,0.564,3,0.94c0.33,0.12,0.65,0.22,1,0.35c2.742,1.134,5.385,2.496,7.9,4.07c2.583,1.578,5.058,3.325,7.41,5.23
		c2.378,1.843,4.627,3.848,6.73,6c2.047,2.044,3.908,4.266,5.56,6.64l0.1,0.15c0.782,1.141,1.468,2.345,2.05,3.6
		c0.506,1.025,0.821,2.133,0.93,3.27c0.119,0.649-0.091,1.315-0.56,1.78c-0.905,0.623-1.972,0.97-3.07,1h-0.11
		c-1.326,0.121-2.302,1.294-2.181,2.619c0.106,1.158,1.023,2.075,2.181,2.181c2.127,0.324,4.302-0.026,6.22-1
		c1.163-0.63,2.134-1.563,2.81-2.7c0.637-1.093,1.03-2.311,1.15-3.57c0.142-2.076-0.143-4.159-0.84-6.12
		c-0.601-1.736-1.368-3.41-2.29-5c-1.138-1.942-2.418-3.797-3.83-5.55C684.92,368.221,681.617,365.029,678,362.22z"/>
	<path style="fill:#FF3A00;" d="M659.75,386.45c-7.698-6.105-16.09-11.28-25-15.42c-3.384-1.529-6.861-2.845-10.41-3.94
		c-3.367-1.044-6.832-1.744-10.34-2.09c-1.848-0.182-3.709-0.199-5.56-0.05c-1.997,0.135-3.963,0.556-5.84,1.25
		c-2.094,0.772-3.97,2.038-5.47,3.69c-1.538,1.682-2.577,3.76-3,6c-0.598,3.813-0.102,7.717,1.43,11.26
		c0.527,1.507,2.176,2.301,3.682,1.773c1.427-0.499,2.228-2.013,1.838-3.473v-0.06c-0.69-2.85-0.9-5.76-0.21-7.89
		c0.606-1.979,2.236-3.475,4.26-3.91c2.575-0.594,5.247-0.639,7.84-0.13c2.92,0.479,5.789,1.229,8.57,2.24
		c1,0.34,1.9,0.71,2.85,1.09c4.766,1.933,9.374,4.237,13.78,6.89c5.371,3.19,10.516,6.745,15.4,10.64
		c4.92,3.844,9.562,8.031,13.89,12.53c2.958,3.012,5.711,6.22,8.24,9.6c1.16,1.55,2.27,3.12,3.31,4.72
		c1.593,2.471,2.952,5.086,4.06,7.81c1.032,2.353,1.508,4.913,1.39,7.48c-0.091,2.027-1.307,3.832-3.15,4.68
		c-2.484,1.063-5.183,1.529-7.88,1.36h-0.08c-1.657-0.133-3.107,1.103-3.24,2.76s1.103,3.107,2.76,3.24
		c3.755,0.71,7.631,0.438,11.25-0.79c2.112-0.794,3.985-2.116,5.44-3.84c1.433-1.777,2.399-3.884,2.81-6.13
		c0.574-3.904,0.19-7.888-1.12-11.61c-1.122-3.371-2.594-6.615-4.39-9.68c-2.364-4.032-5.039-7.874-8-11.49
		C673.152,398.141,666.747,391.938,659.75,386.45z"/>
	<path style="fill:#FF3A00;" d="M632.2,419c-7.905-6.136-16.239-11.697-24.94-16.64c-4.982-2.779-10.102-5.302-15.34-7.56
		c-4.051-1.748-8.197-3.263-12.42-4.54c-4.967-1.55-10.075-2.605-15.25-3.15c-2.694-0.278-5.408-0.325-8.11-0.14
		c-2.867,0.158-5.698,0.716-8.41,1.66c-2.968,1.043-5.657,2.753-7.86,5c-2.21,2.315-3.757,5.182-4.48,8.3
		c-0.633,2.846-0.755,5.782-0.36,8.67c0.402,2.661,1.072,5.274,2,7.8c0.552,1.836,2.489,2.877,4.325,2.325s2.877-2.489,2.325-4.325
		v-0.05c-1-4.34-1.37-8.82-0.22-12.27c0.527-1.604,1.457-3.047,2.7-4.19c1.326-1.13,2.893-1.944,4.58-2.38
		c1.93-0.523,3.921-0.786,5.92-0.78c2.156-0.021,4.311,0.14,6.44,0.48c4.473,0.709,8.871,1.827,13.14,3.34
		c1.07,0.38,2.15,0.78,3.21,1.18c7.643,2.961,15.022,6.56,22.06,10.76c16.268,9.622,31.219,21.313,44.48,34.78
		c5.908,5.97,11.304,12.426,16.13,19.3c0.53,0.77,1.07,1.55,1.59,2.33c2.503,3.779,4.674,7.767,6.49,11.92
		c0.855,1.989,1.563,4.038,2.12,6.13c0.511,1.943,0.78,3.941,0.8,5.95c0,3.81-1.25,6.86-4.12,8.86s-7.23,2.91-11.66,3h-0.08
		c-1.999-0.072-3.678,1.491-3.75,3.49s1.491,3.678,3.49,3.75l0,0c2.705,0.238,5.428,0.178,8.12-0.18
		c2.934-0.389,5.765-1.34,8.34-2.8c1.382-0.792,2.65-1.768,3.77-2.9c0.571-0.578,1.096-1.2,1.57-1.86l0.71-1
		c0.23-0.33,0.4-0.7,0.6-1.05c1.48-2.75,2.34-5.792,2.52-8.91c0.35-6-1.08-11.31-2.84-16.29c-1.846-4.87-4.143-9.557-6.86-14
		c-2.22-3.62-4.6-7.08-7.11-10.43C656.22,439.79,644.6,428.79,632.2,419z"/>
	<path style="fill:#FF3A00;" d="M543.82,532.22c-0.238-0.236-0.622-0.236-0.86,0c-3.4,3.48-6.6,7.1-9.75,10.76
		c-1.57,1.84-3.13,3.68-4.65,5.55s-3.06,3.74-4.56,5.64c-3,3.75-5.93,7.61-8.76,11.52s-5.53,7.94-7.94,12.18
		c-0.112,0.19-0.083,0.432,0.07,0.59c0.189,0.193,0.5,0.196,0.693,0.007c0.002-0.002,0.005-0.005,0.007-0.007
		c3.54-3.36,6.76-7,9.94-10.62s6.17-7.42,9.1-11.26c1.493-1.9,2.957-3.82,4.39-5.76c1.46-1.92,2.87-3.88,4.28-5.84
		c2.81-3.94,5.57-7.91,8.13-12C544.062,532.737,544.025,532.421,543.82,532.22z"/>
	<path style="fill:#FFB400;" d="M590.32,872.76c1.047,4.573,2.127,9.133,3.24,13.68c1.09,4.55,2.23,9.1,3.38,13.64
		c2.31,9.08,4.68,18.15,7.29,27.17c0.115,0.316,0.466,0.479,0.782,0.364c0.262-0.096,0.426-0.357,0.398-0.634
		c-1.58-9.25-3.41-18.45-5.29-27.63c-1-4.59-1.9-9.17-2.91-13.75s-2-9.15-3-13.72c-2.04-9.153-4.207-18.27-6.5-27.35
		c-2.34-9.07-4.73-18.14-7.53-27.11c-0.071-0.231-0.301-0.375-0.54-0.34c-0.269,0.041-0.456,0.29-0.42,0.56
		c1.4,9.29,3.2,18.49,5.06,27.68S588.16,863.65,590.32,872.76z"/>
	<path style="fill:#FFB400;" d="M557.18,872.39c0.667,5.287,1.367,10.57,2.1,15.85c0.71,5.28,1.47,10.56,2.24,15.83
		c1.55,10.55,3.15,21.09,5,31.6c0.051,0.308,0.329,0.525,0.64,0.5c0.326-0.015,0.577-0.291,0.562-0.616
		c0-0.011-0.001-0.023-0.003-0.034c-0.81-10.64-1.86-21.25-3-31.85c-0.57-5.3-1.14-10.6-1.77-15.9s-1.23-10.59-1.89-15.87
		c-1.267-10.593-2.67-21.16-4.21-31.7c-1.58-10.55-3.21-21.09-5.25-31.57c-0.045-0.243-0.263-0.414-0.51-0.4
		c-0.27,0.011-0.481,0.238-0.471,0.509c0,0.004,0,0.008,0.001,0.011c0.62,10.66,1.65,21.28,2.74,31.88S555.79,861.82,557.18,872.39z
		"/>
	<path style="fill:#FFB400;" d="M527.66,893.46c0.26,3.88,0.553,7.76,0.88,11.64c0.3,3.88,0.65,7.76,1,11.64
		c0.73,7.75,1.52,15.5,2.57,23.23c0.036,0.304,0.294,0.532,0.6,0.53c0.335-0.005,0.605-0.275,0.61-0.61c0-7.8-0.23-15.59-0.53-23.37
		c-0.147-3.893-0.323-7.783-0.53-11.67s-0.43-7.773-0.67-11.66c-0.45-7.77-1.06-15.53-1.76-23.29s-1.58-15.5-2.81-23.22
		c-0.038-0.234-0.234-0.409-0.47-0.42c-0.276-0.006-0.504,0.214-0.51,0.49l0,0c-0.2,7.81,0,15.6,0.28,23.39
		S527.08,885.69,527.66,893.46z"/>
	<path style="fill:#FFB400;" d="M498.91,942.77c0.52-4.35,0.8-8.7,1-13c0.1-2.17,0.2-4.35,0.24-6.52s0.1-4.35,0.1-6.53
		c0.08-4.34,0-8.69-0.21-13c-0.192-4.353-0.616-8.692-1.27-13c0-0.276-0.224-0.5-0.5-0.5s-0.5,0.224-0.5,0.5
		c-0.654,4.308-1.078,8.647-1.27,13c-0.2,4.35-0.29,8.7-0.22,13c0,2.18,0,4.35,0.11,6.53s0.14,4.35,0.24,6.52
		c0.22,4.35,0.5,8.7,1,13c0.061,0.337,0.384,0.56,0.721,0.499c0.254-0.046,0.453-0.245,0.499-0.499H498.91z"/>
	<path style="fill:#FFB400;" d="M467.7,899.25c0.09-4.87,0.12-9.74-0.26-14.63c0.019-0.276-0.189-0.516-0.465-0.535
		s-0.516,0.189-0.535,0.465c-1,4.8-1.68,9.63-2.26,14.46s-0.95,9.68-1.22,14.53c-0.167,2.42-0.297,4.847-0.39,7.28
		c-0.13,2.43-0.2,4.86-0.27,7.29c-0.11,4.86-0.17,9.73,0,14.61c0.009,0.287,0.218,0.528,0.5,0.58
		c0.326,0.06,0.639-0.156,0.699-0.482c0.001-0.003,0.001-0.006,0.001-0.008c0.86-4.82,1.48-9.64,2-14.48
		c0.26-2.42,0.53-4.83,0.73-7.26s0.44-4.84,0.61-7.26C467.32,909,467.56,904.11,467.7,899.25z"/>
	<path style="fill:#FFB400;" d="M405.25,878.91c1-5.46,1.95-10.93,2.49-16.49c0.016-0.222-0.114-0.428-0.32-0.51
		c-0.257-0.095-0.542,0.034-0.64,0.29c-1.94,5.24-3.47,10.58-4.95,15.92s-2.76,10.74-3.93,16.15c-0.62,2.7-1.207,5.407-1.76,8.12
		c-0.58,2.71-1.11,5.44-1.63,8.16c-1,5.45-2,10.91-2.72,16.43c-0.034,0.335,0.211,0.634,0.546,0.668
		c0.277,0.028,0.538-0.136,0.634-0.398c1.76-5.28,3.27-10.62,4.72-16c0.72-2.68,1.43-5.36,2.09-8s1.34-5.38,2-8.08
		C403.05,889.77,404.2,884.35,405.25,878.91z"/>
	<path style="fill:#FFB400;" d="M437.34,892c0.29-3.86,0.35-7.733,0.18-11.6c-0.011-0.208-0.151-0.388-0.35-0.45
		c-0.265-0.079-0.544,0.068-0.63,0.33c-1.126,3.702-2.024,7.469-2.69,11.28c-0.68,3.78-1.25,7.59-1.66,11.41
		c-0.24,1.913-0.443,3.823-0.61,5.73c-0.2,1.91-0.35,3.83-0.49,5.75c-0.26,3.84-0.46,7.69-0.42,11.57
		c0.003,0.337,0.278,0.608,0.615,0.605c0.276-0.002,0.515-0.189,0.585-0.455c1-3.75,1.76-7.53,2.46-11.31c0.34-1.9,0.68-3.79,1-5.69
		s0.58-3.8,0.82-5.71C436.66,899.63,437.06,895.8,437.34,892z"/>
	<path style="fill:#04294F;" d="M541.52,449.93c0.89-1.708,1.616-3.496,2.17-5.34c0.085-0.281,0.063-0.584-0.06-0.85
		c-0.278-0.608-0.996-0.875-1.603-0.598c-0.006,0.003-0.011,0.005-0.017,0.008c-1.738,0.841-3.392,1.846-4.94,3
		c-1.51,1.083-2.962,2.245-4.35,3.48c-2.708,2.47-5.222,5.145-7.52,8c-2.333,2.818-4.51,5.763-6.52,8.82
		c-2.088,3.096-3.882,6.381-5.36,9.81c-0.178,0.421-0.14,0.902,0.1,1.29c0.397,0.683,1.272,0.914,1.955,0.517
		c0.015-0.009,0.03-0.018,0.045-0.027c3.164-1.983,6.137-4.256,8.88-6.79c2.718-2.449,5.298-5.047,7.73-7.78
		c2.464-2.701,4.714-5.59,6.73-8.64C539.764,453.245,540.685,451.61,541.52,449.93z"/>
	<path style="fill:#04294F;" d="M517,441.56c0.43-0.81,0.85-1.63,1.24-2.48s0.84-1.66,1.23-2.53c0.18-0.413,0.158-0.886-0.06-1.28
		c-0.36-0.697-1.217-0.969-1.914-0.608c-0.029,0.015-0.058,0.031-0.086,0.048c-0.83,0.46-1.63,0.94-2.42,1.44s-1.59,1-2.36,1.45
		c-1.517,1.005-2.979,2.09-4.38,3.25c-2.741,2.309-5.292,4.834-7.63,7.55c-2.504,2.565-4.801,5.323-6.87,8.25
		c-1.036,1.5-1.994,3.052-2.87,4.65c-0.43,0.81-0.85,1.63-1.23,2.48s-0.85,1.66-1.23,2.53c-0.327,0.719-0.009,1.567,0.71,1.894
		c0.414,0.188,0.893,0.168,1.29-0.054c0.82-0.46,1.63-0.94,2.41-1.44s1.6-0.95,2.37-1.45c1.517-1.004,2.979-2.089,4.38-3.25
		c2.736-2.314,5.287-4.839,7.63-7.55c2.501-2.565,4.794-5.323,6.86-8.25C515.13,444.714,516.108,443.162,517,441.56z"/>
	<path style="fill:#04294F;" d="M458.69,464.3c1.743-0.654,3.418-1.478,5-2.46c1.525-0.917,2.997-1.918,4.41-3
		c2.76-2.155,5.342-4.529,7.72-7.1c2.411-2.535,4.675-5.206,6.78-8c2.189-2.837,4.095-5.881,5.69-9.09
		c0.269-0.555,0.152-1.22-0.29-1.65c-0.435-0.441-1.104-0.553-1.66-0.28c-3.18,1.653-6.194,3.609-9,5.84
		c-2.77,2.15-5.414,4.457-7.92,6.91c-2.541,2.417-4.882,5.035-7,7.83c-1.064,1.432-2.048,2.921-2.95,4.46
		c-0.946,1.588-1.74,3.262-2.37,5c-0.095,0.265-0.095,0.555,0,0.82c0.056,0.17,0.156,0.322,0.29,0.44
		C457.729,464.364,458.24,464.474,458.69,464.3z"/>
	<path style="fill:#04294F;" d="M583.45,474.29c0.813-1.794,1.463-3.659,1.94-5.57c0.065-0.292,0.022-0.597-0.12-0.86
		c-0.319-0.587-1.054-0.804-1.641-0.485c-0.003,0.002-0.006,0.003-0.009,0.005c-1.713,0.973-3.333,2.101-4.84,3.37
		c-1.471,1.207-2.877,2.492-4.21,3.85c-2.615,2.684-5.019,5.566-7.19,8.62c-2.219,3.026-4.272,6.171-6.15,9.42
		c-1.957,3.295-3.607,6.763-4.93,10.36c-0.266,0.744,0.122,1.562,0.866,1.827c0.438,0.156,0.924,0.09,1.304-0.177
		c3.099-2.247,5.987-4.771,8.63-7.54c2.623-2.682,5.097-5.506,7.41-8.46c2.356-2.917,4.485-6.009,6.37-9.25
		C581.825,477.742,582.682,476.037,583.45,474.29z"/>
	<path style="fill:#04294F;" d="M565.6,455.76c0.169-0.426,0.12-0.907-0.13-1.29c-0.432-0.667-1.324-0.858-1.992-0.426
		c-0.003,0.002-0.006,0.004-0.008,0.006c-3.138,2.122-6.074,4.529-8.77,7.19c-2.673,2.574-5.203,5.291-7.58,8.14
		c-2.409,2.832-4.601,5.84-6.56,9c-0.977,1.621-1.871,3.289-2.68,5c-0.85,1.754-1.54,3.582-2.06,5.46
		c-0.071,0.289-0.036,0.595,0.1,0.86c0.295,0.594,1.015,0.836,1.609,0.541c0.007-0.004,0.014-0.007,0.021-0.011
		c1.727-0.904,3.368-1.965,4.9-3.17c1.492-1.149,2.921-2.377,4.28-3.68c2.666-2.577,5.129-5.356,7.37-8.31
		c2.275-2.931,4.391-5.982,6.34-9.14C562.47,462.706,564.197,459.302,565.6,455.76z"/>
	<path style="fill:#04294F;" d="M627.66,574.68c-1.717,3.646-3.115,7.433-4.18,11.32c-0.115,0.463,0.004,0.953,0.32,1.31
		c0.526,0.578,1.419,0.622,2,0.1c2.969-2.722,5.693-5.701,8.14-8.9c2.447-3.112,4.73-6.35,6.84-9.7
		c2.158-3.316,4.069-6.785,5.72-10.38c0.81-1.81,1.56-3.67,2.2-5.59c0.685-1.951,1.193-3.959,1.52-6
		c0.037-0.298-0.042-0.599-0.22-0.84c-0.388-0.538-1.138-0.663-1.68-0.28c-1.659,1.238-3.211,2.613-4.64,4.11
		c-1.41,1.45-2.72,3-4,4.52c-2.43,3.12-4.635,6.408-6.6,9.84C631.099,567.594,629.29,571.095,627.66,574.68z"/>
	<path style="fill:#04294F;" d="M614.2,547.73c-0.835,1.761-1.579,3.563-2.23,5.4c-0.7,1.905-1.225,3.87-1.57,5.87
		c-0.049,0.302,0.015,0.612,0.18,0.87c0.376,0.55,1.124,0.697,1.68,0.33c1.661-1.143,3.214-2.435,4.64-3.86
		c1.406-1.357,2.741-2.786,4-4.28c2.447-2.964,4.669-6.106,6.65-9.4c2.022-3.267,3.872-6.639,5.54-10.1
		c1.734-3.512,3.157-7.169,4.25-10.93c0.124-0.456,0.02-0.944-0.28-1.31c-0.508-0.594-1.399-0.669-2-0.17
		c-2.965,2.565-5.699,5.386-8.17,8.43c-2.451,2.961-4.744,6.048-6.87,9.25C617.843,540.985,615.898,544.294,614.2,547.73z"/>
	<path style="fill:#04294F;" d="M617.31,512.19c0.869-1.726,1.65-3.495,2.34-5.3c0.733-1.863,1.299-3.787,1.69-5.75
		c0.121-0.657-0.313-1.288-0.97-1.409c-0.301-0.055-0.612,0.005-0.87,0.169c-1.674,1.091-3.247,2.329-4.7,3.7
		c-1.405,1.312-2.741,2.697-4,4.15c-2.5,2.874-4.78,5.933-6.82,9.15c-2.091,3.19-4.007,6.492-5.74,9.89
		c-1.805,3.44-3.301,7.035-4.47,10.74c-0.227,0.756,0.202,1.554,0.959,1.781c0.449,0.135,0.935,0.041,1.301-0.251
		c3.005-2.466,5.789-5.19,8.32-8.14c2.504-2.876,4.857-5.88,7.05-9C613.605,518.826,615.581,515.574,617.31,512.19z"/>
	<path style="fill:#04294F;" d="M604.22,484c0.248-0.75-0.159-1.559-0.908-1.807c-0.446-0.148-0.937-0.067-1.312,0.217
		c-3.049,2.365-5.884,4.996-8.47,7.86c-2.563,2.786-4.98,5.703-7.24,8.74c-2.288,3.012-4.347,6.191-6.16,9.51
		c-0.91,1.689-1.731,3.425-2.46,5.2c-0.775,1.831-1.38,3.729-1.81,5.67c-0.063,0.294-0.013,0.601,0.14,0.86
		c0.338,0.577,1.079,0.77,1.656,0.433c0.001-0.001,0.003-0.002,0.004-0.003c1.698-1.036,3.298-2.224,4.78-3.55
		c1.444-1.261,2.823-2.597,4.13-4c2.55-2.79,4.889-5.765,7-8.9c2.15-3.116,4.132-6.344,5.94-9.67
		C601.391,491.187,602.967,487.653,604.22,484z"/>
	<path style="fill:#00AEE0;" d="M294.87,814.29L294.87,814.29L294.87,814.29z"/>
	<polygon style="fill:#04294F;" points="398.41,807.52 375.68,800.6 367.34,813.24 390.47,820.28 	"/>
	<polygon style="fill:#04294F;" points="400.6,804 408.48,791.34 386.26,784.57 377.98,797.12 	"/>
	<polygon style="fill:#04294F;" points="340.27,805 363.35,812.03 371.69,799.38 349.02,792.48 	"/>
	<polygon style="fill:#04294F;" points="382.27,783.36 360.11,776.61 351.43,789.04 373.99,795.9 	"/>
	<polygon style="fill:#04294F;" points="427.24,812.11 434.73,799.32 412.44,792.54 404.56,805.21 	"/>
	<polygon style="fill:#04294F;" points="453.91,820.23 461,807.32 438.66,800.52 431.17,813.31 	"/>
	<polygon style="fill:#04294F;" points="480.6,828.36 487.31,815.33 464.91,808.51 457.82,821.42 	"/>
	<polygon style="fill:#04294F;" points="455.85,825 448.7,838.01 471.98,845.09 478.74,831.97 	"/>
	<polygon style="fill:#04294F;" points="429.1,816.86 421.55,829.74 444.79,836.82 451.94,823.81 	"/>
	<polygon style="fill:#04294F;" points="402.38,808.73 394.44,821.49 417.62,828.55 425.16,815.66 	"/>
	<path style="fill:#00AEE0;" d="M345,791.26l-8.75,12.52l-20.58-6.27l-2.67,3.38l20.82,6.33l-7.3,10.45l4,1.23l7.31-10.45
		l23.18,7.06l-7,10.56l4,1.22l7-10.57l23.25,7.08l-6.64,10.67l4,1.21l6.63-10.68l23.29,7.09l-6.31,10.79l3.93,1.2l6.32-10.79
		l23.34,7.11l-6,10.89l3.91,1.19l6-10.89l23.38,7.12l-5.66,11l3.89,1.18l5.66-11l19.56,6l1.76-3.64l-19.45-5.92l6.76-13.13
		l19.06,5.8l1.76-3.65l-19-5.77l6.71-13l18.57,5.66l1.76-3.65l-18.47-5.62l4.75-9.22l-3.89-1.18l-4.75,9.22L466.84,805l5-9.13
		l-3.84-1.26l-5,9.13L440.74,797l5.3-9.05l-3.94-1.19l-5.3,9L414.63,789l5.58-9l-4-1.21l-5.58,9l-22.11-6.73l5.86-8.88l-4-1.22
		l-5.85,8.88l-22.05-6.71l6.14-8.79l-4-1.23l-6.15,8.8l-18.36-5.59l-2.65,3.37l18.61,5.66l-8.69,12.43l-19.47-5.93l-2.65,3.38
		L345,791.26z M367.34,813.26l8.34-12.64l22.73,6.92l-7.94,12.76L367.34,813.26z M417.62,828.57l-23.18-7.06l7.94-12.77l22.78,6.94
		L417.62,828.57z M444.79,836.84l-23.24-7.08l7.55-12.88l22.84,6.95L444.79,836.84z M472,845.09L448.7,838l7.15-13l22.89,7
		L472,845.09z M464.93,808.51l22.4,6.82l-6.71,13l-22.78-6.94L464.93,808.51z M438.68,800.51l22.34,6.8l-7.09,12.91l-22.74-6.92
		L438.68,800.51z M412.46,792.51l22.29,6.78l-7.49,12.79l-22.68-6.9L412.46,792.51z M386.28,784.51l22.22,6.76L400.6,804l-22.6-6.88
		L386.28,784.51z M360.13,776.51l22.16,6.74L374,795.9l-22.57-6.9L360.13,776.51z M371.71,799.28L363.35,812l-23.08-7l8.73-12.52
		L371.71,799.28z"/>
	<polygon style="fill:#00AEE0;" points="321.78,780.01 321.78,780.01 319.13,783.38 319.13,783.38 	"/>
	<polygon style="fill:#00AEE0;" points="333.97,764.47 333.97,764.47 331.32,767.85 331.32,767.85 	"/>
	<polygon style="fill:#00AEE0;" points="309.51,795.64 309.51,795.64 307.24,798.53 307.24,798.53 	"/>
	<path style="fill:#00AEE0;" d="M709.32,492.16l-7.36-16c-2.46-5.333-4.893-10.667-7.3-16c-0.214-0.43-0.736-0.605-1.166-0.391
		c-0.37,0.184-0.559,0.602-0.454,1.001c1.7,5.6,3.367,11.213,5,16.84l4.4,14.89l-10.05,11.73c-3.687,4.3-7.397,8.587-11.13,12.86
		l-0.39,0.46c-1.146,1.31-1.365,3.192-0.55,4.73l10.87,20.62c0.197,0.367,0.584,0.592,1,0.58c0.589-0.043,1.034-0.551,1-1.14
		l-1-19.94c2.56-4.24,5.14-8.463,7.74-12.67l8.93-14.47l0.27-0.44C709.623,494.017,709.694,493.025,709.32,492.16z"/>
	<path style="fill:#00AEE0;" d="M613.28,339c1.84-2.67,3.66-5.37,5.4-8.13s3.43-5.55,5-8.46c0.322-0.617,0.083-1.378-0.534-1.7
		c-0.441-0.23-0.976-0.179-1.366,0.13c-2.56,2.07-5,4.25-7.39,6.47s-4.71,4.5-7,6.81s-4.52,4.65-6.71,7
		c-1.107,1.18-2.197,2.377-3.27,3.59c-0.35,0.38-0.68,0.77-1,1.15l-3.77-1.14c-2.24-0.62-4.47-1.29-6.72-1.88s-4.49-1.21-6.75-1.77
		s-4.52-1.11-6.78-1.66l-0.42-0.1l-0.3-0.06c-2.332-0.379-4.532,1.199-4.92,3.53c-0.82,5-1.57,10-2.18,15.05
		c-0.32,2.52-0.58,5.05-0.82,7.59s-0.44,5.08-0.53,7.65c-0.102,0.844,0.5,1.612,1.344,1.713c0.739,0.089,1.435-0.363,1.656-1.073
		c1-2.37,1.83-4.78,2.69-7.18s1.65-4.82,2.41-7.24c1-3.25,2-6.52,2.91-9.79c0.78,0.26,1.55,0.52,2.33,0.76
		c2.21,0.73,4.44,1.42,6.66,2.09s4.46,1.32,6.69,2s4.48,1.26,6.74,1.81l0.28,0.08c1.791,0.439,3.674-0.206,4.82-1.65
		c1.007-1.26,2.007-2.537,3-3.83s1.97-2.583,2.93-3.87C609.54,344.26,611.42,341.61,613.28,339z"/>
	<path style="fill:#00AEE0;" d="M544.56,347c-1.44,1.8-2.65,3.69-3.88,5.57s-2.33,3.83-3.41,5.79s-2.1,3.93-3.1,5.92
		c-0.8,1.64-1.57,3.3-2.32,5c-1.06,0.56-2.11,1.14-3.14,1.74c-1.4,0.81-2.77,1.68-4.13,2.58s-2.68,1.85-4,2.87
		c-1.324,1.017-2.583,2.116-3.77,3.29c-0.353,0.357-0.35,0.934,0.007,1.287c0.203,0.201,0.49,0.295,0.773,0.253
		c1.647-0.256,3.277-0.614,4.88-1.07c1.59-0.44,3.15-0.95,4.68-1.49s3-1.14,4.53-1.79s2.95-1.32,4.41-2
		c0.695-0.34,1.253-0.908,1.58-1.61v-0.07c0.927-2,1.817-4.037,2.67-6.11c0.83-2.07,1.66-4.14,2.4-6.24s1.45-4.23,2.08-6.38
		s1.22-4.33,1.62-6.59c0.117-0.591-0.268-1.164-0.858-1.28c-0.404-0.08-0.819,0.075-1.072,0.4L544.56,347z"/>
	<path style="fill:#00AEE0;" d="M664.07,373.08c-0.038-0.761-0.685-1.348-1.447-1.31c-0.56,0.028-1.047,0.391-1.233,0.92
		c-0.75,2.07-1.4,4.15-2,6.24s-1.22,4.17-1.79,6.27c-0.87,3.26-1.65,6.54-2.4,9.82c-1.67,0.62-3.34,1.24-5,1.88
		c-2.32,0.92-4.65,1.82-6.94,2.79s-4.6,1.93-6.88,2.94s-4.55,2-6.83,3.05c-1.941,0.875-3.203,2.791-3.24,4.92l0,0
		c0,2.41,0,4.82,0,7.23s0.06,4.83,0.08,7.24c0.09,4.1,0.21,8.21,0.39,12.31c-2.82,2-5.62,4.11-8.39,6.25
		c-1.75,1.34-3.49,2.71-5.2,4.12s-3.42,2.81-5.08,4.3c-0.695,0.623-0.754,1.691-0.131,2.386c0.472,0.527,1.223,0.704,1.881,0.444
		c2.07-0.82,4.1-1.71,6.12-2.63s4-1.84,6-2.8c4-1.92,7.93-3.92,11.79-6c1.201-0.643,1.992-1.852,2.1-3.21v-0.58
		c0.38-4.81,0.65-9.63,0.88-14.45c0.1-2.41,0.22-4.82,0.29-7.23c0-1.24,0.07-2.47,0.11-3.71c1.23-0.54,2.45-1.09,3.67-1.65
		c2.27-1,4.53-2.09,6.77-3.18s4.48-2.21,6.71-3.32s4.43-2.3,6.63-3.5l0.63-0.35c1.162-0.654,1.914-1.85,2-3.18
		c0.3-4.31,0.53-8.62,0.63-13c0-2.17,0.08-4.34,0-6.52S664.22,375.27,664.07,373.08z"/>
	<path style="fill:#04294F;" d="M412.85,879.05c-3.633,6.02-6.745,12.34-9.3,18.89c-1.74,4.35-3.44,9.1-5.05,14.23
		c-7.12,22.61-22,18-28.72,10.38c-0.769-0.871-1.439-1.823-2-2.84l15.37,28.18l0.73,1.36l0.12,0.07l0.55-0.89l0,0l7.58-12.43
		L429,876.24l4.16-6.76l-6.72-2C422.88,866.58,418,870.78,412.85,879.05z"/>
	<path style="fill:#FF3A00;" d="M418.35,942.77l10.29-16.71l10.83-17.57l8.31-13.49l-11.37-19.79l-0.51-0.89l-2.79-4.84l-4.11,6.76
		L392.13,936l-7.63,12.38l0,0l-0.55,0.89l-0.12-0.07l-0.73-1.36l-15.37-28.18c-0.05-0.07-0.07-0.13-0.12-0.2l-3-5.56l-5.71-10.49
		l-7-12.86l0,0l-12.51-23l-16.7,21.3v0.48L354,946.84l14.7,27l29.8,1.16l3.09-5l8.85-14.36L418.35,942.77z"/>
	<path style="fill:#04294F;" d="M378.16,852.78l6.76,2.05l0,0c2.013-1.856,3.813-3.928,5.37-6.18L378,844.9
		C378.258,847.519,378.311,850.153,378.16,852.78z"/>
	<path style="fill:#04294F;" d="M377.38,860.35L377.38,860.35c0.75-0.41,1.44-0.91,2.18-1.35s1.41-1,2.12-1.48l1.06-0.78l1-0.87
		c0.4-0.34,0.82-0.7,1.21-1.06l-6.81-2.14C378.02,855.241,377.766,857.805,377.38,860.35z"/>
	<path style="fill:#04294F;" d="M354,946.84l-31.34-57.42v-0.48l16.7-21.3l-20.89-6.11l-52-15.23l0,0l-39.39-11.53l-11.3-3.31
		l-0.9-0.27L196.39,850h0.14l-0.14,0.47l50.18,85.61L368.7,973.8L354,946.84z"/>
	<path style="fill:#FF3A00;" d="M310.54,886.32c-8.69-2.12-17.3-4.48-25.9-6.9c-4.29-1.22-8.59-2.44-12.87-3.72
		s-8.56-2.53-12.83-3.84c-8.553-2.573-17.063-5.27-25.53-8.09c-8.46-2.87-16.9-5.78-25.22-9.1c-0.253-0.097-0.379-0.38-0.283-0.633
		c0.001-0.003,0.002-0.005,0.003-0.007c0.095-0.223,0.333-0.348,0.57-0.3c8.74,1.95,17.36,4.29,26,6.68s17.14,5,25.66,7.68
		c4.26,1.333,8.513,2.667,12.76,4c4.26,1.35,8.49,2.76,12.73,4.17c8.47,2.84,16.92,5.73,25.29,8.87
		c0.318,0.097,0.497,0.432,0.4,0.75c-0.097,0.318-0.432,0.497-0.75,0.4l0,0L310.54,886.32z"/>
	<path style="fill:#00AEE0;" d="M686.66,266.2c1.348-0.006,2.435-1.102,2.43-2.45c-0.006-1.348-1.102-2.436-2.45-2.43
		c-1.344,0.005-2.43,1.096-2.43,2.44c0,1.348,1.092,2.44,2.44,2.44C686.653,266.2,686.657,266.2,686.66,266.2z"/>
</g>
<g>
	<path style="fill:#FFB400;" d="M431.13,933.57c0.918,3.786,1.408,7.664,1.46,11.56c0.07,4.2-0.438,8.389-1.51,12.45l0,0
		c-0.145,0.566,0.041,1.165,0.48,1.55c0.048,0.046,0.102,0.087,0.16,0.12c0.646,0.399,1.483,0.286,2-0.27
		c3.054-3.605,5.426-7.736,7-12.19l0.21-0.61c1.513-4.374,2.408-8.938,2.66-13.56c0.299-4.991-0.078-10-1.12-14.89
		c-0.543-2.595-1.309-5.137-2.29-7.6c-0.23-0.56-0.45-1.13-0.72-1.69l-10.83,17.57C429.69,928.449,430.526,930.98,431.13,933.57z"/>
	<path style="fill:#FFB400;" d="M266.47,846.28L266.47,846.28l52,15.23l20.89,6.11l12.51,23l0,0l7,12.86l5.71,10.52l3,5.56
		c0.05,0.07,0.07,0.13,0.12,0.2c0.561,1.017,1.231,1.969,2,2.84c6.72,7.6,21.6,12.23,28.72-10.38c1.61-5.13,3.31-9.88,5.05-14.23
		c2.555-6.55,5.667-12.87,9.3-18.89c5.16-8.27,10-12.47,13.54-11.61l6.72,2l2.79,4.84c1.154-3.633,1.826-7.402,2-11.21
		c0.039-1.832-0.118-3.662-0.47-5.46c-1.22-6.09-5.15-12-15.2-14.41c-2.392-0.592-4.863-0.802-7.32-0.62c0-1.14-0.06-2.3-0.15-3.47
		c-0.1-0.85-0.15-1.66-0.33-2.52s-0.38-1.76-0.61-2.62l-0.15-0.65l-0.09-0.31l-0.07-0.19l-0.27-0.73l-0.54-1.47
		c-0.653-1.848-1.191-3.735-1.61-5.65c-0.812-3.618-0.85-7.367-0.11-11c0.899-3.994,2.507-7.795,4.75-11.22
		c2.506-3.806,5.297-7.417,8.35-10.8h0.05c0.556-0.644,0.485-1.616-0.158-2.172c-0.454-0.392-1.095-0.485-1.642-0.238
		c-4.536,2.008-8.805,4.571-12.71,7.63c-4.237,3.307-7.75,7.449-10.32,12.17c-2.651,5.087-4.185,10.682-4.5,16.41
		c-0.156,2.742-0.136,5.491,0.06,8.23c0,0.68,0.11,1.32,0.17,2l0.08,1v0.25c0,0,0,0.07,0,0.11v0.22c0,0.29-0.09,0.58-0.1,0.85
		s-0.16,0.65-0.21,1c-0.408,1.571-0.985,3.093-1.72,4.54c-0.643,1.389-1.392,2.726-2.24,4c-0.14,0.21-0.28,0.42-0.44,0.64
		c-1.557,2.252-3.357,4.324-5.37,6.18l0,0c-0.38,0.35-0.76,0.69-1.16,1l-1,0.87l-1.06,0.78c-0.71,0.49-1.36,1.06-2.12,1.48
		s-1.43,0.94-2.18,1.35l0,0c0.388-2.508,0.649-5.035,0.78-7.57c0.151-2.627,0.098-5.261-0.16-7.88
		c-0.189-1.953-0.544-3.887-1.06-5.78c-0.09-0.35-0.2-0.69-0.31-1l0,0c-2-6.38-6.3-11.69-14.47-13.49s-14.33,0.41-18.91,4.22
		c-1.215,1.011-2.327,2.14-3.32,3.37c-0.72-1.64-1.39-3.33-2-5c-6-15.64-9.3-32.9-15.75-47.6c-5.14-11.71-12.27-21.81-24.32-28.24
		c-7.875-4.286-16.648-6.657-25.61-6.92c0.5-0.42,1-0.86,1.47-1.3c2.285-2.225,4.36-4.655,6.2-7.26c0.346-0.525,0.346-1.205,0-1.73
		c-0.466-0.696-1.404-0.892-2.11-0.44l0,0c-5,3.28-10.26,6.08-15.3,6.86c-4.619,0.799-9.363-0.336-13.12-3.14
		c-3.89-2.69-7.4-6.72-10.62-11.15c-0.8-1.12-1.6-2.25-2.36-3.43c-0.575-0.859-1.221-1.668-1.93-2.42
		c-0.791-0.878-1.64-1.703-2.54-2.47c-3.532-2.952-7.691-5.059-12.16-6.16c-8.972-2.267-18.48-0.779-26.33,4.12
		c-4.173,2.643-7.694,6.195-10.3,10.39c-2.522,4.077-4.221,8.609-5,13.34c-0.09,0.48-0.16,1-0.21,1.42
		c-0.478,3.469-0.565,6.981-0.26,10.47c1.22,29.64,18.81,58.65,38.12,79.93l11.3,3.31L266.47,846.28z M206,738.92
		c0.309-1.113,0.87-2.139,1.64-3c2.188-2.11,5.131-3.256,8.17-3.18c1.493-0.007,2.969,0.307,4.33,0.92
		c0.297,0.136,0.585,0.293,0.86,0.47c0.424,0.248,0.808,0.558,1.14,0.92c1.2,1.13,2.42,2.23,3.68,3.32
		c5,4.32,10.63,8.52,17.59,11.21c0.86,0.33,1.75,0.63,2.66,0.89c-9.991,5.206-18.098,13.415-23.18,23.47
		c-3.972-4.73-7.646-9.703-11-14.89c-1.09-1.77-2.07-3.52-2.92-5.26c-1.783-3.427-2.906-7.158-3.31-11
		C205.55,741.49,205.665,740.181,206,738.92z"/>
	<path style="fill:#FF3A00;" d="M222.87,773.93c-1.894,3.779-3.44,7.721-4.62,11.78c-1.2,4.048-2.06,8.189-2.57,12.38
		c-0.31,2.1-0.38,4.21-0.53,6.31v3.17c0,0.53,0,1.06,0,1.58l0.11,1.58c0.25,4.219,0.92,8.403,2,12.49
		c0.004,0.056-0.028,0.109-0.08,0.13c-0.047,0.011-0.095-0.009-0.12-0.05l0,0c-2.517-3.715-4.221-7.921-5-12.34l-0.31-1.65
		c-0.09-0.56-0.12-1.11-0.18-1.66c-0.11-1.11-0.19-2.23-0.24-3.35s0-2.22,0.06-3.34s0.18-2.22,0.29-3.33
		c0.525-4.414,1.698-8.727,3.48-12.8c1.729-4.132,4.273-7.873,7.48-11l0,0c0.037-0.041,0.1-0.045,0.141-0.009
		c0.003,0.003,0.006,0.006,0.009,0.009C222.835,773.843,222.867,773.883,222.87,773.93z"/>
	<path style="fill:#FF3A00;" d="M339.93,832.16c1.448,3.939,3.142,7.783,5.07,11.51c1.902,3.744,4.173,7.288,6.78,10.58
		c2.559,3.337,5.824,6.069,9.56,8c1.898,0.91,3.966,1.411,6.07,1.47c2.103,0.007,4.183-0.436,6.1-1.3
		c0.039-0.038,0.101-0.038,0.14,0c0.024,0.036,0.024,0.083,0,0.12l0,0c-1.716,1.651-3.885,2.755-6.23,3.17
		c-2.476,0.38-5.008,0.157-7.38-0.65c-4.473-1.702-8.388-4.609-11.31-8.4c-2.794-3.489-4.994-7.415-6.51-11.62
		c-1.569-4.129-2.395-8.503-2.44-12.92l0,0c0-0.055,0.044-0.1,0.1-0.1c0.004,0,0.007,0,0.01,0
		C339.933,832.052,339.95,832.11,339.93,832.16z"/>
	<path style="fill:#FF3A00;" d="M414.87,842.62c0.028,6.14-1.039,12.235-3.15,18c-2.052,5.773-5.023,11.176-8.8,16
		c-3.788,4.807-8.271,9.023-13.3,12.51c-5.026,3.483-10.435,6.378-16.12,8.63c-0.055,0.021-0.117-0.006-0.14-0.06
		c-0.028-0.039-0.028-0.091,0-0.13l0,0c5.07-3.72,9.92-7.22,14.38-11c4.411-3.711,8.432-7.863,12-12.39
		c3.54-4.501,6.559-9.389,9-14.57c2.516-5.421,4.499-11.075,5.92-16.88l0,0c0.015-0.057,0.072-0.093,0.13-0.08
		C414.812,842.63,414.841,842.62,414.87,842.62z"/>
	<path style="fill:#FF3A00;" d="M246.05,750.46c2.256,0.622,4.581,0.958,6.92,1c2.351,0.072,4.702-0.146,7-0.65
		c1.142-0.267,2.267-0.601,3.37-1c1.095-0.41,2.161-0.894,3.19-1.45c2.068-1.105,3.987-2.469,5.71-4.06
		c0.034-0.036,0.091-0.037,0.127-0.003c0.001,0.001,0.002,0.002,0.003,0.003c0.014,0.028,0.014,0.062,0,0.09l0,0
		c-0.815,2.55-2.379,4.794-4.49,6.44c-1.036,0.839-2.168,1.554-3.37,2.13c-1.21,0.548-2.474,0.97-3.77,1.26
		c-2.574,0.58-5.246,0.58-7.82,0c-2.618-0.533-5.02-1.831-6.9-3.73l0,0c-0.036-0.034-0.037-0.091-0.003-0.127
		c0.001-0.001,0.002-0.002,0.003-0.003C246.02,750.36,246,750.46,246.05,750.46z"/>
	<path style="fill:#00AEE0;" d="M197.38,834.22c-0.922,2.778-3.922,4.282-6.7,3.36s-4.282-3.922-3.36-6.7
		c0.039-0.118,0.083-0.235,0.13-0.35c0.81-2.2,5.64-5.42,7.52-6.61c0.322-0.194,0.74-0.09,0.933,0.232
		c0.028,0.047,0.05,0.096,0.067,0.148C196.64,826.43,198.19,832,197.38,834.22z"/>
	<path style="fill:#00AEE0;" d="M310.85,797.63c1.881,2.242,1.589,5.585-0.654,7.467c-2.242,1.881-5.585,1.589-7.467-0.654
		c-0.069-0.082-0.136-0.167-0.2-0.253c-1.45-1.84-1.69-7.63-1.72-9.86c-0.014-0.37,0.275-0.681,0.645-0.694
		c0.069-0.003,0.138,0.006,0.205,0.024C303.82,794.21,309.4,795.79,310.85,797.63z"/>
	<path style="fill:#00AEE0;" d="M170.94,833.28c-1.845,1.326-4.415,0.905-5.74-0.94c-1.325-1.845-0.905-4.414,0.94-5.74
		c1.48-1.07,6-1,7.71-1c0.287,0.003,0.518,0.238,0.515,0.525c0,0.053-0.009,0.105-0.025,0.155
		C173.84,828,172.42,832.22,170.94,833.28z"/>
	<path style="fill:#00AEE0;" d="M256.82,807c-0.423,2.231-2.574,3.698-4.805,3.275c-2.231-0.422-3.697-2.574-3.275-4.805
		c0.34-1.79,3.61-4.87,4.9-6c0.218-0.196,0.553-0.178,0.748,0.04c0.033,0.036,0.06,0.077,0.082,0.12
		C255.24,801.11,257.16,805.18,256.82,807z"/>
	<path style="fill:#00AEE0;" d="M304.58,825.28c0.851,2.107-0.168,4.505-2.275,5.355c-2.107,0.851-4.504-0.168-5.355-2.275
		c-0.68-1.69,0.4-6.05,0.86-7.72c0.076-0.283,0.366-0.451,0.649-0.375c0.046,0.012,0.09,0.031,0.131,0.055
		C300.08,821.2,303.89,823.59,304.58,825.28z"/>
	<path style="fill:#04294F;" d="M314.38,765.8c0,0-6.58,18.39,13.82,30.56C328.2,796.36,325,778.27,314.38,765.8z"/>
	<path style="fill:#04294F;" d="M329.78,801.6c0,0-17.92,21-6.81,31.62c2.33,2.22,9.5-11.06,11.94-14.59L329.78,801.6z"/>
	<path style="fill:#FF3A00;" d="M323.06,780.1c0,0-6.44,7.45,4.55,13.53C327.61,793.63,326.41,785.72,323.06,780.1z"/>
</g>
</svg>
