<svg id="thanksgiving_cool" xmlns="http://www.w3.org/2000/svg" viewBox="0 0 800 800"><title>thanksgiving_cool</title><path d="M642.6,509.77c-1.47-4-3.14-7.51-6.71-9.83a30.64,30.64,0,0,0-7.37-3.1l-13.26-4.38c-4.9-1.61-9.69-3.49-14.51-5.34-7.09-2.73-14.13-5.64-21-8.82-.81-15.62-1.83-34.73-2.83-52.87,3.89-3.89,7.73-7.83,11.48-11.87,2.6-2.8,5.27-5.55,7.82-8.39s4.71-5.5,7.07-8.25l5.73-6.61c3.93-4.53,7.56-9.26,11.21-14,3.13-4.07,6.28-8.13,9.37-12.23,6.33-8.37,6.51-17.2.85-26.24s-16.35-16.43-26.75-14.38a24.17,24.17,0,0,0-13.28,7.39,37.35,37.35,0,0,0-5.13,8.25l-7.79,15.1c-1.55,3-3.19,6-4.86,8.9-1.23,2.12-3.54,1.69-3-.6.94-3.48,1.91-6.95,2.78-10.44,1-3.85,1.71-7.75,2.58-11.62.7-3.11,1.42-6.22,2.13-9.33,1.46-6.4,2.52-12.84,3.6-19.31.93-5.54,1.88-11.08,2.76-16.63,1.8-11.36-3.15-21.38-13.28-27.2s-23.68-6-32.66,1.3a26.49,26.49,0,0,0-9,14c-.87,3.5-.75,7-.7,10.61q.13,9.3.26,18.6c.1,6.87-.19,13.71-.42,20.58-.3,8.6-.78,17.21-1.53,25.8-.38,3.29-3,3.18-2.91-.13l.21-4.51c.29-6,.2-11.95.13-17.95-.06-5.13-.1-10.26-.2-15.4-.22-10.49-6.61-18.51-16.65-22.11s-21.94-1.8-28.84,6.24A24.16,24.16,0,0,0,472,319a37.44,37.44,0,0,0,1.08,9.66q1.62,8.34,3.23,16.68c1.2,6.16,2,12.36,2.94,18.57a387.24,387.24,0,0,1,3.9,40.37c0,.77.08,1.55.11,2.32a4.62,4.62,0,0,0-3.77-.75,4.86,4.86,0,0,0-3.72,4.69,8.71,8.71,0,0,0,1.31,3.84c.78,1.6,1.62,3.16,2.47,4.72,1.28,2.34,2.68,4.63,4.11,6.88,0,10.54-.48,21.07-1.41,31.57-.55,6.18-1.31,12.32-2.23,18.44q-3.45,2.67-7,5.26a162.52,162.52,0,0,1-21.87,13.65,6.1,6.1,0,0,0-3.66,5.9,5.93,5.93,0,0,0,4.93,5.37c1.67.27,3.29-.36,4.86-.84,2.07-.64,4.11-1.35,6.14-2.07,3.45-1.23,6.85-2.66,10.2-4.13l2.27-1c-.92,3.91-1.93,7.8-3,11.68A162.6,162.6,0,0,1,464.18,534a6.12,6.12,0,0,0,.77,6.91,5.94,5.94,0,0,0,7.2,1.16,10.84,10.84,0,0,0,3.29-3.67c1.23-1.78,2.39-3.6,3.54-5.43,1.86-2.94,3.56-6,5.2-9.07a6.63,6.63,0,0,0,1.38-.28c1.76-.61,3-2,4.27-3.32,1.66-1.68,3.27-3.42,4.86-5.16,2.7-3,5.25-6.09,7.72-9.24,5-6.32,9.58-12.86,14-19.53q1.18,2.33,2.38,4.63c2.29,4.38,4.64,8.8,7.2,13,4.51,7.48,9.12,14.88,14.05,22.09,1.78,2.6,3.5,5.23,5.32,7.79s3.57,4.77,5.34,7.16c1.43,1.93,2.84,3.86,4.26,5.79,2.93,4,6.07,7.74,9.22,11.52,2.7,3.25,5.38,6.51,8.11,9.73,5.57,6.59,12.85,8.67,21.12,5.76s15.9-11.49,16.14-20.2a17,17,0,0,0-3.52-11,30.59,30.59,0,0,0-5.7-5.61l-10.7-9c-4-3.32-7.71-6.84-11.5-10.34l-1.1-1c-1.41-1.37-.76-2.5.64-1.61l.09,0c2,1.26,4.07,2.48,6.09,3.73s4.07,2.53,6.1,3.8c4.19,2.61,8.5,4.94,12.83,7.29,3.71,2,7.41,4.06,11.13,6,7.62,4.06,15.37,3.49,22-2.27S645.6,518,642.6,509.77Z" style="fill:#04294f;"/><path d="M456,528.2c-17.78-21.68-47.08-28.3-74.63-16.85a85.06,85.06,0,0,0-31.57,23.42c0-1.2,0-2.41,0-3.65v0a.71.71,0,0,0-.24-.54.7.7,0,0,0-1,.07,69.77,69.77,0,0,0-6.45,8.48c-.3.47-.59.95-.88,1.42-.32-.95-.65-1.9-.93-2.87a66.55,66.55,0,0,1-2.08-9.46,63.62,63.62,0,0,1-.69-10.05v0a.73.73,0,0,0-.25-.55.76.76,0,0,0-1.06.05,69.89,69.89,0,0,0-6.64,8.45,78.92,78.92,0,0,0-5.55,9.66,1,1,0,0,0-.07.15c-.39-1.84-.72-3.71-1-5.62a64.64,64.64,0,0,1-.49-10v0a.68.68,0,0,0-.24-.54.69.69,0,0,0-1,.07,68.77,68.77,0,0,0-6.45,8.48,79.82,79.82,0,0,0-5.35,9.66,92.68,92.68,0,0,0-4.22,10.52c-.6,1.82-1.16,3.68-1.66,5.59-.25,1-.49,1.92-.7,2.92-.11.49-.21,1-.31,1.54-.05.26-.09.53-.13.83a7.12,7.12,0,0,0-.1,1,14.83,14.83,0,0,0,23.19,10.05,15.54,15.54,0,0,0,4.18,1.24,14.12,14.12,0,0,0,.37,1.59,123.8,123.8,0,0,0-2.92,43.87,13.42,13.42,0,0,0,13.34,12.07,12.7,12.7,0,0,0,1.37-.07,13.42,13.42,0,0,0,12-14.7c-1.47-14.61-.05-27.16,3.22-37.74a14.81,14.81,0,0,0,1.91-5.42c7.24-18.33,20.28-29.9,32.66-35,13-5.41,31.31-5.87,43.57,9.08a13.43,13.43,0,1,0,20.76-17Z" style="fill:#ffb400;"/><path d="M243.81,515.77c-.06.09-.16-.07-.24-.18a3.12,3.12,0,0,1-.27-.38c-.17-.28-.35-.57-.52-.89-.35-.61-.68-1.26-1-1.92-.65-1.33-1.27-2.72-1.85-4.14a72.67,72.67,0,0,1-3-8.87,68.39,68.39,0,0,1-1.88-9.47,64.7,64.7,0,0,1-.49-10v0a.68.68,0,0,0-.24-.54.69.69,0,0,0-1,.07,68.77,68.77,0,0,0-6.45,8.48l-.89,1.42c-.31-.95-.64-1.9-.93-2.87A68,68,0,0,1,223,477a63.63,63.63,0,0,1-.68-10.05v0a.75.75,0,0,0-1.31-.5,70,70,0,0,0-6.65,8.45,81.61,81.61,0,0,0-5.55,9.66,1,1,0,0,1-.07.15q-.59-2.76-1-5.62a62.3,62.3,0,0,1-.49-10v0a.71.71,0,0,0-.24-.54.7.7,0,0,0-1,.07,69.77,69.77,0,0,0-6.45,8.48,78.42,78.42,0,0,0-5.34,9.66A92.73,92.73,0,0,0,190,497.18c-.6,1.82-1.16,3.68-1.66,5.59-.24,1-.49,1.92-.7,2.92-.11.49-.21,1-.3,1.54,0,.26-.1.53-.14.83a6.11,6.11,0,0,0-.09,1,14.81,14.81,0,0,0,23.18,10,15.41,15.41,0,0,0,4.18,1.25,14.83,14.83,0,0,0,29.3-4.61Z" style="fill:#ffb400;"/><path d="M320.57,668.53c24,5.21,54.29-4.73,63.4-38.23,7.33-26.9,3.71-57.32-23.15-69.86l-3.87-1.8c-6.23-2.91-12.63-5.25-18.92-7.73q-4.65-2-9.35-3.83l-4.7-1.82c-1.56-.61-3.06-1.32-4.6-2-3.06-1.32-6.15-2.58-9.23-3.85s-6-2.74-9.09-4-6.13-2.59-9.05-4-5.93-2.85-8.94-4.19c-11.74-5.81-23.31-11.84-34.56-18.15-2.78-1.6-5.68-3.13-8.36-4.78L236,501.86c-1.31-.83-2.68-1.61-4-2.43l-2.05-1.19-2-1.21L224,494.69l-1.89-1.11-.87-.5-.8-.46-1-.62-.54-.28-2.06-1.15-.06-.08c-.81-.44-1.61-.85-2.4-1.24l-.09-.05h0c-6.35-3.11-17.46-6-33.94,2.31Z" style="fill:#00aee0;"/><path d="M349.92,566.5l-3.87-1.8c-6.23-2.91-12.63-5.25-18.92-7.73q-4.65-2-9.35-3.83l-4.7-1.82c-1.56-.61-3.07-1.32-4.6-2-3.06-1.32-6.15-2.58-9.24-3.85s-6-2.74-9.09-4-6.12-2.59-9-4.06-5.93-2.84-8.94-4.19c-11.75-5.81-23.31-11.84-34.57-18.15-2.77-1.6-5.67-3.13-8.36-4.78l-4.17-2.39c-1.31-.83-2.68-1.61-4-2.42L219,504.3,217,503.1l-3.92-2.35-1.89-1.11-.87-.5-.8-.46-1.05-.61-.54-.29-2.06-1.15-.07-.08c-.8-.44-1.6-.85-2.39-1.24l-.09,0h0a47.75,47.75,0,0,0-17.82-5.06c-30.22,3.26-37.79,74.22-7.62,105.84a276.53,276.53,0,0,0,40.72,31.42c7.61,4.63,15.26,9.32,23.19,13.25q2.94,1.54,5.93,3c2,1,3.95,2,6,2.89,4,1.79,8.07,3.57,12.12,5.3,2,.84,4.06,1.75,6.11,2.54l6.18,2.23q6.18,2.22,12.42,4.3c2.07.73,4.17,1.28,6.27,1.86s4.2,1.14,6.31,1.68c4.21,1.1,8.44,2.13,12.69,3.05,24,5.21,48.13,2.25,57.25-31.25C380.39,609.46,376.78,579,349.92,566.5Z" style="fill:#04294f;"/><path d="M345.75,590.46l-2.06-1c-3.33-1.55-3.91-1.38-7.26-2.7q-2.49-1.06-5-2l-1.5-.58c-11.9-4.39-21.55-3.28-21.55,23.84,0,22,.78,30.37,18.39,36.9l2.5.64c2.25.58,6.93,1.93,9.2,2.43,12.77,2.77,15.75-2,18.19-20.29C358.87,611.17,360.07,597.14,345.75,590.46Z" style="fill:#ffb400;"/><path d="M329.26,658.63a12.91,12.91,0,0,0,.22-2.4c0-8-.93-16.72-9.75-19.31a29.29,29.29,0,0,0-10.31-1.74,28.61,28.61,0,0,0-10.88,2,11.36,11.36,0,0,0-3.74,2.25.39.39,0,0,0-.1.08,13,13,0,0,0-3.05,4.29,26.74,26.74,0,0,0-2.22,10.16c0,4.86.27,8.94,2.32,13.43a12.9,12.9,0,0,0,2.28,3.4l.05.06.52.52c.15.15.32.29.49.43a11.43,11.43,0,0,0,3.25,1.92,28.41,28.41,0,0,0,11.08,2.06c5.88,0,11-1.48,14-3.72l.2-.17a7.46,7.46,0,0,0,.66-.56s.1-.08.14-.13l.11-.13a8.63,8.63,0,0,0,.63-.75C327.86,666.88,328.85,662.78,329.26,658.63Z" style="fill:#fff;"/><ellipse cx="309.42" cy="643.31" rx="16.68" ry="8.14" style="fill:#fff;"/><ellipse cx="309.42" cy="642.29" rx="7.26" ry="2.81" style="fill:#04294f;"/><path d="M325.29,647.22a12.33,12.33,0,0,1-6.54,7.08,21.45,21.45,0,0,1-9.28,2.13,20.16,20.16,0,0,1-9.35-1.91,14.17,14.17,0,0,1-4-2.94,9,9,0,0,1-2.36-4.37.74.74,0,0,1,.59-.88.78.78,0,0,1,.58.12l.16.12a19.23,19.23,0,0,0,6.9,3,36.26,36.26,0,0,0,7.46.87,29.56,29.56,0,0,0,7.51-.74,19.55,19.55,0,0,0,3.51-1.24,14.77,14.77,0,0,0,3.18-2.06l.2-.16a.9.9,0,0,1,1.43,1Z" style="fill:#04294f;"/><path d="M313.79,588.56a73.9,73.9,0,0,1,2.46,12.94,127.51,127.51,0,0,1,.71,12.94,124.34,124.34,0,0,1-.61,12.93A73.28,73.28,0,0,1,314,640.31a4.71,4.71,0,0,1-9,0,72.39,72.39,0,0,1-2.37-12.94,121.64,121.64,0,0,1-.61-12.93,124.68,124.68,0,0,1,.71-12.94,73.87,73.87,0,0,1,2.45-12.94,4.52,4.52,0,0,1,8.67,0Z" style="fill:#ffb400;"/><path d="M217.78,536.33l-1.88-1.15c-3-1.87-3.62-1.77-6.72-3.42q-2.28-1.31-4.59-2.52l-1.38-.73c-11-5.56-20.47-5.56-23.47,20.66-2.43,21.22-2.6,29.44,13.7,37.7l2.34.89c2.11.82,6.49,2.64,8.62,3.37,12,4.09,15.44-.14,19.83-17.6C228.17,557.81,230.88,544.38,217.78,536.33Z" style="fill:#ffb400;"/><path d="M194.3,600.4a12,12,0,0,0,.48-2.29c.89-7.7.95-16.27-7.29-19.74a28.32,28.32,0,0,0-9.77-2.83,27.94,27.94,0,0,0-10.73.7,11.17,11.17,0,0,0-3.87,1.76l-.1.07a12.47,12.47,0,0,0-3.42,3.81,25.92,25.92,0,0,0-3.27,9.57c-.54,4.7-.73,8.67.76,13.23a12.54,12.54,0,0,0,1.82,3.55l0,0a9.38,9.38,0,0,0,.88,1,10.82,10.82,0,0,0,2.93,2.21,27.43,27.43,0,0,0,10.47,3.22c5.68.66,10.83-.21,14-2l.22-.13c.25-.16.48-.31.7-.48l.15-.1.12-.12a7.23,7.23,0,0,0,.69-.66C192,608.22,193.45,604.36,194.3,600.4Z" style="fill:#fff;"/><ellipse cx="176.82" cy="583.4" rx="7.91" ry="16.23" transform="translate(-422.9 692.71) rotate(-83.47)" style="fill:#fff;"/><ellipse cx="176.94" cy="582.42" rx="2.73" ry="7.06" transform="translate(-421.83 691.95) rotate(-83.47)" style="fill:#04294f;"/><path d="M191.75,589a12,12,0,0,1-7.11,6.17,21.05,21.05,0,0,1-9.23,1,19.64,19.64,0,0,1-8.85-2.9A13.72,13.72,0,0,1,163,590a8.88,8.88,0,0,1-1.79-4.52.75.75,0,0,1,.7-.8.72.72,0,0,1,.55.18l.15.13a19,19,0,0,0,6.35,3.63,35.61,35.61,0,0,0,7.09,1.65,29.43,29.43,0,0,0,7.31.14,19,19,0,0,0,3.53-.8,16.52,16.52,0,0,0,1.71-.69c.54-.27,1.13-.62,1.59-.91l.23-.14a.89.89,0,0,1,1.24.28A.93.93,0,0,1,191.75,589Z" style="fill:#04294f;"/><path d="M187.23,531a70.42,70.42,0,0,1,1,12.79,119.78,119.78,0,0,1-.72,12.58,116.64,116.64,0,0,1-2,12.43A68.52,68.52,0,0,1,181.68,581a4.72,4.72,0,0,1-9-1,69.18,69.18,0,0,1-.92-12.77,121.29,121.29,0,0,1,3-25A70.33,70.33,0,0,1,178.61,530a4.52,4.52,0,0,1,6-2.34A4.58,4.58,0,0,1,187.23,531Z" style="fill:#ffb400;"/><path d="M202.79,526.24a12.79,12.79,0,0,0,.49-2.29c.88-7.7.94-16.26-7.29-19.74a28.45,28.45,0,0,0-9.78-2.83,27.94,27.94,0,0,0-10.73.7,11.17,11.17,0,0,0-3.87,1.76l-.1.07a12.47,12.47,0,0,0-3.42,3.81,25.92,25.92,0,0,0-3.27,9.57c-.54,4.7-.73,8.67.76,13.23a12.54,12.54,0,0,0,1.82,3.55l0,0c.15.2.29.39.45.57a6.29,6.29,0,0,0,.43.47,11.06,11.06,0,0,0,2.93,2.22,27.78,27.78,0,0,0,10.47,3.22c5.69.65,10.83-.22,14-2.06l.21-.13a7.18,7.18,0,0,0,.7-.48l.15-.1.12-.12a7.23,7.23,0,0,0,.69-.66C200.53,534.06,201.94,530.2,202.79,526.24Z" style="fill:#fff;"/><ellipse cx="185.31" cy="509.24" rx="7.91" ry="16.23" transform="translate(-341.7 635.42) rotate(-83.47)" style="fill:#fff;"/><ellipse cx="185.43" cy="508.26" rx="2.73" ry="7.06" transform="translate(-340.62 634.66) rotate(-83.47)" style="fill:#04294f;"/><path d="M200.24,514.79a12,12,0,0,1-7.11,6.17,21,21,0,0,1-9.23,1,19.67,19.67,0,0,1-8.85-2.9,13.72,13.72,0,0,1-3.53-3.31,8.88,8.88,0,0,1-1.79-4.51.75.75,0,0,1,.7-.81.72.72,0,0,1,.55.18l.15.14a19.12,19.12,0,0,0,6.36,3.62,35.67,35.67,0,0,0,7.08,1.65,29,29,0,0,0,7.32.14,19,19,0,0,0,3.52-.8,16.52,16.52,0,0,0,1.71-.69c.54-.27,1.13-.62,1.59-.91l.23-.14a.89.89,0,0,1,1.24.28A.93.93,0,0,1,200.24,514.79Z" style="fill:#04294f;"/><path d="M202.73,556.1a12.33,12.33,0,0,0-3.27-4.19,17.5,17.5,0,0,0-4.1-2.58,19.38,19.38,0,0,0-2.23-.86l-.37-.11c-.07-.5-.14-1-.24-1.52a15.8,15.8,0,0,0-.59-2.05,7.3,7.3,0,0,0-1.12-2,.73.73,0,0,0-.4-.25.77.77,0,0,0-.94.55l-.05.2c-.29,1.12-.68,2.34-1,3.53l-.48,1.8-.43,1.77a2.37,2.37,0,0,0,1.71,2.84l.71.19a12.65,12.65,0,0,1,1.36.44c.52.21,1,.47,1.55.73a13.27,13.27,0,0,1,2.73,1.87,7.08,7.08,0,0,1,1.74,2.21,4.52,4.52,0,0,1,.4,2.39,5.38,5.38,0,0,1-2.89,4.28,12.21,12.21,0,0,1-3.07,1.21,15.93,15.93,0,0,1-1.7.32,10.66,10.66,0,0,1-1.59.12h-.64a1.94,1.94,0,0,0-2,1.75c0,.41-.11,1-.2,1.43l-.27,1.49c-.2,1-.42,2-.71,3l0,.08a.93.93,0,0,0,.13.8,1,1,0,0,0,1.33.23,11,11,0,0,0,2.55-2.58,13.28,13.28,0,0,0,.84-1.27,17.53,17.53,0,0,0,3.24-.2,16,16,0,0,0,4.65-1.43,11.29,11.29,0,0,0,4.16-3.37,10.81,10.81,0,0,0,2-5.15A10.19,10.19,0,0,0,202.73,556.1Z" style="fill:#04294f;"/><path d="M335,611.45a14.93,14.93,0,0,0-4.32-3.64,23.92,23.92,0,0,0-4.73-2c-.81-.26-1.63-.47-2.47-.65L323,605c-.11-.5-.22-1-.36-1.49a15.74,15.74,0,0,0-.76-2,6.93,6.93,0,0,0-1.28-1.94.69.69,0,0,0-.42-.22.78.78,0,0,0-.9.63l0,.2c-.19,1.14-.49,2.38-.72,3.6l-.33,1.83-.28,1.8a2.37,2.37,0,0,0,1.95,2.7l.71.12c.12,0,.45.07.74.14s.61.15.93.23c.64.18,1.28.4,1.92.63a21.76,21.76,0,0,1,3.57,1.7,10,10,0,0,1,2.63,2.2,3.69,3.69,0,0,1,.08,4.71,7.79,7.79,0,0,1-2.6,2,18.52,18.52,0,0,1-3.69,1.36c-.66.17-1.33.31-2,.43a16.59,16.59,0,0,1-1.91.24l-.58,0a2,2,0,0,0-1.85,1.92c0,.4,0,.95-.07,1.43l-.15,1.51c-.12,1-.26,2-.46,3l0,.08a.95.95,0,0,0,1.54.91,10.66,10.66,0,0,0,2.33-2.79,12.79,12.79,0,0,0,.72-1.31c.35,0,.69,0,1-.05.84-.06,1.67-.17,2.5-.31a21.05,21.05,0,0,0,5-1.44,12.94,12.94,0,0,0,4.71-3.34,9.45,9.45,0,0,0,.17-12.11Z" style="fill:#04294f;"/><path d="M290.13,663.71a38.11,38.11,0,0,0,2.61,4.55,14,14,0,0,0,1.55,1.78l.42.4.25.22c.07.07.14.11.21.17.28.22.56.42.87.63a10.88,10.88,0,0,0,1.94,1c.33.13.66.23,1.11.39s.78.26,1.18.37a31.91,31.91,0,0,0,4.84,1,43.93,43.93,0,0,0,5,.32,49.92,49.92,0,0,0,5.05-.17A26.68,26.68,0,0,0,325,672l.07,0a.76.76,0,0,1,1,.34.77.77,0,0,1,0,.71,11.92,11.92,0,0,1-4.4,4.24,21.56,21.56,0,0,1-5.56,2.3,29.35,29.35,0,0,1-11.84.56,27.71,27.71,0,0,1-5.86-1.55c-.47-.19-1-.41-1.39-.61s-.93-.42-1.42-.71a13.8,13.8,0,0,1-2.67-2,12.16,12.16,0,0,1-1.15-1.22c-.09-.11-.19-.23-.26-.33l-.22-.29-.46-.66a13.67,13.67,0,0,1-1.41-2.84,19,19,0,0,1-1.08-5.8.93.93,0,0,1,.91-1,.92.92,0,0,1,.85.51Z" style="fill:#04294f;"/><path d="M161.72,578.6a13.27,13.27,0,0,0-2.38,3.19,25.48,25.48,0,0,0-1.54,3.74,31.43,31.43,0,0,0-1,3.93c-.12.66-.21,1.32-.27,2l-.08,1-.06,1.07a36.08,36.08,0,0,0,.31,8,22.72,22.72,0,0,0,1,3.71,10.39,10.39,0,0,0,1.63,3,9.54,9.54,0,0,0,1.07,1.17,10.05,10.05,0,0,0,1.29,1c.39.24,1.14.66,1.64.93s1.14.54,1.73.8a34.38,34.38,0,0,0,7.64,2.13,35.66,35.66,0,0,0,8.06.47,21,21,0,0,0,4-.59,11,11,0,0,0,1.89-.62c.28-.14.6-.24.88-.4l.84-.53.12-.07a.74.74,0,0,1,1,.26.75.75,0,0,1,0,.8c-.24.33-.49.66-.74,1a10.18,10.18,0,0,1-.89.85,13.25,13.25,0,0,1-2,1.39,20.06,20.06,0,0,1-4.4,1.77,29.45,29.45,0,0,1-9.29.94,30.85,30.85,0,0,1-9.26-1.88c-.76-.28-1.5-.61-2.24-1s-1.32-.67-2.17-1.19a15.14,15.14,0,0,1-4-3.73,16.44,16.44,0,0,1-2.35-4.7,26.37,26.37,0,0,1-1-4.75,35.07,35.07,0,0,1,.41-9.33l.18-1.1c.06-.41.14-.81.23-1.2.19-.78.41-1.53.65-2.28a27.59,27.59,0,0,1,1.82-4.3,22.65,22.65,0,0,1,2.58-3.92,12.74,12.74,0,0,1,3.67-3,.92.92,0,0,1,1.09,1.45Z" style="fill:#04294f;"/><path d="M355.55,555.16a14.87,14.87,0,0,1-2.7-3.61,17.26,17.26,0,0,1-1.54-4,13.26,13.26,0,0,1-.43-4.31,10.71,10.71,0,0,1,.39-2.2,8.69,8.69,0,0,1,1-2.24.94.94,0,0,1,1.28-.29l.16.13,0,0a9.65,9.65,0,0,1,1.43,1.88,16.14,16.14,0,0,1,1,1.91,17.6,17.6,0,0,1,1,3.85,32,32,0,0,1,.44,4,14.92,14.92,0,0,1-.32,4.34v0a1,1,0,0,1-1.71.52Z" style="fill:#04294f;"/><path d="M717.41,384a8.5,8.5,0,0,0-9.18-7.76l-.57.05c-3.87.32-7.43.82-10.82,1.38a2.52,2.52,0,0,1-2.38-4.06c1.21-1.49,2.38-3,3.5-4.57a107,107,0,0,0,14.24-26.84,82.08,82.08,0,0,0,5.14-30.3,9.14,9.14,0,0,0-.85-3.54,8.87,8.87,0,0,0-11.81-4.2l-.52.25c-9.27,4.4-16.5,9.21-23.89,13.44-7.12,4.43-13.94,8.51-20.38,12.65q-2.48,1.49-4.83,3c-1.56,1-3.22,2-4.79,3-3.07,2.09-6.34,3.92-9.36,6-6.29,3.89-12.43,7.95-18.82,11.78-12.81,7.59-26.18,14.85-40.41,22.07-7.11,3.63-14.43,7.24-22,11l-20.2,10.7c-17.75-21.7-42.62-38.56-72.27-44.82A122.11,122.11,0,0,0,441,350.7h0c-83-.05-157.76,41.66-193.42,87.91a93.33,93.33,0,0,0-11.82,18.11h0a80.14,80.14,0,0,0-3.91,9.39c-.56,1.66-1.12,3.32-1.61,5s-.84,3.41-1.22,5.12a74.48,74.48,0,0,0-1.48,10.45c-.05.89-.15,1.76-.15,2.65V492c0,1.77.12,3.59.2,5.37a58,58,0,0,0,2.06,11,8.36,8.36,0,0,0,.78,1.73,7.33,7.33,0,0,0,2.22,2.31,3.59,3.59,0,0,1,1.65,3.56,2.93,2.93,0,0,0,0,.29c-.28,1.83-.56,3.66-.75,5.51s-.27,3.72-.36,5.58a73.11,73.11,0,0,0,.43,11.24c.11.94.21,1.88.34,2.82l.54,2.83c.32,1.87.85,3.77,1.29,5.63s1.19,3.76,1.91,5.64a49.87,49.87,0,0,0,2.57,5.62c.19.33.42.69.65,1a9.28,9.28,0,0,0,4.32,3.21,3.49,3.49,0,0,1,2.29,2.92,94.1,94.1,0,0,0,4.13,19.82,90.46,90.46,0,0,0,5,12.41,62.91,62.91,0,0,0,3.41,6,53.74,53.74,0,0,0,4.11,5.79A9.57,9.57,0,0,0,266,614a9.43,9.43,0,0,0,13.14-2.29l.17-.24c5.4-7.68,8.84-14.76,12.41-21.59.85-1.7,1.61-3.39,2.41-5.07s1.59-3.32,2.31-5,1.44-3.28,2.15-4.9,1.35-3.23,2-4.84c1.43-3.19,2.46-6.4,3.75-9.54.58-1.59,1.15-3.17,1.68-4.75s1.13-3.15,1.65-4.73c2.2-6.28,3.94-12.65,6-19l11.6-36.74C341.43,526,378.36,548.61,424,558.24c68.71,14.49,131.16-5.82,143.09-62.41a92.7,92.7,0,0,0,1.83-14.08,144.14,144.14,0,0,0,37,6.4,137.38,137.38,0,0,0,26.39-1.54,113.08,113.08,0,0,0,25.43-7.48,96.48,96.48,0,0,0,22.64-13.64,74.06,74.06,0,0,0,17.59-20,6.8,6.8,0,0,0-1.23-8.51,7.21,7.21,0,0,0-4.8-2h-.14c-1.84-.06-3.62-.08-5.36-.07a2.52,2.52,0,0,1-1.48-4.59l.08-.05a93.49,93.49,0,0,0,19.5-18.81A71.54,71.54,0,0,0,717.13,387,8.89,8.89,0,0,0,717.41,384Z" style="fill:#ff3a00;"/><path d="M535.59,401.57a13,13,0,0,1-2.72,3.77,17.49,17.49,0,0,1-3.36,2.58,11.53,11.53,0,0,1-3.9,1.54,9.78,9.78,0,0,1-4.88-.28,1.41,1.41,0,0,1-.92-1.74,9.79,9.79,0,0,1,2.5-4.2,11.67,11.67,0,0,1,3.47-2.36,17.25,17.25,0,0,1,4-1.33,13,13,0,0,1,4.65-.13,1.52,1.52,0,0,1,1.26,1.74A1.48,1.48,0,0,1,535.59,401.57Z" style="fill:#04294f;"/><path d="M686,381.92a44.55,44.55,0,0,1-5.32,5.32c-1.88,1.63-3.85,3.13-5.86,4.56a104.67,104.67,0,0,1-12.63,7.6,94.92,94.92,0,0,1-13.5,5.76c-2.33.77-4.7,1.42-7.09,2a54.15,54.15,0,0,1-7.37,1.17,1,1,0,0,1-.72-1.82l0,0a59.79,59.79,0,0,1,6.1-4.16c2-1.3,4.15-2.47,6.25-3.62s4.24-2.22,6.35-3.32l6.41-3.12,12.87-6.12,12.94-6.1.07,0a1.23,1.23,0,0,1,1.64.59A1.24,1.24,0,0,1,686,381.92Z" style="fill:#04294f;"/><path d="M676.82,435.63a55.64,55.64,0,0,1-9.89,5.63,82.65,82.65,0,0,1-10.56,3.93,59.23,59.23,0,0,1-11.1,2.26c-.94.09-1.91.14-2.87.16a25.36,25.36,0,0,1-2.89,0,26.63,26.63,0,0,1-5.82-.88,1.07,1.07,0,0,1-.74-1.3,1.1,1.1,0,0,1,.54-.65l0,0a79.49,79.49,0,0,1,10.3-4.18c3.44-1.16,6.91-2.16,10.42-3.05s7.06-1.76,10.66-2.48A90.07,90.07,0,0,1,676,433.37h0a1.25,1.25,0,0,1,1.35,1.15A1.23,1.23,0,0,1,676.82,435.63Z" style="fill:#04294f;"/><path d="M581.45,456.5l-8.86-7.71a.64.64,0,0,1-.23-.5.67.67,0,0,1,.2-.52l8.45-8.41a12.68,12.68,0,0,0-1.29-19.12l-9.43-7.14a.72.72,0,0,1-.1-1l8-8.81a12.7,12.7,0,0,0-2.22-19L571,381c-4.13,2.11-8.35,4.15-12,6l10.14,7.18a.71.71,0,0,1,.12,1l-8,8.82a12.69,12.69,0,0,0,1.76,18.63l9.43,7.15a.62.62,0,0,1,.27.5.64.64,0,0,1-.2.54l-8.45,8.42a12.69,12.69,0,0,0,.62,18.58l8.86,7.7a.68.68,0,0,1,.24.54.64.64,0,0,1-.26.52l-9.32,7.68a12.06,12.06,0,0,0-1.74,1.76l-1.34-.74c-3.2-1.7-6.42-3.22-9.67-4.74s-6.51-3-9.81-4.51-6.64-3-10.2-4.28h0a1.27,1.27,0,0,0-1.21.2,1.25,1.25,0,0,0-.21,1.76,45.08,45.08,0,0,0,8.27,7.95,63.66,63.66,0,0,0,9.67,6.05,53,53,0,0,0,10.62,4.15,35.62,35.62,0,0,0,11.47,1.26,1,1,0,0,0,.53-.22c.52.13,1,.27,1.56.39l9-7.43a12.68,12.68,0,0,0,.26-19.38Z" style="fill:#04294f;"/><path d="M327.88,124.68c-3.59-6.29-19.83-3.78-36.27,5.6s-26.85,22.1-23.25,28.4l34,82.92,80-47.14Z" style="fill:#04294f;"/><path d="M422.31,205h0a12.53,12.53,0,0,0-.59-5.66,10.33,10.33,0,0,0-3.16-4.43c-2.91-2.39-7-3.47-11.08-4-8.28-1-16.94.24-25.31,2.13a166.44,166.44,0,0,0-24.69,7.9A204.29,204.29,0,0,0,334,212.16a185.48,185.48,0,0,0-21.82,14.1,124.64,124.64,0,0,0-19,17.36A57,57,0,0,0,286,253.93c-1.89,3.63-3.19,7.61-2.8,11.25a10.07,10.07,0,0,0,1.9,5,13,13,0,0,0,4.37,3.54,31.85,31.85,0,0,0,12,3h0a1.73,1.73,0,0,1,1.58,1.78c16.31.33,39.62-6,63.37-18.23,31.38-16.18,53.9-37.75,57.39-53.29A1.81,1.81,0,0,1,422.31,205Z" style="fill:#fff;"/><path d="M425.5,198.05a14.27,14.27,0,0,0-4.15-6.39,20.17,20.17,0,0,0-6.35-3.74l-.06,0c-17.54-13.45-48-5.34-81.14,11.73-34.66,17.87-61.18,39.46-55.32,61.77a17.16,17.16,0,0,0,.06,4.41,14.67,14.67,0,0,0,3.09,7.08,17.06,17.06,0,0,0,6,4.5,33.87,33.87,0,0,0,13.63,2.76,1.74,1.74,0,0,0,1.77-1.59.34.34,0,0,0,0-.1,1.73,1.73,0,0,0-1.58-1.78h0a31.85,31.85,0,0,1-12-3,13,13,0,0,1-4.37-3.54,10.07,10.07,0,0,1-1.9-5c-.39-3.64.91-7.62,2.8-11.25a57,57,0,0,1,7.21-10.31,124.64,124.64,0,0,1,19-17.36A185.48,185.48,0,0,1,334,212.16a204.29,204.29,0,0,1,23.45-11.25,166.44,166.44,0,0,1,24.69-7.9c8.37-1.89,17-3.09,25.31-2.13,4.07.52,8.17,1.6,11.08,4a10.33,10.33,0,0,1,3.16,4.43,12.53,12.53,0,0,1,.59,5.66h0a1.81,1.81,0,0,0,1.47,2h0a1.81,1.81,0,0,0,2.07-1.5A16.31,16.31,0,0,0,425.5,198.05Z" style="fill:#04294f;"/><path d="M453.23,271.72l.43,13.45,5.77-.67v12.58s-23.65,8.31-52-2.45c-15.81-6-5.44-27.93,10.18-25.63C439.65,272.25,453.23,271.72,453.23,271.72Z" style="fill:#fff;"/><path d="M412.18,305.22c-6.49-3.12-13-6.29-19.51-9.42-11.24,12.05-27.89,21.65-53.74,20.88-52.53-1.55-43.45,42.53,2.47,33.46,38.61-7.63,63.05-27.88,77.09-41.88C416.28,307.25,414.16,306.17,412.18,305.22Z" style="fill:#ff3a00;"/><path d="M426.56,270c2.74-25.94-5.52-53-5.52-53S388.66,192,336.23,227.41,314.61,333.26,328.7,357l.06.1a100.3,100.3,0,0,0,6.59,10.24,94.91,94.91,0,0,0,38,30.75,1,1,0,0,0,1.14-1.56,56,56,0,0,1-6-8.87,1,1,0,0,1,1.25-1.39c8.18,3.61,20.61,6.18,28.74,7.6a1,1,0,0,0,.67-1.83,26,26,0,0,1-7.28-6.1,1,1,0,0,1,.74-1.62,30.3,30.3,0,0,0,5.58-.68,1,1,0,0,0,.25-1.85A29.54,29.54,0,0,1,387,372.08a1,1,0,0,1,1-1.52,41.77,41.77,0,0,0,13.56-.78.58.58,0,0,0,0-1.13c-15.3-3.37-27.5-11.13-36.33-23.16a66.11,66.11,0,0,1-8.1-14.65c15.27-3,38.7-10.11,54.64-26.18-7-2.65-12.07-9.48-13.4-16.73-1.15-6.25-.83-14.74,4-19.46C408.64,262.39,419,268.49,426.56,270Z" style="fill:#04294f;"/><path d="M434.69,248.65s.44-13-16-14.77c-14.35-1.56-28,9.17-38.38,25.67s-29.89,55.62-81.83,47.63-48.34,36.88-1.65,33.51c51.35-3.71,81.3-31.84,93-41.41C385,278.06,392.9,246.81,434.69,248.65Z" style="fill:#ff3a00;"/><path d="M407.6,288.42l-1.77-10.23a4.87,4.87,0,0,1,5.59-5.64c10.55,1.74,31.74,4.22,52,.52a.8.8,0,0,0,.53-1.21c-1.91-3-9.08-12.48-29.23-23.21-41.79-1.84-49.72,29.41-44.81,50.63,0,0,31,26.6,70.64-2.33a.8.8,0,0,0-.69-1.42c-7.78,2.2-25,4.94-49-3.32A5,5,0,0,1,407.6,288.42Z" style="fill:#ffb400;"/><path d="M461.31,284.06a1.82,1.82,0,0,0-2.14-1.44l-.22.05c-.38.07-.9.14-1.36.2s-.95.12-1.43.16-.83.06-1.25.07V283l-.32-1.91c-.11-.64-.23-1.28-.37-1.93s-.28-1.32-.49-2v0a.53.53,0,0,0-1-.09,11.61,11.61,0,0,0-.81,2,15,15,0,0,0-.48,2.06,19.76,19.76,0,0,0-.21,2c-2.88.05-5.8.09-8.7.08-3.53,0-7.05-.11-10.57-.25s-7-.4-10.54-.71-7-.73-10.6-1.09h0a.49.49,0,0,0-.51.3.5.5,0,0,0,.27.65,61.51,61.51,0,0,0,10.36,3.3,88.57,88.57,0,0,0,10.74,1.71c3.6.37,7.23.56,10.85.58a85,85,0,0,0,10.89-.6l.11,0a20.37,20.37,0,0,0,3-.1c.35,0,.69-.1,1-.15,0,.62.1,1.25.2,1.87a17.51,17.51,0,0,0,.4,2.14,16.45,16.45,0,0,0,.64,2.11.65.65,0,0,0,.46.39.64.64,0,0,0,.75-.49h0c.29-1.4.52-2.79.7-4.15l.59-4A2.1,2.1,0,0,0,461.31,284.06Z" style="fill:#04294f;"/><path d="M394.5,256.68a32,32,0,0,0,2.06-3.46c6.14-11.92,12.12-20,22.17-19.34,0,0,14.84.54,16,14.77a131.21,131.21,0,0,1,12.17,7.52,5.44,5.44,0,0,0,5.51-4.46,111.18,111.18,0,0,0,1.7-22.73c4.93-3.19,7.84-.87,7.57-2.62-1.46-9.27-7.92-13.35-16.12-13.34-20.43,0-37.54,1.5-88.32.06-4.13-.12-10.2,4-11,8-1.54,7.47-3.67,17.91-1.37,32.09a8.29,8.29,0,0,0,.51,1.82c3.53,10.9,14.16,12.16,18.75,11.64,1.61-.19,15.41-4.22,29.06-9.86Z" style="fill:#00aee0;"/><path d="M371.62,265.81c11.36-1.29,18.79-.67,24.94-12.59s12.12-20,22.17-19.34c0,0,14.84.54,16,14.77a127.3,127.3,0,0,1,20.17,13.63c3.54-.52,4.46-3.29,5-7,2.33-15.25,3-21.89,1.75-28.94-.63-3.56-3.46-7-7.08-6.81-37.33,1.39-42.56,1.84-91.57.11-3.84-.13-6.89,3.3-7.46,7.1-1.29,8.68-3,18.71-.7,32.86a8.38,8.38,0,0,0,9.22,7c2.09-.25,4.65-.53,7.57-.83Z" style="fill:#04294f;"/><path d="M358.21,163.5a248.45,248.45,0,0,0-36.88,15.79A255.45,255.45,0,0,0,285.73,201l9.69,23.6c10-8.86,23.42-17.27,38.38-25,14.12-7.29,27.77-12.93,40.14-16Z" style="fill:#ff3a00;"/><path d="M359.72,188l-13.31-20.27c-8.12,3.23-16.52,7.1-25.08,11.52l-.66.34,10.39,21.42h0c.91-.48,1.82-1,2.74-1.43a227.81,227.81,0,0,1,25.92-11.57Z" style="fill:#ffb400;"/><path d="M378.33,400.05c2.59.85,5.06,1.83,7.49,2.84s4.82,2.05,7.19,3.09,4.73,2.12,7.06,3.31a51.58,51.58,0,0,1,6.93,4.15h0a.8.8,0,0,1,.15,1.11.76.76,0,0,1-.54.31,24.18,24.18,0,0,1-8.38-.62,35.65,35.65,0,0,1-4-1.2c-1.29-.51-2.56-1-3.8-1.65a46.48,46.48,0,0,1-7.08-4.23,32.07,32.07,0,0,1-6.14-5.64.94.94,0,0,1,1-1.49Z" style="fill:#04294f;"/><path d="M405.32,368a37.44,37.44,0,0,1,5.51-1c1.81-.2,3.61-.32,5.42-.36a34.13,34.13,0,0,1,5.43.23,25.05,25.05,0,0,1,2.77.54,13.32,13.32,0,0,1,2.84,1h0a.85.85,0,0,1,.38,1.14.79.79,0,0,1-.28.32,15.55,15.55,0,0,1-5.5,2.25,23.16,23.16,0,0,1-5.69.46,29.14,29.14,0,0,1-5.7-.71,18.16,18.16,0,0,1-5.56-2.16,1,1,0,0,1-.31-1.33.93.93,0,0,1,.58-.43Z" style="fill:#04294f;"/><path d="M383,220.31l-28.94,33c.18,2,.43,4.09.78,6.29a8.57,8.57,0,0,0,1.36,3.4l37.21-42.44C390.2,220.51,386.76,220.42,383,220.31Z" style="fill:#fff;"/><path d="M401,220.72,360.9,266.4a8.27,8.27,0,0,0,3.15.24l2.18-.25,40-45.62Z" style="fill:#fff;"/><path d="M454.56,219.55l-1.75.06-19.87,22.67a16.32,16.32,0,0,1,1.75,6.37s.83.44,2.23,1.23L460.4,223.1A6.72,6.72,0,0,0,454.56,219.55Z" style="fill:#fff;"/><path d="M445.32,255.12l16.88-19.25a48.06,48.06,0,0,0-.11-6l-20.15,23C443,253.58,444.14,254.32,445.32,255.12Z" style="fill:#fff;"/><path d="M346.62,242.55c-.45,0-.72,0-1.05-.06l-.94-.08-1.81-.2c-1.2-.14-2.38-.29-3.55-.46-2.35-.34-4.66-.74-7-1.17-4.59-.86-9.12-1.86-13.62-3l-3.36-.85-1.61-.41a.27.27,0,0,1-.14,0c-.05,0-.16,0-.24,0l-.13,0-.18,0a2.71,2.71,0,0,0-.38.06,5.24,5.24,0,0,0-.92.34,9.47,9.47,0,0,0-2,1.28,12.33,12.33,0,0,0-4.45,9v.37a4.75,4.75,0,0,1-9.48.47,20.12,20.12,0,0,1,1.68-9.6,23.57,23.57,0,0,1,5.25-7.57,20.19,20.19,0,0,1,4-2.93,15.93,15.93,0,0,1,2.5-1.14,13,13,0,0,1,1.46-.41l.74-.17.84-.09a10.43,10.43,0,0,1,1.69-.07c.61,0,1.21.11,1.81.2l1.73.36,3.27.67c4.37.87,8.75,1.64,13.12,2.26,2.18.31,4.36.59,6.53.8,1.08.12,2.16.21,3.23.29l1.58.1,1.41.05.45,0a6,6,0,1,1-.47,12Z" style="fill:#00aee0;"/><path d="M427.11,262.19a5.23,5.23,0,0,1,2,.16,5.91,5.91,0,0,1,1.62.71,4.14,4.14,0,0,1,1.28,1.19,4,4,0,0,1,.69,2,.79.79,0,0,1-.57.81,4.13,4.13,0,0,1-2.15,0,4.05,4.05,0,0,1-1.55-.82,5.74,5.74,0,0,1-1.21-1.29,5.39,5.39,0,0,1-.83-1.84.82.82,0,0,1,.62-1Z" style="fill:#04294f;"/><path d="M445.11,260.11a3.81,3.81,0,0,1,1.58.16,3.16,3.16,0,0,1,1.09.63,2.09,2.09,0,0,1,.66,1,3.06,3.06,0,0,1-.08,1.75,1,1,0,0,1-.71.68,3.09,3.09,0,0,1-1.75,0,2,2,0,0,1-1-.71,3.09,3.09,0,0,1-.58-1.11,3.83,3.83,0,0,1-.09-1.59A1,1,0,0,1,445.11,260.11Z" style="fill:#04294f;"/><path d="M522.35,341.55l1.22-1.47c0-1.28,0-2.55,0-3.84,0-4.59-.09-9.19-.18-13.79a12.73,12.73,0,0,0-2.69,2.4l-7.53,9a.63.63,0,0,1-.49.25.66.66,0,0,1-.52-.19l-8.58-8.29a12.71,12.71,0,0,0-19.1,1.68l-6.95,9.57a.68.68,0,0,1-.48.29.72.72,0,0,1-.54-.17l-2.16-1.87,2,10.2c.25,1.28.47,2.56.69,3.84.47,0,.93,0,1.39-.08a12.71,12.71,0,0,0,8.83-5.16l6.95-9.57a.71.71,0,0,1,.51-.29.68.68,0,0,1,.54.2l8.58,8.28a12.69,12.69,0,0,0,18.57-1Z" style="fill:#ff3a00;"/><path d="M576.31,313l4.77-3.45c.8-4.8,1.62-9.6,2.38-14.4,0-.3.07-.58.11-.87a12.72,12.72,0,0,0-4.78,2.11l-9.51,6.88a.71.71,0,0,1-1-.19L562,292.94a12.7,12.7,0,0,0-18.92-3.08L534,297.43a.67.67,0,0,1-.54.15.65.65,0,0,1-.48-.29l-5.21-7.5c0,1.35,0,2.7,0,4.06q.11,7.23.2,14.46a12.72,12.72,0,0,0,13.67-1.65l9.1-7.57a.63.63,0,0,1,.56-.15.67.67,0,0,1,.48.32l6.27,10.14A12.69,12.69,0,0,0,576.31,313Z" style="fill:#ff3a00;"/><path d="M581.15,362.19a12.77,12.77,0,0,0,10.23,0l10.83-4.76a.66.66,0,0,1,.58,0,.63.63,0,0,1,.37.44l3.23,11.48a12.64,12.64,0,0,0,12,9.24l1.78-2.31c3.13-4.07,6.28-8.13,9.37-12.23.44-.57.84-1.15,1.22-1.73-.3.08-.59.16-.88.26l-11,4a.71.71,0,0,1-.91-.47l-3.22-11.48a12.71,12.71,0,0,0-17.33-8.19l-10.84,4.76a.68.68,0,0,1-.56,0,.7.7,0,0,1-.38-.41l-2.53-7.49-5.62,10.88c-.58,1.13-1.18,2.23-1.78,3.34A12.66,12.66,0,0,0,581.15,362.19Z" style="fill:#ff3a00;"/><path d="M608.73,491a.65.65,0,0,1-.05-.56.86.86,0,0,1,.13-.23c-2.69-1-5.37-2-8.06-3.06l-3.16-1.24a5.73,5.73,0,0,0-.25.62,12.72,12.72,0,0,0,.84,10.19l5.64,10.4a.67.67,0,0,1,0,.57.69.69,0,0,1-.41.41l-11.18,4.17a12.72,12.72,0,0,0-7.29,7,2.5,2.5,0,0,0-.09.25l5.1,3.18c2.38,1.48,4.8,2.87,7.23,4.22l-1.14-2.5a.7.7,0,0,1,.39-.95l11.17-4.16a12.71,12.71,0,0,0,6.73-18Z" style="fill:#ff3a00;"/><path d="M586.85,537.46l-.77-11.81a.69.69,0,0,1,.17-.49c-2.73-2.41-5.4-4.9-8.08-7.38-.26-.23-.51-.47-.77-.72a12.75,12.75,0,0,0-3.29,9.37l.76,11.8a.69.69,0,0,1-.74.74l-11.9-.89a12.53,12.53,0,0,0-10.52,4.32l3.29,4.47c1.79,2.43,3.67,4.78,5.57,7.11v-3.25a.68.68,0,0,1,.23-.51.71.71,0,0,1,.52-.18l11.9.9a12.7,12.7,0,0,0,13.62-13.48Z" style="fill:#ff3a00;"/><path d="M195.61,322.73c-7.38-2.78-14.52-6-21.61-9.31s-14.06-6.85-21-10.51-13.74-7.44-20.41-11.53A194.17,194.17,0,0,1,113.19,278a1,1,0,0,1-.15-1.4,1,1,0,0,1,1.09-.33A195.59,195.59,0,0,1,136,285.18c7.08,3.33,14,6.95,20.85,10.72s13.62,7.67,20.3,11.75,13.27,8.3,19.65,12.94a1.23,1.23,0,0,1-1.15,2.14Z" style="fill:#04294f;"/><path d="M274.11,382a101.67,101.67,0,0,1-12.8-4.56c-4.15-1.76-8.2-3.69-12.17-5.76a118.42,118.42,0,0,1-11.61-6.79,66.3,66.3,0,0,1-10.62-8.61,1,1,0,0,1,0-1.46,1,1,0,0,1,.91-.27,65.82,65.82,0,0,1,13,4.15,118.35,118.35,0,0,1,12,6c3.92,2.18,7.75,4.5,11.5,7a99.5,99.5,0,0,1,10.84,8.2,1.24,1.24,0,0,1-1.15,2.13Z" style="fill:#04294f;"/><path d="M241.3,235.68a100.26,100.26,0,0,1-12.81-4.56c-4.14-1.76-8.19-3.69-12.16-5.76a120.36,120.36,0,0,1-11.61-6.78A67.37,67.37,0,0,1,194.09,210a1.05,1.05,0,0,1,0-1.47,1,1,0,0,1,.91-.27,66.48,66.48,0,0,1,13,4.15,120.46,120.46,0,0,1,12.05,6q5.87,3.27,11.49,7a98.65,98.65,0,0,1,10.85,8.2,1.24,1.24,0,0,1-1.15,2.13Z" style="fill:#04294f;"/><path d="M178,355.2a100.16,100.16,0,0,1-12.8-4.57c-4.15-1.75-8.2-3.68-12.17-5.76a118.33,118.33,0,0,1-11.61-6.78,66.3,66.3,0,0,1-10.62-8.61,1,1,0,0,1,0-1.46,1.08,1.08,0,0,1,.91-.28,67.16,67.16,0,0,1,13,4.15,120.54,120.54,0,0,1,12.05,6c3.92,2.18,7.75,4.5,11.5,7a99.4,99.4,0,0,1,10.84,8.19A1.25,1.25,0,0,1,178,355.2Z" style="fill:#04294f;"/><path d="M234.34,424.6c-11.63-5.07-23-10.58-34.36-16.19-5.65-2.83-11.31-5.66-16.91-8.59l-8.43-4.35L166.28,391l-8.37-4.46L149.59,382c-5.54-3.05-11-6.23-16.49-9.37s-10.88-6.45-16.25-9.82-10.72-6.76-15.93-10.42a1,1,0,0,1,.94-1.73c5.92,2.34,11.7,4.94,17.45,7.58s11.45,5.41,17.13,8.19,11.3,5.68,16.89,8.63l8.37,4.45,8.33,4.55,8.32,4.54,8.27,4.64c5.52,3.07,11,6.25,16.46,9.42,10.92,6.39,21.78,12.88,32.41,19.81a1.21,1.21,0,0,1,.35,1.68A1.2,1.2,0,0,1,234.34,424.6Z" style="fill:#04294f;"/><path d="M154,438.37a37.71,37.71,0,0,1-8-2,59.34,59.34,0,0,1-7.36-3.17,42.67,42.67,0,0,1-6.81-4.19,25.9,25.9,0,0,1-5.82-6,1.12,1.12,0,0,1,.31-1.55,1.1,1.1,0,0,1,.62-.19,25.83,25.83,0,0,1,8.23,1.56,42.73,42.73,0,0,1,7.25,3.38,59.48,59.48,0,0,1,6.69,4.42,37.4,37.4,0,0,1,6.05,5.6,1.3,1.3,0,0,1-.15,1.84A1.33,1.33,0,0,1,154,438.37Z" style="fill:#04294f;"/><path d="M105.34,299.82a38.06,38.06,0,0,1-8-2A62,62,0,0,1,90,294.68a43.18,43.18,0,0,1-6.81-4.2,25.71,25.71,0,0,1-5.82-6,1.12,1.12,0,0,1,.93-1.74,25.94,25.94,0,0,1,8.24,1.56,43,43,0,0,1,7.24,3.39,60.92,60.92,0,0,1,6.7,4.41,37,37,0,0,1,6,5.61,1.29,1.29,0,0,1-.15,1.83A1.33,1.33,0,0,1,105.34,299.82Z" style="fill:#04294f;"/><path d="M221.44,394.63a8.25,8.25,0,0,1-2,.35,8.89,8.89,0,0,1-1.8-.06,10.5,10.5,0,0,1-3.16-.9,7,7,0,0,1-2.62-1.94,7.51,7.51,0,0,1-1.63-3.76,1.64,1.64,0,0,1,.94-1.73,7.52,7.52,0,0,1,4-.71,7.11,7.11,0,0,1,3.06,1.13,10.27,10.27,0,0,1,2.49,2.15,8.19,8.19,0,0,1,1,1.47,9,9,0,0,1,.82,1.87A1.72,1.72,0,0,1,221.44,394.63Z" style="fill:#04294f;"/><path d="M267.42,291.42a8.17,8.17,0,0,1-2,.35,8.86,8.86,0,0,1-1.8-.06,10.65,10.65,0,0,1-3.17-.9,7,7,0,0,1-2.61-1.94,7.51,7.51,0,0,1-1.63-3.76,1.64,1.64,0,0,1,.93-1.73,7.54,7.54,0,0,1,4-.71,7.07,7.07,0,0,1,3.05,1.13,10.32,10.32,0,0,1,2.5,2.15,8.16,8.16,0,0,1,1,1.47,7.87,7.87,0,0,1,.82,1.87A1.71,1.71,0,0,1,267.42,291.42Z" style="fill:#04294f;"/><path d="M127.36,248.36a8.7,8.7,0,0,1-2,.34,8.24,8.24,0,0,1-1.8-.06,10.22,10.22,0,0,1-3.16-.9,7.12,7.12,0,0,1-2.62-1.94,7.51,7.51,0,0,1-1.63-3.75,1.65,1.65,0,0,1,.94-1.74,7.41,7.41,0,0,1,4-.7,7,7,0,0,1,3.06,1.12,10.27,10.27,0,0,1,2.49,2.15,8.57,8.57,0,0,1,1,1.47,9,9,0,0,1,.82,1.87A1.74,1.74,0,0,1,127.36,248.36Z" style="fill:#04294f;"/><path d="M226.47,301.81a33.57,33.57,0,0,1-7.57-1.74,52.79,52.79,0,0,1-6.92-2.93,37,37,0,0,1-6.37-4,23.2,23.2,0,0,1-5.38-5.78,1.15,1.15,0,0,1,.93-1.74A23.1,23.1,0,0,1,209,287a36.91,36.91,0,0,1,6.81,3.14,51.55,51.55,0,0,1,6.25,4.18,33.28,33.28,0,0,1,5.61,5.36,1.31,1.31,0,0,1-.2,1.85A1.29,1.29,0,0,1,226.47,301.81Z" style="fill:#04294f;"/><path d="M213.3,171.68a33.86,33.86,0,0,1-7.57-1.74,51.66,51.66,0,0,1-6.92-2.93,37.57,37.57,0,0,1-6.37-4,23.23,23.23,0,0,1-5.39-5.78,1.15,1.15,0,0,1,.37-1.57,1.18,1.18,0,0,1,.57-.17,23.19,23.19,0,0,1,7.79,1.32,37.62,37.62,0,0,1,6.81,3.15,54.34,54.34,0,0,1,6.25,4.17,34.14,34.14,0,0,1,5.61,5.37,1.33,1.33,0,0,1-.2,1.85A1.3,1.3,0,0,1,213.3,171.68Z" style="fill:#04294f;"/><path d="M251.62,552.71a65.71,65.71,0,0,1,2.23-12.27,101.66,101.66,0,0,1,4-11.69,76.48,76.48,0,0,1,5.45-11.09,57.14,57.14,0,0,1,3.52-5.15,36.91,36.91,0,0,1,4.25-4.72,1,1,0,0,1,1.75.91v0a69.56,69.56,0,0,1-3.14,11.95c-1.32,3.81-2.86,7.51-4.49,11.18s-3.33,7.32-5.16,10.93a112.45,112.45,0,0,1-6.05,10.68v0a1.25,1.25,0,0,1-2.29-.77Z" style="fill:#04294f;"/><path d="M241.75,504.67a47.3,47.3,0,0,1,2.1-10.1,70.53,70.53,0,0,1,3.7-9.46,53.56,53.56,0,0,1,5.09-8.79,40.05,40.05,0,0,1,3.28-4,26.41,26.41,0,0,1,4-3.52,1.07,1.07,0,0,1,1.49.25,1,1,0,0,1,.19.77h0a45.78,45.78,0,0,1-2.75,9.84,87.63,87.63,0,0,1-4.14,9c-1.51,2.92-3.12,5.79-4.86,8.62a73.37,73.37,0,0,1-5.81,8.29l0,0a1.26,1.26,0,0,1-1.78.17A1.27,1.27,0,0,1,241.75,504.67Z" style="fill:#04294f;"/><path d="M347.67,414.23a1,1,0,0,0-1.94-.32v0c-1.23,3-2.17,6-3.11,9s-1.76,6-2.6,9q-2.38,9-4.39,18.12l0,.08L328,452.82l.42-10.73a9.43,9.43,0,0,0-12.05-9.41l-10.23,3L307.33,425a9.41,9.41,0,0,0-11.17-10.27l-10.22,2,2.47-10.38a9.36,9.36,0,0,0-.59-6.07c-4.61,3.44-9,7-12.72,10.15l-1.76,7.42a9.42,9.42,0,0,0,11,11.42L295,427.17l-1.21,11a9.42,9.42,0,0,0,12,10.08l10.5-3.06-.43,11a9.42,9.42,0,0,0,12.58,9.24l4.08-1.46c-.31,1.43-.63,2.86-.93,4.3-.64,3.05-1.29,6.1-1.87,9.17s-1.2,6.15-1.72,9.24v0a1.2,1.2,0,0,0,.61,1.27,1.23,1.23,0,0,0,1.67-.47,93.18,93.18,0,0,0,4.15-8.61q1.89-4.36,3.46-8.85,3.18-8.94,5.46-18.15a158.78,158.78,0,0,0,3.55-18.62A100.56,100.56,0,0,0,347.67,414.23Z" style="fill:#04294f;"/><path d="M329.26,581.9a12.91,12.91,0,0,0,.22-2.4c0-8-.93-16.72-9.75-19.31a29.29,29.29,0,0,0-10.31-1.74,28.61,28.61,0,0,0-10.88,2,11.36,11.36,0,0,0-3.74,2.25.39.39,0,0,0-.1.08,12.91,12.91,0,0,0-3.05,4.29,26.74,26.74,0,0,0-2.22,10.16c0,4.86.27,8.94,2.32,13.43A12.9,12.9,0,0,0,294,594l.05.06.52.52c.15.15.32.29.49.43a11.43,11.43,0,0,0,3.25,1.92A28.41,28.41,0,0,0,309.42,599c5.88,0,11-1.48,14-3.72l.2-.17a7.46,7.46,0,0,0,.66-.56c0-.05.1-.08.14-.13l.11-.13q.34-.37.63-.75C327.86,590.15,328.85,586.05,329.26,581.9Z" style="fill:#fff;"/><ellipse cx="309.42" cy="566.58" rx="16.68" ry="8.14" style="fill:#fff;"/><ellipse cx="309.42" cy="565.56" rx="7.26" ry="2.81" style="fill:#04294f;"/><path d="M325.29,570.49a12.33,12.33,0,0,1-6.54,7.08,21.45,21.45,0,0,1-9.28,2.13,20.16,20.16,0,0,1-9.35-1.91,14.17,14.17,0,0,1-4-2.94,9,9,0,0,1-2.36-4.37.74.74,0,0,1,.59-.88.78.78,0,0,1,.58.12l.16.12a19,19,0,0,0,6.9,3,35.59,35.59,0,0,0,7.46.88A29.56,29.56,0,0,0,317,573a19.55,19.55,0,0,0,3.51-1.24,14.77,14.77,0,0,0,3.18-2.06l.2-.16a.9.9,0,0,1,1.27.12A.92.92,0,0,1,325.29,570.49Z" style="fill:#04294f;"/></svg>