<svg id="teamwork_vlogging" data-name="teamwork vlogging" xmlns="http://www.w3.org/2000/svg" viewBox="0 0 800 800"><title>teamwork_vlogging</title><path d="M222,523.8h0Z" style="fill:#ffb400;"/><path d="M220.78,523.75l-.32,0Z" style="fill:#ffb400;"/><path d="M218.41,523.65l-.43,0Z" style="fill:#ffb400;"/><path d="M219.61,523.7l-.49,0Z" style="fill:#ffb400;"/><path d="M290.71,494.83c10.47-10.46,12.33-17.78,14.92-27.93,3-11.76,6.71-26.3,22.92-43.2a54.77,54.77,0,0,1,3.73-35l-1.35.35c-10.15,2.58-17.47,4.45-27.94,14.91s-12.32,17.79-14.91,27.93c-3.1,12.15-6.95,27.27-24.56,44.88s-32.73,21.46-44.88,24.56c-2.33.59-4.51,1.15-6.61,1.79.27,4.71.52,8.55.72,11.42,7,.32,17.63.76,31.45,1.22a112.28,112.28,0,0,1,18.58-6C272.93,507.16,280.25,505.3,290.71,494.83Z" style="fill:#ffb400;"/><path d="M228.47,524.05h0Z" style="fill:#ffb400;"/><path d="M423.38,296.82h0Z" style="fill:#ffb400;"/><path d="M446.89,297h0Z" style="fill:#ffb400;"/><path d="M417.07,296.78h0Z" style="fill:#ffb400;"/><path d="M227,524h0Z" style="fill:#ffb400;"/><path d="M204,515.75c0-.39-.05-.81-.08-1.23C203.92,514.94,204,515.36,204,515.75Z" style="fill:#ffb400;"/><path d="M210.25,523.14a7.53,7.53,0,0,1-1.41-.47A7.53,7.53,0,0,0,210.25,523.14Z" style="fill:#ffb400;"/><path d="M206.42,521c-.17-.17-.34-.34-.5-.53C206.08,520.7,206.25,520.87,206.42,521Z" style="fill:#ffb400;"/><path d="M203.86,514.08l-.06-.87Z" style="fill:#ffb400;"/><path d="M216.7,523.58l-.48,0Z" style="fill:#ffb400;"/><path d="M212.7,523.4l-.94,0Z" style="fill:#ffb400;"/><path d="M214.64,523.48l-.69,0Z" style="fill:#ffb400;"/><path d="M215.58,523.53l-.41,0Z" style="fill:#ffb400;"/><path d="M213.69,523.44l-.79,0Z" style="fill:#ffb400;"/><path d="M435.42,296.92h0Z" style="fill:#ffb400;"/><path d="M229.72,524.1h0Z" style="fill:#ffb400;"/><path d="M383,356.59a54.85,54.85,0,0,1,31.23,10.12,83.94,83.94,0,0,0,3.71-12.09c3.1-12.15,6.95-27.27,24.57-44.88,1.37-1.37,2.72-2.66,4.07-3.87-12.64-.14-26.47-.25-41.58-.3-2.16,4.47-3.29,8.9-4.61,14.05C397.74,329.91,394.57,342.33,383,356.59Z" style="fill:#ffb400;"/><path d="M203.71,512c0-.15,0-.29,0-.44Z" style="fill:#ffb400;"/><path d="M457.77,297.17h0Z" style="fill:#ffb400;"/><path d="M410.76,296.75h0Z" style="fill:#ffb400;"/><path d="M202.83,496.92l0-.56Z" style="fill:#ff3a00;"/><path d="M263.52,476.78c17.61-17.61,21.46-32.73,24.56-44.88,2.59-10.14,4.45-17.47,14.91-27.93s17.79-12.33,27.94-14.91l1.35-.35a55.23,55.23,0,0,1,50.11-32.14l.58,0c11.6-14.26,14.77-26.68,17.39-37,1.32-5.15,2.45-9.58,4.61-14.05q-10.85,0-22.58,0H371.26c-3.21,10.23-8.66,22.08-21.93,35.34-17.61,17.61-32.73,21.46-44.87,24.56C294.31,368,287,369.9,276.52,380.36s-12.32,17.79-14.91,27.93c-3.1,12.15-7,27.26-24.56,44.87-9.58,9.58-18.42,15.09-26.45,18.62.45,12.79,1,23.35,1.43,31.35,2.1-.64,4.28-1.2,6.61-1.79C230.79,498.24,245.91,494.39,263.52,476.78Z" style="fill:#ff3a00;"/><path d="M201.87,475v0Z" style="fill:#ff3a00;"/><path d="M202.73,494.84l0-.61Z" style="fill:#ff3a00;"/><path d="M386.7,296.69h0Z" style="fill:#ff3a00;"/><path d="M374.59,296.69h0Z" style="fill:#ff3a00;"/><path d="M202.33,486.53v0Z" style="fill:#ff3a00;"/><path d="M202.17,482.64l0-.75Z" style="fill:#ff3a00;"/><path d="M202.06,480.08l0-.83Z" style="fill:#ff3a00;"/><path d="M203.11,502.05l0-.46Z" style="fill:#ff3a00;"/><path d="M410.67,296.75h0Z" style="fill:#ff3a00;"/><path d="M202.44,489l0-.68Z" style="fill:#ff3a00;"/><path d="M202.53,490.9v0Z" style="fill:#ff3a00;"/><path d="M406.77,296.73h0Z" style="fill:#ff3a00;"/><path d="M396.76,296.7h0Z" style="fill:#ff3a00;"/><path d="M388,296.69h0Z" style="fill:#ff3a00;"/><path d="M392.56,296.7h0Z" style="fill:#ff3a00;"/><path d="M403,296.72h0Z" style="fill:#ff3a00;"/><polygon points="201.87 475.04 201.87 475.04 201.87 475.04 201.87 475.04" style="fill:#fff;"/><path d="M347.49,296.78h0Z" style="fill:#fff;"/><path d="M351.62,296.76h0Z" style="fill:#fff;"/><path d="M360.21,296.73h0Z" style="fill:#fff;"/><path d="M355.88,296.74h0Z" style="fill:#fff;"/><path d="M261.61,408.29c2.59-10.14,4.45-17.47,14.91-27.93s17.79-12.33,27.94-14.92c12.14-3.1,27.26-6.95,44.87-24.56,13.27-13.26,18.72-25.11,21.93-35.34q-20,0-37.33.18a97.9,97.9,0,0,1-10.88,12.8c-17.6,17.61-32.72,21.47-44.87,24.56-10.14,2.59-17.47,4.46-27.93,14.92s-12.33,17.79-14.92,27.93c-3.09,12.15-7,27.27-24.56,44.87-.35.36-.71.71-1.06,1.05.16,15,.5,28.36.89,39.93,8-3.53,16.87-9,26.45-18.62C254.66,435.55,258.51,420.44,261.61,408.29Z" style="fill:#fff;"/><path d="M369.1,296.7h0Z" style="fill:#fff;"/><path d="M364.58,296.71h0Z" style="fill:#fff;"/><path d="M343.31,296.81h0Z" style="fill:#fff;"/><path d="M201.07,445.52l0-1.41Z" style="fill:#fff;"/><path d="M339.58,296.84h0Z" style="fill:#fff;"/><path d="M201.16,450.25l0-1.6Z" style="fill:#fff;"/><path d="M373.72,296.69h0Z" style="fill:#fff;"/><path d="M201.26,454.64c0-.5,0-1,0-1.52C201.24,453.63,201.25,454.14,201.26,454.64Z" style="fill:#fff;"/><path d="M201.48,463l0-.92Z" style="fill:#fff;"/><path d="M201.37,458.88c0-.43,0-.87,0-1.31C201.34,458,201.35,458.45,201.37,458.88Z" style="fill:#fff;"/><path d="M305.21,297.2h0Z" style="fill:#00aee0;"/><path d="M299.65,297.28h0Z" style="fill:#00aee0;"/><path d="M235.33,385.93c2.59-10.14,4.46-17.47,14.92-27.93s17.79-12.33,27.93-14.92c12.15-3.09,27.27-6.95,44.87-24.56a97.9,97.9,0,0,0,10.88-12.8c-19,.15-35.61.4-50,.68-11.83,8.1-22.27,10.77-31.13,13-10.14,2.59-17.47,4.46-27.93,14.92-10,9.95-12.13,17.07-14.54,26.48-.43,14.68-.72,31.77-.72,50.9q0,10.49.11,20.12c.35-.34.71-.69,1.06-1.05C228.38,413.2,232.24,398.08,235.33,385.93Z" style="fill:#00aee0;"/><path d="M200.76,416.1v0Z" style="fill:#00aee0;"/><path d="M200.8,399.63v0Z" style="fill:#00aee0;"/><path d="M200.77,405.86v0Z" style="fill:#00aee0;"/><path d="M200.78,420.56c0-1,0-2.09,0-3.15C200.77,418.47,200.77,419.52,200.78,420.56Z" style="fill:#00aee0;"/><path d="M201,439.28c0-1.24,0-2.49-.05-3.75C200.93,436.79,200.94,438,201,439.28Z" style="fill:#00aee0;"/><path d="M200.9,434.31c0-1,0-1.94,0-2.92C200.87,432.37,200.88,433.34,200.9,434.31Z" style="fill:#00aee0;"/><path d="M200.85,430.12q0-4.08-.06-8.31Q200.81,426,200.85,430.12Z" style="fill:#00aee0;"/><path d="M339.38,296.84h0Z" style="fill:#00aee0;"/><path d="M321.34,297h0Z" style="fill:#00aee0;"/><path d="M316,297.06h0Z" style="fill:#00aee0;"/><path d="M327.33,296.94h0Z" style="fill:#00aee0;"/><path d="M333.11,296.89h0Z" style="fill:#00aee0;"/><path d="M295.26,297.35h0Z" style="fill:#00aee0;"/><polygon points="200.92 386.93 200.92 386.94 200.92 386.93 200.92 386.93" style="fill:#00aee0;"/><path d="M310.16,297.13h0Z" style="fill:#00aee0;"/><path d="M458.76,526.14h0Z" style="fill:#ffb400;"/><path d="M470.5,525.92h0Z" style="fill:#ffb400;"/><path d="M464.78,526h0Z" style="fill:#ffb400;"/><path d="M564,407.06c0,1.54,0,3.1,0,4.67C564,410.16,564,408.6,564,407.06Z" style="fill:#ffb400;"/><path d="M531.73,433.34c-3.09,12.15-7,27.27-24.56,44.88s-32.73,21.46-44.87,24.56c-10.13,2.58-17.45,4.45-27.89,14.87,22.5-.26,42.47-.66,59.55-1.09,4.7-1.69,9.08-2.82,13.14-3.85,10.14-2.59,17.47-4.45,27.93-14.92S547.36,480,550,469.86a125.23,125.23,0,0,1,4.71-15.45c.31-12.79.52-27.11.52-42.68q0-6.92-.06-13.49a60.11,60.11,0,0,0-8.47,7.16C536.19,415.87,534.32,423.2,531.73,433.34Z" style="fill:#ffb400;"/><path d="M564,427.36c0,.47,0,.93,0,1.39C563.94,428.29,563.94,427.83,564,427.36Z" style="fill:#ffb400;"/><path d="M564,421.58l0,3.54Z" style="fill:#ffb400;"/><path d="M564,417.26c0,1,0,2,0,2.93C564,419.22,564,418.25,564,417.26Z" style="fill:#ffb400;"/><path d="M564,411.73c0,1.42,0,2.81,0,4.2C564,414.54,564,413.15,564,411.73Z" style="fill:#ffb400;"/><path d="M564,402.5v0Z" style="fill:#ffb400;"/><path d="M563.82,385.13c0,.27,0,.54,0,.82C563.82,385.67,563.82,385.4,563.82,385.13Z" style="fill:#ff3a00;"/><path d="M400.9,526.74h0Z" style="fill:#ff3a00;"/><path d="M563.51,369.46v0Z" style="fill:#ff3a00;"/><path d="M563.42,365.79v0Z" style="fill:#ff3a00;"/><path d="M563.75,381.05c0,.25,0,.51,0,.76C563.76,381.56,563.76,381.3,563.75,381.05Z" style="fill:#ff3a00;"/><path d="M563.68,377.06c0,.23,0,.46,0,.69C563.69,377.52,563.68,377.29,563.68,377.06Z" style="fill:#ff3a00;"/><path d="M396.4,526.76h0Z" style="fill:#ff3a00;"/><path d="M520.18,381.79c-10.46,10.46-12.33,17.79-14.92,27.94-3.09,12.14-6.95,27.26-24.56,44.87S448,476.07,435.83,479.16c-10.15,2.59-17.48,4.46-27.94,14.92-9,9-11.64,15.69-13.85,23.84q21.33,0,40.37-.27c10.44-10.42,17.76-12.29,27.89-14.87,12.14-3.1,27.26-6.95,44.87-24.56s21.47-32.73,24.56-44.88c2.59-10.14,4.46-17.47,14.92-27.94a60.11,60.11,0,0,1,8.47-7.16c-.09-11.94-.29-23-.56-33.08-2.23.64-4.38,1.19-6.45,1.72C538,369.46,530.64,371.33,520.18,381.79Z" style="fill:#ff3a00;"/><path d="M563.87,389.33c0,.21,0,.42,0,.62C563.88,389.75,563.88,389.54,563.87,389.33Z" style="fill:#ff3a00;"/><path d="M563.6,373.2c0,.18,0,.36,0,.54C563.61,373.56,563.6,373.38,563.6,373.2Z" style="fill:#ff3a00;"/><polygon points="563.33 362.27 563.33 362.26 563.33 362.26 563.33 362.27" style="fill:#ff3a00;"/><path d="M562.14,331c0,.09,0,.2,0,.29C562.15,331.24,562.14,331.13,562.14,331Z" style="fill:#fff;"/><path d="M562.56,340.37v0Z" style="fill:#fff;"/><path d="M561.72,322.88v0h0Z" style="fill:#fff;"/><path d="M563.33,362.26h0Z" style="fill:#fff;"/><path d="M394,517.92c2.21-8.15,4.85-14.84,13.85-23.84,10.46-10.46,17.79-12.33,27.94-14.92,12.14-3.09,27.26-7,44.87-24.56s21.47-32.73,24.56-44.87c2.59-10.15,4.46-17.48,14.92-27.94s17.79-12.33,27.93-14.91c2.07-.53,4.22-1.08,6.45-1.72-.39-14.65-.92-27.15-1.42-37.06-8.64,4.59-16.41,6.69-23.24,8.53-10.48,2.82-18,4.86-29,15.85s-13,18.56-15.85,29c-3.31,12.28-7.42,27.56-25.37,45.51-14.36,14.36-27,19.86-37.78,23.18a55,55,0,0,1-35.19,16.5l-1.58,1.53c-11,11-13,18.56-15.84,29a110.44,110.44,0,0,1-7.2,20.61q9.93,0,20.34.05Z" style="fill:#fff;"/><path d="M562.32,335c0,.26,0,.51,0,.78C562.35,335.5,562.34,335.25,562.32,335Z" style="fill:#fff;"/><path d="M562.44,337.62l0,.66Z" style="fill:#fff;"/><path d="M561.89,326.09c0,.43,0,.86.07,1.3C561.93,327,561.91,326.52,561.89,326.09Z" style="fill:#fff;"/><path d="M363.27,526.74h0Z" style="fill:#fff;"/><path d="M369.62,526.76h0Z" style="fill:#fff;"/><path d="M376.54,526.77h0Z" style="fill:#fff;"/><path d="M387.24,526.78h0Z" style="fill:#fff;"/><path d="M562,328.56l.06,1.2Z" style="fill:#fff;"/><path d="M561.75,323.51l.09,1.58Z" style="fill:#fff;"/><path d="M485,381.52c2.82-10.48,4.86-18,15.85-29s18.56-13,29-15.85c6.83-1.84,14.6-3.94,23.24-8.53-.43-8.39-.84-14.93-1.14-19.3-5.17-.29-13.13-.69-24.22-1.1-11.91,8.21-22.42,10.89-31.33,13.17-10.14,2.58-17.47,4.45-27.93,14.91s-12.33,17.79-14.92,27.94-5.76,22.57-17.21,36.74a55.09,55.09,0,0,1-14.53,49.75c10.77-3.32,23.42-8.82,37.78-23.18C477.59,409.08,481.7,393.8,485,381.52Z" style="fill:#00aee0;"/><path d="M385.09,468.24l1.58-1.53c-1.42.11-2.84.19-4.28.19A54.92,54.92,0,0,1,349.46,456c-4.75,6.72-6.26,12.62-8.14,20-2.9,11.37-6.47,25.34-21.34,41.52,13.11.18,27.16.31,42.07.37a110.44,110.44,0,0,0,7.2-20.61C372.07,486.8,374.1,479.23,385.09,468.24Z" style="fill:#00aee0;"/><path d="M561.72,322.85l0-.53,0,.53Z" style="fill:#00aee0;"/><polygon points="538.25 299.27 538.24 299.27 538.24 299.27 538.25 299.27" style="fill:#00aee0;"/><path d="M560.78,307.61c.05.72.1,1.5.16,2.33C560.88,309.11,560.83,308.33,560.78,307.61Z" style="fill:#00aee0;"/><path d="M316.72,526.31h0Z" style="fill:#00aee0;"/><path d="M546.64,299.66h0Z" style="fill:#00aee0;"/><path d="M542.71,299.47h0Z" style="fill:#00aee0;"/><path d="M561.57,320.24c0,.09,0,.18,0,.28C561.58,320.42,561.58,320.33,561.57,320.24Z" style="fill:#00aee0;"/><path d="M327.62,526.45h0Z" style="fill:#00aee0;"/><path d="M345,526.63h0Z" style="fill:#00aee0;"/><path d="M333.31,526.52h0Z" style="fill:#00aee0;"/><path d="M540.5,299.37h0Z" style="fill:#00aee0;"/><path d="M548.5,299.76h0Z" style="fill:#00aee0;"/><path d="M561.33,316.08v0Z" style="fill:#00aee0;"/><path d="M561.43,317.77l0,.55Z" style="fill:#00aee0;"/><path d="M561.2,314.05v0Z" style="fill:#00aee0;"/><path d="M550,299.84h0Z" style="fill:#00aee0;"/><path d="M551.6,299.92l.25,0Z" style="fill:#00aee0;"/><path d="M560,304.72a8,8,0,0,1,.66,2.13A8,8,0,0,0,560,304.72Z" style="fill:#00aee0;"/><path d="M560.9,514c0-.36.05-.72.08-1.1l0-.54c0-.34,0-.7.07-1.07,0-.2,0-.41,0-.62s0-.68.07-1,0-.5,0-.77l.09-1.41c0-.43,0-.86.08-1.3,0-.28,0-.56.05-.84s0-.85.07-1.28c0-.22,0-.44,0-.66,0-.46.05-.93.08-1.41l0-.57c0-.53.06-1.06.09-1.61v-.19c.14-2.62.29-5.45.43-8.46V491c.62-13.2,1.24-30.09,1.56-49.94h0q.11-6,.16-12.29c0-.46,0-.92,0-1.39,0-.74,0-1.48,0-2.24l0-3.54v-1.39c0-1,0-1.94,0-2.93v-1.33c0-1.39,0-2.78,0-4.2,0-1.57,0-3.13,0-4.67,0-1.25,0-2.48,0-3.71v-.85q0-6.44-.11-12.55c0-.2,0-.41,0-.62,0-1.14,0-2.26,0-3.38,0-.28,0-.55,0-.82,0-1.12,0-2.22-.06-3.32,0-.25,0-.51,0-.76l-.06-3.3c0-.23,0-.46,0-.69,0-1.12,0-2.22-.07-3.32,0-.18,0-.36,0-.54,0-1.15-.05-2.29-.08-3.41v-.33c0-1.17,0-2.33-.08-3.47v-.2c0-1.19-.06-2.36-.09-3.52h0c-.23-8-.49-15.27-.77-21.86v0c0-.71-.06-1.4-.09-2.09l0-.66c0-.62-.05-1.24-.08-1.85,0-.27,0-.52,0-.78-.05-1.25-.11-2.47-.17-3.66,0-.09,0-.2,0-.29,0-.44,0-.86-.06-1.28l-.06-1.2-.06-1.17c0-.44-.05-.87-.07-1.3s0-.67,0-1l-.09-1.58,0-.63v0l0-.53c0-.61-.07-1.21-.1-1.8,0-.1,0-.19,0-.28,0-.66-.07-1.3-.11-1.92l0-.55c0-.53-.07-1.06-.1-1.57v-.12c0-.63-.08-1.25-.12-1.84v-.19c-.09-1.49-.18-2.86-.26-4.11-.06-.83-.11-1.61-.16-2.33,0-.26,0-.51-.09-.76a8,8,0,0,0-.66-2.13,8.15,8.15,0,0,0-6.94-4.71l-1.24-.07-.25,0-1.36-.07H550l-1.45-.08h-.09l-1.67-.09h-.19l-3.78-.18h-.15l-2.1-.09h-.11l-2.25-.1h0l-1.55-.06h0c-8.47-.36-19.39-.76-33-1.12h-.17L501,298h0l-8.11-.2h-.1l-2.76-.07h-.08l-8.85-.19H481l-3-.06h-.11l-13-.22h-.12l-3.29,0h-.2l-3.33,0h-.17L447,297h-.12c-3.67-.05-7.44-.08-11.31-.12h-.16l-12-.1h-.05l-6.25,0h-.06l-6.31,0H355.88l-3.71,0h-.55l-3.83,0h-.3l-3.69,0h-.49l-3.73,0h-.25l-5.94,0h-.28l-5.64.05h-.14l-5.57.05h-.42l-5.26.06H316l-5.18.06h-.63l-4.82.07h-.13l-4.81.07h-.75l-4.39.07H295l-4,.07h-.44l-3.47.07h-.63l-3.48.07h-.27l-3.78.08h-.16l-3.3.08h-.72l-3,.07h-.39l-6.64.16-.56,0-2.87.07h-.24l-6.09.17h-.5l-2.44.08h-.45l-5.48.17h-.3l-2.31.08h-.37l-4.9.18h-.29l-2,.07-.4,0-2.15.08h0l-2.15.09h-.29l-1.71.07h-.4l-1.72.08h-.17l-1.82.07-.32,0-1.42.06-.37,0-1.38.06-.28,0-1.53.07h-.22l-1.23.06-.39,0-1,.05-.36,0-1.27.07h0l-1.18.06-.32,0-.83,0-.3,0-1,.06a6.31,6.31,0,0,0-.76.08,8.16,8.16,0,0,0-6.84,6.74c0,.25-.07.51-.09.76,0,.43-.06.87-.09,1.33,0,.16,0,.34,0,.5l-.06.94c0,.21,0,.42,0,.63l-.06.91c0,.25,0,.51-.05.77s0,.53,0,.8l-.06.94c0,.21,0,.44,0,.66-.05.77-.1,1.56-.15,2.38l0,.44c0,.44-.05.9-.07,1.35,0,.2,0,.39,0,.59,0,.47,0,1-.08,1.45l0,.56c0,.52-.06,1-.09,1.58l0,.4c-.14,2.61-.29,5.43-.43,8.44v.06c0,.76-.08,1.52-.11,2.3v.15c-.63,13.75-1.23,31.33-1.51,52.12v0h0q-.07,5.7-.12,11.71v1c0,1.56,0,3.14,0,4.73v1.5c0,1.94,0,3.89,0,5.87v4.37c0,.44,0,.87,0,1.31,0,1.06,0,2.11,0,3.15,0,.42,0,.84,0,1.25q0,4.23.06,8.31c0,.42,0,.85,0,1.27,0,1,0,1.95,0,2.92,0,.41,0,.82,0,1.22,0,1.26,0,2.51.05,3.75,0,1.63,0,3.24.08,4.83l0,1.41c0,1.05,0,2.1.06,3.13l0,1.6c0,1,0,1.92.06,2.87,0,.51,0,1,0,1.52,0,1,.05,2,.07,2.93,0,.44,0,.88,0,1.31,0,1.08,0,2.13.08,3.18l0,.92c.12,4.22.25,8.25.39,12.06h0v0c0,1.42.11,2.81.16,4.17l0,.83c0,.61.05,1.21.08,1.81l0,.75c.05,1.3.11,2.58.16,3.82v.07c0,.61.06,1.2.08,1.79l0,.68c0,.57.06,1.13.08,1.69v.21c.06,1.14.11,2.24.17,3.33l0,.61c0,.52.05,1,.07,1.52l0,.56c.09,1.63.17,3.18.25,4.67l0,.46c.2,3.6.4,6.76.58,9.47,0,.15,0,.29,0,.44l.09,1.25.06.87,0,.44c0,.42.06.84.08,1.23h0a8.29,8.29,0,0,0,.76,2.91,8.41,8.41,0,0,0,1.19,1.84c.16.19.33.36.5.53a8.18,8.18,0,0,0,2.42,1.63,7.53,7.53,0,0,0,1.41.47,8.33,8.33,0,0,0,1.51.22l.94,0h.2l.79,0H214l.69,0,.53,0,.41,0,.64,0,.48,0,1.28,0,.43,0,.71,0,.49,0,.85,0,.32,0,.92,0H222l4.79.19H227l1.21,0h.22l1.25.05h.15l3.42.12h.13l1.72.06h.16l1.75.06h.2l1.7.06h.43l1.63.06h.31l1.75.06h.36l1.77.06h.38l1.76.06.59,0,1.65,0h.47l1.85.06h.32l2,.06.59,0,1.8,0,.49,0,2,.05h.1l2.3.06.72,0,1.86.05h.35l2.23.06h.3c14.27.38,30.74.74,49.12,1h.66l10.52.14h.38l5.5.06h.19l11.54.11H345l18.25.11h0l6.09,0h17.88l9,0h.14l4.38,0h.12c20.92-.08,40.2-.3,57.57-.6h.29l5.56-.1h.46l5.36-.1h.36l8.71-.18h.64l2.74-.06.68,0,2.6-.06h.69l2.95-.08h.16l6.4-.16h.17l2.79-.07.55,0,2.39-.06.64,0,2.32-.06.52,0,5.58-.16h.18l2.5-.08h.4l2.2-.07h.48l2.16-.07h.33l2.22-.08h.28l4.74-.16h.29l1.87-.06.57,0,1.62-.06.49,0,1.79-.07h.24l4-.15h.16l1.63-.07.49,0,1.27,0,.51,0,1.18-.05.5,0,1.45-.06h.08l3-.13h.42l1-.05h.23l1.17,0h.11l1.08,0h.18l1.14,0a8.19,8.19,0,0,0,5.34-2.32,7.73,7.73,0,0,0,.95-1.11,8.42,8.42,0,0,0,.74-1.27c.11-.22.2-.45.29-.68a8.59,8.59,0,0,0,.47-2.23q0-.66.09-1.38Zm-348.15.55c-.2-2.87-.45-6.71-.72-11.42-.46-8-1-18.56-1.43-31.35-.39-11.57-.73-25-.89-39.93q-.11-9.63-.11-20.12c0-19.13.29-36.22.72-50.9,2.41-9.41,4.58-16.53,14.54-26.48,10.46-10.46,17.79-12.33,27.93-14.92,8.86-2.26,19.3-4.93,31.13-13,14.4-.28,31-.53,50-.68q17.32-.15,37.33-.18h11.13q11.73,0,22.58,0c15.11.05,28.94.16,41.58.3-1.35,1.21-2.7,2.5-4.07,3.87-17.62,17.61-21.47,32.73-24.57,44.88a83.94,83.94,0,0,1-3.71,12.09A54.85,54.85,0,0,0,383,356.59l-.58,0a55.1,55.1,0,0,0-53.84,67.13c-16.21,16.9-19.92,31.44-22.92,43.2-2.59,10.15-4.45,17.47-14.92,27.93s-17.78,12.33-27.93,14.92a112.28,112.28,0,0,0-18.58,6C230.38,515.31,219.76,514.87,212.75,514.55Zm216-102.82a46.33,46.33,0,1,1-46.32-46.32A46.32,46.32,0,0,1,428.71,411.73ZM362.05,517.89c-14.91-.06-29-.19-42.07-.37,14.87-16.18,18.44-30.15,21.34-41.52,1.88-7.41,3.39-13.31,8.14-20a54.92,54.92,0,0,0,32.93,10.93c1.44,0,2.86-.08,4.28-.19a55.16,55.16,0,0,0,49.72-66.25C447.84,386.29,451,374,453.6,363.72s4.45-17.47,14.92-27.94,17.79-12.33,27.93-14.91c8.91-2.28,19.42-5,31.33-13.17,11.09.41,19.05.81,24.22,1.1.3,4.37.71,10.91,1.14,19.3.5,9.91,1,22.41,1.42,37.06.27,10.07.47,21.14.56,33.08q.06,6.57.06,13.49c0,15.57-.21,29.89-.52,42.68A125.23,125.23,0,0,0,550,469.86c-2.59,10.14-4.46,17.47-14.92,27.93s-17.79,12.33-27.93,14.92c-4.06,1-8.44,2.16-13.14,3.85-17.08.43-37,.83-59.55,1.09q-19,.21-40.37.27l-11.65,0Q372,517.94,362.05,517.89Z" style="fill:#04294f;"/><path d="M382.39,365.41a46.33,46.33,0,1,0,46.32,46.32A46.32,46.32,0,0,0,382.39,365.41ZM366,393.36a5.53,5.53,0,0,1,6.7-4.13c3.31.85,8.54,2.91,16.67,7.52,10.2,5.77,14.47,9.69,16.23,12.07a3.85,3.85,0,0,1,.15,4.08c-2.33,3.68-8.51,8.77-17.55,13.92-6.51,3.71-12.26,6.51-16.08,7.17a5.55,5.55,0,0,1-6.26-4.31,76.41,76.41,0,0,1,.14-36.32Z" style="fill:#fff;"/><path d="M365.88,429.68a5.55,5.55,0,0,0,6.26,4.31c3.82-.66,9.57-3.46,16.08-7.17,9-5.15,15.22-10.24,17.55-13.92a3.85,3.85,0,0,0-.15-4.08c-1.76-2.38-6-6.3-16.23-12.07-8.13-4.61-13.36-6.67-16.67-7.52a5.53,5.53,0,0,0-6.7,4.13,76.41,76.41,0,0,0-.14,36.32Z" style="fill:#00aee0;"/><path d="M218.64,285.52l-4.42.2h0l-.31-4.71a1.61,1.61,0,0,0-2.51-1.23l-9.9,6.61a1.61,1.61,0,0,0,.18,2.79l10.7,5.24a1.61,1.61,0,0,0,2.32-1.55l-.28-4.21,4.37-.2a1.47,1.47,0,1,0-.13-2.94Z" style="fill:#ff3a00;"/><path d="M396.85,282l-8.91,0h0a1.47,1.47,0,0,0,0,2.94l8.89,0h0a1.47,1.47,0,1,0,0-2.94Z" style="fill:#ff3a00;"/><path d="M414.66,282.13l-8.9-.07h0a1.47,1.47,0,0,0,0,2.94l8.91.08h0a1.48,1.48,0,0,0,0-2.95Z" style="fill:#ff3a00;"/><path d="M379,281.94h-.44l-8.47,0a1.47,1.47,0,0,0,0,2.94H379a1.48,1.48,0,1,0,0-2.95Z" style="fill:#ff3a00;"/><path d="M450.31,282.61l-8.91-.14a1.49,1.49,0,0,0-1.5,1.45,1.47,1.47,0,0,0,1.45,1.49l8.91.14h0a1.47,1.47,0,0,0,0-2.94Z" style="fill:#ff3a00;"/><path d="M432.48,282.34l-8.91-.11a1.46,1.46,0,0,0-1.49,1.45,1.47,1.47,0,0,0,1.46,1.49l8.91.12h0a1.48,1.48,0,0,0,0-3Z" style="fill:#ff3a00;"/><path d="M468.13,282.92l-8.91-.16h0a1.47,1.47,0,0,0,0,2.94l8.91.17h0a1.48,1.48,0,0,0,0-2.95Z" style="fill:#ff3a00;"/><path d="M343.4,282.14h0l-8.91.11a1.48,1.48,0,0,0,0,2.95h0l8.9-.11a1.48,1.48,0,0,0,0-2.95Z" style="fill:#ff3a00;"/><path d="M361.21,282h0l-8.92.07a1.47,1.47,0,0,0,0,2.94h0l8.9-.06a1.48,1.48,0,1,0,0-2.95Z" style="fill:#ff3a00;"/><path d="M272.09,283.59l-8.91.27a1.48,1.48,0,0,0,0,2.95h0l8.9-.26a1.48,1.48,0,0,0-.08-3Z" style="fill:#ff3a00;"/><path d="M289.91,283.11l-8.91.23a1.48,1.48,0,0,0,0,3h0l8.9-.23a1.47,1.47,0,1,0-.07-2.94Z" style="fill:#ff3a00;"/><path d="M236.45,284.79l-8.91.35a1.48,1.48,0,0,0,.06,2.95h.06l8.9-.35a1.47,1.47,0,1,0-.11-2.94Z" style="fill:#ff3a00;"/><path d="M254.27,284.15l-8.91.31a1.47,1.47,0,0,0,0,2.94h.06l8.9-.31a1.46,1.46,0,0,0,1.42-1.52A1.48,1.48,0,0,0,254.27,284.15Z" style="fill:#ff3a00;"/><path d="M307.73,282.7l-8.91.2a1.47,1.47,0,0,0,0,2.94h0l8.91-.19a1.48,1.48,0,0,0-.06-2.95Z" style="fill:#ff3a00;"/><path d="M325.55,282.38l-8.91.15a1.48,1.48,0,0,0,0,3h0q4.4-.09,8.9-.15a1.49,1.49,0,0,0,1.45-1.5A1.46,1.46,0,0,0,325.55,282.38Z" style="fill:#ff3a00;"/><path d="M481.4,283.19,477,283.1h0a1.47,1.47,0,0,0,0,2.94l4.41.09h0a1.48,1.48,0,0,0,0-2.95Z" style="fill:#ff3a00;"/><path d="M578.44,341.26h0a1.48,1.48,0,0,0,1.42-1.53l-.15-4.42a1.48,1.48,0,0,0-3,.11l.16,4.41A1.47,1.47,0,0,0,578.44,341.26Z" style="fill:#ff3a00;"/><path d="M579.55,382.5h0a1.49,1.49,0,0,0-1.45,1.5c0,2.91.08,5.86.12,8.83a1.47,1.47,0,0,0,1.47,1.46h0a1.47,1.47,0,0,0,1.45-1.49q0-4.47-.11-8.85A1.47,1.47,0,0,0,579.55,382.5Z" style="fill:#ff3a00;"/><path d="M578.68,347.15a1.47,1.47,0,0,0-1.43,1.51q.13,4.32.26,8.84a1.47,1.47,0,0,0,1.47,1.43h0a1.46,1.46,0,0,0,1.43-1.51q-.12-4.53-.25-8.85A1.49,1.49,0,0,0,578.68,347.15Z" style="fill:#ff3a00;"/><path d="M579.17,364.82a1.48,1.48,0,0,0-1.44,1.51q.1,4.35.19,8.83a1.47,1.47,0,0,0,1.47,1.45h0a1.47,1.47,0,0,0,1.44-1.5c-.05-3-.12-5.95-.18-8.85A1.5,1.5,0,0,0,579.17,364.82Z" style="fill:#ff3a00;"/><path d="M581.25,419.34a1.47,1.47,0,0,0-1.47-1.47h0a1.47,1.47,0,0,0-1.48,1.47c0,3,0,6,0,8.83a1.47,1.47,0,0,0,1.46,1.48h0a1.46,1.46,0,0,0,1.47-1.46C581.23,425.32,581.24,422.37,581.25,419.34Z" style="fill:#ff3a00;"/><path d="M577.12,500.32h.11A1.48,1.48,0,0,0,578.7,499c.21-2.76.41-5.74.6-8.84a1.47,1.47,0,0,0-2.94-.18c-.19,3.09-.39,6.05-.6,8.8A1.48,1.48,0,0,0,577.12,500.32Z" style="fill:#ff3a00;"/><path d="M580.77,454.74a1.47,1.47,0,0,0-1.43-1.51,1.45,1.45,0,0,0-1.51,1.43q-.12,4.62-.26,8.83A1.47,1.47,0,0,0,579,465h0a1.47,1.47,0,0,0,1.47-1.42Q580.65,459.36,580.77,454.74Z" style="fill:#ff3a00;"/><path d="M578.77,470.9a1.49,1.49,0,0,0-1.53,1.41c-.12,3.14-.26,6.08-.4,8.82a1.48,1.48,0,0,0,1.4,1.55h.08a1.47,1.47,0,0,0,1.47-1.4c.13-2.75.27-5.7.4-8.85A1.48,1.48,0,0,0,578.77,470.9Z" style="fill:#ff3a00;"/><path d="M579.74,400.18h0a1.47,1.47,0,0,0-1.46,1.49c0,2.92,0,5.87,0,8.83a1.47,1.47,0,0,0,1.47,1.47h0a1.47,1.47,0,0,0,1.47-1.47c0-3,0-5.93,0-8.85A1.47,1.47,0,0,0,579.74,400.18Z" style="fill:#ff3a00;"/><path d="M581.11,437a1.47,1.47,0,0,0-1.45-1.49h0a1.48,1.48,0,0,0-1.48,1.45c0,3.05-.08,6-.14,8.83a1.48,1.48,0,0,0,1.45,1.51h0a1.48,1.48,0,0,0,1.47-1.45Q581,441.62,581.11,437Z" style="fill:#ff3a00;"/><path d="M581.61,512.62l-4.14-.38c0-.1.19-1.52.47-4.42a1.47,1.47,0,1,0-2.93-.29c-.28,2.9-.46,4.34-.46,4.35s0,.07,0,.1l-4.77-.43a1.62,1.62,0,0,0-1.61,2.29l5,10.81a1.62,1.62,0,0,0,2.79.25l6.84-9.75A1.61,1.61,0,0,0,581.61,512.62Z" style="fill:#ff3a00;"/><path d="M433.7,539.9l-8.64.11a1.48,1.48,0,0,0,0,3h0l8.64-.12a1.47,1.47,0,0,0,1.46-1.49A1.5,1.5,0,0,0,433.7,539.9Z" style="fill:#ff3a00;"/><path d="M451,539.61l-8.64.15a1.48,1.48,0,0,0,0,3h0l8.65-.16a1.46,1.46,0,0,0,1.44-1.5A1.49,1.49,0,0,0,451,539.61Z" style="fill:#ff3a00;"/><path d="M416.44,540.1h0l-8.64.07a1.48,1.48,0,0,0,0,3h0l8.65-.07a1.48,1.48,0,0,0,0-2.95Z" style="fill:#ff3a00;"/><path d="M399.15,540.22h0l-8.64,0a1.47,1.47,0,0,0,0,2.94h0l8.64,0a1.48,1.48,0,0,0,0-2.95Z" style="fill:#ff3a00;"/><path d="M520.09,537.71l-8.64.3a1.48,1.48,0,0,0,.05,3h.05l8.64-.31a1.47,1.47,0,1,0-.1-2.94Z" style="fill:#ff3a00;"/><path d="M381.86,540.25l-8.64,0h0a1.48,1.48,0,0,0,0,2.95l8.65,0h0a1.47,1.47,0,1,0,0-2.94Z" style="fill:#ff3a00;"/><path d="M485.54,538.8l-8.64.23a1.48,1.48,0,0,0,0,3h0l8.65-.23a1.47,1.47,0,0,0,1.43-1.51A1.46,1.46,0,0,0,485.54,538.8Z" style="fill:#ff3a00;"/><path d="M537.36,537.05l-8.64.34a1.47,1.47,0,0,0,.06,2.94h.06l8.64-.34a1.47,1.47,0,0,0,1.41-1.53A1.45,1.45,0,0,0,537.36,537.05Z" style="fill:#ff3a00;"/><path d="M502.81,538.29l-8.63.27a1.47,1.47,0,0,0,0,2.94h0l8.65-.26a1.48,1.48,0,0,0-.1-3Z" style="fill:#ff3a00;"/><path d="M468.26,539.24l-8.64.2a1.47,1.47,0,0,0,0,2.94h0l8.65-.19a1.48,1.48,0,1,0-.07-3Z" style="fill:#ff3a00;"/><path d="M295.46,539.25l-8.64-.17a1.47,1.47,0,1,0-.06,2.94l8.64.17h0a1.47,1.47,0,0,0,0-2.94Z" style="fill:#ff3a00;"/><path d="M278.18,538.89l-8.64-.19a1.45,1.45,0,0,0-1.5,1.44,1.47,1.47,0,0,0,1.44,1.51l8.64.19h0a1.48,1.48,0,0,0,0-3Z" style="fill:#ff3a00;"/><path d="M364.58,540.18l-8.63-.07h0a1.48,1.48,0,0,0,0,2.95l8.65.07h0a1.48,1.48,0,0,0,0-3Z" style="fill:#ff3a00;"/><path d="M260.9,538.5l-8.64-.21a1.48,1.48,0,0,0-.07,3l8.64.21h0a1.48,1.48,0,0,0,0-3Z" style="fill:#ff3a00;"/><path d="M312.74,539.56l-8.64-.15a1.46,1.46,0,0,0-1.5,1.45,1.49,1.49,0,0,0,1.45,1.5l8.64.15h0a1.48,1.48,0,0,0,0-3Z" style="fill:#ff3a00;"/><path d="M330,539.82l-8.64-.12a1.45,1.45,0,0,0-1.49,1.45,1.47,1.47,0,0,0,1.45,1.49l8.64.13h0a1.48,1.48,0,0,0,0-2.95Z" style="fill:#ff3a00;"/><path d="M347.31,540l-8.64-.09a1.47,1.47,0,1,0,0,2.94l8.65.1h0a1.48,1.48,0,0,0,0-3Z" style="fill:#ff3a00;"/><path d="M243.71,538.08,239.3,538a1.45,1.45,0,0,0-1.51,1.43,1.48,1.48,0,0,0,1.43,1.52l4.42.11h0a1.47,1.47,0,0,0,0-2.94Z" style="fill:#ff3a00;"/><path d="M563.09,536l-10.69-5.24a1.61,1.61,0,0,0-2.32,1.55l.28,4.21-4.38.2a1.47,1.47,0,0,0,.07,2.94h.07l4.41-.2h0l.31,4.71a1.62,1.62,0,0,0,2.51,1.23l9.91-6.61A1.61,1.61,0,0,0,563.09,536Z" style="fill:#ff3a00;"/><path d="M185.19,438.42h0a1.47,1.47,0,0,0-1.45,1.5c0,1.48,0,2.95.07,4.42a1.47,1.47,0,0,0,1.47,1.45h0a1.47,1.47,0,0,0,1.44-1.5c0-1.46,0-2.94-.06-4.42A1.48,1.48,0,0,0,185.19,438.42Z" style="fill:#ff3a00;"/><path d="M183.5,410.62v1A1.47,1.47,0,0,0,185,413.1h0a1.47,1.47,0,0,0,1.48-1.47v-1c0-2.87,0-5.68,0-8.41a1.47,1.47,0,0,0-1.46-1.48h0a1.47,1.47,0,0,0-1.47,1.47C183.51,404.94,183.5,407.74,183.5,410.62Z" style="fill:#ff3a00;"/><path d="M185.67,363a1.5,1.5,0,0,0-1.52,1.43c-.09,3-.17,6.15-.25,9.43a1.48,1.48,0,0,0,1.44,1.51h0a1.48,1.48,0,0,0,1.48-1.44c.07-3.28.15-6.41.25-9.41A1.49,1.49,0,0,0,185.67,363Z" style="fill:#ff3a00;"/><path d="M186.43,344.21a1.48,1.48,0,0,0-1.55,1.4c-.14,2.93-.27,6.08-.4,9.43a1.47,1.47,0,0,0,1.41,1.53H186a1.47,1.47,0,0,0,1.47-1.42q.2-5,.41-9.4A1.47,1.47,0,0,0,186.43,344.21Z" style="fill:#ff3a00;"/><path d="M187.59,325.4a1.48,1.48,0,0,0-1.58,1.36c-.22,3-.43,6.16-.62,9.43a1.47,1.47,0,0,0,1.38,1.55h.09a1.48,1.48,0,0,0,1.47-1.39c.19-3.26.4-6.41.62-9.38A1.48,1.48,0,0,0,187.59,325.4Z" style="fill:#ff3a00;"/><path d="M185.05,394.25h0a1.48,1.48,0,0,0,1.48-1.45q0-4.87.12-9.42a1.48,1.48,0,1,0-2.95-.05c-.05,3-.09,6.18-.12,9.44A1.47,1.47,0,0,0,185.05,394.25Z" style="fill:#ff3a00;"/><path d="M185.07,432h0a1.48,1.48,0,0,0,1.46-1.49q0-4.66-.08-9.42a1.46,1.46,0,0,0-1.47-1.46h0a1.47,1.47,0,0,0-1.46,1.48c0,3.17,0,6.32.07,9.43A1.48,1.48,0,0,0,185.07,432Z" style="fill:#ff3a00;"/><path d="M196.59,311.3l-5-10.81a1.62,1.62,0,0,0-2.79-.25L182,310a1.61,1.61,0,0,0,1.18,2.53l4.13.38c0,.1-.19,1.52-.47,4.42a1.47,1.47,0,0,0,1.32,1.61h.15a1.47,1.47,0,0,0,1.46-1.33c.28-2.9.47-4.34.47-4.35v-.1l4.77.43A1.62,1.62,0,0,0,196.59,311.3Z" style="fill:#ff3a00;"/><rect x="603.19" y="338.46" width="126.85" height="9.18" rx="3.36" ry="3.36" style="fill:#00aee0;"/><path d="M698.91,322.59v4.18a2.75,2.75,0,0,0,3,2.5h25.23a2.75,2.75,0,0,0,2.94-2.5v-4.18a2.75,2.75,0,0,0-2.94-2.5H701.86A2.75,2.75,0,0,0,698.91,322.59Z" style="fill:#00aee0;"/><path d="M688.33,320.09h-82.2a2.75,2.75,0,0,0-2.94,2.5v4.18a2.75,2.75,0,0,0,2.94,2.5h82.2a2.75,2.75,0,0,0,2.94-2.5v-4.18A2.75,2.75,0,0,0,688.33,320.09Z" style="fill:#00aee0;"/><rect x="603.19" y="375.2" width="126.85" height="9.18" rx="3.36" ry="3.36" style="fill:#00aee0;"/><path d="M626.41,400.25v-4.18a2.75,2.75,0,0,0-2.95-2.5H606.13a2.75,2.75,0,0,0-2.94,2.5v4.18a2.75,2.75,0,0,0,2.94,2.5h17.33A2.75,2.75,0,0,0,626.41,400.25Z" style="fill:#00aee0;"/><path d="M637,402.75h72.54a2.75,2.75,0,0,0,3-2.5v-4.18a2.75,2.75,0,0,0-3-2.5H637a2.75,2.75,0,0,0-3,2.5v4.18A2.75,2.75,0,0,0,637,402.75Z" style="fill:#00aee0;"/><path d="M645.64,356.83H606.13a2.75,2.75,0,0,0-2.94,2.5v4.18a2.75,2.75,0,0,0,2.94,2.5h39.51a2.75,2.75,0,0,0,3-2.5v-4.18A2.75,2.75,0,0,0,645.64,356.83Z" style="fill:#00aee0;"/><path d="M656.23,359.33v4.18a2.75,2.75,0,0,0,2.95,2.5h29.15a2.75,2.75,0,0,0,2.94-2.5v-4.18a2.75,2.75,0,0,0-2.94-2.5H659.18A2.75,2.75,0,0,0,656.23,359.33Z" style="fill:#00aee0;"/><circle cx="161.41" cy="246.18" r="33.94" style="fill:#00aee0;"/><path d="M185.77,257.73c-1.79-9.07-8.34-10.51-16.89-9.72a.4.4,0,0,1-.31-.7c2.6-2.5,3.23-6.17,2.56-10.12-1-6.2-3.86-10.9-12.81-9.39s-10.08,6.86-9,13.07c.67,3.95,2.46,7.21,5.73,8.72a.41.41,0,0,1-.06.77c-8.34,2-14,5.55-12.78,14.7a1.73,1.73,0,0,0,.58,1.05,28.66,28.66,0,0,0,42.81-7.21A1.66,1.66,0,0,0,185.77,257.73Z" style="fill:#fff;"/><circle cx="154.99" cy="238.19" r="1.5" style="fill:#00aee0;"/><circle cx="164.61" cy="236.57" r="1.5" style="fill:#00aee0;"/><path d="M157.1,242.78a6,6,0,0,0,1.84.34,9.7,9.7,0,0,0,1.93-.14,9.53,9.53,0,0,0,1.87-.5,6.23,6.23,0,0,0,1.63-.92l.16-.13a.75.75,0,0,1,1.07.11.74.74,0,0,1,.16.57,4,4,0,0,1-1.66,2.63,6.43,6.43,0,0,1-2.74,1.15,6.26,6.26,0,0,1-3-.2,4,4,0,0,1-2.43-1.93.77.77,0,0,1,.35-1,.78.78,0,0,1,.6,0Z" style="fill:#00aee0;"/><path d="M173.32,198.43a66.56,66.56,0,0,0-13.69-4.78,7.4,7.4,0,0,0,.17-.94,8.13,8.13,0,0,0-7.3-8.89,65.07,65.07,0,0,0-13.8.13,7.69,7.69,0,0,0-8.73-4.52,61.25,61.25,0,0,0-22.33,9.85l-1.31.92c-.43.32-.84.68-1.25,1l-2.5,2.1A59,59,0,0,0,98,198.09a48.52,48.52,0,0,0-7.25,11.3,53.38,53.38,0,0,0-4.69,18h0c-1,9.14-.28,14.17-2.11,18.53a29.72,29.72,0,0,1-3.46,4.91,14.17,14.17,0,0,0-1,1.11,23.29,23.29,0,0,1-6.65,4.65l-17.44,8.28C53,266,56,277.25,62.11,290s14.1,24.82,16.44,23.71l17.3-8.57c6.25-3.05,12.16-7.49,29.33-5.25l.95.16c.71.14,1.43.22,2.14.29l.07,0h0c1.25.12,2.5.19,3.74.27l2.93,0c.48,0,1,0,1.45-.05l1.43-.15a51.11,51.11,0,0,0,20.62-6.61,8.54,8.54,0,0,0-5.2-15.87l-.36,0a83.4,83.4,0,0,1-15.64.53l-.89-.06-.86-.13-1.71-.22c-1.09-.26-2.21-.41-3.24-.74s-2-.65-3.06-1l-1.46-.61c-.48-.21-.94-.46-1.42-.68-15.92-8.42-18.82-42,5.45-56.07.66-.33,1.3-.71,2-1l2-.92c1.41-.49,2.79-1.11,4.28-1.47s3-.75,4.49-1.12l2.35-.36,1.19-.19,1.21-.1a97.68,97.68,0,0,1,20.82.63l.23,0a8.48,8.48,0,0,0,4.63-16.08Z" style="fill:#ff3a00;"/><path d="M150.62,289.08c-1.59-4.9,6.62-7.27,8.58-2.08C160.77,291.15,152.86,296,150.62,289.08Z" style="fill:#04294f;"/><path d="M173.32,198.43c2.38,4.17-4,5.91-8.16-3.24A41.37,41.37,0,0,1,173.32,198.43Z" style="fill:#04294f;"/><path d="M156.21,192.16a59.69,59.69,0,0,0-8-1.3c-1.36-.1-2.67-.25-4.09-.22l-4,.06H140c-1.84.17-3.73.34-5.66.66-.48.08-1,.17-1.44.27l-1.38.3c-.94.2-1.87.44-2.8.7A49.54,49.54,0,0,0,118,197a53.1,53.1,0,0,0-17.31,14.8.75.75,0,0,0,1.14,1h0c1.29-1.34,2.6-2.64,4-3.87s2.79-2.41,4.25-3.52a61.42,61.42,0,0,1,9.28-5.86,54.92,54.92,0,0,1,10.06-4l.75,1.57c.35.74.71,1.47,1,2.22s.65,1.49.94,2.26.61,1.56,1,2.37l0,.05a.79.79,0,0,0,.55.42.78.78,0,0,0,.91-.62,9.64,9.64,0,0,0-.75-5.67,10.15,10.15,0,0,0-1.52-2.47,9.46,9.46,0,0,0-.68-.73l.47-.12,1.36-.31c.45-.11.87-.2,1.32-.29l1.67-.28c.11.32.24.64.35.95l.65,1.52c.22.5.46,1,.69,1.51a12.72,12.72,0,0,0,.87,1.59l0,.06a.77.77,0,0,0,.43.32.81.81,0,0,0,1-.53,6,6,0,0,0-.35-4.14,6.52,6.52,0,0,0-1-1.64l1.13-.16,3.89-.23a39.08,39.08,0,0,1,3.91,0,77.07,77.07,0,0,1,7.88.55.75.75,0,0,0,.26-1.48Z" style="fill:#04294f;"/><path d="M101.8,203.32l0,0c1.23-1.12,2.36-2.31,3.6-3.39s2.47-2.14,3.75-3.15a68.58,68.58,0,0,1,8.07-5.48,60.44,60.44,0,0,1,8.78-4.19c.76-.3,1.51-.57,2.31-.85s1.52-.55,2.3-.79c1.55-.49,3.17-.88,4.78-1.38a.75.75,0,0,0-.3-1.46c-1.66.18-3.32.38-5,.7-.83.16-1.71.38-2.5.6s-1.64.45-2.45.7a47.23,47.23,0,0,0-9.39,4.12c-1.49.88-2.9,1.8-4.3,2.8a50.67,50.67,0,0,0-7.61,6.82c-1.13,1.27-2.16,2.62-3.17,4a.75.75,0,0,0,1.11,1Z" style="fill:#04294f;"/><path d="M130.92,294.94l-.35-1.62c-.11-.54-.25-1.07-.39-1.62a11.32,11.32,0,0,0-.55-1.72l0-.07a.78.78,0,0,0-.36-.4.82.82,0,0,0-1.1.33,6,6,0,0,0-.44,4.13,6.7,6.7,0,0,0,.78,2,4.84,4.84,0,0,0,1.5,1.6.76.76,0,0,0,.47.13.78.78,0,0,0,.74-.82v-.2A13.27,13.27,0,0,0,130.92,294.94Z" style="fill:#04294f;"/><path d="M137.26,292.3a24.47,24.47,0,0,0-.62-2.38,14.54,14.54,0,0,0-.95-2.34v0a.82.82,0,0,0-.54-.39.79.79,0,0,0-.94.61,10.92,10.92,0,0,0-.16,2.6,17.73,17.73,0,0,0,.33,2.52,17.36,17.36,0,0,0,.69,2.44,11.33,11.33,0,0,0,1.14,2.32.83.83,0,0,0,.58.35.79.79,0,0,0,.87-.71h0a12.66,12.66,0,0,0,0-2.54C137.55,293.92,137.42,293.11,137.26,292.3Z" style="fill:#04294f;"/><ellipse cx="69.54" cy="287.07" rx="4.18" ry="21.17" transform="translate(-116.67 57.78) rotate(-25.46)" style="fill:#04294f;"/><ellipse cx="69.54" cy="287.07" rx="1.71" ry="4.66" transform="translate(-116.67 57.78) rotate(-25.46)" style="fill:#fff;"/><path d="M575.14,327.27c-4.78-2.33-4.79-9.94-4.53-13.23l0-.6c0-.4.08-.83.11-1.29.11-.86.15-1.8.23-2.69.11-1.84.23-3.66.24-5.49,0-.33,0-.7,0-1.11a11.44,11.44,0,0,0-12.28-11.1q-3,.19-6,.34-9.33.38-18.64.2c-6.22-.1-12.43-.38-18.64-.92A156.89,156.89,0,0,1,497,288.81a8.59,8.59,0,0,1-6.77-7.5,8.73,8.73,0,0,1,7-9.32,154.78,154.78,0,0,1,18.41-2.53c6.21-.54,12.42-.81,18.64-.92h1.09a9.25,9.25,0,0,1-2.47-4.48,9.45,9.45,0,0,1,5.6-10.62c.5-.22,1-.41,1.48-.6a9.28,9.28,0,0,1-4-6.94,10.1,10.1,0,0,1,5.82-9.74,23.71,23.71,0,0,1,2.95-1.2,9.27,9.27,0,0,1-4-7,10.18,10.18,0,0,1,6-9.81,25.33,25.33,0,0,1,2.65-1.07c22.93-9.13,47-1.08,68.36,12.08h15.53c2.59,0,4.69,11.47,4.69,25.63s-2.1,28.47-4.69,28.47l-15.53-.33c-6.19,3.82-11.12,7.09-16.36,9.62a10.51,10.51,0,0,0-6,9.12v0c-.15,2.72-.47,2.6-1,5.27a50,50,0,0,1-2.28,7.89c-.53,1.29-1,2.56-1.7,3.84-.31.62-.65,1.26-1,1.91l-.58,1-.75,1.2A9.63,9.63,0,0,1,575.14,327.27Z" style="fill:#ffb400;"/><path d="M505.26,280.73c.06,6.06-10,5.25-10-.3C495.24,274.31,505.19,273.41,505.26,280.73Z" style="fill:#ff3a00;"/><path d="M584.79,319.89c.06,6.06-10,5.25-10-.29C574.77,313.47,584.72,312.57,584.79,319.89Z" style="fill:#ff3a00;"/><ellipse cx="630.24" cy="256.44" rx="4.18" ry="21.17" transform="translate(-1.13 2.79) rotate(-0.25)" style="fill:#ff3a00;"/><ellipse cx="630.24" cy="256.44" rx="1.71" ry="4.66" transform="matrix(1, 0, 0, 1, -1.13, 2.79)" style="fill:#fff;"/><path d="M525.79,275c.07.9.06,1.82.05,2.7l0,2.63V283c0,.87,0,1.72,0,2.66v.06a.78.78,0,0,1-.81.74.79.79,0,0,1-.62-.35,8.32,8.32,0,0,1-1.17-2.78,11.51,11.51,0,0,1-.32-3,12.52,12.52,0,0,1,.38-2.93,9.25,9.25,0,0,1,1.11-2.77.77.77,0,0,1,1.43.34Z" style="fill:#ff3a00;"/><path d="M585.33,306.57a5,5,0,0,1-1.37.07,9.22,9.22,0,0,1-1.22-.16,9.56,9.56,0,0,1-1.17-.3,7.77,7.77,0,0,1-1.22-.54l-.11-.06a.86.86,0,0,1-.31-1.17.79.79,0,0,1,.23-.25,3.34,3.34,0,0,1,1.56-.62,4.71,4.71,0,0,1,1.59,0,5.11,5.11,0,0,1,1.47.55,3.77,3.77,0,0,1,1.22,1.09.84.84,0,0,1-.2,1.17.81.81,0,0,1-.3.13Z" style="fill:#ff3a00;"/><path d="M518.53,277.87a4.77,4.77,0,0,1,.37,1.29,7.08,7.08,0,0,1,.09,1.2,9.39,9.39,0,0,1-.1,1.18,5.47,5.47,0,0,1-.37,1.26l0,.1a.86.86,0,0,1-1.15.44.78.78,0,0,1-.26-.17,3.42,3.42,0,0,1-.81-1.36,4.74,4.74,0,0,1-.22-1.48,4.8,4.8,0,0,1,.25-1.45,3.56,3.56,0,0,1,.78-1.34.85.85,0,0,1,1.21-.05,1.14,1.14,0,0,1,.18.25Z" style="fill:#ff3a00;"/><path d="M544.72,241.43a4.61,4.61,0,0,1,.37,1.28,7.12,7.12,0,0,1,.09,1.21,7.72,7.72,0,0,1-.11,1.17,5.15,5.15,0,0,1-.36,1.26l0,.1a.88.88,0,0,1-1.15.45,1,1,0,0,1-.26-.18,3.31,3.31,0,0,1-.81-1.36,4.66,4.66,0,0,1-.22-1.48,5,5,0,0,1,.24-1.44,3.76,3.76,0,0,1,.79-1.35.85.85,0,0,1,1.2,0,.88.88,0,0,1,.19.24Z" style="fill:#ff3a00;"/><path d="M540.94,258.51a7.36,7.36,0,0,1,.42,1.71,11.65,11.65,0,0,1,.1,1.66,13.06,13.06,0,0,1-.11,1.65,8,8,0,0,1-.42,1.69v0a.83.83,0,0,1-1.08.48.81.81,0,0,1-.39-.31,5.24,5.24,0,0,1-.74-1.75,8,8,0,0,1-.19-1.82,7.75,7.75,0,0,1,.21-1.79,5.54,5.54,0,0,1,.72-1.74.82.82,0,0,1,1.46.13Z" style="fill:#ff3a00;"/><path d="M550.12,223.14a7.28,7.28,0,0,1,.42,1.7,11.79,11.79,0,0,1,.1,1.67,11.3,11.3,0,0,1-.11,1.64,7.4,7.4,0,0,1-.42,1.7v0a.83.83,0,0,1-1.08.47.76.76,0,0,1-.39-.31,5.24,5.24,0,0,1-.74-1.75,8,8,0,0,1-.19-1.81,7.77,7.77,0,0,1,.21-1.8,5.64,5.64,0,0,1,.72-1.74.83.83,0,0,1,1.15-.25.87.87,0,0,1,.31.38Z" style="fill:#ff3a00;"/><path d="M229.91,534.79c-2.32-4.78-9.93-4.79-13.22-4.53l-.6,0-1.29.11c-.86.1-1.8.15-2.69.23-1.84.1-3.66.22-5.49.24h-1.11a11.44,11.44,0,0,1-11.1-12.28q.19-3,.33-6,.39-9.31.21-18.63c-.11-6.22-.38-12.43-.92-18.64a156.61,156.61,0,0,0-2.57-18.64,8.59,8.59,0,0,0-7.5-6.77,8.74,8.74,0,0,0-9.33,7,157.28,157.28,0,0,0-2.52,18.42c-.54,6.21-.82,12.42-.92,18.64,0,.36,0,.72,0,1.09a9.17,9.17,0,0,0-4.48-2.47,9.44,9.44,0,0,0-10.62,5.6q-.33.74-.6,1.47a9.35,9.35,0,0,0-6.94-4,10.14,10.14,0,0,0-9.74,5.82,25,25,0,0,0-1.2,3,9.26,9.26,0,0,0-7-4,10.17,10.17,0,0,0-9.81,6,24.48,24.48,0,0,0-1.07,2.65c-9.13,22.93-1.08,47,12.07,68.36v19.3c0,2.59,11.48,4.69,25.64,4.69s28.47-2.1,28.47-4.69l-.33-19.3c3.82-6.19,7.08-11.13,9.61-16.36s11.77-6.44,14.44-7a50,50,0,0,0,7.89-2.28c1.29-.53,2.55-1.05,3.83-1.7q.94-.46,1.92-1l1-.59,1.2-.74A9.63,9.63,0,0,0,229.91,534.79Z" style="fill:#00aee0;"/><path d="M183.34,464.62c6.06.06,5.25-10-.29-10C176.92,454.61,176,464.55,183.34,464.62Z" style="fill:#04294f;"/><path d="M222.5,544.15c6.06.06,5.25-10-.29-10C216.08,534.14,215.19,544.08,222.5,544.15Z" style="fill:#04294f;"/><path d="M177.24,483.71A9.25,9.25,0,0,1,180,482.6a12.59,12.59,0,0,1,2.93-.38,11.51,11.51,0,0,1,3,.32,8.27,8.27,0,0,1,2.79,1.18.77.77,0,0,1,.21,1.07.75.75,0,0,1-.6.35h-.07c-.93.05-1.79,0-2.66,0l-2.6,0-2.63,0c-.88,0-1.79,0-2.7-.05h-.07a.77.77,0,0,1-.71-.83A.79.79,0,0,1,177.24,483.71Z" style="fill:#04294f;"/><path d="M203.27,546.53a3.82,3.82,0,0,1-1.09-1.23,4.83,4.83,0,0,1-.6-3.06,3.34,3.34,0,0,1,.62-1.55.85.85,0,0,1,1.19-.18.9.9,0,0,1,.23.25l.06.11a7.84,7.84,0,0,1,.54,1.23,9.41,9.41,0,0,1,.3,1.16,9.6,9.6,0,0,1,.16,1.23,5,5,0,0,1-.07,1.37l0,.17a.84.84,0,0,1-1,.63A.81.81,0,0,1,203.27,546.53Z" style="fill:#04294f;"/><path d="M209.59,547.21a7.22,7.22,0,0,1-1.4-2,9.78,9.78,0,0,1-.76-2.29,8.58,8.58,0,0,1-.16-2.43,6.26,6.26,0,0,1,.64-2.41.8.8,0,0,1,1.46.12l0,.07c.23.73.35,1.4.51,2.07l.41,2c.14.67.26,1.35.38,2a18.77,18.77,0,0,1,.24,2.16v.09a.78.78,0,0,1-.78.8A.75.75,0,0,1,209.59,547.21Z" style="fill:#04294f;"/><path d="M180.15,476.43a3.56,3.56,0,0,1,1.34-.78,4.88,4.88,0,0,1,2.93,0,3.42,3.42,0,0,1,1.36.81.88.88,0,0,1-.27,1.41l-.1,0a5.34,5.34,0,0,1-1.26.37,7.7,7.7,0,0,1-1.17.1,7.12,7.12,0,0,1-1.21-.09,4.61,4.61,0,0,1-1.28-.37l-.14-.07a.86.86,0,0,1-.38-1.15A.84.84,0,0,1,180.15,476.43Z" style="fill:#04294f;"/><path d="M143.71,502.62a3.73,3.73,0,0,1,1.34-.79,5.06,5.06,0,0,1,1.45-.24,4.64,4.64,0,0,1,1.47.22,3.36,3.36,0,0,1,1.36.81.86.86,0,0,1,0,1.23.72.72,0,0,1-.25.18l-.1,0a5,5,0,0,1-1.26.36,8,8,0,0,1-1.18.11,7.27,7.27,0,0,1-1.21-.09,4.81,4.81,0,0,1-1.28-.37l-.13-.07a.85.85,0,0,1-.39-1.15A.75.75,0,0,1,143.71,502.62Z" style="fill:#04294f;"/><path d="M160.94,498.81a5.64,5.64,0,0,1,1.74-.72,7.77,7.77,0,0,1,1.8-.21,8,8,0,0,1,1.81.19,5.24,5.24,0,0,1,1.75.74.84.84,0,0,1,.22,1.16.81.81,0,0,1-.38.31h0a7.4,7.4,0,0,1-1.7.42,12.91,12.91,0,0,1-1.64.11,11.79,11.79,0,0,1-1.67-.1,7.16,7.16,0,0,1-1.7-.42l-.06,0a.83.83,0,0,1-.45-1.08A.85.85,0,0,1,160.94,498.81Z" style="fill:#04294f;"/><path d="M125.56,508a5.64,5.64,0,0,1,1.74-.72,7.9,7.9,0,0,1,1.8-.21,7.44,7.44,0,0,1,1.81.2,5.15,5.15,0,0,1,1.76.73.84.84,0,0,1-.17,1.47l0,0a8,8,0,0,1-1.69.41,11.43,11.43,0,0,1-1.65.11,10.35,10.35,0,0,1-1.66-.1,7.24,7.24,0,0,1-1.71-.42l-.06,0a.82.82,0,0,1-.44-1.08A.77.77,0,0,1,125.56,508Z" style="fill:#04294f;"/><ellipse cx="158.67" cy="594.01" rx="21.17" ry="4.18" transform="matrix(1, 0, 0, 1, -2.62, 0.71)" style="fill:#04294f;"/><ellipse cx="158.67" cy="594.01" rx="4.66" ry="1.71" transform="translate(-2.62 0.71) rotate(-0.25)" style="fill:#fff;"/><g id="_Groupe_" data-name="&lt;Groupe&gt;"><path d="M427.67,214.85a5.37,5.37,0,0,1-4.58,6.28q-25.86,3.36-51.75,6.5l-1.52-12.73q25.8-3.22,51.62-6.26a5.34,5.34,0,0,1,5.9,4.41C427.46,213.81,427.55,214.23,427.67,214.85Z" style="fill:#00aee0;"/></g><path d="M423.61,100.55c-13.28-4.9-24.78-6.89-25.68-4.46l-6.67,18.11a23.58,23.58,0,0,1-4,7,13.93,13.93,0,0,0-1,1.14,29.64,29.64,0,0,1-4.58,3.89c-4.18,2.21-9.25,1.95-18.26,3.76h0a53.41,53.41,0,0,0-17.51,6.3,47.9,47.9,0,0,0-10.6,8.23,56.58,56.58,0,0,0-4.35,5l-1.86,2.67c-.3.45-.62.89-.91,1.34l-.8,1.39a61.21,61.21,0,0,0-7.8,23.12,7.72,7.72,0,0,0,5.29,8.3,65,65,0,0,0,1.1,13.75,8.14,8.14,0,0,0,9.52,6.47c.31-.06.62-.16.92-.25a67.19,67.19,0,0,0,5,11.39,5.83,5.83,0,0,0,.37.76c4.5,8,15.47,4.6,16.34-2.09a8.63,8.63,0,0,0-.09-2.91l0-.23a97.84,97.84,0,0,1-2.5-20.68v-1.22l.08-1.19.15-2.38c.23-1.54.34-3.1.71-4.58s.72-2.93,1.08-4.38l.74-2.12c.25-.7.57-1.37.84-2.06a35.5,35.5,0,0,1,28.48-20.42c10.63-1,27.5,13.67,22.12,30.92,0,0,0,.1-.05.15l-.77,2.14c-.3.69-.61,1.38-.89,2.07-.14.34-.26.7-.43,1l-.49,1-.48,1c-.16.34-.31.68-.5,1a65.66,65.66,0,0,1-4.4,7.27c-4.07,5.87-7.1,6.65-8.68,11.18l0,.05v0h0a7.8,7.8,0,0,0,.62,6.62c1.7,2.91,5.4,3.88,8.89,3.24h0a12.09,12.09,0,0,0,2.88-.92l.86-.42c.53-.27,1.05-.54,1.54-.82s.83-.5,1.23-.75c16.17-9.27,33-33.44,29.81-50.4h0c-1-7.75-4.17-14.84-1.67-23.24.16-.54.32-1.07.49-1.6a6.79,6.79,0,0,0,.25-.77c1.52-4.56,3.25-8.44,3.92-10.21l7-18C449.6,112.37,436.9,105.45,423.61,100.55Z" style="fill:#04294f;"/><path d="M406.14,220.59h0S408.85,219.3,406.14,220.59Z" style="fill:#04294f;"/><ellipse cx="421.31" cy="108.21" rx="4.18" ry="21.17" transform="translate(173.59 465.78) rotate(-69.69)" style="fill:#ff3a00;"/><ellipse cx="421.31" cy="108.21" rx="1.71" ry="4.66" transform="translate(173.59 465.78) rotate(-69.69)" style="fill:#fff;"/><path d="M349.1,146a52.77,52.77,0,0,0-7.58,8.55,53.77,53.77,0,0,0-5.61,10,49.42,49.42,0,0,0-3.33,11c-.17.95-.33,1.9-.45,2.85l-.17,1.4c-.06.48-.11,1-.14,1.46-.14,2-.14,3.85-.15,5.7v.11l.31,4a40.28,40.28,0,0,0,.58,4,60.54,60.54,0,0,0,2,7.87.75.75,0,0,0,.86.49.74.74,0,0,0,.58-.89c-.52-2.59-1-5.18-1.25-7.8a37.48,37.48,0,0,1-.32-3.9l-.12-3.89c0-.38,0-.76.05-1.13a6.89,6.89,0,0,0,1.73.88,6,6,0,0,0,4.16,0,.82.82,0,0,0,.08-1.47l-.07,0a12.1,12.1,0,0,0-1.66-.72c-.53-.19-1-.39-1.56-.55l-1.58-.51c-.31-.09-.64-.19-1-.27,0-.57.07-1.13.13-1.69s.1-.88.17-1.34l.19-1.38c0-.16.05-.32.07-.48.25.21.51.42.78.61a10.24,10.24,0,0,0,2.61,1.29,9.6,9.6,0,0,0,5.71.24.78.78,0,0,0,.07-1.47l-.05,0c-.85-.33-1.66-.54-2.45-.8s-1.57-.49-2.34-.74-1.53-.53-2.3-.82c-.54-.19-1.09-.41-1.63-.61a53.72,53.72,0,0,1,3.08-10.37,61.15,61.15,0,0,1,5-9.77c1-1.55,2-3.07,3.13-4.55s2.28-2.9,3.5-4.3h0A.75.75,0,0,0,349.1,146Z" style="fill:#ff3a00;"/><path d="M337.73,151.79c1-1.33,2-2.56,3-3.88l0,0a.75.75,0,0,0-1.1-1c-1.26,1.12-2.52,2.27-3.68,3.51s-2.25,2.56-3.27,3.93a50.85,50.85,0,0,0-2.84,4.26c-.87,1.49-1.66,3-2.4,4.53a46.78,46.78,0,0,0-3.26,9.73c-.18.83-.36,1.68-.48,2.5s-.28,1.7-.37,2.54c-.17,1.71-.22,3.39-.25,5a.75.75,0,0,0,1.48.18c.36-1.65.6-3.3.95-4.89.17-.8.35-1.55.58-2.36s.4-1.59.63-2.38a60.42,60.42,0,0,1,3.39-9.12,68.25,68.25,0,0,1,4.73-8.53C335.81,154.44,336.74,153.1,337.73,151.79Z" style="fill:#ff3a00;"/><path d="M422.68,196.05a6.54,6.54,0,0,0-1.25-1.71,6,6,0,0,0-3.73-1.81.82.82,0,0,0-.52.14.81.81,0,0,0-.2,1.13l0,.06a13,13,0,0,0,1.17,1.38c.4.41.77.81,1.17,1.19l1.18,1.15a14.51,14.51,0,0,0,1.32,1.13l.16.12a.87.87,0,0,0,.48.14.77.77,0,0,0,.75-.81A4.86,4.86,0,0,0,422.68,196.05Z" style="fill:#ff3a00;"/><path d="M418.69,201.31a19.09,19.09,0,0,0-1.7-1.88,17.14,17.14,0,0,0-2-1.62,10.42,10.42,0,0,0-2.28-1.24.83.83,0,0,0-.67.06.79.79,0,0,0-.3,1.08h0a14.06,14.06,0,0,0,1.47,2.05c.54.63,1.11,1.22,1.7,1.79a20.71,20.71,0,0,0,1.88,1.61,12.6,12.6,0,0,0,2.14,1.37h0a.82.82,0,0,0,.67,0,.78.78,0,0,0,.4-1A11.3,11.3,0,0,0,418.69,201.31Z" style="fill:#ff3a00;"/><path d="M405.13,211.17c-3.31-3.93-9.67,1.77-6.32,6.18C401.51,220.88,409.84,216.77,405.13,211.17Z" style="fill:#ff3a00;"/><path d="M338.39,211.71c4.42,0,8.36,5.77,6.88,10.41C345.27,222.12,342,221.62,338.39,211.71Z" style="fill:#ff3a00;"/><path d="M287.81,225.71q-11.06,1.53-22.09,3.1a5.34,5.34,0,0,0-4.48,6.39v0a5.34,5.34,0,0,0,5.79,4.23q11.11-1.17,22.23-2.38a5.35,5.35,0,0,0,4.66-6.39l-.13-.66A5.35,5.35,0,0,0,287.81,225.71Z" style="fill:#00aee0;"/><path d="M489.57,206.9a.8.8,0,0,0,0,.15,5.34,5.34,0,0,0,6,4.25l3.48-.5a5.35,5.35,0,0,0,4.48-6.38v0a5.34,5.34,0,0,0-5.8-4.22l-3.47.36A5.35,5.35,0,0,0,489.57,206.9Z" style="fill:#00aee0;"/><path d="M472.84,202.82q-13.89,1.52-27.76,3.09a5.34,5.34,0,0,0-4.65,6.29c.08.47.16.84.26,1.41a5.36,5.36,0,0,0,6,4.41q13.83-1.85,27.65-3.75a5.36,5.36,0,0,0,4.5-6.39c-.05-.22-.09-.44-.14-.73A5.34,5.34,0,0,0,472.84,202.82Z" style="fill:#00aee0;"/><g id="_Groupe_2" data-name="&lt;Groupe&gt;"><path d="M369.82,214.9l1.52,12.73q-28.81,3.51-57.64,6.76a5.36,5.36,0,0,1-5.86-4.41c-.09-.52-.17-.85-.25-1.26a5.36,5.36,0,0,1,4.54-6.33Q341,218.52,369.82,214.9Z" style="fill:#00aee0;"/></g><path d="M564.05,583.25a10.2,10.2,0,0,1-9.92,10.21c-26.19.72-100.06,2.55-171.72,2.55s-145.54-1.83-171.73-2.55a10.2,10.2,0,0,1-9.92-10.21V569.8a10.22,10.22,0,0,1,9.81-10.21c20.1-.79,72.62-2.38,171.82-2.38s151.75,1.59,171.85,2.38a10.22,10.22,0,0,1,9.81,10.21Z" style="fill:#04294f;"/><path d="M335.08,566.77c-70.27.41-108.23,1.66-123.19,2.25a.78.78,0,0,0-.75.78l0,.15a24.53,24.53,0,0,0,0,13.3h0a.78.78,0,0,0,.75.78c21.68.59,69.35,1.79,123.19,2.3Z" style="fill:#ff3a00;"/><path d="M553.87,569c-18-.71-70.86-2.38-171.48-2.38-16,0-30.83,0-44.48.12v19.6c14.62.13,29.59.21,44.5.21,70.9,0,143.53-1.78,171.46-2.54a.78.78,0,0,0,.75-.78h0a24.62,24.62,0,0,0,0-13.3l0-.15A.78.78,0,0,0,553.87,569Z" style="fill:#00aee0;"/><circle cx="333.86" cy="577.23" r="14.24" style="fill:#fff;"/><path d="M446.19,697.8,438,684.59c-4.08-7.34-.92-14.08-7.2-34.16a2.68,2.68,0,0,1-.07-.27c-.59-2-1.27-4-2-6v0c-.18-.5-.39-1-.6-1.44-.6-1.41-1.22-2.81-1.91-4.19a62,62,0,0,0-6.58-10.65,45.79,45.79,0,0,0-8.91-9,8.77,8.77,0,0,0-11.89,1.24c-.66-.56-1.32-1.13-2-1.65a8.78,8.78,0,0,0-7.52-1.48,8.67,8.67,0,0,0-5.39,4.19c-.55-.46-1.1-.92-1.67-1.36a8.83,8.83,0,0,0-7.51-1.48,8.74,8.74,0,0,0-2.87,1.36q-1.89-4.77-4.14-9.39l-1.07-2.23-1.16-2.19q-1.15-2.19-2.38-4.35c-1.72-2.83-3.4-5.67-5.35-8.37A93.86,93.86,0,0,0,344.84,578a8.52,8.52,0,0,0-13.72,9.49l.16.39c2.37,5.63,5.06,10.88,7.5,16.29,1.29,2.66,2.47,5.38,3.74,8l1.81,4,.92,2,.88,2c2.41,5.38,4.69,10.83,6.93,16.29l1,2.41a9,9,0,0,0-2,1.67,41.7,41.7,0,0,0-7.74,12.5,37,37,0,0,0-2.23,8,30,30,0,0,0,.15,9.88,23.7,23.7,0,0,0,5,10.72,24.56,24.56,0,0,0,9.21,6.91c.61.26,1.21.49,1.81.7h0c30.11,11.16,29.29,15.27,33.52,22.46l7.89,13.38c1.31,2.23,12.27-1.78,24.47-9S447.5,700,446.19,697.8Z" style="fill:#ffb400;"/><ellipse cx="421.1" cy="708.27" rx="21.17" ry="4.18" transform="translate(-292.98 297.1) rotate(-29.33)" style="fill:#ff3a00;"/><ellipse cx="421.1" cy="708.27" rx="4.66" ry="1.71" transform="translate(-292.98 297.1) rotate(-29.33)" style="fill:#fff;"/><path d="M344.3,589.9c6.22-3.33.24-11.3-4.72-8.84C334.09,583.79,337.85,593.36,344.3,589.9Z" style="fill:#ff3a00;"/><path d="M354.54,640.61a47.49,47.49,0,0,1,2.89,5.09c.88,1.74,1.67,3.52,2.42,5.32s1.42,3.64,2,5.51a35,35,0,0,1,1.32,5.77.76.76,0,0,1-.66.84.74.74,0,0,1-.78-.43h0c-.8-1.75-1.58-3.49-2.34-5.26s-1.51-3.53-2.25-5.3-1.43-3.58-2.1-5.39-1.31-3.64-1.84-5.51h0a.76.76,0,0,1,1.36-.62Z" style="fill:#ff3a00;"/><path d="M374.67,620.82a4.67,4.67,0,0,1,1.14,1.17,6.58,6.58,0,0,1,.74,1.35,6.39,6.39,0,0,1,.43,1.51,4.61,4.61,0,0,1,0,1.69.85.85,0,0,1-1,.63.77.77,0,0,1-.36-.18l-.05,0a5.71,5.71,0,0,1-1-1.17,8.52,8.52,0,0,1-.67-1.31,7.53,7.53,0,0,1-.43-1.42,4.9,4.9,0,0,1-.09-1.59v0a.86.86,0,0,1,1-.75A.81.81,0,0,1,374.67,620.82Z" style="fill:#ff3a00;"/><path d="M352.69,609.32a10.88,10.88,0,0,1,1.92-1.69,16.72,16.72,0,0,1,2.14-1.3,15.84,15.84,0,0,1,2.33-1,9.44,9.44,0,0,1,2.57-.48.81.81,0,0,1,.81.78.78.78,0,0,1-.27.61l0,0a20.34,20.34,0,0,1-4.09,2.66,23.56,23.56,0,0,1-2.23,1,13.26,13.26,0,0,1-2.42.68h0a.8.8,0,0,1-.91-.66A.82.82,0,0,1,352.69,609.32Z" style="fill:#ff3a00;"/><path d="M351.73,602.33a2.94,2.94,0,0,1,.73-1.05,4.1,4.1,0,0,1,2.07-1,3.05,3.05,0,0,1,1.33.06.92.92,0,0,1,.63,1.14.87.87,0,0,1-.07.17l-.05.09a3.4,3.4,0,0,1-.73.94,4.92,4.92,0,0,1-.9.61,4.41,4.41,0,0,1-1,.36,3.19,3.19,0,0,1-1.24,0h0a1,1,0,0,1-.76-1.11A.7.7,0,0,1,351.73,602.33Z" style="fill:#ff3a00;"/><path d="M387.16,620.92a5,5,0,0,1,1.31,1,7.42,7.42,0,0,1,.94,1.23,6.32,6.32,0,0,1,.65,1.42,4.36,4.36,0,0,1,.23,1.68.86.86,0,0,1-.93.78.82.82,0,0,1-.38-.13l-.06,0a5.77,5.77,0,0,1-1.16-1,7.72,7.72,0,0,1-.87-1.19,8.31,8.31,0,0,1-.65-1.34,5.4,5.4,0,0,1-.33-1.56v0a.87.87,0,0,1,.83-.9A1,1,0,0,1,387.16,620.92Z" style="fill:#ff3a00;"/><path d="M345.44,669.3a5.12,5.12,0,0,1,1-1.28,6.85,6.85,0,0,1,2.71-1.5,4.58,4.58,0,0,1,1.68-.16.86.86,0,0,1,.75.95,1,1,0,0,1-.14.38l0,0a5.43,5.43,0,0,1-1.05,1.13,8.46,8.46,0,0,1-1.22.83,7.87,7.87,0,0,1-1.36.59,5.21,5.21,0,0,1-1.57.28h0a.87.87,0,0,1-.87-.86A.92.92,0,0,1,345.44,669.3Z" style="fill:#ff3a00;"/><path d="M401.26,620.32a5.16,5.16,0,0,1,1.42.81,7.09,7.09,0,0,1,1.08,1.11,6.5,6.5,0,0,1,.82,1.34,4.4,4.4,0,0,1,.42,1.63.86.86,0,0,1-.82.89.78.78,0,0,1-.4-.08l-.06,0a5.66,5.66,0,0,1-1.27-.86,7.93,7.93,0,0,1-1-1.08,7.61,7.61,0,0,1-.8-1.25,5.08,5.08,0,0,1-.52-1.51v0a.87.87,0,0,1,.72-1A.85.85,0,0,1,401.26,620.32Z" style="fill:#ff3a00;"/><path d="M655.3,501.57a63,63,0,0,1,2.45-11.78l1-2.91c.35-1,.77-1.93,1.16-2.89s.9-1.89,1.36-2.83c.24-.47.46-1,.71-1.41l.79-1.38A50.83,50.83,0,0,1,705.7,452.7a49.09,49.09,0,0,1,24.74,5.81A9,9,0,0,1,723.69,475l-.48-.14a43,43,0,0,0-16.3-1.49A37,37,0,0,0,692,478.42a38.56,38.56,0,0,0-11.46,11l-.6.85c-.19.29-.37.6-.55.9-.37.6-.77,1.18-1.09,1.82s-.72,1.24-1,1.88l-1,2c-1.27,2.66-2.33,5.48-3.42,8.4l-.15.41a9,9,0,0,1-17.39-4.08Z" style="fill:#ff3a00;"/><path d="M663.42,512.79A63.07,63.07,0,0,1,665.86,501l1-2.91c.36-1,.78-1.92,1.17-2.88s.89-1.9,1.35-2.84c.24-.47.46-.94.72-1.4l.79-1.38a50.81,50.81,0,0,1,42.9-25.68,49.33,49.33,0,0,1,24.75,5.81,9,9,0,0,1-6.75,16.5l-.48-.14a43.07,43.07,0,0,0-16.3-1.49,36.88,36.88,0,0,0-14.93,5.05,38.32,38.32,0,0,0-11.46,11l-.6.85c-.2.29-.37.6-.56.89-.36.61-.76,1.19-1.09,1.83s-.72,1.23-1,1.88l-1,2c-1.27,2.65-2.33,5.48-3.41,8.39l-.15.41a9,9,0,0,1-17.39-4.07Z" style="fill:#ff3a00;"/><path d="M644,489.5a63,63,0,0,1,2.4-11.8l1-2.92c.35-1,.77-1.92,1.16-2.89s.88-1.89,1.34-2.84c.24-.47.46-.94.71-1.4l.78-1.39a50.83,50.83,0,0,1,42.8-25.85,49.26,49.26,0,0,1,24.77,5.7,9,9,0,0,1-6.68,16.53l-.48-.14a43.08,43.08,0,0,0-16.31-1.42,36.92,36.92,0,0,0-14.9,5.11,38.37,38.37,0,0,0-11.42,11.06l-.6.85c-.19.29-.36.6-.55.9-.36.61-.76,1.19-1.08,1.83s-.72,1.24-1,1.88l-1,2c-1.26,2.66-2.31,5.49-3.38,8.41l-.15.41a9,9,0,0,1-17.41-4Z" style="fill:#ff3a00;"/><path d="M670.47,457.06s-3.58,51.44,24.71,48.55,31.92-37.17,31.92-37.17-20.09-30.25-38.82-23.6S670.47,457.06,670.47,457.06Z" style="fill:#04294f;"/><path d="M661.23,412C648.59,417.2,644,429.12,644,429.12a4.2,4.2,0,0,0,1,1.6l78.13,80,17.13-17.89Z" style="fill:#ffb400;"/><path d="M717.52,562.35c13.64-3.83,24.12-9,23.42-11.45L736.74,536c-4.52-17.69-6.26-25.88,1.94-42.14l.33-.53c.46-.84.89-1.72,1.32-2.6l0-.06a17.89,17.89,0,0,0,1.71-4.22c.07-.19.15-.38.22-.58a35.66,35.66,0,0,0,1.13-17.52,39.66,39.66,0,0,0-6.68-15.18,58,58,0,0,0-9.87-10.52,87.07,87.07,0,0,0-10.73-7.69,113.57,113.57,0,0,0-11.08-6,150.33,150.33,0,0,0-22.77-8.71,6.91,6.91,0,0,0-5.95,12.27l.1.07c3.17,2.25,6.39,4.37,9.52,6.55q2.37,1.61,4.67,3.24c1.54,1.08,3.08,2.15,4.57,3.26a123.09,123.09,0,0,1,16.19,13.67,42.5,42.5,0,0,1,5.54,7.08,18.28,18.28,0,0,1,2.39,6.28,13.25,13.25,0,0,1-.56,5.63,15.91,15.91,0,0,1-.78,2.09c-6.75,14.65-30.74,27.14-36.87,5.08-.19-.82-.38-1.63-.58-2.45,0-.08,0-.17,0-.26a29.49,29.49,0,0,0-.83-3.36c0-.2-.09-.4-.14-.59-1-3.88-2-7.8-3.13-11.82a94,94,0,0,0-4.33-12.38l-.09-.2a7.32,7.32,0,0,0-13.56.62,49.65,49.65,0,0,0-2.53,14.17,65.27,65.27,0,0,0,1,14.46,60.08,60.08,0,0,0,3.86,12.79,26,26,0,0,0,1.47,3.14l.06.12c.57,1.13,1.19,2.23,1.84,3.32,10.38,18.54,14.58,23,20.84,47.49l3.88,15C689.55,568,703.89,566.18,717.52,562.35Z" style="fill:#ff3a00;"/><path d="M689.53,496.43a18.35,18.35,0,0,1-7.72-6.78,17.56,17.56,0,0,1-1.2-2.37c-.34-.81-.61-1.71-.86-2.49l-.36-1.22c-.06-.19-.13-.43-.18-.64l-.15-.59c-.2-.77-.42-1.54-.67-2.29s-.46-1.66-.68-2.47l-.64-2.41c-.42-1.6-.76-3.23-1.11-4.86-.55-3.29-1.43-6.48-2-9.8a.37.37,0,0,1,.7-.22c.71,1.52,1.35,3.08,2,4.63s1.26,3.13,1.8,4.71,1,3.19,1.46,4.81l.6,2.43c.2.81.39,1.65.56,2.38s.41,1.7.56,2.55l.09.64c0,.2,0,.37.09.59l.21,1.21a11.2,11.2,0,0,0,.54,2.3,14.6,14.6,0,0,0,.92,2.16,18.58,18.58,0,0,0,6.48,6.95.45.45,0,0,1,.13.62A.46.46,0,0,1,689.53,496.43Z" style="fill:#04294f;"/><path d="M692.7,443a91.6,91.6,0,0,1,7.81,5.08c2.51,1.83,5,3.74,7.32,5.78a47.9,47.9,0,0,1,6.61,6.74,29.83,29.83,0,0,1,2.67,4c.19.35.37.7.55,1.07a5.79,5.79,0,0,1,.45,1.2,11,11,0,0,1,.38,2.4.36.36,0,0,1-.35.39.37.37,0,0,1-.34-.17h0c-.41-.66-.8-1.32-1.21-1.94-.21-.31-.4-.56-.62-.84s-.46-.59-.69-.88c-.93-1.18-1.92-2.3-2.93-3.41-2.05-2.19-4.17-4.31-6.44-6.35s-4.55-4.09-6.86-6.12-4.61-4.07-6.87-6.18a.45.45,0,0,1,0-.64A.46.46,0,0,1,692.7,443Z" style="fill:#04294f;"/><path d="M664.19,465.4c7,.54,6.28-9.4.77-10C658.87,454.75,656.89,464.83,664.19,465.4Z" style="fill:#04294f;"/><path d="M688.2,427.35c1-5.24-8.81-6.2-9.79-2.12C677.33,429.73,687.13,432.78,688.2,427.35Z" style="fill:#04294f;"/><path d="M672.86,481.59c-1.07.29-2.13.45-3.16.64l-3,.47c-1,.16-2,.33-3,.45s-2,.26-3.17.3h0a.4.4,0,0,1-.41-.39.37.37,0,0,1,.07-.25,7.16,7.16,0,0,1,2.8-2.15,11.05,11.05,0,0,1,3.33-.86,14.78,14.78,0,0,1,3.39,0,10.81,10.81,0,0,1,3.29.89.46.46,0,0,1-.07.87Z" style="fill:#04294f;"/><path d="M670.44,488.17a7.75,7.75,0,0,1-1.48.8,10.5,10.5,0,0,1-1.41.46,5.84,5.84,0,0,1-1.39.21,6.34,6.34,0,0,1-1.69-.21h-.05a.47.47,0,0,1-.35-.58h0a3,3,0,0,1,1.19-1.63,4.27,4.27,0,0,1,1.71-.65,5.38,5.38,0,0,1,1.79,0,4.14,4.14,0,0,1,1.73.71.52.52,0,0,1,.12.73.34.34,0,0,1-.12.12Z" style="fill:#04294f;"/><path d="M716.24,438.17a3.6,3.6,0,0,1-.18,1.15,2.82,2.82,0,0,1-.37.78,1.47,1.47,0,0,1-.58.52,4.73,4.73,0,0,1-1.18.33l-.08,0a.63.63,0,0,1-.61-.24,1.82,1.82,0,0,1-.36-1.44,2,2,0,0,1,.55-1.07,2.59,2.59,0,0,1,1-.65,2.42,2.42,0,0,1,1.31-.12.61.61,0,0,1,.53.61Z" style="fill:#04294f;"/><path d="M720.27,441.3a16.71,16.71,0,0,1-1.34,2.15c-.46.66-.94,1.29-1.42,1.89a22.76,22.76,0,0,1-1.47,1.78,17.1,17.1,0,0,1-1.82,1.72l0,0a.43.43,0,0,1-.59-.07.53.53,0,0,1-.08-.17,5.1,5.1,0,0,1,.29-2.83,8,8,0,0,1,1.44-2.32,10.65,10.65,0,0,1,2-1.77,7.67,7.67,0,0,1,2.48-1.12.48.48,0,0,1,.58.36.47.47,0,0,1,0,.33Z" style="fill:#04294f;"/><path d="M723.29,446a6.6,6.6,0,0,1-.6,1.51,8.63,8.63,0,0,1-.75,1.19,4.92,4.92,0,0,1-.91,1,6.22,6.22,0,0,1-1.41.84l0,0a.49.49,0,0,1-.64-.24,2.77,2.77,0,0,1-.13-1.95,4.05,4.05,0,0,1,.88-1.52,5.11,5.11,0,0,1,1.35-1.05,4,4,0,0,1,1.73-.49.54.54,0,0,1,.56.51.39.39,0,0,1,0,.15Z" style="fill:#04294f;"/><ellipse cx="713.85" cy="555.4" rx="21.17" ry="4.18" transform="matrix(0.96, -0.27, 0.27, 0.96, -125.13, 217.53)" style="fill:#04294f;"/><ellipse cx="713.85" cy="555.4" rx="4.66" ry="1.71" transform="translate(-125.13 217.53) rotate(-15.95)" style="fill:#fff;"/><path d="M656.89,463a66,66,0,0,0,.05,13.62c.23,2.26.54,4.52,1,6.72s1.15,4.36,1.88,6.49c.35,1.07.73,2.12,1.15,3.17s.82,2.05,1.29,3.14c.2.51.43,1,.66,1.49l.77,1.49c.5,1,1,2,1.59,3a118.22,118.22,0,0,1,6,12.5.38.38,0,0,1-.21.48.36.36,0,0,1-.42-.12,120.16,120.16,0,0,1-7.76-11.42c-.61-1-1.2-2-1.75-3.06l-.41-.76-.4-.81c-.26-.55-.5-1.1-.72-1.67-.42-1-.89-2.14-1.26-3.25s-.73-2.24-1-3.37a51,51,0,0,1-1.36-6.9,65.82,65.82,0,0,1-.68-7A58.65,58.65,0,0,1,656,462.9a.44.44,0,0,1,.52-.36A.45.45,0,0,1,656.89,463Z" style="fill:#04294f;"/><path d="M733.48,521.25c3.74,2.55,8.5-1.21,12.15-4.77,3.94-3.86,7.93-9.93,4.07-13.88C744.86,497.29,727,514.8,733.48,521.25Z" style="fill:#04294f;"/><path d="M749.7,502.6l-53.48-54.79-17.13,17.88,53.48,54.79a6.31,6.31,0,0,0,.91.77C727,514.8,744.86,497.29,749.7,502.6Z" style="fill:#ffb400;"/><path d="M738.8,516.42c1.57,1.08,3.57-.51,5.1-2s3.33-4.17,1.72-5.83C743.58,506.37,736.09,513.72,738.8,516.42Z" style="fill:#00aee0;"/><path d="M649.85,409.14l-8.92-1.62a1.8,1.8,0,0,0-2.25,2.28l2.16,7.86C642.3,415.05,645.27,410.84,649.85,409.14Z" style="fill:#00aee0;"/><path d="M659.5,410.88l-9.65-1.74c-4.58,1.7-7.55,5.91-9,8.52L644,429.12A35.26,35.26,0,0,1,661.23,412,4.21,4.21,0,0,0,659.5,410.88Z" style="fill:#04294f;"/><path d="M741.82,498.76a30.47,30.47,0,0,0-3.6,2.85q-1.68,1.53-3.21,3.2c-1,1.11-2,2.26-2.94,3.44s-1.84,2.36-2.77,3.69v0a.38.38,0,0,1-.69-.21,11.27,11.27,0,0,1,.07-1.29,10.74,10.74,0,0,1,.28-1.25,12.45,12.45,0,0,1,.94-2.37,17.06,17.06,0,0,1,3-4,19.7,19.7,0,0,1,3.92-3.12,11.94,11.94,0,0,1,4.74-1.76.47.47,0,0,1,.5.41.45.45,0,0,1-.2.43Z" style="fill:#04294f;"/></svg>