<?xml version="1.0" encoding="utf-8"?>
<!-- Generator: Adobe Illustrator 23.0.2, SVG Export Plug-In . SVG Version: 6.00 Build 0)  -->
<svg version="1.1" id="unsubscribed" xmlns="http://www.w3.org/2000/svg" xmlns:xlink="http://www.w3.org/1999/xlink" x="0px" y="0px" viewBox="0 0 800 836.3" style="enable-background:new 0 0 800 836.3;" xml:space="preserve">

<g>
	<g>
		<path d="M800,415.9c0-80.2-35.5-152.2-92-201.6c-17.6-15.4-29.7-35.9-35.5-58.5C649.4,66.3,566.9,0,468.7,0
			c-48.4-0.1-95.3,16.3-133,46.6c-21.2,17.1-48,26-75.4,25.9h-0.5C116.4,72.6,0.1,191.4,0.1,338c0,83.2,37.5,157.4,96.1,206.1
			c28.7,23.7,44.4,59.6,42.2,96.8c-0.2,2.8-0.3,5.7-0.3,8.6c0,103.2,114.8,186.8,256.4,186.8c121.2,0,222.7-61.3,249.5-143.7
			c7.7-23.6,23-44.1,43.4-58.7C755.6,584.8,800,505.5,800,415.9z" style="fill:#10294C;"/>
		<path d="M329.7,377.1c-7-3.8,0-13.7,5.5-10.4C340.7,370.1,338.8,382,329.7,377.1z" style="fill:#F04E23;"/>
		<path d="M501.5,446.8c7.1-3.6,11.2,7.9,5.3,10.4C500.9,459.8,492.2,451.5,501.5,446.8z" style="fill:#F04E23;"/>
		<path d="M344,401.7c-4.3-4.5,1.6-12.2,4.8-6.2C352,401.6,347.6,405.4,344,401.7z" style="fill:#F04E23;"/>
		<path d="M525.8,404c4,4.4-2.3,10.1-5.1,4.5C517.9,403,522.5,400.4,525.8,404z" style="fill:#F04E23;"/>
		<path d="M453.6,321.4c-5.3,2.8-9.2-6.3-3.1-7.7S457.9,319.2,453.6,321.4z" style="fill:#F04E23;"/>
		<circle cx="687.6" cy="550.8" r="3.8" style="fill:#FFB400;"/>
		<circle cx="607.5" cy="617.3" r="3.8" style="fill:#FFB400;"/>
		<circle cx="70.1" cy="437.2" r="3.8" style="fill:#FFB400;"/>
		<circle cx="204.5" cy="452.9" r="3.8" style="fill:#FFB400;"/>
		<circle cx="59.9" cy="283.7" r="3.8" style="fill:#FFB400;"/>
		<circle cx="332.5" cy="107" r="3.8" style="fill:#FFB400;"/>
		<circle cx="360.2" cy="76.8" r="3.8" style="fill:#FFB400;"/>
		<circle cx="178.5" cy="591.9" r="3.8" style="fill:#FFB400;"/>
		<circle cx="659.2" cy="254" r="3.8" style="fill:#FFB400;"/>
		<circle cx="560.4" cy="76.8" r="3.8" style="fill:#FFB400;"/>
		<circle cx="757.1" cy="393.3" r="3.8" style="fill:#FFB400;"/>
		<circle cx="577.4" cy="575.8" r="3.8" style="fill:#FFB400;"/>
		<circle cx="673.3" cy="528.8" r="6" style="fill:#FFB400;"/>
		<circle cx="679.3" cy="235.4" r="6" style="fill:#FFB400;"/>
		<circle cx="643.4" cy="131.7" r="6" style="fill:#FFB400;"/>
		<circle cx="361.2" cy="159.3" r="6" style="fill:#FFB400;"/>
		<circle cx="194.4" cy="545.9" r="6" style="fill:#FFB400;"/>
		<circle cx="70.8" cy="466.8" r="6" style="fill:#FFB400;"/>
		<circle cx="261.2" cy="357.1" r="6" style="fill:#FFB400;"/>
		<circle cx="112.3" cy="185.3" r="3.8" style="fill:#FFB400;"/>
		<circle cx="121.1" cy="157.7" r="6" style="fill:#FFB400;"/>
	</g>
	<g>
		<ellipse transform="matrix(0.866 -0.5 0.5 0.866 -250.9787 451.2234)" cx="716.5" cy="693.9" rx="41.4" ry="35.9" style="fill:#10294C;"/>
		<circle cx="699" cy="703.1" r="6" style="fill:#FFB400;"/>
		<circle cx="714.8" cy="684.4" r="3.8" style="fill:#FFB400;"/>
	</g>
	<g>
		<ellipse transform="matrix(0.866 -0.5 0.5 0.866 22.1422 383.6813)" cx="727" cy="150.5" rx="30.6" ry="34.3" style="fill:#10294C;"/>
		<circle cx="716" cy="155.6" r="3.8" style="fill:#FFB400;"/>
	</g>
	<g>
		
			<ellipse transform="matrix(0.9598 -0.2807 0.2807 0.9598 -170.2045 42.171)" cx="62.1" cy="615.3" rx="47.9" ry="55.3" style="fill:#10294C;"/>
		<circle cx="100.5" cy="719" r="22.6" style="fill:#10294C;"/>
		<circle cx="57.6" cy="616" r="3.8" style="fill:#FFB400;"/>
		<circle cx="84.7" cy="628" r="6" style="fill:#FFB400;"/>
	</g>
	<g>
		<path d="M537.9,727.7c-11.9-11.5-25.2-21.2-39.2-30.2c-7.2-4.6-14.8-8.8-22.4-12.6c-7.4-3.8-15.1-7.2-22.8-10.2
			c-7.8-3.1-15.8-5.6-24-7.7c-1.5-0.4-3-0.7-4.6-1c-2.2-0.6-4.5-0.9-6.7-1c-6.1,0.3-10.8,5.5-10.6,11.6c0,0.4,0.1,0.8,0.1,1.2
			c0.7,4.4,4.4,7.4,7.5,10.3c7.4,6.9,15,13.6,22.7,20.2l17.9,15.4c4.8,4.1,9.6,8.2,14.3,12.3c9.9,8.7,19.6,17.5,29.6,26.1
			c2.3,2.2,4.9,4.1,7.5,5.9c8,4.7,17.8,4.7,25.8,0c11.2-6.7,15.5-20.8,10.1-32.7C542,732.4,540.2,729.8,537.9,727.7z" style="fill:#FDB813;"/>
		<path d="M592.6,659.2c-14-5.6-28.9-8.8-43.9-10.7c-15.4-1.9-31-2.7-46.5-2.2c-12.3,0.3-24.7,1.3-36.9,3
			c-7.6,1-15.1,2.4-22.5,4.2c-3,0.7-5.6,1.7-7.2,4.4c-2.5,4.1-1.2,9.5,2.9,12c0.8,0.5,1.7,0.8,2.6,1c3.5,0.8,7.1,1.3,10.6,1.8
			c3.8,0.6,7.6,1.2,11.4,1.8c7.5,1.1,15.1,2.3,22.7,3.4c13.1,1.9,26.1,4,39.1,6.2c14.2,2.4,28.3,5.7,42.2,9.8
			c3.5,1,6.9,2.1,10.3,3.3c2.4,0.9,4.9,1.4,7.4,1.4c11.2,0.1,20.4-9,20.5-20.2C605.4,669.9,600.4,662.3,592.6,659.2L592.6,659.2z" style="fill:#FDB813;"/>
		<path d="M366.2,778.5c-0.8-12,0.3-24.3,1.6-36.2c1.3-12,3.3-23.9,6.1-35.6c1.4-5.8,3-11.5,4.9-17.1
			c1-2.8,2-5.6,3.2-8.4c0.8-2.1,2-4,3.5-5.6c3-2.9,7.1-4.1,11.2-3.5c4.5,0.8,8.3,3.9,10,8.1c4.8,10.8,7.9,22.5,10.2,34.1
			c2.4,11.9,4.1,23.9,5.2,36c0.5,5.9,0.9,11.9,1,17.9c0.1,5.2,0.3,10.6-1,15.6c-3.9,15.2-19.4,24.4-34.6,20.5
			c-9.8-2.5-17.5-10-20.3-19.6C366.7,782.6,366.4,780.6,366.2,778.5z" style="fill:#FDB813;"/>
		<path d="M251.3,727.7c11.9-11.5,25.2-21.3,39.2-30.2c7.2-4.6,14.8-8.8,22.4-12.6c7.4-3.8,15.1-7.2,22.8-10.2
			c7.8-3.1,15.8-5.6,24-7.7c1.5-0.4,3-0.7,4.6-1c2.2-0.6,4.5-0.9,6.7-1c6.1,0.3,10.8,5.5,10.6,11.6c0,0.4-0.1,0.8-0.1,1.2
			c-0.7,4.4-4.4,7.4-7.5,10.3c-7.4,6.9-15,13.6-22.7,20.2l-17.9,15.4c-4.8,4.1-9.6,8.2-14.3,12.3c-9.9,8.8-19.7,17.6-29.7,26.1
			c-2.3,2.2-4.9,4.1-7.5,5.9c-8,4.7-17.8,4.7-25.8,0c-11.2-6.7-15.5-20.8-10.1-32.7C247.3,732.3,249.1,729.8,251.3,727.7z" style="fill:#FDB813;"/>
		<path d="M196.6,659.2c14-5.6,28.9-8.8,43.9-10.7c15.4-1.9,31-2.7,46.5-2.2c12.3,0.3,24.7,1.3,36.9,3
			c7.6,1,15.1,2.4,22.5,4.2c3,0.7,5.6,1.7,7.2,4.4c2.5,4.1,1.2,9.5-2.9,12c-0.8,0.5-1.7,0.8-2.6,1c-3.5,0.8-7.1,1.3-10.6,1.8
			c-3.8,0.6-7.6,1.2-11.4,1.8c-7.6,1.1-15.1,2.3-22.7,3.4c-13.1,1.9-26.1,4-39.1,6.2c-14.2,2.4-28.3,5.7-42.2,9.8
			c-3.5,1-6.9,2.1-10.3,3.3c-2.4,0.9-4.9,1.4-7.4,1.4c-11.2,0.1-20.4-9-20.5-20.2C183.8,669.9,188.9,662.3,196.6,659.2L196.6,659.2z
			" style="fill:#FDB813;"/>
		<path d="M511.6,757.5c3.5,5,12,6.7,18.4,2.1c6.4-4.5,8.4-13.6,4.9-18.5c-3.5-5-11.5-5.3-18-0.8
			C510.5,744.8,508.1,752.6,511.6,757.5z" style="fill:#10294C;"/>
		<path d="M582.6,690.2c3.5,1.6,10.4-1.4,13.3-7.6c2.9-6.2,0.9-13.2-2.6-14.8c-3.5-1.7-8.7,2-11.7,8.2
			C578.7,682.2,579.1,688.6,582.6,690.2z" style="fill:#10294C;"/>
		<path d="M522.8,757.8c-0.4,0-0.8,0-1.2-0.1c-2.1-0.3-4-1.4-5.2-3l0,0c-2.3-3.3-1-8.2,3-11c1.7-1.3,3.8-1.9,6-1.8
			c2.1,0,4.1,1.1,5.4,2.8c1.2,1.8,1.5,4.1,0.9,6.1c-0.5,2.2-1.8,4.1-3.7,5.4C526.4,757.2,524.6,757.8,522.8,757.8z M520.3,751.8
			c0.5,0.6,1.2,1,1.9,1c1,0.1,2-0.1,2.8-0.7c0.9-0.6,1.5-1.6,1.8-2.6c0.2-0.7,0.2-1.5-0.2-2.2c-0.4-0.5-1-0.7-1.6-0.7
			c-1.1,0-2.1,0.3-3,1C520.2,748.9,519.7,750.9,520.3,751.8z" style="fill:#FDB813;"/>
		<path d="M592.4,675.4c-0.1,0.9-0.2,1.7-0.6,2.6c-0.3,0.8-0.6,1.6-1,2.3c-0.4,0.7-0.9,1.4-1.4,2.1
			c-0.5,0.7-1.2,1.3-1.9,1.8c-0.7,0.5-1.7,0.3-2.3-0.4c-0.2-0.3-0.3-0.7-0.3-1.1c0.1-0.9,0.3-1.7,0.6-2.6c0.3-0.8,0.7-1.5,1.1-2.3
			c0.4-0.7,0.9-1.4,1.5-2.1c0.6-0.7,1.2-1.3,1.9-1.8c0.7-0.5,1.7-0.3,2.2,0.4c0,0,0,0,0,0C592.3,674.7,592.4,675.1,592.4,675.4z" style="fill:#FDB813;"/>
		<path d="M541.1,613.1c-0.7-1-2.1-1.3-3.1-0.6c0,0,0,0,0,0l-0.2,0.2c-1.7,1.2-3.5,2.3-5.3,3.3c-3,1.6-4.5-0.2-2.8-6.1
			l0.1-0.5c0.1-0.3,0.2-0.6,0.3-0.9c0-0.1,0-0.2,0.1-0.2c3.8-11.8,5.8-24,5.9-36.4c0.1-2-0.1-3.9-0.1-5.9
			c-0.3-7.7-1.9-15.3-4.6-22.4c-0.5-1.1-1.7-1.7-2.9-1.3c-0.6,0.2-1.1,0.7-1.3,1.4l-0.1,0.3c-1.8,5.2-3.9,10.3-6.5,15.2
			c-4,6.9-14.1,6.5-12.5-9.2l0,0c0.5-3.8,0.7-7.7,1.2-11.8c0.5-5,1.1-10.3,2-15.8c0.9-5.5,1.8-11.3,2.9-17.3s2.4-12.3,3.5-19v-0.2
			c0.1-0.3,0-0.7-0.1-1c-0.4-1-1.5-1.5-2.5-1.2c-5.6,2.1-10.9,5-15.7,8.6l0,0l0,0c-0.8,0.6-1.6,1.2-2.3,1.8l-0.3,0.3
			c-7.4,4.9-11.5,1.3-11.1-9.5c0-0.1,0-0.3,0-0.4l0.2-2.4c0-0.3,0-0.5,0-0.7l0.2-3.1c0-0.5,0.1-1,0.1-1.5v-1.6l-0.1-3.1l-0.1-3.1
			c0-1-0.2-2-0.3-3c-0.2-2-0.4-4-0.8-6c-0.4-2-0.7-3.9-1.1-5.9c-0.4-1.9-1-3.8-1.6-5.7c-0.5-1.8-1.2-3.7-1.9-5.5
			c-2.6-7.2-6.4-14-11.1-20c-0.4-0.5-1-0.8-1.7-0.8c-1.2,0-2.2,1-2.2,2.2v0.3c-0.1,6.8-0.8,13.5-2.3,20.1c-0.3,1.4-0.6,2.7-1,4.1
			c-1.9,8.3-8.8,6.6-9.9-1.2c-0.5-4.3-1.1-8.8-1.4-13.6c-0.5-5.6-0.9-11.4-1.1-17.5c-0.3-6.1-0.5-12.5-1-19.3V397
			c-0.1-1.1-1-1.9-2.1-1.8c-0.3,0-0.6,0.1-0.9,0.3c-5.8,3.9-11,8.7-15.3,14.3c-3.9,5.3-8.9,4.9-9.3-2.6c-0.3-7.9-0.2-15.8,0.4-23.7
			c0.7-8.8,1.9-18.2,3.7-28.3l0.1-0.4c0.1-0.5,0.1-0.9-0.1-1.4c-0.5-1.7-2.2-2.7-4-2.3c-1.5,0.4-2.7,0.8-4.1,1.3
			c-1.3,0.5-2.6,1-3.9,1.6c-2.5,1.1-5,2.4-7.4,3.7c-4.7,2.8-9.2,6-13.4,9.6c-8.5,7.4-15.6,16.2-21.2,26c-5.8,10.1-9.9,21-12.2,32.3
			c-0.6,3.3-1.1,6.5-1.4,9.8l0,0c-1.9,19.8-9.4,14.4-16.9,7l0,0c-3.8-4.6-8.4-8.5-13.6-11.5c-0.4-0.2-0.8-0.3-1.3-0.4
			c-1.8-0.1-3.3,1.1-3.5,2.9l0,0.5c-0.7,7.7-1.4,14.6-2.3,21c-0.9,6.4-1.9,12.3-3.2,17.9c-1,4.3-1.9,8.4-3,12.4
			c-2.6,9-6.1,9.2-9.5,7l-0.1-0.1c-0.2-0.1-0.4-0.3-0.7-0.5l0,0c-3.9-2.6-8.2-4.6-12.6-6c-0.5-0.1-1-0.2-1.4,0
			c-1.5,0.3-2.4,1.8-2.1,3.4l0.1,0.4c1.7,7.3,3.2,14,4.3,20.4c1.1,6,1.9,12,2.4,18.1c0.4,5.8,0.8,11.3,0.8,16.7
			c0.2,2.2,0.1,4.4,0.1,6.7l0,0c0.8,19.2-9.8,22.5-10.9,8.4l0,0c0-0.5-0.1-1-0.1-1.6c-0.1-0.9-0.1-1.8-0.1-2.7s-0.1-1.8-0.2-2.7
			l0-0.5c-0.2-1.3-1.4-2.3-2.7-2.1c-0.4,0.1-0.8,0.2-1.1,0.5c-0.9,0.7-1.6,1.3-2.3,2s-1.4,1.4-2.1,2.1c-1.4,1.5-2.6,3-3.8,4.6
			c-2.3,3.3-4.3,6.8-5.8,10.5c-3.2,7.7-4.9,15.9-4.9,24.2c0,1.1,0,2.1,0.1,3.2l0,0l0,0c0,0.6,0.1,1.3,0.1,1.9
			c0.2,5.1-1.8,6.4-4.4,3.3l0,0l-0.8-1c-0.6-0.7-1.1-1.4-1.6-2.1s-1.1-1.4-1.6-2.1l-0.2-0.3c-0.3-0.4-0.7-0.6-1.2-0.7
			c-1.2-0.3-2.3,0.5-2.6,1.6c0,0,0,0,0,0c-0.2,1.1-0.4,2-0.5,3s-0.2,1.9-0.3,2.9c-0.1,1.9-0.1,3.9,0,5.9c0.3,3.9,0.9,7.8,2,11.6
			c2.2,7.9,6,15.2,11,21.6c3.5,4.4,7.5,8.4,12.1,11.7c21.7,20,58.8,34.9,101.9,38.6c20.4,1.9,41.1,0.8,61.2-3.2l0,0h0.1l0.2,0
			c29.8-5.7,56-19,74.4-33.5l1.9-1.4c0.8-0.6,1.6-1.3,2.3-1.9c1.5-1.3,3.1-2.6,4.5-4.1c1.4-1.4,2.8-2.8,4.2-4.3s2.6-3,3.8-4.5
			c1-1.2,1.9-2.4,2.8-3.7l0,0l0,0c0.2-0.3,0.5-0.6,0.7-1c4.5-6.2,7.9-13.2,10.2-20.5C541.5,614.4,541.5,613.7,541.1,613.1z" style="fill:#F04E23;"/>
		<path d="M481.1,613.5c-0.8-1-2.3-1.2-3.3-0.4l-0.3,0.2c-0.7,0.5-1.5,1.2-2.3,1.8s-1.5,1.2-2.3,1.7
			c-1.5,1.1-3,2.3-4.5,3.3c-1.5,1-3,2.1-4.6,3.1c-9.4,4.5-19.4-0.6-14.8-9.1l0,0c0.4-0.6,0.8-1.2,1.2-1.8c0.9-1.6,1.7-3.3,2.6-4.9
			c3.2-6.4,5.6-13.2,7.1-20.1c1.5-6.8,2.3-13.7,2.3-20.6c0.1-6.9-0.9-13.8-2.8-20.4c-0.1-0.4-0.4-0.6-0.7-0.8
			c-0.7-0.4-1.6-0.1-2,0.5l0,0.1c-2.8,4.8-5.5,9.4-8.2,13.9c-3.4,5.5-6.8,1.2-6.8-3.8c0.1-3.8,0.3-7.7,0.7-11.6
			c0.5-5.8,1.1-11.9,1.9-18.2c0.8-6.3,1.7-12.8,2.6-19.7v-0.1c0-0.4,0-0.7-0.2-1c-0.5-0.9-1.7-1.3-2.6-0.8c-3.4,1.7-6.6,3.7-9.6,6
			c-1.5,1.1-2.9,2.3-4.3,3.4c-1.4,1.2-2.7,2.4-4.1,3.7c-1.5,1.4-2.9,2.9-4.3,4.5c-0.1,0.1-0.2,0.2-0.3,0.3
			c-5.3,6.5-11.5,5.8-12.8-1.7l0,0l-2.8-16.2c-1.8-10.3-3.5-20.8-6-31.6V473c-0.2-0.8-0.7-1.4-1.4-1.8c-1.4-0.8-3.2-0.4-4.2,0.9
			c-1.6,2.4-3.1,4.9-4.5,7.5c-0.7,1.3-1.3,2.5-2,3.8l-1.8,3.9c-1.2,2.6-2.2,5.2-3.3,7.8c-0.5,1.3-1,2.6-1.4,4
			c-0.5,1.3-0.9,2.7-1.3,4c-3.4,10.7-5.6,21.7-6.8,32.8c0,0.6-0.1,1.1-0.1,1.7c-0.6,7.7-5.7,4.3-10.2,0.5c0,0-0.1,0-0.1-0.1
			c-0.5-0.4-0.9-0.9-1.4-1.3c-2-1.7-4.1-3.4-6.2-4.9c-2.2-1.6-4.6-3-7-4.2c-0.6-0.3-1.3-0.4-2-0.3c-1.6,0.2-2.7,1.7-2.5,3.2
			c0,0,0,0.1,0,0.1l0.1,0.3c2,9.2,3.6,18.1,4.6,26.5c0.3,2.1,0.5,4.2,0.7,6.2l0,0c0.6,7.6-2.1,8.2-7.9,4.9h0c-1-0.7-2.1-1.3-3.2-2
			c-1.8-1.1-3.7-2-5.7-2.9c-1-0.4-2-0.8-3-1.2c-1-0.4-2-0.7-3.1-1c-0.5-0.1-1.1-0.1-1.6,0.1c-1.1,0.4-1.7,1.7-1.3,2.8
			c0,0,0,0.1,0.1,0.1l0.1,0.2c3.1,6.9,5.9,13.5,8.1,19.8c2.2,6.1,4,12.4,5.5,18.7c0.7,3.2,1.3,6.3,1.8,9.4c1.1,7.9-0.9,13.4-7.2,8.9
			c-0.6-0.5-1.2-1-1.9-1.5l0,0l-0.1-0.1c-0.6-0.5-1.3-1.1-1.9-1.6c-2.6-2.2-5.2-4.6-7.7-7.2c-1.3-1.3-2.5-2.6-3.9-4
			c-0.7-0.7-1.3-1.4-1.9-2.1s-1.3-1.4-1.9-2.1l-0.3-0.3c-1-0.9-2.6-0.8-3.4,0.2c-0.2,0.3-0.4,0.5-0.5,0.9c-0.2,1.1-0.3,2.1-0.4,3.1
			c-0.1,1-0.1,2-0.2,3c0,2,0.1,4.1,0.3,6.1c0.5,4.1,1.4,8.1,2.7,12c2.9,8.2,7.4,15.7,13.2,22c6.2,6.7,13.6,12.2,21.9,16.2
			c1.7,0.8,3.5,1.5,5.3,2.2l0,0l0.2,0.1c3.6,1.4,7.4,2.5,11.2,3.3c33.1,8.1,64,1.6,74-2.7l0,0c7.6-2.6,14.8-6.4,21.1-11.4
			c6.9-5.3,12.7-12,17.1-19.6c2-3.6,3.7-7.4,4.9-11.4c0.6-2,1.1-3.9,1.4-5.9c0.2-1,0.3-2,0.4-3s0.1-2,0.1-3.1
			C481.5,614.3,481.4,613.8,481.1,613.5z" style="fill:#FFFFFF;"/>
		<ellipse cx="394.6" cy="778.6" rx="19" ry="16.5" style="fill:#10294C;"/>
		<path d="M277.7,757.5c-3.5,5-12,6.7-18.4,2.1c-6.4-4.5-8.4-13.6-4.9-18.5c3.5-5,11.5-5.3,18-0.8
			C278.8,744.8,281.2,752.6,277.7,757.5z" style="fill:#10294C;"/>
		<path d="M206.6,690.2c-3.5,1.6-10.4-1.4-13.3-7.6s-0.9-13.2,2.6-14.8c3.5-1.7,8.7,2,11.7,8.2
			C210.6,682.2,210.1,688.6,206.6,690.2z" style="fill:#10294C;"/>
		<path d="M394.6,789.2c-6.6,0-11.9-4.8-11.9-10.6c0-5.9,5.3-10.6,11.9-10.6c6.6,0,11.9,4.8,11.9,10.6
			C406.5,784.5,401.2,789.2,394.6,789.2z M394.6,772.9c-3.9,0-7,2.6-7,5.7c0,3.2,3.1,5.7,7,5.7s7-2.6,7-5.7
			C401.6,775.4,398.5,772.9,394.6,772.9z" style="fill:#FDB813;"/>
		<path d="M266.5,757.8c-1.8,0-3.6-0.6-5.1-1.6c-3.8-2.7-5.1-8.2-2.8-11.6c1.3-1.7,3.2-2.7,5.4-2.8
			c4.4-0.1,8.3,2.7,9.7,6.9c0.7,2,0.4,4.2-0.8,6c-1.2,1.7-3.1,2.8-5.2,3C267.3,757.7,266.9,757.8,266.5,757.8z M264.4,746.7h-0.2
			c-0.6,0-1.2,0.2-1.6,0.7c-0.7,1-0.3,3.5,1.6,4.8c0.8,0.6,1.8,0.8,2.8,0.7c0.8-0.1,1.4-0.4,1.9-1l0,0c0.3-0.5,0.4-1.2,0.1-1.7
			c-0.3-1-1-1.9-1.9-2.4C266.3,747.1,265.4,746.7,264.4,746.7L264.4,746.7z" style="fill:#FDB813;"/>
		<path d="M199.3,674c0.7,0.5,1.4,1.1,1.9,1.8c0.5,0.6,1,1.3,1.4,2.1c0.4,0.7,0.8,1.5,1.1,2.3c0.3,0.8,0.5,1.7,0.6,2.6
			c0.1,0.9-0.6,1.7-1.5,1.8c-0.4,0-0.8-0.1-1.1-0.3c-0.7-0.5-1.4-1.1-1.9-1.8c-0.5-0.7-1-1.3-1.4-2.1c-0.4-0.7-0.8-1.5-1-2.3
			c-0.3-0.8-0.5-1.7-0.6-2.6c0-0.8,0.6-1.6,1.5-1.6C198.7,673.8,199,673.8,199.3,674z" style="fill:#FDB813;"/>
		<path d="M413.6,638.6c1.4-1.6,3-3.2,4.4-4.8s3-3.3,4.5-4.8c0.8-0.8,1.5-1.6,2.3-2.3l1.2-1.2c0.2-0.2,0.4-0.4,0.6-0.6
			c1.3-1.2,3.1-1.5,4.8-0.9c1.6,0.6,2.8,2.2,2.9,3.9l0.1,0.9c0,0.6,0.1,1.2,0.1,1.7c0,2.3-0.1,4.6-0.4,6.9c-0.3,2.3-0.7,4.5-1.3,6.7
			c-1.1,4.4-2.7,8.7-5,12.6c-0.4,0.7-1.3,1-2,0.6c-0.7-0.4-0.9-1.2-0.7-1.8l0,0c1.4-4,2.5-8.1,3.3-12.3c0.8-4.1,1.2-8.3,1.1-12.5
			c0-0.5,0-1,0-1.6l0-0.8c0,0,0,0,0,0.1c0,0.1,0.1,0.1,0.2,0.1c0,0,0,0,0,0v0l-0.6,0.5l-1.2,1.1c-0.8,0.7-1.6,1.5-2.4,2.2
			c-1.6,1.5-3.3,2.9-4.9,4.3c-1.7,1.4-3.4,2.8-5.2,4.2c-0.6,0.5-1.5,0.4-2-0.2c-0.4-0.5-0.4-1.3,0.1-1.8L413.6,638.6z" style="fill:#F04E23;"/>
		<path d="M372.6,578.3c0.5-1,0.9-2,1.2-3.1c0.4-1.1,0.7-2.2,1.1-3.3l1-3.4c0.2-0.6,0.4-1.2,0.6-1.7l0.3-0.9l0.1-0.4
			l0.1-0.2v-0.1l0-0.1l0.1-0.2c0.3-0.5,0.7-1,1.2-1.3c0.4-0.3,0.8-0.4,1.3-0.5c0.8-0.2,1.7-0.1,2.4,0.3c0.4,0.2,0.8,0.5,1.1,0.8
			l0.3,0.4c0.2,0.3,0.4,0.5,0.6,0.8c0.8,1.1,1.5,2.2,2,3.5c0.6,1.2,1,2.4,1.3,3.7c0.3,1.3,0.5,2.6,0.5,3.9c0,0.8-0.7,1.5-1.5,1.5
			c-0.6,0-1.2-0.4-1.4-1l0,0c-0.7-2.1-1.7-4.1-2.8-6c-0.6-0.9-1.2-1.8-1.9-2.6l-0.5-0.6l-0.2-0.3c0.1,0.1,0.2,0.2,0.4,0.3
			c0.2,0.1,0.4,0.1,0.6,0.1c0.4-0.1,0.8-0.4,1-0.8c0,0,0-0.1,0.1-0.1v0l0,0l0,0.1l-0.1,0.2l-0.2,0.4l-0.3,0.8
			c-0.2,0.6-0.4,1.1-0.6,1.7l-0.7,1.7c-0.2,0.6-0.5,1.2-0.7,1.7c-0.5,1.2-1.1,2.3-1.8,3.4c-0.7,1.1-1.5,2.2-2.4,3.1
			c-0.6,0.5-1.5,0.5-2-0.1c-0.4-0.4-0.5-1-0.3-1.6L372.6,578.3z" style="fill:#F04E23;"/>
		<path d="M357.5,604.1c0.1-1.9,0.1-3.9-0.2-5.8c-0.2-2-0.5-4-0.8-6l-1-6.2c-0.1-0.5-0.1-1.1-0.2-1.6l-0.1-0.8v-0.2
			v-0.3c0-0.3,0-0.6,0.1-0.9c0.2-1.2,1-2.2,2-2.8c1-0.6,2.2-0.8,3.4-0.5c0.3,0.1,0.6,0.2,0.8,0.3c0.2,0.1,0.4,0.2,0.6,0.4l0.7,0.5
			c0.4,0.3,0.9,0.7,1.3,1c0.8,0.7,1.6,1.4,2.4,2.2c1.6,1.5,3,3.1,4.4,4.7c1.4,1.7,2.7,3.4,3.8,5.3c1.2,1.9,2.1,3.9,2.8,6
			c0.2,0.8-0.2,1.6-1,1.8c-0.7,0.2-1.4-0.1-1.7-0.7l0,0c-2-3.4-4.4-6.6-7.2-9.5c-1.4-1.4-2.8-2.9-4.3-4.2c-0.8-0.7-1.5-1.3-2.3-1.9
			c-0.4-0.3-0.8-0.6-1.2-0.9l-0.6-0.4c-0.1-0.1-0.1,0,0,0h0.1c0.3,0.1,0.5-0.1,0.6-0.4c0,0,0,0,0,0c0,0,0-0.1,0-0.1v0.1v0.2l0.1,0.7
			l0.2,1.5c0.2,2,0.5,4.1,0.7,6.2c0.2,2.1,0.3,4.2,0.3,6.4c0,2.2-0.3,4.5-0.9,6.6c-0.2,0.7-1,1.1-1.8,0.9
			C357.8,605.5,357.4,604.9,357.5,604.1L357.5,604.1z" style="fill:#F04E23;"/>
		<path d="M394.4,415.8L394.4,415.8L394.4,415.8z" style="fill:none;"/>
		<polygon points="348,473 348,473 348,473 		" style="fill:none;"/>
		<polygon points="283.4,603.7 283.4,603.7 283.4,603.6 283.4,603.7 		" style="fill:none;"/>
		<path d="M360,485c-0.8-2.4-1.7-4.7-2.9-6.9c-1.1-2.3-2.4-4.4-4-6.4c-0.4-0.5-0.8-1-1.2-1.5l-0.3-0.4l-0.1-0.1
			l-0.2-0.2c-0.1-0.1-0.3-0.2-0.4-0.3c-0.6-0.4-1.2-0.7-1.9-0.8c-2.2-0.3-4.2,1-4.7,3.2c-0.1,0.2-0.1,0.4-0.1,0.6l-0.1,0.4l-1.1,7.1
			c-0.3,2.4-0.7,4.7-1,7c-0.3,2.3-0.7,4.6-1.2,6.9c-0.4,2.3-1,4.5-1.7,6.7l0,0c-0.3,0.7,0.1,1.5,0.9,1.8c0.7,0.2,1.4,0,1.7-0.7
			c1.2-2.2,2.1-4.5,2.8-6.9c0.7-2.3,1.4-4.7,1.9-7.1c1-4.6,1.7-9.1,2.5-13.6l0.6,0.7c1.4,1.8,2.7,3.6,3.8,5.6
			c2.3,4,4.2,8.2,5.6,12.7l0,0c0.3,0.8,1.1,1.2,1.9,0.9c0.7-0.2,1.1-0.9,1-1.5C361.3,489.7,360.7,487.3,360,485z M348,473L348,473
			L348,473z" style="fill:#FFFFFF;"/>
		<path d="M511.3,580.9c-0.1-0.4-0.3-0.8-0.4-1.2l-0.1-0.3l-0.1-0.1l-0.1-0.2c-0.3-0.7-0.9-1.2-1.5-1.5
			c-1.6-0.9-3.7-0.3-4.7,1.2c-0.2,0.3-0.2,0.3-0.2,0.4l-0.1,0.3l-2.2,4.2c-0.3,0.7-0.7,1.4-1.1,2.1s-0.7,1.3-1.1,2
			c-0.3,0.7-0.7,1.3-1,2c-0.3,0.7-0.7,1.4-1.1,2c-0.7,1.3-1.5,2.6-2.3,3.8v0c-0.4,0.7-0.3,1.5,0.4,2c0.5,0.3,1.2,0.3,1.7-0.1
			c1.3-1.1,2.4-2.3,3.4-3.6c1-1.3,1.8-2.6,2.7-3.9c1.4-2.1,2.6-4.1,3.7-6.2c0.3,0.9,0.5,1.9,0.7,2.9c0.6,2.9,0.9,5.8,1,8.8l0,0
			c0,0.8,0.7,1.5,1.5,1.5c0.7,0,1.2-0.5,1.4-1.1c0.8-3.2,1-6.6,0.5-9.9C512.1,584.1,511.8,582.5,511.3,580.9z" style="fill:#FFFFFF;"/>
		<path d="M400.2,425.4c-0.4-2-0.6-3.9-0.7-5.9c0-1.1-0.1-2.1-0.2-3.3c0-0.3-0.1-0.6-0.1-0.9V415v-0.1l0-0.2
			c-0.1-0.5-0.3-0.9-0.7-1.3c-0.6-0.7-1.3-1.1-2.2-1.2c-0.8-0.1-1.7,0-2.4,0.4c-0.3,0.2-0.6,0.4-0.8,0.7l-0.3,0.4
			c-0.2,0.2-0.4,0.5-0.6,0.7c-0.4,0.5-0.7,0.9-1.1,1.4c-0.7,1-1.3,2-1.8,3c-1.2,2.1-1.9,4.5-2,7c0,0.8,0.6,1.5,1.4,1.5
			c0.6,0,1.2-0.4,1.4-0.9l0-0.1c0.8-1.8,1.8-3.5,2.9-5.2c0.6-0.8,1.2-1.6,1.8-2.4l0-0.1c0.1,0.5,0.2,1,0.3,1.6
			c0.2,1.1,0.5,2.3,0.9,3.4c0.4,1.2,0.9,2.3,1.6,3.3c0.5,0.6,1.4,0.7,2,0.3c0.4-0.3,0.6-0.9,0.5-1.5L400.2,425.4z M394.4,415.8
			L394.4,415.8z" style="fill:#FFFFFF;"/>
		<path d="M496.5,533.9c0.8-0.2,1.2-0.9,1.1-1.7c0,0,0,0,0,0l0-0.2c-0.4-2-0.6-3.9-0.7-5.9c0-1.1-0.1-2.1-0.2-3.3
			c0-0.3-0.1-0.6-0.1-0.9l0-0.3v-0.1l0-0.2c-0.1-0.5-0.3-1-0.7-1.3c-0.6-0.7-1.3-1.1-2.2-1.2c-0.8-0.1-1.7,0-2.4,0.4
			c-0.3,0.2-0.6,0.4-0.8,0.7l-0.3,0.4c-0.2,0.2-0.4,0.5-0.6,0.7c-0.4,0.5-0.7,0.9-1.1,1.4c-0.7,1-1.3,2-1.8,3c-1.2,2.1-1.9,4.5-2,7
			c0,0.6,0.4,1.2,0.9,1.4c0.8,0.3,1.6-0.1,1.9-0.8l0-0.1c0.8-1.8,1.8-3.5,2.9-5.2c0.6-0.8,1.2-1.7,1.8-2.4l0.1-0.1
			c0.1,0.5,0.2,1,0.3,1.6c0.2,1.1,0.5,2.3,0.9,3.4c0.4,1.2,1,2.4,1.7,3.4C495.4,533.9,496,534.1,496.5,533.9z M491.7,522.5
			L491.7,522.5C491.7,522.4,491.7,522.4,491.7,522.5L491.7,522.5z" style="fill:#FFFFFF;"/>
		<path d="M427.9,456c-3.1-2.7-5.2-6.4-6.8-10.3c-0.8-2-1.5-4-2.1-6.1c-0.6-2.1-1.2-4.2-1.6-6.3
			c-0.1-0.5-0.2-1.1-0.3-1.6c-0.1-0.8-0.5-1.4-1-2c-0.5-0.5-1.2-0.9-2-1.1c-0.8-0.1-1.6-0.1-2.3,0.3c-0.4,0.2-0.7,0.4-1,0.7
			c-0.1,0.1-0.3,0.3-0.4,0.4l-0.1,0.2c-0.4,0.5-0.7,1-1.1,1.5c-1.3,2-2.3,4.2-3.1,6.5c-1.5,4.4-2.4,9-2.5,13.7
			c0,0.8,0.6,1.4,1.4,1.4c0.7,0,1.3-0.5,1.4-1.1v-0.1c0.9-4.2,2.2-8.4,3.8-12.4c0.7-1.7,1.6-3.3,2.6-4.9c0.9,4.4,2.4,8.6,4.3,12.6
			c1.1,2.1,2.3,4.1,3.8,6c1.5,1.9,3.3,3.6,5.4,4.8c0.7,0.5,1.6,0.3,2.1-0.3C428.7,457.5,428.6,456.5,427.9,456L427.9,456L427.9,456z
			" style="fill:#FFFFFF;"/>
		<path d="M290,618.4c-1.4-3.1-2.5-6.3-3.1-9.7c-0.3-1.7-0.6-3.4-0.8-5.1l-0.2-1.3c-0.2-1.9-1.9-3.3-3.8-3.1
			c-0.5,0-0.9,0.2-1.3,0.4c-0.2,0.1-0.3,0.2-0.5,0.3l-0.2,0.2l-0.1,0.1l0,0l-0.3,0.3c-0.4,0.4-0.7,0.8-1,1.2
			c-1.2,1.6-2.3,3.3-3.1,5.1c-0.8,1.8-1.4,3.6-1.8,5.5c-0.4,1.9-0.7,3.8-0.8,5.7c-0.1,1.9-0.1,3.8,0.1,5.7c0.1,0.8,0.8,1.3,1.6,1.2
			c0.7-0.1,1.2-0.6,1.2-1.3v-0.1c0.2-3.4,0.9-6.8,1.9-10.1c0.8-2.7,2.1-5.2,3.7-7.5c0.2,1.3,0.5,2.6,0.9,3.9
			c0.3,0.9,0.5,1.8,0.9,2.7c0.3,0.9,0.7,1.8,1.1,2.7c0.8,1.8,1.9,3.4,3.3,4.9c0.5,0.6,1.5,0.7,2.1,0.1
			C290.2,619.8,290.4,619.1,290,618.4L290,618.4z M283.4,603.7L283.4,603.7L283.4,603.7L283.4,603.7z" style="fill:#FFFFFF;"/>
		<path d="M465.3,704.9c-0.4-0.4-0.8-0.8-1.3-1.2c-0.5-0.3-1-0.6-1.5-0.8c-0.6-0.2-1.2-0.3-1.8-0.3
			c-0.2,0-0.4,0-0.6,0.1c-0.9,0.3-1.4,1.4-1.1,2.3l0,0c0.2,0.6,0.5,1.2,1,1.6c0.8,0.9,1.7,1.5,2.8,1.9c0.6,0.2,1.2,0.3,1.9,0.3l0,0
			c0.2,0,0.3,0,0.5-0.1c0.9-0.3,1.4-1.3,1.1-2.2C466,705.9,465.7,705.3,465.3,704.9z" style="fill:#10294C;"/>
		<path d="M498.8,714.1c-1-0.9-2-1.7-3-2.4c-1-0.7-2.1-1.4-3.3-2c-1.1-0.6-2.3-1.2-3.6-1.6c-0.5-0.1-1-0.1-1.4,0.2
			c-0.7,0.5-0.8,1.5-0.3,2.1c0,0,0,0,0,0l0,0.1c0.8,1,1.7,2,2.7,2.8c0.9,0.8,1.9,1.6,3,2.3c1,0.7,2.1,1.4,3.3,2
			c1.1,0.6,2.3,1.1,3.6,1.5h0.1c0.4,0.1,0.9,0.1,1.3-0.2c0.7-0.5,0.8-1.4,0.3-2.1c0,0,0,0,0,0C500.7,715.9,499.8,715,498.8,714.1z" style="fill:#10294C;"/>
		<path d="M572,663.5c-1.8-0.8-3.6-1.4-5.5-1.9c-1.9-0.5-3.8-0.9-5.7-1.2c-1.9-0.3-3.8-0.5-5.8-0.6
			c-1.9-0.1-3.9-0.1-5.8,0.1c-0.6,0.1-1.1,0.5-1.3,1c-0.3,0.8,0.2,1.6,1,1.9c0,0,0,0,0,0l0,0c1.8,0.6,3.7,1,5.5,1.4
			c1.9,0.4,3.7,0.7,5.6,1c1.9,0.3,3.7,0.5,5.6,0.7c1.9,0.2,3.8,0.3,5.7,0.3l0,0c0.6,0,1.1-0.3,1.3-0.8
			C573,664.7,572.7,663.9,572,663.5z" style="fill:#10294C;"/>
		<path d="M556.2,675.1c-3.2-1.2-6.4-2.2-9.7-3c-3.3-0.8-6.6-1.5-9.9-2s-6.7-0.9-10.1-1.1c-3.4-0.2-6.8-0.2-10.2,0.1
			c-0.8,0.1-1.4,0.8-1.3,1.6c0.1,0.7,0.6,1.2,1.3,1.3l0,0l9.8,1.4c1.6,0.3,3.3,0.4,4.9,0.7s3.3,0.5,4.9,0.7l9.8,1.5
			c3.3,0.5,6.6,1,9.8,1.4l0,0c0.8,0.1,1.5-0.4,1.6-1.2C557.1,675.9,556.7,675.3,556.2,675.1L556.2,675.1z" style="fill:#10294C;"/>
		<path d="M388.2,701.9c-0.8-0.2-1.5,0.3-1.7,1c-1,4-1.7,8.1-2.3,12.2c-0.6,4.1-0.9,8.2-1.2,12.3
			c-0.1,2.1-0.2,4.1-0.3,6.2c0,2.1-0.1,4.1,0,6.2c0,4.1,0.3,8.3,0.8,12.4c0.1,0.8,0.8,1.4,1.6,1.4c0.7-0.1,1.3-0.6,1.4-1.4l0,0
			c0.3-4.1,0.5-8.1,0.8-12.2l0.7-12.2c0.2-4.1,0.5-8.1,0.7-12.2s0.5-8.1,0.7-12.2l0,0C389.3,702.7,388.9,702,388.2,701.9z" style="fill:#10294C;"/>
		<path d="M408.6,714.3c-0.2-1.5-0.5-3-1-4.5c-0.2-0.5-0.6-0.9-1.1-1c-0.8-0.2-1.6,0.3-1.7,1.1c0,0,0,0,0,0v0
			c-0.3,1.5-0.5,3-0.6,4.6c-0.1,1.5-0.1,3,0,4.5c0.1,1.5,0.2,3,0.4,4.5c0.2,1.5,0.5,3,1,4.5v0c0.3,0.8,1.1,1.2,1.9,1
			c0.5-0.2,0.9-0.6,1-1.1c0.3-1.5,0.5-3,0.6-4.6c0.1-1.5,0.1-3,0-4.6C409,717.4,408.8,715.8,408.6,714.3z" style="fill:#10294C;"/>
		<path d="M404.4,738.5c-0.1-0.1-0.2-0.2-0.2-0.2c-0.8-0.6-1.9-0.5-2.6,0.3l0,0c-0.4,0.4-0.6,1-0.8,1.5
			c-0.1,0.5-0.2,1-0.2,1.5c0,0.5,0.1,1,0.2,1.5c0.1,0.6,0.4,1.1,0.8,1.5l0,0c0.1,0.1,0.2,0.2,0.3,0.3c0.8,0.7,2,0.5,2.6-0.3
			c0,0,0,0,0,0c0.4-0.4,0.7-1,0.8-1.5c0.1-0.5,0.2-1,0.2-1.5c0-0.5-0.1-1-0.2-1.5C405,739.4,404.8,738.9,404.4,738.5z" style="fill:#10294C;"/>
		<path d="M302.2,704.5c-2.8,1.4-5.5,3-8.1,4.8c-2.6,1.7-5.2,3.5-7.6,5.4s-4.9,3.9-7.2,5.9c-2.4,2-4.6,4.2-6.8,6.5
			c-0.6,0.5-0.7,1.4-0.2,2c0.5,0.6,1.4,0.7,2,0.2c2.7-1.6,5.2-3.4,7.7-5.2c2.5-1.8,5-3.6,7.5-5.5c2.5-1.9,4.9-3.8,7.3-5.7
			s4.8-3.9,7.1-6c0.6-0.5,0.7-1.5,0.1-2.1C303.6,704.3,302.9,704.2,302.2,704.5L302.2,704.5z" style="fill:#10294C;"/>
		<path d="M320.8,706.9c-1.2,0.4-2.4,0.9-3.6,1.6c-1.1,0.6-2.2,1.3-3.3,2c-1,0.8-2,1.6-3,2.4c-1,0.9-1.9,1.8-2.7,2.9
			c-0.5,0.6-0.4,1.6,0.3,2.1c0.4,0.3,0.9,0.4,1.3,0.2h0.1c1.2-0.4,2.4-0.9,3.6-1.5c1.1-0.6,2.2-1.3,3.3-2c1-0.7,2-1.5,3-2.3
			c1-0.9,1.9-1.8,2.7-2.8l0-0.1c0.3-0.4,0.4-0.9,0.2-1.4C322.6,707.1,321.7,706.7,320.8,706.9C320.9,706.9,320.9,706.9,320.8,706.9z
			" style="fill:#10294C;"/>
		<path d="M275.8,670.8c0.8-0.1,1.4-0.9,1.2-1.7c-0.1-0.7-0.6-1.2-1.3-1.3c-3.4-0.3-6.8-0.4-10.2-0.1
			c-3.4,0.2-6.7,0.6-10.1,1.1c-3.3,0.5-6.6,1.2-9.9,2c-3.3,0.8-6.5,1.8-9.6,3c-0.7,0.3-1.1,1.1-0.8,1.9c0.2,0.6,0.8,0.9,1.5,0.9l0,0
			c3.3-0.4,6.6-0.9,9.8-1.4l9.8-1.5c1.6-0.3,3.3-0.5,4.9-0.7c1.6-0.3,3.3-0.5,4.9-0.7L275.8,670.8L275.8,670.8z" style="fill:#10294C;"/>
		<path d="M220.9,662c-0.5-0.2-1.1-0.4-1.7-0.4c-0.5,0-1.1,0-1.6,0.2c-0.5,0.1-1,0.3-1.5,0.6c-0.5,0.3-1,0.7-1.3,1.1
			c-0.1,0.1-0.1,0.2-0.2,0.3c-0.4,0.9-0.1,1.9,0.8,2.4h0.1c0.5,0.2,1.1,0.4,1.7,0.4c0.5,0,1,0,1.5-0.1c0.5-0.1,1-0.3,1.4-0.5
			c0.5-0.3,1-0.6,1.3-1.1v0c0.6-0.8,0.5-2-0.3-2.6C221,662.1,220.9,662.1,220.9,662L220.9,662z" style="fill:#10294C;"/>
	</g>
	<g>
		<path d="M193.9,387.8c-1-0.9-2.4-1.2-3.6-0.6h-0.1c-3.1,1.4-6.2,2.6-9.4,3.7c-3.1,1-6.4,1.8-9.6,2.4
			c-6.3,1.2-12.8,1.2-19.1,0c-6.2-1.2-12.2-3.4-17.7-6.5c-2.8-1.5-5.6-3.3-8.4-5.1c-1.4-0.9-2.8-1.9-4.2-2.9c-1.4-1-2.9-2-4.1-2.9
			c-5-3.7-10.2-8.5-16-13.1l-0.1-0.1c-2.5-2-3-5.7-0.9-8.3c0.6-0.7,1.3-1.3,2.2-1.7c9.8-4.4,19.4-9.2,28.9-14.3
			c12.9-7,25.5-14.5,37.7-22.6c8.6-5.7,16.9-11.7,25-17.9c-6-10.6-12.7-20.8-20-30.6c-8.2,6.3-16.6,12.4-25.3,18.1
			c-11.3,7.5-22.9,14.6-34.8,21.2c-11.9,6.6-24,12.6-36.4,18.1c-6.2,2.7-12.4,5.3-18.7,7.7c-3.1,1.2-6.3,2.4-9.4,3.4
			c-1.6,0.5-3.1,1.1-4.6,1.6l-2.3,0.7l-2,0.6l-0.9,0.3c-0.5,0.2-1,0.3-1.5,0.5c-12.1,3.7-24.9,7.1-38.4,10.3
			c0.5,11.6,1.8,23.2,3.8,34.7c18.3-4.2,36.1-9.1,53.3-14.6l0,0V370l0.4-0.1c3-0.9,6.1-1.2,9.2-0.8c2.4,0.3,4.7,0.8,7,1.6
			c5.4,1.7,10.9,4.7,16.4,8.2c4.9,3.1,9.8,6.6,15.3,10.1c1.3,0.8,2.3,1.9,3.2,3.1l0,0c1.8,2.9,3,6.1,3.3,9.5c0.4,3.6,0,7.2-1.2,10.6
			c-1.2,3.6-3.3,6.8-5.9,9.5l-0.1,0.1c-1.2,1.2-1.2,3.2-0.1,4.5c1.2,1.2,3.1,1.4,4.5,0.3c3.9-2.8,7.1-6.5,9.5-10.6
			c1.2-2.2,2.3-6.5,3.1-10.3c0.7-3.6,4.2-5.9,7.8-5.2c0.2,0,0.4,0.1,0.6,0.2c6.4,2,15.4,4.5,20.4,4.7c7.7,0.4,15.3-0.6,22.6-3
			c3.5-1.1,7-2.5,10.4-4.1c3.3-1.6,6.5-3.4,9.6-5.3c1.5-0.9,2-2.9,1.1-4.5C194.3,388.2,194.1,388,193.9,387.8z" style="fill:#FDB813;"/>
		<path d="M120.2,230.1c23.9-11.4,91.9-38.9,191.9-39.9c1.9,0,3.6,0.7,5,1.9c9.1,8.2,44.7,42.4,66.8,91.6
			c1.7,3.7,0.1,8-3.6,9.7c-0.7,0.3-1.4,0.5-2.1,0.6c-29.6,3.8-120.7,17.7-178,50.4c-3.5,2-8,0.9-10-2.6
			c-10.7-18.2-42.8-70.9-72-99.9c-2.9-2.8-2.9-7.5-0.1-10.3C118.7,231,119.4,230.5,120.2,230.1z" style="fill:#00ACDC;"/>
		<path d="M341.1,268.7c0-1.5-0.6-3-1.5-4.2c-1-1.4-3-2.2-3.7-3.7c-0.5-1.3-0.1-3-0.4-4.4c-0.5-2.1-1.7-4-3.5-5.2
			c-1.5-1.1-3.1-1.2-4.9-1.7s-2.2-2.2-3.1-3.6c-1.1-1.6-3.2-2.9-5.2-2.6c-1.7,0.3-2.9,1.7-3.8,3.2c-1.8,3.3-2.1,7.3-0.8,10.9
			c0.5,1.5,1.5,2.8,2.8,3.7c0.7,0.5,1.8,0.7,2.3,1.4c0.3,0.7,0.5,1.4,0.4,2.1c0,1.1,0.2,2.1,0.6,3.1c0.7,1.9,2,3.4,3.8,4.4
			c0.9,0.5,2.6,0.7,3.1,1.6c0.2,0.6,0.3,1.2,0.3,1.9c0.1,1.1,0.4,2.2,1,3.1c1.9,3,5.5,2.1,7.8,0.3
			C339.4,276.6,341.2,272.7,341.1,268.7z" style="fill:#10294C;"/>
		<path d="M260.7,304.1c11.7-5,32.4-10.8,46.9-12.7c3.1-0.4,5.3-3.2,5-6.3c-0.1-1.1-0.6-2.2-1.3-3
			c-5.1-6.1-14.8-14.3-32.7-12.2c-25.8,3-27.3,20.3-25.8,29.9c0.5,3.1,3.4,5.3,6.6,4.8C259.8,304.4,260.3,304.3,260.7,304.1z" style="fill:#10294C;"/>
		<path d="M233.3,296c-0.1-1.6-0.6-3.2-1.6-4.5c-1.1-1.5-3.3-2.3-4-4.1c-0.6-1.4-0.1-3.3-0.4-4.7
			c-0.5-2.3-1.9-4.3-3.8-5.6c-1.7-1.1-3.4-1.3-5.3-1.9c-1.9-0.5-2.3-2.4-3.4-3.9c-1.2-1.7-3.5-3.1-5.6-2.7c-1.9,0.3-3.1,1.9-4.1,3.4
			c-2,3.6-2.3,7.9-0.9,11.7c0.6,1.6,1.6,3,3,4c0.7,0.6,1.9,0.8,2.5,1.6c0.4,0.7,0.5,1.5,0.4,2.3c0,1.1,0.3,2.2,0.7,3.3
			c0.8,2,2.2,3.7,4.1,4.8c0.9,0.5,2.8,0.8,3.4,1.8c0.2,0.7,0.4,1.4,0.3,2c0.1,1.2,0.5,2.3,1.1,3.4c2.1,3.3,5.9,2.3,8.4,0.3
			C231.6,304.4,233.4,300.3,233.3,296z" style="fill:#10294C;"/>
		<path d="M226.9,299.9c-0.6,0.7-1.6,0.9-2.4,0.3c-0.3-0.2-0.5-0.6-0.6-1c-0.1-0.6-0.3-1.1-0.6-1.6
			c-1-1.6-2.6-2.7-4.4-3.2l-0.4-0.1c-0.7-0.4-1.2-1.1-1.5-1.8c-0.2-0.5-0.3-1-0.3-1.5v-0.2c0.1-1.5-0.4-3.1-1.3-4.3
			c-0.8-1-1.8-1.8-3-2.3l-0.2-0.1c-0.5-0.4-0.8-0.9-1-1.4c-0.4-1.2-0.4-2.4-0.2-3.6c0.2-0.9,1-1.5,1.9-1.4c0.4,0.1,0.8,0.3,1,0.6
			c1,1.4,2.4,2.4,4,3c0.4,0.1,0.9,0.2,1.3,0.3c0.7,0.1,1.4,0.3,2,0.7c0.7,0.5,1.2,1.1,1.4,1.9c0,0.1,0.1,0.3,0.1,0.5
			c0,0.2,0,0.4,0,0.5c-0.1,1.4,0.1,2.9,0.6,4.2c0.7,1.6,1.9,2.9,3.3,3.9l0.5,0.4c0.1,0.1,0.2,0.2,0.3,0.4c0.2,0.3,0.3,0.7,0.4,1v0.1
			C228.2,296.8,227.8,298.5,226.9,299.9z" style="fill:#F04E23;"/>
		<path d="M335.5,272.9c-0.6,0.7-1.6,0.9-2.4,0.3c-0.3-0.2-0.5-0.6-0.6-1c-0.1-0.6-0.3-1.1-0.6-1.6
			c-1-1.6-2.6-2.7-4.4-3.2c-0.1,0-0.3-0.1-0.4-0.1c-0.7-0.4-1.2-1.1-1.5-1.8c-0.2-0.5-0.3-1-0.3-1.5v-0.2c0.1-1.6-0.4-3.1-1.3-4.4
			c-0.8-1-1.8-1.8-3-2.3l-0.2-0.1c-0.4-0.4-0.8-0.8-1-1.4c-0.4-1.2-0.4-2.4-0.2-3.6c0.2-0.9,1-1.5,1.9-1.4c0.4,0.1,0.8,0.3,1,0.6
			c1,1.4,2.4,2.4,4,3c0.4,0.1,0.9,0.2,1.3,0.3c0.7,0.1,1.4,0.3,2,0.7c0.7,0.5,1.2,1.1,1.4,1.9c0,0.1,0.1,0.3,0.1,0.4
			c0,0.2,0,0.4,0,0.5c-0.1,1.4,0.1,2.9,0.6,4.2c0.7,1.6,1.9,2.9,3.3,3.9l0.5,0.4c0.1,0.1,0.2,0.2,0.3,0.4c0.2,0.3,0.3,0.7,0.4,1v0.1
			C336.8,269.8,336.4,271.5,335.5,272.9z" style="fill:#F04E23;"/>
		<path d="M235.5,326.2c0-2.9-0.4-5.7-1.2-8.5c-0.5-2-1.2-3.9-2.1-5.7c0.2-0.2,0.4-0.4,0.6-0.6c0.4-0.5,0.7-0.9,1-1.5
			c0.5-0.9,0.9-2,1.1-3c0.2-1.1,0.2-2.2,0-3.3c-0.3-1.1-1.3-1.7-2.4-1.4c-0.5,0.1-0.9,0.5-1.2,0.9l-0.3,0.5c-0.6,1.1-1.3,2.1-2.2,3
			c-0.2,0.2-0.4,0.4-0.6,0.5c-0.1,0.1-0.2,0.2-0.4,0.2c-0.4,0.2-0.9,0.3-1.3,0.4c-1.1,0.3-2.2,0.3-3.4,0.2c-1-0.1-1.9-0.5-2.7-1.2
			l-0.4-0.3c-0.7-0.7-2-0.7-2.7,0c-0.4,0.4-0.6,1-0.5,1.5c0.1,1.2,0.6,2.4,1.4,3.4c0.8,0.9,1.8,1.7,2.9,2.2c1.6,0.7,3.4,1,5.2,0.8
			c0.1,1.5,0.1,3,0.1,4.5c0,1.2-0.1,2.4-0.1,3.5c0,0.6-0.1,1.2-0.2,1.7s-0.1,1.1-0.2,1.7c-0.2,2.3-0.7,4.4-1.1,6.6l-0.1,0.4
			c-0.4,2.6,1.5,5,4.1,5.4c2.3,0.3,4.6-1.1,5.3-3.4C235.2,332.1,235.6,329.1,235.5,326.2z" style="fill:#FFFFFF;"/>
		<g>
			<path d="M408.4,257.4c-0.9-2.8-2-5.5-3.3-8.1c-1.3-2.6-2.8-5.1-4.6-7.4c-1-1.4-3-1.7-4.4-0.6
				c-0.7,0.5-1.2,1.4-1.2,2.3v0.3c-0.2,2.7-0.5,5.5-0.8,8.1c-0.2,1.5-1.7,2.1-2.1-0.1l0,0c-1.1-5.7-3.3-11.2-6.4-16.2
				c-1.6-2.5-3.4-4.9-5.5-7.1c-1-1.1-2.1-2.1-3.3-3.1c-1.2-1-2.4-1.9-3.7-2.8c-0.7-0.5-1.5-0.7-2.3-0.7c-2.4,0-4.3,1.8-4.4,4.2
				c0,0,0,0,0,0v1.2c0,1.1,0.1,2.4,0.1,3.7l0.1,3.6c0,2.4,0,4.7-0.1,6.9c-0.2,4-0.9,7.9-2,11.7c-1,3-2.3,6-3.8,8.8l-0.3,0.6
				c-9.8,16.3-17.3,36.4,1,49.2c17.2,12,49.6,0.7,49.5-36.2C411.3,269.7,410.4,263.4,408.4,257.4z" style="fill:#F04E23;"/>
			<path d="M383,297.7c-2.9,1-6.2,2.2-7.2-2.7c-0.8-4.1,6.3-6,8.1-3.8C385.8,293.5,385.9,296.7,383,297.7z" style="fill:#10294C;"/>
			<path d="M388.3,278.3c-3.5-1.9-0.1-8.1,2.9-6.1S394.5,281.7,388.3,278.3z" style="fill:#10294C;"/>
			<path d="M364.2,295.9c5.8-0.8,3.8-7,9.1-8.3c5.3-1.3,9.8-5.2,6.8-11.9c-4.2-9.4-9.5-17.8-14.6-25.8
				c-0.3,1.3-0.6,2.5-0.9,3.6c-1,3-2.3,6-3.8,8.8l-0.3,0.6c-6.7,11-12.2,23.9-9.4,35C355.8,297.2,360.2,296.5,364.2,295.9
				L364.2,295.9z" style="fill:#10294C;"/>
		</g>
		<path d="M349.8,231.7c-3.4-2.4-7-4.6-10.7-6.5c-1.8-1-3.8-1.8-5.7-2.7c-1.9-0.9-3.9-1.6-5.8-2.4
			c-2-0.7-3.9-1.4-5.9-2.1c-2-0.7-4-1.2-6-1.7c-3-0.8-6-1.4-9.1-1.9c0.7-1.2,1.3-2.3,2-3.5c2.3-4.2,4.3-8.5,5.9-12.9
			c0.4-1-0.1-2.1-1.1-2.5c-1-0.4-2.1,0.1-2.5,1v0.1c-1,2-1.9,4.1-3,6.1c-1.1,2-2.2,4-3.3,5.9c-2.4,3.9-4.9,7.7-7.6,11.4
			c-2.7,3.7-5.5,7.4-8.4,10.9c-2.9,3.6-5.8,7.1-8.9,10.6c-3,3.4-6.1,6.9-9.3,10.2l-0.6,0.6l-0.3,0.3l-0.2,0.2
			c-0.3,0.3-0.6,0.5-0.9,0.7c-0.6,0.4-1.3,0.7-2.1,0.8c-0.7,0.1-1.5,0.1-2.2-0.1l-3.2-0.9l-6.8-2l-6.8-1.7l-3.4-0.9l-3.4-0.8
			l-6.8-1.6c-18.3-3.8-36.7-6.8-55.3-8.8c-9.3-1.1-18.5-1.9-27.8-2.6c-9.3-0.7-18.6-1.2-27.9-1.5c-1,0-1.9,0.9-1.9,1.9
			c0,0.9,0.7,1.7,1.6,1.9l0,0c9.2,0.9,18.4,1.7,27.6,2.8c9.2,1.1,18.4,2.1,27.6,3.4c2.3,0.3,4.6,0.6,6.9,1l4.5,0.7
			c-2.3,2.9-4.5,6-6.4,9.1c-2.7,4.5-5.1,9.3-7.2,14.2c-2,4.9-3.7,9.9-5,15c-0.7,2.5-1.2,5.2-1.7,7.7c-0.5,2.6-0.7,5.2-1,7.8
			c-0.1,1.1,0.7,2,1.7,2.2c0.9,0.1,1.8-0.5,2.1-1.3l0-0.1c0.8-2.4,1.4-4.9,2.2-7.3c0.8-2.4,1.5-4.9,2.3-7.3c0.4-1.2,0.8-2.4,1.2-3.6
			l1.3-3.6c0.2-0.6,0.4-1.2,0.6-1.8l0.7-1.8c0.5-1.2,0.9-2.4,1.4-3.5l1.5-3.5c0.5-1.2,1.1-2.3,1.6-3.5c0.5-1.2,1.1-2.3,1.6-3.4
			c0.6-1.1,1.1-2.3,1.7-3.4l0.9-1.7l0.9-1.7c0.6-1.1,1.2-2.2,1.8-3.3c0.8-1.5,1.7-3,2.6-4.5c3.7,0.6,7.5,1.2,11.2,1.8
			c9.1,1.5,18.2,3.3,27.2,5.2l6.7,1.5l3.4,0.8l3.3,0.8l6.7,1.7l6.6,1.9l3.5,1c3.1,0.7,6.4,0.2,9.1-1.5c0.7-0.4,1.3-0.9,1.8-1.5
			l0.4-0.4l0.3-0.3l0.6-0.7c3.2-3.5,6.3-7,9.2-10.6c6.1-7.2,11.7-14.7,17-22.4c1-1.5,2-3.1,3-4.7c3.3,1.2,6.5,2.4,9.8,3.6
			c3.8,1.4,7.6,2.8,11.4,4.3c3.8,1.5,7.6,2.9,11.3,4.4c3.8,1.5,7.5,3.1,11.3,4.6h0.1c1,0.4,2.2-0.1,2.6-1.1
			C350.9,233.2,350.6,232.3,349.8,231.7z" style="fill:#10294C;"/>
		<path d="M145.1,300L145.1,300c-0.9,0.1-1.6,0.3-2.4,0.6c-0.7,0.3-1.4,0.6-2,1.1c-0.6,0.4-1.2,0.9-1.8,1.4
			c-0.6,0.6-1.1,1.2-1.5,1.9v0.1c-0.1,0.3-0.2,0.6-0.2,0.9c0.1,0.9,0.8,1.5,1.7,1.5c0.8-0.1,1.6-0.3,2.3-0.6
			c1.4-0.6,2.8-1.4,3.9-2.5c0.6-0.5,1.1-1.2,1.5-1.9c0.2-0.3,0.2-0.6,0.2-0.9C146.9,300.6,146.1,300,145.1,300
			C145.2,300,145.2,300,145.1,300z" style="fill:#10294C;"/>
		<path d="M93.9,332c-0.3-0.7-1.2-1.1-1.9-0.8l0,0l-17.3,6.6c-5.8,2.2-11.6,4.3-17.4,6.3c-5.8,2-11.7,4-17.5,5.9
			l-17.7,5.7c-0.7,0.3-1.1,1.1-0.9,1.8c0.2,0.6,0.9,1,1.5,0.9c6.1-1.1,12.2-2.6,18.2-4.2c6-1.6,12-3.5,17.9-5.5
			c5.9-2,11.7-4.3,17.5-6.8c5.7-2.5,11.4-5.1,16.9-8.1C93.9,333.5,94.2,332.7,93.9,332z" style="fill:#10294C;"/>
		<path d="M113.3,334.4c-2.4,0.8-4.6,1.7-6.9,2.6c-2.3,1-4.5,2-6.7,3s-4.4,2.1-6.6,3.3s-4.4,2.3-6.5,3.6
			c-0.7,0.4-0.9,1.3-0.5,2c0.3,0.5,0.9,0.8,1.5,0.6c2.4-0.6,4.8-1.3,7.2-2.2c2.3-0.8,4.6-1.8,6.9-2.8c2.3-1,4.5-2.2,6.6-3.4
			c2.2-1.2,4.3-2.6,6.3-4.1c0.7-0.5,0.8-1.4,0.3-2.1C114.5,334.4,113.9,334.2,113.3,334.4L113.3,334.4z" style="fill:#10294C;"/>
		<g>
			<path d="M266.5,222.3l5.4,10.6c0.4,0.7,0.1,1.6-0.6,2c-0.3,0.1-0.6,0.2-0.9,0.2l-2.9-0.4c-0.8-0.1-1.5,0.5-1.6,1.3
				c0,0,0,0.1,0,0.1l-0.4,8.8c0,0.8-0.6,1.4-1.4,1.4c-0.3,0-0.6-0.1-0.8-0.3l-10.1-7.4c-0.5-0.4-1.1-0.4-1.6,0l-5.1,3.6
				c-0.6,0.4-1.5,0.3-1.9-0.4c-0.1-0.1-0.1-0.2-0.1-0.3l-2.7-6.3c-0.2-0.6-0.8-0.9-1.4-0.9l-13.9,1.3c-0.8,0-1.5-0.6-1.5-1.4
				c0-0.4,0.1-0.7,0.3-1l5.4-7.1c0.5-0.7,0.4-1.6-0.3-2.1c-0.1,0-0.1-0.1-0.2-0.1l-4.9-2.7c-0.7-0.4-1-1.3-0.5-2.1
				c0.1-0.2,0.3-0.4,0.5-0.5l3.2-1.9c0.7-0.4,0.9-1.3,0.6-2l-3.5-7c-0.4-0.7-0.1-1.6,0.6-2c0.2-0.1,0.4-0.2,0.7-0.2l16.4,0.7
				c0.3,0,0.5,0.1,0.7,0.2l22.3,15.3C266.3,221.9,266.4,222,266.5,222.3z" style="fill:#10294C;"/>
			<path d="M308,158.9c0.4-4.2,0.5-8.3,0.1-12.5c0-0.3-0.1-0.6-0.2-0.9c-0.7-1.7-2.6-2.6-4.3-1.9h0
				c-8.2,3.3-14.5,7.5-20.5,11.7c-2.8,1.8-5.3,3.8-7.6,6.2l5.3-0.7c1-0.1,1.9,0.6,2,1.5c0,0.1,0,0.2,0,0.3v8.3c0,1,0.8,1.8,1.8,1.8
				c0.2,0,0.4,0,0.6-0.1l3.2-1c1-0.3,2,0.2,2.3,1.2c0,0.1,0,0.2,0.1,0.2l0.3,1.4c0.2,1,1.1,1.6,2.1,1.5c0.1,0,0.1,0,0.2,0l6.4-2
				c1-0.3,2,0.2,2.3,1.2c0,0,0,0,0,0.1l0.7,2.3c0.2,0.5,0.5,1,1.1,1.2c1-2.6,1.9-5.4,2.4-8.1C307,166.7,307.6,162.8,308,158.9z" style="fill:#FFFFFF;"/>
			<path d="M302.6,177.5l-0.7-2.3c-0.3-1-1.3-1.5-2.2-1.3c0,0,0,0-0.1,0l-6.4,2c-1,0.3-2-0.3-2.3-1.2c0-0.1,0-0.1,0-0.2
				l-0.3-1.4c-0.2-1-1.1-1.6-2.1-1.5c-0.1,0-0.2,0-0.2,0.1l-3.2,1c-1,0.3-2-0.2-2.3-1.2c-0.1-0.2-0.1-0.4-0.1-0.6v-8.3
				c0-1-0.8-1.8-1.8-1.8c-0.1,0-0.2,0-0.3,0l-5.3,0.7c-0.2,0.2-0.4,0.4-0.6,0.6c-1.1,1.3-2.1,2.7-3.1,4.1l-3,4.1l-6.1,8.1l-6.4,8
				l-3.2,4c-1.1,1.3-2.2,2.6-3.3,3.9l-6.6,7.7c-2.3,2.5-4.6,5-6.9,7.6l0,0c-9.3,9.7,18.1,33.2,26.5,23.6c2.4-2.7,4.7-5.3,7-8l7-8.5
				c1.2-1.4,2.3-2.8,3.5-4.3l3.3-4.4l6.7-8.7l6.4-8.9c2.1-3,4.4-5.8,6-9.1c0.4-0.8,0.9-1.7,1.2-2.6
				C303.1,178.4,302.7,178,302.6,177.5z" style="fill:#FDB813;"/>
			<path d="M255.4,207.6c1.1-0.6,2.1-1.3,3-2.1c0.9-0.8,1.7-1.7,2.5-2.6c0.8-0.9,1.5-1.9,2.1-2.9c0.7-1,1.2-2.1,1.6-3.3
				c0.1-0.4,0.1-0.9-0.2-1.3c-0.5-0.7-1.4-0.9-2.1-0.5c0,0,0,0,0,0l0,0c-1,0.7-1.9,1.4-2.8,2.3c-1.7,1.6-3.2,3.4-4.5,5.4
				c-0.7,1-1.3,2-1.8,3.1l0,0c-0.3,0.8,0,1.6,0.8,2C254.5,207.9,255,207.9,255.4,207.6L255.4,207.6z" style="fill:#10294C;"/>
			<path d="M274.1,204.8c1.8-1.5,3.4-3.2,4.9-5c1.5-1.8,2.9-3.6,4.2-5.5c1.3-1.9,2.5-3.9,3.6-6c1.1-2,2-4.2,2.8-6.4
				c0.3-0.8-0.1-1.6-0.9-1.9c-0.6-0.2-1.3,0-1.7,0.5l0,0c-1.4,1.8-2.7,3.6-4.1,5.5c-1.3,1.8-2.6,3.7-3.8,5.6
				c-1.2,1.9-2.5,3.7-3.7,5.6s-2.4,3.8-3.5,5.8l0,0c-0.3,0.5-0.2,1.2,0.2,1.6C272.6,205.3,273.5,205.4,274.1,204.8
				C274.1,204.8,274.1,204.8,274.1,204.8z" style="fill:#10294C;"/>
			<path d="M256.8,219.6L256.8,219.6c-0.5,0-1,0-1.4,0.2c-0.4,0.1-0.7,0.3-1,0.6c-0.3,0.3-0.5,0.6-0.7,0.9
				c-0.2,0.4-0.3,0.9-0.3,1.4v0.1c0,1.1,0.8,1.9,1.8,2c0.5,0,0.9,0,1.4-0.2c0.8-0.3,1.4-0.8,1.8-1.6c0.2-0.4,0.3-0.9,0.3-1.4
				C258.8,220.6,257.9,219.6,256.8,219.6z" style="fill:#10294C;"/>
		</g>
	</g>
	<g>
		<path d="M789.5,490.2c-25.6-10.5-50.2-23.4-73.5-38.5c-1.7-1.1-3.3-2.2-4.9-3.3l-0.1,0c-1.5-1.1-3.1-2.2-4.6-3.3
			c-5.5-3.9-10.8-8.1-16-12.4c-8.7-7.1-17-14.7-24.7-22.8c-2.4-2.5-4.9-5.2-7.3-7.8c-1.8-2-3.1-4.4-3.9-7v-0.1
			c-1.1-3.7-1-7.6,0.1-11.2c1.3-3.9,3.6-7.4,6.7-10c1.6-1.3,3.4-2.4,5.3-3.3c0.5-0.2,0.9-0.4,1.4-0.5l0.4-0.1l0.6-0.2
			c0.4-0.1,0.8-0.2,1.3-0.4c1.7-0.5,3.4-1.2,5-1.9c3.5-1.6,6.6-3.8,9.3-6.5c2.6-2.8,4.6-6.2,5.8-9.9c1.1-3.4,1.6-7,1.5-10.6
			c-0.2-2.8-0.5-5.5-1.1-8.2c-0.3-1.7,0.1-3.5,1.1-4.9v0c0.8-1.2,1.7-2.3,2.7-3.3c1-1,2.1-2,3.3-2.9c1.2-0.9,2.4-1.7,3.7-2.4
			l0.1-0.1c1.2-0.6,1.6-2.1,1-3.3c-0.6-1.1-1.8-1.6-2.9-1.2c-3.4,0.9-6.6,2.3-9.6,4.2l-0.9,0.6c-1,0.6-2.3,0.4-2.9-0.6
			c-0.1-0.1-0.1-0.2-0.2-0.3c-0.7-1.5-1.4-3-2.1-4.5c-2.6-5.3-5.6-10.5-8.8-15.4c-1-1.5-3-2-4.5-1c-0.2,0.2-0.5,0.3-0.6,0.5
			c-0.9,1-1.1,2.4-0.5,3.6l0,0c2.5,5,4.7,10.2,6.6,15.5c1.9,5.1,3.2,10.5,3.9,15.9c0.6,5.2,0.2,10.2-1.6,13.9s-4.7,5.9-8.8,7.2
			c-1,0.3-2.1,0.6-3.2,0.8c-0.3,0-0.6,0.1-0.8,0.1l-0.5,0.1l-0.7,0.1c-0.9,0.2-1.8,0.4-2.7,0.6c-3.6,1-7,2.4-10.2,4.4
			c-4.1,2.6-7.7,5.9-10.6,9.8c-1.5,2-4.4,2.4-6.4,0.9c-0.4-0.3-0.8-0.7-1.1-1.2c-16.1-25.5-27.5-53.8-33.6-83.3
			c-1.9-9-3.4-18.1-4.4-27.2l-39.7-0.7c1.4,14.8,3.8,29.5,7.2,44c4,17.1,9.7,33.7,16.8,49.8c4.1,9.2,8.7,18.1,13.8,26.7
			c6,10.4,12.8,20.4,20.2,29.9c10.1,12.7,21.1,24.6,33.1,35.5c4.1,3.8,11.9,10,18.1,14.9c2.5,2,2.9,5.6,1,8.1c-0.8,1-1.8,1.7-3,2
			c-7.4,2.1-16.5,4.9-21.4,7.2c-8.6,3.9-16.8,8.9-24.3,14.7c-1.4,1.1-1.7,3.1-0.6,4.6c0.2,0.2,0.4,0.4,0.6,0.6
			c1.1,0.8,2.5,0.9,3.7,0.2l0,0c7.6-4.5,15.8-8,24.2-10.6c8.3-2.6,16.9-4.3,25.6-5c8.4-0.7,16.8-0.2,25,1.6l0.7,0.2
			c2.3,0.6,4.6,1.5,6.6,2.8c23.6,14.8,48.4,27.6,74.2,38.2C782.2,512.5,786.2,501.5,789.5,490.2z" style="fill:#FDB813;"/>
		<g>
			<path d="M695.4,316.2c-7.2-16.3,19.8-32.4,43.7-19c1,0.6,1.4,1.9,0.8,2.9c-0.2,0.4-0.6,0.8-1.1,0.9
				c-3.8,1.6-9.4,4.8-12.6,11.2C718.5,327.7,702.1,331.5,695.4,316.2z" style="fill:#00ACDC;"/>
			<path d="M729.8,298.4c-2.8,0-5.6,0.3-8.3,0.9c-2.8,0.6-5.4,1.5-8,2.7c-1.1,0.5-2.1,1.1-3.1,1.8
				c-0.1-0.6-0.1-1.3,0-1.9c0.1-0.7,0.2-1.4,0.4-2.1c0.2-0.7,0.5-1.4,0.8-2v-0.1c0.2-0.3,0.1-0.8-0.2-1c-0.3-0.4-0.9-0.4-1.3,0
				c0,0,0,0,0,0c-0.6,0.6-1.2,1.3-1.7,2c-0.5,0.7-1,1.5-1.4,2.3c-0.4,0.9-0.7,1.8-0.9,2.7c-0.2,1-0.2,2-0.1,3.1v0.1
				c0,0.1,0,0.3,0.1,0.4c-2,2-3.7,4.3-5,6.9l-0.1,0.2c-0.5,1.2,0.1,2.7,1.3,3.2c0.8,0.3,1.6,0.2,2.3-0.3c0.1-0.1,0.3-0.2,0.4-0.3
				l0.1-0.1c0.9-0.7,1.8-1.3,2.9-1.6c1.1-0.4,2.3-0.6,3.5-0.6c1.3,0,2.6,0.2,3.8,0.5c1.3,0.3,2.5,0.7,3.7,1.3h0.1
				c0.5,0.2,1,0,1.2-0.5c0.2-0.4,0.1-0.8-0.3-1.1c-1.2-0.9-2.5-1.6-3.8-2.2c-1.4-0.6-2.8-1.1-4.3-1.4c-1.2-0.2-2.5-0.3-3.7-0.2
				c0.3-0.5,0.7-0.9,1.1-1.4c1.6-1.9,3.5-3.6,5.7-4.9c2.2-1.4,4.6-2.4,7-3.2c2.5-0.8,5-1.3,7.6-1.6h0.1c0.5-0.1,0.8-0.5,0.8-1
				C730.5,298.7,730.2,298.4,729.8,298.4L729.8,298.4z" style="fill:#10294C;"/>
		</g>
		<path d="M599.8,331.1c1.5,3.1,3,6.2,4.4,9.3c1.4,3.1,2.9,6.2,4.3,9.2l4.4,9.2c1.5,3.1,2.9,6.2,4.3,9.3l0,0
			c0.3,0.7,0,1.6-0.8,1.9c0,0,0,0,0,0c-0.6,0.3-1.4,0.1-1.8-0.5c-2.1-2.8-4-5.7-5.7-8.7c-1.8-3-3.3-6.1-4.8-9.2
			c-1.5-3.1-2.8-6.4-4-9.6c-1.2-3.3-2.2-6.6-3-10c-0.2-0.8,0.3-1.5,1.1-1.7C598.9,330.3,599.5,330.6,599.8,331.1L599.8,331.1z" style="fill:#10294C;"/>
		<path d="M711.7,476.8c2.9,1.3,5.6,2.6,8.4,4.1c2.7,1.4,5.5,2.9,8.2,4.4c2.7,1.5,5.4,3,8.1,4.6
			c2.7,1.6,5.3,3.2,7.9,4.9c0.7,0.5,0.8,1.4,0.4,2.1c-0.4,0.5-1.1,0.8-1.7,0.6c-3-1-5.9-2.2-8.7-3.6c-2.8-1.3-5.6-2.8-8.3-4.3
			s-5.4-3.1-8-4.8c-2.6-1.7-5.2-3.5-7.6-5.5c-0.7-0.4-0.9-1.3-0.5-2C710.2,476.6,711.1,476.4,711.7,476.8L711.7,476.8z" style="fill:#10294C;"/>
		<path d="M604.2,370.7c3.4,5,6.8,10.1,10.3,15c3.5,4.9,7.1,9.8,10.8,14.5c3.7,4.8,7.5,9.5,11.4,14.1
			c3.9,4.6,7.9,9.2,11.9,13.8l0,0c0.5,0.6,0.5,1.5-0.1,2.1c-0.6,0.5-1.4,0.5-2,0c-4.6-4.1-9-8.4-13.1-12.9
			c-4.2-4.5-8.1-9.2-11.9-14.1c-3.8-4.9-7.3-9.9-10.6-15.1c-3.3-5.2-6.3-10.5-9.1-16.1c-0.3-0.7,0-1.5,0.7-1.9
			C603.1,370,603.8,370.2,604.2,370.7L604.2,370.7z" style="fill:#10294C;"/>
		<path d="M682,450.4c1.1,0.3,2.1,0.7,3.1,1.2c1,0.5,1.9,1.1,2.8,1.7c0.9,0.6,1.7,1.3,2.5,2c0.8,0.8,1.6,1.6,2.2,2.5v0
			c0.5,0.7,0.3,1.7-0.5,2.2c-0.4,0.2-0.8,0.3-1.2,0.2c-1.1-0.3-2.1-0.7-3.1-1.3c-1-0.5-1.9-1.1-2.8-1.7c-0.9-0.6-1.7-1.3-2.5-2.1
			c-0.8-0.8-1.6-1.6-2.2-2.5c-0.5-0.7-0.3-1.6,0.4-2.1C681,450.3,681.5,450.3,682,450.4L682,450.4z" style="fill:#10294C;"/>
		<path d="M629.8,284.7c-17.3-72.4-45.3-142.2-55.8-167.1c-2.3-5.6-8.4-8.7-14.3-7.3c-11.6,2.8-23,6.1-33.8,9.6
			c-5,14.5-6.9,30.4-2.7,43.6c6.5,20.4-4.6,31.3-26.2,41.6c-15.3,7.3-20.4,18.9-28.3,25.5c13.9,40.2,30.1,80.3,37.6,98.6
			c2.4,5.9,9,9,15.1,7.2c58.5-17.6,88.7-31,102-37.7C628.5,296.1,631.2,290.3,629.8,284.7z" style="fill:#00ACDC;"/>
		<path d="M501.3,227.3c0,0-0.6,16.3-7.2,30.1c-7.4,15.5,14.3,33.3,18.2,5.1C512.3,262.5,504.1,233.4,501.3,227.3z" style="fill:#FFFFFF;"/>
		<path d="M491.7,522.5C491.7,522.5,491.7,522.4,491.7,522.5L491.7,522.5z" style="fill:none;"/>
		<g>
			<path d="M532.3,90.8c-0.4-5.4-1.6-10.7-3.5-15.7c-0.9-2.4-2-4.7-3.3-6.9c-0.6-1.1-1.2-2.2-1.9-3.3
				c-0.7-1.1-1.4-2-2.3-3.1c-1.2-1.5-3.4-1.8-4.9-0.6c-0.7,0.5-1.1,1.3-1.3,2.1L515,64c-0.2,1-0.3,2.1-0.5,3.2l-0.6,3.3
				c-0.4,2.1-0.9,4.2-1.4,6.1c-0.9,3.7-2.3,7.2-4.2,10.6c-4.5,6.6-10,3-13.5-3.9c-0.2-0.5-0.4-1.1-0.7-1.6l-0.9-2.1
				c-0.3-0.7-0.5-1.4-0.7-2.1c-0.5-1.4-1-2.9-1.5-4.4c-1.7-6.1-2.8-12.5-3.3-18.8c-0.4-3.4-0.5-6.8-0.6-10.5c0-0.9,0-1.8,0-2.7
				s0-1.9,0-2.8l0.1-2.9l0-1.5c0-0.5,0-0.9,0-1.4l-0.1-1.6c-0.2-2.1-2.1-3.5-4.1-3.3c-0.5,0.1-1,0.2-1.4,0.5l-1.6,0.9
				c-0.5,0.3-1,0.6-1.4,0.9l-1.4,1c-0.5,0.3-0.9,0.7-1.3,1c-1.8,1.4-3.4,2.9-5,4.5c-0.8,0.8-1.5,1.6-2.2,2.5
				c-0.7,0.8-1.4,1.7-2.1,2.6c-1.4,1.8-2.6,3.7-3.7,5.6c-1.2,1.9-2.3,3.9-3.2,6c-1,2.1-1.8,4.2-2.6,6.3c-0.7,2.1-1.6,4.3-2.1,6.6
				c-0.6,2.2-1.1,4.5-1.6,6.7c-0.5,2.3-0.7,4.6-1.1,6.9c-0.1,1.2-0.3,2.3-0.4,3.5l-0.2,3.5c-0.1,2.3-0.2,4.7-0.2,7
				c0,2.3,0.2,4.6,0.4,7l0.3,3.5l0.5,3.4c0.1,0.8,0.3,1.6,0.4,2.4c0,0,0,0.1,0,0.1c0,0,0,0.1,0,0.2c0.2,1.2,0.4,2.4,0.7,3.6
				c1.1,7.8,0.1,15.4-7.1,13.3c-2.1-0.8-4.1-1.7-6-2.7c-0.7-0.3-1.2-0.7-1.8-1.1c-0.6-0.4-1.1-0.8-1.6-1.3c-1.1-0.9-2.2-1.9-3-3.1
				c-2-2.7-3.3-5.8-3.9-9.1c-0.4-1.9-0.7-3.9-0.8-5.8c0-1,0-2,0-3.1c0-1.1,0.1-2.2,0.1-3.1v-1c0-1.9-1.5-3.4-3.4-3.4
				c-0.8,0-1.6,0.3-2.2,0.8c-1,0.9-2,1.8-3,2.7c-0.9,0.9-1.8,1.9-2.6,3c-1.7,2.1-3.1,4.5-4.3,6.9c-2.5,5.4-3.7,11.3-3.6,17.2
				c0.1,6.4,1.6,12.7,4.3,18.5c2.2,4.7,5,9.2,8.3,13.2l0,0c10.8,13,14,41.4,6.2,29.3c-0.4-0.6-0.8-1.3-1.1-1.9
				c-0.5-0.9-1-1.9-1.5-2.9c-0.5-1-1-2.1-1.4-3l-0.5-1c-0.3-0.5-0.7-1-1.2-1.3c-1.6-1-3.8-0.5-4.8,1.1c0,0,0,0,0,0
				c-0.8,1.2-1.5,2.4-2.1,3.7c-0.6,1.2-1.1,2.5-1.5,3.9c-0.9,2.7-1.4,5.5-1.6,8.3c-0.3,6.3,1,12.5,3.7,18.1c1.6,3.2,3.6,6.2,6,8.9
				l0,0c8.4,10.1,18.6,15.4,27.6,16.5c1,0.2,2.1,0.2,3.1,0.2c1.4,0,2.7-0.1,4.1-0.3l0.6-0.1h0.1h0.1c3.3-0.6,6.5-2,9.1-4.1
				c8.4-6.5,13.2-18.6,29.1-26.2c21.6-10.3,32.7-21.2,26.2-41.6c-4.8-15-1.7-33.8,5.1-49.7c0.4-0.8,0.7-1.5,1-2.3v-0.1l0,0v0
				c0.3-0.6,0.5-1.3,0.7-2c0-0.1,0.1-0.2,0.1-0.4c1-3,1.7-6.1,2.1-9.3C532.5,96.7,532.5,93.7,532.3,90.8z" style="fill:#F04E23;"/>
			<path d="M525.9,119.9c-12.6,4.1-24.3,8.5-34.9,12.4c-16.7,6.1-11.9,15.9-21.1,21.5c-9.5,5.8-7.6,19.8-2.9,28.2
				c5.1,8.9-9.6,14-2.8,35.4c1.5,4.4,3,8.8,4.5,13.2c7.9-6.6,13-18.2,28.3-25.5c21.6-10.3,32.7-21.2,26.2-41.6
				C519,150.3,520.9,134.3,525.9,119.9z" style="fill:#10294C;"/>
			<path d="M452.9,194.6c-7.8-3-6.3-7.7-3-11.8c3.3-4.1,10.1,0.6,9.8,4.2C459.3,190.5,456.5,195.9,452.9,194.6z" style="fill:#10294C;"/>
			<path d="M441.9,165.9c-7.8-9.3-9.2-15.4,0.9-23.7c10.1-8.3,12.2,0.5,9.6,12.7C449.8,167.1,445.9,170.7,441.9,165.9z" style="fill:#10294C;"/>
			<path d="M470.5,115.4c-4.5-2.4-0.2-10.2,3.6-7.7C478,110.2,478.4,119.6,470.5,115.4z" style="fill:#10294C;"/>
			<path d="M512.3,178.7L512.3,178.7c-1.5-0.9-3.1-1.7-4.6-2.5c-1.6-0.8-3.1-1.6-4.7-2.3c-2.3-1.2-4.7-2.3-7-3.4l3.6-7
				c1.5-2.9,3-5.8,4.6-8.6l0-0.1c0.5-1,0.2-2.2-0.7-2.7c-0.7-0.4-1.6-0.3-2.3,0.2c-2.6,2.4-4.9,5.1-6.9,8c-1.6,2.4-3,4.8-4.4,7.3
				c-1.9-0.9-3.9-1.9-5.8-2.8l-4.6-2.3c-0.8-0.4-1.5-0.8-2.3-1.2l-2.2-1.1l-0.2-0.1c-0.9-0.5-2.1-0.1-2.6,0.8
				c-0.4,0.7-0.3,1.6,0.3,2.2c0.6,0.7,1.3,1.4,2.1,2c0.7,0.6,1.4,1.2,2.1,1.7c1.4,1.1,2.9,2.1,4.4,3.1c1.9,1.2,3.9,2.4,5.8,3.4
				c-0.8,1.7-1.5,3.4-2.2,5.2c-1.3,3.2-2.4,6.4-3.3,9.7c-0.3,1,0.3,2.1,1.4,2.3c0.8,0.2,1.6-0.1,2.1-0.8l0,0
				c1.8-2.8,3.5-5.8,5.1-8.7c0.9-1.6,1.8-3.3,2.6-4.9c2.5,1.2,5.1,2.2,7.7,3.2c1.6,0.6,3.4,1.2,5.1,1.7c1.7,0.5,3.4,1,5.2,1.3
				c1.1,0.2,2.1-0.5,2.3-1.5C513.4,179.9,513,179.1,512.3,178.7L512.3,178.7z" style="fill:#FFFFFF;"/>
		</g>
		<path d="M624,287.1L624,287.1c-8.6-4.9-17-10-25.2-15.4c-4.1-2.7-8.2-5.4-12.2-8.3s-8.1-5.7-12.1-8.5
			c-8-5.8-15.9-11.7-23.6-17.8c-7.2-5.6-14.4-11.4-21.4-17.3c2.1-8.1,4.6-16.1,7.1-24.1c2.8-8.6,5.9-17.2,9.1-25.7
			c3.2-8.5,6.6-17,10.1-25.4c1.7-4.2,3.5-8.4,5.3-12.6s3.7-8.3,5.5-12.5c0.4-1-0.2-2.1-1.1-2.4c-0.8-0.3-1.8,0-2.2,0.8
			c-4.3,8.1-8.2,16.4-12.1,24.7c-3.9,8.3-7.4,16.8-10.9,25.3c-3.5,8.5-6.7,17.1-9.6,25.8c-3,8.7-5.6,17.5-8,26.5
			c-0.3,1.2,0.1,2.5,1,3.3l0,0c3.8,3.3,7.7,6.4,11.6,9.5c3.9,3.1,7.8,6.2,11.7,9.2c7.9,6,15.9,11.9,24.1,17.6
			c8.2,5.7,16.5,11.1,25,16.4c4.3,2.5,8.5,5.1,12.9,7.5c2.2,1.2,4.3,2.4,6.6,3.6l6.7,3.4c1,0.5,2.1,0,2.6-1
			C625.1,288.7,624.8,287.6,624,287.1L624,287.1z" style="fill:#10294C;"/>
		<path d="M517.3,287.4c0.7,0.6,1.5,1.2,2.2,1.8c1.5,1.1,3,2.2,4.6,3.2c2,1.3,4,2.4,6.1,3.6c-0.8,1.8-1.6,3.6-2.4,5.4
			c-1.4,3.3-2.5,6.6-3.4,10c-0.3,1,0.3,2.1,1.4,2.3c0.8,0.2,1.6-0.1,2.1-0.8l0,0c1.9-2.9,3.6-5.9,5.3-8.9c0.9-1.7,1.9-3.4,2.8-5.1
			c2.6,1.2,5.3,2.3,8,3.3c1.7,0.6,3.5,1.2,5.2,1.8c1.7,0.6,3.5,1,5.3,1.4c1.1,0.2,2.1-0.4,2.4-1.5c0.2-0.8-0.2-1.7-0.9-2.2l0,0
			c-1.6-0.9-3.2-1.7-4.8-2.6c-1.6-0.8-3.2-1.6-4.8-2.4c-2.4-1.2-4.9-2.4-7.3-3.6l3.8-7.3c1.6-3,3.1-6,4.8-8.8l0-0.1
			c0.6-0.9,0.3-2.1-0.7-2.7c-0.7-0.5-1.7-0.4-2.3,0.2c-2.7,2.5-5,5.3-7,8.3c-1.6,2.5-3.2,5-4.5,7.6c-2-1-4.1-1.9-6.1-2.9l-4.8-2.4
			c-0.8-0.4-1.6-0.8-2.3-1.2l-2.3-1.2l-0.2-0.1c-0.9-0.5-2.1-0.1-2.6,0.8c-0.4,0.7-0.2,1.6,0.3,2.1
			C515.9,286.1,516.6,286.7,517.3,287.4z" style="fill:#10294C;"/>
		<path d="M513.3,252.4c-0.4-2.3-1.1-4.6-1.7-6.9c-0.3-1.1-0.7-2.2-1-3.4s-0.7-2.2-1.1-3.3c-0.4-1.1-0.8-2.2-1.2-3.3
			c-0.4-1.1-0.9-2.2-1.3-3.3c-1-2.1-1.9-4.3-3-6.4c-2.1-4.2-4.6-8.3-7.4-12.1c-0.6-0.9-1.7-1.1-2.6-0.5c-0.8,0.5-1.1,1.6-0.6,2.4
			v0.1c1.8,4.1,3.6,8.3,5.2,12.5c0.8,2.1,1.7,4.2,2.4,6.3c0.4,1.1,0.8,2.1,1.2,3.2c0.4,1.1,0.7,2.1,1.1,3.2c0.9,2.5,1.7,5.1,2.6,7.7
			c-0.4,1.3-0.8,2.6-1.2,3.9l-1.3,4.6l-1.3,4.6c-0.4,1.5-0.9,3.1-1.2,4.6v0.1c-0.2,0.8,0.3,1.5,1.1,1.7c0.5,0.1,1-0.1,1.4-0.5
			c1.1-1.3,2.1-2.8,2.8-4.4c0.8-1.5,1.4-3.2,1.9-4.8c0.1-0.5,0.3-0.9,0.4-1.4c1,3.3,1.8,6.6,2.8,9.9v0.1c0.3,1,1.4,1.6,2.5,1.3
			c0.9-0.3,1.4-1.1,1.4-2C514.9,261.7,514.3,257,513.3,252.4z" style="fill:#10294C;"/>
		<g>
			<path d="M600.8,89.3c-0.5-1.2-1.6-2.1-2.9-2.4c-1.7-0.2-3.4,1-4.8,1.9c-3.4,2.1-6.4,4.7-9.1,7.6
				c-2.9,3.2-5.6,6.6-8.2,10.1c-1.5,2.1-2.9,4.2-4.1,6.5c0.2,0,0.4-0.1,0.5-0.1l5-2.4c0.7-0.4,1.6-0.1,2,0.7c0,0.1,0.1,0.2,0.1,0.3
				l1.2,4.1c0.2,0.8,1.1,1.3,1.9,1c0.2-0.1,0.4-0.2,0.6-0.3l0.9-0.8c0.6-0.5,1.6-0.5,2.1,0.2c0.2,0.2,0.3,0.4,0.3,0.6l2.4,9.9
				c0.2,0.8,1,1.3,1.8,1.1c0.3-0.1,0.5-0.2,0.7-0.4l8.6-8.2c0.6-0.6,1.6-0.6,2.1,0c0.1,0.1,0.2,0.2,0.2,0.3l2.3,3.9
				c0.2,0.4,0.6,0.7,1.1,0.7c0.3-5.2-0.3-10.4-0.8-15.6C604.2,101.6,603.4,95.2,600.8,89.3z" style="fill:#FFFFFF;"/>
			<path d="M561.9,189.4L550,192c-1.1,0.2-1.8,1.3-1.6,2.4c0.1,0.3,0.2,0.6,0.4,0.9l1.2,1.5c0.7,0.8,0.6,2-0.2,2.7
				l-5.3,5c-0.8,0.8-0.9,2-0.1,2.8c0.3,0.3,0.6,0.5,1.1,0.6l9.7,2.2c0.7,0.2,1.3,0.7,1.5,1.4l2.4,8.5c0.3,1.1,1.5,1.7,2.5,1.4
				c0.1,0,0.3-0.1,0.4-0.2l9.9-5.5c0.7-0.4,1.5-0.3,2.2,0.1l5.8,4c0.9,0.6,2.2,0.4,2.9-0.5c0,0,0,0,0-0.1l2.4-3.8
				c0.5-0.8,1.6-1.2,2.5-0.8l7.5,2.9c1,0.4,2.2-0.1,2.6-1.1c0.2-0.5,0.2-1.1,0-1.6l-1.9-4c-0.4-0.9-0.1-2.1,0.8-2.6l2.1-1.2
				c1-0.6,1.3-1.8,0.7-2.7c-0.1-0.2-0.3-0.4-0.5-0.6l-4.5-3.5c-0.1-0.1-0.2-0.1-0.3-0.2l-15.9-9.1c-0.3-0.2-0.6-0.2-0.9-0.3
				l-15.1-1.2C562.4,189.4,562.1,189.4,561.9,189.4z" style="fill:#10294C;"/>
			<path d="M604.4,122.7l-2.3-4c-0.4-0.7-1.3-1-2.1-0.5c-0.1,0.1-0.2,0.1-0.3,0.2l-8.6,8.3c-0.6,0.6-1.6,0.5-2.1-0.1
				c-0.2-0.2-0.3-0.4-0.4-0.7l-2.4-9.9c-0.2-0.8-1-1.3-1.8-1.1c-0.2,0.1-0.5,0.2-0.6,0.3L583,116c-0.6,0.5-1.6,0.5-2.1-0.1
				c-0.1-0.2-0.3-0.4-0.3-0.6l-1.2-4.1c-0.2-0.8-1-1.2-1.8-1c-0.1,0-0.2,0.1-0.3,0.1l-5,2.4c-0.2,0.1-0.3,0.1-0.5,0.1
				c-0.8,1.5-1.5,3.1-2.1,4.7c-1.4,4.2-2.6,8.4-3.5,12.8c-1,4.3-2,8.6-2.9,12.9c-3.7,17.3-6.3,34.9-7.7,52.5
				c-0.1,0.8-0.1,1.6-0.2,2.4c-0.3,12.3,37.3,16.5,38.7,0.5c0,0,0-0.1,0-0.1c0.4-6.3,0.9-12.6,1.6-18.8c1-8.9,2.3-17.7,3.9-26.5
				c0.8-4.4,1.7-8.7,2.6-13.1c0.9-4.2,2.1-8.5,2.8-12.7c0.2-1.3,0.4-2.7,0.4-4.1C605,123.3,604.7,123.1,604.4,122.7z" style="fill:#FDB813;"/>
			<path d="M570.5,189.8c0.8,0.4,1.7,0,2.1-0.7V189c0.5-1.1,0.8-2.2,1.1-3.3c0.2-1.1,0.4-2.2,0.5-3.4
				c0.1-1.1,0.1-2.3,0.1-3.4c0-1.2-0.2-2.3-0.5-3.5v-0.1c-0.1-0.4-0.4-0.8-0.8-1c-0.7-0.4-1.6,0-2,0.7c-0.5,1.1-0.9,2.2-1.1,3.4
				c-0.3,1.1-0.4,2.3-0.6,3.4c-0.1,1.2-0.2,2.3-0.1,3.5c0,1.2,0.2,2.4,0.4,3.5C569.8,189.3,570.1,189.6,570.5,189.8z" style="fill:#10294C;"/>
			<path d="M585.5,165.1c0.8,0.3,1.6-0.1,1.9-0.9l0,0c0.8-2.2,1.4-4.4,1.9-6.6c0.5-2.2,1-4.4,1.5-6.6
				c0.4-2.2,0.8-4.5,1.2-6.7c0.4-2.3,0.7-4.5,0.8-6.8c0-0.8-0.6-1.5-1.4-1.5c-0.6,0-1.1,0.3-1.4,0.8c-0.9,2.1-1.7,4.3-2.3,6.5
				c-0.7,2.2-1.2,4.5-1.7,6.7c-0.5,2.2-0.8,4.5-1.1,6.8c-0.3,2.3-0.4,4.6-0.4,6.9C584.5,164.3,584.9,164.9,585.5,165.1z" style="fill:#10294C;"/>
		</g>
		<path d="M772.3,492.4c-8-3.8-15.9-7.8-23.7-12.1c-7.8-4.2-15.5-8.6-23.2-13c-7.7-4.4-15.3-9.1-22.8-13.8l0,0
			c-0.6-0.4-1.5-0.3-2,0.3c-0.4,0.6-0.3,1.5,0.3,2c7.2,5.4,14.5,10.5,22.1,15.3c7.6,4.8,15.3,9.3,23.2,13.6
			c7.9,4.3,15.9,8.2,24.2,11.8c5,2.2,10,4.2,15.1,6.1c0.4-1.2,0.8-2.4,1.2-3.6C781.9,496.9,777.1,494.7,772.3,492.4z" style="fill:#10294C;"/>
	</g>
</g>
</svg>
