<svg id="floral-and-botanical_eco-technologies" xmlns="http://www.w3.org/2000/svg" viewBox="0 0 800 800"><title>floral-and-botanical_eco-technologies</title><path d="M509.67,745.08h-.34c-4.3-.18-6.64-3.64-8.33-6.54-2.35,2.38-5.47,5.15-9.67,4.26s-5.95-4.7-7.13-7.84c-2.72,1.95-6.27,4.16-10.26,2.57s-5.08-5.68-5.71-9c-3,1.44-7,3-10.62.69s-4-6.65-3.92-10.07c-3.32.78-7.57,1.55-10.69-1.6s-2.32-7.58-1.46-10.95c-3.48-.13-7.94-.49-10.1-4.54s.09-8.14,2-11.13c-3.3-1.33-7.53-3.22-8.13-7.94-.61-4.88,3.34-7.77,6.22-9.88.57-.42,1.36-1,1.83-1.4A6,6,0,0,1,445,674.18c-.21,3-2.06,5.16-4.1,6.86,2.4,1.14,4.73,2.74,5.67,5.63s-.06,5.71-1.4,8.09c2.76.24,5.65,1,7.57,3.5s1.76,5.74,1.15,8.53c2.85-.56,6-.72,8.62,1.38s3.18,5.33,3.23,8.27c2.73-1.19,5.84-2.1,9-.51s4.22,4.69,4.84,7.61c2.49-1.69,5.43-3.18,8.82-2.16s5,3.92,6.13,6.71c2.17-2.09,4.82-4.07,8.35-3.63s5.59,3,7.16,5.6c1.79-2.43,4.07-4.82,7.61-5s6,2,8,4.27c1.33-2.69,3.15-5.42,6.59-6.19s6.2.89,8.55,2.72c.8-2.86,2.08-5.85,5.28-7.26s6.23-.32,8.87,1c.23-3,.9-6.13,3.75-8.13s6.06-1.53,8.9-.73c-.35-3-.31-6.21,2.11-8.74s5.7-2.67,8.67-2.42c-.91-2.87-1.47-6.11.48-9.06s5.22-3.66,8.22-3.92c-1.38-2.72-2.5-5.87-1-9.14s4.67-4.45,7.64-5.16c-1.77-2.53-3.35-5.54-2.27-9s4.13-5.06,7-6.14c-2.08-2.33-4-5.17-3.34-8.82a6,6,0,0,1,11.84.31c.4.49,1,1.18,1.51,1.68,2.33,2.49,5.52,5.89,4.42,10.36-1,4.07-4.7,5.75-7.82,6.87,1.93,2.65,4.08,6.1,2.61,10s-5.44,5.17-8.7,5.89c1.57,2.92,3.27,6.67,1.22,10.38s-6.2,4.35-9.56,4.58c1.09,3.15,2.19,7.18-.48,10.54s-6.92,3.24-10.29,2.88c.5,3.33.87,7.53-2.41,10.36s-7.45,1.87-10.69.87c-.16,3.37-.61,7.59-4.41,9.72s-7.66.37-10.64-1.25c-.82,3.27-2.09,7.31-6.23,8.66s-7.55-1.11-10.15-3.27c-1.42,3.06-3.43,6.76-7.72,7.32s-7.18-2.45-9.35-5C516.3,741.92,513.77,745.08,509.67,745.08Z" style="fill:#00aee0;"/><path d="M436,679.5a2,2,0,0,1-1.37-.54,2,2,0,0,1-.1-2.82,1.9,1.9,0,0,0,.42-.56,2,2,0,0,1,2.12-1.83,2,2,0,0,1,1.86,2.16,4.87,4.87,0,0,1-1.47,3A2,2,0,0,1,436,679.5Z" style="fill:#04294f;"/><path d="M510.84,740.62a2,2,0,0,1-1.62-.82,2,2,0,0,1,.44-2.8,12.92,12.92,0,0,0,2.09-2.52,2,2,0,0,1,3.28,2.28,14.43,14.43,0,0,1-3,3.48A2,2,0,0,1,510.84,740.62Zm15.71-.28a5.07,5.07,0,0,1-3.38-1.58,2,2,0,0,1,2.69-3,3.22,3.22,0,0,0,.6.47h0a2,2,0,1,1,2.91,2.75,4.08,4.08,0,0,1-2.38,1.31A3.54,3.54,0,0,1,526.55,740.34Zm-29.69-4.16a2,2,0,0,1-1.43-3.4,35.51,35.51,0,0,1,3.05-2.9A2,2,0,1,1,501,733a34.16,34.16,0,0,0-2.68,2.56A2,2,0,0,1,496.86,736.18Zm44.33-.25a2,2,0,0,1-1.05-.3,26,26,0,0,1-3-2.32l-.33-.27a2,2,0,1,1,2.57-3.07l.33.28a25.37,25.37,0,0,0,2.55,2,2,2,0,0,1-1,3.71Zm-54.87-3.29a2,2,0,0,1-1.63-.84,3,3,0,0,0-.65-.73,1.26,1.26,0,0,0-.3.09,2,2,0,1,1-1.44-3.73,4.91,4.91,0,0,1,1.8-.37,5.21,5.21,0,0,1,1,.15,5.58,5.58,0,0,1,2.8,2.27,2,2,0,0,1-1.63,3.16ZM484,731ZM472,731a2,2,0,0,1-2-1.64l-.08-.44a23.63,23.63,0,0,0-.7-3.14,2,2,0,0,1,3.79-1.28,26.24,26.24,0,0,1,.85,3.71l.07.44A2,2,0,0,1,472.4,731Zm81.38-3.27a1.94,1.94,0,0,1-1-.25,15.64,15.64,0,0,0-3.08-1.43,2,2,0,1,1,.91-3.89,17.35,17.35,0,0,1,4.1,1.82,2,2,0,0,1-1,3.75Zm-95.47-1a2,2,0,0,1-1.93-1.48,14.16,14.16,0,0,1-.34-3.55v-.93a2,2,0,0,1,2-2h0a2,2,0,0,1,2,2v.89a11.36,11.36,0,0,0,.2,2.5,2,2,0,0,1-1.41,2.45A1.86,1.86,0,0,1,458,726.75ZM561,720.55l-.37,0a2,2,0,0,1-1.59-2.34,5,5,0,0,1,1.84-3.38,4.32,4.32,0,0,1,2.72-.68,2,2,0,0,1-.18,4h-.24a4.45,4.45,0,0,0-.21.8A2,2,0,0,1,561,720.55Zm2.08-2.42h0ZM447,717.84a3.85,3.85,0,0,1-4.22-4.1,2,2,0,0,1,2-2,2,2,0,0,1,2,2c0,.06,0,.12,0,.16h.49a2,2,0,1,1,.23,4Zm126.82-3.49a2,2,0,0,1-2-1.69l-.06-.37a26.47,26.47,0,0,1-.42-3.85,2,2,0,0,1,2-2h0a2,2,0,0,1,2,2,23.63,23.63,0,0,0,.37,3.25l.06.37a2,2,0,0,1-1.66,2.29A1.72,1.72,0,0,1,573.77,714.35Zm11.94-8.63a2,2,0,0,1-2-1.86,15.75,15.75,0,0,0-.92-3.28,2,2,0,1,1,3.78-1.33,17.6,17.6,0,0,1,1.13,4.33,2,2,0,0,1-1.86,2.13Zm-145.25-1.1h-.21a23.87,23.87,0,0,1-4.18-.38,2,2,0,0,1,.89-3.9,21.77,21.77,0,0,0,3.43.29h.13a2,2,0,0,1-.06,4Zm152.48-10.51a2,2,0,0,1-.47-4A3.07,3.07,0,0,0,593,690s0-.09,0-.15a2,2,0,0,1,1.46-2.43,2,2,0,0,1,2.42,1.46,5.08,5.08,0,0,1,.18,1.3,3.6,3.6,0,0,1-.44,1.77,4.6,4.6,0,0,1-3.19,2.11A1.89,1.89,0,0,1,592.94,694.11Zm-155.35-2.94a2,2,0,0,1-1.09-.32,20.2,20.2,0,0,0-3.16-1.47l.68-1.88.75-1.85L434,687.5l.81-1.83a23.13,23.13,0,0,1,3.87,1.83,2,2,0,0,1-1.11,3.67Zm158.87-11.29a2,2,0,0,1-.41-4l.11,0a22.16,22.16,0,0,0,3.36-.88,2,2,0,1,1,1.53,3.69,23.93,23.93,0,0,1-4.07,1.1l-.1,0A2,2,0,0,1,596.46,679.88Zm1.74-14a2,2,0,0,1-1.07-3.69,20.33,20.33,0,0,1,4.06-1.73,2,2,0,0,1,1.3,3.79,18.39,18.39,0,0,0-3.23,1.32A2,2,0,0,1,598.2,665.84Z" style="fill:#04294f;"/><path d="M601.44,653.38a2,2,0,0,1-1.71-1,4.6,4.6,0,0,1-.78-3.3,2,2,0,0,1,2.34-1.59,2,2,0,0,1,1.59,2.32s.06.15.27.5a2,2,0,0,1-.68,2.74A1.94,1.94,0,0,1,601.44,653.38Z" style="fill:#04294f;"/><path d="M250.82,635.72a324.54,324.54,0,0,0,16.63,44.48,10.31,10.31,0,0,0,3.67,4.16,120.65,120.65,0,0,0,19.69,10.7,10.7,10.7,0,0,1,6.28,6.51c1.79,5.7,5,15.53,8.38,23.52a10.91,10.91,0,0,0,6.93,6.06c10,3.1,34.88,9.26,75.05,9.16a11.52,11.52,0,0,1,10.55,6.2l.66,1.4a11.34,11.34,0,0,0,9.35,6.17,130.34,130.34,0,0,0,40-1.85,11,11,0,0,0,8.24-6.7c1.5-4,3.9-10.92,7.52-22.28a11.09,11.09,0,0,1,9.72-7.32,168.84,168.84,0,0,0,37.62-8.49,10.43,10.43,0,0,0,7.19-8.18l0-.16a10.38,10.38,0,0,1,6.51-7.92c1.5-.63,3.11-1.36,4.63-2.17a10.17,10.17,0,0,0,5.43-7.17c1.84-10.7,9.65-40.7,9.55-60.45-.12-21.31-226.3-3.26-283.69,1.66C253.74,623.65,249,629.68,250.82,635.72Z" style="fill:#ff3a00;"/><path d="M510,585.69a6.17,6.17,0,0,0-3.11-.54l-28.75,2.62a6.08,6.08,0,0,1-6.46-4.65l-1.68-7a6.09,6.09,0,0,0-4.72-4.55,347.3,347.3,0,0,0-69.39-6.69c-29.71,0-57.36,3.4-80.57,9.24a6.08,6.08,0,0,0-2.33,1.16L299.93,585.8a6,6,0,0,1-2.9,1.27l-23.92,3.62a6.25,6.25,0,0,0-2.25.8c-14.84,9-23.45,19.69-23.45,31.17a25.36,25.36,0,0,0,3.78,13,6.09,6.09,0,0,0,3.44,2.68l24.49,7.48a6.1,6.1,0,0,1,3.91,3.67l.35.94c0,.25.05.51.08.77.36,3.16.88,6.3,1.54,9.4a67.57,67.57,0,0,0,2.57,9.2,35.81,35.81,0,0,0,4.39,8.71.79.79,0,0,0,.61.32.78.78,0,0,0,.8-.76h0a60,60,0,0,0-.68-9.56c-.2-1.35-.44-2.7-.7-4a4.14,4.14,0,0,1,4.07-4.93h17.07a6,6,0,0,1,3.15.88L342.09,676a6.06,6.06,0,0,0,2.29.82c5.25.76,10.65,1.4,16.16,1.92a3.84,3.84,0,0,1,3.5,3.56c0,1,.15,2,.29,3.06a32.28,32.28,0,0,0,.77,3.69,16.76,16.76,0,0,0,1.46,3.65.83.83,0,0,0,.44.36.8.8,0,0,0,1-.5v0a36.39,36.39,0,0,0,1.58-7.22c.08-.66.15-1.32.2-2a3.86,3.86,0,0,1,4.07-3.56l1.93.1a2.75,2.75,0,0,1,2.59,2.85v0a35.14,35.14,0,0,0,.42,7.3,21.48,21.48,0,0,0,2.54,7.32,1.12,1.12,0,0,0,.4.41,1.14,1.14,0,0,0,1.56-.42h0a22.68,22.68,0,0,0,2.53-7.28,35.68,35.68,0,0,0,.5-7.29v0a2.37,2.37,0,0,1,2.41-2.44q3.56.07,7.15.08c37.36,0,71.5-5.37,97.6-14.23a6,6,0,0,0,3.68-3.56l4-10.49a6.1,6.1,0,0,1,3.92-3.64L524,642.83l.26-.08a1.22,1.22,0,0,1,1.61,1.35v0a73.79,73.79,0,0,0-.91,8,38.77,38.77,0,0,0,.36,8.28h0a.78.78,0,0,0,.35.52.79.79,0,0,0,1.1-.23,29.9,29.9,0,0,0,3.4-7.68,48.53,48.53,0,0,0,1.61-8.06,68,68,0,0,0,.54-8.2c0-1.36,0-2.72-.14-4.09a5.23,5.23,0,0,1,.84-.54l8.24-4.28a5.89,5.89,0,0,0,3.17-5.2h0C544.43,608.6,531.5,595.71,510,585.69Z" style="fill:#04294f;"/><path d="M327.5,701.59a32.6,32.6,0,0,1,2.89,6,52.15,52.15,0,0,1,1.88,6.17l.35,1.56a5.92,5.92,0,0,0,.21.91,2.79,2.79,0,0,0,.71,1.11c.1.07.19.17.31.24l.08.06.17.07.35.16c.48.2,1,.41,1.44.64a26.86,26.86,0,0,1,3,1.55h0a.83.83,0,0,1,.27,1.14,1,1,0,0,1-.39.33,13.3,13.3,0,0,1-3.44.84,17,17,0,0,1-1.75.1h-.67l-.31,0a6.53,6.53,0,0,1-1.22-.28,6.92,6.92,0,0,1-3.85-3.3,8,8,0,0,1-.75-2.17l-.34-1.59a53.67,53.67,0,0,1-.86-6.48,32.27,32.27,0,0,1,.14-6.65,1,1,0,0,1,1.77-.39Z" style="fill:#04294f;"/><path d="M466.72,715.12a35.49,35.49,0,0,1,.79-6.08q.58-2.88,1.38-5.67a41.42,41.42,0,0,1,1.93-5.51,21.9,21.9,0,0,1,3.2-5.3h0a.84.84,0,0,1,1.18-.09.8.8,0,0,1,.26.4,17.13,17.13,0,0,1,.47,6.32,25.83,25.83,0,0,1-1.34,6,32.67,32.67,0,0,1-2.48,5.62,23.11,23.11,0,0,1-3.69,5l-.06.07a1,1,0,0,1-1.36,0A1,1,0,0,1,466.72,715.12Z" style="fill:#04294f;"/><path d="M392.46,724a5.07,5.07,0,0,1-2-1,3.47,3.47,0,0,1-1-1.31,2.28,2.28,0,0,1-.18-1.58,4.19,4.19,0,0,1,1.3-2,1.64,1.64,0,0,1,1.38-.45h0a4.54,4.54,0,0,1,2.32.9,2.37,2.37,0,0,1,.84,1.36,3.73,3.73,0,0,1,0,1.63,4.9,4.9,0,0,1-1,2,1.61,1.61,0,0,1-1.71.56Z" style="fill:#04294f;"/><path d="M403.67,738.83a6.81,6.81,0,0,1-1.37-1,6.06,6.06,0,0,1-.92-1,5.31,5.31,0,0,1-.93-2.09,3.3,3.3,0,0,1,.23-2.17,5.71,5.71,0,0,1,2.31-2.33,2.12,2.12,0,0,1,1.92-.16h0a6.24,6.24,0,0,1,2.76,1.95,3.29,3.29,0,0,1,.68,2.1,4.87,4.87,0,0,1-.47,2.19,5,5,0,0,1-.7,1.13,6.12,6.12,0,0,1-1.13,1.17,2.2,2.2,0,0,1-2.39.2Z" style="fill:#04294f;"/><path d="M501,689.54a6.7,6.7,0,0,1-1.1-1.27,5.54,5.54,0,0,1-.66-1.2,5.23,5.23,0,0,1-.42-2.24,3.31,3.31,0,0,1,.73-2.07,5.69,5.69,0,0,1,2.78-1.72,2.16,2.16,0,0,1,1.92.29l0,0a6.25,6.25,0,0,1,2.22,2.54,3.35,3.35,0,0,1,.18,2.21,5,5,0,0,1-1,2,5.18,5.18,0,0,1-.94.93,6.08,6.08,0,0,1-1.38.87,2.18,2.18,0,0,1-2.36-.36Z" style="fill:#04294f;"/><path d="M306.68,686.24a5.11,5.11,0,0,1-1.85-1.22,3.77,3.77,0,0,1-.86-1.43,2.26,2.26,0,0,1,0-1.58,4.17,4.17,0,0,1,1.53-1.89,1.68,1.68,0,0,1,1.43-.28h0a4.62,4.62,0,0,1,2.2,1.17,2.38,2.38,0,0,1,.68,1.45,3.56,3.56,0,0,1-.19,1.62,4.7,4.7,0,0,1-1.19,1.82,1.63,1.63,0,0,1-1.76.35Z" style="fill:#04294f;"/><path d="M524.67,670.1a4.47,4.47,0,0,1,1,1.84,3.46,3.46,0,0,1,.06,1.59,2.18,2.18,0,0,1-.78,1.32,4.06,4.06,0,0,1-2.24.8,1.78,1.78,0,0,1-1.37-.47l0,0a4.81,4.81,0,0,1-1.37-2,2.06,2.06,0,0,1,.09-1.46,3.1,3.1,0,0,1,.93-1.18,5.11,5.11,0,0,1,1.92-.94h0A1.7,1.7,0,0,1,524.67,670.1Z" style="fill:#04294f;"/><path d="M636.67,616.49c.43-8-.07-15.56-1.52-16.81-2.92-2.52-57.6-9.49-57.6-9.49s-1.95,22.81,1.6,38.65a23.73,23.73,0,0,0,2.48,7.68h0a22.94,22.94,0,0,0,1.74,2.76c5.72,9.55,13,11.83,20.42,15C612.2,657.75,640,656.88,636.67,616.49Z" style="fill:#04294f;"/><path d="M613.86,587.88c-19.67-7.31-35.84-13.32-41.88-3.16,4.7,6.85,17.39,11.57,32,17,19.67,7.32,35.84,13.33,41.87,3.17C641.17,598,628.48,593.32,613.86,587.88Z" style="fill:#ff3a00;"/><path d="M604,601.72c-14.62-5.43-27.31-10.15-32-17a14.41,14.41,0,0,0-1.08,2.3C566,600.29,583,606.62,604,614.43s38,14.14,43,.86a10.68,10.68,0,0,0-1.09-10.4C639.83,615.05,623.66,609,604,601.72Z" style="fill:#04294f;"/><path d="M579.78,605.87c4.44,1.7,8.91,3.21,13.41,4.72,2.25.77,4.51,1.51,6.75,2.3s4.5,1.57,6.73,2.38,4.47,1.59,6.69,2.41,4.43,1.6,6.66,2.32a60.14,60.14,0,0,0,13.55,3.31h0a.48.48,0,0,1,.45.54.5.5,0,0,1-.38.44,24.37,24.37,0,0,1-7.38.31,51,51,0,0,1-7.21-1.23,117.76,117.76,0,0,1-13.75-4.4c-2.24-.82-4.46-1.69-6.67-2.59s-4.43-1.8-6.63-2.75a85.6,85.6,0,0,1-12.79-6.7.61.61,0,0,1-.17-.84.62.62,0,0,1,.73-.23Z" style="fill:#ff3a00;"/><path d="M583,587.43a3.51,3.51,0,0,0,1.6,2.76,6.55,6.55,0,0,0,4.51,1.16c2.43-.16,7.13-2.55,7.13-4.71V559.53c0-1.43-4.32-2.76-5.58-2.76a11.86,11.86,0,0,0-6,2.52,3.66,3.66,0,0,0-1.23,2.55C583.23,565.48,582.25,577.74,583,587.43Z" style="fill:#ffb400;"/><path d="M594,560.86a6.62,6.62,0,0,0-2.34.43c-.36.13-.73.26-1.07.42s-.67.33-1,.53a1,1,0,0,0-.5.74l-.06.42a73.14,73.14,0,0,0-.39,12.37c.06,2.07.22,4.12.4,6.18s.45,4.12.84,6.19a.62.62,0,0,0,1.21,0,47.34,47.34,0,0,0,1-6.2c.2-2.07.36-4.14.41-6.21a70.53,70.53,0,0,0-.5-11.88l0-.06.72-.71a12.87,12.87,0,0,1,1.49-1.29l0-.05a.48.48,0,0,0,.21-.4A.49.49,0,0,0,594,560.86Z" style="fill:#ff3a00;"/><path d="M619.71,600.69a3.51,3.51,0,0,0,1.6,2.76,6.55,6.55,0,0,0,4.51,1.16c2.44-.16,7.13-2.55,7.13-4.71V572.79c0-1.43-4.32-2.76-5.58-2.76a11.86,11.86,0,0,0-6,2.52,3.66,3.66,0,0,0-1.23,2.55C619.93,578.74,619,591,619.71,600.69Z" style="fill:#ffb400;"/><path d="M630.69,574.12a6.62,6.62,0,0,0-2.34.43c-.36.13-.73.26-1.07.42s-.67.33-1,.53a1,1,0,0,0-.5.74l0,.42a72.12,72.12,0,0,0-.4,12.37c.06,2.07.22,4.12.4,6.18s.45,4.12.84,6.19a.62.62,0,0,0,1.21,0,47.34,47.34,0,0,0,1-6.2c.2-2.07.36-4.14.41-6.21a69.49,69.49,0,0,0-.5-11.88l.06-.06.71-.71a14,14,0,0,1,1.49-1.3l.05,0a.48.48,0,0,0,.21-.4A.49.49,0,0,0,630.69,574.12Z" style="fill:#ff3a00;"/><ellipse cx="591.13" cy="626.12" rx="2.31" ry="5.33" style="fill:#ffb400;"/><ellipse cx="612.24" cy="634.71" rx="2.31" ry="5.33" style="fill:#ffb400;"/><path d="M472.74,611.61c-1-3.75-1.95-7.49-3.25-11.48a43.73,43.73,0,0,0-2.55-6.29,25.46,25.46,0,0,0-4.69-6.51,29.4,29.4,0,0,0-6.37-4.77,61.87,61.87,0,0,0-6.13-3c-1-.43-1.95-.83-2.91-1.22l-2.7-1.1c-1.64-.69-3.23-1.41-4.68-2.15a26.63,26.63,0,0,1-3.74-2.28,4.71,4.71,0,0,1-1.68-1.84l-.86-5.8a34.67,34.67,0,0,0-2.73-8.44,31.13,31.13,0,0,0-5.57-8.09,29,29,0,0,0-3.08-2.77c-2.7-8,.77-14.36,3.7-28.3,4-19-12-32-11-50S428,447,414,407c-.8-2.29-1.51-4.61-2.16-7-4-17,4-26.57,2.16-41-1.91-15.29-7.07-12.06-4.67-29.31.09-.59.18-1.17.26-1.73l.12-.79c1-6.06,1.79-9.67,1.79-9.67l-43.65-13.45s15.77,57,8.22,69.68-7.28,20.8-3.63,29,1.09,22.6-3.19,29.8c-6.25,10.51-7.85,31.64-.37,44s-2.11,22.06-7.88,39.83c-4.67,14.38-5.43,23-.71,36.63-.56.61-1.1,1.24-1.61,1.87a36,36,0,0,0-5.06,8.64,32.43,32.43,0,0,0-2.44,10.29c0,.49,0,1,0,1.51V576a4.66,4.66,0,0,0,0,.62l.12,1.38.1,1.1,0,.48,0,.39c.06,1,.09,1.42.07,1.84a3.05,3.05,0,0,1-.85,1.7c-.19.18-.36.36-.54.56s-.48.38-.71.58a14.5,14.5,0,0,1-1.71,1.17c-.6.4-1.38.74-2.07,1.13s-1.56.67-2.35,1c-.3.14-1,.42-1.62.65l-1.82.73a18.13,18.13,0,0,0-1.82.83l-1.82.93a18.76,18.76,0,0,0-1.81,1.05l-1.78,1.14c-.59.41-1.16.89-1.72,1.33a20.1,20.1,0,0,0-1.67,1.41,31,31,0,0,0-3,3.2c-.44.57-.92,1.13-1.31,1.71l-1.14,1.77a17.72,17.72,0,0,0-1,1.78c-.3.59-.63,1.19-.89,1.78-.49,1.16-1,2.35-1.41,3.47l-.6,1.69-.51,1.64c-.36,1.11-.64,2.15-.94,3.2-1.15,4.19-2.13,8.07-3.38,11.83l0,0c-.9,2.7,1.24,3.73,3.82,5.13,2.9,1.57,5.52,2.49,7.08-.41,2.13-3.94,3.94-8,5.69-11.7s3.5-7,5.47-9.14a14.42,14.42,0,0,1,6.81-4.2l1.09-.3a6.79,6.79,0,0,1,1.12-.28l1.18-.24,1.38-.3c1.22-.29,2.42-.53,3.66-.88s2.49-.71,3.78-1.22A34.08,34.08,0,0,0,360,603c.67-.34,1.32-.65,2-1.05s1.35-.85,2-1.29a28.57,28.57,0,0,0,3.54-2.94h0c4-4.09,7.41,1.34,4.41,4.47-.38.48-.89,1-1.33,1.44l-.68.72-1,1a35.41,35.41,0,0,0-7.4,9.78,33.77,33.77,0,0,0-1.3,3.16c-.33,1.1-.61,2.22-.83,3.32a27.35,27.35,0,0,0-.29,6.3,71,71,0,0,0,1.66,10c.63,3,1.15,5.78,1.48,8.64v.14c.28,2.41,2.22,2.38,4.74,2.6,2.87.26,5.42.14,5.67-2.74.3-3.35.36-6.72.34-9.91a58.77,58.77,0,0,1,.29-8.51,11.3,11.3,0,0,1,.79-2.91c.2-.39.4-.74.6-1.09s.45-.67.76-1a20.88,20.88,0,0,1,4.93-4l.8-.52,1.1-.76c.74-.53,1.48-1,2.22-1.57l2.22-1.75c.75-.64,1.49-1.33,2.22-2s1.46-1.53,2.19-2.31,1.4-1.78,2.08-2.69c.38-.56.74-1.15,1.1-1.75,0,0,0,0,0,0,2.66-4.89,6.63-6,10.49-4a41.72,41.72,0,0,1,9.33,7.75,33.35,33.35,0,0,1,7,12.11,41.74,41.74,0,0,1,1.69,14.92v.18c-.15,2.66,1.58,3.16,4.26,3.87,3.07.82,6.22,1,7-2.07a55.08,55.08,0,0,0,1.72-19.71,51.41,51.41,0,0,0-2.16-10.16,52.62,52.62,0,0,0-4.27-9.58q-.66-1.19-1.38-2.31h0c-2.45-3.56-.29-4.27,4.36-3.09,2.15.62,4.22,1.11,6.27,1.53l2.82.57,2.59.54c1.68.38,3.25.79,4.6,1.23A15.82,15.82,0,0,1,452,599a9.83,9.83,0,0,1,2.61,2.37,29,29,0,0,1,2.61,4c1.72,3.1,3.37,6.61,5,10.08l0,0c1.14,2.38,3.85,1.68,6.5,1C471.77,615.67,473.54,614.6,472.74,611.61Z" style="fill:#00aee0;"/><path d="M379.46,429.9l-2-2.15c-.71-.73-1.43-1.44-2.17-2.15a41.81,41.81,0,0,0-5.25-4.21,31.53,31.53,0,0,0-3.26-1.94l-1.86-.86c-.63-.26-1.32-.48-2-.71a25.48,25.48,0,0,0-8.08-1.1,34.26,34.26,0,0,0-6.66.88c-2,.43-3.76.92-5.51,1.4-3.47,1-6.74,2.1-9.61,2.8a28.26,28.26,0,0,1-3.8.73,7.74,7.74,0,0,1-2.51-.06,3.41,3.41,0,0,1-1-.4c-.18-.13-.33-.2-.57-.38l-.91-.83-3.83-3.57a52,52,0,0,0-8.95-6.83,30.07,30.07,0,0,0-3.84-1.84,1.54,1.54,0,0,1-.31-.12l-.79-.26c-2.45-.55-3.7,2-2.3,3.26a33.51,33.51,0,0,1,3.17,3.7c1.93,2.62,3.61,5.45,5.39,8.39.89,1.47,1.8,3,2.82,4.52l.78,1.16c.35.46.82,1,1.25,1.49a15.91,15.91,0,0,0,3.2,2.64,19.07,19.07,0,0,0,7.5,2.64,32.36,32.36,0,0,0,6.64.24c4.06-.23,7.58-.74,11-1.1a37.69,37.69,0,0,1,8.54-.38,6,6,0,0,1,2.18.69c.15.1.29.15.45.26l.48.32c.17.11.36.28.54.41a4.46,4.46,0,0,1,.59.48,35.3,35.3,0,0,1,2.67,2.61l1.46,1.62,1.5,1.75.2.23c.07.08.14.17.22.25a10,10,0,0,0,14.68-13.58Z" style="fill:#00aee0;"/><path d="M500.3,489.61l-.87-.13a60,60,0,0,0-14.26-.69,108,108,0,0,0-14,2.06c-2.73.52-5.32,1-7.8,1.25q1.17-2.37,2.09-4.77l.88-2.49c.28-.83.48-1.68.72-2.52.51-1.65.79-3.36,1.14-5,.14-.75.25-1.49.35-2.24.39-3.05-1.67-4.57-3.4-.79h0c-.27.57-.55,1.13-.86,1.68a47.18,47.18,0,0,1-2.45,4.07c-.44.65-.84,1.31-1.31,1.94l-1.42,1.83a38.5,38.5,0,0,1-6.33,6.25c-.73.55-1.47,1.08-2.22,1.55l-.37-.05-3.92-.43a50.45,50.45,0,0,0-16.41,1.31c-1.39.35-2.75.85-4.13,1.3a16.15,16.15,0,0,0-2,.8l-2,.9a45.54,45.54,0,0,0-7.54,4.65c-1.16.91-2.3,1.87-3.4,2.88s-2.15,2.08-3.12,3.23a36.15,36.15,0,0,0-2.84,3.59c-.44.66-.88,1.27-1.31,2-.22.37-.42.68-.65,1.11s-.39.68-.77,1.51a12,12,0,0,0,22.15,9.1c-.16.32-.05,0-.05,0s.1-.26.14-.39.26-.59.4-.91a21.38,21.38,0,0,1,1-1.92c.37-.67.84-1.27,1.27-1.9s1-1.2,1.47-1.78a26.07,26.07,0,0,1,7.62-5.64,32.14,32.14,0,0,1,10.15-2.74l2.83-.2.73-.07,1,0,2-.08a37.85,37.85,0,0,0,4-.37c.65-.09,1.31-.16,2-.27l1.92-.4a75.22,75.22,0,0,0,13.92-4.65,120.32,120.32,0,0,1,12.16-4.55,73.18,73.18,0,0,1,12.8-2.65h0C503.32,494.37,502.89,490.17,500.3,489.61Z" style="fill:#00aee0;"/><ellipse cx="388.71" cy="514.2" rx="13.48" ry="18.57" style="fill:#04294f;"/><path d="M380.89,539.72A9.5,9.5,0,0,1,377,538.4a12.68,12.68,0,0,1-3.19-2.69,11.57,11.57,0,0,1-2.12-3.53,8.65,8.65,0,0,1-.53-4.12.57.57,0,0,1,.64-.48.55.55,0,0,1,.27.12h0a20.76,20.76,0,0,1,2.68,2.74c.76.92,1.44,1.83,2.13,2.74s1.41,1.78,2.17,2.66,1.56,1.77,2.42,2.78v0a.65.65,0,0,1-.08.92A.67.67,0,0,1,380.89,539.72Z" style="fill:#04294f;"/><path d="M408.37,520a7.87,7.87,0,0,1,.6,2.8,10.42,10.42,0,0,1-.27,2.73,7.83,7.83,0,0,1-1.05,2.56,5.54,5.54,0,0,1-2.21,2,.64.64,0,0,1-.84-.3.49.49,0,0,1,0-.11v0a8.31,8.31,0,0,1-.21-2.78,11.32,11.32,0,0,1,.52-2.39,18.26,18.26,0,0,1,.89-2.31,11.87,11.87,0,0,1,1.41-2.33h0a.7.7,0,0,1,1-.12A.9.9,0,0,1,408.37,520Z" style="fill:#04294f;"/><path d="M396.17,488.5a13.13,13.13,0,0,1,5.72,2.78A17.29,17.29,0,0,1,406,496.2a18.44,18.44,0,0,1,2.21,5.93,16.18,16.18,0,0,1,0,6.24.52.52,0,0,1-.62.4.5.5,0,0,1-.35-.26v0c-1-1.84-1.65-3.63-2.4-5.35s-1.47-3.41-2.32-5a28.13,28.13,0,0,0-3-4.52,29.06,29.06,0,0,0-3.93-4h0a.63.63,0,0,1-.07-.88A.62.62,0,0,1,396.17,488.5Z" style="fill:#04294f;"/><path d="M366.33,446.11a10.9,10.9,0,0,1,3.58,2.34,14.6,14.6,0,0,1,2.55,3.2,11.2,11.2,0,0,1,1.48,3.88,7.66,7.66,0,0,1-.54,4.49.94.94,0,0,1-1.25.44l-.14-.08-.05,0a13.68,13.68,0,0,1-2.9-2.8,16.23,16.23,0,0,1-1.84-3,27.52,27.52,0,0,1-1.41-3.36,17.08,17.08,0,0,1-.89-3.89v-.08a1,1,0,0,1,.94-1.13A1.08,1.08,0,0,1,366.33,446.11Z" style="fill:#04294f;"/><path d="M375.21,421.49a6.57,6.57,0,0,1,3.13-.33A7.69,7.69,0,0,1,381,422a5.72,5.72,0,0,1,2.13,1.82,5.21,5.21,0,0,1,.92,3.17,1.15,1.15,0,0,1-.92,1.1h0a7.05,7.05,0,0,1-3.06,0,5.79,5.79,0,0,1-2.11-1,9.65,9.65,0,0,1-1.77-1.58,9.38,9.38,0,0,1-1.54-2.35l-.07-.17a1.15,1.15,0,0,1,.58-1.52Z" style="fill:#04294f;"/><path d="M457.88,476.3c-4.36-4.11-11.07-10.82-12.85-10.93-2.15-.12-4,12.05,3,19.6,3,3.36,7.21,3.87,9.52,2.19l.07,0C461.64,484.49,460.83,479.29,457.88,476.3Z" style="fill:#ff3a00;"/><path d="M449.3,473.23a24.78,24.78,0,0,1,2.28,2.12c.68.71,1.32,1.41,1.93,2.11s1.23,1.37,1.78,2.14a18,18,0,0,1,1.66,2.61l0,.05a.59.59,0,0,1-.26.78.66.66,0,0,1-.2.06,6,6,0,0,1-3.5-.81,8.7,8.7,0,0,1-2.57-2.29,11.28,11.28,0,0,1-1.67-2.94,8.7,8.7,0,0,1-.6-3.37.66.66,0,0,1,1.07-.5Z" style="fill:#04294f;"/><path d="M320.58,437.65c-1.92,5.67-5.19,14.58-4.55,16.24.79,2,12.63-1.36,16.53-11,1.79-4.15.49-8.17-2-9.57l-.07,0C326.44,430.8,322.05,433.71,320.58,437.65Z" style="fill:#ffb400;"/><path d="M321.38,446.72a23.73,23.73,0,0,1,1-3c.36-.92.73-1.8,1.11-2.65s.73-1.68,1.19-2.5a20.75,20.75,0,0,1,1.68-2.61l0,0a.59.59,0,0,1,.82-.09.54.54,0,0,1,.14.16,5.86,5.86,0,0,1,.73,3.51,8.92,8.92,0,0,1-1,3.3,11.36,11.36,0,0,1-2,2.74,8.64,8.64,0,0,1-2.82,2,.66.66,0,0,1-.86-.35.61.61,0,0,1,0-.42Z" style="fill:#04294f;"/><path d="M491.91,499.39c3.84,3.6,10.07,9.13,10.27,10.68.22,1.88-10.35,4.2-17.35-1.62-3.11-2.46-3.78-6.12-2.43-8.23,0,0,0,0,0-.06C484.52,496.52,489.13,497,491.91,499.39Z" style="fill:#ffb400;"/><path d="M494.69,507.82a7.25,7.25,0,0,1-3.06-.24,9.67,9.67,0,0,1-2.72-1.28,7.36,7.36,0,0,1-2.15-2.19A5,5,0,0,1,486,501a.61.61,0,0,1,.66-.54l.14,0,.05,0a14.14,14.14,0,0,1,2.49,1.21,16.8,16.8,0,0,1,1.95,1.39c.64.5,1.27,1,1.91,1.61a17.25,17.25,0,0,1,1.91,2l.05.06a.68.68,0,0,1-.11.95A.61.61,0,0,1,494.69,507.82Z" style="fill:#04294f;"/><path d="M472,509c3.9,5.79,9.8,15.14,11.8,15.72,2.41.7,7.7-12.65,1.58-23.05-2.56-4.61-7.2-6.26-10.26-4.95l-.09,0C469.78,498.76,469.37,504.88,472,509Z" style="fill:#ff3a00;"/><path d="M481,514.71a34.17,34.17,0,0,1-1.88-3.06l-1.62-3c-.53-1-1.06-1.91-1.53-2.91a28.23,28.23,0,0,1-1.41-3.29v0a.56.56,0,0,1,.36-.71.62.62,0,0,1,.27,0,7.2,7.2,0,0,1,3.59,1.93,11,11,0,0,1,2.28,3.24,14,14,0,0,1,1.17,3.7,10.6,10.6,0,0,1,0,3.93.66.66,0,0,1-.77.5.64.64,0,0,1-.4-.26Z" style="fill:#04294f;"/><path d="M401.28,557a10.83,10.83,0,0,1,1,2.84,15.1,15.1,0,0,1,.35,2.83,10.45,10.45,0,0,1-.23,2.83,7.46,7.46,0,0,1-1.27,2.83.62.62,0,0,1-.86.12l-.12-.12a7.46,7.46,0,0,1-1.27-2.83,10.45,10.45,0,0,1-.23-2.83,15.1,15.1,0,0,1,.35-2.83,10.83,10.83,0,0,1,1-2.84.7.7,0,0,1,.94-.27A.81.81,0,0,1,401.28,557Z" style="fill:#04294f;"/><path d="M409.56,548.55a3.77,3.77,0,0,1,1,1.29,3.46,3.46,0,0,1,.35,1.29,2.28,2.28,0,0,1-.23,1.29,3.13,3.13,0,0,1-1.27,1.29,1,1,0,0,1-1,0,3.27,3.27,0,0,1-1.27-1.29,2.37,2.37,0,0,1-.23-1.29,3.46,3.46,0,0,1,.35-1.29,4,4,0,0,1,1-1.29A1,1,0,0,1,409.56,548.55Z" style="fill:#04294f;"/><path d="M375.83,572.62a3.77,3.77,0,0,1,1,1.29,3.46,3.46,0,0,1,.35,1.29,2.28,2.28,0,0,1-.23,1.29,3.16,3.16,0,0,1-1.26,1.29,1,1,0,0,1-1,0,3.27,3.27,0,0,1-1.27-1.29,2.47,2.47,0,0,1-.23-1.29,3.48,3.48,0,0,1,.36-1.29,3.77,3.77,0,0,1,1-1.29A.94.94,0,0,1,375.83,572.62Z" style="fill:#04294f;"/><path d="M432,621.77a3.75,3.75,0,0,1,1.06,1.27,3.42,3.42,0,0,1,.38,1.28,2.35,2.35,0,0,1-.21,1.29,3.13,3.13,0,0,1-1.24,1.32,1,1,0,0,1-1,0,3.22,3.22,0,0,1-1.3-1.27,2.34,2.34,0,0,1-.25-1.28,3.5,3.5,0,0,1,.32-1.3,4,4,0,0,1,1-1.31A1,1,0,0,1,432,621.77Z" style="fill:#04294f;"/><path d="M401.06,463.34a10.31,10.31,0,0,1-1-2.83,15.1,15.1,0,0,1-.35-2.83,10.42,10.42,0,0,1,.23-2.83,7.24,7.24,0,0,1,1.27-2.83.61.61,0,0,1,.86-.12l.12.12a7.54,7.54,0,0,1,1.27,2.83,10.83,10.83,0,0,1,.23,2.83,15.1,15.1,0,0,1-.35,2.83,10.68,10.68,0,0,1-1,2.83.67.67,0,0,1-.93.27A.66.66,0,0,1,401.06,463.34Z" style="fill:#04294f;"/><path d="M381.72,398.68a10.43,10.43,0,0,1-1-2.83,15.23,15.23,0,0,1-.36-2.83,11.28,11.28,0,0,1,.23-2.83,7.48,7.48,0,0,1,1.27-2.83.62.62,0,0,1,.87-.12.68.68,0,0,1,.12.12,7.3,7.3,0,0,1,1.26,2.83,10.84,10.84,0,0,1,.24,2.83,16.12,16.12,0,0,1-.36,2.83,10.43,10.43,0,0,1-1,2.83.69.69,0,0,1-.94.27A.64.64,0,0,1,381.72,398.68Z" style="fill:#04294f;"/><path d="M391.54,468a4,4,0,0,1-1-1.29,3.46,3.46,0,0,1-.35-1.29,2.28,2.28,0,0,1,.23-1.29,3.27,3.27,0,0,1,1.27-1.29.93.93,0,0,1,1,0,3.13,3.13,0,0,1,1.27,1.29,2.28,2.28,0,0,1,.23,1.29,3.46,3.46,0,0,1-.35,1.29,3.77,3.77,0,0,1-1,1.29A1,1,0,0,1,391.54,468Z" style="fill:#04294f;"/><path d="M415.45,566.62a5.38,5.38,0,0,1,1,1.72,5.92,5.92,0,0,1,.35,1.72,3.89,3.89,0,0,1-1.5,3.44.78.78,0,0,1-1,0,3.9,3.9,0,0,1-1.27-1.72,3.94,3.94,0,0,1-.23-1.72,5.92,5.92,0,0,1,.35-1.72,5.17,5.17,0,0,1,1-1.72.82.82,0,0,1,1.16,0Z" style="fill:#04294f;"/><path d="M426.05,610.25a5.19,5.19,0,0,1,1.38,1.45,5.85,5.85,0,0,1,.72,1.6,4,4,0,0,1,.15,1.73,4,4,0,0,1-.86,2,.79.79,0,0,1-1,.21,3.91,3.91,0,0,1-1.61-1.4,4,4,0,0,1-.6-1.63,5.68,5.68,0,0,1,0-1.75,5.06,5.06,0,0,1,.63-1.9.81.81,0,0,1,1.11-.31Z" style="fill:#04294f;"/><path d="M354.21,597.54a6.35,6.35,0,0,1-1.75,1.33,7.73,7.73,0,0,1-1.87.66,5.1,5.1,0,0,1-1.95.08,4.51,4.51,0,0,1-2.12-.94.73.73,0,0,1-.16-1,4.42,4.42,0,0,1,1.71-1.56,5,5,0,0,1,1.89-.54,7.24,7.24,0,0,1,2,0,6,6,0,0,1,2.08.71.78.78,0,0,1,.3,1.06A.71.71,0,0,1,354.21,597.54Z" style="fill:#04294f;"/><path d="M397.72,437.92a5.17,5.17,0,0,1,1,1.72,5.85,5.85,0,0,1,.35,1.72,3.94,3.94,0,0,1-.23,1.72,4,4,0,0,1-1.26,1.72.81.81,0,0,1-1,0,4.12,4.12,0,0,1-1.27-1.72,4.26,4.26,0,0,1-.23-1.72,5.87,5.87,0,0,1,.36-1.72,5.17,5.17,0,0,1,1-1.72.81.81,0,0,1,1.15-.05Z" style="fill:#04294f;"/><path d="M394.49,377.47a5.07,5.07,0,0,1,1,1.72,5.79,5.79,0,0,1,.35,1.72,4,4,0,0,1-.23,1.72,3.88,3.88,0,0,1-1.27,1.71.77.77,0,0,1-1,0,3.86,3.86,0,0,1-1.5-3.43,5.79,5.79,0,0,1,.35-1.72,5.42,5.42,0,0,1,1-1.72.83.83,0,0,1,1.16-.06Z" style="fill:#04294f;"/><path d="M378.64,486.09a5.31,5.31,0,0,1-1-1.72,5.79,5.79,0,0,1-.35-1.71,3.92,3.92,0,0,1,.23-1.72,4,4,0,0,1,1.27-1.72.77.77,0,0,1,1,0,3.85,3.85,0,0,1,1.27,1.72,3.92,3.92,0,0,1,.23,1.72,5.79,5.79,0,0,1-.35,1.71,5,5,0,0,1-1,1.72.82.82,0,0,1-1.16.06Z" style="fill:#04294f;"/><path d="M423.4,495.43a4,4,0,0,1,3-.39,5,5,0,0,1,2.5,1.57,4.21,4.21,0,0,1,1.1,2.67,3.56,3.56,0,0,1-1.27,2.8,1.27,1.27,0,0,1-1.3.24l-.17-.06a13.82,13.82,0,0,1-1.34-.63c-.38-.17-.62-.36-.87-.48a2.16,2.16,0,0,1-.84-.84,5.93,5.93,0,0,1-.47-1.13l-.29-.84c-.1-.32-.28-.68-.38-1.12l-.17-.75A1,1,0,0,1,423.4,495.43Z" style="fill:#04294f;"/><path d="M361.09,571.86a.83.83,0,0,0-1.06-.47l0,0a34.26,34.26,0,0,0-5.6,3c-1.12.72-2.18,1.48-3.24,2.26,0,1.24.07,3.08.21,4.54s-1.53,3.09-2.8,4a30.49,30.49,0,0,0,4.44-2.54,23,23,0,0,0,4.92-4.38c.35-.44.69-.87,1-1.33s.6-1,.88-1.44a12.62,12.62,0,0,0,1.29-3.19A.81.81,0,0,0,361.09,571.86Z" style="fill:#04294f;"/><path d="M432.76,593.83a27.45,27.45,0,0,0-3.21-4.79,28.39,28.39,0,0,0-3.11-3.19,24.23,24.23,0,0,0-3.69-2.51,18,18,0,0,0-8.46-2.37.74.74,0,0,0-.56.21.79.79,0,0,0,0,1.11l.06.06c.51.53,1,1,1.55,1.44s1.05.83,1.53,1.3,1,.88,1.47,1.28.94.88,1.41,1.29c1,.8,1.81,1.74,2.74,2.56l1.29,1.34a15,15,0,0,1,1.27,1.38c1,1.13,2,2.33,2.94,3.57C426.71,594.31,426.23,592.42,432.76,593.83Z" style="fill:#04294f;"/><path d="M626.6,523.16l-.31-.27c-1.84-1.58-3.75-3.06-5.66-4.52-1-.77-2.06-1.5-3.09-2.25,1.6-2.89,3.14-5.81,4.6-8.79,1-2,2-4.08,2.87-6.17.47-1,.91-2.08,1.33-3.14s.85-2.13,1.23-3.21a1.24,1.24,0,0,0-.31-1.31,1.26,1.26,0,0,0-1.76,0c-.79.84-1.56,1.69-2.3,2.56s-1.48,1.73-2.19,2.62c-1.45,1.76-2.83,3.55-4.18,5.36-2.71,3.63-5.27,7.35-7.73,11.12a3.8,3.8,0,0,0,.82,5l.17.14c1.9,1.5,3.82,3,5.75,4.41,1.11.81,2.23,1.6,3.36,2.39-.42.84-.86,1.67-1.27,2.52-.92,1.9-1.82,3.82-2.68,5.76s-1.7,3.89-2.49,5.87-1.54,4-2.21,6a1,1,0,0,0,.29,1,1,1,0,0,0,1.42-.07c1.45-1.61,2.8-3.26,4.12-4.94s2.59-3.38,3.82-5.1,2.45-3.46,3.63-5.21,2.34-3.53,3.47-5.31A3.57,3.57,0,0,0,626.6,523.16Z" style="fill:#00aee0;"/><path d="M656.05,539.61a35.57,35.57,0,0,0-3.94.65c-1.28.29-2.53.63-3.77,1a68.48,68.48,0,0,0-7.23,2.65,3.72,3.72,0,0,0-1.76,5.28l.18.32q1.22,2.1,2.52,4.16l.69,1c-.79.56-1.58,1.14-2.34,1.75q-1.44,1.11-2.79,2.34a34.61,34.61,0,0,0-2.64,2.64,1.11,1.11,0,0,0-.26.83,1.06,1.06,0,0,0,1.18.92,36.05,36.05,0,0,0,3.67-.69q1.79-.43,3.51-1c1.15-.35,2.28-.75,3.4-1.18s2.23-.87,3.32-1.35l.15-.07a3.49,3.49,0,0,0,1.56-4.68l-.29-.58c-.73-1.46-1.56-2.86-2.4-4.24-.15-.24-.32-.47-.47-.71.92-.58,1.84-1.19,2.73-1.82,1.06-.75,2.09-1.53,3.11-2.36a35.35,35.35,0,0,0,2.93-2.71,1.33,1.33,0,0,0,.36-1A1.31,1.31,0,0,0,656.05,539.61Z" style="fill:#00aee0;"/><path d="M591.47,546.71a30.93,30.93,0,0,0-.94-3.31c-.37-1.06-.77-2.1-1.22-3.11s-.9-2-1.4-3l-.19-.36.79-1.11c.64-1,1.24-2,1.82-3l.23-.39a3.59,3.59,0,0,0-.39-4.1,58.34,58.34,0,0,0-4.85-5.11c-.87-.81-1.78-1.59-2.72-2.34a29,29,0,0,0-3-2.1,1.26,1.26,0,0,0-1-.14,1.29,1.29,0,0,0-.92,1.6,29.07,29.07,0,0,0,1.2,3.48c.47,1.12,1,2.2,1.51,3.26.63,1.24,1.32,2.43,2,3.61-.18.28-.39.55-.57.83a30,30,0,0,0-1.7,3l-.36.78a3.22,3.22,0,0,0,.42,3.41c.68.85,1.4,1.67,2.14,2.48s1.5,1.6,2.3,2.37,1.62,1.51,2.48,2.24a30.86,30.86,0,0,0,2.76,2.05,1.06,1.06,0,0,0,.8.15A1.07,1.07,0,0,0,591.47,546.71Z" style="fill:#00aee0;"/><path d="M370.15,223.49,500.88,247c8.47,1.53,10.47,11.15,9.23,21.49-1,8.46-2.65,14.79-9.23,16L370.15,308c-19.09,3.43-36.84-12.7-39.65-36s10.39-45,29.48-48.47A29.68,29.68,0,0,1,370.15,223.49Z" style="fill:#00aee0;"/><path d="M376.05,120.61,355,139.45l14.39,19.94,22.81-4.23S381.49,126.53,376.05,120.61Z" style="fill:#04294f;"/><polygon points="304.26 342.67 277.81 333.56 281.85 358.65 304.26 342.67" style="fill:#04294f;"/><path d="M350.07,262a128.3,128.3,0,0,1-8-10.83q-3.74-5.53-7.08-11.26c-4.49-7.61-8.57-15.4-12.33-23.34a201.9,201.9,0,0,1-9.94-24.43c-1.35-4.21-2.57-8.48-3.56-12.86a85.25,85.25,0,0,1-2.12-13.5,2.37,2.37,0,0,1,2.21-2.52,2.41,2.41,0,0,1,1.83.69,86.52,86.52,0,0,1,8.76,10.49c2.63,3.63,5,7.36,7.32,11.15A202.79,202.79,0,0,1,339,209.16c3.5,8.06,6.67,16.27,9.44,24.66q2.08,6.28,3.8,12.74A125.26,125.26,0,0,1,355,259.74a2.84,2.84,0,0,1-5,2.25Z" style="fill:#04294f;"/><path d="M352.07,263.55a116,116,0,0,1-12.85.59c-4.24,0-8.47-.15-12.66-.44-8.4-.54-16.72-1.51-25-2.85a183.59,183.59,0,0,1-24.52-5.43c-4-1.24-8-2.61-12-4.24a79.91,79.91,0,0,1-11.7-5.79,2.39,2.39,0,0,1,.78-4.37,78.89,78.89,0,0,1,13-1.38c4.27-.15,8.5-.06,12.71.18a183.29,183.29,0,0,1,24.88,3.39c8.21,1.61,16.35,3.58,24.42,6q6.06,1.78,12,4a115.56,115.56,0,0,1,11.84,5A2.84,2.84,0,0,1,354.3,262,2.9,2.9,0,0,1,352.07,263.55Z" style="fill:#04294f;"/><path d="M326.55,204.12c10.12,10.85,28.19,47.88,17.33,58s-46.53-10.5-56.65-21.36a26.88,26.88,0,0,1,39.32-36.65Z" style="fill:#ff3a00;"/><path d="M332.2,223c6.82,7.32,19,32.27,11.68,39.09s-31.35-7.08-38.17-14.39A18.11,18.11,0,0,1,332.2,223Z" style="fill:#fff;"/><path d="M362.55,284.33A120.34,120.34,0,0,1,358.63,297q-2.24,6.17-4.83,12.11c-3.44,7.95-7.26,15.67-11.4,23.22a193.92,193.92,0,0,1-13.69,21.93c-2.57,3.48-5.26,6.9-8.18,10.19a82.74,82.74,0,0,1-9.56,9.42,2.38,2.38,0,0,1-3.34-.34,2.41,2.41,0,0,1-.51-1.86,83.43,83.43,0,0,1,3.22-13c1.35-4.19,2.91-8.25,4.6-12.24a193.84,193.84,0,0,1,11.89-22.95c4.38-7.41,9.08-14.64,14.16-21.65q3.79-5.26,8-10.33a123.15,123.15,0,0,1,8.86-9.81,2.84,2.84,0,0,1,4.74,2.7Z" style="fill:#04294f;"/><path d="M362.63,281.78a116.76,116.76,0,0,1,8.09,10q3.76,5.14,7.15,10.47c4.54,7.09,8.68,14.37,12.49,21.81a183.42,183.42,0,0,1,10.15,23c1.39,4,2.65,8,3.68,12.16a78.44,78.44,0,0,1,2.27,12.87,2.39,2.39,0,0,1-4,2,79.47,79.47,0,0,1-8.81-9.65c-2.65-3.36-5.08-6.82-7.38-10.35a184.09,184.09,0,0,1-12-22.06c-3.56-7.57-6.8-15.3-9.64-23.22q-2.16-5.92-3.92-12.05a115.75,115.75,0,0,1-3-12.51,2.85,2.85,0,0,1,4.9-2.41Z" style="fill:#04294f;"/><path d="M329.86,337.55c2.76-14.59,21.89-51.08,36.47-48.33s19.11,43.71,16.35,58.3a26.88,26.88,0,0,1-52.82-10Z" style="fill:#ff3a00;"/><path d="M342.25,319.81c1.7-9,13.56-31.66,22.6-29.95S376.68,316.94,375,326a16.65,16.65,0,1,1-32.73-6.17Z" style="fill:#fff;"/><path d="M384.55,255.72a126.06,126.06,0,0,1,13.27-2.36q6.63-.86,13.23-1.3c8.82-.62,17.62-.8,26.4-.61a201.93,201.93,0,0,1,26.3,2c4.37.67,8.73,1.49,13.09,2.55a86.56,86.56,0,0,1,13,4.14,2.36,2.36,0,0,1,1.26,3.1,2.38,2.38,0,0,1-1.42,1.33,86.11,86.11,0,0,1-13.31,3.15c-4.42.74-8.83,1.23-13.24,1.57a200.2,200.2,0,0,1-26.38.05c-8.77-.46-17.53-1.29-26.27-2.56q-6.57-.93-13.1-2.29a129.08,129.08,0,0,1-13.07-3.33,2.83,2.83,0,0,1,.21-5.45Z" style="fill:#04294f;"/><path d="M382.26,256.81a117.37,117.37,0,0,1,5.2-11.76q2.87-5.7,6.05-11.14,6.36-10.9,13.71-21.08A182.8,182.8,0,0,1,423,193.32c2.91-3,5.93-6,9.15-8.83a79,79,0,0,1,10.41-7.89,2.4,2.4,0,0,1,3.29.78,2.43,2.43,0,0,1,.27,1.87,79.18,79.18,0,0,1-4.56,12.24c-1.78,3.89-3.75,7.64-5.84,11.29a183.24,183.24,0,0,1-14.15,20.75c-5.11,6.63-10.5,13-16.25,19.18-2.87,3.08-5.84,6.08-8.94,9a113.12,113.12,0,0,1-9.77,8.37,2.85,2.85,0,0,1-4-.57A2.9,2.9,0,0,1,382.26,256.81Z" style="fill:#04294f;"/><path d="M446.83,260.51c-14.23,4.21-55.43,3.84-59.64-10.39s30.17-37,44.4-41.16a26.88,26.88,0,0,1,15.24,51.55Z" style="fill:#ff3a00;"/><path d="M421.3,258c-8,2.36-31.42,1.26-34.11-7.84s16.36-22.77,24.36-25.13,16.67,3.09,19.36,12.2S429.3,255.59,421.3,258Z" style="fill:#fff;"/><path d="M381.67,241.57c0-.19.35-.08.56-.08s.48.08.72.13c.51.09,1,.21,1.51.35,1,.25,2,.58,3,.89,2,.67,4,1.37,5.92,2.17,3.87,1.57,7.6,3.34,11.23,5.23a198.92,198.92,0,0,1,20.72,12.57c3.3,2.28,6.56,4.65,9.78,7.06l4.83,3.65,4.86,3.54c6.51,4.66,13.11,9.08,19.85,13.08,13.49,8,27.44,14.64,42.76,18.39l2.9.66c1,.22,1.94.38,2.93.58s2,.38,3,.53,2,.35,3,.44a106.94,106.94,0,0,0,12.42.87h3.21c1.07,0,2.13-.12,3.23-.13,2.2-.07,4.37-.29,6.62-.5,4.48-.43,9-1.23,13.75-2.05h0a.63.63,0,0,1,.69.54.65.65,0,0,1-.06.44,80.79,80.79,0,0,1-19.21,23.63A92.24,92.24,0,0,1,513,349.29a108.75,108.75,0,0,1-15.24,4.45A121.11,121.11,0,0,1,482,356a144.09,144.09,0,0,1-31.82-1.27,183.19,183.19,0,0,1-30.86-7.38c-5-1.66-10-3.46-14.83-5.51a133.9,133.9,0,0,1-14.15-7,126,126,0,0,1-25.36-19.12,112.38,112.38,0,0,1-10.85-12.26c-1.7-2.2-3.28-4.56-4.84-7-.77-1.25-1.54-2.48-2.27-3.82-.38-.65-.75-1.33-1.11-2l-.57-1.09a12,12,0,0,0-.74-1.3c-12.33-11.89-14-32-3.77-44.84S369.34,229.68,381.67,241.57Z" style="fill:#ffb400;"/><path d="M561,307.12a3.48,3.48,0,0,0-2-1,3.43,3.43,0,0,0-.64,0l-.32,0h0l-.2,0-6.37.83c-2.11.26-4.19.49-6.26.64l-6.22.29c-2.07.1-4.27.14-6.33.06s-4.16-.15-6.23-.32a103.47,103.47,0,0,1-12.23-1.73l-3.1-.63c-1-.25-2.09-.48-3.09-.74-2-.51-4-1.07-6-1.68q-6-1.81-11.81-4.21c-3.89-1.58-7.7-3.35-11.47-5.25s-7.51-3.87-11.2-6-7.29-4.32-10.89-6.59-7.17-4.62-10.66-7-7-4.93-10.57-7.38l-5.41-3.65c-1.8-1.23-3.61-2.43-5.48-3.56a159,159,0,0,0-23.17-12,1.21,1.21,0,0,0-1.06,2.18,219.16,219.16,0,0,1,21.48,13.94c1.74,1.24,3.41,2.58,5.1,3.88l5.07,3.9c1.69,1.28,3.37,2.68,5.06,4s3.43,2.65,5.14,4a245.8,245.8,0,0,0,21.6,14.79c3.75,2.26,7.55,4.43,11.45,6.48s7.9,3.89,12,5.59,8.26,3.24,12.5,4.55c2.12.67,4.27,1.23,6.46,1.77,1.08.27,2.13.49,3.2.74l3.24.62a92.8,92.8,0,0,0,13.39,1.53c2.23.1,4.44.13,6.68.09s4.36-.13,6.58-.32,4.44-.44,6.67-.71,4.39-.68,6.54-1.09c.73-.13,1.45-.28,2.17-.43a90.92,90.92,0,0,1-15.24,20.08,1,1,0,0,0,1.27,1.51A74.38,74.38,0,0,0,559,315.44c.63-.92,1.22-1.86,1.81-2.81l.44-.72.21-.36.11-.18a2.14,2.14,0,0,0,.23-.44A3.52,3.52,0,0,0,561,307.12Z" style="fill:#04294f;"/><path d="M509.51,330a242,242,0,0,1-27.67-1.53,1.63,1.63,0,0,1,.11-.17l1.48-2.42c.52-.93,1.15-1.78,1.87-3l0-.07.06-.11a.81.81,0,0,0-.46-1,8.13,8.13,0,0,0-4.13-.4,10.56,10.56,0,0,0-3.83,1.39,8.84,8.84,0,0,0-3,2.66,7.07,7.07,0,0,0-.88,1.81.74.74,0,0,1,0,.14,173,173,0,0,1-27-6.65q-5.51-1.89-10.85-4.17c1-.64,2-1.34,3-2,1.21-.84,2.46-1.65,3.8-2.46s2.78-1.58,4.41-2.55l0,0a.75.75,0,0,0,.27-.29.71.71,0,0,0-.31-1,12.25,12.25,0,0,0-1.34-.57,7,7,0,0,0-1.38-.41c-.48-.12-.95-.2-1.44-.28s-1-.09-1.44-.1a17.14,17.14,0,0,0-5.74.79,15.69,15.69,0,0,0-5.15,2.58,12.3,12.3,0,0,0-2.07,2c-.18.23-.35.46-.51.7q-5.14-2.52-10.1-5.38A152.66,152.66,0,0,1,404,298.8c-2.11-1.58-4.23-3.15-6.23-4.85-1-.84-2-1.68-3-2.56s-2-1.79-2.8-2.59l-.12-.12a2.85,2.85,0,0,0-4.3,3.71c.92,1.28,1.79,2.32,2.73,3.42s1.9,2.1,2.88,3.11c1.17,1.18,2.37,2.32,3.59,3.44a2.69,2.69,0,0,0-.34.57,11.44,11.44,0,0,0-.93,3.16,15,15,0,0,0-.1,3.06,18.57,18.57,0,0,0,1.43,5.87,22.56,22.56,0,0,0,2.94,5.28,17.67,17.67,0,0,0,4.36,4.22.66.66,0,0,0,.41.12.71.71,0,0,0,.69-.71v-.06c0-1-.16-2-.25-2.89s-.21-1.83-.29-2.72c-.22-1.76-.38-3.46-.56-5.13s-.29-3.31-.6-4.92c0-.1,0-.2-.06-.3a110.72,110.72,0,0,0,9.61,6.56,125.5,125.5,0,0,0,30.76,13.28c1.63.47,3.26.89,4.9,1.3a9.22,9.22,0,0,0,0,1.49,10.07,10.07,0,0,0,.54,2.26,12.68,12.68,0,0,0,2.39,3.92,16,16,0,0,0,3.48,3.08,12.18,12.18,0,0,0,4.41,1.84.75.75,0,0,0,.88-.89v0c-.33-1.59-.74-2.91-1.11-4.21s-.78-2.48-1.18-3.65c-.23-.65-.46-1.3-.71-1.92.89.16,1.79.33,2.69.47,1.36.26,2.74.42,4.12.61s2.75.39,4.13.51c2.77.23,5.52.54,8.29.63a154.77,154.77,0,0,0,32.93-1.89.64.64,0,0,0,.53-.63A.64.64,0,0,0,509.51,330Z" style="fill:#04294f;"/><path d="M390.34,255.46c-5.55-16.73-22.24-26.08-37.28-20.88a8.46,8.46,0,0,1-1.36,0l-1.13,0c-.72,0-1.43-.06-2.11-.06-1.39,0-2.73,0-4.06.07a77.58,77.58,0,0,0-7.75.79,87.09,87.09,0,0,0-14.65,3.6,106.22,106.22,0,0,0-26.71,13.61,122,122,0,0,0-12,9.6c-3.84,3.48-7.52,7.21-11.11,11.06q-2.24,2.38-4.39,4.87c4.62,2.34,10.19,5.52,13.21,8.57,0,0-13.36.56-22.2,2.54q-3.37,4.49-6.51,9.25a164.08,164.08,0,0,0-15.48,29.48q-2.7,6.83-4.75,13.94a41.76,41.76,0,0,1,10.1,2.67s-6,2.56-12.23,5.79c-.77,3.53-1.42,7.09-1.91,10.67a120.6,120.6,0,0,0,.23,34.11,99.81,99.81,0,0,0,10,31.09.64.64,0,0,0,.32.31.55.55,0,0,0,.74-.37v0c1.51-5,2.93-9.68,4.62-14.16.86-2.24,1.67-4.42,2.62-6.54.48-1.05.91-2.1,1.36-3.14l1.47-3a121.52,121.52,0,0,1,6.33-11.3c.53-.89,1.15-1.75,1.72-2.61s1.15-1.7,1.77-2.52,1.17-1.66,1.79-2.47l1.84-2.38a138.53,138.53,0,0,1,25-24.08c-2.05-7.61-4.95-15.3-4.95-15.3,4.14,1.65,9.48,5.75,13.51,9.17l.45-.31c6.24-4.21,12.74-8.06,19.4-11.69l5-2.68,5.09-2.59c3.38-1.74,6.73-3.53,10.05-5.43a174.16,174.16,0,0,0,19.39-12.78,121,121,0,0,0,9.25-7.8c1.51-1.39,3-2.9,4.41-4.43.71-.79,1.42-1.55,2.09-2.38.34-.4.66-.81,1-1.24a6.26,6.26,0,0,0,.43-.62c.1-.2.34-.45.19-.58C388.21,290,395.9,272.2,390.34,255.46Z" style="fill:#ffb400;"/><path d="M312.12,289.05a2.84,2.84,0,0,0-3.78-1.42,86.52,86.52,0,0,0-11.39,6.2c-1.85,1.14-3.6,2.42-5.37,3.67l-2.58,2c-.86.67-1.74,1.3-2.54,2a113.75,113.75,0,0,0-11.51,11,10.14,10.14,0,0,0-3.11-1.19,14.33,14.33,0,0,0-4.53-.13,20.15,20.15,0,0,0-4.49,1,15.12,15.12,0,0,0-4.25,2.24.91.91,0,0,0-.2.24.75.75,0,0,0,.3,1h0a30.48,30.48,0,0,0,4.19,1.81c1.34.47,2.65.88,3.95,1.21.8.21,1.59.4,2.38.54l-.75.93c-2.71,3.36-5.16,6.91-7.53,10.5-1.15,1.82-2.31,3.63-3.41,5.47l-3.12,5.62a147.92,147.92,0,0,0-9.87,23.58.63.63,0,0,0,.28.74.64.64,0,0,0,.88-.23h0c4.25-7.31,8.54-14.48,13.26-21.33.49-.73,1-1.43,1.51-2.15l.5.71c.62.86,1.28,1.71,2,2.59a38,38,0,0,0,2.63,2.78l0,0,.13.1a.8.8,0,0,0,1.09-.3,10.38,10.38,0,0,0,1.24-4,13.83,13.83,0,0,0-.16-4,10.22,10.22,0,0,0-1.29-3.64,7.64,7.64,0,0,0-1-1.32q4.14-5.32,8.58-10.35a201.05,201.05,0,0,1,16-15.86c.14.56.29,1.12.43,1.68.35,1.37.72,2.77,1,4.26.2.74.33,1.5.55,2.3s.34,1.61.62,2.49l0,.07a.67.67,0,0,0,.18.3.72.72,0,0,0,1,0,14,14,0,0,0,2.9-4.61,17.54,17.54,0,0,0,1.17-5.32,14.38,14.38,0,0,0-.52-5.42,11.27,11.27,0,0,0-.6-1.55c4.58-3.7,9.32-7.2,14.14-10.69l0,0A2.85,2.85,0,0,0,312.12,289.05Z" style="fill:#04294f;"/><path d="M316.87,336.78c-8.43,5.81-16.75,11.52-24.56,17.86A171.94,171.94,0,0,0,270.54,375c-1.66,1.84-3.22,3.73-4.75,5.66-.77,1-1.58,2-2.3,3l-2.15,3c-.72.94-1.38,2-2.08,3s-1.39,2.1-2.05,3.14c-1.32,2.09-2.6,4.22-3.82,6.38s-2.42,4.33-3.55,6.62l-3.29,6.73c-2.18,4.48-4.06,9.24-6.27,13.9a1,1,0,0,1-1.33.48,1,1,0,0,1-.56-1.05h0a110.49,110.49,0,0,1,8.74-29.88c1.1-2.38,2.28-4.74,3.57-7,.65-1.15,1.31-2.31,2-3.36s1.41-2.27,2.19-3.39l1.16-1.68,1.14-1.6c.75-1.07,1.54-2.08,2.33-3.1,1.65-2.07,3.35-4.11,5.12-6.05a129.53,129.53,0,0,1,23.82-20.36,159.19,159.19,0,0,1,27.28-14.69,1.21,1.21,0,0,1,1.16,2.12Z" style="fill:#04294f;"/><path d="M403.75,207.32a157.25,157.25,0,0,0-2.15-16.61c-1-5.53-2.3-11.06-3.72-16.57a235.88,235.88,0,0,0-7-22.61c-.22-.05-10.18-1.86-15.71-1.51l4.76-7a85.15,85.15,0,0,0-15.15-3.48L380.08,127a177.62,177.62,0,0,0-9.52-16.21,155.22,155.22,0,0,0-10.38-14,136.8,136.8,0,0,0-11.85-12.42A106.89,106.89,0,0,0,321.17,66,78.34,78.34,0,0,0,292,58.56a.54.54,0,0,0-.39.14.67.67,0,0,0,0,.9h0c3.25,4.15,6.35,8.06,9.13,12.11,1.39,2,2.75,4,4,6,.61,1,1.25,2,1.87,3l1.74,3c2.27,4,4.3,8.09,6.08,12.16.47,1,.87,2,1.29,3.05.09.21.17.42.26.62,5.42.57,11.86,1.57,14.88,3.3a59.63,59.63,0,0,0-11.88,4.84l.13.39c5.39,16.23,7.72,32.48,8.74,48.9.5,8.22.59,16.48.45,24.77l-.16,6.22-.26,6.24c-.16,4.16-.26,8.31-.26,12.49a225.08,225.08,0,0,0,1.32,25.36c.48,4.3,1.11,8.64,2,13,.41,2.19.95,4.4,1.5,6.59.31,1.1.59,2.19.95,3.28q.24.81.54,1.59c.1.25.19.51.3.75s.2.55.37.49c-2.71,17.1,7.9,34.09,23.7,38s30.81-6.87,33.52-24a9.77,9.77,0,0,1,.63-1.29l.55-1c.35-.67.69-1.33,1-2,.66-1.3,1.22-2.6,1.79-3.88,1.08-2.59,2.09-5.17,2.9-7.78a109.25,109.25,0,0,0,3.81-15.86A138,138,0,0,0,403.75,207.32Z" style="fill:#ffb400;"/><path d="M292,57.35a77.7,77.7,0,0,1,32,7.3,98.88,98.88,0,0,1,14.46,8.08,109,109,0,0,1,13.06,10.21,141.84,141.84,0,0,1,11.55,11.84,150.81,150.81,0,0,1,10,13.12q4.68,6.82,8.69,14t7.3,14.76q3.35,7.51,6.13,15.25c1.84,5.16,3.46,10.39,4.92,15.66s2.76,10.55,3.83,15.93,2,10.81,2.54,16.28a138.88,138.88,0,0,1-.52,32.92,100.28,100.28,0,0,1-9.41,31.35h0a1,1,0,0,1-1.33.43,1,1,0,0,1-.49-1.2c.88-2.54,1.67-5.08,2.32-7.64s1.27-5.16,1.75-7.76a130.3,130.3,0,0,0,2-15.73,151.74,151.74,0,0,0-1.29-31.53c-.72-5.22-1.72-10.37-2.93-15.53s-2.53-10.32-4-15.4-3.12-10.12-4.9-15.1-3.71-9.91-5.83-14.74-4.43-9.59-6.94-14.22-5.15-9.2-8-13.59a146.18,146.18,0,0,0-19.87-24.39,119.43,119.43,0,0,0-11.92-10.2,105.47,105.47,0,0,0-13.29-8.4,81.55,81.55,0,0,0-30-9.32h0a1.21,1.21,0,0,1,.12-2.42Z" style="fill:#04294f;"/><path d="M360.57,222c.05-1.05.12-2.23.15-3.36s.09-2.29.1-3.45c.11-2.29,0-4.61.08-6.91-.08-4.61-.16-9.21-.46-13.82s-.71-9.19-1.16-13.78c-.29-2.29-.59-4.58-.84-6.88s-.74-4.56-1.11-6.84-.87-4.54-1.32-6.81l-.7-3.4-.35-1.71-.44-1.68c-.59-2.24-1.19-4.48-1.74-6.74-.25-1.14-.61-2.24-1-3.35l-1-3.33c-.74-2.2-1.26-4.5-2.14-6.66s-1.6-4.38-2.38-6.6-1.72-4.35-2.59-6.53-1.78-4.36-2.66-6.56v0a.63.63,0,0,1,.35-.82.62.62,0,0,1,.77.25c1.28,2,2.56,4,3.81,6s2.56,4,3.6,6.18c2.2,4.23,4.45,8.47,6.23,12.92a157.32,157.32,0,0,1,8.91,27.36,145.19,145.19,0,0,1,3.91,28.61,137,137,0,0,1-.23,14.47A89.84,89.84,0,0,1,366.17,223a2.85,2.85,0,0,1-5.61-.82Z" style="fill:#04294f;"/><path d="M363.89,209.16a13.93,13.93,0,0,1-3.78-.51,18.33,18.33,0,0,1-3.39-1.32,22,22,0,0,1-5.8-4.36,27.26,27.26,0,0,1-2.37-2.77c-.35-.5-.69-1-1-1.52l-.48-.77-.41-.82c-.28-.54-.54-1.09-.77-1.64s-.41-1.15-.58-1.72a9.43,9.43,0,0,1-.43-1.76c-.1-.59-.19-1.18-.24-1.78a.68.68,0,0,1,.62-.73.67.67,0,0,1,.49.15l0,0c1.82,1.49,3.34,2.9,5,4.12.78.64,1.66,1.19,2.44,1.79s1.64,1.11,2.49,1.61c1.66,1.05,3.35,2,5,3,.83.51,1.65,1.06,2.47,1.63a17.08,17.08,0,0,1,2.31,1.86l.51.53a2.93,2.93,0,0,1-2.11,4.94Z" style="fill:#04294f;"/><path d="M356.75,157.31a6.62,6.62,0,0,1-2.19.58,7.41,7.41,0,0,1-2-.13A9,9,0,0,1,349,156a10.66,10.66,0,0,1-2.72-3,8.08,8.08,0,0,1-1.18-4,.81.81,0,0,1,.79-.82h.2c1.4.21,2.43.48,3.49.61l2.8.47a10.43,10.43,0,0,1,2.5.64,6.56,6.56,0,0,1,1.18.65,3.43,3.43,0,0,1,1,1.06l1,2a2.68,2.68,0,0,1-1.24,3.59Z" style="fill:#04294f;"/><path d="M362.65,179.28c0-.05,0-.13.09-.2a1.43,1.43,0,0,1,.15-.22l.35-.43c.24-.26.47-.54.72-.78.48-.51,1-1,1.47-1.43,1-.92,2-1.71,3-2.67a32.26,32.26,0,0,0,3-3.22c.54-.58.94-1.26,1.5-1.92s1-1.41,1.59-2.16l.05-.06a.71.71,0,0,1,1-.1.69.69,0,0,1,.22.32,13,13,0,0,1,.62,5.81,15.09,15.09,0,0,1-1.85,5.76,13.69,13.69,0,0,1-4,4.67,12.07,12.07,0,0,1-2.75,1.46,11.14,11.14,0,0,1-1.53.42,12.06,12.06,0,0,1-1.76.16,2.85,2.85,0,1,1-1.79-5.41Z" style="fill:#04294f;"/><ellipse cx="354.85" cy="264.75" rx="28.94" ry="32.1" style="fill:#04294f;"/><path d="M376.05,264.75c0,14-10.2,25.27-22.78,25.27s-43.55-11.31-43.55-25.27,31-25.26,43.55-25.26S376.05,250.8,376.05,264.75Z" style="fill:#fff;"/><path d="M348.74,242.84a19.51,19.51,0,0,1,11.56,8.07,24.87,24.87,0,0,1,4.38,13.92,23.7,23.7,0,0,1-4.25,14c-2.85,4-7.18,7.1-11.91,7.68a1,1,0,0,1-1.15-.9,1.05,1.05,0,0,1,.3-.87l0,0a29.46,29.46,0,0,0,6.67-9.45,28,28,0,0,0,2.35-10.47,25.31,25.31,0,0,0-2.09-10.6,24.91,24.91,0,0,0-6.91-9.17l0,0a1.25,1.25,0,0,1-.15-1.75A1.23,1.23,0,0,1,348.74,242.84Z" style="fill:#00aee0;"/><path d="M338.21,245.3a13.35,13.35,0,0,1,4.89,3.28,19.22,19.22,0,0,1,3.42,4.84,26,26,0,0,1,2.68,11.39,24.62,24.62,0,0,1-2.55,11.46,18.26,18.26,0,0,1-3.53,4.81,12,12,0,0,1-5.08,3.05.77.77,0,0,1-.94-.54.74.74,0,0,1,.15-.69l0,0a23.48,23.48,0,0,0,4.49-8.62,35.69,35.69,0,0,0,1.46-9.44,32.28,32.28,0,0,0-1.26-9.52,20.21,20.21,0,0,0-4.71-8.43l0,0a.93.93,0,0,1,1-1.52Z" style="fill:#00aee0;"/><path d="M247.58,113.66a82.83,82.83,0,0,1,6.11-11.75,109.68,109.68,0,0,1,7.67-10.78,88,88,0,0,1,9-9.7,57.32,57.32,0,0,1,10.71-7.9.76.76,0,0,1,1,1.09c-2.47,3.72-5.18,7.08-7.87,10.44s-5.48,6.6-8.25,9.87l-8.3,9.87c-2.8,3.28-5.56,6.61-8.56,9.84a.92.92,0,0,1-1.53-1Z" style="fill:#ffb400;"/><path d="M235,136.05a8.58,8.58,0,0,1,0-3.27,11,11,0,0,1,.88-2.82,7.63,7.63,0,0,1,1.66-2.42,6.66,6.66,0,0,1,3-1.66,1.08,1.08,0,0,1,1.28.69v0a6.94,6.94,0,0,1,.34,3.45,7.55,7.55,0,0,1-1,2.69,10.69,10.69,0,0,1-1.8,2.28,9.34,9.34,0,0,1-2.71,1.84h0a1.15,1.15,0,0,1-1.52-.59A2,2,0,0,1,235,136.05Z" style="fill:#ffb400;"/><path d="M262.91,439a95.17,95.17,0,0,1-10.43-11.1,125.28,125.28,0,0,1-8.83-12.42,111.5,111.5,0,0,1-7.24-13.39,76.13,76.13,0,0,1-5-14.43.75.75,0,0,1,.57-.9.77.77,0,0,1,.77.29c3,4.11,5.66,8.35,8.29,12.57s5.12,8.49,7.66,12.74,5.13,8.47,7.74,12.69,5.28,8.43,7.84,12.79a.93.93,0,0,1-1.41,1.16Z" style="fill:#ffb400;"/><path d="M544.55,254.73a146.91,146.91,0,0,1,1.66,17.51,168.88,168.88,0,0,1-.3,17.57,144.5,144.5,0,0,1-2.14,17.46c-.55,2.88-1.19,5.74-2,8.58a74.76,74.76,0,0,1-2.7,8.41.75.75,0,0,1-1,.43.77.77,0,0,1-.48-.7h0c0-3,.16-5.85.31-8.75s.34-5.78.56-8.65c.44-5.75.94-11.48,1.43-17.21l1.35-17.23c.49-5.76.72-11.53,1.42-17.34v0a.91.91,0,0,1,1.81,0Z" style="fill:#ffb400;"/><path d="M537.92,200.48a8.89,8.89,0,0,1,2.08,2.61,11.65,11.65,0,0,1,1.09,2.83,8.35,8.35,0,0,1,.23,3,6.77,6.77,0,0,1-1.31,3.26,1.07,1.07,0,0,1-1.43.26h0a7.18,7.18,0,0,1-2.43-2.56,7.88,7.88,0,0,1-.9-2.82,11.4,11.4,0,0,1,0-3,9.35,9.35,0,0,1,1-3.21v0a1.15,1.15,0,0,1,1.54-.5A1.14,1.14,0,0,1,537.92,200.48Z" style="fill:#ffb400;"/><path d="M229.2,222.92a87.54,87.54,0,0,1,.71-13.06A116.55,116.55,0,0,1,232.23,197,95.91,95.91,0,0,1,236,184.55a61.53,61.53,0,0,1,5.87-11.73.77.77,0,0,1,1.06-.22.78.78,0,0,1,.33.72,114.38,114.38,0,0,1-2.21,12.76c-.92,4.17-2,8.28-3,12.39s-2.16,8.23-3.29,12.35-2.3,8.25-3.73,12.36a.92.92,0,0,1-1.17.58A1,1,0,0,1,229.2,222.92Z" style="fill:#ffb400;"/><path d="M524,291a46.45,46.45,0,0,1,.5,8.62,71,71,0,0,1-.77,8.5,53,53,0,0,1-1.89,8.32,32.22,32.22,0,0,1-3.65,7.9.8.8,0,0,1-1.1.22.82.82,0,0,1-.34-.55,40.65,40.65,0,0,1-.09-8.6,78.57,78.57,0,0,1,1.18-8.28c.51-2.74,1.09-5.46,1.79-8.18a64.27,64.27,0,0,1,2.56-8.14.94.94,0,0,1,1.22-.53A1,1,0,0,1,524,291Z" style="fill:#ffb400;"/><path d="M522.44,230.16a61.23,61.23,0,0,1,2.6,10,89,89,0,0,1,1.24,10.15,69.59,69.59,0,0,1,0,10.21,43.9,43.9,0,0,1-1.89,10.17.78.78,0,0,1-1,.5.76.76,0,0,1-.49-.5v0a37.38,37.38,0,0,1-1.17-5c-.31-1.68-.54-3.35-.74-5-.38-3.34-.57-6.67-.69-10s-.2-6.67-.17-10,.12-6.73.48-10.16a.94.94,0,0,1,1.81-.22Z" style="fill:#ffb400;"/><path d="M502.5,156.7a30,30,0,0,1,4,5.52,45.93,45.93,0,0,1,2.93,6,34.67,34.67,0,0,1,2,6.41,21.51,21.51,0,0,1,.29,6.92.82.82,0,0,1-.93.7.86.86,0,0,1-.48-.25,25.2,25.2,0,0,1-3.87-5.64,43.57,43.57,0,0,1-2.55-6c-.73-2.05-1.37-4.14-1.9-6.28a38.31,38.31,0,0,1-1.15-6.65,1,1,0,0,1,.89-1A.91.91,0,0,1,502.5,156.7Z" style="fill:#ffb400;"/><path d="M279.31,106.37a65.5,65.5,0,0,1,6.77-9.7,84.48,84.48,0,0,1,8.2-8.51,68.44,68.44,0,0,1,9.4-7.2,44.77,44.77,0,0,1,10.76-5.08.77.77,0,0,1,.95.51.76.76,0,0,1-.17.74c-2.69,3-5.55,5.49-8.38,8.05s-5.73,5-8.61,7.46l-8.64,7.47c-2.91,2.48-5.79,5-8.89,7.44a.94.94,0,0,1-1.31-.16A1,1,0,0,1,279.31,106.37Z" style="fill:#ffb400;"/><path d="M291.24,125.68a14.58,14.58,0,0,1,1.49-4.3,21.17,21.17,0,0,1,2.4-3.61,14.58,14.58,0,0,1,3.16-3,10.36,10.36,0,0,1,4.34-1.77.94.94,0,0,1,1.05.78,1,1,0,0,1,0,.25h0a12,12,0,0,1-1.53,4.33,17.21,17.21,0,0,1-2.54,3.31,26.1,26.1,0,0,1-3.1,2.81,16.71,16.71,0,0,1-3.84,2.27h0a1,1,0,0,1-1.36-.57A1,1,0,0,1,291.24,125.68Z" style="fill:#ffb400;"/><path d="M258.61,189.65a84.15,84.15,0,0,1,2.82-13.08A110.21,110.21,0,0,1,266,164a89,89,0,0,1,6.14-11.88,58,58,0,0,1,8.25-10.61.76.76,0,0,1,1.25.78c-1.39,4.28-3.12,8.28-4.83,12.29s-3.54,7.92-5.36,11.85L266,178.29c-1.85,4-3.64,8-5.7,11.89a.92.92,0,0,1-1.73-.53Z" style="fill:#ffb400;"/><path d="M251.69,218a9.22,9.22,0,0,1-.91-3.25,12.07,12.07,0,0,1,.1-3.07,8.25,8.25,0,0,1,1-2.9,6.75,6.75,0,0,1,2.47-2.54,1.06,1.06,0,0,1,1.42.31l0,0a7.29,7.29,0,0,1,1.25,3.34,8.23,8.23,0,0,1-.26,3,11.74,11.74,0,0,1-1.13,2.8,9.37,9.37,0,0,1-2.12,2.63l0,0a1.13,1.13,0,0,1-1.6-.12A.87.87,0,0,1,251.69,218Z" style="fill:#ffb400;"/><path d="M278.87,387.83a43.09,43.09,0,0,1-5.61-6.73,63.86,63.86,0,0,1-4.42-7.48,50,50,0,0,1-3.3-8,32.05,32.05,0,0,1-1.52-8.69.8.8,0,0,1,.78-.8.79.79,0,0,1,.6.27,42.51,42.51,0,0,1,5,7.11c1.42,2.45,2.66,5,3.84,7.52s2.31,5.12,3.36,7.74a77.13,77.13,0,0,1,2.85,8.13,1,1,0,0,1-.66,1.16A.92.92,0,0,1,278.87,387.83Z" style="fill:#ffb400;"/><path d="M290.32,404.64a8.11,8.11,0,0,1-2.87-1.33,10.32,10.32,0,0,1-2.08-2,7.2,7.2,0,0,1-1.37-2.49,6.2,6.2,0,0,1-.06-3.34,1.11,1.11,0,0,1,1.19-.83h0a6.68,6.68,0,0,1,3.18,1.16,6.77,6.77,0,0,1,1.88,2,9.91,9.91,0,0,1,1.16,2.53,8.67,8.67,0,0,1,.37,3.16v.05a1.17,1.17,0,0,1-1.24,1.09A.63.63,0,0,1,290.32,404.64Z" style="fill:#ffb400;"/><path d="M501.42,297a24.94,24.94,0,0,1,.79,6.05,37.91,37.91,0,0,1-.36,5.94,27.59,27.59,0,0,1-1.36,5.78,17.62,17.62,0,0,1-3,5.43.85.85,0,0,1-1.19.09,1,1,0,0,1-.26-.4,20.06,20.06,0,0,1-.73-6.08A34.55,34.55,0,0,1,496,308a51.32,51.32,0,0,1,1.39-5.66,29.74,29.74,0,0,1,2.28-5.59,1,1,0,0,1,1.8.21Z" style="fill:#ffb400;"/><path d="M469.2,139.51a104.89,104.89,0,0,1,10.21,14.77,137.67,137.67,0,0,1,8,16.11,127.58,127.58,0,0,1,5.78,17c.75,2.9,1.37,5.83,1.88,8.78.26,1.47.45,3,.66,4.44s.31,3,.39,4.5a.75.75,0,0,1-.71.79.77.77,0,0,1-.72-.44h0c-1.24-2.74-2.3-5.5-3.37-8.24L488.11,189c-2.08-5.48-4.12-10.93-6.27-16.35s-4.43-10.79-6.79-16.14-4.89-10.64-7.38-16a.92.92,0,0,1,.45-1.22A.9.9,0,0,1,469.2,139.51Z" style="fill:#ffb400;"/><path d="M284.27,186a10.55,10.55,0,0,1-.18-3.68,13.54,13.54,0,0,1,.83-3.3,9.81,9.81,0,0,1,1.69-2.93,7.73,7.73,0,0,1,3.14-2.22,1,1,0,0,1,1.32.61v0h0a8.28,8.28,0,0,1,.32,3.77,10,10,0,0,1-1,3.12,14.57,14.57,0,0,1-1.76,2.8,11.53,11.53,0,0,1-2.66,2.46h0a1.11,1.11,0,0,1-1.54-.32A1.19,1.19,0,0,1,284.27,186Z" style="fill:#ffb400;"/><path d="M321.88,401.69a53.82,53.82,0,0,1-9.37-7,72.22,72.22,0,0,1-7.94-8.56,65.89,65.89,0,0,1-6.45-9.7,45.78,45.78,0,0,1-4.3-10.88.77.77,0,0,1,.57-.93.78.78,0,0,1,.72.21,104.42,104.42,0,0,1,7.43,8.72c2.31,3,4.52,5.95,6.75,8.93s4.51,5.92,6.82,8.87,4.66,5.87,7,9a.92.92,0,0,1-1.2,1.36Z" style="fill:#ffb400;"/><path d="M464.61,181.63a60.09,60.09,0,0,1,5.37,9.53,86.32,86.32,0,0,1,3.88,10.18,71.26,71.26,0,0,1,2.49,10.6,45.61,45.61,0,0,1,.41,11,.77.77,0,0,1-1.45.28,74.09,74.09,0,0,1-4.1-10c-1.14-3.35-2.13-6.73-3.08-10.13s-1.89-6.79-2.78-10.23-1.75-6.89-2.42-10.47a.93.93,0,0,1,1.68-.71Z" style="fill:#ffb400;"/><path d="M310.53,141.32a35.87,35.87,0,0,1,4.49-7.15,48.8,48.8,0,0,1,5.73-6.12,38.57,38.57,0,0,1,6.77-5,25.45,25.45,0,0,1,8-3.08.8.8,0,0,1,.92.64.83.83,0,0,1-.14.62h0a52.74,52.74,0,0,1-5.59,6.06c-1.94,1.83-4,3.55-6,5.25s-4.07,3.4-6.17,5.07-4.24,3.34-6.6,4.88a.94.94,0,0,1-1.31-.27A1,1,0,0,1,310.53,141.32Z" style="fill:#ffb400;"/><path d="M350.3,494.1a80.48,80.48,0,0,1-16.71-2.85,99.73,99.73,0,0,1-15.95-5.89,94.7,94.7,0,0,1-14.72-8.49c-1.15-.84-2.29-1.67-3.41-2.54s-2.18-1.81-3.26-2.72-2.09-1.92-3.12-2.88-2-2-2.91-3.1a.74.74,0,0,1,.07-1.06.75.75,0,0,1,.82-.11h0c1.27.61,2.49,1.29,3.72,1.95s2.45,1.3,3.64,2l7.23,4c4.8,2.62,9.6,5.19,14.49,7.58s9.87,4.59,14.94,6.64,10.25,3.86,15.51,5.71a.91.91,0,0,1,.56,1.17A.93.93,0,0,1,350.3,494.1Z" style="fill:#ffb400;"/><path d="M503.7,413.09a38.38,38.38,0,0,1-2.83,7.43,56.73,56.73,0,0,1-4,6.79,42.91,42.91,0,0,1-4.9,6.13,27,27,0,0,1-6.32,4.95.8.8,0,0,1-1.09-.32.89.89,0,0,1-.06-.62,35.8,35.8,0,0,1,3.26-7.2,67.14,67.14,0,0,1,4.23-6.38c1.5-2.05,3.06-4.07,4.72-6a55.42,55.42,0,0,1,5.4-5.69,1,1,0,0,1,1.34.07A.93.93,0,0,1,503.7,413.09Z" style="fill:#ffb400;"/><path d="M457,437.86a13.87,13.87,0,0,1-2,4,19.5,19.5,0,0,1-2.82,3.18,14.3,14.3,0,0,1-3.47,2.42,10.1,10.1,0,0,1-4.47,1.09.93.93,0,0,1-.92-.94.85.85,0,0,1,0-.23h0a11.45,11.45,0,0,1,2.05-4,16.4,16.4,0,0,1,2.91-2.86,25.2,25.2,0,0,1,3.4-2.28,16.5,16.5,0,0,1,4.06-1.64h0a1,1,0,0,1,1.27.76A1.18,1.18,0,0,1,457,437.86Z" style="fill:#ffb400;"/><path d="M460.34,401.55A65.83,65.83,0,0,1,454,412a81,81,0,0,1-8,9.3,66.9,66.9,0,0,1-9.35,7.93,44.91,44.91,0,0,1-10.93,5.69.76.76,0,0,1-.81-1.23c2.73-3.08,5.58-5.8,8.4-8.55l8.51-8.1c2.82-2.72,5.62-5.47,8.43-8.25s5.6-5.59,8.6-8.33a.93.93,0,0,1,1.31.06A.94.94,0,0,1,460.34,401.55Z" style="fill:#ffb400;"/><path d="M475.55,392.33c-2.14,5.59-5.77,14.35-5.2,16,.71,2,12.68-.85,17-10.28,1.95-4.08.82-8.15-1.61-9.64l-.06-.05C481.68,385.72,477.18,388.45,475.55,392.33Z" style="fill:#ff3a00;"/><path d="M476,401.42a22,22,0,0,1,1.09-2.91c.39-.9.8-1.76,1.21-2.6s.8-1.65,1.29-2.45a19.49,19.49,0,0,1,1.79-2.54l0,0a.58.58,0,0,1,.82-.07.7.7,0,0,1,.13.17,5.88,5.88,0,0,1,.59,3.54,8.92,8.92,0,0,1-1.13,3.25,11.23,11.23,0,0,1-2.08,2.66,8.74,8.74,0,0,1-2.89,1.85.66.66,0,0,1-.85-.39.64.64,0,0,1,0-.41Z" style="fill:#04294f;"/><path d="M220.39,279.23c.74,5.94,1.64,15.39,2.94,16.61,1.58,1.46,10.8-6.71,10.15-17-.19-4.52-3.1-7.58-5.94-7.76h-.08C222.71,270.52,220,275,220.39,279.23Z" style="fill:#ff3a00;"/><path d="M225.05,287.06a22.06,22.06,0,0,1-.4-3.08c-.08-1-.12-1.94-.15-2.87s-.07-1.83,0-2.77a19.07,19.07,0,0,1,.38-3.08v-.05a.59.59,0,0,1,.7-.44.66.66,0,0,1,.19.09A5.87,5.87,0,0,1,228,277.7a8.7,8.7,0,0,1,.53,3.41,11.25,11.25,0,0,1-.59,3.32,8.6,8.6,0,0,1-1.69,3,.65.65,0,0,1-.93.06.7.7,0,0,1-.21-.36Z" style="fill:#04294f;"/><path d="M448.67,103.48c-5.58-2.2-14.3-5.92-16-5.36-2,.68.72,12.69,10.11,17.06,4,2,8.14.91,9.65-1.51l.05-.06C455.21,109.68,452.52,105.15,448.67,103.48Z" style="fill:#ffb400;"/><path d="M439.57,103.82a25,25,0,0,1,2.9,1.12c.9.41,1.75.82,2.58,1.24s1.65.82,2.44,1.32a19.34,19.34,0,0,1,2.52,1.81l0,0a.58.58,0,0,1,.05.82.48.48,0,0,1-.16.13,5.91,5.91,0,0,1-3.55.56,8.69,8.69,0,0,1-3.24-1.17,11.45,11.45,0,0,1-2.64-2.11,8.66,8.66,0,0,1-1.82-2.91.66.66,0,0,1,.4-.84.64.64,0,0,1,.41,0Z" style="fill:#04294f;"/><path d="M491.36,226c3,5.21,7.42,13.58,9.08,14.21,2,.75,7.41-10.33,2.84-19.62-1.9-4.11-5.76-5.82-8.46-4.89l-.08,0C490.16,217.08,489.41,222.29,491.36,226Z" style="fill:#ff3a00;"/><path d="M498.66,231.45a22,22,0,0,1-1.55-2.69c-.45-.88-.85-1.74-1.24-2.59s-.76-1.66-1.07-2.55a18.19,18.19,0,0,1-.82-3v0a.57.57,0,0,1,.47-.67.5.5,0,0,1,.21,0,5.94,5.94,0,0,1,3.11,1.79,8.72,8.72,0,0,1,1.79,3,11.36,11.36,0,0,1,.73,3.29,8.58,8.58,0,0,1-.41,3.41.67.67,0,0,1-.84.41.7.7,0,0,1-.33-.25Z" style="fill:#04294f;"/><path d="M253,141.78c0,6-.29,15.47.85,16.84,1.38,1.65,11.55-5.31,12.18-15.64.38-4.51-2.13-7.91-4.93-8.44l-.08,0C256.33,133.42,253.1,137.58,253,141.78Z" style="fill:#ff3a00;"/><path d="M256.6,150.12a23.09,23.09,0,0,1,0-3.11c0-1,.12-1.93.21-2.86a25.77,25.77,0,0,1,.33-2.75,19.22,19.22,0,0,1,.76-3l0,0a.58.58,0,0,1,.74-.35.52.52,0,0,1,.18.1,5.94,5.94,0,0,1,1.82,3.1,9.12,9.12,0,0,1,.1,3.45,11.59,11.59,0,0,1-1,3.22,8.83,8.83,0,0,1-2,2.76.67.67,0,0,1-.94-.06.64.64,0,0,1-.16-.38Z" style="fill:#04294f;"/><path d="M206.73,256.44c-.27-5.26-.92-13.57,0-14.82,1.15-1.51,10.37,4.16,11.37,13.2.53,3.94-1.53,7-4,7.62l-.07,0C210.06,263.63,207,260.12,206.73,256.44Z" style="fill:#ffb400;"/><path d="M210.58,248.43a7.38,7.38,0,0,1,2,2.3,9.64,9.64,0,0,1,1.06,2.81,7.38,7.38,0,0,1,0,3.07,5.11,5.11,0,0,1-1.61,2.81.61.61,0,0,1-.86-.07.75.75,0,0,1-.07-.12l0-.05a14.28,14.28,0,0,1-1-2.6,17.06,17.06,0,0,1-.44-2.35c-.11-.8-.2-1.62-.26-2.48a15.93,15.93,0,0,1,0-2.76v-.08a.67.67,0,0,1,.74-.6A.63.63,0,0,1,210.58,248.43Z" style="fill:#04294f;"/><path d="M282.56,415.1c-5.43-4.39-13.83-11.58-15.91-11.55-2.51.05-3.64,14.36,5.27,22.5,3.81,3.64,8.74,3.86,11.27,1.7l.07-.05C287.66,424.29,286.25,418.31,282.56,415.1Z" style="fill:#ff3a00;"/><path d="M272.23,412.35c1,.77,1.86,1.58,2.7,2.37l2.42,2.35c.79.78,1.57,1.51,2.32,2.33a31.5,31.5,0,0,1,2.31,2.73l0,0a.56.56,0,0,1-.13.78.64.64,0,0,1-.26.1,7.23,7.23,0,0,1-4-.79,10.64,10.64,0,0,1-3.13-2.42,14,14,0,0,1-2.22-3.2,10.7,10.7,0,0,1-1.13-3.75.66.66,0,0,1,.58-.71.67.67,0,0,1,.46.13Z" style="fill:#04294f;"/><path d="M574.61,279.24c-1.73-6.76-4.17-17.55-5.85-18.77-2-1.46-11.49,9.35-9.21,21.2.88,5.2,4.69,8.31,8,8.09h.1C573.22,289.66,575.66,284,574.61,279.24Z" style="fill:#ff3a00;"/><path d="M568,270.86a33.21,33.21,0,0,1,.75,3.52l.54,3.33c.17,1.1.36,2.15.47,3.25a29.34,29.34,0,0,1,.22,3.57v.05a.55.55,0,0,1-.57.54.6.6,0,0,1-.27-.07,7.09,7.09,0,0,1-2.73-3,10.76,10.76,0,0,1-1.07-3.81,14,14,0,0,1,.14-3.88,10.58,10.58,0,0,1,1.33-3.69.64.64,0,0,1,.89-.22.61.61,0,0,1,.29.38Z" style="fill:#04294f;"/><path d="M453.6,144a4,4,0,0,1-3.92-4.78,3.81,3.81,0,0,1,.22-.75,5,5,0,0,1,.37-.69,4.28,4.28,0,0,1,.5-.61,4,4,0,0,1,5.66,0,3.64,3.64,0,0,1,.49.61,3.52,3.52,0,0,1,.37.69,3.83,3.83,0,0,1,.23.75A4,4,0,0,1,453.6,144Z" style="fill:#04294f;"/><path d="M251,447.93a4,4,0,0,1-3.92-4.78,3.81,3.81,0,0,1,.22-.75,5,5,0,0,1,.37-.69,4.28,4.28,0,0,1,.5-.61,4,4,0,0,1,5.66,0,3.64,3.64,0,0,1,.49.61,3.52,3.52,0,0,1,.37.69,3.83,3.83,0,0,1,.23.75,4,4,0,0,1-3.92,4.78Z" style="fill:#04294f;"/><path d="M276.74,123.9a4,4,0,0,1-3.92-4.78,3.81,3.81,0,0,1,.22-.75,5,5,0,0,1,.37-.69,4.28,4.28,0,0,1,.5-.61,4,4,0,0,1,5.66,0,3.64,3.64,0,0,1,.49.61,3.52,3.52,0,0,1,.37.69,3.83,3.83,0,0,1,.23.75,4,4,0,0,1-3.92,4.78Z" style="fill:#04294f;"/><path d="M547.83,192.23a4,4,0,0,1-3.92-4.78,3.81,3.81,0,0,1,.22-.75,5,5,0,0,1,.37-.69,4.28,4.28,0,0,1,.5-.61,4,4,0,0,1,5.66,0,3.64,3.64,0,0,1,.49.61,3.52,3.52,0,0,1,.37.69,3.83,3.83,0,0,1,.23.75,4,4,0,0,1-3.92,4.78Z" style="fill:#04294f;"/><path d="M547.83,228.91a3.09,3.09,0,0,1-3.07-3.08,3,3,0,0,1,.06-.59,2.77,2.77,0,0,1,.17-.58,4.49,4.49,0,0,1,.29-.53,2.89,2.89,0,0,1,.38-.47,3.07,3.07,0,0,1,4.34,0,2.89,2.89,0,0,1,.38.47,2.25,2.25,0,0,1,.28.53,2.79,2.79,0,0,1,.18.58,3,3,0,0,1,.06.59A3.09,3.09,0,0,1,550,228,3.06,3.06,0,0,1,547.83,228.91Z" style="fill:#04294f;"/><path d="M338.94,398.16a3,3,0,0,1-2.17-.91,3.08,3.08,0,0,1-.9-2.16,3.26,3.26,0,0,1,.23-1.18,3.35,3.35,0,0,1,.28-.53,3.6,3.6,0,0,1,.39-.47,3,3,0,0,1,2.17-.89,3.12,3.12,0,0,1,2.17.89,2.89,2.89,0,0,1,.38.47,3.35,3.35,0,0,1,.28.53,3,3,0,0,1,.24,1.18,3.09,3.09,0,0,1-3.07,3.07Z" style="fill:#04294f;"/><path d="M270.24,203.74a3.09,3.09,0,0,1-3.07-3.07,3,3,0,0,1,.07-.6,2.94,2.94,0,0,1,.16-.58,5.45,5.45,0,0,1,.29-.53,2.82,2.82,0,0,1,.38-.46,3,3,0,0,1,2.17-.9,3.09,3.09,0,0,1,2.18.9,2.33,2.33,0,0,1,.37.46,3.06,3.06,0,0,1,.29.53,3.89,3.89,0,0,1,.18.58,3.93,3.93,0,0,1,.06.6,3,3,0,0,1-.9,2.16A3.1,3.1,0,0,1,270.24,203.74Z" style="fill:#04294f;"/></svg>