<?xml version="1.0" encoding="utf-8"?>
<!-- Generator: Adobe Illustrator 23.0.2, SVG Export Plug-In . SVG Version: 6.00 Build 0)  -->
<svg version="1.1" id="uploading" xmlns="http://www.w3.org/2000/svg" xmlns:xlink="http://www.w3.org/1999/xlink" x="0px" y="0px" viewBox="0 0 800 726.9" style="enable-background:new 0 0 800 726.9;" xml:space="preserve">

<g>
	<g>
		<path d="M759.8,399.8c-157.8,47.5-530.1-19.2-564.7-84.7c-30.7-58,23.9-132.6,83.1-134.1l0,0
			c2.2,9.1,9.1,20.9,14.4,26.3c0.7,0.9,1.9,1.1,2.8,0.5c0.6-0.4,0.9-1.2,0.8-1.9c-0.7-7.7-0.6-15.3,0.3-23c0,0,0,0,0,0
			c0,0,13.8-162.3,193.8-163c102.1-0.4,150.2,76,168,114c0,0,0.1,0.1,0.1,0.1c-17,5.3-27.7,16.7-34.6,26.1c-1.4,1.7-1.1,4.3,0.6,5.7
			c1.2,1,2.9,1.2,4.3,0.5c16.7-7.6,37.7-10.3,38.7-10.4c0,0,0,0.1,0,0.1C812.4,167.5,826.5,351,759.8,399.8z" style="fill:#00ACDC;"/>
		<path d="M627.2,373c-6.8-1.6-13.3-4.6-18.9-8.8c-5.6-4.2-10.4-9.4-14.2-15.4c-3.8-5.9-6.7-12.4-8.5-19.2
			c-3.5-13.7-3-28,1.3-41.4c2.2-6.7,5.4-12.9,9.5-18.6c4.1-5.7,9.1-10.6,14.9-14.6c5.7-3.9,12.2-6.7,19-8.1c0.9-0.2,1.8,0.4,2,1.3
			c0.2,0.8-0.3,1.7-1.1,2l0,0c-12,4.3-22.3,12.5-29.1,23.3c-6.8,10.6-10.5,22.9-10.7,35.6c-0.5,12.6,2.6,25,9,35.9
			c6.3,10.8,16.1,19.6,28.1,24c1.1,0.5,1.5,1.8,1,2.8C629,372.7,628.1,373.1,627.2,373L627.2,373z" style="fill:#10294C;"/>
		<circle cx="261" cy="263.7" r="18.5" style="fill:#10294C;"/>
		<circle cx="687.2" cy="322.3" r="18.5" style="fill:#10294C;"/>
		<circle cx="269.6" cy="65.2" r="19.9" style="fill:#00ACDC;"/>
		<circle cx="321.5" cy="11.9" r="11.9" style="fill:#00ACDC;"/>
		<circle cx="728.4" cy="134" r="11.9" style="fill:#00ACDC;"/>
		<path d="M261.6,250.2c-0.2-0.1-0.4-0.2-0.6-0.3c-0.2-0.1-0.4-0.1-0.6-0.2c-0.4-0.1-0.9-0.1-1.3,0
			c-0.2,0-0.4,0.1-0.6,0.2c-0.2,0.1-0.4,0.2-0.6,0.3c-0.2,0.1-0.4,0.3-0.5,0.4c-0.6,0.6-1,1.5-1,2.4c0,0.2,0,0.4,0.1,0.7
			c0,0.2,0.1,0.4,0.2,0.6c0.1,0.2,0.2,0.4,0.3,0.6c0.1,0.2,0.3,0.4,0.4,0.5c0.1,0.2,0.3,0.3,0.5,0.4c0.2,0.1,0.4,0.2,0.6,0.3
			c0.2,0.1,0.4,0.1,0.6,0.2c0.4,0.1,0.9,0.1,1.3,0c0.2,0,0.4-0.1,0.6-0.2c0.2-0.1,0.4-0.2,0.6-0.3c0.2-0.1,0.4-0.3,0.5-0.4
			c0.6-0.6,1-1.5,1-2.4c0-0.9-0.4-1.8-1-2.4C261.9,250.5,261.8,250.3,261.6,250.2z" style="fill:#F8F9F8;"/>
		<path d="M253.6,258.6c-1.7-0.9-3.7-0.2-4.6,1.5c0,0,0,0,0,0c-0.4,0.8-0.7,1.7-0.9,2.6c-0.3,1.4-0.3,2.8-0.1,4.2
			c0.3,1.6,1.7,2.9,3.4,2.9c0.2,0,0.4,0,0.6,0c1.9-0.3,3.1-2.1,2.8-3.9c-0.1-0.5-0.1-1.1,0.1-1.6c0.1-0.3,0.2-0.7,0.4-1
			C256,261.6,255.3,259.5,253.6,258.6C253.7,258.7,253.6,258.6,253.6,258.6z" style="fill:#F8F9F8;"/>
		<path d="M687.7,308.7c-0.2-0.1-0.4-0.2-0.6-0.3c-0.2-0.1-0.4-0.1-0.6-0.2c-0.4-0.1-0.9-0.1-1.3,0
			c-0.2,0-0.4,0.1-0.6,0.2c-0.2,0.1-0.4,0.2-0.6,0.3c-0.2,0.1-0.4,0.3-0.5,0.4c-0.6,0.6-1,1.5-1,2.4c0,0.2,0,0.4,0.1,0.7
			c0,0.2,0.1,0.4,0.2,0.6c0.1,0.2,0.2,0.4,0.3,0.6c0.1,0.2,0.3,0.4,0.4,0.5c0.1,0.2,0.3,0.3,0.5,0.4c0.2,0.1,0.4,0.2,0.6,0.3
			c0.2,0.1,0.4,0.1,0.6,0.2c0.4,0.1,0.9,0.1,1.3,0c0.2,0,0.4-0.1,0.6-0.2c0.2-0.1,0.4-0.2,0.6-0.3c0.2-0.1,0.4-0.3,0.5-0.4
			c0.6-0.6,1-1.5,1-2.4c0-0.9-0.4-1.8-1-2.4C688.1,309,687.9,308.8,687.7,308.7z" style="fill:#F8F9F8;"/>
		<path d="M679.8,317.2c-1.7-0.9-3.7-0.2-4.6,1.5c0,0,0,0,0,0c-0.4,0.8-0.7,1.7-0.9,2.6c-0.3,1.4-0.3,2.8-0.1,4.2
			c0.3,1.6,1.7,2.8,3.3,2.9c0.2,0,0.4,0,0.6,0c1.9-0.3,3.1-2.1,2.8-3.9c-0.1-0.5-0.1-1.1,0-1.6c0.1-0.3,0.2-0.7,0.4-1
			C682.1,320.1,681.5,318.1,679.8,317.2C679.8,317.2,679.8,317.2,679.8,317.2z" style="fill:#F8F9F8;"/>
		<path d="M364.3,338.2c47.6-36.1,10.7-96.9,10.7-96.9l0,0c244.4-52.7,237.4,203.8-10.8,96.9H364.3z" style="fill:#10294C;"/>
		<path d="M454.5,234.7l-20.6,8.8c-7.1,3-12,9.7-12.8,17.4l-1.4,13.6c-0.4,8.2,2.1,10.6,8.7,14.9
			c0.9,0.6,1.7,1.3,2.4,2.1c3.7,4.6,1.7,10.7,6.8,12.9l0.6,0.2l9.2,3.3l-0.8,8.2l-0.4,4.3c-0.6,6.3,3.1,12.2,9.1,14.3l60.9,21.7
			l10.9-4.6C579.9,320.5,556.2,242.4,454.5,234.7z" style="fill:#FDB813;"/>
		<path d="M531.7,262.8c-12.2,0-21.7,3.9-22.1,9.3c-0.4,6,10.7,11.7,24.8,12.6c4.7,0.4,9.4,0.1,14-0.8
			C544.3,275.9,538.6,268.7,531.7,262.8z" style="fill:#F04E23;"/>
		<path d="M540.3,271.5c-1.8-0.5-3.6-0.9-5.5-1c-5.3-0.4-9.7,0.8-9.8,2.6s4.1,3.6,9.4,3.9c4.1,0.3,7.6-0.4,9.1-1.5
			C542.4,274.2,541.4,272.8,540.3,271.5z" style="fill:#FDB813;"/>
		
			<ellipse transform="matrix(6.982913e-02 -0.9976 0.9976 6.982913e-02 175.579 752.9488)" cx="491.5" cy="282.3" rx="2.8" ry="6.5" style="fill:#F04E23;"/>
		<polygon points="463.4,249.2 447.3,243.6 441.6,246 457.7,251.6 		" style="fill:#10294C;"/>
		<polygon points="472.1,252.3 466.4,254.7 493.3,264.2 499,261.8 		" style="fill:#10294C;"/>
		<polygon points="484.3,247 459.8,238.4 454.1,240.7 478.7,249.4 		" style="fill:#10294C;"/>
		<polygon points="493,250.1 487.3,252.4 505.9,259 511.5,256.6 		" style="fill:#10294C;"/>
		<path d="M465.6,267.1c-3.2-0.5-6.4-1.2-9.5-2.1c-3.1-0.9-6.2-1.9-9.2-3c-3-1.1-6-2.3-9-3.7c-3-1.3-5.9-2.8-8.7-4.5
			c-0.6-0.4-0.8-1.2-0.4-1.8c0.3-0.4,0.8-0.7,1.3-0.6c3.2,0.5,6.4,1.1,9.6,2c3.1,0.8,6.2,1.8,9.3,2.8c3.1,1,6,2.2,9.1,3.5
			c3,1.3,5.9,2.7,8.7,4.4c0.8,0.4,1.1,1.4,0.7,2.2C467.1,266.9,466.4,267.2,465.6,267.1L465.6,267.1z" style="fill:#F04E23;"/>
		<path d="M477.8,330.7c-1.7,0-3.4-0.2-5.1-0.6c-1.6-0.4-3.2-0.8-4.8-1.4c-1.6-0.6-3.1-1.3-4.6-2.1
			c-1.5-0.8-3-1.8-4.3-2.9c-0.6-0.5-0.6-1.4-0.1-1.9c0.3-0.3,0.6-0.5,1-0.5c1.7-0.1,3.5,0.1,5.1,0.4c1.6,0.3,3.3,0.7,4.8,1.3
			c1.6,0.5,3.1,1.2,4.6,1.9c1.5,0.8,3,1.7,4.3,2.8c0.7,0.6,0.9,1.6,0.3,2.4C478.8,330.5,478.3,330.7,477.8,330.7L477.8,330.7z" style="fill:#F04E23;"/>
		<path d="M441.9,272.7c-1.5,0.1-3,0-4.5-0.3c-1.4-0.3-2.8-0.7-4.1-1.2c-1.4-0.5-2.7-1.1-3.9-1.8
			c-1.3-0.7-2.5-1.6-3.6-2.7c-0.6-0.5-0.6-1.4,0-2c0,0,0,0,0,0c0.2-0.2,0.5-0.4,0.9-0.4c1.5-0.1,3-0.1,4.5,0.2
			c1.4,0.2,2.8,0.6,4.2,1c1.4,0.4,2.7,1,4,1.7c1.3,0.7,2.6,1.5,3.7,2.6c0.7,0.7,0.8,1.8,0.1,2.5
			C442.8,272.5,442.4,272.7,441.9,272.7L441.9,272.7z" style="fill:#F04E23;"/>
		<path d="M551.3,292.7c-2.6,0.9-5.1,1.7-7.7,2.7c-2.7,1-5.4,2-8.1,3c-2.7,1-5.4,2.1-8.1,3.1c-2.3,0.9-4.6,1.8-6.9,2.8
			c-3.2-1.2-6.4-2.3-9.6-3.5c-3.6-1.2-7.1-2.5-10.7-3.6c-1.8-0.6-3.6-1.1-5.4-1.7s-3.6-1.1-5.4-1.6c-3.6-1-7.3-2-11-2.9
			c-0.7-0.2-1.4,0.3-1.5,1c-0.1,0.6,0.1,1.2,0.7,1.4c3.4,1.7,6.8,3.2,10.3,4.7c1.7,0.8,3.5,1.5,5.2,2.2c1.7,0.7,3.5,1.4,5.2,2.1
			c3.5,1.4,7,2.7,10.6,4c3.1,1.1,6.2,2.2,9.4,3.3c-0.6,2.5-1,4.9-1.4,7.4c-0.3,1.8-0.5,3.6-0.7,5.4c-3.4-1.8-6.9-3.4-10.4-4.8
			c-3.7-1.5-7.5-3-11.3-4.3s-7.6-2.5-11.5-3.6c-3.9-1.1-7.8-2.1-11.8-2.8c-0.7-0.1-1.4,0.3-1.5,1c-0.1,0.6,0.2,1.1,0.7,1.4
			c3.5,1.9,7.2,3.7,10.9,5.3c3.7,1.6,7.4,3.1,11.2,4.5c3.8,1.4,7.6,2.6,11.4,3.8c3.9,1.2,7.8,2.2,11.8,3h0.2c0,0.4-0.1,0.9-0.1,1.3
			c-0.3,3.4-0.4,6.7-0.4,10.1c-0.1,3.4,0.1,6.8,0.4,10.2c0.1,0.5,0.4,1,0.9,1.1c0.7,0.2,1.4-0.2,1.6-0.9c0,0,0,0,0,0
			c0.9-3.3,1.7-6.6,2.2-9.9c0.6-3.3,1-6.7,1.3-10c0.3-3.3,0.6-6.7,0.6-10.1c0.1-2.6,0.1-5.1-0.1-7.7c2.4-1.1,4.9-2.1,7.3-3.2
			c2.6-1.2,5.3-2.3,7.9-3.6s5.2-2.4,7.8-3.7c2.2-1,4.3-2.1,6.4-3.2C551.8,295,551.6,293.8,551.3,292.7z" style="fill:#F04E23;"/>
		<path d="M515.9,251.6c-6.3,1.9-12.6,4.1-18.6,6.6c-3.7,1.5-7.3,3.2-10.8,5.1c-3.6,1.9-7,4.1-10.3,6.6
			c-3.4,2.5-6.4,5.6-8.8,9.2c-1.3,1.9-2.2,4.1-2.7,6.3c-0.5,2.3-0.5,4.7,0,7c0.1,0.5,0.2,1.1,0.4,1.6c0.1,0.3,0.2,0.7,0.2,1
			c0.1,0.4,0,0.8-0.1,1.2c-0.2,0.6-1.5,1.6-3,2.3c-3,1.5-7.4,2.2-11,5.1c-0.6,0.5-0.8,1.4-0.5,2.1c0.4,0.9,1.4,1.3,2.3,0.9
			c0,0,0,0,0,0h0.1c1.6-0.7,3.3-1.2,5-1.5c2-0.4,4-0.8,5.9-1.5c1.1-0.4,2.2-0.8,3.2-1.5c1.2-0.7,2.3-1.8,3-3
			c0.7-1.4,1.1-2.9,0.9-4.5c-0.1-0.6-0.2-1.3-0.3-1.9c-0.1-0.5-0.2-0.9-0.3-1.3c-0.3-1.5-0.3-3.1,0.1-4.6c0.4-1.6,1-3.1,1.9-4.4
			c0.9-1.5,2-2.8,3.3-4.1c0.6-0.6,1.3-1.3,2-1.9c0.7-0.6,1.4-1.2,2.1-1.8c3-2.3,6.1-4.4,9.4-6.3c3.3-1.9,6.7-3.7,10.2-5.3
			c6.6-3.1,13.5-5.9,20.4-8.6C518.6,253.3,517.3,252.4,515.9,251.6z" style="fill:#F04E23;"/>
		
			<ellipse transform="matrix(6.871183e-02 -0.9976 0.9976 6.871183e-02 197.9916 778.0557)" cx="515.7" cy="283" rx="5.8" ry="13.5" style="fill:#10294C;"/>
		<path d="M384.3,292.4c-5.6-2.6-3.1-13.7,4.8-13.2S399.1,299.3,384.3,292.4z" style="fill:#FDB813;"/>
		<path d="M360.5,305.4c-5.2-5.4,2.8-12.1,6.6-6.4C370.8,304.7,365.8,310.8,360.5,305.4z" style="fill:#FDB813;"/>
		<path d="M403.9,338.1c-5.6-6.6-1.6-15,9.4-14.2C424.3,324.6,416.5,353.1,403.9,338.1z" style="fill:#FDB813;"/>
		<path d="M326.7,252.8c5-1.7,10.1-3.5,15.1-5.1l7.6-2.3l3.8-1.2c1.3-0.4,2.6-0.7,3.8-1.1c5.1-1.4,10.3-2.8,15.5-4
			c2.6-0.6,5.2-1.2,7.8-1.8l7.8-1.6c1.3-0.3,2.6-0.5,3.9-0.7l4-0.6c2.6-0.4,5.3-0.9,7.9-1.2c5.3-0.6,10.6-1.4,16-1.7
			c5.3-0.5,10.7-0.6,16.1-0.8h8.1h2l2,0.1l4,0.2c10.8,0.5,21.5,2,32,4.4c10.6,2.4,20.9,6.1,30.7,11c4.9,2.5,9.6,5.4,14,8.6l3.3,2.5
			c0.5,0.4,1.1,0.8,1.6,1.3l1.5,1.4c1,0.9,2.1,1.8,3.1,2.8l2.9,3c1,1,1.8,2.1,2.7,3.2c0.9,1.1,1.8,2.1,2.6,3.3l2.4,3.4l2.2,3.6
			c2.8,4.9,4.9,10.2,6.3,15.7c1.3,5.6,1.7,11.4,1.2,17.1c-0.5,5.7-2,11.3-4.4,16.5c-2.4,5.2-5.6,9.9-9.5,14.1
			c-1.9,2.1-3.9,4-6.1,5.9c-2.2,1.7-4.5,3.4-6.8,4.9c-2.3,1.5-4.8,2.9-7.3,4.1c-1.2,0.6-2.5,1.1-3.8,1.7s-2.5,1.1-3.8,1.6l-3.9,1.4
			c-1.3,0.5-2.6,0.8-3.9,1.2c-1.3,0.4-2.6,0.8-4,1.1l-4,0.9c-10.7,2.1-21.5,2.9-32.4,2.5c-21.6-0.8-42.7-5.3-63-11.6
			c-5-1.7-10.1-3.3-15.1-5.2c-2.5-0.9-5-1.8-7.5-2.8l-7.4-3l-3.7-1.5l-3.6-1.6l-7.3-3.2c-4.8-2.2-9.6-4.6-14.4-6.9
			c-0.9-0.4-1.2-1.4-0.8-2.3c0.4-0.9,1.4-1.2,2.3-0.8l0,0h0.1c4.8,2.1,9.6,4.2,14.5,6.3l7.3,3l3.7,1.5l3.7,1.4l7.4,2.8
			c2.5,0.9,5,1.7,7.5,2.5c5,1.7,10,3.2,15,4.7c2.5,0.8,5,1.4,7.6,2c2.5,0.7,5,1.4,7.6,1.9l7.7,1.7l7.7,1.4c10.3,1.8,20.6,2.8,31,3
			c10.3,0.2,20.6-0.7,30.7-2.8l3.7-0.8c1.2-0.3,2.4-0.7,3.7-1c1.2-0.3,2.5-0.7,3.6-1.1l3.6-1.3c1.2-0.4,2.4-0.9,3.5-1.5
			c1.1-0.5,2.3-1,3.4-1.6c2.2-1.1,4.4-2.4,6.5-3.8c2.1-1.3,4.1-2.8,6-4.4c1.9-1.6,3.6-3.3,5.3-5.1c3.3-3.6,6-7.7,8.1-12.1
			c4-9,4.8-19,2.5-28.5c-1.2-4.8-3-9.4-5.4-13.6l-1.9-3.2l-2.1-3c-0.7-1-1.5-2-2.3-2.9c-0.8-1-1.6-1.9-2.4-2.8l-2.6-2.7
			c-0.9-0.9-1.9-1.7-2.8-2.5l-1.4-1.3c-0.5-0.4-1-0.8-1.5-1.2l-3-2.3c-1-0.7-2.1-1.4-3.1-2.2c-1-0.7-2.1-1.5-3.2-2.1
			c-2.2-1.3-4.3-2.6-6.6-3.7c-9.1-4.7-18.8-8.2-28.8-10.6c-10.1-2.4-20.3-3.9-30.7-4.6l-3.9-0.2l-1.9-0.1h-2l-7.8-0.1
			c-5.2,0.1-10.4,0.2-15.6,0.6c-5.2,0.2-10.4,0.9-15.6,1.4c-2.6,0.3-5.2,0.7-7.8,1l-3.9,0.5c-1.3,0.2-2.6,0.4-3.9,0.6l-7.7,1.3
			c-2.6,0.5-5.1,1-7.7,1.6c-5.2,1-10.3,2.3-15.4,3.5c-1.3,0.3-2.6,0.6-3.8,0.9l-3.8,1l-7.6,2.1c-5,1.4-10.1,3-15.1,4.5H328
			c-1.1,0.3-2.3-0.4-2.6-1.5C325.1,254.2,325.6,253.1,326.7,252.8L326.7,252.8z" style="fill:#10294C;"/>
	</g>
	<g>
		<path d="M416,469.1c95.1,7.9,169.7,43.4,166.7,79.3c-3,35.9-82.4,58.7-177.5,50.8c-95-7.9-169.7-43.4-166.7-79.3
			S321,461.2,416,469.1z M562.2,548.1c0.8-10.4-17.6-23.9-36.2-32.8c-29-13.8-68.6-23.3-111.6-26.9c-11.7-1-23.5-1.5-34.9-1.5
			c-75.8,0-119.5,21.3-120.7,36.1c-0.9,10.4,17.6,23.9,36.2,32.8c29,13.8,68.6,23.3,111.6,26.9c11.7,1,23.4,1.5,34.8,1.5
			C517.4,584.2,561,562.9,562.2,548.1z" style="fill:#FFFFFF;"/>
		<path d="M582.6,549.5c0-0.4,0.1-0.8,0.1-1.2c0,0.2,0,0.4-0.1,0.6c0.9-18.4-16-36.9-47.8-52
			c-31.2-14.8-73.3-25.1-118.7-28.8c-96.5-8-174.5,15.4-177.6,53.3c0,0.3,0,0.5-0.1,0.8c0-0.8,0-1.5,0.1-2.3
			c-3,35.9-10.5,189.6,156.7,206.4c169.7,11.4,184.1-137.1,187.3-176.1c0-0.1,0-0.2,0-0.3l0,0C582.6,549.8,582.6,549.6,582.6,549.5z
			 M246.6,522.1c2.3-27.9,60.5-47.4,133.7-47.4c11.4,0,23.2,0.5,35.2,1.5c44.4,3.7,85.6,13.6,115.9,28.1
			c28.7,13.6,44.5,30.1,43.2,45l0,0c-1.2,15-19.5,28.6-50,37.3c-32.2,9.2-74.5,12.3-118.9,8.6s-85.6-13.6-115.9-28.1
			C261.1,553.4,245.3,537.1,246.6,522.1z" style="fill:#F04E23;"/>
		<g id="_Groupe_">
			<path d="M526,515.4c18.6,8.9,37,22.4,36.2,32.8c-1.2,14.7-44.9,36.1-120.7,36.1c-11.4,0-23.2-0.5-34.8-1.5
				c-43-3.6-82.6-13.1-111.6-26.9c-18.6-8.9-37-22.4-36.2-32.8c1.2-14.7,44.9-36.1,120.7-36.1c11.4,0,23.2,0.5,34.9,1.5
				C457.4,492,497,501.6,526,515.4z" style="fill:#10294C;"/>
		</g>
		<path d="M493.9,675.8L493.9,675.8z" style="fill:#10294C;"/>
		<path d="M493.9,675.8" style="fill:#10294C;"/>
		<path d="M289.8,567.1c30.3,14.4,71.5,24.4,115.9,28.1s86.6,0.6,118.9-8.6c30.6-8.7,48.8-22.3,50-37.3l0,0
			c1.2-15-14.5-31.4-43.2-45c-30.3-14.4-71.5-24.4-115.9-28.1c-12-1-23.8-1.5-35.2-1.5c-73.2,0-131.4,19.5-133.7,47.4
			C245.3,537.1,261.1,553.4,289.8,567.1z" style="fill:none;"/>
		<path d="M403.4,491.1l0.6,0.2l-2,26.7l-52.5-18.7L276,530.2l0.6,0.2l-1.4,13.9c6.3,4.4,12.9,8.3,19.9,11.6
			c29,13.8,68.6,23.3,111.6,26.9c11.7,1,23.4,1.5,34.8,1.5c46.5,0,80.8-8.1,100.8-17.6l5.3-80.8l0.3-0.1l-71-25.3L403.4,491.1z" style="fill:#FDB813;"/>
		<path d="M509.7,531.1c-1.8,1.4-3.7,2.6-5.8,3.7c-2,1.1-4,2-6.1,2.8c-2.1,0.8-4.2,1.6-6.4,2.2
			c-2.2,0.7-4.4,1.1-6.7,1.4c-0.7,0.1-1.4-0.4-1.5-1.2c-0.1-0.5,0.1-0.9,0.5-1.2c1.8-1.4,3.7-2.7,5.7-3.8c2-1.1,4-2.1,6-3
			c2.1-0.9,4.2-1.7,6.3-2.4c2.2-0.7,4.4-1.2,6.7-1.5c0.9-0.1,1.7,0.6,1.8,1.5C510.4,530.2,510.2,530.7,509.7,531.1L509.7,531.1z" style="fill:#F04E23;"/>
		<path d="M428.7,520c3.1,1.4,6.2,2.6,9.4,3.8c3.2,1.2,6.4,2.2,9.6,3.2c3.3,1,6.6,1.8,9.9,2.3c0.9,0.1,1.7-0.4,1.9-1.3
			c0.1-0.7-0.2-1.4-0.9-1.7c-3-1.7-6-3.2-9.2-4.5c-3.1-1.3-6.3-2.5-9.5-3.6c-3.2-1.1-6.4-2.1-9.7-3c-3.3-0.9-6.6-1.7-10-2.2
			c-0.5-0.1-1,0.2-1.3,0.6c-0.4,0.6-0.2,1.4,0.5,1.8C422.5,517.1,425.6,518.7,428.7,520z" style="fill:#F04E23;"/>
		<path d="M516.7,548.2c-2.7,1.1-5.4,2.2-8.2,3.2h0.5c2.8,0.2,5.5,0.5,8.3,0.7c2.8,0.3,5.5,0.6,8.3,1
			c1.8,0.3,3.5,0.5,5.3,0.8c0.1-0.5,0.1-1.1,0.2-1.6c0.2-1.6,0.5-3.2,0.7-4.7c0.2-1.6,0.5-3.1,0.9-4.7c0.2-0.8,0.3-1.5,0.5-2.3
			c-1.5,0.8-3,1.5-4.6,2.3C524.6,544.9,520.7,546.6,516.7,548.2z" style="fill:none;"/>
		<path d="M540.7,535.2c-0.2-0.9-1.1-1.4-1.9-1.2c0,0,0,0,0,0c-4.2,1.1-8.3,2.4-12.4,3.9c-4,1.5-8.1,3-12,4.8
			c-4,1.7-7.9,3.5-11.7,5.4c-3.9,1.9-7.7,3.9-11.4,6.2c-0.6,0.4-0.8,1.2-0.4,1.8c0.3,0.5,0.9,0.7,1.4,0.6c2.8-0.7,5.5-1.5,8.1-2.4
			c2.6,0.8,5.3,1.4,8,2c2.7,0.6,5.5,1.1,8.2,1.6c2.7,0.5,5.5,0.9,8.2,1.3s5.5,0.8,8.3,1.1h0.2h0.2c1.6,0.1,2.9-1.1,3-2.7
			c0,0,0,0,0,0c0.1-1.6,0.1-3.2,0.2-4.8c0.1-1.6,0.1-3.2,0.1-4.8s0-3.2-0.1-4.8c0-1.4-0.1-2.8-0.3-4.3c1.2-0.7,2.5-1.4,3.7-2.1
			C540.6,536.6,540.8,535.9,540.7,535.2z M532.6,543c-0.3,1.6-0.6,3.1-0.9,4.7c-0.3,1.6-0.5,3.1-0.7,4.7c-0.1,0.5-0.1,1-0.2,1.6
			c-1.8-0.3-3.5-0.5-5.3-0.8c-2.7-0.4-5.5-0.7-8.3-1c-2.8-0.3-5.5-0.6-8.3-0.7h-0.5c2.7-1,5.5-2,8.2-3.2c4-1.6,7.9-3.4,11.8-5.2
			c1.5-0.7,3.1-1.5,4.6-2.3C532.9,541.5,532.8,542.2,532.6,543L532.6,543z" style="fill:#F04E23;"/>
		<polygon points="484.1,502.3 434.6,484.6 426.2,488.2 475.6,505.8 		" style="fill:#FFFFFF;"/>
		<polygon points="355.7,542.7 306.2,525 297.8,528.6 347.2,546.2 		" style="fill:#FFFFFF;"/>
		<polygon points="454.5,476.2 446,479.7 475.2,490.2 483.7,486.6 		" style="fill:#FFFFFF;"/>
		<polygon points="504.4,494 492.1,489.6 483.7,493.1 496,497.5 		" style="fill:#FFFFFF;"/>
		<polygon points="486.8,472.5 478.4,476.1 515.3,489.3 523.8,485.7 		" style="fill:#FFFFFF;"/>
		<path d="M357.4,511.8c-11.4-0.6-21.3,1.1-26.5,4.1l25.9,6l-17.3,7.5c5.5,1.5,11.1,2.4,16.7,2.7
			c16.3,0.8,29.8-3,30.1-8.7C386.7,517.8,373.7,512.6,357.4,511.8z" style="fill:#00ACDC;"/>
		<path d="M356.9,522l-25.9-6c-2.2,1.3-3.5,2.8-3.6,4.6c-0.2,3.5,4.7,6.8,12.3,9.1L356.9,522z" style="fill:#10294C;"/>
		<polygon points="442.1,566 424.7,559.8 419.1,562.2 436.4,568.3 		" style="fill:#F04E23;"/>
		<polygon points="450.8,569 445.1,571.4 470.8,580.4 476.5,578.1 		" style="fill:#F04E23;"/>
		<polygon points="425.5,579.6 399.5,570.4 393.8,572.8 419.9,581.9 		" style="fill:#F04E23;"/>
		<polygon points="453.8,579.7 412.2,565.1 406.6,567.4 448.2,582 		" style="fill:#F04E23;"/>
		<polygon points="443.6,561.1 483.1,575.2 488.8,572.8 449.2,558.8 		" style="fill:#F04E23;"/>
		<path d="M540.7,488.8c-0.3-0.8-1.2-1.3-2-1c0,0,0,0,0,0c-5.5,1.9-11.1,4-16.5,6L514,497l-8.2,3.2
			c-5.4,2.2-10.9,4.4-16.3,6.6c-5,2.1-10.1,4.2-15.2,6.3c-4.9-1.7-9.8-3.4-14.7-5.1c-5.3-1.8-10.6-3.6-15.9-5.3
			c-5.3-1.7-10.6-3.5-15.9-5.1s-10.7-3.3-16-4.9c-0.7-0.2-1.4,0.2-1.6,0.9c-0.2,0.6,0.1,1.3,0.7,1.5c5.1,2.2,10.3,4.3,15.5,6.4
			c5.2,2.1,10.4,4.1,15.6,6c5.2,1.9,10.4,4,15.6,5.9c4.8,1.8,9.7,3.5,14.5,5.3c-0.5,2.6-0.9,5.1-1.3,7.7c-0.5,3.5-0.8,6.9-1,10.4
			c-0.2,3.5-0.3,6.9-0.3,10.4c0,2.3,0.1,4.7,0.3,7c-4.8-1.8-9.6-3.6-14.4-5.3c-5.9-2.1-11.8-4.3-17.7-6.4l0,0
			c-0.7-0.2-1.5-0.2-2.1,0.1c-5,2.1-10.1,4.3-15.2,6.4c0.2-0.9,0.4-1.8,0.6-2.7c0.5-2.4,0.8-4.8,1-7.2c0.2-2.4,0.4-4.8,0.4-7.2
			c0-2-0.1-3.9-0.4-5.9c0.9-0.8,1-2.1,0.2-3c-0.3-0.3-0.6-0.5-1-0.6l-7.4-2.4c-2.5-0.8-4.9-1.5-7.4-2.3c-0.8-0.2-1.6,0.2-1.9,1
			c-0.3,0.8,0.1,1.7,0.9,2c2.4,1,4.8,2,7.2,2.9l2,0.8c-1.4,0.5-2.8,1-4.2,1.6l-9.3,3.6c-6.2,2.5-12.3,4.9-18.5,7.5
			c-6.2,2.5-12.3,5-18.4,7.6c-5.8,2.4-11.5,4.9-17.3,7.3c-5-1.8-10.1-3.5-15.2-5.2c-5.4-1.9-10.9-3.7-16.3-5.5
			c-5.4-1.8-10.9-3.6-16.4-5.3c-5.5-1.7-11-3.5-16.5-5.1c-0.7-0.2-1.4,0.1-1.6,0.8c-0.2,0.7,0.1,1.4,0.8,1.6
			c5.3,2.2,10.7,4.3,16,6.4s10.7,4.2,16.1,6.2c5.4,2.1,10.7,4.1,16.1,6c4.9,1.8,9.9,3.7,14.8,5.5c-0.5,1.9-0.9,3.9-1.2,5.8
			c-0.5,2.8-0.8,5.6-1,8.4c0,0.2,0,0.3,0,0.5c1.9,0.5,3.9,1,5.9,1.4c0-0.5,0.1-0.9,0.2-1.3c0.3-2.8,0.5-5.6,0.5-8.4c0-2,0-4-0.2-6.1
			c5.9-2.4,11.8-4.9,17.7-7.4c6.1-2.6,12.2-5.1,18.3-7.8c6.1-2.6,12.2-5.3,18.3-7.9l9.1-4l5.3-2.4c-0.3,1.1-0.5,2.2-0.7,3.3
			c-0.4,2.4-0.7,4.8-0.9,7.2c-0.2,2.4-0.2,4.8-0.2,7.2c0,1.6,0.2,3.3,0.3,4.9c-5.1,2.2-10.3,4.4-15.4,6.7
			c-5.8,2.5-11.6,5.1-17.3,7.7s-11.5,5.2-17.2,8c-0.7,0.4-1.1,1.2-0.8,2c0.3,0.8,1.2,1.2,2,1c6-2.1,11.8-4.5,17.7-6.7
			c5.9-2.2,11.8-4.6,17.6-6.9c5.9-2.4,11.7-4.7,17.6-7.1c5.5-2.2,11-4.5,16.4-6.8c5.5,2,11.1,3.9,16.7,5.9
			c5.9,2.1,11.9,4.1,17.8,6.1l17.9,6l9,2.9l4.6,1.5l-12.2,5.5l-12.7,5.8c3.3-0.3,6.6-0.7,9.7-1.1l4.2-1.8l12.9-5.4
			c-0.1,0.5-0.3,1.1-0.4,1.6c-0.2,0.9-0.4,1.9-0.5,2.9c2-0.4,4-0.8,6-1.3c0-0.4,0-0.8,0-1.1c-0.1-1.5-0.2-2.9-0.6-4.3
			c0.1-0.1,0.1-0.2,0.2-0.3c0.4-0.9-0.1-1.9-1-2.3h-0.1l-8.8-3.5l-8.8-3.4l-17.5-6.6c0.6-2.7,1-5.3,1.4-8c0.5-3.5,0.9-6.9,1.1-10.4
			s0.4-6.9,0.4-10.4c0-2.6,0-5.3-0.2-8c5.2-2.2,10.4-4.4,15.6-6.6c5.4-2.3,10.8-4.6,16.1-7l8.1-3.6l8.1-3.6
			c5.3-2.5,10.7-4.9,15.9-7.5C540.7,490.3,541,489.5,540.7,488.8z" style="fill:#F04E23;"/>
		<path d="M387,575.6l-5.6,2.4l8.7,3.1c5.5,0.7,11,1.2,16.6,1.7l0.7,0.1L387,575.6z" style="fill:#F04E23;"/>
		<path d="M562.2,548.1c-0.2,1.7-0.8,3.4-1.8,4.8c-0.9,1.5-2,2.8-3.3,4c-2.5,2.4-5.3,4.4-8.3,6.2
			c-6,3.5-12.3,6.3-18.9,8.5c-13.1,4.4-26.7,7.5-40.4,9.3c-13.7,1.9-27.5,2.9-41.4,3.1c-13.8,0.2-27.7-0.2-41.5-1.4
			c-13.8-1.2-27.5-2.9-41.2-5.4c-6.8-1.2-13.6-2.7-20.3-4.3c-6.7-1.6-13.4-3.5-20-5.5c-13.2-4.2-26.2-9.2-38.3-15.9
			c-6.1-3.3-11.9-7.2-17.2-11.6c-2.7-2.2-5.1-4.7-7.2-7.4c-1-1.4-1.9-2.9-2.6-4.5c-0.7-1.6-1-3.3-0.9-5c0.1-1.7,1.5-2.9,3.2-2.8
			s2.9,1.5,2.8,3.2v0.2c0,0.8,0.2,1.5,0.5,2.2c0.5,1.1,1.2,2.2,1.9,3.2c1.9,2.4,4,4.5,6.3,6.5c5,4.1,10.4,7.8,16.2,10.9
			c2.9,1.6,5.8,3.1,8.9,4.5l4.6,2.1l4.7,2c6.2,2.5,12.6,4.8,19.1,6.8c6.5,2.1,13,3.8,19.6,5.4c6.6,1.6,13.3,3,20,4.2
			c13.4,2.5,27,4.2,40.6,5.4c13.6,1.2,27.3,1.7,40.9,1.4c13.6-0.2,27.2-1.2,40.7-3c13.4-1.8,26.5-4.8,39.3-9.1
			c6.2-2.1,12.2-4.8,17.8-8.1c2.6-1.5,5-3.3,7.3-5.4c0.9-0.9,1.7-1.8,2.4-2.9c0.5-0.7,0.8-1.4,0.9-2.2l0,0c0.1-1.6,1.5-2.8,3.1-2.7
			C561.1,545.1,562.3,546.5,562.2,548.1L562.2,548.1z" style="fill:#10294C;"/>
		<path d="M480.8,641.9c1.2-2.5,3-4.6,5.1-6.4c-3.1-0.5-6.7-2.3-10.5-4.3c-5.6-2.9-11.4-5.9-17.8-5.7
			c-5.5,0.1-10.8,3.2-15.9,6.2c-4.8,2.8-9.8,5.7-14.2,5.5c-3.6-0.2-7.8-3.1-12.1-6.2c-5.2-3.7-10.5-7.5-16.7-8.2
			c-6.3-0.7-12.4,1.9-18.3,4.4c-4.9,2.1-9.6,4.1-13.1,3.5c-4.4-0.7-8.6-4.6-12.8-8.3c-4.4-3.9-8.9-8.1-14.3-9.3
			c-6.2-1.4-12.9,0.4-18.7,2.1c-5.1,1.5-9.9,2.8-13.3,1.8c-4.5-1.4-8.2-6-11.8-10.5c-3.6-4.5-7.2-9-12.1-11.1c-6-2.6-13-2-19.1-1.6
			c-5.2,0.4-10.1,0.8-12.9-0.9c-4.8-2.8-7.3-8.8-9.6-14.6c-1.2-3.1-2.6-6.1-4.3-9c0.8,8.4,2,16.7,3.6,24.9c1.7,2.2,3.8,4.1,6.3,5.6
			c5,2.9,11.4,2.4,17.6,2c5.4-0.4,11.1-0.8,15.3,1c3,1.3,5.9,4.9,8.9,8.7c4.1,5.2,8.9,11,15.6,13.1c5.6,1.8,11.9,0,17.9-1.7
			c5.2-1.5,10.5-3,14.7-2c3.4,0.8,6.9,4,10.7,7.4c4.8,4.3,10.2,9.2,16.9,10.3c5.9,1,11.8-1.6,17.6-4c4.9-2.1,10-4.3,14.2-3.8
			c4.2,0.5,8.6,3.6,12.9,6.7c5.1,3.7,10.4,7.5,16.4,7.7c0.3,0,0.6,0,0.8,0c6.5,0,12.5-3.5,17.8-6.6c4.4-2.6,8.5-5,12-5
			c4.3-0.1,9.2,2.4,13.9,4.9c2.8,1.5,5.8,2.9,8.8,4C480.7,642.2,480.7,642,480.8,641.9z" style="fill:#10294C;"/>
		<path d="M484.2,665.6c-1.7-1.8-3-3.9-4-6.2c-1.7-0.8-3.4-1.6-5.2-2.5c-5.5-2.8-11.2-5.8-17.3-5.6
			c-5.3,0.1-10.4,3.1-15.4,6c-5,2.9-10.1,5.9-14.7,5.6c-3.9-0.2-8.2-3.2-12.7-6.4c-5-3.6-10.3-7.3-16.3-8c-6-0.7-12,1.9-17.7,4.3
			c-5,2.2-9.8,4.2-13.7,3.6c-4.7-0.8-9.1-4.7-13.3-8.6s-8.7-7.9-13.8-9.1c-6-1.4-12.2,0.4-18.2,2.1c-5.3,1.5-10.2,2.9-13.8,1.8
			c-4.8-1.5-8.6-6.2-12.3-10.8c-3.5-4.3-7-8.8-11.7-10.7c-5.8-2.5-12.6-2-18.6-1.5c-5.4,0.4-10.4,0.8-13.5-1
			c-1.9-1.2-3.6-2.8-4.9-4.7c1.1,3.6,2.3,7.2,3.7,10.8c4.4,1.7,9.6,1.3,15.2,0.9c5.5-0.4,11.3-0.9,15.8,1c3.2,1.4,6.2,5,9.3,9
			c4,5,8.7,10.8,15.2,12.8c5.3,1.7,11.4,0,17.3-1.7c5.3-1.5,10.7-3,15.2-2c3.6,0.8,7.3,4.1,11.1,7.6c4.9,4.4,9.9,9,16.4,10.1
			c5.6,0.9,11.4-1.6,17-4c5-2.2,10.2-4.4,14.7-3.9c4.5,0.5,9,3.7,13.4,6.9c5,3.6,10.2,7.3,15.9,7.6h0.8c6.2,0,11.8-3.3,17.2-6.5
			c4.5-2.6,8.7-5.1,12.4-5.2c4.6-0.1,9.6,2.5,14.4,5c4.5,2.3,9.2,4.7,13.9,5.1C485.4,666.8,484.8,666.2,484.2,665.6z" style="fill:#FFFFFF;"/>
		<path d="M491.4,690.8c-0.3-1.2-0.5-2.4-0.5-3.6c-0.1-1.4,0-2.8,0.2-4.2c-0.9,0.4-1.8,0.6-2.8,0.7
			c-3.5,0.4-8-1.9-12.7-4.4c-5.6-2.9-11.5-5.9-17.8-5.7c-5.5,0.1-10.8,3.2-15.9,6.2c-4.8,2.8-9.8,5.7-14.2,5.5
			c-3.6-0.2-7.8-3.1-12.1-6.2c-5.2-3.7-10.5-7.5-16.7-8.2c-6.3-0.7-12.4,1.9-18.2,4.4c-4.9,2.1-9.6,4.1-13.1,3.5
			c-4.4-0.7-8.6-4.6-12.8-8.3c-4.4-4-8.9-8.1-14.3-9.3c-6.2-1.4-12.9,0.4-18.7,2.1c-5.1,1.5-9.9,2.8-13.3,1.8
			c-4.5-1.4-8.2-6-11.8-10.5c-3.6-4.5-7.2-9-12.1-11.1c-6-2.6-13-2-19.1-1.6c-2.4,0.2-4.8,0.4-6.9,0.3c1.3,2.7,2.8,5.3,4.3,7.9
			l3.1-0.2c5.4-0.4,11.1-0.8,15.3,1c3,1.3,5.9,4.9,8.9,8.7c4.1,5.2,8.9,11,15.6,13.1c5.6,1.8,11.9,0,17.9-1.7c5.2-1.5,10.5-3,14.7-2
			c3.4,0.8,6.9,4,10.7,7.4c4.8,4.3,10.2,9.2,16.9,10.3c5.9,1,11.8-1.6,17.6-4c4.9-2.1,10-4.3,14.2-3.8c4.2,0.5,8.6,3.6,12.9,6.7
			c5.1,3.7,10.4,7.4,16.4,7.7h0.8c6.5,0,12.5-3.5,17.8-6.6c4.4-2.6,8.5-5,12-5c4.3-0.1,9.2,2.4,13.9,4.8c5.6,2.9,11.4,5.9,17.3,5.2
			c0.8-0.1,1.7-0.2,2.5-0.4C491.5,691.1,491.4,690.9,491.4,690.8z" style="fill:#10294C;"/>
	</g>
	<g>
		<path d="M12.2,341.4l355.8,127.8c3.8,1.3,3.2,4.7,1.9,8.4c-1.3,3.7-2.9,6.4-6.6,5.2L5.1,361.7
			c-5.6-1.9-5.9-5.7-4-11.4s5.3-11,10.9-9.1L12.2,341.4z" style="fill:#F04E23;"/>
		<polygon points="329.5,376.4 256,407.1 256.6,407.4 251.6,456.1 322.7,481.4 396.1,450.7 400.2,401.8 400.5,401.7 		
			" style="fill:#FDB813;"/>
		<path d="M388.8,430.6c-4,2.4-8.1,4.5-12.3,6.4s-8.4,3.8-12.7,5.6s-8.6,3.4-12.9,4.9s-8.8,3-13.3,4.1
			c-0.7,0.2-1.4-0.2-1.6-0.9c-0.2-0.6,0.1-1.2,0.6-1.5c4-2.4,8.1-4.5,12.3-6.5s8.3-3.9,12.6-5.8c4.2-1.8,8.5-3.5,12.9-5.1
			s8.7-3.1,13.2-4.3c0.9-0.2,1.7,0.3,2,1.2C389.7,429.5,389.4,430.3,388.8,430.6L388.8,430.6z" style="fill:#F04E23;"/>
		<path d="M386.2,446.3c-1.3,1.2-2.8,2.2-4.3,3c-1.5,0.8-3,1.6-4.6,2.2c-1.6,0.6-3.2,1.2-4.9,1.6
			c-1.7,0.4-3.5,0.7-5.3,0.8c-0.8,0-1.4-0.6-1.4-1.3c0-0.4,0.2-0.7,0.4-1c1.3-1.2,2.7-2.3,4.2-3.2c1.5-0.9,3-1.7,4.6-2.4
			c1.6-0.7,3.2-1.3,4.8-1.8c1.7-0.5,3.4-0.8,5.2-0.9c0.9,0,1.7,0.7,1.8,1.6c0,0,0,0,0,0C386.7,445.4,386.5,445.9,386.2,446.3z" style="fill:#F04E23;"/>
		<path d="M392.7,405.1c-0.3-0.8-1.2-1.3-2-1c0,0,0,0,0,0c-5.5,1.9-10.9,4-16.4,6c-5.4,2.1-10.8,4.2-16.2,6.3
			c-5.4,2.2-10.8,4.4-16.1,6.5l-15,6.3c-5-1.7-9.9-3.5-14.9-5.2c-5.3-1.8-10.7-3.6-16-5.4c-5.4-1.8-10.7-3.5-16.1-5.2
			c-5.4-1.7-10.8-3.4-16.2-4.9c-0.7-0.2-1.4,0.2-1.6,0.9c-0.2,0.6,0.1,1.2,0.7,1.5c5.2,2.2,10.4,4.3,15.6,6.4
			c5.2,2.1,10.5,4.1,15.8,6.1s10.5,4,15.8,6c4.8,1.8,9.7,3.6,14.6,5.3c-0.5,2.3-1,4.6-1.3,6.8c-0.5,3.2-0.8,6.3-1.1,9.5
			c-0.3,3.2-0.4,6.4-0.4,9.6c-0.1,3.2,0.1,6.5,0.5,9.7c0.1,0.7,0.7,1.2,1.4,1.2c0.5-0.1,1-0.4,1.1-0.9c0.9-3.1,1.6-6.2,2.1-9.4
			c0.6-3.2,1-6.3,1.3-9.5c0.3-3.2,0.5-6.4,0.6-9.6c0.1-2.4,0-4.8-0.1-7.2l15.5-6.5c5.3-2.3,10.7-4.6,16-6.9
			c5.3-2.4,10.6-4.7,15.9-7.1c5.3-2.4,10.6-4.9,15.8-7.4C392.6,406.7,393,405.9,392.7,405.1z" style="fill:#F04E23;"/>
		<path d="M287.6,448.8c-4.2-1.5-8.4-3.2-12.5-4.9c-1.1-0.5-2.3-1-3.4-1.5c0,0.4,0,0.9,0,1.3c-0.1,1.3-0.1,2.7-0.2,4
			c-0.1,1.3-0.1,2.7-0.3,4c0,0.2,0,0.4-0.1,0.6l1.7-0.2l4.9-0.4c1.6-0.2,3.3-0.3,4.9-0.4s3.3-0.2,4.9-0.3c2-0.1,4-0.2,6.1-0.2
			C291.7,450.2,289.7,449.5,287.6,448.8z" style="fill:none;"/>
		<path d="M314.5,453.5c-4-2.1-8.1-3.9-12.3-5.6c-4.2-1.7-8.3-3.3-12.6-4.8s-8.5-2.8-12.8-4.1
			c-4.3-1.3-8.7-2.4-13.1-3.3c-0.7-0.1-1.4,0.3-1.5,1c-0.1,0.6,0.2,1.1,0.7,1.4c1.9,1,3.9,2,5.9,2.9c-0.2,0.7-0.4,1.5-0.6,2.2
			c-0.3,1.3-0.7,2.6-0.9,4c-0.3,1.3-0.6,2.6-0.9,4c-0.3,1.3-0.5,2.6-0.8,4c0,0.2,0,0.4,0,0.6c0,1.5,1.3,2.6,2.7,2.6c0,0,0,0,0,0h0.2
			l4.9-0.2l4.9-0.3c1.6-0.1,3.3-0.2,4.9-0.3c1.6-0.1,3.3-0.2,4.9-0.4c3.3-0.3,6.5-0.7,9.8-1.1c2.6-0.4,5.3-0.8,7.9-1.3
			c2.5,0.7,5,1.3,7.6,1.8c0.8,0.3,1.7-0.1,2-1C315.8,454.7,315.4,453.8,314.5,453.5L314.5,453.5z M287.7,451.1
			c-1.6,0.1-3.3,0.2-4.9,0.3s-3.3,0.2-4.9,0.4l-4.9,0.4l-1.7,0.2c0-0.2,0-0.4,0.1-0.6c0.1-1.3,0.2-2.7,0.3-4s0.1-2.7,0.2-4
			c0-0.4,0-0.9,0-1.3c1.1,0.5,2.2,1,3.4,1.5c4.1,1.8,8.3,3.4,12.5,4.9c2,0.7,4.1,1.5,6.2,2.2C291.8,451,289.8,451,287.7,451.1
			L287.7,451.1z" style="fill:#F04E23;"/>
		<polygon points="310.3,413 281.9,403 276.2,405.4 304.7,415.4 		" style="fill:#10294C;"/>
		<polygon points="319,416.1 313.4,418.5 328,423.6 333.6,421.2 		" style="fill:#10294C;"/>
		<polygon points="310.2,403.4 294.4,397.8 288.7,400.2 304.6,405.7 		" style="fill:#10294C;"/>
		<polygon points="318.9,406.4 313.3,408.8 340.5,418.4 346.1,416 		" style="fill:#10294C;"/>
		<polygon points="340.6,404.3 307.1,392.5 301.5,394.8 335,406.6 		" style="fill:#10294C;"/>
		<polygon points="343.6,409.7 353.2,413 358.9,410.7 349.3,407.3 		" style="fill:#10294C;"/>
		<polygon points="353.4,389.6 342.3,390.1 378,402.6 383.7,400.3 		" style="fill:#10294C;"/>
		<polygon points="339.7,394.3 329.3,390.6 318.2,391.1 334,396.6 		" style="fill:#10294C;"/>
		<polygon points="348.3,397.3 342.7,399.7 365.7,407.8 371.4,405.4 		" style="fill:#10294C;"/>
		<path d="M8.3,382.3l374.6-8.3c4-0.1,5.2,3.5,5.3,7.5s-0.9,6.7-4.8,6.9L9,403.8c-6,0.3-7.6-4.3-7.9-10.3s1-11,7-11.3
			L8.3,382.3z" style="fill:#F04E23;"/>
	</g>
	<g>
		<path d="M134.2,591.8c58.8-13.3,81.3-67.6,81.3-67.6l-53.5-48.4c0,0-30.1,50.7-78.5,67L134.2,591.8z" style="fill:#FDB813;"/>
		<path d="M135.8,574.6c-1.5,0-2.8-1.1-3-2.7c-1.6-13.5-9.9-28.1-10-28.3c-0.8-1.4-0.3-3.3,1.1-4.1
			c0.5-0.3,1.2-0.4,1.8-0.4c16.7,1.4,38.9-3.7,46.4-5.6c-2.2-12-6.8-23.4-13.4-33.6c-1-1.3-0.8-3.2,0.6-4.2c1.3-1,3.2-0.8,4.2,0.6
			c0,0.1,0.1,0.1,0.1,0.2c0.5,0.7,11.9,17.2,14.9,38.9c0.2,1.5-0.7,2.9-2.2,3.3c-1.1,0.3-25.2,7-45.8,6.7c2.8,5.8,7.1,15.9,8.2,25.8
			c0.2,1.7-1,3.2-2.7,3.3L135.8,574.6z" style="fill:#F04E23;"/>
		
			<ellipse transform="matrix(0.867 -0.4983 0.4983 0.867 -244.9384 159.7048)" cx="176.7" cy="538.7" rx="21" ry="16.8" style="fill:#FFFFFF;"/>
		<ellipse transform="matrix(0.919 -0.3943 0.3943 0.919 -203.6044 93.3808)" cx="125.5" cy="542.2" rx="12" ry="9.6" style="fill:#00ACDC;"/>
		
			<ellipse transform="matrix(0.8161 -0.5779 0.5779 0.8161 -258.2926 184.7538)" cx="161.2" cy="498.3" rx="8.1" ry="6.5" style="fill:#10294C;"/>
		
			<ellipse transform="matrix(0.9634 -0.2681 0.2681 0.9634 -148.2612 57.3335)" cx="135.8" cy="571.6" rx="8.1" ry="6.5" style="fill:#10294C;"/>
		<ellipse transform="matrix(0.866 -0.5 0.5 0.866 -244.4007 159.5361)" cx="175.5" cy="535.8" rx="8.6" ry="6.8" style="fill:#F04E23;"/>
	</g>
	<g>
		<path d="M166.6,401.1c-1.8,0.6-3.7,1-5.6,1.2c-1.9,0.3-3.7,0.4-5.6,0.5s-3.7,0.1-5.6,0c-1.9-0.1-3.8-0.3-5.7-0.7
			c-1-0.2-1.7-1.2-1.4-2.2c0.1-0.7,0.6-1.2,1.3-1.4c1.8-0.6,3.7-1,5.6-1.2c1.9-0.2,3.7-0.4,5.6-0.5c1.9-0.1,3.7,0,5.6,0.1
			c1.9,0.1,3.8,0.3,5.7,0.8c1,0.2,1.6,1.2,1.3,2.2C167.6,400.4,167.2,400.9,166.6,401.1L166.6,401.1z" style="fill:#10294C;"/>
		<path d="M212.5,365.1c-2.4-3.8-6.1-5.8-10-7.8c-22.8-11.7-48.8-15.4-73.9-10.6c-9,1.7-17.6,4.8-25.8,8.9l0,0
			c-4,2-7.8,4.3-11.4,6.8c-2.4,1.7-5.8,1.1-7.5-1.3c-0.3-0.4-0.6-0.9-0.7-1.4c-0.7-2.1-1.2-4.2-1.5-6.3
			c-1.8-12.5,3.5-24.3,11.5-33.6c8.4-9.7,19.5-16.9,31.1-22.1c11.9-5.3,24.5-8.8,37.4-10.7c5.8-0.9,18.5-2.2,24.4-2.6
			c0.5-15.7,2-23.9,7.6-41c-3.3,0-14.1,0-17.4,0.1c-12.3,0.3-24.6,1.7-36.7,4.3c-25.3,5.3-49.9,15.6-69.7,32.5
			c-18.8,16-32.4,38.3-34.2,63.3c-1.9,24.6,8.1,48.3,24,66.7l0,0c1.8,2.1,3,4.7,3.3,7.4c0.5,3.8,1.4,7.5,2.9,11
			c0.1,0.2,0.1,0.3,0.2,0.5c0.5,1.3,1.1,2.6,1.9,3.8v0.1l0,0c2,3.1,4.3,5.9,6.9,8.5c9.1,9.1,20.5,15.5,33,18.4
			c3.1,0.7,6.2,1.1,9.4,1.3c0.4,0,0.8,0,1.3,0h0.5c1,0,1.9,0,2.9,0h0.6l1.8-0.1c1.4,0.1,2.9,0,4.3-0.3c14.8-1.2,25-5.7,28.4-18.5
			c11.1-2.7,19.6-11.7,19.3-23l-8.5-2.9c-3.5-1.2-6.9-2.5-9.6-3.7c-0.5-0.3-1-0.5-1.5-0.8c-1.8-0.8-3.5-1.6-5.2-2.3
			c-5.7-2.5-11.3-5-16.8-7.7c-1.2-0.6-2.3-1.2-3.5-1.8c-4.8-2.8-5-11.4,2.1-13.1c9.1-2.1,18.3-3.1,27.6-2.8
			c6.4,0.1,12.9,0.7,19.2,1.8c3,0.5,6,1,9,1.6c1.3,0.3,2.6,0.6,3.9,0.8c0.3,0,1.1,0.3,1.5,0.4c8.7,2.9,18.3-3.1,20.2-11.9
			C215.5,373,214.8,368.7,212.5,365.1z" style="fill:#10294C;"/>
		<path d="M204.5,372.9c-3.8,7.7-19.9,3.3-15-7.4C194.5,354.9,208.8,364.2,204.5,372.9z" style="fill:#00ACDC;"/>
		<path d="M150.1,366.4c-0.4-1.5-0.6-3.1-0.6-4.6c0-1.5,0.1-3.1,0.4-4.6c0.3-1.5,0.8-3,1.4-4.5c0.6-1.5,1.6-2.9,2.7-4
			c0.7-0.8,1.9-0.8,2.7,0c0.4,0.4,0.6,1,0.6,1.6v0.2c-0.1,1.4-0.4,2.7-0.6,4c-0.2,1.3-0.5,2.7-0.8,4c-0.3,1.4-0.6,2.7-0.9,4
			c-0.3,1.4-0.8,2.8-1.3,4.1l-0.1,0.1c-0.4,0.9-1.5,1.4-2.4,1C150.7,367.4,150.3,366.9,150.1,366.4L150.1,366.4z" style="fill:#00ACDC;"/>
		<path d="M163.8,362.2c-0.4-0.8-0.7-1.6-0.8-2.5c-0.1-0.8-0.1-1.7,0.1-2.5c0.2-0.8,0.5-1.6,0.9-2.4
			c0.4-0.8,1.1-1.5,1.9-2.1c0.9-0.6,2.2-0.4,2.8,0.5c0,0,0,0.1,0.1,0.1c0.1,0.2,0.2,0.4,0.3,0.6l0.1,0.4c0.2,0.7,0.2,1.3,0.2,2
			c0,0.6-0.1,1.3-0.2,1.9c-0.1,0.7-0.3,1.3-0.6,1.9c-0.3,0.7-0.7,1.4-1.1,1.9l-0.2,0.3c-0.7,0.8-2,0.9-2.8,0.2
			C164.1,362.6,163.9,362.4,163.8,362.2z" style="fill:#00ACDC;"/>
		<path d="M147.8,422.3c-0.3-0.7-0.4-1.4-0.3-2.1c0-0.6,0.1-1.2,0.3-1.8c0.2-0.6,0.5-1.2,0.8-1.7
			c0.4-0.6,0.9-1.1,1.5-1.5l0.1-0.1c1.1-0.7,2.5-0.4,3.2,0.7c0.1,0.1,0.1,0.3,0.2,0.4c0.2,0.7,0.4,1.4,0.3,2.1
			c0,0.6-0.2,1.3-0.4,1.9c-0.2,0.6-0.5,1.2-0.9,1.7c-0.4,0.6-0.9,1.1-1.5,1.5c-1,0.6-2.4,0.3-3-0.7c-0.1-0.1-0.1-0.2-0.2-0.4
			L147.8,422.3z" style="fill:#00ACDC;"/>
		<path d="M155.1,435.3c0.1-1.1,0.3-2.1,0.7-3.1c0.3-1,0.6-1.9,0.9-2.9c0.3-0.9,0.6-1.8,1-2.7c0.4-0.9,0.8-1.9,1.2-2.8
			l0.1-0.2c0.5-0.9,1.7-1.3,2.6-0.8c0.4,0.2,0.7,0.6,0.9,1c0.5,1.2,0.7,2.5,0.6,3.9c-0.1,1.3-0.3,2.5-0.8,3.7
			c-0.4,1.2-1,2.3-1.7,3.3c-0.7,1-1.6,1.9-2.7,2.7c-0.8,0.6-2,0.3-2.6-0.5c-0.2-0.4-0.3-0.8-0.3-1.2L155.1,435.3z" style="fill:#00ACDC;"/>
		<path d="M138.1,454c-0.2-0.7-0.2-1.3-0.1-2c0.1-0.6,0.2-1.2,0.4-1.7c0.2-0.5,0.5-1,0.8-1.5c0.4-0.5,0.8-1,1.3-1.3
			l0.3-0.2c1-0.7,2.3-0.4,3,0.6c0.1,0.1,0.2,0.2,0.2,0.4c0.3,0.7,0.4,1.5,0.4,2.3c-0.1,0.7-0.2,1.4-0.5,2c-0.3,0.6-0.6,1.2-1.1,1.7
			c-0.5,0.6-1.1,1-1.8,1.4c-1.1,0.5-2.3,0.1-2.9-1c-0.1-0.1-0.1-0.2-0.1-0.4L138.1,454z" style="fill:#00ACDC;"/>
		<path d="M151.9,442.9c-3.1,0.5-6.2,0.7-9.4,0.6c-3.1-0.1-6.2-0.5-9.3-1.1c-3.1-0.6-6.1-1.6-9.1-2.8
			c-3-1.3-5.7-3-8.2-5c-0.8-0.7-0.8-1.8-0.1-2.6c0.5-0.6,1.3-0.8,2-0.5h0.1c2.7,1.1,5.3,2,8.1,2.9c1.4,0.3,2.7,0.8,4.2,1.1
			c1.4,0.3,2.8,0.7,4.2,1c2.8,0.6,5.7,1.1,8.6,1.6l8.7,1.4h0.1c1,0.2,1.6,1.1,1.4,2C153.1,442.2,152.5,442.8,151.9,442.9
			L151.9,442.9z" style="fill:#00ACDC;"/>
	</g>
	<g>
		<path d="M799.6,407.5c-0.5-6.3-1.2-12.5-2.3-18.7c-1.1-6.5-2.6-13-4.5-19.3c-0.9-3-1.7-6-2.8-9c-1.1-3-2.3-6-3.4-8.9
			c-1.1-3-2.6-6-3.9-9.1v0.9c-6.8-15.7-42-2.7-38.7,14.2c0.4,0.9,0.8,1.8,1.2,2.8c4.9,10.9,8.4,22.5,10.4,34.4
			c1,6.4,1.6,12.8,1.8,19.3c0.1,6.4-0.2,12.8-0.9,19.1c-1.6,12.9-4.9,25.5-9.7,37.6c-4.9,12.1-11.1,23.7-18.6,34.4
			c-14.9,21.2-33.4,39.6-54.6,54.6c-10.6,7.5-21.7,14.4-33.2,20.5c-9.5,5-19.3,9.5-29.3,13.5c-2.1,0.9-4.4-0.1-5.3-2.2
			c-0.1-0.2-0.1-0.4-0.2-0.6c-2.1-8.1-8.1-24.7-24.1-31.8c-1,7.1-2.1,17.5-2.1,17.5c-1.3,4.7-4.2,8.8-8.1,11.7l-0.2,0.1l-5.7,2.7
			c-12.1,4.5-24.7,7.5-37.5,9.1c-6.3,0.8-12.7,1.4-19,1.9c-3,0.2-6,0.4-9,0.5c-1.4,0.1-2.9,0.2-4.3,0.2c-0.9,0-4.6,0-5.4,0
			c-8.7,0.2-15.7,7.4-15.5,16.1c0.1,5.6,3.2,10.7,8,13.4c1.9,1,4,1.6,6.2,2c2,0.5,4,0.9,6,1.4c-8.2,2.9-12.5,12-9.5,20.2
			c1.2,3.3,3.4,6.1,6.4,8c1.9,1.1,3.9,1.9,6,2.4c2.5,0.8,5,1.5,7.7,2.1c2,0.5,3.9,0.9,5.9,1.3c-8.7,0.7-15.2,8.3-14.5,17
			c0.4,5.5,3.7,10.4,8.6,12.9c2,0.9,4.1,1.5,6.2,1.8c2.6,0.5,5.2,1,7.8,1.4c7.3,1.1,14.6,1.6,22,1.6c7.3-0.1,14.5-1.6,21.3-4.4
			l0.2-0.1c0.2-0.1,0.4-0.1,0.5-0.2l0,0c20.8-9,32.8-29.4,39.1-46.9c1.5-4.2,4.8-7.5,9.1-9.1c4.4-1.6,9.7-3.6,12.6-4.8
			c11.4-4.7,22.5-9.9,33.6-15.5c11.5-6,22.6-12.8,33.3-20.1c21.5-14.6,41-32.1,57.7-52c17-20,30.3-42.8,39.4-67.3
			c4.5-12.3,7.8-25.1,9.8-38.1C799.9,433.4,800.4,420.4,799.6,407.5z" style="fill:#10294C;"/>
		<path d="M485.4,620.6c0.6-8.5,17.1-10.6,16.6,1.1C501.5,633.5,484.7,630.3,485.4,620.6z" style="fill:#00ACDC;"/>
		<path d="M496.6,653.5c0.6-8.5,17.1-10.6,16.6,1.1C512.8,666.4,496,663.2,496.6,653.5z" style="fill:#00ACDC;"/>
		<path d="M506.9,687.4c0.6-8.5,17.1-10.6,16.6,1.1C523.1,700.3,506.3,697.1,506.9,687.4z" style="fill:#00ACDC;"/>
		<path d="M516,669.2c4.4,0,8.9,0.1,13.3,0.1c4.4,0,8.8-0.2,13.2-0.4c4.4-0.2,8.7-0.7,13.1-1.2c4.4-0.6,8.6-1.5,13-2.3
			h0.1c0.7-0.1,1.4,0.3,1.5,1c0,0,0,0,0,0c0.1,0.6-0.2,1.1-0.7,1.4c-4.1,2.2-8.4,3.9-12.9,5c-4.5,1.1-9,1.9-13.7,2.2
			c-4.6,0.3-9.2,0.3-13.8-0.1c-4.6-0.3-9.1-1.2-13.6-2.4c-0.8-0.2-1.3-1.1-1.1-2C514.6,669.7,515.2,669.3,516,669.2L516,669.2z" style="fill:#00ACDC;"/>
		<path d="M499.6,635.3c5.4-0.2,10.8-0.3,16.1-0.4c2.7-0.1,5.4-0.1,8.1-0.2l4-0.1c1.3,0,2.7-0.2,4-0.2
			c5.3-0.3,10.6-0.7,15.9-1.4c5.2-0.7,10.4-1.8,15.4-3.3l0,0c0.7-0.2,1.4,0.2,1.6,0.8c0.2,0.6,0,1.2-0.5,1.5
			c-4.8,2.8-10.1,4.9-15.6,6c-5.4,1.2-10.9,2-16.4,2.4c-2.8,0.2-5.5,0.3-8.3,0.3c-2.7,0.1-5.5,0-8.2-0.2c-5.5-0.3-11-0.9-16.4-2
			c-0.9-0.2-1.4-1-1.3-1.9C498.2,635.8,498.8,635.3,499.6,635.3L499.6,635.3z" style="fill:#00ACDC;"/>
		<path d="M538.5,610.5c1.1,1.3,2,2.8,2.5,4.4c0.5,1.6,0.9,3.2,0.9,4.9c0.1,1.7-0.1,3.4-0.6,5c-0.5,1.6-1.3,3.1-2.4,4.4
			c-0.7,0.8-1.9,0.9-2.7,0.2c0,0,0,0,0,0c-0.4-0.4-0.7-0.9-0.7-1.5v-0.3c0-1.4,0.3-2.7,0.3-4c0.1-1.3,0.1-2.5,0-3.8
			c0-1.3-0.1-2.5-0.2-3.9s-0.3-2.7-0.3-4v-0.3c0-1,0.8-1.8,1.8-1.8C537.6,609.8,538.1,610,538.5,610.5L538.5,610.5z" style="fill:#00ACDC;"/>
		<path d="M552.1,614.7c0.6,0.6,1,1.3,1.2,2c0.2,0.7,0.4,1.4,0.4,2.1c0,0.7-0.1,1.4-0.3,2.1c-0.2,0.8-0.6,1.4-1.1,2
			c-0.9,0.9-2.3,0.9-3.2,0.1c0,0,0,0,0,0c-0.1-0.1-0.2-0.2-0.3-0.4l-0.1-0.2c-0.4-0.6-0.6-1.2-0.8-1.8c-0.1-0.6-0.2-1.1-0.2-1.7
			c0-0.6,0.1-1.2,0.2-1.7c0.1-0.6,0.4-1.2,0.8-1.8l0.4-0.5c0.7-0.9,1.9-1,2.8-0.4C551.9,614.6,552,614.7,552.1,614.7z" style="fill:#00ACDC;"/>
		<path d="M544.6,651.4c1.1,1.5,1.8,3.1,2.3,4.9c0.5,1.7,0.6,3.5,0.6,5.3c-0.1,1.8-0.4,3.6-1.1,5.3
			c-0.6,1.7-1.6,3.3-2.9,4.6c-0.7,0.7-1.9,0.8-2.6,0.1c0,0,0,0,0,0c-0.4-0.4-0.6-1-0.6-1.6v-0.2c0.2-1.5,0.6-2.9,0.7-4.3
			c0.2-1.4,0.3-2.7,0.4-4.1c0.1-1.4,0.1-2.8,0.1-4.2c0-1.4-0.1-3-0.1-4.4v-0.3c0-1,0.8-1.8,1.8-1.8c0,0,0,0,0,0
			C543.8,650.7,544.3,651,544.6,651.4z" style="fill:#00ACDC;"/>
		<path d="M554.5,680.8c0.7,1.4,1.1,2.9,1.3,4.5c0.2,1.5,0.3,3.1,0.3,4.6c-0.1,1.6-0.3,3.1-0.7,4.7
			c-0.4,1.6-1.1,3.1-2,4.4c-0.6,0.9-1.8,1-2.7,0.4c-0.5-0.3-0.8-0.9-0.8-1.4v-0.2c-0.1-1.4-0.1-2.7,0-4.1s0-2.7,0.1-4
			c0.1-1.3,0.1-2.7,0.3-4.1c0.1-1.4,0.3-2.8,0.7-4.2v-0.1c0.2-1,1.2-1.6,2.2-1.3c0,0,0,0,0,0C553.8,680,554.3,680.3,554.5,680.8z" style="fill:#00ACDC;"/>
		<path d="M543.8,687.8c0.5,0.7,0.9,1.5,1.2,2.3c0.2,0.8,0.3,1.6,0.3,2.5c0,0.9-0.2,1.7-0.5,2.5
			c-0.3,0.9-0.8,1.7-1.5,2.3c-0.8,0.8-2.1,0.7-2.8-0.1c0,0,0,0-0.1-0.1c-0.2-0.2-0.3-0.4-0.4-0.6l-0.2-0.4c-0.3-0.6-0.4-1.3-0.5-2
			c-0.1-0.6-0.1-1.3-0.1-1.9c0-0.7,0.1-1.4,0.3-2c0.2-0.7,0.4-1.4,0.8-2.1l0.2-0.3c0.6-0.9,1.8-1.2,2.8-0.6
			C543.5,687.4,543.7,687.6,543.8,687.8z" style="fill:#00ACDC;"/>
	</g>
	<g>
		<path d="M230.1,697.7c51-17.1,73.5-63.3,73.5-63.3l-70.9-24.6c0,0-22.5,46.2-73.4,63.3L230.1,697.7z" style="fill:#FDB813;"/>
		<path d="M242.9,685.8c5.3-2.7,10.5-5.9,15.3-9.5l-21.8-7.6c-5,3.5-10.4,6.6-15.9,9.2L242.9,685.8z" style="fill:#F04E23;"/>
		<path d="M235.7,617.5c0,0-6.7,11.6-13.8,19.4l19.6,6.8c5.2-6,9.8-12.5,13.7-19.4L235.7,617.5z" style="fill:#00ACDC;"/>
		<path d="M230,691.5c2-0.7,3.9-1.5,5.8-2.3l-54.6-19c-1.7,0.9-3.4,1.7-5.1,2.6L230,691.5z" style="fill:#10294C;"/>
		<path d="M261.7,626.6c-0.6,1-1.3,2.2-2.2,3.6l32.2,11.2c0.9-1.3,1.6-2.5,2.3-3.5L261.7,626.6z" style="fill:#10294C;"/>
		<path d="M228.9,666.1l-27.2-9.4c-1.3,1-2.6,2-3.9,3l26.8,9.3C226.1,668,227.5,667.1,228.9,666.1z" style="fill:#10294C;"/>
		<path d="M250.8,642.6c-0.9,1.1-1.8,2.2-2.7,3.4l31.5,11c1-1.1,2-2.2,2.9-3.3L250.8,642.6z" style="fill:#10294C;"/>
		<path d="M200.2,666.6l-8.1-2.8c-1.4,1-2.9,1.9-4.4,2.8l7.9,2.7C197.1,668.4,198.7,667.5,200.2,666.6z" style="fill:#10294C;"/>
		<path d="M203.3,672l10.1,3.5c1.7-0.8,3.3-1.7,4.9-2.6l-10.6-3.7C206.3,670.1,204.8,671.1,203.3,672z" style="fill:#10294C;"/>
		<path d="M241.9,660.4l-31.7-11c-1.1,1-2.3,2.1-3.5,3.1l31.4,10.9C239.4,662.4,240.7,661.4,241.9,660.4z" style="fill:#10294C;"/>
		<path d="M245.1,665.8l18.4,6.4c1.3-1,2.5-2,3.7-3l-18.4-6.4C247.5,663.8,246.3,664.8,245.1,665.8z" style="fill:#10294C;"/>
		<path d="M276.3,646.2l9.5,3.3c0.9-1.2,1.8-2.3,2.6-3.4l-9.5-3.3C278.1,643.9,277.2,645.1,276.3,646.2z" style="fill:#10294C;"/>
		<path d="M272.7,640.6l-16.3-5.7c-0.8,1.1-1.6,2.3-2.5,3.5l16,5.6C270.9,642.9,271.8,641.7,272.7,640.6z" style="fill:#10294C;"/>
		<path d="M238.8,648.7c-1,1.1-1.9,2.2-3,3.3l36.3,12.6c1.1-1.1,2.2-2.2,3.3-3.2L238.8,648.7z" style="fill:#10294C;"/>
		<path d="M232.4,646.5l-14.4-5c-1,1.1-2,2.2-3.1,3.3l14.4,5C230.4,648.6,231.4,647.5,232.4,646.5z" style="fill:#10294C;"/>
	</g>
</g>
</svg>
