<svg id="books_emotions" xmlns="http://www.w3.org/2000/svg" viewBox="0 0 800 800"><title>books_emotions</title><path d="M293.43,537.43l-21.26-33.37a4.1,4.1,0,0,1,5-6l.83.32a4.1,4.1,0,0,0,5.22-5.52l-37.94-82.65a4.09,4.09,0,0,1,3.52-5.8l13.31-.69a4.1,4.1,0,0,0,3.5-5.85l-4.08-8.56A4.11,4.11,0,0,1,266,383.5l5.9,1.13a4.1,4.1,0,0,0,4.77-4.93l-10.52-46.57a4.1,4.1,0,0,1,6.42-4.21l32.27,23.6a4.1,4.1,0,0,0,6.22-1.78l6.77-16.81a4.11,4.11,0,0,1,7.49-.28l11.09,22.58a4.1,4.1,0,0,0,7.65-.78l17.75-68.61a4.1,4.1,0,0,1,8,.38l4.54,28.49a4.1,4.1,0,0,0,6,3h0a4.1,4.1,0,0,1,6,4.15l-.74,5.35a4.1,4.1,0,0,0,6.72,3.68l9.68-8.28a4.1,4.1,0,0,1,6.34,1.31l14.16,28.86a4.09,4.09,0,0,0,4.18,2.26l29-3.59a4.11,4.11,0,0,1,4.44,5.22l-13,44.53a4.11,4.11,0,0,0,5.15,5.07l8.18-2.54a4.1,4.1,0,0,1,5.26,4.58l-2.42,14.63a4.11,4.11,0,0,0,3.85,4.77l2,.09a4.1,4.1,0,0,1,3.55,5.78l-24,53.12a4.1,4.1,0,0,0,3.74,5.78h.51a4.1,4.1,0,0,1,3.36,6.45l-24.68,35.17a23.73,23.73,0,0,1-11.14,9.38c-13.62,5.51-46.6,14.24-107.46,5.69A28,28,0,0,1,293.43,537.43Z" style="fill:#ff3a00;"/><path d="M418.16,526h0l-.12-.15-.13-.14c-3.06-3.55-7.53-2.79-9.72-1.78h0a75.61,75.61,0,0,0,.45-11.51l-10,.37a65.22,65.22,0,0,1-1.55,16.88l-.16.71-.14.56h0c-.26,1.23-.26,1.84.07,2.34a1.65,1.65,0,0,0,.49.53h0a1.8,1.8,0,0,0,.56.26c1.32.33,2.54.59,3.82.83s2.53.45,3.81.62a58.72,58.72,0,0,0,7.77.58A6.2,6.2,0,0,0,418.16,526Z" style="fill:#04294f;"/><path d="M406.75,526a3.54,3.54,0,0,1,.21-2.41,4.13,4.13,0,0,1,1.73-1.86,3.65,3.65,0,0,1,2.54-.47,2.85,2.85,0,0,1,2,1.45.7.7,0,0,1-.15.88l-.09.07a9.28,9.28,0,0,1-.91.67c-.25.19-.47.29-.65.44a4.55,4.55,0,0,1-.92.48c-.29.12-.62.23-1.05.42s-.94.45-1.59.71l-.22.09a.7.7,0,0,1-.91-.39A.19.19,0,0,1,406.75,526Z" style="fill:#fff;"/><path d="M413.15,527.1a2.41,2.41,0,0,1,.15-1.86,2.82,2.82,0,0,1,1.42-1.27,2.49,2.49,0,0,1,1.95,0,2,2,0,0,1,1.19,1.57.93.93,0,0,1-.28.83l-.09.09a12.73,12.73,0,0,0-1.07,1c-.19.19-.23.27-.34.26s-.27,0-.56-.06-.7,0-1.28,0l-.42,0A.72.72,0,0,1,413.15,527.1Z" style="fill:#fff;"/><path d="M452.8,448.79a4.85,4.85,0,0,0-2,0,9.24,9.24,0,0,0,1.25-1.81,7.06,7.06,0,0,0,.78-2.72,3.87,3.87,0,0,0,0-.68,3.09,3.09,0,0,0-3.52-2.58,6.63,6.63,0,0,0-1.81.57,2,2,0,0,1,.09-.22,7.8,7.8,0,0,0,.38-2.94,2.87,2.87,0,0,0-.18-.81,3,3,0,0,0-3.88-1.79,7.64,7.64,0,0,0-2.51,1.58,9.72,9.72,0,0,0-1.72,2.08,10.21,10.21,0,0,0-1.13,2.46c0,.1,0,.2-.08.29l-.38-.16a5.3,5.3,0,0,0-1.94-.28,5.44,5.44,0,0,0-2.44.69,5.84,5.84,0,0,0-1.8,1.62,6.65,6.65,0,0,0-.85,1.61,7.81,7.81,0,0,0-.48,2.57,8.76,8.76,0,0,0,.2,2.1,10.24,10.24,0,0,0,.55,1.7h0a.2.2,0,0,0,0,.08,1,1,0,0,0,.07.15c1,2.22,3.51,4.7,1.09,7.91-.35.41-.73.82-1.11,1.23l-.23.24a32.69,32.69,0,0,1-13.77,9l2.4,7.63c9.18-2.88,15.85-9.08,20.25-14.64l0,0c2.41-3.28,4.95,2.17,14.15-8.09h0a5,5,0,0,0,.58-.7,4.94,4.94,0,0,0,.83-2.16A3.49,3.49,0,0,0,452.8,448.79Z" style="fill:#ffb400;"/><path d="M449.46,448.76a4.16,4.16,0,0,0-1.72.13,4.49,4.49,0,0,0-1.5.89,4.67,4.67,0,0,0-.6.65,4.49,4.49,0,0,0-.4.63,2.35,2.35,0,0,1-1-1.75,2.46,2.46,0,0,1,.12-.71,10.27,10.27,0,0,1,.32-1.08c.28-.73.62-1.47,1-2.28s.75-1.64,1.22-2.77v0a.71.71,0,0,0,0-.21.58.58,0,0,0-.58-.59,5.24,5.24,0,0,0-3.85,1.84A5.06,5.06,0,0,0,440.4,442a1.23,1.23,0,0,0-1,.11,1.25,1.25,0,0,0-.44,1.72l.08.13a10.34,10.34,0,0,1,.91,2.08,1.15,1.15,0,0,1-.43,1.06l-.18.11-.07,0-.35.07a3.46,3.46,0,0,0-.74.26,2.92,2.92,0,0,0-1.27,1.18,3.3,3.3,0,0,0-.37,1.14,9.46,9.46,0,0,0,0,1.5v.08a1.23,1.23,0,0,0,.48.88,1.21,1.21,0,0,0,1.71-.22l.15-.22h0a2.32,2.32,0,0,1,1.65-1.05h0a5,5,0,0,0,.55-.17l.2-.09.08.13a3.59,3.59,0,0,0,3.44,1.74,4.85,4.85,0,0,0-.11.49,4.54,4.54,0,0,0,1.15,3.75,3.48,3.48,0,0,0,3.38,1.09.63.63,0,0,0,.27-.16.67.67,0,0,0,0-1l-.08-.08a3.33,3.33,0,0,1-.9-1.74,3.1,3.1,0,0,1,.07-1.27,8,8,0,0,1,.21-.78l.26-.86c.1-.31.21-.63.34-1s.33-.71.51-1.26l.05-.16s0-.05,0-.08A.58.58,0,0,0,449.46,448.76Z" style="fill:#04294f;"/><g id="_Groupe_" data-name="&lt;Groupe&gt;"><path d="M385.15,385a81.17,81.17,0,0,0,18.74-9.44s28.59,58.93,19.93,130.08c0,0-40.22,21.85-86.52,13.09,8.48-67.86-31-128.62-31-128.62a167,167,0,0,0,17.1,1.87c3.33.22,7,.38,11,.42C349.39,392.57,368.12,391.13,385.15,385Z" style="fill:#ff3a00;"/><path d="M337.3,518.72c8.48-67.86-31-128.62-31-128.62A70,70,0,0,1,292,404s35.26,59.1,27.68,119.76c69.13,12,104.17-18.09,104.17-18.09S383.6,527.48,337.3,518.72Z" style="fill:#04294f;"/></g><path d="M330.29,484.41A33.11,33.11,0,0,1,319,482.66h0c-5.84-1.44-10.57-4.86-14.26-8.28a1.75,1.75,0,0,0-.24-.23c-.41-.39-.81-.77-1.19-1.16-2.61-3.05-.28-5.69.6-8l.06-.15,0-.09h0a9.54,9.54,0,0,0,.45-1.73,9.06,9.06,0,0,0,.07-2.1,7.94,7.94,0,0,0-.64-2.54,7.17,7.17,0,0,0-.95-1.56,6,6,0,0,0-1.9-1.5,5.41,5.41,0,0,0-2.47-.53,5.34,5.34,0,0,0-1.92.39c-.14.06-.26.13-.38.19,0-.09-.06-.19-.1-.29a10.08,10.08,0,0,0-1.28-2.38,9.79,9.79,0,0,0-1.84-2,7.5,7.5,0,0,0-2.61-1.42,3,3,0,0,0-3.76,2,2.91,2.91,0,0,0-.12.82,7.51,7.51,0,0,0,.56,2.91c0,.08.07.14.1.21a7,7,0,0,0-1.84-.45,3.08,3.08,0,0,0-3.35,2.79,4,4,0,0,0,0,.69,6.93,6.93,0,0,0,1,2.66,9.27,9.27,0,0,0,1.36,1.73,4.87,4.87,0,0,0-2,.08,3.51,3.51,0,0,0-2.58,4.08,5,5,0,0,0,1,2.11,4.92,4.92,0,0,0,.63.66h0c9.82,9.66,12,4.07,14.62,7.19l0,0c4.14,4.6,10,9.67,17.68,12.4h0a45.23,45.23,0,0,0,15.65,3.14l1.28,0c2.21-.09,3.24-2.07,3.15-4.28S332.49,484.34,330.29,484.41Z" style="fill:#ffb400;"/><path d="M285.68,462.59a4,4,0,0,1,1.73,0,4.38,4.38,0,0,1,1.55.79,4.65,4.65,0,0,1,.64.62,4,4,0,0,1,.44.6,2.36,2.36,0,0,0,.86-1.81,2.39,2.39,0,0,0-.17-.7,7.91,7.91,0,0,0-.39-1.06c-.32-.72-.7-1.43-1.11-2.21s-.86-1.59-1.39-2.69l0,0a.46.46,0,0,1-.05-.21.58.58,0,0,1,.54-.63,5.21,5.21,0,0,1,3.54,1.21c.15.12.28.26.42.39a5,5,0,0,1,2-1.64,1.25,1.25,0,0,1,1.59,1.73l-.07.14a9.92,9.92,0,0,0-.78,2.13,1,1,0,0,0,.23.78.82.82,0,0,0,.27.25.77.77,0,0,0,.18.1l.07,0,.36,0a3.55,3.55,0,0,1,.76.22,2.87,2.87,0,0,1,1.34,1.1,3.51,3.51,0,0,1,.44,1.11,9.67,9.67,0,0,1,.12,1.5v.07a1.21,1.21,0,0,1-.42.92,1.22,1.22,0,0,1-1.72-.12c-.06-.06-.11-.14-.17-.21h0a2.27,2.27,0,0,0-1.72-.95h0a3.53,3.53,0,0,1-.56-.14l-.21-.08L294,464a3.59,3.59,0,0,1-3.32,1.95c0,.17.1.32.13.48a4.55,4.55,0,0,1-.91,3.82,3.44,3.44,0,0,1-3.31,1.29.6.6,0,0,1-.28-.13.67.67,0,0,1-.09-1l.07-.09a3.36,3.36,0,0,0,.79-1.79,3,3,0,0,0-.15-1.27c-.07-.27-.17-.51-.26-.76l-.31-.84c-.12-.3-.25-.61-.41-1s-.37-.69-.58-1.24l-.06-.15s0-.05,0-.08A.57.57,0,0,1,285.68,462.59Z" style="fill:#04294f;"/><path d="M320.9,399.43c2.56,4.35,4.92,8.82,7.17,13.35s4.28,9.17,6.11,13.89l1.38,3.54,1.29,3.57,1.25,3.59,1.12,3.64,1.13,3.63,1,3.67,1,3.69c.3,1.23.55,2.47.83,3.71,1.16,4.94,2,10,2.71,15,.3,2.52.65,5,.88,7.57l.5,7.59a155.62,155.62,0,0,1-1.75,30.29.49.49,0,0,1-.56.41.5.5,0,0,1-.42-.5h0a293,293,0,0,0-.78-30,231.3,231.3,0,0,0-4.44-29.52c-.26-1.22-.5-2.44-.79-3.65l-.92-3.62-.89-3.63-1-3.59-1-3.6-1.14-3.56-1.13-3.57-1.23-3.53c-1.62-4.72-3.44-9.38-5.3-14s-3.92-9.22-6-13.8a.61.61,0,0,1,1.08-.56Z" style="fill:#04294f;"/><path d="M362.46,435.7a21.93,21.93,0,0,1,4.28,0,31.3,31.3,0,0,1,4,.6,19.36,19.36,0,0,1,3.84,1.16,10.5,10.5,0,0,1,3.43,2.25,2.37,2.37,0,0,1-1.48,4,10.68,10.68,0,0,1-4.07-.51,19.57,19.57,0,0,1-3.67-1.61,31.54,31.54,0,0,1-3.46-2.16,21.52,21.52,0,0,1-3.23-2.8.54.54,0,0,1,0-.76A.56.56,0,0,1,362.46,435.7Z" style="fill:#04294f;"/><path d="M403.72,430.59a13.34,13.34,0,0,1-1,3.15,18.52,18.52,0,0,1-1.45,2.68,10.52,10.52,0,0,1-1.88,2.26,6.1,6.1,0,0,1-2.7,1.44,2.55,2.55,0,0,1-3.05-1.94,2.6,2.6,0,0,1,0-1,6.07,6.07,0,0,1,1.38-2.75,11,11,0,0,1,2.21-1.92,18.86,18.86,0,0,1,2.64-1.51,14.38,14.38,0,0,1,3.13-1,.6.6,0,0,1,.68.48A.61.61,0,0,1,403.72,430.59Z" style="fill:#04294f;"/><path d="M412.67,433.4a3.74,3.74,0,0,1,6.37,2.12c1,7.32.92,18-7,22.76-9.53,5.71-13.74-3.61-15.22-8.45a3.73,3.73,0,0,1,1.37-4.1A118.24,118.24,0,0,0,412.67,433.4Z" style="fill:#04294f;"/><path d="M376.25,450a3.74,3.74,0,0,1,3.1,3c.9,5,1.11,15.24-12.56,14.13-11.39-.92-17.13-10.71-19.81-17.77a3.74,3.74,0,0,1,4.59-4.92A172.07,172.07,0,0,0,376.25,450Z" style="fill:#04294f;"/><path d="M410.94,446.19c-.74-.37-1.5-.7-2.28-1-.37-.15-.75-.29-1.13-.42a12.66,12.66,0,0,0,0-1.74.93.93,0,0,0-.24-.58,1,1,0,0,0-1.44-.11,14.62,14.62,0,0,0-1.52,1.53c-.45.53-.88,1.07-1.27,1.63a1.66,1.66,0,0,0,.24,2.18l.76.69c.44.4.9.78,1.37,1.14-.23.39-.45.78-.65,1.18l-.35.69a2.38,2.38,0,0,0,.81,3,15.6,15.6,0,0,0,2.67,1.47,12,12,0,0,0,3.16.91,1.3,1.3,0,0,0,.34,0,.89.89,0,0,0,.64-1.09,11.91,11.91,0,0,0-1.28-3c-.05-.08-.1-.14-.14-.22.47-.64.91-1.3,1.32-2l.14-.22.12-.22A2.84,2.84,0,0,0,410.94,446.19Z" style="fill:#ffb400;"/><path d="M372.22,457.39l-.59-.43c-.42-.3-.86-.57-1.3-.83.28-.62.56-1.24.8-1.89l.34-.91a1.69,1.69,0,0,0-.79-2.09,20.88,20.88,0,0,0-2-.92,15.67,15.67,0,0,0-2.13-.72,1,1,0,0,0-.67.06,1,1,0,0,0-.5,1.34,14.87,14.87,0,0,0,.94,1.72c-.29.32-.58.64-.85,1-.57.68-1.12,1.36-1.63,2.07l-.13.21a2.86,2.86,0,0,0,1,3.91l.21.12c.73.43,1.48.84,2.25,1.22,0,.14,0,.27,0,.42a12.66,12.66,0,0,0,.21,3.43.89.89,0,0,0,1.39.52,12.66,12.66,0,0,0,2.43-2.42,17.35,17.35,0,0,0,1.74-2.69A2.39,2.39,0,0,0,372.22,457.39Z" style="fill:#ffb400;"/><path d="M416.5,479.38a8.94,8.94,0,0,1-1.87,12.51,8.84,8.84,0,0,1-5.37,1.75h-2a17.28,17.28,0,0,1-2.14-.18c-.67,0-1.31-.13-1.91-.19-1.21-.1-2.3-.25-3.26-.25-.49-.08-.93,0-1.37-.07s-.83,0-1.21,0a15.19,15.19,0,0,0-2.17.12,17.39,17.39,0,0,0-3.2.68c-4.56,1.49-6.52,4.68-11,6.55h0l-.36.15-.08,0a8.48,8.48,0,0,1-11.6-7.9v-.28a8.34,8.34,0,0,1,.11-1.11,20.72,20.72,0,0,1,5.72-11.33c10.52,8.27,6-5.2,6-5.2l0,0h0a28.16,28.16,0,0,1,10.48-4.3,26.68,26.68,0,0,1,11.58.31s-.27,12.82,6.44,2.56A22.27,22.27,0,0,1,416.5,479.38Z" style="fill:#04294f;"/><path d="M406,471.65a27.94,27.94,0,0,1,3.26,1.55c-6.71,10.26-6.44-2.56-6.44-2.56A24.58,24.58,0,0,1,406,471.65Z" style="fill:#fff;"/><path d="M380.73,474.67s4.52,13.47-6,5.2a35.16,35.16,0,0,1,3.82-3.55A24,24,0,0,1,380.73,474.67Z" style="fill:#fff;"/><path d="M400.94,391.5q1,2.38,2,5.08a1.33,1.33,0,0,1-.63,1.65c-24.72,12.61-56.43,12.55-62.16,12.43a1.31,1.31,0,0,1-1.21-.87q-1-2.87-2-5.45a1.31,1.31,0,0,1,1.23-1.79c17.23.1,41.3-1.92,61-11.71A1.32,1.32,0,0,1,400.94,391.5Z" style="fill:#ffb400;"/><path d="M396.89,409c.35,1.08.69,2.17,1,3.29a1.34,1.34,0,0,1-.8,1.63c-14.21,5.27-29.39,7.47-42.47,8.23a1.3,1.3,0,0,1-1.35-1.05c-.25-1.17-.51-2.3-.77-3.41a1.3,1.3,0,0,1,1.2-1.61c12.8-.71,27.69-2.81,41.44-7.9A1.31,1.31,0,0,1,396.89,409Z" style="fill:#ffb400;"/><path d="M366.55,534.3h0l-.12-.14-.13-.14c-3.06-3.55-7.54-2.8-9.72-1.79h0a77,77,0,0,0,.44-11.51l-10,.38A65.67,65.67,0,0,1,345.48,538l-.17.7c-.05.2-.09.39-.14.57h0c-.26,1.24-.26,1.85.07,2.34a1.65,1.65,0,0,0,.49.53v0h0a1.71,1.71,0,0,0,.56.27c1.32.33,2.54.59,3.81.83s2.54.44,3.81.62a58.74,58.74,0,0,0,7.78.57,6.2,6.2,0,0,0,4.82-10.12Z" style="fill:#04294f;"/><path d="M355.14,534.32a3.51,3.51,0,0,1,.22-2.42,4.21,4.21,0,0,1,1.72-1.86,3.72,3.72,0,0,1,2.55-.47,2.93,2.93,0,0,1,2,1.45.73.73,0,0,1-.15.88l-.09.08a8.54,8.54,0,0,1-.91.66c-.25.2-.48.3-.65.45a5.9,5.9,0,0,1-.92.48c-.29.11-.63.23-1.05.42s-.94.44-1.59.7l-.23.09a.69.69,0,0,1-.9-.38Z" style="fill:#fff;"/><path d="M361.55,535.42a2.4,2.4,0,0,1,.15-1.86,2.71,2.71,0,0,1,1.41-1.27,2.41,2.41,0,0,1,1.95,0,2,2,0,0,1,1.19,1.57.91.91,0,0,1-.27.82l-.1.09c-.58.55-.88.8-1.07,1s-.23.28-.34.27-.26,0-.55-.06-.7,0-1.28,0h-.43A.72.72,0,0,1,361.55,535.42Z" style="fill:#fff;"/><path d="M319.45,438.66a1.65,1.65,0,0,0,.82-2q-1.23-3.58-2.48-6.77A173.77,173.77,0,0,0,307,407.21a1.62,1.62,0,0,0-2.5-.41q-.7.63-1.5,1.29a1.64,1.64,0,0,0-.38,2.05,173.61,173.61,0,0,1,12.73,28.47,1.64,1.64,0,0,0,2.28.95Z" style="fill:#ffb400;"/><path d="M320.82,444.63l-1.79.86a1.63,1.63,0,0,0-.89,1.93q1.14,3.93,2.13,8.13a1.64,1.64,0,0,0,2.29,1.12l1.82-.87a1.64,1.64,0,0,0,.9-1.86c-.68-2.88-1.41-5.65-2.17-8.3A1.64,1.64,0,0,0,320.82,444.63Z" style="fill:#ffb400;"/><ellipse cx="328.24" cy="510.66" rx="3.53" ry="4.77" style="fill:#ff3a00;"/><path d="M402.47,501.47a140,140,0,0,1-15.1,4.19,1.5,1.5,0,0,0-1.17,1.57c.07,1,.12,2,.16,3.09a1.49,1.49,0,0,0,1.81,1.41,144.27,144.27,0,0,0,15.31-4.18,1.51,1.51,0,0,0,1-1.43c0-1.12,0-2.22,0-3.28A1.5,1.5,0,0,0,402.47,501.47Z" style="fill:#ffb400;"/><path d="M395.81,347.68s23.82-16.33,31.75-49a417.8,417.8,0,0,0,44.69,14.74s-9.49,35.67-35.14,51.94C437.11,365.35,408.23,354.93,395.81,347.68Z" style="fill:#04294f;"/><path d="M438.32,310.57c-3-1.09-5.72-2.1-7.88-2.92a.78.78,0,0,0-1,.51c-.19.64-.43,1.42-.72,2.29a.8.8,0,0,0,.46,1c2.16.82,4.83,1.82,7.82,2.9a.8.8,0,0,0,1-.47c.3-.82.58-1.59.82-2.31A.79.79,0,0,0,438.32,310.57Z" style="fill:#fff;"/><path d="M442.6,312.93c-.24.71-.51,1.47-.8,2.27a.78.78,0,0,0,.47,1c6.18,2.15,13.15,4.41,19.76,6.22a.8.8,0,0,0,1-.5c.3-.81.57-1.59.82-2.31a.77.77,0,0,0-.54-1c-6.56-1.78-13.51-4-19.67-6.18A.78.78,0,0,0,442.6,312.93Z" style="fill:#fff;"/><path d="M449.45,324.74c-8.6-2.7-16.92-5.73-22.4-7.81a.78.78,0,0,0-1,.42c-.31.71-.64,1.45-1,2.19a.78.78,0,0,0,.42,1.08c5.47,2.07,13.8,5.11,22.46,7.85a.79.79,0,0,0,.95-.42c.36-.76.71-1.51,1-2.24A.79.79,0,0,0,449.45,324.74Z" style="fill:#fff;"/><path d="M433.46,329.62c-4.11-1.48-7.83-2.89-10.79-4.05a.77.77,0,0,0-.95.34c-.41.69-.83,1.38-1.27,2.08a.77.77,0,0,0,.37,1.15c2.92,1.15,6.63,2.56,10.75,4.05a.79.79,0,0,0,.93-.31c.47-.7.93-1.4,1.37-2.1A.79.79,0,0,0,433.46,329.62Z" style="fill:#fff;"/><path d="M438,331.86c-.42.69-.87,1.39-1.32,2.09a.77.77,0,0,0,.39,1.17c5.3,1.82,11,3.63,16.37,5.09a.79.79,0,0,0,.88-.36c.45-.73.89-1.46,1.31-2.18a.78.78,0,0,0-.48-1.15c-5.33-1.41-10.95-3.19-16.24-5A.76.76,0,0,0,438,331.86Z" style="fill:#fff;"/><path d="M436.86,341.42c-8.37-2.71-15.32-5.54-19.88-7.54a.76.76,0,0,0-.91.23c-.51.64-1.05,1.28-1.6,1.91a.78.78,0,0,0,.26,1.24c4.49,2,11.49,4.87,20,7.67a.8.8,0,0,0,.86-.24c.57-.68,1.12-1.35,1.66-2A.79.79,0,0,0,436.86,341.42Z" style="fill:#fff;"/><path d="M440.53,346.75c2.24.66,4.56,1.31,7,1.93a.8.8,0,0,0,.82-.28c.57-.7,1.11-1.4,1.64-2.11a.79.79,0,0,0-.45-1.23q-3.57-.9-6.92-1.89a.77.77,0,0,0-.84.28c-.51.69-1,1.37-1.58,2.05A.79.79,0,0,0,440.53,346.75Z" style="fill:#fff;"/><path d="M415.27,343.43c-1.91-.87-3.61-1.68-5-2.38a.8.8,0,0,0-.85.12c-.65.58-1.32,1.14-2,1.68a.78.78,0,0,0,.13,1.33c1.44.7,3.21,1.55,5.23,2.48a.78.78,0,0,0,.87-.13c.65-.6,1.29-1.21,1.91-1.83A.79.79,0,0,0,415.27,343.43Z" style="fill:#fff;"/><path d="M435.42,351.62c-5.3-1.87-10.33-3.89-14.71-5.77a.77.77,0,0,0-.87.18c-.59.61-1.19,1.23-1.81,1.83a.78.78,0,0,0,.22,1.28c4.37,1.9,9.42,4,14.78,5.88a.81.81,0,0,0,.83-.18c.65-.64,1.27-1.29,1.89-1.95A.78.78,0,0,0,435.42,351.62Z" style="fill:#fff;"/><path d="M288.44,257.89s-8.29,11.86-2.61,25.87,27.49,17.89,24.26,36.2c0,0,31.3,4.14,52.16,3.25,0,0,.56-15.21-7.88-22s-27.53-16.6-12.3-40.7C332.89,258.42,303.35,256,288.44,257.89Z" style="fill:#04294f;"/><path d="M296.87,275.62c-2.51,0-4.77,0-6.71,0a.74.74,0,0,0-.74.84,23.71,23.71,0,0,0,.45,2.56.77.77,0,0,0,.75.59c1.9,0,4.11,0,6.53,0a.77.77,0,0,0,.76-.89c-.13-.82-.23-1.62-.29-2.4A.75.75,0,0,0,296.87,275.62Z" style="fill:#fff;"/><path d="M302.78,279.68a254.4,254.4,0,0,1,28.06,1.86.75.75,0,0,0,.84-.87,19.32,19.32,0,0,1-.28-2.45.77.77,0,0,0-.66-.73,265.8,265.8,0,0,0-28.3-1.81.75.75,0,0,0-.76.81,23.63,23.63,0,0,0,.38,2.58A.75.75,0,0,0,302.78,279.68Z" style="fill:#fff;"/><path d="M321.11,269.11c3.6.31,7.15.73,10.51,1.31a.73.73,0,0,0,.84-.52c.22-.76.48-1.54.78-2.33a.75.75,0,0,0-.56-1c-3.34-.6-6.87-1-10.42-1.37a.81.81,0,0,0-.77.45c-.39.85-.74,1.68-1,2.48A.74.74,0,0,0,321.11,269.11Z" style="fill:#fff;"/><path d="M316.39,264.76c-9.67-.55-19-.36-25.17-.09a.72.72,0,0,0-.68.52c-.26.81-.5,1.68-.7,2.61a.76.76,0,0,0,.78.91c5.88-.26,15.18-.49,24.81,0a.75.75,0,0,0,.76-.53c.25-.78.53-1.57.86-2.39A.76.76,0,0,0,316.39,264.76Z" style="fill:#fff;"/><path d="M336.22,301.65c-.53-.43-1.12-.87-1.73-1.34a.77.77,0,0,0-.43-.15c-10-.43-19.6-1.05-25.9-1.5a.75.75,0,0,0-.56,1.31c.91.85,1.78,1.72,2.6,2.63a.73.73,0,0,0,.49.25c7,.47,16.64,1.06,26.37,1.43a.76.76,0,0,0,.61-1.26A13.42,13.42,0,0,0,336.22,301.65Z" style="fill:#fff;"/><path d="M322.92,311.16c-2.61-.22-4.95-.45-6.91-.65a.76.76,0,0,0-.81.93,18.65,18.65,0,0,1,.45,2.45.75.75,0,0,0,.67.67c2,.21,4.38.43,7,.65a.77.77,0,0,0,.82-.88c-.14-.83-.31-1.7-.53-2.59A.78.78,0,0,0,322.92,311.16Z" style="fill:#fff;"/><path d="M355.3,312.51c-9.36.1-18.78-.34-26.63-.9a.75.75,0,0,0-.78.91c.17.86.3,1.68.41,2.47a.75.75,0,0,0,.69.65c7,.49,15.26.88,23.57.88l3.31,0a.75.75,0,0,0,.73-.89c-.14-.82-.33-1.67-.55-2.54A.77.77,0,0,0,355.3,312.51Z" style="fill:#fff;"/><path d="M319.7,291.12c5.42.26,10.95.57,16.09.91a.75.75,0,0,0,.64-1.22,27.07,27.07,0,0,1-1.79-2.55.76.76,0,0,0-.59-.35c-5.38-.34-11.1-.64-16.62-.91a.77.77,0,0,0-.63,1.24,31.32,31.32,0,0,0,2.4,2.66A.77.77,0,0,0,319.7,291.12Z" style="fill:#fff;"/><path d="M310.64,286.7c-6.4-.28-12.16-.49-16.31-.64a.76.76,0,0,0-.62,1.23,27,27,0,0,0,2.32,2.62.76.76,0,0,0,.51.23c4.26.15,9.71.37,15.61.63a.76.76,0,0,0,.66-1.19,22.5,22.5,0,0,1-1.54-2.49A.76.76,0,0,0,310.64,286.7Z" style="fill:#fff;"/><path d="M426.58,470.29l-.1-3.93c0-5.25-.57-10.47-1-15.7-.25-2.61-.6-5.21-.91-7.82l-.51-3.9-.64-3.89-.65-3.88c-.21-1.3-.43-2.59-.71-3.87l-1.61-7.71-1.88-7.65c-.64-2.55-1.4-5.06-2.09-7.6a218.7,218.7,0,0,0-10.9-29.63,1.64,1.64,0,0,0-.16-.29,1.9,1.9,0,0,0-2.65-.48l0,0a79.69,79.69,0,0,1-18.39,9.37c-4.19-8.52-12.93-14.11-12.93-14.11a172.74,172.74,0,0,1-15.61,11.59c-4.1-4.42-10.91-8.34-10.91-8.34-6.76,8.91-16.87,16.3-20.32,18.69l-.77,0c-1,0-1.91-.1-2.86-.14l-5.71-.32h0a.6.6,0,0,0-.11,1.2,229.24,229.24,0,0,0,23,1.66,163.65,163.65,0,0,0,23.08-1.24,121.62,121.62,0,0,0,22.68-5A84.74,84.74,0,0,0,403,378.41a225.83,225.83,0,0,1,9.65,27.06c.7,2.49,1.47,5,2.11,7.47l1.9,7.53,1.67,7.58c.3,1.26.54,2.54.77,3.81l.71,3.82.71,3.82.56,3.84c.36,2.56.8,5.12,1.13,7.69.52,5.15,1.21,10.29,1.46,15.47.15,2.59.4,5.17.47,7.77l.19,7.78c0,1.3.11,2.6.06,3.9l-.11,3.89c-.09,2.6-.11,5.2-.17,7.8v0a.49.49,0,0,0,.45.5.48.48,0,0,0,.53-.44c.24-2.6.52-5.2.73-7.81l.33-3.92c.13-1.3.11-2.61.17-3.92l.25-7.86C426.68,472.91,426.6,471.61,426.58,470.29Z" style="fill:#04294f;"/><path d="M368.67,382.65c2.1-1.55,4-3,5.55-4.32a1,1,0,0,0,.08-1.49c-.48-.51-1-1-1.44-1.45a1,1,0,0,0-1.34-.05c-1.56,1.28-3.41,2.73-5.48,4.25a1,1,0,0,0-.11,1.56c.46.44.93.91,1.4,1.39A1,1,0,0,0,368.67,382.65Z" style="fill:#fff;"/><path d="M343.45,387.76c1.95-1.86,3.68-3.64,5.16-5.23a1,1,0,0,0,0-1.37q-.71-.77-1.44-1.47a1,1,0,0,0-1.45,0,123.84,123.84,0,0,1-11.64,11,.38.38,0,0,0,.37.65c3.36-1.17,6.32-2.38,8.89-3.53Z" style="fill:#fff;"/><path d="M378.93,385.16l.58-.47a1,1,0,0,0,.2-1.37c-.4-.56-.81-1.11-1.22-1.65a1,1,0,0,0-1.44-.16c-1.84,1.48-4,3.15-6.46,4.88a.47.47,0,0,0,.37.85C374.15,386.51,376.83,385.78,378.93,385.16Z" style="fill:#fff;"/><path d="M358.24,389.55c1.84-1.08,3.62-2.19,5.28-3.3a1,1,0,0,0,.17-1.55c-.48-.51-1-1-1.48-1.49a1,1,0,0,0-1.24-.09,100.52,100.52,0,0,1-11.48,6.58.47.47,0,0,0,.25.89q4.41-.4,8.33-1A.49.49,0,0,0,358.24,389.55Z" style="fill:#fff;"/><path d="M90.4,544.44c5.33-1.09,10.65-1.86,16-2.52s10.65-1.2,16-1.6c10.64-.84,21.29-1.29,31.94-1.41,5.33,0,10.65-.1,16,.07s10.65.43,16,.85,10.65,1,16,1.83a134.92,134.92,0,0,1,16,3.24,2,2,0,0,1,0,3.94,134.92,134.92,0,0,1-16,3.24c-5.32.8-10.65,1.38-16,1.83s-10.65.7-16,.85-10.64.09-16,.07c-10.65-.12-21.3-.57-31.94-1.41q-8-.61-16-1.6c-5.32-.66-10.64-1.43-16-2.53a2.48,2.48,0,0,1,0-4.85Z" style="fill:#04294f;"/><path d="M111,542.15c5.07,1.28,13.68,2.34,20.95-2.32,0-.12-.08-.24-.11-.37s-.13-.44-.2-.69-.17-.61-.25-.93l-.06,0a128.06,128.06,0,0,1,.29-17.22l-10-.89c0,.38-.64,7.22-.51,14.26l-.21-.06h0a7.38,7.38,0,0,0-8.92,2.54l-.11.16s-.07.09-.1.15h0A6.59,6.59,0,0,0,111,542.15Z" style="fill:#ffb400;"/><path d="M132.29,541.67l0,0A5.58,5.58,0,0,0,132,540h0a1.21,1.21,0,0,0-.05-.18c-7.27,4.66-15.88,3.6-20.95,2.32a5,5,0,0,0,.22.65,6.09,6.09,0,0,0,1.65,2.32h0a5.51,5.51,0,0,0,3.51,1.33C122.82,547.69,132.9,545.35,132.29,541.67Z" style="fill:#04294f;"/><path d="M118.19,532.66a4.18,4.18,0,0,1,2.12-.89,5,5,0,0,1,2.17.21,4,4,0,0,1,1.9,1.17,3.15,3.15,0,0,1,.83,2.29.72.72,0,0,1-.63.68h-.08a8.74,8.74,0,0,1-2,0,5.07,5.07,0,0,1-1.37-.41,10.4,10.4,0,0,1-1.35-.71,9.49,9.49,0,0,1-1.51-1.14l-.13-.12a.72.72,0,0,1,0-1Z" style="fill:#04294f;"/><path d="M160.26,549.55c5.13,1,13.78,1.56,20.78-3.51,0-.12-.09-.24-.13-.37s-.16-.43-.24-.68-.21-.6-.31-.9l-.06,0a127.51,127.51,0,0,1-.69-17.2l-10-.32c0,.38-.22,7.25.31,14.26l-.21,0h0a7.37,7.37,0,0,0-8.76,3,.86.86,0,0,0-.1.16l-.1.15h0A6.58,6.58,0,0,0,160.26,549.55Z" style="fill:#ffb400;"/><path d="M181.45,547.86v0a5.89,5.89,0,0,0-.35-1.6h0L181,546c-7,5.07-15.65,4.5-20.78,3.51a5.64,5.64,0,0,0,.25.64,6,6,0,0,0,1.79,2.22h0a5.46,5.46,0,0,0,3.59,1.13C172.35,554.4,182.28,551.49,181.45,547.86Z" style="fill:#04294f;"/><path d="M168.81,384.67l-6.17-10.38a31.71,31.71,0,0,1-2.22-5.23l-2-5.34L154.52,353l-3.93-10.7-3.86-10.72a14.5,14.5,0,0,0-3.61-5.46c-6.47-6.21-17.81-6.9-25.32-1.56s-8.35,14.71-1.88,20.92l8.84,8.48,8.76,8.51,7.61,7.39L128,368.64l-14.78-1.4,9.45,8.43,21.1,18.8a1.33,1.33,0,0,0,1.38.2.89.89,0,0,0,.51-1.29l-8.62-14,18.66,3.13Z" style="fill:#ffb400;"/><path d="M118.71,512.46l0-.11a2,2,0,0,0-2.54-1.33l0,0c0-.1,0-.2,0-.3a7.8,7.8,0,0,0-.2-2.24,2.58,2.58,0,0,0-.14-.42,2.16,2.16,0,0,0-2.86-1.09l-1.13.51a8.07,8.07,0,0,0-.19-1.15,1.61,1.61,0,0,0-.09-.29,2.11,2.11,0,0,0-2.74-1.2l-1.08.42c.41-1.48.93-3.09,1.6-4.86A42.73,42.73,0,0,0,112.22,484h0c0-2.8-1.55-19-1.55-19a12.36,12.36,0,0,0-5.48,4.54h0a10.1,10.1,0,0,0-.62,1.11c0,.08-.07.17-.11.25-.14.29-.26.59-.37.89,0,.11-.07.23-.11.34-.09.29-.18.59-.25.89,0,.1,0,.2-.07.3a14.26,14.26,0,0,0-.29,2.44v.34c0,.3,0,.6,0,.91,0,.13,0,.27,0,.41s.06.58.09.88c0,.12,0,.25,0,.37q.09.61.21,1.23h0c.76,3.81,1,9.89-1.94,17.71-1.61,4.27-6.11,17.76-1.12,23.06h0l0,0a6.9,6.9,0,0,0,1,.85c5.39,4.11,11.22,1.78,14.72-1.58a8.21,8.21,0,0,0,2.18-3.5,7.15,7.15,0,0,0,.32-1.93A7.53,7.53,0,0,0,118.71,512.46Z" style="fill:#ffb400;"/><g id="_Groupe_2" data-name="&lt;Groupe&gt;"><path d="M189.19,408.52s-5.11,7.21-14.19,18.28c-43.06-11.59-105.43-7.63-105.43-7.63s10.54-10.4,30-18C99.57,401.14,141,397.13,189.19,408.52Z" style="fill:#fff;"/><path d="M189.19,408.52s33.39,40,17.72,108.59c-9.76,13.28-17.77,18.14-17.77,18.14C208.12,465.81,175,426.8,175,426.8,184.08,415.73,189.19,408.52,189.19,408.52Z" style="fill:#fff;"/><path d="M175,426.8s33.12,39,14.14,108.45c-40.86-11.56-87.33-15.45-87.33-15.45,21.47-70.91-32.24-100.63-32.24-100.63S131.94,415.21,175,426.8Z" style="fill:#00aee0;"/></g><g id="_Groupe_3" data-name="&lt;Groupe&gt;"><path d="M111,511.49a142.32,142.32,0,0,0,1.8-22.87c0-1.9-.2-3.79-.3-5.68a56.36,56.36,0,0,0-.6-5.65l-.37-2.81-.59-2.77-.56-2.78c-.18-.93-.49-1.82-.73-2.73a86.3,86.3,0,0,0-8.83-20.78A96.85,96.85,0,0,0,94.47,436Q91,431.44,87,427.17a.5.5,0,0,1,0-.7.51.51,0,0,1,.63,0,69.82,69.82,0,0,1,8.75,7.84,73.13,73.13,0,0,1,7.32,9.29,72.45,72.45,0,0,1,9.66,21.61c.25,1,.57,1.9.75,2.87l.56,2.92.54,2.92.3,2.95a82,82,0,0,1,.46,11.82l-.42,5.89c-.05,1-.24,1.94-.38,2.92l-.46,2.9-.48,2.89c-.19,1-.45,1.91-.68,2.86-.47,1.89-1,3.78-1.47,5.66a.61.61,0,0,1-.74.43.6.6,0,0,1-.44-.67Z" style="fill:#04294f;"/></g><path d="M141.77,472.82a12.87,12.87,0,0,0-.16-1.62c-.08-.57-.19-1.05-.35-1.74a4.15,4.15,0,0,0-.91-1.78,4.08,4.08,0,0,0-1.62-1.12l-.15-.07-.17-.05-.19-.05c-3-.79-4.74.85-6.28,3.63h0l-.47.78-1.14,2.08-2,3.87c-.65,1.19-1.24,2.27-1.76,3.4s-1.07,2.11-1.69,3.6l-.63,1.47a4.39,4.39,0,0,0,4.56,6,12.83,12.83,0,0,0,6.79-3.18,18.1,18.1,0,0,0,4.21-5.7,21.7,21.7,0,0,0,1.83-6.34A18.34,18.34,0,0,0,141.77,472.82Z" style="fill:#04294f;"/><path d="M162.94,475.31a14.84,14.84,0,0,1,.17-1.74c.09-.61.21-1.13.38-1.87a4.45,4.45,0,0,1,1-1.91,4.37,4.37,0,0,1,1.74-1.2c.06,0,.1-.06.17-.08l.18-.05.21-.06c3.25-.85,5.09.91,6.74,3.91h0l.5.85c.43.75.84,1.5,1.23,2.23l2.13,4.15c.69,1.29,1.33,2.44,1.89,3.65s1.15,2.27,1.82,3.87l.67,1.59a4.77,4.77,0,0,1,.33,2.36,4.72,4.72,0,0,1-5.23,4.12,13.79,13.79,0,0,1-7.29-3.41,19.49,19.49,0,0,1-4.52-6.13,23,23,0,0,1-2-6.81A20.11,20.11,0,0,1,162.94,475.31Z" style="fill:#04294f;"/><path d="M135.27,507.91a15,15,0,0,1,.55-6.65,12,12,0,0,1,4.14-5.85,14.6,14.6,0,0,1,6.16-2.69,17.93,17.93,0,0,1,12.25,2.13,15.35,15.35,0,0,1,4.85,4.42,14.75,14.75,0,0,1,2.51,6.15,19.27,19.27,0,0,1-.08,6.26,3.84,3.84,0,0,1-7.56.14l-.31-1.56a14.54,14.54,0,0,0-1-3.33,6.41,6.41,0,0,0-1.52-2.05c-.16-.12-.3-.25-.45-.37l-.5-.33c-.18-.1-.34-.22-.52-.32s-.36-.2-.56-.28a10.5,10.5,0,0,0-2.57-.75,9.69,9.69,0,0,0-4.65.43c-.14,0-.24.1-.39.14s-.24.12-.35.2a2.57,2.57,0,0,0-.72.57,7,7,0,0,0-1.36,2.68l-.59,1.78a3.78,3.78,0,0,1-7.34-.72Z" style="fill:#04294f;"/><path d="M165.27,433c-20.82-4.12-43.08-5.23-60-5.31a1.41,1.41,0,0,0-1.16,2.23q1.82,2.51,3.63,5.23a1.44,1.44,0,0,0,1.15.63c17.32.25,39.29,1.62,59.11,6a1.42,1.42,0,0,0,1.57-2c-1.08-2.11-2.19-4.13-3.31-6.05A1.41,1.41,0,0,0,165.27,433Z" style="fill:#04294f;"/><path d="M162,446.53a352.26,352.26,0,0,0-37.21-4.3,1.43,1.43,0,0,0-1.45,1.87c.36,1,.7,2.14,1,3.25a1.4,1.4,0,0,0,1.25,1,346.83,346.83,0,0,1,37.3,4.47,1.42,1.42,0,0,0,1.58-1.9c-.46-1.2-.94-2.39-1.43-3.55A1.41,1.41,0,0,0,162,446.53Z" style="fill:#04294f;"/><path d="M211.3,461.09a131.54,131.54,0,0,0-6.64-27.75,117.71,117.71,0,0,0-5.7-13.16c-1.09-2.13-2.25-4.24-3.51-6.3q-.93-1.54-1.95-3.06c-.7-1-1.36-2-2.21-3a2.51,2.51,0,0,0-1.43-.9h0c-7.4-1.7-14.83-3.32-22.34-4.43s-15-2.08-22.59-2.73-15.15-1-22.74-1.13-15.14,0-22.86.62a2.68,2.68,0,0,0-.78.18h0l-3.76,1.52c-1.24.54-2.49,1.06-3.72,1.62-2.47,1.11-4.93,2.27-7.34,3.53s-4.8,2.57-7.13,4c-1.17.73-2.32,1.47-3.47,2.26-.57.39-1.13.8-1.7,1.22s-1.09.81-1.75,1.37a3,3,0,0,0,2,5.23h0c8.56-.23,17.24-.17,25.86.06s17.26.67,25.86,1.33,17.17,1.6,25.68,2.86q6.39,1,12.71,2.17,5.92,1.15,11.76,2.64c.5.59,1,1.26,1.51,1.9.66.89,1.31,1.8,1.94,2.73,1.26,1.85,2.42,3.78,3.52,5.75a94.12,94.12,0,0,1,5.74,12.29,112.31,112.31,0,0,1,6.5,26.43c.54,4.53.84,9.08.93,13.65s-.08,9.15-.51,13.72a167.1,167.1,0,0,1-4.7,27.12,1.74,1.74,0,0,0,3.35.91,160.91,160.91,0,0,0,5.45-27.64c.54-4.68.73-9.4.81-14.13s-.22-9.45-.69-14.16A116.47,116.47,0,0,0,191,450.1a102,102,0,0,0-5.89-13c-1.14-2.1-2.36-4.17-3.68-6.17-.66-1-1.35-2-2.07-3S177.89,426,177,425a2.49,2.49,0,0,0-1.21-.75l-.07,0c-4.25-1.16-8.54-2.17-12.84-3.07s-8.62-1.63-13-2.31c-8.66-1.31-17.35-2.28-26.06-3s-17.43-1.2-26.15-1.47q-8.1-.24-16.19-.26,2.42-1.43,4.92-2.75c2.29-1.21,4.65-2.33,7-3.41,1.19-.54,2.39-1,3.59-1.56l3.22-1.32c7.15-.58,14.54-.73,21.83-.65,7.45.08,14.9.4,22.33,1s14.84,1.43,22.2,2.6c7.07,1,14.07,2.43,21,3.94.45.6.93,1.26,1.37,1.9.63.92,1.25,1.86,1.85,2.82,1.2,1.92,2.32,3.9,3.38,5.92a110,110,0,0,1,5.58,12.49,127.92,127.92,0,0,1,6.71,26.62,143.09,143.09,0,0,1,1.23,27.53,174.32,174.32,0,0,1-3.63,27.45,1.81,1.81,0,0,0,3.52.81,167.27,167.27,0,0,0,4.36-28A148.4,148.4,0,0,0,211.3,461.09Z" style="fill:#04294f;"/><path d="M218.35,529.72s0-.08,0-.12a2.07,2.07,0,0,0-2.62-1.31h0c0-.1,0-.2,0-.3a8.2,8.2,0,0,0-.23-2.29,2.23,2.23,0,0,0-3.1-1.51l-1.15.54a8.58,8.58,0,0,0-.21-1.17,2.64,2.64,0,0,0-.1-.3,2.17,2.17,0,0,0-2.83-1.19l-1.09.45c.39-1.52.9-3.18,1.55-5,6.37-17.72-.2-29.18-.48-29.66-1.14-1.94-3.11-3.59-5.51-2.63-2.08.82-2.67,4.8-1.57,6.76.2.36,4.84,8.86-.15,22.76-1.58,4.39-6,18.29-.79,23.64h0l0,0a6.12,6.12,0,0,0,1,.85c5.59,4.13,11.53,1.66,15.06-1.84a8.59,8.59,0,0,0,2.18-3.63,7.85,7.85,0,0,0,.3-2A7.53,7.53,0,0,0,218.35,529.72Z" style="fill:#ffb400;"/><path d="M208.8,523.34a9.28,9.28,0,0,1,.85,2.58,12.7,12.7,0,0,1,.19,2.52,9.1,9.1,0,0,1-.34,2.48,6.81,6.81,0,0,1-1.28,2.45v0a.63.63,0,0,1-.9.09.46.46,0,0,1-.07-.07,5.78,5.78,0,0,1-1.25-2.6,8,8,0,0,1-.12-2.58,11.71,11.71,0,0,1,.51-2.53,8.43,8.43,0,0,1,1.22-2.46.71.71,0,0,1,1-.16.72.72,0,0,1,.21.25Z" style="fill:#04294f;"/><path d="M87,345.58a59.11,59.11,0,0,1,4.9,7.46c1.45,2.57,2.76,5.2,4,7.87A68,68,0,0,1,99,369.13a39.05,39.05,0,0,1,1.73,8.82.77.77,0,0,1-.74.83.79.79,0,0,1-.62-.24,38.37,38.37,0,0,1-5.22-7.33,67.82,67.82,0,0,1-3.8-7.93c-1.12-2.72-2.12-5.47-3-8.29a57.89,57.89,0,0,1-2.06-8.69.94.94,0,0,1,.79-1.07A1,1,0,0,1,87,345.58Z" style="fill:#00aee0;"/><path d="M86.74,387.3a5.42,5.42,0,0,1,2.15,1.1,4.74,4.74,0,0,1,1.22,1.49,3.26,3.26,0,0,1,.42,1.84,4.68,4.68,0,0,1-1,2.46,1.5,1.5,0,0,1-1.36.59,4.72,4.72,0,0,1-2.48-1,3.2,3.2,0,0,1-1.05-1.57,4.76,4.76,0,0,1-.25-1.91,5.62,5.62,0,0,1,.69-2.32A1.46,1.46,0,0,1,86.74,387.3Z" style="fill:#00aee0;"/><path d="M110,362.47a5.47,5.47,0,0,1,2.16,1.1,4.89,4.89,0,0,1,1.22,1.49,3.26,3.26,0,0,1,.42,1.84,4.76,4.76,0,0,1-1,2.46,1.48,1.48,0,0,1-1.36.58A4.64,4.64,0,0,1,109,369a3.34,3.34,0,0,1-1.06-1.57,4.76,4.76,0,0,1-.24-1.91,5.41,5.41,0,0,1,.68-2.32A1.47,1.47,0,0,1,110,362.47Z" style="fill:#00aee0;"/><path d="M178.76,392.67a5.55,5.55,0,0,1,2.15,1.1,4.74,4.74,0,0,1,1.22,1.49,3.26,3.26,0,0,1,.42,1.84,4.76,4.76,0,0,1-1,2.46,1.5,1.5,0,0,1-1.36.59,4.72,4.72,0,0,1-2.48-1,3.22,3.22,0,0,1-1-1.56,4.84,4.84,0,0,1-.25-1.92,5.62,5.62,0,0,1,.69-2.32A1.46,1.46,0,0,1,178.76,392.67Z" style="fill:#00aee0;"/><path d="M198.4,358.32a5.35,5.35,0,0,1,2.15,1.1,4.61,4.61,0,0,1,1.22,1.49,3.26,3.26,0,0,1,.42,1.84,4.68,4.68,0,0,1-1,2.46,1.5,1.5,0,0,1-1.36.59,4.76,4.76,0,0,1-2.48-1,3.22,3.22,0,0,1-1.05-1.56,5,5,0,0,1-.25-1.92,5.62,5.62,0,0,1,.69-2.32A1.47,1.47,0,0,1,198.4,358.32Z" style="fill:#00aee0;"/><path d="M118.29,344.91a41,41,0,0,1,4.31,6.1A66.57,66.57,0,0,1,126,357.5a46.15,46.15,0,0,1,2.57,6.84,27.45,27.45,0,0,1,1.15,7.46.81.81,0,0,1-.82.8.79.79,0,0,1-.54-.21,27.57,27.57,0,0,1-4.64-6,46.76,46.76,0,0,1-3.2-6.56,69,69,0,0,1-2.41-6.92,40.55,40.55,0,0,1-1.46-7.32,1,1,0,0,1,.86-1A1,1,0,0,1,118.29,344.91Z" style="fill:#00aee0;"/><path d="M118.4,387.07a19.77,19.77,0,0,1,3.37,3.9,30.79,30.79,0,0,1,2.42,4.29,21.37,21.37,0,0,1,1.63,4.65,13.84,13.84,0,0,1,.19,5.25.88.88,0,0,1-1.35.59A13.94,13.94,0,0,1,121,402a21.57,21.57,0,0,1-2.26-4.37,30,30,0,0,1-1.46-4.72,20.32,20.32,0,0,1-.52-5.12,1,1,0,0,1,1.67-.72Z" style="fill:#00aee0;"/><path d="M151.24,374.17a82.59,82.59,0,0,1,5.6,9.09c1.68,3.1,3.23,6.27,4.67,9.48a100.37,100.37,0,0,1,3.86,9.84A55,55,0,0,1,167.8,413a.77.77,0,0,1-1.36.58,54.5,54.5,0,0,1-5.92-8.94,99,99,0,0,1-4.5-9.56c-1.35-3.25-2.59-6.55-3.69-9.91a84,84,0,0,1-2.76-10.31,1,1,0,0,1,.74-1.09A.93.93,0,0,1,151.24,374.17Z" style="fill:#00aee0;"/><path d="M165.05,360.86a27,27,0,0,1,3.72,4.73,41.81,41.81,0,0,1,2.79,5.13,30.22,30.22,0,0,1,2,5.47,18.38,18.38,0,0,1,.55,6.09.85.85,0,0,1-.92.76,1,1,0,0,1-.44-.17,18.63,18.63,0,0,1-4-4.59,29.81,29.81,0,0,1-2.62-5.2,41.85,41.85,0,0,1-1.81-5.55,26.69,26.69,0,0,1-.88-5.95,1,1,0,0,1,1-1A1,1,0,0,1,165.05,360.86Z" style="fill:#00aee0;"/><path d="M195.21,376a48.52,48.52,0,0,1,4.59,6.73,78.22,78.22,0,0,1,3.64,7.12,54.69,54.69,0,0,1,2.84,7.47,32.32,32.32,0,0,1,1.42,8.09.8.8,0,0,1-.78.82.86.86,0,0,1-.58-.23,32.39,32.39,0,0,1-4.9-6.59,54.21,54.21,0,0,1-3.48-7.2c-1-2.46-1.91-5-2.68-7.54a49,49,0,0,1-1.74-7.95,1,1,0,0,1,.83-1.05A1,1,0,0,1,195.21,376Z" style="fill:#00aee0;"/><path d="M172.53,342.78a30.27,30.27,0,0,1,3.87,5.07,48.36,48.36,0,0,1,2.94,5.49,34.59,34.59,0,0,1,2.13,5.82,20.86,20.86,0,0,1,.71,6.45.84.84,0,0,1-.89.77.86.86,0,0,1-.47-.19,20.41,20.41,0,0,1-4.2-4.94,34.62,34.62,0,0,1-2.77-5.55,48,48,0,0,1-2-5.9,29.4,29.4,0,0,1-1-6.3,1,1,0,0,1,.92-1A1,1,0,0,1,172.53,342.78Z" style="fill:#00aee0;"/><path d="M196.86,354.06c-76.24,10.53-118.47-7.32-118.47-7.32-29.09-7.43-13.57-43.88,11.2-26.64,0,0,8.17-17,23.34-9.06,0,0,1.61-30,29.66-29.81,21.46.16,30,11.25,31.06,23.73,0,0,20.87.07,19.8,23.52C213.86,319.81,229,349.61,196.86,354.06Z" style="fill:#04294f;"/><path d="M86.63,334.61A9.73,9.73,0,0,1,90,333.7a12.63,12.63,0,0,1,3.14.1,8.53,8.53,0,0,1,3,.95,7.29,7.29,0,0,1,2.66,2.47,1.08,1.08,0,0,1-.29,1.45A7.33,7.33,0,0,1,95,339.92a8.5,8.5,0,0,1-3.11-.27A12.66,12.66,0,0,1,89,338.52a9.8,9.8,0,0,1-2.73-2.13,1.13,1.13,0,0,1,.09-1.6A1.59,1.59,0,0,1,86.63,334.61Z" style="fill:#fff;"/><path d="M150.52,320.09a9.89,9.89,0,0,1,3-1.78,12.8,12.8,0,0,1,3-.77,8.88,8.88,0,0,1,3.12.11,7.24,7.24,0,0,1,3.23,1.66,1.06,1.06,0,0,1,.12,1.47,7.24,7.24,0,0,1-2.95,2.14,8.56,8.56,0,0,1-3.06.58,12.91,12.91,0,0,1-3.13-.29,9.76,9.76,0,0,1-3.2-1.31,1.13,1.13,0,0,1-.35-1.57A1.21,1.21,0,0,1,150.52,320.09Z" style="fill:#fff;"/><path d="M105.32,327.23a5.34,5.34,0,0,1,2.07-1.16,4.73,4.73,0,0,1,1.88-.17,3,3,0,0,1,1.69.7,4.62,4.62,0,0,1,1.4,2.21,1.53,1.53,0,0,1-.3,1.45,4.57,4.57,0,0,1-2.14,1.51,3.08,3.08,0,0,1-1.83,0,4.61,4.61,0,0,1-1.66-.88A5.42,5.42,0,0,1,105,329,1.49,1.49,0,0,1,105.32,327.23Z" style="fill:#fff;"/><path d="M159.06,307.75a5.36,5.36,0,0,1,1.58-1.77,4.62,4.62,0,0,1,1.72-.77,3.12,3.12,0,0,1,1.83.11,4.68,4.68,0,0,1,2,1.65,1.48,1.48,0,0,1,.19,1.46,4.58,4.58,0,0,1-1.53,2.12,3,3,0,0,1-1.74.58,4.56,4.56,0,0,1-1.86-.28,5.49,5.49,0,0,1-2-1.3A1.49,1.49,0,0,1,159.06,307.75Z" style="fill:#fff;"/><path d="M186.35,344.37a5.52,5.52,0,0,1,1.94-1.36,4.43,4.43,0,0,1,1.85-.35,3.07,3.07,0,0,1,1.76.51,4.73,4.73,0,0,1,1.61,2.07,1.5,1.5,0,0,1-.14,1.47,4.66,4.66,0,0,1-2,1.72,3.07,3.07,0,0,1-1.83.17,4.59,4.59,0,0,1-1.74-.7,5.34,5.34,0,0,1-1.64-1.72A1.49,1.49,0,0,1,186.35,344.37Z" style="fill:#fff;"/><path d="M166.86,539.67a4.18,4.18,0,0,1,2.07-1,5.18,5.18,0,0,1,2.18.08,4.08,4.08,0,0,1,2,1.07,3.1,3.1,0,0,1,1,2.23.71.71,0,0,1-.59.71l-.08,0a9.47,9.47,0,0,1-2,.12,4.87,4.87,0,0,1-1.4-.34,10.32,10.32,0,0,1-1.38-.63,8.79,8.79,0,0,1-1.58-1l-.13-.11a.72.72,0,0,1-.09-1Z" style="fill:#04294f;"/><path d="M511.82,544.44c6-1.09,12-1.86,17.95-2.52s12-1.2,18-1.6q17.94-1.26,35.9-1.41c6,0,12-.1,18,.07s12,.43,17.95.85,12,1,18,1.83a168.5,168.5,0,0,1,18,3.24,2,2,0,0,1,0,3.94,168.5,168.5,0,0,1-18,3.24c-6,.8-12,1.38-18,1.83s-12,.7-17.95.85-12,.09-18,.07q-18-.18-35.9-1.41-9-.61-18-1.6c-6-.66-12-1.43-17.95-2.53a2.45,2.45,0,0,1-2-2.86A2.48,2.48,0,0,1,511.82,544.44Z" style="fill:#04294f;"/><g id="_Groupe_4" data-name="&lt;Groupe&gt;"><path d="M673.6,426.25c.33-1.48.63-3,.89-4.49,0-.12,0-.24.07-.36a58.82,58.82,0,0,0-4.5-5.53c.41-1.89.79-3.79,1.12-5.71,0,0-27-38.05-68.23-16.61A11.55,11.55,0,0,1,600,393a16.45,16.45,0,0,1-2.88-1.17s-13.37-17.72-54.44-14.73c0,0,0,0,0,0C514.08,444.36,496.09,446,496.09,446a97.37,97.37,0,0,1,11.16,1.11c-6.16,5.83-9.54,6.15-9.54,6.15,1.83.08,3.6.2,5.32.36s3.33.33,4.92.55c-6.1,5.37-9.56,5.89-9.56,5.89,3.68.16,7.13.45,10.38.85,34.71,4.21,45.83,20.42,46.19,21v0a24.83,24.83,0,0,0,7.66,2.14c.6-.33,1.19-.64,1.78-.93,38.53-18.88,68.5,27.82,68.5,27.82s35.75-33.57,44.36-77.75c.13-.69.26-1.37.38-2.05C677.65,431.17,676.23,429.19,673.6,426.25Z" style="fill:#ffb400;"/><path d="M674.49,421.76c-.26,1.51-.56,3-.89,4.49,2.63,2.94,4,4.92,4,4.92-.12.68-.25,1.36-.38,2.05C668.66,477.4,632.91,511,632.91,511s-30-46.7-68.5-27.82c-.59.29-1.18.6-1.78.93a24.83,24.83,0,0,1-7.66-2.14v0c-.36-.55-11.48-16.76-46.19-21-3.25-.4-6.7-.69-10.38-.85,0,0,3.46-.52,9.56-5.89-1.59-.22-3.23-.4-4.92-.55a69.88,69.88,0,0,1-5.57,5.37c-5.7,4.86-8.92,5.61-8.92,5.61,5.47.24,10.57.69,15.29,1.31,29.18,3.79,44.3,13.7,49.07,17.41,1.15.9,1.7,1.43,1.7,1.43a26.71,26.71,0,0,0,8.32,2.34c42-17.72,69.21,31.77,69.21,31.77s39.26-34.31,50.1-80.44c.49-2,.91-4.09,1.27-6.16A85.29,85.29,0,0,0,674.49,421.76Z" style="fill:#ff3a00;"/><path d="M683.5,432.3c-.36,2.07-.78,4.13-1.27,6.16-10.84,46.13-50.1,80.44-50.1,80.44s-27.26-49.49-69.21-31.77a26.71,26.71,0,0,1-8.32-2.34s-.55-.53-1.7-1.43c-4.77-3.71-19.89-13.62-49.07-17.41-4.72-.62-9.82-1.07-15.29-1.31-3.12,1.51-1.8,9.64,2.2,9.86,47.46,2.07,64.57,21.35,64.57,21.35,3.51,1.85,10.18,2.8,10.18,2.8,42-17.72,64.86,31.87,64.86,31.87s48.16-36.84,56.74-86C687.52,442.17,686.17,436.17,683.5,432.3Z" style="fill:#04294f;"/></g><path d="M599.56,396.32c-1.8,6.75-4,13.37-6.39,19.92-1.2,3.28-2.44,6.54-3.78,9.76s-2.68,6.45-4.12,9.63a208.55,208.55,0,0,1-9.43,18.71,132.48,132.48,0,0,1-11.71,17.41.5.5,0,0,1-.7.07.5.5,0,0,1-.13-.61c3.22-6.18,6.4-12.31,9.43-18.52,1.57-3.07,3-6.22,4.54-9.31l4.4-9.39c.74-1.56,1.43-3.15,2.14-4.73s1.44-3.14,2.14-4.72l2.1-4.75c.71-1.59,1.41-3.17,2.09-4.76l8.27-19.11a.6.6,0,0,1,.8-.31A.61.61,0,0,1,599.56,396.32Z" style="fill:#04294f;"/><path d="M669.12,420.09a1.21,1.21,0,0,0-1.5.81V421a178.08,178.08,0,0,1-6.3,18.26c-1.14,3-2.57,5.91-3.85,8.86s-2.77,5.82-4.32,8.64q-4.49,8.57-9.81,16.64c-3.14,4.78-6.47,9.49-10,13.9-.67-.63-1.33-1.24-2-1.85-1.22-1.08-2.49-2.11-3.79-3.1a72.71,72.71,0,0,0-8.15-5.39A61,61,0,0,0,601.05,470a53.5,53.5,0,0,0-19.65-.22,62,62,0,0,0-17.89,6.29c-.42-.05-.86-.12-1.29-.2-.61-.11-1.22-.24-1.82-.39a18.43,18.43,0,0,1-3-1.07,47.52,47.52,0,0,0-3.95-5,61.77,61.77,0,0,0-4.87-4.84,71.32,71.32,0,0,0-11-8.1c-1-.6-2-1.1-3-1.66l-1.5-.81-1.54-.72-3.1-1.43-3.18-1.22-1.58-.61c-.54-.19-1.09-.34-1.62-.51l-3.25-1c-2.18-.62-4.41-1.05-6.6-1.58a1.16,1.16,0,0,0-.59,2.24l.1,0c2.12.59,4.27,1.09,6.36,1.76l3.12,1.06c.51.18,1,.34,1.55.54l1.52.63,3,1.27,2.94,1.45,1.47.74,1.42.82c.94.55,1.91,1.06,2.82,1.66A69.52,69.52,0,0,1,546.3,467a58.74,58.74,0,0,1,4.54,4.66,44,44,0,0,1,3.82,5.07l0,0a1.82,1.82,0,0,0,.69.63,20.39,20.39,0,0,0,4.09,1.58c.69.18,1.38.35,2.07.49s1.36.25,2.13.34a1.78,1.78,0,0,0,1-.19l0,0a58.4,58.4,0,0,1,17.32-6.07,53.68,53.68,0,0,1,9.13-.69,54.5,54.5,0,0,1,9.09,1,60.6,60.6,0,0,1,17.16,6.49,69.12,69.12,0,0,1,7.74,5.07,58.11,58.11,0,0,1,6.88,6l.08.08a1.07,1.07,0,0,0,.16.14,1.89,1.89,0,0,0,2.65-.26,165.64,165.64,0,0,0,11.51-16q5.28-8.3,9.71-17.09c1.53-2.9,2.85-5.9,4.26-8.86l1.9-4.54c.65-1.5,1.23-3,1.79-4.57a162.16,162.16,0,0,0,5.83-18.76A1.22,1.22,0,0,0,669.12,420.09Z" style="fill:#04294f;"/><path d="M673.2,428.25a.48.48,0,0,0-.62.3v0l-1.66,4.9-.81,2.45-.92,2.4-1.85,4.81-2.06,4.71-1,2.35-1.12,2.31c-.76,1.53-1.48,3.08-2.27,4.6-1.63,3-3.18,6.06-5,9a204.8,204.8,0,0,1-11.17,17.2l-3.06,4.12c-1.06,1.34-2.1,2.7-3.18,4-1.71,2.12-3.47,4.23-5.28,6.23a70.3,70.3,0,0,0-7.21-7.13,72.06,72.06,0,0,0-9.92-7.2A57.77,57.77,0,0,0,605,478.11l-2.92-.94c-1-.25-2-.46-3-.7l-1.49-.33-1.51-.2-3-.38a.6.6,0,0,0-.2,1.19h0l2.9.65,1.44.32,1.41.44c.94.3,1.88.57,2.81.89l2.74,1.1a60.14,60.14,0,0,1,10.31,5.61,78,78,0,0,1,9.22,7.28c1.43,1.34,2.83,2.71,4.16,4.15s2.64,2.92,3.77,4.38l0,0a1.54,1.54,0,0,0,.17.19,1.85,1.85,0,0,0,2.61,0,150,150,0,0,0,13.45-16.14A161.92,161.92,0,0,0,659.18,468c1.72-3,3.24-6.2,4.76-9.34.73-1.59,1.39-3.21,2.08-4.81l1-2.41c.32-.81.6-1.64.9-2.46l1.77-4.93,1.46-5c.24-.84.5-1.67.72-2.51l.56-2.56c.38-1.7.71-3.41,1.07-5.11A.49.49,0,0,0,673.2,428.25Z" style="fill:#04294f;"/><path d="M509.64,453.85a36.07,36.07,0,0,1,7.2.34,45,45,0,0,1,7,1.54,37.93,37.93,0,0,1,6.7,2.68,25.5,25.5,0,0,1,5.94,4.2.52.52,0,0,1,0,.73.55.55,0,0,1-.47.14c-2.4-.47-4.61-1.15-6.83-1.81s-4.37-1.42-6.55-2.15l-6.58-2.15c-2.2-.73-4.43-1.44-6.66-2.32a.62.62,0,0,1,.19-1.2Z" style="fill:#04294f;"/><path d="M610.87,422.7a6,6,0,0,0-1.41-2.1,5.71,5.71,0,0,0-1.31-.94,5.62,5.62,0,0,0-1.6-.51,6.24,6.24,0,0,0-2.75.24,8.88,8.88,0,0,0-1.8.89,10.42,10.42,0,0,0-2.36,2.18,12.84,12.84,0,0,0-2.57,5.12,1.17,1.17,0,0,0,0,.69,1.14,1.14,0,0,0,1.49.66h0a44.59,44.59,0,0,0,4.23-2c1.32-.65,2.36-.57,2.9.71a23,23,0,0,0,2,4.05v0a1,1,0,0,0,.22.24,1,1,0,0,0,1.45-.18,8.87,8.87,0,0,0,1.42-2.65,10,10,0,0,0,.57-2.93A8.24,8.24,0,0,0,610.87,422.7Z" style="fill:#04294f;"/><path d="M642.38,431.9A7,7,0,0,0,639.5,428a6.67,6.67,0,0,0-1.84-.77,7.31,7.31,0,0,0-3.27,0,9.7,9.7,0,0,0-2.21.86,12.64,12.64,0,0,0-3,2.31,15.22,15.22,0,0,0-3.56,5.76,1.31,1.31,0,0,0,0,.83,1.37,1.37,0,0,0,1.69.94h0A50.35,50.35,0,0,0,632.5,436c1.63-.62,2.85-.42,3.35,1.15a27.28,27.28,0,0,0,1.95,5v0a1.33,1.33,0,0,0,.23.3,1.23,1.23,0,0,0,1.73-.05,10.55,10.55,0,0,0,2-3,12.25,12.25,0,0,0,1-3.4A9.59,9.59,0,0,0,642.38,431.9Z" style="fill:#04294f;"/><path d="M516.5,435.05c-1,1-1.91,2-2.88,2.93,12.41,1.89,35,8.47,44.48,25.08.62-1.11,1.25-2.27,1.9-3.45h0C549.06,442.6,526.39,436.81,516.5,435.05Z" style="fill:#fff;"/><path d="M632.1,451.28a8,8,0,0,0-10.05-5l-2.76.92a20,20,0,0,1-2.48.69,10.55,10.55,0,0,1-1.88.12,16.69,16.69,0,0,1-3.85-.48c-1-.24-2.05-.64-3-1h0a6.45,6.45,0,0,1-3.84-3.89,6.59,6.59,0,0,0-.25-.75h0a.68.68,0,0,0-.13-.27,6.3,6.3,0,0,0-2.76-2.93A6.17,6.17,0,0,0,599,438h-.05a6.33,6.33,0,0,0-2.67.21c-2.46.67-4.48,2.72-5.8,6.3a10,10,0,0,0-.5,1.52,8.58,8.58,0,0,0-.26,1.38c-.06.45-.1.92-.12,1.38a14.11,14.11,0,0,0,.19,2.63,17.69,17.69,0,0,0,3.67,8.12,23.45,23.45,0,0,0,12.23,7.93,24.24,24.24,0,0,0,14.83-.45,21.07,21.07,0,0,0,6.65-3.88,19.19,19.19,0,0,0,4.49-5.66A8,8,0,0,0,632.1,451.28Z" style="fill:#04294f;"/><path d="M601.08,443.72a3.84,3.84,0,0,0,1.85-.55,6.33,6.33,0,0,0,1.21-.9c0-.14-.08-.27-.13-.4h0a.68.68,0,0,0-.13-.27,6.3,6.3,0,0,0-2.76-2.93,5.82,5.82,0,0,0-1-.42,3.18,3.18,0,0,0-.82.46,4,4,0,0,0-1.35,2,2,2,0,0,0,.79,2.27A4,4,0,0,0,601.08,443.72Z" style="fill:#fff;"/><path d="M603.76,446.3a3.92,3.92,0,0,0,.48,2.37,2,2,0,0,0,2.16,1,3.91,3.91,0,0,0,2.15-1.11,3.65,3.65,0,0,0,.88-1.61l-1.32-.46h0A6.06,6.06,0,0,1,605,444c-.15.17-.31.35-.45.53A3.68,3.68,0,0,0,603.76,446.3Z" style="fill:#fff;"/><path d="M602.09,466.13a6.42,6.42,0,0,0,.54-.63,3.78,3.78,0,0,0,.75-1.78,4,4,0,0,0-.48-2.37,2,2,0,0,0-2.16-1,4,4,0,0,0-2.15,1.11,3.79,3.79,0,0,0-.91,1.71c0,.13,0,.26-.07.4A23.91,23.91,0,0,0,602.09,466.13Z" style="fill:#fff;"/><path d="M592.93,456.24a3.49,3.49,0,0,0-1.19.75,20.54,20.54,0,0,0,1.68,2.5,23.47,23.47,0,0,0,1.76,1.94,3.41,3.41,0,0,0,1.09-1.08,3.87,3.87,0,0,0,.58-2.34,2,2,0,0,0-1.51-1.86A3.89,3.89,0,0,0,592.93,456.24Z" style="fill:#fff;"/><path d="M610.37,468.27c.14-.25.28-.49.39-.74a3.75,3.75,0,0,0,.34-1.9,3.93,3.93,0,0,0-1-2.21,2,2,0,0,0-2.34-.53,3.93,3.93,0,0,0-1.85,1.55,3.76,3.76,0,0,0-.52,1.87,7.53,7.53,0,0,0,.05,1.05l.19.06A25.2,25.2,0,0,0,610.37,468.27Z" style="fill:#fff;"/><path d="M617.91,463.39a2,2,0,0,0-2.34.52,4,4,0,0,0-1,2.2,3.75,3.75,0,0,0,.34,1.9l.1.22a23.16,23.16,0,0,0,5.25-1.19v-.22a3.86,3.86,0,0,0-.51-1.87A3.92,3.92,0,0,0,617.91,463.39Z" style="fill:#fff;"/><path d="M616.89,447.83h0l-.08,0a10.55,10.55,0,0,1-1.88.12,16.88,16.88,0,0,1-3.47-.4,1,1,0,0,0,0,.17,3.62,3.62,0,0,0,.05,1.93,3.88,3.88,0,0,0,1.42,1.95,2,2,0,0,0,2.39.05,3.93,3.93,0,0,0,1.49-1.91A3.7,3.7,0,0,0,616.89,447.83Z" style="fill:#fff;"/><path d="M622.05,446.23l-2.52.84c0,.23,0,.46,0,.68a3.71,3.71,0,0,0,.59,1.84,3.88,3.88,0,0,0,1.91,1.48,2,2,0,0,0,2.31-.63,3.91,3.91,0,0,0,.9-2.24,3.83,3.83,0,0,0-.42-1.89c-.08-.16-.17-.32-.26-.48A8.25,8.25,0,0,0,622.05,446.23Z" style="fill:#fff;"/><path d="M556.66,398.92c.42-1.12.83-2.21,1.23-3.29a86.78,86.78,0,0,0-15.84-2.46c-.48,1.07-1,2.18-1.52,3.32h0A85.39,85.39,0,0,1,556.66,398.92Z" style="fill:#fff;"/><path d="M561.17,396.56c-.39,1.08-.8,2.17-1.22,3.28,8.77,2.71,17.32,7.33,22.82,15,.55-1.16,1.09-2.33,1.64-3.5h0C578.29,403.68,569.65,399.19,561.17,396.56Z" style="fill:#fff;"/><path d="M576,393.47c.41-1.23.79-2.42,1.16-3.57-10-4.57-22.51-6-31-6.5-.41,1-.88,2.17-1.41,3.41h0C559.41,387.15,569.37,390.13,576,393.47Z" style="fill:#fff;"/><path d="M580.27,391.46c-.38,1.18-.78,2.41-1.21,3.67,6.66,4,9,8,9.05,8.06l1.58-3.59h0A27.47,27.47,0,0,0,580.27,391.46Z" style="fill:#fff;"/><path d="M557.48,426.58c.52-1.06,1-2.11,1.51-3.16-9.44-5.63-20.24-8-27.71-9.07-.62,1.06-1.25,2.13-1.89,3.19h0C537.72,418.6,548.48,421.17,557.48,426.58Z" style="fill:#fff;"/><path d="M532.06,427c-2.22-.55-4.3-1-6.14-1.29l-1.62-.26h0q-1.1,1.57-2.22,3.09c2.41.34,5.1.83,7.94,1.5C530.7,429,531.38,428,532.06,427Z" style="fill:#fff;"/><path d="M553.53,440c.57-1,1.14-2.06,1.69-3.09a66.77,66.77,0,0,0-19.7-9.06c-.66,1-1.33,2-2,3A65.6,65.6,0,0,1,553.53,440Z" style="fill:#fff;"/><path d="M556.26,442.11a35.74,35.74,0,0,1,8.08,9.31l1.86-3.49h0A40.59,40.59,0,0,0,558,439Q557.13,440.55,556.26,442.11Z" style="fill:#fff;"/><path d="M545.87,409.56c.5-1.08,1-2.15,1.46-3.21a90.71,90.71,0,0,0-10.73-1.81c-.55,1.08-1.12,2.16-1.69,3.25h0A88,88,0,0,1,545.87,409.56Z" style="fill:#fff;"/><path d="M557.15,409.35c-2.17-.84-4.35-1.56-6.48-2.15q-.7,1.59-1.44,3.21c2.14.59,4.29,1.29,6.41,2.1C556.16,411.46,556.66,410.4,557.15,409.35Z" style="fill:#fff;"/><path d="M560.29,410.66c-.49,1-1,2.1-1.5,3.16,7,3.14,13.36,7.71,17.57,14.29.57-1.17,1.15-2.33,1.73-3.51h0C573.43,418.13,567,413.71,560.29,410.66Z" style="fill:#fff;"/><path d="M613.84,410a42.5,42.5,0,0,1,11.27.39c.27-1.11.53-2.2.77-3.28a45.4,45.4,0,0,0-12.38-.51,47.08,47.08,0,0,0-10,2.1c-.45,1.36-.91,2.74-1.39,4.14A43.4,43.4,0,0,1,613.84,410Z" style="fill:#fff;"/><path d="M629.21,407.87c-.24,1.07-.5,2.15-.77,3.26,10.21,2.54,20.12,8.85,29.62,18.88.44-1.22.85-2.42,1.25-3.6C648.56,415.46,638.2,410.14,629.21,407.87Z" style="fill:#fff;"/><path d="M619.52,399.21c9.86-.76,19.5,1.8,28.81,7.6.3-1.18.57-2.32.83-3.43-11.72-7-22.27-8.19-30.09-7.56a47.61,47.61,0,0,0-12.24,2.66c-.42,1.34-.86,2.75-1.33,4.22A43.69,43.69,0,0,1,619.52,399.21Z" style="fill:#fff;"/><path d="M652.21,405.31c-.28,1.12-.56,2.28-.87,3.48a80.13,80.13,0,0,1,10.62,9c.37-1.29.71-2.56,1-3.77A78.28,78.28,0,0,0,652.21,405.31Z" style="fill:#fff;"/><path d="M626.86,535.9v-.13a4,4,0,0,0-.05-1c0-.1,0-.21,0-.31h0a4.27,4.27,0,0,0-3.52-3.19c-5.44-.79-9.23-4-10.4-8.73a11.78,11.78,0,0,1,4.57-12.39c1.91-1.38,1.59-3.08.21-5s-3.31-3.3-5.22-1.92a20.27,20.27,0,0,0-7.84,21.34,19.35,19.35,0,0,0,9.78,12.65,6.84,6.84,0,0,0-3.22,6.92l0,.16s0,.1,0,.16h0a5.25,5.25,0,0,0,7.48,3.68h0l.1-.06a5.73,5.73,0,0,0,.7-.43,17.28,17.28,0,0,0,7.36-11.45l0-.11C626.86,536.05,626.85,536,626.86,535.9Z" style="fill:#00aee0;"/><path d="M570.8,486.65C557.68,491.15,552,499.9,549.48,507l-.9-1.23c-1.41-1.49-4.7-3.52-8.26-1.69l-.15.07-.14.08h0a5.24,5.24,0,0,0-2.57,5.95h0v0a5.35,5.35,0,0,0,.44,1.11c2.7,5.7,10.63,7.52,15.15,6.4a4.09,4.09,0,0,0,.84-.26,4.26,4.26,0,0,0,2.52-3.24c1.05-6.59,4.9-15.33,17.15-19.54,2.23-.75,2.61-3,1.85-5.19S573,485.88,570.8,486.65Z" style="fill:#00aee0;"/><path d="M552.06,514.44c-4.24-.33-7.92-3.84-9.57-6.18-1.42-2-4.92-1.76-5.19.58a5.53,5.53,0,0,0,.16,1.37h0v0a5.35,5.35,0,0,0,.44,1.11c4.07,8.1,14.79,6.89,16,6.14C554.88,517.11,556.3,514.76,552.06,514.44Z" style="fill:#04294f;"/><path d="M550.72,506.09a2.89,2.89,0,0,1,1.5-.06,2.4,2.4,0,0,1,1.07.56,1.93,1.93,0,0,1,.62,1.12,2.12,2.12,0,0,1-.49,1.76.78.78,0,0,1-.61.29h-.33a8,8,0,0,1-1.44,0,1,1,0,0,1-.67-.45,2.24,2.24,0,0,1-.37-.87,3.65,3.65,0,0,1,0-1.39v-.11A1,1,0,0,1,550.72,506.09Z" style="fill:#04294f;"/><path d="M614.63,536.72c.69-.23,1.28-.38,1.75-.53s.85-.28,1.17-.4a7.16,7.16,0,0,1,1.08-.3c.24,0,.48-.11.81-.15a9.84,9.84,0,0,1,1.14-.18h.12a.69.69,0,0,1,.72.53,3,3,0,0,1-.57,2.53,3.82,3.82,0,0,1-2.3,1.42,4.38,4.38,0,0,1-2.62-.2,3.69,3.69,0,0,1-1.88-1.66.69.69,0,0,1,.26-.94l.11-.05Z" style="fill:#04294f;"/><path d="M713.85,473.44l-1.27.36a2.19,2.19,0,0,0-.39.26l-.41.33-.82.66-.64.52a19.8,19.8,0,0,0,1.39-2.39,21.11,21.11,0,0,0,1.13-2.89,15.19,15.19,0,0,0,.57-3.15,2,2,0,0,0-.65-1.61,2,2,0,0,0-2.84.12l-.28.31c-.17.18-.34.39-.51.61a2.09,2.09,0,0,1,.08-.23,23.65,23.65,0,0,0,.7-3.24,15.2,15.2,0,0,0,.12-3.4,2,2,0,0,0-3.72-.89l-.18.3c-.45.73-.86,1.64-1.32,2.44s-.88,1.64-1.32,2.44q-1.32,2.38-2.81,4.55a35.22,35.22,0,0,1-3.22,4.06c-.3.32-.59.64-.88,1l-.44.42c-.8.66-1.29.37-1.4-.6,0-.27,0-.53,0-.78,0-1.48.1-4,.23-5.3h0l0-.13a1.8,1.8,0,0,0,0-.61c0-1.6-.54-3.86-2.66-2.87l-.17.08-.24.14h0a5.69,5.69,0,0,0-.79.52,9.76,9.76,0,0,0-.84.73A8.43,8.43,0,0,0,689,467a8.53,8.53,0,0,0-.59,1.39h0a2.5,2.5,0,0,1-.07.26c-.07.24-.14.49-.2.74-3.06,11.71,2.81,13.76-.27,17.05-11.65,14-23.82,5.67-25.18,4.67a3.41,3.41,0,0,0-4.1,5.45,24.41,24.41,0,0,0,19.4,4.17c4.6-1,9.44-3.61,14-8.65h0c6.9-7.11,6.4-.38,17-6.95.42-.25.82-.52,1.22-.81a16.8,16.8,0,0,0,3.71-3.77,14.68,14.68,0,0,0,1.34-2.3,11.55,11.55,0,0,0,.87-2.68,1.82,1.82,0,0,0-2.28-2.08Z" style="fill:#00aee0;"/><path d="M699.41,475.17a10,10,0,0,1,1-1.95l-.11.1a15.31,15.31,0,0,1,1.37-2,17.94,17.94,0,0,1,1.5-1.84,10.37,10.37,0,0,1,1.86-1.54,7.75,7.75,0,0,1,2.41-1.19h0a.59.59,0,0,1,.73.41.58.58,0,0,1,0,.19,7.76,7.76,0,0,1-.65,2.63,10.81,10.81,0,0,1-1.4,2.12,23.11,23.11,0,0,1-1.76,1.81,15.41,15.41,0,0,1-2.13,1.41l-.11.1a10,10,0,0,1-2,.7.68.68,0,0,1-.8-.54.66.66,0,0,1,0-.37Z" style="fill:#04294f;"/><path d="M704.22,478.93a4.43,4.43,0,0,1,.69-1.83A5.84,5.84,0,0,1,706,476a3.77,3.77,0,0,1,1.42-.78,3.81,3.81,0,0,1,2-.05.78.78,0,0,1,.61.76h0a3.93,3.93,0,0,1-.49,2,3.82,3.82,0,0,1-1.13,1.23,5.08,5.08,0,0,1-1.54.78,4.24,4.24,0,0,1-2,0A.89.89,0,0,1,704.22,478.93Z" style="fill:#04294f;"/><path d="M673.66,401.15c3.24-3.59,6.64-7,10.09-10.35,1.72-1.68,3.45-3.35,5.22-5s3.52-3.28,5.31-4.88c3.55-3.24,7.2-6.37,10.91-9.43s7.55-6,11.61-8.64a.5.5,0,0,1,.66.74c-3.11,3.73-6.5,7.15-9.93,10.53s-7,6.6-10.62,9.75q-2.68,2.4-5.45,4.72c-1.82,1.56-3.68,3.09-5.54,4.61-3.74,3-7.51,6-11.45,8.83a.61.61,0,0,1-.81-.91Z" style="fill:#00aee0;"/><path d="M675.45,367.22a25.27,25.27,0,0,1-7.74-4.89,17.19,17.19,0,0,1-4.76-8.1,18.57,18.57,0,0,1,.27-9.48,26.29,26.29,0,0,1,4.26-8.39,33,33,0,0,1,14.94-11,32.54,32.54,0,0,1,9.22-1.94c.84-.05,1.45-.11,2.13-.16a14.57,14.57,0,0,0,2-.31,17.07,17.07,0,0,0,3.74-1.29c4.78-2.33,8.08-7.12,9.41-12.4a27.73,27.73,0,0,0-1.14-16.36,36.63,36.63,0,0,0-9.52-14,57.65,57.65,0,0,0-14.55-9.59h0a.49.49,0,0,1-.23-.66.5.5,0,0,1,.6-.25A50.32,50.32,0,0,1,700,277,37.55,37.55,0,0,1,711,291.62a30.32,30.32,0,0,1,1.67,18.57,24.31,24.31,0,0,1-4,8.75,20.36,20.36,0,0,1-7.47,6.27,21,21,0,0,1-4.66,1.58,16.43,16.43,0,0,1-2.42.36l-2.31.17a28.48,28.48,0,0,0-8.16,1.56,30.63,30.63,0,0,0-13.62,9.48A24.53,24.53,0,0,0,666,345.6a16.66,16.66,0,0,0-.64,8.1,15.38,15.38,0,0,0,3.73,7.29,25.24,25.24,0,0,0,6.87,5.13h0a.61.61,0,0,1-.52,1.1Z" style="fill:#04294f;"/><path d="M599.75,344c-1.65-6.28-3-12.6-4.4-18.93-.66-3.17-1.32-6.34-1.92-9.52s-1.23-6.35-1.8-9.54c-1.19-6.36-2.23-12.74-3.17-19.15s-1.72-12.83-2.14-19.33a.5.5,0,0,1,.46-.53.51.51,0,0,1,.51.36c1.83,6.24,3.26,12.56,4.63,18.89s2.53,12.69,3.6,19.07q.84,4.79,1.59,9.58c.52,3.19,1,6.39,1.46,9.6.91,6.41,1.76,12.82,2.37,19.29a.61.61,0,0,1-1.19.21Z" style="fill:#00aee0;"/><path d="M651.51,335.56c0-4.26.34-8.47.69-12.67.18-2.1.37-4.2.61-6.28s.46-4.18.74-6.26c.51-4.16,1.16-8.3,1.91-12.42a114.11,114.11,0,0,1,2.93-12.21c.05-.17.31-.25.57-.18s.39.22.4.37a119.21,119.21,0,0,1-.46,12.72c-.38,4.2-.86,8.37-1.48,12.51-.29,2.08-.6,4.15-.95,6.21s-.7,4.13-1.08,6.19c-.78,4.11-1.62,8.21-2.7,12.26-.05.21-.36.31-.69.23S651.5,335.75,651.51,335.56Z" style="fill:#ff3a00;"/><path d="M575.66,362.07a34.56,34.56,0,0,0,2.38-9.28,18.93,18.93,0,0,0-1.08-9,10.79,10.79,0,0,0-2.33-3.55,9.72,9.72,0,0,0-3.46-2.18,15,15,0,0,0-8.6,0l-2.44.64c-.88.17-1.75.35-2.65.44A19.4,19.4,0,0,1,552,339a14.57,14.57,0,0,1-9.39-5.75,15.13,15.13,0,0,1-2.32-5,16.26,16.26,0,0,1-.39-5.37,19.17,19.17,0,0,1,3.69-9.58.5.5,0,0,1,.86.49h0a21.39,21.39,0,0,0-2,9.17,13.24,13.24,0,0,0,2.9,8.18,11.51,11.51,0,0,0,7.26,4,16,16,0,0,0,4.38.05,21.32,21.32,0,0,0,2.22-.35l2.36-.59a21.63,21.63,0,0,1,5.36-.69,15.39,15.39,0,0,1,5.52,1,12.85,12.85,0,0,1,4.71,3.23,14.24,14.24,0,0,1,2.8,4.84,20.18,20.18,0,0,1,.47,10.52,29.8,29.8,0,0,1-3.74,9.45.59.59,0,0,1-.83.21.61.61,0,0,1-.26-.74Z" style="fill:#ff3a00;"/><path d="M642.44,345.55a10.09,10.09,0,0,0-3.1-5,15.35,15.35,0,0,0-4.71-2.85,19,19,0,0,0-2.61-.84,16.18,16.18,0,0,0-2.76-.3,18.43,18.43,0,0,0-10.19,2.93,22.76,22.76,0,0,0-4.33,3.55,23.55,23.55,0,0,1-.72-3c-1.07-6,0-12.36,2.1-18.23a47.36,47.36,0,0,1,4.2-8.47,51.7,51.7,0,0,1,5.85-7.55.49.49,0,0,0,0-.65.49.49,0,0,0-.7-.06,43.3,43.3,0,0,0-6.72,7.2,44.42,44.42,0,0,0-5,8.55,36.79,36.79,0,0,0-3.17,19.76,23.76,23.76,0,0,0,1.25,5.05c.09.27.2.53.31.79-.11.17-.22.34-.32.51a20.37,20.37,0,0,0-2.95,9.94,22,22,0,0,0,2.19,10,30.67,30.67,0,0,0,5.86,8.13,48.79,48.79,0,0,0,7.65,6.21.61.61,0,0,0,.72-1h0a55,55,0,0,1-7-6.5,28.43,28.43,0,0,1-5-7.86,20.27,20.27,0,0,1-1.53-8.86,17.52,17.52,0,0,1,.9-4.36,20.31,20.31,0,0,1,.83-2.07l.39-.73c.1.17.21.34.32.51a18.72,18.72,0,0,0,3.62,4,20.42,20.42,0,0,0,4.65,2.75,18.44,18.44,0,0,0,10.64,1.28,13.53,13.53,0,0,0,5.18-2.26,11.25,11.25,0,0,0,3.68-4.54A9.35,9.35,0,0,0,642.44,345.55ZM638.32,350a7.37,7.37,0,0,1-2.39,2.89,9.54,9.54,0,0,1-3.65,1.56,14.74,14.74,0,0,1-8.35-1,15.92,15.92,0,0,1-3.71-2.14,16.08,16.08,0,0,1-2.94-3.11,13,13,0,0,1-1.09-1.74,19.42,19.42,0,0,1,4.72-3.95,15.21,15.21,0,0,1,8.22-2.23,14,14,0,0,1,2.06.26,15.11,15.11,0,0,1,2,.68,11.92,11.92,0,0,1,3.52,2.19A5.62,5.62,0,0,1,638.32,350Z" style="fill:#ffb400;"/><path d="M720.46,330.61l12.11-5.19a2.79,2.79,0,0,1,3.6,3.8l-4.57,9.26a2.78,2.78,0,0,1-3.82,1.22l-7.54-4.07A2.79,2.79,0,0,1,720.46,330.61Z" style="fill:#00aee0;"/><path d="M530,324.62l-2.53,8.14c-.5,1.6-3.46,1-4.5-.9l-4.16-7.59c-.64-1.16-.14-2.21,1.09-2.31l6.69-.54C528.44,321.27,530.47,323.18,530,324.62Z" style="fill:#04294f;"/><path d="M703.58,397l-2.32,10.87a2,2,0,0,0,1.51,2.37l10,2.29a2,2,0,0,0,2.29-1.18l3.62-8.62a2,2,0,0,0-1.1-2.63l-11.31-4.54A2,2,0,0,0,703.58,397Z" style="fill:#ff3a00;"/><path d="M550,272.32l-7.48-2.83a1.45,1.45,0,0,0-1.85.82l-2.71,6.88a1.44,1.44,0,0,0,.59,1.76l5.74,3.5a1.45,1.45,0,0,0,2-.5l4.45-7.56A1.43,1.43,0,0,0,550,272.32Z" style="fill:#ffb400;"/><path d="M618.27,292.77l5.9-4.57a1.61,1.61,0,0,0,.57-1.82l-2.44-5.25a.92.92,0,0,0-1.35-.34l-5.29,2.9a1.68,1.68,0,0,0-.84,1.78l1.84,6.92C616.84,293.1,617.62,293.28,618.27,292.77Z" style="fill:#04294f;"/><circle cx="598.72" cy="372.28" r="4.6" style="fill:#04294f;"/><circle cx="658.39" cy="228.41" r="6.57" style="fill:#00aee0;"/><circle cx="718.9" cy="429.84" r="3.29" style="fill:#04294f;"/><circle cx="741.51" cy="365.08" r="6.06" style="fill:#ffb400;"/></svg>