<svg xmlns="http://www.w3.org/2000/svg" viewBox="0 0 442.45 316.87"><title>NoConnection_usingSmartphone</title><g id="Layer_2" data-name="Layer 2"><g id="Layer_1-2" data-name="Layer 1"><g id="vSM8XD"><path d="M97.32,227.92c-1.88,1.64-3.11,3.88-5.45,5.17-1.82,1-3.08,3-4.86,4.11a31.94,31.94,0,0,1-3.24,2.3c-2.06,1-4.07,2.27-6.24,2.69-1.72.33-3.43.86-5.12,1.23-4.45,1-8.81.08-13.21.09-2.15,0-4.28-.4-6.43-.11a7.4,7.4,0,0,1-3.16-.68A57.34,57.34,0,0,0,42.37,241c-1.23-.22-2.59.2-3.91.18-.49,0-1,.26-.86-.55.16-1.3-.83-1.34-1.64-1.34s-1.41.18-1.83-.81c-.12-.27-1.21-.62-1.8-.64a5.54,5.54,0,0,1-3.6-1.8c-1-.88-2.51-.69-3.5-1.65-.48-.47-1.32-.52-1.41-1.48a.93.93,0,0,0-1.52-.38c-.09.09-.39,0-.59,0,.29-1.88-1.6-.76-2.29-1.59a14.57,14.57,0,0,0-2.56-2.31c-.32-.24-.67-.45-.66-.85,0-.88-.53-.63-1.09-.79a6.72,6.72,0,0,1-2.57-1.65c-.3-.29-.58-.72-.9-1.07-1.77-2-3.75-3.87-5-6.35-.27-.54-.57-1.3-1.39-1.47-.3-.06-.4-.34-.39-.63,0-1.36-.84-2.38-1.42-3.5-.93-1.81-.74-4-1.48-5.67-.64-1.47-.47-2.94-1-4.33-.32-.86-.85-1.85-.08-2.91a1,1,0,0,0-.59-1.59c.74-1.4-.06-2.8-.13-4.17-.05-1,1-2.2-.2-3.14-.1-.78,1.36-1.5.1-2.34l.08-.73c.8.16,1.13-.16.87-.94-.14-.43-.58-.79-.25-1.31a18.85,18.85,0,0,1,.85-6.77c1.21-3.28,1.72-6.76,3.44-9.92a53,53,0,0,1,3-5.6,7.07,7.07,0,0,1,2-2c1.41-.88,2-2.45,3.22-3.51a42,42,0,0,1,7.5-5.26,44.64,44.64,0,0,1,6.36-3.06,42.41,42.41,0,0,1,7.54-2.37,17.66,17.66,0,0,0,6.16-2.1c.36-.22,1.06-.61.72-1.1-1-1.46,1.17-2.79.08-4.19.82-3.45.34-7.08,1.31-10.48.81-2.84,1-5.81,1.94-8.59.4-1.2.53-2.51,1.45-3.59a6.32,6.32,0,0,0,.88-2.79c.33-1.63,1.68-2.93,1.42-4.75-.12-.81.83-1.07,1.06-1.74.65-1.94,2-3.64,2.55-5.5a5.72,5.72,0,0,1,2-3c.73-.63.78-1.6,1-2.3.58-1.54,2.53-2.17,2.43-4,0-.55.52-.64.88-.84.57-.32,1.22-.79,1.19-1.37-.07-1.09.68-1.42,1.28-2,2.49-2.44,4.76-5.13,7.45-7.32,1.41-1.15,2.74-2.62,4.69-3.15.59-.16,1-1.1,1.81-1.39a27.56,27.56,0,0,1,3.53-1l-.25.11.11.16.11-.28c-.23-.79.56-.73.85-.8a3.46,3.46,0,0,0,2.5-1.56c.32-.56.82.18,1.37-.14a34.67,34.67,0,0,1,5.1-2.52c4.41-1.7,8.83-3.38,13.31-4.86A37.48,37.48,0,0,1,109,63.91a46.26,46.26,0,0,0,5.81-.64c3.11-.8,6.16-.58,9.25-.8,2-.14,4,.21,6-.53a3.17,3.17,0,0,1,2.15.38c1.73.91,3.61-.17,5.3.71.39.2,1.22-.18,1.46-1.07.36-1.36.57-2.87,1.85-3.76a3,3,0,0,0,1.48-2.1,2.41,2.41,0,0,1,2.45-1.9c.17,0,.34.07.29-.11-.43-1.6,1-1.55,1.81-2.11a9.25,9.25,0,0,0,2.08-2c.16-.22.37-.61.51-.59,1.85.22,2.62-1.81,4.34-2,.73-.1,1.39-1.1,2.29-1.53,5.51-2.6,11.31-3.15,17.31-3.07,1.62,0,3.38,0,5,.08,1.26,0,2.83-.84,4.18.37a2.8,2.8,0,0,0,2.44.15c1.58-.54,3,.57,4.5.79,2.34.34,4.66,1,7,1.56a14.56,14.56,0,0,1,3.71,1.8,63.18,63.18,0,0,1,8.56,6.39c2.72,2.35,4.42,5.29,6.36,8.16s3,6.19,4.64,9.24c.87,1.67,1.09,3.94,1.37,6,.3,2.23.86,4.42,1.15,6.64.25,2,.31,4,.38,6a6.56,6.56,0,0,0,.33,2,1.31,1.31,0,0,1-.17,1.56c-.69.81.15,1.81.2,2.75,0,.49.28.66-.43.94s.19,1.08.1,1.7c-.37,2.41-.18,4.86-.73,7.27a29.33,29.33,0,0,0-.94,6,5.14,5.14,0,0,1-.74,2.42,10.08,10.08,0,0,0-1.2,3.78c-.21,1.12.51,2.28.74,3.44.54,2.8,1.15,5.61,1.61,8.41a49.08,49.08,0,0,1,.67,7.08,11.29,11.29,0,0,0,.52,4.55c.12.27-.14.72-.24,1.08a1.35,1.35,0,0,0,.92,1.8,17.18,17.18,0,0,1,3.09,1.15c2.2,1.13,4.73,1.06,6.89,2.38,1.17.71,2.38,1.79,3.94,1.73.84,0,1,.75,1.49,1.08a38.43,38.43,0,0,1,5.09,3.41c1.28,1.17,3,2.15,3.72,3.6,1.32,2.51,3.91,3.9,5,6.58a60.11,60.11,0,0,1,3.94,12.13c.18,1,.48,2,.73,3,.56,2.24.22,4.46.37,6.67.11,1.6.14,3.21.17,4.81a10.4,10.4,0,0,1-.45,4.49c-.52,1.21-.29,2.62-.6,4a88.71,88.71,0,0,1-4.19,13.44c-1,2.39-2.94,4.38-3.83,6.78-.64,1.74-2.19,2.89-2.5,4.72a21.14,21.14,0,0,1-6.17,0c-2.31-.16-4.58-.56-6.9,0a2,2,0,0,1-.76.16c-2-.18-3.91-1.35-5.94-.29-.16.08-.43-.07-.63,0-2.15.41-4.34-1-6.49.12-.2.11-.53,0-.8-.05-2.8-.28-5.52.33-8.28.66-.82.1-.84,1.11-1.5,1a7,7,0,0,0-6.39,1.89c-.23.22-.64.55-.81.48-1.14-.49-1.34.52-1.77,1.07a35.41,35.41,0,0,0-1.82,3.52c-.72,1.19-1.55,2.35-2.35,3.48-.6.85-.69,2-1.69,2.59-3.53-1-6.94-2.44-10.47-3.29-2.87-.69-4.19-3-6.34-4.29-1.25-.78-1.55-2.28-2.63-3.22s-1.47-2.28-2.3-3.39c-1-1.37-1.25-3.34-1.82-5.05a15.56,15.56,0,0,0,2.2-2.27c1.21-1.88,3.05-3.14,4.53-4.76a77.93,77.93,0,0,0,6.81-7.75c1.37-2,3.39-3.5,4-6a5.26,5.26,0,0,1,1.29-2.14c1.53-1.54,1.12-3.85,2.47-5.42a2,2,0,0,0,.44-1.94c1.55-.34-.85-1.13.08-1.25s.65-1.32,1.42-1.53c.05,0,.07-.19.09-.29.61-3,1.9-5.77,2.37-8.78a6.1,6.1,0,0,1,1.1-.67c2.8-1,5.53-2,5.7-5.65,1.54-1.19,1-2.85.77-4.29-.35-2.44-1-4.84-3.31-6.28a16.24,16.24,0,0,1-1.74-1.42c.5-2.5.32-5.06.58-7.56.15-1.48-.91-3.11.4-4.47,0,0,0-.11,0-.16-.84-1.42.22-2.92-.23-4.45-.31-1-.73-2.38.23-3.52.2-.24.17-.77-.6-.75a3.65,3.65,0,0,0-2.56,1c-.24.22-.27.69-.8.65a20.2,20.2,0,0,0-3.7.54c-2.59.26-5.23.12-7.83.41-1.63.19-3.36-.73-4.91.46-.14.11-.5-.1-.76-.1-2.6,0-5.2-.06-7.8-.05-1.08,0-2.3.46-3.2.1a6.54,6.54,0,0,0-4.15-.22c-2,.59-3.82,0-5.66-.08-2.2-.05-4.34.58-6.55.22a13.19,13.19,0,0,0-4.34.11c-1.38.24-2.87-.25-4.36-.26-3.37,0-6.73.06-10.1.1-2.63,0-5.27.19-7.89.05-2.17-.11-4.31.33-6.49,0-1.61-.21-3.29.11-4.91-.07-.67-.07-1.11.52-1.68.27-1.54-.69-2.1-.67-1.93,1.44.23,2.78-.33,5.61-.07,8.43.15,1.61-.15,3.19.24,4.87.22,1-.26,2.38-.24,3.61,0,2,0,4.11,0,6.15-.05,2.44-.67,4.88-.93,7.34a10,10,0,0,0-.14,2.69c.65,2.25.07,4.43,0,6.58-.14,4.08-.82,8.15-1.34,12.21-.09.68.45,1.43.18,1.83-1.42,2-.62,4.38-1.16,6.54a44.27,44.27,0,0,0-1.07,7.48c-.12,1.76-1.18,3.44-1.7,5.19a40.6,40.6,0,0,1-3.4,8.59C98.87,225.88,97.8,226.71,97.32,227.92Zm6.12-110c-.22,0-.32.07-.35.28-.51.06-.4-.34-.46-.61.13-.27,0-.37-.25-.31l-.25-.09c-.08-1.16.89-1.45,1.62-1.93a5.74,5.74,0,0,0,2.54-4c0-.13.06-.38.26-.21.85.74.69-.07.87-.51.29-.7.68-1.35,1-2l.32-.34c1.64-2.24,3.57-4.37,2.58-7.52-.07-.22.08-.52.13-.78.23-1.24,0-1.9-.87-2-1.18-.09-1.26-.67-1.22-1.64.07-1.65,0-1.65-1.44-1.56a1,1,0,0,0,0-1.59c-.47-.43-.61,0-.78.35-.27,0-.61.05-.79-.08a3.71,3.71,0,0,0-3.36-.84c-.5.14-1.26.23-1.42.57-.8,1.77-3,1.54-4,3-.77,1.06-2.08,1.72-3,2.68a15.23,15.23,0,0,1-3.23,3.08c.65-1.78-.61-3.53.77-4.93.14-.14-.13-.49-.41-.6.51-1-.19-2.07,0-3s-.11-1.32-.76-1.79c-.28-.2-.87-.19-.78-.84s.07-.8-.77-.56h0c.1-1.26-1.35-1.33-1.8-2.24-.11-.22-1.44.41-1.87-.58-.53.24-1.13.41-1.21,1.14-.76.43-1.38,1.24-2.48.73-.27-.13-.7.13-.53.7.07.24-.15.8-.29.82-2.46.36-1.66,2.74-2.49,4.1-.12.19-1,.56-.32,1.27.49.51,1.09,1.38-.21,1.88-.16.06-.11.33,0,.57.53,1.56-.36,3.05,0,4.92A10.78,10.78,0,0,0,69.74,99c-1.11-.06-2,.86-3,.59-1.8-.46-3.16.51-4.51,1.36-.59.37-1.67.34-1.68,1.43-.28.08-.46-.53-.9.05-.87,1.14-.48,2.27-.35,3.43l-.07,0c-1.59-.28-.92.89-.71,1.36A8.29,8.29,0,0,0,59.84,109c.63.89.83,2.21,2.29,2.28a1.18,1.18,0,0,0,1.28.64c.87,1.41,2.57,1.47,3.82,2.27.55.35.73,1.45,1.78,1,.77-.3,1.18.19,1.16.91,0,1-.82.71-1.33.61-1.45-.29-2.9,0-4.4-.4s-3.07.6-4.6,1.09c-1.21.38-2.08,1.42-3.64,1.27-.82-.08-2.64.46-1.95,2.35a.85.85,0,0,1-.68,1.08c-1.28.27-1.19,1.93-2.4,2.22-.07,0-.05.38-.09.58a4.53,4.53,0,0,0,1.79,4.62c.39.31.65.71,1,1,0,.76.68,1,1.09,1.5l0,0c.21.42.59.25.92.28l0,0c.17.51.57.34.92.33a1.12,1.12,0,0,0,.23.11c1.27,1.27,3,.84,4.49,1.19.56.13.57-.33.76-.61,1.12,1.07,2.46.7,3.77.61.45,0,.84-.79,1.27-.24.32.4-.13.89-.26,1.33a3.66,3.66,0,0,1-.57,1.12c-.84,1.15-1.44,2.44-2.38,3.57-1.21,1.46-1.51,3.52-2,5.4a.86.86,0,0,0,.78,1.17c1,0,.68.4.47,1-.36,1-.83,1.92-.07,3a5.54,5.54,0,0,0,3.94,2.32,8.85,8.85,0,0,0,2.87.39c1.65-.28,2.52-1.54,3.84-2.17a1.69,1.69,0,0,0,1.76-.84c.4-.56.81-1.12,1.21-1.68s1.13-1,.78-1.38c-.84-.92-.06-.9.43-.9.9,0,1.05-.56,1.52-1.16.65-.83,1-2.45,2-2.4s1,1.79,1.64,2.62c.06.07,0,.21,0,.31a10.64,10.64,0,0,0,3.93,5.2l.14.16c.4,1.27,1.95.77,2.52,1.56a4.56,4.56,0,0,0,2.6,1.36c2,.7,4.2.42,6.3.52.74,0,2.07-.86,2.94-1.49,1.15-.83,1.88-2.22,2.84-3.32.3-.34.65-.63.46-1.1-1.16-2.92-2-6-4-8.5a1.1,1.1,0,0,1-.29-.52c-.43-2-2.51-2.84-3.42-4.52-.06-.11-.3-.11-.41-.22-1-1-2.32-1.34-3.46-2l.55-.26c.89.35,1.71.92,2.56,1.23,2.52.92,5.17,1.48,7.73,2.3,1.07.35,2.22-.12,3.23.49.3.41.57.37.83,0l.08,0c.79.14,1.67.56,2.33.34.93-.32,2.23.44,2.48,0,.64-1.23,2-1.68,2.58-2.86.39-.49.63-1.08,1.3-1.35s.84-.89,1.09-1.51c1.13-2.83-1-4.78-2.11-6.83a8.2,8.2,0,0,0-3.08-2.92c-1.34-.74-2.71-1.43-4-2.24-.62-.38-.86,0-1.23.31h0c-.06-.17-.15-.28-.35-.23a.56.56,0,0,0-.24-.13,2.65,2.65,0,0,0-3.25-1.26h0a.54.54,0,0,0-.61.33ZM61,208.54a2,2,0,0,1,.24.21c0,.23,0,.74.3.34a21.84,21.84,0,0,0,1.58-2.85.51.51,0,0,0,0-.43c-1.11-1.8-5.27-1.68-6.25.2a3.11,3.11,0,0,0-.44,1.5c0,.75-.76,2.48,1.33,1.47.18-.09.52.07.74.2A1.74,1.74,0,0,0,61,208.54Zm-38.41-6.65a.91.91,0,0,1-.2-.1,2.72,2.72,0,0,0-3.35-.47c-1,.62-.6,1.71-.57,2.56s-.32,1.67.35,2.28a3.52,3.52,0,0,0,4,.31c.28-.15.32.24.5.27s.62,0,.5-.36a9.61,9.61,0,0,1-.44-4C23.31,201.92,22.82,202,22.55,201.89Zm177.88-91.46c-.07.05-.25.12-.31.24-.92,1.88-3.78,2-4,4.51,0,.14-.3.26-.47.38a2.61,2.61,0,0,0-.18,4.14c.14.12.47.09.43.36s-.45.62.2.77.53-.36.76-.62c.57-.67,1.14-1.33,1.75-2,1.43-1.47,3.79-2.24,3.84-4.89C202.43,112.44,201.35,110.35,200.42,110.44ZM20.67,180.82c.09-.52.41-1.18.21-1.58-.31-.63-.18-1.29.21-1.39.82-.21.78-.63.78-1.26s.39-.82.83-1.11c1.78-1.14,2.09-2.44,1.1-4.27-.65-1.2-1.47-1.23-2.56-.33a4.45,4.45,0,0,0-1.36,1.89c-.18.44,0,1.22-.45,1.3-1.53.34-.9,2.39-2.33,2.77-.19.05-.22.5,0,.73.39.48.16.81-.24,1.07-.61.39-.25.65.06,1s.65.38.87-.08c.69-1.44,1.17-.53,1.36.21S19.86,180.56,20.67,180.82Zm14,9.9c.17.12.33.24.5.35,1.06.68,2.3.11,1.86-.87-.54-1.21,0-2.16,0-3.22-.18-2.13-1-3.55-2.58-4.07-.84-.27-1.69-.2-1.71.8,0,1.89-.6,3.83.12,5.68a2.25,2.25,0,0,1,.12,2.1c-.33.65-.12,1.09.85.81S34.9,191.64,34.69,190.72Zm125.16-64.43c-.33-.58,0-1.22-1-1.68a11.19,11.19,0,0,0-4.12-.56c-.84,0-1.86-.43-2.45.28a12.92,12.92,0,0,0-1.47,2.82,1.13,1.13,0,0,0,.1,1.23c.44.46.55-.28.83-.35a5.12,5.12,0,0,1,2.52-.14c1.22.92,2.37.54,3.62.47C159.25,128.29,159.55,127.32,159.85,126.29Zm24.72-2.5c-.14.07-.33.1-.42.21-1.14,1.41-2.75,1.85-4.4,2.3a3.85,3.85,0,0,0-2.24,3.9,2.62,2.62,0,0,0,.43.67c.78-.9,1.66.41,2.62-.2s2.35-.6,3.36-1.69c.46-.49,1.49-.67,1.77-1.6a1.76,1.76,0,0,0-1-2.16C183.91,124.78,184,124.34,184.57,123.79Zm54.72,42.87c-2.26,0-2.6.57-1.63,2.59a7.5,7.5,0,0,0,.69,1.43c.9,1.14,1.09,3.24,3.37,2.6.32-.09.27.24.37.4a1.25,1.25,0,0,0,1.46.51c.59-.28.69-1,.49-1.67a27.39,27.39,0,0,0-1.69-3.93A2.87,2.87,0,0,0,239.28,166.66Zm2.7,30a7.74,7.74,0,0,0,3.16-.06,1.21,1.21,0,0,0,1.11-.79c.63-1.64-1.31-6.14-2.94-6.59a2.38,2.38,0,0,0-2.39.5c-.33.33-.64.79-.19,1.29a3.46,3.46,0,0,1,.74,3c-.05.36-.14.91.27,1C242.9,195.37,242,196,242,196.64ZM90.54,207.17c-.68.13-.73.67-1.23.78-1.19.26-2.88-.66-3.42,1.31-2.46.4-2,2.24-1.8,3.84.12.93.61,1.58,1.61.59a5.4,5.4,0,0,1,3.16-1.47c1-.13,1.37-2,2.81-1,.32.22.5-.24.32-.73C91.58,209.38,90.76,208.43,90.54,207.17Zm73.12-92.5a14.88,14.88,0,0,1,1.66-.26c3.71-.2,4.12-.48,5.23-3.64.19-.55.55-1.24-.27-1.43-1.06-.25-3-.16-3,.44-.08,1.39-.72.61-1,.48-1.43-.58-2.48-.22-2.83,1.28a9,9,0,0,1-.62,2.21C162.55,114.26,162.76,114.84,163.67,114.67Zm27.93-15.45a7.59,7.59,0,0,0-1-2.58c-.25-.48-.55-.39-1.1,0a4.65,4.65,0,0,0-1.77,2.56c-.18.45-.25,1.49-1.27.73-.49-.36-.45.22-.58.43-.61,1-.15,1.72.35,2.77.91,1.87.6,2,2.18.77.16-.13.43-.14.58-.28A7.74,7.74,0,0,0,191.59,99.22Zm2.63-38c-.77,0-.74,0-.92.56-.65,2.06.27,3.92.72,5.83.21.88,1.42.55,1.89,1.22.64.91,1.2-.29,1.77-.06.38.16.85.68,1,0s.39-1.37-.14-1.82c-1-.89-1.14-1.14-.85-2.28.1-.38.59-.89.15-1.19C196.58,62.69,195.58,61.48,194.22,61.26ZM178.76,94c0,.2.06,0,0-.22-.16-.92-1.69-2.54-2.15-2.27A9.62,9.62,0,0,0,173.22,96c-.62,1.31,1.15,2.31,1.24,3.7,0,.37.49,0,.76-.14,2-.84,2.64-2.81,3.59-4.5C178.89,94.93,178.79,94.67,178.76,94ZM43.57,215.33c-1.6.14-1.74-1.31-2.37-2.18-1.49-2.05-2.86-2.32-4.83-.81-.7.54-1,1.16-.23,1.82,1,.94,1.37,2.39,3.09,2.84S42.66,217.2,43.57,215.33ZM213.74,94.09c.08-1.15-1.82-3.73-2.77-3.84-.3,0-.43.17-.64.53a22.53,22.53,0,0,0-1.47,3.67c-.35.92.35,3.2,1.32,3.49,1.75.52,1.74.52,2.33-1.56,0-.13.22-.23.35-.31C213.64,95.57,213.26,94.58,213.74,94.09ZM66.69,229.18a4.71,4.71,0,0,0,3.7-2.63c.08-.33.06-.89-.24-.75-1.59.71-2-1.79-3.54-1.18-.82-1.61-1.9-.34-2.67-.08-1.56.54-1.74,1.92-.52,3A5.11,5.11,0,0,0,66.69,229.18Zm141.06-16.32a12.09,12.09,0,0,0,0,1.44c.15,1.22.86,1.56,1.62.62s1.12-1.46,2.26-1.19c.18,0,.5-.21.65-.4a4,4,0,0,0,.18-4.66c-.25-.43-.48-.66-1-.58A4.84,4.84,0,0,0,207.74,212.86Zm25-32.16c1.16.32.66-.32.59-.7-.25-1.36-1.79-1.49-2.4-2.58-.88-1.59-4.06-1.81-5.33-.51-.34.34-.35.86,0,.91.84.11.78.72,1,1.25.39,1.11,1.78,1.25,2.25,2.29.57-.55,1.47.43,1.55.08C230.86,179.51,232.32,181.7,232.77,180.71Zm.32,26.07a3.73,3.73,0,0,0-1.2-3.15c-.45-.54-1.37-.94-1.73-.08-.91,2.16-2.44,4.25-.8,6.82.46.72.88,1.31,1.59,1.23s1-.77.94-1.49c0-.47-.15-1,.39-1.3A1.65,1.65,0,0,0,233.08,206.78ZM196.59,79.07a3.4,3.4,0,0,1,.27,1.74,4,4,0,0,0,2.48,3.29c.89.23,1.4.18,1.32-1s-.72-2.39.43-3.43c.25-.23,0-.79-.27-.81-.93-.09-.85-.83-1.08-1.42-.33-.84-.36-.82-1.06-.16-.1.09-.3.21-.38.17C195.75,76.23,197.71,79.06,196.59,79.07Zm-12.08-5.92c.16-1.6-2.21-3.28-3.48-3.26a.72.72,0,0,0-.78.66c-.26,2-.13,3.79,1.47,5.22.7.63,2.77.57,2.65,0C184.16,74.82,184.67,74,184.51,73.14ZM78.37,196.49c-.15.58.51,1,1.26.84s1.6-.39,2.42-.51c.61-.09,1.94-3.6,1.65-4.12-.12-.22-.41-.53-.58-.51-1.18.16-2.59.06-3.45.69S78.51,194.87,78.37,196.49ZM73.44,78.21s-.07-.09-.11-.09-.07.06-.11.1l.16.11Z" style="fill:#163847;"/><path d="M195.9,177.91c-.47,3-1.76,5.81-2.37,8.78,0,.1,0,.27-.09.29-.78.2-.36,1.4-1.42,1.53s1.47.9-.08,1.25a2,2,0,0,1-.44,1.94c-1.36,1.57-.94,3.88-2.47,5.42a5.26,5.26,0,0,0-1.29,2.14c-.62,2.52-2.64,4.05-4,6a77.93,77.93,0,0,1-6.81,7.75c-1.47,1.62-3.32,2.88-4.53,4.76a15.55,15.55,0,0,1-2.2,2.27c-1.48.26-2.17,1.65-3.28,2.43a66.73,66.73,0,0,1-7.05,4.38c-.52.28-1.16-.19-1.32.1-.75,1.38-2.32,1.16-3.42,1.86a23.79,23.79,0,0,1-5.69,2.21c-1.21.39-2.36,1.34-3.45,1.45a7,7,0,0,0-3,.7l-.18-.16c0-.43.14-.89-.26-1-.87.2,0,1.64-.91,1.2-1.4-.65-1.19.89-1.93,1.13-.46.15.1,1.12.45,1.68a29.83,29.83,0,0,1,2,3.38,6.87,6.87,0,0,0,2.12,3.05,20.79,20.79,0,0,1,3.36,3.27,28.36,28.36,0,0,0,3.48,3c1.66,1.4,3.73,2.36,5.2,3.91s3.38,2.67,4.89,4.2c-.55.36-1.42.4-1.32,1.4.06.64-.53,1.09-.64,1.59-.35,1.58-1.81,2.29-2.5,3.55a22.13,22.13,0,0,1-2.77,3.41c-.93,1.12-2.43,1.78-3.71,2.65a28.69,28.69,0,0,1,5.88,6.85,16.48,16.48,0,0,1,1.5,3.44c.44,1.17,1.89,1.78,1.69,2.94-.24,1.42.5,2.39.95,3.51a6.56,6.56,0,0,1,.35,1.81c.18,1.62.23,3.27.53,4.87a5.64,5.64,0,0,1-.16,2.83c-.07.23-.52.45-.24.66.92.7.23,1.62.32,2.4.29,2.69-1.25,4.94-2.45,7.12-.57,1-.3,2.46-1.37,3.12A2.07,2.07,0,0,0,156,310.9c-.1,1.34-1.48,1.67-2.37,1.9-.69.18-.22-1-.42-1.59a6.12,6.12,0,0,0-.33-.55,1.76,1.76,0,0,1,.13-2c.4-.64,1.51-.85,1.3-1.43-.33-.9.17-1.37.53-1.89,1.58-2.24,1.79-5.05,3.14-7.39a.6.6,0,0,0,0-.3c-1.23-.27-.33-1-.43-1.6-.58-3.23-.29-6.54-1.23-9.77-.83-2.84-2.4-5.25-3.58-7.89-1.06-2.37-2.94-4-4.57-5.92a3.23,3.23,0,0,0-2.48-1.21c-1.44-.08-2.42,1.08-3.86,1.17-1.75.11-3.5.84-5.21,1-2.52.17-5.06.66-7.65.14a28.23,28.23,0,0,1-3-.59c-.89-.28-2.16.46-2.58.2-1.7-1.07-3.68-.81-5.4-1.11-3.59-.64-6.3-2.64-9.16-4.42a28.5,28.5,0,0,1-5.18-4.55c-.49-.51-1.3-.85-1.48-1.51-.61-2.31-1.62-4.48-2.22-6.8-.27-1,.82-2.31-.58-3.08,3-1.86,6-3.7,9-5.58a102,102,0,0,0,10.48-7c1.18-1,1.71-3.28,1-4.27-.2-.28-.44-.62-.77-.44-1.7.94-3.14-1.28-4.82-.34-.13-1.36-2.7.07-2.11-2-.77.12-.66.58-.62,1l-.18.16a5.67,5.67,0,0,0-2.9-.71c-1.11.08-2.29-.9-3.44-1.42-1.81-.83-3.84-1-5.61-2.1a7.23,7.23,0,0,0-2.11-1c.48-1.21,1.54-2,2.16-3.13a40.6,40.6,0,0,0,3.4-8.59c.52-1.75,1.58-3.43,1.7-5.19a44.27,44.27,0,0,1,1.07-7.48c.53-2.16-.26-4.53,1.16-6.54.28-.4-.26-1.15-.18-1.83.52-4.06,1.2-8.13,1.34-12.21.07-2.15.66-4.33,0-6.58a10,10,0,0,1,.14-2.69c.25-2.46.87-4.89.93-7.34,0-2,0-4.1,0-6.15,0-1.23.47-2.65.24-3.61-.39-1.67-.09-3.26-.24-4.87-.26-2.82.3-5.65.07-8.43-.17-2.1.39-2.12,1.93-1.44.56.25,1-.34,1.68-.27,1.62.18,3.3-.15,4.91.07,2.18.29,4.32-.16,6.49,0,2.62.14,5.26,0,7.89-.05,3.37,0,6.73-.11,10.1-.1,1.49,0,3,.5,4.36.26a13.19,13.19,0,0,1,4.34-.11c2.21.35,4.35-.28,6.55-.22,1.84,0,3.68.67,5.66.08a6.54,6.54,0,0,1,4.15.22c.91.36,2.13-.09,3.2-.1,2.6,0,5.2,0,7.8.05.26,0,.62.21.76.1,1.55-1.2,3.28-.28,4.91-.46,2.6-.3,5.24-.16,7.83-.41a20.2,20.2,0,0,1,3.7-.54c.54,0,.56-.43.8-.65a3.65,3.65,0,0,1,2.56-1c.77,0,.8.51.6.75-1,1.14-.54,2.49-.23,3.52.46,1.52-.6,3,.23,4.45,0,0,0,.13,0,.16-1.31,1.36-.25,3-.4,4.47-.26,2.5-.08,5.06-.58,7.56-8.44-4.13-23.8-3.53-31,5.11,0-.72-.73-1-.89-1.66.54-.24,1.49.22,1.63-.26.5-1.69,2-2.2,3.15-3.17,2.28-1.92,4.82-3.47,7.07-5.38.92-.78,2.13-1.83,1.51-3.51-.29-.79-.34-1.67-.56-2.49a6.76,6.76,0,0,0-.83-2.41c-.59-.76-1.52-2.27-2.41-1.49a66.7,66.7,0,0,1-6.21,5.07c-1.86,1.27-3.52,2.89-5.62,3.81a2,2,0,0,0-1.13,1.35c-.79,1.93-.25,4-.74,5.87-.45.38-1,.3-1.53.45-.3.09-.7.23-.58.63.64,2,1.26,4.06,2,6s1.82,4.07,2.56,6.17c.94,2.65,2.12,5.18,3.17,7.78.43,1.07,1.57,2.31,1.3,3.1-.43,1.28.34,1.61.82,2.27-.55,1,.06,1.57.64,2.19l0,.08,0,1.24c-1.84-1.15-4-.32-5.9-.88a.78.78,0,0,0-.9.17c-.25.31-.61,1.1-.54-.15,0-.54-.73-.76-.87-.29-.33,1.13-2.63,1-1.8,2.79,0,.06-.28.38-.44.39-1.45,0-1.21,1.29-1.39,2.1-.13.59.23,1.3,1,.6.5-.44.74-.44,1.08.15a1.09,1.09,0,0,0,1.41.39,1.48,1.48,0,0,1,1.91.15.57.57,0,0,0,.72.13c1-.66,2.24.47,3.15-.53.1.11.2.22.29.33.35.45,1.34.61,1.69.17s.38-.13.52.06.35.61.88.49c1.72-.39,3.7.22,5.08-1.42.3-.36.77-.3,1.2-.37,1.41-.23,1.8-1,1.13-2.27-.54-1-1.41-1.87-1.25-3.13.14-1.06-2.58-.85-1.07-2.47a2,2,0,0,0-.37-.31,1.59,1.59,0,0,1-.93-2.2c.23-.61-.2-.94-.51-1.26a3.71,3.71,0,0,1-.87-2,12.68,12.68,0,0,0-1-3.66c.92-.35.91,1.12,1.83.9,1.55-.37,3.11.16,4.73,0a8.32,8.32,0,0,1,3.73.12,27.4,27.4,0,0,0,5.66,0c2.14-.27,4.43.56,6.42-.88C195.67,177.29,195.89,177.59,195.9,177.91Zm-52.23.48c2.26-.2,4.5,0,6.78-.81,1.8-.62,3.63-.89,5.07-2.29a11.55,11.55,0,0,0,2.13-3.78c1-2.22.62-4.1.13-6.13a8.86,8.86,0,0,0-4.83-5.73c-.94-.51-1.94-1.42-2.86-1.36-1.5.1-2.68-.57-4-.86a9.75,9.75,0,0,0-3.48-.45c-3,.4-6,.65-8.93.95a10.57,10.57,0,0,0-4.24,1.34c-1.89,1.17-4.13,1.86-5.71,3.59a6.53,6.53,0,0,0-2,4.07,17.89,17.89,0,0,1,.13,2.37c-.5,2.23.54,3.87,1.93,5.28a18,18,0,0,0,2.18,1.82,10.53,10.53,0,0,0,7.29,2,27.69,27.69,0,0,1,5.2,0,2.11,2.11,0,0,1,2.1-.26A4.35,4.35,0,0,0,143.67,178.39ZM152.76,210c1.48-1.23,2.28.11,3.24.54s1.87.81,2.55.1a2.43,2.43,0,0,0,.36-2.74c-.88-1.27-.49-2.66-.85-4-.54-1.94-1-3.92-2.67-5.24-2.34-1.82-4.79-3.5-8-3.08-1.28.17-2.73-1.12-3.65-.11-1.29,1.41-3.07,1.05-4.38,1.23-2,.28.23,1-.58,1.22-1.06-.42-2.39.84-2.44,1.21a5.19,5.19,0,0,1-2.07,3.26c-1.27,1.05-.32,1.15.21,1.5.12.61-1.85.57-.35,1.47-.72.51-.78,1.17-.12,1.66a3.21,3.21,0,0,1,1.31,1.87c.32,1.17,1.18,0,1.79.28.43.18.57-.29.64-.82.16-1.28.39-2.82,1.52-3.42a5.51,5.51,0,0,0,1.77-1.37c2-2.48,7-2.67,9.33-.7.54.45,1.59,1.08,1.58,2C152,206.59,153.2,208,152.76,210Z" style="fill:#e86166;"/><path d="M302.29,72a61.16,61.16,0,0,1-6.82,6.66c-.36.32-.54.75-.93,1-.32,0-.72-.24-.72.36l0,0c-1.38,1.28-1.38,1.28-2.5-.58-.12-.2-.08-.58-.5-.47-2.47.64-3.9-.9-5.35-2.49a56,56,0,0,0-4-4c-1-.88-2.39-1.33-2.56-2.91,0-.07-.48-.21-.52-.15-.34.42-.57.87-.58-.15S277,68,276.44,67.45c-1-1-2.11-2-3.15-3.06s-.84-2.64-2.54-2.68c.4-1.49,2.53-2.26,1.37-4.13a35.41,35.41,0,0,1,3.88-4.2l4.2-4.28,9.55-9.28c-.72-.26-1.25-.28-1.4-.52-1.44-2.49-4.78-3.28-5.63-6.29a.73.73,0,0,0-.18-.26c-1.13-1.24-3.45-1.29-3.54-3.56,0,0-.08-.08-.13-.09-1.59-.13-1.91-1.79-3-2.47-1.3-.82-2-2.68-4-2.41-.14,0-.49-.38-.48-.56.08-1.24-.53-2.29-.84-3.41,1.62-1.32,2.42-3.61,4.81-4a.67.67,0,0,0,.43-.44c.39-2.35,2.72-3.07,4-4.72,2.16-2.85,5.66-4.56,7.55-7.58,1.22-1.94,3-1.94,4.51-2.81s1.89.12,2.54.71C296,2.8,297.24,4.73,298.91,6c1.51,1.19,2.5,2.86,4.18,3.87,1,.57,1.46,1.72,2.36,2.48,1.6,1.38,3,3,4.5,4.48a1.4,1.4,0,0,1,.39.69c.09.54.23,1,.88.94s.68-.52,1-.91A12.63,12.63,0,0,1,314.45,15c2.21-1.8,4-4,6.06-6s4.29-3.75,6-6.08A23.72,23.72,0,0,1,329.1.32c.2-.2.47-.46.68-.23.91,1,2.31.72,3.37,1.28.67.35,1.36.58,1.57,1.67.18.94,1.25,1.79,2,2.39,1.54,1.16,2.8,2.63,4.32,3.82,1,.75,2.39,1.76,2.37,3.44,0,.27.11.31.35.38,1.63.47,2.32,1.2,2.5,2.6,0,.39.28.66.6.63,1.27-.13,1.87.66,2.5,1.57A7.72,7.72,0,0,0,351,19.26c.74.6,1.36,1.27.5,2.15-.32.33,0,.6-.17.84-.39.73.47,2.16-1.66,2-1-.1-2.35,1.72-3.29,2.88a6.14,6.14,0,0,1-1,1.21c-.8.61-1.8,1.13-2,2.3-.22,0-.4,0-.35.33l0,0c-2.51.82-3.57,2-3.6,3.93l0,0c-.29-.14-.32.09-.39.27l-.33.33c-.62-.48-.81,0-1.2.41-1.13,1.25-2.19,2.74-3.62,3.49-1.28.67-.74.86-.16,1.4.87,1.36,2.34,2.08,3.43,3.24,3.35,3.56,6.94,6.89,10.31,10.43A18.44,18.44,0,0,0,350,56.9c.15.11.33.42.28.54-.8,1.82.84,2.77,1.56,4.22-1.22.15-1.44,1.19-2,2-1.54,2.24-3.77,3.86-5.38,6.09A6.44,6.44,0,0,1,342,72.1c-.52-.24-.78.15-1.08.45-.86.88-1.79,1.73-2.56,2.66-1,1.18-2.6,1.85-3,3.52h0c-1.3-.19-2.52.92-3.87.29a2.31,2.31,0,0,0-.42.61c-.86,1.64-1,1.68-2.09.43a2.25,2.25,0,0,0-.62-.48,13.51,13.51,0,0,1-3.76-3.46c-1.41-1.77-3.71-2.62-4.49-5.19-.48-1.57-2.66-2.6-4-4-1.62-1.65-3.59-3-4.83-5-.57.35-.57,1.07-1.08,1.55a41.56,41.56,0,0,0-3.83,3.57,42.66,42.66,0,0,1-3.62,3.46A1.33,1.33,0,0,0,302.29,72Zm43.26-44.52-.09-.11s-.1.06-.1.1.05.07.08.11Z" style="fill:#e86166;"/><path d="M99.46,251.65c1.4.77.31,2.05.58,3.08.6,2.32,1.61,4.49,2.22,6.8.18.67,1,1,1.48,1.51a28.5,28.5,0,0,0,5.18,4.55c2.86,1.78,5.57,3.79,9.16,4.42,1.71.3,3.7,0,5.4,1.11.42.26,1.69-.48,2.58-.2a28.23,28.23,0,0,0,3,.59c2.6.52,5.13,0,7.65-.14,1.71-.11,3.46-.85,5.21-1,1.44-.09,2.42-1.25,3.86-1.17a3.23,3.23,0,0,1,2.48,1.21c1.64,1.89,3.52,3.55,4.57,5.92,1.18,2.63,2.75,5,3.58,7.89.94,3.22.65,6.54,1.23,9.77.1.56-.79,1.33.43,1.6a.6.6,0,0,1,0,.3c-1.35,2.33-1.56,5.15-3.14,7.39-.37.52-.86,1-.53,1.89.21.58-.9.79-1.3,1.43a1.76,1.76,0,0,0-.13,2,6.12,6.12,0,0,1,.33.55c.2.55-.27,1.77.42,1.59.89-.23,2.27-.56,2.37-1.9a2.07,2.07,0,0,1,1.16-1.84c1.07-.66.79-2.08,1.37-3.12,1.2-2.18,2.73-4.43,2.45-7.12-.08-.78.6-1.69-.32-2.4-.29-.22.16-.43.24-.66a5.64,5.64,0,0,0,.16-2.83c-.3-1.6-.35-3.25-.53-4.87a6.56,6.56,0,0,0-.35-1.81c-.45-1.12-1.19-2.09-.95-3.51.2-1.16-1.25-1.77-1.69-2.94a16.48,16.48,0,0,0-1.5-3.44,28.69,28.69,0,0,0-5.88-6.85c1.28-.88,2.78-1.53,3.71-2.65a22.13,22.13,0,0,0,2.77-3.41c.68-1.26,2.14-2,2.5-3.55.11-.5.7-1,.64-1.59-.09-1,.77-1,1.32-1.4.74.1,1.49.18,2.23.32.29.06.75.19.8.39a4.25,4.25,0,0,0,2.51,2.36,24.19,24.19,0,0,1,5,3.86c1.76,1.6,3.45,3.29,5.35,4.76-.36,1.14-1.55,1.92-1.73,3a13.42,13.42,0,0,1-2.14,4.52,34.32,34.32,0,0,0-2.44,4.37c-1.37,3.51-4,6.34-5,10.07a8.82,8.82,0,0,1-1.62,3.32,2.1,2.1,0,0,0,.42,3.07,1.29,1.29,0,0,1,.51.92c0,2,1.49,3.06,2.72,4.28.13.56.14,1.1,1,1.28,1.1.24,1.23,2,2.64,1.87,0,1.88,2.2,1.68,2.61,1.62a6.52,6.52,0,0,1,3.76.5c1.16.51,2.56-.66,3.63.5,1.12-1.43,2.55.35,3.66-.33a3.36,3.36,0,0,1,3.17-.18c1.42.72,2.93-1.17,4.12.4,1-.82,2.14-.36,3.23-.17a23.93,23.93,0,0,1-1.34,7,2,2,0,0,1-2.17,1.27c-5.52,0-11,0-16.55,0q-17.2,0-34.4.08c-8.54,0-17.08-.05-25.63-.05-6.06,0-12.11.08-18.17.07-3.49,0-7-.1-10.48-.13-.48,0-1.22-.07-1.4.2-1.07,1.6-1.87.52-2.74-.16a3.08,3.08,0,0,1,.75-3.13c1.8-2.3,3.55-4.57,3.86-7.7a6.18,6.18,0,0,1,1-3.13,6.54,6.54,0,0,0,1.24-3.87c.18-1.71.64-3.38,1-5a34.27,34.27,0,0,0,.18-8.9,40.39,40.39,0,0,1,.51-8.69,41.29,41.29,0,0,0,.11-7.26c-.05-3-.93-5.85-.89-8.82.84-1-.11-2,.16-3,.75-2.77,2.93-4.12,5.17-5.42.37-.21.69-.49,1.06-.67.56-.27,1.34-1.22,1.46.41A1.28,1.28,0,0,0,99.46,251.65Z" style="fill:#f2bd1f;"/><path d="M404.82,82.33c0,.36.14.86.59.58s.63,0,.72.36c.39,1.66,1.66,2.35,3.05,3.07.5.26.66,1.23.89,1.91s.25,1.5,1.27,1.89a2.77,2.77,0,0,1,2.09,2.71c0,.73.87,1.43,1.78,1.61a1.88,1.88,0,0,1,1.74,2.3c0,.14,0,.37,0,.42,2.5,1.66,3.57,4.22,4.36,6.94.11.37.55.83,0,1.31s-1.22,1.21.4,1c.42-.07.46.51.59.84.68,1.7,1.33,3.41,2,5.11.16.39.33,1,.63,1.09,1.58.63,1.36,2.53,2.52,3.53a8.17,8.17,0,0,1,.6,2.52,43.7,43.7,0,0,0,1.65,6.72c0,.08.17.12.26.18-1.64.77-.44,1.45.06,2.16.05.08,0,.3,0,.31,1,.19,1.07,1.28,1.55,1.91l-1.18.18c.2.62.72.09,1,.34-1,.64-.11,1.24.07,1.86.29,1,1.08,1.91.92,3.08,0,.21-.12.53,0,.62,1.88,1.62.5,4.42,2.23,6.1.23.22,0,.61-.1.93-.17.68-.34,1.36.45,1.86a1.06,1.06,0,0,1,.39,1,21,21,0,0,0,1,6c.09.3.78.52-.07.79-.29.09-.25.82-.14.82,1.51-.07.75,1.59,1.63,2.09.53.3-.16.76-.52.78-1.26.09-1.06.58-.43,1.27a2.07,2.07,0,0,1,.41,1.53,3.33,3.33,0,0,0,.58,2.31c.17.22.39.47.16.85-.36.57-.75,1.07.42,1.39.48.13.34,1.18,0,1.84-.09.2-.16.54.21.67h0c.32.27-1.17,1.69.68,1,.4-.14,1.09.22.43.82-.35.32-.16.43,0,.59,1.16,1,.27,2.39.66,3.54s-1.09.4-1.11,1.21,1.35,0,1,.91c-.23.63-.38,1.06.35,1.41.11.05.32.27.11.63-.52.88.18,1,.85,1-.12.47-1-.07-.76.67.38,1.1-.73,2.36.11,3.51-.23.1-1.24-.18-.95,1,.12.47-.2,1.24.51,1.32s.14-1,.76-1.18c.29.92.29.92-.68,1.71,1.47.15,1.56,1.09,1.26,2.16-.17.62-.52,1.27-.1,1.84,1.21,1.65.4,3.27-.08,4.83a4.57,4.57,0,0,1-.5,1.53c-.12.16.2.4.14.35-1-.85-1.53.35-2.28.49-3.07-.19-6.1.4-9.16.51-1.36.05-2.77.48-4-.53-.15-.13-.44-.43-.58.09-.28,1.07-1,.77-1.54.35a17.08,17.08,0,0,0-3.78-2.56c.49-.44,1.09-.09,1.58-.7-1.08.1-1.84-.58-2.73-.63-1.11-.06-2-.83-1.55-1.82.33-.83-.61-2,.68-2.52a4.86,4.86,0,0,0-.35-.49,1.51,1.51,0,0,1-.35-1.34c.32-1.69-.77-3.32-.16-5,.31-.86-1-1.26-.82-2,.33-1.71-.44-3.23-.67-4.83-.16-1.11-.36-1.93,1.66-1.85-2.1-.65-2.14-.66-1.8-2.37.15-.74.44-1.37-.62-1.74-.64-.22-.65-.88-.44-1.52a5,5,0,0,0-.38-3.25c-.49-1.47-1.49-2.71-1.66-4.35-.07-.64.67-.7.39-.81-1.19-.47-.32-2.08-1.47-2.5,1.08-1.71-1.89-3.09-.41-4.86.07-.08-.19-.63-.35-.66-1.32-.26-1.15-1.85-1.08-2.17.24-1.12-1.23-2.36.21-3.33,0,0-.08-.33-.17-.37-1.43-.59-1.24-2.09-1.32-3.09-.17-2.13.18-4.3-1.44-6.08-.18-.2-.11-.62-.19-.93a17.84,17.84,0,0,0-2.26-5.78c.08-.69,1.15-.94.88-1.81-.76-.09-.46.67-.86.84-.41-.21-.3-1.13-1.09-.84a.32.32,0,0,0-.24-.18l0-.07-.07,0-.16-.33-.19-.68a2.21,2.21,0,0,0-.72-1.38c-.83-.88-1.77-1.81-1.52-3.17a1.3,1.3,0,0,0-.42-1.36,13.7,13.7,0,0,1-2.64-4c-1.31-3.76-4.12-6.44-6.36-9.48-1-1.38-1.45-3.11-2.9-4.35-1-.84-1.39-2.49-2.77-3.27-.55-.31-1.25-.8-.35-1.64.71-.66-.41-1-.49-.92-.88.33-1.19-.5-1.77-.73-1.15-.45-1.3-1.89-2.43-2.23-1.4-.42-2.57-1-2.83-2.66a.35.35,0,0,0-.47-.31c-1.83.44-2.79-1.07-3.83-2a16.77,16.77,0,0,0-1.75-1.79A16.54,16.54,0,0,1,365.62,82c-.12-.18-.29-.44-.44-.45a3,3,0,0,1-2.59-1.42c-.76-1.13-2.53-.83-3.33-2,.34-.13.49-.35.29-.7a.43.43,0,0,0-.2-.14c-.24.26-.11.56-.07.86-2.15-.65-3.89-1.77-4.62-4-.28-2.61,1.34-4.36,2.85-6.14a3.19,3.19,0,0,0,.69-3.32c-.65-1.82-1.51-3.57-2-5.42-.36-1.34-1.43-2.09-2.08-3.17-.28-.46-.67-.77-.53-1.37,0-.19,0-.17-.66-.42-.18-.07-.3-.38-.38-.6a.56.56,0,0,1,.55-.79c1.23.26,1.76-.44,2.41-1.29.52-.68,3.31-.16,3.82.78.7,1.29,2.08,1.64,2.9,2.48,1.38,1.41,3.72,1.32,4.44,3.36.23-.13.34-.16.39-.23.34-.49,0-1.39.74-1.56.93-.22.69,1.16,1.48,1.31.08,0,.11.57.12.57,1.49-.22,2,.51,2,1.9,0,.25.42.08.62-.14s.52-.48.64-.14c.58,1.67,2.79,0,3.36,1.66.07.22.48,0,.72-.12a5,5,0,0,1,.77-.2c.31,1.75,2.34.81,3.05,1.95.29.45.17,1.41,1.31.76.63-.36.54,1.72,1.82,1,.27-.16.42.42.52.67a1,1,0,0,0,1.17.74.93.93,0,0,1,1.14.8c.17,1.62.78.63,1.45,0-.6,1.58.28,1.62,1.25,1.56.34,0,.84-.58.91.28l0,0c-1,.15-.34.78-.14.93A12.17,12.17,0,0,0,393,72c.51.2.8,1,1.22,1.44.64.75,1.33,1.1,2.14-.16.12,1.17-.31,2.64,1.54,2.07.08,1,1.28,1.06,1.59,1.88-.56.49-.3,1.21-.32,1.77s.48.36.73,0l.84-.14c.25,1.09.72,1.16,1.39.3l.43.7c-.16.3-.42.62.17.74,1-.25,1.52.24,1.33,1.11-.23,1.06.63.37.83.66ZM376,61.73a2.93,2.93,0,0,0-.38.61c-.05.18,0,.48.28.35.14-.06.23-.31.28-.49S376.1,62,376,61.73Zm-6.36-2.27c.12-.15.28-.27.27-.37a.43.43,0,0,0-.28-.29c-.24-.06-.38.11-.34.34S369.49,59.32,369.64,59.46Z" style="fill:#f2bd1f;"/><path d="M195.58,307.6c-1.09-.19-2.19-.65-3.23.17-1.19-1.57-2.7.32-4.12-.4a3.36,3.36,0,0,0-3.17.18c-1.12.68-2.55-1.1-3.66.33-1.07-1.16-2.47,0-3.63-.5a6.52,6.52,0,0,0-3.76-.5c-.41.06-2.61.27-2.61-1.62-1.42.11-1.55-1.63-2.64-1.87-.81-.18-.83-.72-1-1.28.41-.7-.78-1.49.18-2.22,1.28-1,1.61-2.66,1.89-4,.43-2,1.63-3.51,2.5-5.14,1.22-2.3,2.42-4.65,3.64-7,.43-.81,1.44-1.18,1.51-2.08a9.49,9.49,0,0,1,1.69-4.08c1.27-2.07,2.15-4.39,3.66-6.31a7.69,7.69,0,0,0,1-1.45c1.18-2.48,2.83-4.7,4.1-7.15,1-2,1.81-4.21,3.34-6,1-1.2,1.4-2.79,2.16-4.15,1.12-2,2.46-3.84,3.72-5.74a26.58,26.58,0,0,0,2-4c.39-.89,1.4-.82,1.56-1.66.24-1.26.54-2.47,2-2.92.31-.1.17-.29,0-.46-.53-.57.09-.83.23-1.27.56-1.78,2.52-1.4,3.39-2.4,1.16-1.33,2.6-1.49,4.09-1.69.58-.08,1.14-.63,1.88.11.44.44.41-1.1,1.41-1.06a7.19,7.19,0,0,0,2.29-.13A18.21,18.21,0,0,1,222,231c.46,0,1,.24,1.37-.22s.87-.46,1.51-.15c1.27.62,2.69-.13,4,.16a4.11,4.11,0,0,0,2.86-.42c.42-.21.72-.26,1,0,.75.74,1.74.44,2.57.7,1.45.46,2.65-.53,4.2-.26a51.93,51.93,0,0,0,7.19.44c2.44.07,4.72.14,6.83,1.44l0,0,.33.66a.69.69,0,0,0-.1.08s0,.05,0,.08l.08-.18.69.18a7.78,7.78,0,0,1,2.15,4.77c.23,1.94.82,4.68-.78,6-1.12.92-.35,2.18-1.53,2.92-.81.51-1.16,2-1.63,3a57.89,57.89,0,0,1-3.3,6,80.86,80.86,0,0,0-4,7.22c-1.35.06-2.44.31-2.82,1.95a10.09,10.09,0,0,1-2,3.4,1.55,1.55,0,0,1-1,.51c-2.88.71-5.83.07-8.8.69a11.47,11.47,0,0,1-7.41-1.2,3,3,0,0,0-3.56.68c-1,1-.68,2,.67,2.43.57.18,1.52-.14,1.61,1,0,.23.63.48.74-.19,0-.24,0-.7.38-.32s.94.55,1.07,1.14c.07.3,0,.47-.3.59a5,5,0,0,1-3.61,0,3.28,3.28,0,0,0-4.19.88c-.53.67-.64,1.87.12,1.86,1.4,0,2.24,1.23,3.53,1.12,1-.08.92.52.74,1.13-.37,1.25-1.7,1.72-3.69,1.36-1.07-.19-3.37,1.48-3.42,2.53,0,.39.11.52.6.69,1.75.6,3.75.62,5.14,2.1a1.3,1.3,0,0,1,.49,1.15c-.12.6-.65.5-1,.48a4.49,4.49,0,0,1-1.43,0c-2.44-.85-3.71-.28-4.83,1.9-.39.75-.24.88.52,1,1,.19,2.15.07,3,.33a16.73,16.73,0,0,0,4.79.56c3,0,5.93.1,8.89.15-1.08.63-1.35,1.87-2.07,2.78-2.51,3.16-4.35,6.78-6.73,10-.61.83-1.2,2-2.69,1.5-.48-.15-.74.58-1.16.79-.7.35-1.33,1.34-2.25.34a.47.47,0,0,0-.71,0,5.34,5.34,0,0,1-6.08.7,2.4,2.4,0,0,0-1.09-.2,51.26,51.26,0,0,1-9,0A8,8,0,0,0,195.58,307.6Zm28.09-65.25c-.6-1.87-.72-4.15-3.58-5.15a12.35,12.35,0,0,0-4.61-.56c-2.83,0-5.56,2.41-5.52,5.24a14.93,14.93,0,0,0,.26,3.82c.75,2.82,4.48,5.19,7.06,4a18.73,18.73,0,0,0,3.12-1.4A6.6,6.6,0,0,0,223.67,242.35Z" style="fill:#55b8ca;"/><path d="M364.33,124.46c.78,1,1.39,2.23,2.4,2.83.81.49,1,1.51,2.12,1.74.8.17,1,2.77.2,3.4,1.37.06,2.71.12,2.41,2,0,.2.14.34.28.25,1-.72,1.16.22,1.4.79.4.93-.6,1.1-1,1.61a6.19,6.19,0,0,1,3.91,3c.52,1,.74,2.14,1.68,2.85a.74.74,0,0,1,.3.85c-.35.83-.27,1.32.73,1.5.5.09.63.57.51,1-.22.83.07,1.47,1.1,2-1.71,0-1.32,1.16-1.66,2.25.89-.29.49-.9.72-1.11,2.17.47,2.42,2.14,2.43,3.84,0,1.26,1.34,1.05,1.83,1.93.62,1.1,0,1.17-.56,1.57.43.22,1-.06,1.35.33s1.85.12.55,1.34c-.35.33.1,1.47.85,2,.28.2,1.42.64,0,1-.41.1-.19.48-.09.66.41.73.26,1.87,1.46,2,.59.08.55.32.21.74-.92,1.15-.7,2,.63,2.81.12.08.32.25.3.32-.42,1.24,1.12,2.17.52,3.51a1.45,1.45,0,0,0,.71,1.77c1.1.56-.5,1.77-.05,2.14.71.59,1.45.73.74,1.91a2.88,2.88,0,0,0-.14,2.21c.5,1.34-.22,2.51-.18,3.77s1.1.28,1.58.84c-1.35.75-1,2-.37,2.82.84,1.23.15,1.83-.7,2.65,1,0,1.31.51.93,1.24-.3.58-.48,1-.08,1.61a.69.69,0,0,1,0,.62c-1.24,1.76.21,4-1,5.73-.33.47.28.37.35.66.34,1.41.38,1.4-1.23,1.86-.21.06-.42.1-.63.15-1.43-.27-2.81.3-4.25.25-5-.17-10,.18-15.07-.23-.18-.55,1.08-.81.28-1.13-1.31-.52.16-1.32-.34-1.85,1.64-1.11-.2-1.29-.51-1.9,1.83-.32.23-2.29,1.43-3,.23-.14-.4-.51-.7-.66a.52.52,0,0,1-.27-.78c.61-1.45-.88-2.79-.25-4.25,0,0-.42-.22-.64-.34.37-.43,1.41.34,1.44-.78.06-.07.18-.19.17-.21-.14-.19-.25-.12-.34.06-.69-.17-1.66-.19-.79-1.28.31-.38.23-.39-.17-.57a1.3,1.3,0,0,1-.7-1.3,11.62,11.62,0,0,0-.39-3c-.3-1,.47-2.39,0-2.73-1.7-1.32.06-1.89.35-2.76-1.55-.23-2-.91-1.81-2.65,0-.52.07-1.39-.9-1.06-.36.12-.36-.11-.31-.17.91-.9-1.34-2.31.52-3.09.29-.12-.23-.6-.3-.84-.27-1-1.55-1.67-.95-2.85.49-.95.3-1.43-.69-1.81a5.55,5.55,0,0,1-1.33-1.09c.49-.34,1,.21,1.17-.18s-.32-.63-.57-.93a9,9,0,0,1-1.31-2.6,1.41,1.41,0,0,1,.64-1.94c.28-.18.06-.38,0-.53s-.37-.23-.66-.06c-.8.47-1.31.29-1.42-.72-.24-2.07-1.69-3.54-2.67-5.25-.83-1.44-1.18-3.19-2.67-4.23-.15-.11.07-.13.09.09l.14-.09c.26-.19.37-.57.05-.61-1.28-.16-1.51-1.42-2.05-2.15-1.49-2-3.9-3.38-4.29-6.14-.73.35-1.22,1.37-1.87-.27a4.5,4.5,0,0,0-2.55-2.34c-.81-.25-2.28-.69-1.69-2.3.08-.21-.09-.28-.27-.25-1.58.21-2.4-1.1-3.57-1.71s-.81-1.15-.35-1.7c-1.42-1-3.52-.3-4.45-2.21-.1-.2-.37-.42-.5-.23-.71,1-.84-.4-1.32-.3,0-.64-.81-.65-.86-.77-.65-1.63-2.16-1.41-3.41-1.76-.25-.07-.36-.55-.61-.7-.7-.44-1.11-1.22-2.29-1.09a3.9,3.9,0,0,1-3-.82,8.45,8.45,0,0,0-4.46-1.89c-1-.14-1.92-.65-3-.74-.45,0-1.51,0-1.8-.44-.64-.88-.8-1.64-2.19-.65-.72.51-2.46.2-3.39-.35s-2.28,1.54-2.6-.63c0-.14-.38,0-.57,0-1.12.09-2.45.73-2.87-1.13-.12-.56-.83-.6-1.24-.44-2.17.82-4.44.64-6.69.83-.31-.42.64-1-.13-1.36-.73.09-.51,1.08-1.23,1.2a6.15,6.15,0,0,1,0-1.25q1.91-8.77,3.85-17.54c1.63-2.06,3.74-.95,5.53-.55a17.76,17.76,0,0,0,3.86.17c.3.53-.32,1-.23,1.46.44.32.58-.06.76-.3a2,2,0,0,1,1.8-.83c2.34.23,4.75,0,7,.84.68.26.52,1.71,1.78,1.27.23-.08.46.17.75-.21.74-1,1.54-.81,1.78.36s.74.82,1.23.47.84-.19,1.2-.41c.64-.39,1-.39.95.51,0,.69.81,1.07,1.06.76.94-1.14,1.5-.22,2.07.26a5.35,5.35,0,0,0,2.53.82c1.92.39,3.43,1.73,5.26,2s3.27,2.12,5.33,2c.31,0,.45.24.53.51a1.7,1.7,0,0,0,1.94,1.29c.91-.06,1,1,1.82,1.25a31.32,31.32,0,0,1,4.87,2.09,7.48,7.48,0,0,1,2.58,2.61c.29.5,0,.7-.44.73a1.15,1.15,0,0,0-.93.67c.91.12,1.71.4,2.22-.53.32-.59.75-.41,1-.06.94,1.17,2.81,1.74,3.27,2.76.79,1.73,2.55,2,3.43,3.43a8.31,8.31,0,0,0,4.19,2.46c.46.1.36.48.46.74a6.4,6.4,0,0,0,1.19,2.18c-.12-.06-.3-.2-.33-.17S364.16,124.31,364.33,124.46Zm4.34,7.71c.38-.46.09-.77-.15-1.15A.75.75,0,0,0,368.67,132.17Zm8.22,11.2c-.14-.17-.08-.46-.38-.4a.42.42,0,0,0-.27.28c0,.19,0,.43.28.38C376.64,143.59,376.74,143.47,376.89,143.37Zm10.2,21.36.37-.22c-.12-.07-.25-.19-.37-.19s-.25.11-.38.17Zm-16.26-31.24a1.3,1.3,0,0,0-.25-.09s-.06.07-.1.1.12.15.18.15S370.77,133.55,370.83,133.49Z" style="fill:#f2bd1f;"/><path d="M359.26,78.12c.8,1.21,2.57.91,3.33,2a3,3,0,0,0,2.59,1.42c.16,0,.32.28.44.45a16.54,16.54,0,0,0,5.75,4.78,16.77,16.77,0,0,1,1.75,1.79c1,.93,2,2.44,3.83,2a.35.35,0,0,1,.47.31c.26,1.62,1.44,2.24,2.83,2.66,1.14.34,1.29,1.78,2.43,2.23.58.23.89,1.07,1.77.73.08,0,1.2.26.49.92-.9.84-.2,1.32.35,1.64,1.37.78,1.78,2.43,2.77,3.27,1.45,1.24,1.88,3,2.9,4.35,2.24,3,5,5.73,6.36,9.48a13.7,13.7,0,0,0,2.64,4,1.3,1.3,0,0,1,.42,1.36c-.25,1.36.69,2.29,1.52,3.17a2.2,2.2,0,0,1,.72,1.38c-.08.27-.15.53.19.68l.15.33.06.05a.32.32,0,0,1,.24.18,1.33,1.33,0,0,0,1.07,1.8,17.84,17.84,0,0,1,2.26,5.78c.08.31,0,.73.19.93,1.62,1.78,1.27,3.95,1.44,6.08.08,1-.11,2.49,1.32,3.09.1,0,.19.36.17.37-1.43,1,0,2.21-.21,3.33-.07.32-.24,1.92,1.08,2.17.16,0,.42.58.35.66-1.49,1.77,1.49,3.15.41,4.86,1.15.42.28,2,1.47,2.5.28.11-.46.17-.39.81.18,1.64,1.18,2.88,1.66,4.35a5,5,0,0,1,.38,3.25c-.21.65-.19,1.3.44,1.52,1.06.37.76,1,.62,1.74-.33,1.71-.3,1.72,1.8,2.37-2-.09-1.82.74-1.66,1.85.23,1.6,1,3.12.67,4.83-.14.71,1.13,1.11.82,2-.6,1.71.48,3.33.16,5a1.51,1.51,0,0,0,.35,1.34,4.86,4.86,0,0,1,.35.49c-1.29.53-.35,1.69-.68,2.52-.4,1,.45,1.76,1.55,1.82.89,0,1.64.73,2.73.63-.49.61-1.09.26-1.58.7a17.08,17.08,0,0,1,3.78,2.56c.56.42,1.26.71,1.54-.35.14-.52.42-.22.58-.09,1.23,1,2.63.59,4,.53,3.06-.12,6.09-.7,9.16-.51-.85,1-1.61,2.16-3.22,2a1,1,0,0,0-.75.18c-1.27,1.67-3.39,1.92-5,3a14,14,0,0,1-8.85,2,53.22,53.22,0,0,0-9,.58,6.35,6.35,0,0,1-4.68-1.34c-.77-.58.18-.54.34-.84-.87.47-2-1.57-2.55.54a20.14,20.14,0,0,0-1.06-2.06l.66-.59c-.1-.07-.2-.18-.31-.19-.43,0-.47.28-.51.6-.4-.74-1.47-.3-1.87-1.09-.29-.57.69-1.75-.82-1.62,0-.88,1.91.63,1.06-1-.41-.79.48-1,.45-1.79-.11-2.38-.64-4.72-.93-7.06a40,40,0,0,0-1-6.69,43,43,0,0,1-.84-4.75c-.44-2.55.15-5.27-1.84-7.58-.59-.68-.34-2.38-.75-3.51-.57-1.56-.75-3.21-1.23-4.78s-1.14-3.38-1.56-5.11,0-3.77-1.15-5.43c-.08-.12-.2-.33-.15-.43.74-1.57-.33-3.06-.2-4.59.1-1.13-.85-1.82-1.17-2.78-.6-1.77-1.51-3.43-1.56-5.4,0-.78-1.44-.71-1.72-1.65a20.43,20.43,0,0,0-3-5.7c-.48-.7.18-2-.76-2.73-1.11-.81-.83-2.57-2.23-3.13-.87-.35-.23-1.18-.63-1.77a50.72,50.72,0,0,0-4-5.54c-1.2-1.34-1.61-3.36-3.49-4.16.22-1.95-2-2.68-2.2-4.46-.08-.74-1.1-.79-1.51-1.37-.54-.76-1.6-1.16-1.55-2.33,0-.13-.16-.38-.22-.37-1.1.18-1.19-.86-1.76-1.33a60.69,60.69,0,0,0-6.3-4.59c-2.46-1.56-4-4.16-6.75-5.43a8.57,8.57,0,0,1-3.19-2.31A3.94,3.94,0,0,0,348.14,88c-.15,0-.41-.05-.41-.37,0-.84-.42-1.31-1.34-1.55-2.51-.67-2.72-1.07-1.64-3.25.16-.33.24-.58-.15-.8-1.44-.81-.54-1.74.19-2,2-.84,3.35-2.77,5.45-3.46a3.38,3.38,0,0,0,2.18-1.86,1.5,1.5,0,0,1,2.25-.55c.72,2.28,2.46,3.4,4.62,4.05Z" style="fill:#55b8ca;"/><path d="M295.8,95.38q-1.93,8.77-3.85,17.54a6.15,6.15,0,0,0,0,1.25c.72-.13.5-1.11,1.23-1.2.78.35-.18.94.13,1.36,2.24-.19,4.52,0,6.69-.83.41-.16,1.12-.11,1.24.44.41,1.85,1.74,1.22,2.87,1.13.2,0,.55-.17.57,0,.31,2.17,1.71.11,2.6.63s2.67.86,3.39.35c1.4-1,1.56-.23,2.19.65.29.4,1.35.4,1.8.44,1.09.08,2,.59,3,.74a8.45,8.45,0,0,1,4.46,1.89,3.9,3.9,0,0,0,3,.82c1.18-.13,1.58.65,2.29,1.09.25.16.36.63.61.7,1.25.35,2.76.12,3.41,1.76,0,.13.87.13.86.77.48-.11.61,1.27,1.32.3.13-.19.4,0,.5.23.93,1.91,3,1.23,4.45,2.21-.46.55-.87,1.06.35,1.7s2,1.92,3.57,1.71c.18,0,.35,0,.27.25-.59,1.6.88,2,1.69,2.3a4.5,4.5,0,0,1,2.55,2.34c.65,1.64,1.14.62,1.87.27.39,2.76,2.8,4.14,4.29,6.14.54.73.77,2,2.05,2.15.31,0,.21.42-.05.61l-.14.09c0-.22-.24-.19-.09-.09,1.49,1,1.84,2.79,2.67,4.23,1,1.7,2.43,3.18,2.67,5.25.12,1,.62,1.19,1.42.72.28-.17.48-.22.66.06s.33.35,0,.53a1.41,1.41,0,0,0-.64,1.94,9,9,0,0,0,1.31,2.6c.25.31.77.49.57.93s-.68-.16-1.17.18a5.55,5.55,0,0,0,1.33,1.09c1,.38,1.18.86.69,1.81-.6,1.18.68,1.87.95,2.85.07.24.58.72.3.84-1.86.78.38,2.19-.52,3.09-.06.06-.06.29.31.17,1-.33.94.54.9,1.06-.16,1.74.26,2.42,1.81,2.65-.29.87-2.05,1.44-.35,2.76.44.34-.32,1.74,0,2.73a11.62,11.62,0,0,1,.39,3,1.3,1.3,0,0,0,.7,1.3c.4.18.48.18.17.57-.88,1.09.1,1.11.79,1.28l.17.16c0,1.12-1.08.34-1.44.78.21.11.64.32.64.34-.63,1.47.86,2.81.25,4.25a.52.52,0,0,0,.27.78c.3.16.94.52.7.66-1.2.72.41,2.69-1.43,3,.31.6,2.15.78.51,1.9.5.53-1,1.33.34,1.85.81.32-.46.58-.28,1.13,5,.41,10.05.06,15.07.23,1.44,0,2.82-.53,4.25-.25a33.52,33.52,0,0,1-4.32,2.78,10.11,10.11,0,0,1-2.26.76c-1.51.29-2.64,1.45-4.13,1.75-.56.12-.52.72-.89,1-1.48,1.32-3.13.68-4.64.71-5.69.12-11.38.06-17.07,0-.38,0-1.06.39-1.15-.45s.45-.91,1.1-.93c-1.48-1.53-1.58-2.5-.36-3.27-.33-.37-1-.55-.78-1.23.14-.47.54-.06,1-.26-1.15-.55-1.32-1.24-.44-2.13.28-.29-.4-2-.25-2.18,1.22-1.82-2.5-2.89-.67-4.76.15-.15.34-.73-.34-1.23s-.7-2-.16-2.82.25-1-.4-.85-.72-.17-.92-.53c.69-.07-.61-1.11.55-1.07.42,0,.73-2.38.29-2.66-.62-.4-.56-.76-.35-1.34a1.31,1.31,0,0,0-.12-1.25,3.44,3.44,0,0,1-.79-3.49c-.75-.08-.63.34-.67.62-.11.77-.75.24-.81.18-.5-.53.23-.17.3-.37a4,4,0,0,0-.16-2.67,3,3,0,0,1-.21-2.09c.59-1.14-.89-1.48-.7-2.09.3-.95,0-1.27-.7-1.79s-.45-2.16-1.77-2.48c0-.05,0-.13,0-.15,2.07-1.53-.82-2.25-.55-3.33.33-1.29-1.46-1.87-.79-3.12-.72.08-.37-.75-.38-.81-.53-2.14-2.54-3.41-3.2-5.55-.22-.71-.56-2.14-1.75-2.57a.48.48,0,0,1-.28-.31c-.07-.89-1.89-3.67-2.79-3.75a.8.8,0,0,1-.82-.69,2,2,0,0,0-1.29-1.58c-.73-.37-.75-1-.51-1.76-.4.27-.78-.17-1.1-.21-1.3-.17-1.45-2.53-3.18-1.5-.29-.84,1.1-.46.63-1-.21-.23-.44-.93-1.32-.77s-1.15-1.19-1.91-1.69c-.58-.38-.71-1.48-1.78-.94-.12-.84-.92-.94-1.42-1.39-1.26-1.12-2-2.76-4.07-3-1-.1-1.8-1.12-3-.9a1.11,1.11,0,0,1-.95-.93c-.17-1.79-1.33-2.26-2.92-2-.6.08-1-.15-1-.75,0-.91-.32-1.27-1.07-.8-.59.37-.9.44-1.11-.25-.14-.44-.68-.73-.81-.66-1.2.66-1.88-1.27-3.08-.56-.28.16-.11-.32-.16-.37-.53-.46-.87-1.32-1.87-.77-.49.27-.59-.18-.53-.6.13-.11.19-.22,0-.35l-.18.19c-1.48.38-2.64-1-4.1-.82-.13,0-.42-.34-.69,0-.55.65-.6.18-.87-.28-.66-1.13-1.85-.45-2.75-.54-1.4-.14-3-1.09-4.32.22-.08.08-.4.1-.43,0-1.07-1.88-3.29-.71-4.66-1.78s-3.12.29-4.58-.09a11.85,11.85,0,0,0-3.76.06c-1,0-1.48-.28-1-1.31.72-1.58.68-3.33,1.1-5,.74-2.93,1.25-5.92,2-8.86a4.71,4.71,0,0,0,.09-2,5.53,5.53,0,0,1,1.36-4.49c.68-.86,1.21-.6,2,.35-.5-1.91,1-1.68,1.75-2.06.52-.27.64.57.37,1.44,2.1-2.22,4.49-3,6.89-3.75.35-.11,1-.12,1-.31C294.1,93.17,295,95,295.8,95.38Zm5.09,19.23a5.65,5.65,0,0,0-.62-.54c-.29-.19-.2.13-.21.21,0,.29.08.51.42.5A1.54,1.54,0,0,0,300.89,114.6Z" style="fill:#55b8ca;"/><path d="M289.1,137.42c1.12,1,2.65.57,3.93,1.06.47.18,1.32-.55,1.31.68,0,.15.5.18.72,0,1.5-1.17,3.15-.3,4.72-.27.63,0,1.17-.36,1.63-.26,1,.22,1.66,1.4,2.87.76.45,1.72,1.82.37,2.68.8a6.33,6.33,0,0,1,1.66,1c1,1.27,2.29.75,3.45,1a2.81,2.81,0,0,1,1.7,2.12c1-1.33,2-.23,2.93,0a10,10,0,0,1,4.13,2,1.32,1.32,0,0,0,.9.26c.66-.09.94.11,1.07.78.33,1.68,2.24,1.15,3.14,2.12.25.27.67.16.28.68s.2.61.46.55c1.55-.4,1.71.85,1.92,1.75.13.55.19.87.76,1,1.37.32,1.86,1.9,3.32,2.32a1.69,1.69,0,0,0-.2,2.58c.39.52.46.68,1.05.19.77-.64,1.2,0,1.53.7s.37,1.1-.65.86c-.41-.1-.2.38-.21.6a1.17,1.17,0,0,0,.8,1.09c.35.18,1.06,0,1-.08-.24-.86.15-1.26.84-.92.43.21.63,1,.83,1.52s0,1.41,1.06,1.36c.18,0,.56.49.53.73-.21,1.91,1.19,3,2.14,4.32,0,.07.17.09.26.13a1.79,1.79,0,0,0-.44.2c-.38.32-.37.62.1.86s1.17.35.53,1.11c1.53.8.18,3,1.88,3.79.45.2.51.67.27,1.22a.92.92,0,0,0,.75,1.36c.21,0,.54.27.42.37-1.16.93.34,1.58.24,2.44-.14,1.25,1,2.21,1.12,3.5.1.83,1,1.5,0,2.44-.48.44.5.82.58,1.34-.16.05-.25.19-.11.29s.22,0,.24-.18c.24.08.72-.06.69.23-.22,2.08.52,4.08.49,6.15,0,.71-1,1-.58,1.71-.19,0-.42-.1-.48.17,0,.06.16.23.25.22.28,0,.26-.22.2-.42.76.44.33,1.18.32,1.73a18.48,18.48,0,0,1-.48,4.16c-.17.64-1.2,0-1.74.38-.59,0-1.18-.1-1.77-.1-4.17,0-8.34,0-12.51,0a1.47,1.47,0,0,1-1.63-1.39c0-.47.17-1.75,1.55-1.1-.26-.61-.71-.75-.85-1.34-.4-1.59.16-3.1,0-4.64-.08-1,.39-2.3-.41-3.08s-.43-.79.06-1.2.76-.58.72-1.15c-.43-.12-1.28.47-1.18-.48.17-1.46-.91-2.49-1.2-3.81a14.42,14.42,0,0,0-3.24-5.77,1.58,1.58,0,0,0-.52-.35,1.91,1.91,0,0,1-1.28-2.07c0-.27.28-.69-.43-.77-1-.11-1.36-.7-.65-1.62.14-.18.18-.52-.12-.4-1.16.46-.82-.73-1.23-1.08s-.55-1-1-1.22a4.31,4.31,0,0,1-1.92-1.76c1.3-2.09,1.3-2.09,1-3-1.74,1.79-1.78,1.79-2.64.21.26-.38.05-.71-.27-.73-1.07-.06-1.65-1.2-2.51-1.3s-.35-1.11-1.34-1.37c-1.26-.33-2.57.15-3.8-.53-.56-.31-.86-1.84-2-.74,0,0-.15-.12-.23-.17a13.39,13.39,0,0,0-4.11-1.7c-.29-.05-1.23.51-1.28-.73,0-.6-1,.52-1.63.1-.12-.08-.17-.26-.25-.39a.92.92,0,0,0,.63-1.09c-.52.35-.8.59-.63,1.1-.83.13-1.35-1.82-2.38-.36-.11-.11-.26-.19-.32-.32-.53-1.07-1.34-.8-2.2-.54-.32.1-.78.37-1-.09-.14-.28.07-.63.32-.85s.49-.28.14-.68c-.44.05-.89,0-1.11.69s-.76.88-1.39.25a2.5,2.5,0,0,1-.67-1.4c-.36.35.13,1.3-.82,1.13-.37-.07-1,0-1-.61s-.15-1.18-.73-.93c-.83.36.19.82.17,1.51-.72-.78-1.9.19-2.29-.65-.72-1.54-1.2-.31-1.64.06s-.21.68-.89.4-.29-.68-.23-1c.89-4.63,1.88-9.24,2.68-13.89C286.34,139,287.08,137.71,289.1,137.42Zm58.05,51.88s-.06-.09-.1-.1-.07.05-.11.08l.15.11Z" style="fill:#f2bd1f;"/><path d="M299.36,158.18c.08.13.14.31.25.39.6.42,1.6-.71,1.63-.1.05,1.24,1,.67,1.28.73a13.39,13.39,0,0,1,4.11,1.7c.09,0,.22.18.23.17,1.12-1.1,1.43.43,2,.74,1.22.68,2.53.2,3.8.53,1,.26.41,1.26,1.34,1.37s1.43,1.23,2.51,1.3c.33,0,.54.35.28.72-.53.09-.82.23-.27.76s1.27,1.35,1.9,2a4.31,4.31,0,0,0,1.92,1.76c.42.19.58.89,1,1.22s.07,1.54,1.23,1.08c.3-.12.26.23.12.4-.72.92-.34,1.51.65,1.62.72.08.46.5.43.77a1.91,1.91,0,0,0,1.28,2.07,1.58,1.58,0,0,1,.52.35,14.42,14.42,0,0,1,3.24,5.77c.29,1.33,1.37,2.36,1.2,3.81-.11.94.74.36,1.18.48,0,.58-.38.87-.72,1.15s-.72.56-.06,1.2.33,2,.41,3.08c.12,1.54-.44,3,0,4.64.15.59.59.73.85,1.34-1.39-.66-1.57.63-1.55,1.1a1.47,1.47,0,0,0,1.63,1.39c4.17,0,8.34,0,12.51,0,.59,0,1.18.07,1.77.1.59.9.29,1.24-.7,1.6a93.7,93.7,0,0,0-10.64,4.27,8.8,8.8,0,0,1-4.07.9c-4.75.13-9.51-.26-14.26.29-.38,0-.59-.08-.62-.52a23.52,23.52,0,0,1,.13-5.69,51.85,51.85,0,0,0,.35-5.2c0-.47-.42-.58-.61-.88s-.64-.42-.27-.77c1.14-1.12-.11-2.69-.35-2.78-1.76-.69-.61-2.05-.83-3-.07-.32,0-.77-.31-.89a1.31,1.31,0,0,1-.7-2c.25-.51-.21-.44-.29-.5-1.51-.94-2.36-2.5-3.51-3.76-.61-.68-.35-2-1.68-2.24.25-1.14-.77-.45-1.09-.78.7-.93.7-.93-.43-1.23a.6.6,0,0,1-.34-.21c-2.54-4-1.81-4.13-4.15-5.29-.12-.06-.33-.1-.35-.18-.27-1.48-.27-1.48-2-1.22-.06-.34.18-.44.41-.57s.34-.23.83-.58c-2.45-.28-4.14-1.73-6.4-2-1.05-.11-2.69-.33-3.48-1.72-.19-.33-.39-1.1-1.45-.65s-2.46-.66-3.76-.12c-.53-1.88-3.18-.71-3.74-2.59-.09-.31-.47,0-.71,0-1.6.37-3-.26-4.54-.59s-3.16-.91-4.76-.15c-.19.09-.4.29-.44,0-.15-1.13-.73-.62-1.11-.26a1.47,1.47,0,0,1-1.57.34c-.76-.31-.16-.95-.08-1.41.6-3.48,1.18-7,2.06-10.4.5-2,.79-4,1.4-5.91.54-1.69,1.76-2.18,3.1-2.53.57-.15,1.15.18,1-.8-.05-.33.36-.45.66-.6,2.19-1.13,4.54-1.9,6.69-3.18a8.05,8.05,0,0,1,4.67-1.49c.79.06.83.42,1.08.83-2,.29-2.76,1.59-3.1,3.5-.81,4.64-1.79,9.26-2.68,13.89-.06.31-.55.67.23,1s.6-.15.89-.4.92-1.6,1.64-.06c.39.84,1.57-.13,2.29.65,0-.69-1-1.15-.17-1.51.58-.25.7.39.73.93s.63.54,1,.61c.94.17.45-.78.82-1.13a2.5,2.5,0,0,0,.67,1.4c.63.64,1.15.51,1.39-.25s.67-.63,1.11-.69c.36.4.06.51-.14.68s-.46.57-.32.85c.23.46.69.19,1,.09.86-.26,1.68-.53,2.2.54.06.13.21.22.32.32,1-1.46,1.55.49,2.38.36Z" style="fill:#55b8ca;"/><path d="M90.45,259.36c0,3,.84,5.87.89,8.82a41.29,41.29,0,0,1-.11,7.26,40.39,40.39,0,0,0-.51,8.69,34.27,34.27,0,0,1-.18,8.9c-.32,1.63-.78,3.3-1,5a6.54,6.54,0,0,1-1.24,3.87,6.18,6.18,0,0,0-1,3.13c-.31,3.13-2.07,5.4-3.86,7.7a3.08,3.08,0,0,0-.75,3.13q-7.55-.08-15.08.44c-.75.05-1.73.39-1.74-1,0-.11-.32-.25-.51-.31-1.79-.62-2.62-2.61-2.66-4.74,0-1.07-.5-2.12,0-3.23,1-2.11.88-4.45,1.44-6.67,1.41-5.56,3.93-10.56,6.56-15.58A83.12,83.12,0,0,1,77,274.63c2.71-3.74,5.27-7.67,8.7-10.76C87.31,262.4,88.21,260.14,90.45,259.36Z" style="fill:#e86166;"/><path d="M253.48,232.73c-2.11-1.3-4.38-1.37-6.83-1.44a51.93,51.93,0,0,1-7.19-.44c-1.56-.27-2.76.72-4.2.26-.83-.26-1.82,0-2.57-.7-.28-.27-.57-.23-1,0a4.11,4.11,0,0,1-2.86.42c-1.29-.28-2.72.46-4-.16-.64-.31-1.06-.37-1.51.15s-.91.22-1.37.22a18.21,18.21,0,0,0-5.92.41,7.19,7.19,0,0,1-2.29.13c-1,0-1,1.5-1.41,1.06-.74-.75-1.3-.19-1.88-.11-1.49.2-2.93.36-4.09,1.69-.87,1-2.83.61-3.39,2.4-.14.44-.76.71-.23,1.27.15.17.3.36,0,.46-1.44.45-1.74,1.66-2,2.92-.16.84-1.17.77-1.56,1.66a26.58,26.58,0,0,1-2,4c-1.26,1.9-2.6,3.74-3.72,5.74-.77,1.36-1.12,3-2.16,4.15-1.53,1.77-2.29,4-3.34,6-1.27,2.45-2.92,4.67-4.1,7.15a7.69,7.69,0,0,1-1,1.45c-1.51,1.93-2.39,4.24-3.66,6.31a9.49,9.49,0,0,0-1.69,4.08c-.07.9-1.08,1.27-1.51,2.08-1.22,2.31-2.42,4.66-3.64,7-.87,1.63-2.07,3.15-2.5,5.14-.28,1.31-.61,3-1.89,4-1,.73.23,1.51-.18,2.22-1.23-1.22-2.72-2.25-2.72-4.28a1.29,1.29,0,0,0-.51-.92,2.1,2.1,0,0,1-.42-3.07,8.82,8.82,0,0,0,1.62-3.32c1-3.72,3.59-6.56,5-10.07a34.32,34.32,0,0,1,2.44-4.37,13.42,13.42,0,0,0,2.14-4.52c.17-1,1.37-1.84,1.73-3,.84-1.21,1.35-2.6,2.21-3.81,3.11-4.39,5.15-9.41,8.15-13.88a11.89,11.89,0,0,0,1.79-3.2c.51-1.94,2-3.22,2.69-4.9.54-1.24,2-2,1.89-3.5,1-.56,1.1-1.74,1.69-2.59.79-1.13,1.63-2.3,2.35-3.48a35.41,35.41,0,0,1,1.82-3.52c.43-.55.63-1.56,1.77-1.07.17.07.58-.26.81-.48a7,7,0,0,1,6.39-1.89c.66.12.68-.9,1.5-1,2.75-.34,5.47-.94,8.28-.66.27,0,.6.16.8.05,2.15-1.14,4.34.29,6.49-.12.2,0,.47.11.63,0,2-1.05,4,.12,5.94.29a2,2,0,0,0,.76-.16c2.31-.53,4.59-.14,6.9,0a21.14,21.14,0,0,0,6.17,0c1.85.3,3.19,1.53,4.47,2.69C252.06,228.83,252.78,230.81,253.48,232.73Z" style="fill:#e86166;"/><path d="M229.65,291.36c-3-.05-5.93-.14-8.89-.15a16.73,16.73,0,0,1-4.79-.56c-.87-.26-2-.14-3-.33-.76-.14-.91-.27-.52-1,1.12-2.18,2.39-2.75,4.83-1.9a4.49,4.49,0,0,0,1.43,0c.4,0,.93.12,1-.48a1.3,1.3,0,0,0-.49-1.15c-1.39-1.48-3.39-1.5-5.14-2.1-.49-.17-.62-.3-.6-.69.06-1,2.35-2.72,3.42-2.53,2,.36,3.32-.11,3.69-1.36.18-.61.28-1.21-.74-1.13-1.29.1-2.14-1.14-3.53-1.12-.76,0-.64-1.19-.12-1.86a3.28,3.28,0,0,1,4.19-.88,5,5,0,0,0,3.61,0c.35-.12.37-.3.3-.59-.14-.59-.71-.77-1.07-1.14s-.35.07-.38.32c-.11.67-.73.42-.74.19-.08-1.14-1-.82-1.61-1-1.36-.43-1.7-1.41-.67-2.43a3,3,0,0,1,3.56-.68,11.47,11.47,0,0,0,7.41,1.2c3-.62,5.92,0,8.8-.69a1.55,1.55,0,0,0,1-.51,10.09,10.09,0,0,0,2-3.4c.38-1.63,1.47-1.89,2.82-1.95,1.35,2.09,1.21,4.29.55,6.56a48.36,48.36,0,0,1-3.08,8.59c-.6,1.17-1.73,2.21-2.11,3.31a14.91,14.91,0,0,1-3,4.56,10.38,10.38,0,0,1-4.19,3.39C232.28,290.35,230.77,290.4,229.65,291.36ZM227.35,270l-.11-.2s-.09.07-.09.1a.93.93,0,0,0,.09.2Z" style="fill:#e86166;"/><path d="M272.13,57.57c1.16,1.86-1,2.64-1.37,4.13,1.7,0,1.63,1.79,2.54,2.68s2.11,2,3.15,3.06c.56.55,1.41.94,1.42,1.87s.25.57.58.15c0-.06.52.08.52.15.17,1.59,1.58,2,2.56,2.91a56,56,0,0,1,4,4c1.45,1.6,2.88,3.13,5.35,2.49.42-.11.38.27.5.47,1.12,1.86,1.12,1.86,2.5.58.58.81.25,1.41-.47,1.87-2,1.27-3,3.68-5.37,4.5-.44,2.32-3.27,2.53-4,4.68-.27-.69-.88-1-1-1.73-.1-.51-1-.9-1.49-.79-1.6.33-2.49-.56-3.63-1.45-2.3-1.77-3.63-4.59-6.37-5.84-.55-.25-.05-.82-.48-1.15-2-1.58-3.62-3.66-5.69-5.24-.65-.5-2-1.4-1.84-2.8,0-.06-.26-.14-.39-.22-1.82-1.1-.6-2,.14-3,.19-.25.82-.38.46-.84-1.07-1.38.14-2,.88-2.77C267.06,62.67,269.6,60.12,272.13,57.57Z" style="fill:#163847;"/><path d="M302.29,72a1.33,1.33,0,0,1,.42-1.5,42.66,42.66,0,0,0,3.62-3.46,41.56,41.56,0,0,1,3.83-3.57c.51-.48.51-1.2,1.08-1.55,1.24,2,3.21,3.34,4.83,5,1.34,1.37,3.53,2.41,4,4,.79,2.57,3.09,3.42,4.49,5.19a13.51,13.51,0,0,0,3.76,3.46,2.25,2.25,0,0,1,.62.48c1.05,1.25,1.23,1.21,2.09-.43a2.31,2.31,0,0,1,.42-.61c1.35.62,2.56-.48,3.87-.29a4.46,4.46,0,0,1-2,3c-1.49.86-2.4,2.35-3.59,3.52a17.24,17.24,0,0,1-4.15,3.51c-.1.05-.27,0-.41-.07-2-.43-2.74.84-3.52,2.68-.8-2.28-3.3-2.66-4.19-4.79-.19-.46-1.43-1.15-2.14-1.79-1.06-1-2.17-1.87-3.17-2.88s-1.1-2.18-2-3.15c-.63-.66-1.72-.39-1.9-1.14-.27-1.18-1.63-1.28-2-2.45-.27-.89-1.68-1-2.37-1.85a3.4,3.4,0,0,1-.7-1.2C302.88,71.24,302.57,72,302.29,72Z" style="fill:#163847;"/><path d="M270.59,20.24c.31,1.13.92,2.18.84,3.41,0,.19.34.58.48.56,2-.28,2.69,1.58,4,2.41,1.07.68,1.39,2.34,3,2.47,0,0,.13.06.13.09.09,2.27,2.42,2.32,3.54,3.56a.73.73,0,0,1,.18.26c.85,3,4.19,3.8,5.63,6.29.14.24.67.26,1.4.52l-9.55,9.28A11.87,11.87,0,0,0,276.09,45c-1.19-.76-1.17-1.71-1.84-2.44a10.64,10.64,0,0,0-3.14-2.33,1.88,1.88,0,0,1-1.07-1c-.33-.73-.72-1.44-1.7-1.55s-.6-1-1-1.54c-.74-1-2.3-1.11-2.65-2.51,0-.08-.25-.46-.45-.18-.79,1.11-1.22-.15-1.31-.37a14.93,14.93,0,0,1-1-3.55,1.69,1.69,0,0,1,1.17-1.8c1.45-.53,1.79-2.53,3.53-2.72.06,0,.11-.28.13-.43.22-1.81,1.82-2.1,3.06-2.8l.44.3c.14-.27.08-.47-.22-.57C269.94,20.91,270.46,20.66,270.59,20.24Z" style="fill:#163847;"/><path d="M272.07,216.92c-.1.59-.27,1.55-.44,2.5a1.28,1.28,0,0,1-1.4,1.06c-.93-.17-1.25-.35-1.11.91.08.71-1.18.82-1.75,1.44-1.34,1.46-2.93,2.73-5.26,2-.75-.22-.84-.44-.64-1.09a10.09,10.09,0,0,1,3.34-5.47,21.91,21.91,0,0,1,5.13-3.21C271.4,214.46,272.15,214.94,272.07,216.92Z" style="fill:#e86166;"/><path d="M275.68,233.58a29,29,0,0,0-5.44.61c-.21,0-.47.24-.61.17-.84-.41-2.14.65-2.63-.82-.31-.92.58-3.49,1.45-3.47,1.35,0,2.73-1.07,3.53-.72a3.26,3.26,0,0,0,2.89-.43c1-.43,1.89,0,2.79-.29s1.85-.45,2.4.33-.1,1.68-.39,2.43A3.88,3.88,0,0,1,275.68,233.58Z" style="fill:#e86166;"/><path d="M269.94,240.13c1.78.39,3.36.33,4.81,1.08a2.46,2.46,0,0,0,1.87.12,1.49,1.49,0,0,1,1.8.75c.43.7.14,1.19-.23,1.77-1.21,1.88-2.11,2-4.35,1.81a21.8,21.8,0,0,0-3.56-.57,9.54,9.54,0,0,1-2.27-.61c-.72-.21-2.06,0-1.92-.91s.34-2.24,1.69-2.48C268.64,240.93,269,239.51,269.94,240.13Z" style="fill:#e86166;"/><path d="M335.32,78.73c.42-1.66,2-2.33,3-3.52.78-.92,1.7-1.78,2.56-2.66.29-.3.56-.68,1.08-.45.25.15.51.41.29.64-1.28,1.34-2.55,2.7-3.94,3.91a5.67,5.67,0,0,0-2,2.33C336,79.82,335.54,79.31,335.32,78.73Z" style="fill:#163847;"/><path d="M333.72,40.71c-.57-.54-1.11-.73.16-1.4,1.43-.75,2.49-2.24,3.62-3.49.39-.43.58-.89,1.2-.41A21.92,21.92,0,0,1,333.72,40.71Z" style="fill:#163847;"/><path d="M339.4,34.84c0-1.94,1.09-3.1,3.6-3.93-.17.7.34,1.58-.39,2.11-.34.24-.51,1.42-1.37.39-.21-.26-.78.38-.84.81C340.32,34.93,340.07,35.17,339.4,34.84Z" style="fill:#163847;"/><path d="M254.46,233.53l-.69-.18,0,0-.33-.66C254.13,232.56,254.19,233.17,254.46,233.53Z" style="fill:#e86166;"/><path d="M333.49,158.06c-.13-.16-.28-.26-.28-.36s.13-.38.37-.33a.37.37,0,0,1,.2.3C333.76,157.79,333.62,157.89,333.49,158.06Z" style="fill:#f2bd1f;"/><path d="M293.82,80.09c0-.6.4-.4.72-.36C294.44,80.11,294.11,80.05,293.82,80.09Z" style="fill:#163847;"/><path d="M111.57,233c.17,0,.31.14.16.29s-.27,0-.34-.13Z" style="fill:#e86166;"/><path d="M339,35.09c.07-.18.1-.42.39-.27C339.38,35,339.27,35.16,339,35.09Z" style="fill:#163847;"/><path d="M343,30.94c-.05-.29.13-.33.35-.33Z" style="fill:#163847;"/><path d="M183.34,178.37a8.32,8.32,0,0,0-3.73-.12c-1.61.19-3.18-.34-4.73,0-.92.22-.91-1.25-1.83-.9a7.72,7.72,0,0,0-.43-1.18,19.88,19.88,0,0,1-2.61-6.69,1.76,1.76,0,0,0-.7-1.22c-1.6-.72-1.55-2.24-1.91-3.57,7.2-8.65,22.56-9.24,31-5.11a16.21,16.21,0,0,0,1.74,1.42c2.36,1.44,3,3.85,3.31,6.28.2,1.43.77,3.1-.77,4.29-.17,3.63-2.89,4.67-5.7,5.65a6.1,6.1,0,0,0-1.1.67c0-.32-.23-.61-.48-.43-2,1.44-4.28.62-6.42.88.66-.27.55-1.11,1.12-1.47a5.19,5.19,0,0,0,2.78-4.39c.48-.19.48-.41,0-.65h0c.05-.6.38-1.26-.38-1.68a.51.51,0,0,1,0-.26c.22-.13.29-.24,0-.34a.3.3,0,0,1-.11-.19,1.2,1.2,0,0,0-.74-1.5l-.05,0c-.11-.4,0-.94-.72-.88s-1-1.19-1.65-.5-1.49,0-1.94-.23a1.76,1.76,0,0,0-1.29-.32,7.89,7.89,0,0,0-4.74,2.88c-1.11,1.27-.65,2.7-1.21,4-.2.45.11.68.54.79.2.05.43-.07.45.41a3.8,3.8,0,0,0,1.82,3.43A.83.83,0,0,1,183.34,178.37Z" style="fill:#fffefe;"/><path d="M93.61,132.57c-1.39.64-2.69,1.58-4.35,1.25-.7-.14-1,.51-1.52.74-1.91.87-3.64-.15-5.42-.38a11.9,11.9,0,0,0-2-.5c-.85,0-.55-.59-.75-.94a.4.4,0,0,0,.54,0,.17.17,0,0,0,0-.14c-.22-.11-.36,0-.49.19-2.44-.66-3.79-2.47-4.94-4.56A13.47,13.47,0,0,1,73,122.73c0-.58-.37-1.18.53-1.39a.49.49,0,0,0,.33-.76c-.77-1-.28-1.8.49-2.65l-3.76-.79c.44-.91,1-.67,1.57-.44,2.09.86,2.31.67,3.68-.94a10.62,10.62,0,0,1,5.83-4c.42-.09.61-.42.93-.55,1.43-.6,2.79-1.3,4.51-.66.63.23,1.6-.18,2.49,0a5.69,5.69,0,0,1,4.32,2.59c.08.13.13.33.25.37,2.12.91,1.91,1,3,3.5A17,17,0,0,1,98.33,122a6.33,6.33,0,0,1-.78,3.81c-.86,1.52-1.12,3.36-2.3,4.76-.44.52-1.09.91-1.1,1.71Z" style="fill:#f2bd1f;"/><path d="M200.42,110.44c.92-.09,2,2,2,2.93-.05,2.65-2.41,3.42-3.84,4.89-.61.63-1.19,1.29-1.75,2-.22.26-.19.74-.76.62s-.24-.46-.2-.77-.29-.24-.43-.36a2.61,2.61,0,0,1,.18-4.14c.17-.12.45-.24.47-.38.25-2.49,3.12-2.63,4-4.51C200.18,110.56,200.35,110.49,200.42,110.44Z" style="fill:#55b8ca;"/><path d="M20.67,180.82c-.81-.26-1.35-.3-1.55-1.08s-.67-1.64-1.36-.21c-.22.46-.52.45-.87.08s-.67-.58-.06-1c.4-.26.63-.59.24-1.07-.19-.23-.17-.68,0-.73,1.43-.37.81-2.43,2.33-2.77.4-.09.27-.86.45-1.3a4.45,4.45,0,0,1,1.36-1.89c1.09-.9,1.92-.87,2.56.33,1,1.84.68,3.13-1.1,4.27-.44.28-.83.61-.83,1.11s0,1.05-.78,1.26c-.4.1-.53.76-.21,1.39C21.08,179.64,20.76,180.3,20.67,180.82Z" style="fill:#55b8ca;"/><path d="M34.69,190.72c.21.92,0,1.3-.89,1.57s-1.18-.15-.85-.81a2.25,2.25,0,0,0-.12-2.1c-.71-1.85-.16-3.79-.12-5.68,0-1,.87-1.07,1.71-.8,1.6.52,2.4,1.94,2.58,4.07.09,1.06-.5,2,0,3.22.44,1-.8,1.55-1.86.87C35,191,34.85,190.84,34.69,190.72Z" style="fill:#55b8ca;"/><path d="M159.85,126.29c-.3,1-.6,2-2,2.08-1.24.07-2.4.45-3.62-.47a5.12,5.12,0,0,0-2.52.14c-.28.06-.39.8-.83.35a1.13,1.13,0,0,1-.1-1.23,12.92,12.92,0,0,1,1.47-2.82c.59-.71,1.61-.33,2.45-.28a11.19,11.19,0,0,1,4.12.56C159.87,125.07,159.52,125.71,159.85,126.29Z" style="fill:#55b8ca;"/><path d="M184.57,123.79c-.52.54-.65,1,.07,1.43a1.76,1.76,0,0,1,1,2.16c-.28.93-1.32,1.1-1.77,1.6-1,1.09-2.34,1-3.36,1.69s-1.84-.7-2.62.2a2.62,2.62,0,0,1-.43-.67,3.85,3.85,0,0,1,2.24-3.9c1.64-.44,3.26-.89,4.4-2.3C184.24,123.89,184.42,123.86,184.57,123.79Z" style="fill:#55b8ca;"/><path d="M239.28,166.66a2.87,2.87,0,0,1,3.06,1.93,27.39,27.39,0,0,1,1.69,3.93c.2.72.1,1.39-.49,1.67a1.25,1.25,0,0,1-1.46-.51c-.11-.16-.05-.49-.37-.4-2.28.64-2.47-1.46-3.37-2.6a7.5,7.5,0,0,1-.69-1.43C236.69,167.23,237,166.69,239.28,166.66Z" style="fill:#55b8ca;"/><path d="M242,196.64c.05-.63.92-1.27-.25-1.6-.41-.12-.32-.67-.27-1a3.46,3.46,0,0,0-.74-3c-.45-.49-.15-1,.19-1.29a2.38,2.38,0,0,1,2.39-.5c1.63.45,3.57,5,2.94,6.59a1.21,1.21,0,0,1-1.11.79A7.74,7.74,0,0,1,242,196.64Z" style="fill:#55b8ca;"/><path d="M90.54,207.17c.22,1.26,1,2.2,1.45,3.34.18.49,0,1-.32.73-1.44-1-1.78.87-2.81,1a5.4,5.4,0,0,0-3.16,1.47c-1,1-1.49.33-1.61-.59-.21-1.61-.66-3.44,1.8-3.84.54-2,2.23-1,3.42-1.31C89.82,207.84,89.86,207.31,90.54,207.17Z" style="fill:#55b8ca;"/><path d="M163.67,114.67c-.91.17-1.12-.41-.86-.93a9,9,0,0,0,.62-2.21c.35-1.5,1.39-1.86,2.83-1.28.32.13,1,.91,1-.48,0-.61,1.93-.7,3-.44.82.2.46.88.27,1.43-1.11,3.16-1.52,3.44-5.23,3.64A14.88,14.88,0,0,0,163.67,114.67Z" style="fill:#55b8ca;"/><path d="M191.59,99.22a7.74,7.74,0,0,1-2.66,4.37c-.15.14-.41.15-.58.28-1.58,1.24-1.27,1.1-2.18-.77-.51-1-1-1.73-.35-2.77.13-.22.09-.79.58-.43,1,.75,1.09-.29,1.27-.73a4.65,4.65,0,0,1,1.77-2.56c.56-.35.86-.45,1.1,0A7.59,7.59,0,0,1,191.59,99.22Z" style="fill:#55b8ca;"/><path d="M194.22,61.26c1.36.22,2.36,1.43,3.58,2.24.44.29-.05.81-.15,1.19-.29,1.14-.17,1.39.85,2.28.53.46.24,1.26.14,1.82s-.59.17-1,0c-.57-.24-1.13,1-1.77.06-.47-.67-1.68-.33-1.89-1.22-.45-1.91-1.38-3.78-.72-5.83C193.48,61.25,193.45,61.24,194.22,61.26Z" style="fill:#55b8ca;"/><path d="M178.76,94c0,.62.13.88,0,1-.95,1.69-1.56,3.66-3.59,4.5-.26.11-.74.51-.76.14-.08-1.39-1.86-2.38-1.24-3.7a9.62,9.62,0,0,1,3.42-4.47c.46-.28,2,1.35,2.15,2.27C178.82,94,178.73,94.25,178.76,94Z" style="fill:#55b8ca;"/><path d="M43.57,215.33c-.91,1.87-2.57,2.13-4.33,1.67s-2.08-1.9-3.09-2.84c-.72-.66-.48-1.28.23-1.82,2-1.51,3.34-1.24,4.83.81C41.84,214,42,215.47,43.57,215.33Z" style="fill:#55b8ca;"/><path d="M213.74,94.09c-.48.49-.1,1.48-.88,2-.13.08-.32.18-.35.31-.58,2.08-.58,2.08-2.33,1.56-1-.29-1.67-2.57-1.32-3.49a22.53,22.53,0,0,1,1.47-3.67c.21-.36.34-.56.64-.53C211.92,90.35,213.82,92.94,213.74,94.09Z" style="fill:#55b8ca;"/><path d="M66.69,229.18a5.11,5.11,0,0,1-3.28-1.59c-1.22-1.13-1-2.51.52-3,.78-.27,1.86-1.54,2.67.08,1.49-.61,1.95,1.89,3.54,1.18.3-.13.32.43.24.75A4.71,4.71,0,0,1,66.69,229.18Z" style="fill:#55b8ca;"/><path d="M207.74,212.86a4.84,4.84,0,0,1,3.71-4.77c.52-.08.75.15,1,.58a4,4,0,0,1-.18,4.66c-.15.2-.47.44-.65.4-1.14-.27-1.61.39-2.26,1.19s-1.47.61-1.62-.62A12.09,12.09,0,0,1,207.74,212.86Z" style="fill:#55b8ca;"/><path d="M22.55,201.89c.28.12.76,0,.74.46a9.61,9.61,0,0,0,.44,4c.12.31-.24.4-.5.36s-.22-.42-.5-.27a3.52,3.52,0,0,1-4-.31c-.67-.61-.32-1.53-.35-2.28s-.45-1.94.57-2.56a2.72,2.72,0,0,1,3.35.47.31.31,0,0,0-.21.46.16.16,0,0,0,.13.07C22.51,202.29,22.58,202.12,22.55,201.89Z" style="fill:#55b8ca;"/><path d="M232.77,180.71c-.44,1-1.91-1.2-2.33.75-.07.35-1-.64-1.55-.08-.47-1-1.86-1.18-2.25-2.29-.19-.54-.13-1.14-1-1.25-.39-.05-.38-.57,0-.91,1.27-1.3,4.44-1.08,5.33.51.61,1.1,2.15,1.22,2.4,2.58C233.43,180.39,233.93,181,232.77,180.71Z" style="fill:#55b8ca;"/><path d="M233.08,206.78a1.65,1.65,0,0,1-.8,2c-.54.3-.4.83-.39,1.3,0,.72-.33,1.42-.94,1.49s-1.14-.51-1.59-1.23c-1.64-2.58-.1-4.67.8-6.82.37-.87,1.28-.46,1.73.08A3.73,3.73,0,0,1,233.08,206.78Z" style="fill:#55b8ca;"/><path d="M61,208.54a1.74,1.74,0,0,1-2.5.64c-.22-.13-.56-.28-.74-.2-2.09,1-1.29-.72-1.33-1.47a3.11,3.11,0,0,1,.44-1.5c1-1.87,5.14-2,6.25-.2a.51.51,0,0,1,0,.43,21.84,21.84,0,0,1-1.58,2.85c-.29.4-.3-.11-.31-.34.34-.22.28-.37-.08-.47,0-.18-.12-.28-.3-.12a1.57,1.57,0,0,0,.14.22A.13.13,0,0,0,61,208.54Z" style="fill:#55b8ca;"/><path d="M196.59,79.07c1.12,0-.84-2.84,1.7-1.67.09,0,.28-.07.38-.17.71-.66.74-.68,1.06.16.23.58.14,1.32,1.08,1.42.23,0,.52.59.27.81-1.15,1-.5,2.3-.43,3.43s-.43,1.27-1.32,1a4,4,0,0,1-2.48-3.29A3.4,3.4,0,0,0,196.59,79.07Z" style="fill:#55b8ca;"/><path d="M184.51,73.14c.16.87-.35,1.67-.14,2.6.13.58-1.95.64-2.65,0-1.6-1.43-1.73-3.26-1.47-5.22a.72.72,0,0,1,.78-.66C182.31,69.86,184.67,71.54,184.51,73.14Z" style="fill:#55b8ca;"/><path d="M78.37,196.49c.14-1.62.46-3,1.3-3.61s2.27-.54,3.45-.69c.17,0,.46.29.58.51.3.53-1,4-1.65,4.12-.83.12-1.62.38-2.42.51S78.22,197.08,78.37,196.49Z" style="fill:#55b8ca;"/><path d="M78.53,75.42l-.11.28-.11-.16.25-.11Z" style="fill:#fffefe;"/><path d="M73.44,78.21l-.06.11-.16-.11s.07-.1.11-.1S73.4,78.18,73.44,78.21Z" style="fill:#fffefe;"/><path d="M138.4,178.37a27.69,27.69,0,0,0-5.2,0,10.53,10.53,0,0,1-7.29-2,18,18,0,0,1-2.18-1.82c-1.39-1.41-2.43-3.05-1.93-5.28a17.89,17.89,0,0,0-.13-2.37,6.53,6.53,0,0,1,2-4.07c1.58-1.73,3.81-2.42,5.71-3.59a10.57,10.57,0,0,1,4.24-1.34c3-.29,6-.55,8.93-.95a9.75,9.75,0,0,1,3.48.45c1.33.29,2.51,1,4,.86.92-.06,1.92.85,2.86,1.36a8.86,8.86,0,0,1,4.83,5.73c.48,2,.91,3.91-.13,6.13a11.55,11.55,0,0,1-2.13,3.78c-1.44,1.4-3.28,1.67-5.07,2.29-2.28.79-4.52.61-6.78.81.27-.77,1.39-.48,1.54-.9a8,8,0,0,1,2.52-3.14c.22-.21.36-.93.24-1-1.32-1,.38-1.78.27-2.76a4.08,4.08,0,0,0-.17-1.47c-.2-.44-.7-.5-.85-1.07-.39-1.49-3.1-3-4.6-3.11a6.19,6.19,0,0,0-4.18,1.33c-1.37.31-2.63.75-2.69,2.49a.24.24,0,0,1-.11.17,2,2,0,0,0-.35,2.28,1.27,1.27,0,0,0-.36,1.82c.17.33.76.54.69,1a2.32,2.32,0,0,0,1.45,2.45C138.16,176.86,138.16,177.6,138.4,178.37Z" style="fill:#fffefe;"/><path d="M167.41,164.72c.36,1.33.31,2.85,1.91,3.57a1.76,1.76,0,0,1,.7,1.22,19.88,19.88,0,0,0,2.61,6.69,7.72,7.72,0,0,1,.43,1.18,12.68,12.68,0,0,1,1,3.66,3.71,3.71,0,0,0,.87,2c.31.32.74.66.51,1.26a1.59,1.59,0,0,0,.93,2.2,2,2,0,0,1,.37.31c-1.51,1.63,1.21,1.41,1.07,2.47-.16,1.26.71,2.13,1.25,3.13.67,1.25.28,2-1.13,2.27-.43.07-.89,0-1.2.37-1.38,1.64-3.36,1-5.08,1.42-.53.12-.66-.19-.88-.49s-.21-.45-.52-.06-1.33.28-1.69-.17c-.09-.12-.2-.22-.29-.33-.91,1-2.19-.12-3.15.53a.57.57,0,0,1-.72-.13,1.48,1.48,0,0,0-1.91-.15,1.09,1.09,0,0,1-1.41-.39c-.34-.59-.58-.59-1.08-.15-.8.71-1.17,0-1-.6.18-.8-.06-2.05,1.39-2.1.16,0,.47-.33.44-.39-.83-1.83,1.46-1.66,1.8-2.79.14-.47.9-.25.87.29-.07,1.25.28.46.54.15a.78.78,0,0,1,.9-.17c1.93.56,4.06-.27,5.9.88a.77.77,0,0,0,0-1.24l0-.08c1.05-.93,1-1.3-.29-1.86-.14-.06-.23-.21-.35-.32-.48-.66-1.25-1-.82-2.27.27-.79-.87-2-1.3-3.1-1-2.6-2.24-5.13-3.17-7.78-.74-2.09-1.77-4.09-2.56-6.17s-1.37-4-2-6c-.13-.4.28-.54.58-.63.51-.15,1.09-.07,1.53-.45a11.12,11.12,0,0,1,4.13,2.62C166.67,163.69,167.43,164,167.41,164.72Z" style="fill:#55b8ca;"/><path d="M152.76,210c.43-1.93-.79-3.38-.77-5.06,0-.94-1-1.57-1.58-2-2.36-2-7.35-1.79-9.33.7a5.51,5.51,0,0,1-1.77,1.37c-1.13.6-1.36,2.13-1.52,3.42-.06.53-.21,1-.64.82-.62-.26-1.48.89-1.79-.28A3.21,3.21,0,0,0,134,207c-.67-.49-.61-1.15.12-1.66-1.5-.9.46-.86.35-1.47-.52-.36-1.48-.45-.21-1.5a5.19,5.19,0,0,0,2.07-3.26c0-.37,1.38-1.63,2.44-1.21.81-.18-1.47-.94.58-1.22,1.3-.18,3.09.17,4.38-1.23.93-1,2.37.28,3.65.11,3.17-.42,5.63,1.26,8,3.08,1.69,1.32,2.13,3.29,2.67,5.24.36,1.3,0,2.69.85,4a2.43,2.43,0,0,1-.36,2.74c-.68.71-1.67.3-2.55-.1S154.24,208.75,152.76,210Z" style="fill:#163847;"/><path d="M166.52,163.06a11.12,11.12,0,0,0-4.13-2.62c.49-1.92,0-3.94.74-5.87a2,2,0,0,1,1.13-1.35c2.1-.92,3.76-2.54,5.62-3.81a66.7,66.7,0,0,0,6.21-5.07c.89-.78,1.82.73,2.41,1.49a6.76,6.76,0,0,1,.83,2.41c.22.82.26,1.7.56,2.49.62,1.68-.59,2.73-1.51,3.51-2.25,1.91-4.79,3.46-7.07,5.38-1.16,1-2.65,1.48-3.15,3.17C168,163.28,167.06,162.81,166.52,163.06Z" style="fill:#163847;"/><path d="M170.14,186.87c.11.11.21.26.35.32,1.28.56,1.34.93.29,1.86C170.2,188.43,169.59,187.82,170.14,186.87Z" style="fill:#9bacb2;"/><path d="M170.81,189.14a.77.77,0,0,1,0,1.24Z" style="fill:#9bacb2;"/><path d="M345.55,27.53l-.1.1s-.08-.08-.08-.11.06-.06.1-.1Z" style="fill:#fffefe;"/><path d="M223.67,242.35a6.6,6.6,0,0,1-3.25,5.93,18.73,18.73,0,0,1-3.12,1.4c-2.59,1.21-6.32-1.16-7.06-4a14.93,14.93,0,0,1-.26-3.82c0-2.83,2.68-5.19,5.52-5.24a12.35,12.35,0,0,1,4.61.56C222.95,238.2,223.07,240.48,223.67,242.35Zm-3.83,1.15a5.87,5.87,0,0,0-1.1-3.13c-.64-.87-1.26-.17-1.8-.36-2-.66-2.7-.34-3.67,1.52-.69,1.31-.15,2.58-.2,3.86a1.34,1.34,0,0,0,1,1.43c.89.33,1.67,1.16,2.81.42A6.38,6.38,0,0,0,219.84,243.5Z" style="fill:#163847;"/><path d="M253.76,233.35l-.08.18s0-.06,0-.08a.69.69,0,0,1,.1-.08Z" style="fill:#e86166;"/><path d="M300.89,114.6a1.54,1.54,0,0,1-.41.17c-.34,0-.45-.2-.42-.5,0-.08-.08-.4.21-.21A5.65,5.65,0,0,1,300.89,114.6Z" style="fill:#f2bd1f;"/><path d="M303.9,124.63l.18-.19c.16.13.1.24,0,.35Z" style="fill:#fffefe;"/><path d="M318.41,168.53c-.63-.68-1.24-1.39-1.9-2s-.26-.67.27-.76c.86,1.58.9,1.58,2.64-.21C319.71,166.44,319.71,166.44,318.41,168.53Z" style="fill:#9bacb2;"/><path d="M299.37,158.19c-.17-.5.1-.75.63-1.1a.92.92,0,0,1-.63,1.09Z" style="fill:#55b8ca;"/><path d="M347.84,195.6c.05.2.08.41-.2.42-.08,0-.26-.17-.25-.22.06-.27.29-.2.48-.17Z" style="fill:#fffefe;"/><path d="M347.28,187.54c0,.14-.08.3-.24.18s0-.24.11-.29Z" style="fill:#fffefe;"/><path d="M347.16,189.29l-.06.09-.15-.11s.08-.08.11-.08S347.12,189.26,347.16,189.29Z" style="fill:#fffefe;"/><path d="M227.35,270l-.11.09a.93.93,0,0,1-.09-.2s.06-.07.09-.1Z" style="fill:#55b8ca;"/><path d="M142.94,233.18c-.07.17-.2.28-.34.14s0-.26.16-.3Z" style="fill:#e86166;"/><path d="M192.55,170.17a.51.51,0,0,1,0-.26l0-.34a.3.3,0,0,1-.11-.19,1.2,1.2,0,0,0-.74-1.5l-.05,0c-.11-.4,0-.94-.72-.88s-1-1.19-1.65-.5-1.49,0-1.94-.23a1.76,1.76,0,0,0-1.29-.32,7.88,7.88,0,0,0-4.74,2.88c-1.11,1.27-.65,2.7-1.21,4-.2.45.11.68.54.79.2.05.43-.07.45.41a3.8,3.8,0,0,0,1.82,3.43.83.83,0,0,1,.39,1,27.38,27.38,0,0,0,5.66,0c.66-.27.55-1.11,1.12-1.47a5.19,5.19,0,0,0,2.78-4.39l0-.65h0C193,171.25,193.31,170.59,192.55,170.17Z" style="fill:#163847;"/><path d="M192.9,172.5l0-.65C193.38,172.09,193.37,172.31,192.9,172.5Z" style="fill:#9bacb2;"/><path d="M192.6,169.91l0-.34C192.89,169.67,192.81,169.79,192.6,169.91Z" style="fill:#9bacb2;"/><path d="M22.55,201.89c0,.23,0,.4-.28.44a.16.16,0,0,1-.13-.07.31.31,0,0,1,.21-.46A.91.91,0,0,0,22.55,201.89Z" style="fill:#163847;"/><path d="M61,208.38a1.69,1.69,0,0,1-.14-.22c.17-.15.25-.05.3.12A.62.62,0,0,1,61,208.38Z" style="fill:#163847;"/><path d="M61.12,208.28c.36.1.42.25.08.47a2,2,0,0,0-.24-.21.13.13,0,0,1,0-.16A.62.62,0,0,0,61.12,208.28Z" style="fill:#163847;"/><path d="M148.24,170.56a4.07,4.07,0,0,0-.17-1.47c-.2-.44-.7-.5-.85-1.07-.39-1.49-3.1-3-4.6-3.11a6.19,6.19,0,0,0-4.18,1.33c-1.37.31-2.63.75-2.69,2.49a.24.24,0,0,1-.11.17,2,2,0,0,0-.35,2.28,1.27,1.27,0,0,0-.36,1.82c.17.33.76.54.69,1a2.32,2.32,0,0,0,1.45,2.45c1.1.41,1.09,1.15,1.33,1.92a2.11,2.11,0,0,1,2.1-.26,4.34,4.34,0,0,0,3.17.27c.27-.77,1.39-.48,1.54-.9a8,8,0,0,1,2.52-3.14c.22-.21.36-.93.24-1C146.65,172.31,148.35,171.54,148.24,170.56Z" style="fill:#163847;"/><path d="M219.84,243.5a6.38,6.38,0,0,1-3,3.75c-1.14.74-1.93-.1-2.81-.42a1.34,1.34,0,0,1-1-1.43c0-1.29-.48-2.55.2-3.86,1-1.86,1.72-2.18,3.67-1.52.55.18,1.16-.51,1.8.36A5.87,5.87,0,0,1,219.84,243.5Z" style="fill:#55b8ca;"/><path d="M116.26,124a8.2,8.2,0,0,0-3.08-2.92c-1.34-.74-2.71-1.43-4-2.24-.62-.38-.86,0-1.23.31h0c-.06-.17-.15-.28-.35-.23a.56.56,0,0,0-.24-.13,2.65,2.65,0,0,0-3.25-1.26h0a.54.54,0,0,0-.61.33h0c-.22,0-.32.07-.35.28-.51.06-.4-.34-.46-.61.13-.27,0-.37-.25-.31l-.25-.09h0c-.08-1.16.89-1.45,1.62-1.93a5.74,5.74,0,0,0,2.54-4c0-.13.06-.38.26-.21.85.74.69-.07.87-.51.29-.7.68-1.35,1-2l.32-.34c1.64-2.24,3.57-4.37,2.58-7.52-.07-.22.08-.52.13-.78.23-1.24,0-1.9-.87-2-1.18-.09-1.26-.67-1.22-1.64.07-1.65,0-1.65-1.44-1.56a1,1,0,0,0,0-1.59c-.47-.43-.61,0-.78.35-.27,0-.61.05-.79-.08a3.71,3.71,0,0,0-3.36-.84c-.5.14-1.26.23-1.42.57-.8,1.77-3,1.54-4,3-.77,1.06-2.08,1.72-3,2.68a15.23,15.23,0,0,1-3.23,3.08c.65-1.78-.61-3.53.77-4.93.14-.14-.13-.49-.41-.6.51-1-.19-2.07,0-3s-.11-1.32-.76-1.79c-.28-.2-.87-.19-.78-.84s.07-.8-.77-.56h0c.1-1.26-1.35-1.33-1.8-2.24-.11-.22-1.44.41-1.87-.58-.53.24-1.13.41-1.21,1.14-.76.43-1.38,1.24-2.48.73-.27-.13-.7.13-.53.7.07.24-.15.8-.29.82-2.46.36-1.66,2.74-2.49,4.1-.12.19-1,.56-.32,1.27.5.51,1.09,1.38-.21,1.88-.16.06-.11.33,0,.57.53,1.56-.35,3.05,0,4.92A10.78,10.78,0,0,0,69.74,99c-1.11-.06-2,.86-3,.59-1.8-.46-3.16.51-4.51,1.36-.59.37-1.67.34-1.68,1.43l.15.36-.15-.36c-.28.08-.46-.53-.9.05-.87,1.14-.48,2.27-.35,3.43l-.07,0c-1.59-.28-.92.89-.71,1.36A8.3,8.3,0,0,0,59.84,109c.63.89.83,2.22,2.29,2.28a1.18,1.18,0,0,0,1.28.64c.87,1.41,2.57,1.47,3.82,2.27.55.35.73,1.45,1.78,1,.77-.3,1.18.19,1.16.91,0,1-.82.71-1.33.61-1.45-.29-2.9,0-4.4-.4s-3.07.6-4.6,1.09c-1.21.38-2.08,1.42-3.64,1.27-.82-.08-2.64.46-1.95,2.35a.85.85,0,0,1-.68,1.08c-1.28.27-1.19,1.93-2.4,2.22-.07,0-.05.38-.09.58a4.53,4.53,0,0,0,1.79,4.62c.39.31.65.71,1,1,0,.76.68,1,1.09,1.5l0,0c.21.42.59.25.92.28l0,0c.17.51.57.34.92.33a1.13,1.13,0,0,0,.23.11c1.27,1.27,3,.84,4.49,1.19.56.13.57-.33.76-.61,1.12,1.07,2.46.7,3.77.61.45,0,.84-.79,1.27-.24.32.4-.13.89-.26,1.33a3.66,3.66,0,0,1-.57,1.12c-.84,1.15-1.44,2.44-2.38,3.57-1.21,1.46-1.51,3.52-2,5.4a.86.86,0,0,0,.78,1.17c1,0,.68.4.47,1-.36,1-.83,1.92-.07,3a5.54,5.54,0,0,0,3.94,2.32,8.85,8.85,0,0,0,2.87.39c1.66-.28,2.52-1.54,3.84-2.17a1.69,1.69,0,0,0,1.76-.84c.4-.56.81-1.12,1.21-1.68s1.13-1,.78-1.38c-.84-.92-.06-.9.43-.9.9,0,1.05-.56,1.52-1.16.65-.83,1-2.45,2-2.4s1,1.79,1.64,2.62c.06.07,0,.21,0,.31a10.64,10.64,0,0,0,3.93,5.2l.14.16c.4,1.27,1.95.77,2.52,1.56a4.56,4.56,0,0,0,2.6,1.36c2,.7,4.2.42,6.3.52.74,0,2.07-.86,2.94-1.49,1.15-.83,1.88-2.22,2.84-3.32.3-.34.65-.63.46-1.1-1.16-2.92-2-6-4-8.5a1.09,1.09,0,0,1-.29-.52c-.43-2-2.51-2.84-3.42-4.52-.06-.11-.3-.11-.41-.22-1-1-2.32-1.34-3.46-2-1.39.64-2.69,1.58-4.35,1.25-.7-.14-1,.51-1.52.74-1.91.87-3.64-.15-5.42-.38a11.91,11.91,0,0,0-2-.5c-.83,0-.57-.56-.74-.91-2.43-.67-3.78-2.47-4.93-4.56A13.47,13.47,0,0,1,73,122.73c0-.58-.37-1.18.53-1.39a.49.49,0,0,0,.33-.76c-.77-1-.28-1.8.49-2.65l-3.76-.79c.44-.91,1-.67,1.57-.44,2.09.86,2.31.67,3.68-.94a10.62,10.62,0,0,1,5.83-4c.42-.09.61-.42.93-.55,1.43-.6,2.79-1.3,4.51-.66.63.23,1.6-.18,2.49,0a5.69,5.69,0,0,1,4.32,2.59c.08.13.13.33.25.37,2.12.91,1.91,1,3,3.5A17,17,0,0,1,98.33,122a6.33,6.33,0,0,1-.78,3.81c-.86,1.52-1.12,3.36-2.3,4.76-.44.52-1.09.91-1.1,1.71.89.35,1.71.92,2.56,1.23,2.52.92,5.17,1.48,7.73,2.3,1.07.35,2.22-.12,3.23.49.3.41.57.37.83,0l.08,0c.79.14,1.67.56,2.33.34.93-.32,2.23.44,2.48,0,.64-1.23,2-1.68,2.58-2.86.39-.49.63-1.08,1.3-1.35s.84-.89,1.09-1.51C119.5,128,117.34,126.06,116.26,124ZM60.87,103.13l0,0,0,0,.2.17Z" style="fill:#fffefe;"/><path d="M79.64,132.76l0,0h0v0h0Z" style="fill:#fffefe;"/><path d="M80.15,132.72a.17.17,0,0,0,0-.14c-.22-.1-.35,0-.48.18A.4.4,0,0,0,80.15,132.72Z" style="fill:#fffefe;"/></g></g></g></svg>