<svg xmlns="http://www.w3.org/2000/svg" viewBox="0 0 1702.71 2128.16"><title>paymentProcessed</title><g id="Layer_2" data-name="Layer 2"><g id="Layer_1-2" data-name="Layer 1"><path d="M218.22,1545.64c10.82,10.62,23.84,19.11,31.55,32.75a12.67,12.67,0,0,0,4,4.39c11.32,7.14,17.56,18.69,25,29.06,3.39,4.71,8,7.79,11.77,12,13.88,15.56,27.26,31.55,43,45.37,5.92,5.18,10.79,11.72,16.15,17.62,2.92,3.22,7.83,3,9.76,6.38,4.27,7.55,11.15,13.17,15,20.91,2,3.92,5,6.86,7.49,10.25,4.06,5.59,10,7,15,10.33,3-2.69,2.21-5.57,2.18-8-.24-17.2,7.25-30.33,20.13-41.28,10.45-8.88,21.67-12.12,35.06-8.82,17.45,4.29,31.87,13.37,39.08,29.77,4.6,10.46,8.76,22,4.39,34.59-2.28,6.55-4.91,13-6.93,19.7a15.25,15.25,0,0,1-4.25,6.66c-4.73,4.2-9.75,8-12.89,13.71-1.18,2.14-4.58,1.06-5.74,3.83,1.35,4.38,4.75,5.81,9.09,5.82,10,0,19.77-.74,29-5.19,1.71-.83,3.89-.65,5.82-1.08,3.63-.79,7.07-2,9.08-5.49,11.77-20.6,30-35.9,44.46-54.28,7.44-9.45,17.16-16.66,24.52-25.85,8.07-10.08,18.81-17.72,25.45-29,2.76-4.67,7.4-7.55,11.13-11.27,9.61-9.61,18.41-19.94,27.63-29.88,5.83-6.29,11.51-12.79,17.52-18.92,14.42-14.68,27.74-30.41,42.33-44.87,7.56-7.49,14.62-15.34,21.7-23.22,2.44-2.72,5.26-5.07,6.22-8.87.36-1.41,1.76-1.88,3.23-1.54a2.2,2.2,0,0,1,1.63,3.08c-3.48,8.39.27,17.05-1.19,25.6-1.25,7.32,3.28,14,4.49,21.19,2.52,15,8.81,29,16.47,42.29,4.44,7.7,8.4,15.64,10.88,24.24,1.6,5.54,5.55,9.61,9,14,3.3,4.21,6.31,8.51,7.56,13.89,1.06,4.58,3,8.74,6.89,11.84,1.78,1.43,3.93,3.09,4,5.55.1,4.74,3.18,6.92,6.55,9.29,2.13,1.49,4.52,3.25,5.21,5.91,3,11.4,9.94,21,14.12,31.8,1.09,2.83,1.52,5.89,5.13,6.66,1.59.34,2.47,1.22,1.37,2.71-2.93,4-.58,7.14,1.8,9.8,5.18,5.76,7.13,12.9,7.89,20,1.06,10,5.28,18.26,11.32,25.87,1,1.31,3.09,3,2.13,4.08-5.79,6.69,1.87,12.2,1.43,18.6-.41,6,1.86,12.42,3.89,18.33,1.33,3.86.57,7,.41,10.73-.34,7.31-.19,15.29,2.95,22.29a15.94,15.94,0,0,1,.26,14c-2.13,5.26-1.27,11.78,1.74,16.91,1.56,2.65,1.18,4-.2,6.05-3.48,5.3-5.47,10.75-.93,16.56.58.75,1.07,2.33-.18,2.46-7.47.74-4.11,6.45-4.25,9.9-.36,8.83-3.41,16.48-7.32,24.28-5.11,10.17-9.55,20.69-16.16,30-5.14,7.25-10.34,14.31-13.86,22.67-2.57,6.08-9.47,8.91-13.81,14-5.47,6.44-8.64,15-16.37,19.35-9.82,5.49-14.2,16.27-23,22.74-10.8,7.93-18.75,18.67-27.72,28.44A44.3,44.3,0,0,0,736.88,2125c-14.75-.35-29.48-.74-44.22.94-4.38.5-9-.73-13.45-1.58-1.92-.37-3.81-1.57-5.77-1.07-11.61,3-23.43-.14-35.19,1.39-7.38,1-15.13-1.43-22.73-1.52-9.27-.11-18.73-4.34-27.86,1.15-3.21,1.93-3.86-4.86-7.29-2.76-4,2.48-4.71-.36-6.4-3.06-1-1.64-1.87.68-2.42,1.75l-.83.82c-10.86,3.64-21.82,1-32.71.34-6.13-.4-11.88.37-16.87,3.59a13.61,13.61,0,0,1-1.76-2.25c-2.08-5.29-4.63-6.8-7.59-3-3.87,5-8.24,2.74-12.45,3.79-5.13,1.27-9.73,1.41-14.48-.74a10.62,10.62,0,0,0-6.56-.8c-13.44,2.2-27.1,1.47-40.49.16-4.22-.41-7.88-2.93-11.92.35a2.07,2.07,0,0,1-1.92.15c-8.63-6-15.9,1-23.73,2.47-.93.17-2,1.19-2.72.25-5-6.78-12.1-.74-18-3-5.37-2.07-10.46,2.26-15.88,2.38-15.39.32-30.78.51-46.16.84-3.94.08-7.7,1.41-11.68,1.78-8.59.79-17.26-.83-25.62.37a36,36,0,0,1-22.77-3.75c-2.7-1.39-6.5-.76-9.8-.8-3,0-6.12.55-7.09-3.59a2,2,0,0,0-3-1.45c-5.95,2.59-10.86-.68-16.2-2.46-10.56-3.51-20.43-8.93-31.41-11.26-.94-.2-2.37-.67-2.59-1.35-3.69-11-17.7-8.7-22.85-17.78-.44-.77-1.73-1.9-2.15-1.72-9.3,3.85-11.69-7.06-18.46-8.65-1.74-.41-3.21-2.55-3.14-4.73.08-2.54-1.77-3.36-3.36-4.48-12.8-9-18.3-25-31.71-33.4-1-.66-2.55-2.33-2.32-3,2-6-3.19-8.39-5.63-12.14-.72-1.11-2.34-2.39-2.12-3.24,1.83-7.32-4.52-10.57-7.64-15.21A27.73,27.73,0,0,1,83,1984.8c-.31-5.45-1.91-10.48-3.39-15.44-2.22-7.42-4.08-14.6-2.77-22.43.84-5-2.89-9.22-2.79-14.5.11-6.13-2.83-12.19.12-18.51,1-2.21-1.33-4.29-2.2-6.4-2-4.91-3.12-9.63,2.33-13.21,3.35-2.2,2.56-4.93,1.05-7.83-4-7.61-2.1-15.54-.46-23.11,2.31-10.68,6.91-20.8,8.22-31.78.24-2,.75-4.12,2.7-5.07,2.52-1.22,1.92-2.81,1.41-4.89a15.46,15.46,0,0,1,1.05-10.72c1.36-2.78,2.81-5.28,6.77-4.27,4.23,1.08,6.4-.89,3.86-4.66-5.13-7.62-.81-14.15,2-20.59,1.83-4.28,4.51-8.08,4.18-13a4.13,4.13,0,0,1,.63-2.86c6.36-6.44,7-16.59,14.53-22.27,2.41-1.81,3.84-4.38,5.16-7.18,2.26-4.77,4.8-9.17,5.82-14.65.77-4.16,6.28-6.3,6.77-11.91.3-3.43,4.13-6.59,6.48-9.8,3.1-4.24,7-8,6.4-14-.23-2.46,1.44-4.65,3.09-6.09,8-7,10.1-17.38,14.31-26.37,2-4.28,4.11-8.48,7.17-11.62,4.21-4.31,5-11,10.45-14.26.75-.45,1-2.52.76-3.69-1.38-6.78,3.22-8.68,8.33-10.36-3.52-6-2.23-11.3,1.86-16.4,3-3.79,7.15-7.11,6.29-12.9-.19-1.28.39-3.22,1.67-3.31,5.2-.35,5.42-4.77,7.29-8,.48-.83,2.38-.82,4.09-1.34-1.22-1.89-2.5-3.91-3.83-5.91-.92-1.39-1.82-2.6-.39-4.35C215.6,1556.61,208.37,1547.67,218.22,1545.64Z" style="fill:#4bb7ca;"/><path d="M128.21,467.57c-.74,1.2-1.46,2.43-2.13,3.71-3-.07-3.74,2.3-4.78,4.36a58.66,58.66,0,0,1-19,22.06,309,309,0,0,1-40.14,24C47,529.35,32.88,538.88,17.45,546c-5.62,2.59-8.1,2.24-14.84-3.72-3.52-3.11-3.15-6.18-.84-9.64,4.52-6.75,3.62-15.27,7.48-22.43,2.48-4.59,5.24-8.76,9.49-11.07,8.35-4.54,17.08-8.61,25.4-13,11.42-6.08,25-8.67,34.1-18.72a3,3,0,0,0-4.08-2.45c-10.21,2.57-21,2.95-30.63,7.75-6.64,3.3-13.44,3.07-20.18.05-2.23-1-3.41-3.61-1.83-4.66,6.16-4.09,5.49-11.54,9-17,3.94-6.11,9.66-8.21,15.36-9.93,11.75-3.53,22.71-9.45,34.83-11.67,11.85-2.16,23.44-7,35.88-4A23,23,0,0,1,112,443.06c-1.9,2.54-4.33,4.88-3.43,9.2,5.67-1,11.1-4.19,16.18.39.44.4,2.11-1.31,1.71-2.93,3.1-.14,8.07,3.07,8,6.51-.05,2.16-1.34,4.07-2.58,5.84S129.36,465.71,128.21,467.57Z" style="fill:#4bb7ca;"/><path d="M731.58,1077.37c3.88-.56,6.55-2.06,7.9-6.33,2.71-8.64,8.37-13.3,18-14.71,5.37-.78,11.17-3.67,15.94-7.33,2.15-.23,4.37-.31,5.73-2.41,5.1-1.25,10-3,14.11-6.37,2.73,0,4.88-.87,6-3.56,2.7-2.75,5.94-1.78,9.11-1.33,4.51,4.86,5.92,10.62,4.88,17.07-1.92,2.46-4.14,4.77-4,8.22-1.69,5.32-7,7.66-9.88,12-9.42,3.6-18.12,8.67-26.79,13.68-4.5,2.6-4.6,8.92-.56,15.89,3.58,6.18,5.89,12.43,4.64,19.64-4.13,4.69-9.6,5-15.26,4.66a2.1,2.1,0,0,0-1.51-.52c-.69-2.26-2.1-3.5-4.57-3.27a8,8,0,0,0-6.25-1.79c-.6-2.24-1.6-5.72-3.51-5.38-6.9,1.22-6.18-3.27-6.73-7.41-.39-2.87-.68-6.29-2.37-8.36C730.92,1093,731.16,1085.26,731.58,1077.37Z" style="fill:#e66467;"/><path d="M979.38,1441.88c-6.88,0-13.76.08-20.64.06-9.92,0-15.86-5.25-17-15.14-.48-4.24-.48-8.53-.7-12.79l-1.08-3.49c1.94-9.18,1-18.54,1.68-27.8.34-4.69.25-9.5,6.34-10.75,1.74-.36,1.62-1.67,1.51-3-.2-2.24.84-3.5,2.89-4.6,7.58-4.08,15.89-6,24.08-8.15,2.07-.55,4.94-.27,6.16,2.1,1.53,3-1.19,4-3,5.28-5.87,4-5.27,10.91-5.53,16.33C973,1400.71,972.21,1421.69,979.38,1441.88Z" style="fill:#168395;"/><path d="M1080.07,1349.27c-2.62-.32-5.45-.14-7.82-1.09a15.94,15.94,0,0,1-7.81-7.43c-3.36-6.39,4.74-2.67,6.09-6.13,1.18-3,5.31-4.8,8.74-6.16,10.94-4.35,14.37-9.38,13.53-20.93-.29-3.93-1.77-7.77-2-11.7-.23-3.36-1.76-7.61,3.16-9.32,3.82-1.33,12,1,13.36,4.26,4,9.8,9.09,19.91,7.77,30.43-1.3,10.33-8.52,18.36-17.81,23.53C1092,1347.63,1086.36,1349.82,1080.07,1349.27Z" style="fill:#4bb7ca;"/><path d="M1005.4,270.51" style="fill:#eeddc5;"/><path d="M209.63,1284.63a3.61,3.61,0,0,1,3.54-2A3.18,3.18,0,0,1,209.63,1284.63Z" style="fill:#eeddc5;"/><path d="M571.56,2120.21c.42.43,1.26,1.17,1.2,1.25-.92,1.28-1.49.43-2-.43Z" style="fill:#4bb7ca;"/><path d="M98.86,242.82c-1.22-.91-2-1.74.39-1.91A3.26,3.26,0,0,1,98.86,242.82Z" style="fill:#eeddc5;"/><path d="M213.35,1282.48a1.83,1.83,0,0,1,2-1.55A2,2,0,0,1,213.35,1282.48Z" style="fill:#eeddc5;"/><path d="M202.71,1288.23a2.15,2.15,0,0,1,2.61-1A2.38,2.38,0,0,1,202.71,1288.23Z" style="fill:#eeddc5;"/><path d="M791.61,1230.52c-2.94-8.75-4.27-17.84-5.78-26.9,1.43-2.49,2-4.91-.66-7-1.94-7.79-5.45-14.26-13.93-16.54-1.45-4.59-4.84-5.38-9-4.6-10.18-.89-20.22.17-27.29,8.12-5.37,6-12.92,10.3-15.71,18.71-.85,2.56-3.53,5.33-6.59,5.19s-3.21-3.67-4.24-6c-6.28-14.5-14.22-28.14-22.79-41.33-3.27-5-6.51-9.71-8.08-15.63-1.48-5.58-5.86-9.51-9.92-13.43-2-1.91-4.34-1.13-6.54-.26a1.78,1.78,0,0,0-1,2.46c5.48,10.7,2.26,23.24,6.67,33.84,4.14,10,8.28,20.06,13.5,29.52,3.43,6.21,5.42,12.8,7.72,19.34a81.82,81.82,0,0,0,21,33,35.8,35.8,0,0,1,10.19,15.42c4.81,15.07,14.6,27.24,23.4,39.78,5.14,7.32,11.35,14.2,17.23,21.14,4.95,5.84,10.24,7.6,17.23,5,1.36.09,3.13-.09,3.09-1.55-.07-2.49-2.13-1.8-3.71-1.53l-3.2-2.92-1.84.4,1.84-.4c-.13-2.58-1.47-3.83-4.06-3.72-2.63-4.17-3.9-9.19-7.85-12.53a2.5,2.5,0,0,0-.2-1.58c.28-3.27-1.59-5.69-3.57-7.81-9.7-10.39-14.1-23.66-19.95-36.15,1.64,0,3-.59,3.5-2.3l16.2-.08c2.92,3.16,5.65,3.5,8.1-.53a4.62,4.62,0,0,1,3.89-.72c.85,3.33,2.08,4.39,4.12.69a7.75,7.75,0,0,1,5.06-1.78c3.12.89,4.63-.26,4.48-3.53l0-.07c4.41.29,6.6-2.33,8-6.06,2.59-3.59-.78-7.84,1.28-11.49C796.38,1234.19,796.1,1232.17,791.61,1230.52Zm-25.27,1.86c-.21,1.9-2.24,2.31-3.89,2.39-2.63.14-5.28,0-9.34,0-2.1.23-5.66-1-9.24.92-2.21,1.17-12.75-3.64-12.83-5.54-.18-4.18-.63-8.73.73-12.52,3.09-8.61,10.83-13.89,17-20.11,4-4,12.6-.17,14.2,5.58,1.37,4.93-.06,10.82,5.11,14.39C765.84,1222.31,766.88,1227.43,766.34,1232.38Z" style="fill:#e66467;"/><polygon points="748.13 1412.56 748.16 1413.14 748.05 1412.57 748.13 1412.56" style="fill:#4bb7ca;"/><path d="M102.83,234.27c-.21-1.58.45-2.36,2.06-2.3A2.3,2.3,0,0,1,102.83,234.27Z" style="fill:#eeddc5;"/><path d="M211.23,1536.73a2.05,2.05,0,0,1,2.25,1.64Z" style="fill:#eeddc5;"/><path d="M1120.73,1813c-.26.77-.34,1.73-.67,1.83a2,2,0,0,1-2.3-1.26c-.46-.9-.46-2.11.74-2.14C1119.24,1811.39,1120,1812.45,1120.73,1813Z" style="fill:#4bb7ca;"/><path d="M542.71,287.94c-.49.44-1.29.82-1.41,1.34-2.9,12.93-13,18.47-23.75,23.5-8.41,3.92-16.92,7.85-24,14.05-2.92,2.56-6.78,2.58-9.81,4.65-6.28,4.28-13.83,6.45-19.42,11.95a14.17,14.17,0,0,1-6.09,3.3c-12.37,3.29-22.31,11.07-33,17.42-5.06,3-11.26,4.22-14.25,10.07l-.44.26c-4.73.56-13.34,3.86-16.2,6.15a8.64,8.64,0,0,1-2.45,1.56c-16.83,5.72-31.32,16.18-47.44,23.45-13.1,5.91-25.45,13.58-37.69,21.32-7.33,4.63-13.74,11.75-23.46,11.87-3.66-13.37-7.16-26.77-10-40.34-2.39-11.21-3.92-22.77-9.46-33.11-1.87-3.5-.28-5.5,2.57-7.36,20.11-13.14,41.28-24.23,63-34.45,8.06-3.79,16-7.93,24.25-11.25a12.13,12.13,0,0,0,4.72-3.57c2.45-3.06,5-5.12,9.27-4.1,2,.47,3.89-.39,5.7-1.35,20.48-10.82,41.73-20,62.42-30.4,12.71-6.36,25.2-13.26,37.87-19.75,10-5.15,20.21-10,30.27-15.15,4-2,6.91-1.28,9.31,2.49,5.5,8.65,11.31,17.12,16.57,25.91,2.58,4.31,4.77,8.85,9,11.74C542.38,280.62,541.76,284.54,542.71,287.94Z" style="fill:#4bb7ca;"/><path d="M794,443c-5.72,1.35-11.55-4.76-18.11-8.82-3.23-2-1.51-5.45-.64-8.17s3.11-2.86,5.71-2.53c10.81,1.36,10.88,1.32,14.86-8.93,1-2.5,1.78-5.07,3.77-6.91,2.64-2.45,5.47-1.61,7.42,1.86a57.6,57.6,0,0,1,5.55,12.74C815.21,431.64,806.93,442.72,794,443Zm3.64-8.13c-.47.34-1.32.67-1.33,1a1.81,1.81,0,0,0,1.76,2,1.64,1.64,0,0,0,1.19-1.06C799.48,435.66,798.86,435,797.68,434.85Z" style="fill:#4bb7ca;"/><path d="M736.67,316.8A23.51,23.51,0,0,1,739,320c2.25,5.19,5.6,5.83,10.29,3,3.36-2,7-3.55,10.52-5.38,1.66-.87,3.13-1,4.31.63,3.58,5,2.07,14.92-2.93,18.52-5.88,4.23-11.67,8.37-19.76,6.78-8.63-1.69-14.3-9.5-13-17.75C729.31,320.95,733.56,320.21,736.67,316.8Z" style="fill:#4bb7ca;"/><path d="M723.82,482.36c-7.26-2.88-15.67-4.28-21.63-10.7-2.15-2.32-2.46-12.34-.62-14.83a2.67,2.67,0,0,1,4.31-.45c4.41,4.49,9.54,4,15.36,4,6.77.06,13.61,2.7,20.24,4.81,3.32,1.05,4.89,4.55,2,7.06C737.95,477,731.75,481,723.82,482.36Z" style="fill:#4bb7ca;"/><path d="M368.63,211.68c1,6.07-3.11,9.57-7.17,12.23a62.32,62.32,0,0,1-22.52,9.46c-2.92.55-6.41,1.19-8.21-1.68s.53-5.66,2-8.23a16.47,16.47,0,0,1,5.43-5.74c7.73-5,16-9.21,23-15.42,3.25-2.89,5.52-1.1,6.48,2.51A59.72,59.72,0,0,1,368.63,211.68Z" style="fill:#4bb7ca;"/><path d="M235.69,415.93c-4.81-.62-8.39-3.88-12.34-6.12-11-6.23-11.76-8.86-7.57-20.78.76-2.17,1.93-4.2,2.79-6.35,1.21-3,1.63-7.17,5.73-7.11,3.82,0,5.14,4.1,6.38,6.95,3.94,9,5.2,19,9.24,28.09C241.31,413.7,238.68,415.33,235.69,415.93Z" style="fill:#4bb7ca;"/><path d="M334.11,274.71c3.2,7.43,5.16,14.14,1.61,21.49-3.89,8-13.48,14.73-20.82,14.06s-10.15-4.29-6.2-10.34C315.21,289.92,322.07,279.84,334.11,274.71Z" style="fill:#4bb7ca;"/><path d="M650.91,410.32c-.33-4.93,3.75-8.41,3.59-13.39,0-1.54,4.57-2.34,6.89-.25a52.92,52.92,0,0,1,6.77,7.27c1.45,1.91,2.63,4,5.32,3.88,3.4-.2,4.49,1.75,5.47,4.55,1.34,3.83-1.93,6.13-3.66,6.92-3.45,1.58-6,3.86-8.79,6.21s-7,1.88-8.06-.42C656.1,420,650.53,416.5,650.91,410.32Z" style="fill:#4bb7ca;"/><path d="M193.91,372.56l-3.52-2.75c-13.86-10.79-14.61-22.78-2.11-35a14.06,14.06,0,0,1,4.17-2.52c4-1.75,5.8-.81,5.71,3.38-.15,7.23-.2,14.54-1.35,21.64C196,362.07,197.74,367.33,193.91,372.56Z" style="fill:#4bb7ca;"/><path d="M642.95,339.54a65.31,65.31,0,0,1-8-.05c-7.6-.94-9.61-3.33-9.83-11.07-.12-4.38,5.16-11.74,9.13-12.64,1.86-.42,3.53.19,3.81,2.13.58,4,3.24,4.69,6.6,6,4,1.62,7.49,5.07,10.75,8.19,2.15,2,.47,6.46-2.53,6.83-3.27.41-6.64.09-10,.09Z" style="fill:#4bb7ca;"/><path d="M188.17,644.24c1,7.64-.87,12.53-6.2,16.7-4.54,3.54-4.89,10.88-11.24,13.44-2,.81-3.07,3.23-5.82.95-2.42-2-3.67-3.71-1.74-6.61,2.48-3.74,2.73-7.6,2.27-12.17-.73-7.26,2.36-10.46,9.75-10.6A73,73,0,0,0,188.17,644.24Z" style="fill:#4bb7ca;"/><path d="M246.5,612.82c1.7.29,2.37,1.6,2.88,2.72,2.61,5.79-.79,25.51-5.15,30.06-1.82,1.9-3.6,3.67-6.64,3.92-6.27.51-7.75-.78-5.84-6.89a20.19,20.19,0,0,0,.58-7.83c-.55-6.7,2.14-11.55,7.44-15C242.64,617.92,243.72,614.5,246.5,612.82Z" style="fill:#4bb7ca;"/><path d="M432.47,223.73c-.13-9.26,5.34-15.9,10.15-22.44,3.38-4.59,8.52-2.89,10.21,2.59,3.12,10.17,2,17.27-9,25.91a8,8,0,0,1-9.31.81C431.46,229,432.77,225.94,432.47,223.73Z" style="fill:#4bb7ca;"/><path d="M274.41,266.28c-2.85,5.77-6,11.48-8.52,17.44-2.22,5.23-8.19,4.94-11.51,8.56-.87.95-3.39-.54-4.07-2-2.07-4.36-4.6-8.38-1.43-13.83,2.77-4.75,6.58-8.29,10.42-11.77C263.55,260.89,267.39,261.62,274.41,266.28Z" style="fill:#4bb7ca;"/><path d="M127.13,572.29c10.15,1,18.84-2.47,27.25-5.74,4.92-1.92,5.24-.35,5.15,3.28-.35,14-6.79,18.54-20.23,14.27-1.25-.4-2.46-1.2-3.72-1.28C129.35,582.42,127.22,578.63,127.13,572.29Z" style="fill:#4bb7ca;"/><path d="M175,423.39c3.14,9.64,7.11,18,3.53,27.52-.29.76.29,1.93.64,2.84a10.75,10.75,0,0,1,.32,5.84c.54-.53.43-1-.39-1.22-2.08-.53-2.56,1.61-3.87,2.35-1.09.62-1.84-.37-2.52-1-2.81-2.8-5.6-5.61-8.35-8.48-.67-.7-1.58-1.6-1.6-2.42-.1-6.83,4-12.49,5.42-18.89C169,426.42,171.2,425,175,423.39Z" style="fill:#4bb7ca;"/><path d="M274.33,556c0,1.63.6,3.63-.13,4.8-1.29,2-.65,5.62-4.26,6-3.35.35-4.44-2.11-5.78-4.46-1.13-2-2.55-3.82-3.88-5.69-5.6-7.87-4.57-16.5,2.73-22.85,2.46-2.14,6.11-1.47,6.87,2.16C271.3,542.69,274.93,548.91,274.33,556Z" style="fill:#4bb7ca;"/><path d="M223.15,458.59c4.22,2.69,7.71,4.61,8.23,9.08.75,6.44,4.19,11.82,6.66,17.57.75,1.74,2.63,3.18.32,5.13-1.89,1.6-3.73,2.82-6.23,1.33s-5.61-1.89-8.44-2.76c-3.35-1-4.67-3-4.48-7.38C219.56,473.84,223.15,467.06,223.15,458.59Z" style="fill:#4bb7ca;"/><path d="M474.42,190.64a22.77,22.77,0,0,1-4.88-.93c-4.68-1.8-5.59-5.16-2.81-9.47,4.55-7.05,18.89-11.54,26.79-8.47,2.4.93,2.65,2.43,2,4.68C492.92,185.3,484.6,191.24,474.42,190.64Z" style="fill:#4bb7ca;"/><path d="M206.42,590.28c-.51,4.75-3.55,6.73-6.74,8.64a8.07,8.07,0,0,1-9.32-.19,4.51,4.51,0,0,1-1.37-6.2c2.85-4.84,5.8-9.61,8.75-14.39a3.68,3.68,0,0,1,3.25-1.91c2.12.06,2.44,2,3.12,3.41C205.8,583.17,202.34,587.76,206.42,590.28Z" style="fill:#4bb7ca;"/><path d="M108.36,617.88c5,1.57,9.68,2.84,14.2,4.52,3.92,1.46,4.18,3.49,1.25,6.64-4.29,4.61-6.4,4.44-11.43.2C108.71,626.15,107.17,622.78,108.36,617.88Z" style="fill:#4bb7ca;"/><path d="M735.14,376.93c-2.71-1.06-4.25.85-5.65,2.82-3.07,4.34-6.46,3.87-10,.6.56-4.31-1.6-5.35-5.09-3.77-5.55,2.52-7.47,9.17-5,16.34,5.82,3.64,9.44,12.39,18.76,8.07.43-.2,1.48,1,2.27,1.48,4.39,2.76,6.17,2.35,7.06-2.51a133.62,133.62,0,0,0,1.68-16.75A6.12,6.12,0,0,0,735.14,376.93Z" style="fill:#4bb7ca;"/><path d="M128.07,467.49v0Z" style="fill:#eeddc5;"/><path d="M978.13,315.66c.67-10.81-2.81-21-5-31.33-.33-1.59-1.5-3.35.41-4.33s2.9.85,3.73,2.27c5.11,8.73,7.69,18.31,9.43,28.18,1.16,6.56,2.38,13.09.47,19.72-.54,1.88-.32,4.1-2.22,5.34s-4,2.72-5.14-1.14A51.48,51.48,0,0,1,978.13,315.66Z" style="fill:#e66467;"/><path d="M961,308.72c6.49,12.52,8,24.62,6.73,37.16a13.91,13.91,0,0,1-1.81,5.61c-1.59,2.67-3.64,2.66-5.21-.16a13.29,13.29,0,0,1-1.24-3.72c-2.49-11.78-1.39-23.67-1-35.53C958.43,311.31,959.51,310.57,961,308.72Z" style="fill:#e66467;"/><path d="M938.33,366.63c-5.08-1.35-4.54-5.88-5.28-9.56-1.14-5.68,2.44-25,5.87-31.76,4.57,3.85,3.36,9.13,3.68,13.71C943.84,356.63,943.56,357.6,938.33,366.63Z" style="fill:#e66467;"/><path d="M410.51,374.49l.44-.26c5.87,2.25,11.64,4.88,17.51,7.06,6.23,2.32,9.79,6.83,12.64,11.87,2.5,4.43,5,8.66,9.06,11.66,4.87,3.61,5.43,9.71,8.84,14.17,2.2,2.88,3.57,6.39,7.13,8,2.31,7,4.6,14,10.86,18.78-.28,3.63,1.95,6.18,3.71,9,2.63,4.2,5.39,8.46,3.52,13.82a4.34,4.34,0,0,0,.93,4.54c8.42,10.6,7.39,23.37,7.7,35.68.12,4.94-4,7.08-10.22,7.46,6.28,4.28,5.34,7.92,2,13.29-6.44,10.45-15.79,15.37-27,18.11a7.87,7.87,0,0,1-5.8-.39c-3.23-1.71-6.41-3.43-10.2-3.73a7,7,0,0,1-5.5-3.94c-4.64-9.1-7.59-17.71-4.06-28.87,6.2-19.57,8.67-39.95,1.54-60.19-.1-.27-.49-.44-.74-.65l.08.14a7.61,7.61,0,0,0-.39-6.75c-4.9-7.28-4.57-16.48-9.08-23.9a14.19,14.19,0,0,1-2.16-7.56c.07-3.84-1.57-6.79-4.17-9.69C410.08,394.2,409.57,384.47,410.51,374.49Z" style="fill:#e66467;"/><path d="M553.61,464c4.66,10.37,11.49,18.33,10,29.43a4.66,4.66,0,0,0,.4,2.85c5.3,8.66-.54,17.37.19,26-6,3.34-1,9.5-3.66,14.25s-3.2,10.68-7.51,14.8a6.59,6.59,0,0,0-1.8,3.46c-1.7,10.29-7.87,17.22-16.19,22.9-3.24,2.21-5.87,5.4-8.56,8.33-3,3.27-6,6.28-10.91,6-3-.15-4.87,1.78-6.87,3.55a33.77,33.77,0,0,1-21.8,8.53,37.46,37.46,0,0,0-7.87,1.1c-7.42,1.91-14.38,6.13-22.64,2.25-2.17-1-5.72,1-8.67,1.5-5.77.89-11.17,2.66-16.66-2.65-2.68-2.59-8.53-2.37-12.84-3.27-8.72-1.82-15.56-7.13-23.51-10.1-5.35-2-7.87-6.87-11.7-10.14-5.53-4.73-11.35-10-14.93-16.87-1.4-2.69-3.55-5.15-1.51-8.16,1.44-2.12,9.31-1.85,10.93,1.06,2.56,4.61,7.39,5.24,10.87,8.07a18.56,18.56,0,0,0,9,3.93c13,2.06,25.51,6.62,38.66,8.51,11,1.58,21.32.35,31.84-2.66,5.83-1.67,10.9-6.1,17.68-4.86,1.4.26,3.4-1.81,4.86-3.11,3.88-3.47,9.13-3.61,13.52-5.78,7.76-3.82,12.76-11.18,20.37-15.57,4-2.32,6.73-8.94,8.67-13.91a64.73,64.73,0,0,1,7.71-14.93c4.89-6.72,3.13-14.78,4.62-22.14,1.23-6.07,2.57-12.31,2.22-18.74C547.27,473,550.16,469.2,553.61,464Z" style="fill:#e66467;"/><path d="M433,450l-.08-.14c-1.44,7.39-5.8,13.71-6.5,21.64-.63,7-8.49,10-13.82,14s-11.51,6.43-17.76,8.46a22.76,22.76,0,0,0-7.58,4.45,109.25,109.25,0,0,0-38,10.32c-8.32.16-16.4-.25-23.5-5.69-4.59-3.52-6.71-8.21-9.53-13-3.61-6.17-.09-9.57,1.14-14.31,2.25-8.71,8.38-13.76,15.27-18.58,19.93-13.94,41.81-22.3,66.16-23.91,4.16-.28,7.84.53,11,3.54a8.24,8.24,0,0,0,4.3,2.28,20.11,20.11,0,0,1,15.35,9.53C430,449.45,431.76,449.57,433,450ZM366.37,493.4c7.78,3.27,11.16-3.53,16.42-7.31,7.12-5.12,5.35-13,7.47-19.49,1.61-4.9-4.45-8.35-7.59-12-3.68-4.26-9.81-3.31-14.47-5.78-3.19-1.69-5.43,1.52-8.11,2.55-11.86,4.56-10.92,16.77-15.37,25.74-.31.63.42,1.9.88,2.76C350,488,355,495.15,366.37,493.4Z" style="fill:#fff;"/><path d="M582.41,388.39a10.31,10.31,0,0,0-2.36,9.61,45.43,45.43,0,0,1,.65,6.93c-17.43,7.43-31.71,19.87-47.56,29.82-4.26-.5-7.51,2.08-11,3.68-8.92,4-17.77,8-27.64,9.53-6.27,1-11.71-1.06-17.47-2.17C470.72,441,468.42,434,466.12,427c1-2.45,2.51-4.86,2.8-7.4,1.06-9.34,6.57-15.61,13.57-21,.79-.61,1.48-1.77,2.3-1.85,11.17-1.09,17.24-11.31,26.93-15,10.34-3.9,19.64-11.42,31.8-9.05.77.15,1.81-.71,2.64-1.24,9.32-5.94,18-5.55,25.77,2.71.77.81,1.54,1.31,2.33.22,2.4-3.29,3.85-1.07,5.17.94,2,3,3.86,6.16,5.68,9.09C585.55,386.87,583.47,387.31,582.41,388.39Z" style="fill:#fff;"/><path d="M349.28,508.74a109.25,109.25,0,0,1,38-10.32c2.92,1.24,7.84-1.19,8.84,2.62,1.21,4.63-4.06,5.45-7,7-11.44,5.94-22.84,12-34.27,17.88-9.39,4.85-18.59,10.24-28.33,14.46-3,1.29-6.11,2.2-9.21,3.29-3-11.06-.71-16.89,10.4-21.4C335.81,519,342.39,513.76,349.28,508.74Z" style="fill:#e66467;"/><path d="M533.14,434.75c15.85-9.95,30.13-22.39,47.57-29.82,4.09,1.45,2.17,6.75,5.67,8.8,1,.56-.18,2.21-1.34,3.13-11.41,9.08-23.89,16.58-36,24.57-8.28-.52-13.51,5-19.21,9.62-2.62,2.13-4.9.94-7-1.07C527,445.37,530.08,440.07,533.14,434.75Z" style="fill:#e66467;"/><path d="M1470.27,391c0-2,.1-4,0-6-.31-4.95,3.68-8.64,2.94-14.29-.66-5,2.76-10.65,4.71-15.89,1.83-4.92,3.33-10.23,6.32-14.4,7.88-10.94,16.31-21.73,27.88-28.92,4.92-3.06,9.84-6.45,14.92-9.34,10.71-6.09,21.47-5.51,32.65-5,3,.13,6.06.8,9,.34,15-2.4,28.63,2.58,40.67,9.81,14.35,8.61,27.86,19,32.39,37.05,2,8,5.05,15.67,6,24,.47,4.32,2,8.42-1.2,12.28-.39.47-.84,1.54-.65,1.73,5.59,5.76.52,11.93.75,17.87.42,10.62-3.67,19.57-8.85,28.7-3.58,6.31-7.42,12.32-11.48,18.29-4.53,6.66-10.64,10.91-17.16,15.62-13.42,9.71-28.59,12.1-43.83,14.32-6.82,1-14.22.55-21.44-.33-5.15-.63-5.5-5.52-9-6.77-3.94-1.4-5.65,5.11-9.66,3.57-6.76-2.6-13.7-4.58-20.15-8.33-4.66-2.71-.84-8-4-9.15-3.39-1.19-7.36-1.17-9.74-4.21-5.87-7.51-10.81-15.59-13.28-24.94-2-7.74-4.57-15.34-6.18-23.23A58.61,58.61,0,0,1,1470.27,391Z" style="fill:#eeddc5;"/><path d="M203.79,1226.5c0,7.77-5.12,9.36-11.63,10-5.69.59-11.54,4.35-16.21-2.13-.92-1.28-2.21-1.71-3.38-.77-4.93,3.94-8.73.72-13.5-1-19.08-6.89-32.56-20.17-43.84-36.22-1.81-2.58-3.31-5.19-2.52-9.12.69-3.44-3.62-5.81-5-9.22-5.48-13.35-5.15-27-3.13-40.82,1.89-13,7-24.72,14.1-35.63,4.3-6.63,11.26-10.15,17.79-14.11,2.83-1.72,6-3,8.56-5,13.8-10.8,29.2-13.11,46.52-12.13,20.73,1.17,34.84,12.34,46.44,27,8.58,10.84,17.27,22.28,20.5,36.45,3.08,13.5,4.07,27.43,1.53,40.75a57.34,57.34,0,0,1-11.27,24.07,123.77,123.77,0,0,1-28.25,26.21C216.18,1227.69,211.84,1228.11,203.79,1226.5Z" style="fill:#eeddc5;"/><path d="M1190.28,1146c-6.51,1-13.91-2.18-21.49-1.95-6.18.19-6.52-9-11.36-7.53-5.34,1.64-8.91.23-12.93-2.21-4.25-2.59-9-4.71-8.82-10.93a3.13,3.13,0,0,0-1.34-2.48c-12.11-4.94-12-16.74-13.93-26.62-1.8-9.28-3.27-19.39-.44-28.56,5-16.16,9.56-32.55,24.54-43.72,7.2-5.37,14.21-10.82,22.34-14.45,9.21-4.11,18.83-6.33,29-3.19a68.63,68.63,0,0,0,12.64,2.64c25.57,2.78,45.66,21.62,50.39,47.29,1.69,9.18,3.71,18.29-1.48,27.05,2.68,5.58-2.13,10-2.42,15-.72,12.75-10,20.55-16.77,29.66-6.89,9.31-17.53,13.67-28,17.82C1204.18,1146.2,1197.8,1145.78,1190.28,1146Z" style="fill:#eeddc5;"/><path d="M131.18,386.46a5.44,5.44,0,0,1,.09,1c-.15,1.82.33,4.07-2,4.8-1.54.48-2.36-.85-2.4-2.19-.09-3,1.81-3.77,4.43-3.45Z" style="fill:#e66467;"/><path d="M366.37,493.4C355,495.15,350,488,345.61,479.86c-.46-.86-1.19-2.13-.88-2.76,4.45-9,3.51-21.18,15.37-25.74,2.68-1,4.92-4.24,8.11-2.55,4.66,2.47,10.79,1.52,14.47,5.78,3.14,3.65,9.2,7.09,7.59,12-2.12,6.47-.35,14.37-7.47,19.49C377.53,489.87,374.15,496.67,366.37,493.4Z" style="fill:#168395;"/><path d="M542.07,394c7.2,12.4,1.17,29-11.53,35.1-6.68,3.19-15.84,2-22.09-4-4.88-4.67-5.56-10.79-3.72-17.12,4.26-14.61,14.06-20,28.58-15.65,1.91.57,3.69,1.49,5.76,1Z" style="fill:#168395;"/><path d="M584.25,239.58c-10,9.5-29.64,8.71-30.17-8.23a20.61,20.61,0,0,1,6.58-15.27,5.06,5.06,0,0,1,2.7-1.57c2.5-.32,4.12,2.56,4.72,5,1.37,5.61,1,14.88,8.8,14.48C580.53,233.82,582.57,236.67,584.25,239.58Z" style="fill:#4bb7ca;"/><path d="M797.23,354a11.18,11.18,0,0,0,5.88,5,15.7,15.7,0,0,0,9.59,1.18,12.22,12.22,0,0,0,8.57-7.48C827.17,337,788.81,336.69,797.23,354Z" style="fill:#4bb7ca;"/><path d="M1595.37,245.82c6.14,3.25,13.54,3,19.4,7a8.22,8.22,0,0,0,8.71,4.59l2.73.68c-1,4.06-.64,6.34,4.24,3.63.7-.39,1.92.16,2.89.27l12,8.45c1.06,2.71,3.36,3.42,5.94,3.69,6.24,2.93,9.45,9.68,15.8,12.47.77,2.35,1.28,4.89,4.14,5.73a1.47,1.47,0,0,0,1.17.76,59.3,59.3,0,0,0,12.46,17.79l2.77,3.5c2.57,12.47,7.94,24,12.12,35.92l.66,4a4.49,4.49,0,0,0-.2,4.4,3.58,3.58,0,0,0,.26,3.58c-.23,2.63-1.09,5.43,2,7.16l.26,3a3.74,3.74,0,0,0-.26,4.27c-1.37,2.49-1.16,5.18-1,7.87l-3.56,26.05-.58,3.92c-4.43,3.1-2.86,7.9-3.43,12.09-1.85,2-1.77,4.41-1.56,6.87-1.72,1.33-2.66,3-2,5.19l-1.42,3.45c-4.94,2.81-3.2,8.41-5.19,12.46-3.07,2-4.93,5-6.46,8.25-5.55.51-3.18,4.79-3.67,7.71-10.08,12.15-20.07,24.38-32.27,34.56-3.47-.11-5.48,1.9-6.93,4.75a1.63,1.63,0,0,0-1.16.91c-3,.69-5.48,2.15-6.87,5.05l-3.14.1c-2.24-1.46-3.67.09-5.18,1.38-4.56.33-8.22,4-13,3.54-.9-1.31-1.28-3.64-3-3.38-.77.11-1.15,2.81-1.71,4.34a8.08,8.08,0,0,0-4.92,2c-5.09-.88-9.73.49-14.17,2.86l-3.9,1.07c-4.84-1.69-14.67-1.61-23.1.1a2.24,2.24,0,0,1-1.84-.48c-2.88-3.48-5-.94-7.64.53-1.65.94-3.81,1-5.74,1.4-4.31-.66-8.51-2.25-13-1.46-4.73-3.93-9.91-3.26-15.21-1.53-15.22.52-29.82-3-44.4-6.71-2.22-.56-4.5-.91-6.76-1.35-1-1.89-1.72-4.25-4.72-3.46-6.68-3-14.46-2.86-20.74-7.07a26.65,26.65,0,0,1-1.71-3.53c-1.8-5.63-1.77-5.64-7.5-1.61-3.7-.56-5.47-3.61-7.75-6,0-3-2-3.48-4.34-3.6-13.23-10.66-26.1-21.61-32.32-38.19-.83-3.9-.77-8.29-5.49-10.06l-1-3.91c1.38-2.56.6-4.59-1.55-6.28-.39-3.69-1-7.27-3.89-10l-1.3-2.44q0-1.7,0-3.41c2.44-5.28-.34-9.73-2.28-14.31a10.53,10.53,0,0,0-2.33-5.63c-.23-3.51.21-7.11-1.61-10.37,2.78-8.9,1.83-18.27,3.31-27.39s4.93-17.5,6.74-26.4c3.51-1.9,3.38-5.09,3-8.37,2.73-3.21,5.78-6.17,5.55-11-.17-3.63,3.74-5.13,4.83-8.26,1.39-4,4.73-7.16,5.1-11.63,2.57-1.73,5.29-3.34,5.65-6.88,7.16-7.09,14-14.57,21.63-21.1,3.45-2.95,7.15-5.6,10.22-9l2.27-1.73a11.47,11.47,0,0,0,7.48-2.86c2.47.58,4.12-.49,5.26-2.59,10.78-7,22.93-10.51,35.38-12.36,7.82-1.16,15.53-2.89,23.36-3.88,2.93,1.21,5.75,1.5,8.28-.92l31,1.18c3.07,4,7.29,2.64,11.27,2.46l27.64,2.77a4.24,4.24,0,0,0,4.4.83l1.52,1.32C1587.62,246.49,1591.5,246.14,1595.37,245.82ZM1470.27,391a58.61,58.61,0,0,0,1.52,12.78c1.61,7.88,4.13,15.48,6.18,23.23,2.47,9.35,7.41,17.43,13.28,24.94,2.38,3,6.35,3,9.74,4.21,3.15,1.11-.67,6.44,4,9.15,6.45,3.75,13.38,5.72,20.15,8.33,4,1.54,5.72-5,9.66-3.57,3.51,1.25,3.86,6.14,9,6.77,7.22.88,14.62,1.33,21.44.33,15.24-2.23,30.41-4.61,43.83-14.32,6.51-4.71,12.63-9,17.16-15.62,4.06-6,7.9-12,11.48-18.29,5.19-9.13,9.27-18.08,8.85-28.7-.24-5.94,4.83-12.11-.75-17.87-.19-.2.26-1.26.65-1.73,3.22-3.86,1.67-8,1.2-12.28-.91-8.33-3.95-16-6-24-4.53-18-18-28.44-32.39-37.05-12-7.23-25.71-12.21-40.67-9.81-2.89.46-6-.21-9-.34-11.19-.48-21.94-1.06-32.65,5-5.08,2.89-10,6.28-14.92,9.34-11.58,7.19-20,18-27.88,28.92-3,4.16-4.49,9.48-6.32,14.4-2,5.24-5.36,10.87-4.71,15.89.74,5.66-3.25,9.35-2.94,14.29C1470.38,387,1470.27,389,1470.27,391Z" style="fill:#f3b822;"/><path d="M1543.28,1793.29l1.15,3.7c-1.54.36-2.4,1.73-1.77,2.83,2,3.57,2.78,8,6.54,10.47l1.21,2.23c-1.79,5,.59,9.52,1.15,14.24,1.48,12.42,8.5,24.15,5,37.24-.43,1.63,1,3.76,1.58,5.66.48,1.57,1.71,3.39,1.3,4.68-2.64,8.26-.06,16.33.54,24.46a45.08,45.08,0,0,1-.89,13.78c-1.73,7.35-.77,15.18-4.12,22.27-.38.79.88,2.36,1.38,3.57-1.36,2.89-.18,5.8-.06,8.69-3.39,1.29-6.52,2.79-5.48,7.38-4.61,6.82-6.15,14.7-7.74,22.55a2.9,2.9,0,0,0-3,2.08c-5.26,15.88-16.55,28.57-23.13,43.73-2.22,5.11-9,7-9,13.47-1.73,1.59-3.38,3.22-3.4,5.81-1.83,1.16-4,1.94-4.88,4.21a5.78,5.78,0,0,0-3.25,3.64c-3.77,5.11-9.35,7.91-14.53,11.17-1.28.8-2.86.66-3.63,2.61-2.42,6.09-7.14,9.77-13.15,12.24a10.12,10.12,0,0,0-6,6.09l-2.18,1.32a26.87,26.87,0,0,0-11.33,8.93l-2.56,1.87c-3.42-.87-6.5-.52-9,2.3-2.18,2.41-5.26,3.68-8.07,2.32-4.72-2.3-2.18,1.86-3.06,2.93-.4.49-1,1.3-1.38,1.26-3.81-.37-7.89,4.53-10,2.54-5.53-5.24-2.56,4.16-5.32,2.55-.56-.32-1.22-.47-1.77-.79-1.34-.79-2.63-2.35-4.06-.14-3,4.69-8.35,4.8-12.91,6.43-5.79-2.61-11.67.28-17.59-.3-11-1.09-22.18,1.25-33.29-1-4.73-1-9.94.57-14.55,1.26-13.35,2-26.63.22-39.91,1.2-15.71,1.16-31.51,1.08-47.27,1.63-3,.1-6,.23-8,3.06-3.86-4.11-8.29-3.05-12.78-1.39l-3.51-1.5c-.93-2-2.62-1.72-4.14-1.1-5.7,2.31-11.59,1.85-17.53,1.62-6.51-.26-13.14-2.54-19.53.83a1.52,1.52,0,0,1-2.26-1.12c-.59-2.18-2.39-2.85-3.17-.92-1.77,4.36-6.13.77-8.26,3.27-10.36.58-20.59-1.45-31.2.58-7.67,1.47-16.16.11-24.28.79-3.28.27-6.6.14-9.77,1.2-11.37-4.68-23,.39-34.57-.64-9.52-.84-19.3,3.92-29.17.48a3.68,3.68,0,0,0-2.86.09c-5.2,3.64-10.91,1.36-16.39,1.57-15.9,3.87-32.18.59-48.17,2.52-11.81,1.43-23.42-.18-35.13-1.16-6.77-.56-13.66,1.2-20.61,1.06-8.17-.16-16.38-1.58-24.56.09a4.73,4.73,0,0,1-2,0c-6-1.42-7.17-1.47-10.48-.29-1.53-3.14-6.05,1.08-7.24-2.94-.42-2.72,1.73-4,3.06-5.85a2.38,2.38,0,0,0-.27-3.5c-1.58-1.23-3.16-.67-4.45.45-2.92,2.54-2.18,6-2,9.23v.11c-1.16-.58-2.31-1.21-3.5-1.74-6.37-2.84-6.37-2.83-9.13,4.56l-5.7.27c-3.5-4.54-5.21-4.71-10-1l-5-.33c-.4-3.27,1.28-7.37-3.51-8.89a.84.84,0,0,0-.74.35c-1.87,4.17,2.46,5.2,3.92,7.69.16.28.3.57.45.85a1.35,1.35,0,0,0-1.11,1.12c-8.66-1.63-17.3.31-26,.24l-5.76-.29a2.32,2.32,0,0,0-3.46.67c-2.25-1.12-2.86-6.84-7.07-2.52a1.26,1.26,0,0,1-1,.17c-13.79-2.16-27.45,1.68-41.2.9a44.3,44.3,0,0,1,10.37-18.61c9-9.77,16.93-20.5,27.72-28.44,8.81-6.47,13.19-17.25,23-22.74,7.73-4.32,10.9-12.91,16.37-19.35,4.34-5.11,11.24-7.94,13.81-14,3.53-8.35,8.73-15.41,13.86-22.67,6.61-9.33,11.05-19.84,16.16-30,3.91-7.79,7-15.45,7.32-24.28.14-3.46-3.22-9.16,4.25-9.9,1.25-.12.77-1.71.18-2.46-4.54-5.81-2.55-11.27.93-16.56,1.37-2.09,1.76-3.4.2-6.05-3-5.13-3.87-11.65-1.74-16.91a15.94,15.94,0,0,0-.26-14c-3.13-7-3.28-15-2.95-22.29.17-3.7.92-6.87-.41-10.73-2-5.91-4.3-12.31-3.89-18.33.44-6.39-7.22-11.91-1.43-18.6,1-1.11-1.08-2.77-2.13-4.08-6-7.6-10.26-15.85-11.32-25.87-.76-7.14-2.71-14.28-7.89-20-2.39-2.66-4.73-5.83-1.8-9.8,1.1-1.49.22-2.38-1.37-2.71-3.61-.77-4-3.82-5.13-6.66-4.18-10.82-11.17-20.4-14.12-31.8-.69-2.66-3.08-4.41-5.21-5.91-3.37-2.36-6.46-4.55-6.55-9.29-.05-2.46-2.2-4.12-4-5.55-3.87-3.1-5.82-7.26-6.89-11.84-1.25-5.38-4.25-9.68-7.56-13.89-3.43-4.38-7.39-8.45-9-14-2.48-8.6-6.43-16.54-10.88-24.24-7.66-13.27-13.95-27.27-16.47-42.29-1.21-7.21-5.74-13.87-4.49-21.19,1.46-8.54-2.29-17.21,1.19-25.6a2.2,2.2,0,0,0-1.63-3.08c-1.46-.34-2.87.14-3.23,1.54-1,3.8-3.78,6.15-6.22,8.87-7.08,7.88-14.13,15.73-21.7,23.22-14.59,14.46-27.92,30.19-42.33,44.87-6,6.13-11.69,12.63-17.52,18.92-9.22,9.93-18,20.26-27.63,29.88-3.73,3.73-8.37,6.6-11.13,11.27-6.64,11.24-17.38,18.88-25.45,29-7.36,9.18-17.08,16.39-24.52,25.85C551,1743,532.75,1758.27,521,1778.87c-2,3.52-5.45,4.69-9.08,5.49-1.93.42-4.11.25-5.82,1.08-9.2,4.46-19,5.21-29,5.19-4.34,0-7.73-1.44-9.09-5.82,1.16-2.77,4.56-1.69,5.74-3.83,3.14-5.69,8.16-9.51,12.89-13.71a15.25,15.25,0,0,0,4.25-6.66c2-6.67,4.65-13.15,6.93-19.7,4.38-12.55.21-24.13-4.39-34.59-7.21-16.4-21.63-25.48-39.08-29.77-13.39-3.3-24.61-.06-35.06,8.82-12.88,11-20.37,24.08-20.13,41.28,0,2.47.78,5.35-2.18,8-5-3.35-10.93-4.74-15-10.33-2.47-3.4-5.53-6.33-7.49-10.25-3.86-7.74-10.74-13.36-15-20.91-1.93-3.41-6.84-3.16-9.76-6.38-5.35-5.91-10.23-12.44-16.15-17.62-15.78-13.83-29.16-29.81-43-45.37-3.72-4.17-8.38-7.26-11.77-12-7.46-10.38-13.7-21.93-25-29.06a12.67,12.67,0,0,1-4-4.39c-7.71-13.64-20.74-22.12-31.55-32.75l-4.73-7.27a2.05,2.05,0,0,0-2.25-1.64c-11.82-11-19.2-25.75-31-36.77-3.85-3.59-4.07-9-6.67-13.23a3.68,3.68,0,0,0,.15-4.42,1.46,1.46,0,0,0-.38-1.81c-.44-2.12-.6-4.34-2.09-6.1.64-9.77-2.61-20,2.3-29.22,3-5.61,4.48-12.64,11.36-15.54,2.53.18,3.3-1.2,3.1-3.46l5.09-4c3.26,1.11,6.71,1.08,9.39-.85,4.59-3.32,9.17-2.25,14-1.16,4.41,1,8.94,1.43,12.49,4.87,1.29,1.25,3-.15,4.48-.74,5.51,4.54,12.17,5.53,18.78,4.72,9.52-1.17,18.91-2.42,28.43-.17,3.36.8,5.81-3.18,9.34-2.23,2.38,1,4.73,1.27,7-.21,2.72.57,4.61-.9,6.42-2.59,2.81,2.53,5.51,5.52,9.71,2.38l6.32-.59c9.36.95,18.71,1.34,28-1l4.07-.17c3.12,1.09,6.23,1.55,9.3-.14,4.8-1,10.48,3,14.29-.83,3.43-3.47-.1-8.8.5-13.22.87-6.37-1.09-13.08,2.31-19.13,4.19-2.12,3.1-5.29,1.71-8.53l1.76-4.48c3.42-.41,3.55-2.82,3.31-5.45,1.52-1.65,2.85-3.54,5.08-4.35l.38.71-.15-.73,3.56-3.57-.13.14,7.86-7.38c1-.5,2.52.13,3.17-1.3l.64-.35c6.59-1.65,13.4-2.53,19.59-5.6a34.92,34.92,0,0,0,10.81-1.06c2.09,1.08,4,.55,5.7-.8l42-.23c4.75,1.07,9.5,1.44,14.21-.2l3.81.1c7.41,3.89,14.73-.55,22.55-.27-5.42-.76-3.8-7.74-8.63-8.67l-1.37-2.36c.78-3.08-.79-5.26-2.77-7.29q.06-12.84.12-25.67a1.72,1.72,0,0,0,.93-1.34c1.65-1,1.46-2.54,1.16-4.1l1-1.9a1.85,1.85,0,0,0,1.45-1.11c4.47-3.33,6.43-8.37,8.93-13l.56-.57c3.08-.57,5-2.69,6.54-5.16a1.76,1.76,0,0,0,1.33-.87,7.27,7.27,0,0,0,5.61-3.57c15.53-6.92,30.21-4.72,44,4.48,16.65,11.09,22.53,27.21,20.66,46.53-.79,8.21-6,14.25-11.46,19.87a12.69,12.69,0,0,0-3.85,6c21,0,41.47.25,62-.14,6.73-.13,12.82,2.55,19.5,2.79,4.32.15,6.9,5.64,9.55,9.41-.72,1.23-.52,2.18.87,2.76l4.87,7.91c.13,2-3.63,3.57-.74,5.94l.5,7.57c-1.8.31-2.58,1-1,2.64-.44,5,.59,10.25-1.61,15.1-1.15.68-1.87,1.48-.63,2.73,0,1.89-.13,3.74-1.42,5.27l-.2.32-.94,1.88c-3.29,2.22-6.06-2.84-10-1.14,8.09,6.25,8.14,5.72,16.27,6.4,11.27,1,22.22-.78,33.19-2.62,5.86-1,12,.33,17.63-2.3l12.36-1,.1.57,0-.58,5-1.78c1.51.64,3.37,2.21,4.46,1.78,9.68-3.74,20.12-1.31,29.88-4,3.41,2.47,6.9,1.15,10.38.21,9.81,1.62,19.61,3.65,29.62,1.57l3.91-1.37a20.44,20.44,0,0,0,7.91,0,136.71,136.71,0,0,1,22.71-1c14.57.28,29.05,1.72,43.55,3l4.14-.22.71.52.88-.08c2.12.9,4.19.5,6.26-.2l8.06.59,3.58.21a2.87,2.87,0,0,0,4.11,0l4.25-.68a4.91,4.91,0,0,0,3.5,2.9c.22,4.27.22,8.56.7,12.79,1.13,9.88,7.08,15.1,17,15.14,6.88,0,13.76,0,20.64-.06,7,3.54,14.42,2,21.5,1.29,27.09-2.58,54.26-3,81.41-3.33,35.51-.43,71-1.63,106.46-2.82a275.68,275.68,0,0,0,32.34-2.89c6.28-1,10.86-4.63,16.3-6.85,2.45-1,3-3.12,3.26-5.65,1.8-16.89,1.85-16.9,17.83-21a20.81,20.81,0,0,1,3-.33l.84,1.38.84-1.32,51.89-.58,2.91-1.11c9.81,3.86,19.81-.16,29.75.53,5,.35,10.24-.11,15.37.43l2.19,0a.82.82,0,0,0,.9.55l.17,1.35,0-1.37c7.55-1.11,15.58,2,22.75-2.58l2.3.07c3.25,3.43,5.95.24,8.83-.73,1.39,3.48,4,4.07,7.3,3.12l15.34,4.55c.86,2.14,1.71,4.28,4.66,2.5,1.79.69,4.25.64,5,2.69,2,5.43,7.57,5.72,11.45,8.42.21,2.62.19,5.36,3.49,6.26,5.1,5.77,3.8,13.76,7,20.19l-.64,2-.81,3.53c-2.81,3.31-.24,7.11-1,10.61s-1.86,6.74-.78,10.26c-1.8.21-4.25-1.39-5,1.79-.11,5.27-4.82,7.64-7.22,11.46a2.58,2.58,0,0,0-1.73,2.26l-.1.13c-6.26.1-11.05,6.76-18.45,3.55-1.74-.75-5.16,4.23-9.2,4.5-4.36.29-5.05,2.48-3.28,6.82,4.3,10.52,9.95,21.05,5.69,33-.59,1.67.45,1.35.79,2,6.27,11.22,10.57,23.09,11.52,36,.44,5.94.24,12,4.18,17.08,1.33,1.72,1.27,3.42.32,5.51-2.58,5.7-1.31,9.56,4.4,14.93a1.8,1.8,0,0,0,1.52.88c1.46,3,4.54,4.85,5.53,8.18,4.31,14.55,14,25.93,22.41,38.08l1.89,3.3c.32,5.16,5.08,6.05,8.21,8.51.06,1.93-.21,3.92,1,5.63,2.68,12,7.41,22.85,16,32,2.35,2.5,7.44,5,4.73,10.35-.71,1.41.24,2.6,1.49,3.19,7.91,3.74,12.45,9.85,13.83,18.54a8.55,8.55,0,0,0,3.08,5c6.19,4.6,5.52,14.53,13.79,17.47.67.24,1.19,1.67,1.29,2.6.87,8.15,7.31,14,8.89,22,.46,2.3,1.49,5.22,4.4,6.28l.5.38A1,1,0,0,0,1543.28,1793.29ZM1120.73,1813c-.71-.54-1.49-1.59-2.24-1.57-1.19,0-1.19,1.24-.74,2.14a2,2,0,0,0,2.3,1.26C1120.39,1814.71,1120.47,1813.76,1120.73,1813ZM866.39,2118.9l-.15-.66-.2.66Z" style="fill:#168395;"/><path d="M1082.33,743.77l-9.39,3c1.19-4.36-1.33-6.54-5-6.89-8.75-.83-15-6.36-22-10.61-8.44-5.12-15.53-11.39-18.87-20.89-2.74-7.8-5.19-15.73-7.22-23.75-1.36-5.39,1.61-10.73,6.25-12a250.06,250.06,0,0,0,37.16-13.19c5.74-2.58,11.24-5.75,17.1-8,27.23-10.47,54.55-20.69,81.81-31.07,4.33-1.65,8.38-4.25,12.82-5.33a271.62,271.62,0,0,0,26.29-8.3c8.11-2.87,12.84-8.89,16.63-16,2.19-4.13.92-6-3.88-6.29a10.6,10.6,0,0,0-6.52,2c-6.59,4-13.9,6.25-21.17,8.72-21,7.12-42,14.18-62.72,22.11q-21.85,8.37-43.21,17.83c-13.61,6-27.91,10.58-40.37,19.09-3,2-6.4,4-9.85,4.59-8.8,1.44-12,7.23-13.28,15-.32,2-.35,3.92-2.9,4.58-17,4.38-33.61,10.35-51,13.39-4.24.74-8.62.71-12.94.94-1.62.08-3.55.23-4.08-1.85-.48-1.88.91-3.24,2.28-4,8.89-5.21,17.39-13.16,26.91-14.71,13-2.11,21.92-12.61,34.89-13.59,3.07-.23,4.54-3,1.95-5.87-10.24-11.46-11.86-26.5-16.56-40.2-2.07-6-1.31-12.5,1.6-18.51a11,11,0,0,1,7.06-6.24c14.39-4.84,29.09-8.84,43-15.13,10.28-4.65,20.69-9.11,31.29-13,11.82-4.29,24-7.74,35.66-12.29,22-8.59,44.7-14.74,66.81-22.82,7.2-2.63,10.34-7.76,14.73-12.4,1.82-1.93.55-4.34-.64-6.48-1.37-2.46-3.22-1.62-5.15-1.11-7.31,1.93-14.89,2.93-21.85,6.11-3,1.38-5.93,3.33-9.1,4-15.69,3.38-30.11,10.39-44.79,16.31-33.15,13.38-66.13,27.19-99.42,40.24-2.16.85-4.4,2-6.62,2-7.54.17-12.07,3.15-13.49,11.06-.69,3.87-3.47,6.93-7.5,8.77a502.84,502.84,0,0,1-53.82,20.54c-3.93,1.27-7.87,1.23-11.86,1.05-1.29-.06-2.76-.17-3.12-1.84a3.22,3.22,0,0,1,1.65-3.33c4.31-3.1,8.34-6.55,13.21-8.93,14.94-7.32,30.44-13.34,45.71-19.89,3.66-1.57,7.31-2.93,9.6-6.61-.73-.91-1.22-2.17-2-2.34-11.14-2.55-13.57-12-17.43-20.8-4.78-10.91-6.46-22.15-6.63-33.86-.11-7.1,2.49-12.5,9.2-15,10.16-3.85,19.49-9.53,29.87-13,17.28-5.72,34.23-12.48,51.61-17.85,8.43-2.6,14.81-8.83,23.31-11,22-5.64,42.19-15.87,63-24.56a30.67,30.67,0,0,0,12.13-8.55c3.48-4.22,5-9.81,2.35-11.44-3.72-2.27-7.95-1.21-11.14,1.22-12.1,9.17-26.74,13.08-40.11,19.58-10.7,5.2-22.86,7.52-33.25,13.18-14.46,7.89-29.69,13.13-45.26,17.95-7.28,2.25-14.46,5-21.64,7.51-10.3,3.65-20.24,8.58-30.72,11.16-6.71,1.65-9.7,4.4-10.95,10.45-.76,3.65-1.82,7.37-5.38,9.17-13.11,6.63-23.12,17.78-36.28,24.37-10.37,5.19-20.75,10.44-30.49,16.81-1.33.87-3.1,1.57-4.61.22a3.57,3.57,0,0,1-.62-4.6c3.35-5.72,6.13-12.11,11.66-16,7.07-4.95,14.18-9.9,21.43-14.55,10.87-7,21.31-14.5,31.61-22.23,6-4.48,5.57-5,0-9.91A70.7,70.7,0,0,1,927,449.17c-2-5.95.3-11.73-1.85-17.44-2.56-6.81-2-8.75,3.91-12.42,7.31-4.54,14.67-9.34,22.62-12.44,25.67-10,49.43-24.35,75.69-32.94,4.22-1.38,4.17-4.29,2.8-8-1.27-3.43-2.38-6.34-6.91-4.91-5.37,1.69-10.72,3.46-16.14,5-15.47,4.28-29.41,12.29-44.26,18.07-23.05,9-44.58,20.43-62.43,38a10.94,10.94,0,0,1-2.62,1.43l-3.26-2.72-.5-4c-.72-9.52-5.56-17.61-9.13-26.14l-.7-3.9c-.71-6.63-2.12-13.41-6-18.62-8.59-11.62-13.61-24.84-19.09-37.93-1.86-4.45-2.91-9.48-7.47-12.33a1.74,1.74,0,0,0-.9-1.23c-1.1-9.26-5.51-16.86-11.75-23.55l-2.22-2.46c.39-6.75-1.64-12.44-7.28-16.54a2.2,2.2,0,0,0-.88-1.42A7.74,7.74,0,0,0,827,267c-3.82-5.13-4.43-11.14-4.27-17.07.19-7.16.35-14.79,4.55-20.83,4.85-7,10.06-13.93,18-18,5.73-3,9.29-9.65,16.82-9.66,1,0,2.08-1.52,3.14-2.31,14.93-11.06,32.53-11.89,49.21-8.82,19.92,3.66,38.22,12.75,52.61,28.08,1.95,2.07,5,3.13,7.52,4.65l.09.08c.51,2,2.29,3.21,3.34,4.84,3.29,5.12,7.27,9.76,10.59,14.88,5.63,8.69,10.16,18,15.88,26.57a1.48,1.48,0,0,0,.87,1.09c.73,9.43,2.4,18.59,7.37,26.87a5.51,5.51,0,0,1,.53,2.9c-.38,10.34,5.75,19.62,4.94,30.07-.08,1,1.41,2.09,2.17,3.14l1.27,3c0,6.88,1,13.51,4.92,19.39.8,1.2,1.85,1.88,2.55-.19,3.69,1.47,7.31.56,10.34-1.32,11.57-7.16,24.72-9.4,37.57-12.61,3,.89,5.53-1.81,8.62-.72,3.37,1.19,3.48-1.9,4.31-3.89l3.1-1.23c3.44,0,7.24,2,10-1.8,2.65-.2,5.38.58,7.94-.69l18.37.29,3.94.52c1.83,1.94,4,1.5,6.13.78,1.84,1.15,3.88,1.11,5.93.94a3.36,3.36,0,0,0,4,1.69l18.17,14.85c5.16,8.64,6.5,18.66,10.07,27.88a21.73,21.73,0,0,1,.15,15.59c-2,5.59-3,11.54-4.06,17.4-.51,2.74,1.23,3.44,3.67,2.4h6c1.89,3.07,4.87,2.73,7.82,2.49l2.36,2.21c-.13,1.86.86,2.8,2.4,3.8,6.55,4.2,13.08,8.88,16.92,15.6,4,7,10.74,13.23,9.16,22.69-.15.87,1.44,2,2.22,3.05l.3,2.25c-2.14,1.11-3.66,2.37-1.16,4.64l.43,6.24c-3.21,6.78-5.72,13.95-10.57,19.85l-1.24,3c-1.94,5-1.54,5.47,5.34,5.75l1.88,1.21c4.42,5.65,9.29,10.78,15.91,13.91l2.22,2c1.78,7,7.68,12.87,6.21,20.94-.05.28,2.15,1,3.31,1.47l.61,9.77c-3.08,6.36-4.29,13.19-5.11,20.12-1.57,1.66-3,3.39-3.2,5.81-1.46,4.64-.76,5.19,6.18,4.86,6.23,2.7,11.35,6.62,14.18,13-.78,4.87,2.2,7.6,5.72,10l.65,3.9c-.71,2.3-.45,4.38,1.41,6.09a10.41,10.41,0,0,0,1.25,5.84,4.49,4.49,0,0,0-.55,4.4l-.22,8c-3.44,4.61-5.22,10-7.13,15.31l.42.32-.46-.26c-4.26,2-4.73,6.3-5.89,10.15-2,1.57-4.79,2.73-5.91,4.79-3.12,5.73-8.86,8.19-13.49,12-3.58.15-5.76,1.82-6,5.55l-.09.09c-3.55.74-6.77,2-8.89,5.2a7.25,7.25,0,0,0-4.94,1.84c-2.59-1.15-4.08-.19-4.72,2.44l-3.27,1.52a17.61,17.61,0,0,0-13.14,6.14l-2.95,1.4c-4.09.51-8.4.53-10.81,4.81-4.54,3.22-10.47,2.64-15.13,5.53-5.06-1.94-8.1.82-10.7,4.6l-11.33,3.24c-4.46,1-9.77-.3-12.72,4.73l-5.22,1.65c-1.75-.86-3.14-.49-4.09,1.25l-3.92.93c-2.39-1.35-3.83,0-5.15,1.79-3.88.56-7.74,1.15-10.86,3.85a3,3,0,0,0-4.13,1.21,16,16,0,0,0-9.87,2.88C1085.15,740.94,1083.54,741.86,1082.33,743.77ZM978.13,315.66a51.48,51.48,0,0,0,1.73,18.71c1.18,3.86,3.12,2.47,5.14,1.14s1.68-3.46,2.22-5.34c1.92-6.63.69-13.16-.47-19.72-1.75-9.87-4.32-19.45-9.43-28.18-.84-1.43-1.77-3.28-3.73-2.27s-.74,2.74-.41,4.33C975.32,294.69,978.79,304.85,978.13,315.66ZM961,308.72c-1.45,1.85-2.53,2.59-2.55,3.36-.38,11.86-1.47,23.76,1,35.53a13.29,13.29,0,0,0,1.24,3.72c1.57,2.81,3.62,2.83,5.21.16a13.91,13.91,0,0,0,1.81-5.61C968.92,333.34,967.45,321.24,961,308.72Zm-22.63,57.91c5.23-9,5.51-10,4.28-27.61-.32-4.58.89-9.86-3.68-13.71-3.43,6.76-7,26.08-5.87,31.76C933.79,360.75,933.25,365.29,938.33,366.63Zm181.43,123.18c-.49-1.23-1.29-2.21-2.7-2.07a1.51,1.51,0,0,0-1.2,2,2.38,2.38,0,0,0,2.67,2C1119.56,491.68,1120,490.87,1119.76,489.81Z" style="fill:#f3b822;"/><path d="M542.71,287.94a10.88,10.88,0,0,1,6.21,7.17c2.29,7.32,6.1,14,12.15,18.94,5.53,4.53,7.48,11.71,12.34,16.48,8.83,8.67,13.58,20,20.29,30,2.53,3.77,4.48,4.54,8.66,3.33-5,8.77-5,8.73,1.21,15.94,1.25,1.47,2.9,3.48,2.76,5.11-.55,6.37,3.22,10.73,6.73,14.9,4,4.7,4.81,10.7,5,15.69.67,18.56,9.62,34.09,17,50.08,1.94,4.19,5.31,8.52,8.53,12.41,2,2.42,3.18,5,2.46,8.25l-1.9,3.4c-5.92,16.94-15.42,32.16-23.33,48.13-4.62,9.33-11.83,17-19,24.22A140.6,140.6,0,0,0,591,574.61c-7.83,10-18.35,16.94-27.3,25.61-4.37,4.24-10.16,7-15.35,10.41-1.1.71-2.74.82-3.52,1.73-2,2.3-6.48,3.05-5.11,7.52,1.6,5.24,5.91,9.09,10.4,9.09,15,0,29.22,5,44,6.08,10.67.81,20.79,4.63,31.42,5.11,11.25.51,21.9,4.31,33.19,5.09,6.76.47,12.76-.2,18.08-3.2,12.79-7.22,26.42-12.39,39.9-17.95,7-2.9,13.68-6.62,20.92-9.17,13.38-4.71,26.88-9.32,39.67-15.37s26.18-10.79,38.6-17.82c15.53-8.79,32-15.86,48.5-22.66,1.64,8.12.32,16.57,2.68,24.6,4.21,14.36,10.78,26.7,26.5,31.46,2.38.72,5.32.7,7.62,4.26-8.68,8-9.23,18.73-7.66,29.72,1.38,9.63,4.89,19.18,12.08,25.4,4.07,3.52,5.86,6.34,5.91,11.09l-4.28.83c-8.34-.6-16.76-1.64-23.86,4.44a15,15,0,0,0-8,.39c-6.37-.49-12.77-1.12-18,3.87-4.68-.38-9.38-1.08-14,.53-2.58-1.57-3.93.08-5.18,2-3.45,1.49-7.44.1-10.81,2-3.51-.88-7-1.76-10.11,1.14l-12,2.41c-1.78-.87-3.12-.33-4.12,1.28a14.35,14.35,0,0,0-9.92,3.65c-2.39,2.13-5.22,2.56-8.22,2.64a22.41,22.41,0,0,0-19.85.49l-3.81.4c-1.74-.8-3.14-.5-4.1,1.26l-5.94.46c-1.89-1-3.18-.32-4.08,1.44l-3.92.63c-10.3-1.17-19.25,2.86-28.1,7.28-2.6-.2-3.77,2-5.46,3.28-2.56,2-5.32,3.38-8.71,2.63-.83-2.36-1-5.32-4.17-5.86-4.95-.85-9.93-3-14.92-.09-4.12-2.19-6.3-4.44-4.91-10.18,1.89-7.83.92-15.81-6.19-21.71-2.26-1.87-3.89-4.52-5.74-6.86-9.73-12.32-20.7-22.68-37.46-24.16-3.52-.31-6.89-2.09-7.83-5.38-2.36-8.17-8.65-7-14.54-6.82-4,.1-5.4,2.09-3.37,5.87,1.54,2.88,3.41,5.41,1.85,9.23-4.27,10.47-5.41,21.82-8.51,32.64A30.1,30.1,0,0,1,585,709.54c-15,14.12-32.4,23.63-51.88,30.09-14.36,4.76-28.44,7.19-43.11,1.92a17.57,17.57,0,0,0-5.87-.77c-13.52,0-21.55-8.38-28.44-18.47-5.56-8.14-11.6-15.48-22.69-15.45l4.19-4.47c3.29.15,6.31-.21,7.45-4l4.44-4.17c4.58-.24,7.23-3,9.1-6.88,4.61-1.73,7.79-5.31,11.14-8.66,3.48-.41,5.1-2.9,6.42-5.72a8.36,8.36,0,0,0,5.46-6.44c1.7-.86,2-2.33,1.7-4a1.73,1.73,0,0,0,.85-1.22c3.25-1.33,3.37-4,2.83-6.85a2.83,2.83,0,0,0,.71-1.8c2.76-.21,3.88-1.7,3.75-4.45-.11-2.56,0-5.13.07-7.69a2.77,2.77,0,0,0,.89-.21c.15-.09.14-.42.2-.65l-1,1c-8.83,2.09-17.89,3.38-26.07,7.66l-9.8,1.15c-6.14-1.71-12.14,3.49-18.34.4-.25-.12-1,.75-1.49,1.13-5.81,4.24-12.37,3.88-19,3-2.54-.35-5.12-1.95-7.29.79l-5.88.81a12.7,12.7,0,0,0-8.36,0l-5.84-1c-2.27-3.48-5.25-2-8.14-1.15l-3.91-.65c-2-5.94-5.13-2.87-8.12-1.07l-3.89-.87c-2.33-2.53-5.22-1.89-8.08-1.45l-3.83-1-4-7.14c-3.46,4-7.56,5-12.29,2.49-1.83-1-3.86-.83-5.86-.61-2.81-3.24-6.56-2-10-2.05-.89-1.68-2.2-2.34-4-1.61l-3.85-.84a3.64,3.64,0,0,0-2.68-2c2.4-10.81,6.06-21.32,7.33-32.39,1.05-9.21,1.53-18.32-.87-27.44A47,47,0,0,1,315,564a43.32,43.32,0,0,0-3-16.45c-3-7.92,0-16.55-3-24.52-1.07-2.82.72-7.07-4.48-7.37-.31,0-.93-1.13-.79-1.47,5.34-13-8.15-20.94-8.56-32.35-5-3-2.73-8.65-3.49-12.63-2-10.43-7-19.92-8.37-30.41,9.72-.12,16.13-7.23,23.46-11.87,12.24-7.74,24.59-15.41,37.69-21.32,16.11-7.27,30.6-17.73,47.44-23.45a8.64,8.64,0,0,0,2.45-1.56c2.86-2.29,11.46-5.58,16.2-6.15-.93,10-.43,19.72,6.67,27.64,2.6,2.9,4.24,5.85,4.17,9.69a14.19,14.19,0,0,0,2.16,7.56c4.51,7.42,4.18,16.62,9.08,23.9A7.61,7.61,0,0,1,433,450c-1.2-.47-2.95-.59-3.51-1.47A20.11,20.11,0,0,0,414.1,439a8.24,8.24,0,0,1-4.3-2.28c-3.14-3-6.82-3.81-11-3.54-24.36,1.61-46.23,10-66.16,23.91-6.89,4.82-13,9.87-15.27,18.58-1.23,4.74-4.75,8.14-1.14,14.31,2.82,4.81,4.94,9.5,9.53,13,7.09,5.44,15.17,5.85,23.5,5.69-6.89,5-13.47,10.21-21.64,13.53-11.1,4.51-13.36,10.34-10.4,21.4,3.1-1.1,6.23-2,9.21-3.29,9.74-4.22,18.94-9.6,28.33-14.46C366.21,520,377.61,514,389,508c3-1.54,8.25-2.36,7-7-1-3.81-5.92-1.38-8.86-2.62a22.92,22.92,0,0,1,7.59-4.45c6.25-2,12.46-4.55,17.76-8.46s13.19-6.95,13.82-14c.71-7.94,5.06-14.25,6.5-21.64.25.21.65.38.74.65,7.12,20.25,4.66,40.62-1.54,60.19-3.54,11.16-.59,19.77,4.06,28.87a7,7,0,0,0,5.5,3.94c3.79.3,7,2,10.2,3.73a7.87,7.87,0,0,0,5.8.39c11.22-2.75,20.57-7.66,27-18.11,3.3-5.37,4.24-9-2-13.29,6.2-.38,10.35-2.52,10.22-7.46-.31-12.3.71-25.08-7.7-35.68a4.34,4.34,0,0,1-.93-4.54c1.87-5.35-.89-9.62-3.52-13.82-1.76-2.81-4-5.37-3.71-9,5.76,1.11,11.2,3.17,17.47,2.17,9.87-1.57,18.72-5.51,27.64-9.54,3.54-1.6,6.79-4.18,11-3.68-3.06,5.32-6.13,10.62-10.33,15.24,2.08,2,4.36,3.2,7,1.07,5.7-4.64,10.94-10.15,19.21-9.62,12.15-8,24.63-15.48,36-24.57,1.16-.92,2.29-2.58,1.34-3.13-3.5-2-1.59-7.35-5.67-8.8a47.37,47.37,0,0,0-.65-6.94,10.29,10.29,0,0,1,2.36-9.61c1.06-1.08,3.13-1.52,2.7-3.94-1.82-2.92-3.68-6.06-5.68-9.09-1.32-2-2.77-4.23-5.17-.93-.79,1.08-1.56.59-2.33-.22-7.81-8.26-16.45-8.65-25.77-2.71-.83.53-1.87,1.39-2.64,1.24-12.16-2.37-21.46,5.15-31.79,9.05-9.7,3.66-15.76,13.87-26.93,15-.82.08-1.52,1.24-2.31,1.85-7,5.4-12.51,11.66-13.57,21-.29,2.55-1.83,5-2.79,7.42-3.56-1.64-4.94-5.15-7.14-8-3.41-4.46-4-10.56-8.84-14.17-4-3-6.56-7.23-9.06-11.66-2.85-5-6.41-9.56-12.64-11.87-5.86-2.18-11.63-4.81-17.52-7.06,3-5.86,9.21-7.08,14.26-10.07,10.74-6.35,20.67-14.13,33-17.42a14.17,14.17,0,0,0,6.09-3.3c5.59-5.5,13.15-7.66,19.42-11.95,3-2.07,6.9-2.08,9.81-4.65,7.06-6.2,15.57-10.13,24-14.05,10.78-5,20.85-10.57,23.75-23.5C541.42,288.76,542.23,288.39,542.71,287.94ZM553.61,464c-3.44,5.15-6.33,9-6.07,13.73.35,6.43-1,12.67-2.22,18.74-1.49,7.36.28,15.42-4.62,22.14A64.73,64.73,0,0,0,533,533.58c-1.94,5-4.63,11.59-8.67,13.91-7.61,4.38-12.61,11.75-20.37,15.57-4.4,2.16-9.64,2.31-13.52,5.78-1.45,1.3-3.46,3.36-4.86,3.11-6.79-1.24-11.85,3.19-17.68,4.86-10.52,3-20.81,4.25-31.84,2.66-13.15-1.89-25.61-6.45-38.66-8.51a18.56,18.56,0,0,1-9-3.93c-3.47-2.83-8.3-3.46-10.87-8.07-1.62-2.91-9.49-3.19-10.93-1.06-2,3,.11,5.47,1.51,8.16,3.58,6.9,9.4,12.14,14.93,16.87,3.83,3.27,6.35,8.14,11.7,10.14,8,3,14.79,8.27,23.51,10.1,4.32.9,10.17.68,12.84,3.27,5.49,5.31,10.89,3.53,16.66,2.65,2.95-.45,6.5-2.52,8.67-1.5,8.26,3.89,15.23-.34,22.64-2.25a37.46,37.46,0,0,1,7.87-1.1,33.77,33.77,0,0,0,21.8-8.53c2-1.77,3.88-3.7,6.87-3.55,4.88.25,7.91-2.76,10.91-6,2.69-2.94,5.32-6.12,8.56-8.33,8.32-5.68,14.49-12.61,16.19-22.9a6.59,6.59,0,0,1,1.8-3.46c4.31-4.12,4.89-10,7.51-14.8s-2.39-10.91,3.66-14.25c-.73-8.66,5.11-17.37-.19-26a4.66,4.66,0,0,1-.4-2.85C565.09,482.38,558.26,474.41,553.61,464Zm271.23,187c-.81-2.21.64-5.63-2.66-6.54-2-.56-2.7,1.48-2.25,3.15.67,2.48-1.56,6.37,2.66,7.12C824.42,655.15,824.59,652.74,824.84,651.09Z" style="fill:#f3b822;"/><path d="M433,706.86c11.09,0,17.13,7.3,22.69,15.45,6.89,10.09,14.92,18.49,28.44,18.47a17.57,17.57,0,0,1,5.87.77c14.66,5.27,28.75,2.84,43.11-1.92,19.48-6.46,36.9-16,51.88-30.09a30.1,30.1,0,0,0,8.35-14.13c3.1-10.81,4.24-22.16,8.51-32.64,1.56-3.82-.31-6.36-1.85-9.23-2-3.78-.64-5.77,3.37-5.87,5.89-.15,12.18-1.36,14.54,6.82.95,3.29,4.31,5.07,7.83,5.38,16.76,1.47,27.72,11.83,37.46,24.16,1.85,2.34,3.48,5,5.74,6.86,7.11,5.89,8.08,13.87,6.19,21.71-1.38,5.74.79,8,4.91,10.18-.37,2.56.57,5.6-1.71,7.51a6.82,6.82,0,0,0-2.16,7.23c2.54,8.29-1.46,15.69-2.83,23.31-1.58,8.75-2.4,8.58,4.88,13.66,4.37,3.05,7.86,6.56,10.09,11.8,1.67,3.92,4.16,8.23,8.87,10l1.9,2.46a69.36,69.36,0,0,1,9.84,22c2.05,8.56,7.69,16.26,11.76,24.34a2.19,2.19,0,0,0,.81,1.48c2.49,5.2,4.67,10.6,9.27,14.45a2.45,2.45,0,0,0,.88,1.5,54.91,54.91,0,0,0,13.43,19.07c2.61,2.34,4.72,4.4,4.46,8.19-.13,1.87,1.39,2.84,3,3.46l1.84,3.15c.1,4.76,2.13,8.11,6.89,9.48l4.16,2.71c1,2.65,3.17,3.54,5.82,3.59l6.3,6.39c.32,5,.4,9.49-5,12.67-2.82,1.65-6.16,5.74-6,8.53.42,7.3-5,11.07-7.7,16.43l-3.52,3.17c-7-1.74-12,3.36-17.88,5.27-1.9-2.26-3.74-5.52-7.21-3.33-4.63,2.91-11.27,2.52-14,8.65-.84,1.9-3,2.4-5,3-6.68,1.88-13.25,4.17-20,5.81-4.47,1.09-3.86,3.69-2.95,6.76-3.79-.77-7.05.64-10.49,2.06-9.45,3.92-19.25,7-28.06,12.36-2.93,1.78-7.73-.85-9.33,4l-3.15,1.51c-3.19-.37-6.88-2-7.89,3.12l-2.19,2.54c-2.91,0-6.19-3.37-8.65.92a2.15,2.15,0,0,0-1.39.94c-10,2.42-20,4.83-29,10-.45.26-.56,1.12-.82,1.7l-.15.18c-6.53.4-13,1-18.41,5.28a21.89,21.89,0,0,0-8.42,2.32c-5.89,2.74-12.38,4-18.71,2.54-11-2.51-15-.88-19.86,9.75-5.21,0-9.32,3.38-14.14,4.61-9.74,2.49-12.86.46-13.27-9.65-.17-4.28-1.1-7.3-4.7-10.16-2.16-1.72-5.53-4.56-4.07-8.41,1.54-4-.31-7.21-2-10.36a29.34,29.34,0,0,1-3.25-16.41c.41-5.81-2.72-11.47-.52-17.3-5.38-7.94-2-18.16-6.8-26.28-.6-1-.29-2.6-.23-3.92.47-10.41-1.94-20.33-5.19-30.09-1.62-4.87-5.85-10.17-4.89-14.35,2.84-12.33-3.83-20.87-9.15-30.21a2.52,2.52,0,0,0-.81-1.57c-2.19-6.55-1.75-13.7-4.54-20.12a4.27,4.27,0,0,0,0-3.76c.56-3.45-1.47-4.84-4.41-5.16s-5.9-.31-8.85-.44l-.4-.32c0-3.77-.21-7.34-5-8.23-2-.38-4.31-1.52-4-3.64,1.19-8-4.92-11.7-9.2-16.5a110.45,110.45,0,0,1-.53-25.8c.54-5.79-3.1-10.83-1.37-16.61,4.15-13.89,7.27-28,12.6-41.62,2.47-6.29,6.64-12.48,4.88-19.93a3.08,3.08,0,0,0,.18-1.65Z" style="fill:#e66467;"/><path d="M911.49,685.63c-.05-4.75-1.84-7.57-5.91-11.09-7.19-6.23-10.7-15.77-12.08-25.4-1.57-11-1-21.75,7.66-29.72-2.3-3.56-5.24-3.54-7.62-4.26-15.72-4.77-22.28-17.1-26.5-31.46-2.36-8-1-16.48-2.68-24.6,9-15.27,8.87-11.38-4.62-21.79-10.06-7.77-19.07-17-21-30.76a29.41,29.41,0,0,1,3.55-18.79c8.77-16.45,22.23-28.48,35.54-40.91,6.93-6.47,12.33-14.59,18.42-22l1.54-1.43a10.94,10.94,0,0,0,2.62-1.43c17.85-17.54,39.37-29,62.43-38,14.85-5.78,28.79-13.79,44.26-18.07,5.42-1.5,10.77-3.27,16.14-5,4.53-1.42,5.64,1.48,6.91,4.91,1.37,3.7,1.42,6.61-2.8,8-26.26,8.6-50,22.94-75.69,32.94-8,3.1-15.31,7.9-22.62,12.44-5.9,3.67-6.47,5.61-3.91,12.42,2.15,5.71-.2,11.49,1.85,17.44a70.7,70.7,0,0,0,21.07,30.76c5.59,4.88,6,5.43,0,9.91-10.3,7.74-20.74,15.26-31.61,22.23-7.25,4.65-14.36,9.6-21.43,14.55-5.53,3.87-8.3,10.27-11.66,16a3.57,3.57,0,0,0,.62,4.6c1.51,1.35,3.28.65,4.61-.22,9.74-6.37,20.12-11.62,30.49-16.81,13.17-6.59,23.18-17.75,36.28-24.37,3.56-1.8,4.63-5.52,5.38-9.17,1.25-6.05,4.24-8.8,10.95-10.45,10.48-2.58,20.42-7.52,30.72-11.16,7.19-2.54,14.36-5.26,21.64-7.51,15.57-4.81,30.8-10.05,45.26-17.95,10.38-5.67,22.55-8,33.25-13.18,13.37-6.5,28-10.41,40.11-19.58,3.19-2.42,7.42-3.49,11.14-1.22,2.68,1.64,1.13,7.23-2.35,11.44a30.67,30.67,0,0,1-12.13,8.55c-20.8,8.69-41,18.91-63,24.56-8.5,2.18-14.88,8.41-23.31,11-17.38,5.36-34.33,12.13-51.61,17.85-10.38,3.43-19.71,9.11-29.87,13-6.72,2.55-9.31,8-9.2,15,.18,11.71,1.86,22.95,6.63,33.86,3.86,8.81,6.29,18.25,17.43,20.8.74.17,1.22,1.42,2,2.34-2.29,3.68-5.94,5-9.6,6.61-15.27,6.55-30.77,12.57-45.71,19.89-4.87,2.38-8.9,5.83-13.21,8.93a3.22,3.22,0,0,0-1.65,3.33c.35,1.67,1.83,1.79,3.12,1.84,4,.18,7.93.21,11.86-1.05A502.84,502.84,0,0,0,987,593c4-1.84,6.81-4.9,7.5-8.77,1.41-7.91,5.95-10.9,13.49-11.06,2.22,0,4.47-1.2,6.62-2,33.29-13.05,66.27-26.86,99.42-40.24,14.68-5.92,29.1-12.93,44.79-16.31,3.18-.68,6.08-2.63,9.1-4,7-3.18,14.54-4.18,21.85-6.11,1.93-.51,3.78-1.35,5.15,1.11,1.19,2.14,2.47,4.55.64,6.48-4.39,4.64-7.54,9.77-14.73,12.4-22.11,8.08-44.85,14.23-66.81,22.82-11.64,4.55-23.84,8-35.66,12.29-10.6,3.85-21,8.3-31.29,13-13.91,6.29-28.6,10.28-43,15.13a11,11,0,0,0-7.06,6.24c-2.9,6-3.67,12.47-1.6,18.51,4.7,13.71,6.32,28.74,16.56,40.2,2.59,2.9,1.12,5.64-1.95,5.87-13,1-21.87,11.48-34.89,13.59-9.52,1.54-18,9.49-26.91,14.71-1.36.8-2.76,2.17-2.28,4,.53,2.08,2.47,1.93,4.08,1.85,4.32-.23,8.7-.19,12.94-.94,17.35-3,33.95-9,51-13.39,2.55-.66,2.58-2.56,2.9-4.58,1.24-7.77,4.47-13.56,13.28-15,3.45-.57,6.88-2.56,9.85-4.59,12.46-8.51,26.77-13.06,40.37-19.09q21.37-9.47,43.21-17.83c20.72-7.93,41.73-15,62.72-22.11,7.27-2.47,14.59-4.68,21.17-8.72a10.6,10.6,0,0,1,6.52-2c4.8.33,6.06,2.16,3.88,6.29-3.79,7.14-8.51,13.16-16.63,16A271.62,271.62,0,0,1,1175,615c-4.44,1.08-8.5,3.68-12.82,5.33-27.26,10.38-54.59,20.6-81.81,31.07-5.86,2.25-11.36,5.42-17.1,8a250.06,250.06,0,0,1-37.16,13.19c-4.63,1.26-7.61,6.59-6.25,12,2,8,4.48,15.95,7.22,23.75,3.34,9.5,10.43,15.77,18.87,20.89,7,4.25,13.28,9.78,22,10.61,3.66.34,6.18,2.53,5,6.89l-3.51,2.38a3.15,3.15,0,0,0-3.8,1.62l-2,.66c-4.66.51-9.61.25-12.81,4.72a2.51,2.51,0,0,0-1.59.81c-3.92.45-7.85,0-11.8.86-14.35,3.22-29.36,3.65-42.91,10.29a6.15,6.15,0,0,1-3.87.31c-4.72-1.16-9.07.19-13.44,1.59a10.11,10.11,0,0,0-6,.14c-2.44-.86-4.87-1.74-7.33-2.56-10.12-3.37-20.59-6.19-25.07-17.65-.44-1.13-2-1.64-3.38-1.55l-.12,0-2-1.36-2.45-4.47c-.79-3.49-1.13-7.15-3.93-9.84.83-4.38-1.84-8-2.56-12.07,1.58-3.62,3-7.35,4.8-10.84a27.11,27.11,0,0,0,3.4-10.25c.33-3.7-.61-6.75-5.48-5.79C921.71,691.34,917.42,686.92,911.49,685.63Z" style="fill:#e66467;"/><path d="M307.55,1158.61c-1.64-5.21-3.11-10.44-.89-15.87a9,9,0,0,1-.22-6.45c-3.36-5-2.57-11.17-4.35-16.63-1.84-1.33-3.31-2.79-2-5.31-1.71-3.46-3.89-6.76-3.73-10.86-3.51-2.9-4.22-6.92-4.4-11.14l-1.41-3a5.22,5.22,0,0,1-3.06-4.87,1.65,1.65,0,0,1-1-1.1c-4.13-3.32-5.87-8-7.18-12.86l-2.18-2.05c-2.47-.15-3.35-1.88-3.91-3.93-4-2.12-5-6.88-8.39-9.57-5.42-3.21-10.6-6.71-14.37-11.91a1.69,1.69,0,0,1-1.26-.78c-3,.25-5.28-.47-5.6-4l-.27-.16c-2.34.15-3.74-1.26-4.93-3-8.29-.67-15-6.14-23.05-7.52-1.89.63-3.14-.15-4-1.81-3.42.26-6.82.39-10-1.22-7.45,2.21-15.41-.71-22.82,2.19a27.87,27.87,0,0,1-1.25-2.51l-8.09.49c-6.4,3.51-13,4.84-20,1.76-5.47,6-13.81,5.43-20.53,7.59A110.26,110.26,0,0,0,102.62,1046c-4.09,2.61-7.89,5.92-12.95,6.73-1.48,2.63-4,3.17-6.7,3.22l-7.32,4.76c-.78,2.2-2.16,3.56-4.68,3.28-2.75,2.38-5.35,5-8.28,7.1-10.6,7.7-19.79,16.68-26.8,27.83s-14.12,22.29-18.18,35.18c-3.12,9.91-3.53,20.17-5.89,30.12a50,50,0,0,1,.2,14.55c1.28,12.48,5,24.59,5.49,37.19l1.6,2.49c3.69,3.06,4,7.38,4.31,11.67,3.28,1.44,4.3,3.54,1.94,6.64,3.7,5.62,8.75,10.4,10.41,17.29.48,2,2.13,3.3,3.89,4.33,4.63,2.7,8.08,6.69,11.57,10.62A57.67,57.67,0,0,0,69,1283c3.67.13,5.51,2.24,6.14,5.67,10.55,8.46,23,12.06,36,14.38a2.26,2.26,0,0,1,3,.86l27.36,1.51c1-1.85,2.32-5.63,4.26-3.63,4.66,4.82,8.9,1.41,13.28.64,1.57-.27,3-1.1,4.5,0l3.76-1.47c4.86-3.54,10.91-2.38,16.23-4.1,6.53-2.63,13.36-4.62,19.24-8.68a2.15,2.15,0,0,1,2.61-1l4.31-2.57a3.61,3.61,0,0,1,3.54-2l.18-.12a1.83,1.83,0,0,1,2-1.55c4.16-4.44,9.74-6.61,15.11-8.86a64.39,64.39,0,0,0,21.2-13.77c2.53-2.52,5.71-4.38,8.6-6.54.86-2.16,2.13-3.76,4.77-3.49,3.51-6.09,10.14-9.42,13.68-15.48a17,17,0,0,1-.47-3.57c.28-3.64,1.65-2.07,2.95-.53,4.79-2,5.53-7.93,10-10.23a45.47,45.47,0,0,1,7.34-10.79l1.19-5a3.36,3.36,0,0,1,1.72-4l1.3-3.84a3.3,3.3,0,0,1,.76-4.15l.8-3.88c-.56-2.2-.64-4.33,1-6.15l.47-11.93C306.91,1165.39,305,1161.62,307.55,1158.61ZM260,1174.53a57.34,57.34,0,0,1-11.27,24.07,123.77,123.77,0,0,1-28.25,26.21c-4.31,2.88-8.65,3.3-16.69,1.69,0,7.77-5.12,9.36-11.63,10-5.69.59-11.54,4.35-16.21-2.13-.92-1.28-2.21-1.71-3.38-.77-4.93,3.94-8.73.72-13.5-1-19.08-6.89-32.56-20.17-43.84-36.22-1.81-2.58-3.31-5.19-2.52-9.12.69-3.44-3.62-5.81-5-9.22-5.48-13.35-5.15-27-3.13-40.82,1.89-13,7-24.72,14.1-35.63,4.3-6.63,11.26-10.15,17.79-14.11,2.83-1.72,6-3,8.56-5,13.8-10.8,29.2-13.11,46.52-12.13,20.73,1.17,34.84,12.34,46.44,27,8.58,10.84,17.27,22.28,20.5,36.45C261.55,1147.29,262.54,1161.21,260,1174.53Z" style="fill:#f3b822;"/><path d="M1135.22,1177.62l-4-.3A28.3,28.3,0,0,0,1121,1175c-6.91.72-11.54-4.8-17.61-6.4a5.74,5.74,0,0,0-4.4-1.66c-4.23.1-5.29-4.33-8.32-5.82-5-2.45-10.18-4.5-15.29-6.72-.88-3.54.47-9.05-6.43-7.3-7.85-4-11-12.11-16.25-18.34.23-2.51-.94-3.93-3.4-4.33-4.83-8-7.24-17.08-10.74-25.67.12-3.55,1.09-7.22-1.52-10.36l-1.78-15.76c1.54-1.46,1.53-2.9-.08-4.3.06-2.56.3-5.13-.72-7.58a20.91,20.91,0,0,0-.68-8.54c3.92-12.88,7.9-25.74,11.71-38.65.63-2.13,2.38-3,3.5-4.59,6.23-8.65,11.57-17.92,18.44-26.12A12.82,12.82,0,0,0,1074,977c12-10.11,25-19,40.08-23.34,10.6-3.05,21.69-5.5,33-5.13,2.76,2,5.5,1.8,8.22-.08l5.77.16c2,1.27,4.08,2.07,6.32.49l11.7,1.39c1.85,1.87,4.13,1.56,6.4,1.22,11.93,5.33,24.73,7.69,37.23,11.11a2.46,2.46,0,0,0,2.62,1l.8.44c-.14,1,.27,1.35,1.21,1.2l3,1.71c2.8,3.35,7.14,3.63,10.73,5.41a12.63,12.63,0,0,0,6,2.06c.92,3.93,3.75,5.68,7.41,6.49l.15.11c1.14,3.11,2,6.54,6.67,4.77l9.43,8.87c1.47,2.64,3.14,5,6.5,5.39l8.35,10.16c.57,2.37.79,5,3.78,5.76l.17.17a6.4,6.4,0,0,0,2.75,5.17c.46,4.86,3.63,8.58,5.45,12.87,1.64,4.56-.65,10.21,3.86,14l.5,4q-.19,16.14-.38,32.27c-1,3.95-2.6,7.77-2.3,12a4.63,4.63,0,0,0-1.74,4c-5.87,17.76-13.28,34.69-26.29,48.58-3.59.18-3.32,3-3.76,5.42a172.34,172.34,0,0,1-38.45,28.08c-5.33.49-10.84-.49-15.91,2l-6.22.24-.4-1.9c-5.46,2.7-11.8,1.46-17.33,3.86l-6.22-.08c-9.24-1.76-18.24-5.88-28-2.81-6.37-.27-10.93-5.86-17.38-5.9A1.68,1.68,0,0,0,1135.22,1177.62Zm55.06-31.58c7.52-.26,13.9.17,19.95-2.22,10.49-4.15,21.14-8.51,28-17.82,6.74-9.11,16-16.91,16.77-29.66.28-5,5.1-9.37,2.42-15,5.18-8.76,3.17-17.87,1.48-27.05-4.74-25.67-24.82-44.51-50.39-47.29a68.63,68.63,0,0,1-12.64-2.64c-10.2-3.13-19.82-.92-29,3.19-8.14,3.63-15.14,9.09-22.34,14.45-15,11.16-19.57,27.56-24.54,43.72-2.83,9.17-1.36,19.28.44,28.56,1.91,9.88,1.82,21.67,13.93,26.62a3.13,3.13,0,0,1,1.34,2.48c-.17,6.22,4.57,8.35,8.82,10.93,4,2.44,7.6,3.85,12.93,2.21,4.84-1.49,5.18,7.72,11.36,7.53C1176.37,1143.86,1183.77,1147,1190.28,1146Z" style="fill:#f3b822;"/><path d="M432.06,708.41c1.76,7.45-2.41,13.64-4.88,19.93-5.34,13.57-8.46,27.73-12.6,41.62-1.73,5.78,1.91,10.82,1.37,16.61a110.9,110.9,0,0,0,.52,25.8c-2.39,2.28-6.56,1.95-8.05,5.52a1.45,1.45,0,0,0-1.2.67c-2.84-.07-5.4.44-6.88,3.25l-12.92,7.64c-3.05-1-5,.32-6.21,3l-3.92,2.33c-2.29-.16-3.86,1-5.12,2.76l-4.74,1.9c-3-.89-5.11,0-6.25,3l-21.72,11.17c-.92-.12-2-.61-2.74-.29-8.39,3.62-12.1,10.57-13.34,19.2-2.16,2.59-2,6-3.05,8.94-3.4,1.91-3.49,8.06-9.12,7.11-.35-.93-.62-1.07-.7-.41a3.79,3.79,0,0,0,.82.29c-.41,2.41.39,5.65-3.48,5.88-3.22.19-5.57-.88-6.43-4.53a52.29,52.29,0,0,0-3.26-9.13c-2.53-5.7-4.33-5.79-9.66-.72a5,5,0,0,0-3.22,2.7c-2.84.52-3.83,3.16-5.46,5a8.23,8.23,0,0,1-8.48,2.79,3.19,3.19,0,0,0-.8-1.75A3.11,3.11,0,0,0,269,884.6l-.93-3.86a70.34,70.34,0,0,1,1.73-7.61c1-3,.46-5.44-2.32-6.55-3.36-1.34-5.62.26-6.26,3.9-2.86,2.85-5.94,5.38-9.88,6.63l-8-.72h0c-2.83-7.28,2.81-13.23,3.16-20l1.28-3.11c1.49-.58,3.19-1.31,2.94-3.13-.31-2.22-2.11-1.65-3.61-1.21l-4-.29c-1.57-2.05-3.87-1.77-6-1.89l-.09-.14c-.77-4.77,3.53-7.76,4.23-12,2.74-2.12,4.09-5.29,6-8L264.65,821c-2.19-2.88-5.28-2-7.4-3.53-4.77-3.33-5.19-8.63-.51-11.92,8.08-5.68,16.3-11.2,26.65-11.81a3,3,0,0,0,1.63,1c1.38,2.63,3.48,3.66,6.4,2.87l3.1,1.47c1.57,3.32,3.8,3.88,6.72,1.64,2.85.19,5-1,7.08-3,12.37-11.63,27.18-19.93,40.78-29.87,5.16,1.82,7.37-.47,7.64-5.47a1.88,1.88,0,0,0,.9-1.31c2.86-.95,6.42-.73,7.58-4.53l.05,0c6.67-3.1,12.77-6.91,16.47-13.61,2.77-1.82,5.86-3.26,7.56-6.34a7.12,7.12,0,0,0,5.07-2.92c4-2.57,8.17-4.84,11.84-7.79,4.67-3.75,9.13-7.7,15.08-9.32,3-.8,3.43-3.42,4.19-5.81a3.25,3.25,0,0,0,1.63-.8A6.43,6.43,0,0,0,432.06,708.41ZM257.57,847.7c.07-.67-.27-.8-1-.34a1,1,0,0,0,.18.53A3.24,3.24,0,0,0,257.57,847.7Z" style="fill:#f3b822;"/><path d="M521.87,1044.61c4.87-10.63,8.83-12.27,19.86-9.75,6.32,1.44,12.82.2,18.71-2.54a21.8,21.8,0,0,1,8.42-2.31,4.92,4.92,0,0,0,3.15,3.58c0,4,.2,7.67,3.45,10.86,3.05,3,3.66,7.34,5,11.38,4,11.76,6.28,24,9.64,35.86,2.28,8.08,6.24,15.93,6,24.66-.05,2.17,1.47,3.6,2.35,5.33-1.8,2.22-2.51,4.94-5.5,6.64-12.69,7.22-26.39,11.68-40.22,15.91-1.8-4.87-.35-10.71-4.45-14.89-.88-5.3-3.13-10.07-5.69-14.72-.13-3.87,1.89-8.25-2.7-11l-1.82-6.87c.43-4.44-1.25-8.31-3.23-12.11-.76-4.23-4-7.57-4.2-12-.27-8.77-2-17.14-6.83-24.65l-.1-.08Z" style="fill:#f3b822;"/><path d="M688.38,985.43c-.92-3.07-1.52-5.67,2.95-6.76,6.73-1.64,13.31-3.93,20-5.81,2-.56,4.11-1.06,5-3,2.71-6.13,9.35-5.74,14-8.65,3.47-2.18,5.32,1.07,7.22,3.31,0,4.52-1.13,9.31,2.84,13l1.85,4.78c-1.2,2.35.11,3.9,1.71,5.36.22,3.47,2.07,6.13,4.24,8.64-.83,2.47.45,3.92,2.43,5l3.47,7c-1.52,8.31,3.22,13.78,8.6,19a4.58,4.58,0,0,0,2.63,3.24c-.36,5.16.45,9.83,5.28,12.86a1.37,1.37,0,0,0,.68,1.16c-.11,1.9,1.18,3.09,2.22,4.41-4.77,3.66-10.57,6.55-15.94,7.33-9.64,1.41-15.29,6.08-18,14.71-1.34,4.28-4,5.78-7.9,6.33-.59-1.6-1-3.31-3.07-3.73l-.54-.32c-3.08-3.42-1.7-8.94-5.62-12l-7.16-12.86c.38-5.12-.32-9.84-4.81-13.18a87.21,87.21,0,0,0-7.49-16.73,3.82,3.82,0,0,0-1.44-4.08c-3-9.19-4.65-18.94-11.46-26.48Z" style="fill:#f3b822;"/><path d="M980.06,1000.7l-3,3.55c-5.55,3.57-12.11,1.19-18,3.07-5.43-3.62-10.83-7.29-16.3-10.84-3.62-2.36-6.24-2-10.31.84-6,4.15-7.25,11.68-13.26,15.32-2.68-4.21-4.22-2.2-5.54,1-.12.29-.27.57-.4.86l-3.39-1.77c1.26-2.31.42-4-1.59-5.32l-.91-10.78c4.21-3.28,1.51-6.73.24-10.15,0-4,4.12-3.72,5.94-5.86,4.14-4.87,3.75-9-2-12.34-3.74-2.19-5.3-6.05-7-9.22-3.28-6.1-8-12.08-6.74-19.85,3.71-2.51,7.43-3.42,11.51-.61,1.89,1.3,4.11,1.94,6.16,0,3.21,1,6.26,2.7,9.81,2.1,1.55,2.48,4,1.28,6.08,1.44l4.25,4.32c-.23,2.82.53,4.44,3.74,3.07,7.31-3.3,9.58-11.23,15-16.32s10-11.29,16.8-15.11a12.84,12.84,0,0,1,5.69-1.3c3.45,7.62,3.55,15.59,2.5,23.68l-18.4,22.88c-4.55,5.66-4.32,5.93,1.2,10.64,2.8,2.39,5.73,4.66,9,5.77,8.37,2.82,10.14,9.14,10.12,16.77C979.5,997.55,979.52,999,980.06,1000.7Z" style="fill:#f3b822;"/><path d="M1413.34,822.86c-5.39-1.2-10.3,1.48-15.49,1.93-2,.17-2.3,2-2.13,3.78-3.59,2.75.15,5.38.12,8.07,1.13,4.9-1.86,8.78-3.25,13.06-2.35.87-3.35,2.46-2.68,5l-4.6,4.24-4.22.25-5.86-4.68c-.16-2.73-1.55-3.75-4.2-3-4.47-2.33-7.39-5.78-7.88-11,.18-2.58-1.51-4.28-2.87-6.13q0-1.81,0-3.63c.4-1.25.88-3-.77-3.18-2.74-.33-5.73-1.88-8.31.61a33.13,33.13,0,0,1-10.91-.56c-2.33-4.83-6.7-4.85-11.14-4.71l-1.93-2.43,2.56-9.62,2-1.6a5.37,5.37,0,0,0,4.48-3.92,1.44,1.44,0,0,0,1.09-.71c3.85-.48,8.27-.28,7.6-6.26l.21-.16c4,.28,8,.62,10.93-2.95,4.83-1.41,3.47-5.37,3.6-8.72a15.33,15.33,0,0,0,.77-10.19c1.48-4.06.1-9.24,4.76-12,1.24-.29,2.69-.25,3.67-.91,7.15-4.83,7.14-4.88,13,2.61,1.57,2,3.58-.24,5.24.65.69,3.08,2.75,5.35,4.59,7.76.92,3.27-2.34,7.31,1.82,10l-.46,4.1c-1.79,1.06-1.82,2.66-1,4.23.66,1.29,1.8,1.87,3.2.78,10.64,1.68,22-1.05,31.92,5.1l.7,6c-.61,5.63-4.92,8.66-8.54,12.18C1414.57,816.14,1415.32,820.85,1413.34,822.86Z" style="fill:#f3b822;"/><path d="M1439.13,1201c-7.33,0-14.72-.58-21.72,2.42-2.21-.37-4.44-.84-6.13,1.27-2.68,0-5-2.52-7.86-1.22-4.47-.59-8.66-.08-12.16,3.11l-5.8-.2-1-6a4.91,4.91,0,0,0,.88-1.76c5.07-3.4,6.78-9.23,10.06-13.93l11.63-5.86c1.5,2,2.86,1.34,4.18-.21,7.55-.05,15.1,0,22.65-.19,6.73-.14,6.73-.24,7.61-7.9,1.85-2.65,1.32-5.43.46-8.23,1.16-3.79.37-7.68.6-11.51.5-8.4,1.2-8.93,10-7.68.79,3.08,3.36,3.72,5.95,4.33,3.41,3.89,7,7.68,8.37,12.87-1,1.46-1.68,2.9.22,4.21.6,13.67.6,13.66,14.86,13.63,6.22,0,12.5-.62,18.6.79,5.05,1.17,10.34,2.33,13.21,7.51-2.54,1.19-4.47,2.87-4.74,5.88h0c-4.14.69-6.76,3.76-9.77,6.22-8.25-.27-15.81,3.86-24,3.71-2.82-1.66-6-.44-5,2,1.77,4.68.3,9.86,2.79,14.29l.48,4.06c-1.87.89-1.92,2.39-1.39,4.09l-1,5.67c-2.32.47-3.94,1.5-3.45,4.25l-1.32,2.81c-4.31,3.06-8.48,3.8-12.61-.45-.82-.85-2.26-1.1-3.42-1.63a1.41,1.41,0,0,0-.87-1,50.78,50.78,0,0,1-7.36-22.06l-.42-3.58C1442.28,1207.1,1445,1202.92,1439.13,1201Z" style="fill:#f3b822;"/><path d="M102.83,234.27c.76,3.27-.8,5.28-3.59,6.63-2.41.17-1.61,1-.39,1.91,0,3.33-1.84,4.81-5,4.69s-3.41-2.66-3.8-4.91c-1.34-7.68,1.86-14.19,6.22-19.94a92.08,92.08,0,0,0,5.69-9.21c2.66-.62,5.68-.82,5.43-4.75.84-6.88,6.28-11.46,9.77-16.58,5.15-7.55,11.59-14.39,17-22,2.94-4.14,7.59-6.82,11.25-10.45,4.89-4.87,9-10.43,14-15.12,3,.21,4.82-1.28,6-3.84a1.43,1.43,0,0,0,.52-1.3c2.49-.6,5.1-1,6.45-3.64l7-7.2c4.66-.73,9.84-.26,12.6-5.41,3.22-5.16,9.43-2.65,13.88-5.4,3.73-2.3,8.9-2.26,13.43-3.26-.26,2.29-1,4.7,1.06,6.75,2.36-2,2.38-4.33,2.89-6.46,3.48.38,4.32-4.34,7.77-4,1,2-.6,5.47,3.21,6,2,5.24,2,10-3.17,13.57-2.55-.3-3.94,1.09-4.79,3.27l-3,1.57c-3.25-1.36-4.06.42-4.1,3.19l-.09.09c-1.68,0-3.15.45-3.73,2.29-2.26-.38-4.71-1.11-6.07,1.55s-4.61,3.57-6.32,6a6.89,6.89,0,0,0-6.27,3.7l-3.47,2.94c-2.92-.53-5.45-.24-6.53,3.1-9.44,8.62-20.37,15.5-28.8,25.36-2.33,2.73-7.28,2.87-8.84,7-3.56.27-5.58,2.24-6.25,5.68-9.21,9.65-18.33,19.39-27.68,28.91C112.26,228,109.87,232,104.9,232,103.29,231.91,102.62,232.7,102.83,234.27Z" style="fill:#e66467;"/><path d="M1329.71,160.89a11.62,11.62,0,0,1,8.79-1.83c.86,3.13-.16,6.77,2.58,9.38-.28,3.39,0,6.88-2,9.92-4.6,2-9.8,3.55-8.28,10.43-8.12,9.32-8.07,9.43,5.37,12.65,1.13,1.95,2.66,3.21,5.07,3l.08.06c0,4.74,5.8,8.08,3,13.77-.63,1.28,2.55,2.54,4.65,2.61l5.3,6.37c4.27,8.39,4.23,8.28-4.65,11.2-2.37.78-4.46,2.42-6.67,3.66a17.9,17.9,0,0,0-9.82-1.42c-1.73-3.66-5.24-1.4-7.79-2.34l-2-1.94a6.31,6.31,0,0,0-6-4c-1.68-5.71-5.27-9.31-11.31-10.18a3.12,3.12,0,0,0-3.25,1.61c-2.21.7-3.9,1.84-3.72,4.51-3.73,5-6.83,10.52-11.74,14.59-2.28,1.89-4.18,4.23-7.76,2.38-3-1.56-4.24-3.44-3.79-7,.58-4.56-1.3-9.17-.14-13.8,2-.94,1.37-2.6,1.12-4.15l3.21-5c3-1.56,3.57-4,2.58-7,5.21-6.81,5.21-6.81-3-14.1,0-2.8-1-4.48-4.18-4l-1.57-2.17-1.83-3.81c.73-1.14,1.39-2.29.93-3.72-.79-2.67-3.59-5.08,1-7.68,3.78-2.14,7.34-4.29,11.69-4.81,2.24-.26,3.73-1.21,3.58-3.74l4.2,2.11c-1.51,6,2.93,4,5.71,4.22,2,1.56,4.1,3,6,4.69,5.5,4.65,5.65,4.68,10.84-.71,3.17-3.29,6.3-6.61,9.45-9.91C1328.17,165,1329.18,163.19,1329.71,160.89Z" style="fill:#f3b822;"/><path d="M552.8,1144.25c13.83-4.23,27.53-8.69,40.22-15.91,3-1.7,3.7-4.42,5.5-6.64,4.82.07,6.72,5,10.79,6.49,2.2.81,1.52,3.43.78,5.27-.89,2.19-2.37,5.23-.15,6.34,6.79,3.4,3.63,10.7,6.85,15.46,3.32,4.92,5.05,10.64,6,16.53.37,2.28.48,4.6.71,6.9-3.18,2.05-4.58,5.47-6.41,8.52-6.28,10.46-6.23,10.48-15.51,3.37a6,6,0,0,0-1.86-.61,17.8,17.8,0,0,0-5.81-8c-1.11-3-2.8-5.39-6.3-5.8-3.71-12.47-3.71-12.47-15.48-9.86l-2.88.65c-2.57-.74-3.82.89-4.95,2.74l-3.08,1.28-1.59-2.3c-.61-.89-.16-2.86-1.66-2.62-.8.13-1.38,1.85-2,2.89a11.36,11.36,0,0,0-.67,1.74c-.91.34-2.43.48-2.64,1.07-1.73,5-5.25,7.27-10.33,8.05-1.84.28-3.48,1.84-5.21,2.81-2.23-.47-4.39-.68-5.89,1.58a53.63,53.63,0,0,1-16.13,4.46c-2-3.13-6.4-5.23-4.75-10,1.48-4.28,2.6-8.65,4.58-12.83,2.49-5.26,7.15-9.21,8.54-15l7.71-2.86c3.49,1,6.9,1.28,10-1.25l4-1C548,1146.93,550.49,1146.05,552.8,1144.25Z" style="fill:#e66467;"/><path d="M738.82,35.63c-1.18-13.09-.94-10.74,12.33-14.5,1.3,1.89,2.7,1.86,4.19.23l5.08-.21c2.17,6.09,6.77,2.82,9.87,1.88,4.45-1.34.58-3.11-.55-4.59a18.54,18.54,0,0,0-.91-9.36C767.68,6,767.21,3,769.12,0c8.5,1.14,18.17.45,19.69,12.58,0,.35,1.11.57,1.7.85.26,1.28.88,2.6.72,3.83-.82,6.41,2.41,8.09,8,7.22,1.08,1.77,2.43,1.94,4,.69,7.33,1.37,14.21,4.12,20.95,7.15,3,1.35,5.56,3.62,6.22,7.24a6.06,6.06,0,0,0-4.07,4.31c-1.45,1.87-4.59,1.84-5.19,4.65-6.14-.85-8.74,4.55-12.84,7.29l-3.07.06c-3.09-1.78-6.43-.66-9.65-.74-2.33-.06-2.29,1.76-1.8,3.5q.16,3.84.32,7.68c-.81,2.87-.82,5.63,1.08,8.14a22.43,22.43,0,0,1-1.19,5.71c-1.18,3.36-2.52,5-6.37,3.24-2.63-1.21-5.9-1.13-8.41-2.49-5.47-3-8.42-7.51-8.48-14.15-.1-11.42-.53-11.61-11.91-12.7-1-.09-2-.07-3-.1-1.58-3.51-3.53-5.23-6.64-1.39-5,1.53-7.65-4-12.1-4.09,0-.94-.26-2.5.17-2.74C742.45,43,741.32,39.44,738.82,35.63Zm3.24-.69-.65.43c.17.2.31.53.5.56s.43-.25.65-.39Z" style="fill:#f3b822;"/><path d="M119.54,850.57c-3.91,5.07-9.75,7.84-14.35,12.08-3.62,3.34-8.05,2.51-12.3,2.17-3.94-.31-5.19,1.23-5.09,5.15.19,7.59,0,15.2-.26,22.8-.16,4-.69,8.23-6.4,8.1-1.5-3.53-3.85-6-8-6.07-4.43-1.06-6.43-4.65-8.51-8.15q-.14-3.15-.29-6.3-.09-1.81-.18-3.62c.32-2.23,1-4.48.86-6.67-.16-2.66-1.69-3.24-3.77-1.29-3.91.83-8-1-11.86.93-3.38-2.58-6.92-.46-10.39-.34l-9.54-1c-1.73-4.17,1.94-7.86,1.06-12l1-3.82c2.22-2.93,3-6.43,3.79-9.91,5.57-5.39,12.68-6.16,19.79-5.9,7.73.28,9.52-.72,10.41-8.32a19.14,19.14,0,0,0-.34-3.94c1.62-1.26,1.49-2.59.14-4q.3-3.54.6-7.07c3.37-2.34,6.89-4.12,11.19-2.9a57.56,57.56,0,0,1,8.61,17.86c.58,3.07-1.6,7,2.7,8.9,5.06,1.93,10.07,3.18,15.71,2.36,5.28-.77,11.2-2.87,15.5,2.76Q119.61,846.5,119.54,850.57Z" style="fill:#f3b822;"/><path d="M99.49,140.48c-5.58,3-9.06,8.63-15.18,11.29-3.22,1.39-1.56,7.47-4.63,10.36.13-2.76-1.34-4-4-4.17.11-8.7,3.36-15.44,10-21.64,5.11-4.81,9.56-10.62,14.32-16,12.34-13.86,27.81-22.61,45.38-27.51,7.29-2,14.21-5.47,21.89-6.11,1.48,3.66,4,7.18,1.53,11.37l-7.59,6.69c-2.51-.61-3.88.84-5,2.76-6.94,4.9-14.53,8.48-22.25,12a150.88,150.88,0,0,0-27.09,16.1,15.9,15.9,0,0,1-3.57,1.5C100.2,136.16,99.06,137.42,99.49,140.48Z" style="fill:#e66467;"/><path d="M1208.6,1358.34c9.63,1,20.17,2.76,26.49,10.11,4.85,5.64,6.13,13.43,7.23,20.8,2,13.5,3.5,28.91-5.43,39.23-8.77,10.13-23.89,11-37.29,11.34q-70.61,1.55-141,8.32c-13.16,1.27-26.38,2.67-39.56,1.68s-25.77-4.27-38.34-7.85c-3-.84-6.06-1.8-8.11-4.09-2.27-2.55-2.74-6.18-3.1-9.58-3.55-33.11-11.55-67.42,29.93-71.87,43.49-4.67,89.13-3.54,132.82-2.69C1157.74,1354.23,1183.24,1355.59,1208.6,1358.34Z" style="fill:#4bb7ca;"/><path d="M1042.91,1318.34a24.61,24.61,0,0,0,3.62,9.56c3.21,4.66,8.51,7.4,13.74,9.57,28.22,11.74,57-24.36,34-46.88C1072.33,1269.11,1037.42,1288.77,1042.91,1318.34Z" style="fill:#eeddc5;"/></g></g></svg>