<?xml version="1.0" encoding="iso-8859-1"?>
<!-- Generator: Adobe Illustrator 23.0.6, SVG Export Plug-In . SVG Version: 6.00 Build 0)  -->
<svg version="1.1" id="Capa_1" xmlns="http://www.w3.org/2000/svg" xmlns:xlink="http://www.w3.org/1999/xlink" x="0px" y="0px"
	 viewBox="0 0 800 600" style="enable-background:new 0 0 800 600;" xml:space="preserve">
<g>
	<path style="fill:#F7D3BD;" d="M452.826,136.816c3.76-6.015,7.394-14.662,4.386-21.806c-2.506-5.765-9.023-7.269-13.535-2.506
		c-6.266,6.767-11.028,14.913-17.419,21.806c-6.391,6.767-13.284,13.033-20.552,18.673c-17.169,13.159-36.719,22.934-57.522,28.949
		c-0.251-0.376-0.501-0.752-0.752-1.128c5.263-9.023-0.251-24.061-5.514-31.33c-2.882-4.01-7.519-6.893-12.657-5.389h-0.125
		c-0.251,0-0.627,0-1.003,0.125c-12.281,2.506-13.159,18.046-9.274,27.57c2.256,5.389,7.77,11.78,13.911,14.161
		c-11.905,4.512-23.936,8.772-35.716,13.785c-8.271,3.509-14.788,9.148-17.67,17.921c-2.506,7.645-1.629,16.292,3.384,22.808
		c6.141,7.895,16.166,10.778,25.691,12.156c3.133,0.501,6.391,0.877,9.524,1.128l0,0c2.005,26.192,5.263,52.259,10.026,77.949
		l-13.535-14.537c-7.645-8.146-14.913-17.795-23.31-24.939c-5.765-4.887-9.9-2.632-14.537,2.632
		c-6.893,7.895-13.159,16.417-19.299,24.939c-1.003,1.504-0.627,3.885,0.627,5.013c1.629,1.629,3.258,2.506,5.765,2.256
		c3.258-0.376,6.391-4.136,9.65-3.634c4.136,0.627,7.77,7.394,9.775,10.276c2.381,3.384,4.762,6.642,7.269,9.775
		c9.9,12.532,21.931,26.818,36.844,33.21c13.159,5.639,26.944,2.13,35.215-9.65c2.005-2.882,3.509-5.89,4.637-9.023
		c4.386,18.923,9.148,37.847,14.412,56.519c2.005,7.269,4.136,14.412,6.266,21.555c1.504,5.138,2.632,13.409,7.018,17.044
		c8.146,6.767,24.437,0.501,32.458-3.634c2.13-1.128,2.381-3.76,1.504-5.639c-1.128-2.506-3.133-3.76-5.765-4.512
		c-4.01-1.003-7.394,0.125-8.772-4.887c-2.882-10.778-4.512-22.056-6.642-33.085c-4.386-21.931-8.522-43.862-12.657-65.918
		c-7.895-42.985-15.164-86.095-21.931-129.205c14.662-4.637,28.072-12.783,39.727-22.934
		C427.888,170.277,442.3,153.735,452.826,136.816z"/>
	<path style="fill:#57455E;" d="M360.215,144.335c-4.762-7.394-14.913-5.389-18.673,1.379c-1.003-0.752-1.88-1.379-2.757-1.88
		c-7.895-4.261-17.545-2.005-22.056,5.89c-2.005,3.509-2.757,7.519-2.506,11.529c-5.263-3.885-12.532-4.136-14.662,4.01
		c-2.13,7.895,2.13,16.166,11.028,14.913c3.384-0.501,7.645-2.005,10.402-4.512c1.003,0.376,2.13,0.251,3.258-0.376
		c0.501-0.251,0.877-0.627,1.379-0.877c-0.251,2.005,0.877,4.386,3.634,4.386c4.762,0,4.887-7.143,0.376-7.519
		c1.003-1.003,1.88-2.005,2.757-3.133c3.008,1.754,6.642,3.258,10.151,3.509c0,1.88,1.253,3.76,3.634,3.76
		c3.133,0,4.261-3.258,3.258-5.514c0.752-0.627,1.504-1.379,2.13-2.381c1.253-2.13,1.379-4.512,0.752-7.143
		c2.882-0.752,5.514-2.005,7.394-4.261C362.345,152.857,362.596,147.97,360.215,144.335z"/>
	<path style="fill:#C39A8A;" d="M564.361,411.643c-1.755-26.192-1.128-52.509-0.376-78.701c0-2.13-2.005-4.261-4.136-4.136
		c-7.018,0.376-13.284-1.003-19.425-4.261c-1.504-3.509-8.02-3.008-8.02,1.754c0,26.568,0.125,53.136,0.125,79.829
		c0,10.778-1.128,22.182,0.627,32.834c1.128,6.893,4.762,13.911,12.156,15.414c7.644,1.629,15.038-4.01,18.171-10.652
		C567.996,433.825,564.988,421.794,564.361,411.643z"/>
	<path style="fill:#C39A8A;" d="M152.685,448.362c-1.754-26.192-1.128-52.509-0.376-78.701c0-2.13-2.005-4.261-4.136-4.136
		c-7.018,0.376-13.284-1.003-19.425-4.261c-1.504-3.509-8.02-3.008-8.02,1.754c0,26.568,0.125,53.136,0.125,79.829
		c0,10.778-1.128,22.182,0.627,32.834c1.128,6.893,4.762,13.911,12.156,15.414c7.645,1.629,15.038-4.01,18.171-10.652
		C156.319,470.544,153.311,458.638,152.685,448.362z"/>
	<path style="fill:#C39A8A;" d="M676.523,553.004c-1.755-26.192-1.128-52.509-0.376-78.701c0-2.13-2.005-4.261-4.136-4.136
		c-7.018,0.376-13.284-1.003-19.425-4.261c-1.504-3.509-8.021-3.008-8.021,1.754c0,26.568,0.125,53.136,0.125,79.829
		c0,10.778-1.128,22.182,0.627,32.834c1.128,6.893,4.762,13.911,12.156,15.414c7.645,1.629,15.038-4.01,18.171-10.652
		C680.157,575.186,677.149,563.281,676.523,553.004z"/>
	<path style="fill:#B6C8E8;" d="M470.246,473.677c-3.509-1.379-7.143-1.88-10.652-2.882c-5.765-1.754-9.023-4.136-7.895-10.652
		c1.379-7.77,0.752-14.036-4.01-20.678c-9.524-13.033-26.819-16.542-41.982-15.665c-13.033,0.752-26.067,3.634-38.975,6.893
		c-22.307,0.376-44.489,3.258-66.169,8.647c-10.527,2.632-27.946,5.013-31.33,17.67c-1.253,4.762,0.125,9.9,4.01,12.908
		c2.005,1.629,5.514,2.13,8.522,3.008c-5.765,2.13-11.404,4.386-17.044,6.893c-7.895,3.509-17.419,7.018-24.061,12.783
		c-4.512,3.76-6.893,9.274-4.637,15.038c2.632,6.391,9.775,9.399,15.79,11.404c17.169,5.765,36.844,5.138,54.765,5.514
		c20.552,0.376,41.105,0,61.658-1.253c20.051-1.253,39.977-3.258,59.778-6.015c9.399-1.253,18.923-2.506,28.322-4.512
		c7.143-1.504,14.412-3.76,19.675-9.148C485.41,493.853,483.279,478.564,470.246,473.677z"/>
	<path style="fill:#B6C8E8;" d="M423.878,391.091c-1.003,5.514-2.005,11.028-2.882,16.542c-0.877,5.263,7.143,7.519,8.02,2.256
		c1.003-5.514,2.005-11.028,2.882-16.542C432.775,388.083,424.755,385.827,423.878,391.091z"/>
	<path style="fill:#B6C8E8;" d="M444.054,399.613c-2.506,3.634-5.013,7.394-7.519,11.028c-3.008,4.386,4.136,8.647,7.143,4.136
		c2.506-3.634,5.013-7.394,7.519-11.028C454.205,399.362,446.936,395.101,444.054,399.613z"/>
	<path style="fill:#B6C8E8;" d="M363.097,412.395c-2.632-4.762-6.141-8.898-10.402-12.407c-1.754-1.379-4.136-1.754-5.89,0
		c-1.504,1.504-1.754,4.386,0,5.89c3.634,3.008,6.642,6.517,9.023,10.652C358.46,421.293,365.729,417.032,363.097,412.395z"/>
	<path style="fill:#B6C8E8;" d="M341.417,416.656c-5.263-1.504-10.527-3.008-15.665-4.512c-5.138-1.504-7.394,6.517-2.256,8.021
		c5.263,1.504,10.527,3.008,15.665,4.512C344.299,426.18,346.555,418.16,341.417,416.656z"/>
	<path style="fill:#F7D16F;" d="M317.481,315.648c-8.271-8.146-16.542-16.417-24.939-24.437c-6.517-6.141-11.404-7.394-17.795-0.501
		c-4.01,4.261-34.714,34.714-16.918,38.724c4.136,0.877,8.02-2.256,11.78-1.754c3.509,0.501,7.645,8.898,9.65,11.404
		c6.266,8.02,13.535,15.289,21.43,21.68c1.629,1.253,3.509,1.128,4.887,0.376c0.877,0,1.88-0.376,2.632-1.379
		c6.391-7.77,13.159-15.916,18.046-24.813C331.141,326.3,323.245,321.288,317.481,315.648z"/>
	<path style="fill:#F7D16F;" d="M429.642,438.086c-3.384-2.381-7.77-4.512-9.399-8.396c-1.504-3.634-1.629-8.396-2.256-12.281
		c-1.504-9.023-3.008-18.046-4.386-27.194c-0.251-1.629-2.381-3.133-4.01-3.008c-11.279,0.877-22.432,2.882-33.335,6.015
		c-3.008,0.877-3.509,3.885-2.381,6.015c0,0.376,0,0.752,0.125,1.128c3.76,17.044,7.77,34.714,13.911,51.005
		c2.005,5.263,4.887,7.77,10.652,8.146c8.772,0.501,17.921-0.627,26.443-2.256c4.887-0.877,12.281-1.754,13.785-7.519
		C440.42,443.851,433.527,440.718,429.642,438.086z"/>
	<path style="fill:#74A3D7;" d="M618.124,196.719c-4.386-10.276-14.036-16.668-19.049-26.568
		c-6.767-13.409,1.88-31.079,3.384-45.115c2.256-21.931,0.251-54.89-19.801-69.177c-16.918-12.031-40.604-2.506-39.977,19.425
		c0.376,11.78,6.767,24.688,1.629,36.218c-4.512,9.775-15.164,15.79-22.934,22.683c-8.522,7.519-14.788,17.169-17.169,28.448
		c-2.506,12.156,0.376,23.685,3.76,35.34c1.88,6.642,4.136,13.535,4.261,20.552c0.125,8.772-3.76,14.161-10.026,19.801
		c-9.399,8.396-14.036,18.923-13.159,31.706c1.629,25.44,20.678,46.744,43.987,55.517c0.251,0.125,0.501,0.125,0.752,0.251
		c17.169,8.898,37.847,11.279,55.141,1.003c8.898-5.263,16.166-13.409,19.675-23.059c4.637-12.532,0.125-24.437-0.376-37.095
		C607.096,242.837,628.149,220.53,618.124,196.719z"/>
	<path style="fill:#74A3D7;" d="M206.447,233.563c-4.386-10.276-14.036-16.668-19.049-26.568
		c-6.767-13.409,1.88-31.079,3.384-45.115c2.256-21.931,0.251-54.89-19.801-69.177c-16.918-12.031-40.604-2.506-39.977,19.425
		c0.376,11.78,6.767,24.688,1.629,36.217c-4.512,9.775-15.164,15.79-22.934,22.683c-8.522,7.519-14.788,17.169-17.169,28.448
		c-2.506,12.156,0.376,23.685,3.76,35.34c1.88,6.642,4.136,13.535,4.261,20.552c0.125,8.772-3.76,14.161-10.026,19.801
		c-9.399,8.396-14.036,18.923-13.159,31.706c1.629,25.44,20.678,46.744,43.987,55.517c0.251,0.125,0.501,0.125,0.752,0.251
		c17.169,8.898,37.847,11.279,55.141,1.003c8.898-5.263,16.166-13.409,19.675-23.059c4.637-12.532,0.125-24.437-0.376-37.095
		C195.419,279.681,216.473,257.249,206.447,233.563z"/>
	<path style="fill:#74A3D7;" d="M730.285,338.206c-4.386-10.276-14.036-16.668-19.049-26.568
		c-6.767-13.409,1.88-31.079,3.384-45.115c2.256-21.931,0.251-54.89-19.801-69.177c-16.918-12.031-40.604-2.506-39.977,19.425
		c0.376,11.78,6.767,24.688,1.629,36.218c-4.512,9.775-15.164,15.79-22.934,22.683c-8.522,7.519-14.788,17.169-17.169,28.448
		c-2.506,12.156,0.376,23.686,3.76,35.34c1.88,6.642,4.135,13.535,4.261,20.552c0.125,8.772-3.76,14.161-10.026,19.801
		c-9.399,8.396-14.036,18.923-13.159,31.706c1.629,25.44,20.678,46.744,43.987,55.517c0.251,0.125,0.501,0.125,0.752,0.251
		c17.169,8.898,37.847,11.279,55.141,1.003c8.898-5.263,16.166-13.409,19.675-23.059c4.637-12.532,0.125-24.437-0.376-37.095
		C719.257,384.324,740.311,362.017,730.285,338.206z"/>
	<path style="fill:#56597A;" d="M454.456,138.696c-6.015-4.762-11.905-9.524-17.921-14.286c-1.754-1.379-4.261-1.754-5.89,0
		c-17.169,18.171-37.22,33.21-59.652,44.113c-5.514,2.632-11.404,4.512-16.668,7.394c-4.637,2.506-6.141,6.517-10.026,9.65
		c-4.512,3.634-10.151-1.88-15.289-2.381c-0.501-0.251-1.253-0.376-2.005-0.376c-17.67,1.379-33.836,11.153-43.737,25.816
		c-6.642,9.65-9.148,23.435-4.01,33.836c5.013,12.908,19.675,21.304,32.959,16.292c-1.003,14.412-1.379,28.824-1.003,43.235
		c0.251,9.775-2.005,26.819,9.524,31.079c11.279,4.261,25.941,3.509,37.721,1.88c13.284-1.754,25.816-6.266,37.471-12.783
		c1.629-0.877,2.256-2.882,1.88-4.637c-4.261-19.049-7.895-38.223-10.903-57.522c-1.504-10.151-2.882-20.302-4.01-30.578
		c-0.627-5.263-1.128-10.652-1.629-15.916s-2.13-9.274,3.76-11.529c29.2-11.028,53.888-31.831,69.929-58.524
		C456.085,142.33,455.959,139.824,454.456,138.696z M344.174,248.226c0.125-1.88,0.125-3.885,0.376-5.765
		c0.501-4.762,0.251-6.642,5.138-7.143c4.762-0.501,14.412,2.256,10.527,8.898C357.082,249.228,349.437,248.727,344.174,248.226z"/>
	<path style="fill:#57455E;" d="M347.432,178.172c-0.627-2.13-2.506-3.008-4.637-2.632c-1.629,0.251-3.384,1.003-4.762,2.005
		c-0.752,0.627-1.504,1.253-1.754,2.256c-0.251,0.877-0.125,2.13,0.376,2.882c1.003,1.504,3.509,2.632,5.138,1.379
		c0.125-0.125,1.504-1.128,1.629-1.003c-0.501,0.251-0.627,0.251-0.251,0.125c0.125,0,0.251-0.125,0.501-0.125
		c0.376-0.125,0.627-0.125,1.003-0.251C346.806,182.433,348.059,179.926,347.432,178.172z"/>
	<path style="fill:#57455E;" d="M355.453,233.438c-1.88-14.913-5.013-29.576-9.274-43.862c-1.379-4.637-8.647-2.632-7.269,2.005
		c2.882,9.524,5.138,19.049,6.893,28.824c-17.044-33.335-34.212-66.67-51.256-100.005c-2.256-4.261-8.647-0.501-6.517,3.76
		c19.049,37.095,37.972,74.19,57.021,111.284c1.128,2.256,3.509,2.256,5.138,1.253C352.57,237.699,355.829,236.696,355.453,233.438z
		"/>
	<path style="fill:#57455E;" d="M368.987,328.431c-3.509-25.941-7.018-51.883-10.652-77.824c-0.627-4.762-7.895-2.757-7.269,2.005
		c3.509,25.941,7.018,51.883,10.652,77.824C362.345,335.198,369.614,333.193,368.987,328.431z"/>
	<path style="fill:#57455E;" d="M333.898,228.927c-8.146-1.504-16.292-2.882-24.563-4.01l0,0c-0.501-3.133-0.627-6.391-0.627-9.524
		c0.125-4.887-7.394-4.887-7.519,0c-0.125,2.882,0.125,5.765,0.376,8.647c-2.506-0.251-5.138-0.501-7.645-0.752
		c-4.887-0.376-4.762,7.143,0,7.519c12.783,1.003,25.315,3.133,37.847,5.389C336.655,237.072,338.66,229.804,333.898,228.927z"/>
	<path style="fill:#57455E;" d="M329.261,251.609c-5.263,1.88-10.527,3.634-15.916,4.887c-4.637,1.128-2.757,8.396,2.005,7.269
		c5.389-1.379,10.652-3.008,15.916-4.887C335.777,257.249,333.898,249.98,329.261,251.609z"/>
	<path style="fill:#57455E;" d="M382.898,188.824c-0.376-4.762-7.895-4.887-7.519,0l1.379,17.294c0.376,4.762,7.895,4.887,7.519,0
		L382.898,188.824z"/>
	<path style="fill:#57455E;" d="M390.041,269.405c-3.509-5.639-7.895-10.402-13.159-14.412c-1.629-1.253-4.136-0.251-5.138,1.379
		c-1.128,1.88-0.251,3.885,1.379,5.138c4.261,3.258,7.645,7.143,10.527,11.655C386.031,277.3,392.547,273.541,390.041,269.405z"/>
	<path style="fill:#57455E;" d="M333.271,266.397c-4.01,5.389-7.018,11.153-9.399,17.419c-1.629,4.512,5.639,6.517,7.269,2.005
		c2.13-5.639,5.013-10.903,8.647-15.665C342.67,266.397,336.153,262.638,333.271,266.397z"/>
	<path style="fill:#57455E;" d="M325.251,335.198c-0.627-1.629-1.88-2.757-3.634-2.757c-4.261,0-8.271,5.765-10.903,8.522
		c-4.637,4.637-9.148,9.274-13.66,13.911c-2.632,2.757,0.125,6.642,3.008,6.391c1.379,1.003,3.384,1.379,5.013,0
		c5.013-4.386,10.778-7.645,15.164-12.783C323.12,345.098,327.13,339.96,325.251,335.198z"/>
	<path style="fill:#57455E;" d="M292.667,344.346c-0.376-2.005-2.757-3.133-4.637-2.632c-2.13,0.627-3.008,2.632-2.632,4.637
		c0.125,0.752,0.251,1.629,0.251,2.381l-1.253-0.125c-2.005-0.125-3.76,1.88-3.76,3.76c0,2.13,1.754,3.634,3.76,3.76
		c1.629,0.125,3.258,0.251,5.013,0.501c2.13,0.251,3.634-1.88,3.76-3.76C293.419,350.111,293.294,347.229,292.667,344.346z"/>
	<path style="fill:#57455E;" d="M279.759,285.195c-5.765,4.637-11.279,9.65-16.166,15.164c-5.013,5.514-9.148,11.905-14.913,16.918
		c-3.634,3.133,1.629,8.522,5.263,5.263c5.639-4.887,9.775-11.279,14.913-16.918c5.013-5.514,10.402-10.527,16.166-15.164
		C288.908,287.451,283.519,282.188,279.759,285.195z"/>
	<path style="fill:#57455E;" d="M437.161,447.234c-14.788,3.258-29.701,6.141-44.739,8.772c-4.762,0.877-2.757,8.02,2.005,7.269
		c14.913-2.632,29.826-5.514,44.739-8.772C443.803,453.375,441.798,446.106,437.161,447.234z"/>
	<path style="fill:#57455E;" d="M410.343,383.196c-4.512-1.88-11.78,0.877-16.041,2.381c-3.76,1.379-7.269,3.133-10.903,4.762
		c-3.008,0.627-6.266,1.253-8.647,3.008c-0.376,0.251-0.627,0.501-0.752,0.752c-0.251,0.251-0.501,0.627-0.752,1.003
		c-1.88,3.008-1.003,6.767,2.381,8.271c4.01,1.88,8.898-1.504,12.532-2.882c6.642-2.506,13.284-3.76,20.302-5.013
		c3.008-0.501,5.639-1.504,6.391-4.887C415.356,387.331,413.225,384.324,410.343,383.196z"/>
	<path style="fill:#57455E;" d="M419.993,401.242c-0.877-1.128-1.88-2.256-2.757-3.384c-1.504-1.754-4.887-1.253-5.89,0.752
		c-0.627,1.253-1.128,2.506-1.754,3.76c-0.877,1.754-0.501,4.136,1.379,5.138c1.379,0.752,3.258,0.627,4.386-0.376
		c1.379,0.877,3.509,0.627,4.637-0.627C421.496,405.001,421.371,402.871,419.993,401.242z"/>
	<path style="fill:#EDEDED;" d="M337.031,475.431c-0.627-2.13-2.632-2.882-4.637-2.632c-3.634,0.501-7.143,0.125-10.652-0.877
		c-4.637-1.379-6.642,5.89-2.005,7.269c4.887,1.379,9.65,1.629,14.662,0.877C336.529,479.692,337.532,477.186,337.031,475.431z"/>
	<path style="fill:#EDEDED;" d="M394.929,489.091h-7.519c-4.887,0-4.887,7.519,0,7.519h7.519
		C399.691,496.61,399.691,489.091,394.929,489.091z"/>
	<path style="fill:#EDEDED;" d="M458.842,489.091h-5.013c-2.005,0-3.885,1.754-3.76,3.76c0.125,2.005,1.629,3.76,3.76,3.76h5.013
		c2.005,0,3.885-1.754,3.76-3.76C462.476,490.72,460.847,489.091,458.842,489.091z"/>
	<path style="fill:#EDEDED;" d="M363.097,458.137c-2.632-1.88-6.141-2.381-9.274-1.379c-2.005,0.627-3.133,2.632-2.632,4.637
		c0.501,1.88,2.632,3.258,4.637,2.632c0.251-0.125,0.501-0.125,0.752-0.251c0,0,0.125,0,0.251,0s0.877,0.125,0.752,0
		c0.376,0.125,0.627,0.125,1.003,0.251c-0.501-0.125,0.627,0.501,0.877,0.501c1.629,1.128,4.136,0.251,5.138-1.379
		C365.478,461.395,364.726,459.265,363.097,458.137z"/>
	<path style="fill:#EDEDED;" d="M338.534,501.623h-12.532c-4.887,0-4.887,7.519,0,7.519h12.532
		C343.297,509.142,343.297,501.623,338.534,501.623z"/>
	<path style="fill:#EDEDED;" d="M316.979,447.861c-4.136-0.627-8.146-0.376-12.031,1.253c-1.88,0.752-3.258,2.506-2.632,4.637
		c0.501,1.754,2.757,3.384,4.637,2.632c2.506-1.003,5.263-1.629,8.021-1.253c2.005,0.251,4.01-0.501,4.637-2.632
		C319.987,450.743,318.985,448.111,316.979,447.861z"/>
	<path style="fill:#EDEDED;" d="M290.913,489.091h-10.026c-4.887,0-4.887,7.519,0,7.519h10.026
		C295.675,496.61,295.675,489.091,290.913,489.091z"/>
	<path style="fill:#EDEDED;" d="M426.259,468.915c-1.88,0.251-3.885,0.125-5.639-0.752c-1.88-0.877-4.01-0.501-5.138,1.379
		c-1.003,1.629-0.501,4.261,1.379,5.138c3.008,1.379,6.141,2.13,9.399,1.754c2.005-0.251,3.76-1.629,3.76-3.76
		C430.018,470.794,428.264,468.789,426.259,468.915z"/>
	<path style="fill:#56597A;" d="M518.995,263.515c-2.005,0.125-3.76,1.629-3.76,3.76v6.266c0,2.005,1.754,3.885,3.76,3.76
		c2.005-0.125,3.76-1.629,3.76-3.76v-6.266C522.755,265.269,521.001,263.39,518.995,263.515z"/>
	<path style="fill:#56597A;" d="M539.172,225.919c-2.256,0-3.509,1.754-3.76,3.76c-0.501,3.76-0.877,7.519-1.379,11.279
		c-0.251,2.005,1.88,3.76,3.76,3.76c2.256,0,3.509-1.754,3.76-3.76c0.501-3.76,0.877-7.519,1.378-11.279
		C543.182,227.673,541.052,225.919,539.172,225.919z"/>
	<path style="fill:#56597A;" d="M537.793,279.807v7.519c0,4.887,7.519,4.887,7.519,0v-7.519
		C545.313,274.919,537.793,274.919,537.793,279.807z"/>
	<path style="fill:#56597A;" d="M529.021,173.284v10.026c0,4.887,7.519,4.887,7.519,0v-10.026
		C536.54,168.397,529.021,168.397,529.021,173.284z"/>
	<path style="fill:#56597A;" d="M650.206,325.172c-0.376-2.882-0.877-5.89-1.253-8.772c-0.251-2.005-2.882-3.133-4.637-2.632
		c-2.13,0.627-2.882,2.632-2.632,4.637c0.376,2.882,0.877,5.89,1.253,8.772c0.251,2.005,2.882,3.133,4.637,2.632
		C649.704,329.183,650.456,327.178,650.206,325.172z"/>
	<path style="fill:#56597A;" d="M662.988,347.354c-2.256,0-3.509,1.754-3.76,3.76c-0.627,4.637-1.253,9.274-1.88,13.911
		c-0.251,2.005,1.88,3.76,3.76,3.76c2.256,0,3.509-1.754,3.76-3.76c0.627-4.637,1.253-9.274,1.88-13.911
		C666.999,349.109,664.868,347.479,662.988,347.354z"/>
	<path style="fill:#56597A;" d="M644.817,358.758c-1.755-0.501-4.261,0.627-4.637,2.632c-0.627,3.76-1.253,7.645-1.88,11.404
		c-0.376,2.005,0.501,4.01,2.632,4.637c1.755,0.501,4.261-0.627,4.637-2.632c0.627-3.76,1.253-7.645,1.88-11.404
		C647.825,361.39,646.947,359.385,644.817,358.758z"/>
	<path style="fill:#56597A;" d="M628.024,413.899v10.026c0,4.887,7.519,4.887,7.519,0v-10.026
		C635.543,409.012,628.024,409.012,628.024,413.899z"/>
	<path style="fill:#56597A;" d="M656.096,409.262c-1.88-1.128-4.01-0.376-5.138,1.379c-1.88,2.632-2.256,6.015-1.504,9.148
		c0.501,2.005,2.757,3.133,4.637,2.632c2.005-0.501,3.133-2.632,2.632-4.637c0-0.125-0.125-0.376-0.125-0.501c0,0,0-0.125,0-0.376
		c0-0.125,0.125-0.877,0-0.752c0.125-0.251,0.125-0.627,0.251-0.877c0,0.125,0.501-0.752,0.627-0.877
		C658.602,412.771,657.85,410.265,656.096,409.262z"/>
	<path style="fill:#56597A;" d="M115.465,311.137v8.772c0,4.887,7.519,4.887,7.519,0v-8.772
		C122.984,306.249,115.465,306.249,115.465,311.137z"/>
	<path style="fill:#56597A;" d="M98.171,290.208c-1.629-0.877-4.386-0.501-5.138,1.379c-1.629,3.885-2.13,7.645-1.253,11.78
		c0.376,2.005,2.757,3.133,4.637,2.632c2.005-0.627,3.008-2.632,2.632-4.637c-0.376-2.005-0.251-4.136,0.501-6.015
		C100.301,293.466,100.176,291.336,98.171,290.208z"/>
	<path style="fill:#56597A;" d="M124.237,274.794v10.026c0,4.887,7.519,4.887,7.519,0v-10.026
		C131.756,269.906,124.237,269.906,124.237,274.794z"/>
	<path style="fill:#56597A;" d="M113.46,221.282c-1.754-1.003-4.01-0.376-5.138,1.379c-1.754,2.757-2.13,6.015-1.504,9.148
		c0.376,2.005,2.757,3.133,4.637,2.632c2.13-0.627,3.008-2.632,2.632-4.637c0-0.125,0-0.125,0-0.251s0-0.251,0-0.376
		c0-0.251,0-0.501,0-0.752c0,0,0,0,0-0.125c0-0.251,0.125-0.376,0.125-0.627c0.125-0.251,0.125-0.501,0.125-0.376
		c0.125-0.251,0.376-0.752,0.501-0.877C115.966,224.791,115.214,222.285,113.46,221.282z"/>
	<path style="fill:#56597A;" d="M124.237,183.31v11.279c0,4.887,7.519,4.887,7.519,0V183.31
		C131.756,178.423,124.237,178.423,124.237,183.31z"/>
	<path style="fill:#56597A;" d="M131.756,229.678v8.772c0,4.887,7.519,4.887,7.519,0v-8.772
		C139.276,224.791,131.756,224.791,131.756,229.678z"/>
	<path style="fill:#F087B1;" d="M401.32,90.949c-18.171-31.706-61.156-38.975-94.366-41.356c-10.652-0.752-21.43-0.376-31.581,3.133
		c-10.026,3.384-19.299,9.399-27.696,15.916c-14.788,11.404-27.32,25.565-37.22,41.356c-11.529,18.547-19.049,39.476-22.056,61.156
		c0,0.251,0,0.501,0,0.752c0,0.125-0.125,0.376-0.125,0.501c-1.128,5.263,7.018,6.893,8.146,1.629
		c4.887-23.059,36.343-27.821,46.995-6.266c1.629,3.133,7.519,4.01,8.02-0.501c1.253-12.908,6.517-27.445,19.049-33.46
		c10.026-4.887,24.688-2.005,29.701,8.772c2.005,4.136,8.146,3.258,8.02-1.629c-0.251-26.693,31.33-39.1,50.003-20.803
		c2.506,2.506,7.269,0.125,6.893-3.384c-1.003-8.146,0.627-17.044,7.143-22.558c6.391-5.514,17.044-5.389,22.432,1.504
		C397.686,99.847,403.952,95.586,401.32,90.949z"/>
	<path style="fill:#57455E;" d="M276.25,56.361c-1.629-2.506-3.133-5.013-4.762-7.519c-1.128-1.754-3.384-2.381-5.138-1.379
		c-1.754,1.003-2.506,3.384-1.379,5.138c1.629,2.506,3.133,5.013,4.762,7.519c1.128,1.754,3.384,2.381,5.138,1.379
		C276.626,60.496,277.378,57.99,276.25,56.361z"/>
	<path style="fill:#57455E;" d="M254.946,80.924c-11.529,20.302-16.668,43.486-14.788,66.921c0.376,4.762,7.895,4.887,7.519,0
		c-1.88-22.056,2.757-43.737,13.66-63.036C263.844,80.548,257.327,76.788,254.946,80.924z"/>
	<path style="fill:#57455E;" d="M301.816,117.266c-4.261-11.905-9.399-23.435-15.414-34.463c-2.381-4.261-8.772-0.501-6.517,3.76
		c5.765,10.527,10.652,21.43,14.662,32.709C296.176,123.783,303.445,121.778,301.816,117.266z"/>
	<path style="fill:#57455E;" d="M348.936,97.967c-6.266-9.65-12.908-19.425-22.934-25.565c-9.775-6.015-21.179-8.396-32.458-9.65
		c-4.762-0.501-4.762,7.018,0,7.519c10.026,1.003,20.051,3.258,28.698,8.522c8.898,5.514,14.662,14.286,20.177,22.934
		C345.051,105.737,351.568,101.977,348.936,97.967z"/>
	<path style="fill:#B6C8E8;" d="M422.374,65.885c-1.754-7.143-2.256-14.286-1.629-21.555c0.501-4.762-7.018-4.762-7.519,0
		c-0.752,8.02-0.125,15.79,1.88,23.56C416.233,72.527,423.502,70.522,422.374,65.885z"/>
	<path style="fill:#B6C8E8;" d="M452.576,44.33c-0.501-4.762-8.146-4.762-7.519,0c0.752,6.767,0.376,13.159-1.504,19.675
		c-1.253,4.637,6.015,6.642,7.269,2.005C452.826,58.867,453.453,51.599,452.576,44.33z"/>
	<path style="fill:#B6C8E8;" d="M388.788,10.494v15.038c0,4.887,7.519,4.887,7.519,0V10.494
		C396.307,5.606,388.788,5.606,388.788,10.494z"/>
	<path style="fill:#B6C8E8;" d="M200.808,40.57v20.678c0,4.887,7.519,4.887,7.519,0V40.57
		C208.327,35.683,200.808,35.683,200.808,40.57z"/>
	<path style="fill:#B6C8E8;" d="M223.365,12.373v11.279c0,4.887,7.519,4.887,7.519,0V12.373
		C230.885,7.486,223.365,7.486,223.365,12.373z"/>
	<path style="fill:#B6C8E8;" d="M287.279,6.734v15.038c0,4.887,7.519,4.887,7.519,0V6.734
		C294.798,1.847,287.279,1.847,287.279,6.734z"/>
	<path style="fill:#B6C8E8;" d="M202.687,423.925v13.159c0,4.887,7.519,4.887,7.519,0v-13.159
		C210.207,419.163,202.687,419.163,202.687,423.925z"/>
	<path style="fill:#B6C8E8;" d="M229.005,252.988v15.038c0,4.887,7.519,4.887,7.519,0v-15.038
		C236.524,248.101,229.005,248.101,229.005,252.988z"/>
	<path style="fill:#B6C8E8;" d="M251.061,395.728c-1.379-3.008-1.754-6.141-1.504-9.274c0.251-2.005-1.88-3.76-3.76-3.76
		c-2.256,0-3.509,1.754-3.76,3.76c-0.501,4.637,0.501,9.023,2.506,13.159c0.877,1.88,3.509,2.256,5.138,1.379
		C251.562,399.738,251.938,397.607,251.061,395.728z"/>
	<path style="fill:#B6C8E8;" d="M452.325,236.947l-2.005-11.279c-0.376-2.005-2.757-3.133-4.637-2.632
		c-2.13,0.627-3.008,2.632-2.632,4.637l2.005,11.279c0.376,2.005,2.757,3.133,4.637,2.632
		C451.824,240.957,452.701,238.952,452.325,236.947z"/>
	<path style="fill:#B6C8E8;" d="M459.719,329.935c-2.005-4.386-8.522-0.627-6.517,3.76c1.504,3.258,1.88,6.767,1.379,10.276
		c-0.752,4.762,6.517,6.767,7.269,2.005C462.727,340.336,462.1,335.198,459.719,329.935z"/>
	<path style="fill:#B6C8E8;" d="M498.192,407.884c-1.88-1.128-3.885-0.251-5.138,1.379c-2.882,3.885-2.882,8.898-0.752,13.033
		c2.13,4.261,8.647,0.501,6.517-3.76c-1.003-1.88-0.376-3.885,0.752-5.514C500.699,411.393,499.822,408.886,498.192,407.884z"/>
	<path style="fill:#B6C8E8;" d="M480.898,177.796v7.519c0,4.887,7.519,4.887,7.519,0v-7.519
		C488.417,172.908,480.898,172.908,480.898,177.796z"/>
</g>
</svg>
