<?xml version="1.0" encoding="utf-8"?>
<!-- Generator: Adobe Illustrator 23.0.6, SVG Export Plug-In . SVG Version: 6.00 Build 0)  -->
<svg version="1.1" id="Capa_1" xmlns="http://www.w3.org/2000/svg" xmlns:xlink="http://www.w3.org/1999/xlink" x="0px" y="0px" viewBox="0 0 800 600" style="enable-background:new 0 0 800 600;" xml:space="preserve">

<g>
	<path d="M163.1,400.6c5.1-57.2,12.4-114.1,18.7-171.2c0.1-1.8-1.5-4-3.2-4.3c-5.9-1-11.5,0.6-15.7,3.8
		c-2.1-0.4-4.6,0.3-5.6,2.8c-20.3,51.6-34.4,105.6-41.8,160.6c-3.7,27.7-5.9,55.6-6.2,83.5c-0.1,14,0.1,27.9,0.7,41.9
		c0.6,13.1,0.6,27.1,3.5,39.9c5.3,24.4,32.8,23.1,52.1,18.5c2.5-0.6,3.4-3.1,3.1-5.4C159.5,514.4,158.1,457.5,163.1,400.6z" style="fill:#C39A8A;"/>
	<path d="M339.3,179.2c-39.1-13.2-81.6-13.1-120.6-0.1c31-31.2,54-69.9,66.5-112.1c0.9-3.2-2.2-6.5-5.4-5.4
		c-42.2,12.9-77.4,44.1-95.9,83.8c0-46.6-5.7-95.7-40-129.7c-2.2-2.1-6.9-1.5-7.4,1.9c-5.7,37.8-4,76,5.4,112.8
		c-21.8-29.9-49.9-56.6-89.3-54.7c-2.8,0.1-5.1,2.8-4.3,5.6c11.2,34.1,35.4,62.4,67.2,78.7c-50.2,13.8-93,50.7-113.7,98.7
		c-1.2,2.8,0.1,6.9,3.8,6.6c37.7-2.2,72.4-16.8,105.6-33.5c-29.4,37.7-50,81.5-60,128.4c-0.6,2.9,2.1,6.8,5.4,5.4
		C111.7,344,120.6,277,162.1,241c27.7,28.8,61.5,50.9,99,64.7c3.5,1.3,5.9-2.5,5.4-5.4c-5.3-30.7-20.3-59-42.5-80.6
		c40.9,0.3,81.2-11,116.2-32.5C343.7,185.3,342.9,180.4,339.3,179.2z" style="fill:#74A3D7;"/>
	<path d="M181.8,222.8c-6.2-2.5-13.4-0.6-17.6,4.4c-0.4,0.4-0.7,0.9-1,1.3c-33.2-20.4-45,49.1-10,44
		c4.9-0.7,9.1-3.2,12.4-6.9c7.5,8.2,23.4,9.6,28.8-1.9C199.6,252,194.7,228.1,181.8,222.8z" style="fill:#57455E;"/>
	<path d="M630.1,570.9c-0.3,2.4,0.6,4.9,3.1,5.4c19.3,4.6,46.6,5.9,52.1-18.5c2.8-12.8,2.8-26.8,3.5-39.9
		c0.7-14,0.9-27.9,0.7-41.9c-0.3-27.9-2.5-55.9-6.2-83.5c-7.4-55-21.5-108.8-41.9-160.5c-1-2.5-3.5-3.2-5.6-2.8
		c-4.3-3.2-10-4.9-15.7-3.8c-1.8,0.3-3.4,2.5-3.2,4.3c6.3,57.1,13.7,114,18.7,171.2C640.5,457.5,639.2,514.4,630.1,570.9z" style="fill:#C39A8A;"/>
	<path d="M458.3,187.3c34.9,21.5,75.3,32.8,116.2,32.5c-22.2,21.6-37.2,50-42.5,80.6c-0.4,2.9,1.9,6.8,5.4,5.4
		c37.5-13.8,71.3-35.9,99-64.7c41.5,36,50.4,103.1,105.3,124.6c3.4,1.3,6-2.5,5.4-5.4c-9.9-46.9-30.6-90.9-60-128.4
		c33.4,16.6,67.9,31.3,105.6,33.5c3.7,0.1,5-3.8,3.8-6.6c-20.7-47.9-63.5-84.9-113.7-98.7c31.6-16.2,56-44.4,67.2-78.7
		c0.9-2.8-1.5-5.4-4.3-5.6c-39.4-2.1-67.5,24.7-89.3,54.7c9.4-36.8,11.3-75.2,5.4-112.8c-0.6-3.4-5.3-4.1-7.4-1.9
		c-34.3,34-39.9,83.1-40,129.7c-18.5-39.7-53.7-70.9-95.9-83.8c-3.2-1-6.3,2.2-5.4,5.4c12.6,42.2,35.6,80.9,66.5,112.1
		c-38.8-12.9-81.5-13.1-120.6,0.1C455.8,180.4,454.9,185.3,458.3,187.3z" style="fill:#74A3D7;"/>
	<path d="M604.5,263.7c5.3,11.5,21.2,10.3,28.8,1.9c3.1,3.7,7.4,6.2,12.4,6.9c35,5,23.2-64.4-10-44
		c-0.3-0.4-0.6-0.9-1-1.3c-4.4-5-11.5-6.9-17.6-4.4C603.9,228.1,599.1,252,604.5,263.7z" style="fill:#57455E;"/>
	<path d="M441.1,448.7c-4.1-16.8-8.2-33.4-15.4-49.1c-2.9-6.3-6.2-13.7-11.8-18.2c-5.6-4.6-10.1-2.6-16.2-2.5
		c2.2-2.2,4.3-4.6,6.3-6.9c2.9-3.2,6-6.5,7.4-10.7c2.5-7.4-1.8-17.5-10.6-17.1c-4.7,0.3-8.2,3.7-11.8,6.5c-5.7,4.6-11.3,9.3-16.9,14
		c-10.6,8.7-21.2,17.4-31.8,26c-16.2-15.9-43.5-45.6-65.6-26.8c-0.3-0.6-0.7-1.2-1.2-1.6c6.5-9.1,4.3-24.3-0.4-33.4
		c-5.3-10.1-17.6-21-28.8-16.9c-3.5,1-6.8,3.5-9,6.8c-4.6,7.1-3.8,16.5-2.1,24.3c2.6,11,11.9,25.1,24,26.5c0,0.1,0,0.1,0,0.3l0,0
		c-16.5,10.4-22.4,31.9-15,49.9c8.1,19.9,28.5,31.2,49.1,33.1c2.1,0.1,4.1,0.3,6.2,0.3c14.6,10.9,33.7,15.7,51,20.3
		c12.8,3.4,31.5,0.9,33.1-14.6c0.3-0.3,0.4-0.6,0.7-1c5.6-10.3,11.6-20.1,18.2-29.7c1.9,4,3.8,8.1,5.4,12.2
		c1.8,4.6,2.8,10.1,5.3,14.4c4.4,7.4,17.4,2.8,24.1,1.9c2.5-0.3,3.8-2.1,4.1-4C441,451.8,441.4,450.3,441.1,448.7z" style="fill:#F7D3BD;"/>
	<path d="M466.3,324c-0.6-4.1-3.7-6-6.8-8.1c-5.6-3.8-11.5-7.4-17.5-10.4c-10.9-5.7-22.4-10.3-34.3-13.8
		c-2.9-0.9-5.4,1.5-5.6,4.3c-0.7,10.3-1.5,20.7-2.4,31c-0.4,5.6-1,9.1-5,13.1c-3.4,3.4-7.1,6.3-10.6,9.6
		c-4.7,4.3-13.7,9.6-14.7,16.5c-1,7.1,5.3,16.3,7.9,22.4c1.6,3.8,6.2,2.4,7.6-0.6c2.2-2.2,4.4-4.6,7.1-6c4-2.2,12.4-0.9,8.1,5
		c-2.1,2.8-6,3.8-8.2,6.8c-5.6,7.5,2.4,15.6,7.4,21c7.5,8.1,17.8,4.7,27.2,1.2c9.7-3.7,16.3-10.6,20.6-20c5-11.2,8.5-23.1,11.8-34.9
		c1.9-7.2,3.7-14.4,5.1-21.6C465.1,334.2,467,328.7,466.3,324z" style="fill:#B6C8E8;"/>
	<path d="M275.6,336.5c1.5-1.5,2.4-3.7,2.5-6.3c0.4-14.6-24-25.1-36-21.5c-18.7,5.7-15.3,29-10,42.7
		c1.8,4.6,4.4,10.6,10.4,7.6c2.9-1.5,5.3-4.7,7.1-8.4c-0.6,2.5,0.9,5.4,4.1,5.4c5.7,0,5.7-8.8,0-8.8c-1.6,0-2.6,0.7-3.4,1.6
		c1-2.4,1.8-4.9,2.4-7.1c2.8-2.6,10.1-1.3,13.7-1.6c0.7,0,1.5-0.1,2.2-0.3c0,2.2,1.5,4.4,4.3,4.4
		C277.1,344.2,278.1,338.8,275.6,336.5z" style="fill:#57455E;"/>
	<path d="M277.3,346.7c-1.9-1.8-4.3-1.6-6.2,0c-2.2,1.8-4.3,3.5-6.5,5.3c-1.8,1.5-1.6,4.7,0,6.2c1.9,1.8,4.3,1.6,6.2,0
		c2.2-1.8,4.3-3.5,6.5-5.3C279,351.6,278.9,348.4,277.3,346.7z" style="fill:#57455E;"/>
	<path d="M453.9,326.3c-3.5-5-12.8-5.7-17.6-9.4c-5.9-4.4-10.4-9.3-17.5-11.8c-1.2-0.4-2.5-0.1-3.5,0.6
		c-1.5,0.6-2.6,1.9-2.6,3.8c-0.4,7.4-0.7,14.6-1.2,21.9c-0.3,4.6-1.6,10.6,0.7,14.9c2.2,3.8,6.9,5,10.6,6.9
		c6,3.1,11.6,7.1,16.6,11.6c1.8,1.6,4.6,1.8,6.2,0c4.7-5,5-12.6,6.5-19.3C453.2,340.6,457.3,331,453.9,326.3z" style="fill:#57455E;"/>
	<path d="M257.3,513.1c-2.8-6-5.6-12.1-8.2-18.1c-0.7-1.8-3.2-2.5-5-2.1c-4.9,1.3-9.7,2.6-14.4,3.8
		c-5.4,1.5-3.1,10,2.4,8.5c3.7-1,7.2-1.9,10.9-2.9c2.4,5,4.6,10.1,6.9,15.1C252,522.7,259.5,518.2,257.3,513.1z" style="fill:#F7D16F;"/>
	<path d="M377.1,462.5c0.9-1.6,0.9-3.8-0.6-5.3c-7.6-7.2-15.3-14.3-22.9-21.5c-2.2-2.1-5-1.2-6.6,0.6
		c-6.8,3.1-13.7,6.2-20.4,9.3c-4.1,1.9-8.8,3.8-11.5,7.8c-5.1,7.9,1.2,15.4,8.5,18.8c10.7,4.9,24,5.7,35.4,4.3
		C365.5,475.6,382.9,473.1,377.1,462.5z" style="fill:#F7D16F;"/>
	<path d="M279.9,293.1c-5.3,4.6-10.7,9.1-16,13.7c-14.1-6.3-28.5-9.4-39.1,4.4c-7.4,9.7-11,22.6-4.6,32.9
		c-4.7,4-9.4,8.1-14.1,12.1c-4.3,3.7,1.9,9.9,6.2,6.2c24.6-21.2,49.1-42.2,73.8-63.2C290.5,295.6,284.2,289.4,279.9,293.1z" style="fill:#F7D16F;"/>
	<path d="M253.9,301.3c-15,9.7-27.8,22.1-37.9,36.8c-3.2,4.7,4.4,9.1,7.6,4.4c9.4-13.4,21-24.7,34.9-33.7
		C263,305.9,258.6,298.2,253.9,301.3z" style="fill:#F087B1;"/>
	<path d="M408.2,369.8c-0.4-2.8-4.3-4.1-6.5-2.6c-14.6,9.4-27.1,21.2-37.7,35c-1.6,2.2-0.7,4.4,1,5.4
		c-0.3,0.3-0.6,0.6-0.7,0.7c-2.1,2.1-1.5,4.7,0.1,6.2c-5,4.1-10,7.9-15.4,11.6c-4.7,3.2-0.3,10.9,4.4,7.6
		c13.2-9,25.3-19.7,36.9-30.7C400.1,394.3,410.7,384.3,408.2,369.8z" style="fill:#F7D3BD;"/>
	<path d="M172,329c-2.8-6.3-4.6-12.9-5.3-19.9c-0.6-5.6-8.4-5.7-8.8,0c-0.3,4.1-0.9,8.1-2.1,11.9
		c-0.6,1.8-1.2,3.7-1.9,5.3c-0.9-1.3-1.3-2.6-1.3-4.1c-1.3-6.5-1-13.7-0.7-20.3c0.1-4.3-6.3-6.2-8.2-2.2
		c-3.2,6.6-6.6,13.2-13.8,16.5c-5.1,2.4-0.7,9.9,4.4,7.6c3.4-1.5,6-3.7,8.4-6.2c0.4,8.2,2.6,16.2,9.6,17.6c5,1,8.2-1.9,10.4-6.3
		c0.6,1.5,1.2,2.9,1.8,4.4C166.7,338.5,174.3,334.1,172,329z" style="fill:#57455E;"/>
	<path d="M166.2,358.5c-1.5-1.6-2.6-3.5-3.4-5.6c-1.3-3.4-5.9-4.6-8.1-1c-1.6,2.8-4.3,7.4-7.8,7.2
		c-2.8-0.1-2.6-1.3-3.4-4c-0.6-2.2-0.7-4.6-0.7-6.8c-0.1-4.9-7.5-6.2-8.7-1.2c-1.5,6-4.7,14.7-12.8,11.9c-5.3-1.9-7.6,6.6-2.4,8.5
		c7.4,2.6,13.4-0.3,17.5-5.3c1.6,3.5,4.1,6.5,7.9,7.2c5.3,0.9,10-2.8,13.7-7.1c0.6,0.9,1.2,1.6,1.9,2.5
		C163.7,369.1,169.9,362.8,166.2,358.5z" style="fill:#57455E;"/>
	<path d="M159.5,434c-6.2-1.5-5.3-12.9-7.2-17.6c-1.5-3.4-7.8-4.9-8.5,0c-0.4,3.4-2.4,7.6-2.2,10.9c0,0,0,0,0,0.1
		c0,0,0,0,0-0.1c-2.2-6.3-3.2-12.9-3.4-19.7c-0.1-4.6-5.7-5.7-8.2-2.2c-2.5,3.4-7.2,18.4-13.4,15.1c-5-2.6-9.6,5-4.4,7.6
		c9,4.6,14.4-0.6,18.7-7.2c0.4,2.1,0.9,4.1,1.5,6.2c1.2,4,2.6,10.3,6.8,12.5c4.6,2.4,7.5-0.3,9.6-4.4c1.5,3.4,4,6.2,8.8,7.4
		C162.5,443.8,164.9,435.3,159.5,434z" style="fill:#57455E;"/>
	<path d="M161.2,482.2c-5.1-4.4-7.4-9.7-7.2-16.5c0.1-5.4-6.9-5.4-8.7-1.2c-1.2,2.6-1,5.7-2.1,8.2
		c-0.1,0.7-0.3,1.5-0.4,2.1c-2.6,2.8-4,2.5-4.3-0.9c-2.6-5.3-2.1-13.5-1.8-19.3c0.1-4.1-6.5-6.3-8.2-2.2
		c-2.8,6.6-6.2,15.3-14.6,15.7c-5.6,0.3-5.7,9.1,0,8.8c6.2-0.4,10.7-3.1,14.4-6.9c0.9,7.2,3.4,14,9.3,16s9.3-0.7,11.3-4.9
		c1.5,2.5,3.5,4.9,5.9,6.9C159.3,492.2,165.5,485.9,161.2,482.2z" style="fill:#57455E;"/>
	<path d="M167.8,536c-2.5-3.7-3.8-7.2-4.4-11.6c-0.7-5.6-9.3-3.2-8.5,2.4c0,0.1,0,0.4,0,0.6c-0.4-1.6-1.6-3.7-2.1-5
		c-1.5-4.3-2.8-8.4-4-12.6c-1.3-4.9-8.4-3.8-8.7,1.2c-0.3,4.7-1,9.1-2.5,13.4c-1-2.2-1.8-4.6-2.1-7.1c0.6-3.7,0.6-7.5,0.1-11.2
		c-0.4-4.6-7.8-6.5-8.7-1.2c-0.6,3.4-0.7,6.6-0.6,9.9c-1,6.5-4,12.8-10.9,8.4c-4.7-3.1-9.1,4.6-4.4,7.6c5.7,3.8,13.1,2.8,18.2-1.8
		c0.1-0.1,0.4-0.3,0.6-0.6c1.3,2.9,3.1,5.7,5.3,8.5c1.8,2.2,5.7,1.5,6.9-0.9c1.3-2.5,2.4-5.1,3.2-7.8c0.4,1.3,1,2.6,1.5,4
		c1.3,3.4,2.8,7.6,6.6,8.8c2.6,0.9,4.7,0.3,6.2-1c0.1,0.1,0.1,0.3,0.3,0.4C163.3,545.2,170.9,540.7,167.8,536z" style="fill:#57455E;"/>
	<path d="M664.5,304.5c-1.5,0-2.9-0.1-4.4-0.1c-1.3-1.3-2.2-2.8-2.6-4.4c-1.2-2.6-1.5-4.9-1.6-7.6c-0.1-5.6-9-5.7-8.8,0
		c0,2.5-0.7,13.2-5,7.4c-1.9-2.6-1.8-6.9-1.9-10c-0.1-5.7-8.5-5.6-8.8,0c-0.4,7.2-3.5,12.9-9,17.6c-4.3,3.7,1.9,10,6.2,6.2
		c2.8-2.4,5-5,6.8-7.9c1.6,2.5,4,4.3,7.4,4.9c3.7,0.6,6.3-0.7,8.4-3.1c1.3,2.2,3.1,4,5.3,5.4c5.6,3.4,12.4,1.8,15.6-3.8
		C675.1,304.1,667.5,299.7,664.5,304.5z" style="fill:#57455E;"/>
	<path d="M679.8,345.4c-5.7-2.2-9.3-6.6-10.6-12.4c-1-4.3-7.5-4.1-8.5,0c-0.3,1.2-1.8,7.1-2.5,7.1
		c-3.5,0.4-5.1-8.5-5.3-10.6c-0.1-5.7-8.7-5.7-8.8,0c-0.1,7.8-0.6,16.8-8.7,20.4c-5.1,2.4-0.7,10,4.4,7.6c5.6-2.5,8.8-6.9,10.6-12.1
		c1.6,1.5,3.4,2.6,5.6,3.2c4.3,1.3,7.2-0.6,9.3-3.7c2.9,4,7.2,6.9,12.2,8.8C682.9,355.9,685.1,347.3,679.8,345.4z" style="fill:#57455E;"/>
	<path d="M688,433.1c-6.2,6.2-10.6-11.8-10.9-14.4c-0.7-5-8.8-3.7-8.7,1.2c0.1,4.9,0.4,9.1-3.5,2.6
		c-2.4-3.8-3.8-8.1-4.3-12.5c-0.7-5.4-8.5-5.9-8.8,0c-0.3,8.5-3.7,15.9-9.6,21.9c-4,4.1,2.2,10.3,6.2,6.2c3.5-3.5,6.2-7.4,8.2-11.6
		c2.2,4.3,5.3,7.6,9.3,9.1c3.4,1.2,5.9,0.3,7.6-1.5c4,6.6,10,11.5,16.8,8.2c2.2,0.6,4.6-0.1,4.9-2.9c0.1-0.6,0.1-1.3,0.3-1.9
		C696,433.2,691.4,429.6,688,433.1z" style="fill:#57455E;"/>
	<path d="M686.6,485.9c-4.3,2.6-9.3-11.8-9.7-13.5c-1-4.3-7.4-4.3-8.5,0c-0.7,2.9-0.6,5.6-4.1,5.9
		c-3.5,0.3-2.6-1.3-3.1-5s-0.9-7.4-1.3-11c-0.1-1.5-0.3-2.8-0.6-4.3c-0.9-4.9-9.3-3.8-8.7,1.2c0.3,2.1,0.3,4.7,0.4,7.6
		c-0.6,8.2-5.6,15.6-13.2,19.6c-5,2.6-0.6,10.3,4.4,7.6c5-2.6,9-6.3,11.9-10.7c1,2.2,2.6,3.8,4.7,4.9c5.7,2.9,10.1,0.3,13.4-3.8
		c4.3,7.5,11,14.1,18.7,9.3C695.8,490.4,691.4,482.8,686.6,485.9z" style="fill:#57455E;"/>
	<path d="M687.5,529.4c-5-3.1-7.8-7.2-9-12.8c-1-4.9-9-3.8-8.7,1.2c0.1,2.5,0.1,5-0.7,7.4c-0.4,1.6-1.3,2.9-2.4,4.1
		c-0.7,1.6-1.2,1.6-1.5,0c-2.8-2.1-2.5-13.2-2.5-16.3c-0.1-4.7-7.6-6.2-8.7-1.2c-0.7,4.1-7.8,20.3-14.6,13.7
		c-4.1-4-10.3,2.2-6.2,6.2c7.6,7.5,16.2,3.5,22.2-3.5c1.3,6,4.1,11.3,9.7,11.6c5.1,0.1,8.7-3.7,10.9-8.4c1.9,2.2,4.3,4.1,6.9,5.9
		C687.9,540,692.3,532.4,687.5,529.4z" style="fill:#57455E;"/>
	<path d="M681.1,383.2c-11.6,1.8-23.2,2.1-34.9,1c11-4.9,22.4-8.4,34.1-10.7c5.6-1.2,3.2-9.6-2.4-8.5
		c-14,2.8-27.5,7.4-40.3,13.5c-1,0.4-1.6,1.2-1.9,1.9c-0.6,0-1.2,0.3-1.8,0.7c-26.3,18.8-59.6,25.9-90.3,34.6
		c-32.7,9.1-65.6,17.6-98.5,25.4s-67.8,18.4-101.9,15.7c-32.1-2.5-62.5-18.1-91.6-30.7c-30.9-13.5-61.3-28.2-88.8-47.8
		c-0.4-0.9-0.7-1.6-1.2-2.5c-0.1-2.5-2.4-5-5.6-4.6c-14.7,2.1-29.6,3.1-44.4,3.4c-5.7,0.1-5.7,9,0,8.8c13.5-0.3,27.1-1.3,40.6-2.9
		c0.3,0.7,0.7,1.5,1.6,2.2c0.6,0.4,1.3,0.9,1.9,1.3c0.3,0.6,0.6,1.2,0.9,1.8c-0.9-0.6-2.1-0.9-3.4-0.4c-11.8,2.9-23.5,5.9-35.3,9
		c-5.4,1.3-3.2,9.9,2.4,8.5c11.8-2.9,23.5-5.9,35.3-9c2.2-0.6,3.1-2.2,3.1-4c31.9,61.2,88.5,109,154.7,129.4
		c21.5,6.6,42.9,9.9,65.4,6.9c23.7-2.9,47.2-7.2,71-10c42.8-5,86.8-10.6,125-31.8c34.3-19.1,61.9-52.4,65.3-92.1
		c14.4,1.8,28.8,1.6,43.2-0.6C689.1,390.9,686.7,382.5,681.1,383.2z" style="fill:#F087B1;"/>
	<path d="M373,376.9c-17.6,8.5-35.2,17.1-53.1,25.1c-4.3,1.9-8.5,3.8-12.8,5.6c-2.6,1.2-5.3,2.6-7.9,3.4
		c-3.8,1-4.6,0.7-6.9-2.2c-0.7-1-1.5-1.9-2.2-2.9c4.1-1.3,3.7-8.5-1.5-8.5c-1.8,0-2.9,0.9-3.7,2.1c-4-5.1-7.9-10.4-12.1-15.6
		c-3.4-4.4-11,0-7.6,4.4c7.2,9.4,14.1,19.3,21.8,28.2c6.9,8.1,14.9,2.9,23.1-0.6c22.6-9.7,44.9-20.7,67.1-31.3
		C382.6,382,378.2,374.4,373,376.9z" style="fill:#57455E;"/>
	<path d="M385.2,404.7c-12.1,12.5-24.1,26.3-41,32.2c-5.3,1.9-3.1,10.4,2.4,8.5c18.5-6.5,31.8-20.6,45-34.4
		C395.4,406.9,389.2,400.6,385.2,404.7z" style="fill:#57455E;"/>
	<path d="M307.9,379.7h-0.6c-5.7,0-5.7,8.8,0,8.8h0.6C313.6,388.5,313.6,379.7,307.9,379.7z" style="fill:#57455E;"/>
	<path d="M398.7,354.8c-1-0.7-1.9-1.3-2.9-2.1c-0.9-0.6-2.4-0.7-3.4-0.4c-1,0.3-2.2,1-2.6,2.1c-1.2,2.2-0.4,4.6,1.6,6
		c1,0.7,1.9,1.3,2.9,2.1c0.9,0.6,2.4,0.7,3.4,0.4c1-0.3,2.2-1,2.6-2.1C401.5,358.5,400.8,356.2,398.7,354.8z" style="fill:#57455E;"/>
	<path d="M416.4,364.7c-0.6-0.3-1.3-0.6-1.9-1c-2.1-1-4.9-0.6-6,1.6c-1,2.1-0.6,5,1.6,6l1.9,1c2.1,1,4.9,0.6,6-1.6
		C419,368.7,418.6,365.7,416.4,364.7z" style="fill:#57455E;"/>
	<path d="M436.8,382c-0.6-0.6-1.3-1.3-1.9-1.9c-1.6-1.6-4.6-1.8-6.2,0c-1.6,1.8-1.8,4.6,0,6.2c0.6,0.6,1.3,1.3,1.9,1.9
		c1.6,1.6,4.6,1.8,6.2,0C438.5,386.6,438.6,383.8,436.8,382z" style="fill:#57455E;"/>
	<path d="M422.3,396.5L422.3,396.5c0-0.1-0.1-0.1-0.1-0.3c-0.9-1.9-3.1-3.2-5.1-2.5c-2.2,0.7-3.8,3.1-3.1,5.4
		c0.9,2.9,3.1,5.1,6.2,5.9c2.2,0.6,4.9-0.7,5.4-3.1C425.8,399.5,424.6,397.2,422.3,396.5z" style="fill:#57455E;"/>
	<path d="M387,365.3c-1-1-1.9-1.9-2.9-2.9c-1.6-1.6-4.6-1.8-6.2,0c-1.6,1.8-1.8,4.6,0,6.2c1,1,1.9,1.9,2.9,2.9
		c1.6,1.6,4.6,1.8,6.2,0C388.6,369.8,388.7,367,387,365.3z" style="fill:#57455E;"/>
	<path d="M281.1,551c-0.4-5.9-0.9-11.6-1.5-17.5c-0.3-4.1,0-9.1-1.6-13.1c-3.1-7.2-15.9-5.9-22.2-6
		c-5.1-0.1-16.2-2.4-17.9,4.6c-0.9,3.5,1.6,7.4,2.8,10.6c0,0.1,0.1,0.3,0.1,0.6c2.4,9.6,4.9,19.3,7.2,28.8c1.6,6.3,2.1,19.6,10,21.6
		c3.5,0.9,7.6-0.6,11.2-1.2c3.4-0.6,7.6-0.7,10.3-3.1C285.8,571,281.7,557.8,281.1,551z" style="fill:#B6C8E8;"/>
	<path d="M276.4,558.5c-0.7-7.8-2.9-15.6-5.3-22.9c-0.7-2.1-3.1-4-5.4-3.1c-3.1,1.2-6,2.1-9.3,2.4
		c-1.6,0.1-2.8,0.9-3.5,1.9c-2.4,0.4-4.3,2.5-3.4,5.3c2.5,8.1,8.4,30.6,20.6,28.1C275.5,569.1,276.8,563.4,276.4,558.5z" style="fill:#F087B1;"/>
</g>
</svg>
