<?xml version="1.0" encoding="iso-8859-1"?>
<!-- Generator: Adobe Illustrator 22.1.0, SVG Export Plug-In . SVG Version: 6.00 Build 0)  -->
<svg version="1.1" id="expense_x5F_tracking" xmlns="http://www.w3.org/2000/svg" xmlns:xlink="http://www.w3.org/1999/xlink"
	 x="0px" y="0px" viewBox="0 0 800 600" enable-background="new 0 0 800 600" xml:space="preserve">
<linearGradient id="SVGID_1_" gradientUnits="userSpaceOnUse" x1="669.9998" y1="105.9999" x2="504.9878" y2="271.0119">
	<stop  offset="0" style="stop-color:#76E5FF"/>
	<stop  offset="0.0862" style="stop-color:#97EBFF"/>
	<stop  offset="0.188" style="stop-color:#B7F1FF"/>
	<stop  offset="0.2988" style="stop-color:#D2F6FF"/>
	<stop  offset="0.4201" style="stop-color:#E6FAFF"/>
	<stop  offset="0.5572" style="stop-color:#F4FDFF"/>
	<stop  offset="0.7235" style="stop-color:#FCFFFF"/>
	<stop  offset="1" style="stop-color:#FFFFFF"/>
</linearGradient>
<circle fill="url(#SVGID_1_)" cx="584" cy="192" r="92"/>
<linearGradient id="SVGID_2_" gradientUnits="userSpaceOnUse" x1="187" y1="209" x2="187" y2="301.0489">
	<stop  offset="0" style="stop-color:#EDEDE6"/>
	<stop  offset="1" style="stop-color:#DDDDDD"/>
</linearGradient>
<path fill="url(#SVGID_2_)" d="M250,286c0,6.627-5.373,12-12,12H136c-6.627,0-12-5.373-12-12v-64c0-6.627,5.373-12,12-12h102
	c6.627,0,12,5.373,12,12V286z"/>
<linearGradient id="SVGID_3_" gradientUnits="userSpaceOnUse" x1="136" y1="496" x2="560" y2="496">
	<stop  offset="0" style="stop-color:#EDEDED"/>
	<stop  offset="1" style="stop-color:#DDDDDD"/>
</linearGradient>
<rect x="136" y="492" fill="url(#SVGID_3_)" width="424" height="8"/>
<linearGradient id="SVGID_4_" gradientUnits="userSpaceOnUse" x1="202" y1="403.551" x2="202" y2="492.4535">
	<stop  offset="0" style="stop-color:#FFD243"/>
	<stop  offset="0.3539" style="stop-color:#FFB736"/>
	<stop  offset="0.7539" style="stop-color:#FF9F2B"/>
	<stop  offset="1" style="stop-color:#FF9627"/>
</linearGradient>
<path fill="url(#SVGID_4_)" d="M252,492h-88c-6.627,0-12-5.373-12-12v-76h100V492z"/>
<linearGradient id="SVGID_5_" gradientUnits="userSpaceOnUse" x1="168" y1="448" x2="266" y2="448">
	<stop  offset="0" style="stop-color:#FFDE52"/>
	<stop  offset="0.6178" style="stop-color:#FFD23A"/>
	<stop  offset="1" style="stop-color:#FFCE31"/>
</linearGradient>
<path fill="url(#SVGID_5_)" d="M266,492h-88c-6.627,0-10-5.373-10-12v-76h98V492z"/>
<linearGradient id="SVGID_6_" gradientUnits="userSpaceOnUse" x1="194" y1="340.9997" x2="194" y2="406.3878">
	<stop  offset="0" style="stop-color:#FFB024"/>
	<stop  offset="0.2814" style="stop-color:#FDA726"/>
	<stop  offset="0.7389" style="stop-color:#F88F2B"/>
	<stop  offset="1" style="stop-color:#F47E2F"/>
</linearGradient>
<path fill="url(#SVGID_6_)" d="M176,404h36v-44c0-9.941-8.059-18-18-18h0c-9.941,0-18,8.059-18,18V404z"/>
<linearGradient id="SVGID_7_" gradientUnits="userSpaceOnUse" x1="192.0002" y1="388" x2="212.6628" y2="388">
	<stop  offset="0" style="stop-color:#B54400;stop-opacity:0.1"/>
	<stop  offset="0.3685" style="stop-color:#B64000;stop-opacity:0.1737"/>
	<stop  offset="0.7497" style="stop-color:#B73300;stop-opacity:0.2499"/>
	<stop  offset="1" style="stop-color:#B92700;stop-opacity:0.3"/>
</linearGradient>
<path fill="url(#SVGID_7_)" d="M196,392h16v-8h-16c-2.209,0-4,1.791-4,4v0C192,390.209,193.791,392,196,392z"/>
<linearGradient id="SVGID_8_" gradientUnits="userSpaceOnUse" x1="191.5002" y1="372" x2="212.1991" y2="372">
	<stop  offset="0" style="stop-color:#B54400;stop-opacity:0.1"/>
	<stop  offset="0.3685" style="stop-color:#B64000;stop-opacity:0.1737"/>
	<stop  offset="0.7497" style="stop-color:#B73300;stop-opacity:0.2499"/>
	<stop  offset="1" style="stop-color:#B92700;stop-opacity:0.3"/>
</linearGradient>
<path fill="url(#SVGID_8_)" d="M196,376h16v-8h-16c-2.209,0-4,1.791-4,4v0C192,374.209,193.791,376,196,376z"/>
<linearGradient id="SVGID_9_" gradientUnits="userSpaceOnUse" x1="187.2101" y1="404" x2="187.2101" y2="342.0001">
	<stop  offset="0" style="stop-color:#B54400;stop-opacity:0.1"/>
	<stop  offset="0.3685" style="stop-color:#B64000;stop-opacity:0.1737"/>
	<stop  offset="0.7497" style="stop-color:#B73300;stop-opacity:0.2499"/>
	<stop  offset="1" style="stop-color:#B92700;stop-opacity:0.3"/>
</linearGradient>
<path fill="url(#SVGID_9_)" d="M198.42,342.08c-4.34,0.36-8.24,2.28-11.14,5.2c-3.26,3.24-5.28,7.76-5.28,12.72v44h-6v-44
	c0-9.94,8.06-18,18-18h2.92C197.42,342,197.92,342.02,198.42,342.08z"/>
<linearGradient id="SVGID_10_" gradientUnits="userSpaceOnUse" x1="-40" y1="93.7447" x2="-40" y2="493.1296" gradientTransform="matrix(-1 0 0 1 276 0)">
	<stop  offset="0" style="stop-color:#3159E7"/>
	<stop  offset="0.3561" style="stop-color:#3255E8"/>
	<stop  offset="0.7245" style="stop-color:#3648EC"/>
	<stop  offset="1" style="stop-color:#3B3AF0"/>
</linearGradient>
<path fill="url(#SVGID_10_)" d="M420,125.875c0-14.29-11.585-25.875-25.875-25.875h-156.25C223.585,100,212,111.585,212,125.875
	v340.25c0,14.29,11.585,25.875,25.875,25.875h154.25c14.29,0,27.875-11.585,27.875-25.875V125.875z"/>
<path opacity="0.1" d="M420,125.875c0-14.29-11.585-25.875-25.875-25.875h-156.25C223.585,100,212,111.585,212,125.875v340.25
	c0,14.29,11.585,25.875,25.875,25.875h154.25c14.29,0,27.875-11.585,27.875-25.875V125.875z"/>
<linearGradient id="SVGID_11_" gradientUnits="userSpaceOnUse" x1="-160" y1="296" x2="52" y2="296" gradientTransform="matrix(-1 0 0 1 276 0)">
	<stop  offset="0" style="stop-color:#2ECAFF"/>
	<stop  offset="0.1841" style="stop-color:#2FC1FF"/>
	<stop  offset="0.4844" style="stop-color:#33A9FF"/>
	<stop  offset="0.8612" style="stop-color:#3981FF"/>
	<stop  offset="1" style="stop-color:#3B71FF"/>
</linearGradient>
<path fill="url(#SVGID_11_)" d="M249.876,100h156.25c14.29,0,25.874,11.584,25.874,25.875V186l1.78,0.9
	c1.36,0.68,2.22,2.06,2.22,3.58v27.04c0,1.52-0.86,2.9-2.22,3.58L432,222v24l1.78,0.9c1.36,0.68,2.22,2.06,2.22,3.58v27.04
	c0,1.52-0.86,2.9-2.22,3.58L432,282v184.125c0,14.29-11.584,25.876-25.874,25.876h-156.25C235.585,492,224,480.415,224,466.124
	v-340.25C224,111.584,235.585,100,249.876,100z"/>
<linearGradient id="SVGID_12_" gradientUnits="userSpaceOnUse" x1="-52" y1="114" x2="-52" y2="479.7622" gradientTransform="matrix(-1 0 0 1 276 0)">
	<stop  offset="0" style="stop-color:#D8FFFF"/>
	<stop  offset="0.0097" style="stop-color:#DAFFFF"/>
	<stop  offset="0.1219" style="stop-color:#EBFFFF"/>
	<stop  offset="0.2609" style="stop-color:#F6FFFF"/>
	<stop  offset="0.4566" style="stop-color:#FDFFFF"/>
	<stop  offset="1" style="stop-color:#FFFFFF"/>
</linearGradient>
<path fill="url(#SVGID_12_)" d="M238,124v344c0,5.523,4.478,10.001,10.001,10.001h160c5.523,0,9.999-4.478,9.999-10.001V124
	c0-5.523-4.477-10-9.999-10h-36c-1.722,0-3.25,1.102-3.793,2.736l-2.17,6.524c-0.56,1.64-2.08,2.74-3.8,2.74h-68.474
	c-1.72,0-3.24-1.1-3.8-2.74l-2.17-6.524c-0.543-1.634-2.072-2.736-3.793-2.736h-36C242.478,114,238,118.477,238,124z"/>
<path opacity="0.15" fill="#00093F" d="M352,116c0-1.105-0.895-2-2-2h-44c-1.105,0-2,0.895-2,2v0c0,1.105,0.895,2,2,2h44
	C351.105,118,352,117.105,352,116L352,116z"/>
<linearGradient id="SVGID_13_" gradientUnits="userSpaceOnUse" x1="-52" y1="113.3333" x2="-52" y2="119.0055" gradientTransform="matrix(-1 0 0 1 276 0)">
	<stop  offset="0" style="stop-color:#000000;stop-opacity:0.1"/>
	<stop  offset="1" style="stop-color:#302926;stop-opacity:0"/>
</linearGradient>
<path fill="url(#SVGID_13_)" d="M238,124v4c0-5.52,4.481-10,10.001-10h36c1.72,0,3.24,1.1,3.8,2.74l2.16,6.52
	c0.56,1.64,2.08,2.74,3.8,2.74h68.48c1.72,0,3.24-1.1,3.8-2.74l2.16-6.52c0.56-1.64,2.08-2.74,3.8-2.74h36
	c5.52,0,9.999,4.48,9.999,10v-4c0-5.52-4.479-10-9.999-10h-36c-1.72,0-3.24,1.1-3.8,2.74l-2.16,6.52c-0.56,1.64-2.08,2.74-3.8,2.74
	h-68.48c-1.72,0-3.24-1.1-3.8-2.74l-2.16-6.52c-0.56-1.64-2.08-2.74-3.8-2.74h-36C242.481,114,238,118.48,238,124z"/>
<linearGradient id="SVGID_14_" gradientUnits="userSpaceOnUse" x1="328.0001" y1="222.5712" x2="328.0001" y2="189.9058">
	<stop  offset="0" style="stop-color:#302974;stop-opacity:0"/>
	<stop  offset="1" style="stop-color:#0000B0;stop-opacity:0.08"/>
</linearGradient>
<circle fill="url(#SVGID_14_)" cx="328" cy="206" r="16"/>
<linearGradient id="SVGID_15_" gradientUnits="userSpaceOnUse" x1="321.0001" y1="189.4998" x2="368" y2="189.4998">
	<stop  offset="0" style="stop-color:#CDCDCD"/>
	<stop  offset="1" style="stop-color:#B9B9B9"/>
</linearGradient>
<path fill="url(#SVGID_15_)" d="M361,213c-3.866,0-7-3.134-7-7c0-14.337-11.663-26-26-26c-3.866,0-7-3.134-7-7c0-3.866,3.134-7,7-7
	c22.056,0,40,17.944,40,40C368,209.866,364.866,213,361,213z"/>
<linearGradient id="SVGID_16_" gradientUnits="userSpaceOnUse" x1="288.0001" y1="199.5008" x2="335.0001" y2="199.5008">
	<stop  offset="0" style="stop-color:#FF7E45"/>
	<stop  offset="0.1983" style="stop-color:#FE7A4B"/>
	<stop  offset="0.4578" style="stop-color:#FC6D5B"/>
	<stop  offset="0.7499" style="stop-color:#F85876"/>
	<stop  offset="1" style="stop-color:#F44293"/>
</linearGradient>
<path fill="url(#SVGID_16_)" d="M301.755,233.002c-2.108,0-4.192-0.948-5.57-2.754C290.83,223.23,288,214.845,288,206
	c0-22.056,17.944-40,40-40c3.866,0,7,3.134,7,7c0,3.866-3.134,7-7,7c-14.337,0-26,11.663-26,26c0,5.75,1.838,11.198,5.315,15.756
	c2.345,3.073,1.754,7.466-1.319,9.812C304.729,232.534,303.235,233.002,301.755,233.002z"/>
<linearGradient id="SVGID_17_" gradientUnits="userSpaceOnUse" x1="294.7496" y1="222.4998" x2="368" y2="222.4998">
	<stop  offset="0" style="stop-color:#2ECAFF"/>
	<stop  offset="0.1841" style="stop-color:#2FC1FF"/>
	<stop  offset="0.4844" style="stop-color:#33A9FF"/>
	<stop  offset="0.8612" style="stop-color:#3981FF"/>
	<stop  offset="1" style="stop-color:#3B71FF"/>
</linearGradient>
<path fill="url(#SVGID_17_)" d="M328,246c-12.579,0-24.175-5.741-31.814-15.751c-2.346-3.073-1.756-7.466,1.317-9.812
	c3.073-2.344,7.466-1.755,9.812,1.317C312.283,228.265,319.823,232,328,232c14.337,0,26-11.663,26-26c0-3.866,3.134-7,7-7
	s7,3.134,7,7C368,228.055,350.056,246,328,246z"/>
<path fill="#B6B9B9" d="M354,280c0,1.105-0.895,2-2,2h-58c-1.105,0-2-0.895-2-2v-4c0-1.105,0.895-2,2-2h58c1.105,0,2,0.895,2,2V280z
	"/>
<path fill="#B6B9B9" d="M336,296c0,1.105-0.895,2-2,2h-40c-1.105,0-2-0.895-2-2v-4c0-1.105,0.895-2,2-2h40c1.105,0,2,0.895,2,2V296z
	"/>
<linearGradient id="SVGID_18_" gradientUnits="userSpaceOnUse" x1="270" y1="273.25" x2="270" y2="299.0303">
	<stop  offset="0" style="stop-color:#CDCDCD"/>
	<stop  offset="1" style="stop-color:#B9B9B9"/>
</linearGradient>
<path fill="url(#SVGID_18_)" d="M282,278c0-2.209-1.791-4-4-4h-16c-2.209,0-4,1.791-4,4v16c0,2.209,1.791,4,4,4h16
	c2.209,0,4-1.791,4-4V278z"/>
<path fill="#B6B9B9" d="M354,324c0,1.105-0.895,2-2,2h-58c-1.105,0-2-0.895-2-2v-4c0-1.105,0.895-2,2-2h58c1.105,0,2,0.895,2,2V324z
	"/>
<path fill="#B6B9B9" d="M336,340c0,1.105-0.895,2-2,2h-40c-1.105,0-2-0.895-2-2v-4c0-1.105,0.895-2,2-2h40c1.105,0,2,0.895,2,2V340z
	"/>
<linearGradient id="SVGID_19_" gradientUnits="userSpaceOnUse" x1="270" y1="318.5" x2="270" y2="342.5">
	<stop  offset="0" style="stop-color:#2ECAFF"/>
	<stop  offset="0.1841" style="stop-color:#2FC1FF"/>
	<stop  offset="0.4844" style="stop-color:#33A9FF"/>
	<stop  offset="0.8612" style="stop-color:#3981FF"/>
	<stop  offset="1" style="stop-color:#3B71FF"/>
</linearGradient>
<path fill="url(#SVGID_19_)" d="M282,322c0-2.209-1.791-4-4-4h-16c-2.209,0-4,1.791-4,4v16c0,2.209,1.791,4,4,4h16
	c2.209,0,4-1.791,4-4V322z"/>
<path fill="#B6B9B9" d="M354,368c0,1.105-0.895,2-2,2h-58c-1.105,0-2-0.895-2-2v-4c0-1.105,0.895-2,2-2h58c1.105,0,2,0.895,2,2V368z
	"/>
<path fill="#B6B9B9" d="M336,384c0,1.105-0.895,2-2,2h-40c-1.105,0-2-0.895-2-2v-4c0-1.105,0.895-2,2-2h40c1.105,0,2,0.895,2,2V384z
	"/>
<linearGradient id="SVGID_20_" gradientUnits="userSpaceOnUse" x1="270" y1="360.8333" x2="270" y2="386.5195">
	<stop  offset="0" style="stop-color:#FF7E45"/>
	<stop  offset="0.1983" style="stop-color:#FE7A4B"/>
	<stop  offset="0.4578" style="stop-color:#FC6D5B"/>
	<stop  offset="0.7499" style="stop-color:#F85876"/>
	<stop  offset="1" style="stop-color:#F44293"/>
</linearGradient>
<path fill="url(#SVGID_20_)" d="M282,366c0-2.209-1.791-4-4-4h-16c-2.209,0-4,1.791-4,4v16c0,2.209,1.791,4,4,4h16
	c2.209,0,4-1.791,4-4V366z"/>
<linearGradient id="SVGID_21_" gradientUnits="userSpaceOnUse" x1="328" y1="433.625" x2="328" y2="458.4119">
	<stop  offset="0" style="stop-color:#FF7E45"/>
	<stop  offset="0.1983" style="stop-color:#FE7A4B"/>
	<stop  offset="0.4578" style="stop-color:#FC6D5B"/>
	<stop  offset="0.7499" style="stop-color:#F85876"/>
	<stop  offset="1" style="stop-color:#F44293"/>
</linearGradient>
<path fill="url(#SVGID_21_)" d="M398,458H264c-3.314,0-6-2.687-6-6v-12c0-3.314,2.686-6,6-6h128c3.314,0,6,2.686,6,6V458z"/>
<linearGradient id="SVGID_22_" gradientUnits="userSpaceOnUse" x1="575.9998" y1="128.6665" x2="575.9998" y2="257.0063">
	<stop  offset="0" style="stop-color:#F0F0ED"/>
	<stop  offset="0.8581" style="stop-color:#E7E7E6"/>
	<stop  offset="1" style="stop-color:#E5E5E5"/>
</linearGradient>
<path fill="url(#SVGID_22_)" d="M584,128c-35.346,0-64,28.654-64,64c0,7.385,1.266,14.471,3.568,21.072
	c-1.118,4.75-5.133,13.484-19.568,14.928c1.243,2.735,7.945,11.888,33.598,8.052C549.259,248.331,565.729,256,584,256
	c35.346,0,64-28.654,64-64C648,156.654,619.346,128,584,128z"/>
<linearGradient id="SVGID_23_" gradientUnits="userSpaceOnUse" x1="505.7639" y1="231.397" x2="526.2639" y2="217.5637">
	<stop  offset="0" style="stop-color:#302926;stop-opacity:0"/>
	<stop  offset="0.3246" style="stop-color:#2D2623;stop-opacity:0.0325"/>
	<stop  offset="0.5853" style="stop-color:#231E1C;stop-opacity:0.0585"/>
	<stop  offset="0.823" style="stop-color:#120F0E;stop-opacity:0.0823"/>
	<stop  offset="1" style="stop-color:#000000;stop-opacity:0.1"/>
</linearGradient>
<path fill="url(#SVGID_23_)" d="M508,232c0.1,0.22,0.24,0.48,0.42,0.78c-2.72-1.82-3.96-3.74-4.42-4.78
	c14.38-1.44,18.42-10.1,19.56-14.88c0.84,2.42,1.84,4.8,2.96,7.08C524.52,224.92,519.64,230.84,508,232z"/>
<linearGradient id="SVGID_24_" gradientUnits="userSpaceOnUse" x1="583.9998" y1="232.9998" x2="583.9998" y2="151.4447">
	<stop  offset="0" style="stop-color:#FFE552"/>
	<stop  offset="1" style="stop-color:#FF9627"/>
</linearGradient>
<circle fill="url(#SVGID_24_)" cx="584" cy="192" r="40"/>
<linearGradient id="SVGID_25_" gradientUnits="userSpaceOnUse" x1="583.9998" y1="232.3333" x2="583.9998" y2="190.6104">
	<stop  offset="0" style="stop-color:#FFFFED;stop-opacity:0"/>
	<stop  offset="0.4932" style="stop-color:#FFFFF3;stop-opacity:0.0986"/>
	<stop  offset="1" style="stop-color:#FFFFFF;stop-opacity:0.2"/>
</linearGradient>
<path fill="url(#SVGID_25_)" d="M544,192c0,22,17.909,40,40,40s40-18,40-40H544z"/>
<linearGradient id="SVGID_26_" gradientUnits="userSpaceOnUse" x1="583.9998" y1="158.9998" x2="583.9998" y2="227.0659">
	<stop  offset="0" style="stop-color:#FFE552"/>
	<stop  offset="1" style="stop-color:#FF9627"/>
</linearGradient>
<circle fill="url(#SVGID_26_)" cx="584" cy="192" r="32"/>
<polygon fill="#FF7900" points="596,190 584,190 584,178 580,178 580,190 568,190 568,194 580,194 580,206 584,206 584,194 596,194 
	"/>
<linearGradient id="SVGID_27_" gradientUnits="userSpaceOnUse" x1="464.2877" y1="250.2877" x2="399.2464" y2="185.2464">
	<stop  offset="0" style="stop-color:#F9536B"/>
	<stop  offset="0.3978" style="stop-color:#F7506F"/>
	<stop  offset="0.8093" style="stop-color:#F2487C"/>
	<stop  offset="1" style="stop-color:#EF4284"/>
</linearGradient>
<rect x="386" y="210" fill="url(#SVGID_27_)" width="92" height="16"/>
<linearGradient id="SVGID_28_" gradientUnits="userSpaceOnUse" x1="404" y1="225.9998" x2="404" y2="287.0325">
	<stop  offset="0" style="stop-color:#FF5245"/>
	<stop  offset="0.2611" style="stop-color:#FF4C56"/>
	<stop  offset="0.7186" style="stop-color:#FF436E"/>
	<stop  offset="1" style="stop-color:#FF4077"/>
</linearGradient>
<circle fill="url(#SVGID_28_)" cx="404" cy="256" r="26"/>
<linearGradient id="SVGID_29_" gradientUnits="userSpaceOnUse" x1="459.9999" y1="225.9998" x2="459.9999" y2="287.0325">
	<stop  offset="0" style="stop-color:#FF5245"/>
	<stop  offset="0.2611" style="stop-color:#FF4C56"/>
	<stop  offset="0.7186" style="stop-color:#FF436E"/>
	<stop  offset="1" style="stop-color:#FF4077"/>
</linearGradient>
<circle fill="url(#SVGID_29_)" cx="460" cy="256" r="26"/>
<linearGradient id="SVGID_30_" gradientUnits="userSpaceOnUse" x1="475.9999" y1="264.129" x2="475.9999" y2="371.6018">
	<stop  offset="0" style="stop-color:#FFB024"/>
	<stop  offset="0.2814" style="stop-color:#FDA726"/>
	<stop  offset="0.7389" style="stop-color:#F88F2B"/>
	<stop  offset="1" style="stop-color:#F47E2F"/>
</linearGradient>
<path fill="url(#SVGID_30_)" d="M472,270h-8v104h24v-88C488,277.163,480.836,270,472,270z"/>
<linearGradient id="SVGID_31_" gradientUnits="userSpaceOnUse" x1="-124" y1="305.5001" x2="-124" y2="400.1065" gradientTransform="matrix(-1 0 0 1 264 0)">
	<stop  offset="0" style="stop-color:#F9D6BD"/>
	<stop  offset="1" style="stop-color:#F9CEB2"/>
</linearGradient>
<path fill="url(#SVGID_31_)" d="M400,306v76h-8v6.999c0,1.657-1.343,3-3,3s-3-1.343-3-3v-7c0-1.1-0.9-2-2-2s-2,0.9-2,2v15
	c0,1.657-1.343,3-3,3s-3-1.343-3-3v-15V306H400z"/>
<linearGradient id="SVGID_32_" gradientUnits="userSpaceOnUse" x1="-124" y1="269.5" x2="-124" y2="365.5" gradientTransform="matrix(-1 0 0 1 264 0)">
	<stop  offset="0" style="stop-color:#FFB024"/>
	<stop  offset="0.2814" style="stop-color:#FDA726"/>
	<stop  offset="0.7389" style="stop-color:#F88F2B"/>
	<stop  offset="1" style="stop-color:#F47E2F"/>
</linearGradient>
<path fill="url(#SVGID_32_)" d="M400,270v96h-24v-80c0-8.837,7.163-16,16-16H400z"/>
<linearGradient id="SVGID_33_" gradientUnits="userSpaceOnUse" x1="432" y1="268.6667" x2="432" y2="360.1028">
	<stop  offset="0" style="stop-color:#FFB024"/>
	<stop  offset="0.2814" style="stop-color:#FDA726"/>
	<stop  offset="0.7389" style="stop-color:#F88F2B"/>
	<stop  offset="1" style="stop-color:#F47E2F"/>
</linearGradient>
<path fill="url(#SVGID_33_)" d="M463.958,270H450h-50c-4.418,0-8,3.581-8,8v80h40h40v-79.959C472,273.6,468.4,270,463.958,270z"/>
<linearGradient id="SVGID_34_" gradientUnits="userSpaceOnUse" x1="452" y1="268.9136" x2="452" y2="361.8041">
	<stop  offset="0" style="stop-color:#7F1500;stop-opacity:0"/>
	<stop  offset="0.2396" style="stop-color:#831700;stop-opacity:0.024"/>
	<stop  offset="0.4878" style="stop-color:#901D00;stop-opacity:0.0488"/>
	<stop  offset="0.7399" style="stop-color:#A42700;stop-opacity:0.074"/>
	<stop  offset="0.9934" style="stop-color:#C13500;stop-opacity:0.0993"/>
	<stop  offset="1" style="stop-color:#C23500;stop-opacity:0.1"/>
</linearGradient>
<path fill="url(#SVGID_34_)" d="M472,278.041V358h-40v-70c10,0,18-8,18-18h13.958C468.4,270,472,273.6,472,278.041z"/>
<linearGradient id="SVGID_35_" gradientUnits="userSpaceOnUse" x1="408" y1="451.6667" x2="408" y2="466.0155">
	<stop  offset="0" style="stop-color:#F9D6BD"/>
	<stop  offset="1" style="stop-color:#F9CEB2"/>
</linearGradient>
<rect x="398" y="452" fill="url(#SVGID_35_)" width="20" height="14"/>
<linearGradient id="SVGID_36_" gradientUnits="userSpaceOnUse" x1="456" y1="451.6667" x2="456" y2="466.0155">
	<stop  offset="0" style="stop-color:#F9D6BD"/>
	<stop  offset="1" style="stop-color:#F9CEB2"/>
</linearGradient>
<rect x="446" y="452" fill="url(#SVGID_36_)" width="20" height="14"/>
<linearGradient id="SVGID_37_" gradientUnits="userSpaceOnUse" x1="432" y1="257.75" x2="432" y2="283.0305">
	<stop  offset="0" style="stop-color:#F9D6BD"/>
	<stop  offset="1" style="stop-color:#F9CEB2"/>
</linearGradient>
<path fill="url(#SVGID_37_)" d="M432,282L432,282c-6.627,0-12-5.373-12-12v-12h24v12C444,276.627,438.627,282,432,282z"/>
<linearGradient id="SVGID_38_" gradientUnits="userSpaceOnUse" x1="475.9999" y1="211.5" x2="475.9999" y2="237.0003">
	<stop  offset="0" style="stop-color:#F9CDAF"/>
	<stop  offset="0.5359" style="stop-color:#F8CAAB"/>
	<stop  offset="1" style="stop-color:#F7C4A1"/>
</linearGradient>
<path fill="url(#SVGID_38_)" d="M476,236L476,236c-6.627,0-12-5.373-12-12v-12h12c6.627,0,12,5.372,12,12v0
	C488,230.627,482.627,236,476,236z"/>
<linearGradient id="SVGID_39_" gradientUnits="userSpaceOnUse" x1="475.9999" y1="217.6667" x2="475.9999" y2="230.0279">
	<stop  offset="0" style="stop-color:#EFBC9A"/>
	<stop  offset="0.7147" style="stop-color:#F3C09E"/>
	<stop  offset="1" style="stop-color:#F7C4A1"/>
</linearGradient>
<path fill="url(#SVGID_39_)" d="M476,230L476,230c-3.314,0-6-2.686-6-6v-6h6c3.314,0,6,2.686,6,6v0C482,227.313,479.314,230,476,230
	z"/>
<path opacity="0.05" d="M482,224c0,0.34-0.02,0.68-0.1,1c-0.46-2.84-2.92-5-5.9-5h-6v-2h6C479.32,218,482,220.68,482,224z"/>
<linearGradient id="SVGID_40_" gradientUnits="userSpaceOnUse" x1="-208" y1="211.5" x2="-208" y2="237.0003" gradientTransform="matrix(-1 0 0 1 180 0)">
	<stop  offset="0" style="stop-color:#F9CDAF"/>
	<stop  offset="0.5359" style="stop-color:#F8CAAB"/>
	<stop  offset="1" style="stop-color:#F7C4A1"/>
</linearGradient>
<path fill="url(#SVGID_40_)" d="M388,236L388,236c6.627,0,12-5.373,12-12v-12h-12c-6.627,0-12,5.372-12,12v0
	C376,230.627,381.373,236,388,236z"/>
<linearGradient id="SVGID_41_" gradientUnits="userSpaceOnUse" x1="-208" y1="217.6667" x2="-208" y2="230.0279" gradientTransform="matrix(-1 0 0 1 180 0)">
	<stop  offset="0" style="stop-color:#EFBC9A"/>
	<stop  offset="0.7147" style="stop-color:#F3C09E"/>
	<stop  offset="1" style="stop-color:#F7C4A1"/>
</linearGradient>
<path fill="url(#SVGID_41_)" d="M388,230L388,230c3.314,0,6-2.686,6-6v-6h-6c-3.314,0-6,2.686-6,6v0
	C382,227.313,384.686,230,388,230z"/>
<path opacity="0.05" d="M382,224c0,0.34,0.02,0.68,0.1,1c0.46-2.84,2.92-5,5.9-5h6v-2h-6C384.68,218,382,220.68,382,224z"/>
<linearGradient id="SVGID_42_" gradientUnits="userSpaceOnUse" x1="432" y1="153.3333" x2="432" y2="267.1763">
	<stop  offset="0" style="stop-color:#FFDEC7"/>
	<stop  offset="1" style="stop-color:#FFD8BD"/>
</linearGradient>
<path fill="url(#SVGID_42_)" d="M472,224c0,22.091-17.909,40-40,40h0c-22.091,0-40-17.909-40-40v-28c0-22.091,17.909-40,40-40h0
	c22.091,0,40,17.909,40,40V224z"/>
<circle fill="#FFFFFF" cx="450" cy="220" r="8"/>
<linearGradient id="SVGID_43_" gradientUnits="userSpaceOnUse" x1="450.0001" y1="215.8746" x2="450.0001" y2="224.0909">
	<stop  offset="0" style="stop-color:#4C4B4B"/>
	<stop  offset="1" style="stop-color:#3A3838"/>
</linearGradient>
<path fill="url(#SVGID_43_)" d="M454,220c0,2.2-1.8,4-4,4s-4-1.8-4-4c0-2.2,1.8-4,4-4c0.64,0,1.24,0.14,1.78,0.42
	c-0.48,0.36-0.78,0.94-0.78,1.58c0,1.1,0.9,2,2,2c0.36,0,0.7-0.1,0.98-0.26C454,219.82,454,219.92,454,220z"/>
<linearGradient id="SVGID_44_" gradientUnits="userSpaceOnUse" x1="450" y1="210.25" x2="450" y2="205.6599">
	<stop  offset="0" style="stop-color:#4C4B4B"/>
	<stop  offset="1" style="stop-color:#3A3838"/>
</linearGradient>
<path fill="url(#SVGID_44_)" d="M456,208c0-1.105-0.895-2-2-2h-8c-1.105,0-2,0.895-2,2l0,0c0,1.105,0.895,2,2,2h8
	C455.105,210,456,209.105,456,208L456,208z"/>
<circle fill="#FFFFFF" cx="414" cy="220" r="8"/>
<linearGradient id="SVGID_45_" gradientUnits="userSpaceOnUse" x1="414.0001" y1="215.8746" x2="414.0001" y2="224.0909">
	<stop  offset="0" style="stop-color:#4C4B4B"/>
	<stop  offset="1" style="stop-color:#3A3838"/>
</linearGradient>
<path fill="url(#SVGID_45_)" d="M418,220c0,2.2-1.8,4-4,4c-2.2,0-4-1.8-4-4c0-2.2,1.8-4,4-4c0.64,0,1.24,0.14,1.78,0.42
	c-0.48,0.36-0.78,0.94-0.78,1.58c0,1.1,0.9,2,2,2c0.36,0,0.7-0.1,0.98-0.26C418,219.82,418,219.92,418,220z"/>
<linearGradient id="SVGID_46_" gradientUnits="userSpaceOnUse" x1="432" y1="221.6667" x2="432" y2="232.3346">
	<stop  offset="0" style="stop-color:#F9CDAF"/>
	<stop  offset="0.5359" style="stop-color:#F8CAAB"/>
	<stop  offset="1" style="stop-color:#F7C4A1"/>
</linearGradient>
<path fill="url(#SVGID_46_)" d="M436,228c0,2.209-1.791,4-4,4l0,0c-2.209,0-4-1.791-4-4v-2c0-2.209,1.791-4,4-4l0,0
	c2.209,0,4,1.791,4,4V228z"/>
<path fill="#FFFFFF" d="M450,270c0,9.92-8.08,18-18,18s-18-8.08-18-18c0-1.66,1.34-3,3-3s3,1.34,3,3c0,6.62,5.38,12,12,12
	s12-5.38,12-12c0-1.66,1.34-3,3-3S450,268.34,450,270z"/>
<linearGradient id="SVGID_47_" gradientUnits="userSpaceOnUse" x1="393" y1="461.5" x2="393" y2="492.504">
	<stop  offset="0" style="stop-color:#E5E5E5"/>
	<stop  offset="1" style="stop-color:#CECECE"/>
</linearGradient>
<path fill="url(#SVGID_47_)" d="M422,464.02c0-1.116-0.905-2.02-2.021-2.02h-23.958c-1.116,0-2.021,0.904-2.021,2.02V474h-18
	c-6.627,0-12,5.372-12,11.999V492h58L422,464.02z"/>
<linearGradient id="SVGID_48_" gradientUnits="userSpaceOnUse" x1="456" y1="469.85" x2="456" y2="488.1506">
	<stop  offset="0" style="stop-color:#C8C8C8"/>
	<stop  offset="0.2651" style="stop-color:#C4C4C4"/>
	<stop  offset="0.5398" style="stop-color:#B7B7B7"/>
	<stop  offset="0.8179" style="stop-color:#A3A3A3"/>
	<stop  offset="1" style="stop-color:#919191"/>
</linearGradient>
<path fill="url(#SVGID_48_)" d="M470,488h-28v-15.98c0-1.116,0.905-2.02,2.021-2.02h23.958c1.116,0,2.021,0.904,2.021,2.02V488z"/>
<path fill="#DBDBDB" d="M462,474h-12c-6.627,0-12,5.372-12,11.999V492h36v-6.001C474,479.372,468.627,474,462,474z"/>
<linearGradient id="SVGID_49_" gradientUnits="userSpaceOnUse" x1="432" y1="239.9167" x2="432" y2="253.8935">
	<stop  offset="0" style="stop-color:#F9808F"/>
	<stop  offset="0.391" style="stop-color:#F97792"/>
	<stop  offset="1" style="stop-color:#F96099"/>
</linearGradient>
<path fill="url(#SVGID_49_)" d="M446,240c0,4-1.84,7.96-4.76,10.48c-2.46,2.22-5.68,3.52-9.24,3.52c-3.56,0-6.78-1.3-9.24-3.52
	C419.84,247.96,418,244,418,240H446z"/>
<path fill="#FFFFFF" d="M420,236h24c1.105,0,2,0.895,2,2v2h-28v-2C418,236.895,418.895,236,420,236z"/>
<linearGradient id="SVGID_50_" gradientUnits="userSpaceOnUse" x1="432" y1="247.8298" x2="432" y2="254.1884">
	<stop  offset="0" style="stop-color:#EA5770"/>
	<stop  offset="0.5523" style="stop-color:#EA4F79"/>
	<stop  offset="1" style="stop-color:#EA4684"/>
</linearGradient>
<path fill="url(#SVGID_50_)" d="M441.24,250.48c-2.46,2.22-5.68,3.52-9.24,3.52c-3.56,0-6.78-1.3-9.24-3.52
	c1.5-3.06,5.08-2.48,9.24-2.48C436.16,248,439.74,247.42,441.24,250.48z"/>
<linearGradient id="SVGID_51_" gradientUnits="userSpaceOnUse" x1="419.4167" y1="265.0796" x2="444.5199" y2="265.0796">
	<stop  offset="0" style="stop-color:#302926;stop-opacity:0"/>
	<stop  offset="1" style="stop-color:#000000;stop-opacity:0.1"/>
</linearGradient>
<path fill="url(#SVGID_51_)" d="M444,262.16v4c-4,1.2-7.82,1.84-12,1.84c-4.18,0-8-0.64-12-1.84v-4c4,1.2,7.82,1.84,12,1.84
	C436.18,264,440,263.36,444,262.16z"/>
<path fill="#FF9022" d="M392,366h-16c-1.105,0-2,0.895-2,2v2c0,1.105,0.895,2,2,2h16V366z"/>
<linearGradient id="SVGID_52_" gradientUnits="userSpaceOnUse" x1="408" y1="409" x2="408" y2="455.768">
	<stop  offset="0" style="stop-color:#F9D6BD"/>
	<stop  offset="1" style="stop-color:#F9CEB2"/>
</linearGradient>
<rect x="398" y="410" fill="url(#SVGID_52_)" width="20" height="44"/>
<linearGradient id="SVGID_53_" gradientUnits="userSpaceOnUse" x1="455.9999" y1="409" x2="455.9999" y2="455.768">
	<stop  offset="0" style="stop-color:#F9D6BD"/>
	<stop  offset="1" style="stop-color:#F9CEB2"/>
</linearGradient>
<rect x="446" y="410" fill="url(#SVGID_53_)" width="20" height="44"/>
<linearGradient id="SVGID_54_" gradientUnits="userSpaceOnUse" x1="445" y1="151.1603" x2="445" y2="186.9998">
	<stop  offset="0" style="stop-color:#FF5245"/>
	<stop  offset="0.2611" style="stop-color:#FF4C56"/>
	<stop  offset="0.7186" style="stop-color:#FF436E"/>
	<stop  offset="1" style="stop-color:#FF4077"/>
</linearGradient>
<polygon fill="url(#SVGID_54_)" points="444,186 434,168 442,152 456,158 454,184 "/>
<linearGradient id="SVGID_55_" gradientUnits="userSpaceOnUse" x1="443.5016" y1="163.4193" x2="485.5017" y2="213.9193">
	<stop  offset="0" style="stop-color:#FF5245"/>
	<stop  offset="0.2611" style="stop-color:#FF4C56"/>
	<stop  offset="0.7186" style="stop-color:#FF436E"/>
	<stop  offset="1" style="stop-color:#FF4077"/>
</linearGradient>
<path fill="url(#SVGID_55_)" d="M478,196v16h-6c0,0-19.68-4.14-29.22-28.08c5.42-8.58,8.72-18.6,9.16-29.38
	C467.36,161.96,478,177.74,478,196z"/>
<linearGradient id="SVGID_56_" gradientUnits="userSpaceOnUse" x1="418.9699" y1="140.3332" x2="418.9699" y2="213.6937">
	<stop  offset="0" style="stop-color:#FF5245"/>
	<stop  offset="0.2611" style="stop-color:#FF4C56"/>
	<stop  offset="0.7186" style="stop-color:#FF436E"/>
	<stop  offset="1" style="stop-color:#FF4077"/>
</linearGradient>
<path fill="url(#SVGID_56_)" d="M439.063,150.593l1.608-1.608c1.41-1.41,1.756-3.68,0.593-5.299
	c-1.481-2.061-4.376-2.233-6.092-0.515l-1.75,1.75c-0.785,0.785-2.058,0.785-2.843,0l-1.6-1.599
	c-1.409-1.409-3.678-1.753-5.296-0.589c-2.06,1.483-2.232,4.375-0.513,6.092l1.722,1.722C402.866,153.967,386,173.017,386,196v15.72
	c2,0.18,3.98,0.28,6,0.28c21.4,0,40.2-11.2,50.78-28.08c5.42-8.58,8.72-18.6,9.16-29.38
	C447.938,152.621,443.608,151.287,439.063,150.593z"/>
<linearGradient id="SVGID_57_" gradientUnits="userSpaceOnUse" x1="414" y1="210.25" x2="414" y2="205.6599">
	<stop  offset="0" style="stop-color:#4C4B4B"/>
	<stop  offset="1" style="stop-color:#3A3838"/>
</linearGradient>
<path fill="url(#SVGID_57_)" d="M420,208c0-1.105-0.895-2-2-2h-8c-1.105,0-2,0.895-2,2l0,0c0,1.105,0.895,2,2,2h8
	C419.105,210,420,209.105,420,208L420,208z"/>
<linearGradient id="SVGID_58_" gradientUnits="userSpaceOnUse" x1="456.3571" y1="155.0549" x2="443.9822" y2="187.9299">
	<stop  offset="0" style="stop-color:#55004D;stop-opacity:0"/>
	<stop  offset="1" style="stop-color:#7F0040;stop-opacity:0.3"/>
</linearGradient>
<path fill="url(#SVGID_58_)" d="M457.7,157.86c-0.9,9.52-4.06,18.38-8.92,26.06c-1.12,1.78-2.32,3.5-3.62,5.14
	c-0.86-1.6-1.66-3.32-2.38-5.14c5.42-8.58,8.72-18.6,9.16-29.38C453.94,155.5,455.88,156.6,457.7,157.86z"/>
<circle opacity="0.3" fill="#A55600" cx="432" cy="308" r="4"/>
<circle opacity="0.3" fill="#A55600" cx="432" cy="332" r="4"/>
<linearGradient id="SVGID_59_" gradientUnits="userSpaceOnUse" x1="384" y1="294.8334" x2="384" y2="366.3209">
	<stop  offset="0" style="stop-color:#B54400;stop-opacity:0"/>
	<stop  offset="0.3685" style="stop-color:#B64000;stop-opacity:0.0737"/>
	<stop  offset="0.7497" style="stop-color:#B73300;stop-opacity:0.1499"/>
	<stop  offset="1" style="stop-color:#B92700;stop-opacity:0.2"/>
</linearGradient>
<rect x="376" y="296" fill="url(#SVGID_59_)" width="16" height="70"/>
<linearGradient id="SVGID_60_" gradientUnits="userSpaceOnUse" x1="479.9999" y1="304.8668" x2="479.9999" y2="374.3117">
	<stop  offset="0" style="stop-color:#B54400;stop-opacity:0"/>
	<stop  offset="0.3685" style="stop-color:#B64000;stop-opacity:0.0737"/>
	<stop  offset="0.7497" style="stop-color:#B73300;stop-opacity:0.1499"/>
	<stop  offset="1" style="stop-color:#B92700;stop-opacity:0.2"/>
</linearGradient>
<rect x="472" y="306" fill="url(#SVGID_60_)" width="16" height="68"/>
<rect x="446" y="452" fill="#FF9022" width="20" height="4"/>
<rect x="398" y="452" fill="#FF9022" width="20" height="4"/>
<linearGradient id="SVGID_61_" gradientUnits="userSpaceOnUse" x1="456" y1="455.5" x2="456" y2="357.5">
	<stop  offset="0" style="stop-color:#575C72"/>
	<stop  offset="0.366" style="stop-color:#4F5469"/>
	<stop  offset="0.9612" style="stop-color:#3A3D51"/>
	<stop  offset="1" style="stop-color:#383B4F"/>
</linearGradient>
<rect x="440" y="358" fill="url(#SVGID_61_)" width="32" height="98"/>
<linearGradient id="SVGID_62_" gradientUnits="userSpaceOnUse" x1="432" y1="357.5" x2="432" y2="456.505">
	<stop  offset="0" style="stop-color:#575C72"/>
	<stop  offset="0.4314" style="stop-color:#515569"/>
	<stop  offset="1" style="stop-color:#434556"/>
</linearGradient>
<path fill="url(#SVGID_62_)" d="M392,358v23.999l0,0V456h32v-70c0-2.209,1.791-3.999,4-3.999h28c8.837,0,16-7.164,16-16.001V358H392
	z"/>
<linearGradient id="SVGID_63_" gradientUnits="userSpaceOnUse" x1="389.25" y1="452" x2="426.6014" y2="452">
	<stop  offset="0" style="stop-color:#575C72"/>
	<stop  offset="0.4314" style="stop-color:#515569"/>
	<stop  offset="1" style="stop-color:#434556"/>
</linearGradient>
<path fill="url(#SVGID_63_)" d="M426,454c0,1.105-0.895,2-2,2h-32c-1.105,0-2-0.895-2-2v-4c0-1.105,0.895-2,2-2h32
	c1.105,0,2,0.895,2,2V454z"/>
<linearGradient id="SVGID_64_" gradientUnits="userSpaceOnUse" x1="437.75" y1="452" x2="474.3769" y2="452">
	<stop  offset="0" style="stop-color:#575C72"/>
	<stop  offset="0.4314" style="stop-color:#515569"/>
	<stop  offset="1" style="stop-color:#434556"/>
</linearGradient>
<path fill="url(#SVGID_64_)" d="M474,454c0,1.105-0.895,2-2,2h-32c-1.105,0-2-0.895-2-2v-4c0-1.105,0.895-2,2-2h32
	c1.105,0,2,0.895,2,2V454z"/>
<linearGradient id="SVGID_65_" gradientUnits="userSpaceOnUse" x1="408" y1="443.9167" x2="408" y2="448.25">
	<stop  offset="0" style="stop-color:#302926;stop-opacity:0"/>
	<stop  offset="1" style="stop-color:#000000;stop-opacity:0.05"/>
</linearGradient>
<rect x="392" y="444" fill="url(#SVGID_65_)" width="32" height="4"/>
<linearGradient id="SVGID_66_" gradientUnits="userSpaceOnUse" x1="453.9999" y1="460" x2="461.9999" y2="460">
	<stop  offset="0" style="stop-color:#CDCDCD"/>
	<stop  offset="1" style="stop-color:#B9B9B9"/>
</linearGradient>
<rect x="454" y="446" fill="url(#SVGID_66_)" width="8" height="28"/>
<linearGradient id="SVGID_67_" gradientUnits="userSpaceOnUse" x1="518" y1="460" x2="526" y2="460">
	<stop  offset="0" style="stop-color:#CDCDCD"/>
	<stop  offset="1" style="stop-color:#B9B9B9"/>
</linearGradient>
<rect x="518" y="446" fill="url(#SVGID_67_)" width="8" height="28"/>
<linearGradient id="SVGID_68_" gradientUnits="userSpaceOnUse" x1="429" y1="341.0626" x2="429" y2="373.3046">
	<stop  offset="0" style="stop-color:#EDEDED"/>
	<stop  offset="1" style="stop-color:#DDDDDD"/>
</linearGradient>
<path fill="url(#SVGID_68_)" d="M442,342h-27.786c-1.993,0-3.839,1.361-4.159,3.328C409.647,347.834,411.571,350,414,350h24
	c1.105,0,2,0.895,2,2v20h8v-24C448,344.686,445.314,342,442,342z"/>
<linearGradient id="SVGID_69_" gradientUnits="userSpaceOnUse" x1="440" y1="408" x2="578" y2="408">
	<stop  offset="0" style="stop-color:#00E35E"/>
	<stop  offset="0.236" style="stop-color:#00DF5D"/>
	<stop  offset="0.4805" style="stop-color:#00D258"/>
	<stop  offset="0.7289" style="stop-color:#00BE52"/>
	<stop  offset="0.9785" style="stop-color:#00A148"/>
	<stop  offset="1" style="stop-color:#009E47"/>
</linearGradient>
<path fill="url(#SVGID_69_)" d="M529.884,448H452c-6.627,0-12-5.373-12-12v-68h134c2.209,0,4,1.79,4,4v15.349
	c0,4.319-1.388,8.524-3.959,11.995l-31.21,42.134C539.792,445.58,534.989,448,529.884,448z"/>
<linearGradient id="SVGID_70_" gradientUnits="userSpaceOnUse" x1="453.9999" y1="474" x2="526" y2="474">
	<stop  offset="0" style="stop-color:#CDCDCD"/>
	<stop  offset="1" style="stop-color:#B9B9B9"/>
</linearGradient>
<rect x="454" y="470" fill="url(#SVGID_70_)" width="72" height="8"/>
<linearGradient id="SVGID_71_" gradientUnits="userSpaceOnUse" x1="440" y1="473.9996" x2="475.9999" y2="473.9996">
	<stop  offset="0" style="stop-color:#424242"/>
	<stop  offset="0.2413" style="stop-color:#464646"/>
	<stop  offset="1" style="stop-color:#4F4F4F"/>
</linearGradient>
<circle fill="url(#SVGID_71_)" cx="458" cy="474" r="18"/>
<linearGradient id="SVGID_72_" gradientUnits="userSpaceOnUse" x1="457.9999" y1="465.7496" x2="457.9999" y2="482.0168">
	<stop  offset="0" style="stop-color:#EDEDED"/>
	<stop  offset="1" style="stop-color:#DDDDDD"/>
</linearGradient>
<circle fill="url(#SVGID_72_)" cx="458" cy="474" r="8"/>
<linearGradient id="SVGID_73_" gradientUnits="userSpaceOnUse" x1="503.9999" y1="473.9996" x2="539.9999" y2="473.9996">
	<stop  offset="0" style="stop-color:#424242"/>
	<stop  offset="0.2413" style="stop-color:#464646"/>
	<stop  offset="1" style="stop-color:#4F4F4F"/>
</linearGradient>
<circle fill="url(#SVGID_73_)" cx="522" cy="474" r="18"/>
<linearGradient id="SVGID_74_" gradientUnits="userSpaceOnUse" x1="521.9999" y1="465.7496" x2="521.9999" y2="482.0168">
	<stop  offset="0" style="stop-color:#EDEDED"/>
	<stop  offset="1" style="stop-color:#DDDDDD"/>
</linearGradient>
<circle fill="url(#SVGID_74_)" cx="522" cy="474" r="8"/>
<linearGradient id="SVGID_75_" gradientUnits="userSpaceOnUse" x1="460" y1="437" x2="460" y2="378.6657">
	<stop  offset="0" style="stop-color:#304F26;stop-opacity:0.05"/>
	<stop  offset="1" style="stop-color:#003900;stop-opacity:0.15"/>
</linearGradient>
<path fill="url(#SVGID_75_)" d="M468,433.984c0,1.113-0.902,2.016-2.016,2.016h-11.969c-1.113,0-2.016-0.902-2.016-2.016v-51.969
	c0-1.113,0.902-2.016,2.016-2.016h11.969c1.113,0,2.016,0.902,2.016,2.016V433.984z"/>
<linearGradient id="SVGID_76_" gradientUnits="userSpaceOnUse" x1="488" y1="437" x2="488" y2="378.6657">
	<stop  offset="0" style="stop-color:#304F26;stop-opacity:0.05"/>
	<stop  offset="1" style="stop-color:#003900;stop-opacity:0.15"/>
</linearGradient>
<path fill="url(#SVGID_76_)" d="M496,433.984c0,1.113-0.902,2.016-2.016,2.016h-11.969c-1.113,0-2.016-0.902-2.016-2.016v-51.969
	c0-1.113,0.902-2.016,2.016-2.016h11.969c1.113,0,2.016,0.902,2.016,2.016V433.984z"/>
<linearGradient id="SVGID_77_" gradientUnits="userSpaceOnUse" x1="516" y1="437" x2="516" y2="378.6657">
	<stop  offset="0" style="stop-color:#304F26;stop-opacity:0.05"/>
	<stop  offset="1" style="stop-color:#003900;stop-opacity:0.15"/>
</linearGradient>
<path fill="url(#SVGID_77_)" d="M524,433.984c0,1.113-0.902,2.016-2.016,2.016h-11.969c-1.113,0-2.016-0.902-2.016-2.016v-51.969
	c0-1.113,0.902-2.016,2.016-2.016h11.969c1.113,0,2.016,0.902,2.016,2.016V433.984z"/>
<linearGradient id="SVGID_78_" gradientUnits="userSpaceOnUse" x1="544" y1="436.9996" x2="544" y2="378.6657">
	<stop  offset="0" style="stop-color:#304F26;stop-opacity:0.05"/>
	<stop  offset="1" style="stop-color:#003900;stop-opacity:0.15"/>
</linearGradient>
<path fill="url(#SVGID_78_)" d="M551.614,414.53l-11.969,16.457c-1.148,1.579-3.646,0.767-3.646-1.186v-47.786
	c0-1.113,0.902-2.015,2.016-2.015h11.969c1.113,0,2.016,0.902,2.016,2.015v31.329C552,413.77,551.865,414.185,551.614,414.53z"/>
<path opacity="0.05" d="M524,382c0,1.105-0.895,2-2,2h-12c-1.105,0-2-0.895-2-2l0,0c0-1.105,0.895-2,2-2h12
	C523.105,380,524,380.895,524,382L524,382z"/>
<path opacity="0.05" d="M552,382c0,1.105-0.895,2-2,2h-12c-1.105,0-2-0.895-2-2l0,0c0-1.105,0.895-2,2-2h12
	C551.105,380,552,380.895,552,382L552,382z"/>
<path opacity="0.05" d="M496,382c0,1.105-0.895,2-2,2h-12c-1.105,0-2-0.895-2-2l0,0c0-1.105,0.895-2,2-2h12
	C495.105,380,496,380.895,496,382L496,382z"/>
<path opacity="0.05" d="M468,382c0,1.105-0.895,2-2,2h-12c-1.105,0-2-0.895-2-2l0,0c0-1.105,0.895-2,2-2h12
	C467.105,380,468,380.895,468,382L468,382z"/>
<linearGradient id="SVGID_79_" gradientUnits="userSpaceOnUse" x1="168" y1="221" x2="168" y2="287.2288">
	<stop  offset="0" style="stop-color:#CDCDCD"/>
	<stop  offset="1" style="stop-color:#B9B9B9"/>
</linearGradient>
<path fill="url(#SVGID_79_)" d="M200,280c0,3.314-2.686,6-6,6h-52c-3.314,0-6-2.686-6-6v-52c0-3.314,2.686-6,6-6h52
	c3.314,0,6,2.686,6,6V280z"/>
<path fill="#FFFFFF" d="M186,253c0,1.657-1.343,3-3,3h-30c-1.657,0-3-1.343-3-3l0,0c0-1.657,1.343-3,3-3h30
	C184.657,250,186,251.343,186,253L186,253z"/>
<circle fill="#FFFFFF" cx="168" cy="239" r="5"/>
<circle fill="#FFFFFF" cx="168" cy="267" r="5"/>
<path fill="#E8E8E8" d="M173.192,166.427l1.215,3.921c0.184,0.595,0.65,1.061,1.245,1.245l3.921,1.215
	c0.35,0.108,0.35,0.604,0,0.713l-3.921,1.215c-0.595,0.184-1.061,0.65-1.245,1.245l-1.215,3.921c-0.108,0.35-0.604,0.35-0.713,0
	l-1.215-3.921c-0.184-0.595-0.65-1.061-1.245-1.245l-3.921-1.215c-0.35-0.108-0.35-0.604,0-0.713l3.921-1.215
	c0.595-0.184,1.061-0.65,1.245-1.245l1.215-3.921C172.587,166.077,173.083,166.077,173.192,166.427z"/>
<path fill="#E8E8E8" d="M517.191,326.427l1.215,3.921c0.184,0.595,0.65,1.061,1.245,1.245l3.921,1.215
	c0.35,0.108,0.35,0.604,0,0.713l-3.921,1.215c-0.595,0.184-1.061,0.65-1.245,1.245l-1.215,3.921c-0.108,0.35-0.604,0.35-0.713,0
	l-1.215-3.921c-0.184-0.595-0.65-1.061-1.245-1.245l-3.921-1.215c-0.35-0.108-0.35-0.604,0-0.713l3.921-1.215
	c0.595-0.184,1.061-0.65,1.245-1.245l1.215-3.921C516.587,326.077,517.083,326.077,517.191,326.427z"/>
<linearGradient id="SVGID_80_" gradientUnits="userSpaceOnUse" x1="413.7707" y1="168.3748" x2="413.7707" y2="154.5179">
	<stop  offset="0" style="stop-color:#FFFFFF;stop-opacity:0.04"/>
	<stop  offset="1" style="stop-color:#FFFFFF;stop-opacity:0.1"/>
</linearGradient>
<path fill="url(#SVGID_80_)" d="M405.543,168c-0.554,0-1.105-0.229-1.5-0.677c-0.731-0.828-0.652-2.092,0.176-2.822
	c4.948-4.368,10.924-7.541,17.282-9.177c1.066-0.276,2.16,0.368,2.435,1.438c0.275,1.069-0.368,2.159-1.438,2.435
	c-5.749,1.479-11.154,4.351-15.632,8.302C406.485,167.835,406.013,168,405.543,168z"/>
</svg>
