<?xml version="1.0" encoding="iso-8859-1"?>
<!-- Generator: Adobe Illustrator 22.1.0, SVG Export Plug-In . SVG Version: 6.00 Build 0)  -->
<svg version="1.1" id="unsubscribed" xmlns="http://www.w3.org/2000/svg" xmlns:xlink="http://www.w3.org/1999/xlink" x="0px"
	 y="0px" viewBox="0 0 800 600" enable-background="new 0 0 800 600" xml:space="preserve">
<linearGradient id="SVGID_1_" gradientUnits="userSpaceOnUse" x1="678" y1="58" x2="493.1217" y2="242.8783">
	<stop  offset="0" style="stop-color:#962DEF"/>
	<stop  offset="0.2427" style="stop-color:#B767E9"/>
	<stop  offset="0.4977" style="stop-color:#D69EE3"/>
	<stop  offset="0.7183" style="stop-color:#ECC6DF"/>
	<stop  offset="0.893" style="stop-color:#FADEDD"/>
	<stop  offset="1" style="stop-color:#FFE7DC"/>
</linearGradient>
<circle fill="url(#SVGID_1_)" cx="566" cy="170" r="96"/>
<linearGradient id="SVGID_2_" gradientUnits="userSpaceOnUse" x1="564.291" y1="422" x2="641.709" y2="422">
	<stop  offset="0" style="stop-color:#777284"/>
	<stop  offset="1" style="stop-color:#342D47"/>
</linearGradient>
<path fill="url(#SVGID_2_)" d="M626.526,480h-47.052c-4.209,0-7.699-3.258-7.988-7.457l-7.185-104.18
	c-0.163-2.359,1.707-4.363,4.072-4.363h69.253c2.365,0,4.235,2.004,4.072,4.363l-7.185,104.18
	C634.225,476.742,630.734,480,626.526,480z"/>
<linearGradient id="SVGID_3_" gradientUnits="userSpaceOnUse" x1="162.25" y1="458" x2="213.9462" y2="458">
	<stop  offset="0" style="stop-color:#FFEFAB"/>
	<stop  offset="0.1608" style="stop-color:#FFEBA2"/>
	<stop  offset="0.4229" style="stop-color:#FFE18A"/>
	<stop  offset="0.7521" style="stop-color:#FFD062"/>
	<stop  offset="0.8" style="stop-color:#FFCD5C"/>
	<stop  offset="0.866" style="stop-color:#FECB58"/>
	<stop  offset="0.9342" style="stop-color:#FCC44B"/>
	<stop  offset="1" style="stop-color:#F9B938"/>
</linearGradient>
<polygon fill="url(#SVGID_3_)" points="196,480 208,480 208,436 196,436 162,454 162,462 "/>
<linearGradient id="SVGID_4_" gradientUnits="userSpaceOnUse" x1="570.75" y1="422" x2="591.8702" y2="422">
	<stop  offset="0" style="stop-color:#000000;stop-opacity:0.3"/>
	<stop  offset="1" style="stop-color:#302926;stop-opacity:0"/>
</linearGradient>
<rect x="572" y="364" fill="url(#SVGID_4_)" width="18" height="116"/>
<linearGradient id="SVGID_5_" gradientUnits="userSpaceOnUse" x1="556" y1="325" x2="556" y2="478.0817">
	<stop  offset="0" style="stop-color:#EDEDED"/>
	<stop  offset="0.3824" style="stop-color:#E9E9E9"/>
	<stop  offset="0.7779" style="stop-color:#DCDCDC"/>
	<stop  offset="1" style="stop-color:#D2D2D2"/>
</linearGradient>
<path fill="url(#SVGID_5_)" d="M574,480h-40V328h42c1.105,0,2,0.895,2,2v146C578,478.209,576.209,480,574,480z"/>
<linearGradient id="SVGID_6_" gradientUnits="userSpaceOnUse" x1="448.1636" y1="312" x2="448.1636" y2="480.3383">
	<stop  offset="0" style="stop-color:#F9E0AC"/>
	<stop  offset="1" style="stop-color:#FCE086"/>
</linearGradient>
<path fill="url(#SVGID_6_)" d="M559.106,320.894l-18.084,18.084c-1.641,1.641-1.565,4.323,0.166,5.868l21.625,19.308
	c1.731,1.545,1.806,4.227,0.166,5.868l-22.623,22.623c-1.577,1.577-1.577,4.134,0,5.711l22.789,22.789
	c1.577,1.577,1.577,4.134,0,5.711l-22.289,22.289c-1.577,1.577-1.577,4.134,0,5.711l18.25,18.25
	c2.544,2.544,0.742,6.894-2.856,6.894H336c-2.209,0-4-1.791-4-4V314h224.25C559.848,314,561.65,318.35,559.106,320.894z"/>
<linearGradient id="SVGID_7_" gradientUnits="userSpaceOnUse" x1="416" y1="263" x2="416" y2="410.8149">
	<stop  offset="0" style="stop-color:#906CFF"/>
	<stop  offset="0.2492" style="stop-color:#9163FD"/>
	<stop  offset="0.6541" style="stop-color:#924BF9"/>
	<stop  offset="1" style="stop-color:#9431F4"/>
</linearGradient>
<path fill="url(#SVGID_7_)" d="M512,410H316V266h160c22.091,0,40,17.909,40,40v100C516,408.209,514.209,410,512,410z"/>
<linearGradient id="SVGID_8_" gradientUnits="userSpaceOnUse" x1="363.3333" y1="338" x2="278.2804" y2="338">
	<stop  offset="0" style="stop-color:#5307AA"/>
	<stop  offset="1" style="stop-color:#9431F4"/>
</linearGradient>
<path fill="url(#SVGID_8_)" d="M320,266L320,266c22.091,0,40,17.909,40,40v104h-76c-2.209,0-4-1.791-4-4V306
	C280,283.909,297.909,266,320,266z"/>
<linearGradient id="SVGID_9_" gradientUnits="userSpaceOnUse" x1="440" y1="270.6667" x2="440" y2="394.685">
	<stop  offset="0" style="stop-color:#8B55D8;stop-opacity:0"/>
	<stop  offset="0.3685" style="stop-color:#8951D5;stop-opacity:0.3685"/>
	<stop  offset="0.7497" style="stop-color:#8144CE;stop-opacity:0.7497"/>
	<stop  offset="1" style="stop-color:#7A38C6"/>
</linearGradient>
<path fill="url(#SVGID_9_)" d="M508,394H372V274h98c20.987,0,38,17.013,38,38V394z"/>
<rect x="466" y="372" fill="#4E3772" width="28" height="4"/>
<rect x="474" y="364" fill="#4E3772" width="20" height="4"/>
<linearGradient id="SVGID_10_" gradientUnits="userSpaceOnUse" x1="419" y1="204.4993" x2="419" y2="336.1239">
	<stop  offset="0" style="stop-color:#745C93"/>
	<stop  offset="0.3042" style="stop-color:#6B538A"/>
	<stop  offset="0.7987" style="stop-color:#533B73"/>
	<stop  offset="1" style="stop-color:#472F68"/>
</linearGradient>
<path fill="url(#SVGID_10_)" d="M434,214h-26c-4.42,0-8,3.58-8,8v99.52c0,6.52,5,12.22,11.52,12.48c7.44,0.28,13.44-6.2,12.36-13.8
	c-0.76-5.12-4.92-9.3-10.04-10.06c-3.8-0.56-7.3,0.66-9.84,2.94V238c0-2.2,1.8-4,4-4h22c4.42,0,8-3.58,8-8v-8
	C438,215.8,436.2,214,434,214z M412,316c3.32,0,6,2.68,6,6c0,3.32-2.68,6-6,6s-6-2.68-6-6C406,318.68,408.68,316,412,316z"/>
<path opacity="0.15" fill="#FFFFFF" d="M438,218v4c0-2.2-1.8-4-4-4h-26c-4.42,0-8,3.58-8,8v-4c0-4.42,3.58-8,8-8h26
	C436.2,214,438,215.8,438,218z"/>
<linearGradient id="SVGID_11_" gradientUnits="userSpaceOnUse" x1="402" y1="416" x2="454" y2="416">
	<stop  offset="0" style="stop-color:#F0F0F0"/>
	<stop  offset="1" style="stop-color:#D3D3D3"/>
</linearGradient>
<path fill="url(#SVGID_11_)" d="M452,422h-48c-1.105,0-2-0.895-2-2v-10h52v10C454,421.105,453.105,422,452,422z"/>
<linearGradient id="SVGID_12_" gradientUnits="userSpaceOnUse" x1="428" y1="421.5" x2="428" y2="526.0107">
	<stop  offset="0" style="stop-color:#D69854"/>
	<stop  offset="0.1479" style="stop-color:#D79B58"/>
	<stop  offset="0.3013" style="stop-color:#DAA265"/>
	<stop  offset="0.4571" style="stop-color:#DFAE79"/>
	<stop  offset="0.6148" style="stop-color:#E6C096"/>
	<stop  offset="0.7738" style="stop-color:#EFD7BC"/>
	<stop  offset="0.9317" style="stop-color:#FAF2E9"/>
	<stop  offset="1" style="stop-color:#FFFFFF"/>
</linearGradient>
<rect x="412" y="422" fill="url(#SVGID_12_)" width="32" height="104"/>
<linearGradient id="SVGID_13_" gradientUnits="userSpaceOnUse" x1="444" y1="484" x2="682" y2="484">
	<stop  offset="0" style="stop-color:#F5F5F5"/>
	<stop  offset="1" style="stop-color:#DDDDDD"/>
</linearGradient>
<rect x="444" y="480" fill="url(#SVGID_13_)" width="238" height="8"/>
<linearGradient id="SVGID_14_" gradientUnits="userSpaceOnUse" x1="422" y1="484" x2="116.8672" y2="484">
	<stop  offset="0" style="stop-color:#F5F5F5"/>
	<stop  offset="1" style="stop-color:#DDDDDD"/>
</linearGradient>
<rect x="118" y="480" fill="url(#SVGID_14_)" width="294" height="8"/>
<path fill="#C6825C" d="M428,422v30c0,0.54-0.22,1.04-0.58,1.42l-7,7c-0.4,0.38-0.9,0.58-1.42,0.58s-1.02-0.2-1.42-0.58
	c-0.78-0.78-0.78-2.06,0-2.84l6.42-6.4V422H428z"/>
<path fill="#C6825C" d="M438,422v30c0,1.1-0.9,2-2,2s-2-0.9-2-2v-30H438z"/>
<path fill="#C6825C" d="M444,479.16v5.68l-9.42-9.42c-0.36-0.38-0.58-0.88-0.58-1.42v-10c0-1.1,0.9-2,2-2s2,0.9,2,2v9.18L444,479.16
	z"/>
<path fill="#C6825C" d="M436,506c-1.105,0-2-0.895-2-2v-14c0-1.105,0.895-2,2-2s2,0.895,2,2v14C438,505.105,437.105,506,436,506z"/>
<path fill="#C6825C" d="M428,496v16c0,1.1-0.9,2-2,2s-2-0.9-2-2v-15.18l-12-11.98v-5.68l15.42,15.42
	C427.78,494.96,428,495.46,428,496z"/>
<path fill="#C6825C" d="M426,482c-1.105,0-2-0.895-2-2v-12c0-1.105,0.895-2,2-2s2,0.895,2,2v12C428,481.105,427.105,482,426,482z"/>
<linearGradient id="SVGID_15_" gradientUnits="userSpaceOnUse" x1="280" y1="458" x2="308" y2="458">
	<stop  offset="0" style="stop-color:#FF7955"/>
	<stop  offset="0.4556" style="stop-color:#FF705E"/>
	<stop  offset="1" style="stop-color:#FF5F6F"/>
</linearGradient>
<path fill="url(#SVGID_15_)" d="M300,480h-20v-44h20c4.418,0,8,3.582,8,8v28C308,476.418,304.418,480,300,480z"/>
<linearGradient id="SVGID_16_" gradientUnits="userSpaceOnUse" x1="276" y1="433.5" x2="276" y2="480.756">
	<stop  offset="0" style="stop-color:#EDEDED"/>
	<stop  offset="0.3824" style="stop-color:#E9E9E9"/>
	<stop  offset="0.7779" style="stop-color:#DCDCDC"/>
	<stop  offset="1" style="stop-color:#D2D2D2"/>
</linearGradient>
<path fill="url(#SVGID_16_)" d="M272,480h8v-44c0-1.105-0.895-2-2-2h-4c-1.105,0-2,0.895-2,2V480z"/>
<linearGradient id="SVGID_17_" gradientUnits="userSpaceOnUse" x1="272.8333" y1="443" x2="195.3332" y2="443">
	<stop  offset="0" style="stop-color:#FFE552"/>
	<stop  offset="1" style="stop-color:#FFAE39"/>
</linearGradient>
<path fill="url(#SVGID_17_)" d="M272,436v14h-78c3.86,0,7-3.14,7-7c0-2.727-1.567-5.094-3.848-6.249
	c-0.379-0.192-0.251-0.751,0.174-0.751H272z"/>
<linearGradient id="SVGID_18_" gradientUnits="userSpaceOnUse" x1="272.75" y1="458" x2="193.4748" y2="458">
	<stop  offset="0" style="stop-color:#FFE552"/>
	<stop  offset="1" style="stop-color:#FF9617"/>
</linearGradient>
<path fill="url(#SVGID_18_)" d="M272,450v16h-78c4.42,0,8-3.58,8-8c0-4.42-3.58-8-8-8H272z"/>
<linearGradient id="SVGID_19_" gradientUnits="userSpaceOnUse" x1="272.75" y1="473" x2="194.75" y2="473">
	<stop  offset="0" style="stop-color:#FFE552"/>
	<stop  offset="1" style="stop-color:#FF821A"/>
</linearGradient>
<path fill="url(#SVGID_19_)" d="M272,466v14h-74.674c-0.425,0-0.553-0.559-0.174-0.751c2.281-1.155,3.848-3.523,3.848-6.249
	c0-3.86-3.14-7-7-7H272z"/>
<linearGradient id="SVGID_20_" gradientUnits="userSpaceOnUse" x1="148" y1="457.9999" x2="170" y2="457.9999">
	<stop  offset="0" style="stop-color:#606F76"/>
	<stop  offset="1" style="stop-color:#4B4A47"/>
</linearGradient>
<path fill="url(#SVGID_20_)" d="M167.32,451.18L162,454h-10c-2.209,0-4,1.791-4,4c0,2.209,1.791,4,4,4h10l5.32,2.82
	c1.66-1.78,2.68-4.18,2.68-6.82S168.98,452.96,167.32,451.18z"/>
<linearGradient id="SVGID_21_" gradientUnits="userSpaceOnUse" x1="280" y1="444" x2="308" y2="444">
	<stop  offset="0" style="stop-color:#302926;stop-opacity:0"/>
	<stop  offset="0.2384" style="stop-color:#211C1A;stop-opacity:0.0477"/>
	<stop  offset="0.71" style="stop-color:#090807;stop-opacity:0.142"/>
	<stop  offset="1" style="stop-color:#000000;stop-opacity:0.2"/>
</linearGradient>
<path fill="url(#SVGID_21_)" d="M308,444v8c0-4.42-3.58-8-8-8h-20v-8h20C304.42,436,308,439.58,308,444z"/>
<linearGradient id="SVGID_22_" gradientUnits="userSpaceOnUse" x1="627.9748" y1="360.6667" x2="627.9748" y2="479.8733">
	<stop  offset="0" style="stop-color:#000000;stop-opacity:0.3"/>
	<stop  offset="1" style="stop-color:#302926;stop-opacity:0"/>
</linearGradient>
<path fill="url(#SVGID_22_)" d="M641.7,368.36l-7.18,104.18c-0.3,4.2-3.78,7.46-8,7.46h-12.28c4.2,0,7.7-3.26,7.98-7.46l7.18-104.18
	c0.18-2.36-1.7-4.36-4.06-4.36h12.28C640,364,641.86,366,641.7,368.36z"/>
<circle fill="#EFCF75" cx="364" cy="456" r="12"/>
<linearGradient id="SVGID_23_" gradientUnits="userSpaceOnUse" x1="594" y1="320.5" x2="594" y2="363.1651">
	<stop  offset="0" style="stop-color:#705340"/>
	<stop  offset="1" style="stop-color:#93614C"/>
</linearGradient>
<rect x="588" y="320" fill="url(#SVGID_23_)" width="12" height="44"/>
<linearGradient id="SVGID_24_" gradientUnits="userSpaceOnUse" x1="588" y1="311" x2="600" y2="311">
	<stop  offset="0" style="stop-color:#FFEFAB"/>
	<stop  offset="0.1814" style="stop-color:#FFEDA7"/>
	<stop  offset="0.3695" style="stop-color:#FEE79A"/>
	<stop  offset="0.5605" style="stop-color:#FDDD86"/>
	<stop  offset="0.7537" style="stop-color:#FCD069"/>
	<stop  offset="0.9467" style="stop-color:#FABE44"/>
	<stop  offset="1" style="stop-color:#F9B938"/>
</linearGradient>
<polygon fill="url(#SVGID_24_)" points="594,302 600,320 588,320 "/>
<linearGradient id="SVGID_25_" gradientUnits="userSpaceOnUse" x1="612" y1="348" x2="624" y2="348">
	<stop  offset="0" style="stop-color:#73767A"/>
	<stop  offset="0.0417" style="stop-color:#727579"/>
	<stop  offset="0.529" style="stop-color:#65686C"/>
	<stop  offset="1" style="stop-color:#616468"/>
</linearGradient>
<rect x="612" y="332" fill="url(#SVGID_25_)" width="12" height="32"/>
<linearGradient id="SVGID_26_" gradientUnits="userSpaceOnUse" x1="612" y1="323" x2="624" y2="323">
	<stop  offset="0" style="stop-color:#C8C8C8"/>
	<stop  offset="0.3622" style="stop-color:#C4C4C4"/>
	<stop  offset="0.7367" style="stop-color:#B7B7B7"/>
	<stop  offset="1" style="stop-color:#AAAAAA"/>
</linearGradient>
<polygon fill="url(#SVGID_26_)" points="618,314 624,332 612,332 "/>
<linearGradient id="SVGID_27_" gradientUnits="userSpaceOnUse" x1="591" y1="364.625" x2="591" y2="319.8734">
	<stop  offset="0" style="stop-color:#302926;stop-opacity:0"/>
	<stop  offset="0.4689" style="stop-color:#272321;stop-opacity:0.0703"/>
	<stop  offset="1" style="stop-color:#171717;stop-opacity:0.15"/>
</linearGradient>
<rect x="588" y="320" fill="url(#SVGID_27_)" width="6" height="44"/>
<linearGradient id="SVGID_28_" gradientUnits="userSpaceOnUse" x1="615" y1="363.375" x2="615" y2="331.375">
	<stop  offset="0" style="stop-color:#302926;stop-opacity:0"/>
	<stop  offset="0.4689" style="stop-color:#272321;stop-opacity:0.0938"/>
	<stop  offset="1" style="stop-color:#171717;stop-opacity:0.2"/>
</linearGradient>
<rect x="612" y="332" fill="url(#SVGID_28_)" width="6" height="32"/>
<rect x="582" y="372" fill="#392D4F" width="64" height="2"/>
<path fill="#FFFFFF" d="M584.657,206.933c0.543,1.46-0.165,3.076-1.587,3.713c-6.247,2.801-12.712,3.894-20.269,3.894
	c-20.99,0-38.781-15.358-38.781-39.933c0-26.366,18.303-49.148,46.717-49.148c22.27,0,37.244,15.615,37.244,36.989
	c0,19.198-10.75,30.638-22.781,30.638c-5.119,0-9.855-3.087-9.473-11.087h-0.512c-4.479,8-10.367,11.087-18.047,11.087
	c-7.422,0-13.822-6.104-13.822-16.215c0-15.871,12.543-30.378,30.334-30.378c4.686,0,8.907,0.813,12.112,2.009
	c0.924,0.345,1.463,1.289,1.28,2.259l-4.049,21.548c-1.92,9.728-0.385,14.204,3.84,14.332c6.527,0.128,13.822-8.577,13.822-23.424
	c0-18.559-11.135-31.87-30.975-31.87c-20.861,0-38.396,16.51-38.396,42.493c0,21.374,13.951,34.557,32.895,34.557
	c6.061,0,11.768-1.06,16.536-3.108C582.291,204.626,584.07,205.356,584.657,206.933L584.657,206.933z M578.543,154.129
	c-1.279-0.384-3.455-0.896-6.398-0.896c-11.264,0-20.352,10.623-20.352,23.038c0,5.632,2.816,9.728,8.447,9.728
	c7.424,0,14.207-9.472,15.615-17.407L578.543,154.129z"/>
<rect x="484" y="464" fill="#EFCF75" width="32" height="4"/>
<rect x="492" y="456" fill="#EFCF75" width="24" height="4"/>
<linearGradient id="SVGID_29_" gradientUnits="userSpaceOnUse" x1="554.75" y1="325.6667" x2="554.75" y2="480.081">
	<stop  offset="0" style="stop-color:#302926;stop-opacity:0.05"/>
	<stop  offset="0.3978" style="stop-color:#2C2623;stop-opacity:0.0699"/>
	<stop  offset="0.8093" style="stop-color:#1F1D1C;stop-opacity:0.0905"/>
	<stop  offset="1" style="stop-color:#171717;stop-opacity:0.1"/>
</linearGradient>
<path fill="url(#SVGID_29_)" d="M546.86,449.14c-1.58,1.58-1.58,4.14,0,5.72l18.24,18.24c2.56,2.56,0.74,6.9-2.84,6.9h-6
	c3.58,0,5.4-4.34,2.84-6.9l-18.24-18.24c-1.58-1.58-1.58-4.14,0-5.72l22.28-22.28c1.58-1.58,1.58-4.14,0-5.72l-22.78-22.78
	c-1.58-1.58-1.58-4.14,0-5.72l22.62-22.62c1.64-1.64,1.56-4.32-0.16-5.86l-21.64-19.32c-1.72-1.54-1.8-4.22-0.16-5.86L552,328h6
	l-10.98,10.98c-1.64,1.64-1.56,4.32,0.16,5.86l21.64,19.32c1.72,1.54,1.8,4.22,0.16,5.86l-22.62,22.62c-1.58,1.58-1.58,4.14,0,5.72
	l22.78,22.78c1.58,1.58,1.58,4.14,0,5.72L546.86,449.14z"/>
<linearGradient id="SVGID_30_" gradientUnits="userSpaceOnUse" x1="412" y1="426" x2="444" y2="426">
	<stop  offset="0" style="stop-color:#302926;stop-opacity:0"/>
	<stop  offset="0.3978" style="stop-color:#2C2623;stop-opacity:0.0597"/>
	<stop  offset="0.8093" style="stop-color:#1F1D1C;stop-opacity:0.1214"/>
	<stop  offset="1" style="stop-color:#171717;stop-opacity:0.15"/>
</linearGradient>
<polygon fill="url(#SVGID_30_)" points="444,430 412,422 444,422 "/>
<polygon fill="#EFCF75" points="148,240 164,224 164,254 "/>
<polygon fill="#EFCF75" points="316,254 332,240 316,224 "/>
<linearGradient id="SVGID_31_" gradientUnits="userSpaceOnUse" x1="240" y1="148.6667" x2="240" y2="297.3348">
	<stop  offset="0" style="stop-color:#FFFFED"/>
	<stop  offset="1" style="stop-color:#EBEBEB"/>
</linearGradient>
<path fill="url(#SVGID_31_)" d="M312,152H168c-2.209,0-4,1.791-4,4v142h152V156C316,153.791,314.209,152,312,152z"/>
<polygon fill="#D8D8D8" points="308,160 308,148 306,148 306,160 198,160 198,162 306,162 306,258 308,258 308,162 320,162 320,160 
	"/>
<rect x="172" y="186" fill="#D8D8D8" width="2" height="72"/>
<linearGradient id="SVGID_32_" gradientUnits="userSpaceOnUse" x1="134" y1="296" x2="334.639" y2="296">
	<stop  offset="0" style="stop-color:#FFEFAB"/>
	<stop  offset="0.1608" style="stop-color:#FFEBA2"/>
	<stop  offset="0.4229" style="stop-color:#FFE18A"/>
	<stop  offset="0.7521" style="stop-color:#FFD062"/>
	<stop  offset="0.8" style="stop-color:#FFCD5C"/>
	<stop  offset="0.866" style="stop-color:#FECB58"/>
	<stop  offset="0.9342" style="stop-color:#FCC44B"/>
	<stop  offset="1" style="stop-color:#F9B938"/>
</linearGradient>
<path fill="url(#SVGID_32_)" d="M332,240v104c0,4.4-3.6,8-8,8H156c-4.4,0-8-3.6-8-8V240l71.62,46.72l2.32,1.5l7.14,4.66
	c6.64,4.32,15.2,4.32,21.84,0l1.62-1.06L332,240z"/>
<linearGradient id="SVGID_33_" gradientUnits="userSpaceOnUse" x1="228.76" y1="311.74" x2="209.0734" y2="292.0534">
	<stop  offset="0" style="stop-color:#FF2900;stop-opacity:0.17"/>
	<stop  offset="0.0932" style="stop-color:#F82F08;stop-opacity:0.1542"/>
	<stop  offset="0.3551" style="stop-color:#E93B19;stop-opacity:0.1096"/>
	<stop  offset="0.6423" style="stop-color:#E04323;stop-opacity:0.0608"/>
	<stop  offset="1" style="stop-color:#DD4526;stop-opacity:0"/>
</linearGradient>
<path fill="url(#SVGID_33_)" d="M200,324l19.62-37.28l2.32,1.5l7.14,4.66c6.64,4.32,15.2,4.32,21.84,0L200,324z"/>
<linearGradient id="SVGID_34_" gradientUnits="userSpaceOnUse" x1="266" y1="194" x2="266" y2="213.5144">
	<stop  offset="0" style="stop-color:#C5BFBD"/>
	<stop  offset="1" style="stop-color:#6E6E6E"/>
</linearGradient>
<path fill="url(#SVGID_34_)" d="M276,204c0,5.52-4.48,10-10,10s-10-4.48-10-10s4.48-10,10-10c0.94,0,1.86,0.14,2.74,0.38
	c-0.46,0.76-0.74,1.66-0.74,2.62c0,2.76,2.24,5,5,5c0.96,0,1.86-0.28,2.62-0.74C275.86,202.14,276,203.06,276,204z"/>
<path opacity="0.3" d="M268.74,194.38c-0.34,0.54-0.56,1.16-0.66,1.84c-0.68-0.14-1.38-0.22-2.08-0.22c-5.18,0-9.44,3.94-9.94,8.98
	c-0.04-0.32-0.06-0.64-0.06-0.98c0-5.52,4.48-10,10-10C266.94,194,267.86,194.14,268.74,194.38z"/>
<linearGradient id="SVGID_35_" gradientUnits="userSpaceOnUse" x1="214" y1="193.75" x2="214" y2="214.0015">
	<stop  offset="0" style="stop-color:#C5BFBD"/>
	<stop  offset="1" style="stop-color:#6E6E6E"/>
</linearGradient>
<path fill="url(#SVGID_35_)" d="M224,204c0,5.52-4.48,10-10,10s-10-4.48-10-10s4.48-10,10-10c0.94,0,1.86,0.14,2.74,0.38
	c-0.46,0.76-0.74,1.66-0.74,2.62c0,2.76,2.24,5,5,5c0.96,0,1.86-0.28,2.62-0.74C223.86,202.14,224,203.06,224,204z"/>
<path opacity="0.3" d="M216.74,194.38c-0.34,0.54-0.56,1.16-0.66,1.84c-0.68-0.14-1.38-0.22-2.08-0.22c-5.18,0-9.44,3.94-9.94,8.98
	c-0.04-0.32-0.06-0.64-0.06-0.98c0-5.52,4.48-10,10-10C214.94,194,215.86,194.14,216.74,194.38z"/>
<path fill="#878787" d="M282,192c-13.407,0-15.843-9.127-15.94-9.516c-0.268-1.07,0.384-2.156,1.455-2.424
	c1.06-0.271,2.145,0.373,2.421,1.436C270.017,181.791,271.859,188,282,188c1.104,0,2,0.895,2,2S283.104,192,282,192z"/>
<path fill="#878787" d="M198,192c-1.104,0-2-0.895-2-2s0.896-2,2-2c10.167,0,11.992-6.24,12.065-6.506
	c0.289-1.055,1.383-1.686,2.438-1.418c1.06,0.277,1.702,1.346,1.437,2.408C213.843,182.873,211.407,192,198,192z"/>
<path fill="#C9C9C9" d="M256.16,237.98L227.84,238c-0.7,0-1.16-0.7-0.92-1.34c0.6-1.7,1.48-3.28,2.6-4.66h24.94
	c1.14,1.4,2.02,2.98,2.64,4.72C257.32,237.34,256.82,237.98,256.16,237.98z"/>
<linearGradient id="SVGID_36_" gradientUnits="userSpaceOnUse" x1="284" y1="225" x2="284" y2="258.5205">
	<stop  offset="0" style="stop-color:#ACE3D4"/>
	<stop  offset="0.434" style="stop-color:#85D9EB"/>
	<stop  offset="0.7848" style="stop-color:#6DD3FA"/>
	<stop  offset="1" style="stop-color:#64D1FF"/>
</linearGradient>
<path fill="url(#SVGID_36_)" d="M296,246c0,6.627-5.373,12-12,12s-12-5.373-12-12s12-20,12-20S296,239.373,296,246z"/>
<linearGradient id="SVGID_37_" gradientUnits="userSpaceOnUse" x1="281.63" y1="226" x2="281.63" y2="257.5248">
	<stop  offset="0" style="stop-color:#30779A;stop-opacity:0"/>
	<stop  offset="0.1783" style="stop-color:#2E739C;stop-opacity:0.0357"/>
	<stop  offset="0.363" style="stop-color:#2966A1;stop-opacity:0.0726"/>
	<stop  offset="0.5508" style="stop-color:#2152AA;stop-opacity:0.1102"/>
	<stop  offset="0.7406" style="stop-color:#1535B6;stop-opacity:0.1481"/>
	<stop  offset="0.9303" style="stop-color:#0610C5;stop-opacity:0.1861"/>
	<stop  offset="1" style="stop-color:#0000CC;stop-opacity:0.2"/>
</linearGradient>
<path fill="url(#SVGID_37_)" d="M291.26,255.54c-2,1.56-4.52,2.46-7.26,2.46c-6.62,0-12-5.38-12-12s12-20,12-20s0.44,0.5,1.18,1.36
	c-3.56,4.42-9.18,12.1-9.18,16.64c0,6.62,5.38,12,12,12C289.14,256,290.22,255.84,291.26,255.54z"/>
<path fill="#FFFFFF" d="M254.46,232h-24.94c2.92-3.66,7.42-6,12.48-6C247.04,226,251.54,228.34,254.46,232z"/>
<linearGradient id="SVGID_38_" gradientUnits="userSpaceOnUse" x1="172" y1="127" x2="172" y2="192.1556">
	<stop  offset="0" style="stop-color:#FF7955"/>
	<stop  offset="0.4556" style="stop-color:#FF705E"/>
	<stop  offset="1" style="stop-color:#FF5F6F"/>
</linearGradient>
<circle fill="url(#SVGID_38_)" cx="172" cy="160" r="30"/>
<path fill="#FFFFFF" d="M176.242,160l7.778-7.778c1.172-1.171,1.172-3.071,0-4.242c-1.172-1.172-3.07-1.172-4.242,0L172,155.758
	l-7.778-7.778c-1.172-1.172-3.07-1.172-4.242,0c-1.172,1.171-1.172,3.071,0,4.242l7.778,7.778l-7.778,7.778
	c-1.172,1.171-1.172,3.071,0,4.242c0.586,0.586,1.354,0.879,2.121,0.879s1.535-0.293,2.121-0.879l7.778-7.778l7.778,7.778
	c0.586,0.586,1.354,0.879,2.121,0.879s1.535-0.293,2.121-0.879c1.172-1.171,1.172-3.071,0-4.242L176.242,160z"/>
<linearGradient id="SVGID_39_" gradientUnits="userSpaceOnUse" x1="184" y1="148.25" x2="184" y2="193.03">
	<stop  offset="0" style="stop-color:#302926;stop-opacity:0"/>
	<stop  offset="0.3978" style="stop-color:#2C2623;stop-opacity:0.0597"/>
	<stop  offset="0.8093" style="stop-color:#1F1D1C;stop-opacity:0.1214"/>
	<stop  offset="1" style="stop-color:#171717;stop-opacity:0.15"/>
</linearGradient>
<path fill="url(#SVGID_39_)" d="M204,162c0,16.56-13.44,30-30,30c-3.5,0-6.86-0.6-10-1.72v-1.36c2.54,0.7,5.24,1.08,8,1.08
	c16.56,0,30-13.44,30-30c0-2.76-0.38-5.46-1.08-8h1.36C203.4,155.14,204,158.5,204,162z"/>
<path opacity="0.08" d="M376,456c0,0.34-0.02,0.68-0.04,1c-0.52-6.16-5.68-11-11.96-11s-11.44,4.84-11.96,11
	c-0.02-0.32-0.04-0.66-0.04-1c0-6.62,5.38-12,12-12S376,449.38,376,456z"/>
<linearGradient id="SVGID_40_" gradientUnits="userSpaceOnUse" x1="440" y1="394.6667" x2="440" y2="385.898">
	<stop  offset="0" style="stop-color:#000000;stop-opacity:0.2"/>
	<stop  offset="1" style="stop-color:#302926;stop-opacity:0"/>
</linearGradient>
<rect x="372" y="386" fill="url(#SVGID_40_)" width="136" height="8"/>
<linearGradient id="SVGID_41_" gradientUnits="userSpaceOnUse" x1="402" y1="412" x2="454" y2="412">
	<stop  offset="0" style="stop-color:#302926;stop-opacity:0"/>
	<stop  offset="0.3978" style="stop-color:#2C2623;stop-opacity:0.0597"/>
	<stop  offset="0.8093" style="stop-color:#1F1D1C;stop-opacity:0.1214"/>
	<stop  offset="1" style="stop-color:#171717;stop-opacity:0.15"/>
</linearGradient>
<rect x="402" y="410" fill="url(#SVGID_41_)" width="52" height="4"/>
<linearGradient id="SVGID_42_" gradientUnits="userSpaceOnUse" x1="361.125" y1="402" x2="294.7499" y2="402">
	<stop  offset="0" style="stop-color:#000000;stop-opacity:0.1"/>
	<stop  offset="0.2384" style="stop-color:#0F0D0C;stop-opacity:0.0762"/>
	<stop  offset="0.71" style="stop-color:#27211F;stop-opacity:0.029"/>
	<stop  offset="1" style="stop-color:#302926;stop-opacity:0"/>
</linearGradient>
<rect x="296" y="394" fill="url(#SVGID_42_)" width="64" height="16"/>
<linearGradient id="SVGID_43_" gradientUnits="userSpaceOnUse" x1="255" y1="256.1628" x2="255" y2="345.5651">
	<stop  offset="0" style="stop-color:#FF2900;stop-opacity:0.17"/>
	<stop  offset="0.0932" style="stop-color:#F82F08;stop-opacity:0.1542"/>
	<stop  offset="0.3551" style="stop-color:#E93B19;stop-opacity:0.1096"/>
	<stop  offset="0.6423" style="stop-color:#E04323;stop-opacity:0.0608"/>
	<stop  offset="1" style="stop-color:#DD4526;stop-opacity:0"/>
</linearGradient>
<path fill="url(#SVGID_43_)" d="M324,259.812V344H186l136.462-85.042C323.132,258.541,324,259.022,324,259.812z"/>
</svg>
