<?xml version="1.0" encoding="iso-8859-1"?>
<!-- Generator: Adobe Illustrator 22.1.0, SVG Export Plug-In . SVG Version: 6.00 Build 0)  -->
<svg version="1.1" id="uploading" xmlns="http://www.w3.org/2000/svg" xmlns:xlink="http://www.w3.org/1999/xlink" x="0px" y="0px"
	 viewBox="0 0 800 600" enable-background="new 0 0 800 600" xml:space="preserve">
<path fill="#E8E8E8" d="M373.242,169.465l1.388,4.481c0.211,0.68,0.743,1.213,1.423,1.423l4.481,1.388c0.4,0.124,0.4,0.691,0,0.815
	l-4.481,1.388c-0.68,0.211-1.213,0.743-1.423,1.423l-1.388,4.481c-0.124,0.4-0.691,0.4-0.815,0l-1.388-4.481
	c-0.211-0.68-0.743-1.213-1.423-1.423l-4.481-1.388c-0.4-0.124-0.4-0.691,0-0.815l4.481-1.388c0.68-0.211,1.213-0.743,1.423-1.423
	l1.388-4.481C372.552,169.065,373.118,169.065,373.242,169.465z"/>
<linearGradient id="SVGID_1_" gradientUnits="userSpaceOnUse" x1="232" y1="107.9996" x2="232" y2="336.1906">
	<stop  offset="0" style="stop-color:#76E5FF"/>
	<stop  offset="0.0862" style="stop-color:#97EBFF"/>
	<stop  offset="0.188" style="stop-color:#B7F1FF"/>
	<stop  offset="0.2988" style="stop-color:#D2F6FF"/>
	<stop  offset="0.4201" style="stop-color:#E6FAFF"/>
	<stop  offset="0.5572" style="stop-color:#F4FDFF"/>
	<stop  offset="0.7235" style="stop-color:#FCFFFF"/>
	<stop  offset="1" style="stop-color:#FFFFFF"/>
</linearGradient>
<circle fill="url(#SVGID_1_)" cx="232" cy="226" r="112"/>
<linearGradient id="SVGID_2_" gradientUnits="userSpaceOnUse" x1="120" y1="490" x2="680" y2="490">
	<stop  offset="0" style="stop-color:#EDEDED"/>
	<stop  offset="1" style="stop-color:#DDDDDD"/>
</linearGradient>
<rect x="120" y="486" fill="url(#SVGID_2_)" width="560" height="8"/>
<path fill="#E8E8E8" d="M173.242,301.465l1.388,4.481c0.211,0.68,0.743,1.213,1.423,1.423l4.481,1.388c0.4,0.124,0.4,0.691,0,0.815
	l-4.481,1.388c-0.68,0.211-1.213,0.743-1.423,1.423l-1.388,4.481c-0.124,0.4-0.691,0.4-0.815,0l-1.388-4.481
	c-0.211-0.68-0.743-1.213-1.423-1.423l-4.481-1.388c-0.4-0.124-0.4-0.691,0-0.815l4.481-1.388c0.68-0.211,1.213-0.743,1.423-1.423
	l1.388-4.481C172.552,301.065,173.118,301.065,173.242,301.465z"/>
<linearGradient id="SVGID_3_" gradientUnits="userSpaceOnUse" x1="683.4815" y1="333" x2="543.697" y2="333">
	<stop  offset="0" style="stop-color:#302926;stop-opacity:0"/>
	<stop  offset="0.3811" style="stop-color:#161312;stop-opacity:0.0267"/>
	<stop  offset="0.7318" style="stop-color:#060505;stop-opacity:0.0512"/>
	<stop  offset="1" style="stop-color:#000000;stop-opacity:0.07"/>
</linearGradient>
<path fill="url(#SVGID_3_)" d="M672,298v56h-64c-4.42,0-8,3.58-8,8v6h-52v-16c0-8.84,7.16-16,16-16h16c4.42,0,8-3.58,8-8v-14
	c0-8.84,7.16-16,16-16H672z"/>
<linearGradient id="SVGID_4_" gradientUnits="userSpaceOnUse" x1="535.5" y1="410" x2="614.1019" y2="410">
	<stop  offset="0" style="stop-color:#FCE08E"/>
	<stop  offset="1" style="stop-color:#FFB92D"/>
</linearGradient>
<path fill="url(#SVGID_4_)" d="M612,450c0,2.209-1.791,4-4,4h-68c-2.209,0-4-1.791-4-4v-80c0-2.209,1.791-4,4-4h68
	c2.209,0,4,1.791,4,4V450z"/>
<linearGradient id="SVGID_5_" gradientUnits="userSpaceOnUse" x1="644" y1="414" x2="611.2261" y2="414">
	<stop  offset="0" style="stop-color:#FCE08E"/>
	<stop  offset="1" style="stop-color:#FFB92D"/>
</linearGradient>
<path fill="url(#SVGID_5_)" d="M642,414c0,12.98-9.56,23.76-22,25.7c-1.32,0.2-2.64,0.3-4,0.3h-4v-12h4c1.38,0,2.74-0.2,4-0.58
	c5.78-1.72,10-7.08,10-13.42c0-6.34-4.22-11.7-10-13.42c-1.26-0.38-2.62-0.58-4-0.58h-4v-12h4c1.36,0,2.68,0.1,4,0.3
	C632.44,390.24,642,401.02,642,414z"/>
<linearGradient id="SVGID_6_" gradientUnits="userSpaceOnUse" x1="606" y1="435.2222" x2="606" y2="365.2222">
	<stop  offset="0" style="stop-color:#632926;stop-opacity:0"/>
	<stop  offset="1" style="stop-color:#BB4D00;stop-opacity:0.1"/>
</linearGradient>
<path fill="url(#SVGID_6_)" d="M600,436h12v-66c0-2.209-1.791-4-4-4h-8V436z"/>
<linearGradient id="SVGID_7_" gradientUnits="userSpaceOnUse" x1="484.6667" y1="470" x2="658.0051" y2="470">
	<stop  offset="0" style="stop-color:#FFBB45"/>
	<stop  offset="0.5" style="stop-color:#FF7E45"/>
	<stop  offset="0.5926" style="stop-color:#FF7B4B"/>
	<stop  offset="0.7139" style="stop-color:#FD725B"/>
	<stop  offset="0.851" style="stop-color:#FC6376"/>
	<stop  offset="0.9988" style="stop-color:#F94E9C"/>
	<stop  offset="1" style="stop-color:#F94E9C"/>
</linearGradient>
<path fill="url(#SVGID_7_)" d="M494,462v16h162c1.1,0,2,0.9,2,2v4c0,1.1-0.9,2-2,2H494c-4.42,0-8-3.58-8-8v-16c0-4.42,3.58-8,8-8
	h162c1.1,0,2,0.9,2,2v4c0,1.1-0.9,2-2,2H494z"/>
<linearGradient id="SVGID_8_" gradientUnits="userSpaceOnUse" x1="656" y1="470" x2="491.8646" y2="470">
	<stop  offset="0" style="stop-color:#FFFFFF"/>
	<stop  offset="0.5523" style="stop-color:#F6F6F6"/>
	<stop  offset="1" style="stop-color:#EBEBEB"/>
</linearGradient>
<rect x="494" y="462" fill="url(#SVGID_8_)" width="160" height="16"/>
<linearGradient id="SVGID_9_" gradientUnits="userSpaceOnUse" x1="574" y1="445.6667" x2="574" y2="454.5251">
	<stop  offset="0" style="stop-color:#632926;stop-opacity:0"/>
	<stop  offset="1" style="stop-color:#BB4D00;stop-opacity:0.1"/>
</linearGradient>
<path fill="url(#SVGID_9_)" d="M612,446v4c0,2.2-1.8,4-4,4h-68c-2.2,0-4-1.8-4-4v-4H612z"/>
<linearGradient id="SVGID_10_" gradientUnits="userSpaceOnUse" x1="620.25" y1="394.2898" x2="611.4857" y2="394.2898">
	<stop  offset="0" style="stop-color:#302926;stop-opacity:0"/>
	<stop  offset="1" style="stop-color:#BB4D00;stop-opacity:0.1"/>
</linearGradient>
<path fill="url(#SVGID_10_)" d="M620,388.3v12.28c-1.26-0.38-2.62-0.58-4-0.58h-4v-12h4C617.36,388,618.68,388.1,620,388.3z"/>
<linearGradient id="SVGID_11_" gradientUnits="userSpaceOnUse" x1="620.625" y1="433.7098" x2="611.4863" y2="433.7098">
	<stop  offset="0" style="stop-color:#302926;stop-opacity:0"/>
	<stop  offset="1" style="stop-color:#BB4D00;stop-opacity:0.1"/>
</linearGradient>
<path fill="url(#SVGID_11_)" d="M616,428c1.38,0,2.74-0.2,4-0.58v12.28c-1.32,0.2-2.64,0.3-4,0.3h-4v-12H616z"/>
<linearGradient id="SVGID_12_" gradientUnits="userSpaceOnUse" x1="370" y1="209.2632" x2="370" y2="390.8233">
	<stop  offset="0" style="stop-color:#707E9B"/>
	<stop  offset="0.0934" style="stop-color:#6A7691"/>
	<stop  offset="0.4902" style="stop-color:#515869"/>
	<stop  offset="0.8062" style="stop-color:#424551"/>
	<stop  offset="1" style="stop-color:#3C3E48"/>
</linearGradient>
<path fill="url(#SVGID_12_)" d="M520,418c0,6.627-5.373,12-12,12H232c-6.627,0-12-5.373-12-12V226c0-6.627,5.373-12,12-12h276
	c6.627,0,12,5.373,12,12V418z"/>
<linearGradient id="SVGID_13_" gradientUnits="userSpaceOnUse" x1="220" y1="422" x2="520" y2="422">
	<stop  offset="0" style="stop-color:#EBEBEB"/>
	<stop  offset="0.3042" style="stop-color:#E2E2E2"/>
	<stop  offset="0.7987" style="stop-color:#CACACA"/>
	<stop  offset="1" style="stop-color:#BEBEBE"/>
</linearGradient>
<path fill="url(#SVGID_13_)" d="M508,438H232c-6.627,0-12-5.373-12-12v-20h300v20C520,432.627,514.627,438,508,438z"/>
<linearGradient id="SVGID_14_" gradientUnits="userSpaceOnUse" x1="370.12" y1="484" x2="370.12" y2="437.6104">
	<stop  offset="0" style="stop-color:#EBEBEB"/>
	<stop  offset="1" style="stop-color:#BEBEBE"/>
</linearGradient>
<path fill="url(#SVGID_14_)" d="M452,486H288.24c0-4,1.46-6.1,3.84-8c1.12-0.9,2.46-1.56,3.92-1.94l11.26-2.06l26.1-4.78
	c3.84-0.7,6.64-4.06,6.64-7.96V448c0-5.52-4.48-10-10-10h80c-5.52,0-10,4.48-10,10v13.26c0,3.9,2.8,7.24,6.64,7.94l26.3,4.8
	l11.3,2.06c1.46,0.38,2.8,1.04,3.92,1.94C450.54,479.9,452,482,452,486z"/>
<linearGradient id="SVGID_15_" gradientUnits="userSpaceOnUse" x1="370" y1="450.5" x2="370" y2="438">
	<stop  offset="0" style="stop-color:#302926;stop-opacity:0"/>
	<stop  offset="1" style="stop-color:#000000;stop-opacity:0.05"/>
</linearGradient>
<path fill="url(#SVGID_15_)" d="M410,438c-5.52,0-10,4.48-10,10v2h-60v-2c0-5.52-4.48-10-10-10H410z"/>
<path fill="#FFFFFF" d="M508,406H232V228c0-1.105,0.895-2,2-2h272c1.105,0,2,0.895,2,2V406z"/>
<linearGradient id="SVGID_16_" gradientUnits="userSpaceOnUse" x1="232" y1="238" x2="508" y2="238">
	<stop  offset="0" style="stop-color:#FFFFF0"/>
	<stop  offset="1" style="stop-color:#EBEBEB"/>
</linearGradient>
<path fill="url(#SVGID_16_)" d="M508,250H232v-22c0-1.105,0.895-2,2-2h272c1.105,0,2,0.895,2,2V250z"/>
<linearGradient id="SVGID_17_" gradientUnits="userSpaceOnUse" x1="248" y1="233.7496" x2="248" y2="242.0034">
	<stop  offset="0" style="stop-color:#FF7955"/>
	<stop  offset="0.4556" style="stop-color:#FF705E"/>
	<stop  offset="1" style="stop-color:#FF5F6F"/>
</linearGradient>
<circle fill="url(#SVGID_17_)" cx="248" cy="238" r="4"/>
<linearGradient id="SVGID_18_" gradientUnits="userSpaceOnUse" x1="268" y1="233.3746" x2="268" y2="242.1282">
	<stop  offset="0" style="stop-color:#FFE552"/>
	<stop  offset="1" style="stop-color:#FFAE39"/>
</linearGradient>
<circle fill="url(#SVGID_18_)" cx="268" cy="238" r="4"/>
<linearGradient id="SVGID_19_" gradientUnits="userSpaceOnUse" x1="288" y1="233.8746" x2="288" y2="242.0018">
	<stop  offset="0" style="stop-color:#00E35E"/>
	<stop  offset="1" style="stop-color:#00B248"/>
</linearGradient>
<circle fill="url(#SVGID_19_)" cx="288" cy="238" r="4"/>
<linearGradient id="SVGID_20_" gradientUnits="userSpaceOnUse" x1="317.75" y1="315.9998" x2="426.2546" y2="315.9998">
	<stop  offset="0" style="stop-color:#A4EEFF"/>
	<stop  offset="0.1299" style="stop-color:#9BEBFF"/>
	<stop  offset="0.3418" style="stop-color:#83E4FF"/>
	<stop  offset="0.6092" style="stop-color:#5BD8FF"/>
	<stop  offset="0.9189" style="stop-color:#25C7FF"/>
	<stop  offset="1" style="stop-color:#15C2FF"/>
</linearGradient>
<path fill="url(#SVGID_20_)" d="M412,322c-0.351,0-0.696,0.027-1.041,0.053c3.163-4.188,5.041-9.4,5.041-15.053
	c0-13.807-11.193-25-25-25c-10.855,0-20.09,6.92-23.545,16.587C364.015,295.136,359.257,293,354,293c-10.493,0-19,8.507-19,19
	c0,2.153,0.375,4.214,1.035,6.143C335.367,318.058,334.691,318,334,318c-8.837,0-16,7.164-16,16s7.163,16,16,16h78
	c7.732,0,14-6.268,14-14S419.732,322,412,322z"/>
<linearGradient id="SVGID_21_" gradientUnits="userSpaceOnUse" x1="403.4983" y1="286.7496" x2="403.4983" y2="309.8161">
	<stop  offset="0" style="stop-color:#FFFFED;stop-opacity:0"/>
	<stop  offset="0.4031" style="stop-color:#FFFFF6;stop-opacity:0.1612"/>
	<stop  offset="1" style="stop-color:#FFFFFF;stop-opacity:0.4"/>
</linearGradient>
<path fill="url(#SVGID_21_)" d="M410,309c-1.104,0-2-0.896-2-2c0-7.338-4.675-13.823-11.634-16.136
	c-1.048-0.349-1.615-1.48-1.267-2.529c0.349-1.049,1.481-1.613,2.529-1.267C406.224,289.925,412,297.935,412,307
	C412,308.104,411.104,309,410,309z"/>
<linearGradient id="SVGID_22_" gradientUnits="userSpaceOnUse" x1="316" y1="370" x2="441.081" y2="370">
	<stop  offset="0" style="stop-color:#FFFFED"/>
	<stop  offset="0.4889" style="stop-color:#E9E9E1"/>
	<stop  offset="1" style="stop-color:#D7D7D7"/>
</linearGradient>
<path fill="url(#SVGID_22_)" d="M444,372c0,1.105-0.895,2-2,2H298c-1.105,0-2-0.895-2-2v-4c0-1.105,0.895-2,2-2h144
	c1.105,0,2,0.895,2,2V372z"/>
<linearGradient id="SVGID_23_" gradientUnits="userSpaceOnUse" x1="295.5213" y1="370" x2="386.326" y2="370">
	<stop  offset="0" style="stop-color:#FFBB45"/>
	<stop  offset="0.5" style="stop-color:#FF7E45"/>
	<stop  offset="0.5926" style="stop-color:#FF7B4B"/>
	<stop  offset="0.7139" style="stop-color:#FD725B"/>
	<stop  offset="0.851" style="stop-color:#FC6376"/>
	<stop  offset="0.9988" style="stop-color:#F94E9C"/>
	<stop  offset="1" style="stop-color:#F94E9C"/>
</linearGradient>
<path fill="url(#SVGID_23_)" d="M386,372c0,1.105-0.895,2-2,2h-86c-1.105,0-2-0.895-2-2v-4c0-1.105,0.895-2,2-2h86
	c1.105,0,2,0.895,2,2V372z"/>
<linearGradient id="SVGID_24_" gradientUnits="userSpaceOnUse" x1="370.12" y1="473.6667" x2="370.12" y2="487.0042">
	<stop  offset="0" style="stop-color:#302926;stop-opacity:0"/>
	<stop  offset="1" style="stop-color:#000000;stop-opacity:0.07"/>
</linearGradient>
<path fill="url(#SVGID_24_)" d="M452,486H288.24c0-4,1.46-6.1,3.84-8c1.12-0.9,2.46-1.56,3.92-1.94l11.26-2.06h125.68l11.3,2.06
	c1.46,0.38,2.8,1.04,3.92,1.94C450.54,479.9,452,482,452,486z"/>
<linearGradient id="SVGID_25_" gradientUnits="userSpaceOnUse" x1="214" y1="337" x2="214" y2="487.3633">
	<stop  offset="0" style="stop-color:#A4EEFF"/>
	<stop  offset="0.1299" style="stop-color:#9BEBFF"/>
	<stop  offset="0.3418" style="stop-color:#83E4FF"/>
	<stop  offset="0.6092" style="stop-color:#5BD8FF"/>
	<stop  offset="0.9189" style="stop-color:#25C7FF"/>
	<stop  offset="1" style="stop-color:#15C2FF"/>
</linearGradient>
<path fill="url(#SVGID_25_)" d="M268,341.46v141.08c0,1.92-1.54,3.46-3.46,3.46H163.46c-1.92,0-3.46-1.54-3.46-3.46V342
	c0-2.2,1.8-4,4-4h100.54C266.46,338,268,339.54,268,341.46z"/>
<linearGradient id="SVGID_26_" gradientUnits="userSpaceOnUse" x1="146.9993" y1="361.9996" x2="165" y2="361.9996">
	<stop  offset="0" style="stop-color:#2ECAFF"/>
	<stop  offset="0.1841" style="stop-color:#2FC1FF"/>
	<stop  offset="0.4844" style="stop-color:#33A9FF"/>
	<stop  offset="0.8612" style="stop-color:#3981FF"/>
	<stop  offset="1" style="stop-color:#3B71FF"/>
</linearGradient>
<path fill="url(#SVGID_26_)" d="M150.002,373c-1.105,0-2.188-0.61-2.72-1.727c-0.652-1.37-0.065-3.024,1.198-3.866l5.625-3.75
	c1.183-0.789,1.183-2.527,0-3.315l-5.769-3.846c-1.379-0.92-1.752-2.781-0.832-4.16s2.783-1.752,4.16-0.832l12,8
	c0.834,0.557,1.336,1.492,1.336,2.496s-0.502,1.939-1.336,2.496l-12,8C151.152,372.838,150.574,373,150.002,373z"/>
<linearGradient id="SVGID_27_" gradientUnits="userSpaceOnUse" x1="157.5" y1="362" x2="270.5467" y2="362">
	<stop  offset="0" style="stop-color:#2ECAFF"/>
	<stop  offset="1" style="stop-color:#3B7BFF"/>
</linearGradient>
<path fill="url(#SVGID_27_)" d="M270,368c0,1.105-0.895,2-2,2H160c-1.105,0-2-0.895-2-2v-12c0-1.105,0.895-2,2-2h108
	c1.105,0,2,0.895,2,2V368z"/>
<linearGradient id="SVGID_28_" gradientUnits="userSpaceOnUse" x1="183" y1="404.6667" x2="183" y2="454">
	<stop  offset="0" style="stop-color:#4CD6E5"/>
	<stop  offset="0.232" style="stop-color:#4BCDE6"/>
	<stop  offset="0.6102" style="stop-color:#47B5EA"/>
	<stop  offset="1" style="stop-color:#4295EF"/>
</linearGradient>
<path fill="url(#SVGID_28_)" d="M209.328,432.054c-1.967,0.32-3.328,2.167-3.328,4.16V444c0,1.104-0.895,2-2,2h-44v-40h-4v0.02
	c-0.222,0-0.443-0.003-0.672,0.035c-1.967,0.32-3.328,2.167-3.328,4.16V450c0,2.209,1.791,4,4,4h54c2.209,0,4-1.791,4-4v-14
	C214,433.57,211.834,431.647,209.328,432.054z"/>
<linearGradient id="SVGID_29_" gradientUnits="userSpaceOnUse" x1="245" y1="404.6667" x2="245" y2="454">
	<stop  offset="0" style="stop-color:#4CD6E5"/>
	<stop  offset="0.232" style="stop-color:#4BCDE6"/>
	<stop  offset="0.6102" style="stop-color:#47B5EA"/>
	<stop  offset="1" style="stop-color:#4295EF"/>
</linearGradient>
<path fill="url(#SVGID_29_)" d="M272,406.02V406h-4v40h-44c-1.105,0-2-0.896-2-2v-8c0-2.429-2.166-4.353-4.672-3.945
	c-1.967,0.32-3.328,2.167-3.328,4.16V450c0,2.209,1.791,4,4,4h54c2.209,0,4-1.791,4-4v-40C276,407.792,274.207,406.022,272,406.02z"
	/>
<linearGradient id="SVGID_30_" gradientUnits="userSpaceOnUse" x1="266" y1="362" x2="162.7473" y2="362">
	<stop  offset="0" style="stop-color:#FFFFED;stop-opacity:0.05"/>
	<stop  offset="0.4031" style="stop-color:#FFFFF6;stop-opacity:0.0903"/>
	<stop  offset="1" style="stop-color:#FFFFFF;stop-opacity:0.15"/>
</linearGradient>
<path fill="url(#SVGID_30_)" d="M266,362c0,1.105-0.895,2-2,2H164c-1.105,0-2-0.895-2-2l0,0c0-1.105,0.895-2,2-2h100
	C265.105,360,266,360.895,266,362L266,362z"/>
<linearGradient id="SVGID_31_" gradientUnits="userSpaceOnUse" x1="234.0003" y1="390.6663" x2="234.0003" y2="401.6978">
	<stop  offset="0" style="stop-color:#259CE5"/>
	<stop  offset="0.018" style="stop-color:#259BE4"/>
	<stop  offset="0.6261" style="stop-color:#2183D3"/>
	<stop  offset="1" style="stop-color:#1F7ACC"/>
</linearGradient>
<path fill="url(#SVGID_31_)" d="M234.002,401.004c-4.776,0-9.097-2.83-11.005-7.209c-0.441-1.012,0.021-2.191,1.034-2.633
	c1.012-0.441,2.191,0.023,2.632,1.035c1.273,2.92,4.154,4.807,7.339,4.807c3.183,0,6.062-1.883,7.335-4.799
	c0.443-1.014,1.622-1.48,2.634-1.031c1.012,0.441,1.475,1.621,1.032,2.633C243.092,398.179,238.774,401.004,234.002,401.004z"/>
<linearGradient id="SVGID_32_" gradientUnits="userSpaceOnUse" x1="194.0003" y1="390.6663" x2="194.0003" y2="401.6978">
	<stop  offset="0" style="stop-color:#259CE5"/>
	<stop  offset="0.018" style="stop-color:#259BE4"/>
	<stop  offset="0.6261" style="stop-color:#2183D3"/>
	<stop  offset="1" style="stop-color:#1F7ACC"/>
</linearGradient>
<path fill="url(#SVGID_32_)" d="M194.002,401.004c-4.776,0-9.097-2.83-11.005-7.209c-0.441-1.012,0.021-2.191,1.034-2.633
	s2.191,0.023,2.632,1.035c1.273,2.92,4.154,4.807,7.339,4.807c3.183,0,6.062-1.883,7.335-4.799c0.443-1.014,1.621-1.48,2.634-1.031
	c1.012,0.441,1.475,1.621,1.032,2.633C203.092,398.179,198.774,401.004,194.002,401.004z"/>
<linearGradient id="SVGID_33_" gradientUnits="userSpaceOnUse" x1="214" y1="406.125" x2="214" y2="416.5448">
	<stop  offset="0" style="stop-color:#259CE5"/>
	<stop  offset="0.018" style="stop-color:#259BE4"/>
	<stop  offset="0.6261" style="stop-color:#2183D3"/>
	<stop  offset="1" style="stop-color:#1F7ACC"/>
</linearGradient>
<path fill="url(#SVGID_33_)" d="M224,406c0,4-1.72,6.44-4.34,8.26c-1.62,1.1-3.56,1.74-5.66,1.74s-4.04-0.64-5.66-1.74
	C205.72,412.44,204,410,204,406H224z"/>
<rect x="204" y="404" fill="#FFFFFF" width="20" height="2"/>
<path opacity="0.2" fill="#993E00" d="M219.66,414.26c-1.62,1.1-3.56,1.74-5.66,1.74s-4.04-0.64-5.66-1.74
	c0.8-1.84,3.04-2.26,5.66-2.26S218.86,412.42,219.66,414.26z"/>
<linearGradient id="SVGID_34_" gradientUnits="userSpaceOnUse" x1="242.6667" y1="442.9998" x2="214.1619" y2="442.9998">
	<stop  offset="0" style="stop-color:#302977;stop-opacity:0"/>
	<stop  offset="1" style="stop-color:#00008D;stop-opacity:0.1"/>
</linearGradient>
<path fill="url(#SVGID_34_)" d="M242,454h-24c-2.209,0-4-1.791-4-4v-13.786c0-1.993,1.361-3.84,3.328-4.16
	C219.834,431.647,222,433.57,222,436v8c0,1.105,0.896,2,2,2h18L242,454z"/>
<linearGradient id="SVGID_35_" gradientUnits="userSpaceOnUse" x1="214" y1="374" x2="214" y2="369.9894">
	<stop  offset="0" style="stop-color:#302977;stop-opacity:0"/>
	<stop  offset="1" style="stop-color:#00008D;stop-opacity:0.1"/>
</linearGradient>
<rect x="160" y="370" fill="url(#SVGID_35_)" width="108" height="4"/>
<linearGradient id="SVGID_36_" gradientUnits="userSpaceOnUse" x1="214" y1="478" x2="214" y2="486.75">
	<stop  offset="0" style="stop-color:#302977;stop-opacity:0"/>
	<stop  offset="1" style="stop-color:#00008D;stop-opacity:0.07"/>
</linearGradient>
<path fill="url(#SVGID_36_)" d="M268,478v4.54c0,1.92-1.54,3.46-3.46,3.46H163.46c-1.92,0-3.46-1.54-3.46-3.46V478H268z"/>
<linearGradient id="SVGID_37_" gradientUnits="userSpaceOnUse" x1="526" y1="406" x2="526" y2="268">
	<stop  offset="0" style="stop-color:#FFDB15;stop-opacity:0"/>
	<stop  offset="1" style="stop-color:#FFC900;stop-opacity:0.25"/>
</linearGradient>
<path fill="url(#SVGID_37_)" d="M588,268v60c0,4.42-3.58,8-8,8h-16c-8.84,0-16,7.16-16,16v14h40v40H464V268H588z"/>
<linearGradient id="SVGID_38_" gradientUnits="userSpaceOnUse" x1="643.8281" y1="153.1768" x2="578.4948" y2="205.1768">
	<stop  offset="0" style="stop-color:#FFCB5F"/>
	<stop  offset="0.7587" style="stop-color:#FFC25F"/>
	<stop  offset="1" style="stop-color:#FFBE5F"/>
</linearGradient>
<path fill="url(#SVGID_38_)" d="M644.828,159.172l-2.001-2.001c-1.407-1.407-3.636-1.566-5.228-0.372l-5.76,4.32l-2.511-3.347
	c-1.196-1.594-3.394-2.256-5.16-1.331c-2.249,1.177-2.827,4.016-1.368,5.959l3.342,4.456c0.66,0.88,0.496,2.126-0.369,2.805
	l-42.097,33.077c-1.539,1.209-2.147,3.368-1.234,5.098c0.749,1.417,2.144,2.164,3.558,2.164c0.865,0,1.736-0.279,2.469-0.854l56-44
	c0.9-0.707,1.453-1.765,1.521-2.907C646.061,161.096,645.637,159.98,644.828,159.172z"/>
<linearGradient id="SVGID_39_" gradientUnits="userSpaceOnUse" x1="584.0103" y1="136.0005" x2="607.98" y2="136.0005">
	<stop  offset="0" style="stop-color:#FF5E48"/>
	<stop  offset="0.0475" style="stop-color:#FD6444"/>
	<stop  offset="0.1984" style="stop-color:#F86F3C"/>
	<stop  offset="0.4105" style="stop-color:#F57637"/>
	<stop  offset="1" style="stop-color:#F47836"/>
</linearGradient>
<path fill="url(#SVGID_39_)" d="M605.933,142.491l-7.723-4.827c-1.23-0.769-1.23-2.56,0-3.328l7.713-4.821
	c1.777-1.111,2.597-3.402,1.667-5.28c-1.067-2.155-3.723-2.864-5.709-1.628l-16,10c-0.031,0.02-0.055,0.046-0.085,0.066
	c-0.114,0.075-0.218,0.164-0.324,0.251c-0.102,0.084-0.206,0.165-0.298,0.257c-0.082,0.082-0.153,0.175-0.229,0.265
	c-0.097,0.116-0.195,0.231-0.277,0.357c-0.018,0.027-0.042,0.049-0.06,0.077c-0.045,0.071-0.07,0.149-0.11,0.223
	c-0.07,0.129-0.139,0.258-0.194,0.394c-0.048,0.118-0.084,0.238-0.12,0.359c-0.037,0.124-0.074,0.247-0.099,0.375
	c-0.025,0.13-0.039,0.259-0.051,0.389c-0.012,0.126-0.023,0.252-0.023,0.38c0,0.128,0.011,0.254,0.023,0.38
	c0.012,0.13,0.026,0.259,0.051,0.389c0.025,0.128,0.062,0.251,0.099,0.375c0.036,0.121,0.072,0.241,0.12,0.359
	c0.055,0.136,0.124,0.265,0.194,0.394c0.04,0.073,0.065,0.151,0.11,0.223c0.015,0.023,0.037,0.04,0.052,0.063
	c0.17,0.262,0.366,0.509,0.6,0.729c0.033,0.031,0.073,0.053,0.107,0.083c0.162,0.142,0.327,0.281,0.515,0.398l16,10
	c0.658,0.412,1.391,0.607,2.115,0.607c1.46,0,2.883-0.798,3.597-2.241C608.521,145.885,607.706,143.599,605.933,142.491z"/>
<linearGradient id="SVGID_40_" gradientUnits="userSpaceOnUse" x1="406.0144" y1="182.9982" x2="470.0015" y2="182.9982">
	<stop  offset="0" style="stop-color:#FFCB5F"/>
	<stop  offset="0.7587" style="stop-color:#FFC25F"/>
	<stop  offset="1" style="stop-color:#FFBE5F"/>
</linearGradient>
<path fill="url(#SVGID_40_)" d="M469.58,207.84c-0.76,1.42-2.16,2.16-3.56,2.16c-0.7,0-1.4-0.18-2.02-0.56
	c-0.16-0.08-0.32-0.18-0.46-0.3l-56-44c-0.9-0.7-1.44-1.76-1.52-2.9c-0.06-1.14,0.36-2.26,1.16-3.06l2-2
	c1.42-1.42,3.64-1.58,5.24-0.38l5.76,4.32l2.5-3.34c1.2-1.6,3.4-2.26,5.16-1.34c2.26,1.18,2.84,4.02,1.38,5.96l-3.34,4.46
	c-0.66,0.88-0.5,2.12,0.36,2.8L464,199.32l4.34,3.42C469.88,203.94,470.48,206.1,469.58,207.84z"/>
<linearGradient id="SVGID_41_" gradientUnits="userSpaceOnUse" x1="526" y1="110" x2="526" y2="286.0454">
	<stop  offset="0" style="stop-color:#FFE67B"/>
	<stop  offset="0.1915" style="stop-color:#FEE172"/>
	<stop  offset="0.5065" style="stop-color:#FDD459"/>
	<stop  offset="0.904" style="stop-color:#FABE31"/>
	<stop  offset="1" style="stop-color:#F9B826"/>
</linearGradient>
<path fill="url(#SVGID_41_)" d="M588,274c0,2.209-1.791,4-4,4H468c-2.209,0-4-1.791-4-4V110c0-2.209,1.791-4,4-4h116
	c2.209,0,4,1.791,4,4V274z"/>
<linearGradient id="SVGID_42_" gradientUnits="userSpaceOnUse" x1="526" y1="200.8571" x2="526" y2="267.2856">
	<stop  offset="0" style="stop-color:#FFDB47;stop-opacity:0"/>
	<stop  offset="0.3291" style="stop-color:#FFC330;stop-opacity:0.1316"/>
	<stop  offset="0.7444" style="stop-color:#FFAB19;stop-opacity:0.2978"/>
	<stop  offset="1" style="stop-color:#FFA211;stop-opacity:0.4"/>
</linearGradient>
<path fill="url(#SVGID_42_)" d="M576,264c0,1.105-0.895,2-2,2h-96c-1.105,0-2-0.895-2-2v-60c0-1.105,0.895-2,2-2h96
	c1.105,0,2,0.895,2,2V264z"/>
<linearGradient id="SVGID_43_" gradientUnits="userSpaceOnUse" x1="593" y1="136" x2="459.2491" y2="136">
	<stop  offset="0" style="stop-color:#FF5E48"/>
	<stop  offset="1" style="stop-color:#F47836"/>
</linearGradient>
<path fill="url(#SVGID_43_)" d="M592,144c0,1.105-0.895,2-2,2H462c-1.105,0-2-0.895-2-2v-16c0-1.105,0.895-2,2-2h128
	c1.105,0,2,0.895,2,2V144z"/>
<circle fill="#FFFFFF" cx="548" cy="164" r="10"/>
<linearGradient id="SVGID_44_" gradientUnits="userSpaceOnUse" x1="548" y1="159.625" x2="548" y2="168.1272">
	<stop  offset="0" style="stop-color:#4C4B4B"/>
	<stop  offset="1" style="stop-color:#3A3838"/>
</linearGradient>
<path fill="url(#SVGID_44_)" d="M552,163.82V164c0,2.2-1.8,4-4,4s-4-1.8-4-4c0-2.2,1.8-4,4-4h0.18c-0.12,0-0.18,0.64-0.18,1
	c0,1.66,1.34,3,3,3C551.36,164,551.68,163.94,552,163.82z"/>
<circle fill="#FFFFFF" cx="504" cy="164" r="10"/>
<linearGradient id="SVGID_45_" gradientUnits="userSpaceOnUse" x1="504" y1="159.625" x2="504" y2="168.1272">
	<stop  offset="0" style="stop-color:#4C4B4B"/>
	<stop  offset="1" style="stop-color:#3A3838"/>
</linearGradient>
<path fill="url(#SVGID_45_)" d="M508,163.82V164c0,2.2-1.8,4-4,4s-4-1.8-4-4c0-2.2,1.8-4,4-4h0.18c-0.12,0-0.18,0.64-0.18,1
	c0,1.66,1.34,3,3,3C507.36,164,507.68,163.94,508,163.82z"/>
<linearGradient id="SVGID_46_" gradientUnits="userSpaceOnUse" x1="526" y1="177.3333" x2="526" y2="190.9997">
	<stop  offset="0" style="stop-color:#FCBA3A"/>
	<stop  offset="1" style="stop-color:#FCAD3A"/>
</linearGradient>
<path fill="url(#SVGID_46_)" d="M538,178c0,4-1.78,7.2-4.54,9.4c-2.04,1.64-4.64,2.6-7.46,2.6s-5.42-0.96-7.46-2.6
	c-2.76-2.2-4.54-5.4-4.54-9.4H538z"/>
<rect x="514" y="176" fill="#FFFFFF" width="24" height="4"/>
<path opacity="0.2" fill="#993E00" d="M533.46,187.4c-2.04,1.64-4.64,2.6-7.46,2.6s-5.42-0.96-7.46-2.6c1.14-2.46,4.06-3.4,7.46-3.4
	S532.32,184.94,533.46,187.4z"/>
<linearGradient id="SVGID_47_" gradientUnits="userSpaceOnUse" x1="587.5" y1="136" x2="466.499" y2="136">
	<stop  offset="0" style="stop-color:#FFFFED;stop-opacity:0.05"/>
	<stop  offset="0.4031" style="stop-color:#FFFFF6;stop-opacity:0.0903"/>
	<stop  offset="1" style="stop-color:#FFFFFF;stop-opacity:0.15"/>
</linearGradient>
<path fill="url(#SVGID_47_)" d="M584,138c0,1.105-0.895,2-2,2H470c-1.105,0-2-0.895-2-2v-4c0-1.105,0.895-2,2-2h112
	c1.105,0,2,0.895,2,2V138z"/>
<path fill="#FF9831" d="M561.18,254h-70.36c-1.78,0-2.68-2.14-1.42-3.4l14.76-14.76c1.58-1.58,4.1-1.58,5.68,0L518,244l16.16-16.16
	c1.58-1.58,4.1-1.58,5.68,0l22.76,22.76C563.86,251.86,562.96,254,561.18,254z"/>
<circle fill="#FF9831" cx="494" cy="224" r="6"/>
<linearGradient id="SVGID_48_" gradientUnits="userSpaceOnUse" x1="454" y1="200.4596" x2="464" y2="200.4596">
	<stop  offset="0" style="stop-color:#6A2000;stop-opacity:0"/>
	<stop  offset="0.6827" style="stop-color:#732800;stop-opacity:0.1024"/>
	<stop  offset="1" style="stop-color:#792D00;stop-opacity:0.15"/>
</linearGradient>
<path fill="url(#SVGID_48_)" d="M464,199.32v10.12c-0.16-0.08-0.32-0.18-0.46-0.3l-9.54-7.5v-10.16L464,199.32z"/>
<linearGradient id="SVGID_49_" gradientUnits="userSpaceOnUse" x1="399" y1="200.4596" x2="409" y2="200.4596" gradientTransform="matrix(-1 0 0 1 997 0)">
	<stop  offset="0" style="stop-color:#6A2000;stop-opacity:0"/>
	<stop  offset="0.6827" style="stop-color:#732800;stop-opacity:0.1024"/>
	<stop  offset="1" style="stop-color:#792D00;stop-opacity:0.15"/>
</linearGradient>
<path fill="url(#SVGID_49_)" d="M588,199.32v10.12c0-0.08,0.32-0.18,0.46-0.3l9.54-7.5v-10.16L588,199.32z"/>
<linearGradient id="SVGID_50_" gradientUnits="userSpaceOnUse" x1="526" y1="150" x2="526" y2="145.9894">
	<stop  offset="0" style="stop-color:#6A2000;stop-opacity:0"/>
	<stop  offset="0.6827" style="stop-color:#732800;stop-opacity:0.1024"/>
	<stop  offset="1" style="stop-color:#792D00;stop-opacity:0.15"/>
</linearGradient>
<rect x="464" y="146" fill="url(#SVGID_50_)" width="124" height="4"/>
</svg>
