<?xml version="1.0" encoding="iso-8859-1"?>
<!-- Generator: Adobe Illustrator 22.1.0, SVG Export Plug-In . SVG Version: 6.00 Build 0)  -->
<svg version="1.1" id="co-workers" xmlns="http://www.w3.org/2000/svg" xmlns:xlink="http://www.w3.org/1999/xlink" x="0px" y="0px"
	 viewBox="0 0 800 600" enable-background="new 0 0 800 600" xml:space="preserve">
<linearGradient id="SVGID_1_" gradientUnits="userSpaceOnUse" x1="498" y1="87.9045" x2="498" y2="361.383">
	<stop  offset="0" style="stop-color:#76E5FF"/>
	<stop  offset="0.0862" style="stop-color:#97EBFF"/>
	<stop  offset="0.188" style="stop-color:#B7F1FF"/>
	<stop  offset="0.2988" style="stop-color:#D2F6FF"/>
	<stop  offset="0.4201" style="stop-color:#E6FAFF"/>
	<stop  offset="0.5572" style="stop-color:#F4FDFF"/>
	<stop  offset="0.7235" style="stop-color:#FCFFFF"/>
	<stop  offset="1" style="stop-color:#FFFFFF"/>
</linearGradient>
<circle fill="url(#SVGID_1_)" cx="498" cy="222" r="132"/>
<linearGradient id="SVGID_2_" gradientUnits="userSpaceOnUse" x1="192" y1="506" x2="602" y2="506">
	<stop  offset="0" style="stop-color:#EDEDED"/>
	<stop  offset="1" style="stop-color:#DDDDDD"/>
</linearGradient>
<rect x="192" y="502" fill="url(#SVGID_2_)" width="410" height="8"/>
<linearGradient id="SVGID_3_" gradientUnits="userSpaceOnUse" x1="224" y1="426" x2="308" y2="426">
	<stop  offset="0" style="stop-color:#C8C8C8"/>
	<stop  offset="0.2651" style="stop-color:#C4C4C4"/>
	<stop  offset="0.5398" style="stop-color:#B7B7B7"/>
	<stop  offset="0.8179" style="stop-color:#A3A3A3"/>
	<stop  offset="1" style="stop-color:#919191"/>
</linearGradient>
<rect x="224" y="408" fill="url(#SVGID_3_)" width="84" height="36"/>
<linearGradient id="SVGID_4_" gradientUnits="userSpaceOnUse" x1="-274" y1="445" x2="-274" y2="503.5" gradientTransform="matrix(-1 0 0 1 -48 0)">
	<stop  offset="0" style="stop-color:#FFD243"/>
	<stop  offset="0.3607" style="stop-color:#FFCF42"/>
	<stop  offset="0.5776" style="stop-color:#FFC73E"/>
	<stop  offset="0.7565" style="stop-color:#FFB937"/>
	<stop  offset="0.9137" style="stop-color:#FFA52E"/>
	<stop  offset="1" style="stop-color:#FF9627"/>
</linearGradient>
<polygon fill="url(#SVGID_4_)" points="208,502 244,502 244,444 208,444 "/>
<linearGradient id="SVGID_5_" gradientUnits="userSpaceOnUse" x1="-366" y1="473" x2="-288" y2="473" gradientTransform="matrix(-1 0 0 1 -48 0)">
	<stop  offset="0" style="stop-color:#FFDE52"/>
	<stop  offset="0.6178" style="stop-color:#FFD23A"/>
	<stop  offset="1" style="stop-color:#FFCE31"/>
</linearGradient>
<polygon fill="url(#SVGID_5_)" points="240,502 318,502 318,444 240,444 "/>
<linearGradient id="SVGID_6_" gradientUnits="userSpaceOnUse" x1="-287.3077" y1="458" x2="-239.5184" y2="458" gradientTransform="matrix(-1 0 0 1 -48 0)">
	<stop  offset="0" style="stop-color:#F9D432"/>
	<stop  offset="0.2412" style="stop-color:#FBDC4B"/>
	<stop  offset="0.7476" style="stop-color:#FEEA7B"/>
	<stop  offset="1" style="stop-color:#FFF08D"/>
</linearGradient>
<polygon fill="url(#SVGID_6_)" points="192,472 224,472 240,444 208,444 "/>
<linearGradient id="SVGID_7_" gradientUnits="userSpaceOnUse" x1="-382" y1="458" x2="-288" y2="458" gradientTransform="matrix(-1 0 0 1 -48 0)">
	<stop  offset="0" style="stop-color:#F9D432"/>
	<stop  offset="0.2412" style="stop-color:#FBDC4B"/>
	<stop  offset="0.7476" style="stop-color:#FEEA7B"/>
	<stop  offset="1" style="stop-color:#FFF08D"/>
</linearGradient>
<polygon fill="url(#SVGID_7_)" points="256,472 334,472 318,444 240,444 "/>
<linearGradient id="SVGID_8_" gradientUnits="userSpaceOnUse" x1="244" y1="434" x2="308" y2="434">
	<stop  offset="0" style="stop-color:#EDEDED"/>
	<stop  offset="1" style="stop-color:#DDDDDD"/>
</linearGradient>
<rect x="244" y="424" fill="url(#SVGID_8_)" width="64" height="20"/>
<linearGradient id="SVGID_9_" gradientUnits="userSpaceOnUse" x1="242" y1="423.875" x2="242" y2="444.4059">
	<stop  offset="0" style="stop-color:#E5E5E5"/>
	<stop  offset="1" style="stop-color:#CECECE"/>
</linearGradient>
<rect x="240" y="424" fill="url(#SVGID_9_)" width="4" height="20"/>
<linearGradient id="SVGID_10_" gradientUnits="userSpaceOnUse" x1="222" y1="407.5" x2="222" y2="444.0004">
	<stop  offset="0" style="stop-color:#C8C8C8"/>
	<stop  offset="0.2651" style="stop-color:#C4C4C4"/>
	<stop  offset="0.5398" style="stop-color:#B7B7B7"/>
	<stop  offset="0.8179" style="stop-color:#A3A3A3"/>
	<stop  offset="1" style="stop-color:#919191"/>
</linearGradient>
<rect x="220" y="408" fill="url(#SVGID_10_)" width="4" height="36"/>
<linearGradient id="SVGID_11_" gradientUnits="userSpaceOnUse" x1="392" y1="315.5" x2="392" y2="410.1068">
	<stop  offset="0" style="stop-color:#AF6E52"/>
	<stop  offset="1" style="stop-color:#A5765D"/>
</linearGradient>
<path fill="url(#SVGID_11_)" d="M380,316v76h8v7c0,1.657,1.343,3,3,3s3-1.343,3-3v-7c0-1.1,0.9-2,2-2s2,0.9,2,2v15
	c0,1.657,1.343,3,3,3s3-1.343,3-3v-15v-76H380z"/>
<linearGradient id="SVGID_12_" gradientUnits="userSpaceOnUse" x1="304" y1="316" x2="304" y2="348.1706">
	<stop  offset="0" style="stop-color:#AF6E52"/>
	<stop  offset="1" style="stop-color:#A5765D"/>
</linearGradient>
<rect x="292" y="316" fill="url(#SVGID_12_)" width="24" height="32"/>
<linearGradient id="SVGID_13_" gradientUnits="userSpaceOnUse" x1="236" y1="348" x2="308" y2="348">
	<stop  offset="0" style="stop-color:#AF6E52"/>
	<stop  offset="1" style="stop-color:#A5765D"/>
</linearGradient>
<path fill="url(#SVGID_13_)" d="M281.87,356H300c4.418,0,8-3.582,8-8v-8h-72v1.366c0,1.598,0.952,3.042,2.421,3.671l9.154,3.923
	C258.412,353.605,270.079,356,281.87,356z"/>
<linearGradient id="SVGID_14_" gradientUnits="userSpaceOnUse" x1="304" y1="278.5" x2="304" y2="322.5">
	<stop  offset="0" style="stop-color:#00D6FF"/>
	<stop  offset="0.223" style="stop-color:#03D2FF"/>
	<stop  offset="0.454" style="stop-color:#0EC5FF"/>
	<stop  offset="0.6888" style="stop-color:#1FB1FF"/>
	<stop  offset="0.9247" style="stop-color:#3794FF"/>
	<stop  offset="1" style="stop-color:#4089FF"/>
</linearGradient>
<path fill="url(#SVGID_14_)" d="M316,280v40h-24v-24c0-8.837,7.163-16,16-16H316z"/>
<linearGradient id="SVGID_15_" gradientUnits="userSpaceOnUse" x1="392" y1="278.5" x2="392" y2="322.5">
	<stop  offset="0" style="stop-color:#00D6FF"/>
	<stop  offset="0.223" style="stop-color:#03D2FF"/>
	<stop  offset="0.454" style="stop-color:#0EC5FF"/>
	<stop  offset="0.6888" style="stop-color:#1FB1FF"/>
	<stop  offset="0.9247" style="stop-color:#3794FF"/>
	<stop  offset="1" style="stop-color:#4089FF"/>
</linearGradient>
<path fill="url(#SVGID_15_)" d="M380,280v40h24v-24c0-8.837-7.163-16-16-16H380z"/>
<path fill="#FFFFFF" d="M388,316v6h17c1.65,0,3-1.35,3-3v0c0-1.65-1.35-3-3-3H388z"/>
<linearGradient id="SVGID_16_" gradientUnits="userSpaceOnUse" x1="348" y1="280" x2="348" y2="369.0225">
	<stop  offset="0" style="stop-color:#00D6FF"/>
	<stop  offset="0.1822" style="stop-color:#01D2FF"/>
	<stop  offset="0.3711" style="stop-color:#04C5FF"/>
	<stop  offset="0.563" style="stop-color:#09B1FF"/>
	<stop  offset="0.757" style="stop-color:#0F94FF"/>
	<stop  offset="0.951" style="stop-color:#186FFF"/>
	<stop  offset="1" style="stop-color:#1A64FF"/>
</linearGradient>
<path fill="url(#SVGID_16_)" d="M379.958,280H366h-50c-4.418,0-8,3.581-8,8v80h40h40v-79.959C388,283.6,384.4,280,379.958,280z"/>
<linearGradient id="SVGID_17_" gradientUnits="userSpaceOnUse" x1="368" y1="278.9136" x2="368" y2="371.804">
	<stop  offset="0" style="stop-color:#302972;stop-opacity:0"/>
	<stop  offset="0.2844" style="stop-color:#2C2575;stop-opacity:0.0284"/>
	<stop  offset="0.579" style="stop-color:#1F1B7E;stop-opacity:0.0579"/>
	<stop  offset="0.8773" style="stop-color:#0B098D;stop-opacity:0.0877"/>
	<stop  offset="1" style="stop-color:#000095;stop-opacity:0.1"/>
</linearGradient>
<path fill="url(#SVGID_17_)" d="M388,288.041V368h-40v-70c10,0,18-8,18-18h13.958C384.4,280,388,283.6,388,288.041z"/>
<linearGradient id="SVGID_18_" gradientUnits="userSpaceOnUse" x1="324" y1="462" x2="324" y2="476.7271">
	<stop  offset="0" style="stop-color:#AF6E52"/>
	<stop  offset="1" style="stop-color:#A5765D"/>
</linearGradient>
<rect x="314" y="462" fill="url(#SVGID_18_)" width="20" height="14"/>
<linearGradient id="SVGID_19_" gradientUnits="userSpaceOnUse" x1="372" y1="462" x2="372" y2="476.7271">
	<stop  offset="0" style="stop-color:#AF6E52"/>
	<stop  offset="1" style="stop-color:#A5765D"/>
</linearGradient>
<rect x="362" y="462" fill="url(#SVGID_19_)" width="20" height="14"/>
<linearGradient id="SVGID_20_" gradientUnits="userSpaceOnUse" x1="372" y1="465.5" x2="372" y2="367.5">
	<stop  offset="0" style="stop-color:#FF8724"/>
	<stop  offset="1" style="stop-color:#FF5C34"/>
</linearGradient>
<rect x="356" y="368" fill="url(#SVGID_20_)" width="32" height="98"/>
<linearGradient id="SVGID_21_" gradientUnits="userSpaceOnUse" x1="348" y1="267.75" x2="348" y2="293.0307">
	<stop  offset="0" style="stop-color:#A36250"/>
	<stop  offset="1" style="stop-color:#966853"/>
</linearGradient>
<path fill="url(#SVGID_21_)" d="M348,292L348,292c-6.627,0-12-5.373-12-12v-12h24v12C360,286.627,354.627,292,348,292z"/>
<linearGradient id="SVGID_22_" gradientUnits="userSpaceOnUse" x1="392" y1="221.6667" x2="392" y2="247.3331">
	<stop  offset="0" style="stop-color:#A36250"/>
	<stop  offset="1" style="stop-color:#966853"/>
</linearGradient>
<path fill="url(#SVGID_22_)" d="M392,246L392,246c-6.627,0-12-5.373-12-12v-12h12c6.627,0,12,5.372,12,12v0
	C404,240.627,398.627,246,392,246z"/>
<linearGradient id="SVGID_23_" gradientUnits="userSpaceOnUse" x1="392" y1="227.6667" x2="392" y2="240.3375">
	<stop  offset="0" style="stop-color:#915A4D"/>
	<stop  offset="1" style="stop-color:#7C5446"/>
</linearGradient>
<path fill="url(#SVGID_23_)" d="M392,240L392,240c-3.314,0-6-2.686-6-6v-6h6c3.314,0,6,2.686,6,6v0C398,237.314,395.314,240,392,240
	z"/>
<path opacity="0.05" d="M398,234c0,0.34-0.02,0.68-0.1,1c-0.46-2.84-2.92-5-5.9-5h-6v-2h6C395.32,228,398,230.68,398,234z"/>
<linearGradient id="SVGID_24_" gradientUnits="userSpaceOnUse" x1="-124" y1="221.6667" x2="-124" y2="247.3331" gradientTransform="matrix(-1 0 0 1 180 0)">
	<stop  offset="0" style="stop-color:#A36250"/>
	<stop  offset="1" style="stop-color:#966853"/>
</linearGradient>
<path fill="url(#SVGID_24_)" d="M304,246L304,246c6.627,0,12-5.373,12-12v-12h-12c-6.627,0-12,5.372-12,12v0
	C292,240.627,297.373,246,304,246z"/>
<linearGradient id="SVGID_25_" gradientUnits="userSpaceOnUse" x1="-124" y1="227.6667" x2="-124" y2="241.5007" gradientTransform="matrix(-1 0 0 1 180 0)">
	<stop  offset="0" style="stop-color:#915A4D"/>
	<stop  offset="1" style="stop-color:#7C5446"/>
</linearGradient>
<path fill="url(#SVGID_25_)" d="M304,240L304,240c3.314,0,6-2.686,6-6v-6h-6c-3.314,0-6,2.686-6,6v0
	C298,237.314,300.686,240,304,240z"/>
<path opacity="0.05" d="M298,234c0,0.34,0.02,0.68,0.1,1c0.46-2.84,2.92-5,5.9-5h6v-2h-6C300.68,228,298,230.68,298,234z"/>
<linearGradient id="SVGID_26_" gradientUnits="userSpaceOnUse" x1="348" y1="163.3333" x2="348" y2="277.1763">
	<stop  offset="0" style="stop-color:#AF6E52"/>
	<stop  offset="1" style="stop-color:#A5765D"/>
</linearGradient>
<path fill="url(#SVGID_26_)" d="M388,234c0,22.091-17.909,40-40,40h0c-22.091,0-40-17.909-40-40v-28c0-22.091,17.909-40,40-40h0
	c22.091,0,40,17.909,40,40V234z"/>
<circle fill="#FFFFFF" cx="366" cy="230" r="8"/>
<linearGradient id="SVGID_27_" gradientUnits="userSpaceOnUse" x1="366.0001" y1="225.8748" x2="366.0001" y2="234.0911">
	<stop  offset="0" style="stop-color:#4C4B4B"/>
	<stop  offset="1" style="stop-color:#3A3838"/>
</linearGradient>
<path fill="url(#SVGID_27_)" d="M370,230c0,2.2-1.8,4-4,4s-4-1.8-4-4c0-2.2,1.8-4,4-4c0.64,0,1.24,0.14,1.78,0.42
	c-0.48,0.36-0.78,0.94-0.78,1.58c0,1.1,0.9,2,2,2c0.36,0,0.7-0.1,0.98-0.26C370,229.82,370,229.92,370,230z"/>
<linearGradient id="SVGID_28_" gradientUnits="userSpaceOnUse" x1="366" y1="218.375" x2="366" y2="211.4898">
	<stop  offset="0" style="stop-color:#75493C"/>
	<stop  offset="1" style="stop-color:#7F5950"/>
</linearGradient>
<path fill="url(#SVGID_28_)" d="M374,215c0-1.657-1.343-3-3-3h-10c-1.657,0-3,1.343-3,3l0,0c0,1.657,1.343,3,3,3h10
	C372.657,218,374,216.657,374,215L374,215z"/>
<circle fill="#FFFFFF" cx="330" cy="230" r="8"/>
<linearGradient id="SVGID_29_" gradientUnits="userSpaceOnUse" x1="330.0001" y1="225.8748" x2="330.0001" y2="234.0911">
	<stop  offset="0" style="stop-color:#4C4B4B"/>
	<stop  offset="1" style="stop-color:#3A3838"/>
</linearGradient>
<path fill="url(#SVGID_29_)" d="M334,230c0,2.2-1.8,4-4,4s-4-1.8-4-4c0-2.2,1.8-4,4-4c0.64,0,1.24,0.14,1.78,0.42
	c-0.48,0.36-0.78,0.94-0.78,1.58c0,1.1,0.9,2,2,2c0.36,0,0.7-0.1,0.98-0.26C334,229.82,334,229.92,334,230z"/>
<linearGradient id="SVGID_30_" gradientUnits="userSpaceOnUse" x1="330" y1="218.375" x2="330" y2="211.4898">
	<stop  offset="0" style="stop-color:#75493C"/>
	<stop  offset="1" style="stop-color:#7F5950"/>
</linearGradient>
<path fill="url(#SVGID_30_)" d="M338,215c0-1.657-1.343-3-3-3h-10c-1.657,0-3,1.343-3,3l0,0c0,1.657,1.343,3,3,3h10
	C336.657,218,338,216.657,338,215L338,215z"/>
<linearGradient id="SVGID_31_" gradientUnits="userSpaceOnUse" x1="348" y1="231.875" x2="348" y2="242.0193">
	<stop  offset="0" style="stop-color:#A36250"/>
	<stop  offset="1" style="stop-color:#966853"/>
</linearGradient>
<path fill="url(#SVGID_31_)" d="M352,238c0,2.209-1.791,4-4,4l0,0c-2.209,0-4-1.791-4-4v-2c0-2.209,1.791-4,4-4l0,0
	c2.209,0,4,1.791,4,4V238z"/>
<path fill="#FFFFFF" d="M366,280c0,9.92-8.08,18-18,18s-18-8.08-18-18c0-1.66,1.34-3,3-3s3,1.34,3,3c0,6.62,5.38,12,12,12
	s12-5.38,12-12c0-1.66,1.34-3,3-3S366,278.34,366,280z"/>
<linearGradient id="SVGID_32_" gradientUnits="userSpaceOnUse" x1="324" y1="471.35" x2="324" y2="498.3426">
	<stop  offset="0" style="stop-color:#C8C8C8"/>
	<stop  offset="0.2651" style="stop-color:#C4C4C4"/>
	<stop  offset="0.5398" style="stop-color:#B7B7B7"/>
	<stop  offset="0.8179" style="stop-color:#A3A3A3"/>
	<stop  offset="1" style="stop-color:#919191"/>
</linearGradient>
<path fill="url(#SVGID_32_)" d="M338,498h-28v-23.979c0-1.116,0.905-2.021,2.021-2.021h23.958c1.116,0,2.021,0.905,2.021,2.021V498z
	"/>
<linearGradient id="SVGID_33_" gradientUnits="userSpaceOnUse" x1="309" y1="498" x2="309" y2="502.3821">
	<stop  offset="0" style="stop-color:#575C72"/>
	<stop  offset="1" style="stop-color:#434556"/>
</linearGradient>
<rect x="278" y="498" fill="url(#SVGID_33_)" width="62" height="4"/>
<linearGradient id="SVGID_34_" gradientUnits="userSpaceOnUse" x1="280" y1="491" x2="338" y2="491">
	<stop  offset="0" style="stop-color:#E5E5E5"/>
	<stop  offset="1" style="stop-color:#CECECE"/>
</linearGradient>
<path fill="url(#SVGID_34_)" d="M338,484h-46c-6.627,0-12,5.372-12,12v2h58V484z"/>
<linearGradient id="SVGID_35_" gradientUnits="userSpaceOnUse" x1="372" y1="471.7833" x2="372" y2="498.2176">
	<stop  offset="0" style="stop-color:#C8C8C8"/>
	<stop  offset="0.2651" style="stop-color:#C4C4C4"/>
	<stop  offset="0.5398" style="stop-color:#B7B7B7"/>
	<stop  offset="0.8179" style="stop-color:#A3A3A3"/>
	<stop  offset="1" style="stop-color:#919191"/>
</linearGradient>
<path fill="url(#SVGID_35_)" d="M386,498h-28v-23.979c0-1.116,0.905-2.021,2.021-2.021h23.958c1.116,0,2.021,0.905,2.021,2.021V498z
	"/>
<linearGradient id="SVGID_36_" gradientUnits="userSpaceOnUse" x1="372" y1="498.125" x2="372" y2="502.5018">
	<stop  offset="0" style="stop-color:#575C72"/>
	<stop  offset="1" style="stop-color:#434556"/>
</linearGradient>
<rect x="352" y="498" fill="url(#SVGID_36_)" width="40" height="4"/>
<path fill="#DBDBDB" d="M378,484h-12c-6.627,0-12,5.372-12,12v2h36v-2C390,489.372,384.628,484,378,484z"/>
<linearGradient id="SVGID_37_" gradientUnits="userSpaceOnUse" x1="372" y1="453.9167" x2="372" y2="458.25">
	<stop  offset="0" style="stop-color:#D44000;stop-opacity:0"/>
	<stop  offset="1" style="stop-color:#A24520;stop-opacity:0.1"/>
</linearGradient>
<rect x="356" y="454" fill="url(#SVGID_37_)" width="32" height="4"/>
<linearGradient id="SVGID_38_" gradientUnits="userSpaceOnUse" x1="324" y1="469.875" x2="324" y2="466.355">
	<stop  offset="0" style="stop-color:#302926;stop-opacity:0"/>
	<stop  offset="0.29" style="stop-color:#27211F;stop-opacity:0.0203"/>
	<stop  offset="0.7616" style="stop-color:#0F0D0C;stop-opacity:0.0533"/>
	<stop  offset="1" style="stop-color:#000000;stop-opacity:0.07"/>
</linearGradient>
<rect x="314" y="466" fill="url(#SVGID_38_)" width="20" height="4"/>
<linearGradient id="SVGID_39_" gradientUnits="userSpaceOnUse" x1="372" y1="469.875" x2="372" y2="466.355">
	<stop  offset="0" style="stop-color:#302926;stop-opacity:0"/>
	<stop  offset="0.29" style="stop-color:#27211F;stop-opacity:0.0203"/>
	<stop  offset="0.7616" style="stop-color:#0F0D0C;stop-opacity:0.0533"/>
	<stop  offset="1" style="stop-color:#000000;stop-opacity:0.07"/>
</linearGradient>
<rect x="362" y="466" fill="url(#SVGID_39_)" width="20" height="4"/>
<linearGradient id="SVGID_40_" gradientUnits="userSpaceOnUse" x1="348" y1="249.9167" x2="348" y2="263.8936">
	<stop  offset="0" style="stop-color:#F9808F"/>
	<stop  offset="0.391" style="stop-color:#F97792"/>
	<stop  offset="1" style="stop-color:#F96099"/>
</linearGradient>
<path fill="url(#SVGID_40_)" d="M362,250c0,4-1.84,7.96-4.76,10.48c-2.46,2.22-5.68,3.52-9.24,3.52c-3.56,0-6.78-1.3-9.24-3.52
	C335.84,257.96,334,254,334,250H362z"/>
<path fill="#FFFFFF" d="M336,246h24c1.105,0,2,0.895,2,2v2h-28v-2C334,246.895,334.895,246,336,246z"/>
<linearGradient id="SVGID_41_" gradientUnits="userSpaceOnUse" x1="348" y1="257.83" x2="348" y2="264.1886">
	<stop  offset="0" style="stop-color:#EA5770"/>
	<stop  offset="0.5523" style="stop-color:#EA4F79"/>
	<stop  offset="1" style="stop-color:#EA4684"/>
</linearGradient>
<path fill="url(#SVGID_41_)" d="M357.24,260.48c-2.46,2.22-5.68,3.52-9.24,3.52c-3.56,0-6.78-1.3-9.24-3.52
	c1.5-3.06,5.08-2.48,9.24-2.48C352.16,258,355.74,257.42,357.24,260.48z"/>
<linearGradient id="SVGID_42_" gradientUnits="userSpaceOnUse" x1="348" y1="367.5" x2="348" y2="466.5051">
	<stop  offset="0" style="stop-color:#FF8724"/>
	<stop  offset="1" style="stop-color:#FF7934"/>
</linearGradient>
<path fill="url(#SVGID_42_)" d="M308,368v24l0,0v74h32v-70c0-2.209,1.791-4,4-4h28c8.837,0,16-7.164,16-16v-8H308z"/>
<linearGradient id="SVGID_43_" gradientUnits="userSpaceOnUse" x1="324" y1="466.3333" x2="324" y2="457.7536">
	<stop  offset="0" style="stop-color:#FF7C27"/>
	<stop  offset="0.1282" style="stop-color:#FF7E27"/>
	<stop  offset="1" style="stop-color:#FF8824"/>
</linearGradient>
<path fill="url(#SVGID_43_)" d="M342,464c0,1.105-0.895,2-2,2h-32c-1.105,0-2-0.895-2-2v-4c0-1.105,0.895-2,2-2h32
	c1.105,0,2,0.895,2,2V464z"/>
<linearGradient id="SVGID_44_" gradientUnits="userSpaceOnUse" x1="372" y1="466.3333" x2="372" y2="457.7536">
	<stop  offset="0" style="stop-color:#FF7C27"/>
	<stop  offset="0.1282" style="stop-color:#FF7E27"/>
	<stop  offset="1" style="stop-color:#FF8824"/>
</linearGradient>
<path fill="url(#SVGID_44_)" d="M390,464c0,1.105-0.895,2-2,2h-32c-1.105,0-2-0.895-2-2v-4c0-1.105,0.895-2,2-2h32
	c1.105,0,2,0.895,2,2V464z"/>
<linearGradient id="SVGID_45_" gradientUnits="userSpaceOnUse" x1="335.4167" y1="275.0798" x2="360.5199" y2="275.0798">
	<stop  offset="0" style="stop-color:#302926;stop-opacity:0"/>
	<stop  offset="1" style="stop-color:#000000;stop-opacity:0.1"/>
</linearGradient>
<path fill="url(#SVGID_45_)" d="M360,272.16v4c-3.8,1.2-7.82,1.84-12,1.84c-4.18,0-8.2-0.64-12-1.84v-4c3.8,1.2,7.82,1.84,12,1.84
	C352.18,274,356.2,273.36,360,272.16z"/>
<linearGradient id="SVGID_46_" gradientUnits="userSpaceOnUse" x1="348" y1="232" x2="348" y2="131.7994">
	<stop  offset="0" style="stop-color:#75493C"/>
	<stop  offset="1" style="stop-color:#7F5950"/>
</linearGradient>
<path fill="url(#SVGID_46_)" d="M412,198c0,12.08-3.34,22.46-9.16,30.86c-1.92-4.06-6.06-6.86-10.84-6.86h-4v8h-2c-2.2,0-4-1.8-4-4
	v-18c0-2.2-1.8-4-4-4h-60c-2.2,0-4,1.8-4,4v18c0,2.2-1.8,4-4,4h-2v-8h-4c-4.78,0-8.92,2.8-10.84,6.86
	c-5.82-8.4-9.16-18.78-9.16-30.86c0-35.34,28.66-64,64-64C383.34,134,412,162.66,412,198z"/>
<linearGradient id="SVGID_47_" gradientUnits="userSpaceOnUse" x1="324" y1="453.9167" x2="324" y2="458.25">
	<stop  offset="0" style="stop-color:#D44000;stop-opacity:0"/>
	<stop  offset="1" style="stop-color:#A24520;stop-opacity:0.1"/>
</linearGradient>
<rect x="308" y="454" fill="url(#SVGID_47_)" width="32" height="4"/>
<path fill="#FFFFFF" d="M308,316v6h-17c-1.65,0-3-1.35-3-3v0c0-1.65,1.35-3,3-3H308z"/>
<linearGradient id="SVGID_48_" gradientUnits="userSpaceOnUse" x1="292.1898" y1="338" x2="231.9003" y2="338">
	<stop  offset="0" style="stop-color:#B6B9B9"/>
	<stop  offset="1" style="stop-color:#D7D7D7"/>
</linearGradient>
<path fill="url(#SVGID_48_)" d="M292,336h-60l0,0c0,2.209,1.791,4,4,4h56V336z"/>
<linearGradient id="SVGID_49_" gradientUnits="userSpaceOnUse" x1="234" y1="340.3331" x2="234" y2="276.986">
	<stop  offset="0" style="stop-color:#B6B9B9"/>
	<stop  offset="1" style="stop-color:#D7D7D7"/>
</linearGradient>
<path fill="url(#SVGID_49_)" d="M232,280h4v60l0,0c-2.209,0-4-1.791-4-4V280z"/>
<linearGradient id="SVGID_50_" gradientUnits="userSpaceOnUse" x1="240" y1="335" x2="288" y2="335">
	<stop  offset="0" style="stop-color:#515151"/>
	<stop  offset="0.018" style="stop-color:#525252"/>
	<stop  offset="0.6261" style="stop-color:#6A6A6A"/>
	<stop  offset="1" style="stop-color:#737373"/>
</linearGradient>
<path fill="url(#SVGID_50_)" d="M286,334h-44c-1.105,0-2,0-2,2h48C288,334,287.105,334,286,334z"/>
<linearGradient id="SVGID_51_" gradientUnits="userSpaceOnUse" x1="299" y1="333.8748" x2="299" y2="340.6262">
	<stop  offset="0" style="stop-color:#302926;stop-opacity:0"/>
	<stop  offset="1" style="stop-color:#000000;stop-opacity:0.1"/>
</linearGradient>
<polygon fill="url(#SVGID_51_)" points="292,340 306,340 292,334 "/>
<linearGradient id="SVGID_52_" gradientUnits="userSpaceOnUse" x1="300" y1="326.2083" x2="300" y2="321.6392">
	<stop  offset="0" style="stop-color:#302926;stop-opacity:0"/>
	<stop  offset="1" style="stop-color:#000000;stop-opacity:0.1"/>
</linearGradient>
<rect x="292" y="322" fill="url(#SVGID_52_)" width="16" height="4"/>
<linearGradient id="SVGID_53_" gradientUnits="userSpaceOnUse" x1="396" y1="326.2083" x2="396" y2="321.6392">
	<stop  offset="0" style="stop-color:#302926;stop-opacity:0"/>
	<stop  offset="1" style="stop-color:#000000;stop-opacity:0.1"/>
</linearGradient>
<rect x="388" y="322" fill="url(#SVGID_53_)" width="16" height="4"/>
<linearGradient id="SVGID_54_" gradientUnits="userSpaceOnUse" x1="394.125" y1="348" x2="404.875" y2="348">
	<stop  offset="0" style="stop-color:#302926;stop-opacity:0.05"/>
	<stop  offset="1" style="stop-color:#000000;stop-opacity:0.1"/>
</linearGradient>
<path fill="url(#SVGID_54_)" d="M404,346h-8c-1.105,0-2,0.895-2,2v0c0,1.105,0.895,2,2,2h8V346z"/>
<linearGradient id="SVGID_55_" gradientUnits="userSpaceOnUse" x1="372" y1="475.75" x2="372" y2="480.4354">
	<stop  offset="0" style="stop-color:#575C72"/>
	<stop  offset="1" style="stop-color:#434556"/>
</linearGradient>
<path fill="url(#SVGID_55_)" d="M378,478c0,1.105-0.895,2-2,2h-8c-1.105,0-2-0.895-2-2l0,0c0-1.105,0.895-2,2-2h8
	C377.105,476,378,476.895,378,478L378,478z"/>
<linearGradient id="SVGID_56_" gradientUnits="userSpaceOnUse" x1="312" y1="475.75" x2="312" y2="480.4354">
	<stop  offset="0" style="stop-color:#575C72"/>
	<stop  offset="1" style="stop-color:#434556"/>
</linearGradient>
<path fill="url(#SVGID_56_)" d="M316,478c0,1.105-0.895,2-2,2h-4c-1.105,0-2-0.895-2-2l0,0c0-1.105,0.895-2,2-2h4
	C315.105,476,316,476.895,316,478L316,478z"/>
<linearGradient id="SVGID_57_" gradientUnits="userSpaceOnUse" x1="348" y1="361.9167" x2="348" y2="368.1717">
	<stop  offset="0" style="stop-color:#575C72"/>
	<stop  offset="0.4314" style="stop-color:#515569"/>
	<stop  offset="1" style="stop-color:#434556"/>
</linearGradient>
<rect x="308" y="362" fill="url(#SVGID_57_)" width="80" height="6"/>
<linearGradient id="SVGID_58_" gradientUnits="userSpaceOnUse" x1="327.9997" y1="158.1664" x2="327.9997" y2="141.6168">
	<stop  offset="0" style="stop-color:#FFFFED;stop-opacity:0"/>
	<stop  offset="1" style="stop-color:#FFFFFF;stop-opacity:0.1"/>
</linearGradient>
<path fill="url(#SVGID_58_)" d="M316.001,157.499c-0.921,0-1.829-0.422-2.417-1.221c-0.983-1.334-0.698-3.212,0.636-4.194
	c7.45-5.489,16.212-9.107,25.34-10.463c1.64-0.229,3.165,0.89,3.408,2.527c0.243,1.639-0.889,3.165-2.527,3.408
	c-8.161,1.212-15.998,4.447-22.662,9.357C317.243,157.308,316.619,157.499,316.001,157.499z"/>
<linearGradient id="SVGID_59_" gradientUnits="userSpaceOnUse" x1="220.5765" y1="182" x2="220.5765" y2="256.741">
	<stop  offset="0" style="stop-color:#F0F0ED"/>
	<stop  offset="0.8581" style="stop-color:#E7E7E6"/>
	<stop  offset="1" style="stop-color:#E5E5E5"/>
</linearGradient>
<path fill="url(#SVGID_59_)" d="M266,232.343V186c0-2.209-1.791-4-4-4H162c-2.209,0-4,1.791-4,4v64c0,2.209,1.791,4,4,4h119.133
	c1.796,0,2.696-2.172,1.426-3.442l-15.387-15.387C266.421,234.421,266,233.404,266,232.343z"/>
<path fill="#B6B9B9" d="M256,202c0-1.105-0.895-2-2-2h-42c-1.105,0-2,0.895-2,2v2c0,1.105,0.895,2,2,2h42c1.105,0,2-0.895,2-2V202z"
	/>
<path fill="#B6B9B9" d="M256,216c0-1.105-0.895-2-2-2h-16c-1.105,0-2,0.895-2,2v2c0,1.105,0.895,2,2,2h16c1.105,0,2-0.895,2-2V216z"
	/>
<path fill="#B6B9B9" d="M256,230c0-1.105-0.895-2-2-2h-42c-1.105,0-2,0.895-2,2v2c0,1.105,0.895,2,2,2h42c1.105,0,2-0.895,2-2V230z"
	/>
<path fill="#B6B9B9" d="M230,216c0-1.105-0.895-2-2-2h-16c-1.105,0-2,0.895-2,2v2c0,1.105,0.895,2,2,2h16c1.105,0,2-0.895,2-2V216z"
	/>
<linearGradient id="SVGID_60_" gradientUnits="userSpaceOnUse" x1="-175" y1="200.1515" x2="-175" y2="234.0011" gradientTransform="matrix(-1 0 0 1 10 0)">
	<stop  offset="0" style="stop-color:#FFE552"/>
	<stop  offset="1" style="stop-color:#FFAE39"/>
</linearGradient>
<circle fill="url(#SVGID_60_)" cx="185" cy="217" r="17"/>
<circle opacity="0.5" fill="#CC6600" cx="178" cy="215" r="3"/>
<circle opacity="0.5" fill="#CC6600" cx="193" cy="215" r="3"/>
<path opacity="0.5" fill="#CC6600" d="M179,220L179,220c0,3.314,2.686,6,6,6s6-2,6-6H179z"/>
<circle opacity="0.15" cx="348" cy="318" r="4"/>
<circle opacity="0.15" cx="348" cy="342" r="4"/>
<linearGradient id="SVGID_61_" gradientUnits="userSpaceOnUse" x1="498" y1="151.2895" x2="498" y2="244.0168">
	<stop  offset="0" style="stop-color:#F0F0ED"/>
	<stop  offset="0.8581" style="stop-color:#E7E7E6"/>
	<stop  offset="1" style="stop-color:#E5E5E5"/>
</linearGradient>
<path fill="url(#SVGID_61_)" d="M454,160v56c0,4.418,3.582,8,8,8h16.171c2.42,0,4.709,1.1,6.221,2.99l10.376,12.97
	c1.657,2.071,4.807,2.071,6.463,0l10.376-12.97c1.512-1.89,3.801-2.99,6.221-2.99H534c4.418,0,8-3.582,8-8v-56c0-4.418-3.582-8-8-8
	h-72C457.582,152,454,155.581,454,160z"/>
<linearGradient id="SVGID_62_" gradientUnits="userSpaceOnUse" x1="498" y1="168.472" x2="498" y2="208.472">
	<stop  offset="0" style="stop-color:#FF7E45"/>
	<stop  offset="0.0509" style="stop-color:#FE7A4A"/>
	<stop  offset="0.4663" style="stop-color:#F95C72"/>
	<stop  offset="0.7971" style="stop-color:#F5498A"/>
	<stop  offset="1" style="stop-color:#F44293"/>
</linearGradient>
<path fill="url(#SVGID_62_)" d="M510,170c-6.627,0-12,5.373-12,12c0-6.627-5.373-12-12-12s-12,5.373-12,12c0,13.255,24,28,24,28
	s24-14.745,24-28C522,175.372,516.627,170,510,170z"/>
<path fill="#E8E8E8" d="M579.191,382.427l1.215,3.921c0.184,0.595,0.65,1.061,1.245,1.245l3.921,1.215
	c0.35,0.108,0.35,0.604,0,0.713l-3.921,1.215c-0.595,0.184-1.061,0.65-1.245,1.245l-1.215,3.921c-0.108,0.35-0.604,0.35-0.713,0
	l-1.215-3.921c-0.184-0.595-0.65-1.061-1.245-1.245l-3.921-1.215c-0.35-0.108-0.35-0.604,0-0.713l3.921-1.215
	c0.595-0.184,1.061-0.65,1.245-1.245l1.215-3.921C578.587,382.077,579.083,382.077,579.191,382.427z"/>
<path fill="#E8E8E8" d="M253.191,148.427l1.215,3.921c0.184,0.595,0.65,1.061,1.245,1.245l3.921,1.215
	c0.35,0.108,0.35,0.604,0,0.713l-3.921,1.215c-0.595,0.184-1.061,0.65-1.245,1.245l-1.215,3.921c-0.108,0.35-0.604,0.35-0.713,0
	l-1.215-3.921c-0.184-0.595-0.65-1.061-1.245-1.245l-3.921-1.215c-0.35-0.108-0.35-0.604,0-0.713l3.921-1.215
	c0.595-0.184,1.061-0.65,1.245-1.245l1.215-3.921C252.587,148.077,253.083,148.077,253.191,148.427z"/>
<linearGradient id="SVGID_63_" gradientUnits="userSpaceOnUse" x1="646.2593" y1="418" x2="594.4037" y2="418">
	<stop  offset="0" style="stop-color:#302926;stop-opacity:0"/>
	<stop  offset="0.3811" style="stop-color:#161312;stop-opacity:0.0267"/>
	<stop  offset="0.7318" style="stop-color:#060505;stop-opacity:0.0512"/>
	<stop  offset="1" style="stop-color:#000000;stop-opacity:0.07"/>
</linearGradient>
<path fill="url(#SVGID_63_)" d="M642,404v22h-22.377c-1.719,0-3.623,1.175-3.623,2.895V432h-20v-6.995
	c0-3.439,3.069-7.005,6.508-7.005h6.224c1.719,0,3.268-0.611,3.268-2.331v-5.446c0-3.439,2.629-6.224,6.067-6.224H642z"/>
<linearGradient id="SVGID_64_" gradientUnits="userSpaceOnUse" x1="620.25" y1="446" x2="590.25" y2="446">
	<stop  offset="0" style="stop-color:#FFD243"/>
	<stop  offset="0.609" style="stop-color:#FFBB2F"/>
	<stop  offset="1" style="stop-color:#FFB227"/>
</linearGradient>
<path fill="url(#SVGID_64_)" d="M620,462c0,1.105-0.895,2-2,2h-26c-1.105,0-2-0.895-2-2v-32c0-1.105,0.895-2,2-2h26
	c1.105,0,2,0.895,2,2V462z"/>
<linearGradient id="SVGID_65_" gradientUnits="userSpaceOnUse" x1="498" y1="263.9998" x2="498" y2="386">
	<stop  offset="0" style="stop-color:#FF7E45"/>
	<stop  offset="0.0509" style="stop-color:#FE7A4A"/>
	<stop  offset="0.4663" style="stop-color:#F95C72"/>
	<stop  offset="0.7971" style="stop-color:#F5498A"/>
	<stop  offset="1" style="stop-color:#F44293"/>
</linearGradient>
<path fill="url(#SVGID_65_)" d="M512,266.18c-4.42-1.42-9.12-2.18-14-2.18c-25.4,0-46,20.6-46,46v72c0,2.2,1.8,4,4,4h84
	c2.2,0,4-1.8,4-4v-72C544,289.48,530.56,272.1,512,266.18z"/>
<linearGradient id="SVGID_66_" gradientUnits="userSpaceOnUse" x1="498" y1="259.9998" x2="498" y2="324">
	<stop  offset="0" style="stop-color:#EDEDED"/>
	<stop  offset="1" style="stop-color:#DDDDDD"/>
</linearGradient>
<path fill="url(#SVGID_66_)" d="M548,324h-4v-14c0-25.364-20.636-46-46-46s-46,20.636-46,46v14h-4v-14c0-27.57,22.43-50,50-50
	s50,22.43,50,50V324z"/>
<linearGradient id="SVGID_67_" gradientUnits="userSpaceOnUse" x1="542" y1="379.6" x2="542" y2="450">
	<stop  offset="0" style="stop-color:#FFE552"/>
	<stop  offset="1" style="stop-color:#FFAE39"/>
</linearGradient>
<path fill="url(#SVGID_67_)" d="M538,382h-8v40h8v24h16v-48C554,389.163,546.837,382,538,382z"/>
<linearGradient id="SVGID_68_" gradientUnits="userSpaceOnUse" x1="454" y1="380.9846" x2="454" y2="466.393">
	<stop  offset="0" style="stop-color:#FFE552"/>
	<stop  offset="1" style="stop-color:#FFAE39"/>
</linearGradient>
<path fill="url(#SVGID_68_)" d="M442,470v-72c0-8.837,7.163-16,16-16h8v40h-8v48H442z"/>
<linearGradient id="SVGID_69_" gradientUnits="userSpaceOnUse" x1="-228" y1="381" x2="-228" y2="477.0326" gradientTransform="matrix(-1 0 0 1 270 0)">
	<stop  offset="0" style="stop-color:#FFE552"/>
	<stop  offset="1" style="stop-color:#FFAE39"/>
</linearGradient>
<path fill="url(#SVGID_69_)" d="M466.042,382H480h50c4.418,0,8,3.581,8,8v84h-80v-83.959C458,385.6,461.6,382,466.042,382z"/>
<linearGradient id="SVGID_70_" gradientUnits="userSpaceOnUse" x1="-228" y1="369.75" x2="-228" y2="395.0307" gradientTransform="matrix(-1 0 0 1 270 0)">
	<stop  offset="0" style="stop-color:#F9D6BD"/>
	<stop  offset="1" style="stop-color:#F9CEB2"/>
</linearGradient>
<path fill="url(#SVGID_70_)" d="M498,394L498,394c6.628,0,12-5.373,12-12v-12h-24v12C486,388.627,491.373,394,498,394z"/>
<linearGradient id="SVGID_71_" gradientUnits="userSpaceOnUse" x1="515.0001" y1="334.9999" x2="595.1" y2="334.9999">
	<stop  offset="0" style="stop-color:#FFDEC7"/>
	<stop  offset="1" style="stop-color:#FFD8BD"/>
</linearGradient>
<path fill="url(#SVGID_71_)" d="M538,332v4c0,22.1-17.9,40-40,40s-40-17.9-40-40v-4c3,0,6-2.68,6-6v-16h32c8.84,0,16-7.16,16-16
	c0,8.84,7.16,16,16,16h4v16C532,329.32,535,332,538,332z"/>
<circle fill="#FFFFFF" cx="480" cy="332" r="8"/>
<circle fill="#FFFFFF" cx="516" cy="332" r="10"/>
<linearGradient id="SVGID_72_" gradientUnits="userSpaceOnUse" x1="-228" y1="334" x2="-228" y2="344.4375" gradientTransform="matrix(-1 0 0 1 270 0)">
	<stop  offset="0" style="stop-color:#FFD3BB"/>
	<stop  offset="1" style="stop-color:#FFC4B0"/>
</linearGradient>
<path fill="url(#SVGID_72_)" d="M502,338c0-2.209-1.791-4-4-4l0,0c-2.209,0-4,1.791-4,4v2c0,2.209,1.791,4,4,4l0,0
	c2.209,0,4-1.791,4-4V338z"/>
<path fill="#FFFFFF" d="M480,382c0,9.92,8.08,18,18,18s18-8.08,18-18c0-1.66-1.34-3-3-3s-3,1.34-3,3c0,6.62-5.38,12-12,12
	s-12-5.38-12-12c0-1.66-1.34-3-3-3S480,380.34,480,382z"/>
<linearGradient id="SVGID_73_" gradientUnits="userSpaceOnUse" x1="450" y1="399.3333" x2="450" y2="464.3333">
	<stop  offset="0" style="stop-color:#D44000;stop-opacity:0"/>
	<stop  offset="1" style="stop-color:#A24520;stop-opacity:0.15"/>
</linearGradient>
<rect x="442" y="400" fill="url(#SVGID_73_)" width="16" height="64"/>
<linearGradient id="SVGID_74_" gradientUnits="userSpaceOnUse" x1="-228" y1="351.9167" x2="-228" y2="365.8936" gradientTransform="matrix(-1 0 0 1 270 0)">
	<stop  offset="0" style="stop-color:#F9808F"/>
	<stop  offset="0.391" style="stop-color:#F97792"/>
	<stop  offset="1" style="stop-color:#F96099"/>
</linearGradient>
<path fill="url(#SVGID_74_)" d="M484,352c0,4,1.84,7.96,4.76,10.48c2.46,2.22,5.68,3.52,9.24,3.52c3.56,0,6.78-1.3,9.24-3.52
	C510.16,359.96,512,356,512,352H484z"/>
<path fill="#FFFFFF" d="M510,348h-24c-1.105,0-2,0.895-2,2v2h28v-2C512,348.895,511.105,348,510,348z"/>
<linearGradient id="SVGID_75_" gradientUnits="userSpaceOnUse" x1="-228" y1="359.83" x2="-228" y2="366.1886" gradientTransform="matrix(-1 0 0 1 270 0)">
	<stop  offset="0" style="stop-color:#EA5770"/>
	<stop  offset="0.5523" style="stop-color:#EA4F79"/>
	<stop  offset="1" style="stop-color:#EA4684"/>
</linearGradient>
<path fill="url(#SVGID_75_)" d="M488.76,362.48c2.46,2.22,5.68,3.52,9.24,3.52c3.56,0,6.78-1.3,9.24-3.52
	c-1.5-3.06-5.08-2.48-9.24-2.48C493.84,360,490.26,359.42,488.76,362.48z"/>
<linearGradient id="SVGID_76_" gradientUnits="userSpaceOnUse" x1="457.4167" y1="377.0798" x2="482.5199" y2="377.0798" gradientTransform="matrix(1 0 0 1 28 0)">
	<stop  offset="0" style="stop-color:#302926;stop-opacity:0"/>
	<stop  offset="1" style="stop-color:#000000;stop-opacity:0.1"/>
</linearGradient>
<path fill="url(#SVGID_76_)" d="M510,374.16v4c-4,1.2-7.82,1.84-12,1.84c-4.18,0-8-0.64-12-1.84v-4c4,1.2,7.82,1.84,12,1.84
	C502.18,376,506,375.36,510,374.16z"/>
<linearGradient id="SVGID_77_" gradientUnits="userSpaceOnUse" x1="-208" y1="470" x2="-208" y2="502.4722" gradientTransform="matrix(-1 0 0 1 333 0)">
	<stop  offset="0" style="stop-color:#00C5FF"/>
	<stop  offset="0.1728" style="stop-color:#02BCFF"/>
	<stop  offset="0.4545" style="stop-color:#09A4FF"/>
	<stop  offset="0.8081" style="stop-color:#137CFF"/>
	<stop  offset="1" style="stop-color:#1A64FF"/>
</linearGradient>
<path fill="url(#SVGID_77_)" d="M568,470h-70v32h70c8.837,0,16-7.164,16-16v0C584,477.163,576.837,470,568,470z"/>
<linearGradient id="SVGID_78_" gradientUnits="userSpaceOnUse" x1="455" y1="470" x2="455" y2="502.4722">
	<stop  offset="0" style="stop-color:#00C5FF"/>
	<stop  offset="0.1728" style="stop-color:#02BCFF"/>
	<stop  offset="0.4545" style="stop-color:#09A4FF"/>
	<stop  offset="0.8081" style="stop-color:#137CFF"/>
	<stop  offset="1" style="stop-color:#1A64FF"/>
</linearGradient>
<path fill="url(#SVGID_78_)" d="M428,470h70v32h-70c-8.837,0-16-7.164-16-16v0C412,477.163,419.163,470,428,470z"/>
<path opacity="0.5" fill="#0068E5" d="M490,498v4h-62c-8.84,0-16-7.16-16-16c0-0.68,0.04-1.34,0.12-2c0.98,7.9,7.72,14,15.88,14H490
	z"/>
<linearGradient id="SVGID_79_" gradientUnits="userSpaceOnUse" x1="-264" y1="498.0625" x2="-264" y2="502.324" gradientTransform="matrix(-1 0 0 1 281 0)">
	<stop  offset="0" style="stop-color:#0000A2;stop-opacity:0.05"/>
	<stop  offset="1" style="stop-color:#00009F;stop-opacity:0.2"/>
</linearGradient>
<path fill="url(#SVGID_79_)" d="M506,498v4h62c8.84,0,16-7.16,16-16c0-0.68-0.04-1.34-0.12-2c-0.98,7.9-7.72,14-15.88,14H506z"/>
<linearGradient id="SVGID_80_" gradientUnits="userSpaceOnUse" x1="494" y1="469.4118" x2="494" y2="503.4576">
	<stop  offset="0" style="stop-color:#00D6FF"/>
	<stop  offset="0.223" style="stop-color:#03D2FF"/>
	<stop  offset="0.454" style="stop-color:#0EC5FF"/>
	<stop  offset="0.6888" style="stop-color:#1FB1FF"/>
	<stop  offset="0.9247" style="stop-color:#3794FF"/>
	<stop  offset="1" style="stop-color:#4089FF"/>
</linearGradient>
<rect x="490" y="470" fill="url(#SVGID_80_)" width="8" height="32"/>
<linearGradient id="SVGID_81_" gradientUnits="userSpaceOnUse" x1="525" y1="473.4853" x2="525" y2="503.2754">
	<stop  offset="0" style="stop-color:#E5E5E5"/>
	<stop  offset="1" style="stop-color:#CECECE"/>
</linearGradient>
<path fill="url(#SVGID_81_)" d="M538,502h-40v-28h40c7.732,0,14,6.268,14,14v0C552,495.732,545.732,502,538,502z"/>
<linearGradient id="SVGID_82_" gradientUnits="userSpaceOnUse" x1="446" y1="323.75" x2="446" y2="339.7677">
	<stop  offset="0" style="stop-color:#EDEDED"/>
	<stop  offset="1" style="stop-color:#DDDDDD"/>
</linearGradient>
<path fill="url(#SVGID_82_)" d="M448,340L448,340l2,0v-16h-2v0c-3.314,0-6,2.686-6,6v4C442,337.314,444.686,340,448,340z"/>
<linearGradient id="SVGID_83_" gradientUnits="userSpaceOnUse" x1="550" y1="324" x2="550" y2="340.0489">
	<stop  offset="0" style="stop-color:#EDEDED"/>
	<stop  offset="1" style="stop-color:#DDDDDD"/>
</linearGradient>
<path fill="url(#SVGID_83_)" d="M548,340L548,340l-2,0v-16h2v0c3.314,0,6,2.686,6,6v4C554,337.314,551.314,340,548,340z"/>
<linearGradient id="SVGID_84_" gradientUnits="userSpaceOnUse" x1="516" y1="327.8748" x2="516" y2="336.0911">
	<stop  offset="0" style="stop-color:#4C4B4B"/>
	<stop  offset="1" style="stop-color:#3A3838"/>
</linearGradient>
<circle fill="url(#SVGID_84_)" cx="516" cy="332" r="4"/>
<linearGradient id="SVGID_85_" gradientUnits="userSpaceOnUse" x1="480" y1="327.8748" x2="480" y2="336.0911">
	<stop  offset="0" style="stop-color:#4C4B4B"/>
	<stop  offset="1" style="stop-color:#3A3838"/>
</linearGradient>
<circle fill="url(#SVGID_85_)" cx="480" cy="332" r="4"/>
<linearGradient id="SVGID_86_" gradientUnits="userSpaceOnUse" x1="498" y1="319.4998" x2="498" y2="345.2388">
	<stop  offset="0" style="stop-color:#FF7E45"/>
	<stop  offset="1" style="stop-color:#F44293"/>
</linearGradient>
<path fill="url(#SVGID_86_)" d="M516,320c-5.427,0-10.018,3.623-11.496,8.575c-3.941-2-9.067-2-13.009,0
	C490.018,323.623,485.427,320,480,320c-6.617,0-12,5.383-12,12s5.383,12,12,12c6.28,0,11.439-4.851,11.949-11.001
	c3.187-2.6,8.914-2.6,12.101,0C504.561,339.149,509.72,344,516,344c6.617,0,12-5.383,12-12S522.617,320,516,320z M480,340
	c-4.411,0-8-3.589-8-8s3.589-8,8-8s8,3.589,8,8S484.411,340,480,340z M516,340c-4.411,0-8-3.589-8-8s3.589-8,8-8s8,3.589,8,8
	S520.411,340,516,340z"/>
<linearGradient id="SVGID_87_" gradientUnits="userSpaceOnUse" x1="578.9091" y1="446" x2="536.6144" y2="446">
	<stop  offset="0" style="stop-color:#F9D432"/>
	<stop  offset="0.2046" style="stop-color:#F9D536"/>
	<stop  offset="0.4167" style="stop-color:#FAD943"/>
	<stop  offset="0.6322" style="stop-color:#FBDF57"/>
	<stop  offset="0.8486" style="stop-color:#FDE874"/>
	<stop  offset="1" style="stop-color:#FFF08D"/>
</linearGradient>
<path fill="url(#SVGID_87_)" d="M578,454h-32c-4.418,0-8-3.582-8-8v-8h40V454z"/>
<linearGradient id="SVGID_88_" gradientUnits="userSpaceOnUse" x1="594" y1="438" x2="594" y2="455.7658">
	<stop  offset="0" style="stop-color:#F9D6BD"/>
	<stop  offset="1" style="stop-color:#F9CEB2"/>
</linearGradient>
<path fill="url(#SVGID_88_)" d="M603,438h-21v16h8v-10h13c1.657,0,3-1.343,3-3S604.657,438,603,438z"/>
<linearGradient id="SVGID_89_" gradientUnits="userSpaceOnUse" x1="579" y1="456.25" x2="579" y2="435.4459">
	<stop  offset="0" style="stop-color:#F9D432"/>
	<stop  offset="0.2412" style="stop-color:#FBDC4B"/>
	<stop  offset="0.7476" style="stop-color:#FEEA7B"/>
	<stop  offset="1" style="stop-color:#FFF08D"/>
</linearGradient>
<path fill="url(#SVGID_89_)" d="M582,438c0-1.105-0.895-2-2-2h-2c-1.105,0-2,0.895-2,2v16c0,1.105,0.895,2,2,2h2
	c1.105,0,2-0.895,2-2V438z"/>
<linearGradient id="SVGID_90_" gradientUnits="userSpaceOnUse" x1="571.5" y1="446" x2="576.625" y2="446">
	<stop  offset="0" style="stop-color:#7E3615;stop-opacity:0"/>
	<stop  offset="1" style="stop-color:#8F3900;stop-opacity:0.05"/>
</linearGradient>
<rect x="572" y="438" fill="url(#SVGID_90_)" width="4" height="16"/>
<linearGradient id="SVGID_91_" gradientUnits="userSpaceOnUse" x1="546" y1="399.6042" x2="546" y2="438.1979">
	<stop  offset="0" style="stop-color:#D44000;stop-opacity:0"/>
	<stop  offset="1" style="stop-color:#A24520;stop-opacity:0.15"/>
</linearGradient>
<rect x="538" y="400" fill="url(#SVGID_91_)" width="16" height="38"/>
<linearGradient id="SVGID_92_" gradientUnits="userSpaceOnUse" x1="543" y1="317.25" x2="543" y2="346.2597">
	<stop  offset="0" style="stop-color:#575C72"/>
	<stop  offset="0.4314" style="stop-color:#515569"/>
	<stop  offset="1" style="stop-color:#434556"/>
</linearGradient>
<path fill="url(#SVGID_92_)" d="M548,341c0,2.761-2.239,5-5,5l0,0c-2.761,0-5-2.239-5-5v-18c0-2.761,2.239-5,5-5l0,0
	c2.761,0,5,2.239,5,5V341z"/>
<linearGradient id="XMLID_3_" gradientUnits="userSpaceOnUse" x1="453" y1="317.25" x2="453" y2="346.2597">
	<stop  offset="0" style="stop-color:#575C72"/>
	<stop  offset="0.4314" style="stop-color:#515569"/>
	<stop  offset="1" style="stop-color:#434556"/>
</linearGradient>
<path id="XMLID_2_" fill="url(#XMLID_3_)" d="M458,341c0,2.761-2.239,5-5,5l0,0c-2.761,0-5-2.239-5-5v-18c0-2.761,2.239-5,5-5l0,0
	c2.761,0,5,2.239,5,5V341z"/>
<linearGradient id="SVGID_93_" gradientUnits="userSpaceOnUse" x1="480" y1="313.8889" x2="480" y2="318.2266">
	<stop  offset="0" style="stop-color:#F9536B"/>
	<stop  offset="0.4556" style="stop-color:#F65074"/>
	<stop  offset="1" style="stop-color:#EF4A85"/>
</linearGradient>
<path fill="url(#SVGID_93_)" d="M486,316c0,1.105-0.895,2-2,2h-8c-1.105,0-2-0.895-2-2l0,0c0-1.105,0.895-2,2-2h8
	C485.105,314,486,314.895,486,316L486,316z"/>
<linearGradient id="SVGID_94_" gradientUnits="userSpaceOnUse" x1="506" y1="494.2083" x2="506" y2="481.6966">
	<stop  offset="0" style="stop-color:#3A3C3D"/>
	<stop  offset="0.5013" style="stop-color:#44484B"/>
	<stop  offset="1" style="stop-color:#4B4F54"/>
</linearGradient>
<path fill="url(#SVGID_94_)" d="M508,492c0,1.105-0.895,2-2,2l0,0c-1.105,0-2-0.895-2-2v-8c0-1.105,0.895-2,2-2l0,0
	c1.105,0,2,0.895,2,2V492z"/>
<linearGradient id="SVGID_95_" gradientUnits="userSpaceOnUse" x1="514" y1="494.2083" x2="514" y2="481.6966">
	<stop  offset="0" style="stop-color:#3A3C3D"/>
	<stop  offset="0.5013" style="stop-color:#44484B"/>
	<stop  offset="1" style="stop-color:#4B4F54"/>
</linearGradient>
<path fill="url(#SVGID_95_)" d="M516,492c0,1.105-0.895,2-2,2l0,0c-1.105,0-2-0.895-2-2v-8c0-1.105,0.895-2,2-2l0,0
	c1.105,0,2,0.895,2,2V492z"/>
<linearGradient id="SVGID_96_" gradientUnits="userSpaceOnUse" x1="522" y1="494.2083" x2="522" y2="481.6966">
	<stop  offset="0" style="stop-color:#3A3C3D"/>
	<stop  offset="0.5013" style="stop-color:#44484B"/>
	<stop  offset="1" style="stop-color:#4B4F54"/>
</linearGradient>
<path fill="url(#SVGID_96_)" d="M524,492c0,1.105-0.895,2-2,2l0,0c-1.105,0-2-0.895-2-2v-8c0-1.105,0.895-2,2-2l0,0
	c1.105,0,2,0.895,2,2V492z"/>
<linearGradient id="SVGID_97_" gradientUnits="userSpaceOnUse" x1="544" y1="501.9998" x2="544" y2="473.9998">
	<stop  offset="0" style="stop-color:#3A3C3D"/>
	<stop  offset="0.5013" style="stop-color:#44484B"/>
	<stop  offset="1" style="stop-color:#4B4F54"/>
</linearGradient>
<path fill="none" stroke="url(#SVGID_97_)" stroke-width="4" stroke-linecap="round" stroke-linejoin="round" stroke-miterlimit="10" d="
	M538,476c6.627,0,12,5.373,12,12c0,6.627-5.373,12-12,12V476z"/>
<linearGradient id="SVGID_98_" gradientUnits="userSpaceOnUse" x1="548.9697" y1="487.9998" x2="531.3923" y2="487.9998">
	<stop  offset="0" style="stop-color:#FFFFFF;stop-opacity:0.8"/>
	<stop  offset="0.5523" style="stop-color:#F6F6F6;stop-opacity:0.4686"/>
	<stop  offset="1" style="stop-color:#EBEBEB;stop-opacity:0.2"/>
</linearGradient>
<path fill="url(#SVGID_98_)" d="M548,488c0,5.523-4.477,10-10,10c-4,0-6-4.477-6-10c0-5.523,2-10,6-10
	C543.523,478,548,482.477,548,488z"/>
<linearGradient id="SVGID_99_" gradientUnits="userSpaceOnUse" x1="516" y1="313.8889" x2="516" y2="318.2266">
	<stop  offset="0" style="stop-color:#F9536B"/>
	<stop  offset="0.4556" style="stop-color:#F65074"/>
	<stop  offset="1" style="stop-color:#EF4A85"/>
</linearGradient>
<path fill="url(#SVGID_99_)" d="M522,316c0,1.105-0.895,2-2,2h-8c-1.105,0-2-0.895-2-2l0,0c0-1.105,0.895-2,2-2h8
	C521.105,314,522,314.895,522,316L522,316z"/>
<linearGradient id="SVGID_100_" gradientUnits="userSpaceOnUse" x1="551.6667" y1="277.0002" x2="445.6661" y2="277.0002">
	<stop  offset="0" style="stop-color:#575C72"/>
	<stop  offset="0.4314" style="stop-color:#515569"/>
	<stop  offset="1" style="stop-color:#434556"/>
</linearGradient>
<path fill="url(#SVGID_100_)" d="M450.615,298.001c-0.424,0-0.855-0.067-1.279-0.211c-2.093-0.707-3.217-2.977-2.511-5.069
	C454.238,270.757,474.804,256,498,256c23.191,0,43.757,14.754,51.173,36.712c0.706,2.094-0.417,4.363-2.51,5.07
	c-2.098,0.706-4.364-0.418-5.07-2.51C535.276,276.567,517.757,264,498,264c-19.761,0-37.28,12.57-43.595,31.279
	C453.842,296.948,452.285,298.001,450.615,298.001z"/>
<linearGradient id="SVGID_101_" gradientUnits="userSpaceOnUse" x1="498" y1="463.8333" x2="498" y2="470.7545">
	<stop  offset="0" style="stop-color:#575C72"/>
	<stop  offset="0.461" style="stop-color:#555A6F"/>
	<stop  offset="0.7378" style="stop-color:#4F5367"/>
	<stop  offset="0.9658" style="stop-color:#454759"/>
	<stop  offset="1" style="stop-color:#434556"/>
</linearGradient>
<path fill="url(#SVGID_101_)" d="M556,470H440c-1.105,0-2-0.896-2-2v-4h120v4C558,469.104,557.105,470,556,470z"/>
<linearGradient id="SVGID_102_" gradientUnits="userSpaceOnUse" x1="498" y1="407" x2="498" y2="471.6744">
	<stop  offset="0" style="stop-color:#575C72"/>
	<stop  offset="0.461" style="stop-color:#555A6F"/>
	<stop  offset="0.7378" style="stop-color:#4F5367"/>
	<stop  offset="0.9658" style="stop-color:#454759"/>
	<stop  offset="1" style="stop-color:#434556"/>
</linearGradient>
<path fill="url(#SVGID_102_)" d="M546,470h-96v-60c0-1.105,0.895-2,2-2h92c1.105,0,2,0.895,2,2V470z"/>
<linearGradient id="SVGID_103_" gradientUnits="userSpaceOnUse" x1="498" y1="450.2498" x2="498" y2="426.7349">
	<stop  offset="0" style="stop-color:#302926;stop-opacity:0"/>
	<stop  offset="1" style="stop-color:#000000;stop-opacity:0.2"/>
</linearGradient>
<circle fill="url(#SVGID_103_)" cx="498" cy="439" r="10"/>
</svg>
