<?xml version="1.0" encoding="iso-8859-1"?>
<!-- Generator: Adobe Illustrator 22.1.0, SVG Export Plug-In . SVG Version: 6.00 Build 0)  -->
<svg version="1.1" id="message_x5F_sent" xmlns="http://www.w3.org/2000/svg" xmlns:xlink="http://www.w3.org/1999/xlink" x="0px"
	 y="0px" viewBox="0 0 800 600" enable-background="new 0 0 800 600" xml:space="preserve">
<linearGradient id="SVGID_1_" gradientUnits="userSpaceOnUse" x1="388" y1="123.6667" x2="388" y2="370.769">
	<stop  offset="0" style="stop-color:#D22DB7;stop-opacity:0.55"/>
	<stop  offset="0.0042" style="stop-color:#D331B8;stop-opacity:0.5519"/>
	<stop  offset="0.0573" style="stop-color:#DC5CC7;stop-opacity:0.5758"/>
	<stop  offset="0.1147" style="stop-color:#E482D4;stop-opacity:0.6016"/>
	<stop  offset="0.1781" style="stop-color:#ECA4E0;stop-opacity:0.6302"/>
	<stop  offset="0.2474" style="stop-color:#F2C1EA;stop-opacity:0.6613"/>
	<stop  offset="0.3245" style="stop-color:#F7D8F1;stop-opacity:0.696"/>
	<stop  offset="0.4128" style="stop-color:#FAE9F8;stop-opacity:0.7358"/>
	<stop  offset="0.5194" style="stop-color:#FDF6FC;stop-opacity:0.7837"/>
	<stop  offset="0.6627" style="stop-color:#FFFDFE;stop-opacity:0.8482"/>
	<stop  offset="1" style="stop-color:#FFFFFF"/>
</linearGradient>
<circle fill="url(#SVGID_1_)" cx="388" cy="254" r="122"/>
<linearGradient id="SVGID_2_" gradientUnits="userSpaceOnUse" x1="520" y1="199.248" x2="520" y2="460.8183">
	<stop  offset="0" style="stop-color:#2ECAFF"/>
	<stop  offset="0.207" style="stop-color:#2FC6FF"/>
	<stop  offset="0.4215" style="stop-color:#30B9FF"/>
	<stop  offset="0.6395" style="stop-color:#33A5FF"/>
	<stop  offset="0.8584" style="stop-color:#3888FF"/>
	<stop  offset="1" style="stop-color:#3B71FF"/>
</linearGradient>
<path fill="url(#SVGID_2_)" d="M598,226v228c0,3.32-2.68,6-6,6h-20c-3.32,0-6-2.68-6-6v-32c0-1.1-0.9-2-2-2H442V226
	c0-13.26,10.74-24,24-24h108C587.26,202,598,212.74,598,226z"/>
<linearGradient id="SVGID_3_" gradientUnits="userSpaceOnUse" x1="186.0568" y1="221.7151" x2="330.2315" y2="458.759">
	<stop  offset="0" style="stop-color:#F74887"/>
	<stop  offset="0.1388" style="stop-color:#E73B91"/>
	<stop  offset="0.5156" style="stop-color:#BF1BAA"/>
	<stop  offset="0.8159" style="stop-color:#A707B9"/>
	<stop  offset="1" style="stop-color:#9E00BF"/>
</linearGradient>
<path fill="url(#SVGID_3_)" d="M316,220H200c-7.732,0-14,6.268-14,14v60l-1.784,0.892c-1.358,0.679-2.216,2.067-2.216,3.586V314
	c0,1.519,0.858,2.907,2.216,3.586l1.784,0.892V328l-1.784,0.892c-1.358,0.679-2.216,2.067-2.216,3.586v12.566
	c0,1.519,0.858,2.907,2.216,3.586l1.784,0.892V446c0,7.732,6.268,14,14,14h116c7.732,0,14-6.268,14-14V234
	C330,226.268,323.732,220,316,220z"/>
<linearGradient id="SVGID_4_" gradientUnits="userSpaceOnUse" x1="150" y1="464" x2="634" y2="464">
	<stop  offset="0" style="stop-color:#EDEDED"/>
	<stop  offset="1" style="stop-color:#DDDDDD"/>
</linearGradient>
<rect x="150" y="460" fill="url(#SVGID_4_)" width="484" height="8"/>
<path fill="#FFFFFF" d="M320,236v208c0,3.314-2.686,6-6,6H202c-3.314,0-6-2.686-6-6V236c0-3.314,2.686-6,6-6h30.953
	c1.84,0,3.495,1.12,4.178,2.829l1.737,4.343c0.683,1.708,2.338,2.829,4.178,2.829h29.907c1.84,0,3.495-1.12,4.178-2.829l1.737-4.343
	c0.683-1.708,2.338-2.829,4.178-2.829H314C317.314,230,320,232.686,320,236z"/>
<linearGradient id="SVGID_5_" gradientUnits="userSpaceOnUse" x1="300" y1="268.5" x2="300" y2="291.5217">
	<stop  offset="0" style="stop-color:#EBEBEB"/>
	<stop  offset="0.5523" style="stop-color:#E2E2E2"/>
	<stop  offset="1" style="stop-color:#D7D7D7"/>
</linearGradient>
<circle fill="url(#SVGID_5_)" cx="300" cy="280" r="10"/>
<linearGradient id="SVGID_6_" gradientUnits="userSpaceOnUse" x1="206" y1="287" x2="288.0076" y2="287">
	<stop  offset="0" style="stop-color:#EBEBEB"/>
	<stop  offset="1" style="stop-color:#E9E9E9"/>
</linearGradient>
<path fill="url(#SVGID_6_)" d="M208,304h79c0.94,0,1.366-1.176,0.644-1.778l-6.924-7.622c-0.456-0.38-0.72-0.943-0.72-1.536V272
	c0-1.105-0.895-2-2-2h-70c-1.105,0-2,0.895-2,2v30C206,303.105,206.895,304,208,304z"/>
<linearGradient id="SVGID_7_" gradientUnits="userSpaceOnUse" x1="312.0394" y1="337" x2="227.2919" y2="337">
	<stop  offset="0" style="stop-color:#EBEBEB"/>
	<stop  offset="1" style="stop-color:#E9E9E9"/>
</linearGradient>
<path fill="url(#SVGID_7_)" d="M308,354h-79c-0.943,0-1.37-1.179-0.645-1.783l6.926-7.618c0.456-0.38,0.72-0.943,0.72-1.536V322
	c0-1.105,0.895-2,2-2h70c1.105,0,2,0.895,2,2v30C310,353.105,309.105,354,308,354z"/>
<linearGradient id="SVGID_8_" gradientUnits="userSpaceOnUse" x1="216" y1="319.75" x2="216" y2="339.789">
	<stop  offset="0" style="stop-color:#EBEBEB"/>
	<stop  offset="0.5523" style="stop-color:#E2E2E2"/>
	<stop  offset="1" style="stop-color:#D7D7D7"/>
</linearGradient>
<circle fill="url(#SVGID_8_)" cx="216" cy="330" r="10"/>
<linearGradient id="SVGID_9_" gradientUnits="userSpaceOnUse" x1="292.1446" y1="387" x2="204.1721" y2="387">
	<stop  offset="0" style="stop-color:#EBEBEB"/>
	<stop  offset="1" style="stop-color:#E9E9E9"/>
</linearGradient>
<path fill="url(#SVGID_9_)" d="M208,404h78.476c1.871,0,2.717-2.339,1.28-3.536l-7.037-5.864c-0.456-0.38-0.72-0.943-0.72-1.536V372
	c0-1.105-0.895-2-2-2h-70c-1.105,0-2,0.895-2,2v30C206,403.105,206.895,404,208,404z"/>
<path fill="#B6B9B9" d="M276,292c0-1.105-0.895-2-2-2h-32c-1.105,0-2,0.895-2,2l0,0c0,1.105,0.895,2,2,2h32
	C275.105,294,276,293.105,276,292L276,292z"/>
<path fill="#B6B9B9" d="M266,332c0,1.105-0.895,2-2,2h-20c-1.105,0-2-0.895-2-2l0,0c0-1.105,0.895-2,2-2h20
	C265.105,330,266,330.895,266,332L266,332z"/>
<path fill="#B6B9B9" d="M262,342c0,1.105-0.895,2-2,2h-16c-1.105,0-2-0.895-2-2l0,0c0-1.105,0.895-2,2-2h16
	C261.105,340,262,340.895,262,342L262,342z"/>
<path fill="#B6B9B9" d="M266,380h-52c-1.105,0-2,0.895-2,2c0,1.104,0.895,2,2,2h52c1.105,0,2-0.896,2-2
	C268,380.895,267.105,380,266,380z"/>
<linearGradient id="SVGID_10_" gradientUnits="userSpaceOnUse" x1="508.78" y1="454" x2="268.021" y2="454">
	<stop  offset="0" style="stop-color:#B6B9B9"/>
	<stop  offset="1" style="stop-color:#CECECE"/>
</linearGradient>
<path fill="url(#SVGID_10_)" d="M502,460H274c-4.418,0-8-3.582-8-8l0,0v-2c0-1.105,0.895-2,2-2h240c1.105,0,2,0.895,2,2v2l0,0
	C510,456.418,506.418,460,502,460z"/>
<linearGradient id="SVGID_11_" gradientUnits="userSpaceOnUse" x1="358" y1="450" x2="418" y2="450">
	<stop  offset="0" style="stop-color:#302926;stop-opacity:0.1"/>
	<stop  offset="0.2844" style="stop-color:#2C2523;stop-opacity:0.1427"/>
	<stop  offset="0.579" style="stop-color:#1F1B19;stop-opacity:0.1868"/>
	<stop  offset="0.8773" style="stop-color:#0B0909;stop-opacity:0.2316"/>
	<stop  offset="1" style="stop-color:#000000;stop-opacity:0.25"/>
</linearGradient>
<path fill="url(#SVGID_11_)" d="M413.528,452h-51.055c-1.515,0-2.9-0.856-3.578-2.211L358,448h60l-0.894,1.789
	C416.428,451.144,415.043,452,413.528,452z"/>
<linearGradient id="SVGID_12_" gradientUnits="userSpaceOnUse" x1="298.3585" y1="288.1159" x2="480.9425" y2="470.6999">
	<stop  offset="0" style="stop-color:#45A0FF"/>
	<stop  offset="0.0516" style="stop-color:#4B96FE"/>
	<stop  offset="0.3713" style="stop-color:#6C60F9"/>
	<stop  offset="0.6473" style="stop-color:#8538F6"/>
	<stop  offset="0.8659" style="stop-color:#9420F4"/>
	<stop  offset="1" style="stop-color:#9917F3"/>
</linearGradient>
<path fill="url(#SVGID_12_)" d="M494,448H282V310c0-3.314,2.686-6,6-6h200c3.314,0,6,2.686,6,6V448z"/>
<linearGradient id="SVGID_13_" gradientUnits="userSpaceOnUse" x1="388" y1="318.6087" x2="388" y2="432.7903">
	<stop  offset="0" style="stop-color:#FFFFF0"/>
	<stop  offset="0.6262" style="stop-color:#FDFDEF"/>
	<stop  offset="0.8919" style="stop-color:#F6F6ED"/>
	<stop  offset="1" style="stop-color:#F0F0EB"/>
</linearGradient>
<path fill="url(#SVGID_13_)" d="M480,436H296c-1.105,0-2-0.895-2-2V318c0-1.105,0.895-2,2-2h184c1.105,0,2,0.895,2,2v116
	C482,435.105,481.105,436,480,436z"/>
<linearGradient id="SVGID_14_" gradientUnits="userSpaceOnUse" x1="294" y1="326" x2="482" y2="326">
	<stop  offset="0" style="stop-color:#FFFFE8"/>
	<stop  offset="1" style="stop-color:#EBEBEB"/>
</linearGradient>
<path fill="url(#SVGID_14_)" d="M482,336H294v-18c0-1.105,0.895-2,2-2h184c1.105,0,2,0.895,2,2V336z"/>
<linearGradient id="SVGID_15_" gradientUnits="userSpaceOnUse" x1="305" y1="323.8125" x2="305" y2="330.0028">
	<stop  offset="0" style="stop-color:#FF7955"/>
	<stop  offset="0.4556" style="stop-color:#FF705E"/>
	<stop  offset="1" style="stop-color:#FF5F6F"/>
</linearGradient>
<circle fill="url(#SVGID_15_)" cx="305" cy="327" r="3"/>
<linearGradient id="SVGID_16_" gradientUnits="userSpaceOnUse" x1="319" y1="323.5312" x2="319" y2="330.0964">
	<stop  offset="0" style="stop-color:#FFE552"/>
	<stop  offset="1" style="stop-color:#FFAE39"/>
</linearGradient>
<circle fill="url(#SVGID_16_)" cx="319" cy="327" r="3"/>
<linearGradient id="SVGID_17_" gradientUnits="userSpaceOnUse" x1="333" y1="323.9062" x2="333" y2="330.0016">
	<stop  offset="0" style="stop-color:#00E35E"/>
	<stop  offset="1" style="stop-color:#00B248"/>
</linearGradient>
<circle fill="url(#SVGID_17_)" cx="333" cy="327" r="3"/>
<linearGradient id="SVGID_18_" gradientUnits="userSpaceOnUse" x1="388" y1="347.3481" x2="388" y2="439.0445">
	<stop  offset="0" style="stop-color:#4C29E0;stop-opacity:0.05"/>
	<stop  offset="0.1319" style="stop-color:#4832DF;stop-opacity:0.0698"/>
	<stop  offset="0.3471" style="stop-color:#3F4ADD;stop-opacity:0.1021"/>
	<stop  offset="0.6188" style="stop-color:#2F72DA;stop-opacity:0.1428"/>
	<stop  offset="0.9335" style="stop-color:#1AA9D5;stop-opacity:0.19"/>
	<stop  offset="1" style="stop-color:#15B5D4;stop-opacity:0.2"/>
</linearGradient>
<polygon fill="url(#SVGID_18_)" points="438,437 338,437 338,376 358,346 418,346 438,376 "/>
<linearGradient id="SVGID_19_" gradientUnits="userSpaceOnUse" x1="388" y1="287" x2="388" y2="375.0909">
	<stop  offset="0" style="stop-color:#5EE8FF"/>
	<stop  offset="0.1783" style="stop-color:#5DE4FF"/>
	<stop  offset="0.363" style="stop-color:#59D7FF"/>
	<stop  offset="0.5508" style="stop-color:#53C3FF"/>
	<stop  offset="0.7406" style="stop-color:#4AA6FF"/>
	<stop  offset="0.9303" style="stop-color:#4081FF"/>
	<stop  offset="1" style="stop-color:#3B71FF"/>
</linearGradient>
<polygon fill="url(#SVGID_19_)" points="372,354 388,284 404,354 388,374 "/>
<linearGradient id="SVGID_20_" gradientUnits="userSpaceOnUse" x1="396" y1="300.3333" x2="396" y2="374.6683">
	<stop  offset="0" style="stop-color:#302926;stop-opacity:0"/>
	<stop  offset="0.1841" style="stop-color:#2B252F;stop-opacity:0.0405"/>
	<stop  offset="0.4844" style="stop-color:#1E1A47;stop-opacity:0.1066"/>
	<stop  offset="0.8612" style="stop-color:#09086F;stop-opacity:0.1895"/>
	<stop  offset="1" style="stop-color:#00007F;stop-opacity:0.22"/>
</linearGradient>
<polygon fill="url(#SVGID_20_)" points="388,284 404,354 388,374 "/>
<linearGradient id="SVGID_21_" gradientUnits="userSpaceOnUse" x1="388" y1="375.5954" x2="388" y2="271.0639">
	<stop  offset="0" style="stop-color:#55C2FF"/>
	<stop  offset="1" style="stop-color:#C9FFFF"/>
</linearGradient>
<path fill="url(#SVGID_21_)" d="M383.407,352.309L338,376l48.923-103.716c0.43-0.911,1.725-0.911,2.155,0L438,376l-45.407-23.691
	c-0.368-0.192-0.61-0.562-0.638-0.977l-3.159-47.386c-0.066-0.993-1.527-0.993-1.593,0l-3.159,47.386
	C384.017,351.747,383.775,352.117,383.407,352.309z"/>
<linearGradient id="SVGID_22_" gradientUnits="userSpaceOnUse" x1="258" y1="233.75" x2="258" y2="230.2478">
	<stop  offset="0" style="stop-color:#302926;stop-opacity:0"/>
	<stop  offset="0.2378" style="stop-color:#342628;stop-opacity:0.0404"/>
	<stop  offset="0.4841" style="stop-color:#411F2E;stop-opacity:0.0823"/>
	<stop  offset="0.7343" style="stop-color:#551238;stop-opacity:0.1248"/>
	<stop  offset="0.9859" style="stop-color:#720145;stop-opacity:0.1676"/>
	<stop  offset="1" style="stop-color:#740046;stop-opacity:0.17"/>
</linearGradient>
<path fill="url(#SVGID_22_)" d="M320,234.5v4c0-2.48-2.02-4.5-4.5-4.5h-32.46c-1.84,0-3.48,1.12-4.18,2.82l-1.72,4.36
	c-0.7,1.7-2.34,2.82-4.18,2.82h-29.92c-1.84,0-3.48-1.12-4.18-2.82l-1.72-4.36c-0.7-1.7-2.34-2.82-4.18-2.82H200.5
	c-2.48,0-4.5,2.02-4.5,4.5v-4c0-2.48,2.02-4.5,4.5-4.5h32.46c1.84,0,3.48,1.12,4.18,2.82l1.72,4.36c0.7,1.7,2.34,2.82,4.18,2.82
	h29.92c1.84,0,3.48-1.12,4.18-2.82l1.72-4.36c0.7-1.7,2.34-2.82,4.18-2.82h32.46C317.98,230,320,232.02,320,234.5z"/>
<path fill="#E0E0E0" d="M271,444h-30c-1.105,0-2-0.895-2-2l0,0c0-1.105,0.895-2,2-2h30c1.105,0,2,0.895,2,2l0,0
	C273,443.105,272.105,444,271,444z"/>
<linearGradient id="SVGID_23_" gradientUnits="userSpaceOnUse" x1="196" y1="170.5" x2="196" y2="267.8717">
	<stop  offset="0" style="stop-color:#EC6BF7"/>
	<stop  offset="0.2068" style="stop-color:#E36AF8"/>
	<stop  offset="0.544" style="stop-color:#CB68FA"/>
	<stop  offset="0.9674" style="stop-color:#A364FF"/>
	<stop  offset="1" style="stop-color:#A064FF"/>
</linearGradient>
<circle fill="url(#SVGID_23_)" cx="196" cy="220" r="46"/>
<path opacity="0.25" d="M222,218c0,3.86-3.14,7-7,7s-7-3.14-7-7s3.14-7,7-7c1.1,0,2.16,0.26,3.08,0.72
	c-0.66,0.54-1.08,1.36-1.08,2.28c0,1.66,1.34,3,3,3c0.68,0,1.3-0.22,1.8-0.62C221.94,216.9,222,217.44,222,218z"/>
<path opacity="0.25" d="M207.78,230.3c-0.64,3.36-2.72,6.24-5.56,7.96c-1.82,1.1-3.94,1.74-6.22,1.74s-4.4-0.64-6.22-1.74
	c-2.84-1.72-4.92-4.6-5.56-7.96c-0.24-1.2,0.76-2.3,1.98-2.3h19.6C207.02,228,208.02,229.1,207.78,230.3z"/>
<path opacity="0.2" d="M202.22,238.26c-1.82,1.1-3.94,1.74-6.22,1.74s-4.4-0.64-6.22-1.74c1.14-1.7,3.5-2.26,6.22-2.26
	S201.08,236.56,202.22,238.26z"/>
<path opacity="0.1" d="M218.08,211.72c-0.44,0.36-0.76,0.84-0.92,1.38c-0.68-0.22-1.4-0.34-2.16-0.34c-3.56,0-6.5,2.66-6.94,6.12
	c-0.04-0.28-0.06-0.58-0.06-0.88c0-3.86,3.14-7,7-7C216.1,211,217.16,211.26,218.08,211.72z"/>
<linearGradient id="SVGID_24_" gradientUnits="userSpaceOnUse" x1="164.25" y1="191.0255" x2="196.0157" y2="191.0255">
	<stop  offset="0" style="stop-color:#FFFFED;stop-opacity:0"/>
	<stop  offset="1" style="stop-color:#FFFFFF;stop-opacity:0.3"/>
</linearGradient>
<path fill="url(#SVGID_24_)" d="M167.5,201c-0.641,0-1.287-0.204-1.833-0.627c-1.311-1.013-1.552-2.897-0.538-4.208
	c6.943-8.981,17.407-14.487,28.707-15.105c1.632-0.128,3.069,1.176,3.159,2.831c0.091,1.654-1.177,3.069-2.831,3.159
	c-9.559,0.523-18.411,5.184-24.289,12.785C169.284,200.6,168.396,201,167.5,201z"/>
<linearGradient id="SVGID_25_" gradientUnits="userSpaceOnUse" x1="196" y1="215" x2="196" y2="270.0755">
	<stop  offset="0" style="stop-color:#302926;stop-opacity:0"/>
	<stop  offset="0.3876" style="stop-color:#2D2724;stop-opacity:0.0698"/>
	<stop  offset="0.6206" style="stop-color:#25201D;stop-opacity:0.1117"/>
	<stop  offset="0.8122" style="stop-color:#171412;stop-opacity:0.1462"/>
	<stop  offset="0.9812" style="stop-color:#030202;stop-opacity:0.1766"/>
	<stop  offset="1" style="stop-color:#000000;stop-opacity:0.18"/>
</linearGradient>
<path fill="url(#SVGID_25_)" d="M242,220c0,25.4-20.6,46-46,46s-46-20.6-46-46c0-1.36,0.06-2.68,0.18-4
	c2.02,23.54,21.78,42,45.82,42s43.8-18.46,45.82-42C241.94,217.32,242,218.64,242,220z"/>
<path opacity="0.25" d="M184,218c0,3.86-3.14,7-7,7s-7-3.14-7-7s3.14-7,7-7c1.1,0,2.16,0.26,3.08,0.72
	c-0.66,0.54-1.08,1.36-1.08,2.28c0,1.66,1.34,3,3,3c0.68,0,1.3-0.22,1.8-0.62C183.94,216.9,184,217.44,184,218z"/>
<path opacity="0.1" d="M180.08,211.72c-0.44,0.36-0.76,0.84-0.92,1.38c-0.68-0.22-1.4-0.34-2.16-0.34c-3.56,0-6.5,2.66-6.94,6.12
	c-0.04-0.28-0.06-0.58-0.06-0.88c0-3.86,3.14-7,7-7C178.1,211,179.16,211.26,180.08,211.72z"/>
<linearGradient id="SVGID_26_" gradientUnits="userSpaceOnUse" x1="216" y1="220" x2="216" y2="270">
	<stop  offset="0" style="stop-color:#302926;stop-opacity:0"/>
	<stop  offset="0.3876" style="stop-color:#2D2724;stop-opacity:0.0581"/>
	<stop  offset="0.6206" style="stop-color:#25201D;stop-opacity:0.0931"/>
	<stop  offset="0.8122" style="stop-color:#171412;stop-opacity:0.1218"/>
	<stop  offset="0.9812" style="stop-color:#030202;stop-opacity:0.1472"/>
	<stop  offset="1" style="stop-color:#000000;stop-opacity:0.15"/>
</linearGradient>
<path fill="url(#SVGID_26_)" d="M246,220c0,27.62-22.38,50-50,50c-3.42,0-6.76-0.34-10-1v-4.12c3.22,0.74,6.56,1.12,10,1.12
	c25.4,0,46-20.6,46-46H246z"/>
<linearGradient id="SVGID_27_" gradientUnits="userSpaceOnUse" x1="520" y1="230.3333" x2="520" y2="253.0025">
	<stop  offset="0" style="stop-color:#3EA3FF"/>
	<stop  offset="0.2493" style="stop-color:#3AA1FD"/>
	<stop  offset="0.5076" style="stop-color:#2D9BF7"/>
	<stop  offset="0.769" style="stop-color:#1992EC"/>
	<stop  offset="1" style="stop-color:#0086E0"/>
</linearGradient>
<path fill="url(#SVGID_27_)" d="M582,234v16c0,1.1-0.9,2-2,2H460c-1.1,0-2-0.9-2-2v-16c0-1.1,0.9-2,2-2h120
	C581.1,232,582,232.9,582,234z"/>
<linearGradient id="SVGID_28_" gradientUnits="userSpaceOnUse" x1="520" y1="174" x2="520" y2="251.4145">
	<stop  offset="0" style="stop-color:#F5F5DC"/>
	<stop  offset="0.5137" style="stop-color:#F2F2DD"/>
	<stop  offset="0.8222" style="stop-color:#EAEADF"/>
	<stop  offset="1" style="stop-color:#E1E1E1"/>
</linearGradient>
<path fill="url(#SVGID_28_)" d="M566,178v74h-92v-74c0-1.1,0.44-2.1,1.18-2.82c0.72-0.74,1.72-1.18,2.82-1.18h84
	c1.1,0,2.1,0.44,2.82,1.18C565.56,175.9,566,176.9,566,178z"/>
<linearGradient id="SVGID_29_" gradientUnits="userSpaceOnUse" x1="538" y1="315.5" x2="538" y2="398.0379">
	<stop  offset="0" style="stop-color:#24A5FF"/>
	<stop  offset="0.5569" style="stop-color:#13B7FF"/>
	<stop  offset="1" style="stop-color:#0BC0FF"/>
</linearGradient>
<path fill="url(#SVGID_29_)" d="M578,400h-84v-84h84c2.209,0,4,1.791,4,4v76C582,398.209,580.209,400,578,400z"/>
<linearGradient id="SVGID_30_" gradientUnits="userSpaceOnUse" x1="540" y1="314.5" x2="540" y2="336.89">
	<stop  offset="0" style="stop-color:#3EA3FF"/>
	<stop  offset="0.2493" style="stop-color:#3AA1FD"/>
	<stop  offset="0.5076" style="stop-color:#2D9BF7"/>
	<stop  offset="0.769" style="stop-color:#1992EC"/>
	<stop  offset="1" style="stop-color:#0086E0"/>
</linearGradient>
<path fill="url(#SVGID_30_)" d="M586,336h-92v-20h88c2.209,0,4,1.791,4,4V336z"/>
<linearGradient id="SVGID_31_" gradientUnits="userSpaceOnUse" x1="602" y1="296.8982" x2="602" y2="333.8892">
	<stop  offset="0" style="stop-color:#EBF8FF"/>
	<stop  offset="0.2384" style="stop-color:#DCF1FF"/>
	<stop  offset="0.71" style="stop-color:#C4E6FF"/>
	<stop  offset="1" style="stop-color:#BBE2FF"/>
</linearGradient>
<path fill="url(#SVGID_31_)" d="M602,332h-4v-34h4c2.209,0,4,1.791,4,4v26C606,330.209,604.209,332,602,332z"/>
<circle opacity="0.1" cx="560" cy="348" r="4"/>
<circle opacity="0.1" cx="560" cy="368" r="4"/>
<circle opacity="0.1" cx="560" cy="388" r="4"/>
<circle opacity="0.1" cx="538" cy="348" r="4"/>
<circle opacity="0.1" cx="538" cy="368" r="4"/>
<circle opacity="0.1" cx="538" cy="388" r="4"/>
<circle opacity="0.1" cx="516" cy="348" r="4"/>
<circle opacity="0.1" cx="516" cy="368" r="4"/>
<circle opacity="0.1" cx="516" cy="388" r="4"/>
<linearGradient id="SVGID_32_" gradientUnits="userSpaceOnUse" x1="628" y1="252.7597" x2="628" y2="330.3969">
	<stop  offset="0" style="stop-color:#F5F5DC"/>
	<stop  offset="0.1778" style="stop-color:#ECECDE"/>
	<stop  offset="0.4863" style="stop-color:#E4E4E0"/>
	<stop  offset="1" style="stop-color:#E1E1E1"/>
</linearGradient>
<path fill="url(#SVGID_32_)" d="M650,262v42c0,11.02-8.98,20-20,20h-24v-16h24c2.2,0,4-1.8,4-4v-28.64l-6.5-3.76
	c-1.44-0.82-1.92-2.66-1.1-4.1c0.84-1.44,2.66-1.92,4.1-1.1l3.5,2.02V260c0-1.66,1.34-3,3-3s3,1.34,3,3v-2c0-1.66,1.34-3,3-3
	s3,1.34,3,3v4c0-1.1,0.9-2,2-2S650,260.9,650,262z"/>
<path fill="#FFCCE8" d="M388.356,228.428l1.215,3.921c0.184,0.595,0.65,1.061,1.245,1.245l3.921,1.215
	c0.35,0.108,0.35,0.604,0,0.713l-3.921,1.215c-0.595,0.184-1.061,0.65-1.245,1.245l-1.215,3.921c-0.108,0.35-0.604,0.35-0.713,0
	l-1.215-3.921c-0.184-0.595-0.65-1.061-1.245-1.245l-3.921-1.215c-0.35-0.108-0.35-0.604,0-0.713l3.921-1.215
	c0.595-0.184,1.061-0.65,1.245-1.245l1.215-3.921C387.752,228.077,388.248,228.077,388.356,228.428z"/>
<path fill="#FFCCE8" d="M352.356,258.428l1.215,3.921c0.184,0.595,0.65,1.061,1.245,1.245l3.921,1.215
	c0.35,0.108,0.35,0.604,0,0.713l-3.921,1.215c-0.595,0.184-1.061,0.65-1.245,1.245l-1.215,3.921c-0.108,0.35-0.604,0.35-0.713,0
	l-1.215-3.921c-0.184-0.595-0.65-1.061-1.245-1.245l-3.921-1.215c-0.35-0.108-0.35-0.604,0-0.713l3.921-1.215
	c0.595-0.184,1.061-0.65,1.245-1.245l1.215-3.921C351.752,258.077,352.248,258.077,352.356,258.428z"/>
<path fill="#FFCCE8" d="M424.356,258.428l1.215,3.921c0.184,0.595,0.65,1.061,1.245,1.245l3.921,1.215
	c0.35,0.108,0.35,0.604,0,0.713l-3.921,1.215c-0.595,0.184-1.061,0.65-1.245,1.245l-1.215,3.921c-0.108,0.35-0.604,0.35-0.713,0
	l-1.215-3.921c-0.184-0.595-0.65-1.061-1.245-1.245l-3.921-1.215c-0.35-0.108-0.35-0.604,0-0.713l3.921-1.215
	c0.595-0.184,1.061-0.65,1.245-1.245l1.215-3.921C423.752,258.077,424.248,258.077,424.356,258.428z"/>
<linearGradient id="SVGID_33_" gradientUnits="userSpaceOnUse" x1="494" y1="417" x2="566" y2="417">
	<stop  offset="0" style="stop-color:#302926;stop-opacity:0"/>
	<stop  offset="0.3177" style="stop-color:#2F2829;stop-opacity:0.0318"/>
	<stop  offset="0.5088" style="stop-color:#2A2431;stop-opacity:0.0509"/>
	<stop  offset="0.6663" style="stop-color:#221D3F;stop-opacity:0.0666"/>
	<stop  offset="0.8056" style="stop-color:#171453;stop-opacity:0.0806"/>
	<stop  offset="0.9317" style="stop-color:#09086D;stop-opacity:0.0932"/>
	<stop  offset="1" style="stop-color:#00007F;stop-opacity:0.1"/>
</linearGradient>
<path fill="url(#SVGID_33_)" d="M566,416v6c0-1.1-0.9-2-2-2h-70v-8h68C564.2,412,566,413.8,566,416z"/>
<linearGradient id="SVGID_34_" gradientUnits="userSpaceOnUse" x1="520" y1="247.8125" x2="520" y2="252.1291">
	<stop  offset="0" style="stop-color:#302926;stop-opacity:0"/>
	<stop  offset="1" style="stop-color:#000000;stop-opacity:0.1"/>
</linearGradient>
<path fill="url(#SVGID_34_)" d="M582,248v2c0,1.1-0.9,2-2,2H460c-1.1,0-2-0.9-2-2v-2H582z"/>
<path opacity="0.1" d="M520,348c0,0.34-0.04,0.68-0.14,1c-0.44-1.72-2-3-3.86-3s-3.42,1.28-3.86,3c-0.1-0.32-0.14-0.66-0.14-1
	c0-2.2,1.8-4,4-4S520,345.8,520,348z"/>
<path opacity="0.1" d="M542,348c0,0.34-0.04,0.68-0.14,1c-0.44-1.72-2-3-3.86-3s-3.42,1.28-3.86,3c-0.1-0.32-0.14-0.66-0.14-1
	c0-2.2,1.8-4,4-4S542,345.8,542,348z"/>
<path opacity="0.1" d="M564,348c0,0.34-0.04,0.68-0.14,1c-0.44-1.72-2-3-3.86-3s-3.42,1.28-3.86,3c-0.1-0.32-0.14-0.66-0.14-1
	c0-2.2,1.8-4,4-4S564,345.8,564,348z"/>
<path opacity="0.1" d="M542,368c0,0.34-0.04,0.68-0.14,1c-0.44-1.72-2-3-3.86-3s-3.42,1.28-3.86,3c-0.1-0.32-0.14-0.66-0.14-1
	c0-2.2,1.8-4,4-4S542,365.8,542,368z"/>
<path opacity="0.1" d="M564,368c0,0.34-0.04,0.68-0.14,1c-0.44-1.72-2-3-3.86-3s-3.42,1.28-3.86,3c-0.1-0.32-0.14-0.66-0.14-1
	c0-2.2,1.8-4,4-4S564,365.8,564,368z"/>
<path opacity="0.1" d="M520,368c0,0.34-0.04,0.68-0.14,1c-0.44-1.72-2-3-3.86-3s-3.42,1.28-3.86,3c-0.1-0.32-0.14-0.66-0.14-1
	c0-2.2,1.8-4,4-4S520,365.8,520,368z"/>
<path opacity="0.1" d="M520,388c0,0.34-0.04,0.68-0.14,1c-0.44-1.72-2-3-3.86-3s-3.42,1.28-3.86,3c-0.1-0.32-0.14-0.66-0.14-1
	c0-2.2,1.8-4,4-4S520,385.8,520,388z"/>
<path opacity="0.1" d="M542,388c0,0.34-0.04,0.68-0.14,1c-0.44-1.72-2-3-3.86-3s-3.42,1.28-3.86,3c-0.1-0.32-0.14-0.66-0.14-1
	c0-2.2,1.8-4,4-4S542,385.8,542,388z"/>
<path opacity="0.1" d="M564,388c0,0.34-0.04,0.68-0.14,1c-0.44-1.72-2-3-3.86-3s-3.42,1.28-3.86,3c-0.1-0.32-0.14-0.66-0.14-1
	c0-2.2,1.8-4,4-4S564,385.8,564,388z"/>
<circle fill="#FFFFFF" cx="548" cy="272" r="10"/>
<circle fill="#FFFFFF" cx="492" cy="272" r="10"/>
<linearGradient id="SVGID_35_" gradientUnits="userSpaceOnUse" x1="492" y1="266.2188" x2="492" y2="277">
	<stop  offset="0" style="stop-color:#4C4B4B"/>
	<stop  offset="1" style="stop-color:#3A3838"/>
</linearGradient>
<path fill="url(#SVGID_35_)" d="M497,272c0,2.76-2.24,5-5,5s-5-2.24-5-5s2.24-5,5-5c0.4,0,0.78,0.04,1.14,0.14
	c-0.1,0.28-0.14,0.56-0.14,0.86c0,1.66,1.34,3,3,3c0.3,0,0.58-0.04,0.86-0.14C496.96,271.22,497,271.6,497,272z"/>
<path fill="#FFFFFF" d="M533.82,284.28c-0.1,0.58-0.22,1.16-0.42,1.72c-1.7,5.78-7.06,10-13.4,10s-11.7-4.22-13.4-10
	c-0.2-0.56-0.32-1.14-0.42-1.72c-0.2-1.2,0.78-2.28,2-2.28h23.64C533.04,282,534.02,283.08,533.82,284.28z"/>
<linearGradient id="SVGID_36_" gradientUnits="userSpaceOnUse" x1="548" y1="266.2188" x2="548" y2="277">
	<stop  offset="0" style="stop-color:#4C4B4B"/>
	<stop  offset="1" style="stop-color:#3A3838"/>
</linearGradient>
<path fill="url(#SVGID_36_)" d="M553,272c0,2.76-2.24,5-5,5s-5-2.24-5-5s2.24-5,5-5c0.4,0,0.78,0.04,1.14,0.14
	c-0.1,0.28-0.14,0.56-0.14,0.86c0,1.66,1.34,3,3,3c0.3,0,0.58-0.04,0.86-0.14C552.96,271.22,553,271.6,553,272z"/>
<linearGradient id="SVGID_37_" gradientUnits="userSpaceOnUse" x1="612.2812" y1="316" x2="605.5286" y2="316">
	<stop  offset="0" style="stop-color:#302926;stop-opacity:0"/>
	<stop  offset="1" style="stop-color:#000000;stop-opacity:0.08"/>
</linearGradient>
<rect x="606" y="308" fill="url(#SVGID_37_)" width="6" height="16"/>
<linearGradient id="SVGID_38_" gradientUnits="userSpaceOnUse" x1="643" y1="270.2083" x2="643" y2="254.5248">
	<stop  offset="0" style="stop-color:#302926;stop-opacity:0"/>
	<stop  offset="0.1378" style="stop-color:#241E1C;stop-opacity:0.0069"/>
	<stop  offset="0.4226" style="stop-color:#100E0D;stop-opacity:0.0211"/>
	<stop  offset="0.7096" style="stop-color:#040303;stop-opacity:0.0355"/>
	<stop  offset="1" style="stop-color:#000000;stop-opacity:0.05"/>
</linearGradient>
<path fill="url(#SVGID_38_)" d="M646,258v12h-6v-12c0-1.66,1.34-3,3-3S646,256.34,646,258z"/>
<linearGradient id="SVGID_39_" gradientUnits="userSpaceOnUse" x1="648" y1="270.1389" x2="648" y2="259.6832">
	<stop  offset="0" style="stop-color:#302926;stop-opacity:0"/>
	<stop  offset="0.1378" style="stop-color:#241E1C;stop-opacity:0.0069"/>
	<stop  offset="0.4226" style="stop-color:#100E0D;stop-opacity:0.0211"/>
	<stop  offset="0.7096" style="stop-color:#040303;stop-opacity:0.0355"/>
	<stop  offset="1" style="stop-color:#000000;stop-opacity:0.05"/>
</linearGradient>
<path fill="url(#SVGID_39_)" d="M650,262v8h-4v-8c0-1.1,0.9-2,2-2S650,260.9,650,262z"/>
<linearGradient id="SVGID_40_" gradientUnits="userSpaceOnUse" x1="637" y1="270.1805" x2="637" y2="256.5881">
	<stop  offset="0" style="stop-color:#302926;stop-opacity:0"/>
	<stop  offset="0.1378" style="stop-color:#241E1C;stop-opacity:0.0069"/>
	<stop  offset="0.4226" style="stop-color:#100E0D;stop-opacity:0.0211"/>
	<stop  offset="0.7096" style="stop-color:#040303;stop-opacity:0.0355"/>
	<stop  offset="1" style="stop-color:#000000;stop-opacity:0.05"/>
</linearGradient>
<path fill="url(#SVGID_40_)" d="M640,260v10h-6v-10c0-1.66,1.34-3,3-3S640,258.34,640,260z"/>
<path opacity="0.12" d="M582,396v2c0,2.2-1.8,4-4,4h-84v-2h84C580.2,400,582,398.2,582,396z"/>
<linearGradient id="SVGID_41_" gradientUnits="userSpaceOnUse" x1="538" y1="339.9583" x2="538" y2="336.0397">
	<stop  offset="0" style="stop-color:#000042;stop-opacity:0"/>
	<stop  offset="1" style="stop-color:#00004A;stop-opacity:0.12"/>
</linearGradient>
<rect x="494" y="336" fill="url(#SVGID_41_)" width="88" height="4"/>
<linearGradient id="SVGID_42_" gradientUnits="userSpaceOnUse" x1="582" y1="452" x2="582" y2="460.3853">
	<stop  offset="0" style="stop-color:#302926;stop-opacity:0"/>
	<stop  offset="1" style="stop-color:#000000;stop-opacity:0.2"/>
</linearGradient>
<path fill="url(#SVGID_42_)" d="M598,452v2c0,3.32-2.68,6-6,6h-20c-3.32,0-6-2.68-6-6v-2H598z"/>
<path fill="#B6B9B9" d="M266,390h-52c-1.105,0-2,0.895-2,2c0,1.104,0.895,2,2,2h52c1.105,0,2-0.896,2-2
	C268,390.895,267.105,390,266,390z"/>
<path fill="#B6B9B9" d="M272,280h-44c-1.105,0-2,0.895-2,2c0,1.104,0.895,2,2,2h44c1.105,0,2-0.896,2-2
	C274,280.895,273.105,280,272,280z"/>
</svg>
