<?xml version="1.0" encoding="iso-8859-1"?>
<!-- Generator: Adobe Illustrator 22.1.0, SVG Export Plug-In . SVG Version: 6.00 Build 0)  -->
<svg version="1.1" id="downloading" xmlns="http://www.w3.org/2000/svg" xmlns:xlink="http://www.w3.org/1999/xlink" x="0px"
	 y="0px" viewBox="0 0 800 600" enable-background="new 0 0 800 600" xml:space="preserve">
<linearGradient id="SVGID_1_" gradientUnits="userSpaceOnUse" x1="278" y1="248" x2="278" y2="274.0021">
	<stop  offset="0" style="stop-color:#E1E1E1"/>
	<stop  offset="1" style="stop-color:#CECECE"/>
</linearGradient>
<path fill="url(#SVGID_1_)" d="M290,262c0,1.4-0.24,2.74-0.7,4c-1.62,4.66-6.08,8-11.3,8s-9.68-3.34-11.3-8
	c-0.46-1.26-0.7-2.6-0.7-4c0-6.62,5.38-12,12-12S290,255.38,290,262z"/>
<linearGradient id="SVGID_2_" gradientUnits="userSpaceOnUse" x1="282" y1="363.3333" x2="282" y2="437.9848">
	<stop  offset="0" style="stop-color:#FFD243"/>
	<stop  offset="0.3539" style="stop-color:#FFB736"/>
	<stop  offset="0.7539" style="stop-color:#FF9F2B"/>
	<stop  offset="1" style="stop-color:#FF9627"/>
</linearGradient>
<path fill="url(#SVGID_2_)" d="M336,366v68c0,3.32-2.68,6-6,6h-96c-2.9,0-5.32-2.061-5.88-4.78c-0.08-0.399-0.12-0.8-0.12-1.22v-68
	c0-3.32,2.68-6,6-6h96C333.32,360,336,362.68,336,366z"/>
<linearGradient id="SVGID_3_" gradientUnits="userSpaceOnUse" x1="270.1667" y1="194" x2="404.3987" y2="194">
	<stop  offset="0" style="stop-color:#55C2FF"/>
	<stop  offset="0.193" style="stop-color:#59C4FF"/>
	<stop  offset="0.3929" style="stop-color:#66CBFF"/>
	<stop  offset="0.5961" style="stop-color:#7AD6FF"/>
	<stop  offset="0.8002" style="stop-color:#97E6FF"/>
	<stop  offset="1" style="stop-color:#BBFAFF"/>
</linearGradient>
<path fill="url(#SVGID_3_)" d="M356,206c-0.703,0-1.392,0.054-2.082,0.105C360.244,197.73,364,187.305,364,176
	c0-27.614-22.386-50-50-50c-21.709,0-40.18,13.839-47.09,33.174C260.03,152.272,250.515,148,240,148c-20.987,0-38,17.013-38,38
	c0,4.306,0.75,8.428,2.07,12.287c-1.336-0.17-2.688-0.287-4.07-0.287c-17.673,0-32,14.327-32,32s14.327,32,32,32h156
	c15.464,0,28-12.536,28-28S371.464,206,356,206z"/>
<linearGradient id="SVGID_4_" gradientUnits="userSpaceOnUse" x1="179" y1="469" x2="179" y2="498.8768">
	<stop  offset="0" style="stop-color:#707E9B"/>
	<stop  offset="0.0934" style="stop-color:#6A7691"/>
	<stop  offset="0.4902" style="stop-color:#515869"/>
	<stop  offset="0.8062" style="stop-color:#424551"/>
	<stop  offset="1" style="stop-color:#3C3E48"/>
</linearGradient>
<path fill="url(#SVGID_4_)" d="M174,498h24v-28h-24c-7.732,0-14,6.268-14,14l0,0C160,491.732,166.268,498,174,498z"/>
<linearGradient id="SVGID_5_" gradientUnits="userSpaceOnUse" x1="510" y1="90" x2="510" y2="293.0887">
	<stop  offset="0" style="stop-color:#76E5FF"/>
	<stop  offset="0.1347" style="stop-color:#98EBFF"/>
	<stop  offset="0.3111" style="stop-color:#BDF2FF"/>
	<stop  offset="0.4876" style="stop-color:#DAF8FF"/>
	<stop  offset="0.6623" style="stop-color:#EEFCFF"/>
	<stop  offset="0.8342" style="stop-color:#FBFEFF"/>
	<stop  offset="1" style="stop-color:#FFFFFF"/>
</linearGradient>
<circle fill="url(#SVGID_5_)" cx="510" cy="194" r="100"/>
<linearGradient id="SVGID_6_" gradientUnits="userSpaceOnUse" x1="132" y1="502" x2="680" y2="502">
	<stop  offset="0" style="stop-color:#EDEDED"/>
	<stop  offset="1" style="stop-color:#DDDDDD"/>
</linearGradient>
<rect x="132" y="498" fill="url(#SVGID_6_)" width="548" height="8"/>
<linearGradient id="SVGID_7_" gradientUnits="userSpaceOnUse" x1="619" y1="261" x2="619" y2="497">
	<stop  offset="0" style="stop-color:#FFAE1F"/>
	<stop  offset="0.3732" style="stop-color:#FFAB1E"/>
	<stop  offset="0.5976" style="stop-color:#FEA319"/>
	<stop  offset="0.7825" style="stop-color:#FC9512"/>
	<stop  offset="0.9452" style="stop-color:#FA8107"/>
	<stop  offset="1" style="stop-color:#F97803"/>
</linearGradient>
<path fill="url(#SVGID_7_)" d="M644,498h-50V264c0-1.105,0.895-2,2-2h46c1.105,0,2,0.895,2,2V498z"/>
<linearGradient id="SVGID_8_" gradientUnits="userSpaceOnUse" x1="605" y1="524.5" x2="605" y2="260.9763">
	<stop  offset="0" style="stop-color:#6A2000;stop-opacity:0"/>
	<stop  offset="1" style="stop-color:#792D00;stop-opacity:0.05"/>
</linearGradient>
<rect x="600" y="286" fill="url(#SVGID_8_)" width="10" height="212"/>
<linearGradient id="SVGID_9_" gradientUnits="userSpaceOnUse" x1="605" y1="275.5" x2="605" y2="260.5836">
	<stop  offset="0" style="stop-color:#6A2000;stop-opacity:0"/>
	<stop  offset="1" style="stop-color:#792D00;stop-opacity:0.05"/>
</linearGradient>
<rect x="600" y="262" fill="url(#SVGID_9_)" width="10" height="12"/>
<linearGradient id="SVGID_10_" gradientUnits="userSpaceOnUse" x1="518" y1="259.3333" x2="518" y2="497.2054">
	<stop  offset="0" style="stop-color:#FFD243"/>
	<stop  offset="1" style="stop-color:#FF9627"/>
</linearGradient>
<path fill="url(#SVGID_10_)" d="M604,498H432V264c0-1.105,0.895-2,2-2h168c1.105,0,2,0.895,2,2V498z"/>
<linearGradient id="SVGID_11_" gradientUnits="userSpaceOnUse" x1="496" y1="470.25" x2="496" y2="402.4995">
	<stop  offset="0" style="stop-color:#89674A"/>
	<stop  offset="1" style="stop-color:#7F6955"/>
</linearGradient>
<rect x="452" y="402" fill="url(#SVGID_11_)" width="88" height="96"/>
<linearGradient id="SVGID_12_" gradientUnits="userSpaceOnUse" x1="604" y1="280" x2="652.8345" y2="280">
	<stop  offset="0" style="stop-color:#E1E1E1"/>
	<stop  offset="1" style="stop-color:#CECECE"/>
</linearGradient>
<path fill="url(#SVGID_12_)" d="M650,286h-44c-1.105,0-2-0.895-2-2v-8c0-1.105,0.895-2,2-2h44c1.105,0,2,0.895,2,2v8
	C652,285.105,651.105,286,650,286z"/>
<linearGradient id="SVGID_13_" gradientUnits="userSpaceOnUse" x1="424" y1="280" x2="612" y2="280">
	<stop  offset="0" style="stop-color:#F5F5F5"/>
	<stop  offset="0.0794" style="stop-color:#F4F4F4"/>
	<stop  offset="1" style="stop-color:#EBEBEB"/>
</linearGradient>
<path fill="url(#SVGID_13_)" d="M610,286H426c-1.105,0-2-0.895-2-2v-8c0-1.105,0.895-2,2-2h184c1.105,0,2,0.895,2,2v8
	C612,285.105,611.105,286,610,286z"/>
<linearGradient id="SVGID_14_" gradientUnits="userSpaceOnUse" x1="430" y1="400" x2="430" y2="499.3423">
	<stop  offset="0" style="stop-color:#FF5E48"/>
	<stop  offset="0.6067" style="stop-color:#FB5F44"/>
	<stop  offset="1" style="stop-color:#F4603D"/>
</linearGradient>
<path fill="url(#SVGID_14_)" d="M452,498h-44v-94c0-1.105,0.895-2,2-2h42V498z"/>
<linearGradient id="SVGID_15_" gradientUnits="userSpaceOnUse" x1="564" y1="400.6667" x2="564" y2="498.0571">
	<stop  offset="0" style="stop-color:#FF5E48"/>
	<stop  offset="0.6067" style="stop-color:#FB5F44"/>
	<stop  offset="1" style="stop-color:#F4603D"/>
</linearGradient>
<path fill="url(#SVGID_15_)" d="M588,498h-48v-96h46c1.105,0,2,0.895,2,2V498z"/>
<polygon fill="#E04F28" points="588,334 588,374 552,374 552,368 576,334 "/>
<linearGradient id="SVGID_16_" gradientUnits="userSpaceOnUse" x1="528" y1="352" x2="576" y2="352">
	<stop  offset="0" style="stop-color:#FF5E48"/>
	<stop  offset="0.6067" style="stop-color:#FB5F44"/>
	<stop  offset="1" style="stop-color:#F4603D"/>
</linearGradient>
<polygon fill="url(#SVGID_16_)" points="552,334 528,368 528,370 552,370 552,368 576,334 "/>
<linearGradient id="SVGID_17_" gradientUnits="userSpaceOnUse" x1="480" y1="352" x2="528" y2="352">
	<stop  offset="0" style="stop-color:#FF5E48"/>
	<stop  offset="0.6067" style="stop-color:#FB5F44"/>
	<stop  offset="1" style="stop-color:#F4603D"/>
</linearGradient>
<polygon fill="url(#SVGID_17_)" points="504,334 480,368 480,370 504,370 504,368 528,334 "/>
<linearGradient id="SVGID_18_" gradientUnits="userSpaceOnUse" x1="432" y1="352" x2="480" y2="352">
	<stop  offset="0" style="stop-color:#FF5E48"/>
	<stop  offset="0.6067" style="stop-color:#FB5F44"/>
	<stop  offset="1" style="stop-color:#F4603D"/>
</linearGradient>
<polygon fill="url(#SVGID_18_)" points="456,334 432,368 432,370 456,370 456,368 480,334 "/>
<linearGradient id="SVGID_19_" gradientUnits="userSpaceOnUse" x1="184" y1="484" x2="540" y2="484">
	<stop  offset="0" style="stop-color:#575C72"/>
	<stop  offset="0.5686" style="stop-color:#494C5F"/>
	<stop  offset="1" style="stop-color:#434556"/>
</linearGradient>
<path fill="url(#SVGID_19_)" d="M540,498H198c-7.732,0-14-6.268-14-14l0,0c0-7.732,6.268-14,14-14h342V498z"/>
<linearGradient id="SVGID_20_" gradientUnits="userSpaceOnUse" x1="198" y1="484" x2="540" y2="484">
	<stop  offset="0" style="stop-color:#FFFFFF"/>
	<stop  offset="0.4462" style="stop-color:#FBFBFB"/>
	<stop  offset="0.9077" style="stop-color:#EEEEEE"/>
	<stop  offset="1" style="stop-color:#EBEBEB"/>
</linearGradient>
<rect x="198" y="478" fill="url(#SVGID_20_)" width="342" height="12"/>
<linearGradient id="SVGID_21_" gradientUnits="userSpaceOnUse" x1="198" y1="477.875" x2="198" y2="490.1307">
	<stop  offset="0" style="stop-color:#E0E0E0"/>
	<stop  offset="1" style="stop-color:#CECECE"/>
</linearGradient>
<circle fill="url(#SVGID_21_)" cx="198" cy="484" r="6"/>
<linearGradient id="SVGID_22_" gradientUnits="userSpaceOnUse" x1="266" y1="477.75" x2="266" y2="489.8853">
	<stop  offset="0" style="stop-color:#E0E0E0"/>
	<stop  offset="1" style="stop-color:#CECECE"/>
</linearGradient>
<circle fill="url(#SVGID_22_)" cx="266" cy="484" r="6"/>
<linearGradient id="SVGID_23_" gradientUnits="userSpaceOnUse" x1="366" y1="477.75" x2="366" y2="489.8853">
	<stop  offset="0" style="stop-color:#E0E0E0"/>
	<stop  offset="1" style="stop-color:#CECECE"/>
</linearGradient>
<circle fill="url(#SVGID_23_)" cx="366" cy="484" r="6"/>
<linearGradient id="SVGID_24_" gradientUnits="userSpaceOnUse" x1="466" y1="477.75" x2="466" y2="489.8853">
	<stop  offset="0" style="stop-color:#E0E0E0"/>
	<stop  offset="1" style="stop-color:#CECECE"/>
</linearGradient>
<circle fill="url(#SVGID_24_)" cx="466" cy="484" r="6"/>
<linearGradient id="SVGID_25_" gradientUnits="userSpaceOnUse" x1="504" y1="352" x2="552" y2="352">
	<stop  offset="0" style="stop-color:#FFFFFF"/>
	<stop  offset="0.5523" style="stop-color:#F6F6F6"/>
	<stop  offset="1" style="stop-color:#EBEBEB"/>
</linearGradient>
<polygon fill="url(#SVGID_25_)" points="528,334 504,368 504,370 528,370 528,368 552,334 "/>
<linearGradient id="SVGID_26_" gradientUnits="userSpaceOnUse" x1="456" y1="352" x2="504" y2="352">
	<stop  offset="0" style="stop-color:#FFFFFF"/>
	<stop  offset="0.5523" style="stop-color:#F6F6F6"/>
	<stop  offset="1" style="stop-color:#EBEBEB"/>
</linearGradient>
<polygon fill="url(#SVGID_26_)" points="480,334 456,368 456,370 480,370 480,368 504,334 "/>
<linearGradient id="SVGID_27_" gradientUnits="userSpaceOnUse" x1="432" y1="370.5294" x2="432" y2="334.0864">
	<stop  offset="0" style="stop-color:#FFFFFF"/>
	<stop  offset="0.5523" style="stop-color:#F6F6F6"/>
	<stop  offset="1" style="stop-color:#EBEBEB"/>
</linearGradient>
<polygon fill="url(#SVGID_27_)" points="432,334 408,368 408,370 432,370 432,368 456,334 "/>
<path opacity="0.07" d="M586,300H450c-1.105,0-2,0.895-2,2v20c0,1.104,0.895,2,2,2h136c1.105,0,2-0.896,2-2v-20
	C588,300.895,587.105,300,586,300z"/>
<linearGradient id="SVGID_28_" gradientUnits="userSpaceOnUse" x1="586" y1="402" x2="586" y2="498">
	<stop  offset="0" style="stop-color:#302926;stop-opacity:0"/>
	<stop  offset="0.2384" style="stop-color:#211C1A;stop-opacity:0.0358"/>
	<stop  offset="0.71" style="stop-color:#090807;stop-opacity:0.1065"/>
	<stop  offset="1" style="stop-color:#000000;stop-opacity:0.15"/>
</linearGradient>
<path fill="url(#SVGID_28_)" d="M588,498h-4v-96h2c1.105,0,2,0.895,2,2V498z"/>
<linearGradient id="SVGID_29_" gradientUnits="userSpaceOnUse" x1="496" y1="470.5" x2="496" y2="427.1461">
	<stop  offset="0" style="stop-color:#FFDB15;stop-opacity:0"/>
	<stop  offset="0.4852" style="stop-color:#F2DE09;stop-opacity:0.1456"/>
	<stop  offset="1" style="stop-color:#E9E000;stop-opacity:0.3"/>
</linearGradient>
<polygon fill="url(#SVGID_29_)" points="510,428 496,428 482,428 474,470 496,470 518,470 "/>
<circle fill="#FFC95C" cx="496" cy="428" r="6"/>
<linearGradient id="SVGID_30_" gradientUnits="userSpaceOnUse" x1="444" y1="367.75" x2="444" y2="386">
	<stop  offset="0" style="stop-color:#F25B38"/>
	<stop  offset="0.471" style="stop-color:#F05C34"/>
	<stop  offset="0.9583" style="stop-color:#EB6027"/>
	<stop  offset="1" style="stop-color:#EA6026"/>
</linearGradient>
<path fill="url(#SVGID_30_)" d="M444,386L444,386c6.627,0,12-5.373,12-12v-6h-24v6C432,380.627,437.373,386,444,386z"/>
<linearGradient id="SVGID_31_" gradientUnits="userSpaceOnUse" x1="492" y1="367.75" x2="492" y2="386">
	<stop  offset="0" style="stop-color:#F25B38"/>
	<stop  offset="0.471" style="stop-color:#F05C34"/>
	<stop  offset="0.9583" style="stop-color:#EB6027"/>
	<stop  offset="1" style="stop-color:#EA6026"/>
</linearGradient>
<path fill="url(#SVGID_31_)" d="M492,386L492,386c6.627,0,12-5.373,12-12v-6h-24v6C480,380.627,485.373,386,492,386z"/>
<linearGradient id="SVGID_32_" gradientUnits="userSpaceOnUse" x1="540" y1="367.75" x2="540" y2="386">
	<stop  offset="0" style="stop-color:#F25B38"/>
	<stop  offset="0.471" style="stop-color:#F05C34"/>
	<stop  offset="0.9583" style="stop-color:#EB6027"/>
	<stop  offset="1" style="stop-color:#EA6026"/>
</linearGradient>
<path fill="url(#SVGID_32_)" d="M540,386L540,386c6.627,0,12-5.373,12-12v-6h-24v6C528,380.627,533.373,386,540,386z"/>
<linearGradient id="SVGID_33_" gradientUnits="userSpaceOnUse" x1="420" y1="367.5" x2="420" y2="387.5063">
	<stop  offset="0" style="stop-color:#F2F2F2"/>
	<stop  offset="1" style="stop-color:#EBEBEB"/>
</linearGradient>
<path fill="url(#SVGID_33_)" d="M420,386L420,386c6.627,0,12-5.373,12-12v-6h-24v6C408,380.627,413.373,386,420,386z"/>
<linearGradient id="SVGID_34_" gradientUnits="userSpaceOnUse" x1="468" y1="367.5" x2="468" y2="387.5063">
	<stop  offset="0" style="stop-color:#F2F2F2"/>
	<stop  offset="1" style="stop-color:#EBEBEB"/>
</linearGradient>
<path fill="url(#SVGID_34_)" d="M468,386L468,386c6.627,0,12-5.373,12-12v-6h-24v6C456,380.627,461.373,386,468,386z"/>
<linearGradient id="SVGID_35_" gradientUnits="userSpaceOnUse" x1="516" y1="367.5" x2="516" y2="387.5063">
	<stop  offset="0" style="stop-color:#F2F2F2"/>
	<stop  offset="1" style="stop-color:#EBEBEB"/>
</linearGradient>
<path fill="url(#SVGID_35_)" d="M516,386L516,386c6.627,0,12-5.373,12-12v-6h-24v6C504,380.627,509.373,386,516,386z"/>
<linearGradient id="SVGID_36_" gradientUnits="userSpaceOnUse" x1="496" y1="401.1667" x2="496" y2="415.6676">
	<stop  offset="0" style="stop-color:#E0E0E0"/>
	<stop  offset="1" style="stop-color:#CECECE"/>
</linearGradient>
<rect x="494" y="402" fill="url(#SVGID_36_)" width="4" height="14"/>
<linearGradient id="SVGID_37_" gradientUnits="userSpaceOnUse" x1="482" y1="421" x2="510" y2="421">
	<stop  offset="0" style="stop-color:#F5F5F5"/>
	<stop  offset="0.0794" style="stop-color:#F4F4F4"/>
	<stop  offset="1" style="stop-color:#EBEBEB"/>
</linearGradient>
<path fill="url(#SVGID_37_)" d="M482,428c0-7.732,6.268-14,14-14s14,6.268,14,14H482z"/>
<path fill="#1FBFE5" d="M586,322H450c-1.105,0-2-0.895-2-2v-20c0-1.105,0.895-2,2-2h136c1.105,0,2,0.895,2,2v20
	C588,321.105,587.105,322,586,322z"/>
<linearGradient id="SVGID_38_" gradientUnits="userSpaceOnUse" x1="585.015" y1="310" x2="447.4916" y2="310">
	<stop  offset="0" style="stop-color:#B3E3F4"/>
	<stop  offset="0.4152" style="stop-color:#B7E5F6"/>
	<stop  offset="0.8447" style="stop-color:#C4ECFC"/>
	<stop  offset="1" style="stop-color:#CAEFFF"/>
</linearGradient>
<path fill="url(#SVGID_38_)" d="M582,322H450c-1.105,0-2-0.895-2-2v-20c0-1.105,0.895-2,2-2h132c1.105,0,2,0.895,2,2v20
	C584,321.105,583.105,322,582,322z"/>
<linearGradient id="SVGID_39_" gradientUnits="userSpaceOnUse" x1="517.8461" y1="316.2618" x2="534.5961" y2="291.0118">
	<stop  offset="0" style="stop-color:#FFFFED;stop-opacity:0.05"/>
	<stop  offset="0.471" style="stop-color:#FFFFF1;stop-opacity:0.1913"/>
	<stop  offset="0.9583" style="stop-color:#FFFFFE;stop-opacity:0.3375"/>
	<stop  offset="1" style="stop-color:#FFFFFF;stop-opacity:0.35"/>
</linearGradient>
<polygon fill="url(#SVGID_39_)" points="500,322 528,322 544,298 516,298 "/>
<linearGradient id="SVGID_40_" gradientUnits="userSpaceOnUse" x1="552.7099" y1="320.2264" x2="570.7099" y2="294.9764">
	<stop  offset="0" style="stop-color:#FFFFED;stop-opacity:0.05"/>
	<stop  offset="0.471" style="stop-color:#FFFFF1;stop-opacity:0.1913"/>
	<stop  offset="0.9583" style="stop-color:#FFFFFE;stop-opacity:0.3375"/>
	<stop  offset="1" style="stop-color:#FFFFFF;stop-opacity:0.35"/>
</linearGradient>
<polygon fill="url(#SVGID_40_)" points="546,322 558,322 574,298 562,298 "/>
<linearGradient id="SVGID_41_" gradientUnits="userSpaceOnUse" x1="488.7353" y1="320.3926" x2="506.7353" y2="294.6426">
	<stop  offset="0" style="stop-color:#FFFFED;stop-opacity:0.05"/>
	<stop  offset="0.471" style="stop-color:#FFFFF1;stop-opacity:0.1913"/>
	<stop  offset="0.9583" style="stop-color:#FFFFFE;stop-opacity:0.3375"/>
	<stop  offset="1" style="stop-color:#FFFFFF;stop-opacity:0.35"/>
</linearGradient>
<polygon fill="url(#SVGID_41_)" points="482,322 494,322 510,298 498,298 "/>
<linearGradient id="SVGID_42_" gradientUnits="userSpaceOnUse" x1="460.7499" y1="320.5074" x2="477.9999" y2="295.5074">
	<stop  offset="0" style="stop-color:#FFFFED;stop-opacity:0.05"/>
	<stop  offset="0.471" style="stop-color:#FFFFF1;stop-opacity:0.1913"/>
	<stop  offset="0.9583" style="stop-color:#FFFFFE;stop-opacity:0.3375"/>
	<stop  offset="1" style="stop-color:#FFFFFF;stop-opacity:0.35"/>
</linearGradient>
<polygon fill="url(#SVGID_42_)" points="456,322 464,322 480,298 472,298 "/>
<linearGradient id="SVGID_43_" gradientUnits="userSpaceOnUse" x1="179.3335" y1="379.002" x2="218.9403" y2="379.002">
	<stop  offset="0" style="stop-color:#FFDE52"/>
	<stop  offset="0.6178" style="stop-color:#FFD23A"/>
	<stop  offset="1" style="stop-color:#FFCE31"/>
</linearGradient>
<path fill="url(#SVGID_43_)" d="M220,406h-2c-1.36,0-2.68-0.08-4-0.22c-18-2-32-17.26-32-35.78v-11c0-4.34,3.98-7.78,8.48-6.84
	c3.26,0.66,5.52,3.7,5.52,7.04v6.8h4c2.42,0,4.36,2.16,3.94,4.68c-0.32,1.96-2.16,3.32-4.16,3.32h-6.56c-1.54,0-2.72,1.46-2.34,2.94
	c2.78,10.84,11.88,19.16,23.12,20.76c1.3,0.2,2.64,0.3,4,0.3h1.78c0.08,0,0.14,0,0.22,0.02c1.92,0.08,3.64,1.42,3.94,3.3
	C224.36,403.84,222.42,406,220,406z"/>
<linearGradient id="SVGID_44_" gradientUnits="userSpaceOnUse" x1="366.6667" y1="379" x2="328.5208" y2="379">
	<stop  offset="0" style="stop-color:#FFDE52"/>
	<stop  offset="0.6178" style="stop-color:#FFD23A"/>
	<stop  offset="1" style="stop-color:#FFCE31"/>
</linearGradient>
<path fill="url(#SVGID_44_)" d="M357.53,352.151c-3.272,0.67-5.53,3.71-5.53,7.051V366h-3.786c-1.993,0-3.84,1.361-4.16,3.328
	C343.647,371.834,345.571,374,348,374h6.785c1.544,0,2.716,1.452,2.332,2.947C354.02,389.036,343.041,398,330,398h-1.786
	c-1.993,0-3.84,1.361-4.16,3.328C323.647,403.834,325.571,406,328,406h2c19.882,0,36-16.118,36-36v-11
	C366,354.66,362.029,351.229,357.53,352.151z"/>
<linearGradient id="SVGID_45_" gradientUnits="userSpaceOnUse" x1="274" y1="283" x2="274" y2="376.3625">
	<stop  offset="0" style="stop-color:#FFDB15;stop-opacity:0"/>
	<stop  offset="1" style="stop-color:#E9E000;stop-opacity:0.3"/>
</linearGradient>
<rect x="220" y="284" fill="url(#SVGID_45_)" width="108" height="92"/>
<linearGradient id="SVGID_46_" gradientUnits="userSpaceOnUse" x1="276" y1="272" x2="276" y2="362.5759">
	<stop  offset="0" style="stop-color:#EBEBEB"/>
	<stop  offset="1" style="stop-color:#D8D8D8"/>
</linearGradient>
<rect x="274" y="272" fill="url(#SVGID_46_)" width="4" height="92"/>
<linearGradient id="SVGID_47_" gradientUnits="userSpaceOnUse" x1="274" y1="248" x2="274" y2="274.0021">
	<stop  offset="0" style="stop-color:#F3F3F3"/>
	<stop  offset="0.3824" style="stop-color:#EFEFEF"/>
	<stop  offset="0.7779" style="stop-color:#E2E2E2"/>
	<stop  offset="1" style="stop-color:#D8D8D8"/>
</linearGradient>
<path fill="url(#SVGID_47_)" d="M286,262c0,1.4-0.24,2.74-0.7,4c-1.62,4.66-6.08,8-11.3,8s-9.68-3.34-11.3-8
	c-0.46-1.26-0.7-2.6-0.7-4c0-6.62,5.38-12,12-12S286,255.38,286,262z"/>
<linearGradient id="SVGID_48_" gradientUnits="userSpaceOnUse" x1="160" y1="194" x2="376" y2="194">
	<stop  offset="0" style="stop-color:#55C2FF"/>
	<stop  offset="0.193" style="stop-color:#59C4FF"/>
	<stop  offset="0.3929" style="stop-color:#66CBFF"/>
	<stop  offset="0.5961" style="stop-color:#7AD6FF"/>
	<stop  offset="0.8002" style="stop-color:#97E6FF"/>
	<stop  offset="1" style="stop-color:#BBFAFF"/>
</linearGradient>
<path fill="url(#SVGID_48_)" d="M348,206c-0.703,0-1.392,0.054-2.082,0.105C352.244,197.73,356,187.305,356,176
	c0-27.614-22.386-50-50-50c-21.709,0-40.18,13.839-47.09,33.174C252.03,152.272,242.515,148,232,148c-20.987,0-38,17.013-38,38
	c0,4.306,0.75,8.428,2.07,12.287c-1.336-0.17-2.688-0.287-4.07-0.287c-17.673,0-32,14.327-32,32s14.327,32,32,32h156
	c15.464,0,28-12.536,28-28S363.464,206,348,206z"/>
<linearGradient id="SVGID_49_" gradientUnits="userSpaceOnUse" x1="330.9966" y1="135.5" x2="330.9966" y2="181.633">
	<stop  offset="0" style="stop-color:#FFFFED;stop-opacity:0"/>
	<stop  offset="0.4031" style="stop-color:#FFFFF6;stop-opacity:0.1612"/>
	<stop  offset="1" style="stop-color:#FFFFFF;stop-opacity:0.4"/>
</linearGradient>
<path fill="url(#SVGID_49_)" d="M344,180c-2.209,0-4-1.791-4-4c0-14.677-9.351-27.646-23.268-32.272
	c-2.097-0.697-3.23-2.961-2.534-5.058c0.697-2.098,2.963-3.227,5.058-2.534C336.448,141.851,348,157.871,348,176
	C348,178.209,346.209,180,344,180z"/>
<linearGradient id="SVGID_50_" gradientUnits="userSpaceOnUse" x1="258.9" y1="162.74" x2="271.0021" y2="162.74">
	<stop  offset="0" style="stop-color:#000000;stop-opacity:0.17"/>
	<stop  offset="1" style="stop-color:#6086C4;stop-opacity:0"/>
</linearGradient>
<path fill="url(#SVGID_50_)" d="M270,182l-0.24-0.28c-0.98-8.76-4.96-16.64-10.86-22.54c2.08-5.8,5.18-11.12,9.12-15.7
	C273.26,165.74,270,182,270,182z"/>
<circle fill="#FFFFFF" cx="248" cy="216" r="12"/>
<linearGradient id="SVGID_51_" gradientUnits="userSpaceOnUse" x1="248" y1="209.75" x2="248" y2="222.522">
	<stop  offset="0" style="stop-color:#4C4B4B"/>
	<stop  offset="1" style="stop-color:#3A3838"/>
</linearGradient>
<path fill="url(#SVGID_51_)" d="M254,216c0,3.32-2.68,6-6,6s-6-2.68-6-6c0-3.32,2.68-6,6-6c0.18,0,0.34,0,0.52,0.04
	c-0.34,0.58-0.52,1.24-0.52,1.96c0,2.2,1.8,4,4,4c0.72,0,1.38-0.18,1.96-0.52C254,215.66,254,215.82,254,216z"/>
<path opacity="0.07" d="M258,196c0-1.105-0.895-2-2-2h-16c-1.105,0-2,0.895-2,2v2c0,1.105,0.895,2,2,2h16c1.105,0,2-0.895,2-2V196z"
	/>
<path opacity="0.07" d="M310,196c0-1.105-0.895-2-2-2h-16c-1.105,0-2,0.895-2,2v2c0,1.105,0.895,2,2,2h16c1.105,0,2-0.895,2-2V196z"
	/>
<circle fill="#FFFFFF" cx="300" cy="216" r="12"/>
<linearGradient id="SVGID_52_" gradientUnits="userSpaceOnUse" x1="300" y1="209.75" x2="300" y2="222.522">
	<stop  offset="0" style="stop-color:#4C4B4B"/>
	<stop  offset="1" style="stop-color:#3A3838"/>
</linearGradient>
<path fill="url(#SVGID_52_)" d="M306,216c0,3.32-2.68,6-6,6s-6-2.68-6-6c0-3.32,2.68-6,6-6c0.18,0,0.34,0,0.52,0.04
	c-0.34,0.58-0.52,1.24-0.52,1.96c0,2.2,1.8,4,4,4c0.72,0,1.38-0.18,1.96-0.52C306,215.66,306,215.82,306,216z"/>
<linearGradient id="SVGID_53_" gradientUnits="userSpaceOnUse" x1="248" y1="191.75" x2="248" y2="199.0269">
	<stop  offset="0" style="stop-color:#259CE5"/>
	<stop  offset="0.018" style="stop-color:#259BE4"/>
	<stop  offset="0.6261" style="stop-color:#2183D3"/>
	<stop  offset="1" style="stop-color:#1F7ACC"/>
</linearGradient>
<path fill="url(#SVGID_53_)" d="M258,194c0-1.105-0.895-2-2-2h-16c-1.105,0-2,0.895-2,2v2c0,1.105,0.895,2,2,2h16
	c1.105,0,2-0.895,2-2V194z"/>
<linearGradient id="SVGID_54_" gradientUnits="userSpaceOnUse" x1="300" y1="191.75" x2="300" y2="199.0269">
	<stop  offset="0" style="stop-color:#259CE5"/>
	<stop  offset="0.018" style="stop-color:#259BE4"/>
	<stop  offset="0.6261" style="stop-color:#2183D3"/>
	<stop  offset="1" style="stop-color:#1F7ACC"/>
</linearGradient>
<path fill="url(#SVGID_54_)" d="M310,194c0-1.105-0.895-2-2-2h-16c-1.105,0-2,0.895-2,2v2c0,1.105,0.895,2,2,2h16
	c1.105,0,2-0.895,2-2V194z"/>
<linearGradient id="SVGID_55_" gradientUnits="userSpaceOnUse" x1="274" y1="233.6667" x2="274" y2="251.3333">
	<stop  offset="0" style="stop-color:#259CE5"/>
	<stop  offset="0.018" style="stop-color:#259BE4"/>
	<stop  offset="0.6261" style="stop-color:#2183D3"/>
	<stop  offset="1" style="stop-color:#1F7ACC"/>
</linearGradient>
<path fill="url(#SVGID_55_)" d="M290,234c0,1.38-0.18,2.72-0.5,4c-1.02,3.96-3.52,7.32-6.88,9.46c-2.48,1.62-5.44,2.54-8.62,2.54
	s-6.14-0.92-8.62-2.54c-3.36-2.14-5.86-5.5-6.88-9.46c-0.32-1.28-0.5-2.62-0.5-4H290z"/>
<path fill="#FFFFFF" d="M290,234c0,1.38-0.18,2.72-0.5,4h-31c-0.32-1.28-0.5-2.62-0.5-4H290z"/>
<path opacity="0.2" d="M282.62,247.46c-2.48,1.62-5.44,2.54-8.62,2.54s-6.14-0.92-8.62-2.54c1.74-2.36,4.94-3.46,8.62-3.46
	S280.88,245.1,282.62,247.46z"/>
<linearGradient id="SVGID_56_" gradientUnits="userSpaceOnUse" x1="274" y1="363.3333" x2="274" y2="437.9848">
	<stop  offset="0" style="stop-color:#FFDE52"/>
	<stop  offset="0.6178" style="stop-color:#FFD23A"/>
	<stop  offset="1" style="stop-color:#FFCE31"/>
</linearGradient>
<path fill="url(#SVGID_56_)" d="M328,366v68c0,3.32-2.68,6-6,6h-96c-2.9,0-5.32-2.061-5.88-4.78c-0.08-0.399-0.12-0.8-0.12-1.22v-68
	c0-3.32,2.68-6,6-6h96C325.32,360,328,362.68,328,366z"/>
<path fill="#B7854F" d="M283.666,354h-11.332c-1.291,0-2.438,0.826-2.846,2.051L268.172,360h19.656l-1.316-3.949
	C286.104,354.826,284.957,354,283.666,354z"/>
<path fill="#C6975D" d="M279.666,354h-11.332c-1.291,0-2.438,0.826-2.846,2.051L264.172,360h19.656l-1.316-3.949
	C282.104,354.826,280.957,354,279.666,354z"/>
<path fill="#F79B21" d="M304,406h-15.609c-1.215,0-2.299-0.724-2.764-1.847c-0.464-1.121-0.209-2.4,0.65-3.257l10.309-10.308
	c0.781-0.781,2.047-0.781,2.828,0s0.781,2.046,0,2.827L290.829,402H304c1.104,0,2,0.895,2,2S305.104,406,304,406z"/>
<path fill="#F79B21" d="M259.609,406H244c-1.104,0-2-0.895-2-2s0.896-2,2-2h13.171l-8.587-8.587c-0.781-0.781-0.781-2.046,0-2.828
	s2.047-0.781,2.828,0l10.312,10.313c0.858,0.855,1.113,2.134,0.649,3.255C261.908,405.276,260.824,406,259.609,406z"/>
<path fill="#FFFFFF" d="M283.98,413.88c-0.08,3.36-1.76,6.48-4.36,8.32c-1.32,0.98-2.9,1.6-4.64,1.76
	c-2.46,0.24-4.78-0.44-6.62-1.72c-2.64-1.8-4.36-4.82-4.36-8.24c0-1.1,0.9-2,2-2h16C283.06,412,283.94,412.84,283.98,413.88z"/>
<path fill="#FFFFFF" d="M284,415.58V416c0-0.04,0-0.08-0.02-0.12C284,415.78,284,415.68,284,415.58z"/>
<linearGradient id="SVGID_57_" gradientUnits="userSpaceOnUse" x1="226" y1="365.6667" x2="226" y2="442.0066">
	<stop  offset="0" style="stop-color:#302926;stop-opacity:0"/>
	<stop  offset="0.176" style="stop-color:#342A25;stop-opacity:0.0176"/>
	<stop  offset="0.3584" style="stop-color:#412C21;stop-opacity:0.0358"/>
	<stop  offset="0.5438" style="stop-color:#55301A;stop-opacity:0.0544"/>
	<stop  offset="0.7312" style="stop-color:#723611;stop-opacity:0.0731"/>
	<stop  offset="0.9184" style="stop-color:#973D06;stop-opacity:0.0918"/>
	<stop  offset="1" style="stop-color:#AA4100;stop-opacity:0.1"/>
</linearGradient>
<path fill="url(#SVGID_57_)" d="M232,440h-6c-2.9,0-5.32-2.061-5.88-4.78c-0.08-0.92-0.12-1.979-0.12-3.22v-60c0-2.2,1.8-4,4-4h8
	c-2.2,0-4,1.8-4,4v64C228,438.2,229.8,440,232,440z"/>
<path fill="#E0E0E0" d="M154.34,420h0.1c-0.02,0.04-0.04,0.06-0.06,0.08C154.36,420.06,154.34,420.04,154.34,420z"/>
<path fill="#E0E0E0" d="M154.34,420h0.1c-0.02,0.04-0.04,0.06-0.06,0.08C154.36,420.06,154.34,420.04,154.34,420z"/>
<linearGradient id="SVGID_58_" gradientUnits="userSpaceOnUse" x1="115.3333" y1="417" x2="188.11" y2="417">
	<stop  offset="0" style="stop-color:#FAFAFA"/>
	<stop  offset="1" style="stop-color:#EBEBEB"/>
</linearGradient>
<path fill="url(#SVGID_58_)" d="M173,417c-3.92,0-7.48,1.5-10.14,3.98C159.92,412.26,151.7,406,142,406c-12.16,0-22,9.84-22,22
	h67.44C185.7,421.66,179.9,417,173,417z"/>
<path opacity="0.1" d="M279.62,422.2c-1.32,0.98-2.9,1.6-4.64,1.76c-2.46,0.24-4.78-0.44-6.62-1.72c0.8-1.82,3.02-2.24,5.64-2.24
	C276.6,420,278.8,420.42,279.62,422.2z"/>
<linearGradient id="SVGID_59_" gradientUnits="userSpaceOnUse" x1="502" y1="414.125" x2="502" y2="427.2172">
	<stop  offset="0" style="stop-color:#302926;stop-opacity:0"/>
	<stop  offset="0.2844" style="stop-color:#2C2523;stop-opacity:0.0284"/>
	<stop  offset="0.579" style="stop-color:#1F1B19;stop-opacity:0.0579"/>
	<stop  offset="0.8773" style="stop-color:#0B0909;stop-opacity:0.0877"/>
	<stop  offset="1" style="stop-color:#000000;stop-opacity:0.1"/>
</linearGradient>
<path fill="url(#SVGID_59_)" d="M510,428h-4c0-7.06-5.2-12.88-12-13.84c0.64-0.12,1.32-0.16,2-0.16C503.74,414,510,420.26,510,428z"
	/>
<linearGradient id="SVGID_60_" gradientUnits="userSpaceOnUse" x1="532.6875" y1="484" x2="540.9375" y2="484">
	<stop  offset="0" style="stop-color:#302926;stop-opacity:0"/>
	<stop  offset="0.2844" style="stop-color:#2C2523;stop-opacity:0.0427"/>
	<stop  offset="0.579" style="stop-color:#1F1B19;stop-opacity:0.0868"/>
	<stop  offset="0.8773" style="stop-color:#0B0909;stop-opacity:0.1316"/>
	<stop  offset="1" style="stop-color:#000000;stop-opacity:0.15"/>
</linearGradient>
<rect x="534" y="470" fill="url(#SVGID_60_)" width="6" height="28"/>
<linearGradient id="SVGID_61_" gradientUnits="userSpaceOnUse" x1="616" y1="489.8889" x2="616" y2="497.7903">
	<stop  offset="0" style="stop-color:#302926;stop-opacity:0"/>
	<stop  offset="1" style="stop-color:#000000;stop-opacity:0.15"/>
</linearGradient>
<rect x="588" y="490" fill="url(#SVGID_61_)" width="56" height="8"/>
<linearGradient id="SVGID_62_" gradientUnits="userSpaceOnUse" x1="518" y1="292.75" x2="518" y2="285.2918">
	<stop  offset="0" style="stop-color:#302926;stop-opacity:0"/>
	<stop  offset="1" style="stop-color:#000000;stop-opacity:0.1"/>
</linearGradient>
<rect x="432" y="286" fill="url(#SVGID_62_)" width="172" height="6"/>
<linearGradient id="SVGID_63_" gradientUnits="userSpaceOnUse" x1="624" y1="292.75" x2="624" y2="285.2918">
	<stop  offset="0" style="stop-color:#302926;stop-opacity:0"/>
	<stop  offset="1" style="stop-color:#000000;stop-opacity:0.1"/>
</linearGradient>
<rect x="604" y="286" fill="url(#SVGID_63_)" width="40" height="6"/>
<linearGradient id="SVGID_64_" gradientUnits="userSpaceOnUse" x1="496" y1="406.5" x2="496" y2="401.5279">
	<stop  offset="0" style="stop-color:#302926;stop-opacity:0"/>
	<stop  offset="1" style="stop-color:#000000;stop-opacity:0.1"/>
</linearGradient>
<rect x="452" y="402" fill="url(#SVGID_64_)" width="88" height="4"/>
<linearGradient id="SVGID_65_" gradientUnits="userSpaceOnUse" x1="454.25" y1="405" x2="407.2334" y2="405">
	<stop  offset="0" style="stop-color:#FFFFED;stop-opacity:0"/>
	<stop  offset="1" style="stop-color:#FFFFFF;stop-opacity:0.15"/>
</linearGradient>
<path fill="url(#SVGID_65_)" d="M452,402v4h-42c-1.1,0-2,0.9-2,2v-4c0-1.1,0.9-2,2-2H452z"/>
<linearGradient id="SVGID_66_" gradientUnits="userSpaceOnUse" x1="539.25" y1="405" x2="588.2659" y2="405">
	<stop  offset="0" style="stop-color:#FFFFED;stop-opacity:0"/>
	<stop  offset="1" style="stop-color:#FFFFFF;stop-opacity:0.15"/>
</linearGradient>
<path fill="url(#SVGID_66_)" d="M588,404v4c0-1.1-0.9-2-2-2h-46v-4h46C587.1,402,588,402.9,588,404z"/>
<polygon opacity="0.05" points="588,334 588,374 552,374 552,368 576,334 "/>
<linearGradient id="SVGID_67_" gradientUnits="userSpaceOnUse" x1="562" y1="489.8889" x2="562" y2="497.7903">
	<stop  offset="0" style="stop-color:#302926;stop-opacity:0"/>
	<stop  offset="1" style="stop-color:#000000;stop-opacity:0.12"/>
</linearGradient>
<rect x="540" y="490" fill="url(#SVGID_67_)" width="44" height="8"/>
<linearGradient id="SVGID_68_" gradientUnits="userSpaceOnUse" x1="430" y1="461.8889" x2="430" y2="469.7903">
	<stop  offset="0" style="stop-color:#302926;stop-opacity:0"/>
	<stop  offset="1" style="stop-color:#000000;stop-opacity:0.12"/>
</linearGradient>
<rect x="408" y="462" fill="url(#SVGID_68_)" width="44" height="8"/>
<linearGradient id="SVGID_69_" gradientUnits="userSpaceOnUse" x1="204.04" y1="207.3333" x2="204.04" y2="183.5636">
	<stop  offset="0" style="stop-color:#000000;stop-opacity:0.1"/>
	<stop  offset="1" style="stop-color:#6086C4;stop-opacity:0"/>
</linearGradient>
<path fill="url(#SVGID_69_)" d="M214.08,206.84c-4.82-4.6-11.08-7.72-18.04-8.58c-1.3-3.74-2-7.76-2.04-11.92
	C204.8,188.64,211.18,200.04,214.08,206.84z"/>
<linearGradient id="SVGID_70_" gradientUnits="userSpaceOnUse" x1="514" y1="244" x2="570" y2="244">
	<stop  offset="0" style="stop-color:#E1E1E1"/>
	<stop  offset="1" style="stop-color:#CECECE"/>
</linearGradient>
<path fill="url(#SVGID_70_)" d="M570,262h-56l18.871-30.88c1.943-3.18,5.402-5.12,9.129-5.12l0,0c3.727,0,7.185,1.94,9.129,5.12
	L570,262z"/>
<linearGradient id="SVGID_71_" gradientUnits="userSpaceOnUse" x1="552.4401" y1="273.0824" x2="524.9431" y2="236.3363">
	<stop  offset="0" style="stop-color:#302926;stop-opacity:0"/>
	<stop  offset="1" style="stop-color:#000000;stop-opacity:0.15"/>
</linearGradient>
<path fill="url(#SVGID_71_)" d="M570,262h-56l4.9-8l13.98-22.88c1.22-1.98,3.02-3.5,5.12-4.34c1.24-0.5,2.6-0.78,4-0.78
	c1.86,0,3.66,0.48,5.22,1.36c1.58,0.88,2.94,2.16,3.9,3.76L565.1,254L570,262z"/>
<linearGradient id="SVGID_72_" gradientUnits="userSpaceOnUse" x1="506" y1="244" x2="562" y2="244">
	<stop  offset="0" style="stop-color:#E1E1E1"/>
	<stop  offset="1" style="stop-color:#CECECE"/>
</linearGradient>
<path fill="url(#SVGID_72_)" d="M562,262h-56l4.9-8l13.98-22.88c1.94-3.18,5.4-5.12,9.12-5.12c1.4,0,2.76,0.28,4,0.78
	c0.42,0.16,0.84,0.36,1.22,0.58c1.58,0.88,2.94,2.16,3.9,3.76L557.1,254L562,262z"/>
<linearGradient id="SVGID_73_" gradientUnits="userSpaceOnUse" x1="507.5872" y1="197.9128" x2="529.8499" y2="220.1754">
	<stop  offset="0" style="stop-color:#E1E1E1"/>
	<stop  offset="1" style="stop-color:#CECECE"/>
</linearGradient>
<path fill="url(#SVGID_73_)" d="M557.363,190.251l0.01,0.017c0.25,0.433,0.403,0.899,0.505,1.394
	c-0.097,3.913-6.429,10.825-16.361,18.222c-4.52,3.372-9.778,6.823-15.546,10.153c-10.964,6.33-21.437,10.83-29.146,12.878
	c-5.258,1.373-9.258,1.604-11.278,0.507c-0.378-0.336-0.671-0.721-0.921-1.154l-0.01-0.017c-1.91-3.308,4.034-10.573,14.484-18.593
	c4.799-3.648,10.52-7.459,16.859-11.119c6.339-3.66,12.5-6.709,18.059-9.041C546.189,188.457,555.453,186.942,557.363,190.251z"/>
<linearGradient id="SVGID_74_" gradientUnits="userSpaceOnUse" x1="507.6595" y1="198.673" x2="528.6594" y2="222.673">
	<stop  offset="0" style="stop-color:#F3F3F3"/>
	<stop  offset="0.3824" style="stop-color:#EFEFEF"/>
	<stop  offset="0.7779" style="stop-color:#E2E2E2"/>
	<stop  offset="1" style="stop-color:#D8D8D8"/>
</linearGradient>
<polygon fill="url(#SVGID_74_)" points="515.188,194.546 509.02,198 509.912,228.062 541.088,210.062 "/>
<linearGradient id="SVGID_75_" gradientUnits="userSpaceOnUse" x1="484.9435" y1="217.3666" x2="558.507" y2="217.3666">
	<stop  offset="0" style="stop-color:#F5F5F5"/>
	<stop  offset="0.0794" style="stop-color:#F4F4F4"/>
	<stop  offset="1" style="stop-color:#EBEBEB"/>
</linearGradient>
<path fill="url(#SVGID_75_)" d="M557.516,190.716c3.941,18.186-4.042,37.598-21.016,47.398s-37.777,7.007-51.557-5.498
	c2.019,1.097,6.054,0.846,11.382-0.567c7.708-2.049,18.182-6.548,29.146-12.878c5.768-3.33,11.026-6.782,15.546-10.153
	C551.028,201.598,557.43,194.646,557.516,190.716z"/>
<linearGradient id="SVGID_76_" gradientUnits="userSpaceOnUse" x1="504.5" y1="186.5" x2="514.5125" y2="196.5125">
	<stop  offset="0" style="stop-color:#E0E0E0"/>
	<stop  offset="1" style="stop-color:#CECECE"/>
</linearGradient>
<circle fill="url(#SVGID_76_)" cx="510" cy="192" r="5.999"/>
<linearGradient id="SVGID_77_" gradientUnits="userSpaceOnUse" x1="538" y1="254.25" x2="538" y2="262.534">
	<stop  offset="0" style="stop-color:#302926;stop-opacity:0"/>
	<stop  offset="1" style="stop-color:#000000;stop-opacity:0.07"/>
</linearGradient>
<polygon fill="url(#SVGID_77_)" points="570,262 506,262 510.9,254 565.1,254 "/>
<linearGradient id="SVGID_78_" gradientUnits="userSpaceOnUse" x1="642" y1="454.6667" x2="642" y2="497.1925">
	<stop  offset="0" style="stop-color:#FCC12B"/>
	<stop  offset="1" style="stop-color:#FFAA2E"/>
</linearGradient>
<path fill="url(#SVGID_78_)" d="M650,454h-16c-4.418,0-8,3.582-8,8v36h10v-12h12v12h10v-36C658,457.582,654.418,454,650,454z"/>
<linearGradient id="SVGID_79_" gradientUnits="userSpaceOnUse" x1="635" y1="453" x2="635" y2="498.0049">
	<stop  offset="0" style="stop-color:#FFDE52"/>
	<stop  offset="0.6178" style="stop-color:#FFD23A"/>
	<stop  offset="1" style="stop-color:#FFCE31"/>
</linearGradient>
<path fill="url(#SVGID_79_)" d="M642,454h-14c-4.418,0-8,3.582-8,8v36h8v-10c0-1.105,0.895-2,2-2h10c1.105,0,2,0.895,2,2v10h8v-36
	C650,457.582,646.418,454,642,454z M644,466h-18v-4c0-1.1,0.9-2,2-2h14c1.1,0,2,0.9,2,2V466z"/>
<path fill="#E8E8E8" d="M367.302,298.344l1.59,5.134c0.241,0.779,0.851,1.389,1.631,1.631l5.134,1.59
	c0.459,0.142,0.459,0.791,0,0.933l-5.134,1.59c-0.779,0.241-1.389,0.851-1.631,1.631l-1.59,5.134c-0.142,0.459-0.791,0.459-0.933,0
	l-1.59-5.134c-0.241-0.779-0.851-1.389-1.631-1.631l-5.134-1.59c-0.459-0.142-0.459-0.791,0-0.933l5.134-1.59
	c0.779-0.241,1.389-0.851,1.631-1.631l1.59-5.134C366.511,297.885,367.16,297.885,367.302,298.344z"/>
<path fill="#FFFFFF" d="M373.302,428.344l1.59,5.134c0.241,0.779,0.851,1.389,1.631,1.631l5.134,1.59
	c0.459,0.142,0.459,0.791,0,0.933l-5.134,1.59c-0.779,0.241-1.389,0.851-1.631,1.631l-1.59,5.134c-0.142,0.459-0.791,0.459-0.933,0
	l-1.59-5.134c-0.241-0.779-0.851-1.389-1.631-1.631l-5.134-1.59c-0.459-0.142-0.459-0.791,0-0.933l5.134-1.59
	c0.779-0.241,1.389-0.851,1.631-1.631l1.59-5.134C372.511,427.885,373.16,427.885,373.302,428.344z"/>
<path fill="#E8E8E8" d="M619.302,224.344l1.59,5.134c0.241,0.779,0.851,1.389,1.631,1.631l5.134,1.59
	c0.459,0.142,0.459,0.791,0,0.933l-5.134,1.59c-0.779,0.241-1.389,0.851-1.631,1.631l-1.59,5.134c-0.142,0.459-0.791,0.459-0.933,0
	l-1.59-5.134c-0.241-0.779-0.851-1.389-1.631-1.631l-5.134-1.59c-0.459-0.142-0.459-0.791,0-0.933l5.134-1.59
	c0.779-0.241,1.389-0.851,1.631-1.631l1.59-5.134C618.511,223.885,619.16,223.885,619.302,224.344z"/>
<linearGradient id="SVGID_80_" gradientUnits="userSpaceOnUse" x1="213.9062" y1="401.85" x2="220.2874" y2="401.85">
	<stop  offset="0" style="stop-color:#302926;stop-opacity:0"/>
	<stop  offset="1" style="stop-color:#000000;stop-opacity:0.1"/>
</linearGradient>
<path fill="url(#SVGID_80_)" d="M220,398.02V406h-2c-1.36,0-2.68-0.08-4-0.22v-8.08c1.3,0.2,2.64,0.3,4,0.3h1.78
	C219.86,398,219.92,398,220,398.02z"/>
<linearGradient id="SVGID_81_" gradientUnits="userSpaceOnUse" x1="310.9062" y1="401.85" x2="317.2874" y2="401.85" gradientTransform="matrix(-1 0 0 1 645 0)">
	<stop  offset="0" style="stop-color:#302926;stop-opacity:0"/>
	<stop  offset="1" style="stop-color:#000000;stop-opacity:0.1"/>
</linearGradient>
<path fill="url(#SVGID_81_)" d="M328,398.02V406h2c1.36,0,2.68-0.08,4-0.22v-8.08c-1.3,0.2-2.64,0.3-4,0.3h-1.78
	C328.14,398,328,398,328,398.02z"/>
<path opacity="0.15" d="M562,434c-1.105,0-2,0.895-2,2v28c0,1.104,0.895,2,2,2s2-0.896,2-2v-28C564,434.895,563.105,434,562,434z"/>
<path opacity="0.15" d="M428,434c-1.105,0-2,0.895-2,2v28c0,1.104,0.895,2,2,2s2-0.896,2-2v-28C430,434.895,429.105,434,428,434z"/>
<path opacity="0.4" fill="#008FD6" d="M486,194c-1.105,0-2-0.896-2-2c0-14.337,11.664-26,26-26c1.105,0,2,0.896,2,2s-0.895,2-2,2
	c-12.131,0-22,9.869-22,22C488,193.104,487.105,194,486,194z"/>
<path opacity="0.4" fill="#008FD6" d="M466,194c-1.105,0-2-0.896-2-2c0-25.364,20.635-46,46-46c1.105,0,2,0.896,2,2s-0.895,2-2,2
	c-23.158,0-42,18.841-42,42C468,193.104,467.105,194,466,194z"/>
<path opacity="0.4" fill="#008FD6" d="M446,194c-1.105,0-2-0.896-2-2c0-36.393,29.607-66,66-66c1.105,0,2,0.896,2,2s-0.895,2-2,2
	c-34.188,0-62,27.813-62,62C448,193.104,447.105,194,446,194z"/>
<linearGradient id="SVGID_82_" gradientUnits="userSpaceOnUse" x1="137.3333" y1="311" x2="210.11" y2="311">
	<stop  offset="0" style="stop-color:#FAFAFA"/>
	<stop  offset="1" style="stop-color:#EBEBEB"/>
</linearGradient>
<path fill="url(#SVGID_82_)" d="M195,311c-3.92,0-7.48,1.5-10.14,3.98C181.92,306.26,173.7,300,164,300c-12.16,0-22,9.84-22,22
	h67.44C207.7,315.66,201.9,311,195,311z"/>
<linearGradient id="SVGID_83_" gradientUnits="userSpaceOnUse" x1="484.9435" y1="217.3666" x2="558.507" y2="217.3666">
	<stop  offset="0" style="stop-color:#F5F5F5"/>
	<stop  offset="0.0794" style="stop-color:#F4F4F4"/>
	<stop  offset="1" style="stop-color:#EBEBEB"/>
</linearGradient>
<path fill="url(#SVGID_83_)" d="M557.516,190.716c3.941,18.186-4.042,37.598-21.016,47.398s-37.777,7.007-51.557-5.498
	c2.019,1.097,6.054,0.846,11.382-0.567c7.708-2.049,18.182-6.548,29.146-12.878c5.768-3.33,11.026-6.782,15.546-10.153
	C551.028,201.598,557.43,194.646,557.516,190.716z"/>
</svg>
