<?xml version="1.0" encoding="iso-8859-1"?>
<!-- Generator: Adobe Illustrator 23.0.2, SVG Export Plug-In . SVG Version: 6.00 Build 0)  -->
<svg version="1.1" id="illustration" xmlns="http://www.w3.org/2000/svg" xmlns:xlink="http://www.w3.org/1999/xlink" x="0px"
	 y="0px" viewBox="0 0 1080 720" style="enable-background:new 0 0 1080 720;" xml:space="preserve">
<title>bad gateaway</title>
<g id="work_space">
	
		<linearGradient id="chair_leg_1_" gradientUnits="userSpaceOnUse" x1="760.36" y1="209.015" x2="780.42" y2="209.015" gradientTransform="matrix(1 0 0 -1 0 722)">
		<stop  offset="0.0898" style="stop-color:#EEEEEE"/>
		<stop  offset="0.8178" style="stop-color:#D6D7D8"/>
	</linearGradient>
	<polygon id="chair_leg" style="fill:url(#chair_leg_1_);" points="780.42,590.73 774.4,590.73 760.36,435.42 766.31,435.42 
		766.36,435.24 	"/>
	
		<linearGradient id="chair_bottom_1_" gradientUnits="userSpaceOnUse" x1="778.2383" y1="280.0229" x2="655.1618" y2="301.0817" gradientTransform="matrix(1 0 0 -1 0 722)">
		<stop  offset="0.0898" style="stop-color:#EEEEEE"/>
		<stop  offset="0.8178" style="stop-color:#D6D7D8"/>
	</linearGradient>
	<polygon id="chair_bottom" style="fill:url(#chair_bottom_1_);" points="625.839,435.404 766.313,435.423 770.622,421.171 
		625.839,421.171 	"/>
	
		<linearGradient id="chair_back_1_" gradientUnits="userSpaceOnUse" x1="779.0177" y1="357.6236" x2="676.3621" y2="397.3171" gradientTransform="matrix(1 0 0 -1 0 722)">
		<stop  offset="0.0898" style="stop-color:#EEEEEE"/>
		<stop  offset="0.8178" style="stop-color:#D6D7D8"/>
	</linearGradient>
	<polygon id="chair_back" style="fill:url(#chair_back_1_);" points="770.622,421.171 690.858,421.171 732.858,286.487 
		812.622,286.487 	"/>
	
		<linearGradient id="front_side_of_the_laptop_1_" gradientUnits="userSpaceOnUse" x1="471.1496" y1="372.7548" x2="548.4363" y2="372.7548" gradientTransform="matrix(1 0 0 -1 0 722)">
		<stop  offset="0" style="stop-color:#EEEEEE"/>
		<stop  offset="1" style="stop-color:#DCE3EA"/>
	</linearGradient>
	
		<rect id="front_side_of_the_laptop" x="500.17" y="345.038" style="fill:url(#front_side_of_the_laptop_1_);" width="77.287" height="8.415"/>
	
		<linearGradient id="right_side_of_the_laptop_1_" gradientUnits="userSpaceOnUse" x1="358.9994" y1="372.7795" x2="447.4054" y2="372.7795" gradientTransform="matrix(1 0 0 -1 0 722)">
		<stop  offset="0" style="stop-color:#EEEEEE"/>
		<stop  offset="1" style="stop-color:#DCE3EA"/>
	</linearGradient>
	
		<rect id="right_side_of_the_laptop" x="411.764" y="344.988" style="fill:url(#right_side_of_the_laptop_1_);" width="88.406" height="8.464"/>
	
		<linearGradient id="window_1_1_" gradientUnits="userSpaceOnUse" x1="457.0782" y1="387.1877" x2="501.5302" y2="281.7727" gradientTransform="matrix(1 0 0 -1 0 722)">
		<stop  offset="0" style="stop-color:#EEEEEE"/>
		<stop  offset="1" style="stop-color:#DCE3EA"/>
	</linearGradient>
	<polygon id="window_1" style="fill:url(#window_1_1_);" points="517.232,344.988 411.764,344.988 377.984,279.721 483.452,279.721 
			"/>
	
		<linearGradient id="window_2_1_" gradientUnits="userSpaceOnUse" x1="370.0054" y1="488.73" x2="412.9686" y2="367.4784" gradientTransform="matrix(1 0 0 -1 0 722)">
		<stop  offset="0" style="stop-color:#EEEEEE"/>
		<stop  offset="1" style="stop-color:#DCE3EA"/>
	</linearGradient>
	<polygon id="window_2" style="fill:url(#window_2_1_);" points="427.444,269.655 346.525,269.655 320.608,219.579 401.526,219.579 
			"/>
	
		<linearGradient id="window_3_1_" gradientUnits="userSpaceOnUse" x1="452.4289" y1="517.9352" x2="495.3921" y2="396.6836" gradientTransform="matrix(1 0 0 -1 0 722)">
		<stop  offset="0" style="stop-color:#EEEEEE"/>
		<stop  offset="1" style="stop-color:#DCE3EA"/>
	</linearGradient>
	<polygon id="window_3" style="fill:url(#window_3_1_);" points="503.184,246.879 438.544,246.879 417.841,206.878 482.481,206.878 
			"/>
	
		<linearGradient id="table_1_" gradientUnits="userSpaceOnUse" x1="297.792" y1="250.6215" x2="617.305" y2="250.6215" gradientTransform="matrix(1 0 0 -1 0 722)">
		<stop  offset="0" style="stop-color:#A1C3FC"/>
		<stop  offset="0.6955" style="stop-color:#81AEF2"/>
		<stop  offset="1" style="stop-color:#78A9EF"/>
	</linearGradient>
	<polygon id="table" style="fill:url(#table_1_);" points="303.792,590.445 297.792,590.443 297.85,352.312 617.305,352.312 
		617.305,358.312 303.849,358.312 	"/>
	<path id="icon_3" style="fill:#FFFFFF;" d="M459.221,223.792l-9.613-6.714l-1.747,3.075l9.613,6.714l-3.829,6.738
		c-0.007,0.013-0.012,0.027-0.016,0.042l4.393,3.068c0.01-0.01,0.019-0.022,0.027-0.034l3.829-6.738l9.54,6.663l1.747-3.075
		l-9.54-6.663l3.829-6.738l0.005-0.013l-4.4-3.073l-0.009,0.011L459.221,223.792z"/>
	<path id="icon_2" style="fill:#FFFFFF;" d="M372.393,240.714l-12.155-8.489l-2.209,3.889l12.155,8.489l-4.841,8.52
		c-0.008,0.017-0.015,0.035-0.02,0.053l5.554,3.879c0.013-0.013,0.024-0.028,0.034-0.043l4.841-8.52l12.063,8.425l2.209-3.889
		l-12.063-8.425l4.841-8.52l0.007-0.017l-5.563-3.885l-0.011,0.014L372.393,240.714z"/>
	<path id="icon_1" style="fill:#FFFFFF;" d="M445.369,307.004l-16.663-11.638l-3.029,5.331l16.663,11.638l-6.636,11.68
		c-0.012,0.023-0.021,0.048-0.028,0.073l7.614,5.318c0.018-0.018,0.033-0.038,0.047-0.059l6.636-11.68l16.537,11.55l3.029-5.331
		l-16.537-11.55l6.636-11.68c0.004-0.007,0.005-0.016,0.009-0.023l-7.627-5.327c-0.004,0.007-0.011,0.012-0.015,0.019
		L445.369,307.004z"/>
</g>
<g id="woman">
	<linearGradient id="L_hand_2_" gradientUnits="userSpaceOnUse" x1="547.7461" y1="338.7319" x2="634.27" y2="338.7319">
		<stop  offset="0" style="stop-color:#FFBEB6"/>
		<stop  offset="1" style="stop-color:#F2A19C"/>
	</linearGradient>
	<path id="L_hand_1_" style="fill:url(#L_hand_2_);" d="M620.137,329.034c0,0-17.577,3.271-26.862-0.057
		s-22.651-11.862-27.206-8.709s-18.322,12.819-18.322,12.819s3.854,4.205,12.264-1.051s9.584-1.833,14.14,1.496
		s13.519,12.789,21.753,9.986s12.614-1.927,19.972,2.978s18.395,11.388,18.395,11.388l-6.307-24.702L620.137,329.034z"/>
	
		<linearGradient id="R_trousers_1_" gradientUnits="userSpaceOnUse" x1="496.0809" y1="167.0505" x2="584.6387" y2="267.2371" gradientTransform="matrix(1 0 0 -1 0 722)">
		<stop  offset="0" style="stop-color:#3E8AF8"/>
		<stop  offset="0.4648" style="stop-color:#2A82F5"/>
		<stop  offset="1" style="stop-color:#1479F2"/>
	</linearGradient>
	<path id="R_trousers" style="fill:url(#R_trousers_1_);" d="M576.048,551.458H545.89c0,0,6.115-102.752,8.975-131.263
		c2.875-28.655,4.627-38.89,43.803-42.723c44.736-4.376,71.927-4.291,71.927-4.291l-45.078,38.034
		c-10.536,8.89-15.111,22.99-11.801,36.372l0.529,2.141c1.955,7.907,1.188,16.242-2.177,23.659l-15.824,34.872
		C596.245,508.259,598.814,537.403,576.048,551.458z"/>
	<path id="L_leg" style="fill:#428DFC;" d="M738.59,381.33c-1.53,5.93-1.097,32.667-31.597,38.533
		c-35.353,6.8-56.677,5.402-66.897,8.189c-8.306,2.265-10.696,5.436-9.816,11.326c0.88,5.88,9.307,12.708,11.957,23.888
		s-2.343,18.189,8.396,32.005c10.476,13.478,16.835,26.85,7.177,56.187l-32.068,0.002c0,0-57.671-110.958-60.611-134.198
		s14.49-28.436,22.73-30.796c3.12-0.9,13.519-3.766,34.639-8.946c4.52,3.04,14.63,8.73,23.96,6.19c12.48-3.41,15.31-8.23,29.78-4.82
		c8.58,2.02,23.85,4.74,36.09,0.33C721.014,380.618,729.795,381.323,738.59,381.33z"/>
	
		<linearGradient id="R_sleeve_1_" gradientUnits="userSpaceOnUse" x1="620.1369" y1="409.4975" x2="687.9798" y2="409.4975" gradientTransform="matrix(1 0 0 -1 0 722)">
		<stop  offset="0" style="stop-color:#28306D"/>
		<stop  offset="1" style="stop-color:#13194C"/>
	</linearGradient>
	<path id="R_sleeve" style="fill:url(#R_sleeve_1_);" d="M687.98,288.425c-0.33,1.35-0.63,2.76-0.89,4.2
		c-5.95,32.61-19.068,40.632-38,42.26c-10.186,0.876-20.137,2.22-27.277,1.48l-1.676-7.331
		C673.447,325.054,683.44,298.296,687.98,288.425z"/>
	<path id="L_hand" style="fill:#FFBEB6;" d="M612.998,336.68c0,0-25.403-0.876-34.688-4.205s-23.651-10.862-28.206-7.709
		s-20.322,16.819-20.322,16.819s3.854,4.205,12.264-1.051s8.584-6.833,13.14-3.504s17.519,12.789,25.753,9.986
		s12.614-1.927,19.972,2.978s18.395,11.388,18.395,11.388L612.998,336.68"/>
	
		<linearGradient id="neck_1_" gradientUnits="userSpaceOnUse" x1="705.5099" y1="456.7647" x2="705.5099" y2="484.6527" gradientTransform="matrix(1 0 0 -1 0 722)">
		<stop  offset="0" style="stop-color:#FFBEB6"/>
		<stop  offset="1" style="stop-color:#F2A19C"/>
	</linearGradient>
	<path id="neck" style="fill:url(#neck_1_);" d="M714.66,250.03c-5.132,2.878-9.738,6.608-13.62,11.03l-0.44,0.34
		c-0.567-5.8-1.996-11.482-4.24-16.86c4.72-0.32,10.33-2.27,16.79-7.05C712.48,241.729,713.003,246.071,714.66,250.03z"/>
	<path id="face" style="fill:#FFBEB6;" d="M716.83,226.3c-0.29,2-2.82,5.78-3.68,11.19c-20.953,17.706-35.35-2.24-35.35-2.24
		c-3.04,0.89-6.751-1.836-5.56-4.29c4.815-9.924,4.12-11.3,5.23-16.17c0.29-1.27,0.53-2.42,0.73-3.4c0.03-0.13,0.06-0.26,0.08-0.38
		c0.16-0.81,0.29-1.48,0.38-1.98l0.17-0.97c0,0,11.14,10.87,24.48,9.46C716.65,216.12,717.36,222.61,716.83,226.3z"/>
	<path id="texture" style="opacity:0.71;fill:#FFFFFF;enable-background:new    ;" d="M721.01,382.83
		c-0.072-0.049-0.17-0.031-0.22,0.04c-0.05,0.063-0.04,0.155,0.024,0.205c0.002,0.002,0.004,0.003,0.006,0.005
		c0.072,0.049,0.17,0.031,0.22-0.04C721.083,382.972,721.07,382.883,721.01,382.83z M707.64,390.93
		c-0.081,0.019-0.134,0.098-0.12,0.18c0.017,0.082,0.097,0.135,0.18,0.118c0.078-0.016,0.13-0.089,0.12-0.168
		c-0.011-0.083-0.087-0.142-0.171-0.132C707.646,390.929,707.643,390.929,707.64,390.93z M707.07,387.29
		c-0.086,0.008-0.148,0.084-0.14,0.17c0,0,0,0,0,0c0.019,0.087,0.102,0.144,0.19,0.13c0.083-0.016,0.137-0.097,0.12-0.18
		c0,0,0,0,0,0c-0.01-0.077-0.081-0.132-0.158-0.122C707.078,387.288,707.074,387.289,707.07,387.29L707.07,387.29z M706.48,383.63
		c-0.083,0.023-0.135,0.105-0.12,0.19c0.014,0.08,0.09,0.133,0.17,0.12c0.082-0.013,0.139-0.088,0.13-0.17
		C706.647,383.683,706.568,383.621,706.48,383.63L706.48,383.63z M692.64,387.33c-0.067-0.038-0.152-0.021-0.2,0.04
		c-0.053,0.064-0.045,0.158,0.019,0.212c0.064,0.053,0.158,0.045,0.212-0.019c0.003-0.004,0.007-0.008,0.009-0.013
		C692.729,387.478,692.711,387.38,692.64,387.33L692.64,387.33z M714.31,386.47c-0.042-0.068-0.131-0.089-0.199-0.047
		c-0.004,0.002-0.007,0.005-0.011,0.007c-0.065,0.037-0.087,0.12-0.05,0.185c0.003,0.005,0.006,0.01,0.01,0.015
		c0.035,0.067,0.118,0.094,0.186,0.059c0.005-0.003,0.01-0.005,0.014-0.009c0.071-0.04,0.096-0.129,0.056-0.2
		C714.314,386.477,714.312,386.473,714.31,386.47L714.31,386.47z M712.38,383.32c-0.044-0.065-0.13-0.086-0.2-0.05
		c-0.03,0.03-0.06,0.05-0.07,0.08v0.02c-0.018,0.04-0.01,0.088,0.02,0.12c0.001,0.011,0.009,0.019,0.02,0.02h0.01
		c0.01,0.01,0.02,0.03,0.04,0.04c0.043,0.012,0.089,0.008,0.13-0.01C712.404,383.493,712.426,383.395,712.38,383.32L712.38,383.32z
		 M710.45,380.18c-0.045-0.069-0.137-0.088-0.206-0.043c-0.069,0.045-0.088,0.137-0.043,0.206c0.043,0.066,0.13,0.086,0.198,0.047
		c0.071-0.043,0.095-0.135,0.052-0.207C710.451,380.182,710.451,380.181,710.45,380.18L710.45,380.18z M700.29,388.73
		c-0.085-0.015-0.167,0.037-0.19,0.12c-0.023,0.082,0.025,0.167,0.107,0.19s0.167-0.025,0.19-0.107
		c0.001-0.004,0.002-0.009,0.003-0.013C700.412,388.839,700.367,388.76,700.29,388.73L700.29,388.73z M701.15,385.15
		c-0.083-0.02-0.166,0.029-0.19,0.11c-0.015,0.085,0.041,0.166,0.125,0.181c0.075,0.014,0.149-0.029,0.175-0.101
		C701.278,385.258,701.23,385.176,701.15,385.15L701.15,385.15z M727.09,396.46c-0.096-0.13-0.277-0.161-0.41-0.07
		c-0.128,0.097-0.152,0.279-0.056,0.407c0.094,0.123,0.268,0.151,0.396,0.063c0.129-0.085,0.164-0.258,0.079-0.387
		C727.096,396.469,727.093,396.464,727.09,396.46L727.09,396.46z M723.04,390.75c-0.092-0.129-0.27-0.16-0.4-0.07
		c-0.131,0.085-0.168,0.26-0.084,0.391c0.004,0.007,0.009,0.013,0.014,0.019c0.091,0.13,0.27,0.161,0.4,0.07
		C723.099,391.064,723.13,390.883,723.04,390.75z M718.99,385.05c-0.096-0.13-0.277-0.161-0.41-0.07
		c-0.129,0.086-0.164,0.26-0.078,0.389c0.002,0.004,0.005,0.007,0.008,0.011c0.092,0.132,0.274,0.163,0.406,0.071
		C719.046,385.36,719.079,385.182,718.99,385.05z M702.24,408.62c-0.156-0.025-0.305,0.076-0.34,0.23
		c-0.026,0.156,0.079,0.303,0.235,0.329c0.002,0,0.003,0,0.005,0.001c0.16,0.028,0.312-0.079,0.34-0.239c0,0,0,0,0-0.001
		c0.026-0.15-0.074-0.292-0.224-0.318C702.251,408.621,702.245,408.621,702.24,408.62z M703.41,401.71
		c-0.155-0.027-0.302,0.077-0.329,0.232c0,0.003-0.001,0.006-0.001,0.009c-0.028,0.157,0.074,0.308,0.23,0.34
		c0.159,0.023,0.309-0.082,0.34-0.24C703.669,401.892,703.565,401.745,703.41,401.71z M704.58,394.81
		c-0.158-0.019-0.305,0.085-0.34,0.24c-0.025,0.158,0.083,0.306,0.241,0.331c0.154,0.024,0.299-0.078,0.329-0.23
		c0.032-0.155-0.068-0.307-0.224-0.339C704.584,394.811,704.582,394.81,704.58,394.81L704.58,394.81z M705.74,387.91
		c-0.155-0.016-0.297,0.088-0.33,0.24c-0.028,0.16,0.078,0.313,0.238,0.341c0.16,0.028,0.313-0.078,0.341-0.238
		c0.029-0.16-0.078-0.313-0.238-0.341C705.747,387.911,705.744,387.911,705.74,387.91z M706.92,381.01
		c-0.156-0.026-0.303,0.079-0.329,0.235c0,0.002,0,0.003-0.001,0.005c-0.034,0.152,0.062,0.303,0.214,0.337
		c0.005,0.001,0.011,0.002,0.016,0.003c0.152,0.029,0.298-0.07,0.327-0.222c0.001-0.006,0.002-0.012,0.003-0.018
		C707.178,381.193,707.076,381.043,706.92,381.01L706.92,381.01z M732.88,385.5c-0.133-0.089-0.313-0.053-0.402,0.08
		c-0.089,0.133-0.053,0.313,0.08,0.402c0.004,0.003,0.008,0.005,0.012,0.008c0.136,0.08,0.311,0.041,0.4-0.09
		c0.087-0.128,0.054-0.302-0.073-0.39C732.891,385.507,732.886,385.503,732.88,385.5L732.88,385.5z M716.89,404.87
		c-0.155,0.033-0.253,0.185-0.22,0.34c0.033,0.155,0.185,0.253,0.34,0.22c0.16-0.034,0.263-0.19,0.23-0.35
		C717.199,404.927,717.044,404.835,716.89,404.87L716.89,404.87z M715.33,398.05c-0.149,0.025-0.25,0.166-0.225,0.315
		c0.001,0.008,0.003,0.017,0.005,0.025c0.033,0.154,0.184,0.253,0.338,0.22c0.001,0,0.001,0,0.002,0
		c0.16-0.034,0.263-0.19,0.23-0.35c-0.037-0.154-0.192-0.248-0.345-0.211C715.333,398.049,715.332,398.05,715.33,398.05
		L715.33,398.05z M713.76,391.22c-0.154,0.039-0.248,0.195-0.21,0.35c0.033,0.154,0.184,0.253,0.338,0.22c0.001,0,0.001,0,0.002,0
		c0.158-0.036,0.26-0.191,0.23-0.35C714.078,391.283,713.919,391.186,713.76,391.22L713.76,391.22z M712.2,384.4
		c-0.154,0.037-0.248,0.192-0.211,0.345c0,0.002,0.001,0.003,0.001,0.005c0.029,0.147,0.172,0.244,0.319,0.215
		c0.007-0.001,0.014-0.003,0.021-0.005c0.151-0.028,0.251-0.173,0.223-0.324c-0.001-0.005-0.002-0.011-0.003-0.016
		C712.511,384.465,712.357,384.368,712.2,384.4L712.2,384.4z M690.66,400.65c-0.121-0.084-0.287-0.054-0.371,0.067
		c-0.007,0.01-0.014,0.021-0.019,0.033c-0.083,0.131-0.045,0.305,0.086,0.388c0.001,0.001,0.002,0.002,0.004,0.002
		c0.131,0.087,0.307,0.051,0.394-0.08c0.002-0.003,0.004-0.007,0.006-0.01C690.842,400.912,690.797,400.734,690.66,400.65z
		 M694.39,394.73c-0.128-0.087-0.302-0.054-0.39,0.074c-0.004,0.005-0.007,0.011-0.01,0.016c-0.087,0.133-0.052,0.311,0.08,0.4
		c0.143,0.071,0.316,0.029,0.41-0.1C694.559,394.987,694.519,394.815,694.39,394.73L694.39,394.73z M698.11,388.8
		c-0.131-0.089-0.309-0.055-0.398,0.076c-0.001,0.001-0.002,0.002-0.002,0.004c-0.089,0.134-0.053,0.315,0.081,0.404
		c0.003,0.002,0.006,0.004,0.009,0.006c0.128,0.084,0.3,0.048,0.384-0.08c0.002-0.003,0.004-0.007,0.006-0.01
		C698.278,389.068,698.243,388.889,698.11,388.8C698.11,388.8,698.11,388.8,698.11,388.8L698.11,388.8z M701.82,382.87
		c-0.133-0.081-0.306-0.038-0.387,0.095c-0.001,0.002-0.002,0.003-0.003,0.005c-0.085,0.123-0.054,0.292,0.069,0.377
		c0.007,0.005,0.014,0.009,0.021,0.013c0.136,0.079,0.311,0.04,0.4-0.09c0.084-0.131,0.046-0.307-0.085-0.391
		C701.83,382.876,701.825,382.873,701.82,382.87L701.82,382.87z M723.5,403.24c-0.126,0.032-0.203,0.16-0.171,0.286
		c0.003,0.012,0.007,0.023,0.011,0.034c0.039,0.13,0.176,0.204,0.306,0.165c0.005-0.001,0.009-0.003,0.014-0.005
		c0.132-0.045,0.204-0.188,0.16-0.32c-0.037-0.129-0.171-0.203-0.299-0.167C723.513,403.235,723.507,403.237,723.5,403.24
		L723.5,403.24z M721.53,397.3c-0.132,0.04-0.206,0.179-0.167,0.31c0.002,0.007,0.004,0.013,0.007,0.02
		c0.045,0.133,0.185,0.207,0.32,0.17c0.136-0.049,0.207-0.2,0.158-0.336C721.801,397.334,721.663,397.263,721.53,397.3L721.53,397.3
		z M719.89,391.53c-0.007-0.05-0.036-0.094-0.08-0.12h-0.01c-0.068-0.054-0.158-0.069-0.24-0.04
		c-0.137,0.048-0.21,0.198-0.162,0.335c0.001,0.002,0.001,0.003,0.002,0.005c0.046,0.131,0.188,0.201,0.32,0.16
		c0.065-0.017,0.118-0.066,0.14-0.13C719.911,391.682,719.922,391.6,719.89,391.53L719.89,391.53z M717.6,385.44
		c-0.141,0.047-0.217,0.199-0.17,0.34c0,0,0,0,0,0c0.053,0.13,0.195,0.199,0.33,0.16c0.132-0.04,0.206-0.179,0.167-0.31
		c-0.002-0.007-0.004-0.013-0.007-0.02C717.877,385.476,717.735,385.4,717.6,385.44z M697.48,401.34
		c-0.13-0.062-0.286-0.009-0.35,0.12c-0.066,0.127-0.017,0.284,0.11,0.35c0.133,0.059,0.289,0.007,0.36-0.12
		C697.647,401.56,697.597,401.414,697.48,401.34z M700.28,395.76c-0.13-0.062-0.286-0.009-0.35,0.12
		c-0.065,0.121-0.019,0.271,0.102,0.336c0.003,0.001,0.005,0.003,0.008,0.004c0.115,0.066,0.262,0.027,0.329-0.088
		c0.004-0.007,0.008-0.014,0.011-0.022c0.07-0.121,0.029-0.276-0.092-0.346C700.285,395.763,700.283,395.761,700.28,395.76
		L700.28,395.76z M703.08,390.18c-0.13-0.062-0.286-0.009-0.35,0.12c-0.066,0.115-0.027,0.262,0.088,0.329
		c0.007,0.004,0.014,0.008,0.022,0.011c0.13,0.062,0.286,0.009,0.35-0.12C703.251,390.396,703.203,390.245,703.08,390.18
		L703.08,390.18z M705.87,384.59c-0.13-0.047-0.276,0.003-0.35,0.12c-0.062,0.13-0.009,0.286,0.12,0.35
		c0.127,0.061,0.28,0.013,0.35-0.11C706.049,384.817,705.997,384.661,705.87,384.59L705.87,384.59z M729.76,389.45
		c-0.087-0.107-0.244-0.124-0.351-0.037c-0.007,0.005-0.013,0.011-0.019,0.017c-0.104,0.077-0.126,0.224-0.048,0.328
		c0.006,0.008,0.012,0.015,0.018,0.022c0.078,0.107,0.228,0.13,0.335,0.052c0.009-0.007,0.017-0.014,0.025-0.022
		C729.83,389.722,729.848,389.561,729.76,389.45L729.76,389.45z M725.67,384.72c-0.1-0.101-0.26-0.109-0.37-0.02
		c-0.106,0.097-0.115,0.262-0.02,0.37c0.092,0.101,0.247,0.109,0.35,0.02c0.113-0.087,0.134-0.248,0.047-0.361
		C725.675,384.726,725.672,384.723,725.67,384.72L725.67,384.72z M711.04,401.79c-0.145-0.003-0.267,0.106-0.28,0.25
		c-0.005,0.144,0.107,0.265,0.252,0.27c0.136,0.005,0.252-0.095,0.268-0.23C711.29,401.935,711.184,401.808,711.04,401.79
		L711.04,401.79z M711.49,395.57c-0.141-0.008-0.261,0.099-0.27,0.24c-0.008,0.141,0.099,0.262,0.24,0.271
		c0.137,0.008,0.257-0.094,0.27-0.231C711.738,395.707,711.632,395.584,711.49,395.57L711.49,395.57z M711.94,389.35
		c-0.13-0.018-0.25,0.072-0.268,0.202c-0.001,0.009-0.002,0.019-0.002,0.028c-0.008,0.141,0.099,0.261,0.24,0.27
		c0.138,0.011,0.259-0.091,0.27-0.229c0.011-0.138-0.091-0.259-0.229-0.27C711.947,389.35,711.944,389.35,711.94,389.35z
		 M712.39,383.12c-0.141-0.013-0.265,0.09-0.28,0.23v0.02c0.003,0.049,0.016,0.097,0.04,0.14h0.01c0.01,0.01,0.02,0.03,0.04,0.04
		c0.043,0.044,0.099,0.072,0.16,0.08c0.141,0.008,0.261-0.101,0.269-0.241C712.636,383.249,712.53,383.129,712.39,383.12z
		 M689.77,391.35c-0.097-0.104-0.257-0.117-0.37-0.03c-0.106,0.098-0.114,0.262-0.02,0.37c0.09,0.108,0.25,0.122,0.358,0.032
		c0.001-0.001,0.001-0.001,0.002-0.002C689.848,391.625,689.861,391.461,689.77,391.35L689.77,391.35z M694.49,387.26
		c-0.096-0.1-0.253-0.109-0.36-0.02c-0.11,0.081-0.133,0.236-0.052,0.345c0.004,0.005,0.008,0.01,0.012,0.015
		c0.095,0.108,0.259,0.121,0.37,0.03c0.11-0.089,0.127-0.251,0.038-0.361C694.495,387.266,694.493,387.263,694.49,387.26
		L694.49,387.26z M726.98,388.37c-0.047-0.066-0.135-0.091-0.21-0.06c-0.074,0.041-0.102,0.135-0.06,0.209c0,0,0,0.001,0,0.001
		c0.033,0.07,0.117,0.1,0.187,0.067c0.004-0.002,0.009-0.004,0.013-0.007C726.987,388.541,727.018,388.447,726.98,388.37
		L726.98,388.37z M725.17,385.17c-0.044-0.071-0.135-0.097-0.21-0.06c-0.075,0.041-0.101,0.135-0.06,0.21
		c0.041,0.075,0.135,0.101,0.21,0.06C725.181,385.336,725.206,385.245,725.17,385.17L725.17,385.17z M711.48,390.17
		c-0.076-0.023-0.156,0.02-0.179,0.095c0,0.002-0.001,0.003-0.001,0.005c-0.024,0.08,0.021,0.164,0.1,0.19
		c0.083,0.02,0.166-0.029,0.19-0.11C711.609,390.27,711.56,390.189,711.48,390.17C711.48,390.17,711.48,390.17,711.48,390.17
		L711.48,390.17z M712.47,386.62c-0.071-0.026-0.149,0.011-0.175,0.081c-0.002,0.006-0.004,0.012-0.005,0.019
		c-0.027,0.076,0.013,0.16,0.089,0.187c0.004,0.001,0.007,0.002,0.011,0.003c0.082,0.019,0.166-0.023,0.2-0.1
		c0.02-0.085-0.033-0.17-0.118-0.19C712.471,386.62,712.471,386.62,712.47,386.62L712.47,386.62z M713.47,383.07
		c-0.08-0.023-0.165,0.023-0.188,0.103c-0.001,0.002-0.001,0.005-0.002,0.007c-0.019,0.08,0.03,0.161,0.11,0.18c0,0,0,0,0,0
		c0.076,0.023,0.156-0.02,0.179-0.095c0-0.002,0.001-0.003,0.001-0.005C713.594,383.18,713.549,383.096,713.47,383.07L713.47,383.07
		z M719.22,388.77c-0.077,0.004-0.137,0.069-0.133,0.146c0,0.008,0.001,0.016,0.003,0.024c0.017,0.079,0.089,0.135,0.17,0.13
		c0.082-0.013,0.139-0.088,0.13-0.17c-0.009-0.081-0.082-0.14-0.164-0.131C719.224,388.769,719.222,388.77,719.22,388.77
		L719.22,388.77z M718.77,385.11c-0.08,0-0.13,0.08-0.13,0.17c0.017,0.079,0.089,0.135,0.17,0.13c0.087-0.01,0.15-0.089,0.141-0.176
		c0-0.001,0-0.003,0-0.004c-0.013-0.081-0.089-0.135-0.17-0.122C718.777,385.108,718.773,385.109,718.77,385.11L718.77,385.11z
		 M705.72,385.11c-0.058-0.051-0.146-0.045-0.197,0.013c-0.005,0.005-0.009,0.011-0.013,0.017c-0.05,0.066-0.036,0.16,0.03,0.21
		c0.066,0.05,0.16,0.036,0.21-0.03C705.8,385.254,705.786,385.16,705.72,385.11z M708,382.22c-0.057-0.051-0.145-0.046-0.196,0.011
		c-0.005,0.006-0.01,0.012-0.014,0.019c-0.05,0.055-0.047,0.14,0.008,0.19c0.004,0.004,0.008,0.007,0.012,0.01
		c0.067,0.054,0.164,0.045,0.22-0.02c0.05-0.063,0.04-0.155-0.024-0.205C708.004,382.223,708.002,382.221,708,382.22L708,382.22z
		 M728.5,392.43c-0.088,0.023-0.14,0.113-0.116,0.201c0.002,0.006,0.004,0.013,0.006,0.019c0.033,0.089,0.129,0.137,0.22,0.11
		c0.091-0.036,0.14-0.136,0.11-0.23c-0.033-0.088-0.131-0.133-0.219-0.1C728.501,392.43,728.5,392.43,728.5,392.43L728.5,392.43z
		 M727.14,388.45c-0.092,0.029-0.145,0.126-0.12,0.22c0.037,0.09,0.136,0.137,0.23,0.11c0.086-0.027,0.133-0.119,0.106-0.204
		c-0.002-0.005-0.004-0.011-0.006-0.016c-0.026-0.087-0.117-0.137-0.204-0.112C727.144,388.449,727.142,388.449,727.14,388.45
		L727.14,388.45z M725.77,384.47c-0.093,0.032-0.143,0.133-0.111,0.226c0,0.001,0.001,0.003,0.001,0.004c0,0.01,0,0.01,0.01,0.02
		c0.043,0.072,0.128,0.108,0.21,0.09c0.09-0.037,0.137-0.137,0.11-0.23C725.959,384.489,725.861,384.441,725.77,384.47
		L725.77,384.47z M710.97,391.34c-0.091-0.035-0.194,0.004-0.24,0.09c-0.041,0.086-0.005,0.188,0.08,0.23
		c0.077,0.044,0.175,0.018,0.22-0.059c0.004-0.007,0.007-0.014,0.01-0.021C711.086,391.494,711.055,391.388,710.97,391.34
		L710.97,391.34z M712.81,387.56c-0.088-0.03-0.186,0.008-0.23,0.09c-0.045,0.081-0.016,0.183,0.065,0.227
		c0.002,0.001,0.003,0.002,0.005,0.003c0.083,0.048,0.189,0.019,0.237-0.064c0.001-0.002,0.002-0.004,0.003-0.006
		C712.929,387.718,712.895,387.612,712.81,387.56L712.81,387.56z M714.66,383.79c-0.089-0.037-0.191-0.003-0.24,0.08
		c-0.037,0.086-0.002,0.186,0.08,0.23c0.077,0.044,0.175,0.018,0.22-0.059c0.004-0.007,0.007-0.014,0.01-0.021
		c0.045-0.079,0.018-0.179-0.06-0.225C714.667,383.793,714.663,383.792,714.66,383.79L714.66,383.79z M735.11,386.12
		c-0.062-0.074-0.173-0.084-0.247-0.022c-0.001,0.001-0.002,0.001-0.003,0.002c-0.071,0.065-0.08,0.174-0.02,0.25
		c0.065,0.072,0.176,0.077,0.248,0.012c0.001-0.001,0.002-0.001,0.002-0.002C735.16,386.298,735.169,386.192,735.11,386.12
		L735.11,386.12z M719.81,391.41h-0.01c-0.093,0.003-0.167,0.077-0.17,0.17c-0.01,0.089,0.055,0.17,0.145,0.179
		c0.005,0.001,0.01,0.001,0.015,0.001c0.025,0.002,0.05-0.005,0.07-0.02c0.069-0.008,0.118-0.071,0.11-0.14c0,0,0,0,0,0
		c0.01-0.094-0.057-0.179-0.151-0.189C719.816,391.41,719.813,391.41,719.81,391.41L719.81,391.41z M720.07,387.21
		c-0.096-0.008-0.182,0.063-0.19,0.159c-0.008,0.096,0.063,0.182,0.159,0.19c0.004,0,0.007,0.001,0.011,0.001
		c0.093,0.006,0.174-0.064,0.18-0.157c0-0.001,0-0.002,0-0.003c0.01-0.094-0.057-0.179-0.151-0.189
		C720.076,387.21,720.073,387.21,720.07,387.21L720.07,387.21z M720.33,383.02c-0.086-0.012-0.166,0.048-0.178,0.134
		c-0.001,0.009-0.002,0.017-0.002,0.026c-0.01,0.094,0.057,0.179,0.151,0.189c0.003,0,0.006,0.001,0.009,0.001
		c0.096,0.002,0.176-0.074,0.18-0.17c0.01-0.089-0.055-0.17-0.145-0.179C720.34,383.02,720.335,383.02,720.33,383.02L720.33,383.02z
		 M705.41,384.52c-0.061-0.066-0.165-0.07-0.231-0.009c-0.003,0.003-0.006,0.006-0.009,0.009c-0.071,0.061-0.079,0.168-0.02,0.24
		c0.063,0.075,0.175,0.084,0.25,0.021s0.084-0.175,0.021-0.25C705.417,384.527,705.414,384.524,705.41,384.52L705.41,384.52z
		 M708.56,381.74c-0.064-0.072-0.174-0.078-0.245-0.014c-0.002,0.001-0.003,0.003-0.005,0.004c-0.066,0.061-0.07,0.164-0.009,0.231
		c0.003,0.003,0.006,0.006,0.009,0.009c0.05,0.068,0.145,0.083,0.214,0.034c0.006-0.004,0.011-0.009,0.016-0.014
		c0.074-0.062,0.085-0.172,0.023-0.246C708.562,381.742,708.561,381.741,708.56,381.74L708.56,381.74z M721.95,409.88
		c-0.163-0.019-0.31,0.098-0.329,0.261c0,0.003-0.001,0.006-0.001,0.009c-0.011,0.162,0.108,0.304,0.27,0.32
		c0.164,0.013,0.31-0.106,0.33-0.27c0.015-0.162-0.105-0.305-0.266-0.32C721.952,409.88,721.951,409.88,721.95,409.88L721.95,409.88
		z M722.53,402.69c-0.161-0.015-0.304,0.103-0.32,0.264c0,0.002,0,0.004,0,0.006c-0.007,0.164,0.116,0.305,0.28,0.32
		c0.163,0.014,0.306-0.107,0.319-0.27c0.014-0.163-0.107-0.306-0.27-0.319C722.536,402.69,722.533,402.69,722.53,402.69z
		 M723.13,395.5c-0.162-0.019-0.31,0.098-0.328,0.26c-0.019,0.163,0.097,0.31,0.26,0.328c0.006,0.001,0.012,0.001,0.018,0.002
		c0.166,0.016,0.313-0.105,0.33-0.27C723.413,395.657,723.292,395.518,723.13,395.5L723.13,395.5z M723.72,388.31
		c-0.164-0.007-0.305,0.116-0.32,0.28c-0.011,0.162,0.108,0.304,0.27,0.32c0.166,0.011,0.309-0.114,0.321-0.28
		C724.002,388.468,723.882,388.326,723.72,388.31L723.72,388.31z M695.15,396.1c-0.102-0.124-0.285-0.142-0.409-0.039
		c-0.004,0.003-0.007,0.006-0.011,0.009c-0.123,0.093-0.148,0.268-0.056,0.391c0.005,0.007,0.01,0.013,0.016,0.019
		c0.11,0.126,0.299,0.143,0.43,0.04C695.239,396.41,695.252,396.226,695.15,396.1z M700.65,391.44
		c-0.102-0.127-0.287-0.147-0.414-0.045s-0.147,0.287-0.045,0.414c0.003,0.004,0.006,0.007,0.009,0.011
		c0.108,0.122,0.291,0.139,0.42,0.04C700.743,391.752,700.756,391.565,700.65,391.44z M706.15,386.77
		c-0.106-0.126-0.293-0.144-0.42-0.04c-0.121,0.112-0.138,0.297-0.04,0.43c0.108,0.123,0.295,0.136,0.42,0.03
		c0.127-0.1,0.148-0.283,0.049-0.41C706.156,386.777,706.153,386.773,706.15,386.77z M711.65,382.11
		c-0.1-0.127-0.283-0.148-0.409-0.049c-0.004,0.003-0.007,0.006-0.011,0.009c-0.121,0.112-0.139,0.298-0.04,0.43
		c0.108,0.123,0.295,0.136,0.42,0.03c0.127-0.1,0.148-0.283,0.049-0.409C711.656,382.117,711.653,382.113,711.65,382.11z
		 M732.07,391.15c-0.158,0.046-0.249,0.212-0.203,0.371s0.213,0.249,0.371,0.203c0.004-0.001,0.008-0.002,0.012-0.004
		c0.158-0.046,0.249-0.212,0.203-0.371s-0.213-0.249-0.371-0.203C732.078,391.147,732.074,391.149,732.07,391.15z M730.05,384.29
		c-0.059-0.013-0.121-0.013-0.18,0c-0.159,0.051-0.247,0.22-0.2,0.38c0.059,0.158,0.235,0.238,0.393,0.179
		c0.149-0.056,0.23-0.216,0.187-0.369C730.219,384.387,730.144,384.316,730.05,384.29z M709.18,402.86
		c-0.149-0.072-0.328-0.009-0.4,0.14c0,0,0,0,0,0c-0.071,0.144-0.018,0.319,0.12,0.4c0.15,0.069,0.327,0.012,0.41-0.13
		c0.078-0.147,0.022-0.33-0.125-0.408C709.183,402.862,709.182,402.861,709.18,402.86L709.18,402.86z M712.48,396.45
		c-0.143-0.074-0.319-0.018-0.393,0.125c-0.003,0.005-0.005,0.01-0.007,0.015c-0.075,0.139-0.023,0.313,0.116,0.388
		c0.001,0.001,0.003,0.001,0.004,0.002c0.147,0.078,0.33,0.022,0.408-0.125c0.001-0.002,0.002-0.003,0.002-0.005
		c0.077-0.139,0.027-0.314-0.112-0.391C712.492,396.456,712.486,396.453,712.48,396.45z M715.77,390.03
		c-0.147-0.065-0.318-0.003-0.39,0.14c-0.076,0.143-0.021,0.32,0.122,0.396c0.003,0.001,0.005,0.003,0.008,0.004
		c0.139,0.073,0.311,0.02,0.385-0.119c0.002-0.004,0.004-0.007,0.005-0.011c0.078-0.147,0.022-0.33-0.126-0.408
		C715.773,390.031,715.771,390.031,715.77,390.03L715.77,390.03z M719.07,383.62c-0.149-0.068-0.326-0.007-0.4,0.14
		c-0.068,0.15-0.001,0.326,0.148,0.394c0.14,0.063,0.306,0.01,0.382-0.124c0.078-0.147,0.022-0.33-0.125-0.408
		C719.073,383.622,719.072,383.621,719.07,383.62L719.07,383.62z M735.42,387.14c-0.155,0.055-0.239,0.223-0.19,0.38
		c0.067,0.149,0.233,0.226,0.39,0.18c0.153-0.057,0.231-0.226,0.174-0.379c-0.001-0.004-0.003-0.007-0.004-0.011
		c-0.053-0.148-0.216-0.225-0.364-0.172C735.424,387.139,735.422,387.139,735.42,387.14L735.42,387.14z M712.87,406.15
		c-0.155-0.063-0.332,0.008-0.4,0.16c-0.061,0.149,0.005,0.32,0.15,0.39c0.143,0.069,0.315,0.008,0.384-0.135
		c0.002-0.005,0.004-0.01,0.006-0.015C713.082,406.401,713.019,406.222,712.87,406.15L712.87,406.15z M715.88,399.63
		c-0.155-0.064-0.332,0.007-0.4,0.16c-0.064,0.153,0.008,0.329,0.161,0.393c0.15,0.063,0.322-0.005,0.389-0.153
		C716.093,399.878,716.027,399.703,715.88,399.63z M718.89,393.12c-0.145-0.069-0.319-0.008-0.389,0.137
		c0,0.001-0.001,0.002-0.001,0.003c-0.072,0.148-0.011,0.326,0.136,0.398c0.148,0.072,0.326,0.011,0.398-0.136
		s0.011-0.326-0.136-0.398C718.896,393.123,718.893,393.121,718.89,393.12z M721.9,386.6c-0.143-0.07-0.316-0.011-0.386,0.132
		c-0.001,0.003-0.003,0.006-0.004,0.008c-0.066,0.149,0.001,0.324,0.15,0.39c0.135,0.073,0.304,0.023,0.377-0.112
		c0.005-0.009,0.009-0.018,0.013-0.028c0.067-0.147,0.002-0.321-0.145-0.388C721.904,386.602,721.902,386.601,721.9,386.6z
		 M728.48,398.69c-0.164-0.002-0.301,0.126-0.31,0.29c0.001,0.166,0.136,0.3,0.302,0.3c0.154-0.001,0.282-0.117,0.298-0.27
		C728.776,398.842,728.647,398.701,728.48,398.69L728.48,398.69z M728.78,391.51c-0.168-0.006-0.309,0.123-0.32,0.29
		c-0.003,0.161,0.12,0.296,0.28,0.31c0.163,0.008,0.301-0.117,0.31-0.28c0-0.003,0-0.007,0-0.01
		C729.061,391.66,728.94,391.521,728.78,391.51z M729.06,384.33c-0.166-0.002-0.306,0.124-0.32,0.29
		c-0.004,0.167,0.129,0.306,0.296,0.31c0.001,0,0.003,0,0.004,0c0.162,0.006,0.3-0.118,0.31-0.28
		C729.352,384.484,729.226,384.344,729.06,384.33L729.06,384.33z M703.35,394.64c-0.101-0.118-0.279-0.132-0.398-0.031
		c-0.008,0.007-0.015,0.014-0.022,0.021c-0.119,0.105-0.13,0.286-0.025,0.405c0.002,0.002,0.003,0.004,0.005,0.005
		c0.105,0.121,0.289,0.134,0.41,0.029c0.003-0.003,0.007-0.006,0.01-0.009c0.121-0.099,0.139-0.276,0.041-0.397
		C703.364,394.655,703.357,394.647,703.35,394.64z M708.63,389.76c-0.113-0.121-0.304-0.128-0.425-0.015
		c-0.121,0.113-0.128,0.304-0.015,0.425c0.111,0.119,0.298,0.128,0.42,0.02c0.124-0.105,0.139-0.29,0.035-0.414
		C708.64,389.77,708.635,389.765,708.63,389.76z M713.91,384.89c-0.113-0.121-0.304-0.128-0.425-0.015
		c-0.121,0.113-0.128,0.304-0.015,0.425c0.111,0.119,0.298,0.128,0.42,0.02c0.124-0.105,0.139-0.29,0.035-0.414
		C713.92,384.901,713.915,384.895,713.91,384.89L713.91,384.89z M715.74,394.16c-0.091-0.078-0.228-0.068-0.307,0.023
		c-0.005,0.006-0.009,0.011-0.013,0.017c-0.071,0.1-0.048,0.238,0.05,0.31c0.094,0.078,0.233,0.065,0.311-0.029
		c0.078-0.094,0.065-0.233-0.029-0.311C715.749,394.167,715.745,394.163,715.74,394.16z M718.99,389.82
		c-0.099-0.077-0.243-0.059-0.32,0.04s-0.059,0.243,0.04,0.32s0.243,0.059,0.32-0.04S719.089,389.897,718.99,389.82z M722.23,385.48
		c-0.102-0.069-0.239-0.052-0.32,0.04c-0.072,0.103-0.05,0.244,0.05,0.32c0.098,0.069,0.233,0.052,0.31-0.04
		c0.078-0.096,0.063-0.236-0.032-0.314C722.235,385.484,722.233,385.482,722.23,385.48L722.23,385.48z M726.92,396.37
		c-0.121-0.029-0.243,0.041-0.28,0.16c-0.024,0.12,0.044,0.24,0.16,0.28c0.118,0.025,0.235-0.045,0.27-0.16
		c0.039-0.114-0.023-0.237-0.136-0.276C726.929,396.373,726.925,396.371,726.92,396.37L726.92,396.37z M728.25,391.12
		c-0.112-0.029-0.227,0.038-0.256,0.15c-0.002,0.007-0.003,0.013-0.004,0.02c-0.035,0.113,0.029,0.233,0.143,0.268
		c0.002,0.001,0.005,0.001,0.007,0.002c0.124,0.03,0.249-0.046,0.28-0.17C728.447,391.269,728.371,391.148,728.25,391.12
		L728.25,391.12z M729.6,385.87c-0.124-0.027-0.247,0.048-0.28,0.17c-0.032,0.109,0.031,0.224,0.141,0.255
		c0.006,0.002,0.013,0.003,0.019,0.005c0.114,0.038,0.237-0.023,0.276-0.137c0.001-0.004,0.003-0.009,0.004-0.013
		C729.789,386.029,729.719,385.907,729.6,385.87L729.6,385.87z M710.36,384.19c-0.059-0.104-0.191-0.141-0.295-0.083
		c-0.002,0.001-0.003,0.002-0.005,0.003c-0.105,0.053-0.147,0.18-0.095,0.285c0.004,0.009,0.009,0.017,0.015,0.025
		c0.059,0.104,0.191,0.141,0.295,0.083c0.002-0.001,0.003-0.002,0.005-0.003C710.388,384.437,710.424,384.298,710.36,384.19
		C710.36,384.19,710.36,384.19,710.36,384.19L710.36,384.19z M715.02,381.43c-0.064-0.107-0.202-0.142-0.31-0.08
		c-0.104,0.059-0.141,0.191-0.083,0.295c0.001,0.002,0.002,0.003,0.003,0.005c0.057,0.109,0.192,0.152,0.301,0.095
		c0.003-0.002,0.006-0.003,0.009-0.005C715.047,381.676,715.082,381.538,715.02,381.43L715.02,381.43z M731.15,385.2
		c-0.064-0.018-0.132,0.006-0.17,0.06c-0.021,0.066,0.008,0.138,0.07,0.17c0.062,0.025,0.133-0.004,0.159-0.067
		c0-0.001,0.001-0.002,0.001-0.003C731.233,385.299,731.207,385.231,731.15,385.2z M726.72,388.9
		c-0.067-0.075-0.182-0.08-0.257-0.013c-0.005,0.004-0.009,0.009-0.013,0.013c-0.08,0.064-0.092,0.181-0.028,0.261
		c0.005,0.007,0.011,0.013,0.018,0.019c0.076,0.078,0.199,0.082,0.28,0.01c0.08-0.067,0.09-0.187,0.023-0.267
		C726.736,388.915,726.728,388.907,726.72,388.9z M730.24,385.48c-0.08-0.08-0.21-0.08-0.29,0c-0.08,0.08-0.08,0.21,0,0.29
		c0.086,0.074,0.216,0.065,0.29-0.021C730.307,385.672,730.307,385.557,730.24,385.48z"/>
	<path id="texture-2" style="opacity:0.51;fill:#FFFFFF;enable-background:new    ;" d="M401.443,279.909
		c-0.079-0.056-0.188-0.037-0.244,0.042c0,0,0,0,0,0c-0.058,0.073-0.046,0.178,0.027,0.236c0.002,0.001,0.003,0.002,0.005,0.004
		c0.079,0.056,0.188,0.037,0.244-0.042c0,0,0,0,0,0C401.529,280.073,401.515,279.968,401.443,279.909z M386.475,289.247
		c-0.016-0.093-0.104-0.156-0.197-0.141c-0.093,0.016-0.156,0.104-0.141,0.197c0.016,0.093,0.104,0.156,0.197,0.141h0
		C386.427,289.428,386.49,289.34,386.475,289.247C386.475,289.247,386.475,289.247,386.475,289.247z M385.819,285.112
		c-0.009-0.089-0.089-0.153-0.178-0.144c-0.006,0.001-0.013,0.002-0.019,0.003c-0.095,0.012-0.162,0.098-0.152,0.193
		c0.021,0.095,0.111,0.158,0.208,0.145C385.772,285.294,385.835,285.206,385.819,285.112
		C385.819,285.112,385.819,285.112,385.819,285.112L385.819,285.112z M385.164,280.978c-0.018-0.096-0.106-0.164-0.204-0.156
		c-0.095,0.021-0.158,0.111-0.145,0.208c0.015,0.093,0.104,0.156,0.197,0.141c0,0,0,0,0,0
		C385.107,281.159,385.174,281.073,385.164,280.978L385.164,280.978z M393.84,284.045c-0.049-0.079-0.153-0.103-0.232-0.053
		c-0.079,0.049-0.103,0.153-0.053,0.232c0.049,0.079,0.153,0.103,0.232,0.053l0,0c0.077-0.043,0.105-0.14,0.062-0.217
		C393.847,284.054,393.844,284.05,393.84,284.045L393.84,284.045z M391.652,280.468c-0.05-0.078-0.153-0.102-0.231-0.053
		c-0.032,0.021-0.057,0.05-0.072,0.085c-0.022,0.051-0.017,0.11,0.014,0.157c0.005,0.012,0.016,0.021,0.028,0.024l0.011,0.004
		c0.049,0.054,0.13,0.065,0.192,0.025c0.082-0.047,0.11-0.152,0.063-0.234C391.656,280.473,391.654,280.471,391.652,280.468
		L391.652,280.468z M408.347,295.382c-0.1-0.149-0.302-0.188-0.451-0.087c-0.003,0.002-0.006,0.004-0.01,0.007
		c-0.145,0.102-0.18,0.302-0.078,0.447c0.001,0.001,0.001,0.001,0.002,0.002c0.1,0.149,0.302,0.188,0.451,0.087
		c0.003-0.002,0.006-0.004,0.01-0.007c0.145-0.102,0.18-0.302,0.078-0.447C408.348,295.384,408.348,295.383,408.347,295.382z
		 M403.745,288.897c-0.102-0.145-0.302-0.18-0.447-0.078c-0.001,0.001-0.001,0.001-0.002,0.002
		c-0.149,0.105-0.186,0.311-0.081,0.461s0.311,0.186,0.461,0.081C403.819,289.25,403.85,289.045,403.745,288.897L403.745,288.897z
		 M399.15,282.426c-0.105-0.149-0.311-0.186-0.461-0.081c-0.149,0.105-0.186,0.311-0.081,0.461s0.311,0.186,0.461,0.081l0,0
		c0.149-0.1,0.188-0.302,0.087-0.451C399.155,282.433,399.152,282.429,399.15,282.426z M384.119,285.679
		c-0.177-0.028-0.343,0.093-0.372,0.27c0,0,0,0,0,0.001c-0.031,0.179,0.089,0.35,0.269,0.38c0.179,0.031,0.35-0.089,0.381-0.269
		c0.031-0.179-0.089-0.35-0.269-0.38C384.124,285.68,384.122,285.68,384.119,285.679z M414.92,282.937
		c-0.153-0.097-0.356-0.053-0.455,0.098c-0.099,0.153-0.055,0.357,0.098,0.455c0.153,0.099,0.357,0.055,0.455-0.098
		C415.117,283.239,415.073,283.035,414.92,282.937L414.92,282.937z M397.167,305.166c-0.036-0.181-0.212-0.298-0.393-0.262
		c-0.181,0.036-0.298,0.212-0.262,0.393s0.212,0.298,0.393,0.262c0.002,0,0.004-0.001,0.006-0.001
		C397.089,305.518,397.202,305.344,397.167,305.166L397.167,305.166z M395.397,297.423c-0.036-0.181-0.212-0.298-0.393-0.262
		c-0.181,0.036-0.298,0.212-0.262,0.393s0.212,0.298,0.393,0.262c0.002,0,0.004-0.001,0.007-0.001
		C395.319,297.775,395.432,297.601,395.397,297.423L395.397,297.423z M393.626,289.68c-0.049-0.177-0.227-0.286-0.407-0.249
		c-0.179,0.045-0.287,0.227-0.242,0.406c0.044,0.172,0.215,0.28,0.389,0.246C393.545,290.037,393.659,289.861,393.626,289.68
		L393.626,289.68z M391.841,281.944c-0.034-0.177-0.205-0.292-0.382-0.258c-0.177,0.034-0.292,0.205-0.258,0.382
		c0.001,0.005,0.002,0.011,0.004,0.016c0.039,0.175,0.212,0.285,0.386,0.247c0.003-0.001,0.006-0.001,0.01-0.002
		c0.168-0.033,0.278-0.196,0.245-0.365C391.844,281.957,391.843,281.95,391.841,281.944L391.841,281.944z M379.673,279.95
		c-0.156-0.09-0.355-0.04-0.449,0.114c-0.096,0.145-0.056,0.34,0.089,0.436c0.004,0.003,0.009,0.006,0.013,0.008
		c0.153,0.097,0.356,0.053,0.455-0.098C379.876,280.252,379.827,280.049,379.673,279.95L379.673,279.95z M420.424,280.409
		c-0.042,0.023-0.078,0.057-0.102,0.099c-0.032,0.072-0.032,0.154-0.001,0.227C420.353,280.621,420.385,280.508,420.424,280.409
		L420.424,280.409z M404.639,303.25c-0.051-0.153-0.217-0.235-0.37-0.184c-0.153,0.051-0.235,0.217-0.184,0.37l0,0
		c0.051,0.153,0.217,0.235,0.37,0.184C404.608,303.569,404.69,303.403,404.639,303.25z M402.405,296.524
		c-0.051-0.153-0.217-0.235-0.37-0.184c-0.153,0.051-0.235,0.217-0.184,0.37s0.217,0.235,0.369,0.184c0,0,0,0,0,0
		c0.151-0.047,0.234-0.207,0.188-0.358C402.408,296.532,402.406,296.528,402.405,296.524L402.405,296.524z M400.175,289.787
		c-0.01-0.055-0.04-0.103-0.086-0.135l-0.011-0.004c-0.078-0.059-0.18-0.076-0.273-0.044c-0.156,0.052-0.241,0.221-0.189,0.377
		c0,0.001,0.001,0.002,0.001,0.003c0.053,0.151,0.217,0.233,0.37,0.184c0.071-0.021,0.128-0.072,0.156-0.14
		C400.194,289.957,400.206,289.867,400.175,289.787L400.175,289.787z M397.941,283.06c-0.052-0.152-0.217-0.234-0.37-0.184
		c-0.155,0.052-0.239,0.219-0.188,0.375c0.051,0.153,0.215,0.237,0.369,0.189c0.156-0.052,0.241-0.221,0.189-0.378
		C397.941,283.062,397.941,283.061,397.941,283.06L397.941,283.06z M381.097,288.25c-0.144-0.072-0.32-0.014-0.392,0.13
		c-0.001,0.002-0.002,0.003-0.002,0.005c-0.077,0.132-0.032,0.3,0.1,0.377c0.008,0.005,0.016,0.009,0.025,0.013
		c0.144,0.072,0.319,0.014,0.392-0.13c0.001-0.002,0.002-0.003,0.002-0.005C381.291,288.498,381.236,288.326,381.097,288.25
		L381.097,288.25z M384.266,281.912c-0.146-0.065-0.318-0.006-0.394,0.135c-0.071,0.147-0.01,0.323,0.136,0.395
		c0.142,0.069,0.313,0.014,0.388-0.125C384.467,282.168,384.41,281.991,384.266,281.912L384.266,281.912z M411.372,287.421
		c-0.104-0.123-0.288-0.138-0.411-0.033c-0.003,0.002-0.005,0.005-0.008,0.007c-0.12,0.095-0.14,0.27-0.045,0.39
		c0.004,0.005,0.008,0.009,0.012,0.014c0.099,0.124,0.28,0.145,0.404,0.046c0.003-0.003,0.007-0.006,0.01-0.009
		C411.456,287.73,411.472,287.547,411.372,287.421L411.372,287.421z M406.732,282.057c-0.111-0.117-0.294-0.128-0.419-0.026
		c-0.122,0.109-0.134,0.296-0.026,0.419c0.113,0.119,0.301,0.124,0.42,0.011C406.819,282.353,406.831,282.177,406.732,282.057
		L406.732,282.057z M390.13,301.432c-0.162-0.003-0.298,0.12-0.313,0.281c-0.01,0.16,0.11,0.298,0.27,0.308
		c0.161,0.013,0.303-0.105,0.319-0.266C390.418,301.59,390.295,301.447,390.13,301.432L390.13,301.432z M390.644,294.363
		c-0.162-0.003-0.298,0.12-0.313,0.281c-0.01,0.16,0.11,0.297,0.27,0.308c0.155,0.015,0.292-0.098,0.307-0.252
		c0.001-0.006,0.001-0.012,0.001-0.018C390.923,294.521,390.805,294.379,390.644,294.363L390.644,294.363z M391.154,287.304
		c-0.154-0.015-0.292,0.098-0.307,0.252c-0.001,0.006-0.001,0.012-0.001,0.018c-0.012,0.16,0.108,0.299,0.267,0.311
		c0.16,0.012,0.299-0.108,0.311-0.267c0-0.002,0-0.003,0-0.005c0.015-0.154-0.098-0.292-0.252-0.307
		C391.166,287.305,391.16,287.304,391.154,287.304L391.154,287.304z M391.669,280.235c-0.161-0.013-0.303,0.105-0.319,0.266
		c-0.004,0.063,0.011,0.126,0.042,0.181l0.011,0.004c0.051,0.077,0.135,0.125,0.228,0.128c0.16,0.012,0.299-0.108,0.311-0.267
		c0.012-0.16-0.108-0.299-0.267-0.311C391.672,280.235,391.67,280.235,391.669,280.235L391.669,280.235z M408.216,286.203
		c-0.047-0.085-0.153-0.115-0.238-0.069c-0.085,0.047-0.115,0.153-0.069,0.238c0.047,0.085,0.153,0.115,0.238,0.069c0,0,0,0,0,0
		C408.23,286.392,408.26,286.287,408.216,286.203L408.216,286.203z M406.165,282.566c-0.047-0.085-0.153-0.115-0.238-0.069
		c-0.085,0.047-0.115,0.153-0.069,0.238c0.047,0.085,0.153,0.115,0.238,0.069c0,0,0,0,0,0
		C406.179,282.755,406.209,282.651,406.165,282.566L406.165,282.566z M390.635,288.236c-0.091-0.025-0.186,0.028-0.211,0.119
		c-0.025,0.091,0.028,0.186,0.119,0.211c0.091,0.025,0.186-0.028,0.211-0.119l0,0C390.78,288.356,390.727,288.261,390.635,288.236
		C390.636,288.236,390.636,288.236,390.635,288.236L390.635,288.236z M391.756,284.208c-0.087-0.028-0.18,0.02-0.207,0.106
		c-0.001,0.004-0.003,0.008-0.004,0.013c-0.026,0.091,0.028,0.185,0.119,0.211c0,0,0,0,0,0c0.093,0.027,0.191-0.023,0.222-0.115
		c0.024-0.094-0.032-0.19-0.126-0.214C391.759,284.209,391.757,284.208,391.756,284.208L391.756,284.208z M392.888,280.185
		c-0.087-0.028-0.179,0.019-0.207,0.106c-0.001,0.004-0.003,0.008-0.004,0.013c-0.025,0.091,0.028,0.186,0.119,0.211
		s0.186-0.028,0.211-0.119S392.979,280.21,392.888,280.185z M399.61,286.799c-0.006-0.091-0.085-0.16-0.176-0.154
		c-0.005,0-0.011,0.001-0.016,0.002c-0.093,0.008-0.161,0.09-0.153,0.183c0,0.003,0.001,0.006,0.001,0.01
		c0.017,0.092,0.1,0.156,0.193,0.152C399.553,286.98,399.621,286.894,399.61,286.799L399.61,286.799z M399.105,282.636
		c-0.012-0.091-0.095-0.155-0.186-0.143c-0.004,0-0.008,0.001-0.011,0.002c-0.094,0.014-0.16,0.098-0.152,0.193
		c0.017,0.092,0.1,0.156,0.193,0.152c0.096-0.009,0.167-0.095,0.158-0.192C399.106,282.644,399.106,282.64,399.105,282.636
		L399.105,282.636z M384.096,282.501c-0.066-0.059-0.167-0.052-0.226,0.014c-0.005,0.006-0.01,0.012-0.014,0.018
		c-0.057,0.075-0.043,0.182,0.032,0.24c0.075,0.057,0.182,0.043,0.24-0.032C384.185,282.666,384.171,282.559,384.096,282.501z
		 M410.194,290.921c-0.032-0.099-0.138-0.154-0.237-0.123c-0.002,0.001-0.004,0.001-0.006,0.002c-0.102,0.03-0.16,0.137-0.13,0.239
		c0.001,0.005,0.003,0.01,0.005,0.014c0.032,0.099,0.138,0.154,0.237,0.123c0.002-0.001,0.004-0.001,0.006-0.002
		C410.172,291.138,410.228,291.026,410.194,290.921L410.194,290.921z M408.64,286.408c-0.032-0.099-0.138-0.154-0.237-0.123
		c-0.002,0.001-0.004,0.001-0.006,0.002c-0.105,0.035-0.161,0.149-0.125,0.254c0.035,0.105,0.149,0.161,0.254,0.125l0,0
		c0.1-0.034,0.154-0.143,0.12-0.244C408.644,286.417,408.642,286.412,408.64,286.408L408.64,286.408z M407.098,281.898
		c-0.034-0.105-0.147-0.162-0.252-0.128c-0.105,0.034-0.162,0.147-0.128,0.252c0,0.001,0.001,0.003,0.001,0.004
		c-0.004,0.011,0.007,0.015,0.013,0.03c0.049,0.083,0.148,0.121,0.24,0.095C407.076,282.115,407.131,282.003,407.098,281.898
		L407.098,281.898z M390.047,289.569c-0.1-0.039-0.214,0.003-0.266,0.097c-0.047,0.096-0.009,0.212,0.086,0.261
		c0.087,0.051,0.2,0.022,0.251-0.066c0.004-0.007,0.007-0.013,0.01-0.021c0.053-0.097,0.017-0.219-0.081-0.272
		C390.048,289.57,390.047,289.569,390.047,289.569L390.047,289.569z M392.141,285.282c-0.1-0.039-0.214,0.003-0.266,0.097
		c-0.047,0.096-0.009,0.212,0.086,0.261c0.097,0.053,0.219,0.017,0.272-0.081c0,0,0-0.001,0.001-0.001
		C392.278,285.456,392.238,285.336,392.141,285.282L392.141,285.282z M394.235,280.994c-0.1-0.039-0.214,0.003-0.266,0.097
		c-0.047,0.096-0.009,0.212,0.086,0.261c0.089,0.051,0.202,0.019,0.253-0.07c0.005-0.009,0.009-0.018,0.013-0.027
		C394.369,281.159,394.331,281.043,394.235,280.994L394.235,280.994z M417.445,283.642c-0.069-0.084-0.193-0.096-0.277-0.027
		c-0.002,0.001-0.003,0.003-0.005,0.004c-0.079,0.074-0.089,0.196-0.023,0.282c0.072,0.082,0.197,0.09,0.279,0.018
		c0.002-0.002,0.005-0.004,0.007-0.007C417.506,283.842,417.514,283.722,417.445,283.642L417.445,283.642z M414.286,280.061
		c-0.072-0.082-0.197-0.092-0.281-0.023c-0.082,0.072-0.09,0.197-0.018,0.279c0.002,0.002,0.004,0.005,0.007,0.007
		c0.07,0.079,0.191,0.087,0.271,0.018C414.346,280.27,414.356,280.145,414.286,280.061L414.286,280.061z M400.271,289.863
		c0.01-0.106-0.069-0.201-0.175-0.21c-0.002,0-0.005,0-0.007,0l-0.011-0.004c-0.105,0.001-0.192,0.082-0.2,0.186
		c-0.01,0.106,0.069,0.201,0.175,0.21c0.002,0,0.005,0,0.007,0c0.028-0.001,0.056-0.007,0.083-0.018
		C400.217,290.005,400.268,289.939,400.271,289.863L400.271,289.863z M400.379,284.881c-0.11,0-0.203,0.083-0.215,0.193
		c0.003,0.109,0.089,0.197,0.197,0.204c0.106,0.004,0.195-0.078,0.2-0.184c0-0.001,0-0.002,0-0.003
		C400.569,284.983,400.488,284.889,400.379,284.881L400.379,284.881z M400.676,280.124c-0.108-0.008-0.203,0.074-0.211,0.182
		c-0.008,0.108,0.074,0.203,0.182,0.211c0.108,0.008,0.203-0.074,0.211-0.182c0,0,0,0,0,0c0.01-0.107-0.069-0.201-0.175-0.21
		C400.681,280.124,400.678,280.124,400.676,280.124L400.676,280.124z M383.742,281.832c-0.069-0.078-0.187-0.085-0.265-0.017
		c-0.003,0.003-0.007,0.006-0.01,0.009c-0.079,0.07-0.087,0.191-0.018,0.271c0.069,0.084,0.193,0.096,0.276,0.027
		c0.002-0.001,0.003-0.003,0.005-0.004C383.811,282.041,383.817,281.914,383.742,281.832L383.742,281.832z M419.668,281.463
		c-0.123-0.14-0.335-0.156-0.478-0.037c-0.142,0.124-0.157,0.34-0.033,0.482c0.12,0.138,0.327,0.157,0.47,0.043
		C419.767,281.825,419.786,281.611,419.668,281.463L419.668,281.463z M402.51,310.605c-0.187-0.016-0.353,0.12-0.374,0.307
		c-0.013,0.186,0.126,0.348,0.312,0.363c0.187,0.014,0.351-0.122,0.374-0.307C402.835,310.782,402.696,310.62,402.51,310.605
		L402.51,310.605z M403.176,302.447c-0.186-0.014-0.349,0.125-0.363,0.312s0.125,0.349,0.312,0.363
		c0.186,0.014,0.348-0.125,0.363-0.311C403.501,302.623,403.362,302.461,403.176,302.447L403.176,302.447z M403.853,294.292
		c-0.185-0.021-0.351,0.111-0.372,0.296c-0.021,0.185,0.111,0.351,0.296,0.373c0.005,0.001,0.01,0.001,0.014,0.001
		c0.187,0.016,0.353-0.12,0.374-0.307C404.178,294.469,404.039,294.307,403.853,294.292L403.853,294.292z M404.519,286.134
		c-0.184-0.016-0.346,0.12-0.362,0.304c0,0.002,0,0.005-0.001,0.007c-0.013,0.186,0.127,0.348,0.313,0.361
		c0.185,0.013,0.346-0.125,0.361-0.31c0.016-0.184-0.12-0.346-0.304-0.362C404.524,286.134,404.521,286.134,404.519,286.134
		L404.519,286.134z M384.579,284.384c-0.114-0.144-0.323-0.168-0.466-0.054c-0.002,0.002-0.005,0.004-0.007,0.006
		c-0.141,0.126-0.159,0.341-0.041,0.489c0.123,0.14,0.335,0.156,0.478,0.037c0.142-0.117,0.162-0.327,0.045-0.469
		C384.584,284.389,384.581,284.386,384.579,284.384L384.579,284.384z M414.425,289.572c-0.058-0.18-0.251-0.278-0.431-0.22
		c-0.18,0.058-0.278,0.251-0.22,0.431c0.058,0.18,0.251,0.278,0.431,0.22C414.383,289.942,414.48,289.751,414.425,289.572
		L414.425,289.572z M411.928,281.783c-0.056-0.179-0.246-0.278-0.424-0.222c-0.002,0.001-0.004,0.001-0.007,0.002
		c-0.177,0.061-0.275,0.251-0.22,0.431c0.063,0.178,0.258,0.272,0.437,0.209C411.885,282.142,411.98,281.957,411.928,281.783
		L411.928,281.783z M391.762,295.371c-0.158-0.086-0.355-0.027-0.441,0.131c-0.004,0.006-0.007,0.013-0.01,0.02
		c-0.085,0.162-0.022,0.361,0.139,0.446c0,0,0,0,0,0c0.168,0.087,0.374,0.022,0.461-0.146c0,0,0,0,0-0.001
		c0.086-0.158,0.027-0.355-0.131-0.441C391.775,295.377,391.768,295.374,391.762,295.371z M395.505,288.085
		c-0.17-0.082-0.375-0.009-0.456,0.161c-0.08,0.167-0.013,0.367,0.152,0.451c0.164,0.084,0.364,0.019,0.448-0.144
		c0.001-0.002,0.002-0.004,0.003-0.006C395.739,288.379,395.673,288.172,395.505,288.085
		C395.506,288.085,395.505,288.085,395.505,288.085L395.505,288.085z M399.244,280.81c-0.166-0.082-0.367-0.015-0.451,0.151
		c-0.082,0.167-0.014,0.369,0.153,0.451c0.162,0.08,0.357,0.018,0.444-0.14C399.478,281.104,399.413,280.897,399.244,280.81
		C399.245,280.81,399.245,280.81,399.244,280.81L399.244,280.81z M418.224,284.997c-0.058-0.169-0.242-0.259-0.411-0.201
		c-0.006,0.002-0.012,0.004-0.017,0.007c-0.175,0.066-0.267,0.257-0.209,0.435c0.074,0.169,0.264,0.255,0.439,0.198
		c0.175-0.064,0.265-0.258,0.201-0.433C418.225,285.001,418.225,284.999,418.224,284.997L418.224,284.997z M392.207,306.379
		c-0.17-0.081-0.374-0.009-0.455,0.162c-0.081,0.17-0.009,0.374,0.162,0.455c0.17,0.081,0.373,0.009,0.454-0.161
		C392.449,306.664,392.377,306.46,392.207,306.379C392.207,306.379,392.207,306.379,392.207,306.379L392.207,306.379z
		 M395.629,298.979c-0.175-0.072-0.375,0.003-0.459,0.172c-0.07,0.169,0.002,0.363,0.166,0.444c0.17,0.081,0.374,0.009,0.455-0.161
		C395.867,299.264,395.796,299.063,395.629,298.979L395.629,298.979z M399.036,291.585c-0.168-0.077-0.367-0.003-0.444,0.166
		s-0.003,0.367,0.166,0.444c0.17,0.081,0.374,0.009,0.455-0.161C399.284,291.861,399.206,291.664,399.036,291.585L399.036,291.585z
		 M402.459,284.185c-0.165-0.078-0.363-0.007-0.441,0.158c-0.001,0.002-0.002,0.005-0.003,0.007
		c-0.075,0.168-0.001,0.366,0.166,0.444c0.161,0.08,0.355,0.014,0.435-0.146c0.003-0.006,0.006-0.013,0.009-0.019
		c0.078-0.165,0.007-0.363-0.158-0.441C402.464,284.187,402.461,284.186,402.459,284.185L402.459,284.185z M409.926,297.911
		c-0.188-0.006-0.346,0.139-0.356,0.327c-0.003,0.186,0.145,0.34,0.331,0.345c0.184,0.011,0.341-0.129,0.352-0.313
		c0-0.001,0-0.002,0-0.003C410.256,298.08,410.112,297.924,409.926,297.911L409.926,297.911z M410.26,289.761
		c-0.187-0.003-0.343,0.14-0.356,0.327c-0.009,0.185,0.133,0.343,0.319,0.353c0.185,0.009,0.343-0.133,0.353-0.319
		c0-0.003,0-0.006,0-0.009c0.011-0.184-0.129-0.341-0.313-0.352C410.262,289.761,410.261,289.761,410.26,289.761z M410.579,281.617
		c-0.188-0.006-0.346,0.139-0.356,0.327c-0.002,0.189,0.15,0.343,0.338,0.345c0.18,0.002,0.331-0.136,0.344-0.316
		C410.912,281.785,410.767,281.627,410.579,281.617z M387.394,287.779c-0.123-0.134-0.331-0.143-0.465-0.021
		c-0.004,0.003-0.007,0.007-0.011,0.01c-0.136,0.124-0.146,0.335-0.022,0.471c0.127,0.139,0.341,0.15,0.482,0.026
		c0.138-0.126,0.148-0.34,0.023-0.479C387.399,287.784,387.397,287.781,387.394,287.779z M393.387,282.25
		c-0.129-0.133-0.341-0.138-0.476-0.011c-0.136,0.124-0.145,0.335-0.022,0.471c0.127,0.139,0.341,0.15,0.482,0.026
		c0.138-0.126,0.148-0.34,0.023-0.478C393.392,282.255,393.389,282.253,393.387,282.25z M418.004,281.072
		c-0.018-0.136-0.143-0.231-0.279-0.213c-0.001,0-0.002,0-0.003,0c-0.142,0.016-0.244,0.143-0.228,0.285
		c0.016,0.142,0.143,0.244,0.285,0.228c0.142-0.016,0.244-0.143,0.228-0.285C418.005,281.082,418.004,281.077,418.004,281.072z
		 M395.465,292.766c-0.102-0.087-0.256-0.075-0.344,0.027c-0.006,0.007-0.011,0.014-0.016,0.021
		c-0.085,0.112-0.063,0.272,0.049,0.357c0.112,0.085,0.272,0.063,0.357-0.049C395.597,293.01,395.576,292.851,395.465,292.766z
		 M399.149,287.842c-0.109-0.087-0.267-0.069-0.354,0.04c-0.002,0.002-0.004,0.005-0.005,0.007c-0.086,0.112-0.065,0.273,0.048,0.36
		c0.112,0.086,0.273,0.065,0.36-0.048C399.282,288.089,399.261,287.928,399.149,287.842
		C399.149,287.842,399.149,287.842,399.149,287.842z M402.832,282.918c-0.112-0.086-0.273-0.065-0.36,0.048
		c-0.086,0.112-0.065,0.273,0.048,0.36s0.273,0.065,0.36-0.048l0,0C402.963,283.165,402.942,283.006,402.832,282.918
		L402.832,282.918z M408.148,295.279c-0.135-0.037-0.274,0.043-0.31,0.178c0,0.001,0,0.002-0.001,0.002
		c-0.029,0.135,0.049,0.269,0.18,0.311c0.135,0.034,0.273-0.046,0.311-0.18c0.04-0.13-0.033-0.267-0.163-0.306
		C408.16,295.281,408.154,295.28,408.148,295.279L408.148,295.279z M409.663,289.323c-0.131-0.034-0.264,0.045-0.298,0.176
		c-0.001,0.003-0.001,0.006-0.002,0.009c-0.037,0.135,0.043,0.274,0.178,0.31c0.001,0,0.002,0,0.002,0.001
		c0.139,0.028,0.276-0.055,0.315-0.191c0.031-0.137-0.055-0.273-0.192-0.304C409.665,289.324,409.664,289.323,409.663,289.323
		L409.663,289.323z M411.192,283.361c-0.139-0.028-0.276,0.055-0.315,0.191c-0.035,0.13,0.043,0.263,0.172,0.297
		c0.004,0.001,0.008,0.002,0.013,0.003c0.13,0.04,0.267-0.033,0.306-0.163c0.002-0.006,0.003-0.012,0.005-0.018
		c0.037-0.135-0.043-0.274-0.178-0.31C411.194,283.361,411.193,283.361,411.192,283.361L411.192,283.361z M389.356,281.457
		c-0.064-0.12-0.213-0.165-0.332-0.101c-0.003,0.001-0.006,0.003-0.008,0.005c-0.121,0.066-0.166,0.218-0.1,0.339
		c0.003,0.006,0.007,0.012,0.01,0.017c0.072,0.119,0.226,0.157,0.345,0.086C389.39,281.73,389.428,281.575,389.356,281.457
		L389.356,281.457z M412.955,282.604c-0.07-0.035-0.155-0.006-0.189,0.064s-0.006,0.155,0.064,0.189
		c0.004,0.002,0.007,0.003,0.011,0.005c0.072,0.027,0.153-0.008,0.183-0.079C413.051,282.714,413.021,282.637,412.955,282.604
		L412.955,282.604z M414.182,279.78l-6.251,7.017c-0.081-0.087-0.216-0.092-0.303-0.012c-0.005,0.004-0.009,0.009-0.013,0.013
		c-0.088,0.075-0.1,0.207-0.025,0.295c0.005,0.006,0.01,0.011,0.016,0.017c0.085,0.093,0.23,0.099,0.323,0.014l0,0
		c0.091-0.083,0.097-0.225,0.014-0.316c-0.004-0.004-0.007-0.008-0.011-0.011L414.182,279.78z M418.174,275.899
		c-0.09-0.09-0.236-0.091-0.327-0.003c-0.091,0.083-0.097,0.225-0.014,0.316c0.004,0.004,0.007,0.008,0.011,0.011
		c0.081,0.087,0.216,0.092,0.303,0.012c0.005-0.004,0.009-0.009,0.013-0.013c-1.849-1.722-4.743-1.62-6.466,0.228
		c-1.722,1.849-1.62,4.744,0.228,6.466L418.174,275.899z"/>
	<path id="texture-3" style="opacity:0.51;fill:#FFFFFF;enable-background:new    ;" d="M451.843,285.067
		c-0.1-0.149-0.302-0.188-0.451-0.087c-0.003,0.002-0.006,0.004-0.01,0.007c-0.145,0.102-0.18,0.302-0.078,0.447
		c0.001,0.001,0.001,0.001,0.002,0.002c0.1,0.149,0.302,0.188,0.451,0.087c0.003-0.002,0.006-0.004,0.01-0.007
		c0.145-0.102,0.18-0.302,0.078-0.447C451.844,285.069,451.843,285.068,451.843,285.067z M423.642,298.859
		c-0.179-0.031-0.349,0.088-0.383,0.266c-0.032,0.172,0.081,0.337,0.253,0.369c0.006,0.001,0.012,0.002,0.018,0.003
		c0.179,0.031,0.349-0.088,0.383-0.266C423.94,299.054,423.82,298.888,423.642,298.859
		C423.642,298.859,423.642,298.859,423.642,298.859z M424.964,291.022c-0.177-0.028-0.343,0.093-0.372,0.27c0,0,0,0,0,0
		c-0.032,0.179,0.087,0.35,0.266,0.383s0.35-0.087,0.383-0.266l0,0C425.263,291.228,425.143,291.06,424.964,291.022L424.964,291.022
		z M426.297,283.19c-0.181-0.023-0.35,0.098-0.387,0.277c-0.032,0.172,0.081,0.337,0.253,0.369c0.006,0.001,0.012,0.002,0.018,0.003
		c0.175,0.035,0.346-0.079,0.38-0.254c0.001-0.004,0.001-0.008,0.002-0.012C426.593,283.394,426.475,283.224,426.297,283.19
		L426.297,283.19z M440.663,294.851c-0.036-0.181-0.212-0.298-0.393-0.262c-0.181,0.036-0.298,0.212-0.262,0.393
		s0.212,0.298,0.393,0.262c0.002,0,0.004-0.001,0.006-0.001C440.585,295.203,440.698,295.029,440.663,294.851L440.663,294.851z
		 M438.893,287.108c-0.036-0.181-0.212-0.298-0.393-0.262c-0.181,0.036-0.298,0.212-0.262,0.393s0.212,0.298,0.393,0.262
		c0.002,0,0.004-0.001,0.007-0.001C438.815,287.46,438.928,287.286,438.893,287.108L438.893,287.108z M410.504,289.816
		c-0.146-0.095-0.341-0.054-0.436,0.092c-0.005,0.007-0.009,0.014-0.013,0.022c-0.095,0.15-0.05,0.348,0.099,0.442
		c0.001,0.001,0.002,0.001,0.003,0.002c0.153,0.097,0.356,0.053,0.455-0.098C410.701,290.118,410.653,289.918,410.504,289.816
		L410.504,289.816z M414.73,283.099c-0.151-0.099-0.353-0.057-0.452,0.093c-0.001,0.002-0.002,0.003-0.003,0.005
		c-0.097,0.153-0.053,0.356,0.098,0.455c0.158,0.088,0.358,0.041,0.46-0.109c0.095-0.15,0.05-0.348-0.099-0.442
		C414.732,283.101,414.731,283.1,414.73,283.099L414.73,283.099z M448.135,292.935c-0.051-0.153-0.217-0.235-0.37-0.184
		c-0.153,0.051-0.235,0.217-0.184,0.37l0,0c0.051,0.153,0.217,0.235,0.37,0.184C448.104,293.254,448.186,293.088,448.135,292.935z
		 M445.901,286.209c-0.051-0.153-0.217-0.235-0.37-0.184c-0.153,0.051-0.235,0.217-0.184,0.37s0.217,0.235,0.369,0.184c0,0,0,0,0,0
		c0.151-0.047,0.235-0.207,0.188-0.357C445.903,286.217,445.902,286.213,445.901,286.209z M418.235,290.604
		c-0.144-0.072-0.319-0.014-0.392,0.13c-0.001,0.002-0.002,0.003-0.002,0.005c-0.075,0.137-0.024,0.309,0.113,0.384
		c0.004,0.002,0.007,0.004,0.011,0.006c0.148,0.071,0.326,0.013,0.405-0.131C418.435,290.852,418.376,290.68,418.235,290.604
		L418.235,290.604z M421.414,284.27c-0.144-0.072-0.319-0.014-0.392,0.13c-0.001,0.002-0.002,0.003-0.002,0.005
		c-0.075,0.137-0.024,0.309,0.113,0.384c0.004,0.002,0.007,0.004,0.011,0.006c0.142,0.072,0.316,0.017,0.39-0.124
		C421.609,284.527,421.556,284.349,421.414,284.27L421.414,284.27z M433.626,291.117c-0.162-0.003-0.298,0.12-0.313,0.281
		c-0.01,0.16,0.11,0.298,0.27,0.308c0.161,0.013,0.303-0.105,0.319-0.266C433.913,291.275,433.79,291.131,433.626,291.117
		L433.626,291.117z M434.14,284.047c-0.162-0.003-0.298,0.12-0.313,0.281c-0.01,0.16,0.11,0.297,0.27,0.308
		c0.155,0.015,0.292-0.098,0.307-0.252c0.001-0.006,0.001-0.012,0.001-0.018C434.419,284.206,434.301,284.064,434.14,284.047
		L434.14,284.047z M453.69,280.606c-0.032-0.099-0.138-0.154-0.237-0.123c-0.002,0.001-0.004,0.001-0.006,0.002
		c-0.102,0.03-0.16,0.137-0.13,0.239c0.001,0.005,0.003,0.01,0.005,0.014c0.032,0.099,0.138,0.154,0.237,0.123
		c0.002-0.001,0.004-0.001,0.006-0.002C453.668,280.823,453.724,280.711,453.69,280.606L453.69,280.606z M446.006,300.29
		c-0.187-0.016-0.353,0.12-0.374,0.307c-0.013,0.186,0.126,0.348,0.312,0.363c0.187,0.014,0.351-0.122,0.374-0.307
		C446.331,300.467,446.192,300.305,446.006,300.29L446.006,300.29z M446.672,292.131c-0.186-0.014-0.349,0.125-0.363,0.312
		s0.125,0.349,0.312,0.363c0.186,0.014,0.348-0.125,0.363-0.311C446.997,292.308,446.858,292.146,446.672,292.131L446.672,292.131z
		 M447.349,283.977c-0.185-0.021-0.351,0.111-0.372,0.296c-0.021,0.185,0.111,0.351,0.296,0.373c0.005,0.001,0.01,0.001,0.014,0.001
		c0.187,0.016,0.353-0.12,0.374-0.307C447.674,284.154,447.534,283.992,447.349,283.977L447.349,283.977z M415.595,284.652
		c-0.124-0.142-0.34-0.157-0.482-0.033c-0.138,0.12-0.157,0.327-0.043,0.47c0.126,0.141,0.341,0.159,0.489,0.041
		C415.696,285.006,415.712,284.796,415.595,284.652L415.595,284.652z M431.518,292.331c-0.164-0.084-0.364-0.019-0.448,0.145
		c-0.001,0.002-0.002,0.004-0.003,0.006c-0.086,0.164-0.026,0.367,0.135,0.457c0.169,0.078,0.368,0.014,0.462-0.146
		C431.752,292.625,431.686,292.419,431.518,292.331C431.519,292.331,431.518,292.331,431.518,292.331L431.518,292.331z
		 M435.257,285.056c-0.158-0.086-0.355-0.027-0.441,0.131c-0.004,0.006-0.007,0.013-0.01,0.02c-0.085,0.162-0.022,0.361,0.139,0.446
		c0,0,0,0,0,0c0.168,0.087,0.374,0.022,0.461-0.146c0,0,0,0,0-0.001c0.086-0.158,0.027-0.355-0.131-0.441
		C435.271,285.062,435.264,285.059,435.257,285.056L435.257,285.056z M435.703,296.064c-0.17-0.081-0.374-0.009-0.455,0.162
		c-0.081,0.17-0.009,0.374,0.162,0.455c0.17,0.081,0.373,0.009,0.454-0.161C435.945,296.349,435.873,296.145,435.703,296.064
		C435.703,296.064,435.703,296.064,435.703,296.064L435.703,296.064z M439.125,288.664c-0.175-0.072-0.375,0.003-0.459,0.172
		c-0.07,0.169,0.002,0.363,0.166,0.444c0.17,0.081,0.374,0.009,0.455-0.161C439.363,288.948,439.292,288.748,439.125,288.664
		L439.125,288.664z M442.532,281.27c-0.168-0.077-0.367-0.003-0.444,0.166s-0.003,0.367,0.166,0.444l0,0
		c0.17,0.081,0.374,0.009,0.455-0.161C442.779,281.546,442.702,281.349,442.532,281.27L442.532,281.27z M453.422,287.596
		c-0.188-0.006-0.346,0.139-0.356,0.327c-0.003,0.186,0.145,0.34,0.331,0.345c0.184,0.011,0.341-0.129,0.352-0.313
		c0-0.001,0-0.002,0-0.003C453.752,287.765,453.608,287.609,453.422,287.596L453.422,287.596z M424.898,282.992
		c-0.123-0.134-0.331-0.143-0.465-0.021c-0.004,0.003-0.007,0.007-0.011,0.01c-0.136,0.124-0.146,0.335-0.022,0.471
		c0.127,0.139,0.341,0.15,0.482,0.026c0.138-0.126,0.148-0.34,0.023-0.478C424.903,282.997,424.9,282.995,424.898,282.992
		L424.898,282.992z M438.961,282.451c-0.102-0.087-0.256-0.075-0.344,0.027c-0.006,0.007-0.011,0.014-0.016,0.021
		c-0.085,0.112-0.063,0.272,0.049,0.357c0.112,0.085,0.272,0.063,0.357-0.049C439.092,282.695,439.071,282.536,438.961,282.451z
		 M451.644,284.963c-0.135-0.037-0.274,0.043-0.31,0.178c0,0.001,0,0.002-0.001,0.002c-0.029,0.135,0.049,0.269,0.18,0.311
		c0.135,0.034,0.273-0.046,0.311-0.18c0.04-0.13-0.033-0.267-0.163-0.306C451.656,284.966,451.65,284.965,451.644,284.963
		L451.644,284.963z"/>
	
		<linearGradient id="sweater_1_" gradientUnits="userSpaceOnUse" x1="744.9215" y1="462.7552" x2="722.0498" y2="327.8123" gradientTransform="matrix(1 0 0 -1 0 722)">
		<stop  offset="0" style="stop-color:#23286B"/>
		<stop  offset="1" style="stop-color:#151A4F"/>
	</linearGradient>
	<path id="sweater" style="fill:url(#sweater_1_);" d="M765.55,383.08c0,0-16.9,8.26-54.42-3.45
		c-9.219-2.914-18.236-6.435-26.99-10.54l12.19-102.02c1.429-2.104,2.999-4.109,4.7-6c0,0-0.01-0.01,0.01-0.01
		c0.32-0.36,0.64-0.71,0.96-1.05c0.051-0.065,0.108-0.125,0.17-0.18c0.33-0.34,0.65-0.68,0.97-1c0.7-0.7,1.38-1.35,2.06-1.97
		c0.33-0.3,0.67-0.6,1-0.88c0.99-0.87,1.95-1.63,2.84-2.3c0.3-0.22,0.59-0.44,0.88-0.65c1.43-1.03,2.68-1.82,3.67-2.4
		c0.4-0.23,0.76-0.43,1.07-0.6c-0.08-0.2-0.16-0.4-0.22-0.6c0.09-0.06,0.19-0.13,0.28-0.2c11.495,7.851,21.226,18.014,28.57,29.84
		c12.47,19.89,9.21,27.23,15.98,38.95C766.03,329.74,787.18,354.93,765.55,383.08z"/>
	<path id="L_sleeve" style="fill:#23286B;" d="M730.12,357.62c-2.54,12.8-10.07,19.18-18.99,22.01
		c-12.03,3.82-26.59,1.21-34.89-0.74c-14.47-3.41-17.3,1.41-29.78,4.82c-12.48,3.4-25.12-2.05-25.12-2.05l-9.99-45.22
		c0,0,17.91-0.62,36.81-1.79c18.97-1.17,32.05-9.65,38-42.26c1.564-9.064,5.03-17.693,10.17-25.32c1.429-2.104,2.999-4.109,4.7-6
		c0,0-0.01-0.01,0.01-0.01c0.32-0.36,0.64-0.71,0.96-1.05c0.051-0.065,0.108-0.125,0.17-0.18c0.33-0.34,0.65-0.68,0.97-1
		c0.7-0.71,1.38-1.36,2.06-1.97c0.33-0.3,0.67-0.6,1-0.88c0.99-0.87,1.95-1.63,2.84-2.3c0.3-0.22,0.59-0.44,0.88-0.65
		c1.43-1.03,2.68-1.82,3.67-2.4c0.4-0.23,0.76-0.43,1.07-0.6c0.654,1.631,1.44,3.207,2.35,4.71c8.95,14.93,6.32,20.54,6.32,20.54
		l6.5-1.81C733.39,296.76,734.42,335.92,730.12,357.62z"/>
	
		<linearGradient id="R_shoe_1_" gradientUnits="userSpaceOnUse" x1="491.3632" y1="151.0483" x2="590.0237" y2="151.0483" gradientTransform="matrix(1 0 0 -1 0 722)">
		<stop  offset="0" style="stop-color:#28306D"/>
		<stop  offset="0.51" style="stop-color:#1F275F"/>
		<stop  offset="1" style="stop-color:#171F51"/>
	</linearGradient>
	<path id="R_shoe" style="fill:url(#R_shoe_1_);" d="M576.048,551.458H545.89c0,0-15.741,14.775-32.604,22.002
		s-21.923,16.985-21.923,16.985l98.66-0.003L576.048,551.458"/>
	<path id="L_shoe" style="fill:#28306D;" d="M657.81,551.458l-32.068,0.001c0,0-13.83,14.773-30.694,22.001
		s-21.923,16.985-21.923,16.985l98.661-0.003L657.81,551.458"/>
	<path id="eye" style="fill:#1C2868;" d="M674.942,219.456c1.912,3.089,6.199,2.572,7.739-0.825c0.186-0.41-0.43-0.644-0.615-0.236
		c-0.697,1.903-2.805,2.881-4.708,2.183c-0.791-0.29-1.458-0.843-1.89-1.567C675.241,218.643,674.716,219.091,674.942,219.456
		L674.942,219.456z"/>
	<path id="hair" style="fill:#E94A47;" d="M766.796,245.909c-3.249-5.518-8.3-9.067-13.183-13.016
		c-5.233-4.332-9.597-9.619-12.859-15.578c-0.848-2.714-1.762-5.963-2.853-9.976c-5.97-21.95-28.62-22.82-44.95-18.61
		c-16.14,4.16-20,14.62-15.48,26.06c0.58-2.53,0.98-4.61,1.19-5.76l0.17-0.97c0,0,11.14,10.87,24.48,9.46
		c6.112-0.641,9.568,0.375,11.472,2.018c0.96,1.999,1.268,4.25,0.878,6.433c-0.504,3.14-2.025,5.921-3.314,8.794
		c-1.647,3.668-2.822,7.294-2.186,11.347c1.586,10.11,13.997,20.015,6.722,30.398c-0.463,0.66,0.621,1.286,1.079,0.631
		c8.807-12.569-9.338-24.117-6.305-36.967c0.53-1.98,1.265-3.899,2.193-5.727c-0.296,0.999-0.53,2.016-0.699,3.044
		c-0.74,4.6-0.26,10.39,3.86,17.25c8.95,14.93,6.32,20.54,6.32,20.54l45.29-12.64c0,0,2.29-10.18-10.88-22.12
		c-8.688-7.876-11.949-10.251-14.876-17.253c1.251,1.803,2.613,3.525,4.079,5.158c4.292,4.762,9.919,7.952,14.404,12.487
		c5.669,5.768,8.657,13.649,8.238,21.726c-0.029,0.805,1.221,0.803,1.25,0C771.128,256.788,769.726,250.98,766.796,245.909z"/>
</g>
</svg>
