<?xml version="1.0" encoding="iso-8859-1"?>
<!-- Generator: Adobe Illustrator 23.0.2, SVG Export Plug-In . SVG Version: 6.00 Build 0)  -->
<svg version="1.1" id="illustration" xmlns="http://www.w3.org/2000/svg" xmlns:xlink="http://www.w3.org/1999/xlink" x="0px"
	 y="0px" viewBox="0 0 1080 720" style="enable-background:new 0 0 1080 720;" xml:space="preserve">
<title>list is empty</title>
<g id="geometry">
	
		<linearGradient id="monitor_1_" gradientUnits="userSpaceOnUse" x1="508.2731" y1="523.9826" x2="759.3813" y2="-17.8229" gradientTransform="matrix(1 0 0 -1 0 722)">
		<stop  offset="0" style="stop-color:#EEEEEE"/>
		<stop  offset="1" style="stop-color:#DCE3EA"/>
	</linearGradient>
	<rect id="monitor" x="288.732" y="121.639" style="fill:url(#monitor_1_);" width="513.311" height="312.919"/>
	<rect id="_1" x="345.443" y="176.635" style="fill:#FFFFFF;" width="51.042" height="51.042"/>
	<rect id="_2" x="345.443" y="252.836" style="fill:#FFFFFF;" width="51.042" height="51.042"/>
	
		<linearGradient id="rounded_rect_1_" gradientUnits="userSpaceOnUse" x1="376.6024" y1="108.1765" x2="319.9505" y2="204.8445" gradientTransform="matrix(1 0 0 -1 0 722)">
		<stop  offset="0" style="stop-color:#A1C3FC"/>
		<stop  offset="0.6955" style="stop-color:#81AEF2"/>
		<stop  offset="1" style="stop-color:#78A9EF"/>
	</linearGradient>
	<path id="rounded_rect" style="fill:url(#rounded_rect_1_);" d="M315.368,570.314h99.447c13.182,0,23.868,10.686,23.868,23.868v0
		c0,13.182-10.686,23.868-23.868,23.868h-99.447c-13.182,0-23.868-10.686-23.868-23.868v0
		C291.5,581,302.186,570.314,315.368,570.314z"/>
	
		<linearGradient id="circle_1_" gradientUnits="userSpaceOnUse" x1="811.1592" y1="182.4343" x2="802.715" y2="82.4019" gradientTransform="matrix(1 0 0 -1 0 722)">
		<stop  offset="0" style="stop-color:#A1C3FC"/>
		<stop  offset="0.6955" style="stop-color:#81AEF2"/>
		<stop  offset="1" style="stop-color:#78A9EF"/>
	</linearGradient>
	<circle id="circle" style="fill:url(#circle_1_);" cx="808.058" cy="576.306" r="41.744"/>
	
		<linearGradient id="half_a_circle_1_" gradientUnits="userSpaceOnUse" x1="269.888" y1="222.7201" x2="447.4006" y2="120.58" gradientTransform="matrix(1 0 0 -1 0 722)">
		<stop  offset="0" style="stop-color:#23286B"/>
		<stop  offset="1" style="stop-color:#151A4F"/>
	</linearGradient>
	<path id="half_a_circle" style="fill:url(#half_a_circle_1_);" d="M244.641,536.818c16.009,31.27,54.336,43.642,85.606,27.633
		c27.779-14.222,41.138-46.496,31.536-76.19L244.641,536.818z"/>
</g>
<g id="woman">
	
		<linearGradient id="R_shoe_1_" gradientUnits="userSpaceOnUse" x1="760.4758" y1="129.507" x2="627.4048" y2="107.5619" gradientTransform="matrix(1 0 0 -1 0 722)">
		<stop  offset="0" style="stop-color:#3E8AF8"/>
		<stop  offset="1" style="stop-color:#1479F2"/>
	</linearGradient>
	<path id="R_shoe" style="fill:url(#R_shoe_1_);" d="M718.808,583.36l12.435,34.688l-87.787,0.003c0,0,4.501-8.682,19.507-15.113
		s27.194-19.581,27.194-19.581L718.808,583.36"/>
	<path id="L_shoe" style="fill:#428DFC;" d="M652.332,583.36l12.435,34.688l-87.787,0.003c0,0,4.501-8.682,19.507-15.113
		s29.011-19.578,29.011-19.578H652.332"/>
	
		<linearGradient id="R_trousers_1_" gradientUnits="userSpaceOnUse" x1="755.5203" y1="222.552" x2="636.2607" y2="285.7661" gradientTransform="matrix(1 0 0 -1 0 722)">
		<stop  offset="0" style="stop-color:#23286B"/>
		<stop  offset="1" style="stop-color:#151A4F"/>
	</linearGradient>
	<path id="R_trousers" style="fill:url(#R_trousers_1_);" d="M675.878,338.679c0,0,3.517,8.125-3.095,42.508l0,0
		c1.56,18.052,5.111,35.876,10.589,53.148c8.816,26.889,53.701,105.012,35.436,149.025l-28.651-0.004
		c0,0-38.523-98.769-44.694-125.658s-20.42-106.306-27.925-120.43l0,0L675.878,338.679"/>
	<path id="L_trousers" style="fill:#23286B;" d="M673.674,334.711c0,0,10.139,18.073-5.29,59.95s-15.869,54.661-14.988,66.122
		s9.257,24.685,6.612,48.93s4.909,27.46,3.146,46.855s-10.823,26.791-10.823,26.791h-26.834c0,0-18.386-100.095-19.709-130.952
		s22.495-85.37,21.6-115.492l0,0L673.674,334.711z"/>
	<path id="texture" style="opacity:0.86;fill:#FFFFFF;enable-background:new    ;" d="M666.731,375.134
		c-0.135-0.119-0.342-0.105-0.46,0.03c-0.001,0.001-0.001,0.001-0.002,0.002c-0.123,0.139-0.11,0.351,0.029,0.474
		c0.139,0.123,0.351,0.11,0.474-0.029c0.001-0.001,0.001-0.001,0.002-0.002C666.888,375.465,666.87,375.256,666.731,375.134z
		 M648.294,400.799c-0.184,0.013-0.323,0.17-0.314,0.354c0.009,0.177,0.16,0.313,0.337,0.304c0.006,0,0.012-0.001,0.018-0.001
		c0.184-0.013,0.323-0.17,0.314-0.354C648.635,400.919,648.476,400.784,648.294,400.799
		C648.294,400.799,648.294,400.799,648.294,400.799z M647.722,392.747c-0.182,0.015-0.317,0.174-0.302,0.355c0,0,0,0,0,0
		c0.011,0.184,0.17,0.325,0.354,0.314c0.184-0.011,0.325-0.17,0.314-0.354l0,0C648.067,392.878,647.908,392.741,647.722,392.747z
		 M668.678,364.023c-0.166-0.06-0.349,0.026-0.409,0.193c-0.002,0.005-0.003,0.01-0.005,0.015c-0.063,0.17,0.023,0.358,0.193,0.421
		c0.17,0.063,0.358-0.023,0.421-0.193c0.003-0.007,0.005-0.015,0.007-0.022c0.06-0.166-0.026-0.349-0.193-0.409
		C668.688,364.026,668.683,364.025,668.678,364.023z M664.134,392.767c-0.079-0.17-0.281-0.243-0.451-0.164
		c-0.17,0.079-0.243,0.281-0.164,0.451c0.079,0.17,0.281,0.243,0.451,0.164c0.002-0.001,0.004-0.002,0.006-0.003
		C664.141,393.133,664.211,392.934,664.134,392.767z M660.533,385.548c-0.079-0.17-0.281-0.243-0.451-0.164
		s-0.244,0.281-0.164,0.451s0.281,0.243,0.451,0.164c0.002-0.001,0.004-0.002,0.006-0.003
		C660.54,385.914,660.61,385.716,660.533,385.548z M674.436,361.051c-0.158-0.038-0.317,0.058-0.355,0.216
		c-0.038,0.158,0.058,0.317,0.216,0.355l0,0c0.158,0.038,0.317-0.058,0.355-0.216C674.691,361.248,674.594,361.089,674.436,361.051z
		 M671.05,389.087c-0.086-0.139-0.269-0.182-0.408-0.095c-0.139,0.086-0.182,0.269-0.095,0.408c0.001,0.001,0.001,0.002,0.002,0.003
		c0.088,0.138,0.271,0.178,0.409,0.09C671.094,389.406,671.135,389.225,671.05,389.087z M667.234,382.983
		c-0.087-0.138-0.27-0.18-0.409-0.093c-0.138,0.087-0.18,0.27-0.093,0.409c0.087,0.138,0.27,0.18,0.409,0.093l0,0
		c0.137-0.082,0.182-0.26,0.1-0.398C667.239,382.991,667.236,382.987,667.234,382.983L667.234,382.983z M663.42,376.868
		c-0.023-0.052-0.065-0.092-0.117-0.112l-0.012-0.002c-0.091-0.04-0.196-0.032-0.28,0.021c-0.142,0.089-0.185,0.276-0.096,0.418
		c0.001,0.001,0.001,0.002,0.002,0.003c0.088,0.137,0.27,0.178,0.409,0.093c0.065-0.038,0.109-0.102,0.121-0.176
		C663.48,377.032,663.47,376.939,663.42,376.868z M640.981,393.946c-0.16-0.037-0.319,0.063-0.355,0.222
		c0,0.002-0.001,0.004-0.001,0.005c-0.041,0.153,0.05,0.311,0.203,0.352c0.004,0.001,0.008,0.002,0.012,0.003
		c0.163,0.034,0.325-0.065,0.369-0.226C641.238,394.142,641.139,393.987,640.981,393.946z M673.905,371.852
		c-0.132-0.096-0.318-0.067-0.414,0.066c-0.002,0.003-0.004,0.006-0.006,0.009c-0.096,0.123-0.073,0.3,0.049,0.396
		c0.005,0.004,0.01,0.007,0.015,0.011c0.128,0.099,0.311,0.076,0.41-0.052c0.003-0.004,0.005-0.007,0.008-0.011
		C674.062,372.136,674.034,371.952,673.905,371.852z M668.041,367.668c-0.138-0.089-0.321-0.056-0.42,0.074
		c-0.095,0.137-0.062,0.324,0.074,0.42c0.14,0.09,0.327,0.05,0.417-0.089C668.199,367.94,668.167,367.763,668.041,367.668
		L668.041,367.668z M656.294,390.766c-0.16,0.036-0.266,0.189-0.241,0.352c0.028,0.16,0.18,0.267,0.34,0.24
		c0.162-0.026,0.274-0.176,0.252-0.339C656.616,390.854,656.46,390.741,656.294,390.766L656.294,390.766z M655.109,383.666
		c-0.16,0.036-0.266,0.189-0.241,0.352c0.028,0.16,0.18,0.267,0.34,0.24c0.156-0.022,0.265-0.166,0.243-0.323
		c-0.001-0.006-0.002-0.012-0.003-0.018C655.422,383.755,655.271,383.644,655.109,383.666z M629.631,384.848
		c-0.134-0.094-0.318-0.067-0.418,0.063c-0.096,0.132-0.067,0.318,0.066,0.414c0.003,0.002,0.006,0.004,0.009,0.006
		c0.123,0.096,0.3,0.073,0.395-0.049c0.004-0.005,0.007-0.01,0.011-0.015c0.099-0.128,0.076-0.311-0.052-0.41
		C629.639,384.854,629.635,384.851,629.631,384.848L629.631,384.848z M670.499,371.404c-0.066-0.072-0.179-0.077-0.251-0.011
		s-0.077,0.179-0.011,0.251c0.066,0.072,0.179,0.077,0.251,0.011v0C670.557,371.588,670.562,371.478,670.499,371.404
		L670.499,371.404z M667.604,368.306c-0.066-0.072-0.179-0.077-0.251-0.011s-0.077,0.179-0.011,0.251
		c0.066,0.072,0.179,0.077,0.251,0.011c0,0,0,0,0,0C667.662,368.49,667.667,368.38,667.604,368.306L667.604,368.306z
		 M673.838,362.762c-0.086-0.04-0.187-0.002-0.227,0.083c-0.001,0.002-0.002,0.004-0.002,0.006c-0.038,0.091,0,0.195,0.087,0.241
		c0.088,0.035,0.188-0.004,0.229-0.089C673.963,362.912,673.925,362.808,673.838,362.762L673.838,362.762z M662.148,374.054
		c-0.028-0.088-0.122-0.137-0.211-0.109c-0.005,0.002-0.01,0.004-0.016,0.006c-0.09,0.03-0.138,0.128-0.107,0.217
		c0.001,0.003,0.002,0.006,0.003,0.009c0.039,0.086,0.136,0.131,0.227,0.104C662.134,374.246,662.18,374.145,662.148,374.054
		L662.148,374.054z M673.581,375.588c-0.055-0.091-0.173-0.119-0.263-0.065c-0.002,0.001-0.003,0.002-0.005,0.003
		c-0.094,0.054-0.125,0.174-0.071,0.267c0.003,0.004,0.005,0.009,0.008,0.013c0.055,0.091,0.173,0.119,0.263,0.065
		c0.002-0.001,0.003-0.002,0.005-0.003C673.611,375.808,673.639,375.683,673.581,375.588L673.581,375.588z M670.966,371.505
		c-0.055-0.091-0.173-0.119-0.263-0.064c-0.002,0.001-0.003,0.002-0.005,0.003c-0.094,0.061-0.121,0.187-0.061,0.281
		c0.06,0.093,0.184,0.121,0.278,0.062c0.091-0.058,0.118-0.178,0.06-0.269C670.972,371.514,670.969,371.509,670.966,371.505
		L670.966,371.505z M668.364,367.424c-0.06-0.095-0.185-0.124-0.28-0.064s-0.124,0.185-0.064,0.28c0,0.001,0.001,0.001,0.001,0.002
		c-0.002,0.012,0.01,0.013,0.02,0.027c0.068,0.07,0.175,0.084,0.26,0.036C668.394,367.643,668.422,367.519,668.364,367.424
		L668.364,367.424z M675.019,363.889c-0.091-0.064-0.216-0.044-0.283,0.045c-0.064,0.091-0.042,0.216,0.049,0.279
		c0.003,0.002,0.005,0.004,0.008,0.006c0.088,0.061,0.209,0.041,0.271-0.047C675.128,364.081,675.108,363.956,675.019,363.889
		L675.019,363.889z M663.533,376.919c-0.016-0.107-0.116-0.181-0.223-0.165c-0.002,0-0.005,0.001-0.007,0.001l-0.012-0.002
		c-0.103,0.026-0.17,0.127-0.153,0.232c0.016,0.107,0.116,0.181,0.223,0.165c0.002,0,0.005-0.001,0.007-0.001
		c0.028-0.008,0.054-0.021,0.077-0.037C663.513,377.073,663.548,376.996,663.533,376.919z M662.447,371.976
		c-0.109,0.027-0.18,0.131-0.166,0.242c0.029,0.107,0.135,0.174,0.244,0.154c0.105-0.021,0.174-0.124,0.153-0.229
		c0-0.001,0-0.002-0.001-0.003C662.659,372.032,662.556,371.959,662.447,371.976L662.447,371.976z M673.949,359.093
		c-0.155-0.109-0.368-0.074-0.48,0.078c-0.11,0.155-0.074,0.37,0.081,0.48c0.153,0.109,0.366,0.074,0.477-0.077
		C674.133,359.418,674.099,359.206,673.949,359.093L673.949,359.093z M670.709,396.856c-0.189,0.029-0.32,0.203-0.295,0.393
		c0.031,0.187,0.207,0.313,0.394,0.283c0.187-0.031,0.317-0.204,0.295-0.393C671.072,396.953,670.896,396.826,670.709,396.856
		L670.709,396.856z M669.413,388.644c-0.187,0.031-0.314,0.207-0.283,0.394c0.031,0.187,0.207,0.314,0.394,0.283
		c0.187-0.031,0.314-0.207,0.283-0.394C669.776,388.741,669.6,388.614,669.413,388.644L669.413,388.644z M668.129,380.434
		c-0.187,0.023-0.32,0.194-0.297,0.381s0.194,0.32,0.381,0.297c0.005-0.001,0.01-0.001,0.015-0.002
		c0.189-0.029,0.32-0.203,0.295-0.393C668.492,380.53,668.316,380.404,668.129,380.434L668.129,380.434z M666.833,372.222
		c-0.185,0.028-0.313,0.202-0.285,0.387c0,0.002,0.001,0.005,0.001,0.007c0.03,0.187,0.206,0.315,0.393,0.285
		c0.187-0.03,0.315-0.206,0.285-0.393c0-0.001,0-0.002,0-0.003c-0.028-0.185-0.202-0.313-0.387-0.285
		C666.837,372.221,666.835,372.221,666.833,372.222z M636.469,388.781c-0.114,0.147-0.088,0.359,0.059,0.473
		c0.002,0.002,0.005,0.004,0.007,0.005c0.158,0.109,0.374,0.076,0.492-0.076 M673.104,366.153c-0.098-0.163-0.309-0.216-0.472-0.118
		c-0.002,0.001-0.004,0.002-0.006,0.004c-0.161,0.103-0.211,0.314-0.114,0.478c0.105,0.161,0.32,0.207,0.481,0.102
		C673.148,366.518,673.197,366.313,673.104,366.153L673.104,366.153z M654.505,392.47c-0.181-0.043-0.364,0.068-0.407,0.25
		c-0.001,0.002-0.001,0.004-0.002,0.007c-0.046,0.182,0.062,0.368,0.243,0.419c0.185,0.036,0.367-0.074,0.421-0.255
		C654.805,392.704,654.692,392.516,654.505,392.47C654.505,392.47,654.505,392.47,654.505,392.47L654.505,392.47z M656.453,384.394
		c-0.176-0.047-0.357,0.058-0.404,0.235c-0.002,0.007-0.004,0.014-0.005,0.022c-0.045,0.18,0.064,0.362,0.244,0.407c0,0,0,0,0,0
		c0.186,0.046,0.375-0.068,0.42-0.254c0,0,0-0.001,0-0.001c0.047-0.176-0.058-0.357-0.234-0.404
		C656.468,384.397,656.461,384.395,656.453,384.394L656.453,384.394z M675.475,360.942c-0.097-0.153-0.3-0.198-0.453-0.1
		c-0.006,0.004-0.011,0.007-0.016,0.011c-0.156,0.102-0.201,0.311-0.101,0.468c0.107,0.157,0.318,0.202,0.48,0.102
		c0.157-0.105,0.2-0.318,0.095-0.475C675.478,360.946,675.477,360.944,675.475,360.942L675.475,360.942z M659.529,395.152
		c-0.187-0.039-0.371,0.081-0.41,0.268s0.081,0.371,0.268,0.41c0.187,0.039,0.37-0.081,0.41-0.268
		C659.836,395.375,659.716,395.191,659.529,395.152C659.529,395.152,659.529,395.152,659.529,395.152z M661.135,387.029
		c-0.19-0.029-0.37,0.093-0.412,0.28c-0.029,0.183,0.089,0.358,0.27,0.399c0.187,0.039,0.371-0.081,0.41-0.268
		C661.437,387.253,661.319,387.072,661.135,387.029L661.135,387.029z M662.727,378.915c-0.185-0.036-0.363,0.084-0.4,0.268
		c-0.036,0.184,0.084,0.363,0.268,0.4c0.001,0,0.002,0,0.003,0c0.187,0.039,0.371-0.081,0.41-0.268
		C663.037,379.128,662.913,378.952,662.727,378.915L662.727,378.915z M664.333,370.792c-0.182-0.037-0.36,0.08-0.397,0.262
		c-0.001,0.003-0.001,0.005-0.002,0.008c-0.034,0.184,0.086,0.362,0.27,0.399c0.178,0.04,0.354-0.071,0.395-0.249
		c0.002-0.007,0.003-0.014,0.004-0.021c0.037-0.182-0.08-0.36-0.262-0.397C664.339,370.793,664.336,370.793,664.333,370.792z
		 M673.368,374.427c-0.185,0.041-0.305,0.221-0.273,0.408c0.035,0.185,0.214,0.307,0.399,0.271c0.185-0.035,0.307-0.214,0.271-0.399
		c0-0.003-0.001-0.005-0.002-0.008c-0.033-0.184-0.209-0.306-0.393-0.272C673.37,374.427,673.369,374.427,673.368,374.427z
		 M671.733,366.313c-0.187,0.039-0.308,0.22-0.273,0.408c0.043,0.187,0.229,0.304,0.416,0.261c0.179-0.041,0.296-0.215,0.265-0.396
		C672.102,366.399,671.921,366.278,671.733,366.313L671.733,366.313z M676.612,358.209c-0.043-0.131-0.184-0.202-0.315-0.158
		c-0.004,0.001-0.009,0.003-0.013,0.005c-0.133,0.052-0.198,0.202-0.146,0.335c0.001,0.002,0.002,0.004,0.003,0.006
		c0.051,0.13,0.197,0.194,0.327,0.143c0.001,0,0.002-0.001,0.003-0.001c0.128-0.046,0.194-0.186,0.148-0.314
		C676.616,358.219,676.614,358.214,676.612,358.209L676.612,358.209z M659.485,380.935c-0.122-0.062-0.271-0.013-0.333,0.109
		c-0.004,0.008-0.008,0.016-0.011,0.024c-0.057,0.131,0.003,0.284,0.134,0.341c0.131,0.057,0.284-0.003,0.341-0.134
		C659.673,381.145,659.614,380.993,659.485,380.935z M661.942,375.194c-0.128-0.059-0.28-0.004-0.34,0.125
		c-0.001,0.003-0.003,0.006-0.004,0.008c-0.058,0.132,0.001,0.285,0.133,0.344c0.132,0.058,0.285-0.001,0.344-0.133
		C662.133,375.406,662.073,375.252,661.942,375.194L661.942,375.194z M664.398,369.452c-0.132-0.058-0.285,0.001-0.344,0.133
		s0.002,0.285,0.133,0.344c0.132,0.058,0.285-0.001,0.344-0.133l0,0C664.586,369.664,664.528,369.512,664.398,369.452
		L664.398,369.452z M672.673,374.138c-0.137-0.002-0.25,0.108-0.252,0.245c0,0.003,0,0.006,0,0.009
		c-0.004,0.142,0.108,0.26,0.25,0.264c0.001,0,0.002,0,0.002,0c0.144-0.005,0.26-0.12,0.265-0.264
		c-0.002-0.142-0.12-0.256-0.262-0.254C672.676,374.138,672.675,374.138,672.673,374.138L672.673,374.138z M672.756,367.887
		c-0.144,0.005-0.26,0.12-0.265,0.264c-0.003,0.136,0.105,0.249,0.241,0.252c0.004,0,0.009,0,0.013,0
		c0.137,0.008,0.255-0.097,0.263-0.234c0-0.006,0.001-0.012,0-0.019c0.004-0.142-0.108-0.26-0.25-0.264
		C672.757,367.887,672.756,367.887,672.756,367.887L672.756,367.887z M672.824,361.647c-0.139,0-0.252,0.114-0.252,0.253
		c0,0,0,0.001,0,0.001c-0.008,0.137,0.096,0.255,0.234,0.263c0.006,0,0.013,0,0.019,0c0.142,0.004,0.26-0.108,0.264-0.25
		c0-0.001,0-0.002,0-0.002C673.083,361.768,672.968,361.652,672.824,361.647L672.824,361.647z M674.314,366.718
		c-0.077-0.017-0.154,0.031-0.171,0.108c-0.017,0.077,0.031,0.154,0.108,0.171c0.004,0.001,0.008,0.002,0.012,0.002
		c0.078,0.01,0.15-0.044,0.161-0.122C674.435,366.804,674.387,366.734,674.314,366.718L674.314,366.718z M674.9,363.355
		c-0.075-0.013-0.147,0.036-0.16,0.111c-0.001,0.004-0.001,0.007-0.002,0.011c-0.018,0.068,0.023,0.138,0.091,0.156
		c0.006,0.002,0.013,0.003,0.019,0.003c0.073,0.015,0.145-0.033,0.159-0.107c0-0.001,0-0.003,0.001-0.004
		C675.02,363.45,674.974,363.377,674.9,363.355L674.9,363.355z M675.484,360.003c-0.073-0.014-0.145,0.033-0.159,0.107
		c0,0.001,0,0.002-0.001,0.004c-0.016,0.077,0.032,0.153,0.109,0.172c0.075,0.013,0.147-0.037,0.16-0.112
		c0.001-0.004,0.001-0.007,0.001-0.011c0.015-0.073-0.033-0.144-0.106-0.159C675.487,360.004,675.486,360.004,675.484,360.003
		L675.484,360.003z M670.36,372.06c-0.1-0.067-0.236-0.039-0.302,0.061c-0.003,0.005-0.007,0.011-0.01,0.016
		c-0.069,0.095-0.049,0.228,0.046,0.298c0.006,0.005,0.013,0.009,0.019,0.013c0.107,0.071,0.251,0.043,0.322-0.064c0,0,0,0,0,0
		c0.07-0.104,0.042-0.245-0.062-0.315C670.369,372.065,670.364,372.062,670.36,372.06L670.36,372.06z M673.37,367.274
		c-0.11-0.067-0.255-0.034-0.324,0.076c-0.07,0.104-0.042,0.245,0.062,0.315c0.004,0.003,0.009,0.006,0.014,0.008
		c0.1,0.067,0.236,0.039,0.302-0.061c0.003-0.005,0.007-0.011,0.01-0.016c0.072-0.102,0.048-0.243-0.053-0.315
		C673.378,367.279,673.374,367.276,673.37,367.274L673.37,367.274z M676.368,362.498c-0.11-0.067-0.255-0.034-0.324,0.076
		c-0.069,0.107-0.039,0.25,0.068,0.319c0.002,0.002,0.005,0.003,0.008,0.005c0.111,0.066,0.256,0.03,0.322-0.081
		C676.507,362.707,676.474,362.567,676.368,362.498L676.368,362.498z"/>
	<g id="pencil">
		
			<linearGradient id="SVGID_1_" gradientUnits="userSpaceOnUse" x1="541.9341" y1="320.1872" x2="602.5383" y2="364.0285" gradientTransform="matrix(1 0 0 -1 0 722)">
			<stop  offset="0" style="stop-color:#E94A47"/>
			<stop  offset="0.8098" style="stop-color:#C63030"/>
		</linearGradient>
		<polygon style="fill:url(#SVGID_1_);" points="663.371,473.865 649.884,478.867 470.961,293.255 484.449,288.254 		"/>
		
			<linearGradient id="SVGID_2_" gradientUnits="userSpaceOnUse" x1="612.3558" y1="378.5504" x2="551.7516" y2="328.9065" gradientTransform="matrix(1 0 0 -1 0 722)">
			<stop  offset="0" style="stop-color:#E94A47"/>
			<stop  offset="0.8098" style="stop-color:#C63030"/>
		</linearGradient>
		<polygon style="fill:url(#SVGID_2_);" points="677.734,460.386 683.241,447.097 504.507,261.303 499.001,274.593 		"/>
		<polygon style="fill:#E94A47;" points="484.449,288.254 663.371,473.865 677.734,460.386 499.001,274.593 		"/>
	</g>
	
		<linearGradient id="R_hand_1_" gradientUnits="userSpaceOnUse" x1="532.2005" y1="359.9522" x2="554.8878" y2="359.9522" gradientTransform="matrix(1 0 0 -1 0 722)">
		<stop  offset="0" style="stop-color:#FFBEB6"/>
		<stop  offset="1" style="stop-color:#F2A19C"/>
	</linearGradient>
	<path id="R_hand" style="fill:url(#R_hand_1_);" d="M532.201,356.895c0,0,3.846-4.647,4.968-6.41s2.884,1.602,1.923,4.006
		s-1.763,4.968-2.724,5.609c0,0,9.294-8.012,12.499-10.095s7.051,5.288,5.769,12.018s-3.449,11.627-5.372,12.428
		C549.263,374.451,538.931,371.958,532.201,356.895z"/>
	
		<linearGradient id="R_hand-2_1_" gradientUnits="userSpaceOnUse" x1="576.0438" y1="386.5834" x2="598.9829" y2="386.5834" gradientTransform="matrix(1 0 0 -1 0 722)">
		<stop  offset="0" style="stop-color:#FFBEB6"/>
		<stop  offset="1" style="stop-color:#F2A19C"/>
	</linearGradient>
	<path id="R_hand-2" style="fill:url(#R_hand-2_1_);" d="M598.983,346.14c-7.01,0.04-13.173-0.319-13.173-0.319l-9.766-10.154
		c6.49-1.13,17.919-9.077,20.579-10.977L598.983,346.14z"/>
	
		<linearGradient id="L_hand_1_" gradientUnits="userSpaceOnUse" x1="625.6288" y1="434.6977" x2="648.2407" y2="361.0778" gradientTransform="matrix(1 0 0 -1 0 722)">
		<stop  offset="0.1291" style="stop-color:#428DFC"/>
		<stop  offset="0.9987" style="stop-color:#1D72D8"/>
	</linearGradient>
	<path id="L_hand" style="fill:url(#L_hand_1_);" d="M650.503,337.05c-7.42,1.55-11.87,3.81-23.21,13.02
		c-0.33,0.27-0.66,0.54-1,0.82c-12.08,9.91-26.2,5.29-26.2,5.29l-5.94-53.9c0,0,3.08,0.27,17.07-2.45
		c3.436-0.552,6.802-1.474,10.04-2.75c5.98-2.65,8.27-7.22,10.2-18.63c1.44-8.52,1.05-19.49,0.35-28.04
		c4.093-0.143,7.991-1.788,10.95-4.62c7.516,4.108,14.419,9.248,20.51,15.27c6.28,13.65,8.9,26.5,9.65,41.2
		C674.223,327.51,658.143,335.46,650.503,337.05z"/>
	
		<linearGradient id="L_hand-2_1_" gradientUnits="userSpaceOnUse" x1="558.5128" y1="313.3387" x2="608.9319" y2="366.1779" gradientTransform="matrix(1 0 0 -1 0 722)">
		<stop  offset="0" style="stop-color:#FFBEB6"/>
		<stop  offset="1" style="stop-color:#F2A19C"/>
	</linearGradient>
	<path id="L_hand-2" style="fill:url(#L_hand-2_1_);" d="M627.553,377.16c-6.28,3.79-17.88,10.59-25.54,13.68
		c-10.94,4.43-17.71,5.73-35.42,5.47s-15.879-20.328-15.879-20.328c5.04,5.266,11.189,5.748,13.799,6.008
		c2.6,0.26,6.77-1.3,0.52-6.51s-2.61-9.9-2.09-8.6s5.21,4.43,14.85,11.2s0.78,7.03,13.02,1.04c9.63-4.71,21.53-21.36,26.15-28.23
		L627.553,377.16z"/>
	
		<linearGradient id="sweater_1_" gradientUnits="userSpaceOnUse" x1="636.8024" y1="454.7257" x2="655.2599" y2="390.1247" gradientTransform="matrix(1 0 0 -1 0 722)">
		<stop  offset="0.1291" style="stop-color:#428DFC"/>
		<stop  offset="0.9987" style="stop-color:#1D72D8"/>
	</linearGradient>
	<path id="sweater" style="fill:url(#sweater_1_);" d="M699.833,349.26c-5.45,1.14-10.597,2.06-15.44,2.76
		c-27.24,4-45.38,1.76-57.1-1.95c-4.63-1.39-9.04-3.427-13.1-6.05c-2.34-1.428-4.414-3.252-6.13-5.39
		c6.36-12.27,10.5-27.33,13.2-41.55c2.938-15.783,4.633-31.772,5.07-47.82l1.55,0.75c1.287,0.305,2.608,0.44,3.93,0.4
		c4.093-0.143,7.991-1.788,10.95-4.62c7.516,4.108,14.419,9.248,20.51,15.27c3.621,3.5,6.974,7.267,10.03,11.27
		c13.95,18.29,11.43,25.74,19.08,36.57c0.02,0.02,0.03,0.05,0.05,0.07C700.073,319.78,710.463,332.99,699.833,349.26z"/>
	
		<linearGradient id="L_sleeve_1_" gradientUnits="userSpaceOnUse" x1="651.7151" y1="399.3785" x2="718.5427" y2="199.1319" gradientTransform="matrix(1 0 0 -1 0 722)">
		<stop  offset="0.1291" style="stop-color:#428DFC"/>
		<stop  offset="0.9987" style="stop-color:#1D72D8"/>
	</linearGradient>
	<path id="L_sleeve" style="fill:url(#L_sleeve_1_);" d="M684.393,352.02c-1.358,1.081-2.814,2.032-4.35,2.84
		c-7.56,3.93-11.6,7.72-21.38,21.7c-9.78,13.97-26,13.28-26,13.28l-18.47-45.82l-3.67-9.1c0,0,3.32-0.62,17.22-7.62
		c13.9-6.99,16.89-10.47,14.98-28.45s-16.39-49.59-16.39-49.59l1.55,0.75c1.287,0.305,2.608,0.44,3.93,0.4
		c4.093-0.143,7.991-1.788,10.95-4.62c7.516,4.108,14.419,9.248,20.51,15.27c3.621,3.5,6.974,7.267,10.03,11.27
		c13.95,18.29,11.43,25.74,19.08,36.57c0.02,0.02,0.03,0.05,0.05,0.07c0.31,0.89,0.62,1.78,0.92,2.69
		C700.653,333.34,691.903,346.05,684.393,352.02z"/>
	
		<linearGradient id="neck_1_" gradientUnits="userSpaceOnUse" x1="625.4629" y1="456.335" x2="632.0004" y2="487.8689" gradientTransform="matrix(1 0 0 -1 0 722)">
		<stop  offset="0" style="stop-color:#FFBEB6"/>
		<stop  offset="1" style="stop-color:#F2A19C"/>
	</linearGradient>
	<path id="neck" style="fill:url(#neck_1_);" d="M637.61,234.78c-0.385,2.041-0.912,4.053-1.58,6.02
		c-1.134,3.329-2.573,6.546-4.3,9.61c-1.295,0.034-2.589-0.101-3.85-0.4l-1.52-0.73c-0.011-0.005-0.021-0.012-0.03-0.02
		c0.233-4.82,0.16-9.65-0.22-14.46c0.61,0.08,1.22,0.14,1.83,0.17C631.161,235.24,634.402,235.176,637.61,234.78z"/>
	<path id="face" style="fill:#FFBEB6;" d="M637.61,234.78c-6.02,0.8-18.39,0.65-22.27-4.92c-4.64-6.67-3.01-13.02-4.3-13.59
		c-1.29-0.56-3.76-2.43-3.29-3.86c0.46-1.42,5.54-4.18,7.9-9.13c0.22-0.46,0.44-0.9,0.68-1.32l0.01-0.01
		c0.045-0.107,0.099-0.211,0.16-0.31c0.025-0.05,0.055-0.097,0.09-0.14c0.012-0.015,0.022-0.032,0.03-0.05
		c0.04-0.06,0.08-0.13,0.12-0.2c0.31-0.49,0.78-1.21,1.41-2.02c0.29-0.38,0.62-0.79,0.99-1.21c0.409-0.478,0.885-0.96,1.389-1.441
		c0.036-0.035,0.071-0.069,0.108-0.103c0.126-0.119,0.242-0.238,0.373-0.356c0.23-0.21,0.47-0.41,0.72-0.61
		c0.19-0.16,0.39-0.31,0.59-0.45c0.09-0.07,0.19-0.14,0.29-0.21c0.18-0.13,0.37-0.26,0.56-0.38c0.038-0.03,0.078-0.057,0.12-0.08
		c0,0.01-0.01,0.02-0.01,0.04c-0.14,0.424-0.244,0.859-0.31,1.3c-0.03,0.14-0.05,0.3-0.07,0.46c-0.069,0.597-0.086,1.2-0.05,1.8
		c0,0.1,0.01,0.2,0.02,0.31c0.01,0.1,0.02,0.21,0.03,0.32c0.02,0.22,0.05,0.45,0.09,0.68c0,0.03,0.01,0.05,0.01,0.08
		c0.049,0.34,0.116,0.677,0.2,1.01c0.02,0.13,0.06,0.25,0.09,0.38c0.001,0.008,0.004,0.015,0.01,0.02c0.06,0.25,0.14,0.51,0.23,0.77
		v0.02c0.04,0.13,0.09,0.26,0.14,0.39c0.204,0.591,0.445,1.169,0.72,1.73c0.09,0.2,0.2,0.4,0.31,0.61c0.05,0.1,0.1,0.19,0.16,0.29
		c0.05,0.1,0.1,0.21,0.16,0.31c0.03,0.056,0.063,0.109,0.1,0.16c0.08,0.16,0.18,0.31,0.28,0.47s0.2,0.32,0.31,0.48
		c0.1,0.16,0.2,0.32,0.32,0.48c0.29,0.42,0.61,0.84,0.95,1.27c0.19,0.24,0.39,0.48,0.59,0.73c0.785,0.915,1.62,1.786,2.5,2.61
		l0.57,0.54c1.761,1.636,3.313,3.483,4.62,5.5c0.17,0.33,0.34,0.67,0.52,1.02c0.484,0.956,0.892,1.949,1.22,2.97
		C638.346,225.563,638.556,230.254,637.61,234.78z"/>
	
		<linearGradient id="eyeglasses_1_" gradientUnits="userSpaceOnUse" x1="306.7409" y1="572.6847" x2="328.4989" y2="572.6847" gradientTransform="matrix(-0.9399 -0.3415 0.3415 -0.9399 718.658 854.4301)">
		<stop  offset="0" style="stop-color:#28306D"/>
		<stop  offset="0.51" style="stop-color:#1F275F"/>
		<stop  offset="1" style="stop-color:#171F51"/>
	</linearGradient>
	<path id="eyeglasses" style="fill:url(#eyeglasses_1_);" d="M610.073,208.669c0.235,0.002,0.47-0.02,0.701-0.067
		c1.594-0.43,2.824-1.697,3.206-3.303c1.304,0.22,2.245,1.428,2.937,2.471c-0.47,0.947-0.72,1.987-0.73,3.044
		c-0.04,1.496,0.422,2.963,1.312,4.166c0.779,1.093,2.023,1.761,3.365,1.805c0.275,0.003,0.55-0.023,0.82-0.077
		c1.028-0.229,1.943-0.812,2.585-1.648c0.919-1.182,1.415-2.637,1.41-4.134c0.038-3.261-2.059-5.94-4.677-5.971
		c-1.342,0.013-2.601,0.651-3.405,1.725c-0.098,0.121-0.173,0.262-0.261,0.392c-0.698-1.214-1.84-2.11-3.186-2.497
		c0.054-0.318,0.083-0.639,0.087-0.961c0.033-2.812-1.781-5.122-4.043-5.15l-0.001,0c-2.262-0.023-4.13,2.241-4.164,5.054
		C605.996,206.331,607.81,208.641,610.073,208.669z M616.933,210.822c-0.007-1.329,0.431-2.622,1.244-3.673
		c0.534-0.7,1.297-1.191,2.156-1.386c0.217-0.044,0.439-0.065,0.661-0.062c2.206,0.026,3.973,2.366,3.939,5.217
		c0.007,1.329-0.431,2.622-1.244,3.673c-1.07,1.534-3.181,1.909-4.715,0.839c-0.349-0.243-0.649-0.55-0.884-0.905
		C617.301,213.455,616.894,212.151,616.933,210.822z M606.776,203.527c0.027-2.4,1.552-4.338,3.409-4.315
		c1.851,0.022,3.334,1.994,3.306,4.395c-0.028,2.401-1.553,4.336-3.409,4.315C608.23,207.9,606.747,205.929,606.776,203.527z"/>
	<path id="hair" style="fill:#23286B;" d="M679.721,241.304c-2.558-5.52-7.943-9.382-10.517-14.665
		c-1.095-3.126-1.505-6.45-1.204-9.749c0.52-10.14-2.98-15.82-4.15-17.41c-0.015-0.033-0.035-0.063-0.06-0.09
		c-2.917-5.104-7.675-8.9-13.3-10.61c-12.98-3.96-30.39-4.79-34.16,13.18c1.717-3.024,4.101-5.616,6.97-7.58
		c-0.126,0.338-2.691,7.175,5.821,15.802c1.539,2.534,3.155,5.06,4.478,7.717c5.939,11.93,1.096,24.638-8.538,32.88
		c-0.367,0.314,0.165,0.843,0.53,0.53c7.545-6.455,12.725-15.809,11.224-25.998c-0.712-4.832-3.151-9.021-5.673-13.147
		c1.559,1.5,2.94,3.173,4.118,4.987c0.17,0.33,0.34,0.67,0.52,1.02c0.484,0.956,0.892,1.949,1.22,2.97
		c2.19,6.64,1.02,13.77-0.97,19.66c-1.53,4.512-3.623,8.812-6.23,12.8c27.89,8.62,47.84,4.48,47.84,4.48
		c2.639-5.946,2.605-12.737-0.094-18.656c3.451,5.354,4.21,12.01,2.053,18.004c-0.156,0.458,0.568,0.654,0.723,0.199
		C682.259,252.316,682.043,246.458,679.721,241.304z"/>
	<polyline id="top_of_pencil" style="fill:#FFFFFF;" points="470.961,293.255 441.828,232.116 504.507,261.303 499.001,274.593 
		484.449,288.254 470.961,293.255 	"/>
</g>
</svg>
