<?xml version="1.0" encoding="iso-8859-1"?>
<!-- Generator: Adobe Illustrator 23.0.2, SVG Export Plug-In . SVG Version: 6.00 Build 0)  -->
<svg version="1.1" id="Layer_1" xmlns="http://www.w3.org/2000/svg" xmlns:xlink="http://www.w3.org/1999/xlink" x="0px" y="0px"
	 viewBox="0 0 1080 720" style="enable-background:new 0 0 1080 720;" xml:space="preserve">
<title>downloading</title>
<g id="illustration">
	<g id="loading_area">
		
			<linearGradient id="loading_area-2_1_" gradientUnits="userSpaceOnUse" x1="443.2336" y1="217.7652" x2="487.7148" y2="65.2579" gradientTransform="matrix(1 0 0 -1 0 722)">
			<stop  offset="0" style="stop-color:#EEEEEE"/>
			<stop  offset="1" style="stop-color:#DADCE0"/>
		</linearGradient>
		<path id="loading_area-2" style="fill:url(#loading_area-2_1_);" d="M262.583,505.999h386.558
			c22.938,0,41.533,18.595,41.533,41.533v0c0,22.938-18.595,41.533-41.533,41.533H262.583c-22.938,0-41.533-18.595-41.533-41.533v0
			C221.05,524.594,239.645,505.999,262.583,505.999z"/>
	</g>
	<g id="geometry">
		
			<linearGradient id="_1_1_" gradientUnits="userSpaceOnUse" x1="276.5357" y1="204.6262" x2="284.2465" y2="131.3742" gradientTransform="matrix(1 0 0 -1 0 722)">
			<stop  offset="0" style="stop-color:#E94A47"/>
			<stop  offset="1" style="stop-color:#DD2F2F"/>
		</linearGradient>
		<rect id="_1" x="250.408" y="518.23" style="fill:url(#_1_1_);" width="58.605" height="58.605"/>
		
			<linearGradient id="_2_1_" gradientUnits="userSpaceOnUse" x1="335.7809" y1="223.9997" x2="357.9492" y2="108.3386" gradientTransform="matrix(1 0 0 -1 0 722)">
			<stop  offset="0" style="stop-color:#E94A47"/>
			<stop  offset="1" style="stop-color:#DD2F2F"/>
		</linearGradient>
		<rect id="_2" x="315.972" y="518.23" style="fill:url(#_2_1_);" width="58.605" height="58.605"/>
		
			<linearGradient id="_3_1_" gradientUnits="userSpaceOnUse" x1="742.4841" y1="170.8283" x2="744.6417" y2="116.0255" gradientTransform="matrix(1 0 0 -1 0 722)">
			<stop  offset="0" style="stop-color:#E94A47"/>
			<stop  offset="1" style="stop-color:#DD2F2F"/>
		</linearGradient>
		<rect id="_3" x="713.52" y="530.46" style="fill:url(#_3_1_);" width="58.605" height="58.605"/>
		
			<linearGradient id="_4_1_" gradientUnits="userSpaceOnUse" x1="827.389" y1="223.1947" x2="829.2031" y2="183.5869" gradientTransform="matrix(1 0 0 -1 0 722)">
			<stop  offset="0" style="stop-color:#E94A47"/>
			<stop  offset="1" style="stop-color:#DD2F2F"/>
		</linearGradient>
		<rect id="_4" x="798.194" y="471.856" style="fill:url(#_4_1_);" width="58.605" height="58.605"/>
		
			<linearGradient id="_5_1_" gradientUnits="userSpaceOnUse" x1="810.0261" y1="162.0228" x2="819.088" y2="111.9667" gradientTransform="matrix(1 0 0 -1 0 722)">
			<stop  offset="0" style="stop-color:#E94A47"/>
			<stop  offset="1" style="stop-color:#DD2F2F"/>
		</linearGradient>
		<rect id="_5" x="780.685" y="530.46" style="fill:url(#_5_1_);" width="58.605" height="58.605"/>
		
			<linearGradient id="_6_1_" gradientUnits="userSpaceOnUse" x1="858.2567" y1="173.7663" x2="939.9194" y2="173.7663" gradientTransform="matrix(1 0 0 -1 -1.947381e-05 722)">
			<stop  offset="0" style="stop-color:#E94A47"/>
			<stop  offset="0.5251" style="stop-color:#E33C3A"/>
			<stop  offset="1" style="stop-color:#DD2F2F"/>
		</linearGradient>
		<polygon id="_6" style="fill:url(#_6_1_);" points="873.041,507.402 920.948,541.158 887.193,589.065 839.286,555.31 		"/>
	</g>
	<g id="man">
		
			<linearGradient id="R_hand_1_" gradientUnits="userSpaceOnUse" x1="397.9281" y1="308.549" x2="470.8106" y2="318.4426" gradientTransform="matrix(1 0 0 -1 0 722)">
			<stop  offset="0" style="stop-color:#FFBEB6"/>
			<stop  offset="1" style="stop-color:#F29B94"/>
		</linearGradient>
		<path id="R_hand" style="fill:url(#R_hand_1_);" d="M436.701,406.25c-11.36,5.25-24.54,10.38-30.58,16.08
			c-11.1,10.48-26.11,13.25-30.64,11.97c-4.53-1.27-6.95-8.31-6.55-9.58s12.36,1.39,12.16,0.36c-0.19-1.04-11.5,0.42-12.69-2.59
			c-1.18-3.01,7.23-1.24,13.76-2.83c6.53-1.6,8.65-2.76,8.01-3.52c-1.78-2.12-11.48-3.77-10.06-6.32s11.39,1.33,17.9,0.34
			c7.69-1.17,21.34-12.38,27.69-17.29c0.94-0.73,1.9-1.47,2.86-2.23c0.38,0.79,0.79,1.61,1.23,2.45
			C431.901,397.13,434.231,401.55,436.701,406.25z"/>
		<g id="shoes">
			
				<linearGradient id="L_shoe_1_" gradientUnits="userSpaceOnUse" x1="699.0452" y1="171.5991" x2="635.0884" y2="273.7524" gradientTransform="matrix(1 0 0 -1 0 722)">
				<stop  offset="0" style="stop-color:#A1C3FC"/>
				<stop  offset="0.6955" style="stop-color:#81AEF2"/>
				<stop  offset="1" style="stop-color:#78A9EF"/>
			</linearGradient>
			<path id="L_shoe" style="fill:url(#L_shoe_1_);" d="M642.582,474.165l31.408-5.847l6.299,77.55c0,0-6.845,1.683-11.125-7.378
				s-24.226-32.448-24.226-32.448L642.582,474.165z"/>
			
				<linearGradient id="R_shoe_1_" gradientUnits="userSpaceOnUse" x1="433.2217" y1="230.3699" x2="502.9747" y2="230.3699" gradientTransform="matrix(1 0 0 -1 0 722)">
				<stop  offset="0" style="stop-color:#A1C3FC"/>
				<stop  offset="0.6955" style="stop-color:#81AEF2"/>
				<stop  offset="1" style="stop-color:#78A9EF"/>
			</linearGradient>
			<path id="R_shoe" style="fill:url(#R_shoe_1_);" d="M499.98,477.415l2.995,28.58l-69.714,0.008c0,0-1.017-6.234,7.379-9.413
				s30.701-19.335,30.701-19.335L499.98,477.415z"/>
		</g>
		
			<linearGradient id="R_sleeve_1_" gradientUnits="userSpaceOnUse" x1="428.7642" y1="348.6991" x2="510.4389" y2="348.6991" gradientTransform="matrix(1 0 0 -1 0 722)">
			<stop  offset="0" style="stop-color:#23286B"/>
			<stop  offset="1" style="stop-color:#151A4F"/>
		</linearGradient>
		<path id="R_sleeve" style="fill:url(#R_sleeve_1_);" d="M446.679,324.576c0,0,6.53,6.946,8.119,24.961
			c1.132,12.824-3.192,19.023-14.04,30.173c-8.976,9.226-11.994,10.904-11.994,10.904l24.01,46.508c0,0,13.285,1.021,22.434-13.38
			s13.014-18.359,20.392-22.627s21.341-18.006,11.374-43.751s-24.835-26.419-56.552-47.902l0,0"/>
		<g id="trousers">
			
				<linearGradient id="R_trousers_1_" gradientUnits="userSpaceOnUse" x1="412.3878" y1="294.5813" x2="485.5931" y2="304.3596" gradientTransform="matrix(1 0 0 -1 0 722)">
				<stop  offset="0" style="stop-color:#428DFC"/>
				<stop  offset="0.9979" style="stop-color:#2176DB"/>
			</linearGradient>
			<path id="R_trousers" style="fill:url(#R_trousers_1_);" d="M508.264,360.658c0,0-55.009-2.598-69.679,0.536
				c-13.572,2.9-20.26,9.93-8.79,31.899s29.448,55.094,41.546,84.164l36.603,0.221c0,0,4.877-12.3-1.019-21.412
				s-7.772-4.824-8.308-15.544s-1.072-13.936-10.184-24.924s-15.812-18.224-6.7-16.884s33.499,6.432,33.499,6.432L508.264,360.658z"
				/>
			
				<linearGradient id="L_trousers_1_" gradientUnits="userSpaceOnUse" x1="574.8536" y1="280.2469" x2="581.6415" y2="342.631" gradientTransform="matrix(1 0 0 -1 0 722)">
				<stop  offset="0" style="stop-color:#428DFC"/>
				<stop  offset="0.9979" style="stop-color:#2176DB"/>
			</linearGradient>
			<path id="L_trousers" style="fill:url(#L_trousers_1_);" d="M557.134,359.121c0,0,11.875,28.853,1.678,59.017
				s-16.842,40.365-12.948,42.461c6.392,3.442,17.013-13.595,33.582-4.249s22.517,9.771,31.439,5.523s19.118-6.798,31.014,2.974
				l2.974,41.21c0,0-101.268-0.474-121.721-0.03c-18.087,0.393-32.498-1.245-29.949-21.638s19.543-90.492,16.569-100.689l0,0
				L557.134,359.121"/>
		</g>
		
			<linearGradient id="sweater_1_" gradientUnits="userSpaceOnUse" x1="508.5043" y1="407.5309" x2="513.0382" y2="359.3072" gradientTransform="matrix(1 0 0 -1 0 722)">
			<stop  offset="0" style="stop-color:#23286B"/>
			<stop  offset="1" style="stop-color:#151A4F"/>
		</linearGradient>
		<path id="sweater" style="fill:url(#sweater_1_);" d="M571.141,368.04c0.29,3.67-14.89,12.07-37.55,17.53
			c0.63-7.4-1.34-16.43-8.76-26.6c-16.28-22.3-38.22-36.94-74.41-49.51c0,0,41.14-3.72,72.72,14.47
			c24.04,13.84,14.81,7.94,30.56,17.72C569.441,351.44,570.721,362.5,571.141,368.04z"/>
		
			<linearGradient id="square_1_" gradientUnits="userSpaceOnUse" x1="371.0387" y1="275.5732" x2="425.4306" y2="286.3771" gradientTransform="matrix(1 0 0 -1 0 722)">
			<stop  offset="0" style="stop-color:#E94A47"/>
			<stop  offset="1" style="stop-color:#DD2F2F"/>
		</linearGradient>
		<rect id="square" x="366.584" y="412.189" style="fill:url(#square_1_);" width="58.605" height="58.605"/>
		
			<linearGradient id="L_hand_1_" gradientUnits="userSpaceOnUse" x1="419.2066" y1="283.9217" x2="498.355" y2="309.3151" gradientTransform="matrix(1 0 0 -1 0 722)">
			<stop  offset="0" style="stop-color:#FFBEB6"/>
			<stop  offset="1" style="stop-color:#F29B94"/>
		</linearGradient>
		<path id="L_hand" style="fill:url(#L_hand_1_);" d="M465.861,421.9c-5.45,2.31-10.31,4.3-13.66,5.61
			c-13.64,5.34-21.93,8.89-29.34,18.38c-7.41,9.48-7.62,10.01-14.73,15.34c-7.11,5.34-21.49,1.03-21.49,0.43
			c0-0.59,17.84-12.51,6.28-7.48c-11.56,5.04-17.19-1.48-9.78-2.66c7.41-1.19,18.38-9.49,21.34-11.86s0-4.15-7.41-3.26
			s-9.48-3.85-4.74-3.55c4.74,0.29,10.96-4.15,20.75-4.15c9.78,0,18.28-7.95,34.29-17.73c2.04-1.25,4.09-2.64,6.1-4.12
			L465.861,421.9z"/>
		<path id="L_sleeve" style="fill:#23286B;" d="M447.358,325.578c0,0,18.102,19.828,25.335,36.403s5.424,20.794-5.726,31.643
			s-14.133,12.445-14.133,12.445l37.639,45.717c0,0,15.671-4.219,20.794-20.493c5.123-16.274,7.835-21.095,13.863-27.122
			s15.972-22.903-0.301-45.204s-38.221-36.933-74.407-49.504l0,0"/>
		<g id="head">
			
				<linearGradient id="neck_1_" gradientUnits="userSpaceOnUse" x1="448.8944" y1="404.4792" x2="434.9185" y2="408.3346" gradientTransform="matrix(1 0 0 -1 0 722)">
				<stop  offset="0" style="stop-color:#FFBEB6"/>
				<stop  offset="1" style="stop-color:#F29B94"/>
			</linearGradient>
			<path id="neck" style="fill:url(#neck_1_);" d="M447.361,325.58c-4.83-3.93-8.95-4.513-11.01-4.543
				c0.04-0.5-0.023-1.028-0.023-1.518c0.096-1.297,0.05-2.601-0.138-3.889l-1.07-3.4c-0.68,0.74-0.85,0.71-1.35,0.72
				c-1.87,0.04-2.18-1.36-2.46-3.2c6.12,1.82,19.11-0.29,19.11-0.29C452.941,322.65,447.361,325.58,447.361,325.58z"/>
			<path id="face" style="fill:#FFBEB6;" d="M431.111,332.24c-5.06,4.08-11.74,3.83-12.21,5.05c-0.48,1.22-2.12,3.58-3.47,3.21
				c-1.34-0.38-4.1-4.99-8.8-7c-0.44-0.18-0.85-0.37-1.26-0.57c-0.02-0.01-0.03-0.01-0.04-0.03l-0.22-0.11
				c-0.27-0.14-0.73-0.39-1.31-0.75c3.16-2.2,5.11-4.77,5.15-6.49c0.12-4.87,2.86-3.95,7.94-6.03c5.09-2.09,5.19-6.35,6.71-11.97
				c1.53-5.62,6.62-3.07,7.3-0.22c0.69,2.85,0.37,5.75,3.01,5.69c0.742-0.143,1.405-0.557,1.86-1.16l0.141,0.734
				c0.045,0.232,0.078,0.466,0.1,0.701l0.306,3.279C436.839,322.462,435.861,328.42,431.111,332.24z"/>
			
				<linearGradient id="eyeglasses_1_" gradientUnits="userSpaceOnUse" x1="400.6554" y1="389.2362" x2="421.1841" y2="389.2362" gradientTransform="matrix(1 0 0 -1 0 722)">
				<stop  offset="0" style="stop-color:#428DFC"/>
				<stop  offset="0.9979" style="stop-color:#2176DB"/>
			</linearGradient>
			<path id="eyeglasses" style="fill:url(#eyeglasses_1_);" d="M411.441,339.027c0.027-0.248,0.029-0.499,0.004-0.747
				c-0.285-1.729-1.494-3.163-3.149-3.736c0.37-1.354,1.747-2.22,2.921-2.84c0.95,0.597,2.023,0.971,3.138,1.093
				c1.576,0.201,3.174-0.132,4.539-0.945c1.237-0.707,2.074-1.95,2.263-3.362c0.033-0.291,0.034-0.584,0.005-0.875
				c-0.133-1.11-0.652-2.139-1.467-2.905c-1.151-1.096-2.636-1.774-4.217-1.928c-3.441-0.386-6.492,1.545-6.803,4.307
				c-0.129,1.419,0.412,2.817,1.462,3.78c0.118,0.116,0.259,0.21,0.387,0.318c-1.357,0.608-2.423,1.72-2.975,3.1
				c-0.33-0.09-0.666-0.155-1.005-0.194c-2.967-0.333-5.599,1.338-5.868,3.725l0,0.001c-0.264,2.386,1.93,4.599,4.897,4.933
				C408.54,343.085,411.172,341.414,411.441,339.027z M414.443,332.01c-1.404-0.133-2.724-0.733-3.748-1.704
				c-0.683-0.638-1.121-1.497-1.235-2.425c-0.024-0.234-0.022-0.47,0.004-0.704c0.261-2.327,2.92-3.946,5.928-3.607
				c1.404,0.133,2.724,0.733,3.748,1.704c1.507,1.293,1.68,3.563,0.387,5.069c-0.294,0.343-0.65,0.627-1.049,0.838
				C417.263,331.899,415.843,332.191,414.443,332.01z M405.661,341.965c-2.532-0.283-4.418-2.099-4.197-4.058
				c0.219-1.953,2.459-3.31,4.993-3.026c2.533,0.284,4.415,2.1,4.197,4.058C410.435,340.892,408.195,342.249,405.661,341.965
				L405.661,341.965z"/>
			<path id="hair" style="fill:#23286B;" d="M432.318,290.849c-11.806-10.938-26.426-4.641-28.331,6.318
				s-12.259,12.555-12.259,12.555l-13.273,23.089c5.844,3.739,13.098,4.535,19.614,2.152c-6.26,3.078-13.628,2.906-19.737-0.461
				c-0.427-0.224-0.807,0.423-0.379,0.648c8.069,4.467,18.067,3.435,25.054-2.587c3.622-2.304,5.896-5.159,5.941-7.017
				c0.12-4.867,2.864-3.945,7.947-6.029s5.188-6.343,6.71-11.966s6.616-3.075,7.301-0.224s0.361,5.754,3.004,5.694
				S444.124,301.786,432.318,290.849z"/>
			<path id="texture" style="opacity:0.48;fill:#FFFFFF;enable-background:new    ;" d="M547.581,391.75
				c-0.08-0.019-0.161,0.03-0.18,0.11c0,0,0,0,0,0c-0.023,0.076,0.02,0.156,0.095,0.179c0.002,0,0.003,0.001,0.005,0.001
				c0.08,0.019,0.161-0.03,0.18-0.11c0,0,0,0,0,0C547.7,391.853,547.657,391.775,547.581,391.75z M544.121,390.86
				c-0.08-0.019-0.161,0.03-0.18,0.11s0.03,0.161,0.11,0.18c0.08,0.019,0.161-0.03,0.18-0.11
				C544.248,390.96,544.2,390.882,544.121,390.86z M540.671,389.97c-0.08-0.02-0.161,0.028-0.181,0.108
				c-0.02,0.08,0.028,0.161,0.108,0.181c0.001,0,0.002,0.001,0.003,0.001c0.075,0.018,0.15-0.027,0.168-0.102
				c0.001-0.003,0.001-0.005,0.002-0.008c0.026-0.071-0.011-0.149-0.082-0.175C540.684,389.973,540.678,389.971,540.671,389.97
				L540.671,389.97z M537.211,389.08c-0.081-0.014-0.159,0.041-0.172,0.122c-0.013,0.074,0.031,0.145,0.102,0.168
				c0.08,0.018,0.16-0.032,0.179-0.112C537.338,389.179,537.29,389.1,537.211,389.08z M533.761,388.19
				c-0.08-0.019-0.161,0.03-0.18,0.11s0.03,0.161,0.11,0.18c0.08,0.019,0.161-0.03,0.18-0.11
				C533.891,388.29,533.842,388.209,533.761,388.19C533.762,388.19,533.761,388.19,533.761,388.19L533.761,388.19z M538.641,403.82
				c-0.041-0.069-0.131-0.091-0.2-0.05c-0.069,0.041-0.091,0.131-0.05,0.2c0.041,0.069,0.131,0.091,0.2,0.05
				C538.66,403.979,538.683,403.889,538.641,403.82C538.641,403.82,538.641,403.82,538.641,403.82L538.641,403.82z M536.831,400.75
				c-0.035-0.067-0.118-0.094-0.186-0.059c-0.005,0.003-0.01,0.005-0.014,0.009c-0.071,0.039-0.098,0.128-0.06,0.2
				c0.047,0.068,0.138,0.09,0.21,0.05C536.85,400.909,536.873,400.819,536.831,400.75C536.831,400.75,536.831,400.75,536.831,400.75
				L536.831,400.75z M535.021,397.68c-0.044-0.071-0.135-0.096-0.21-0.06c-0.068,0.047-0.09,0.138-0.05,0.21
				c0.041,0.069,0.131,0.091,0.2,0.05c0,0,0,0,0,0C535.033,397.841,535.059,397.752,535.021,397.68L535.021,397.68z M533.201,394.6
				c-0.041-0.069-0.131-0.091-0.2-0.05c0,0,0,0,0,0c-0.069,0.046-0.091,0.138-0.05,0.21c0.041,0.069,0.131,0.091,0.2,0.05
				c0,0,0,0,0,0C533.221,394.764,533.243,394.672,533.201,394.6L533.201,394.6z M523.681,405.85c-0.077-0.016-0.153,0.033-0.17,0.11
				c-0.026,0.071,0.011,0.149,0.082,0.175c0.006,0.002,0.012,0.004,0.018,0.005c0.08,0.02,0.161-0.028,0.181-0.108
				c0.02-0.08-0.028-0.161-0.108-0.181C523.684,405.851,523.682,405.85,523.681,405.85L523.681,405.85z M546.041,384.12
				c-0.08,0.014-0.133,0.09-0.12,0.17c0.008,0.08,0.08,0.138,0.16,0.13c0,0,0,0,0,0c0.08-0.016,0.136-0.089,0.13-0.17
				C546.198,384.168,546.124,384.111,546.041,384.12L546.041,384.12z M542.651,384.68c-0.034-0.042-0.086-0.064-0.14-0.06
				c-0.077,0.01-0.132,0.081-0.122,0.158c0.001,0.004,0.001,0.008,0.002,0.012c0.008,0.08,0.08,0.138,0.16,0.13c0,0,0,0,0,0
				c0.052-0.016,0.095-0.052,0.12-0.1c0.008-0.022,0.012-0.046,0.01-0.07C542.678,384.724,542.667,384.7,542.651,384.68
				L542.651,384.68z M538.981,385.12c-0.082,0.013-0.139,0.088-0.13,0.17c0.01,0.077,0.08,0.132,0.158,0.122
				c0.004-0.001,0.008-0.001,0.012-0.002c0.08-0.008,0.138-0.08,0.13-0.16c0,0,0,0,0,0
				C539.136,385.17,539.063,385.114,538.981,385.12L538.981,385.12z M542.851,397.4c-0.064-0.047-0.153-0.033-0.2,0.03
				c-0.047,0.064-0.033,0.153,0.03,0.2c0.063,0.047,0.153,0.033,0.2-0.03c0.048-0.058,0.04-0.144-0.018-0.191
				C542.859,397.405,542.855,397.403,542.851,397.4L542.851,397.4z M540.001,395.25c-0.064-0.046-0.153-0.033-0.2,0.03
				c-0.019,0.026-0.029,0.058-0.03,0.09c-0.001,0.047,0.021,0.092,0.06,0.12c0.008,0.008,0.019,0.011,0.03,0.01h0.01
				c0.056,0.027,0.123,0.01,0.16-0.04c0.05-0.063,0.04-0.155-0.024-0.205C540.006,395.253,540.004,395.251,540.001,395.25
				L540.001,395.25z M537.151,393.11c-0.064-0.047-0.153-0.034-0.2,0.03c-0.047,0.064-0.034,0.153,0.03,0.2
				c0.061,0.049,0.15,0.041,0.2-0.02c0.05-0.063,0.04-0.155-0.024-0.205C537.156,393.113,537.154,393.112,537.151,393.11
				L537.151,393.11z M534.301,390.96c-0.064-0.046-0.153-0.033-0.2,0.03c-0.05,0.063-0.039,0.155,0.024,0.205
				c0.002,0.002,0.004,0.003,0.006,0.005c0.058,0.048,0.144,0.04,0.191-0.018c0.003-0.004,0.006-0.008,0.009-0.012
				c0.05-0.064,0.038-0.157-0.026-0.207C534.304,390.962,534.303,390.961,534.301,390.96L534.301,390.96z M531.051,404.4
				c-0.083,0.013-0.139,0.09-0.127,0.173c0.012,0.08,0.086,0.137,0.167,0.127c0.083-0.009,0.143-0.084,0.133-0.167
				c-0.009-0.083-0.084-0.143-0.167-0.133C531.055,404.399,531.053,404.4,531.051,404.4z M530.551,400.87
				c-0.082,0.013-0.139,0.088-0.13,0.17c0.01,0.077,0.08,0.132,0.158,0.122c0.004-0.001,0.008-0.001,0.012-0.002
				c0.08-0.008,0.138-0.08,0.13-0.16c0,0,0,0,0,0C530.706,400.92,530.633,400.864,530.551,400.87L530.551,400.87z M562.031,378.91
				c-0.027-0.002-0.054,0.002-0.08,0.01c-0.151,0.032-0.249,0.178-0.22,0.33c0.03,0.148,0.175,0.244,0.324,0.214
				c0.005-0.001,0.011-0.002,0.016-0.004c0.01,0,0.02-0.01,0.03-0.01C562.081,379.27,562.061,379.09,562.031,378.91L562.031,378.91z
				 M555.331,380.31c-0.149,0.033-0.243,0.181-0.21,0.33c0,0,0,0,0,0c0.032,0.151,0.178,0.249,0.33,0.22l0.01-0.01
				c0.099-0.016,0.179-0.092,0.2-0.19c0.018-0.041,0.022-0.087,0.01-0.13C555.633,380.379,555.485,380.284,555.331,380.31
				L555.331,380.31z M548.721,381.71c-0.151,0.032-0.249,0.178-0.22,0.33c0.033,0.149,0.181,0.243,0.33,0.21c0,0,0,0,0,0
				c0.151-0.032,0.249-0.178,0.22-0.33c-0.028-0.146-0.169-0.241-0.315-0.213C548.731,381.708,548.726,381.709,548.721,381.71
				L548.721,381.71z M557.881,401.85c-0.126-0.086-0.298-0.054-0.385,0.072c-0.002,0.003-0.004,0.006-0.005,0.008
				c-0.083,0.126-0.048,0.296,0.078,0.379c0.001,0,0.001,0.001,0.002,0.001c0.126,0.086,0.298,0.054,0.385-0.072
				c0.002-0.003,0.004-0.006,0.005-0.008c0.083-0.126,0.048-0.296-0.078-0.379C557.883,401.851,557.882,401.85,557.881,401.85
				L557.881,401.85z M552.211,398.15c-0.126-0.083-0.296-0.048-0.379,0.078c0,0.001-0.001,0.001-0.001,0.002
				c-0.086,0.13-0.05,0.304,0.08,0.39c0.13,0.086,0.304,0.05,0.39-0.08C552.38,398.407,552.341,398.235,552.211,398.15
				L552.211,398.15z M546.551,394.46c-0.13-0.086-0.304-0.05-0.39,0.08c-0.086,0.13-0.05,0.304,0.08,0.39
				c0.13,0.086,0.304,0.05,0.39-0.08l0,0c0.086-0.126,0.054-0.298-0.072-0.384C546.557,394.464,546.554,394.462,546.551,394.46
				L546.551,394.46z M540.891,390.77c-0.126-0.086-0.298-0.054-0.385,0.072c-0.002,0.003-0.004,0.006-0.005,0.008
				c-0.054,0.076-0.065,0.174-0.03,0.26h0.01c0.018,0.053,0.053,0.099,0.1,0.13c0.029,0.02,0.064,0.031,0.1,0.03
				c0.147,0.036,0.296-0.055,0.332-0.202C541.041,390.953,540.992,390.833,540.891,390.77L540.891,390.77z M535.221,387.08
				c-0.127-0.086-0.3-0.053-0.386,0.075c-0.001,0.002-0.002,0.004-0.004,0.005c-0.079,0.133-0.039,0.305,0.09,0.39
				c0.13,0.08,0.3,0.04,0.38-0.09c0,0,0,0,0,0c0.084-0.12,0.056-0.285-0.064-0.369C535.232,387.087,535.227,387.083,535.221,387.08
				L535.221,387.08z M539.851,421.58c-0.151,0.032-0.249,0.178-0.22,0.33c0.028,0.146,0.169,0.241,0.315,0.213
				c0.005-0.001,0.01-0.002,0.015-0.003c0.151-0.032,0.249-0.178,0.22-0.33C540.148,421.641,540.001,421.547,539.851,421.58
				C539.852,421.58,539.852,421.58,539.851,421.58L539.851,421.58z M538.451,414.96c-0.149,0.033-0.243,0.181-0.21,0.33c0,0,0,0,0,0
				c0.028,0.152,0.174,0.253,0.327,0.225c0.152-0.028,0.253-0.174,0.225-0.327c0-0.003-0.001-0.005-0.002-0.008
				C538.753,415.029,538.605,414.934,538.451,414.96L538.451,414.96z M537.061,408.34c-0.151,0.039-0.246,0.187-0.22,0.34
				c0.028,0.146,0.169,0.241,0.315,0.213c0.005-0.001,0.01-0.002,0.015-0.003c0.15-0.027,0.249-0.171,0.222-0.32
				c-0.001-0.003-0.001-0.007-0.002-0.01C537.36,408.409,537.213,408.311,537.061,408.34L537.061,408.34z M535.661,401.73
				c-0.149,0.033-0.243,0.181-0.21,0.33c0,0,0,0,0,0c0.031,0.152,0.18,0.249,0.332,0.217c0.152-0.031,0.249-0.18,0.218-0.332
				c-0.032-0.152-0.18-0.249-0.332-0.218C535.666,401.729,535.664,401.729,535.661,401.73z M534.271,395.11
				c-0.151,0.036-0.244,0.189-0.208,0.34c0.035,0.147,0.18,0.239,0.328,0.21c0.146-0.028,0.241-0.169,0.213-0.315
				c-0.001-0.005-0.002-0.01-0.003-0.015C534.57,395.179,534.423,395.081,534.271,395.11L534.271,395.11z M559.201,389.94
				c-0.152-0.029-0.298,0.069-0.33,0.22c-0.03,0.152,0.068,0.3,0.22,0.33c0.152,0.03,0.3-0.068,0.33-0.22
				S559.353,389.97,559.201,389.94L559.201,389.94z M552.551,388.7c-0.145-0.031-0.287,0.062-0.318,0.207
				c-0.001,0.004-0.002,0.009-0.002,0.013c-0.033,0.148,0.061,0.295,0.209,0.328s0.295-0.061,0.328-0.209
				c0.001-0.006,0.003-0.013,0.004-0.019c0.031-0.145-0.062-0.287-0.207-0.318C552.56,388.702,552.556,388.701,552.551,388.7
				L552.551,388.7z M545.911,387.45c-0.15-0.031-0.297,0.066-0.328,0.216c-0.001,0.005-0.002,0.009-0.003,0.014
				c-0.028,0.148,0.069,0.291,0.217,0.319c0.001,0,0.002,0,0.003,0.001c0.15,0.031,0.297-0.065,0.329-0.215
				c0-0.002,0.001-0.003,0.001-0.005C546.16,387.628,546.062,387.482,545.911,387.45L545.911,387.45z M539.261,386.21
				c-0.152-0.025-0.296,0.079-0.32,0.232c-0.024,0.152,0.079,0.296,0.232,0.32c0.149,0.024,0.29-0.074,0.319-0.222
				C539.514,386.386,539.414,386.241,539.261,386.21L539.261,386.21z M552.081,413.09c-0.085-0.132-0.261-0.17-0.393-0.085
				c-0.132,0.085-0.17,0.261-0.085,0.393s0.261,0.17,0.393,0.085c0.002-0.001,0.003-0.002,0.005-0.003
				C552.129,413.393,552.165,413.22,552.081,413.09L552.081,413.09z M548.261,407.51c-0.085-0.132-0.261-0.17-0.393-0.085
				c-0.132,0.085-0.17,0.261-0.085,0.393c0.085,0.132,0.261,0.17,0.393,0.085c0.002-0.001,0.003-0.002,0.005-0.003
				C548.309,407.813,548.345,407.64,548.261,407.51L548.261,407.51z M544.441,401.93c-0.094-0.125-0.269-0.156-0.4-0.07
				c-0.128,0.091-0.157,0.269-0.066,0.397c0.088,0.124,0.258,0.156,0.386,0.073C544.489,402.238,544.524,402.064,544.441,401.93
				L544.441,401.93z M540.611,396.36c-0.083-0.129-0.255-0.166-0.383-0.083s-0.166,0.255-0.083,0.383
				c0.002,0.003,0.004,0.006,0.006,0.009c0.085,0.126,0.257,0.16,0.383,0.075c0.002-0.002,0.005-0.003,0.007-0.005
				c0.123-0.079,0.159-0.242,0.08-0.365C540.618,396.37,540.615,396.365,540.611,396.36L540.611,396.36z M536.791,390.78
				c-0.089-0.125-0.262-0.154-0.387-0.065c-0.12,0.086-0.153,0.251-0.073,0.375c0.087,0.127,0.26,0.162,0.39,0.08
				c0.127-0.086,0.159-0.259,0.073-0.386C536.793,390.783,536.792,390.781,536.791,390.78L536.791,390.78z M526.621,418.52
				c-0.145-0.03-0.287,0.064-0.317,0.209c-0.001,0.007-0.003,0.014-0.003,0.021c-0.028,0.148,0.069,0.291,0.217,0.319
				c0.001,0,0.002,0,0.003,0.001c0.152,0.029,0.298-0.069,0.33-0.22C526.871,418.697,526.772,418.554,526.621,418.52L526.621,418.52
				z M527.871,411.88c-0.15-0.032-0.297,0.065-0.329,0.215c0,0.002-0.001,0.003-0.001,0.005c-0.029,0.152,0.069,0.298,0.22,0.33
				c0.153,0.02,0.296-0.08,0.33-0.23c0.028-0.148-0.069-0.291-0.217-0.319C527.873,411.88,527.872,411.88,527.871,411.88
				L527.871,411.88z M529.111,405.23c-0.152-0.029-0.298,0.069-0.33,0.22c-0.031,0.15,0.066,0.297,0.216,0.327
				c0.005,0.001,0.009,0.002,0.014,0.003c0.145,0.031,0.287-0.062,0.318-0.207c0.001-0.004,0.002-0.009,0.002-0.013
				C529.36,405.408,529.262,405.262,529.111,405.23L529.111,405.23z M530.351,398.58c-0.151-0.023-0.293,0.079-0.32,0.23
				c-0.031,0.145,0.062,0.287,0.207,0.318c0.004,0.001,0.009,0.002,0.013,0.002c0.152,0.029,0.298-0.069,0.33-0.22
				C530.606,398.756,530.504,398.61,530.351,398.58L530.351,398.58z M562.771,386.22c-0.026,0.031-0.044,0.069-0.05,0.11
				c-0.003,0.067,0.023,0.132,0.07,0.18C562.781,386.41,562.771,386.31,562.771,386.22L562.771,386.22z M556.991,385.57
				c-0.135-0.013-0.256,0.086-0.269,0.221c-0.013,0.134,0.085,0.254,0.219,0.269c0.135,0.014,0.257-0.083,0.271-0.219
				c0.015-0.135-0.083-0.257-0.219-0.271C556.993,385.57,556.992,385.57,556.991,385.57z M550.981,385.03
				c-0.135-0.013-0.256,0.086-0.269,0.221c-0.013,0.134,0.085,0.254,0.219,0.269c0.128,0.02,0.248-0.068,0.268-0.196
				c0.001-0.008,0.002-0.016,0.002-0.024c0.016-0.132-0.077-0.252-0.21-0.269C550.988,385.031,550.985,385.03,550.981,385.03
				L550.981,385.03z M544.971,384.49c-0.086-0.01-0.171,0.029-0.22,0.1c-0.032,0.033-0.052,0.075-0.06,0.12
				c-0.008,0.137,0.093,0.257,0.23,0.27c0.135,0.013,0.256-0.086,0.269-0.221C545.203,384.624,545.106,384.504,544.971,384.49z
				 M557.401,409.24c-0.088-0.105-0.245-0.119-0.35-0.031c-0.105,0.088-0.119,0.245-0.031,0.35c0,0,0.001,0.001,0.001,0.001
				c0.089,0.105,0.245,0.118,0.35,0.029C557.476,409.501,557.489,409.345,557.401,409.24z M553.531,404.61
				c-0.088-0.105-0.245-0.118-0.35-0.03c-0.105,0.088-0.118,0.245-0.03,0.35c0.088,0.105,0.245,0.118,0.35,0.03
				c0.105-0.084,0.121-0.237,0.037-0.342C553.536,404.615,553.534,404.613,553.531,404.61L553.531,404.61z M549.661,399.97
				c-0.025-0.04-0.064-0.069-0.11-0.08h-0.01c-0.08-0.023-0.166-0.004-0.23,0.05c-0.108,0.09-0.122,0.25-0.032,0.358
				c0.001,0.001,0.001,0.001,0.002,0.002c0.089,0.104,0.245,0.117,0.35,0.03c0.049-0.039,0.079-0.097,0.08-0.16
				C549.73,400.099,549.711,400.024,549.661,399.97L549.661,399.97z M545.791,395.34c-0.089-0.104-0.245-0.117-0.35-0.03
				c-0.107,0.089-0.122,0.248-0.034,0.355c0.088,0.107,0.246,0.122,0.354,0.035c0.108-0.09,0.122-0.251,0.031-0.358
				C545.792,395.341,545.792,395.341,545.791,395.34L545.791,395.34z M541.931,390.71c-0.093-0.104-0.251-0.117-0.36-0.03
				c-0.105,0.091-0.116,0.251-0.025,0.356c0.088,0.101,0.239,0.116,0.345,0.034C541.997,390.979,542.015,390.822,541.931,390.71
				L541.931,390.71z M538.061,386.08c-0.093-0.104-0.251-0.117-0.36-0.03c-0.105,0.091-0.116,0.251-0.025,0.356
				c0.088,0.101,0.239,0.116,0.345,0.034C538.128,386.349,538.145,386.192,538.061,386.08L538.061,386.08z M532.991,416.73
				c-0.137-0.012-0.257,0.089-0.27,0.225c0,0.002,0,0.003,0,0.005c-0.016,0.132,0.077,0.252,0.209,0.269
				c0.003,0,0.007,0.001,0.011,0.001c0.14,0.01,0.262-0.091,0.28-0.23C533.227,416.864,533.127,416.746,532.991,416.73
				L532.991,416.73z M533.531,410.72c-0.137-0.012-0.257,0.089-0.27,0.225c0,0.002,0,0.003,0,0.005
				c-0.016,0.132,0.077,0.252,0.209,0.269c0.003,0,0.007,0.001,0.011,0.001c0.135,0.013,0.255-0.085,0.27-0.22
				C533.766,410.863,533.668,410.739,533.531,410.72L533.531,410.72z M534.071,404.71c-0.137-0.012-0.257,0.089-0.27,0.225
				c0,0.002,0,0.003,0,0.005c-0.02,0.128,0.068,0.248,0.197,0.268c0.008,0.001,0.016,0.002,0.023,0.002
				c0.137,0.012,0.257-0.089,0.27-0.225c0-0.002,0-0.003,0-0.005C534.302,404.846,534.205,404.727,534.071,404.71L534.071,404.71z
				 M534.601,398.7c-0.136-0.006-0.254,0.094-0.27,0.23c-0.011,0.138,0.093,0.259,0.231,0.27c0.134,0.01,0.252-0.087,0.269-0.22
				C534.841,398.84,534.74,398.718,534.601,398.7L534.601,398.7z M535.151,392.69c-0.14-0.01-0.262,0.091-0.28,0.23
				c-0.011,0.138,0.091,0.259,0.229,0.271c0.138,0.011,0.259-0.091,0.271-0.229c0,0,0-0.001,0-0.001
				C535.378,392.827,535.283,392.711,535.151,392.69L535.151,392.69z M535.681,386.68c-0.137-0.009-0.257,0.093-0.27,0.23
				c-0.011,0.138,0.091,0.259,0.229,0.271c0.138,0.011,0.259-0.091,0.271-0.229c0,0,0-0.001,0-0.001
				C535.917,386.814,535.817,386.696,535.681,386.68L535.681,386.68z M557.791,394.6c-0.121-0.065-0.271-0.019-0.336,0.102
				c-0.001,0.003-0.003,0.005-0.004,0.008c-0.065,0.113-0.027,0.258,0.086,0.323c0.004,0.003,0.009,0.005,0.013,0.007
				c0.117,0.068,0.267,0.027,0.335-0.09c0.002-0.003,0.004-0.007,0.005-0.01C557.954,394.818,557.91,394.668,557.791,394.6
				L557.791,394.6z M552.441,391.8c-0.125-0.058-0.273-0.01-0.34,0.11c-0.063,0.124-0.014,0.276,0.11,0.34
				c0.127,0.059,0.277,0.004,0.336-0.122C552.603,392.007,552.557,391.864,552.441,391.8L552.441,391.8z M547.091,389.01
				c-0.121-0.066-0.273-0.022-0.339,0.099c0,0,0,0.001-0.001,0.001c-0.058,0.125-0.01,0.273,0.11,0.34
				c0.124,0.063,0.276,0.014,0.34-0.11c0.062-0.117,0.018-0.262-0.099-0.324C547.099,389.014,547.095,389.012,547.091,389.01
				L547.091,389.01z M541.751,386.21c-0.122-0.066-0.274-0.02-0.34,0.101c-0.065,0.121-0.021,0.272,0.1,0.339
				c0.122,0.065,0.273,0.02,0.34-0.1c0.067-0.117,0.027-0.267-0.09-0.335C541.758,386.214,541.755,386.212,541.751,386.21
				L541.751,386.21z M545.341,412.33c-0.129,0.048-0.199,0.188-0.16,0.32c0.042,0.13,0.18,0.201,0.31,0.16
				c0.132-0.04,0.207-0.178,0.17-0.31C545.619,412.366,545.477,412.29,545.341,412.33L545.341,412.33z M543.541,406.57
				c-0.129,0.048-0.199,0.188-0.16,0.32c0.042,0.13,0.18,0.201,0.31,0.16c0.127-0.036,0.201-0.169,0.164-0.296
				c-0.001-0.005-0.003-0.009-0.005-0.014C543.812,406.608,543.674,406.533,543.541,406.57L543.541,406.57z M541.741,400.82
				c-0.127,0.036-0.201,0.169-0.165,0.296c0.001,0.005,0.003,0.01,0.005,0.014c0.042,0.129,0.182,0.2,0.311,0.158
				c0.128-0.042,0.199-0.179,0.159-0.308c-0.036-0.127-0.169-0.201-0.296-0.165C541.751,400.817,541.746,400.818,541.741,400.82
				L541.741,400.82z M539.941,395.06c-0.132,0.04-0.207,0.178-0.17,0.31c0.017,0.051,0.048,0.096,0.09,0.13h0.01
				c0.064,0.045,0.146,0.056,0.22,0.03c0.13-0.041,0.201-0.18,0.16-0.31C540.21,395.09,540.071,395.018,539.941,395.06z
				 M538.141,389.3c-0.043,0.011-0.082,0.036-0.11,0.07c-0.004,0.054-0.03,0.104-0.07,0.14c-0.002,0.034,0.002,0.067,0.01,0.1
				c0.04,0.132,0.178,0.207,0.31,0.17c0.134-0.043,0.21-0.185,0.17-0.32C538.41,389.33,538.271,389.259,538.141,389.3L538.141,389.3
				z M522.521,410.48c-0.122-0.063-0.272-0.019-0.34,0.1c-0.065,0.121-0.019,0.271,0.102,0.336c0.003,0.001,0.005,0.003,0.008,0.004
				c0.113,0.065,0.257,0.027,0.323-0.086c0.003-0.004,0.005-0.009,0.007-0.014c0.067-0.117,0.027-0.267-0.09-0.335
				C522.528,410.484,522.525,410.482,522.521,410.48L522.521,410.48z M525.311,405.13c-0.126-0.059-0.277-0.005-0.336,0.121
				c-0.057,0.121-0.01,0.264,0.106,0.329c0.124,0.061,0.275,0.012,0.34-0.11c0.065-0.119,0.022-0.268-0.097-0.333
				C525.32,405.134,525.316,405.132,525.311,405.13L525.311,405.13z M533.711,389.09c-0.125-0.058-0.273-0.01-0.34,0.11
				c-0.063,0.124-0.014,0.276,0.11,0.34c0.127,0.059,0.277,0.004,0.336-0.122C533.874,389.297,533.827,389.154,533.711,389.09
				L533.711,389.09z M559.081,380.23c-0.08,0.008-0.138,0.08-0.13,0.16c0,0,0,0,0,0c0.011,0.08,0.079,0.14,0.16,0.14
				c0.082-0.01,0.14-0.084,0.13-0.166c0-0.001,0-0.002,0-0.004C559.233,380.28,559.162,380.222,559.081,380.23
				C559.082,380.23,559.082,380.23,559.081,380.23L559.081,380.23z M555.661,380.66c-0.023-0.044-0.071-0.068-0.12-0.06
				c-0.08,0.008-0.138,0.08-0.13,0.16c0,0,0,0,0,0c0.004,0.035,0.022,0.068,0.05,0.09c0.027,0.032,0.069,0.047,0.11,0.04
				c0.08-0.008,0.138-0.08,0.13-0.16c0,0,0,0,0,0C555.703,380.701,555.687,380.674,555.661,380.66L555.661,380.66z M552.002,380.96
				c-0.082,0.013-0.139,0.088-0.13,0.17c0.007,0.08,0.077,0.14,0.157,0.133c0.08-0.007,0.14-0.077,0.133-0.157
				c0-0.002,0-0.004-0.001-0.006C552.151,381.02,552.082,380.96,552.002,380.96L552.002,380.96z M554.911,394.62
				c-0.064-0.052-0.158-0.043-0.21,0.02c-0.052,0.064-0.043,0.158,0.02,0.21c0.064,0.052,0.158,0.043,0.21-0.02l0,0
				C554.981,394.766,554.973,394.674,554.911,394.62L554.911,394.62z M552.151,392.38c-0.064-0.052-0.158-0.043-0.21,0.02
				c-0.052,0.064-0.043,0.158,0.02,0.21c0.064,0.052,0.158,0.043,0.21-0.02l0,0C552.221,392.526,552.213,392.434,552.151,392.38
				L552.151,392.38z M549.381,390.13c-0.061-0.049-0.15-0.041-0.2,0.02c-0.053,0.054-0.053,0.141,0.001,0.195
				c0.006,0.006,0.012,0.011,0.019,0.015c0.061,0.049,0.15,0.04,0.2-0.02c0.053-0.055,0.052-0.143-0.003-0.196
				C549.393,390.139,549.387,390.134,549.381,390.13L549.381,390.13z M546.621,387.89c-0.065-0.049-0.156-0.04-0.21,0.02
				c-0.05,0.064-0.039,0.157,0.026,0.207c0.001,0.001,0.003,0.002,0.004,0.003c0.061,0.049,0.15,0.04,0.2-0.02
				C546.691,388.036,546.682,387.944,546.621,387.89L546.621,387.89z M543.861,385.64c-0.064-0.05-0.157-0.039-0.207,0.025
				c-0.001,0.002-0.002,0.003-0.003,0.005c-0.049,0.061-0.04,0.15,0.02,0.2c0.064,0.052,0.158,0.043,0.21-0.02
				C543.934,385.786,543.925,385.692,543.861,385.64L543.861,385.64z M541.621,401.72c-0.08,0.008-0.138,0.08-0.13,0.16
				c0.008,0.08,0.08,0.138,0.16,0.13s0.138-0.08,0.13-0.16c0,0,0,0,0,0C541.773,401.77,541.701,401.712,541.621,401.72
				L541.621,401.72L541.621,401.72z M541.251,398.18c-0.077,0.005-0.136,0.072-0.131,0.149c0,0.004,0.001,0.007,0.001,0.011
				c0.008,0.08,0.08,0.138,0.16,0.13c0,0,0,0,0,0c0.082-0.007,0.144-0.078,0.14-0.16c-0.01-0.082-0.085-0.14-0.167-0.13
				C541.254,398.18,541.253,398.18,541.251,398.18L541.251,398.18z M540.891,394.64c-0.077,0.005-0.136,0.071-0.131,0.149
				c0,0.004,0.001,0.008,0.001,0.011c0.008,0.08,0.08,0.138,0.16,0.13c0.08-0.008,0.138-0.08,0.13-0.16
				C541.043,394.69,540.972,394.632,540.891,394.64z M540.521,391.1c-0.014-0.001-0.028,0.002-0.04,0.01h-0.01
				c-0.054,0.03-0.085,0.089-0.08,0.15c0.008,0.08,0.08,0.138,0.16,0.13h0c0.063-0.01,0.115-0.058,0.13-0.12v-0.04
				c-0.005-0.077-0.072-0.136-0.149-0.131C540.529,391.099,540.525,391.099,540.521,391.1L540.521,391.1z M540.161,387.56
				c-0.08,0.008-0.138,0.08-0.13,0.16c0.008,0.08,0.08,0.138,0.16,0.13s0.138-0.08,0.13-0.16
				C540.313,387.61,540.242,387.552,540.161,387.56z M534.102,389.18c-0.061-0.049-0.15-0.04-0.2,0.02
				c-0.05,0.064-0.041,0.156,0.02,0.21c0.065,0.049,0.156,0.04,0.21-0.02c0.05-0.064,0.038-0.157-0.026-0.207
				C534.104,389.182,534.103,389.181,534.102,389.18L534.102,389.18z M536.352,386.42c-0.064-0.052-0.158-0.043-0.21,0.02
				c-0.052,0.064-0.043,0.158,0.02,0.21c0.064,0.052,0.158,0.043,0.21-0.02l0,0C536.421,386.565,536.412,386.474,536.352,386.42
				L536.352,386.42z M556.692,387.06c-0.076-0.023-0.155,0.019-0.179,0.095c-0.001,0.002-0.001,0.003-0.001,0.005
				c-0.021,0.08,0.022,0.162,0.1,0.19c0.077,0.019,0.156-0.025,0.18-0.1C556.813,387.17,556.769,387.088,556.692,387.06
				L556.692,387.06z M553.282,386.05c-0.071-0.026-0.149,0.011-0.175,0.081c-0.002,0.006-0.004,0.012-0.005,0.019
				c-0.024,0.073,0.015,0.152,0.089,0.177c0.004,0.001,0.008,0.002,0.011,0.003c0.077,0.021,0.157-0.023,0.18-0.1
				c0.023-0.076-0.02-0.156-0.095-0.178C553.285,386.051,553.283,386.05,553.282,386.05L553.282,386.05z M549.872,385.03
				c-0.076-0.023-0.156,0.02-0.179,0.095c0,0.002-0.001,0.003-0.001,0.005c-0.026,0.071,0.011,0.149,0.082,0.175
				c0.006,0.002,0.012,0.004,0.018,0.005c0.073,0.024,0.152-0.015,0.177-0.089c0.001-0.004,0.002-0.007,0.003-0.011
				C549.992,385.133,549.948,385.053,549.872,385.03L549.872,385.03z M546.462,384.01c-0.08-0.021-0.162,0.022-0.19,0.1
				c-0.017,0.079,0.025,0.159,0.1,0.19c0.079,0.019,0.161-0.024,0.19-0.1C546.583,384.12,546.539,384.038,546.462,384.01
				L546.462,384.01z M548.282,397.78c-0.033-0.07-0.117-0.1-0.188-0.067c-0.004,0.002-0.008,0.004-0.012,0.007
				c-0.071,0.036-0.099,0.122-0.064,0.193c0.001,0.002,0.003,0.005,0.004,0.007c0.042,0.067,0.128,0.093,0.2,0.06
				C548.293,397.941,548.319,397.852,548.282,397.78L548.282,397.78z M546.582,394.64c-0.038-0.068-0.124-0.093-0.192-0.055
				c-0.003,0.002-0.006,0.003-0.008,0.005c-0.07,0.04-0.096,0.128-0.06,0.2c0.042,0.067,0.128,0.093,0.2,0.06
				c0.073-0.038,0.102-0.128,0.065-0.201C546.585,394.646,546.583,394.643,546.582,394.64L546.582,394.64z M544.892,391.51
				c-0.042-0.067-0.128-0.093-0.2-0.06c-0.071,0.039-0.098,0.128-0.06,0.2c0.033,0.07,0.117,0.1,0.188,0.067
				c0.004-0.002,0.008-0.004,0.013-0.007c0.071-0.036,0.099-0.122,0.064-0.193C544.894,391.515,544.893,391.512,544.892,391.51
				L544.892,391.51z M543.202,388.38c-0.042-0.067-0.128-0.093-0.2-0.06c-0.071,0.039-0.098,0.128-0.06,0.2
				c0.033,0.07,0.117,0.1,0.188,0.067c0.004-0.002,0.008-0.004,0.013-0.007C543.213,388.541,543.239,388.452,543.202,388.38
				L543.202,388.38z M541.512,385.25c-0.039-0.071-0.128-0.098-0.2-0.06c-0.07,0.033-0.1,0.117-0.067,0.188
				c0.002,0.004,0.004,0.008,0.007,0.012c0.036,0.071,0.122,0.099,0.193,0.064c0.002-0.001,0.005-0.003,0.007-0.004
				C541.519,385.408,541.544,385.322,541.512,385.25L541.512,385.25z M534.652,399.22c-0.071-0.026-0.149,0.011-0.175,0.081
				c-0.002,0.006-0.004,0.012-0.005,0.019c-0.022,0.077,0.023,0.158,0.1,0.18c0.077,0.022,0.158-0.023,0.18-0.1
				C534.774,399.323,534.729,399.242,534.652,399.22z M535.672,395.81c-0.071-0.026-0.149,0.011-0.175,0.081
				c-0.002,0.006-0.004,0.012-0.005,0.019c-0.025,0.074,0.015,0.155,0.089,0.18c0,0,0.001,0,0.001,0
				c0.08,0.024,0.164-0.021,0.19-0.1c0.023-0.076-0.02-0.156-0.095-0.178C535.675,395.811,535.673,395.81,535.672,395.81
				L535.672,395.81z M536.692,392.4c-0.077-0.025-0.161,0.014-0.19,0.09c-0.023,0.081,0.023,0.165,0.104,0.188
				c0.078,0.023,0.161-0.021,0.186-0.098C536.81,392.503,536.767,392.424,536.692,392.4L536.692,392.4z M537.782,389.05v-0.01
				c-0.019-0.028-0.047-0.049-0.08-0.06c-0.077-0.019-0.155,0.025-0.18,0.1c-0.01,0.026-0.01,0.054,0,0.08
				c0.013,0.051,0.05,0.092,0.1,0.11c0.076,0.023,0.155-0.019,0.179-0.095c0.001-0.002,0.001-0.003,0.001-0.005
				C537.82,389.129,537.812,389.082,537.782,389.05L537.782,389.05z M538.722,385.57c-0.076-0.023-0.155,0.019-0.179,0.095
				c-0.001,0.002-0.001,0.003-0.001,0.005c-0.026,0.079,0.018,0.163,0.096,0.189c0.001,0,0.002,0.001,0.004,0.001
				c0.077,0.016,0.153-0.026,0.18-0.1C538.843,385.68,538.799,385.598,538.722,385.57L538.722,385.57z M535.722,387.34
				c-0.061-0.072-0.168-0.081-0.24-0.02c-0.072,0.061-0.081,0.168-0.02,0.24s0.168,0.081,0.24,0.02c0,0,0,0,0,0
				C535.772,387.518,535.781,387.412,535.722,387.34L535.722,387.34z M561.562,382.13c-0.094-0.011-0.179,0.055-0.19,0.149
				c0,0,0,0.001,0,0.001c-0.003,0.093,0.068,0.172,0.16,0.18c0.091,0.008,0.171-0.059,0.18-0.15c0.01-0.088-0.053-0.169-0.141-0.179
				C561.567,382.13,561.564,382.13,561.562,382.13L561.562,382.13z M557.512,381.81c-0.094-0.011-0.179,0.055-0.19,0.149
				c0,0,0,0.001,0,0.001c-0.003,0.093,0.068,0.172,0.16,0.18c0.091,0.008,0.171-0.059,0.18-0.15
				c0.013-0.085-0.045-0.165-0.131-0.178C557.525,381.811,557.518,381.81,557.512,381.81L557.512,381.81z M553.462,381.49
				c-0.094-0.011-0.179,0.055-0.19,0.149c0,0,0,0.001,0,0.001c0.001,0.092,0.069,0.168,0.16,0.18c0.091,0.008,0.171-0.059,0.18-0.15
				c0.013-0.085-0.045-0.165-0.131-0.178C553.474,381.491,553.468,381.49,553.462,381.49L553.462,381.49z M557.952,397.74
				c-0.056-0.069-0.157-0.079-0.226-0.023c-0.001,0.001-0.003,0.002-0.004,0.003c-0.071,0.056-0.084,0.159-0.028,0.23
				c0.003,0.003,0.005,0.007,0.008,0.01c0.056,0.069,0.157,0.079,0.226,0.023c0.001-0.001,0.003-0.002,0.004-0.003
				C558.002,397.918,558.011,397.812,557.952,397.74L557.952,397.74z M555.312,394.65c-0.056-0.069-0.157-0.079-0.226-0.023
				c-0.001,0.001-0.003,0.002-0.004,0.003c-0.072,0.061-0.08,0.169-0.019,0.24c0.061,0.071,0.167,0.08,0.239,0.02
				c0.069-0.059,0.077-0.162,0.018-0.23C555.317,394.656,555.314,394.653,555.312,394.65L555.312,394.65z M552.682,391.56
				c-0.061-0.072-0.168-0.081-0.24-0.02c-0.072,0.061-0.081,0.168-0.02,0.24c0,0.01,0.01,0.01,0.02,0.02
				c0.065,0.05,0.155,0.05,0.22,0C552.732,391.738,552.741,391.632,552.682,391.56L552.682,391.56z M550.042,388.47l-0.04-0.04
				c-0.01,0-0.02-0.01-0.04-0.01c-0.055-0.021-0.116-0.009-0.16,0.03c-0.072,0.061-0.081,0.168-0.02,0.24
				c0.061,0.072,0.168,0.081,0.24,0.02C550.094,388.649,550.103,388.542,550.042,388.47L550.042,388.47z M547.402,385.38
				c-0.061-0.071-0.168-0.079-0.24-0.02c-0.069,0.058-0.077,0.161-0.019,0.23c0.003,0.003,0.006,0.007,0.009,0.01
				c0.055,0.069,0.156,0.08,0.225,0.024c0.002-0.001,0.003-0.003,0.005-0.004C547.452,385.558,547.461,385.452,547.402,385.38
				L547.402,385.38z M541.572,402.96c-0.092,0.001-0.168,0.069-0.18,0.16c-0.008,0.091,0.059,0.171,0.15,0.18
				c0.085,0.013,0.165-0.045,0.178-0.131c0.001-0.006,0.002-0.013,0.002-0.019C541.733,403.056,541.666,402.971,541.572,402.96
				C541.572,402.96,541.572,402.96,541.572,402.96L541.572,402.96z M541.892,398.91c-0.092,0.001-0.168,0.069-0.18,0.16
				c-0.008,0.091,0.059,0.171,0.15,0.18c0.094,0.011,0.179-0.055,0.19-0.149c0,0,0-0.001,0-0.001
				C542.055,399.005,541.986,398.923,541.892,398.91L541.892,398.91z M542.212,394.86c-0.092,0.001-0.168,0.069-0.18,0.16
				c-0.008,0.091,0.059,0.171,0.15,0.18c0.086,0.012,0.166-0.048,0.178-0.134c0.001-0.009,0.002-0.017,0.002-0.026
				C542.369,394.949,542.302,394.869,542.212,394.86L542.212,394.86z M542.532,390.81c-0.093-0.003-0.172,0.067-0.18,0.16
				c-0.008,0.091,0.059,0.171,0.15,0.18c0.086,0.012,0.166-0.048,0.178-0.134c0.001-0.009,0.002-0.017,0.002-0.026
				C542.689,390.899,542.622,390.819,542.532,390.81L542.532,390.81z M542.852,386.76c-0.094-0.006-0.175,0.066-0.181,0.16
				c-0.005,0.09,0.061,0.169,0.151,0.18c0.086,0.012,0.166-0.048,0.178-0.134c0.001-0.009,0.002-0.017,0.002-0.026
				C543.009,386.849,542.942,386.769,542.852,386.76L542.852,386.76z M561.422,389.71c-0.081-0.045-0.183-0.016-0.227,0.065
				c-0.001,0.002-0.002,0.003-0.003,0.005c-0.039,0.083-0.009,0.183,0.07,0.23c0.083,0.042,0.184,0.01,0.226-0.073
				c0.001-0.002,0.002-0.005,0.004-0.007C561.532,389.85,561.501,389.752,561.422,389.71L561.422,389.71z M557.802,387.86
				c-0.083-0.042-0.185-0.011-0.23,0.07c-0.042,0.083-0.01,0.184,0.072,0.226c0.003,0.001,0.005,0.003,0.008,0.004
				c0.08,0.041,0.178,0.01,0.22-0.07C557.914,388.007,557.883,387.905,557.802,387.86L557.802,387.86z M554.182,386.01
				c-0.086-0.037-0.186-0.002-0.23,0.08c-0.04,0.079-0.009,0.175,0.07,0.215c0.003,0.002,0.007,0.003,0.01,0.005
				c0.075,0.043,0.17,0.018,0.213-0.057c0.002-0.004,0.005-0.009,0.007-0.013C554.291,386.157,554.26,386.057,554.182,386.01
				L554.182,386.01z M550.562,384.17c-0.083-0.041-0.184-0.01-0.23,0.07c-0.042,0.083-0.01,0.184,0.072,0.226
				c0.003,0.001,0.005,0.003,0.008,0.004c0.08,0.041,0.178,0.01,0.22-0.07C550.674,384.317,550.643,384.215,550.562,384.17
				L550.562,384.17z M546.942,382.32c-0.086-0.041-0.188-0.005-0.23,0.08c-0.04,0.079-0.009,0.175,0.07,0.215
				c0.003,0.002,0.007,0.003,0.01,0.005c0.075,0.043,0.17,0.018,0.213-0.057c0.002-0.004,0.005-0.009,0.007-0.013
				C547.051,382.467,547.02,382.367,546.942,382.32L546.942,382.32z M549.762,400c-0.026-0.087-0.117-0.137-0.204-0.112
				c-0.002,0.001-0.004,0.001-0.006,0.002h-0.01c-0.083,0.033-0.126,0.125-0.1,0.21c0.026,0.087,0.117,0.137,0.204,0.112
				c0.002-0.001,0.004-0.001,0.006-0.002c0.022-0.01,0.042-0.023,0.06-0.04C549.763,400.13,549.783,400.061,549.762,400L549.762,400
				z M548.292,396.02c-0.087,0.035-0.135,0.129-0.11,0.22c0.036,0.085,0.132,0.129,0.22,0.1c0.085-0.03,0.13-0.123,0.101-0.208
				c0-0.001-0.001-0.001-0.001-0.002C548.474,396.042,548.38,395.993,548.292,396.02L548.292,396.02z M547.042,392.16
				c-0.088,0.028-0.138,0.122-0.11,0.21c0.028,0.088,0.122,0.138,0.21,0.11c0.088-0.028,0.138-0.122,0.11-0.21
				c-0.026-0.087-0.117-0.137-0.205-0.112C547.045,392.159,547.043,392.159,547.042,392.16L547.042,392.16z M545.782,388.3
				c-0.085,0.03-0.13,0.123-0.101,0.208c0,0.001,0,0.001,0.001,0.002c0.024,0.083,0.111,0.13,0.194,0.106
				c0.005-0.002,0.011-0.004,0.016-0.006c0.088-0.028,0.137-0.122,0.11-0.21c-0.033-0.088-0.131-0.133-0.219-0.1
				C545.782,388.3,545.782,388.3,545.782,388.3L545.782,388.3z M544.742,384.54c-0.028-0.088-0.122-0.138-0.21-0.11
				c-0.088,0.028-0.138,0.122-0.11,0.21c0.028,0.088,0.122,0.138,0.21,0.11c0.022-0.01,0.042-0.023,0.06-0.04
				c0.008-0.045,0.028-0.087,0.06-0.12C544.752,384.573,544.749,384.556,544.742,384.54L544.742,384.54z M534.162,398.8
				c-0.079-0.04-0.175-0.009-0.215,0.07c-0.002,0.003-0.003,0.007-0.005,0.01c-0.041,0.08-0.01,0.178,0.07,0.22
				c0.081,0.045,0.182,0.016,0.227-0.065c0.001-0.002,0.002-0.003,0.003-0.005C534.282,398.944,534.246,398.842,534.162,398.8
				L534.162,398.8z M536.012,395.18c-0.086-0.041-0.188-0.005-0.23,0.08c-0.04,0.079-0.009,0.175,0.07,0.215
				c0.003,0.002,0.007,0.003,0.01,0.005c0.075,0.043,0.17,0.018,0.213-0.057c0.002-0.004,0.005-0.008,0.007-0.013
				C536.126,395.327,536.095,395.224,536.012,395.18C536.012,395.18,536.012,395.18,536.012,395.18L536.012,395.18z M537.862,391.56
				c-0.082-0.043-0.184-0.01-0.226,0.072c-0.001,0.003-0.003,0.005-0.004,0.008c-0.041,0.083-0.007,0.184,0.076,0.225
				c0.083,0.041,0.182,0.007,0.224-0.075C537.971,391.707,537.94,391.607,537.862,391.56L537.862,391.56z M539.702,387.94
				c-0.079-0.04-0.175-0.009-0.215,0.07c-0.002,0.003-0.003,0.007-0.005,0.01c-0.043,0.075-0.018,0.17,0.057,0.213
				c0.004,0.002,0.009,0.005,0.013,0.007c0.083,0.044,0.185,0.013,0.23-0.069c0,0,0,0,0-0.001
				C539.817,388.084,539.782,387.985,539.702,387.94L539.702,387.94z M541.552,384.32c-0.086-0.039-0.187-0.004-0.23,0.08
				c-0.04,0.083-0.005,0.184,0.079,0.224c0.082,0.039,0.18,0.007,0.221-0.074C541.661,384.467,541.63,384.367,541.552,384.32
				L541.552,384.32z M562.502,387.29c-0.141-0.072-0.314-0.019-0.39,0.12c-0.074,0.143-0.018,0.318,0.125,0.392
				c0.138,0.071,0.307,0.022,0.385-0.112C562.694,387.546,562.641,387.37,562.502,387.29L562.502,387.29z M556.362,384
				c-0.141-0.072-0.314-0.019-0.39,0.12c-0.076,0.14-0.023,0.315,0.117,0.391c0.14,0.076,0.315,0.023,0.391-0.117
				c0.001-0.001,0.001-0.002,0.002-0.004C556.552,384.249,556.499,384.077,556.362,384L556.362,384z M550.222,380.71
				c-0.143-0.074-0.318-0.018-0.392,0.125c-0.071,0.138-0.022,0.307,0.112,0.385c0.088,0.047,0.195,0.043,0.28-0.01
				c0.048-0.023,0.087-0.062,0.11-0.11c0.018-0.03,0.028-0.065,0.03-0.1C550.387,380.883,550.329,380.763,550.222,380.71
				L550.222,380.71z M558.012,415.73c-0.153,0.046-0.242,0.206-0.2,0.36c0.047,0.151,0.208,0.236,0.36,0.19
				c0.152-0.047,0.24-0.206,0.2-0.36C558.324,415.768,558.163,415.684,558.012,415.73L558.012,415.73z M555.992,409.06
				c-0.152,0.047-0.237,0.208-0.19,0.36s0.208,0.237,0.36,0.19c0.152-0.047,0.237-0.208,0.19-0.36c0,0,0,0,0,0
				C556.304,409.098,556.143,409.014,555.992,409.06L555.992,409.06z M553.982,402.39c-0.153,0.041-0.244,0.198-0.203,0.351
				c0.041,0.153,0.198,0.244,0.351,0.203c0.004-0.001,0.008-0.002,0.012-0.004c0.153-0.046,0.242-0.206,0.2-0.36
				C554.294,402.428,554.133,402.344,553.982,402.39L553.982,402.39z M551.962,395.72c-0.151,0.045-0.237,0.203-0.192,0.354
				c0.001,0.002,0.001,0.004,0.002,0.006c0.047,0.152,0.208,0.237,0.36,0.19c0.152-0.047,0.237-0.208,0.19-0.36
				c-0.045-0.151-0.204-0.237-0.354-0.192C551.965,395.719,551.963,395.719,551.962,395.72L551.962,395.72z M549.952,389.05
				c-0.151,0.046-0.237,0.206-0.191,0.357c0.045,0.149,0.201,0.234,0.351,0.193c0.153-0.046,0.242-0.206,0.2-0.36
				C550.264,389.088,550.103,389.004,549.952,389.05L549.952,389.05z M547.932,382.38c-0.149,0.042-0.236,0.197-0.194,0.346
				c0.001,0.005,0.003,0.009,0.004,0.014c0.049,0.151,0.211,0.234,0.363,0.185c0.148-0.048,0.231-0.206,0.187-0.355
				c-0.042-0.149-0.197-0.236-0.346-0.194C547.941,382.377,547.936,382.378,547.932,382.38L547.932,382.38z M529.042,412.84
				c-0.143-0.074-0.318-0.018-0.392,0.125c-0.071,0.138-0.022,0.307,0.112,0.385c0.144,0.072,0.32,0.02,0.4-0.12
				C529.232,413.089,529.179,412.917,529.042,412.84L529.042,412.84z M532.332,406.7c-0.141-0.075-0.315-0.021-0.39,0.12
				c-0.075,0.141-0.021,0.315,0.12,0.39l0,0c0.141,0.075,0.315,0.021,0.39-0.12C532.526,406.949,532.472,406.774,532.332,406.7
				L532.332,406.7z M535.622,400.56c-0.135-0.078-0.308-0.032-0.386,0.103c-0.001,0.002-0.003,0.004-0.004,0.007
				c-0.072,0.144-0.02,0.32,0.12,0.4c0.141,0.072,0.314,0.019,0.39-0.12c0.076-0.137,0.026-0.31-0.112-0.385
				C535.627,400.563,535.624,400.561,535.622,400.56L535.622,400.56z M538.911,394.42c-0.135-0.078-0.308-0.032-0.386,0.103
				c-0.001,0.002-0.002,0.004-0.004,0.007c-0.071,0.144-0.018,0.319,0.12,0.4c0.141,0.072,0.314,0.019,0.39-0.12
				c0.077-0.131,0.034-0.301-0.098-0.378C538.927,394.428,538.919,394.424,538.911,394.42L538.911,394.42z M542.211,388.27
				c-0.141-0.072-0.314-0.019-0.39,0.12c-0.074,0.143-0.018,0.318,0.125,0.392c0.138,0.071,0.307,0.022,0.385-0.112
				C542.404,388.526,542.351,388.35,542.211,388.27L542.211,388.27z M561.121,380.35c-0.159-0.013-0.3,0.102-0.32,0.26
				c-0.015,0.156,0.099,0.294,0.254,0.31c0.002,0,0.004,0,0.006,0c0.151,0.019,0.289-0.087,0.309-0.238
				c0.001-0.004,0.001-0.008,0.001-0.012c0.021-0.155-0.088-0.298-0.244-0.319C561.126,380.35,561.124,380.35,561.121,380.35
				L561.121,380.35z M554.181,379.66c-0.155-0.016-0.294,0.097-0.309,0.252c0,0.003,0,0.005-0.001,0.008
				c-0.019,0.151,0.087,0.289,0.239,0.309c0.004,0,0.008,0.001,0.011,0.001c0.157,0.019,0.299-0.092,0.319-0.248
				c0-0.004,0.001-0.008,0.001-0.012c0.016-0.155-0.097-0.293-0.252-0.309C554.187,379.66,554.184,379.66,554.181,379.66
				L554.181,379.66z M560.881,395.35c-0.102-0.124-0.286-0.142-0.41-0.04c-0.124,0.102-0.142,0.286-0.04,0.41
				c0.102,0.124,0.286,0.142,0.41,0.04C560.963,395.656,560.981,395.475,560.881,395.35L560.881,395.35z M556.471,389.96
				c-0.1-0.124-0.281-0.144-0.405-0.044c-0.002,0.001-0.003,0.002-0.005,0.004c-0.122,0.104-0.139,0.285-0.04,0.41
				c0.106,0.121,0.29,0.134,0.411,0.029C556.549,390.257,556.567,390.082,556.471,389.96L556.471,389.96z M552.052,384.57
				l-0.02-0.02c-0.102-0.106-0.268-0.114-0.38-0.02c-0.01,0.01-0.01,0.01-0.01,0.02c-0.115,0.094-0.133,0.264-0.04,0.38
				c0.1,0.124,0.282,0.143,0.406,0.043c0.001-0.001,0.002-0.002,0.004-0.003c0.121-0.093,0.143-0.267,0.05-0.388
				C552.058,384.578,552.055,384.574,552.052,384.57L552.052,384.57z M544.052,413.95c-0.156-0.015-0.294,0.099-0.31,0.254
				c0,0.002,0,0.004,0,0.006c-0.017,0.157,0.094,0.299,0.25,0.32c0.158,0.009,0.296-0.104,0.32-0.26
				C544.328,414.11,544.212,413.967,544.052,413.95C544.052,413.95,544.052,413.95,544.052,413.95L544.052,413.95z M544.742,407.02
				c-0.152-0.019-0.29,0.09-0.308,0.241c-0.001,0.006-0.001,0.012-0.002,0.019c-0.017,0.155,0.095,0.293,0.25,0.31c0,0,0,0,0,0
				c0.16,0.017,0.303-0.099,0.32-0.259c0,0,0,0,0-0.001c0.018-0.152-0.09-0.29-0.242-0.308
				C544.754,407.021,544.748,407.02,544.742,407.02L544.742,407.02z M545.432,400.08c-0.16-0.011-0.299,0.111-0.31,0.271
				c-0.01,0.156,0.104,0.293,0.26,0.309c0.156,0.015,0.294-0.099,0.31-0.254c0-0.002,0-0.004,0-0.006
				C545.708,400.24,545.592,400.096,545.432,400.08C545.432,400.08,545.431,400.08,545.432,400.08L545.432,400.08z M546.122,393.15
				c-0.157-0.013-0.295,0.103-0.31,0.26c-0.014,0.158,0.103,0.297,0.261,0.31c0.154,0.013,0.29-0.097,0.309-0.25
				C546.398,393.31,546.282,393.167,546.122,393.15C546.122,393.15,546.121,393.15,546.122,393.15L546.122,393.15z M546.822,386.22
				c-0.155-0.021-0.298,0.088-0.319,0.243c0,0.002-0.001,0.004-0.001,0.007c-0.013,0.159,0.102,0.3,0.26,0.32
				c0.157,0.019,0.3-0.093,0.319-0.25s-0.093-0.3-0.25-0.319C546.827,386.22,546.824,386.22,546.822,386.22z M536.822,388.41
				c-0.102-0.124-0.286-0.142-0.41-0.04c-0.124,0.102-0.142,0.286-0.04,0.41c0.1,0.121,0.278,0.139,0.4,0.04
				c0.127-0.098,0.15-0.281,0.051-0.408C536.822,388.411,536.822,388.411,536.822,388.41L536.822,388.41z M542.212,384
				c-0.097-0.127-0.278-0.151-0.405-0.054c-0.002,0.001-0.004,0.003-0.005,0.004c-0.124,0.102-0.142,0.286-0.04,0.41
				s0.286,0.142,0.41,0.04C542.292,384.3,542.31,384.122,542.212,384L542.212,384z M561.112,378.09
				c-0.155-0.01-0.29,0.108-0.3,0.263c0,0.002,0,0.004,0,0.007c-0.013,0.152,0.1,0.286,0.252,0.299
				c0.006,0.001,0.012,0.001,0.018,0.001c0.155,0.01,0.29-0.108,0.3-0.263c0-0.002,0-0.005,0-0.007
				C561.388,378.233,561.268,378.1,561.112,378.09L561.112,378.09z M562.462,390.54c-0.099-0.116-0.273-0.129-0.388-0.031
				c-0.004,0.003-0.008,0.007-0.012,0.011c-0.118,0.107-0.131,0.287-0.03,0.41c0.111,0.111,0.288,0.119,0.41,0.02
				c0.119-0.105,0.129-0.287,0.024-0.405C562.464,390.543,562.463,390.541,562.462,390.54L562.462,390.54z M557.842,385.36
				c-0.098-0.116-0.272-0.13-0.388-0.031c-0.004,0.004-0.008,0.007-0.012,0.011c-0.118,0.103-0.131,0.281-0.03,0.4
				c0.107,0.118,0.287,0.131,0.41,0.03c0.119-0.105,0.129-0.287,0.024-0.405C557.844,385.363,557.843,385.361,557.842,385.36
				L557.842,385.36z M553.232,380.18c-0.105-0.119-0.287-0.129-0.405-0.024c-0.002,0.001-0.003,0.003-0.005,0.004
				c-0.116,0.098-0.13,0.272-0.031,0.388c0.004,0.004,0.007,0.008,0.011,0.012c0.102,0.118,0.281,0.132,0.4,0.03
				C553.32,380.483,553.333,380.303,553.232,380.18L553.232,380.18z M548.532,415.6c-0.16-0.011-0.299,0.11-0.31,0.27
				c-0.011,0.16,0.11,0.299,0.27,0.309c0.16,0.011,0.298-0.11,0.309-0.27C548.812,415.75,548.692,415.611,548.532,415.6
				L548.532,415.6L548.532,415.6z M548.932,408.67c-0.161-0.003-0.296,0.12-0.31,0.28c-0.003,0.156,0.115,0.287,0.27,0.3
				c0.16,0.011,0.299-0.11,0.31-0.27C549.208,408.821,549.09,408.685,548.932,408.67L548.932,408.67z M549.322,401.75
				c-0.157-0.009-0.292,0.112-0.301,0.269s0.112,0.292,0.269,0.301c0.001,0,0.001,0,0.002,0c0.16,0.011,0.299-0.11,0.31-0.27
				C549.603,401.891,549.48,401.759,549.322,401.75L549.322,401.75z M549.722,394.82c-0.155-0.01-0.29,0.108-0.3,0.263
				c0,0.002,0,0.005,0,0.007c-0.007,0.157,0.113,0.29,0.27,0.3c0.152,0.013,0.286-0.1,0.299-0.252
				c0.001-0.006,0.001-0.012,0.001-0.018c0.01-0.155-0.108-0.289-0.263-0.299C549.726,394.82,549.724,394.82,549.722,394.82
				L549.722,394.82z M550.122,387.89c-0.155-0.01-0.29,0.108-0.3,0.263c0,0.002,0,0.005,0,0.007c-0.009,0.107,0.046,0.209,0.14,0.26
				c0.02,0,0.03,0.01,0.04,0.01c0.026,0.019,0.058,0.029,0.09,0.03c0.157,0.009,0.292-0.112,0.301-0.269
				c0.009-0.157-0.112-0.292-0.269-0.301C550.123,387.89,550.122,387.89,550.122,387.89L550.122,387.89z M550.522,380.96
				c-0.056-0.002-0.112,0.012-0.16,0.04c-0.079,0.042-0.132,0.121-0.14,0.21v0.02c-0.01,0.155,0.108,0.29,0.263,0.3
				c0.002,0,0.005,0,0.007,0c0.07,0.003,0.138-0.022,0.19-0.07c0.02-0.01,0.04-0.02,0.04-0.04c0.043-0.042,0.068-0.1,0.07-0.16
				c0.01-0.156-0.108-0.289-0.264-0.299C550.526,380.96,550.524,380.96,550.522,380.96L550.522,380.96z M532.782,393.75
				c-0.099-0.116-0.273-0.129-0.388-0.031c-0.004,0.003-0.008,0.007-0.012,0.011c-0.118,0.103-0.131,0.281-0.03,0.4
				c0.107,0.118,0.287,0.131,0.41,0.03c0.118-0.105,0.129-0.287,0.024-0.405C532.784,393.753,532.783,393.751,532.782,393.75
				L532.782,393.75z M537.962,389.13c-0.045-0.052-0.111-0.081-0.18-0.08v-0.01c-0.08-0.008-0.159,0.018-0.22,0.07
				c-0.018,0.012-0.032,0.029-0.04,0.05c-0.096,0.124-0.074,0.302,0.05,0.398c0.111,0.086,0.268,0.078,0.37-0.018
				c0.01-0.01,0.02-0.02,0.02-0.03c0.04-0.036,0.066-0.086,0.07-0.14C538.048,389.283,538.022,389.194,537.962,389.13
				L537.962,389.13z M543.152,384.52c-0.107-0.118-0.287-0.131-0.41-0.03c-0.053,0.049-0.085,0.117-0.09,0.19
				c-0.009,0.048-0.002,0.097,0.02,0.14c0.011,0.03,0.028,0.057,0.05,0.08c0.098,0.116,0.272,0.13,0.388,0.031
				c0.004-0.004,0.008-0.007,0.012-0.011C543.24,384.817,543.253,384.639,543.152,384.52L543.152,384.52z M557.112,380.01
				c-0.143-0.07-0.316-0.011-0.386,0.132c-0.001,0.003-0.003,0.006-0.004,0.009c-0.068,0.139-0.01,0.307,0.129,0.375
				c0.004,0.002,0.008,0.004,0.011,0.005c0.141,0.069,0.311,0.011,0.38-0.13C557.312,380.256,557.254,380.083,557.112,380.01
				L557.112,380.01z M559.922,403.36c-0.151,0.054-0.231,0.218-0.18,0.37c0.056,0.149,0.221,0.225,0.37,0.17
				c0.149-0.049,0.23-0.209,0.181-0.358c0-0.001,0-0.002-0.001-0.002C560.236,403.391,560.073,403.312,559.922,403.36
				L559.922,403.36z M557.642,396.8c-0.149,0.056-0.228,0.218-0.18,0.37c0.051,0.15,0.214,0.23,0.363,0.179
				c0.15-0.051,0.23-0.214,0.179-0.363c-0.001-0.002-0.001-0.004-0.002-0.005c-0.049-0.149-0.209-0.229-0.358-0.181
				C557.643,396.799,557.642,396.8,557.642,396.8L557.642,396.8z M555.352,390.25c-0.151,0.054-0.231,0.218-0.18,0.37
				c0.057,0.15,0.226,0.225,0.376,0.168c0.143-0.055,0.219-0.211,0.174-0.358C555.668,390.279,555.503,390.199,555.352,390.25
				L555.352,390.25z M553.072,383.7c-0.149,0.049-0.23,0.209-0.181,0.358c0,0.001,0,0.001,0.001,0.002
				c0.047,0.154,0.21,0.24,0.364,0.192c0.154-0.047,0.24-0.21,0.192-0.364c-0.047-0.154-0.21-0.24-0.364-0.192
				C553.08,383.697,553.076,383.698,553.072,383.7z M535.892,408.62c-0.139-0.068-0.307-0.01-0.375,0.129
				c-0.002,0.004-0.004,0.008-0.005,0.011c-0.069,0.141-0.011,0.311,0.13,0.38c0.144,0.07,0.317,0.013,0.39-0.13
				c0.07-0.143,0.011-0.316-0.132-0.386C535.897,408.623,535.894,408.621,535.892,408.62L535.892,408.62z M538.912,402.37
				c-0.139-0.068-0.307-0.01-0.375,0.129c-0.002,0.004-0.004,0.008-0.005,0.011c-0.069,0.141-0.011,0.311,0.13,0.38
				c0.144,0.07,0.317,0.013,0.39-0.13c0.07-0.143,0.011-0.316-0.132-0.386C538.917,402.373,538.914,402.371,538.912,402.37
				L538.912,402.37z M541.932,396.12c-0.144-0.065-0.313-0.003-0.38,0.14c-0.069,0.141-0.011,0.311,0.13,0.38
				c0.144,0.07,0.317,0.013,0.39-0.13c0.07-0.143,0.011-0.316-0.132-0.386C541.937,396.123,541.934,396.121,541.932,396.12
				L541.932,396.12z M544.952,389.87c-0.144-0.06-0.309,0.001-0.38,0.14c-0.069,0.141-0.011,0.311,0.13,0.38
				c0.144,0.069,0.316,0.011,0.39-0.13c0.069-0.145,0.008-0.319-0.137-0.388C544.953,389.871,544.952,389.87,544.952,389.87
				L544.952,389.87z M547.972,383.63c-0.14-0.07-0.311-0.013-0.381,0.128s-0.013,0.311,0.128,0.381
				c0.001,0.001,0.002,0.001,0.003,0.002c0.139,0.073,0.311,0.02,0.384-0.118s0.02-0.311-0.118-0.384
				C547.982,383.635,547.977,383.632,547.972,383.63z M534.132,387.8c-0.061-0.105-0.195-0.141-0.3-0.08s-0.141,0.195-0.08,0.3
				s0.195,0.141,0.3,0.08l0,0C534.155,388.038,534.19,387.905,534.132,387.8L534.132,387.8z M538.672,385.21
				c-0.057-0.102-0.186-0.138-0.288-0.081c-0.001,0-0.001,0.001-0.002,0.001c-0.104,0.057-0.142,0.187-0.085,0.291
				c0.002,0.003,0.003,0.006,0.005,0.009c0.062,0.097,0.187,0.132,0.29,0.08c0.104-0.059,0.141-0.191,0.082-0.295
				C538.673,385.213,538.672,385.211,538.672,385.21L538.672,385.21z M561.922,378.11c-0.08,0.011-0.144,0.071-0.16,0.15
				c-0.032,0.111,0.032,0.226,0.143,0.258c0.002,0.001,0.005,0.001,0.007,0.002c0.022,0.008,0.046,0.012,0.07,0.01L561.922,378.11z
				 M561.062,387.5c-0.057-0.102-0.186-0.138-0.288-0.081c-0.001,0-0.002,0.001-0.002,0.001c-0.107,0.057-0.149,0.189-0.092,0.297
				c0.057,0.107,0.189,0.149,0.297,0.092s0.149-0.189,0.092-0.297C561.066,387.508,561.064,387.504,561.062,387.5z M558.472,382.96
				c-0.051-0.104-0.176-0.146-0.28-0.095c-0.003,0.002-0.007,0.003-0.01,0.005c-0.104,0.059-0.141,0.191-0.083,0.295
				c0.001,0.002,0.002,0.003,0.003,0.005c0.057,0.102,0.186,0.138,0.288,0.081c0.001,0,0.001-0.001,0.002-0.001
				c0.101-0.053,0.139-0.177,0.087-0.278C558.476,382.968,558.474,382.964,558.472,382.96L558.472,382.96z M546.862,403.8
				c-0.108-0.037-0.227,0.02-0.264,0.129c-0.002,0.007-0.004,0.014-0.006,0.021c-0.032,0.115,0.035,0.235,0.151,0.267
				s0.235-0.035,0.268-0.151C547.042,403.952,546.976,403.833,546.862,403.8z M548.242,398.75c-0.113-0.035-0.233,0.029-0.268,0.142
				c-0.001,0.003-0.001,0.005-0.002,0.008c-0.033,0.116,0.034,0.237,0.15,0.27c0.116,0.033,0.237-0.034,0.27-0.15
				S548.358,398.783,548.242,398.75z M549.622,393.7c-0.116-0.033-0.237,0.034-0.27,0.15c-0.033,0.116,0.034,0.237,0.15,0.27
				s0.237-0.034,0.27-0.15C549.802,393.854,549.736,393.735,549.622,393.7L549.622,393.7z M551.002,388.65
				c-0.118-0.029-0.238,0.042-0.27,0.16c-0.028,0.115,0.043,0.231,0.158,0.26c0.001,0,0.001,0,0.002,0
				c0.111,0.032,0.226-0.032,0.258-0.143c0.001-0.002,0.001-0.005,0.002-0.007c0.034-0.113-0.03-0.233-0.143-0.268
				C551.006,388.651,551.004,388.651,551.002,388.65L551.002,388.65z M552.382,383.61c-0.113-0.03-0.23,0.037-0.26,0.15
				c-0.03,0.113,0.037,0.23,0.15,0.26c0.113,0.03,0.23-0.037,0.26-0.15c0.032-0.111-0.033-0.226-0.143-0.258
				C552.386,383.611,552.384,383.611,552.382,383.61L552.382,383.61z M562.432,382.27c-0.031,0.07-0.019,0.151,0.03,0.21
				C562.457,382.409,562.446,382.339,562.432,382.27L562.432,382.27z M558.622,378.98c-0.085-0.073-0.213-0.063-0.286,0.021
				c-0.005,0.006-0.01,0.012-0.014,0.019c-0.072,0.094-0.054,0.228,0.04,0.3c0.094,0.072,0.228,0.054,0.3-0.04l0,0
				c0.073-0.085,0.063-0.213-0.022-0.286C558.634,378.989,558.628,378.984,558.622,378.98L558.622,378.98z M557.692,401.83
				c-0.118,0.013-0.203,0.12-0.19,0.238c0,0.001,0,0.001,0,0.002c0.019,0.116,0.123,0.198,0.24,0.19
				c0.118-0.015,0.202-0.122,0.19-0.24c-0.009-0.115-0.11-0.201-0.225-0.192C557.702,401.829,557.697,401.829,557.692,401.83
				L557.692,401.83z M557.032,396.64c-0.114,0.014-0.195,0.118-0.181,0.232c0,0.003,0.001,0.005,0.001,0.008
				c0.013,0.118,0.12,0.203,0.238,0.19c0.001,0,0.001,0,0.002,0c0.119-0.021,0.202-0.13,0.19-0.25
				c-0.018-0.118-0.129-0.199-0.247-0.18C557.034,396.64,557.033,396.64,557.032,396.64L557.032,396.64z M556.382,391.44
				c-0.119,0.021-0.202,0.13-0.19,0.25c0.013,0.113,0.116,0.195,0.229,0.182c0.004,0,0.007-0.001,0.011-0.002
				c0.115-0.009,0.201-0.11,0.192-0.225c0-0.005-0.001-0.01-0.002-0.015c-0.013-0.118-0.12-0.203-0.238-0.19
				C556.383,391.44,556.382,391.44,556.382,391.44L556.382,391.44z M555.722,386.25c-0.116,0.016-0.196,0.123-0.18,0.239
				c0,0,0,0.001,0,0.001c0.009,0.115,0.109,0.201,0.224,0.192c0.005,0,0.01-0.001,0.016-0.002c0.118-0.013,0.203-0.12,0.19-0.238
				c0-0.001,0-0.001,0-0.002C555.951,386.321,555.842,386.238,555.722,386.25L555.722,386.25z M555.242,381.12
				c-0.044-0.046-0.107-0.068-0.17-0.06c-0.117,0.012-0.203,0.117-0.191,0.235c0,0.002,0,0.003,0.001,0.005
				c0.009,0.115,0.11,0.201,0.224,0.192c0.005,0,0.01-0.001,0.016-0.002c0.024-0.002,0.048-0.009,0.07-0.02h0.01
				c0.082-0.04,0.128-0.13,0.11-0.22C555.303,381.2,555.278,381.155,555.242,381.12L555.242,381.12z M538.492,396.75
				c-0.088-0.075-0.22-0.064-0.295,0.024c-0.002,0.002-0.003,0.004-0.005,0.006c-0.075,0.09-0.064,0.224,0.027,0.3
				c0.004,0.004,0.009,0.007,0.013,0.01c0.093,0.073,0.228,0.056,0.3-0.037c0.073-0.093,0.056-0.228-0.037-0.3
				C538.494,396.751,538.493,396.751,538.492,396.75L538.492,396.75z M541.702,392.61c-0.098-0.069-0.232-0.051-0.31,0.04
				c-0.071,0.099-0.048,0.238,0.052,0.309c0.094,0.067,0.224,0.05,0.298-0.039C541.81,392.822,541.793,392.687,541.702,392.61
				L541.702,392.61z M544.912,388.48c-0.091-0.075-0.226-0.063-0.301,0.028c-0.003,0.004-0.006,0.008-0.009,0.012
				c-0.069,0.095-0.051,0.227,0.04,0.3c0.096,0.071,0.232,0.051,0.304-0.046C545.013,388.682,544.999,388.554,544.912,388.48z
				 M548.112,384.34c-0.095-0.069-0.227-0.051-0.3,0.04c-0.074,0.097-0.056,0.235,0.04,0.31c0.095,0.069,0.227,0.051,0.3-0.04
				c0.075-0.091,0.062-0.226-0.029-0.301C548.119,384.346,548.115,384.343,548.112,384.34L548.112,384.34z M561.102,377.76
				c-0.043-0.047-0.116-0.05-0.163-0.007c-0.003,0.002-0.005,0.005-0.007,0.007c-0.047,0.04-0.052,0.111-0.012,0.158
				c0.001,0.001,0.001,0.001,0.002,0.002c0.044,0.05,0.12,0.054,0.17,0.01C561.142,377.886,561.146,377.81,561.102,377.76
				L561.102,377.76z M557.542,390.29c-0.066-0.006-0.124,0.043-0.13,0.11c-0.006,0.066,0.043,0.124,0.11,0.13
				c0.003,0,0.007,0,0.01,0c0.066-0.001,0.119-0.054,0.12-0.12C557.652,390.347,557.604,390.295,557.542,390.29L557.542,390.29z
				 M557.642,387.43c-0.064-0.003-0.117,0.047-0.12,0.111c0,0.003,0,0.006,0,0.009c-0.007,0.059,0.035,0.112,0.094,0.119
				c0.005,0.001,0.011,0.001,0.016,0.001c0.063,0.004,0.116-0.044,0.12-0.107c0-0.001,0-0.002,0-0.003
				C557.753,387.495,557.705,387.44,557.642,387.43L557.642,387.43z M557.742,384.58c-0.063-0.004-0.116,0.044-0.12,0.107
				c0,0.001,0,0.002,0,0.003c-0.005,0.066,0.044,0.124,0.11,0.13c0.064,0.002,0.117-0.047,0.12-0.111c0-0.003,0-0.006,0-0.009
				c0.004-0.062-0.044-0.116-0.106-0.12C557.744,384.58,557.743,384.58,557.742,384.58L557.742,384.58z M557.842,381.73
				c-0.056-0.01-0.109,0.028-0.119,0.084c-0.001,0.009-0.002,0.017-0.001,0.026c0,0.063,0.048,0.115,0.11,0.12
				c0.063,0.004,0.116-0.044,0.12-0.107c0-0.001,0-0.002,0-0.003c0.01-0.056-0.028-0.109-0.084-0.119
				C557.859,381.73,557.85,381.729,557.842,381.73L557.842,381.73z M557.942,378.87c-0.066,0.001-0.119,0.054-0.12,0.12
				c0,0.063,0.048,0.115,0.11,0.12c0.068,0,0.125-0.052,0.13-0.12C558.061,378.924,558.007,378.871,557.942,378.87L557.942,378.87z
				 M546.682,385.34c-0.041-0.05-0.115-0.056-0.165-0.015c-0.05,0.041-0.056,0.115-0.015,0.165c0.003,0.004,0.006,0.007,0.01,0.01
				c0.047,0.044,0.121,0.041,0.165-0.006C546.717,385.451,546.719,385.385,546.682,385.34z M548.772,383.39
				c-0.042-0.049-0.115-0.056-0.165-0.014c-0.049,0.042-0.056,0.115-0.014,0.165c0.003,0.003,0.006,0.007,0.009,0.01
				c0.04,0.047,0.111,0.052,0.158,0.012c0.001-0.001,0.001-0.001,0.002-0.002c0.049-0.04,0.057-0.113,0.016-0.163
				C548.776,383.395,548.774,383.392,548.772,383.39L548.772,383.39z M550.862,381.44c-0.035-0.041-0.095-0.049-0.14-0.02
				c-0.01,0.01-0.02,0.01-0.03,0.02c-0.01,0-0.01,0.01-0.01,0.02c-0.032,0.043-0.028,0.102,0.01,0.14
				c0.041,0.047,0.111,0.052,0.158,0.011c0.001,0,0.001-0.001,0.002-0.001c0.049-0.04,0.057-0.113,0.016-0.162
				C550.866,381.445,550.864,381.442,550.862,381.44L550.862,381.44z M562.112,385.15c-0.06,0.023-0.091,0.089-0.07,0.15
				c0.028,0.061,0.097,0.091,0.16,0.07c0.06-0.023,0.091-0.089,0.07-0.15C562.243,385.16,562.175,385.131,562.112,385.15
				L562.112,385.15z M561.112,382.47c-0.06,0.023-0.091,0.089-0.07,0.15c0.02,0.062,0.087,0.095,0.148,0.075
				c0.004-0.001,0.008-0.003,0.012-0.005c0.06-0.023,0.091-0.089,0.07-0.15C561.243,382.48,561.175,382.451,561.112,382.47
				L561.112,382.47z M560.112,379.8c-0.06,0.023-0.091,0.089-0.07,0.15c0.029,0.059,0.097,0.089,0.16,0.07
				c0.06-0.023,0.091-0.089,0.07-0.15c-0.018-0.061-0.082-0.095-0.143-0.077C560.123,379.795,560.117,379.797,560.112,379.8
				L560.112,379.8z M552.272,387.53c-0.057-0.025-0.123,0-0.149,0.057c0,0.001-0.001,0.002-0.001,0.003
				c-0.028,0.061-0.001,0.132,0.059,0.16c0,0,0,0,0.001,0c0.058,0.025,0.125-0.002,0.15-0.06
				C552.359,387.629,552.333,387.558,552.272,387.53C552.272,387.53,552.272,387.53,552.272,387.53L552.272,387.53z M553.462,384.93
				c-0.061-0.028-0.132-0.001-0.16,0.06c-0.028,0.061-0.001,0.132,0.06,0.16l0,0c0.061,0.028,0.132,0.001,0.16-0.06
				C553.549,385.029,553.523,384.957,553.462,384.93z M554.652,382.33c-0.061-0.023-0.129,0.003-0.16,0.06
				c-0.026,0.061,0.002,0.132,0.063,0.159c0.06,0.026,0.129,0,0.157-0.059C554.734,382.429,554.709,382.361,554.652,382.33
				L554.652,382.33z M555.832,379.74c-0.049-0.03-0.112-0.015-0.142,0.034c-0.003,0.005-0.006,0.01-0.008,0.016
				c-0.031,0.057-0.01,0.127,0.047,0.158c0.001,0.001,0.002,0.001,0.003,0.002c0.06,0.028,0.132,0.001,0.16-0.059c0,0,0,0,0-0.001
				c0.027-0.052,0.006-0.117-0.046-0.144C555.841,379.744,555.836,379.742,555.832,379.74L555.832,379.74z M554.872,395.18
				c-0.091-0.044-0.2-0.005-0.244,0.085c-0.002,0.005-0.004,0.01-0.006,0.015c-0.047,0.087-0.014,0.195,0.073,0.242
				c0.006,0.003,0.011,0.006,0.017,0.008c0.097,0.047,0.213,0.007,0.26-0.09c0,0,0,0,0,0c0.046-0.095,0.006-0.209-0.088-0.254
				C554.88,395.183,554.876,395.182,554.872,395.18L554.872,395.18z M556.822,390.86c-0.099-0.043-0.215,0.001-0.26,0.1
				c-0.046,0.095-0.007,0.208,0.088,0.255c0.004,0.002,0.008,0.004,0.012,0.005c0.091,0.044,0.2,0.005,0.244-0.085
				c0.002-0.005,0.004-0.01,0.006-0.015c0.048-0.093,0.012-0.207-0.081-0.255C556.828,390.863,556.825,390.861,556.822,390.86
				L556.822,390.86z M558.762,386.55c-0.099-0.043-0.215,0.001-0.26,0.1c-0.045,0.097-0.003,0.212,0.093,0.257
				c0.002,0.001,0.004,0.002,0.007,0.003c0.1,0.042,0.216-0.005,0.258-0.105C558.901,386.707,558.858,386.595,558.762,386.55
				L558.762,386.55z M560.702,382.24c-0.097-0.045-0.212-0.003-0.257,0.093c-0.001,0.002-0.002,0.004-0.003,0.007
				c-0.04,0.099,0.004,0.213,0.1,0.26c0.099,0.036,0.211-0.006,0.26-0.1C560.845,382.4,560.8,382.285,560.702,382.24L560.702,382.24
				z M548.532,387.65c-0.078-0.074-0.201-0.072-0.275,0.006c-0.07,0.073-0.072,0.188-0.005,0.264
				c0.071,0.08,0.193,0.087,0.273,0.017c0.002-0.002,0.005-0.004,0.007-0.007C548.607,387.851,548.606,387.728,548.532,387.65
				L548.532,387.65z M551.982,384.41c-0.076-0.078-0.199-0.082-0.28-0.01c-0.035,0.034-0.053,0.081-0.05,0.13
				c-0.01,0.01-0.01,0.01-0.01,0.02c0.003,0.047,0.021,0.093,0.05,0.13c0.076,0.078,0.199,0.082,0.28,0.01
				c0.038-0.037,0.06-0.087,0.06-0.14C552.03,384.499,552.013,384.45,551.982,384.41L551.982,384.41z M555.422,381.17
				c-0.076-0.068-0.189-0.072-0.27-0.01c-0.08,0.071-0.087,0.193-0.016,0.273c0.002,0.002,0.004,0.005,0.006,0.007
				c0.013,0.016,0.03,0.026,0.05,0.03h0.01c0.069,0.044,0.16,0.036,0.22-0.02C555.497,381.371,555.496,381.248,555.422,381.17
				L555.422,381.17z M558.872,377.93c-0.075-0.08-0.2-0.085-0.28-0.01s-0.085,0.2-0.01,0.28c0.075,0.08,0.2,0.085,0.28,0.01
				C558.939,378.134,558.944,378.011,558.872,377.93L558.872,377.93z"/>
		</g>
	</g>
</g>
</svg>
