<?xml version="1.0" encoding="iso-8859-1"?>
<!-- Generator: Adobe Illustrator 23.0.2, SVG Export Plug-In . SVG Version: 6.00 Build 0)  -->
<svg version="1.1" id="illustration" xmlns="http://www.w3.org/2000/svg" xmlns:xlink="http://www.w3.org/1999/xlink" x="0px"
	 y="0px" viewBox="0 0 1080 720" style="enable-background:new 0 0 1080 720;" xml:space="preserve">
<title>delete confirmation</title>
<g id="garbage_bin">
	
		<linearGradient id="hand_1_" gradientUnits="userSpaceOnUse" x1="522.8251" y1="366.5274" x2="405.7026" y2="360.1155" gradientTransform="matrix(1 0 0 -1 0 722)">
		<stop  offset="0" style="stop-color:#FFBEB6"/>
		<stop  offset="1" style="stop-color:#F2A19C"/>
	</linearGradient>
	<path id="hand" style="fill:url(#hand_1_);" d="M557.012,372.379c-8.938-1.279-20.625-4.157-23.375-7.674s6.188-5.116,8.25-10.552
		s-1.719-6.076-3.438-4.157c-4.004,4.121-8.376,7.867-13.062,11.192c-5.156,3.517-6.188,4.157-16.5-1.279s-22-16.628-22-16.628
		s-19.765-17.547-21.842-21.412l-20.773,38.003c0,0,18.664,3.986,23.7,4.73c8.898,0.93,26.821,2.661,49.509,17.05
		c22.688,14.39,33.344,10.233,43.312,1.599S565.949,373.658,557.012,372.379z"/>
	<g id="bin">
		
			<linearGradient id="SVGID_1_" gradientUnits="userSpaceOnUse" x1="451.0686" y1="553.6927" x2="463.0351" y2="309.2357" gradientTransform="matrix(0.8572 0.5149 0.5149 -0.8572 -121.1559 595.4662)">
			<stop  offset="0" style="stop-color:#EEEEEE"/>
			<stop  offset="1" style="stop-color:#CFD1D3"/>
		</linearGradient>
		<polygon style="fill:url(#SVGID_1_);" points="478.39,524.463 557.513,378.363 526.588,359.789 453.287,509.387 		"/>
		
			<linearGradient id="SVGID_2_" gradientUnits="userSpaceOnUse" x1="495.7829" y1="598.3102" x2="482.1069" y2="330.775" gradientTransform="matrix(0.8572 0.5149 0.5149 -0.8572 -121.1559 595.4662)">
			<stop  offset="0" style="stop-color:#EEEEEE"/>
			<stop  offset="1" style="stop-color:#CFD1D3"/>
		</linearGradient>
		<polygon style="fill:url(#SVGID_2_);" points="478.39,524.463 503.49,539.537 588.436,396.934 557.513,378.363 		"/>
		
			<linearGradient id="SVGID_3_" gradientUnits="userSpaceOnUse" x1="524.196" y1="549.0397" x2="521.6318" y2="184.9183" gradientTransform="matrix(0.8572 0.5149 0.5149 -0.8572 -121.1559 595.4662)">
			<stop  offset="0" style="stop-color:#EEEEEE"/>
			<stop  offset="1" style="stop-color:#CFD1D3"/>
		</linearGradient>
		<polygon style="fill:url(#SVGID_3_);" points="503.49,539.537 528.593,554.614 619.361,415.508 588.436,396.934 		"/>
		
			<linearGradient id="SVGID_4_" gradientUnits="userSpaceOnUse" x1="561.9404" y1="534.4266" x2="543.136" y2="350.6564" gradientTransform="matrix(0.8572 0.5149 0.5149 -0.8572 -121.1559 595.4662)">
			<stop  offset="0" style="stop-color:#EEEEEE"/>
			<stop  offset="1" style="stop-color:#CFD1D3"/>
		</linearGradient>
		<polygon style="fill:url(#SVGID_4_);" points="528.593,554.614 553.482,569.568 650.444,434.179 619.361,415.508 		"/>
	</g>
	
		<linearGradient id="cover_1_" gradientUnits="userSpaceOnUse" x1="563.733" y1="99.4395" x2="662.8557" y2="99.4395" gradientTransform="matrix(1 0 0 -1 0 722)">
		<stop  offset="0" style="stop-color:#EEEEEE"/>
		<stop  offset="1" style="stop-color:#CFD1D3"/>
	</linearGradient>
	<path id="cover" style="fill:url(#cover_1_);" d="M571.466,618.694h83.657c4.271,0,7.733,3.462,7.733,7.733l0,0l0,0h-99.123l0,0
		l0,0C563.733,622.156,567.195,618.694,571.466,618.694z"/>
</g>
<g id="dog">
	<path id="tail" style="fill:#23286B;" d="M876.627,514.246c0,0-6.884-5.507-35.11,4.475s-42.683-6.54-42.683-6.54
		c-2.393,15.556,6.542,25.555,17.29,30.486c5.813,4.073,12.717,6.301,19.815,6.394c10.86,0.079,23.494-5.285,32.559,3.335
		c0.35,0.333,0.881-0.197,0.53-0.53c-5.959-5.667-14.05-5.572-21.742-4.634c-9.651,1.177-18.429,1.162-26.58-2.788
		c6.49,2.065,13.148,2.412,18.058,1.126c14.457-3.786,33.045,2.065,33.045,2.065C880.758,541.095,876.627,514.246,876.627,514.246z"
		/>
	
		<linearGradient id="front_leg_1_" gradientUnits="userSpaceOnUse" x1="623.5649" y1="324.6602" x2="710.8335" y2="324.6602" gradientTransform="matrix(1 0 0 -1 0 722)">
		<stop  offset="0" style="stop-color:#A1C3FC"/>
		<stop  offset="0.6955" style="stop-color:#81AEF2"/>
		<stop  offset="1" style="stop-color:#78A9EF"/>
	</linearGradient>
	<path id="front_leg" style="fill:url(#front_leg_1_);" d="M703.377,374.36c0.998,10.248-3.642,20.231-12.119,26.076
		c-14.485,10.051-33.699,14.189-45.523,11.824s-16.849-10.346-22.17-2.66c0,0,31.334,21.579,52.322,12.415
		s30.743-13.893,33.403-26.9s2.069-23.353-3.252-24.535S703.377,374.36,703.377,374.36z"/>
	
		<linearGradient id="back_leg_1_" gradientUnits="userSpaceOnUse" x1="753.3354" y1="152.6831" x2="802.0067" y2="152.6831" gradientTransform="matrix(1 0 0 -1 0 722)">
		<stop  offset="0" style="stop-color:#A1C3FC"/>
		<stop  offset="0.6955" style="stop-color:#81AEF2"/>
		<stop  offset="1" style="stop-color:#78A9EF"/>
	</linearGradient>
	<path id="back_leg" style="fill:url(#back_leg_1_);" d="M798.834,512.18c0,0-0.863,23.643-5.592,40.197s5.912,36.655,7.981,50.844
		s-0.616,23.233-0.616,23.233H772.83c0,0-0.403-9.253,10.657-8.453c8.85,0.64,0.296-20.988-4.138-26.9s-20.692-4.138-24.24-26.604
		s0.591-38.429-1.774-42.271L798.834,512.18z"/>
	
		<linearGradient id="bottom_lip_1_" gradientUnits="userSpaceOnUse" x1="680.62" y1="347.6604" x2="698.02" y2="347.6604" gradientTransform="matrix(1 0 0 -1 0 722)">
		<stop  offset="0" style="stop-color:#A1C3FC"/>
		<stop  offset="0.6955" style="stop-color:#81AEF2"/>
		<stop  offset="1" style="stop-color:#78A9EF"/>
	</linearGradient>
	<path id="bottom_lip" style="fill:url(#bottom_lip_1_);" d="M698.02,373.54c-0.32,0.98-1.56,3.33-6.46,3.71
		c-3.831,0.247-7.647-0.677-10.94-2.65l7.66-3.21c2.776,0.84,5.606,1.491,8.47,1.95C697.19,373.41,697.61,373.48,698.02,373.54z"/>
	
		<linearGradient id="tick_1_" gradientUnits="userSpaceOnUse" x1="573.005" y1="393.233" x2="725.535" y2="393.233" gradientTransform="matrix(1 0 0 -1 0 722)">
		<stop  offset="0.1291" style="stop-color:#428DFC"/>
		<stop  offset="0.9987" style="stop-color:#1D72D8"/>
	</linearGradient>
	<polygon id="tick" style="fill:url(#tick_1_);" points="573.005,264.64 616.296,264.64 653.114,344.344 687.504,333.015 
		725.535,356.886 634.098,392.894 	"/>
	<path id="body" style="fill:#A1C3FC;" d="M784.03,553.03c-13.79,16.85-2.05,39.83-3.07,51.57c-0.812,7.613-2.951,15.025-6.32,21.9
		l-35.98-0.05c0,0,2.98-10.61,13.2-9.08c10.21,1.53,11.14-19.37,5.78-24.48c-5.35-5.11-23.36-21.9-21.65-43.8
		c1.7-21.9,11.92-34.32-9.01-51.59c-20.93-17.28-31.15-27.02-39.42-56.46c0,0-20.44,3.41-46.48-12.41s-34.31-20.2-34.31-20.2
		s6.81-8.76,19.22-0.24c12.41,8.51,38.21,17.27,61.08,3.89c0.005,0,0.01-0.004,0.01-0.01c0,0,0,0,0,0
		c22.87-13.39,22.14-36.49,16.3-37.71c-1.24-0.26-3.66-0.53-6.63-1.02c-10.27-1.73-27.02-6.22-23.44-22.77
		c0.16-0.77,0.361-1.531,0.6-2.28l0.6-1.77l0.03,0.01c0.31,0.11,2.6,0.95,5.76,1.85c5.71,1.66,14.27,3.56,18.93,1.85
		c5.355-1.854,11.007-2.701,16.67-2.5c1.809,0.072,3.606,0.313,5.37,0.72c0.01,0,0.02,0.01,0.04,0.01
		c1.757,0.407,3.449,1.053,5.03,1.92c2.196,1.2,4.046,2.946,5.37,5.07c0.12,0.18,0.22,0.37,0.33,0.57c0.2,0.36,0.38,0.74,0.56,1.13
		c2.95,6.5,2.36,11.96,1.15,17.44c-0.013,0.025-0.019,0.052-0.02,0.08c-1.24,5.55-3.11,11.13-2.61,17.83
		c0.99,13.35,7.97,64.02,67.71,119.68C798.83,512.18,797.81,536.18,784.03,553.03z"/>
	
		<linearGradient id="ear_1_" gradientUnits="userSpaceOnUse" x1="662.9405" y1="339.9529" x2="734.798" y2="339.9529" gradientTransform="matrix(1 0 0 -1 0 722)">
		<stop  offset="0" style="stop-color:#23286B"/>
		<stop  offset="1" style="stop-color:#151A4F"/>
	</linearGradient>
	<path id="ear" style="fill:url(#ear_1_);" d="M734.793,367.901c0.017-0.101-0.007-0.204-0.067-0.287
		c0.126-3.607-0.603-7.192-2.126-10.463c-0.18-0.39-0.36-0.77-0.56-1.13c-0.11-0.2-0.21-0.39-0.33-0.57
		c-1.324-2.124-3.174-3.87-5.37-5.07c-1.581-0.867-3.273-1.513-5.03-1.92c-0.02,0-0.03-0.01-0.04-0.01
		c-1.764-0.407-3.561-0.648-5.37-0.72c-0.377,1.618-0.89,3.201-1.534,4.732c-4.103,8.53-12.949,14.978-20.75,19.812
		c-9.094,5.635-20.414,8.527-30.122,2.639c-0.182-0.098-0.41-0.03-0.508,0.152c-0.094,0.174-0.037,0.39,0.13,0.495
		c9.372,5.684,20.412,3.459,29.455-1.783c6.251-3.624,13.083-8.35,18.013-14.225c-3.67,5.452-8.369,10.136-13.833,13.788
		c-7.27,4.96-17.24,9.38-30.89,11.86c0,0,4.45,18.8,21.22,26.87c5.58,2.69,12.52,4.19,21.11,3.42c0,0,13.66-14.348,21.472-30.314
		c-3.927,11.159-9.859,21.506-17.504,30.533c-0.31,0.366,0.218,0.899,0.53,0.53c9.336-11.006,16.125-23.94,19.879-37.876
		c0.441-1.234,0.831-2.467,1.163-3.694c0.001-0.028,0.008-0.055,0.02-0.08c0.466-1.995,0.778-4.022,0.934-6.064
		C734.718,368.317,734.76,368.11,734.793,367.901z"/>
	<path id="eye" style="fill:#1C2868;" d="M700.209,347.1c-1.149,2.179-0.314,4.877,1.865,6.026c0.789,0.416,1.685,0.586,2.571,0.488
		c0.675-0.07,0.692-1.138,0.008-1.067c-1.855,0.277-3.583-1.002-3.86-2.857c-0.104-0.699,0.012-1.414,0.333-2.044
		C701.426,347.033,700.511,346.483,700.209,347.1L700.209,347.1z"/>
	<path id="nose" style="fill:#1C2868;" d="M680.3,348.38c-0.89,2.59-6.02,2.28-6.99,2.19c0.16-0.77,0.361-1.531,0.6-2.28l0.6-1.77
		l0.03,0.01C674.85,346.64,677.14,347.48,680.3,348.38z"/>
	<path id="texture" style="opacity:0.86;fill:#FFFFFF;enable-background:new    ;" d="M724.147,410.297
		c-0.015,0.213,0.146,0.398,0.359,0.412c0.005,0,0.009,0.001,0.014,0.001c0.211,0.013,0.392-0.148,0.405-0.359
		c0-0.001,0-0.002,0-0.003c0.015-0.213-0.146-0.398-0.359-0.412c-0.005,0-0.009-0.001-0.014-0.001
		c-0.211-0.013-0.392,0.148-0.405,0.358C724.148,410.294,724.148,410.296,724.147,410.297z M727.983,447.049
		c-0.158,0.147-0.169,0.393-0.025,0.554c0.132,0.16,0.369,0.183,0.53,0.051c0.005-0.005,0.011-0.009,0.016-0.014
		c0.158-0.147,0.169-0.393,0.025-0.554C728.388,446.924,728.144,446.908,727.983,447.049
		C727.983,447.048,727.983,447.048,727.983,447.049z M735.02,440.754c-0.16,0.146-0.171,0.394-0.025,0.554
		c0.146,0.16,0.394,0.171,0.554,0.025l0,0c0.161-0.14,0.177-0.384,0.037-0.545c0,0,0,0,0,0
		C735.435,440.631,735.189,440.616,735.02,440.754L735.02,440.754z M721.548,427.903c0.077,0.2,0.302,0.299,0.502,0.222
		c0.2-0.077,0.299-0.302,0.222-0.502c-0.076-0.196-0.293-0.296-0.491-0.226C721.579,427.475,721.475,427.699,721.548,427.903z
		 M730.47,424.78c0.077,0.2,0.302,0.299,0.502,0.222s0.299-0.302,0.222-0.502c-0.076-0.196-0.293-0.296-0.491-0.226
		C730.501,424.352,730.398,424.576,730.47,424.78z M745.432,454.772c-0.089,0.196-0.005,0.428,0.19,0.521
		c0.189,0.093,0.418,0.015,0.511-0.174c0.001-0.001,0.001-0.003,0.002-0.004c0.101-0.18,0.037-0.409-0.143-0.51
		c-0.009-0.005-0.018-0.009-0.027-0.014C745.766,454.504,745.536,454.583,745.432,454.772z M718.719,419.076
		c0.046,0.186,0.233,0.3,0.419,0.256c0.187-0.043,0.304-0.229,0.261-0.416c-0.043-0.187-0.229-0.304-0.416-0.261
		c-0.003,0.001-0.006,0.001-0.009,0.002C718.79,418.704,718.677,418.89,718.719,419.076L718.719,419.076z M726.911,417.064
		c0.047,0.185,0.233,0.299,0.419,0.256c0.188-0.039,0.309-0.223,0.27-0.411s-0.223-0.309-0.411-0.27
		c-0.007,0.002-0.015,0.003-0.022,0.005c-0.183,0.04-0.299,0.221-0.259,0.404C726.909,417.054,726.91,417.059,726.911,417.064z
		 M739.788,447.415c-0.095,0.171-0.04,0.386,0.125,0.491c0.158,0.098,0.366,0.049,0.464-0.109c0.003-0.004,0.005-0.009,0.008-0.013
		c0.102-0.162,0.054-0.377-0.108-0.479c-0.002-0.001-0.004-0.002-0.005-0.003C740.105,447.207,739.894,447.256,739.788,447.415z
		 M730.261,402.143c-0.03,0.187,0.098,0.362,0.285,0.392c0.005,0.001,0.01,0.002,0.016,0.002c0.18,0.032,0.351-0.088,0.383-0.268
		c0.001-0.007,0.002-0.014,0.003-0.021c0.034-0.189-0.091-0.369-0.28-0.403c-0.004-0.001-0.008-0.001-0.012-0.002
		C730.465,401.821,730.291,401.954,730.261,402.143z M729.5,432.048c-0.151,0.118-0.18,0.336-0.065,0.49
		c0.112,0.154,0.328,0.188,0.482,0.076c0.153-0.117,0.19-0.332,0.085-0.493C729.882,431.964,729.66,431.932,729.5,432.048
		L729.5,432.048z M736.308,427.058c-0.153,0.104-0.193,0.312-0.089,0.465c0.004,0.006,0.008,0.011,0.012,0.017
		c0.112,0.154,0.327,0.188,0.482,0.076c0.153-0.117,0.19-0.332,0.085-0.493C736.679,426.971,736.461,426.943,736.308,427.058
		L736.308,427.058z M727.7,405.534c0.027,0.121,0.148,0.197,0.269,0.17c0.002-0.001,0.005-0.001,0.007-0.002
		c0.124-0.025,0.205-0.145,0.18-0.27c-0.001-0.006-0.003-0.012-0.004-0.017c-0.027-0.121-0.148-0.197-0.269-0.17
		c-0.002,0.001-0.005,0.001-0.007,0.002C727.749,405.279,727.671,405.407,727.7,405.534L727.7,405.534z M741.679,424.777
		c-0.069,0.099-0.044,0.235,0.055,0.304c0.008,0.005,0.015,0.01,0.023,0.014c0.11,0.065,0.251,0.03,0.318-0.079
		c0.062-0.112,0.032-0.253-0.07-0.329c-0.114-0.065-0.26-0.026-0.326,0.088C741.68,424.776,741.679,424.777,741.679,424.777
		L741.679,424.777z M730.354,393.519c-0.027,0.127,0.055,0.252,0.181,0.278c0.004,0.001,0.008,0.001,0.011,0.002
		c0.128,0.012,0.245-0.075,0.269-0.201c0.021-0.127-0.066-0.248-0.193-0.268c-0.003,0-0.005-0.001-0.008-0.001
		C730.49,393.311,730.374,393.395,730.354,393.519L730.354,393.519z M712.352,425.378c-0.173,0.141-0.205,0.392-0.073,0.571
		c0.133,0.178,0.384,0.215,0.563,0.084c0.175-0.139,0.207-0.393,0.073-0.571C712.783,425.284,712.531,425.247,712.352,425.378z
		 M720.149,419.537c-0.179,0.132-0.216,0.384-0.084,0.563c0.132,0.179,0.384,0.216,0.563,0.084c0.179-0.132,0.216-0.384,0.084-0.563
		C720.58,419.443,720.328,419.406,720.149,419.537L720.149,419.537z M727.935,413.688c-0.175,0.139-0.207,0.393-0.073,0.571
		c0.138,0.173,0.39,0.2,0.563,0.062c0.173-0.138,0.2-0.39,0.062-0.563C728.353,413.59,728.108,413.558,727.935,413.688z
		 M726.26,400.625c0.055,0.218,0.277,0.35,0.495,0.294c0.218-0.055,0.35-0.277,0.294-0.495c-0.055-0.218-0.277-0.35-0.495-0.294
		C726.339,400.189,726.209,400.407,726.26,400.625L726.26,400.625z M729.556,435.159c-0.103,0.196-0.04,0.437,0.145,0.558
		c0.194,0.105,0.436,0.037,0.547-0.154c0.115-0.186,0.059-0.43-0.127-0.545c-0.002-0.001-0.005-0.003-0.007-0.004
		C729.92,434.9,729.67,434.964,729.556,435.159C729.556,435.158,729.556,435.159,729.556,435.159L729.556,435.159z M734.524,426.77
		c-0.114,0.194-0.049,0.443,0.144,0.557c0,0,0.001,0,0.001,0c0.188,0.109,0.429,0.046,0.538-0.142c0,0,0,0,0-0.001
		c0.115-0.189,0.055-0.435-0.134-0.55C734.885,426.522,734.639,426.582,734.524,426.77L734.524,426.77z M728.439,393.882
		c0.055,0.213,0.261,0.349,0.478,0.317c0.216-0.054,0.351-0.269,0.306-0.487c-0.037-0.21-0.236-0.35-0.446-0.313
		c-0.007,0.001-0.014,0.003-0.022,0.004c-0.218,0.042-0.36,0.252-0.319,0.47C728.438,393.876,728.439,393.879,728.439,393.882z
		 M723.141,433.289c-0.115,0.188-0.055,0.434,0.133,0.548c0.188,0.115,0.434,0.055,0.548-0.133c0.112-0.184,0.058-0.422-0.121-0.541
		C723.512,433.044,723.261,433.1,723.141,433.289L723.141,433.289z M728.427,425.152c-0.12,0.19-0.064,0.44,0.126,0.561
		c0.186,0.113,0.427,0.063,0.552-0.114c0.117-0.192,0.066-0.442-0.117-0.572C728.797,424.912,728.551,424.967,728.427,425.152z
		 M733.713,417.015c-0.12,0.19-0.064,0.44,0.126,0.561c0.182,0.124,0.43,0.076,0.554-0.106c0.124-0.182,0.076-0.43-0.106-0.554
		c-0.003-0.002-0.007-0.005-0.01-0.007C734.091,416.788,733.843,416.834,733.713,417.015L733.713,417.015z M720.438,409.843
		c-0.179,0.126-0.223,0.373-0.097,0.552c0.001,0.001,0.001,0.002,0.002,0.003c0.123,0.185,0.372,0.236,0.557,0.115
		c0.182-0.129,0.228-0.38,0.103-0.566C720.873,409.767,720.625,409.722,720.438,409.843L720.438,409.843z M728.449,404.35
		c-0.184,0.122-0.234,0.371-0.112,0.555c0.122,0.184,0.371,0.234,0.555,0.112c0.003-0.002,0.005-0.004,0.008-0.005
		c0.18-0.131,0.225-0.38,0.104-0.566c-0.125-0.179-0.372-0.223-0.552-0.097C728.451,404.349,728.45,404.349,728.449,404.35
		L728.449,404.35z M734.967,421.423c-0.059,0.157,0.019,0.332,0.176,0.391c0.153,0.058,0.325-0.016,0.388-0.168
		c0.064-0.147-0.004-0.318-0.151-0.382c-0.01-0.004-0.019-0.008-0.029-0.011C735.199,421.198,735.029,421.273,734.967,421.423z
		 M724.355,410.085c-0.112,0.123-0.105,0.313,0.015,0.428c0.125,0.106,0.31,0.099,0.428-0.015c0.114-0.121,0.108-0.312-0.013-0.426
		c-0.001-0.001-0.001-0.001-0.002-0.002c-0.114-0.114-0.299-0.114-0.413-0.001C724.365,410.074,724.36,410.079,724.355,410.085
		L724.355,410.085z M729.392,404.766c-0.113,0.126-0.11,0.317,0.007,0.439c0.121,0.114,0.312,0.108,0.426-0.013
		c0.001-0.001,0.001-0.001,0.002-0.002c0.115-0.113,0.116-0.297,0.004-0.412c-0.003-0.003-0.005-0.005-0.008-0.008
		c-0.116-0.12-0.307-0.123-0.427-0.008C729.394,404.763,729.393,404.765,729.392,404.766L729.392,404.766z"/>
</g>
<g id="woman">
	
		<linearGradient id="L_shoe_1_" gradientUnits="userSpaceOnUse" x1="501.8444" y1="114.3168" x2="328.7792" y2="114.3168" gradientTransform="matrix(1 0 0 -1 0 722)">
		<stop  offset="0.1291" style="stop-color:#428DFC"/>
		<stop  offset="0.9987" style="stop-color:#1D72D8"/>
	</linearGradient>
	<path id="L_shoe" style="fill:url(#L_shoe_1_);" d="M401.701,588.872l-13.486,37.619l95.205,0.003c0,0-4.882-9.416-21.155-16.39
		s-31.463-21.232-31.463-21.232L401.701,588.872"/>
	<path id="R_shoe" style="fill:#428DFC;" d="M333.662,588.852l-13.486,37.619l95.205,0.003c0,0-4.882-9.416-21.155-16.39
		s-31.463-21.232-31.463-21.232H333.662"/>
	
		<linearGradient id="L_trousers_1_" gradientUnits="userSpaceOnUse" x1="502.5469" y1="150.3252" x2="391.2982" y2="280.1154" gradientTransform="matrix(1 0 0 -1 0 722)">
		<stop  offset="0" style="stop-color:#23286B"/>
		<stop  offset="1" style="stop-color:#151A4F"/>
	</linearGradient>
	<path id="L_trousers" style="fill:url(#L_trousers_1_);" d="M361.034,326.539c-2.437,12.002-3.003,26.902,0.979,44.363
		c11.474,50.359,12.367,43.288,10.601,78.623c-1.775,35.335,3.972,23.409,5.737,60.509c1.765,37.11-0.499,55.424,23.352,78.843
		h29.099c0,0,2.36-113.132,1.842-145.109c-0.365-22.373-7.397-45.044-11.455-63.56l-8.967-49.348"/>
	<path id="R_trousers" style="fill:#23286B;" d="M409.953,393.151c0,0-8.384-49.975-7.718-61.626l-53.924-8.655l-0.695,3.377
		c-5.994,22.335-5.232,45.945,2.191,67.847c18.306,54.941,5.726,52.338-0.206,68.964c-5.965,16.615-9.153,26.776-7.798,42.48
		c1.377,15.715-5.477,11.55-9.153,31.852c-3.655,20.324,1.009,51.46,1.009,51.46h29.108c0,0,45.875-110.554,48.163-134.565
		C412.74,435.198,411.96,413.204,409.953,393.151z"/>
	<path id="texture-2" style="opacity:0.86;fill:#FFFFFF;enable-background:new    ;" d="M379.768,350.748
		c0.094,0.063,0.22,0.038,0.283-0.056s0.037-0.22-0.056-0.283s-0.22-0.038-0.283,0.056c0,0,0,0,0,0
		C379.65,350.559,379.675,350.685,379.768,350.748C379.768,350.748,379.768,350.748,379.768,350.748z M382.506,346.586
		c0.098,0.061,0.227,0.037,0.297-0.055c0.058-0.098,0.027-0.224-0.07-0.283c-0.085-0.064-0.205-0.048-0.27,0.037
		c-0.005,0.006-0.009,0.013-0.013,0.019C382.387,346.397,382.412,346.523,382.506,346.586
		C382.506,346.586,382.506,346.586,382.506,346.586L382.506,346.586z M385.258,342.424c0.093,0.063,0.22,0.038,0.283-0.056
		c0,0,0,0,0,0c0.061-0.098,0.037-0.227-0.055-0.297c-0.102-0.056-0.23-0.026-0.297,0.069
		C385.13,342.239,385.161,342.365,385.258,342.424L385.258,342.424z M400.295,354.57c0.021,0.113,0.131,0.187,0.244,0.166
		c0,0,0,0,0,0c0.104-0.017,0.175-0.114,0.158-0.218c-0.001-0.009-0.003-0.018-0.006-0.026c-0.018-0.109-0.121-0.183-0.23-0.165
		C400.347,354.347,400.273,354.457,400.295,354.57C400.295,354.57,400.295,354.57,400.295,354.57z M374.219,341.49
		c0.061,0.092,0.185,0.117,0.277,0.056c0.092-0.061,0.117-0.185,0.056-0.277c-0.061-0.092-0.185-0.117-0.277-0.056
		c-0.09,0.053-0.12,0.17-0.067,0.26C374.211,341.479,374.215,341.485,374.219,341.49L374.219,341.49z M378.345,338.698
		c0.048,0.073,0.141,0.101,0.221,0.067l0.014,0.001c0.015,0.003,0.031-0.002,0.043-0.012c0.056-0.036,0.09-0.097,0.092-0.163
		c0.001-0.045-0.011-0.09-0.036-0.128c-0.062-0.091-0.185-0.116-0.277-0.056c-0.095,0.061-0.123,0.187-0.062,0.282
		C378.341,338.692,378.343,338.695,378.345,338.698z M390.024,351.966c-0.014,0.113,0.059,0.219,0.17,0.246
		c0.115,0.021,0.225-0.055,0.246-0.17s-0.055-0.225-0.17-0.246C390.157,351.782,390.051,351.855,390.024,351.966z M390.964,347.071
		c-0.017,0.111,0.059,0.215,0.17,0.232c0,0,0,0,0,0c0.105,0.028,0.213-0.034,0.242-0.139c0.001-0.006,0.003-0.011,0.004-0.017
		c0.018-0.114-0.057-0.223-0.17-0.246C391.097,346.888,390.991,346.961,390.964,347.071z M352.846,346.92
		c0.105,0.186,0.341,0.251,0.527,0.146c0.004-0.002,0.008-0.005,0.012-0.007c0.183-0.106,0.245-0.34,0.139-0.522
		c-0.001-0.001-0.001-0.002-0.002-0.003c-0.105-0.186-0.341-0.251-0.527-0.146c-0.004,0.002-0.008,0.005-0.012,0.007
		c-0.183,0.106-0.245,0.339-0.14,0.522C352.845,346.918,352.846,346.919,352.846,346.92L352.846,346.92z M361.002,342.156
		c0.111,0.187,0.352,0.249,0.539,0.138s0.249-0.352,0.138-0.539c-0.106-0.183-0.34-0.245-0.522-0.139
		c-0.001,0.001-0.002,0.001-0.003,0.002C360.968,341.728,360.901,341.965,361.002,342.156L361.002,342.156z M369.172,337.393
		c0.111,0.187,0.352,0.249,0.539,0.138c0.187-0.111,0.249-0.352,0.138-0.539c-0.111-0.187-0.352-0.249-0.539-0.138
		c-0.186,0.105-0.251,0.341-0.146,0.527C369.167,337.385,369.169,337.389,369.172,337.393L369.172,337.393z M376.329,375.45
		c-0.051,0.21,0.076,0.421,0.284,0.476c0.199,0.061,0.409-0.051,0.47-0.25c0.002-0.007,0.004-0.014,0.006-0.02
		c0.051-0.21-0.076-0.421-0.285-0.476C376.599,375.123,376.386,375.244,376.329,375.45C376.33,375.45,376.33,375.45,376.329,375.45
		L376.329,375.45z M378.724,366.316c-0.052,0.21,0.077,0.423,0.287,0.474c0.209,0.051,0.419-0.075,0.473-0.283
		c0.057-0.206-0.064-0.418-0.27-0.475c0,0,0,0-0.001,0C379.001,365.985,378.788,366.109,378.724,366.316L378.724,366.316z
		 M381.132,357.169c-0.056,0.205,0.066,0.417,0.271,0.472c0.004,0.001,0.009,0.002,0.013,0.003c0.199,0.061,0.409-0.051,0.47-0.25
		c0.002-0.007,0.004-0.014,0.006-0.02c0.047-0.212-0.076-0.425-0.284-0.49C381.399,356.834,381.187,356.961,381.132,357.169
		L381.132,357.169z M383.527,348.036c-0.053,0.21,0.075,0.423,0.285,0.476c0.21,0.053,0.423-0.075,0.476-0.285
		c0.057-0.206-0.064-0.418-0.27-0.475c0,0,0,0-0.001,0c-0.208-0.06-0.426,0.06-0.486,0.268
		C383.529,348.025,383.528,348.03,383.527,348.036L383.527,348.036z M351.628,330.121c0.032,0.214,0.232,0.362,0.446,0.33
		c0.214-0.032,0.362-0.232,0.33-0.446c-0.034-0.213-0.232-0.36-0.446-0.33c-0.212,0.03-0.361,0.226-0.331,0.438
		C351.627,330.116,351.628,330.119,351.628,330.121L351.628,330.121z M360.396,363.037c0.175,0.124,0.417,0.083,0.541-0.092
		s0.083-0.417-0.092-0.541c-0.171-0.121-0.408-0.085-0.534,0.083C360.186,362.663,360.223,362.907,360.396,363.037L360.396,363.037z
		 M366.112,355.508c0.175,0.124,0.417,0.083,0.541-0.092c0.124-0.175,0.083-0.417-0.092-0.541c-0.171-0.121-0.408-0.085-0.534,0.083
		C365.902,355.134,365.94,355.378,366.112,355.508L366.112,355.508z M371.828,347.993c0.178,0.128,0.427,0.088,0.555-0.09
		c0.124-0.173,0.091-0.412-0.076-0.544c-0.172-0.136-0.422-0.107-0.558,0.065s-0.107,0.422,0.065,0.558
		C371.819,347.986,371.823,347.989,371.828,347.993z M377.545,340.45c0.167,0.133,0.409,0.105,0.542-0.062
		c0.002-0.003,0.005-0.006,0.007-0.009c0.132-0.168,0.103-0.412-0.065-0.545c-0.168-0.132-0.412-0.103-0.545,0.065
		c-0.004,0.005-0.008,0.01-0.011,0.015c-0.129,0.158-0.106,0.391,0.052,0.52C377.532,340.44,377.538,340.445,377.545,340.45
		L377.545,340.45z M395.143,372.259c0.034,0.213,0.232,0.36,0.446,0.33c0.209-0.027,0.357-0.218,0.33-0.427
		c0-0.001,0-0.003-0.001-0.004c-0.015-0.206-0.195-0.362-0.401-0.347c-0.01,0.001-0.02,0.002-0.03,0.003
		C395.274,371.852,395.125,372.045,395.143,372.259L395.143,372.259z M393.868,362.889c0.037,0.212,0.23,0.362,0.445,0.344
		c0.213-0.034,0.36-0.232,0.33-0.446c-0.03-0.212-0.226-0.361-0.438-0.331c-0.002,0-0.005,0.001-0.007,0.001
		c-0.209,0.027-0.357,0.218-0.33,0.427C393.867,362.886,393.867,362.888,393.868,362.889L393.868,362.889z M392.592,353.533
		c0.023,0.206,0.208,0.354,0.413,0.332c0.006-0.001,0.012-0.001,0.018-0.002c0.213-0.022,0.368-0.212,0.346-0.425
		c-0.001-0.007-0.002-0.013-0.003-0.02c-0.032-0.214-0.232-0.362-0.446-0.33S392.56,353.319,392.592,353.533L392.592,353.533z
		 M391.303,344.163c0.034,0.213,0.232,0.36,0.446,0.33c0.206-0.023,0.354-0.208,0.332-0.413c-0.001-0.006-0.001-0.012-0.002-0.018
		c-0.027-0.212-0.218-0.365-0.431-0.343C391.431,343.75,391.279,343.946,391.303,344.163L391.303,344.163z M347.181,324.64
		c0.069-0.063,0.109-0.153,0.11-0.247c-0.006-0.057-0.027-0.111-0.062-0.157C347.222,324.362,347.202,324.501,347.181,324.64
		L347.181,324.64z M353.165,357.237c0.141,0.129,0.359,0.121,0.491-0.018c0.131-0.14,0.125-0.359-0.015-0.491
		s-0.359-0.125-0.491,0.015c-0.001,0.001-0.002,0.002-0.003,0.003C353.019,356.888,353.027,357.105,353.165,357.237L353.165,357.237
		z M358.886,351.038c0.141,0.128,0.359,0.121,0.491-0.018c0.135-0.136,0.134-0.356-0.003-0.491
		c-0.136-0.135-0.356-0.134-0.491,0.003c-0.005,0.005-0.01,0.01-0.015,0.016c-0.131,0.135-0.128,0.35,0.007,0.48
		C358.879,351.031,358.882,351.035,358.886,351.038L358.886,351.038z M364.506,344.61c-0.002,0.088,0.035,0.172,0.101,0.229
		c0.141,0.128,0.359,0.121,0.491-0.018c0.135-0.143,0.128-0.367-0.014-0.502c-0.001-0.001-0.002-0.002-0.003-0.003
		c-0.085-0.08-0.204-0.112-0.318-0.086l-0.014-0.001c-0.065,0.012-0.122,0.05-0.159,0.104
		C364.517,344.406,364.485,344.51,364.506,344.61L364.506,344.61z M370.328,338.64c0.144,0.131,0.367,0.12,0.498-0.025
		s0.12-0.367-0.025-0.498l0,0c-0.141-0.129-0.36-0.121-0.491,0.018c-0.135,0.143-0.128,0.368,0.015,0.502
		C370.326,338.638,370.327,338.639,370.328,338.64L370.328,338.64z M386.376,369.24c0.015,0.195,0.18,0.344,0.375,0.34
		c0.186-0.006,0.332-0.161,0.326-0.347c0-0.005,0-0.01-0.001-0.015c-0.004-0.192-0.163-0.344-0.355-0.34c-0.002,0-0.004,0-0.006,0
		C386.525,368.891,386.377,369.049,386.376,369.24L386.376,369.24z M386.047,360.826c0.011,0.189,0.172,0.335,0.362,0.326
		c0.186-0.006,0.332-0.161,0.327-0.347c0-0.005,0-0.01-0.001-0.015c-0.004-0.192-0.163-0.344-0.355-0.34c-0.002,0-0.004,0-0.007,0
		C386.181,360.467,386.037,360.633,386.047,360.826L386.047,360.826z M385.706,352.383c0.004,0.192,0.163,0.344,0.355,0.34
		c0.002,0,0.004,0,0.007,0c0.181,0,0.328-0.148,0.327-0.329c0-0.011-0.001-0.022-0.002-0.033c-0.004-0.192-0.163-0.344-0.355-0.34
		c-0.002,0-0.004,0-0.006,0C385.844,352.036,385.701,352.195,385.706,352.383L385.706,352.383z M385.364,343.969
		c0.014,0.194,0.182,0.339,0.376,0.325c0.188-0.014,0.331-0.173,0.326-0.361c-0.013-0.19-0.171-0.338-0.361-0.34
		C385.509,343.609,385.36,343.774,385.364,343.969L385.364,343.969z M353.444,336.747c0.078,0.172,0.281,0.248,0.454,0.17
		c0.005-0.002,0.01-0.004,0.014-0.007c0.167-0.073,0.244-0.267,0.171-0.435c-0.003-0.007-0.006-0.013-0.009-0.019
		c-0.076-0.176-0.28-0.258-0.456-0.182c-0.004,0.002-0.008,0.003-0.011,0.005C353.436,336.366,353.364,336.572,353.444,336.747z
		 M361.106,333.204c0.078,0.172,0.279,0.251,0.453,0.176c0.177-0.081,0.256-0.289,0.177-0.467c-0.086-0.172-0.289-0.249-0.467-0.177
		c-0.174,0.084-0.247,0.292-0.164,0.466C361.105,333.203,361.106,333.204,361.106,333.204L361.106,333.204z M369.315,362.103
		c-0.061,0.182,0.035,0.38,0.216,0.444c0.178,0.066,0.377-0.024,0.444-0.202c0.063-0.182-0.025-0.382-0.201-0.458
		C369.588,361.823,369.384,361.919,369.315,362.103z M372.238,354.185c-0.07,0.171,0.012,0.366,0.183,0.436
		c0.006,0.003,0.013,0.005,0.02,0.007c0.178,0.066,0.377-0.024,0.444-0.202c0.063-0.182-0.025-0.382-0.201-0.458
		C372.5,353.908,372.302,354.004,372.238,354.185L372.238,354.185z M375.146,346.266c-0.067,0.178,0.024,0.377,0.202,0.444
		c0.178,0.067,0.377-0.024,0.444-0.202s-0.024-0.377-0.202-0.444C375.411,345.997,375.213,346.088,375.146,346.266z
		 M378.054,338.348c-0.067,0.178,0.024,0.377,0.202,0.444c0.101,0.042,0.217,0.032,0.309-0.027l0.014,0.001
		c0.061-0.044,0.107-0.105,0.135-0.175c0.061-0.182-0.035-0.38-0.216-0.444C378.32,338.079,378.121,338.169,378.054,338.348
		L378.054,338.348z M401.6,361.338c0.073,0.167,0.267,0.244,0.434,0.171c0.007-0.003,0.013-0.006,0.019-0.009
		c0.176-0.076,0.258-0.28,0.182-0.456c-0.002-0.004-0.003-0.008-0.005-0.011c-0.087-0.171-0.293-0.243-0.468-0.163
		c-0.172,0.078-0.248,0.281-0.17,0.454C401.595,361.329,401.597,361.333,401.6,361.338z M398.057,353.676
		c0.082,0.175,0.289,0.254,0.467,0.177c0.175-0.086,0.247-0.298,0.16-0.473c-0.082-0.166-0.279-0.241-0.451-0.171
		c-0.175,0.073-0.258,0.273-0.185,0.448C398.051,353.664,398.054,353.67,398.057,353.676L398.057,353.676z M357.584,336.796
		c0.069,0.092,0.2,0.111,0.292,0.042c0.092-0.069,0.111-0.2,0.042-0.292c-0.069-0.092-0.2-0.111-0.292-0.042l0,0
		C357.538,336.575,357.519,336.703,357.584,336.796L357.584,336.796z M361.592,333.858c0.069,0.092,0.2,0.111,0.292,0.042
		s0.111-0.2,0.042-0.292c-0.069-0.092-0.2-0.111-0.292-0.042c0,0,0,0,0,0C361.546,333.637,361.527,333.764,361.592,333.858
		L361.592,333.858z M375.463,347.5c-0.017,0.111,0.059,0.215,0.171,0.232c0.111,0.017,0.215-0.059,0.232-0.171
		c0.017-0.111-0.059-0.215-0.171-0.232l0,0C375.584,347.312,375.48,347.388,375.463,347.5
		C375.463,347.499,375.463,347.499,375.463,347.5L375.463,347.5z M376.209,342.582c-0.011,0.115,0.071,0.217,0.185,0.233
		c0.111,0.017,0.215-0.059,0.232-0.17c0,0,0,0,0,0c0.021-0.106-0.049-0.209-0.155-0.23c-0.005-0.001-0.01-0.002-0.015-0.002
		c-0.113-0.022-0.223,0.052-0.245,0.165C376.209,342.578,376.209,342.58,376.209,342.582L376.209,342.582z M366.737,341.654
		c0.099,0.051,0.22,0.021,0.283-0.07c0.06-0.093,0.033-0.217-0.06-0.277c-0.003-0.002-0.007-0.004-0.01-0.006
		c-0.09-0.061-0.212-0.037-0.273,0.053c-0.004,0.005-0.007,0.011-0.01,0.017C366.609,341.469,366.64,341.595,366.737,341.654
		L366.737,341.654z M369.325,337.401c0.099,0.051,0.22,0.021,0.283-0.07c0.055-0.098,0.025-0.222-0.07-0.283
		c-0.088-0.064-0.212-0.044-0.275,0.045c-0.003,0.004-0.005,0.007-0.008,0.011c-0.064,0.096-0.038,0.226,0.057,0.29
		C369.317,337.396,369.321,337.398,369.325,337.401L369.325,337.401z M385.447,344.561c0.026,0.109,0.135,0.177,0.244,0.152
		s0.177-0.135,0.152-0.244l0,0c-0.017-0.104-0.114-0.175-0.218-0.158c-0.009,0.001-0.018,0.003-0.026,0.006
		c-0.108,0.023-0.177,0.13-0.154,0.238C385.446,344.556,385.446,344.559,385.447,344.561L385.447,344.561z M384.257,339.73
		c0.03,0.113,0.145,0.18,0.258,0.153c0.105-0.029,0.167-0.138,0.138-0.244c0-0.001,0-0.001,0-0.002
		c-0.017-0.104-0.114-0.175-0.218-0.158c-0.009,0.001-0.018,0.003-0.026,0.006c-0.108,0.023-0.177,0.13-0.154,0.238
		C384.255,339.725,384.256,339.728,384.257,339.73L384.257,339.73z M353.18,340.988c0.09,0.086,0.232,0.083,0.318-0.007
		c0.002-0.002,0.003-0.003,0.005-0.005c0.09-0.089,0.091-0.234,0.001-0.324c-0.004-0.004-0.009-0.008-0.013-0.012
		c-0.09-0.086-0.232-0.083-0.318,0.007c-0.002,0.002-0.003,0.003-0.005,0.005C353.08,340.749,353.085,340.898,353.18,340.988
		L353.18,340.988z M357.064,336.855c0.096,0.09,0.247,0.085,0.336-0.011c0.09-0.096,0.085-0.247-0.011-0.336
		c-0.09-0.086-0.232-0.083-0.318,0.007c-0.002,0.002-0.003,0.004-0.005,0.005c-0.093,0.085-0.1,0.229-0.015,0.323
		C357.055,336.846,357.059,336.85,357.064,336.855L357.064,336.855z M360.962,332.721c0.087,0.074,0.213,0.08,0.307,0.015
		c0.015-0.013,0.029-0.013,0.029-0.027c0.09-0.096,0.085-0.247-0.012-0.336c-0.096-0.09-0.247-0.085-0.336,0.012
		C360.86,332.481,360.866,332.632,360.962,332.721z M375.458,349.319c-0.003,0.121,0.093,0.22,0.214,0.223
		c0.009,0,0.018,0,0.027-0.001c0.127-0.006,0.226-0.114,0.222-0.241c-0.01-0.128-0.113-0.228-0.24-0.236
		c-0.131,0.009-0.231,0.122-0.223,0.253C375.458,349.318,375.458,349.318,375.458,349.319L375.458,349.319z M375.275,343.641
		c0.008,0.131,0.122,0.231,0.253,0.223c0.001,0,0.001,0,0.002,0c0.127-0.006,0.226-0.114,0.222-0.241
		c-0.01-0.128-0.113-0.228-0.24-0.236C375.379,343.399,375.277,343.509,375.275,343.641L375.275,343.641z M375.121,337.952
		c-0.009,0.122,0.083,0.227,0.204,0.236c0.012,0.001,0.024,0.001,0.036,0c0.127-0.006,0.226-0.114,0.222-0.241
		c-0.01-0.128-0.113-0.228-0.24-0.236C375.215,337.717,375.116,337.824,375.121,337.952L375.121,337.952z M348.761,329.505
		c0.048,0.121,0.184,0.18,0.305,0.132c0.004-0.001,0.007-0.003,0.011-0.005c0.113-0.061,0.163-0.197,0.114-0.316
		c-0.053-0.118-0.192-0.17-0.309-0.117c-0.002,0.001-0.005,0.002-0.007,0.003C348.76,329.255,348.71,329.39,348.761,329.505
		L348.761,329.505z M364.506,344.61c0.023,0.025,0.051,0.045,0.081,0.06c0.119,0.046,0.252-0.013,0.298-0.132
		c0.001-0.003,0.002-0.005,0.003-0.008c0.042-0.117-0.012-0.248-0.125-0.3l-0.014-0.001c-0.119-0.046-0.252,0.013-0.298,0.132
		c-0.001,0.003-0.002,0.005-0.003,0.008C364.414,344.454,364.438,344.55,364.506,344.61z M366.473,339.052
		c-0.049,0.116,0.006,0.25,0.122,0.299c0.001,0,0.002,0.001,0.003,0.001c0.121,0.046,0.257-0.008,0.314-0.125
		c0.041-0.125-0.019-0.26-0.139-0.315C366.652,338.869,366.518,338.931,366.473,339.052L366.473,339.052z M386.184,344.079
		c0.053,0.118,0.191,0.17,0.309,0.117c0.002-0.001,0.005-0.002,0.007-0.003c0.114-0.053,0.164-0.188,0.113-0.302
		c-0.043-0.116-0.171-0.175-0.287-0.133c-0.005,0.002-0.01,0.004-0.015,0.006C386.19,343.817,386.133,343.957,386.184,344.079
		L386.184,344.079z M347.337,326.3c0.103,0.2,0.349,0.278,0.548,0.174c0.193-0.1,0.273-0.333,0.183-0.53
		c-0.096-0.199-0.334-0.286-0.536-0.194C347.332,325.852,347.246,326.093,347.337,326.3L347.337,326.3z M351.335,366.007
		c-0.066,0.212,0.046,0.44,0.254,0.516c0.209,0.075,0.439-0.032,0.516-0.241c0.069-0.213-0.044-0.442-0.255-0.516
		C351.642,365.691,351.411,365.798,351.335,366.007L351.335,366.007z M354.613,356.832c-0.076,0.209,0.032,0.44,0.241,0.516
		c0.209,0.076,0.44-0.032,0.516-0.241c0.076-0.209-0.032-0.44-0.241-0.516C354.92,356.517,354.689,356.624,354.613,356.832
		L354.613,356.832z M357.877,347.657c-0.069,0.213,0.044,0.442,0.255,0.516c0.211,0.068,0.436-0.048,0.504-0.259
		c0.068-0.211-0.048-0.436-0.259-0.504C358.17,347.345,357.949,347.454,357.877,347.657z M361.154,338.483
		c-0.076,0.209,0.032,0.44,0.241,0.516s0.44-0.032,0.516-0.241s-0.032-0.44-0.241-0.516S361.23,338.274,361.154,338.483
		L361.154,338.483z M392.303,364.254c0.103,0.201,0.344,0.286,0.55,0.195c0.2-0.103,0.278-0.349,0.174-0.548
		c-0.1-0.193-0.333-0.273-0.53-0.183C392.299,363.816,392.214,364.052,392.303,364.254z M388.131,355.456
		c0.098,0.198,0.334,0.283,0.536,0.194c0.202-0.094,0.289-0.335,0.194-0.536c-0.094-0.202-0.335-0.289-0.536-0.194
		C388.125,355.016,388.039,355.254,388.131,355.456z M383.958,346.657c0.096,0.199,0.334,0.286,0.536,0.194
		c0.201-0.103,0.286-0.344,0.195-0.55c-0.103-0.199-0.349-0.277-0.548-0.174C383.949,346.227,383.868,346.46,383.958,346.657
		L383.958,346.657z M349.269,337.689c0.166,0.151,0.424,0.139,0.575-0.028c0.151-0.166,0.139-0.424-0.028-0.575
		c-0.166-0.151-0.424-0.139-0.575,0.028C349.095,337.282,349.107,337.536,349.269,337.689L349.269,337.689z M355.797,330.452
		c0.158,0.155,0.411,0.153,0.566-0.005c0.003-0.003,0.005-0.006,0.008-0.008c0.147-0.168,0.135-0.422-0.028-0.575
		c-0.163-0.151-0.418-0.142-0.57,0.022c-0.002,0.002-0.004,0.004-0.006,0.006C355.622,330.054,355.635,330.305,355.797,330.452
		L355.797,330.452z M371.079,364.667c0.022,0.22,0.208,0.386,0.429,0.385c0.22-0.019,0.384-0.21,0.371-0.43
		c-0.006-0.219-0.188-0.391-0.407-0.385c-0.003,0-0.005,0-0.008,0C371.239,364.25,371.067,364.442,371.079,364.667
		C371.079,364.667,371.079,364.667,371.079,364.667z M370.592,354.93c0.012,0.225,0.203,0.397,0.428,0.385c0,0,0.001,0,0.001,0
		c0.217-0.012,0.383-0.198,0.37-0.415c0,0,0,0,0-0.001c-0.009-0.221-0.196-0.392-0.416-0.383
		C370.755,354.526,370.584,354.71,370.592,354.93L370.592,354.93z M370.103,345.207c0.006,0.219,0.188,0.391,0.407,0.385
		c0.003,0,0.005,0,0.008,0c0.225-0.005,0.403-0.191,0.398-0.416c-0.005-0.225-0.191-0.403-0.416-0.398s-0.403,0.191-0.398,0.416
		C370.103,345.198,370.103,345.202,370.103,345.207z M347.365,330.864c0.163,0.147,0.411,0.147,0.574,0
		c0.15-0.164,0.144-0.418-0.014-0.575c-0.146-0.154-0.39-0.161-0.544-0.015c-0.005,0.005-0.01,0.01-0.016,0.016
		c-0.159,0.155-0.161,0.409-0.006,0.568C347.361,330.86,347.363,330.862,347.365,330.864L347.365,330.864z M364.697,366.649
		c0.008,0.22,0.194,0.392,0.414,0.384c0.22-0.008,0.392-0.194,0.384-0.414c-0.008-0.215-0.185-0.384-0.4-0.384
		C364.871,366.239,364.693,366.425,364.697,366.649z M364.614,356.946c0.005,0.224,0.19,0.402,0.414,0.398
		c0.217-0.008,0.391-0.183,0.398-0.4c-0.008-0.225-0.189-0.405-0.414-0.412C364.79,356.541,364.615,356.724,364.614,356.946
		L364.614,356.946z M364.531,347.242c0.005,0.224,0.19,0.402,0.414,0.398c0.22,0.002,0.401-0.174,0.403-0.395
		c0.002-0.22-0.174-0.401-0.395-0.403c-0.004,0-0.008,0-0.012,0C364.721,346.845,364.539,347.021,364.531,347.242L364.531,347.242z
		 M364.462,337.54c-0.006,0.213,0.162,0.391,0.375,0.398c0.008,0,0.017,0,0.025,0c0.22-0.003,0.396-0.181,0.397-0.4
		c-0.002-0.22-0.182-0.397-0.403-0.395C364.638,337.144,364.462,337.321,364.462,337.54z M349.503,348.59
		c-0.08,0.204,0.02,0.434,0.224,0.514c0.001,0,0.002,0.001,0.003,0.001c0.204,0.086,0.44-0.008,0.528-0.212
		c0.081-0.208-0.019-0.443-0.226-0.529C349.824,348.286,349.591,348.385,349.503,348.59L349.503,348.59z M353.15,339.587
		c-0.086,0.204,0.01,0.438,0.213,0.524s0.438-0.01,0.524-0.213c0.001-0.003,0.002-0.006,0.003-0.009
		c0.078-0.208-0.022-0.441-0.226-0.529c-0.204-0.08-0.434,0.02-0.514,0.224C353.151,339.585,353.151,339.586,353.15,339.587
		L353.15,339.587z M356.783,330.598c-0.077,0.211,0.032,0.445,0.243,0.522c0.201,0.073,0.425-0.022,0.512-0.219
		c0.084-0.208-0.017-0.445-0.226-0.529C357.104,330.289,356.867,330.39,356.783,330.598L356.783,330.598z M383,357.891
		c0.092,0.204,0.33,0.297,0.536,0.208c0.201-0.087,0.294-0.32,0.208-0.522c-0.076-0.202-0.302-0.305-0.505-0.228
		c-0.005,0.002-0.011,0.004-0.016,0.007c-0.207,0.082-0.309,0.316-0.227,0.523C382.997,357.883,382.999,357.887,383,357.891
		L383,357.891z M379.212,348.957c0.092,0.204,0.33,0.297,0.536,0.208c0.201-0.087,0.294-0.32,0.208-0.522
		c-0.076-0.202-0.302-0.305-0.505-0.228c-0.005,0.002-0.011,0.004-0.016,0.007c-0.207,0.082-0.309,0.316-0.227,0.523
		C379.209,348.949,379.211,348.953,379.212,348.957L379.212,348.957z M375.425,340.024c0.092,0.204,0.33,0.297,0.536,0.208
		c0.201-0.087,0.294-0.32,0.208-0.522c-0.085-0.206-0.321-0.304-0.527-0.219c-0.206,0.085-0.304,0.321-0.219,0.527
		C375.423,340.02,375.424,340.022,375.425,340.024z M349.605,326.565c0.142,0.093,0.332,0.054,0.425-0.088
		c0.093-0.142,0.054-0.332-0.088-0.425c-0.001-0.001-0.003-0.002-0.004-0.003c-0.137-0.088-0.32-0.049-0.408,0.089
		c-0.001,0.001-0.001,0.002-0.002,0.003C349.436,326.28,349.47,326.467,349.605,326.565L349.605,326.565z M368.009,350.227
		c0.037,0.163,0.2,0.266,0.363,0.229c0.16-0.036,0.262-0.193,0.231-0.353c-0.028-0.158-0.179-0.263-0.336-0.235
		c-0.01,0.002-0.02,0.004-0.03,0.007C368.078,349.911,367.978,350.067,368.009,350.227L368.009,350.227z M366.428,343.095
		c0.038,0.164,0.202,0.266,0.367,0.228c0.164-0.038,0.266-0.202,0.228-0.367c-0.035-0.162-0.194-0.265-0.356-0.23
		c-0.004,0.001-0.007,0.002-0.01,0.002C366.494,342.769,366.393,342.931,366.428,343.095L366.428,343.095z M364.848,335.949
		c0.038,0.164,0.202,0.266,0.367,0.228c0.164-0.038,0.266-0.202,0.228-0.367c-0.038-0.164-0.202-0.266-0.367-0.228c0,0,0,0,0,0
		C364.914,335.624,364.813,335.786,364.848,335.949L364.848,335.949z M352.902,346.629c-0.025,0.164,0.085,0.319,0.249,0.348
		c0.163,0.019,0.314-0.089,0.348-0.249c0.028-0.164-0.082-0.32-0.246-0.348c-0.001,0-0.002,0-0.003,0
		c-0.158-0.032-0.312,0.069-0.344,0.227C352.905,346.615,352.903,346.622,352.902,346.629L352.902,346.629z M354.167,339.413
		c-0.025,0.167,0.084,0.325,0.248,0.362c0.164,0.028,0.32-0.082,0.348-0.246c0-0.001,0-0.002,0-0.003
		c0.034-0.157-0.067-0.312-0.224-0.345c-0.004-0.001-0.007-0.001-0.011-0.002c-0.163-0.036-0.324,0.067-0.36,0.23
		C354.167,339.41,354.167,339.412,354.167,339.413L354.167,339.413z M355.444,332.212c-0.032,0.158,0.069,0.312,0.227,0.345
		c0.007,0.001,0.014,0.003,0.021,0.004c0.156,0.034,0.31-0.064,0.344-0.22c0.001-0.005,0.002-0.01,0.003-0.015
		c0.025-0.167-0.084-0.325-0.248-0.362c-0.164-0.028-0.32,0.082-0.348,0.246C355.445,332.21,355.444,332.211,355.444,332.212
		L355.444,332.212z M380.33,341.021c0.09,0.135,0.273,0.172,0.408,0.082c0.003-0.002,0.005-0.004,0.008-0.006
		c0.138-0.088,0.179-0.272,0.091-0.411c-0.004-0.007-0.009-0.013-0.014-0.02c-0.102-0.133-0.293-0.158-0.426-0.056
		C380.271,340.709,380.241,340.888,380.33,341.021L380.33,341.021z M354.09,330.438c-0.003,0.092,0.067,0.17,0.159,0.176
		c0.093,0.004,0.171-0.068,0.175-0.161c0.004-0.093-0.068-0.171-0.161-0.175c-0.004,0-0.008,0-0.012,0
		C354.164,330.281,354.094,330.351,354.09,330.438z M357.487,337.645c0.059,0.138,0.219,0.202,0.357,0.143c0,0,0,0,0,0
		c0.13-0.046,0.199-0.188,0.153-0.318c-0.003-0.009-0.006-0.017-0.01-0.025c-0.043-0.134-0.187-0.208-0.322-0.164
		c-0.007,0.002-0.014,0.005-0.021,0.008c-0.139,0.048-0.212,0.2-0.164,0.339C357.482,337.633,357.484,337.639,357.487,337.645z
		 M355.074,331.48c0.043,0.134,0.187,0.208,0.322,0.164c0.007-0.002,0.014-0.005,0.021-0.008c0.139-0.048,0.212-0.2,0.164-0.339
		c-0.002-0.006-0.004-0.012-0.007-0.017c-0.056-0.141-0.214-0.211-0.356-0.157c-0.136,0.053-0.203,0.207-0.15,0.343
		C355.07,331.471,355.072,331.476,355.074,331.48L355.074,331.48z"/>
	
		<linearGradient id="R_hand_1_" gradientUnits="userSpaceOnUse" x1="476.7331" y1="342.802" x2="590.0085" y2="353.9159" gradientTransform="matrix(1 0 0 -1 0 722)">
		<stop  offset="0" style="stop-color:#FFBEB6"/>
		<stop  offset="1" style="stop-color:#F2A19C"/>
	</linearGradient>
	<path id="R_hand" style="fill:url(#R_hand_1_);" d="M550.78,394.17c-8.938-1.375-20.625-4.469-23.375-8.25s6.188-5.5,8.25-11.344
		s-1.719-6.531-3.438-4.469c-3.975,4.403-8.348,8.431-13.062,12.031c-5.156,3.781-6.188,4.469-16.5-1.375s-22-17.875-22-17.875
		s-19.765-18.863-21.842-23.017l-20.773,40.853c0,0,18.664,4.284,23.7,5.085c8.898,0.999,26.821,2.86,49.509,18.329
		s33.344,11,43.312,1.719S559.717,395.545,550.78,394.17z"/>
	
		<linearGradient id="L_sleeve_1_" gradientUnits="userSpaceOnUse" x1="449.7123" y1="438.798" x2="394.5714" y2="367.0483" gradientTransform="matrix(1 0 0 -1 0 722)">
		<stop  offset="0" style="stop-color:#A1C3FC"/>
		<stop  offset="0.6955" style="stop-color:#81AEF2"/>
		<stop  offset="1" style="stop-color:#78A9EF"/>
	</linearGradient>
	<path id="L_sleeve" style="fill:url(#L_sleeve_1_);" d="M452.416,246.178c0,0-19.958,37.081,21.836,72.445l-33.067,36.282
		c0,0-60.458-48.221-1.984-125.379l0,0C439.201,229.527,439.766,243.542,452.416,246.178"/>
	
		<linearGradient id="sweater_1_" gradientUnits="userSpaceOnUse" x1="385.9914" y1="461.3273" x2="436.629" y2="315.1471" gradientTransform="matrix(1 0 0 -1 0 722)">
		<stop  offset="0" style="stop-color:#A1C3FC"/>
		<stop  offset="0.6955" style="stop-color:#81AEF2"/>
		<stop  offset="1" style="stop-color:#78A9EF"/>
	</linearGradient>
	<path id="sweater" style="fill:url(#sweater_1_);" d="M439.201,229.527c0,0-73.336,15.155-108.24,78.533
		c0,0,31.23,44.549,88.639,28.015c0,0,2.255-58.548,32.817-89.897l0,0C452.416,246.178,443.646,247.439,439.201,229.527"/>
	<path id="R_sleeve" style="fill:#A1C3FC;" d="M452.416,246.178c0,0-19.877,51.032,10.332,91.2l-27.554,50.46
		c0,0-38.099-9.051-40.396-81.615s44.402-76.696,44.402-76.696S441.603,244.001,452.416,246.178"/>
	
		<linearGradient id="neck_1_" gradientUnits="userSpaceOnUse" x1="448.7229" y1="472.7631" x2="452.8036" y2="504.4483" gradientTransform="matrix(1 0 0 -1 0 722)">
		<stop  offset="0" style="stop-color:#FFBEB6"/>
		<stop  offset="1" style="stop-color:#F2A19C"/>
	</linearGradient>
	<path id="neck" style="fill:url(#neck_1_);" d="M464.15,223.1c-0.61,0.95-10.45,16.29-11.73,23.08c0,0-10.18,0-13.22-16.65
		c0,0,6.83-4.4,9.64-10.82c1.59,1.9,6.34,3.13,9.58,3.76C460.307,222.853,462.225,223.064,464.15,223.1z"/>
	<path id="face" style="fill:#FFBEB5;" d="M489.7,204.39c-2.5,1.82-3.28,0.74-3.95,2.39c-0.49,1.22-1.21,8.19-6.64,12.4l-0.17,0.11
		c-0.022,0.014-0.042,0.031-0.06,0.05c-0.02,0.02-0.04,0.05-0.07,0.08c-0.54,0.47-2.7,2.2-7.11,2.82
		c-0.009,0.005-0.02,0.008-0.03,0.01c-2.86,0.41-6.25,1.58-13.25,0.22c-3.01-0.59-7.33-1.69-9.2-3.37c1.22-2.16,1.87-4.52-0.13-5.59
		c-4.16-2.21-6.59-2.87-5.89-8.28c0.58-4.54,6.07-5.02,9.84-4.66c3.25,0.31,16.98-6.55,20.76-23.86
		c1.818,0.82,3.446,2.008,4.78,3.49c1.528,1.601,2.734,3.482,3.55,5.54c1.5,3.74,4.66,10.97,7.27,12.91
		c1.647,1.096,2.093,3.318,0.998,4.965C490.204,203.906,489.969,204.167,489.7,204.39z"/>
	<path id="eyeglasses" style="fill:#3E8AF8;" d="M494.508,194.251c0.369-3.15-1.224-6.265-3.55-6.948l-0.001,0
		c-2.327-0.679-4.521,1.331-4.89,4.48c-0.042,0.365-0.058,0.733-0.048,1.1c-1.421,0.002-2.762,0.662-3.629,1.788
		c-0.072-0.173-0.129-0.354-0.212-0.52c-0.619-1.407-1.797-2.492-3.249-2.995c-2.692-0.786-5.23,1.546-5.659,5.199
		c-0.209,1.733,0.088,3.49,0.855,5.058c0.516,1.11,1.36,2.035,2.418,2.651c0.264,0.144,0.543,0.259,0.831,0.344
		c1.32,0.387,2.746,0.018,3.713-0.96c1.124-1.142,1.812-2.642,1.945-4.239c0.138-1.218,0.032-2.451-0.312-3.628
		c0.859-0.947,1.999-2.001,3.37-1.837c0.01,0.074,0.027,0.146,0.039,0.219c0.046,0.068,0.074,0.147,0.08,0.229
		c0,0.009,0.003,0.018,0.003,0.027c0.004,0.009,0.01,0.014,0.014,0.024c0.36,1.054,0.913,2.032,1.631,2.884
		c0.33,0.353,0.683,0.679,1.037,1.005c0.086,0.069,0.163,0.153,0.245,0.228c0.112,0.104,0.225,0.208,0.336,0.313
		c0.048,0.018,0.093,0.044,0.142,0.059C491.945,199.411,494.138,197.401,494.508,194.251z M482.265,198.983
		c-0.115,1.419-0.723,2.754-1.719,3.771c-0.797,0.816-1.976,1.13-3.073,0.817c-1.204-0.424-2.177-1.33-2.685-2.501
		c-0.678-1.393-0.939-2.953-0.75-4.491c0.374-3.194,2.524-5.252,4.792-4.588c0.232,0.068,0.457,0.161,0.669,0.277
		c0.883,0.518,1.586,1.294,2.015,2.224C482.193,195.885,482.453,197.445,482.265,198.983L482.265,198.983z M489.716,197.895
		c-1.909-0.559-3.197-3.198-2.881-5.887c0.315-2.69,2.121-4.426,4.025-3.87c1.91,0.557,3.197,3.2,2.881,5.887
		C493.425,196.716,491.62,198.452,489.716,197.895L489.716,197.895z"/>
	<path id="hair" style="fill:#E94A47;" d="M410.685,216.658c-0.267,0.212-0.518,0.412-0.776,0.617
		c-2.882,1.665-5.483,3.927-8.694,5.445c-9.055,4.28-18.023-2.554-27.139-3.009c-14.447-0.72-26.658,9.529-29.441,23.491
		c-0.094,0.471,0.629,0.673,0.723,0.199c1.43-7.861,6.109-14.754,12.887-18.985c8.007-4.852,16.745-4.631,25.403-1.926
		c5.461,1.706,11.079,3.583,16.699,1.423c1.099-0.433,2.158-0.962,3.164-1.581c-8.9,6.835-10.497,6.164-23.98,2.431
		c-16.463-4.559-27.608,9.371-29.128,22.289c0,0,13.171,11.904,24.822,12.411c0,0,23.427-18.232,63.975-29.936
		c3.005-2.047,5.678-4.544,7.926-7.402C447.127,222.125,426.642,203.994,410.685,216.658z"/>
	<path id="hair-2" style="fill:#E94A47;" d="M482.13,185.74c0,0-2.907-8.367-8.145-9.869l-0.267,1.241l-0.003-0.004
		c0.094-0.408,0.188-0.817,0.271-1.237c0,0-16.539-6.429-32.71,1.859s-15.882,41.127,4.685,45.787c0,0,7.283-7.799,3.126-10.006
		s-6.589-2.87-5.89-8.276c0.525-4.059,4.946-4.873,8.572-4.742c1.61,0.529,3.275,0.871,4.964,1.021
		c3.47,0.045,6.857-1.054,9.64-3.127c6.427-4.66,8.293-12.671,7.541-20.196C475.4,178.889,480.828,181.682,482.13,185.74z
		 M455.253,200.542c-0.258-0.036-0.523-0.085-0.788-0.135c4.48-1.098,14.818-7.561,18.758-21.371
		C473.825,189.674,467.825,202.307,455.253,200.542L455.253,200.542z"/>
</g>
</svg>
