<?xml version="1.0" encoding="iso-8859-1"?>
<!-- Generator: Adobe Illustrator 23.0.2, SVG Export Plug-In . SVG Version: 6.00 Build 0)  -->
<svg version="1.1" id="illustration" xmlns="http://www.w3.org/2000/svg" xmlns:xlink="http://www.w3.org/1999/xlink" x="0px"
	 y="0px" viewBox="0 0 1080 720" style="enable-background:new 0 0 1080 720;" xml:space="preserve">
<title>no messages</title>
<g id="table_chair">
	
		<linearGradient id="_3_leg_1_" gradientUnits="userSpaceOnUse" x1="524.8093" y1="151.6073" x2="525.4333" y2="335.0727" gradientTransform="matrix(1 0 0 -1 0 722)">
		<stop  offset="0" style="stop-color:#EEEEEE"/>
		<stop  offset="1" style="stop-color:#DCE3EA"/>
	</linearGradient>
	<rect id="_3_leg" x="519.391" y="394.278" style="fill:url(#_3_leg_1_);" width="11.243" height="233.002"/>
	
		<linearGradient id="_2_leg_1_" gradientUnits="userSpaceOnUse" x1="658.3995" y1="124.9377" x2="659.0236" y2="308.4032" gradientTransform="matrix(1 0 0 -1 0 722)">
		<stop  offset="0" style="stop-color:#EEEEEE"/>
		<stop  offset="1" style="stop-color:#DCE3EA"/>
	</linearGradient>
	<rect id="_2_leg" x="653.072" y="394.278" style="fill:url(#_2_leg_1_);" width="11.243" height="233.002"/>
	
		<linearGradient id="_1_leg_1_" gradientUnits="userSpaceOnUse" x1="905.8231" y1="217.0799" x2="906.4471" y2="400.5453" gradientTransform="matrix(1 0 0 -1 0 722)">
		<stop  offset="0" style="stop-color:#EEEEEE"/>
		<stop  offset="1" style="stop-color:#DCE3EA"/>
	</linearGradient>
	<rect id="_1_leg" x="900.182" y="394.278" style="fill:url(#_1_leg_1_);" width="11.243" height="233.002"/>
	
		<linearGradient id="chair_leg_1_" gradientUnits="userSpaceOnUse" x1="240.0254" y1="185.9764" x2="240.4909" y2="322.8329" gradientTransform="matrix(1 0 0 -1 0 722)">
		<stop  offset="0" style="stop-color:#EEEEEE"/>
		<stop  offset="1" style="stop-color:#DCE3EA"/>
	</linearGradient>
	<polyline id="chair_leg" style="fill:url(#chair_leg_1_);" points="235.218,453.732 230.461,627.28 234.743,627.28 249.56,453.508 
		235.218,453.732 	"/>
	
		<linearGradient id="side_1_" gradientUnits="userSpaceOnUse" x1="684.7902" y1="331.3261" x2="619.6396" y2="328.9131" gradientTransform="matrix(1 0 0 -1 0 722)">
		<stop  offset="0" style="stop-color:#EEEEEE"/>
		<stop  offset="1" style="stop-color:#DCE3EA"/>
	</linearGradient>
	<rect id="side" x="519.39" y="383.16" style="fill:url(#side_1_);" width="392.03" height="12.76"/>
	
		<linearGradient id="chair_1_" gradientUnits="userSpaceOnUse" x1="264.4704" y1="413.627" x2="457.5002" y2="138.9308" gradientTransform="matrix(1 0 0 -1 0 722)">
		<stop  offset="0" style="stop-color:#EEEEEE"/>
		<stop  offset="1" style="stop-color:#DCE3EA"/>
	</linearGradient>
	<polygon id="chair" style="fill:url(#chair_1_);" points="401.692,454.283 235.218,453.732 180.218,287.791 381.404,287.791 	"/>
	
		<linearGradient id="front_side_of_the_laptop_1_" gradientUnits="userSpaceOnUse" x1="-591.3044" y1="344.5134" x2="-487.6537" y2="344.5134" gradientTransform="matrix(-1 0 0 -1 94.9302 722)">
		<stop  offset="0" style="stop-color:#A1C3FC"/>
		<stop  offset="0.6955" style="stop-color:#81AEF2"/>
		<stop  offset="0.8442" style="stop-color:#7DACF1"/>
		<stop  offset="1" style="stop-color:#78A9EF"/>
	</linearGradient>
	
		<rect id="front_side_of_the_laptop" x="543.664" y="371.813" style="fill:url(#front_side_of_the_laptop_1_);" width="103.651" height="11.347"/>
	
		<linearGradient id="right_side_of_the_laptop_1_" gradientUnits="userSpaceOnUse" x1="-677.0397" y1="344.5159" x2="-558.4766" y2="344.5159" gradientTransform="matrix(-1 0 0 -1 94.9303 722)">
		<stop  offset="0" style="stop-color:#A1C3FC"/>
		<stop  offset="0.6955" style="stop-color:#81AEF2"/>
		<stop  offset="0.8442" style="stop-color:#7DACF1"/>
		<stop  offset="1" style="stop-color:#78A9EF"/>
	</linearGradient>
	
		<rect id="right_side_of_the_laptop" x="647.314" y="371.808" style="fill:url(#right_side_of_the_laptop_1_);" width="118.563" height="11.352"/>
	
		<linearGradient id="screen_1_" gradientUnits="userSpaceOnUse" x1="688.1245" y1="355.387" x2="480.6894" y2="85.8385" gradientTransform="matrix(1 0 0 -1 0 722)">
		<stop  offset="0" style="stop-color:#A1C3FC"/>
		<stop  offset="0.6955" style="stop-color:#81AEF2"/>
		<stop  offset="1" style="stop-color:#78A9EF"/>
	</linearGradient>
	<polygon id="screen" style="fill:url(#screen_1_);" points="624.433,371.808 765.878,371.808 811.181,284.277 669.736,284.277 	"/>
	
		<linearGradient id="seat_1_" gradientUnits="userSpaceOnUse" x1="350.9782" y1="255.117" x2="242.1657" y2="308.757" gradientTransform="matrix(1 0 0 -1 0 722)">
		<stop  offset="0" style="stop-color:#EEEEEE"/>
		<stop  offset="1" style="stop-color:#DCE3EA"/>
	</linearGradient>
	<polygon id="seat" style="fill:url(#seat_1_);" points="385.127,439.803 230.642,440.226 235.218,453.732 385.127,453.732 	"/>
	<path id="texture" style="opacity:0.51;fill:#FFFFFF;enable-background:new    ;" d="M786.56,291.956
		c0.229,0.167,0.551,0.117,0.718-0.112c0.004-0.005,0.007-0.01,0.011-0.015c0.164-0.228,0.111-0.546-0.117-0.709
		c-0.001-0.001-0.002-0.002-0.004-0.003c-0.229-0.167-0.551-0.117-0.718,0.112c-0.004,0.005-0.007,0.01-0.011,0.015
		c-0.164,0.228-0.111,0.546,0.117,0.709C786.557,291.954,786.558,291.955,786.56,291.956z M792.599,304.284
		c0.242,0.079,0.502-0.05,0.585-0.29c0.083-0.241-0.045-0.504-0.286-0.587s-0.504,0.045-0.587,0.286
		c-0.001,0.002-0.001,0.004-0.002,0.006C792.231,303.94,792.359,304.199,792.599,304.284L792.599,304.284z M796.135,293.637
		c0.242,0.078,0.501-0.051,0.585-0.29c0.088-0.239-0.034-0.505-0.273-0.594c-0.239-0.088-0.505,0.034-0.594,0.273
		c-0.003,0.009-0.006,0.017-0.009,0.026c-0.085,0.235,0.037,0.494,0.272,0.578C796.122,293.633,796.129,293.635,796.135,293.637
		L796.135,293.637z M795.185,315.914c0.036,0.294,0.296,0.508,0.591,0.486c0.294-0.023,0.514-0.28,0.493-0.574
		c-0.033-0.296-0.295-0.511-0.591-0.486C795.384,315.363,795.164,315.619,795.185,315.914L795.185,315.914z M794.131,303
		c0.022,0.295,0.279,0.516,0.574,0.493c0.295-0.022,0.516-0.279,0.493-0.574c-0.022-0.295-0.279-0.515-0.574-0.493
		C794.33,302.45,794.11,302.706,794.131,303z M793.06,290.093c0.033,0.296,0.295,0.512,0.591,0.486
		c0.292-0.033,0.502-0.297,0.469-0.59s-0.297-0.502-0.59-0.469C793.245,289.554,793.036,289.807,793.06,290.093z M800.896,285.945
		c0.129,0.269,0.451,0.384,0.72,0.256c0.267-0.122,0.384-0.436,0.263-0.703c-0.122-0.267-0.436-0.384-0.703-0.262l0,0
		C800.908,285.359,800.785,285.671,800.896,285.945L800.896,285.945z M783.423,295.811c0.014,0.291,0.262,0.515,0.552,0.5
		c0.001,0,0.003,0,0.004,0c0.295-0.007,0.529-0.251,0.524-0.546c-0.016-0.297-0.266-0.527-0.564-0.517
		C783.645,295.267,783.418,295.515,783.423,295.811L783.423,295.811z M806.747,287.655c0.134,0.178,0.387,0.213,0.565,0.079
		c0.174-0.131,0.212-0.378,0.086-0.556c-0.12-0.176-0.361-0.221-0.536-0.1c-0.011,0.008-0.022,0.016-0.033,0.025
		C806.657,287.235,806.621,287.479,806.747,287.655L806.747,287.655z M786.469,291.573c0.06,0.213,0.278,0.34,0.492,0.286
		c0.208-0.066,0.331-0.279,0.286-0.492c-0.056-0.214-0.275-0.342-0.489-0.287c-0.001,0-0.003,0.001-0.004,0.001
		c-0.209,0.047-0.34,0.255-0.293,0.464C786.463,291.554,786.466,291.563,786.469,291.573L786.469,291.573z"/>
	<path id="texture-2" style="opacity:0.51;fill:#FFFFFF;enable-background:new    ;" d="M712.23,292.05
		c0.194,0.142,0.467,0.099,0.609-0.095c0.003-0.004,0.006-0.009,0.009-0.013c0.139-0.193,0.094-0.462-0.099-0.601
		c-0.001-0.001-0.002-0.001-0.003-0.002c-0.194-0.142-0.467-0.099-0.609,0.095c-0.003,0.004-0.006,0.009-0.009,0.013
		c-0.139,0.193-0.094,0.462,0.099,0.601C712.228,292.048,712.229,292.049,712.23,292.05z M749.586,310.442
		c0.045,0.239,0.273,0.397,0.513,0.357c0.232-0.03,0.396-0.243,0.366-0.475c-0.001-0.008-0.002-0.016-0.004-0.024
		c-0.045-0.239-0.273-0.397-0.513-0.357C749.711,309.981,749.549,310.204,749.586,310.442
		C749.586,310.442,749.586,310.442,749.586,310.442z M747.804,299.953c0.043,0.24,0.273,0.4,0.513,0.357
		c0.24-0.043,0.4-0.273,0.357-0.513c-0.037-0.238-0.26-0.4-0.498-0.362c0,0,0,0-0.001,0
		C747.935,299.484,747.774,299.709,747.804,299.953L747.804,299.953z M746.031,289.442c0.038,0.237,0.261,0.397,0.498,0.359
		c0.005-0.001,0.01-0.002,0.015-0.003c0.232-0.03,0.396-0.243,0.366-0.475c-0.001-0.008-0.002-0.016-0.004-0.024
		c-0.05-0.24-0.276-0.401-0.519-0.371C746.149,288.974,745.99,289.203,746.031,289.442L746.031,289.442z M727.463,305.093
		c0.237,0.046,0.466-0.108,0.513-0.345s-0.108-0.466-0.345-0.513c-0.232-0.045-0.458,0.102-0.51,0.333
		C727.074,304.807,727.226,305.04,727.463,305.093L727.463,305.093z M729.838,294.709c0.237,0.046,0.466-0.108,0.513-0.345
		c0.046-0.237-0.108-0.466-0.345-0.513c-0.232-0.045-0.458,0.102-0.51,0.333C729.448,294.422,729.6,294.655,729.838,294.709
		L729.838,294.709z M767.422,298.433c0.134,0.203,0.405,0.262,0.611,0.132c0.202-0.125,0.265-0.39,0.14-0.592
		c-0.001-0.001-0.002-0.003-0.003-0.004c-0.111-0.205-0.368-0.281-0.573-0.17c-0.01,0.005-0.02,0.011-0.029,0.017
		C767.368,297.953,767.304,298.22,767.422,298.433L767.422,298.433z M761.763,289.404c0.137,0.201,0.404,0.264,0.617,0.146
		c0.203-0.134,0.262-0.405,0.132-0.611c-0.129-0.204-0.399-0.265-0.604-0.136c-0.002,0.001-0.005,0.003-0.007,0.004
		c-0.202,0.125-0.265,0.389-0.14,0.592C761.761,289.401,761.762,289.402,761.763,289.404L761.763,289.404z M717.346,302.495
		c0.205,0.067,0.425-0.042,0.496-0.246c0.07-0.205-0.039-0.427-0.244-0.497c-0.205-0.07-0.427,0.039-0.497,0.244
		c0,0.001-0.001,0.002-0.001,0.003C717.035,302.204,717.144,302.423,717.346,302.495L717.346,302.495z M720.343,293.474
		c0.205,0.066,0.425-0.043,0.496-0.246c0.075-0.203-0.028-0.428-0.231-0.503c-0.203-0.075-0.428,0.028-0.503,0.231
		c-0.003,0.008-0.005,0.015-0.008,0.023c-0.072,0.199,0.031,0.418,0.23,0.49C720.332,293.47,720.338,293.472,720.343,293.474
		L720.343,293.474z M757.018,299.402c0.106,0.193,0.344,0.27,0.543,0.175c0.188-0.092,0.266-0.319,0.174-0.508
		c-0.003-0.005-0.005-0.01-0.008-0.015c-0.093-0.195-0.327-0.278-0.522-0.184c-0.002,0.001-0.004,0.002-0.007,0.003
		C757.01,298.975,756.931,299.205,757.018,299.402L757.018,299.402z M752.775,290.915c0.099,0.189,0.332,0.263,0.523,0.166
		c0.188-0.092,0.266-0.319,0.174-0.508c-0.003-0.005-0.005-0.01-0.008-0.015c-0.093-0.195-0.327-0.278-0.522-0.184
		c-0.002,0.001-0.004,0.002-0.007,0.003C752.746,290.484,752.675,290.722,752.775,290.915L752.775,290.915z M736.188,299.994
		c0.022,0.215,0.212,0.374,0.428,0.356c0.214-0.015,0.376-0.2,0.362-0.414c-0.019-0.216-0.202-0.38-0.419-0.376
		C736.338,299.58,736.173,299.773,736.188,299.994z M735.513,290.507c0.007,0.208,0.182,0.371,0.39,0.363
		c0.008,0,0.016-0.001,0.023-0.002c0.214-0.015,0.376-0.2,0.362-0.414c-0.019-0.216-0.202-0.381-0.419-0.376
		C735.654,290.101,735.495,290.291,735.513,290.507L735.513,290.507z M709.818,285.804c0.132,0.046,0.276-0.023,0.323-0.155
		c0.001-0.003,0.002-0.005,0.003-0.008c0.051-0.133-0.016-0.283-0.149-0.334c-0.006-0.002-0.013-0.005-0.019-0.006
		c-0.132-0.046-0.276,0.023-0.323,0.155c-0.001,0.003-0.002,0.005-0.003,0.008C709.605,285.604,709.68,285.755,709.818,285.804
		L709.818,285.804z M719.538,312.349c0.03,0.249,0.251,0.43,0.501,0.412c0.249-0.02,0.436-0.237,0.418-0.486
		c-0.028-0.251-0.25-0.433-0.501-0.412C719.707,311.882,719.52,312.099,719.538,312.349L719.538,312.349z M718.645,301.407
		c0.019,0.25,0.237,0.437,0.486,0.418c0.25-0.019,0.437-0.237,0.418-0.486c-0.019-0.25-0.237-0.437-0.486-0.418
		C718.813,300.941,718.627,301.158,718.645,301.407L718.645,301.407z M717.737,290.471c0.028,0.251,0.25,0.433,0.501,0.412
		c0.248-0.028,0.425-0.252,0.397-0.5c-0.028-0.248-0.252-0.425-0.5-0.397C717.894,290.014,717.717,290.229,717.737,290.471z
		 M760.79,291.531c0.199,0.158,0.486,0.134,0.656-0.055c0.157-0.199,0.124-0.487-0.075-0.644c-0.192-0.152-0.469-0.126-0.63,0.058
		C760.583,291.083,760.605,291.365,760.79,291.531L760.79,291.531z M739.189,301.808c0.125,0.215,0.393,0.3,0.619,0.196
		c0.217-0.121,0.297-0.394,0.182-0.613c-0.108-0.222-0.375-0.314-0.596-0.206c-0.003,0.001-0.005,0.003-0.008,0.004
		C739.16,301.305,739.072,301.582,739.189,301.808C739.189,301.807,739.189,301.808,739.189,301.808z M734.169,292.036
		c0.116,0.225,0.393,0.313,0.618,0.197c0,0,0.001,0,0.001,0c0.217-0.113,0.301-0.381,0.188-0.598c0,0,0,0,0-0.001
		c-0.111-0.223-0.382-0.313-0.604-0.202C734.148,291.543,734.057,291.814,734.169,292.036L734.169,292.036z M733.557,306.805
		c0.111,0.222,0.381,0.313,0.603,0.202c0.222-0.111,0.313-0.381,0.202-0.603c-0.108-0.217-0.368-0.309-0.589-0.209
		C733.545,306.304,733.448,306.577,733.557,306.805L733.557,306.805z M728.967,296.881c0.109,0.228,0.382,0.325,0.61,0.217
		c0.219-0.109,0.317-0.369,0.222-0.596c-0.113-0.227-0.382-0.328-0.616-0.231C728.96,296.384,728.865,296.652,728.967,296.881
		L728.967,296.881z M724.377,286.956c0.109,0.228,0.382,0.325,0.61,0.217c0.227-0.102,0.328-0.367,0.227-0.594
		c-0.102-0.227-0.367-0.328-0.594-0.227c-0.002,0.001-0.004,0.002-0.006,0.003C724.387,286.46,724.283,286.725,724.377,286.956z
		 M709.572,295.316c0.012,0.246,0.222,0.436,0.468,0.424c0.001,0,0.003,0,0.004,0c0.25-0.006,0.448-0.213,0.444-0.463
		c-0.014-0.252-0.226-0.446-0.478-0.438C709.76,294.855,709.568,295.065,709.572,295.316z M748.284,289.316
		c0.189,0.167,0.477,0.151,0.647-0.035c0.166-0.183,0.153-0.465-0.029-0.632c-0.172-0.172-0.452-0.172-0.624,0
		c-0.005,0.005-0.009,0.009-0.014,0.014c-0.175,0.18-0.171,0.468,0.009,0.642C748.277,289.309,748.281,289.313,748.284,289.316z
		 M729.334,288.405c0.114,0.15,0.329,0.18,0.479,0.065c0.146-0.111,0.179-0.319,0.073-0.469c-0.102-0.149-0.305-0.187-0.455-0.085
		c-0.01,0.007-0.019,0.014-0.028,0.021C729.258,288.05,729.228,288.256,729.334,288.405L729.334,288.405z M712.152,291.725
		c0.051,0.18,0.235,0.288,0.417,0.242c0.176-0.056,0.281-0.236,0.242-0.417c-0.047-0.181-0.233-0.29-0.414-0.243
		c-0.001,0-0.002,0.001-0.003,0.001c-0.177,0.04-0.288,0.216-0.248,0.393C712.148,291.709,712.15,291.717,712.152,291.725
		L712.152,291.725z"/>
	
		<linearGradient id="front_1_" gradientUnits="userSpaceOnUse" x1="474.4128" y1="331.2852" x2="594.9066" y2="332.4901" gradientTransform="matrix(1 0 0 -1 0 722)">
		<stop  offset="0" style="stop-color:#EEEEEE"/>
		<stop  offset="1" style="stop-color:#DCE3EA"/>
	</linearGradient>
	<rect id="front" x="519.48" y="383.16" style="fill:url(#front_1_);" width="144.83" height="12.76"/>
</g>
<g id="woman">
	
		<linearGradient id="L_shoe_1_" gradientUnits="userSpaceOnUse" x1="529.5854" y1="119.9928" x2="454.1124" y2="109.7011" gradientTransform="matrix(1 0 0 -1 0 722)">
		<stop  offset="0" style="stop-color:#A1C3FC"/>
		<stop  offset="0.6955" style="stop-color:#81AEF2"/>
		<stop  offset="0.8442" style="stop-color:#7DACF1"/>
		<stop  offset="1" style="stop-color:#78A9EF"/>
	</linearGradient>
	<path id="L_shoe" style="fill:url(#L_shoe_1_);" d="M452.782,585.224l-15.075,42.053l106.427,0.003c0,0-5.457-10.526-23.648-18.322
		s-35.171-23.734-35.171-23.734H452.782"/>
	
		<linearGradient id="R_shoe_1_" gradientUnits="userSpaceOnUse" x1="434.1061" y1="115.4143" x2="294.3097" y2="91.4002" gradientTransform="matrix(1 0 0 -1 0 722)">
		<stop  offset="0" style="stop-color:#A1C3FC"/>
		<stop  offset="0.6955" style="stop-color:#81AEF2"/>
		<stop  offset="1" style="stop-color:#78A9EF"/>
	</linearGradient>
	<path id="R_shoe" style="fill:url(#R_shoe_1_);" d="M390.374,585.224l-15.075,42.053l106.427,0.003c0,0-5.457-10.526-23.648-18.322
		s-32.968-23.739-32.968-23.739L390.374,585.224"/>
	
		<linearGradient id="_4_1_" gradientUnits="userSpaceOnUse" x1="517.8203" y1="400.9272" x2="515.2281" y2="352.2535" gradientTransform="matrix(1 0 0 -1 0 722)">
		<stop  offset="0" style="stop-color:#A1C3FC"/>
		<stop  offset="0.6955" style="stop-color:#81AEF2"/>
		<stop  offset="1" style="stop-color:#78A9EF"/>
	</linearGradient>
	<polyline id="_4" style="fill:url(#_4_1_);" points="478.451,337.344 477.601,361.716 503.956,353.781 555.532,335.927 
		478.451,337.344 	"/>
	
		<linearGradient id="_3_1_" gradientUnits="userSpaceOnUse" x1="477.7046" y1="378.7538" x2="516.7203" y2="373.4771" gradientTransform="matrix(1 0 0 -1 0 722)">
		<stop  offset="0" style="stop-color:#A1C3FC"/>
		<stop  offset="0.6955" style="stop-color:#81AEF2"/>
		<stop  offset="1" style="stop-color:#78A9EF"/>
	</linearGradient>
	<polygon id="_3" style="fill:url(#_3_1_);" points="481.851,339.328 479.33,361.311 555.532,335.927 	"/>
	
		<linearGradient id="_2_1_" gradientUnits="userSpaceOnUse" x1="513.1857" y1="386.8776" x2="564.4719" y2="383.847" gradientTransform="matrix(1 0 0 -1 0 722)">
		<stop  offset="0" style="stop-color:#A1C3FC"/>
		<stop  offset="0.2365" style="stop-color:#96BCF9"/>
		<stop  offset="0.6955" style="stop-color:#81AEF2"/>
		<stop  offset="1" style="stop-color:#78A9EF"/>
	</linearGradient>
	<polyline id="_2" style="fill:url(#_2_1_);" points="555.532,335.927 464.848,327.992 478.451,337.344 555.532,335.927 	"/>
	
		<linearGradient id="L_trousers_1_" gradientUnits="userSpaceOnUse" x1="576.4349" y1="148.5277" x2="430.2269" y2="260.399" gradientTransform="matrix(1 0 0 -1 0 722)">
		<stop  offset="0.1291" style="stop-color:#428DFC"/>
		<stop  offset="0.9987" style="stop-color:#1D72D8"/>
	</linearGradient>
	<path id="L_trousers" style="fill:url(#L_trousers_1_);" d="M450.464,394.058c-31.469-3.261-81.296-4.8-81.296-4.8l-73.632,12.855
		c0,0-15.179,33.834,45.051,36.965c28.7,1.492,90.114,13.733,104.822,7.537c2.719-1.156,5.86,0.111,7.016,2.83
		c0.316,0.743,0.46,1.548,0.42,2.355c-0.308,5.784-0.333,8.784-8.513,31.028c-12.419,33.772-4.203,79.633,8.449,102.395h32.532
		c1.651-9.294,22.105-134.385,22.761-154.57C509.107,398.876,472.674,396.36,450.464,394.058z"/>
	<path id="R_trousers" style="fill:#428DFC;" d="M277.242,376.437c0,0-24.507,55.707,33.529,72.118
		c27.655,7.82,87.025,7.295,102.742,4.515c2.908-0.524,5.69,1.408,6.214,4.316c0.143,0.795,0.105,1.612-0.113,2.389
		c-1.583,5.572-2.273,8.491-15.183,28.367c-22.136,34.081-25.902,71.256-14.057,97.081l34.735-0.004c0,0,50.037-118.5,57.783-138.05
		c11.013-27.795-13.054-40.873-44.053-47.199s-86.948-19.738-86.948-19.738L277.242,376.437"/>
	<path id="texture-3" style="opacity:0.86;fill:#FFFFFF;enable-background:new    ;" d="M310.664,413.652
		c0.116,0.049,0.249-0.004,0.299-0.12s-0.004-0.249-0.12-0.299c-0.116-0.049-0.249,0.004-0.299,0.12c0,0,0,0,0,0
		C310.495,413.469,310.548,413.603,310.664,413.652C310.664,413.652,310.664,413.652,310.664,413.652z M312.807,408.515
		c0.121,0.047,0.257-0.006,0.314-0.122c0.043-0.119-0.017-0.251-0.136-0.297c-0.106-0.053-0.235-0.01-0.289,0.096
		c-0.004,0.008-0.007,0.016-0.01,0.024C312.638,408.332,312.691,408.466,312.807,408.515
		C312.807,408.515,312.807,408.515,312.807,408.515z M333.993,413.593c0.047,0.12,0.182,0.179,0.302,0.132c0,0,0,0,0,0
		c0.111-0.04,0.168-0.162,0.128-0.273c-0.003-0.009-0.007-0.019-0.012-0.027c-0.043-0.116-0.171-0.176-0.287-0.134
		C334.005,413.338,333.946,413.473,333.993,413.593C333.993,413.593,333.993,413.593,333.993,413.593z M302.652,404.638
		c0.086,0.088,0.228,0.09,0.316,0.004c0.088-0.086,0.09-0.228,0.004-0.316c-0.086-0.088-0.228-0.09-0.316-0.004
		c-0.088,0.077-0.097,0.212-0.019,0.3C302.641,404.628,302.647,404.633,302.652,404.638L302.652,404.638z M322.176,412.863
		c0.008,0.127,0.11,0.228,0.238,0.235c0.131-0.001,0.236-0.107,0.235-0.238s-0.107-0.236-0.238-0.235
		C322.284,412.634,322.183,412.736,322.176,412.863L322.176,412.863z M280.312,415.031c0.154,0.182,0.427,0.205,0.609,0.051
		c0.004-0.003,0.008-0.007,0.012-0.01c0.179-0.154,0.199-0.424,0.045-0.602c-0.001-0.001-0.002-0.002-0.002-0.003
		c-0.154-0.182-0.427-0.205-0.609-0.051c-0.004,0.003-0.008,0.007-0.012,0.01c-0.179,0.154-0.199,0.423-0.045,0.602
		C280.311,415.029,280.312,415.03,280.312,415.031z M288.279,408.11c0.16,0.182,0.438,0.2,0.62,0.04
		c0.182-0.16,0.201-0.438,0.04-0.62l0,0c-0.154-0.179-0.424-0.199-0.602-0.045c-0.001,0.001-0.002,0.002-0.003,0.002
		C288.153,407.646,288.129,407.92,288.279,408.11L288.279,408.11z M312.009,441.486c-0.012,0.241,0.171,0.447,0.411,0.464
		c0.231,0.025,0.438-0.141,0.464-0.372c0.001-0.008,0.001-0.016,0.002-0.024c0.012-0.241-0.171-0.447-0.411-0.463
		C312.237,441.071,312.029,441.248,312.009,441.486C312.009,441.485,312.009,441.486,312.009,441.486L312.009,441.486z
		 M312.744,430.962c-0.014,0.242,0.17,0.449,0.411,0.464c0.242,0.014,0.449-0.17,0.464-0.411l0,0
		c0.019-0.238-0.157-0.446-0.395-0.466c0,0,0,0-0.001,0C312.98,430.54,312.772,430.72,312.744,430.962L312.744,430.962z
		 M313.493,420.42c-0.019,0.237,0.159,0.444,0.396,0.463c0.005,0,0.01,0.001,0.016,0.001c0.231,0.025,0.438-0.141,0.464-0.372
		c0.001-0.008,0.001-0.016,0.002-0.024c0.008-0.243-0.172-0.451-0.413-0.479C313.716,419.996,313.509,420.179,313.493,420.42
		L313.493,420.42z M314.228,409.895c-0.014,0.241,0.17,0.449,0.411,0.463s0.449-0.17,0.463-0.411
		c0.02-0.238-0.157-0.446-0.395-0.466c0,0,0,0-0.001,0c-0.241-0.023-0.455,0.154-0.478,0.395
		C314.229,409.883,314.228,409.889,314.228,409.895L314.228,409.895z M275.493,396.839c0.078,0.229,0.327,0.352,0.556,0.274
		s0.352-0.327,0.274-0.556c-0.001-0.002-0.001-0.004-0.002-0.006c-0.081-0.227-0.329-0.347-0.558-0.27
		c-0.227,0.077-0.349,0.323-0.273,0.55C275.491,396.834,275.492,396.837,275.493,396.839L275.493,396.839z M291.942,431.16
		c0.217,0.1,0.475,0.005,0.575-0.213s0.005-0.475-0.213-0.575c-0.213-0.098-0.465-0.009-0.569,0.201
		C291.634,430.793,291.726,431.053,291.942,431.16z M296.658,421.709c0.217,0.1,0.475,0.005,0.575-0.213
		c0.1-0.217,0.005-0.475-0.213-0.575c-0.213-0.098-0.465-0.009-0.569,0.201C296.349,421.342,296.441,421.602,296.658,421.709
		L296.658,421.709z M301.375,412.273c0.222,0.103,0.487,0.007,0.59-0.215c0.1-0.215,0.014-0.47-0.196-0.58
		c-0.217-0.114-0.486-0.031-0.6,0.186c-0.114,0.217-0.031,0.486,0.186,0.6C301.362,412.267,301.369,412.27,301.375,412.273z
		 M332.003,434.083c0.081,0.227,0.329,0.347,0.558,0.27c0.224-0.073,0.346-0.314,0.273-0.537c-0.001-0.002-0.001-0.003-0.002-0.005
		c-0.059-0.224-0.289-0.357-0.512-0.297c-0.011,0.003-0.022,0.006-0.032,0.01C332.063,433.608,331.939,433.851,332.003,434.083z
		 M328.661,424.06c0.085,0.226,0.328,0.349,0.56,0.285c0.227-0.081,0.347-0.329,0.27-0.558c-0.077-0.227-0.323-0.349-0.55-0.272
		c-0.003,0.001-0.005,0.002-0.008,0.003c-0.224,0.073-0.346,0.313-0.274,0.537C328.66,424.057,328.66,424.058,328.661,424.06z
		 M325.321,414.052c0.067,0.221,0.301,0.346,0.523,0.278c0.007-0.002,0.013-0.004,0.02-0.007c0.229-0.068,0.36-0.309,0.292-0.539
		c-0.002-0.007-0.004-0.014-0.007-0.021c-0.079-0.228-0.329-0.349-0.558-0.27S325.241,413.824,325.321,414.052z M282.801,426.291
		c0.182,0.113,0.42,0.059,0.535-0.121c0.116-0.18,0.064-0.42-0.116-0.536c-0.18-0.116-0.42-0.064-0.536,0.116
		c-0.001,0.002-0.003,0.004-0.004,0.007C282.569,425.938,282.623,426.175,282.801,426.291L282.801,426.291z M287.797,418.299
		c0.182,0.112,0.419,0.058,0.535-0.121c0.12-0.178,0.073-0.419-0.105-0.539c-0.178-0.12-0.419-0.073-0.539,0.105
		c-0.004,0.007-0.009,0.013-0.013,0.02c-0.116,0.175-0.068,0.41,0.107,0.526C287.788,418.293,287.793,418.296,287.797,418.299
		L287.797,418.299z M292.635,410.077c0.015,0.097,0.073,0.181,0.158,0.23c0.182,0.112,0.419,0.058,0.535-0.121
		c0.118-0.185,0.065-0.43-0.12-0.548c-0.001-0.001-0.002-0.001-0.004-0.002c-0.11-0.07-0.247-0.08-0.367-0.028l-0.015,0.002
		c-0.069,0.027-0.124,0.08-0.153,0.147C292.605,409.851,292.592,409.971,292.635,410.077L292.635,410.077z M297.79,402.315
		c0.186,0.112,0.429,0.052,0.541-0.134c0.111-0.184,0.053-0.424-0.129-0.537c-0.182-0.113-0.42-0.059-0.535,0.121
		c-0.118,0.185-0.064,0.43,0.12,0.549C297.787,402.314,297.788,402.315,297.79,402.315L297.79,402.315z M321.752,432.585
		c0.057,0.211,0.269,0.341,0.483,0.296c0.203-0.045,0.331-0.246,0.286-0.449c-0.001-0.005-0.003-0.011-0.004-0.016
		c-0.044-0.21-0.25-0.344-0.46-0.3c-0.002,0.001-0.005,0.001-0.007,0.002C321.844,432.171,321.714,432.375,321.752,432.585
		L321.752,432.585z M319.647,423.415c0.051,0.206,0.259,0.332,0.465,0.283c0.203-0.045,0.331-0.246,0.287-0.449
		c-0.001-0.005-0.003-0.011-0.004-0.016c-0.044-0.21-0.25-0.344-0.46-0.3c-0.002,0-0.005,0.001-0.007,0.002
		C319.72,422.993,319.596,423.206,319.647,423.415L319.647,423.415z M317.523,414.217c0.044,0.21,0.25,0.344,0.46,0.3
		c0.002-0.001,0.005-0.001,0.007-0.002c0.199-0.038,0.329-0.23,0.291-0.429c-0.002-0.012-0.005-0.024-0.009-0.036
		c-0.044-0.21-0.25-0.344-0.46-0.3c-0.002,0-0.005,0.001-0.007,0.002C317.602,413.807,317.478,414.011,317.523,414.217
		L317.523,414.217z M278.86,403.737c0.122,0.173,0.36,0.214,0.533,0.092c0.005-0.003,0.01-0.007,0.014-0.011
		c0.169-0.114,0.213-0.344,0.098-0.513c-0.004-0.007-0.009-0.013-0.014-0.019c-0.12-0.178-0.361-0.225-0.538-0.105
		c-0.004,0.003-0.008,0.005-0.011,0.008C278.772,403.321,278.736,403.562,278.86,403.737L278.86,403.737z M286.538,398.259
		c0.121,0.173,0.359,0.218,0.534,0.099c0.178-0.125,0.221-0.371,0.097-0.55c-0.13-0.171-0.369-0.213-0.55-0.097
		c-0.174,0.128-0.211,0.372-0.083,0.546C286.537,398.258,286.537,398.259,286.538,398.259L286.538,398.259z M301.542,428.286
		c-0.029,0.213,0.117,0.41,0.329,0.443c0.21,0.036,0.409-0.104,0.445-0.314c0.032-0.213-0.106-0.414-0.316-0.461
		C301.783,427.922,301.579,428.069,301.542,428.286z M303.109,418.987c-0.042,0.202,0.089,0.4,0.291,0.441
		c0.008,0.002,0.015,0.003,0.023,0.004c0.21,0.036,0.409-0.104,0.445-0.314c0.032-0.213-0.106-0.414-0.316-0.461
		C303.339,418.629,303.142,418.775,303.109,418.987z M304.66,409.69c-0.036,0.21,0.104,0.409,0.314,0.445
		c0.21,0.036,0.409-0.104,0.445-0.314l0,0c0.036-0.21-0.104-0.409-0.314-0.445C304.896,409.34,304.696,409.48,304.66,409.69z
		 M336.828,420.754c0.114,0.169,0.344,0.213,0.513,0.098c0.007-0.004,0.013-0.009,0.019-0.014c0.178-0.12,0.225-0.361,0.105-0.538
		c-0.003-0.004-0.005-0.008-0.008-0.011c-0.131-0.169-0.372-0.205-0.547-0.082c-0.173,0.122-0.214,0.361-0.092,0.533
		C336.821,420.744,336.825,420.749,336.828,420.754L336.828,420.754z M331.351,413.076c0.127,0.175,0.37,0.219,0.55,0.097
		c0.174-0.131,0.209-0.379,0.078-0.553c-0.125-0.166-0.356-0.207-0.53-0.094c-0.177,0.116-0.227,0.354-0.111,0.531
		C331.342,413.063,331.346,413.07,331.351,413.076L331.351,413.076z M283.416,402.933c0.095,0.087,0.242,0.081,0.329-0.014
		c0.087-0.095,0.081-0.242-0.014-0.329c-0.095-0.087-0.242-0.081-0.329,0.014C283.319,402.7,283.325,402.844,283.416,402.933
		L283.416,402.933z M287.206,398.876c0.095,0.087,0.242,0.081,0.329-0.014s0.081-0.242-0.014-0.329s-0.242-0.081-0.329,0.014
		c0,0,0,0,0,0C287.11,398.643,287.116,398.787,287.206,398.876L287.206,398.876z M305.264,410.978
		c0.004,0.126,0.11,0.224,0.235,0.22s0.224-0.11,0.22-0.235s-0.11-0.224-0.235-0.22l0,0
		C305.358,410.747,305.26,410.852,305.264,410.978C305.264,410.978,305.264,410.978,305.264,410.978L305.264,410.978z
		 M305.063,405.424c0.012,0.128,0.122,0.224,0.251,0.218c0.126-0.004,0.224-0.109,0.22-0.235c0,0,0,0,0,0
		c0.001-0.121-0.097-0.22-0.218-0.22c-0.006,0-0.012,0-0.017,0.001c-0.129-0.001-0.234,0.103-0.235,0.232
		C305.063,405.42,305.063,405.422,305.063,405.424L305.063,405.424z M294.472,406.37c0.119,0.035,0.246-0.023,0.297-0.136
		c0.047-0.115-0.009-0.246-0.124-0.292c-0.004-0.002-0.008-0.003-0.012-0.005c-0.112-0.048-0.241,0.004-0.289,0.115
		c-0.003,0.007-0.005,0.013-0.008,0.02C294.293,406.192,294.353,406.324,294.472,406.37L294.472,406.37z M296.432,401.163
		c0.119,0.035,0.246-0.023,0.297-0.136c0.04-0.119-0.019-0.249-0.136-0.297c-0.11-0.051-0.241-0.004-0.293,0.106
		c-0.002,0.005-0.004,0.009-0.006,0.014c-0.051,0.119,0.005,0.256,0.123,0.306C296.422,401.159,296.427,401.161,296.432,401.163
		L296.432,401.163z M279.449,408.449c0.116,0.076,0.272,0.043,0.347-0.073c0.001-0.002,0.003-0.004,0.004-0.007
		c0.08-0.117,0.051-0.276-0.066-0.356c-0.005-0.004-0.011-0.007-0.017-0.011c-0.116-0.076-0.272-0.043-0.347,0.073
		c-0.001,0.002-0.003,0.004-0.004,0.007C279.29,408.206,279.327,408.369,279.449,408.449L279.449,408.449z M282.856,403.105
		c0.125,0.077,0.289,0.038,0.366-0.087c0.075-0.123,0.039-0.283-0.081-0.362c-0.116-0.076-0.272-0.043-0.347,0.073
		c-0.001,0.002-0.003,0.004-0.004,0.007c-0.085,0.113-0.063,0.273,0.05,0.358C282.845,403.097,282.85,403.101,282.856,403.105
		L282.856,403.105z M286.279,397.759c0.111,0.063,0.251,0.044,0.34-0.047c0.013-0.018,0.029-0.02,0.027-0.035
		c0.079-0.124,0.042-0.288-0.082-0.367c-0.124-0.079-0.288-0.042-0.367,0.082C286.118,397.516,286.155,397.68,286.279,397.759z
		 M305.635,412.977c0.022,0.133,0.148,0.223,0.281,0.2c0.01-0.002,0.02-0.004,0.03-0.007c0.139-0.033,0.225-0.172,0.194-0.311
		c-0.037-0.138-0.171-0.227-0.313-0.209c-0.143,0.037-0.228,0.182-0.192,0.324C305.635,412.975,305.635,412.976,305.635,412.977
		L305.635,412.977z M304.258,406.781c0.036,0.143,0.182,0.228,0.324,0.192c0.001,0,0.001,0,0.002-0.001
		c0.139-0.033,0.225-0.172,0.193-0.311c-0.037-0.138-0.171-0.227-0.313-0.209C304.322,406.494,304.233,406.635,304.258,406.781
		L304.258,406.781z M277.424,393.134c0.082,0.114,0.24,0.142,0.355,0.061c0.123-0.077,0.159-0.24,0.082-0.362
		c-0.002-0.004-0.005-0.007-0.007-0.011c-0.087-0.118-0.253-0.143-0.371-0.056C277.366,392.852,277.34,393.016,277.424,393.134
		L277.424,393.134z M292.635,410.077c0.031,0.022,0.065,0.039,0.101,0.049c0.14,0.026,0.274-0.066,0.3-0.206
		c0.001-0.003,0.001-0.006,0.001-0.009c0.022-0.138-0.064-0.269-0.2-0.303l-0.015,0.002c-0.14-0.026-0.274,0.066-0.3,0.206
		c-0.001,0.003-0.001,0.006-0.001,0.009C292.502,409.924,292.547,410.026,292.635,410.077L292.635,410.077z M293.642,403.567
		c-0.029,0.138,0.058,0.273,0.196,0.303c0.001,0,0.002,0,0.004,0.001c0.143,0.025,0.281-0.062,0.319-0.202
		c0.019-0.146-0.075-0.282-0.217-0.317C293.801,403.329,293.667,403.425,293.642,403.567L293.642,403.567z M284.306,425.547
		c-0.04,0.245,0.126,0.476,0.371,0.516c0.245,0.04,0.476-0.126,0.516-0.371c0.04-0.245-0.126-0.476-0.371-0.516
		C284.578,425.137,284.347,425.302,284.306,425.547L284.306,425.547z M285.988,414.797c-0.032,0.248,0.14,0.476,0.387,0.514
		c0.245,0.031,0.469-0.143,0.499-0.389c0.031-0.245-0.143-0.469-0.389-0.499C286.246,414.393,286.026,414.559,285.988,414.797z
		 M287.685,404.045c-0.04,0.245,0.126,0.476,0.371,0.516c0.245,0.04,0.476-0.126,0.516-0.371s-0.126-0.476-0.371-0.516
		C287.956,403.634,287.725,403.8,287.685,404.045L287.685,404.045z M327.226,425.883c0.154,0.199,0.437,0.243,0.645,0.1
		c0.198-0.155,0.233-0.44,0.078-0.638c-0.149-0.191-0.422-0.231-0.62-0.091C327.131,425.402,327.086,425.679,327.226,425.883z
		 M320.821,417.087c0.149,0.197,0.426,0.242,0.629,0.102c0.202-0.146,0.248-0.427,0.102-0.629s-0.427-0.248-0.629-0.102
		C320.724,416.606,320.679,416.885,320.821,417.087z M274.471,405.637c0.214,0.132,0.494,0.064,0.626-0.15s0.064-0.494-0.15-0.626
		s-0.494-0.064-0.626,0.15C274.196,405.226,274.262,405.502,274.471,405.637L274.471,405.637z M280.138,396.338
		c0.205,0.137,0.483,0.082,0.621-0.123c0.002-0.004,0.005-0.007,0.007-0.011c0.127-0.215,0.061-0.491-0.15-0.626
		c-0.211-0.132-0.489-0.069-0.621,0.142c-0.002,0.003-0.003,0.005-0.005,0.008C279.864,395.937,279.929,396.21,280.138,396.338
		L280.138,396.338z M304.009,430.736c0.07,0.237,0.309,0.381,0.551,0.334c0.237-0.066,0.378-0.31,0.318-0.549
		c-0.052-0.239-0.288-0.39-0.527-0.338c-0.003,0.001-0.006,0.001-0.009,0.002C304.099,430.244,303.949,430.491,304.009,430.736
		C304.009,430.735,304.009,430.735,304.009,430.736L304.009,430.736z M301.456,420.146c0.06,0.244,0.306,0.394,0.55,0.334
		c0,0,0.001,0,0.001,0c0.236-0.059,0.379-0.297,0.321-0.533c0,0,0,0,0-0.001c-0.054-0.241-0.293-0.392-0.534-0.338
		c-0.241,0.054-0.392,0.293-0.338,0.534C301.455,420.144,301.455,420.145,301.456,420.146L301.456,420.146z M298.904,409.572
		c0.052,0.239,0.288,0.39,0.526,0.338c0.003-0.001,0.006-0.001,0.009-0.002c0.246-0.052,0.403-0.293,0.351-0.539
		c-0.052-0.246-0.293-0.403-0.539-0.351c-0.246,0.052-0.403,0.293-0.351,0.539C298.902,409.562,298.903,409.567,298.904,409.572z
		 M297.414,434.234c0.055,0.24,0.294,0.39,0.534,0.336c0.24-0.055,0.39-0.294,0.335-0.534c-0.053-0.234-0.283-0.384-0.518-0.339
		C297.52,433.749,297.363,433.989,297.414,434.234L297.414,434.234z M295.311,423.598c0.052,0.245,0.292,0.402,0.537,0.351
		c0.237-0.054,0.392-0.282,0.354-0.522c-0.056-0.245-0.291-0.405-0.54-0.367C295.421,423.118,295.266,423.354,295.311,423.598
		L295.311,423.598z M293.208,412.962c0.052,0.245,0.292,0.402,0.537,0.351c0.242-0.047,0.4-0.28,0.354-0.522
		c-0.047-0.242-0.28-0.4-0.522-0.354l0,0C293.334,412.486,293.171,412.717,293.208,412.962z M291.121,402.324
		c0.037,0.236,0.258,0.396,0.494,0.359c0.009-0.001,0.019-0.003,0.028-0.005c0.24-0.049,0.398-0.281,0.353-0.522
		c-0.046-0.242-0.279-0.401-0.521-0.355c-0.242,0.046-0.401,0.279-0.355,0.521C291.12,402.321,291.121,402.323,291.121,402.324z
		 M276.988,417.556c-0.046,0.24,0.112,0.472,0.352,0.518c0.001,0,0.002,0,0.004,0.001c0.242,0.052,0.482-0.1,0.536-0.342
		c0.046-0.246-0.113-0.483-0.358-0.534C277.277,417.157,277.042,417.314,276.988,417.556z M279.126,406.917
		c-0.052,0.241,0.102,0.479,0.344,0.531s0.479-0.102,0.531-0.344c0.001-0.003,0.001-0.006,0.002-0.009
		c0.042-0.245-0.115-0.48-0.358-0.534c-0.24-0.046-0.472,0.112-0.518,0.352C279.127,406.914,279.127,406.915,279.126,406.917
		L279.126,406.917z M281.251,396.294c-0.041,0.248,0.127,0.482,0.375,0.522c0.236,0.039,0.462-0.113,0.516-0.346
		c0.049-0.246-0.111-0.485-0.358-0.534S281.3,396.048,281.251,396.294z M315.693,420.825c0.143,0.205,0.424,0.257,0.631,0.118
		c0.203-0.137,0.256-0.413,0.12-0.616c-0.126-0.206-0.395-0.272-0.602-0.146c-0.006,0.003-0.011,0.007-0.016,0.011
		c-0.211,0.133-0.274,0.411-0.141,0.621C315.688,420.816,315.691,420.821,315.693,420.825L315.693,420.825z M309.683,411.801
		c0.143,0.205,0.424,0.257,0.631,0.118c0.203-0.137,0.256-0.413,0.12-0.616c-0.126-0.206-0.395-0.272-0.602-0.146
		c-0.006,0.003-0.011,0.007-0.016,0.011c-0.21,0.133-0.274,0.411-0.141,0.621C309.677,411.793,309.68,411.797,309.683,411.801
		L309.683,411.801z M297.646,415.517c0.075,0.172,0.274,0.25,0.446,0.176c0.168-0.073,0.247-0.266,0.18-0.436
		c-0.063-0.167-0.251-0.252-0.418-0.188c-0.011,0.004-0.021,0.009-0.032,0.014C297.656,415.157,297.578,415.349,297.646,415.517
		L297.646,415.517z M294.431,408.015c0.076,0.172,0.277,0.251,0.449,0.175c0.172-0.076,0.251-0.277,0.175-0.449
		c0,0,0-0.001-0.001-0.001c-0.072-0.171-0.268-0.251-0.439-0.179c-0.004,0.002-0.007,0.003-0.011,0.005
		C294.436,407.644,294.359,407.843,294.431,408.015L294.431,408.015z M291.215,400.497c0.076,0.172,0.277,0.25,0.45,0.174
		c0.172-0.076,0.25-0.277,0.174-0.45c-0.076-0.172-0.277-0.25-0.45-0.174l0,0C291.22,400.126,291.143,400.325,291.215,400.497
		L291.215,400.497z M280.314,414.699c0.007,0.186,0.16,0.332,0.345,0.331c0.183-0.013,0.326-0.162,0.331-0.345
		c-0.003-0.186-0.156-0.334-0.342-0.331c-0.001,0-0.002,0-0.003,0c-0.18-0.003-0.328,0.141-0.331,0.321
		C280.313,414.683,280.313,414.691,280.314,414.699L280.314,414.699z M280.206,406.515c0.008,0.188,0.159,0.339,0.348,0.346
		c0.186-0.003,0.334-0.156,0.331-0.342c0-0.001,0-0.002,0-0.003c0.004-0.18-0.138-0.329-0.318-0.333c-0.004,0-0.008,0-0.012,0
		c-0.186-0.006-0.342,0.14-0.348,0.327C280.206,406.511,280.206,406.513,280.206,406.515L280.206,406.515z M280.116,398.344
		c-0.003,0.18,0.141,0.328,0.321,0.331c0.008,0,0.016,0,0.024-0.001c0.178,0.006,0.327-0.134,0.333-0.313c0-0.006,0-0.012,0-0.017
		c-0.008-0.188-0.159-0.339-0.348-0.346c-0.186,0.003-0.334,0.156-0.331,0.342C280.116,398.342,280.116,398.343,280.116,398.344
		L280.116,398.344z M278.261,396.677c0.015,0.102,0.109,0.173,0.211,0.16c0.103-0.014,0.175-0.109,0.16-0.212
		c-0.014-0.103-0.109-0.175-0.212-0.16c-0.005,0.001-0.011,0.002-0.016,0.003C278.31,396.489,278.247,396.58,278.261,396.677
		L278.261,396.677z M283.484,403.885c0.093,0.139,0.282,0.177,0.421,0.084c0,0,0,0,0,0c0.133-0.077,0.179-0.247,0.102-0.381
		c-0.005-0.009-0.011-0.017-0.016-0.025c-0.075-0.138-0.249-0.189-0.387-0.114c-0.007,0.004-0.014,0.008-0.021,0.013
		c-0.142,0.082-0.192,0.263-0.11,0.406C283.477,403.873,283.481,403.879,283.484,403.885z M279.558,397.617
		c0.075,0.138,0.249,0.189,0.387,0.114c0.007-0.004,0.014-0.008,0.021-0.013c0.142-0.082,0.192-0.263,0.11-0.406
		c-0.003-0.006-0.007-0.012-0.011-0.018c-0.09-0.143-0.279-0.187-0.424-0.099c-0.138,0.087-0.18,0.269-0.093,0.408
		C279.552,397.608,279.555,397.612,279.558,397.617L279.558,397.617z M275.618,391.366c0.092,0.141,0.279,0.184,0.424,0.099
		c0.143-0.085,0.19-0.271,0.105-0.414c-0.002-0.003-0.004-0.007-0.006-0.01c-0.09-0.143-0.279-0.187-0.424-0.099
		C275.576,391.035,275.533,391.221,275.618,391.366L275.618,391.366z"/>
	
		<linearGradient id="L_hand_1_" gradientUnits="userSpaceOnUse" x1="424.6366" y1="409.5883" x2="448.04" y2="508.8187" gradientTransform="matrix(1 0 0 -1 0 722)">
		<stop  offset="0" style="stop-color:#FFBEB6"/>
		<stop  offset="1" style="stop-color:#F2A19C"/>
	</linearGradient>
	<path id="L_hand" style="fill:url(#L_hand_1_);" d="M459.343,238.714c-0.845-8.066-7.683-14.925-7.683-14.925s0,8.683,0.41,9.421
		s-9.049,4.285-9.049,4.285s-2.923,16.913-6.508,19.276s-6.119-4.467-12.37-6.635s-8.053-0.201-4.108,2.357
		s17.591,14.468,16.108,26.452c-1.758,14.209-18.089,40.449-22.704,47.634c-0.962,0.75-1.545,1.353-1.474,1.679
		c0.347,1.601-8.804,18.746-9.796,22.946s15.736,32.722,15.736,32.722c6.562-4.937,11.818-14.89,15.901-25.887l0.031,0.042
		c13.651-37.117,13.581-77.105,18.741-88.656S460.188,246.779,459.343,238.714z"/>
	
		<linearGradient id="L_sleeve_1_" gradientUnits="userSpaceOnUse" x1="320.1907" y1="389.8253" x2="412.2189" y2="389.8253" gradientTransform="matrix(1 0 0 -1 0 722)">
		<stop  offset="0" style="stop-color:#23286B"/>
		<stop  offset="1" style="stop-color:#151A4F"/>
	</linearGradient>
	<path id="L_sleeve" style="fill:url(#L_sleeve_1_);" d="M392.868,314.548L392.868,314.548c-3.8-9.557-3.58-10.597-4.094-15.425
		c-1.467-13.789,22.966-21.03,22.966-21.03l-20.367-20.367c-48.48,13.118-62.449,41.397-67.803,57.509
		c-6.571,19.773-3.329,33.109,7.701,44.618c8.377,8.741,18.726,9.411,34.951,27.408c14.427,16.003,44.531,19.361,44.531,19.361
		l1.464-78.518C412.219,328.105,402.843,329.178,392.868,314.548z"/>
	
		<linearGradient id="R_hand_1_" gradientUnits="userSpaceOnUse" x1="469.6084" y1="361.2898" x2="374.5407" y2="295.2842" gradientTransform="matrix(1 0 0 -1 0 722)">
		<stop  offset="0" style="stop-color:#FFBEB6"/>
		<stop  offset="0.6465" style="stop-color:#F7ABA5"/>
		<stop  offset="1" style="stop-color:#F2A19C"/>
	</linearGradient>
	<path id="R_hand" style="fill:url(#R_hand_1_);" d="M516.04,355.72c-0.53,2.62-2.9,12.59-8.77,16.43
		c-6.78,4.45-24.09,6.09-36.72,6.79s-51.7,28.07-65.03,29.24l-0.47-40.24c0,0,39.31,4.36,54.97-1.4
		c11.34-4.17,15.68-21.75,16.14-26.43c0.47-4.68,3.04-3.98,3.98,2.57s-3.98,11.93-0.23,14.03c3.74,2.11,20.23-3.08,20.23-3.08
		l0.17,0.13l7.67,6L516.04,355.72z"/>
	
		<linearGradient id="sweater_1_" gradientUnits="userSpaceOnUse" x1="330.8297" y1="423.9138" x2="350.2774" y2="304.505" gradientTransform="matrix(1 0 0 -1 0 722)">
		<stop  offset="0" style="stop-color:#23286B"/>
		<stop  offset="1" style="stop-color:#151A4F"/>
	</linearGradient>
	<path id="sweater" style="fill:url(#sweater_1_);" d="M411.741,278.093l-20.367-20.367l0,0
		c-13.542,1.733-26.672,5.844-38.783,12.144c-6.665,3.494-13.06,7.482-19.13,11.93c-27.85,20.41-27.92,32.4-43.58,44.76
		c-0.031,0.029-0.065,0.056-0.1,0.08c-15.63,12.33-36.18,26.93-29.29,55.4c6.95,4.1,13.587,7.743,19.91,10.93
		c20.76,10.53,38.26,16.57,52.79,19.73c0,0,0.01,0.01,0.01,0c8.723,1.99,17.643,2.993,26.59,2.99
		c7.067,0.039,14.102-0.958,20.88-2.96c2.644-0.791,5.21-1.821,7.667-3.077c6.984-0.988,13.87-2.578,20.581-4.752
		C373.116,351.977,411.741,278.093,411.741,278.093z"/>
	<path id="R_sleeve" style="fill:#23286B;" d="M411.741,278.093c0,0-43.437,27.315-33.513,65.357
		c2.904,11.133,10.095,16.673,23.234,20.814c15.741,4.961,19.845,4.84,19.845,4.84l-4.356,71.153c0,0-33.007,0.635-47.434-15.367
		c-16.226-17.997-29.336-20.222-39.209-27.228c-15.005-10.649-18.877-28.558-17.909-49.372
		c1.822-39.169,30.494-77.446,78.975-90.564l0,0"/>
	
		<linearGradient id="neck_1_" gradientUnits="userSpaceOnUse" x1="389.5818" y1="437.7032" x2="408.4973" y2="463.5875" gradientTransform="matrix(1 0 0 -1 0 722)">
		<stop  offset="0" style="stop-color:#FFBEB6"/>
		<stop  offset="1" style="stop-color:#F2A19C"/>
	</linearGradient>
	<path id="neck" style="fill:url(#neck_1_);" d="M429.892,249.038c0,0-8.725,9.965-18.151,29.055c0,0-16.73,3.879-20.367-20.367
		c0,0,17.589-7.984,18.165-16.524L429.892,249.038z"/>
	<path id="face" style="fill:#FFBEB6;" d="M453.494,224.448c0.002,0.16-0.001,0.278,0.003,0.349
		c0.007,0.023,0.009,0.048,0.004,0.071c0.007,0.64-0.011,1.291-0.046,1.965c-0.383,7.249,3.78,13.661,3.421,15.611
		s-4.409,2.571-6.264,2.415s-5.705,8.523-14.075,12.432c-7.855,3.669-18.186,1.161-24.393-3.902
		c0.033-15.661,2.413-26.284,18.322-30.443c17.364-4.546,19.705-11.307,19.705-11.307
		C452.223,215.607,453.359,219.984,453.494,224.448z"/>
	
		<linearGradient id="hair_1_" gradientUnits="userSpaceOnUse" x1="395.2256" y1="564.2721" x2="414.3892" y2="523.6566" gradientTransform="matrix(1 0 0 -1 2.609461e-05 722)">
		<stop  offset="0" style="stop-color:#E94A47"/>
		<stop  offset="0.9918" style="stop-color:#D62929"/>
	</linearGradient>
	<circle id="hair" style="fill:url(#hair_1_);" cx="403.893" cy="176.098" r="15.388"/>
	<path id="eyeglasses" style="fill:#23286B;" d="M464.105,232.321c1.467-4.007,0.506-8.417-2.14-9.838l-0.001-0.001
		c-2.649-1.416-5.999,0.692-7.467,4.698c-0.168,0.463-0.306,0.936-0.413,1.417c-1.75-0.52-3.52,0.395-5.047,1.49
		c-0.034-0.241-0.045-0.489-0.094-0.724c-0.277-1.919-1.39-3.617-3.041-4.635c-3.065-1.638-6.942,0.809-8.645,5.455
		c-0.811,2.159-1.009,4.5-0.573,6.765c0.26,1.527,1.006,2.928,2.127,3.997c0.279,0.247,0.586,0.461,0.914,0.637
		c1.572,0.801,3.462,0.648,4.885-0.395c1.763-1.24,3.081-3.014,3.76-5.06c0.559-1.531,0.824-3.154,0.782-4.783
		c1.363-1.032,3.107-2.14,4.743-1.613c-0.328,2.755,0.4,5.366,1.963,6.742c0.238,0.211,0.5,0.394,0.78,0.545
		C459.287,238.435,462.637,236.327,464.105,232.321z M444.165,240.163c-1.175,0.872-2.741,1.01-4.05,0.357
		c-1.366-0.853-2.284-2.268-2.504-3.864c-0.384-2.011-0.204-4.089,0.519-6.005c1.488-4.062,4.799-6.242,7.381-4.86
		c0.264,0.142,0.511,0.314,0.736,0.513c0.934,0.898,1.554,2.073,1.768,3.35c0.384,2.011,0.204,4.089-0.519,6.005
		C446.897,237.479,445.729,239.058,444.165,240.163z M457.027,235.956c-2.172-1.164-2.911-4.887-1.658-8.307
		c1.254-3.422,4.037-5.262,6.204-4.103c2.175,1.162,2.911,4.889,1.658,8.307C461.978,235.274,459.194,237.115,457.027,235.956z"/>
	
		<linearGradient id="_1_1_" gradientUnits="userSpaceOnUse" x1="523.0392" y1="387.3824" x2="550.3142" y2="406.2651" gradientTransform="matrix(1 0 0 -1 0 722)">
		<stop  offset="0" style="stop-color:#A1C3FC"/>
		<stop  offset="0.6955" style="stop-color:#81AEF2"/>
		<stop  offset="1" style="stop-color:#78A9EF"/>
	</linearGradient>
	<polygon id="_1" style="fill:url(#_1_1_);" points="481.851,339.328 555.532,335.927 507.976,359.756 	"/>
	<path id="hair-2" style="fill:#E94A47;" d="M422.089,187.964c-9.413-1.918-16.764-0.289-22.192,2.924
		c-6.464-0.402-11.751-5.3-12.644-11.715c-0.105-0.633-1.069-0.365-0.964,0.266c0.928,6.355,5.905,11.354,12.256,12.311
		c-3.565,2.425-6.455,5.716-8.4,9.563c-0.417,0.591-0.829,1.19-1.235,1.803c-3.698,5.58-7.31,9.805-13.4,12.905
		c-8.068,4.108-18.613,7.891-18.664,18.614c0.01,0.276,0.241,0.492,0.517,0.483c0.263-0.009,0.474-0.22,0.483-0.483
		c0.062-13.101,15.857-14.874,24.045-21.34c2.131-1.775,3.991-3.852,5.521-6.164c-2.397,4.749-6.097,10.375-12.431,12.587
		c-11.912,4.16-13.974,18.293-13.974,18.293c20.728,19.693,57.96,20.657,57.96,20.657c7.837-16.964-1.57-25.126,12.767-31.834
		c16.262-7.609,18.432-15.198,18.432-15.198c2.11,4.1,3.25,8.629,3.333,13.239C460.464,201.581,439.686,191.549,422.089,187.964z"/>
</g>
</svg>
