<?xml version="1.0" encoding="utf-8"?>
<!-- Generator: Adobe Illustrator 23.0.2, SVG Export Plug-In . SVG Version: 6.00 Build 0)  -->
<svg version="1.1" id="Layer_1" xmlns="http://www.w3.org/2000/svg" xmlns:xlink="http://www.w3.org/1999/xlink" x="0px" y="0px" viewBox="0 0 900 600" style="enable-background:new 0 0 900 600;" xml:space="preserve">

<g id="illustration">
	<g id="kid">
		<path id="luggage" d="M315.7,421.1h59.4c8.3,0,15.1,6.7,15.1,15.1v82.4c0,8.3-6.7,15.1-15.1,15.1h-59.4
			c-8.3,0-15.1-6.7-15.1-15.1v-82.4C300.6,427.8,307.4,421.1,315.7,421.1z" style="fill:#23286B;"/>
		
			<linearGradient id="L_wheel_1_" gradientUnits="userSpaceOnUse" x1="320.1118" y1="59.4942" x2="336.7623" y2="59.4274" gradientTransform="matrix(1 0 0 -1 0 602)">
			<stop offset="0" style="stop-color:#A1C3FC"/>
			<stop offset="0.6955" style="stop-color:#81AEF2"/>
			<stop offset="1" style="stop-color:#78A9EF"/>
		</linearGradient>
		<circle id="L_wheel" cx="323.1" cy="542.5" r="8.9" style="fill:url(#L_wheel_1_);"/>
		
			<linearGradient id="R_wheel_1_" gradientUnits="userSpaceOnUse" x1="364.6956" y1="59.4942" x2="381.3462" y2="59.4274" gradientTransform="matrix(1 0 0 -1 0 602)">
			<stop offset="0" style="stop-color:#A1C3FC"/>
			<stop offset="0.6955" style="stop-color:#81AEF2"/>
			<stop offset="1" style="stop-color:#78A9EF"/>
		</linearGradient>
		<circle id="R_wheel" cx="367.7" cy="542.5" r="8.9" style="fill:url(#R_wheel_1_);"/>
		
			<linearGradient id="sticker_1_1_" gradientUnits="userSpaceOnUse" x1="352.3867" y1="158.271" x2="366.5916" y2="158.271" gradientTransform="matrix(1 0 0 -1 0 602)">
			<stop offset="0" style="stop-color:#A1C3FC"/>
			<stop offset="0.6955" style="stop-color:#81AEF2"/>
			<stop offset="1" style="stop-color:#78A9EF"/>
		</linearGradient>
		<circle id="sticker_1" cx="359.5" cy="443.7" r="7.1" style="fill:url(#sticker_1_1_);"/>
		
			<linearGradient id="L_shoe_1_" gradientUnits="userSpaceOnUse" x1="171.2416" y1="92.2957" x2="231.5148" y2="60.2517" gradientTransform="matrix(1 0 0 -1 0 602)">
			<stop offset="0.1291" style="stop-color:#428DFC"/>
			<stop offset="0.9987" style="stop-color:#1D72D8"/>
		</linearGradient>
		<path id="L_shoe" d="M213.5,521.7l-9.6,29.3l66.9,0.2c0,0-3.3-7.3-14.8-12.7s-17.3-16.8-17.3-16.8L213.5,521.7" style="fill:url(#L_shoe_1_);"/>
		<path id="R_shoe" d="M237.3,521.7l-9.6,29.3l66.9,0.3c0,0-3.4-7.4-14.8-12.8s-17.3-16.8-17.3-16.8L237.3,521.7" style="fill:#428DFC;"/>
		
			<linearGradient id="L_leg_1_" gradientUnits="userSpaceOnUse" x1="177.5242" y1="215.6738" x2="231.877" y2="150.2929" gradientTransform="matrix(1 0 0 -1 0 602)">
			<stop offset="0" style="stop-color:#23286B"/>
			<stop offset="1" style="stop-color:#151A4F"/>
		</linearGradient>
		<path id="L_leg" d="M210.1,521.8c0,0-2.4-26.5,6.8-51s11.5-21.8,12.3-41.7s-3.4-46.3-3.4-46.3l34.1,6.1
			c0,0,2.7,50.6,0,63.2c-2.7,12.6-17.9,69.7-17.9,69.7L210.1,521.8z" style="fill:url(#L_leg_1_);"/>
		<path id="R_leg" d="M225.6,379.6c0,0-1.1,22.6,6.9,41.4s1.1,28.7-1.9,44.4s-4.6,42.2,2.3,56.4l29.7-0.1
			c0,0,7.5-57.4,7.5-71.5s-5-68.6-5-68.6l0,0L225.6,379.6z" style="fill:#23286B;"/>
		<path id="texture" d="M238.9,393.7c0-0.1-0.1-0.1-0.2-0.1s-0.1,0.1-0.1,0.2s0.1,0.1,0.2,0.1c0,0,0,0,0,0
			C238.9,393.9,239,393.8,238.9,393.7C238.9,393.7,238.9,393.7,238.9,393.7z M237.3,389.8c0-0.1-0.1-0.1-0.2-0.1c0,0,0,0,0,0
			c-0.1,0-0.1,0.1-0.1,0.2c0,0.1,0.1,0.1,0.2,0.1C237.3,390,237.3,389.9,237.3,389.8C237.3,389.8,237.3,389.8,237.3,389.8z
			 M235.5,386.1l-5.7,7.1c-0.1,0-0.2,0.1-0.2,0.2c0,0.1,0.1,0.2,0.2,0.2l0,0c0.1,0,0.2-0.1,0.2-0.2c0-0.1-0.1-0.2-0.2-0.2
			L235.5,386.1z M235.5,381.8c-0.1,0-0.2,0.1-0.2,0.2c0,0.1,0.1,0.2,0.2,0.2c0,0,0,0,0,0c0.1,0,0.2-0.1,0.2-0.2c0,0,0,0,0,0
			c-1.9-1.6-4.8-1.4-6.4,0.5c-1.6,1.9-1.4,4.8,0.5,6.4L235.5,381.8z M267.7,387.5c-0.1-0.1-0.3-0.1-0.5,0c0,0,0,0,0,0
			c-0.1,0.1-0.1,0.3,0,0.5c0,0,0,0,0,0c0.1,0.1,0.3,0.1,0.5,0c0,0,0,0,0,0c-1.8-1.6-4.6-1.4-6.2,0.4c-1.6,1.8-1.4,4.6,0.4,6.2l0,0
			L267.7,387.5z M261.6,382.2c-0.1-0.1-0.3-0.1-0.5,0c0,0,0,0,0,0c-0.1,0.1-0.1,0.4,0,0.5c0.1,0.1,0.4,0.1,0.5,0c0,0,0,0,0,0
			c-1.8-1.6-4.6-1.4-6.2,0.4s-1.4,4.6,0.4,6.2L261.6,382.2z M237.4,414.9c-0.2,0-0.3,0.2-0.3,0.4c0,0.2,0.2,0.3,0.3,0.3c0,0,0,0,0,0
			c0.2,0,0.3-0.2,0.3-0.4C237.8,415,237.6,414.9,237.4,414.9C237.4,414.9,237.4,414.9,237.4,414.9z M236.9,406.8
			c-0.2,0-0.3,0.2-0.3,0.4c0,0,0,0,0,0c0,0.2,0.2,0.3,0.4,0.3s0.3-0.2,0.3-0.4c0,0,0,0,0,0C237.2,407,237.1,406.8,236.9,406.8
			L236.9,406.8z M236.3,398.8c-0.2,0-0.3,0.2-0.3,0.4c0,0.2,0.2,0.3,0.3,0.3c0,0,0,0,0,0c0.2,0,0.3-0.2,0.3-0.3c0,0,0,0,0,0
			C236.7,398.9,236.5,398.8,236.3,398.8L236.3,398.8z M235.7,390.8c-0.2,0-0.3,0.2-0.3,0.4c0,0,0,0,0,0c0,0.2,0.2,0.3,0.4,0.3
			s0.3-0.2,0.3-0.4C236.1,390.9,235.9,390.7,235.7,390.8C235.7,390.8,235.7,390.8,235.7,390.8z M253.3,406.9
			c-0.1-0.2-0.3-0.2-0.5-0.2c-0.2,0.1-0.2,0.3-0.2,0.5c0.1,0.2,0.3,0.2,0.5,0.2c0,0,0,0,0,0C253.3,407.2,253.4,407,253.3,406.9
			L253.3,406.9z M249.7,399.6c-0.1-0.2-0.3-0.2-0.5-0.2s-0.2,0.3-0.2,0.5c0.1,0.2,0.3,0.2,0.5,0.2c0,0,0,0,0,0
			C249.7,400,249.8,399.8,249.7,399.6L249.7,399.6z M246.1,392.4c-0.1-0.2-0.3-0.2-0.5-0.1c-0.2,0.1-0.2,0.3-0.1,0.5
			c0.1,0.2,0.3,0.2,0.4,0.1C246.1,392.8,246.2,392.6,246.1,392.4L246.1,392.4z M227.4,393.8c-0.2-0.1-0.4,0-0.4,0.2
			c-0.1,0.2,0,0.4,0.2,0.4c0,0,0,0,0,0c0.2,0.1,0.3,0,0.4-0.2c0,0,0,0,0,0C227.7,394.1,227.6,393.9,227.4,393.8L227.4,393.8z
			 M230,386.2c-0.2-0.1-0.4,0-0.4,0.2c-0.1,0.2,0,0.3,0.2,0.4c0,0,0,0,0,0c0.2,0.1,0.4,0,0.4-0.2C230.3,386.4,230.2,386.2,230,386.2
			L230,386.2z M260.2,403.2c-0.1-0.1-0.3-0.2-0.4-0.1s-0.2,0.3-0.1,0.4s0.3,0.2,0.4,0.1S260.3,403.3,260.2,403.2z M256.4,397.1
			c-0.1-0.1-0.3-0.2-0.4-0.1c-0.1,0.1-0.2,0.3-0.1,0.4c0.1,0.1,0.3,0.2,0.4,0.1c0,0,0,0,0,0C256.4,397.4,256.5,397.2,256.4,397.1
			C256.4,397.1,256.4,397.1,256.4,397.1L256.4,397.1z M252.6,391c0-0.1-0.1-0.1-0.1-0.1l0,0c-0.1,0-0.2,0-0.3,0
			c-0.1,0.1-0.2,0.3-0.1,0.4c0,0,0,0,0,0c0.1,0.1,0.3,0.2,0.4,0.1c0.1,0,0.1-0.1,0.1-0.2C252.6,391.1,252.6,391,252.6,391L252.6,391
			z M230.1,408c-0.2,0-0.3,0.1-0.4,0.2c0,0,0,0,0,0c0,0.2,0,0.3,0.2,0.4c0,0,0,0,0,0c0.2,0,0.3-0.1,0.4-0.2
			C230.4,408.2,230.3,408.1,230.1,408z M231.8,401c-0.2,0-0.3,0.1-0.4,0.2c0,0,0,0,0,0c0,0.2,0.1,0.3,0.2,0.4c0,0,0,0,0,0
			c0.2,0,0.3-0.1,0.4-0.2C232,401.2,231.9,401.1,231.8,401z M233.4,394c-0.2,0-0.3,0.1-0.4,0.2c0,0,0,0,0,0c0,0.1,0,0.3,0.2,0.3
			c0,0,0,0,0,0c0.2,0,0.3-0.1,0.4-0.2c0,0,0,0,0,0C233.6,394.2,233.5,394.1,233.4,394L233.4,394z M235,387c-0.2,0-0.3,0.1-0.4,0.2
			c0,0.2,0.1,0.3,0.2,0.4c0.2,0,0.3-0.1,0.4-0.2C235.2,387.2,235.1,387,235,387z M245.4,404.9c-0.2,0-0.3,0.2-0.2,0.4
			c0,0.2,0.2,0.3,0.3,0.2c0.2,0,0.3-0.2,0.3-0.3C245.8,405,245.6,404.8,245.4,404.9L245.4,404.9z M244.3,397.8
			c-0.2,0-0.3,0.2-0.2,0.4c0,0.2,0.2,0.3,0.3,0.2c0.2,0,0.3-0.2,0.2-0.3c0,0,0,0,0,0C244.6,397.9,244.4,397.7,244.3,397.8
			L244.3,397.8z M243.1,390.7c-0.2,0-0.3,0.2-0.2,0.3c0,0,0,0,0,0c0,0.2,0.2,0.3,0.3,0.2c0.2,0,0.3-0.2,0.2-0.3
			C243.4,390.8,243.2,390.7,243.1,390.7C243.1,390.7,243.1,390.7,243.1,390.7L243.1,390.7z M242.8,391.7c-0.1,0-0.2,0.1-0.2,0.2
			s0.1,0.2,0.2,0.2c0.1,0,0.2-0.1,0.2-0.2l0,0C243,391.8,242.9,391.7,242.8,391.7C242.8,391.7,242.8,391.7,242.8,391.7L242.8,391.7z
			 M235,387.6c-0.1,0-0.2,0-0.2,0.1c0,0,0,0,0,0c0,0.1,0,0.2,0.1,0.2c0.1,0,0.2,0,0.2-0.1C235.1,387.8,235,387.7,235,387.6z
			 M262.7,389.7c-0.1-0.1-0.2-0.1-0.3-0.1c0,0,0,0,0,0c-0.1,0.1-0.1,0.2-0.1,0.3c0,0,0,0,0,0c0.1,0.1,0.2,0.1,0.3,0.1c0,0,0,0,0,0
			C262.8,389.9,262.8,389.8,262.7,389.7L262.7,389.7z M242.5,393.2c-0.1,0-0.2,0.1-0.2,0.2c0,0.1,0,0.2,0.1,0.2c0.1,0,0.2,0,0.2-0.1
			c0,0,0,0,0,0C242.7,393.3,242.6,393.2,242.5,393.2C242.5,393.2,242.5,393.2,242.5,393.2L242.5,393.2z M243.6,388.4
			c-0.1,0-0.2,0.1-0.2,0.2c0,0.1,0,0.2,0.1,0.2c0.1,0,0.2,0,0.2-0.1c0,0,0,0,0,0C243.7,388.6,243.7,388.5,243.6,388.4L243.6,388.4z
			 M252.7,391c0-0.1-0.1-0.2-0.2-0.2c0,0,0,0,0,0l0,0c-0.1,0-0.2,0.1-0.2,0.2c0,0.1,0.1,0.2,0.2,0.2c0,0,0,0,0,0c0,0,0.1,0,0.1,0
			C252.7,391.2,252.7,391.1,252.7,391L252.7,391z M234.4,387.1c-0.1-0.1-0.2,0-0.3,0c0,0,0,0,0,0c-0.1,0.1,0,0.2,0,0.3
			c0.1,0.1,0.2,0,0.3,0c0,0,0,0,0,0C234.6,387.2,234.5,387.1,234.4,387.1L234.4,387.1z M259.9,411c-0.2,0-0.3,0.2-0.3,0.4
			c0,0.2,0.2,0.3,0.4,0.3c0.2,0,0.3-0.2,0.3-0.4C260.2,411.1,260,410.9,259.9,411L259.9,411z M258.6,402.7c-0.2,0-0.3,0.2-0.3,0.4
			s0.2,0.3,0.4,0.3c0.2,0,0.3-0.2,0.3-0.4C258.9,402.8,258.8,402.7,258.6,402.7L258.6,402.7z M257.3,394.5c-0.2,0-0.3,0.2-0.3,0.4
			c0,0.2,0.2,0.3,0.4,0.3c0,0,0,0,0,0c0.2,0,0.3-0.2,0.3-0.4C257.6,394.6,257.5,394.5,257.3,394.5L257.3,394.5z M231,396.1
			c-0.2-0.1-0.4-0.1-0.5,0.1c-0.1,0.2-0.1,0.4,0.1,0.5c0,0,0,0,0,0c0.2,0.1,0.4,0.1,0.5-0.1C231.2,396.4,231.2,396.2,231,396.1
			C231,396.1,231,396.1,231,396.1z M235.9,389.4c-0.1-0.1-0.4-0.1-0.5,0.1c0,0,0,0,0,0c-0.1,0.2-0.1,0.4,0.1,0.5
			c0.2,0.1,0.4,0.1,0.5-0.1C236.1,389.7,236,389.5,235.9,389.4C235.9,389.4,235.9,389.4,235.9,389.4L235.9,389.4z M243.7,406.6
			c-0.2,0-0.4,0.1-0.4,0.2c0,0,0,0,0,0c0,0.2,0.1,0.4,0.2,0.4c0.2,0,0.4-0.1,0.4-0.3C244,406.8,243.8,406.6,243.7,406.6
			C243.7,406.6,243.7,406.6,243.7,406.6L243.7,406.6z M245.6,398.5c-0.2,0-0.4,0.1-0.4,0.2c0,0,0,0,0,0c0,0.2,0.1,0.4,0.2,0.4
			c0,0,0,0,0,0c0.2,0,0.4-0.1,0.4-0.3c0,0,0,0,0,0C245.9,398.7,245.8,398.5,245.6,398.5C245.6,398.5,245.6,398.5,245.6,398.5
			L245.6,398.5z M247.6,390.4c-0.2,0-0.4,0.1-0.4,0.3c0,0.2,0.1,0.4,0.3,0.4c0.2,0,0.4-0.1,0.4-0.2c0,0,0,0,0,0
			C247.9,390.6,247.7,390.5,247.6,390.4C247.6,390.4,247.6,390.4,247.6,390.4L247.6,390.4z M248.7,409.3c-0.2,0-0.4,0.1-0.4,0.3
			c0,0.2,0.1,0.4,0.3,0.4c0.2,0,0.4-0.1,0.4-0.3C249,409.5,248.9,409.3,248.7,409.3C248.7,409.3,248.7,409.3,248.7,409.3
			L248.7,409.3z M250.3,401.1c-0.2,0-0.4,0.1-0.4,0.3c0,0.2,0.1,0.4,0.3,0.4c0.2,0,0.4-0.1,0.4-0.3
			C250.6,401.4,250.5,401.2,250.3,401.1L250.3,401.1z M251.9,393c-0.2,0-0.4,0.1-0.4,0.3c0,0.2,0.1,0.4,0.3,0.4
			c0.2,0,0.4-0.1,0.4-0.3C252.2,393.2,252.1,393.1,251.9,393L251.9,393z M264.1,396.7c-0.2,0-0.3,0.2-0.3,0.4c0,0.2,0.2,0.3,0.4,0.3
			c0.2,0,0.3-0.2,0.3-0.4c0,0,0,0,0,0C264.5,396.7,264.3,396.6,264.1,396.7L264.1,396.7z M234.9,398.9c-0.2-0.1-0.4-0.1-0.5,0.1
			c0,0,0,0,0,0c-0.1,0.2-0.1,0.4,0.1,0.5c0.2,0.1,0.4,0.1,0.5-0.1C235.1,399.3,235.1,399,234.9,398.9
			C234.9,398.9,234.9,398.9,234.9,398.9L234.9,398.9z M239.5,392c-0.2-0.1-0.4-0.1-0.5,0.1c0,0,0,0,0,0c-0.1,0.2-0.1,0.4,0.1,0.5
			c0.2,0.1,0.4,0.1,0.5-0.1C239.7,392.4,239.6,392.2,239.5,392C239.5,392,239.5,392,239.5,392L239.5,392z M248.6,395
			c-0.1-0.1-0.3,0-0.3,0.1c0,0,0,0,0,0c-0.1,0.1,0,0.3,0.1,0.3s0.3,0,0.3-0.1C248.8,395.2,248.8,395.1,248.6,395z M251.1,389.3
			c-0.1-0.1-0.3,0-0.3,0.1c0,0,0,0,0,0c-0.1,0.1,0,0.3,0.1,0.3c0.1,0.1,0.3,0,0.3-0.1C251.3,389.5,251.2,389.4,251.1,389.3
			C251.1,389.3,251.1,389.3,251.1,389.3z M261.8,394.5c-0.1,0-0.3,0.1-0.3,0.3c0,0,0,0,0,0c0,0.1,0.1,0.3,0.3,0.3
			c0.1,0,0.3-0.1,0.3-0.3C262,394.6,261.9,394.5,261.8,394.5C261.8,394.5,261.8,394.5,261.8,394.5L261.8,394.5z" style="opacity:0.86;fill:#FFFFFF;enable-background:new    ;"/>
		
			<linearGradient id="L_hand_1_" gradientUnits="userSpaceOnUse" x1="316.0473" y1="259.2627" x2="302.4495" y2="216.4793" gradientTransform="matrix(1 0 0 -1 0 602)">
			<stop offset="0" style="stop-color:#FFBEB6"/>
			<stop offset="1" style="stop-color:#F29B94"/>
		</linearGradient>
		<path id="L_hand" d="M283.8,343.4c0,0,23.5,25.7,28.5,27.7s19.9,2.8,24.3,8.1s-10.9,12-14.6,10.9S307,377,304.2,377.3
			S277.4,358,277.4,358L283.8,343.4" style="fill:url(#L_hand_1_);"/>
		
			<linearGradient id="handle_1_" gradientUnits="userSpaceOnUse" x1="326.61" y1="205.285" x2="357.79" y2="205.285" gradientTransform="matrix(1 0 0 -1 0 602)">
			<stop offset="0" style="stop-color:#A1C3FC"/>
			<stop offset="0.6955" style="stop-color:#81AEF2"/>
			<stop offset="1" style="stop-color:#78A9EF"/>
		</linearGradient>
		<path id="handle" d="M349.9,372.3h-15.5c-4.3,0-7.9,3.5-7.9,7.9v40.9h3v-40.9c0-2.7,2.2-4.9,4.9-4.9h15.5
			c2.7,0,4.9,2.2,4.9,4.9v40.9h3v-40.9C357.8,375.8,354.3,372.3,349.9,372.3z" style="fill:url(#handle_1_);"/>
		
			<linearGradient id="L_sleeve_1_" gradientUnits="userSpaceOnUse" x1="292.1271" y1="321.1426" x2="262.2774" y2="268.1202" gradientTransform="matrix(1 0 0 -1 0 602)">
			<stop offset="0" style="stop-color:#A1C3FC"/>
			<stop offset="0.6955" style="stop-color:#81AEF2"/>
			<stop offset="1" style="stop-color:#78A9EF"/>
		</linearGradient>
		<path id="L_sleeve" d="M286.6,340.1l-16.8,26.6c0,0-37-26.5-12.4-73.4c5.3,2.5,10.2,5.7,14.6,9.6
			C272,302.8,269.2,328.6,286.6,340.1z" style="fill:url(#L_sleeve_1_);"/>
		
			<linearGradient id="sweater_1_" gradientUnits="userSpaceOnUse" x1="241.1323" y1="286.9882" x2="244.6671" y2="196.2609" gradientTransform="matrix(1 0 0 -1 0 602)">
			<stop offset="0" style="stop-color:#A1C3FC"/>
			<stop offset="0.6955" style="stop-color:#81AEF2"/>
			<stop offset="1" style="stop-color:#78A9EF"/>
		</linearGradient>
		<path id="sweater" d="M278.2,386.4c-42,10.4-68.8-12.3-68.8-12.3c-1.4-8.4-0.2-21.9,6-28.6
			c6.2-6.7,10.1-11.7,16-25.2c5.9-13.4,26-27,26-27c5.3,2.5,10.2,5.7,14.6,9.6C265.5,338.6,278.2,386.4,278.2,386.4z" style="fill:url(#sweater_1_);"/>
		
			<linearGradient id="R_hand_1_" gradientUnits="userSpaceOnUse" x1="297.614" y1="225.6678" x2="243.546" y2="292.4692" gradientTransform="matrix(1 0 0 -1 0 602)">
			<stop offset="0" style="stop-color:#FFBEB6"/>
			<stop offset="1" style="stop-color:#F29B94"/>
		</linearGradient>
		<path id="R_hand" d="M277.4,358c0,0,31.8,25.7,39.5,21.3c4.5-2.6,6.6-5,11.9-4.4c-1.2,1.2-2,2.9-2.1,4.6
			c-0.3,2.8-0.3,3.1,1.9,3.8c3.5,1.1,10.1-1.1,8.4,5.3s-4.5,12-16.8,6.4s-14-9.5-23.8-9.5s-28.3-5.9-29.9-7.6S277.4,358,277.4,358" style="fill:url(#R_hand_1_);"/>
		
			<linearGradient id="sticker_3_1_" gradientUnits="userSpaceOnUse" x1="363.5244" y1="119.6992" x2="362.2232" y2="89.3394" gradientTransform="matrix(1 0 0 -1 0 602)">
			<stop offset="0" style="stop-color:#E94A47"/>
			<stop offset="0.8467" style="stop-color:#A74A47"/>
		</linearGradient>
		<path id="sticker_3" d="M358.3,483.7L358.3,483.7c3-1,6.3,0.6,7.3,3.7l5.5,16.6c1,3-0.6,6.3-3.7,7.3l0,0
			c-3,1-6.3-0.6-7.3-3.7l-5.5-16.6C353.7,488,355.3,484.7,358.3,483.7z" style="fill:none;stroke:url(#sticker_3_1_);stroke-width:2.5;stroke-miterlimit:10;"/>
		<polygon id="sticker_2" points="338.2,472.2 323.6,489.1 348.1,492.2 		" style="fill:#428DFC;"/>
		
			<linearGradient id="neck_1_" gradientUnits="userSpaceOnUse" x1="260.3707" y1="297.9698" x2="274.618" y2="320.5129" gradientTransform="matrix(1 0 0 -1 0 602)">
			<stop offset="0" style="stop-color:#FFBEB6"/>
			<stop offset="1" style="stop-color:#F29B94"/>
		</linearGradient>
		<path id="neck" d="M272,302.8c-4.4-3.9-9.3-7.1-14.6-9.6c0,0,6.2-9.4,6.1-11.3l1,0.7c0,0.1-0.1,0.2-0.1,0.2
			c-0.2,0.4-0.5,0.8-0.9,1.1l0.5,0.5c0.2,0.1,0.3,0.3,0.5,0.4l2.4,1.8c2.2,1.8,4.8,3.1,7.6,3.9C273.2,294.5,272.3,298.6,272,302.8z" style="fill:url(#neck_1_);"/>
		<path id="face" d="M281.4,290.2c5.6-1.9,8.6-7.2,9.8-7c1.2,0.2,3.8,0.1,4.1-1.1c0.4-1.2-1.9-5.6-1.1-10.2
			c0.1-0.4,0.1-0.8,0.2-1.2c0,0,0,0,0,0l0-0.2c0-0.3,0.1-0.8,0.1-1.4c-3.2,1.4-6.1,1.6-7.5,0.8c-3.8-2.3-4.4,0.3-8.5,3.2
			c-4.1,2.9-7.4,0.9-12.5-0.6c-5.1-1.5-5.6,3.6-3.7,5.5c1.9,1.9,3.3,2.8,2,4.8c-0.2,0.4-0.5,0.8-0.9,1.1l0.5,0.5
			c0.2,0.1,0.3,0.3,0.5,0.4l2.4,1.8C271.1,289.9,276.2,292.1,281.4,290.2z" style="fill:#FFBEB6;"/>
		<path id="cap_bottom" d="M317.7,261.6l-65.8,11.8l0,0l-0.4-2.4l0,0l63.9-11.4c1.1-0.2,2.1,0.5,2.3,1.6v0L317.7,261.6
			L317.7,261.6z" style="fill:#E94A47;"/>
		
			<linearGradient id="cap_top_1_" gradientUnits="userSpaceOnUse" x1="267.2939" y1="295.1989" x2="282.8821" y2="255.3856" gradientTransform="matrix(0.9551 -0.2963 -0.2963 -0.9551 103.7695 624.4227)">
			<stop offset="0" style="stop-color:#E94A47"/>
			<stop offset="0.8467" style="stop-color:#A74A47"/>
		</linearGradient>
		<path id="cap_top" d="M294.2,263.3l-42.7,7.6l0,0l-0.3-1.8c-1.8-10.1,4.9-19.7,15-21.5l5.5-1
			c10.5-1.9,20.5,5.1,22.4,15.6L294.2,263.3L294.2,263.3z" style="fill:url(#cap_top_1_);"/>
		<path id="mouth" d="M286.1,284.1c0.4,1.9,2.2,3.1,4.1,2.7c0.7-0.1,1.3-0.5,1.8-1c0.4-0.4-0.1-1-0.5-0.6
			c-1,1.1-2.6,1.2-3.7,0.2c-0.4-0.4-0.7-0.9-0.8-1.4C286.7,283.5,285.9,283.6,286.1,284.1L286.1,284.1z" style="fill:#1C2868;"/>
		
			<linearGradient id="R_sleeve_1_" gradientUnits="userSpaceOnUse" x1="261.6592" y1="258.3049" x2="291.5089" y2="118.4829" gradientTransform="matrix(1 0 0 -1 0 602)">
			<stop offset="0" style="stop-color:#A1C3FC"/>
			<stop offset="0.6955" style="stop-color:#81AEF2"/>
			<stop offset="1" style="stop-color:#78A9EF"/>
		</linearGradient>
		<path id="R_sleeve" d="M282.4,349.3L265,381.5c0,0-19-8.1-22.4-36.7c-3.4-28.5,14.7-51.6,14.7-51.6
			c5.3,2.5,10.2,5.7,14.6,9.6C272,302.8,267.6,328.6,282.4,349.3z" style="fill:url(#R_sleeve_1_);"/>
		<path id="hair" d="M308,264.7c0-0.5-0.8-0.5-0.8,0c0.4,4.2-2.6,7.2-6.7,7.8c-1.6,0.2-3.3,0.1-4.9-0.3
			c3.4,0.4,6.8-0.1,8.2-2.9c1.7-3.5,0.5-5.3,0.5-5.3c-6.4,1.1-9.1,1.7-10.5,1.8s-41.9,7.5-41.9,7.5c0.8,2.9,2.2,5.6,4.1,7.9
			c4,4.4,7.5,2.7,7.5,2.7s3.4-2.1-0.3-5.5s-0.4-8.3,4.2-5.4s10.3,2.4,13.1-0.9s4.3-2.9,8.1-1.7c0.7,0.2,1.5,0.5,2.5,0.8
			c3.7,1.7,7.9,3,12,1.4C306.3,271.5,308.4,268.2,308,264.7z" style="fill:#23286B;"/>
	</g>
	<g id="woman">
		
			<linearGradient id="R_shoe-2_1_" gradientUnits="userSpaceOnUse" x1="419.2072" y1="204.9435" x2="468.9775" y2="165.7016" gradientTransform="matrix(1 0 0 -1 0 602)">
			<stop offset="0" style="stop-color:#23286B"/>
			<stop offset="1" style="stop-color:#151A4F"/>
		</linearGradient>
		<path id="R_shoe-2" d="M466.2,414.4l-10.9,32l-61.8-50.8c0,0,8.2-3.5,22.5,0.7c14.3,4.2,32,2.6,32,2.6L466.2,414.4" style="fill:url(#R_shoe-2_1_);"/>
		
			<linearGradient id="R_leg-2_1_" gradientUnits="userSpaceOnUse" x1="382.3078" y1="280.9199" x2="497.1623" y2="258.4276" gradientTransform="matrix(1 0 0 -1 0 602)">
			<stop offset="0.1291" style="stop-color:#428DFC"/>
			<stop offset="0.6452" style="stop-color:#2C7DE7"/>
			<stop offset="0.9987" style="stop-color:#1D72D8"/>
		</linearGradient>
		<path id="R_leg-2" d="M579.3,284.2c0,0-43.5,26.5-61.7,41.1S448,398.9,448,398.9l24.7,21.1c0,0,19.1-10.1,24.5-19.4
			c5.6-9.7,17.2-12.3,25.2-24.2s3.6-17.4,14.6-24.5s39.5-21.4,64.1-27.3s44.3-22.1,44.7-31.6l0,0
			C645.7,292.9,591.2,277.1,579.3,284.2" style="fill:url(#R_leg-2_1_);"/>
		
			<linearGradient id="luggage-2_1_" gradientUnits="userSpaceOnUse" x1="587.4963" y1="130.4167" x2="531.6773" y2="388.6638" gradientTransform="matrix(1 0 0 -1 0 602)">
			<stop offset="8.983001e-02" style="stop-color:#EEEEEE"/>
			<stop offset="0.8178" style="stop-color:#D6D7D8"/>
		</linearGradient>
		<path id="luggage-2" d="M518.8,310.5h115.3c14.8,0,26.7,12,26.7,26.7v166.1c0,14.8-12,26.7-26.7,26.7H518.8
			c-14.8,0-26.7-12-26.7-26.7V337.2C492,322.5,504,310.5,518.8,310.5z" style="fill:url(#luggage-2_1_);"/>
		
			<linearGradient id="sticker_2-2_1_" gradientUnits="userSpaceOnUse" x1="617.0763" y1="139.5438" x2="608.635" y2="183.5087" gradientTransform="matrix(1 0 0 -1 0 602)">
			<stop offset="0" style="stop-color:#A1C3FC"/>
			<stop offset="0.6955" style="stop-color:#81AEF2"/>
			<stop offset="1" style="stop-color:#78A9EF"/>
		</linearGradient>
		<path id="sticker_2-2" d="M625.1,419.3L625.1,419.3c4.7,2.7,6.3,8.6,3.6,13.3l-14.7,25.5c-2.7,4.7-8.6,6.3-13.3,3.6
			l0,0c-4.7-2.7-6.3-8.6-3.6-13.3l14.7-25.5C614.5,418.2,620.4,416.6,625.1,419.3z" style="fill:none;stroke:url(#sticker_2-2_1_);stroke-width:3;stroke-miterlimit:10;"/>
		<circle id="sticker_1-2" cx="624.2" cy="370.4" r="14.4" style="fill:#23286B;"/>
		
			<linearGradient id="L_shoe-2_1_" gradientUnits="userSpaceOnUse" x1="526.8037" y1="131.2936" x2="595.7164" y2="111.6726" gradientTransform="matrix(1 0 0 -1 0 602)">
			<stop offset="0" style="stop-color:#23286B"/>
			<stop offset="1" style="stop-color:#151A4F"/>
		</linearGradient>
		<path id="L_shoe-2" d="M579.7,454.7l17.5,28.6l-78.3,16.2c0,0,2.4-8.6,14.6-17.1s22.1-23.1,22.1-23.1L579.7,454.7" style="fill:url(#L_shoe-2_1_);"/>
		
			<linearGradient id="L_leg-2_1_" gradientUnits="userSpaceOnUse" x1="574.2535" y1="241.9013" x2="621.1524" y2="301.7213" gradientTransform="matrix(1 0 0 -1 0 602)">
			<stop offset="0.1291" style="stop-color:#428DFC"/>
			<stop offset="0.6452" style="stop-color:#2C7DE7"/>
			<stop offset="0.9987" style="stop-color:#1D72D8"/>
		</linearGradient>
		<path id="L_leg-2" d="M648.5,292.5c0,0-2.8,17.8-32.4,27.7s-40.7,12.3-45.9,15.4s-9.5,7.5-1.6,21.7
			s10.7,20.6,10.3,34s5.5,21.4,7.5,29.7s2.4,27.7-4.3,33.2l-26.5,5.1c0,0-28.9-92.9-34-107.2s-8.3-26.1,8.7-36.8
			s65.2-41.1,65.2-41.1L648.5,292.5z" style="fill:url(#L_leg-2_1_);"/>
		<path id="texture-2" d="M636.3,304.7c0-0.2-0.2-0.3-0.4-0.3c0,0,0,0,0,0c-0.2,0-0.3,0.2-0.3,0.4
			c0,0.2,0.2,0.3,0.4,0.3c0,0,0,0,0,0C636.2,305.1,636.3,304.9,636.3,304.7z M635.2,296.5c0-0.2-0.2-0.3-0.4-0.3c0,0,0,0,0,0
			c-0.2,0-0.3,0.2-0.3,0.4c0,0.2,0.2,0.3,0.4,0.3c0,0,0,0,0,0C635.1,296.9,635.2,296.7,635.2,296.5L635.2,296.5z M603.2,305.5
			c-0.2-0.1-0.4-0.1-0.5,0.1c-0.1,0.1-0.1,0.3,0,0.5c0,0,0,0,0,0c0.2,0.1,0.4,0.1,0.5-0.1C603.3,305.8,603.3,305.6,603.2,305.5
			C603.2,305.5,603.2,305.5,603.2,305.5L603.2,305.5z M608.3,298.6c-0.2-0.1-0.4-0.1-0.5,0.1c-0.1,0.1-0.1,0.4,0.1,0.5c0,0,0,0,0,0
			c0.2,0.1,0.4,0.1,0.5-0.1C608.4,298.9,608.4,298.7,608.3,298.6z M621,309.1c0.1-0.2,0-0.3-0.2-0.4c0,0,0,0,0,0
			c-0.2,0-0.4,0.1-0.4,0.3c-0.1,0.2,0,0.3,0.2,0.4c0,0,0,0,0,0C620.8,309.4,621,309.3,621,309.1L621,309.1z M623.2,301
			c0.1-0.2,0-0.3-0.2-0.4c0,0,0,0,0,0c-0.2,0-0.4,0.1-0.4,0.3c-0.1,0.2,0,0.3,0.2,0.4c0,0,0,0,0,0C623,301.3,623.2,301.2,623.2,301
			L623.2,301z M595.4,291.1c-0.1-0.2-0.3-0.2-0.4-0.1c0,0,0,0,0,0c-0.2,0.1-0.2,0.3-0.1,0.5c0.1,0.2,0.3,0.2,0.5,0.1c0,0,0,0,0,0
			C595.4,291.5,595.5,291.3,595.4,291.1z M629,310.6c0-0.2-0.1-0.3-0.2-0.3c0,0,0,0,0,0c-0.2,0-0.3,0.1-0.4,0.3
			c0,0.2,0.1,0.3,0.2,0.3c0,0,0,0,0,0C628.8,310.9,628.9,310.8,629,310.6z M630.2,303.2c0-0.2-0.1-0.3-0.2-0.3c0,0,0,0,0,0
			c-0.2,0-0.3,0.1-0.4,0.3c0,0.2,0.1,0.3,0.2,0.3c0,0,0,0,0,0C630,303.5,630.2,303.4,630.2,303.2L630.2,303.2z M631.4,295.8
			c0-0.1,0-0.1,0-0.2l0,0c0-0.1-0.1-0.2-0.2-0.2c-0.2,0-0.3,0.1-0.4,0.3c0,0.2,0.1,0.3,0.2,0.3c0,0,0,0,0,0c0.1,0,0.2,0,0.2-0.1
			C631.4,295.9,631.4,295.9,631.4,295.8L631.4,295.8z M602.2,295.3c-0.1-0.1-0.3-0.1-0.5,0c-0.1,0.1-0.1,0.3-0.1,0.4
			c0.1,0.1,0.3,0.2,0.4,0.1C602.3,295.6,602.3,295.4,602.2,295.3L602.2,295.3z M643.1,298.4c0-0.2-0.2-0.3-0.3-0.2c0,0,0,0,0,0
			c-0.2,0-0.3,0.2-0.2,0.4c0,0.2,0.2,0.3,0.3,0.2c0,0,0,0,0,0C643,298.8,643.1,298.6,643.1,298.4z M616.3,302.5
			c-0.2-0.1-0.3,0-0.4,0.1c-0.1,0.1,0,0.3,0.1,0.4c0,0,0,0,0,0c0.2,0.1,0.3,0,0.4-0.1C616.5,302.8,616.5,302.6,616.3,302.5
			C616.3,302.5,616.3,302.5,616.3,302.5z M620.3,296c-0.2-0.1-0.3,0-0.4,0.1c-0.1,0.1,0,0.3,0.1,0.4c0,0,0,0,0,0
			c0.1,0.1,0.3,0,0.4-0.1c0,0,0,0,0,0C620.5,296.3,620.4,296.1,620.3,296C620.3,296,620.3,296,620.3,296L620.3,296z M640.2,301.3
			c0-0.1,0-0.2-0.1-0.2c0,0,0,0,0,0c-0.1,0-0.2,0.1-0.2,0.2c0,0.1,0,0.2,0.1,0.2c0,0,0,0,0,0C640.1,301.4,640.2,301.4,640.2,301.3
			L640.2,301.3z M631.5,295.9c0.1-0.1,0-0.2-0.1-0.3c0,0,0,0,0,0l0,0c-0.1,0-0.2,0-0.3,0.1c-0.1,0.1,0,0.2,0.1,0.3c0,0,0,0,0,0
			c0,0,0.1,0,0.1,0C631.4,296,631.5,296,631.5,295.9L631.5,295.9z M623.3,316.7c-0.2-0.1-0.4,0-0.5,0.1c-0.1,0.2-0.1,0.4,0.1,0.5
			c0,0,0,0,0,0c0.2,0.1,0.4,0,0.5-0.1C623.5,317,623.5,316.8,623.3,316.7C623.3,316.7,623.3,316.7,623.3,316.7L623.3,316.7z
			 M628,309.2c-0.2-0.1-0.4,0-0.5,0.1c-0.1,0.2-0.1,0.4,0.1,0.5c0,0,0,0,0,0c0.2,0.1,0.4,0,0.5-0.1
			C628.2,309.5,628.2,309.3,628,309.2C628,309.2,628,309.2,628,309.2L628,309.2z M632.7,301.7c-0.2-0.1-0.4,0-0.5,0.1
			c-0.1,0.2-0.1,0.4,0.1,0.5c0,0,0,0,0,0c0.2,0.1,0.4,0,0.5-0.1C632.9,302,632.8,301.8,632.7,301.7
			C632.7,301.7,632.7,301.7,632.7,301.7L632.7,301.7z M644.9,301.8c0-0.2-0.1-0.4-0.3-0.4c0,0,0,0,0,0c-0.2,0-0.4,0.1-0.4,0.3
			c0,0.2,0.1,0.4,0.3,0.4c0,0,0,0,0,0C644.6,302.1,644.8,302,644.9,301.8L644.9,301.8z M613.7,302.7c-0.1-0.2-0.3-0.2-0.5-0.1
			c0,0,0,0,0,0c-0.2,0.1-0.2,0.3-0.1,0.5c0.1,0.1,0.3,0.2,0.5,0.1C613.8,303.1,613.9,302.9,613.7,302.7L613.7,302.7z M620.8,297.4
			c-0.1-0.2-0.3-0.2-0.5-0.1c0,0,0,0,0,0c-0.2,0.1-0.2,0.3-0.1,0.5s0.3,0.2,0.5,0.1c0,0,0,0,0,0
			C620.9,297.8,620.9,297.6,620.8,297.4C620.8,297.4,620.8,297.4,620.8,297.4L620.8,297.4z M615.8,308.1c-0.1-0.1-0.4-0.2-0.5,0
			c-0.1,0.1-0.2,0.3,0,0.5c0.1,0.1,0.3,0.2,0.5,0C615.9,308.5,615.9,308.3,615.8,308.1L615.8,308.1z M622.7,302.6
			c-0.1-0.1-0.4-0.2-0.5,0c-0.1,0.1-0.2,0.3-0.1,0.5c0.1,0.2,0.4,0.2,0.5,0c0,0,0,0,0,0C622.7,302.9,622.8,302.7,622.7,302.6
			L622.7,302.6z M629.5,297c-0.1-0.1-0.3-0.2-0.5,0c-0.2,0.1-0.2,0.3-0.1,0.5c0.1,0.2,0.3,0.2,0.5,0.1c0,0,0,0,0,0
			C629.6,297.4,629.6,297.2,629.5,297L629.5,297z M636.5,307.8c-0.2-0.1-0.4,0-0.5,0.2c-0.1,0.2,0,0.4,0.1,0.5c0,0,0,0,0,0
			c0.2,0.1,0.4,0,0.5-0.1C636.8,308.1,636.7,307.9,636.5,307.8L636.5,307.8z M640.9,300.2c-0.2-0.1-0.4,0-0.5,0.2
			c-0.1,0.2,0,0.4,0.1,0.5c0,0,0,0,0,0c0.2,0.1,0.4,0,0.5-0.2C641.1,300.5,641,300.3,640.9,300.2
			C640.9,300.2,640.9,300.2,640.9,300.2L640.9,300.2z M625.6,296.6c-0.1-0.1-0.2-0.2-0.3-0.1c0,0,0,0,0,0c-0.1,0.1-0.2,0.2-0.1,0.4
			c0.1,0.1,0.2,0.2,0.3,0.1c0,0,0,0,0,0C625.6,296.8,625.6,296.7,625.6,296.6L625.6,296.6z M631.5,293.5c-0.1-0.1-0.2-0.2-0.3-0.1
			c0,0,0,0,0,0c-0.1,0.1-0.2,0.2-0.1,0.4c0.1,0.1,0.2,0.2,0.4,0.1c0,0,0,0,0,0C631.5,293.8,631.5,293.6,631.5,293.5L631.5,293.5z
			 M636.2,304.5c-0.1-0.1-0.3-0.1-0.4,0c-0.1,0.1-0.1,0.3,0,0.4c0.1,0.1,0.3,0.1,0.4,0c0,0,0,0,0,0
			C636.3,304.8,636.3,304.6,636.2,304.5C636.2,304.5,636.2,304.5,636.2,304.5L636.2,304.5z M640.5,299.5c-0.1-0.1-0.3-0.1-0.4,0.1
			c-0.1,0.1-0.1,0.3,0,0.4c0.1,0.1,0.3,0.1,0.4,0C640.7,299.8,640.7,299.6,640.5,299.5C640.5,299.5,640.5,299.5,640.5,299.5
			L640.5,299.5z" style="opacity:0.86;fill:#FFFFFF;enable-background:new    ;"/>
		
			<linearGradient id="R_hand-2_1_" gradientUnits="userSpaceOnUse" x1="540.769" y1="393.1915" x2="495.3348" y2="403.5048" gradientTransform="matrix(1 0 0 -1 0 602)">
			<stop offset="0" style="stop-color:#FFBEB6"/>
			<stop offset="1" style="stop-color:#F29B94"/>
		</linearGradient>
		<path id="R_hand-2" d="M549.7,207.5l-2.1,16.7c0,0-16.9-20.6-23.4-20.8c-6.5-0.2-12.3,1.1-16.9-2.2s-6.5-7.3-4.7-8.4
			c1.8-1.1,4.4-1.4,7.4-2.4c3.2-0.8,6.5-1,9.8-0.4c1.2,0.4,2.4,0.9,3.5,1.6c2.4,1.3,5.8,3.2,9.3,5.3c1.2,0.7,2.4,1.4,3.5,2.1
			C543.2,203.4,549.7,207.5,549.7,207.5z" style="fill:url(#R_hand-2_1_);"/>
		
			<linearGradient id="R_sleeve-2_1_" gradientUnits="userSpaceOnUse" x1="589.843" y1="412.2945" x2="601.8032" y2="345.3172" gradientTransform="matrix(1 0 0 -1 0 602)">
			<stop offset="0" style="stop-color:#23286B"/>
			<stop offset="1" style="stop-color:#151A4F"/>
		</linearGradient>
		<path id="R_sleeve-2" d="M614.6,204.5c0,0-9.3,15.3-24.6,13.7s-40.3-10.7-40.3-10.7l-3.6,28.6
			c0,0,8.8,11.4,17.5,10.4s15.3,0.6,20.8,4.2s22.7,12.7,36.7-0.6s26.4-35.7,21.8-53.6C642.9,196.5,631,191.4,614.6,204.5" style="fill:url(#R_sleeve-2_1_);"/>
		
			<linearGradient id="_4_page_1_" gradientUnits="userSpaceOnUse" x1="438.8957" y1="483.3098" x2="477.5219" y2="429.6192" gradientTransform="matrix(1 0 0 -1 0 602)">
			<stop offset="0" style="stop-color:#A1C3FC"/>
			<stop offset="0.6955" style="stop-color:#81AEF2"/>
			<stop offset="1" style="stop-color:#78A9EF"/>
		</linearGradient>
		<polyline id="_4_page" points="472.3,198.7 493.9,168.3 533.5,216.6 511.9,247.1 		" style="fill:url(#_4_page_1_);"/>
		<path id="R_finger" d="M536.2,199.2c-2.4,1.1-5.8,1.1-7.2,0.3c-2.3-1.4-8.2-1-11-0.5c-2.7,0.5-7.3-1.6-5.1-3.3
			c2-1.5,9.3-3.6,10.4-4c2.4,1.3,5.8,3.2,9.3,5.3C533.8,197.8,535,198.5,536.2,199.2z" style="fill:#FFBEB6;"/>
		
			<linearGradient id="_3_page_1_" gradientUnits="userSpaceOnUse" x1="497.514" y1="401.0163" x2="475.0244" y2="433.6262" gradientTransform="matrix(1 0 0 -1 0 602)">
			<stop offset="0" style="stop-color:#A1C3FC"/>
			<stop offset="0.6955" style="stop-color:#81AEF2"/>
			<stop offset="1" style="stop-color:#78A9EF"/>
		</linearGradient>
		<polyline id="_3_page" points="472.3,198.7 505,186.6 544.5,234.9 511.9,247.1 		" style="fill:url(#_3_page_1_);"/>
		
			<linearGradient id="_2_page_1_" gradientUnits="userSpaceOnUse" x1="472.3335" y1="425.907" x2="527.4713" y2="360.2495" gradientTransform="matrix(1 0 0 -1 0 602)">
			<stop offset="0" style="stop-color:#A1C3FC"/>
			<stop offset="0.4284" style="stop-color:#8DB6F6"/>
			<stop offset="0.6955" style="stop-color:#81AEF2"/>
			<stop offset="1" style="stop-color:#78A9EF"/>
		</linearGradient>
		<polygon id="_2_page" points="544.5,234.9 520.7,262.1 481.2,213.8 505,186.6 		" style="fill:url(#_2_page_1_);"/>
		
			<linearGradient id="cover_1_" gradientUnits="userSpaceOnUse" x1="521.5402" y1="376.3268" x2="588.011" y2="271.0812" gradientTransform="matrix(1 0 0 -1 0 602)">
			<stop offset="0" style="stop-color:#A1C3FC"/>
			<stop offset="0.6955" style="stop-color:#81AEF2"/>
			<stop offset="1" style="stop-color:#78A9EF"/>
		</linearGradient>
		<polygon id="cover" points="568.5,247.9 520.7,262.1 481.2,213.8 528.9,199.6 		" style="fill:url(#cover_1_);"/>
		<path id="L_hand-2" d="M560.1,244.9c0,0-7.4-1-14.6-9.2c-7.8-8.8-10.7-20.1-12-19.2s-2.6,3.9-0.6,9.4s-1,4.6-6.1,2.4
			s-11.4-8.3-15.3-4.6s1,19,12.4,22.4s18,2.2,22.9,6.8s11.4,10.2,11.4,10.2L560.1,244.9" style="fill:#FFBEB6;"/>
		
			<linearGradient id="sweater-2_1_" gradientUnits="userSpaceOnUse" x1="667.7374" y1="381.1411" x2="619.5974" y2="296.8215" gradientTransform="matrix(1 0 0 -1 0 602)">
			<stop offset="0" style="stop-color:#23286B"/>
			<stop offset="1" style="stop-color:#151A4F"/>
		</linearGradient>
		<path id="sweater-2" d="M634.5,193.5c0,0,26,22.7,30.2,40.3s9.4,26.6,14.3,32.8s9.7,19.2,8.4,29.2
			c0,0-47.7,24.7-84.1-29.9c0,0,12.4-26.5,11.2-61.5l0,0L634.5,193.5" style="fill:url(#sweater-2_1_);"/>
		<path id="L_sleeve-2" d="M614.6,204.5c0,0-0.5,30.9-3.8,37.1s-15.9,4.2-27,1.6c-7.7-1.9-15.3-4.3-22.7-7.1l-3.9,35.1
			c0,0,7.8,12.3,18.2,12.3s17.9,0.3,23.1,3.6s32.5,16.6,42.9-3.9s16.5-54.6-6.8-89.6L614.6,204.5" style="fill:#23286B;"/>
		
			<linearGradient id="neck-2_1_" gradientUnits="userSpaceOnUse" x1="619.3317" y1="401.1956" x2="608.5784" y2="419.1177" gradientTransform="matrix(1 0 0 -1 0 602)">
			<stop offset="0" style="stop-color:#FFBEB6"/>
			<stop offset="1" style="stop-color:#F29B94"/>
		</linearGradient>
		<path id="neck-2" d="M614.6,204.5c0.4-8.5-3.3-16.7-4.5-19.2c2.3,0.2,4.6,0.1,6.8-0.2c-0.4,6.3,2.7,12.3,8.2,14.3
			C621.9,201.7,618.4,203.5,614.6,204.5z" style="fill:url(#neck-2_1_);"/>
		<path id="face-2" d="M618.8,184.6c0,0-8.6,2.5-16.5-1.5c-7.8-4-6.3-14.1-6.3-14.1c-5.2-3-2.5-4.5-0.6-5.8
			c1.9-1.4,3.7-3.1,5.2-4.8c5.2,5.3,10.7,8.8,15.4,11.7c0.4,0.3,0.9,0.5,1.4,0.8L618.8,184.6z" style="fill:#FFBEB6;"/>
		
			<linearGradient id="hat_bottom_1_" gradientUnits="userSpaceOnUse" x1="593.1924" y1="420.64" x2="632.4977" y2="450.6152" gradientTransform="matrix(1 0 0 -1 0 602)">
			<stop offset="0" style="stop-color:#23286B"/>
			<stop offset="1" style="stop-color:#151A4F"/>
		</linearGradient>
		<path id="hat_bottom" d="M608.8,143.2c0,0-9.9-5.1-14.3-5.4s-8.3,0-1.3,11.1s15.9,16.7,22.9,21.1
			s27.2,11.8,33.8,11.8s4.1-6.5-3.7-11.4S617.4,152,608.8,143.2" style="fill:url(#hat_bottom_1_);"/>
		
			<linearGradient id="hat_top_1_" gradientUnits="userSpaceOnUse" x1="620.837" y1="442.8751" x2="660.7649" y2="487.6779" gradientTransform="matrix(1 0 0 -1 0 602)">
			<stop offset="0" style="stop-color:#23286B"/>
			<stop offset="1" style="stop-color:#151A4F"/>
		</linearGradient>
		<path id="hat_top" d="M603.8,145.5c0,0,14.1-9.5,26.7-4.9s13.8,18.7,10.3,29c0,0-9,0.6-18.8-6.2
			S604.9,148.1,603.8,145.5z" style="fill:url(#hat_top_1_);"/>
		
			<linearGradient id="L_wheel-2_1_" gradientUnits="userSpaceOnUse" x1="538.7097" y1="61.2657" x2="518.7057" y2="61.2657" gradientTransform="matrix(1 0 0 -1 0 602)">
			<stop offset="0" style="stop-color:#23286B"/>
			<stop offset="0.4316" style="stop-color:#1D225F"/>
			<stop offset="1" style="stop-color:#151A4F"/>
		</linearGradient>
		<circle id="L_wheel-2" cx="535.1" cy="540.7" r="10.6" style="fill:url(#L_wheel-2_1_);"/>
		
			<linearGradient id="R_wheel-2_1_" gradientUnits="userSpaceOnUse" x1="621.2898" y1="61.2657" x2="601.2858" y2="61.2657" gradientTransform="matrix(1 0 0 -1 0 602)">
			<stop offset="0" style="stop-color:#23286B"/>
			<stop offset="0.4316" style="stop-color:#1D225F"/>
			<stop offset="1" style="stop-color:#151A4F"/>
		</linearGradient>
		<circle id="R_wheel-2" cx="617.7" cy="540.7" r="10.6" style="fill:url(#R_wheel-2_1_);"/>
		
			<linearGradient id="sticker_3-2_1_" gradientUnits="userSpaceOnUse" x1="618.2112" y1="135.4474" x2="651.7873" y2="40.0488" gradientTransform="matrix(1 0 0 -1 0 602)">
			<stop offset="0" style="stop-color:#A1C3FC"/>
			<stop offset="0.6955" style="stop-color:#81AEF2"/>
			<stop offset="1" style="stop-color:#78A9EF"/>
		</linearGradient>
		<polygon id="sticker_3-2" points="635.3,470.1 609.4,486.5 640.3,500.4 		" style="fill:url(#sticker_3-2_1_);"/>
		<path id="mouth-2" d="M594.3,172.7c0.4,1.9,2.2,3.1,4.1,2.7c0.7-0.1,1.3-0.5,1.8-1c0.4-0.4-0.1-1-0.5-0.6
			c-1,1.1-2.6,1.2-3.7,0.2c-0.4-0.4-0.7-0.9-0.8-1.4C595,172,594.2,172.2,594.3,172.7z" style="fill:#1C2868;"/>
		<path id="hair-2" d="M652,195.5c-10.1-7.3-12.8-13.8-13.5-16.1c-8.2-2.5-17.9-6.5-22.4-9.3c-1.1-0.7-2.2-1.4-3.4-2.2
			c0.6,0.8,1.1,1.7,1.6,2.6c0,0,0,0,0,0.1c0,0.1,0.1,0.2,0.1,0.3c0.2,0.4,0.4,0.8,0.6,1.2c3.8,8.8-3.7,21,4.3,28.1
			c2.7,2.4,5.9,2.2,9.2,1.8c2.7-0.3,5.4-0.3,8,0c4.7,1.8,8.9,4.6,12.4,8.2c5.4,5.4,9,9.7,9,9.7S664.6,204.6,652,195.5z M625.2,201.4
			c-9.9-1.1-9-11.1-8.2-18.4c0.1-1.1,0.2-2.1,0.2-3.2c0.1,1.2,0,2.4-0.2,3.6c-1.3,8.1,3.2,16.1,11.3,16.7c1.8,0.1,3.7,0.4,5.5,0.9
			C630.9,201.2,628.2,201.8,625.2,201.4z" style="fill:#E94A47;"/>
	</g>
</g>
</svg>
