<?xml version="1.0" encoding="iso-8859-1"?>
<!-- Generator: Adobe Illustrator 23.0.2, SVG Export Plug-In . SVG Version: 6.00 Build 0)  -->
<svg version="1.1" id="Layer_1" xmlns="http://www.w3.org/2000/svg" xmlns:xlink="http://www.w3.org/1999/xlink" x="0px" y="0px"
	 viewBox="0 0 1080 720" style="enable-background:new 0 0 1080 720;" xml:space="preserve">
<title>page under construction</title>
<g id="illustration">
	<g id="geometry">
		<path id="outlined_square_2" style="fill:#EEEEEE;" d="M930.809,603.069h-61.076v-61.077h61.076V603.069z M873.732,599.069h53.076
			v-53.077h-53.076V599.069z"/>
		<path id="circle" style="fill:#EEEEEE;" d="M900.271,542.169L900.271,542.169c-16.866,0-30.538-13.672-30.538-30.538v0v-0.001
			c0-16.866,13.672-30.538,30.538-30.538l0,0h0c16.866,0,30.538,13.672,30.538,30.538v0v0.001
			C930.809,528.497,917.136,542.169,900.271,542.169L900.271,542.169z"/>
		<path id="square" style="fill:#EEEEEE;" d="M869.744,542.169h-61.076v-61.077h61.076V542.169z"/>
		<path id="r_square_2" style="fill:#EEEEEE;" d="M725.476,541.996h42.642c10.179,0,18.431,8.252,18.431,18.431v0v42.642l0,0
			h-42.642c-10.179,0-18.431-8.252-18.431-18.431v0V541.996L725.476,541.996z"/>
		<path id="r_square_1" style="fill:#EEEEEE;" d="M729.27,542.169h-42.642l0,0v-42.642c0-10.179,8.252-18.431,18.431-18.431h0
			h42.642l0,0v42.642C747.701,533.917,739.449,542.169,729.27,542.169L729.27,542.169z"/>
		<path id="outlined_circle_2" style="fill:#EEEEEE;" d="M694.953,603.069c-16.838,0-30.488-13.65-30.488-30.488
			s13.65-30.488,30.488-30.488s30.488,13.65,30.488,30.488v0C725.422,589.411,711.783,603.05,694.953,603.069z M694.953,546.105
			c-14.622,0-26.476,11.854-26.476,26.476c0,14.622,11.854,26.476,26.476,26.476c14.622,0,26.476-11.854,26.476-26.476c0,0,0,0,0,0
			C721.412,557.966,709.568,546.122,694.953,546.105L694.953,546.105z"/>
		<path id="outlined_circle_1" style="fill:#EEEEEE;" d="M778.188,542.169c-16.838,0-30.488-13.65-30.488-30.488
			c0-16.838,13.65-30.488,30.488-30.488c16.838,0,30.488,13.65,30.488,30.488v0C808.657,528.512,795.018,542.15,778.188,542.169z
			 M778.188,485.206c-14.622,0-26.476,11.854-26.476,26.476c0,14.622,11.854,26.476,26.476,26.476
			c14.622,0,26.476-11.854,26.476-26.476v0C804.647,497.066,792.803,485.222,778.188,485.206z"/>
		<path id="triangle" style="fill:#EEEEEE;" d="M786.531,603.069l40.772-60.892l42.399,60.887L786.531,603.069z M827.37,549.673
			l-32.907,49.103l67.135,0.054L827.37,549.673z"/>
		<path id="outlined_square_1" style="fill:#EEEEEE;" d="M451.577,550.882l-56.391-23.458l23.459-56.392l56.391,23.458
			L451.577,550.882z M400.415,525.267l49.005,20.386l20.386-49.006l-49.005-20.386L400.415,525.267z"/>
	</g>
	<g id="woman">
		<g id="R_hand">
			<path id="R_hand-2" style="fill:#FFBEB6;" d="M547.064,402.196c0,0-12.454,13.389-18.958,16.623s-6.476,2.021-10.116,1.939
				s-6.841,0.733-9.109,0.912s-1.575,2.951,2.065,3.032c3.64,0.081,5.601,0.453,2.325,1.66s-9.379,1.267-10.471,1.669
				s0.909,4.843,9.031,6.994s15.845-4.305,18.746-7.817s22.217-8.986,28.707-17.503L547.064,402.196z"/>
		</g>
		<g id="shoes">
			<path id="L_shoe" style="fill:#23286B;" d="M623.309,580.708l8.072,22.518l-56.987,0.002c0,0,2.922-5.636,12.663-9.811
				s18.833-12.709,18.833-12.709H623.309"/>
			<path id="R_shoe" style="fill:#23286B;" d="M697.378,531.559l23.446,2.294l-23.955,51.708c0,0-3.885-5.021-3.578-15.614
				s-3.839-22.26-3.839-22.26L697.378,531.559"/>
		</g>
		<g id="trousers">
			
				<linearGradient id="R_trousers_1_" gradientUnits="userSpaceOnUse" x1="694.1426" y1="212.5582" x2="624.0912" y2="229.784" gradientTransform="matrix(1 0 0 -1 0 722)">
				<stop  offset="0" style="stop-color:#428DFC"/>
				<stop  offset="1" style="stop-color:#1E77E0"/>
			</linearGradient>
			<path id="R_trousers" style="fill:url(#R_trousers_1_);" d="M697.35,531.61l-7.9,16.08c0,0-30.51-14.6-58.25-31.63
				c-0.18-0.11-0.37-0.23-0.55-0.34c0.32-3,0.72-6.25,1.11-9.93c1.35-12.73-7.5-26.56-9.05-49.75c-0.08-1.18-0.14-2.38-0.18-3.61
				c0.29,0.88,0.63,1.79,1,2.72c2.823,7.186,7.642,13.414,13.89,17.95c16.82,12.08,16.71,11.24,22.78,20.07s15.58,9.09,20.09,12.37
				C684.8,508.83,696.98,525.25,697.35,531.61z"/>
			<path id="L_trousers" style="fill:#428DFC;" d="M623.28,580.71l-18.3-0.01c0,0-7.22-47.2-12.75-77.5
				c-0.93-5.1-1.88-11.08-2.8-17.56c-0.62-4.3-1.23-8.83-1.81-13.45c-1.48-11.66-2.82-23.95-3.82-35.02l7.61,4.36
				c0,0,10.94-7.54,10.31-18.58c-0.61-10.73,1.34-16.61,2.58-21.88c5.624-1.13,11.177-2.589,16.63-4.37
				c2.48,7.89,4.55,20.63,2.33,39.38c-0.8,6.622-0.984,13.304-0.55,19.96c1.55,23.19,10.4,37.02,9.05,49.75
				c-0.42,3.95-0.85,7.4-1.18,10.58c-1.05,9.66-1.38,16.66,1.18,27.1C635.16,557.32,628.38,576.38,623.28,580.71z"/>
			<path id="texture" style="opacity:0.51;fill:#FFFFFF;enable-background:new    ;" d="M608.556,400.833
				c-0.099-0.062-0.23-0.034-0.295,0.063c-0.027,0.04-0.035,0.091-0.021,0.137c-0.01,0.021-0.01,0.021,0,0.032
				c0.017,0.043,0.042,0.082,0.074,0.116c0.097,0.06,0.225,0.038,0.295-0.053c0.03-0.047,0.042-0.103,0.032-0.158
				C608.621,400.919,608.593,400.873,608.556,400.833z M605.783,404.988c-0.094-0.055-0.214-0.027-0.274,0.063
				c-0.059,0.094-0.036,0.218,0.053,0.285c0.097,0.065,0.227,0.041,0.295-0.053C605.914,405.18,605.882,405.051,605.783,404.988z
				 M616.022,401.402c-0.112-0.015-0.217,0.058-0.242,0.169c-0.019,0.113,0.056,0.221,0.169,0.243
				c0.113,0.018,0.22-0.057,0.242-0.169C616.207,401.532,616.133,401.426,616.022,401.402L616.022,401.402z M615.073,406.295
				c-0.114-0.02-0.223,0.056-0.243,0.17c-0.019,0.11,0.05,0.216,0.159,0.241c0.106,0.021,0.209-0.049,0.23-0.155
				c0.001-0.005,0.002-0.009,0.002-0.014c0.031-0.1-0.026-0.207-0.126-0.237C615.088,406.298,615.08,406.297,615.073,406.295
				L615.073,406.295z M614.103,411.199c-0.104-0.023-0.208,0.044-0.23,0.148c-0.001,0.003-0.001,0.007-0.002,0.01
				c-0.027,0.105,0.036,0.212,0.141,0.239c0.006,0.001,0.011,0.003,0.017,0.004c0.11,0.022,0.218-0.048,0.242-0.158
				c0.025-0.107-0.041-0.214-0.148-0.239C614.117,411.201,614.11,411.2,614.103,411.199L614.103,411.199z M610.201,401.012
				c-0.071-0.007-0.137,0.037-0.158,0.105c-0.004,0.068,0.04,0.129,0.105,0.148c0.069,0.008,0.133-0.038,0.148-0.105
				C610.309,401.093,610.267,401.028,610.201,401.012z M609.6,403.965c-0.065-0.01-0.126,0.034-0.136,0.099
				c0,0.002-0.001,0.004-0.001,0.006c-0.013,0.067,0.029,0.132,0.095,0.148c0.063,0,0.137-0.032,0.137-0.095
				C609.711,404.053,609.669,403.983,609.6,403.965L609.6,403.965z M619.312,399.198c-0.04-0.058-0.118-0.076-0.179-0.042
				c-0.059,0.039-0.078,0.118-0.042,0.179c0.049,0.052,0.127,0.065,0.19,0.032C619.332,399.327,619.346,399.254,619.312,399.198
				L619.312,399.198z M614.504,399.631c-0.061,0.008-0.105,0.064-0.097,0.125c0,0.004,0.001,0.008,0.002,0.012
				c0.012,0.07,0.078,0.117,0.148,0.105c0.064-0.01,0.108-0.07,0.098-0.134c-0.001-0.005-0.002-0.009-0.003-0.014
				c-0.013-0.066-0.077-0.109-0.143-0.096C614.507,399.63,614.505,399.63,614.504,399.631z M615.084,402.573
				c-0.067,0.02-0.105,0.091-0.085,0.158c0,0,0,0,0,0.001c0.002,0.057,0.05,0.102,0.108,0.1c0.01,0,0.02-0.002,0.03-0.005
				c0.065-0.011,0.108-0.073,0.097-0.137c-0.001-0.003-0.001-0.007-0.002-0.01C615.214,402.612,615.152,402.567,615.084,402.573
				L615.084,402.573z M615.674,405.536c-0.068,0.015-0.114,0.079-0.105,0.148c0.013,0.069,0.078,0.115,0.148,0.105
				c0.069-0.019,0.111-0.089,0.095-0.158C615.799,405.567,615.738,405.525,615.674,405.536L615.674,405.536z M612.838,401.824
				c-0.113,0.039-0.173,0.162-0.134,0.275c0.002,0.007,0.005,0.013,0.008,0.02c0.038,0.115,0.162,0.178,0.277,0.14
				c0.003-0.001,0.005-0.002,0.008-0.003c0.118-0.041,0.181-0.17,0.14-0.288c-0.001-0.002-0.002-0.005-0.003-0.007
				C613.087,401.844,612.957,401.783,612.838,401.824L612.838,401.824z M614.757,406.991c-0.113,0.056-0.171,0.184-0.137,0.306
				c0.045,0.116,0.175,0.173,0.291,0.128c0.001-0.001,0.003-0.001,0.004-0.002c0.112-0.032,0.177-0.15,0.145-0.262
				c-0.002-0.008-0.005-0.015-0.008-0.022C615.01,407.018,614.879,406.952,614.757,406.991L614.757,406.991z M616.676,412.179
				c-0.109,0.034-0.17,0.15-0.136,0.259c0.003,0.009,0.006,0.017,0.01,0.026c0.042,0.121,0.173,0.187,0.295,0.148
				c0.115-0.054,0.169-0.186,0.127-0.306c-0.042-0.115-0.17-0.173-0.284-0.131C616.683,412.176,616.68,412.178,616.676,412.179
				L616.676,412.179z M618.595,417.347c-0.119,0.044-0.181,0.176-0.137,0.295c0.044,0.119,0.176,0.181,0.295,0.137
				s0.181-0.176,0.137-0.295C618.847,417.364,618.715,417.303,618.595,417.347z M608.567,405.42c-0.13,0-0.236,0.102-0.243,0.232
				c0.001,0.128,0.104,0.231,0.232,0.232c0.119,0.003,0.218-0.091,0.221-0.211c0-0.004,0-0.007,0-0.011
				c0.01-0.124-0.083-0.233-0.207-0.242C608.569,405.42,608.568,405.42,608.567,405.42z M608.356,410.946
				c-0.119-0.008-0.223,0.082-0.232,0.201c0,0.003,0,0.007,0,0.01c-0.012,0.121,0.076,0.229,0.197,0.242
				c0.005,0,0.01,0.001,0.014,0.001c0.126,0.008,0.234-0.087,0.242-0.213c0-0.003,0-0.006,0-0.008
				c0.004-0.124-0.094-0.228-0.218-0.232C608.358,410.946,608.357,410.946,608.356,410.946z M608.155,416.461
				c-0.125-0.009-0.233,0.084-0.242,0.209c0,0.001,0,0.001,0,0.002c-0.012,0.128,0.082,0.241,0.21,0.253
				c0.128,0.012,0.241-0.082,0.253-0.21c0.012-0.128-0.082-0.241-0.21-0.253C608.163,416.461,608.159,416.461,608.155,416.461z
				 M607.955,421.976c-0.119-0.015-0.227,0.07-0.241,0.188c-0.001,0.011-0.002,0.022-0.002,0.033
				c-0.004,0.125,0.095,0.23,0.22,0.233c0.125,0.004,0.23-0.095,0.233-0.22c0-0.001,0-0.002,0-0.003
				c0.008-0.119-0.082-0.223-0.201-0.232C607.962,421.976,607.958,421.976,607.955,421.976L607.955,421.976z M618.616,401.824
				c-0.086-0.087-0.225-0.092-0.316-0.011c-0.096,0.084-0.106,0.23-0.021,0.327c0.084,0.096,0.23,0.106,0.327,0.021
				c0.096-0.084,0.106-0.23,0.021-0.327C618.623,401.831,618.62,401.828,618.616,401.824z M609.442,400.284
				c0.088,0.122,0.257,0.15,0.38,0.063c0.068-0.036,0.115-0.103,0.127-0.179C609.779,400.211,609.611,400.253,609.442,400.284
				L609.442,400.284z M613.839,406.116c-0.094-0.138-0.278-0.179-0.422-0.095c-0.142,0.087-0.186,0.273-0.099,0.414
				s0.273,0.186,0.414,0.099c0.004-0.002,0.008-0.005,0.012-0.008C613.883,406.439,613.925,406.256,613.839,406.116z
				 M617.752,412.295c-0.084-0.139-0.265-0.184-0.404-0.099c-0.002,0.001-0.005,0.003-0.007,0.004
				c-0.138,0.094-0.179,0.278-0.095,0.422c0.09,0.14,0.277,0.18,0.417,0.09C617.802,412.622,617.842,412.435,617.752,412.295
				L617.752,412.295z M621.674,418.485c-0.088-0.145-0.276-0.192-0.422-0.105c-0.138,0.098-0.179,0.285-0.095,0.432
				c0.097,0.134,0.281,0.171,0.422,0.084c0.138-0.079,0.186-0.255,0.107-0.392C621.683,418.498,621.679,418.492,621.674,418.485
				L621.674,418.485z M607.481,404.85c-0.164,0.03-0.274,0.187-0.244,0.352c0,0.002,0.001,0.004,0.001,0.007
				c0.016,0.11,0.094,0.201,0.2,0.232c0.021-0.011,0.032,0,0.042,0c0.034,0.008,0.07,0.012,0.105,0.011
				c0.165-0.03,0.274-0.188,0.244-0.352c0-0.002-0.001-0.004-0.001-0.006C607.795,404.932,607.643,404.826,607.481,404.85
				L607.481,404.85z M608.735,412.063c-0.162,0.028-0.271,0.182-0.243,0.344c0,0.001,0.001,0.003,0.001,0.004
				c0.026,0.161,0.177,0.27,0.337,0.244c0.004-0.001,0.007-0.001,0.011-0.002c0.157-0.021,0.268-0.166,0.247-0.323
				c-0.001-0.008-0.003-0.017-0.004-0.025C609.048,412.147,608.897,412.042,608.735,412.063L608.735,412.063z M609.99,419.276
				c-0.161,0.034-0.27,0.184-0.253,0.348c0.035,0.168,0.199,0.276,0.367,0.241c0.16-0.033,0.267-0.185,0.245-0.346
				C610.309,419.358,610.154,419.253,609.99,419.276L609.99,419.276z M611.245,426.479c-0.162,0.039-0.27,0.193-0.253,0.358
				c0.037,0.163,0.194,0.269,0.359,0.243c0.164-0.029,0.276-0.183,0.253-0.348C611.572,426.565,611.413,426.453,611.245,426.479
				L611.245,426.479z M612.5,433.692c-0.164,0.034-0.272,0.193-0.242,0.359c0.032,0.161,0.186,0.268,0.348,0.243
				c0.163-0.029,0.272-0.185,0.243-0.348c-0.02-0.162-0.167-0.276-0.329-0.256C612.513,433.689,612.506,433.69,612.5,433.692
				L612.5,433.692z M614.799,400.4c-0.137-0.095-0.325-0.062-0.422,0.074c-0.096,0.136-0.064,0.324,0.072,0.421
				c0.001,0,0.001,0.001,0.002,0.001c0.135,0.099,0.325,0.069,0.423-0.066c0.099-0.135,0.069-0.324-0.066-0.423
				C614.805,400.405,614.802,400.403,614.799,400.4z M620.789,404.608c-0.133-0.095-0.317-0.064-0.411,0.069
				c-0.004,0.005-0.007,0.01-0.01,0.016c-0.096,0.137-0.063,0.326,0.074,0.422c0.139,0.085,0.32,0.053,0.422-0.074
				C620.958,404.9,620.925,404.709,620.789,404.608L620.789,404.608z M604.633,411.22c-0.161,0.02-0.275,0.167-0.254,0.328
				c0,0.003,0.001,0.007,0.001,0.01c0.012,0.154,0.146,0.27,0.3,0.258c0.012-0.001,0.025-0.003,0.037-0.005
				c0.159-0.013,0.278-0.153,0.265-0.312c0-0.005-0.001-0.01-0.002-0.015C604.958,411.315,604.802,411.197,604.633,411.22
				L604.633,411.22z M605.593,418.496c-0.165,0.03-0.279,0.181-0.264,0.348c0.024,0.169,0.179,0.287,0.348,0.264
				c0.168-0.029,0.281-0.189,0.252-0.357C605.901,418.591,605.755,418.479,605.593,418.496L605.593,418.496z M606.553,425.793
				c-0.162,0.015-0.281,0.158-0.266,0.319c0.001,0.006,0.001,0.012,0.002,0.018c0.025,0.163,0.173,0.278,0.337,0.264
				c0.169-0.024,0.287-0.179,0.264-0.348c-0.018-0.159-0.162-0.273-0.321-0.255C606.564,425.792,606.558,425.792,606.553,425.793
				L606.553,425.793z M607.502,433.069c-0.165,0.028-0.277,0.182-0.253,0.348c0.025,0.163,0.173,0.278,0.337,0.264
				c0.163-0.033,0.276-0.182,0.264-0.348C607.826,433.164,607.67,433.047,607.502,433.069L607.502,433.069z M608.662,400.98
				c-0.011-0.011-0.011-0.011-0.021-0.011c-0.129-0.088-0.305-0.061-0.401,0.063c-0.01,0.021-0.01,0.021,0,0.032
				c-0.097,0.114-0.083,0.285,0.031,0.381c0.004,0.003,0.007,0.006,0.011,0.009c0.131,0.105,0.322,0.084,0.427-0.047
				S608.793,401.085,608.662,400.98L608.662,400.98z M614.493,405.452c-0.135-0.102-0.327-0.076-0.429,0.059
				c-0.001,0.002-0.002,0.003-0.003,0.005c-0.097,0.138-0.069,0.328,0.063,0.432c0.133,0.097,0.319,0.068,0.415-0.065
				c0.002-0.003,0.004-0.006,0.006-0.009c0.103-0.125,0.084-0.31-0.041-0.413C614.501,405.458,614.497,405.455,614.493,405.452
				L614.493,405.452z M620.314,409.933c-0.125-0.103-0.31-0.084-0.412,0.041c-0.003,0.004-0.006,0.008-0.009,0.012
				c-0.105,0.131-0.084,0.323,0.047,0.428c0.002,0.002,0.004,0.003,0.006,0.005c0.136,0.095,0.323,0.073,0.432-0.053
				C620.476,410.228,620.448,410.037,620.314,409.933L620.314,409.933z M607.997,406.2c-0.084-0.146-0.271-0.195-0.417-0.111
				s-0.195,0.271-0.111,0.417c0.086,0.141,0.268,0.188,0.411,0.105C608.023,406.527,608.074,406.346,607.997,406.2L607.997,406.2z
				 M611.667,412.559c-0.091-0.141-0.275-0.188-0.422-0.105c-0.141,0.086-0.188,0.268-0.105,0.411
				c0.08,0.145,0.263,0.198,0.409,0.117c0.001,0,0.002-0.001,0.003-0.001C611.698,412.895,611.749,412.708,611.667,412.559
				L611.667,412.559z M615.337,418.928c-0.084-0.146-0.271-0.195-0.417-0.111s-0.195,0.271-0.111,0.417
				c0.082,0.142,0.264,0.191,0.406,0.109c0.002-0.001,0.003-0.002,0.005-0.003c0.145-0.08,0.198-0.263,0.117-0.409
				C615.338,418.93,615.337,418.929,615.337,418.928L615.337,418.928z M619.007,425.287c-0.087-0.14-0.268-0.186-0.411-0.105
				c-0.145,0.079-0.198,0.26-0.12,0.404c0.001,0.002,0.003,0.005,0.004,0.007c0.085,0.148,0.273,0.2,0.422,0.116
				C619.042,425.618,619.089,425.433,619.007,425.287L619.007,425.287z M622.687,431.656c-0.086-0.147-0.273-0.198-0.422-0.116
				c-0.142,0.089-0.193,0.272-0.116,0.422c0.076,0.14,0.251,0.193,0.391,0.117c0.007-0.004,0.014-0.008,0.02-0.012
				C622.706,431.986,622.761,431.805,622.687,431.656L622.687,431.656z M613.08,399.441c-0.169,0.032-0.327,0.074-0.496,0.116
				c-0.011,0.011-0.011,0.011-0.011,0.021c-0.042,0.16,0.053,0.325,0.213,0.367c0.003,0.001,0.005,0.001,0.008,0.002
				c0.157,0.046,0.321-0.044,0.366-0.201c0.001-0.003,0.002-0.007,0.003-0.01C613.197,399.63,613.164,399.514,613.08,399.441
				L613.08,399.441z M620.04,401.265c-0.161-0.042-0.326,0.055-0.368,0.216c0,0.002-0.001,0.003-0.001,0.005
				c-0.037,0.163,0.06,0.326,0.221,0.369c0.157,0.046,0.321-0.044,0.366-0.201c0.001-0.003,0.002-0.007,0.003-0.01
				C620.304,401.479,620.205,401.31,620.04,401.265L620.04,401.265z M605.583,410.039c-0.049-0.084-0.158-0.113-0.243-0.063
				s-0.113,0.158-0.063,0.243c0.049,0.084,0.158,0.113,0.243,0.063c0,0,0,0,0,0c0.084-0.048,0.113-0.155,0.065-0.239
				C605.584,410.041,605.583,410.04,605.583,410.039L605.583,410.039z M607.797,413.708c-0.046-0.084-0.152-0.114-0.235-0.068
				c-0.002,0.001-0.005,0.003-0.007,0.004c-0.083,0.056-0.11,0.165-0.063,0.253c0.061,0.076,0.17,0.094,0.253,0.042
				c0.078-0.047,0.103-0.148,0.057-0.226C607.8,413.713,607.798,413.711,607.797,413.708L607.797,413.708z M610.022,417.378
				c-0.048-0.084-0.155-0.113-0.239-0.065c-0.001,0.001-0.002,0.001-0.003,0.002h-0.011c-0.078,0.055-0.1,0.16-0.053,0.243
				c0.048,0.084,0.155,0.113,0.239,0.065c0.001-0.001,0.002-0.001,0.003-0.002c0.011-0.021,0.032-0.032,0.053-0.063
				C610.047,417.504,610.051,417.436,610.022,417.378L610.022,417.378z M607.038,400.928c-0.095-0.02-0.19,0.035-0.221,0.127
				c-0.026,0.094,0.029,0.192,0.123,0.218c0.005,0.001,0.009,0.002,0.014,0.003c0.092,0.024,0.186-0.031,0.21-0.124
				c0-0.001,0-0.002,0.001-0.003c0.027-0.095-0.028-0.194-0.123-0.221C607.04,400.928,607.039,400.928,607.038,400.928
				L607.038,400.928z M611.193,401.95c-0.095-0.017-0.187,0.043-0.211,0.137c-0.023,0.093,0.033,0.188,0.127,0.211
				c0.093,0.023,0.188-0.033,0.211-0.127C611.341,402.076,611.286,401.98,611.193,401.95L611.193,401.95z M615.358,402.984
				c-0.095-0.027-0.194,0.028-0.221,0.123c0,0.001-0.001,0.002-0.001,0.003c-0.025,0.096,0.032,0.194,0.127,0.219
				c0.096,0.025,0.194-0.032,0.219-0.127C615.508,403.108,615.452,403.01,615.358,402.984z M619.513,404.007
				c-0.093-0.021-0.186,0.035-0.211,0.127c-0.022,0.095,0.033,0.192,0.127,0.221c0.097,0.02,0.192-0.042,0.212-0.139
				C619.659,404.123,619.603,404.032,619.513,404.007L619.513,404.007z M601.765,418.158l-0.063,0.348h0.021
				c0.098-0.014,0.168-0.102,0.158-0.2C601.865,418.243,601.823,418.189,601.765,418.158L601.765,418.158z M602.313,422.387
				c-0.089,0.024-0.147,0.109-0.137,0.2c0.01,0.092,0.094,0.159,0.186,0.148c0.001,0,0.003,0,0.004,0
				c0.088-0.005,0.155-0.08,0.15-0.168c0-0.007-0.001-0.014-0.003-0.021c-0.006-0.095-0.088-0.166-0.182-0.16
				C602.326,422.385,602.319,422.386,602.313,422.387L602.313,422.387z M607.533,405.473c-0.014-0.015-0.033-0.026-0.053-0.032
				c-0.011,0-0.021-0.011-0.042,0c-0.061-0.012-0.122,0.013-0.158,0.063c-0.065,0.079-0.053,0.195,0.026,0.26
				s0.195,0.053,0.26-0.026c0.064-0.079,0.053-0.195-0.026-0.26C607.538,405.476,607.536,405.474,607.533,405.473L607.533,405.473z
				 M610.992,408.003c-0.083-0.052-0.192-0.034-0.253,0.042c-0.059,0.079-0.045,0.191,0.032,0.253c0.011,0.01,0.011,0.01,0.032,0.01
				c0.076,0.042,0.172,0.02,0.221-0.053C611.083,408.177,611.069,408.065,610.992,408.003L610.992,408.003z M614.43,410.545
				c-0.078-0.055-0.186-0.037-0.241,0.041c0,0-0.001,0.001-0.001,0.002c-0.056,0.082-0.037,0.194,0.042,0.253
				c0.083,0.05,0.191,0.032,0.253-0.042C614.535,410.713,614.512,410.602,614.43,410.545L614.43,410.545z M617.889,413.086
				c-0.076-0.055-0.183-0.042-0.242,0.032c-0.062,0.072-0.054,0.181,0.018,0.243c0.004,0.004,0.009,0.007,0.013,0.01
				c0.072,0.059,0.178,0.048,0.237-0.025c0.002-0.002,0.004-0.005,0.005-0.007C617.974,413.259,617.961,413.151,617.889,413.086
				L617.889,413.086z M605.467,412.633c-0.058-0.061-0.154-0.064-0.216-0.006c-0.002,0.002-0.004,0.004-0.006,0.006
				c-0.064,0.058-0.069,0.157-0.011,0.221c0.058,0.064,0.157,0.069,0.221,0.011c0.067-0.055,0.076-0.154,0.021-0.22
				C605.474,412.64,605.47,412.637,605.467,412.633L605.467,412.633z M607.966,415.448c-0.059-0.063-0.158-0.067-0.222-0.008
				c-0.062,0.058-0.067,0.155-0.01,0.219c0.059,0.061,0.156,0.066,0.221,0.011C608.011,415.608,608.016,415.515,607.966,415.448
				L607.966,415.448z M606.532,401.982c-0.08-0.007-0.15,0.051-0.158,0.131c0,0.002,0,0.004,0,0.006
				c-0.01,0.082,0.048,0.157,0.13,0.168c0.006,0.001,0.011,0.001,0.017,0.001c0.084,0.003,0.155-0.063,0.158-0.147c0,0,0,0,0-0.001
				C606.678,402.057,606.614,401.989,606.532,401.982L606.532,401.982z M610.275,402.204c-0.084-0.004-0.156,0.061-0.16,0.145
				c-0.004,0.084,0.061,0.156,0.145,0.16c0.001,0,0.003,0,0.004,0c0.079,0.008,0.15-0.05,0.158-0.129c0-0.003,0-0.005,0.001-0.008
				c0.01-0.082-0.048-0.157-0.13-0.168C610.287,402.204,610.281,402.204,610.275,402.204L610.275,402.204z M614.029,402.425
				c-0.086-0.007-0.161,0.057-0.168,0.143c0,0.001,0,0.003,0,0.004c-0.006,0.087,0.06,0.163,0.148,0.169
				c0.087,0.006,0.163-0.06,0.169-0.148C614.183,402.506,614.117,402.431,614.029,402.425z M602.071,421.101
				c-0.078,0.026-0.121,0.11-0.095,0.189c0,0,0,0.001,0,0.001c0.026,0.08,0.112,0.124,0.192,0.098
				c0.003-0.001,0.006-0.002,0.008-0.003c0.074-0.032,0.114-0.112,0.095-0.19c-0.026-0.08-0.112-0.124-0.192-0.098
				C602.076,421.099,602.074,421.1,602.071,421.101L602.071,421.101z M607.259,407.329c-0.076-0.033-0.164,0-0.2,0.074
				c-0.045,0.061-0.032,0.148,0.029,0.193c0.01,0.008,0.022,0.014,0.034,0.018c0.076,0.033,0.164,0,0.2-0.074
				c0.044-0.066,0.026-0.155-0.04-0.198C607.275,407.336,607.267,407.332,607.259,407.329L607.259,407.329z M610.644,408.974
				c-0.079-0.035-0.171-0.002-0.211,0.074c-0.041,0.075-0.014,0.168,0.061,0.21c0.001,0,0.002,0.001,0.003,0.001
				c0.079,0.038,0.173,0.005,0.211-0.074c0,0,0,0,0,0c0.041-0.075,0.014-0.168-0.061-0.21
				C610.646,408.975,610.645,408.974,610.644,408.974L610.644,408.974z M614.008,410.619c-0.075-0.041-0.168-0.014-0.21,0.061
				c0,0.001-0.001,0.002-0.001,0.003c-0.034,0.079-0.002,0.171,0.074,0.211c0.072,0.042,0.165,0.017,0.207-0.055
				c0.001-0.003,0.003-0.005,0.004-0.008C614.12,410.751,614.087,410.657,614.008,410.619L614.008,410.619z M602.335,420.236
				c-0.065-0.123-0.217-0.17-0.34-0.106c-0.006,0.003-0.013,0.007-0.019,0.011c-0.123,0.079-0.16,0.243-0.081,0.366
				c0.076,0.119,0.232,0.158,0.355,0.087C602.37,420.517,602.407,420.359,602.335,420.236L602.335,420.236z M605.572,425.719
				c-0.071-0.127-0.23-0.174-0.359-0.105c-0.126,0.078-0.167,0.241-0.095,0.369c0.075,0.122,0.233,0.164,0.359,0.095
				C605.602,426.005,605.644,425.845,605.572,425.719L605.572,425.719z M608.809,431.192c-0.073-0.127-0.235-0.17-0.362-0.097
				s-0.17,0.235-0.097,0.362c0.002,0.003,0.004,0.006,0.006,0.009c0.073,0.122,0.231,0.161,0.353,0.088
				c0.002-0.001,0.004-0.002,0.006-0.004C608.837,431.477,608.879,431.318,608.809,431.192L608.809,431.192z M604.633,406.727
				c-0.142-0.035-0.286,0.049-0.327,0.19c-0.025,0.144,0.061,0.284,0.2,0.327c0.142,0.032,0.284-0.056,0.316-0.199
				c0-0.001,0-0.001,0-0.002c0.04-0.132-0.036-0.271-0.168-0.311C604.648,406.731,604.641,406.729,604.633,406.727L604.633,406.727z
				 M610.802,408.309c-0.021,0-0.021,0-0.032-0.01c-0.136-0.007-0.258,0.08-0.295,0.211c-0.034,0.14,0.052,0.281,0.192,0.315
				c0.003,0.001,0.005,0.001,0.008,0.002c0.137,0.032,0.274-0.053,0.306-0.19c0,0,0,0,0,0
				C611.021,408.497,610.941,408.351,610.802,408.309L610.802,408.309z M616.961,409.902c-0.134-0.038-0.273,0.041-0.311,0.174
				c-0.002,0.009-0.004,0.017-0.006,0.026c-0.039,0.127,0.032,0.261,0.159,0.301c0.007,0.002,0.013,0.004,0.02,0.005
				c0.135,0.043,0.28-0.032,0.323-0.167c0.001-0.004,0.002-0.008,0.004-0.012C617.183,410.087,617.1,409.944,616.961,409.902
				L616.961,409.902z M604.823,413.54c-0.12-0.081-0.283-0.053-0.369,0.063c-0.086,0.117-0.062,0.281,0.053,0.369
				c0.118,0.08,0.278,0.057,0.369-0.053C604.966,413.8,604.943,413.63,604.823,413.54C604.823,413.54,604.823,413.54,604.823,413.54
				L604.823,413.54z M609.906,417.368c-0.034-0.032-0.079-0.051-0.127-0.053h-0.011c-0.089-0.001-0.174,0.037-0.232,0.105
				c-0.087,0.122-0.059,0.292,0.063,0.38c0.122,0.081,0.286,0.049,0.367-0.073C610.046,417.61,610.019,417.452,609.906,417.368z
				 M614.999,421.206c-0.114-0.09-0.279-0.071-0.369,0.042c-0.09,0.119-0.067,0.289,0.052,0.379c0,0,0,0,0,0
				c0.118,0.08,0.278,0.057,0.369-0.053C615.139,421.459,615.116,421.294,614.999,421.206
				C615,421.206,614.999,421.206,614.999,421.206L614.999,421.206z M620.082,425.023c-0.117-0.086-0.281-0.062-0.369,0.053
				c-0.088,0.111-0.069,0.273,0.042,0.361c0.003,0.003,0.007,0.005,0.01,0.008c0.116,0.087,0.282,0.064,0.369-0.053
				C620.222,425.276,620.199,425.111,620.082,425.023L620.082,425.023z M607.67,401.708c-0.142,0.02-0.242,0.151-0.222,0.294
				c0,0,0,0.001,0,0.001c0.017,0.14,0.143,0.24,0.283,0.223c0.004,0,0.008-0.001,0.012-0.002c0.135-0.011,0.235-0.13,0.224-0.265
				c-0.001-0.007-0.001-0.013-0.003-0.02c-0.016-0.144-0.145-0.248-0.289-0.233C607.675,401.707,607.672,401.708,607.67,401.708z
				 M613.976,400.822c-0.134,0.009-0.236,0.125-0.227,0.259c0.001,0.012,0.003,0.024,0.005,0.036
				c0.008,0.132,0.122,0.233,0.254,0.225c0.01-0.001,0.02-0.002,0.03-0.004c0.14-0.016,0.24-0.143,0.223-0.283
				c0-0.004-0.001-0.008-0.002-0.012c-0.011-0.135-0.13-0.235-0.265-0.224C613.99,400.82,613.983,400.821,613.976,400.822
				L613.976,400.822z M605.013,420.637c-0.122-0.111-0.311-0.101-0.422,0.021c-0.111,0.122-0.101,0.311,0.021,0.422
				c0.12,0.114,0.309,0.109,0.422-0.011s0.109-0.309-0.011-0.422C605.02,420.643,605.017,420.64,605.013,420.637z M610.286,425.445
				c-0.124-0.105-0.309-0.096-0.422,0.021c-0.114,0.117-0.111,0.303,0.005,0.417c0.117,0.114,0.303,0.111,0.417-0.005
				c0.003-0.004,0.007-0.007,0.01-0.011C610.399,425.744,610.394,425.564,610.286,425.445z M615.548,430.264
				c-0.115-0.111-0.299-0.107-0.41,0.008c-0.004,0.004-0.008,0.009-0.012,0.013c-0.111,0.106-0.115,0.282-0.009,0.393
				c0.006,0.006,0.013,0.012,0.019,0.018c0.116,0.111,0.3,0.107,0.411-0.009c0.004-0.004,0.008-0.008,0.011-0.012
				C615.666,430.558,615.661,430.376,615.548,430.264L615.548,430.264z M610.17,405.104c-0.151-0.001-0.275,0.121-0.276,0.272
				c0,0.011,0.001,0.023,0.002,0.034c0,0.158,0.128,0.286,0.286,0.286c0.158,0,0.286-0.128,0.286-0.286
				c0-0.011-0.001-0.021-0.002-0.032c0.002-0.15-0.117-0.273-0.267-0.275C610.188,405.102,610.179,405.103,610.17,405.104
				L610.17,405.104z M617.298,404.777c-0.164,0.008-0.293,0.142-0.295,0.306c0.005,0.162,0.141,0.29,0.304,0.285
				c0.001,0,0.002,0,0.002,0c0.153,0.005,0.281-0.114,0.286-0.267c0-0.013,0-0.026-0.001-0.039
				c-0.001-0.158-0.129-0.285-0.287-0.285C617.304,404.777,617.301,404.777,617.298,404.777L617.298,404.777z M602.398,435.6
				c-0.074-0.146-0.249-0.211-0.401-0.148c-0.145,0.07-0.206,0.245-0.137,0.39c0.068,0.147,0.242,0.213,0.39,0.148
				c0.147-0.063,0.215-0.233,0.152-0.38C602.401,435.607,602.399,435.604,602.398,435.6L602.398,435.6z M605.414,442.054
				c-0.064-0.144-0.233-0.208-0.377-0.143c-0.005,0.002-0.009,0.004-0.013,0.006c-0.147,0.068-0.213,0.242-0.148,0.39
				c0.069,0.145,0.242,0.207,0.388,0.138c0.001,0,0.002-0.001,0.003-0.001C605.413,442.376,605.479,442.203,605.414,442.054
				L605.414,442.054z M605.393,412.454c-0.154-0.052-0.322,0.027-0.38,0.179c-0.056,0.151,0.019,0.32,0.169,0.38
				c0.151,0.059,0.32-0.016,0.379-0.167c0-0.001,0-0.001,0.001-0.002c0.061-0.154-0.014-0.328-0.168-0.39
				C605.393,412.454,605.393,412.454,605.393,412.454L605.393,412.454z M612.089,414.89c-0.152-0.054-0.319,0.025-0.373,0.177
				c-0.053,0.15,0.023,0.315,0.172,0.371c0.154,0.059,0.328-0.016,0.39-0.169C612.324,415.112,612.242,414.947,612.089,414.89
				L612.089,414.89z M618.796,417.326c-0.149-0.058-0.316,0.016-0.374,0.164c-0.002,0.005-0.004,0.01-0.005,0.015
				c-0.054,0.149,0.023,0.313,0.172,0.366c0.003,0.001,0.005,0.002,0.008,0.003c0.149,0.058,0.316-0.016,0.374-0.164
				c0.002-0.005,0.004-0.01,0.005-0.015c0.054-0.149-0.023-0.313-0.172-0.366C618.801,417.327,618.798,417.326,618.796,417.326
				L618.796,417.326z M602.292,416.366c-0.071-0.031-0.153,0-0.185,0.071c-0.002,0.004-0.004,0.009-0.005,0.014
				c-0.036,0.063-0.014,0.143,0.048,0.179c0.008,0.005,0.017,0.008,0.025,0.011c0.067,0.038,0.151,0.016,0.19-0.051
				c0.004-0.007,0.008-0.015,0.011-0.023c0.033-0.077-0.002-0.165-0.079-0.198C602.296,416.367,602.294,416.367,602.292,416.366
				L602.292,416.366z M605.793,409.427c-0.086,0.002-0.156,0.072-0.158,0.158c-0.003,0.084,0.063,0.155,0.148,0.158
				c0.086,0.002,0.157-0.067,0.158-0.152c0-0.002,0-0.004,0-0.006C605.944,409.501,605.878,409.43,605.793,409.427L605.793,409.427z
				"/>
		</g>
		<g id="sweater">
			
				<linearGradient id="R_sleeve_1_" gradientUnits="userSpaceOnUse" x1="541.7526" y1="340.4985" x2="586.8635" y2="340.4985" gradientTransform="matrix(1 0 0 -1 0 722)">
				<stop  offset="0" style="stop-color:#23286B"/>
				<stop  offset="1" style="stop-color:#131951"/>
			</linearGradient>
			<path id="R_sleeve" style="fill:url(#R_sleeve_1_);" d="M561.266,342.528c0,0,4.201,10.903,3.19,27.281
				c-0.616,9.979-8.998,21.577-15.843,29.561c-5.598,6.53-6.86,7.834-6.86,7.834l24.479,20.401c0,0,10.305-4.693,11.421-14.059
				s3.75-14.008,5.581-18.35c3.282-7.785,5.856-13.359,0.715-27.729c-4.741-13.249-9.84-28.365-15.114-32.069l0,0"/>
			
				<linearGradient id="sweater-2_1_" gradientUnits="userSpaceOnUse" x1="600.2292" y1="365.3438" x2="600.2292" y2="335.7999" gradientTransform="matrix(1 0 0 -1 0 722)">
				<stop  offset="0" style="stop-color:#23286B"/>
				<stop  offset="1" style="stop-color:#131951"/>
			</linearGradient>
			<path id="sweater-2" style="fill:url(#sweater-2_1_);" d="M634.671,391.914c0,0-17.975,6.992-31.336,9.349
				c1.348-7.813,3.44-16.349-4.239-29.792c-9.007-15.759-26.259-32.816-33.794-36.326c10.313,1.207,20.246,4.611,29.131,9.985
				c14.946,8.976,15.255,14.936,23.685,20.422C626.539,371.039,637.615,377.441,634.671,391.914z"/>
			<path id="L_sleeve" style="fill:#23286B;" d="M561.266,342.528c2.992,9.943,5.451,20.038,7.367,30.242
				c2.218,11.517-0.568,29.738-4.839,38.88s-5.713,10.795-5.713,10.795l33.331,19.083c0,0,10.942-7.533,10.312-18.58
				s1.462-16.949,2.687-22.34c2.196-9.665,4.028-16.631-4.856-32.177c-8.191-14.333-23.868-29.835-30.719-33.033l0,0"/>
		</g>
		<g id="L_hand">
			
				<rect id="square-2" x="485.414" y="412.516" transform="matrix(0.673 -0.7396 0.7396 0.673 -158.9838 526.502)" style="fill:#EEEEEE;" width="61.073" height="61.073"/>
			<path id="L_hand-2" style="fill:#FFBEB6;" d="M574.64,431.92c-6.096,5.54-12.687,10.511-19.69,14.85
				c-6.85,3.97-14.54,7.02-18.19,10.16c-5.49,4.71-10.62,6.07-17.16,5.69c-6.53-0.37-10.36-7.85-9.7-8.8
				c0.66-0.96,8.14,0.07,10.53-0.72c2.38-0.78,2.96-0.43-1.46-4.3c-4.42-3.86-1.42-4.51,1.07-2.85c2.5,1.67,7.8,2.06,10.67,2.64
				c4.06,0.81,6.64-2.04,13.5-7.99c3.61-3.13,9.38-11.17,14.02-18.07L574.64,431.92z"/>
		</g>
		<g id="head">
			<path id="face" style="fill:#FFBEB6;" d="M537.213,322.029c0.02,0.08,0.037,0.138,0.044,0.174
				c-0.001,0.012,0.002,0.025,0.007,0.036c0.08,0.319,0.173,0.641,0.278,0.972c1.131,3.559-0.11,7.29,0.322,8.215
				s2.528,0.708,3.431,0.389s3.945,3.503,8.619,4.363c4.386,0.808,9.203-1.781,11.636-5.106
				c-2.048-7.792-4.737-10.668-13.196-10.675c-9.233-0.011-11.149-5.175-11.149-5.175
				C536.7,317.463,536.702,319.789,537.213,322.029z"/>
			
				<linearGradient id="neck_1_" gradientUnits="userSpaceOnUse" x1="566.2752" y1="381.9025" x2="561.6683" y2="386.2669" gradientTransform="matrix(1 0 0 -1 0 722)">
				<stop  offset="0" style="stop-color:#FFBEB6"/>
				<stop  offset="1" style="stop-color:#F79992"/>
			</linearGradient>
			<path id="neck" style="fill:url(#neck_1_);" d="M568.83,335.4c-2.63,7.94-7.56,7.13-7.56,7.13
				c-0.857-1.973-1.901-3.858-3.12-5.63c2.12-0.86,5.07-2.15,8.28-3.83L568.83,335.4z"/>
			<path id="hair" style="fill:#E94A47;" d="M584.98,314.963c-1.505-1.025-3.162-1.806-4.911-2.313
				c-3.407-1.047-6.468-2.994-8.861-5.636c-1.594-1.871-3.409-3.54-5.407-4.972c-4.869-3.975-11.581-4.817-17.281-2.169
				c-8.445,4.033-17.686,11.726-11.226,22.625c-0.54-2.341-0.534-4.775,0.015-7.114c0,0-0.388,4.309,7.266,6.005
				c2.949,0.865,5.501,2.739,7.209,5.294c2.433,3.974,1.614,9.082-2.719,11.239c-0.432,0.215-0.053,0.862,0.379,0.648
				c3.767-1.893,5.478-6.34,3.951-10.27c-0.983-2.613-2.873-4.785-5.325-6.12c5.982,2.106,6.999,9.019,6.746,15.98
				c0,0,21.592-7.232,29.589-19.804c-1.632-2.402-4.035-4.175-6.812-5.025c-3.626-1.201-7.18-5.43-9.401-8.326
				c1.715,1.705,3.268,3.643,5.221,5.238c3.351,2.737,7.744,2.879,11.19,5.367C584.993,315.894,585.368,315.243,584.98,314.963z"/>
			<path id="eye" style="fill:#1C2868;" d="M539.554,324.364c0.99,1.123,2.704,1.231,3.827,0.24
				c0.407-0.359,0.696-0.831,0.832-1.356c0.106-0.399-0.497-0.639-0.605-0.235c-0.243,1.114-1.343,1.82-2.456,1.577
				c-0.42-0.092-0.801-0.312-1.09-0.63C539.778,323.658,539.268,324.059,539.554,324.364L539.554,324.364z"/>
		</g>
	</g>
	<g id="machine">
		<path id="wheel" style="fill:#23286B;" d="M499.022,603.228c-14.26,0-25.821-11.561-25.82-25.821s11.561-25.821,25.821-25.82
			s25.821,11.561,25.82,25.821C524.828,591.661,513.276,603.212,499.022,603.228z M499.022,565.586
			c-6.528,0-11.821,5.293-11.82,11.821s5.293,11.821,11.821,11.82c6.528,0,11.82-5.292,11.82-11.82
			C510.837,570.882,505.548,565.593,499.022,565.586z"/>
		<g>
			<path style="fill:#A1C3FC;" d="M394.16,597.604c-4.181-0.018-8.182-1.707-11.111-4.691c-5.123-5.035-6.359-12.826-3.045-19.199
				l12.229-24.258l4.465,2.25l-12.229,24.258c-2.311,4.452-1.453,9.889,2.116,13.413c3.226,3.362,8.279,4.201,12.419,2.062
				l74.322-42.25l2.471,4.348l-74.487,42.34C399.094,597.005,396.645,597.596,394.16,597.604z"/>
			
				<rect x="351.383" y="425.157" transform="matrix(0.8105 -0.5858 0.5858 0.8105 -222.5609 301.0164)" style="fill:#A1C3FC;" width="5.001" height="138.554"/>
			<path style="fill:#A1C3FC;" d="M519.477,599.94c-0.674,0.001-1.32-0.271-1.79-0.755l-44.194-45.336
				c-6.156-0.082-38.996-0.503-79.043-0.769c-1.38-0.009-2.492-1.135-2.483-2.516c0,0,0-0.001,0-0.001
				c0.009-1.381,0.173-5.036,1.597-5.007c44.284,0.294,80.679,3.301,81.032,3.306c0.662,0.01,1.293,0.281,1.756,0.755l44.917,46.077
				c0.964,0.989,0.944,2.571-0.045,3.535C520.755,599.685,520.129,599.94,519.477,599.94L519.477,599.94z"/>
		</g>
		<path id="handle" style="fill:#23286B;" d="M293.842,432.821h17.7c2.211,0,4.003,1.792,4.003,4.003v0
			c0,2.211-1.792,4.003-4.003,4.003h-17.7c-2.211,0-4.003-1.792-4.003-4.003v0C289.839,434.614,291.631,432.821,293.842,432.821z"/>
		<circle id="pin" style="fill:#23286B;" cx="499.023" cy="577.407" r="5.085"/>
		
			<linearGradient id="body_1_" gradientUnits="userSpaceOnUse" x1="451.2132" y1="218.5803" x2="419.053" y2="145.7276" gradientTransform="matrix(1 0 0 -1 0 722)">
			<stop  offset="0" style="stop-color:#A1C3FC"/>
			<stop  offset="1" style="stop-color:#84AFEF"/>
		</linearGradient>
		<path id="body" style="fill:url(#body_1_);" d="M386.441,499.542l132.967,0c0,0-34.253,48.194-51.265,48.802
			c-14.337,0.512-49.802,0.07-67.343-0.02c-5.634-0.029-9.26-3.832-10.436-8.734L386.441,499.542z"/>
	</g>
	<g id="man">
		<g id="shoes-2">
			
				<linearGradient id="L_shoe-2_1_" gradientUnits="userSpaceOnUse" x1="178.3487" y1="128.9948" x2="238.8369" y2="128.9948" gradientTransform="matrix(1 0 0 -1 0 722)">
				<stop  offset="0" style="stop-color:#A1C3FC"/>
				<stop  offset="1" style="stop-color:#84AFEF"/>
			</linearGradient>
			<path id="L_shoe-2" style="fill:url(#L_shoe-2_1_);" d="M186.917,581.054l-8.568,23.901l60.488,0.002
				c0,0-3.102-5.982-13.441-10.413s-19.99-13.49-19.99-13.49H186.917"/>
			<path id="R_shoe-2" style="fill:#A1C3FC;" d="M238.759,580.975l-8.568,23.901l60.488,0.002c0,0-3.102-5.982-13.441-10.413
				s-19.99-13.49-19.99-13.49H238.759"/>
		</g>
		<g id="trousers-2">
			
				<linearGradient id="L_trousers-2_1_" gradientUnits="userSpaceOnUse" x1="190.4247" y1="201.3193" x2="230.5251" y2="230.0364" gradientTransform="matrix(1 0 0 -1 0 722)">
				<stop  offset="0" style="stop-color:#23286B"/>
				<stop  offset="1" style="stop-color:#131951"/>
			</linearGradient>
			<path id="L_trousers-2" style="fill:url(#L_trousers-2_1_);" d="M231.28,452.09c7.48,9.47,12.07,16.88,14.37,23.67
				c-2.77,9.31-5.95,18.98-9.42,27.75c-11.97,30.25-28.99,77.53-28.99,77.53h-33.41c0,0-3.39-10.06-0.32-19.86
				c1.58-5.02,4.2-4.17,6.48-20.74c1.8-13.14,5.09-18.06,11.08-27.83s14.64-14.06,23.1-43.77c6.21-21.83,5.2-34.64,4-40.43
				C221.142,437,225.578,445.011,231.28,452.09z"/>
			
				<linearGradient id="R_trousers-2_1_" gradientUnits="userSpaceOnUse" x1="225.2095" y1="255.6439" x2="201.5334" y2="307.0998" gradientTransform="matrix(1 0 0 -1 0 722)">
				<stop  offset="0" style="stop-color:#23286B"/>
				<stop  offset="1" style="stop-color:#142066"/>
			</linearGradient>
			<path id="R_trousers-2" style="fill:url(#R_trousers-2_1_);" d="M282.44,503.58c-2.09,12.34-25.12,77.46-25.12,77.46l-33.47-0.09
				c-1.48-16.07-0.26-15.98,4.23-25.61c4.5-9.64-1.72-17.38,5.84-30.31c5.35-9.13,7.68-12.01,11.86-27.1
				c4.17-15.1,1.24-25.92-14.5-45.84c-12.68-16.04-15.25-30.34-15.78-35.29c3.507,1.116,7.081,2.012,10.7,2.68
				c2.21,4.38,4.62,6.79,9.82,11.63c3.33,3.11,9.99,5.47,14.83,11.09c4.11,4.77,11.04,7.42,11.04,7.42l3.46-9.57
				c4.81,9.25,10.24,19.64,13.97,26.61C287.47,481.93,284.53,491.24,282.44,503.58z"/>
			<path id="texture-2" style="opacity:0.39;fill:#FFFFFF;enable-background:new    ;" d="M226.806,433.801
				c-0.1-0.101-0.263-0.102-0.364-0.002c-0.004,0.004-0.007,0.007-0.01,0.011c-0.098,0.1-0.097,0.261,0.004,0.36
				c0.002,0.002,0.004,0.004,0.006,0.005c0.1,0.101,0.263,0.102,0.364,0.002c0.004-0.004,0.007-0.007,0.01-0.011
				c0.098-0.1,0.097-0.261-0.004-0.36C226.81,433.805,226.808,433.803,226.806,433.801z M231.11,429.159
				c-0.107-0.093-0.268-0.084-0.365,0.019c-0.096,0.108-0.092,0.271,0.009,0.374c0.109,0.098,0.276,0.089,0.374-0.019
				c0.098-0.103,0.095-0.267-0.009-0.365C231.117,429.165,231.114,429.162,231.11,429.159z M247.244,447.679
				c-0.145,0.005-0.258,0.126-0.253,0.271c0,0,0,0,0,0.001c0.013,0.143,0.137,0.25,0.281,0.243c0.137,0.003,0.25-0.106,0.253-0.244
				c0-0.006,0-0.012,0-0.018C247.515,447.785,247.39,447.673,247.244,447.679z M247.028,441.353
				c-0.146,0.009-0.259,0.134-0.253,0.281c0.006,0.14,0.124,0.249,0.264,0.244c0.002,0,0.005,0,0.007,0
				c0.145-0.011,0.253-0.137,0.242-0.281C247.279,441.459,247.165,441.353,247.028,441.353L247.028,441.353z M222.903,423.414
				c-0.07-0.126-0.223-0.178-0.356-0.122c-0.129,0.062-0.183,0.217-0.122,0.346c0.057,0.129,0.208,0.188,0.338,0.13
				c0.006-0.003,0.012-0.006,0.018-0.009c0.127-0.055,0.185-0.203,0.13-0.329C222.909,423.425,222.906,423.419,222.903,423.414
				L222.903,423.414z M234.564,442.569c-0.129-0.053-0.277,0.009-0.329,0.139c-0.003,0.007-0.005,0.014-0.007,0.021
				c-0.044,0.134,0.026,0.279,0.159,0.328c0.13,0.053,0.277-0.01,0.33-0.14c0.003-0.006,0.005-0.013,0.007-0.019
				c0.05-0.127-0.012-0.27-0.139-0.321C234.577,442.574,234.57,442.571,234.564,442.569L234.564,442.569z M236.781,436.636
				c-0.139-0.047-0.291,0.023-0.346,0.159c-0.034,0.138,0.037,0.281,0.168,0.337c0.137,0.049,0.288-0.022,0.337-0.159
				c0.051-0.132-0.014-0.281-0.146-0.332C236.79,436.639,236.786,436.638,236.781,436.636z M223.446,418.931
				c-0.031,0.058-0.035,0.127-0.009,0.187c0.047,0.119,0.178,0.181,0.299,0.14c0.103-0.032,0.164-0.138,0.14-0.243
				C223.736,418.987,223.587,418.959,223.446,418.931z M228.836,440.305c-0.116-0.052-0.253-0.002-0.309,0.112
				c-0.056,0.114-0.01,0.251,0.103,0.309c0.117,0.054,0.255,0.009,0.318-0.103C229.006,440.504,228.955,440.362,228.836,440.305
				C228.836,440.305,228.836,440.305,228.836,440.305L228.836,440.305z M231.307,435.233c-0.116-0.054-0.255-0.004-0.309,0.112
				s-0.004,0.255,0.112,0.309c0.114,0.053,0.249,0.008,0.309-0.103c0.058-0.115,0.013-0.255-0.102-0.313
				C231.314,435.236,231.31,435.234,231.307,435.233z M233.787,430.151c-0.072-0.035-0.156-0.031-0.225,0.009h-0.009
				c-0.035,0.022-0.061,0.055-0.075,0.094c-0.031,0.061-0.034,0.133-0.009,0.196c0.022,0.055,0.066,0.099,0.122,0.122
				c0.099,0.059,0.226,0.026,0.285-0.073c0.006-0.01,0.011-0.02,0.015-0.03c0.06-0.113,0.018-0.254-0.095-0.314
				C233.792,430.154,233.789,430.153,233.787,430.151L233.787,430.151z M225.215,427.232c-0.072-0.097-0.21-0.118-0.307-0.045
				c-0.007,0.005-0.014,0.011-0.02,0.017c-0.094,0.09-0.102,0.237-0.019,0.337c0.083,0.093,0.226,0.101,0.319,0.018
				c0.003-0.003,0.006-0.005,0.009-0.008c0.093-0.075,0.107-0.211,0.032-0.304C225.224,427.241,225.219,427.236,225.215,427.232
				L225.215,427.232z M240.178,440.511c-0.13-0.003-0.241,0.095-0.253,0.225c-0.007,0.126,0.089,0.235,0.215,0.243
				c0.124,0.015,0.236-0.072,0.252-0.196c0-0.003,0.001-0.007,0.001-0.01C240.399,440.643,240.306,440.53,240.178,440.511
				L240.178,440.511z M240.515,434.877c-0.129-0.003-0.236,0.096-0.243,0.225c-0.007,0.128,0.092,0.237,0.22,0.243
				c0.002,0,0.003,0,0.005,0c0.125,0.004,0.232-0.09,0.243-0.215C240.744,434.999,240.645,434.888,240.515,434.877z
				 M227.704,426.539c-0.065-0.041-0.151-0.024-0.196,0.037c-0.047,0.059-0.037,0.145,0.022,0.192
				c0.002,0.002,0.004,0.003,0.006,0.004c0.052,0.043,0.129,0.036,0.173-0.016c0.006-0.007,0.01-0.014,0.014-0.022
				C227.768,426.675,227.76,426.59,227.704,426.539z M224.373,420.157c-0.035-0.064-0.116-0.087-0.179-0.051
				c-0.003,0.001-0.005,0.003-0.008,0.005c-0.062,0.044-0.085,0.126-0.056,0.197c0.046,0.061,0.128,0.081,0.197,0.047
				C224.392,420.311,224.413,420.224,224.373,420.157L224.373,420.157z M225.645,430.02c-0.078-0.033-0.168,0-0.206,0.075
				c-0.036,0.08-0.003,0.175,0.075,0.215c0.074,0.038,0.164,0.008,0.201-0.065c0.002-0.003,0.003-0.006,0.005-0.01
				c0.041-0.074,0.015-0.167-0.059-0.208C225.656,430.025,225.651,430.023,225.645,430.02L225.645,430.02z M227.358,426.623
				c-0.078-0.035-0.17-0.007-0.215,0.066c-0.04,0.081-0.011,0.178,0.066,0.225c0.08,0.03,0.171-0.001,0.215-0.075
				C227.458,426.761,227.43,426.669,227.358,426.623L227.358,426.623z M220.704,423.591c-0.056-0.061-0.15-0.07-0.215-0.019
				c-0.066,0.057-0.074,0.157-0.019,0.225c0.053,0.067,0.149,0.078,0.216,0.026c0.003-0.002,0.006-0.005,0.008-0.007
				C220.758,423.756,220.762,423.656,220.704,423.591L220.704,423.591z M223.587,421.102c-0.054-0.064-0.151-0.073-0.215-0.018
				c-0.003,0.003-0.007,0.006-0.01,0.009c-0.064,0.047-0.078,0.136-0.032,0.2c0.004,0.005,0.008,0.01,0.013,0.015
				c0.052,0.064,0.147,0.074,0.212,0.022c0.001-0.001,0.002-0.002,0.004-0.003c0.069-0.051,0.084-0.148,0.034-0.217
				C223.59,421.107,223.589,421.104,223.587,421.102L223.587,421.102z M233.562,430.161h-0.009c-0.087-0.003-0.161,0.063-0.168,0.15
				c0,0.059,0.033,0.112,0.084,0.14c0.028,0.009,0.047,0.009,0.065,0.028c0.087,0.006,0.162-0.06,0.168-0.147
				c0-0.001,0-0.002,0-0.003C233.707,430.245,233.646,430.172,233.562,430.161L233.562,430.161z M219.347,421.645
				c-0.101-0.111-0.273-0.119-0.384-0.019c-0.111,0.101-0.119,0.273-0.019,0.384c0.086,0.108,0.244,0.125,0.352,0.039
				c0.008-0.006,0.015-0.013,0.022-0.02C219.43,421.929,219.443,421.76,219.347,421.645L219.347,421.645z M229.435,446.444
				c-0.151-0.003-0.278,0.112-0.29,0.262c0,0.15,0.122,0.271,0.271,0.271c0.137,0.017,0.262-0.08,0.279-0.218
				c0.001-0.009,0.002-0.017,0.002-0.026C229.697,446.584,229.584,446.46,229.435,446.444L229.435,446.444z M229.763,439.94
				c-0.147-0.006-0.272,0.106-0.281,0.253c-0.011,0.15,0.102,0.28,0.252,0.29c0.15,0.01,0.28-0.102,0.29-0.252
				c0-0.003,0-0.007,0.001-0.01c0.008-0.147-0.104-0.272-0.251-0.28C229.77,439.94,229.767,439.94,229.763,439.94L229.763,439.94z
				 M230.09,433.427c-0.145-0.01-0.271,0.1-0.28,0.245c0,0.003,0,0.005,0,0.008c-0.002,0.149,0.114,0.273,0.262,0.281
				c0.147,0.008,0.273-0.105,0.281-0.252c0.008-0.147-0.105-0.273-0.252-0.281C230.097,433.427,230.094,433.427,230.09,433.427z
				 M230.437,426.913c-0.151-0.007-0.281,0.103-0.299,0.253c0.001,0.149,0.114,0.274,0.262,0.29c0.15,0.005,0.276-0.113,0.281-0.263
				C230.685,427.05,230.578,426.928,230.437,426.913z M222.604,428.457c-0.128-0.066-0.285-0.016-0.351,0.112
				c-0.002,0.003-0.003,0.006-0.005,0.009c-0.071,0.132-0.022,0.297,0.111,0.369c0.132,0.071,0.297,0.022,0.369-0.111
				c0.003-0.005,0.005-0.01,0.007-0.015c0.066-0.134,0.011-0.295-0.123-0.361C222.609,428.46,222.607,428.459,222.604,428.457
				L222.604,428.457z M225.402,422.571c-0.132-0.068-0.294-0.016-0.362,0.116c-0.001,0.002-0.002,0.004-0.003,0.006
				c-0.065,0.126-0.016,0.281,0.111,0.346c0.007,0.003,0.013,0.007,0.02,0.009c0.132,0.069,0.295,0.019,0.365-0.112
				C225.594,422.799,225.537,422.638,225.402,422.571L225.402,422.571z M241.713,441.69c-0.139,0.052-0.214,0.204-0.168,0.346
				c0.058,0.139,0.211,0.211,0.356,0.168c0.132-0.054,0.201-0.2,0.159-0.337C242.01,441.725,241.857,441.646,241.713,441.69
				L241.713,441.69z M239.533,435.56c-0.135,0.038-0.214,0.179-0.176,0.314c0.002,0.008,0.005,0.015,0.007,0.022
				c0.05,0.141,0.204,0.216,0.346,0.168c0.134-0.057,0.203-0.207,0.159-0.346c-0.039-0.132-0.178-0.208-0.311-0.168
				C239.55,435.553,239.541,435.557,239.533,435.56L239.533,435.56z M220.087,424.462c-0.122-0.074-0.282-0.035-0.356,0.087
				c-0.003,0.005-0.006,0.011-0.009,0.016c-0.069,0.137-0.015,0.304,0.122,0.374c0.13,0.06,0.284,0.011,0.356-0.112
				c0.07-0.13,0.022-0.293-0.109-0.363C220.089,424.463,220.088,424.462,220.087,424.462L220.087,424.462z M223.259,418.884
				c-0.159-0.028-0.309-0.066-0.468-0.094c-0.017,0.007-0.03,0.021-0.037,0.037c-0.066,0.134-0.012,0.297,0.122,0.365
				c0.14,0.062,0.304-0.002,0.366-0.142C223.264,418.999,223.27,418.94,223.259,418.884z M238.017,444.198
				c-0.141,0.046-0.217,0.197-0.171,0.338c0.001,0.003,0.002,0.006,0.003,0.008c0.042,0.139,0.188,0.219,0.328,0.178
				c0.14-0.046,0.219-0.195,0.178-0.337C238.309,444.243,238.161,444.16,238.017,444.198L238.017,444.198z M236.098,437.993
				c-0.145,0.047-0.227,0.199-0.187,0.346c0.049,0.146,0.207,0.225,0.352,0.176c0.139-0.047,0.218-0.193,0.181-0.335
				C236.392,438.04,236.244,437.961,236.098,437.993L236.098,437.993z M234.18,431.798c-0.139,0.048-0.22,0.193-0.187,0.337
				c0.052,0.139,0.204,0.213,0.346,0.168c0.141-0.042,0.221-0.19,0.179-0.332c-0.001-0.002-0.001-0.004-0.002-0.005
				C234.464,431.833,234.319,431.76,234.18,431.798L234.18,431.798z M224.915,435.635c-0.149-0.007-0.277,0.104-0.29,0.253
				c-0.018,0.141,0.082,0.27,0.223,0.288c0.007,0.001,0.013,0.001,0.02,0.002c0.145,0.009,0.273-0.091,0.299-0.234
				C225.176,435.791,225.067,435.657,224.915,435.635L224.915,435.635z M225.514,429.178c-0.145-0.016-0.274,0.089-0.29,0.234
				c0,0,0,0,0,0c-0.014,0.151,0.097,0.285,0.247,0.299c0.002,0,0.003,0,0.005,0c0.147,0.008,0.273-0.105,0.281-0.253
				C225.766,429.315,225.658,429.19,225.514,429.178L225.514,429.178z M226.123,422.712c-0.15-0.015-0.283,0.094-0.299,0.243
				c-0.01,0.145,0.099,0.27,0.243,0.281c0.144,0.021,0.278-0.079,0.299-0.223c0.021-0.144-0.079-0.278-0.223-0.299
				C226.136,422.713,226.129,422.712,226.123,422.712L226.123,422.712z M220.564,421.355c-0.106-0.03-0.216,0.027-0.253,0.131
				c-0.037,0.108,0.021,0.225,0.128,0.261s0.225-0.021,0.261-0.128c0.037-0.108-0.021-0.225-0.128-0.261
				C220.57,421.356,220.567,421.356,220.564,421.355z M237.156,433.183c-0.052-0.097-0.173-0.133-0.27-0.081
				c-0.097,0.052-0.133,0.173-0.081,0.27c0.001,0.003,0.003,0.005,0.005,0.008c0.056,0.098,0.18,0.132,0.278,0.076
				c0.001,0,0.002-0.001,0.003-0.001C237.179,433.395,237.208,433.277,237.156,433.183L237.156,433.183z M226.6,433.745
				c-0.111,0.02-0.189,0.122-0.178,0.234c0.016,0.109,0.114,0.188,0.225,0.178c0.111-0.02,0.188-0.122,0.178-0.234
				C226.806,433.815,226.709,433.738,226.6,433.745L226.6,433.745z M226.029,428.888c-0.108,0.008-0.188,0.103-0.179,0.21
				c0,0.005,0.001,0.01,0.002,0.014c0.015,0.111,0.113,0.192,0.225,0.187c0.11-0.02,0.185-0.123,0.168-0.234
				c-0.004-0.103-0.091-0.184-0.194-0.18C226.043,428.886,226.036,428.887,226.029,428.888z M225.449,424.013
				c-0.11,0.02-0.185,0.123-0.168,0.234c0.006,0.105,0.095,0.186,0.201,0.181c0.008,0,0.016-0.001,0.024-0.003
				c0.111-0.012,0.19-0.112,0.178-0.223c0-0.001,0-0.001,0-0.002C225.658,424.091,225.561,424.013,225.449,424.013L225.449,424.013z
				 M225.084,419.268c-0.103-0.019-0.197-0.037-0.299-0.056c-0.058,0.036-0.09,0.101-0.084,0.168
				c0.013,0.112,0.114,0.192,0.226,0.179c0.003,0,0.005-0.001,0.008-0.001c0.105-0.012,0.181-0.106,0.169-0.211
				c0-0.001,0-0.003-0.001-0.004C225.102,419.317,225.096,419.291,225.084,419.268L225.084,419.268z M224.139,423.236
				c-0.053,0.016-0.083,0.073-0.067,0.126c0,0.002,0.001,0.003,0.002,0.005c0.012,0.059,0.069,0.097,0.127,0.085
				c0.001,0,0.003-0.001,0.004-0.001c0.066-0.028,0.103-0.075,0.075-0.14C224.258,423.254,224.198,423.222,224.139,423.236
				L224.139,423.236z M223.54,420.747c-0.011-0.062-0.069-0.104-0.131-0.094c-0.057,0.026-0.089,0.088-0.075,0.15
				c0.014,0.056,0.072,0.09,0.128,0.076c0.001,0,0.002-0.001,0.003-0.001C223.54,420.859,223.568,420.793,223.54,420.747
				L223.54,420.747z M218.833,419.586c-0.064,0.002-0.119,0.049-0.131,0.112c-0.002,0.058,0.037,0.109,0.094,0.122
				c0.065,0.001,0.122-0.041,0.14-0.103C218.94,419.653,218.896,419.597,218.833,419.586L218.833,419.586z M227.919,427.11
				c-0.06-0.08-0.172-0.097-0.253-0.037c-0.082,0.06-0.101,0.175-0.041,0.257c0.001,0.002,0.002,0.003,0.004,0.005
				c0.066,0.078,0.181,0.091,0.262,0.028c0.077-0.056,0.094-0.164,0.038-0.241C227.926,427.118,227.923,427.114,227.919,427.11
				L227.919,427.11z M225.177,423.629c-0.053-0.079-0.16-0.1-0.239-0.047c-0.005,0.003-0.009,0.006-0.013,0.01
				c-0.074,0.053-0.091,0.155-0.039,0.229c0.006,0.008,0.013,0.016,0.02,0.023c0.046,0.076,0.146,0.1,0.222,0.053
				c0.008-0.005,0.015-0.01,0.022-0.016c0.077-0.055,0.094-0.162,0.039-0.239C225.185,423.638,225.181,423.633,225.177,423.629
				L225.177,423.629z M222.454,420.148c-0.063-0.081-0.179-0.097-0.262-0.037c-0.075,0.066-0.091,0.177-0.037,0.262
				c0.066,0.078,0.181,0.091,0.262,0.028c0.079-0.053,0.1-0.16,0.047-0.239C222.461,420.156,222.458,420.152,222.454,420.148
				L222.454,420.148z"/>
		</g>
		<g id="hand">
			
				<linearGradient id="SVGID_1_" gradientUnits="userSpaceOnUse" x1="298.8703" y1="284.4515" x2="245.2213" y2="317.4013" gradientTransform="matrix(1 0 0 -1 0 722)">
				<stop  offset="0" style="stop-color:#FFBEB6"/>
				<stop  offset="1" style="stop-color:#F79992"/>
			</linearGradient>
			<path style="fill:url(#SVGID_1_);" d="M266.772,409.297c0,0,21.401,14.893,34.422,18.025s11.75,10.802,11.979,13.183
				s-3.746,7.356-6.214,8.158s-3.28-11.346-11.295-14.605s-25.342-1.172-33.005-5.61L266.772,409.297z"/>
		</g>
		<g id="sweater-3">
			
				<linearGradient id="sweater-4_1_" gradientUnits="userSpaceOnUse" x1="255.5854" y1="343.0889" x2="179.3358" y2="296.8993" gradientTransform="matrix(1 0 0 -1 0 722)">
				<stop  offset="0" style="stop-color:#428DFC"/>
				<stop  offset="1" style="stop-color:#1E77E0"/>
			</linearGradient>
			<path id="sweater-4" style="fill:url(#sweater-4_1_);" d="M258.195,352.198c-3.019,7.886-4.589,16.253-4.635,24.697
				c-0.029,4.182,0.452,8.352,1.432,12.418v0.009c-0.421,16.021-0.197,30.367-0.197,30.367c-8.901,1.526-17.994,1.555-26.904,0.084
				c-10.966-1.704-21.478-5.596-30.91-11.445c0,0-3.257-11.005,9.002-21.552c10.303-8.871,6.962-8.974,14.879-20.466
				c9.835-14.262,31.275-25.446,31.275-25.446L258.195,352.198L258.195,352.198z"/>
			<path id="R_sleeve-2" style="fill:#428DFC;" d="M274.597,414.467l-12.708,35.149c0,0-6.928-2.644-11.034-7.412
				c-4.842-5.623-11.508-7.988-14.839-11.09c-6.672-6.214-8.747-8.435-11.715-15.932c-1.95-4.927-1.028-13.253,0.264-21.517
				c3.818-24.434,15.96-37.098,27.574-52.8c0,0,1.434,10.435,6.057,11.334l0,0c-3.019,7.886-4.589,16.253-4.635,24.697
				c-0.029,4.182,0.452,8.352,1.432,12.418v0.009C257.521,400.174,264.689,409.368,274.597,414.467z"/>
		</g>
		<g id="head-2">
			<path id="neck-2" style="fill:#FFBEB6;" d="M264.16,343.36l-5.96,8.84c0,0-5.7-3.83-6.01-9.88c1.803-0.07,3.552-0.63,5.06-1.62
				C259.323,342.097,261.685,343.006,264.16,343.36z"/>
			<path id="face-2" style="fill:#FFBEB6;" d="M279.757,335.077c0,0-4.132,8.74-12.017,8.61c-3.715,0.064-7.366-0.975-10.492-2.985
				c4.359-2.639,7.928-7.993,7.928-11.833c0,0,6.068,4.391,7.117-3.342c2.935,0.173,5.864-0.432,8.491-1.752
				c0.567,3.007,1.403,5.958,2.499,8.815C284.484,335.359,279.757,335.077,279.757,335.077z"/>
			<path id="mouth" style="fill:#1C2868;" d="M274.877,336.929c-0.105,1.427,0.967,2.669,2.395,2.774
				c0.517,0.038,1.033-0.08,1.482-0.339c0.343-0.194,0.104-0.767-0.244-0.57c-0.923,0.579-2.141,0.3-2.72-0.623
				c-0.218-0.348-0.323-0.756-0.298-1.166C275.51,336.61,274.895,336.529,274.877,336.929L274.877,336.929z"/>
			<path id="hair-2" style="fill:#23286B;" d="M285.815,310.352c-0.225-0.427-0.872-0.049-0.648,0.379
				c2.07,3.867,1.242,8.647-2.007,11.593c-1.559,1.451-3.521,2.395-5.628,2.708c3.524-0.874,7.59-3.178,7.94-9.134
				c0.584-9.931-9.339-8.804-10.716-4.552c0.289-2.495,0.267-9.001-7.275-11.348c-9.414-2.929-7.113,6.067-5.648,8.159
				c0,0-2.51-3.347-7.531-1.883s-2.092,5.439-2.092,5.439s-11.297-3.556-15.272,7.113c-2.625,7.045,1.865,9.711,5.64,10.348
				c-3.579,0.244-6.87-1.217-7.736-5.727c-0.091-0.474-0.814-0.273-0.723,0.199c1.261,6.562,7.327,7.219,12.479,5.373
				c-0.959,0.877-5.408,5.522,0.801,11.355c6.904,6.485,17.782-4.812,17.782-11.506c0,0,6.03,4.364,7.102-3.281
				c4.331,0.924,8.889,0.02,12.032-3.356C287.321,319.008,287.926,314.222,285.815,310.352z"/>
		</g>
	</g>
</g>
</svg>
