<?xml version="1.0" encoding="iso-8859-1"?>
<!-- Generator: Adobe Illustrator 23.0.2, SVG Export Plug-In . SVG Version: 6.00 Build 0)  -->
<svg version="1.1" id="Layer_1" xmlns="http://www.w3.org/2000/svg" xmlns:xlink="http://www.w3.org/1999/xlink" x="0px" y="0px"
	 viewBox="0 0 1080 720" style="enable-background:new 0 0 1080 720;" xml:space="preserve">
<title>searching</title>
<g id="illustration">
	<g id="footprints">
		<ellipse id="_3" style="fill:#A1C3FC;" cx="797.358" cy="630.428" rx="16.492" ry="8.135"/>
		<ellipse id="_2" style="fill:#A1C3FC;" cx="679.465" cy="630.428" rx="16.492" ry="8.135"/>
		<ellipse id="_1" style="fill:#A1C3FC;" cx="561.571" cy="630.428" rx="16.492" ry="8.135"/>
	</g>
	<g id="man">
		<g id="shoes">
			
				<linearGradient id="L_shoe_1_" gradientUnits="userSpaceOnUse" x1="263.8913" y1="103.1056" x2="350.9121" y2="81.0157" gradientTransform="matrix(1 0 0 -1 0 722)">
				<stop  offset="0" style="stop-color:#28306D"/>
				<stop  offset="0.51" style="stop-color:#1F275F"/>
				<stop  offset="1" style="stop-color:#171F51"/>
			</linearGradient>
			<path id="L_shoe" style="fill:url(#L_shoe_1_);" d="M280.436,606.735l-12.961,36.46l91.745,0.003c0,0-4.704-9.074-20.386-15.794
				s-30.302-20.567-30.302-20.567L280.436,606.735"/>
			<path id="R_shoe" style="fill:#28306D;" d="M348.86,606.826l-12.98,36.379l91.745,0.003c0,0-4.704-9.074-20.386-15.794
				s-30.261-20.389-30.261-20.389L348.86,606.826"/>
		</g>
		<g id="magnifying_glass">
			
				<linearGradient id="handle_1_" gradientUnits="userSpaceOnUse" x1="477.1734" y1="287.8321" x2="490.5946" y2="292.5295" gradientTransform="matrix(1 0 0 -1 0 722)">
				<stop  offset="0" style="stop-color:#E94A47"/>
				<stop  offset="1" style="stop-color:#DD2F2F"/>
			</linearGradient>
			<path id="handle" style="fill:url(#handle_1_);" d="M492.12,434.03c-0.05,0.008-0.1,0.012-0.15,0.01h-8.28
				c-6.78-0.1-7.91-0.97-7.99-3.27c-0.002-0.08,0.002-0.16,0.01-0.24c0.009-0.058,0.022-0.115,0.04-0.17
				c0.009-0.045,0.022-0.088,0.04-0.13l0.03-0.06c0.61-1.34,3.45-1.7,5.41-1.79h8.86C490.209,430.419,490.914,432.381,492.12,434.03
				z"/>
			
				<linearGradient id="circle_1_" gradientUnits="userSpaceOnUse" x1="516.7545" y1="299.455" x2="542.0034" y2="274.0852" gradientTransform="matrix(1 0 0 -1 0 722)">
				<stop  offset="0" style="stop-color:#E94A47"/>
				<stop  offset="1" style="stop-color:#DD2F2F"/>
			</linearGradient>
			<path id="circle" style="fill:url(#circle_1_);" d="M522.122,445.009c-17.966,0-32.04-7.498-32.04-17.07
				s14.073-17.07,32.04-17.07s32.04,7.498,32.04,17.07S540.088,445.009,522.122,445.009z M522.122,415.868
				c-12.79,0-27.04,4.957-27.04,12.07s14.25,12.07,27.04,12.07s27.04-4.957,27.04-12.07S534.912,415.868,522.122,415.868z"/>
		</g>
		
			<linearGradient id="hand_1_" gradientUnits="userSpaceOnUse" x1="475.6846" y1="268.1068" x2="433.9379" y2="312.6838" gradientTransform="matrix(1 0 0 -1 0 722)">
			<stop  offset="0" style="stop-color:#FFBEB6"/>
			<stop  offset="1" style="stop-color:#F2A19C"/>
		</linearGradient>
		<path id="hand" style="fill:url(#hand_1_);" d="M476.83,449.68c0,0-13.9,1.78-19.71-7.76c-5.82-9.54-8.1-8.52-15.84-9.86
			c-3.34-0.58-15.72-3.32-25.26-5.6l18.28-15.38c8.33,6.71,19.96,15.47,25.08,16.46c8.4,1.61,16.16-1.62,19.88-0.81
			c3.71,0.81,3.9,1.65,3.9,1.65s-7.55-0.36-7.46,2.39c0.1,2.79,1.74,3.48,13.25,3.23C499.01,433.78,482.81,449.36,476.83,449.68z"/>
		<g id="trousers">
			
				<linearGradient id="L_trousers_1_" gradientUnits="userSpaceOnUse" x1="261.3752" y1="202.1886" x2="362.8844" y2="236.2775" gradientTransform="matrix(1 0 0 -1 0 722)">
				<stop  offset="0" style="stop-color:#3E8AF8"/>
				<stop  offset="1" style="stop-color:#1479F2"/>
			</linearGradient>
			<path id="L_trousers" style="fill:url(#L_trousers_1_);" d="M345.61,491.56c-4.4,17.6-3.71,13.22-4.31,44.22
				c-0.31,16.2-11.98,22.87-11,44.06c0.09,1.87,0.18,3.52,0.29,5.02c-3.95,13.23-6.65,22.03-6.65,22.03l-48.69-0.18
				c-1.398-12.356-0.96-24.852,1.3-37.08c3.76-20.79,11.69-28.22,14.14-44.17c3.89-25.4,8.44-36.65,18.25-51.82
				c9.56-14.77,26.04-35.88,20.08-72.43c-0.66-4.07-1.25-7.94-1.77-11.61c2.614,8.922,6.119,17.559,10.46,25.78
				C363.73,465.04,347.74,483.04,345.61,491.56z"/>
			<path id="R_trousers" style="fill:#3E8AF8;" d="M355.46,354.02c-11.47,17.53-5.39,33.2-0.82,39.85
				c5.47,7.93,7.5,13.85,9.86,32.99c2.36,19.15,18.92,27.05,18.92,27.05l22.69-19.1c2.075,9.94,3.584,19.989,4.52,30.1
				c1.94,22.49-19.38,124.22-23.2,142.19l-53.38-0.38c-2.42-12.5-3.23-15.64-3.75-26.88c-0.98-21.19,10.69-27.86,11-44.06
				c0.6-31-0.09-26.62,4.31-44.22c2.13-8.52,18.12-26.52-7.9-76.18c-24.18-46.13-13.47-83.29-9.92-93.28"/>
			<path id="texure" style="fill:#FFFFFF;" d="M336.958,339.207c-0.002,0.082,0.064,0.15,0.146,0.152c0,0,0,0,0,0
				c0.079,0,0.143-0.065,0.143-0.144c0-0.002,0-0.003,0-0.005c0.002-0.082-0.064-0.15-0.146-0.152c0,0,0,0,0,0
				C337.021,339.062,336.959,339.127,336.958,339.207z M340.52,339.221c-0.002,0.082,0.064,0.15,0.146,0.152
				c0.082,0.002,0.15-0.064,0.152-0.146c0.002-0.082-0.064-0.15-0.146-0.152C340.591,339.076,340.525,339.14,340.52,339.221z
				 M342.682,353.207c0.056,0.058,0.149,0.059,0.206,0.002c0.058-0.056,0.059-0.149,0.002-0.206
				c-0.056-0.058-0.149-0.059-0.206-0.002c0,0,0,0,0,0C342.627,353.057,342.626,353.15,342.682,353.207
				C342.682,353.207,342.682,353.207,342.682,353.207z M345.212,350.697c0.06,0.057,0.153,0.059,0.216,0.005
				c0.055-0.06,0.052-0.153-0.007-0.209c-0.05-0.058-0.137-0.064-0.194-0.014c-0.004,0.004-0.008,0.008-0.012,0.012
				C345.157,350.547,345.156,350.639,345.212,350.697C345.212,350.697,345.212,350.697,345.212,350.697L345.212,350.697z
				 M347.751,348.19c0.056,0.058,0.148,0.059,0.206,0.003c0,0,0,0,0,0c0.057-0.06,0.059-0.153,0.005-0.216
				c-0.063-0.054-0.157-0.052-0.218,0.005C347.689,348.041,347.693,348.134,347.751,348.19z M340.162,345.909
				c0.029,0.073,0.113,0.109,0.186,0.08s0.109-0.113,0.08-0.186s-0.113-0.109-0.186-0.08c-0.071,0.024-0.109,0.101-0.085,0.172
				C340.158,345.9,340.16,345.905,340.162,345.909z M343.461,344.562c0.023,0.058,0.084,0.092,0.145,0.079l0.01,0.003
				c0.01,0.004,0.022,0.003,0.032-0.002c0.044-0.017,0.078-0.055,0.088-0.101c0.007-0.031,0.005-0.064-0.006-0.095
				c-0.03-0.073-0.113-0.108-0.186-0.08c-0.076,0.028-0.114,0.113-0.085,0.188C343.459,344.557,343.46,344.56,343.461,344.562z
				 M349.682,355.571c-0.026,0.077,0.009,0.162,0.083,0.197c0.077,0.032,0.166-0.005,0.197-0.083
				c0.032-0.077-0.005-0.166-0.083-0.197l0,0C349.802,355.462,349.717,355.497,349.682,355.571z M351.061,352.283
				c-0.028,0.075,0.01,0.159,0.085,0.188c0,0,0,0,0,0c0.069,0.035,0.154,0.008,0.19-0.062c0.002-0.004,0.004-0.007,0.005-0.011
				c0.029-0.077-0.007-0.164-0.083-0.197C351.181,352.174,351.097,352.21,351.061,352.283L351.061,352.283z M324.4,346.561
				c0.046,0.146,0.202,0.226,0.347,0.18c0.003-0.001,0.006-0.002,0.01-0.003c0.143-0.047,0.222-0.202,0.175-0.345
				c0-0.001,0-0.001-0.001-0.002c-0.046-0.146-0.202-0.226-0.347-0.18c-0.003,0.001-0.006,0.002-0.01,0.003
				c-0.143,0.047-0.222,0.201-0.175,0.345C324.4,346.559,324.4,346.56,324.4,346.561z M330.812,344.428
				c0.05,0.147,0.21,0.226,0.357,0.176s0.226-0.21,0.176-0.357c-0.047-0.143-0.202-0.222-0.345-0.175c-0.001,0-0.001,0-0.002,0.001
				C330.851,344.123,330.769,344.279,330.812,344.428z M337.232,342.297c0.05,0.147,0.21,0.226,0.357,0.176
				c0.147-0.05,0.226-0.21,0.176-0.357c-0.05-0.147-0.21-0.226-0.357-0.176c-0.146,0.046-0.226,0.202-0.18,0.347
				C337.23,342.291,337.231,342.294,337.232,342.297z M336.635,369.992c-0.066,0.139-0.009,0.306,0.129,0.375
				c0.13,0.072,0.294,0.024,0.366-0.106c0.002-0.004,0.005-0.009,0.007-0.014c0.066-0.139,0.009-0.306-0.129-0.375
				C336.872,369.803,336.705,369.856,336.635,369.992C336.635,369.992,336.635,369.992,336.635,369.992z M339.657,363.951
				c-0.068,0.139-0.01,0.307,0.129,0.375c0.139,0.068,0.307,0.01,0.375-0.129l0,0c0.07-0.136,0.017-0.302-0.119-0.372c0,0,0,0,0,0
				C339.9,363.761,339.733,363.816,339.657,363.951L339.657,363.951z M342.691,357.903c-0.069,0.136-0.015,0.301,0.12,0.371
				c0.003,0.001,0.006,0.003,0.009,0.004c0.13,0.072,0.294,0.024,0.366-0.106c0.002-0.004,0.005-0.009,0.007-0.013
				c0.064-0.142,0.009-0.309-0.126-0.385C342.927,357.708,342.76,357.765,342.691,357.903L342.691,357.903z M345.713,351.862
				c-0.068,0.139-0.01,0.307,0.129,0.375c0.139,0.068,0.307,0.01,0.375-0.129l0,0c0.07-0.136,0.017-0.302-0.119-0.372c0,0,0,0,0,0
				c-0.137-0.073-0.307-0.021-0.379,0.116C345.716,351.856,345.714,351.859,345.713,351.862L345.713,351.862z M326.023,334.622
				c-0.009,0.155,0.109,0.287,0.263,0.297s0.287-0.109,0.297-0.263c0.008-0.154-0.109-0.286-0.263-0.297
				c-0.153-0.011-0.286,0.105-0.296,0.258C326.023,334.619,326.023,334.62,326.023,334.622z M332.773,335.1
				c-0.017,0.151,0.092,0.287,0.243,0.303c0.151,0.017,0.286-0.092,0.303-0.243c0.001-0.007,0.001-0.013,0.001-0.02
				c0.01-0.151-0.104-0.282-0.255-0.292C332.915,334.838,332.785,334.95,332.773,335.1z M327.311,358.955
				c0.104,0.113,0.28,0.119,0.392,0.015c0.113-0.104,0.119-0.28,0.015-0.392c-0.102-0.11-0.273-0.119-0.386-0.021
				C327.219,358.662,327.209,358.839,327.311,358.955L327.311,358.955z M332.422,354.527c0.104,0.113,0.28,0.119,0.392,0.015
				c0.113-0.104,0.119-0.279,0.015-0.392c-0.102-0.11-0.273-0.119-0.386-0.021C332.329,354.234,332.32,354.411,332.422,354.527
				L332.422,354.527z M337.53,350.109c0.106,0.116,0.286,0.124,0.402,0.018c0.112-0.102,0.124-0.275,0.027-0.391
				c-0.1-0.121-0.28-0.137-0.4-0.037c-0.121,0.1-0.137,0.28-0.037,0.4C337.524,350.102,337.527,350.106,337.53,350.109z
				 M342.643,345.671c0.097,0.117,0.271,0.134,0.389,0.037c0.002-0.002,0.004-0.004,0.006-0.005
				c0.118-0.098,0.133-0.273,0.035-0.391s-0.273-0.133-0.391-0.035c-0.004,0.003-0.007,0.006-0.01,0.009
				c-0.114,0.092-0.132,0.258-0.04,0.372C342.635,345.662,342.639,345.667,342.643,345.671L342.643,345.671z M350.275,370.531
				c-0.008,0.154,0.109,0.286,0.263,0.297c0.15,0.012,0.282-0.1,0.294-0.251c0-0.001,0-0.002,0-0.003
				c0.02-0.147-0.083-0.282-0.23-0.302c-0.007-0.001-0.014-0.002-0.021-0.002C350.427,370.265,350.294,370.378,350.275,370.531z
				 M351.248,357.047c-0.015,0.147,0.093,0.279,0.24,0.293c0.004,0,0.009,0.001,0.013,0.001c0.152,0.016,0.289-0.094,0.305-0.247
				c0-0.005,0.001-0.009,0.001-0.014c0.009-0.155-0.109-0.287-0.263-0.297S351.258,356.892,351.248,357.047L351.248,357.047z
				 M329.285,330.898c-0.023,0.131,0.064,0.256,0.195,0.28c0.004,0.001,0.007,0.001,0.011,0.002c0.135,0.02,0.26-0.073,0.28-0.207
				c0.02-0.133-0.071-0.258-0.204-0.28c-0.131-0.023-0.256,0.064-0.28,0.195C329.286,330.891,329.285,330.894,329.285,330.898
				L329.285,330.898z M323.104,353.83c0.08,0.111,0.234,0.138,0.346,0.06c0.112-0.079,0.139-0.234,0.06-0.346
				s-0.234-0.139-0.346-0.06C323.053,353.564,323.026,353.717,323.104,353.83L323.104,353.83z M328.022,350.333
				c0.08,0.111,0.234,0.137,0.346,0.06c0.114-0.076,0.146-0.23,0.07-0.345s-0.23-0.145-0.345-0.07
				c-0.004,0.003-0.008,0.005-0.011,0.008c-0.111,0.075-0.141,0.226-0.066,0.337C328.017,350.327,328.02,350.33,328.022,350.333
				L328.022,350.333z M332.903,346.662c-0.015,0.061-0.001,0.125,0.037,0.175c0.08,0.111,0.234,0.137,0.346,0.06
				c0.115-0.08,0.144-0.238,0.064-0.354c0-0.001-0.001-0.001-0.002-0.002c-0.048-0.068-0.126-0.108-0.21-0.107l-0.01-0.003
				c-0.047-0.001-0.093,0.017-0.127,0.049C332.94,346.52,332.903,346.589,332.903,346.662L332.903,346.662z M337.858,343.34
				c0.082,0.113,0.239,0.138,0.352,0.056c0.113-0.082,0.138-0.24,0.056-0.352c-0.08-0.111-0.234-0.138-0.346-0.06
				c-0.115,0.08-0.144,0.238-0.064,0.354C337.857,343.339,337.858,343.34,337.858,343.34L337.858,343.34z M344.583,367.125
				c-0.018,0.139,0.075,0.267,0.213,0.294c0.131,0.023,0.256-0.064,0.28-0.195c0.001-0.003,0.001-0.007,0.002-0.011
				c0.025-0.135-0.063-0.265-0.198-0.29c-0.001,0-0.003-0.001-0.005-0.001C344.739,366.903,344.612,366.992,344.583,367.125
				L344.583,367.125z M345.593,361.187c-0.02,0.134,0.071,0.26,0.205,0.281c0.131,0.023,0.256-0.064,0.28-0.195
				c0.001-0.004,0.001-0.007,0.002-0.011c0.025-0.135-0.063-0.265-0.198-0.29c-0.002,0-0.003-0.001-0.005-0.001
				C345.739,360.955,345.614,361.051,345.593,361.187L345.593,361.187z M346.598,355.227c-0.025,0.135,0.063,0.265,0.198,0.29
				c0.002,0,0.003,0.001,0.005,0.001c0.127,0.026,0.251-0.055,0.278-0.182c0.002-0.008,0.003-0.015,0.004-0.023
				c0.025-0.135-0.063-0.265-0.198-0.29c-0.001,0-0.003-0.001-0.004-0.001C346.746,355.004,346.622,355.095,346.598,355.227
				L346.598,355.227z M347.598,349.286c-0.018,0.138,0.078,0.264,0.216,0.283c0.133,0.018,0.257-0.072,0.281-0.204
				c0.019-0.135-0.069-0.262-0.203-0.291C347.753,349.056,347.624,349.149,347.598,349.286L347.598,349.286z M326.318,339.527
				c0.029,0.132,0.16,0.215,0.292,0.186c0.004-0.001,0.007-0.002,0.011-0.003c0.128-0.026,0.21-0.151,0.184-0.279
				c-0.001-0.005-0.002-0.01-0.004-0.015c-0.027-0.134-0.158-0.222-0.292-0.195c-0.003,0.001-0.006,0.001-0.009,0.002
				C326.369,339.26,326.288,339.394,326.318,339.527L326.318,339.527z M332.203,338.177c0.029,0.132,0.159,0.217,0.291,0.19
				c0.136-0.03,0.222-0.165,0.193-0.301c-0.035-0.133-0.166-0.217-0.301-0.193c-0.134,0.033-0.216,0.168-0.183,0.302
				C332.203,338.176,332.203,338.176,332.203,338.177L332.203,338.177z M338.079,336.823c0.03,0.136,0.165,0.222,0.301,0.193
				c0.133-0.035,0.217-0.166,0.193-0.301c-0.033-0.134-0.168-0.216-0.302-0.183c0,0-0.001,0-0.001,0
				c-0.13,0.024-0.217,0.149-0.193,0.279C338.077,336.815,338.078,336.819,338.079,336.823L338.079,336.823z M333.692,359.616
				c-0.069,0.119-0.031,0.271,0.086,0.343c0.115,0.073,0.267,0.039,0.34-0.076c0.071-0.118,0.039-0.271-0.074-0.35
				C333.924,359.46,333.767,359.497,333.692,359.616L333.692,359.616z M336.904,354.504c-0.074,0.109-0.046,0.258,0.064,0.332
				c0.004,0.003,0.008,0.005,0.013,0.008c0.115,0.073,0.267,0.039,0.34-0.076c0.071-0.118,0.039-0.271-0.074-0.35
				C337.129,354.348,336.976,354.387,336.904,354.504L336.904,354.504z M340.107,349.389c-0.073,0.115-0.039,0.267,0.076,0.34
				s0.267,0.039,0.34-0.076l0,0c0.073-0.115,0.039-0.267-0.076-0.34S340.18,349.274,340.107,349.389z M343.31,344.274
				c-0.073,0.115-0.039,0.267,0.076,0.34c0.065,0.044,0.147,0.054,0.22,0.027l0.01,0.003c0.049-0.022,0.091-0.058,0.12-0.103
				c0.069-0.119,0.031-0.271-0.086-0.343C343.535,344.125,343.383,344.159,343.31,344.274L343.31,344.274z M328.712,325.082
				c-0.032,0.076,0.003,0.164,0.079,0.196c0.001,0,0.002,0.001,0.003,0.001c0.078,0.02,0.159-0.02,0.19-0.095
				c0.028-0.075-0.01-0.159-0.085-0.188S328.74,325.007,328.712,325.082L328.712,325.082z M329.209,340.172
				c0.035,0.075,0.123,0.107,0.198,0.073c0.075-0.035,0.107-0.123,0.073-0.198c-0.035-0.075-0.123-0.107-0.198-0.073c0,0,0,0,0,0
				C329.209,340.01,329.177,340.097,329.209,340.172z M332.447,338.706c0.035,0.075,0.123,0.107,0.198,0.073
				s0.107-0.123,0.073-0.198c-0.035-0.075-0.123-0.107-0.198-0.073c0,0,0,0,0,0C332.447,338.544,332.416,338.631,332.447,338.706
				L332.447,338.706z M335.697,337.232c0.033,0.071,0.117,0.102,0.188,0.07c0.071-0.026,0.109-0.104,0.083-0.176
				c-0.003-0.008-0.006-0.015-0.01-0.022c-0.033-0.071-0.117-0.102-0.188-0.07c-0.072,0.027-0.108,0.106-0.082,0.178
				C335.691,337.219,335.694,337.226,335.697,337.232L335.697,337.232z M340.147,350.299c-0.028,0.075,0.01,0.159,0.085,0.188
				s0.159-0.01,0.188-0.085c0.028-0.075-0.01-0.159-0.085-0.188l0,0C340.26,350.185,340.176,350.223,340.147,350.299
				C340.147,350.299,340.147,350.299,340.147,350.299L340.147,350.299z M341.394,346.966c-0.024,0.079,0.017,0.162,0.095,0.19
				c0.075,0.028,0.159-0.01,0.188-0.085c0,0,0,0,0,0c0.03-0.071-0.003-0.154-0.075-0.184c-0.003-0.001-0.007-0.003-0.01-0.004
				c-0.076-0.032-0.164,0.003-0.196,0.079C341.395,346.964,341.394,346.965,341.394,346.966L341.394,346.966z M342.65,343.636
				c-0.028,0.075,0.01,0.159,0.085,0.188s0.159-0.01,0.188-0.085l0,0c0.03-0.071-0.003-0.154-0.075-0.184
				c-0.003-0.001-0.007-0.003-0.011-0.004C342.762,343.522,342.678,343.56,342.65,343.636
				C342.65,343.636,342.65,343.636,342.65,343.636z M329.333,332.368c0.005,0.079,0.07,0.141,0.149,0.142
				c0.082-0.007,0.145-0.076,0.145-0.158c0-0.079-0.065-0.143-0.143-0.143c-0.002,0-0.004,0-0.005,0
				C329.396,332.217,329.333,332.286,329.333,332.368z M332.89,332.247c0.003,0.08,0.069,0.143,0.149,0.142
				c0.077,0.002,0.141-0.06,0.143-0.137c0-0.004,0-0.008,0-0.012c0.004-0.075-0.054-0.139-0.129-0.143c-0.006,0-0.013,0-0.019,0
				c-0.079,0-0.143,0.065-0.142,0.144C332.89,332.243,332.89,332.245,332.89,332.247L332.89,332.247z M334.9,344.922
				c0.062,0.05,0.151,0.047,0.209-0.007c0.056-0.056,0.055-0.147-0.001-0.203c-0.002-0.002-0.004-0.004-0.006-0.006
				c-0.054-0.056-0.143-0.057-0.199-0.003c-0.003,0.003-0.007,0.007-0.01,0.01C334.838,344.773,334.841,344.866,334.9,344.922z
				 M337.339,342.325c0.062,0.05,0.151,0.047,0.209-0.007c0.053-0.061,0.05-0.152-0.007-0.209c-0.052-0.058-0.142-0.062-0.199-0.009
				c-0.002,0.002-0.005,0.004-0.007,0.007c-0.059,0.058-0.06,0.152-0.003,0.211C337.334,342.321,337.336,342.323,337.339,342.325z
				 M339.77,339.717c0.054,0.056,0.143,0.057,0.199,0.003c0.003-0.003,0.007-0.007,0.01-0.01c0.055-0.06,0.052-0.153-0.007-0.209
				c-0.062-0.05-0.151-0.047-0.209,0.007c-0.056,0.056-0.055,0.147,0.001,0.203C339.766,339.713,339.768,339.715,339.77,339.717
				L339.77,339.717z M347.569,349.713c0.001,0.08,0.067,0.145,0.147,0.144s0.145-0.067,0.144-0.147c0-0.001,0-0.002,0-0.003
				c0.004-0.075-0.054-0.139-0.129-0.143c-0.006,0-0.013,0-0.019,0c-0.079,0-0.143,0.065-0.142,0.144
				C347.569,349.71,347.569,349.711,347.569,349.713z M329.826,327.06c-0.014,0.09,0.046,0.175,0.136,0.191
				c0.092,0.015,0.179-0.043,0.2-0.134c0.013-0.093-0.051-0.18-0.145-0.193c0,0-0.001,0-0.001,0
				c-0.084-0.02-0.168,0.033-0.188,0.117C329.828,327.047,329.827,327.053,329.826,327.06z M325.508,342.458
				c0.05,0.073,0.15,0.092,0.223,0.042c0.001-0.001,0.003-0.002,0.004-0.003c0.076-0.049,0.098-0.151,0.049-0.227
				c-0.002-0.004-0.005-0.007-0.007-0.01c-0.05-0.073-0.15-0.092-0.223-0.042c-0.001,0.001-0.003,0.002-0.004,0.003
				C325.474,342.275,325.455,342.38,325.508,342.458z M328.836,340.136c0.054,0.077,0.16,0.097,0.237,0.043
				c0.077-0.054,0.097-0.16,0.043-0.237c0-0.001-0.001-0.001-0.001-0.002c-0.05-0.073-0.15-0.092-0.223-0.042
				c-0.001,0.001-0.003,0.002-0.004,0.003c-0.078,0.046-0.104,0.146-0.058,0.224C328.831,340.129,328.833,340.133,328.836,340.136
				L328.836,340.136z M332.174,337.817c0.05,0.065,0.137,0.088,0.213,0.056c0.012-0.007,0.022-0.005,0.024-0.014
				c0.077-0.054,0.096-0.16,0.042-0.237c-0.054-0.077-0.16-0.096-0.237-0.042C332.138,337.634,332.12,337.74,332.174,337.817
				L332.174,337.817z M335.511,335.498c0.054,0.077,0.16,0.096,0.237,0.042c0.077-0.054,0.096-0.16,0.042-0.237
				c-0.032-0.049-0.089-0.076-0.147-0.07c-0.019-0.005-0.032,0.002-0.041,0l-0.049,0.029
				C335.477,335.316,335.459,335.421,335.511,335.498z M339.875,351.572c-0.02,0.084,0.033,0.168,0.117,0.188
				c0.006,0.001,0.013,0.003,0.019,0.003c0.09,0.014,0.175-0.046,0.191-0.136c0.012-0.091-0.045-0.176-0.133-0.2
				c-0.093-0.013-0.18,0.051-0.193,0.145C339.876,351.571,339.876,351.571,339.875,351.572z M340.584,347.571
				c-0.013,0.093,0.051,0.18,0.144,0.193c0,0,0.001,0,0.001,0c0.09,0.014,0.175-0.046,0.191-0.136
				c0.012-0.091-0.045-0.176-0.133-0.2C340.693,347.416,340.605,347.478,340.584,347.571L340.584,347.571z M341.314,343.565
				c-0.024,0.084,0.024,0.171,0.108,0.195c0.008,0.002,0.017,0.004,0.025,0.005c0.09,0.014,0.175-0.046,0.191-0.136
				c0.012-0.091-0.045-0.176-0.134-0.2C341.415,343.414,341.33,343.475,341.314,343.565z M328.075,332.907
				c0.02,0.088,0.107,0.143,0.195,0.124c0.091-0.016,0.153-0.102,0.137-0.194c0-0.003-0.001-0.005-0.002-0.008
				c-0.023-0.091-0.116-0.146-0.207-0.123C328.111,332.728,328.056,332.817,328.075,332.907z M332.046,332.036
				c0.015,0.085,0.096,0.142,0.181,0.127c0.005-0.001,0.01-0.002,0.014-0.003c0.087-0.013,0.148-0.094,0.135-0.181
				c-0.001-0.004-0.001-0.008-0.002-0.011c-0.016-0.091-0.102-0.153-0.194-0.137s-0.153,0.102-0.137,0.194
				C332.045,332.028,332.045,332.032,332.046,332.036z M332.903,346.662c0.013,0.021,0.029,0.039,0.048,0.054
				c0.076,0.05,0.178,0.028,0.228-0.048c0.001-0.002,0.002-0.003,0.003-0.005c0.047-0.076,0.028-0.175-0.043-0.228l-0.01-0.003
				c-0.076-0.05-0.178-0.028-0.228,0.048c-0.001,0.002-0.002,0.003-0.003,0.005C332.862,346.539,332.864,346.61,332.903,346.662
				L332.903,346.662z M335.099,343.061c-0.051,0.074-0.033,0.176,0.041,0.227c0.001,0,0.001,0.001,0.002,0.001
				c0.078,0.05,0.181,0.032,0.238-0.041c0.047-0.081,0.025-0.185-0.051-0.241C335.251,342.959,335.148,342.983,335.099,343.061
				L335.099,343.061z M337.287,339.645c-0.049,0.078-0.025,0.182,0.053,0.231c0.078,0.049,0.182,0.025,0.231-0.053
				s0.025-0.182-0.053-0.231c0,0,0,0,0,0c-0.076-0.05-0.178-0.028-0.228,0.048C337.289,339.641,337.288,339.643,337.287,339.645z
				 M348.156,349.485c0.02,0.09,0.109,0.147,0.199,0.127c0.002,0,0.004-0.001,0.006-0.001c0.088-0.02,0.143-0.107,0.124-0.195
				c-0.013-0.087-0.094-0.148-0.181-0.135c-0.004,0.001-0.008,0.001-0.011,0.002C348.199,349.301,348.139,349.391,348.156,349.485
				L348.156,349.485z M330.359,329.681c0.037,0.155,0.193,0.251,0.348,0.214c0.154-0.037,0.25-0.191,0.214-0.345
				c-0.038-0.154-0.192-0.249-0.347-0.215C330.421,329.373,330.326,329.526,330.359,329.681L330.359,329.681z M324.176,353.76
				c-0.084,0.135-0.043,0.312,0.092,0.396c0.135,0.084,0.313,0.043,0.396-0.092c0.084-0.135,0.043-0.312-0.092-0.396
				C324.438,353.584,324.261,353.625,324.176,353.76L324.176,353.76z M327.813,347.818c-0.08,0.139-0.034,0.316,0.102,0.399
				c0.137,0.078,0.312,0.03,0.391-0.107c0.078-0.137,0.03-0.312-0.107-0.391C328.065,347.643,327.894,347.687,327.813,347.818z
				 M331.46,341.879c-0.084,0.135-0.043,0.312,0.092,0.396s0.312,0.043,0.396-0.092s0.043-0.312-0.092-0.396
				S331.543,341.744,331.46,341.879L331.46,341.879z M335.096,335.937c-0.08,0.139-0.035,0.316,0.102,0.399
				c0.137,0.08,0.312,0.033,0.392-0.104c0.078-0.134,0.035-0.306-0.097-0.388C335.358,335.762,335.181,335.803,335.096,335.937
				L335.096,335.937z M349.467,364.509c0.042,0.156,0.199,0.251,0.356,0.218c0.155-0.043,0.246-0.203,0.203-0.358
				c-0.041-0.149-0.193-0.24-0.344-0.206C349.529,364.202,349.434,364.354,349.467,364.509L349.467,364.509z M347.842,357.735
				c0.039,0.153,0.192,0.248,0.347,0.215c0.155-0.036,0.252-0.191,0.216-0.346c-0.036-0.155-0.191-0.252-0.346-0.216
				c-0.001,0-0.001,0-0.002,0C347.904,357.426,347.808,357.58,347.842,357.735L347.842,357.735z M346.218,350.961
				c0.038,0.154,0.192,0.249,0.347,0.215c0.156-0.042,0.251-0.199,0.218-0.356c-0.043-0.155-0.204-0.245-0.359-0.201
				C346.275,350.66,346.185,350.811,346.218,350.961z M344.594,344.187c0.038,0.154,0.192,0.249,0.347,0.215
				c0.155-0.044,0.249-0.199,0.218-0.356c-0.037-0.152-0.19-0.244-0.342-0.207c-0.002,0.001-0.005,0.001-0.007,0.002
				c-0.15,0.028-0.249,0.172-0.221,0.322C344.589,344.171,344.591,344.179,344.594,344.187L344.594,344.187z M328.892,335.468
				c0.088,0.132,0.266,0.167,0.397,0.08c0.002-0.002,0.005-0.003,0.007-0.005c0.128-0.096,0.157-0.276,0.065-0.407
				c-0.092-0.13-0.272-0.161-0.402-0.069c-0.002,0.001-0.003,0.002-0.005,0.003C328.829,335.163,328.801,335.341,328.892,335.468
				L328.892,335.468z M334.549,361.671c-0.017,0.157,0.089,0.301,0.244,0.333c0.157,0.019,0.3-0.09,0.323-0.246
				c0.028-0.154-0.074-0.301-0.228-0.329c-0.002,0-0.004-0.001-0.006-0.001C334.722,361.402,334.574,361.511,334.549,361.671
				C334.549,361.67,334.549,361.67,334.549,361.671L334.549,361.671z M335.642,354.783c-0.025,0.159,0.084,0.308,0.243,0.333
				c0,0,0,0,0.001,0c0.154,0.023,0.297-0.082,0.32-0.236c0,0,0,0,0,0c0.025-0.156-0.082-0.303-0.238-0.327
				C335.815,354.527,335.67,354.63,335.642,354.783L335.642,354.783z M336.733,347.904c-0.028,0.154,0.074,0.301,0.228,0.329
				c0.002,0,0.004,0.001,0.006,0.001c0.158,0.03,0.31-0.074,0.34-0.232c0.03-0.158-0.074-0.31-0.232-0.34
				c-0.158-0.03-0.31,0.074-0.34,0.232C336.734,347.898,336.734,347.901,336.733,347.904z M337.824,341.026
				c-0.021,0.157,0.089,0.301,0.246,0.322c0.153,0.021,0.295-0.084,0.321-0.236c0.026-0.156-0.079-0.303-0.234-0.33
				C337.998,340.758,337.849,340.867,337.824,341.026C337.824,341.026,337.824,341.026,337.824,341.026L337.824,341.026z
				 M328.712,330.675c0.093,0.129,0.271,0.162,0.404,0.075c0.128-0.089,0.161-0.265,0.073-0.395c-0.079-0.13-0.248-0.17-0.378-0.091
				c-0.005,0.003-0.009,0.006-0.014,0.009c-0.134,0.085-0.173,0.263-0.088,0.396C328.71,330.672,328.711,330.673,328.712,330.675
				L328.712,330.675z M329.789,362.118c-0.027,0.155,0.078,0.303,0.233,0.33c0.155,0.027,0.303-0.078,0.33-0.233
				c0.026-0.151-0.073-0.296-0.223-0.328C329.972,361.857,329.82,361.96,329.789,362.118L329.789,362.118z M331.161,355.313
				c-0.03,0.158,0.074,0.31,0.231,0.34c0.153,0.026,0.301-0.07,0.337-0.222c0.027-0.159-0.073-0.311-0.229-0.35
				C331.344,355.056,331.195,355.158,331.161,355.313L331.161,355.313z M332.533,348.508c-0.03,0.158,0.074,0.31,0.231,0.34
				c0.154,0.032,0.305-0.067,0.337-0.222c0.032-0.154-0.067-0.305-0.222-0.337C332.724,348.258,332.571,348.354,332.533,348.508
				L332.533,348.508z M333.914,341.706c-0.036,0.148,0.055,0.298,0.204,0.334c0.006,0.001,0.012,0.003,0.018,0.004
				c0.154,0.03,0.304-0.068,0.337-0.222c0.031-0.155-0.07-0.305-0.224-0.336C334.096,341.456,333.947,341.554,333.914,341.706z
				 M335.285,334.901c-0.033,0.152,0.063,0.302,0.215,0.336c0.002,0,0.004,0.001,0.007,0.001c0.031,0.008,0.064,0.005,0.095-0.006
				c0.01,0.003,0.022-0.005,0.041,0c0.104-0.026,0.183-0.111,0.201-0.216c0.032-0.154-0.067-0.305-0.222-0.337
				C335.468,334.648,335.317,334.747,335.285,334.901L335.285,334.901z M325.694,341.473c-0.09,0.13-0.057,0.308,0.073,0.398
				c0.13,0.09,0.308,0.057,0.398-0.073c0.001-0.002,0.002-0.003,0.003-0.005c0.085-0.134,0.05-0.312-0.08-0.404
				c-0.131-0.086-0.306-0.05-0.393,0.081C325.695,341.471,325.694,341.472,325.694,341.473L325.694,341.473z M329.561,335.716
				c-0.085,0.136-0.043,0.316,0.093,0.401c0.13,0.081,0.301,0.047,0.391-0.078c0.089-0.134,0.053-0.314-0.08-0.404
				S329.651,335.582,329.561,335.716L329.561,335.716z M343.892,358.684c0.034,0.156,0.187,0.256,0.344,0.225
				c0.154-0.031,0.253-0.181,0.222-0.335c-0.024-0.153-0.167-0.258-0.32-0.234c-0.004,0.001-0.008,0.001-0.012,0.002
				c-0.157,0.027-0.263,0.175-0.236,0.332C343.891,358.678,343.892,358.681,343.892,358.684L343.892,358.684z M342.557,351.872
				c0.034,0.156,0.187,0.256,0.344,0.225c0.154-0.031,0.253-0.181,0.222-0.335c-0.024-0.153-0.167-0.258-0.32-0.234
				c-0.004,0.001-0.008,0.001-0.012,0.002c-0.157,0.027-0.263,0.175-0.236,0.333C342.556,351.866,342.556,351.869,342.557,351.872
				L342.557,351.872z M341.222,345.06c0.034,0.156,0.187,0.256,0.344,0.225c0.154-0.031,0.253-0.181,0.222-0.335
				c-0.029-0.157-0.179-0.26-0.336-0.232c-0.157,0.029-0.26,0.179-0.232,0.336C341.221,345.057,341.222,345.058,341.222,345.06
				L341.222,345.06z M339.887,338.249c0.036,0.155,0.188,0.255,0.344,0.225c0.154-0.031,0.253-0.181,0.222-0.335
				c-0.033-0.152-0.178-0.253-0.332-0.232c-0.158,0.028-0.264,0.18-0.235,0.338C339.886,338.246,339.886,338.247,339.887,338.249
				L339.887,338.249z M325.131,331.835c0.086,0.085,0.225,0.084,0.31-0.003c0.084-0.086,0.084-0.224-0.001-0.309
				c-0.083-0.082-0.217-0.081-0.299,0.002c-0.001,0.001-0.001,0.001-0.002,0.002C325.055,331.61,325.051,331.746,325.131,331.835
				L325.131,331.835z M328.801,328.093c0.083,0.082,0.217,0.081,0.299-0.002c0.001-0.001,0.001-0.001,0.002-0.002
				c0.085-0.084,0.087-0.221,0.003-0.307c-0.001-0.001-0.003-0.003-0.004-0.004c-0.083-0.08-0.215-0.078-0.296,0.005
				c-0.003,0.003-0.005,0.006-0.008,0.009c-0.082,0.078-0.085,0.209-0.007,0.291C328.794,328.086,328.797,328.09,328.801,328.093
				L328.801,328.093z M334.528,351.11c0.002,0.12,0.101,0.216,0.22,0.214c0.117-0.002,0.212-0.096,0.214-0.213
				c0.004-0.115-0.086-0.21-0.201-0.214c-0.007,0-0.015,0-0.022,0C334.623,350.899,334.529,350.993,334.528,351.11L334.528,351.11z
				 M334.472,345.884c0.002,0.121,0.102,0.216,0.223,0.214c0.121-0.002,0.216-0.102,0.214-0.223c0,0,0-0.001,0-0.001
				c0-0.118-0.097-0.214-0.215-0.214c-0.003,0-0.005,0-0.008,0C334.566,345.666,334.471,345.765,334.472,345.884L334.472,345.884z
				 M334.418,340.65c0.003,0.121,0.102,0.216,0.223,0.214s0.216-0.102,0.214-0.223s-0.102-0.216-0.223-0.214l0,0
				C334.512,340.431,334.418,340.53,334.418,340.65L334.418,340.65z M334.365,335.415c-0.001,0.115,0.091,0.21,0.206,0.211
				c0.002,0,0.005,0,0.007,0c0.119,0.003,0.217-0.09,0.221-0.209c0-0.001,0-0.001,0-0.002c-0.001-0.122-0.099-0.221-0.221-0.223
				c-0.119,0-0.214,0.097-0.214,0.216C334.365,335.41,334.365,335.412,334.365,335.415L334.365,335.415z M324.483,346.366
				c-0.042,0.111,0.013,0.236,0.123,0.28c0.111,0.037,0.233-0.016,0.28-0.123c0.044-0.111-0.01-0.236-0.121-0.28
				c-0.001,0-0.001,0-0.002-0.001c-0.106-0.046-0.229,0.003-0.275,0.108C324.486,346.356,324.484,346.361,324.483,346.366
				L324.483,346.366z M326.431,341.501c-0.042,0.113,0.011,0.24,0.12,0.29c0.111,0.044,0.236-0.01,0.28-0.121
				c0-0.001,0.001-0.001,0.001-0.002c0.047-0.105-0.001-0.228-0.106-0.275c-0.002-0.001-0.005-0.002-0.007-0.003
				c-0.109-0.049-0.237-0.001-0.286,0.107C326.432,341.499,326.431,341.5,326.431,341.501L326.431,341.501z M328.386,336.648
				c-0.046,0.106,0.003,0.229,0.108,0.275c0.005,0.002,0.01,0.004,0.015,0.006c0.104,0.047,0.226,0.001,0.273-0.103
				c0.002-0.003,0.003-0.007,0.004-0.01c0.042-0.113-0.011-0.24-0.12-0.29c-0.111-0.044-0.236,0.01-0.28,0.121
				C328.387,336.647,328.387,336.647,328.386,336.648L328.386,336.648z M330.332,331.793c-0.044,0.111,0.01,0.236,0.121,0.28
				c0.001,0,0.001,0.001,0.002,0.001c0.106,0.046,0.229-0.003,0.275-0.108c0.002-0.005,0.004-0.01,0.006-0.015
				c0.046-0.108-0.005-0.232-0.112-0.277c0,0-0.001,0-0.001,0C330.509,331.631,330.382,331.683,330.332,331.793L330.332,331.793z
				 M344.509,346.481c0.043,0.108,0.166,0.161,0.273,0.117c0.002-0.001,0.004-0.002,0.007-0.003c0.11-0.041,0.165-0.164,0.124-0.274
				c-0.002-0.005-0.004-0.011-0.007-0.016c-0.052-0.108-0.182-0.153-0.29-0.101C344.514,346.254,344.467,346.375,344.509,346.481
				L344.509,346.481z M342.452,341.671c0.052,0.111,0.183,0.158,0.294,0.107c0.105-0.049,0.154-0.171,0.113-0.279
				c-0.048-0.112-0.177-0.165-0.29-0.117S342.404,341.559,342.452,341.671L342.452,341.671z M327.7,335.207
				c-0.016,0.064,0.022,0.129,0.086,0.147c0.064,0.017,0.13-0.021,0.147-0.086c0.017-0.064-0.021-0.13-0.086-0.147
				c-0.003-0.001-0.007-0.002-0.01-0.002C327.775,335.108,327.715,335.146,327.7,335.207L327.7,335.207z M328.326,332.424
				c-0.014,0.061,0.024,0.122,0.085,0.136c0.001,0,0.002,0,0.003,0.001c0.057,0.017,0.117-0.015,0.133-0.072
				c0.002-0.005,0.003-0.011,0.003-0.016c0.019-0.061-0.016-0.126-0.077-0.144c-0.003-0.001-0.006-0.002-0.009-0.002
				C328.401,332.32,328.342,332.362,328.326,332.424L328.326,332.424z M328.955,329.633c-0.019,0.061,0.016,0.126,0.077,0.144
				c0.003,0.001,0.006,0.002,0.009,0.002c0.065,0.01,0.127-0.033,0.139-0.098c0.014-0.062-0.024-0.124-0.086-0.138
				c-0.062-0.014-0.124,0.024-0.138,0.086C328.955,329.631,328.955,329.632,328.955,329.633L328.955,329.633z M329.581,326.851
				c-0.014,0.061,0.024,0.122,0.085,0.136c0.001,0,0.002,0,0.003,0.001c0.062,0.011,0.121-0.028,0.137-0.088
				c0.013-0.062-0.026-0.123-0.088-0.137S329.595,326.788,329.581,326.851z M327.84,324.347c-0.036,0.053-0.023,0.125,0.03,0.163
				c0.056,0.034,0.129,0.023,0.172-0.027c0.036-0.053,0.023-0.125-0.03-0.163c-0.048-0.041-0.12-0.036-0.162,0.012
				C327.847,324.336,327.843,324.341,327.84,324.347L327.84,324.347z M333.536,333.925c0.009,0.062,0.067,0.105,0.13,0.096
				c0.066-0.011,0.11-0.073,0.099-0.139c0,0,0,0,0-0.001c-0.008-0.062-0.065-0.105-0.126-0.097c-0.001,0-0.002,0-0.004,0.001
				C333.569,333.797,333.524,333.859,333.536,333.925C333.536,333.925,333.536,333.925,333.536,333.925L333.536,333.925z
				 M333.044,331.109c0.011,0.066,0.073,0.11,0.139,0.099c0,0,0.001,0,0.001,0c0.066-0.011,0.11-0.074,0.099-0.14
				s-0.074-0.11-0.14-0.099C333.077,330.98,333.033,331.042,333.044,331.109C333.044,331.108,333.044,331.108,333.044,331.109
				L333.044,331.109z M329.016,340.752c0.021,0.105,0.123,0.174,0.229,0.153c0,0,0,0,0,0c0.098-0.013,0.167-0.102,0.154-0.2
				c-0.001-0.006-0.002-0.013-0.004-0.019c-0.011-0.1-0.101-0.173-0.201-0.162c-0.005,0.001-0.01,0.001-0.016,0.002
				c-0.104,0.013-0.178,0.109-0.165,0.213C329.014,340.743,329.015,340.748,329.016,340.752L329.016,340.752z M328.235,336.081
				c0.011,0.1,0.101,0.173,0.201,0.162c0.005-0.001,0.01-0.001,0.016-0.002c0.104-0.013,0.178-0.109,0.165-0.213
				c-0.001-0.004-0.001-0.009-0.002-0.013c-0.018-0.107-0.119-0.179-0.226-0.163c-0.103,0.017-0.173,0.115-0.155,0.218
				C328.234,336.074,328.234,336.078,328.235,336.081L328.235,336.081z M327.443,331.417c0.02,0.106,0.119,0.177,0.226,0.163
				c0.106-0.015,0.179-0.113,0.164-0.219c0-0.002-0.001-0.005-0.001-0.007c-0.018-0.107-0.119-0.179-0.226-0.163
				C327.499,331.211,327.428,331.311,327.443,331.417L327.443,331.417z M326.66,326.756c0.024,0.103,0.121,0.173,0.226,0.163
				c0.105-0.021,0.176-0.12,0.163-0.226c-0.015-0.106-0.113-0.179-0.219-0.164c-0.002,0-0.005,0.001-0.007,0.001
				C326.716,326.548,326.643,326.649,326.66,326.756L326.66,326.756z M337.15,335.122c0.055,0.092,0.174,0.121,0.265,0.067
				c0.003-0.002,0.006-0.003,0.008-0.005c0.09-0.059,0.114-0.18,0.055-0.27c-0.056-0.085-0.169-0.112-0.258-0.063
				C337.129,334.908,337.098,335.027,337.15,335.122L337.15,335.122z"/>
		</g>
		<g id="sweater">
			
				<linearGradient id="sweater-2_1_" gradientUnits="userSpaceOnUse" x1="395.6316" y1="457.4695" x2="370.5829" y2="344.7503" gradientTransform="matrix(1 0 0 -1 0 722)">
				<stop  offset="0" style="stop-color:#28306D"/>
				<stop  offset="0.51" style="stop-color:#1F275F"/>
				<stop  offset="1" style="stop-color:#171F51"/>
			</linearGradient>
			<path id="sweater-2" style="fill:url(#sweater-2_1_);" d="M454.57,299.03c-1.123,1.459-2.017,3.081-2.65,4.81
				c-42.34,6.59-65.14,18.48-87.68,39.82c-3.32,3.096-6.267,6.569-8.78,10.35c-16.6-12.78-36.32-44.99-36.32-44.99
				c9.55-19.84,28.47-17.48,43.42-16.41c14.95,1.08,23.85-7.17,49.7-4.37S454.57,299.03,454.57,299.03z"/>
			<path id="R_sleeve" style="fill:#23286B;" d="M458.185,321.436c0,0-25.152,19.313-36.591,36.261s-10.293,22.01-0.117,36.358
				s13.165,16.735,13.165,16.735l-51.221,43.122c0,0-16.56-7.902-18.922-27.047s-4.39-25.062-9.857-32.999
				s-13.067-28.74,9.598-50.203s45.595-33.374,88.408-39.936l0,0"/>
		</g>
		<g id="head">
			
				<linearGradient id="neck_1_" gradientUnits="userSpaceOnUse" x1="450.8266" y1="410.725" x2="469.77" y2="410.725" gradientTransform="matrix(1 0 0 -1 0 722)">
				<stop  offset="0" style="stop-color:#FFBEB6"/>
				<stop  offset="1" style="stop-color:#F2A19C"/>
			</linearGradient>
			<path id="neck" style="fill:url(#neck_1_);" d="M469.77,314.03l-14.8,9.85c0,0-9.05-13.53-0.4-24.85l6.23-0.36
				c0.46,4.37,2.91,8.78,7.96,14.34C469.09,313.36,469.42,313.71,469.77,314.03z"/>
			
				<linearGradient id="face_1_" gradientUnits="userSpaceOnUse" x1="525.4916" y1="419.5932" x2="570.2816" y2="419.5932" gradientTransform="matrix(1 0 0 -1 0 722)">
				<stop  offset="0" style="stop-color:#FFBEB6"/>
				<stop  offset="1" style="stop-color:#F2A19C"/>
			</linearGradient>
			<path id="face" style="fill:url(#face_1_);" d="M505.59,307.65c-2.583,3.613-4.851,7.44-6.78,11.44
				c-1.93,4.44-6.78-1.42-6.78-1.42s-14.78,4.73-23.27-4.66c-5.05-5.56-7.5-9.97-7.96-14.34c5.1,0.15,5.44-2.03,5.96-3.38
				c1.46-3.69-0.24-10.51,4.32-11.16c4.17-0.6,5.34,2.87,6.79,5.07C479.5,291.7,492.05,304.52,505.59,307.65z"/>
			<path id="eye" style="fill:#1C2868;" d="M490.669,304.625c0.134,2.607,2.355,4.612,4.962,4.479
				c0.944-0.048,1.852-0.379,2.606-0.948c0.577-0.429,0.014-1.411-0.571-0.976c-1.54,1.257-3.807,1.028-5.064-0.512
				c-0.474-0.581-0.755-1.295-0.804-2.043C491.741,303.905,490.61,303.898,490.669,304.625L490.669,304.625z"/>
			<path id="hair" style="fill:#1C2868;" d="M531.344,297.396c-2.76,6.999-8.995,10.087-15.691,10.467
				c11.02-2.227,15.691-12.226,15.691-12.226c-6.062-2.344-13.758-7.087-19.071-11.072c-4.445-3.334-9.816-9.042-17.216-17.05
				c-9.867-10.677-28.294-11.738-36.4,3.185c-7.065,13.008,0.645,28.053,0.645,28.053c0.33-0.01,0.67-0.033,1.494-0.081
				c5.109,0.143,5.445-2.032,5.968-3.381c1.453-3.689-0.243-10.513,4.318-11.166c4.17-0.597,5.342,2.878,6.783,5.072
				c1.739,2.648,15.741,16.908,30.199,18.908l0,0c0.409,0.051,0.807,0.084,1.204,0.116c9.126,1.617,19.027-1.063,22.799-10.626
				C532.244,297.147,531.519,296.952,531.344,297.396z"/>
		</g>
	</g>
</g>
</svg>
