<?xml version="1.0" encoding="iso-8859-1"?>
<!-- Generator: Adobe Illustrator 23.0.2, SVG Export Plug-In . SVG Version: 6.00 Build 0)  -->
<svg version="1.1" id="illustration" xmlns="http://www.w3.org/2000/svg" xmlns:xlink="http://www.w3.org/1999/xlink" x="0px"
	 y="0px" viewBox="0 0 1080 720" style="enable-background:new 0 0 1080 720;" xml:space="preserve">
<linearGradient id="R_hand-3_1_" gradientUnits="userSpaceOnUse" x1="710.7084" y1="317.0834" x2="691.7932" y2="268.7891" gradientTransform="matrix(1 0 0 -1 0 722)">
	<stop  offset="0" style="stop-color:#FFBEB6"/>
	<stop  offset="1" style="stop-color:#F2A19C"/>
</linearGradient>
<path id="R_hand-3" style="fill:url(#R_hand-3_1_);" d="M711.817,403.013c0,0-3.525,12.241-8.343,19.846s-5.755,7.513-10.562,6.824
	c-4.447-0.725-8.817-1.859-13.055-3.387c-1.889-0.767-4.177,1.047-0.704,4.224s10.075,1.131,9.585,4.648s-7.212,9.771-12.708,13.889
	s-8.351,6.531,1.648,9.182s18.736,1.833,28.401-16.647s21.007-26.138,26.61-29.991L711.817,403.013z"/>
<title>come back later</title>
<g id="ice_cream_vehicle">
	<g id="handles">
		
			<linearGradient id="SVGID_1_" gradientUnits="userSpaceOnUse" x1="279.7497" y1="354.6503" x2="279.7497" y2="525.4062" gradientTransform="matrix(1 0 0 -1 0 722)">
			<stop  offset="0.0898" style="stop-color:#EEEEEE"/>
			<stop  offset="0.8178" style="stop-color:#D6D7D8"/>
		</linearGradient>
		<rect x="277.489" y="263.235" style="fill:url(#SVGID_1_);" width="4.522" height="136.117"/>
		
			<linearGradient id="SVGID_2_" gradientUnits="userSpaceOnUse" x1="537.8658" y1="358.3642" x2="537.8658" y2="529.1201" gradientTransform="matrix(1 0 0 -1 0 722)">
			<stop  offset="0.0898" style="stop-color:#EEEEEE"/>
			<stop  offset="0.8178" style="stop-color:#D6D7D8"/>
		</linearGradient>
		<rect x="535.605" y="259.521" style="fill:url(#SVGID_2_);" width="4.522" height="136.117"/>
	</g>
	
		<linearGradient id="body_1_" gradientUnits="userSpaceOnUse" x1="407.6382" y1="266.3411" x2="424.1309" y2="-6.4226" gradientTransform="matrix(1 0 0 -1 0 722)">
		<stop  offset="0.0898" style="stop-color:#EEEEEE"/>
		<stop  offset="0.8178" style="stop-color:#D6D7D8"/>
	</linearGradient>
	<path id="body" style="fill:url(#body_1_);" d="M551.731,393.847v162.265h-35.687c-8.913-7.307-21.745-7.307-30.659,0H383.38
		c0.036-0.66,0.054-1.338,0.054-2.008c-0.016-25.276-20.519-45.754-45.795-45.738c-25.254,0.016-45.722,20.484-45.738,45.738
		c0,0.669,0.018,1.348,0.054,2.008h-26.073V393.847H551.731z"/>
	<path id="ice_cream_top" style="fill:#FFFFFF;" d="M441.831,457.092c-0.298-14.03-11.914-25.162-25.944-24.864
		c-13.61,0.29-24.574,11.254-24.864,24.864H441.831z"/>
	<path id="wheel" style="fill:#23286B;" d="M337.663,502.916c-28.257,0.032-51.157,22.931-51.188,51.188
		c0,0.669,0.009,1.339,0.045,2.008c1.103,28.248,24.896,50.254,53.145,49.151c26.701-1.042,48.108-22.449,49.151-49.151
		c0.036-0.669,0.045-1.338,0.045-2.008C388.828,525.844,365.923,502.943,337.663,502.916z M337.663,599.875
		c-24.484-0.026-44.618-19.304-45.708-43.763c-0.036-0.66-0.054-1.338-0.054-2.008c0-25.276,20.49-45.766,45.766-45.766
		s45.766,20.49,45.766,45.766c0,0.669-0.018,1.348-0.054,2.008C382.289,580.575,362.15,599.853,337.663,599.875z"/>
	<path id="wheel-2" style="fill:#23286B;" d="M524.636,556.112c-5.027-6.438-12.438-10.576-20.557-11.477
		c-2.239-0.253-4.499-0.253-6.738,0c-16.73,1.835-28.805,16.885-26.97,33.615c1.835,16.73,16.885,28.805,33.615,26.97
		c16.73-1.835,28.805-16.885,26.97-33.615C530.337,565.952,528.147,560.585,524.636,556.112z M500.715,599.124
		c-13.384-0.007-24.227-10.863-24.22-24.247c0.007-13.384,10.863-24.227,24.247-24.22c13.373,0.007,24.212,10.847,24.22,24.22
		C524.944,588.262,514.099,599.107,500.715,599.124L500.715,599.124z"/>
	
		<linearGradient id="_2_1_" gradientUnits="userSpaceOnUse" x1="352.1893" y1="435.6809" x2="351.3041" y2="474.628" gradientTransform="matrix(1 0 0 -1 0 722)">
		<stop  offset="0" style="stop-color:#A1C3FC"/>
		<stop  offset="0.6955" style="stop-color:#81AEF2"/>
		<stop  offset="1" style="stop-color:#78A9EF"/>
	</linearGradient>
	<rect id="_2" x="349.955" y="239.281" style="fill:url(#_2_1_);" width="3.618" height="56.646"/>
	
		<linearGradient id="_1_1_" gradientUnits="userSpaceOnUse" x1="466.2228" y1="438.2726" x2="465.3376" y2="477.2196" gradientTransform="matrix(1 0 0 -1 0 722)">
		<stop  offset="0" style="stop-color:#A1C3FC"/>
		<stop  offset="0.6955" style="stop-color:#81AEF2"/>
		<stop  offset="1" style="stop-color:#78A9EF"/>
	</linearGradient>
	<rect id="_1" x="464.04" y="238.768" style="fill:url(#_1_1_);" width="3.618" height="57.009"/>
	<g id="bottom">
		
			<linearGradient id="SVGID_3_" gradientUnits="userSpaceOnUse" x1="267.3899" y1="427.0762" x2="273.1245" y2="500.3517" gradientTransform="matrix(1 0 0 -1 0 722)">
			<stop  offset="0" style="stop-color:#23286B"/>
			<stop  offset="1" style="stop-color:#151A4F"/>
		</linearGradient>
		<path style="fill:url(#SVGID_3_);" d="M244.036,239.997c0.344,15.26,12.993,27.352,28.253,27.009
			c14.777-0.333,26.676-12.232,27.009-27.009H244.036z"/>
		
			<linearGradient id="SVGID_4_" gradientUnits="userSpaceOnUse" x1="324.1982" y1="448.4032" x2="327.3841" y2="487.2711" gradientTransform="matrix(1 0 0 -1 0 722)">
			<stop  offset="0" style="stop-color:#23286B"/>
			<stop  offset="1" style="stop-color:#151A4F"/>
		</linearGradient>
		<path style="fill:url(#SVGID_4_);" d="M299.297,239.997c0.344,15.26,12.993,27.352,28.253,27.009
			c14.777-0.333,26.676-12.232,27.009-27.009H299.297z"/>
		
			<linearGradient id="SVGID_5_" gradientUnits="userSpaceOnUse" x1="379.5586" y1="447.4998" x2="382.1073" y2="480.633" gradientTransform="matrix(1 0 0 -1 0 722)">
			<stop  offset="0" style="stop-color:#23286B"/>
			<stop  offset="1" style="stop-color:#151A4F"/>
		</linearGradient>
		<path style="fill:url(#SVGID_5_);" d="M354.561,239.997c0.344,15.26,12.993,27.352,28.253,27.009
			c14.777-0.333,26.676-12.232,27.009-27.009H354.561z"/>
		
			<linearGradient id="SVGID_6_" gradientUnits="userSpaceOnUse" x1="434.4965" y1="443.2738" x2="437.0452" y2="476.407" gradientTransform="matrix(1 0 0 -1 0 722)">
			<stop  offset="0" style="stop-color:#23286B"/>
			<stop  offset="1" style="stop-color:#151A4F"/>
		</linearGradient>
		<path style="fill:url(#SVGID_6_);" d="M409.824,239.997c0.344,15.26,12.993,27.352,28.253,27.009
			c14.777-0.333,26.676-12.232,27.009-27.009H409.824z"/>
		
			<linearGradient id="SVGID_7_" gradientUnits="userSpaceOnUse" x1="489.4394" y1="439.0474" x2="491.9882" y2="472.1807" gradientTransform="matrix(1 0 0 -1 0 722)">
			<stop  offset="0" style="stop-color:#23286B"/>
			<stop  offset="1" style="stop-color:#151A4F"/>
		</linearGradient>
		<path style="fill:url(#SVGID_7_);" d="M465.092,239.997c0.344,15.26,12.993,27.352,28.253,27.009
			c14.777-0.333,26.676-12.232,27.009-27.009H465.092z"/>
		
			<linearGradient id="SVGID_8_" gradientUnits="userSpaceOnUse" x1="544.3769" y1="434.8214" x2="546.9256" y2="467.9547" gradientTransform="matrix(1 0 0 -1 0 722)">
			<stop  offset="0" style="stop-color:#23286B"/>
			<stop  offset="1" style="stop-color:#151A4F"/>
		</linearGradient>
		<path style="fill:url(#SVGID_8_);" d="M520.354,239.997c0.343,15.26,12.992,27.353,28.253,27.01
			c14.777-0.332,26.677-12.232,27.01-27.01H520.354z"/>
	</g>
	<g id="top">
		
			<linearGradient id="SVGID_9_" gradientUnits="userSpaceOnUse" x1="291.5879" y1="557.5779" x2="251.4457" y2="405.2922" gradientTransform="matrix(1 0 0 -1 0 722)">
			<stop  offset="0" style="stop-color:#23286B"/>
			<stop  offset="1" style="stop-color:#151A4F"/>
		</linearGradient>
		<polygon style="fill:url(#SVGID_9_);" points="278.975,138.3 244.036,239.997 299.297,239.997 322.589,138.298 		"/>
		
			<linearGradient id="SVGID_10_" gradientUnits="userSpaceOnUse" x1="330.5788" y1="500.106" x2="298.7199" y2="342.0857" gradientTransform="matrix(1 0 0 -1 0 722)">
			<stop  offset="0" style="stop-color:#23286B"/>
			<stop  offset="1" style="stop-color:#151A4F"/>
		</linearGradient>
		<polygon style="fill:url(#SVGID_10_);" points="322.589,138.298 299.297,239.997 354.561,239.997 366.207,138.296 		"/>
		
			<linearGradient id="SVGID_11_" gradientUnits="userSpaceOnUse" x1="388.0588" y1="533.2002" x2="373.3337" y2="415.399" gradientTransform="matrix(1 0 0 -1 0 722)">
			<stop  offset="0" style="stop-color:#23286B"/>
			<stop  offset="1" style="stop-color:#151A4F"/>
		</linearGradient>
		<polygon style="fill:url(#SVGID_11_);" points="366.207,138.296 409.825,138.296 409.824,239.997 354.561,239.997 		"/>
		
			<linearGradient id="SVGID_12_" gradientUnits="userSpaceOnUse" x1="431.8173" y1="584.3412" x2="440.7378" y2="422.4978" gradientTransform="matrix(1 0 0 -1 0 722)">
			<stop  offset="0" style="stop-color:#23286B"/>
			<stop  offset="1" style="stop-color:#151A4F"/>
		</linearGradient>
		<polygon style="fill:url(#SVGID_12_);" points="409.824,239.997 465.092,239.997 453.439,138.294 409.825,138.296 		"/>
		
			<linearGradient id="SVGID_13_" gradientUnits="userSpaceOnUse" x1="477.9396" y1="553.0116" x2="516.8076" y2="366.3184" gradientTransform="matrix(1 0 0 -1 0 722)">
			<stop  offset="0" style="stop-color:#23286B"/>
			<stop  offset="1" style="stop-color:#151A4F"/>
		</linearGradient>
		<polygon style="fill:url(#SVGID_13_);" points="453.439,138.294 497.057,138.292 520.354,239.997 465.092,239.997 		"/>
		
			<linearGradient id="SVGID_14_" gradientUnits="userSpaceOnUse" x1="511.4097" y1="602.0561" x2="565.5699" y2="424.2833" gradientTransform="matrix(1 0 0 -1 0 722)">
			<stop  offset="0" style="stop-color:#23286B"/>
			<stop  offset="1" style="stop-color:#151A4F"/>
		</linearGradient>
		<polygon style="fill:url(#SVGID_14_);" points="497.057,138.292 540.677,138.292 575.616,239.997 520.354,239.997 		"/>
	</g>
	
		<linearGradient id="board_1_" gradientUnits="userSpaceOnUse" x1="408.8851" y1="383.7524" x2="408.4887" y2="485.6034" gradientTransform="matrix(1 0 0 -1 0 722)">
		<stop  offset="0" style="stop-color:#A1C3FC"/>
		<stop  offset="0.6955" style="stop-color:#81AEF2"/>
		<stop  offset="1" style="stop-color:#78A9EF"/>
	</linearGradient>
	<rect id="board" x="349.955" y="295.772" style="fill:url(#board_1_);" width="117.702" height="44.516"/>
	
		<linearGradient id="ice_cream_bottom_1_" gradientUnits="userSpaceOnUse" x1="391.023" y1="236.6355" x2="441.831" y2="236.6355" gradientTransform="matrix(1 0 0 -1 0 722)">
		<stop  offset="0" style="stop-color:#23286B"/>
		<stop  offset="1" style="stop-color:#151A4F"/>
	</linearGradient>
	<polygon id="ice_cream_bottom" style="fill:url(#ice_cream_bottom_1_);" points="391.023,457.092 441.831,457.092 417.246,513.637 
			"/>
	<g id="_10_min">
		<path style="fill:#FFFFFF;" d="M387.041,312.758v10.829h-2.917v-8.375h-1.605v-2.454H387.041z"/>
		<path style="fill:#FFFFFF;" d="M388.805,318.185c0-3.469,1.852-5.687,4.74-5.687s4.74,2.219,4.74,5.687
			c0,3.459-1.862,5.687-4.74,5.687S388.805,321.644,388.805,318.185z M395.317,318.194c0-1.995-0.64-3.117-1.772-3.117
			c-1.141,0-1.771,1.112-1.771,3.108c0,1.995,0.631,3.107,1.771,3.107C394.686,321.292,395.317,320.189,395.317,318.194
			L395.317,318.194z"/>
		<path style="fill:#FFFFFF;" d="M414.824,323.587l-0.89-6.564l-3.023,6.583h-0.928l-3.021-6.581l-0.877,6.562h-3.182l1.724-11.398
			h3.136l2.684,6.202l2.702-6.202h3.136l1.708,11.398H414.824z"/>
		<path style="fill:#FFFFFF;" d="M419.537,312.188h3.182v11.398h-3.182V312.188z"/>
		<path style="fill:#FFFFFF;" d="M435.094,312.188v11.398h-2.597l-4.529-6.186v6.186h-3.043v-11.398h2.748l4.377,5.98v-5.98H435.094
			z"/>
	</g>
</g>
<g id="kid">
	
		<linearGradient id="R_shoe_1_" gradientUnits="userSpaceOnUse" x1="567.732" y1="125.3539" x2="619.9838" y2="125.3539" gradientTransform="matrix(1 0 0 -1 0 722)">
		<stop  offset="0.1291" style="stop-color:#428DFC"/>
		<stop  offset="0.9987" style="stop-color:#1D72D8"/>
	</linearGradient>
	<path id="R_shoe" style="fill:url(#R_shoe_1_);" d="M612.582,587.99l7.401,17.311l-52.252,0.001c0,0,2.679-4.333,11.611-7.542
		s17.268-9.77,17.268-9.77H612.582"/>
	<path id="L_shoe" style="fill:#428DFC;" d="M649.924,587.98l7.401,17.311l-52.252,0.001c0,0,2.679-4.333,11.611-7.542
		s17.268-9.77,17.268-9.77H649.924"/>
	
		<linearGradient id="R_trousers_1_" gradientUnits="userSpaceOnUse" x1="559.284" y1="176.5571" x2="631.6549" y2="195.8976" gradientTransform="matrix(1 0 0 -1 0 722)">
		<stop  offset="0" style="stop-color:#23286B"/>
		<stop  offset="1" style="stop-color:#151A4F"/>
	</linearGradient>
	<path id="R_trousers" style="fill:url(#R_trousers_1_);" d="M634.36,487.68c-6.29,23.18-6.78,19.92-5.81,36.18
		c0.97,16.27-2.18,10.78-3.15,27.85c-0.97,17.08,0.27,25.51-12.82,36.28h-15.97c0,0-1.29-52.06-1.01-66.77
		c0.2-10.3,4.06-20.73,6.29-29.25l3.73-15.7c7.5,2.28,17.47,2.89,30.33-0.7C635.997,479.662,635.461,483.739,634.36,487.68z"/>
	<path id="L_trousers" style="fill:#23286B;" d="M649.93,587.98h-15.98c0,0-25.18-50.88-26.43-61.92
		c-0.87-9.371-0.692-18.809,0.53-28.14l1.94-20.58c8.5,1.6,19.59,1.02,33.74-4.34c1.533,8.535,0.607,17.331-2.67,25.36
		c-10.04,25.28-3.14,24.08,0.12,31.73c3.27,7.65,5.02,12.32,4.28,19.55c-0.76,7.23,3,5.32,5.02,14.66
		C652.49,573.65,649.93,587.98,649.93,587.98z"/>
	<path id="texture" style="opacity:0.86;fill:#FFFFFF;enable-background:new    ;" d="M622.775,484.642
		c-0.022-0.06-0.089-0.091-0.149-0.069c-0.003,0.001-0.005,0.002-0.008,0.003c-0.062,0.03-0.09,0.103-0.065,0.167
		c0.022,0.06,0.089,0.091,0.149,0.069c0.003-0.001,0.005-0.002,0.008-0.003C622.772,484.779,622.8,484.706,622.775,484.642z
		 M621.666,481.788c-0.017-0.058-0.079-0.091-0.137-0.074c-0.007,0.002-0.014,0.005-0.02,0.008c-0.064,0.028-0.095,0.1-0.073,0.166
		c0.028,0.064,0.101,0.093,0.165,0.067C621.664,481.924,621.692,481.852,621.666,481.788L621.666,481.788z M620.558,478.933
		c-0.026-0.065-0.098-0.098-0.164-0.076c-0.062,0.034-0.09,0.109-0.066,0.176c0.022,0.06,0.089,0.091,0.149,0.069
		c0.003-0.001,0.005-0.002,0.008-0.003C620.549,479.071,620.58,478.999,620.558,478.933z M610.338,484.707
		c-0.062-0.022-0.129,0.011-0.151,0.073c0,0.001-0.001,0.002-0.001,0.003c-0.031,0.058-0.009,0.131,0.05,0.162
		c0.003,0.002,0.007,0.003,0.01,0.005c0.063,0.024,0.134-0.007,0.158-0.07c0.001-0.001,0.001-0.003,0.002-0.004
		C610.433,484.809,610.402,484.735,610.338,484.707z M626.973,479.575c-0.039-0.045-0.107-0.05-0.152-0.011
		c-0.005,0.004-0.01,0.009-0.014,0.015c-0.048,0.048-0.049,0.125-0.002,0.174c0.001,0.001,0.001,0.001,0.002,0.002
		c0.039,0.045,0.107,0.05,0.152,0.011c0.005-0.004,0.01-0.009,0.014-0.015c0.048-0.048,0.049-0.125,0.002-0.174
		C626.975,479.576,626.974,479.575,626.973,479.575z M616.519,484.286c-0.07,0.004-0.125,0.062-0.126,0.132
		c-0.001,0.07,0.053,0.128,0.123,0.131c0.069-0.007,0.123-0.063,0.126-0.132C616.641,484.349,616.587,484.292,616.519,484.286z
		 M616.533,481.183c-0.07,0.004-0.125,0.062-0.126,0.132c-0.003,0.065,0.046,0.12,0.111,0.123c0.004,0,0.009,0,0.013,0
		c0.068,0,0.124-0.055,0.125-0.123C616.655,481.245,616.602,481.188,616.533,481.183L616.533,481.183z M638.693,485.112
		c-0.088-0.084-0.227-0.081-0.311,0.006c-0.006,0.006-0.011,0.012-0.016,0.019c-0.083,0.1-0.075,0.247,0.02,0.337
		c0.088,0.084,0.227,0.081,0.311-0.006c0.006-0.006,0.011-0.012,0.016-0.019C638.796,485.349,638.787,485.201,638.693,485.112
		L638.693,485.112z M634.513,481.278c-0.088-0.082-0.226-0.076-0.307,0.012c-0.004,0.004-0.008,0.009-0.012,0.014
		c-0.088,0.102-0.08,0.254,0.019,0.346c0.089,0.084,0.229,0.08,0.313-0.008c0.005-0.005,0.01-0.011,0.014-0.017
		C634.62,481.519,634.609,481.37,634.513,481.278L634.513,481.278z M630.341,477.454c-0.094-0.084-0.239-0.075-0.322,0.019
		c-0.002,0.002-0.003,0.004-0.005,0.006c-0.084,0.103-0.076,0.252,0.019,0.346c0.093,0.084,0.237,0.076,0.32-0.017
		c0.002-0.003,0.005-0.005,0.007-0.008C630.447,477.698,630.439,477.545,630.341,477.454L630.341,477.454z M621.639,500.11
		c-0.131,0.015-0.227,0.129-0.219,0.26c0.001,0.122,0.101,0.221,0.224,0.22c0.007,0,0.013,0,0.02-0.001
		c0.131-0.015,0.227-0.129,0.219-0.26c-0.005-0.126-0.11-0.224-0.236-0.219C621.644,500.11,621.642,500.11,621.639,500.11
		L621.639,500.11z M621.289,494.237c-0.129,0.016-0.222,0.132-0.211,0.261c0.003,0.129,0.111,0.231,0.24,0.227
		c0.001,0,0.002,0,0.003,0c0.135-0.014,0.232-0.135,0.218-0.269C621.526,494.329,621.417,494.234,621.289,494.237L621.289,494.237z
		 M620.947,488.366c-0.131,0.021-0.225,0.136-0.22,0.269c0.001,0.122,0.101,0.221,0.224,0.22c0.007,0,0.013,0,0.02-0.001
		c0.132-0.011,0.23-0.127,0.219-0.259c0,0,0,0,0-0.001c-0.004-0.129-0.111-0.231-0.24-0.227
		C620.949,488.366,620.948,488.366,620.947,488.366L620.947,488.366z M620.596,482.501c-0.129,0.016-0.222,0.132-0.211,0.261
		c0.003,0.129,0.111,0.231,0.24,0.227c0.001,0,0.002,0,0.003,0c0.131-0.015,0.227-0.129,0.219-0.26
		c-0.001-0.128-0.106-0.23-0.234-0.229C620.607,482.501,620.601,482.501,620.596,482.501L620.596,482.501z M641.192,474.979
		c-0.123-0.04-0.255,0.027-0.294,0.15c0,0.001-0.001,0.002-0.001,0.003c-0.046,0.124,0.016,0.262,0.14,0.31
		c0.12,0.041,0.251-0.022,0.292-0.142c0.001-0.003,0.002-0.007,0.003-0.01C641.377,475.164,641.315,475.026,641.192,474.979
		L641.192,474.979z M632.622,494.161c-0.049-0.112-0.179-0.163-0.29-0.114c-0.007,0.003-0.013,0.006-0.019,0.01
		c-0.119,0.062-0.168,0.206-0.112,0.328c0.048,0.111,0.177,0.163,0.288,0.115c0.007-0.003,0.015-0.007,0.022-0.011
		C632.626,494.424,632.675,494.282,632.622,494.161L632.622,494.161z M630.175,488.913c-0.049-0.112-0.178-0.163-0.29-0.114
		c-0.007,0.003-0.013,0.006-0.019,0.01c-0.119,0.062-0.168,0.206-0.112,0.328c0.048,0.111,0.177,0.163,0.288,0.115
		c0.007-0.003,0.015-0.007,0.022-0.011C630.179,489.176,630.228,489.034,630.175,488.913L630.175,488.913z M627.728,483.665
		c-0.058-0.117-0.199-0.164-0.316-0.106c-0.001,0-0.001,0.001-0.002,0.001c-0.114,0.067-0.158,0.209-0.104,0.329
		c0.051,0.115,0.186,0.167,0.301,0.116c0.002-0.001,0.005-0.002,0.007-0.003C627.731,483.932,627.779,483.789,627.728,483.665
		L627.728,483.665z M625.272,478.424c-0.05-0.115-0.183-0.168-0.298-0.118c-0.003,0.001-0.007,0.003-0.01,0.005
		c-0.113,0.067-0.157,0.209-0.104,0.329c0.048,0.111,0.177,0.163,0.288,0.115c0.007-0.003,0.015-0.007,0.021-0.011
		C625.286,478.684,625.331,478.541,625.272,478.424L625.272,478.424z M611.221,495.976c-0.116-0.039-0.243,0.023-0.282,0.14
		c-0.003,0.008-0.005,0.015-0.006,0.023c-0.043,0.122,0.02,0.256,0.141,0.301c0.123,0.04,0.255-0.027,0.294-0.15
		c0-0.001,0.001-0.002,0.001-0.003C611.406,496.161,611.342,496.027,611.221,495.976z M613.033,490.385
		c-0.12-0.041-0.25,0.022-0.292,0.142c-0.001,0.004-0.002,0.007-0.003,0.011c-0.05,0.117,0.005,0.253,0.122,0.303
		c0.117,0.05,0.253-0.005,0.303-0.122c0.005-0.011,0.008-0.021,0.011-0.032C613.217,490.564,613.154,490.43,613.033,490.385
		L613.033,490.385z M614.838,484.784c-0.123-0.04-0.255,0.027-0.294,0.15c0,0.001-0.001,0.002-0.001,0.003
		c-0.046,0.125,0.018,0.263,0.143,0.309c0.002,0.001,0.003,0.001,0.005,0.002c0.116,0.04,0.242-0.022,0.282-0.137
		c0.002-0.005,0.003-0.011,0.005-0.016C615.022,484.97,614.96,484.834,614.838,484.784L614.838,484.784z M616.644,479.183
		c-0.127-0.045-0.266,0.021-0.311,0.148c-0.045,0.127,0.021,0.266,0.148,0.311c0.127,0.045,0.266-0.021,0.311-0.148
		C616.832,479.367,616.767,479.232,616.644,479.183L616.644,479.183z M637.419,491.437c-0.05-0.094-0.167-0.129-0.261-0.078
		c-0.007,0.004-0.014,0.008-0.021,0.013c-0.1,0.065-0.129,0.198-0.066,0.299c0.055,0.095,0.176,0.127,0.271,0.072
		c0.004-0.002,0.008-0.005,0.011-0.007C637.448,491.668,637.476,491.539,637.419,491.437L637.419,491.437z M634.817,487.004
		c-0.054-0.097-0.176-0.132-0.273-0.079c-0.003,0.001-0.005,0.003-0.008,0.005c-0.1,0.069-0.129,0.203-0.067,0.307
		c0.055,0.095,0.177,0.127,0.272,0.072c0.003-0.002,0.007-0.004,0.01-0.006C634.85,487.237,634.879,487.105,634.817,487.004
		L634.817,487.004z M632.217,482.561c-0.015-0.037-0.044-0.066-0.08-0.081l-0.008-0.001c-0.063-0.029-0.136-0.022-0.193,0.017
		c-0.1,0.069-0.129,0.203-0.067,0.307c0.055,0.095,0.177,0.127,0.272,0.072c0.003-0.002,0.007-0.004,0.01-0.006
		c0.045-0.029,0.076-0.076,0.084-0.129C632.258,482.681,632.251,482.615,632.217,482.561L632.217,482.561z M629.616,478.128
		c-0.055-0.095-0.176-0.127-0.271-0.072c-0.004,0.002-0.008,0.004-0.011,0.007c-0.096,0.071-0.125,0.202-0.067,0.307
		c0.061,0.095,0.186,0.124,0.282,0.065C629.648,478.366,629.678,478.232,629.616,478.128L629.616,478.128z M616.627,495.15
		c-0.12-0.018-0.232,0.064-0.25,0.184c-0.016,0.107,0.047,0.21,0.15,0.242c0.116,0.022,0.229-0.052,0.256-0.167
		C616.805,495.295,616.738,495.183,616.627,495.15z M617.785,490.022c-0.116-0.036-0.239,0.028-0.275,0.143
		c-0.036,0.116,0.028,0.239,0.143,0.275c0.116,0.036,0.239-0.028,0.275-0.143c0.001-0.003,0.002-0.006,0.003-0.009
		C617.961,490.175,617.897,490.058,617.785,490.022z M618.943,484.895c-0.113-0.023-0.223,0.049-0.246,0.162
		c0,0.002-0.001,0.004-0.001,0.006c-0.034,0.106,0.025,0.22,0.131,0.254c0.005,0.002,0.01,0.003,0.016,0.004
		c0.113,0.023,0.223-0.049,0.246-0.162c0-0.002,0.001-0.004,0.001-0.006C619.117,485.041,619.053,484.929,618.943,484.895
		L618.943,484.895z M620.094,479.766c-0.114-0.018-0.222,0.055-0.248,0.168c-0.029,0.114,0.04,0.23,0.154,0.259c0,0,0.001,0,0.001,0
		c0.112,0.024,0.222-0.047,0.246-0.159c0,0,0,0,0,0C620.274,479.918,620.207,479.801,620.094,479.766L620.094,479.766z
		 M639.486,478.843c-0.088-0.066-0.213-0.048-0.279,0.04c-0.004,0.005-0.008,0.011-0.011,0.017c-0.07,0.093-0.051,0.226,0.042,0.296
		c0.084,0.068,0.208,0.055,0.276-0.029c0.005-0.006,0.009-0.012,0.013-0.018C639.593,479.05,639.575,478.919,639.486,478.843
		L639.486,478.843z M635.459,475.822c-0.096-0.064-0.225-0.038-0.29,0.057c-0.066,0.099-0.045,0.233,0.049,0.306
		c0.09,0.063,0.214,0.04,0.277-0.05c0.002-0.003,0.004-0.005,0.005-0.008C635.569,476.03,635.551,475.897,635.459,475.822
		L635.459,475.822z M627.219,492.744c-0.114,0.031-0.186,0.142-0.169,0.258c0.014,0.11,0.115,0.188,0.225,0.174
		c0.003,0,0.006-0.001,0.009-0.001c0.115-0.024,0.192-0.132,0.176-0.248c-0.014-0.116-0.12-0.198-0.236-0.184
		C627.222,492.744,627.221,492.744,627.219,492.744L627.219,492.744z M626.44,487.569c-0.114,0.031-0.186,0.142-0.169,0.258
		c0.014,0.11,0.115,0.188,0.225,0.174c0.003,0,0.006-0.001,0.009-0.001c0.115-0.022,0.19-0.132,0.168-0.247
		c0-0.001,0-0.002-0.001-0.003c-0.013-0.113-0.115-0.195-0.228-0.182C626.443,487.568,626.442,487.569,626.44,487.569
		L626.44,487.569z M625.66,482.402c-0.115,0.022-0.19,0.132-0.168,0.247c0,0.001,0,0.002,0.001,0.003
		c0.014,0.11,0.115,0.188,0.225,0.174c0.003,0,0.006-0.001,0.009-0.001c0.113-0.025,0.187-0.135,0.167-0.25
		c-0.01-0.107-0.105-0.186-0.212-0.176C625.674,482.399,625.667,482.4,625.66,482.402L625.66,482.402z M611.753,484.269
		c-0.09-0.063-0.214-0.04-0.277,0.05c-0.002,0.003-0.004,0.005-0.005,0.008c-0.069,0.096-0.051,0.23,0.041,0.305
		c0.093,0.065,0.221,0.042,0.287-0.051c0.001-0.002,0.003-0.004,0.004-0.006C611.872,484.477,611.851,484.34,611.753,484.269z
		 M637.136,478.535c-0.045-0.05-0.122-0.053-0.172-0.008c-0.001,0-0.001,0.001-0.002,0.001c-0.048,0.05-0.052,0.129-0.009,0.184
		c0.045,0.05,0.122,0.053,0.172,0.008c0.001,0,0.001-0.001,0.002-0.001C637.175,478.668,637.179,478.59,637.136,478.535z
		 M635.154,476.29c-0.045-0.05-0.122-0.053-0.172-0.008c-0.001,0-0.001,0.001-0.002,0.001c-0.048,0.051-0.052,0.129-0.009,0.184
		c0.046,0.05,0.124,0.053,0.173,0.007c0,0,0,0,0,0C635.193,476.423,635.197,476.345,635.154,476.29L635.154,476.29z
		 M625.455,483.165c-0.068,0-0.124,0.055-0.125,0.124c-0.005,0.067,0.046,0.125,0.113,0.13c0.001,0,0.001,0,0.002,0
		c0.068,0,0.124-0.055,0.125-0.124c0.005-0.067-0.046-0.125-0.113-0.13C625.456,483.165,625.455,483.165,625.455,483.165
		L625.455,483.165z M625.576,480.067c-0.07,0.001-0.126,0.059-0.125,0.129c0.001,0.065,0.051,0.118,0.115,0.125
		c0.07,0.001,0.128-0.053,0.133-0.122c0.004-0.069-0.049-0.128-0.118-0.131C625.58,480.068,625.578,480.067,625.576,480.067
		L625.576,480.067z M631.354,480.515c-0.016-0.06-0.077-0.097-0.138-0.081c-0.006,0.002-0.012,0.004-0.018,0.007
		c-0.066,0.026-0.098,0.1-0.073,0.166c0.024,0.062,0.092,0.094,0.156,0.074C631.345,480.653,631.377,480.581,631.354,480.515
		L631.354,480.515z M630.344,477.613c-0.019-0.059-0.083-0.091-0.142-0.072c-0.005,0.002-0.01,0.004-0.015,0.006
		c-0.063,0.029-0.094,0.1-0.073,0.166c0.024,0.062,0.092,0.094,0.156,0.074C630.338,477.759,630.371,477.681,630.344,477.613
		L630.344,477.613z M620.072,480.221c-0.055-0.029-0.122-0.008-0.151,0.047c-0.003,0.006-0.006,0.013-0.008,0.019
		c-0.029,0.063-0.002,0.137,0.06,0.167c0.059,0.027,0.128,0.001,0.155-0.058c0.001-0.003,0.002-0.006,0.003-0.008
		C620.161,480.325,620.135,480.25,620.072,480.221L620.072,480.221z M639.241,481.572c-0.034-0.062-0.111-0.085-0.173-0.051
		c-0.004,0.002-0.008,0.005-0.012,0.008c-0.069,0.044-0.089,0.136-0.045,0.205c0.034,0.062,0.111,0.085,0.173,0.051
		c0.004-0.002,0.008-0.005,0.012-0.008C639.261,481.73,639.281,481.641,639.241,481.572L639.241,481.572z M637.458,478.606
		c-0.034-0.062-0.111-0.085-0.173-0.051c-0.004,0.002-0.008,0.005-0.012,0.008c-0.065,0.047-0.085,0.135-0.045,0.205
		c0.038,0.065,0.122,0.087,0.187,0.048c0.002-0.001,0.004-0.002,0.006-0.004C637.488,478.765,637.505,478.673,637.458,478.606
		L637.458,478.606z M635.684,475.642c-0.038-0.065-0.122-0.087-0.187-0.048c-0.002,0.001-0.004,0.003-0.006,0.004
		c-0.065,0.047-0.085,0.135-0.045,0.205c-0.001,0.009,0.007,0.01,0.014,0.02c0.046,0.05,0.121,0.061,0.179,0.025
		C635.704,475.8,635.723,475.712,635.684,475.642L635.684,475.642z M625.266,484.23c-0.077-0.008-0.148,0.042-0.166,0.118
		c-0.018,0.075,0.026,0.151,0.101,0.172c0.07,0.019,0.142-0.022,0.161-0.092c0.002-0.006,0.003-0.012,0.004-0.018
		C625.387,484.334,625.343,484.253,625.266,484.23z M626.01,480.77c-0.077-0.008-0.148,0.042-0.166,0.118
		c-0.02,0.075,0.025,0.152,0.1,0.172s0.152-0.025,0.172-0.1c0.001-0.002,0.001-0.005,0.002-0.008
		C626.134,480.873,626.087,480.795,626.01,480.77L626.01,480.77z M643.029,475.031c-0.058-0.046-0.143-0.035-0.188,0.023
		c-0.003,0.004-0.005,0.007-0.008,0.011c-0.042,0.067-0.029,0.154,0.03,0.206c0.06,0.044,0.145,0.03,0.189-0.03
		c0.003-0.004,0.006-0.009,0.008-0.013C643.102,475.165,643.089,475.079,643.029,475.031L643.029,475.031z M632.295,482.599
		c-0.007-0.074-0.073-0.128-0.147-0.12c-0.004,0-0.007,0.001-0.011,0.002l-0.008-0.001c-0.073,0.022-0.119,0.095-0.107,0.17
		c0.007,0.074,0.073,0.128,0.147,0.12c0.004,0,0.007-0.001,0.011-0.002c0.019-0.006,0.038-0.015,0.054-0.028
		C632.281,482.71,632.305,482.654,632.295,482.599L632.295,482.599z M631.573,478.997c-0.077,0.023-0.126,0.098-0.116,0.178
		c0.014,0.076,0.088,0.126,0.164,0.112c0.076-0.014,0.126-0.088,0.112-0.164c0-0.002-0.001-0.005-0.001-0.007
		c-0.009-0.075-0.078-0.129-0.153-0.119C631.576,478.996,631.574,478.997,631.573,478.997L631.573,478.997z M619.723,479.803
		c-0.058-0.042-0.138-0.028-0.18,0.029c-0.003,0.005-0.007,0.01-0.009,0.015c-0.043,0.064-0.03,0.15,0.031,0.198
		c0.058,0.045,0.142,0.035,0.188-0.023c0.003-0.004,0.005-0.007,0.008-0.011C619.804,479.942,619.788,479.852,619.723,479.803
		L619.723,479.803z M644.198,473.063c-0.104-0.076-0.251-0.053-0.327,0.052c-0.002,0.003-0.004,0.005-0.005,0.008
		c-0.08,0.111-0.057,0.266,0.051,0.35c0.097,0.079,0.239,0.064,0.318-0.033c0.005-0.006,0.009-0.012,0.013-0.018
		C644.325,473.307,644.303,473.153,644.198,473.063z M637.14,497.109c-0.134,0.027-0.224,0.153-0.206,0.288
		c0.016,0.129,0.133,0.221,0.262,0.206c0.003,0,0.006-0.001,0.009-0.001c0.133-0.028,0.222-0.153,0.206-0.288
		c-0.015-0.129-0.133-0.221-0.262-0.206C637.146,497.108,637.143,497.108,637.14,497.109z M636.291,491.123
		c-0.134,0.027-0.221,0.155-0.198,0.289c0.013,0.128,0.128,0.22,0.255,0.207c0.005-0.001,0.01-0.001,0.015-0.002
		c0.133-0.027,0.221-0.155,0.198-0.289c-0.016-0.129-0.133-0.221-0.262-0.206C636.297,491.122,636.294,491.122,636.291,491.123
		L636.291,491.123z M635.449,485.138c-0.136,0.023-0.228,0.152-0.206,0.288c0.016,0.129,0.133,0.221,0.262,0.206
		c0.003,0,0.006-0.001,0.009-0.001c0.134-0.027,0.224-0.153,0.206-0.288c-0.016-0.129-0.133-0.221-0.262-0.206
		C635.455,485.137,635.452,485.138,635.449,485.138L635.449,485.138z M634.6,479.152c-0.134,0.027-0.221,0.155-0.198,0.289
		c0.015,0.129,0.133,0.221,0.262,0.206c0.003,0,0.006-0.001,0.009-0.001c0.132-0.029,0.219-0.156,0.198-0.289
		c-0.013-0.128-0.128-0.22-0.255-0.207C634.61,479.15,634.605,479.151,634.6,479.152L634.6,479.152z M613.872,491.346
		c-0.099-0.077-0.242-0.059-0.319,0.04c-0.005,0.006-0.009,0.013-0.013,0.019c-0.081,0.109-0.062,0.263,0.043,0.349
		c0.109,0.078,0.261,0.053,0.339-0.057c0-0.001,0.001-0.001,0.001-0.002C613.998,491.583,613.976,491.432,613.872,491.346z
		 M617.287,486.416c-0.099-0.077-0.242-0.059-0.319,0.04c-0.005,0.006-0.009,0.013-0.013,0.019c-0.079,0.112-0.056,0.266,0.051,0.35
		c0.106,0.076,0.253,0.051,0.329-0.055c0.001-0.001,0.002-0.003,0.003-0.004C617.415,486.654,617.392,486.502,617.287,486.416
		L617.287,486.416z M620.703,481.487c-0.097-0.079-0.239-0.064-0.318,0.033c-0.005,0.006-0.009,0.012-0.013,0.018
		c-0.076,0.115-0.055,0.269,0.05,0.359c0.104,0.076,0.251,0.053,0.327-0.052c0.002-0.003,0.004-0.005,0.005-0.008
		C620.834,481.726,620.811,481.571,620.703,481.487L620.703,481.487z M641.915,479.839c-0.065-0.112-0.208-0.151-0.32-0.086
		c-0.003,0.002-0.006,0.004-0.009,0.005c-0.112,0.079-0.147,0.229-0.082,0.349c0.065,0.112,0.209,0.151,0.322,0.085
		c0.003-0.001,0.005-0.003,0.008-0.005C641.945,480.109,641.98,479.959,641.915,479.839L641.915,479.839z M638.964,474.688
		c-0.06-0.111-0.198-0.153-0.309-0.093c-0.007,0.004-0.014,0.008-0.02,0.012c-0.112,0.079-0.147,0.229-0.082,0.349
		c0.062,0.109,0.2,0.148,0.309,0.086c0.007-0.004,0.015-0.009,0.021-0.014C638.995,474.953,639.03,474.805,638.964,474.688
		L638.964,474.688z M625.974,493.997c-0.128-0.028-0.255,0.054-0.282,0.182c-0.001,0.003-0.001,0.005-0.002,0.008
		c-0.035,0.129,0.038,0.263,0.166,0.304c0.131,0.023,0.258-0.059,0.292-0.188C626.183,494.171,626.106,494.035,625.974,493.997
		L625.974,493.997z M627.365,488.093c-0.125-0.03-0.25,0.047-0.28,0.171c-0.001,0.006-0.003,0.012-0.004,0.018
		c-0.038,0.125,0.033,0.257,0.157,0.294c0.125,0.038,0.257-0.033,0.294-0.157c0.003-0.01,0.005-0.019,0.007-0.029
		c0.036-0.126-0.037-0.258-0.163-0.294C627.372,488.095,627.369,488.093,627.365,488.093L627.365,488.093z M628.756,482.179
		c-0.131-0.025-0.257,0.059-0.284,0.189c-0.035,0.132,0.042,0.268,0.174,0.306c0.128,0.028,0.255-0.054,0.282-0.182
		c0.001-0.003,0.001-0.005,0.002-0.008C628.965,482.353,628.888,482.217,628.756,482.179L628.756,482.179z M643.777,475.865
		c-0.06-0.104-0.194-0.14-0.298-0.08c-0.009,0.005-0.018,0.011-0.026,0.017c-0.11,0.081-0.141,0.232-0.073,0.351
		c0.075,0.108,0.222,0.136,0.332,0.064C643.823,476.135,643.852,475.981,643.777,475.865L643.777,475.865z M629.429,495.927
		c-0.139-0.016-0.265,0.085-0.28,0.224c-0.014,0.125,0.065,0.241,0.187,0.273c0.131,0.021,0.255-0.068,0.277-0.199
		C629.642,496.093,629.561,495.96,629.429,495.927L629.429,495.927z M630.583,489.99c-0.135-0.017-0.26,0.073-0.286,0.207
		c-0.024,0.13,0.057,0.256,0.184,0.289c0.133,0.024,0.26-0.064,0.285-0.196c0-0.001,0-0.001,0-0.002
		C630.793,490.156,630.713,490.025,630.583,489.99L630.583,489.99z M631.727,484.06c-0.131-0.021-0.255,0.068-0.277,0.199
		c-0.031,0.129,0.049,0.258,0.177,0.288c0.128,0.031,0.258-0.049,0.288-0.177c0.002-0.006,0.003-0.013,0.004-0.02
		C631.943,484.218,631.859,484.09,631.727,484.06L631.727,484.06z M632.881,478.122c-0.129-0.023-0.252,0.063-0.276,0.192
		c0,0.002-0.001,0.005-0.001,0.007c-0.027,0.13,0.055,0.259,0.184,0.289c0.126,0.025,0.249-0.056,0.274-0.183
		c0.001-0.006,0.002-0.011,0.003-0.017c0.03-0.13-0.051-0.259-0.181-0.289C632.884,478.123,632.883,478.123,632.881,478.122
		L632.881,478.122z M640.175,486.645c-0.132,0.034-0.216,0.165-0.191,0.299c0.022,0.128,0.144,0.213,0.271,0.19
		c0.003-0.001,0.007-0.001,0.01-0.002c0.131-0.03,0.215-0.158,0.19-0.29C640.432,486.711,640.307,486.623,640.175,486.645
		L640.175,486.645z M639.1,480.725c-0.131,0.036-0.214,0.165-0.191,0.299c0.019,0.128,0.138,0.216,0.265,0.197
		c0.002,0,0.004-0.001,0.007-0.001c0.135-0.031,0.219-0.164,0.191-0.299c-0.017-0.126-0.133-0.215-0.259-0.198
		C639.109,480.724,639.105,480.724,639.1,480.725L639.1,480.725z M638.016,474.812c-0.132,0.034-0.216,0.165-0.191,0.299
		c0.02,0.126,0.138,0.212,0.264,0.192c0.006-0.001,0.011-0.002,0.017-0.003c0.131-0.03,0.215-0.158,0.19-0.29
		c-0.021-0.13-0.144-0.219-0.274-0.198C638.02,474.811,638.018,474.812,638.016,474.812L638.016,474.812z M619.96,488.475
		c-0.102-0.071-0.243-0.045-0.314,0.057c-0.005,0.007-0.009,0.014-0.013,0.021c-0.073,0.112-0.047,0.262,0.061,0.343
		c0.107,0.074,0.253,0.048,0.327-0.059c0.002-0.003,0.004-0.006,0.006-0.009C620.104,488.712,620.074,488.556,619.96,488.475
		L619.96,488.475z M623.168,483.421c-0.102-0.071-0.243-0.045-0.314,0.057c-0.005,0.007-0.009,0.014-0.013,0.021
		c-0.073,0.112-0.047,0.262,0.061,0.343c0.107,0.074,0.253,0.048,0.327-0.059c0.002-0.003,0.004-0.006,0.006-0.009
		C623.312,483.657,623.282,483.501,623.168,483.421L623.168,483.421z M626.376,478.366c-0.108-0.07-0.251-0.039-0.321,0.069
		c-0.002,0.003-0.004,0.006-0.006,0.009c-0.073,0.112-0.047,0.262,0.061,0.343c0.107,0.074,0.253,0.048,0.327-0.059
		c0.002-0.003,0.004-0.006,0.006-0.009C626.52,478.602,626.49,478.446,626.376,478.366L626.376,478.366z M629.477,485.552
		c-0.084-0.042-0.186-0.008-0.228,0.075c-0.004,0.008-0.007,0.016-0.01,0.024c-0.037,0.092,0.003,0.197,0.091,0.241
		c0.088,0.04,0.192,0.002,0.233-0.086c0.002-0.004,0.004-0.008,0.005-0.013C629.606,485.701,629.566,485.596,629.477,485.552
		L629.477,485.552z M631.205,481.348c-0.088-0.04-0.192-0.002-0.233,0.086c-0.002,0.004-0.004,0.008-0.005,0.013
		c-0.04,0.094-0.001,0.203,0.09,0.25c0.093,0.038,0.199-0.006,0.238-0.099c0,0,0,0,0,0
		C631.335,481.504,631.296,481.395,631.205,481.348L631.205,481.348z M632.934,477.144c-0.093-0.038-0.199,0.006-0.238,0.098
		c0,0,0,0,0,0.001c-0.04,0.094-0.001,0.203,0.09,0.25c0.093,0.038,0.199-0.006,0.238-0.099c0,0,0,0,0,0
		C633.063,477.3,633.024,477.191,632.934,477.144L632.934,477.144z M638.54,485.073c-0.102,0.001-0.184,0.084-0.184,0.186
		c-0.007,0.098,0.067,0.184,0.165,0.191s0.184-0.067,0.191-0.165c0-0.007,0.001-0.014,0-0.02c0.009-0.096-0.061-0.181-0.157-0.19
		C638.551,485.073,638.546,485.073,638.54,485.073L638.54,485.073z M638.622,480.518c-0.104,0.008-0.183,0.099-0.175,0.203
		c0.007,0.093,0.08,0.167,0.172,0.175c0.102-0.008,0.182-0.092,0.185-0.194c0.002-0.099-0.076-0.181-0.175-0.184
		C638.627,480.518,638.625,480.518,638.622,480.518L638.622,480.518z M638.714,475.956c-0.102,0.008-0.182,0.092-0.185,0.194
		c-0.006,0.095,0.066,0.176,0.161,0.182c0.004,0,0.009,0,0.013,0c0.104-0.003,0.186-0.09,0.184-0.194
		C638.884,476.043,638.81,475.964,638.714,475.956z M623.497,478.522c-0.058-0.07-0.163-0.08-0.233-0.022
		c-0.005,0.004-0.01,0.009-0.015,0.014c-0.076,0.074-0.078,0.196-0.004,0.272c0.062,0.069,0.167,0.074,0.236,0.013
		c0.005-0.004,0.009-0.009,0.013-0.014C623.565,478.712,623.567,478.596,623.497,478.522L623.497,478.522z M639.797,475.094
		c-0.054-0.007-0.105,0.027-0.119,0.08c-0.009,0.057,0.026,0.111,0.082,0.126c0.058,0.004,0.108-0.039,0.113-0.097
		C639.877,475.153,639.845,475.107,639.797,475.094z M637.036,479.014c-0.067-0.046-0.159-0.028-0.205,0.039
		c-0.004,0.006-0.008,0.012-0.011,0.019c-0.051,0.072-0.034,0.171,0.038,0.222c0.002,0.001,0.004,0.003,0.006,0.004
		c0.071,0.049,0.168,0.031,0.217-0.04c0.002-0.003,0.004-0.005,0.005-0.008c0.051-0.078,0.029-0.184-0.049-0.235
		C637.037,479.015,637.037,479.014,637.036,479.014L637.036,479.014z M639.142,475.505c-0.075-0.047-0.174-0.024-0.22,0.051
		c-0.001,0.002-0.002,0.004-0.004,0.006c-0.051,0.078-0.029,0.184,0.049,0.235c0,0,0.001,0.001,0.001,0.001
		c0.067,0.046,0.159,0.028,0.205-0.039c0.004-0.006,0.008-0.012,0.011-0.019C639.237,475.663,639.218,475.558,639.142,475.505
		L639.142,475.505z"/>
	<path id="R_hand" style="fill:#FFBEB5;" d="M591.84,383.408c-5.166-4.046-8.916-9.626-10.712-15.937
		c-3.135-10.712-8.36-23.513-9.928-24.82s-3.227,1.438-1.568,5.225c2.06,4.701,1.568,5.225-1.568,6.793s-8.944,4.006,0.16,13.734
		c4.038,4.314,6.503,0.774,12.097,18.582c1.955,6.222,1.851,7.657,1.851,7.657L591.84,383.408z"/>
	
		<linearGradient id="L_hand_1_" gradientUnits="userSpaceOnUse" x1="674.8847" y1="267.1613" x2="726.1174" y2="235.9761" gradientTransform="matrix(1 0 0 -1 0 722)">
		<stop  offset="0" style="stop-color:#FFBEB6"/>
		<stop  offset="0.5048" style="stop-color:#F8AFA9"/>
		<stop  offset="1" style="stop-color:#F2A19C"/>
	</linearGradient>
	<path id="L_hand" style="fill:url(#L_hand_1_);" d="M660.186,448.503c0,0,24.558,7.838,37.883,3.396l5.486-1.829l-9.144,10.45
		c0,0-24.036,14.108-41.54,3.135L660.186,448.503z"/>
	
		<linearGradient id="sweater_1_" gradientUnits="userSpaceOnUse" x1="624.762" y1="319.0476" x2="594.9451" y2="181.3824" gradientTransform="matrix(1 0 0 -1 0 722)">
		<stop  offset="0" style="stop-color:#A1C3FC"/>
		<stop  offset="0.6955" style="stop-color:#81AEF2"/>
		<stop  offset="1" style="stop-color:#78A9EF"/>
	</linearGradient>
	<path id="sweater" style="fill:url(#sweater_1_);" d="M608.721,396.293c0,0-7.383-2.207-14.832-15.306l-13.099,14.897
		c4.416,6.972,8.117,14.372,11.044,22.089c4.88,12.842,7.192,21.575,1.027,29.024c-3.66,4.363-5.9,9.74-6.421,15.411
		c0,0,15.411,27.226,58.818,10.017l-2.312-11.815l4.623,7.705c0,0,10.788-5.137,13.099-21.575
		c-5.615-3.486-9.803-8.859-11.815-15.154c-3.339-10.531-13.446-26.363-25.746-26.599
		C623.108,404.987,613.279,404.921,608.721,396.293z"/>
	
		<linearGradient id="neck_1_" gradientUnits="userSpaceOnUse" x1="315.3698" y1="286.3586" x2="306.0901" y2="302.83" gradientTransform="matrix(-0.9809 0.1943 -0.1943 -0.9809 979.6611 625.899)">
		<stop  offset="0" style="stop-color:#FFBEB6"/>
		<stop  offset="1" style="stop-color:#F2A19C"/>
	</linearGradient>
	<path id="neck" style="fill:url(#neck_1_);" d="M624.137,405.484c0,0-2.526-9.122-4.101-12.056
		c-0.981-0.064-1.954-0.226-2.902-0.483c-1.886-0.341-3.725-0.901-5.482-1.668c-0.615,0.911-2.059,4.137-2.931,5.017
		C608.721,396.293,613.924,408.949,624.137,405.484z"/>
	<path id="face" style="fill:#FFBEB5;" d="M601.655,376.773c1.173,1.493,1.814,0.986,1.932,2.073
		c0.084,0.802-0.661,5.041,1.844,8.441l0.078,0.089c0.011,0.014,0.02,0.028,0.029,0.044c0.012,0.017,0.021,0.035,0.028,0.054
		c0.939,1.294,2.233,2.288,3.725,2.861c0.005,0.006,0.012,0.01,0.02,0.012c2.41,1.282,5,2.192,7.683,2.699
		c0.95,0.26,1.923,0.421,2.906,0.483c1.348-2.986,1.701-4.134,3.26-4.579c3.263-0.92,1.076-0.292,2.971-0.784l0.193-0.065
		c0.31-0.141,0.61-0.303,0.897-0.485c0.074-0.041,0.144-0.089,0.208-0.144c1.426-1.145,2.482-3.372,1.066-5.151
		c-1.822-2.298-3.525-1.58-5.255-2.205c-1.454-0.534,3.974-8.672,0.26-15.756c-0.028-0.054-5.57-0.302-5.597-0.366
		c-0.596-1.109-2.665-3.72-4.441-0.427c-0.303,0.563-0.617,0.641-2.965,3.225c-1.755,1.931-6.047,6.007-7.705,6.639
		c-1.156,0.37-1.794,1.607-1.424,2.764C601.436,376.399,601.532,376.595,601.655,376.773z"/>
	<path id="hair" style="fill:#E94A47;" d="M654.038,405.319c-9.131-3.781-10.943-15.984-11.834-25.102
		c0.019-0.199,0.034-0.314,0.034-0.314c0.38-9.375-14.965-19.382-20.02-20.062c-3.389-0.54-6.861,0.056-9.877,1.693
		c0,0,1.393,4.307,4.561,5.194c1.628,0.478,3.36,0.468,4.982-0.028c-2.744,11.273-11.063,21.663-7.58,33.711
		c0.062,0.198,0.273,0.308,0.47,0.246c0.188-0.059,0.299-0.254,0.253-0.445c-1.941-6.714-0.139-12.917,2.287-19.047
		c-2.65,10.008-1.57,18.058-0.665,19.642c0.749,1.104,1.963,1.805,3.294,1.9c-1.393-5.827-0.127-17.229-0.127-17.229
		c-0.38,14.949,3.294,19.509,3.294,19.509c23.943,9.248,27.49,2.407,27.49,2.407c-6.124-7.02-7.932-15.314-8.385-20.943
		c1.265,8.08,3.989,16.429,11.626,19.592C654.284,406.227,654.478,405.502,654.038,405.319z"/>
	<path id="lips" style="fill:#1C2868;" d="M607.964,381.087c-0.989,1.487-2.995,1.891-4.482,0.902
		c-0.538-0.358-0.957-0.869-1.202-1.467c-0.19-0.454,0.484-0.835,0.676-0.375c0.467,1.277,1.88,1.933,3.157,1.467
		c0.481-0.176,0.896-0.498,1.186-0.921C607.585,380.289,608.252,380.68,607.964,381.087L607.964,381.087z"/>
</g>
<g id="woman">
	
		<linearGradient id="R_shoe-2_1_" gradientUnits="userSpaceOnUse" x1="817.8173" y1="129.8636" x2="753.2572" y2="129.8636" gradientTransform="matrix(1 0 0 -1 0 722)">
		<stop  offset="0" style="stop-color:#23286B"/>
		<stop  offset="0.4316" style="stop-color:#1D225F"/>
		<stop  offset="1" style="stop-color:#151A4F"/>
	</linearGradient>
	<path id="R_shoe-2" style="fill:url(#R_shoe-2_1_);" d="M830.838,578.568l9.728,27.135l-68.674,0.002c0,0,3.521-6.792,15.26-11.823
		s22.695-15.315,22.695-15.315H830.838"/>
	<path id="L_shoe-2" style="fill:#23286B;" d="M768.502,578.582l9.728,27.135l-68.674,0.002c0,0,3.521-6.792,15.26-11.823
		s22.695-15.315,22.695-15.315H768.502"/>
	
		<linearGradient id="R_trousers-2_1_" gradientUnits="userSpaceOnUse" x1="844.8197" y1="260.2445" x2="755.5904" y2="204.8997" gradientTransform="matrix(1 0 0 -1 0 722)">
		<stop  offset="0.1291" style="stop-color:#428DFC"/>
		<stop  offset="0.9987" style="stop-color:#1D72D8"/>
	</linearGradient>
	<path id="R_trousers-2" style="fill:url(#R_trousers-2_1_);" d="M830.84,578.57h-20.99c0,0-42.24-74.06-45.33-90.45
		c-2.45-13.02-2.93-28.14-2.32-41.99l0.35-41.49c17.25,3.1,29.8,3.37,38.88,2.34c0.4,11.98,0.14,26.06-3.27,37.06
		c-9.83,31.69,7.31,35.5,12.98,46.65c5.71,11.15,6.65,16.12,8.68,26.82c2.31,12.19,9.19,15.88,11.77,28.1
		C835.08,562.2,830.84,578.57,830.84,578.57z"/>
	<path id="L_trousers-2" style="fill:#428DFC;" d="M804.14,425.56c-9.49,35.08-10.23,30.16-8.77,54.77
		c1.47,24.62-3.28,16.32-4.74,42.16c-1.46,25.85-2.42,39.78-22.13,56.09h-20.99c0,0-2.82-67.26-2.39-89.54
		c0.39-19.91,3.8-53.31,5.55-67.44c3.7-9.09,5.16-4.26,10.04-8.38c2.649-2.134,4.828-4.793,6.4-7.81
		c18.23,2.89,30.79,2.47,39.39,0.78C806.681,412.728,805.886,419.257,804.14,425.56z"/>
	<path id="texture-2" style="opacity:0.86;fill:#FFFFFF;enable-background:new    ;" d="M787.101,412.573
		c-0.091-0.036-0.195,0.009-0.231,0.1c0,0,0,0,0,0c-0.04,0.086-0.002,0.187,0.083,0.227c0.002,0.001,0.004,0.002,0.005,0.002
		c0.091,0.036,0.195-0.009,0.231-0.1c0,0,0,0,0,0C787.225,412.714,787.186,412.614,787.101,412.573z M783.158,410.956
		c-0.091-0.036-0.195,0.009-0.231,0.101c-0.036,0.091,0.009,0.195,0.101,0.231c0.091,0.036,0.195-0.009,0.231-0.101
		C783.292,411.095,783.248,410.994,783.158,410.956z M779.227,409.34c-0.091-0.038-0.195,0.005-0.233,0.096
		c-0.038,0.091,0.005,0.195,0.096,0.233c0.002,0.001,0.004,0.002,0.006,0.003c0.085,0.034,0.182-0.008,0.216-0.093
		c0.001-0.003,0.002-0.006,0.003-0.009c0.042-0.079,0.012-0.178-0.068-0.22C779.242,409.345,779.235,409.342,779.227,409.34
		L779.227,409.34z M775.284,407.722c-0.094-0.03-0.194,0.022-0.224,0.116c-0.027,0.085,0.013,0.177,0.094,0.215
		c0.092,0.034,0.195-0.013,0.229-0.105C775.416,407.859,775.373,407.759,775.284,407.722z M774.564,425.374
		c-0.038-0.088-0.14-0.129-0.228-0.092c-0.088,0.038-0.13,0.14-0.092,0.228c0.038,0.088,0.14,0.129,0.228,0.092c0,0,0,0,0,0
		C774.56,425.564,774.601,425.462,774.564,425.374C774.564,425.374,774.564,425.374,774.564,425.374L774.564,425.374z
		 M772.927,421.45c-0.03-0.085-0.124-0.13-0.21-0.1c-0.006,0.002-0.012,0.005-0.018,0.008c-0.091,0.035-0.137,0.135-0.104,0.226
		c0.044,0.089,0.148,0.129,0.24,0.093C772.923,421.64,772.965,421.538,772.927,421.45C772.927,421.45,772.927,421.45,772.927,421.45
		L772.927,421.45z M771.29,417.526c-0.041-0.091-0.144-0.136-0.238-0.105c-0.089,0.044-0.129,0.148-0.093,0.24
		c0.038,0.088,0.14,0.13,0.228,0.092c0,0,0,0,0,0C771.277,417.718,771.323,417.617,771.29,417.526L771.29,417.526z M769.643,413.589
		c-0.038-0.088-0.14-0.129-0.228-0.092c0,0,0,0,0,0c-0.09,0.043-0.13,0.148-0.093,0.24c0.038,0.088,0.14,0.129,0.228,0.092
		c0,0,0,0,0,0C769.639,413.786,769.68,413.681,769.643,413.589L769.643,413.589z M756.554,425.326
		c-0.089-0.032-0.186,0.014-0.219,0.102c-0.042,0.079-0.012,0.178,0.068,0.22c0.007,0.004,0.014,0.007,0.021,0.009
		c0.091,0.038,0.195-0.005,0.233-0.096c0.038-0.091-0.005-0.195-0.096-0.233C756.559,425.327,756.556,425.327,756.554,425.326z
		 M780.588,418.476c-0.067-0.066-0.175-0.065-0.241,0.003c-0.066,0.067-0.065,0.175,0.003,0.241
		c0.067,0.066,0.175,0.065,0.241-0.003c0,0,0,0,0,0c0.066-0.061,0.07-0.163,0.01-0.229
		C780.597,418.484,780.593,418.48,780.588,418.476L780.588,418.476z M777.572,415.469c-0.068-0.065-0.175-0.064-0.241,0.003
		c-0.026,0.028-0.044,0.063-0.05,0.101c-0.009,0.056,0.01,0.113,0.051,0.152c0.008,0.01,0.021,0.017,0.034,0.017l0.012,0.002
		c0.062,0.041,0.144,0.033,0.196-0.021c0.07-0.067,0.072-0.177,0.005-0.246C777.577,415.474,777.574,415.471,777.572,415.469
		L777.572,415.469z M774.554,412.474c-0.067-0.066-0.175-0.065-0.241,0.003c-0.066,0.067-0.065,0.175,0.003,0.241l0,0
		c0.064,0.068,0.171,0.072,0.24,0.009c0.07-0.066,0.072-0.177,0.006-0.246C774.559,412.479,774.557,412.477,774.554,412.474
		L774.554,412.474z M771.538,409.468c-0.068-0.065-0.175-0.064-0.241,0.003c-0.07,0.066-0.072,0.177-0.006,0.246
		c0.002,0.002,0.004,0.005,0.007,0.007c0.061,0.066,0.163,0.07,0.229,0.01c0.004-0.004,0.008-0.008,0.012-0.012
		c0.07-0.068,0.071-0.179,0.003-0.249C771.541,409.471,771.54,409.469,771.538,409.468L771.538,409.468z M765.5,424.818
		c-0.1,0-0.181,0.08-0.181,0.18c0,0.1,0.08,0.181,0.18,0.181l0,0c0.1,0,0.181-0.08,0.181-0.18
		C765.68,424.899,765.6,424.818,765.5,424.818z M765.487,420.565c-0.099,0.002-0.178,0.081-0.181,0.18
		c-0.001,0.093,0.074,0.169,0.166,0.17c0.005,0,0.01,0,0.015,0c0.096,0.003,0.176-0.072,0.18-0.167c0,0,0,0,0,0
		C765.661,420.649,765.584,420.571,765.487,420.565z M797.621,426.192c-0.135-0.123-0.343-0.113-0.466,0.022
		c-0.003,0.003-0.005,0.006-0.008,0.009c-0.119,0.135-0.105,0.342,0.03,0.46c0.001,0.001,0.001,0.001,0.002,0.002
		c0.135,0.123,0.343,0.113,0.466-0.022c0.003-0.003,0.005-0.006,0.008-0.009c0.119-0.135,0.105-0.341-0.03-0.46
		C797.622,426.193,797.621,426.193,797.621,426.192z M791.526,420.893c-0.135-0.119-0.342-0.105-0.46,0.03
		c-0.001,0.001-0.001,0.001-0.002,0.002c-0.123,0.139-0.11,0.351,0.029,0.474c0.139,0.123,0.351,0.11,0.474-0.029
		c0.001-0.001,0.001-0.001,0.002-0.002C791.683,421.224,791.665,421.015,791.526,420.893z M785.441,415.607
		c-0.139-0.122-0.352-0.109-0.474,0.031s-0.109,0.352,0.031,0.474s0.352,0.109,0.474-0.031l0,0c0.123-0.135,0.113-0.343-0.022-0.466
		C785.447,415.612,785.444,415.609,785.441,415.607z M779.357,410.321c-0.135-0.123-0.343-0.113-0.466,0.022
		c-0.003,0.003-0.005,0.006-0.008,0.009c-0.076,0.081-0.105,0.195-0.078,0.302l0.012,0.002c0.013,0.066,0.047,0.125,0.097,0.17
		c0.031,0.029,0.071,0.047,0.113,0.052c0.168,0.066,0.359-0.016,0.425-0.185C779.503,410.561,779.465,410.411,779.357,410.321
		L779.357,410.321z M773.089,446.557c-0.184,0.013-0.323,0.17-0.314,0.354c0.009,0.177,0.16,0.313,0.337,0.304
		c0.006,0,0.012-0.001,0.018-0.001c0.184-0.013,0.323-0.17,0.314-0.354C773.43,446.678,773.271,446.543,773.089,446.557
		C773.089,446.557,773.089,446.557,773.089,446.557z M772.517,438.506c-0.182,0.015-0.317,0.174-0.302,0.355c0,0,0,0,0,0
		c0.011,0.184,0.17,0.325,0.354,0.314c0.184-0.011,0.325-0.17,0.314-0.354l0,0C772.862,438.637,772.703,438.5,772.517,438.506
		L772.517,438.506z M771.957,430.456c-0.184,0.021-0.322,0.18-0.316,0.366c0.009,0.177,0.16,0.313,0.337,0.304
		c0.006,0,0.012-0.001,0.018-0.001c0.181-0.008,0.322-0.161,0.315-0.342c0-0.004,0-0.008-0.001-0.012
		C772.299,430.586,772.141,430.447,771.957,430.456z M771.384,422.417c-0.182,0.015-0.317,0.174-0.302,0.355c0,0,0,0,0,0.001
		c0.012,0.184,0.172,0.324,0.356,0.311c0.184-0.012,0.324-0.172,0.311-0.356c-0.013-0.184-0.172-0.324-0.356-0.311
		C771.39,422.416,771.387,422.416,771.384,422.417z M770.824,414.367c-0.185,0.018-0.32,0.182-0.302,0.367
		c0.017,0.18,0.174,0.313,0.354,0.303c0.177-0.009,0.313-0.16,0.304-0.337c0-0.006-0.001-0.012-0.001-0.018
		C771.166,414.497,771.008,414.357,770.824,414.367z M801.128,412.335c-0.174-0.059-0.364,0.033-0.426,0.206
		c-0.061,0.174,0.031,0.365,0.206,0.426c0.174,0.061,0.365-0.031,0.426-0.206C801.395,412.586,801.303,412.395,801.128,412.335z
		 M793.473,409.782c-0.166-0.06-0.349,0.026-0.409,0.193c-0.002,0.005-0.003,0.01-0.005,0.015c-0.063,0.17,0.023,0.358,0.193,0.421
		c0.17,0.063,0.358-0.023,0.421-0.193c0.003-0.007,0.005-0.015,0.007-0.022c0.06-0.166-0.026-0.349-0.193-0.409
		C793.483,409.785,793.478,409.783,793.473,409.782L793.473,409.782z M785.831,407.219c-0.172-0.061-0.361,0.029-0.422,0.202
		c-0.002,0.005-0.004,0.011-0.005,0.016c-0.058,0.17,0.034,0.355,0.204,0.413c0.001,0,0.002,0.001,0.004,0.001
		c0.172,0.062,0.362-0.028,0.424-0.2c0.001-0.002,0.001-0.004,0.002-0.006C786.096,407.47,786.005,407.281,785.831,407.219
		L785.831,407.219z M788.929,438.525c-0.079-0.17-0.281-0.243-0.451-0.164c-0.17,0.079-0.243,0.281-0.164,0.451
		c0.079,0.17,0.281,0.243,0.451,0.164c0.002-0.001,0.004-0.002,0.006-0.003C788.936,438.891,789.006,438.693,788.929,438.525
		L788.929,438.525z M785.328,431.307c-0.079-0.17-0.281-0.243-0.451-0.164s-0.244,0.281-0.164,0.451s0.281,0.243,0.451,0.164
		c0.002-0.001,0.004-0.002,0.006-0.003C785.335,431.673,785.405,431.474,785.328,431.307L785.328,431.307z M781.726,424.089
		c-0.091-0.163-0.292-0.228-0.461-0.148c-0.166,0.087-0.229,0.292-0.142,0.458c0.084,0.16,0.279,0.226,0.443,0.15
		C781.732,424.461,781.802,424.26,781.726,424.089L781.726,424.089z M778.111,416.881c-0.077-0.166-0.273-0.238-0.439-0.162
		c-0.166,0.077-0.239,0.273-0.162,0.439c0.002,0.005,0.004,0.009,0.007,0.014c0.08,0.163,0.277,0.231,0.44,0.151
		c0.003-0.001,0.006-0.003,0.009-0.005c0.158-0.073,0.227-0.26,0.154-0.419C778.118,416.893,778.115,416.887,778.111,416.881
		L778.111,416.881z M774.51,409.662c-0.085-0.162-0.285-0.224-0.447-0.14c-0.156,0.082-0.22,0.271-0.147,0.431
		c0.083,0.164,0.28,0.234,0.448,0.158c0.164-0.081,0.231-0.28,0.149-0.444C774.512,409.666,774.511,409.664,774.51,409.662
		L774.51,409.662z M757.956,440.778c-0.167-0.059-0.349,0.028-0.408,0.195c-0.003,0.008-0.005,0.016-0.008,0.025
		c-0.058,0.17,0.034,0.355,0.204,0.413c0.001,0,0.002,0.001,0.004,0.001c0.174,0.059,0.364-0.033,0.426-0.206
		C758.223,441.028,758.128,440.843,757.956,440.778L757.956,440.778z M760.519,433.136c-0.172-0.062-0.362,0.028-0.424,0.2
		c-0.001,0.002-0.001,0.004-0.002,0.006c-0.059,0.174,0.033,0.364,0.206,0.426c0.177,0.049,0.363-0.046,0.428-0.218
		c0.058-0.17-0.034-0.355-0.204-0.413C760.522,433.137,760.521,433.137,760.519,433.136L760.519,433.136z M763.072,425.481
		c-0.174-0.059-0.364,0.033-0.426,0.206c-0.061,0.172,0.029,0.361,0.202,0.422c0.005,0.002,0.011,0.004,0.016,0.005
		c0.166,0.06,0.349-0.026,0.409-0.193c0.002-0.005,0.003-0.01,0.005-0.015C763.337,425.733,763.245,425.543,763.072,425.481
		L763.072,425.481z M765.625,417.826c-0.175-0.052-0.36,0.046-0.416,0.219c-0.06,0.166,0.026,0.349,0.193,0.409
		c0.005,0.002,0.01,0.003,0.015,0.005c0.174,0.059,0.364-0.033,0.426-0.206C765.897,418.076,765.8,417.887,765.625,417.826
		L765.625,417.826z M805.955,408.523c-0.036,0.033-0.063,0.075-0.077,0.122c-0.014,0.079,0.005,0.16,0.053,0.224
		C805.936,408.749,805.94,408.629,805.955,408.523L805.955,408.523z M795.845,434.846c-0.086-0.139-0.269-0.182-0.408-0.095
		c-0.139,0.086-0.182,0.269-0.095,0.408c0.001,0.001,0.001,0.002,0.002,0.003c0.088,0.138,0.271,0.178,0.409,0.09
		C795.889,435.165,795.93,434.984,795.845,434.846z M792.029,428.742c-0.087-0.138-0.27-0.18-0.409-0.093
		c-0.138,0.087-0.18,0.27-0.093,0.409c0.087,0.138,0.27,0.18,0.409,0.093l0,0c0.137-0.082,0.182-0.26,0.1-0.398
		C792.034,428.749,792.032,428.746,792.029,428.742L792.029,428.742z M788.215,422.626c-0.023-0.052-0.065-0.092-0.117-0.112
		l-0.012-0.002c-0.091-0.04-0.196-0.032-0.28,0.021c-0.142,0.089-0.185,0.276-0.096,0.418c0.001,0.001,0.001,0.002,0.002,0.003
		c0.088,0.137,0.27,0.178,0.409,0.093c0.065-0.038,0.109-0.102,0.121-0.176C788.275,422.79,788.265,422.698,788.215,422.626
		L788.215,422.626z M784.399,416.522c-0.088-0.137-0.27-0.179-0.409-0.093c-0.141,0.088-0.184,0.274-0.096,0.415
		c0.087,0.139,0.27,0.183,0.41,0.099c0.142-0.089,0.185-0.276,0.096-0.418C784.4,416.524,784.4,416.523,784.399,416.522
		L784.399,416.522z M780.595,410.42c-0.093-0.138-0.277-0.179-0.42-0.094c-0.139,0.09-0.179,0.277-0.089,0.416
		c0.087,0.134,0.264,0.177,0.403,0.097C780.629,410.749,780.676,410.566,780.595,410.42L780.595,410.42z M765.776,439.704
		c-0.16-0.037-0.319,0.063-0.355,0.222c0,0.002-0.001,0.004-0.001,0.005c-0.041,0.153,0.05,0.311,0.203,0.352
		c0.004,0.001,0.008,0.002,0.012,0.003c0.163,0.034,0.325-0.065,0.369-0.226C766.033,439.901,765.934,439.746,765.776,439.704
		L765.776,439.704z M767.397,432.691c-0.16-0.037-0.319,0.063-0.355,0.222c0,0.002-0.001,0.004-0.001,0.005
		c-0.041,0.153,0.05,0.311,0.203,0.352c0.004,0.001,0.008,0.002,0.012,0.003c0.157,0.037,0.316-0.059,0.355-0.216
		C767.65,432.898,767.556,432.736,767.397,432.691L767.397,432.691z M769.018,425.678c-0.16-0.037-0.319,0.063-0.356,0.222
		c0,0.002-0.001,0.004-0.001,0.005c-0.044,0.148,0.04,0.304,0.189,0.348c0.009,0.003,0.018,0.005,0.027,0.007
		c0.159,0.037,0.319-0.063,0.355-0.222c0-0.002,0.001-0.004,0.001-0.005C769.268,425.876,769.173,425.72,769.018,425.678
		L769.018,425.678z M770.627,418.663c-0.16-0.029-0.316,0.07-0.357,0.228c-0.035,0.162,0.067,0.322,0.229,0.357
		c0.157,0.034,0.313-0.061,0.354-0.216C770.887,418.868,770.788,418.706,770.627,418.663L770.627,418.663z M772.26,411.651
		c-0.163-0.034-0.325,0.065-0.369,0.226c-0.036,0.161,0.066,0.321,0.228,0.357c0.161,0.036,0.321-0.066,0.357-0.228
		C772.505,411.85,772.412,411.697,772.26,411.651L772.26,411.651z M798.7,417.61c-0.132-0.096-0.318-0.067-0.414,0.066
		c-0.002,0.003-0.004,0.006-0.006,0.009c-0.096,0.123-0.073,0.3,0.049,0.396c0.005,0.004,0.01,0.007,0.015,0.011
		c0.128,0.099,0.311,0.076,0.41-0.052c0.003-0.004,0.005-0.007,0.008-0.011C798.857,417.895,798.829,417.711,798.7,417.61z
		 M792.836,413.427c-0.138-0.089-0.321-0.056-0.42,0.074c-0.095,0.137-0.062,0.324,0.074,0.42c0.14,0.09,0.327,0.05,0.417-0.089
		C792.994,413.699,792.962,413.522,792.836,413.427L792.836,413.427z M786.971,409.255c-0.132-0.098-0.319-0.071-0.417,0.061
		c0,0-0.001,0.001-0.001,0.001c-0.089,0.138-0.056,0.321,0.074,0.42c0.137,0.095,0.324,0.061,0.42-0.074
		c0.093-0.128,0.064-0.307-0.064-0.399C786.979,409.261,786.975,409.258,786.971,409.255L786.971,409.255z M781.089,436.525
		c-0.16,0.036-0.266,0.189-0.241,0.352c0.028,0.16,0.18,0.267,0.34,0.24c0.162-0.026,0.274-0.176,0.252-0.339
		C781.411,436.613,781.255,436.5,781.089,436.525z M779.904,429.424c-0.16,0.036-0.266,0.189-0.241,0.352
		c0.028,0.16,0.18,0.267,0.34,0.24c0.156-0.022,0.265-0.166,0.243-0.323c-0.001-0.006-0.002-0.012-0.003-0.018
		C780.217,429.514,780.066,429.402,779.904,429.424L779.904,429.424z M778.717,422.336c-0.156,0.022-0.265,0.166-0.243,0.323
		c0.001,0.006,0.002,0.012,0.003,0.018c0.028,0.16,0.18,0.267,0.34,0.24c0.16-0.028,0.267-0.18,0.24-0.34
		c-0.022-0.156-0.166-0.265-0.322-0.243C778.729,422.333,778.723,422.334,778.717,422.336L778.717,422.336z M777.532,415.235
		c-0.162,0.026-0.274,0.176-0.252,0.339c0.012,0.063,0.041,0.122,0.085,0.168l0.012,0.002c0.068,0.064,0.164,0.09,0.255,0.071
		c0.16-0.027,0.268-0.179,0.241-0.339c-0.027-0.16-0.179-0.268-0.339-0.241C777.534,415.235,777.533,415.235,777.532,415.235z
		 M776.347,408.134c-0.053,0.006-0.102,0.029-0.141,0.065c-0.014,0.063-0.052,0.118-0.106,0.154c-0.007,0.039-0.009,0.08-0.005,0.12
		c0.026,0.162,0.176,0.274,0.339,0.252c0.165-0.029,0.278-0.184,0.253-0.35C776.66,408.214,776.507,408.107,776.347,408.134
		L776.347,408.134z M754.426,430.607c-0.134-0.094-0.318-0.067-0.418,0.063c-0.096,0.132-0.067,0.318,0.066,0.414
		c0.003,0.002,0.006,0.004,0.009,0.006c0.123,0.096,0.3,0.073,0.395-0.049c0.004-0.005,0.007-0.01,0.011-0.015
		c0.099-0.127,0.076-0.311-0.052-0.41C754.434,430.612,754.43,430.61,754.426,430.607L754.426,430.607z M758.598,424.742
		c-0.14-0.091-0.327-0.051-0.417,0.089c-0.086,0.133-0.055,0.31,0.072,0.405c0.137,0.093,0.323,0.06,0.42-0.074
		c0.097-0.13,0.07-0.313-0.06-0.41C758.608,424.748,758.603,424.745,758.598,424.742L758.598,424.742z M771.147,407.162
		c-0.138-0.089-0.321-0.056-0.42,0.074c-0.095,0.137-0.061,0.324,0.074,0.42c0.14,0.09,0.327,0.05,0.417-0.089
		C771.305,407.434,771.273,407.257,771.147,407.162z M795.293,417.163c-0.066-0.072-0.179-0.077-0.251-0.011
		s-0.077,0.179-0.011,0.251c0.066,0.072,0.179,0.077,0.251,0.011v0C795.352,417.347,795.357,417.237,795.293,417.163
		L795.293,417.163z M792.398,414.065c-0.066-0.072-0.179-0.077-0.251-0.011s-0.077,0.179-0.011,0.251
		c0.066,0.072,0.179,0.077,0.251,0.011c0,0,0,0,0,0C792.457,414.249,792.462,414.138,792.398,414.065L792.398,414.065z
		 M789.493,410.953c-0.064-0.068-0.171-0.072-0.24-0.009c-0.072,0.055-0.086,0.158-0.03,0.23c0.006,0.008,0.013,0.015,0.02,0.021
		c0.064,0.068,0.171,0.072,0.24,0.009c0.072-0.056,0.085-0.16,0.028-0.232C789.506,410.966,789.5,410.959,789.493,410.953
		L789.493,410.953z M786.598,407.855c-0.068-0.068-0.177-0.073-0.251-0.011c-0.07,0.068-0.071,0.179-0.004,0.248
		c0.002,0.002,0.003,0.003,0.005,0.005c0.064,0.068,0.171,0.072,0.24,0.009C786.657,408.039,786.662,407.928,786.598,407.855
		L786.598,407.855z M778.428,423.379c-0.096-0.003-0.177,0.072-0.18,0.168s0.072,0.176,0.168,0.18
		c0.096,0.003,0.177-0.072,0.18-0.168l0,0C778.599,423.463,778.524,423.383,778.428,423.379L778.428,423.379L778.428,423.379z
		 M778.57,419.136c-0.092-0.007-0.172,0.062-0.179,0.154c0,0.004,0,0.009,0,0.013c-0.003,0.096,0.072,0.176,0.168,0.18c0,0,0,0,0,0
		c0.098,0.005,0.182-0.068,0.192-0.166c0.002-0.099-0.077-0.18-0.175-0.181C778.573,419.136,778.571,419.136,778.57,419.136
		L778.57,419.136z M778.724,414.894c-0.092-0.007-0.172,0.062-0.179,0.154c0,0.004,0,0.009,0,0.013
		c-0.003,0.096,0.072,0.176,0.168,0.18c0.096,0.003,0.176-0.072,0.18-0.168C778.895,414.978,778.82,414.897,778.724,414.894z
		 M778.865,410.65c-0.016-0.004-0.034-0.002-0.049,0.005l-0.012-0.002c-0.069,0.026-0.115,0.091-0.119,0.164
		c-0.003,0.096,0.072,0.176,0.168,0.18c0,0,0,0,0,0c0.077-0.002,0.145-0.049,0.173-0.121l0.007-0.047
		c0.007-0.092-0.062-0.172-0.154-0.179C778.874,410.651,778.87,410.65,778.865,410.65L778.865,410.65z M771.593,407.332
		c-0.064-0.068-0.171-0.072-0.24-0.009c-0.069,0.068-0.074,0.178-0.011,0.251c0.068,0.068,0.177,0.073,0.251,0.011
		c0.07-0.068,0.071-0.179,0.004-0.248C771.596,407.335,771.595,407.333,771.593,407.332L771.593,407.332z M798.633,408.521
		c-0.086-0.04-0.187-0.002-0.227,0.083c-0.001,0.002-0.002,0.004-0.002,0.006c-0.038,0.091,0,0.195,0.087,0.241
		c0.088,0.035,0.188-0.004,0.229-0.089C798.758,408.671,798.721,408.566,798.633,408.521L798.633,408.521z M786.942,419.813
		c-0.028-0.088-0.122-0.137-0.211-0.109c-0.005,0.002-0.01,0.004-0.016,0.006c-0.09,0.03-0.138,0.128-0.107,0.217
		c0.001,0.003,0.002,0.006,0.003,0.009c0.039,0.086,0.136,0.131,0.227,0.104C786.929,420.005,786.976,419.904,786.942,419.813
		L786.942,419.813z M785.447,415.825c-0.033-0.087-0.131-0.13-0.217-0.096c-0.004,0.001-0.007,0.003-0.011,0.005
		c-0.089,0.036-0.135,0.135-0.104,0.227c0.039,0.086,0.136,0.131,0.227,0.104c0.093-0.032,0.142-0.134,0.11-0.227
		C785.45,415.832,785.449,415.828,785.447,415.825L785.447,415.825z M783.962,411.85c-0.039-0.086-0.136-0.131-0.227-0.104
		c-0.091,0.035-0.137,0.135-0.104,0.226c0.028,0.088,0.122,0.137,0.211,0.109c0.005-0.002,0.011-0.004,0.016-0.006
		c0.09-0.03,0.137-0.128,0.107-0.217C783.964,411.856,783.963,411.853,783.962,411.85L783.962,411.85z M782.477,407.875
		c-0.039-0.086-0.136-0.131-0.227-0.104c-0.091,0.035-0.137,0.135-0.104,0.226c0.028,0.088,0.122,0.137,0.211,0.109
		c0.005-0.002,0.011-0.004,0.016-0.006C782.464,408.067,782.51,407.966,782.477,407.875z M770.601,419.285
		c-0.079-0.042-0.178-0.012-0.22,0.068c-0.004,0.007-0.007,0.014-0.009,0.021c-0.039,0.088,0.001,0.19,0.089,0.229
		c0.088,0.039,0.19-0.001,0.229-0.089C770.729,419.427,770.689,419.324,770.601,419.285z M772.364,415.423
		c-0.079-0.042-0.178-0.012-0.22,0.068c-0.004,0.007-0.007,0.014-0.009,0.021c-0.042,0.084-0.008,0.185,0.076,0.227
		c0,0,0.001,0,0.001,0.001c0.091,0.041,0.198,0.003,0.241-0.087c0.04-0.086,0.002-0.187-0.083-0.227
		C772.368,415.424,772.366,415.424,772.364,415.423L772.364,415.423z M774.127,411.56c-0.087-0.042-0.192-0.009-0.239,0.075
		c-0.043,0.09-0.005,0.198,0.085,0.242c0.09,0.043,0.198,0.005,0.242-0.085c0-0.001,0.001-0.002,0.001-0.003
		C774.251,411.701,774.212,411.602,774.127,411.56L774.127,411.56z M775.963,407.78l0.002-0.012
		c-0.018-0.037-0.048-0.066-0.085-0.084c-0.088-0.035-0.188,0.004-0.229,0.089c-0.016,0.029-0.021,0.062-0.013,0.095
		c0.007,0.062,0.044,0.117,0.1,0.146c0.086,0.04,0.187,0.002,0.227-0.083c0.001-0.002,0.002-0.004,0.003-0.006
		C775.995,407.88,775.994,407.823,775.963,407.78L775.963,407.78z M798.375,421.347c-0.055-0.091-0.173-0.119-0.263-0.065
		c-0.002,0.001-0.003,0.002-0.005,0.003c-0.094,0.054-0.125,0.174-0.071,0.267c0.003,0.004,0.005,0.009,0.008,0.013
		c0.055,0.091,0.173,0.119,0.263,0.065c0.002-0.001,0.003-0.002,0.005-0.003C798.406,421.566,798.434,421.442,798.375,421.347
		L798.375,421.347z M795.761,417.264c-0.055-0.091-0.173-0.119-0.263-0.064c-0.002,0.001-0.003,0.002-0.005,0.003
		c-0.094,0.061-0.121,0.187-0.061,0.281c0.06,0.093,0.184,0.121,0.278,0.062c0.091-0.058,0.118-0.178,0.06-0.269
		C795.767,417.272,795.764,417.268,795.761,417.264L795.761,417.264z M793.159,413.183c-0.06-0.095-0.185-0.124-0.28-0.064
		s-0.124,0.185-0.064,0.28c0,0.001,0.001,0.001,0.001,0.002c-0.002,0.012,0.01,0.013,0.02,0.027c0.068,0.07,0.175,0.084,0.26,0.036
		C793.189,413.402,793.217,413.278,793.159,413.183L793.159,413.183z M790.545,409.1l-0.041-0.054
		c-0.012-0.002-0.022-0.015-0.046-0.018c-0.061-0.033-0.136-0.03-0.194,0.009c-0.095,0.06-0.123,0.186-0.063,0.28
		c0.06,0.095,0.186,0.123,0.28,0.063C790.577,409.32,790.605,409.194,790.545,409.1L790.545,409.1z M778.167,424.836
		c-0.108-0.014-0.21,0.054-0.239,0.16c-0.024,0.106,0.042,0.212,0.148,0.237c0.099,0.03,0.202-0.026,0.232-0.125
		c0.002-0.007,0.004-0.015,0.005-0.023c0.029-0.109-0.036-0.22-0.145-0.249C778.167,424.837,778.167,424.837,778.167,424.836
		L778.167,424.836z M779.207,420.103c-0.108-0.014-0.21,0.054-0.239,0.16c-0.024,0.106,0.042,0.212,0.148,0.237
		c0.109,0.029,0.22-0.036,0.249-0.145c0-0.001,0-0.001,0-0.001C779.384,420.242,779.316,420.134,779.207,420.103L779.207,420.103z
		 M780.247,415.37c-0.108-0.014-0.21,0.054-0.239,0.16c-0.024,0.106,0.042,0.212,0.148,0.237c0.1,0.029,0.204-0.029,0.233-0.13
		c0.003-0.01,0.005-0.02,0.006-0.03C780.419,415.501,780.353,415.395,780.247,415.37L780.247,415.37z M781.288,410.637
		c-0.109-0.019-0.214,0.051-0.239,0.16c-0.024,0.106,0.042,0.212,0.148,0.237c0.1,0.029,0.204-0.029,0.233-0.129
		c0.003-0.01,0.005-0.02,0.006-0.03C781.46,410.768,781.394,410.662,781.288,410.637L781.288,410.637z M803.789,412.426
		c-0.088-0.066-0.213-0.048-0.279,0.04c-0.001,0.002-0.003,0.004-0.004,0.005c-0.06,0.092-0.04,0.214,0.045,0.283
		c0.091,0.064,0.216,0.042,0.279-0.049c0.002-0.003,0.004-0.005,0.005-0.008C803.897,412.609,803.876,412.488,803.789,412.426
		L803.789,412.426z M799.814,409.648c-0.091-0.064-0.216-0.044-0.283,0.045c-0.064,0.091-0.042,0.216,0.049,0.279
		c0.003,0.002,0.005,0.004,0.008,0.006c0.088,0.061,0.209,0.041,0.271-0.047C799.923,409.84,799.903,409.715,799.814,409.648
		L799.814,409.648z M788.328,422.678c-0.016-0.107-0.116-0.181-0.223-0.165c-0.002,0-0.005,0.001-0.007,0.001l-0.012-0.002
		c-0.103,0.026-0.17,0.127-0.153,0.232c0.016,0.107,0.116,0.181,0.223,0.165c0.002,0,0.005-0.001,0.007-0.001
		c0.028-0.008,0.054-0.021,0.077-0.037C788.309,422.832,788.343,422.754,788.328,422.678L788.328,422.678z M787.242,417.735
		c-0.109,0.027-0.18,0.131-0.166,0.242c0.029,0.107,0.135,0.174,0.244,0.154c0.105-0.021,0.174-0.124,0.153-0.229
		c0-0.001,0-0.002-0.001-0.003C787.454,417.791,787.351,417.717,787.242,417.735L787.242,417.735z M786.396,412.969
		c-0.109,0.018-0.183,0.121-0.164,0.23c0.018,0.109,0.121,0.183,0.23,0.164c0.109-0.018,0.183-0.121,0.164-0.23c0,0,0,0,0,0
		c-0.016-0.107-0.116-0.181-0.224-0.165C786.401,412.968,786.398,412.969,786.396,412.969L786.396,412.969z M785.539,408.202
		c-0.106,0.021-0.174,0.124-0.153,0.229c0,0.001,0,0.002,0.001,0.003c0.015,0.102,0.11,0.172,0.212,0.157
		c0.007-0.001,0.013-0.002,0.02-0.004c0.109-0.019,0.182-0.121,0.164-0.23c-0.024-0.11-0.133-0.179-0.242-0.154
		C785.54,408.202,785.539,408.202,785.539,408.202L785.539,408.202z M770.091,418.709c-0.086-0.06-0.205-0.039-0.266,0.047
		c-0.003,0.004-0.005,0.008-0.007,0.011c-0.061,0.088-0.041,0.209,0.047,0.271c0.088,0.066,0.213,0.048,0.279-0.04
		c0.001-0.002,0.003-0.004,0.004-0.006C770.21,418.899,770.184,418.773,770.091,418.709L770.091,418.709z M772.869,414.734
		c-0.095-0.062-0.221-0.037-0.285,0.057c-0.06,0.086-0.039,0.205,0.047,0.266c0.004,0.003,0.008,0.005,0.012,0.007
		c0.081,0.063,0.198,0.049,0.261-0.033c0.004-0.005,0.007-0.009,0.01-0.014C772.98,414.927,772.96,414.8,772.869,414.734
		C772.869,414.734,772.869,414.734,772.869,414.734L772.869,414.734z M775.647,410.759c-0.091-0.064-0.216-0.042-0.279,0.049
		c-0.002,0.003-0.004,0.006-0.006,0.008c-0.062,0.091-0.039,0.216,0.052,0.278s0.216,0.039,0.278-0.052
		C775.752,410.95,775.733,410.828,775.647,410.759L775.647,410.759z M805.461,409.743c-0.155-0.109-0.368-0.074-0.48,0.078
		c-0.111,0.156-0.074,0.373,0.082,0.484c0.151,0.108,0.361,0.077,0.475-0.07C805.646,410.077,805.613,409.861,805.461,409.743
		L805.461,409.743z M795.504,442.615c-0.189,0.029-0.32,0.203-0.295,0.393c0.031,0.187,0.207,0.313,0.394,0.283
		c0.187-0.031,0.317-0.204,0.295-0.393C795.867,442.711,795.691,442.585,795.504,442.615L795.504,442.615z M794.208,434.403
		c-0.187,0.031-0.314,0.207-0.283,0.394c0.031,0.187,0.207,0.314,0.394,0.283c0.187-0.031,0.314-0.207,0.283-0.394
		C794.571,434.499,794.395,434.373,794.208,434.403L794.208,434.403z M792.924,426.193c-0.187,0.023-0.32,0.194-0.297,0.381
		s0.194,0.32,0.381,0.297c0.005-0.001,0.01-0.001,0.015-0.002c0.189-0.029,0.32-0.203,0.295-0.393
		C793.287,426.289,793.111,426.163,792.924,426.193L792.924,426.193z M791.628,417.98c-0.185,0.028-0.313,0.202-0.285,0.387
		c0,0.002,0.001,0.005,0.001,0.007c0.03,0.187,0.206,0.315,0.393,0.285c0.187-0.03,0.315-0.206,0.285-0.393c0-0.001,0-0.002,0-0.003
		c-0.028-0.185-0.202-0.313-0.387-0.285C791.633,417.98,791.63,417.98,791.628,417.98z M790.344,409.77
		c-0.186,0.03-0.314,0.204-0.284,0.391c0.029,0.183,0.199,0.31,0.383,0.285c0.189-0.029,0.32-0.203,0.295-0.393
		C790.706,409.867,790.53,409.74,790.344,409.77z M761.745,434.462c-0.156-0.111-0.373-0.074-0.484,0.083
		c-0.107,0.151-0.077,0.36,0.07,0.474c0.158,0.109,0.374,0.076,0.492-0.076C761.93,434.787,761.895,434.576,761.745,434.462z
		 M766.636,427.745c-0.154-0.112-0.369-0.078-0.481,0.076c-0.112,0.154-0.078,0.369,0.076,0.481
		c0.001,0.001,0.002,0.001,0.003,0.002c0.154,0.112,0.369,0.078,0.481-0.076c0.112-0.154,0.078-0.369-0.076-0.481
		C766.638,427.746,766.637,427.745,766.636,427.745z M771.528,421.027c-0.147-0.114-0.359-0.088-0.473,0.059
		c-0.002,0.002-0.004,0.005-0.005,0.007c-0.109,0.158-0.076,0.374,0.076,0.492c0.155,0.109,0.368,0.074,0.48-0.078
		c0.112-0.15,0.081-0.362-0.068-0.474C771.535,421.032,771.531,421.03,771.528,421.027z M776.42,414.31
		c-0.147-0.114-0.359-0.088-0.473,0.059c-0.002,0.002-0.004,0.005-0.005,0.007c-0.107,0.159-0.074,0.373,0.076,0.492
		c0.155,0.109,0.368,0.074,0.48-0.078c0.113-0.142,0.089-0.35-0.053-0.463C776.437,414.322,776.429,414.316,776.42,414.31
		L776.42,414.31z M781.325,407.583c-0.155-0.109-0.368-0.074-0.48,0.078c-0.111,0.156-0.074,0.373,0.082,0.484
		c0.151,0.107,0.36,0.077,0.475-0.07C781.511,407.917,781.477,407.701,781.325,407.583L781.325,407.583z M802.229,419.002
		c-0.1-0.164-0.314-0.215-0.478-0.114s-0.215,0.314-0.114,0.478c0.1,0.164,0.314,0.215,0.478,0.114
		C802.275,419.378,802.326,419.166,802.229,419.002z M797.899,411.912c-0.098-0.163-0.309-0.216-0.472-0.118
		c-0.002,0.001-0.004,0.002-0.006,0.004c-0.161,0.103-0.211,0.314-0.114,0.478c0.105,0.161,0.32,0.207,0.481,0.102
		C797.943,412.277,797.992,412.072,797.899,411.912L797.899,411.912z M779.3,438.228c-0.181-0.043-0.364,0.068-0.407,0.25
		c-0.001,0.002-0.001,0.004-0.002,0.007c-0.046,0.182,0.062,0.368,0.243,0.419c0.185,0.036,0.367-0.074,0.421-0.255
		C779.601,438.463,779.487,438.274,779.3,438.228C779.3,438.228,779.3,438.228,779.3,438.228z M781.248,430.152
		c-0.176-0.047-0.357,0.058-0.404,0.235c-0.002,0.007-0.004,0.014-0.005,0.022c-0.045,0.18,0.064,0.362,0.244,0.407c0,0,0,0,0,0
		c0.186,0.046,0.375-0.068,0.42-0.254c0,0,0-0.001,0-0.001c0.047-0.176-0.058-0.357-0.235-0.404
		C781.263,430.155,781.256,430.154,781.248,430.152L781.248,430.152z M783.199,422.065c-0.188-0.039-0.372,0.081-0.411,0.269
		c-0.038,0.183,0.075,0.364,0.257,0.409c0.181,0.043,0.364-0.068,0.407-0.25c0.001-0.002,0.001-0.004,0.002-0.007
		C783.499,422.299,783.386,422.111,783.199,422.065C783.199,422.065,783.199,422.065,783.199,422.065L783.199,422.065z
		 M785.147,413.989c-0.184-0.041-0.366,0.074-0.409,0.257c-0.042,0.184,0.073,0.368,0.257,0.41c0.18,0.041,0.36-0.067,0.407-0.246
		C785.448,414.223,785.334,414.035,785.147,413.989C785.148,413.989,785.148,413.989,785.147,413.989L785.147,413.989z
		 M774.933,406.867c-0.1-0.164-0.314-0.215-0.478-0.114c-0.164,0.1-0.215,0.314-0.114,0.478c0.098,0.159,0.306,0.21,0.466,0.113
		c0.166-0.095,0.223-0.307,0.128-0.473C774.934,406.869,774.934,406.868,774.933,406.867L774.933,406.867z M804.882,413.577
		c-0.098-0.153-0.301-0.197-0.454-0.1c-0.005,0.003-0.01,0.007-0.016,0.011c-0.157,0.107-0.202,0.318-0.102,0.48
		c0.114,0.149,0.321,0.188,0.481,0.091c0.157-0.105,0.2-0.318,0.095-0.475C804.885,413.581,804.884,413.579,804.882,413.577
		L804.882,413.577z M784.324,440.911c-0.187-0.039-0.371,0.081-0.41,0.268s0.081,0.371,0.268,0.41
		c0.187,0.039,0.37-0.081,0.41-0.268C784.631,441.134,784.511,440.95,784.324,440.911
		C784.324,440.911,784.324,440.911,784.324,440.911L784.324,440.911z M785.93,432.787c-0.19-0.029-0.37,0.093-0.412,0.28
		c-0.029,0.183,0.089,0.358,0.27,0.399c0.187,0.039,0.371-0.081,0.41-0.268C786.232,433.011,786.114,432.831,785.93,432.787
		L785.93,432.787z M787.522,424.674c-0.185-0.036-0.363,0.084-0.4,0.268c-0.036,0.184,0.084,0.363,0.268,0.4
		c0.001,0,0.002,0,0.003,0c0.187,0.039,0.371-0.081,0.41-0.268C787.832,424.887,787.708,424.711,787.522,424.674L787.522,424.674z
		 M789.128,416.551c-0.182-0.037-0.36,0.08-0.397,0.262c-0.001,0.003-0.001,0.005-0.002,0.008c-0.034,0.184,0.086,0.362,0.27,0.399
		c0.178,0.04,0.354-0.071,0.395-0.249c0.002-0.007,0.003-0.014,0.004-0.021c0.037-0.182-0.08-0.36-0.262-0.397
		C789.134,416.552,789.131,416.551,789.128,416.551L789.128,416.551z M790.734,408.427c-0.182-0.037-0.36,0.08-0.397,0.262
		c-0.001,0.003-0.001,0.005-0.002,0.008c-0.028,0.125,0.02,0.254,0.123,0.33c0.024,0.003,0.034,0.017,0.046,0.018
		c0.028,0.027,0.063,0.044,0.102,0.05c0.185,0.036,0.363-0.084,0.4-0.268c0.036-0.184-0.084-0.363-0.268-0.4
		C790.736,408.428,790.735,408.428,790.734,408.427z M769.286,412.516c-0.098-0.153-0.301-0.197-0.454-0.1
		c-0.005,0.003-0.01,0.007-0.016,0.011c-0.156,0.102-0.201,0.311-0.101,0.468c0.107,0.157,0.318,0.202,0.48,0.102
		c0.157-0.105,0.2-0.318,0.095-0.475C769.289,412.52,769.287,412.518,769.286,412.516L769.286,412.516z M776.162,407.904
		c-0.045-0.069-0.118-0.114-0.2-0.124l0.002-0.012c-0.093-0.022-0.191-0.005-0.271,0.047c-0.024,0.011-0.043,0.029-0.055,0.053
		c-0.134,0.131-0.136,0.345-0.005,0.479c0.117,0.12,0.304,0.136,0.44,0.039c0.013-0.01,0.027-0.02,0.029-0.032
		c0.054-0.036,0.091-0.091,0.106-0.154C776.239,408.099,776.223,407.99,776.162,407.904L776.162,407.904z M799.784,428.31
		c-0.187,0.039-0.308,0.22-0.273,0.408c0.042,0.185,0.224,0.301,0.409,0.261c0.184-0.033,0.306-0.209,0.272-0.393
		c0-0.001,0-0.002-0.001-0.003C800.151,428.398,799.971,428.278,799.784,428.31z M798.163,420.186
		c-0.185,0.041-0.305,0.221-0.273,0.408c0.035,0.185,0.214,0.307,0.399,0.271c0.185-0.035,0.307-0.214,0.271-0.399
		c0-0.003-0.001-0.005-0.002-0.008c-0.033-0.184-0.209-0.305-0.393-0.272C798.165,420.185,798.164,420.185,798.163,420.186
		L798.163,420.186z M796.528,412.071c-0.187,0.039-0.308,0.22-0.273,0.408c0.043,0.187,0.229,0.304,0.416,0.261
		c0.179-0.041,0.296-0.215,0.265-0.396C796.897,412.158,796.716,412.036,796.528,412.071L796.528,412.071z M770.529,430.596
		c-0.153-0.103-0.361-0.062-0.464,0.091c-0.003,0.004-0.005,0.008-0.008,0.013c-0.104,0.155-0.063,0.366,0.091,0.47
		c0.158,0.107,0.373,0.067,0.482-0.09c0.106-0.157,0.065-0.371-0.092-0.478C770.535,430.6,770.532,430.598,770.529,430.596
		L770.529,430.596z M775.12,423.704c-0.153-0.103-0.361-0.062-0.464,0.091c-0.003,0.004-0.005,0.008-0.008,0.013
		c-0.104,0.155-0.063,0.366,0.091,0.47c0.158,0.107,0.373,0.067,0.482-0.09c0.106-0.157,0.065-0.371-0.092-0.478
		C775.126,423.708,775.123,423.706,775.12,423.704L775.12,423.704z M779.71,416.813c-0.159-0.1-0.369-0.054-0.472,0.103
		c-0.104,0.155-0.063,0.365,0.091,0.47c0.158,0.107,0.373,0.067,0.482-0.09c0.106-0.157,0.065-0.371-0.092-0.478
		C779.717,416.817,779.714,416.815,779.71,416.813z M784.301,409.922c-0.16-0.094-0.366-0.049-0.472,0.103
		c-0.104,0.155-0.063,0.366,0.091,0.47c0.159,0.105,0.372,0.065,0.482-0.09c0.106-0.16,0.062-0.376-0.098-0.481
		C784.303,409.923,784.302,409.922,784.301,409.922z M803.725,409.756c-0.051-0.13-0.197-0.194-0.327-0.143
		c-0.001,0-0.002,0.001-0.003,0.001c-0.136,0.049-0.207,0.2-0.157,0.336c0.049,0.136,0.2,0.207,0.336,0.157
		c0.136-0.049,0.207-0.2,0.157-0.336C803.729,409.766,803.727,409.761,803.725,409.756z M784.28,426.694
		c-0.122-0.062-0.271-0.013-0.333,0.109c-0.004,0.008-0.008,0.016-0.011,0.024c-0.057,0.131,0.003,0.284,0.134,0.341
		c0.131,0.057,0.284-0.003,0.341-0.134C784.468,426.904,784.409,426.752,784.28,426.694z M786.737,420.953
		c-0.128-0.059-0.28-0.004-0.34,0.125c-0.001,0.003-0.003,0.006-0.004,0.008c-0.058,0.132,0.001,0.285,0.133,0.344
		c0.132,0.058,0.285-0.001,0.344-0.133C786.928,421.165,786.868,421.011,786.737,420.953L786.737,420.953z M789.193,415.211
		c-0.132-0.058-0.285,0.001-0.344,0.133s0.002,0.285,0.133,0.344c0.132,0.058,0.285-0.001,0.344-0.133l0,0
		C789.382,415.423,789.323,415.271,789.193,415.211L789.193,415.211z M791.65,409.469c-0.135-0.053-0.288,0.011-0.345,0.145
		c-0.052,0.132,0.013,0.28,0.144,0.332c0.001,0,0.002,0.001,0.002,0.001c0.126,0.056,0.273-0.001,0.328-0.127
		c0.001-0.003,0.002-0.005,0.003-0.008c0.059-0.128,0.003-0.281-0.125-0.34C791.655,409.472,791.652,409.47,791.65,409.469
		L791.65,409.469z M797.399,426.137c-0.142-0.004-0.26,0.108-0.264,0.25c0,0.001,0,0.002,0,0.003
		c0.004,0.14,0.113,0.254,0.253,0.264c0.142,0.001,0.259-0.111,0.264-0.253c0.008-0.137-0.097-0.255-0.234-0.263
		C797.412,426.137,797.406,426.137,797.399,426.137L797.399,426.137z M797.468,419.897c-0.137-0.002-0.25,0.108-0.252,0.245
		c0,0.003,0,0.006,0,0.009c-0.004,0.142,0.108,0.26,0.25,0.264c0.001,0,0.002,0,0.002,0c0.144-0.005,0.26-0.12,0.265-0.264
		c-0.002-0.142-0.12-0.256-0.262-0.254C797.471,419.897,797.47,419.897,797.468,419.897L797.468,419.897z M797.551,413.646
		c-0.144,0.005-0.26,0.12-0.265,0.264c-0.003,0.136,0.105,0.249,0.241,0.252c0.004,0,0.009,0,0.013,0
		c0.137,0.008,0.255-0.097,0.263-0.234c0-0.006,0.001-0.012,0-0.019c0.004-0.142-0.108-0.26-0.25-0.264
		C797.552,413.646,797.551,413.646,797.551,413.646L797.551,413.646z M797.62,407.405c-0.139,0-0.252,0.114-0.252,0.253
		c0,0,0,0.001,0,0.001c-0.008,0.137,0.096,0.255,0.234,0.263c0.006,0,0.013,0,0.019,0c0.142,0.004,0.26-0.108,0.264-0.25
		c0-0.001,0-0.002,0-0.002C797.879,407.527,797.763,407.411,797.62,407.405L797.62,407.405z M775.543,416.995
		c-0.092-0.103-0.249-0.112-0.352-0.02c-0.002,0.002-0.005,0.004-0.007,0.007c-0.104,0.094-0.112,0.255-0.018,0.358
		c0.005,0.005,0.009,0.01,0.014,0.014c0.098,0.101,0.26,0.103,0.361,0.005c0.101-0.098,0.103-0.26,0.005-0.361
		C775.544,416.997,775.544,416.996,775.543,416.995z M780.013,412.628c-0.105-0.097-0.266-0.099-0.373-0.003
		c-0.1,0.106-0.096,0.273,0.01,0.373c0.1,0.095,0.258,0.097,0.36,0.003C780.107,412.896,780.108,412.734,780.013,412.628
		L780.013,412.628z M784.481,408.272c-0.095-0.104-0.256-0.111-0.36-0.016c-0.004,0.004-0.009,0.008-0.013,0.012
		c-0.097,0.101-0.097,0.259-0.002,0.361c0.102,0.1,0.266,0.099,0.366-0.003C784.569,408.529,784.573,408.374,784.481,408.272z
		 M799.109,412.477c-0.077-0.017-0.154,0.031-0.171,0.108c-0.017,0.077,0.031,0.154,0.108,0.171
		c0.004,0.001,0.008,0.002,0.012,0.002c0.078,0.01,0.15-0.044,0.161-0.122C799.23,412.563,799.182,412.493,799.109,412.477
		L799.109,412.477z M799.695,409.114c-0.075-0.013-0.147,0.036-0.16,0.111c-0.001,0.004-0.001,0.007-0.002,0.011
		c-0.018,0.068,0.023,0.138,0.091,0.156c0.006,0.002,0.013,0.003,0.019,0.003c0.073,0.015,0.145-0.033,0.159-0.107
		c0-0.001,0-0.003,0.001-0.004C799.815,409.209,799.769,409.136,799.695,409.114L799.695,409.114z M805.35,407.15
		c-0.075,0.017-0.122,0.091-0.107,0.166c0.023,0.076,0.099,0.123,0.178,0.109c0.075-0.017,0.122-0.091,0.107-0.166
		C805.503,407.184,805.428,407.138,805.35,407.15L805.35,407.15z M793.334,408.354c-0.063-0.039-0.146-0.02-0.185,0.043
		c-0.001,0.001-0.002,0.003-0.002,0.004c-0.043,0.067-0.023,0.156,0.044,0.198c0,0,0,0,0.001,0c0.064,0.039,0.148,0.018,0.187-0.046
		C793.421,408.485,793.401,408.397,793.334,408.354C793.334,408.354,793.334,408.354,793.334,408.354L793.334,408.354z
		 M795.155,417.818c-0.1-0.067-0.236-0.039-0.302,0.061c-0.003,0.005-0.007,0.011-0.01,0.016c-0.069,0.095-0.049,0.228,0.046,0.298
		c0.006,0.005,0.013,0.009,0.019,0.013c0.107,0.071,0.251,0.043,0.322-0.064c0,0,0,0,0,0c0.07-0.104,0.042-0.245-0.062-0.315
		C795.164,417.824,795.159,417.821,795.155,417.818L795.155,417.818z M798.165,413.033c-0.11-0.067-0.255-0.034-0.324,0.076
		c-0.07,0.104-0.042,0.245,0.062,0.315c0.004,0.003,0.009,0.006,0.014,0.008c0.1,0.067,0.236,0.039,0.302-0.061
		c0.003-0.005,0.007-0.011,0.01-0.016c0.072-0.102,0.049-0.243-0.053-0.315C798.173,413.037,798.169,413.035,798.165,413.033
		L798.165,413.033z M801.163,408.257c-0.11-0.067-0.255-0.034-0.324,0.076c-0.069,0.107-0.039,0.25,0.068,0.319
		c0.003,0.002,0.005,0.003,0.008,0.005c0.111,0.066,0.256,0.03,0.322-0.081C801.302,408.466,801.269,408.326,801.163,408.257
		L801.163,408.257z M788.895,407.884c-0.079-0.101-0.225-0.118-0.326-0.039c-0.096,0.075-0.117,0.212-0.049,0.313
		c0.07,0.106,0.214,0.135,0.32,0.064c0.003-0.002,0.006-0.004,0.01-0.007C788.95,408.134,788.97,407.988,788.895,407.884
		L788.895,407.884z"/>
	<path id="texture-3" style="opacity:0.86;fill:#FFFFFF;enable-background:new    ;" d="M509.264,146.845
		c-0.184,0.013-0.323,0.17-0.314,0.354c0.009,0.177,0.16,0.313,0.337,0.304c0.006,0,0.012-0.001,0.018-0.001
		c0.184-0.013,0.323-0.17,0.314-0.354C509.605,146.966,509.446,146.831,509.264,146.845
		C509.265,146.845,509.265,146.845,509.264,146.845z M508.693,138.794c-0.182,0.015-0.317,0.174-0.302,0.355c0,0,0,0,0,0
		c0.01,0.184,0.168,0.326,0.353,0.315c0.184-0.01,0.326-0.168,0.315-0.353c0-0.001,0-0.002,0-0.003
		C509.037,138.925,508.878,138.788,508.693,138.794L508.693,138.794z M525.104,138.813c-0.079-0.17-0.281-0.244-0.451-0.164
		c-0.17,0.079-0.244,0.281-0.164,0.451s0.281,0.244,0.451,0.164c0.002-0.001,0.004-0.002,0.006-0.003
		C525.111,139.179,525.182,138.981,525.104,138.813L525.104,138.813z M494.132,141.066c-0.167-0.059-0.349,0.028-0.408,0.195
		c-0.003,0.008-0.005,0.016-0.008,0.025c-0.058,0.17,0.034,0.355,0.204,0.413c0.001,0,0.002,0.001,0.004,0.001
		c0.174,0.059,0.364-0.033,0.426-0.206C494.398,141.316,494.304,141.131,494.132,141.066L494.132,141.066z M501.951,139.993
		c-0.16-0.037-0.319,0.063-0.355,0.222c0,0.002-0.001,0.004-0.001,0.005c-0.041,0.153,0.05,0.311,0.203,0.352
		c0.004,0.001,0.008,0.002,0.012,0.003c0.163,0.034,0.325-0.065,0.368-0.226C502.208,140.189,502.109,140.033,501.951,139.993
		L501.951,139.993z M531.68,142.903c-0.189,0.029-0.32,0.203-0.295,0.393c0.031,0.187,0.207,0.313,0.394,0.283
		c0.187-0.031,0.317-0.204,0.295-0.393C532.043,142.999,531.867,142.873,531.68,142.903L531.68,142.903z M515.475,138.516
		c-0.181-0.043-0.364,0.068-0.407,0.25c-0.001,0.002-0.001,0.004-0.002,0.007c-0.046,0.182,0.062,0.368,0.243,0.419
		c0.185,0.036,0.367-0.074,0.421-0.255C515.776,138.751,515.662,138.562,515.475,138.516
		C515.475,138.516,515.475,138.516,515.475,138.516z M520.499,141.199c-0.187-0.039-0.371,0.081-0.41,0.268
		c-0.039,0.187,0.081,0.371,0.268,0.41c0.187,0.039,0.37-0.081,0.41-0.268C520.807,141.422,520.687,141.238,520.499,141.199
		C520.499,141.199,520.499,141.199,520.499,141.199L520.499,141.199z"/>
	<path id="texture-4" style="opacity:0.86;fill:#FFFFFF;enable-background:new    ;" d="M537.24,148.787
		c-0.038-0.088-0.14-0.129-0.228-0.092c-0.088,0.038-0.13,0.14-0.092,0.228s0.14,0.129,0.228,0.092v0
		C537.236,148.977,537.278,148.875,537.24,148.787C537.24,148.787,537.24,148.787,537.24,148.787z M535.603,144.863
		c-0.03-0.085-0.124-0.13-0.21-0.1c-0.006,0.002-0.012,0.005-0.018,0.008c-0.091,0.035-0.137,0.135-0.104,0.226
		c0.044,0.089,0.148,0.129,0.24,0.093C535.6,145.054,535.641,144.951,535.603,144.863
		C535.603,144.863,535.603,144.863,535.603,144.863L535.603,144.863z M533.966,140.939c-0.041-0.091-0.144-0.136-0.238-0.105
		c-0.089,0.044-0.129,0.148-0.093,0.24c0.038,0.088,0.14,0.129,0.228,0.092c0,0,0,0,0,0C533.953,141.131,534,141.03,533.966,140.939
		z M519.23,148.739c-0.089-0.032-0.186,0.014-0.219,0.102c-0.042,0.079-0.012,0.178,0.068,0.22c0.007,0.004,0.014,0.007,0.021,0.009
		c0.091,0.038,0.195-0.005,0.233-0.096c0.038-0.091-0.005-0.195-0.096-0.233C519.235,148.74,519.233,148.74,519.23,148.739
		L519.23,148.739z M540.248,138.882c-0.068-0.065-0.175-0.064-0.241,0.003c-0.026,0.028-0.044,0.063-0.05,0.101
		c-0.009,0.056,0.01,0.113,0.051,0.152c0.008,0.01,0.021,0.017,0.034,0.017l0.012,0.002c0.062,0.041,0.144,0.033,0.196-0.021
		c0.07-0.067,0.072-0.177,0.005-0.246C540.253,138.887,540.251,138.884,540.248,138.882z M528.176,148.231
		c-0.1,0-0.181,0.08-0.181,0.18c0,0.1,0.08,0.181,0.18,0.181l0,0c0.1,0,0.181-0.08,0.181-0.18
		C528.357,148.312,528.276,148.231,528.176,148.231z M528.163,143.978c-0.099,0.002-0.178,0.081-0.181,0.18
		c-0.001,0.093,0.074,0.169,0.166,0.17c0.005,0,0.01,0,0.015,0c0.096,0.003,0.176-0.072,0.18-0.167c0,0,0,0,0,0
		C528.337,144.062,528.26,143.984,528.163,143.978z M535.765,169.97c-0.184,0.013-0.323,0.17-0.314,0.354
		c0.009,0.177,0.16,0.313,0.338,0.304c0.006,0,0.012-0.001,0.018-0.001c0.184-0.013,0.323-0.17,0.314-0.354
		C536.106,170.091,535.947,169.956,535.765,169.97C535.766,169.97,535.765,169.97,535.765,169.97L535.765,169.97z M535.194,161.919
		c-0.182,0.015-0.317,0.174-0.302,0.355c0,0,0,0,0,0c0.011,0.184,0.17,0.325,0.354,0.314c0.184-0.011,0.325-0.17,0.314-0.354l0,0
		C535.538,162.05,535.379,161.913,535.194,161.919L535.194,161.919z M534.634,153.869c-0.184,0.021-0.322,0.18-0.316,0.366
		c0.009,0.177,0.16,0.313,0.338,0.304c0.006,0,0.012-0.001,0.018-0.001c0.181-0.008,0.322-0.161,0.315-0.342
		c0-0.004,0-0.008-0.001-0.012C534.975,154,534.818,153.86,534.634,153.869L534.634,153.869z M534.06,145.83
		c-0.182,0.015-0.317,0.174-0.302,0.355c0,0,0,0,0,0.001c0.012,0.184,0.172,0.324,0.356,0.311c0.184-0.012,0.324-0.172,0.311-0.356
		c-0.013-0.184-0.172-0.324-0.356-0.311C534.066,145.829,534.063,145.829,534.06,145.83z M533.552,138.449l7.235,1.844
		c-0.077-0.166-0.273-0.238-0.439-0.162c-0.166,0.077-0.238,0.273-0.162,0.439c0.002,0.005,0.004,0.009,0.007,0.014
		c0.08,0.163,0.277,0.231,0.44,0.151c0.003-0.001,0.006-0.003,0.009-0.005c0.158-0.073,0.227-0.26,0.154-0.419
		c-0.003-0.006-0.006-0.013-0.01-0.019L533.552,138.449z M520.633,164.191c-0.167-0.059-0.349,0.028-0.408,0.195
		c-0.003,0.008-0.005,0.016-0.008,0.025c-0.058,0.17,0.034,0.355,0.204,0.413c0.001,0,0.002,0.001,0.004,0.001
		c0.174,0.059,0.364-0.033,0.426-0.206C520.899,164.441,520.805,164.256,520.633,164.191z M523.195,156.549
		c-0.172-0.062-0.362,0.028-0.424,0.2c-0.001,0.002-0.001,0.004-0.002,0.006c-0.059,0.174,0.033,0.364,0.206,0.426
		c0.177,0.049,0.363-0.046,0.428-0.218c0.058-0.17-0.034-0.355-0.204-0.413C523.198,156.55,523.197,156.55,523.195,156.549
		L523.195,156.549z M525.748,148.894c-0.174-0.059-0.364,0.033-0.426,0.206c-0.061,0.172,0.029,0.361,0.202,0.422
		c0.005,0.002,0.011,0.004,0.016,0.005c0.166,0.06,0.349-0.026,0.409-0.193c0.002-0.005,0.003-0.01,0.005-0.015
		C526.013,149.146,525.922,148.956,525.748,148.894L525.748,148.894z M528.301,141.239c-0.175-0.052-0.36,0.046-0.416,0.219
		c-0.06,0.166,0.026,0.349,0.193,0.409c0.005,0.002,0.01,0.003,0.015,0.005c0.174,0.059,0.364-0.033,0.426-0.206
		C528.573,141.489,528.477,141.3,528.301,141.239z M528.452,163.118c-0.16-0.037-0.319,0.063-0.355,0.222
		c0,0.002-0.001,0.004-0.001,0.005c-0.041,0.153,0.05,0.311,0.203,0.352c0.004,0.001,0.008,0.002,0.012,0.003
		c0.163,0.034,0.325-0.065,0.369-0.226C528.709,163.314,528.61,163.159,528.452,163.118L528.452,163.118z M530.073,156.104
		c-0.16-0.037-0.319,0.063-0.355,0.222c0,0.002-0.001,0.004-0.001,0.005c-0.041,0.153,0.05,0.311,0.203,0.352
		c0.004,0.001,0.008,0.002,0.012,0.003c0.157,0.037,0.316-0.059,0.355-0.216C530.327,156.311,530.232,156.149,530.073,156.104
		L530.073,156.104z M531.694,149.091c-0.16-0.037-0.319,0.063-0.356,0.222c0,0.002-0.001,0.004-0.001,0.005
		c-0.044,0.148,0.04,0.304,0.189,0.348c0.009,0.003,0.018,0.005,0.027,0.007c0.159,0.037,0.319-0.063,0.355-0.222
		c0-0.002,0.001-0.004,0.001-0.005C531.944,149.289,531.849,149.133,531.694,149.091L531.694,149.091z M533.303,142.076
		c-0.16-0.029-0.316,0.07-0.357,0.228c-0.035,0.162,0.067,0.322,0.229,0.357c0.157,0.034,0.313-0.061,0.354-0.216
		C533.564,142.281,533.464,142.119,533.303,142.076L533.303,142.076z M543.765,159.938c-0.16,0.036-0.266,0.189-0.241,0.352
		c0.028,0.16,0.18,0.267,0.34,0.24c0.162-0.026,0.274-0.176,0.252-0.339C544.087,160.026,543.931,159.913,543.765,159.938
		L543.765,159.938z M542.58,152.837c-0.16,0.036-0.266,0.189-0.241,0.352c0.028,0.16,0.18,0.267,0.34,0.24
		c0.156-0.022,0.265-0.166,0.243-0.323c-0.001-0.006-0.002-0.012-0.003-0.018C542.893,152.927,542.743,152.815,542.58,152.837
		L542.58,152.837z M541.393,145.749c-0.156,0.022-0.265,0.166-0.243,0.323c0.001,0.006,0.002,0.012,0.003,0.018
		c0.028,0.16,0.18,0.267,0.34,0.24c0.16-0.028,0.267-0.18,0.24-0.34c-0.022-0.156-0.166-0.265-0.323-0.243
		C541.405,145.746,541.399,145.747,541.393,145.749L541.393,145.749z M540.208,138.648c-0.162,0.026-0.274,0.176-0.252,0.339
		c0.012,0.063,0.041,0.122,0.085,0.168l0.012,0.002c0.068,0.064,0.164,0.09,0.255,0.071c0.16-0.029,0.267-0.181,0.238-0.341
		C540.519,138.728,540.368,138.621,540.208,138.648L540.208,138.648z M517.102,154.02c-0.134-0.094-0.318-0.067-0.418,0.063
		c-0.096,0.132-0.067,0.318,0.066,0.414c0.003,0.002,0.006,0.004,0.009,0.006c0.123,0.096,0.3,0.074,0.395-0.049
		c0.004-0.005,0.007-0.01,0.011-0.015c0.099-0.127,0.076-0.311-0.052-0.41C517.11,154.025,517.106,154.023,517.102,154.02
		L517.102,154.02z M521.274,148.155c-0.14-0.09-0.327-0.05-0.417,0.089c-0.086,0.133-0.055,0.309,0.072,0.405
		c0.137,0.093,0.323,0.06,0.42-0.074c0.097-0.13,0.07-0.313-0.06-0.41C521.284,148.161,521.279,148.158,521.274,148.155
		L521.274,148.155z M541.104,146.792c-0.096-0.003-0.177,0.072-0.18,0.168s0.072,0.176,0.168,0.18
		c0.096,0.003,0.177-0.072,0.18-0.168C541.276,146.876,541.201,146.796,541.104,146.792L541.104,146.792z M541.246,142.549
		c-0.092-0.007-0.172,0.062-0.179,0.154c0,0.004,0,0.009,0,0.013c-0.003,0.096,0.072,0.176,0.168,0.18c0,0,0,0,0,0
		c0.098,0.005,0.182-0.068,0.192-0.166c0.002-0.099-0.077-0.18-0.175-0.181C541.249,142.549,541.248,142.549,541.246,142.549
		L541.246,142.549z M533.277,142.698c-0.079-0.042-0.178-0.012-0.22,0.068c-0.004,0.007-0.007,0.014-0.009,0.021
		c-0.039,0.088,0.001,0.19,0.089,0.229c0.088,0.039,0.19-0.001,0.229-0.089C533.405,142.84,533.365,142.737,533.277,142.698z
		 M535.04,138.836c-0.079-0.042-0.178-0.012-0.22,0.068c-0.004,0.007-0.007,0.014-0.009,0.021c-0.042,0.084-0.008,0.185,0.076,0.227
		c0,0,0.001,0,0.001,0.001c0.091,0.041,0.198,0.003,0.241-0.087c0.04-0.086,0.002-0.187-0.083-0.227
		C535.044,138.838,535.042,138.837,535.04,138.836L535.04,138.836z M540.843,148.249c-0.108-0.014-0.21,0.054-0.239,0.16
		c-0.024,0.106,0.042,0.212,0.148,0.237c0.099,0.03,0.202-0.026,0.232-0.125c0.002-0.007,0.004-0.015,0.005-0.023
		c0.029-0.109-0.036-0.22-0.145-0.249C540.844,148.25,540.843,148.25,540.843,148.249L540.843,148.249z M541.883,143.516
		c-0.108-0.014-0.21,0.054-0.239,0.16c-0.024,0.106,0.042,0.212,0.148,0.237c0.109,0.029,0.22-0.036,0.249-0.145
		c0,0,0-0.001,0-0.001C542.06,143.655,541.992,143.547,541.883,143.516L541.883,143.516z M532.767,142.122
		c-0.086-0.06-0.205-0.039-0.266,0.047c-0.003,0.004-0.005,0.008-0.007,0.011c-0.061,0.088-0.041,0.209,0.047,0.271
		c0.088,0.066,0.213,0.048,0.279-0.04c0.001-0.002,0.003-0.004,0.004-0.006C532.886,142.312,532.861,142.186,532.767,142.122
		L532.767,142.122z M535.319,138.477c0.081,0.063,0.198,0.049,0.261-0.033c0.004-0.005,0.007-0.009,0.01-0.014 M524.421,157.875
		c-0.156-0.111-0.373-0.074-0.484,0.083c-0.107,0.151-0.077,0.36,0.07,0.474c0.158,0.109,0.374,0.076,0.492-0.076
		C524.606,158.2,524.571,157.989,524.421,157.875L524.421,157.875z M529.313,151.158c-0.154-0.111-0.369-0.076-0.48,0.078
		c-0.111,0.154-0.076,0.369,0.078,0.48s0.369,0.076,0.48-0.078C529.502,151.484,529.467,151.269,529.313,151.158z M534.204,144.441
		c-0.147-0.114-0.359-0.088-0.473,0.059c-0.002,0.002-0.004,0.005-0.005,0.007c-0.109,0.158-0.076,0.374,0.076,0.492
		c0.155,0.109,0.368,0.074,0.48-0.078c0.112-0.15,0.081-0.362-0.068-0.474C534.211,144.445,534.208,144.443,534.204,144.441
		L534.204,144.441z M541.976,161.641c-0.181-0.043-0.364,0.068-0.407,0.25c-0.001,0.002-0.001,0.004-0.002,0.007
		c-0.046,0.182,0.062,0.368,0.243,0.419c0.185,0.036,0.367-0.074,0.421-0.255C542.277,161.876,542.163,161.687,541.976,161.641
		C541.976,161.642,541.976,161.641,541.976,161.641L541.976,161.641z M543.924,153.565c-0.176-0.047-0.357,0.058-0.404,0.235
		c-0.002,0.007-0.004,0.014-0.005,0.022c-0.045,0.18,0.064,0.362,0.244,0.407c0,0,0,0,0,0c0.186,0.046,0.375-0.068,0.42-0.254
		c0,0,0-0.001,0-0.001c0.047-0.176-0.058-0.357-0.235-0.404C543.939,153.568,543.932,153.567,543.924,153.565L543.924,153.565z
		 M547,164.324c-0.187-0.039-0.371,0.081-0.41,0.268c-0.039,0.187,0.081,0.371,0.268,0.41c0.187,0.039,0.37-0.081,0.41-0.268
		C547.307,164.547,547.187,164.363,547,164.324C547,164.324,547,164.324,547,164.324L547,164.324z M533.205,154.009
		c-0.153-0.103-0.361-0.062-0.464,0.091c-0.003,0.004-0.005,0.008-0.008,0.013c-0.104,0.155-0.063,0.366,0.091,0.47
		c0.158,0.107,0.373,0.067,0.482-0.09c0.106-0.157,0.065-0.371-0.092-0.478C533.212,154.013,533.208,154.011,533.205,154.009
		L533.205,154.009z M537.796,147.117c-0.153-0.103-0.361-0.062-0.464,0.091c-0.003,0.004-0.005,0.008-0.008,0.013
		c-0.104,0.155-0.063,0.366,0.091,0.47c0.158,0.107,0.373,0.067,0.482-0.09c0.106-0.157,0.065-0.371-0.092-0.478
		C537.802,147.121,537.799,147.119,537.796,147.117L537.796,147.117z M538.219,140.408c-0.092-0.103-0.249-0.112-0.352-0.02
		c-0.002,0.002-0.005,0.004-0.007,0.007c-0.104,0.094-0.112,0.255-0.018,0.358c0.005,0.005,0.009,0.01,0.014,0.014
		c0.098,0.101,0.26,0.104,0.361,0.005c0.101-0.098,0.104-0.26,0.005-0.361C538.221,140.41,538.22,140.409,538.219,140.408
		L538.219,140.408z"/>
	
		<linearGradient id="R_sleeve_1_" gradientUnits="userSpaceOnUse" x1="711.9752" y1="372.7736" x2="759.1515" y2="301.3085" gradientTransform="matrix(1 0 0 -1 0 722)">
		<stop  offset="0" style="stop-color:#23286B"/>
		<stop  offset="0.4316" style="stop-color:#1D225F"/>
		<stop  offset="1" style="stop-color:#151A4F"/>
	</linearGradient>
	<path id="R_sleeve" style="fill:url(#R_sleeve_1_);" d="M719.048,320.91c0,0,0.526,7.892,1.873,28.586
		c1.062,16.321,2.826,21.889-6.733,32.213c-7.461,8.058-14.594,14.945-14.594,14.945l23.278,41.185c0,0,14.922-6.566,18.891-19.698
		c4.464-14.77,10.175-27.127,14.091-33.872c3.871-6.667,1.395-23.024,0.698-26.861c-4.466-24.565-7.675-25.466-25.949-46.205l0,0"/>
	
		<linearGradient id="sweater-2_1_" gradientUnits="userSpaceOnUse" x1="777.5011" y1="399.692" x2="762.282" y2="309.8998" gradientTransform="matrix(1 0 0 -1 0 722)">
		<stop  offset="0" style="stop-color:#23286B"/>
		<stop  offset="1" style="stop-color:#151A4F"/>
	</linearGradient>
	<path id="sweater-2" style="fill:url(#sweater-2_1_);" d="M730.602,311.202c12.227,1.61,23.984,5.753,34.519,12.163
		c17.811,10.741,18.172,17.848,28.207,24.408s36.821,18.018,30.983,48.926c0,0-8.723,18.893-67.999,6.752l-37.813-83.658
		C718.499,319.792,726.38,319.805,730.602,311.202z"/>
	
		<linearGradient id="R_hand-2_1_" gradientUnits="userSpaceOnUse" x1="718.1415" y1="285.3123" x2="692.3846" y2="234.6033" gradientTransform="matrix(1 0 0 -1 0 722)">
		<stop  offset="0" style="stop-color:#FFBEB6"/>
		<stop  offset="1" style="stop-color:#F2A19C"/>
	</linearGradient>
	<path id="R_hand-2" style="fill:url(#R_hand-2_1_);" d="M727.515,415.223c0,0-3.525,12.241-8.343,19.846s-5.755,7.513-10.562,6.824
		c-4.447-0.725-8.817-1.859-13.055-3.387c-1.889-0.767-4.177,1.047-0.704,4.224s10.075,1.131,9.585,4.648
		s-7.212,9.771-12.708,13.889s-8.351,6.531,1.648,9.182s18.736,1.833,28.401-16.647s21.007-26.138,26.61-29.991L727.515,415.223z"/>
	<path id="L_sleeve" style="fill:#23286B;" d="M718.684,320.179c0,0,12.618,22.003,15.842,38.038s2.826,21.889-6.733,32.213
		c-7.461,8.058-14.594,14.945-14.594,14.945l23.278,41.185c0,0,14.922-6.566,18.891-19.698c4.464-14.77,10.96-17.149,17.44-21.324
		s18.498-17.191,8.378-40.015s-23.378-38.68-52.961-56.711l0,0"/>
	
		<linearGradient id="neck-2_1_" gradientUnits="userSpaceOnUse" x1="735.4518" y1="385.8558" x2="722.348" y2="409.5544" gradientTransform="matrix(1 0 0 -1 0 722)">
		<stop  offset="0" style="stop-color:#FFBEB6"/>
		<stop  offset="1" style="stop-color:#F2A19C"/>
	</linearGradient>
	<path id="neck-2" style="fill:url(#neck-2_1_);" d="M711.853,308.811c2.886,3.722,5.302,7.786,7.195,12.099
		c0,0,7.038,1.213,10.89-10.083l-11.176-11.022L711.853,308.811"/>
	<path id="face-2" style="fill:#FFBEB6;" d="M693.854,284.123c-0.012,0.109-0.018,0.189-0.025,0.237
		c-0.007,0.015-0.009,0.032-0.008,0.048c-0.048,0.435-0.08,0.878-0.101,1.339c-0.227,4.955-3.49,9.035-3.376,10.385
		s2.825,2.045,4.097,2.063s3.306,6.179,8.734,9.401c5.094,3.023,12.288,2.013,16.849-1.012c1.031-10.651-0.997-15.473-11.535-19.371
		c-11.501-4.259-11.513-11.576-11.513-11.576C695.313,278.197,694.247,281.097,693.854,284.123z"/>
	<path id="hair-2" style="fill:#E94A47;" d="M743.922,286.401c-2.905-4.858-4.584-11.218-5.363-13.56
		c-1.065-3.201-8.689-12.666-20.896-11.413s-27.01,6.677-23.841,22.985c0.367-3.129,1.447-6.132,3.157-8.778
		c0,0,0.006,7.316,11.511,11.574c1.197,0.438,2.371,0.938,3.517,1.497c5.769,5.754,9.046,13.025,3.632,21.45
		c-0.315,0.491,0.464,0.95,0.778,0.462c5.044-7.849,2.886-14.791-1.923-20.496c5.937,3.949,6.51,9.418,5.18,19.535
		c0,0,18.724,2.416,34.144-9.579c-0.955-3.686-3.141-6.935-6.195-9.21c-1.076-0.876-2.017-1.906-2.793-3.056
		c4.741,3.058,9.902,5.773,10.014,11.912c0.007,0.25,0.215,0.447,0.465,0.44c0.238-0.007,0.43-0.196,0.44-0.434
		C755.618,292.61,749.05,289.983,743.922,286.401z"/>
	<path id="eyeglasses" style="fill:#3E8AF8;" d="M691.652,292.37c0.044-0.026,0.081-0.063,0.123-0.093
		c0.081-0.13,0.164-0.259,0.246-0.388c0.06-0.093,0.114-0.193,0.18-0.282c0.26-0.404,0.52-0.809,0.751-1.233
		c0.481-1.005,0.77-2.091,0.853-3.202c0.001-0.01,0.006-0.017,0.008-0.027c-0.002-0.009-0.002-0.018-0.004-0.027
		c-0.014-0.081-0.007-0.164,0.02-0.242c-0.007-0.074-0.008-0.148-0.017-0.222c1.285-0.503,2.654,0.23,3.723,0.93
		c-0.037,1.225,0.17,2.446,0.61,3.59c0.53,1.512,1.574,2.791,2.949,3.613c1.182,0.703,2.655,0.701,3.835-0.005
		c0.258-0.155,0.498-0.337,0.718-0.542c0.869-0.862,1.453-1.97,1.673-3.174c0.347-1.711,0.193-3.485-0.445-5.11
		c-1.334-3.427-4.377-5.046-6.785-3.608c-1.279,0.852-2.145,2.199-2.391,3.716c-0.039,0.182-0.048,0.371-0.075,0.557
		c-1.123-0.871-2.586-1.173-3.962-0.817c-0.083-0.358-0.191-0.71-0.323-1.052c-1.15-2.956-3.779-4.349-5.86-3.106l-0.001,0.001
		c-2.079,1.247-2.837,4.662-1.687,7.618C686.942,292.219,689.571,293.612,691.652,292.37z M698.427,286.228
		c0.181-1.008,0.667-1.936,1.391-2.659c0.177-0.166,0.37-0.312,0.578-0.436c2.029-1.213,4.627,0.238,5.793,3.235
		c0.569,1.441,0.709,3.016,0.404,4.535c-0.197,1.261-0.911,2.383-1.969,3.096c-0.983,0.578-2.204,0.572-3.18-0.018
		c-1.22-0.734-2.144-1.873-2.613-3.217C698.262,289.322,698.122,287.747,698.427,286.228z M686.478,288.853
		c-0.982-2.522-0.401-5.403,1.307-6.423c1.702-1.018,3.887,0.208,4.869,2.733c0.982,2.523,0.399,5.401-1.307,6.423
		C689.644,292.603,687.46,291.377,686.478,288.853z"/>
</g>
</svg>
