<?xml version="1.0" encoding="iso-8859-1"?>
<!-- Generator: Adobe Illustrator 23.0.6, SVG Export Plug-In . SVG Version: 6.00 Build 0)  -->
<svg version="1.1" id="Capa_1" xmlns="http://www.w3.org/2000/svg" xmlns:xlink="http://www.w3.org/1999/xlink" x="0px" y="0px"
	 viewBox="0 0 800 600" style="enable-background:new 0 0 800 600;" xml:space="preserve">
<g>
	<path style="fill:#C39A8A;" d="M346.162,362.622c-6.708-15.587-20.52-26.044-35.515-32.95c1.184-1.381,2.368-2.762,3.551-4.143
		c17.758-22.888,17.955-55.443,16.179-83.066c-3.749-59.192-28.018-116.608-76.555-152.715c-2.565-1.776-4.933-1.184-6.511,0.395
		c-0.197-0.592-0.197-0.987-0.395-1.578c1.776-1.184,3.551-2.762,5.327-4.538c14.009-15.785,9.076-46.762-1.776-62.941
		c-5.13-7.695-14.009-12.628-23.085-8.681c-5.525,2.368-8.879,6.708-11.049,11.641c-12.036,12.233-16.574,30.385-9.865,47.354
		c3.157,8.09,9.471,14.798,16.771,18.35c-0.197,1.973,0.197,3.946,0.987,5.722c-27.426,16.771-56.232,36.502-61.362,71.228
		c-2.762,18.547-8.484,33.937-9.668,52.681c-1.184,17.363-3.749,35.515-1.578,52.878c1.184,10.063,4.735,19.533,10.852,27.031
		c-3.157,23.479-2.368,45.972,12.43,64.519c-11.049-1.776-22.098-3.157-32.95-3.551c-14.009-0.592-17.363,12.036-20.717,23.677
		c-0.197,0.987-0.395,1.776-0.197,2.565c-5.13,1.578-9.865,4.341-14.206,8.287c-10.26,9.471-14.995,23.677-18.941,36.699
		c-1.578,5.13,4.341,9.076,8.681,6.708c7.892-4.143,20.717-14.403,29.793-12.233c7.498,1.776,15.587,7.695,22.888,10.852
		c15.785,7.103,32.161,13.22,48.537,18.744c30.583,10.063,64.914,18.547,96.088,6.314c22.69-8.879,37.883-27.031,43.407-49.721
		c0.789-0.395,1.578-0.789,2.17-1.578C351.095,396.953,353.068,378.604,346.162,362.622z"/>
	<path style="fill:#B6C8E8;" d="M497.693,360.057c5.722-9.668,13.811-22.69,9.471-31.964c-2.96-6.314-10.655-7.3-16.574-8.287
		c-8.09-1.381-16.179-2.17-24.466-2.368c-9.273,0-31.766-1.578-34.726,10.457c-1.578,6.314,2.368,13.811,4.735,19.336
		c1.578,3.552,3.354,7.103,5.13,10.457c-18.941,10.655-37.094,24.861-37.291,48.537c0,23.677,14.009,46.367,33.345,59.389
		c40.25,27.426,101.021,1.973,104.77-48.143C544.652,388.074,521.37,371.501,497.693,360.057z"/>
	<path style="fill:#EDEDED;" d="M304.136,515.337c-10.063-3.354-21.112,0.789-30.977,7.103c4.735-12.628,7.498-26.044,8.09-39.856
		c0.197-4.538-5.13-7.498-8.879-5.13c-19.139,11.838-35.515,36.304-29.991,59.389c-0.592,3.552,0,7.3,2.565,10.457
		c11.049,12.825,36.502,7.892,48.34-0.592C299.4,542.171,319.526,520.467,304.136,515.337z"/>
	<path style="fill:#F087B1;" d="M274.737,574.726c-2.17-11.444-10.063-20.52-18.744-27.82c-1.184-0.987-2.565-1.381-3.946-1.381
		c-0.592-0.789-1.578-1.381-2.565-1.776c-11.246-3.946-25.255-7.103-34.726,2.565c-7.695,7.695-12.233,23.677-4.538,32.753
		c7.103,8.287,19.533,9.273,28.807,4.538c0.592-0.197,0.987-0.592,1.578-0.789c0.197,0.395,0.197,0.789,0.395,0.987
		c3.551,8.681,12.43,15.982,22.493,13.811C273.948,595.246,276.315,583.802,274.737,574.726z M219.688,571.767
		c-4.341-4.538,0.592-15.785,5.13-18.547c5.13-3.157,11.641-1.578,17.166,0.395c0,0.197,0,0.395,0,0.592c0,1.184,0,2.368,0,3.552
		c-1.184,3.157-2.17,6.314-2.762,9.668c-0.789,1.184-1.578,2.368-2.762,3.354C232.513,574.529,224.029,576.502,219.688,571.767z
		 M263.293,581.435c-3.157,10.26-11.247-0.592-12.233-5.327c-0.395-1.578-0.395-3.157-0.197-4.933
		c1.578-3.157,2.565-6.708,2.96-10.457C259.544,566.637,265.464,574.529,263.293,581.435z"/>
	<path style="fill:#74A3D7;" d="M728.147,266.534c-12.036,0.987-23.677-7.498-35.318-10.26c-10.063-2.368-20.717-3.157-31.174-2.368
		c-1.381,0.197-2.565,0.197-3.946,0.395c12.43-19.928,10.457-39.659,1.973-61.362c-0.987-2.762-4.143-5.327-7.3-4.143
		c-27.228,10.457-42.618,42.224-50.313,70.636c-1.381-10.457-7.498-20.717-14.995-28.215
		c-18.547-18.547-45.183-24.663-69.846-29.793c-3.749-0.789-7.498,1.578-7.498,5.722c0.197,20.717,14.403,36.896,28.412,50.51
		c13.811,13.614,29.991,24.466,49.721,25.453c2.17,1.776,5.13,2.368,7.498-0.395c1.184-1.381,2.368-2.762,3.157-4.341
		c0.592,3.354,3.946,5.327,6.708,5.13c1.184,1.184,2.96,1.973,4.735,2.17c33.147,26.636,96.877,25.255,123.317-10.063
		C735.842,272.058,732.291,266.139,728.147,266.534z"/>
	<path style="fill:#74A3D7;" d="M369.839,538.225c-9.668-15.982-19.336-31.964-29.201-48.143c-3.946-6.511-14.206-0.592-10.26,5.919
		c9.668,15.982,19.336,31.964,29.201,48.143C363.525,550.655,373.785,544.736,369.839,538.225z"/>
	<path style="fill:#74A3D7;" d="M393.121,506.458c-1.184-7.498-12.628-4.341-11.444,3.157c2.17,12.628,2.96,25.058,2.96,37.883
		c0,7.695,11.838,7.695,11.838,0C396.475,533.687,395.291,520.072,393.121,506.458z"/>
	<path style="fill:#74A3D7;" d="M374.969,571.767c-12.825-2.368-25.453-4.735-38.277-7.3c-7.498-1.381-10.655,10.063-3.157,11.444
		c12.825,2.368,25.453,4.735,38.277,7.3C379.112,584.592,382.466,573.148,374.969,571.767z"/>
	<path style="fill:#74A3D7;" d="M347.346,545.328c-6.511-2.762-13.022-5.525-19.533-8.09c-2.96-1.184-6.511,1.381-7.3,4.143
		c-0.987,3.354,1.184,6.117,4.143,7.3c6.511,2.762,13.022,5.525,19.533,8.09c2.96,1.184,6.511-1.381,7.3-4.143
		C352.476,549.274,350.305,546.512,347.346,545.328z"/>
	<path style="fill:#F7D16F;" d="M320.117,191.755c-8.484-38.277-19.336-79.712-55.246-101.416c-2.17-1.184-5.525-0.987-7.103,0.987
		c-9.471,10.852-34.529,35.515-46.762,13.811c0-0.197-0.197-0.197-0.197-0.395c-0.789-3.552-4.538-6.511-8.484-3.946
		c-50.51,33.739-56.824,97.272-56.035,152.912c0,3.157,2.762,5.919,5.919,5.919c14.206,0.197,28.412-0.395,42.618-1.776
		c11.641,24.071,40.053,38.475,66.492,31.174c6.117-1.776,11.641-4.341,14.403-10.26c3.946-9.471,5.13-21.112,7.103-31.174
		c2.17-11.049,3.946-22.098,5.722-32.95c0.987-6.117,4.143-6.708,9.471-8.681c5.919-2.17,12.036-4.341,17.955-6.708
		C319.131,197.871,320.907,195.109,320.117,191.755z"/>
	<path style="fill:#56597A;" d="M362.538,382.55c1.184-13.614-10.457-26.834-20.52-35.91c-6.708-5.919-33.345-29.991-40.251-14.995
		c-9.471,8.681-19.928,16.179-31.569,22.098c-5.327,2.762-19.139,10.852-24.071,3.354c-4.341-6.511,3.749-15.587,7.498-19.928
		c3.157-3.552,1.578-8.287-2.565-9.865c-26.834-10.655-53.865-21.506-80.501-32.556c-1.776-0.789-3.157-0.592-4.341,0.197
		c-2.565-0.197-5.13,0.987-6.117,4.143c-5.327,17.758-5.919,36.107-1.776,53.865c-6.117,0.197-12.036,3.551-16.179,9.076
		c-3.749,4.933-5.722,11.049-7.892,16.771c-3.551,9.865-7.3,19.731-10.457,29.793c-1.973,5.722-2.96,11.444,1.973,16.179
		c5.919,5.919,15.982,9.865,23.282,13.614c15.39,7.892,31.569,14.403,48.34,19.533c31.964,9.668,70.438,17.56,102.599,4.143
		c13.022-5.525,24.663-14.403,32.358-26.439c3.749-6.117,4.341-12.825,7.498-18.941c3.157-6.117,12.628-7.103,17.166-12.43
		C362.144,397.94,363.525,390.245,362.538,382.55z"/>
	<path style="fill:#B6C8E8;" d="M117.089,425.957c-3.946-4.143-7.892-8.484-11.838-12.628c3.354-6.117,6.511-12.233,9.865-18.349
		c3.552-6.708-6.708-12.628-10.26-5.919c-7.498,14.009-14.995,28.018-22.493,42.026c-3.552,6.708,6.708,12.628,10.26,5.919
		c2.17-4.143,4.538-8.484,6.708-12.628c3.157,3.354,6.314,6.708,9.273,10.063C113.932,439.966,122.416,431.482,117.089,425.957z"/>
	<path style="fill:#B6C8E8;" d="M131.295,357.887c-2.565-1.578-6.708-0.789-8.09,2.17c-2.96,6.708-5.919,13.22-8.879,19.928
		c-1.381,2.96-0.789,6.314,2.17,8.09c2.565,1.578,6.708,0.789,8.09-2.17c2.96-6.708,5.919-13.22,8.879-19.928
		C134.649,363.017,134.255,359.662,131.295,357.887z"/>
	<path style="fill:#74A3D7;" d="M308.082,249.171c-2.565-3.946-10.457-2.762-11.049,3.354c-0.395,4.538-0.987,8.879-1.381,13.417
		c-1.578-0.789-3.354-0.987-5.13-0.395c0.197-2.565,0.395-5.13,0.592-7.695c0.592-7.695-11.246-7.498-11.838,0l-0.395,4.933
		c-1.184-0.197-2.368-0.197-3.551,0.197c0-1.776,0.197-3.354,0.197-5.13c0.197-4.341-3.551-6.117-6.906-5.525
		c-3.749-2.762-10.063-1.184-9.273,4.341c0.197,1.973,0.395,3.946,0.592,5.919c-0.395-1.973-0.592-4.143-0.987-6.117
		c-0.789-4.538-5.327-5.13-8.287-3.354c-2.565-3.157-8.287-2.96-10.063,0.789c0.197-1.381,0.197-2.565,0.395-3.946
		c0.789-6.906-8.879-7.498-11.247-1.973c0-0.197,0-0.395,0-0.592c0.395-7.695-11.444-7.498-11.838,0
		c-0.789,14.403,0.592,28.412,3.749,42.421c0.987,4.538,5.919,5.13,8.879,3.157c3.354,3.946,11.049,2.762,10.457-3.354
		c-1.184-10.063-1.381-20.323-0.789-30.385c0.592,14.009,1.184,28.215,1.776,42.224c0.197,5.722,7.103,7.103,10.26,4.143
		c1.776,3.157,6.117,3.749,8.879,1.776c0.592,0.987,1.578,1.578,2.565,1.973c3.157,3.157,10.26,1.776,10.457-3.946
		c0-1.381,0.197-2.96,0.197-4.341c0.592,0.395,1.381,0.789,2.17,0.789c-0.197,4.933,5.13,6.511,8.681,4.538
		c-0.197,3.157-0.395,6.314-0.395,9.471c-0.197,5.13,5.327,6.906,8.879,4.933c2.368-0.197,4.933-1.973,5.327-4.341
		c0.197-0.592,0.197-0.987,0.395-1.578c2.17-0.197,4.341-1.381,5.327-3.946c7.498-18.744,12.233-38.08,14.206-58.205
		C319.131,246.606,311.436,245.422,308.082,249.171z"/>
	<path style="fill:#C39A8A;" d="M323.077,308.56c-5.13-8.09-22.493-8.09-30.78-9.865c-27.623-5.722-55.048-11.444-82.671-17.363
		c-7.498-1.578-10.655,9.865-3.157,11.444l17.955,3.749c-2.368,1.973-2.762,5.722-0.987,8.287
		c-9.865-5.525-19.336-12.233-28.412-17.56c-6.511-3.946-12.628,6.314-5.919,10.26c3.551,1.973,6.906,4.143,10.457,6.314
		c-15.39-3.551-31.372-10.655-30.977-28.412c0.197-7.695-11.641-7.695-11.838,0c-0.395,21.901,18.744,34.726,37.883,39.461
		c13.22,3.157,26.834,5.525,40.645,7.695c6.511,2.565,13.22,4.341,20.52,5.327c11.838,1.578,23.874,2.368,35.91,2.565
		c8.681,0,19.139,0.592,26.439-4.735C322.88,321.977,326.826,314.479,323.077,308.56z M227.975,307.179c1.578,0,2.96,0,4.538,0
		c-0.197,0.789-0.395,1.578-0.395,2.368c-1.578-0.789-3.157-1.578-4.735-2.368C227.581,306.982,227.778,307.179,227.975,307.179z"/>
	<path style="fill:#57455E;" d="M267.042,49.299c3.551-23.282-11.049-48.932-36.502-47.156
		c-25.058,1.578-41.237,27.426-49.327,48.34c-7.695,19.731-15.193,54.851,11.641,63.533c11.049,3.552,23.479-0.987,29.793-10.655
		c5.919-8.879,5.722-20.323,4.933-31.174c0.592,0.197,1.184,0.395,1.776,0.395c3.157-0.197,5.919-2.565,5.919-5.919v-0.789
		c0-3.157-2.762-6.117-5.919-5.919c-0.987,0-1.973,0.395-2.762,0.789c0-0.395,0-0.789,0-1.381c0-0.395,0-0.789-0.197-1.184
		c0.197-0.197,0.395-0.197,0.395-0.395c1.776-1.381,6.906-7.3,9.273-7.695c2.368-0.395,10.852,7.695,14.403,9.471
		c1.776,0.789,3.354,1.381,4.933,1.578c-3.749,2.96-2.565,10.655,3.551,10.655c6.906,0,7.498-9.668,1.973-11.444
		C263.885,58.375,266.055,54.627,267.042,49.299z"/>
	<path style="fill:#57455E;" d="M254.02,77.909c-0.987-3.157-4.143-4.933-7.3-4.143c-2.762,0.592-4.933,0.789-7.892,0.592
		c-3.157-0.197-6.117,2.762-5.919,5.919c0.197,3.354,2.565,5.722,5.919,5.919c3.749,0.197,7.498-0.197,11.049-0.987
		C253.033,84.42,255.006,80.868,254.02,77.909z"/>
	<path style="fill:#57455E;" d="M200.55,263.771c-9.273-10.457-8.09-25.847-8.09-38.869c0-15.982,0.395-31.964,0.987-47.945
		c0.197-7.695-11.641-7.695-11.838,0c-0.592,19.336-1.381,38.672-0.987,58.008c0.197,13.614,2.368,26.636,11.444,37.291
		C197.196,277.78,205.482,269.493,200.55,263.771z"/>
	<path style="fill:#57455E;" d="M297.033,157.029c-0.395-3.157-2.565-5.919-5.919-5.919c-2.96,0-6.314,2.762-5.919,5.919
		c0.789,6.708,1.381,13.22,2.17,19.928c0.395,3.157,2.565,5.919,5.919,5.919c2.96,0,6.314-2.762,5.919-5.919
		C298.414,170.248,297.624,163.54,297.033,157.029z"/>
	<path style="fill:#F087B1;" d="M344.978,214.839c-1.776-3.946-4.735-6.906-8.287-8.484c2.17-9.273-4.341-20.323-14.601-23.479
		c-12.233-3.749-26.636-0.592-35.121,8.287c-9.076-8.09-28.018-6.117-38.869,2.762c-10.655-16.376-37.094-15.193-51.102-1.184
		c-7.695,7.695-11.641,19.928-5.722,29.793c1.381,2.368,3.157,4.341,5.327,5.722c-5.327,7.892-5.919,18.744,0.987,27.426
		c6.708,8.484,16.968,10.457,25.847,7.498c2.565,4.341,7.3,7.3,13.417,7.695c7.3,0.197,13.417-3.157,17.56-8.484
		c8.287,8.484,22.296,10.063,34.331,7.3c6.511-1.381,16.376-6.708,19.928-13.417c11.246-2.565,26.636-11.641,29.991-14.995
		C345.175,234.175,348.924,223.915,344.978,214.839z"/>
	<path style="fill:#57455E;" d="M247.114,221.153c-2.368,2.565-4.538,5.13-6.511,8.09c-1.381-1.973-2.565-3.946-3.946-5.919
		c-4.143-6.314-14.403-0.395-10.26,5.919c2.96,4.538,6.117,9.273,9.076,13.811c2.368,3.551,7.892,4.143,10.26,0
		c2.762-4.933,5.919-9.471,9.865-13.614C260.531,223.915,252.244,215.629,247.114,221.153z"/>
	<path style="fill:#57455E;" d="M311.239,200.436c-2.368,3.157-4.538,6.314-6.511,9.668c-3.157-2.565-6.314-5.327-9.273-8.287
		c-5.525-5.327-13.811,2.96-8.287,8.287c5.13,4.933,10.655,9.471,16.376,13.811c2.565,1.776,6.708,0.592,8.09-2.17
		c2.762-5.525,6.117-10.655,9.668-15.587C326.037,200.436,315.777,194.517,311.239,200.436z"/>
	<path style="fill:#57455E;" d="M244.549,188.795c-3.946,1.381-7.498,3.157-10.852,5.327c-0.987-2.565-2.368-5.13-4.143-7.498
		c-4.341-6.117-14.601-0.197-10.26,5.919c2.762,3.749,4.538,7.892,5.13,12.43c0.592,4.538,6.511,8.484,10.063,4.143
		c3.551-4.143,7.892-7.3,13.022-9.076C255.006,197.674,251.849,186.23,244.549,188.795z"/>
	<path style="fill:#57455E;" d="M302.163,330.264c-19.928,0.987-39.461-1.381-58.797-6.906c-7.3-2.17-10.457,9.273-3.157,11.444
		c20.125,5.919,40.842,8.287,61.954,7.498C309.857,341.707,309.857,329.869,302.163,330.264z"/>
	<path style="fill:#57455E;" d="M324.261,296.919c-3.946-2.762-8.484-4.143-13.417-4.538c-3.157-0.197-5.919,2.96-5.919,5.919
		c0,3.354,2.762,5.722,5.919,5.919c2.368,0.197,4.933,1.184,7.3,2.762c2.565,1.776,6.511,0.592,8.09-2.17
		C328.207,302.049,327.023,298.695,324.261,296.919z"/>
	<path style="fill:#57455E;" d="M249.679,411.948c-19.533-5.327-41.237-8.879-59.587-17.758
		c-15.982-7.892-26.834-22.493-30.78-39.856c-1.776-7.498-13.022-4.341-11.444,3.157c2.368,10.655,7.3,20.52,14.009,29.004
		c-9.668-1.776-19.336-3.946-29.004-5.919c-7.498-1.578-10.655,9.865-3.157,11.444c13.417,2.762,26.834,5.919,40.448,7.892
		c1.776,0.197,3.157-0.197,4.341-0.987c1.381,0.987,2.762,1.973,4.341,2.96c19.731,12.233,45.578,15.785,67.676,21.901
		C253.822,425.365,256.979,413.922,249.679,411.948z"/>
	<path style="fill:#57455E;" d="M348.924,424.182c-14.403-32.161-39.659-58.403-71.228-73.793
		c-6.906-3.354-12.825,6.906-5.919,10.26c29.991,14.798,53.273,39.067,66.887,69.649
		C341.821,437.006,352.081,431.087,348.924,424.182z"/>
	<path style="fill:#EDEDED;" d="M437.317,430.101c-11.838-12.825-12.825-31.964-2.96-46.17c4.341-6.314-5.919-12.233-10.26-5.919
		c-12.825,18.744-10.457,43.999,4.933,60.573C434.16,444.109,442.447,435.625,437.317,430.101z"/>
	<path style="fill:#EDEDED;" d="M448.958,446.083c-3.157,0.197-5.919,2.565-5.919,5.919v0.987c0,3.157,2.762,6.117,5.919,5.919
		c3.157-0.197,5.919-2.565,5.919-5.919v-0.987C454.878,448.845,452.115,445.885,448.958,446.083z"/>
	<path style="fill:#57455E;" d="M495.917,324.147c-20.323,3.749-40.842,6.117-60.376-1.973c-7.103-2.96-10.063,8.484-3.157,11.444
		c21.506,8.681,44.591,5.919,66.69,1.973C506.572,334.21,503.415,322.766,495.917,324.147z"/>
	<path style="fill:#57455E;" d="M706.641,271.072c-26.242,0.592-60.376,0.987-86.223,12.825
		c5.327-20.323,13.811-39.659,25.255-57.613c4.143-6.511-6.116-12.43-10.26-5.919c-14.009,22.296-23.677,46.564-29.004,72.017
		c-0.395,0.395-0.987,0.592-1.381,0.987c-14.995-33.147-40.645-60.968-73.003-78.331c-6.708-3.552-12.628,6.511-5.919,10.26
		c31.766,17.166,56.232,44.591,69.846,77.147c-5.525,6.906-9.668,15.39-11.641,25.847c-1.381,7.498,9.865,10.655,11.444,3.157
		c1.184-5.722,2.96-10.655,5.327-14.995c0.395,1.381,0.789,2.565,1.184,3.946c-0.197,3.551-0.592,6.906-0.592,10.457
		c-0.197,3.551,2.565,5.525,5.327,5.722c3.551,3.157,11.049,0,9.865-6.116c-0.789-3.749-1.578-7.498-2.565-11.246
		c0.592-6.708,1.578-13.417,2.762-19.928c24.269-16.179,62.743-15.587,89.577-16.179
		C714.138,282.713,714.336,270.874,706.641,271.072z"/>
	<path style="fill:#F7D3BD;" d="M659.879,331.25c0.395-3.157-1.776-6.116-5.13-6.708c-21.112-3.157-42.421-5.327-63.73-6.116
		c-7.498-0.197-33.147-4.735-35.515,6.314c-0.592,0.987-0.789,2.17-0.592,3.749c4.933,23.677,9.865,47.354,14.798,70.833
		c1.578,7.498,3.157,15.785,10.852,19.139c8.09,3.552,19.336,3.749,28.018,4.341c8.879,0.592,19.139,0.789,27.623-2.368
		c7.498-2.762,8.287-8.681,9.865-15.785C651.987,380.379,657.117,355.913,659.879,331.25z"/>
	<path style="fill:#57455E;" d="M257.571,528.951c-7.695,0-7.695,11.838,0,11.838C265.266,540.79,265.266,528.951,257.571,528.951z"
		/>
</g>
</svg>
