<?xml version="1.0" encoding="utf-8"?>
<!-- Generator: Adobe Illustrator 23.0.6, SVG Export Plug-In . SVG Version: 6.00 Build 0)  -->
<svg version="1.1" id="Capa_1" xmlns="http://www.w3.org/2000/svg" xmlns:xlink="http://www.w3.org/1999/xlink" x="0px" y="0px" viewBox="0 0 800 600" style="enable-background:new 0 0 800 600;" xml:space="preserve">

<g>
	<g>
		<path d="M323.2,177.8c-1.5-11.3-13.3-10.8-20.6-5.1c-12.8,10-24.2,22.4-35.7,33.9c-10.1,10-19.9,20.3-29.6,30.6
			c-7.8-16.8-16.3-33.2-25.7-49.2c-7.3-12.3-16.9-25.2-32.6-25.7v-4.8c0-0.7-0.2-1.3-0.5-2c4.8-4.3,8.3-10.6,9.5-16.6
			c2.8-14.8,3.5-34.2-5.1-47.3c0.3-2.8-1.2-5.8-4.8-5.6c-16.8,0.7-28.1,14.4-30.7,30.2c-2.2,12.6-2.3,34.4,10.6,41.9
			c0,0.2,0,0.3,0,0.5v1.8c-19.8-1.7-36.2,13.1-47.2,29.1c-14.1,20.8-25.1,44.5-31.1,68.9c-5.1,20.8-5.1,45,13.1,59.5
			c5.5,4.3,11.8,7.1,18.3,9.5c-1.7,44.5-3.3,89.2-5.1,133.7c-0.8,22.4-1.7,44.8-2.5,67.4c-0.5,11-0.8,21.9-1.3,32.9
			c-0.2,3.8,0.5,6.1-2.3,8.8c-1.7,1.7-5.3,2.5-7.3,3.5c-5.5,2.7-10.8,5.1-16.3,7.8c-3.8,1.8-2.8,8.3,1.2,9.1
			c10.5,2.2,20.9,2.7,31.6,1c8-1.3,18.3-3.2,22.8-10.6c5-8.5,5-21.1,6.6-30.6c2.2-12.5,4.3-24.9,6.5-37.2
			c7.3-42.7,14.6-85.4,21.9-127.9c6.5,28.2,7.8,58,13.5,86.2c7.1,35.9,17.3,70.9,30.1,105.3c0.8,2.3,2.5,3.3,4.8,3.7
			c18.6,2.3,37.2,0.8,55.3-4.2c4.2-1.2,5-7,1.2-9.1c-7.8-4.5-15.9-9-21.6-16.1c-6.1-7.6-8-17.8-10.1-27.2
			c-4.7-19.9-8.6-39.9-12.1-60c-7-40.4-11.6-81-14.3-121.9c8.6-1.5,16.8-4.5,24.4-9.8c3-2.2,3.3-6.5,0-8.6c-9.3-5.6-20.1-8-31.1-9.8
			c-1.2-16.1-2.2-32.2-3.3-48.3c4,5.1,8.5,9.8,14.3,13.1c10.3,6,22.8,6.6,32.9,0c11.6-7.6,20.8-20.8,29.4-31.4
			c9.5-11.6,18.4-23.7,26.7-36.2C313.2,201.7,324.6,189.4,323.2,177.8z" style="fill:#F7D3BD;"/>
		<path d="M172.7,77.5c-16.9,3.7-30.6,23.1-32.7,39.5c-0.8,5.8-1.3,13.5,5,15.8c0.8,0.7,1.8,1.2,3,1.2
			c2.7,0.2,5.1,0,7.6-0.5c-1.8,3-0.3,7.8,4,7.8c5.6,0,6.3-7.6,2.2-9.5c4.8-1.8,9-4.8,12.5-8.6c3,4.2,7,7.5,12.1,8.3
			c8.5,1.3,12.3-6.1,12.5-13.6C199.3,103.1,193.6,73,172.7,77.5z" style="fill:#57455E;"/>
		<path d="M345.7,122.3c-1.3-4-6.8-5-9.1-1.2c-11.3,18.3-21.1,37.2-29.4,57c-2.5,5.8,6.1,11,8.6,5
			c2.7-6.5,5.6-12.8,8.6-18.9C341.4,158.5,351.4,139.6,345.7,122.3z" style="fill:#B6C8E8;"/>
		<path d="M494.2,58.2c-2.2-15.1-5.1-27.7-17.6-37.4c-8-6.3-17.1-12.6-27.1-15.4c-0.5-0.5-1.2-0.8-2-1
			c-24.7-6.5-48.3,8-60.1,29.4c-11.1,20.4-16.9,51.8,1.2,70.1c17.8,17.9,52.1,23.4,75.2,14.3C489.2,107.9,497.9,84.1,494.2,58.2z" style="fill:#C39A8A;"/>
		<path d="M482.6,57.7c-2.3-21.1-19.8-35.2-39.5-36c-0.5-1.7-2-3-4.5-2.8c-23.4,1.8-42.5,19.4-44.2,43.3
			c-0.8,11.5,2.5,23.7,11.8,31.2c10,8,25.4,14.1,38.4,14C468.1,107.2,485.1,79.8,482.6,57.7z" style="fill:#EDEDED;"/>
		<path d="M255.4,549.5c-14-68.9-27.7-138-41.7-206.9c-0.8-4-4.8-4.3-7.5-2.7c0,0,0,0-0.2,0
			c-31.2,3.8-61.3-8.5-92.3-8.6c-1,0-2,0.3-2.7,0.8c-2.2,0.3-4.3,1.8-4.5,4.7L90.3,562.4c-0.2,2,1.7,4.5,3.7,4.8
			c14.3,2,28.6,3.8,42.8,5.8c2.7,0.3,5.3-0.7,6.1-3.5c11.6-42.8,20.9-86.2,27.7-130c3.7,28.4,7.8,56.6,12.5,84.7
			c1.7,9.8,3.2,19.4,5,29.2c1.2,6.3,3.3,12,10.3,13.3c6.8,1.3,14.9-2.2,21.6-3.7c10.6-2.5,21.3-5,31.9-7.5
			C254.7,555,256.1,552,255.4,549.5z" style="fill:#56597A;"/>
		<path d="M442.2,51.6c-0.8,1.5-1.7,3-2.5,4.3c-0.7-3.2-1.2-6.3-1.3-9.6c-0.3-6.3-10.3-6.5-10,0
			c0.5,8.5,2.5,16.4,5.8,24.2c1.5,3.5,7,3,8.6,0c2.7-4.7,5.3-9.3,8-14C454,50.9,445.5,45.9,442.2,51.6z" style="fill:#F087B1;"/>
		<path d="M677.1,376.6c0-34.4-5.3-68.6-15.3-101.5c-0.8-16.6-7.6-33-21.8-45.7c-0.5-0.5-1.2-0.8-1.8-1
			c10.6-8,12.3-26.9,10.6-38.7c-1.2-8.3-3.2-18.4-10.1-24.1c-3.8-3-8.1-4.2-12.5-3.5c-11.6-6.1-20.1,23.6-21.4,31.1
			c-2.2,13,0.7,31.7,13.3,37.4v0.5c-0.8,0.3-1.7,1.2-2.2,2.2c-11.3,23.9-16.9,49.7-16.3,75.9c-18.6,8.6-38.4,14.4-58.6,17.1
			c-11.6,1.5-23.1,1.3-34.7,1.7c-10,0.2-19.8,1.5-28.1,7.6c-2.5,2-3.5,5.3-1,7.8c16.3,16.8,44,10.6,64.6,9
			c18.8-1.3,38.7-1.7,57.5-5.5c-0.3,4.7-0.5,9.1-0.8,13.8c-20.3,5.5-41.7,9.8-60.9,17.8c-16.6,7-27.6,19.6-31.6,37.2
			c-4.5,19.6-2.3,40.7-0.3,60.5c2.2,21.9,6,43.7,11.3,65.1c-9.5,1.3-17.9,5.6-24.9,12.5c-2.5,2.3-1.7,7.8,2.2,8.3
			c14.8,2.2,29.7,3.3,44.8,2.5c4.2-0.2,10.1,0.2,13.5-3c4.2-4,2.8-10.6,2.5-15.8c-1-16.3-1.8-32.4-2.5-48.7
			c-0.3-7.6-0.5-15.1-0.7-22.8c-0.2-8.3-1.7-17.8-0.5-26.1c0.8-6.1,2.8-8.5,8.8-9.3c3.8-0.5,7.5-0.7,11.3-0.5c8,0,15.9,0.5,24.1,0
			c14.3-0.8,28.4-3.7,41.9-8.5c11.1-4,23.7-9,31.6-18.1C677.6,402,677.1,388.5,677.1,376.6z" style="fill:#F7D3BD;"/>
		<path d="M581.1,353.5c-0.2-2.7-2.2-5-5-5c-65.8,0-131.4-1-197.1-3c-31.7-1-63.8-3.3-95.5-1.3
			c-32.1,2-63.9,5.8-95.8,8.8c-5,0.5-6,6.6-3.3,9c-0.3,8.1-2,21.3,8.1,23.1c6.6,1.3,14.4,0.5,21.3,0.7c7.6,0.2,15.3,0.3,22.9,0.5
			c31.2,0.8,62.4,1.7,93.8,2.2c7.6,0.2,15.1,0.2,22.8,0.3c1.7,51.2,2.8,102.5,3.7,153.6c-8.6,2.2-17.3,4.5-25.9,6.6
			c-6.1,1.7-13.6,4-16.4,10.3c-7,15.8,20.1,18.9,29.4,19.3c21.3,1,42.7,0,63.9-0.5c11-0.2,21.9-0.5,32.9-0.8
			c8.6-0.3,16.8-0.8,24.4-5.1c1.8-1,3-3.7,2.3-5.6c-4.3-13.1-17.8-16.4-30.1-17.9c-10.5-1.3-20.9-2.5-31.2-3.7
			c-2.2-0.3-10.3-0.5-11.5-2.2c-0.8-1.2-0.5-4.5-0.5-5.6c-0.3-6-0.7-12-0.8-17.8c-2-43.3-1.8-86.9,0-130.4
			c41.2-0.2,82.2-1.2,123.2-4.2c16.8-1.2,33.5-2.7,50.3-4.5c4.8-0.5,11-0.5,13.6-5.3C583.7,369.5,581.2,359.7,581.1,353.5z" style="fill:#C39A8A;"/>
		<path d="M709.1,318.8c0-8-0.2-15.9-0.8-23.9c-0.5-7-0.5-14.9-3.7-21.3c-4.2-8.3-14-11.8-20.1-3.2
			c-8.3,11.6-7.5,30.7-8.3,44.3c-2.3,38.7-4.8,77.4-7.1,116.3c-19.9,2.2-39.9,2.7-59.8,1.5c-14-0.8-34.4-7-40.5,10.3
			c-2.7,7.5-2,15.9-2,23.7c0,10.1,0,20.4,0,30.6c0,3.7,0.2,7.1,0.3,10.8c-0.8,0.8-1.5,2-1.3,3.7c0.7,8.3,1.3,16.6,2,24.9
			c0.5,7,0.5,14.3,2.5,21.1c0.3,1,0.7,2,1.2,3c0,0.2,0,0.3,0,0.5c0.2,1.7,1,2.7,2,3.2c3.8,5.5,10.1,8.8,17.3,5
			c12.1-6.6,8.3-24.1,7.6-35.2c-1-16.3-2-32.7-3-49c14.3-0.8,28.7-1.8,43-2.7c7.5-0.5,14.9-1,22.6-1.3c1,0,8.8-1.5,9.6-0.7
			c0.2,0.2,0.3,7.8,0.5,9.5c1.2,14.6,2,29.1,3.5,43.7c1.2,11.3,3.5,21.8,10.8,30.7c1.3,1.7,4.3,1.8,6,0.8
			c10.3-6.3,9.6-25.1,10.6-35.7c1.8-17.4,2-34.9,1.8-52.3c-0.3-35.2-0.2-70.1,2.5-105.3C707.8,354,708.9,336.4,709.1,318.8z" style="fill:#C39A8A;"/>
		<path d="M652.1,151.1c-7.1-4.2-15.3-0.8-20.1,5.1c-0.5,0.5-0.8,1.2-1.2,1.7c-5.6-0.7-12,2.7-16.6,6.3
			c-9.8,7.5-16.8,16.9-15.8,29.7c0.3,4,4.2,5.5,7,4.5c2.7-0.5,5.1-1.3,7.3-2.7c2,3.2,4.2,6.1,6.8,8.8c-1.8,0.7-3.5,2.5-3.3,4.7
			c0.2,2.7,2.2,5,5,5h1.2c2.3,0,4.7-2,5-4.3c3.8,1.5,8.1,1.8,12.8-0.2c13.8-5.6,11.3-22.4,6.6-33.4c-0.2-0.5-0.5-1-0.7-1.5
			c3.8-1,7.5-3,9.5-5.1C661.1,164,658.8,155,652.1,151.1z" style="fill:#57455E;"/>
		<path d="M443.6,292.6c-1.2-7.8-7.1-14.9-13.6-19.8c9.3-8.3,22.3-23.7,7.8-28.9c-11.6-4.2-24.1,6.3-30.7,16.6
			c-0.2-1.8-1.2-3.5-3.7-3.8c-20.8-3.3-41.7,0.3-60.1,10.5c-16.4,9.1-36.2,26.7-40.4,46c-2.2,10,6,16.8,14.3,20.4
			c11.8,5.3,24.4,8.6,37,10.6c23.4,3.7,50.3,3,72.4-6.3c9.8-4.2,19.6-11,22.8-21.8C452.2,307.3,449.5,298.9,443.6,292.6z" style="fill:#F7D3BD;"/>
		<path d="M465.8,222.1c-2.5,0.3-5.1,1-7.8,1.5c0-1,0-1.8,0-2.3c-0.5-2.3-1.3-4.3-2.5-6.3c-2.2-3.7-8-3-9.1,1.2
			c-0.7,2.7-1,5.3-0.8,8.1c0.2,1.5,1,3.2,1.3,4.7c-3.5,3.7-8,6.8-11.6,10.1c-4.8,4.3,2.3,11.3,7,7c3.7-3.3,9.1-6.6,12.5-10.6
			c0.3,0,0.7,0,1.2-0.2c4.2-1.2,8.5-2.3,12.6-3.3C474.8,230.1,472,221.1,465.8,222.1z" style="fill:#EDEDED;"/>
		<path d="M461,330.3c-52,2.8-104.1,3.7-156.3,2.3c-1.2,0-2.2,0.3-3,0.8c-0.3,0-0.5,0-0.8,0c-5.5-0.7-6.8,8.8-1.3,9.8
			c32.1,5.3,64.3,8.3,96.8,8.6c15.9,0.2,32.1-0.2,48-1.2c7.6-0.5,21.8-1.8,20.3-12c0.3-0.3,0.5-0.5,0.8-0.8
			C467.5,334.7,464.5,329.9,461,330.3z" style="fill:#B6C8E8;"/>
		<path d="M510.3,287.9c-0.7-5.8-9.3-6.3-10-1.3c0-0.7,0.2-1.5,0.2-2.2c0.5-6.1-8.8-6.3-9.8-0.7c-2.2-2-5.8-2.3-7.8,0.8
			c-4.5,7.3-0.5,16.9,7,20.1c0.2,7.3,0.5,14.6,1.3,21.8c0.7,6.3,10.6,6.3,10,0c-0.8-7.3-1.2-14.4-1.3-21.8
			C506.5,302.5,511.1,295.2,510.3,287.9z" style="fill:#B6C8E8;"/>
		<path d="M680.7,374.6c-0.2-17.1-1.2-34-3-51c-1.7-15.3-3.8-30.6-6.5-45.5c-2.5-13.5-4.7-28.4-13.5-39.5
			c-7-8.6-17.9-14.4-29.2-11.8c-10.1,2.3-17.6,10.6-22.1,19.6c-6,11.5-8.6,24.6-10.3,37.4c-0.8,6.1-0.2,13.8-2.7,19.6
			c-3.3,7.6-15.1,7.3-22.1,8.5c-18.3,2.8-65.1,3.7-59.5,33.5c2.5,13.1,18.3,12,28.9,11.6c7-0.2,14.1-1.2,20.9-2.8
			c8.3-2,17.1-7.3,25.7-6.6c3.2,0.2,9.1,2.5,8.8,6.8s-8,5.6-11.1,6.8c-6.6,2.3-13.6,4-20.4,5.6c-13.5,3.3-27.1,6.8-39,14.1
			c-25.4,15.6-32.2,45.2-36.9,72.6c-0.5,2.5,0.7,5.5,3.5,6.1c7.1,1.7,14.4,3.3,21.6,4.8c1.2,0.3,2.2,0.2,3.2-0.3
			c11.6,3.3,23.1,6.6,34.7,10.1c4,1.2,6.6-2.5,6.1-6.1c-2.2-13.5-2.8-31.4,15.3-31.4c15.9,0,32.4,2.8,48.2,4.3
			c20.6,1.8,52.6,6.6,58-20.8C681.9,405.5,680.9,389.4,680.7,374.6z" style="fill:#F087B1;"/>
		<path d="M607,204.4c-2.7,0.2-5,2.2-5,5v1.2c0,2.7,2.3,5.1,5,5c2.7-0.2,5-2.2,5-5v-1.2
			C612,206.7,609.6,204.2,607,204.4z" style="fill:#57455E;"/>
		<path d="M619.1,216.5h-5.5c-2.7,0-5.1,2.3-5,5c0.2,2.7,2.2,5,5,5h5.5c2.7,0,5.1-2.3,5-5
			C623.9,218.8,621.9,216.5,619.1,216.5z" style="fill:#57455E;"/>
		<path d="M642.3,269.1c-0.7-6.3-10.8-6.3-10,0c2.2,17.6,2,37.4-4.2,54.3c-7,19.4-29.9,21.1-47.3,21.8
			c-6.3,0.3-6.5,10.3,0,10c18.9-0.8,41.4-2.8,52.8-20.3c5.6-8.6,7.3-19.9,8.6-30.1C643.8,293.1,643.7,281.1,642.3,269.1z" style="fill:#57455E;"/>
		<path d="M381.1,389.2c-7.1,0.5-14-0.2-20.8-2.3c-6.1-1.8-8.8,7.6-2.7,9.6c7.6,2.3,15.4,3.3,23.4,2.7
			C387.4,398.7,387.4,388.7,381.1,389.2z" style="fill:#57455E;"/>
		<path d="M376.1,547.1c-7.6,2.5-15.4,0.5-20.8-5.5c-4.3-4.8-11.3,2.3-7,7c7.6,8.5,19.8,11.6,30.6,8.1
			C384.9,554.8,382.3,545.2,376.1,547.1z" style="fill:#57455E;"/>
		<path d="M428.8,281.3c-1-6.3-10.6-3.7-9.6,2.7c3.5,21.3-26.2,37.5-42.7,24.1c-8.8-7.1-9-18.1-1.3-26.1
			c5.6-6,16.4-14.6,25.1-14c6.5,0.5,6.3-9.5,0-10c-13-0.8-29.6,11.6-36.4,22.3c-7.6,11.8-4.3,27.1,6.6,35.7
			C394.9,335.2,433.8,311.3,428.8,281.3z" style="fill:#C39A8A;"/>
		<path d="M336.6,296.5c-1.3-2.2-4.5-3.3-6.8-1.8c-2.7,1.8-5,4.3-6.3,7.1c-1.2,2.3-0.7,5.5,1.8,6.8
			c2.2,1.2,5.6,0.7,6.8-1.8c0.2-0.5,0.5-1,0.7-1.3c0.2-0.2,0.3-0.5,0.5-0.7c0.3-0.3,0.7-0.8,1-1.2c0.2-0.2,0.3-0.3,0.5-0.5
			c0,0,0,0,0.2,0C336.9,301.9,338.3,299,336.6,296.5z" style="fill:#C39A8A;"/>
		<path d="M354.7,311c-0.3-1.2-1.2-2.5-2.3-3c-2.5-1.3-5.1-0.5-6.8,1.8c-0.8,1.2-1.5,2.2-2.3,3.3
			c-0.7,1-0.8,2.7-0.5,3.8c0.3,1.2,1.2,2.5,2.3,3c2.5,1.3,5.1,0.5,6.8-1.8c0.8-1.2,1.5-2.2,2.3-3.3C355,313.8,355,312.2,354.7,311z" style="fill:#C39A8A;"/>
		<path d="M356.5,273.3c-1.5-2.3-4.5-3.2-6.8-1.8c-1.8,1.2-3.7,2.2-5.5,3.3c-2.2,1.3-3.3,4.5-1.8,6.8
			c1.5,2.3,4.5,3.2,6.8,1.8c1.8-1.2,3.7-2.2,5.5-3.3C357,278.8,358,275.5,356.5,273.3z" style="fill:#C39A8A;"/>
		<path d="M679.9,476.2c-32.1,2.5-64.1,3-96.3,1.5c-6.5-0.3-6.5,9.6,0,10c32.1,1.5,64.3,1,96.3-1.5
			C686.4,485.7,686.4,475.7,679.9,476.2z" style="fill:#57455E;"/>
		<path d="M560.6,552.5c-0.8-6.3-2-12.5-3.2-18.8c-0.7-3-4.8-4.8-7.3-3c-7,4.8-13.8,9.6-20.8,14.3
			c-1.3,0.8-2.5,1.5-3.7,2.2l-7.1-80.9c-0.5-6.3-10.5-6.5-10,0c2.5,27.4,4.8,55,7.3,82.4c-3-0.7-6-2.2-9.6-4.3
			c-2.5-1.5-4.8-0.7-6.1,1.2c-6.5,2.5-14.4,6.1-17.8,12.3c-3.5,6.5,1,12.5,6.8,15.1c14.6,6.8,33,5,48.2-0.8c0.7,1.3,1.8,2.3,3.2,2.7
			c7.1,1.2,19.4,1.7,21.4-7.5C562.8,562.6,561.3,556.9,560.6,552.5z" style="fill:#57455E;"/>
		<path d="M303.2,215.3c-6.5-7.8-13.1-15.4-19.6-23.3c-1.8-2-5.3-1.8-7,0c-11.5,11.3-22.9,22.6-34.5,33.9
			c-11.5-28.4-27.1-56.8-57.8-67.1c-2-0.7-4.7,0.3-5.6,2.3c-1.8,3.7-3.7,7.3-5.6,10.8c-1,1.7-6,10.5-6,10.5c0.3,0-3.3-6.3-4.3-8.1
			c-2.2-4.2-3.7-8.5-5-12.8c-1.2-3.7-5-4.2-7.5-2.8c-1-0.5-2-0.7-3.3-0.3c-8.8,2.3-17.4,5-24.7,11c-7.3,6.1-12.8,14.3-17.6,22.4
			c-10.6,17.4-17.9,36.5-24.4,55.6c-5.8,17.1-14.1,37-6,54.8c3.3,7.1,8.8,13,15.1,17.6c3.2,2.3,6.6,4.3,10.3,6.1
			c5.5,2.7,6.5,2,4.3,8.5c-1,2.8,1.2,5.1,3.5,6.1c7.1,2.8,14.4,2.7,21.9,1.7c9.5-1.2,18.6-2.2,28.2-1.7c18.4,0.8,35.5,8.5,53.8,9.3
			c2.5,0.2,5.3-2.3,5-5c-0.2-2.2-0.5-4.5-0.7-6.6c0.2-11.3-0.3-22.6-1.5-33.9c-0.8-8.8-3.5-18.3-3.7-27.2c19.6,12.8,46,8.1,62.8-8.8
			c6-6,11.1-12.6,16.4-18.9c5.3-6.3,12-12.6,16.3-19.6C309,224,307,220,303.2,215.3z" style="fill:#74A3D7;"/>
		<path d="M253.2,287.7c-1,3-3.5,4.3-6.5,4.8c0.3-0.7,0.8-1.3,1.2-2c3.3-5.5-5.3-10.5-8.6-5c-0.7,1.2-1.3,2.3-2,3.3
			c-0.8-1.5-1-3.3,0.3-5.5c3.5-5.3-5.1-10.5-8.6-5c-4.5,7-2.2,14.9,3.5,19.8c-2.5,5.5-4.5,11.3-5.8,17.3c-1.5,6.3,8.1,9,9.6,2.7
			c1.3-5.5,3.2-10.8,5.3-15.8c8.8,1.3,18.3-3.2,21.1-12C264.9,284.3,255.2,281.6,253.2,287.7z" style="fill:#B6C8E8;"/>
		<path d="M185.1,131.3c-6.5,0-6.5,10,0,10C191.5,141.3,191.5,131.3,185.1,131.3z" style="fill:#57455E;"/>
		<g>
			<path d="M179.3,151.1C180.2,151.2,179.8,151.2,179.3,151.1L179.3,151.1z" style="fill:#57455E;"/>
			<path d="M182,141.4c-4.2-0.8-8.5,0.3-11.5,3.5c-1.7,2-2,5.1,0,7c1.8,1.7,5.1,2,7,0c0.2-0.2,0.3-0.3,0.5-0.5
				c0.2-0.2,0.3-0.2,0.5-0.2c0.2,0,0.3-0.2,0.5-0.2c0.2,0,0.2,0,0.2,0h0.2c0,0,0,0-0.2,0c2.5,0.5,5.5-0.7,6.1-3.5
				C186,145.1,184.6,142.1,182,141.4z" style="fill:#57455E;"/>
		</g>
		<path d="M210.4,307c-13-2.3-26.6-4.2-40.2-6.6v-0.2c-0.5-32.1-0.8-64.3-1.3-96.3c3.5,2.5,7.3,3.8,11,2
			c5-2.5,5.3-10,6-14.6c1.2-8,1.3-15.9,0.7-23.9c-0.5-6.3-10.5-6.5-10,0c0.7,8.6,0.5,17.1-1,25.6c-0.2,1-0.3,1.8-0.5,2.8v0.2
			c-0.7-0.8-2.8-2.5-3-2.8c-1.2-1.2-2.2-2.3-3.2-3.7c0-0.7,0-1.3,0-2c0-2.7-1.8-4.2-3.8-4.7c-1.5-1.5-4.3-1.7-6-0.7
			c-2.3,1.5-4.8,3.2-7.3,4.3c-3.8,1.8-4,2.5-4.2-1.7c-0.2-5.8,2.7-13,4.8-18.3c2.3-6-7.3-8.6-9.6-2.7c-2.8,7.6-9.3,23.9-3.7,31.7
			c4.8,6.6,13.5,2.5,19.9-1.7c0.5,34.9,1,69.8,1.5,104.6c-13.3-2.8-26.1-6.5-38-12.1c1.7-19.8,3.2-39.5,4.8-59.1
			c0.5-6.3-9.5-6.3-10,0l-4.5,54.1c-5.3-2.2-9.6,5.8-4.3,9c1.3,0.8,2.7,1.5,4,2.2c0.8,1.8,2.8,2.7,4.8,2.5
			c24.1,11.6,51.8,15.3,78.2,19.8c-1.3,10-1.3,19.9-0.3,29.9c0.7,6.3,10.6,6.3,10,0c-1-9.5-1-18.9,0.2-28.2c0.8,0.2,1.7,0.3,2.5,0.5
			C213.9,317.8,216.7,308.2,210.4,307z" style="fill:#57455E;"/>
		<path d="M143.3,335.9c-13-1.8-24.9-6.1-36.2-13c-5.5-3.3-10.5,5.3-5,8.6c12,7.1,24.7,12,38.5,14
			C146.9,346.5,149.6,336.9,143.3,335.9z" style="fill:#57455E;"/>
		<path d="M244.3,228.1c-0.3-2.7-2.2-5-5-5c-2.5,0-5.3,2.3-5,5c0.3,3.7,0,7.3-1.5,10.8c-1.2,2.5-0.7,5.3,1.8,6.8
			c2.2,1.2,5.6,0.7,6.8-1.8C243.6,238.9,244.8,233.8,244.3,228.1z" style="fill:#57455E;"/>
		<path d="M213.7,277.9c-2.8-20.6-5.8-41.4-8.6-61.9c-0.8-6.3-10.5-3.7-9.6,2.7c2.8,20.6,5.8,41.4,8.6,61.9
			C204.9,286.9,214.5,284.1,213.7,277.9z" style="fill:#57455E;"/>
		<path d="M295.8,231.1c-7.1-11.3-14.8-22.1-22.6-32.9c-3.8-5.1-12.5-0.2-8.6,5c8,10.6,15.4,21.6,22.6,32.9
			C290.6,241.6,299.2,236.6,295.8,231.1z" style="fill:#57455E;"/>
		<path d="M179.5,458.5c-2.3-20.3-3.2-40.5-2.7-60.8c0.2-6.5-9.8-6.5-10,0c-0.5,20.3,0.5,40.7,2.7,60.8
			C170.2,464.8,180.2,464.8,179.5,458.5z" style="fill:#57455E;"/>
		<path d="M121.9,346.4c-2,8.6-6.8,15.9-14.4,20.8c-5.5,3.5-0.3,12.1,5,8.6c9.6-6.1,16.4-15.6,19.1-26.7
			C133,342.7,123.4,340.1,121.9,346.4z" style="fill:#57455E;"/>
		<path d="M137.6,578.9c-0.3-2-2.8-3.8-4.8-3.7c-12.5,0.8-23.6-2-35.7-3.2c-0.2,0-0.3,0-0.5,0c-0.8-2.2-2.8-4-5.8-3
			c-6.8,2-19.8,7.3-21.3,15.6c-1.5,8.1,9,11,14.9,11.8C98.1,598.3,141,602.6,137.6,578.9z" style="fill:#C39A8A;"/>
		<path d="M288.3,571.9c-0.5-5.8-7.8-10.3-12-13.5c-5.3-3.8-11.1-8.1-17.8-5.1c-4,1.7-7.1,4.3-11.3,5.6
			c-4,1.3-8,2-12,2.8c-8.1,1.7-15.9,3.5-23.1,8l0,0c-2.7,0.5-5.1,2.8-4.5,6.1c1.3,6.5,6.5,10.1,12.8,11.1c9.6,1.5,20.6,0.2,30.2-0.5
			C259.4,586,289.8,586.5,288.3,571.9z" style="fill:#C39A8A;"/>
		<path d="M260.5,549c-1.8-1.7-5.3-2.2-7,0c-2.2,2.7-4.3,5.1-6.6,7.8c-1.7,2-2.2,5.1,0,7c1.8,1.7,5.3,2.2,7,0
			c2.2-2.7,4.3-5.1,6.6-7.8C262.2,554.1,262.5,551,260.5,549z" style="fill:#57455E;"/>
		<path d="M272.3,556.6c-1.5-2.2-4.5-3.3-6.8-1.8c-4,2.5-6.8,6.3-7.8,10.8c-0.5,2.5,0.8,5.5,3.5,6.1
			c2.5,0.5,5.5-0.8,6.1-3.5c0-0.3,0.2-0.7,0.2-1c0,0,0.2-0.5,0.3-0.7c0-0.2,0.2-0.3,0.2-0.5c0.2-0.3,0.3-0.7,0.7-1c0,0,0,0,0-0.2
			c0.2-0.2,0.5-0.5,0.7-0.7c0,0,0.3-0.3,0.7-0.5c0.2-0.2,0.7-0.5,0.7-0.5C272.8,562.1,273.8,558.9,272.3,556.6z" style="fill:#57455E;"/>
		<path d="M103.8,574.4c-0.8-2.2-1.7-4.3-2.5-6.5c-1-2.5-3.3-4.3-6.1-3.5c-2.3,0.8-4.5,3.5-3.5,6.1
			c0.8,2.2,1.7,4.3,2.5,6.5c1,2.5,3.3,4.3,6.1,3.5C102.6,579.9,104.8,577,103.8,574.4z" style="fill:#57455E;"/>
		<path d="M91.8,580c-1.2-2.2-2.3-4.3-3.5-6.5c-1.2-2.3-4.7-3.2-6.8-1.8c-2.3,1.5-3.2,4.3-1.8,6.8
			c1.2,2.2,2.3,4.3,3.5,6.5c1.2,2.3,4.7,3.2,6.8,1.8C92.5,585.3,93.1,582.5,91.8,580z" style="fill:#57455E;"/>
	</g>
	<path d="M441.9,25.5c-6.5,0-6.5,10,0,10C448.2,35.5,448.2,25.5,441.9,25.5z" style="fill:#57455E;"/>
	<path d="M475.8,61.9c-6.5,0-6.5,10,0,10S482.3,61.9,475.8,61.9z" style="fill:#57455E;"/>
	<path d="M439.9,93.1c-6.5,0-6.5,10,0,10S446.4,93.1,439.9,93.1z" style="fill:#57455E;"/>
	<path d="M403,60.1c-6.5,0-6.5,10,0,10C409.5,70,409.5,60.1,403,60.1z" style="fill:#57455E;"/>
</g>
</svg>
