<?xml version="1.0" encoding="iso-8859-1"?>
<!-- Generator: Adobe Illustrator 23.0.6, SVG Export Plug-In . SVG Version: 6.00 Build 0)  -->
<svg version="1.1" id="Capa_1" xmlns="http://www.w3.org/2000/svg" xmlns:xlink="http://www.w3.org/1999/xlink" x="0px" y="0px"
	 viewBox="0 0 800 600" style="enable-background:new 0 0 800 600;" xml:space="preserve">
<g>
	<path style="fill:#C39A8A;" d="M787.66,319.53c-6.16-4.791-14.374-5.476-21.903-6.331c-11.636-1.369-23.272-2.396-34.908-3.422
		c-22.245-1.882-44.49-3.251-66.735-4.107c-5.818-0.171-11.807-0.513-17.625-0.684c-3.422-85.9-6.845-171.8-10.267-257.699
		c-0.171-2.738-2.224-5.305-5.133-5.133c-76.317,3.422-152.806,1.882-228.952-4.449c-2.567-0.171-5.305,2.567-5.133,5.133
		c6.673,100.445,13.347,200.889,20.021,301.334c0,0.513,0.171,0.856,0.171,1.369c-10.609-0.684-21.218-1.369-31.656-2.053
		c-28.747-1.882-57.495-3.765-86.242-5.647c-14.545-34.223-29.09-68.446-43.634-102.669l-21.903-51.335
		c-5.818-13.518-10.951-27.55-20.192-39.185c11.465-10.438,19.336-26.009,11.122-41.068c-8.898-16.427-30.801-15.229-42.95-3.422
		c-7.016,7.016-10.78,16.598-12.834,26.181c-0.856,4.278-0.342,6.845-5.476,9.24c-2.396,1.198-6.331,1.027-9.069,1.54
		c-6.673,1.027-13.518,2.224-20.192,3.251c-27.036,4.449-54.243,8.727-81.28,13.176c-4.791-11.636-19.165-16.256-30.972-12.32
		C6.691,146.361,2.413,164.499,7.033,178.36c2.738,8.385,8.385,13.005,13.86,19.507c7.871,9.24,7.016,26.181,8.556,37.474
		c3.422,24.983,7.187,49.795,11.465,74.435c2.053,12.149,4.278,24.298,6.673,36.448c2.225,11.294,3.936,22.929,8.042,33.71
		c7.016,17.625,20.534,24.641,36.619,29.603c-2.567,22.245-4.278,44.661-4.791,67.077c-0.342,11.807-3.422,36.105,13.518,38.501
		c17.625,2.567,20.02-18.823,20.363-31.143c0.342-22.074,1.369-44.148,3.08-66.05c42.95,10.609,86.242,19.849,129.534,29.09
		c46.714,9.925,93.771,22.074,141.17,28.747c1.54,15.743,2.224,32.17,5.476,47.741c2.396,10.951,9.411,21.389,21.561,21.732
		c11.978,0.342,17.454-9.582,16.256-20.534c-1.882-16.256-5.647-32.512-8.727-48.426c13.347-2.224,25.838-7.358,38.843-14.203
		c21.218-11.294,42.094-23.614,62.115-36.961c4.107-2.738,8.385-5.476,12.491-8.214c3.593,20.876,14.545,75.633,36.79,60.404
		c10.609-7.187,5.305-22.929,2.567-32.683c-3.765-13.005-8.042-25.667-13.005-38.159c0.513-0.171,1.198-0.342,1.711-0.342
		c0.171,0,0.342,0,0.684-0.171c0,0,0,0,0.171,0c0.171,0,0.342,0,0.684,0c0.684,0.342,1.369,0.342,2.224,0.342
		c11.978-0.513,23.956-0.513,36.105,0.171c0.171,4.107,0.513,8.042,0.856,12.149c1.027,14.203,2.053,28.747,4.107,42.95
		c1.027,7.187,3.936,16.256,11.636,18.652c7.529,2.396,13.347-3.593,14.887-10.438c2.738-12.149,0.856-26.523,0.856-38.843
		c0.171-27.892,0.513-55.612,0.685-83.504c28.234,7.7,59.548-1.198,86.413,11.122c-0.685,21.047,0.342,42.094,3.422,62.97
		c2.053,14.545,6.331,37.645,20.363,46.03c16.769,9.754,17.967-18.138,17.796-27.55c-0.171-21.389-4.107-43.292-6.502-64.51
		c-0.685-5.476-1.198-10.78-1.882-16.256c-0.513-4.62-1.882-9.069,3.593-9.925c6.16-1.027,12.491,0.684,18.48-1.54
		C798.269,342.973,797.243,326.888,787.66,319.53z"/>
	<path style="fill:#F087B1;" d="M558.024,360.426c-67.248-17.454-135.865-28.747-205.167-33.71
		c-17.625-1.198-35.25-2.053-52.875-2.567c-6.845-0.171-19.507,2.053-24.298-3.765c-2.567-3.08-3.765-8.727-5.476-12.491
		l-5.305-12.663c-13.86-33.71-27.892-67.419-41.752-101.129c-3.593-8.898-7.187-17.796-10.951-26.523
		c-2.567-5.818-5.476-11.294-11.636-13.86c-6.16-2.567-13.689-1.369-20.192-0.684c-2.396,0.171-4.62,0.513-7.016,0.856
		c-0.684-1.369-2.224-2.225-4.278-2.053c-26.694,1.711-53.046,6.845-78.371,15.571c-9.754,3.422-22.416,6.673-30.116,13.86
		c-7.529,7.016-7.7,16.94-6.16,26.352c4.62,27.892,11.294,55.612,16.94,83.333c2.909,14.374,5.818,28.747,8.727,43.121
		c2.396,11.465,3.422,24.983,11.122,34.394c6.16,7.529,15.571,11.636,24.641,14.374c12.491,3.765,25.325,6.673,37.816,9.754
		c28.063,7.016,56.297,13.689,84.702,20.02c56.126,12.663,112.423,23.956,169.062,33.881c13.689,2.396,28.063,6.16,41.581,0.856
		c13.005-5.133,24.469-14.716,35.934-22.587c25.667-17.796,50.65-36.447,75.119-55.784
		C563.328,366.586,561.446,361.282,558.024,360.426z"/>
	<path style="fill:#F7D3BD;" d="M434.479,402.692c-7.016-6.845-15.229-11.465-24.641-13.689c0.856-19.678,1.369-39.356,1.369-58.864
		c0-17.967-1.54-36.619-12.32-51.677c-19.336-26.865-54.586-32.512-83.333-19.336c0.171-1.198,0.342-2.224,0.684-3.422
		c1.882-11.465,5.476-29.432-3.08-38.843c-1.54-1.711-4.278-1.711-6.16-0.856c-11.294,5.647-18.138,16.085-22.758,27.55
		c-3.422,8.556-6.16,17.625-8.556,26.694c-3.936-15.4-9.411-30.287-19.336-43.121c-12.32-15.743-29.432-26.865-48.768-31.999
		c-0.684-0.171-1.198-0.171-1.882-0.171c-0.171-1.027-0.171-2.225-0.171-3.765v-0.171c14.374-7.7,16.94-27.55,14.374-42.779
		c-1.54-8.727-4.278-18.994-12.491-23.956c-2.396-1.369-4.791-2.225-7.358-2.567c-20.705-10.438-27.207,22.245-28.063,36.105
		c-0.513,9.411-1.198,22.245,5.818,29.603c1.711,1.711,3.765,3.08,5.989,4.278c0,0.171,0,0.342,0,0.684v3.08
		c-32.854,8.214-48.939,40.212-59.719,69.644c-5.989,16.598-12.32,34.052-8.556,51.848c3.251,15.229,13.86,26.352,28.576,30.972
		c6.673,2.053,13.689,3.08,20.705,3.08c0.171,0.684,0.342,1.198,0.856,1.882c22.929,32.854,63.655,48.939,102.669,38.672
		c20.363-5.305,37.303-17.283,50.821-33.196c4.62-5.476,9.24-11.294,13.347-17.283c-4.107,16.598-7.7,33.196-10.267,50.137
		c-1.54,9.754-5.989,22.074,5.305,27.207c14.203,6.502,30.63,10.096,45.517,14.887c4.962,1.711,8.385-4.962,4.962-8.556
		c-5.305-5.476-11.465-11.465-13.005-19.165c0-0.342-0.171-0.684-0.171-1.198c21.732,5.133,43.805,7.358,66.05,6.845
		C435.334,411.419,437.73,405.943,434.479,402.692z"/>
	<path style="fill:#EDEDED;" d="M219.045,126.683c-4.962-5.818-11.465-9.754-18.138-10.78c0.171-14.203-15.058-25.838-28.576-16.598
		c-6.331,4.278-9.24,12.32-6.16,19.507c1.711,3.936,4.791,7.016,8.385,8.898c-7.7,10.438-8.898,24.469-9.411,37.474
		c-0.171,2.738,2.396,5.133,5.133,5.133c7.016,0,13.347-1.882,18.823-5.647c3.936-1.882,7.529-4.449,10.78-7.7
		c7.016,8.042,17.796,17.112,26.694,9.925C238.552,157.142,226.403,135.239,219.045,126.683z"/>
	<path style="fill:#B6C8E8;" d="M411.72,298.311c-7.529-26.01-27.378-48.426-55.27-51.506c-0.684,0-1.369,0-1.882,0.171
		c-5.305-0.856-10.951-1.027-16.769-0.342c-8.214,1.027-16.427,2.909-24.641,2.567c-8.214-0.171-16.085-2.396-24.298-1.198
		c-5.133,0.856-10.096,3.251-13.689,6.845c-10.438-25.154-30.116-46.03-55.099-57.666c-1.54-3.251-6.673-4.791-9.069-0.684
		c-11.122,18.823-34.736,13.689-50.479,4.449c-0.684-0.513-1.369-0.684-2.053-0.684c-1.54-0.513-3.422-0.342-4.962,1.369
		c-18.309,19.678-31.827,43.634-38.159,69.815c-5.989,24.469-6.331,54.243,14.031,72.382c7.871,7.016,17.967,11.636,28.576,11.465
		c3.765,0,8.214-1.198,11.636,1.369c2.567,1.882,4.107,5.647,5.989,8.042c3.593,4.791,7.7,9.069,12.32,12.834
		c18.48,15.229,43.292,22.245,67.077,20.192c24.983-2.224,47.912-13.347,67.248-28.918c-0.513,2.396-0.856,4.962-1.369,7.358
		c-0.513,3.251,1.369,6.502,4.962,6.502c16.769-0.171,33.539-1.882,49.966-5.476c10.951-2.396,28.747-4.449,35.934-14.374
		c0.513-0.856,1.027-1.54,1.54-2.396c3.422-2.909,3.765-7.016,3.936-11.807C417.196,332.021,416.512,314.567,411.72,298.311z
		 M227.43,257.073c3.251-4.107,7.871-12.662,13.518-13.518c9.411-1.54,11.978,13.176,11.636,19.507
		c-0.342,5.133-2.909,18.994-9.754,18.994c-2.053,0-6.331-3.593-8.042-4.62c-2.738-1.54-5.305-3.08-8.042-4.62
		c-1.711-1.027-7.187-2.909-8.042-4.449L227.43,257.073z"/>
	<path style="fill:#56597A;" d="M618.427,64.568c-0.171-2.738-2.224-5.133-5.133-5.133c-63.141-0.684-126.112,0.513-189.082,3.593
		c-0.513,0-0.856,0.171-1.369,0.171c-2.909-0.513-5.989,1.198-5.818,4.791c1.027,13.689,2.396,27.378,4.278,40.896
		c1.198,8.727,2.224,16.94,12.32,18.48c12.663,2.053,27.036,0.171,39.87,0c14.545-0.342,29.09-0.856,43.634-1.54
		c27.892-1.54,55.955-3.765,83.675-7.016c9.411-1.027,18.48-1.882,18.994-13.176C620.652,92.118,618.941,78.086,618.427,64.568z"/>
	<path style="fill:#56597A;" d="M627.839,155.773c-0.171-2.738-2.224-5.133-5.133-5.133c-63.141-0.684-126.112,0.513-189.082,3.593
		c-0.513,0-0.856,0.171-1.369,0.171c-2.909-0.513-5.989,1.198-5.818,4.791c1.027,13.689,2.396,27.378,4.278,40.896
		c1.198,8.727,2.224,16.94,12.32,18.48c12.663,2.053,27.036,0.171,39.87,0c14.545-0.342,29.09-0.856,43.634-1.54
		c27.892-1.54,55.955-3.765,83.675-7.016c9.411-1.027,18.48-1.882,18.994-13.176C630.234,183.322,628.523,169.291,627.839,155.773z"
		/>
	<path style="fill:#74A3D7;" d="M626.47,249.373c-0.856-4.107-2.053-8.042-3.765-12.149c-0.856-2.053-2.567-3.936-4.962-3.765
		c-41.41,2.567-82.82,5.133-124.23,7.7c-10.267,0.684-20.363,1.198-30.63,1.882c-6.16,0.342-14.203-0.513-19.165,4.107
		c-4.62,4.278-3.936,10.951-3.936,16.769c0,10.78,0,21.732,0,32.512c0,0.171,0,0.513,0,0.684c0,0.171,0,0.342,0,0.342l0.171,24.983
		c0,2.909,2.396,4.962,5.133,5.133c35.25,1.54,70.499,3.08,105.92,4.62c9.069,0.342,18.138,1.027,27.378,1.198
		c4.962,0.171,10.096,0,14.203-3.251c4.449-3.422,4.962-8.385,7.016-13.176c3.08-7.358,9.754-12.149,17.796-12.834
		c2.396-0.171,4.278-1.54,4.791-3.765c4.107-3.08,6.502-7.7,7.7-12.491C632.63,275.382,630.577,261.693,626.47,249.373z"/>
	<path style="fill:#57455E;" d="M753.608,300.365c-3.593-8.556-13.347-9.582-21.56-10.096c-2.909-0.171-5.818-0.342-8.727-0.342
		c-2.224-20.876-4.449-41.752-6.674-62.628c-0.685-6.502-10.951-6.502-10.267,0c2.224,20.363,4.449,40.896,6.502,61.259
		c-9.069-0.171-18.48-0.513-27.036,1.369c-6.331,1.369-11.978,5.133-11.807,12.32c0.171,3.08,2.224,4.791,5.133,5.133
		c23.272,2.909,46.543,3.08,69.986,0.856C753.437,307.723,755.32,304.129,753.608,300.365z"/>
	<path style="fill:#56597A;" d="M692.52,280.002c-4.107-1.882-9.754-1.198-14.203-1.54c-6.674-0.342-13.347-0.856-20.021-1.198
		c-8.727-0.513-23.272-4.62-30.801,1.369c-6.845,5.476-8.042,16.598-8.898,24.641c-0.513,4.62,4.62,5.989,7.7,4.107
		c22.245-0.684,44.661,0,66.906,2.053c2.909,0.342,4.962-2.567,5.133-5.133C698.852,297.285,700.221,283.767,692.52,280.002z"/>
	<path style="fill:#57455E;" d="M758.4,250.57c-2.053-9.069-2.396-17.967-1.54-27.207c0.685-6.502-9.582-6.502-10.267,0
		c-1.027,10.096-0.342,20.02,1.882,29.945C749.844,259.811,759.769,257.073,758.4,250.57z"/>
	<path style="fill:#57455E;" d="M185.678,165.697c-6.673,0-6.673,10.267,0,10.267S192.351,165.697,185.678,165.697z"/>
	<path style="fill:#57455E;" d="M212.029,165.697h-1.198c-2.738,0-5.305,2.396-5.133,5.133c0.171,2.738,2.224,5.133,5.133,5.133
		h1.198c2.738,0,5.305-2.396,5.133-5.133C216.992,168.093,214.938,165.697,212.029,165.697z"/>
	<path style="fill:#57455E;" d="M236.67,285.82c-11.122,29.09-34.052,52.19-62.628,64.51c-5.989,2.567-0.856,11.465,5.133,8.898
		c31.143-13.347,55.099-39.014,67.248-70.671C248.99,282.398,239.065,279.831,236.67,285.82z"/>
	<path style="fill:#57455E;" d="M205.185,179.386h-12.491c-6.673,0-6.673,10.267,0,10.267h12.491
		C211.687,189.653,211.687,179.386,205.185,179.386z"/>
	<path style="fill:#57455E;" d="M328.045,316.963c-1.369,16.427-3.936,32.683-7.7,48.939c-1.54,6.502,8.385,9.24,9.925,2.738
		c3.936-16.94,6.673-34.223,8.042-51.677C338.826,310.289,328.559,310.461,328.045,316.963z"/>
	<path style="fill:#57455E;" d="M120.654,220.625c-2.738-1.54-5.476-3.251-8.214-4.791c0.684-3.936,1.198-7.871,1.711-11.978
		c0.856-6.502-9.411-6.502-10.267,0c-0.342,2.053-0.513,4.278-0.856,6.331c-0.856-0.513-1.711-1.027-2.567-1.54
		c-5.647-3.422-10.951,5.476-5.133,8.898c2.053,1.198,3.936,2.396,5.989,3.593c-0.513,2.909-1.027,5.818-1.711,8.898
		c-1.369,6.502,8.556,9.24,9.925,2.738c0.342-2.053,0.856-3.936,1.198-5.989c1.54,1.027,3.251,1.882,4.791,2.909
		C121.167,232.945,126.301,224.048,120.654,220.625z"/>
	<path style="fill:#57455E;" d="M488.038,367.613c-2.224,0-4.449,0-6.502-0.171c-0.513-2.396-1.027-4.962-1.54-7.358
		c-1.369-6.502-11.294-3.765-9.925,2.738c0.171,1.027,0.342,2.053,0.684,3.08c-1.369-0.342-2.738-0.684-4.278-1.027
		c-6.331-1.882-9.069,8.042-2.738,9.925c3.08,0.856,6.16,1.54,9.24,2.053c0.342,1.711,0.684,3.593,1.198,5.305
		c1.369,6.502,11.294,3.765,9.925-2.738l-0.342-1.54c1.369,0,2.909,0,4.278,0C494.711,377.709,494.711,367.442,488.038,367.613z"/>
	<path style="fill:#57455E;" d="M125.445,412.787c-9.754,1.198-18.652-0.513-27.036-5.647c-5.647-3.422-10.78,5.476-5.133,8.898
		c9.754,5.989,20.876,8.556,32.17,7.016C131.776,422.199,131.947,411.932,125.445,412.787z"/>
	<path style="fill:#57455E;" d="M432.083,475.929c-9.24,0.684-18.309-0.342-27.207-3.08c-6.331-1.882-9.069,8.042-2.738,9.925
		c9.754,2.909,19.678,4.107,29.945,3.593C438.757,485.854,438.757,475.587,432.083,475.929z"/>
	<path style="fill:#57455E;" d="M581.98,379.42c-0.513-6.673-4.107-11.978-9.582-15.914c-5.476-3.765-10.609,5.133-5.133,8.898
		c3.422,2.396,5.305,6.673,4.449,10.78c-0.856,3.936-4.107,6.673-5.305,10.609c0,0.171-0.171,0.342-0.171,0.513
		c-7.016,3.936-13.347,9.069-18.823,15.058c-4.449,4.962,2.909,12.149,7.187,7.187c4.107-4.62,8.727-8.556,13.86-11.807
		c1.369,1.369,3.08,2.567,5.133,2.909c6.502,1.198,9.24-8.727,2.738-9.925c-1.027-0.171,3.593-7.871,4.107-9.069
		C581.809,385.751,582.151,382.671,581.98,379.42z"/>
	<path style="fill:#57455E;" d="M42.283,159.537c-7.871-6.331-21.218,1.027-15.229,10.951c2.738,4.278,8.556,2.225,9.582-1.54
		c0,0.171,0.171,0.342,0.171,0.684c0.171,1.027-0.171,2.225-0.513,2.909c-1.369,2.738-4.107,3.251-6.673,2.225
		c-7.871-3.08-5.989-12.834-1.54-17.967c4.278-4.962-2.909-12.32-7.187-7.187c-6.673,7.7-9.925,19.336-3.251,28.234
		c5.476,7.529,17.454,10.78,24.812,3.765C47.93,175.793,48.957,165.184,42.283,159.537z"/>
	<path style="fill:#57455E;" d="M70.688,392.082c-12.149-10.438-13.005-27.892-14.203-42.95c-1.369-17.112-1.54-34.223-2.396-51.506
		c-1.54-32.17-5.305-64.339-20.876-93.087c-3.08-5.818-11.978-0.684-8.898,5.133c17.112,31.485,18.652,67.59,20.02,102.669
		c0.684,16.94,1.027,33.881,3.251,50.821c1.711,13.518,5.133,27.036,15.914,36.105C68.464,403.547,75.822,396.36,70.688,392.082z"/>
	<path style="fill:#57455E;" d="M631.775,338.695c-6.502-0.856-13.005-1.54-19.507-2.396c-3.251-2.396-7.7-2.567-10.438-6.673
		c-6.845-10.096,3.422-19.678,12.834-22.074c6.331-1.711,3.765-11.465-2.738-9.925c-1.027,0.171-1.882,0.513-2.738,0.856
		c0.342-19.336-1.882-38.501-6.331-57.324c-1.54-6.502-11.465-3.765-9.925,2.738c4.278,18.309,6.331,36.961,5.818,55.784
		c0,1.54,0.513,2.738,1.369,3.593c-10.096,7.871-15.229,21.218-6.16,33.025c2.396,3.251,5.647,4.107,8.556,6.502
		c2.224,0.171,3.422,1.54,3.422,4.278c0.171,1.54,0.342,3.251,0.342,4.791c0.342,3.765,0.513,7.529,0.856,11.465
		c0.856,14.031,1.198,28.234,1.027,42.436c0,6.673,10.267,6.673,10.267,0c0.171-10.951,0-21.732-0.513-32.683
		c-0.342-8.214,0-17.625-1.369-26.181l14.887,1.882c2.738,0.342,5.133-2.567,5.133-5.133
		C637.079,340.748,634.512,339.037,631.775,338.695z"/>
	<path style="fill:#57455E;" d="M760.624,349.817c-13.347,0-26.694,0.171-39.87,0.171c-6.674,0-6.674,10.267,0,10.267
		c13.347,0,26.694-0.171,39.87-0.171C767.298,360.084,767.298,349.817,760.624,349.817z"/>
	<path style="fill:#F7D16F;" d="M719.043,157.997c-21.389-2.396-43.292,4.107-60.233,17.283c-8.214,6.331-15.4,14.203-19.507,23.785
		c-5.133,12.149-5.133,25.496-4.62,38.33c0.171,3.593,3.08,5.133,5.818,4.962c2.738,0.171,5.647-1.54,5.818-4.962
		c0.685-10.951,11.807-17.967,22.074-16.256c10.438,1.54,17.796,9.754,22.245,18.823c2.053,3.936,8.385,2.909,9.411-1.198
		c4.449-17.283,26.865-15.4,29.603,1.711c0.684,3.765,6.16,4.962,8.556,2.224c4.278-4.962,9.411-9.754,16.085-10.951
		c7.7-1.369,15.743,3.765,15.058,12.149c-0.513,5.818,8.556,6.845,10.096,1.369C791.083,204.369,760.453,162.617,719.043,157.997z"
		/>
	<path style="fill:#57455E;" d="M700.392,163.815c-8.727,16.427-12.663,34.223-11.636,52.703c0.342,6.502,10.609,6.673,10.267,0
		c-1.027-16.769,2.396-32.683,10.267-47.57C712.37,163.131,703.472,157.997,700.392,163.815z"/>
	<path style="fill:#57455E;" d="M733.246,169.462c-3.593-5.476-12.491-0.342-8.898,5.133c8.898,13.689,12.32,29.09,10.267,45.346
		c-0.856,6.502,9.411,6.502,10.267,0C747.106,202.145,742.999,184.52,733.246,169.462z"/>
	<path style="fill:#57455E;" d="M472.809,318.845c-4.791-23.614-7.358-47.57-7.7-71.526c-0.171-6.673-10.438-6.673-10.267,0
		c0.513,24.983,3.251,49.794,8.214,74.264C464.082,328.085,474.006,325.348,472.809,318.845z"/>
	<path style="fill:#57455E;" d="M492.658,249.544c-0.684-6.502-10.951-6.502-10.267,0c2.567,25.496,5.133,50.992,7.529,76.488
		c0.684,6.502,10.951,6.502,10.267,0C497.791,300.536,495.225,275.04,492.658,249.544z"/>
	<path style="fill:#57455E;" d="M531.501,319.016c-1.027-7.7-1.369-15.743-1.882-23.443c-1.369-16.769-2.738-33.539-4.107-50.479
		c-0.513-6.502-10.78-6.673-10.267,0c1.198,14.031,2.224,28.063,3.422,42.094c0.513,6.673,1.027,13.518,1.711,20.192
		c0.342,4.278,1.711,9.925,1.711,14.716c-0.856,1.198-1.369,2.567-0.684,4.107c0,0.171,0.171,0.342,0.171,0.513
		c1.198,2.909,4.449,5.133,7.529,3.08C533.383,326.888,532.186,323.465,531.501,319.016z"/>
	<path style="fill:#57455E;" d="M553.062,241.501c-0.684-6.502-11.122-6.502-10.267,0c3.593,29.945,4.962,60.061,4.449,90.178
		c-0.171,6.673,10.096,6.673,10.267,0C558.024,301.563,556.655,271.446,553.062,241.501z"/>
	<path style="fill:#57455E;" d="M580.098,240.132c-1.369-6.502-11.294-3.765-9.925,2.738c5.989,28.063,8.385,56.639,7.358,85.386
		c-0.171,6.673,10.096,6.673,10.267,0C588.996,298.654,586.258,269.222,580.098,240.132z"/>
	<path style="fill:#57455E;" d="M460.317,209.503c-0.171-0.342-0.171-1.027-0.342-1.882c-0.171-2.738-0.856-5.476-1.369-8.214
		c-0.856-4.962-1.711-9.925-2.396-14.887c-1.711-9.925-3.251-19.849-4.962-29.774c-1.027-6.502-10.951-3.765-9.925,2.738
		c2.053,12.149,4.107,24.127,5.989,36.276c1.027,6.673,0.342,20.02,6.502,24.127c2.224,1.369,5.989,0.684,7.016-1.882
		c0-0.171,0.171-0.342,0.171-0.513C462.199,213.267,461.857,211.043,460.317,209.503z"/>
	<path style="fill:#57455E;" d="M477.6,157.142c-1.54-6.331-11.465-3.765-9.925,2.738c4.449,17.967,7.358,35.934,9.069,54.243
		c0.513,6.502,10.78,6.673,10.267,0C485.129,194.958,482.049,175.964,477.6,157.142z"/>
	<path style="fill:#57455E;" d="M511.994,154.917c-0.684-6.502-10.951-6.502-10.267,0l5.476,55.783
		c0.684,6.502,10.951,6.502,10.267,0L511.994,154.917z"/>
	<path style="fill:#57455E;" d="M540.228,152.693c-0.513-6.502-10.951-6.673-10.267,0c1.882,20.192,3.593,40.383,5.476,60.404
		c0.513,6.502,10.951,6.673,10.267,0C543.821,192.905,542.11,172.713,540.228,152.693z"/>
	<path style="fill:#57455E;" d="M566.066,152.35c-1.027-6.502-10.951-3.765-9.925,2.738c2.909,18.48,4.278,36.961,4.278,55.612
		c0,6.673,10.267,6.673,10.267,0C570.686,191.193,569.146,171.686,566.066,152.35z"/>
	<path style="fill:#57455E;" d="M592.931,156.115c-0.342-6.502-10.609-6.673-10.267,0c1.198,17.967,2.224,35.763,3.422,53.73
		c0.342,6.502,10.609,6.673,10.267,0C595.156,191.878,594.129,173.911,592.931,156.115z"/>
	<path style="fill:#57455E;" d="M611.412,152.521c-1.198-6.502-11.122-3.765-9.925,2.738c2.909,15.4,4.107,30.801,3.765,46.543
		c-0.171,6.673,10.096,6.673,10.267,0C616.032,185.033,614.663,168.777,611.412,152.521z"/>
	<path style="fill:#57455E;" d="M450.906,123.945c0-0.171-0.171-0.342-0.171-0.513c-0.342-0.684-0.684-1.198-1.027-1.711
		c-0.171-1.027-0.856-2.567-0.856-3.422c-0.513-2.738-0.856-5.305-1.369-8.042c-0.856-5.305-1.882-10.609-2.738-15.914
		c-1.882-10.609-3.765-21.389-5.476-31.999c-1.198-6.502-10.951-3.765-9.925,2.738c2.053,12.32,4.278,24.469,6.331,36.79
		c1.027,5.818,2.053,11.807,3.08,17.625c0.684,3.422,0.513,7.529,3.251,9.925c1.711,1.54,4.278,2.053,6.16,0.856
		c0.171-0.171,0.342-0.171,0.684-0.342C450.221,128.565,451.59,125.999,450.906,123.945z"/>
	<path style="fill:#57455E;" d="M471.44,117.956c-2.567-18.138-4.962-36.276-7.529-54.415c-0.856-6.502-10.78-3.765-9.925,2.738
		c2.567,18.138,4.962,36.276,7.529,54.415C462.542,127.196,472.466,124.459,471.44,117.956z"/>
	<path style="fill:#57455E;" d="M495.054,63.713c-0.513-6.502-10.78-6.673-10.267,0c1.54,18.652,2.909,37.303,4.449,55.955
		c0.513,6.502,10.78,6.673,10.267,0C498.134,101.016,496.594,82.364,495.054,63.713z"/>
	<path style="fill:#57455E;" d="M526.881,97.936c-2.224-11.807-4.449-23.785-6.502-35.592c-1.198-6.502-11.122-3.765-9.925,2.738
		c1.54,8.556,3.251,17.283,4.791,25.838c0.856,4.278,1.54,8.556,2.396,13.005c0.171,0.856,1.198,8.385,2.396,9.582
		c-1.54,2.053-1.369,4.62,0.342,6.673c0.171,0.171,0.342,0.342,0.342,0.513c1.54,2.053,5.647,2.053,7.187,0
		C532.699,114.876,528.079,104.609,526.881,97.936z"/>
	<path style="fill:#57455E;" d="M556.313,113.165c-0.171-1.882-1.027-3.251-2.224-4.278c-0.171-2.909,0.342-8.385,0.171-9.411
		c-0.342-4.107-0.684-8.214-1.369-12.149c-1.198-8.727-3.251-17.454-5.647-25.838c-1.882-6.331-11.807-3.593-9.925,2.738
		c3.08,10.609,5.476,21.218,6.331,32.341c0.513,6.331-1.54,16.769,3.251,21.561c1.54,1.54,4.278,2.053,6.16,0.856
		C555.286,117.272,556.484,115.732,556.313,113.165z"/>
	<path style="fill:#57455E;" d="M574.964,62.344c-1.027-6.502-10.951-3.765-9.925,2.738c2.909,18.138,4.278,36.276,4.449,54.586
		c0,6.673,10.267,6.673,10.267,0C579.755,100.331,578.044,81.338,574.964,62.344z"/>
	<path style="fill:#57455E;" d="M596.696,57.724c-1.54-6.502-11.465-3.765-9.925,2.738c3.936,16.085,5.305,32.341,4.449,48.768
		c-0.342,6.673,9.925,6.502,10.267,0C602.343,91.947,600.803,74.664,596.696,57.724z"/>
	<path style="fill:#F7D16F;" d="M309.394,198.551c0.171-2.909-2.396-4.962-5.133-5.133c-14.203-0.856-28.405,0-42.436,2.567
		c-0.513,0.171-1.027,0.342-1.54,0.684c-0.513-0.171-1.198-0.342-1.711-0.342c-10.951,1.198-21.903,2.567-32.854,3.765
		c-2.396,0.342-4.107,1.369-4.962,3.765c-6.331,17.454-10.438,35.25-12.491,53.73c-0.171,1.54,0.171,2.567,1.027,3.422
		c0,0.684-0.171,1.369-0.171,2.053c-0.171,2.567,2.567,5.305,5.133,5.133c5.989-0.513,10.096-3.422,13.689-8.214
		c2.224-3.08,4.107-7.358,8.042-8.556c6.673-2.053,11.465,4.791,12.149,10.609c0.342,3.936,4.107,6.331,7.7,4.449
		c7.7-3.936,19.507-7.358,25.325-13.86c1.882-2.053,2.567-4.449,3.422-7.016c2.053-5.647,4.449-9.925,9.069-13.86
		c5.133-4.278,11.636-7.358,15.229-13.176C313.158,211.556,309.051,205.909,309.394,198.551z"/>
	<path style="fill:#57455E;" d="M211.687,265.8c-8.898,6.845-17.967,13.518-26.865,20.363c-4.107,3.08-8.042,6.16-12.149,9.069
		l-6.673,5.133c-0.342,0.171-0.856,0.513-1.369,1.027c-0.171-2.224-0.171-4.449-0.342-6.331c-0.513-4.791-1.027-9.754-1.369-14.545
		c-0.684-9.069-1.198-18.309-1.54-27.55c-0.171-6.502-10.438-6.673-10.267,0c0.342,10.78,1.027,21.561,2.053,32.341
		c0.684,8.385,0.342,18.823,3.765,26.523c0.684,1.711,2.738,2.396,4.449,2.567c4.107,0.171,7.016-3.08,9.925-5.305l14.716-11.122
		c10.267-7.871,20.534-15.571,30.972-23.443C222.125,270.762,216.992,261.693,211.687,265.8z"/>
	<path style="fill:#57455E;" d="M259.428,200.605c-1.54,19.507-4.278,38.843-8.214,57.837c-1.369,6.502,8.556,9.24,9.925,2.738
		c4.278-20.02,7.016-40.212,8.556-60.575C270.208,193.931,259.941,193.931,259.428,200.605z"/>
	<path style="fill:#57455E;" d="M241.461,214.978c-4.791,1.54-9.582,2.738-14.545,3.422c-2.738,0.342-5.133,2.053-5.133,5.133
		c0,2.567,2.396,5.476,5.133,5.133c5.989-0.684,11.636-1.882,17.283-3.765C250.359,222.85,247.621,212.925,241.461,214.978z"/>
	<path style="fill:#EDEDED;" d="M216.649,201.118c-3.593-0.342-7.016-0.513-10.609-0.171s-6.673,4.278-4.449,7.7
		c1.027,0.856,1.54,1.882,1.369,3.08c0.342,1.711-0.171,1.711-1.882,0c-1.882-0.513-3.422-1.54-5.476-2.053
		c-4.107-1.027-7.016,2.396-6.331,6.331c0.684,4.449,0.513,4.278-2.053,0.856c-1.369-1.882-2.224-3.593-3.251-5.647
		c-2.053-4.449-8.042-2.567-9.411,1.198c-3.765,10.438-3.765,0.171-5.989-3.593c-1.54-2.909-5.818-3.422-8.042-1.027
		c-1.369,1.369-2.738,2.396-4.107,3.251c0.684-1.198,1.198-2.396,1.882-3.593c2.909-5.818-5.989-11.122-8.898-5.133
		c-2.225,4.449-4.278,8.727-6.502,13.176c-1.711,3.593,0.342,7.358,4.449,7.7c5.305,0.342,10.267-0.856,14.716-3.422
		c1.198,3.936,2.567,7.358,8.042,8.042c4.107,0.513,7.187-1.198,9.411-3.765c2.909,3.936,6.845,7.187,11.636,6.331
		c4.962-0.856,7.358-4.278,8.042-8.214c4.107,1.711,8.214,2.909,12.149-1.198c2.738-2.909,3.251-6.331,2.567-9.754
		c0.856,0,1.882,0.171,2.738,0.171C223.152,212.069,223.152,201.803,216.649,201.118z"/>
	<path style="fill:#EDEDED;" d="M325.65,372.404c-2.396-1.198-5.647-0.684-7.016,1.882c-1.54,2.909-2.396,5.989-2.738,9.24
		c-0.342,2.738,2.567,5.305,5.133,5.133c3.08-0.171,4.791-2.224,5.133-5.133c-0.171,1.027,0-0.171,0.171-0.513
		c0.171-0.513,0.171-1.027,0.342-1.54c0-0.171,0.171-0.684,0.342-0.856c0.171-0.171,0.513-1.027,0.513-1.198
		C328.73,377.024,328.216,373.602,325.65,372.404z"/>
	<path style="fill:#EDEDED;" d="M344.815,376.169c-1.54-2.396-4.449-3.251-7.016-1.882c-1.711,0.856-3.422,2.567-4.278,4.449
		c-1.198,2.396-1.369,4.62-0.856,7.187c0.513,2.738,3.936,4.449,6.331,3.593c2.567-0.856,3.765-3.08,3.593-5.647c0,0,0,0,0-0.171
		v-0.171c0,0,0,0,0-0.171c0.171,0,0.342-0.171,0.342-0.171C345.328,381.816,346.355,378.393,344.815,376.169z"/>
	<path style="fill:#EDEDED;" d="M363.979,379.933c0-0.171-0.171-0.171-0.171-0.342c0-0.171,0-0.342-0.171-0.342c0,0,0,0,0-0.171
		c0.684-2.567-0.856-5.647-3.593-6.331c-2.738-0.684-5.647,0.856-6.331,3.593c-0.856,2.909-0.342,6.16,1.369,8.727
		c1.54,2.224,4.62,3.422,7.016,1.882C364.322,385.58,365.519,382.329,363.979,379.933z"/>
	<path style="fill:#EDEDED;" d="M379.38,378.051c-1.027-2.224-1.882-4.449-2.909-6.673c-1.027-2.396-4.962-3.251-7.016-1.882
		c-2.567,1.711-2.909,4.449-1.882,7.016c1.027,2.224,1.882,4.449,2.909,6.673c1.027,2.396,4.962,3.251,7.016,1.882
		C380.064,383.356,380.578,380.618,379.38,378.051z"/>
	<path style="fill:#EDEDED;" d="M400.94,370.522c-0.513-1.369-1.198-2.224-2.396-3.08c-1.198-1.027-2.567-1.882-3.765-2.909
		c-1.027-0.684-2.738-0.856-3.936-0.513c-1.198,0.342-2.567,1.198-3.08,2.396c-0.684,1.198-1.027,2.567-0.513,3.936
		c0.513,1.369,1.198,2.224,2.396,3.08c1.198,1.027,2.567,1.882,3.765,2.909c1.027,0.684,2.738,0.856,3.936,0.513
		c1.198-0.342,2.567-1.198,3.08-2.396C401.111,373.431,401.454,371.891,400.94,370.522z"/>
	<path style="fill:#EDEDED;" d="M421.816,360.597c-1.198-1.369-2.567-2.567-3.765-3.936c-1.882-1.882-5.476-2.053-7.187,0
		c-1.882,2.053-2.053,5.133,0,7.187c1.198,1.369,2.567,2.567,3.765,3.936c1.882,1.882,5.476,2.053,7.187,0
		C423.699,365.731,423.87,362.651,421.816,360.597z"/>
	<path style="fill:#57455E;" d="M368.428,386.093c-3.08,0-4.791,2.396-5.133,5.133c-0.342,2.909-0.684,5.818-0.856,8.727
		c-0.342,2.738,2.567,5.133,5.133,5.133c3.08,0,4.791-2.396,5.133-5.133c0.342-2.909,0.684-5.818,0.856-8.727
		C373.904,388.489,370.995,386.093,368.428,386.093z"/>
	<path style="fill:#57455E;" d="M312.987,246.121c-10.096,3.765-20.705,7.016-29.945,12.662
		c-9.925,5.989-18.823,13.518-28.063,20.534c-5.133,3.936-0.171,12.834,5.133,8.898c8.556-6.331,16.769-13.176,25.667-18.994
		c9.069-5.989,19.678-9.24,29.945-13.176C321.885,253.65,319.147,243.726,312.987,246.121z"/>
</g>
</svg>
