<?xml version="1.0" encoding="utf-8"?>
<!-- Generator: Adobe Illustrator 21.0.0, SVG Export Plug-In . SVG Version: 6.00 Build 0)  -->
<svg version="1.1" baseProfile="tiny" id="Layer_4" xmlns="http://www.w3.org/2000/svg" xmlns:xlink="http://www.w3.org/1999/xlink"
	 x="0px" y="0px" viewBox="0 0 2000 2000" xml:space="preserve">
<g>
	<path fill="#FECE2F" d="M756.4,1813.6c-576-108-970.2-580.5-568-1019.3c289-315.3,270.8-479.1,785-511.9
		c455.1-29,832.2,282,919.1,751.2C2011.1,1674.2,1448.7,1943.4,756.4,1813.6z"/>
</g>
<g>
	<g>
		<path fill="#FFFFFF" d="M804.4,819l65.7,30l90,25l33.3,4.3c0,0,29.7,60.7,44.3,114.7c14.7,54,28,141,28,141l1.7,36.3l-16.7,3
			c0,0-35.3-14.7-50.7-32.3c-15.3-17.7-36-42-52.3-70.7c-16.3-28.7-48-104.3-48-104.3s-30.7-61.7-33.7-67.3S820.1,830.6,804.4,819z"
			/>
	</g>
	<g>
		<path fill="#FECE2F" d="M993.4,878.3l121,0.3l143.5-14.5l48-8.5l106-17l95-9.5c0,0,85.5-6,113.5-4s79.5,10,79.5,19s-28,10-28,10
			h-18.5c0,0,53,33.5,49.5,40s-18,0-18,0s6.5,11-6,14.5l-24-12l-62-10.5c0,0-27.5,7.5-31.5,7.5s-36.5,14.2-43,18.7
			s-18.7,22.7-18.7,22.7l-138.3,84.7c0,0-62,53-124,86.5s-121,57.3-170,64.2c0,0-5-80.7-18.5-137.2S993.4,878.3,993.4,878.3z"/>
	</g>
	<path fill="#FFFFFF" d="M1691.1,834.3c-16-5.8-48.2-10.6-70.4-12.2c-27.9-2-110.4,3.8-114,4l-95,9.5c-0.1,0-0.1,0-0.2,0l-106,17
		l-47.9,8.5c-3.7,0.4-108.2,12.1-143.3,14.5c-53.8,3.6-120-0.3-120.6-0.3c-1.1-0.1-2,0.4-2.6,1.3c-0.6,0.9-0.7,1.9-0.3,2.9
		c0,0.1,3.1,7.2,7.7,18.4c0.4,1,1.4,1.8,2.5,1.9c13.3,1.1,36,2.5,64.9,2.5c38.7,0,88.3-2.5,141.2-11.6
		c108.1-18.6,395.3-68.2,482.5-50.5c1.5,0.3,3.1-0.6,3.5-2.1C1693.3,836.4,1692.5,834.8,1691.1,834.3z"/>
	<path fill="#1A1A1A" d="M1715.5,914.8c-27.3-10.7-67.1-23-67.5-23.1c-1.6-0.5-3.3,0.4-3.7,2c-0.5,1.6,0.4,3.3,2,3.7
		c0.4,0.1,40,12.3,67.1,22.9c8.4,3.3,9.9,6.7,9.5,8.1c-0.8,2.7-11,1.9-19.3-0.5c-0.1,0-0.1,0-0.2-0.1c-6.8-1.5-59.1-13.8-65-15.2
		c-1.6-0.4-3.2,0.6-3.6,2.2c-0.2,0.8-0.3,2.7,2.2,3.6l0,0c0.1,0,0.3,0.1,0.4,0.1c0.1,0,0.1,0,0.2,0.1c1.5,0.4,4.9,1.2,5.6,1.4l0,0
		c23.1,8.7,54.8,20.6,56.4,28.6c0.1,0.4,0.2,1.2-1,2.4c-3.4,0.2-17.2-5.3-28.3-9.7c-17.2-6.9-36.7-14.7-49-15.7
		c-16-1.3-30.9-2-45.6-2c-22.8,0-64.5,12.2-111.6,32.6c-41.8,18.1-78.8,38.9-96.3,53.8l-6.9-12.7c-0.2-0.3-0.3-0.5-0.6-0.8l-24-22.7
		c-0.8-0.8-2-1-3-0.7c-1.1,0.4-1.8,1.3-2,2.4c0,0.3-4.7,31.2-20.4,46.3c-8.6,8.2-23.3,7.7-38.9,7.2c-14.4-0.5-29.3-1-42.3,4.9
		c-10.7,4.8-18.2,16.9-26.8,30.8c-14.1,22.9-30.1,48.8-65.6,51.6c-23.3,1.9-43.8-6.4-60.8-24.5c-12.8-13.6-18.8-28.1-18.9-28.3
		c-0.2-0.4-0.4-0.8-0.7-1c-2.8-14.6-6-29.8-9.8-45.2c-16.1-65.1-41.9-120.2-49.8-136.5c14.7,1.2,30.8,1.8,47.9,1.8
		c117.4,0,279.6-25.8,319.7-34.3c46.4-9.9,199.3-23,244.2-20.9c45.2,2.1,82.3,8.9,88.2,16.3c0.6,0.7,0.5,1.1,0.5,1.2
		c0,0-1.6,4.7-31.1,5.2c-16.1,0.2-32.1-1-32.3-1c-0.8-0.1-1.6,0.2-2.2,0.7c-0.6,0.5-1,1.3-1,2.1c-0.1,0.9-1.7,21.8-30.2,23.9
		c-1.7,0.1-2.9,1.6-2.8,3.2c0.1,1.7,1.5,2.9,3.2,2.8c24.4-1.8,33.5-16.7,35.4-26.5c5.4,0.3,17.7,1,29.9,0.8
		c31.2-0.4,36.1-5.6,36.9-10.1c0.3-1.4,0.2-3.7-1.7-6c-11.6-14.4-84.3-18.1-92.6-18.5c-45.2-2.1-199.1,11.1-245.8,21.1
		c-46.5,9.9-257.4,43-371,32c0,0,0,0,0,0c0,0,0,0,0,0c-41.5-4-80.7-14.9-113.4-27c-0.2-0.1-0.3-0.2-0.5-0.3
		c-1.1-0.5-2.1-0.9-3.2-1.3l-34-13.9c-18.3-8.3-32.8-15.9-42.2-21.2c-1.4-0.8-3.3-0.3-4.1,1.1c-0.8,1.4-0.3,3.3,1.1,4.1
		c3.5,2,7.6,4.2,12.4,6.7c-0.1,0.8,0.1,1.7,0.7,2.4l19.9,22.9l15.4,21.4c0.6,0.8,1.5,1.2,2.4,1.2c0.6,0,1.1-0.2,1.6-0.5
		c1.3-0.9,1.8-2.6,1-4c-2.5-4.4-6.7-14.5-3.5-18.2c1.2-1.4,5.4-3.6,19.2,0.7c34.9,13.7,78.4,26.9,124.9,31.6
		c4.9,9.7,33.6,68.2,51,138.6c17.1,68.9,22.7,135.4,23.7,148.9c-4.4,0.8-8.6,1.5-12.6,2c-1.6,0.2-2.8,1.8-2.5,3.4
		c0.2,1.5,1.5,2.6,3,2.6c0.1,0,0.3,0,0.4,0c84.9-12.1,166.2-54.6,219.4-88.2c57.6-36.3,95.8-70.2,96.2-70.6
		c33.7-31.6,158.7-87.4,206.7-87.4c14.6,0,29.3,0.6,45.1,2c11.4,1,31.3,8.9,47.2,15.3c24.5,9.8,31,11.9,34.3,8.8
		c3.3-3.1,3.4-6.2,3-8.3c-1.3-6.3-9.6-12-23.7-18.4c9.6,2.2,17.6,4.1,20.1,4.6c0.8,0.2,5.8,1.6,11.1,2.2c8.9,0.9,14.1-1,15.5-5.7
		C1729.2,928.1,1730.1,920.6,1715.5,914.8z"/>
	<g>
		<g>
			
				<ellipse transform="matrix(0.7778 -0.6285 0.6285 0.7778 -469.8905 890.0214)" fill="#FECE2F" cx="1023.9" cy="1109.6" rx="13.6" ry="7"/>
		</g>
		<g>
			
				<ellipse transform="matrix(0.7778 -0.6285 0.6285 0.7778 -354.1728 775.3602)" fill="#FECE2F" cx="919.6" cy="888.6" rx="13.6" ry="7"/>
		</g>
		<g>
			
				<ellipse transform="matrix(9.929132e-02 -0.9951 0.9951 9.929132e-02 -115.4666 1908.8413)" fill="#FECE2F" cx="996.7" cy="1018.2" rx="31.1" ry="10.9"/>
		</g>
		<g>
			<path fill="#FECE2F" d="M957.9,943.1c-2.9-5.3-20.7-1.3-39.8,9c-7.7,4.1-14.5,8.7-19.6,13c0,0.1,0.1,0.1,0.1,0.2
				c3.5,3.4,5.7,8.1,6.2,13.2c0.2,0.8,0.4,1.7,0.5,2.6c6.7-1.9,14.8-5.1,23.1-9.6C947.6,961,960.8,948.4,957.9,943.1z"/>
		</g>
	</g>
	<g>
		<path fill="#1A1A1A" d="M1722.5,898.3c-5.1,0-12-1.1-20-2.9c-1.6-0.3-2.7-1.9-2.3-3.6c0.3-1.6,1.9-2.7,3.6-2.3
			c16.1,3.4,21.1,2.8,22.6,2.4c-3-5.1-30.8-19.5-72.9-35c-1.6-0.6-2.4-2.3-1.8-3.9c0.6-1.6,2.3-2.4,3.9-1.8
			c11.8,4.4,71.1,26.7,76.5,38.6c0.8,1.9,0.6,3.4,0.2,4.3C1731.1,897.1,1727.7,898.3,1722.5,898.3z M1726.6,892.5L1726.6,892.5
			L1726.6,892.5z"/>
	</g>
	<g>
		<path fill="#1A1A1A" d="M1725,922.3c-3,0-6.7-0.5-11.4-1.8c-1.6-0.4-2.5-2.1-2.1-3.7c0.4-1.6,2.1-2.5,3.7-2.1
			c11,3.1,14.7,0.9,15.6,0.1c0.5-0.4,1.1-1.1,0.9-2.6c-0.3-2.3-8.4-9.4-36.8-19.5c-23.5-8.4-40-12.5-40.2-12.6
			c-1.6-0.4-2.6-2-2.2-3.6c0.4-1.6,2-2.6,3.6-2.2c0.2,0,16.9,4.3,40.7,12.7c26.2,9.3,39.9,17.5,40.8,24.4c0.4,3.1-0.6,5.9-2.9,7.9
			C1733,920.9,1730,922.3,1725,922.3z"/>
	</g>
</g>
<g>
	<g>
		<path fill="#1A1A1A" d="M1450.7,1069.8c-3.1,0-6.1-0.4-9-1.2c-11-3-24.2-15.6-26.3-29.5c-1.4-8.9,2.3-16.7,10.4-21.9
			c23.2-15,44.4,5.4,44.6,5.6c1.2,1.2,1.2,3.1,0,4.2c-1.2,1.2-3.1,1.2-4.2,0c0,0-4.6-4.5-11.6-7.3c-9-3.6-17.6-2.8-25.5,2.4
			c-6.1,4-8.7,9.3-7.7,15.9c1.7,11.1,13,22.2,22,24.6c7.7,2.1,15.2,0.4,20.2-1.5c1.6-0.6,3.3,0.2,3.9,1.8c0.6,1.6-0.2,3.3-1.8,3.9
			C1460.6,1068.8,1455.5,1069.8,1450.7,1069.8z"/>
	</g>
	<g>
		<path fill="#FFFFFF" d="M1207.4,1542.6v100.9c0,8.3,6.8,15.1,15.1,15.1H1891c8.3,0,15.1-6.8,15.1-15.1v-103.9L1207.4,1542.6z"/>
	</g>
	<g>
		<path fill="#FFFFFF" d="M1904.9,1530.9l-68.9-141.7c-8.3-15.8-24.7-25.6-42.6-25.6h-14.5h-382h-59.3c-16.9,0-32.5,8.8-41.3,23.3
			l-87.3,144.8c-5.5,9.2,1.1,20.9,11.8,20.9l671.7-1.9C1902.7,1550.7,1909.3,1540.1,1904.9,1530.9z"/>
	</g>
	<g>
		<path fill="#FECE2F" d="M1396.8,1381.3H1375c-14,0-27,7.3-34.2,19.3l-72.4,120.1c-4.6,7.6,0.9,17.3,9.8,17.3l557.1-1.6
			c8.4,0,13.9-8.8,10.2-16.4l-57.1-117.5c-3-5.6-7.2-10.4-12.2-13.9l-89.4-7L1396.8,1381.3z"/>
	</g>
	<g>
		<path fill="#FECE2F" d="M1657.7,1213.9c0,0,21.7,7.7,49.3,27c27.7,19.3,41.7,39.7,45.7,44.7s23.3,42.7,24.7,72
			c1.3,29.3-10.3,66.3-26.3,89c-16,22.7-50,48.7-50,48.7s-16,18-16.8,15.8c-0.8-2.2,3.5-15.8,3-15.8s-12.5,7.8-14.5,5.8
			s-11.3-0.8-10.8-3.3s9.8-10,8.2-12c-1.7-2-14.2-0.5-14.2-3.2c0-2.7,12.7-5,12-7.7c-0.7-2.7-10.8-7.5-9.5-9.8
			c1.3-2.3,17-1.7,17-1.7s17-24.8,16.7-51.2c-0.3-26.3-11-50.7-11-50.7l-66.2,2.2l-123.5-1.8c0,0-14.8,21.8-17.8,35.7
			c-3,13.8-6.8,39.5-3.8,49.5s4,19.2,7,19.7s14.2,1.8,13,4.8s-7.3,4.5-7,6.3c0.3,1.8,10.2,10.7,8.3,12.5c-1.8,1.8-8.5-0.7-8.5-0.7
			s8.5,9.2,6.8,10.8c-1.7,1.7-13.7-5-13.7-5s2.5,8.3,0.7,9.2c-1.8,0.8-22.3-10.7-22.3-10.7s1.5,9.3-0.2,10
			c-1.7,0.7-11.7-6.2-11.7-6.7s-25.7-38-32.8-59.3c-7.2-21.3-12.2-53.8-12.2-55.2c0-1.3,0.7-32.5,0.7-32.5l9.2-33.7
			c0,0,2.5-13.2,11.7-27.7s22.2-30.2,39.3-41.3c17.2-11.2,40-20.5,41.7-21.2c1.7-0.7,36.5-12.5,36.5-12.5s19.2,17.7,65.2,15.7
			S1657.7,1213.9,1657.7,1213.9z"/>
	</g>
	<g>
		<g>
			<path fill="#FFFFFF" d="M1408.1,1312.7c-0.4,1-0.8,2.1-1.3,3c-0.7,1.2-1.3,2.5-2,3.7c-0.6,2-1.3,3.9-1.8,6
				c-0.2,0.8-0.3,1.6-0.5,2.4l0.2-2.1c-0.4,0.8-0.2,2.3-0.3,3.3c-0.1,2.3-0.1,4.5,0,6.8c0.1,2.9-0.5,5.6-1.6,8c1.7,0.6,3.6,1,5.5,1
				c8.8,0,16-7.2,16-16C1422.4,1320.4,1416.1,1313.5,1408.1,1312.7z"/>
		</g>
		<g>
			<circle fill="#FFFFFF" cx="1428.1" cy="1378.2" r="16"/>
		</g>
		<g>
			<circle fill="#FFFFFF" cx="1459.6" cy="1318.6" r="16"/>
		</g>
		<g>
			<path fill="#FFFFFF" d="M1443.7,1258c-0.7,1-1.6,2-2.6,2.8c-2.2,1.8-4.3,3.8-6.2,5.9c-0.5,0.6-1,1.1-1.5,1.7
				c0.4-0.6,0.9-1.1,1.3-1.7c-0.6,0.2-1.8,2.4-2.2,3c-2.5,3.5-5,7-7.7,10.3c2.6,5.5,8.1,9.2,14.5,9.2c8.8,0,16-7.2,16-16
				C1455.4,1266.1,1450.4,1259.9,1443.7,1258z"/>
		</g>
		<g>
			<path fill="#FFFFFF" d="M1480.1,1380c1.3-2.2,2.9-4.2,4.5-6.2c0.3-0.5,0.7-1,1-1.5c2.4-5.1,6.4-8.9,11.3-10.7
				c-2.4-5.8-8.1-9.9-14.8-9.9c-8.8,0-16,7.2-16,16c0,7.6,5.4,14,12.5,15.6C1479,1382.1,1479.5,1381,1480.1,1380z"/>
		</g>
		<g>
			<circle fill="#FFFFFF" cx="1521.5" cy="1302.6" r="16"/>
		</g>
		<g>
			<path fill="#FFFFFF" d="M1537.8,1362.8c-4.4-0.6,3.2,0.2,4,0.2c1.9,0.1,3.8,0.2,5.7,0.2c3.2,0.1,6.4,0.1,9.5,0
				c1.9-2.6,3.1-5.9,3.1-9.4c0-8.8-7.2-16-16-16s-16,7.2-16,16c0,3.1,0.9,6,2.5,8.5C1532.9,1362.2,1535.2,1362.5,1537.8,1362.8z"/>
		</g>
		<g>
			<path fill="#FFFFFF" d="M1598.6,1295.3c-2.1,1.7-4.3,3.3-6.8,4.5c-4.8,2.3-9.2,3.6-14.5,3.9c-0.8,1.9-1.3,4-1.3,6.3
				c0,8.8,7.2,16,16,16s16-7.2,16-16C1608.1,1303.4,1604.2,1297.8,1598.6,1295.3z"/>
		</g>
		<g>
			<path fill="#FFFFFF" d="M1629.2,1364.5c0.6-1.7,0.9-3.5,0.9-5.3c0-8.8-7.2-16-16-16s-16,7.2-16,16c0,1.5,0.2,3,0.6,4.4
				C1608.9,1364,1619,1364.4,1629.2,1364.5z"/>
		</g>
		<g>
			<circle fill="#FFFFFF" cx="1641.1" cy="1322.2" r="16"/>
		</g>
		<g>
			<circle fill="#FFFFFF" cx="1699.4" cy="1331.2" r="16"/>
		</g>
		<g>
			<path fill="#FFFFFF" d="M1690.8,1367.9c-2,0-4,0.4-5.8,1.1c2,3.6,2.6,7.4,2.3,11.4c0,0,0,0.1,0.1,0.1c2.1,3.3,3.5,6.7,4.9,10.3
				c1.1,3,1.3,6,0.6,8.9c7.8-1,13.9-7.7,13.9-15.8C1706.8,1375.1,1699.6,1367.9,1690.8,1367.9z"/>
		</g>
		<g>
			<circle fill="#FFFFFF" cx="1745.6" cy="1357.4" r="16"/>
		</g>
		<g>
			<circle fill="#FFFFFF" cx="1753.4" cy="1410.7" r="16"/>
		</g>
		<g>
			<circle fill="#FFFFFF" cx="1746.1" cy="1300.1" r="16"/>
		</g>
		<g>
			<path fill="#FFFFFF" d="M1713.9,1260.8c-2.2,3.3-5.4,6-9,7.6c-3.3,2.3-7.2,3.7-11.1,3.8c-2.1,0.9-4.3,1.4-6.6,1.5
				c0.6,8.3,7.5,14.9,15.9,14.9c8.8,0,16-7.2,16-16C1719.1,1267.9,1717.1,1263.7,1713.9,1260.8z"/>
		</g>
	</g>
	<g>
		<path fill="#FFFFFF" d="M1469.9,1418.6c0,0,1.2,28.5,0.7,28.7c-0.5,0.2-15.2,0.7-23,5.8s-22.3,12.5-22.3,12.5l-17-33.8
			c0,0,10.5-11.9,31.5-15.3C1458.1,1413.5,1469.9,1418.6,1469.9,1418.6z"/>
	</g>
	<g>
		<path fill="#FFFFFF" d="M1692.1,1420c0,0,34.7-9.3,60.3,24.3l-21,26c0,0-13.3-14-24.3-17s-21.3-6.3-21.3-6.3L1692.1,1420z"/>
	</g>
	<g>
		<path fill="#FECE2F" d="M1602.1,897c-15.3-1.3-40-6.7-55.7-3.3c-15.7,3.3-44.3,18.7-63.7,47.3c-19.3,28.7-14.7,70-14.7,70
			s1.3,37.3-2.7,50.7s-14.7,53.3,14,90c28.7,36.7,62.7,35.3,62.7,35.3l10,0.7l-12.7,26.7c0,0,10,14,55.3,16c45.3,2,63.3-16,63.3-16
			s-18.4-11.2-12.9-23.9s30.5-20.8,48-46s24.8-61,24.8-61s29.5,17.2,46.8-2s6.5-33.2,2-37.2s-24.2-8.8-40.8,3.8
			c0,0,7.5-45.2-3.8-73.2s-24.2-44.5-52.8-62.8S1602.1,897,1602.1,897z"/>
	</g>
	<g>
		<path fill="#FFFFFF" d="M1659.9,1214.4c0,0,28.8,16,31,16.5s27.8,19,27.8,19s-3,12.5-5.5,15s-8,6.5-17.2,7.8s-14.5,0.8-19,8
			s-13.8,18.2-19.2,18s-37-11.8-45.5-7.5s-34,15-44.5,13.5s-31.8-8-41-14.5s-19.5-7-25-6.2s-23.2-1.2-27-10.2s-7.8-21.2-1-33.8
			l26.4-12.9l36.5-12.5c0,0,19.5,18.4,65.2,15.7C1647.4,1227.4,1659.9,1214.4,1659.9,1214.4z"/>
	</g>
	<path fill="#1A1A1A" d="M1718.8,1205.4c-2.8-2.1-7.3-3.1-12.6-3.3c7.3-3.3,13.3-7.4,15.8-12.5c1.5-3,2.5-7.7-1-13.5
		c-2-3.4-5.2-5.5-9.2-6c-19.5-2.6-56.8,32.4-60.9,36.4c-1.2,1.1-1.2,3-0.1,4.2c0.7,0.8,1.7,1.1,2.7,0.9c0.2,1.5,1.5,2.5,3,2.5
		c0.1,0,0.2,0,0.3,0c0.4,0,1.1-0.1,1.9-0.2c0.3,0.7,0.9,1.2,1.6,1.5c3.3,1.3,26.4,10.3,43.4,10.3c5.2,0,9.8-0.8,13.1-3
		c3.4-2.2,5.3-5.7,5.4-10C1722.3,1209.8,1721.1,1207.2,1718.8,1205.4z M1709.5,1176c0.5,0,1,0,1.5,0.1c2.2,0.3,3.8,1.3,4.9,3.1
		c1.7,2.9,2,5.4,0.8,7.8c-3,6-14.5,11.7-32.5,16.1c-11.1,2.7-21.7,4.3-26,4.8C1670.4,1196.7,1696,1176,1709.5,1176z M1713.5,1217.7
		c-4.6,3-15,2.7-29.3-1c-4.6-1.2-9-2.5-12.6-3.7c16.6-4.1,37.9-7.3,43.6-2.9c0.8,0.6,1.1,1.3,1.1,2.4
		C1716.1,1214.9,1715.2,1216.6,1713.5,1217.7z"/>
	<path fill="#1A1A1A" d="M1762.1,1055.7c-11.1-9.9-29-0.8-29.7-0.4c-1.5,0.8-2,2.6-1.3,4c0.5,1,1.6,1.6,2.7,1.6
		c0.5,0,0.9-0.1,1.4-0.3c0.1,0,5-2.5,10.7-3.3c-0.9,3.5-2.8,9.1-6.3,12c-1.3,1.1-1.4,3-0.4,4.2c0.6,0.7,1.4,1.1,2.3,1.1
		c0.7,0,1.4-0.2,1.9-0.7c5.4-4.5,7.7-12.6,8.6-16.6c2.2,0.4,4.3,1.3,6.1,2.9c1.2,1.1,3.1,1,4.2-0.2
		C1763.4,1058.7,1763.3,1056.8,1762.1,1055.7z"/>
	<g>
		<path fill="#1A1A1A" d="M1525.3,1160.8c-1.7-2.1-3-4.4-4.1-6.9c-1-2.5-1.8-5.3-1.7-8.3c0-1.5,0.3-3.1,1-4.6c0.6-1.5,1.6-3,2.9-4.1
			c1.3-1.1,2.5-1.9,4.2-2.6c1.7-0.6,3.4-0.7,5-0.5c1.6,0.2,3.1,0.6,4.4,1.2c1.4,0.6,2.6,1.3,3.7,2c2.3,1.5,4.3,3.3,6.2,5.1
			c3.7,3.8,6.8,7.8,9.4,12.3c0.3,0.6,0.1,1.3-0.4,1.6c-0.5,0.3-1.1,0.2-1.4-0.2l0,0c-3.5-3.5-7-7.1-10.8-10.1
			c-1.9-1.5-3.8-2.9-5.8-4c-1-0.6-2-1-3-1.4c-1-0.4-2-0.6-2.9-0.7c-0.9-0.1-1.7,0-2.4,0.3c-0.7,0.3-1.6,0.8-2.2,1.4
			c-1.3,1.1-2,2.7-2.3,4.7c-0.3,2,0,4.3,0.5,6.6c0.5,2.3,1.2,4.6,2,6.9l0,0.1c0.2,0.7-0.1,1.4-0.8,1.7
			C1526.2,1161.4,1525.7,1161.2,1525.3,1160.8z"/>
	</g>
	<g>
		<path fill="#1A1A1A" d="M1563.2,1058.4c-3.3,0-12.1-0.4-17-5c-2.1-1.9-3.2-4.4-3.3-7.2c-0.3-10.2,7.3-11.8,12.8-12.9
			c2.7-0.5,5.5-1.1,7.5-2.4c4.6-3,1.5-9.9,1.4-10c-0.7-1.5,0-3.3,1.5-4c1.5-0.7,3.3,0,4,1.5c1.8,4,3.5,12.8-3.6,17.5
			c-3,2-6.5,2.7-9.6,3.3c-6.1,1.2-8.1,1.9-8,6.8c0,1.2,0.5,2.2,1.4,3c3.3,3,11.2,3.4,13.8,3.3c1.7-0.1,3.1,1.2,3.1,2.9
			c0.1,1.7-1.2,3.1-2.9,3.1C1564.1,1058.4,1563.7,1058.4,1563.2,1058.4z"/>
	</g>
	<g>
		<path fill="#1A1A1A" d="M1648.6,1023.8c-0.4,0-0.9-0.1-1.3-0.3c-23.2-10.9-46.7-4.4-46.9-4.3c-1.6,0.5-3.3-0.5-3.7-2.1
			c-0.5-1.6,0.5-3.3,2.1-3.7c1-0.3,25.9-7.2,51.1,4.7c1.5,0.7,2.1,2.5,1.4,4C1650.8,1023.2,1649.7,1023.8,1648.6,1023.8z"/>
	</g>
	<g>
		<path fill="#1A1A1A" d="M1609.3,977.1c0.9-0.1,1.6-0.2,2.4-0.2c0.8,0,1.5-0.1,2.2-0.1c1.5,0,3,0.1,4.5,0.2
			c1.5,0.2,3.1,0.5,4.6,0.9c1.5,0.5,3.1,1.2,4.5,2.1c1.4,0.9,1.8,2.9,0.8,4.3c-0.8,1.2-2.2,1.6-3.5,1.2l-0.4-0.1
			c-0.9-0.3-1.9-0.5-2.9-0.5c-1,0-2.2,0-3.3,0.2c-1.1,0.1-2.3,0.4-3.4,0.7c-0.6,0.1-1.1,0.3-1.7,0.5c-0.5,0.2-1.2,0.4-1.5,0.5
			c-2.5,1.2-5.6,0.2-6.8-2.3c-1.2-2.5-0.2-5.6,2.3-6.8c0.5-0.2,0.9-0.4,1.4-0.5L1609.3,977.1z"/>
	</g>
	<g>
		<path fill="#1A1A1A" d="M1543.9,1126.6c-0.8,0-1.7-0.3-2.2-1c-11.7-13.1-11.2-19.1-9.9-21.5c1.6-2.9,4.7-3.9,7.7-4.9
			c3.5-1.2,7.2-2.3,9.3-6.5c1.8-3.6,2.2-6.5,2.6-8.9c0.5-3.2,1.2-7.3,6.3-7.8c5.4-0.5,17.5,3.8,19.8,4.7c1.6,0.6,2.3,2.3,1.8,3.9
			s-2.3,2.3-3.9,1.8c-5-1.8-14-4.6-17.2-4.3c-0.2,0-0.3,0-0.3,0.1c-0.2,0.4-0.4,1.7-0.6,2.7c-0.4,2.6-1,6.2-3.2,10.6
			c-3.2,6.4-8.7,8.2-12.8,9.5c-1.9,0.6-3.8,1.2-4.3,2c-0.3,1.9,4,8.8,9.1,14.6c1.1,1.2,1,3.1-0.3,4.2
			C1545.4,1126.4,1544.6,1126.6,1543.9,1126.6z"/>
	</g>
	<path fill="#1A1A1A" d="M1543.1,1065.6c-4.5-2.8-9.2-5.7-11.1-7.6c-1.7-1.7,0.6-8.6,2.3-13.6c1.6-4.8,3.3-9.8,3.5-14.1
		c0.6-11.2-15.3-24.5-17.1-26c-0.7-0.6-1.6-0.8-2.5-0.6c-0.9,0.2-1.6,0.7-2.1,1.5l-20.9,39.4c-8.2,12.5-18,26.2-20.4,28.2
		c-0.7,0.2-1.2,0.7-1.6,1.4c-0.5,1-0.5,2.1,0.1,3c6.9,11.1,22.4,7.4,31.7,5.1c2.5-0.6,4.7-1.1,6-1.2c3,0.2,12.7,12.4,20.7,26
		c0.5,0.8,1.4,1.4,2.3,1.5c0.1,0,0.2,0,0.2,0c0.9,0,1.7-0.4,2.3-1.1c0.1-0.1,7.1-8.5,10.8-11.8c4.3-3.8,9.9-12.8,9.9-17.6
		C1557.4,1074.8,1553.5,1072,1543.1,1065.6z"/>
	<path fill="#1A1A1A" d="M1653.3,898.8c-1.1-1.5-27.1-36-60.5-41.2c-25-3.8-47.8-1.5-57.9,6.1c-3.1,2.3-4.9,5-5.3,8
		c-1.5,10.3,5.2,15.4,9.2,18.4c1,0.7,2.4,1.8,2.8,2.4c-0.5,1.1-1.6,2.6-2.7,4.1c-4.2,5.8-10.6,14.5-5.7,24.8
		c5.4,11.3,20.6,16.1,41.6,13.2c7-1,7.9,1.1,9.6,4.7c1.7,3.8,4,8.8,13.1,8.8c0.5,0,1,0,1.6,0c17.8-1,50.5-41.1,54.2-45.6
		C1654.1,901.5,1654.2,899.9,1653.3,898.8z"/>
	<g>
		<path fill="#1A1A1A" d="M1680.8,1366.6h-189.8c-1.7,0-3-1.3-3-3s1.3-3,3-3h189.8c1.7,0,3,1.3,3,3S1682.4,1366.6,1680.8,1366.6z"/>
	</g>
	<path fill="#1A1A1A" d="M1907.6,1529.6l-68.9-141.7c0,0,0-0.1,0-0.1c-8.9-16.8-26.2-27.2-45.2-27.2h-14.5c-1.7,0-3,1.3-3,3
		s1.3,3,3,3h14.5c16.8,0,32.1,9.2,39.9,24l68.8,141.6c1.6,3.3,1.4,7.2-0.5,10.4s-5.4,5-9.1,5.1l-671.7,1.9c0,0,0,0,0,0
		c-3.9,0-7.4-2-9.4-5.5c-1.9-3.4-1.9-7.5,0.1-10.9l87.3-144.8c8.1-13.5,23-21.8,38.7-21.8h59.3c1.7,0,3-1.3,3-3s-1.3-3-3-3h-59.3
		c-17.8,0-34.6,9.5-43.8,24.7l-87.3,144.8c-2.3,3.8-3,8.1-2,12.3c0,0.1,0,0.1,0,0.2v100.9c0,10,8.1,18.1,18.1,18.1H1891
		c10,0,18.1-8.1,18.1-18.1v-103.9c0-0.1,0-0.2,0-0.3C1909.5,1536.1,1909.1,1532.7,1907.6,1529.6z M1220.8,1555.6
		C1220.8,1555.6,1220.9,1555.6,1220.8,1555.6l671.7-1.9c3.9,0,7.6-1.4,10.6-3.8v37c-8.3,15.7-39.5,41.5-154.7,35.7
		c-159-8-177.1-45.1-263-37c-84.6,8-76.1,54.5-275,51.4v-85C1213.3,1554.3,1216.9,1555.6,1220.8,1555.6z"/>
	<g>
		<path fill="#1A1A1A" d="M1645.1,1464.3c-0.5-8-6.3-15.3-9.1-17.7c-2.4-2-6.3-2.1-10.8-2.1c-3.2,0-6.9-0.1-8.7-1
			c-1.4-0.7-3.4-3-5.4-5.2c-4.1-4.6-9.3-10.4-15.9-11.5c-7.8-1.3-35.2-3.8-40.8-1.6c-2.1,0.8-5.2,2.9-9.1,5.5
			c-4.6,3.1-11.5,7.8-14.1,8c-0.9,0.1-1.9,0.1-3,0.2c-8.5,0.6-15.9,1.4-19,5.5c-1.9,2.5-6.3,9.1-6.8,16.4c-0.2,3.5-0.4,7.4-0.2,11
			c-0.2,4.5,0.5,8.8,2.8,10.8c1,1,3,2.8,28.3,4.3c14.4,0.9,30.2,1.3,39.4,1.3c3.2,0,7.3,0.1,12.1,0.1c7.4,0.1,14,0.2,19.9,0.2
			c17.9,0,29.1-0.6,34.2-2.6c0.9-0.3,1.6-0.7,2.2-1.2c0,0,0,0,0,0c3.3-2.7,3.8-7.6,3.9-10.3c0,0,0,0,0-0.1
			C1645.4,1470.2,1645.2,1466.1,1645.1,1464.3z M1584.8,1482.3c-4.8-0.1-8.9-0.1-12.1-0.1c-13,0-29.4-0.6-42.4-1.5
			c0.9-0.2,1.9-0.4,2.8-0.6c13.8-2.7,29.5-5.7,39.5-5.7c7.1,0,20.1,3.2,32.6,6.2c2.6,0.6,5.1,1.2,7.4,1.8
			C1602.5,1482.5,1591.6,1482.4,1584.8,1482.3z"/>
		<path fill="#FFFFFF" d="M1626.9,1464.2c-5.2-0.1-10-0.1-13.1-1.6c-2.6-1.3-4.9-4.3-7.5-7.8c-3.4-4.5-7.7-10.1-12-10.8
			c-9-1.5-34.1-0.9-37.8,0.5c-1.4,0.6-4.7,2.8-7.9,4.9c-7.5,5.1-13.1,8.7-16.9,9c-1,0.1-2.3,0.2-3.9,0.3c-3.9,0.2-15.6,0.9-17.3,3.1
			v0c-2.4,3.2-3.2,14.3-1.7,16.4c4.6,2.1,40,4.1,63.8,4.1c3.2,0,7.4,0.1,12.1,0.1c14.5,0.2,48.5,0.7,52.5-2.2
			c0.8-0.7,1.6-2.7,1.7-5.7c0-3.9-1.3-7.8-3.2-9.4C1634.7,1464.3,1630,1464.3,1626.9,1464.2z"/>
		<g>
			<g>
				<path fill="#1A1A1A" d="M1560.9,1487.6c-0.1,2.5-0.9,4.9-2,7c-1.2,2.1-2.8,3.9-4.6,5.2c-3.7,2.7-7.9,4.1-12.2,4.1
					c-4.3,0.1-8.6-1.5-11.9-4.4c-3.4-2.9-5.7-7.2-6.1-11.9c-0.2-2.4,0-4.8,0.8-7.2c0.8-2.3,2-4.6,3.6-6.5c3.3-3.8,8.4-6.3,13.6-6.4
					c2.6-0.1,5.3,0.4,7.7,1.5c2.4,1,4.6,2.6,6.3,4.5C1559.6,1477.5,1561.3,1482.7,1560.9,1487.6z M1552.6,1487.6
					c-0.3-2.8-1.8-5.2-3.8-6.7c-2-1.6-4.3-2.5-6.7-2.6c-2.5-0.1-5,0.6-7.1,2.2c-2.1,1.6-3.7,4.1-4.2,7.1c-0.2,1.5-0.1,3,0.3,4.6
					c0.4,1.5,1.2,3,2.2,4.2c2.1,2.5,5.4,4.1,8.8,4.2c1.7,0,3.4-0.4,4.9-1.2c1.5-0.8,2.7-2,3.6-3.3
					C1552.5,1493.5,1552.9,1490.4,1552.6,1487.6z"/>
			</g>
			<path fill="#FFFFFF" d="M1547,1499.5c1.5-0.8,2.7-2,3.6-3.3c1.8-2.7,2.3-5.8,2-8.5c-0.3-2.8-1.8-5.2-3.8-6.7
				c-2-1.6-4.3-2.5-6.7-2.6c-2.5-0.1-5,0.6-7.1,2.2c-2.1,1.6-3.7,4.1-4.2,7.1c-0.2,1.5-0.1,3,0.3,4.6c0.4,1.5,1.2,3,2.2,4.2
				c2.1,2.5,5.4,4.1,8.8,4.2C1543.8,1500.7,1545.5,1500.3,1547,1499.5z"/>
		</g>
		<g>
			<g>
				<path fill="#1A1A1A" d="M1618,1487.6c-0.1,2.5-0.9,4.9-2,7c-1.2,2.1-2.8,3.9-4.6,5.2c-3.7,2.7-7.9,4.1-12.2,4.1
					c-4.3,0.1-8.6-1.5-11.9-4.4c-3.4-2.9-5.7-7.2-6.1-11.9c-0.2-2.4,0-4.8,0.8-7.2c0.8-2.3,2-4.6,3.6-6.5c3.3-3.8,8.4-6.3,13.6-6.4
					c2.6-0.1,5.3,0.4,7.7,1.5c2.4,1,4.6,2.6,6.3,4.5C1616.6,1477.5,1618.3,1482.7,1618,1487.6z M1609.6,1487.6
					c-0.3-2.8-1.8-5.2-3.8-6.7c-2-1.6-4.3-2.5-6.7-2.6c-2.5-0.1-5,0.6-7.1,2.2c-2.1,1.6-3.7,4.1-4.2,7.1c-0.2,1.5-0.1,3,0.3,4.6
					c0.4,1.5,1.2,3,2.2,4.2c2.1,2.5,5.4,4.1,8.8,4.2c1.7,0,3.4-0.4,4.9-1.2c1.5-0.8,2.7-2,3.6-3.3
					C1609.5,1493.5,1609.9,1490.4,1609.6,1487.6z"/>
			</g>
			<g>
				<path fill="#1A1A1A" d="M1618,1487.6c-0.1,2.5-0.9,4.9-2,7c-1.2,2.1-2.8,3.9-4.6,5.2c-3.7,2.7-7.9,4.1-12.2,4.1
					c-4.3,0.1-8.6-1.5-11.9-4.4c-3.4-2.9-5.7-7.2-6.1-11.9c-0.2-2.4,0-4.8,0.8-7.2c0.8-2.3,2-4.6,3.6-6.5c3.3-3.8,8.4-6.3,13.6-6.4
					c2.6-0.1,5.3,0.4,7.7,1.5c2.4,1,4.6,2.6,6.3,4.5C1616.6,1477.5,1618.3,1482.7,1618,1487.6z M1609.6,1487.6
					c-0.3-2.8-1.8-5.2-3.8-6.7c-2-1.6-4.3-2.5-6.7-2.6c-2.5-0.1-5,0.6-7.1,2.2c-2.1,1.6-3.7,4.1-4.2,7.1c-0.2,1.5-0.1,3,0.3,4.6
					c0.4,1.5,1.2,3,2.2,4.2c2.1,2.5,5.4,4.1,8.8,4.2c1.7,0,3.4-0.4,4.9-1.2c1.5-0.8,2.7-2,3.6-3.3
					C1609.5,1493.5,1609.9,1490.4,1609.6,1487.6z"/>
			</g>
			<path fill="#FFFFFF" d="M1609.6,1487.6c-0.3-2.8-1.8-5.2-3.8-6.7c-2-1.6-4.3-2.5-6.7-2.6c-2.5-0.1-5,0.6-7.1,2.2
				c-2.1,1.6-3.7,4.1-4.2,7.1c-0.2,1.5-0.1,3,0.3,4.6c0.4,1.5,1.2,3,2.2,4.2c2.1,2.5,5.4,4.1,8.8,4.2c1.7,0,3.4-0.4,4.9-1.2
				c1.5-0.8,2.7-2,3.6-3.3C1609.5,1493.5,1609.9,1490.4,1609.6,1487.6z"/>
		</g>
	</g>
	<g>
		
			<ellipse transform="matrix(0.9845 -0.1755 0.1755 0.9845 -163.7875 305.3202)" fill="#FFFFFF" cx="1644.5" cy="1078.8" rx="41.9" ry="20.6"/>
	</g>
	<path fill="#1A1A1A" d="M1716.2,1244.2c-19.6-14.3-34.8-22.4-45.9-28.4c-13.7-7.4-20.6-11-22.5-18.4c-1.9-7.2,3-11.1,14.3-19.2
		c7-5,15.6-11.2,24.5-20.5c19.2-20.1,30.4-57.7,33.7-70.3c5.8,3.4,17.5,8.7,30.3,5.6c11.1-2.7,24.6-14.8,27.2-28.7
		c1.6-8.9-1.8-16.7-9.7-22.2c-15.2-10.5-30-5.1-38.2-0.3c2.8-16.4,6.3-56.4-16.4-92.3c-13.4-21.2-32.9-37.7-57.8-49.2
		c-20.3-9.3-43.6-14.7-65.6-15.2c-17.9-0.4-38,3-55.1,9.4c-22.2,8.3-39.7,21.4-50.6,38.1c-20.2,30.8-21.8,61.7-19.6,82.3
		c1.7,16,0.9,32.2-2.3,48.2c-3.7,18-5,32.6-3.9,43.5c4.2,42.1,35,64.2,52.9,73.7c15.9,8.4,27.3,10.5,36.8,10.7
		c-0.8,4.8-4.2,16.2-17.9,21.9c-2.8,1.2-6.7,2.5-11.2,4.1c-27,9.4-77.2,27-101.6,70.5c-30.7,54.9-31.6,109.7-2.7,167.5
		c23.8,47.6,33.2,53.3,38.2,53.4c2.2,0,4-1,5.1-3c0.3-0.6,0.8-1.4,0.2-4.1c6,4.2,12.8,7.9,17.4,7.9c1,0,1.9-0.2,2.7-0.6
		c1.6-0.8,2.5-2.1,2.7-3.8c0.1-0.5,0-1-0.1-1.5c8.2,4.2,10.1,2.8,11,2c1-0.7,1.5-1.9,1.5-3.1c0-1.7-1.1-3.9-3-6.3
		c1.1,0.1,2,0.1,2.7-0.1c1.1-0.4,1.9-1.1,2.3-2.1c0.6-1.4,1.8-4.1-9.2-14.3c2.4-1.1,5-2.7,6.1-5.1c0.8-1.7,0.8-3.7-0.1-5.5
		c-2.1-4.2-6.3-3.9-9.2-3.7c-3.4,0.2-4.8,0.1-5.8-2.1c-3.5-7.1-8.8-35.1-0.6-62.5c5.2-17.6,12.6-28.9,19.8-39.8
		c2.5-3.8,5.1-7.8,7.5-11.9c0.8-1.4,0.4-3.3-1.1-4.1c-1.4-0.8-3.3-0.4-4.1,1.1c-2.3,4-4.8,7.7-7.3,11.6c-7.4,11.3-15,23-20.5,41.4
		c-4.7,15.8-4.9,31-4.3,41c0.2,2.4,0.4,4.7,0.6,6.9c-3.2,0.1-8.7,0.6-15,2.1c-11.3,2.6-20.4,7.5-26.8,14.1
		c-1.7-3.2-3.5-6.8-5.4-10.6c-14.7-29.4-21.4-57.3-20.4-85.1c0.9-25.7,8.5-50.8,23-76.7c11.1-19.8,28-34,45.5-44.5
		c-0.6,2.4-1.1,5.2-1.3,8.4c-0.7,11.3,3.2,20.6,11.4,27c7.4,5.8,15.5,5.6,23.3,5.4c7.1-0.2,13.7-0.3,20.5,3.5l2.7,1.5
		c14.4,8.2,27.1,15.4,43.6,15.4c2.7,0,5.4-0.2,8.3-0.6c7.4-1,14.4-4.1,21.1-7.1c8.6-3.8,16.6-7.3,23.8-5.6c3.8,0.9,7.7,2.2,11.5,3.5
		c10,3.3,20.3,6.8,29.9,3.1c5.2-1.9,8.4-7.1,11.4-12c3.7-6.1,7.2-11.9,14.2-12.4c15.5-1.3,25.6-3,32.3-20.7
		c37.2,30.8,56.6,74.7,53.3,122.2c-2.3,33.9-20.8,66.7-43.3,90.5c-12.6-17.8-32.1-22.4-40.6-23.6c4.3-11.8,7.2-27.8,4.1-47.5
		c-6.3-39.4-20.7-52.3-21.3-52.8c-1.2-1.1-3.1-0.9-4.2,0.3c-1.1,1.2-1,3.1,0.3,4.2c0.1,0.1,13.4,12.3,19.3,49.2
		c3.3,20.5-0.5,36.8-5.1,47.9c0,0,0,0,0,0.1c-3.5,8.5-7.5,14-9,15.9c-0.6,0-1.5-0.1-2.2-0.1c-11.4-0.8-16.7-0.5-18.2,3.2
		c-1.9,4.6,4,7.2,8.8,9.3c0.4,0.2,0.9,0.4,1.3,0.6c-1,0.4-2.2,0.9-3.1,1.3c-6.9,2.8-12.4,5-11.6,9.2c0.8,4.4,6.7,4.1,14.2,3.6
		c0.8,0,1.8-0.1,2.7-0.1c-0.7,0.7-1.4,1.4-2.1,2c-5.5,5.3-9.4,9.1-7.4,12.7c0.5,0.9,1.4,1.6,2.5,1.8c0.8,0.2,1.9,0.1,3.3-0.3
		c-1.8,2.6-1.8,3.6-1.7,4.1c0,1,0.4,1.9,1.2,2.6c2.7,2.3,5.8,0,14.3-6.3c2.2-1.6,5.2-3.8,7.6-5.5c-0.4,0.7-0.7,1.4-1.1,1.9
		c-2.9,5.2-6.2,11.2-1.8,14.1c0.5,0.3,1.2,0.8,2.3,0.8c2.8,0,8.4-2.9,19.9-18c35.7-21.7,73.4-70,76.9-120.6
		C1783.6,1325,1760.4,1276.3,1716.2,1244.2z M1468.2,1452.7c1.1,6.2,2.6,10.6,3.7,13c3,6,8.4,5.6,11.6,5.4c2.8-0.2,3.2,0,3.4,0.4
		c0.1,0.1,0.1,0.2,0.1,0.2c-0.2,0.9-3.6,2.7-7.2,3.5c-1.1,0.2-2,1.1-2.3,2.2c-0.3,1.1,0.1,2.3,0.9,3c3.2,2.8,6.3,5.8,8.5,8.1
		c-2.3-1-5.1-2.4-7.7-3.8c-1.3-0.8-3-0.4-3.9,0.9c-0.9,1.3-0.7,3,0.5,4c3.5,3.1,7,6.5,9.2,9.1c-4.4-2.2-11.2-6.5-17-10.6
		c-1.3-0.9-3.2-0.7-4.1,0.6c-1,1.3-0.8,3.1,0.5,4.1c4.5,3.6,8.8,8.1,10.2,10.4c-3.6-0.7-12.6-6.2-20.8-12.8c-1.1-0.9-2.6-0.9-3.7,0
		s-1.5,2.3-0.9,3.6c1.2,2.7,2.5,6.1,3.1,8.1c-2.2-1-9-6.4-23.8-33.6C1440.1,1454.7,1461.7,1452.9,1468.2,1452.7z M1464.4,1106
		c-1-10.1,0.3-24.5,3.8-41.7c3.4-16.6,4.2-33.4,2.4-50c-2.1-19.6-0.6-49.1,18.7-78.3c24.1-36.6,74.6-45.4,100.6-44.8
		c21.2,0.5,43.7,5.7,63.3,14.7c23.9,11,42.5,26.8,55.3,46.9c27.4,43.3,14.3,94.6,14.1,95.1c-0.3,1.3,0.2,2.7,1.4,3.3
		s2.6,0.5,3.6-0.4c0.2-0.2,18.5-16.7,37.3-3.7c6,4.1,8.4,9.6,7.2,16.2c-2,11-13.7,21.8-22.7,23.9c-14.9,3.6-28.8-6.9-29-7
		c-0.8-0.6-1.9-0.8-2.8-0.4c-1,0.3-1.7,1.2-1.9,2.1c-0.1,0.5-11.6,49-33.2,71.6c-8.5,8.9-16.9,14.9-23.7,19.8
		c-11.3,8.2-19.5,14-16.6,25.5c1.7,6.7,6.2,11,13.4,15.4c-7.2,4.4-26.7,14-58.9,13c-29.1-0.9-46.3-8.1-54-12.3
		c26.5-9.1,36.8-14.7,37.9-20.5c0.7-4.2-0.7-6.7-2.1-8c-3.6-3.5-9.8-2.7-11.2-2.5c-2.4,0.1-4.8,0.3-7.3,0.5c-11.8,1-23.9,2-45.7-9.5
		C1493.5,1164.1,1468.1,1143.3,1464.4,1106z M1687.9,1270c-10.1,0.8-14.9,8.9-18.8,15.3c-2.6,4.3-5,8.3-8.4,9.5
		c-7.6,3-16.5,0-25.8-3.2c-3.9-1.3-7.9-2.7-12-3.6c-9.1-2.2-18.1,1.8-27.6,6c-6.4,2.8-12.9,5.7-19.5,6.6
		c-18.7,2.6-31.6-4.8-48.1-14.1l-2.7-1.5c-8.2-4.6-16.4-4.4-23.6-4.3c-7.4,0.2-13.7,0.3-19.4-4.1c-6.6-5.2-9.6-12.5-9.1-21.8
		c0.4-7.1,2.9-12.8,3-13c0.1-0.1,0.1-0.2,0.1-0.3c16.7-8.9,33.2-14.7,45.1-18.9c4.6-1.6,8.6-3,11.5-4.2c0.5-0.2,0.9-0.4,1.4-0.6
		c0.3,0,0.7-0.1,1-0.2c0,0,0.1,0,0.1-0.1c4.8,3.4,23.5,14.6,61.2,15.7c1.7,0.1,3.3,0.1,4.9,0.1c35.5,0,55.2-12.3,60-15.7
		c2,1.1,4,2.2,6.3,3.4c11,5.9,25.9,13.9,45.2,28c1,0.7,2,1.5,3,2.3C1710.4,1266.7,1703.8,1268.7,1687.9,1270z M1699.4,1493.6
		c-0.3,0.2-0.6,0.5-0.8,0.8c-4.5,6-9.7,11.7-12.9,14.4c0.7-1.5,1.6-3.1,2.2-4.3c2.8-5,5-9,2.4-11.8c-2.3-2.5-5.7-1-11.8,3.3
		c0.7-0.7,1.4-1.4,2.1-2c1.1-1.1,1.3-2.9,0.2-4.1c-1-1.2-2.8-1.4-4.1-0.5c-3,2.2-6.4,4.5-9.4,6.3c0.3-0.3,0.5-0.5,0.7-0.7
		c4.9-4.7,7.6-7.3,5.9-10.2c-1.4-2.5-4.6-2.3-11.1-2c-1,0.1-2.3,0.1-3.5,0.2c1.3-0.5,2.5-1,3.5-1.4c6.2-2.5,9.6-3.9,9.3-7.1
		c-0.3-2.7-3.1-3.9-7.3-5.8c-0.8-0.3-1.9-0.8-2.9-1.3c3.2-0.1,7.7,0.2,9.5,0.3c4,0.3,4.8,0.3,5.9-0.5c0.1-0.1,5.5-6,10.4-16.8
		c6.4,0.7,26.7,4.4,38.7,22.2C1717.6,1480.9,1708.4,1488.1,1699.4,1493.6z"/>
</g>
<g>
	<path fill="#FFFFFF" d="M241.4,1273.6c-0.4,1.3-1.5,2.2-2.8,2.2c-11.9,59.6-19,113.2-20.5,124.9c87,54.8,201,115,324.8,171.5
		c96.7,44.1,191.1,82.2,274.7,111c1.7-8,7-32.6,8.1-34.9c1.2-2.4,14.6-94.7,17.5-114.4c-0.4-0.2-0.7-0.4-1.1-0.6
		c-1.4-0.8-2-2.6-1.2-4.1c0.6-1.1,1.8-1.7,3-1.5l7.8-101.4l-73.3-15.3c0,0,35.3-30,51.3-47s62-81.7,62-81.7s24.7-43.3,40.7-89.3
		s22-111.3,22-111.3l-27.3-52l-34-73c0,0-77.3,3.7-185.3-42.3c-108-46-179-145-179-145s-46.3,50.3-89,98.3
		c-42.7,48-97.3,131.3-97.3,131.3s-61.3,108.7-86,199.3c-6.3,23.2-11.9,47.8-16.8,71.7C241,1270.6,241.8,1272.1,241.4,1273.6z"/>
	<g>
		
			<ellipse transform="matrix(0.172 -0.9851 0.9851 0.172 241.0825 1332.0914)" fill="#FFFFFF" cx="912.9" cy="522.6" rx="17.3" ry="36.3"/>
		<path fill="#1A1A1A" d="M942.1,512.5c-6.6-4.7-15.7-8.2-25.7-9.9c-21.7-3.8-40.3,2-42.2,13.3c-1,5.8,2.4,11.8,9.6,16.9
			c6.6,4.7,15.7,8.2,25.7,9.9c4.5,0.8,8.8,1.2,12.9,1.2c15.7,0,27.8-5.5,29.3-14.4C952.7,523.6,949.3,517.7,942.1,512.5z
			 M887.3,527.8c-5.1-3.6-7.7-7.6-7.2-10.9c0.9-5.2,10.1-9.5,23.3-9.5c3.7,0,7.7,0.3,12,1.1c9.1,1.6,17.4,4.8,23.2,8.9
			c0,0,0.1,0,0.1,0.1c-13,0.5-22.8,4.9-24.1,11.9c-0.5,2.7,0.4,5.5,2.4,8.2c-2.1-0.2-4.3-0.4-6.6-0.8
			C901.3,535.2,893.1,532,887.3,527.8z"/>
	</g>
	<g>
		<path fill="#FECE2F" d="M865.1,445c0,0,28.3,39.7,39,60.3c10.7,20.7,16.7,38.7,16.7,38.7s14,8,22.7,8.7c8.7,0.7,15.7,1.3,15,8
			c-0.7,6.7-8.7,13.3-13,15c-4.3,1.7-22,5-22,5s-8.7,50-35.3,68.3c-26.7,18.3-58.7,17.3-58.7,17.3l-35.7-2L767.4,794
			c0,0,24,13,37,25s47.3,51,60.7,77c13.3,26,28,60.7,28,60.7s-24.3-1.3-25.3-1.3s-42-3.3-43.3-3.7c-1.3-0.3-75.7-20.7-76-21.7
			c-0.3-1-71.3-32-71.3-32l-61.7-40.7c0,0-52.7-44.3-63.7-58.3s-23-29.7-23-29.7s41.7-46.7,59.7-71.3c18-24.7,63.3-91.7,63.3-91.7
			s35.3-45.7,35-59.3c-0.3-13.7-12.7-18.7-14.7-25c-2-6.3-2.3-43,24.3-57c26.7-14,38.7,6,38.7,6s9.7,23.3,18.7,23.7s54-17,54-17
			L865.1,445z"/>
	</g>
	<g>
		<path fill="#FFFFFF" d="M628.4,754.3c0,0-2,12.3,22,16.3s101.3,24.3,133.3,53.7c69.9,64.1,88.3,131,88.3,131l21,1.3
			c0,0-26.7-67.7-56-102.3c-29.3-34.7-69.3-68.7-106-78C694.4,767,628.4,754.3,628.4,754.3z"/>
	</g>
	<g>
		<path fill="#FFFFFF" d="M621.8,652.3c0,0,14.4,17-6.7,48c-36.7,54-70.7,89.8-70.7,89.8l-14.5-19.5l58.5-72.7L621.8,652.3z"/>
	</g>
	<g>
		<path fill="#FECE2F" d="M322.4,1116.4c71.5-174.8,175-274.3,222-326.3c-16.3-18.1-15.7-20.8-15.7-20.8s-46.3,50.3-89,98.3
			c-42.7,48-97.3,131.3-97.3,131.3s-61.3,108.7-86,199.3c-24.7,90.7-38.7,204.7-38.7,204.7l32.7,20.7
			C265.4,1321.6,277.4,1226.4,322.4,1116.4z"/>
	</g>
	<g>
		<g>
			<g>
				
					<ellipse transform="matrix(0.9288 -0.3707 0.3707 0.9288 -328.7877 352.618)" fill="#FECE2F" cx="752.9" cy="1031.6" rx="12.5" ry="53"/>
			</g>
			<g>
				
					<ellipse transform="matrix(0.9965 -8.409374e-02 8.409374e-02 0.9965 -107.129 73.6991)" fill="#FECE2F" cx="821.3" cy="1308.5" rx="12.5" ry="39.1"/>
			</g>
			<g>
				<path fill="#FECE2F" d="M711.7,1386.4c3.4,0.6,6.3,2.1,9.1,4.2c0.1,0,0.1,0,0.2,0.1c-2.6-2.1-0.5-0.6,0.4,0.1
					c1.1,0.4,2.2,0.8,3.2,1.2c2.9,0.9,5.8,1.7,8.7,2.6c3.9-9.4,5.7-25.8,4.1-44.2c-2.4-28.2-11.6-50.4-20.6-49.7
					c-9,0.8-14.4,24.2-12,52.4C705.9,1366,708.4,1377.6,711.7,1386.4z"/>
			</g>
			<g>
				
					<ellipse transform="matrix(0.5845 -0.8114 0.8114 0.5845 -676.2906 890.5417)" fill="#FECE2F" cx="531.4" cy="1105.6" rx="30.9" ry="10.1"/>
			</g>
			<g>
				
					<ellipse transform="matrix(0.3072 -0.9516 0.9516 0.3072 -677.1631 1097.0889)" fill="#FECE2F" cx="414.9" cy="1013.6" rx="27.6" ry="10.1"/>
			</g>
			<g>
				
					<ellipse transform="matrix(0.3072 -0.9516 0.9516 0.3072 -762.2313 1474.2344)" fill="#FECE2F" cx="631.4" cy="1260.6" rx="27.6" ry="10.1"/>
			</g>
			<g>
				
					<ellipse transform="matrix(0.6786 -0.7345 0.7345 0.6786 -786.0897 632.0621)" fill="#FECE2F" cx="329.2" cy="1214.2" rx="48.1" ry="12.2"/>
			</g>
			<g>
				
					<ellipse transform="matrix(0.8104 -0.5859 0.5859 0.8104 -636.7634 519.9768)" fill="#FECE2F" cx="485" cy="1243.8" rx="34.7" ry="13.4"/>
			</g>
			<g>
				
					<ellipse transform="matrix(0.9736 -0.2282 0.2282 0.9736 -310.2014 106.2586)" fill="#FECE2F" cx="304.4" cy="1394.6" rx="11.1" ry="34.7"/>
			</g>
			<g>
				
					<ellipse transform="matrix(0.9681 -0.2504 0.2504 0.9681 -338.9715 147.5925)" fill="#FECE2F" cx="410.5" cy="1405.8" rx="13.4" ry="34.7"/>
			</g>
			<g>
				
					<ellipse transform="matrix(0.9356 -0.3531 0.3531 0.9356 -497.1705 262.1652)" fill="#FECE2F" cx="469.9" cy="1493.6" rx="34.7" ry="11.1"/>
			</g>
			<g>
				
					<ellipse transform="matrix(0.7094 -0.7048 0.7048 0.7094 -797.197 645.6566)" fill="#FECE2F" cx="384.4" cy="1289.6" rx="41.4" ry="11.1"/>
			</g>
			<g>
				
					<ellipse transform="matrix(0.9177 -0.3972 0.3972 0.9177 -526.8461 329.0306)" fill="#FECE2F" cx="530.8" cy="1436.3" rx="13.4" ry="51.5"/>
			</g>
			<g>
				
					<ellipse transform="matrix(0.4991 -0.8665 0.8665 0.4991 -994.3475 1305.6147)" fill="#FECE2F" cx="632.2" cy="1512.9" rx="47.3" ry="13.4"/>
			</g>
			<g>
				
					<ellipse transform="matrix(0.7472 -0.6646 0.6646 0.7472 -815.1074 913.1953)" fill="#FECE2F" cx="792.7" cy="1527.9" rx="13.4" ry="47.3"/>
			</g>
			<g>
				
					<ellipse transform="matrix(0.8774 -0.4797 0.4797 0.8774 -678.8846 537.6241)" fill="#FECE2F" cx="712.5" cy="1597.2" rx="13.4" ry="42.4"/>
			</g>
			<g>
				
					<ellipse transform="matrix(0.1739 -0.9848 0.9848 0.1739 -886.1838 1936.4138)" fill="#FECE2F" cx="711" cy="1496.4" rx="14.7" ry="8.5"/>
			</g>
			<g>
				
					<ellipse transform="matrix(0.6229 -0.7823 0.7823 0.6229 -949.7622 1210.0974)" fill="#FECE2F" cx="780.4" cy="1590.3" rx="22.2" ry="8.5"/>
			</g>
			<g>
				
					<ellipse transform="matrix(0.7778 -0.6285 0.6285 0.7778 -522.0422 538.8337)" fill="#FECE2F" cx="501.1" cy="1007.8" rx="15.6" ry="8"/>
			</g>
			<g>
				
					<ellipse transform="matrix(0.7778 -0.6285 0.6285 0.7778 -428.6013 512.1654)" fill="#FECE2F" cx="510.1" cy="862.3" rx="15.6" ry="8"/>
			</g>
			<g>
				
					<ellipse transform="matrix(0.7303 -0.6832 0.6832 0.7303 -661.2682 565.44)" fill="#FECE2F" cx="385.4" cy="1120.1" rx="15.6" ry="8"/>
			</g>
			<g>
				
					<ellipse transform="matrix(0.7303 -0.6832 0.6832 0.7303 -783.4644 682.4795)" fill="#FECE2F" cx="472.5" cy="1333.4" rx="18.6" ry="9.5"/>
			</g>
			<g>
				
					<ellipse transform="matrix(0.9546 -0.2978 0.2978 0.9546 -316.2162 185.8973)" fill="#FECE2F" cx="451.9" cy="1130.6" rx="12.5" ry="53"/>
			</g>
			<g>
				
					<ellipse transform="matrix(0.8805 -0.474 0.474 0.8805 -408.4611 408.0691)" fill="#FECE2F" cx="605.3" cy="1014.3" rx="48.4" ry="12.5"/>
			</g>
			<g>
				
					<ellipse transform="matrix(0.8805 -0.474 0.474 0.8805 -376.4727 358.1801)" fill="#FECE2F" cx="522.3" cy="925.9" rx="45" ry="12.5"/>
			</g>
			<g>
				
					<ellipse transform="matrix(0.3428 -0.9394 0.9394 0.3428 -693.4423 1337.8344)" fill="#FECE2F" cx="609.5" cy="1164.5" rx="43" ry="16.8"/>
			</g>
			<g>
				
					<ellipse transform="matrix(0.2232 -0.9748 0.9748 0.2232 -593.5336 1654.1376)" fill="#FECE2F" cx="741.1" cy="1199.5" rx="16.8" ry="43"/>
			</g>
			<g>
				
					<ellipse transform="matrix(0.4404 -0.8978 0.8978 0.4404 -453.063 1410.0693)" fill="#FECE2F" cx="904.6" cy="1068.5" rx="16.8" ry="43"/>
			</g>
			<g>
				<path fill="#FECE2F" d="M660.8,890.1c-7.2-4-13.6-9.2-20.5-13.6c-0.9-0.6-1.7-1.2-2.5-1.9c-2.8,4.4-5.5,9.5-7.9,15
					c-9.4,21.9-10,42.5-1.5,46.2c8.5,3.7,23-11.1,32.4-33c1.5-3.6,2.8-7.1,3.9-10.6C663.4,891.5,662.1,890.8,660.8,890.1z"/>
			</g>
			<g>
				
					<ellipse transform="matrix(0.9964 -8.485559e-02 8.485559e-02 0.9964 -92.8056 75.8926)" fill="#FECE2F" cx="846.4" cy="1129.7" rx="14.6" ry="43"/>
			</g>
			<g>
				<path fill="#FECE2F" d="M859.7,955.5c-8.2-0.7-18-2-26.4-5.5c-5.1,15.8-5.2,28.7,0.5,31.3c6.5,3,18.2-8.2,27.7-25.7
					C861,955.6,860.3,955.6,859.7,955.5z"/>
			</g>
		</g>
		<g>
			
				<ellipse transform="matrix(0.9664 -0.2569 0.2569 0.9664 -255.6125 215.0926)" fill="#FECE2F" cx="695.2" cy="1085.6" rx="10.1" ry="34.4"/>
		</g>
	</g>
	<g>
		<path fill="#FFFFFF" d="M1425.1,872.3l31.3,31.3c0,0-4.3,29-24.7,48.7c-20.3,19.7-41.3,27.7-46.3,27.3s-21-12.7-22-13.7
			s-18.3-13.3-18.3-13.3s-9.7-6-14.7-4.3c-5,1.7,51.7-49.3,53-50C1384.8,897.6,1425.1,872.3,1425.1,872.3z"/>
	</g>
	<g>
		<path fill="#1A1A1A" d="M753.8,493.6c11.5,2.7,46-6,124.7-57.3s113.3-120,117.3-180.7s-11.3-68.7-30.7-76
			c-19.3-7.3-44,2.7-64-18.7s-26-46-66.7-44c-40.7,2-67.3,23.3-84,9.3c-16.7-14-45.3-36-88-28c-42.7,8-66,77.3-89.3,82
			c-23.3,4.7-69.3-2.7-85.3,32.7s10,80-5.3,101.3c-15.3,21.3-45.3,46-36,85.3c9.3,39.3,54.7,81.3,40,100.7
			c-14.7,19.3-50.7,75.3,2.7,110.7c53.3,35.3,148.5,11.5,171.3-15.3c20.7-24.3,35.7-51.7,21.3-62.3c-11.5-8.6-14.4-24.3-7-43.3
			c6.3-15.7,26.7-35.4,47.7-28C744.1,469.6,735.1,489.3,753.8,493.6z"/>
	</g>
	<g>
		<path fill="#FFFFFF" d="M561.7,614.1c1.7-1.6,3.7-3.1,5.8-4.5c2.1-1.4,4.5-2.8,6.9-4.2c4.9-2.8,10.2-5.5,15.8-9.1
			c2.8-1.8,5.6-3.9,8.3-6.5c2.7-2.6,5.3-5.8,7.3-9.6c1-1.9,1.8-3.9,2.4-6l0.4-1.6l0.3-1.4c0.2-0.9,0.4-1.9,0.5-2.9
			c0.5-3.9,0.4-8.2-0.6-12.4c-1-4.2-2.9-8.4-5.5-11.8c-2.6-3.5-5.7-6.2-8.9-8.4c-6.4-4.4-13.2-6.8-19.8-8.4
			c-6.6-1.6-13.1-2.4-19.5-2.7c-6.4-0.3-12.7-0.1-18.9,0.4c-3.1,0.2-6.2,0.6-9.3,1c-1.5,0.2-3.1,0.4-4.6,0.7l-2.3,0.4l-1.1,0.2
			l-1.2,0.2c-6.4,1.2-12.8,3-18.9,5.6c-12.2,5-23.2,12.8-31.8,22.4c-2.1,2.3-4.1,4.8-6,7.3c0,6.8,1.1,13.7,3.8,20.3
			c1-1.3,2-2.6,3-3.8c3.4-4.2,7.3-8,11.3-11.5c8.1-7,17.2-12.2,27-15.6c4.9-1.7,10-2.9,15.1-3.6l1-0.1l1-0.1l2.1-0.3
			c1.4-0.2,2.8-0.3,4.2-0.5c2.8-0.3,5.5-0.5,8.3-0.7c5.5-0.3,11-0.5,16.3-0.2c5.3,0.3,10.6,0.9,15.4,2c4.8,1.1,9.3,2.8,12.7,5
			c1.7,1.1,3,2.3,4,3.5c1,1.2,1.7,2.5,2.1,4c0.4,1.5,0.6,3.2,0.4,5.1c0,0.5-0.1,1-0.2,1.5l-0.1,0.7l-0.1,0.6
			c-0.2,0.8-0.4,1.5-0.8,2.3c-0.6,1.5-1.7,3-3.1,4.6c-1.4,1.6-3.3,3.1-5.3,4.7c-4.1,3.1-9.1,6.1-14.2,9.5c-2.6,1.7-5.2,3.5-7.8,5.6
			c-2.6,2.1-5.1,4.4-7.5,7c-2.4,2.6-4.5,5.7-6.2,9c-1.7,3.3-2.9,7-3.5,10.6c-0.3,2-0.5,3.9-0.5,5.9c4.8,0.5,9.7,0.8,14.6,0.9
			c0.2-1.3,0.4-2.5,0.8-3.7C555.9,620.8,558.3,617.3,561.7,614.1z"/>
	</g>
	<g>
		<path fill="#1A1A1A" d="M557.4,631.8c-21.9,0-48.2-3.9-70-18.3c-16.3-10.8-26-24.5-28.7-40.7c-4.9-29.1,13.8-59,25.3-74.3
			c7.2-9.5-4.1-27.9-16-47.4c-9.6-15.7-20.4-33.5-24.5-50.7c-7.9-33.4,11.3-56.7,26.7-75.5c3.6-4.3,6.9-8.4,9.7-12.3
			c6.7-9.3,4.6-24.2,2.1-41.4c-2.7-18.9-5.7-40.4,2.9-59.4c13-28.8,45.2-30.9,68.6-32.4c7-0.5,13.6-0.9,18.9-1.9
			c8.7-1.7,18.7-15.5,29.3-30c16.1-22.1,34.3-47.2,60.1-52c46.1-8.6,77.2,17.5,90.5,28.7c8.5,7.1,20.5,3.6,37.2-1.2
			c12.8-3.7,27.3-7.9,44.7-8.8c32.9-1.6,44.6,13.8,57,30.2c3.7,4.9,7.5,9.9,12,14.7c12,12.8,26,13.6,39.6,14.3
			c7.8,0.4,15.9,0.8,23.3,3.6c21.6,8.2,36.6,18.7,32.6,79c-2.1,32.4-12.9,65.3-31.1,95.2c-20.6,33.7-50,63.3-87.6,87.8
			c-29.6,19.3-101.4,63.7-127,57.7l0,0c-10.6-2.5-13.7-9.6-16.4-15.9c-2.8-6.4-5.4-12.4-15.2-15.9c-18.7-6.6-37.8,11.3-43.9,26.3
			c-6.8,17.4-4.6,31.9,6,39.8c3.9,2.9,6.2,6.9,6.7,12c1.9,17.1-16.4,41.6-27.6,54.7c-12.1,14.2-42.7,27.1-76.1,32
			C578.9,630.7,568.7,631.8,557.4,631.8z M680.3,99.6c-5.5,0-11.3,0.5-17.3,1.6c-23.4,4.4-40.9,28.4-56.3,49.6
			c-11.8,16.2-21.9,30.2-33,32.4c-5.6,1.1-12.4,1.6-19.6,2c-23.2,1.5-52,3.4-63.5,28.9c-7.9,17.5-5,38-2.4,56.1
			c2.5,17.7,4.9,34.5-3.2,45.7c-2.9,4.1-6.4,8.2-10,12.6c-15.4,18.6-32.8,39.8-25.5,70.3c3.9,16.3,14.5,33.7,23.8,49
			c13.6,22.3,25.3,41.5,15.7,54.2c-11,14.5-28.8,42.8-24.2,69.7c2.5,14.5,11.3,26.8,26.1,36.7c52.2,34.6,145.5,11,167.4-14.8
			c17.9-21,27.4-39.3,26.2-50.2c-0.4-3.4-1.8-5.9-4.3-7.8c-12.9-9.6-15.8-26.7-8-46.8c7.1-17.6,29-37.7,51.5-29.7
			c12.3,4.4,15.9,12.6,18.7,19.1c2.7,6.2,4.6,10.7,12.3,12.4c6.1,1.4,32.9,1.5,122.3-56.9c36.8-24,65.6-52.9,85.7-85.9
			c17.7-29,28.2-61,30.2-92.5c4-60.6-11.9-66.6-28.7-73c-6.5-2.5-13.8-2.8-21.5-3.3c-14.1-0.7-30-1.6-43.7-16.2
			c-4.7-5.1-8.7-10.2-12.4-15.2c-12.4-16.4-22.2-29.3-51.9-27.8c-16.7,0.8-30.9,4.9-43.4,8.6c-17.8,5.2-31.8,9.2-42.7,0.1
			C736.7,118.7,714,99.6,680.3,99.6z"/>
	</g>
	<g>
		<path fill="#1A1A1A" d="M557.4,631.8c-21.9,0-48.2-3.9-70-18.3c-16.3-10.8-26-24.5-28.7-40.7c-4.9-29.1,13.8-59,25.3-74.3
			c7.2-9.5-4.1-27.9-16-47.4c-9.6-15.7-20.4-33.5-24.5-50.7c-7.9-33.4,11.3-56.7,26.7-75.5c3.6-4.3,6.9-8.4,9.7-12.3
			c6.7-9.3,4.6-24.2,2.1-41.4c-2.7-18.9-5.7-40.4,2.9-59.4c13-28.8,45.2-30.9,68.6-32.4c7-0.5,13.6-0.9,18.9-1.9
			c8.7-1.7,18.7-15.5,29.3-30c16.1-22.1,34.3-47.2,60.1-52c46.1-8.6,77.2,17.5,90.5,28.7c8.5,7.1,20.5,3.6,37.2-1.2
			c12.8-3.7,27.3-7.9,44.7-8.8c32.9-1.6,44.6,13.8,57,30.2c3.7,4.9,7.5,9.9,12,14.7c12,12.8,26,13.6,39.6,14.3
			c7.8,0.4,15.9,0.8,23.3,3.6c21.6,8.2,36.6,18.7,32.6,79c-2.1,32.4-12.9,65.3-31.1,95.2c-20.6,33.7-50,63.3-87.6,87.8
			c-29.6,19.3-101.4,63.7-127,57.7l0,0c-10.6-2.5-13.7-9.6-16.4-15.9c-2.8-6.4-5.4-12.4-15.2-15.9c-18.7-6.6-37.8,11.3-43.9,26.3
			c-6.8,17.4-4.6,31.9,6,39.8c3.9,2.9,6.2,6.9,6.7,12c1.9,17.1-16.4,41.6-27.6,54.7c-12.1,14.2-42.7,27.1-76.1,32
			C578.9,630.7,568.7,631.8,557.4,631.8z M680.3,99.6c-5.5,0-11.3,0.5-17.3,1.6c-23.4,4.4-40.9,28.4-56.3,49.6
			c-11.8,16.2-21.9,30.2-33,32.4c-5.6,1.1-12.4,1.6-19.6,2c-23.2,1.5-52,3.4-63.5,28.9c-7.9,17.5-5,38-2.4,56.1
			c2.5,17.7,4.9,34.5-3.2,45.7c-2.9,4.1-6.4,8.2-10,12.6c-15.4,18.6-32.8,39.8-25.5,70.3c3.9,16.3,14.5,33.7,23.8,49
			c13.6,22.3,25.3,41.5,15.7,54.2c-11,14.5-28.8,42.8-24.2,69.7c2.5,14.5,11.3,26.8,26.1,36.7c52.2,34.6,145.5,11,167.4-14.8
			c17.9-21,27.4-39.3,26.2-50.2c-0.4-3.4-1.8-5.9-4.3-7.8c-12.9-9.6-15.8-26.7-8-46.8c7.1-17.6,29-37.7,51.5-29.7
			c12.3,4.4,15.9,12.6,18.7,19.1c2.7,6.2,4.6,10.7,12.3,12.4c6.1,1.4,32.9,1.5,122.3-56.9c36.8-24,65.6-52.9,85.7-85.9
			c17.7-29,28.2-61,30.2-92.5c4-60.6-11.9-66.6-28.7-73c-6.5-2.5-13.8-2.8-21.5-3.3c-14.1-0.7-30-1.6-43.7-16.2
			c-4.7-5.1-8.7-10.2-12.4-15.2c-12.4-16.4-22.2-29.3-51.9-27.8c-16.7,0.8-30.9,4.9-43.4,8.6c-17.8,5.2-31.8,9.2-42.7,0.1
			C736.7,118.7,714,99.6,680.3,99.6z"/>
	</g>
	<path fill="#FFFFFF" d="M578.4,181.6c1.7,6.3,3.3,12.6,4.7,18.9c1.6,7.1,3,14.2,3.9,21.1c0.2,1.7,0.4,3.4,0.5,5
		c0.1,0.8,0.1,1.7,0.2,2.6l0.1,2.7c0.2,3.6,0.2,7.1,0.1,10.5c-0.1,6.8-1,13.4-2.7,19.5c-1.7,6.1-4.4,11.7-8,16.7
		c-3.6,5-8.3,9.4-13.5,13.2c-1.3,0.9-2.7,1.9-4.1,2.7l-4.8,3c-1.7,1-3.3,2.1-5,3.3l-2.5,1.7l-2.4,1.7c-6.4,4.6-12.5,9.5-18.4,14.7
		l-4.4,3.9l-4.3,4l-4.1,4.2c-1.4,1.4-2.7,2.8-4.1,4.3c-5.3,5.8-10.4,11.8-15.2,18.2c-1.2,1.6-2.3,3.2-3.4,4.9l-3.1,4.8
		c-1.9,2.9-3.9,5.7-6.1,8.3c-4.3,5.3-9.2,10.1-14.6,14.3c-5.4,4.2-11.3,7.7-17.6,10.7c-0.3,0.1-0.6,0.2-0.8,0.4
		c0.1,0.7,0.3,1.4,0.5,2.2c1,4,2.3,8.1,4,12.2c0.7-0.2,1.4-0.5,2.1-0.7c3.8-1.4,7.6-3,11.2-4.8c3.6-1.8,7.2-3.9,10.6-6.2
		c3.4-2.3,6.7-4.8,9.8-7.5c3.1-2.7,6-5.6,8.8-8.6c2.7-3,5.3-6.2,7.7-9.5l1.7-2.4l1.6-2.1c1-1.4,2.2-2.8,3.2-4.1
		c8.9-11,19.4-21.1,30.3-30.4c5.5-4.6,11.2-9,17.1-13l2.2-1.5l2.2-1.4c1.5-1,3-1.9,4.5-2.9l4.8-2.9c1.8-1.1,3.5-2.3,5.3-3.5
		c3.5-2.5,6.8-5.2,9.9-8.2c3.1-3,6-6.3,8.6-9.9c2.6-3.6,4.9-7.4,6.8-11.4c1.9-4,3.4-8.2,4.5-12.4c2.3-8.4,3-16.9,3-25.1
		c0-4.1-0.2-8.1-0.6-12l-0.3-2.9c-0.1-1-0.2-1.9-0.3-3c-0.2-2.1-0.6-4.1-0.9-6.1c-1.4-8-3.4-15.6-5.6-23c-1.1-3.7-2.3-7.4-3.6-11
		c-1.3-3.6-2.6-7.2-3.9-10.8c-0.5-1.5-1.1-2.9-1.7-4.4C587.8,174.9,583.1,179.2,578.4,181.6z"/>
	<path fill="#FFFFFF" d="M939.3,376.5c-2.1-2.5-4.1-4.9-6.1-7.3c-2-2.4-3.9-4.7-5.7-7.1c-3.6-4.8-6.6-9.6-8.9-14.6
		c-1.1-2.5-2.1-5-2.7-7.5c-0.3-1.3-0.6-2.5-0.9-3.8c-0.1-0.6-0.2-1.3-0.3-1.9c-0.1-0.6-0.2-1.4-0.2-1.8c-0.3-4,0.7-7.7,3.3-11.5
		c2.5-3.8,6.4-7.6,10.8-11.1c4.5-3.5,9.5-6.7,14.7-9.7c5.3-3.1,10.8-6,16.5-9.2c2.9-1.6,5.8-3.2,8.8-5.1c1.5-1,3.1-2,4.8-3.3
		c0.8-0.7,1.7-1.4,2.7-2.3c1-1,1.8-1.9,2.6-2.8c1.6-2,3-4.4,4.1-7c1-2.6,1.6-5.4,1.7-8c0.1-2.6-0.1-4.9-0.4-7
		c-0.4-2.1-0.8-4-1.3-5.8c-1-3.5-2.1-6.6-3.1-9.6c-1-3-2-5.8-2.8-8.7c-0.9-2.8-1.6-5.7-2.2-8.5c-0.3-1.4-0.6-2.8-0.8-4.3
		c-0.3-1.6-0.4-2.4-0.5-3.6c-0.4-4.4,0.7-9.2,2.9-13.9c1.4-3,3.2-5.9,5.4-8.7c-4.1-4.1-8.8-6.4-13.8-8.4c-2.4,2.6-4.7,5.5-6.7,8.7
		c-2,3.2-3.7,6.7-5,10.6c-1.2,3.8-2,7.9-2.1,12.1c-0.1,2,0.1,4.3,0.3,5.9c0.2,1.7,0.4,3.5,0.6,5.2c0.5,3.5,1.2,6.9,2,10.2
		c0.8,3.3,1.7,6.6,2.6,9.7c0.9,3.1,1.8,6.1,2.4,8.7c0.3,1.3,0.6,2.5,0.7,3.6c0.1,1,0.1,1.9,0.1,2.5c-0.1,0.6-0.2,1-0.3,1.3
		c-0.1,0.3-0.4,0.7-0.8,1.2c-0.3,0.3-0.5,0.6-0.7,0.7c-0.2,0.2-0.6,0.5-1,0.8c-0.8,0.6-1.9,1.4-3.1,2.1c-2.3,1.5-5,3-7.7,4.5
		c-5.5,3-11.3,6.1-17,9.6c-5.7,3.4-11.5,7.2-17.1,11.7c-5.5,4.5-11,9.8-15.3,16.8c-2.1,3.5-3.9,7.5-4.9,11.8
		c-1,4.3-1.3,8.9-0.7,13.2c0.1,1.2,0.3,2,0.5,2.9c0.2,0.9,0.4,1.9,0.6,2.8c0.4,1.8,1,3.7,1.5,5.4c1.2,3.6,2.6,7,4.3,10.3
		c3.4,6.5,7.7,12.3,12.1,17.4c2.2,2.6,4.5,5.1,6.8,7.5c2.3,2.4,4.6,4.6,6.8,6.9c0.9,0.9,1.7,1.8,2.6,2.6c3.9-4.1,7.7-8.2,11.2-12.4
		C940.2,377.6,939.7,377.1,939.3,376.5z"/>
	<path fill="#FFFFFF" d="M773.9,488.3c4.7-1.4,10.4-3.4,17.3-6.3c0.3-1.2,0.6-2.4,0.8-3.6c2-9.8,1.9-19.6,0.9-29
		c-0.5-4.7-1.2-9.3-2-13.9c-0.8-4.5-1.7-9-2.6-13.3c-0.9-4.3-1.7-8.6-2.4-12.7c-0.3-2.1-0.6-4.1-0.8-6.1c-0.1-1-0.2-2-0.2-2.9
		c0-0.3,0-0.4,0-0.5c0-0.2,0-0.3,0-0.5c0-0.3,0-0.6,0.1-0.9c0.2-2.4,1.2-4.9,3.1-7.5c1.8-2.6,4.4-5.2,7.3-7.6c3-2.4,6.3-4.7,9.8-7
		c3.5-2.2,7.2-4.4,10.9-6.5c3.8-2.1,7.7-4.2,11.7-6.4c4-2.2,8-4.4,12.4-7.3c1.1-0.7,2.2-1.5,3.3-2.4l0.4-0.3
		c0.1-0.1,0.3-0.2,0.5-0.4c0.4-0.3,0.8-0.7,1.1-1c0.7-0.7,1.4-1.5,2.1-2.2c2.6-3.1,4.1-6.6,5-9.8c0.9-3.2,1.3-6.1,1.5-8.9
		c0.2-2.8,0.1-5.4,0-7.9c-0.2-5-0.8-9.7-1.5-14.3c-0.7-4.6-1.4-9-2.1-13.4c-1.4-8.8-2.8-17.4-3.8-25.9c-0.9-8.5-1.6-16.9-1.5-25.3
		c0-1.1,0-1.9,0.1-2.8c0.1-0.9,0.1-1.7,0.2-2.6c0.2-1.8,0.6-3.6,1-5.4c0.9-3.6,2.2-7.3,3.7-10.9c1.6-3.6,3.5-7.3,5.5-10.8
		c2.1-3.6,4.3-7.1,6.7-10.6c4.8-6.9,10.2-13.7,15.8-20.2c5.7-6.5,11.6-12.9,17.9-19c0.4-0.4,0.7-0.7,1.1-1.1
		c-3.4-3.8-6.3-7.6-9.2-11.3c-0.6,0.5-1.2,0.9-1.7,1.4c-7.1,5.7-14,11.7-20.5,18.2c-6.6,6.4-12.9,13.2-18.7,20.6
		c-5.8,7.4-11.2,15.3-15.5,24.2c-2.1,4.5-4.1,9.1-5.4,14.2c-0.7,2.5-1.3,5.1-1.7,7.7c-0.2,1.3-0.4,2.7-0.5,4
		c-0.1,1.4-0.2,2.8-0.2,3.9c-0.3,9.5,0.2,18.9,1.1,28.1c0.9,9.2,2.3,18.2,3.8,27.1c0.7,4.4,1.4,8.8,2,13c0.6,4.2,1.1,8.4,1.3,12.3
		c0.2,3.8,0.1,7.5-0.6,9.8c-0.3,1.1-0.7,1.7-0.9,2.1c-0.1,0.1-0.1,0.2-0.2,0.2c0,0-0.1,0.1-0.1,0.1c0,0-0.1,0.1-0.2,0.1l-0.2,0.2
		c-0.6,0.5-1.3,1-2.1,1.5c-3.1,2.1-6.8,4.3-10.6,6.5c-3.8,2.2-7.7,4.4-11.7,6.7c-7.9,4.6-16,9.6-23.6,16.3
		c-3.8,3.4-7.5,7.2-10.6,12.1c-1.6,2.4-3,5.1-4,8c-1,2.9-1.7,6.1-1.9,9.3c-0.1,0.8,0,1.6,0,2.4c0,0.4,0,0.8,0.1,1.2
		c0,0.4,0,0.8,0.1,1.1c0.1,1.3,0.3,2.5,0.4,3.8c0.4,2.5,0.8,4.8,1.3,7.1c1,4.6,2.1,9.1,3.2,13.4c1.1,4.3,2.2,8.6,3.2,12.8
		c1,4.2,1.9,8.4,2.6,12.5c1.4,8.3,1.9,16.4,0.9,24.3C776.4,480.1,775.4,484.3,773.9,488.3z"/>
	<path fill="#FFFFFF" d="M727.3,189.3c0.1-2.3,0.3-4.7,0.6-7c0.5-4.7,1.5-9.4,2.7-14c2.5-9.3,6.2-18.4,11-27.1
		c2.3-4.2,4.7-8.3,7.5-12.3c-0.2-0.1-0.3-0.2-0.5-0.4c-3.3-2.8-7.4-6.2-12.4-9.8c-3.6,4.1-7,8.3-10.1,12.8
		c-6.4,9.3-11.9,19.4-15.8,30.3c-2,5.4-3.5,11.1-4.6,16.8c-0.6,2.9-1,5.8-1.3,8.7c-0.2,1.5-0.3,2.9-0.4,4.4l-0.2,2.2l-0.1,2.1
		c-0.3,5.4-0.4,10.8-0.5,16.1l-0.4,15.7c-0.4,10.3-0.9,20.5-2.2,30.2c-0.7,4.8-1.5,9.5-2.7,13.9c-1.2,4.4-2.7,8.5-4.5,12
		c-1.8,3.6-4,6.3-6.4,8.5l-0.9,0.7l-0.5,0.4c-0.2,0.1-0.4,0.3-0.6,0.5l-1.3,0.9l-1.4,0.9c-1.9,1.2-3.9,2.4-6,3.6
		c-8.5,4.7-18.3,9.2-28.1,14.6c-9.8,5.4-19.6,11.8-28.5,19.7c-8.8,7.9-16.6,17.2-22.6,27.4c-3,5.1-5.7,10.3-8,15.7
		c-0.6,1.3-1.1,2.7-1.6,4l-0.8,2l-0.7,1.8l-1.3,3.5l-1.4,3.5c-3.8,9.2-8.2,17.8-13.6,25.5c-5.4,7.6-11.7,14.2-19.3,19.4
		c-3.8,2.6-7.8,4.9-12.1,6.8c-4.3,1.9-8.8,3.7-13.4,5.1c-9.3,2.8-19.2,4.6-29.3,5.9c-5.7,0.7-11.5,1.2-17.4,1.6
		c3.7,6.1,7,12,9.5,17.4c3.1,0,6.3-0.1,9.4-0.2c11-0.4,22.1-1.7,33.2-4.3c11.1-2.6,22.3-6.7,32.5-13.1c10.2-6.3,19.3-14.7,26.4-24.1
		c7.1-9.4,12.7-19.5,17.3-29.7l1.7-3.8l1.6-3.8l0.8-1.9l0.7-1.6c0.5-1.1,0.9-2.2,1.4-3.3c2-4.3,4.2-8.5,6.7-12.4
		c5-7.9,11-14.9,18-21c7-6.1,15-11.3,23.8-16c4.4-2.4,8.9-4.7,13.7-7c4.7-2.4,9.6-4.8,14.6-7.5c2.5-1.4,5-2.9,7.6-4.5l1.9-1.2
		l1.9-1.3c0.3-0.2,0.6-0.4,1-0.7l1.1-0.9c0.7-0.6,1.4-1.2,2.1-1.7c5.5-4.9,9.6-10.8,12.6-16.7c3-5.9,4.9-11.9,6.3-17.7
		c1.4-5.9,2.3-11.6,2.9-17.3c1.2-11.3,1.4-22.3,1.3-33.1c0-5.4-0.2-10.7-0.3-16l-0.4-15.6c0-0.6,0-1.3,0-1.9l0-1.7
		C727.2,191.7,727.2,190.5,727.3,189.3z"/>
	<path fill="#1A1A1A" d="M960.9,555.1c-2.8-3.7-8.8-4.3-17.2-5.1l-1-0.1c-18.7-1.8-20.5-9.4-20.5-9.4l0,0.1l0,0c0-0.2,0-0.3-0.1-0.5
		c-12.8-42.2-52.3-94.7-54-96.9c-1-1.3-2.9-1.6-4.2-0.6c-1.3,1-1.6,2.9-0.6,4.2c0.4,0.5,40.4,53.7,53,94.9
		c0.4,2.2,3.6,12.1,25.8,14.2l1,0.1c5.8,0.5,11.7,1.1,13,2.7c0.1,0.1,0.3,0.5,0.1,1.6c-2.3,12.1-24.5,16.6-33,17.3
		c-1.5,0-2.9,1.2-3,2.7c-3.1,34.4-21.5,63.1-47,73.2c-37.3,14.8-78.5,6-78.9,5.9c0,0,0,0-0.1,0c0,0,0,0-0.1,0
		c-4.2-0.8-41.2-7.2-51.7,2.3c-2.3,2.1-3.4,4.8-3.1,7.9c0.6,7.4,5.4,16.4,10.9,26.9c10.6,20.1,23.8,45.1,17.9,74.8L768,772
		c-0.1,0.5-0.1,0.9,0,1.3l-3.9,19c-0.3,1.6,0.7,3.2,2.3,3.5c0.2,0,0.4,0.1,0.6,0.1c1.4,0,2.6-1,2.9-2.4l26.1-127.8
		c10.4,1.8,45.9,6.6,79.4-6.7c26.9-10.7,46.5-40.2,50.5-75.7c7.9-1,33-5.5,36.1-21.9C962.6,559,962.2,556.8,960.9,555.1z"/>
	<path fill="#FFFFFF" d="M858.6,516.9c-4.1-0.7-8.2-1.1-12-1.1c-4.7,0-9.1,0.5-12.9,1.6c-6.1,1.7-9.9,4.6-10.4,7.9
		c-0.6,3.3,2,7.3,7.2,10.9c5.8,4.2,14.1,7.3,23.2,8.9c19.4,3.4,34.1-1.7,35.3-8.4v0C890.1,530,877.9,520.2,858.6,516.9z"/>
	<path fill="#1A1A1A" d="M859.6,510.9c-10-1.7-19.8-1.5-27.5,0.6c-8.5,2.4-13.7,6.9-14.7,12.6c-1,5.8,2.4,11.8,9.6,16.9
		c6.6,4.7,15.7,8.2,25.7,9.9c4.5,0.8,8.8,1.2,12.9,1.2c15.7,0,27.8-5.5,29.3-14.4v0C896.8,526.5,881.3,514.7,859.6,510.9z
		 M830.4,536.2c-5.1-3.6-7.7-7.6-7.2-10.9c0.6-3.3,4.4-6.2,10.4-7.9c3.8-1.1,8.2-1.6,12.9-1.6c3.8,0,7.9,0.4,12,1.1
		c9.9,1.7,18,5.2,23.3,9c-13,0.5-22.8,4.9-24,11.9c-0.5,2.7,0.4,5.5,2.4,8.2c-2.1-0.2-4.3-0.4-6.6-0.8
		C844.5,543.5,836.3,540.3,830.4,536.2z"/>
	<g>
		<path fill="#1A1A1A" d="M852.4,604.1c-0.1,0-0.2,0-0.3,0c-23.7-2.1-35.8-20.6-36.3-21.4c-0.9-1.4-0.5-3.3,0.9-4.1
			c1.4-0.9,3.2-0.5,4.1,0.9c0.1,0.2,11.1,16.8,31.7,18.6c1.7,0.1,2.9,1.6,2.7,3.3C855.3,603,854,604.1,852.4,604.1z"/>
	</g>
	<g>
		<path fill="#1A1A1A" d="M843,487.6l0.9-0.7c0.3-0.2,0.5-0.4,0.8-0.6c0.5-0.4,1.1-0.7,1.6-1.1c1.1-0.7,2.2-1.3,3.4-1.8
			c2.3-1.1,4.8-2,7.4-2.7c2.6-0.6,5.3-1.1,8-1.2c2.7-0.2,5.5,0,8.3,0.3l0.2,0c4.3,0.5,7.5,4.4,6.9,8.8c-0.5,4.3-4.4,7.5-8.8,6.9
			c-0.9-0.1-1.8-0.4-2.6-0.8c-1.6-0.8-3.4-1.6-5.2-2.2c-1.8-0.6-3.7-1-5.7-1.2c-2-0.2-4-0.2-6,0c-1,0.1-2,0.2-3.1,0.4
			c-0.5,0.1-1,0.2-1.5,0.3c-0.5,0.1-1,0.3-1.4,0.4l-0.7,0.2c-1.6,0.4-3.2-0.6-3.6-2.2C841.6,489.5,842,488.3,843,487.6z"/>
	</g>
	<g>
		<path fill="#1A1A1A" d="M936.9,489.9c-0.3-0.1-0.8-0.4-1.3-0.5c-0.5-0.2-1-0.3-1.5-0.5c-1-0.3-2-0.6-3-0.8c-2-0.4-4-0.7-6-0.7
			c-2,0-3.9,0.1-5.8,0.5c-1.9,0.3-3.7,0.9-5.4,1.6c-4.1,1.5-8.7-0.6-10.2-4.7c-1.5-4.1,0.6-8.7,4.7-10.2c0.9-0.3,1.8-0.5,2.7-0.5
			l0.2,0c2.8,0,5.6,0.1,8.3,0.6c2.7,0.4,5.3,1.2,7.8,2.1c2.5,0.9,4.8,2.1,7,3.5c1.1,0.7,2.1,1.4,3.2,2.2c0.5,0.4,1,0.8,1.5,1.2
			c0.2,0.2,0.5,0.4,0.7,0.7l0.8,0.8c1.2,1.1,1.2,3,0.1,4.2c-0.8,0.9-2.1,1.1-3.2,0.7L936.9,489.9z"/>
	</g>
	<g>
		<polygon fill="#FECE2F" points="1375.6,818.9 1425.1,872.3 1374.9,913.1 1326.1,954.3 1281.9,902.1 1349.4,843.6 		"/>
	</g>
	<g>
		
			<ellipse transform="matrix(0.7642 -0.645 0.645 0.7642 -241.8496 1058.6626)" fill="#FECE2F" cx="1326.9" cy="860.1" rx="63.8" ry="17.3"/>
	</g>
	<path fill="#1A1A1A" d="M1458.6,901.6l-80.8-84.7c0,0-0.1,0-0.1-0.1c-8.9-9.7-38.8,6.5-64,27.8c-13.2,11.2-24.5,23.1-31.8,33.6
		c-8.2,11.8-10.3,20.3-6.2,25.1c0,0,0.1,0.1,0.1,0.1c0,0,0,0,0,0l48.4,51.1c0.2,0.2,0.3,0.3,0.5,0.4c0.1,0.1,0.2,0.2,0.3,0.3
		c1.8,2.2,4.6,3.1,8.1,3.1c13,0,35.7-13.5,55.5-30.2c13.1-11,24.2-22.8,31.3-33.2c4.6-6.8,7.3-12.4,7.9-16.9l26.5,27.8
		c0.6,0.6,1.4,0.9,2.2,0.9c0.7,0,1.5-0.3,2.1-0.8C1459.7,904.7,1459.7,902.8,1458.6,901.6z M1286.9,881.5
		c7-10.1,17.9-21.6,30.7-32.4c23.7-20,44-29.4,52.3-29.4c1.7,0,2.8,0.4,3.5,1.1c1.2,1.4,1.1,6.7-6.6,17.8
		c-7,10.1-17.9,21.6-30.7,32.4c-12.8,10.8-26,19.6-37.1,24.8c-12.1,5.6-17.3,4.9-18.6,3.5l-0.1-0.1
		C1279.2,897.9,1279.3,892.6,1286.9,881.5z M1362.4,897c-13.1,11-24.2,22.8-31.3,33.2c-3.9,5.7-6.4,10.6-7.4,14.7l-36.8-38.8
		c4-0.6,8.9-2.2,14.7-4.9c11.6-5.4,25.2-14.5,38.4-25.7c13.2-11.2,24.5-23.1,31.8-33.6c4-5.8,6.5-10.8,7.6-14.9l37.9,39.7
		C1404.2,867.3,1381.8,880.6,1362.4,897z"/>
	<g>
		<path fill="#FECE2F" d="M954.9,1085.1c-0.5-1.5,28,49,70.5,74.5c42.5,25.5,91.5,28,134,27.5s106.5-36.5,131-57s84-90.5,84-101
			s-13.5-29-24.5-37.5s-31-36.5-23-42.5s30.5,13.5,30.5,13.5l24.5,17c0,0,21.5,1.5,44.5-20s32.3-46.2,32.3-57.2l-8-8.3
			c0,0,17-5.2,22.5,0.5s6.5,22.5,6.5,22.5s10.3-2.8,14,1.8c3.7,4.7,4.7,20.5,3.8,27.5c0,0,15-9.3,20.2-2.7
			c5.2,6.7,3.7,31.7,3.7,31.7l21.3-23.7c0,0,10.7-11.8,13.5-9.3c5.5,4.8-3.5,29.5-3.5,29.5l-15,29l-26.7,51l-72.4,99.2l-61.2,74
			l-45.5,46.8l-56,42l-57.8,31.8l-111.2,47l-103.5,23.2c0,0-74.2,14.8-75.2,14.5s-26,0.2-26,0.2l-53-6l-52-9.2l-17.8-6.5l47-41.2
			c0,0,43-49.2,60.2-75.2s34.8-69,42.5-89.2s14.2-47.5,17.8-63.8S954.9,1085.1,954.9,1085.1z"/>
	</g>
	<g>
		<path fill="#FFFFFF" d="M1373.1,1033.2c-8.8,18.3-60.3,78.2-82.7,97c-24.5,20.5-88.5,56.5-131,57s-91.5-2-134-27.5
			c-42.5-25.5-71-76-70.5-74.5c0,0-1.6,13.7-3.7,28.1c19.7,26.6,59.7,70.3,116.2,84.4c90,22.5,181.5-4,240.5-61.5
			c83.3-81.2,69-105.5,69-105.5L1373.1,1033.2z"/>
	</g>
	<g>
		<path fill="#1A1A1A" d="M813.5,1685.9l5.8,1.5c30.7-119,35.1-260.3,35.1-261.7l-6-0.2C848.4,1427,844.1,1567.6,813.5,1685.9z"/>
		<path fill="#1A1A1A" d="M894.5,954c-56.2-2-110.1-13-160.4-32.6c-40.2-15.7-78.2-36.9-112.9-63.1c-54.3-41-83.5-81.6-88.1-88.3
			c11.8-13.1,22.7-25.7,32.3-37.8c56.1-70.6,97.1-134.3,97.5-134.9l-5-3.2c-0.4,0.6-41.2,64-97.2,134.4c-18.5,23.3-42,48.6-67,75.4
			c-52.6,56.5-112.3,120.6-156.6,198c-35.2,61.5-60.6,120-79.9,184c-19.4,64.5-32.8,136.3-40.8,219.5l6,0.6
			c8-82.8,21.3-154.2,40.6-218.3c19.2-63.6,44.4-121.7,79.4-182.8c44-76.8,103.4-140.6,155.8-196.9c10.6-11.4,21-22.5,30.8-33.4
			c2.9,4.1,9.7,13.4,20.8,26c13.6,15.4,36.4,38.8,67.6,62.4c35.1,26.6,73.6,48.1,114.4,64c51,19.9,105.7,31,162.5,33
			c0,0,0.1,0,0.1,0c1.6,0,2.9-1.3,3-2.9C897.5,955.4,896.2,954,894.5,954z"/>
	</g>
	<path fill="#1A1A1A" d="M1033.6,1649.1c-43.7-34.8-108.9-76.6-188.6-121c-1.4-0.8-3.3-0.3-4.1,1.2c-0.8,1.4-0.3,3.3,1.2,4.1
		c0.3,0.2,0.6,0.3,0.9,0.5l-3,13.5c0.7,3.1,0.7,6.5,0.2,9.6c-0.2,1.5-0.4,2.9-0.7,4.4c-0.1,0.5-0.2,1.4-0.3,2.1
		c-0.4,3.1-0.7,6.1-1,9.2c-0.7,6.4-1.3,12.9-2,19.3c-1.5,13.8-4.4,27.2-7.3,40.7c-0.7,3.1-1.3,6.2-1.9,9.3c-0.4,1.8-0.7,3.7-1,5.5
		c-0.1,0.6-0.2,0.9-0.2,1.2c-0.1,0.4-0.1,1-0.2,1.7c-0.7,5.5-1.7,10.9-2.8,16.4c-1.1,5.7-2.5,11.3-4.2,16.8
		c-83.9-28.8-178.7-67-275.7-111.3c-122.7-56-235.8-115.7-322.5-170.1c0.1-3.5,0.8-6.9,1.5-10.3c0.1-0.7,0.3-1.4,0.4-2.1
		c0-0.2,0-0.6,0-1c0.1-5.1,0.3-10.3,0.8-15.4c1-10.9,2.5-21.7,3.9-32.5c2.9-22.1,4-44.1,12.1-65.1c1.1-0.2,2-1,2.3-2.1
		c0.4-1.6-0.5-3.2-2.1-3.7c-72.9-20.3-162.6-38.4-175.8-9.5c-5.5,12,3.5,29.8,26.7,52.7c21.6,21.4,54.8,46.9,98.6,75.8
		c89.9,59.2,214.8,126.3,351.6,188.7c136.8,62.4,269.3,112.9,373,142c50.5,14.2,91.5,22.5,121.8,24.8c5.5,0.4,10.6,0.6,15.3,0.6
		c23.3,0,37.4-5,42-15C1100.1,1713.5,1080.2,1686.2,1033.6,1649.1z"/>
	<path fill="#1A1A1A" d="M725.1,479.9c-0.4-0.2-10.5-4.5-21.4,0.6c-9.4,4.4-16.2,14.2-20.5,29.1c-0.5,1.6,0.5,3.3,2.1,3.7
		c0.3,0.1,0.6,0.1,0.8,0.1c1.3,0,2.5-0.9,2.9-2.2c3.5-12.2,8.7-20.4,15.7-24.4l2.2,15.1c0.2,1.5,1.5,2.6,3,2.6c0.1,0,0.3,0,0.4,0
		c1.6-0.2,2.8-1.8,2.5-3.4l-2.4-16.4c6.6-1.5,12.1,0.8,12.3,0.9c1.5,0.7,3.3,0,3.9-1.5C727.3,482.3,726.7,480.6,725.1,479.9z"/>
	<path fill="#1A1A1A" d="M1561.1,943c-0.9-1.7-2.6-3.8-6.3-4.3c-2.5-0.3-6.2-0.8-30.6,30.7c2.4-10.7,2.9-24-6.8-29.6
		c-5.3-3.1-12,0-16.9,3.2c1.6-14.1-0.4-23.6-6.1-27.9c-2.4-1.8-6.5-3.3-12.6-1.2c0-8-1.5-14.4-4.3-18.2c-2.8-3.7-11.1-11.4-29.4-3.1
		c-1.5,0.7-2.2,2.5-1.5,4c0.7,1.5,2.5,2.2,4,1.5c4.8-2.2,16.5-6.4,22.2,1.3c7.5,10.1,2.4,51.1-24.6,83c-1.1,1.3-0.9,3.2,0.4,4.2
		c0.6,0.5,1.3,0.7,1.9,0.7c0.9,0,1.7-0.4,2.3-1.1c18-21.3,27-46.6,28.8-65.6c4.1-1.9,7.2-2.2,9.3-0.6c4.5,3.3,5.5,14.4,2.6,29.6
		c-5.5,29.2-19.2,46.1-19.4,46.3c-1.1,1.3-0.9,3.2,0.4,4.2c0.6,0.5,1.2,0.7,1.9,0.7c0.9,0,1.7-0.4,2.3-1.1
		c0.6-0.7,14.6-17.9,20.4-48c3.8-3.4,11.6-8.7,15.2-6.6c10.4,6,3,29.1-0.7,37.5c-0.2,0.3-0.2,0.7-0.2,1.1
		c-7.6,10.2-13.4,18.3-13.5,18.4c-1,1.4-0.6,3.2,0.7,4.2c1.4,1,3.2,0.6,4.2-0.7c20.2-28.4,44-58.6,49.5-60.7c0.9,0.2,1.2,0.6,1.4,1
		c2.3,4.5-1.2,21.1-30.3,74.9c-32.9,60.9-143.9,213.8-229.8,276.7c-0.1,0.1-0.2,0.2-0.4,0.3c-0.1-0.1-0.3-0.1-0.4-0.2
		c-24.7-8.1-48.9,11.9-66.6,26.5c-7.8,6.5-15.3,12.6-19,12.9c-5.6,0.4-8.7-1.2-12.2-3.2c-4.4-2.4-9.5-5.1-19.1-3.3
		c-8.7,1.6-30.5,14.7-55.8,29.8c-16.1,9.7-32.8,19.6-46.5,26.8c-20.7,10.9-24.8,10-25.4,9.7c-3.4-1.6-0.9-7.8,3.4-17.1
		c5.1-11,11.4-24.7,0.4-31.7c-12.9-8.2-33.8,9-57.9,29c-11.3,9.4-23.1,19.1-34.8,27c-28,18.8-47.7,22.6-54.6,23.3l-0.1,0
		c-21.1-0.3-39.4-2-54.7-4.3c-24.1-3.6-46.4-8.5-66.8-14c38.5-30.6,71.4-66.2,97.7-106.1c21.8-33,39.2-69,51.7-106.8
		c16.2-49.3,19.9-89.2,20.7-105.5c10.7,17.7,22,32.9,35.1,45.6c22.8,22,50.9,38.3,81.3,47c18.5,5.3,37.9,8,58.1,8
		c22.9,0,46.8-3.4,71.6-10.2c101.8-27.9,167.9-134,175.1-146c6.8-11.3-17.2-39.5-27.9-48.8c-10.8-9.4-20.3-25.1-19-31.1
		c0.2-0.8,0.6-1.6,2.1-2.1c6.2-1.7,23.7,11,34.1,18.6c8.9,6.5,14.5,10.5,18,11.4c6.3,1.7,18.2-3.4,27.3-8.8
		c7.4-4.4,21.5-13.9,31.9-28.3c17.7-24.4,16.6-41,16.6-41.7c-0.1-1.6-1.6-2.9-3.2-2.7c-1.6,0.1-2.9,1.6-2.8,3.2
		c0,0.2,0.8,15.3-15.4,37.7c-15.9,21.9-42.7,35-51.4,35c-0.6,0-1-0.1-1.4-0.2c-2.6-0.7-9.4-5.7-16-10.5
		c-17.1-12.5-30.9-21.8-39.2-19.5c-3.4,0.9-5.6,3.2-6.4,6.5c-2.3,10.1,10.9,28.3,20.9,37c15.2,13.2,29.9,35.9,26.7,41.2
		c-7.1,11.8-72,116-171.6,143.3c-45.6,12.5-88.1,13.3-126.4,2.3c-29.4-8.5-56.6-24.2-78.7-45.5c-32.5-31.3-53.7-78.6-83-144
		c-4.6-10.2-9.3-20.8-14.3-31.8l-1.2-2.7c-18.7-41-39.8-87.5-79.2-125.8c-45.5-44.3-107-69.1-188.1-75.9c-1.7-0.1-3.1,1.1-3.2,2.7
		s1.1,3.1,2.7,3.2c178.9,15,225.2,116.6,262.3,198.2l1.2,2.7c5,11,9.7,21.5,14.3,31.7c15.9,35.5,29.5,65.7,43.8,91
		c-0.2,0.4-0.4,0.9-0.4,1.4c0,0.5,0.3,48.2-20.7,111.8c-12.3,37.3-29.5,72.8-51,105.3c-26.7,40.4-60.3,76.5-99.8,107.3
		c-50.6-14.4-89.2-33-115.3-48.3c-40.7-23.8-60.9-44.7-61.1-44.9c0,0,0,0,0,0c-0.4-0.4-5.5-5.7-13.4-9.7c-10.9-5.5-22-5.8-32.1-0.9
		c-11.2,5.5-18.2,14.6-19.1,25.2c-1.2,12.8,6.2,25.7,20.7,36.4c14.7,10.9,29.9,14.2,45.9,17.8c14.1,3.1,28.6,6.3,43.9,14.9
		c13.2,7.5,29,20.2,43,31.4c14.4,11.6,26.9,21.6,35,24.9c9.5,3.9,20,5.9,30.9,5.9c9.2,0,18.6-1.4,27.6-4.3
		c18.6-5.9,33.6-17.1,41.5-31c8.3,1.6,16.8,3.1,25.6,4.4c17.3,2.6,34.7,4,51.9,4.3c0.3,0.1,0.6,0.2,1,0.2c0,0,0.1,0,0.2,0
		c0.4,0,1.3,0,2.6-0.1c1.8,0,3.7,0,5.5,0c74.9,0,146.6-18.5,198-36.1c82.5-28.3,151.7-67.6,188.9-94.9
		c86.6-63.4,198.4-217.4,231.5-278.7C1563.1,963.6,1564.2,949.2,1561.1,943z"/>
</g>
</svg>
