<?xml version="1.0" encoding="iso-8859-1"?>
<!-- Generator: Adobe Illustrator 23.0.2, SVG Export Plug-In . SVG Version: 6.00 Build 0)  -->
<svg version="1.1" id="Layer_1" xmlns="http://www.w3.org/2000/svg" xmlns:xlink="http://www.w3.org/1999/xlink" x="0px" y="0px"
	 viewBox="0 0 2000 2000" style="enable-background:new 0 0 2000 2000;" xml:space="preserve">
<g id="Layer_3" style="display:none;">
	
		<image style="display:inline;overflow:visible;enable-background:new    ;" width="8404" height="8404" xlink:href="A7EFD1AE287E13C.png"  transform="matrix(0.2399 0 0 0.2399 2404.5195 -165.5157)">
	</image>
</g>
<g id="Layer_5">
</g>
<g>
	<path style="fill:#FECE2F;" d="M576.4,1788.2C18.1,1697.1-10.8,1152.5,173.3,696.9c72-168,220.9-411.2,735.1-444
		c455.1-29,926.8,434.3,1013.7,903.5C2040.7,1796.9,1276.7,1902.4,576.4,1788.2z"/>
</g>
<g>
	<ellipse style="fill:#FFFFFF;" cx="732.4" cy="1682.2" rx="548" ry="98"/>
</g>
<g>
	<circle style="fill:#FFFFFF;" cx="1385.8" cy="404.2" r="200"/>
</g>
<g>
	<g>
		<path style="fill:#1A1A1A;" d="M458.4,1519.2H316.3c-1.7,0-3-1.3-3-3s1.3-3,3-3h142.1c1.7,0,3,1.3,3,3S460.1,1519.2,458.4,1519.2z
			"/>
	</g>
	<g>
		<path style="fill:#1A1A1A;" d="M848.4,1519.2H618.3c-1.7,0-3-1.3-3-3s1.3-3,3-3h230.1c1.7,0,3,1.3,3,3S850.1,1519.2,848.4,1519.2z
			"/>
	</g>
	<g>
		<path style="fill:#1A1A1A;" d="M1106.4,1519.2h-90.1c-1.7,0-3-1.3-3-3s1.3-3,3-3h90.1c1.7,0,3,1.3,3,3
			S1108.1,1519.2,1106.4,1519.2z"/>
	</g>
	<g>
		<path style="fill:#1A1A1A;" d="M1164.4,1519.2h-28.1c-1.7,0-3-1.3-3-3s1.3-3,3-3h28.1c1.7,0,3,1.3,3,3
			S1166.1,1519.2,1164.4,1519.2z"/>
	</g>
</g>
<path style="fill:#1A1A1A;" d="M1785.9,1736c-7.5-2.9-18.3-5.6-31.9-7.8c-27.7-4.6-64.6-7.1-103.7-7.1c-39.2,0-76,2.5-103.7,7.1
	c-13.6,2.2-24.3,4.9-31.9,7.8c-9,3.5-13.4,7.5-13.4,12.1s4.4,8.6,13.4,12.1c7.5,2.9,18.3,5.6,31.9,7.8c27.7,4.6,64.6,7.1,103.7,7.1
	c39.2,0,76-2.5,103.7-7.1c13.6-2.2,24.3-4.9,31.9-7.8c9-3.5,13.4-7.5,13.4-12.1S1794.9,1739.5,1785.9,1736z"/>
<g>
	<g>
		<path style="fill:#FECE2F;" d="M841.6,230.9l-38.7,196c0,0-24.7-11.3-76-9.3s-83.3,6.7-83.3,6.7L613,222.9c0,0,32.7-23.3,120-23.3
			C809.6,199.5,841.6,230.9,841.6,230.9z"/>
	</g>
	<g>
		<path style="fill:#FFFFFF;" d="M645.6,209.6c-22.9,6.3-32.6,13.2-32.6,13.2l30.7,201.3c0,0,8.1-1.2,22.7-2.6L645.6,209.6z"/>
	</g>
	<g>
		<path style="fill:#FFFFFF;" d="M279.8,917.7c0,0,29-88.5,39.5-111.5s38.5-100,74-133.5c0,0,20.5-29,72-33.5l17-126
			c0,0-46,8-92.5,34s-90.5,73-117.5,117s-74,138-92,232.5C182.8,895.7,279.8,917.7,279.8,917.7z"/>
	</g>
	<g>
		<path style="fill:#FECE2F;" d="M474,574.6c-13,1.8-26.4,8-37.7,12.5c-40.7,16.4-77.5,42.5-106.8,75.3
			C288,709,261.8,768.6,253.3,830.5c-1.6,11.8-2.6,23.9-7,35s-12.8,21.3-24.3,24.4c-1.7,0.5-3.5,0.8-5,1.8
			c-3.8,2.5-3.4,7.4-1.3,11.8c28.6,6.1,64.2,14.2,64.2,14.2s29-88.5,39.5-111.5s38.5-100,74-133.5c0,0,20.5-29,72-33.5L474,574.6z"
			/>
	</g>
	<g>
		<path style="fill:#FFFFFF;" d="M1257.6,731.5c0,0-6,55.3-28.7,77.3s-41.3,32-67.3,10.7s-33.3-82.7-33.3-82.7s-4.2-57-31.2-109.3
			s-71.3-85.3-150.8-92.3l-1.3,117c0,0,40.3,8.3,56,31.3s22.7,57,28.3,88.7c5.7,31.7,26,97.3,55.3,132s66.3,47,95.3,47.7
			s71.7-9,109-43s50.3-74,50.3-74s19.3-50.3,22-69.7c0,0-28.7,0-55.3-6.3C1279.3,752.5,1257.6,731.5,1257.6,731.5z"/>
	</g>
	<g>
		<path style="fill:#FECE2F;" d="M1361.3,765.2c0,0-28.7,0-55.3-6.3c-2.9-0.7-5.7-1.5-8.4-2.5c-8,25.1-1.3,70.1-5,95.7
			c-3.1,21.8-19.1,39.9-37.4,52.3c-42.1,28.3-104.9,22.6-135.4-4.7c-19-17-36.5-56.5-43.4-101.1c-16.7-107-30.1-156.3-87.2-186.5
			c-12.9-6.8-32.8-8.6-43.7-9.1l-0.6,49.3c0,0,40.3,8.3,56,31.3s22.7,57,28.3,88.7c5.7,31.7,26,97.3,55.3,132s66.3,47,95.3,47.7
			s71.7-9,109-43c14.9-13.6,26-28.2,33.8-40.7c0-0.1,0.1-0.1,0.1-0.2c5.9-11.5,8.4-19.1,8.4-19.1s4.4-7.8,8.3-14.7
			C1342,827.9,1358.8,783.1,1361.3,765.2z"/>
	</g>
	<g>
		<path style="fill:#FECE2F;" d="M728.3,487.3l-68.7-3.2L557,476.9c0,0-38-12-61.3,13.3c-23.3,25.3-22.7,65.3-22.7,65.3
			s-11.3,124-12,168s0.7,162.7,4,208.7s14.7,131.3,35.3,162s40.7,34.7,108,24.7s146.7-21.3,146.7-21.3l157.3-19.3
			c0,0,32.7-4,42-27.3s0-66.7,0-66.7S939,883.5,939,842.9c0-40.7,6-238.7,6-238.7s9.6-69.6-8.7-93.3
			C923,493.5,728.3,487.3,728.3,487.3z"/>
	</g>
	<path style="fill:#FFFFFF;" d="M850.4,579.2l-355.9-15.7c-0.8,0-1.6,0.3-2.2,0.8c-0.6,0.6-0.9,1.3-0.9,2.2v309.7
		c0,1.5,1.2,2.8,2.7,3l351.3,34.3c0.1,0,0.2,0,0.3,0c0.7,0,1.4-0.3,2-0.8c0.6-0.6,1-1.4,1-2.2l4.6-328.3
		C853.3,580.6,852.1,579.3,850.4,579.2z"/>
	<g>
		<path style="fill:#FFFFFF;" d="M728.3,487.3l-68.7-3.2L557,476.9c0,0-38-12-61.3,13.3c-11.4,12.4-17.1,28.3-19.9,41.4l459.9-21.5
			C917.2,493.3,728.3,487.3,728.3,487.3z"/>
	</g>
	<g>
		<path style="fill:#FFFFFF;" d="M905.3,1077.2l42,239l41.5,244.5c0,0-18.5,16.5-44,22s-56.5-1.5-56.5-1.5l-43.5-260l-38-230.5
			L905.3,1077.2z"/>
	</g>
	<g>
		<path style="fill:#FECE2F;" d="M930,1584.6c5-0.3,10-0.9,14.8-1.9c25.5-5.5,44-22,44-22l-41.5-244.5l-36-205.1l-52.5,24.2
			L930,1584.6z"/>
	</g>
	<path style="fill:#1A1A1A;" d="M925.3,1178.7c0-0.1,0-0.2,0-0.3l-15.5-99c-0.3-1.6-1.7-2.7-3.3-2.5l-67.1,8.4l-32.3,4
		c-0.8,0.1-1.5,0.5-2,1.2s-0.7,1.5-0.6,2.3l9,54c0.1,0.6,0.4,1.1,0.8,1.6c0.6,0.6,15,15.3,49.4,8.9c13-2.4,18,7.9,24.3,23.8
		c4.2,10.7,8.5,21.7,18,23.5c1.2,0.2,2.4,0.4,3.6,0.4c3.5,0,6.6-1.1,9.1-3.3C926.2,1194.6,925.3,1179.3,925.3,1178.7z"/>
	<g>
		<path style="fill:#FFFFFF;" d="M678.3,1107.2l-99,485.5c0,0-28.5,11.5-51,10s-48-16.5-48-16.5l27.5-143l66-320.5L678.3,1107.2z"/>
	</g>
	<g>
		<path style="fill:#FECE2F;" d="M528.3,1602.7c7.7-1.6,19.4-0.9,30.7-3.1c10-1.9,20.3-6.9,20.3-6.9l99-485.5l-59,8L528.3,1602.7z"
			/>
	</g>
	<path style="fill:#1A1A1A;" d="M680.5,1106.1c-0.7-0.7-1.7-1.1-2.7-0.9l-105,17c-1.2,0.2-2.2,1.1-2.5,2.4l-23,115
		c-0.1,0.7,0,1.4,0.3,2c0.2,0.4,5.4,10.2,15.2,12.9c1.7,0.5,3.5,0.7,5.2,0.7c3.8,0,7.8-1.2,11.7-3.5c8.4-4.9,9-15.6,9.5-27
		c1-18.8,2-38.3,36.1-39.6c36.3-1.4,44.7-25,45.1-26c0-0.1,0.1-0.2,0.1-0.3l10.7-50C681.5,1107.8,681.2,1106.8,680.5,1106.1z"/>
	<g>
		<path style="fill:#FECE2F;" d="M179.9,1097.3c-3.4-0.8-52.6-9.3-53.3-6.1s4.3,7.2,32.8,14.2s70.2,15.8,71,12
			S201.7,1102.3,179.9,1097.3z"/>
	</g>
	<g>
		<polygon style="fill:#1A1A1A;" points="505.3,567.2 857.3,567.2 846.3,895.2 505.3,865.2 		"/>
	</g>
	<g>
		<g>
			<g>
				<path style="fill:#FECE2F;" d="M506.9,592.7c0.1,12-1,24-1.6,36c-0.6,11.8,0.3,23.6-0.3,35.4c-0.1,2.8-0.4,5.5-0.8,8.2
					c1.2,4.8,1.1,10,0.5,14.8c-0.3,2.5-0.6,4.9-1,7.4c-0.1,0.4-0.7,4.9-0.2,1.2c0.5-3.3,0,0,0,0.8c-0.1,1.4-0.1,2.8-0.1,4.1
					c0,1.4,0.2,2.8,0.3,4.2c-0.2-4.7,0.1,0.7,0.2,1.5c0.6,4,1.3,8.1,1.7,12.1c0.3,3,0.5,6,0.3,9c7.6,1.8,17.2,3.5,27.6,4.5
					c24.8,2.2,45.8-4.7,45.8-4.7l6.6-130.8L506.9,592.7z"/>
			</g>
			<g>
				<path style="fill:#1A1A1A;" d="M587.7,593.9c-1.8-2.2-6.3-3.9-14.4-5.5c-8.6-1.7-20-3-32.2-3.6s-23.7-0.5-32.4,0.4
					c-1,0.1-1.9,0.2-2.8,0.3c0.6,1.9,1,4,1.1,6c0,2.9,0,5.9-0.1,8.8c0.3,0.1,0.7,0.1,1,0.2c8.6,1.7,20,3,32.2,3.6
					c12.2,0.6,23.7,0.5,32.4-0.4c4.4-0.4,7.7-1,10.2-1.7l-1.3,26.4c-0.1,0.1-0.1,0.3-0.2,0.4c-2.7,1.6-17.1,3.8-42.5,2.5
					c-15.2-0.8-26.3-2.4-33.4-3.9c0,0.4,0,0.8-0.1,1.2c-0.6,11.8,0.3,23.6-0.3,35.4c-0.1,2.8-0.4,5.5-0.8,8.2c1,4.2,1.1,8.7,0.7,13
					c8.4,1.6,19.3,2.8,30.9,3.4c12.2,0.6,23.7,0.5,32.4-0.4c4.4-0.4,7.7-1,10.2-1.7l-2,39.4c-0.1,0.1-0.1,0.3-0.2,0.4
					c-2.7,1.6-17.1,3.8-42.5,2.5c-11.6-0.6-20.8-1.7-27.7-2.8c0,2-0.2,4-0.4,6c7.9,1.3,17.6,2.3,27.8,2.8
					c12.2,0.6,23.7,0.5,32.4-0.4c10-1,14.7-2.6,15.9-5.5c0.4-0.5,0.6-1.1,0.6-1.7l6.6-130.8C589.1,595.4,588.6,594.5,587.7,593.9z"
					/>
				<path style="fill:#FFFFFF;" d="M540.8,590.8c-15.4-0.8-26.7-0.3-33.9,0.6v0.1c0,0.9,0,1.8,0,2.7c7,1.6,18.2,3.2,33.5,3.9
					c21.1,1.1,34.6-0.3,40.1-1.7C575.2,594.5,561.9,591.9,540.8,590.8z"/>
			</g>
		</g>
		<g>
			<g>
				<path style="fill:#FECE2F;" d="M678.7,602.4l-8.1,130.8c0,0-21.1,6.7-45.8,4.2s-44.6-9.8-44.6-9.8l5.9-101.5l2.1-28.9
					L678.7,602.4z"/>
			</g>
			<g>
				<path style="fill:#1A1A1A;" d="M681.7,602.6c0.1-1.1-0.5-2.1-1.3-2.7c-1.8-2.2-6.3-4-14.3-5.7c-8.6-1.8-20-3.2-32.2-4
					s-23.7-0.8-32.4,0c-9.5,0.8-14.2,2.2-15.7,4.9c-0.3,0.4-0.5,0.9-0.5,1.5l-2.1,33.6l-3.2,51.2l-2.8,45.9c0,0.1,0,0.1,0,0.2
					c0,0.1,0,0.1,0,0.2c-0.2,3.8,4,6.3,15.3,8.6c8.6,1.8,20,3.2,32.2,4s23.7,0.8,32.4,0c10-0.8,14.7-2.4,15.9-5.3
					c0.4-0.5,0.6-1.1,0.7-1.7L681.7,602.6z M590.8,602.9c2.4,0.9,5.5,1.8,9.6,2.7c8.6,1.8,20,3.2,32.2,4s23.7,0.8,32.4,0
					c4.4-0.4,7.7-0.9,10.2-1.6l-1.6,26.4c-0.1,0.1-0.1,0.3-0.2,0.4c-2.7,1.5-17.1,3.6-42.5,2c-25-1.5-39-5.2-41.8-7.1L590.8,602.9z
					 M624.9,734.3c-25-1.5-39-5.2-41.8-7.1l2.5-39.8c2.4,0.9,5.5,1.8,9.6,2.7c8.6,1.8,20,3.2,32.2,4s23.7,0.8,32.4,0
					c4.4-0.4,7.7-0.9,10.2-1.6l-2.4,39.4c-0.1,0.1-0.1,0.3-0.2,0.4C664.8,733.9,650.4,735.9,624.9,734.3z"/>
				<path style="fill:#FFFFFF;" d="M633,603.6c-21.1-1.3-34.4-4.1-39.7-6.1c5.5-1.3,19-2.5,40.1-1.2s34.4,4.1,39.7,6.1
					C667.6,603.7,654.1,604.9,633,603.6z"/>
			</g>
		</g>
		<g>
			<g>
				<path style="fill:#FECE2F;" d="M769,608.7l-8.1,130.8c0,0-21.1,6.7-45.8,4.2s-44.6-9.8-44.6-9.8l5.9-101.5l2.1-28.9L769,608.7z"
					/>
			</g>
			<g>
				<path style="fill:#1A1A1A;" d="M772,608.9c0.1-1.1-0.5-2.1-1.3-2.7c-1.8-2.2-6.3-4-14.3-5.7c-8.6-1.8-20-3.2-32.2-4
					s-23.7-0.8-32.4,0c-9.5,0.8-14.2,2.2-15.7,4.9c-0.3,0.4-0.5,0.9-0.5,1.5l-2.1,33.6l-3.2,51.2l-2.8,45.9c0,0.1,0,0.1,0,0.2
					c0,0.1,0,0.1,0,0.2c-0.2,3.8,4,6.3,15.3,8.6c8.6,1.8,20,3.2,32.2,4s23.7,0.8,32.4,0c10-0.8,14.7-2.4,15.9-5.3
					c0.4-0.5,0.6-1.1,0.7-1.7L772,608.9z M681.2,609.2c2.4,0.9,5.5,1.8,9.6,2.7c8.6,1.8,20,3.2,32.2,4s23.7,0.8,32.4,0
					c4.4-0.4,7.7-0.9,10.2-1.6l-1.6,26.4c-0.1,0.1-0.1,0.3-0.2,0.4c-2.7,1.5-17.1,3.6-42.5,2c-25-1.5-39-5.2-41.8-7.1L681.2,609.2z
					 M715.3,740.7c-25-1.5-39-5.2-41.8-7.1l2.5-39.8c2.4,0.9,5.5,1.8,9.6,2.7c8.6,1.8,20,3.2,32.2,4s23.7,0.8,32.4,0
					c4.4-0.4,7.7-0.9,10.2-1.6l-2.4,39.4c-0.1,0.1-0.1,0.3-0.2,0.4C755.1,740.2,740.7,742.2,715.3,740.7z"/>
				<path style="fill:#FFFFFF;" d="M723.4,609.9c-21.1-1.3-34.4-4.1-39.7-6.1c5.5-1.3,19-2.5,40.1-1.2s34.4,4.1,39.7,6.1
					C758,610,744.5,611.2,723.4,609.9z"/>
			</g>
		</g>
		<g>
			<g>
				<path style="fill:#FECE2F;" d="M853.6,680.1c0.5-21.8-1.2-43.9,0.9-65.6l-85.6-5l-2.1,28.9l-5.9,101.5c0,0,19.9,7.2,44.6,9.8
					c23.5,2.4,43.7-3.5,45.7-4.1C851.2,723.7,853.1,701.9,853.6,680.1z"/>
			</g>
			<g>
				<path style="fill:#1A1A1A;" d="M853.6,680.1c0.3-10.8,0-21.7-0.2-32.6c-4,1.5-18.1,3.1-41.8,1.7c-25-1.5-39-5.2-41.8-7.1
					l1.7-26.8c2.4,0.9,5.5,1.8,9.6,2.7c8.6,1.8,20,3.2,32.2,4s23.7,0.8,32.4,0c3.3-0.3,6-0.6,8.2-1.1c0.3-4,0.6-8,1.1-12
					c-2.2-0.8-5-1.5-8.4-2.2c-8.6-1.8-20-3.2-32.2-4s-23.7-0.8-32.4,0c-9.5,0.8-14.2,2.2-15.7,4.9c-0.3,0.4-0.5,0.9-0.5,1.5
					l-2.1,33.6l-3.2,51.2l-2.8,45.9c0,0.1,0,0.1,0,0.2c0,0.1,0,0.1,0,0.2c-0.2,3.8,4,6.3,15.3,8.6c8.6,1.8,20,3.2,32.2,4
					s23.7,0.8,32.4,0c6.6-0.6,10.9-1.4,13.4-2.8C850.9,726.6,853,703.3,853.6,680.1z M848.3,744.2c-0.1,0.1-0.1,0.3-0.2,0.4
					c-2.7,1.5-17.1,3.6-42.5,2c-25-1.5-39-5.2-41.8-7.1l2.5-39.8c2.4,0.9,5.5,1.8,9.6,2.7c8.6,1.8,20,3.2,32.2,4s23.7,0.8,32.4,0
					c4.4-0.4,7.7-0.9,10.2-1.6L848.3,744.2z"/>
				<path style="fill:#FFFFFF;" d="M813.7,615.9c-21.1-1.3-34.4-4.1-39.7-6.1c5.5-1.3,19-2.5,40.1-1.2s34.4,4.1,39.7,6.1
					C848.3,616,834.8,617.2,813.7,615.9z"/>
			</g>
		</g>
	</g>
	<g>
		<g>
			<g>
				<path style="fill:#FECE2F;" d="M505.3,763.7c-1.6,15.8-1.8,32-0.1,47.6c1,9.6,0.5,18.9,0.2,28.5c-0.2,8.6,0.5,17.1,0.3,25.7
					c1.8,0.2,3.7,0.5,5.5,0.8c0.4,0,3.3,0.3,3.6,0.3c7.7,0.6,15.4,1.1,23.1,1.6c13.8,0.9,27.5,1.1,41.1,3.1l5.2-104L505.3,763.7z"/>
			</g>
			<g>
				<path style="fill:#1A1A1A;" d="M585.7,764.9c-1.8-2.2-6.3-3.9-14.4-5.5c-8.6-1.7-20-3-32.2-3.6s-23.7-0.5-32.4,0.4
					c-0.2,0-0.4,0-0.5,0.1c-0.6,5-1.2,10-1.5,15c0.4,0.1,0.8,0.2,1.3,0.3c8.6,1.7,20,3,32.2,3.6c12.2,0.6,23.7,0.5,32.4-0.4
					c4.4-0.4,7.7-1,10.2-1.7l-1.3,26.4c-0.1,0.1-0.1,0.3-0.2,0.4c-2.7,1.6-17.1,3.8-42.5,2.5c-14.6-0.7-25.5-2.2-32.6-3.7
					c0.2,4.3,0.5,8.5,0.9,12.7c1,9.6,0.5,18.9,0.2,28.5c-0.1,5.6,0.1,11.3,0.2,16.9c8,1.3,17.9,2.4,28.3,2.9
					c12.2,0.6,23.7,0.5,32.4-0.4c4.4-0.4,7.7-1,10.2-1.7l-0.7,13.4c2,0.3,4,0.6,6,0.9l5.2-104.3
					C587.1,766.4,586.6,765.5,585.7,764.9z"/>
				<path style="fill:#FFFFFF;" d="M538.8,761.8c-15.1-0.8-26.2-0.3-33.4,0.5c-0.1,1-0.2,1.9-0.3,2.9c7,1.6,18.2,3.1,33.3,3.9
					c21.1,1.1,34.6-0.3,40.1-1.7C573.2,765.5,559.9,762.9,538.8,761.8z"/>
			</g>
		</g>
		<g>
			<g>
				<path style="fill:#FECE2F;" d="M586.2,768.1l-2.1,28.9l-4.4,74.5c2.8,0.4,5.7,1,8.5,1.6c2.1,0.5,4,1.3,5.7,2.4
					c25.5,0.6,50.8,3.5,76.1,5.7l6.7-107.9L586.2,768.1z"/>
			</g>
			<g>
				<path style="fill:#1A1A1A;" d="M678.3,770.9c-1.8-2.2-6.3-4-14.3-5.7c-8.6-1.8-20-3.2-32.2-4s-23.7-0.8-32.4,0
					c-9.5,0.8-14.2,2.2-15.7,4.9c-0.3,0.4-0.5,0.9-0.5,1.5l-2.1,33.6l-3.2,51.2l-1.2,18.7c2,0.3,4,0.6,6,0.9l0.8-13.7
					c2.4,0.9,5.5,1.8,9.6,2.7c8.6,1.8,20,3.2,32.2,4s23.7,0.8,32.4,0c4.4-0.4,7.7-0.9,10.2-1.6L667,881c2,0.2,4,0.4,6,0.5l6.7-108
					C679.7,772.5,679.2,771.5,678.3,770.9z M671.7,805.4c-0.1,0.1-0.1,0.3-0.2,0.4c-2.7,1.5-17.1,3.6-42.5,2
					c-25-1.5-39-5.2-41.8-7.1l1.7-26.8c2.4,0.9,5.5,1.8,9.6,2.7c8.6,1.8,20,3.2,32.2,4s23.7,0.8,32.4,0c4.4-0.4,7.7-0.9,10.2-1.6
					L671.7,805.4z"/>
				<path style="fill:#FFFFFF;" d="M631,774.6c-21.1-1.3-34.4-4.1-39.7-6.1c5.5-1.3,19-2.5,40.1-1.2s34.4,4.1,39.7,6.1
					C665.6,774.7,652.1,775.9,631,774.6z"/>
			</g>
		</g>
		<g>
			<g>
				<path style="fill:#FECE2F;" d="M676.5,774.5l-2.1,28.9l-4.6,77.9c17.1,1.5,34.2,2.8,51.4,2.8c3,0,5.8,0.7,8.2,1.8
					c10.3,0.9,20.6,1.8,30.8,2.6l6.7-108.8L676.5,774.5z"/>
			</g>
			<g>
				<path style="fill:#1A1A1A;" d="M768.7,777.2c-1.8-2.2-6.3-4-14.3-5.7c-8.6-1.8-20-3.2-32.2-4s-23.7-0.8-32.4,0
					c-9.5,0.8-14.2,2.2-15.7,4.9c-0.3,0.4-0.5,0.9-0.5,1.5l-2.1,33.6l-3.2,51.2l-1.4,22.2c2,0.2,4,0.4,6,0.5l1-16.8
					c2.4,0.9,5.5,1.8,9.6,2.7c8.6,1.8,20,3.2,32.2,4s23.7,0.8,32.4,0c4.4-0.4,7.7-0.9,10.2-1.6l-1.1,18.5c2,0.2,4,0.3,6,0.5
					l6.7-108.9C770.1,778.8,769.5,777.8,768.7,777.2z M762,811.8c-0.1,0.1-0.1,0.3-0.2,0.4c-2.7,1.5-17.1,3.6-42.5,2
					c-25-1.5-39-5.2-41.8-7.1l1.7-26.8c2.4,0.9,5.5,1.8,9.6,2.7c8.6,1.8,20,3.2,32.2,4s23.7,0.8,32.4,0c4.4-0.4,7.7-0.9,10.2-1.6
					L762,811.8z"/>
				<path style="fill:#FFFFFF;" d="M721.4,780.9c-21.1-1.3-34.4-4.1-39.7-6.1c5.5-1.3,19-2.5,40.1-1.2s34.4,4.1,39.7,6.1
					C756,781,742.5,782.2,721.4,780.9z"/>
			</g>
		</g>
		<g>
			<g>
				<path style="fill:#FECE2F;" d="M786.6,890.7c10.4,0.8,20.8,1.6,31.2,2.7c9.4,1,18.7,2.4,28.1,2.4c0.2-5.8,0.5-11.6,0.2-17.5
					c-0.6-12,0.3-23.2,2-35.2c0.2-1.5,0.4-3.1,0.7-4.6c0-0.2,0.1-0.4,0.1-0.6c0.3-2.7,0.6-5.4,0.8-8.1c0.4-5.3,0.3-10.6,0.1-15.9
					c-0.3-9.6-0.8-19.1-0.2-28.6l-82.7-4.8l-2.1,28.9l-4.6,79.1C768.9,889.2,777.8,889.9,786.6,890.7z"/>
			</g>
			<g>
				<path style="fill:#1A1A1A;" d="M763.1,888.8l1.1-18c2.4,0.9,5.5,1.8,9.6,2.7c8.6,1.8,20,3.2,32.2,4s23.7,0.8,32.4,0
					c2.9-0.2,5.4-0.6,7.4-0.9c-0.4-11.3,0.5-22,2.1-33.4c0.2-1.5,0.4-3.1,0.7-4.6c0-0.2,0.1-0.4,0.1-0.6c0.3-2.7,0.6-5.4,0.8-8.1
					c0.2-3.6,0.3-7.3,0.2-10.9c-5.5,1.3-19,2.5-40.2,1.2c-25-1.5-39-5.2-41.8-7.1l1.7-26.8c2.4,0.9,5.5,1.8,9.6,2.7
					c8.6,1.8,20,3.2,32.2,4s23.7,0.8,32.4,0c2.1-0.2,3.9-0.4,5.5-0.6c0.1-3.5,0.2-7,0.6-10.5c0.1-1,0.3-1.9,0.5-2.9
					c-1.6-0.5-3.5-0.9-5.6-1.4c-8.6-1.8-20-3.2-32.2-4s-23.7-0.8-32.4,0c-9.5,0.8-14.2,2.2-15.7,4.9c-0.3,0.4-0.5,0.9-0.5,1.5
					l-2.1,33.6l-3.2,51.2l-1.5,23.5C759.2,888.5,761.2,888.6,763.1,888.8z"/>
				<path style="fill:#FFFFFF;" d="M849.6,785c-6.3-1.9-18.8-4.2-37.4-5.4c-21.1-1.3-34.6-0.1-40.1,1.2c5.3,2,18.6,4.8,39.7,6.1
					c18.6,1.1,31.3,0.4,37.8-0.7C849.5,785.8,849.6,785.4,849.6,785z"/>
			</g>
		</g>
	</g>
	<g>
		<path style="fill:#1A1A1A;" d="M850.3,746.2c-0.1,0-0.1,0-0.2,0l-344-23c-1.7-0.1-2.9-1.5-2.8-3.2s1.5-2.9,3.2-2.8l344,23
			c1.7,0.1,2.9,1.5,2.8,3.2C853.2,745,851.9,746.2,850.3,746.2z"/>
	</g>
	<path style="fill:#1A1A1A;" d="M962.3,1008.7c-0.9-6.2-2-13.1-3.2-20.4c-7.7-48.2-19.4-121.1-16.8-224c1-41.6,2.6-81,3.9-115.7
		c2.6-67,4.3-111.3,0.9-122.2c-5.6-18-12.8-29.1-64.6-32.1l0,0c0,0,0,0-0.1,0c-30.3-1.7-135.8-8.3-220.6-13.6
		c-60.6-3.8-112.9-7-120.5-7.4c-14.7-0.8-27.5,1.9-38.1,8.2c-16.6,9.8-27,27.7-31.1,53.4c-9.4,59.7-14.2,170.8-15.5,227
		c-2.2,94.3,7.2,256.1,30.7,314.7c11.5,27.3,25.5,42.6,44.2,48.3c6.6,2,13.7,2.8,21.2,2.8c12.3,0,25.6-2.1,39.4-4.4
		c46.9-7.6,281.9-37.5,314.8-40.5c19.5-1.8,35-9.3,44.7-21.6C962,1048.2,965.5,1030.6,962.3,1008.7z M878.4,500l-9.2,31.8
		c-1.2,4.2-5.3,7-9.6,6.7L552.2,516c-5-0.4-8.8-4.5-8.6-9.5l0.6-27.2c13.9,0.8,62.2,3.8,117.3,7.3
		C743.1,491.7,843.9,497.9,878.4,500z M947.1,1057.5c-11,14-28.1,18.2-40.6,19.4c-33,3-268.2,33-315.2,40.5
		c-14.2,2.3-26.9,4.3-38.4,4.3c-24.9,0-43.9-9.7-59.9-47.5c-22.9-57.1-32.5-220.9-30.3-312.3c1.3-56.1,6.1-166.9,15.5-226.2
		c4.1-26.1,17.6-56.6,58.1-56.6c0.6,0,1.2,0,1.8,0l-0.7,27.3c-0.2,8.2,6,15.1,14.2,15.6l307.3,22.4c0.4,0,0.7,0,1.1,0
		c6.7,0,12.8-4.5,14.7-11.1l9.6-33.1c49.2,3.2,52.6,14,56.9,27.8c3.1,9.9,1.2,58.6-1.2,120.2c-1.4,34.8-2.9,74.1-3.9,115.8
		c-2.6,103.5,9.1,176.7,16.8,225.1c1.2,7.3,2.3,14.2,3.2,20.4C959.3,1029.7,956.2,1045.8,947.1,1057.5z"/>
	<g>
		
			<rect x="582.277" y="937.24" transform="matrix(0.9913 -0.1317 0.1317 0.9913 -124.3089 99.9246)" style="fill:#1A1A1A;" width="222.002" height="105.001"/>
		<path style="fill:#1A1A1A;" d="M590.2,1059.4c-0.7,0-1.3-0.2-1.8-0.6c-0.6-0.5-1-1.2-1.2-2l-13.8-104.1c-0.2-1.6,0.9-3.2,2.6-3.4
			L796,920c0.8-0.1,1.6,0.1,2.2,0.6c0.6,0.5,1,1.2,1.2,2l13.8,104.1c0.2,1.6-0.9,3.2-2.6,3.4l-220.1,29.2
			C590.5,1059.3,590.3,1059.4,590.2,1059.4z M579.7,954.8l13,98.1l214.1-28.5l-13-98.1L579.7,954.8z"/>
	</g>
	<path style="fill:#FFFFFF;" d="M812.4,1025.1L775.8,986l23.5-61.9c0.6-1.5-0.2-3.3-1.7-3.9c-1.5-0.6-3.3,0.2-3.9,1.7l-23.5,62
		L625,1004l-46.4-53.7c-1.1-1.3-3-1.4-4.2-0.3c-1.3,1.1-1.4,3-0.3,4.2l45.9,53.2l-32.3,47.3c-0.9,1.4-0.6,3.2,0.8,4.2
		c0.5,0.4,1.1,0.5,1.7,0.5c1,0,1.9-0.5,2.5-1.3l32.9-48.1l145.6-20.1l36.9,39.3c0.6,0.6,1.4,0.9,2.2,0.9c0.7,0,1.5-0.3,2.1-0.8
		C813.5,1028.2,813.6,1026.3,812.4,1025.1z"/>
	<path style="fill:#1A1A1A;" d="M231.4,1117.4L231.4,1117.4L231.4,1117.4z"/>
	<g>
		<path style="fill:#FECE2F;" d="M139.1,1090.9c-4.6,6.8-7.3,15-7.3,23.8c0,23.5,19,42.5,42.5,42.5s42.5-19,42.5-42.5
			c0-1.7-0.1-3.3-0.3-5c0,0-11.2-8-35.7-12.5S139.1,1090.9,139.1,1090.9z"/>
	</g>
	<g>
		<path style="fill:#FFFFFF;" d="M174.3,1157.2c23.5,0,42.5-19,42.5-42.5c0-1.7-0.1-3.3-0.3-5c0,0-1.3-0.9-4-2.4
			c-0.9,2-1.9,4.4-3.4,7.2c-4.7,8.3-11.1,15.7-19.1,21c-12.9,8.5-30.3,10.9-44.3,4.2c-2.8-1.4-5.7-3.1-8.6-4.5
			C144.4,1148.4,158.3,1157.2,174.3,1157.2z"/>
	</g>
	<path style="fill:#1A1A1A;" d="M304.2,939.4c-0.3-1.2-9.2-29.8-69.2-44.8c-64.5-16-94.1,1.3-95.3,2c-0.8,0.5-1.3,1.3-1.4,2.3
		l-18.9,190c-0.2,0.3-0.3,0.6-0.4,1c-0.8,3.5,2.5,6.5,12.1,10.6c-1.5,4.5-2.3,9.3-2.3,14.2c0,3.6,0.4,7.1,1.2,10.5
		c-2.7,1.9-5.3,4.1-7.7,6.5c-3.2,3.3-6,7-8.3,11.3c-2.2,4.3-3.8,9.2-4.3,14.3c-0.1,1.3-0.1,2.6-0.1,3.8c0,0.6,0,1.3,0.1,1.9l0.2,1.9
		l0.1,1l0.2,0.9l0.4,1.9c0.2,1.3,0.6,2.4,1.1,3.6c1.7,4.7,4.2,8.9,7.2,12.5c6,7.2,13.3,12.2,21.1,15.8c1.1,0.5,2.3,0.3,3.3-0.5
		c1.3-1.1,1.4-3,0.3-4.3l-0.1-0.1c-1.3-1.6-2.7-3-4.1-4.5c-1.3-1.5-2.6-3-3.9-4.5c-0.6-0.8-1.2-1.5-1.8-2.3s-1.2-1.5-1.7-2.3
		c-1-1.6-2.2-3-3-4.6c-0.4-0.8-1-1.5-1.3-2.3l-1.1-2.4c-0.2-0.4-0.3-0.8-0.5-1.2l-0.4-1.2c-0.1-0.4-0.3-0.8-0.4-1.2l-0.3-1.2
		c-0.8-3.1-1-6.2-0.6-9.3c0.4-3.1,1.4-6.2,2.8-9.2c1.4-3.1,3.3-6.1,5.4-9.1c0.7-1,1.5-2,2.2-3c7.9,13.5,22.6,22.7,39.3,22.7
		c12.6,0,23.9-5.1,32.2-13.4c0.6,1.9,1.2,3.7,1.6,5.6c0.8,3.4,1.4,6.7,1.5,9.8c0.2,3.2-0.1,6.2-0.9,9.1c-1.5,5.8-5.3,11-10.6,15.7
		l-1,0.9l-1,0.8l-2.1,1.7c-1.5,1.1-3,2.1-4.5,3.2c-1.6,1-3.2,2-4.8,3.1c-1.7,1-3.3,2-5,3.1l-0.2,0.1c-1,0.6-1.5,1.8-1.3,3
		c0.3,1.7,1.8,2.8,3.5,2.5c2-0.3,4.1-0.7,6.1-1.1c2-0.5,4-1.1,6-1.8c2-0.7,4-1.5,5.9-2.4l2.9-1.5l1.4-0.8l1.4-0.9l2.8-1.8l2.7-2.1
		c0.4-0.4,0.9-0.7,1.3-1.1l1.2-1.2c0.8-0.8,1.7-1.6,2.4-2.6c3.1-3.6,5.5-8,7-12.6c1.5-4.7,1.9-9.6,1.5-14.4
		c-0.5-4.7-1.7-9.2-3.4-13.3c-1.8-4.1-4-7.8-6.7-11.2l-0.1-0.1c2.4-4.3,4.1-9.1,4.9-14.1c3.2,0.3,5.9,0.5,8.1,0.5
		c6.1,0,9-1.2,9.8-3.7l0,0l67-178C304.3,940.6,304.4,940,304.2,939.4z M133.3,1094.9c-2.7-1.1-4.8-2.2-6.2-3c1.8-0.1,4.4,0,7.7,0.3
		C134.3,1093.1,133.8,1094,133.3,1094.9z M174.3,1154.2c-21.8,0-39.5-17.7-39.5-39.5c0-7.8,2.3-15.4,6.6-21.8
		c9.5,1.2,22.3,3.5,37.8,7.3c14,3.4,25.7,7,34.4,10c0.2,1.5,0.3,3,0.3,4.5C213.8,1136.5,196.1,1154.2,174.3,1154.2z M219.8,1116.5
		c0-0.6,0-1.2,0-1.8c0-0.7,0-1.4-0.1-2.1c4.3,1.7,7.4,3.2,9.4,4.3C227,1117,223.8,1116.9,219.8,1116.5z"/>
	<path style="fill:#FFFFFF;" d="M140,1086.6c1.6,0.2,3.3,0.4,5.1,0.6l25.7-192.8c-14.8,1.5-23.5,5.1-26.6,6.6l-18.5,185
		C129,1085.7,133.7,1085.9,140,1086.6z"/>
	<path style="fill:#FFFFFF;" d="M179.8,1094.2l34.7-197.7c-7.2-1.2-13.8-1.9-19.9-2.3l-32.8,196
		C167.6,1091.3,173.6,1092.7,179.8,1094.2z"/>
	<path style="fill:#1A1A1A;" d="M479,513.2c-1.1,0.1-26.4,2.5-62.3,18.2c-33.1,14.5-81.5,43.6-124.8,99.9
		c-18.4,24-34.2,50-47.5,75.6c-0.2,0.2-0.3,0.5-0.4,0.7c-17.7,34.1-31.1,67.3-40.5,93.9c-17.9,50.5-25.7,88.4-25.8,88.7
		c-0.3,1.6,0.7,3.2,2.3,3.5c0.2,0,0.4,0.1,0.6,0.1c1.4,0,2.6-1,2.9-2.4c0.1-0.7,7.4-35.1,23.7-82.3c0.5-0.1,15.4-3.3,33.9,0.4
		c24.8,4.9,44,19.1,57.2,42.2c-12.6,35.4-20.9,62.3-21,62.6c-0.5,1.6,0.4,3.3,2,3.7c0.3,0.1,0.6,0.1,0.9,0.1c1.3,0,2.5-0.8,2.9-2.1
		c0.5-1.6,48.7-157.9,92.6-218.1c41.4-56.8,87-55.8,87.4-55.8c1.7,0.1,3.1-1.2,3.1-2.9c0.1-1.7-1.2-3.1-2.9-3.1
		c-0.8,0-8.4-0.3-20.1,3c0.3-33.8-11.8-57.7-22.1-71.8c-8.2-11.2-16.5-18.2-20.8-21.4c6.5-3.5,12.7-6.4,18.4-9
		c35.1-15.4,60.4-17.8,60.7-17.9c1.6-0.1,2.9-1.6,2.7-3.3C482.2,514.3,480.7,513.1,479,513.2z M301.1,844.4
		c-17.4-27.6-41.4-37.5-58.9-40.9c-14.5-2.8-26.8-1.8-32.6-0.9c9.9-27.8,22.8-59.4,39.2-91.2c4.2-0.4,16.6-1.2,31.1,3.5
		c23.6,7.7,40.9,25.6,51.4,53.2c-7.7,17.6-15.7,37.4-24,59.5C305.1,833.3,303,839,301.1,844.4z M370.9,694.4
		c-11.1,15.3-23.3,37.4-36.2,66.1c-14.1-32.5-36.3-45.9-52.9-51.3c-12.4-4-23.3-4.4-29.6-4.1c12.8-24.1,27.6-48.1,44.6-70.2
		c3.7-4.8,7.4-9.3,11.1-13.7c7.5,0.8,48,8,68.8,65.7C374.7,689.3,372.8,691.8,370.9,694.4z M437.3,641.2
		c-15.4,5.5-35.8,16.8-56.3,40.5c-12.4-32.1-31-48.3-44.7-56.4c-9.9-5.8-18.5-8.2-23.9-9.3c28.1-31.7,57.4-52.8,82.1-66.8
		C398.7,552,438.7,580.3,437.3,641.2z"/>
	<circle style="fill:#FFFFFF;" cx="735.3" cy="290.7" r="40"/>
	<path style="fill:#1A1A1A;" d="M735.3,247.7c-23.7,0-43,19.3-43,43s19.3,43,43,43s43-19.3,43-43S759,247.7,735.3,247.7z
		 M698.3,290.7c0-20.4,16.6-37,37-37c20.3,0,36.8,16.4,37,36.7c-6.9-5.7-15.8-9.2-25.5-9.2c-19.9,0-36.5,14.6-39.5,33.7
		C701.7,308.4,698.3,299.9,698.3,290.7z"/>
	<g>
		<path style="fill:#1A1A1A;" d="M629.5,339.3L629.5,339.3c-6.8,1.1-13.2-3.6-14.3-10.4l-6.6-43c-1.1-6.8,3.6-13.2,10.4-14.3l0,0
			c6.8-1.1,13.2,3.6,14.3,10.4l6.6,43C641,331.8,636.3,338.2,629.5,339.3z"/>
	</g>
	<g>
		<path style="fill:#1A1A1A;" d="M625.8,452.2c-0.7,0-1.4-0.2-1.9-0.7c-30.8-25.7-46.4-53.5-46.5-82.7c-0.1-44.8,36.4-76.1,38-77.4
			c1.3-1.1,3.2-0.9,4.2,0.4c1.1,1.3,0.9,3.2-0.4,4.2c-0.4,0.3-36,30.8-35.9,72.8c0.1,27.3,15,53.5,44.4,78.1c1.3,1.1,1.4,3,0.4,4.2
			C627.5,451.8,626.7,452.2,625.8,452.2z"/>
	</g>
	<g>
		<circle style="fill:#1A1A1A;" cx="625.8" cy="449.2" r="9.5"/>
	</g>
	<g>
		<path style="fill:#FFFFFF;" d="M700.8,383.2l48-24c0,0,7,25-11.5,34C722.6,400.3,700.8,383.2,700.8,383.2z"/>
		<path style="fill:#1A1A1A;" d="M729.2,397.9c-14.4,0-29.5-11.8-30.3-12.4s-1.2-1.6-1.1-2.7c0.1-1,0.7-1.9,1.6-2.4l48-24
			c0.8-0.4,1.7-0.4,2.6-0.1c0.8,0.4,1.4,1.1,1.7,1.9c2.7,9.5,3.3,29.5-13.1,37.5C735.7,397.3,732.5,397.9,729.2,397.9z M706.7,383.6
			c6.6,4.3,20,11.4,29.3,6.9c12.1-5.9,11.6-20.1,10.6-26.9L706.7,383.6z"/>
	</g>
	<g>
		<path style="fill:#1A1A1A;" d="M677.8,487.7c-0.1,0-0.2,0-0.3,0c-1.6-0.2-2.8-1.6-2.7-3.3l6.8-64.8c0.2-1.6,1.6-2.8,3.3-2.7
			c1.6,0.2,2.8,1.6,2.7,3.3l-6.8,64.8C680.6,486.5,679.3,487.7,677.8,487.7z"/>
	</g>
	<g>
		<path style="fill:#1A1A1A;" d="M764.3,491.7c-1.6,0-2.9-1.2-3-2.8L757,420c-0.1-1.7,1.2-3.1,2.8-3.2s3.1,1.2,3.2,2.8l4.3,68.8
			c0.1,1.7-1.2,3.1-2.8,3.2C764.4,491.7,764.4,491.7,764.3,491.7z"/>
	</g>
	<g>
		<path style="fill:#1A1A1A;" d="M714.1,233.7l0.6-0.5l0.5-0.5c0.3-0.3,0.7-0.6,1-0.8c0.7-0.6,1.4-1,2.2-1.5
			c1.5-0.9,3.1-1.6,4.7-2.2c3.3-1.2,6.8-1.9,10.3-1.9c0.9-0.1,1.7,0,2.6,0.1c0.9,0.1,1.7,0.1,2.6,0.3c0.9,0.1,1.7,0.3,2.6,0.5
			c0.8,0.2,1.7,0.5,2.5,0.7c1.7,0.5,3.2,1.2,4.7,1.9c1.5,0.8,2.9,1.7,4.3,2.7c1.3,1,1.6,2.9,0.6,4.3c-0.7,0.9-1.7,1.3-2.7,1.2h-0.4
			c-1.5-0.1-2.9-0.5-4.3-0.7c-1.4-0.1-2.8-0.5-4.2-0.6l-2-0.2c-0.7,0-1.4-0.1-2-0.1c-0.7-0.1-1.3-0.1-2-0.1s-1.3-0.1-2,0
			c-2.7,0-5.3,0.3-8,0.7c-1.3,0.2-2.7,0.5-4,0.8c-0.7,0.2-1.4,0.3-2,0.5c-0.3,0.1-0.7,0.2-1,0.3l-0.5,0.1c-0.2,0-0.3,0.1-0.4,0.1
			l-1.7-0.1c-1.5-0.1-2.7-1.4-2.6-3C713.3,234.8,713.6,234.2,714.1,233.7z"/>
	</g>
	<g>
		<circle style="fill:#FFFFFF;" cx="664.3" cy="344.2" r="20.8"/>
	</g>
	<g>
		<circle style="fill:#FFFFFF;" cx="786.3" cy="346.2" r="20.8"/>
	</g>
	<g>
		<path style="fill:#1A1A1A;" d="M803.2,430.2c-1.3,0-2.5-0.9-2.9-2.1c-4.1-3-32.5-7-77.4-7s-73.3,4-77.4,7
			c-0.4,1.2-1.5,2.1-2.9,2.1c-1.6,0-3-1.3-3-3c0-6,12.9-7.9,26.1-9.4c15.3-1.7,35.5-2.7,57.1-2.7s41.8,1,57.1,2.7
			c24.1,2.8,26.1,6.2,26.1,9.4C806.2,428.8,804.8,430.2,803.2,430.2z"/>
	</g>
	<path style="fill:#1A1A1A;" d="M857,155c-4.4-0.3-8.2,3.1-8.5,7.5c-0.2,2.9,1.2,5.6,3.4,7.1c-0.1,0.2-0.2,0.5-0.3,0.7l-11.5,56.2
		c-8.8-6.7-31.8-21-74.3-27.3c3.8-5.9,4.7-15.2-0.3-25.5c-4.2-8.5-13.3-17.1-26-15.4c-3.3-8-8.2-14.8-14-19.4
		c-12.1-9.6-26.6-9.6-39.8,0.1c-10.6,7.8-16.2,17-16.9,27.4c-0.9,13.8,7.5,26.1,12.7,32.3c-36.5,4.9-58.5,15.5-67,20.4l-8-58.1
		c0-0.3-0.1-0.5-0.2-0.7c2.3-1.4,3.9-3.9,3.9-6.9c0-4.4-3.6-8-8-8s-8,3.6-8,8c0,3.8,2.7,7.1,6.3,7.8c0,0.2,0,0.4,0,0.6l8.7,62.7l0,0
		l0,0l30,202c0.1,0.4,0.2,0.8,0.4,1.1c0.3,3.1,3.3,6.3,26.1,8.9c15.3,1.7,35.5,2.7,57.1,2.7s41.8-1,57.1-2.7
		c13.2-1.5,26.1-3.5,26.1-9.4c0-0.3,0-0.6-0.1-0.9c0.1-0.2,0.1-0.3,0.1-0.5l39-193c0.1-0.4,0.1-0.8,0-1.1l12.4-60.2
		c0-0.2,0.1-0.4,0.1-0.6c3.7-0.5,6.6-3.6,6.8-7.4C864.8,159.1,861.4,155.3,857,155z M760.2,176.4c4.3,8.7,3.6,18-1.5,21.9
		c-5.5-0.7-11.4-1.2-17.5-1.5c3.7-11,3.4-22.4,0.5-32.5C750.6,163.6,757,169.8,760.2,176.4z M722.6,196.2
		c-1.1-3.7-3.1-12.7,0.6-20.3c2.3-4.8,6.6-8.2,12.8-10.4c2.8,9.5,3,20.5-0.9,30.9C730.7,196.3,726.6,196.2,722.6,196.2z M675,166.8
		c0.5-8.5,5.4-16.3,14.4-22.9c14.8-10.9,26.7-4.8,32.5-0.2c4.9,3.8,9,9.5,11.9,16.1c-7.7,2.7-13.1,7.2-16.1,13.4
		c-4.1,8.4-2.7,17.8-1.4,22.9c-9.9,0.2-19,0.7-27.4,1.7C685.8,194.6,674.1,181.4,675,166.8z M800.9,421.8c-3.7-1.4-10.1-2.8-20.9-4
		c-15.3-1.7-35.5-2.7-57.1-2.7s-41.8,1-57.1,2.7c-8.2,0.9-16.2,2-21.2,4.2l-29.1-196.2c8-4.9,47.8-26.4,121.3-23.1
		c65.4,2.9,95.9,25.5,102.1,30.7c0,0.1,0,0.1,0,0.2L800.9,421.8z"/>
	<g>
		<path style="fill:#FFFFFF;" d="M757.1,421.9c-9.9-0.5-21.4-0.9-34.1-0.9c-13.4,0-25.3,0.4-35.5,0.9l-6.3,59.9
			c26.3,1.6,53.9,3.3,80.1,5L757.1,421.9z"/>
	</g>
	<g>
		<path style="fill:#1A1A1A;" d="M762.1,434.4c0,0-5.5,19.4-39.5,15.8c-40.9-4.3-41,16-41,25.2l3.1-55.6l47.9-1.7l27.4,1.7
			L762.1,434.4z"/>
	</g>
	<path style="fill:#1A1A1A;" d="M678.9,1105.2c-1.6-0.3-3.2,0.7-3.5,2.3l-23.1,112.8c-29.7,9.2-54.1,6.1-69.4,1.9
		c-2.3-0.6-4.7-1.4-7-2.2c-6.5-2.3-11.4-4.6-14.3-6.3c-1.4-0.7-2.3-1.3-2.9-1.7l17.6-86.4c0.3-1.6-0.7-3.2-2.3-3.5s-3.2,0.7-3.5,2.3
		l-94,461.6c-2.4,3.7-18.4,28.3-34.2,52.9c-35,54.5-35,55.8-35,57.2c0,3.3,6.3,9,8.2,10.7c8.3,7.3,30.1,22.5,66.6,22.5
		c5.8,0,12-0.4,18.6-1.2c62-8.1,94.5-44.5,95.9-46c0.6-0.7,0.9-1.6,0.7-2.5l-14.9-87.4l98.9-483.4
		C681.6,1107.2,680.5,1105.6,678.9,1105.2z M576.7,1590.2c-44,22-85.2,0.7-94-4.4l10.6-51.9c7.7,4.4,27.4,13.6,55.2,13.6
		c11.4,0,24.2-1.5,38.1-5.6L576.7,1590.2z M587.9,1535.2c-0.2,0-0.3,0-0.5,0.1c-49.7,15.4-85.4-3.2-92.9-7.7l11.6-56.9
		c7.6,4.3,27.3,13.7,55.4,13.7c11.4,0,24.1-1.5,38-5.5L587.9,1535.2z M600.8,1472.2c-0.1,0-0.2,0-0.4,0.1
		c-50,15.5-85.9-3.5-93.1-7.8l11.6-56.9c7.5,4.3,27.3,13.8,55.5,13.8c11.3,0,24-1.5,37.9-5.5L600.8,1472.2z M613.7,1409.3
		c-0.1,0-0.2,0-0.2,0c-50.4,15.7-86.5-3.8-93.3-7.9l11.6-56.9c7.4,4.2,27.2,13.8,55.7,13.8c11.3,0,24-1.5,37.7-5.5L613.7,1409.3z
		 M626.5,1346.3h-0.1c-50.9,15.8-87.1-4.1-93.4-8l11.6-56.8c7.2,4.2,27.2,13.9,55.9,13.9c11.3,0,23.9-1.5,37.6-5.4L626.5,1346.3z
		 M639.4,1283.3L639.4,1283.3c-51.3,15.9-87.7-4.5-93.6-8.1l11.6-56.9c0.4,0.2,0.8,0.5,1.3,0.7c3.1,1.7,8.3,4.3,15.2,6.7
		c2.4,0.8,4.9,1.6,7.3,2.3c8.4,2.3,19.4,4.3,32.4,4.3c11.1,0,23.6-1.4,37.3-5.3L639.4,1283.3z"/>
	<g>
		<path style="fill:#FFFFFF;" d="M582.1,1228.2c-0.3,0-0.5,0-0.8-0.1c-2.5-0.7-4.9-1.4-7.3-2.3c-6.9-2.4-12.1-4.9-15.2-6.7
			c-1.5-0.8-2-2.6-1.2-4.1s2.6-2,4.1-1.2c2.9,1.6,7.8,4,14.3,6.3c2.3,0.8,4.6,1.5,7,2.2c1.6,0.4,2.5,2.1,2.1,3.7
			C584.6,1227.3,583.4,1228.2,582.1,1228.2z"/>
	</g>
	<g>
		<path style="fill:#FFFFFF;" d="M626.8,1169.4c-25.9,0-44.8-7.9-53.2-12.3c-1.5-0.8-2.1-2.6-1.3-4c0.8-1.5,2.6-2.1,4-1.3
			c11.2,5.8,41.5,18,82.4,7.4c1.6-0.4,3.2,0.6,3.7,2.2s-0.6,3.2-2.2,3.7C648.2,1168.1,637,1169.4,626.8,1169.4z"/>
	</g>
	<path style="fill:#1A1A1A;" d="M1362.3,761.5c-1.6-0.3-3.2,0.9-3.4,2.5c-3.3,21-10.5,43.7-20.2,65.3c-55.8-15.7-87.8-38.3-92.8-42
		c7.6-16.8,12.6-34.3,15.5-46.9c0.4-1.6-0.6-3.2-2.2-3.6c-1.6-0.4-3.2,0.6-3.6,2.2c-3.3,14.2-9.2,34.9-18.8,53.2
		c-11.5,22.1-25.1,34.5-40.2,36.8c-11,1.7-21-0.9-29.6-7.5c-26.8-20.8-34-75-35.6-91.1c-1.2-12.5-5.8-45.5-21.5-82.2
		c-15.7-36.5-37.1-64.3-63.6-82.6c-42.9-29.5-98-33.1-100.3-33.2c-1.7-0.1-3.1,1.2-3.2,2.8c-0.1,1.7,1.2,3.1,2.8,3.2
		c0.5,0,38.7,2.5,75.4,19.7c-1.8,20.6-10,69.2-47.7,99.3c-15.6-7.3-28.7-8.3-29.3-8.3c-1.7-0.1-3.1,1.1-3.2,2.8
		c-0.1,1.7,1.1,3.1,2.8,3.2c0.1,0,12.9,1,27.6,8c0.5,0.6,1.3,1,2.1,1c0.2,0.1,0.4,0.2,0.6,0.3c21.1,10.9,34.9,28.5,41,52.5
		c2.6,10.2,5.1,21.9,7.7,34.3c12.6,59.5,30,141,89.5,181.5c22.2,15.1,46.8,22.7,72.3,22.7c10.9,0,22-1.4,33.2-4.2
		c27.3-6.9,55.6-22.6,75.5-42.2c33.7-33,63.8-93.5,71.8-144C1365.1,763.3,1364,761.8,1362.3,761.5z M1142.2,798.3
		c-1.2,0.4-2.1,1.2-4.5,3.6c-8.9,8.6-35.9,34.7-86.3,35.3c-8.8-24.1-14.8-49.1-19.9-72.4c6.9,1.1,13.4,1.6,19.6,1.6
		c39.4,0,65-19.6,74.9-28.9c1.4,11.4,4.3,28.4,9.9,45.1C1137.9,788.3,1140,793.5,1142.2,798.3z M979,660.5
		c36.4-30.5,45.4-77.3,47.6-99.4c5.5,2.8,10.9,6,16.1,9.6c22.9,15.8,41.9,39.1,56.6,69.2c-8,13.1-37.2,54.6-85.9,56.3
		C1004.2,677.9,990.6,667,979,660.5z M1020.6,715.4c-1.2-4.8-2.7-9.3-4.5-13.4c46.6-2.9,75.7-39.7,86.2-55.7
		c0.7,1.4,1.3,2.9,1.9,4.4c14.9,34.8,19.6,66.1,21,79.2c-3.4,3.8-13,12.8-27.9,19.9c-20.7,9.9-43.3,12.8-67.1,8.6
		c-0.6-2.9-1.2-5.7-1.8-8.5C1025.7,737.5,1023.2,725.8,1020.6,715.4z M1055.1,846.9c-0.5-1.3-1-2.5-1.5-3.8
		c51.4-1.3,79-28,88.3-36.9c1-0.9,2-2,2.4-2.3c0.2-0.1,0.4-0.2,0.5-0.3c5.3,9.8,11.4,17.4,18.3,22.8c2.6,2,5.4,3.7,8.2,5.1
		c0,0.1,0,0.2-0.1,0.2c-0.1,0.6-8.8,56.7-64.7,89.5C1085.3,904.1,1068.4,879.7,1055.1,846.9z M1216.1,945.4
		c-36.2,9.1-70.1,3.2-100.8-17.7c-1.2-0.8-2.4-1.6-3.5-2.5c29.1-17.8,45.3-41.5,53.7-58.4c8.1-16.2,10.9-29.1,11.5-33
		c4.1,1.3,8.4,2,12.9,2c2.4,0,4.9-0.2,7.5-0.6c4.8-0.7,9.4-2.3,13.9-4.7c7,7.2,46.3,50.4,33.1,104c-0.1,0.2-0.1,0.5-0.1,0.7
		C1235.1,939.5,1225.5,943,1216.1,945.4z M1288.9,904.7c-10.6,10.4-23.7,19.7-37.7,27.1c6.2-30.7-3.5-57.5-13.1-74.9
		c-8.2-15-17.5-25.4-21.6-29.7c9.4-6.7,18-17.4,25.6-32c0.4-0.8,0.8-1.5,1.1-2.3c7.6,5.5,38.9,26.7,92.9,42
		C1323.3,862.2,1306.6,887.4,1288.9,904.7z"/>
	<path style="fill:#1A1A1A;" d="M1051.1,1673.9l-58.9-114.7l-9.9-57.6c0-0.4-0.1-0.8-0.2-1.2l-9.8-57.2c0.1-0.6,0-1.3-0.3-1.8
		l-62.2-362.1c-0.3-1.6-1.8-2.7-3.5-2.4c-1.6,0.3-2.7,1.8-2.4,3.5l1.7,10c-0.8,0.7-1.6,1.4-2.5,2c-10.4,8.2-21.9,14.2-34.2,17.7
		c-23.6,6.8-44.3,2.9-52.2,0.9c-1.6-0.4-2.7-0.7-3.5-1l-3-18.3c-0.3-1.6-1.8-2.7-3.4-2.5c-1.6,0.3-2.7,1.8-2.5,3.4l80.3,489.2
		l3.7,83.5c0,0.5,0.2,1,0.5,1.5c1.1,1.7,27.5,42.3,93.3,48.4c4.3,0.4,8.4,0.6,12.3,0.6c18.8,0,33.4-4.5,43.5-13.5
		c13-11.6,13.6-26.2,13.6-26.9C1051.4,1674.9,1051.3,1674.4,1051.1,1673.9z M814.4,1116.6c0.3,0.1,0.6,0.2,0.9,0.2
		c5.7,1.5,14.8,3.1,25.8,3.1c8.8,0,18.8-1.1,29.5-4.1c13-3.7,25.1-10,36.2-18.7l8.8,51.2c-0.9,0.8-1.8,1.5-2.8,2.3
		c-2.5,2-5.1,3.9-7.7,5.6c-4.7,3.1-9.7,5.8-14.8,8c-32.6,14.4-62.4,6.5-67.3,5L814.4,1116.6z M824.1,1175.8c4.8,1.2,13.7,3,25.2,3
		c12.3,0,27.5-2.1,43.4-9.1c5.4-2.4,10.6-5.2,15.6-8.5c2.8-1.8,5.5-3.8,8.2-5.9c0.1-0.1,0.1-0.1,0.2-0.2l8.9,52.1
		c-42.6,35.7-89.9,21-93.1,19.9L824.1,1175.8z M833.6,1233.7c4.8,1.3,14.4,3.4,27,3.4c0.6,0,1.3,0,1.9,0
		c16.6-0.3,40.8-4.6,64.3-23.1l8.9,51.6c-41.8,35-88.6,21.6-93.6,20L833.6,1233.7z M843.2,1292.1c4.9,1.3,14.6,3.4,27.1,3.4
		c0.6,0,1.3,0,1.9,0c16.7-0.3,41.2-4.6,64.7-23.1l8.9,52c-40.5,34-86.6,22-94.1,19.7L843.2,1292.1z M861.3,1402.7l-8.6-52.1
		c5.3,1.4,15.2,3.5,27.8,3.5c0.4,0,0.7,0,1.1,0c17-0.2,41.7-4.4,65.3-22.9l8.9,52c-22.3,18.5-45.8,23.2-61.7,24
		c-17.7,0.8-29.8-2.9-32.3-3.9C861.7,1403,861.5,1402.8,861.3,1402.7z M870.9,1461.2l-8.5-51.5c5.3,1.6,14.7,3.5,26.6,3.5
		c19.1,0,44.2-4.8,67.9-23.3l8.9,51.9c-43.7,35.8-93.5,19.8-94.2,19.6C871.5,1461.3,871.2,1461.2,870.9,1461.2z M872,1467.7
		c4.2,1.2,14.5,3.5,28,3.5c0.9,0,1.9,0,2.8,0c16.7-0.4,41-4.8,64.2-22.6l8.9,51.9c-40,32.8-87.1,22.2-95.4,19.9L872,1467.7z
		 M881.7,1526.8c5.2,1.2,14.9,3,27.1,3c0.9,0,1.9,0,2.9,0c17.2-0.4,42.2-4.7,65.5-22.7l8.9,51.9c-39.4,32.3-86.2,22.6-95.8,20.2
		L881.7,1526.8z"/>
	<path style="fill:#FFFFFF;" d="M929.4,1634.7c0.4-16.7,0.7-34.5,0.9-46.8c-3.2,0.3-6.2,0.5-9.1,0.6c-1,0-2,0-3,0
		c-12.5,0-22.3-1.8-27.5-3l3.5,78.7c2.7,3.8,18.2,24.1,50.2,36.3C939.6,1690.7,928.7,1664.8,929.4,1634.7z"/>
	<g>
		<path style="fill:#FFFFFF;" d="M993.4,1688.4c-2.7,0-5.6-0.1-8.6-0.3c-18.8-1.4-32.4-7.5-47-14.7c-5.4-2.7-10.8-5.8-16.1-9.2
			c-8.2-5.3-16.2-11.5-23.7-18.4c-1.2-1.1-1.3-3-0.2-4.2s3-1.3,4.2-0.2c7.3,6.7,15,12.6,22.9,17.8c5.1,3.3,10.3,6.3,15.5,8.8
			c14,6.9,27,12.7,44.8,14.1c36.5,2.8,46.1-12.7,47.6-26.1c0.2-1.6,1.7-2.8,3.3-2.6c1.6,0.2,2.8,1.7,2.6,3.3
			C1037.4,1668.8,1029.4,1688.4,993.4,1688.4z"/>
	</g>
	<g>
		<path style="fill:#FECE2F;" d="M939.1,1673.7c-0.4,0-0.9-0.1-1.3-0.3c-5.4-2.7-10.8-5.8-16.1-9.2c-8.2-5.3-16.2-11.5-23.7-18.4
			c-1.2-1.1-1.3-3-0.2-4.2s3-1.3,4.2-0.2c7.3,6.7,15,12.6,22.9,17.8c5.1,3.3,10.3,6.3,15.5,8.8c1.5,0.7,2.1,2.5,1.4,4
			C941.2,1673,940.2,1673.7,939.1,1673.7z"/>
	</g>
	<g>
		<g>
			<path style="fill:#FECE2F;" d="M1389.9,564.3c-10.3-1.3-20.4-3.9-30.4-6.4c-0.7-0.2-1.4-0.4-2.2-0.5c-5.2-1.3-10.3-2.6-15.5-3.9
				c-4.5-1.2-9.1-2.3-13.6-3.4c-1.2-0.3-2.4-0.6-3.5-0.9c-7.1-2.1-13.5-6.2-18.4-11.7c1.1-1.6,3.3-1.8,5.1-1.8
				c7.8-0.2,15.7-0.3,23.3,1.3c3.8,0.8,7.6,2.1,11.4,3c5.1,1.2,10.3,1.9,15.4,3.2c4.4,1.1,8.6,2.8,12.8,4.5
				c6.6,2.6,13.1,5.1,19.7,7.6c4.1,1.6,8.1,3.1,12.4,4.3c2.2,0.6,6.9,0.3,8,2.7c1.8,4-8.2,3.1-10.6,3.1
				C1399.1,565.2,1394.5,564.8,1389.9,564.3z"/>
		</g>
		<g>
			<g>
				<path style="fill:#FECE2F;" d="M1399.1,564.7c4.6-6.8,7.3-15,7.3-23.8c0-23.5-19-42.5-42.5-42.5s-42.5,19-42.5,42.5
					c0,1.7,0.1,3.3,0.3,5c0,0,11.2,8,35.7,12.6S1399.1,564.7,1399.1,564.7z"/>
			</g>
			<g>
				<path style="fill:#FFFFFF;" d="M1364,498.4c-23.5,0-42.5,19-42.5,42.5c0,1.7,0.1,3.3,0.3,5c0,0,5.1,3.6,15.9,7.4
					c3.2-13.6,6.9-25.4,20.3-33.2c12.1-7,27.1-7.7,40.6-3.9C1390.8,505.5,1378.2,498.4,1364,498.4z"/>
			</g>
			<path style="fill:#1A1A1A;" d="M1444.6,483.7c0-1.3-0.3-2.6-0.4-3.8c-0.2-1.3-0.4-2.5-0.7-3.7c-2.4-9.8-7.2-18.4-13.2-25.5
				c-0.8-0.9-2.1-1.3-3.4-0.9c-1.6,0.6-2.4,2.3-1.8,3.9l0,0c3.1,8.3,5.5,16.5,6.1,24.4c0.2,3.9,0.2,7.8-0.5,11.5s-1.9,7.2-3.7,10.5
				c-3.4,6.6-8.9,12.4-15.1,17.7c-2,1.7-4.1,3.3-6.3,4.9c-2.2-5.1-5.4-9.8-9.5-13.9c-8.6-8.6-20-13.3-32.2-13.4
				c-12.2,0-23.6,4.7-32.2,13.3c-1.3,1.3-2.6,2.8-3.7,4.2c-1.8-2.3-3.5-4.5-5-6.8c-1.9-2.9-3.5-5.8-4.6-8.8
				c-1.2-2.9-1.9-5.9-2.1-8.9c-0.5-5.9,1.5-12.2,4.9-18.3l0.6-1.2l0.7-1.1l1.4-2.3c1-1.5,2.1-3,3.2-4.5c1.2-1.4,2.3-3,3.5-4.5
				c1.3-1.5,2.5-2.9,3.7-4.5l0.1-0.2c0.7-0.9,0.9-2.2,0.3-3.3c-0.8-1.5-2.6-2.1-4.1-1.3c-1.8,1-3.6,2-5.4,3.1
				c-1.7,1.1-3.4,2.4-5.1,3.6c-1.6,1.3-3.3,2.7-4.8,4.2l-2.3,2.4l-1.1,1.2l-1,1.3l-2,2.6l-1.8,2.9c-0.3,0.5-0.6,1-0.9,1.5l-0.8,1.6
				c-0.5,1.1-1.1,2.1-1.4,3.2c-1.8,4.4-2.6,9.3-2.5,14.2c0.1,4.9,1.3,9.8,3.2,14.1c2,4.3,4.6,8.2,7.6,11.5c3,3.2,6.3,6,9.8,8.3
				c-1.4,3.3-2.4,6.7-3,10.2c-11.7-1.2-16.7-0.3-18,3.1c0,0,0,0,0,0.1l-67.2,177.9c-0.2,0.6-0.3,1.3-0.1,1.9
				c0.3,1.2,9.1,29.8,69.1,44.8c20.4,5.1,37.2,6.8,50.8,6.8c29.5,0,43.6-8.2,44.4-8.8c0.8-0.5,1.3-1.3,1.4-2.3l19.1-190
				c0.2-0.3,0.3-0.7,0.4-1c0.9-3.5-2.5-6.5-12-10.6c1.5-4.5,2.3-9.3,2.3-14.2c0-2.2-0.2-4.5-0.5-6.6c3.8-1.5,7.4-3.3,10.9-5.5
				c4.2-2.6,8.1-5.7,11.6-9.4s6.5-8,8.8-12.7c0.6-1.2,1.1-2.4,1.6-3.6l0.7-1.8l0.5-1.9c0.3-1.3,0.7-2.5,0.9-3.9l0.3-2
				c0.1-0.6,0.2-1.3,0.2-2l0.2-3.9C1444.8,486.3,1444.7,485,1444.6,483.7z M1336,513c7.5-7.4,17.4-11.5,27.9-11.5l0,0
				c10.6,0,20.5,4.1,27.9,11.6c7.5,7.5,11.6,17.4,11.5,27.9c0,7.8-2.3,15.4-6.6,21.8c-9.4-1.2-22.3-3.6-37.8-7.4
				c-14-3.5-25.7-7-34.4-10.1c-0.2-1.5-0.3-3-0.2-4.5C1324.4,530.3,1328.6,520.4,1336,513z M1318.5,539.1c0,0.6,0,1.2,0,1.8
				c0,0.7,0,1.4,0.1,2.1c-4.2-1.7-7.4-3.2-9.4-4.4C1311.2,538.6,1314.4,538.7,1318.5,539.1z M1411.1,563.8c-1.8,0.1-4.4,0-7.7-0.3
				c0.5-0.9,1-1.8,1.5-2.8C1407.6,561.9,1409.7,562.9,1411.1,563.8z"/>
			<path style="fill:#FFFFFF;" d="M1409.3,569.8c-2.8,0-6.3-0.3-10.6-0.7l-22.2,190.8c9.3-1.7,15-4.1,17.4-5.3l18.6-184.9
				C1411.5,569.7,1410.4,569.8,1409.3,569.8z"/>
			<path style="fill:#FFFFFF;" d="M1357.6,561.2c-2.4-0.6-4.8-1.2-7.1-1.8L1296.6,753c2.5,0.7,5.1,1.4,7.8,2.1
				c15.2,3.8,28.4,5.6,39.4,6.3l33.4-195.8C1371,564.4,1364.4,562.9,1357.6,561.2z"/>
		</g>
	</g>
	
		<image style="overflow:visible;enable-background:new    ;" width="225" height="775" xlink:href="A7EFD1AE287E13D.png"  transform="matrix(0.2368 0 0 0.2368 505.1596 686.0443)">
	</image>
	
		<image style="overflow:visible;enable-background:new    ;" width="871" height="1338" xlink:href="A7EFD1AE287E13B.png"  transform="matrix(0.2389 0 0 0.2389 540.1996 567.1017)">
	</image>
	
		<image style="overflow:visible;enable-background:new    ;" width="500" height="1371" xlink:href="A7EFD1AE287E144.png"  transform="matrix(0.2376 0 0 0.2376 738.9196 568.2496)">
	</image>
	<g>
		<g>
			<path style="fill:#FECE2F;" d="M1424.5,329.9v131c0,0-20.7,8-45.5,7s-45.2-7-45.2-7l-0.3-101.7l0.3-29L1424.5,329.9z"/>
		</g>
		<g>
			<path style="fill:#1A1A1A;" d="M1427.5,329.9c0-1.1-0.6-2.1-1.5-2.6c-2-2.1-6.5-3.6-14.6-4.8c-8.7-1.3-20.2-2-32.4-2
				c-12.2,0-23.7,0.7-32.4,2c-9.4,1.4-14.1,3.1-15.4,5.9c-0.3,0.4-0.4,0.9-0.4,1.5v33.7v51.3v46c0,0.1,0,0.1,0,0.2s0,0.1,0,0.2
				c0,3.9,4.4,6,15.8,7.7c8.7,1.3,20.2,2,32.4,2s23.7-0.7,32.4-2c9.9-1.5,14.5-3.3,15.6-6.3c0.4-0.5,0.6-1.1,0.6-1.7V329.9H1427.5z
				 M1336.8,335.8c2.4,0.8,5.6,1.5,9.8,2.1c8.7,1.3,20.2,2,32.4,2s23.7-0.7,32.4-2c4.3-0.6,7.7-1.4,10.1-2.2v26.5
				c-0.1,0.1-0.1,0.3-0.2,0.4c-2.6,1.7-16.8,4.6-42.3,4.6c-25,0-39.2-2.8-42.2-4.5L1336.8,335.8L1336.8,335.8z M1379,464.9
				c-25,0-39.2-2.8-42.2-4.5v-39.9c2.4,0.8,5.6,1.5,9.8,2.1c8.7,1.3,20.2,2,32.4,2c12.2,0,23.7-0.7,32.4-2c4.3-0.6,7.7-1.4,10.1-2.2
				v39.5c-0.1,0.1-0.1,0.3-0.2,0.4C1418.7,462,1404.5,464.9,1379,464.9z"/>
			<path style="fill:#FFFFFF;" d="M1379,333.9c-21.1,0-34.5-2-40-3.7c5.4-1.7,18.8-3.7,40-3.7s34.5,2,40,3.7
				C1413.5,331.9,1400.1,333.9,1379,333.9z"/>
		</g>
	</g>
	<g>
		
			<rect x="675.37" y="575.653" transform="matrix(0.0638 -0.998 0.998 0.0638 -111.876 1376.7595)" style="fill:#FECE2F;" width="5" height="344.713"/>
	</g>
	<g>
		<path style="fill:#1A1A1A;" d="M846.3,898.2c-0.1,0-0.2,0-0.3,0l-341-30c-1.5-0.1-2.7-1.4-2.7-3v-298c0-1.7,1.3-3,3-3h352
			c0.8,0,1.6,0.3,2.2,0.9c0.6,0.6,0.9,1.4,0.8,2.2l-11,328c0,0.8-0.4,1.6-1,2.1C847.8,897.9,847,898.2,846.3,898.2z M508.3,862.4
			l335.1,29.5l10.8-321.7H508.3V862.4z"/>
	</g>
	<g>
		<circle style="fill:#FECE2F;" cx="561.3" cy="504.5" r="6.3"/>
	</g>
	<g>
		<circle style="fill:#FFFFFF;" cx="854.1" cy="526" r="6.3"/>
	</g>
	<g>
		<circle style="fill:#FFFFFF;" cx="917.8" cy="527.7" r="6.3"/>
	</g>
	<g>
		<circle style="fill:#FFFFFF;" cx="924.4" cy="1038.5" r="6.3"/>
	</g>
	<g>
		<circle style="fill:#FFFFFF;" cx="540.2" cy="1086.7" r="6.3"/>
	</g>
	<g>
		<circle style="fill:#FECE2F;" cx="514.2" cy="509.5" r="6.3"/>
	</g>
	<g>
		<path style="fill:#1A1A1A;" d="M917.3,644.2c-0.1,0-0.1,0-0.2,0l-34-2c-1.6-0.1-2.9-1.5-2.8-3.1l3-73c0.1-1.6,1.4-2.9,3-2.9
			l33-0.3c0.8,0,1.6,0.3,2.2,0.9c0.6,0.6,0.9,1.4,0.9,2.2l-2,75.3c0,0.8-0.4,1.6-1,2.1C918.8,643.9,918.1,644.2,917.3,644.2z
			 M886.4,636.4l28,1.6l1.8-69.1l-27,0.3L886.4,636.4z"/>
	</g>
	<g>
		<path style="fill:#1A1A1A;" d="M901,630.7h-0.1c-2.5-0.1-4.4-2.1-4.4-4.6l1.3-47.3c0.1-2.5,2.1-4.4,4.6-4.4
			c2.5,0.1,4.4,2.1,4.4,4.6l-1.3,47.3C905.4,628.8,903.4,630.7,901,630.7z"/>
	</g>
	<g>
		<path style="fill:#FFFFFF;" d="M891.5,1169.9c-1.2,0-2.2-0.7-2.7-1.8c-0.7-1.5,0-3.3,1.5-4c5.1-2.2,10-4.9,14.8-8
			c2.6-1.7,5.2-3.6,7.7-5.6c1.3-1,3.2-0.8,4.2,0.5s0.8,3.2-0.5,4.2c-2.6,2.1-5.4,4.1-8.2,5.9c-5,3.3-10.3,6.1-15.6,8.5
			C892.3,1169.9,891.9,1169.9,891.5,1169.9z"/>
	</g>
	<g>
		<path style="fill:#FFFFFF;" d="M841.1,1119.9c-11,0-20.1-1.7-25.8-3.1c-1.6-0.4-2.6-2-2.2-3.6c0.4-1.6,2-2.6,3.6-2.2
			c7.8,2,28.5,5.9,52.2-0.9c12.3-3.5,23.8-9.5,34.2-17.7c1.3-1,3.2-0.8,4.2,0.5s0.8,3.2-0.5,4.2c-11,8.7-23.2,15-36.2,18.7
			C859.9,1118.9,849.9,1119.9,841.1,1119.9z"/>
	</g>
	<path style="fill:#FFFFFF;" d="M509.1,1602.7c-14-3.5-24.3-8.8-28.8-11.5c-25.5,39.3-62.3,96.4-66.7,104.9
		c2.6,4,16.1,17.5,40.9,23.8c1.6-72.4,37.8-96,56.2-116.9C510.1,1603,509.6,1602.9,509.1,1602.7z"/>
	<g>
		<path style="fill:#FFFFFF;" d="M485.8,1699.4c-10.8,0-21.6-1.2-32.3-3.6c-6.6-1.5-13.2-3.5-19.6-5.9c-1.5-0.6-2.3-2.3-1.7-3.9
			s2.3-2.3,3.9-1.7c6.1,2.3,12.4,4.2,18.8,5.7c16.2,3.7,32.7,4.4,49.1,2.3c43.4-5.7,72-25.8,85.2-37.3c1.2-1.1,3.1-1,4.2,0.3
			c1.1,1.2,1,3.1-0.3,4.2c-13.7,11.9-43.4,32.8-88.3,38.7C498.4,1699,492.1,1699.4,485.8,1699.4z"/>
	</g>
	<g>
		<path style="fill:#FECE2F;" d="M454.2,1695.8c-0.2,0-0.4,0-0.5,0c-4.3-0.8-17.5-4.1-27.7-9.9c-1.4-0.8-1.9-2.7-1.1-4.1
			s2.7-1.9,4.1-1.1c9.4,5.4,22.1,8.5,25.8,9.2c1.6,0.3,2.7,1.9,2.4,3.5C456.8,1694.8,455.6,1695.8,454.2,1695.8z"/>
	</g>
</g>
<g>
	<g>
		<g>
			<path style="fill:#FECE2F;" d="M1395.6,926.8c-7.3-0.5-21.4,7.8-24.5,15.6c-3,7.8-3.4,19.1-2.4,19.2c1,0.1,31.2-4.6,31.2-4.6
				l31.4,0.7C1431.4,957.7,1429.9,929.1,1395.6,926.8z"/>
		</g>
		<g>
			<path style="fill:#FFFFFF;" d="M1395.6,926.8c-7.3-0.5-21.4,7.8-24.5,15.6c-3,7.8-3.4,19.1-2.4,19.2c0.4,0,4.8-0.6,10.3-1.4
				c2.6-8.6,9.9-26.9,26.7-31.7C1402.7,927.6,1399.4,927,1395.6,926.8z"/>
		</g>
		<g>
			<path style="fill:#FECE2F;" d="M1396.3,1090.5c-1.7,0.2-47,5.2-44.8,10.5c2.2,5.2,49.8,4.4,54.6,3.5c4.8-0.9,57-9.4,57-9.4
				s16.2-4.9,12-7C1471,1086,1429.8,1085.7,1396.3,1090.5z"/>
		</g>
		<g>
			<ellipse style="fill:#1A1A1A;" cx="1700.619" cy="1309.873" rx="72.002" ry="72.002"/>
		</g>
		<g>
			<path style="fill:#FFFFFF;" d="M1742.9,1314.1c2-23-15-43.2-37.9-45.2c-2.3-0.2-45.8,9.5-107.3-4.4s-102.2-59.2-119.2-94.8
				c-17-35.6-24.3-83.4-24.3-83.4s-11.9-1.5-30.6-0.7s-50.1,10.2-50.1,10.2l5.2,38.1c0,0,19.1,85,59.4,129.7s86,72.3,145,86.5
				c53.2,12.8,106.3,4,116.2,2.1C1721.6,1353.2,1740.9,1336.5,1742.9,1314.1z"/>
		</g>
		<g>
			<path style="fill:#1A1A1A;" d="M1699.3,1355.1c-1.4,0-2.7-1-3-2.5c-0.3-1.6,0.8-3.2,2.5-3.4c33.5-5.5,40.1-24.5,41.1-35.3
				c1.9-21.3-13.9-40.1-35.2-42c-2.1-0.2-7.2-0.4-9.2-0.2c-1.7,0.1-3.1-1.1-3.2-2.8c-0.1-1.7,1.1-3.1,2.8-3.2
				c2.4-0.2,7.7,0,10.1,0.2c24.6,2.2,42.8,23.9,40.7,48.5c-1.9,21.4-18.7,36.2-46.1,40.7C1699.6,1355.1,1699.5,1355.1,1699.3,1355.1
				z"/>
		</g>
		<path style="fill:#1A1A1A;" d="M1703.9,1351.1c-0.4-1.6-2-2.6-3.6-2.2c-0.2,0.1-17.9,4.1-45.1,4.9c-5.2-38.5,2.3-71.2,4.3-79.1
			c23.5,0,38.7-3.3,39.4-3.5c1.6-0.4,2.6-2,2.3-3.6s-2-2.6-3.6-2.3c-0.2,0-21.1,4.6-51.2,3c-27.7-1.4-69.2-8.5-109.4-34
			c-36.2-23-56-62-66.2-90.7c-11.1-31.3-13.6-57.4-13.6-57.7c-0.2-1.7-1.6-2.9-3.3-2.7c-1.6,0.1-2.9,1.6-2.7,3.3
			c0.1,0.9,1.9,20.4,9.7,46.2c-7.2-3.8-19.9-7.9-37.8-4.7c-22.3,4.1-33.5,16.6-37.9,23.1c-7.9-31.9-8.6-55.2-8.6-55.5
			c0-1.6-1.4-2.9-3-2.9c0,0,0,0-0.1,0c-1.7,0-3,1.4-2.9,3.1c0,1.2,0.8,29,11.3,66.4c9.7,34.6,29.9,84,71.1,123
			c56,53.1,120.6,69.2,165,73.3c10.5,1,20.4,1.4,29.4,1.4c32.1,0,53.2-4.9,54.4-5.2C1703.2,1354.3,1704.2,1352.7,1703.9,1351.1z
			 M1493.8,1309.9c-2.8-23.3,3.3-42.1,18.2-55.9c9.4-8.7,19.5-12.7,23-13.9c16.8,10.5,33.8,17.9,50,23.1
			c-6.9,9.2-25.6,37.8-25.9,77.4C1538,1334,1515.8,1324.2,1493.8,1309.9z M1387.2,1158.9c0.4-0.3,0.8-0.7,1-1.2c0,0,2.3-4.8,7.8-10
			c7.4-7,16.9-11.7,28.2-13.8c25.5-4.7,39,7.2,39.6,7.8c0.4,1.3,0.9,2.5,1.3,3.8c5.3,15.1,13.3,33,24.8,50.1
			c-8.2-1.7-22.1-2.3-39,6.2c-20.2,10.2-28,25.3-30.8,33.4c-16.5-26.5-26.4-53.3-32.4-74.5
			C1387.5,1160.1,1387.4,1159.5,1387.2,1158.9z M1424.5,1241.9c0-0.1,0-0.1,0.1-0.2c0-0.2,3.5-21.6,29.1-34.6
			c12.6-6.4,23.2-7,29.9-6.5c7.2,0.6,11.6,2.8,11.6,2.8c0.2,0.1,0.4,0.2,0.6,0.2c9,11.9,20,23.1,33.1,32.4
			c-5.2,2.2-13.1,6.3-20.7,13.3c-10.8,9.9-22.7,27.5-20.7,56.1c-10.3-7.2-20.4-15.3-30.3-24.7
			C1444.2,1268.6,1433.5,1255.4,1424.5,1241.9z M1618.5,1352.5c-15.7-1.5-33.9-4.5-53.4-10.1c-0.3-41.5,21.3-71.4,26-77.3
			c20.8,6,40,8.4,55.2,9.2c2.4,0.1,4.8,0.2,7,0.3c-2.6,10.2-9.1,41.6-4.2,79.2C1639.8,1353.9,1629.5,1353.6,1618.5,1352.5z"/>
		<g>
			<path style="fill:#FECE2F;" d="M1424.2,1133.9c-0.5,0.1-1,0.2-1.4,0.3c0.2,0.7,0.4,1.4,0.6,2.1c6.8,22.7,17.1,44.3,29.9,64.3
				c15.9-7.3,28.8-6.7,36.6-5.1c-11.5-17.1-19.4-35-24.8-50.1c-0.5-1.3-0.9-2.5-1.3-3.8C1463.2,1141.1,1449.7,1129.2,1424.2,1133.9z
				"/>
			<path style="fill:#FECE2F;" d="M1535,1240.1c-3.4,1.2-13.6,5.2-23,13.9c-2.6,2.4-4.9,5-7,7.7c8.9,7.9,18.4,15.2,28.8,20.8
				c10.6,5.7,22.1,9.6,33.8,12.7c5.9-15.7,13.4-26.8,17.3-31.9C1568.8,1258.1,1551.8,1250.7,1535,1240.1z"/>
			<path style="fill:#FECE2F;" d="M1508.1,1249.4c7.6-7,15.5-11.1,20.7-13.3c-13.2-9.2-24.1-20.4-33.1-32.4
				c-0.2-0.1-0.4-0.1-0.6-0.2c-0.1,0-4.4-2.2-11.6-2.8c-6.1-0.5-15.6,0-26.9,5c2,3,4,5.9,6.1,8.8c9.9,13.7,21.1,26.6,33.1,38.5
				c1.6,1.5,3.1,3.1,4.8,4.6C1503,1254.5,1505.6,1251.7,1508.1,1249.4z"/>
			<path style="fill:#FECE2F;" d="M1705,1268.8c-0.4,0-1.7,0.2-3.9,0.5c-0.4,0.9-1.1,1.6-2.1,1.8c-0.7,0.2-15.9,3.5-39.4,3.5
				c-1,3.9-3.3,13.6-4.8,27c12.4-2,24.5-5.6,35.9-11c9.3-4.5,18.5-10.9,22.3-20.3C1710.3,1269.6,1707.7,1269.1,1705,1268.8z"/>
			<path style="fill:#FECE2F;" d="M1591.1,1265.1c-2.7,3.4-10.9,14.7-17.5,31.6c24.4,5.9,50.2,8.8,74.9,5.9
				c1.4-13.1,3.5-23,4.8-27.9c-2.3-0.1-4.6-0.1-7-0.3C1631.1,1273.5,1611.9,1271.1,1591.1,1265.1z"/>
			<path style="fill:#FECE2F;" d="M1421.2,1128.4c0.6-0.1,1.3-0.3,1.9-0.4c17.9-3.3,30.6,0.9,37.8,4.7c-7.8-25.8-9.6-45.3-9.7-46.2
				c0-0.2,0-0.4,0-0.6c-4.6-0.4-14.4-1-27.6-0.4c-2.9,0.1-6.2,0.5-9.6,1c0.3,2.1,0.6,4.2,0.9,6.4
				C1416.2,1104.9,1418.2,1116.7,1421.2,1128.4z"/>
		</g>
		<path style="fill:#1A1A1A;" d="M1478.3,1088.6L1478.3,1088.6c0-0.1,0-0.1,0-0.1c-0.1-0.4-0.2-0.9-0.4-1.3L1434,957.5
			c-0.1-0.6-0.4-1.1-0.7-1.5c0-0.2,0-0.3,0-0.5c-0.8-7.9-4.2-14.8-9.3-20.1c2.4-1.2,4.5-2.9,6.4-5c2.6-2.8,4.5-6.6,5.1-10.7
			c0.3-2.1,0.3-4.2-0.1-6.2s-1-3.9-1.9-5.6c-0.9-1.7-2-3.3-3.4-4.6c-1.3-1.3-2.8-2.5-4.6-3.3c-0.4-0.2-0.9-0.3-1.4-0.1
			c-1.1,0.3-1.8,1.4-1.6,2.6l0.1,0.4c0.4,1.5,0.9,3,1.3,4.4s0.8,2.8,1,4c0.3,1.3,0.5,2.5,0.6,3.7s0.2,2.4,0.1,3.5
			c-0.1,1.2-0.3,2.3-0.7,3.5c-0.3,1.2-0.8,2.4-1.4,3.6c-1,2-2.2,4-3.6,6.2c-6.7-5.2-15.4-7.9-24.5-6.9c-9.4,1-17.5,5.7-23,12.4
			c-1.4-1.9-2.6-3.7-3.6-5.6c-1.2-2.3-2-4.6-2.4-6.9c-0.2-1.2-0.3-2.4-0.4-3.6c-0.1-1.2-0.1-2.5,0-3.8c0-1.3,0.1-2.7,0.2-4.1
			c0.1-1.4,0.2-3,0.2-4.4v-0.4c0-0.4-0.1-0.9-0.4-1.3c-0.7-0.9-2.1-1.1-3-0.4c-1.6,1.2-2.7,2.5-3.7,4.1c-1,1.5-1.7,3.2-2.3,4.9
			c-0.6,1.7-0.8,3.6-0.9,5.5c0,1.9,0.2,3.8,0.6,5.7c0.9,3.8,2.9,7.3,5.5,9.9c2.1,2.1,4.6,3.7,7.2,4.7c-3.6,6.1-5.4,13.4-4.6,21.1
			c0,0.4,0.2,0.8,0.3,1.1c-0.1,0.3-0.1,0.6-0.1,1l-16.3,135.9c-0.1,0.4-0.1,0.8-0.1,1.3v0.1l0,0c0.3,3,2.4,6.1,24,6.4l0,0
			c1.6,0,2.9-1.3,2.9-2.9s-1.3-2.9-2.9-2.9c-9.4-0.1-14.2-0.8-16.5-1.4c1.6-0.8,4.5-1.9,9.6-3.2c11.5-3,28.7-5.9,47.2-7.8
			c18.8-1.9,36.4-2.7,48.3-2c4.9,0.3,7.8,0.7,9.5,1.2c-2,1-6,2.4-13.6,4.2c-1.6,0.4-2.5,1.9-2.2,3.5c0.4,1.6,1.9,2.5,3.5,2.2
			C1475.4,1095.2,1478.6,1092.1,1478.3,1088.6z M1396.1,930.6c14.9-1.5,28.3,8.7,31.1,23.2c-1.6-0.2-3.4-0.3-5.5-0.3
			c-6.2-0.2-14.3,0.3-22.8,1.1c-8.6,0.9-16.6,2.2-22.6,3.6c-2.2,0.5-4.2,1-5.8,1.6C1370.1,945,1381.2,932.2,1396.1,930.6z"/>
		<path style="fill:#FFFFFF;" d="M1364.3,1092.4c6.2-1.6,14-3.2,22.7-4.6l2.9-126.3c-10.7,1.6-17.2,3.4-19.1,4.4l-15.5,129.4
			C1357.6,1094.4,1360.5,1093.4,1364.3,1092.4z"/>
	</g>
	<g>
		<g>
			<path style="fill:#FECE2F;" d="M1812.3,1061.2c-13-9.7-60.3-31.3-94-26s-63.3,20-65,20s-39.3,22.7-34.7,30.7s64,42.3,64,42.3
				l103.3,63.7c0,0,58,40.3,64.3,40.7c6.3,0.3,9.3-2.7,11.7-9.7c2.3-7,13.4-54.3,1.3-99.7C1854,1088.2,1812.3,1061.2,1812.3,1061.2z
				"/>
		</g>
		<g>
			<g>
				<path style="fill:#FFFFFF;" d="M1685.8,1076.7c1.8,0,33.9-15.9,70.4-21.7c17.9-2.8,39.3,1.4,58.2,7.6c-1.3-0.9-2.1-1.4-2.1-1.4
					c-13-9.7-60.3-31.3-94-26s-63.3,20-65,20s-39.3,22.7-34.7,30.7c2.1,3.6,15.4,12.6,29.3,21.4
					C1650.1,1097,1684.1,1076.7,1685.8,1076.7z"/>
			</g>
		</g>
		<g>
			<path style="fill:#FECE2F;" d="M1723,1171.5c-20-6.6-77.3-20-113.3-6.7s-74,36-89.3,99.3s-12,106.7,1.3,162s49.3,124.7,91.3,152
				s84,6.7,102-4.7c18-11.3,78-62.7,104.7-122.7s39.3-122,28.7-170C1837.6,1232.9,1794.3,1194.9,1723,1171.5z"/>
		</g>
		<g>
			<g>
				<path style="fill:#FFFFFF;" d="M1573.6,1426.2c-13.3-55.3-16.7-98.7-1.3-162c15.3-63.3,53.3-86,89.3-99.3
					c4.4-1.6,9-2.8,13.9-3.7c-22.2-2.9-47-3.3-65.9,3.7c-36,13.3-74,36-89.3,99.3s-12,106.7,1.3,162s49.3,124.7,91.3,152
					c25.6,16.7,51.2,15.5,71.4,9.5c-6.4-2.1-12.9-5.2-19.4-9.5C1623,1550.9,1587,1481.5,1573.6,1426.2z"/>
			</g>
		</g>
		<g>
			<path style="fill:#1A1A1A;" d="M1659.7,1595.9c-1,0-2.1,0-3.1-0.1c-29.9-1.5-59.1-20-84.6-53.5c-23.3-30.8-42.2-72.2-54.7-119.7
				c-12.2-46.4-14-96.2-5.1-140.1c9.6-47.3,30.4-83.5,60.3-104.6c27.5-19.4,63.1-26.2,106-20.1c39.9,5.6,74.5,21,87.6,27.4
				c37.1,18.1,60.8,39.3,74.7,66.6c17.4,34.4,19,78.5,4.9,134.8s-43.2,109.9-81.9,150.9C1729,1574.3,1690.4,1595.9,1659.7,1595.9z
				 M1649.4,1161.6c-28.8,0-53.4,7.1-73.4,21.2c-28.6,20.2-48.6,55.1-57.9,100.9c-8.7,43-6.9,91.8,5,137.4
				c12.1,46.1,31.2,87.9,53.7,117.6c24.3,32.1,52,49.8,80.1,51.1c29.4,1.4,67.7-19.7,102.5-56.4c38-40.3,66.6-92.9,80.5-148.3
				c30.9-123.5-21.3-167.7-76.4-194.6c-12.8-6.2-46.7-21.3-85.8-26.9C1667.8,1162.3,1658.4,1161.6,1649.4,1161.6z"/>
		</g>
		<g>
			<circle style="fill:#1A1A1A;" cx="1839.1" cy="1155.4" r="5.8"/>
		</g>
		<path style="fill:#1A1A1A;" d="M1831,1410.7c0,0,0-0.1,0.1-0.2c-0.1,0.2-9,16.6-87.9,4c-0.8-0.1-1.6,0.1-2.2,0.5
			c-0.6,0.5-1.1,1.2-1.2,2c-0.1,0.5-7.3,47.7-12.8,88.8c-4.6,1.2-18.5,3.9-38.6-0.4c1.2-18.4,2.9-32,2.9-32.3
			c0.1-0.9-0.2-1.9-0.9-2.5c-0.7-0.7-1.6-1-2.5-0.8c-0.2,0-25.2,3.4-57,2.1c-29.2-1.2-70.3-6.8-100.4-26.3c-1.4-0.9-3.2-0.5-4.1,0.9
			s-0.5,3.2,0.9,4.1c31.3,20.3,73.6,26,103.6,27.2c25,1,45.9-0.8,54.1-1.7c-0.7,6.7-2.3,21.7-3.1,39c-1.6,31.7-0.4,55.8,3.7,71.6
			c0.3,1.4,1.6,2.3,2.9,2.3c0.2,0,0.5,0,0.7-0.1c1.6-0.4,2.6-2,2.2-3.6c-4.9-19.4-4.6-49.7-3.2-73.9c8.3,1.7,15.6,2.3,21.7,2.3
			c13,0,20.6-2.7,21-2.9c1-0.4,1.8-1.3,1.9-2.4c4.7-35.6,10.8-76.4,12.5-87.6c81.8,12.6,90.7-6.1,91.5-8.3L1831,1410.7z"/>
		<g>
			<circle style="fill:#1A1A1A;" cx="1663.8" cy="1496.2" r="6"/>
		</g>
		<g>
			<circle style="fill:#1A1A1A;" cx="1755.6" cy="1436.9" r="6.2"/>
		</g>
		<g>
			<circle style="fill:#1A1A1A;" cx="1717.1" cy="1495.9" r="5.6"/>
		</g>
		<path style="fill:#1A1A1A;" d="M1874.6,1049.5c-5.1,0-9.4,3.3-11,7.9c-10.3,0-25.5,1.7-38.1,10.5c-5.2-4.3-10.8-8.4-16.9-12.3
			c-37.3-23.8-77-30-117.9-18.4c-33.3,9.4-58.9,28.4-71.2,38.8c-2.8,2.3-4.2,5.8-3.9,9.4c0.3,3.6,2.2,6.7,5.2,8.6l225.6,140.7
			c1.8,1.1,3.8,1.7,5.9,1.7c1.2,0,2.5-0.2,3.7-0.6c3.2-1.1,5.7-3.6,6.8-6.7c5.3-14.5,13.5-43.8,9.6-76.5
			c-3.8-31.9-18-58.9-42.2-80.6c10.8-7,23.9-8.5,33-8.6c1,5.4,5.8,9.4,11.4,9.4c6.4,0,11.7-5.2,11.7-11.7
			S1881.1,1049.5,1874.6,1049.5z M1866.5,1153.3c1.8,14.9,0.9,29.1-1,41.4c-16-17.7-39.1-30.7-47.6-35.1c18.9-26,24.8-51,26.6-63
			C1856.6,1113.2,1863.9,1132.1,1866.5,1153.3z M1839.3,1089.9c-0.5,5.5-4,37.2-28.3,69c-0.5,0.7-0.7,1.6-0.5,2.5s0.8,1.6,1.6,2
			c0.3,0.2,33.1,16,51.5,38.2c0.2,0.2,0.4,0.4,0.6,0.6c-2.1,10.3-4.8,18.9-6.9,24.9c-0.5,1.5-1.7,2.6-3.2,3.1s-3.1,0.3-4.4-0.5
			L1624,1089c-1.4-0.9-2.3-2.3-2.4-4s0.5-3.3,1.8-4.3c6.1-5.2,15.5-12.5,27.5-19.6l67.7,44.3c4.2,2.8,9,4.1,13.8,4.1
			c8.1,0,16.1-3.9,21-11c3.8-5.6,5.2-12.4,3.9-19.1c-1.3-6.7-5.1-12.4-10.8-16.2l-35.9-24c32.8-4.8,64.6,2.4,94.8,21.7
			C1818.8,1069.3,1830.1,1079,1839.3,1089.9z"/>
	</g>
	<g>
		<g>
			<path style="fill:#FECE2F;" d="M1222.4,1424.8c-3.5,6.4-1.9,22.7,3.8,28.7c5.8,6,15.9,11.1,16.4,10.2s8.9-30.2,8.9-30.2
				l13.9-28.2C1265.5,1405.4,1238.9,1394.7,1222.4,1424.8z"/>
		</g>
		<g>
			<path style="fill:#FFFFFF;" d="M1222.4,1424.8c-3.5,6.4-1.9,22.7,3.8,28.7c5.8,6,15.9,11.1,16.4,10.2c0.2-0.3,1.5-4.6,3-9.9
				c-6.7-6-20.2-20.3-17.5-37.6C1226.1,1418.7,1224.2,1421.5,1222.4,1424.8z"/>
		</g>
		<g>
			<path style="fill:#FECE2F;" d="M1371.1,1493.1c-0.5,1.6-15,44.8-9.4,45c5.7,0.2,24.9-43.3,26.1-48s15.5-55.7,15.5-55.7
				s2.3-16.7-1.3-13.8C1398.5,1423.5,1380.9,1460.7,1371.1,1493.1z"/>
		</g>
		<g>
			<ellipse style="fill:#1A1A1A;" cx="1698.283" cy="1309.591" rx="71.999" ry="71.999"/>
		</g>
		<path style="fill:#1A1A1A;" d="M1721.4,1270.3c-10.4-6-22.4-7.5-34-4.4c-11.5,3.1-21.2,10.5-27.1,20.9c-0.7,1.2-1.7,3.1-2.6,5
			c-0.5,0.4-0.9,1-1.1,1.7c0,0-0.1,0.5-0.3,1.3c-0.2,0.4-0.3,0.8-0.5,1.1c-0.2,0.4-0.2,0.9-0.2,1.3c-2,7.1-7.2,23.9-17.9,44.1
			c-13,24.6-36.9,59.2-76.9,84.9c-36.1,23.2-79.8,24.7-110.1,21.8c-33-3.1-57.8-11.9-58.1-12c-1.6-0.6-3.3,0.3-3.8,1.8
			c-0.6,1.6,0.2,3.3,1.8,3.8c0.9,0.3,19.3,6.8,46,10.7c-6.5,5-15.6,14.7-20.1,32.3c-5.7,22,0.9,37.4,5,44.2
			c-32.3-6.3-53.7-15.5-54-15.6c-1.5-0.7-3.3,0-3.9,1.6c-0.7,1.5,0,3.3,1.6,3.9c1.1,0.5,26.6,11.5,65,17.7
			c14.1,2.3,30.9,4.1,49.5,4.1c28.2,0,60.2-4.1,92.1-16.7c71.8-28.4,113.5-80.3,136-118.8c22.8-39,30.5-71.7,31.7-76.9
			C1746.2,1301.9,1739.7,1280.8,1721.4,1270.3z M1689,1271.7c10-2.7,20.4-1.3,29.4,3.8c9.3,5.3,23.3,18.9,15.2,50.3
			c0,0.1-0.1,0.3-0.1,0.4c0,0,0,0.2-0.1,0.5s-0.2,0.6-0.2,0.9c0,0.2-0.1,0.3-0.1,0.5c-1.2,5.2-5.3,20.7-14.1,41.1
			c-37.1-11.5-63.6-32-69.9-37.2c8-17.3,11.8-30.6,13-35.3c1-2.2,2.6-5.4,3.5-6.9C1670.6,1280.8,1679,1274.4,1689,1271.7z
			 M1431.2,1530.5c-0.6-0.1-1.2-0.2-1.8-0.3c-0.1-0.5-0.3-1-0.7-1.4c-0.1-0.2-13.3-16-6.4-42.7c6.5-25.1,23-32.3,23.7-32.6
			c1.3,0.1,2.6,0.3,4,0.4c7.1,0.7,14.9,1.1,23.1,1.1c10.4,0,21.4-0.7,32.8-2.5c-5,6.7-11.4,19-10.8,38c0.8,22.7,11.1,36,17.3,42
			C1481.4,1536.3,1452.9,1534,1431.2,1530.5z M1569.4,1518.2c-16.5,6.5-33,10.7-49,13.2c-0.1,0-0.1-0.1-0.2-0.1
			c-0.2-0.1-18.1-12.3-19.1-40.9c-0.9-27,13.6-38.7,14.2-39.2c0.2-0.1,0.3-0.3,0.4-0.4c14.6-3.2,29.4-8.3,43.3-16.4
			c-0.2,5.6,0.2,14.6,3.4,24.4c4.5,14,15.4,32.2,42.1,42.4C1593.7,1507.4,1582,1513.1,1569.4,1518.2z M1611.2,1497.1
			c-22.3-7.2-36.8-20.7-43-40c-3.9-12.2-3.3-23.1-2.9-26.7c16.6-10.8,30.5-23.1,42-35.6c5.4,10.1,23.5,39.1,59.3,56
			C1651.7,1467.1,1633.5,1483.2,1611.2,1497.1z M1702.4,1402c-7.9,13.6-18.3,28.9-31.7,44.2c-37.8-17.2-55.8-49.4-59.2-56.1
			c14.2-16.4,24.5-32.7,31.6-46.1c1.1-2.1,2.2-4.2,3.2-6.3c8.2,6.6,33.9,25.8,70.1,37.2C1712.6,1383.2,1707.9,1392.4,1702.4,1402z"
			/>
		<g>
			<path style="fill:#FFFFFF;" d="M1716.5,1374.7c-36.2-11.3-61.9-30.5-70.1-37.2c-1,2-2.1,4.1-3.2,6.3
				c-7.1,13.4-17.3,29.8-31.6,46.1c3.4,6.7,21.4,39,59.2,56.1c13.3-15.3,23.7-30.6,31.7-44.2
				C1707.9,1392.4,1712.6,1383.2,1716.5,1374.7z"/>
			<path style="fill:#FFFFFF;" d="M1666.5,1450.8c-35.8-16.9-53.9-45.9-59.3-56c-11.5,12.5-25.4,24.8-42,35.6
				c-0.4,3.6-1,14.5,2.9,26.7c6.3,19.3,20.8,32.8,43,40C1633.5,1483.2,1651.7,1467.1,1666.5,1450.8z"/>
			<path style="fill:#FFFFFF;" d="M1604.5,1501.1c-26.7-10.3-37.7-28.5-42.1-42.4c-3.1-9.8-3.6-18.8-3.4-24.4
				c-13.9,8.1-28.7,13.2-43.3,16.4c-0.1,0.2-0.3,0.3-0.4,0.4c-0.6,0.5-15.1,12.2-14.2,39.2c1,28.6,18.9,40.8,19.1,40.9
				c0.1,0,0.1,0.1,0.2,0.1c16-2.5,32.6-6.7,49-13.2C1582,1513.1,1593.7,1507.4,1604.5,1501.1z"/>
			<path style="fill:#FFFFFF;" d="M1367.5,1513.2c0.2,0.1,21.7,9.3,54,15.6c-4.1-6.8-10.7-22.2-5-44.2c4.5-17.6,13.7-27.4,20.1-32.3
				c-26.7-3.8-45.1-10.4-46-10.7c-0.2-0.1-0.4-0.2-0.5-0.2c-2.3,4-7,12.7-11.9,24.9c-5.8,14.1-10,38.4-11.4,46.7
				C1367,1513,1367.2,1513.1,1367.5,1513.2z"/>
			<path style="fill:#FFFFFF;" d="M1422.3,1486.1c-6.9,26.7,6.3,42.5,6.4,42.7c0.4,0.4,0.6,0.9,0.7,1.4c0.6,0.1,1.2,0.2,1.8,0.3
				c21.7,3.5,50.2,5.8,81.2,2c-6.2-6-16.5-19.3-17.3-42c-0.6-19,5.8-31.3,10.8-38c-11.3,1.8-22.4,2.5-32.8,2.5
				c-8.2,0-16-0.4-23.1-1.1c-1.3-0.1-2.7-0.3-4-0.4C1445.2,1453.8,1428.8,1461,1422.3,1486.1z"/>
			<path style="fill:#FFFFFF;" d="M1733.1,1328.1c0-0.2,0-0.3,0.1-0.5c0.1-0.3,0.2-0.6,0.2-0.9c0.1-0.3,0.1-0.4,0.1-0.5
				s0.1-0.3,0.1-0.4c8.1-31.4-6-45-15.2-50.3c-9-5.2-19.4-6.5-29.4-3.8s-18.3,9.1-23.5,18.1c-0.9,1.5-2.5,4.7-3.5,6.9
				c-1.2,4.8-5,18-13,35.3c6.3,5.2,32.8,25.7,69.9,37.2C1727.7,1348.8,1731.8,1333.3,1733.1,1328.1z"/>
		</g>
		<g>
			<path style="fill:#FECE2F;" d="M1643.1,1343.8c-7.1,13.4-17.3,29.8-31.6,46.1c2,3.9,8.7,16.1,21.3,29.1
				c15.6-19.6,29.1-41.8,36.8-65.4c-11.3-6.8-19.4-12.9-23.3-16.1C1645.3,1339.6,1644.3,1341.7,1643.1,1343.8z"/>
			<path style="fill:#FECE2F;" d="M1562.4,1458.6c-3.1-9.8-3.6-18.8-3.4-24.4c-13.9,8.1-28.7,13.2-43.3,16.4
				c-0.1,0.2-0.3,0.3-0.4,0.4c-0.6,0.5-13.9,11.3-14.2,35.9c3.5-0.6,7.1-1.2,10.6-1.9c16.6-3.2,33-7.9,48.9-13.8
				c2.1-0.8,4.1-1.6,6.2-2.4C1564.8,1465.4,1563.4,1461.9,1562.4,1458.6z"/>
			<path style="fill:#FECE2F;" d="M1568.2,1457c1.1,3.4,2.5,6.5,4,9.6c10.9-4.7,21.5-10.3,31-17.4c9.6-7.3,18-16,25.7-25.3
				c-11.7-12-18.7-23.5-21.7-29.1c-11.5,12.5-25.4,24.8-42,35.6C1564.9,1434,1564.2,1444.9,1568.2,1457z"/>
			<path style="fill:#FECE2F;" d="M1416,1486.5c0.1-0.6,0.3-1.3,0.5-1.9c4.5-17.6,13.7-27.4,20.1-32.3c-26.7-3.8-45.1-10.4-46-10.7
				c-0.2-0.1-0.4-0.2-0.5-0.2c-2.3,4-7,12.7-11.9,24.9c-1.1,2.7-2.2,5.8-3.2,9.1c2,0.6,4.1,1.2,6.2,1.9
				C1392.6,1481.2,1404.2,1484.3,1416,1486.5z"/>
			<path style="fill:#FECE2F;" d="M1669.5,1284c-1.5,1.8-2.8,3.7-4,5.7c-0.9,1.5-2.5,4.7-3.5,6.9c-1.2,4.8-5,18-13,35.3
				c3.1,2.5,10.9,8.7,22.5,15.7c3.4-12.1,5.3-24.5,5.1-37.2C1676.4,1301.2,1674.9,1291.3,1669.5,1284z"/>
			<path style="fill:#FECE2F;" d="M1422.3,1486.1c-0.1,0.5-0.2,0.9-0.3,1.4c0.7,0.1,1.5,0.2,2.2,0.3c23.5,3.4,47.4,3.1,70.9,0
				c0-17.5,6-29,10.8-35.3c-11.3,1.8-22.4,2.5-32.8,2.5c-8.2,0-16-0.4-23.1-1.1c-1.3-0.1-2.7-0.3-4-0.4
				C1445.2,1453.8,1428.8,1461,1422.3,1486.1z"/>
		</g>
		<path style="fill:#1A1A1A;" d="M1403.9,1418L1403.9,1418c-0.1,0-0.1,0-0.2,0c-0.4-0.1-0.8-0.2-1.3-0.2l-136.1-14.8
			c-0.6-0.1-1.1-0.1-1.7,0c-0.2-0.1-0.3-0.2-0.5-0.2c-7.5-2.6-15.2-2.4-22.2,0c-0.1-2.6-0.7-5.3-1.8-7.9c-1.5-3.5-4.1-6.9-7.6-9.1
			c-1.7-1.1-3.7-2-5.6-2.5c-2-0.5-4-0.7-5.9-0.6s-3.8,0.5-5.6,1.1c-1.8,0.6-3.4,1.5-5,2.8c-0.4,0.3-0.6,0.7-0.7,1.2
			c-0.2,1.1,0.5,2.3,1.7,2.5l0.4,0.1c1.5,0.3,3.1,0.5,4.5,0.7s2.8,0.5,4.1,0.8c1.3,0.3,2.5,0.6,3.6,1s2.2,0.9,3.2,1.4
			c1,0.6,2,1.2,2.9,2.1c0.9,0.8,1.8,1.7,2.7,2.8c1.4,1.7,2.7,3.7,4.1,5.9c-7.5,3.9-13.6,10.6-16.6,19.3c-3.1,8.9-2.2,18.3,1.6,26.1
			c-2.3,0.4-4.5,0.8-6.5,0.9c-2.6,0.1-5-0.1-7.3-0.7c-1.1-0.3-2.3-0.7-3.4-1.2c-1.1-0.4-2.3-1-3.5-1.6s-2.4-1.2-3.7-1.9
			c-1.2-0.7-2.6-1.4-3.9-2.1l-0.4-0.2c-0.4-0.2-0.9-0.2-1.3-0.1c-1.1,0.3-1.9,1.4-1.6,2.5c0.4,1.9,1.2,3.5,2.1,5
			c1,1.5,2.1,2.9,3.5,4.1s2.9,2.3,4.6,3.1c1.7,0.8,3.5,1.5,5.4,1.9c3.8,0.8,7.8,0.4,11.3-0.8c2.8-1,5.3-2.6,7.3-4.5
			c4,5.9,9.9,10.6,17.1,13.1c0.3,0.1,0.6,0.2,0.9,0.2c0.1,0,0.1,0,0.2,0c0.2,0.2,0.5,0.4,0.8,0.5l116.4,72c0.3,0.2,0.6,0.4,0.9,0.6
			c0.1,0,0.2,0.1,0.2,0.1h0.1h0.1c0.1,0,0.1,0,0.2,0c0.4,0.1,0.8,0.2,1.2,0.2c2.7,0,6.6-3.1,14.4-19.4c0.7-1.4,0.1-3.2-1.4-3.9
			c-1.4-0.7-3.2-0.1-3.9,1.4c-4.1,8.5-6.7,12.5-8.2,14.4c0-1.8,0.2-4.9,1.1-10c2.1-11.7,6.7-28.5,12.8-46.1
			c6.1-17.9,12.9-34.1,18.5-44.6c2.3-4.4,4-6.8,5.1-8.2c0,2.2-0.3,6.4-1.9,14.1c-0.3,1.6,0.7,3.1,2.3,3.4c1.6,0.3,3.1-0.7,3.4-2.3
			C1408.8,1423.4,1407.3,1419.1,1403.9,1418z M1257.5,1412.4c-2.7,5.5-5.8,13.1-8.6,21.2c-2.8,8.1-5,16-6.3,22
			c-0.5,2.2-0.8,4.2-1,5.9c-13.5-5.9-20.5-21.3-15.7-35.5c4.9-14.2,19.8-22,34.1-18.4C1259.3,1408.9,1258.5,1410.5,1257.5,1412.4z"
			/>
		<path style="fill:#FFFFFF;" d="M1247.4,1463.9l110.9,68.6c0.1-2.5,0.5-5.6,1.2-9.4c1.1-6.3,3-14,5.3-22.5l-113.3-55.8
			C1248.4,1455,1247.3,1461.7,1247.4,1463.9z"/>
	</g>
</g>
</svg>
