<?xml version="1.0" encoding="utf-8"?>
<!-- Generator: Adobe Illustrator 21.0.0, SVG Export Plug-In . SVG Version: 6.00 Build 0)  -->
<svg version="1.1" baseProfile="tiny" xmlns="http://www.w3.org/2000/svg" xmlns:xlink="http://www.w3.org/1999/xlink" x="0px"
	 y="0px" viewBox="0 0 2000 2000" xml:space="preserve">
<g id="Layer_3">
	<g id="Layer_6">
		<path fill="#FECE2F" d="M1209.8,378.6c-105.4-165.1-495-264.7-651.1-161.3s-84,337.8-183,398.6c-99,60.9-326.6,263.6-267,505.1
			c84,340.8-4.1,498.3,123,610.8c183,162,387,29,636.1,99c249,70,626.5,128.5,783.1-46.5c117-130.8,70.6-305.3,147-477.7
			c93-210,12-416.9-225-456.4S1308.8,533.8,1209.8,378.6z"/>
	</g>
</g>
<g id="Layer_1">
	<g id="Layer_4">
		<g>
			<g>
				<path fill="#FFFFFF" d="M1546,1164c0,0,21.5-17,32.5-10.5l0,0c6.2,3.6,14.1,1.8,18.1-4.1l30.8-46.2c2.6-3.9,3-8.8,1.1-13
					c-1.9-4.1-3.1-10.9,0-21.1C1628.5,1069,1559,1156,1546,1164z"/>
			</g>
			<g>
				<path fill="#FFFFFF" d="M1123.7,1251.5l77.6-53c11.2-8.4,22.2-6.1,26.2-0.7c4.9,6.6,2.7,14.9-7.7,21.1L1188,1240
					c-5.1,3.4-6.6,10.1-3.6,15.4l0,0c3.9,6.8,0.1,15.5-7.6,17.1l-30,6.3c-10.5,2.2-21.3-2.6-26.6-11.9l0,0
					C1117.2,1261.5,1118.7,1254.9,1123.7,1251.5z"/>
			</g>
			<g>
				<path fill="#FFFFFF" d="M1559.6,1183.9c3.2,1,6.6,0.4,9.4-1.4l0,0c7.9-4.7,9.6-11,5.8-16c-3-4-11.4-5.8-19.9,0.6l0,0
					c-6.2,4.5-4.5,14.1,2.8,16.3L1559.6,1183.9z"/>
			</g>
			<g>
				<path fill="#FFFFFF" d="M1205,1263.7c2.6,0.8,5.5,0.4,7.7-1.2l0.8-0.5c7.9-4.7,9.6-11,5.8-16c-3-4-11.4-5.8-19.9,0.6l0,0
					c-6.2,4.5-4.5,14.1,2.8,16.3L1205,1263.7z"/>
			</g>
			<g>
				<path fill="#FFFFFF" d="M1307.7,1225c0,0-32.7,72.7-42,147.3c-9.3,74.7-5.3,114.8-5.3,114.8s-71.1,8.5-100.2-1.5
					c0,0,37.9-88.4,41.7-132.8l35.2-36.5L1307.7,1225z"/>
			</g>
			<g>
				<path fill="#FFFFFF" d="M1143.1,902.2c-3,3.6-6.4,6.7-10.1,8.3c-21.5,9.4-48.2,17.8-72,16.8c-32.6-1.3-58.1-16.7-84.1-35.8
					c-13.8-10.1-26-20.4-36.4-33.9c-7.1-9.2-12.4-18.8-15.7-29.3c-27.4-0.9-60.5-0.8-97.8,1.7c-106,7-257,107-302,284
					s53.5,302,53.5,302c7.5-38,40.5-106,116.5-163s208.8-50.2,208.8-50.2c25.8,63.8,81.8,59.8,134.2,56.8s179.5-100,179.5-100
					l95.5-60.5C1295.3,1068.2,1182.6,945,1143.1,902.2z"/>
			</g>
			<g>
				<path fill="#FECE2F" d="M819.3,1177.2c-0.4,0-0.8,0-1.2,0c-5.8-0.1-19.7-1.4-22.7-12.3c-2.7-10,6.5-18.5,16.9-22.6
					c1.7-0.7,3.5-1.3,5.3-1.9c-1.5-0.1-3-0.3-4.5-0.5c-3.7-0.4-14.8-1.7-18.1-10.2c-2.8-7.2,2.1-15,8.3-19
					c9.6-6.1,21.6-6.3,31.2-6.4l64.3-0.7l0,0c1.6,0,3,1.3,3,3s-1.3,3-3,3l-64.3,0.7c-8.9,0.1-19.9,0.2-28,5.4
					c-4.1,2.6-7.6,7.7-6,11.8c1.3,3.4,5.7,5.5,13.2,6.4c9.5,1.1,19.1,1.5,28.7,1.4c2.9-0.2,5.9-0.3,8.8-0.3c1.6,0,2.9,1.3,3,2.9
					c0,1.6-1.2,3-2.8,3.1c-2.9,0.2-5.7,0.3-8.6,0.3c-9.7,0.8-19.3,3-28.3,6.5c-7.6,3-15.1,9.2-13.3,15.5c2,7.2,13.5,7.9,17,7.9
					c9.4,0.1,19.1-1,28.4-2.1c15.6-1.8,31.7-3.7,47.4-0.1c1.6,0.4,2.6,2,2.3,3.6c-0.4,1.6-2,2.6-3.6,2.3
					c-14.7-3.3-29.6-1.6-45.4,0.2C838.2,1176.1,828.7,1177.2,819.3,1177.2z"/>
			</g>
			<g>
				<path fill="#FECE2F" d="M1011.8,1266.4c-0.5,0-1-0.1-1.5-0.4c-10.8-6.4-18.6-18-21.5-31.8c-2.3-11.4-1.3-24.2,2.9-38
					c3.4-11.1,8.5-17.7,15.5-20.2c8.6-3.1,17.4,1,23.4,5c10,6.8,18,16.3,22.9,27.2c3.5-10,7.8-19.7,12.7-29c2.1-4,4.7-8.4,9.2-10.8
					c5.6-3,15.6-2.9,25.3,7.5c1.3,1.4,2.5,2.8,3.7,4.4c1.9-3.8,5.5-6.5,10.2-7.5c6.9-1.5,14.7,0.9,19.3,5.9
					c7.3,7.9,8.5,18.9,9.2,30.4c0.1,1.7-1.2,3.1-2.8,3.2c-1.6,0.1-3.1-1.2-3.2-2.8c-0.6-10.4-1.6-20.2-7.6-26.7
					c-3.2-3.4-8.8-5.1-13.7-4.1c-2.3,0.5-5.3,1.8-6.4,5.2c-0.4,1.2-0.5,2.3-0.4,3.6c3,5.6,5.2,11.7,6.2,18c0.6,2.1,0.9,4.4,0.7,6.7
					c-0.1,1.6-1.4,2.8-3,2.8s-2.9-1.3-3-2.9c-0.1-1.8-0.3-3.5-0.6-5.3c-0.6-2.3-1.6-4.6-2.7-7c-1.5-3.4-3-6.8-3.5-10.4
					c-1.9-3.3-4.2-6.4-6.7-9.2c-5-5.3-12.5-9.4-18.1-6.3c-3,1.6-5,5-6.7,8.4c-6.1,11.5-11.1,23.7-14.9,36.1
					c-0.4,1.3-1.6,2.1-2.9,2.1l0,0c-1.3,0-2.5-0.9-2.9-2.1c-3.8-12.9-12.4-24.6-23.6-32.2c-3.9-2.6-11.4-6.7-18-4.4
					c-5.1,1.8-8.9,7.2-11.8,16.3c-4,12.8-4.9,24.6-2.8,35c2.4,12,9.4,22.4,18.6,27.9c1.4,0.8,1.9,2.7,1.1,4.1
					C1013.8,1265.9,1012.8,1266.4,1011.8,1266.4z"/>
			</g>
			<g>
				<path fill="#FECE2F" d="M1181.2,1108c-6.2,0-12.4-0.7-18.5-2.1c-8.8-2-14.3-5.8-16.3-11.4c-2.3-6.3,0.9-13,5.1-17
					c-21.3,1.9-42.7,0.8-63.8-3.5c-3.9-0.8-8.4-1.9-11.6-5.2c-5.3-5.5-4.2-14.2-0.5-19.6c3.8-5.5,9.8-8.5,15.1-10.7
					c0.7-0.3,1.4-0.6,2.1-0.8c-5.7-0.1-11.5-0.2-17.2-0.4c-16.5-0.7-22.2-8.5-22.1-14.9c0.1-4.3,2.6-7.9,5-10.7
					c18-21.3,44.9-30.6,70.8-39.7c11.1-3.9,22.6-7.9,33.2-12.8c1.5-0.7,3.3,0,4,1.5s0,3.3-1.5,4c-10.8,5-22.5,9.1-33.7,13
					c-26.4,9.2-51.3,17.9-68.2,37.9c-1.8,2.1-3.6,4.5-3.6,7c0,0.9-0.1,3.8,4.7,6.2c3,1.5,7.2,2.4,11.6,2.6c13,0.5,26.2,0.6,39.3,0.3
					c8.6-1.4,17.4-1.9,26.1-1.2c1.6,0.1,2.8,1.4,2.8,3s-1.2,2.9-2.8,3c-8.5,0.6-17,1-25.5,1.2c-7.8,1.3-15.4,3.5-22.7,6.6
					c-4.5,1.9-9.6,4.4-12.5,8.6c-2.4,3.4-3.1,8.9-0.2,11.9c2,2,5.2,2.8,8.4,3.5c25.9,5.2,52.2,5.6,78.3,1.3c1.5-0.3,3,0.7,3.4,2.2
					s-0.4,3.1-1.9,3.6c-4.6,1.6-9.4,3.3-12.9,6.5c-2.8,2.5-5.1,6.9-3.7,10.8c1.3,3.5,5.3,6.1,12,7.6c13.6,3.1,27.9,2.4,41.2-1.9
					c1.6-0.5,3.3,0.4,3.8,1.9c0.5,1.6-0.4,3.3-1.9,3.8C1198.7,1106.6,1189.9,1108,1181.2,1108z"/>
			</g>
			<g>
				<path fill="#FECE2F" d="M513.2,1149c-1.4,0-2.7-1-3-2.5c-0.3-1.6,0.8-3.2,2.4-3.5l66.9-11.6c7.4-1.3,15.8-2.7,21.8-7.6
					c5.2-4.2,8.2-12.6,4.2-17.9c-3.1-4.1-9.3-5.2-15.4-6c-3.4-0.4-6.8-0.9-10.3-1.2c-12.8,2-25.8,3.3-38.8,3.7
					c-1.4,0.1-2.7-0.9-3-2.3s0.4-2.8,1.7-3.4c12.7-5.5,27-5.3,39.9-4c7.6-1.2,15.1-2.7,22.6-4.5c7.2-1.7,15.4-4,21-9.3
					c4.8-4.6,7.5-12.9,3.5-18.5c-2.9-4-8.4-5.7-13.4-6.7c-29-6.2-60.2-0.8-85.4,14.8c-1.4,0.9-3.3,0.4-4.1-1c-0.9-1.4-0.4-3.3,1-4.1
					c26.6-16.4,59.3-22,89.8-15.6c5.8,1.2,12.9,3.4,17,9.1c5.9,8.3,2.5,19.9-4.2,26.3c-6.6,6.3-15.7,8.9-23.7,10.8
					c-1.8,0.4-3.6,0.8-5.4,1.2c4.7,1.1,9.1,3.1,12.1,7.1c6.2,8.1,2.3,20.1-5.1,26.1c-7.2,5.9-16.8,7.5-24.5,8.9l-66.9,11.6
					C513.6,1149,513.4,1149,513.2,1149z"/>
			</g>
			<g>
				<path fill="#FECE2F" d="M904.2,1005.4c-9.7,0-18.6-4.4-23.1-11.6c-4.1-6.7-4.8-15.6-1.7-24.5c1.2-3.6,3-6.9,5.1-10
					c-12,4.6-24.2,8.2-36.6,10.8c-6.1,1.2-13.1,2.4-20.1,0.8c-8-1.9-14.1-7.5-15.6-14.3c-1.6-7.2,1.8-15.1,9.8-22.7
					c6.6-6.2,14.2-11.3,22.4-15.1c-2.1-0.2-4.3-0.5-6.4-0.9c-2.4-0.4-5.1-1-7.4-2.7c-4.3-3.1-6.8-10.4-3.5-17.4
					c2.6-5.5,7.8-9,11.9-11.5c21.3-12.7,46.9-15.7,69.5-18.4c1.6-0.2,3.1,1,3.3,2.6s-1,3.1-2.6,3.3c-22,2.6-47,5.6-67.2,17.6
					c-3.4,2-7.6,4.9-9.6,9c-1.5,3.1-1.4,7.8,1.5,9.9c1.3,1,3.3,1.4,5,1.7c8.9,1.6,17.9,1.7,26.8,0.3c0.1,0,0.2,0,0.3,0
					c1.6-0.3,3.2,0.9,3.4,2.5c0.3,1.6-0.9,3.2-2.5,3.4c-0.1,0-0.2,0-0.3,0.1c-15.1,2.4-29.5,9.5-40.6,20c-4.5,4.2-9.5,10.6-8.1,17.1
					c1.1,5.2,6.4,8.6,11.1,9.7c5.8,1.3,12.1,0.3,17.5-0.9c17.3-3.6,34.3-9.2,50.6-17c2-1.2,4.2-2.3,6.4-3.1c1.5-0.6,3.2,0.1,3.8,1.6
					s0,3.2-1.4,3.9c-2,1-4,2-6,3c-7,4.3-12.4,10.9-15.1,18.7c-2.5,7.1-2,14.4,1.1,19.4c4,6.4,13,9.9,21.9,8.5
					c7.3-1.1,14.8-4.9,23.6-12c18.4-14.9,32.8-35.4,40.6-57.8c0.5-1.6,2.3-2.4,3.8-1.8c1.6,0.5,2.4,2.3,1.8,3.8
					c-8.1,23.4-23.2,44.9-42.5,60.5c-6.1,4.9-15.4,11.6-26.5,13.3C907.4,1005.3,905.8,1005.4,904.2,1005.4z"/>
			</g>
			
				<ellipse transform="matrix(0.9919 -0.1272 0.1272 0.9919 -73.0737 154.0732)" fill="#FFFFFF" cx="1169.8" cy="649.2" rx="22.3" ry="9.9"/>
			<g>
				<path fill="#FFFFFF" d="M1155.9,694l27.8,28.5c0,0-16.2,8.5-27.5-3S1155.9,694,1155.9,694z"/>
				<path fill="#1A1A1A" d="M1171,728.5c-5.7,0-11.9-1.7-17-6.9c-10.4-10.6-4.8-23.9-0.5-29.5c0.5-0.7,1.3-1.1,2.2-1.1
					c0.9-0.1,1.7,0.3,2.3,0.9l27.8,28.5c0.7,0.7,1,1.6,0.8,2.6c-0.2,0.9-0.7,1.7-1.6,2.2C1181.9,726.8,1176.7,728.5,1171,728.5z
					 M1156.4,698.8c-2.2,4.2-4.6,11.9,1.9,18.6c3.9,4,9.1,5.7,15.3,5c1.8-0.2,3.4-0.6,4.8-1L1156.4,698.8z"/>
			</g>
			<ellipse fill="#FFFFFF" cx="1295" cy="1154.2" rx="27.2" ry="27.5"/>
			<g>
				<ellipse fill="#1A1A1A" cx="1295" cy="1154.2" rx="6.7" ry="6.7"/>
				<path fill="#1A1A1A" d="M1295,1163.9c-5.3,0-9.7-4.4-9.7-9.7s4.3-9.7,9.7-9.7c5.3,0,9.7,4.4,9.7,9.7S1300.3,1163.9,1295,1163.9z
					 M1295,1150.4c-2,0-3.7,1.7-3.7,3.7s1.6,3.7,3.7,3.7c2,0,3.7-1.7,3.7-3.7S1297,1150.4,1295,1150.4z"/>
			</g>
			<g>
				<path fill="#1A1A1A" d="M1295.4,1150L1295.4,1150c-1.8-0.1-3-1.5-3-3.1l0.4-10.7c0.1-1.7,1.4-3,3.1-2.9s2.9,1.5,2.9,3.1
					l-0.4,10.7C1298.3,1148.7,1297,1150,1295.4,1150z"/>
			</g>
			<g>
				<path fill="#1A1A1A" d="M993.3,1677.7c-0.6,0-1.3-0.2-1.8-0.6c-34.9-27.2-73.4-61.1-114.3-101c-1.2-1.2-1.2-3.1-0.1-4.2
					c1.2-1.2,3.1-1.2,4.2-0.1c40.8,39.7,79.1,73.6,113.8,100.6c1.3,1,1.5,2.9,0.5,4.2C995.1,1677.3,994.2,1677.7,993.3,1677.7z"/>
			</g>
			<g>
				<path fill="#1A1A1A" d="M518.3,1149.5C403.4,991.3,326.6,859.1,362.2,833.3c68.8-49.8,226.9,144.4,226.9,144.4s-40.5,62-48,80.9
					C532.4,1080.3,518.3,1149.5,518.3,1149.5z"/>
				<path fill="#1A1A1A" d="M518.3,1152.5c-0.9,0-1.9-0.4-2.4-1.2c-53.5-73.6-94.8-136.2-122.7-185.9
					c-31.5-56.1-45.7-95.8-42.2-117.7c1.2-7.5,4.4-13.1,9.5-16.8c16.6-12,39.3-11.6,67.5,1.2c21.9,10,47.3,27.7,75.5,52.4
					c47.8,42,87.6,90.8,88,91.2c0.8,1,0.9,2.4,0.2,3.5c-0.4,0.6-40.4,62-47.8,80.4c-8.5,21.3-22.5,89.7-22.6,90.4
					c-0.2,1.2-1.1,2.1-2.3,2.3C518.7,1152.5,518.5,1152.5,518.3,1152.5z M388.7,828.2c-9.1,0-17.5,2.3-24.7,7.6
					c-3.8,2.8-6.1,7-7.1,12.9c-4.3,27.3,20,100.4,159.9,293.6c3.8-18,14.3-66.8,21.5-84.8c6.9-17.3,40.2-68.9,47.1-79.6
					c-7.4-8.9-43.6-51.6-86-88.9C465.6,859.3,422.2,828.2,388.7,828.2z"/>
			</g>
			<g>
				<path fill="#1A1A1A" d="M763.5,1649c-0.2,0-0.5,0-0.7-0.1c-59.7-14.7-115.6-41.8-166.1-80.7c-40.4-31-77.4-69.5-110.1-114.5
					c-55.6-76.5-79.7-146.1-79.9-146.8c-0.5-1.6,0.3-3.3,1.9-3.8s3.3,0.3,3.8,1.9c0.2,0.7,24.1,69.6,79.2,145.4
					c32.3,44.4,69,82.5,108.9,113.2c49.8,38.3,104.9,65,163.8,79.5c1.6,0.4,2.6,2,2.2,3.6C766,1648.1,764.8,1649,763.5,1649z"/>
			</g>
			<g>
				<path fill="#1A1A1A" d="M1517.5,1446c-0.9,0-1.8-0.4-2.4-1.2c-1-1.3-0.7-3.2,0.6-4.2c59.5-44.1,101.1-109.3,125.6-156.2
					c26.6-50.9,39.2-91.8,39.3-92.2c0.5-1.6,2.2-2.5,3.7-2c1.6,0.5,2.5,2.2,2,3.7c-0.1,0.4-12.9,41.9-39.7,93.3
					c-24.8,47.5-67,113.5-127.4,158.3C1518.7,1445.8,1518.1,1446,1517.5,1446z"/>
			</g>
			<path fill="#1A1A1A" d="M1154.2,661c3.1,0.9,6.7,1.4,10.6,1.4c2.2,0,4.4-0.2,6.6-0.5c0.3,0,0.7-0.1,1-0.1c0.1,0,0.2,0,0.4,0
				c0.2,0,0.4,0,0.6-0.1c0.1,0,1.3-0.2,3.1-0.7c9.6-2.2,16.4-6.8,18-12c0,0,0-0.1,0-0.1c0.1-0.2,0.1-0.4,0.1-0.6
				c0.1-0.7,0.2-1.3,0.2-2c-0.1-2.5-1.4-4.6-3.9-6.2c-3.8-2.8-10.2-4.3-17.8-4.1c0,0,0,0,0,0c0,0,0,0,0,0c-1.6,0-3.3,0.2-5.1,0.4
				c-6.3,0.8-12.1,2.7-16.4,5.3c-5,3-7.5,6.8-7,10.7S1148.6,659.3,1154.2,661z M1154.8,646.9c3.5-2.1,8.4-3.7,13.6-4.4
				c-1.1,3.5-1.7,8.5,0,13.8c-4.7,0.4-9.2,0-12.6-1c-3-0.9-5-2.3-5.2-3.6C1150.5,650.4,1152.1,648.5,1154.8,646.9z"/>
			<path fill="#1A1A1A" d="M1062.7,685.5l-11.9-12.8c2.1-2,4.1-2.8,4.3-2.9c1.6-0.6,2.3-2.4,1.7-3.9s-2.4-2.3-3.9-1.7
				c-5.6,2.2-15.5,10.6-12.3,26.4c0.2,1.4,1.5,2.4,2.9,2.4c0.2,0,0.4,0,0.5-0.1c1.7-0.3,2.7-1.9,2.4-3.5c-1-5-0.4-8.8,0.9-11.7
				l11,11.8c0.6,0.7,1.4,1,2.2,1c0.7,0,1.4-0.3,2-0.8C1063.8,688.6,1063.8,686.7,1062.7,685.5z"/>
			<g>
				<path fill="#1A1A1A" d="M248.6,680.6c-0.4,0-0.8-0.1-1.1-0.2c-48.8-19.7-74-49-86.6-70.1c-13.7-23-15.7-41.1-15.8-41.9
					c-0.2-1.6,1-3.1,2.7-3.3s3.1,1,3.3,2.7l0,0c0,0.2,2,17.8,15.1,39.8c12.1,20.2,36.4,48.3,83.5,67.3c1.5,0.6,2.3,2.4,1.7,3.9
					C250.9,679.9,249.8,680.6,248.6,680.6z"/>
			</g>
			<g>
				<path fill="#1A1A1A" d="M985.7,446c-0.3,0-0.7-0.1-1-0.2c-28.7-10.2-48.1-41.3-48.9-42.6c-0.9-1.4-0.4-3.3,1-4.1
					c1.4-0.9,3.3-0.4,4.1,1c0.2,0.3,19.1,30.6,45.8,40.1c1.6,0.6,2.4,2.3,1.8,3.8C988.1,445.2,986.9,446,985.7,446z"/>
			</g>
			<g>
				<path fill="#1A1A1A" d="M255.7,252c-0.8,0-1.6-0.3-2.1-0.9c-1.2-1.2-1.1-3.1,0.1-4.2c1.2-1.2,29.9-28.7,77.6-37.5
					c1.6-0.3,3.2,0.8,3.5,2.4c0.3,1.6-0.8,3.2-2.4,3.5c-45.8,8.4-74.2,35.6-74.4,35.9C257.2,251.7,256.4,252,255.7,252z"/>
			</g>
			<g>
				<path fill="#FECE2F" d="M1148,565c-1.3,0-2.5-0.8-2.9-2.1c-13.2-44.5-84.6-48.8-85.3-48.9c-1.7-0.1-2.9-1.5-2.8-3.2
					s1.5-2.9,3.2-2.8c0.8,0,19.1,1.1,39.6,8c27.5,9.3,45.1,24.9,51.2,45.1c0.5,1.6-0.4,3.3-2,3.7C1148.6,565,1148.3,565,1148,565z"
					/>
			</g>
			<g>
				<path fill="#FECE2F" d="M218.6,556.1c-1.3,0-2.4-0.8-2.8-2.1c-11.4-34.6-16.1-68.3-14-100.3c1.7-25.6,7.8-50.1,18-72.9
					c17.5-38.8,40.9-58.7,41.9-59.6c1.3-1.1,3.2-0.9,4.2,0.4c1.1,1.3,0.9,3.2-0.4,4.2c-0.1,0.1-6,5.1-13.8,14.6
					c-7.3,8.8-17.8,23.5-26.6,43.1c-9.9,22.1-15.8,45.9-17.4,70.7c-2,31.1,2.6,64,13.7,97.8c0.5,1.6-0.3,3.3-1.9,3.8
					C219.3,556.1,218.9,556.1,218.6,556.1z"/>
			</g>
			<g>
				<path fill="#FECE2F" d="M961.7,735c-0.3,0-0.5,0-0.8,0c-51.1-0.4-92-25.1-131.6-48.9C771,651,710.8,614.6,613.9,649.9
					c-1.6,0.6-3.3-0.2-3.8-1.8s0.2-3.3,1.8-3.8c99.5-36.2,161,0.9,220.5,36.7c40.7,24.5,79.1,47.7,128.5,48.1c0.2,0,0.5,0,0.7,0
					c41,0,60.3-28.1,60.5-28.3c0.9-1.4,2.8-1.7,4.2-0.8s1.7,2.8,0.8,4.2C1026.3,705.3,1006,735,961.7,735z"/>
			</g>
			<path fill="#1A1A1A" d="M1699.4,1058.8l-22.8-5.7c1.2-4.8,0.7-8.7,0.6-8.9c-0.2-1.6-1.8-2.7-3.4-2.5c-1.6,0.2-2.7,1.8-2.5,3.4
				c0,0,1,7.1-3.5,12.9c-3.4,4.4-9.1,7.1-16.9,8c-1.6,0.2-2.8,1.7-2.6,3.3s1.5,2.7,3,2.7c0.1,0,0.3,0,0.3,0
				c9.5-1.1,16.6-4.6,21-10.4c0.7-0.9,1.3-1.9,1.8-2.9l23.6,5.9c0.2,0.1,0.5,0.1,0.7,0.1c1.3,0,2.5-0.9,2.9-2.3
				C1702,1060.8,1701,1059.2,1699.4,1058.8z"/>
			<path fill="#1A1A1A" d="M1755.2,1025.8c-0.7-1.5-1.9-2.5-3.4-3c-4.6-1.4-11.8,3.2-23.2,10.8c-5.6,3.7-16.8,11.2-20.2,11
				c0.7-3.6,9.3-14,15-21c14-17.1,23-28.9,21.2-36.6c-0.8-3.5-2.8-4.9-4.4-5.4c-1.7-0.5-3.4-0.4-5.1,0.2c0.2-0.7,0.2-1.4,0.2-2
				c-0.1-2.1-1-3.3-1.7-4c-7.1-6.6-16.2,2.2-32.8,18.3c-3.4,3.3-7.2,7.1-11.4,11c-4.4,4.1-13.5,12.9-19.4,18.6
				c3.3-20,2.4-33.7-2.6-39.9c-2.4-3-5.1-3.4-6.4-3.4c-4,0-5.5,3.9-13.3,34.3c-3.5,13.6-7.1,27.8-10.2,35.2
				c-3.1,7.6-29.6,43.8-63.5,80.1c-24,25.7-69.3,69.9-102.3,77.1c-18,3.9-36.9,1.2-56-8.2c-16.5-8-33.6-21.2-50.9-39.1
				c24.7-26.9,31.1-27.8,32.3-27.7c4.3,0.6,11.4,4,18.3,7.2c14,6.6,28.6,13.4,34.7,5.9c1.3-1.6,1.7-3.5,1.1-5.5
				c-1.7-6.1-14.8-12.9-27.2-18c14.5,1.2,31.7,2.6,35.8,2.9c2,0.2,3.8,0.3,5.5,0.3c6.6,0,11.2-1.4,13.5-4.4c2.7-3.1,2-6.4,1.9-6.8
				c-0.2-0.5-0.4-1-0.8-1.4c-2.5-2.6-6.3-4.8-10.8-6.6c1.2-0.8,2.2-1.9,3-3.2c0.9-1.8,1.5-4.8-0.8-9c-6.4-11.4-48.2-15.6-68.6-17
				c4.9-3.1,11.4-7.3,17.7-11.7c25.4-17.4,26.2-21.2,24.5-24.3c-0.6-1.2-2-2.8-4.8-3.5c-7.9-1.9-27.1,5-57.2,20.3
				c6-19.8,4.9-31.6-3.3-35.2c-0.8-0.4-2.2-0.7-3.8,0c-2.8,1.2-7.4,5.6-17.5,29.3c-4.5,10.7-8.4,21.1-9.6,24.4
				c-5.6,3.1-11.3,6.4-17.4,9.9c-5.7,3.3-11.5,6.7-17.1,10.1c-10-14.5-25.2-33.7-42.6-54.4c-0.1-0.4-0.3-0.7-0.6-1
				c-0.6-0.7-3.1-3.5-6.9-7.9c-21.4-25.2-45.1-51.8-65.6-74.5c-39.1-43.2-74.4-80.6-82.1-88.7c-0.1-0.1-0.2-0.3-0.3-0.4l22.3-91.6
				l3.8-15.3c4.3,0.7,8.6,1,12.8,1c13.7,0,26.5-3.6,38-10.6c20.3-12.6,27.8-38.4,22-74.6c3.2,1.6,6.1,2.1,8.5,2.1
				c1.1,0,2.2-0.1,3-0.3c6.1-1.1,10.8-5.2,12.7-8.8c1.9-3.7,1.5-8.7-1.1-12.3c-1.7-2.4-5.9-6.1-14.5-4.5
				c-10.8,2.1-15.5-6.1-16.7-8.7c0-0.2-0.1-0.4-0.1-0.7c-9.5-28.8-24.8-57.9-41-78.3c0-5-0.5-9.9-1.4-14.6
				c-4.2-21.1-20-47.4-71.6-52.7c-116.2-12-161-79-190.5-123.4c-2.2-3.2-4.3-6.3-6.3-9.3c-29.5-43.2-78.8-115.5-238.7-105.3
				c-66.3,4.2-101.1-12-134.9-27.6c-22.6-10.5-44-20.5-73.1-23.1c-32.5-2.9-70,3.7-118.1,20.9c-47.5,17-89.3,46.1-120.9,84.2
				c-29.4,35.4-49.4,77.5-57.7,121.6c-6.8,36-5.4,72.3,4,104.7c10.1,34.6,28.5,63.7,54.7,86.6c43,37.5,94.6,58.2,157.6,63.3
				c55.4,4.5,112.1-3.2,167-10.7c25.7-3.5,49.9-6.8,73.7-8.9c73.5-6.3,116.1,16.8,161.3,41.3c33.2,18,67.6,36.7,116.9,46.7
				c16.7,3.4,32,4.8,45.8,4.8c37.4,0,64.4-10.5,81.9-21c12.4-7.3,21.5-15.3,27.6-21.7l-36.7,110c-2.7-0.6-50.1-10.4-112.7-9.4
				c-37.6,0.7-73.4,5.2-106.2,13.3c-41.1,10.2-77.7,26.2-108.8,47.6c-69.4,47.8-124.5,124.7-151,211c-14,45.7-19.7,92.2-16.7,138.2
				c3.2,49.7,16.4,97.5,39.3,142.1c22.9,44.5,49.9,82.6,80.3,113.2c28.2,28.3,59.6,50.4,93.3,65.7c36.9,16.8,76.2,25.2,116.3,25.2
				c13.1,0,26.3-0.9,39.5-2.7l71.1,66.4c0.4,0.4,0.9,0.7,1.5,0.8c0.2,0,1.3,0.2,3.1,0.2c8.4,0,32.4-4.2,52.7-47.1
				c13.9-29.4,26.7-30.6,41.4-32.1c9.9-1,21-2.1,33.1-11.5c16.8-13,13.5-30.6,10.8-44.8c-2.6-13.9-3.7-22.7,5.9-27.8
				c24.8-13.1,62.3-32.9,65.5-83.6c11.8-11.6,23-23.1,33.4-34.2c0,0.5-0.1,0.9-0.1,1.4c-1.4,5.9-2.9,11.8-4.4,17.7
				c-3.2,12.2-6.7,24.1-10.6,35.8c-3.8,11-7.8,22-11.5,31.8c-17.3,43.9-39.4,83.6-66,118.4c-31.7,41.5-69.8,76.4-113.4,103.6
				c-0.4,0.2-0.8,0.5-1,0.9c-0.7,0.5-1.2,1.3-1.2,2.2c0,1,0.4,2,1.2,2.6c69.8,54.3,125.4,81.6,166.1,81.6c15.8,0,29.3-4.1,40.7-12.4
				c8.7-6.5,13.8-16.3,15.1-29.2c4-40.4-31.1-110-85.4-169.9c11.8-17.7,22.6-36.5,32.3-56.3c15.8,2,31.7,2.9,47.7,2.9
				c30.8,0,61.7-3.7,92.6-10.8c63.7-15.1,124.3-45.4,179.9-90.3c105.4-85.1,195.6-253.8,225.3-309.2c4.8-8.9,8.6-16,9.5-17.1
				c2.2-2.9,8.5-7.5,15.2-12.3C1747.9,1041.3,1758.3,1033.1,1755.2,1025.8z M1377.8,1027.9c4.6,3,3.7,15.4-2.5,33.3
				c-5.8,3-12,6.4-18.5,10C1366.1,1046.7,1374.5,1030.4,1377.8,1027.9z M1334.3,1090.9c56.6-32.8,94.7-50.4,104.4-48c0,0,0,0,0.1,0
				c-4.2,5.3-26.8,21-47.1,33.5c-1.4,0.8-1.9,2.7-1,4.1c0.4,0.7,1.1,1.2,1.9,1.4c0.2,0.1,0.4,0.1,0.7,0.1c0.2,0,17.1,0.8,34.7,3.1
				c31,4.1,37,9.4,38.2,11.4c0.6,1,1.2,2.4,0.7,3.3c-0.7,1.3-3.6,2.3-5.4,2.5c-0.5,0.1-1,0.3-1.4,0.5c-25-6.5-61.4-5.5-63.4-5.4
				c-1.7,0.1-3,1.4-2.9,3.1c0.1,1.6,1.5,3,3.1,2.9c17.4-0.5,64.6,0.7,77.9,12.3c-0.1,0.3-0.2,0.6-0.5,0.9c-0.8,0.9-3.8,3-14,2
				c-7.2-0.8-55.4-4.5-57.4-4.7c-1.6-0.1-3.1,1.1-3.2,2.8c0,0.7,0.2,1.3,0.5,1.9c0.4,0.6,0.9,1,1.6,1.2c0.2,0,11.3,3.7,22.4,8.5
				c19.5,8.4,21.2,12.5,21.3,13c-3.1,3.9-17.8-3-27.5-7.6c-7.6-3.5-14.8-6.9-20-7.7c-5.2-0.7-15.5,3.8-49.8,43.1
				c-8.5-3.7-16.3-8.6-23.1-14.5c0-0.2,0-0.3,0-0.5c0-14.3-9.7-26.3-22.9-29.6c-2.7-5.5-4.1-9.7-4.7-11.9
				C1309.5,1105.5,1321.8,1098.1,1334.3,1090.9z M1319.2,1154.2c0,13.5-10.9,24.5-24.2,24.5c-13.4,0-24.2-11-24.2-24.5
				c0-2.2,0.3-4.4,0.9-6.5c0.4-0.6,0.6-1.2,0.6-1.9c3.4-9.4,12.3-16.1,22.7-16.1C1308.3,1129.7,1319.2,1140.7,1319.2,1154.2z
				 M1202.1,1004.6c1.3-1.6,2.8-2.4,4.6-2.6c10.6-1,41.7,24.8,59.3,41.8c17.8,21.1,33.1,40.4,43.2,54.9
				c-36.4,21.8-69.6,43.1-89,56.2c-3.7-44.6-12-84.5-22-118.8C1197.3,1028.9,1196.6,1011.4,1202.1,1004.6z M1004.6,837.8l-2.8,8.3
				c-0.5,1.6,0.3,3.3,1.9,3.8c0.3,0.2,0.6,0.2,0.9,0.2c1.2,0,2.4-0.8,2.8-2.1l46.6-139.5c0.5-1.6-0.3-3.3-1.9-3.8
				c-0.3-0.1-0.5-0.1-0.8-0.1c-8.2-1.3-13.8-5.4-16.1-11.9c-2.9-7.9-0.5-18.7,5.7-25.7c2.4-2.7,7.4-7.1,13.9-5.6
				c11.7,2.6,15.8,12.4,17.1,20.1c0.6,3.3,2.7,6.2,5.7,7.6c3,1.5,6.5,1.4,9.4-0.2c22.8-12.4,44.6-34.4,59.7-60.3
				c10.6-18.2,16.9-36.4,18.6-53.1c14,19.3,27,44.9,35.5,70.3c0,0.2,0.1,0.4,0.1,0.7c2.1,5.8,9.7,16.1,23.8,13.4
				c4.1-0.8,7-0.1,8.6,2.1c1.3,1.9,1.4,4.5,0.6,5.9c-1,1.9-4.1,5-8.5,5.8c-4.1,0.8-8.2-0.7-12.4-4.3c-1.2-1.1-3.1-1-4.2,0.3
				c-0.4,0.4-0.6,0.9-0.7,1.4c-0.2,0.5-0.3,1.2-0.2,1.8c9.1,46.5-4.8,66-18.1,74.3c-39.2,24.3-81.3-4.3-81.7-4.6
				c-1.4-1-3.3-0.7-4.2,0.7c-0.8,1.2-0.8,2.7,0.1,3.7c1.7,2.6,21,33.2,16.9,76.3c0,0,0,0.1,0,0.1l-11.1,45.5c0,0,0,0.1,0,0.1
				c0,0.2-0.1,0.3-0.1,0.5c0,0.1,0,0.2,0,0.2c0,0.2,0,0.4,0.1,0.6c0,0,0,0,0,0.1c0.1,0.5,0.4,1,0.7,1.4c0.1,0.1,0.3,0.3,0.7,0.7
				c2.7,3.2,11.7,14.8,23.5,33.9c-34.3,18.9-68.4,23.8-101.2,14.3c-59.4-17.1-98.1-76.2-107.3-91.6
				C969,830.8,999.5,836.8,1004.6,837.8z M919.2,828.8c1.8,3.3,11.9,20.9,29.4,40.9c17.6,20.1,46.4,46.3,83.3,56.9
				c11.5,3.3,23.1,5,34.8,5c23.4,0,47.2-6.6,71.2-20.1c3.4,5.7,7,12,10.7,18.9c-3.8,2.6-19.1,12.2-42.5,17.9
				c-24.9,6-64.3,8.6-110.9-13.4c-43.8-20.6-68.9-49.2-82.3-69.6c-10.9-16.7-16-30.7-17.8-36.6C903.5,828.6,911.5,828.6,919.2,828.8
				z M555.7,1372.1c-22.5-43.8-35.5-90.9-38.6-139.7c-2.9-45.3,2.7-91.1,16.5-136.1c22.9-74.6,67.4-141.9,124.1-189.2
				c18.6,27.3,2.1,97.4,30.3,94.1c31-3.7,1.9-48,21.5-114.2c2-7.5,8.2-14.9,10.6-20.5c21.1-10.3,44.1-18.6,68.8-24.7
				c30.9-7.7,64.6-12,100.1-13c1.5,5.1,6.5,20.6,18.9,39.6c13.7,21.1,39.7,50.7,84.9,72c29.2,13.7,55.7,18.2,77.8,18.2
				c14.5,0,27.2-1.9,37.3-4.6c23.4-5.6,38.7-14.9,43.6-18.2c1.9,3.7,3.9,7.5,5.8,11.4c11.3,22.9,24,53.1,34.8,89.8
				c0.1,0.4,0.2,0.8,0.2,1.1c0.1,0.4,0.2,0.8,0.4,1.1c10,34.6,18.2,74.7,21.7,119.7c-1.4,0.9-2.7,1.8-3.8,2.6
				c-4.3,3-9.3,6.6-14.6,10.4c-25.7,18.5-64.6,46.4-106.8,65.6c-32.4,14.7-62.1,22.1-88.7,22.1c-14.3,0-27.7-2.1-40.2-6.4
				c-37.2-12.8-57.7-42.5-60.8-88.2c-2.3-34.6,6.7-65.8,6.8-66.1c0.5-1.6-0.4-3.2-2-3.7c-1.6-0.5-3.2,0.4-3.7,2
				c-0.4,1.3-9.4,32.4-7,68c0.8,12.4,3,23.8,6.4,34.1c-9.5-0.5-41.3-1.6-80.1,4.1c-42.8,6.2-102.9,22-146.9,62.3
				c-62,56.8-89.2,125.7-95.8,144.5C569.7,1398.1,562.5,1385.4,555.7,1372.1z M1093.9,1453.7c-9.7,8.1-20.1,16.6-31,25.1
				c-44.9,34.9-86.1,60.3-121.9,75.6c-8.3,3.3-16.4,6.1-24.3,8.2c-64.9,17.6-130.8,12.7-190.3-14.3c-33-15-63.8-36.7-91.5-64.5
				c-14-14-27.2-29.7-39.7-46.9c0.7-3.1,4.5-19.2,15.8-43.5c11.7-25.1,33.9-64.4,73.4-108.5c39.2-43.8,96.4-63,137.4-71.5
				c42.3-8.7,76.6-8,80.4-7.9c4.6,11.6,11,21.7,19.1,30.1c-22.8,23.8-91.6,20-86.8,48.1c6.5,28.6,44,12.2,109.5-9.5
				c18.2-6,36.3-8.4,52.9-8.7c1.3,0,2.5,0.1,3.8,0.1c27.4,0,58-7.6,91-22.7c42.8-19.5,81.9-47.6,107.8-66.2
				c5.3-3.8,10.2-7.3,14.5-10.3c9.6-6.6,26.7-18,47.8-31.4c0.9,2.6,2.2,6.4,4.1,10.9c-0.7,2.6-1.1,5.4-1.1,8.3
				c0,15.9,12.2,29,27.6,30.4c0,0,0,0,0,0c9.1,8.1,19.2,13.2,30.2,15.2c-25.8,31.8-51.1,65.6-65.5,84.9
				C1229.3,1322.2,1165.6,1392.6,1093.9,1453.7z M1220.7,1448.8c-19.6-15.5-18.6-59.4-16.8-81.2c0.3-1.6,0.5-3,0.8-4.5
				c0.7-3.2,1.5-6.4,2.2-9.5c23.6-25.5,42.7-48.3,55.2-65.2c9.3-12.5,23.1-31.1,38.8-51.3c-5.5,12.1-12.1,28-18.5,47.6
				c-12.2,37.4-25.6,94.6-26,165.6C1241.3,1456.1,1229.3,1455.6,1220.7,1448.8z M1743.8,1035.9c-4.6,4.3-11,8.9-17.2,13.4
				c-7.3,5.3-13.6,9.9-16.4,13.4c-1.2,1.5-3.8,6.3-10.1,18c-29.5,55.1-119.3,223-223.8,307.3c-55,44.3-114.7,74.3-177.5,89.1
				c-11.8,2.8-23.7,5-35.5,6.7l-0.9-24.5c-0.8-74.3,13-134,25.5-172.5c15.2-46.8,31.8-73.3,32-73.6c0.2-0.3,0.3-0.5,0.4-0.8
				c8-10,16.1-19.9,24-29.3c6.2-7.3,11.6-13.6,16.5-18.9c13.8,14.2,27.5,25.5,41,33.7c-25.3,9.3-59.3,11.8-56.2,30.6
				c5.7,25,38.5,10.6,95.8-8.3c8.7-2.9,17.4-4.8,25.9-6c0,0-0.5,0-1.3-0.1c2.4-0.3,4.7-0.7,7-1.2c32.9-7.1,75.5-46.8,105.4-78.9
				c33.3-35.7,61-72.9,64.7-81.9c3.2-7.9,6.9-22.2,10.4-36.1c2.9-11.3,6.4-25.1,8.4-29.3c0.3,0.2,0.5,0.5,0.8,0.8
				c2.1,2.7,6.5,12.7-0.7,46.2c-0.4,1.7,0.7,3.3,2.3,3.6c1.7,0.4,3.3-0.7,3.6-2.3c0.1-0.5,0.2-0.9,0.3-1.3c0.3-0.1,0.5-0.3,0.7-0.5
				c0.1-0.2,18-17.5,24.6-23.7c4.2-3.9,8.1-7.7,11.5-11c11.4-11,21.2-20.5,24.4-18.4c0,0.7-0.6,3.9-7.9,13.3
				c-6.4,8.3-16.5,19.7-30.9,34.6c-1.1,1.2-1.1,3.1,0.1,4.2s3.1,1.1,4.2-0.1c14.7-15.3,28.6-30.5,35.6-41.2c0.4-0.1,0.9-0.3,1.3-0.6
				c2-1.7,5.3-3.4,6.4-3c0.1,0,0.3,0.3,0.5,1c1.3,5.5-11.5,21.1-20,31.5c-11,13.4-17.1,21.2-16.4,26.2c0.2,1.4,0.9,2.6,2.1,3.4
				c5.3,3.5,13.8-1.8,27.4-10.9c5.5-3.7,14.7-9.8,17.7-10C1749.4,1029.3,1748.6,1031.5,1743.8,1035.9z"/>
			<path fill="#FFFFFF" d="M1105.8,1567.8c26.6-34.8,48.6-74.5,66-118.4c3.7-9.8,7.7-20.8,11.5-31.8c3.8-11.7,7.4-23.6,10.6-35.8
				c1.5-5.9,3-11.8,4.4-17.7c0-0.5,0.1-1,0.1-1.4c-10.4,11.1-21.6,22.5-33.4,34.2c-3.2,50.7-40.7,70.5-65.5,83.6
				c-9.6,5.1-8.5,13.9-5.9,27.8c2.7,14.2,6,31.8-10.8,44.8c-12.1,9.4-23.2,10.5-33.1,11.5c-14.7,1.5-27.5,2.7-41.4,32.1
				c-17.6,37.3-38.1,45.3-48.6,46.8c11.5,9.8,22.8,19,33.6,27.5C1036.5,1643.8,1074.3,1609,1105.8,1567.8z"/>
			<g>
				<path fill="#1A1A1A" d="M837,1511c-16.5,0-32.3-2.6-46.3-7.7c-2.2-0.8-4.2-1.6-6.1-2.4c-10.8-4.6-14-18.5-6.3-27.4l0,0
					c5-5.8,13.1-7.7,20.2-4.7c1.7,0.8,3.7,1.5,5.8,2.3c15.1,5.1,32.4,6.3,51.3,3.7c9.6-1.4,18.4,5.3,19.8,14.9s-5.3,18.4-14.9,19.8
					C852.5,1510.5,844.6,1511,837,1511z"/>
			</g>
			<g>
				<path fill="#1A1A1A" d="M1387,1414c-7.4,0-14.3-4.7-16.7-12.1c-3-9.2,2.1-19,11.2-22c0.5-0.2,27.7-9.4,50-31.7
					c6.8-6.8,17.9-6.8,24.7,0c6.8,6.8,6.8,17.9,0,24.7c-28.7,28.7-62.6,39.8-64,40.3C1390.6,1413.7,1388.8,1414,1387,1414z"/>
			</g>
			<g>
				<path fill="#FFFFFF" d="M530.6,964.2c-0.9,0-1.8-0.4-2.4-1.2c-47.1-64.8-117-109.8-117.7-110.2c-1.4-0.9-1.8-2.7-0.9-4.1
					c0.9-1.4,2.7-1.8,4.1-0.9c0.7,0.5,71.5,46.1,119.3,111.8c1,1.3,0.7,3.2-0.7,4.2C531.8,964,531.2,964.2,530.6,964.2z"/>
			</g>
			<g>
				<circle fill="#1A1A1A" cx="298.5" cy="925.8" r="34.9"/>
				<path fill="#1A1A1A" d="M298.5,965.1c-21.6,0-39.2-17.6-39.2-39.2s17.6-39.2,39.2-39.2s39.2,17.6,39.2,39.2
					S320.1,965.1,298.5,965.1z M298.5,895.3c-16.8,0-30.5,13.7-30.5,30.5s13.7,30.5,30.5,30.5s30.5-13.7,30.5-30.5
					S315.3,895.3,298.5,895.3z"/>
			</g>
			<g>
				<circle fill="#1A1A1A" cx="527.1" cy="864.4" r="15.1"/>
				<path fill="#1A1A1A" d="M527.1,881.4c-9.4,0-17-7.6-17-17s7.6-17,17-17s17,7.6,17,17S536.4,881.4,527.1,881.4z M527.1,851.2
					c-7.3,0-13.2,5.9-13.2,13.2s5.9,13.2,13.2,13.2s13.2-5.9,13.2-13.2S534.3,851.2,527.1,851.2z"/>
			</g>
			<g>
				<path fill="#1A1A1A" d="M1333.7,1435.8c-7.8,0-14.9-5.2-16.9-13.1c-2.4-9.4,3.2-18.9,12.5-21.3l7.1-1.8
					c9.4-2.4,18.9,3.2,21.3,12.5c2.4,9.4-3.2,18.9-12.5,21.3l-7.1,1.8C1336.6,1435.7,1335.1,1435.8,1333.7,1435.8z"/>
			</g>
			<g>
				<circle fill="#FECE2F" cx="626" cy="312" r="23"/>
			</g>
			<g>
				<circle fill="#FECE2F" cx="682.1" cy="291.4" r="11.3"/>
			</g>
			<g>
				<path fill="#1A1A1A" d="M673.1,1642.1L673.1,1642.1c-23-0.6-50.5-10.3-81.8-28.7c-23.2-13.6-40-27.3-40.1-27.4
					c-1.3-1-1.5-2.9-0.4-4.2c1-1.3,2.9-1.5,4.2-0.4c0.7,0.5,65.8,53.4,118.2,54.8c1.7,0,3,1.4,2.9,3.1
					C676.1,1640.9,674.7,1642.1,673.1,1642.1z"/>
			</g>
			<g>
				<path fill="#FFFFFF" d="M1144.9,1611.7c-13.5-17-26.6-31.1-34.7-39.6l-3.7,4.8c21,21.7,75.7,82.3,76.5,123.2
					c0,1.6,1.4,2.9,3,2.9c1.7,0,3-1.4,2.9-3C1188.5,1677.8,1173.7,1648.1,1144.9,1611.7z"/>
			</g>
		</g>
	</g>
</g>
<g id="Layer_2">
	<g>
		<g>
			<path fill="#FFFFFF" d="M1786.3,322.3c-9-8.3-30-13.1-47.3-2.1c-17.3,11-36.3,25.2-56.8,49.9c0,0-41.3-24.8-64.9-61.8
				s-30.9-47.8-45.9-81.4c0,0-26.1,69-0.9,130c0,0-89.6-49.8-114.8-73.7c0,0-9.6,41.8,1.9,84.8l33.8,5.8l-26.2,12
				c0,0,15.1,35.7,49.4,56.1s65.8,18.6,65.8,18.6l-116.2,77c0,0-27,12.6-19.9,22.2c7.2,9.5,32.5,38.6,75.7,24.6l70.9-68.7
				c0,0,53.7-2.1,77.4-6.7c23.7-4.7,41.3-20.9,52.8-40.6c11.4-19.7,22.1-39.7,21.8-53.7c-0.3-14,10.1-40,18.8-43.3
				c8.7-3.3,29-7,31-25.6S1786.3,322.3,1786.3,322.3z"/>
		</g>
		<g>
			<polygon fill="#FECE2F" points="1520.3,632.8 1732.3,613.2 1736.1,734.2 1524.1,752.8 			"/>
		</g>
		<g>
			<path fill="#FFFFFF" d="M1691.1,617l-170.8,15.8l2,64C1592.2,700.4,1659.9,646.2,1691.1,617z"/>
		</g>
		<g>
			<path fill="#1A1A1A" d="M1737.1,737c0.1,0,0.3-0.1,0.4-0.2c0,0,0,0,0.1,0c0.3-0.1,0.5-0.3,0.8-0.5c0.7-0.7,1-1.7,0.8-2.6
				l-3.8-120c0.1-0.4,0-0.8-0.1-1.2c-0.1-0.6-0.5-1.2-0.9-1.6c-0.1-0.1-0.2-0.1-0.3-0.2l-91.4-87c-1.2-1.1-2.9-1.1-4.1-0.1
				l-119.9,106.7c-0.1,0.1-0.2,0.2-0.4,0.3c-0.1,0.1-0.1,0.1-0.2,0.2c-0.5,0.6-0.8,1.3-0.8,2.1l3.8,120c0,0.1,0,0.2,0,0.3
				c0,0,0,0,0,0c0,0.4,0.2,0.7,0.4,1c0,0,0.1,0.1,0.1,0.1c0.1,0.1,0.1,0.2,0.2,0.3c0.2,0.2,0.3,0.4,0.5,0.6c0.4,0.3,0.8,0.5,1.3,0.5
				c0,0,0,0,0,0c0.2,0,0.3,0.1,0.5,0.1c0.1,0,0.1,0,0.3,0l212-18.6c0.1,0,0.2,0,0.2,0c0.1,0,0.1,0,0.2,0
				C1736.9,737.1,1737,737,1737.1,737z M1620.6,693.3c-4.8-3.3-18.8-12.8-34.3-21.9c-0.8-0.4-1.5-0.9-2.3-1.3l-54.8-35l193-17.9
				L1620.6,693.3z M1525,686.2c0.1-0.3,0.1-0.6,0.1-0.9l-0.2-5.1c0-2.6,0.1-5.9,0.5-9.3c0.6-4.9,2.4-13.2,7.5-14.1
				c9-1.6,27.6,6.9,45.7,17.1l-51.9,70.2L1525,686.2z M1583.8,677l35.2,22.5c0.5,0.3,1,0.5,1.6,0.5c0.6,0,1.2-0.2,1.7-0.5l40.3-30.3
				l66.5,62.5l-198.7,17.5L1583.8,677z M1668.1,666.2l18.3-14c1.3-0.9,2.7-1.9,4.1-2.8c15.5-10.1,27.6-14.3,33.9-11.9
				c3.2,1.1,5.1,4.1,5.8,9c0,0.2,0.1,0.3,0.1,0.5l2.5,80.1L1668.1,666.2z M1640.4,529.9l85,80.9L1529.3,629L1640.4,529.9z"/>
		</g>
		<g>
			<path fill="#1A1A1A" d="M1766,331c-5.1,0-9.2,4.1-9.2,9.2c0,5.1,4.1,9.2,9.2,9.2c5.1,0,9.2-4.1,9.2-9.2
				C1775.2,335.1,1771.1,331,1766,331z"/>
			<path fill="#1A1A1A" d="M1815.3,354.9l-19.8-17.8c0,0,0,0,0,0c-0.6-5.5-2.6-10.5-5.9-14.6c-7.8-9.7-21.8-13.3-39.5-10.3
				c-24,4.2-52.3,33.1-70.2,54.4l-4.1-2.4c-16.5-11.6-71.1-55.3-102.4-140.6c-0.4-1.2-1.5-2-2.8-2c-1.3,0-2.4,0.8-2.8,2
				c-0.3,0.8-6.8,19.4-10.4,45.2c-3,22.3-4.2,53.9,6.2,82.2c-55.3-30.7-105.3-69.2-106.1-69.8c-0.8-0.7-1.8-0.8-2.8-0.5
				c-0.9,0.3-1.7,1.1-1.9,2.1c-0.4,1.6-9.5,40.2,1.9,86.2c0.3,1.1,1.2,2,2.4,2.2l25.6,4.2l-18.6,7.8c-1.5,0.6-2.2,2.2-1.7,3.7
				c6,17.5,22.4,36.3,35.2,46.5c26.3,20.7,52.6,28,73.6,29.7L1445.2,547c-4.6,3-6.1,9.1-3.4,13.9c8.7,15.7,24.5,25.6,45.5,28.8
				c5.4,0.8,10.4,1.1,14.7,1.1c7.1,0,12.3-0.7,13.9-1c0,0,0,0,0,0c0.5,0,1.1-0.1,1.6-0.4l4.2-2.7c28.4-17.7,52.2-40.7,71-68.3
				c1.9,0,3.8,0,6,0.1c11,0,25-0.4,39.5-1.8l-0.7,4.5c-4.9,0-8.8-1.8-8.9-1.9c-1.5-0.8-3.3-0.2-4,1.3c-0.8,1.5-0.2,3.3,1.3,4
				c0.2,0.1,3.2,1.5,7.5,2.2c-7.1,2.6-14.1-0.7-14.5-0.9c-1.5-0.8-3.3-0.2-4,1.3c-0.8,1.5-0.2,3.3,1.3,4c0.3,0.2,5.2,2.6,11.5,2.6
				c4.7,0,10.1-1.3,14.8-5.8c0.5-0.4,0.8-0.9,0.9-1.5l9.2-9.7c0.6-0.6,1.1-1.4,1.5-2.2c15.5-2.6,30.2-6.7,40.5-13.4
				c35-22.3,48.2-72.6,57-105.8c2.6-10.1,6.5-15.6,10.9-19.1c0.3-0.1,0.4-0.2,0.4-0.2c0.4-0.2,0.7-0.5,1-0.8
				c3.2-2.1,6.7-3.4,10.2-4.7c6.9-2.6,14-5.2,18.2-14.2c0,0,0,0,0,0l20.5,3.8c0.1,0,0.3,0,0.5,0c1.1,0,2.1-0.7,2.8-1.6
				C1816.6,357.2,1816.3,355.8,1815.3,354.9z M1571.8,354.8c-12.6-28.5-11.4-62.1-8.3-85.2c2.1-15.2,5.3-28.1,7.6-35.9
				c19.6,49.3,46.5,83.7,66,104.2c8.2,8.6,15.8,15.5,22.1,20.8c-5.5,10.7-15.7,16.5-30.2,16.8c-10.8,0.3-20.3-2.6-21.5-2.9
				c-11.7-5-23.7-10.9-35.5-17.2C1572,355.2,1571.9,355,1571.8,354.8z M1787.2,352.8c-3.1,7.6-8.4,9.6-15.2,12.1
				c-3.8,1.4-8,3-12.1,5.8c-0.7,0.3-1.4,0.6-2.1,1c-6.6,3.3-26.6,13.4-40.6,22c-12.3,7.7-12.6,14.8-11.6,18.4c1.1,4,4.6,7.1,8.3,7.2
				c2.6,0.1,5.9-0.6,9.9-2.1c2.7-1.1,5.5-0.7,7.9,0.9c2.3,1.6,3.7,4.1,3.7,6.9l0,4.3c0,0,0,0.1,0,0.1c-8.8,25.8-21.9,52.4-44,66.6
				c-13.3,8.5-37,13.8-68.8,15.7c-22.2,1.2-41.3,0.3-44.4,0.1c-0.6-0.1-1.1-0.1-1.7,0.1c0,0,0,0,0,0c-0.1,0-0.2,0.1-0.3,0.1
				c-0.5,0.2-0.9,0.6-1.2,1.1l-12.7,14.8l-47.9,55.8c-7.2,1-49.9,5.3-67.3-25.9c-1.1-2-0.5-4.7,1.5-6l77.5-51.7
				c2.4,4.2,5.9,6.8,10.6,7.7c1.3,0.3,2.7,0.4,4.2,0.4c27.7,0,79.9-46.7,87.4-53.5c0.1,0,0.1,0,0.1-0.1c1.5-0.7,2.2-2.5,1.5-4
				c-0.2-0.4-0.5-0.8-0.9-1.1c-0.9-0.8-2.3-1-3.4-0.4c-0.5,0.3-1.1,0.5-1.7,0.8c-2.1,0.8-5.9,2.1-11,3.4c-12.7,2.8-28,3.6-31.7,3.8
				c-0.5-0.1-0.9-0.1-1.4,0c-19.7-0.3-46.3-5.5-73.3-25l22.1-4.6c1.6-0.4,2.6-2,2.3-3.6c-0.4-1.6-2-2.6-3.6-2.3l-27.1,5.7
				c-3.6-3-7.5-6.7-11.3-10.8l55.9-13c1.6-0.4,2.6-2,2.2-3.6c-0.4-1.6-2-2.6-3.6-2.2l-59,13.7c-6.2-7.5-11.8-15.9-15.2-24.1
				l25.7-10.7c1.2-0.5,2-1.8,1.8-3.1c-0.2-1.3-1.2-2.4-2.5-2.6l-34-5.6c-8.1-34.8-4.3-65.6-2.4-76.9c10.1,7.6,38.9,28.8,73.1,49.9
				c29.8,18.4,56.3,32.3,79.2,41.7c29.7,12.6,46.5,13.9,52.4,14c0.1,0,0.2,0,0.3,0c0.6,0,1.1,0.1,1.7,0.1c1.4,0,2.6-0.9,3-2.2
				c5.5-7.6,50.2-68.2,83.6-74c15.5-2.7,27.5,0.1,33.8,8.1C1790.4,333,1791.2,343.2,1787.2,352.8z"/>
		</g>
	</g>
</g>
</svg>
