<?xml version="1.0" encoding="utf-8"?>
<!-- Generator: Adobe Illustrator 21.0.0, SVG Export Plug-In . SVG Version: 6.00 Build 0)  -->
<svg version="1.1" baseProfile="tiny" id="Layer_3" xmlns="http://www.w3.org/2000/svg" xmlns:xlink="http://www.w3.org/1999/xlink"
	 x="0px" y="0px" viewBox="0 0 800 800" xml:space="preserve">
<g>
	<circle fill="#FECE2F" cx="400.7" cy="398" r="369.7"/>
</g>
<g>
	<path fill="#FFFFFF" d="M294.4,217.3h168c0,0-9-21-37-20s-40,16-58,4s-33.9-37-59.2-25.5C290.9,184,294.4,217.3,294.4,217.3z"/>
</g>
<g>
	<path fill="#FFFFFF" d="M454.9,280.8h74c0,0-1-11.5-13-10c-12,1.5-16.8,5.5-23,2c-4.6-2.6-22.8-20.2-33-9.3
		C454.4,269.3,454.9,280.8,454.9,280.8z"/>
</g>
<g>
	<path fill="#FFFFFF" d="M84.4,493.3h168c0,0-9-21-37-20s-40,16-58,4s-33.9-37-59.2-25.5C80.9,460,84.4,493.3,84.4,493.3z"/>
</g>
<g>
	<path fill="#FFFFFF" d="M528.6,589.6h123.5c0,0-1.7-11.5-21.7-10s-28.1,5.5-38.4,2c-7.7-2.6-38-20.2-55.1-9.3
		C527.8,578.1,528.6,589.6,528.6,589.6z"/>
</g>
<g>
	<g>
		<path fill="#FECE2F" d="M162.3,82.8c7.2,0.4,28.8-0.1,50.3,19.6s21.2,40.2,21.2,40.2s-15-12.7-73.7-12
			c-58.7,0.6-66.7,10.6-68.4,12c0,0-0.4-10.3,10.7-27.8S142,81.6,162.3,82.8z"/>
	</g>
	<g>
		<g>
			<path fill="#FFFFFF" d="M192.3,96.1c2.8,0.2,7.9,0.2,14.4,1.4c-19.4-14.7-37.8-14.3-44.4-14.7c-20.3-1.2-48.7,14.6-59.9,32.1
				c-11.1,17.5-10.7,27.8-10.7,27.8c1.3-1.1,6.7-7.7,38.4-10.6c0.7-1.2,1.5-2.5,2.3-3.8C143.6,110.7,172,95,192.3,96.1z"/>
		</g>
	</g>
	<g>
		<path fill="#1A1A1A" d="M162.8,159.8c-35.2,0-72.6-5.3-72.6-15.2c0-9.9,37.4-15.2,72.6-15.2s72.6,5.3,72.6,15.2
			C235.4,154.5,198,159.8,162.8,159.8z M162.8,131.9c-41.3,0-70.1,6.7-70.1,12.7s28.8,12.7,70.1,12.7s70.1-6.7,70.1-12.7
			S204.2,131.9,162.8,131.9z"/>
	</g>
	<path fill="#1A1A1A" d="M235.6,144.4c-2.6-17.3-11.3-33.1-24.6-44.7c-13.4-11.6-30.5-18-48.3-18c0,0,0,0,0,0c0,0,0,0,0,0
		c0,0,0,0,0,0c-17.8,0-34.9,6.4-48.3,18c-13.3,11.5-22,27.4-24.6,44.6c-0.1,0.5,0.2,1,0.7,1.3l53.7,149.6c0.2,0.5,0.6,0.8,1.2,0.8
		c0.1,0,0.3,0,0.4-0.1c0.6-0.2,1-0.9,0.7-1.6L94.7,150c6,3.5,17.6,6.1,31.6,7.7l27.2,121.6c0.1,0.6,0.6,1,1.2,1c0.1,0,0.2,0,0.3,0
		c0.7-0.1,1.1-0.8,0.9-1.5l-27-120.8c7.7,0.8,16,1.3,24.4,1.6l8.7,142.9c0,0.6,0.6,1.1,1.2,1.1c0,0,0,0,0.1,0c0.7,0,1.2-0.6,1.1-1.3
		l-8.7-142.7c2.4,0,4.7,0.1,7.1,0.1c4.6,0,9.3-0.1,13.9-0.3l-9.3,141.3c0,0.7,0.5,1.3,1.1,1.3c0,0,0.1,0,0.1,0
		c0.6,0,1.2-0.5,1.2-1.1l9.3-141.6c8.6-0.4,16.9-1.1,24.4-2.1l-29.2,143.4c-0.1,0.7,0.3,1.3,1,1.4c0.1,0,0.2,0,0.2,0
		c0.6,0,1.1-0.4,1.2-1l29.4-144.2c11.1-1.6,20.1-4,25-7l-48.5,151.6c-0.2,0.6,0.1,1.3,0.8,1.5c0.1,0,0.2,0.1,0.4,0.1
		c0.5,0,1-0.3,1.2-0.9l50.1-156.7C235.5,145.2,235.7,144.8,235.6,144.4z M167.7,129.6c-0.2-25-3-40.5-3.9-45.1
		c5.1,2,23.4,11.7,27.8,46.2C183.9,130.1,175.8,129.7,167.7,129.6z M161.3,84.9c0.9,4.2,3.7,19.6,3.9,44.6c-0.8,0-1.6,0-2.4,0
		c-3.2,0-6.4,0-9.5,0.1c-0.2-0.1-0.4-0.2-0.6-0.1c-0.2,0-0.4,0.1-0.5,0.2c-3.3,0.1-6.5,0.2-9.8,0.4
		C144.6,93.2,157.5,86.2,161.3,84.9z M194,131c-3.3-27.5-15.1-40-23.1-45.4c3.6,1,8.2,2.6,13.1,5.4c10.4,5.9,24.6,18.3,33.5,43.5
		C210.8,133,202.8,131.8,194,131z M139.9,130.3c-9.1,0.6-17.8,1.6-25.2,2.9c9.4-32,28.8-43.2,39.9-47.1
		C148.8,91.2,141.5,103,139.9,130.3z M209.5,101.6c11.6,10.1,19.6,23.7,22.9,38.5c-2.6-1.9-6.8-3.5-12.1-4.9
		c-9.1-27.1-24.1-40.2-35.2-46.4c-1.7-1-3.4-1.8-5-2.5C190.9,89,201,94.2,209.5,101.6z M116.1,101.6c9.6-8.4,21.3-13.9,33.7-16.2
		c-2.3,1-4.7,2.3-7.3,3.9c-9.9,6.2-23.3,19-30.4,44.5c0,0,0,0,0,0c-8.6,1.7-15.4,3.9-18.9,6.6C96.4,125.3,104.4,111.7,116.1,101.6z"
		/>
	<g>
		<g>
			
				<rect x="193.4" y="146.8" transform="matrix(0.1996 -0.9799 0.9799 0.1996 20.3855 321.0546)" fill="#FFFFFF" width="26.6" height="2.4"/>
		</g>
		<g>
			
				<rect x="162.6" y="146.3" transform="matrix(6.585672e-02 -0.9978 0.9978 6.585672e-02 19.7909 316.1402)" fill="#FFFFFF" width="32.4" height="2.4"/>
		</g>
		<g>
			
				<rect x="152.5" y="130.7" transform="matrix(0.9981 -6.091113e-02 6.091113e-02 0.9981 -8.6489 9.636)" fill="#FFFFFF" width="2.4" height="31.9"/>
		</g>
		<g>
			
				<rect x="123.9" y="133.1" transform="matrix(0.9759 -0.2184 0.2184 0.9759 -29.088 30.8795)" fill="#FFFFFF" width="2.4" height="27.8"/>
		</g>
	</g>
</g>
<g>
	<g>
		<path fill="#FECE2F" d="M331.3,296.3c9.3,0.5,37.2-0.2,64.8,25.3s27.3,51.8,27.3,51.8s-19.3-16.3-95-15.5
			c-75.7,0.8-86,13.7-88.2,15.5c0,0-0.5-13.3,13.8-35.8S305.1,294.8,331.3,296.3z"/>
	</g>
	<g>
		<path fill="#1A1A1A" d="M331.9,395.2c-24.7,0-47.8-1.9-65.3-5.3c-23.1-4.5-27.9-10.1-27.9-13.9s4.8-9.4,27.9-13.9
			c17.5-3.4,40.6-5.3,65.3-5.3s47.8,1.9,65.3,5.3c23.1,4.5,27.9,10.1,27.9,13.9s-4.8,9.4-27.9,13.9
			C379.8,393.3,356.6,395.2,331.9,395.2z M331.9,359.2c-24.5,0-47.5,1.9-64.8,5.2c-19.1,3.7-26,8.4-26,11.5
			c0,7.9,37.3,16.8,90.8,16.8c24.5,0,47.5-1.9,64.8-5.2c19.1-3.7,26-8.4,26-11.5C422.7,368,385.4,359.2,331.9,359.2z"/>
	</g>
	<g>
		<g>
			<path fill="#FFFFFF" d="M391.6,317.8c-26.2-21.5-51.6-21-60.4-21.5c-26.2-1.5-62.8,18.8-77.2,41.3
				c-14.3,22.5-13.8,35.8-13.8,35.8c1.7-1.5,8.6-9.8,48.9-13.6C293.5,350.2,317.7,304.8,391.6,317.8z"/>
		</g>
		<path fill="#1A1A1A" d="M397.2,362.2c-17.4-3.4-40.6-5.3-65.3-5.3s-47.8,1.9-65.3,5.3c-12.7,2.5-27.8,6.9-27.8,13.8
			s15.1,11.3,27.8,13.8c17.4,3.4,40.6,5.3,65.3,5.3s47.8-1.9,65.3-5.3c12.7-2.5,27.8-6.9,27.8-13.8S409.9,364.7,397.2,362.2z"/>
		<path fill="#1A1A1A" d="M393.9,318.4c-17.2-14.9-39.2-23.2-62-23.2c0,0,0,0,0,0c0,0,0,0,0,0c0,0,0,0,0,0
			c-22.8,0-44.9,8.2-62.1,23.2c-17,14.8-28.2,35.2-31.6,57.4c-0.1,0.7,0.4,1.3,1,1.4c0.7,0.1,1.3-0.4,1.4-1
			c3.2-21.6,14.2-41.4,30.7-55.9c13.2-11.5,29.4-18.9,46.5-21.5c-3.6,1.4-7.7,3.4-12.1,6.1c-12.7,8-29.9,24.4-39.1,57.2
			c-0.2,0.7,0.2,1.3,0.9,1.5c0.1,0,0.2,0,0.3,0c0.5,0,1-0.4,1.2-0.9c9-31.9,25.6-47.9,37.9-55.7c6-3.8,11.6-6,16-7.4
			c-7.6,5.8-18.1,20.5-20.3,58.3c0,0.7,0.5,1.3,1.2,1.3c0,0,0,0,0.1,0c0.6,0,1.2-0.5,1.2-1.2c2.9-49.7,20.6-58.1,25.1-59.4
			c1,4.9,4.8,25,5.1,58.4c0,0.7,0.6,1.2,1.2,1.2c0,0,0,0,0,0c0.7,0,1.2-0.6,1.2-1.2c-0.3-33.7-4.2-54.1-5.2-59
			c5.7,2.1,31.2,14.3,36.7,61.1c0.1,0.6,0.6,1.1,1.2,1.1c0,0,0.1,0,0.1,0c0.7-0.1,1.2-0.7,1.1-1.4c-1.8-15.6-7.2-37.3-22.1-52.3
			c-3.4-3.4-6.7-5.8-9.5-7.6c15.1,3.6,46.9,17,63.2,66c0.2,0.5,0.7,0.8,1.2,0.8c0.1,0,0.3,0,0.4-0.1c0.6-0.2,1-0.9,0.8-1.6
			c-11.7-35-31.1-51.9-45.3-59.9c-3.5-2-6.9-3.5-10-4.8c15.4,3.2,29.8,10.2,41.9,20.7c16.6,14.4,27.5,34.3,30.7,55.9
			c0.1,0.6,0.6,1.1,1.2,1.1c0.1,0,0.1,0,0.2,0c0.7-0.1,1.1-0.7,1-1.4C422.1,353.5,410.9,333.2,393.9,318.4z"/>
	</g>
	<g>
		<g>
			<g>
				<path fill="#1A1A1A" d="M309.4,570.9c-0.5,0-1-0.3-1.2-0.8l-69.5-193.7c-0.2-0.6,0.1-1.3,0.7-1.6c0.6-0.2,1.3,0.1,1.6,0.7
					l69.5,193.7c0.2,0.6-0.1,1.3-0.7,1.6C309.7,570.8,309.6,570.9,309.4,570.9z"/>
			</g>
			<g>
				<path fill="#1A1A1A" d="M359.1,579.9c-0.1,0-0.2,0-0.4-0.1c-0.6-0.2-1-0.9-0.8-1.5l64.8-202.7c0.2-0.6,0.9-1,1.5-0.8
					c0.6,0.2,1,0.9,0.8,1.5L360.3,579C360.1,579.5,359.6,579.9,359.1,579.9z"/>
			</g>
			<g>
				<path fill="#1A1A1A" d="M348.4,578.5c-0.1,0-0.2,0-0.2,0c-0.7-0.1-1.1-0.8-1-1.4l43.5-213.7c0.1-0.7,0.8-1.1,1.4-1
					c0.7,0.1,1.1,0.8,1,1.4l-43.5,213.7C349.5,578.1,349,578.5,348.4,578.5z"/>
			</g>
			<g>
				<path fill="#1A1A1A" d="M339.4,578.5C339.4,578.5,339.4,578.5,339.4,578.5c-0.8,0-1.3-0.6-1.2-1.3l14.4-218.4
					c0-0.7,0.6-1.2,1.3-1.1c0.7,0,1.2,0.6,1.1,1.3l-14.4,218.4C340.6,578,340.1,578.5,339.4,578.5z"/>
			</g>
			<g>
				<path fill="#1A1A1A" d="M332.4,580.5c-0.6,0-1.2-0.5-1.2-1.1l-13.5-221.2c0-0.7,0.5-1.3,1.1-1.3c0.7-0.1,1.3,0.5,1.3,1.1
					l13.5,221.2C333.7,579.9,333.2,580.5,332.4,580.5C332.5,580.5,332.5,580.5,332.4,580.5z"/>
			</g>
			<g>
				<path fill="#1A1A1A" d="M321.4,550.5c-0.6,0-1.1-0.4-1.2-1l-42-187.7c-0.1-0.7,0.3-1.3,0.9-1.5c0.7-0.2,1.3,0.3,1.5,0.9
					l42,187.7c0.1,0.7-0.3,1.3-0.9,1.5C321.6,550.5,321.5,550.5,321.4,550.5z"/>
			</g>
		</g>
		<g>
			<g>
				<path fill="#1A1A1A" d="M309.4,570.9c-0.5,0-1-0.3-1.2-0.8l-69.5-193.7c-0.2-0.6,0.1-1.3,0.7-1.6c0.6-0.2,1.3,0.1,1.6,0.7
					l69.5,193.7c0.2,0.6-0.1,1.3-0.7,1.6C309.7,570.8,309.6,570.9,309.4,570.9z"/>
			</g>
			<g>
				<path fill="#1A1A1A" d="M359.1,579.9c-0.1,0-0.2,0-0.4-0.1c-0.6-0.2-1-0.9-0.8-1.5l64.8-202.7c0.2-0.6,0.9-1,1.5-0.8
					c0.6,0.2,1,0.9,0.8,1.5L360.3,579C360.1,579.5,359.6,579.9,359.1,579.9z"/>
			</g>
			<g>
				
					<rect x="372.3" y="378.4" transform="matrix(0.1996 -0.9799 0.9799 0.1996 -60.9195 684.6914)" fill="#FFFFFF" width="32.7" height="2.4"/>
			</g>
			<g>
				
					<rect x="330.5" y="379.5" transform="matrix(6.545930e-02 -0.9979 0.9979 6.545930e-02 -50.6302 707.4343)" fill="#FFFFFF" width="43.8" height="2.4"/>
			</g>
			<g>
				
					<rect x="318.9" y="358.1" transform="matrix(0.9981 -6.091922e-02 6.091922e-02 0.9981 -22.4423 20.2057)" fill="#FFFFFF" width="2.4" height="40.1"/>
			</g>
			<g>
				
					<rect x="282.2" y="361.2" transform="matrix(0.9759 -0.2184 0.2184 0.9759 -76.0051 71.0484)" fill="#FFFFFF" width="2.4" height="36.3"/>
			</g>
		</g>
	</g>
</g>
<g>
	<g>
		<path fill="#FECE2F" d="M203.8,319c0,0,5.2,16-0.5,28.6s-17.2,18.2-27.8,19.4s-24.4,0.1-33.1-10.9s-5.6-29-5.6-29l15.8-0.1
			l20.6-0.6l24.5-4.2l4.4-6.1L203.8,319z"/>
	</g>
	<g>
		<g>
			<path fill="#FECE2F" d="M203.8,319c0,0,5.2,16-0.5,28.6s-17.2,18.2-27.8,19.4s-24.4,0.1-33.1-10.9s-5.6-29-5.6-29l15.8-0.1
				l20.6-0.6l24.5-4.2l4.4-6.1L203.8,319z"/>
		</g>
		<g>
			<path fill="#FFFFFF" d="M167.2,362.1c-22.8,0-28.8-14.2-28.8-14.2l-0.2,0.3c0.9,2.8,2.3,5.5,4.2,7.8c8.8,11,22.6,12,33.1,10.9
				s22-6.8,27.8-19.4c2.1-4.5,2.7-9.4,2.7-13.9c-0.2-0.4-0.3-0.6-0.3-0.6C201.9,345.4,189.9,362.1,167.2,362.1z"/>
		</g>
		<g>
			<path fill="#FECE2F" d="M163.4,281.6c0,0-10.2-4.5-20.5-0.5s-13.4,13-12.2,22.8s13.1,14.4,13.1,14.4s10,5.6,25.4,2.8
				c1.4-0.2,12.8,2.1,20.9-4c0,0,8.6-2.4,12.4-8.6s5.8-19.8-4.1-26.5s-25.4-1.1-25.4-1.1S165.7,280.9,163.4,281.6z"/>
		</g>
		<g>
			<path fill="#FFFFFF" d="M200.1,283.4c-0.5-0.5-1.1-0.9-1.8-1.4c-9.9-6.8-25.4-1.1-25.4-1.1s-1.8,0-3.9,0.1
				c-1.4,0.4-2.9,0.5-4.4,0.4c-0.5,0.1-0.9,0.2-1.2,0.3c0,0-1-0.4-2.7-0.9c-0.7-0.2-1.5-0.4-2.2-0.5c-3.9-0.8-9.8-1.3-15.7,1
				c-6.3,2.5-9.9,6.8-11.5,12.1c1.7-1.1,3-3.1,4.8-4.2c2.9-1.7,6.7-2.2,10-1.7c1.1,0.2,2.1,0.4,3.2,0.4c0.5,0,0.9-0.1,1.4-0.2
				c-3,2.2-6.2,5.7-7.5,10.8c-2.7,10.3,1.5,19.5,1.5,19.5c1.6-20.3,8.8-27.5,13.2-30.1c1.5-0.9,3.3-1.1,5-0.8c0,0,0.1,0,0.1,0
				c2.2,0.5,4.1,1.9,5.1,4c2.7,5.5,5.4,16.1-2,30.6l3.1-0.5c0,0,6.6-6.8,6.9-18c0.1-4.1-0.7-7.6-1.7-10.3c0.1,0.1,0.1,0.1,0.2,0.2
				c0,0,0,0,0-0.1c0.4-4.1,5.5-5.8,8.5-3c2.3,2.2,4.6,5.9,4.6,11.9c0,12.2-3.8,18.8-3.8,18.8s4.2,1.3,6.1-3.5
				c1.9-4.8,3-12.2,0.5-20.2c-0.9-2.9-2.3-5.3-3.8-7.4c0.7,0.8,1.4,1.7,2.1,2.5c-0.6-2.7-0.3-5.9,1.8-7.8
				C193.1,282.1,196.7,282.4,200.1,283.4z"/>
		</g>
		<g>
			<path fill="#FECE2F" d="M157.4,279.8c0,0,3.3-20.5,10.8-21.5c0,0,4.7-0.2,2.7,6.2c-1.2,3.7-3.8,10.7-0.8,15.5l-5.7,1.5
				L157.4,279.8z"/>
		</g>
		<g>
			<path fill="#FFFFFF" d="M168.3,258.3c-5.1,0.7-8.3,10.5-9.8,16.6c5.5,0.7,8.7-1.2,10.5-3c0.4-2.9,1.4-5.6,2-7.4
				c0.1-0.4,0.2-0.8,0.3-1.2l0.1-2.4C171,258.2,168.3,258.3,168.3,258.3z"/>
		</g>
		<path fill="#1A1A1A" d="M202.1,310.9c3.6-4.5,4.6-9.1,4.8-12.2c0.4-7.7-3.4-15.1-9.5-18.4c-11.7-6.4-22.3-1.2-22.8-1
			c-0.2,0.1-0.3,0.2-0.4,0.4c-1.1-0.2-2-0.2-3-0.1c0,0,0-0.1,0-0.1c-2.5-4-0.5-10,0.7-13.6l0.3-0.9c0.9-2.7,0.7-4.8-0.3-6.2
			c-1-1.4-2.7-1.6-3.6-1.6c0,0-0.1,0-0.1,0c-3.6,0.5-6.7,4.5-9.2,11.9c-1.4,4.1-2.2,8.1-2.5,9.8c-0.4,0-0.8-0.1-1.3-0.1
			c-8.4-0.5-15.2,1.6-19.5,6.1c-5.6,5.8-8,14-6,21.2c1.2,4.6,4,8.4,8.1,10.9c-0.1,0.1-0.2,0.3-0.2,0.5c0,0,0,0,0,0
			c-1.4,2.9-4,10.5-1.6,23.9c0.1,1,0.3,2.1,0.5,3.3c0,0.2,0.1,0.3,0.2,0.4c0.2,1.1,0.5,2.1,0.8,3.3c3.6,13.5,14.3,20.3,31.8,20.3
			c1.2,0,2.5,0,3.8-0.1c16.3-0.9,27.1-8.4,32.1-22.5C210.3,330.9,203.3,313.7,202.1,310.9z M196.2,282.4c5.2,2.8,8.6,9.5,8.2,16.1
			c-0.2,3.2-1.3,8.1-5.9,12.6l-6.3,4.7c-0.2,0.1-0.4,0.3-0.7,0.4c2.6-6.6,3-19.2-5.1-29c-2.9-3.5-5.8-5.5-8.5-6.6
			C181.3,279.5,188.6,278.2,196.2,282.4z M184.5,288.8c9.2,11.1,6.2,26.5,3.1,29.3c-0.3,0.3-0.8,0.5-1.3,0.8
			c-6.3,1.8-15.3,1.9-15.4,1.9c0,0-0.1,0-0.1,0c0,0,0,0,0,0c5.4-8.1,7.5-16,6.3-23.4c-1.3-7.7-6-12.8-8.5-15
			C171.5,281.4,178,280.9,184.5,288.8z M167.7,320.9c-2.1,0.4-12,2-22.9-3.4c-0.7-2.8-3.3-16.3,3.1-25.4c3.6-5.2,9.6-8.1,17.8-8.8
			c1.5,1.1,7.4,6.2,8.9,14.6C175.9,305,173.5,312.7,167.7,320.9z M168.4,259.5c0.2,0,1,0.1,1.5,0.7c0.5,0.7,0.5,2.1-0.1,3.9
			l-0.3,0.9c-1.2,3.8-3.3,10-0.9,14.8c-1.2,0.3-2.1,0.6-2.6,0.9c-1.1-0.3-3.7-1.1-7.2-1.6C160.2,271.5,163.8,260.2,168.4,259.5z
			 M131.9,305.3c-1.7-6.4,0.4-13.6,5.4-18.9c4.1-4.2,9.9-5.4,15.3-5.4c2.6,0,5,0.3,7.1,0.6c-6,1.5-10.6,4.5-13.8,8.9
			c-6.3,8.9-4.8,20.9-3.9,25.8C136.8,314.3,133.2,310.5,131.9,305.3z M202.6,345.2c-4.6,13-14.7,20.1-29.9,20.9
			c-18.7,1-29.5-5-33.1-18.4c-0.5-2-1-3.9-1.3-5.8c-0.1-0.5-0.1-1-0.2-1.5c-0.1-4.2,1.5-7.4,3.6-8.9c1.6-1.2,3.4-1.3,5-0.3
			c4.1,2.6,5.3,5.6,7,9.8c0.3,0.9,0.7,1.7,1.1,2.7c0.7,1.6,1.9,2.6,3.5,3c0.4,0.1,0.7,0.1,1.1,0.1c5.2,0,12.4-6.4,16.4-10.3
			c6.1-6.1,11.9-6.7,17-7.3c1.5-0.2,2.9-0.3,4.2-0.6c2.6-0.5,4.5-1.8,5.7-3.7c0.3-0.5,0.6-1,0.8-1.5
			C204.7,329.7,205.2,337.8,202.6,345.2z"/>
	</g>
</g>
<g>
	<g>
		<g>
			<ellipse fill="#FFFFFF" cx="618.9" cy="459.6" rx="95.5" ry="15"/>
		</g>
		<g>
			<path fill="#FECE2F" d="M618.9,444.6c-22,0-42.3,1.2-58.4,3.1c-6.8,2.1-10.6,4.4-10.6,6.9c0,8.3,42.8,15,95.5,15
				c22,0,42.3-1.2,58.4-3.1c6.8-2.1,10.6-4.4,10.6-6.9C714.4,451.4,671.7,444.6,618.9,444.6z"/>
		</g>
		<g>
			<path fill="#1A1A1A" d="M618.9,475.9c-25.6,0-49.6-1.6-67.7-4.4c-19.2-3-29-7-29-11.8s9.8-8.8,29-11.8
				c18.1-2.8,42.1-4.4,67.7-4.4s49.6,1.6,67.7,4.4c19.2,3,29,7,29,11.8s-9.8,8.8-29,11.8C668.5,474.3,644.5,475.9,618.9,475.9z
				 M618.9,445.9c-60.7,0-94.3,8.1-94.3,13.8s33.6,13.8,94.3,13.8s94.3-8.1,94.3-13.8S679.6,445.9,618.9,445.9z"/>
		</g>
	</g>
	<g>
		<g>
			<path fill="#FECE2F" d="M608.8,397.6c11-2,25.3,5.7,26.7,7.7c0,0,11-0.5,16.3-5.7s7.5-8.7,7.5-8.7s0.7-7.7,4-9.3s7,0.2,5.3,5.5
				l2.3,0.7c0,0,6.3,1.3,4.7,4.2c-1.7,2.8-6.5,3-6.5,3s-12.7,7-15.7,18.5c0,0,9.7-4.3,15-4c5.3,0.3,12.8-0.5,16.2-2.8
				c3.3-2.3,9.3-6.5,9.7-9.3c0.3-2.8,2.2-11.2,6.5-11.3c4.3-0.2,7.5,3,6.3,8.5c0,0,6.8,0,5.2,6.7s-13.5,2.5-15,3.5
				s-13.3,9.8-14,12.8s-5.5,20.5-5.5,20.5s-4.2,13.8-10.7,16c-6.5,2.2-49,8-49,8l-10.8,0.2l-22.2,0.5c0,0-14.3-0.7-18-10.3
				c-3.7-9.7,3-25.5,3-25.5s7-12.8,16.2-20.2S608.8,397.6,608.8,397.6z"/>
		</g>
		<g>
			<g>
				<path fill="#FFFFFF" d="M625.8,400.3l-0.2-0.4c-5.1-1.9-11.3-3.3-16.8-2.3c0,0-13.3,1.7-22.5,9c-9.2,7.3-16.2,20.2-16.2,20.2
					s-6.7,15.8-3,25.5c3.7,9.7,18,10.3,18,10.3l12.7-0.3l0.3-0.4c0,0-37-9-13.3-44.7C599.5,395,625.8,400.3,625.8,400.3z"/>
			</g>
			<g>
				<path fill="#FFFFFF" d="M670.9,387.8l-2.3-0.7c1.7-5.3-2-7.2-5.3-5.5c-3.3,1.7-4,9.3-4,9.3s-2.2,3.5-7.5,8.7
					c-0.6,0.5-1.2,1-1.8,1.4c0.3,0.5,0.5,0.9,0.8,1.4c0.7,0.6,1.3,1.3,1.9,1.9c1.3,0.7,2.6,1.5,3.7,2.5c4.8-7.6,12.7-12,12.7-12
					s4.8-0.2,6.5-3C677.3,389.1,670.9,387.8,670.9,387.8z"/>
			</g>
			<g>
				<path fill="#FFFFFF" d="M707.1,394.5c1.2-5.5-2-8.7-6.3-8.5c-4.3,0.2-6.2,8.5-6.5,11.3c-0.3,2.7-5.8,6.6-9.2,9
					c1.6,1.3,3.1,2.8,4.3,4.5c3.4-2.9,7.1-5.6,7.9-6.1c1.5-1,13.3,3.2,15-3.5C713.9,394.5,707.1,394.5,707.1,394.5z"/>
			</g>
			<g>
				<path fill="#FFFFFF" d="M594.9,441.4c1.8,2.9,3.5,6.5,2.3,9.7c-0.3,0.8-0.7,1.5-1.4,2c-1.2,0.8-2.9,0.6-4.3,0.1
					c-5.1-2-10.5-9.5-8.5-15.1C585.7,430.2,592.6,437.6,594.9,441.4z"/>
			</g>
			<g>
				<path fill="#FFFFFF" d="M596.4,413.1c-0.4,0.7,0,1.6,0.4,2.3c0.4,0.6,0.7,1.3,1.1,1.9c0.5,0.8,1,1.5,1.7,2.2
					c1.2,1.2,2.7,2.1,4.4,2.2C611.2,422,599,407.5,596.4,413.1z"/>
			</g>
			<path fill="#1A1A1A" d="M711.3,394.7c-0.8-0.6-1.8-0.9-2.8-1c0.2-1.6,0.1-4.1-1.3-6c-1.1-1.5-2.9-2.3-5.2-2.4
				c-7.1-0.3-8,6.5-8.5,10.1c-0.1,0.6-0.2,1.2-0.3,1.7c-0.6,2.8-8.2,8.6-13.4,10.1c-1.1,0.3-3,0.4-5.3,0.5
				c-6.9,0.4-17.8,0.9-26.4,8.2c-2.8-3.7-17.9-21.7-40-19.5c-11.4,1.1-23,7.8-31.8,18.4c-8.3,10-12.8,21.8-12,31.6
				c1.3,15.1,14,17.6,29.6,17.6c3.8,0,7.7-0.1,11.6-0.3c2-0.1,4-0.1,6-0.2c25-0.7,40.9-1.5,51.4-5.8c8.7-3.5,12.6-10.2,14.6-16.8
				c0.3-0.9,0.5-1.5,0.5-1.6c0-0.1,0-0.1,0-0.2c0.3-1.2,0.6-2.5,0.8-3.7l0.1-0.4c1.4-7.4,3.2-16.5,9-21.7c0.6-0.5,1.2-1,1.7-1.5
				c0.2-0.1,0.3-0.2,0.4-0.3c0,0,0.1-0.1,0.1-0.1c4.7-4.2,6.1-5.4,8.4-5.2l0.7,0.1c3.6,0.3,11.1,0.9,13.5-4.8
				C714.1,398.9,713.4,396.2,711.3,394.7z M686.6,411.7c-6.5,5.7-8.3,15.3-9.8,23.1l-0.1,0.4c-0.2,1.2-0.5,2.5-0.8,3.7
				c-0.4,1-3.2,7.9-7.9,10c-1.8,0.8-3.6,0.7-5.6-0.1c-1.7-0.8-2.5-2-3.3-3.5c-1.2-2.1-2.7-4.5-6.8-5.1c-5.8-0.8-9.4,3-14.9,8.7
				c-1.2,1.3-2.6,2.7-4.1,4.2c-7,6.9-16,7.9-17.2,8l-0.2,0c-0.1,0-0.1,0-0.2,0.1c-1.3,0-2.6,0.1-3.9,0.1c-2,0.1-4.1,0.1-6.1,0.2
				c-20.8,0.8-37.3,1.4-38.7-15.1c-1.6-18.8,18.3-45.1,41.6-47.3c3.8-0.4,7.3-0.1,10.6,0.6c0,0,0,0,0.1,0c0,0,1.2,0.4,3.1,1.2
				c3.4,1.7,8.3,5.5,7.9,13.3c-0.3,4.9-1.9,9.3-3.4,13.1c-1.8,4.7-3.2,8.3-1.3,11.1c1.1,1.6,2.7,2.4,4.6,2.4c0.2,0,0.5,0,0.7,0
				c4.2-0.5,8.5-4.6,10.9-10.6c2.8-6.8,4.7-8.8,4.7-8.8c0,0,0.1-0.1,0.1-0.1l0.3-0.3c8.2-9.6,20.5-10.2,27.9-10.6
				c2.5-0.1,4.5-0.2,5.8-0.6c1.3-0.4,2.8-1,4.3-1.9c0.5,0.9,1.3,2.3,2.4,3.3C687.1,411.3,686.9,411.5,686.6,411.7z M710.7,400.7
				c-1.7,4.1-7.8,3.6-11,3.3l-0.7-0.1c-3.3-0.3-5.4,1.5-9.8,5.5c-1-0.8-1.7-2.1-2.2-2.9c4.1-2.6,8.1-6.1,8.6-8.9
				c0.1-0.5,0.2-1.2,0.3-1.9c0.6-4.7,1.4-8.2,6-8c1.5,0.1,2.6,0.5,3.3,1.5c1.1,1.4,0.9,3.7,0.8,4.7c-1.1,0.3-2.2,0.9-3.2,1.8
				c-0.5,0.5-0.5,1.2-0.1,1.7c0.5,0.5,1.2,0.5,1.7,0.1c1.9-1.8,4.1-1.6,5.4-0.7C711.1,397.6,711.4,399,710.7,400.7z"/>
			<path fill="#1A1A1A" d="M675,387.5c-1.6-1.2-3.3-1.3-4.7-1.1c0.3-1.5,0-2.6-0.2-3.3c-0.5-1.5-1.5-2.6-2.7-3
				c-1.3-0.5-3.2-0.2-4.7,0.6c-1.6,0.9-2.8,2.5-3.1,4.4c-0.1,0.4-0.1,0.7-0.2,1.1c-0.6,3.2-1.1,6.2-7.2,11.5
				c-6.6,5.8-16.5,6.7-16.5,6.7c-0.7,0.1-1.2,0.7-1.1,1.3c0.1,0.7,0.6,1.2,1.3,1.1c0.4,0,7.6-0.7,14.1-4.6c0.5,1.4,1.8,3.8,4.4,4.7
				c-1.4,2.2-2.5,4.5-3.1,7c-0.2,0.7,0.2,1.3,0.9,1.5c0.1,0,0.2,0,0.3,0c0.6,0,1.1-0.4,1.2-0.9c2.5-10.2,14.1-17.8,17.7-18.6
				c3-0.7,5.1-2.3,5.5-4.3C677.2,390.2,676.6,388.7,675,387.5z M674.5,391.2c-0.2,0.8-1.4,1.9-3.6,2.4c-3.1,0.7-10.1,5-14.9,11.2
				c-2.7-0.3-3.7-3.2-3.8-3.9c0.6-0.4,1.1-0.9,1.7-1.3c6.7-5.8,7.3-9.4,7.9-12.9c0.1-0.3,0.1-0.7,0.2-1c0.3-1.6,1.2-2.4,2-2.8
				c1-0.6,2.1-0.6,2.7-0.4c0.4,0.1,0.9,0.7,1.2,1.5c0.2,0.7,0.5,2.2-0.7,4.1c-0.3,0.5-0.2,1.1,0.2,1.5c0.4,0.4,1.1,0.5,1.5,0.1
				c0.1-0.1,2.6-1.7,4.7-0.2C674.1,389.9,674.7,390.5,674.5,391.2z"/>
		</g>
	</g>
	<path fill="#1A1A1A" d="M620.6,350.2c-0.5-0.4-1.3-0.4-1.7,0.1l-95.6,106.5c-0.1,0.1-0.2,0.2-0.2,0.3c-0.8,1.7-0.8,4.9,2.6,6.6
		c0.2,0.1,0.4,0.1,0.6,0.1c0.4,0,0.7-0.2,0.9-0.4l93.6-111.5C621.1,351.4,621.1,350.6,620.6,350.2z"/>
	<path fill="#1A1A1A" d="M714.6,457.1c-0.1-0.1-0.1-0.2-0.2-0.3l-95.6-106.5c-0.4-0.5-1.2-0.5-1.7-0.1c-0.5,0.4-0.6,1.2-0.1,1.7
		l93.6,111.5c0.2,0.3,0.6,0.4,0.9,0.4c0.2,0,0.4,0,0.6-0.1C715.4,462.1,715.4,458.9,714.6,457.1z"/>
	<g>
		<circle fill="#FFFFFF" cx="619.8" cy="351.1" r="13.5"/>
	</g>
	<g>
		<path fill="#1A1A1A" d="M619.8,365.9c-8.1,0-14.7-6.6-14.7-14.7s6.6-14.7,14.7-14.7s14.7,6.6,14.7,14.7S627.9,365.9,619.8,365.9z
			 M619.8,338.9c-6.8,0-12.3,5.5-12.3,12.3s5.5,12.3,12.3,12.3s12.3-5.5,12.3-12.3S626.5,338.9,619.8,338.9z"/>
	</g>
	<g>
		<circle fill="#1A1A1A" cx="619.8" cy="351.1" r="6.9"/>
	</g>
</g>
<g>
	<g>
		<path fill="#FECE2F" d="M618.1,155.4c6.4,0.4,25.6-0.1,44.6,17.4s18.8,35.7,18.8,35.7s-13.3-11.2-65.4-10.7s-59.2,9.4-60.7,10.7
			c0,0-0.3-9.2,9.5-24.7C574.8,168.4,600,154.4,618.1,155.4z"/>
	</g>
	<g>
		<g>
			<path fill="#FFFFFF" d="M632.6,167.9c5.3,0.3,19.6,0,35.2,10.1c-1.5-1.7-3.2-3.5-5.1-5.2c-19-17.5-38.2-17.1-44.6-17.4
				c-18-1-43.2,13-53.1,28.4c-9.9,15.5-9.5,24.7-9.5,24.7c1-0.8,4.4-4.9,21.4-7.8c0.8-1.4,1.6-2.8,2.6-4.4
				C589.3,180.9,614.5,166.9,632.6,167.9z"/>
		</g>
	</g>
	<g>
		<path fill="#1A1A1A" d="M618.5,223.8c-31.3,0-64.5-4.8-64.5-13.6s33.3-13.6,64.5-13.6s64.5,4.8,64.5,13.6S649.8,223.8,618.5,223.8
			z M618.5,199.1c-16.8,0-32.6,1.3-44.5,3.6c-13,2.5-17.5,5.6-17.5,7.5s4.6,5,17.5,7.5c11.9,2.3,27.7,3.6,44.5,3.6
			s32.6-1.3,44.5-3.6c13-2.5,17.5-5.6,17.5-7.5s-4.6-5-17.5-7.5C651.2,200.3,635.3,199.1,618.5,199.1z"/>
	</g>
	<path fill="#1A1A1A" d="M683.2,210c-2.3-15.4-10.1-29.5-21.8-39.7c-11.9-10.3-27.1-16-42.9-16c0,0,0,0,0,0c0,0,0,0,0,0c0,0,0,0,0,0
		c0,0,0,0,0,0c0,0,0,0,0,0c-15.8,0-31,5.7-42.9,16c-11.8,10.2-19.5,24.3-21.8,39.7c-0.1,0.5,0.2,1,0.6,1.2L605.9,346
		c0.2,0.5,0.7,0.8,1.1,0.8c0.1,0,0.3,0,0.4-0.1c0.6-0.2,0.9-0.9,0.7-1.6l-49.7-129.8c5.4,2.9,15.2,5.1,27,6.5L609.4,341
		c0.1,0.6,0.6,1,1.2,1c0.1,0,0.2,0,0.2,0c0.7-0.1,1.1-0.8,1-1.4L588,222.1c6.7,0.7,14,1.2,21.4,1.4l4.8,114.5c0,0.7,0.6,1.2,1.2,1.2
		c0,0,0,0,0.1,0c0.7,0,1.2-0.6,1.2-1.3l-4.8-114.4c2.2,0,4.4,0.1,6.6,0.1c3.9,0,7.8-0.1,11.7-0.2l-9.6,114c-0.1,0.7,0.4,1.3,1.1,1.3
		c0,0,0.1,0,0.1,0c0.6,0,1.2-0.5,1.2-1.1l9.7-114.3c7.5-0.3,14.8-1,21.4-1.8l-26.8,118.5c-0.1,0.7,0.3,1.3,0.9,1.5
		c0.1,0,0.2,0,0.3,0c0.6,0,1.1-0.4,1.2-1l27-119.4c9.6-1.4,17.5-3.4,22-5.9l-47.1,131c-0.2,0.6,0.1,1.3,0.7,1.6
		c0.1,0,0.3,0.1,0.4,0.1c0.5,0,1-0.3,1.2-0.8l48.9-136C683.1,210.8,683.3,210.4,683.2,210z M556.9,206.1c2.9-13.1,10-25.1,20.2-34
		c8.2-7.1,18.1-12,28.6-14.1c-1.7,0.8-3.5,1.8-5.4,2.9c-8.8,5.5-20.7,16.9-27.1,39.5C565.9,201.9,560.1,203.8,556.9,206.1z M576,200
		c8.2-27.6,24.7-37.7,34.6-41.3c-5.1,4.8-11.2,15.4-12.6,38.7C590.1,198,582.5,198.8,576,200z M618.5,196.8c-2.8,0-5.6,0-8.4,0.1
		c-0.2-0.1-0.4-0.2-0.6-0.1c-0.2,0-0.4,0.1-0.6,0.2c-2.8,0.1-5.7,0.2-8.4,0.4c2-32.2,13.1-38.6,16.6-39.8c0.8,3.9,3.2,17.4,3.4,39.3
		C619.8,196.8,619.2,196.8,618.5,196.8z M622.9,196.8c-0.2-21.7-2.6-35.3-3.4-39.6c2,0.8,5.8,2.8,9.9,6.9
		c5.3,5.4,12.1,15.6,14.4,33.7C637.1,197.2,630,196.9,622.9,196.8z M646.3,198c-2.9-23.6-12.8-34.8-19.9-39.8
		c3.1,0.9,6.8,2.3,10.9,4.6c9.2,5.2,21.7,16.1,29.5,38.3C660.9,199.8,653.9,198.7,646.3,198z M634.7,158.8c9.2,2.5,17.8,7,25,13.3
		C670,181,677.1,192.9,680,206c-2.3-1.6-5.9-3-10.4-4.2C661,176.1,646.2,164.3,634.7,158.8z"/>
	<polygon fill="#FFFFFF" points="658.6,202.1 653.4,224.5 655.8,225.1 661,202.6 	"/>
	<polygon fill="#FFFFFF" points="632.4,199.3 630.5,220.7 630.1,225.2 632.5,225.4 634.8,199.6 	"/>
	<polygon fill="#FFFFFF" points="610.9,198.9 608.5,199 609.3,221.2 609.5,225.7 611.9,225.6 	"/>
	<polygon fill="#FFFFFF" points="583.7,200.8 581.3,201.3 585.2,220.8 586.1,225 588.5,224.5 	"/>
</g>
<g>
	<g>
		<path fill="#FECE2F" d="M318.2,568.6c0,0,5.1-9.2,4.1-13s-2.5-8.5-8.8-12s-12.5-7.8-9.5-12.5s13-4.1,22.4,0.9s18.8,19.5,20.5,35.2
			L328.1,580L318.2,568.6z"/>
	</g>
	<path fill="#FFFFFF" d="M325,531.7c0,0,12.2,11.9-0.7,18.6l-18.3-12.2c0,0-6.9-5.5,0.9-9S325,531.7,325,531.7z"/>
	<g>
		<path fill="#FECE2F" d="M327.7,576.9c0,0,5.9-10.6,19.2-9.6s18.8,5.2,18.8,5.2s11.6-5.8,25.5-4.2s19.8,4,19.8,4s16.2-0.2,31,12.4
			s16.5,39.4,14.2,57.9s-14.2,46-27.6,58.9l-23.4,10c0,0-22.8,11.5-34.5,11s-27.6-6-27.6-6h-15.8l-31.5-0.8l-29.4-0.9
			c0,0-26.6-9.2-42.6-31.4s-19.6-40.4-17-57s8.6-37,27.1-47.2s38.1-10.4,38.1-10.4l15.1,3.4c0,0,12-6.9,22.4-5
			S324.3,569.9,327.7,576.9z"/>
	</g>
	<g>
		<path fill="#FFFFFF" d="M322.4,587.1c0,0-8-14.5-30-8.5s-44.5,61-7.2,124c0,0-27.8-28-27.8-65s22.5-65,36-69.5s26.8-1.7,34.2,8.8
			L322.4,587.1z"/>
	</g>
	<g>
		<path fill="#FFFFFF" d="M316.1,678.3c0,0,6.1-75.1,19-91c7.3-9,30.5-7,36,4.3c7.3,15,21.7,64,1.7,104.7c0,0,13.7-16,16-55
			c2.3-39-11.7-77.3-42.5-74C315.4,570.6,317.8,611.3,316.1,678.3z"/>
	</g>
	<g>
		<path fill="#FFFFFF" d="M375.1,580.6c0,0,24.7-4,36.7,6.3c23.8,20.5,22.9,66.7,0.8,105.8c0,0,15.6-16.4,22.1-46.4s-4.8-58-18.2-70
			s-40-8.5-50.8-3.9L375.1,580.6z"/>
	</g>
	<g>
		<path fill="#FFFFFF" d="M441.9,584.6c-14.2-12.2-29.9-12.4-30.9-12.4l14.8,14.4c0,0,22.7,4.7,23.8,51.6
			c0.5,21.6-5.9,37.1-8.1,45.8c7.6-13.2,13.3-29.4,14.8-41.5C458.4,624,456.7,597.3,441.9,584.6z"/>
	</g>
	<g>
		<path fill="#FFFFFF" d="M286.1,571.9l-14.1-3.1c0,0-19.6,0.1-38.1,10.4s-24.5,30.6-27.1,47.2s1,34.9,17,57
			c12.6,17.5,31.8,26.9,39.4,30.1c-5.2-3-44-33.8-41.2-79.8C225.5,576.7,281.6,572.3,286.1,571.9z"/>
	</g>
	<g>
		<path fill="#1A1A1A" d="M448.4,590.9c-9-12.6-23.3-19.9-41.1-21c0,0-0.1,0-0.1,0c-0.4-0.2-0.9-0.3-1.3-0.5
			c-19.2-6-37.8,0.5-40.3,1.4c-6.7-4-13.8-5.3-19.3-4.8c-6.4,0.5-12.8,2.2-18.2,8.9c-1.5-2.9-6-8.1-19.2-9.1
			c-8-0.6-15.2,1.1-21.8,4.9c-1.3-0.8-11.9-6.8-36.9-0.3c-28.2,7.3-44.9,32.5-44.7,67.4c0.1,20.5,11.3,43.2,29.2,59.3
			c7.2,6.4,16.9,13.2,29.7,18.3c3.7,1.7,7.9,3,12.2,4c8.9,2.3,19,3.7,30.4,3.7c4.7,0,9.6-0.2,14.8-0.8c0.3,0,0.6-0.2,0.8-0.4
			c0.6,0,1.2,0,1.7,0c2.4,0,4.4-0.2,6-0.4l4-0.1c3.2,1.3,11.3,4.1,24.9,4.1c7.4,0,16.5-0.8,27.2-3.1c19.6-4.2,32.9-10.6,43.3-20.5
			c11.3-10.8,19.3-26.2,25.3-48.6C461.8,628.4,459.4,606.2,448.4,590.9z M405.1,571.8c18.9,5.9,30.1,28.1,30.1,59.3
			c0,16.9-9.3,42.2-23.3,61.8c-2,2.6-6.8,8.5-9.1,11.1c-10.5,11.7-24.6,13.9-31.2,13.3c-8.2-0.7-10.6-3.9-11.2-5.2
			c11.8-8.4,18.7-22.4,24.3-39.9c9.9-31,3.5-71.8-5.4-87.3c-3.1-5.4-7-9.5-11.1-12.4C373.5,570.9,389.3,566.9,405.1,571.8z
			 M346.4,568.5c0.6-0.1,1.3-0.1,2-0.1c8.9,0,21.1,4.6,28.7,17.8c8.7,15.2,14.9,55,5.2,85.4c-6.3,19.8-14,32.4-24.7,39.5
			c-8.1,3.2-15.4,3.2-21.5-0.1c-7.6-4-12.1-12.1-14.5-18l-2.3-7.1c-6.9-26.7-0.1-83.3,3.7-95.3C328.9,571.5,338.2,569.2,346.4,568.5
			z M308.6,568.4c15.9,1.1,17.6,8.9,17.6,9c0,0,0,0,0,0c-2.1,3.2-4,7.3-5.6,12.6c-3.9,12.6-10.8,69-3.7,96.6c0,0.2,0.3,1.4,0.8,3.1
			c1.5,5.5,3.1,10,4.6,13.8l0.6,1.8c-0.3,2.6-1.4,4.4-3.3,5.6c-6.8,4.1-21.7-1.1-26.9-3.1c-2.2-1.7-4.4-3.7-6.7-6
			c-25.1-25.4-34.5-64.3-22.7-94.7C273.9,579.6,288.7,566.9,308.6,568.4z M207.9,637.9c-0.2-33.7,15.8-58,42.8-65.1
			c20.3-5.3,30.7-2,33.9-0.5c-9.5,6.5-17.4,17.8-23.6,33.9c-12.1,31.3-2.5,71.3,23.3,97.3c1.6,1.6,3.3,3.1,4.9,4.5
			c-2.5,7.3-18.8,5.9-25,4.7c0,0,0,0,0,0c-11.9-4.8-21-11.2-27.8-17.3C215.5,676.7,208,653.4,207.9,637.9z M452.7,652.6
			c-3.4,12.8-7.5,23-12.3,31.3c-0.1,0.1-0.3,0.2-0.3,0.4c0,0.1-0.1,0.1-0.1,0.2c-0.1,0.1-0.2,0.4-0.4,0.7
			c-3.2,5.2-8.1,8.8-10.3,10.1c-10.9,6.1-14,5-14.8,4.3c-1.5-1.3-0.2-5.2,0.4-6.5c0,0,0,0,0,0c1.5-2.1,2.9-4.3,4.3-6.5
			c11.4-18.6,18.5-39.8,18.5-55.3c0-27.8-8.8-48.7-23.9-58c14,2.3,25.2,8.8,32.7,19.2C457,607.1,459.2,628.5,452.7,652.6z"/>
		<path fill="#1A1A1A" d="M365.6,633.2c-2.5-1.2-5.5-1.3-8.3-0.3c-2.8,1-5.1,3-6.2,5.5c-1.1,2.3-1.3,4.9-1.4,7.3
			c-0.1,0.8-0.1,1.7-0.2,2.5c-0.5,4.5-3.7,7.1-7,9.9c-3.1,2.7-6.4,5.4-7.4,9.8c-0.6,2.4,0,5.1,1.5,7.4c1.9,2.8,4.9,4.7,8.1,5.2
			c0.8,0.1,1.5,0.2,2.2,0.2c5.7,0,10.6-3.3,13.2-5.5c7.6-6.3,12.4-15.9,12.9-25.7C373.5,643.6,371.7,636.1,365.6,633.2z"/>
		<path fill="#1A1A1A" d="M337.6,641.2c-3.6-3-6.8-1.8-8.5,0.2c-2.9,3.4-3.1,10.1,1,13.6c1.8,1.6,3.4,2.1,4.7,2.1
			c0.6,0,1.2-0.1,1.6-0.3c2.2-0.8,3.7-3,4.3-6C341.3,647.9,340.7,643.8,337.6,641.2z"/>
		<path fill="#1A1A1A" d="M310.6,587.5c-1.5-3-4.4-4.6-7.6-4.3c-5.8,0.5-14.7,5.8-16.9,11.5c0,0,0,0,0,0c-1.1,2.8-0.4,6,1.6,7.6
			c1.6,1.3,3.6,1.5,5.1,1.5c0.2,0,0.4,0,0.7,0c4.8,0,9.6-1.5,13.5-4.2c1.1-0.8,1.9-1.5,2.6-2.2C311.8,594.7,312.2,590.7,310.6,587.5
			z"/>
		<path fill="#1A1A1A" d="M404.6,592.5c-2.4-1.4-5.1-1.3-7.4,0.1c-2.1,1.2-3.3,3.6-3.5,6.5c-0.3,3.9,1.3,8,3.8,9.9v0
			c1.3,1,3,1.6,4.8,1.6c1.5,0,3-0.4,4.3-1.1c2.6-1.5,4.2-4.1,4.2-6.8C410.6,598.8,408,594.4,404.6,592.5z"/>
		<path fill="#1A1A1A" d="M337.9,540.4c-7.5-9.8-19.2-13.7-27.5-13.1c-3.9,0.3-6.7,1.5-7.8,3.4c-2.5,4.4,1.1,7.6,9.5,13.4
			c0,0,0,0,0,0c0.1,0.1,0.1,0.1,0.2,0.2c0.4,0.3,0.7,0.5,1.1,0.8c0.2,0.2,0.4,0.3,0.6,0.5c0.3,0.3,0.6,0.5,0.9,0.8
			c0.1,0.1,0.2,0.1,0.2,0.2c0.4,0.4,0.8,0.8,1.1,1.2c0,0,0.1,0.1,0.1,0.1c0.3,0.3,0.5,0.6,0.8,1c0.1,0.2,0.3,0.4,0.4,0.5
			c3.6,5.3,3.4,11.8-0.9,18.4c-0.4,0.6-0.2,1.3,0.4,1.7c0.2,0.1,0.4,0.2,0.7,0.2c0.4,0,0.8-0.2,1-0.6c0.1-0.2,0.2-0.4,0.4-0.6
			c0.1,0,0.2-0.1,0.4-0.1c5.1-2.7,10.2-5.9,11.7-11.3c0.3-1.3,0.4-2.5,0.1-3.5c-0.8-3.1-4-4.6-6.1-5.6c-2.3-1.1-4.4-2.2-6.5-3.3
			c-1.6-0.8-3.3-1.7-5.1-2.6c-8.8-6.2-10-8-8.7-10.2c0.7-1.2,2.9-2,5.9-2.2c7.6-0.5,18.5,3.1,25.4,12.2c9.2,12,9.1,25.3,9.1,25.4
			c0,0.7,0.5,1.2,1.2,1.2c0.7,0,1.2-0.5,1.2-1.2C347.5,566.8,347.6,553.1,337.9,540.4z"/>
	</g>
</g>
</svg>
