<?xml version="1.0" encoding="utf-8"?>
<!-- Generator: Adobe Illustrator 22.0.0, SVG Export Plug-In . SVG Version: 6.00 Build 0)  -->
<svg version="1.1" id="Layer_3" xmlns="http://www.w3.org/2000/svg" xmlns:xlink="http://www.w3.org/1999/xlink" x="0px" y="0px" viewBox="0 0 800 800" style="enable-background:new 0 0 800 800;" xml:space="preserve">

<ellipse cx="385.2" cy="674" rx="334.5" ry="52.3" style="fill:#FECE2F;"/>
<g>
	<path d="M73.5,353C86.9,211.7,180.2,110.4,343.4,82.2c199.3-33.6,358.7,86,346.9,305.6
		c-7.7,141.7-145.5,183.5-310.5,195.6C150.5,600.3,60.1,494.3,73.5,353z" style="fill:#FECE2F;"/>
</g>
<g>
	<path d="M753.3,471.3c-0.4,0-0.7-0.2-0.9-0.5c-0.3-0.5-0.2-1.2,0.3-1.6c7.6-5,5.3-10.7,5.2-10.9
		c-0.3-0.6,0-1.2,0.6-1.5c0.6-0.3,1.2,0,1.5,0.6c0,0.1,3.3,7.7-6,13.7C753.7,471.2,753.5,471.3,753.3,471.3z" style="fill:#1A1A1A;"/>
</g>
<path d="M503.6,240.8h128.3c0,0-3.6-11.1-26-11.1s-24,18.2-50.4-9C543.1,208,504.8,210.9,503.6,240.8z" style="fill:#FFFFFF;"/>
<path d="M583.2,288.1h55.9c0,0-1.6-4.8-11.3-4.8c-9.7,0-10.5,7.9-21.9-3.9C600.4,273.8,583.7,275,583.2,288.1z" style="fill:#FFFFFF;"/>
<g>
	<path d="M387.8,234.6c0,0-15.9,34.2-45,58.8c-29.1,24.6-45.4,30-52.8,30.4l5-20.7c0,0-9.9-28.6,11.9-53.8
		s51.7-14,51.7-14L387.8,234.6z" style="fill:#FECE2F;"/>
	<polygon points="354.4,243.4 378.5,251.8 375.3,257 353.5,246.5 	" style="fill:#FFFFFF;"/>
	<polygon points="357.2,241.3 382.6,245.4 388.3,234.8 359.4,235.5 	" style="fill:#FFFFFF;"/>
	<path d="M352.4,240.9c0,0-25.6-4.9-40.7,12.1C299.1,267.3,296,285,299,299.9l-4.2,3.7c0,0-8.3-24.6,7.6-47.9
		c15.9-23.3,39.2-23.9,52.6-21.7L352.4,240.9z" style="fill:#FFFFFF;"/>
	<path d="M436.7,252.1c2.2,1.9,3.2,8.2-5,15.9c-8.2,7.7-19.8,11.6-26.3,15.9c-6.5,4.3-24.3,14.6-24.1,26.1
		s13.4,63.3,15.3,79.3c1.9,16.1,5.4,26.5,5.4,26.5l11.4,73c0,0,6,41.2-7.1,64.2s-27.3,35.3-32.8,45.2c-5.6,9.9-13.6,33.4-6.5,49.8
		c0,0,13.6,12.3,12.1,18.1c-1.5,5.8-23.1,1.1-25-5s-3-22.6-3-22.6l0.2-39.6l3.9-19.4c0,0-13.5,18.8-26.9,32.2
		c-12.6,12.6-21.9,22.7-51.8,31.6c-22.4,6.7-61.3,0.3-65.7-0.7l29.9-5.2c0,0,25-7.2,39.8-17.4c14.8-10.2,27.7-25.9,34.9-49.9
		s6.5-72.2,6.5-72.2l-0.2-19.2c0,0-8.2-9.7-14.4-26.1c-6.2-16.4-5.2-25-5-26.7s17.9-42.7,17.9-42.7l-2.4-70.2l45.7-41.4l17-22
		C380.6,249.3,434.5,250.3,436.7,252.1z" style="fill:#FECE2F;"/>
	<path d="M397.2,253.6c0,0,38,4.1,39.8-1.2c0,0-7.9-3.3-36-2.3L397.2,253.6z" style="fill:#FFFFFF;"/>
	<path d="M382.2,235.3c0,0-5.4,16.4-37,48.5c-30.8,31.3-53.4,34.7-53.4,34.7s-3.5,7.1-1.7,6.2
		c1.8-0.9,29.3-5.4,61.4-39.4s36.6-50.6,36.6-50.6L382.2,235.3z" style="fill:#FFFFFF;"/>
	<path d="M376,307.5c0,0,6.1,16.9,4.5,40.1c-2.2,31.4-23.3,153.7,24.7,207.2c0,0,13.1-14.1,7.6-73.5
		c-5.5-59.4-31.7-171.6-31.7-171.6L376,307.5z" style="fill:#FFFFFF;"/>
	<g>
		<path d="M338.9,598.6c0,0,3.2,16.7-0.6,28.3c-3.7,11.5-4.2,25.1-0.1,27.7c4,2.6,14.4,1.6,14.4,1.6l-1.3-18.9
			l-0.3-36.5l1.5-16.2L338.9,598.6z" style="fill:#191919;"/>
	</g>
	<path d="M389.2,234.1c-0.2-0.3-0.6-0.5-0.9-0.5h0l-28.6,0.7c-1.3-0.5-8.7-2.9-18.6-2.5c-9.8,0.4-24,3.8-35.6,17.8
		c-11.5,14-14.1,28-14.3,37.2c-0.1,9,1.9,15.3,2.4,16.7l-4.6,20.8c-0.1,0.4,0,0.7,0.3,1c0.2,0.2,0.5,0.3,0.8,0.3c0,0,0.1,0,0.2,0
		c0.3,0,6.5-1,16.9-5.9c9.5-4.5,24.3-13.3,41.1-29.8c16.1-15.7,26.4-29.8,32.1-38.9c6.3-9.9,8.8-15.9,8.9-16.1
		C389.4,234.8,389.4,234.4,389.2,234.1z M293.5,286.9c0.1-8.9,2.7-22.3,13.7-35.7c8.8-10.7,20.2-16.4,33.9-17
		c8-0.3,14.4,1.3,16.9,2.1c-1.1,2.7-4.6,10.4-12.1,20.5c-8.5,11.5-24.2,28.6-50.5,45.2C294.7,299.5,293.4,294.1,293.5,286.9z
		 M378.5,250.1c-5.7,9-15.9,22.9-31.8,38.5c-27,26.4-49,33.3-55.1,34.7l4.1-19c27.1-16.9,43.2-34.5,52-46.3
		c8.1-10.9,11.5-18.9,12.4-21.4l26.3-0.7C385.4,238.3,382.9,243.3,378.5,250.1z" style="fill:#191919;"/>
	<g>
		<path d="M393.1,282.5c-3.1,0-5.2-1-5.4-1.1c-0.6-0.3-0.8-0.9-0.5-1.5s0.9-0.8,1.5-0.5c0.3,0.1,6.7,3,13.2-2.7
			c0.4-0.4,1.2-0.4,1.6,0.1c0.4,0.4,0.4,1.2-0.1,1.6C399.7,281.7,396,282.5,393.1,282.5z" style="fill:#191919;"/>
	</g>
	<g>
		<path d="M350.4,289.6c0.5,0.4,1.2,1,1.8,1.4c0.6,0.5,1.2,0.9,1.8,1.4c1.2,0.9,2.5,1.8,3.8,2.6c2.6,1.6,5.3,3,8.1,4.2
			c1.4,0.6,2.8,1.1,4.2,1.6c0.7,0.3,1.4,0.4,2.1,0.6s1.4,0.4,2.1,0.5c2.9,0.6,5.7,0.9,8.5,0.9l0,0c2.2,0,4.1,1.8,4.1,4
			s-1.8,4.1-4,4.1c-0.1,0-0.3,0-0.5,0c-3.5-0.4-6.9-1.2-10.1-2.3c-0.8-0.3-1.6-0.6-2.4-0.9c-0.8-0.3-1.6-0.7-2.3-1
			c-1.5-0.7-3-1.5-4.4-2.3c-2.9-1.7-5.6-3.5-8.1-5.6c-1.3-1-2.5-2.1-3.7-3.2c-0.6-0.6-1.2-1.1-1.8-1.7c-0.6-0.6-1.1-1.2-1.7-1.8
			c-0.6-0.7-0.6-1.8,0.1-2.5C348.8,288.9,349.8,288.9,350.4,289.6L350.4,289.6z" style="fill:#191919;"/>
	</g>
	<g>
		<circle cx="337.3" cy="256.1" r="2.6" style="fill:#191919;"/>
	</g>
	<g>
		<circle cx="331.1" cy="262.6" r="2.6" style="fill:#191919;"/>
	</g>
	<g>
		<polygon points="357,217.6 373,226.4 360.7,235.3 356.8,231.8 		" style="fill:#FFFFFF;"/>
		<polygon points="363.2,221.3 360,231.2 362.4,233.8 373,226.4 		" style="fill:#FECE2F;"/>
		<polygon points="353.3,236.7 338.8,243.2 355.1,253.7 358,239.4 		" style="fill:#FFFFFF;"/>
		<polygon points="353.5,239.9 344.9,246.5 354.7,253.1 357.2,241.3 		" style="fill:#FECE2F;"/>
		<circle cx="357.2" cy="235.8" r="5.1" style="fill:#FECE2F;"/>
		<g>
			<path d="M356.4,231.4c0.2-0.2,0.4-0.4,0.6-0.6c-1.5,0-2.9,0.7-3.9,2c-1.7,2.2-1.2,5.5,1,7.1c2,1.5,4.8,1.3,6.6-0.4
				c-1.1,0-2.2-0.3-3.2-1C355.2,236.8,354.8,233.6,356.4,231.4z" style="fill:#FFFFFF;"/>
		</g>
		<path d="M373.5,225.5l-15.9-8.8c-0.3-0.2-0.8-0.2-1.1,0c-0.3,0.2-0.6,0.6-0.5,1l0.4,12c0,0-0.1,0-0.1,0
			c-1.6,0.2-3.1,1.1-4.1,2.4c-1,1.3-1.4,2.9-1.2,4.6c0,0,0,0.1,0,0.1l-12.7,5.4c-0.4,0.1-0.6,0.5-0.7,0.9c0,0.4,0.1,0.8,0.5,1
			l16.3,10.5c0.2,0.1,0.4,0.2,0.6,0.2c0.1,0,0.3,0,0.4-0.1c0.3-0.1,0.6-0.5,0.6-0.8l2-11.9c1.6-0.3,3-1.1,4-2.4
			c1-1.3,1.4-2.9,1.2-4.6c0-0.1,0-0.3-0.1-0.4l10.4-7.2c0.3-0.2,0.5-0.6,0.5-1C374.1,226,373.9,225.6,373.5,225.5z M354.2,251.8
			l-13.1-8.4l10.6-4.5c0.4,0.7,1,1.3,1.6,1.8c0.7,0.6,1.6,0.9,2.5,1.1L354.2,251.8z M360.3,238.2c-0.6,0.9-1.6,1.4-2.6,1.5
			c-1,0.1-2.1-0.1-2.9-0.7s-1.4-1.6-1.5-2.6c-0.1-1,0.1-2.1,0.7-2.9c0.6-0.9,1.6-1.4,2.6-1.5c0.2,0,0.4,0,0.6,0
			c0.9,0,1.7,0.3,2.4,0.8l0,0c0.9,0.6,1.4,1.6,1.5,2.6C361.3,236.3,361,237.4,360.3,238.2z M362.4,232.4c-0.4-0.6-0.9-1.2-1.5-1.6
			c-0.7-0.5-1.5-0.9-2.2-1.1l-0.4-10.2l12.6,7L362.4,232.4z" style="fill:#191919;"/>
	</g>
	<path d="M447.4,246.9c-1.8-2.5-3.7-2.9-4.9-2.7c-1.7,0.2-3.3,1.4-4.7,3.7c-0.9,1.5-1.5,2.8-1.5,2.9c0,0,0,0.1,0,0.1
		c-2.5-0.8-9.3-1.6-28.2-1.7c-13.8-0.1-27.5,0.1-27.7,0.1c-0.6,0-1.1,0.5-1.1,1.2c0,0.3,0.2,0.7,0.4,0.9l-19.6,25.1
		c0,0,31.1,16.4,44.9-25c0.7,0,1.3,0,2,0c24.1,0.2,28.2,1.4,28.9,1.8c2.9,5.7-0.5,11.9-10.3,18.3c-1.2,0.8-3.6,2.1-6.6,3.7
		c-14.5,7.7-41.5,21.9-39.2,36.1v0c0.3,1.3,28.4,135,33,183.2c4.5,47.8-10.1,67.6-31.2,90.3c-6.8,7.3-12.1,16.9-15.3,27.7
		c-2.6,8.7-3.8,18.2-3.3,25.9c0.2,3.4,1,9.3,3.8,11.6c5.6,4.6,11.7,11.8,11.7,15.1c0,0.7-0.3,1-0.5,1.2c-1.7,1.4-8.8,1.4-15.4-0.7
		c-4.4-1.4-7.3-3.3-7.8-5.3c-2-6.9-6.2-63.3,0.9-77c7.1-13.9,8.8-25.8-3.7-45.5c-0.3-0.5-1-0.7-1.5-0.3c-0.5,0.3-0.7,1-0.3,1.5
		c10.9,17.3,10.7,27.8,5.3,39.8c-0.2,0.1-0.4,0.2-0.6,0.4c-4.4,6-16.2,21.5-32,35.9c-15.8,14.4-30.7,23.3-44.2,26.5
		c-8.7,2.1-17.2,3.2-25.2,3.7c0.2-6.4-2.2-9.1-3.9-10.3c5.9-1.9,11.3-4,16.4-6.3c6.5-2.9,12.3-6.3,17.6-10c6.1,3,11.8,3.4,13.6,0.7
		c1.5-2.2,0.2-5.8-2.9-9.4c1.7-1.6,3.3-3.3,4.8-5c2.4-2.7,4.4-5.4,6.2-8.2c7.5,1.8,14,0.7,15.1-2.7c1-3-2.5-7-8.2-9.9
		c2.2-5.1,3.8-10.2,5-15.2c7.1,0.2,12.7-1.9,13.1-5.3c0.4-3.2-3.9-6.6-10.3-8.4c0.1-0.8,0.3-1.6,0.4-2.4c0.1-0.8,0.3-1.6,0.4-2.4
		c0.6-3.2,1-7.7,1.4-13.3c11.5,1.5,21.5-1.4,22.2-6.6c0.7-5.3-8.1-10.8-19.7-12.4c-0.6-0.1-1.1-0.1-1.6-0.2
		c0.2-8.2,0.3-17.5,0.3-27.4c0.7,0,1.3,0,2,0c11.8,0,21.3-4.3,21.3-9.6c0-5.3-9.5-9.6-21.3-9.6c-0.7,0-1.4,0-2.1,0
		c-0.1-7.5-0.1-15.3-0.3-23.1c0.8,0,1.5,0.1,2.3,0.1c11.8,0,21.3-4.3,21.3-9.6c0-5.3-9.5-9.6-21.3-9.6c-0.9,0-1.8,0-2.7,0.1
		c-0.2-8.8-0.4-17.6-0.6-26.2c1.1,0.1,2.2,0.1,3.2,0.1c11.8,0,21.3-4.3,21.3-9.6s-9.5-9.6-21.3-9.6c-1.3,0-2.5,0-3.8,0.1
		c-0.2-8-0.4-15.7-0.7-22.8c0.9,0,1.8,0.1,2.7,0.1c11.8,0,17-4.3,17-9.6s-5.2-9.6-17-9.6c-1.1,0-2.2,0-3.3,0.1
		c-0.6-17.2-1-28.3-1-28.7c0-0.6-0.6-1.1-1.2-1.1c-0.6,0-1.1,0.6-1.1,1.2c0,0.8,1.2,30.7,2.3,69.3c-1.3,2.5-12.6,24.9-17.7,42.7
		c-4.4,15.3,18,53.1,19,54.7c0.1,0.2,0.3,0.3,0.5,0.4c0.1,31.7-0.4,58.3-2.4,69.2c-0.1,0.8-0.3,1.6-0.4,2.4
		c-2.7,15.2-6,34.1-20.9,51c-8.1,9.2-18.9,17-32.3,23.2c-15.5,7.2-35.1,12.4-58,15.5c-0.5,0.1-0.9,0.5-1,1c0,0.5,0.3,1,0.9,1.2
		c0.2,0,14.7,3.5,35.2,3.5c11,0,23.9-1,37.1-4.2c13.9-3.3,29.1-12.4,45.2-27.1c12.1-11,21.8-22.6,27.8-30.3
		c-5.3,19.2-1.3,68.5,0.5,74.5c1,3.5,5.6,5.6,9.3,6.8c3.4,1.1,7.6,1.8,11,1.8c2.8,0,5.2-0.4,6.4-1.5c0.9-0.7,1.3-1.7,1.3-2.9
		c0-4.9-7.7-13-12.5-16.9c-1.2-0.9-2.5-4-2.9-10c-1-14.6,4.2-37,18-51.8c21.5-23.1,36.4-43.3,31.8-92c-4.6-48.1-32.5-180.9-33-183.5
		c-2-12.6,25-26.9,38-33.7c3.1-1.6,5.5-2.9,6.8-3.8c7.2-4.7,14.7-11.9,11.6-20c0.8,0.1,1.9,0.4,3.1,0.5c0.7,0.1,1.3,0.1,1.9,0.1
		c2.4,0,3.9-0.6,4.7-1.8C449.2,250.7,448.9,248.9,447.4,246.9z M311.3,458c-6.8-14.9-9.4-25.9-7.8-31.8c4-14,11.9-31,15.6-38.5
		c0.8,28.2,1.5,60.4,1.6,89C318.8,473.1,314.9,466,311.3,458z" style="fill:#191919;"/>
	<g>
		<g>
			
				<ellipse transform="matrix(0.983 -0.1838 0.1838 0.983 -41.7024 74.8087)" cx="382.7" cy="262.4" rx="11.9" ry="5.6" style="fill:#FFFFFF;"/>
		</g>
		<path d="M395.4,260L395.4,260c-0.7-3.7-6.7-5.5-13.9-4.1s-12.2,5.2-11.5,8.9c0.5,2.9,4.3,4.6,9.3,4.6
			c1.5,0,3-0.1,4.7-0.4C391.2,267.5,396.1,263.7,395.4,260z M383.5,266.8c-6.3,1.2-11-0.3-11.5-2.5c-0.4-2.1,3.5-5.3,9.8-6.4
			c1.1-0.2,2.2-0.3,3.2-0.4c-2.1,1.4-3.2,3.1-2.9,4.7c0.3,1.8,2.4,3,5.3,3.5C386.2,266.2,384.9,266.5,383.5,266.8z" style="fill:#191919;"/>
	</g>
	<g>
		<path d="M399.2,408c2,2.1,4,4.1,5.6,6.5c2.5,3.9,8,15.4,8.8,16.8c1.2,2.1,1.8,4.4,2.3,6.6c0.9,4.2,1.5,8.5,1.6,12.8
			c0.1,1.9,0,3.9-0.7,5.7s-2.5,3.2-4.5,3.1c-2.7-0.2-4.2-2.9-5.3-5.4c-2-4.5-4-9-5.9-13.4c-1.7-4-3.5-7.9-6.2-11.3
			c-3.3-4.1-7.9-7-12-10.3c-5.1-4-9.7-8.7-13.6-13.9c-3.5-4.7-6.6-10.2-6.3-16c0.2-4,1.9-7.7,3.5-11.3c1.3-2.9,5.3-6.2,7.2-9.2
			c2.9-4.7,3.2-0.7,3.7,2c2.2,12.3,8.7,20.6,13.3,27C393.3,401.4,396.1,404.8,399.2,408z" style="fill:#FECE2F;"/>
	</g>
	<g>
		<path d="M413,461c-4.2,0-6.2-4.6-9.7-12.7c-0.9-2.2-2-4.7-3.3-7.4c-3.8-8.3-9.1-13-16.4-19.6
			c-4.1-3.7-8.8-7.8-14.1-13.5c-10.6-11.2-15.5-23.9-17.8-32.5c-2.4-9.4-2.4-16-2.4-16.3c0-0.6,0.5-1.1,1.1-1.1
			c0.6,0,1.1,0.5,1.1,1.1c0,0.3-0.2,26.4,19.5,47.1c5.3,5.6,9.9,9.7,14,13.4c7.5,6.7,12.9,11.5,16.9,20.3c1.3,2.8,2.4,5.3,3.3,7.5
			c3.6,8.3,5.2,11.7,8.2,11.3c0.7-0.1,1.2-0.8,1.5-1.4c1.3-2.4,1.5-7.1,0.7-12.5c-0.7-4.5-2.4-11.6-6.8-20
			c-3.2-6-7.9-11.8-12.9-17.9c-9.8-12-20-24.4-19.7-40.4c0-0.6,0.5-1.1,1.1-1.1c0,0,0,0,0,0c0.6,0,1.1,0.5,1.1,1.2
			c-0.3,15.1,9.6,27.2,19.1,38.9c5.1,6.2,9.9,12.1,13.2,18.3c4.6,8.6,6.3,16,7.1,20.7c0.9,5.9,0.5,10.9-1,13.8
			c-1,1.9-2.3,2.5-3.2,2.6C413.6,460.9,413.3,461,413,461z" style="fill:#191919;"/>
	</g>
</g>
<g>
	<path d="M705.8,408.2c0,0,21.4-0.4,22.4,1.4c1,1.8,2.4,4.7-2.9,9.2c-5.2,4.5-10.3,7.4-10.3,7.4s-21.3,10.8-22.4,17.4
		s5.1,33.7,5.1,33.7l8.5,44.8c0,0,8.1,38.1,7.6,56.2s-9,35.2-16.7,41.9c-7.8,6.7-13.5,19.3-15.3,27.5c-1.8,8.2,0.3,17.1,1.2,18
		c1,1,9,10,7.6,11.7c-1.4,1.8-15.2,0.6-16.4-4c-1.2-4.6-2.2-37.1-2.1-37.6c0.1-0.5,0.3-11.3,0.3-11.3s-12.1,14.9-26.5,26
		c-14.4,11.1-26.9,17.1-34.8,19.8s-22.1,4.2-22.1,4.2l18.7-10.5l18.8-13.3c0,0,16.1-15.7,20-26.2c4-10.6,6.7-25.1,7-35.6
		c0.3-10.5,0.3-32.5,0.3-32.5s-13.8-21.2-12.8-32.4c1-11.2,12.1-30,12.1-30l-1.4-45.2c0,0,17.5-13.8,20.9-17.3s15.8-19.4,15.8-19.4
		l4.5-4.9L705.8,408.2z" style="fill:#FECE2F;"/>
	<path d="M703.3,412.8c0,0,16.4,0.1,24.3-2.1c0,0,2.6,0.4-0.9-1.2s-22.4-0.7-22.4-0.7L703.3,412.8z" style="fill:#FFFFFF;"/>
	<path d="M688.6,445.1c0,0,2.7,9.7,2.5,27.1c-0.3,19.8-14.7,98.2,16.4,132.8c0,0,8.5-9.1,4.9-47.6
		c-3.5-38.4-20.5-111-20.5-111L688.6,445.1z" style="fill:#FFFFFF;"/>
	<g>
		<path d="M664.6,633.4c0,0,2.1,10.8-0.4,18.3c-2.4,7.5-2.7,16.2-0.1,17.9c2.6,1.7,9.3,1,9.3,1l-0.8-12.2l-0.2-23.6
			l0.9-10.5L664.6,633.4z" style="fill:#191919;"/>
	</g>
	<g>
		<path d="M658.8,443.2c0,0-0.7,13.9,5.6,19.7c5.8,5.2,13.7,0.8,14.6-6.2c0.9-7-4.4-27.4-4.4-27.4
			S667.7,436.6,658.8,443.2z" style="fill:#191919;"/>
	</g>
	<g>
		<path d="M699.7,429.4c-2.1,0-3.5-0.7-3.7-0.7c-0.6-0.3-0.8-0.9-0.5-1.5s0.9-0.8,1.5-0.5c0.2,0.1,4.1,1.8,8.1-1.7
			c0.4-0.4,1.2-0.4,1.6,0.1c0.4,0.4,0.4,1.2-0.1,1.6C704.1,428.8,701.6,429.4,699.7,429.4z" style="fill:#191919;"/>
	</g>
	<g>
		<path d="M672.1,433.6c0.3,0.3,0.7,0.6,1.1,0.9s0.8,0.6,1.2,0.9c0.8,0.6,1.6,1.1,2.5,1.6c1.7,1,3.4,1.9,5.2,2.7
			c1.8,0.8,3.6,1.3,5.5,1.8l1.4,0.3c0.4,0.1,0.9,0.1,1.4,0.2l0.7,0.1c0.2,0,0.4,0,0.7,0l1.4,0h0.2c1.5,0,2.6,1.2,2.5,2.7
			c0,1.5-1.2,2.6-2.7,2.5c-0.1,0-0.2,0-0.3,0l-1.7-0.3c-0.3,0-0.6-0.1-0.8-0.1l-0.8-0.2c-0.6-0.1-1.1-0.3-1.6-0.4l-1.6-0.5
			c-2.1-0.7-4.1-1.6-5.9-2.8c-1.9-1.1-3.6-2.3-5.3-3.6c-0.8-0.7-1.6-1.3-2.4-2.1c-0.4-0.4-0.8-0.7-1.2-1.1s-0.7-0.7-1.1-1.2
			c-0.4-0.4-0.4-1.2,0.1-1.6C671,433.2,671.7,433.2,672.1,433.6L672.1,433.6z" style="fill:#191919;"/>
	</g>
	<g>
		<path d="M695.6,398c0,0-8.6,19.3-23.4,33.1c-14.8,13.8-26.5,21.2-38.3,24.5l2.5-13.8c0,0-6-19.1,6.6-32.6
			c12.6-13.4,28.1-13.6,34.1-10.3L695.6,398z" style="fill:#FECE2F;"/>
		<path d="M672.8,407.6l12.7-0.7c0,0-5.2,11.8-20.2,24.6s-30.2,18.9-30.2,18.9l-2,5.9c0,0,14.7-0.5,37.5-24.4
			s24.9-33.9,24.9-33.9l-18.6,0.9L672.8,407.6z" style="fill:#FFFFFF;"/>
		<path d="M677,398.8l-4.2,8.8c0,0-8-6.9-18.7-1.3c-10.6,5.6-17.7,15.5-14.2,33.6l-3.7,1.9c0,0-7.9-17.5,10.4-37.3
			C655.7,394.7,677,398.8,677,398.8z" style="fill:#FFFFFF;"/>
		<path d="M697.5,397.5c-0.2-0.3-0.6-0.5-0.9-0.5l-18.4,0.5c-1-0.4-5.8-1.9-12.1-1.6c-6.5,0.3-15.7,2.5-23.3,11.6
			c-7.5,9.1-9.2,18.3-9.3,24.3c-0.1,5.7,1.2,9.7,1.5,10.9l-2.9,13.4c-0.1,0.4,0,0.7,0.3,1c0.2,0.2,0.5,0.3,0.8,0.3c0,0,0.1,0,0.2,0
			c0.7-0.1,16.8-2.7,37.7-23.2c20-19.5,26.4-35.1,26.6-35.7C697.7,398.2,697.7,397.8,697.5,397.5z M644.4,409
			c5.6-6.8,12.9-10.5,21.6-10.9c4.7-0.2,8.6,0.7,10.4,1.2c-2,4.6-11.4,23.7-39.6,41.6C635.6,436.7,633.1,422.7,644.4,409z
			 M689.9,407.9c-3.7,5.7-10.3,14.7-20.5,24.7c-16.6,16.2-30.2,21-34.8,22.2l2.5-11.5c17.5-10.9,27.9-22.3,33.6-30
			c5-6.8,7.3-11.8,8-13.7l16.1-0.4C694,401,692.4,404,689.9,407.9z" style="fill:#191919;"/>
		<g>
			<circle cx="663.6" cy="411.9" r="1.6" style="fill:#191919;"/>
		</g>
		<g>
			<circle cx="659.6" cy="416.1" r="1.6" style="fill:#191919;"/>
		</g>
	</g>
	<path d="M734.8,405.9c-1.2-1.6-2.4-1.9-3.2-1.8c-2.1,0.3-3.4,2.9-3.9,3.9c-1.8-0.6-6.3-1-18.4-1.2
		c-8.9-0.1-17.8,0.1-17.9,0.1c-0.6,0-1.1,0.5-1.1,1.2c0,0.3,0.2,0.7,0.4,0.9L678.5,425c0,0,19.9,10.5,28.9-15.8
		c10,0.1,18.3,0.4,19.8,1.1c1.7,3.4-0.5,7.2-6.6,11.2c-0.7,0.5-2.3,1.3-4.3,2.4c-9.5,5-27.1,14.3-25.5,23.8v0
		c0.2,0.9,18.4,87.3,21.3,118.4c2.9,30.8-6.5,43.5-20.1,58.1c-9.4,10.1-12.9,24.8-12.2,34.9c0.2,2.7,0.8,6.3,2.6,7.8
		c3.5,2.8,7.4,7.4,7.4,9.5c0,0.3-0.1,0.4-0.2,0.5c-0.9,0.7-5.2,0.9-9.6-0.5c-2.7-0.9-4.5-2-4.8-3.1c-1.3-4.4-4-40.7,0.6-49.5
		c4.7-9.1,5.8-16.9-2.4-29.8c-0.3-0.5-1-0.7-1.5-0.3c-0.5,0.3-0.7,1-0.3,1.5c6.9,10.9,6.8,17.7,3.5,25.2c-0.1,0.1-0.3,0.2-0.4,0.3
		c-8,11-24.5,27.1-41.3,37.8c-1.5-5.3-4.4-6.9-6-7.4c5-4.4,9.3-8.9,12.7-13.7c8.8-12,11.2-23.4,12.8-32.7l2.4,0.4
		c5.3,1,10.6-2.5,11.6-7.8l0,0c1-5.3-2.5-10.6-7.8-11.6l-4.4-0.8c0.1-5.1,0.3-10.9,0.3-17.1l5.8,0.4c5.4,0.4,10.2-3.7,10.6-9.1l0,0
		c0.4-5.4-3.7-10.2-9.1-10.6l-7.4-0.6c0-4.9-0.1-9.8-0.2-14.8l6.2,0.4c5.5,0.3,10.2-3.8,10.5-9.3l0,0c0.3-5.5-3.8-10.2-9.3-10.5
		l-7.8-0.5c-0.1-4.5-0.2-9-0.3-13.3h4c4.9,0,8.8-4,8.8-8.8l0,0c0-4.9-4-8.8-8.8-8.8h-4.6c-0.6-18.1-1.1-31.4-1.2-33
		c0-0.6-0.5-1.1-1.2-1.1c-0.6,0-1.1,0.6-1.1,1.2c0,0.5,0.8,19.8,1.5,44.7c-1,2-8.2,16.2-11.4,27.6c-2.9,10.1,11.7,34.6,12.3,35.7
		c0.1,0.1,0.2,0.2,0.3,0.3c0.1,20.4-0.3,37.5-1.5,44.4l-0.1,0.6c-3.5,19.4-8.2,46.1-67.5,72c-0.5,0.2-0.7,0.7-0.6,1.3
		c0.1,0.5,0.6,0.9,1.1,0.9h0c0.2,0,23.1-0.9,45-13.2c16.4-9.2,33.4-24.6,43.5-36.6c-2.9,13.4-0.4,43.1,0.7,46.8
		c0.7,2.4,3.8,3.9,6.3,4.7c2.3,0.7,5,1.2,7.2,1.2c1.9,0,3.5-0.3,4.4-1c0.7-0.5,1-1.3,1-2.2c0-3.7-5.9-9.4-8.2-11.2
		c-0.6-0.5-1.5-2.5-1.8-6.2c-0.6-9.3,2.7-23.7,11.6-33.2c14-15,23.7-28.1,20.7-59.8c-2.9-31.1-20.9-116.7-21.4-118.7
		c-1.3-7.9,16.1-17,24.4-21.4c2-1,3.6-1.9,4.4-2.5c8.1-5.3,8.9-10,7.7-13.2c1,0.2,1.9,0.3,2.6,0.3c2.2,0,2.9-0.7,3.2-1.2
		C736,408.4,735.8,407.3,734.8,405.9z M647.2,542.3c-4.3-9.6-6-16.6-5-20.3c2.4-8.2,6.8-18,9.4-23.4c0.5,17.3,0.9,36.8,1,54.4
		C651.2,550.5,649.1,546.6,647.2,542.3z" style="fill:#191919;"/>
	<g>
		<path d="M681.6,473.1c0,0,15.5,13.8,22,15.7c6.5,1.9,10.3-1.3,10.3-1.3l11.2-8.8l7.7-8.4c0,0,5.2-7.3,10.8-9.1
			s10.6-3,10.3,0.6c-0.4,3.5-6.5,6.9-6.5,6.9l-3.9,5c0,0-11.2,17.2-22.4,27.1c-11.2,9.9-17.5,9.9-23.5,9.9c-6,0-20.5-4.9-24.5-9.5
			c0,0-6-7.1-1.7-17C675.6,474.2,681.6,473.1,681.6,473.1z" style="fill:#FECE2F;"/>
		<path d="M682.3,473.5c0,0-4.3,4.7,1.5,10.5s15.3,14.7,26.9,11.6c11.6-3.2,21.5-19.3,24.1-22.5
			c5.7-7,14.4-9.4,15.1-13.3c0,0-5.4-1.3-15.3,7.7c-9.9,9-14.5,21.4-26.9,22.5C698.7,490.7,682.3,473.5,682.3,473.5z" style="fill:#FFFFFF;"/>
		<g>
			<path d="M698.1,511.8c-13.4,0-25-9.3-25.6-9.7c-0.5-0.4-0.6-1.1-0.1-1.6c0.4-0.5,1.1-0.6,1.6-0.1
				c0.1,0.1,13.1,10.5,26.8,9.1c12.6-1.3,26.5-13.2,41.2-35.5c0.5-0.8,0.9-1.4,1.2-1.7c1.9-2.7,4.1-4.4,5.9-5.9
				c2.5-2,3.7-3.2,3.7-4.9c0-0.6-0.3-1-0.8-1.2c-3.1-1-12.6,3.1-18,10c-1.6,2.1-16.3,20.6-26.2,20.6c-8.3,0-25.5-15.9-26.2-16.6
				c-0.4-0.4-0.5-1.1,0-1.6c0.4-0.4,1.1-0.5,1.6,0c4.7,4.4,18.4,16,24.6,16c7.1,0,19.1-12.9,24.4-19.8c5.4-6.9,15.7-12.3,20.4-10.8
				c1.5,0.5,2.4,1.6,2.4,3.2c0.1,2.9-2.1,4.7-4.5,6.7c-1.8,1.5-3.7,3.1-5.5,5.5c-0.2,0.3-0.6,0.9-1.1,1.6
				c-2.4,3.7-8.1,12.3-15.7,20.2c-9.5,9.9-18.6,15.4-27.2,16.3C700,511.7,699.1,511.8,698.1,511.8z" style="fill:#191919;"/>
		</g>
	</g>
	<g>
		<g>
			<ellipse transform="matrix(0.983 -0.1838 0.1838 0.983 -64.6498 134.4485)" cx="693" cy="416" rx="7.7" ry="3.6" style="fill:#FFFFFF;"/>
		</g>
		<path d="M701.1,414.4c-0.2-1.2-1.3-2.2-3.2-2.7c-1.6-0.4-3.7-0.4-5.8,0c-2.1,0.4-4,1.2-5.4,2.2
			c-1.5,1.1-2.2,2.4-2,3.6c0.3,1.9,2.8,3,6,3c0.9,0,1.9-0.1,3-0.3c2.1-0.4,4-1.2,5.4-2.2C700.7,416.9,701.4,415.6,701.1,414.4z
			 M693.5,418.8c-4,0.7-7.1-0.2-7.4-1.6c-0.1-0.7,0.4-1.5,1.5-2.2c1.2-0.9,2.9-1.6,4.9-1.9c0.7-0.1,1.4-0.2,2.1-0.3
			c-1.3,0.9-2.1,2-1.9,3c0.2,1.1,1.5,1.9,3.4,2.2C695.2,418.4,694.4,418.7,693.5,418.8z" style="fill:#191919;"/>
	</g>
</g>
<g>
	<path d="M468.1,309.4c0,0-13.9,28.6-37.6,49.3c-23.6,20.6-38.8,25.9-46.3,26.9l4.5-17.7c0,0-8.3-21.8,7.5-42.7
		c15.9-20.9,39.4-17.7,46.7-14.7L468.1,309.4z" style="fill:#FECE2F;"/>
	<path d="M442.9,310.4l23.9-0.3c0,0-16.3,33.6-37.6,50.3c-21.2,16.6-34.1,24.9-45.1,25.1l1.2-4.5
		c0,0,20.5-4.9,45.5-28.6c18.4-17.4,25.3-35.5,25.3-35.5l-16.6,0.7L442.9,310.4z" style="fill:#FFFFFF;"/>
	<path d="M439.7,317.6c0,0-17.7-4.1-29.9,4c-14.2,9.4-21.4,27.1-18.4,44.3l-2.7,2c0,0-9-20.2,6.5-41.1
		s36.5-20.4,47.7-16.4L439.7,317.6z" style="fill:#FFFFFF;"/>
	<path d="M480.2,322.7c0,0,28.4-0.4,29.7,1.9c1.3,2.2,2.2,8.2-4.9,14c-7.1,5.8-21.5,12.1-26.9,16.4
		c-5.4,4.3-17.9,6.5-14.6,25.6c3.4,19,11,56.6,12.7,65.7s4.7,23.3,4.7,23.3l6.3,38.1c0,0,6.9,39.6,1.7,59
		c-5.2,19.4-15.1,32.1-21.1,37.9c-6,5.8-17.9,23.3-19.2,35.3c-1.3,11.9,0.2,23,1.9,24.3s11.2,10.5,9.9,14.7s-12.7,1.1-12.7,1.1
		s-9.7-1.9-10.1-8.8c-0.4-6.9-1.9-38.4-1.9-38.4l4.1-28.2c0,0-12.5,17.4-23.7,26.3c-11.2,9-21.8,17.7-21.8,17.7l-12.5-10.8
		c0,0,14.7-15.1,20-29.5c5.2-14.4,9.1-37.1,9.3-58.6s0-30.6,0-30.6l-1.3-81.2l-1.5-62.3c0,0,15.9-9.9,28.4-22.8
		c6.7-7,24.3-30.3,24.3-30.3L480.2,322.7z" style="fill:#FECE2F;"/>
	<path d="M475,328.3c0,0,32.8,0.4,34.8-2.6c0,0,3.1-0.4-1.4-1.7s-28.2-1.3-28.2-1.3L475,328.3z" style="fill:#FFFFFF;"/>
	<path d="M457.8,371.8c0,0,4.9,15.2,4.6,38.2c-0.4,26.2-20.8,127.9,20.4,173.7c0,0,11.2-12.1,6.5-63
		c-4.7-50.9-27.2-147-27.2-147L457.8,371.8z" style="fill:#FFFFFF;"/>
	<path d="M469.2,308.9c-0.2-0.3-0.6-0.5-0.9-0.5l-24.5,0.6c-1.2-0.4-7.5-2.5-15.9-2.1c-8.5,0.3-20.6,3.2-30.6,15.3
		c-9.9,12-12.1,24-12.2,32c-0.1,7.6,1.6,13,2.1,14.3l-3.9,17.8c-0.1,0.4,0,0.7,0.3,1c0.2,0.2,0.5,0.3,0.8,0.3c0,0,0.1,0,0.2,0
		c0.9-0.1,22.1-3.6,49.7-30.6c13.8-13.5,22.6-25.6,27.5-33.3c5.4-8.4,7.5-13.6,7.6-13.8C469.5,309.6,469.4,309.2,469.2,308.9z
		 M399,323.7c7.5-9.1,17.3-14,28.9-14.5c6.6-0.3,12.1,1,14.3,1.7c-2.3,5.5-14.6,31.5-53.2,55.9C387.4,361.7,383.4,342.6,399,323.7z
		 M459.9,322.6c-4.9,7.7-13.6,19.6-27.3,32.9c-22.7,22.2-41.4,28.3-46.8,29.6l3.5-15.9c23.2-14.5,37-29.6,44.5-39.7
		c6.8-9.3,9.8-16.1,10.6-18.2l22.2-0.6C465.6,312.8,463.4,317,459.9,322.6z" style="fill:#191919;"/>
	<g>
		<path d="M414,373.3c0,0-2.5,12,5.9,19.6c7.7,6.9,17.1,2.2,18.3-7.1c1.2-9.3-7.7-27.1-7.7-27.1S425.9,364.5,414,373.3z
			" style="fill:#191919;"/>
	</g>
	<g>
		<path d="M444.3,345.1c0,0,27.2,14.3,38.9-22.5l-21.5,0.3L444.3,345.1z" style="fill:#191919;"/>
	</g>
	<g>
		<g>
			
				<ellipse transform="matrix(0.983 -0.1838 0.1838 0.983 -53.3399 90.8764)" cx="463.6" cy="333.2" rx="10.2" ry="4.8" style="fill:#FFFFFF;"/>
		</g>
		<path d="M474.4,331.1c-0.6-3.2-5.7-4.7-11.9-3.5c-2.8,0.5-5.3,1.5-7.2,2.8c-2,1.5-3,3.2-2.7,4.8
			c0.3,1.6,1.8,2.9,4.2,3.5c1.1,0.3,2.4,0.4,3.8,0.4c1.3,0,2.6-0.1,3.9-0.4c2.8-0.5,5.3-1.5,7.2-2.8
			C473.8,334.5,474.7,332.8,474.4,331.1z M464.3,337c-2.5,0.5-5,0.4-6.9,0c-1.7-0.4-2.7-1.2-2.9-2.1c-0.1-0.9,0.6-1.9,1.9-2.9
			c1.6-1.2,3.9-2.1,6.5-2.5c1-0.2,1.9-0.3,2.8-0.3c-1.8,1.2-2.8,2.7-2.5,4c0.3,1.5,2,2.5,4.5,3C466.5,336.4,465.4,336.7,464.3,337z" style="fill:#191919;"/>
	</g>
	<g>
		<path d="M472.5,350.6c-2.7,0-4.5-0.9-4.7-0.9c-0.6-0.3-0.8-0.9-0.5-1.5s0.9-0.8,1.5-0.5c0.2,0.1,5.6,2.5,11.1-2.3
			c0.4-0.4,1.2-0.4,1.6,0.1c0.4,0.4,0.4,1.2-0.1,1.6C478.2,349.8,475,350.6,472.5,350.6z" style="fill:#191919;"/>
	</g>
	<g>
		<path d="M435.3,356.1c1.1,0.9,2.2,1.7,3.4,2.5c1.2,0.8,2.4,1.6,3.6,2.3c2.4,1.5,5,2.7,7.5,3.8c2.6,1.1,5.2,2,7.8,2.6
			c1.3,0.3,2.7,0.5,4,0.7c1.3,0.1,2.6,0.2,3.9,0.2h0c1.9,0,3.5,1.5,3.5,3.5c0,1.9-1.5,3.5-3.5,3.5c-0.1,0-0.3,0-0.4,0
			c-1.6-0.2-3.2-0.4-4.7-0.8c-1.5-0.4-3.1-0.8-4.5-1.3c-2.9-1-5.7-2.4-8.3-3.9c-2.7-1.5-5.2-3.2-7.5-5c-1.2-0.9-2.4-1.8-3.5-2.8
			c-1.2-1-2.2-1.9-3.3-3c-0.6-0.6-0.6-1.5,0-2.1C433.8,355.7,434.7,355.6,435.3,356.1L435.3,356.1z" style="fill:#191919;"/>
	</g>
	<g>
		<circle cx="424.6" cy="327.8" r="2.2" style="fill:#191919;"/>
	</g>
	<g>
		<circle cx="419.3" cy="333.4" r="2.2" style="fill:#191919;"/>
	</g>
	<path d="M518.5,320.4c-1.6-2.2-3.1-2.5-4.2-2.3c-0.5,0.1-3.1,0.6-5.1,5c-2.4-0.7-8.4-1.3-23.9-1.4c-4.1,0-8.3,0-11.9,0
		c2.4-1.8,4.5-4,6-6.5c1.7-2.8,2.8-5.8,3.4-8.8c0.6-3,0.7-6,0.5-9c0-0.5-0.4-0.9-0.9-0.9c-0.6-0.1-1,0.3-1.1,0.9l0,0
		c-0.4,2.8-1,5.5-2.1,8c-1,2.4-2.4,4.6-4,6.4c0.4-1.7,0.5-3.4,0.6-5.1c0-1.2,0-2.3-0.1-3.5c-0.1-1.2-0.3-2.2-0.5-3.4
		c-0.1-0.4-0.4-0.8-0.9-0.8c-0.6,0-1,0.4-1,0.9v0.1c-0.1,1-0.2,2.1-0.4,3.1c-0.2,1-0.4,2.1-0.7,3c-0.1,0.4-0.3,0.8-0.4,1.2
		c-0.3-1-0.6-2.1-1-3s-0.9-1.8-1.4-2.7c-0.3-0.4-0.6-0.8-0.9-1.2c-0.3-0.4-0.6-0.7-1-1.2c-0.3-0.3-0.7-0.4-1.2-0.2
		c-0.5,0.2-0.7,0.8-0.5,1.3l0,0.1c0.1,0.3,0.3,0.7,0.4,1.2c0.1,0.4,0.3,0.8,0.4,1.2c0.2,0.8,0.4,1.6,0.4,2.5c0.1,1.4,0,2.8-0.3,4.1
		c0,0.3,0,0.6,0,0.8c0,2.2-0.9,3.8-2.3,5.5c1.2-1.4,0,0-0.2,0.4c-0.3,0.4-0.5,0.9-0.8,1.3c-0.4,0.8-0.9,1.6-1.2,2.5
		c-0.3,0.7-0.6,1.3-0.9,2c-0.6,0.1-1,0.6-1,1.1c0,0.2,0.1,0.4,0.2,0.6c-0.3,0.6-0.6,1.2-0.9,1.8l0,0c0.1,0.1,0.3,0.2,0.5,0.3
		c0.8,0.5,1.7,0.7,2.7,0.6l0.1,0h0.1l0.2,0c0.1,0,0.3,0,0.4-0.1c0.2,0,0.4-0.1,0.7-0.1c0.4-0.1,0.9-0.2,1.3-0.4
		c0.8-0.3,1.6-0.6,2.4-0.9c0.6-0.3,1.1-0.5,1.6-0.8c18.7-0.2,37,0.2,39.3,1.5c2.4,4.8-0.5,10-8.8,15.5c-1,0.7-3.1,1.8-5.6,3.1
		c-12.5,6.6-35.6,18.8-33.6,31.1v0c0.3,1.2,24.3,115.6,28.2,156.9c3.8,40.9-8.6,57.8-26.7,77.2c-5.9,6.3-10.4,14.5-13.2,23.7
		c-2.2,7.5-3.3,15.6-2.8,22.2c0.2,2.9,0.9,8.1,3.3,10c4.8,3.9,10,10,9.9,12.8c0,0.5-0.2,0.8-0.4,0.9c-1.5,1.2-7.4,1.1-13-0.6
		c-3.7-1.2-6.1-2.8-6.6-4.4c-1.7-5.9-5.3-54.1,0.7-65.9c6.1-11.9,7.6-22.2-3.2-39.2c-0.3-0.5-1-0.7-1.5-0.3c-0.5,0.3-0.7,1-0.3,1.5
		c9.3,14.7,9.1,23.7,4.6,33.9c-0.2,0.1-0.4,0.2-0.5,0.4c-9,12.4-26.2,29.7-44.8,43.3c-2.6-8.1-8.4-9.9-11.2-10.3
		c3.6-3.7,6.8-7.4,9.6-11.2c9.9-13.6,13.7-26.6,15.9-37.8c0,0.1,0,0.3,0,0.5l7.2,1.6c6.5,1.4,12.9-2.7,14.4-9.1l0,0
		c1.4-6.5-2.7-12.9-9.1-14.4l-9.4-2.1c0.3-6.5,0.5-14.3,0.6-23l11.2,0.5c7.5,0.3,14-5.6,14.3-13.1c0.3-7.5-5.6-14-13.1-14.3
		l-12.3-0.6c0-5.7-0.1-11.6-0.2-17.5l10.7-0.3c7.5-0.2,13.5-6.6,13.3-14.1l0,0c-0.2-7.5-6.6-13.5-14.1-13.3l-10.3,0.3
		c-0.1-6.2-0.3-12.4-0.4-18.4h6.2c6.1,0,11-5,11-11l0,0c0-6.1-5-11-11-11h-6.8c-0.9-28.1-1.7-49.3-1.8-51.8c0-0.6-0.6-1.1-1.2-1.1
		c-0.6,0-1.1,0.6-1.1,1.2c0.1,1.7,6.9,172.5,1.5,202.4l-0.1,0.8c-2.2,12.5-5,28-16.9,44.4c-14,19.1-37.8,35.9-72.7,51.2
		c-0.5,0.2-0.7,0.7-0.6,1.3c0.1,0.5,0.6,0.9,1.1,0.9h0c0.3,0,30.5-1.2,59.5-17.4c17-9.5,34.6-24.2,47.7-37.7
		c0.6,4.1,1.7,14.6-0.8,22.4c-3.2,9.9-3.6,21.5-0.1,23.7c2.8,1.8,9.1,1.6,11.4,1.4c0.3,1.9,0.5,3.3,0.7,4c0.9,3.1,4.9,4.9,8.1,5.9
		c2.9,0.9,6.5,1.5,9.5,1.5c2.4,0,4.5-0.4,5.6-1.3c0.8-0.6,1.2-1.6,1.2-2.7c0-4.3-6.4-11-10.8-14.6c-1-0.8-2.1-3.4-2.5-8.4
		c-0.9-12.4,3.6-31.6,15.4-44.3c18.5-19.9,31.2-37.1,27.3-79c-3.9-41.2-27.8-154.9-28.3-157.2c-1.7-10.7,21.4-22.9,32.5-28.7
		c2.7-1.4,4.7-2.5,5.8-3.2c6-4,12.3-9.9,10.2-16.6c1.2,0.2,2.3,0.3,3.2,0.3c2.8,0,3.9-1,4.3-1.5C520,323.6,519.8,322.1,518.5,320.4z
		 M412.7,539.8c0-1,0-2.1,0-3.2C412.7,537.6,412.7,538.7,412.7,539.8z" style="fill:#191919;"/>
	<g>
		<path d="M458.8,424.5c0.2,0.8,2.5,13.9,9.4,21.5c7,7.6,20.6,27.3,22.8,34.5c2.1,7.2,3.6,21.2-1,21.5
			c-4.6,0.4-9.6-14.1-9.6-14.1s-5.2-13.2-14.7-18.7c-9.4-5.5-24.7-23.6-27.6-38.1C435.3,416.8,455.6,412.4,458.8,424.5z" style="fill:#FECE2F;"/>
		<g>
			<path d="M489.5,503.4c-3.7,0-5.5-4-8.4-11c-0.8-1.9-1.7-4-2.8-6.3c-3.2-7.1-7.8-11.1-14-16.7
				c-3.5-3.1-7.5-6.7-12.1-11.6c-17.5-18.4-17.3-40.9-17.3-41.8c0-0.6,0.5-1.1,1.1-1.1l0,0c0.6,0,1.1,0.5,1.1,1.1
				c0,0.2-0.1,22.5,16.7,40.3c4.6,4.8,8.5,8.3,12,11.4c6.4,5.7,11.1,9.9,14.5,17.4c1.1,2.4,2,4.5,2.8,6.4c3,7.1,4.4,9.9,6.8,9.6
				c0.5-0.1,0.9-0.6,1.2-1.1c1.9-3.7,1.5-15-5.2-27.7c-2.7-5.2-6.8-10.1-11-15.3c-8.4-10.3-17.1-20.9-16.9-34.7
				c0-0.6,0.5-1.1,1.1-1.1c0,0,0,0,0,0c0.6,0,1.1,0.5,1.1,1.2c-0.2,12.9,8.2,23.2,16.4,33.2c4.4,5.3,8.5,10.3,11.3,15.7
				c3.9,7.4,5.5,13.8,6,17.8c0.7,5.1,0.4,9.4-0.9,11.9c-0.9,1.7-2.1,2.2-2.9,2.3C490,503.4,489.8,503.4,489.5,503.4z" style="fill:#191919;"/>
		</g>
	</g>
</g>
<g>
	<g>
		<path d="M580.9,401.5c0-0.9-9.3-0.6-9.3-0.6l-22.8-0.4l-30.6-5l-9.9-1.5l-19,26.3l-0.4,9.3l36.8,9.1h9.9
			c0,0,3.5-6.7,7.8-9.7c4.3-3,23.9-15.7,23.9-15.7S580.7,405.8,580.9,401.5z" style="fill:#FECE2F;"/>
	</g>
	<g>
		<path d="M509,396.2c3,0,36.2,15.1,70.6,6.3l1.3-1.1l-36.4-1.9l-36.2-5.6L509,396.2z" style="fill:#FFFFFF;"/>
	</g>
	<g>
		<path d="M535.6,455.4l8,32.3l4.5,20.7l10.5,54.7c0,0,4.7,28.6,0.9,45.7c-3.7,17.2-13.6,31.7-17.5,36
			c-3.9,4.3-17.4,17.4-19.8,34.3s3.4,22.6,6.2,24.1c2.8,1.5,6.5,5,5,8c-1.5,3-10.8,0.6-10.8,0.6s-7.3-0.2-10.1-9.5
			c-2.8-9.3-1.5-35.6-1.5-35.6l4.3-11.6c0,0,4.5-10.1,3.5-16.4c0,0-11.2,18.3-19.2,27.1c-8,8.8-22.8,24.1-38.8,31.4l-7.3-12.7
			c0,0,13.8-9.7,22.9-23.5c9.1-13.8,13.8-33.1,14.2-42.4c0.4-9.3,0.7-43.4,0.7-43.4l-0.6-60.1l-0.1-26.9l2.7-13.6l14.2-15.9
			L535.6,455.4z" style="fill:#FECE2F;"/>
	</g>
	<g>
		<path d="M535.7,455c0,0-5,61.5-4.2,111.1c1,67.1,18.3,68.3,18.3,68.3s15-18.7,10.3-58.2
			C555.4,536.6,535.7,455,535.7,455z" style="fill:#FFFFFF;"/>
	</g>
	<path d="M582.1,392.7c-3.2,0-5.9,2.7-5.9,5.9c0,0.4,0,0.7,0.1,1.1c-5.6,0.2-21.9,0.5-36.3-1.8
		c-16.6-2.6-29.3-5.4-31.1-5.8c-0.5-0.1-1-0.3-1.6-0.3c-3.6-0.1-9.6,1.4-17.3,8.5c-6.2,5.8-8.7,11.9-6.8,16.7
		c0.9,2.4,2.8,4.1,5.1,4.8c-0.3,2.1-0.7,5-0.6,7.8c0,0.6,0.5,1.1,1.1,1.1c0,0,0,0,0,0c0.6,0,1.1-0.5,1.1-1.2c0-2.7,0.3-5.5,0.6-7.5
		c5.1,0,12.7-5,17.7-11.5c4-5.2,5.5-10.5,4.3-14.8c-0.1-0.3-0.1-0.5-0.3-0.7c1.6,0.3,3.5,0.7,5.8,1.2c0,0,0.2,0,0.3,0.1
		c0.4,0.1,1.2,0.6,1.7,1.5c0.6,1.2,0.5,2.8-0.3,4.9c-0.1,0.4-0.3,0.8-0.5,1.2c-1.9,4.5-5.3,13,1.6,17.3c2.2,1.4,4.7,2.1,7.4,2.1
		c5.5,0,11.3-2.9,15.9-8.4c4.8-5.7,13.7-12.1,17.7-12.8c0.5,0,0.8-0.1,0.9-0.1c0.1,0,0.2,0,0.3-0.1c6.6,0.1,11.9,0,14.3-0.1
		c0.3,0.5,0.8,1,1.3,1.3c-0.6,1.2-2.4,3.4-8.5,7.4c-2.4,1.5-4.9,3.1-7.6,4.8c-13.5,8.4-27.5,17.2-28,24.1c0,0.6,0.4,1.2,1,1.2
		c0,0,0,0,0.1,0c0.6,0,1.1-0.4,1.1-1c0.4-5.8,15.2-15,27-22.4c2.7-1.7,5.2-3.2,7.6-4.8c5.2-3.3,8.2-6,9.3-8.2c0.5,0.1,1,0.2,1.6,0.2
		c3.2,0,5.9-2.7,5.9-5.9C588.1,395.3,585.4,392.7,582.1,392.7z" style="fill:#191919;"/>
	<g>
		<g>
			<path d="M535.6,438.8l-9.3,0.3l-17.8-4.5l-19.6-4.9c0,0-2.2,3.4-1.7,6.9s2.2,5.2,2.2,5.2s-3.8,5.3-3.4,9.8
				c0.4,4.5,4.1,7.1,4.7,7.3c0.6,0.2,10.9,0.4,10.9,0.4l17.9-1.5c0,0,15.1-1.7,16.6-3.4c1.5-1.8,1.8-6.3,1-10.1
				C536.4,440.4,535.6,438.8,535.6,438.8z" style="fill:#FECE2F;"/>
		</g>
		<g>
			<path d="M507.4,458.6c0,0-1.4,9.6-7.3,16.4s-12,18.7-13.1,29.5s-2.7,22.8-2.7,22.8s-4.9-5.7-10.1-6.2
				c-5.2-0.5-17.2-3.3-17.1-12.6c0,0,4.1-10.2,8.2-14.1c0,0-0.4-7.2-2.7-11.6c-2.3-4.4-6.6-9.4-6.6-9.4s13.6-2.5,17.4-3
				c3.7-0.4,8.5-4.1,8.5-4.1l6.8-7.7L507.4,458.6z" style="fill:#FECE2F;"/>
		</g>
		<g>
			<path d="M488.8,458.8l0.1,8.7c0,0-6.2,5.9-13.3,7c-7.1,1.1-11.5,2.2-14.1,6l-5.9-6.5l15.6-2.7
				C471.2,471.2,481.9,469.2,488.8,458.8z" style="fill:#FFFFFF;"/>
		</g>
		<g>
			<path d="M489.9,459.6l6.1,0.1c0,0-1.1,14.1-9.6,22.7c-8.5,8.6-19.3,22.1-17.8,36.7c0,0-9.1,0.9-11.6-10.6
				c0,0,2.4-9.6,14.1-18.1c11.7-8.5,12.8-11.3,15.6-15.9C489.4,469.8,489.9,459.6,489.9,459.6z" style="fill:#FFFFFF;"/>
		</g>
		<path d="M537.3,441.4c-0.5-1.8-2.1-3.1-4-3.2c-1.5,0-3.6,0-6.3,0c-0.1-0.1-0.3-0.3-0.5-0.3l-36.4-8.9
			c-0.7-0.2-1.6,0-2.2,0.4s-1.1,1.1-1.3,1.9c-0.5,2.7-0.9,7.4,1.3,10.6c-1.8,1.9-2.8,5.8-2.9,9c-0.1,3.4,0.8,6.2,2.6,7.8
			c-1.7,2.5-7.3,9.8-14.7,11c-9.4,1.5-17.4,3.2-17.4,3.2c-0.4,0.1-0.7,0.4-0.9,0.8c-0.1,0.4,0,0.8,0.3,1.1c0.1,0.1,10.7,10.1,9,20.2
			c-6.3,6.6-8,12.9-8,13.2c0,0.1,0,0.2,0,0.3c0,2.6,1.1,5.5,3,7.7c1.6,1.9,4.6,4.3,9.4,4.6c9.8,0.7,15.2,8.2,15.2,8.3
			c0.2,0.3,0.6,0.5,0.9,0.5c0.1,0,0.2,0,0.3,0c0.4-0.1,0.8-0.6,0.8-1c1.6-33,8-44.3,14.6-51.6c6.5-7.1,7.9-14.3,8.2-17
			c0.5,0,1-0.1,1.6-0.1c9.7-0.9,20-2.3,23.9-2.9c2-0.3,3.6-1.8,4.1-3.7C539,449.1,538.2,444.5,537.3,441.4z M488.8,431.7
			c0-0.2,0.2-0.3,0.3-0.4c0.1,0,0.3-0.1,0.5-0.1l29.5,7.2c-11.3,0.4-25.2,1.2-29.3,2.3C488,438,488.5,433.6,488.8,431.7z
			 M487.2,450.9c0.1-4,1.7-7.4,2.8-8c0.5-0.3,2.7-0.6,6-0.9c-0.4,0.4-0.7,0.7-1,1.2c-0.3,0.4-0.7,1-0.9,1.6s-0.4,1.3-0.3,2
			s0.3,1.4,0.6,2c0.3,0.6,0.8,1.1,1.2,1.5c0.9,0.8,1.8,1.3,2.5,1.9s1.3,1.1,1.6,1.7c0.3,0.6,0.4,1.4,0.3,2.3
			c-0.1,0.7-0.3,1.4-0.6,2.1c-5.1,0.2-8.5-0.1-9.5-0.7C487.4,456,487.1,452.7,487.2,450.9z M488.2,461.6c0.1,5.6-1.3,10-3.6,13.8
			c-0.1-0.3-0.1-0.7-0.2-1.2c-0.1-0.6-0.1-1.2-0.4-1.9c-0.1-0.2-0.2-0.4-0.3-0.6c-0.1-0.1-0.1-0.2-0.2-0.3c-0.1-0.1-0.1-0.1-0.2-0.2
			c-0.3-0.3-0.6-0.5-0.9-0.7c-0.9-0.6-1.9-0.9-2.9-1C483.4,467.3,486.4,463.9,488.2,461.6z M473.2,471.8c0.8-0.1,1.6-0.3,2.3-0.6
			c0.9,0.2,1.9,0.3,2.8,0.5c1,0.2,2,0.5,2.7,0.9c0.2,0.1,0.3,0.2,0.4,0.3c0,0,0.1,0.1,0.1,0.1c0,0,0,0,0.1,0.1s0.1,0.1,0.1,0.2
			c0.1,0.3,0.3,0.8,0.5,1.3s0.4,1.2,0.8,1.8c0.1,0.2,0.3,0.4,0.5,0.6c-2.7,3.7-6.2,6.8-9.8,9.6c-0.6-0.4-1-0.9-1.2-1.5
			c-0.3-0.7-0.2-1.8-0.1-2.8c0.1-1.1,0.3-2.3,0.2-3.5c0-0.6-0.1-1.3-0.3-1.9c0-0.1-0.1-0.3-0.1-0.5c0-0.1-0.1-0.2-0.1-0.3
			c0-0.1-0.1-0.2-0.1-0.3c-0.2-0.4-0.5-0.7-0.8-1c-0.6-0.5-1.2-0.9-1.8-1.1c-0.6-0.3-1.2-0.4-1.8-0.6c-0.4-0.1-0.8-0.1-1.2-0.2
			C468.4,472.6,470.8,472.2,473.2,471.8z M457.9,474.6C457.9,474.6,457.9,474.6,457.9,474.6c2,0.1,3.9,0.3,5.8,0.5
			c1.1,0.1,2.1,0.3,3.1,0.6c0.5,0.1,1,0.3,1.4,0.5c0.4,0.2,0.8,0.4,1.1,0.6c0.1,0.1,0.2,0.2,0.3,0.3c0,0,0,0,0,0.1s0,0,0,0.1
			c0,0.1,0.1,0.2,0.1,0.3c0.1,0.4,0.2,0.9,0.3,1.4c0.1,1,0,2,0,3.2c0,0.6,0,1.2,0,1.8c0.1,0.6,0.2,1.3,0.6,2
			c0.3,0.6,0.9,1.2,1.4,1.5c0.1,0.1,0.2,0.1,0.3,0.1c-0.4,0.3-0.7,0.6-1.1,0.9c-1.1,0.9-2.2,1.7-3.2,2.5c-0.6,0.5-1.2,1-1.7,1.5
			C466.3,484.7,460.6,477.6,457.9,474.6z M483.4,525.5c-2.5-2.6-7.6-6.5-15-7.1c-4.3-0.3-10.3-3.6-10.3-9.9c0.2-0.8,1.6-4.9,5.4-9.7
			c0.1-0.1,0.3-0.1,0.4-0.2c0.2-0.1,0.3-0.1,0.5-0.2c0.3-0.1,0.7-0.3,1.1-0.3c0.7-0.1,1.5-0.2,2.1-0.1c0.7,0.1,1.2,0.4,1.6,0.8
			c0.2,0.2,0.4,0.5,0.5,0.7c0.1,0.3,0.2,0.6,0.3,0.8c0,0.6-0.1,1.1-0.4,1.8c-0.3,0.6-0.7,1.3-1.2,2.2c-0.2,0.4-0.4,0.9-0.6,1.5
			s-0.2,1.2-0.1,1.9c0.1,0.7,0.4,1.3,0.8,1.9c0.3,0.5,0.8,1,1.4,1.3c0.6,0.4,1.3,0.6,1.9,0.6s1.2,0,1.7-0.1c1-0.2,1.8-0.6,2.5-0.8
			c0.7-0.3,1.4-0.4,1.8-0.4c0.2,0,0.4,0.1,0.5,0.2c0.1,0.1,0.2,0.1,0.3,0.3c0.1,0.1,0.2,0.2,0.3,0.4c0.3,0.5,0.5,1.1,0.6,1.9
			c0.1,0.7,0.1,1.6,0.4,2.7c0.1,0.5,0.4,1,0.7,1.5c0.3,0.4,0.7,0.8,1.1,1.2c0.7,0.6,1.4,0.9,2.1,1.2
			C483.7,521.4,483.6,523.4,483.4,525.5z M484.1,517.1c-0.3-0.2-0.6-0.4-0.9-0.6c-0.5-0.4-0.8-0.9-1-1.5c-0.2-0.6-0.2-1.4-0.3-2.3
			c-0.1-0.9-0.3-1.9-0.8-2.9c-0.1-0.2-0.3-0.4-0.4-0.7c-0.1-0.2-0.4-0.4-0.6-0.7c-0.4-0.4-1.1-0.7-1.7-0.9s-1.2-0.2-1.7-0.1
			c-0.5,0-1,0.1-1.5,0.2c-0.9,0.1-1.7,0.3-2.3,0.4c-0.3,0-0.6,0-0.8,0c-0.2,0-0.3-0.1-0.4-0.1c-0.1-0.1-0.2-0.2-0.4-0.4
			c-0.1-0.1-0.2-0.3-0.2-0.4c0-0.1-0.1-0.3,0-0.6c0-0.3,0.1-0.6,0.2-0.9c0.2-0.7,0.5-1.5,0.7-2.5c0.2-0.9,0.4-2.1,0.1-3.1
			c-0.1-0.5-0.4-1-0.6-1.5c-0.3-0.4-0.6-0.9-1-1.2c-0.8-0.7-1.8-1.2-2.8-1.3c-0.6-0.1-1.2-0.1-1.8,0c1-1,2.2-2.1,3.4-3.1
			c1-0.8,2.1-1.6,3.2-2.5c0.2-0.1,0.4-0.3,0.6-0.5c0.6-0.2,1.2-0.4,1.7-0.4c1-0.1,2-0.1,2.7,0.3c0.3,0.2,0.6,0.4,0.7,0.7
			c0,0,0,0.1,0.1,0.1l0.1,0.1l0.1,0.3c0.1,0.2,0.2,0.4,0.3,0.6c0.1,0.4,0.2,0.7,0.3,1.1c0.1,0.4,0.1,0.8,0.1,1.3c0,0.4,0,0.9,0,1.5
			c-0.1,0.6-0.1,1.2,0,1.8c0,0.3,0.1,0.6,0.2,1c0.1,0.3,0.3,0.7,0.6,1.1c0.1,0.2,0.3,0.3,0.5,0.4c0.1,0.1,0.4,0.2,0.6,0.3
			c0.4,0.1,0.8,0.1,1.2,0.1c0.7-0.1,1.3-0.3,1.7-0.4c0.2-0.1,0.4-0.1,0.6-0.1c0.2,0,0.4,0,0.6,0c0.6,0,1.2,0.3,1.5,0.8
			C485.6,505.2,484.7,510.6,484.1,517.1z M487,498.6c-0.6-0.4-1.2-0.6-1.8-0.6c-0.3,0-0.6,0-0.9,0c-0.4,0-0.6,0.1-0.9,0.2
			c-0.5,0.1-1,0.3-1.3,0.3c-0.2,0-0.3,0-0.4-0.1c0,0-0.1,0-0.1-0.1c0,0-0.1,0-0.1-0.1c0,0-0.1-0.1-0.1-0.3c0-0.1,0-0.3,0-0.6
			c0-0.4,0.1-0.9,0.2-1.3c0.1-0.5,0.3-1.1,0.4-1.7c0.1-0.6,0.1-1.2,0-1.9s-0.4-1.3-0.7-1.8c-0.1-0.3-0.3-0.5-0.5-0.7
			c-0.1-0.1-0.2-0.2-0.3-0.3l-0.3-0.3c-0.5-0.6-1.1-0.9-1.8-1.2s-1.3-0.3-1.9-0.3c-0.2,0-0.4,0-0.6,0c2.7-2.2,5.3-4.4,7.6-7.1
			c0.8-0.3,1.6-0.5,2.4-0.6c0.4-0.1,0.9-0.1,1.2,0c0.1,0,0.1,0,0.2,0.1c0.1,0,0.1,0,0.2,0.1c0,0,0,0,0.1,0h0l0.1,0
			c0.1,0.1,0.1,0.1,0.2,0.2c0.6,0.6,1.2,1.5,2,2.4c0.4,0.4,0.8,0.9,1.3,1.3c0.2,0.2,0.5,0.3,0.7,0.5
			C490.1,488.4,488.4,492.8,487,498.6z M498.5,475.4c-1.9,2.1-3.8,4.5-5.6,7.5c-0.4-0.4-0.8-0.9-1.2-1.5c-0.3-0.4-0.6-0.9-0.9-1.4
			c-0.3-0.5-0.7-1-1.2-1.5c-0.1-0.1-0.3-0.2-0.4-0.3l-0.1-0.1l-0.1-0.1l-0.3-0.2c-0.2-0.1-0.4-0.2-0.6-0.3s-0.4-0.1-0.6-0.1
			c-0.6-0.1-1.1-0.1-1.6,0c1.2-1.7,2.2-3.6,2.9-5.7c0.1,0,0.1-0.1,0.2-0.1c0.3-0.2,0.5-0.4,0.8-0.5c0.5-0.3,1.1-0.6,1.6-0.7
			c0.5-0.1,1-0.1,1.5,0c0.2,0,0.4,0.1,0.7,0.3c0.1,0.1,0.6,0.4,0.9,0.5c1.5,0.7,3.1,1.1,4.7,1.1c0.6,0,1.3,0,1.9-0.1
			C500.3,473.2,499.5,474.3,498.5,475.4z M502.6,469.7c-0.4,0.1-0.9,0.2-1.4,0.2c-0.6,0-1.3,0-1.9,0c-1.3-0.1-2.5-0.4-3.6-1
			c-0.3-0.1-0.4-0.3-0.9-0.5c-0.4-0.2-0.9-0.4-1.3-0.5c-0.9-0.2-1.9-0.1-2.8,0.2c-0.3,0.1-0.6,0.3-0.9,0.4c0.6-2.5,0.7-5.3,0.5-8.5
			c1.2,0.3,3.1,0.4,6,0.4c2.4,0,5.6-0.1,9.7-0.4C505.8,461.9,505,465.6,502.6,469.7z M513,455.1c-0.2,0.7-0.5,1.5-1,2.2
			c-1.5,0.1-3,0.3-4.4,0.4c-0.1,0-0.2,0-0.3,0c0,0,0,0,0,0c-0.1,0-0.3,0-0.4,0.1c-2,0.1-3.8,0.3-5.5,0.4c0.2-0.5,0.4-1,0.5-1.6
			c0.3-1.1,0.3-2.4-0.2-3.7c-0.3-0.6-0.6-1.2-1-1.6c-0.4-0.4-0.9-0.8-1.3-1.2c-0.9-0.7-1.7-1.2-2.3-1.8c-0.3-0.3-0.5-0.6-0.7-0.8
			c-0.1-0.3-0.2-0.6-0.3-0.9c0-0.6,0.2-1.3,0.7-2c0.4-0.7,1.1-1.4,1.8-2.1c0.4-0.4,0.7-0.7,1.1-0.9c3.2-0.3,6.9-0.5,10.7-0.7
			c-0.1,0.1-0.2,0.2-0.3,0.3c-0.6,0.6-1.3,1.3-1.9,2.2c-0.3,0.4-0.6,1-0.7,1.6c-0.1,0.6-0.2,1.3-0.1,1.9c0.2,1.3,0.9,2.3,1.7,3.1
			c0.4,0.4,0.9,0.7,1.4,1c0.4,0.3,0.9,0.4,1.2,0.6c0.7,0.4,1,0.7,1.3,1.3c0.1,0.3,0.1,0.6,0.2,1C513.2,454.4,513.1,454.7,513,455.1z
			 M526.6,453.8c-0.1,0.4-0.2,0.7-0.3,1.1c0,0.1-0.1,0.3-0.2,0.4c-0.1,0-0.2,0.1-0.3,0.1c0,0-0.1,0.1-0.1,0.2c0,0-0.1,0.1-0.1,0.1
			l0,0c-3.9,0.5-7.6,0.9-11,1.3c0.2-0.4,0.4-0.8,0.6-1.3c0.2-0.5,0.3-1.1,0.3-1.6c0-0.6,0-1.2-0.2-1.8c-0.2-0.6-0.5-1.2-0.9-1.7
			c-0.4-0.5-0.9-0.8-1.4-1.1c-0.4-0.3-0.9-0.5-1.2-0.7s-0.6-0.4-0.9-0.6c-0.5-0.5-0.9-1.1-1-1.6c0-0.3,0-0.6,0-0.9
			c0.1-0.3,0.2-0.6,0.4-0.9c0.4-0.6,0.9-1.3,1.5-2.1c0.5-0.6,1-1.3,1.5-2c3.5-0.2,7-0.3,10.2-0.4c-0.7,0.6-1.3,1.1-1.9,1.9
			c-0.3,0.4-0.6,1-0.8,1.6c-0.2,0.6-0.2,1.4,0,2.1s0.6,1.3,0.9,1.7c0.4,0.4,0.8,0.8,1.3,1.1c0.4,0.3,0.9,0.6,1.3,0.7
			c0.4,0.2,0.7,0.4,1.1,0.6c0.3,0.2,0.6,0.4,0.8,0.7c0.2,0.2,0.3,0.4,0.4,0.7C526.7,452.2,526.7,453,526.6,453.8z M535.8,452.6
			c-0.3,1.1-1.2,1.9-2.2,2.1c-1.8,0.3-3.6,0.5-5.3,0.7c0.1-0.3,0.3-0.7,0.4-1c0.1-0.5,0.3-1,0.3-1.6c0-0.5,0-1.1-0.1-1.7
			c-0.1-0.6-0.4-1.2-0.8-1.7c-0.4-0.5-0.8-0.9-1.3-1.2c-0.9-0.6-1.8-1-2.4-1.5c-0.6-0.4-1.1-0.9-1.2-1.3c0-0.2-0.1-0.4,0-0.7
			c0.1-0.3,0.2-0.6,0.4-0.9s0.4-0.6,0.7-0.9s0.6-0.6,0.9-0.9c0.6-0.6,1.2-1.1,1.8-1.6c0.8,0,1.5,0,2.2,0c1.4,0,2.7,0,3.9,0.1
			c0.9,0,1.7,0.6,1.9,1.5C535.8,444.3,536.7,448.8,535.8,452.6z" style="fill:#191919;"/>
	</g>
	<g>
		<path d="M544.2,419.1c0.1,0,0.3,0,0.4,0.1c0.1,0,0.3,0,0.5,0c0.3,0,0.7,0,1,0c0.7,0,1.3-0.1,2-0.3
			c0.6-0.1,1.3-0.4,1.9-0.7c0.6-0.3,1.1-0.7,1.6-1.2l0,0c0.3-0.3,0.7-0.2,1,0.1c0.2,0.3,0.2,0.6,0,0.9c-0.5,0.7-1,1.3-1.6,1.8
			c-0.6,0.5-1.3,1-2.1,1.3s-1.5,0.6-2.3,0.9c-0.4,0.1-0.8,0.2-1.2,0.3c-0.2,0-0.4,0.1-0.6,0.1c-0.2,0-0.4,0-0.7,0.1h-0.2
			c-0.9,0-1.8-0.7-1.8-1.6s0.7-1.8,1.6-1.8C543.9,419,544.1,419,544.2,419.1z" style="fill:#191919;"/>
	</g>
	<g>
		<path d="M528.6,386.5c-1.2-0.1-2.4-0.3-3.6-0.1s-2.4,0.8-3,1.8c-0.2,0.3-0.3,0.6-0.3,1c-0.1,1.2,0.7,2.3,1.8,2.8
			s2.3,0.6,3.5,0.5c1.2,0,2.4-0.1,3.5,0.1c0.8,0.2,1.6,0.6,2.4,0.3c0.5-0.1,0.9-0.5,1.2-0.9c0.6-0.7,1-1.7,0.9-2.7
			C534.6,387.1,530.5,386.8,528.6,386.5z" style="fill:#191919;"/>
	</g>
	<path d="M538.2,650.6c13.7-14.7,25.7-30.9,23.4-68.3c-2.2-36.3-24.7-126.7-24.9-127.6c-0.1-0.6-0.7-1-1.3-0.8
		c-0.6,0.1-1,0.7-0.8,1.3c0.2,0.9,22.7,91.2,24.9,127.2c2.2,36.5-9.5,52.3-22.8,66.6c-15,16.1-18.5,35.6-15.3,46.8
		c1.7,6,5.3,8.1,8,9.7c2.5,1.5,3.7,2.2,3.3,4.7c-0.1,0.4-0.7,0.7-1.6,1c-3.8,1-12.3-0.6-15.1-4.2c-1.8-2.4-3.3-7.8-4.1-14.7
		c-0.8-7.5-0.7-16.2,0.3-24.6c0.7-5.5,2.4-9.1,4.1-12.7c1.8-3.8,3.5-7.4,3.9-12.7c0.4-6.1-1.8-12.2-4.1-18.7
		c-1.6-4.5-3.4-9.2-4.1-14c-0.1-0.6-0.7-1-1.3-0.9s-1,0.7-0.9,1.3c0.8,5,2.5,9.7,4.2,14.4c1.8,4.9,3.5,9.6,3.9,14.1l0,0
		c-18.6,28.6-35.8,46.4-55.6,56.9c-0.6-6.5-4.5-9.4-6.8-10.5c6.2-5,12-10.5,16.8-16.4c2.5-3.1,4.7-6.2,6.6-9.4
		c4.2,0.8,7,0.6,7.8-0.9c0.7-1.5-0.7-3.9-3.7-6.8c1.5-3.3,2.8-6.6,3.9-9.9c6.1,0.3,10.2-0.4,10.7-2.4c0.6-1.9-2.6-4.7-8-7.7
		c1.3-6.2,2.1-12.3,2.6-18.1c8.5-0.5,14.1-2.1,14.4-4.6c0.3-2.5-5.3-5.3-13.9-7.5c0.1-4.2,0-8.1,0-11.6c0-1.2,0-2.4,0-3.5
		c0-0.6,0-1.2,0-1.8c12.1-1.1,20.5-3.7,20.5-6.8c0-3.1-8.5-5.7-20.7-6.8c0-4.7-0.1-10-0.1-15.5c12.9-1,22.1-3.7,22.1-6.9
		c0-3.2-9.3-5.9-22.3-6.9c0-5.3-0.1-10.6-0.1-15.7c10-1.2,16.8-3.6,16.8-6.3s-6.8-5.1-16.9-6.4c-0.1-12.8-0.2-22.1-0.2-22.1l-2.2,0
		c0,0,0.7,75.9,0.9,95.1c0,1.1,0,2.3,0,3.5c0.3,19.4,0.7,52-19.7,77.2c-17.7,21.7-49.4,38.4-64.5,40.8c-0.6,0.1-1,0.6-0.9,1.2
		c0.1,0.6,0.5,1,1.1,1h0c0.2,0,20.9-0.7,33.6-4c23.8-5.9,43-18.7,62.2-42.3c0.8,3.8,2.6,14.9,0.1,25.3c-1.9,7.6-4.6,14,9.9,15.2
		c0.6,1.6,1.3,2.9,2.1,4c2.7,3.6,9.3,5.4,14.1,5.4c1.2,0,2.3-0.1,3.2-0.3c2.4-0.6,3.1-1.9,3.2-2.8c0.7-4.1-1.9-5.6-4.4-7
		c-2.6-1.5-5.6-3.2-7-8.4c-1.6-5.9-1.3-13.5,1.1-21.3C527.2,665.5,531.9,657.4,538.2,650.6z" style="fill:#191919;"/>
	<g>
		<g>
			
				<ellipse transform="matrix(0.983 -0.1838 0.1838 0.983 -66.0438 105.0772)" cx="533.8" cy="408.8" rx="9.7" ry="4.6" style="fill:#FFFFFF;"/>
		</g>
		<path d="M544.3,406.9L544.3,406.9c-0.6-3.1-5.5-4.5-11.5-3.4c-2.7,0.5-5.1,1.5-6.9,2.7c-1.9,1.4-2.8,3-2.6,4.6
			c0.3,1.6,1.7,2.8,4,3.4c1.1,0.3,2.3,0.4,3.7,0.4c1.2,0,2.5-0.1,3.8-0.4C540.7,413.1,544.8,409.9,544.3,406.9z M534.5,412.5
			c-2.4,0.4-4.8,0.4-6.6,0c-1.6-0.4-2.6-1.1-2.8-2c-0.1-0.8,0.5-1.9,1.9-2.8c1.5-1.1,3.7-2,6.2-2.4c0.9-0.2,1.8-0.3,2.7-0.3
			c-1.7,1.2-2.7,2.6-2.4,3.8c0.3,1.4,1.9,2.4,4.3,2.8C536.7,411.9,535.7,412.2,534.5,412.5z" style="fill:#191919;"/>
	</g>
	<g>
		<g>
			<path d="M528.2,469.8c0,0-0.3,10.7,5.5,18.9c5.7,8.2,18.7,23.9,22.4,30.3s9.2,28.5,2.6,30.6
				c-6.6,2.1-8.1-15.6-15-23.5c-6.9-8-24.5-23.3-27.7-28.4c-3.2-5.1-9.2-18.6-9.3-24.3s7.6-7,11.2-7.1
				C521.4,466.3,527.3,465.2,528.2,469.8z" style="fill:#FECE2F;"/>
		</g>
		<g>
			<path d="M558.3,550.8c-3.7,0-5.5-4-8.4-11c-0.8-1.9-1.7-4-2.8-6.3c-3.2-7-7.6-10.9-13.7-16.3
				c-3.6-3.2-7.7-6.9-12.4-11.9c-12.8-13.7-15.3-30.3-15.4-31c-0.1-0.6,0.3-1.2,0.9-1.3c0.6-0.1,1.2,0.3,1.3,0.9
				c0,0.1,2.5,16.6,14.8,29.8c4.7,5,8.7,8.6,12.3,11.8c6,5.4,10.8,9.7,14.2,17.1c1.1,2.4,2,4.5,2.8,6.4c3,7.1,4.4,9.9,6.8,9.6
				c0.5-0.1,0.9-0.6,1.2-1.1c1-2.1,1.3-6,0.6-10.6c-0.6-3.8-2.1-10-5.8-17.1c-2.7-5.2-6.8-10.1-11-15.3
				c-8.4-10.3-17.1-20.9-16.9-34.7c0-0.6,0.5-1.1,1.1-1.1c0,0,0,0,0,0c0.6,0,1.1,0.5,1.1,1.2c-0.2,12.9,8.2,23.2,16.4,33.2
				c4.4,5.3,8.5,10.3,11.3,15.7c3.9,7.4,5.5,13.8,6,17.8c0.7,5.1,0.4,9.4-0.9,11.9c-0.9,1.7-2.1,2.2-2.9,2.3
				C558.8,550.8,558.5,550.8,558.3,550.8z" style="fill:#191919;"/>
		</g>
	</g>
</g>
<g>
	<path d="M232.9,594.6c0,0,2.2,12.7-1.8,25.6c-4,13-11.7,33.9-5,38.8c6.7,5,29.9,11.9,31.8,4s-9.7-13-10.7-18.4
		c-1-5.5-2.2-31.8,5.7-45.3s21.4-35.8,15.4-54.2C262.6,526.7,232.9,594.6,232.9,594.6z" style="fill:#191919;"/>
	<path d="M296.8,134.2c0,0-15.3,34.1-49.9,67.7s-74.4,47.3-74.4,47.3l7.2-28.4c0,0-15.4-37.6,10-66s58.7-23.6,71.9-18.2
		L296.8,134.2z" style="fill:#FECE2F;"/>
	<path d="M258.7,142.4l22.8,0.4c0,0-37.3,72.4-107.1,98.5l-1.9,7.8c0,0,23.4-9.4,44.3-22.7
		c20.9-13.2,44.3-37.3,58.2-57.2c13.9-19.9,22.5-35.6,22.5-35.6l-35.9,3.1L258.7,142.4z" style="fill:#FFFFFF;"/>
	<path d="M258.7,142.4c0,0-26.5-9.3-49.3,4.5c-22.8,13.8-24.6,43.7-17.5,65c-3,1.9-12.2,9-12.2,9s-11.3-25.8,0.3-51.5
		c11.6-25.8,38.4-35.8,51.5-36.6c13.1-0.7,30.1,4,30.1,4L258.7,142.4z" style="fill:#FFFFFF;"/>
	<path d="M314.6,159.3l45.3,1.5c0,0-0.3,6.7-13,17.2c-14.7,12.1-42.6,27.4-49.8,35.1c-7.2,7.7-11.5,9.7-6.5,42.8
		c5,33.1,14.9,78.1,14.9,78.1l12.4,59.5c0,0,6.5,36.1,7.5,47c1,10.9,6.7,50-4.2,82.1c-10.9,32.1-30.6,56.3-30.6,56.3l-23.6,25.5
		c0,0-13.6,20.8,0.4,45.8c14.1,25,20.6,23.2,16.1,32.9c-4.5,9.7-33-12.3-34.6-20.3c-1.6-8-7-31.7-6.3-40.6c0.7-9,1.7-22.2,3.5-28.6
		c1.9-6.3,11.6-23.9,11.9-27.8l-16.1,18c0,0-34.1,39.9-73.2,62.5S129.1,663,129.1,663l10.5-23.1c0,0,19.8-12.6,34.9-29.6
		c15.1-17,26.5-42.9,29.3-57.5c2.8-14.6,6.5-32.3,8.8-48.9c2.2-16.6,2.8-54.1,2.8-54.1l0.7-60.5l-2.1-47.6l-1.9-29.9l-0.4-25.9
		l-0.9-56.2c0,0,26.2-19,34-26.4c8.7-8.2,31.4-36.1,31.4-36.1l8.8-12C285,155.3,298,158,314.6,159.3z" style="fill:#FECE2F;"/>
	<path d="M260.9,674.3c-0.1,0.5-0.2,1.1,0,1.6c0.1,0.4,0.4,0.6,0.7,0.9c4.5,4,10.2,6.4,16,7.5c2.4,0.4,5.2,0.5,6.6-1.4
		c0.6-0.7,0.8-1.7,0.9-2.7c0.3-3.5-1.3-6.9-3.2-9.8c-1.4-2.1-3-4.1-4.4-6.2c-1.1-1.6-1.8-2.5-3.8-2.2c-3.9,0.5-7.7,3.1-10,6.2
		C262.3,670.1,261.3,672.2,260.9,674.3z" style="fill:#FFFFFF;"/>
	<path d="M310.6,158.6l48.5,2.1l0.3,2.6c0,0-11.9,5.7-47.5,2L310.6,158.6z" style="fill:#FFFFFF;"/>
	<g>
		<path d="M273,510.3c-0.4,0-0.8-0.2-1-0.6c-4.8-8.6-4.6-16.9-4.6-17.2c0-0.6,0.5-1.1,1.2-1.1c0.6,0,1.1,0.5,1.1,1.2
			l0,0c0,0.1-0.2,8,4.3,16.1c0.3,0.5,0.1,1.2-0.4,1.5C273.4,510.3,273.2,510.3,273,510.3z" style="fill:#FFFFFF;"/>
	</g>
	<g>
		<path d="M270.1,516.2c-0.4,0-0.7-0.2-0.9-0.5c-3.1-4.7-4.3-8.7-4.3-8.9c-0.1-0.6,0.2-1.2,0.8-1.4s1.2,0.2,1.4,0.8l0,0
			c0,0,1.1,3.8,4,8.2c0.3,0.5,0.2,1.2-0.3,1.6C270.5,516.2,270.3,516.2,270.1,516.2z" style="fill:#FFFFFF;"/>
	</g>
	<path d="M296.9,293.1c0,0-45.4,152.2,14,254.7c0,0,15.1-25.4,16.8-61.4s-5.2-68.1-10.3-93.9
		C312.4,366.7,296.9,293.1,296.9,293.1z" style="fill:#FFFFFF;"/>
	<path d="M369.4,156.3c-1.1-2.9-4.9-4.2-8.4-2.9c-1.6,0.6-3,1.8-3.8,3.2c-0.5,0.9-0.8,1.9-0.8,2.9
		c-9.8-0.1-43.7-0.7-70.6-4.4c-0.6-0.1-1.2,0.3-1.3,1c-0.1,0.4,0.1,0.8,0.4,1l-25,31.6c0,0,16.9,9.4,31.1,2.5
		c15.5-7.5,24.2-19.7,25.1-30.9c18.5,1.2,35.2,1.5,40.9,1.5c0.3,0.6,0.7,1.1,1.3,1.5c-1,4.5-8.5,13.7-28.1,25.6
		c-2.1,1.3-4.3,2.6-6.4,3.8c-20.1,12.1-37.4,22.5-37.1,39.3c0.4,17.7,9.6,64.3,17.5,102.9c0,0,0,0.1,0,0.1l11.8,55.5
		c0.1,0.5,0.6,0.9,1.1,0.9c0.1,0,0.1,0,0.2,0c0.6-0.1,1-0.7,0.9-1.3l-12.1-56.8v0c-7.9-38.3-16.9-83.9-17.2-101.2
		c-0.3-15.5,16.5-25.6,36-37.3c2.1-1.3,4.3-2.5,6.4-3.8c16.3-9.9,27-19.9,28.9-26.4c0.6,0.2,1.3,0.3,2,0.3c0.9,0,1.9-0.2,2.8-0.5
		c1.6-0.6,3-1.8,3.8-3.2C369.8,159.4,369.9,157.8,369.4,156.3z" style="fill:#191919;"/>
	<g>
		<path d="M361.3,289.2c1,0.9-0.3,6-6.3,10.3c0,0,5.1,2.9,3.4,10c-1.8,7.1-7,11.1-7,11.1s-5.5,4.7-10.8,2.7
			c0,0-5.1,4.9-3.2,12.7c1.9,7.8,7.6,31,7.6,31s5.9,6.8,4.6,13.2c-1.3,6.3-2.6,8.2-2.6,8.2l0.1,15.7l-27.3,0.4l-23.6-30.8l8.6-39.8
			l7.5-29c0,0,9.6-8.6,22-12.1C346.8,289.4,357.9,286.1,361.3,289.2z" style="fill:#FECE2F;"/>
		<path d="M341.4,368.6c0.2,0.1,0.3,0.1,0.5,0.2c1.1-0.1,2.2-0.1,3.2,0.2h0c-0.1-0.6-0.1-1.2-0.3-1.8
			c-2.5-17.5-9.7-29.8-8.5-37.2c0,0-2.2,9.2,2,23.6C339.8,358.2,340.8,363.4,341.4,368.6z" style="fill:#FFFFFF;"/>
		<path d="M343.9,390.6c-0.6,0-1.1-0.1-1.6-0.2c-0.2,2.2-0.6,4-1.1,5.1l6,1.9c0,0,0-2.7-0.1-7.4
			C346,390.4,345,390.6,343.9,390.6z" style="fill:#FFFFFF;"/>
		<path d="M333.7,344.5c0,0-4.3,3.5-2.2,9.4c4.1,11.9,11.3,14.2,13.1,22c1.3,5.8-1.5,11.5-0.4,13.7
			c1.5,2.8,5.1-7.3,5-11.4c-0.1-4.1-4.1-10.5-6-12.6C341.3,363.6,333.9,355.7,333.7,344.5z" style="fill:#FFFFFF;"/>
		<path d="M351.7,299.1c-1.6-0.2-3.3-0.2-4.9,0.2c-1.5,0.4-2.8,1.3-4.1,2.3c-4.2,3.2-7.7,8-7.7,13.3
			c0,0.9,0.1,1.8,0.4,2.7c0.3,0.7,0.7,1.4,1.2,2.1c1.2,1.5,2.8,2.8,4.7,3.5c3.1,1.1,6.7,0.2,9.4-1.7c2.7-1.9,4.6-4.7,6-7.7
			c0.5-1.1,1-2.2,1.3-3.4c0.3-1.1,0.3-2.2,0.3-3.3c0-1.4,0-2.9-0.5-4.2C356.9,300.3,354.3,299.5,351.7,299.1z" style="fill:#FFFFFF;"/>
		<path d="M351.3,315.9c2.6-2.6,3.2-6.3,1.2-8.6c-2.1-2.5-6.2-2.4-9.3,0.2c-3,2.5-3.8,6.6-1.8,9.1
			c0.6,0.7,1.3,1.1,2.1,1.4c-1.1,3.8-1.9,8.4-0.1,11c0.7,0.9,1.9,2,4.3,2c0.2,0,0.4,0,0.7,0c2.3-0.2,4-1.4,4.8-3.5
			C354.5,324.5,353.6,320,351.3,315.9z M351.3,326.7c-0.5,1.3-1.4,1.9-2.9,2.1c-2.1,0.2-2.8-0.7-3-1c-1.2-1.8-0.6-5.6,0.5-9.4
			c1.2,0,2.5-0.4,3.7-1.1C351.4,320.7,352.1,324.3,351.3,326.7z" style="fill:#191919;"/>
		<path d="M368.6,281.5c-1.7-1.2-3.1-1.1-4-0.8c-3.4,1.2-5.2,6.9-5.4,7.5c-0.1,0.4,0,0.8,0.3,1.1
			c0.2,0.2,0.5,0.4,0.8,0.4c0.1,0,0.1,0,0.2,0c2.1-0.4,9-2,9.7-5C370.3,283.8,370.2,282.6,368.6,281.5z" style="fill:#191919;"/>
		<path d="M356.4,300c0,0-0.1-0.1-0.1-0.1c2.2-1.8,6.5-5.5,6.7-8.8c0-1.2-0.4-2.2-1.4-3c-0.9-0.7-3.1-2.5-21.6,2.2
			c-8.9,2.3-17.3,5-17.5,5c-0.8,0.3-17.5,5.6-22.7,25.3c-1.6,6.1-2.5,14.2,2.3,17.8c0.1,0,0.1,0.1,0.2,0.1
			c-2.7,9.6-6.4,32.9-6.6,33.9c-0.1,0.6,0.3,1.2,0.9,1.3c0.1,0,0.1,0,0.2,0c0.5,0,0.9-0.3,1-0.7l3.1,3.6c0,0,17.9,2.7,17.5-2.2
			c-0.4-4.3-15.5-7.2-19.5-7.9c0.3-1.8,0.7-3.8,1-6c4,0.7,19.9,3.5,20.3-0.9c0.5-4.4-14.5-7.7-18.6-8.6c0.9-4.4,1.8-8.5,2.5-11.4
			c0.9,0.3,1.9,0.4,2.9,0.4c2.1,0,4.2-0.6,5.8-1.6c4.4-2.5,8.4-9,10.7-17.2c1.2-4.4,1.8-8.9,1.9-13.3c0-1,0.5-6.2,5.2-5.7
			c7.6,0.7,15.7-1.1,14.9-11.1c8.2-1.8,13.4-2.2,14.4-1.4c0.4,0.3,0.6,0.7,0.6,1.2c-0.1,2.2-4,5.8-6.6,7.7c-0.4-0.1-0.7-0.2-1.1-0.2
			c-2.8-0.3-10-0.1-15.6,7.5c-3.5,4.8-4.3,10.1-1.9,14.1c0.9,1.5,2.1,2.7,3.5,3.5c-1.6,1.8-4.2,5.6-3.3,10.7
			c0.8,4.9,4.9,20.2,6.9,28.2c-0.1-0.1-0.1-0.1-0.2-0.2c-0.7-0.8-1.3-1.6-2-2.4c-3.5-4.4-5.5-10-5.5-15.5c0-0.6-0.5-1.1-1.1-1.1
			c-0.6,0-1.1,0.5-1.1,1.1c0,6,2.2,12.2,6,16.9c0.7,0.8,1.3,1.6,2,2.4c3.4,4,6.5,7.7,7.3,12.7c0.6,4.4-0.1,9-1.9,11
			c-0.6,0.7-1.2,1-1.9,1c-2.5,0-2.9-5.4-3.2-8.5c0-0.4-0.1-0.9-0.1-1.3c-0.3-2.4-1.9-4.1-4.7-6.8c-2-2-4.5-4.4-7.5-8.1
			c-6.7-8.3-5.9-19.4-5.9-19.6c0-0.6-0.4-1.2-1-1.2c-0.6,0-1.2,0.4-1.2,1c0,0.5-0.9,12.1,6.4,21.1c3.1,3.8,5.7,6.4,7.6,8.3
			c2.4,2.4,3.9,3.8,4.1,5.5c0,0.4,0.1,0.8,0.1,1.2c0.4,4,0.9,10.6,5.5,10.6c0.6,0,1.1-0.1,1.6-0.3l0.3,6.9c0,0.6,0.5,1.1,1.1,1.1h0
			c0.6,0,1.1-0.6,1.1-1.2l-0.3-8.3c0-0.1,0-0.1,0-0.2c2.1-2.6,2.9-7.6,2.2-12.5c-0.5-3.5-2.1-6.5-4.1-9.3v0
			c-0.1-0.3-7.1-26.5-8.2-32.9c-0.8-4.8,2.2-8.2,3.3-9.4c1,0.3,2,0.4,3.1,0.4c0.4,0,0.9,0,1.4-0.1c5.2-0.6,11.5-7.1,13.4-13.7
			C360.4,306.6,359.5,302.6,356.4,300z M356.9,310.7c-1.8,5.8-7.3,11.6-11.6,12.2c-3.3,0.4-6.3-1-7.9-3.7c-1.9-3.2-1.2-7.6,1.8-11.7
			c4.1-5.6,9-6.7,12.2-6.7c0.5,0,1,0,1.4,0.1c0.9,0.1,1.6,0.4,2.3,0.9l0,0C358,304.3,357.7,308,356.9,310.7z" style="fill:#191919;"/>
		<g>
			<g>
				
					<ellipse transform="matrix(0.9799 -0.1995 0.1995 0.9799 -52.5652 73.0369)" cx="336.1" cy="297.4" rx="5.6" ry="2.6" style="fill:#FFFFFF;"/>
			</g>
			<path d="M342.1,296.2c-0.2-0.9-1-1.6-2.4-1.9c-1.2-0.3-2.7-0.3-4.2,0c-3.4,0.7-5.7,2.5-5.3,4.3
				c0.2,0.9,1,1.6,2.4,1.9c0.6,0.1,1.2,0.2,1.9,0.2c0.7,0,1.5-0.1,2.3-0.2C340.2,299.7,342.5,297.9,342.1,296.2z M336.6,299.4
				c-1.4,0.3-2.7,0.3-3.8,0c-0.9-0.2-1.5-0.6-1.6-1.1c-0.2-1,1.6-2.5,4.6-3.1c0.5-0.1,1-0.2,1.5-0.2c-1,0.7-1.5,1.5-1.3,2.2
				c0.1,0.8,1.1,1.4,2.5,1.6C337.9,299.1,337.2,299.3,336.6,299.4z" style="fill:#191919;"/>
		</g>
	</g>
	<path d="M315.1,389.3c0,0,10,5.5,14.7,5.7c4.7,0.3,19.7,1.8,20.6,7.2c1,5.5-5.7,11.9-20.6,12.4
		c-14.9,0.5-27.4-10.7-27.4-10.7s-20.2-11.7-26.6-16.4c-6.5-4.7,8.3-34.7,8.3-34.7S293.3,373.8,315.1,389.3z" style="fill:#FECE2F;"/>
	<g>
		<path d="M224.2,221.3c0,0-7.8,32.8,4.2,42.6c9,7.2,30.1,4,32.4-5.7c2.2-9.7-5-49-11.2-58.7
			C249.6,199.4,233.7,215.8,224.2,221.3z" style="fill:#191919;"/>
	</g>
	<g>
		<path d="M294.2,267.4l-0.1-0.1c-3.1-1.5-6.2-2.8-9.1-4.6c-1.5-0.8-2.9-1.8-4.3-2.7c-0.7-0.4-1.4-1-2.1-1.5l-1-0.7
			c-0.3-0.2-0.7-0.5-1-0.7l-2-1.5l-2-1.6c-0.3-0.3-0.7-0.5-1-0.8l-0.9-0.9l-0.9-0.9c-0.3-0.3-0.6-0.6-0.9-0.9l-1.8-1.8
			c-0.6-0.6-1.2-1.2-1.8-1.9c-0.3-0.3-0.6-0.6-0.9-0.9l-0.9-1c-0.6-0.6-1.2-1.3-1.7-1.9c-4.4-5.3-8.3-11-11.7-17.1
			c-1.7-3.1-3.2-6.2-4.7-9.4c-0.7-1.6-1.4-3.2-2.1-4.9c-0.3-0.8-0.6-1.6-0.9-2.5s-0.6-1.7-0.9-2.5v0l0,0c-0.6,0.6-1.3,1.2-2,1.6
			c0.2,1.5,0.5,2.9,0.8,4.3c0.4,1.8,0.8,3.5,1.3,5.3c1,3.5,2.2,7,3.6,10.3c1.4,3.4,3,6.7,4.8,9.9c1.8,3.2,3.8,6.3,6,9.3
			c2.2,3,4.6,5.9,7.2,8.5c0.3,0.3,0.6,0.7,1,1l1,1l1,1c0.3,0.3,0.7,0.6,1,0.9l2.1,1.9l2.2,1.8c0.4,0.3,0.7,0.6,1.1,0.9l1.2,0.8
			c0.8,0.5,1.5,1.1,2.3,1.6c1.6,1,3.2,2,4.9,2.9c3.3,1.8,6.8,3.3,10.3,4.6c1.8,0.7,3.8-0.1,4.7-1.9
			C296.9,270.5,296.1,268.3,294.2,267.4z" style="fill:#FFFFFF;"/>
	</g>
	<g>
		<g>
			<path d="M294.2,267.4l-0.1-0.1c-3.1-1.5-6.2-2.8-9.1-4.6c-1.5-0.8-2.9-1.8-4.3-2.7c-0.7-0.4-1.4-1-2.1-1.5l-1-0.7
				c-0.3-0.2-0.7-0.5-1-0.7l-2-1.5l-2-1.6c-0.3-0.3-0.7-0.5-1-0.8l-0.9-0.9l-0.9-0.9c-0.3-0.3-0.6-0.6-0.9-0.9l-1.8-1.8
				c-0.6-0.6-1.2-1.2-1.8-1.9c-0.3-0.3-0.6-0.6-0.9-0.9l-0.9-1c-0.6-0.6-1.2-1.3-1.7-1.9c-0.4-0.5-0.9-1-1.3-1.6
				c0.6,4.8,0.9,9.1,0.9,12.4c0.7,0.7,1.3,1.5,2,2.2c0.3,0.3,0.6,0.7,1,1l1,1l1,1c0.3,0.3,0.7,0.6,1,0.9l2.1,1.9l2.2,1.8
				c0.4,0.3,0.7,0.6,1.1,0.9l1.2,0.8c0.8,0.5,1.5,1.1,2.3,1.6c1.6,1,3.2,2,4.9,2.9c3.3,1.8,6.8,3.3,10.3,4.6
				c1.8,0.7,3.8-0.1,4.7-1.9C296.9,270.5,296.1,268.3,294.2,267.4z" style="fill:#191919;"/>
		</g>
	</g>
	<g>
		<path d="M280,686.2c-9.1,0-25.4-12.1-29.3-17.6c-2.8-3.9-6.6-18.5-8.2-35.1c-1.1-11.8-1.7-33.9,6.1-48.9
			c6.3-12.1,9.8-18.8,10.6-23.5c0.7-4.4-0.8-7.4-4.2-14l-0.3-0.7c-7.3-14.2-10.6-26.7-9.4-36.1c0.1-0.6,0.6-1,1.2-1
			c0.6,0.1,1,0.6,1,1.2c-1.1,9,2.1,21,9.2,34.8l0.3,0.7c7.1,13.7,6.8,14.2-6.5,39.6c-7.6,14.6-6.9,36.1-5.9,47.7
			c1.6,17.2,5.6,30.8,7.8,34c3.9,5.6,19.6,16.6,27.4,16.6c0.5,0,1,0,1.5-0.1c1.6-0.4,2.4-1.4,2.7-3.3c0.7-4.7-3.1-9.6-8-15.7
			c-7.4-9.3-16.5-20.9-16.3-39.4c0.2-16.6,6.2-22.7,16.2-32.7c8.6-8.7,20.5-20.6,33.9-45.4c10.4-19.2,15.9-40.8,16.8-66.2
			c0.7-19.3-1.2-39.9-6.2-66.7c-0.1-0.6,0.3-1.2,0.9-1.3c0.6-0.1,1.2,0.3,1.3,0.9c5,27,6.9,47.7,6.2,67.2
			c-0.9,25.7-6.5,47.7-17,67.2c-13.6,25.2-25.6,37.1-34.3,45.9c-9.6,9.7-15.4,15.5-15.6,31.2c-0.2,17.7,8.7,28.9,15.8,38
			c5.2,6.6,9.3,11.8,8.4,17.4c-0.5,3.5-2.7,4.7-4.4,5.2C281.3,686.2,280.7,686.2,280,686.2z" style="fill:#191919;"/>
	</g>
	<g>
		<circle cx="225.2" cy="168.3" r="3.1" style="fill:#191919;"/>
	</g>
	<g>
		<circle cx="232.4" cy="160.7" r="3.1" style="fill:#191919;"/>
	</g>
	<g>
		<path d="M328.1,416.1c-2.5,0-4.9-0.3-6.9-0.8c-10.3-2.8-57.6-31.3-71.1-48.9c-10.9-14.1-18.7-35.2-18.8-35.4
			c-0.2-0.6,0.1-1.2,0.7-1.5c0.6-0.2,1.2,0.1,1.5,0.7c0.1,0.2,7.8,20.9,18.5,34.8c5.8,7.5,19.1,18.4,36.5,29.7
			c15.5,10,29.1,17.3,33.4,18.4c6.9,1.9,18.4,0,24.2-3.8c1.4-0.9,3.1-2.5,3.4-4.4c0.2-1.8-0.1-3.2-1-4.3c-2.6-3.1-9.9-3.8-19-4.3
			c-11.3-0.7-24.1-13.6-31.8-21.3c-0.5-0.5-1-1-1.5-1.5c-11.3-11.3-30.4-58.5-31.2-60.5c-0.2-0.6,0-1.2,0.6-1.5
			c0.6-0.2,1.2,0,1.5,0.6c0.2,0.5,19.7,48.8,30.7,59.7c0.4,0.4,0.9,0.9,1.5,1.5c7.4,7.5,19.9,20,30.3,20.6c10,0.6,17.4,1.3,20.6,5.1
			c1.3,1.6,1.8,3.6,1.5,6c-0.3,2.2-1.7,4.2-4.3,5.9C342.5,414.2,334.8,416.1,328.1,416.1z" style="fill:#191919;"/>
	</g>
	<path d="M259.3,291.9c-11.9-5.4-24.4-5.5-32.7-4.6c-9,1-15.2,3.2-15.4,3.3c-0.6,0.2-0.9,0.9-0.7,1.4
		c0.2,0.6,0.8,0.9,1.4,0.7l0.3,17.5c-0.4,0.3-0.7,0.7-0.9,1.1c-0.3,0.6-0.1,1.2,0.5,1.5c0.6,0.3,1.2,0.1,1.5-0.5
		c1.2-2.2,16.1-8,30.3-8.1c7.4-0.1,17.1,1.4,21.2,8.9c0.2,0.4,0.6,0.6,1,0.6c0.1,0,0.2,0,0.3-0.1c1.2,2.7,1.5,4.9,1.5,4.9l5.6,10.6
		l5.6,12.1c0,0.9,0,1.9-0.1,2.9c0,0.6,0.4,1.1,1.1,1.2h0c0.6,0,1.1-0.5,1.1-1.1C281.8,324.9,279.9,301.3,259.3,291.9z" style="fill:#191919;"/>
	<path d="M271.3,382.8c-0.6-0.3-1.2,0-1.5,0.6c0,0.1-0.1,0.1-0.1,0.2l-10.3-8.4c0.1-0.3,0.2-0.5,0.3-0.8
		c0.2-0.6,0-1.2-0.6-1.5c-0.6-0.2-1.2,0-1.5,0.6c-3.8,9.6-8.2,17.4-12.2,22c-11.2,12.9-26.8,14.1-29.8,14.3c-0.6,0-1.1,0.6-1.1,1.2
		c0,0.6,0.5,1.1,1.1,1.1h0c0.1,0,0.3,0,0.5,0c-0.1,2.9-0.6,12.7-0.8,15.6c-0.5,0.1-0.8,0.7-0.8,1.2c0.1,0.6,0.6,1,1.1,1
		c0,0,0.1,0,0.1,0c3.8-0.5,37.7-5.8,55.9-45.5C272.1,383.7,271.9,383.1,271.3,382.8z" style="fill:#191919;"/>
	<g>
		<path d="M297.6,192L297.6,192l0.1,0.1c0,0,0.1,0.1,0.1,0.1c0.1,0.1,0.2,0.1,0.4,0.2c0.3,0.1,0.5,0.2,0.8,0.3
			c0.3,0.1,0.6,0.2,0.9,0.3c0.3,0.1,0.6,0.1,0.9,0.2c0.6,0.1,1.2,0.2,1.8,0.2h0.9l0.9-0.1c0.1,0,0.1,0,0.2,0l0.2,0l0.4-0.1l0.4-0.1
			c0.1,0,0.3-0.1,0.4-0.1l0.9-0.3l0.9-0.4l0.4-0.2l0.4-0.3l0.9-0.5c0.6-0.4,1.1-0.8,1.6-1.2l0.1-0.1c0.4-0.3,1.1-0.3,1.5,0.2
			c0.3,0.4,0.3,1-0.1,1.3c-0.5,0.6-1,1.2-1.6,1.7l-0.9,0.8l-0.4,0.4l-0.5,0.3l-1,0.7c-0.3,0.2-0.7,0.4-1,0.6
			c-0.2,0.1-0.3,0.2-0.5,0.3l-0.6,0.2l-0.6,0.2l-0.3,0.1l-0.3,0.1c-1.6,0.5-3.2,0.7-4.9,0.7c-0.4,0-0.9,0-1.3-0.1
			c-0.4,0-0.9-0.1-1.3-0.2s-0.8-0.2-1.3-0.3c-0.2,0-0.4-0.1-0.6-0.2c-0.1,0-0.2-0.1-0.3-0.1l-0.2-0.1c0,0-0.1-0.1-0.2-0.1l-0.2-0.1
			c-1.3-0.6-1.8-2.1-1.2-3.4c0.6-1.3,2.1-1.8,3.4-1.2C297.3,191.8,297.4,191.9,297.6,192z" style="fill:#191919;"/>
	</g>
	<g>
		<path d="M211.8,291.5c0,0-0.4,18.5,0.9,29.3c1.3,10.8,2.1,41.6,2.1,41.6l1.1,44.4l-0.4,44.4c0,0-2.6,11.4-18.1,20.5
			s-18.3,13.4-30.4,16.8c-12.1,3.4-26.3,5.6-29.5,3.4s-8.6-14.6-9.1-19c-0.6-4.5,1.9-55.4,1.9-55.4l0.9-16.4c0,0,19.6-0.9,23.9-1.7
			c4.3-0.7,9.9-3.4,9.9-3.4l7.8-23l12.7-45.4c0,0,12.5-4.7,18.5-15.3s6-20,6-20L211.8,291.5z" style="fill:#FECE2F;"/>
		<polygon points="170.6,447 193.7,442.7 171.5,453.9 		" style="fill:#FFFFFF;"/>
		<polygon points="163.9,415.5 198,397.7 201,404.3 172.6,416.2 172.3,430.8 163.1,435.4 		" style="fill:#FFFFFF;"/>
		<path d="M143,401.5l3,73.2c0,0-15.4,5-17.8-3.5l3.2-69.5L143,401.5z" style="fill:#FFFFFF;"/>
		<path d="M185.5,327.7l-14.4,52.6c0,0-3.7,15.5-7.7,17.2c-3.9,1.7-25.4,3.4-29.5,3.4s-19,0.2-19.2-0.9s3.2-8.2,3.2-8.2
			l23.9-45.2l11.6-21.1C153.4,325.5,166.1,333.7,185.5,327.7z" style="fill:#FFFFFF;"/>
		<path d="M149.3,333.5l28.7,18.3l6.9-24c0,0-13.6,3.7-22.5,1.3s-8.1-4.2-8.1-4.2L149.3,333.5z" style="fill:#FECE2F;"/>
		<g>
			<circle cx="172.4" cy="292.8" r="37.2" style="fill:#FECE2F;"/>
		</g>
		<g>
			<g>
				<path d="M151.3,284.6c0-11.2,5-21.3,12.8-28.1c-16.6,3.8-29,18.6-29,36.3c0,20.6,16.7,37.2,37.2,37.2
					c9.3,0,17.9-3.4,24.4-9.1c-2.7,0.6-5.4,0.9-8.2,0.9C168,321.8,151.3,305.1,151.3,284.6z" style="fill:#FFFFFF;"/>
			</g>
		</g>
		<path d="M207.6,414l-8.6-16.8c-0.1-0.3-0.4-0.4-0.7-0.6c-0.3-0.1-0.6-0.1-0.9,0.1l-34.2,17.7c-0.4,0.2-0.6,0.6-0.6,1
			l-0.7,20c0,0.4,0.2,0.7,0.5,1c0.2,0.1,0.4,0.2,0.6,0.2c0.1,0,0.3,0,0.5-0.1l3.9-1.9l2.9,19.5c0,0.4,0.3,0.7,0.6,0.8
			c0.1,0.1,0.3,0.1,0.5,0.1s0.3,0,0.5-0.1l22.2-11.2c0.3-0.1,0.5-0.4,0.6-0.7l6.2-24.5l6-2.9c0.3-0.1,0.5-0.4,0.6-0.6
			C207.8,414.6,207.8,414.3,207.6,414z M192.8,442l-20.4,10.3l-2-13.1l27-15.8L192.8,442z M168.3,431.7c0,0-0.1,0-0.1,0
			c-0.3,0-0.5,0.2-0.7,0.4l-3.2,1.5l0.6-17.5l32.6-16.9l7.5,14.8L168.3,431.7z" style="fill:#191919;"/>
		<g>
			<circle cx="182.8" cy="417.2" r="3.1" style="fill:#191919;"/>
		</g>
		<path d="M215.3,448.6c-0.6,0-1.2,0.4-1.2,1c-0.6,10.8-10.7,17.2-26,27c-1.5,1-3,1.9-4.6,2.9
			c-9.7,6.3-19.8,9.3-26.6,10.8c-8.5,1.8-15,1.8-17.8,1c-4.4-1.2-7-9.8-8.7-15.4c-0.1-0.4-0.2-0.7-0.3-1c1.9,1.1,5.1,2.1,10.4,2.1
			c2.9,0,6.6-0.3,11-1c6.2-1,20-7.7,34.2-16.5c15.4-9.5,26.7-18.6,30.3-24.4c0.3-0.5,0.1-1.2-0.4-1.5c-0.5-0.3-1.2-0.1-1.5,0.4
			c-3.3,5.4-14.7,14.4-29.6,23.6c-14,8.7-27.4,15.2-33.4,16.2c-20,3.4-21.8-2.7-21.9-2.8c0-0.2-0.1-0.4-0.3-0.6
			c-0.7-8.6,1.6-44,3.5-68.1c13.9-0.3,30.3-1.8,33.2-5.5c3.8-4.9,17.9-59.3,20.2-68.1c14.5-5.5,24.8-19.5,24.8-35.9
			c0-21.2-17.2-38.3-38.3-38.3s-38.3,17.2-38.3,38.3c0,13.7,7.2,25.8,18.1,32.6c-2.2,3.9-11,19.9-19.6,35.9
			c-18.3,34.1-19.6,38.3-19.3,39.4c-0.1,0.6-0.1,1.5,0.5,2.6c1.7,2.9,7.1,4.8,16,5.5c-1.3,17.7-4.3,59.3-2.6,63.9
			c0.4,1,0.8,2.4,1.2,3.9c1.9,6.5,4.6,15.4,10.2,16.9c1.3,0.4,3.2,0.6,5.5,0.6c9.6,0,26.5-3.4,40.7-12.7c1.6-1,3.1-2,4.6-2.9
			c15.3-9.8,26.3-16.9,27-28.8C216.4,449.2,215.9,448.7,215.3,448.6z M136.2,292.8c0-5.1,1.1-10,3-14.4c0,0,0.1-0.1,0.1-0.1
			c7.4-9.5,17.4-14,30.6-13.6c7.3,0.2,15.5,3.3,20.5,7.8c6.9,6.3,7,17.5,4.1,25.7c-2.7,7.5-7.4,13.2-13.1,16
			c-3.5,1.7-7.8,2.6-13,2.6c-4.3,0-7.5-0.6-10.2-1.8c-4.3-2-7.7-6.1-9-11c-1.3-4.6-0.9-9.7,0.9-14.6c1.7-4.5,4.5-7.8,7.8-9.4
			c3.2-1.6,7.3-1.8,12.7-0.7c3.1,0.6,7.5,1.8,10.2,4.9c1.8,2,2.9,4.9,3.1,8.2c0.2,4.6-1.4,9-4.3,11.8c-3.1,3-7.9,4-11.6,2.5
			c-3.9-1.6-6.3-6.1-5.2-9.9c0.5-1.9,2-3.6,4-4.5c1.8-0.8,3.8-0.9,5.3-0.1c0.6,0.3,1.2,0,1.5-0.5c0.3-0.6,0-1.2-0.5-1.5
			c-2.2-1-4.8-1-7.2,0.1c-2.6,1.2-4.6,3.4-5.3,5.9c-1.3,4.9,1.6,10.5,6.5,12.6c4.6,1.9,10.2,0.7,14-3c3.4-3.2,5.3-8.3,5-13.5
			c-0.2-3.8-1.5-7.2-3.6-9.6c-3.2-3.6-8.1-4.9-11.5-5.6c-6-1.2-10.5-0.9-14.1,0.9c-3.8,1.9-7,5.6-8.9,10.6c-2.1,5.4-2.4,11-1,16.1
			c1.6,5.5,5.4,10.2,10.2,12.4c3,1.4,6.5,2.1,11.1,2.1c0,0,0.1,0,0.1,0c5.6,0,10.2-0.9,14-2.8c6.3-3.1,11.4-9.2,14.3-17.2
			c3.2-9,3-21.1-4.7-28.1c-5.3-4.9-14.1-8.2-21.9-8.4c-10.3-0.3-18.9,2.2-25.7,7.7c6.6-8.1,16.7-13.4,28-13.4
			c19.9,0,36.1,16.2,36.1,36.1c0,15.5-9.9,28.8-23.6,33.9c-0.2,0-0.4,0.1-0.5,0.2c-3.7,1.3-7.8,2.1-12,2.1
			C152.4,328.9,136.2,312.7,136.2,292.8z M115.6,399.6c2.2-6.7,23.6-46.3,38.4-73.1c5.5,3,11.7,4.7,18.3,4.7c3.8,0,7.5-0.6,11-1.6
			c-4.9,18.8-16.5,62-19.4,65.9c-1.1,1.5-7.6,3.4-22.2,4.3C131.9,400.3,121.1,400.3,115.6,399.6z" style="fill:#191919;"/>
	</g>
	<path d="M260.7,561.5c-0.5-0.4-1.2-0.3-1.6,0.2c-31,41.8-66.9,72.5-109.6,93.7c-1.3-9-6.3-13.1-8.8-14.6
		c8.2-5.7,16.6-12.4,25.2-20.3c7.3,2.7,12.7,3.2,14.1,0.9c1.2-2-0.9-5.6-5.2-10c5.4-6.1,10.3-12.9,14.6-20.3
		c8.3,1.5,14.2,1.2,15.2-1.5c0.9-2.5-2.7-6.3-9.1-10.4c2.4-5.3,4.6-10.8,6.6-16.6c11.6,0.6,20.1-1,20.6-4.4
		c0.5-3.2-6.2-7.1-16.3-10.2c2.5-9.6,4.4-19.8,6-31.1c13.6,0,23.9-3.3,24.4-8.4s-8.8-10.5-22.1-13.2c0.8-9.7,1.3-20.2,1.5-31.4
		c17.4-0.3,31.2-5.3,31.2-11.4c0-6-13.7-11-30.9-11.3c0-2.1,0-4.1,0.1-6.2c0.2-14.6,0.3-29.7,0.2-43.9c13.9-1.8,24-6.5,23.9-11.7
		c-0.1-5.2-10.5-9.3-24.3-10.2c-0.6-19-1.8-36.4-3.4-57.2l-1.2-81.1c0-0.6-0.5-1.1-1.1-1.1c-0.6,0-1.1,0.5-1.1,1.1l1.2,81.2
		c0,0,0,0,0,0.1c2.2,28.1,3.5,49.9,3.8,78.1c0.1,14.4,0,29.9-0.2,44.8c-0.1,6.2-0.1,12-0.2,17.7c-0.3,39.8-3.5,70.1-10,95.3
		c-7.8,30.3-20.6,53.3-39,70.4c-41.4,38.6-81.2,49.3-96.2,53.4c-6,1.6-7.6,2.1-7.6,3.5c0,0.3,0.1,0.9,0.8,1.3
		c1.2,0.8,4.9,1.3,10.1,1.3c4.9,0,11.1-0.4,18.2-1.4c13.1-1.8,33.1-6,54.2-15.9c45.6-21.4,83.7-53.2,116.3-97.2
		C261.3,562.6,261.1,561.9,260.7,561.5z" style="fill:#191919;"/>
	<path d="M298.6,134c0,0,0-0.1,0-0.1c0,0,0-0.1,0-0.1c0,0,0-0.1,0-0.1c0,0,0,0,0-0.1v0c0,0,0-0.1,0-0.1c0,0,0-0.1,0-0.1
		c0,0,0-0.1,0-0.1c0,0,0-0.1,0-0.1c0,0,0,0,0-0.1c0,0,0-0.1-0.1-0.1l0,0c0,0-0.1-0.1-0.1-0.1l0,0c0,0-0.1-0.1-0.1-0.1c0,0,0,0,0,0h0
		c0,0-0.1,0-0.1,0s0,0-0.1,0c0,0-0.1,0-0.1,0s-0.1,0-0.1,0s0,0-0.1,0l-35,2.9c-1.6-0.6-10.4-3.8-22.5-3.9c-0.2,0-0.5,0-0.7,0
		c-12.2,0-29.8,3.2-45.8,18.2c-16.4,15.3-19.7,34-19.6,46.9c0.1,12.8,3.4,22.4,4.1,24.3l-6.8,28l0,0l0,0c0,0,0,0,0,0.1
		c0,0,0,0.1,0,0.1c0,0,0,0.1,0,0.1c0,0,0,0.1,0,0.1c0,0.1,0,0.1,0,0.1v0l0,0v0c0,0,0,0.1,0.1,0.1l0,0c0,0,0,0.1,0.1,0.1l0,0
		c0,0,0.1,0.1,0.1,0.1l0,0c0,0,0.1,0.1,0.1,0.1h0c0,0,0.1,0,0.1,0.1c0,0,0,0,0,0c0,0,0,0,0,0c0.1,0,0.1,0,0.2,0h0c0,0,0.1,0,0.1,0h0
		c0,0,0.1,0,0.1,0l0,0c19.6-7.1,38.4-17.7,56-31.3c14-10.9,27.2-23.9,39.3-38.5c20.5-24.9,30.7-46.3,30.8-46.5c0,0,0,0,0-0.1
		C298.6,134,298.6,134,298.6,134z M179.7,174.2c3.1-8.6,8.2-16.3,15.2-22.8c15.5-14.5,32.5-17.6,44.3-17.6c0.2,0,0.4,0,0.6,0
		c10.2,0.1,18.1,2.5,20.9,3.4c-1.8,3.5-7.9,14.8-19,28.7c-12.1,15.3-32.6,36.8-62.1,53.3c-1-3.1-3.5-11.8-3.6-22.7
		C175.9,188.7,177.2,181.1,179.7,174.2z M177.4,232.4l28.1-0.2c-10.3,6.2-20.9,11.3-31.8,15.4L177.4,232.4z M266,179.2
		c-11.9,14.5-25,27.3-38.9,38.2c-2.5,2-5.1,3.8-7.6,5.7l-40.4,2.6l0.9-3.8c30.2-16.7,51.2-38.8,63.5-54.4c11.8-15,18.1-27,19.5-29.7
		l32.7-2.8C292.8,140.5,282.9,158.6,266,179.2z" style="fill:#191919;"/>
	<g>
		<g>
			
				<ellipse transform="matrix(0.9799 -0.1995 0.1995 0.9799 -28.8829 60.6383)" cx="286.5" cy="173.6" rx="12.4" ry="5.9" style="fill:#FFFFFF;"/>
		</g>
		<path d="M299.7,171L299.7,171c-0.4-2-2.3-3.5-5.2-4.2c-2.7-0.6-6-0.6-9.4,0.1c-7.6,1.5-12.7,5.6-11.9,9.5
			c0.6,2.9,4.4,4.7,9.4,4.7c1.6,0,3.4-0.2,5.3-0.6c3.4-0.7,6.5-2,8.7-3.6C299,175,300.1,172.9,299.7,171z M287.4,178.3
			c-6.5,1.3-11.6-0.2-12.1-2.4c-0.4-2.2,3.6-5.6,10.2-6.9c1.2-0.2,2.3-0.4,3.4-0.4c-2.2,1.5-3.4,3.3-3,5c0.4,1.8,2.5,3.1,5.6,3.5
			C290.2,177.6,288.8,178,287.4,178.3z" style="fill:#191919;"/>
	</g>
</g>
</svg>
