<?xml version="1.0" encoding="utf-8"?>
<!-- Generator: Adobe Illustrator 21.0.0, SVG Export Plug-In . SVG Version: 6.00 Build 0)  -->
<svg version="1.1" baseProfile="tiny" id="Layer_1" xmlns="http://www.w3.org/2000/svg" xmlns:xlink="http://www.w3.org/1999/xlink"
	 x="0px" y="0px" viewBox="0 0 2000 2000" xml:space="preserve">
<g id="Layer_8">
	<path fill="#FECE2F" d="M1696.4,509.6C1153.3,204.2,378.1-35.5,134.4,326.3C-140.9,735,386.2,1042,443.6,1464.2
		c63,463.5,592.1,682.4,986.9,312.2C1925.6,1312.1,2238,814.2,1696.4,509.6z"/>
</g>
<g>
	<path fill="#1A1A1A" d="M1940.2,934.7c-28.8-23.8-109.7,35.6-172.4,89.7c-87.5,75.4-192.2,185.4-294.7,309.5
		s-190.7,247.7-248.2,347.9c-28.1,48.8-47.4,89.5-57.3,120.9c-10.7,33.6-10.1,55.6,1.7,65.3c4.5,3.7,10.2,5.4,17,5.4
		c36.6,0,102.5-49.5,155.4-95.1c87.5-75.4,192.2-185.4,294.7-309.5s190.7-247.7,248.2-347.9c28.1-48.8,47.4-89.5,57.3-120.9
		C1952.6,966.4,1952,944.4,1940.2,934.7z"/>
	<g>
		<path fill="#FECE2F" d="M1344.4,899.6c0,0-12,20.5-25,22.5s-45.5-4.5-45.5-4.5l-26.5-142l-19-58c0,0,41.5,24.5,65.5,67
			S1344.4,899.6,1344.4,899.6z"/>
	</g>
	<g>
		<path fill="#FFFFFF" d="M1293.9,784.6c-9.1-16.1-20.8-29.7-31.7-40.3c2.9,19,9,39.9,20.2,61.3c8.3,15.9,21.8,26.7,37.9,33.7
			C1312.2,820.5,1302.9,800.5,1293.9,784.6z"/>
	</g>
	<path fill="#FECE2F" d="M1344.4,1557.8c45.5,5,107.4,89,115.2,99.8c55.7-57.3,114.2-122.8,172-192.7
		c102.3-123.9,190.3-247.1,247.6-347c6.5-11.4,12.6-22.3,18.1-32.8c-18.5-15.1-157.9-128.7-244.9-182.8
		c-93.3-58-120.7-72-231.3-59.3c-110.7,12.7-174.7,39.7-258.7,79.3c-84,39.7-116.7,108.7-160.7,154.7c-44,46-117.3,56-117.3,56
		l-318,72.7l-61.3,16.7l11.3,80.7c44,104.7,106,142,158.7,176s212,42,212,42s158,22,303.3,22.7S1295.7,1552.5,1344.4,1557.8z"/>
	<g>
		<path fill="#FFFFFF" d="M1592.6,866.8c1.1,62.9,52.4,113.5,115.5,113.5c15.6,0,30.6-3.1,44.2-8.8c-34.8-25.8-70.3-51-99.8-69.3
			C1629.1,887.8,1610,876.1,1592.6,866.8z"/>
	</g>
	<g>
		<path fill="#FFFFFF" d="M1001.8,1077c-44,46-117.3,56-117.3,56l-318,72.7l-61.3,16.7l0,0l2.8,20.2c0,0,30.5,49.1,260.5-44.9
			c140.2-57.3,276-62,318-158c37.8-86.4,132.2-67.5,128.9-141.5c-17.2,7.4-34.6,15.5-52.9,24.2C1078.4,962,1045.8,1031,1001.8,1077z
			"/>
	</g>
	<g>
		<path fill="#FECE2F" d="M1368.4,627.6c0,0,67,32,123,123s83,177,83,177l-182,10C1392.4,937.6,1359.4,726.6,1368.4,627.6z"/>
	</g>
	<g>
		<path fill="#FFFFFF" d="M1491.4,750.6c-12.2-19.8-24.9-36.9-37.4-51.4c0,25.8,5.1,57.4,22.4,90.4c11.6,22.2,33.1,34.4,58.1,40.4
			C1522.8,805.6,1508.5,778.3,1491.4,750.6z"/>
	</g>
	<g>
		<g>
			<ellipse fill="#FFFFFF" cx="1242.4" cy="1108.6" rx="155" ry="32"/>
		</g>
		<g>
			<path fill="#1A1A1A" d="M1242.4,1143.6c-41.6,0-80.7-3.4-110.2-9.4c-31.7-6.5-47.8-15.1-47.8-25.6s16.1-19,47.8-25.6
				c29.5-6.1,68.6-9.4,110.2-9.4s80.7,3.4,110.2,9.4c31.7,6.5,47.8,15.1,47.8,25.6s-16.1,19-47.8,25.6
				C1323.2,1140.3,1284,1143.6,1242.4,1143.6z M1242.4,1079.6c-41.2,0-79.9,3.3-109,9.3c-40.9,8.5-43,17.9-43,19.7s2.1,11.2,43,19.7
				c29.1,6,67.8,9.3,109,9.3s79.9-3.3,109-9.3c40.9-8.5,43-17.9,43-19.7s-2.1-11.2-43-19.7
				C1322.3,1082.9,1283.6,1079.6,1242.4,1079.6z"/>
		</g>
	</g>
	<g>
		<path fill="#1A1A1A" d="M1253.4,1076.7c-3.6-0.1-7.3-0.1-11-0.1c-50.9,0-96.1,5.1-124.4,12.9c10.1,13.5,35.5,23.1,65.4,23.1
			C1222,1112.6,1253.3,1096.6,1253.4,1076.7z"/>
	</g>
	<g>
		<g>
			<g>
				<path fill="#FFFFFF" d="M1151.9,1207.8c-60.5,0-93.5-37.2-94.9-38.8c-4.5-5.2-4-13.1,1.2-17.6c2.5-2.2,5.7-3.3,9.1-3
					c3.3,0.2,6.4,1.7,8.6,4.3c0.2,0.2,27.7,30.2,76.1,30.2c6.9,0,12.5,5.6,12.5,12.5S1158.8,1207.8,1151.9,1207.8z M1151.9,1201.8
					L1151.9,1201.8L1151.9,1201.8z M1061.5,1165.1C1061.5,1165.1,1061.6,1165.1,1061.5,1165.1
					C1061.6,1165.1,1061.5,1165.1,1061.5,1165.1z"/>
			</g>
		</g>
	</g>
	<g>
		<g>
			<path fill="#FFFFFF" d="M1505.4,1217.8c-0.8,0-1.7-0.3-2.3-1l-49.5-57c-1.1-1.3-1-3.1,0.3-4.2c1.2-1.1,3.1-1,4.2,0.3l49.5,57
				c1.1,1.3,1,3.1-0.3,4.2C1506.8,1217.6,1506.1,1217.8,1505.4,1217.8z"/>
		</g>
	</g>
	<g>
		<g>
			<path fill="#FFFFFF" d="M1524.9,1198.3c-1.2,0-2.3-0.7-2.8-1.8l-39-93c-0.6-1.5,0.1-3.3,1.6-3.9s3.3,0.1,3.9,1.6l39,93
				c0.6,1.5-0.1,3.3-1.6,3.9C1525.7,1198.2,1525.3,1198.3,1524.9,1198.3z"/>
		</g>
	</g>
	<path fill="#1A1A1A" d="M1087.9,1369.7c-40.5-8.4-94.4-13.1-151.7-13.1s-111.2,4.6-151.8,13.1c-53.7,11.2-65,25-65,34.5
		s11.3,23.3,65,34.5c40.6,8.4,94.5,13.1,151.8,13.1s111.1-4.7,151.7-13.1c53.7-11.2,65-25,65-34.5S1141.6,1380.9,1087.9,1369.7z"/>
	<polygon fill="#FFFFFF" points="803.3,1373.4 766.1,1382.7 785.2,1401.8 	"/>
	<path fill="#FFFFFF" d="M847.7,1394.3l28.6-29c-11,0.6-30.8,1.8-44.8,3.6l-13.1,1.7L847.7,1394.3z"/>
	<path fill="#FFFFFF" d="M889.2,1364.5L917,1390l30.4-27.1c-11-0.1-30.8-0.2-44.9,0.7L889.2,1364.5z"/>
	<path fill="#FFFFFF" d="M987.2,1391.3l32.4-24.7c-11-1-30.7-2.6-44.8-2.8l-13.3-0.1L987.2,1391.3z"/>
	<path fill="#FFFFFF" d="M1032.2,1367.9l22.5,29.9l24.6-16.8c1-0.7,2.3-0.8,3.4-0.2l15.7,8.4l11.3-7.3c-8.6-2.6-25-7.1-44.9-9.8
		C1048.7,1370.1,1038.4,1368.7,1032.2,1367.9z"/>
	<polygon fill="#FFFFFF" points="789.1,1431.1 834,1439.6 812.6,1411.7 	"/>
	<path fill="#FFFFFF" d="M851.4,1441.9c6.2,0.5,15.2,1.2,26.6,1.8c14.8,0.9,29.8,0.6,38.2,0.3l-25-28.1L851.4,1441.9z"/>
	<path fill="#FFFFFF" d="M981.1,1443.5l-31.5-21l-19.6,21.7C944.7,1444.9,968,1444.1,981.1,1443.5z"/>
	<path fill="#FFFFFF" d="M1048.5,1438.3l-26.4-18.4l-23.3,23.3C1013.2,1442.8,1036.3,1439.9,1048.5,1438.3z"/>
	<path fill="#FFFFFF" d="M1104,1421.2c-0.7,0.4-1.6,0.5-2.3,0.3l-18.2-4.9l-18.1,19.5c26.6-3.6,48.1-12.4,56.5-16.2l-4.8-5.5
		L1104,1421.2z"/>
	<g>
		<path fill="#1A1A1A" d="M1641.9,1022.1c-12.6,3.3-34.5,19-34.5,77s2.5,161.5,25,177s61.5,6.5,71-12s15-42.8,12.5-96
			c-2-42-25.5-36.5-30-73c-2.7-22.3-3.7-42.6-11.5-58.5C1668.6,1024.9,1653.4,1019.1,1641.9,1022.1z"/>
	</g>
	<g>
		<path fill="#1A1A1A" d="M1460.9,1427.6h-128c-20.6,0-37.5-16.9-37.5-37.5l0,0c0-20.6,16.9-37.5,37.5-37.5h128
			c20.6,0,37.5,16.9,37.5,37.5l0,0C1498.4,1410.8,1481.6,1427.6,1460.9,1427.6z"/>
	</g>
	<g>
		<g>
			<path fill="#1A1A1A" d="M1422.9,1748.7c-0.8,0-1.7-0.3-2.3-1c-1.1-1.3-1-3.1,0.3-4.2c170.2-148,295.7-329.7,297-331.6
				c0.9-1.4,2.8-1.7,4.2-0.8c1.4,0.9,1.7,2.8,0.8,4.2c-1.3,1.8-127.2,184.2-298,332.7C1424.3,1748.5,1423.6,1748.7,1422.9,1748.7z"
				/>
		</g>
	</g>
	<g>
		<g>
			<path fill="#1A1A1A" d="M1723.4,1539.6c-0.6,0-1.3-0.2-1.8-0.6c-1.3-1-1.5-2.9-0.5-4.2c55.1-70.7,102.4-144.2,132.3-193.4
				c0.9-1.4,2.7-1.9,4.1-1s1.9,2.7,1,4.1c-30,49.4-77.4,123.1-132.7,194C1725.2,1539.2,1724.3,1539.6,1723.4,1539.6z"/>
		</g>
	</g>
	<g>
		<g>
			<path fill="#1A1A1A" d="M1871.1,1320.4c-0.5,0-1-0.1-1.5-0.4c-1.4-0.8-1.9-2.7-1.1-4.1c9.1-15.4,14.2-24.6,14.2-24.7
				c0.8-1.4,2.6-2,4.1-1.2c1.4,0.8,2,2.6,1.2,4.1c-0.1,0.1-5.2,9.3-14.3,24.8C1873.2,1319.9,1872.2,1320.4,1871.1,1320.4z"/>
		</g>
	</g>
	<g>
		<g>
			<g>
				<path fill="#FFFFFF" d="M1163.6,1255.8c-28.3,0-52-10.2-54.6-11.3c-6.3-2.8-9.1-10.2-6.3-16.5c1.4-3,3.8-5.4,6.9-6.6
					s6.5-1.1,9.6,0.2c0.3,0.1,32.9,14.1,62.1,7.3c3.2-0.8,6.6-0.2,9.4,1.5c2.8,1.8,4.8,4.5,5.6,7.8c1.6,6.7-2.6,13.5-9.3,15
					C1179.6,1254.9,1171.8,1255.8,1163.6,1255.8z M1111.4,1239C1111.5,1239,1111.5,1239,1111.4,1239
					C1111.5,1239,1111.4,1239,1111.4,1239z M1111.4,1239L1111.4,1239L1111.4,1239z"/>
			</g>
		</g>
	</g>
	<g>
		<g>
			<path fill="#FFFFFF" d="M1796.8,1052.6c-0.1,0-0.2,0-0.3,0l-94-9c-1.6-0.2-2.9-1.6-2.7-3.3c0.2-1.6,1.6-2.9,3.3-2.7l94,9
				c1.6,0.2,2.9,1.6,2.7,3.3C1799.6,1051.5,1798.3,1052.6,1796.8,1052.6z"/>
		</g>
	</g>
	<g>
		<g>
			<path fill="#FFFFFF" d="M1805.8,1071.6c-0.1,0-0.2,0-0.3,0l-45-5c-1.6-0.2-2.8-1.7-2.7-3.3c0.2-1.6,1.7-2.8,3.3-2.7l45,5
				c1.6,0.2,2.8,1.7,2.7,3.3C1808.6,1070.5,1807.3,1071.6,1805.8,1071.6z"/>
		</g>
	</g>
	<g>
		<g>
			<path fill="#1A1A1A" d="M1086.4,1468.6c-1.5,0-2.8-1.2-3-2.7c-0.2-1.6,1.1-3.1,2.7-3.3c46.6-4.4,76.4-17.4,88.8-38.6
				c11.8-20.2,2.8-41,2.7-41.2c-0.7-1.5,0-3.3,1.5-4s3.3,0,4,1.5c0.4,1,10.3,23.8-3,46.6c-13.4,22.9-44.8,36.9-93.4,41.6
				C1086.6,1468.6,1086.5,1468.6,1086.4,1468.6z"/>
		</g>
	</g>
	<g>
		<path fill="#1A1A1A" d="M1901.2,1084.4c-0.7-0.6-70.8-59.8-151.9-119.4c-92.3-67.9-161.1-108.9-205-122.6
			c-6.1-13.6-13-28.1-20.8-42.9c-20.4-39.2-42.3-73.1-65-100.7c-28.2-34.3-57.8-59-88-73.4c-0.5-0.4-1-0.6-1.6-0.7
			c-0.7-0.2-1.5,0-2.1,0.4c-0.8,0.5-1.4,1.4-1.4,2.4c-0.1,1.3-4.7,108.8,8.6,220.1c-13.6,2.5-27.4,5.3-41.1,8.5
			c-3.8-9.7-8.3-20.3-13.6-31.4c-17.5-36.7-47.2-85.5-89.2-109.6c-0.8-0.5-1.8-0.6-2.7-0.2c0,0-0.1,0-0.1,0.1c0,0-0.1,0-0.1,0
			c0,0,0,0,0,0c-0.9,0.4-1.6,1.3-1.7,2.4c-0.3,3.2-0.5,6.7-0.6,10.5c-0.4,9.3-0.8,24.7-0.1,45.7c0.9,25.7,3.6,64,11.2,111.6
			c-53.3,20.1-98.6,44.8-131.5,72.3c-39.1,32.6-58.9,59.5-76.3,83.2c-30.7,41.8-51,69.4-152.5,92.2
			c-100.4,22.6-228.7,52.6-309.6,71.6c-15.4-43.3-109.6-22.3-109.6,27.2c0,42.2,43.2,66.6,56.6,73.2c7,15.4,15.5,32,25.8,48.9
			c23.4,38.4,51.2,70.5,82.7,95.4c39.4,31.2,84.6,51.2,134.4,59.5c155.5,25.9,402.3,37.3,535.6,41.8c48.1,1.6,93.6,23.7,124.7,60.5
			l41.9,49.6c0.6,0.7,1.4,1.1,2.3,1.1c0.7,0,1.4-0.2,1.7-0.5c1.3-1,1.5-2.9,0.4-4.2l-41.9-49.6c-32.2-38.2-79.2-61-129.1-62.7
			c-133.1-4.5-379.7-15.9-534.8-41.8c-48.7-8.2-92.9-27.8-131.5-58.3c-30.9-24.5-58.3-56-81.3-93.7c-9.6-15.6-17.6-31-24.3-45.4
			c12.6-6.1,64-34.9,48-95.3c81-19,209.1-48.9,309.2-71.4c103.7-23.3,125.6-53.2,156-94.5c17.3-23.4,36.8-50,75.3-82.1
			c48-40,122.8-74.2,210.6-96.4c18.6-4.7,37.4-8.7,55.9-12c3.6,28.7,8.4,57.5,14.8,84.7c0,0.2,0.1,0.4,0.2,0.6
			c0.3,0.8,1,1.4,1.8,1.6c0.3,0.1,0.6,0.1,0.9,0.1c0.2,0,0.3,0,0.4,0c0.6-0.1,1.3-0.4,1.9-0.8c0.7-0.8,19.3-19.7,35-50.5
			c14.5-28.5,29-72.9,15.7-122.4c-17.7-66-47.3-108.9-63.5-128.7c24.6,14.5,48.7,36,71.9,64.3c22.5,27.3,44.1,60.9,64.3,99.7
			c34.4,66.2,53.1,125.7,53.3,126.3c0.5,1.6,2.2,2.5,3.8,2s2.5-2.2,2-3.8c-0.1-0.4-10.4-33-29.6-76.8
			c53.7,18.6,134.9,73.5,198.2,120c33.2,24.4,64.5,48.7,90,68.9c-5.2,27.2-45.7,222.1-181.9,401.9c52.2-63,123.8-153.5,168.5-227.2
			c55.8-92,71.2-117.4,75.4-124.3c1.2,0.7,2.8,0.5,3.8-0.7C1902.6,1087.4,1902.5,1085.5,1901.2,1084.4z M1317.3,859.8
			c-12.2,3.1-24.1,6.4-35.7,9.9c-7.6-44.2-17.9-78-26.3-100.8c-7.1-19.5-13.7-33.4-18.3-42.1c35.4,25,60.9,67.6,76.7,100.4
			c5.1,10.7,9.5,20.9,13.2,30.3C1323.7,858.2,1320.5,859,1317.3,859.8z"/>
		<path fill="#1A1A1A" d="M1653.9,1440.8c-37.8,45.6-65.5,76.8-65.5,76.8C1612.4,1492.7,1634.1,1466.9,1653.9,1440.8z"/>
	</g>
	<g>
		<path fill="#FFFFFF" d="M665.4,1298.6c-1.2,0-2.3-0.7-2.8-1.8c-0.6-1.5,0.1-3.3,1.6-3.9c16.9-7.1,18.1-17.1,18.2-17.5
			c0.2-1.6,1.6-2.8,3.3-2.7c1.6,0.2,2.8,1.6,2.7,3.2c0,0.6-1.4,13.9-21.8,22.5C666.2,1298.5,665.8,1298.6,665.4,1298.6z"/>
	</g>
	<g>
		<path fill="#FFFFFF" d="M693.4,1290.6c-1.1,0-2.1-0.6-2.7-1.6c-0.8-1.5-0.2-3.3,1.2-4.1c15.3-8.1,17.4-20.3,17.4-20.8
			c0.3-1.6,1.8-2.8,3.4-2.5c1.6,0.2,2.8,1.8,2.5,3.4c-0.1,0.6-2.4,15.6-20.6,25.2C694.4,1290.5,693.9,1290.6,693.4,1290.6z"/>
	</g>
	<g>
		<g>
			<path fill="#FFFFFF" d="M1894.1,1084.6c-0.7,0-1.3-0.2-1.9-0.7l-50-40.3c-1.3-1-1.5-2.9-0.5-4.2c1-1.3,2.9-1.5,4.2-0.5l50,40.3
				c1.3,1,1.5,2.9,0.5,4.2C1895.8,1084.3,1895,1084.6,1894.1,1084.6z"/>
		</g>
	</g>
	<g>
		
			<ellipse transform="matrix(0.9667 -0.256 0.256 0.9667 -291.7836 171.041)" fill="#FFFFFF" cx="511.1" cy="1206.3" rx="26.7" ry="9.3"/>
	</g>
</g>
<g>
	<g id="Layer_6">
		<g>
			<g>
				<path fill="#FFFFFF" d="M349.9,482.8c-13.7-3.6-14.6-25.9-8.7-31.8s16.1-12.3,25.6-7.2c0,0-2.7-16.8,12.4-22.8
					c15-6,19.7,5.5,19.7,5.5s8.5-14.4,23.3-13.8s18.9,13.8,18.9,13.8s17.6-12.4,31.7-10.4c13.3,1.9,18.3,16.7,18.3,16.7
					s20.3-5,28,13.7c7.6,18.7-11.1,34.7-11.1,34.7s27.5,9.8,18.2,31.6c-9.3,21.9-39.8,18.9-39.8,18.9s0.1,17.9-17.1,21.2
					c-17.2,3.2-22.2-3.2-22.2-3.2s-10.1,13-26.7,8c0,0-18.6,12.2-33.6-5.3c0,0-17.9,0.3-24.6-13.7s-5.9-39.9-5.9-39.9l2.4-15.9
					C356.2,483.4,353.3,483.6,349.9,482.8z"/>
			</g>
			<g>
				<path fill="#1A1A1A" d="M383.7,538.1c-1.2,0-2.5-0.2-3.9-0.8c-8.2-3.5-10.5-15.2-10.6-15.7c-0.1-0.7,0.1-1.4,0.7-1.9
					s1.3-0.6,1.9-0.4l23.1,8c0.6,0.2,1,0.7,1.2,1.3s0.1,1.2-0.2,1.7C395.7,530.7,390.6,538.1,383.7,538.1z"/>
			</g>
			<path fill="#1A1A1A" d="M529.3,495.3c-3.4-7.9-11.2-12.9-16.1-15.4c5.4-6,15-19.4,8.7-34.9c-6.2-15.1-20.4-17.2-28.9-16
				c-2.2-4.7-8.1-14.6-19.7-16.3c-11.6-1.6-24.9,5.4-30.8,9c-3-5.4-9.3-12-20.1-12.4c-11.5-0.5-19.5,6.9-23.4,11.6
				c-3.3-3.6-9.7-7.6-20.9-3.1c-10.8,4.4-14.1,14.2-14.4,21.3c-7.7-1.7-16.6,1.6-24.5,9.5c-4.2,4.2-5.6,13.7-3.3,22.1
				c1.4,5.3,4,9.4,7.6,12.1c-1.4,1.8-3.1,4.5-4.5,7.5c-3.6,8-2.9,14.7,2.1,19.4c2.3,2.1,4.3,2.8,5.9,2.8c0.8,0,1.5-0.1,2.2-0.5
				c1.4-0.5,2.6-1.6,3.8-3.2c0.3,14.3,3.1,31,13.1,39.8c4.7,4.1,10.4,6.1,17.2,6.1c0.5,0,1.1,0,1.6,0c1.4,1.6,2.8,2.9,4.2,4
				c1.8,9.1,9,43.5,16.8,48.6c1,0.6,1.9,0.8,2.6,0.8c0.4,0,0.7-0.1,1,0c2.3-0.6,9-2.1,0.2-43.8c3.2-0.4,6-1.3,8.1-2.2
				c1.1,4.2,3.2,12.3,5.7,20.2c6,19.2,9.7,23.8,13.1,23.8c0.2,0,0.4-0.1,0.7-0.1c0.8-0.1,1.8-0.5,2.7-1.8c4.5-6.6-1.4-37.9-2.6-44.1
				c0-0.1-0.1-0.2-0.1-0.3c4.6-1.7,7.9-4.4,9.9-6.3c2.9,1.7,8.5,3.7,17.9,2.7c2.3,9.6,7.3,26.8,13.9,26.8c0.2,0,0.5-0.1,0.7,0
				c4-0.8,5.4-6.6,4.4-18.8c-0.5-6.6-1.6-13.1-2-15.2c4.3-4.4,6.3-10.1,6.9-14.5c1.5,0,3.5,0,5.8-0.2c1.9,9.5,9.1,43.3,16.8,48.4
				c1,0.6,1.9,0.8,2.6,0.8c0.3,0,0.7-0.1,1,0c0.8-0.2,2-0.7,2.9-2.2c5-8.2-3-42.9-5-51.5c7.4-3.6,12.7-9,15.7-16.1
				C531.7,507.2,531.8,501,529.3,495.3z M370.1,544.1c-16.3-14.2-10-56.2-9.5-59.1c4.9-1.8,8.6-5.4,10.9-8.8
				c3.7,2.4,11,5.2,22.1,1.5c2.5-0.8,4.6-2,6.5-3.3c4.7,6.9,22.1,34.9,15.6,54.6c-2.8,8.4-9.9,14.4-21,17.8
				C384.2,550.1,375.9,549.2,370.1,544.1z M523.4,511.3c-3.4,8.1-10.5,13.5-21.1,15.9c-8.2,1.9-15.5,1.2-15.6,1.2
				c-0.8-0.1-1.7,0.2-2.3,0.8c-0.7,0.5-1,1.3-1,2.2c0,0.6,0,15.4-14.6,18.2c-14.7,2.7-19.3-2.1-19.3-2.1c-0.6-0.7-1.5-1.1-2.4-1.1
				c-1,0-1.8,0.5-2.4,1.2c-0.1,0.1-9.1,11.3-23.5,7c-0.8-0.2-1.8-0.1-2.5,0.4c-0.6,0.5-14,8.9-26.3-1.3c1.3-0.3,2.7-0.6,4.1-1
				c13-4.1,21.4-11.3,24.9-21.7c5.6-16.9-3.4-37.9-10.5-50.5c5.9,3.7,13.2,7.3,19.3,7.3c0.8,0,1.6,0,2.4-0.3
				c3.3-0.6,5.8-2.4,7.4-5.4c1.9-3.4,2.1-6.8,0.5-9.8c-4.6-8.9-22.6-12.6-30.3-13.9c0.5-2.2,0.7-4.2,0.7-5.8c0-1.7-1.3-3-3-3
				s-3,1.3-3,3c0,0.1-0.2,15.1-13.2,19.4c-12.9,4.3-18.5-2.1-18.7-2.3c-0.7-0.8-1.7-1.2-2.7-1.1c-1.1,0.1-2,0.8-2.4,1.7
				c0,0-1.5,3.2-4.5,5.9c-3.8,3.5-8.1,4.6-12.7,3.4c-5.9-1.6-8.2-7.3-9.1-10.6c-1.8-6.8-0.6-14,1.7-16.3c2.9-2.8,12.8-11.7,22.1-6.7
				c1,0.5,2.3,0.5,3.2-0.2c0.9-0.6,1.4-1.8,1.2-2.9c-0.1-0.6-2.2-14.5,10.5-19.6c11.7-4.7,15.4,3,15.8,3.9c0.5,1.1,1.5,1.8,2.6,1.9
				c1.1,0,2.2-0.5,2.8-1.5c0.1-0.1,7.8-12.8,20.6-12.3c12.4,0.5,16,11.3,16.1,11.7c0.3,1,1,1.7,1.9,2c0.9,0.3,1.9,0.2,2.7-0.4
				c0.1-0.1,16.7-11.7,29.5-9.9c11.3,1.6,15.9,14.6,15.9,14.7c0.5,1.5,2.1,2.4,3.6,2c0.8-0.2,17.9-4.2,24.5,11.9
				c6.7,16.5-10.1,31.2-10.3,31.3c-0.8,0.7-1.2,1.7-1,2.8c0.1,1.1,0.9,1.9,1.9,2.3c0.1,0,12.8,4.6,16.9,14
				C525.6,501.9,525.5,506.3,523.4,511.3z"/>
		</g>
	</g>
	<g>
		<g>
			<path fill="#FFFFFF" d="M1004.3,420.4c-2.9,2.9-8.7,6.7-19,5.7c-2.4-0.2-4.5-0.8-6.4-1.5c-2.9,7.9-11.6,34.6-2.2,49.9
				c4.1,6.7,11.4,10.4,21.7,11.1c9.8,0.7,16.7-1.8,20.7-7.3c5.9-8.2,4.6-22.1,2.5-32.3c-2-9.6-5-17.7-6-20.3
				C1011,425.2,1007,422.8,1004.3,420.4z"/>
			<path fill="#FFFFFF" d="M1023.8,394.2c-3-1.9-13.3-7.5-20.2-1.4c-0.9,0.8-2.1,1-3.1,0.5c-1.1-0.4-1.8-1.4-1.9-2.6
				c0-0.5-1.2-12.9-12.9-14.7c-11.2-1.7-12.6,6-12.7,6.3c-0.2,1.1-1,2-2.1,2.4c-1.1,0.3-2.3,0-3.1-0.8c-0.1-0.1-9.3-9.5-20.2-6.5
				c-10.5,2.9-11.4,12.8-11.5,13.2c-0.1,1-0.6,1.8-1.4,2.3c-0.8,0.5-1.8,0.6-2.7,0.2c-0.2-0.1-16.9-6.8-27.5-2.6
				c-9.4,3.7-10.6,15.7-10.7,15.8c-0.1,1.5-1.4,2.7-3,2.7c0,0,0,0-0.1,0c-0.9,0-16.2,0.2-18.6,15.1c-2.5,15.5,15,24.8,15.2,24.8
				c0.9,0.5,1.6,1.5,1.6,2.5c0,1.1-0.5,2.1-1.4,2.7c-0.1,0.1-10.1,6.6-11.7,15.5c-0.7,3.9,0.3,7.7,3.1,11.5
				c11.1,15.2,34.9,7.4,35.2,7.3c0.8-0.3,1.7-0.2,2.4,0.2c0.7,0.4,1.3,1.1,1.5,2c0.1,0.5,3.2,13.2,16.1,12.6
				c12.6-0.5,15.8-5.1,16.2-5.6c0.4-0.9,1.1-1.4,2-1.7c0.9-0.2,1.9,0.1,2.6,0.7c0.4,0.3,10.1,7.8,21.5,1.3c0.8-0.4,1.7-0.5,2.5-0.2
				c0.6,0.2,13.5,4.6,21.9-6c-0.9,0-1.9,0-2.8-0.1c-12.3-0.8-21.2-5.5-26.4-14c-11.4-18.5-0.7-48.9,2.1-56.1
				c-6.8-5.4-8.8-13.5-8.9-14c-0.4-1.6,0.6-3.2,2.2-3.6c1.6-0.4,3.2,0.6,3.6,2.2c0.1,0.6,3.3,12.9,15.2,14
				c11.9,1.1,15.4-5.4,15.6-5.6c0.5-0.9,1.4-1.5,2.4-1.6s2,0.3,2.6,1.1c0.3,0.4,7.7,9.2,16.5,4.5c4.6-2.4,5.5-7.8,5.6-10.8
				C1028.7,401.6,1026.2,395.6,1023.8,394.2z"/>
		</g>
		<g>
			<path fill="#1A1A1A" d="M942.5,447.3c-2.7,0-5.1-1.1-7-3.2c-2.8-3.1-2.6-5.8-2-7.5c3.4-8.7,28.1-11.6,33-12.1
				c0.8-0.1,1.5,0.3,1.9,1s0.3,1.5-0.1,2.2c-0.6,0.8-14.3,19.1-25.3,19.6C942.8,447.3,942.6,447.3,942.5,447.3z"/>
		</g>
		<g>
			<path fill="#1A1A1A" d="M984.2,459.3l17.3,13.4c0,0-9.4,3.9-15.3-0.1C980.4,468.6,984.2,459.3,984.2,459.3z"/>
			<path fill="#1A1A1A" d="M992.9,476.1c-2.6,0-5.3-0.5-7.7-2.1c-7-4.7-2.9-15-2.7-15.5s0.6-0.9,1.2-1c0.5-0.1,1.1,0,1.5,0.3
				l17.3,13.4c0.5,0.4,0.8,1,0.7,1.6s-0.5,1.2-1.1,1.4C1001.9,474.4,997.7,476.1,992.9,476.1z"/>
		</g>
		<path fill="#1A1A1A" d="M883.8,489c0,0-36.6,12.9-34,20.4c2.6,7.5,55.3-15.1,55.3-15.1S883.8,494.2,883.8,489z"/>
		<path fill="#1A1A1A" d="M1018.9,486.8c1.9-1.4,3.6-3.1,5-5c11.6-16.2,1.5-47.2-2-56.5c1.3-0.3,2.5-0.8,3.8-1.5
			c5.4-2.9,8.5-8.5,8.8-15.9c0.3-8-3-16.1-7.5-18.9c-8.5-5.3-16.8-6.5-23.3-3.5c-1.9-6.2-6.8-13.9-17.1-15.5
			c-10.5-1.6-15.4,3-17.7,6.8c-4.4-3.3-12.8-7.9-22.7-5.2c-10.1,2.8-13.8,10.2-15.1,14.8c-6-2-18.9-5.3-28.6-1.5
			c-9.7,3.8-13,13.5-14,18.2c-7.8,0.8-19.7,5.6-22,20c-2.4,14.6,8.3,24.4,14.4,28.7c-3.7,3.2-9.3,9.1-10.7,16.6
			c-1.1,5.6,0.3,11,4.1,16.2c1.2,1.7,2.6,3.1,4.1,4.5c-3.5,1.4-8.6,3.4-13.5,5.7c-13.2,6.2-18.4,10.9-16.9,15.2
			c0.3,0.6,0.8,1.5,2.1,2.1c0.9,0.3,2,0.5,3.4,0.5c8.3,0,25.4-5.9,38-10.8c-0.1,0-0.1,0.1-0.2,0.1c-16.8,11.9-22.7,18.7-19.8,23
			c0.6,1,2,2,4.6,2c4.1,0,11.3-2.3,24.1-10.5c4.6-3,11.1-7.2,19.2-12.6c3.4,3.1,8,5.4,14.1,5.4c0.4,0,0.7,0,0.8,0
			c11-0.5,16.6-3.8,19.2-6.3c4,2.3,12.4,5.8,22.2,1.9c0.1,0.1,0.2,0.1,0.3,0.2c9.9,4.4,26.5,11,34.3,11c1.1,0,2-0.1,2.8-0.5
			c1.3-0.5,1.8-1.4,2.1-2c1.1-2.7-0.9-6.2-13.7-14.1c0.5-0.4,1-0.9,1.5-1.3c19.3,8.9,28.9,11.3,33.7,11.3c4.1,0,4.9-1.7,5.3-2.5
			C1043.5,503.8,1042.1,498.8,1018.9,486.8z M1019.1,478.3c-4,5.5-10.9,8-20.7,7.3c-10.3-0.7-17.6-4.4-21.7-11.1
			c-9.4-15.4-0.7-42,2.2-49.9c1.9,0.8,4,1.3,6.4,1.5c10.3,1,16.1-2.8,19-5.7c2.7,2.4,6.7,4.8,11.3,5.3c1,2.5,4,10.7,6,20.3
			C1023.7,456.2,1025,470.1,1019.1,478.3z M954.9,496.6c-0.7-0.6-1.7-0.9-2.6-0.7c-0.9,0.3-1.6,0.8-2,1.7c-0.4,0.5-3.6,5.1-16.2,5.6
			c-12.9,0.6-16-12.1-16.1-12.6c-0.2-0.9-0.8-1.6-1.5-2c-0.7-0.4-1.6-0.5-2.4-0.2c-0.3,0.1-24.1,7.9-35.2-7.3
			c-2.8-3.8-3.8-7.6-3.1-11.5c1.6-8.9,11.6-15.4,11.7-15.5c0.9-0.6,1.4-1.6,1.4-2.7c0-1-0.7-2-1.6-2.5c-0.2,0-17.7-9.3-15.2-24.8
			c2.4-14.9,17.7-15.1,18.6-15.1c0.1,0,0.1,0,0.1,0c1.6,0,2.9-1.2,3-2.7c0.1-0.1,1.3-12.1,10.7-15.8c10.6-4.2,27.3,2.5,27.5,2.6
			c0.9,0.4,1.9,0.3,2.7-0.2c0.8-0.5,1.3-1.3,1.4-2.3c0.1-0.4,1-10.3,11.5-13.2c10.9-3,20.1,6.4,20.2,6.5c0.8,0.8,2,1.1,3.1,0.8
			c1.1-0.4,1.9-1.3,2.1-2.4c0.1-0.3,1.5-8,12.7-6.3c11.7,1.8,12.9,14.2,12.9,14.7c0.1,1.2,0.8,2.2,1.9,2.6c1,0.5,2.2,0.3,3.1-0.5
			c6.9-6.1,17.2-0.5,20.2,1.4c2.4,1.4,4.9,7.4,4.7,13.5c-0.1,3-1,8.4-5.6,10.8c-8.8,4.7-16.2-4.1-16.5-4.5c-0.6-0.8-1.6-1.2-2.6-1.1
			s-1.9,0.7-2.4,1.6c-0.2,0.2-3.7,6.7-15.6,5.6c-11.9-1.1-15.1-13.4-15.2-14c-0.4-1.6-2-2.6-3.6-2.2c-1.6,0.4-2.6,2-2.2,3.6
			c0.1,0.5,2.1,8.6,8.9,14c-2.8,7.2-13.5,37.6-2.1,56.1c5.2,8.5,14.1,13.2,26.4,14c1,0.1,1.9,0.1,2.8,0.1c-8.5,10.6-21.3,6.2-21.9,6
			c-0.8-0.3-1.7-0.2-2.5,0.2C965,504.4,955.3,496.9,954.9,496.6z"/>
	</g>
	<g id="Layer_4">
		<g>
			<g>
				<path fill="#FFFFFF" d="M348.4,635.6l50.3-26.3c0,0-82.3-42.3-153.6-53C245.1,556.3,363.1,592.3,348.4,635.6z"/>
			</g>
			<g>
				<path fill="#FFFFFF" d="M975.9,628.3c0,0,24-60,283.5-87c0,0-76.8-4.1-156,7.3c-110.5,16-186,49-186,49S968.9,623,975.9,628.3z"
					/>
			</g>
			<g>
				<path fill="#FFFFFF" d="M672.4,551.6c-209.3,7.8-336.6,83.4-399.5,134.6c34.8-17.4,149.5-92.5,389.5-94
					c280.5-1.8,444,127.3,444,127.3l0.3-2.4C1050.1,667.3,887.4,543.6,672.4,551.6z"/>
			</g>
			<g>
				<path fill="#1A1A1A" d="M1277.5,538.6c-42.2-1.2-80.6-0.2-115.2,2.1c-0.3-0.1-0.5-0.1-0.5-0.1c-0.7-0.1-1.4,0-2,0.3
					c-65.9,4.7-117.3,14.3-153.1,23.2c-56.5,14-86.2,28.6-90.2,30.7c-19.4-8.1-38.9-15.2-58.5-21.2c-61.5-18.9-124-27.3-185.7-25
					c-73.2,2.7-142.4,14-205.7,33.6c-23,7.1-45.2,15.3-66.5,24.5c0,0,0,0,0,0c-68.8-39.3-146.8-53.8-200.2-59
					c-57.7-5.6-99.9-1.9-100.3-1.9c-1.6,0.2-2.9,1.7-2.7,3.3c0.2,1.6,1.6,2.9,3.3,2.7c0.4-0.1,38.3-3.4,91.5,1.2
					c-0.7,1.5-1.2,3.1-1.4,4.8c-1.3,9.4,5.4,18,14.7,19.3l42.5,5.7c9.4,1.3,18-5.4,19.3-14.7c0.2-1.3,0.2-2.7,0-4
					c40.3,8.6,84.9,22.6,126.4,45.6c-23.3,10.4-45.4,22-66.4,34.8c-2.6,1.6-5.2,3.2-7.7,4.8c-0.2-0.2-0.4-0.3-0.6-0.4
					c-0.9-0.4-91.1-39.3-218.3-35.3c-1.7,0.1-3,1.4-2.9,3.1c0.1,1.7,1.5,3,3.1,2.9c58.2-1.9,108.5,5.4,145.9,13.7
					c-2.1,2.1-3.7,4.7-4.7,7.7c-3.3,10.2,2.4,21.2,12.6,24.5l28.6,9.2c-11,8.4-20.7,16.5-28.9,23.9c-5.2-1.4-65.2-17.5-131.2-19.7
					c-1.6,0-3,1.2-3.1,2.9c-0.1,1.7,1.2,3,2.9,3.1c58.1,1.9,111.5,14.7,126.2,18.5c-13,12.1-22,22.2-26.7,28.4
					c-1,1.3-0.7,3.2,0.6,4.2c1.3,1,3.2,0.7,4.2-0.6c11-14.6,46.8-51.4,103.5-86c41.6-25.4,88.1-46.1,138.3-61.6
					c25.5-7.8,52-14.3,79.3-19.5c-11.3,5.1-27.4,13-47.2,24.7c-36.5,21.6-92.8,60.8-153.5,124.6c-1.1,1.2-1.1,3.1,0.1,4.2
					c0.6,0.5,1.4,0.8,2.1,0.8c0.8,0,1.6-0.3,2.2-0.8c60.1-63.2,115.8-102,152-123.5c39.1-23.2,64.4-31.6,64.7-31.7
					c1-0.3,1.7-1.2,2-2.2c33-5.2,67.1-8.5,102.2-9.8c25.1-0.9,50.3,0,75.6,2.6c-11.7,4.2-32.8,12.6-60.9,27.7
					c-40.1,21.6-102.4,61.7-171.9,129.6c-1.1,1.1-1.2,3,0,4.2c0.5,0.6,1.3,0.9,2.1,0.9s1.5-0.2,2.2-0.8
					c68.8-67.3,130.6-107,170.3-128.5c43-23.2,70-30.6,70.3-30.7c0.5-0.2,1-0.5,1.3-0.8c31.6,4.1,63.2,10.9,94.6,20.5
					c1.7,0.5,3.4,1.1,5.1,1.6c-11.4,4.1-33.5,12.8-61.9,27.9c-19,10.1-42.8,24.3-69.2,43.1c-1.4,1-1.7,3-0.6,4.3
					c1,1.2,2.7,1.4,4,0.5c26-18.6,49.5-32.5,68.3-42.5c38-20.3,64.6-28.9,68.8-30.2c42.9,14.4,85.4,33.8,126.5,58
					C976,649.6,894.9,681.8,831,750.3c-1.2,1.2-1.1,3.1,0.1,4.2c0.5,0.5,1.3,0.8,2,0.8c0.8,0,1.6-0.3,2.3-0.8
					c71.2-76.3,164.1-107,168.5-108.4c76.5,46.2,121.8,93.2,122.3,93.6c0.6,0.6,1.4,0.9,2.2,0.9c0.8,0,1.5-0.2,2.1-0.8
					c1.2-1.1,1.2-3,0.1-4.2c-0.5-0.5-48-49.9-127.8-97.3c-25.9-15.4-52.3-28.9-79.1-40.4c8.9-4.1,30-13,62.9-22.3
					c0.5,7.3,4.7,14.2,11.7,17.8l40,20.5c10.6,5.4,23.8,1.2,29.2-9.4c3.6-7.1,2.9-15.4-1.2-21.7c25.9,12.2,67.5,36.3,120.8,81.1
					c0.5,0.5,1.2,0.7,1.9,0.7c0.8,0,1.7-0.3,2.3-1c1-1.2,0.9-3.1-0.4-4.2c-79.1-66.6-133.1-88.7-156-95.7
					c33.1-6.9,75.4-13.5,126.4-17c7,1.9,51,14.6,98.3,57.7c0.6,0.5,1.3,0.8,2,0.8c0.8,0,1.6-0.3,2.2-1.1c1.1-1.2,1-3.1-0.2-4.2
					c-34.7-31.6-67.1-47.2-85.7-54.3c30.3-1.6,63.4-2.2,99.2-1.1c1.7,0.1,3.1-1.2,3.1-2.9C1280.5,540,1279.2,538.6,1277.5,538.6z"/>
				<path fill="#1A1A1A" d="M837.2,658.2l23-16c6-4.3,7.5-12.7,3.3-18.8c-4.3-6-12.7-7.5-18.8-3.3l-23,16c-6,4.3-7.5,12.7-3.3,18.8
					C822.6,661,831.1,662.5,837.2,658.2z"/>
				<path fill="#1A1A1A" d="M311.9,691.7l-19.4,20.2c-5.1,5.4-5,14,0.4,19.1c5.3,5.1,13.9,4.9,19.1-0.4l19.4-20.2
					c5.1-5.4,5-14-0.4-19.1C325.6,686.2,317,686.3,311.9,691.7z"/>
				<path fill="#1A1A1A" d="M847.1,694.5c-4.8-5.7-13.4-6.3-19-1.5l-21.3,18.2c-5.7,4.8-6.3,13.4-1.5,19c4.8,5.7,13.4,6.4,19,1.5
					l21.3-18.2C851.3,708.7,851.9,700.1,847.1,694.5z"/>
				<path fill="#1A1A1A" d="M548.2,636.2l11.9-8.3c6-4.3,7.5-12.7,3.3-18.8c-4.3-6-12.7-7.5-18.8-3.3l-11.9,8.3
					c-6,4.3-7.5,12.7-3.3,18.8C533.6,639,542.1,640.5,548.2,636.2z"/>
				<path fill="#1A1A1A" d="M1179.7,574.1c-7-4.7-16.6-2.9-21.3,4.1c-4.7,7-2.9,16.6,4.1,21.3l6.4,4.3c7,4.8,16.6,2.9,21.3-4.1
					s2.9-16.6-4.1-21.3L1179.7,574.1z"/>
			</g>
		</g>
	</g>
	<path fill="#1A1A1A" d="M836.7,295.4c0-7.1-5.7-12.8-12.8-12.8c0,0,0,0-0.1,0c-8.1-11.1-50.4-67.6-82.3-76.3l0,0
		c-12.6-3-24.7-4.7-35.9-5.5l-1.8-17.8c2.6,0.4,5.1,0.3,7.5-0.6c10.8-4,14.5-21.3,9.8-34c-0.9-2.5-2.1-4.6-3.5-6.4
		c3.5-4.3,7.8-11.4,3.2-16.6c-7-7.9-27.3,2.7-33.7,13.2c0,0-24.6,11-9.5,31.7c0.7,1,1.4,1.8,2.1,2.5l-1.7,27.8
		c-20.9,1-36.5,4.4-43.6,5.8c0,0-70.5,16.6-48.7,63.1c10.1,21.2,46.3,33.3,60.8,37.5l-21.9,188.6l-6.7-0.8c0,0-2.9,28.5-4.1,43
		s-22.6,23.8-36,26.1c-13.4,2.3-12.8,18-12.8,18s86.6-0.6,91.8-1.2c5.2-0.6-1.2-26.7-1.2-26.7l15.2-52.8l-8.9-1.1l26.6-156.8
		L716,499.6l-12.4,1.5l15.2,52.8c0,0-6.4,26.1-1.2,26.7c5.2,0.6,91.8,1.2,91.8,1.2s0.6-15.7-12.8-18c-13.4-2.3-34.8-11.6-36-26.1
		s-4.1-43-4.1-43l-5.2,0.6l-22.9-195.8l7.8-55.8c31.6,9.8,66.5,43.6,74.9,52c0.1,4.5,2.5,8.4,6,10.6l9.3,276.7l5.5-0.1l-1-276.7
		C834.4,303.8,836.7,299.9,836.7,295.4z M620.1,263.6c-2.3-10.8,10.8-15.5,19.8-17.4l5.7,40.7C636.5,283,622.7,275.3,620.1,263.6z"
		/>
</g>
</svg>
