<?xml version="1.0" encoding="utf-8"?>
<!-- Generator: Adobe Illustrator 21.0.0, SVG Export Plug-In . SVG Version: 6.00 Build 0)  -->
<svg version="1.1" baseProfile="tiny" id="Layer_4" xmlns="http://www.w3.org/2000/svg" xmlns:xlink="http://www.w3.org/1999/xlink"
	 x="0px" y="0px" viewBox="0 0 2000 2000" xml:space="preserve">
<g>
	<path fill="#FECE2F" d="M627.9,1821c-574.1-56.6-729.6-672.9-379.8-1021.1c318.6-317.2,152.3-565.2,676.4-596.7
		c463.9-27.9,939.7,524.7,1022.9,995.4C2072.4,1905.6,1364.4,1893.6,627.9,1821z"/>
</g>
<g>
	<path fill="#1A1A1A" d="M1609.2,278.4c-5.5-6-12.1-9.1-19.7-9.1c-16.7,0-25.4,20.3-29.8,39.8c-1.9-37.4-6.1-62.8-12.5-75.4
		c-7.1-13.5-20.5-22.6-34.2-23.2c-12.2-0.5-23,5.5-30.5,17c-12.9,19.9-11.1,55.7-7.8,80.5c-6.8-13.2-15.6-24.7-26.4-28.9
		c-8.8-3.4-17.9-1.7-27.1,5.1c-46.4,34,11.5,178.8,13.8,184.4c0.5,1.2,53.1,27.2,93.5,23.5c59.5-5.5,97.9-42.4,98-44
		C1634.4,363.5,1627.4,298.5,1609.2,278.4z"/>
	<g>
		<path fill="#FFFFFF" d="M1501.8,400.6c-1.3,0-2.5-0.8-2.9-2.2l-22-74.7c-0.5-1.6,0.4-3.3,2-3.7c1.6-0.5,3.3,0.4,3.7,2l22,74.7
			c0.5,1.6-0.4,3.3-2,3.7C1502.3,400.6,1502,400.6,1501.8,400.6z"/>
	</g>
	<g>
		<path fill="#FFFFFF" d="M1565.1,393.3c-1.5,0-2.9-1.2-3-2.7l-6.2-71.2c-0.1-1.7,1.1-3.1,2.7-3.2c1.6-0.1,3.1,1.1,3.2,2.7l6.2,71.2
			c0.1,1.7-1.1,3.1-2.7,3.2C1565.3,393.3,1565.2,393.3,1565.1,393.3z"/>
	</g>
</g>
<g>
	<g>
		<path fill="#FECE2F" d="M1465.7,895.3L1350.3,1711h-130c21.8-14.3,95.4-41.7,95.4-41.7l111-792
			C1426.7,877.3,1441.7,854.8,1465.7,895.3z"/>
	</g>
	<g>
		<path fill="#FFFFFF" d="M1426.7,877.3l-111,792c0,0-20.8,7.8-43.6,17.2l0.3,1.2l62-8l106-808.4
			C1431.7,869.9,1426.7,877.3,1426.7,877.3z"/>
	</g>
	<path fill="#1A1A1A" d="M1466.1,892.3c-1.3-0.2-2.6,0.5-3.1,1.7l-33.4-15.4l0.1-0.9c0.2-1.6-0.9-3.2-2.6-3.4
		c-1.6-0.2-3.2,0.9-3.4,2.6L1313,1667c-8.1,2.8-43.2,15.7-94,41.3c-1.2,0.6-1.9,2-1.6,3.4s1.5,2.3,2.9,2.3h130c1.5,0,2.8-1.1,3-2.6
		l57.7-408.2c0.1-0.3,0.2-0.5,0.3-0.8c0-0.3,0-0.6,0-0.9l57.4-405.8C1468.9,894.1,1467.8,892.5,1466.1,892.3z M1460.6,910.3l-2.8,20
		l-34.7-5.1l1.2-8.5L1460.6,910.3z M1441.5,1045.1l-34.6-5.1l15.3-108.9l34.7,5.1L1441.5,1045.1z M1423.3,1173.6l-34.4-5l17.2-122.7
		l34.5,5.1L1423.3,1173.6z M1405.6,1298.5l-34.2-5l16.7-119l34.4,5L1405.6,1298.5z M1389.1,1415.8l-34.1-4.7l15.6-111.6l34.2,5
		L1389.1,1415.8z M1321.8,1647.5l15.8-113.1l34,4.4l-15.9,112.6L1321.8,1647.5z M1338.5,1528.5l15.6-111.5l34.1,4.7l-15.7,111.2
		L1338.5,1528.5z"/>
	<g>
		<path fill="#1A1A1A" d="M1357.7,1654.6c-0.1,0-0.2,0-0.3,0l-38.4-4.4c-1.6-0.2-2.8-1.7-2.6-3.3c0.2-1.6,1.7-2.8,3.3-2.6l38.4,4.4
			c1.6,0.2,2.8,1.7,2.6,3.3C1360.5,1653.5,1359.2,1654.6,1357.7,1654.6z"/>
	</g>
</g>
<g>
	<g>
		<path fill="#FECE2F" d="M1638.4,895.3l115.4,815.7h130c-21.8-14.3-95.4-41.7-95.4-41.7l-111-792
			C1677.4,877.3,1662.4,854.8,1638.4,895.3z"/>
	</g>
	<g>
		<path fill="#FFFFFF" d="M1749.1,1678.2h15.2l-112.7-800.4c-4,3.7-8.5,9.3-13.3,17.4L1749.1,1678.2z"/>
	</g>
	<path fill="#1A1A1A" d="M1885.1,1708.3c-50.8-25.5-86-38.4-94-41.3l-110.7-790.1c-0.2-1.6-1.8-2.8-3.4-2.6
		c-1.6,0.2-2.8,1.7-2.6,3.4l0.1,0.9l-33.4,15.4c-0.5-1.2-1.8-1.9-3.1-1.7c-1.6,0.2-2.8,1.8-2.6,3.4l57.4,405.8c0,0.3-0.1,0.6,0,0.9
		c0,0.3,0.1,0.6,0.3,0.8l32.8,231.9c-0.2,0.5-0.3,1-0.2,1.6c0.1,0.6,0.3,1.1,0.7,1.5l24.5,173.2c0.2,1.5,1.5,2.6,3,2.6h130
		c1.4,0,2.6-1,2.9-2.3S1886.4,1708.9,1885.1,1708.3z M1643.5,910.3l36.3,6.3l1.2,8.5l-34.7,5.1L1643.5,910.3z M1647.2,936.2
		l34.7-5.1l15.3,108.9l-34.6,5.1L1647.2,936.2z M1663.4,1051l34.5-5.1l17.2,122.7l-34.4,5L1663.4,1051z M1681.6,1179.5l34.4-5
		l16.7,119l-34.2,5L1681.6,1179.5z M1699.3,1304.5l34.2-5l15.6,111.6l-34.1,4.7L1699.3,1304.5z M1715.9,1421.7l34.1-4.7l15.6,111.5
		l-34,4.4L1715.9,1421.7z M1766.4,1534.5l15.4,110.1l-33.9,3.9l-15.5-109.6L1766.4,1534.5z"/>
</g>
<g>
	<g>
		<path fill="#FFFFFF" d="M816.9,860.1c12-15.5,36.5-58,16-118.5s-73.5-83.5-92.5-86.5l-33.5-4.3c0,0,12.1-35.7,0.2-45.8
			c-1.9-0.1-17.2,8.7-23.7,14.9c0,0,6.2-37.9-5-41.6l-20.8,12.8c0,0,3.5-43.3-9.2-40.2c0,0-28.8,23.2-45,60.9s-48,112.2-25,199.8
			s101,104.5,101,104.5s59,11,101.5-21S816.9,860.1,816.9,860.1z"/>
	</g>
	<g>
		<circle fill="#FFFFFF" cx="718.4" cy="759.6" r="73"/>
	</g>
	<g>
		<path fill="#FECE2F" d="M669.4,836.6c-25.5-7-53.5-3-67,21.5s-12,77-11.5,139s10,143.5,18.5,142.5s13.5-25.5,13.5-25.5
			s11.5,11,28.5-2s30-77.5,30-77.5l24.5-88c0,0,23-54,1.5-83C688.9,838.6,669.4,836.6,669.4,836.6z"/>
	</g>
	<path fill="#1A1A1A" d="M718.4,683.6c-41.9,0-76,34.1-76,76s34.1,76,76,76s76-34.1,76-76S760.3,683.6,718.4,683.6z M770.4,806.5
		c-1.6-38.9-33.6-69.9-72.9-69.9c-18.8,0-35.9,7.1-48.9,18.8c2.2-36.6,32.7-65.8,69.9-65.8c38.6,0,70,31.4,70,70
		C788.4,777.7,781.6,794.1,770.4,806.5z"/>
	<path fill="#1A1A1A" d="M843.4,784.3c0-73.9-59-134.2-132.3-136.4c9.5-29.8-1.1-44.1-1.6-44.7c-0.7-0.9-2-1.4-3.1-1.1
		c-7.4,1.9-14.1,6.4-19.7,11.8c4.5-30.3-5.4-37.4-6.6-38.2c-0.9-0.6-2-0.6-3-0.1c-6.1,3.2-11.5,6.8-16.4,10.5
		c1.1-11.4,0-20.9-3.2-28.2c-3.1-6.8-7-9.3-7.4-9.5c-1.2-0.7-2.7-0.5-3.7,0.5c-50.5,51.2-68.4,112.6-74.6,155.1
		c-6.7,46-1.5,79.4-1.3,80.7c3.8,30.2,13.1,56.7,27.1,78.1c-5.4,11.6-8.5,26.2-9.1,43.7c-1.3,34.5-0.9,81.5,1,123.1
		c-0.1,0.1-0.2,0.2-0.3,0.3c-15.5,16.9-36.5,18.3-50.2,16.8c-8.4-0.9-16.2,4.2-18.9,12.1c-3.7,10.9,3.7,22.4,15.2,23.6
		c15.3,1.6,36.5,0.8,56.8-9.9c1.4,16.9,3,31,4.8,41.9c3.3,19.6,6.9,27.7,12.3,28.1c0.1,0,0.3,0,0.5,0c3.2,0,7.1-2.5,13.8-22.4
		c6.1,1.6,21.3,4.1,30.2-6.1c7.6-8.8,16.9-33,25.2-58.7c0.8,0.9,1.6,1.8,2.3,2.8c13.1,16.9,12.9,54.9,11.8,66.8
		c-0.9,9.9,6.3,18.7,16.2,19.6c0.6,0.1,1.1,0.1,1.7,0.1c9.2,0,17-7,17.9-16.3c0.6-6.1,5-61-19.2-92.2c-5.6-7.3-12.2-13.5-19.4-18.6
		c9.3-33,18.6-70.4,23.9-96.9C786.1,916.8,843.4,857.1,843.4,784.3z M576.4,783.8c-0.1-0.3-5.3-33.9,1.3-79
		c5.9-41,23.1-100.1,70.9-149.7c3.1,3.5,8.9,13.5,5.3,36.6c-25.9,22.8-33.9,49.7-34.3,51.1c-0.5,1.6,0.5,3.2,2.1,3.7
		c0.3,0.1,0.6,0.1,0.8,0.1c1.3,0,2.5-0.9,2.9-2.2c0.1-0.4,11.9-39.8,52.6-62.5c2.2,3.1,6.9,13.4,1.1,40.3
		c-7.8,9.7-12.4,19.3-12.7,20c-0.7,1.5-0.1,3.3,1.4,4c1.5,0.7,3.3,0.1,4-1.4c0.1-0.3,14.4-29.7,34.1-36.4c0.8,1.7,2,4.5,2.7,8.6
		c1.1,6.5,1.2,17.4-4.3,32.6c0,0.1,0,0.1,0,0.2c0,0.1-0.1,0.2-0.1,0.3c0,0.1,0,0.2,0,0.3c0,0.1,0,0.1,0,0.2c0,0,0,0,0,0.1
		c0,0.1,0,0.2,0,0.3c0,0.1,0,0.2,0,0.3c0,0.1,0.1,0.2,0.1,0.3c0,0.1,0.1,0.2,0.1,0.3c0,0.1,0.1,0.2,0.1,0.2c0,0.1,0.1,0.2,0.2,0.3
		c0.1,0.1,0.1,0.2,0.2,0.2c0.1,0.1,0.1,0.1,0.2,0.2c0.1,0.1,0.1,0.1,0.2,0.2c0.1,0.1,0.2,0.1,0.2,0.2c0.1,0,0.2,0.1,0.2,0.1
		c0.1,0.1,0.2,0.1,0.3,0.1c0,0,0,0,0.1,0c0.1,0,0.2,0,0.3,0.1c0.1,0,0.1,0,0.2,0.1c0.2,0,0.4,0.1,0.6,0.1c0,0,0,0,0,0
		c71.9,0,130.5,58.5,130.5,130.5c0,43.3-21.2,81.8-53.8,105.5c-34.9,17.8-66.6-17.7-75-28.3c-10.7-16.5-28.2-24.4-38.2-27.7
		c-14.9-5-36.8-6-54,5.9c-6.2,4.3-11.4,10-15.6,17C588.3,836.5,580,811.8,576.4,783.8z M649.2,1110.2c-6.5,7.5-18.6,5.6-23.8,4.3
		c0.3-1.1,0.7-2.2,1-3.4c4.8-15.9,10.4-38.1,16.5-65.9c0.5-2.2,1-4.3,1.4-6.5c1-0.1,2-0.1,3.1,0c9.1,0.4,18.6,4.7,26.6,11.8
		C665,1079.1,655.9,1102.3,649.2,1110.2z M710.5,908.1c-4.2,23.6-14.2,65.8-25.5,105.9c-10.3-6.2-21.6-10.1-33-11.1
		c6.1-30.1,10.4-53.4,10.4-53.7c0.3-1.6-0.8-3.2-2.4-3.5c-1.6-0.3-3.2,0.8-3.5,2.4c-0.1,0.5-8.5,46.3-18.6,92.4
		c-6,27.1-11.4,48.9-16,65c-7.2,24.8-11.1,29.9-12.3,30.9c-3.2-2.7-9.2-23.6-13-87c-2.8-46.2-3.6-102.3-2.1-142.7
		c1.1-30.4,9.7-51.3,25.4-62.2c8.7-6.1,19-8.3,28.6-8.3c7.3,0,14.2,1.3,20,3.2C687.6,845.9,718.5,863.3,710.5,908.1z"/>
</g>
<g>
	<g>
		<path fill="#1A1A1A" d="M1415.4,1718.6h-447c-1.7,0-3-1.3-3-3s1.3-3,3-3h447c1.7,0,3,1.3,3,3S1417.1,1718.6,1415.4,1718.6z"/>
	</g>
</g>
<g>
	<g>
		<path fill="#1A1A1A" d="M1484.4,1718.6h-42c-1.7,0-3-1.3-3-3s1.3-3,3-3h42c1.7,0,3,1.3,3,3S1486.1,1718.6,1484.4,1718.6z"/>
	</g>
</g>
<g>
	<g>
		<path fill="#1A1A1A" d="M1944.4,1718.6h-304c-1.7,0-3-1.3-3-3s1.3-3,3-3h304c1.7,0,3,1.3,3,3S1946.1,1718.6,1944.4,1718.6z"/>
	</g>
</g>
<g>
	<path fill="#FFFFFF" d="M1549.9,425.8c-134.2,0-243,108.8-243,243c0,42.3,10.8,82.1,29.8,116.7c-8,0.7-16.4,1.1-25.3,1.3
		c-53.5,1.1-184-43.1-184-43.1s-92.5-29-179-43s-143,15-143,15s-12.5,15.5-10,31.5s18,29,18,32c89.5-34.5,210.5,2.5,265,17.5
		c54.5,15,110.5,38.5,196.5,53.5c43.5,7.6,78.7,4.2,107.9-4.9c43.5,41.2,102.3,66.5,167,66.5c134.2,0,243-108.8,243-243
		S1684.1,425.8,1549.9,425.8z"/>
	<path fill="#1A1A1A" d="M1723.8,494.8c-46.5-46.5-108.2-72-173.9-72s-127.5,25.6-173.9,72c-46.5,46.5-72,108.2-72,173.9
		c0,40.7,9.9,80,28.4,115c-6.7,0.4-13.6,0.4-20.8,0c-43.5-2-103.3-19.7-166.5-38.5c-113.1-33.5-240.1-71.1-327.2-37.8
		c0.2,0.2,0.4,0.5,0.6,0.7c1.4,2,2.7,4,3.8,6.2c10.8,15.5,16.4,42.5,18.2,52.4c0.5,0.9,0.8,1.8,0.8,2.8c0,0.7,0,1.4,0.1,2.1
		c0.1,0.3,0.1,0.5,0.2,0.8c0,0.2,0.1,0.3,0.1,0.5c82.8-19.3,195.4,14.1,296.7,44.1c65.6,19.5,127.5,37.8,173,39.1
		c2.6,0.1,5.2,0.1,7.7,0.1c22.3,0,43.3-2.7,62.8-8c0.1,0.1,0.2,0.2,0.3,0.3c0.9,0.8,1.7,1.6,2.6,2.4c0.2,0.2,0.5,0.4,0.7,0.7
		c45.2,40.7,103.1,63.1,164.4,63.1c65.7,0,127.5-25.6,173.9-72s72-108.2,72-173.9S1770.3,541.3,1723.8,494.8z M1719.6,838.5
		c-45.3,45.3-105.6,70.3-169.7,70.3c-48.2,0-94.1-14.1-133.2-40.3c6.7-14.3,18.9-21.1,35.6-30.5c9.5-5.3,20.3-11.4,32-19.9
		c16.9-12.4,27.2-32.4,29.7-57.7c1.9-18.9-1.1-34-1.2-34.6c0-0.1,0-0.1-0.1-0.2c0-0.1,0-0.1-0.1-0.2c0-0.1-0.1-0.2-0.1-0.3
		c0-0.1,0-0.1-0.1-0.2c-0.1-0.1-0.2-0.3-0.3-0.4c0-0.1-0.1-0.1-0.1-0.2c-0.1-0.1-0.2-0.2-0.3-0.3c-0.1-0.1-0.1-0.1-0.2-0.2
		c-0.1,0-0.1-0.1-0.2-0.1c-0.1-0.1-0.2-0.1-0.3-0.1c-0.1,0-0.1-0.1-0.2-0.1c-0.1,0-0.1-0.1-0.2-0.1c0,0-0.1,0-0.1,0c0,0-0.1,0-0.1,0
		c-1.5-0.3-3,0.6-3.5,2.1c-0.1,0.3-9.9,32.7-38.8,64.1c-16.9,18.4-37,32.9-59.7,43c-28.4,12.7-61,18.6-96.9,17.7
		c-44.7-1.2-106.2-19.5-171.4-38.8c-72.8-21.6-151.4-44.9-221.1-49.3c-63.4-16.6-58.3-52.7-56.8-59.4
		c81.6-10.8,186.3,20.2,281.2,48.3c63.6,18.8,123.6,36.6,167.9,38.7c3.5,0.2,7,0.2,10.4,0.2c60.6,0,95.4-26,114.1-48.6
		c21.4-25.8,26.8-52,27.1-53.1c0.3-1.6-0.7-3.2-2.4-3.5c-1.6-0.3-3.2,0.7-3.5,2.4c-0.1,0.3-5.3,25.8-25.8,50.4
		c-12,14.5-26.8,25.7-44,33.5c-14.4,6.5-30.6,10.6-48.3,12.2c-18.9-34.7-29-73.8-29-114.5c0-47.9,14-93.7,40-132.7
		c14.9,19.1,31.4,40.2,33.2,41.6c3.3,2.7,34.3,12.8,34.3,12.8s7.2-49.8-11.8-77.2c-8.4-12.2-14.5-21.5-3.1-33.8
		c41.9-32.7,93.3-50.5,147.3-50.5c64.1,0,124.4,25,169.7,70.3c1.6,1.6,3.2,3.3,4.8,5l-53.9,93.9c0,0,24.6,11.9,50.7,2
		c25.3-9,40.7,9.7,43.3,19.7c2.2,8.3,9.9,26.7,24.7,30c0.5,6.3,0.8,12.7,0.8,19.1C1789.9,732.9,1764.9,793.2,1719.6,838.5z"/>
</g>
<g>
	<g>
		<path fill="#1A1A1A" d="M1683.9,788.9c-0.1,0-0.2,0-0.2,0c-1.7-0.1-2.9-1.6-2.8-3.2c0.4-4.6,0.7-9.3-0.4-13.6
			c-0.9-3.4-3.2-7.4-7.1-8.7c-1.6-0.5-2.4-2.2-1.9-3.8c0.5-1.6,2.2-2.4,3.8-1.9c5.2,1.7,9.3,6.6,11,12.9c1.4,5.3,0.9,10.8,0.5,15.6
			C1686.8,787.7,1685.5,788.9,1683.9,788.9z"/>
	</g>
	<g>
		<path fill="#1A1A1A" d="M1695.6,768.7c-0.4,0-0.9-0.1-1.3-0.3c-1.5-0.7-2.1-2.5-1.4-4c1.2-2.6,1.2-5.8-0.1-8.7
			c-1.3-3-3.6-5.2-6.3-6.1c-1.6-0.5-2.4-2.2-1.9-3.8c0.5-1.6,2.2-2.4,3.8-1.9c4.4,1.4,8,4.8,10,9.4s2,9.6,0,13.7
			C1697.7,768.1,1696.7,768.7,1695.6,768.7z"/>
	</g>
	<g>
		<path fill="#1A1A1A" d="M1706.1,745.5c-0.4,0-0.8-0.1-1.2-0.2c-1.5-0.6-2.3-2.4-1.6-3.9c0.7-1.8,0.6-3.9-0.4-5.9s-2.6-3.4-4.4-3.9
			c-1.6-0.4-2.5-2.1-2.1-3.7c0.4-1.6,2.1-2.5,3.7-2.1c3.5,1,6.5,3.5,8.2,7c1.7,3.5,1.9,7.5,0.5,10.8
			C1708.4,744.8,1707.3,745.5,1706.1,745.5z"/>
	</g>
</g>
<g>
	<g>
		<path fill="#FFFFFF" d="M738.6,1630.4c-0.8-53.2-35.4-96-78-96c-42.6,0-77.1,42.8-78,96H738.6z"/>
	</g>
	<g>
		<path fill="#FFFFFF" d="M667.9,1453.5c42,25,96.2,12,121.5-29.9c25.3-41.8,12-96.2-29.9-121.5c-35.4-21.5-74-12.2-107.6,9
			c-38.2,24.2-80.3,70.3-66.1,94.4c11.5,18.7,31,7.7,31,7.7s-3.1,12.2,7.9,18.8c9.4,5.7,21.1,2.8,21.1,2.8S655.5,1446,667.9,1453.5z
			"/>
	</g>
	<g>
		<path fill="#FECE2F" d="M724.9,1210.5c8.9-3.5,34.8,89.3,34.8,89.3s89.9-22.5,96.2-13.2c6.3,9.3-92.5,70.1-117.9,52.3
			C712.7,1321,707.2,1217.4,724.9,1210.5z"/>
	</g>
	<g>
		
			<ellipse transform="matrix(0.518 -0.8554 0.8554 0.518 -857.732 1278.5673)" fill="#FFFFFF" cx="705.7" cy="1400.4" rx="43" ry="43"/>
	</g>
	<g>
		<path fill="#1A1A1A" d="M858.5,1284.9c-1.6-2.4-5-7.5-53.5,1.8c-18.3,3.5-36.3,7.8-43.1,9.4c-1.8-6.5-6.7-23.2-12.3-40.1
			c-14.6-44.5-19.8-47.1-22-48.2c-1.6-0.8-3-0.6-3.8-0.2c-5.7,2.2-9.4,10.7-11.2,25.3c-1.8,15.2-1.2,35.2,1.6,53.8
			c-24.2,0.6-46.6,10.8-63.7,21.7c-38.2,24.2-82.8,71.8-67.1,98.5c9.2,14.8,22.9,13,30.1,10.7c0.2,5.4,2.4,12.3,9.8,16.8
			c8.1,4.9,17.6,4.2,21.5,3.5c3,3.3,11.2,11.9,21.6,18c3.4,2.1,7,3.9,10.6,5.4c-1.7,5.3-12,38.4-14.4,70c-0.7,0-1.3,0-2,0
			c-21.5,0-41.7,10.4-57,29.2c-15.1,18.6-23.6,43.4-24,69.8c0,0.8,0.3,1.6,0.9,2.2c0.6,0.6,1.3,0.9,2.1,0.9h156
			c0.8,0,1.6-0.3,2.1-0.9c0.6-0.6,0.9-1.3,0.9-2.2c-0.4-26.4-9-51.2-24-69.8c-10.4-12.9-23.2-21.8-37.2-26.1
			c2-29.7,12.2-62.6,13.7-67.4c6.4,1.4,13,2.1,19.6,2.1c7.3,0,14.7-0.9,22-2.7c23.7-5.8,43.7-20.5,56.4-41.3
			c17.6-29,17.1-63.9,1.8-91.7c25.4-11.2,50.7-27.7,59.9-36.8C855.8,1294.6,861.4,1289.2,858.5,1284.9z M712.9,1564.4
			c13.7,16.8,21.6,39.1,22.6,63.1H585.7c1-23.9,8.9-46.2,22.6-63.1c14.1-17.4,32.7-26.9,52.3-26.9c0.5,0,1.1,0,1.6,0
			c-0.1,1.3-0.1,2.5-0.1,3.8c-0.1,5,3.9,9.1,8.8,9.2c0.1,0,0.1,0,0.2,0c4.9,0,8.9-3.9,9-8.8c0-0.3,0-0.6,0-0.9
			C692.3,1544.9,703.6,1552.9,712.9,1564.4z M786.9,1422.1c-11.8,19.5-30.5,33.2-52.7,38.6c-22.1,5.4-45.1,1.9-64.8-9.8
			c-11.9-7.1-21.1-18-21.2-18.1c-0.6-0.7-1.4-1.1-2.3-1.1c-0.2,0-0.5,0-0.7,0.1c-0.1,0-10.6,2.5-18.8-2.5
			c-8.9-5.4-6.6-15.1-6.5-15.5c0.3-1.2-0.1-2.4-1.1-3.1c-1-0.7-2.3-0.8-3.3-0.2c-0.7,0.4-17.1,9.4-27-6.6
			c-5.8-9.7-1.1-25.3,13.2-43.8c12.8-16.7,32.3-34,51.9-46.5c23.7-15,44.3-20.5,61.5-20.7c0.1,0.5,0.2,0.9,0.2,1.4
			c2.6,13.9,8.7,38.4,20.9,47c3.8,2.6,8.8,3.8,14.6,3.8c4.1,0,8.6-0.6,13.3-1.6c10.9-0.2,31.4,3,34.8,29
			C800.1,1389.3,796.3,1406.6,786.9,1422.1z M790.1,1328.6c-24.2,10.4-42.5,13.3-50.3,7.8c-7.7-5.4-14.4-21.1-18.5-43.2
			c-3.7-20-4.7-42.8-2.7-59.5c1.5-12.5,4.4-18.5,6.8-20.1c0.1,0.1,0.2,0.2,0.3,0.3l23.6,100.3l102.4-26.6c0.7,0.1,1.1,0.3,1.4,0.4
			C850.6,1294,822.3,1314.7,790.1,1328.6z"/>
	</g>
	<g>
		<path fill="#1A1A1A" d="M729.5,1361.1c-21.7-13.1-50-6.2-63.2,15.5c-6.4,10.5-8.3,22.9-5.3,34.8c2.9,11.9,10.3,22,20.8,28.4
			c7.4,4.5,15.6,6.6,23.8,6.6c15.6,0,30.8-7.9,39.4-22.2C758.2,1402.5,751.2,1374.2,729.5,1361.1z M685,1434.6
			c-9.1-5.5-15.6-14.3-18.1-24.7c-2.5-10.4-0.9-21.1,4.6-30.3c2.5-4.1,5.6-7.6,9.2-10.4c-1.1,15.6,6.4,31.1,20.6,39.8
			c13.7,8.3,30.3,8,43.3,0.7c-0.9,3.9-2.5,7.8-4.7,11.4C728.5,1440,703.8,1446.1,685,1434.6z"/>
	</g>
</g>
<g>
	<g>
		<path fill="#FFFFFF" d="M567.8,1630.4c-0.8-53.2-35.4-96-78-96s-77.1,42.8-78,96H567.8z"/>
	</g>
	<g>
		<path fill="#FFFFFF" d="M497.2,1453.5c42,25,96.2,12,121.5-29.9c25.3-41.8,12-96.2-29.9-121.5c-35.4-21.5-74-12.2-107.6,9
			c-38.2,24.2-80.3,70.3-66.1,94.4c11.5,18.7,31,7.7,31,7.7s-3.1,12.2,7.9,18.8c9.4,5.7,21.1,2.8,21.1,2.8S484.7,1446,497.2,1453.5z
			"/>
	</g>
	<g>
		<path fill="#FECE2F" d="M554.2,1210.5c8.9-3.5,34.8,89.3,34.8,89.3s89.9-22.5,96.2-13.2c6.3,9.3-92.5,70.1-117.9,52.3
			C541.9,1321,536.4,1217.4,554.2,1210.5z"/>
	</g>
	<g>
		
			<ellipse transform="matrix(0.518 -0.8554 0.8554 0.518 -940.038 1132.4948)" fill="#FFFFFF" cx="534.9" cy="1400.4" rx="43" ry="43"/>
	</g>
	<g>
		<path fill="#1A1A1A" d="M687.7,1284.9c-1.6-2.4-5-7.5-53.5,1.8c-18.3,3.5-36.3,7.8-43.1,9.4c-1.8-6.5-6.7-23.2-12.3-40.1
			c-14.6-44.5-19.8-47.1-22-48.2c-1.6-0.8-3-0.6-3.8-0.2c-5.7,2.2-9.4,10.7-11.2,25.3c-1.8,15.2-1.2,35.2,1.6,53.8
			c-24.2,0.6-46.6,10.8-63.7,21.7c-38.2,24.2-82.8,71.8-67.1,98.5c9.2,14.8,22.9,13,30.1,10.7c0.2,5.4,2.4,12.3,9.8,16.8
			c8.1,4.9,17.6,4.2,21.5,3.5c3,3.3,11.2,11.9,21.6,18c3.4,2.1,7,3.9,10.6,5.4c-1.7,5.3-12,38.4-14.4,70c-0.7,0-1.3,0-2,0
			c-21.5,0-41.7,10.4-57,29.2c-15.1,18.6-23.6,43.4-24,69.8c0,0.8,0.3,1.6,0.9,2.2c0.6,0.6,1.3,0.9,2.1,0.9h156
			c0.8,0,1.6-0.3,2.1-0.9c0.6-0.6,0.9-1.3,0.9-2.2c-0.4-26.4-9-51.2-24-69.8c-10.4-12.9-23.2-21.8-37.2-26.1
			c2-29.7,12.2-62.6,13.7-67.4c6.4,1.4,13,2.1,19.6,2.1c7.3,0,14.7-0.9,22-2.7c23.7-5.8,43.7-20.5,56.4-41.3
			c17.6-29,17.1-63.9,1.8-91.7c25.4-11.2,50.7-27.7,59.9-36.8C685.1,1294.6,690.6,1289.2,687.7,1284.9z M542.1,1564.4
			c13.7,16.8,21.6,39.1,22.6,63.1H414.9c1-23.9,8.9-46.2,22.6-63.1c14.1-17.4,32.7-26.9,52.3-26.9c0.5,0,1.1,0,1.6,0
			c-0.1,1.3-0.1,2.5-0.1,3.8c-0.1,5,3.9,9.1,8.8,9.2c0.1,0,0.1,0,0.2,0c4.9,0,8.9-3.9,9-8.8c0-0.3,0-0.6,0-0.9
			C521.6,1544.9,532.8,1552.9,542.1,1564.4z M616.1,1422.1c-11.8,19.5-30.5,33.2-52.7,38.6c-22.1,5.4-45.1,1.9-64.8-9.8
			c-11.9-7.1-21.1-18-21.2-18.1c-0.6-0.7-1.4-1.1-2.3-1.1c-0.2,0-0.5,0-0.7,0.1c-0.1,0-10.6,2.5-18.8-2.5
			c-8.9-5.4-6.6-15.1-6.5-15.5c0.3-1.2-0.1-2.4-1.1-3.1c-1-0.7-2.3-0.8-3.3-0.2c-0.7,0.4-17.1,9.4-27-6.6
			c-5.8-9.7-1.1-25.3,13.2-43.8c12.8-16.7,32.3-34,51.9-46.5c23.7-15,44.3-20.5,61.5-20.7c0.1,0.5,0.2,0.9,0.2,1.4
			c2.6,13.9,8.7,38.4,20.9,47c3.8,2.6,8.8,3.8,14.6,3.8c4.1,0,8.6-0.6,13.3-1.6c10.9-0.2,31.4,3,34.8,29
			C629.4,1389.3,625.5,1406.6,616.1,1422.1z M619.3,1328.6c-24.2,10.4-42.5,13.3-50.3,7.8c-7.7-5.4-14.4-21.1-18.5-43.2
			c-3.7-20-4.7-42.8-2.7-59.5c1.5-12.5,4.4-18.5,6.8-20.1c0.1,0.1,0.2,0.2,0.3,0.3l23.6,100.3l102.4-26.6c0.7,0.1,1.1,0.3,1.4,0.4
			C679.8,1294,651.6,1314.7,619.3,1328.6z"/>
	</g>
	<g>
		<path fill="#1A1A1A" d="M558.8,1361.1c-21.7-13.1-50-6.2-63.2,15.5c-6.4,10.5-8.3,22.9-5.3,34.8c2.9,11.9,10.3,22,20.8,28.4
			c7.4,4.5,15.6,6.6,23.8,6.6c15.6,0,30.8-7.9,39.4-22.2C587.4,1402.5,580.5,1374.2,558.8,1361.1z M514.2,1434.6
			c-9.1-5.5-15.6-14.3-18.1-24.7c-2.5-10.4-0.9-21.1,4.6-30.3c2.5-4.1,5.6-7.6,9.2-10.4c-1.1,15.6,6.4,31.1,20.6,39.8
			c13.7,8.3,30.3,8,43.3,0.7c-0.9,3.9-2.5,7.8-4.7,11.4C557.7,1440,533.1,1446.1,514.2,1434.6z"/>
	</g>
</g>
<g>
	<g>
		<path fill="#FFFFFF" d="M397,1630.4c-0.8-53.2-35.4-96-78-96s-77.1,42.8-78,96H397z"/>
	</g>
	<g>
		<path fill="#FFFFFF" d="M326.4,1453.5c42,25,96.2,12,121.5-29.9s12-96.2-29.9-121.5c-35.4-21.5-74-12.2-107.6,9
			c-38.2,24.2-80.3,70.3-66.1,94.4c11.5,18.7,31,7.7,31,7.7s-3.1,12.2,7.9,18.8c9.4,5.7,21.1,2.8,21.1,2.8S313.9,1446,326.4,1453.5z
			"/>
	</g>
	<g>
		<path fill="#FECE2F" d="M383.4,1210.5c8.9-3.5,34.8,89.3,34.8,89.3s89.9-22.5,96.2-13.2c6.3,9.3-92.5,70.1-117.9,52.3
			C371.2,1321,365.6,1217.4,383.4,1210.5z"/>
	</g>
	<g>
		
			<ellipse transform="matrix(0.518 -0.8554 0.8554 0.518 -1022.3439 986.4222)" fill="#FFFFFF" cx="364.2" cy="1400.4" rx="43" ry="43"/>
	</g>
	<g>
		<path fill="#1A1A1A" d="M516.9,1284.9c-1.6-2.4-5-7.5-53.5,1.8c-18.3,3.5-36.3,7.8-43.1,9.4c-1.8-6.5-6.7-23.2-12.3-40.1
			c-14.6-44.5-19.8-47.1-22-48.2c-1.6-0.8-3-0.6-3.8-0.2c-5.7,2.2-9.4,10.7-11.2,25.3c-1.8,15.2-1.2,35.2,1.6,53.8
			c-24.2,0.6-46.6,10.8-63.7,21.7c-38.2,24.2-82.8,71.8-67.1,98.5c9.2,14.8,22.9,13,30.1,10.7c0.2,5.4,2.4,12.3,9.8,16.8
			c8.1,4.9,17.6,4.2,21.5,3.5c3,3.3,11.2,11.9,21.6,18c3.4,2.1,7,3.9,10.6,5.4c-1.7,5.3-12,38.4-14.4,70c-0.7,0-1.3,0-2,0
			c-21.5,0-41.7,10.4-57,29.2c-15.1,18.6-23.6,43.4-24,69.8c0,0.8,0.3,1.6,0.9,2.2c0.6,0.6,1.3,0.9,2.1,0.9h156
			c0.8,0,1.6-0.3,2.1-0.9c0.6-0.6,0.9-1.3,0.9-2.2c-0.4-26.4-9-51.2-24-69.8c-10.4-12.9-23.2-21.8-37.2-26.1
			c2-29.7,12.2-62.6,13.7-67.4c6.4,1.4,13,2.1,19.6,2.1c7.3,0,14.7-0.9,22-2.7c23.7-5.8,43.7-20.5,56.4-41.3
			c17.6-29,17.1-63.9,1.8-91.7c25.4-11.2,50.7-27.7,59.9-36.8C514.3,1294.6,519.8,1289.2,516.9,1284.9z M371.4,1564.4
			c13.7,16.8,21.6,39.1,22.6,63.1H244.2c1-23.9,8.9-46.2,22.6-63.1c14.1-17.4,32.7-26.9,52.3-26.9c0.5,0,1.1,0,1.6,0
			c-0.1,1.3-0.1,2.5-0.1,3.8c-0.1,5,3.9,9.1,8.8,9.2c0.1,0,0.1,0,0.2,0c4.9,0,8.9-3.9,9-8.8c0-0.3,0-0.6,0-0.9
			C350.8,1544.9,362.1,1552.9,371.4,1564.4z M445.4,1422.1c-11.8,19.5-30.5,33.2-52.7,38.6c-22.1,5.4-45.1,1.9-64.8-9.8
			c-11.9-7.1-21.1-18-21.2-18.1c-0.6-0.7-1.4-1.1-2.3-1.1c-0.2,0-0.5,0-0.7,0.1c-0.1,0-10.6,2.5-18.8-2.5
			c-8.9-5.4-6.6-15.1-6.5-15.5c0.3-1.2-0.1-2.4-1.1-3.1c-1-0.7-2.3-0.8-3.3-0.2c-0.7,0.4-17.1,9.4-27-6.6
			c-5.8-9.7-1.1-25.3,13.2-43.8c12.8-16.7,32.3-34,51.9-46.5c23.7-15,44.3-20.5,61.5-20.7c0.1,0.5,0.2,0.9,0.2,1.4
			c2.6,13.9,8.7,38.4,20.9,47c3.8,2.6,8.8,3.8,14.6,3.8c4.1,0,8.6-0.6,13.3-1.6c10.9-0.2,31.4,3,34.8,29
			C458.6,1389.3,454.7,1406.6,445.4,1422.1z M448.5,1328.6c-24.2,10.4-42.5,13.3-50.3,7.8c-7.7-5.4-14.4-21.1-18.5-43.2
			c-3.7-20-4.7-42.8-2.7-59.5c1.5-12.5,4.4-18.5,6.8-20.1c0.1,0.1,0.2,0.2,0.3,0.3l23.6,100.3l102.4-26.6c0.7,0.1,1.1,0.3,1.4,0.4
			C509,1294,480.8,1314.7,448.5,1328.6z"/>
	</g>
	<g>
		<path fill="#1A1A1A" d="M388,1361.1c-21.7-13.1-50-6.2-63.2,15.5c-6.4,10.5-8.3,22.9-5.3,34.8c2.9,11.9,10.3,22,20.8,28.4
			c7.4,4.5,15.6,6.6,23.8,6.6c15.6,0,30.8-7.9,39.4-22.2C416.6,1402.5,409.7,1374.2,388,1361.1z M343.4,1434.6
			c-9.1-5.5-15.6-14.3-18.1-24.7c-2.5-10.4-0.9-21.1,4.6-30.3c2.5-4.1,5.6-7.6,9.2-10.4c-1.1,15.6,6.4,31.1,20.6,39.8
			c13.7,8.3,30.3,8,43.3,0.7c-0.9,3.9-2.5,7.8-4.7,11.4C386.9,1440,362.3,1446.1,343.4,1434.6z"/>
	</g>
</g>
<g>
	<g>
		<path fill="#FECE2F" d="M867.1,1689.6l31.7-32.3l-39.1,17.4c-7.1-0.5-28.4-1.9-51.9-3.6l-21.5-15.1l80.7,4.7l-6.4-13.5l-67.3-4.7
			l-0.2-0.7l36.7-0.4L829,1625l-87.3,1.5l57.4-18.6l86.8,6.2l-7.2-10l-49.5-6.1l39.2-28.5l-92.5,30.5l-2.1-11.2l11.6-1.7l-2.8-18
			l-44.8,7.3l0.6-3.1l-17.9,3.8l-1.2,2.3l-34,5.5l-1-3.5l-9.7,5.3l-20.4,3.3l22.1-22.6l-14.2-1.1l-26.6,21.7l-12.8-4.1l-110.5,29.2
			l-29.3,4.8l-2.8,3.7l-3,0.8c-29.5,1.7-66.2,3.9-97.5,5.7l101.6-15.3l-3.6-16l-96.9,15.2l14.1-8.8l-22.8-1.1l-24.2,15l-0.8,0.1
			l-2.1-4.4l-58.4-1.1l71.2-16.1l-15.6-16l-109.8,28.9l-29.4-22.5l-3.1-28.1l-14.9,12.1l-26.4-20.3l-7.2,18.2l55.2,42.4l-18-0.3
			l1.1,1.1l-103.1-32.4L67.5,1589l66.2,21.5l-49.5,6.1l-7.2,10l86.8-6.2l53.8,17.5l-26.1,4.1l-5,11.2c-26.3-7.4-46-13-47.2-13.3
			l-46.8,1.1l-3.6,12.8l51.6-2.1l36.8,10.9l-4.2,7l23.5-1.3l15.1,4.5l-94.8,11.6l-12.8,13.5c0,0,15-1.8,37.3-4.5l-5.3,6.7l72.5,4
			l22.5,2l2.6-0.6l91.9,5l-13.4,12.7l307.5-10.4l279.3,1.1l26-9L867.1,1689.6z M763.6,1667.8l1.2,0l0.3,0.1
			C764.6,1667.9,764.1,1667.8,763.6,1667.8z"/>
	</g>
	<g>
		<path fill="#1A1A1A" d="M926.2,1701.7l-53.3-13.7l28.1-28.6c1-1,1.1-2.6,0.3-3.8c-0.8-1.2-2.4-1.6-3.7-1l-38.4,17.1
			c-15.5-1-33.1-2.2-50.3-3.5l-12.2-8.6l70.2,4.1c1,0.1,2.1-0.4,2.7-1.3c0.6-0.9,0.7-2,0.2-3l-6.4-13.5c-0.5-1-1.4-1.6-2.5-1.7
			l-28.2-2c0.1-0.3,0.1-0.7,0.1-1l-0.8-16.3c-0.1-1.6-1.4-2.9-3-2.9l-67.2,1.2l37.7-12.2l86.2,6.2c1.2,0.1,2.3-0.5,2.8-1.5
			c0.6-1,0.5-2.3-0.2-3.2l-7.2-10c-0.5-0.7-1.2-1.1-2.1-1.2l-41.9-5.1l33.1-24c0.3-0.2,0.6-0.5,0.8-0.9c6.1-0.2,16.1-1.5,24.3-7.3
			c13-9.1,16.9-25.9,16.9-25.9s-17.1-2-30.1,7.2c-0.3,0.2-0.6,0.4-0.9,0.6c-0.3-7.8-3.8-14.4-3.8-14.4s-12.5,5.5-16.2,16.4
			c-2.8,8,0,16.7,1.7,20.7l-84.6,27.9l-0.9-4.7l8.6-1.2c0.8-0.1,1.5-0.5,2-1.2c0.5-0.6,0.7-1.5,0.5-2.2l-2.8-18
			c-0.1-0.8-0.6-1.5-1.2-2c-0.6-0.5-1.5-0.7-2.2-0.5l-40.8,6.6c-0.1-0.6-0.4-1.2-0.8-1.6c-0.7-0.7-1.7-1-2.7-0.8l-17.9,3.8
			c-0.9,0.2-1.7,0.8-2.1,1.6l-0.5,0.9l-29.8,4.9l-0.3-1c-0.3-0.9-0.9-1.6-1.7-1.9c-0.8-0.3-1.8-0.3-2.6,0.1l-9.3,5l-10.9,1.8
			l15.7-16c0.8-0.8,1.1-2.1,0.7-3.2s-1.4-1.8-2.6-1.9l-14.2-1.1c-0.8-0.1-1.5,0.2-2.1,0.7l-25.3,20.7l-11.2-3.6
			c-0.5-0.2-1.1-0.2-1.7,0l-110.3,29.1l-28.2,4.6c0.1-0.1,0.2-0.2,0.2-0.3c0.5-0.7,0.6-1.5,0.5-2.4l-3.6-16
			c-0.3-1.5-1.8-2.5-3.4-2.3l-82.3,12.9l1.6-1c1.1-0.7,1.6-2,1.3-3.3s-1.5-2.2-2.8-2.2l-22.8-1.1c-0.6,0-1.2,0.1-1.7,0.4l-22.1,13.7
			l-0.8-1.7c-0.5-1-1.5-1.7-2.6-1.7l-33.7-0.6l47.1-10.6c1.1-0.2,1.9-1,2.2-2.1c0.3-1,0-2.2-0.7-2.9l-15.6-16
			c-0.8-0.8-1.9-1.1-2.9-0.8l-108.3,28.6l-27.2-20.8l-2.5-22.6c4.7-1.2,11.5-3.9,15.9-9.4c7.4-9.2,5.6-23,5.6-23
			s-13.8,1.2-21.2,10.4c-0.2,0.3-0.5,0.6-0.7,0.9c-0.4-3.2-1.2-6.5-2.5-9.7c-6.1-14.6-21.6-22.1-21.6-22.1s-5.7,16.3,0.4,30.9
			c3.6,8.6,10.4,14.7,15.5,18.3l-9.8,8l-24.5-18.8c-0.7-0.6-1.7-0.8-2.6-0.5c-0.9,0.2-1.6,0.9-2,1.8l-7.2,18.2
			c-0.5,1.2-0.1,2.7,1,3.5l48,36.8l-8.9-0.2c-0.4,0-0.8,0.1-1.2,0.2l-99.9-31.4c-0.8-0.2-1.6-0.2-2.3,0.2l-19.2,10.2
			c-1.1,0.6-1.7,1.7-1.6,2.9c0.1,1.2,0.9,2.2,2.1,2.6l53.3,17.3l-36,4.4c-0.8,0.1-1.6,0.5-2.1,1.2l-7.2,10c-0.7,0.9-0.8,2.2-0.2,3.2
			s1.7,1.6,2.8,1.5l86.2-6.2l41.3,13.4l-13.7,2.1c-1,0.2-1.9,0.8-2.3,1.7l-4,8.8c-25-7.1-43.5-12.3-44.6-12.6
			c-0.3-0.1-0.6-0.1-0.9-0.1l-46.8,1.1c-1.3,0-2.5,0.9-2.8,2.2l-3.6,12.8c-0.3,0.9-0.1,1.9,0.5,2.7c0.6,0.8,1.5,1.2,2.5,1.1
			l51.1-2.1l32.6,9.7l-2.2,3.7c-0.6,1-0.6,2.1,0,3.1c0.5,0.9,1.5,1.4,2.6,1.4c0.1,0,0.1,0,0.2,0l23-1.3l0.8,0.2l-80.5,9.9
			c-0.7,0.1-1.3,0.4-1.8,0.9l-12.8,13.5c-0.9,0.9-1.1,2.3-0.5,3.4c0.5,1,1.6,1.7,2.7,1.7c0.1,0,0.2,0,0.4,0
			c7.8-0.9,18.2-2.2,30.2-3.6l-0.8,1.1c-0.7,0.9-0.8,2.1-0.4,3.1s1.5,1.7,2.6,1.8l72.5,4l22.4,1.9c0.1,0,0.2,0,0.3,0
			c0.2,0,0.4,0,0.6-0.1l2.2-0.5l84.6,4.6l-8.3,7.9c-0.9,0.9-1.2,2.2-0.7,3.3c0.5,1.1,1.6,1.8,2.8,1.8c0,0,0.1,0,0.1,0l307.5-10.4
			l279.2,1.1h0c0.3,0,0.7-0.1,1-0.2l26-9c1.3-0.4,2.1-1.6,2-3C928.4,1703.2,927.5,1702.1,926.2,1701.7z M847.5,1676.9l-27.2,12.1
			l-6.9,0.2c0.2-0.1,0.5-0.1,0.7-0.3l9.6-5c0.9-0.5,1.5-1.4,1.6-2.5s-0.4-2.1-1.3-2.7l-5.6-3.9
			C829.1,1675.7,839.1,1676.4,847.5,1676.9z M816.5,1680.9l-4,2.1l-46.7-18c-0.3-0.1-0.7-0.2-1.1-0.2h0l-9.1,0.1l13.8-6.8l15.9,0.9
			L816.5,1680.9z M745.1,1678.2l-6.9-7.3l25.2-0.2c0.3,0,0.7,0.1,1,0.1l47.2,18.2c0.2,0.1,0.4,0.1,0.5,0.2l-76.1,1.8l-25.5-0.8l33-7
			c1.1-0.2,1.9-1,2.2-2C746.1,1680.1,745.8,1679,745.1,1678.2z M858.7,1650l3.5,7.4l-74.8-4.3l-0.2-0.2c0,0-0.1,0.1-0.2,0.1
			l-6.7-0.4l14.4-7.1L858.7,1650z M826.2,1628.1l0.5,10.3l-31.2,0.4l-2.6-9.6c-0.1-0.2-0.1-0.4-0.2-0.5L826.2,1628.1z M789.9,1641.2
			l-38.3,18.9c-2,0.3-9.6,1.5-20.6,3.2l-1.3-1.3c-0.7-0.7-1.7-1.1-2.7-0.9l-83,15.8c-23.2,3.6-45.7,7.2-62.1,9.7h-15.6l0.3-0.3
			l26.3-8.5l152.9-21.8c0.3,0,0.7-0.2,1-0.3l41.3-21.4L789.9,1641.2z M417,1662.1l-8.6-2.8l28.2-1.6l19.6,1.6l0.3,1.7l-74.2,14.6
			l34.5-7.6c1.3-0.3,2.3-1.4,2.3-2.8S418.3,1662.5,417,1662.1z M450.1,1650.9C450.1,1650.9,450.1,1650.9,450.1,1650.9l-29.6,1.7
			l33.2-9.4l-3.4,4.4C449.5,1648.5,449.5,1649.9,450.1,1650.9z M560.2,1646.7l8.7,4.1l-91,18.8c-1.1,0.2-2,1.1-2.3,2.2s0.1,2.3,1,3
			l8.8,7.3l-9.1,9l-18.7-16.1c-0.7-0.6-1.7-0.9-2.6-0.7l-101.2,20.9l-6.9-6.7L560.2,1646.7z M712.1,1621.9l0.9,3.4l-46.1,5.3
			c-1.4,0.2-2.5,1.2-2.6,2.6c-0.2,1.4,0.6,2.7,1.9,3.2l27.9,10.8l-4.5,1.1l-52.1-10.5c-0.3-0.1-0.6-0.1-0.9,0l-65.4,7.4l-9.2-4.3
			c-0.6-0.3-1.2-0.4-1.9-0.2l-69.3,13.6l-28.9,3.3l-0.2-1.2l12.3-0.7c0.8,0,1.6-0.4,2.1-1c0.5-0.6,0.8-1.4,0.7-2.3l-0.4-4
			c0.9-0.2,1.8-0.3,2.8-0.5l45.2-5l6.1,1.4c0.7,0.2,1.5,0.1,2.2-0.3l4.3-2.5L712.1,1621.9z M693.6,1618l7.3-11.9l8.8-1.9l-3.6,12.4
			L693.6,1618z M705.1,1645.1l-4.9-1.9l10.6-3.4l47.5,3.3l-13.8,7.2l-1.9,0.3l-35.6-2.1c0-0.1,0-0.2,0.1-0.4
			C707.1,1646.7,706.3,1645.5,705.1,1645.1z M712.5,1654.7l-86.2,12.3l48.2-15.6l14.4,2.9c0.4,0.1,0.9,0.1,1.3,0l2.8-0.7
			L712.5,1654.7z M580.8,1650.1l53.7-6.1l-56.7,18.9l-27.5-2.2l28.8-5.9c1.3-0.3,2.2-1.3,2.4-2.6
			C581.5,1651.4,581.2,1650.7,580.8,1650.1z M568.4,1672.4C568.4,1672.4,568.4,1672.4,568.4,1672.4l79.1-26.5l15,3l-97.3,31.5
			L568.4,1672.4z M459.8,1645.1l3.6-4.7l2.3-0.7l0.2,0c0,0,0,0,0,0l20.3-5.7l16,3.7C484,1640.9,468.6,1643.6,459.8,1645.1z
			 M398.1,1692.2l21.2-4.4l45.3,1l9.9,8.6c1.2,1,3,1,4.1-0.1l8-7.9l11.6,0.3l-24.8,14.5l-91.6-1.4L398.1,1692.2z M492.6,1680.6
			c-0.2-0.4-0.4-0.7-0.8-1l-6.5-5.4l43.9-9.1l34,2.7l-2.4,0.8l-13.7,0.8c-0.9,0.1-1.7,0.5-2.2,1.2l-3.3,4.4l-10.3,3.4
			c-1.2,0.4-2,1.5-2,2.7L492.6,1680.6z M536,1690.5c1,0,1.9-0.4,2.5-1.2l10.4-14l12.3-0.7l-5.5,14c-0.4,0.9-0.2,2,0.3,2.8
			c0.6,0.8,1.5,1.3,2.5,1.3h36.2v9.6l-84.7,1.4l18.1-13.4L536,1690.5z M785.8,1628.8l-17.3,8.9l-42.4-3l16.1-5.2L785.8,1628.8z
			 M851.2,1578.6l-23.7,17.2c-1,0.7-1.5,2-1.1,3.2c0.3,1.2,1.3,2.1,2.5,2.2l48.2,5.9l2.7,3.7l-80.4-5.8c-0.4,0-0.8,0-1.1,0.1
			l-106.9,34.6l-11.5-4.5l0.2-0.1l37.2-4.3c0.9-0.1,1.6-0.6,2.1-1.3s0.6-1.6,0.4-2.5l-1.2-4.8L851.2,1578.6z M740.5,1579.2l39.7-6.5
			l1.9,12l-5.9,0.9c-0.5-1.2-1.8-2-3.2-1.8l-34.4,5.2L740.5,1579.2z M714.1,1583.5l-3.8,7.6l-19.2,3.2c0-0.3,0-0.5-0.1-0.8l-1.8-6
			L714.1,1583.5z M712.9,1596.8c0.9-0.2,1.8-0.8,2.2-1.6l7.6-15.2l12.1-2.5l-2.8,14.7c-0.2,1,0.1,1.9,0.8,2.6c0.7,0.7,1.6,1,2.6,0.9
			l35.8-5.4l1.5,7.9l-27.5,9.1l-31.2,4.2l3.1-10.5c0.3-1,0-2.1-0.7-2.9c-0.7-0.8-1.8-1.1-2.8-0.9l-15,3.2c-0.8,0.2-1.5,0.7-1.9,1.4
			l-8,13.1l-88.7,11.9c27-4.7,47.3-8.2,48.5-8.4c0.3-0.1,0.6-0.2,0.9-0.3l29.9-15.5L712.9,1596.8z M682.6,1586l2,6.8l-37.9,19.6
			c-5.8,1-56.6,9.9-104.9,18.3l-12.7-4.3l111.7-17.9c0.3-0.1,0.7-0.2,1-0.3L682.6,1586z M629.9,1596.8l6.7-5.5l0.2-0.1
			c0.9-0.3,1.6-0.9,1.9-1.7l24.4-20l6.6,0.5l-17.6,18c-0.9,0.9-1.1,2.3-0.5,3.5c0.6,1.2,1.9,1.8,3.1,1.6l2.9-0.5l-18.3,9.9
			l-98.3,15.8l55.8-15.8l31.6-5.1C629,1597.4,629.5,1597.2,629.9,1596.8z M622.7,1587.3l2.9,1l-114.8,32.5c-1.4,0.4-2.4,1.8-2.1,3.4
			c0.2,1.1,1.1,2,2.1,2.4l24.2,8.3c0.3,0.1,0.4,0.5,0.1,0.7l-3.2,2.5c-0.5,0.4-1.1,0.5-1.7,0.4l-43.5-10.5c-0.5-0.1-1-0.1-1.5,0
			L346,1667.4l-9.6-4.5L622.7,1587.3z M312,1658.6l16.8-10.5l52-3.2l-47.2,12.5L312,1658.6z M332.5,1667.6l-52,10.7l21-13.1l24-1.3
			c0.3,0.4,0.7,0.7,1.1,0.9L332.5,1667.6z M341.1,1640.5l6.9-4.3l32-4.8c21.3-1.2,45.1-2.6,67.4-4l-32.4,8.6L341.1,1640.5z
			 M480.9,1616.1c-0.1,0.1-0.1,0.1-0.2,0.2l-2.2,2.9l-1.8,0.5c-10.4,0.6-21,1.2-31.6,1.9L480.9,1616.1z M475.4,1600.4l2.3,10.1
			l-116.8,17.6l21-13.1L475.4,1600.4z M372.9,1605.3l12.2,0.6l-121.6,75.9l-20.8,4.3L372.9,1605.3z M272,1660.9l-38.7,2.2
			c-7.4-2.1-14.8-4.2-22-6.2l16.3-2.5l60.9-3.7L272,1660.9z M341.2,1583.2l10.6,10.9l-65.6,14.8l-39.9-0.8L341.2,1583.2z
			 M337.3,1616l-60.4,9.5l-19.2-1l-13.3-10.2L337.3,1616z M155.1,1567.1l4.9-12.4l23.2,17.9c1.1,0.8,2.6,0.8,3.7-0.1l10.6-8.6
			l2.5,22.7c0.1,0.8,0.5,1.6,1.2,2l52.6,40.4l-15,2.4L155.1,1567.1z M164.9,1617.4c-0.3-0.1-0.6-0.1-0.9-0.1c-0.1,0-0.1,0-0.2,0
			l-80.4,5.8l2.7-3.7l48.2-5.9c1.4-0.2,2.5-1.3,2.6-2.7c0.1-1.4-0.7-2.7-2.1-3.1l-59.5-19.3L87,1582l131.6,41.4l12,9.2l-12.7,2
			L164.9,1617.4z M193.7,1644.5l140-22l-20.6,12.8l-123.3,17.8L193.7,1644.5z M141.5,1648.5c-0.3-0.1-0.6-0.1-0.9-0.1
			c0,0-0.1,0-0.1,0l-47.4,2l1.9-6.7l44.1-1c3.2,0.9,20.5,5.8,43.4,12.3l-0.8,1.7c-0.5,1-0.3,2.2,0.3,3c0.6,0.8,1.5,1.2,2.4,1.2
			c0.1,0,0.3,0,0.4,0l12-1.8c17,4.8,35.8,10.1,53.7,15.1l-7.4,4.6L141.5,1648.5z M112.2,1693.7l6.3-6.7l93.1-11.4l14.7,4.4
			C187.4,1684.7,144.8,1689.8,112.2,1693.7z M232.8,1685.2l-2.2,1.3l-6.3-0.3C227.1,1685.9,230,1685.6,232.8,1685.2z M180.3,1699.4
			l-38-2.1l1-1.2c13.9-1.7,29.5-3.6,45.7-5.5l26,1.3l-33.3,6.9C181.1,1698.8,180.7,1699,180.3,1699.4z M231.2,1702.9l-28.2-2.5
			l138.4-28.5l3,1.4c0.4,0.2,0.8,0.3,1.3,0.3c0.3,0,0.5,0,0.8-0.1l34.5-9.8l13.3-2.7l10.3,3.4l-70.8,15.7c-0.9,0.2-1.6,0.8-2,1.6
			c-0.4,0.8-0.4,1.7-0.1,2.6l6,13.7l-15.9,1.5l-7.2-12.9c-0.6-1.2-2-1.8-3.3-1.5L231.2,1702.9z M341.9,1692l-0.1,0l-0.1-0.2
			L341.9,1692z M313.4,1696.7l-3.9,1.7l-13.1-3.9l14-3.1L313.4,1696.7z M256,1703.5l28.4-6.3l24.5,7.3c0.3,0.1,0.6,0.1,0.9,0.1
			c0.4,0,0.8-0.1,1.2-0.3l5.4-2.4l1.2,2.2c0.6,1,1.7,1.7,2.9,1.5l22-2.1c1-0.1,1.8-0.6,2.3-1.5c0.5-0.8,0.5-1.8,0.2-2.7l-0.5-1.2
			l4,0.2l2.4,2.3c0.6,0.5,1.3,0.8,2.1,0.8c0.2,0,0.4,0,0.6-0.1l11.1-2.3l10.8,0.5l-5.3,3.4c-1,0.6-1.5,1.8-1.3,3l-42.3,0.7
			c-0.6,0-1.1,0.2-1.6,0.5L256,1703.5z M619.2,1709.6l-298.7,10.1l7.4-7l146.1-2.4c0.5,0,1-0.1,1.5-0.4l37.7-22.1l6.3,1.4
			l-20.6,15.2c-1.1,0.8-1.5,2.1-1.1,3.4c0.4,1.2,1.6,2.1,2.9,2l120.8-2L619.2,1709.6z M600.6,1702.2v-10.9l44.4-8.5
			c30.7-4.8,62.7-9.8,83.8-13.1l8.2,8.7L627,1701.8L600.6,1702.2z M898.9,1710.6l-269.4-1.1l3.4-2.4c0.3-0.2,0.5-0.4,0.7-0.7l37.8-8
			l64.7-1.5l3.8,0.1l2.3,0.1c0.2-0.1,0.4-0.3,0.6-0.4l78.2-1.8c0.4,0,0.8-0.1,1.2-0.3l63.4-28.3l-20.7,21.1c-0.8,0.8-1,1.9-0.7,2.9
			c0.3,1,1.1,1.8,2.1,2.1l48.7,12.5L898.9,1710.6z"/>
	</g>
</g>
<g>
	<path fill="#1A1A1A" d="M1170.4,734.6c-0.4,0-0.7-0.1-1.1-0.2C1059,692.1,950.1,676.8,949,676.6c-1.6-0.2-2.8-1.7-2.6-3.4
		c0.2-1.6,1.7-2.8,3.4-2.6c1.1,0.2,110.6,15.5,221.7,58.2c1.5,0.6,2.3,2.3,1.7,3.9C1172.8,733.9,1171.6,734.6,1170.4,734.6z"/>
</g>
<g>
	<g>
		<path fill="#1A1A1A" d="M237.9,1333.3c-0.6,0-1.1-0.2-1.6-0.5c-1.4-0.9-1.8-2.8-0.9-4.2c1.2-1.8,29.6-44.5,77.9-64.1
			c1.5-0.6,3.3,0.1,3.9,1.7c0.6,1.5-0.1,3.3-1.7,3.9c-46.6,18.9-74.8,61.4-75.1,61.9C239.9,1332.8,238.9,1333.3,237.9,1333.3z"/>
	</g>
</g>
<g>
	<g>
		<path fill="#1A1A1A" d="M800.4,1451.8c-0.7,0-1.3-0.2-1.9-0.7c-1.3-1-1.5-2.9-0.5-4.2c18.8-23.3,24.6-44.1,26.1-57.5
			c1.7-14.5-1.1-23.6-1.1-23.7c-0.5-1.6,0.4-3.3,2-3.8c1.6-0.5,3.3,0.4,3.8,1.9c0.5,1.6,12.1,39.6-26,86.8
			C802.2,1451.4,801.3,1451.8,800.4,1451.8z"/>
	</g>
</g>
<g>
	<g>
		<path fill="#FFFFFF" d="M1667.9,593.6c-12-9.4-10.8-35.3-5.8-53.3s40.7-94.3,40.7-94.3s36.7-59.7,42-67.3s20-27.3,40.7-15.5
			c0,0,23-30.5,47-21.5c0,0,18.7-18.3,34.3-5s4.7,44.3,4.7,44.3s-18.7,34.3-36.3,57.3c-17.7,23-79,98-93.2,113
			C1727.8,566.3,1685.8,607.6,1667.9,593.6z"/>
	</g>
	<g>
		<path fill="#1A1A1A" d="M1873.8,339.6c-4.7-7.6-12.5-11.7-22-11.5c-2.3,0-7.3,0.2-18.1,10.5c-4-1.9-15-5.6-29.3,2.4
			c-4.6,2.5-11,9.4-18.3,18.7c-3.7-3-13.9-8.9-29.3,1c-20.1,12.9-72.4,112.6-86.7,147.7c-10.9,26.9-25.9,74-3.8,87.7
			c3.2,2,6.8,3,10.9,3c15.6,0,37.3-15.2,66.9-46.5c34.5-36.4,107.8-127.3,125-159.7C1879.8,372.8,1881.7,352.3,1873.8,339.6z
			 M1863.8,390.2c-17,32-89.8,122.1-124,158.3c-34.1,36-57.7,50.3-70.2,42.5c-13.2-8.2-10.9-38.2,6.2-80.3
			c7.8-19.2,24.7-52.9,41.1-82.1c19.6-34.9,35.4-57.8,43.2-62.8c12.8-8.2,20.3-3.2,22.5-1.4c-27.9,36.8-66.1,102.5-68.2,106.2
			c-0.8,1.4-0.3,3.3,1.1,4.1c0.5,0.3,1,0.4,1.5,0.4c1,0,2-0.5,2.6-1.5c18.7-32.2,70.8-117.9,87.9-127.4c10.1-5.6,17.9-4.4,21.9-3.1
			c-7.9,8.4-18.3,21.5-32.1,41.9c-18.5,27.5-34.2,55.2-34.4,55.5c-0.8,1.4-0.3,3.3,1.1,4.1c1.4,0.8,3.3,0.3,4.1-1.1
			c23.8-42.1,67.7-109.1,84-109.5c7.4-0.2,13.2,2.8,16.7,8.6C1875.3,353.5,1873.4,372.1,1863.8,390.2z"/>
	</g>
</g>
<g>
	<path fill="#1A1A1A" d="M1854.4,453.3c-0.6,0-1.3-0.2-1.8-0.6c-1.3-1-1.5-2.9-0.5-4.2c0.4-0.5,36.4-47.3,45.5-80.9
		c9-33.3-14.5-42.3-14.7-42.4c-1.6-0.5-2.4-2.2-1.9-3.8c0.5-1.6,2.2-2.4,3.8-1.9c0.3,0.1,29,10.9,18.6,49.6
		c-4,14.7-13,33.1-26.9,54.8c-10.3,16.1-19.6,28.1-19.7,28.2C1856.2,452.9,1855.3,453.3,1854.4,453.3z"/>
</g>
<g>
	<g>
		<path fill="#FFFFFF" d="M1220.7,351.1c-20.2-1-23.9,18.8-23.6,29.8c0.3,11,8.7,36,37.7,74.3s84.7,105,84.7,105
			s49.7,53.7,70.3,55.3s24-11.3,24.3-21.3c0.3-10-7.3-51.3-21.7-81c-14.3-29.7-47-90.7-47-90.7s-27.3-44.7-41.3-44
			s-16.9,4.5-16.9,4.5s-17.3-31.1-48.4-21.1C1238.8,362,1230.6,351.6,1220.7,351.1z"/>
	</g>
	<g>
		<g>
			<g>
				<path fill="#1A1A1A" d="M1355.7,495.1c-1,0-2-0.5-2.6-1.5c-18.7-32.2-70.8-117.9-87.9-127.4c-14.5-8.1-24.4-2-24.8-1.7
					c-1.4,0.9-3.2,0.5-4.1-0.9c-0.9-1.4-0.5-3.2,0.8-4.1c0.5-0.4,13.1-8.5,31,1.5c22,12.3,87.4,124.8,90.1,129.6
					c0.8,1.4,0.3,3.3-1.1,4.1C1356.7,495,1356.2,495.1,1355.7,495.1z"/>
			</g>
		</g>
		<g>
			<g>
				<path fill="#1A1A1A" d="M1395.4,619.2c-15.6,0-37.2-15.2-66.9-46.5c-34.5-36.4-107.8-127.3-125-159.7
					c-10.8-20.2-12.6-40.7-4.8-53.4c4.7-7.6,12.5-11.7,22-11.5c16.6,0.3,45.2,43,54.7,57c18.5,27.5,34.2,55.2,34.4,55.5
					c0.8,1.4,0.3,3.3-1.1,4.1c-1.4,0.8-3.3,0.3-4.1-1.1c-23.8-42.1-67.7-109.1-84-109.5c-7.4-0.2-13.2,2.8-16.7,8.6
					c-6.6,10.7-4.7,29.4,5,47.5c17,32,89.8,122.1,124,158.3c34.1,36,57.7,50.3,70.2,42.5c13.2-8.2,10.9-38.2-6.2-80.3
					c-7.8-19.2-24.7-52.9-41.1-82.1c-19.6-34.9-35.4-57.8-43.2-62.8c-15.1-9.7-22.8-1.1-23.1-0.7c-1.1,1.2-3,1.4-4.2,0.3
					c-1.3-1.1-1.4-2.9-0.4-4.2c0.1-0.1,11.3-13.1,30.9-0.4c20.1,12.9,72.4,112.6,86.7,147.7c10.9,26.9,25.9,74,3.8,87.7
					C1403,618.2,1399.4,619.2,1395.4,619.2z"/>
			</g>
		</g>
	</g>
</g>
</svg>
