<?xml version="1.0" encoding="utf-8"?>
<!-- Generator: Adobe Illustrator 23.0.2, SVG Export Plug-In . SVG Version: 6.00 Build 0)  -->
<svg version="1.1" id="Layer_1" xmlns="http://www.w3.org/2000/svg" xmlns:xlink="http://www.w3.org/1999/xlink" x="0px" y="0px" viewBox="0 0 2000 2000" style="enable-background:new 0 0 2000 2000;" xml:space="preserve">

<g id="Layer_4_1_">
	<g id="Layer_5">
		<path d="M1850.8,996.1c-219.8,521.3-285.8,938.5-797.5,938.5s-926.5-414.8-926.5-926.5s417-717.6,907-864.8
			C1703-57.7,2051.9,524.9,1850.8,996.1z" style="fill:#FECE2F;"/>
	</g>
</g>
<g id="Layer_3_1_">
	<g id="Layer_4">
		<g>
			<g>
				<path d="M1395.5,131.6c0,10.8-4.3,18.2-13.3,18.2s-13-8.1-13-18c0-10.1,4.3-18.1,13.3-18.1
					C1391.9,113.8,1395.5,122.1,1395.5,131.6z M1377.4,131.8c-0.1,8,1.9,11.8,5,11.8c3.2,0,4.9-4,4.9-11.9c0-7.7-1.7-11.8-4.9-11.8
					C1379.4,119.9,1377.4,123.7,1377.4,131.8z" style="fill:#1A1A1A;"/>
				<path d="M1380.2,175.2L1380.2,175.2l-6.8,3.2l-1.3-6.1l9.2-4.3h6.8v34.9h-7.9L1380.2,175.2L1380.2,175.2z" style="fill:#1A1A1A;"/>
				<path d="M1395.5,238.9c0,10.8-4.3,18.2-13.3,18.2s-13-8.1-13-18c0-10.1,4.3-18.1,13.3-18.1
					C1391.9,221.1,1395.5,229.4,1395.5,238.9z M1377.4,239.1c-0.1,8,1.9,11.8,5,11.8c3.2,0,4.9-4,4.9-11.9c0-7.7-1.7-11.8-4.9-11.8
					C1379.4,227.2,1377.4,231,1377.4,239.1z" style="fill:#1A1A1A;"/>
				<path d="M1395.5,292.6c0,10.8-4.3,18.2-13.3,18.2s-13-8.1-13-18c0-10.1,4.3-18.1,13.3-18.1
					C1391.9,274.7,1395.5,283,1395.5,292.6z M1377.4,292.8c-0.1,8,1.9,11.8,5,11.8c3.2,0,4.9-4,4.9-11.9c0-7.7-1.7-11.8-4.9-11.8
					C1379.4,280.9,1377.4,284.7,1377.4,292.8z" style="fill:#1A1A1A;"/>
				<path d="M1380.2,336.2L1380.2,336.2l-6.8,3.2l-1.3-6.1l9.2-4.3h6.8v34.9h-7.9L1380.2,336.2L1380.2,336.2z" style="fill:#1A1A1A;"/>
				<path d="M1380.2,389.8L1380.2,389.8l-6.8,3.2l-1.3-6.1l9.2-4.3h6.8v34.9h-7.9L1380.2,389.8L1380.2,389.8z" style="fill:#1A1A1A;"/>
				<path d="M1380.2,443.5L1380.2,443.5l-6.8,3.2l-1.3-6.1l9.2-4.3h6.8v34.9h-7.9L1380.2,443.5L1380.2,443.5z" style="fill:#1A1A1A;"/>
				<path d="M1380.2,497.1L1380.2,497.1l-6.8,3.2l-1.3-6.1l9.2-4.3h6.8v34.9h-7.9L1380.2,497.1L1380.2,497.1z" style="fill:#1A1A1A;"/>
				<path d="M1395.5,560.8c0,10.8-4.3,18.2-13.3,18.2s-13-8.1-13-18c0-10.1,4.3-18.1,13.3-18.1
					C1391.9,542.9,1395.5,551.2,1395.5,560.8z M1377.4,561c-0.1,8,1.9,11.8,5,11.8c3.2,0,4.9-4,4.9-11.9c0-7.7-1.7-11.8-4.9-11.8
					C1379.4,549.1,1377.4,552.9,1377.4,561z" style="fill:#1A1A1A;"/>
				<path d="M1395.5,614.4c0,10.8-4.3,18.2-13.3,18.2s-13-8.1-13-18c0-10.1,4.3-18.1,13.3-18.1
					C1391.9,596.6,1395.5,604.9,1395.5,614.4z M1377.4,614.7c-0.1,8,1.9,11.8,5,11.8c3.2,0,4.9-4,4.9-11.9c0-7.7-1.7-11.8-4.9-11.8
					C1379.4,602.7,1377.4,606.6,1377.4,614.7z" style="fill:#1A1A1A;"/>
				<path d="M1395.5,668.1c0,10.8-4.3,18.2-13.3,18.2s-13-8.1-13-18c0-10.1,4.3-18.1,13.3-18.1
					C1391.9,650.2,1395.5,658.5,1395.5,668.1z M1377.4,668.3c-0.1,8,1.9,11.8,5,11.8c3.2,0,4.9-4,4.9-11.9c0-7.7-1.7-11.8-4.9-11.8
					C1379.4,656.4,1377.4,660.2,1377.4,668.3z" style="fill:#1A1A1A;"/>
				<path d="M1380.2,711.7L1380.2,711.7l-6.8,3.2l-1.3-6.1l9.2-4.3h6.8v34.9h-7.9L1380.2,711.7L1380.2,711.7z" style="fill:#1A1A1A;"/>
			</g>
			<g>
				<path d="M1420.7,121.6L1420.7,121.6l-6.8,3.2l-1.3-6.1l9.2-4.3h6.8v34.9h-7.9L1420.7,121.6L1420.7,121.6z" style="fill:#1A1A1A;"/>
				<path d="M1420.7,175.2L1420.7,175.2l-6.8,3.2l-1.3-6.1l9.2-4.3h6.8v34.9h-7.9L1420.7,175.2L1420.7,175.2z" style="fill:#1A1A1A;"/>
				<path d="M1436,238.9c0,10.8-4.3,18.2-13.3,18.2s-13-8.1-13-18c0-10.1,4.3-18.1,13.3-18.1
					C1432.4,221.1,1436,229.4,1436,238.9z M1417.9,239.1c-0.1,8,1.9,11.8,5,11.8c3.2,0,4.9-4,4.9-11.9c0-7.7-1.7-11.8-4.9-11.8
					C1419.9,227.2,1417.9,231,1417.9,239.1z" style="fill:#1A1A1A;"/>
				<path d="M1420.7,282.5L1420.7,282.5l-6.8,3.2l-1.3-6.1l9.2-4.3h6.8v34.9h-7.9L1420.7,282.5L1420.7,282.5z" style="fill:#1A1A1A;"/>
				<path d="M1436,346.2c0,10.8-4.3,18.2-13.3,18.2s-13-8.1-13-18c0-10.1,4.3-18.1,13.3-18.1
					C1432.4,328.3,1436,336.7,1436,346.2z M1417.9,346.4c-0.1,8,1.9,11.8,5,11.8c3.2,0,4.9-4,4.9-11.9c0-7.7-1.7-11.8-4.9-11.8
					C1419.9,334.5,1417.9,338.3,1417.9,346.4z" style="fill:#1A1A1A;"/>
				<path d="M1436,399.9c0,10.8-4.3,18.2-13.3,18.2s-13-8.1-13-18c0-10.1,4.3-18.1,13.3-18.1
					C1432.4,382,1436,390.3,1436,399.9z M1417.9,400.1c-0.1,8,1.9,11.8,5,11.8c3.2,0,4.9-4,4.9-11.9c0-7.7-1.7-11.8-4.9-11.8
					C1419.9,388.2,1417.9,392,1417.9,400.1z" style="fill:#1A1A1A;"/>
				<path d="M1436,453.5c0,10.8-4.3,18.2-13.3,18.2s-13-8.1-13-18c0-10.1,4.3-18.1,13.3-18.1
					C1432.4,435.6,1436,444,1436,453.5z M1417.9,453.7c-0.1,8,1.9,11.8,5,11.8c3.2,0,4.9-4,4.9-11.9c0-7.7-1.7-11.8-4.9-11.8
					C1419.9,441.8,1417.9,445.6,1417.9,453.7z" style="fill:#1A1A1A;"/>
				<path d="M1420.7,497.1L1420.7,497.1l-6.8,3.2l-1.3-6.1l9.2-4.3h6.8v34.9h-7.9L1420.7,497.1L1420.7,497.1z" style="fill:#1A1A1A;"/>
				<path d="M1436,560.8c0,10.8-4.3,18.2-13.3,18.2s-13-8.1-13-18c0-10.1,4.3-18.1,13.3-18.1
					C1432.4,542.9,1436,551.2,1436,560.8z M1417.9,561c-0.1,8,1.9,11.8,5,11.8c3.2,0,4.9-4,4.9-11.9c0-7.7-1.7-11.8-4.9-11.8
					C1419.9,549.1,1417.9,552.9,1417.9,561z" style="fill:#1A1A1A;"/>
				<path d="M1420.7,604.4L1420.7,604.4l-6.8,3.2l-1.3-6.1l9.2-4.3h6.8V632h-7.9L1420.7,604.4L1420.7,604.4z" style="fill:#1A1A1A;"/>
				<path d="M1420.7,658.1L1420.7,658.1l-6.8,3.2l-1.3-6.1l9.2-4.3h6.8v34.9h-7.9L1420.7,658.1L1420.7,658.1z" style="fill:#1A1A1A;"/>
				<path d="M1420.7,711.7L1420.7,711.7l-6.8,3.2l-1.3-6.1l9.2-4.3h6.8v34.9h-7.9L1420.7,711.7L1420.7,711.7z" style="fill:#1A1A1A;"/>
			</g>
			<g>
				<path d="M1476.5,131.6c0,10.8-4.3,18.2-13.3,18.2s-13-8.1-13-18c0-10.1,4.3-18.1,13.3-18.1
					C1472.9,113.8,1476.5,122.1,1476.5,131.6z M1458.4,131.8c-0.1,8,1.9,11.8,5,11.8c3.2,0,4.9-4,4.9-11.9c0-7.7-1.7-11.8-4.9-11.8
					C1460.4,119.9,1458.4,123.7,1458.4,131.8z" style="fill:#1A1A1A;"/>
				<path d="M1476.5,185.3c0,10.8-4.3,18.2-13.3,18.2s-13-8.1-13-18c0-10.1,4.3-18.1,13.3-18.1
					C1472.9,167.4,1476.5,175.7,1476.5,185.3z M1458.4,185.5c-0.1,8,1.9,11.8,5,11.8c3.2,0,4.9-4,4.9-11.9c0-7.7-1.7-11.8-4.9-11.8
					C1460.4,173.6,1458.4,177.4,1458.4,185.5z" style="fill:#1A1A1A;"/>
				<path d="M1461.2,228.9L1461.2,228.9l-6.8,3.2l-1.3-6.1l9.2-4.3h6.8v34.9h-7.9L1461.2,228.9L1461.2,228.9z" style="fill:#1A1A1A;"/>
				<path d="M1476.5,292.6c0,10.8-4.3,18.2-13.3,18.2s-13-8.1-13-18c0-10.1,4.3-18.1,13.3-18.1
					C1472.9,274.7,1476.5,283,1476.5,292.6z M1458.4,292.8c-0.1,8,1.9,11.8,5,11.8c3.2,0,4.9-4,4.9-11.9c0-7.7-1.7-11.8-4.9-11.8
					C1460.4,280.9,1458.4,284.7,1458.4,292.8z" style="fill:#1A1A1A;"/>
				<path d="M1476.5,346.2c0,10.8-4.3,18.2-13.3,18.2s-13-8.1-13-18c0-10.1,4.3-18.1,13.3-18.1
					C1472.9,328.3,1476.5,336.7,1476.5,346.2z M1458.4,346.4c-0.1,8,1.9,11.8,5,11.8c3.2,0,4.9-4,4.9-11.9c0-7.7-1.7-11.8-4.9-11.8
					C1460.4,334.5,1458.4,338.3,1458.4,346.4z" style="fill:#1A1A1A;"/>
			</g>
			<g>
				<path d="M1517,131.6c0,10.8-4.3,18.2-13.3,18.2s-13-8.1-13-18c0-10.1,4.3-18.1,13.3-18.1
					C1513.4,113.8,1517,122.1,1517,131.6z M1498.9,131.8c-0.1,8,1.9,11.8,5,11.8c3.2,0,4.9-4,4.9-11.9c0-7.7-1.7-11.8-4.9-11.8
					C1500.9,119.9,1498.9,123.7,1498.9,131.8z" style="fill:#1A1A1A;"/>
				<path d="M1517,185.3c0,10.8-4.3,18.2-13.3,18.2s-13-8.1-13-18c0-10.1,4.3-18.1,13.3-18.1
					C1513.4,167.4,1517,175.7,1517,185.3z M1498.9,185.5c-0.1,8,1.9,11.8,5,11.8c3.2,0,4.9-4,4.9-11.9c0-7.7-1.7-11.8-4.9-11.8
					C1500.9,173.6,1498.9,177.4,1498.9,185.5z" style="fill:#1A1A1A;"/>
				<path d="M1517,238.9c0,10.8-4.3,18.2-13.3,18.2s-13-8.1-13-18c0-10.1,4.3-18.1,13.3-18.1
					C1513.4,221.1,1517,229.4,1517,238.9z M1498.9,239.1c-0.1,8,1.9,11.8,5,11.8c3.2,0,4.9-4,4.9-11.9c0-7.7-1.7-11.8-4.9-11.8
					C1500.9,227.2,1498.9,231,1498.9,239.1z" style="fill:#1A1A1A;"/>
				<path d="M1501.7,282.5L1501.7,282.5l-6.8,3.2l-1.3-6.1l9.2-4.3h6.8v34.9h-7.9L1501.7,282.5L1501.7,282.5z" style="fill:#1A1A1A;"/>
			</g>
			<g>
				<path d="M1542.2,121.6L1542.2,121.6l-6.8,3.2l-1.3-6.1l9.2-4.3h6.8v34.9h-7.9L1542.2,121.6L1542.2,121.6z" style="fill:#1A1A1A;"/>
				<path d="M1542.2,175.2L1542.2,175.2l-6.8,3.2l-1.3-6.1l9.2-4.3h6.8v34.9h-7.9L1542.2,175.2L1542.2,175.2z" style="fill:#1A1A1A;"/>
				<path d="M1542.2,228.9L1542.2,228.9l-6.8,3.2l-1.3-6.1l9.2-4.3h6.8v34.9h-7.9L1542.2,228.9L1542.2,228.9z" style="fill:#1A1A1A;"/>
				<path d="M1557.5,292.6c0,10.8-4.3,18.2-13.3,18.2s-13-8.1-13-18c0-10.1,4.3-18.1,13.3-18.1
					C1553.9,274.7,1557.5,283,1557.5,292.6z M1539.4,292.8c-0.1,8,1.9,11.8,5,11.8c3.2,0,4.9-4,4.9-11.9c0-7.7-1.7-11.8-4.9-11.8
					C1541.4,280.9,1539.4,284.7,1539.4,292.8z" style="fill:#1A1A1A;"/>
			</g>
			<g>
				<path d="M1582.7,121.6L1582.7,121.6l-6.8,3.2l-1.3-6.1l9.2-4.3h6.8v34.9h-7.9L1582.7,121.6L1582.7,121.6z" style="fill:#1A1A1A;"/>
				<path d="M1598,185.3c0,10.8-4.3,18.2-13.3,18.2s-13-8.1-13-18c0-10.1,4.3-18.1,13.3-18.1
					C1594.3,167.4,1598,175.7,1598,185.3z M1579.9,185.5c-0.1,8,1.9,11.8,5,11.8c3.2,0,4.9-4,4.9-11.9c0-7.7-1.7-11.8-4.9-11.8
					C1581.9,173.6,1579.9,177.4,1579.9,185.5z" style="fill:#1A1A1A;"/>
				<path d="M1598,238.9c0,10.8-4.3,18.2-13.3,18.2s-13-8.1-13-18c0-10.1,4.3-18.1,13.3-18.1
					C1594.3,221.1,1598,229.4,1598,238.9z M1579.9,239.1c-0.1,8,1.9,11.8,5,11.8c3.2,0,4.9-4,4.9-11.9c0-7.7-1.7-11.8-4.9-11.8
					C1581.9,227.2,1579.9,231,1579.9,239.1z" style="fill:#1A1A1A;"/>
				<path d="M1582.7,282.5L1582.7,282.5l-6.8,3.2l-1.3-6.1l9.2-4.3h6.8v34.9h-7.9L1582.7,282.5L1582.7,282.5z" style="fill:#1A1A1A;"/>
			</g>
			<g>
				<path d="M1638.5,131.6c0,10.8-4.3,18.2-13.3,18.2s-13-8.1-13-18c0-10.1,4.3-18.1,13.3-18.1
					C1634.8,113.8,1638.5,122.1,1638.5,131.6z M1620.4,131.8c-0.1,8,1.9,11.8,5,11.8c3.2,0,4.9-4,4.9-11.9c0-7.7-1.7-11.8-4.9-11.8
					C1622.4,119.9,1620.4,123.7,1620.4,131.8z" style="fill:#1A1A1A;"/>
				<path d="M1623.2,175.2L1623.2,175.2l-6.8,3.2l-1.3-6.1l9.2-4.3h6.8v34.9h-7.9L1623.2,175.2L1623.2,175.2z" style="fill:#1A1A1A;"/>
				<path d="M1638.5,238.9c0,10.8-4.3,18.2-13.3,18.2s-13-8.1-13-18c0-10.1,4.3-18.1,13.3-18.1
					C1634.8,221.1,1638.5,229.4,1638.5,238.9z M1620.4,239.1c-0.1,8,1.9,11.8,5,11.8c3.2,0,4.9-4,4.9-11.9c0-7.7-1.7-11.8-4.9-11.8
					C1622.4,227.2,1620.4,231,1620.4,239.1z" style="fill:#1A1A1A;"/>
				<path d="M1638.5,292.6c0,10.8-4.3,18.2-13.3,18.2s-13-8.1-13-18c0-10.1,4.3-18.1,13.3-18.1
					C1634.8,274.7,1638.5,283,1638.5,292.6z M1620.4,292.8c-0.1,8,1.9,11.8,5,11.8c3.2,0,4.9-4,4.9-11.9c0-7.7-1.7-11.8-4.9-11.8
					C1622.4,280.9,1620.4,284.7,1620.4,292.8z" style="fill:#1A1A1A;"/>
			</g>
			<g>
				<path d="M1663.6,121.6L1663.6,121.6l-6.8,3.2l-1.3-6.1l9.2-4.3h6.8v34.9h-7.9L1663.6,121.6L1663.6,121.6z" style="fill:#1A1A1A;"/>
				<path d="M1663.6,175.2L1663.6,175.2l-6.8,3.2l-1.3-6.1l9.2-4.3h6.8v34.9h-7.9L1663.6,175.2L1663.6,175.2z" style="fill:#1A1A1A;"/>
				<path d="M1663.6,228.9L1663.6,228.9l-6.8,3.2l-1.3-6.1l9.2-4.3h6.8v34.9h-7.9L1663.6,228.9L1663.6,228.9z" style="fill:#1A1A1A;"/>
				<path d="M1679,292.6c0,10.8-4.3,18.2-13.3,18.2s-13-8.1-13-18c0-10.1,4.3-18.1,13.3-18.1
					C1675.3,274.7,1679,283,1679,292.6z M1660.9,292.8c-0.1,8,1.9,11.8,5,11.8c3.2,0,4.9-4,4.9-11.9c0-7.7-1.7-11.8-4.9-11.8
					C1662.9,280.9,1660.9,284.7,1660.9,292.8z" style="fill:#1A1A1A;"/>
			</g>
			<g>
				<path d="M1704.1,121.6L1704.1,121.6l-6.8,3.2l-1.3-6.1l9.2-4.3h6.8v34.9h-7.9L1704.1,121.6L1704.1,121.6z" style="fill:#1A1A1A;"/>
				<path d="M1704.1,175.2L1704.1,175.2l-6.8,3.2l-1.3-6.1l9.2-4.3h6.8v34.9h-7.9L1704.1,175.2L1704.1,175.2z" style="fill:#1A1A1A;"/>
				<path d="M1719.5,238.9c0,10.8-4.3,18.2-13.3,18.2s-13-8.1-13-18c0-10.1,4.3-18.1,13.3-18.1
					C1715.8,221.1,1719.5,229.4,1719.5,238.9z M1701.4,239.1c-0.1,8,1.9,11.8,5,11.8c3.2,0,4.9-4,4.9-11.9c0-7.7-1.7-11.8-4.9-11.8
					C1703.4,227.2,1701.4,231,1701.4,239.1z" style="fill:#1A1A1A;"/>
				<path d="M1704.1,282.5L1704.1,282.5l-6.8,3.2l-1.3-6.1l9.2-4.3h6.8v34.9h-7.9L1704.1,282.5L1704.1,282.5z" style="fill:#1A1A1A;"/>
				<path d="M1719.5,346.2c0,10.8-4.3,18.2-13.3,18.2s-13-8.1-13-18c0-10.1,4.3-18.1,13.3-18.1
					C1715.8,328.3,1719.5,336.7,1719.5,346.2z M1701.4,346.4c-0.1,8,1.9,11.8,5,11.8c3.2,0,4.9-4,4.9-11.9c0-7.7-1.7-11.8-4.9-11.8
					C1703.4,334.5,1701.4,338.3,1701.4,346.4z" style="fill:#1A1A1A;"/>
				<path d="M1719.5,399.9c0,10.8-4.3,18.2-13.3,18.2s-13-8.1-13-18c0-10.1,4.3-18.1,13.3-18.1
					C1715.8,382,1719.5,390.3,1719.5,399.9z M1701.4,400.1c-0.1,8,1.9,11.8,5,11.8c3.2,0,4.9-4,4.9-11.9c0-7.7-1.7-11.8-4.9-11.8
					C1703.4,388.2,1701.4,392,1701.4,400.1z" style="fill:#1A1A1A;"/>
			</g>
			<g>
				<path d="M1760,131.6c0,10.8-4.3,18.2-13.3,18.2s-13-8.1-13-18c0-10.1,4.3-18.1,13.3-18.1
					C1756.3,113.8,1760,122.1,1760,131.6z M1741.9,131.8c-0.1,8,1.9,11.8,5,11.8s4.9-4,4.9-11.9c0-7.7-1.7-11.8-4.9-11.8
					C1743.9,119.9,1741.9,123.7,1741.9,131.8z" style="fill:#1A1A1A;"/>
				<path d="M1744.6,175.2L1744.6,175.2l-6.8,3.2l-1.3-6.1l9.2-4.3h6.8v34.9h-7.9L1744.6,175.2L1744.6,175.2z" style="fill:#1A1A1A;"/>
				<path d="M1744.6,228.9L1744.6,228.9l-6.8,3.2l-1.3-6.1l9.2-4.3h6.8v34.9h-7.9L1744.6,228.9L1744.6,228.9z" style="fill:#1A1A1A;"/>
				<path d="M1760,292.6c0,10.8-4.3,18.2-13.3,18.2s-13-8.1-13-18c0-10.1,4.3-18.1,13.3-18.1
					C1756.3,274.7,1760,283,1760,292.6z M1741.9,292.8c-0.1,8,1.9,11.8,5,11.8s4.9-4,4.9-11.9c0-7.7-1.7-11.8-4.9-11.8
					C1743.9,280.9,1741.9,284.7,1741.9,292.8z" style="fill:#1A1A1A;"/>
				<path d="M1760,346.2c0,10.8-4.3,18.2-13.3,18.2s-13-8.1-13-18c0-10.1,4.3-18.1,13.3-18.1
					C1756.3,328.3,1760,336.7,1760,346.2z M1741.9,346.4c-0.1,8,1.9,11.8,5,11.8s4.9-4,4.9-11.9c0-7.7-1.7-11.8-4.9-11.8
					C1743.9,334.5,1741.9,338.3,1741.9,346.4z" style="fill:#1A1A1A;"/>
				<path d="M1744.6,389.8L1744.6,389.8l-6.8,3.2l-1.3-6.1l9.2-4.3h6.8v34.9h-7.9L1744.6,389.8L1744.6,389.8z" style="fill:#1A1A1A;"/>
				<path d="M1744.6,443.5L1744.6,443.5l-6.8,3.2l-1.3-6.1l9.2-4.3h6.8v34.9h-7.9L1744.6,443.5L1744.6,443.5z" style="fill:#1A1A1A;"/>
				<path d="M1744.6,497.1L1744.6,497.1l-6.8,3.2l-1.3-6.1l9.2-4.3h6.8v34.9h-7.9L1744.6,497.1L1744.6,497.1z" style="fill:#1A1A1A;"/>
				<path d="M1760,560.8c0,10.8-4.3,18.2-13.3,18.2s-13-8.1-13-18c0-10.1,4.3-18.1,13.3-18.1
					C1756.3,542.9,1760,551.2,1760,560.8z M1741.9,561c-0.1,8,1.9,11.8,5,11.8s4.9-4,4.9-11.9c0-7.7-1.7-11.8-4.9-11.8
					C1743.9,549.1,1741.9,552.9,1741.9,561z" style="fill:#1A1A1A;"/>
				<path d="M1744.6,604.4L1744.6,604.4l-6.8,3.2l-1.3-6.1l9.2-4.3h6.8V632h-7.9L1744.6,604.4L1744.6,604.4z" style="fill:#1A1A1A;"/>
				<path d="M1760,668.1c0,10.8-4.3,18.2-13.3,18.2s-13-8.1-13-18c0-10.1,4.3-18.1,13.3-18.1
					C1756.3,650.2,1760,658.5,1760,668.1z M1741.9,668.3c-0.1,8,1.9,11.8,5,11.8s4.9-4,4.9-11.9c0-7.7-1.7-11.8-4.9-11.8
					C1743.9,656.4,1741.9,660.2,1741.9,668.3z" style="fill:#1A1A1A;"/>
				<path d="M1744.6,711.7L1744.6,711.7l-6.8,3.2l-1.3-6.1l9.2-4.3h6.8v34.9h-7.9L1744.6,711.7L1744.6,711.7z" style="fill:#1A1A1A;"/>
			</g>
			<g>
				<path d="M1800.5,131.6c0,10.8-4.3,18.2-13.3,18.2s-13-8.1-13-18c0-10.1,4.3-18.1,13.3-18.1
					C1796.8,113.8,1800.5,122.1,1800.5,131.6z M1782.4,131.8c-0.1,8,1.9,11.8,5,11.8c3.2,0,4.9-4,4.9-11.9c0-7.7-1.7-11.8-4.9-11.8
					C1784.4,119.9,1782.4,123.7,1782.4,131.8z" style="fill:#1A1A1A;"/>
				<path d="M1785.1,175.2L1785.1,175.2l-6.8,3.2l-1.3-6.1l9.2-4.3h6.8v34.9h-7.9L1785.1,175.2L1785.1,175.2z" style="fill:#1A1A1A;"/>
				<path d="M1785.1,228.9L1785.1,228.9l-6.8,3.2l-1.3-6.1l9.2-4.3h6.8v34.9h-7.9L1785.1,228.9L1785.1,228.9z" style="fill:#1A1A1A;"/>
				<path d="M1785.1,282.5L1785.1,282.5l-6.8,3.2l-1.3-6.1l9.2-4.3h6.8v34.9h-7.9L1785.1,282.5L1785.1,282.5z" style="fill:#1A1A1A;"/>
				<path d="M1800.5,346.2c0,10.8-4.3,18.2-13.3,18.2s-13-8.1-13-18c0-10.1,4.3-18.1,13.3-18.1
					C1796.8,328.3,1800.5,336.7,1800.5,346.2z M1782.4,346.4c-0.1,8,1.9,11.8,5,11.8c3.2,0,4.9-4,4.9-11.9c0-7.7-1.7-11.8-4.9-11.8
					C1784.4,334.5,1782.4,338.3,1782.4,346.4z" style="fill:#1A1A1A;"/>
				<path d="M1785.1,389.8L1785.1,389.8l-6.8,3.2l-1.3-6.1l9.2-4.3h6.8v34.9h-7.9L1785.1,389.8L1785.1,389.8z" style="fill:#1A1A1A;"/>
				<path d="M1800.5,453.5c0,10.8-4.3,18.2-13.3,18.2s-13-8.1-13-18c0-10.1,4.3-18.1,13.3-18.1
					C1796.8,435.6,1800.5,444,1800.5,453.5z M1782.4,453.7c-0.1,8,1.9,11.8,5,11.8c3.2,0,4.9-4,4.9-11.9c0-7.7-1.7-11.8-4.9-11.8
					C1784.4,441.8,1782.4,445.6,1782.4,453.7z" style="fill:#1A1A1A;"/>
				<path d="M1800.5,507.1c0,10.8-4.3,18.2-13.3,18.2s-13-8.1-13-18c0-10.1,4.3-18.1,13.3-18.1
					C1796.8,489.3,1800.5,497.6,1800.5,507.1z M1782.4,507.4c-0.1,8,1.9,11.8,5,11.8c3.2,0,4.9-4,4.9-11.9c0-7.7-1.7-11.8-4.9-11.8
					C1784.4,495.5,1782.4,499.3,1782.4,507.4z" style="fill:#1A1A1A;"/>
				<path d="M1800.5,560.8c0,10.8-4.3,18.2-13.3,18.2s-13-8.1-13-18c0-10.1,4.3-18.1,13.3-18.1
					C1796.8,542.9,1800.5,551.2,1800.5,560.8z M1782.4,561c-0.1,8,1.9,11.8,5,11.8c3.2,0,4.9-4,4.9-11.9c0-7.7-1.7-11.8-4.9-11.8
					C1784.4,549.1,1782.4,552.9,1782.4,561z" style="fill:#1A1A1A;"/>
				<path d="M1785.1,604.4L1785.1,604.4l-6.8,3.2l-1.3-6.1l9.2-4.3h6.8V632h-7.9L1785.1,604.4L1785.1,604.4z" style="fill:#1A1A1A;"/>
				<path d="M1785.1,658.1L1785.1,658.1l-6.8,3.2l-1.3-6.1l9.2-4.3h6.8v34.9h-7.9L1785.1,658.1L1785.1,658.1z" style="fill:#1A1A1A;"/>
				<path d="M1800.5,721.7c0,10.8-4.3,18.2-13.3,18.2s-13-8.1-13-18c0-10.1,4.3-18.1,13.3-18.1
					C1796.8,703.9,1800.5,712.2,1800.5,721.7z M1782.4,721.9c-0.1,8,1.9,11.8,5,11.8c3.2,0,4.9-4,4.9-11.9c0-7.7-1.7-11.8-4.9-11.8
					C1784.4,710,1782.4,713.8,1782.4,721.9z" style="fill:#1A1A1A;"/>
			</g>
			<g>
				<path d="M1825.6,121.6L1825.6,121.6l-6.8,3.2l-1.3-6.1l9.2-4.3h6.8v34.9h-7.9L1825.6,121.6L1825.6,121.6z" style="fill:#1A1A1A;"/>
				<path d="M1825.6,175.2L1825.6,175.2l-6.8,3.2l-1.3-6.1l9.2-4.3h6.8v34.9h-7.9L1825.6,175.2L1825.6,175.2z" style="fill:#1A1A1A;"/>
				<path d="M1841,238.9c0,10.8-4.3,18.2-13.3,18.2s-13-8.1-13-18c0-10.1,4.3-18.1,13.3-18.1
					C1837.3,221.1,1841,229.4,1841,238.9z M1822.9,239.1c-0.1,8,1.9,11.8,5,11.8c3.2,0,4.9-4,4.9-11.9c0-7.7-1.7-11.8-4.9-11.8
					C1824.9,227.2,1822.8,231,1822.9,239.1z" style="fill:#1A1A1A;"/>
				<path d="M1825.6,282.5L1825.6,282.5l-6.8,3.2l-1.3-6.1l9.2-4.3h6.8v34.9h-7.9L1825.6,282.5L1825.6,282.5z" style="fill:#1A1A1A;"/>
				<path d="M1841,346.2c0,10.8-4.3,18.2-13.3,18.2s-13-8.1-13-18c0-10.1,4.3-18.1,13.3-18.1
					C1837.3,328.3,1841,336.7,1841,346.2z M1822.9,346.4c-0.1,8,1.9,11.8,5,11.8c3.2,0,4.9-4,4.9-11.9c0-7.7-1.7-11.8-4.9-11.8
					C1824.9,334.5,1822.8,338.3,1822.9,346.4z" style="fill:#1A1A1A;"/>
				<path d="M1841,399.9c0,10.8-4.3,18.2-13.3,18.2s-13-8.1-13-18c0-10.1,4.3-18.1,13.3-18.1
					C1837.3,382,1841,390.3,1841,399.9z M1822.9,400.1c-0.1,8,1.9,11.8,5,11.8c3.2,0,4.9-4,4.9-11.9c0-7.7-1.7-11.8-4.9-11.8
					C1824.9,388.2,1822.8,392,1822.9,400.1z" style="fill:#1A1A1A;"/>
				<path d="M1825.6,443.5L1825.6,443.5l-6.8,3.2l-1.3-6.1l9.2-4.3h6.8v34.9h-7.9L1825.6,443.5L1825.6,443.5z" style="fill:#1A1A1A;"/>
				<path d="M1825.6,497.1L1825.6,497.1l-6.8,3.2l-1.3-6.1l9.2-4.3h6.8v34.9h-7.9L1825.6,497.1L1825.6,497.1z" style="fill:#1A1A1A;"/>
				<path d="M1825.6,550.8L1825.6,550.8l-6.8,3.2l-1.3-6.1l9.2-4.3h6.8v34.9h-7.9L1825.6,550.8L1825.6,550.8z" style="fill:#1A1A1A;"/>
				<path d="M1825.6,604.4L1825.6,604.4l-6.8,3.2l-1.3-6.1l9.2-4.3h6.8V632h-7.9L1825.6,604.4L1825.6,604.4z" style="fill:#1A1A1A;"/>
				<path d="M1841,668.1c0,10.8-4.3,18.2-13.3,18.2s-13-8.1-13-18c0-10.1,4.3-18.1,13.3-18.1
					C1837.3,650.2,1841,658.5,1841,668.1z M1822.9,668.3c-0.1,8,1.9,11.8,5,11.8c3.2,0,4.9-4,4.9-11.9c0-7.7-1.7-11.8-4.9-11.8
					C1824.9,656.4,1822.8,660.2,1822.9,668.3z" style="fill:#1A1A1A;"/>
				<path d="M1841,721.7c0,10.8-4.3,18.2-13.3,18.2s-13-8.1-13-18c0-10.1,4.3-18.1,13.3-18.1
					C1837.3,703.9,1841,712.2,1841,721.7z M1822.9,721.9c-0.1,8,1.9,11.8,5,11.8c3.2,0,4.9-4,4.9-11.9c0-7.7-1.7-11.8-4.9-11.8
					C1824.9,710,1822.8,713.8,1822.9,721.9z" style="fill:#1A1A1A;"/>
			</g>
			<g>
				<path d="M1881.5,131.6c0,10.8-4.3,18.2-13.3,18.2s-13-8.1-13-18c0-10.1,4.3-18.1,13.3-18.1
					C1877.8,113.8,1881.5,122.1,1881.5,131.6z M1863.4,131.8c-0.1,8,1.9,11.8,5,11.8c3.2,0,4.9-4,4.9-11.9c0-7.7-1.7-11.8-4.9-11.8
					C1865.4,119.9,1863.3,123.7,1863.4,131.8z" style="fill:#1A1A1A;"/>
				<path d="M1866.1,175.2L1866.1,175.2l-6.8,3.2l-1.3-6.1l9.2-4.3h6.8v34.9h-7.9L1866.1,175.2L1866.1,175.2z" style="fill:#1A1A1A;"/>
				<path d="M1866.1,228.9L1866.1,228.9l-6.8,3.2l-1.3-6.1l9.2-4.3h6.8v34.9h-7.9L1866.1,228.9L1866.1,228.9z" style="fill:#1A1A1A;"/>
				<path d="M1866.1,282.5L1866.1,282.5l-6.8,3.2l-1.3-6.1l9.2-4.3h6.8v34.9h-7.9L1866.1,282.5L1866.1,282.5z" style="fill:#1A1A1A;"/>
				<path d="M1881.5,346.2c0,10.8-4.3,18.2-13.3,18.2s-13-8.1-13-18c0-10.1,4.3-18.1,13.3-18.1
					C1877.8,328.3,1881.5,336.7,1881.5,346.2z M1863.4,346.4c-0.1,8,1.9,11.8,5,11.8c3.2,0,4.9-4,4.9-11.9c0-7.7-1.7-11.8-4.9-11.8
					C1865.4,334.5,1863.3,338.3,1863.4,346.4z" style="fill:#1A1A1A;"/>
				<path d="M1881.5,399.9c0,10.8-4.3,18.2-13.3,18.2s-13-8.1-13-18c0-10.1,4.3-18.1,13.3-18.1
					C1877.8,382,1881.5,390.3,1881.5,399.9z M1863.4,400.1c-0.1,8,1.9,11.8,5,11.8c3.2,0,4.9-4,4.9-11.9c0-7.7-1.7-11.8-4.9-11.8
					C1865.4,388.2,1863.3,392,1863.4,400.1z" style="fill:#1A1A1A;"/>
				<path d="M1866.1,443.5L1866.1,443.5l-6.8,3.2l-1.3-6.1l9.2-4.3h6.8v34.9h-7.9L1866.1,443.5L1866.1,443.5z" style="fill:#1A1A1A;"/>
				<path d="M1881.5,507.1c0,10.8-4.3,18.2-13.3,18.2s-13-8.1-13-18c0-10.1,4.3-18.1,13.3-18.1
					C1877.8,489.3,1881.5,497.6,1881.5,507.1z M1863.4,507.4c-0.1,8,1.9,11.8,5,11.8c3.2,0,4.9-4,4.9-11.9c0-7.7-1.7-11.8-4.9-11.8
					C1865.4,495.5,1863.3,499.3,1863.4,507.4z" style="fill:#1A1A1A;"/>
				<path d="M1881.5,560.8c0,10.8-4.3,18.2-13.3,18.2s-13-8.1-13-18c0-10.1,4.3-18.1,13.3-18.1
					C1877.8,542.9,1881.5,551.2,1881.5,560.8z M1863.4,561c-0.1,8,1.9,11.8,5,11.8c3.2,0,4.9-4,4.9-11.9c0-7.7-1.7-11.8-4.9-11.8
					C1865.4,549.1,1863.3,552.9,1863.4,561z" style="fill:#1A1A1A;"/>
				<path d="M1881.5,614.4c0,10.8-4.3,18.2-13.3,18.2s-13-8.1-13-18c0-10.1,4.3-18.1,13.3-18.1
					C1877.8,596.6,1881.5,604.9,1881.5,614.4z M1863.4,614.7c-0.1,8,1.9,11.8,5,11.8c3.2,0,4.9-4,4.9-11.9c0-7.7-1.7-11.8-4.9-11.8
					C1865.4,602.7,1863.3,606.6,1863.4,614.7z" style="fill:#1A1A1A;"/>
				<path d="M1866.1,658.1L1866.1,658.1l-6.8,3.2l-1.3-6.1l9.2-4.3h6.8v34.9h-7.9L1866.1,658.1L1866.1,658.1z" style="fill:#1A1A1A;"/>
				<path d="M1866.1,711.7L1866.1,711.7l-6.8,3.2l-1.3-6.1l9.2-4.3h6.8v34.9h-7.9L1866.1,711.7L1866.1,711.7z" style="fill:#1A1A1A;"/>
			</g>
		</g>
	</g>
</g>
<g>
	<g id="Layer_3">
		<g>
			<path d="M349.4,681.6c0,0-114.3-48-106-64.7c6.3-12.6,49.4,10.3,70.1,22.2c6.3,3.6,14.4,2,18.8-3.8l0,0
				c3.8-5,10.5-7,16.4-4.8l42.3,15.1l-31.7,60L349.4,681.6z" style="fill:#FFFFFF;"/>
			<path d="M279.1,769.6L241,811.5c-10.3,11.3-23.9,19.1-38.9,22.2L103,853.6L69,680.3l62.3-11.8
				c32-6.2,64.6,7,83.2,33.7l0,0c9.4,13.5,25.7,20.5,42,18l17.4-2.6L279.1,769.6z" style="fill:#FFFFFF;"/>
			<path d="M1445.6,1612.3c-24.6-17.5-61-35.9-108.2-54.8c-96.9-38.8-228.6-75.2-370.8-102.5
				c-142.1-27.4-277.7-42.4-382-42.4c-0.1,0-0.3,0-0.4,0c-50.8,0-91.5,3.6-120.8,10.7c-31.1,7.5-48.3,18.9-51.2,33.7
				c-2.8,14.8,9,31.7,35.1,50.3c24.6,17.5,61,35.9,108.2,54.8c96.9,38.8,228.6,75.2,370.8,102.5c142.1,27.4,277.7,42.4,382,42.4
				c0.1,0,0.2,0,0.4,0c50.8,0,91.5-3.6,120.8-10.7c31.1-7.5,48.3-18.9,51.2-33.7C1483.5,1647.8,1471.7,1630.9,1445.6,1612.3z" style="fill:#1A1A1A;"/>
			<g>
				<path d="M590.4,1572.3c0,0,62.2,31.3,312,81.9c71.9,14.6,174.1,31.8,280.5,41.9c0,0-14.5-99.5-6.5-183.5l9-35.8
					l24-75.2l61-134l17-13.9c0,0,48.4,21.9,71.7,23.9c0,0,41.3-50.7,54.7-125.3c13.3-74.7,6.2-140.8,6.2-140.8l-88.2-64.5
					c0,0-84.3-68.7-152.3-97.3s-177-50-301.7-26.7c-139.2,26.1-240,82-296.7,126.7s-86.7,82-86.7,82s10,78.7,33.3,134.7
					s71,114.2,71,114.2l89.7-50.2c0,0-3.3,73.3-10.7,113.3S646.5,1510,590.4,1572.3z" style="fill:#FFFFFF;"/>
			</g>
			<g>
				<path d="M1182.9,1475c-0.2,0-0.4,0-0.6-0.1c-7.3-1.4-13.8-5.1-18.2-10.5c-2.5-3.1-4.5-6.6-6.3-10
					c-3-5.4-5.7-10.5-10.5-13.1c-4.3-2.4-10-2.3-14.9-2.3c-2,0-5.3,0.3-9.2,0.6c-23.2,1.9-46.2,2.8-50.5-8.8c-3.5-9.5,8-23,34-40.1
					c13.3-8.8,56.8-30.2,79.4-21.8c6.5,2.4,10.8,7.1,12.7,13.8c1.3,4.7,0.4,9.3-0.4,13.8c-0.8,3.9-1.5,7.7-0.6,11
					c0.7,2.5,2.2,4.8,5.2,7.6c1.2,1.1,1.2,3,0.1,4.2s-3,1.2-4.2,0.1c-2.5-2.4-5.5-5.7-6.8-10.3c-1.3-4.7-0.4-9.3,0.5-13.7
					c0.8-4,1.5-7.7,0.6-11c-1.4-4.8-4.3-8-9-9.8c-19.1-7.1-60.1,12-74,21.2c-26,17.1-33.4,28.3-31.6,33.1c3,8.3,32,5.9,44.3,4.9
					c4.1-0.3,7.4-0.6,9.7-0.6c5.4,0,12.1-0.1,17.8,3c6.3,3.5,9.7,9.6,12.9,15.5c1.8,3.3,3.5,6.4,5.7,9.1c3.5,4.3,8.7,7.2,14.7,8.4
					c1.6,0.3,2.7,1.9,2.4,3.5C1185.6,1474,1184.4,1475,1182.9,1475z" style="fill:#FECE2F;"/>
			</g>
			<g>
				<path d="M833.6,1553.8c-0.2,0-0.4,0-0.6-0.1c-1.6-0.3-2.7-1.9-2.4-3.5c2.3-11.7,5.8-23.5,9.3-34.9
					c8-26.8,15.6-52,9.3-77.5c-0.7-2.6-1.6-5.6-3.5-7c-0.8-0.6-3-2.3-7.8,0.2c-2.9,1.5-6.2,4.4-8.9,7.8
					c-8.1,10.2-15.8,20.8-23.2,31.6c-3.9,7.8-8.7,15.2-14.3,21.8c-1,1.2-2.8,1.4-4.1,0.5s-1.6-2.7-0.8-4c4.5-7.2,9.1-14.3,13.9-21.4
					c3.5-7.1,6.2-14.5,8-22.2c1.1-4.8,2.1-10.3,0.4-15.2c-1.4-3.9-5.4-7.7-9.6-7.1c-2.8,0.4-5.3,2.6-7.7,4.8
					c-19.4,17.9-35.2,39-46.9,62.7c-0.7,1.4-2.3,2-3.8,1.5c-1.4-0.6-2.2-2.1-1.8-3.6c1.4-4.7,2.8-9.5,2.3-14.2
					c-0.4-3.7-2.6-8.2-6.6-9.4c-3.6-1-8,0.7-13.2,5.3c-10.5,9.2-18.3,21.2-22.7,34.5c-0.5,1.6-2.2,2.4-3.8,1.9s-2.4-2.2-1.9-3.8
					c4.7-14.3,13.1-27.1,24.4-37.1c6.8-6,13.1-8.2,18.8-6.5c6.5,1.9,10,8.4,10.8,14.1c10.9-18.4,24.4-35,40.2-49.6
					c3-2.7,6.5-5.7,11-6.3c7.6-1.1,14,4.9,16.1,11.1c2.2,6.3,1.1,12.9-0.2,18.5c-0.2,0.7-0.3,1.4-0.5,2.2c3.4-4.6,6.9-9.2,10.4-13.6
					c10.2-13,19.9-13,25-9.1c3.5,2.6,4.8,6.7,5.7,10.4c6.7,27.1-1.5,54.3-9.4,80.7c-3.4,11.3-6.9,22.9-9.1,34.4
					C836.3,1552.8,835,1553.8,833.6,1553.8z" style="fill:#FECE2F;"/>
			</g>
			<g>
				<path d="M608.5,1040c-8,0-16.3-4-21.5-10.1c-8-9.4-10.3-22-11.4-33.1c-1.6-15.9-1.7-32,0-47.9
					c0.2-1.6,1.6-2.9,3.3-2.7c1.6,0.2,2.8,1.6,2.7,3.3c-1.6,15.5-1.6,31.2,0,46.7c1.1,10.2,3.1,21.7,10,29.8c6.1,7.2,18.3,11,25.9,5
					c3.2-2.5,5.3-6.4,6.8-9.8c7.4-16.2,9-35,5-52.4c-2.6-3.1-3.4-7.2-4.2-10.9c-0.3-1.5-0.6-2.9-1-4.3c-0.8-1.7-1.6-3.4-2.6-5.1
					c-0.7-1.4-0.3-3,0.9-3.9c1.3-0.9,3-0.6,4,0.5c1.6,1.9,2.6,4.1,3.3,6.3c2.1,4.6,3.8,9.5,5,14.4c0.1,0.1,0.2,0.2,0.3,0.3
					c2.4,1.8,6.3,1.5,9.2-0.6c3.4-2.5,4.9-6.7,5.6-9.8c1.6-7.1,0-15.1-4.4-21.9c-4.4-6.8-11-11.5-18.2-13c-1.6-0.3-2.7-1.9-2.3-3.5
					c0.3-1.6,1.9-2.7,3.5-2.3c8.7,1.8,16.7,7.5,22,15.6s7.2,17.7,5.3,26.4c-0.9,4.1-3,9.7-7.9,13.4c-3.4,2.6-7.8,3.5-11.6,2.7
					c2.8,17.1,0.7,35-6.5,50.7c-1.8,3.9-4.3,8.7-8.6,12.1C617.4,1038.7,613,1040,608.5,1040z" style="fill:#FECE2F;"/>
			</g>
			<g>
				<path d="M747,1261.6c-1,0-2,0-2.9,0c-19.5-0.2-39.1-1.9-58.3-4.9c-1.6-0.3-2.8-1.8-2.5-3.4s1.8-2.8,3.4-2.5
					c18.9,3,38.2,4.6,57.4,4.8c9.3,0.1,19.9-0.1,29-4.2c7.7-3.5,15.5-11.2,15.6-20.7c0-5.2-2.4-10.8-6.7-15.9
					c-8.7-10.2-22.9-15.4-36.2-13.3c-1.6,0.2-3.1-0.8-3.4-2.4c-0.3-1.6,0.7-3.1,2.3-3.5c14.3-3.3,29.2-6.8,43-12.2
					c5.5-2.2,11.7-5,16.2-9.5s6.7-10.5,5.7-15.6c-1.9-9.6-13.9-14.3-18.9-15.9c-28.5-8.8-59.5-1.9-86.9,4.3
					c-1.6,0.4-3.2-0.7-3.6-2.3c-0.4-1.6,0.7-3.2,2.3-3.6c26.7-6,59.9-13.4,90-4.2c7.6,2.3,20.6,8.1,23,20.4c1.4,7-1.4,15-7.3,21
					c-5.3,5.3-12.2,8.5-18.3,10.9c-8.2,3.2-16.7,5.8-25.2,8c8.4,2.5,16.2,7.3,21.9,14c5.3,6.2,8.2,13.2,8.1,19.8
					c0,8.8-6,20.3-19.1,26.2C766.4,1261,756.2,1261.6,747,1261.6z" style="fill:#FECE2F;"/>
			</g>
			<g>
				<path d="M1229.4,1320.6c-0.2,0-0.3,0-0.5,0c-41.7-6.7-68.5-35.6-83.6-58.8c-19.2-29.4-26.8-59.1-28.3-72
					c-0.9-7.9-0.9-22.2,9.4-29.3c5.9-4.1,14.3-4.7,22.1-1.7c7,2.7,12.7,7.8,17.3,12.4c6.3,6.2,12,13,17.5,19.9
					c-1.1-8.7,0.2-17.8,4-25.7c2.5-5.2,7.1-12,14.9-15.4c11.2-4.8,23.9,0,31.6,7c8.3,7.5,13.1,17.8,17,26.9
					c7.6,17.9,14,36.5,19,55.3c0.4,1.6-0.5,3.2-2.1,3.7c-1.6,0.4-3.2-0.5-3.7-2.1c-4.9-18.5-11.1-36.9-18.7-54.5
					c-3.6-8.5-8.1-18.2-15.5-24.8c-6.3-5.7-16.5-9.7-25.2-5.9c-4.7,2.1-9,6.5-11.8,12.5c-5.8,12.1-4.9,27.2,2.4,38.5
					c0.9,1.4,0.5,3.2-0.8,4.1s-3.1,0.6-4.1-0.7c-8.8-11.8-17.9-24-28.5-34.5c-4.2-4.1-9.3-8.7-15.2-11c-6-2.3-12.3-1.9-16.5,1
					c-8,5.6-7.5,18.4-6.9,23.7c1.9,16.1,11.2,44.7,27.4,69.4c14.5,22.1,40,49.8,79.5,56.1c1.6,0.3,2.8,1.8,2.5,3.4
					C1232.2,1319.6,1230.9,1320.6,1229.4,1320.6z" style="fill:#FECE2F;"/>
			</g>
			<g>
				<path d="M833.8,966.8c-2.4,0-4.7-0.5-6.8-1.4c-6.8-3-11.1-10.4-12.4-21.4c-1.1-9-0.6-18.1,1.2-27
					c-1.5,1.6-3,3.1-4.6,4.6c-1.7,1.6-3.8,3.5-6.6,4.4c-6.4,2.1-13.2-2.2-16-7.6c-2.8-5.4-2.6-11.6-2.1-16.4
					c2.5-24.7,15.3-47.1,26.6-66.8c0.8-1.4,2.7-1.9,4.1-1.1c1.4,0.8,1.9,2.7,1.1,4.1c-11,19.2-23.5,41.1-25.8,64.4
					c-0.4,4-0.6,9.1,1.5,13c1.6,3.1,5.5,5.7,8.8,4.6c1.6-0.5,3.1-1.8,4.3-3c6.6-6.2,12-13.3,16.2-21.3c0-0.1,0.1-0.2,0.1-0.3
					c0.8-1.5,2.6-2,4-1.3c1.5,0.8,2,2.6,1.3,4c0,0.1-0.1,0.2-0.1,0.3c-7.1,13.6-9.9,29.4-8.1,44.6c0.7,6.1,2.9,14,8.9,16.7
					c4.9,2.2,10.8,0,14.4-3.1c4.5-3.8,7.4-9.5,9.7-14.6c7.4-16,13-33.1,16.5-50.8c0.2-2.4,0.7-4.7,1.3-7c0.4-1.5,2-2.5,3.5-2.1
					c1.6,0.3,2.6,1.9,2.3,3.4c-0.4,2.2-0.8,4.4-1.2,6.6c-0.7,8.1,1.4,16.5,6,23.3c4.3,6.2,10.3,10.2,16.3,10.7
					c7.5,0.6,15.7-4.6,19.9-12.5c3.5-6.6,4.9-14.8,4.4-26.1c-1-23.7-8.9-47.5-22.2-67c-0.9-1.4-0.6-3.2,0.8-4.2
					c1.4-0.9,3.2-0.6,4.2,0.8c14,20.5,22.2,45.4,23.2,70.2c0.3,7.8,0.1,19.3-5.1,29.2c-5.4,10.2-15.7,16.5-25.7,15.7
					c-7.8-0.6-15.4-5.5-20.7-13.3c-2.1-3.1-3.8-6.5-5-10.1c-3.4,12.4-7.8,24.3-13.1,35.8c-2.6,5.6-5.9,12-11.3,16.6
					C843.6,964.9,838.5,966.8,833.8,966.8z" style="fill:#FECE2F;"/>
			</g>
			<g>
				<path d="M1010.7,1167.8c-5.9,0-12.3-3.1-18.7-9c-6.6-6.2-12.2-13.5-16.5-21.4c-0.1,2.2-0.3,4.3-0.5,6.5
					c-0.3,2.4-0.7,5.1-2.2,7.6c-3.6,5.8-11.5,6.8-17.1,4.6c-5.6-2.3-9.5-7.2-12.2-11.2c-11.8-17.3-19.3-39.7-22.8-68.4
					c-1.5-12.2,7-22.9,24.6-31c14.8-6.8,35.5-11.4,55.5-12.2c9.8-0.4,33.5-0.4,42,8.8c5.3,5.7,12.5,14.6,14.9,25.6
					c2.4,11.3-1.4,22.8-9.5,28.6c-0.4,0.3-0.9,0.6-1.4,1c-7.4,5.2-24.7,17.2-20.3,33.6c1.6,6,3.3,12.9,2.1,20
					c-1.4,8.1-6.6,14.5-13.3,16.5C1013.8,1167.5,1012.3,1167.8,1010.7,1167.8z M973.5,1115c3.3,14.9,11.3,28.9,22.5,39.3
					c4.5,4.2,11.2,8.8,17.5,7c5.1-1.5,8.2-6.9,9-11.7c1-5.8-0.5-12-1.9-17.4c-5.6-20.5,14.9-34.7,22.6-40.1c0.5-0.3,0.9-0.7,1.3-0.9
					c6.1-4.4,9-13.6,7.1-22.4c-1.6-7.3-5.8-14.5-13.4-22.8c-9.6-10.5-58.9-9.7-90.5,4.8c-10.5,4.8-22.6,13-21.2,24.8l0,0
					c3.4,27.7,10.5,49.2,21.8,65.7c2.3,3.3,5.4,7.3,9.5,9c3.2,1.3,7.9,0.9,9.8-2.2c0.9-1.4,1.2-3.4,1.4-5.1c1-8.9,0.6-17.9-1.4-26.7
					c0-0.1,0-0.2-0.1-0.3c-0.4-1.6,0.7-3.2,2.3-3.6s3.2,0.7,3.6,2.3C973.5,1114.8,973.5,1114.9,973.5,1115z" style="fill:#FECE2F;"/>
			</g>
			<g>
				<path d="M861.9,1370.3c-2.4,0-4.9-0.3-7.3-1c-6.1-1.8-10.5-6.4-11.4-11.8c-0.9-5.7,2-11.6,8.5-17
					c4.5-3.8,9.5-6.9,14.9-9.2c-0.7-0.1-1.4-0.3-2.1-0.5c-1.9-0.5-3.9-1.1-5.6-2.4c-4.4-3.5-4.3-9.8-2-13.9s6.3-6.6,9.6-8.3
					c13.8-7.2,30.9-10.6,52.3-10.6l0,0l0,0c18.6,0,33.9,6,41.1,16.1c4.6,6.4,5.5,14.1,2.7,22.3c-8,23.2-89.4,35.2-92.8,35.7
					C867.3,1370,864.7,1370.3,861.9,1370.3z M885.9,1332.4c-11,1.1-21.8,5.6-30.3,12.8c-2.7,2.3-7.2,6.8-6.4,11.5
					c0.6,3.5,4,6.1,7.2,7c4,1.2,8.6,0.7,12.6,0.1c9-1.3,29.2-5,47.9-10.3c31.7-9.1,38.7-17.3,40.1-21.4c2.2-6.3,1.5-11.9-2-16.8
					c-6-8.4-19.8-13.5-36.2-13.5l0,0c-20.4,0-36.6,3.3-49.6,10c-2.5,1.3-5.6,3.1-7.1,5.8c-1.1,2-1.2,5,0.5,6.3
					c0.8,0.7,2.1,1,3.3,1.3c6.4,1.5,12.9,2,19.4,1.4c0.1,0,0.2,0,0.2,0c1.6-0.2,3.1,1,3.3,2.7s-1,3.1-2.7,3.3
					C886,1332.4,885.9,1332.4,885.9,1332.4z" style="fill:#FECE2F;"/>
			</g>
			<g>
				<path d="M1346.5,1058.1c-6.2,0-10.8-1.8-13.8-5.3c-4.4-5.1-3.8-12.5-1.3-17.7c-19.2,9.4-39.6,15.9-60.9,19.4
					c-4,0.7-8.5,1.2-12.6-0.7c-6.9-3.3-9-11.8-7.4-18.1c1.6-6.5,6.1-11.4,10.3-15.4c0.5-0.5,1.1-1,1.6-1.5c-5.4,2-10.8,3.9-16.2,5.7
					c-15.7,5.2-23.8,0-25.9-6.1c-1.4-4.1-0.4-8.3,0.9-11.8c9.3-26.3,31.1-44.6,52.2-62.2c9-7.6,18.3-15.4,26.5-23.7
					c1.2-1.2,3.1-1.2,4.2,0c1.2,1.2,1.2,3.1,0,4.2c-8.4,8.5-17.8,16.4-26.9,24.1c-21.4,17.9-41.6,34.9-50.4,59.6
					c-0.9,2.6-1.7,5.5-0.9,7.8c0.3,0.9,1.3,3.6,6.6,4.1c3.3,0.3,7.6-0.3,11.8-1.7c12.4-4.1,24.7-8.7,36.8-13.7
					c7.5-4.4,15.6-7.9,23.9-10.4c1.5-0.5,3.1,0.3,3.7,1.8s-0.1,3.1-1.5,3.8c-7.7,3.6-15.5,7-23.4,10.2c-6.8,4-13.1,8.7-18.9,14.2
					c-3.6,3.4-7.4,7.5-8.6,12.5c-1,4,0.3,9.4,4.1,11.2c2.5,1.2,5.9,0.8,9.1,0.2c26.1-4.3,50.8-13.3,73.6-26.6c1.3-0.8,3.1-0.4,4,0.9
					s0.7,3-0.5,4c-3.7,3.2-7.6,6.4-9.7,10.6c-1.7,3.3-2.3,8.3,0.3,11.4c2.4,2.9,7.1,3.8,13.9,2.8c13.8-2,26.9-7.6,37.9-16.3
					c1.3-1,3.2-0.8,4.2,0.5s0.8,3.2-0.5,4.2c-11.8,9.4-25.9,15.5-40.8,17.6C1350.1,1058,1348.3,1058.1,1346.5,1058.1z" style="fill:#FECE2F;"/>
			</g>
			<g>
				<polygon points="1461.9,432.1 1630.9,367.3 1656.4,445.3 1696.9,484.3 1671.4,580.3 1502.4,601.6 1499.4,498.1 				
					" style="fill:#FFFFFF;"/>
				<path d="M1502.4,604.6c-0.7,0-1.4-0.3-2-0.7c-0.6-0.6-1-1.3-1-2.2l-3-102.7l-37.1-65.3c-0.4-0.8-0.5-1.7-0.2-2.5
					s0.9-1.5,1.7-1.8l168.9-64.8c0.8-0.3,1.6-0.3,2.4,0.1c0.7,0.4,1.3,1,1.6,1.8l25.3,77.3l40,38.5c0.8,0.8,1.1,1.9,0.8,2.9
					l-25.5,96c-0.3,1.2-1.3,2.1-2.5,2.2l-168.9,21.3C1502.7,604.6,1502.6,604.6,1502.4,604.6z M1466.3,433.7l35.8,63
					c0.2,0.4,0.4,0.9,0.4,1.4l2.9,100.2l163.7-20.7l24.5-92.3l-39.2-37.8c-0.4-0.3-0.6-0.8-0.8-1.2l-24.5-75L1466.3,433.7z" style="fill:#1A1A1A;"/>
			</g>
			<path d="M1433,1487.3c-3.1-10-9.9-18.2-19.2-23.1c-9.3-4.8-19.9-5.8-29.9-2.7s-18.2,9.9-23.1,19.2
				c-4.8,9.3-5.8,19.9-2.7,29.9s9.9,18.2,19.2,23.1c5.8,3.1,12,4.5,18.2,4.5c14.1,0,27.7-7.6,34.8-21
				C1435.1,1507.9,1436.1,1497.3,1433,1487.3z" style="fill:#1A1A1A;"/>
			<polygon points="367.8,692.3 391.1,645.6 419.4,640.6 436.4,711 429.8,801 408.4,805 374.4,740.3 			" style="fill:#FFFFFF;"/>
			<path d="M950.9,703l-19.3-3.2c1.7-3.9,4.6-6.5,4.7-6.6c1.3-1.1,1.4-3,0.3-4.2c-1.1-1.3-3-1.4-4.2-0.3
				c-0.3,0.2-7.7,6.8-7.9,16.1c-0.1,5.7,2.4,11.1,7.5,16c0.6,0.5,1.4,0.8,2.1,0.8c0.8,0,1.6-0.3,2.1-1c1.1-1.2,1.1-3.1-0.1-4.2
				c-3.7-3.4-5.5-7-5.7-10.7l19.5,3.3c0.2,0,0.3,0,0.5,0c1.5,0,2.7-1.1,3-2.5C953.6,704.8,952.5,703.3,950.9,703z" style="fill:#1A1A1A;"/>
			
				<ellipse transform="matrix(0.6346 -0.7728 0.7728 0.6346 -69.5296 1039.2972)" cx="1064.4" cy="593.2" rx="35" ry="14.5" style="fill:#FFFFFF;"/>
			<path d="M1088.5,563.8c-8.7-7.2-25.9,4.1-37.6,18.3c-11.7,14.3-19.4,33.3-10.6,40.5c1.9,1.5,4.2,2.2,6.7,2.2
				c9.2,0,21.8-9.4,30.9-20.5C1089.6,590,1097.3,571,1088.5,563.8z M1073.4,600.5c-12.6,15.3-25.5,20.5-29.2,17.4
				c-3.7-3-1.2-16.7,11.4-32c1.2-1.5,2.5-2.9,3.7-4.2c-2,6.6-1.8,12,1.4,14.5c3.8,3.1,10.9,1.3,18.8-4.1
				C1077.8,594.8,1075.8,597.6,1073.4,600.5z" style="fill:#1A1A1A;"/>
			<g>
				<path d="M926.3,1664.6c-142.2-27.3-273.9-63.7-370.8-102.5c-47.2-18.9-83.6-37.3-108.2-54.8
					c-26.1-18.6-37.9-35.5-35.1-50.3c0.2-1.3,1.5-2.1,2.8-1.9s2.1,1.5,1.9,2.8c-5,25.8,46.2,62.1,140.4,99.8
					c96.6,38.6,228,74.9,370,102.2c141.8,27.3,277.1,42.3,381.1,42.3c0.1,0,0.3,0,0.4,0c101.5,0,162.5-14.8,167.4-40.6
					c0.2-1.3,1.5-2.1,2.8-1.9s2.1,1.5,1.9,2.8c-2.9,14.8-20.1,26.2-51.2,33.7c-29.3,7.1-70,10.7-120.8,10.7
					c-0.4,0.1-0.5,0.1-0.6,0.1" style="fill:#1A1A1A;"/>
			</g>
			<path d="M927.3,1659.9c32.4,6.2,64.5,11.8,95.9,16.8c87.9,12.6,159.7,19.4,159.7,19.4l-2.5-70.5c0,0-83,19-289-20
				s-263-88-263-88l-38.9,52.4c0,0,25.5,9.4,67,22.7C736.4,1617.9,829.3,1641.1,927.3,1659.9z" style="fill:#FECE2F;"/>
			<g>
				<path d="M1550,679.5l-0.8-66.3c-0.6-9.9,5.1-15.4,9.8-15.7c5.8-0.3,9.8,4.2,9.4,12.8l-0.1,26.9
					c0,4.3,3.4,7.8,7.6,8.1l0,0c5.5,0.4,9.1,6,7.1,11.2l-8,20.1c-2.8,7-9.9,11.5-17.4,11l0,0C1553.3,687.2,1550,683.7,1550,679.5z" style="fill:#FFFFFF;"/>
			</g>
			<g>
				<path d="M131.2,668.5l-28.4,5.4l-4.3,2.7l34,171l69.6-13.9l-30-162.7C159.2,666.8,145.1,665.8,131.2,668.5z" style="fill:#FECE2F;"/>
				<g>
					<path d="M276.7,717.3c0-0.9-0.5-1.6-1.1-2.1c-0.7-0.5-1.5-0.7-2.3-0.6l-17.4,2.6c-15.2,2.3-30.2-4.1-39-16.8
						c-19.3-27.6-53.1-41.3-86.2-34.9l-62.3,11.8c-0.8,0.2-1.5,0.6-1.9,1.3c-0.5,0.7-0.7,1.5-0.5,2.3l33.9,173.3
						c0.2,0.8,0.6,1.5,1.3,1.9c0.5,0.3,1.1,0.5,1.7,0.5c0.2,0,0.4,0,0.6-0.1l29.4-5.9h0.1l69.6-13.9c0.3-0.1,0.5-0.2,0.8-0.3
						c15.4-3.3,29.1-11.2,39.7-22.9l38.1-41.9c0.6-0.6,0.9-1.5,0.8-2.3L276.7,717.3z M177.4,835.6l-42.6,8.5l-33-166l2.1-1.2
						l27.9-5.3c12.5-2.5,25.5-1.8,37.7,1.8l29.1,158L177.4,835.6z M72.5,682.7l23.1-4.4l33.2,167.1l-23.5,4.7L72.5,682.7z
						 M238.7,809.5c-9.2,10.2-21,17.3-34.3,20.6l-28.7-154.5c14.3,5.6,26.9,15.4,36,28.4c10.2,14.6,27.4,22,44.9,19.3l14.3-2.2
						l4.9,47.5L238.7,809.5z" style="fill:#1A1A1A;"/>
					<path d="M439.2,710.1l-16.9-69.8c0-0.1,0-0.2,0-0.2l-3.8-18.5c-0.3-1.6-1.9-2.6-3.5-2.3l-26.2,5.2
						c-1.5,0.3-2.5,1.7-2.4,3.2l1.3,13.5l-37.9-13.5c-7.2-2.6-15.1-0.3-19.8,5.8c-3.5,4.6-9.9,5.9-14.9,3
						c-24-13.8-55.4-29.5-68.4-25.6c-2.6,0.8-4.7,2.4-5.8,4.7c-0.7,1.3-1.3,3.5-0.2,6.3c7.1,19.3,92.1,55.9,106.5,62l9.5,22.9
						c0.4,1,1.4,1.7,2.6,1.8h0.1c1.1,0,2.2-0.6,2.7-1.6l3.6-6.9l5.7,40.6c0,0.4,0.1,0.7,0.3,1l34,64.7c0.6,1,1.6,1.6,2.7,1.6
						c0.2,0,0.4,0,0.5-0.3l21.3-4c1.3-0.2,2.3-1.3,2.4-2.7l6.7-90C439.3,710.7,439.3,710.4,439.2,710.1z M359.7,698.5l-7.5-18.1
						c-0.3-0.7-0.9-1.3-1.6-1.6c-0.3-0.1-25-10.5-50.2-23.1c-43.6-21.8-52.7-31.8-54.2-35.9c-0.4-1-0.2-1.4-0.1-1.5
						c0.2-0.5,0.7-1.2,2.2-1.6c0.9-0.3,2-0.4,3.2-0.4c10.3,0,32.3,9.2,60.4,25.3c7.6,4.4,17.4,2.5,22.7-4.5
						c3.1-3.9,8.4-5.5,13.1-3.8l39.1,13.9L359.7,698.5z M426.9,798.4l-16.9,3.2l-32.7-62.2l-6.4-46.6l22-44.1l0.2-0.3
						c4.6-0.8,18.2-3.2,24.2-4.3l16.2,67.1L426.9,798.4z" style="fill:#1A1A1A;"/>
				</g>
			</g>
			<g>
				<path d="M179.4,786.1c-0.9,0-1.9-0.4-2.5-1.3l-57.5-82c-1-1.4-0.6-3.2,0.7-4.2c1.4-1,3.2-0.6,4.2,0.7l57.5,82
					c1,1.4,0.6,3.2-0.7,4.2C180.6,786,180,786.1,179.4,786.1z" style="fill:#1A1A1A;"/>
			</g>
			<g>
				<path d="M167.9,820.6c-0.9,0-1.9-0.4-2.4-1.3l-38-53.5c-1-1.4-0.6-3.2,0.7-4.2c1.4-1,3.2-0.6,4.2,0.7l38,53.5
					c1,1.4,0.6,3.2-0.7,4.2C169.1,820.5,168.5,820.6,167.9,820.6z" style="fill:#1A1A1A;"/>
			</g>
			<g>
				<path d="M1104.8,1551.7c-56.2,0-97.6-8.4-99.5-8.8c-8.4-1.7-13.8-9.9-12-18.3c1.7-8.4,9.9-13.8,18.3-12l0,0
					c0.5,0.1,52.1,10.6,116.2,7.7c0.2,0,0.5,0,0.7,0c8.2,0,15.1,6.5,15.5,14.8c0.4,8.6-6.2,15.8-14.8,16.2
					C1120.8,1551.5,1112.6,1551.7,1104.8,1551.7z" style="fill:#1A1A1A;"/>
			</g>
			<g>
				<path d="M962.8,1536.1c-0.8,0-1.6-0.1-2.4-0.2l-19.3-3c-8.5-1.3-14.3-9.2-12.9-17.7c1.3-8.5,9.2-14.3,17.7-12.9
					l19.3,3c8.5,1.3,14.3,9.2,12.9,17.7C976.9,1530.7,970.3,1536.1,962.8,1536.1z" style="fill:#1A1A1A;"/>
			</g>
			<g>
				
					<ellipse transform="matrix(0.7597 -0.6503 0.6503 0.7597 -163.4415 861.7639)" cx="1084.2" cy="652" rx="24.3" ry="24.4" style="fill:#FFFFFF;"/>
			</g>
			<path d="M1663.9,688.6l-48.3-119L1629,528c2.4-1.8,9.8-7.6,16.9-13.7c17.4-14.9,17.9-18.6,16.8-21.3
				c-0.4-1-1.2-1.8-2.3-2.2c-3.6-1.2-10.8,2.2-30.4,13.3c-3.8,2.2-8.2,4.6-11.6,6.4c2-3.6,4.7-8.5,7.3-13.1
				c19.1-33.9,23.8-44.2,18.3-47.4c-5.1-3-13.6,5-36.7,30.4c-0.5,0.6-1.1,1.3-1.7,1.9c0.9-1.8,1.7-3.7,2.6-5.5
				c20.4-43.3,23.8-53.9,18.3-56.9c-3.5-1.9-8.3-0.8-31.3,31.8c-2.4,3.5-4.8,7-7.1,10.3c0.5-3.1,1.1-6.5,1.7-9.9
				c4-24.6,2.2-28.2,0.1-29.9c-0.9-0.7-2.1-0.9-3.2-0.6c-3.9,1-8,8.9-22,42.3c-2.4,5.7-5,11.9-6.9,16.2c-0.1-0.3-0.1-0.5-0.2-0.8
				c-2.6-11.2-6.9-30.1-17.1-34.7c-3.7-1.6-7.7-1.3-11.9,0.9c-1.1,0.5-1.7,1.6-1.6,2.8l6,103.4l-4.2,169.2c0,0.9,0.4,1.8,1.1,2.4
				c0.6,0.5,1.2,0.7,1.9,0.7c0.2,0,0.4-0.1,0.7-0.1l20-4.8c3,47.1,1.2,98.8-5.5,144.9c-9.9,68.3-29.2,118-54.5,139.9
				c-18.8,16.4-37.5,19.3-60.5,9.5c-13.6-5.8-28.1-15.6-44.6-28.2c-0.4-1-1.3-1.7-2.4-1.8c-10-7.7-20.6-16.4-32.2-25.8
				c-23.1-18.8-49.2-40-80.1-61.9c-46.7-33-101.5-57.1-162.8-71.5c-18-4.2-34.9-7.2-50.1-9.3c0-0.1,0.1-0.3,0.1-0.4l12-66
				c13.6-6.2,31.3-15.3,48.4-26.9c20.5-14,36.1-28.8,46.5-44.2c13.1-19.5,17.8-39.8,13.8-60.4c-3.2-16.4-15.8-39.9-41.9-57
				c-2.5-1.6-5-3.1-7.5-4.5c3.9-2.5,9.4-7.4,14-17.1c5.6-11.6,2-25.4-4.7-29.1c-3.3-1.8-8.2-1.5-12.1,4.8
				c-6.7,10.9-27.9,25-32.8,28.1c-16.6-3.7-33.2-4.5-48.4-3.8c-1.5-2.4-3.9-4.1-7.1-5.1c-18.9-5.8-64.9,17.1-84.2,29.1
				c-17.2,10.7-38,14.8-49.4,9.7c-4.8-2.1-7.8-5.8-8.7-11c-4.1-22.2-21.3-63.4-57.9-60.5c-19.4,1.5-39.7,10.3-54.4,23.6
				c-12.7,11.5-27.6,32-25.6,64.2c1.4,21.9,9.8,39.1,24.3,49.8c15.5,11.4,35.5,13.3,47.5,10.3c5.4-1.4,11.6-3.9,18.2-6.5
				c16-6.4,34.1-13.7,42.3-5c5.2,5.5,7,10.9,9.2,17.1c2.8,8.1,5.9,17.1,16.9,27.3c-4.2,3.9-8.3,9-10.2,15.2
				c-2.3,7.3-1.3,14.8,3.1,22.4c4.2,7.1,10.2,11.6,17.7,13.3c12.3,2.9,25.7-2.4,33.2-6.2l-16.4,86.3c-34.6,2.4-82.9,7.9-138.4,22.7
				c-98.5,26.3-185.6,72.8-258.9,138.2c-20.4,18.2-38.3,35.5-54,51.8c-0.5,0.3-0.9,0.7-1.1,1.1c-10.5,10.9-19.9,21.3-28.5,31.2
				c-20.1-20.4-36.3-46.5-48.6-70.6c-2.7-6.9-5.1-11.4-5.2-11.7c-0.3-0.4-0.6-0.8-1-1.1c-12.9-27.6-20.3-50.6-22-56.1l5.5-3.7
				c1-0.7,1.5-1.9,1.3-3.1c-0.2-0.9-18-86.8-20-104.9c-1.4-12.5-1-16,0.3-28.9c0.6-5.5,1.3-12.9,2.2-23.5
				c1.4-17.8,0.2-36.5-3.4-51.3c-2.2-9.2-7.4-24.8-16.8-26.1c-6.7-1.1-10.1,2.9-12.9,6.1c-2,2.3-3.7,4.2-6.5,4.9
				c-2.4,0.6-3.7,0-5.9-1c-3-1.4-6.8-3.2-14.1-1.8c-5.5,1.1-8.7,5.5-11.3,9c-1.5,2.1-3.1,4.3-4.4,4.6c-1.6,0.4-4-0.3-6.7-1
				c-4-1.1-8.9-2.4-14.4-1.2c-18.1,3.9-9.1,49.6-7.1,58.7c4.3,19.7,9.3,51,9.9,55l-23.9,187.1c-0.1,1.1,0.4,2.3,1.4,2.9
				c0.5,0.3,1.1,0.5,1.6,0.5c0.6,0,1.2-0.2,1.7-0.5l17.9-11.9c0.6,28.4,5.7,135.9,48.2,223.7c23.5,48.3,49.6,80.1,80,97.1
				c18.8,10.6,39.6,15.7,64.2,15.7c8.1,0,16.5-0.6,25.2-1.8c56-6.8,163.1-73,185.7-87.3c0,0.1,0,0.1,0,0.2
				c-2.2,29-9.5,104.4-28.2,179.2c-18.5,74.4-42.5,126.1-71.3,153.5c-1.2,1.1-1.2,3-0.1,4.2c0.6,0.6,1.4,0.9,2.2,0.9s1.5-0.3,2-1
				c13.2-12.6,25.4-30,36.5-52.2c1.8,1.2,19.4,13.4,57.7,29.7c65.9,28.2,140.4,46.4,191.3,56.7c100.1,20.3,184.4,24.7,238.8,24.7
				c30,0,50.9-1.3,60.4-2.1c2.2,30.9,4.7,66.6,4.8,67.2c0.1,1.6,1.4,2.8,3,2.8c0.1,0,0.2,0,0.2,0.2c1.7-0.1,2.9-1.5,2.8-3.2
				c0-0.6-2.5-36.6-4.8-67.5c1.6-0.3,2.7-1.6,2.5-3.3c-0.2-1.6-1.4-2.7-2.9-2.7c-1.2-16.1-2.2-30-2.8-35.7c0-0.3,0-0.5,0-0.8
				c0-0.1,0-0.1-0.1-0.2c-7.9-90.3,33.2-184.8,55.6-228.7c6.1-10,15.4-26.4,24.6-43.2c18.7-31.8,27.8-50,30.9-56.4
				c23.6,11.2,53.4,22,86.5,26c9.8,1.4,18.9,2,27.4,2c11.5,0,21.8-1.1,31-2.8c3.8-0.6,7.5-1.3,11.3-2.1
				c71.3-15.7,118.3-79.9,145.1-131.1c31.5-60,53.8-136.7,61.3-210.5c9.3-92.1-2.2-190.1-10.1-241.7l20.3-4.9c0.9-0.2,1.6-0.7,2-1.5
				C1664.2,690.3,1664.2,689.4,1663.9,688.6z M1133.5,517.3c1.5-2.5,2.9-3.4,4.1-2.7c3.4,1.9,6.6,12,2.1,21.3
				c-6.7,13.8-15,16.1-15,16.1c-0.1,0-0.1,0-0.2,0.1c-6.9-3.3-13.9-5.8-21-7.8C1112,538.4,1127.5,527,1133.5,517.3z M969.5,720.8
				c0.2-1.2-0.3-2.4-1.3-3.1c-1-0.6-2.3-0.7-3.3,0c-0.2,0.2-19,12.2-34.4,8.7c-5.9-1.4-10.5-4.8-13.9-10.5c-3.5-6-4.4-11.9-2.6-17.5
				c1.8-5.7,6-10.5,10.1-14c0.3-0.1,0.5-0.2,0.7-0.3l9.7-6.4c1.9-0.6,12.7-3.5,17,4.4c2.9,5.4,10,18.4,22.5,18.4
				c2.5,0,5.3-0.5,8.1-1.8c16.1-6.6,13.1-23.2,8.7-37c-7-22-6.7-39.4,1-51.9c3.7-6,13.1-14.3,23.1-23.1
				c16.9-14.8,34.2-30.1,34.1-42.3c27.4-1,59.4,3,86.5,20.7c11.1,7.3,19.6,15.8,25.9,24.3l-42.8,33.9l3.7,4.7l42.5-33.6
				c5.4,8.5,8.7,16.9,10,23.8c3.6,18.9-0.7,37.7-12.9,55.8c-9.9,14.8-25,29.1-44.8,42.6c-19.9,13.6-40.7,23.6-54.5,29.6l-16.7,6.6
				c-1.2,0.5-1.9,1.6-1.9,2.9c0.1,1.3,0.9,2.4,2.1,2.8c0.1,0,4.1,1.4,7.4,7.2c3.1,5.4,6,15.8,2.7,34.5l-0.3,1.6
				c-0.1,0.4-0.1,0.7,0,1.1l-1.9,10.5c0,0.3,0,0.5,0,0.7c-33-4.1-57.9-4-69.6-3.6l-1.9,0.1c-8,0.3-18.2,0.6-30.3,1.4L969.5,720.8z
				 M499.5,1316.7c-54.4,6.7-112-1.8-163.4-107.8c-44.3-91.2-47.5-204.5-47.7-224.9l94.5-62.6c2.6,8.2,10.7,32.3,24.3,60.3
				c1.9,4.7,3.8,9.1,5.7,13.3c5.6,16.1,10.7,40.2,0.9,58.1c-3.5,6.4-7,12.6-10.3,18.6c-30,53.7-51.7,92.6-21.5,119.7
				c0.4,0.5,0.9,0.9,1.6,1.1c0.3,0.1,0.5,0.1,0.8,0.1c0.2,0,0.3,0,0.5,0c1.2-0.2,2.2-1,2.6-2.1c0-0.1,1.5-5.3,5.6-15
				c0.2-0.5,0.4-1,0.6-1.5c0-0.1,0-0.1,0.1-0.2c0.3-0.6,0.5-1.2,0.8-1.8c0.1-0.2,0.2-0.5,0.3-0.7c0.1-0.2,0.2-0.4,0.3-0.6
				c4.5-9.7,11.3-22.8,21.3-38.7c14.7-23.3,38.7-56.3,76.3-96.1c0.1,11.5,1.5,34.3,9.4,65.6c10.6,41.3,35.3,105.9,92.6,179
				C560.9,1297.9,524.5,1313.7,499.5,1316.7z M600.4,1277.6c-57.1-72.5-81.6-136.3-92.1-177.2c-10-38.8-9.6-64.8-9.3-71
				c8.2-8.5,17-17.3,26.5-26.4c0.1,11.6,1.6,36.2,10.6,70.4c11.4,43.3,37.8,110.6,98.4,185.6C623.9,1265,612.4,1271.4,600.4,1277.6z
				 M877.2,1600.6c-175.2-35.4-246.2-85-246.9-85.5c-0.2-0.2-0.5-0.3-0.7-0.4c4.8-10.1,9.4-21,13.8-32.9l0,0
				c0.5,0.5,11.7,10.3,46,25.6c56.8,25.3,132.1,45.6,185.3,58.2c96.4,22.8,172.9,28.1,220.2,28.6c2.4,0,4.8,0,7.1,0
				c37.5,0,61.7-2.9,70.2-4.2c0.6,6.8,1.5,19.1,2.5,33C1148.3,1625.2,1031.8,1631.9,877.2,1600.6z M1284,1248.6
				c-41.9-21.3-69.3-46.3-69.6-46.5c0,0,0,0-0.1-0.1c-1-0.9-2.4-1.1-3.6-0.3c-1.2,0.8-1.7,2.4-1.1,3.8c0.3,0.7,31.4,69.7,17.2,124
				c-9.6,36.8-16.4,56.3-23.5,76.9c-2.1,6-4.2,12.2-6.4,18.9c-9.1,25.8-15.9,51.8-20.3,77.8c-6.7,39.5-5.9,68.2-4.9,81
				c-8.3,1.2-35,4.5-77,4.1c-46.9-0.5-122.9-5.8-218.6-28.4c-182.6-43.1-228.3-82-228.7-82.4c-0.6-0.5-1.4-0.7-2.2-0.7
				c6.5-18.2,12.6-38.5,18.2-60.7c18.8-75.2,26.1-151,28.4-180.1c0.5-6.4,1.2-13,2-19.9l10.3-64.6v-0.1l0.6-5
				c14.8-78.2,36.2-154.7,36.5-155.8c0.4-1.6-0.5-3.3-2.1-3.7s-3.3,0.5-3.7,2.1c-0.2,0.9-15.8,56.7-29.6,121.7
				c-0.6,0-1.2,0.2-1.8,0.7c-0.5,0.4-11.7,9.5-22.6,24.1c-14.6,19.5-21.2,39.3-19.2,57.2c3.7,33.4-17,55.2-24,61.4
				c-59.1-73.6-84.9-139.5-96.2-181.9c-11-41.4-10.6-69.2-10.3-74.9c6.7-6.3,13.6-12.7,20.9-19.2c72.5-64.8,158.8-110.9,256.4-136.9
				c78.8-21.1,142.9-23.2,173.8-24.3l1.9-0.1c17.4-0.6,64.2-0.5,123.9,13.5c9.4,2.2,18.6,4.7,27.7,7.3
				c-49.8,11.2-104,13.9-97.7,42.4c9.6,43.9,97.5-11.4,195.1,7.5c11.1,1.8,25.4,10.1,34.9,12.9c0.2,0.2,0.5,0.3,0.7,0.5
				c30.7,21.8,56.8,42.9,79.7,61.6c11.9,9.6,22.8,18.5,33.1,26.4c2.4,9.7,14.3,62,2.2,120.3c-17.4,83-60.1,143.7-67.6,153.9
				C1304.7,1258.5,1293.7,1253.5,1284,1248.6z M1357.5,1274.7c-12.3-2.5-24-5.8-34.9-9.6c10.2-14.1,50.7-74,67.5-154.7
				c10.6-50.8,3.3-97.1-0.6-115.9c9.7,7.2,18.8,13.4,27.5,18.3c3.4,26.7,6.2,66.2,0.4,104.3
				C1402.9,1211.8,1363.4,1266.9,1357.5,1274.7z M1645.8,938.6c-7.4,73-29.5,149-60.6,208.3c-17.3,33.1-35.7,57.9-53.9,76.6
				c-3.1-3.7-7.1-6.2-12.1-7.3c-13.3-2.9-31.1,4.7-42.3,12.2c-7.4,4.9-15,6.5-21.6,4.4c-6.8-2.2-12.2-8.1-15.9-17.7
				c-7.8-19.8-25.4-24.5-33.1-25.6c6.7-20.2,13-44.2,17.2-71.5c5.6-36.8,3.4-74.8,0.2-101.8c2,1,4,1.9,6,2.8
				c12.7,5.4,24.2,7.3,35.1,5.5c52.5,14.3,79,42.5,92.6,16.6c9.8-18.9-21.2-29.9-50.2-43.8c16.6-20.6,35.2-59.4,45.8-132.4
				c6.7-46.9,8.6-99.5,5.5-147.3l77.2-18.7C1643.7,750.3,1655,847.4,1645.8,938.6z" style="fill:#1A1A1A;"/>
			<g>
				<path d="M1610.4,1188.6c-0.5,0-1.1-0.1-1.6-0.5c-1.4-0.9-1.8-2.7-0.9-4.1c40-63.6,56.2-132.5,62.8-179.2
					c7.1-50.6,4.8-86.7,4.8-87c-0.1-1.7,1.1-3.1,2.8-3.2c1.7-0.1,3.1,1.1,3.2,2.8c0,0.4,2.4,36.9-4.8,88.1
					c-6.7,47.3-23.1,117.2-63.7,181.7C1612.4,1188.1,1611.4,1188.6,1610.4,1188.6z" style="fill:#1A1A1A;"/>
			</g>
			<g>
				<path d="M380.4,1356.6c-0.6,0-1.1-0.2-1.6-0.5c-52.3-33.4-87.4-92-107.6-135.3c-21.9-46.7-31.6-86.2-31.7-86.6
					c-0.4-1.6,0.6-3.2,2.2-3.6c1.6-0.4,3.2,0.6,3.6,2.2c0.1,0.4,9.7,39.3,31.4,85.6c19.9,42.5,54.3,100,105.3,132.6
					c1.4,0.9,1.8,2.7,0.9,4.1C382.4,1356.2,381.4,1356.6,380.4,1356.6z" style="fill:#1A1A1A;"/>
			</g>
			<g>
				<path d="M299.1,933.6c-0.4,0-0.8,0-1.3-0.1c-5.5-0.7-9.4-5.7-8.7-11.2l6-47.3c0.7-5.5,5.7-9.4,11.2-8.7
					s9.4,5.7,8.7,11.2l-6,47.3C308.4,929.9,304.1,933.6,299.1,933.6z" style="fill:#FFFFFF;"/>
			</g>
			<g>
				<path d="M307.4,855.4c-0.7,0-1.3-0.1-2-0.2c-5.4-1.1-8.9-6.4-7.8-11.8l0.7-3.2c1.1-5.4,6.4-8.9,11.8-7.8
					c5.4,1.1,8.9,6.4,7.8,11.8l-0.7,3.2C316.3,852.1,312.1,855.4,307.4,855.4z" style="fill:#FFFFFF;"/>
			</g>
		</g>
	</g>
</g>
</svg>
