<?xml version="1.0" encoding="utf-8"?>
<!-- Generator: Adobe Illustrator 21.0.0, SVG Export Plug-In . SVG Version: 6.00 Build 0)  -->
<svg version="1.1" baseProfile="tiny" id="Layer_4" xmlns="http://www.w3.org/2000/svg" xmlns:xlink="http://www.w3.org/1999/xlink"
	 x="0px" y="0px" viewBox="0 0 2000 2000" xml:space="preserve">
<g>
	<path fill="#FECE2F" d="M589.6,1687.5c-563.1-54-669.8-577.8-366-964c118-150,373.6-394.5,876.1-509.4
		c525.1-120,456.4,356.2,708.1,834.1C2135.5,1670.6,1215.6,1747.5,589.6,1687.5z"/>
</g>
<g>
	<g>
		<path fill="#1A1A1A" d="M1693.6,1435.4c-5.3,0-10.8-0.4-16.1-2c-4-1.2-7.6-3-11.2-4.8c-2.9-1.4-5.7-2.8-8.5-3.8
			c-13.1-4.7-27.8-2.5-42-0.4c-3.6,0.5-7.3,1.1-11,1.6c-20.7,2.5-41.4,1.3-61.7-3.6c-3.3-0.8-9.8,0.3-14.2,1
			c-0.9,0.1-1.8,0.3-2.5,0.4c-11.1,1.6-111.1,6.3-206.9,3.7c-1.7,0-3-1.4-2.9-3.1c0-1.7,1.4-3,3.1-2.9c99.6,2.7,197.2-2.4,205.8-3.6
			c0.7-0.1,1.6-0.2,2.5-0.4c5.1-0.8,12.1-2,16.5-0.9c19.6,4.7,39.6,5.9,59.6,3.4c3.6-0.4,7.3-1,10.8-1.5c14.9-2.3,30.4-4.6,44.9,0.6
			c3.2,1.2,6.2,2.6,9.2,4.1c3.5,1.7,6.8,3.3,10.3,4.4c7.7,2.3,16.1,1.9,24.2,1.4l76.1-4.2c1.6-0.1,3.1,1.2,3.2,2.8
			c0.1,1.7-1.2,3.1-2.8,3.2l-76.1,4.2C1700.5,1435.3,1697.1,1435.4,1693.6,1435.4z"/>
	</g>
	<g>
		<path fill="#1A1A1A" d="M1195.1,1481.2c-6.9,0-13.8-1.1-20.2-3.5c-1.6-0.6-2.4-2.3-1.8-3.8c0.6-1.6,2.3-2.4,3.8-1.8
			c15.3,5.5,33.3,3.6,47.1-5c0.7-0.5,1.4-0.9,2.2-1.4c4.1-2.6,8.7-5.7,14.1-5.7c0,0,0,0,0,0c4.3,0,8.6,2.8,10.5,6.8
			c0.5,1,0.8,2.1,0.9,3.1c8.8-1.5,17.7-1.6,26.4-1.8l141-2.6c9.5-0.2,24.4-0.3,41.7-0.4c37.3-0.2,83.7-0.5,111-1.8
			c1.7-0.1,3.1,1.2,3.1,2.8c0.1,1.7-1.2,3.1-2.8,3.1c-27.4,1.3-73.9,1.6-111.3,1.8c-17.3,0.1-32.2,0.2-41.7,0.4l-141,2.6
			c-9.9,0.2-20.1,0.4-29.8,2.6c-1.2,0.3-2.5-0.2-3.2-1.3c-0.7-1.1-0.6-2.5,0.2-3.5c0.2-0.2,0.8-1,0.1-2.5c-0.9-1.9-3.2-3.4-5.1-3.4
			c0,0,0,0,0,0c-3.7,0-7.2,2.3-10.9,4.7c-0.8,0.5-1.5,1-2.3,1.5C1217.7,1478.2,1206.4,1481.2,1195.1,1481.2z"/>
	</g>
	<g>
		<path fill="#1A1A1A" d="M1282.7,1500.4c-0.3,0-0.7-0.1-1-0.2c-1.7-0.6-3.1-2-3.7-3.9c-0.7-2.1-0.4-4.6,0.8-6.5
			c1.5-2.3,4.1-3.9,7.8-4.6c4.6-1,9.5-0.7,14,0.7c1.3,0.4,2.2,1.7,2.1,3.1c-0.2,2.6-1.6,5.2-3.8,7s-5,2.7-7.6,2.4
			c-1.6-0.2-2.8-1.7-2.7-3.3c0.2-1.6,1.7-2.8,3.3-2.7c1,0.1,2.2-0.3,3.1-1c0.2-0.2,0.4-0.3,0.5-0.5c-2.6-0.4-5.2-0.3-7.8,0.2
			c-2.1,0.4-3.4,1.1-4,2c-0.3,0.5-0.2,1.3,0,1.5c1.6,0.6,2.3,2.3,1.8,3.8C1285.1,1499.7,1284,1500.4,1282.7,1500.4z"/>
	</g>
	<g>
		<path fill="#1A1A1A" d="M1784.6,1445.6c-1.4,0-2.7-1-3-2.5c-0.3-1.6,0.8-3.2,2.5-3.5c7.5-1.3,15.1-1.6,22.7-1
			c1.7,0.1,2.9,1.6,2.8,3.2c-0.1,1.7-1.6,2.9-3.2,2.8c-7.1-0.5-14.2-0.2-21.3,0.9C1785,1445.6,1784.8,1445.6,1784.6,1445.6z"/>
	</g>
	<g>
		<path fill="#1A1A1A" d="M1211.9,1430.2c-1.2,0-2.4-0.8-2.8-2c-0.6-1.6,0.3-3.3,1.8-3.8c6-2.1,12.8-2.5,19.1-1.1l0.3,0.1
			c0.7,0.2,1.4,0.3,1.8,0.3c0.6-0.1,1.3-1,2-1.9c1-1.2,2.1-2.5,3.9-3.4c3.9-1.9,8,0,11,1.4l0.7,0.3c2,1,4.3,1.1,4.8,0.4
			c0.3-0.5,0.1-1.5,0-2.5c-0.2-1.4-0.3-3.2,0.2-5c0.7-2.1,2.1-3.7,4.2-4.6c3.6-1.6,8.2-0.8,11,0.5c4.2,1.8,7.6,5.4,8.7,9
			c0.8,2.5,0.5,4.9-0.8,7c-0.9,1.4-2.7,1.8-4.1,1c-1.4-0.9-1.8-2.7-1-4.1c0.2-0.4,0.5-1,0.2-2.1c-0.6-2-2.9-4.2-5.4-5.3
			c-2.1-0.9-4.7-1.1-6.1-0.5c-0.6,0.3-0.8,0.6-0.9,0.9c-0.2,0.6-0.1,1.5,0,2.5c0.2,1.8,0.4,4-0.8,6.1c-2.5,4.3-8.2,4.1-12.6,2.1
			l-0.7-0.3c-2.2-1-4.4-2.1-5.8-1.5c-0.6,0.3-1.3,1.1-1.9,1.9c-1.3,1.5-2.8,3.3-5.4,3.9c-1.7,0.3-3.1,0-4.3-0.3l-0.3-0.1
			c-5.2-1.2-10.8-0.8-15.8,0.9C1212.6,1430.1,1212.3,1430.2,1211.9,1430.2z"/>
	</g>
</g>
<g>
	<path fill="#1A1A1A" d="M1061.4,1372.5v-315c0-89.9,73.6-163.5,163.5-163.5h0c89.9,0,163.5,73.6,163.5,163.5v315"/>
</g>
<g>
	<g>
		<g>
			<polygon fill="#FECE2F" points="1242.4,472.6 1243.9,555.1 1514.4,944.6 1514.4,862.6 			"/>
		</g>
	</g>
	<g>
		<g>
			<g>
				<path fill="#FECE2F" d="M1227.4,895.6c6.1,0.3,21.1,1.2,27,2.2c78,13,138,81.2,138,162.8V1371l-156,0.1v1.1l261,0.5l-2-430
					l-259-378.5L1227.4,895.6z"/>
			</g>
		</g>
		<g>
			<path fill="#1A1A1A" d="M1516.3,860.4c-0.1-0.3-0.3-0.5-0.4-0.7l-269.8-391.2c-0.9-1.4-2.8-1.7-4.2-0.8c-1.4,0.9-1.7,2.8-0.8,4.2
				l269.4,390.6v70.9L1246.1,551c-0.9-1.4-2.8-1.7-4.2-0.8c-1.4,0.9-1.7,2.8-0.8,4.2l0.6,0.9l-6.1,6.4c-0.6,0-1.2,0.2-1.7,0.5
				c-1.4,0.9-1.7,2.8-0.8,4.2l38,55.1c-5.3,18.9-9.3,38.6-0.7,55.4c2.8,5.5,6.8,10.1,10.6,14.6c3.3,3.8,6.3,7.4,8.7,11.4
				c10.9,18.1,6.5,39.5,1.8,62.2c-2.1,10.2-4.3,20.8-4.9,31.1c-1.2,19.6,3.2,39.4,7.4,58.7c4.5,20.4,8.8,39.7,6.8,58.5l6,0.6
				c2.1-19.7-2.5-40.4-6.9-60.4c-4.2-18.8-8.5-38.3-7.3-57c0.6-9.9,2.7-20.2,4.8-30.2c4.7-22.8,9.5-46.3-2.6-66.5
				c-2.7-4.5-6.1-8.4-9.3-12.3c-3.8-4.4-7.4-8.6-9.9-13.5c-7-13.6-4.6-29.5-0.2-46.2l60.4,87.6v18.9c-0.8-0.5-1.7-1-2.7-1.3
				c-4.2-1.4-9.1-0.6-12.5,2c-5.9,4.6-7.3,12.3-7.8,17.8c-1.1,10.8-0.2,21.6,2.7,32c1,3.5,2.1,6.9,3.3,10.2
				c2.2,6.4,4.3,12.5,4.9,18.8c0.7,7.3-0.4,14.5-1.6,22.2c-1.2,8-2.5,16.3-1.5,24.7c1.2,10,6.2,16.9,15.2,20.9v54.5
				c-0.3,0.2-0.6,0.4-0.9,0.6c-1.3,1.4-1.3,3.6,0.1,4.9c32,30.6,49.7,71.6,49.7,115.6v314c0,0.8,0.3,1.6,0.8,2.2
				c0.5,1.1,1.5,1.8,2.7,1.8h124c1.7,0,3-1.3,3-3s-1.3-3-3-3h-13.1V945.8l13.1,0c0.1,0,0.2,0.1,0.3,0.1c0.1,0,0.1,0,0.2,0.1
				c0.2,0,0.4,0.1,0.7,0.1c0,0,0,0,0,0c0.2,0,0.4,0,0.5-0.1c0.1,0,0.1,0,0.2,0c0.1,0,0.2-0.1,0.4-0.1c0.1,0,0.1,0,0.2-0.1
				c0.1-0.1,0.2-0.1,0.4-0.2c0,0,0.1,0,0.1-0.1c0,0,0,0,0,0c0,0,0.1-0.1,0.1-0.1c0.1-0.1,0.2-0.2,0.3-0.3c0.1-0.1,0.1-0.1,0.2-0.2
				c0.1-0.1,0.1-0.2,0.2-0.2c0.1-0.1,0.1-0.2,0.1-0.3c0-0.1,0.1-0.2,0.1-0.3c0-0.1,0.1-0.2,0.1-0.3c0-0.1,0.1-0.2,0.1-0.3
				c0-0.1,0-0.3,0-0.4c0-0.1,0-0.1,0-0.2v0c0,0,0,0,0,0v-80.7C1516.6,861.7,1516.6,861,1516.3,860.4z M1336,875.1
				c-5.5-3.2-8.3-7.9-9.2-14.9c-0.9-7.5,0.2-15.1,1.4-23.1c1.2-7.7,2.4-15.7,1.6-23.7c-0.7-7.1-3-13.7-5.2-20.2
				c-1.1-3.2-2.3-6.6-3.2-9.9c-2.7-9.7-3.5-19.8-2.5-29.8c0.7-6.9,2.5-11.2,5.6-13.7c1.8-1.4,4.6-1.8,6.9-1c1.1,0.4,2.4,1.1,2.8,2.7
				l1.8-0.5V875.1z M1342,937.4V724.3l22,31.9c-0.1,4.2-0.4,8.6-0.6,13.6c-1.4,24.4-3.2,57.9,10.4,106c4.5,15.8,5.6,43-14.2,83.3
				C1353.9,951.4,1342,937.4,1342,937.4z M1417.3,835.5v534h-25.4v-312c0-33.7-9.9-65.8-28.5-93.1c0.2-0.1,0.3-0.2,0.4-0.4
				c20.1-41.6,20.4-73.3,15.7-90c-13.3-47.1-11.5-80-10.2-104c0.1-2,0.2-3.8,0.3-5.7l49,71.1H1417.3z M1462.7,1369.5h-39.4V842.3
				l48.6,70.5c-16.6,32.6-23.3,70.8-18.3,106.9c1.8,13,5,26.2,8.1,39c7.7,31.6,15,61.5,3.3,89.5c-2.8,6.7-6.7,13.1-10.5,19.2
				c-2.9,4.7-5.9,9.6-8.4,14.7c-11.5,22.9-13.8,50.1-6.4,74.6c2.6,8.6,6.3,16.8,9.9,24.7c2.6,5.7,5.3,11.7,7.5,17.6
				C1465.4,1321.2,1467.3,1346.3,1462.7,1369.5z M1493.3,1056.7c-5.3-8.6-10.7-17.6-13.3-27.1c-3.4-12.4-2.8-24.4,1.8-33.7
				c1.7-3.3,4.3-6.7,7.1-10.2c1.5-1.9,3-3.8,4.4-5.8V1056.7z M1493.3,966.5c-0.1,0.1-0.1,0.3-0.1,0.4c-1.1,5.1-5.1,10.2-9,15.1
				c-2.8,3.6-5.8,7.4-7.7,11.3c-5.3,10.7-6.1,24.2-2.3,38c3,10.9,9.1,20.7,15,30.2c0.7,1.2,1.5,2.4,2.2,3.5c0.4,0.7,1.1,1.2,1.9,1.3
				v303.1h-24.5c4.6-24.3,2.5-49.4-6.1-72.6c-2.3-6.2-5-12.2-7.7-18c-3.5-7.7-7.2-15.8-9.6-23.9c-7-23.1-4.8-48.6,6-70.2
				c2.4-4.9,5.4-9.6,8.2-14.3c3.9-6.4,7.9-13,10.9-20.1c12.4-29.8,4.6-62.1-3-93.3c-3.1-12.6-6.3-25.7-8-38.4
				c-4.7-33.9,1.2-69.6,16.2-100.5l17.5,25.4V966.5z"/>
			<ellipse fill="#1A1A1A" cx="1272.9" cy="866.8" rx="9" ry="15"/>
		</g>
	</g>
</g>
<g>
	<g>
		<g>
			<path fill="#1A1A1A" d="M1432.1,952.5c0,0-0.1,0-0.1,0l-17.3-0.7c-1.7-0.1-2.9-1.5-2.9-3.1c0.1-1.7,1.5-2.9,3.1-2.9l17.3,0.7
				c1.7,0.1,2.9,1.5,2.9,3.1C1435.1,951.3,1433.7,952.5,1432.1,952.5z"/>
		</g>
	</g>
	<g>
		<g>
			<path fill="#FFFFFF" d="M1197,927.8c0,0-94.3-10.6-140.2-29.9c-33.3-14-3.9,2.3-32.3,58.7s-30,130.4-30,130.4l-6.4,44.1
				c0,0,48.8,41.8,119.7,58.2c70.9,16.5,127.1,23.6,127.1,23.6s0.2,43.3,33.7,66.7c33.5,23.4,68,24.4,68,24.4s62.9-7.4,70.2,19.5
				c7.4,26.8,1.4,49.1-22.7,75.6s-37.8,29.9-37.8,29.9s-15-13.1-25.6-10.1c-10.6,3.1-32.8,18.6-19.3,42.2
				c13.5,23.6,85.6,0.1,85.6,0.1s24.5-24,35.4-44.6c10.9-20.6,52.6-95.4,52.6-95.4s19.9-37.1,5.9-49.7c-6.8-3.8-41.4-10.4-41.4-10.4
				s-42.3-5.3-48.9-27.1c-6.6-21.8,0.7-40.5,17.1-49.3l21-11.1c0,0,7.9,26.9,27.8,53.7c19.9,26.9,47.8,41,71.6,47.1
				s51.9,15.2,59.5,25.5s18.8,41.3,13.9,61.1c-4.8,19.8-18.7,39.2-18.7,39.2s-32.8,5.6-31.5,22.7c1.3,17.1,13.6,21.1,34.1,23
				c20.4,1.9,50.8,6.1,56.9-21.1c6.2-27.3,5.3-77.8,5.3-77.8s16.4-67.9,6.3-78.8c-10-10.9-55.7-20.4-70.6-34.5
				c-14.9-14.1-39.2-43.7-46-97c-6.8-53.3-0.2-67.1-8.7-91.4s-14.5-35.1-14.5-35.1s47.1-2,96.1-23c48.9-21,69.4-31.1,112.2-73.3
				c14-13.9,23.7-24.3,30.3-32.2c3.2-3.8-1.6-9.1-5.7-6.2c-25.5,17.8-71.6,47-116.1,60.6c-66.4,20.2-139.4,15.3-139.4,15.3
				l-114.6-8.5C1376.9,942.9,1246.4,943,1197,927.8z"/>
		</g>
	</g>
	<g>
		<g>
			<path fill="#FFFFFF" d="M1049.6,893.6c0,0-31.4-21.7-48.7-56.8c-17.2-35.1-47.6-82.7-117.2-84s-72.2,34-136.5,32.6
				s-106.1-16.3-106.9-9.4s-15.2,41.3,33,85.7c48.2,44.4,173.5,78.4,173.5,78.4s-16,55.7-6.7,88.8c9.3,33.1,35.1,38.2,35.1,38.2
				l-54.1,96.5c0,0-31.1,49.7-27.2,66.9c3.9,17.2,29.1,60.9,51.1,85.1c22,24.1,58.7,20.5,58.7,20.5s13.4-12.3,6.4-36.3
				c-7-24-40.5-20.2-40.5-20.2s-23.4-46.9-21.3-53.4c2.1-6.6,59-65.2,59-65.2s32.2-33,41.8-34.6c9.6-1.6,25.8-2.6,25.8-2.6
				s39.5,28,61.1,38.6l56.8-168.1L1049.6,893.6z"/>
		</g>
	</g>
	<g>
		<g>
			<path fill="#FECE2F" d="M1271.3,1095.5c0,0-36.9,17.2-115.7-5.1c-20.1-5.7-50.7-6.7-47.3,13.4c4,23.7,32.3,5.7,34.4,49.5
				c1.6,33.1,31.8,31.1,45.1,21.4c28.9-20.8,49.5,9.6,49.5,9.6s5.3-29.8,11.9-45.5C1256,1123,1271.3,1095.5,1271.3,1095.5z"/>
		</g>
	</g>
	<g>
		<g>
			<path fill="#FECE2F" d="M1197,927.8c0,0,35,12.3-14.2,33.3c-27.5,11.7-55.7,24.3-50.1,49.9c5.6,25.6,37.6,41,76.8,46.6
				s99.4,0.2,101.8-24.4c2.4-24.6-9.5-43.8,12.6-46.2c22.1-2.4,94.9,12.7,119.1-38.4c0,0-71.4-4.8-124-10.2
				C1247.7,931.1,1197,927.8,1197,927.8z"/>
		</g>
	</g>
	<g>
		<g>
			<path fill="#FFFFFF" d="M1313.1,1433.5c-3,6.2-3.5,13.7-0.8,20.1c3.5,8.2,11.6,13.3,19.4,17.7c-8.1-0.7-16.2-2.5-23.9-5.2
				c-2.1-0.7-4.3-1.6-6-3.1c-1.5-1.3-2.5-3.1-3.3-4.9c-3.9-9-2.8-19.9,2.8-27.9c4-5.6,12.4-12.1,19.7-11.8c6.4,0.2,3.3,1.8-0.1,5
				C1317.8,1426.3,1315,1429.6,1313.1,1433.5z"/>
		</g>
	</g>
	<g>
		<g>
			<path fill="#FFFFFF" d="M1398.1,1309.7c-9.2-9-49.8-16.3-62.1-20.1c-64.5-20.1-63-80.5-60.5-97c4.2-27.8,11.7-41.2,13.2-64.2
				c0.7-11.6-8.9-29.7-17.5-33c-1,1.6-2.2,3-3.7,4.2c-0.8,0.6-1.6,1.3-2.3,1.9c-0.9,3.5-2.8,6.7-5.6,9.2c-0.2,0.3-0.4,0.6-0.6,0.8
				c-0.2,1.8-1,2.2-0.9,1.6c-1.6,4.1-2.7,8.3-3.7,12.5c-2,8.2-3.8,16.2-6.8,24c-4.3,11.3-7.4,22.9-9.8,34.8c0,0.2-0.5,2.5-0.6,3.3
				c-0.3,1.9-0.7,3.9-1,5.8c-0.1,0.6-0.2,1.2-0.4,1.7c0.3,0.7-0.4,4.1-0.7,5.7c1.9,5,1.9,10.4-0.2,15.3c0.8,10.7,5.7,43.8,33.5,63.3
				c33.5,23.4,68,24.4,68,24.4s41.9-4.9,61.3,7.9C1398.2,1311.2,1398.3,1310.5,1398.1,1309.7z"/>
		</g>
	</g>
	<g>
		<g>
			<path fill="#FFFFFF" d="M1422.5,1416.7c10.9-20.6,52.6-95.4,52.6-95.4s19.9-37.1,5.9-49.7c-2.3-1.2-7.5-2.8-13.6-4.3
				c0.5,0.4,0.9,0.7,1.2,0.9c7.4,7.4,6.4,20.1,1.4,29.3c-5,9.2-13.1,16.3-19.6,24.5c-7.4,9.3-12.8,20.1-15.8,31.6
				c-1.7,6.4-2.5,12.9-4.2,19.3c-4.4,17.6-14.3,33.8-27.8,45.9c-5.3,4.7-11.2,8.8-15.3,14.5c-5.5,7.6-7.5,17.5-14.2,24
				c-5.8,5.6-14.2,7.7-20.7,12.3c18.5-3,34.7-8.3,34.7-8.3S1411.6,1437.3,1422.5,1416.7z"/>
		</g>
	</g>
	<g>
		<g>
			<path fill="#FFFFFF" d="M1653.9,1268.3c-9.2-10.1-48.6-18.8-66.4-31.2l-3.6,9.2c0,0,26.5,6.6,51.6,27.4c12.1,10,10.4,39,0.7,66.4
				c-16.6,47.1-1.6,72.9-12.6,88.7c-8.2,11.7-43.7,18.7-34.9,17c0.6-0.1,38.1-1.8,38.8-2c7.1-3.2,12.6-8.9,14.8-18.9
				c6.2-27.3,5.3-77.8,5.3-77.8S1664,1279.2,1653.9,1268.3z"/>
		</g>
	</g>
	<g>
		<g>
			<path fill="#FFFFFF" d="M1009,1297.4c0,0-4.7,57.3-13.4,64s-21.3,12.2-21.3,12.2s-49,1-48.4-12.2c0.6-13.2,8.1-23.9,28-16.5
				c0,0,5.1-6.8,7.2-67.6c2.1-60.8-2.5-152.7-2.5-152.7l14.3-0.6l55.6,34.4L1009,1297.4z"/>
		</g>
	</g>
	<g>
		<g>
			<path fill="#FFFFFF" d="M1234.7,935.4c43.1,3.5,86.2,7.2,129.3,10.5l32.3,2.4c10.8,0.7,21.5,1.6,32.3,2.2
				c21.5,1.5,43.1,2.7,64.6,3.8l16.2,0.7l8.1,0.4c2.7,0.1,5.4,0.2,8,0.2c10.7,0.2,21.4,0.1,32.1-0.7c10.7-0.7,21.3-1.8,31.9-3.5
				c10.6-1.7,21-3.9,31.4-6.6c10.3-2.7,20.5-6,30.5-9.9c10-3.8,19.8-8.1,29.4-13.1c19.1-9.7,37.2-21.7,54-35.3
				c-15.6,15-33.2,27.9-52.1,38.8c-9.5,5.4-19.3,10.2-29.3,14.5c-10,4.3-20.4,7.9-30.8,11c-10.5,3.1-21.1,5.6-31.9,7.5
				c-10.8,1.9-21.6,3.3-32.5,4.2c-10.9,0.8-21.8,1-32.7,0.9c-2.7-0.1-5.5-0.1-8.2-0.2l-8.1-0.3c-5.4-0.2-10.8-0.4-16.2-0.7
				c-43.2-2.3-86.4-5.7-129.4-10.2c-21.5-2.2-43-4.7-64.5-7.4C1277.5,941.7,1256.1,938.9,1234.7,935.4z"/>
		</g>
	</g>
	<path fill="#1A1A1A" d="M1753.5,874.5c-2.7-2.8-6.9-3.2-10.1-0.9c-19,14-38.3,26.3-57.2,36.5c-83.5,45.1-158.5,40.5-194.6,38.3
		c-217.8-13.4-347.6-28.8-351.3-29.3c-28.4-4.9-81.1-13.9-111.8-46.7c-9.3-9.9-17.3-23.4-25.7-37.6c-18.5-31.3-39.5-66.7-83-79.8
		c-41.9-12.6-78,0.9-109.9,12.8c-16.5,6.2-32.1,12-47,13.8c-30.7,3.7-77.9-1.9-103.7-5.6c0.3-6.3-4.2-12.8-11.6-15.9
		c-8.9-3.7-18.6-0.9-21.6,6.3c-2.9,6.9,1.4,15.3,9.6,19.2c-0.4,5.2-0.4,12.1,1.1,20.1c5.4,29.7,26.3,51.5,42.8,64.6
		c56.4,44.7,162.5,73,163.5,73.2c0.2,0.1,0.4,0.1,0.6,0.1c-6.6,26.8-10.9,53.7-7.8,76.3c4.3,31.6,24.3,44,35.9,48.6
		c-0.1,0.1-0.2,0.3-0.3,0.4c-3.1,5.5-77.2,135.2-81.1,155.3c-4.3,22.3,40.3,81.5,52.6,93.5c11.8,11.5,42.4,22,56.5,22
		c2.5,0,4.5-0.3,5.7-1c4.7-2.6,7.8-11.1,9.2-18.1c1.1-5.7,2.8-20.1-5-29.8c-10.1-12.4-17.5-16.8-37.8-14.1
		c-9.9-21.8-19.8-45.8-20.2-50.1c1.8-4,19.7-25.7,43.9-51c31.8-33.1,48.8-45.6,54.2-46.3c1.1-0.1,2.4-0.3,3.8-0.4
		c0.8-0.1,1.6-0.2,2.5-0.3c3.1,29.6,5,134.9-0.4,184.1c-1.2,10.7-3.3,19.9-5.3,26.9c-3.9-1.4-10.8-3-16.9,0.3
		c-6.1,3.3-9.5,10.5-10.3,21.4c-0.2,2.3,0.6,5.6,5,8.5c6,4,18,6.3,30.5,6.3c10.9,0,22.2-1.8,30-5.8c16.5-8.5,18.5-29,20.1-45.4
		c0.1-1.3,0.2-2.5,0.4-3.7c3.5-33.5,6.6-56.8,13.2-99.4c4.4-28.1,7.7-50.7,8.9-59.3c11.9,6.1,24.5,11.8,36.9,16.2
		c72.4,25.6,129,34.3,164.3,37.1c0.6,15.5,4.4,28.7,11.4,39.6c33.6,52.8,91.3,52.7,122.3,52.7c1.8,0,3.5,0,5.1,0
		c13.7,0.1,23.8,3.7,29.8,10.8c6.3,7.4,8.4,18.6,6.2,33.4c-2.1,14-24.5,55.4-58.3,73.2c-0.1-0.1-0.3-0.3-0.4-0.4
		c-0.8-0.6-19.6-14.6-33.3-9c-8.9,3.6-17.6,12.9-21,22.4c-2.7,7.5-2.3,15,1.3,21.6c5.7,10.5,23.7,12.9,37.8,13.1c0.5,0,1,0,1.6,0
		c15.2,0,32.6-2.4,45-6.2c18.5-5.7,40.3-33.6,64.8-83c8.5-17.2,15.9-30,21.8-40.3c4.8-8.3,8.5-14.9,11.4-21
		c10.5-22.7,18.8-47,1.2-55.4c-4.7-2.2-17.5-5.3-32.3-8.8c-18.4-4.4-41.4-9.9-46.9-13.8c-1.7-1.2-3.1-2.4-4.4-3.6
		c-2.9-3.6-5.6-9.8-5.2-20.3c0.5-11,3.2-18,5.4-21.9c2-3.7,4-5.4,4.5-5.8c0.8-0.4,1.7-0.9,2.7-1.4c5.4-2.8,14.1-7.2,24.4-13.3
		c5.1,13.5,24.6,60.5,56,80.4c17.4,11,38.5,17.4,57.1,23c20,6,37.3,11.2,44.9,20.3c14.9,17.7,18,58.6,9,74c-2.3,4-4.6,7.7-6.8,11.2
		c-2.3,3.7-4.4,7.1-6.4,10.6c-6.2,1.4-31.9,8-32.6,25.3c-0.4,9.5,3.4,16.1,11.5,20.3c6.8,3.5,16.6,5.4,31.9,6
		c4.4,0.2,8.8,0.3,12.9,0.3c19.7,0,35.3-3.1,40.3-18.3c4.6-13.9,4.7-30,4.9-56.7c0-4.4,0.1-9.1,0.1-14.1c0.2-16.9,3.3-34.5,6-50
		c2-11.2,3.7-20.9,3.7-27.7c0.1-14.8-10.1-24.6-31.5-30.1l-20.7-7.8c-15.1-7.3-32.2-19.3-42.3-36.6c-12.9-22.2-27.7-54.5-26.5-108.2
		c0.9-42.9-15.8-79.3-20.8-89c0.7,0,1.4,0,2.2,0c45.8,0,97.9-18.1,155.7-54.2c33.5-20.9,60.9-51,78-72.5
		C1756.4,881.5,1756.2,877.3,1753.5,874.5z M1016.2,1220.8c-6.6,42.7-9.7,66-13.2,99.7c-0.1,1.2-0.2,2.5-0.4,3.7
		c-1.5,15-3.3,33.7-16.9,40.7c-0.7,0.3-1.4,0.7-2.2,1c2.7-4.6,4.4-11.9,2.3-23.2c-23.3-125.7-4.9-196.1-1.5-207.4
		c9.9,6.4,24.5,15.5,41.1,24.3C1024.5,1165.8,1021,1190,1016.2,1220.8z M1749.3,880.8c-16.8,21.1-43.7,50.7-76.5,71.1
		c-73.9,46.2-138.2,62.5-191.1,48.4c-1.6-0.4-3.2,0.5-3.7,2.1c-0.4,1.6,0.5,3.2,2.1,3.7c10,2.7,20.4,4.3,31.1,4.8
		c0.1,0.2,0.1,0.4,0.3,0.6c0.2,0.4,22.4,40.8,21.4,88.5c-0.7,33.3,4.2,61.5,15.7,88.2c0,0.3,0,0.7,0,1c0.4,1.8,9.8,43.8,26,56
		c15.5,11.6,48.4,13.1,52.4,13.2c18.4,4.8,26.9,12.5,26.8,24.2c-0.1,6.3-1.7,15.8-3.7,26.7c-2.6,14.9-5.9,33.5-6.1,50.9
		c-0.1,5-0.1,9.7-0.1,14.1c-0.2,26.1-0.4,41.8-4.6,54.9c-4.3,13.2-19.3,15-47.2,13.8c-32-1.3-38.2-8.7-37.7-20.1
		c0.4-9.5,13.6-15.6,22.9-18.4c-2,4.3-3.5,8.7-4.2,13.3c-0.3,1.6,0.9,3.2,2.5,3.4c0.2,0,0.3,0,0.5,0c1.5,0,2.7-1.1,3-2.5
		c1.5-9.5,6.8-18,13.5-28.8c2.2-3.6,4.5-7.3,6.9-11.3c5-8.6,7-23.5,5.3-39.8c-1.8-17-7.2-32-14.9-41.1
		c-8.8-10.4-26.8-15.9-47.8-22.2c-18.3-5.5-39-11.7-55.7-22.3c-2.4-1.5-4.7-3.2-7-5.1c14-11.1,6.1-29,0.2-42.2
		c-2.7-6.1-5.2-11.8-5.6-16.1c-0.6-6.4,5.1-11.2,11.6-16.8c6.8-5.8,14.5-12.4,16-22.3c2.2-14.1-6.1-20.6-11.5-23.3
		c5.4-6.3,10.3-12.9,14.5-20c0.8-1.4,0.4-3.3-1-4.1c-1.4-0.8-3.3-0.4-4.1,1c-13,21.7-32.8,39.6-51.9,53.2l-20.6,13.3
		c-0.1,0.1-0.2,0.1-0.2,0.2c-0.2,0.1-0.3,0.3-0.4,0.4c-11.1,6.7-20.6,11.5-26.3,14.4c-1.1,0.6-2,1-2.8,1.4
		c-1.6,0.6-11.6,4.1-21.8,9.1c-15.7,7.7-23.5,14.8-23.7,21.7c-0.8,18.1,42.5,31.2,47.4,32.7c0.2,0.1,0.4,0.1,0.6,0.1
		c8.9,4,27.5,8.5,45.6,12.8c13.9,3.3,27,6.5,31.1,8.4c10.2,4.9,9,19.1-4.1,47.5c-2.7,5.8-6.4,12.3-11.1,20.5
		c-6,10.4-13.4,23.3-22,40.6c-23.4,47.1-44.5,74.7-61.2,79.9c-22.6,7-69.8,10.1-77.3-4c-2.8-5.1-3.1-10.7-0.9-16.7
		c3.2-9,11.3-16.3,17.6-18.8c7.6-3.1,19.3,2.9,25.3,6.8c-3.2,1.3-6.4,2.4-9.8,3.3c-1.6,0.4-2.6,2-2.2,3.7c0.3,1.4,1.6,2.3,2.9,2.3
		c0.2,0,0.5,0,0.7-0.1c24.7-6.4,43.7-25.1,55.2-39.7c13.6-17.3,22.2-35.5,23.5-44.6c2.5-16.6-0.1-29.4-7.6-38.2
		c-7.3-8.5-18.8-12.8-34.4-12.9c-1.6,0-3.4,0-5.2,0c-29.8,0-85.4,0.1-117.3-49.9c-33.4-52.3,24.1-153,24.7-154
		c0.8-1.4,0.3-3.3-1.1-4.1c-1.4-0.8-3.3-0.3-4.1,1.1c-0.2,0.3-15.1,26.3-25.6,58.7c-6.8,20.9-10.2,39.6-10.4,55.9
		c-35-2.8-90.8-11.4-162.3-36.7c-37.5-13.3-77-38.9-90.4-48.1c25.4-5.2,58.3-17.3,79.8-48.5c0.9-1.4,0.6-3.2-0.8-4.2
		c-1.4-0.9-3.2-0.6-4.2,0.8c-28.8,41.8-79.9,47.4-101.8,49.8c-1.4,0.2-2.7,0.3-3.9,0.4c-6.1,0.7-21.4,9.9-59.1,49.4
		c-10.8,11.3-21.9,23.6-30.4,33.7c-13.8,16.3-13.9,18.4-13.9,19.6c-0.2,5.7,13.8,37.7,20.1,51.6c-1.3,0.2-2.6,0.5-4,0.7
		c-1.6,0.3-2.7,1.9-2.4,3.5c0.3,1.6,1.9,2.7,3.5,2.4c26.9-5.2,32.6-1.5,42.2,10.3c4.3,5.4,5.7,14.7,3.8,24.9
		c-1.6,8.1-4.6,13.1-6.2,14c-4.5,2.5-41.4-6.6-55.1-20c-14-13.6-54.3-70.2-50.9-88c3-15.3,53.9-107.1,80.4-153.5
		c0.3-0.5,0.4-1,0.4-1.6c5.6,1.6,11.3,2.4,16.9,2.4c10.9,0,21.1-2.9,28-8.6c32.9-27.1,48.6-83.2,56.1-125.5
		c9.8-55.7,7.6-102.6,7.5-103.1c-0.1-1.7-1.5-2.9-3.1-2.8c-1.7,0.1-2.9,1.5-2.8,3.1c0,0.5,2.2,46.7-7.5,101.7
		c-7.3,41.3-22.5,96-54,121.9c-11.2,9.2-30.7,8.8-44.1,3.5c-10.4-4.1-28.4-15.2-32.3-43.8c-5-37,10.7-87.4,23.3-128
		c5-16.1,9.8-31.4,12.4-43.4c6.7-30.6-0.9-68-1.2-69.6c-0.3-1.6-1.9-2.7-3.5-2.3c-1.6,0.3-2.7,1.9-2.3,3.5
		c0.1,0.4,7.7,37.7,1.2,67.1c-2.6,11.7-7.3,26.8-12.3,42.9c-4.7,15.2-9.9,31.8-14.3,48.6c-0.2-0.1-0.4-0.2-0.5-0.2
		c-1.1-0.3-105.9-28.3-161.3-72.1c-28.3-22.4-37.7-45.3-40.6-60.6c-1.3-6.9-1.4-12.8-1.1-17.5c6.5,1.1,12.7-1.1,15.8-5.7
		c25.8,3.8,74.1,9.7,106.3,5.8c15.7-1.9,31.6-7.8,48.4-14.1c32.5-12.2,66.1-24.7,106.1-12.7c41.3,12.4,61.6,46.8,79.5,77.1
		c8.6,14.6,16.7,28.3,26.5,38.7c32.1,34.2,86.2,43.5,115.2,48.5c0,0,0.1,0,0.1,0c1.3,0.2,131.6,15.8,351.8,29.3
		c24.7,1.5,52,2.3,84-1.9c39.9-5.3,78.2-17.8,113.8-37.1c19.2-10.4,38.7-22.8,57.9-36.9c1-0.7,1.8-0.2,2.2,0.2
		C1749.5,878.9,1750.1,879.8,1749.3,880.8z"/>
	<path fill="#1A1A1A" d="M809.5,803.5c-9.2-2.1-18.2-2.7-25.4-1.7c-8.1,1.2-13.2,4.4-14.3,9.1c-2.4,10.2,14.9,20.1,32.3,24.1
		c6,1.4,12.2,2.1,17.9,2.1c11,0,20.2-2.8,21.7-9.6c0,0,0,0,0,0C844.3,817.4,827,807.5,809.5,803.5z M836,826.2
		c-0.9,4-14,7.2-32.4,2.9c-2.6-0.6-5-1.3-7.3-2c9.6-0.2,16.6-2.8,17.6-7.3c0.8-3.4-1.9-7.2-6.8-10.8c0.4,0.1,0.7,0.2,1.1,0.2
		C826.6,813.6,837,822.2,836,826.2z"/>
	<g>
		<g>
			<path fill="#1A1A1A" d="M811.4,782.8c0.8-0.4,1.4-0.6,2.1-0.9c0.7-0.3,1.4-0.5,2.1-0.7c1.4-0.5,2.8-0.8,4.2-1.1
				c2.9-0.6,5.9-0.9,9-0.8c3.1,0.1,6.4,0.8,9.5,2l2.3,1c0.8,0.4,1.5,0.9,2.2,1.3l1.1,0.7l1,0.8l2,1.7c3,2.5,3.4,7,0.9,9.9
				c-2.5,3-7,3.4-9.9,0.9c-0.4-0.3-0.7-0.6-1-1l-0.4-0.5c-0.3-0.3-0.5-0.7-0.8-1.1l-0.4-0.6l-0.5-0.5c-0.3-0.3-0.6-0.7-1-1
				c-0.4-0.3-0.7-0.5-1.1-0.8c-1.5-1-3.3-1.9-5.4-2.5c-2.1-0.5-4.3-0.8-6.6-0.8c-1.2,0-2.3,0-3.5,0.2c-0.6,0-1.2,0.1-1.8,0.2
				c-0.6,0.1-1.2,0.2-1.6,0.3l-0.4,0.1c-1.9,0.3-3.8-0.9-4.2-2.9C809,785.1,809.9,783.5,811.4,782.8z"/>
		</g>
	</g>
</g>
<g>
	<g>
		<g>
			<g>
				<path fill="#FFFFFF" d="M349.8,1207l-58-79.3l30,114c0,0-48-70.7-69.3-92s-30.7-29.3-30.7-29.3l46,110c0,0-30-36-56.7-60
					s-80-48-80-48l67.3,97.3c0,0,38.7,70.7,44.7,90.7c0,0-42.7-33.3-84-38.7c0,0,46.7,46,56.7,60s17.3,39.3,17.3,39.3
					s-18-17.3-29.3-22l-2.7,21.3c0,0-12.7-43.3-44.7-52.7c0,0,24,36,25.3,54h172.7L349.8,1207z"/>
			</g>
		</g>
		<path fill="#1A1A1A" d="M354.4,1370.1l-2-70.4c0.3-0.7,0.3-1.6,0-2.4c0-0.1,0-0.1-0.1-0.2l-2.5-88.6c1-1,1.1-2.6,0.3-3.7l-59-87
			c-0.8-1.2-2.4-1.7-3.7-1c-1.3,0.6-2,2.1-1.6,3.5l30.2,108.4c-0.2-0.3-0.4-0.6-0.6-0.9c-3.8-6-7.6-11.8-11.5-17.4
			c0.2-0.6,0.2-1.2,0-1.9c-8.7-25.7-20.7-52.8-32.1-76.2c1-1.3,1.6-3.2,2.1-5.1c1.4-5.3,2.4-13.9,2.5-21.4c0.3-15.1-3-17-4.2-17.8
			c-1-0.6-3.5-1.6-6.5,1.3c-2.2,2-4.1,12-3.9,22.8c-8.2-15.9-15.2-28.7-19.3-36c2.8-3,3.4-7.6,1-11.2l-13.8-20.9
			c-2.7-4.1-8.3-5.3-12.5-2.5c-4.1,2.7-5.3,8.3-2.5,12.5l13.8,20.9c1.9,2.9,5.3,4.4,8.6,4c9.7,17.2,36.9,67,55.3,115.4
			c-36.3-49.1-70.3-79.7-70.7-80c-1-0.9-2.6-1-3.8-0.2c-1.1,0.8-1.6,2.3-1,3.6l43.1,100.2c-26-31.7-52.2-53.9-72.6-68.5
			c-34.4-24.5-59.6-33.3-60.7-33.7c-1.3-0.4-2.7,0-3.5,1.2c-0.8,1.1-0.7,2.6,0.2,3.6c0.3,0.3,29.3,34.2,60,82
			c17.5,27.2,37.9,62.5,53.1,99.8c-36.6-29.1-78.6-34.5-80.5-34.8c-1.3-0.2-2.6,0.6-3.1,1.8c-0.5,1.2-0.1,2.7,0.9,3.5
			c0.6,0.5,54.8,43.4,73.9,87.3c-10-9.4-24.1-15.4-24.9-15.8c-0.9-0.4-2-0.3-2.8,0.3c-0.8,0.6-1.3,1.5-1.3,2.5v7.4
			c-15.1-30.9-45.3-44.2-46.8-44.8c-1.3-0.5-2.8-0.1-3.6,1c-0.8,1.1-0.7,2.7,0.2,3.7c0.3,0.3,29.3,33.3,31.2,55h-22.1
			c-8.6-25-19-47.6-28.6-65.9c0.2-0.1,0.3-0.2,0.4-0.3c3-2.4,3.4-6.4,3.5-8.6c0-0.5,0.2-1.4,0.4-2.5c1.1-6.8,1.7-12.2-1.3-14.4
			c-0.9-0.6-2.7-1.5-5.4-0.1c-4.3,2.3-4.8,8-4.3,13.3c-6.9-12.5-13-22.1-16.8-27.9c2.5-3,2.9-7.4,0.6-10.7l-13.8-20.9
			c-2.7-4.1-8.3-5.3-12.5-2.5c-4.1,2.7-5.3,8.3-2.5,12.5l13.8,20.9c2.1,3.1,5.8,4.5,9.2,3.9c5.2,7.9,14.7,23.3,25.1,43.6
			c-3.2-2.2-6.2-3.1-8.4-2.7c-2,0.3-3.4,1.6-3.8,3.3c-0.2,0.9,0.1,1.8,0.7,2.5c0,0.1,4.9,5.6,9.9,11c7.8,8.3,11,11,13.3,11
			c0.1,0,0.2,0,0.3,0c4.8,10.8,9.5,22.4,13.7,34.6h-30.5c-1.7,0-3,1.3-3,3s1.3,3,3,3h112.7c0,0,0,0,0,0c0,0,0,0,0,0h119.3
			c1.7,0,3-1.3,3-3C355.6,1371.5,355.1,1370.6,354.4,1370.1z M268.6,1123.1c-2.1-11.4-0.4-24.5,0.9-28.7
			C271.1,1099.6,270.2,1114.6,268.6,1123.1z M185.6,1369.5c-1.1-15-13.3-34-22.5-46.3c11.9,8.3,28.3,23.3,34.9,46.3H185.6z
			 M321.4,1173.2l-7.3,26.8l-17.7-63.6L321.4,1173.2z M228.2,1128.9c16.3,16.2,48.7,50.9,78.8,97.1l-11.5,42.6
			c-6.8-11.4-13.8-22-20.9-31.8c0-0.2-0.1-0.4-0.2-0.5L228.2,1128.9z M204.6,1369.5v-17.6c6.2,3.1,17.6,9.6,23.5,17.6H204.6z
			 M237.5,1369.5c-6-20.7-21.3-44.1-45.4-69.4c-9.8-10.2-19.1-18.7-25.6-24.4c16.5,3.9,48.1,14,74.1,38c0.1,0.1,0.3,0.2,0.4,0.3
			c6.8,18.4,12.2,37.1,15.2,55.5H237.5z M188.4,1199.2c-21.4-33.3-42-59.9-52.8-73.2c10.5,4.8,27.8,13.8,48.2,28.3
			c30.4,21.7,73.6,60.4,109.5,122.5l-25.1,92.7h-5.9C252.6,1308.5,216.8,1243.3,188.4,1199.2z"/>
	</g>
	<g>
		<path fill="#FFFFFF" d="M345.4,1291.9c-1.1,0-2.2-0.6-2.7-1.7c-3.9-8.5-8.1-17-12.7-25.5c-6-11.2-12.6-22.5-19.7-33.6
			c-0.9-1.4-0.5-3.3,0.9-4.1c1.4-0.9,3.3-0.5,4.1,0.9c7.2,11.2,13.9,22.7,19.9,34c4.6,8.6,8.9,17.3,12.9,25.9c0.7,1.5,0,3.3-1.5,4
			C346.2,1291.8,345.8,1291.9,345.4,1291.9z"/>
	</g>
	<g>
		<path fill="#FFFFFF" d="M333.7,1362.5c-1.3,0-2.4-0.8-2.8-2c-4.2-12.5-9-24.8-14-36.6c-6.3-14.6-13.3-28.8-20.8-42.2
			c-0.8-1.4-0.3-3.3,1.2-4.1c1.4-0.8,3.3-0.3,4.1,1.2c7.6,13.6,14.7,28,21.1,42.8c5.1,12,9.9,24.4,14.2,37.1
			c0.5,1.6-0.3,3.3-1.9,3.8C334.4,1362.5,334.1,1362.5,333.7,1362.5z"/>
	</g>
</g>
<g>
	<g>
		<path fill="#1A1A1A" d="M1171.4,926.1c0,0-56.3,31.4-77,121c-10.5,45.5-2,127.5,24.5,142.5l-57-18.5c0,0-2-118.5,0.5-128
			s8.1-55.7,38-90.2c27.5-31.8,40-30.2,40-30.2L1171.4,926.1z"/>
	</g>
	<g>
		<polygon fill="#FECE2F" points="1242.4,472.6 928.4,857.6 931.4,938.6 1239.7,555.9 		"/>
	</g>
	<g>
		<path fill="#FECE2F" d="M1234.4,1371.1l-172,0.1v-310.5c0-90.7,74.2-165,165-165h0c0,0,7-331.8,7-331.8l-291,358.8l-1,449l292,0.5
			V1371.1z"/>
	</g>
	<g>
		<polygon fill="#FECE2F" points="341.4,880.6 354.4,1371.6 973.4,1371.6 955.4,888.6 913.4,870.6 		"/>
	</g>
	<path fill="#1A1A1A" d="M1396.9,1369.5H814.6l-9-347.2l134.8,25.3l3.2-123.1l-12.2,17.6l-16.8-2.5l1-72.5l-569.1,22.9
		c-0.1-1.6-1.4-2.9-3-2.9c0,0,0,0-0.1,0c-1.7,0-3,1.4-2.9,3.1l9,481.3c0,0.1,0,0.3,0.1,0.4c0,0.2-0.1,0.3-0.1,0.5c0,1.7,1.3,3,3,3
		h1044.3c1.7,0,3-1.3,3-3S1398.6,1369.5,1396.9,1369.5z M796.9,1020.7l3.2,348.9H669.3l-7-374.1L796.9,1020.7z M650.4,993.1l7,376.4
		h-144L505.9,966L650.4,993.1z M347.5,936.2l147.4,27.7l7.5,405.6H355.6L347.5,936.2z"/>
	<g>
		<rect x="940.1" y="924.5" fill="#FFFFFF" width="7" height="447"/>
	</g>
	<g>
		<polygon fill="#FECE2F" points="1222.4,477.6 660.4,505.6 331.4,875.6 930.4,860.1 1165.4,581.6 		"/>
	</g>
	<g>
		<path fill="#FFFFFF" d="M1223.3,477l-505.7,26.9l-57.1,1.7L543.3,637.4l12.5-11l411.3-19.7l88.2-67.9l-435.9,14.8l14.7-12.9
			l447.1-21.9l26.4-20.3c60.3-2.3,101.8-3.9,101.8-3.9L1223.3,477z"/>
		<polygon fill="#FFFFFF" points="469.6,720.2 472.8,717.4 846.8,699.4 942.1,625.9 541.6,639.3 		"/>
		<polygon fill="#FFFFFF" points="331.4,875.6 621.6,872.7 701,811.6 382.6,818.1 		"/>
		<polygon fill="#FFFFFF" points="383,817.6 397.1,805.3 724,793.8 822.7,717.9 460.7,730.2 		"/>
	</g>
	<g>
		<polygon fill="#FFFFFF" points="1242.4,472.6 1228.9,471.6 915.9,858.1 913.9,940.1 931.4,938.6 930.4,860.1 1062.9,693.1 		"/>
	</g>
	<g>
		<circle fill="#FECE2F" cx="423.6" cy="929.5" r="9"/>
	</g>
	<g>
		<circle fill="#FECE2F" cx="579.4" cy="925.3" r="9"/>
	</g>
	<g>
		<circle fill="#FECE2F" cx="739.1" cy="933.2" r="9"/>
	</g>
	<g>
		<circle fill="#FECE2F" cx="865.3" cy="918.4" r="9"/>
	</g>
	<g>
		<circle fill="#1A1A1A" cx="880.7" cy="1326.4" r="9"/>
	</g>
	<g>
		<circle fill="#1A1A1A" cx="729.4" cy="1338.5" r="8"/>
	</g>
	<g>
		<circle fill="#1A1A1A" cx="591.1" cy="1342" r="9.9"/>
	</g>
	<g>
		<circle fill="#1A1A1A" cx="427.9" cy="1339.6" r="7.7"/>
	</g>
	<g>
		<path fill="#1A1A1A" d="M1243.6,540.6c-1.7,0-3-1.3-3-3v-44c0-1.7,1.3-3,3-3s3,1.3,3,3v44C1246.6,539.3,1245.3,540.6,1243.6,540.6
			z"/>
	</g>
	<g>
		
			<ellipse transform="matrix(0.871 -0.4912 0.4912 0.871 -272.9175 642.2372)" fill="#1A1A1A" cx="1086.7" cy="840.9" rx="15.2" ry="8.2"/>
	</g>
	<g>
		<ellipse fill="#1A1A1A" cx="1225.4" cy="735.1" rx="8" ry="9.5"/>
	</g>
	<g>
		<path fill="#FFFFFF" d="M496.4,890.6l0.5,15l0.4,15l0.8,29.9l1.3,59.9c0.9,39.9,1.4,79.8,2,119.8l0.6,59.9
			c0.1,20,0.4,39.9,0.4,59.9l0.2,59.9l-0.1,29.9l0,15l-0.1,15l-0.6-15l-0.5-15l-1.1-29.9l-1.8-59.9c-0.6-20-1.1-39.9-1.6-59.9
			l-1.4-59.9c-0.8-39.9-1.6-79.8-2-119.7l-0.7-59.9l-0.2-29.9l-0.1-15l0-15c0-1.1,0.9-2,2-2C495.5,888.7,496.4,889.5,496.4,890.6z"
			/>
	</g>
	<g>
		<path fill="#FFFFFF" d="M651.9,885.6l0.5,15.1l0.4,15.1l0.8,30.2l1.2,60.5c0.8,40.3,1.3,80.7,1.8,121l0.6,60.5
			c0.1,20.2,0.3,40.3,0.3,60.5l0.2,60.5l-0.1,30.3l0,15.1l-0.1,15.1l-0.6-15.1l-0.5-15.1l-1-30.2l-1.8-60.5
			c-0.6-20.2-1-40.3-1.6-60.5l-1.3-60.5c-0.8-40.3-1.5-80.7-2-121l-0.7-60.5l-0.2-30.3l-0.1-15.1l0-15.1c0-1.2,1-2.2,2.2-2.2
			C650.9,883.5,651.9,884.4,651.9,885.6z"/>
	</g>
	<g>
		<path fill="#FFFFFF" d="M797.9,882.1c0.5,20.3,0.7,40.6,1.1,60.9l0.7,60.9c0.3,20.3,0.3,40.6,0.5,60.9l0.4,60.9l0.1,60.9
			c0,20.3,0.1,40.6,0,60.9l-0.2,60.9c-0.2,20.3-0.3,40.6-0.6,60.9c-0.7-20.3-1.2-40.6-1.7-60.9l-1.4-60.9
			c-0.5-20.3-0.8-40.6-1.2-60.9l-1.1-60.9l-0.8-60.9c-0.2-20.3-0.6-40.6-0.7-60.9l-0.5-60.9c0-20.3-0.2-40.6-0.1-60.9
			c0-1.5,1.2-2.7,2.7-2.7C796.7,879.5,797.9,880.7,797.9,882.1z"/>
	</g>
	<g>
		<path fill="#1A1A1A" d="M945.7,528c0.1,0,0.1,0,0.2,0l46-2.4c1.7-0.1,2.9-1.5,2.8-3.2c-0.1-1.7-1.5-2.9-3.2-2.8l-46,2.4
			c-1.7,0.1-2.9,1.5-2.8,3.2C942.8,526.8,944.1,528,945.7,528z"/>
		<path fill="#1A1A1A" d="M941.6,608.9c0,0,0.1,0,0.1,0l172.3-6.8c1.7-0.1,2.9-1.5,2.9-3.1c-0.1-1.7-1.5-3-3.1-2.9l-172.3,6.8
			c-1.7,0.1-2.9,1.5-2.9,3.1C938.7,607.6,940,608.9,941.6,608.9z"/>
		<path fill="#1A1A1A" d="M863.7,613c0.1,0,0.1,0,0.2,0l46-2.4c1.7-0.1,2.9-1.5,2.8-3.2c-0.1-1.7-1.5-2.9-3.2-2.8l-46,2.4
			c-1.7,0.1-2.9,1.5-2.8,3.2C860.8,611.8,862.1,613,863.7,613z"/>
		<path fill="#1A1A1A" d="M1011.9,688c-0.1-1.7-1.4-2.9-3.1-2.9L864,691c-1.7,0.1-2.9,1.5-2.9,3.1c0.1,1.6,1.4,2.9,3,2.9
			c0,0,0.1,0,0.1,0l144.8-5.9C1010.7,691,1012,689.6,1011.9,688z"/>
		<path fill="#1A1A1A" d="M780.6,698c-0.1-1.7-1.5-2.9-3.1-2.8l-26.5,1.3c-1.7,0.1-2.9,1.5-2.8,3.1c0.1,1.6,1.4,2.9,3,2.9
			c0.1,0,0.1,0,0.2,0l26.5-1.3C779.4,701.1,780.7,699.7,780.6,698z"/>
		<path fill="#1A1A1A" d="M797,700.4c0.1,0,0.1,0,0.2,0l16.2-0.9c1.7-0.1,2.9-1.5,2.8-3.2c-0.1-1.7-1.5-2.9-3.2-2.8l-16.2,0.9
			c-1.7,0.1-2.9,1.5-2.8,3.2C794.1,699.2,795.4,700.4,797,700.4z"/>
		<path fill="#1A1A1A" d="M843,784.1l-67.6,2.5c-1.7,0.1-2.9,1.5-2.9,3.1c0.1,1.6,1.4,2.9,3,2.9c0,0,0.1,0,0.1,0l67.6-2.5
			c1.7-0.1,2.9-1.5,2.9-3.1C846.1,785.3,844.7,784,843,784.1z"/>
		<path fill="#1A1A1A" d="M921.8,787.6c1.7-0.1,2.9-1.5,2.9-3.1c-0.1-1.7-1.5-2.9-3.1-2.9l-46.1,1.9c-1.7,0.1-2.9,1.5-2.9,3.1
			c0.1,1.6,1.4,2.9,3,2.9c0,0,0.1,0,0.1,0L921.8,787.6z"/>
		<path fill="#1A1A1A" d="M688.9,789.7l-26.5,1c-1.7,0.1-2.9,1.5-2.9,3.1c0.1,1.6,1.4,2.9,3,2.9c0,0,0.1,0,0.1,0l26.5-1
			c1.7-0.1,2.9-1.5,2.9-3.1C692,790.9,690.6,789.6,688.9,789.7z"/>
		<path fill="#1A1A1A" d="M724.4,788.5l-16.2,0.7c-1.7,0.1-2.9,1.5-2.9,3.1c0.1,1.6,1.4,2.9,3,2.9c0,0,0.1,0,0.1,0l16.2-0.7
			c1.7-0.1,2.9-1.5,2.9-3.1S726.1,788.4,724.4,788.5z"/>
		<path fill="#1A1A1A" d="M1340.1,936.9c-26.6-25.4-60.2-41.1-96.1-45.2v-325h-6v127.9c-0.7-0.1-1.4,0-2.1,0.4l-1.8,1.2
			c-8.6,5.5-18.3,11.7-23.8,20.2c-6.7,10.4-8.1,22.8-3.5,32.3c1.2,2.6,2.9,4.8,4.4,7c0.8,1.1,1.5,2.1,2.2,3.2
			c3.1,4.7,5.2,10.1,6.2,15.6c0.5,2.9,0.8,5.9,1,9c0.3,4,0.6,8.1,1.6,12.2c1.8,7.2,6.8,15.6,15.4,17.5c0.1,0,0.3,0,0.4,0v77.7
			c-4.3-0.3-8.7-0.5-13.1-0.5c-8.5,0-16.9,0.6-25.2,1.9c0.3-13.3,0.6-27.7,1-42.1c0.4-15.9,0.7-31.9,1.1-46.4
			c0.1-5.9,0.3-12.6-2.4-18.8c-3-6.6-8.6-11-14-15.2c-3.1-2.5-6.1-4.8-8.6-7.5c-8-8.8-10.7-22.6-7.1-36
			c3.1-11.3,10.4-22.2,21.7-32.5c1.1-1,2.3-2,3.4-3.1c5.2-4.5,10.5-9.2,14-15.6c4-7.2,4.8-15.6,5.3-22.8c1.5-22.1,1.1-38.7-1.5-57.1
			l30.6-38c1-1.3,0.8-3.2-0.5-4.2c-1.3-1-3.2-0.8-4.2,0.5l-148.1,183.7l-0.2,0c0,0.1,0,0.2,0,0.3L933.1,932.7v-72.9l312.8-387.7
			c0,0,0.1-0.1,0.1-0.1c0.1-0.1,0.1-0.2,0.2-0.3c0-0.1,0.1-0.2,0.1-0.2c0-0.1,0.1-0.2,0.1-0.3c0-0.1,0.1-0.2,0.1-0.3
			c0-0.1,0-0.2,0.1-0.3c0-0.1,0-0.2,0-0.3c0-0.1,0-0.1,0-0.2c0,0,0-0.1,0-0.1c0-0.1,0-0.2,0-0.3c0-0.1,0-0.2-0.1-0.3
			c0-0.1-0.1-0.2-0.1-0.3c0-0.1-0.1-0.2-0.1-0.3c0-0.1-0.1-0.1-0.1-0.2c-0.1-0.1-0.1-0.2-0.2-0.3c0-0.1-0.1-0.1-0.2-0.2
			c-0.1-0.1-0.2-0.2-0.3-0.3c0,0,0,0-0.1-0.1c0,0-0.1,0-0.1-0.1c-0.1-0.1-0.2-0.1-0.3-0.2c-0.1,0-0.1-0.1-0.2-0.1
			c-0.1,0-0.2-0.1-0.3-0.1c-0.1,0-0.2-0.1-0.3-0.1c-0.1,0-0.2,0-0.3-0.1c-0.1,0-0.2,0-0.3,0c-0.1,0-0.1,0-0.2,0l-15.3,0.5
			c-0.9,0-1.7,0.4-2.2,1.1l-4.3,5.3l-560.2,29.8c-0.8,0-1.5,0.4-2.1,1l-333,369.8c0,0-0.1,0.1-0.1,0.2c-0.1,0.1-0.1,0.2-0.2,0.3
			c0,0.1-0.1,0.2-0.1,0.2c0,0.1-0.1,0.2-0.1,0.3c0,0.1-0.1,0.2-0.1,0.3c0,0.1-0.1,0.2-0.1,0.3c0,0.1,0,0.2,0,0.3c0,0.1,0,0.1,0,0.2
			v12.9c0,0.8,0.3,1.6,0.9,2.2c0.6,0.5,1.3,0.8,2.1,0.8c0,0,0.1,0,0.1,0L911.6,875v66.2c0,1.7,1.3,3,3,3h15.5c0.2,0,0.4,0,0.6-0.1
			c0.1,0,0.1,0,0.1,0c0.2,0,0.3-0.1,0.4-0.2c0.1,0,0.1-0.1,0.2-0.1c0.1-0.1,0.2-0.1,0.3-0.2c0.1,0,0.1-0.1,0.2-0.2
			c0.1-0.1,0.2-0.2,0.3-0.3c0,0,0.1-0.1,0.1-0.1l107.2-132.9v139.7c-9.4-4.2-10.5-16.6-11.8-29.7c-1.4-15-3-32-20.3-32.8
			c-10.5-0.4-23,15.3-25,41.4c-2.2,28.9,4.6,52.3,11.2,74.9c5.6,19.1,10.8,37,10.5,57.3c-0.4,25.2-10.7,49.4-20.6,72.8
			c-3.1,7.3-6.3,14.8-9.2,22.3c-11.1,28.9-19.8,69.7,1.4,100c2.9,4.1,6.2,7.8,9.5,11.5c3.6,4,7,7.8,9.8,12.1
			c12.8,19.3,12.1,62.2,3.5,88.7c-0.5,1.6,0.3,3.3,1.9,3.8c0.3,0.1,0.6,0.1,0.9,0.1c1.3,0,2.4-0.8,2.9-2.1
			c4.4-13.4,6.9-31.5,6.6-48.4c-0.2-13.7-2.2-32.7-10.8-45.5c-3.1-4.6-6.8-8.8-10.3-12.7c-3.1-3.5-6.3-7.1-9-10.9
			c-19.7-28.1-11.3-66.8-0.7-94.4c2.8-7.4,6-14.8,9.1-22.1c10.2-23.9,20.6-48.6,21.1-75c0.4-21.2-5-39.6-10.7-59.1
			c-6.4-22.1-13.1-45-11-72.8c1.8-22.7,12.1-36.2,18.8-35.9c11.5,0.5,13,10.7,14.6,27.4c1.4,14.6,2.9,31,17.7,35.5v151.4
			c-13.5,8-24.1,21-29.9,36.8c-6.1,16.6-6.2,34.2-0.2,49.5c0.7,1.8,1.5,3.6,2.2,5.3c2.3,5.3,4.5,10.3,4.5,15.6
			c0,2.1-0.3,4.3-0.7,6.7c-0.4,2.4-0.8,4.9-0.8,7.5c0,6.3,2.8,12.7,7.7,17.5c4.8,4.7,11,7.4,17.2,7.4v119.2h6V802.7l43.5-53.9
			c-1.4,15.7-1.3,31.6,0.4,47.4c0.7,6.3,2.1,13.3,7.9,16.9c2.4,1.5,5,2,7.4,2.5c1.3,0.3,2.5,0.5,3.7,0.9c4.9,1.7,7.2,5.7,8.2,8.8
			c2.4,7.2,0.9,17-3.6,23.9c-3.7,5.6-8.5,10.3-13.6,15.2c-5.4,5.3-11.1,10.7-15.2,17.3c-6.5,10.4-8.6,22.3-10.5,34.6
			c-4.3,28.9-5.9,60.9-6.7,87c-6,17.3-9.1,35.5-9.1,54.3v315c0,1.9,1.6,3.5,3.5,3.5s3.5-1.6,3.5-3.5v-315c0-16.2,2.4-32.1,7.1-47.2
			l0.8,0c0-0.9,0-1.7,0.1-2.6c7.7-23.5,21-45.1,39.1-63.2c30.3-30.3,70.4-47,113-47c41.2,0,80.3,15.8,110.3,44.4
			c1.4,1.3,3.6,1.3,4.9-0.1C1341.5,940.4,1341.5,938.2,1340.1,936.9z M398.1,804c0.3,0.1,0.6,0.2,1,0.2c0,0,0.1,0,0.1,0l239.4-6.8
			c1.7,0,3-1.4,2.9-3.1c0-1.7-1.4-3-3.1-2.9l-235,6.7l77-85.5c0.4,0.1,0.7,0.2,1.1,0.2c0,0,0.1,0,0.1,0l245.6-9.3
			c1.7-0.1,2.9-1.5,2.9-3.1s-1.4-2.9-3.1-2.9l-241.3,9.2l72.3-80.2c0.5,0.3,1,0.4,1.5,0.4c0,0,0.1,0,0.1,0l245.1-10.6
			c1.7-0.1,2.9-1.5,2.9-3.1c-0.1-1.7-1.5-2.9-3.1-2.9l-241.3,10.5l71.4-79.3c0.4,0.3,1,0.4,1.5,0.4c0,0,0.1,0,0.1,0l250.6-10.6
			c1.7-0.1,2.9-1.5,2.9-3.1c-0.1-1.7-1.5-2.9-3.1-2.9l-246.8,10.5l23.2-25.8l553.6-29.4l-25.5,31.7c-0.6-0.6-1.4-0.9-2.3-0.9
			l-165.3,6.8c-1.7,0.1-2.9,1.5-2.9,3.1c0.1,1.6,1.4,2.9,3,2.9c0,0,0.1,0,0.1,0l163.2-6.7L913.8,855.8c-0.1,0.1-0.1,0.2-0.2,0.3
			l-578,17.4L398.1,804z M927.1,938.2h-9.5V862h9.5V938.2z M928.4,856h-7.1l303.8-376.7c0.4-0.3,0.6-0.6,0.8-1l3.8-4.7l7.4-0.2
			L928.4,856z M1039.6,1247.9c-4.6-0.1-9.3-2.1-13-5.7c-3.8-3.7-5.9-8.5-5.9-13.3c0-2.1,0.3-4.3,0.7-6.6c0.4-2.5,0.8-5,0.8-7.6
			c0-6.5-2.6-12.3-5-17.9c-0.7-1.7-1.5-3.4-2.1-5.1c-5.4-14-5.3-30,0.3-45.3c4.9-13.3,13.4-24.4,24.3-31.8V1247.9z M1145.3,910.8
			c-13.9,7.6-26.8,17.2-38.3,28.8c-14,14-25.2,30-33.4,47.3c1-21.7,2.7-47.1,6-69.8c1.7-11.7,3.8-22.9,9.6-32.3
			c3.8-6,8.9-11,14.3-16.2c5.1-4.9,10.4-10.1,14.5-16.2c5.6-8.5,7.3-20.2,4.3-29.1c-2.1-6.2-6.2-10.5-11.9-12.5
			c-1.5-0.5-3-0.8-4.4-1.1c-2-0.4-4-0.8-5.4-1.7c-3.6-2.2-4.6-7.6-5.1-12.5c-1.9-18.4-1.7-37,0.6-55.3l49.3-61.1V910.8z
			 M1195.7,803.8c-0.4,14.5-0.7,30.5-1.1,46.4c-0.3,14.8-0.7,29.6-1,43.3c-14.7,2.8-29,7.6-42.4,14.2V671.6l56.1-69.6
			c1.9,15.8,2.1,30.8,0.7,50.2c-0.5,6.6-1.2,14.2-4.6,20.4c-2.9,5.4-7.7,9.5-12.7,13.9c-1.2,1-2.4,2.1-3.5,3.1
			c-12.1,11.1-20,23-23.4,35.3c-4.2,15.3-1,31.2,8.4,41.6c2.8,3.1,6.1,5.7,9.3,8.2c5.1,4,9.8,7.7,12.2,13
			C1196,792.5,1195.9,798.5,1195.7,803.8z M1238,807.2c-5.4-1.7-8.7-7.9-9.9-12.9c-0.9-3.6-1.2-7.3-1.5-11.3
			c-0.2-3.1-0.5-6.4-1.1-9.6c-1.1-6.3-3.6-12.5-7.1-17.8c-0.8-1.2-1.6-2.3-2.3-3.4c-1.5-2.1-2.9-4.1-3.9-6.2
			c-2.9-6-3.6-16.1,3.1-26.4c4.8-7.5,14-13.3,22-18.4l0.7-0.5V807.2z"/>
	</g>
	<g>
		<path fill="#FECE2F" d="M912.4,869l-583.9,17.6c-1.7,0-3,1.4-2.9,3.1c0,1.6,1.4,2.9,3,2.9c0,0,0.1,0,0.1,0L912.4,875V869z"/>
	</g>
</g>
</svg>
