<?xml version="1.0" encoding="utf-8"?>
<!-- Generator: Adobe Illustrator 21.0.0, SVG Export Plug-In . SVG Version: 6.00 Build 0)  -->
<svg version="1.1" baseProfile="tiny" xmlns="http://www.w3.org/2000/svg" xmlns:xlink="http://www.w3.org/1999/xlink" x="0px"
	 y="0px" viewBox="0 0 2000 2000" xml:space="preserve">
<g id="Layer_3_1_">
	<g id="Layer_5">
		<path fill="#FECE2F" d="M644.1,1873.8c-558.3-91-714.2-669-370.4-1016.6c313.1-316.6,150.6-563.5,664.6-595.9
			c455-28.7,914.2,522,1001.2,989.6C2058.5,1889.3,1344.4,1988,644.1,1873.8z"/>
	</g>
</g>
<g id="Layer_1">
	<g>
		<path fill="#1A1A1A" d="M1150.2,49.3C1079.4,38.1,985.3,32,885.2,32s-194.2,6.2-265,17.3c-50.9,8-111.5,22.1-111.5,43.9
			s60.6,35.9,111.5,43.9c70.8,11.2,164.9,17.3,265,17.3c100,0,194.1-6.1,265-17.3c50.9-8,111.5-22.1,111.5-43.9
			S1201.1,57.3,1150.2,49.3z"/>
		<path fill="#1A1A1A" d="M1883.4,567.8c-19.5-10.6-47.3-4.1-82.5,19.3c-33.3,22.2-72.1,58.6-115.4,108.2
			c-88.8,101.8-186.7,248-275.7,411.8c-88.9,163.8-158.3,325.5-195.4,455.4c-18,63.3-27.4,115.6-27.9,155.6
			c-0.5,42.3,9.2,69.1,28.7,79.7c6,3.3,12.9,4.9,20.5,4.9c16.9,0,37.7-8.1,62-24.2c33.3-22.2,72.1-58.6,115.4-108.2
			c88.8-101.8,186.7-248,275.7-411.8c88.9-163.8,158.3-325.5,195.4-455.4c18-63.3,27.4-115.6,27.9-155.6
			C1912.6,605.2,1902.9,578.4,1883.4,567.8z"/>
		<path fill="#FECE2F" d="M1269.1,1189.7c52,54.7,90.1,115.3,98.7,176s-8,163.4-14.7,208.7c-6.3,42.9-36.2,171.5-39.3,184.9
			c28.2-22,60-53.2,94.8-93c88.5-101.5,186.2-247.3,274.9-410.7c77.4-142.4,139.9-283.1,179.1-402.7
			c-13.1-2.7-120.1-25.3-230.9-65.9c-103.8-38.1-207.9-93.7-281.3-142.3c-157-104-270-278-316-371C990.7,185.3,970.5,51,968.6,37.9
			c-26.5-0.9-54.4-1.4-83.5-1.4c-84,0-157.6,4.2-216.7,10.9c0,1.2,0.4,25.1,10.1,144.3c10,122.7,45.3,206,65.3,286.7
			c20,80.7,94.7,210,138,286s177.3,226,177.3,226S1217.1,1135,1269.1,1189.7z"/>
		<g>
			<path fill="#FECE2F" d="M1036.5,40.8l-67.9-4c0,0,11.9,106.3,48.4,197.8s118.5,218,194.5,296s213.5,166,290,203
				S1726,836,1862.7,852.8l21.2-68.3c0,0-85-20.2-119.8-33.2l-24.4,30l0.6-38.2c0,0-146.2-56.2-162.2-67.1l-32.4,38.9l8.6-50.5
				c0,0-159-80.2-222.3-133l-43.8,29.2l24.6-44.6c0,0-95.7-85.4-120.1-124.9l-59,16.8l39.3-43.7c0,0-63.8-92.7-93.8-175.2
				S1036.5,40.8,1036.5,40.8z"/>
		</g>
		<g>
			<g>
				<path fill="#FFFFFF" d="M1739.4,781.3l0.6-38.2c0,0-146.2-56.2-162.2-67.1l-32.4,38.9l8.6-50.5c0,0-159-80.2-222.3-133
					l-32.3,19.2c31,27.8,64.7,55.9,102,82c142.1,99.5,309.3,155.2,473.9,179.6l8.6-27.7c0,0-85.1-20.2-120-33.2L1739.4,781.3z"/>
			</g>
			<g>
				<path fill="#FFFFFF" d="M1078.9,189.1c-30-82.5-42.4-148.3-42.4-148.3l7.9,40.3c-4,48.5,37,195.5,114,298.5l14.3-15.3
					C1172.7,364.3,1108.9,271.6,1078.9,189.1z"/>
			</g>
			<g>
				<path fill="#FFFFFF" d="M1294.4,543.6l18.1-27.6c0,0-95.7-85.4-120.1-124.9l-29,7.5C1200.9,449.7,1239.6,494.1,1294.4,543.6z"/>
			</g>
		</g>
		<g>
			<path fill="#FFFFFF" d="M1241.1,557.6l-17.3,26.4c-14.6,22.2-9.1,51.9,12.3,67.5l78.6,57.2c23.8,17.3,57.3,10.3,72.2-15
				l10.2-17.4c0,0-42-26-91.3-64.7S1241.1,557.6,1241.1,557.6z"/>
		</g>
		<g>
			<path fill="#FFFFFF" d="M1469,1592.1c-0.2,0-0.4-0.1-0.6-0.1c-11.2,0.2-21.3-5-27.7-14.2c-6.4-9.2-7.8-20.4-3.8-30.9l2-5.3
				c5.8-15.2,1.5-32.6-10.7-43.4l-6.5-5.7c-12.5-11-30.7-12.9-45.3-4.7l-13.2,8c-1.4,0.8-1.9,2.7-1,4.1c0.8,1.4,2.7,1.9,4.1,1
				l13.1-8c12.3-6.9,27.7-5.3,38.3,4l6.5,5.7c10.4,9.1,14,23.9,9.1,36.8l-2,5.3c-4.6,12.2-2.9,25.8,4.5,36.5
				c6.7,9.7,17.3,15.6,28.8,16.6L1469,1592.1z"/>
		</g>
		<g>
			<path fill="#FFFFFF" d="M821.1,657.6l44.6-47.2c11.3-12,31.1-9.7,39.3,4.6l72,125c5.9,10.2,3.7,23.2-5.2,30.9l0,0
				c-11.1,9.6-28,7.5-36.4-4.5l-30-42.9c-9.1-13-27.8-14.2-38.4-2.5l-6.6,7.2L821.1,657.6z"/>
		</g>
		<g>
			<path fill="#FFFFFF" d="M806.4,627.5c-0.2,0-0.4,0-0.6,0c-3-0.2-5.7-2.1-6.9-4.9l-33.2-75.5c-1.2-2.8-0.8-6.1,1.1-8.5L853.4,432
				c7.3-9,18.5-13.8,30-12.8c11.5,0.9,21.8,7.4,27.6,17.4c6.6,11.4,6.2,25.3-0.9,36.4l-96.7,150.7
				C811.9,626.1,809.2,627.5,806.4,627.5z M880.5,425.1c-8.8,0-16.8,3.8-22.4,10.7l-86.6,106.6l0,0c-0.5,0.7-0.7,1.5-0.3,2.3
				l33.2,75.5c0.5,1.1,1.5,1.3,1.9,1.3s1.4,0,2.1-1l96.7-150.7c5.9-9.2,6.2-20.7,0.7-30.2c-4.8-8.4-13.2-13.7-22.8-14.5
				C882.1,425.1,881.3,425.1,880.5,425.1z M769.2,540.5L769.2,540.5L769.2,540.5z"/>
		</g>
		<g>
			<path fill="#FFFFFF" d="M1484.8,934.8l-72.7,155.1c-9.1,19.5-34.4,24.6-50.4,10.2l-38-34.2c-14.3-12.9-18.8-33.5-11-51.1
				l7.9-18.2c7-16.1,27.3-21.4,41.3-10.8l3.6,2.7c12.4,9.4,30.2,5.4,37.5-8.3l40.3-76c7.3-13.8,26.1-16,36.5-4.3l0,0
				C1488.3,909.4,1490.2,923.2,1484.8,934.8z"/>
		</g>
		<g>
			<path fill="#FFFFFF" d="M1476,1197.7c-8.3,0-16.1-3.8-21.3-10.5l-17.8-23c-6.1-8-7.4-18.6-3.2-27.7l52.5-114.9l2.7,1.2l-2.7-1.2
				c3.3-7.1,9.4-12.5,17-14.7c7.5-2.2,15.6-1,22.2,3.2l68.9,44.5c11.2,7.2,15.4,21.3,10.1,33.4l-27.6,63.4
				c-3.2,7.4-9.5,12.9-17.3,15.2s-16,0.9-22.7-3.7c-5-3.4-11.2-4.5-17.1-3s-10.8,5.5-13.5,10.9l-5.9,11.9
				c-4.2,8.4-12.2,13.9-21.5,14.8C1477.8,1197.7,1476.9,1197.7,1476,1197.7z M1510.7,1011.9c-2,0-4,0.3-5.9,0.8
				c-5.9,1.7-10.7,5.9-13.2,11.4l-52.5,114.9c-3.2,7.1-2.3,15.4,2.5,21.6l17.8,23c4.4,5.7,11.4,8.8,18.6,8.1
				c7.2-0.7,13.5-5,16.7-11.5l5.9-11.9c3.5-7,9.8-12.1,17.4-14.1s15.6-0.5,22,3.9c5.2,3.6,11.6,4.6,17.7,2.9c6-1.7,10.9-6,13.5-11.8
				l27.6-63.4c4.1-9.5,0.8-20.4-7.8-26l-68.9-44.5C1518.7,1013,1514.7,1011.9,1510.7,1011.9z"/>
		</g>
		<g>
			<path fill="#1A1A1A" d="M1652.4,1317.6l-77.2-87.5c-16.2-18.4-45.6-15.6-58.2,5.4l0,0c-6.2,10.5-6.8,23.3-1.5,34.3l16.9,34.9
				c5,10.2,4.8,22.2-0.4,32.4l-65.9,127.7c-6.4,12.4-5.1,27.3,3.3,38.4l34.2,45.2c0,0,52-76.7,84.7-124.7
				C1621.1,1375.6,1652.4,1317.6,1652.4,1317.6z"/>
		</g>
		<g>
			<path fill="#1A1A1A" d="M1348.3,1191.5l-2.4,4.9c-5.4,11-4.1,24,3.4,33.7l37.9,49.4c11.4,14.9,15.9,34,12.4,52.4l-7.1,36.8
				c-2.1,10.9,1.6,22.1,9.7,29.6l0,0c16.9,15.7,44.4,9.1,52.2-12.6l25.1-69.5c6.4-17.7,2.8-37.5-9.5-51.8l-68.4-79.8
				C1386.5,1167.2,1358.4,1170.8,1348.3,1191.5z"/>
		</g>
		<g>
			<path fill="#1A1A1A" d="M1243.4,837.4l92.3,74.1c22,17.7,54.7,9.8,66.4-15.9l42.5-93.7c6.8-14.9,1.2-32.6-13-40.9l-8.4-4.9
				c-15.4-9.1-35.3-3.7-44.1,11.8l0,0c-9.3,16.3-30.6,21.2-46.1,10.6l-31.8-21.8c-14.7-10.1-34.9-6.3-44.8,8.6l-19.6,29.2
				C1227.5,808.4,1230.4,827,1243.4,837.4z"/>
		</g>
		<g>
			<path fill="#1A1A1A" d="M1124.4,823.3l-1.8,2.6c-8.8,12.3-6.8,29.3,4.6,39.3l123.3,108.1c13.2,11.5,33.4,9.2,43.5-5.1l0,0
				c8.6-12.2,6.8-28.8-4.2-38.9l-121.5-110.7C1155.3,806.8,1134.7,809,1124.4,823.3z"/>
		</g>
		<g>
			<path fill="#FFFFFF" d="M1177,779.7c-7.9,0-15.3-2.8-21.3-8.1l-60.9-54.2c-12.6-11.2-14.3-30.4-3.9-43.7l3.8-4.9
				c8-10.2,7.3-24.5-1.5-33.9l-41.3-43.9c-9.8-10.4-11.5-26.2-4.2-38.4c7.7-12.9,14.6-24.2,20.3-33.5l0,0
				c4.9-7.9,12.9-13.3,22.1-14.8s18.5,1.1,25.7,7l46.2,38.5c12.8,10.6,15.3,29,6,42.7c-7.2,10.5-5.7,24.5,3.4,33.4l61.6,59.9
				c12.1,11.8,13,31.1,1.9,43.9l-33.5,38.9c-5.7,6.6-13.5,10.5-22.2,11.1C1178.4,779.7,1177.7,779.7,1177,779.7z M1073.1,522.2
				c-5.7,9.2-12.5,20.5-20.2,33.4c-5.9,9.9-4.6,22.8,3.4,31.2l41.3,43.9c10.9,11.6,11.7,29.2,1.9,41.7l-3.8,4.9
				c-8.5,10.8-7.1,26.4,3.2,35.5l60.9,54.2c5.3,4.7,12,7,19,6.5s13.4-3.7,18-9l33.5-38.9c9-10.4,8.3-26.1-1.6-35.7l-61.6-59.9
				c-11.2-10.9-12.9-28.2-4.1-41.1c7.6-11.2,5.5-26.1-4.9-34.7l-46.2-38.5c-5.8-4.8-13.4-6.9-20.9-5.7
				C1083.7,511.4,1077.1,515.8,1073.1,522.2L1073.1,522.2z"/>
		</g>
		<g>
			<path fill="#1A1A1A" d="M980.3,590.7l-23,33.6c-5.8,8.6-6.2,19.7-1,28.7l82.6,141c8.2,14,26.8,17.5,39.5,7.6l0,0
				c10.3-8,13.3-22.4,7.1-33.9l-44-81.4c-4.5-8.3-4.3-18.3,0.5-26.4l6.3-10.6c5.6-9.4,4.9-21.3-1.8-30l-23-29.8
				C1012.5,575.1,990.6,575.7,980.3,590.7z"/>
		</g>
		<g>
			<path fill="#FFFFFF" d="M906.9,517.9l20.4-28.3c7.6-10.5,23.4-10.1,30.4,0.8l10.6,16.5c4.1,6.4,3.8,14.8-0.8,20.9l-22,29.4
				c-8.2,10.9-24.9,9.5-31.1-2.7l-8.9-17.6C902.4,530.8,902.9,523.5,906.9,517.9z"/>
		</g>
		<g>
			<path fill="#1A1A1A" d="M874,337.9l15.2,29.7c5.4,10.7,19.9,12.6,27.9,3.7l0,0c8.2-9,23-6.8,28.2,4.3l40.5,87.2
				c4.7,10.2,17.8,13.1,26.4,6l26.1-21.6c6.3-5.2,8-14.2,4.1-21.3l-90.1-166.4c-5.9-10.9-21.1-12.1-28.6-2.3l-48,62.5
				C871.7,325,871,332.1,874,337.9z"/>
		</g>
		<path fill="#1A1A1A" d="M1364.4,1339.5c-17.2-47.2-33.7-82.6-67.3-123.8c-33.2-40.7-83.3-87.1-158.6-153.5
			c-29.9-26.4-65-59.9-102.3-100.6l48.8-56.7c8.8-10.2,8.4-25.4-1-35.1l-23.8-24.7c-8.7-9-22.6-10.6-33.1-3.7
			c-10.7,7-25,5.2-33.6-4.3l-23.4-25.7c-8.9-9.7-23.7-11.3-34.5-3.6l-14.7,10.5c-22.8-32.5-45.4-67.5-67-105
			c-39.7-68.8-73.1-140.1-99.9-213.5l79.9-94.4c4-4.7,4.9-11.2,2.3-16.8l-7-15.3c-4.2-9.1-15.7-12.1-23.7-6.1
			c-8.7,6.4-21.1,2.4-24.4-7.9L756.8,283c-3-9.4-13.7-13.8-22.4-9.2l-37.6,19.9c-11.4-58.8-19-118.8-22.8-179.8
			c16.2-5.8,96-31,137.6-44.2c15.4-4.9,26.3-18.6,27.5-34.7l-98,3.3l-69.7,8.6c-0.2-1.5-1.5-2.6-3-2.6c-1.7,0-3,1.3-3,3
			c4,240,65.6,465.1,183.3,668.8c95.6,165.6,208.2,282,285.8,350.4c75.1,66.2,125,112.4,157.9,152.8c33.1,40.4,49.3,75.4,66.3,122
			c35.3,97-47.3,415.1-48.1,418.3c-0.5,1.6,0.5,3.3,2.1,3.7c0.3,0.1,0.5,0.1,0.8,0.1c1.3,0,2.6-0.8,2.9-2.1
			c0.3-0.8,21.3-81.4,37.6-173.1C1376,1464.7,1379.5,1381.1,1364.4,1339.5z"/>
		<g>
			<path fill="#FFFFFF" d="M707.5,160.3l8.5,55.5c1.9,12.6,15,20.2,26.9,15.6l20.5-7.9c10.9-4.2,23.1,1.9,26.3,13.1l15.8,55.3
				c3.7,13,19.1,18.6,30.3,11l15.6-10.5c6.6-4.5,9.9-12.5,8.4-20.4l-29.6-149.9c-2.4-12.1-15-19.1-26.6-14.8l-83.5,31.4
				C711.4,141.9,706.1,151,707.5,160.3z"/>
		</g>
		<path fill="#1A1A1A" d="M1864.6,850.2c-144.2-30.2-273.7-74.8-386.5-132.9l35.5-57.4c0.8-1.4,0.4-3.2-1-4.1
			c-1.4-0.8-3.2-0.4-4.1,1l-35.7,57.7c-36.7-19.1-71.6-39.6-104.6-61.6c-15.2-10.1-30.1-20.6-44.5-31.3l34.9-40.6
			c1.1-1.2,0.9-3.1-0.3-4.2c-1.2-1.1-3.1-1-4.2,0.3l-35.2,40.9c-38.3-28.8-73.9-59.7-106.5-92.7l35.5-33.5c1.2-1.1,1.2-3,0.1-4.2
			c-1.1-1.2-3-1.2-4.2-0.1l-35.5,33.6c-40.1-40.9-75.7-84.9-106.7-131.6c-14.8-22.3-27.9-44.3-39.5-65.8l31-15.5
			c1.4-0.7,2-2.5,1.3-4c-0.7-1.4-2.5-2-4-1.3l-31.1,15.6c-77.8-146.4-86.8-266.8-87.6-281.9c-0.1-1.6-1.6-2.9-3.2-2.8
			c-1.5,0.1-2.7,1.4-2.8,2.9l-102.5-2.4l41.3,170.1c4,16.5,21.2,26,37.2,20.7l61.3-20.2c19.4,55.5,48.9,120.4,93.5,187.8
			c57.7,87.1,131.5,164.6,219.9,230.9c0.2,0.4,0.4,0.7,0.8,1c0.5,0.4,1,0.6,1.5,0.7c15,11.2,30.4,22,46.2,32.5
			c40.1,26.7,82.9,51.3,128.3,73.8l-21.3,78.1c-5.8,21.4,4.1,43.9,23.8,54l3.4,1.7c9.1,4.6,20.1-0.1,22.9-9.9l28.4-97.4
			c8.1,3.5,16.2,7,24.4,10.4L1525,937.6c-3.9,13.3,1.6,27.5,13.4,34.7l47.6,29.1c15.5,9.4,35.7,3.5,43.6-12.8l27.6-57.2
			c6-12.6,2.9-27.6-7.8-36.6l-20.7-17.6c-8.8-7.4-12.6-19.2-10-30.3l13.2-56.2c18.3,6.7,36.9,13,55.8,19.1l-5.5,25.8
			c-3.4,15.7,4.9,31.5,19.7,37.7l8.4,3.6c12.9,5.4,19.2,20.1,14.3,33.2l-18.6,49.7c-8.7,23.3-2,49.6,16.9,65.8l53.5,46
			c0,0,44.5-89.5,66-154l20.6-61.7c0.1,0,0.2,0,0.3,0.1c0.2,0.1,0.4,0.1,0.6,0.1c1.4,0,2.7-0.9,3-2.3
			C1867.3,852.1,1866.2,850.5,1864.6,850.2z"/>
		<path fill="#1A1A1A" d="M1885.7,781.8c-0.4-0.1-45.8-8.4-120.8-33.4c-1.2-0.3-2.5,0-3.3,1l-19,23.3l0.5-29.5c0-1.3-0.8-2.5-2-2.9
			c-53.8-19-108.2-41.5-161.9-67c-1.2-0.6-2.7-0.3-3.6,0.8l-25.3,30.4l6.7-39.5c0.3-1.3-0.4-2.6-1.6-3.2
			c-54.2-26.8-107.8-56.7-159.2-89c-21.6-13.5-42.6-28.2-62.6-43.7c-1.1-0.8-2.5-0.9-3.6-0.1l-36.9,25.7l21.8-37.2
			c0.7-1.2,0.4-2.9-0.7-3.8c-44.2-36.5-84.4-78.4-119.7-124.4c-0.7-1-2-1.4-3.2-1.1l-48.9,14l32.3-35.9c0.9-1,1-2.6,0.2-3.7
			c-43.6-61.9-78.6-130.4-104.3-203.4c-20.4-58.3-28.8-102.5-31.4-118.8c-0.2-1.7-1.8-2.8-3.4-2.5c-1.7,0.2-2.8,1.8-2.5,3.4
			c1.2,7.4,3.5,20.3,7.6,37.6l-23.7,5.8c-1.6,0.4-2.6,2-2.2,3.6c0.3,1.4,1.6,2.3,2.9,2.3c0.3,0,0.5,0,0.7-0.1l23.7-5.8
			c5,20.7,12.3,46.8,22.7,76.5c2.4,6.8,4.9,13.5,7.4,20.2l-43.8,18.1c-1.5,0.6-2.2,2.4-1.6,3.9c0.5,1.2,1.6,1.9,2.8,1.9
			c0.3,0,0.7-0.1,1.1-0.3l43.6-18c24.4,63.1,56,122.6,94.1,177.1l-37.7,41.9c-0.9,1-1,2.5-0.3,3.6c0.7,1.1,2.1,1.7,3.4,1.3l57-16.3
			c8.4,10.8,17,21.4,25.9,31.8l-57.6,43.5c-1.3,1-1.6,2.9-0.6,4.2c0.6,0.8,1.5,1.2,2.4,1.2c0.6,0,1.3-0.2,1.8-0.6l57.9-43.7
			c27,30.9,56.3,59.7,87.6,85.7l-27.5,46.9c-0.7,1.2-0.4,2.7,0.6,3.7c1.1,1,2.6,1.1,3.8,0.3l46.2-32.4
			c19.6,15.1,40.2,29.5,61.3,42.7c15.8,9.9,31.8,19.6,48,29.1l-20.9,30.3c-0.9,1.4-0.6,3.3,0.8,4.2c0.5,0.3,1.1,0.5,1.7,0.5
			c1,0,1.9-0.5,2.5-1.3L1446,610c34.3,19.9,69.3,38.7,104.6,56.2l-8.2,48.3c-0.2,1.3,0.5,2.6,1.7,3.2c1.3,0.6,2.7,0.2,3.6-0.8
			l31-37.2c34.3,16.3,68.9,31.3,103.5,45l-16.6,47.3c-0.6,1.5,0.2,3.3,1.8,3.8c0.3,0.1,0.7,0.2,1,0.2c1.3,0,2.4-0.8,2.8-2l16.5-47.1
			c16.5,6.4,32.9,12.6,49.3,18.3l-0.6,36c0,1.3,0.8,2.5,2,2.9c1.2,0.5,2.6,0.1,3.4-0.9l23.1-28.4c74.3,24.7,119.3,32.9,119.7,33
			c0.1,0,0.3,0,0.5,0c1.4,0,2.7-1,3-2.5C1888.4,783.7,1887.3,782.1,1885.7,781.8z"/>
		<g>
			<path fill="#1A1A1A" d="M758.5,671.3c-1.1,0-2.2-0.6-2.7-1.7c-43.5-90.1-69-163.8-82.7-209.7c-14.9-49.9-19.5-78.9-19.6-79.1
				c-0.3-1.6,0.9-3.2,2.5-3.4c1.6-0.3,3.2,0.9,3.4,2.5c0,0.3,4.7,29,19.5,78.5c13.7,45.7,39,119,82.3,208.7c0.7,1.5,0.1,3.3-1.4,4
				C759.3,671.2,758.9,671.3,758.5,671.3z"/>
		</g>
		<g>
			<path fill="#1A1A1A" d="M1181.5,1847.5c-0.4,0-0.7-0.1-1.1-0.2c-26.9-10.6-45.3-31.4-54.9-61.7c-7.5-23.9-9.5-53.8-5.8-88.8
				c6.2-59.3,26.7-113.8,26.9-114.4c0.6-1.5,2.3-2.3,3.9-1.7c1.5,0.6,2.3,2.3,1.7,3.9c-0.2,0.5-20.5,54.4-26.6,113
				c-3.6,34.2-1.7,63.2,5.6,86.3c8.9,28.5,26.2,47.9,51.3,57.8c1.5,0.6,2.3,2.4,1.7,3.9C1183.8,1846.7,1182.7,1847.5,1181.5,1847.5z
				"/>
		</g>
		<g>
			<path fill="#1A1A1A" d="M1451.5,1688.4c-0.7,0-1.4-0.2-1.9-0.7c-1.3-1.1-1.4-3-0.4-4.2c134.6-160.9,225.2-309.6,277.5-405.9
				c56.7-104.4,81.8-171.6,82-172.3c0.6-1.6,2.3-2.3,3.9-1.8c1.6,0.6,2.3,2.3,1.8,3.9c-0.2,0.7-25.5,68.2-82.3,172.9
				c-52.4,96.6-143.2,245.7-278.2,407C1453.2,1688.1,1452.4,1688.4,1451.5,1688.4z"/>
		</g>
	</g>
</g>
<g id="Layer_2">
	<g id="Layer_3">
		<g>
			<g>
				<path fill="#FECE2F" d="M143.4,1787.6c0,0,37,114.8,41,110.7c4-4.2-1.5-48.7-1.5-48.7s37,63,41.5,58s-15-56.5-10.5-59
					s39,63.8,46.5,57.7c7.5-6.2-24.5-67.2-24.5-67.2s40.5,43.5,45,37s-24.7-53.3-24.7-53.3s29.7,16.8,37.7,1.3l-60-40.5l-17.5-21
					C216.4,1762.6,184.9,1795.1,143.4,1787.6z"/>
			</g>
			<g>
				<path fill="#FECE2F" d="M395.8,674.9c0,0,21.7-34.3,25.8-31c4.2,3.3-3.8,42.8-3.8,42.8S413.2,681.3,395.8,674.9z"/>
			</g>
			<g>
				<path fill="#FECE2F" d="M535.4,964.6c0,0-22,78-86,86.5s-90.5-16-103-45l31-15.5l-17.5-115l-33-30.5c0,0-73-23.5-71-28
					s5.5-65,5.5-65l18-43c0,0,57.5-38,96-36s60.5,27.5,69.5,47s18.5,43,15,78.5s-15,41.5-15,41.5l36.5,123.5
					C481.4,963.6,523.9,962.1,535.4,964.6z"/>
			</g>
			<g>
				<path fill="#FECE2F" d="M629.3,756.7c0,0-39.5-19.7-57.8-28.4s-45.7-18-46-14s37.3,26,36.7,28.7c-0.7,2.7-0.2,5.1-4.4,4
					c-4.2-1-40.9-12.4-53.2-13.7s-15.3,3.3-11.3,8s14.7,10,14.7,10s-31.2-7.2-31.6-0.9c-0.4,6.2,15.6,16.6,23.9,20.2s31,15,31,15
					s-25.7-3.7-26.7-4s-25.8-3.3-25.2,1.5c0.6,4.8,27.9,15.2,30.9,15.8c3,0.7,28.7,8.3,28.7,8.3s-26.3,4.3-30,6.7
					c-3.7,2.3-11.6,10.2-8,18.7l75.8-8.8l20.6,3L629.3,756.7z"/>
			</g>
			<path fill="#1A1A1A" d="M1116.8,1337.5c-9.5-27.8-84.5-22.2-145.7-12.6c-85.1,13.3-194.4,42.1-307.7,81.1
				s-217.1,83.5-292.4,125.4c-98.1,54.6-112.4,84.4-107.1,99.7c5.2,15.3,30.2,20.5,61.8,20.5c25.9,0,56.3-3.5,83.9-7.9
				c85.1-13.3,194.4-42.1,307.7-81.1s217.1-83.5,292.4-125.4C1107.8,1382.6,1122.1,1352.8,1116.8,1337.5z"/>
			<path fill="#FFFFFF" d="M986.9,987.5c-26.7-42-40-71.3-150.7-129.3S629.3,756.7,629.3,756.7l-32,70.2c0,0,60.6,24.8,125.9,60.8
				s102.7,82.7,91.3,112.7c-11.3,30-83.3,37.3-131.3,12.7c-48.1-24.8-114.8-46.1-147.8-48.5c0,0-12,68.3-81.3,84.3
				s-91.7-16.3-107.7-42.8c0,0-84,54.2-144.7,155.5c-60.7,101.3-87.3,203.3-90,334.7c-2.7,131.3,28.7,274,31.7,291.3
				c0,0,38.3,4,72.3-26.7c0,0-18-118,10.7-189.3s51.3-95.3,83.3-120l9.3-7.7c0,0,28,130.8,40.5,200.1c14.8-1.3,31.3-3.3,49.1-6
				c84.8-13.3,193.7-42,306.7-80.9c18.8-6.4,37.5-13.1,55.9-20c5.1-19,5.3-120.4,1.1-169.6l-6.5-47.9c0,0,54.5-6.1,117.8-38.1
				s102.7-80,118-129.3S1013.6,1029.5,986.9,987.5z"/>
			<g>
				
					<ellipse transform="matrix(0.4689 -0.8832 0.8832 0.4689 -451.5186 715.6893)" fill="#FFFFFF" cx="369.4" cy="733.3" rx="34.3" ry="15"/>
			</g>
			<path fill="#1A1A1A" d="M386.9,700.3c-9.1-4.8-23.4,5.7-33.4,24.5c-4.4,8.5-7.2,17.2-7.8,24.7c-0.7,8.3,1.5,14.2,6.2,16.7
				c1.5,0.8,3.1,1.2,4.8,1.2c8.8,0,20.3-9.9,28.6-25.7C395.3,722.9,396,705.1,386.9,700.3z M354.8,761c-2.4-1.3-3.5-5.4-3.1-11
				c0.5-6.6,3.1-14.6,7.2-22.3c0.8-1.5,1.6-2.9,2.4-4.2c-0.6,6.9,0.9,12.2,4.7,14.1c4.6,2.4,11.4-0.7,18.1-7.5
				c-1.1,2.9-2.4,5.9-4,8.9C371.7,754.8,359.8,763.7,354.8,761z"/>
			<g>
				<path fill="#1A1A1A" d="M552.9,803.1c-0.3,0-0.7-0.1-1-0.2c-1.6-0.6-2.4-2.3-1.8-3.8l18.5-52c0.6-1.6,2.3-2.4,3.8-1.8
					c1.6,0.6,2.4,2.3,1.8,3.8l-18.5,52C555.3,802.4,554.2,803.1,552.9,803.1z"/>
			</g>
			<g>
				
					<ellipse transform="matrix(5.387903e-02 -0.9985 0.9985 5.387903e-02 -365.7223 1152.2524)" fill="#1A1A1A" cx="425.2" cy="769.1" rx="30.5" ry="15.5"/>
				<path fill="#1A1A1A" d="M424.1,802.6c-0.2,0-0.4,0-0.6,0c-5.3-0.3-10-4.3-13-11.3c-2.8-6.3-4.1-14.6-3.6-23.2
					c1-18.8,10-33,20.3-32.5c5.3,0.3,10,4.3,13,11.3c2.8,6.3,4.1,14.6,3.6,23.2l0,0c-0.5,8.6-2.6,16.6-6.1,22.6
					C434,799.1,429.2,802.6,424.1,802.6z M426.5,741.7c-5.9,0-12.8,10.8-13.7,26.8c-0.4,7.7,0.7,14.9,3.1,20.4
					c2.1,4.8,5,7.6,7.9,7.7c0.1,0,0.2,0,0.3,0c2.8,0,5.9-2.5,8.4-6.8c3-5.2,4.9-12.3,5.3-20l0,0c0.4-7.7-0.7-14.9-3.1-20.4
					c-2.1-4.8-5-7.6-7.9-7.7C426.7,741.7,426.6,741.7,426.5,741.7z"/>
			</g>
			<g>
				<path fill="#FECE2F" d="M498.4,1584.6c-0.7,0-1.5-0.3-2.1-0.8c-1.2-1.1-1.2-3-0.1-4.2c90.1-93.8,136.5-163.7,159.6-205.7
					c29.1-53.1,30.9-79.7,27.2-84.3c-0.8-1.1-1.9-1.5-3.3-1.6h-0.1c-14.8,0-51.4,42.5-78.1,73.6c-32.3,37.6-43.3,49.4-49.6,45.4
					c-4.2-2.7-5.8-9.2,17.7-62.5c39.1-88.4,50-154,52.2-193.5c2.4-42.5-4.3-64.2-4.4-64.4c-0.5-1.6,0.4-3.3,1.9-3.8
					c1.6-0.5,3.3,0.4,3.8,1.9c0.3,0.9,7.1,23,4.6,66.6c-2.3,39.9-13.3,106.3-52.8,195.5c-17.6,39.8-20,51.3-19.8,54.6
					c6.2-2.7,25.7-25.4,41.6-43.8c30.5-35.5,65.1-75.7,82.7-75.7c0.1,0,0.1,0,0.2,0c3.2,0.1,5.9,1.4,7.9,3.8
					c8.2,10.3-2.5,46.8-26.7,91c-23.2,42.4-69.9,112.7-160.5,207C500,1584.3,499.2,1584.6,498.4,1584.6z"/>
			</g>
			<g>
				<path fill="#FECE2F" d="M273.5,1385.3c-2.2,0-4.3-0.6-6.3-2.1c-3.1-2.1-5.6-7.1,4-39.3c5.2-17.5,13.5-41.2,24.6-70.4
					c18.8-49.7,39.6-98.8,39.8-99.3c0.6-1.5,2.4-2.2,3.9-1.6s2.2,2.4,1.6,3.9c-0.2,0.5-20.2,47.8-38.7,96.4
					c-10.9,28.5-19.1,51.9-24.5,69.4c-9,29.3-7.7,35-7.2,36c8.3,5.3,24.6-17.8,39-38.2c17.7-25,36-50.9,52.2-47.5
					c1.6,0.3,2.7,1.9,2.3,3.5c-0.3,1.6-1.9,2.7-3.5,2.3c-12.4-2.6-30.3,22.8-46.1,45.1C299.1,1365.7,285.3,1385.3,273.5,1385.3z
					 M270.9,1378.5L270.9,1378.5L270.9,1378.5z"/>
			</g>
			<g>
				<path fill="#FECE2F" d="M143.3,1619.9c-4.8,0-7.1-6.5-8.8-12.9c-4.5-17.2-1.8-54.3,8-110.2c7.2-41.4,15.9-78.4,16-78.7
					c0.4-1.6,2-2.6,3.6-2.2s2.6,2,2.2,3.6c-0.3,1.5-34.2,146.7-24,186.1c1.4,5.3,2.5,7.3,3.1,8.1c1.2-1.3,4.5-6.6,8.9-28.4
					c2.8-13.8,4.6-27.1,4.6-27.3c0.2-1.6,1.7-2.8,3.4-2.6c1.6,0.2,2.8,1.7,2.6,3.4c0,0.1-2,14.8-5,29.3
					c-5.8,27.6-10.2,31.6-14.2,31.9C143.6,1619.9,143.5,1619.9,143.3,1619.9z M143.8,1614L143.8,1614L143.8,1614z"/>
			</g>
			<path fill="#1A1A1A" d="M1000.5,1008.5c-16.8-44.2-48.3-83.6-88.9-111.2c-87.5-59.4-266.1-136.9-280.3-143
				c-0.2-0.1-0.4-0.3-0.6-0.4c-0.3-0.2-23.7-11.9-48.1-23c-50.4-23-55.2-21.1-57.5-20.2c-1.1,0.5-2,1.3-2.4,2.4
				c-2,5.2,5.7,10.2,21.8,20c5.4,3.3,10.9,6.7,14.7,9.5l0.1,0.1c0.2,0.1,0.5,0.4,0.2,0.9c-0.3,0.6-0.7,0.4-0.9,0.4
				c-7.9-2.5-23.2-7.1-37.2-10.4c-24-5.7-30-4.5-31.9-0.7c-1,2.1-1.1,4.3-0.1,6.5s3.2,4.5,6.1,6.7c-8.5-1.6-15.6-2.1-19.1-0.3
				c-2,1.1-2.8,2.6-3.1,3.7c-2.2,8.1,12.7,17,45.1,32.3c-26.2-6.2-40-7.5-42.1,0.5c-0.3,0.8-0.3,2.1,0.6,3.6
				c3.9,6.3,29.1,15.4,51,21.2c-7.7,1.3-16.3,3.2-22.4,6c-4.9,2.3-7.9,5.5-9.1,9.5c-1.7,6.1,1.8,11.5,1.9,11.7
				c0.5,0.9,1.5,1.4,2.5,1.4c0.1,0,0.2,0,0.3-0.2l74.7-8.7c0.1,0,0.2,0.1,0.3,0.1c12.4,2.1,20,2.9,20.7,3
				c5.9,2.4,47.1,18.8,91.6,42.2c44,23.1,100.2,57.8,118.4,92c9.8,18.5,9.5,33.9-1,44.7c-10.9,11.2-32.4,16.8-59.1,15.4
				c-28.9-1.5-62.1-11-93.5-26.7c-51.5-25.8-95.5-34.5-123.4-37.2c-24-2.4-40.2-0.9-46.3-0.1l-35.6-120.5
				c8.5-12.7,13.6-25.2,15.2-37.3c3.1-23.4-0.4-50.7-9.3-73c-5.7-14-15.5-31.2-32-43.6c0.7-3.4,2.2-10.4,3.3-17.9
				c2.9-19.3,0.8-24-1.5-26.1c-1.1-1-2.6-1.5-4.2-1.2c-2.7,0.4-7.1,2.8-16.8,17.4c-4.1,6.1-7.5,12-8.9,14.3
				c-20.6-4.9-46.3-1.1-74.7,11.3c-23.6,10.2-40.5,22.5-41.2,23c-0.1,0.1-0.2,0.2-0.4,0.3c-2.8,0.2-5.7,0.7-8.6,1.4
				c-21.5,5-45.4,29-57.7,42.9c-18.4,20.6-33.7,44-39,59.5c-5,14.4-5.1,26-0.4,34.5c3.9,7,10.8,11.6,20.6,13.9
				c6.9,1.6,21.4,4.9,25,11.4c1,1.8,1.1,3.8,0.3,6.2c-0.8,2.3-2.2,5.3-3.7,8.5c-4.8,10.3-10.7,23.2-5.9,33.3
				c2.6,5.6,8.3,9.4,16.7,11.5c2.5,0.6,5,0.9,7.4,0.9c16.2,0,30.7-12.5,41.6-22c6-5.3,13.6-11.8,15.4-9.8c2.8,3.1,3.3,7.5,3.7,11.8
				c0.8,7.5,1.8,16.8,17.3,15.7c17.5-1.3,42-21.4,50.9-29.2l13,91.1c-7.1,2.5-28.2,11.1-57.8,34.6c-59.7,47.3-106.6,117.4-135.4,168
				c-45.1,80-69.6,178.7-72.9,293.3c-2,72.1,4.2,150.2,18.5,233c0,0.1,0,0.2,0,0.3c0,0.5,0.1,0.9,0.3,1.3
				c3.9,22.6,8.5,45.5,13.6,68.7c0,0.3,0,0.6,0.1,1c0.1,0.3,8.6,27.6,17.8,54.7c19.2,56.3,22.9,57.3,25.3,58c1.4,0.4,2.9,0,4-1
				c1.5-1.4,4.2-3.9,0.5-30.5c-0.3-2.6-0.7-5.1-1.1-7.6c2.7,4.7,5.9,10,9.2,15.4c19.4,31.6,24.2,32.7,26.3,33.2
				c0.3,0.1,0.7,0.1,1.1,0.1c1,0,1.8-0.3,2.8-0.9c4.9-3.4,2.1-14-5.9-39.2c-2-6.2-4.5-14-5.7-19.1c3.3,4.5,8.1,12.1,12.1,18.6
				c16.6,26.7,27.2,42.9,35.2,38.6c4.9-2.6,4.2-10.1-2.5-25.8c-4.7-11.2-11.5-24.3-17-34.8c17.9,20.2,29.3,31.2,36.8,31.2
				c1.1,0,2.2-0.3,3.2-0.8c0.8-0.4,1.9-1.3,2.3-3.1c0.9-3.8-1.1-12.8-21.5-46.5c3.6,1.3,8.2,2.7,13.9,3.9c2.2,0.5,4.1,0.7,5.9,0.7
				c9.1,0,12.9-5.5,13.7-9.1c0.3-1.2-0.2-2.4-1.2-3.1l-65.5-44.5c-0.1-0.1-0.2-0.1-0.3-0.1c-5.3-7.9-9.2-13.6-10.4-15.4
				c-1.2-7.7-14.9-102.5,3-168.9c15.3-56.6,46.3-103.8,94.6-143.7c4.4,22,24.6,121.7,40.4,197.3c0.3,1.4,1.5,2.4,2.9,2.4
				c0.2,0,0.4,0,0.6-0.1c1.6-0.4,2.6-2,2.3-3.6c-8.1-38.6-17.3-83.4-25-121c9.3-2.6,37.7-13.7,46.1-53.3c3.9-18.6-4-41,28-62
				c27-17.7,14.9-52.4,10.4-62.9c20.7-31.4,29.9-60.2,36.7-86.5c0.4-1.6-0.6-3.3-2.2-3.7c-1.7-0.4-3.3,0.6-3.7,2.2
				c-12.7,48.9-33.8,106.7-124.9,174.3c-58.2,43.3-94.9,95.3-112.1,159c-9.3,34.4-10.2,76.2-8.7,110c-26.7,12.1-65.2,13.4-75.7,13.6
				c-14.1-81.8-20.2-158.9-18.1-230.1c3.2-110,26.1-205.1,67.8-282.8c25.5,6.4,60.2-14.8,82.2-51.9c17.7-29.9,22.4-62,14.2-83.5
				c13-13.7,26.8-26.7,41.4-38.3c9.3-7.4,17.8-13.3,25.2-17.9c2.2,5,7.8,15.7,18.7,25.6c11.3,10.3,30.1,21.3,59.2,21.3
				c5.8,0,12-0.4,18.8-1.4c39.8-5.8,63.9-29.1,77.1-47.6c11.8-16.7,17.2-32.2,18.8-37.3c2.3,0.5,4.6,1,7,1.5
				c33.5,7.7,82.7,26.8,126.3,73.5c21.9,23.5,62.4,85.5,87.4,238.1c1.9,11.5,3.6,23.1,5.1,34.7c-0.3,0.5-0.4,1.1-0.3,1.7
				c0.1,0.6,0.4,1.2,0.8,1.6c10.8,83.1,12.4,166.6,3.8,216.4c-0.3,1.7,0.8,3.2,2.4,3.5c0.2,0,0.3,0,0.5,0c1.5,0,2.7-1,3-2.5
				c8.6-50.1,7.1-133.6-3.6-216.9c11.4-1.8,49.5-8.8,91.4-26.3c29.4-12.3,55.1-27.3,76.2-44.7c26.5-21.8,46-47.3,57.8-75.8
				C1018.7,1118.9,1020.5,1061.1,1000.5,1008.5z M290.1,1825c-1.3,1.7-4.4,3.6-11.5,2.1c-12.1-2.6-19.4-6.3-20.6-6.9
				c-1.6-2.5-3.2-5.2-5-8c-4.9-7.7-9.8-15.2-14.3-22.1L290.1,1825z M215.9,1766.9c4.8,7,18.6,27.4,32,48.6
				c27.7,43.7,30.9,55.2,31.1,58c-1.3-0.1-5-1.4-13.2-9.1c-7.2-6.8-15-15.6-21.2-22.7c-2.9-3.2-5.3-6-7.2-8
				c-2.4-2.5-4.7-4.9-7.2-3.2c-2.6,1.7-1.1,4.9,0.8,8.8c1.5,3,3.6,7.1,6.1,11.8c5,9.7,11.4,21.8,16,32.4c6.4,14.8,6.2,19,5.9,20
				c-0.9-0.2-3.8-1.7-10.7-11.1c-5.2-7.2-11.2-16.8-16.5-25.3c-12.9-20.7-16.4-25.5-20.3-25.1c-1.2,0.1-2.2,0.7-2.8,1.7
				c-2,3.2-0.1,10.1,5.9,29c3,9.4,8.2,26,8.1,31.5c-6.5-5.2-24.6-34-38.9-60c-0.8-1.3-2.3-1.9-3.7-1.4c-1.4,0.5-2.2,1.9-1.9,3.4
				c4,20.4,6.3,39.4,5.8,46.9c-5.5-9.8-18.8-45.6-36.3-101.8c1.5,0.1,3.3,0.2,5.3,0.2C165.6,1791.5,188.6,1787.9,215.9,1766.9z
				 M157.7,1719.2c20.2-2.2,37.2-6.1,50.5-11.7c1.4,27,4.3,47.8,5.1,53.7c-33.3,26.2-60.3,24.7-67.3,23.7
				c-4.8-21.7-9.1-43.2-12.8-64.3C138,1720.5,146.9,1720.2,157.7,1719.2z M419.9,646.6c1.7,3.6,0.2,18.8-3.5,35.5
				c-4.9-3.1-10.3-5.8-16.3-7.9c-0.1,0-0.3-0.1-0.4-0.1C407.7,660.1,416.5,648.2,419.9,646.6z M513.6,1004.5
				c-18.2,25.6-42.8,40.8-73.1,45.2c-30,4.4-54.5-1.7-72.7-18.2c-10.8-9.8-16.1-20.5-17.8-24.6c15.3-9.1,25.2-12.5,27.7-13.3
				c0,0,0,0,0,0c0.3-0.1,0.4-0.1,0.5-0.2c0.4-0.1,0.7-0.3,1-0.5c0,0,0.1-0.1,0.1-0.1c0,0,0.1-0.1,0.1-0.1c0.8-0.7,1.2-1.9,0.9-3
				c0-0.1-0.1-0.1-0.1-0.2L366,890c1.2-5.8,2.8-19.7-2.2-41.5c-3.8-16.7-10.5-24.5-15.4-28.1c-4.4-3.2-10.3-3.5-15.2-0.8
				c-20.5,11.4-28.3,6.6-30.2,4.9c-4.3-4-6.2-8.6-5.7-13.8c0.6-6.4,5-11.7,8.7-13.9c4-2.3,9.4-1.3,13.2,0c2.7,0.9,5.6,0.7,8.2-0.6
				c2.5-1.3,4.4-3.5,5.3-6.2c3.7-11.3,2.6-30-2.5-43.4c-2.5-6.7-8.5-19.5-19.5-28.8c-6.9-5.9-14.6-9.4-23-10.6
				c18-11.5,70.2-41.3,110.3-27.3c28.2,9.9,42.8,33.6,50.1,51.8c8.5,21.4,11.8,47.5,8.9,70c-5,38.1-48,71.6-52.9,75.2c0,0,0,0,0,0
				c-1,0.5-1.6,1.4-1.7,2.5c0,0.1,0,0.2,0,0.3c0,0,0,0,0,0.1c0,0.9,0.5,1.8,1.3,2.3l62.7,41.3l12.1,41c0.4,1.4,1.6,2.2,2.9,2.2
				c0.3,0,0.6,0,0.9-0.1c0.1,0,0.1,0,0.2-0.1c3.9-0.3,22.7-1.5,48.9,3.1C529.7,974.9,524.4,989.3,513.6,1004.5z M601.3,825.2
				l29.5-64.7c5.9,2.6,21.2,9.3,42.2,18.7l-30.9,63.5C622.6,833.9,607.5,827.7,601.3,825.2z M502.1,824.2c0.7-2.2,2.7-4.1,5.9-5.6
				c12.3-5.7,37.3-7.6,37.6-7.6c1.7-0.1,2.9-1.5,2.8-3.2c-0.1-1.7-1.5-2.9-3.2-2.8c-0.1,0-0.2,0-0.3,0c-0.3-0.3-0.7-0.4-1.2-0.5
				c-13.1-2.7-27.8-6.9-40.4-11.5c-12.9-4.7-18.7-8.1-20.5-9.7c1.2-0.5,4.7-1.3,14,0c9.3,1.3,20.3,4.1,29.2,6.3
				c12.8,3.2,14.5,3.5,16.2,2.4c0.7-0.5,1.3-1.2,1.4-2.1c0.4-2.7-2.1-4-5.9-5.9c-2.8-1.4-6.7-3.2-11.2-5.3
				c-9.7-4.5-21.6-10.1-31.4-15.6c-14.3-8.1-15.8-11.5-15.9-12.1c0.8-0.5,6.4-2.6,35.2,5.9c2.4,0.7,4.8,1.5,7.1,2.2
				c11.8,4.7,22.9,8,25.3,8.7c1.6,0.5,3.2-0.4,3.7-1.9c0.5-1.6-0.3-3.2-1.8-3.8c-4-1.4-14.2-5.2-25.9-8.9
				c-13.5-5.4-25.6-11.5-27.7-16.3c-0.2-0.4-0.2-0.8-0.2-1c3.9-1.4,24.7,2.2,62,13.8c3.2,1,6.5-0.4,8-3.3s0.8-6.4-1.8-8.4l-0.2-0.2
				c-4-3-9.7-6.4-15.2-9.8c-5.4-3.3-13.5-8.3-17.3-11.5c12.7,2.6,55.5,21.7,95,41.4l-30,65.7c-3.1-0.4-9.4-1.2-17.8-2.6
				c-0.4-0.2-0.9-0.2-1.4-0.2l-73.7,8.6C502,828.1,501.5,826.1,502.1,824.2z M989.6,1173.1c-8.1,19.4-19.8,37.4-35,53.8
				c-10.1-14.3-44.2,9.2-50.8-3.9c-6.6-13.4-20-24-61.3-14.7c-41.4,9.4-19.4-18-46.7-41.3c-22.5-19.2-51.5-12.2-60.9-9.1
				c-21.5-66.7-44.9-100.3-59.8-116.3c-34.7-37.2-72.9-57.3-104.2-68.1c23.4,5.6,50.4,14.7,79.7,29.4c36.5,18.2,74,27.6,104.6,27.6
				c2.4,0,4.7-0.1,6.9-0.2l48.2,21.4c5.7,2.5,12.2,0.1,14.6-5.7c2.3-5.4,8.2-8.3,13.7-6.6l31.2,9.6c10.1,3.1,22.8-2.8,29.9-14.3
				c9.1-14.4,6.1-32-7.5-36.5l-74.8-24.5c-1.3-4-3-8.2-5.3-12.4c-15.3-28.5-55.9-60.3-120.9-94.5c-15.3-8.1-30.3-15.3-43.6-21.5
				l30.8-63.5c62.6,28.5,168.6,79,229.7,120.5c39.6,26.9,70.4,65.3,86.7,108.3C1014.3,1061.7,1012.5,1117.9,989.6,1173.1z"/>
			<g>
				<path fill="#FECE2F" d="M939.1,1161.3c-0.6,0-1.2-0.2-1.7-0.5c-1.4-0.9-1.7-2.8-0.8-4.2c40.8-59.6,23.7-135.5,23.6-136.3
					c-0.4-1.6,0.6-3.2,2.2-3.6c1.6-0.4,3.2,0.6,3.6,2.2c0.2,0.8,4.6,20,3.8,47.1c-0.7,25-6.2,61.7-28.3,93.9
					C941,1160.8,940.1,1161.3,939.1,1161.3z"/>
			</g>
			<g>
				<path fill="#FECE2F" d="M251.4,740.1c-0.8,0-1.6-0.3-2.2-1c-1.1-1.2-1-3.1,0.2-4.2c13.2-12.1,26.8-14.1,35.9-13.8
					c9.9,0.4,16.7,3.7,17,3.8c1.5,0.7,2.1,2.5,1.4,4s-2.5,2.1-4,1.4l0,0c-1-0.5-24-11.3-46.2,9C252.9,739.9,252.2,740.1,251.4,740.1
					z"/>
			</g>
		</g>
	</g>
</g>
</svg>
