<?xml version="1.0" encoding="utf-8"?>
<!-- Generator: Adobe Illustrator 22.0.0, SVG Export Plug-In . SVG Version: 6.00 Build 0)  -->
<svg version="1.1" id="Layer_4" xmlns="http://www.w3.org/2000/svg" xmlns:xlink="http://www.w3.org/1999/xlink" x="0px" y="0px" viewBox="0 0 800 800" style="enable-background:new 0 0 800 800;" xml:space="preserve">

<circle cx="307.5" cy="311.6" r="247.5" style="fill:#FECE2F;"/>
<g>
	<ellipse cx="326.9" cy="477.7" rx="161.2" ry="93.1" style="fill:#FECE2F;"/>
</g>
<ellipse cx="446.4" cy="151.5" rx="79.8" ry="81.5" style="fill:#FFFFFF;"/>
<g>
	<g>
		<path d="M650.2,404l38.7,52.3l-18.8,10.3l-23.8-7.4l-21.3,8.6l22.8-1.1l32,10.2l23.8,0.9l28.7,44l-13.6,14l-13.6,12.5
			l-14.4,8.6c0,0-18.1,0.2-17.5,0.6s12.9,9.7,12.9,9.7l-50.2,43.7l-9,1.3l-47.2,48.3l-29.7,9.1l-8.6-1.5l-7.7,6l-103.6-4.9l5.6-11.6
			l-17.5,10.5l-49.6-3.7l-24.5,2.4l-48.7-8.6c0,0-7.5-4.5-8-4.5s-12.5,0.2-12.5,0.2l-44.4-26.3l-13.7-12.2L208,613l-10.3-15.8
			l-24.8-23.1l2.8-4.3L197,575l-23.9-9.9l-12.1-1.5L123.5,528l-3.7-10.6l-22-12.1L71.2,480l20-51.9l10.3-9l-0.7-16.1l50.4-55.1
			c0,0,163.4-45.8,163.8-45.8s44.5-1.4,44.5-1.4l19.5,0.5l7,3.2l7-1.8l23.1,4.5l44.7,18.4l-7.1,5.7l16.4-2.1l62.8,24.7L650.2,404z" style="fill:#FFFFFF;"/>
	</g>
	<path d="M704,478.2l7.8,40.3l-43.7,25.8l-7.8,30.2l-39.2,21.3l-18.3,21.7l-35.1,26.1L519.2,663l-116.5-15.8l-32-0.6
		l-34-0.6l-40.4,12l-0.9-0.1l-0.1,0.3l-8-4.7l-12.5,0.2l-44.3-26.3l0.1-0.6l-27-23.9l-30.2-28.1c0.1-0.6,0.2-1,0.3-1
		c0.8,0,1.8-4.6,1.8-4.6l22.7,6.2l-25-10.6l-11.4-1.5v0l-42.6-40.9l0.6-5.4l-22-12.1l-26.5-25.2l0.6,27.4l9.8,10l7.8,10.3l7.5,9
		l3.4,3.2l14.7,10v0.1l17.6,14.3l7.6,5.5l8.7,5.7l11.7,6.5v0.1l7.1,6.2l3.6,4.5l-0.1,0.8l4.9,11.7l4.7,6l46.2,35.5l19.9,13.6
		l11.5,5.5l14.9-1.9l9.8,0.7l10.5,1.8l15.8,5.2l17.3,6.6l17.9,4.9l9.6,2l4.7,2.4l43.2,4.7l16.9,1.2l10-3c0,0,23.6-4.1,36.8-5.7
		c13.2-1.6,45.8,2.4,45.8,2.4l22.5,3l15.2,3.2l2.5-1.1L568,682l11.3-9.1c0,0,31.5-24.5,32.2-24.7c0.7-0.3,15.7-7.7,15.7-7.7l6.3-2
		l3.1-1.5l33.1-30.9l15.4-11.2c0.3-0.7,0.9-27.9,0.9-27.9s-12.3-9.3-12.9-9.7s17.5-0.6,17.5-0.6v31.9l7.2-2.1l30.9-24.5l3.5-40.5
		L704,478.2z" style="fill:#FECE2F;"/>
	<g>
		<path d="M725.3,449.3c-0.1,0-0.3,0-0.4-0.1c-24-8.4-42-1.1-42.2-1c-0.6,0.2-1.2,0-1.5-0.6c-0.2-0.6,0-1.2,0.6-1.5
			c0.7-0.3,19-7.6,43.8,1c0.6,0.2,0.9,0.9,0.7,1.4C726.2,449,725.7,449.3,725.3,449.3z" style="fill:#FECE2F;"/>
	</g>
	<g>
		<path d="M733.8,422.5c-18.7,0-28.6-5.2-36.5-9.4c-4.5-2.4-8.3-4.4-13-5.2c-9.7-1.6-14.6,3.5-21.3,10.5l-0.8,0.9
			c-0.4,0.4-1.1,0.4-1.6,0s-0.4-1.1,0-1.6l0.8-0.9c6.9-7.2,12.4-13,23.3-11.2c5,0.8,9.2,3.1,13.7,5.4c8.1,4.3,17.3,9.1,35.5,9.1
			c0.1,0,0.2,0,0.4,0l0,0c0.6,0,1.1,0.5,1.1,1.1c0,0.6-0.5,1.1-1.1,1.1C734,422.5,733.9,422.5,733.8,422.5z" style="fill:#FECE2F;"/>
	</g>
	<g>
		<path d="M100.7,403.1l0.7,16.1l-10.3,9l-20,51.9l6.6,6.3l5.7,3.4l22.4-56l61.6-16.8c0,0-20.2-38.1-16.8-39.2
			c2.8-0.9,32.3-31.7,41.1-41c-23.4,6.6-40.8,11.4-40.8,11.4L100.7,403.1z" style="fill:#FECE2F;"/>
	</g>
	<g>
		<path d="M101.3,604.1c-5.9,0-11.8-0.8-17.5-1.6c-3.5-0.5-7.2-1-10.8-1.3c-0.6,0-1.1-0.6-1-1.2c0.1-0.6,0.6-1.1,1.2-1
			c3.7,0.3,7.4,0.8,10.9,1.3c8.8,1.2,17.9,2.5,26.7,0.7c7.2-1.4,13.2-5.1,19.6-8.9c4.1-2.5,8.4-5.1,13-7c8.1-3.3,15.1-3.4,20.9-0.3
			c0.6,0.3,0.7,1,0.4,1.5s-1,0.7-1.5,0.4c-5.2-2.8-11.6-2.6-19,0.4c-4.4,1.8-8.6,4.4-12.7,6.8c-6.3,3.8-12.7,7.7-20.3,9.2
			C107.9,603.9,104.6,604.1,101.3,604.1z" style="fill:#FECE2F;"/>
	</g>
	<line x1="71.2" y1="480.2" x2="71.4" y2="506.5" style="fill:none;"/>
	<line x1="97.5" y1="505.4" x2="97.1" y2="535.5" style="fill:none;"/>
	<polygon points="120.5,518.3 116.5,549.2 122.7,527.2 	" style="fill:#191919;"/>
	<line x1="160.8" y1="563.6" x2="159.6" y2="582.1" style="fill:none;"/>
	<line x1="172.5" y1="574.3" x2="171.3" y2="593.5" style="fill:none;"/>
	<line x1="230.2" y1="627.4" x2="227.6" y2="646.4" style="fill:none;"/>
	<line x1="275" y1="654.3" x2="272.8" y2="663.6" style="fill:none;"/>
	<line x1="343.9" y1="667.2" x2="344.4" y2="683" style="fill:none;"/>
	<g>
		<path d="M735.8,615.2c-0.1,0-0.3,0-0.4-0.1c-10.2-4.2-21.3-4.6-30.6-0.9c-0.6,0.2-1.2,0-1.5-0.6
			c-0.2-0.6,0-1.2,0.6-1.5c9.8-3.9,21.6-3.6,32.3,0.9c0.6,0.2,0.9,0.9,0.6,1.5C736.6,614.9,736.2,615.2,735.8,615.2z" style="fill:#FECE2F;"/>
	</g>
	<g>
		<path d="M734.9,692.6c-6.5,0-12.9-2.4-19.4-5.1c-3.4-1.3-6.7-2.8-9.9-4.1c-7.5-3.2-15.3-6.5-23.6-8.9
			c-7.2-1.9-14.7-2.7-21.4-3.3c-21.9-1.1-43.2,3.5-61.6,13.4c-0.6,0.3-1.2,0.1-1.5-0.4c-0.3-0.6-0.1-1.2,0.4-1.5
			c18.8-10.1,40.5-14.8,62.8-13.6h0c6.8,0.7,14.4,1.5,21.8,3.4c8.5,2.4,16.3,5.7,23.9,9c3.2,1.4,6.5,2.8,9.9,4.1
			c6.6,2.7,13,5.2,19.4,4.9c0.6,0,1.1,0.4,1.2,1.1c0,0.6-0.4,1.1-1.1,1.2C735.5,692.6,735.2,692.6,734.9,692.6z" style="fill:#FECE2F;"/>
	</g>
	<g>
		<path d="M703.3,416.9" style="fill:none;stroke:#191919;stroke-width:2.2397;stroke-linecap:round;stroke-linejoin:round;stroke-miterlimit:10;"/>
	</g>
	<g>
		<path d="M80.6,580.9c-2.8,0-5.7-0.1-8.5-0.3c-0.6,0-1.1-0.6-1-1.2s0.6-1.1,1.2-1c5.5,0.3,11.1,0.6,16.6-0.3
			c6-1,11.8-3.3,17.4-5.6c1.9-0.8,3.8-1.6,5.7-2.3c6.9-2.7,16-5.4,24.8-3.1c0.6,0.1,1,0.7,0.8,1.4c-0.1,0.6-0.7,1-1.4,0.8
			c-8.2-2.1-16.9,0.5-23.5,3c-1.9,0.7-3.8,1.5-5.7,2.3c-5.7,2.4-11.6,4.8-17.9,5.8C86.3,580.7,83.4,580.9,80.6,580.9z" style="fill:#191919;"/>
	</g>
	<g>
		<path d="M110.4,625.1c-2.9,0-5.7-0.5-8.3-1.6c-0.6-0.2-0.9-0.9-0.6-1.5c0.2-0.6,0.9-0.9,1.5-0.6
			c4.9,2.1,11.2,1.8,17.5-0.6c4.9-1.9,9.5-4.9,14-7.7c0.7-0.5,1.5-0.9,2.2-1.4c5-3.1,10.8-6.6,17.4-8c9.1-1.9,17.1-0.6,24.6,4.1
			c0.5,0.3,0.7,1,0.4,1.5c-0.3,0.5-1,0.7-1.5,0.4c-7-4.3-14.5-5.6-23-3.8c-6.2,1.3-11.8,4.7-16.6,7.7c-0.7,0.5-1.5,0.9-2.2,1.4
			c-4.5,2.9-9.2,5.9-14.4,7.9C117.6,624.3,113.8,625.1,110.4,625.1z" style="fill:#191919;"/>
	</g>
	<g>
		<path d="M79.5,664.4c-0.3,0-0.5-0.1-0.7-0.3c-0.5-0.4-0.5-1.1-0.1-1.6c5.8-6.9,13.9-11.6,22.7-13.4
			c10.2-2,20.5,0,30.5,1.9c1.4,0.3,2.8,0.5,4.1,0.8c19.1,3.5,27.5,1.1,33.2-1.7c0.6-0.3,1.2,0,1.5,0.5s0,1.2-0.5,1.5
			c-10.8,5.3-23.5,3.9-34.6,1.9c-1.4-0.3-2.8-0.5-4.2-0.8c-9.8-1.9-19.9-3.8-29.6-1.9c-8.3,1.6-15.9,6.2-21.4,12.7
			C80.1,664.3,79.8,664.4,79.5,664.4z" style="fill:#FECE2F;"/>
	</g>
	<g>
		<path d="M240.6,718.8c-3.1,0-6.3-0.3-9.5-0.9c-0.6-0.1-1-0.7-0.9-1.3c0.1-0.6,0.7-1,1.3-0.9c14.3,3,28.1-1.8,42.7-6.8
			c9-3.1,18.4-6.3,27.9-7.5c17.7-2.2,35.2,2.5,52.3,7.2c16.8,4.6,34.2,9.3,51.4,7.1c0.6-0.1,1.2,0.4,1.3,1c0.1,0.6-0.4,1.2-1,1.3
			c-17.6,2.2-35.2-2.5-52.2-7.2c-16.8-4.6-34.2-9.3-51.4-7.1c-9.3,1.2-18.5,4.4-27.4,7.4C263.8,714.8,252.3,718.8,240.6,718.8z" style="fill:#FECE2F;"/>
	</g>
	<g>
		<path d="M385.3,746.3c-7.5,0-14.7-0.6-21.7-1.9c-0.6-0.1-1-0.7-0.9-1.3c0.1-0.6,0.7-1,1.3-0.9
			c30,5.6,61-2.3,87.3-10.7c4-1.3,8-2.8,11.9-4.3c4-1.5,8.1-3.1,12.2-4.4c23.9-7.6,50.2-7.5,74,0.3c4.7,1.5,9.4,3.4,13.9,5.1
			c10.2,4,20.8,8.2,31.8,8.8c0.6,0,1.1,0.6,1,1.2c0,0.6-0.6,1.1-1.2,1c-11.3-0.6-22.1-4.8-32.5-8.9c-4.5-1.8-9.1-3.6-13.8-5.1
			c-23.4-7.6-49.2-7.7-72.6-0.3c-4.1,1.3-8.2,2.8-12.1,4.3c-3.9,1.5-8,3-12.1,4.3c-17.5,5.6-31,8.9-43.8,10.9
			C400.2,745.6,392.6,746.3,385.3,746.3z" style="fill:#FECE2F;"/>
	</g>
	<g>
		<line x1="295.2" y1="658.8" x2="293.6" y2="666.5" style="fill:none;"/>
		<path d="M669.2,608.9c7.8-6.8,16.7-13.5,28-15.8c6.9-1.3,12-0.9,18.4,0.3c5.2,1,9.9,2.4,14.6,3.7
			c1.9,0.6,3.7,1.1,5.5,1.6c0.6,0.1,1.2-0.2,1.4-0.8c0.1-0.6-0.2-1.2-0.8-1.4c-1.8-0.5-3.5-1-5.5-1.6c-4.7-1.4-9.5-2.8-14.8-3.8
			c-6.5-1.2-12-1.7-19.3-0.3c-3.8,0.8-7.2,2-10.5,3.5l0.1-4l4.1-0.1h0c0,0,0.1,0,0.1,0c0,0,0,0,0.1,0c0,0,0,0,0.1,0l7.4-2.5
			c0.1,0,0.2-0.1,0.3-0.2l30.7-24.4c0.2-0.2,0.4-0.5,0.4-0.8l3.9-40.3v0c0,0,0-0.1,0-0.1c0,0,0-0.1,0-0.1c0,0,0-0.1,0-0.1
			c0,0,0-0.1,0-0.1c0,0,0-0.1,0-0.1s0-0.1,0-0.1c0,0,0,0,0,0l0-0.1c0-0.1-0.1-0.3-0.2-0.4c0,0,0-0.1-0.1-0.1l-28.2-43.7
			c-0.2-0.3-0.5-0.5-0.9-0.5l-14.2-0.6l0.7-19.5l0,0c0,0,0-0.1,0-0.1c0,0,0-0.1,0-0.1c0,0,0,0,0-0.1c0,0,0-0.1,0-0.1s0,0,0-0.1
			c0,0,0-0.1-0.1-0.1c0,0,0,0,0,0L651,403.3c-0.1-0.1-0.3-0.3-0.4-0.4l-179.7-75c-0.2-0.1-0.4-0.1-0.6-0.1l-13.2,2.3l5-3.1
			c0.4-0.2,0.6-0.6,0.5-1c0-0.4-0.3-0.8-0.7-0.9l-45.9-19c-0.1,0-0.1,0-0.2-0.1l-22.4-4.5c-0.2,0-0.4,0-0.6,0l-6.8,2.1l-6.9-3.7
			c-0.1-0.1-0.3-0.1-0.5-0.1h-31.9h0l-31.8,1.2c-0.1,0-0.2,0-0.3,0L151,346.7c-0.2,0.1-0.4,0.1-0.5,0.3l-51,55.7c0,0,0,0,0,0
			c0,0-0.1,0.1-0.1,0.1l0,0c0,0.1-0.1,0.1-0.1,0.2l0,0c0,0.1,0,0.1,0,0.2c0,0,0,0,0,0.1c0,0.1,0,0.1,0,0.2v0l0,0l0,0l1.6,14.6
			L90,427.9c-0.1,0.1-0.2,0.3-0.3,0.4l-19.6,51.5c0,0.1,0,0.1,0,0.2v0c0,0,0,0.1,0,0.1v0l0.2,26.3c0,0,0,0,0,0.1c0,0,0,0.1,0,0.1
			c0,0,0,0.1,0,0.1c0,0,0,0.1,0,0.1c0,0,0,0.1,0,0.1c0,0,0,0.1,0,0.1c0,0,0,0.1,0.1,0.1c0,0,0,0,0.1,0.1s0.1,0.1,0.1,0.1
			c0,0,0,0,0,0c5.6,4.1,11.3,11.9,15.5,17.7l0.6,0.8c4.4,6,9,12.3,15.2,17.1c2.9,2.3,6.2,4.3,9.2,6.2c4,2.5,8.1,5,11.6,8.2
			c1.3,1.2,2.7,2.5,4,3.7c1.8,1.8,3.7,3.6,5.7,5.2c2.4,1.9,5.1,3.8,8.5,6c2.1,1.3,4.3,2.5,6.4,3.8c3.7,2.1,7.6,4.4,11.1,6.9
			c0.1,0.1,0.3,0.2,0.4,0.3c6,4.3,10,8.8,12.4,13.9c0.6,1.3,1.1,2.6,1.6,3.9c0.9,2.5,1.9,5,3.4,7.3c2.1,3.2,5.3,5.5,8.3,7.8
			c0.6,0.4,1.2,0.9,1.8,1.3l23.1,17.5c2.2,1.6,4.3,3.3,6.5,4.9c5.2,3.9,10.5,8,15.8,11.8c6.3,4.6,13.8,9.8,22.1,13.3
			c0.6,0.3,1.2,0.5,1.8,0.7c-3.8,0.7-7.6,1.6-11.4,2.5c-14.7,3.3-30,6.8-44.6,3.4c-0.6-0.1-1.2,0.2-1.3,0.8
			c-0.1,0.6,0.2,1.2,0.8,1.3c15.2,3.5,30.6,0,45.7-3.4c5-1.1,10.1-2.3,15.2-3.2c0,0,0.1,0,0.1,0c0.2,0,0.3,0,0.5-0.1
			c7.6-1.3,15.3-2,22.9-1.2c10.9,1.1,21.3,5.3,31.4,9.3c3.4,1.3,6.9,2.7,10.4,4c29,10.5,58,13,88.7,15.4c-0.3,0.1-0.7,0.3-1,0.4
			c-15.8,5.9-30.8,11.4-46.7,9.4c-0.6-0.1-1.2,0.4-1.3,1c-0.1,0.6,0.4,1.2,1,1.3c16.5,2.1,32.4-3.8,47.7-9.5
			c7.6-2.8,15.5-5.7,23.4-7.7c9.2-2.2,19.5-3.4,32.3-3.6c29.3-0.4,61.3,3.9,100.7,13.8c1.3,0.3,2.5,0.6,3.8,1
			c13.6,3.4,27.5,7,41.4,7c3.8,0,7.5-0.3,11.3-0.9c0.6-0.1,1-0.7,0.9-1.3c-0.1-0.6-0.7-1-1.3-0.9c-17.2,2.7-34.8-1.8-51.8-6.1
			c-1.3-0.3-2.5-0.6-3.8-1c-6.3-1.6-12.4-3-18.3-4.3c13.3-6.4,23.7-15.3,34.7-24.6c4.2-3.6,8.6-7.3,13.3-10.9
			c5.4-3.7,9.7-6.6,14.1-9.3c5.6-3.1,11-5.4,17.7-7.4c27-8.4,53.4-5.6,81.4-2.7c4.1,0.4,8.4,0.9,12.6,1.3c0,0,0.1,0,0.1,0
			c1.2,0,2.4,0.1,3.7,0.2c1.9,0.2,4,0.4,5.9,0.1c0.6-0.1,1-0.6,1-1.2c-0.1-0.6-0.6-1-1.2-1c-1.7,0.2-3.6,0-5.5-0.2
			c-1.3-0.1-2.6-0.3-3.8-0.3c-4.2-0.4-8.4-0.8-12.5-1.3c-24.7-2.6-50.2-5.2-75.3,0.9c6.8-5.2,13-11.1,19-16.9
			C661.3,616.2,665.2,612.5,669.2,608.9z M727.5,561.9l-30.2,24l-5.6,1.9l0.5-30.2l14.1-7.2L731,526L727.5,561.9z M96,533.9
			c-2.6-3-5-6.2-7.3-9.4l-0.6-0.8c-4.1-5.7-9.8-13.4-15.5-17.8l-0.2-23.1l24,23L96,533.9z M112.5,547.3c-3-1.9-6.2-3.8-9-6.1
			c-2-1.5-3.8-3.2-5.5-5c0.1-0.2,0.2-0.4,0.2-0.6l0.4-28.3l20.6,11.6l-3.9,30.2C114.4,548.4,113.5,547.8,112.5,547.3z M158.6,580
			c-3.2-2.2-6.6-4.1-9.9-6c-2.1-1.2-4.3-2.5-6.3-3.7c-3.4-2.1-6-3.9-8.3-5.8c-1.9-1.6-3.8-3.4-5.6-5.1c-1.3-1.3-2.7-2.6-4-3.8
			c-2.3-2-4.8-3.8-7.3-5.5c0.2-0.1,0.4-0.3,0.4-0.6l5.7-20.2l36.4,34.8L158.6,580z M171.6,573.7
			C171.6,573.7,171.5,573.7,171.6,573.7c0,0.1-0.1,0.1-0.1,0.2s0,0,0,0.1c0,0,0,0.1,0,0.1v0l-1,16.7c-2.4-3.3-5.6-6.4-9.6-9.3
			l1.1-16.7l11,1.4l9.3,3.9l-6.3-1.7c-0.5-0.1-1,0.1-1.2,0.5L171.6,573.7C171.6,573.7,171.6,573.7,171.6,573.7z M217.6,638
			c-2.2-1.6-4.3-3.3-6.5-5l-23.1-17.5c-0.6-0.4-1.2-0.9-1.8-1.3c-2.9-2.1-5.9-4.3-7.8-7.2c-1.4-2.1-2.3-4.4-3.2-6.9
			c-0.5-1.3-1-2.7-1.6-4c-0.3-0.7-0.7-1.5-1.2-2.2c0-0.1,0.1-0.2,0.1-0.3l1.1-16.9l21.8,20.1l11.3,17.1c0.1,0.2,0.3,0.4,0.6,0.4
			l11.2,3.7l10.6,9.8l-2.4,17.1C223.6,642.6,220.6,640.3,217.6,638z M199.1,598.4l8.5,3.4l8.7,13.2l-8-2.6L199.1,598.4z
			 M271.7,663.4c0,0,0,0.1,0,0.1c-3.8,0.3-7.6,0.8-11.3,1.4c-1.8-0.6-3.5-1.2-5.3-2c-8.1-3.4-15.5-8.5-21.7-13.1
			c-1.5-1.1-3.1-2.2-4.6-3.4l2.4-17.2l42.6,25.6L271.7,663.4z M292.7,665.1c-2.9-0.7-5.8-1.2-8.8-1.5c-3.3-0.3-6.6-0.4-9.9-0.3
			l1.9-8l11.1-0.5l6.9,4.4L292.7,665.1z M326.3,677c-3.4-1.3-6.9-2.7-10.3-4c-6.8-2.7-13.8-5.5-21.1-7.4l1.2-5.5l18,3.7
			c0,0,0,0,0.1,0l28.7,4.3l0.5,14.1C337.6,680.8,331.9,679.1,326.3,677z M353.4,675l-1,9.5c-2.3-0.5-4.6-1-6.8-1.6l-0.5-14.8
			l10.4-2.6L353.4,675C353.4,674.9,353.4,674.9,353.4,675z M417.1,692.5c-21.5-1.7-42.2-3.3-62.5-7.5l1-9.7l2.1-10
			c0-0.1,0-0.2,0-0.3l59.5,4.3l0.6,23.2H417.1z M426.3,690.2c-2.1,0.7-4.1,1.4-6.2,2.1l-0.6-23.4l8.1-4.9L426.3,690.2z M469.5,683.5
			c-13,0.2-23.3,1.4-32.7,3.7c-2.4,0.6-4.7,1.2-7.1,2l0.9-18.5l102,4.4l0.3,14.2C509.7,685,489,683.2,469.5,683.5z M535.2,689.6
			l-0.4-15.1l6.5-5l7.6,0.9l1.2,21.3c-0.4,0.2-0.8,0.4-1.3,0.6C544.2,691.3,539.6,690.4,535.2,689.6z M552.3,690.6l-1.2-20.4
			l27.3-8.2l-0.3,11.2C570.1,679.7,561.9,685.9,552.3,690.6z M613.4,646.3C613.4,646.3,613.4,646.3,613.4,646.3
			c-4.4,2.8-8.8,5.6-14.3,9.4l0,0c-4.7,3.7-9.1,7.4-13.4,11c-1.8,1.5-3.5,3-5.3,4.5l0.3-10.3l44.8-45.9v25.6
			C621.3,642.3,617.4,644.1,613.4,646.3z M626.5,611.2C626.4,611.2,626.4,611.2,626.5,611.2c-0.1,0-0.1,0-0.2,0s-0.1,0-0.1,0
			c0,0-0.1,0-0.1,0.1c0,0,0,0-0.1,0c0,0-0.1,0.1-0.1,0.1c0,0,0,0-0.1,0l0,0L579,659.4l-29.2,8.8l-8.7-1.1c-0.3,0-0.6,0-0.8,0.2
			l-6.9,5.3l-101.9-4.4l6.3-10.7c0.3-0.4,0.2-1-0.2-1.4s-0.9-0.4-1.4-0.1l-18.2,11l-60.8-4.4c-0.1,0-0.2,0-0.4,0l-13,3.3l-29.4-4.4
			l-18.8-3.9l-7.7-4.9c-0.2-0.1-0.4-0.2-0.7-0.2l-12,0.6l-44.4-26.7l-11-10.2l-10.6-16.1c-0.1-0.2-0.3-0.3-0.5-0.4l-11.9-4.7
			L173.9,574l2-3.2l21.8,6c0.6,0.1,1.2-0.1,1.3-0.7s-0.1-1.2-0.6-1.4l-25-10.6c-0.1,0-0.2-0.1-0.3-0.1l-11.9-1.5l-37.6-35.9
			l-2.2-8.7c0-0.1,0-0.1-0.1-0.2c0,0,0,0,0,0c0,0-0.1-0.1-0.1-0.1l0,0c0,0-0.1-0.1-0.1-0.1c0,0,0,0,0,0s-0.1-0.1-0.1-0.1l0,0l0,0
			c0,0,0,0,0,0l-22.8-12.8l-25.7-24.6l19.2-50.6l10.6-9.5l10.6,2.7c0.1,0,0.2,0,0.3,0l0,0h0c0.1,0,0.1,0,0.2,0l21.3-5
			c0.5-0.1,0.9-0.6,0.9-1.2c0-0.5-0.4-1-1-1l-20.4-2.8l-12.2-9.1l49.9-54.4l163.1-45.6l31.7-1.2h31.6l7,3.8c0.3,0.1,0.6,0.2,0.9,0.1
			l7-2.2l22,4.4l43.8,18.1l-8.2,5c-0.4,0.3-0.7,0.9-0.4,1.3c0.2,0.5,0.7,0.8,1.2,0.7l18.7-3.3l179.1,74.8l38.2,51.3l-17.5,9.3
			l-23.6-7.7c-0.3-0.1-0.5-0.1-0.8,0L621,467.9c-0.5,0.2-0.8,0.7-0.7,1.3c0.1,0.5,0.6,0.9,1.2,0.9l26.1-2.2l30.6,10
			c0.1,0,0.2,0,0.3,0l24.6,1.1l27.3,42.3l-27,26.9l-12.9,7.5l-17.6,0.6c-0.5,0-0.9,0.3-1,0.8c-0.1,0.4,0,0.9,0.4,1.2l11.8,8.7
			l-49.6,43.6L626.5,611.2C626.5,611.2,626.5,611.2,626.5,611.2z M632.9,638.1c-0.1,0.1-0.2,0.2-0.3,0.3c-0.4,0.1-0.7,0.2-1.1,0.3
			c-1.3,0.4-2.6,0.8-3.8,1.2l0-26.6l6.2-0.4l1.2,23.6C634.4,637,633.7,637.6,632.9,638.1z M637.3,634.9l-1.2-22.7l48.6-42.7
			l-0.6,19.7c0,0.1,0,0.1,0,0.2c0,0,0,0,0,0.1l-0.2,6.1c-6,3.2-11.3,7.4-16.2,11.6c-4.1,3.6-8,7.4-11.8,11
			C649.7,624.2,643.8,629.9,637.3,634.9z" style="fill:#191919;"/>
	</g>
</g>
<g>
	<g>
		<polygon points="305,171.8 338.4,337.2 222.2,371.5 157.7,191.5 		" style="fill:#FECE2F;"/>
	</g>
	<g>
		<polygon points="209.5,305 172,193.5 239.3,183.1 237.4,180.8 157.7,191.5 176.7,249.2 		" style="fill:#FFFFFF;"/>
	</g>
	<g>
		<path d="M209,475.5c-1.3,0-2.7-0.4-3.8-1.3c-2.1-1.5-3.1-4-2.7-6.5l15.8-95.7c0.1-0.9,1-1.5,1.9-1.4
			c0.9,0.1,1.5,1,1.4,1.9l-15.8,95.7c-0.2,1.3,0.3,2.5,1.3,3.2c1,0.7,2.3,0.8,3.4,0.2h0L315.3,419c1.7-0.9,2.8-2.5,3.1-4.4l5.8-33.8
			c0.1-0.9,1-1.5,1.9-1.4c0.9,0.1,1.5,1,1.4,1.9l-5.8,33.8c-0.5,2.9-2.3,5.4-4.9,6.8h0l-104.7,52.8C211.1,475.3,210,475.5,209,475.5
			z" style="fill:#191919;"/>
	</g>
	<g>
		<polygon points="220,371.6 229.6,368.5 336,326.9 427.5,369.1 300.8,418 		" style="fill:#FECE2F;"/>
	</g>
	<g>
		<path d="M336,328c-0.5,0-1-0.4-1.1-0.9l-30.8-154c-13.1,1.8-143.8,19.1-146.2,19.5c-0.6,0.1-1.1-0.2-1.3-0.7
			c-0.2-0.6,0.1-1.2,0.7-1.4c0.1,0,0.5-0.1,147.5-19.7c0.6-0.1,1.1,0.3,1.2,0.9l31,155c0.1,0.6-0.3,1.2-0.9,1.3
			C336.1,328,336.1,328,336,328z" style="fill:#191919;"/>
	</g>
	<g>
		<path d="M300.8,420.4c-0.4,0-0.8-0.1-1.2-0.3l-80.9-45.7c-1.2-0.7-1.6-2.1-0.9-3.3c0.7-1.2,2.1-1.6,3.3-0.9l79.9,45.1
			l124.2-47.9c1.2-0.5,2.7,0.1,3.1,1.4c0.5,1.2-0.1,2.7-1.4,3.1l-125.3,48.3C301.4,420.3,301.1,420.4,300.8,420.4z" style="fill:#191919;"/>
	</g>
	<g>
		<path d="M308,530.9c-1.3,0-2.6-0.3-3.8-1c-2.5-1.4-4-3.9-4-6.7L299.1,418c0-0.9,0.7-1.7,1.7-1.7l0,0
			c0.9,0,1.7,0.7,1.7,1.7l1.1,105.2c0,1.6,0.9,3.1,2.3,3.8c1.4,0.8,3.1,0.7,4.5-0.1c0,0,0,0,0.1,0L430,461.6
			c4.2-2.3,6.5-6.8,5.9-11.5l-10-79.8l-90.6-41.8c-0.9-0.4-1.2-1.4-0.8-2.2c0.4-0.9,1.4-1.2,2.2-0.8l91.5,42.2
			c0.5,0.3,0.9,0.7,1,1.3l10.1,80.7c0.7,6.1-2.2,11.9-7.6,14.9l-119.5,65.3C310.8,530.6,309.4,530.9,308,530.9z" style="fill:#191919;"/>
	</g>
	<g>
		<path d="M222.2,372.6c-0.4,0-0.9-0.3-1-0.7c-0.2-0.6,0.1-1.2,0.6-1.5l113.8-44.6c0.6-0.2,1.2,0.1,1.5,0.6
			c0.2,0.6-0.1,1.2-0.6,1.5l-113.8,44.6C222.5,372.6,222.3,372.6,222.2,372.6z" style="fill:#191919;"/>
	</g>
	<g>
		<path d="M220.5,376.1c-1.2,0-2.2-0.7-2.7-1.9L155,192.4c-0.5-1.5,0.3-3.1,1.7-3.5c1.5-0.5,3.1,0.3,3.5,1.7l62.8,181.8
			c0.5,1.5-0.3,3.1-1.7,3.5C221.1,376,220.8,376.1,220.5,376.1z" style="fill:#191919;"/>
	</g>
	<g>
		<path d="M407.7,304.3c-0.6,0-1.1-0.1-1.7-0.2l-84.6-22.4c-3.5-0.9-5.6-4.5-4.6-8c0.9-3.5,4.5-5.6,8-4.6l84.6,22.4
			c3.5,0.9,5.6,4.5,4.6,8C413.2,302.3,410.6,304.3,407.7,304.3z" style="fill:#191919;"/>
	</g>
</g>
<g>
	<g>
		<path d="M335.6,293.6c0,0,20.2-2.5,63,3.7s57.5,15.9,64.5,32.6c7,16.7-3.5,46.3-3.5,46.3l-13.4,35.4l-37.1-8l-0.6,8.3
			c0,0-1.5,27.1-5.8,39c0,0-3.7,6.9-34,5.8c-30.2-1.1-29.7-8.4-29.7-8.4s-7.1-55.1-8.4-56.2s-15.9,0-59-7.8s-51.7-22.6-56-47.8
			c0,0,0.4-16.6,3.2-16.8c2.8-0.2,63.8-8.4,63.8-8.4s17.7,0.9,33.4-5.6C331.7,299.2,335.6,293.6,335.6,293.6z" style="fill:#FECE2F;"/>
	</g>
	<g>
		<path d="M313.9,315c-0.5,3.7,2.1,7.3,5.3,9.1c3.3,1.8,7.2,2.1,10.9,2.1c3.7,0,7.5-0.1,11.2,0.7
			c6.5,1.6,11.5,6.5,17.1,10.3c5.5,3.8,12.9,6.5,18.7,3.3c-9.2-9.6-20.9-16.3-33-21.6C338.7,316.6,315.5,303.1,313.9,315z" style="fill:#FFFFFF;"/>
	</g>
	<g>
		<path d="M218.4,346.7c0,0,12.4,22.4,42.1,28.4c57.2,11.5,76,0,77.2,16.4c3,41.3,14.9,62.5,14.9,62.5s-7.7-0.5-13-4.2
			l-4.7-32.6c0,0-3-25.4-5-25.4c-2,0-20.4-1-40.3-4c-19.9-3-44.8-8.2-55.2-16.2C223.9,363.6,220.2,353.1,218.4,346.7z" style="fill:#FFFFFF;"/>
	</g>
	<g>
		<path d="M423.5,582.6c0,0-4.7,10.1-7.2,10.5c-2.5,0.4-4.7-2.4-7-1.6s-3.4,1.9-4.6,1.9s-8.2-2.4-8.2-2.4
			s-1.2-4.2-2.6-4.5c-1.4-0.3-6.1-1.2-6.1-1.2l-3.2,2.1l-4.9-1.8c0,0-3.8-1.6-4-3.1c-0.1-1.5,0.4-5.1-3.7-6.7
			c-4.1-1.6-3.8,0.5-7.8-1c-4-1.5-6-2.6-5.7-5.9c0.3-3.2-1.6-7-6-6.8c-4.4,0.1-6.6-0.9-7.1-4.5c-0.5-3.6,0.3-8.6-7-8.3l-5.2-6.1
			l1.9-10.2c0,0,4.8,12.1,24.3,26.1c19.5,14.1,35.2,22,35.2,22S409.8,590.4,423.5,582.6z" style="fill:#FFFFFF;"/>
	</g>
	<g>
		<path d="M464.6,342.4c-3.4-26.7-13.7-38.8-76.7-46.1c-38.8-4.5-30.2,22.3-6.9,18c43.3-8.1,76.8-0.2,78.2,30.2
			c0.5,10.5-2.8,35.6-24.3,66.1l11,0.7C445.9,411.2,468,369.1,464.6,342.4z" style="fill:#FFFFFF;"/>
	</g>
	<g>
		<path d="M354.8,449.9c-0.6,0-1-0.4-1.1-1l-5.3-45.6c-0.3-2.5-0.6-5.6,0.7-8.4c1.4-2.7,4-4.1,6.6-5.5
			c2.4-1.3,4.6-2.5,5.7-4.6c0.3-0.7,0.3-1.7,0-2.1c-0.1-0.1-0.3-0.3-0.6-0.2c-0.2,0-0.4,0.1-0.6,0.2c-0.9,0.5-1.9,1.1-2.8,1.6
			c-4.6,2.7-9.3,5.4-14.6,5.6c-0.6,0-2.6,0.1-3.3-1.8c-0.5-1.3-0.2-2.8,0.9-3.8l7.1-6.8c0.4-0.4,0.2-0.9,0.1-1
			c-0.1-0.1-0.4-0.6-1-0.4c-0.8,0.2-1.6,0.5-2.4,0.8c-1.8,0.6-3.6,1.3-5.5,1.3c-2.2,0-4.1-0.8-5.9-1.6L309,366.3
			c-0.6-0.3-0.8-0.9-0.6-1.5c0.3-0.6,0.9-0.8,1.5-0.6l23.9,10.3c1.6,0.7,3.2,1.4,5,1.4c1.5,0,3.1-0.6,4.7-1.2
			c0.9-0.3,1.7-0.6,2.6-0.9c1.4-0.4,2.8,0.2,3.5,1.5c0.7,1.3,0.5,2.8-0.5,3.8l-7.1,6.8c-0.4,0.4-0.5,0.9-0.3,1.3
			c0.1,0.2,0.1,0.4,1.2,0.4c4.8-0.2,9.3-2.8,13.6-5.3c0.9-0.6,1.9-1.1,2.9-1.6c0.5-0.3,1-0.4,1.5-0.5c1.1-0.1,2,0.3,2.6,1.2
			c0.8,1.2,0.9,2.9,0.1,4.4c-1.3,2.8-4,4.2-6.6,5.6c-2.4,1.3-4.6,2.5-5.6,4.6c-1,1.9-0.8,4.4-0.5,7.1l5.3,45.6
			c0.1,0.6-0.4,1.2-1,1.2C355,449.9,354.9,449.9,354.8,449.9z" style="fill:#191919;"/>
	</g>
	<g>
		<path d="M377.7,365.8c-1.1,0.9-2,2.1-2.3,3.5c-0.6,2.6,1.2,5.2,2.8,7.2c2.1,2.7,4.4,5.3,7.7,6.3
			c1.5,0.5,3.2,0.5,4.7-0.1c3.7-1.5,4.3-5.7,4.3-9.4C394.9,364.7,384.7,359.9,377.7,365.8z" style="fill:#FFFFFF;"/>
	</g>
	<g>
		<path d="M437.8,325.3c-0.7,0.6-1.2,1.3-1.4,2.1c-0.3,1.6,0.7,3.1,1.7,4.4c1.3,1.6,2.7,3.2,4.7,3.8
			c0.9,0.3,1.9,0.3,2.8-0.1c2.2-0.9,2.6-3.5,2.6-5.7C448.1,324.6,442,321.7,437.8,325.3z" style="fill:#FFFFFF;"/>
	</g>
	<g>
		<g>
			<g>
				<path d="M452.2,521l-2.4,7.2l-5.9,0.7c0,0-2.4,0.5-4.1-1.4c-1.8-1.9-4.4-0.3-5.7,0.9c-1.4,1.1-6.2-0.7-6.2-0.7
					l-6.3-2.2c0,0-1.2-3.1-5.3-1.9s-9.8-2-9.8-2s-1.5-4.4-3.4-4.2c-1.9,0.1-7.6,1-8.5-1l0.7-8.5c0,0,5.3,6.1,25.4,11.5
					C440.8,524.7,452.2,521,452.2,521z" style="fill:#FFFFFF;"/>
			</g>
			<path d="M454.6,402.3c-0.8-0.7-1.6-1.2-2.2-1.5c9-20.8,18.1-54.1,11.4-71.8c-3.8-10-11.5-17.5-23.7-22.8
				c-10.5-4.6-24.3-7.8-45-10.4c-28.9-3.7-51.6-3.8-59.6-3.4c-0.6,0-1.1,0.6-1,1.2c0,0.6,0.6,1.1,1.2,1c0.2,0,23.3-1.2,59.1,3.4
				c20.4,2.6,34.1,5.8,44.3,10.3c11.8,5.1,18.9,12,22.5,21.5c3.3,8.8,2.8,23.3-1.6,41c-3.5,14.3-9.4,29.8-14.9,39.5
				c-4.7-0.2-10.8-1.2-18.1-3.1c-9.4-2.4-17.4-5.4-17.5-5.4c-0.6-0.2-1.2,0.1-1.5,0.7c-0.2,0.6,0.1,1.2,0.7,1.5c0,0,0.1,0,0.3,0.1
				l-3.2,32.4l-0.7,6.8l-1.1,14.4l-5.5,30.6c0,0-3.5,17.3-3.4,19.4c-0.1,0.1-0.1,0.1-0.2,0.2c-0.4,0.5-0.3,1.2,0.3,1.6
				c0.6,0.4,14.3,10.2,32.7,12.9c5,0.7,9.1,1,12.4,1c5.2,0,8.4-0.7,10.3-1.2c-0.5,2.4-1.2,4.7-1.8,5.2c-1,0.9-6,1.3-7.1,0.9
				c-0.1-0.1-0.4-0.4-0.6-0.6c-0.8-0.9-2.1-2.4-4.2-2.1c-1.5,0.2-2.2,0.9-2.7,1.5c-0.4,0.4-0.6,0.6-1.2,0.7c-2,0.1-9.4-1.7-10.4-2.4
				c-0.1-0.1-0.3-0.3-0.4-0.5c-0.9-1.1-2.4-2.9-4.6-2.7c-0.9,0.1-1.6,0.4-2.2,0.6c-0.9,0.4-1.6,0.7-3.4,0.3
				c-3.1-0.6-5.7-2.4-5.8-3.1c0-1.9-1.8-4-4.3-4c-0.7,0-1.4,0.2-2,0.5c-1.3,0.5-2.3,0.8-3.7-0.4c-0.4-0.4-1.2-0.4-1.6,0
				c-0.4,0.4-0.4,1.2,0,1.6c2.4,2.3,4.6,1.5,6,1c0.5-0.2,0.9-0.3,1.3-0.3c1.3,0,2.1,1.1,2.1,1.8c0,2.5,4.4,4.7,7.6,5.3
				c2.4,0.4,3.7-0.1,4.7-0.5c0.5-0.2,1-0.4,1.5-0.4c1-0.1,1.8,0.7,2.7,1.9c0.2,0.2,0.4,0.4,0.6,0.7c1.3,1.4,10.2,3.2,12.1,3.1
				c1.5-0.1,2.2-0.8,2.7-1.3c0.4-0.4,0.6-0.7,1.3-0.7c0.9-0.1,1.5,0.5,2.2,1.4c0.3,0.4,0.7,0.8,1.1,1c0.6,0.4,1.7,0.5,2.7,0.5
				c0.8,0,1.5-0.1,2-0.1c1.4-0.1,3.9-0.5,5-1.5c1.6-1.5,2.7-6.8,2.9-8.4c2.3-8.1,2.2-15-0.5-20.8c-2.3-4.9-6.4-9-12.4-12.2
				c-0.8-0.4-1.6-0.8-2.5-1.3c-7.4-3.7-16.6-8.4-14-21.8c3.1-15.4,31.6-53.7,31.9-54.1c0.1-0.1,0.1-0.2,0.2-0.3
				c1-0.8,1.6-1.7,1.6-2.8C457.9,405.7,456.8,404.1,454.6,402.3z" style="fill:#191919;"/>
			<g>
				<path d="M433.2,434.5c-11.8,0-20.8-5-24.3-7.2c-0.5-0.3-0.7-1-0.3-1.6c0.3-0.5,1-0.7,1.6-0.3
					c3.7,2.4,13.7,7.9,26.6,6.7c0.6-0.1,1.2,0.4,1.2,1c0,0.6-0.4,1.2-1,1.2C435.7,434.4,434.4,434.5,433.2,434.5z" style="fill:#FECE2F;"/>
			</g>
		</g>
		<path d="M420.8,341.7c-3.3-0.7-6.6-0.3-9.9,0.1c-0.7,0.1-1.5,0.2-2.3,0.3c-12.6,1.3-24.4-1.3-35.1-7.6
			c-2.7-1.8-4.9-3.2-5-3.3c-0.1-0.1-0.3-0.1-0.4-0.1c-26.2-17.1-47.5-21.8-47.7-21.8c-0.6-0.1-1.2,0.3-1.3,0.9
			c-0.1,0.6,0.3,1.2,0.9,1.3c0.3,0.1,28.5,6.2,59.8,30.6c14.6,11.4,23.6,27.4,26.8,47.7c2.7,17.3,1.3,37.8-4.3,61
			c-0.1,0.6,0.2,1.2,0.8,1.3c0.1,0,0.2,0,0.3,0c0.5,0,1-0.3,1.1-0.9c5.7-23.5,7.1-44.3,4.3-61.9c-0.4-2.5-0.9-4.8-1.4-7.2
			c0-0.1,0-0.2,0-0.4c-1-6.6,1.3-13,5.8-16.6c1.7-1.4,3.7-2.3,5.8-3.2c1.2-0.6,2.5-1.2,3.8-1.8c4.3-2.4,6.8-6,6.7-9.6
			C429.3,345.9,425,342.6,420.8,341.7z" style="fill:#191919;"/>
		<path d="M422.5,558c-1.3-1.6-2.9-3.4-4.7-5.3c-9.4-10.5-23.7-26.3-22.3-40.1c0.2-1.9,0.5-4.4,1-7.2
			c0.8-5.3,2.1-12.1,3.7-20.2c3.6-17.9,8-36.7,8-36.9c0-0.1,0-0.2,0-0.3c0.4-0.9,0.6-1.7,0.4-2.6c-0.3-2.3-2.4-3.7-2.5-3.7
			c-0.5-0.3-1.2-0.1-1.5,0.4s-0.2,1.2,0.3,1.5c0,0,0.1,0.1,0.3,0.2c-0.2,0.2-0.3,0.4-0.4,0.6c-0.3,0.5-0.3,1.1-0.3,1.6
			c-0.1,1.1-0.1,2.2-0.2,3.3c-3.1,2.5-10.5,6.3-27.7,6.3c-3.7,0-7.9-0.2-12.5-0.6c-11.2-1-19.1-3.4-23.7-6.3
			c-0.2-1.9-1.7-14.9-3.5-27.8c-3.9-28.9-5.2-29.3-6.3-29.6c-0.7-0.2-2.2-0.3-5.8-0.6c-9.5-0.7-31.8-2.2-60.9-8.8
			c-17.4-3.9-27.7-8.8-34.4-16.3c-6.4-7.2-9.2-16.4-13.1-29.2c-0.2-0.6-0.8-0.9-1.4-0.7c-0.6,0.2-0.9,0.8-0.7,1.4
			c7.9,25.7,11.8,38.6,49.2,47c29.2,6.6,51.6,8.2,61.2,8.8c2.4,0.1,4.3,0.3,5.1,0.4c1.5,2.8,4.6,24.6,6.9,43.4
			c-0.2,0-0.4,0.1-0.5,0.2c-2.4,1.8-3.4,4.1-3,6.5c0.7,6.6,6.6,62.1,6.6,66.7c0,4.7-5.9,21.4-5.9,21.5c0,0,0,0,0,0.1
			c0,0,0,0.1,0,0.1l-2.1,11.2c-0.1,0.3,0,0.6,0.2,0.9c4.6,6.4,5.5,6.5,5.9,6.6c0.6,0.1,1-0.1,1.4-0.4c0.7-0.4,1.6-0.9,3.6,1.1
			c1.5,1.5,1.3,2.8,1.1,4.4c-0.2,1.4-0.4,3.1,0.8,4.6c2.5,3.2,5.1,3.2,6.8,2.9c2.1-0.4,3.9,0.4,5.4,2.3c1,1.3,0.8,2.3,0.6,3.5
			c-0.2,1.1-0.4,2.5,0.6,3.6c1.7,1.9,6.3,4,7.9,3.8c0.4,0,0.9-0.2,1.3-0.4c1.2-0.4,2.5-1,4,0c3.6,2.5,3.6,2.7,3.5,5.5l0,0.6
			c-0.1,2.7,3.4,4.4,4.9,5.1c0.6,0.2,5.3,2.2,7,0.5c0.2-0.2,0.4-0.4,0.6-0.7c0.4-0.5,0.8-1.1,1.3-1.2c0.9-0.2,3.2,0.9,4.1,1.3
			c1.5,0.9,1.5,1.6,1.6,2.4c0.1,1.4,0.5,2.7,3.1,3.4c1.1,0.3,2.1,0.6,2.9,0.9c1.8,0.6,3.3,1,4.5,1c0.6,0,1.2-0.1,1.6-0.4
			c0.6-0.4,1.1-0.8,1.5-1.2c0.8-0.7,1.2-1.1,2.3-1.1c0.8,0,1.4,0.4,2.2,0.9c0.9,0.6,1.9,1.2,3.3,1c3.5-0.4,8.4-8.5,9.3-12.4
			c1.1-1.6,1.9-3.5,2.3-5.7C428.5,569.8,426.7,563,422.5,558z M415.4,591.8c-0.6,0.1-1.1-0.2-1.9-0.7c-0.9-0.5-1.9-1.2-3.3-1.2
			c0,0-0.1,0-0.1,0c-1.9,0-2.8,0.9-3.7,1.7c-0.4,0.3-0.7,0.7-1.2,0.9c-0.5,0.3-2.5-0.3-4.3-0.8c-0.9-0.3-1.9-0.6-3-0.9
			c-1.3-0.3-1.3-0.6-1.4-1.4c-0.1-1.1-0.3-2.7-2.8-4.1c0,0-0.1,0-0.1-0.1c-2-0.9-4.1-1.8-5.5-1.5c-1.3,0.3-2.1,1.3-2.7,2
			c-0.1,0.1-0.3,0.3-0.3,0.4c-0.7,0.3-4-0.3-6.4-1.9c-1.3-0.8-1.8-1.6-1.8-2l0-0.6c0.1-3.5-0.2-4.4-4.4-7.4
			c-2.4-1.7-4.7-0.8-6.1-0.3c-0.3,0.1-0.6,0.3-0.8,0.3c-0.8,0-4.6-1.5-6-3.1c-0.3-0.3-0.3-0.7-0.1-1.8c0.2-1.3,0.6-3.2-1-5.3
			c-2-2.6-4.6-3.7-7.5-3.1c-1.3,0.3-2.8,0.1-4.6-2.1c-0.6-0.8-0.6-1.6-0.4-2.9c0.2-1.8,0.5-4-1.8-6.2c-3.2-3.1-5.2-2-6.2-1.5
			c0,0,0,0,0,0c-0.8-0.7-2.6-3.1-4.1-5.2l1.3-6.9c2.8,5.2,10.5,15.5,32,30.2c20.3,13.9,35.1,20.6,45.4,20.6c3.2,0,6-0.6,8.4-1.9
			c0,0,0.1,0,0.1-0.1C419.4,588.4,416.7,591.6,415.4,591.8z" style="fill:#191919;"/>
		<g>
			<path d="M371.8,482.8c-19.4,0-30-5.7-33.7-8.3c-0.5-0.3-0.6-1-0.3-1.6c0.3-0.5,1-0.6,1.6-0.3
				c3.6,2.5,14.2,8.2,34.1,7.9c10.8-0.2,17.5-2.3,21.2-4c0.6-0.3,1.2,0,1.5,0.6c0.3,0.6,0,1.2-0.6,1.5c-5.7,2.7-13.1,4.1-22.1,4.3
				C372.9,482.8,372.4,482.8,371.8,482.8z" style="fill:#FECE2F;"/>
		</g>
		<g>
			<path d="M358.9,535.3C358.8,535.3,358.8,535.3,358.9,535.3c-0.7,0-1.2-0.6-1.1-1.2c0.7-12-8.6-18.4-8.7-18.4
				c-0.5-0.3-0.7-1-0.3-1.6c0.3-0.5,1-0.7,1.6-0.3c0.4,0.3,10.5,7.1,9.7,20.4C360,534.9,359.5,535.3,358.9,535.3z" style="fill:#FECE2F;"/>
		</g>
		<g>
			<path d="M395.9,504.9c-0.1,0-0.1,0-0.2,0c-0.6-0.1-1-0.7-0.9-1.3c0.1-0.8,0.3-1.6,0.4-2.5c0.8-5,1.6-10.1,2.8-16.4
				c3.6-18,7.4-34.6,7.4-34.8c0.1-0.6,0.7-1,1.3-0.9c0.6,0.1,1,0.7,0.9,1.3c0,0.1-3.8,16.8-7.4,34.7c-1.2,6.2-2.1,11.3-2.8,16.3
				c-0.1,0.8-0.3,1.6-0.4,2.5C396.9,504.4,396.4,504.9,395.9,504.9z" style="fill:#FECE2F;"/>
		</g>
	</g>
</g>
<g>
	<path d="M292.3,350.8l-91.2-37.7l3.2,17.7l82.2,33.9c0.6,0.3,1.2,0.4,1.9,0.5c3.3,0.4,6.6-1.4,7.9-4.6
		C297.9,356.7,296.1,352.4,292.3,350.8z" style="fill:#191919;"/>
</g>
<g>
	<path d="M316.1,359.2c-1.3-3.9-3.2-7.6-5.7-10.8c-1-1.4-2.2-2.7-3.1-4.1c-1.3-2.1-2.8-6.9-5.6-7.3
		c-3.3-0.6-7.1,2.8-9.4,4.8c-1.2,1.1-2.5,2.3-3.1,3.8c-0.7,1.8-0.5,3.9-0.3,5.9c0.1,1.9,0.2,3.8,0.1,5.7c0,0.3,0,0.7-0.2,1
		c-0.2,0.3-0.6,0.4-1,0.5c-1.9,0.6-3.5,2.2-4,4.1c-0.5,1.9,0.1,4.2,1.7,5.4c1.2,0.9,2.7,1.2,4.2,1.4c0.2,0,0.4,0,0.7,0
		c-1.8,1.7-3.2,3.8-4,6.2c-0.1,0.3-0.2,0.7,0.1,1c0.2,0.2,0.5,0.1,0.8,0.1c1.7-0.3,3.3-1,4.5-2.2c-0.3,0.8,0.4,1.7,1.3,1.8
		c0.8,0.1,1.7-0.3,2.4-0.6c1.5-0.7,3-1.5,4.6-2.2c0.5-0.3,1-0.5,1.5-0.9c1.2-1.2,1.1-3.3,2.4-4.4c-0.3,1.7-0.4,3.5-0.4,5.3
		c0,0.3,0,0.6,0.2,0.9c0.4,0.4,1-0.1,1.4-0.5c1.6-1.8,3.3-3.7,4-6c0.3-1,0.4-2.1,0.5-3.1c0.2-2.1,0.4-4.2,0.6-6.3
		c1.5,0.9,3,1.7,4.6,2.3c0.4,0.2,1,0.3,1.4,0.1C316.4,360.6,316.3,359.8,316.1,359.2z" style="fill:#FECE2F;"/>
	<g>
		<path d="M305.9,374.6c0.6-1.3,1.1-2.6,1.7-3.9c0.3-0.7,0.7-1.5,1-2.2c0.1-0.3,0.7-1.7,0.6-1.5
			c0.1-0.4,0.2-0.7,0.3-1.1c-0.2-1.3,0.1-2.7,0.6-4c0-0.3,0-0.6,0-0.8c0-2.7-0.5-5.4-0.7-8c-0.1-0.8-0.1-1.6-0.2-2.4v0
			c0-0.1,0-0.1-0.1-0.2c-0.1-0.5-0.3-1.1-0.4-1.6c-0.1-0.3-0.3-0.5-0.4-0.7c-0.9-1.4-1.2-3-1-4.5c-0.9-1.6-1.8-3.1-2.8-4.6
			c-0.4-0.6-0.7-1.2-0.9-1.9c-0.2,0-0.5,0-0.7,0c-0.6,0.1-1.3,0.3-1.9,0.4c-1.1,0.3-2.2,0.3-3.3,0.1l-0.3,0.3c0,0,17.4,8,7.2,36.3
			L305.9,374.6z" style="fill:#FFFFFF;"/>
	</g>
	<g>
		<path d="M312.9,350.7c-2.2-3.6-4.5-7-5.1-7.9c-2.3-4.5-4.8-6.5-5-6.6c-0.5-0.4-1.2-0.3-1.6,0.2
			c-0.4,0.5-0.3,1.2,0.2,1.6c0,0,2.2,1.8,4.2,5.7c0,0.1,0.1,0.2,0.1,0.3c0,0,0,0,0,0c0.9,1.7,1.7,3.7,2.4,6.2
			c1.7,6.3,0.2,19.5-3.4,22.9c-0.3,0.3-0.6,0.4-0.8,0.5c0-1.2,0.1-4,1.3-8.5c0,0,0-0.1,0-0.1c1.2-4.3,0.9-7.9,0.9-8.1
			c-0.1-0.6-0.6-1.1-1.2-1c-0.6,0.1-1.1,0.6-1,1.2c0,0,0.5,5.5-2.1,10.6c-2,3.9-5.7,7.7-8.1,8.3c-0.3,0.1-0.8,0.1-1,0
			c0,0-0.1-0.1-0.1-0.1c0.7-0.6,1.6-1.3,2.5-2.2c6.3-6.2,6.4-14.6,6.4-15c0-0.6-0.5-1.1-1.1-1.1c-0.6,0-1.1,0.5-1.1,1.1
			c0,0.1-0.1,7.8-5.7,13.4c-3,3-5.1,3.9-6.2,4.1c0.1-0.1,0.1-0.1,0.2-0.2c2.6-2.7,8-8.4,8.3-15.3v0c0,0,0-0.1,0-0.1s0-0.1,0-0.1
			s0-0.1,0-0.1c0,0,0-0.1,0-0.1s0-0.1,0-0.1s0-0.1,0-0.1c0,0,0-0.1-0.1-0.1c0,0,0-0.1-0.1-0.1c0,0,0,0-0.1-0.1s0,0-0.1-0.1
			c0,0-0.1,0-0.1,0c0,0-0.1,0-0.1,0s-0.1,0-0.1,0s-0.1,0-0.1,0h0c0,0,0,0-0.1,0c0,0,0,0-0.1,0h0c0,0-0.1,0-0.1,0s-0.1,0-0.1,0
			s-0.1,0-0.1,0s-0.1,0-0.1,0c0,0-0.1,0-0.1,0s0,0-0.1,0c0,0-0.1,0-0.1,0.1c0,0,0,0-0.1,0.1c0,0,0,0.1-0.1,0.1c0,0,0,0-0.1,0.1
			s0,0.1-0.1,0.1c0,0,0,0.1,0,0.1s0,0.1,0,0.1c0,0,0,0.1,0,0.1v0c-0.3,1.8-1.8,6.6-4.2,7.8c-0.8,0.4-1.6,0.3-2.6-0.1
			c-3.2-1.6-2.2-4.7-1.9-5.6c0.7-1.7,2-2.8,2.8-2.8c-0.3,1.5-0.8,2.8-1.6,3.7c-0.4,0.4-0.4,1.2,0.1,1.6c0.2,0.2,0.5,0.3,0.7,0.3
			c0.3,0,0.6-0.1,0.9-0.4c4.1-4.7,1.8-15.8,1.7-16.3c-0.1-0.6-0.7-1-1.3-0.9c-0.6,0.1-1,0.7-0.9,1.3c0.4,1.7,0.9,5.2,0.7,8.4
			c-2.1-0.1-4.2,1.9-5.2,4.2c-1.1,2.7-1,6.5,2.9,8.4c0.9,0.4,1.7,0.6,2.5,0.6c0.3,0,0.6,0,0.9-0.1c-1.2,1.6-2.4,2.8-3.3,3.8
			c-1.2,1.2-1.5,1.6-1.5,2.2c0,0.7,0.4,1.3,1.2,1.6c0.3,0.1,0.7,0.2,1.2,0.2c0.9,0,2.4-0.3,4.2-1.5c0,0.3,0.2,0.6,0.5,0.8
			c0.4,0.3,0.9,0.5,1.7,0.5c0.3,0,0.7,0,1.1-0.1c2.3-0.6,5.2-3.1,7.5-6.2c-0.1,1.9,0,2.8,0.1,2.9v0c0,0,0,0,0,0.1c0,0,0,0.1,0,0.1
			s0,0,0,0.1c0,0,0,0.1,0.1,0.1c0,0,0,0,0,0.1c0,0,0,0,0.1,0.1c0,0,0,0,0.1,0.1l0,0c0.1,0.1,0.2,0.1,0.3,0.1c0.3,0.1,0.7,0.2,1,0.2
			c0.8,0,1.7-0.3,2.7-1.2c2.5-2.4,4.3-8.4,4.7-14.4c1.4,1.2,3.1,2.5,4.5,2.5c0.1,0,0.2,0,0.3,0c0.7-0.1,1.2-0.5,1.5-1.2
			C317.7,360.5,317.8,358.9,312.9,350.7z M311.1,357.3c0-2-0.1-3.9-0.4-5.7c2.5,4.1,4.4,7.6,4.5,8.8
			C314.5,360.2,312.7,358.8,311.1,357.3z" style="fill:#191919;"/>
		<path d="M292.4,358.2c0.3,0.1,0.7,0.2,1.1,0.2c0.9,0,1.8-0.4,2.4-1c0.4-0.4,0.4-1.2-0.1-1.6c-0.4-0.4-1.2-0.4-1.6,0.1
			c-0.3,0.3-0.7,0.4-1.1,0.3c-0.6-0.2-1.2,0.1-1.4,0.7C291.5,357.4,291.8,358,292.4,358.2z" style="fill:#191919;"/>
		<path d="M299.1,356.2c0.1,0,0.3,0,0.4,0c0.7,0,1.4-0.3,1.9-0.7c0.4-0.4,0.5-1.1,0.1-1.6c-0.4-0.4-1.1-0.5-1.6-0.1
			c-0.1,0.1-0.3,0.2-0.5,0.1c-0.6-0.1-1.2,0.3-1.3,1C298,355.6,298.4,356.2,299.1,356.2z" style="fill:#191919;"/>
		<path d="M305.2,354L305.2,354c0.6,0,1-0.2,1.4-0.6c0.4-0.4,0.4-1.1,0-1.6c-0.4-0.4-1.1-0.4-1.5-0.1
			c-0.6,0-1,0.6-1,1.2C304.1,353.6,304.6,354,305.2,354z" style="fill:#191919;"/>
	</g>
</g>
<g>
	<g>
		<path d="M454,115.9c0.6,0.3,1,0.9,1.4,1.5c0.3,0.6,0.5,1.3,0.6,2.1c0,0.7-0.1,1.5-0.4,2.2c-0.3,0.7-0.8,1.3-1.3,1.8
			c-0.5,0.5-1,0.9-1.4,1.4c-0.4,0.4-0.8,0.9-1,1.3c-0.2,0.4-0.3,0.9-0.2,1.3s0.2,0.9,0.4,1.4c0.3,0.4,0.6,0.9,1,1.2
			c0.2,0.2,0.4,0.3,0.6,0.5c0.2,0.1,0.5,0.3,0.7,0.4c0.6,0.3,1.2,0.6,1.8,1.1c0.3,0.3,0.6,0.5,0.9,0.9c0.3,0.4,0.4,0.8,0.5,1.3
			c0.1,0.4,0,0.9-0.1,1.3c-0.1,0.4-0.3,0.7-0.4,1c-0.3,0.6-0.7,1.1-1,1.6c-0.5,1-0.5,2.4,0,3.5c-1-0.9-1.4-2.5-1.1-3.9
			c0.2-0.7,0.5-1.3,0.7-1.9c0.1-0.3,0.2-0.6,0.2-0.8c0-0.2,0-0.4,0-0.6c-0.1-0.4-0.4-0.6-0.8-0.9c-0.4-0.3-1-0.5-1.6-0.8
			c-0.3-0.1-0.6-0.3-1-0.5s-0.6-0.4-0.9-0.7c-0.6-0.5-1.1-1.1-1.5-1.8s-0.7-1.5-0.7-2.3c-0.1-0.9,0.1-1.8,0.6-2.5
			c0.4-0.7,1-1.3,1.5-1.7c0.5-0.4,1-0.8,1.5-1.2c0.5-0.4,0.9-0.8,1.2-1.2c0.3-0.4,0.5-1,0.6-1.6c0.1-0.6,0.1-1.2-0.1-1.8
			C454.6,117,454.3,116.4,454,115.9z" style="fill:#191919;"/>
	</g>
	<g>
		<g>
			<path d="M446.3,151.4c0,0,11.5,4.9,21.5-0.6l0.8,10.8c0,0,1.6,5.2-6.2,6s-13.6,0.6-15.8-2.4L446.3,151.4z" style="fill:#FECE2F;"/>
		</g>
		<g>
			<path d="M457.2,146.5c-3.7,0-10.7,1.2-10.5,3.5c0.2,2.4,7.1,3.2,11,3.2c3.9,0,10.4-2.2,10.3-3.7
				C467.8,148.1,463.7,146.4,457.2,146.5z" style="fill:#FECE2F;"/>
		</g>
		<g>
			<path d="M446.7,165.2c1.3,1.9,4.2,2.7,8.1,2.9V154l-0.1-0.7c-4.8-0.4-8.4-1.9-8.4-1.9L446.7,165.2z" style="fill:#FFFFFF;"/>
		</g>
		<g>
			<g>
				<path d="M447.5,151c1.8,1.2,5.5,2.1,9.9,2.1c4.2,0,7.8-0.7,9.6-1.9c-1.8-1.2-5.5-2.1-9.9-2.1
					C452.9,149.1,449.3,149.9,447.5,151z" style="fill:#191919;"/>
			</g>
			<path d="M457.2,145.3c-5.8,0-12,1.5-12,4.7v0.6c-4.3,0.1-7.8,3.7-7.8,8c0,4.4,3.6,8,8,8c0.1,0,0.3,0,0.4-0.1
				c1.8,2,6.7,2.9,11.3,2.9c5.8,0,12-1.5,12-4.7V150C469.3,146.8,463,145.3,457.2,145.3z M457.2,147.6c6.4,0,9.8,1.7,9.8,2.4
				c0,0.7-3.4,2.4-9.8,2.4c-6.3,0-9.8-1.7-9.8-2.4C447.4,149.3,450.9,147.6,457.2,147.6z M440.8,158.6c0-2.5,1.9-4.5,4.4-4.6v9.2
				C442.8,163,440.8,161,440.8,158.6z M457.2,167.2c-6.4,0-9.8-1.7-9.8-2.4v-11.9c2.4,1.2,6.2,1.8,9.8,1.8c3.6,0,7.5-0.6,9.8-1.8
				v11.9C467,165.5,463.6,167.2,457.2,167.2z" style="fill:#191919;"/>
		</g>
	</g>
</g>
<g>
	<g>
		<path d="M420.5,147.1c0,0,8.4-4.1,10.3-6.3s4.5-5.3,6-4.4c1.5,0.9-3.5,7.5-4.4,8c0,0,13.4-6,14.5-4.3
			c1,1.7-5.6,6.7-6,6.8c-0.4,0.1-10.4,3.6-10.4,3.6l-5.4,0.3L420.5,147.1z" style="fill:#FECE2F;"/>
	</g>
	<g>
		<path d="M402.7,159.6c0,0,11.2-13.7,16.1-13.5s13.4,4.9,13.9,4.9c0.4,0.1,7,5.6,7,5.6s-3.2,2.4-4.2,2.5
			c-1,0.1-6.3-3.1-6.3-3.1l-5.9-0.8c0,0-6.3,1.2-4.6,4.4s3.4,3.3,5.6,2.8c2.2-0.5,10.2-2.8,10.2-2.8s5.8-2.4,6.8-0.7
			c1,1.8-3.1,4.6-5,5s-10.5,3.5-12.5,4.7s-9.6,6.8-9.6,6.8s-6.3-3.3-8.5-7.7C403.4,163.5,402.7,159.6,402.7,159.6z" style="fill:#FECE2F;"/>
	</g>
	<g>
		<path d="M402.7,159.6l2.1,6c0,0,4.7-12.6,14.9-16.3c4.2-1.5,7.5-0.5,7.5-0.5s-4.9-3.8-9.6-2
			C412.9,148.7,402.7,159.6,402.7,159.6z" style="fill:#FFFFFF;"/>
	</g>
	<path d="M448,139.8c-1.6-2.1-3.8-0.9-6.5,0.4c-1.2,0.6-2.7,1.4-4.4,2.1c-0.6,0.3-1.3,0.5-2,0.7c2-2,3.9-4.5,3.1-6.4
		c-0.4-1.1-1.3-1.4-1.7-1.5c-1.6-0.3-3.1,1.3-3.1,1.3c-7.3,7.8-11.7,8.4-11.8,8.4c-0.2,0-0.3,0.1-0.5,0.1c-0.6-0.1-1.1-0.1-1.6-0.1
		c-5.2,0.3-16.2,12.3-17.5,13.7c-0.4,0.4-0.4,1.2,0.1,1.6c0.2,0.2,0.5,0.3,0.7,0.3c0.3,0,0.6-0.1,0.8-0.4c4.5-4.9,12.8-12.7,16-13
		c0.1,0,0.1,0,0.2,0c2.2,0,6.6,1.9,10.5,4.2c0.1,0.1,0.2,0.1,0.4,0.2c3.4,2,6.4,4.3,7.5,5.7c-0.8,0.1-1.7,0.4-2.8,0.7c0,0,0,0,0,0
		c-0.3-0.2-8-4.1-11.9-4.4c-2.7-0.2-5.7,2.1-6.3,4.7c-0.5,2.1,0.6,3.8,2.8,4.7c3.1,1.3,8.7-0.6,13.6-2.2c2.4-0.8,5.7-1.9,6.5-1.6
		c0.2,0.1,0.2,0.3,0.2,0.4c0,0.6-0.9,1.7-2.7,2.7c-1.3,0.7-3.8,1.6-6.5,2.4c-2.8,0.9-5.8,1.9-8,2.9c-3.7,1.8-9,6-9.9,7.4
		c-0.3,0.5-0.2,1.2,0.3,1.6c0.2,0.1,0.4,0.2,0.6,0.2c0.4,0,0.7-0.2,0.9-0.5c0.6-0.9,5.5-4.9,9-6.6c2.1-1,4.9-1.9,7.7-2.8
		c2.8-0.9,5.4-1.8,6.9-2.6c2.4-1.3,3.8-2.9,3.9-4.5c0.1-0.9-0.3-1.8-1.1-2.4c-0.2-0.2-0.5-0.3-0.7-0.4c-0.7-2-4-4.4-6.5-6.1
		c5.2-1.6,12.6-6.2,14-9C448.7,140.9,448.3,140.2,448,139.8z M420.9,161.1c-1.8-0.7-1.6-1.8-1.5-2.2c0.3-1.4,2.1-3,3.8-3
		c0.1,0,0.1,0,0.2,0c2.2,0.1,6.3,1.9,9,3.1C428.4,160.4,423.2,162,420.9,161.1z M435,138.1c0.3-0.3,0.9-0.6,1.1-0.7
		c0,0,0,0.1,0.1,0.1c0.4,1-2.3,4.1-5.7,6.6c-1,0.2-1.9,0.3-2.8,0.4C429.5,143.3,432,141.2,435,138.1z M431.4,149.4
		c-1-0.6-2.8-1.6-4.7-2.5c3.4-0.4,8-1.2,11.3-2.5c1.9-0.7,3.4-1.6,4.7-2.2c2.4-1.3,3.1-1.5,3.5-1.2C445.5,143,436,149,431.4,149.4z" style="fill:#191919;"/>
</g>
<g>
	<g>
		<path d="M270.3,159.9l-0.5,17.4c0,0-11.6,3-18.8,1c-7.2-2-5.5-3.4-5.5-3.4l0.7-17.8L270.3,159.9z" style="fill:#FECE2F;"/>
	</g>
	<g>
		<polygon points="252.5,158.8 251,178.3 245,175.8 246.5,150.6 		" style="fill:#FFFFFF;"/>
	</g>
	<g>
		<g>
			<path d="M402.7,159.6c0,0,0.3,10.9,11.5,15.9l-0.9,4.5c0,0-8.3,1.8-13.1-6.5c-4.7-8.3-3.2-10.5-3.2-10.5L402.7,159.6
				z" style="fill:#FECE2F;"/>
		</g>
		<g>
			<path d="M396.8,163.6c0,0,4.1-4.8,5.9-3.9l1.5,5.6l-6.3,2.5L396.8,163.6z" style="fill:#FFFFFF;"/>
		</g>
		<g>
			<g>
				<path d="M285.5,339.1l5.9,2.7c0,0,7.3-5.1,10.8-4.7l-5.2-5.8C297,331.4,290.3,329.4,285.5,339.1z" style="fill:#FFFFFF;"/>
			</g>
			<g>
				<path d="M280,180.4c0,0,21.5-5,48.3,11.9l16.8,19.8l5.2-0.2c0,0,1.1-16.8,12.5-32.8s26.5-20,33.4-15.5
					c0,0,0.9,7.3,5.4,11.8c4.5,4.5,11.6,4.7,11.6,4.7s3.7,5.4-0.2,10.8c-3.9,5.4-12.9,18.3-14.7,27.6s-2.8,44.8-20.3,59.5
					c-14.2,11.9-40.9,6.5-40.9,6.5l-1.5,9.1c0,0-24.1,19.2-46.7,18.7c0,0,7.7,9,8,19c0,0-6.5-1.9-10.3,4.7S285,348,285,348
					s-6.2,2.8-17.7,2.8s-32.5-6.3-32.5-6.3l-21.3-8c0,0-20.9-7.5-35.8-26.7c-14.9-19.2-17-41.4-11.6-62.7s25.7-54.7,67.3-59.9
					L280,180.4z" style="fill:#FFFFFF;"/>
			</g>
			<g>
				<path d="M396.3,163.6c-6.9-4.5-22-0.6-33.4,15.5s-12.5,32.8-12.5,32.8l-2.7,0.1c0.2,5.4,0.7,10.8,1.8,16.1
					c0.6,3.1,1.4,6.2,3.2,8.7c0.2,0.3,0.5,0.6,0.9,0.8c1.3,0.4,2-1.4,2.1-2.8c0-6.3-1-12.7-0.8-19c0.2-6.2,1.7-12.4,4.1-18.1
					c2.8-6.8,6.8-13.1,12.2-18.1c5.3-5,11.9-8.6,19-10.1c2.7-0.6,5.1-0.9,6.7-1.2c1.3-0.3-0.6-1.5-0.1-2.8
					C396.4,164.3,396.3,163.6,396.3,163.6z" style="fill:#FECE2F;"/>
			</g>
			<g>
				<path d="M322,189.2l-0.2-0.7c-23.7-12.4-41.8-8.2-41.8-8.2l-3.1,0.4c-0.3,0.4-0.4,0.6-0.4,0.6l4.1,5.7
					C280.6,187.1,298.9,178.8,322,189.2z" style="fill:#FECE2F;"/>
			</g>
			<g>
				<path d="M171.4,285.2c-2.5-6.2,6.6-2.2,8.5-8.5c1.8-5.9-10.2-13.7-9.4-20.2c0.7-6.5,9.6-0.6,12.4-4.5
					c3.9-5.2-10.2-6.7,7.2-30.2s45.4-26.3,45.4-26.3l11.6-9.6l-0.6-0.7l-13.1,1.9c-41.5,5.2-61.9,38.6-67.3,59.9
					s-3.4,43.5,11.6,62.7s35.8,26.7,35.8,26.7l21.3,8c0,0,20.9,6.3,32.5,6.3c11.6,0,17.7-2.8,17.7-2.8s-1.6-4.3,0.6-9.7
					C203.7,344.3,173.8,291.4,171.4,285.2z" style="fill:#FECE2F;"/>
			</g>
			<g>
				<path d="M258.7,179.1c2.1,0,13.1,0.4,18.5-8.7l3.4,16.7c0,0-4.9,13.9-19.3,15.4c-14.5,1.5-24.6-1-27.9-15.4
					l6.6-16.4C240,170.7,243.8,179.3,258.7,179.1z" style="fill:#FECE2F;"/>
			</g>
			<g>
				<path d="M272.8,176.4l3.7,18.4c0,0-7.4,6.5-12.6,6.6l2.5-22.8L272.8,176.4z" style="fill:#FFFFFF;"/>
			</g>
			<g>
				<path d="M247.5,177.4l-10,17.9c10.2,12.2,25.3,6.2,25.3,6.2l3.2-23.1l-10.3,1L247.5,177.4z" style="fill:#FFFFFF;"/>
			</g>
			<g>
				<path d="M414.3,179.9c0.4-0.8,0.9-2.2,1-4.4c0-0.5-0.3-0.9-0.7-1.1c0,0-4.9-2-7.8-6.6c-2.8-4.7-2.9-8.4-2.9-8.4
					c0-0.3-0.1-0.6-0.4-0.8c-0.2-0.2-0.5-0.3-0.9-0.3c-0.1,0-3.5,0.3-6.3,3.7c-4-2.3-9.4-2.1-15.5,0.5
					c-12.7,5.5-27.8,22.1-30.9,45.6c-0.1,0.9-0.2,1.8-0.3,2.6c-6.5-8.6-13.5-14.9-20.3-19.4l-0.1-0.1c-0.1-0.1-0.2-0.1-0.4-0.2
					c-9.1-6.1-18-9.1-25.1-10.7c-11.8-2.5-20.8-1.4-23.7-0.9l-1.8-9c0-0.3,0-0.5,0-0.7c-0.2-2.9-2.9-5.2-6.8-5.7l-0.2-6.5
					c0-0.6-0.5-1.1-1.2-1.1s-1.1,0.5-1.1,1.2l0.5,18.6c-1.1,0.4-2.4,0.8-3.9,1.2c-8,1.9-15.3,0.3-19.6-1.9l0.8-20.6
					c0-0.6-0.4-1.2-1.1-1.2c-0.6,0-1.2,0.4-1.2,1.1l-0.4,10.8c-0.1,0-0.3,0-0.4,0c-0.1,0-3.2,0.9-4.2,3.3c-0.1,0.2-0.1,0.5-0.2,0.7
					l-6.9,16.2c-2.9,0.5-15,2.9-28.5,10.5c-8.9,5-16.6,11.3-22.8,18.6c-7.8,9.1-13.2,20-16.2,32.2c-5.3,21.8-2.9,41.1,7.3,57.4
					c10.1,16.2,25.5,25.7,36.7,30.8c17.8,8.2,39.2,16.6,58.7,16.6c6,0,11.8-0.8,17.3-2.7l3.2,0.7c0.1,0,0.1,0,0.2,0
					c0.5,0,0.9-0.3,1-0.8c3.8-11.4,12.3-10.9,12.6-10.9c0.4,0,0.8-0.2,1-0.6s0.2-0.8,0-1.2c-1.6-2.5-4-4.8-5-5.6
					c-0.1-2-1-9.3-7.5-17.8c25.4-1.3,45.4-18.3,45.8-18.7l0,0l0,0c0,0,0,0,0,0c0,0,0.1-0.1,0.1-0.1c0,0,0,0,0-0.1c0,0,0-0.1,0.1-0.1
					c0,0,0,0,0-0.1c0,0,0-0.1,0-0.1s0-0.1,0-0.1c0,0,0,0,0-0.1c0.4-2.8,0.7-5.6,1-8.2c1.2,0.2,5.9,0.9,12.1,0.9c0.9,0,1.7,0,2.6,0
					c14.1-0.5,22.5-4.8,27-8.4c11.6-9.1,14.7-28.7,17.1-44.4c0.9-5.8,1.7-10.8,2.8-14.5c0.9-3.3,2.5-6.7,4.2-10
					c1.9-3.4,4.1-7.1,5.9-10.1c0.3-0.6,0.7-1.1,1-1.6c2.3-3.6,4.1-6.5,4.8-8.4C417,184.1,415.4,181.2,414.3,179.9z M401.8,160.8
					c0.3,1.7,1,4.7,3.1,8.2c2.6,4.2,6.5,6.4,8.1,7.2c-0.1,1.6-0.5,2.4-0.7,2.8c-5.3,0.3-9.3-2.1-12-7.2c-1.8-3.4-2.4-6.9-2.5-8.1
					C399.2,161.9,400.8,161.1,401.8,160.8z M265.9,187.7c0.5,1.9,1.3,3.5,2.4,4.1c0.4,0.2,0.9,0.4,1.4,0.4c0.5,0,1.1-0.1,1.8-0.5
					c0.8-0.4,1.3-1.2,1.5-2.1c0.5-3.1-3.4-8.3-5.3-10.6c5.1-1.4,7.8-3.3,9.2-5l2.5,12.8c-1.6,5.2-4.9,9.1-9.9,11.8
					c-1.6,0.9-3.5,1.6-5.4,2.1L265.9,187.7z M267.3,182.3c1.9,2.6,3.7,5.6,3.4,7c0,0.2-0.1,0.4-0.3,0.5c-0.6,0.3-0.8,0.2-0.9,0.1
					C268.2,189.2,267.5,185.7,267.3,182.3z M264.7,179.8l-2.9,21.4c-5.2,1-10.9,0.7-15.9-0.8c-10.8-3.4-11.3-11.9-11.3-13.4
					l5.8-13.7c0.1,0.1,0.1,0.2,0.2,0.3c2.1,3.4,9.3,6.7,18,6.7C260.4,180.4,262.5,180.2,264.7,179.8z M300,336.2
					c-1,0.1-2.3,0.5-3.7,1.1c-2.7,1.3-6.4,4.1-8.7,10.2l-1.8-0.4c-0.2-1.7-0.6-6.1,1.9-10c3.3-5.4,7.8-4.8,8.8-4.6
					C297,333,298.6,334.4,300,336.2z M302.6,308.9c0,0,0,0.1,0,0.1c-4.3,1.1-9,1.8-13.8,1.9c-2.9-3.5-6.8-7.1-11.9-10.6
					c-18-12.5-45.8-20.7-52.8-22.7c3.1-4.2,6.8-11.2,8.8-22.3c1.3-7.4,1.2-13,1.2-13.3c0-0.6-0.5-1.1-1.1-1.1
					c-0.6,0-1.1,0.5-1.1,1.1c0,0.1,0,1.8-0.2,4.6c0,0.1-0.1,0.2-0.1,0.3s-1.7,12.5-13.5,17.4c-3.8,1.6-7.3,2.7-10,3.6
					c-6.5,2.1-10.8,3.5-9.6,8.3c0.6,2.5,2.8,3.2,5.7,3.2c1.5,0,3.2-0.2,4.9-0.3c4-0.4,8.6-0.9,12.8,0.2l0,0
					c0.3,0.1,33.4,8.7,53.8,22.8c16.5,11.5,19.6,24,20.1,28c-0.7,0-1.6,0-2.5,0.2c-2.1,0.4-5,1.7-7.5,5.6c-2.8,4.4-2.5,9.3-2.2,11.4
					c-22.2,7.3-51-3.7-73.7-14.1c-10.9-5-25.9-14.3-35.7-30c-9.9-15.8-12.2-34.5-7-55.7c2.9-11.8,8.2-22.4,15.7-31.2
					c6-7.1,13.5-13.2,22.1-18.1c12.3-6.9,23.6-9.5,27.2-10.2c0.4,3.2,2.4,11.1,12.8,14.4c3.2,1,6.8,1.5,10.3,1.5
					c2.9,0,5.8-0.3,8.5-1c2.2,0.7,6.7,2.5,11.5,5.7c9,6,14.7,13.8,17.1,23.5c2.3,8,2.1,14.3,1.5,19.9c-6.2,2.2-13,3.7-20.3,4.5
					c-17.1,1.9-31.4-0.6-31.5-0.7c-0.6-0.1-1.2,0.3-1.3,0.9c-0.1,0.6,0.3,1.2,0.9,1.3c0.1,0,7.9,1.4,18.9,1.4
					c4.1,0,8.5-0.2,13.3-0.7c7.1-0.8,13.8-2.2,19.9-4.2c0,0.4-0.1,0.7-0.1,1.1c-0.7,5-1.3,9.9,0,15c-11.6,3.7-21.3,5.2-21.4,5.2
					c-0.6,0.1-1,0.7-0.9,1.3c0.1,0.6,0.6,0.9,1.1,0.9c0.1,0,0.1,0,0.2,0c0.1,0,9.9-1.6,21.7-5.3c0,0,0,0.1,0,0.1
					c1.3,3.6,3.1,6.6,4.8,9.6C303.3,289.8,306.9,296,302.6,308.9z M413.2,188.3c-0.3,0.8-0.8,1.8-1.6,3.1c-0.1,0.1-0.1,0.1-0.2,0.2
					c-0.1,0.1-0.3,0.4-0.6,0.9c-1.9,2.8-8.4,12.1-19,18.1c-6.9,3.9-11.3,8.5-11.8,12.2c-0.2,1.5,0.2,2.8,1.1,3.8
					c1.9,2,4.1,1,5.8,0.2c1.5-0.7,3.1-1.4,4.9-0.8c1.5,0.5,2.7,3.9,1.7,11.8c-0.1,1-0.2,1.7-0.3,1.9c0,0.1,0,0.2,0,0.3
					c-2.3,13.8-5.8,28.9-15.2,36.2c-4.1,3.2-9,5.2-14,6.4c-4.9,0.8-11,0.4-13.6-1c-6.8-3.9-10.6-6.3-12.4-18.7
					c-1.3-16.2-5.5-28.6-9.7-37c-7.1-14.4-15.2-21-15.6-21.3c-0.5-0.4-1.2-0.3-1.6,0.2c-0.4,0.5-0.3,1.2,0.2,1.6
					c0.1,0.1,8.1,6.6,15,20.5c6.3,12.8,12.9,34.8,8.3,66.1c-2,1.6-13.6,10.8-29.4,15.3c3.9-13,0-19.7-4.2-26.9
					c-1.6-2.8-3.4-5.7-4.6-9.2c0,0,0,0,0,0c3.2-1,6.5-2.3,9.8-3.6c0.6-0.2,0.8-0.9,0.6-1.5c-0.2-0.6-0.9-0.8-1.5-0.6
					c-3.2,1.3-6.5,2.5-9.6,3.5c-1.2-4.7-0.6-9.1,0.1-14c0.1-0.7,0.2-1.5,0.3-2.3c1.9-0.7,3.7-1.4,5.4-2.2
					c10.1-4.6,18.3-11.3,24.3-19.7c0.4-0.5,0.2-1.2-0.3-1.6c-0.5-0.4-1.2-0.2-1.6,0.3c-5.7,8.1-13.6,14.5-23.3,19
					c-1.3,0.6-2.8,1.2-4.2,1.8c0.6-5.5,0.6-11.8-1.6-19.6c-3.2-12.7-11.6-20.5-18.1-24.8c-3.5-2.3-6.7-3.9-9.1-4.9
					c1.1-0.4,2.1-0.9,3.1-1.4c5.5-2.9,9.3-7.5,11-13.3v0c0,0,0-0.1,0-0.1c0,0,0-0.1,0-0.1c0,0,0-0.1,0-0.1s0-0.1,0-0.1v0l-1-5.1
					c2.7-0.4,11.6-1.5,22.9,0.9c6.7,1.5,15,4.3,23.7,10c-0.8,2.7-2.5,10.8,4.6,16.4c1.5,1.2,2.8,2.2,4,3.1c5.4,4,7.9,5.8,7.5,12.2
					c-0.3,5.2-0.1,12.1,3.1,15.6c1.3,1.4,2.9,2.2,4.9,2.2c0.1,0,0.2,0,0.3,0c1.9,0,3.3-0.6,4-1.8c1.2-2-0.2-4.8-0.5-5.3
					c-0.2-0.4-5-11-2.9-26.6c3.1-22.6,17.5-38.6,29.6-43.9c5.5-2.4,10.4-2.5,13.8-0.4c0.2,1.4,0.8,5.1,2.7,8.7
					c2.9,5.6,7.4,8.5,13,8.5c0.4,0,0.7,0,1.2,0C413.2,181.9,414.6,184.1,413.2,188.3z" style="fill:#191919;"/>
				<path d="M321.7,257.6c-2.8,2-6,4-9.6,5.8c-0.6,0.3-0.8,1-0.5,1.5c0.2,0.4,0.6,0.6,1,0.6c0.2,0,0.3,0,0.5-0.1
					c3.7-1.9,7.1-3.9,9.9-6c0.5-0.4,0.6-1.1,0.2-1.6S322.2,257.2,321.7,257.6z" style="fill:#191919;"/>
			</g>
		</g>
	</g>
</g>
<g>
	<g>
		<path d="M272.3,128.7l1.4,4.9l0.8,11.6l-1.9,5.2l-17.5-1.9l-8.7-3.5l-2,2.8l-3.9-3c0,0-3.2-6.3-0.7-8.1
			c2.4-1.9,6.5-6.2,6.5-6.2l20-2.3L272.3,128.7z" style="fill:#FECE2F;"/>
	</g>
	<g>
		<path d="M275.9,146c-0.7-1.1-1.8-1.6-3-1.2c-5.1,1.8-7.1-0.3-7.1-0.4c-0.2-0.2-0.5-0.4-0.8-0.4
			c-0.3,0-0.6,0.1-0.8,0.3c-2.6,2.4-6.8,3.8-9.8,1.3c-2.7-2.2-5.3-2.9-7.5-2c-0.3-4.6-0.2-10.8,0.7-12.1c0.4-0.5,0.2-1.2-0.3-1.6
			c-0.5-0.4-1.2-0.2-1.6,0.3c-0.8,1.1-1.2,3.6-1.3,6.2c-1.3-0.4-3.3-0.9-4.9,0c-0.9,0.4-1.9,1.4-2.2,3.6c-0.3,2.7,0.9,5.1,3.6,6.9
			c0.6,0.4,1.3,0.8,1.9,1.1c-1.1,3.1-0.7,7.4,2.1,11.9c2.1,3.2,6.6,5.6,11.8,6.2c0.9,0.1,1.7,0.1,2.5,0.1c4.8,0,9.1-1.6,11.9-4.4
			C276.8,156.4,277.6,148.8,275.9,146z M244,145.9c-1.9-0.9-4.7-2.8-4.3-5.7c0.2-1.5,0.8-1.8,1-1.9c1-0.6,2.8,0,3.8,0.4
			c0,2.8,0.2,5.4,0.3,6.3c0,0,0,0,0,0.1C244.4,145.3,244.2,145.6,244,145.9z" style="fill:#191919;"/>
		<path d="M272.2,136.5c-0.1,0.6,0.2,1.2,0.9,1.3c0.1,0,0.2,0,0.3,0c0.5,0,1-0.3,1.1-0.9c0.7-3.3-0.7-6.9-0.8-7
			c-0.2-0.6-0.9-0.8-1.5-0.6s-0.8,0.9-0.6,1.5C271.5,130.9,272.8,133.9,272.2,136.5z" style="fill:#191919;"/>
	</g>
	<g>
		<circle cx="256.2" cy="139.5" r="5" style="fill:#FFFFFF;"/>
		<circle cx="271.8" cy="139.5" r="5" style="fill:#FFFFFF;"/>
		<path d="M271.8,133.4c-3,0-5.5,2.1-6,5h-3.7c-0.5-2.8-3-5-6-5c-3.4,0-6.1,2.7-6.1,6.1c0,3.4,2.7,6.1,6.1,6.1
			c3,0,5.5-2.1,6-5h3.6c0.5,2.8,3,5,6,5c3.4,0,6.1-2.7,6.1-6.1C277.8,136.1,275.1,133.4,271.8,133.4z M256.2,143.3
			c-2.1,0-3.8-1.7-3.8-3.8c0-2.1,1.8-3.8,3.8-3.8s3.8,1.7,3.8,3.8C260,141.6,258.3,143.3,256.2,143.3z M271.8,143.3
			c-2.1,0-3.8-1.7-3.8-3.8c0-2.1,1.7-3.8,3.8-3.8c2.1,0,3.8,1.7,3.8,3.8C275.6,141.6,273.9,143.3,271.8,143.3z" style="fill:#191919;"/>
	</g>
	<g>
		<path d="M255.8,150.4l8.5,5.4c0,0-3.7,2.9-6.9,1C253.8,154.8,255.8,150.4,255.8,150.4z" style="fill:#FFFFFF;"/>
	</g>
	<g>
		<path d="M272.4,143.8c-4.6-0.1-5.6-1.8-5.6-3.3l-4.5,0c0,0-2.2,9.4,9.7,8.4C276,148.5,275.7,144,272.4,143.8z" style="fill:#FECE2F;"/>
		<g>
			<path d="M270.2,150.1c-3.2,0-5.7-0.9-7.3-2.7c-2.7-3-1.8-7.4-1.8-7.6c0.1-0.6,0.7-1,1.3-0.9c0.6,0.1,1,0.7,0.9,1.3
				c0,0.1-0.7,3.5,1.3,5.7c1.4,1.5,3.8,2.2,7.2,1.9c1.5-0.1,2-0.9,1.9-1.6c0-0.5-0.4-1.2-1.5-1.2c-1.5,0-6.5-0.5-6.6-4.8
				c0-0.6,0.5-1.1,1.1-1.1c0.6,0,1.1,0.5,1.1,1.1c0,2.2,2.8,2.5,4.4,2.6c2.3,0.1,3.6,1.8,3.6,3.4c0,1.7-1.2,3.6-4,3.9
				C271.4,150.1,270.8,150.1,270.2,150.1z" style="fill:#191919;"/>
		</g>
	</g>
	<path d="M280.4,113.1c-5-1.7-8.3,3.5-8.5,3.8c0,0-8.3-4.3-14-0.1c-4.5-0.9-19.9-3.2-16.7,10.1
		c-0.4-0.1-0.7-0.1-1.2-0.1c0,0-3.8-0.4-5.3,2.9c-1.4,3.4,1.7,7.8,6,7.8l5.2,0l0.8-6.6c0,0,9.7,2.3,16.9-1.3
		c20.1,7.5,16.7-5.9,16.7-5.9C285.7,121.2,285.4,114.7,280.4,113.1z" style="fill:#191919;"/>
	<g>
		<g>
			<path d="M271.4,117.4c0,0,3.4,3.1,0.9,6.6c-2.4,3.6-8,4.7-8,4.7l-14.3,2.2l-6.5-0.6c0,0-7.4-4.5-1.7-8.7
				c0.9,0,11-0.7,15.6-1.8C262,118.8,267.9,115.3,271.4,117.4z" style="fill:#FECE2F;"/>
		</g>
		<g>
			<path d="M267.6,116c0,0-4.2-7.5-13.4-5.4c-9.3,2.1-10.6,9.3-10.6,9.3s5.6,1.4,12.8-0.2
				C263.4,118.1,267.6,116,267.6,116z" style="fill:#FFFFFF;"/>
		</g>
		<g>
			<path d="M250,120.4c1.9,0,4-0.2,6.3-0.7c7.2-1.6,11.3-3.7,11.3-3.7s-1.8-3.1-5.5-4.7c-0.5,0.1-1.1,0.1-1.6,0.3
				C252.5,113.3,250.4,118.9,250,120.4z" style="fill:#FECE2F;"/>
		</g>
		<g>
			<path d="M250.4,121.1l1.6,9.6c0,0-12.6,2.4-11.5-5.7S250.4,121.1,250.4,121.1z" style="fill:#FFFFFF;"/>
		</g>
		<g>
			<path d="M271.8,116.6c-0.8-0.8-1.9-1.3-3-1.3c-0.5-0.7-1.6-2.3-3.5-3.7c-2.4-1.7-6.3-3.5-12-2.5
				c-8.2,1.5-11.1,9.2-11.6,10.9c-1.5,0.6-2.5,1.9-2.8,3.7c-0.5,2.7,0.7,6.5,3.5,7.9c0.8,0.4,2.6,0.6,4.8,0.6
				c3.1,0,7.2-0.3,10.6-0.8c6.2-0.9,14-2.7,15.9-6.2C275.1,122.4,274.4,119.3,271.8,116.6z M253.7,111.3c7.2-1.4,11.3,2.6,12.8,4.5
				c-2.1,0.8-5.2,1.9-9.1,2.8c-3.5,0.8-7.8,0.9-10.9,0.9c-0.8,0-1.6,0-2.2,0C245.2,117.3,247.9,112.4,253.7,111.3z M271.7,124
				c-1.2,2.1-6.6,4-14.3,5.1c-7.1,1-13.2,1-14.1,0.5c-1.6-0.8-2.7-3.4-2.2-5.5c0.3-1.3,1-2.1,2.1-2.2c0.8-0.1,1.9-0.1,3.3-0.1
				c3.2,0,7.7-0.1,11.4-1c4.5-1.1,8-2.3,10.1-3.2c0.8-0.3,1.6-0.1,2.2,0.4C271.5,119.5,272.9,121.7,271.7,124z" style="fill:#191919;"/>
			<g>
				<path d="M260.5,127.5c0,0-0.1,0-0.1,0c-0.6-0.1-1-0.6-1-1.2c0.3-2.3-0.6-3.4-0.6-3.5c-0.4-0.5-0.3-1.2,0.2-1.6
					c0.5-0.4,1.2-0.3,1.6,0.2c0.1,0.2,1.4,1.9,1,5.1C261.5,127.1,261,127.5,260.5,127.5z" style="fill:#191919;"/>
			</g>
			<g>
				<path d="M267.8,125.3c-0.1,0-0.2,0-0.3,0c-0.6-0.1-1-0.8-0.8-1.4c0.4-1.8-0.7-3.2-0.7-3.2c-0.4-0.5-0.3-1.2,0.1-1.6
					c0.5-0.4,1.2-0.3,1.6,0.1c0.1,0.1,1.9,2.4,1.2,5.2C268.7,125,268.3,125.3,267.8,125.3z" style="fill:#191919;"/>
			</g>
			<g>
				<path d="M253.3,128.5c-0.4,0-0.9-0.3-1-0.7c-0.8-2.3-0.5-4.6-0.5-4.7c0.1-0.6,0.7-1,1.3-0.9c0.6,0.1,1,0.7,0.9,1.3
					c0,0-0.3,1.9,0.4,3.6c0.2,0.6-0.1,1.2-0.7,1.4C253.5,128.5,253.4,128.5,253.3,128.5z" style="fill:#191919;"/>
			</g>
			<g>
				<path d="M246.4,129c-0.5,0-0.9-0.3-1-0.8c-0.9-2.7-0.3-5-0.3-5.1c0.1-0.6,0.8-0.9,1.4-0.8c0.6,0.1,0.9,0.8,0.8,1.4
					c0,0-0.4,1.8,0.2,3.8c0.2,0.6-0.1,1.2-0.7,1.4C246.6,129,246.5,129,246.4,129z" style="fill:#191919;"/>
			</g>
		</g>
	</g>
</g>
<g>
	<g>
		<ellipse cx="591.2" cy="422.5" rx="51.1" ry="19" style="fill:#191919;"/>
	</g>
	<g>
		<g>
			<g>
				<path d="M557,337c-1.9,0-11.8,8.4-18.3,31.2c0,0,11.3,5.5,33.5,5.4C572.3,373.5,566.2,337,557,337z" style="fill:#FECE2F;"/>
			</g>
			<g>
				<path d="M559,338.6c0,0-10.5,10.1-9.4,32.7l-10.1-2.9c0,0,0.6-6.5,5.1-15.9C549,343,555.1,333.2,559,338.6z" style="fill:#FFFFFF;"/>
			</g>
			<g>
				<path d="M546,348.5c0,0-12.3-14.1-21.4-14.3l7.2,30.2l6.9,3.7L546,348.5z" style="fill:#FECE2F;"/>
			</g>
			<g>
				<path d="M524.6,334.2c0,0,9.3,14.1,16.4,26.9l-2.3,7.1c0,0-6.5-1-6.9-3.7S524.6,334.2,524.6,334.2z" style="fill:#FFFFFF;"/>
			</g>
			<g>
				<path d="M520.8,332.7c0,0-11.5-2.9-17.4,1c0,0-0.3,8.6,3.9,17.1l1.9-3.8l7.3-11.2L520.8,332.7z" style="fill:#FFFFFF;"/>
			</g>
			<g>
				<path d="M572.4,334.1c0,0-4.4,2.8-6.6,13.6c0,0,3.1,10.9,3.3,10.8c0.2-0.1,6.1-10.8,6.1-10.8l3.7-5.7
					C578.9,342.1,574.8,334.3,572.4,334.1z" style="fill:#FECE2F;"/>
			</g>
			<g>
				<polygon points="584.3,313.5 573.1,332.6 568.1,328.1 559.7,316.5 				" style="fill:#FFFFFF;"/>
			</g>
			<g>
				<path d="M590.4,329.3c-3.2-0.4-15.8,14.5-21.3,29.9l3.9,14.1l13.8-0.3c0,0,3.1-7.1,7.7-12.8
					c4.6-5.7,7.3-8.3,7.3-8.3S597.5,330.2,590.4,329.3z" style="fill:#FECE2F;"/>
			</g>
			<g>
				<path d="M590.2,330.1c0,0-12.8,20-11.5,43.7c-1.5,0-6.4,0.8-6.4,0.3s-1.8-14.8-1.8-14.8s5.4-13.6,10.5-22
					C586,328.9,590.2,330.1,590.2,330.1z" style="fill:#FFFFFF;"/>
			</g>
			<g>
				<path d="M623.8,340c0,0-12,1.9-22,11.9c-10,10.1-14.9,21.1-14.9,21.1s19.2-0.6,26.6-8.3
					c7.4-7.7,11.9-17.5,11.9-17.5L623.8,340z" style="fill:#FECE2F;"/>
			</g>
			<g>
				<path d="M625.1,344.2c0,0-21.3,7.6-25.8,27c-1.1,0.6-12.5,2.9-12.5,2.3S591,363.4,599,355c8-8.4,22-14.6,24.8-15
					L625.1,344.2z" style="fill:#FFFFFF;"/>
			</g>
			<g>
				<path d="M644.9,342l-9,16.5c0,0-5.3-13.5-10.5-11.3l-1.5-7.2C623.8,340,635,337.5,644.9,342z" style="fill:#FFFFFF;"/>
			</g>
			<g>
				<g>
					<circle cx="554.4" cy="359.9" r="5.2" style="fill:#FFFFFF;"/>
				</g>
				<g>
					<g>
						<path d="M554.4,366.2c-3.5,0-6.3-2.8-6.3-6.3c0-3.5,2.8-6.3,6.3-6.3c3.4,0,6.3,2.8,6.3,6.3
							C560.7,363.4,557.9,366.2,554.4,366.2z M554.4,355.9c-2.2,0-4,1.8-4,4c0,2.2,1.8,4,4,4c2.2,0,4-1.8,4-4
							C558.5,357.7,556.6,355.9,554.4,355.9z" style="fill:#191919;"/>
					</g>
					<g>
						<circle cx="554.4" cy="359.9" r="2.1" style="fill:#191919;"/>
					</g>
				</g>
			</g>
			<g>
				<g>
					<circle cx="585.8" cy="353.9" r="5.2" style="fill:#FFFFFF;"/>
				</g>
				<g>
					<g>
						<path d="M585.8,360.2c-3.5,0-6.3-2.8-6.3-6.3s2.8-6.3,6.3-6.3c3.4,0,6.3,2.8,6.3,6.3S589.3,360.2,585.8,360.2z
							 M585.8,349.9c-2.2,0-4,1.8-4,4s1.8,4,4,4c2.2,0,4-1.8,4-4S588.1,349.9,585.8,349.9z" style="fill:#191919;"/>
					</g>
					<g>
						<circle cx="585.8" cy="353.9" r="2.5" style="fill:#191919;"/>
					</g>
				</g>
			</g>
			<path d="M645.9,341.6c-0.1-0.3-0.3-0.6-0.6-0.7c-12-4.8-21.1-2.2-21.7-2.1c-8.7,2.1-15.6,6.4-21.1,11.1
				c-1.4-5.6-6-21.4-12.8-21.2c-1.1,0-4.3,0.1-11.2,10.8c-1.3-2.2-3.4-4.4-4.5-5.5l11.3-20.1c0.2-0.4,0.2-0.8,0-1.2
				s-0.6-0.5-1.1-0.5l-24.6,3c-0.4,0-0.7,0.3-0.9,0.7c-0.1,0.4-0.1,0.8,0.1,1.1l11.9,17c-1.4,1.3-3.8,4.4-5.6,10.4
				c-2.6-5.7-5.3-8.6-8-8.6c0,0-0.1,0-0.1,0c-3.4,0-7,3.7-10.9,11.4c-12.1-12.5-23-15.9-30.2-16.5c-8.1-0.7-13.2,1.9-13.4,2
				c-0.4,0.2-0.7,0.7-0.6,1.1c1.6,12.5,5,18.8,5.1,19c0.2,0.4,0.6,0.6,1,0.6c0,0,0.1,0,0.1,0c0.4,0,0.8-0.4,1-0.8
				c3.6-12.6,7.7-16.4,10.6-17.4c1.9-0.7,3.4,0,4,0.3l6,25.2c0.1,0.5,0.6,0.9,1.1,0.9c0.1,0,0.2,0,0.3,0c0.6-0.1,1-0.7,0.8-1.3
				l-5.9-24.7c7.8,3.2,14.3,8.8,19,13.8c-0.4,0.9-0.8,1.7-1.2,2.7c-3.5,7.8-6,15.7-6,15.8c-0.2,0.6,0.1,1.2,0.7,1.4s1.2-0.1,1.4-0.7
				c3.5-11.2,10.9-28.5,16.3-30.2c0.2,1.8,0.5,5.5-0.8,9.2c-0.2,0.6,0.1,1.2,0.7,1.4c0.1,0,0.3,0.1,0.4,0.1c0.4,0,0.9-0.3,1-0.7
				c1.3-3.7,1.2-7.4,1-9.5c1.8,1.2,4.7,5.2,8.4,17c2.7,9,4.5,18,4.5,18.1c0.1,0.5,0.6,0.9,1.1,0.9c0.1,0,0.1,0,0.2,0
				c0.6-0.1,1-0.7,0.9-1.3c0-0.1-1.2-6.4-3.2-13.7c0.1-0.3,0.5-1,1.1-2.2c2.2,2.7,8,8.2,17.7,9.2c-2.1,3.5-3.1,5.9-3.1,6.1
				c-0.2,0.6,0,1.2,0.6,1.5c0.1,0.1,0.3,0.1,0.4,0.1c0.4,0,0.9-0.3,1-0.7c0.1-0.3,10.8-25.6,35-32.1l0.9,4.9
				c-1.6,5.7-7.2,14.6-13.9,19.9c-0.5,0.4-0.6,1.1-0.2,1.6c0.4,0.5,1.1,0.6,1.6,0.2c6.1-4.9,12.4-13.7,14.5-20.5
				c2.2,0.1,4.3,2,6,5.6c1.6,3.2,2.3,6.5,2.3,6.6c0.1,0.4,0.4,0.8,0.9,0.9c0.1,0,0.1,0,0.1,0c0.4,0,0.8-0.2,1-0.6l9.6-17.4
				C646,342.3,646,341.9,645.9,341.6z M504.8,338.1c-0.2-1.2-0.4-2.4-0.6-3.7c1.5-0.6,5.5-1.9,11.1-1.5
				C509.5,334,506.4,336.4,504.8,338.1z M507.7,349.2c-0.7-1.8-1.6-4.5-2.4-8c0.2-0.4,2.1-4.4,10.1-6
				C512.6,337.8,509.9,342.4,507.7,349.2z M582.3,314.8l-7.8,13.8l2.9-13.2L582.3,314.8z M561.7,317.3l6.3-0.8
				c0.4,2.1,1.6,8.2,2.5,13.4L561.7,317.3z M570.2,316.3l4.8-0.6l-2.7,12C571.6,323.3,570.7,318.5,570.2,316.3z M569.3,356.3
				c-0.1-0.4-0.3-0.9-0.4-1.3c-0.8-2.7-1.6-5-2.4-7.1c1.8-7.5,4.5-10.9,5.7-12.1c0.1,0,0.1,0,0.2,0h0l0,0c1.5,1.5,3.8,4.1,4.7,6
				c-0.4,0.7-0.9,1.5-1.3,2.3C573,348.8,570.6,353.5,569.3,356.3z M594.8,358.1c-1.8,2.2-3.2,4.3-4.5,6.2
				c-10.7-0.6-16.6-7.5-17.9-9.3c1.4-2.7,3.2-6.3,5.3-9.9c6.5-11.2,10-13.6,11.5-14.1c0.3,1.6,0.6,5.7-0.8,9.6
				c-0.2,0.6,0.1,1.2,0.6,1.5c0.1,0,0.3,0.1,0.4,0.1c0.4,0,0.9-0.3,1-0.7c1.4-3.8,1.3-7.7,1.1-9.9c3.8,2.7,7.4,13,9.1,20
				C598.3,353.9,596.4,356.1,594.8,358.1z M635.6,356.4c-1.2-4-4.2-10.8-9.6-11.2c2.1-0.3,8.5-0.3,11,8.5L635.6,356.4z M638.5,351.1
				c-3.5-8.6-10.8-8.4-13-8.1l-0.1-0.9c2.1-0.2,8.4-0.3,14.9,6L638.5,351.1z M641.3,346c-3.7-3.4-7.4-5-10.3-5.7
				c3.1,0,7.4,0.5,12.2,2.3L641.3,346z" style="fill:#191919;"/>
		</g>
		<g>
			<g>
				<path d="M616,363.5c0,0-10.9,60.4-12.4,61.3c-1.6,0.9-4.3,8.8-28.5,9s-29.5-8-29.5-8l-13.7-61.3
					c0,0,10,9.4,43.7,9.3C609.2,373.5,616,363.5,616,363.5z" style="fill:#FECE2F;"/>
			</g>
			<g>
				<path d="M573.8,377.9c-0.4,0-0.7,0-1.1-0.1l6.9,55.6l11.6-1.5l-6.9-54.1C580.8,378.2,577.4,377.9,573.8,377.9z" style="fill:#FFFFFF;"/>
			</g>
			<g>
				<path d="M561.1,377c-9.6-0.1-18.9-2.3-27.7-5.8l12.2,54.6c0,0,4.6,7.1,24.8,8C565.8,409.3,562.3,385.5,561.1,377z" style="fill:#FFFFFF;"/>
			</g>
			<path d="M616.9,360.7L616.9,360.7c-0.6-0.2-1.3,0.1-1.4,0.7c-0.9,2.9-5.6,5.8-13,7.9c-7.8,2.2-18.1,3.5-28.7,3.5
				c-11.4,0-22.1-1.4-30.1-3.9c-7.4-2.3-11.8-5.5-11.8-8.4c0-0.6-0.5-1.1-1.1-1.1s-1.1,0.5-1.1,1.1c0,0.2,0,0.3,0,0.5
				c0,0.1,0,0.3,0,0.5l0.5,2.4c-0.3,0.2-0.6,0.6-0.6,1c0,1.1,0.3,2.2,1,3.2c0,0.1,0.1,0.2,0.1,0.3c0,0.1,0.3,0.5,0.8,1.3l12.5,55.4
				v0c1.7,6.2,13,10,30.3,10c16.4,0,28.3-3.9,30.3-9.9c0,0,0-0.1,0-0.1l11.6-55.7c0.5-0.8,0.7-1.3,0.8-1.4c0.1-0.1,0.1-0.2,0.1-0.4
				c0.2-0.4,0.4-0.8,0.5-1.2c0.1-0.5-0.1-1-0.5-1.3l0.6-3.1C617.9,361.4,617.5,360.8,616.9,360.7z M602.5,424.5
				c-1.8,4.9-13.4,8.3-28.2,8.3c-15.8,0-26.8-3.2-28.2-8.3l-11.3-50.1c1.7,2.2,4,4.9,6.7,7.5c4.9,4.7,10.2,8.3,15.7,10.7
				c0,0,0,0.1,0,0.1c0,2,1.6,3.7,3.7,3.7l26.7,0c2,0,3.7-1.6,3.7-3.7c0-0.1,0-0.3,0-0.4c6.2-2.7,11.2-6.6,14.8-10.1
				c2.8-2.8,5.1-5.5,6.8-7.8L602.5,424.5z M536.3,372.7c1.9,1,4.1,1.8,6.6,2.7c8.2,2.6,19.1,4,30.8,4c16.2,0,30.1-2.7,37.8-6.8
				c-1.7,2.4-4.1,5.3-7.1,8.2c-4.4,4.2-9.1,7.5-14.1,9.6c-0.7-0.8-1.7-1.3-2.8-1.3l-26.7,0c-1.2,0-2.2,0.6-2.9,1.4
				c-6.2-2.7-11.2-6.6-14.9-10.2C540.3,377.6,538.1,375,536.3,372.7z M602.4,373.6c-7.8,2.2-18.1,3.5-28.7,3.5
				c-11.4,0-22.1-1.4-30.1-3.9c-4.9-1.5-8.4-3.4-10.3-5.3l-0.3-1.6c2.2,1.8,5.6,3.4,10,4.7c8.2,2.6,19.1,4,30.8,4
				c18.7,0,34.3-3.5,40.9-8.9l-0.3,1.5C612.3,369.9,608.2,372,602.4,373.6z" style="fill:#191919;"/>
		</g>
	</g>
</g>
<g>
	<g>
		<ellipse cx="488.1" cy="604.6" rx="20" ry="10.8" style="fill:#FECE2F;"/>
	</g>
	<path d="M530.6,621.2c6.7-0.6,15.5-0.6,24.7-0.6c26.4-0.1,42.4-0.7,42.6-7.4c0.1-3.4-4.8-6.1-16-8.8
		c-8.1-2-19.5-3.9-33.8-5.7c-24.3-3.1-48.9-4.7-49.2-4.7c-0.1,0-0.2,0-0.3,0c-0.3-0.1-0.6-0.1-0.9-0.2c-1-0.3-2.1-0.4-3.1-0.6
		c-1.6-0.3-3.3-0.4-5-0.5l0.1-7.7l6.1,2.8c0.6,1.4,2.1,2.4,3.7,2.4c2.2,0,4-1.8,4-4v-8.8c0-2.2-1.8-4-4-4c-2.2,0-4,1.8-4,4v7.7
		l-6.4-2.9c-0.3-0.1-0.7-0.1-1.1,0.1c-0.3,0.2-0.5,0.6-0.5,0.9l-0.1,9.4c-1.8,0-3.7,0.1-5.5,0.4c-2.1,0.3-4.2,0.8-6.3,1.6
		c-2.1,0.8-4.1,1.8-5.9,3.3c-0.9,0.7-1.6,1.6-2.3,2.7c-1.2-1.2-2.8-2-4.6-2h-42.2c-3.5,0-6.3,2.8-6.3,6.3c0,3.5,2.8,6.3,6.3,6.3
		h42.2c1.8,0,3.4-0.8,4.6-2c0.5,0.9,1.2,1.7,1.8,2.4c1.8,1.8,3.8,3,5.9,4c4.2,1.9,8.7,2.7,13.1,2.7c4.4,0,9-0.7,13.1-2.7
		c2.1-1,4.1-2.2,5.8-4c0-0.1,0.1-0.1,0.1-0.2c3.8,0.1,23.9,0.6,43.7,1.1c12.9,0.3,23.2,0.5,30.6,0.6c3.7,0,6.4,0.1,8.5,0.1
		c3.1,0,4.7-0.1,5.6-0.2c0,0,0,0.1,0,0.1c0,1.2-1.7,3.2-12.2,4.3c-7.8,0.8-18.1,0.8-28.1,0.9c-22.6,0.1-36.6,0.4-37.8,5.4
		c-0.2,0.8,0,1.6,0.4,2.3c1.9,2.9,8.8,4.3,20.2,6.4c5.5,1,11.2,2.1,15.3,3.4c3.9,1.2,6,2.6,5.7,3.8c-0.1,0.5-1.1,2.1-10.2,2
		c-6.4-0.1-14.7-1-22.8-1.8c-16.8-1.8-27.2-2.7-29.7,0c-1.1,1.2-1.1,2.2-0.9,2.9c0.9,2.8,6.8,4.2,16.2,6.1c3.4,0.7,6.5,1.3,9,2
		c2.8,0.8,3.6,1.5,3.8,1.7c-0.7,0.4-4.2,1.4-22-1.2c-8-1.2-15.9-2.7-19-3.3c-0.2-0.9-0.9-1.6-1.8-1.8l-2-0.5
		c-1.2-0.3-2.5,0.4-2.9,1.5c-1-0.1-2-0.1-2.9-0.3c-1.5-0.1-3-0.3-4.4-0.6c-0.4-0.1-0.7-0.1-1-0.2c-0.3-0.1-0.7-0.2-0.9-0.3
		c-0.1,0-0.1,0-0.1,0l-0.2-0.1l-0.5-0.3c-0.3-0.2-0.6-0.4-1-0.7c-1.3-0.9-2.7-1.7-4.2-2.4c-1.5-0.6-3.2-1.2-5.2-1
		c-1,0.1-2,0.5-2.8,1.1c-0.4,0.3-0.8,0.7-1.1,1.1c-0.3,0.4-0.5,0.8-0.7,1.3c-0.4,0.9-0.5,2.1-0.3,3.1c0.3,1,0.8,1.8,1.4,2.5
		s1.3,1.1,2,1.5s1.5,0.7,2.2,0.9c0,0,0,0,0.1,0c0,0,0-0.1,0-0.1l0,0c-1.1-1.1-2.1-2.2-2.7-3.4c-0.3-0.6-0.5-1.2-0.5-1.7
		c0-0.5,0.1-0.9,0.4-1.4c0.1-0.2,0.3-0.4,0.5-0.7c0.2-0.2,0.3-0.3,0.6-0.5c0.4-0.3,0.8-0.4,1.4-0.5c1.1-0.1,2.4,0.1,3.8,0.5
		c1.3,0.4,2.7,1,4,1.8c0.3,0.2,0.6,0.4,0.9,0.6l0.5,0.3l0.3,0.1c0.1,0.1,0.3,0.2,0.4,0.2c0.5,0.2,0.9,0.3,1.3,0.4s0.8,0.1,1.2,0.2
		c1.6,0.2,3.1,0.3,4.6,0.3c1,0,2,0,3,0.1c0.2,0.8,0.9,1.5,1.8,1.7l2,0.5c0.9,0.2,1.9-0.1,2.5-0.8c3,0.6,10.8,2.1,18.7,3.3
		c9.4,1.4,15.1,1.9,18.6,1.9c4.3,0,5.2-0.7,5.7-1c0.6-0.5,0.8-1,0.9-1.4c0.3-3.1-5.1-4.3-14.7-6.2c-5.2-1-14-2.8-14.6-4.6
		c-0.1-0.2,0.2-0.6,0.4-0.7c0.4-0.4,2-1.2,9.3-0.9c5.2,0.2,11.7,0.9,18.6,1.6c21.5,2.2,34.6,3.2,35.5-2c1-5.4-10.1-7.5-22.8-9.8
		c-7.7-1.4-17.2-3.2-18.7-5.5c-0.1-0.2-0.1-0.4-0.1-0.5C519.8,623.6,521.2,622,530.6,621.2z M503.9,608.3c-1.3,1-2.9,1.9-4.7,2.4
		c-3.5,1.2-7.3,1.7-11,1.7c-1.9,0-3.8-0.1-5.7-0.4c-1.9-0.3-3.7-0.7-5.4-1.3c-1.7-0.6-3.4-1.4-4.6-2.5c-1.3-1-2.1-2.3-2.2-3.7
		c-0.1-1.3,0.6-2.9,1.8-4.1c1.2-1.3,2.8-2.4,4.6-3.1c3.3-1.5,6.9-2.2,10.6-2.4l-0.1,6.9c-2.7,0.3-4.8,1.4-4.8,2.8
		c0,1.5,2.7,2.8,5.9,2.8s5.9-1.3,5.9-2.8c0-1.3-2-2.5-4.7-2.8l0.1-6.9c3.5,0.1,7.1,0.9,10.2,2.4c1.8,0.9,3.4,1.9,4.6,3.2
		c0.6,0.6,1.1,1.3,1.4,2.1c0.3,0.7,0.4,1.4,0.4,2.1C506,605.9,505.2,607.2,503.9,608.3z M528.5,605c-8.4-0.6-15.3-1.1-18.4-1.3
		c-0.1-1-0.5-2-1-2.9c-0.6-1.1-1.5-2.1-2.4-2.8c-0.6-0.5-1.2-0.9-1.8-1.3c5.5,0.4,14.2,1.2,24.1,2.1L528.5,605z M530.7,605.2
		l0.5-6.1c5.3,0.6,10.9,1.2,16.5,1.9c3.5,0.4,6.7,0.9,9.6,1.3l-0.4,5c-1.7-0.1-3.5-0.3-5.3-0.4C544.5,606.2,537.2,605.6,530.7,605.2
		z M581.8,609.2c-5.8-0.5-13.3-1.1-22.5-1.9l0.4-4.8c19.9,2.9,28.9,5.7,32.8,7.7C590.4,610,587.1,609.7,581.8,609.2z" style="fill:#191919;"/>
</g>
<g>
	<path d="M507.4,482.6v6.5c0,6,9,10.8,20,10.8c11,0,20-4.9,20-10.8v-6.5H507.4z" style="fill:#FECE2F;"/>
	<g>
		<ellipse cx="527.4" cy="482.6" rx="20" ry="10.8" style="fill:#FFFFFF;"/>
	</g>
	<path d="M527.4,470.7c-11.8,0-21.1,5.3-21.1,11.9v6.5c0,6.7,9.3,11.9,21.1,11.9c11.8,0,21.1-5.3,21.1-11.9v-6.5
		C548.5,476,539.3,470.7,527.4,470.7z M527.4,472.9c10.2,0,18.9,4.4,18.9,9.7s-8.6,9.7-18.9,9.7s-18.9-4.4-18.9-9.7
		S517.2,472.9,527.4,472.9z M546.3,489.1c0,5.3-8.6,9.7-18.9,9.7s-18.9-4.4-18.9-9.7v-1c3.4,3.9,10.5,6.5,18.9,6.5
		s15.4-2.6,18.9-6.5V489.1z" style="fill:#191919;"/>
	<g>
		<path d="M518.3,484.6c-0.3,0-0.7,0.1-1,0.2c-1.6-1.9-4.6-2.4-6.7-1.2c-0.5,0.3-0.7,1-0.4,1.5s1,0.7,1.5,0.4
			c1-0.6,2.4-0.4,3.4,0.2c-0.3,0.2-0.6,0.4-0.9,0.6c-0.5,0.3-0.6,1-0.3,1.6c0.2,0.3,0.6,0.5,0.9,0.5c0.2,0,0.4-0.1,0.6-0.2
			c1.1-0.8,2.2-1.2,3.2-1.4c1.1-0.1,2.2,0.1,2.9,0.7c0.5,0.4,1.2,0.3,1.6-0.1c0.4-0.5,0.3-1.2-0.1-1.6
			C521.8,484.8,520.1,484.4,518.3,484.6z" style="fill:#191919;"/>
		<path d="M526,476.9c-1.4-0.7-3.1-0.6-4.5,0c-1.9-1.4-4.8-1-6.4,0.8c-0.4,0.5-0.3,1.2,0.1,1.6c0.2,0.2,0.4,0.3,0.7,0.3
			c0.3,0,0.6-0.1,0.9-0.4c0.6-0.7,1.7-1,2.6-0.8c-0.2,0.3-0.4,0.5-0.6,0.9c-0.3,0.5-0.1,1.2,0.4,1.5c0.2,0.1,0.4,0.1,0.6,0.1
			c0.4,0,0.8-0.2,1-0.6c0.8-1.4,2.8-2,4.2-1.3c0.6,0.3,1.2,0,1.5-0.5C526.7,477.8,526.5,477.2,526,476.9z" style="fill:#191919;"/>
		<path d="M540.8,481.4c-1.3-0.7-2.9-0.8-4.5-0.4c-1.5,0.4-2.8,1.1-3.7,1.7c-1.7-0.5-3.4-0.4-4.7,0.4
			c-0.5,0.3-0.7,1-0.4,1.5s1,0.7,1.5,0.4c0.8-0.5,2-0.5,3.2-0.1c1.2,0.4,2.3,1.3,3.2,2.1c0.2,0.2,0.5,0.3,0.7,0.3
			c0.3,0,0.6-0.1,0.9-0.4c0.4-0.4,0.4-1.2-0.1-1.6c-0.6-0.5-1.2-1-1.8-1.4c0.6-0.3,1.2-0.6,1.8-0.7c1.1-0.3,2.1-0.2,2.9,0.2
			c0.6,0.3,1.2,0.1,1.5-0.5C541.5,482.3,541.3,481.6,540.8,481.4z" style="fill:#191919;"/>
		<path d="M531.2,479.1c0.2,0.1,0.4,0.2,0.7,0.2c0.3,0,0.7-0.1,0.9-0.4c0.5-0.6,1.5-0.8,2.1-0.3
			c0.5,0.3,1.2,0.2,1.6-0.3c0.3-0.5,0.2-1.2-0.3-1.6c-1.6-1-3.9-0.7-5.1,0.8C530.6,478,530.7,478.7,531.2,479.1z" style="fill:#191919;"/>
	</g>
</g>
<g>
	<g>
		<path d="M560.9,515.7c-9.3,0.1-26.9-0.2-41.6,9s-14.8,19.9-6.9,27l47.8-8.9l42.9,10.5c0,0,13.3-9.6,2.5-21.7
			C594.7,519.4,574.4,515.5,560.9,515.7z" style="fill:#FECE2F;"/>
	</g>
	<g>
		<g>
			<path d="M518.8,534.6c14.7-9.1,32.3-8.8,41.6-9c13.4-0.2,33.8,3.7,44.6,15.9c1.6,1.8,2.7,3.6,3.4,5.3
				c1.9-3.9,2.5-9.3-2.9-15.3c-10.8-12.1-31.2-16.1-44.6-15.9c-9.3,0.1-26.9-0.2-41.6,9c-10.9,6.8-13.8,14.4-11.3,20.9
				C509.7,541.8,513.2,538.1,518.8,534.6z" style="fill:#FFFFFF;"/>
		</g>
	</g>
	<polygon points="581.8,518.5 583.7,543.5 589.6,521.1 600.9,512.9 	" style="fill:#FFFFFF;"/>
	<polygon points="555,523 551.6,516.1 561.2,513.8 569.2,517 	" style="fill:#FFFFFF;"/>
	<g>
		<polygon points="499.3,522.6 522.9,522.6 519.1,549.2 517.6,525.9 		" style="fill:#FFFFFF;"/>
		<path d="M595.3,522.3c-1.1-0.5-2.2-1-3.4-1.5l9.6-7c0.4-0.3,0.6-0.9,0.3-1.4c-0.2-0.5-0.8-0.7-1.3-0.6l-19,5.6
			c0,0-0.1,0-0.1,0c-4.3-1-8.8-1.8-13.5-2.2l-6.3-2.6c-0.2-0.1-0.4-0.1-0.7,0l-9.6,2.3c-0.1,0-0.3,0.1-0.4,0.2
			c-10.3,0.7-19.8,2.9-27.6,6.4c-0.1-0.1-0.3-0.1-0.5-0.1h-23.5c-0.6,0-1,0.4-1.1,1c-0.1,0.6,0.3,1.1,0.9,1.2l15.6,2.9
			c-5.6,4.2-8.5,9.1-8.5,14.3c0,7.1,5.6,13.7,15.6,18.6c9.8,4.8,22.9,7.4,36.7,7.4s26.9-2.7,36.7-7.4c10.1-4.9,15.6-11.5,15.6-18.6
			C611,533.8,605.4,527.2,595.3,522.3z M595,515.8l-6,4.4c-0.2,0.1-0.4,0.4-0.4,0.6l-4.1,15.9l-1.3-17.4L595,515.8z M561.1,514.9
			l5.1,2.1l-10.7,4.5l-2.3-4.7L561.1,514.9z M523.8,523.9c7.6-3.5,17-5.7,27.2-6.5l2.9,6c0.2,0.4,0.6,0.6,1,0.6c0.1,0,0.3,0,0.4-0.1
			l14.2-6c0.1-0.1,0.3-0.1,0.4-0.3c3.8,0.4,7.4,1,10.8,1.9l1.7,22.9c-7.5-2.1-16.3-3.4-25.7-3.4c-14.1,0-27,2.8-36.2,7.3
			L523.8,523.9z M511.7,523.7h9.9l-2.1,14.4l-0.8-12.3c0-0.5-0.4-0.9-0.9-1L511.7,523.7z M508.5,540.9c0-4.6,2.9-9.1,8.2-13
			l1.3,19.9c-1.7,1-3.3,2-4.7,3.1C510.1,547.9,508.5,544.4,508.5,540.9z M602.3,552.5c-4.1-3.8-10-7-17.3-9.3l5.4-20.6
			c1.4,0.6,2.7,1.1,4,1.8c9.3,4.5,14.4,10.4,14.4,16.6C608.7,545,606.5,549,602.3,552.5z" style="fill:#191919;"/>
	</g>
</g>
</svg>
