<?xml version="1.0" encoding="utf-8"?>
<!-- Generator: Adobe Illustrator 21.0.0, SVG Export Plug-In . SVG Version: 6.00 Build 0)  -->
<svg version="1.1" baseProfile="tiny" id="Layer_6" xmlns="http://www.w3.org/2000/svg" xmlns:xlink="http://www.w3.org/1999/xlink"
	 x="0px" y="0px" viewBox="0 0 2000 2000" xml:space="preserve">
<path fill="#FECE2F" d="M1703.5,1151.4c-75.5-405.3-558.1-876.1-849.1-834.1c-277.2,40-268.4,193.4-539.8,467.8
	C153.6,948,114,1157.9,182.7,1347.2c-9.7,0.2-19.4,0.3-28.9,0.4c-64.7,0.7-73.5,24.5-78.2,34.6c-33.1,70.1,126.8,228.1,365.8,372.2
	c239.1,144.1,462.9,211.2,499.9,149.8c0,0,22-23.1-8.5-77.4C1377.3,1853.9,1785.2,1590,1703.5,1151.4z"/>
<g>
	<g>
		<path fill="#FFFFFF" d="M194.9,1505.1c-9.4-1.3-46-28-31-60s61-32,80.5-31.5s72.5,6,88.5,0s40-21,55.5-14.5s12,50,26,53.5
			s49-8,60.5,0.5s5.3,57.3,33,65.5c27.7,8.2,56.8,13.8,74.6,28.9s7.4,42.1,43.9,41.1s53-20,77.5-7.5s-7,37,26,44.5s68.5-6.5,75,11
			s-29,24-23.5,39.5s22.5,42.5,43.5,50.5s28.5,20.5,29,37s3,23.5,11,39.5s19,63,1,84s-66.5-1.5-76-24.5c-9.2-22.2,1.5-32.5,12-39
			s23-14.5,13-37s-119.5-121-214.5-182.5s-187.3-126.3-259-143.5c-52-12.5-106.5-13-113.5,4S224.4,1509.1,194.9,1505.1z"/>
	</g>
	<g>
		<g>
			<g>
				<circle fill="#FFFFFF" cx="556.1" cy="1209" r="9"/>
			</g>
			<g>
				<g>
					<path fill="#FFFFFF" d="M616.2,1195.2c3.3,2.6,8.2,1.8,10.5-1.8c14.8-23.3,63.6-100.5,76.4-124.9c15.1-28.8,23.2-58.8,5.9-71.3
						c-17.3-12.5-36.3-3.4-45.5,10.7c-14.9,22.9-2.9,69.8-2.9,69.8s-20.9,3-28.9,18c-8,15,5.1,51.1-2.7,63.9
						c-5.2,8.6-11.3,20-14.7,26.6C612.7,1189.3,613.5,1193.1,616.2,1195.2z"/>
				</g>
				<g>
					<path fill="#FFFFFF" d="M423.9,1287c4.7,1.4,9.5-1.6,10.4-6.4c5.7-31.1,24.3-133.9,27.4-165.2c3.7-37.1-0.7-72.3-24.3-78.2
						c-23.7-5.9-40,12-43.6,30.9c-6,30.7,26.9,75.3,26.9,75.3s-20.9,12.1-23,31.5c-2.1,19.4,27.3,52,24.6,69
						c-1.8,11.4-3.4,26.1-4.2,34.5C417.7,1282.3,420.2,1285.9,423.9,1287z"/>
				</g>
				<g>
					<path fill="#FFFFFF" d="M498.4,1292.6c6-0.1,12.3-22.9,19.5-51c7.2-28.1,2-47.4-11.5-49.1c-13.6-1.7-18.6,18.2-18.6,25.6
						c-0.1,7.4,7.7,20.2,5.7,30c-2,9.9-6,22.1-5.6,32.4C488.1,1286.5,494,1292.6,498.4,1292.6z"/>
				</g>
				<g>
					<path fill="#1A1A1A" d="M507.6,1143.2L543,794.1c0.7-7.1,7.1-12.4,14.3-11.6s12.4,7.1,11.6,14.3c0,0.2-0.1,0.5-0.1,0.7
						l-54.6,346.6c-0.3,1.8-2,3.1-3.8,2.8C508.7,1146.6,507.5,1145,507.6,1143.2z"/>
				</g>
				<g>
					<path fill="#FFFFFF" d="M692.8,962.7L728,837c1.6-5.9,7.7-9.3,13.6-7.6c5.9,1.6,9.3,7.7,7.6,13.6c-0.1,0.4-0.3,0.9-0.5,1.3
						l-50.7,120.3c-0.6,1.4-2.3,2.1-3.7,1.5C693.1,965.5,692.4,964.1,692.8,962.7z"/>
				</g>
				<g>
					<path fill="#1A1A1A" d="M236.6,1251.9l-18.1-96.2c-1.1-6,2.8-11.8,8.8-12.9c6-1.1,11.8,2.8,12.9,8.8c0.1,0.6,0.2,1.2,0.2,1.8
						l1.9,97.8c0,1.6-1.2,2.9-2.8,2.9C238.1,1254.3,236.9,1253.3,236.6,1251.9z"/>
				</g>
				<g>
					<circle fill="#FECE2F" cx="120.8" cy="1256.1" r="18.5"/>
				</g>
				<g>
					<circle fill="#FFFFFF" cx="607.9" cy="973.1" r="14.5"/>
				</g>
				<g>
					<circle fill="#FFFFFF" cx="603.8" cy="1095.1" r="13"/>
				</g>
			</g>
		</g>
		<g>
			<g>
				<path fill="#FFFFFF" d="M507.8,1756.3c-41.3-22.2-204-131.3-214-152.7s4.7-22.7,15.3-23.3c10.7-0.7,26,10,30,22s8,26,24,30.7
					c16,4.7,45.3,16.7,59.3,28.7s44.7,47.3,66,56.7c21.3,9.3,52,14.7,80,35.3s45.3,37.3,76.7,45.3c31.3,8,84.7,18,94.7,36.7
					s-6.1,26.6-21.3,24.7C681.1,1855.6,568.4,1789,507.8,1756.3z"/>
			</g>
			<g>
				<path fill="#FFFFFF" d="M410.4,1566.1c-14.2-4.6-28,8-21,25.5s18.5,40.5,39.5,49s41.5,17.5,51.5,28.5s27,29,41.5,32
					s28,7,46.5,17s35,24.5,57.5,23s20-16.5,18-20s-6.8-12.2-22.8-13.2c-38.3-2.3-85-37-112.3-54s-58.7-31.3-75.7-55
					C424.4,1586.9,419.1,1569,410.4,1566.1z"/>
			</g>
			<g>
				<path fill="#FFFFFF" d="M352.8,1577.3c4-3.3,8.3-8,4.2-17c-3.9-8.5-25.3-8.3-25.7-21.7c-0.3-13.3,16.5-13.5,33.2-12.8
					c16.7,0.7,43,16.2,71,35.5c28,19.3,60,48.3,94,60c34,11.7,66.7,27.7,91,42c24.3,14.3,33.7,29.3,51,38.7
					c17.3,9.3,52,38.7,53,51.7s-11,14.7-15.7,9.7s-34.3-19-34-4.3c0.3,14.7,43.7,28,62.3,27.3c18.7-0.7,26.7-19.7,22-34
					c-4.7-14.3-72-53.3-78.3-63.7s-16.3-26-50-45s-51.3-17.3-77.7-37.7c-26.3-20.3-68-26-92.3-53.7c-24.3-27.7-55-44-92-50.3
					c-37-6.3-58.4-0.9-64.7,16c-5.7,15.3,7.7,37.7,24.3,51C345.1,1582.3,352.8,1577.3,352.8,1577.3z"/>
			</g>
			<g>
				<path fill="#FFFFFF" d="M264.4,1524c-8-5.3-28.7-4.3-38.3,4.7c-9.7,9-8,31.7,3.3,41.3c11.3,9.7,37,10.3,45,3.3
					S290.8,1541.3,264.4,1524z"/>
			</g>
			<g>
				<path fill="#FFFFFF" d="M121.8,1419.8c-8.2-4.4-7.8-30,12.8-41.1c20.6-11.1,93-18.7,95.3-1.5c2.1,15.7-16.6,15.4-38.6,16.2
					s-36.3,3.2-43.3,11.2C141.1,1412.7,135.5,1427,121.8,1419.8z"/>
			</g>
			<g>
				
					<ellipse transform="matrix(1 -5.043761e-03 5.043761e-03 1 -6.9531 1.3461)" fill="#1A1A1A" cx="263.4" cy="1379.2" rx="12.8" ry="12.8"/>
			</g>
			<g>
				<path fill="#1A1A1A" d="M370.7,1270.5c-8.8-1.9-18.3,14.1-21.2,35.1s-3.1,42.7,7.6,44.6s17.6-22.1,19.8-39.1
					C379.1,1294.1,384.4,1273.4,370.7,1270.5z"/>
			</g>
			<g>
				<path fill="#FFFFFF" d="M457,1401.7c-4.5-3.4-16.7,0.8-20.3,7.4s-3.9,15.4,3.1,18.7s18-5.8,19.6-9.1
					C461.1,1415.4,464.4,1407.4,457,1401.7z"/>
			</g>
			<g>
				<path fill="#FFFFFF" d="M566.6,1309.5c-4.5-3.4-10.7-3.9-19.3,8.1s-32.8,47.8-30.1,56.2c2.7,8.3,10.4,14.3,22.4,4.9
					c12-9.4,20.5-27.1,26.1-39.8C571.3,1326.2,573.6,1314.8,566.6,1309.5z"/>
			</g>
			<g>
				<path fill="#FFFFFF" d="M374.3,1217.8c-5.1,0.2-9.5,4.2-10.2,11.5c-0.7,7.3,5.3,13.3,8.8,14c3.5,0.7,8.7-3.5,10.2-11.5
					S379.8,1217.6,374.3,1217.8z"/>
			</g>
			<g>
				<path fill="#FFFFFF" d="M749.7,1592.9c-2.9-3.3-9.8-5-17.8,1s-4.2,15.8-0.8,19s11,3.2,16.5-1.5S754.7,1598.6,749.7,1592.9z"/>
			</g>
			<g>
				<path fill="#FFFFFF" d="M857.5,1595.7c1.6-4.1-0.1-11-9.1-15.3c-9-4.3-15.9,3.5-17.2,8.1s2.2,11.3,8.9,13.9
					S854.7,1602.8,857.5,1595.7z"/>
			</g>
			<g>
				<path fill="#FFFFFF" d="M697.5,1519.5c5.6-6.6,5.9-13.4-9.9-9.9c-15.9,3.4-34.3,19.8-39.4,26.6c-5.1,6.9-1.8,11.7,10.4,8.4
					S687.9,1530.9,697.5,1519.5z"/>
			</g>
		</g>
		<g>
			<g>
				<path fill="#FFFFFF" d="M935.4,1424.1c-2.5-2.4-2.4-6.5,0.2-8.8c17.3-14.8,74.7-63.6,93.1-76.8c21.8-15.7,45.3-25.7,57.6-13.1
					c12.2,12.6,7,29.3-3.5,38.4c-17,14.8-56.7,10.5-56.7,10.5s0,17.4-11.3,25.7c-11.3,8.3-42.3,1.7-51.9,9.6
					c-6.4,5.3-15,11.5-20,15.1C940.6,1426.2,937.5,1426,935.4,1424.1z"/>
			</g>
			<g>
				<path fill="#1A1A1A" d="M1137.1,1371.2c-1.3-4.2,38.1-20.9,70.9-37.1c32.8-16.2,61.8-35.4,70.7-24.1c9,11.3-10.5,18-26.3,23.7
					s-50.1,15-67.3,22.7C1173.5,1361.6,1139.3,1378.4,1137.1,1371.2z"/>
			</g>
			<g>
				<ellipse fill="#FFFFFF" cx="1123.3" cy="1425" rx="16.5" ry="15"/>
			</g>
			<g>
				<ellipse fill="#FFFFFF" cx="1018.6" cy="1530" rx="13.5" ry="13.7"/>
			</g>
			<g>
				<path fill="#FFFFFF" d="M883.7,1525.4c-0.1-6,22.5-13.1,50.3-21.1c27.9-8.1,47.3-3.6,49.4,9.9c2.1,13.5-17.6,19.1-25,19.4
					c-7.4,0.3-20.4-7-30.2-4.7c-9.8,2.3-21.9,6.7-32.2,6.6C890.1,1535.4,883.8,1529.7,883.7,1525.4z"/>
			</g>
			<g>
				<path fill="#FFFFFF" d="M980.4,1584c-0.3-5.2,1.3-12,35.3-17.7c34-5.7,211-38.7,231.7-34.3c20.7,4.3,36.7,19,29.3,51.7
					s-52.7,33.7-69.7,28.3c-17-5.3-68-26-68-26s0.3,17-22,20.7c-22.3,3.7-63.7-17.7-63.7-17.7s-3,12-21.7,12.7
					C1013.1,1602.3,981.4,1599,980.4,1584z"/>
			</g>
			<g>
				<path fill="#FFFFFF" d="M920.9,1661.6c2.6-2.6,24.8-5.8,56.8-10.7c33.3-5,65.2-9.5,63.7,7.3c-1.3,14.5-54.7,10.8-67.2,10.8
					C960.3,1669.1,913.8,1668.8,920.9,1661.6z"/>
			</g>
			<g>
				<path fill="#1A1A1A" d="M1033.2,1849c3.2-1.8,25.5,0.9,57.6,4.7c33.4,3.9,65.4,8.1,59.5,23.9c-5.1,13.6-55.6-4-67.6-7.3
					C1069.2,1866.6,1024.4,1854,1033.2,1849z"/>
			</g>
			<g>
				<circle fill="#1A1A1A" cx="956.6" cy="1765.8" r="16.2"/>
			</g>
			<g>
				<circle fill="#1A1A1A" cx="987.9" cy="1896.5" r="17.4"/>
			</g>
			<g>
				<path fill="#1A1A1A" d="M1038.4,1476.8l401.1-69.1c7.1-1.2,13.8,3.5,15,10.6c1.2,7.1-3.5,13.8-10.6,15c-0.2,0-0.4,0.1-0.6,0.1
					l-403.9,49.9c-1.8,0.2-3.5-1.1-3.7-2.9C1035.5,1478.8,1036.7,1477.1,1038.4,1476.8z"/>
			</g>
		</g>
	</g>
</g>
<g>
	<g>
		<path fill="#FECE2F" d="M1199.1,1029.6c0,0-61.3-59.3-82-94c-20.7-34.7-36.7-75.7-36.7-75.7l-12.3-46.3c-12,14-49.7,47-67,58
			c-17.3,11-74.3,41-98.7,56.3s-47.7,38.7-47.7,38.7l-39,43.7l-60.7,79l-75.7,112l-43.3,70l-42,66.7c0,0-39,66-47,80
			s-19.3,15.7-37.3,42.7s-20.7,41.7-19,43.3l8-5c0,0-3.7,14-1.3,16.7s5.7-4.7,5.7-4.7s-0.7,10,1,11.7c1.7,1.7,11.7-9,11.7-9
			s-3.7,6.7,0.3,9.7s26-27.7,26-27.7c-0.7,10.3,3.7,11.3,3.7,11.3s18.7-16,26.7-25s7-21.7,7-21.7l5.3-17l25.7-38.3l41.3-48.3
			l67.7-57.7l49-41.7l1.5,0.7c3.7-3.5,8.8-5.7,13.9-5.7c1.9,0,3.7,0.3,5.4,0.8c9.9,1,17,9.3,17.9,19.1c1.4,1.5,2.7,3.2,3.6,5
			l1.7,0.8l15.3,11.3l-10,15l-21.7,25l-30.3,32.3l-53.3,49c0,0-60,51-78,64.7c-18,13.7-26,16.3-26,16.3l-20.3,18.7l-15.3,22l6.7,1.7
			c0,0-11.3,20.3-11.3,23c0,2.7,7.3-1.3,7.3-1.3s-1.3,5.3,0,8.3s12-7,12-7s2,3,4,5s12-10,12-10s0,2.3,2.7,5.3c2.7,3,36.7-36,36.7-36
			l29.3-21l84.7-48.7c0,0,77.3-38.3,132.3-70.7c55-32.3,79-65.7,79-65.7s44.7-58.7,61.7-80.3c17-21.7,47-37.3,47-37.3l91-51.3
			l70-38.7l43-23.3C1239.4,1063,1199.1,1029.6,1199.1,1029.6z"/>
	</g>
	<g>
		<path fill="#FECE2F" d="M1288.4,672.1c0,0,38.5,24.5,71,67.5s54,89.5,54,89.5l-15,12.5c0,0,31,27.5,48,53.5s33.5,56.5,33.5,56.5
			l106-88l98.5-88.5c0,0,54.5-55.5,61.5-75s31.5-88.5,40.5-142.5s34-180,34-180s0.5-45,20.5-58.5s76.5-55,72-67.5l-108.5,26
			l-58,16.5l-3,52l-23,79l-57.5,156.5c0,0-15.5,47-34,64.5s-113,81-113,81s56-66.5,67-112.5s32-144.5,39.5-191.5
			s18.5-169.5,36.5-196s57-45.5,73.5-53.5s26-23,24.5-28.5s-65.5,10-65.5,10l-104,19.5c0,0-1.5,27-9.5,49.5s-82.5,230-82.5,230
			s-28,79.5-56.5,113S1340.9,648.1,1288.4,672.1z"/>
	</g>
	<g>
		<path fill="#1A1A1A" d="M1607.4,221c-1.5,0-2.8-1.1-3-2.6c-2.6-18,15.9-30.1,16.7-30.6c1.4-0.9,3.3-0.5,4.1,0.9
			c0.9,1.4,0.5,3.2-0.9,4.1l0,0c-0.2,0.1-16,10.5-14,24.7c0.2,1.6-0.9,3.2-2.5,3.4C1607.7,221,1607.6,221,1607.4,221z"/>
	</g>
	<g>
		<path fill="#1A1A1A" d="M1773.4,336.6c-1.6,0-3-1.3-3-2.9c-0.4-18.8,12.1-30.7,12.6-31.2c1.2-1.1,3.1-1.1,4.2,0.1s1.1,3.1-0.1,4.2
			c-0.1,0.1-11,10.7-10.7,26.8C1776.5,335.2,1775.1,336.6,1773.4,336.6C1773.5,336.6,1773.4,336.6,1773.4,336.6z"/>
	</g>
	<g>
		<path fill="#FFFFFF" d="M1348.1,883.3c-0.7,0-1.3-0.2-1.9-0.7c-15.1-12.3-22.1-23.8-20.7-34.1c1.9-14.5,19.6-22.4,28.1-26.1l1-0.5
			c6.2-2.8,6.8-11.5,7.4-20.7c0.4-6.1,0.8-12.4,3.1-17.2c5-10.7,15.8-11.2,20.8-10c1.6,0.4,2.6,2,2.2,3.6c-0.4,1.6-2,2.6-3.6,2.2
			c-0.4-0.1-9.7-2.2-13.9,6.7c-1.8,3.8-2.1,9.3-2.5,15c-0.7,10.1-1.4,21.5-11,25.8l-1,0.5c-7.5,3.3-23.1,10.2-24.5,21.4
			c-1.1,8.1,5.2,17.8,18.6,28.7c1.3,1,1.5,2.9,0.4,4.2C1349.8,882.9,1349,883.3,1348.1,883.3z"/>
	</g>
	<path fill="#FFFFFF" d="M1308.4,1007.8c0.4-2.7,1.7-4.7,3.9-6.1c2.1-1.4,3.3-1.1,3.7-1c2.8,0.6,5.7,5.2,8.7,10
		c4.6,7.4,10.4,16.5,20.4,18.7c5.4,1.2,9.6,0.9,13.1,0.6c4-0.3,6.4-0.4,8.8,1.5c1.8-1.1,3.5-2.2,5.2-3.3c-4.7-4.8-9.4-4.5-14.4-4.2
		c-3.2,0.2-6.8,0.5-11.4-0.5c-7.5-1.6-12.3-9.3-16.6-16c-3.7-5.9-7.2-11.5-12.5-12.7c-2.6-0.6-5.4,0-8.2,1.8
		c-3.6,2.3-5.8,5.8-6.6,10.2c-2.6,16.1,16.4,42.2,22.4,50c1.7-1,3.5-2,5.2-3.1C1322.4,1044,1306.4,1020.5,1308.4,1007.8z"/>
	<g>
		<path fill="#1A1A1A" d="M856.1,1059.3c10-10.7,31.9-25.2,39.7-15.7c6,7.3,5,14-12,23s-15,29.3-30,27.3S842.1,1074.3,856.1,1059.3z
			"/>
		<path fill="#1A1A1A" d="M855.8,1097.1c-0.8,0-1.6-0.1-2.4-0.2c-5.8-0.8-9.9-3.8-11.6-8.4c-2.9-8,1.9-20.3,12.1-31.3
			c4.3-4.6,10.4-9.6,16.3-13.1c5.1-3.1,12.5-6.8,18.9-6.6c3.8,0.1,6.9,1.6,9,4.2c3.3,4.1,4.6,7.9,3.8,11.6
			c-1.1,5.5-6.3,10.4-16.7,15.9c-7.1,3.7-10.6,9.8-13.7,15.2C867.8,1090.7,864.1,1097.1,855.8,1097.1z M888.5,1043.5
			c-8.2,0-22.1,9.1-30.2,17.8l0,0c-8.4,9-12.9,19.4-10.8,25.1c0.9,2.5,3.1,4,6.7,4.5c5.9,0.8,8-2.5,12.1-9.5
			c3.3-5.8,7.5-13,16.1-17.5c8.4-4.4,13-8.4,13.7-11.8c0.2-1.2,0.2-3.2-2.6-6.6c-1-1.3-2.5-1.9-4.6-2
			C888.8,1043.5,888.6,1043.5,888.5,1043.5z M856.1,1059.3L856.1,1059.3L856.1,1059.3z"/>
	</g>
	<path fill="#1A1A1A" d="M987.6,1054.6L987.6,1054.6c-1-1.7-2.8-2.8-5-3.1c-2-0.2-4.1,0.3-5.9,1.4c-1.9,1.1-3.3,2.7-4,4.6
		c-0.8,2-0.7,4.2,0.3,5.9c1,1.7,2.8,2.8,5,3.1c0.3,0,0.6,0.1,1,0.1c1.7,0,3.4-0.5,5-1.4C987.9,1062.6,989.6,1057.9,987.6,1054.6z"/>
	<path fill="#1A1A1A" d="M1082.1,1158.1L1082.1,1158.1c-1-1.7-2.8-2.8-5-3.1c-2-0.2-4.1,0.3-5.9,1.4c-1.9,1.1-3.3,2.7-4,4.6
		c-0.8,2-0.7,4.2,0.3,5.9c1,1.7,2.8,2.8,5,3.1c0.3,0,0.6,0.1,1,0.1c1.7,0,3.4-0.5,5-1.4C1082.4,1166.1,1084.1,1161.4,1082.1,1158.1z
		"/>
	<g>
		<path fill="#1A1A1A" d="M833.8,1281.3c-0.9,0-1.9-0.4-2.5-1.3c-1-1.4-0.6-3.2,0.7-4.2c7.8-5.5,8.6-13.7,8.6-13.8
			c0.1-1.7,1.6-2.9,3.2-2.7c1.7,0.1,2.9,1.6,2.7,3.2c0,0.5-1.1,11.1-11.1,18.2C835,1281.1,834.4,1281.3,833.8,1281.3z"/>
	</g>
	<g>
		<path fill="#1A1A1A" d="M867.8,1286c-0.5,0-1-0.1-1.5-0.4c-0.9-0.5-1.5-1.4-1.5-2.5l-1.2-26.7c0-1,0.4-2,1.3-2.6
			c0.8-0.6,1.9-0.7,2.9-0.3c1.5,0.6,14.2,6.3,14.7,15.3c0.4,8.9-11.8,16-13.2,16.8C868.8,1285.8,868.3,1286,867.8,1286z"/>
	</g>
	<path fill="#FFFFFF" d="M869.8,1261.4l0.7,16c2.9-2.3,6-5.5,5.9-8.4C876.3,1266.3,872.9,1263.4,869.8,1261.4z"/>
	<g>
		<path fill="#1A1A1A" d="M1763.4,502.1c-0.3,0-0.6,0-0.9-0.2c-1.6-0.5-2.4-2.2-1.9-3.8c3.9-11.7-5.3-22.5-5.4-22.6
			c-1.1-1.2-1-3.1,0.3-4.2c1.2-1.1,3.1-1,4.2,0.3c0.5,0.5,11.6,13.5,6.6,28.4C1765.9,501.3,1764.7,502.1,1763.4,502.1z"/>
	</g>
	<g>
		<path fill="#1A1A1A" d="M1772.9,476.6c-0.3,0-0.7-0.1-1-0.2c-1.6-0.6-2.4-2.3-1.8-3.9c2.8-7.6-4.7-15.3-4.8-15.3
			c-1.2-1.2-1.2-3.1,0-4.2c1.2-1.2,3.1-1.2,4.2,0c0.4,0.4,10.3,10.5,6.2,21.7C1775.3,475.9,1774.2,476.6,1772.9,476.6z"/>
	</g>
	<g>
		<path fill="#1A1A1A" d="M1780.4,453.6c-0.3,0-0.7-0.1-1-0.2c-1.6-0.6-2.4-2.3-1.8-3.8c2.2-6.2-5.2-10.9-5.3-11
			c-1.4-0.9-1.8-2.7-0.9-4.1c0.9-1.4,2.7-1.8,4.1-0.9c0.1,0.1,2.8,1.8,5.1,4.8c3.3,4.2,4.2,8.8,2.6,13.3
			C1782.8,452.9,1781.7,453.6,1780.4,453.6z"/>
	</g>
	<g>
		<path fill="#1A1A1A" d="M1454.4,764.1c-0.5,0-0.9-0.1-1.4-0.3c-1.5-0.8-2.1-2.6-1.3-4c8.4-16.3,0.3-48.6,0.3-48.9
			c-0.4-1.6,0.6-3.2,2.2-3.6c1.6-0.4,3.2,0.6,3.6,2.2c0.4,1.4,8.7,34.8-0.7,53.1C1456.6,763.5,1455.5,764.1,1454.4,764.1z"/>
	</g>
	<g>
		<path fill="#1A1A1A" d="M1470.4,729.6c-0.4,0-0.8-0.1-1.2-0.2c-1.5-0.7-2.2-2.4-1.6-3.9c4.5-10.2-2-27-2-27.2
			c-0.6-1.5,0.2-3.3,1.7-3.9c1.5-0.6,3.3,0.2,3.9,1.7c0.3,0.8,7.4,19.3,2,31.8C1472.7,729,1471.6,729.6,1470.4,729.6z"/>
	</g>
	<g>
		<path fill="#1A1A1A" d="M1485.4,707.6c-0.4,0-0.7-0.1-1.1-0.2c-1.5-0.6-2.3-2.3-1.7-3.9c2.9-7.4-1.6-13.6-1.6-13.6
			c-1-1.3-0.7-3.2,0.6-4.2c1.3-1,3.2-0.7,4.2,0.6c0.3,0.4,6.4,8.9,2.4,19.4C1487.8,706.9,1486.6,707.6,1485.4,707.6z"/>
	</g>
	<g>
		<path fill="#1A1A1A" d="M633.9,1336.6c-0.5,0-1-0.1-1.5-0.4c-1.4-0.8-1.9-2.7-1.1-4.1c3.9-6.7-2.3-15.7-2.4-15.7
			c-1-1.4-0.6-3.2,0.7-4.2c1.3-1,3.2-0.6,4.2,0.7c0.4,0.5,8.6,12.2,2.6,22.3C636,1336.1,635,1336.6,633.9,1336.6z"/>
	</g>
	<g>
		<path fill="#1A1A1A" d="M645.4,1321.6c-0.5,0-1-0.1-1.4-0.4c-1.5-0.8-2-2.6-1.2-4.1c1.7-3.1-1.5-9-2.8-10.8
			c-0.9-1.4-0.6-3.2,0.7-4.2c1.4-1,3.2-0.6,4.2,0.7c0.7,1,7,10.2,3.2,17.2C647.5,1321.1,646.5,1321.6,645.4,1321.6z"/>
	</g>
	<g>
		<path fill="#1A1A1A" d="M786.4,1410.6c-0.4,0-0.9-0.1-1.3-0.3c-1.5-0.7-2.2-2.5-1.5-4c2.4-5.2-0.3-14.9-1.6-18.2
			c-0.6-1.5,0.2-3.3,1.7-3.9c1.5-0.6,3.3,0.2,3.9,1.7c0.6,1.5,5.3,14.4,1.4,22.8C788.6,1410,787.6,1410.6,786.4,1410.6z"/>
	</g>
	<g>
		<path fill="#1A1A1A" d="M799.6,1392.3c-0.4,0-0.8-0.1-1.2-0.3c-1.5-0.7-2.2-2.5-1.5-4c1.8-4-1-9.4-1-9.5c-0.8-1.5-0.2-3.3,1.2-4.1
			c1.5-0.8,3.3-0.3,4.1,1.2c0.2,0.3,4.3,8,1.2,14.8C801.8,1391.6,800.7,1392.3,799.6,1392.3z"/>
	</g>
	<path fill="#1A1A1A" d="M1914.6,248.5c-1.5-1.5-2.2-2.2-29.5,4.4c-17.8,4.3-40.2,10.3-55.9,14.5c-15.9,4.3-80.5,21.9-83.4,23.8
		c-3.2,2.1-3.4,7.8-4,24.7c-0.3,7.4-0.6,16.6-1.3,27.6c-1,14.9-21.4,81.1-46.6,150.8c-12.9,35.8-24.9,66.5-35.3,90.8
		c-0.2,0.2-0.3,0.5-0.4,0.7l0,0l0,0.1c0,0.1-0.1,0.1-0.1,0.2c-0.3,0.8-0.6,1.5-0.9,2.3c-12.5,28.8-22.5,47.8-28.8,54.1
		c-7.8,7.8-20.5,18-34.7,28.8c-7.6,5.6-13.2,9.5-13.4,9.7c-0.3,0.2-0.6,0.5-0.8,0.8c-20.2,14.7-41.3,29.1-54.7,38.1
		c23.7-29.2,41.7-56.8,52.4-81c29.6-66.8,59-288.3,68.7-361.1c0.6-4.6,1.1-8.6,1.6-11.8c2.9-21.4,16.1-42,39.3-61.2
		c19.9-16.5,41-26.7,47-29.4c27.4-12.5,27.8-30.2,27.8-30.4c0-1.1-0.6-2.1-1.5-2.6c-1.3-0.8-2.2-1.4-29.3,2.9
		c-14.7,2.3-34.9,5.8-56.9,9.8c-28.2,5.1-82.5,15.2-86.6,17.3c-1.9,0.9-2,2.3-2.6,8.8c-0.8,7.9-2.2,22.5-6.9,35.6
		c-5.3,14.9-11.7,33.3-19.2,54.6c-32.5,93-81.6,233.5-102.5,266.8c-32.1,51.2-120.5,116.4-185.4,136.7
		c-70,21.9-92.9,34.3-120.9,55.5c-18,13.6-39.1,35.5-61.4,58.8c-25.6,26.6-52.1,54.2-76.2,71.5c-16.5,11.9-35.5,22.2-55.7,33.2
		c-16.7,9.1-33.7,18.3-50.2,28.9l-0.7,0.4c-0.3,0.1-0.5,0.4-0.8,0.6c-18.3,11.8-36,25.2-52.4,42c-45.1,46.3-96.4,114.1-166.4,219.8
		c-19.2,29-39.8,61.9-59,93.4l-2.1,3.3c-0.6,0.8-1.1,1.7-1.6,2.5c-0.2,0.3-0.2,0.6-0.3,0.9c-40.6,66.7-74.3,125.8-75.7,128.1
		c-4.6,7.2-12.1,16.7-17.7,20.4c-7.4,4.8-24.1,26.7-31.6,40c-10.1,18-13.3,26.4-11.8,31.1c0.5,1.5,1.4,2.7,2.8,3.4
		c0.4,0.2,1,0.5,1.9,0.5c0.7,0,1.6-0.2,2.7-0.8c-2.2,9,0.2,10.4,1.3,11c1.5,0.9,3.1,0.8,5.2-0.5c-0.3,2.3,0,4.3,0.9,5.6
		c0.9,1.2,2.2,1.8,3.7,1.8c0.2,0,0.4,0,0.7,0c1.5-0.2,3.4-1,6.8-4.3c0.1,0.2,0.1,0.3,0.2,0.4c0.8,1.8,2.1,3.1,4,3.7
		c0.5,0.2,1,0.3,1.5,0.3c2.9,0,7.4-3.2,20.1-19.8c0.5-0.7,1-1.3,1.5-2c0.3,1.7,0.9,3.2,1.8,4.3c0.9,1.1,2.2,1.8,3.7,1.8
		c0.1,0,0.1,0,0.2,0c3.9,0,7.8-4.1,12.7-9.4c2.6-2.7,5.2-5.5,7.8-7.7c14.4-12,16.7-23.6,17.5-34.5l12-23.6
		c5.3-8.5,12-18.4,19.2-28.4l0.4-0.6c0,0,0,0,0-0.1c12.1-16.7,25.5-33.4,36-43.6c12.2-11.8,33.5-29.7,58.2-50.5
		c14.8-12.4,30.3-25.5,45.5-38.6c0.4,2.3,1.3,4.5,2.7,6.4c4.2,5.6,11.9,7.4,15.8,7.9c0.4,1.6,1.2,3.7,2.5,5.9
		c2.2,3.5,6.4,7.5,13.8,7.5c0.7,0,1.4,0,2.1-0.1c11.8-1.1,20-11.7,23.3-17c2.5,2.5,5.5,4.8,8.8,6.7
		c-15.9,27.5-77.8,85.5-123.5,127.1c-22.3,20.3-78.6,63.7-79.1,64.1c-0.1,0-5.1,3.8-10.3,6c-6.5,2.7-22.2,16.9-25.1,22
		c-2.3,4-14.9,17.6-16.9,19.6c-1.2,1.2-1.4,2.9-0.5,4.3c1.1,1.8,4.1,2.9,7,3.4c-12.9,17.1-12.4,19.9-12.1,21.5
		c0.2,1.2,0.9,2.1,1.9,2.6c0.8,0.5,1.7,0.7,2.6,0.7c1,0,2.2-0.3,3.4-0.8c-0.5,1.3-0.6,2.4-0.5,3.2c0.2,1,0.8,1.9,1.6,2.5
		c1,0.7,2.1,1,3.3,1c2.9,0,6.5-2,10.9-6.2c0.1,0.3,0.1,0.5,0.2,0.8c0.6,1.5,1.7,2.6,3.3,3c0.3,0.1,0.6,0.2,1.1,0.2
		c1.6,0,4.8-1.1,11.6-7.7c0.8,1.3,2,2.2,3.6,2.6c0.4,0.1,0.8,0.2,1.2,0.2c4,0,9.3-5.4,22.1-20.4c2.6-3,5-5.9,6.8-7.8
		c27.4-29.2,96.9-65.4,164.1-100.5c50.8-26.5,98.7-51.5,124.3-71.5c34-26.5,50.9-49.1,68.7-73.1c13.8-18.5,28.1-37.7,51.5-61.1
		c25.3-25.3,86.5-57.9,157.4-95.6c82.8-44.1,176.7-94,246.4-149.2c143.8-114,255.6-215.7,291.6-265.6
		c32.1-44.4,64.3-230.8,79.8-320.4c3.6-20.8,6.2-35.8,7.7-42.7c6.1-28.3,30.4-45.4,51.8-60.5c5.7-4.1,11.2-7.9,16.2-11.8
		c19.1-15.2,21.7-22,21.9-25.9C1917.3,252.6,1916.4,250.4,1914.6,248.5z M1155.5,1015.7c0.2-8.3,0.8-16.1,1.4-21.8
		c3,5.7,7.2,14,11,22.7c12.1,27.7,10.7,37.6,8.8,41.1c-0.6,1.2-1.9,2.8-5.5,2.9c-3.2,0.1-5.7-1-7.9-3.4
		C1157.8,1051.1,1155.1,1036.7,1155.5,1015.7z M1199.1,1125.9c-60.6,32.3-114.2,60.8-144.9,84.5c-0.3,0.1-0.5,0.2-0.8,0.3
		c-0.1,0-7.7,4.8-27.9,8.6c-21.3,4-47.7,10.7-62.7,27.3c-6.4,7.1-20.6,24.9-13.3,36.6c1,1.6,2.5,2.6,4.3,3c0.4,0.1,0.8,0.1,1.2,0.1
		c5.4,0,12.6-5.8,20.8-12.4c4.2-3.4,8.6-6.9,12.2-9.1c4.8-2.9,6-2.2,6.1-2.2c0.7,0.4,2.9,1.7,2.5,6.6c-0.2,2.7-1.2,5.2-1.3,5.5
		c-2.4,3.2-4.8,6.4-7.2,9.6c-18.4,24.7-34.3,46-67.6,72c-25.2,19.7-72.9,44.5-123.4,70.9c-40.1,20.9-81,42.2-113.5,62.3
		c-0.2,0.1-0.4,0.1-0.6,0.2c-11.7,5.9-18.1,3.4-23.7,1.2c-3.8-1.5-7.8-3-12.1-0.7c-5.3,2.8-7.3,10.3-5,19.1
		c1.7,6.8-2.7,11.1-2.9,11.3c-0.4,0.3-0.6,0.8-0.8,1.2c-2.6,2.4-5,4.7-7.1,7c-1.9,2-4.4,4.9-7,8c-4.6,5.4-13.9,16.2-17.3,18.1
		c-0.1-0.5,0.1-1.4,0.3-2.2c2.9-3.1,6.2-7,10-11.8c1-1.3,0.8-3.2-0.5-4.2c-1.3-1-3.2-0.8-4.2,0.5c-7.3,9.2-16.6,19.2-20.8,22.1
		c0.6-2,2.1-5.3,3.9-8.1c0.1-0.1,0.1-0.2,0.2-0.4c3.6-4.5,6.3-8.2,6.4-8.4c1-1.4,0.6-3.2-0.7-4.2c-1.4-1-3.2-0.6-4.2,0.7
		c-8,11.3-16.3,19.9-20.5,22.5c1.6-3.1,4.8-8,7.8-12.1c0.3-0.3,0.4-0.7,0.5-1.1c5.3-6,9.5-11.8,9.7-12.1c1-1.3,0.7-3.2-0.6-4.2
		c-1.3-1-3.2-0.7-4.2,0.6c-7.4,10-15.6,19.1-20.3,22.4c3.5-6.2,13-18.8,21.8-29.5l13.6-8.1c3.4,3.7,11.2,9.8,22.6,3.7
		c1.5-0.8,2-2.6,1.3-4.1c-0.8-1.5-2.6-2-4.1-1.3c-10.3,5.5-15.9-2.9-16.5-3.9c-0.9-1.4-2.7-1.9-4.1-1l-16.2,9.8
		c-0.3,0.2-0.5,0.4-0.8,0.7c0,0.1-3.7,4.5-8.2,10.2c-0.3,0-0.6,0-0.9,0.1c-0.8,0.3-2.3,0.1-3.5-0.1c4.4-4.7,13.1-14.3,15.3-18.3
		c2.3-4,17-17.3,22.2-19.4c6-2.5,11.4-6.5,11.7-6.7c0.6-0.4,57-44,79.5-64.5c1.9-1.7,3.8-3.5,5.7-5.2c0.1,0,0.1-0.1,0.2-0.1
		c2-1.4,8.5-5.1,11.9-3.4c2.4,1.2,4.1,3,5.8,4.7c2.2,2.2,4.7,4.8,8.4,4.8c1.5,0,3.2-0.4,5.1-1.5c4.2-2.3,7.8-10.6,14.1-26.4
		c5.7-14,12.7-31.4,20.5-40.3c0.1-0.2,0.3-0.3,0.4-0.5c24.5-24.4,44.6-46.5,52.9-61.1c0.7,0.3,1.4,0.5,2.1,0.7
		c-3.1,3.9-6.9,9.9-6.5,14.7c0.2,2.2,1.3,4,3,5.2c1.4,1,3.2,1.4,5.1,1.4c8,0,18.9-7.4,23.6-10.8c6.5,0.2,38-0.8,51.8-32.5
		c7-16.1,6.1-33.1-2.5-49.4l27.4-21.7c1.1-0.9,1.4-2.4,0.8-3.6c-0.6-1.3-2-1.9-3.4-1.6c-9.6,2.1-36.9,6.2-47.7,0c0,0-0.1,0-0.1-0.1
		c-0.1,0-0.2-0.1-0.2-0.1c-0.1,0-0.2-0.1-0.3-0.1c-0.1,0-0.2,0-0.2-0.1c-0.1,0-0.2,0-0.3,0c-0.1,0-0.2,0-0.2,0c-0.1,0-0.2,0-0.3,0
		c-0.1,0-0.1,0-0.2,0c-0.1,0-0.2,0-0.3,0.1c-0.1,0-0.1,0-0.2,0.1c-0.1,0-0.2,0.1-0.3,0.2c-0.1,0-0.1,0.1-0.2,0.1
		c-0.1,0.1-0.2,0.2-0.3,0.2c0,0-0.1,0.1-0.1,0.1c-0.1,0.1-0.2,0.2-0.4,0.4c0,0,0,0,0,0c0,0,0,0,0,0c0,0,0,0,0,0
		c-0.1,0.2-0.2,0.3-0.3,0.5c0,0,0,0.1,0,0.1c-0.1,0.1-0.1,0.3-0.2,0.5c0,0.1,0,0.1,0,0.2c0,0.1,0,0.3-0.1,0.4c0,0.1,0,0.1,0,0.2
		c0,0.1,0,0.2,0,0.4c0,0.1,0,0.1,0,0.2c0,0.1,0,0.2,0.1,0.3c0,0.1,0.1,0.1,0.1,0.2c0,0.1,0.1,0.2,0.1,0.3c0,0.1,0.1,0.1,0.1,0.2
		c0.1,0.1,0.1,0.2,0.2,0.3c0.1,0.1,0.1,0.1,0.2,0.2c0,0,0.1,0.1,0.1,0.1l8.8,8.2c3,3.2,6.4,7.4,9.5,12.2c10.3,16.3,12,32.8,4.9,48.9
		c-13.6,31.3-45.6,29-47,28.9c-0.8-0.1-1.5,0.1-2.1,0.6c-8.3,6.3-19.6,11.9-22.5,9.9c-0.3-0.2-0.5-0.4-0.5-0.9
		c-0.3-3.2,4.7-10.1,8.3-13.9c0.8-0.8,1-2,0.7-3.1s-1.3-1.8-2.5-2c-15.9-1.9-25.2-17.3-28.3-23.5c14.6-8.8,20.2-23.8,20.5-24.5
		c0.5-1.4-0.1-3.1-1.5-3.7c-2.7-1.3-10.8-6.2-12.2-11.1c-0.4-1.5-0.2-2.8,0.7-4.2c4.1-6.4,11.3-4.9,20.2-2.4c1.4,0.4,2.7,0.8,3.9,1
		c2.1,0.5,5.4,0.4,9.1-2.9c5.9-5.2,9.9-15.6,9.2-23.6c-0.8-8.4-7-13.3-10.8-15.6c20.1-27.4,31.8-49.9,32-50.2c0.8-1.5,0.2-3.3-1.3-4
		c-1.5-0.8-3.3-0.2-4,1.3c-0.3,0.5-25.7,49.6-66.5,90.8c-27.1,27.3-67.4,61.3-103,91.2c-24.7,20.8-46.1,38.8-58.5,50.7
		c-10,9.7-23.8,26.7-36.4,44.1c-0.5,0.5-9.7,9.4-22,11.5c-1.6,0.3-3,0.5-4.4,0.7c-11.2,1.8-17.3,2.9-17.8,9.3
		c-0.2,2.5,1.4,5.6,3.8,10.2c3.4,6.5,8,15.4,7.4,23.6c0,0,0,0,0,0c0,0,0,0,0,0c-0.8,10.2-2.5,20.2-15.4,30.9
		c-2.9,2.4-5.7,5.3-8.3,8.2c-2.5,2.6-6.1,6.5-7.9,7.3c-0.5-1.4-0.6-4.8-0.3-7.9c4.1-5.7,7-10,7.1-10.1l10.8-16.8
		c0.6-1,0.6-2.2,0.1-3.2c-0.6-1-1.7-1.5-2.8-1.5c-6.1,0.4-10.8-1.9-14.1-6.9c-2.7-4-3.4-8.3-3.4-8.4c-0.3-1.6-1.8-2.7-3.5-2.5
		c-1.6,0.3-2.7,1.8-2.5,3.5c1.1,6.6,6.3,18,18.4,20l-8,12.3c-2.4,3.6-4.9,7-7.2,10.3c-0.1,0.2-0.3,0.3-0.4,0.5
		c-9.8,13.6-18.6,24.2-21.8,26c0,0,0-0.1,0-0.1c-0.5-1.2,0.2-4,0.9-5.7c1.9-2.4,4-5.2,6.4-8.6c6.7-9.3,12.6-18.7,12.7-18.8
		c0.9-1.4,0.5-3.3-0.9-4.1c-1.4-0.9-3.3-0.5-4.1,0.9c-6.1,9.6-13.2,19.8-18.9,27c-0.1,0.1-0.1,0.2-0.2,0.3c-3.2,4-5.9,7-7.7,8.4
		c0.4-2.4,1.6-6.4,3.2-10l14.9-22.9c0.9-1.4,0.5-3.2-0.9-4.2c-1.4-0.9-3.2-0.5-4.2,0.9l-15.2,23.3c-2.3,2.8-4,4.6-5.1,5.7
		c0.6-3,2-7.8,3.7-12.3c0.1-0.3,0.2-0.6,0.2-0.9c3-4,6.5-9.4,10.8-16.9c0.8-1.4,0.3-3.3-1.1-4.1c-1.4-0.8-3.3-0.3-4.1,1.1
		c-5.6,9.7-13,20.4-16.6,23.3c0.1-2.3,2.1-8.6,11.5-25.3c7.5-13.4,23.6-34,29.7-38c7.4-4.8,15.8-16.2,19.6-22.2c0,0,0-0.1,0.1-0.1
		c0.5-0.9,35.9-62.9,77.9-131.8c5.9-7.5,16.6-11.9,25.3-15.5c4.6-1.9,8.5-3.5,11.2-5.3c9.2-6.3,13.5-16,17.3-24.5
		c0.5-1.1,1-2.3,1.5-3.4c6-13,8.3-14.7,23.1-25.8c1.2-0.9,2.6-1.9,4-3c15.2-11.5,16.8-23.9,18.9-39.7c0.6-4.6,1.2-9.4,2.2-14.6
		c4.4-22.3,24-60.8,24.2-61.2c0.2-0.4,0.3-0.7,0.3-1.1c37.6-52.2,69.2-90.9,98.2-120.7c14.8-15.2,30.8-27.6,47.4-38.6
		c0.4,1.4,1,2.8,2.2,4.1c2.6,2.9,6.7,4,12.3,3.3c6.3-0.8,12.8-3.4,18.4-5.7c6.3-2.6,12.9-5.3,15.6-3.5c1.5,1,2.7,3.8,3.9,6.7
		c2.3,5.5,5.6,13.3,15.1,13.3c2.1,0,4.5-0.4,7.3-1.3c12.6-4,18.8-18.4,26.1-35.1c4.6-10.6,9.4-21.6,16.4-31.4
		c16.8-23.6,39.5-40.9,51-39.2c2.3,7.6,5.3,16.6,9.2,26.5c11.3,29,32.6,72.4,69.8,115.4c-3,3.9-10,13.1-16.6,23.4
		c-12.2,19-17.1,31.9-15.1,39.4c0.8,3.1,2.8,5.4,5.8,6.5c1.2,0.5,2.5,0.7,3.7,0.7c1.8,0,3.5-0.5,5.2-1.5
		c6.5-3.8,11.5-15.3,15.3-27.8c0.4,14.4,2.8,28.8,9.4,36.1c3.2,3.6,7.2,5.4,11.8,5.4c0.3,0,0.6,0,0.9,0c6.1-0.3,9-3.4,10.4-6.1
		c6.3-11.5-4.3-38.2-13.5-57.2c28.4,29.6,54.6,49.5,72.6,61.7c15.8,10.6,27.8,16.9,34,19.9
		C1249.5,1099.1,1223.8,1112.8,1199.1,1125.9z M1150.2,995.7c-0.9,5.1-2.2,11.3-3.7,17.7c-6.3,25.8-12.3,32.6-15.3,34.4
		c-1.3,0.7-2.4,0.8-3.6,0.4c-1.2-0.5-1.9-1.2-2.2-2.5C1123,1036.9,1137.3,1013.4,1150.2,995.7z M1294.7,672.2
		c42.7-16.3,86.1-47.5,100.3-56.9c16.7-11.1,35.2-26.4,44.7-26.6c11.4-0.3,17,10.9,22.3,22.3c4.8,10.3,9.8,20.9,19.7,16.5
		c13.8-6.2,9-28.8,4.8-48.7c-1.3-6.1-2.5-11.9-3-16.4c-0.9-8.2,1.7-12.6,4.5-17.2c3-5,6.1-10.3,4.1-19.4c-6.1-27.8-3.5-43-2.6-46.6
		c0.2-0.6,0.2-0.9,0.3-1c0,0,0,0,0-0.1c23.3-58.7,52.6-142.4,74.4-204.7c7.5-21.3,13.9-39.8,19.2-54.6c4.9-13.8,6.4-28.9,7.2-37
		c0.2-1.6,0.3-3.3,0.5-4.4c15.5-4.5,142.1-27.1,163.8-29.4c-1.6,4.8-6.8,14.3-23.6,22c-5.2,2.4-21.7,10.3-39.1,23.1
		c-0.4,0-0.9,0.1-1.3,0.3c-1.4,0.7-34.8,16.6-53.5,29.9c-14.6,10.4-27.1,21.3-20.4,30.8c1.9,2.7,5.9,4,12.4,4c1.7,0,3.6-0.1,5.6-0.3
		c3-0.3,5.8-0.6,8.1-1c-0.7,2.8-1.3,5.6-1.7,8.5c-0.4,3.2-1,7.2-1.6,11.8c-9.6,72.6-39,293.4-68.2,359.4
		c-21.9,49.3-74.9,113.7-145.5,176.5c-4.2,3.7-8.4,7.4-12.6,11c-3.7-9.2-17.8-41.5-45.4-78.2
		C1337.1,704.7,1304.9,679.6,1294.7,672.2z M1891.6,276.3c-4.9,3.8-10.2,7.6-15.9,11.6c-4.4,3.1-9,6.4-13.5,9.7
		c-0.4,0-0.9,0.1-1.3,0.2c-1.2,0.5-29.5,13-44,24.8c-11,9-22,23.6-16.8,35.2c2,4.6,4.3,8.6,6.4,12.4c4.4,7.9,8,14.3,7.5,21.8
		c-0.3,2-0.5,3.3-0.5,3.6c0,0.3,0,0.6,0,0.9c-15.5,89.7-47.4,273.4-78.5,316.4c-32.6,45.1-128.2,133.5-253.7,235
		c-32.6-65.9-68.7-98.2-79-106.5c9.5-7.9,18.8-15.9,27.9-24c31.2-27.7,58.9-55.8,82.2-82.8c0.6,0,1.2-0.1,1.7-0.5
		c2.3-1.5,38.4-25.2,71.4-49.4c12.2-7,30.1-14.4,35.5-10.9c2.9,1.9,6.1,9.8,9.2,17.4c5.4,13.3,12.1,29.5,23.5,29.5
		c1.5,0,3-0.3,4.6-0.8c13-4.6,9.1-20.4,5.7-34.4c-2.3-9.6-4.8-19.5-1.7-24c9-13.4,11.2-23.5,7.9-37.1c-1.1-4.4-2.9-8.1-4.7-11.7
		c-3.4-6.8-6.3-12.7-2.9-22l0.4-1c14.2-33,28.5-71.5,36.4-93.4c25.3-70.2,45.9-137.1,46.9-152.5c0.7-11,1-20.3,1.3-27.8
		c0.3-9.1,0.6-17.8,1.6-20c11.4-4.4,147.4-41.4,161.6-42.6c0.2,0.4,0.3,0.8,0.3,1.2C1911,257.1,1908.3,263,1891.6,276.3z"/>
	<g>
		<path fill="#FFFFFF" d="M1309.3,691.5c-2.7,3.6-4.2,9.8-6,17.2c-2.7,11.3-6.2,25.3-14.8,28.1c-4,1.3-7.6,0.8-10.5-1.6
			c-4.7-3.8-7.1-11.8-6.2-20.3c1.8-16.8,22.9-28.1,28.6-30.8c-1.9-1.6-3.7-2.9-5.2-4.1c-8.6,4.5-27.4,16.3-29.3,34.3
			c-1.2,10.7,2,20.6,8.3,25.7c3,2.4,6.5,3.6,10.2,3.6c1.9,0,3.9-0.3,6-1c11.8-3.9,15.6-19.7,18.7-32.4c1.4-5.6,2.9-11.9,4.7-14.6
			C1312.2,694.1,1310.7,692.7,1309.3,691.5z"/>
		<path fill="#FFFFFF" d="M1338.8,720.1c-7.3,0.2-16.6,3.4-22.5,14c-3.5,6.3-3.9,16.1-4.4,27.4c-0.8,20.7-1.7,44.1-22.8,50.2
			c-13.2,3.8-18.8-3.2-26.6-12.7c-5-6.1-10.6-13-19.1-17.5c-8.4-4.4-21.9-5.7-33.2,1.5c-11.4,7.2-17.2,21.2-16.2,39.3
			c0.9,18.4,6.3,31.4,15.9,38.7c8.4,6.4,18.4,7.1,25.1,7.1l1.9,0c9.8,0,26.3-0.1,32.7,6.9c2,2.3,2.9,5.1,2.5,8.8l-0.3,3
			c-1.9,18.7-3.7,36.4,13.2,39.7c0.2,0,0.4,0.1,0.6,0.1c1.4,0,2.7-1,2.9-2.4c0.3-1.6-0.7-3.2-2.4-3.5c-11-2.2-10.4-13.5-8.4-33.3
			l0.3-3c0.5-5.4-0.8-9.9-4-13.5c-8.1-8.9-25.6-8.9-37.1-8.8l-1.8,0c-15.4,0-33.2-4.6-35-40.1c-1-20.3,6.8-29.7,13.5-34
			c9.2-5.9,20.5-4.7,27.1-1.2c7.4,4,12.4,10.1,17.3,16c7.8,9.6,16,19.6,32.9,14.7c25.3-7.2,26.3-34.1,27.2-55.7
			c0.4-10.1,0.8-19.6,3.6-24.7c8.1-14.6,22.7-10.5,23.3-10.3c0,0,0,0,0,0C1342.9,724.5,1340.8,722.3,1338.8,720.1z"/>
		<g>
			<path fill="#FFFFFF" d="M1263.8,1012.6c-1.1,0-2.2-0.6-2.7-1.7c-10.4-21.7-12.9-44.8-13.5-56.6c-0.3-6.2,2.8-12.2,8.1-15.4
				c56.9-35,110.2-73.7,158.2-115.2c1.3-1.1,3.1-0.9,4.2,0.3c1.1,1.3,0.9,3.1-0.3,4.2c-48.3,41.7-101.8,80.6-159,115.8
				c-3.5,2.1-5.5,6-5.3,10c0.6,11.4,3,33.5,12.9,54.3c0.7,1.5,0.1,3.3-1.4,4C1264.6,1012.5,1264.2,1012.6,1263.8,1012.6z"/>
		</g>
		<path fill="#FFFFFF" d="M1148,740.3c0.3-0.4,0.4-0.9,0.5-1.4c-4.4,3.5-8.9,7.5-13.6,11.9c-8.4,15-20.4,39.3-21.4,56.7
			c-0.7,11.9,3.3,21,11.2,25.6c3.6,2.1,7.8,3.1,12.3,3.1c6,0,12.4-1.9,18.1-5.6c20.1-12.8,30.4-47.7,31.4-68.4c0.2-4,1-6.5,2.5-7.6
			c2.5-1.9,8.3-0.4,14.4,1.1c6.2,1.6,13.2,3.4,20.3,2.8c8.6-0.7,16-4.7,21.3-11.6c6.2-8.1,8.8-19.1,6.9-29.4
			c-2.2-12-13.3-19.5-20.9-23.3c-2.8,1-5.5,2-8.1,3c4.1,1.5,20.7,8.5,23.1,21.4c1.6,8.6-0.6,18-5.8,24.7c-3,3.9-8.3,8.6-17,9.3
			c-6.1,0.5-12.6-1.2-18.4-2.7c-7.8-2-14.6-3.7-19.5-0.1c-3,2.3-4.6,6.2-4.9,12.2c-1,22.4-12.3,53.2-28.6,63.6
			c-8.1,5.2-17.6,6.1-24.1,2.3c-6-3.5-8.8-10.4-8.3-20.1C1120.9,782.9,1147.7,740.7,1148,740.3z"/>
		<path fill="#FFFFFF" d="M1207,1006.3c-0.1-0.1-0.1-0.2-0.2-0.3c-15.6-23.9-19.7-42-13.3-58.6c3.3-8.5,12.2-16.1,20.2-22.9
			c7.3-6.2,13.6-11.6,15.8-17.5c2.1-5.5,1.4-11.6-2-17.1c-3.3-5.4-12.1-14.9-33.8-17.2c-26.2-2.8-42.9,15.2-52.8,26
			c-1.2,1.3-2.3,2.5-3.3,3.5c-2.2,2.2-4.2,3.3-6,3c-2.7-0.3-4.9-3.3-5.5-4.4c-0.1-0.2-0.3-0.4-0.4-0.6c-22.6-41.1-30.9-71.7-31-72.1
			c-0.4-1.6-2.1-2.6-3.7-2.1c-1.6,0.4-2.6,2.1-2.1,3.7c0.1,0.4,2.7,10.3,9.2,26.5c6,14.9,16.4,38.3,32.5,64.6
			c27.9,45.8,78.4,109.4,160.8,155.1c2.1-1.1,4.1-2.3,6.2-3.5C1261.5,1052.9,1231.6,1029.9,1207,1006.3z M1135.9,917.9
			c-1.4-2.2-2.7-4.5-4-6.7c3.5,0.1,6.8-1.5,10.1-4.9c1.1-1.1,2.2-2.3,3.4-3.6c9.8-10.6,24.6-26.7,47.8-24.1
			c14,1.5,24.7,6.8,29.3,14.4c2.4,3.9,3,8.2,1.5,11.9c-1.7,4.4-7.7,9.6-14.1,15c-8.5,7.2-18,15.4-21.9,25.3
			c-5.3,13.8-4.4,28.3,3.4,45.3C1167.1,964.9,1149,939.4,1135.9,917.9z"/>
		<g>
			<path fill="#FFFFFF" d="M1385.1,995.4c-8.6,6.2-16.8,12-21.5,12.5c-2.7,0.3-4.9-0.4-6.7-2.1c-5.8-5.4-6.9-19.7-6.7-27.3l0-0.6
				c0.2-5.9,0.7-19.7-7.5-28.5c-4.3-4.6-10.4-7.1-18-7.3c-8.7-0.3-17.2,3.7-24.6,11.6c-12.8,13.4-20.6,36-19,54.9
				c1,11.7,6.1,25.4,15.4,40.8c4.6,7.7,9.1,13.8,11.5,17.1c1.8-1,3.5-2,5.3-3c-5.3-6.9-24.4-33.1-26.2-55.3
				c-1.4-17.1,5.9-38.2,17.4-50.3c4.3-4.6,11.3-10,20.1-9.7c5.9,0.2,10.6,2,13.8,5.4c6.5,6.9,6,19,5.9,24.1l0,0.6
				c-0.2,5.4-0.1,23.8,8.6,31.9c3.1,2.9,7,4.2,11.5,3.7c6.3-0.7,14.6-6.7,24.3-13.6c16-11.5,35.7-25.6,49.9-18.2
				c1.7-1.3,3.4-2.6,5.1-4C1426,966.1,1403.4,982.2,1385.1,995.4z"/>
			<path fill="#FFFFFF" d="M1444.3,985.1c0.7-0.1,1.4-0.4,1.9-1c0.2-0.3,0.4-0.6,0.5-0.9C1445.9,983.9,1445.1,984.5,1444.3,985.1z"
				/>
		</g>
		<path fill="#FFFFFF" d="M1451.9,908.4c-5.8-1-15.3-1.2-24.9,4.1c-4.7,2.6-8.6,6.6-12.8,10.9c-6.8,7-13.8,14.2-23.8,14.2
			c-4.4,0-7.8-1.9-10.1-5.7c-5-8.2-4-23.3,2.5-35.9c10.4-19.8,27.4-30.6,32.9-33.7c-1.5-1.6-3-3.1-4.3-4.4
			c-7.1,4.2-23.4,15.4-33.8,35.4c-7.5,14.6-8.4,31.8-2.3,41.8c3.4,5.6,8.7,8.6,15.2,8.6c12.5,0,20.8-8.5,28.1-16
			c3.9-4,7.5-7.7,11.4-9.9c12.6-6.9,25.4-2.4,25.5-2.3c0.4,0.1,0.7,0.2,1.1,0.2C1454.9,913.2,1453.4,910.8,1451.9,908.4z"/>
	</g>
</g>
</svg>
