<?xml version="1.0" encoding="utf-8"?>
<!-- Generator: Adobe Illustrator 23.0.3, SVG Export Plug-In . SVG Version: 6.00 Build 0)  -->
<svg version="1.1" id="Layer_3" xmlns="http://www.w3.org/2000/svg" xmlns:xlink="http://www.w3.org/1999/xlink" x="0px" y="0px" viewBox="0 0 800 800" style="enable-background:new 0 0 800 800;" xml:space="preserve">

<g>
	<g>
		<polygon points="721.4,533.6 496.4,535.6 496.4,93.6 721.4,93.6 		" style="fill:#FECE2F;"/>
	</g>
	<g>
		<g>
			<polygon points="721.4,105.6 721.4,93.6 496.4,93.6 496.4,535.6 508.4,535.5 508.4,105.6 			" style="fill:#FFFFFF;"/>
		</g>
	</g>
	<path d="M725.9,92.7h-3.7c-0.2-0.2-0.5-0.3-0.8-0.3h-225c-0.7,0-1.2,0.5-1.2,1.2V168h-1.4c-0.5,0-0.9,0.4-0.9,0.9v44
		c0,0.5,0.4,0.9,0.9,0.9h1.4v320.7c0,0.3,0.1,0.6,0.4,0.9c0.2,0.2,0.5,0.4,0.9,0.4l0,0l225-1c0.3,0,0.6-0.1,0.8-0.3h3.7
		c0.5,0,0.9-0.4,0.9-0.9v-440C726.8,93.1,726.4,92.7,725.9,92.7z M720.2,532.4l-222.6,1V213.9h1.4c0.5,0,0.9-0.4,0.9-0.9v-44
		c0-0.5-0.4-0.9-0.9-0.9h-1.4V94.9h222.6V532.4z" style="fill:#1A1A1A;"/>
	<g>
		<rect x="519.4" y="121.6" width="77" height="174" style="fill:#FECE2F;"/>
	</g>
	<g>
		<path d="M587.5,285.9H529c-0.7,0-1.2-0.5-1.2-1.2v-153c0-0.7,0.5-1.2,1.2-1.2h58.5c0.7,0,1.2,0.5,1.2,1.2v153
			C588.7,285.3,588.2,285.9,587.5,285.9z M530.2,283.4h56.1V132.9h-56.1V283.4z" style="fill:#FFFFFF;"/>
	</g>
	<g>
		<path d="M691.5,285.9H633c-0.7,0-1.2-0.5-1.2-1.2v-153c0-0.7,0.5-1.2,1.2-1.2h58.5c0.7,0,1.2,0.5,1.2,1.2v153
			C692.7,285.3,692.2,285.9,691.5,285.9z M634.2,283.4h56.1V132.9h-56.1V283.4z" style="fill:#FFFFFF;"/>
	</g>
	<g>
		<path d="M596.4,296.9h-77c-0.7,0-1.2-0.5-1.2-1.2v-174c0-0.7,0.5-1.2,1.2-1.2h77c0.7,0,1.2,0.5,1.2,1.2v174
			C597.7,296.3,597.1,296.9,596.4,296.9z M520.7,294.4h74.6V122.9h-74.6V294.4z" style="fill:#1A1A1A;"/>
	</g>
	<g>
		<path d="M700.4,296.9h-77c-0.7,0-1.2-0.5-1.2-1.2v-174c0-0.7,0.5-1.2,1.2-1.2h77c0.7,0,1.2,0.5,1.2,1.2v174
			C701.7,296.3,701.1,296.9,700.4,296.9z M624.7,294.4h74.6V122.9h-74.6V294.4z" style="fill:#1A1A1A;"/>
	</g>
	<g>
		<path d="M596.4,492.9h-77c-0.7,0-1.2-0.5-1.2-1.2V377.1c0-0.7,0.5-1.2,1.2-1.2h77c0.7,0,1.2,0.5,1.2,1.2v114.5
			C597.7,492.3,597.1,492.9,596.4,492.9z M520.7,490.4h74.6v-112h-74.6V490.4z" style="fill:#1A1A1A;"/>
	</g>
	<g>
		<path d="M700.4,492.9h-77c-0.7,0-1.2-0.5-1.2-1.2V377.1c0-0.7,0.5-1.2,1.2-1.2h77c0.7,0,1.2,0.5,1.2,1.2v114.5
			C701.7,492.3,701.1,492.9,700.4,492.9z M624.7,490.4h74.6v-112h-74.6V490.4z" style="fill:#1A1A1A;"/>
	</g>
	<g>
		<path d="M690.9,484.1h-58c-0.7,0-1.2-0.5-1.2-1.2v-97c0-0.7,0.5-1.2,1.2-1.2h58c0.7,0,1.2,0.5,1.2,1.2v97
			C692.2,483.6,691.6,484.1,690.9,484.1z M634.1,481.7h55.6v-94.6h-55.6V481.7z" style="fill:#FFFFFF;"/>
	</g>
	<g>
		<path d="M586.9,484.1h-58c-0.7,0-1.2-0.5-1.2-1.2v-11.8c0-0.7,0.5-1.2,1.2-1.2s1.2,0.5,1.2,1.2v10.5h55.6V387h-24.8
			c-0.7,0-1.2-0.5-1.2-1.2s0.5-1.2,1.2-1.2h26c0.7,0,1.2,0.5,1.2,1.2v97C588.2,483.6,587.6,484.1,586.9,484.1z" style="fill:#FFFFFF;"/>
	</g>
	<g>
		<g>
			<circle cx="611.3" cy="312.8" r="12.4" style="fill:#1A1A1A;"/>
		</g>
		<g>
			<path d="M618.3,313.5c-1,0-2-0.8-2.2-1.8c-0.4-2-1.9-3.7-3.9-4.1c-1.2-0.3-1.9-1.5-1.6-2.6c0.3-1.2,1.5-1.9,2.6-1.6
				c3.7,0.9,6.5,3.9,7.2,7.6c0.2,1.2-0.6,2.3-1.8,2.5C618.6,313.5,618.5,313.5,618.3,313.5z" style="fill:#FFFFFF;"/>
		</g>
	</g>
	<g>
		<path d="M655.4,330.4h-90.5c-0.7,0-1.2,0.5-1.2,1.2v19.5c0,0.7,0.5,1.2,1.2,1.2h90.5c0.7,0,1.2-0.5,1.2-1.2v-19.5
			C656.7,331,656.1,330.4,655.4,330.4z" style="fill:#1A1A1A;"/>
		<path d="M654.4,332.6c-0.4-0.5-1.2-0.6-1.7-0.1L645,339h-69.6l-7.2-6c-0.5-0.4-1.3-0.4-1.7,0.2s-0.4,1.3,0.2,1.7
			l6.5,5.4l-6.9,7.7c-0.5,0.5-0.4,1.3,0.1,1.7c0.2,0.2,0.5,0.3,0.8,0.3s0.7-0.1,0.9-0.4l7.4-8.2h69.4l7.1,8c0.2,0.3,0.6,0.4,0.9,0.4
			c0.3,0,0.6-0.1,0.8-0.3c0.5-0.5,0.5-1.2,0.1-1.7l-6.7-7.4l7-5.9C654.7,333.9,654.8,333.1,654.4,332.6z" style="fill:#FFFFFF;"/>
	</g>
</g>
<g>
	<g>
		<rect x="72" y="97.3" width="277.5" height="409.5" style="fill:#FECE2F;"/>
	</g>
	<path d="M71.8,148.4c3.3-1.8,9.1-2.5,15.4-3.5s18.4,0.4,20.6,13.2c2.2,12.8-9.7,18.3-9.7,18.3s0.3-0.5,1.1,7.1
		s6,10.1,8.4,10.5c2.4,0.4,7.8-0.3,7.6,3.4c-0.3,5.8-9.8,12.1-14.3,14.5c0.4,5.4,1.4,9.8-3.1,19.4s-20,10.1-20,10.1l0.4,21.1
		c0,0,10.4-0.8,34.1,6.3s57.4,38.5,64,44.2c10.5-21.7,22.3-43,24.2-46.1c1.9-3.1,7.5-5,7.5-5c0-1,0.6-1.6,1.3-6
		c0.8-4.4-1.5-21.7-1.5-21.7c-7.8-0.2-24.6-0.9-41.6-2.1s-3.6-3,1.7-3.6s10.4-0.6,16-1.1c-0.7-5.4,0.3-17.6,3.9-24.9
		c3.6-7.3,9.8-20.2,28.7-28.9s36.4,5.4,36.4,5.4s9.1-5.6,17.8-11.8s8.7-10.6,9.9-12.8s2.7-8.3,9.7-7.4s2.6,11.6,2.6,11.6
		s8.8,0.1,7.9,6.4s-9.1,4.7-13.9,5.1S261.4,184,261.4,184s0.4,2.6,2.5,5.2c24.3-14.8,36.5-3.1,36.5-3.1c8.8-4.6,13.2-11.5,14.7-14.5
		s2.8-10.3,9.4-10.3c9,0,3.9,11.8,3.9,11.8s8.3-0.8,7.9,5.9c-0.4,6.7-9.8,5.2-13.6,5.4s-5.8,2.3-17,8.5
		c6.7,18.5-13.7,34.6-13.7,34.6s0.7-0.3,16.9,1.1s4.6,3.3-1.4,3.8s-20.2,1.2-38.8,1.7c-23.7,24.7-35.3,34.1-35.3,34.1s1.1,0.3,4,3.2
		c-10.8,53.3-23.5,92.5-50.5,108s-86.5-9.7-101-16.6c-1.5,8.9-14,106.8-14,106.8S72,155.5,71.8,148.4z M227.6,250.6
		c9.6,0.7,20.8-9.6,29.1-16.1c-20.5,0.9-41.9-0.4-41.9-0.4S220.4,250.1,227.6,250.6z" style="fill:#1A1A1A;"/>
	<path d="M349.4,96H72c-0.7,0-1.2,0.5-1.2,1.2v409.5c0,0.7,0.5,1.2,1.2,1.2h277.5c0.7,0,1.2-0.5,1.2-1.2V97.3
		C350.7,96.6,350.1,96,349.4,96z M261.2,190.5h-92V98.8c0-0.1,0-0.2-0.1-0.3h92.2c0,0.1-0.1,0.2-0.1,0.3L261.2,190.5L261.2,190.5z
		 M261.2,193v110h-92V193H261.2z M348.2,303h-84.5V193h84.5V303z M166.7,303H73.2V193h93.5V303z M73.2,305.5h93.5v110H73.2V305.5z
		 M169.2,305.5h92v110h-92L169.2,305.5L169.2,305.5z M263.7,305.5h84.5v110h-84.5V305.5z M348.2,190.5h-84.5V98.8
		c0-0.1,0-0.2-0.1-0.3h84.6V190.5z M166.8,98.5c0,0.1-0.1,0.2-0.1,0.3v91.8H73.2v-92h93.6V98.5z M73.2,505.5V418h93.5v85.8
		c0,0.7,0.5,1.2,1.2,1.2s1.2-0.5,1.2-1.2V418h92v85.8c0,0.7,0.5,1.2,1.2,1.2s1.2-0.5,1.2-1.2V418H348v87.6H73.2V505.5z" style="fill:#1A1A1A;"/>
	<g>
		<g>
			<path d="M153.9,106.9c1.4,0.2,2.8,0.6,3.8,1.5c1.3,1.2,1.7,3,1.7,4.7c0.2,7.5-4.6,14.1-9.2,20s-9.7,12.2-10,19.7
				c-0.1,1.6,0.1,3.3-0.3,4.9c-0.9,3.6-4.2,6.1-7.6,7.7c-2.9,1.4-6.5,2.4-9.3,0.8c-2.2-1.3-3.3-3.8-3.4-6.3s0.7-4.9,1.5-7.3
				c2-5.6,4.6-11.3,9-15.3c2.5-2.3,5.5-3.9,8.1-6.1s4.8-5.1,4.9-8.5c0-1.1-0.2-2.2-1-2.9c-0.5-0.5-1.3-0.7-2-0.8
				c-10.4-1.8-20.3,6.9-30.8,6c-3.3-0.3-6.9-1.8-8-4.9c-1.2-3.3,0.7-6.9,3.2-9.4c5.9-5.7,13.3-6,20.7-4.1
				C134.7,108.9,144.4,105.4,153.9,106.9z" style="fill:#FFFFFF;"/>
		</g>
		<g>
			<path d="M116.3,134.7c0.3,0.3,0.7,0.5,1.1,0.6c3.9,1.3,8.6,0.1,11.3-2.9c2-2.2,3-5.4,0.1-7.2c-2.2-1.4-5.8-0.8-8,0.3
				C118.4,126.8,114,131.7,116.3,134.7z" style="fill:#FFFFFF;"/>
		</g>
		<g>
			<path d="M229.1,123.2c2.9,1.5,6.3,1.3,9.4,0.8c1.8-0.3,3.6-0.7,5.4-1.1c5.2-1.4,10.9-4.7,8.9-10.9
				c-1.4-4.2-4.8-6.3-9.1-5.9C237.6,106.8,216.2,116.5,229.1,123.2z" style="fill:#FFFFFF;"/>
		</g>
		<g>
			<path d="M298.9,125c2.2,0,4.3,0,6.5-0.3c2.2-0.2,4.5-0.6,6.6,0s4.2,2.4,4.1,4.6c-0.1,2-1.7,3.5-2.3,5.4
				c-1.3,3.9,2.2,8.2,6.3,8.9s8.1-1.4,11.3-4.1c4.7-4.1,8.1-10.1,8-16.4c-0.1-6.3-3.9-12.6-9.8-14.7c-3.4-1.2-7-1-10.6-0.7
				c-6.5,0.5-16.5-0.1-22.4,3.4C290.6,114.6,291.2,124.9,298.9,125z" style="fill:#FFFFFF;"/>
		</g>
		<g>
			<path d="M123.9,238.2c-0.1,0.7-0.2,1.3,0,2c0.3,1.1,1.4,1.9,2.5,2.1s2.3,0.1,3.4-0.1c4.4-0.9,8.6-2.8,12.1-5.7
				c4.8-3.9,7.4-14.8-1.9-12.9C133.8,225,125.3,231.8,123.9,238.2z" style="fill:#FFFFFF;"/>
		</g>
		<g>
			<path d="M126.9,253.7c-2.2,2.4-4.3,5.3-4.3,8.5c0,1.1,0.3,2.3,1.1,3.1c0.8,0.8,2.1,1,3.2,0.9
				c3.8-0.3,6.8-3.4,10.5-4.2c3-0.7,6.2,0.2,9.2,0.7c3.1,0.5,6.5,0.6,8.9-1.3c0.8-0.7,1.5-1.5,2-2.4c4-7.2-1.8-16.7-9.7-17.6
				C140.3,240.7,131.6,248.6,126.9,253.7z" style="fill:#FFFFFF;"/>
		</g>
		<g>
			<path d="M224.4,396c-2.4,2-3.9,5.6-2.5,8.3c1.5,2.9,5.4,3.5,8.7,3.4c5.7-0.2,11.4-1.6,16.1-4.7
				c5.6-3.7,15.4-22.4,2.9-23.5c-4.4-0.4-8.2,3.2-10.9,6.1C234.5,390.3,229.1,392,224.4,396z" style="fill:#FFFFFF;"/>
		</g>
		<g>
			<path d="M222.4,385.9c0.7,0.2,1.4,0.3,2.2,0.3c2.2,0.1,4.7,0.1,6.5-1.3c4.7-3.5,2.9-13.7-3.8-12.6
				C222.4,373.1,215.4,383.5,222.4,385.9z" style="fill:#FFFFFF;"/>
		</g>
		<g>
			<path d="M202.6,458.1c5.1-2.6,9.2-6.9,14.4-9.5c2.3-1.2,5.4-1.8,7.3,0c1.9,1.8,1.3,4.9,0.4,7.3
				c-3.5,9.2-9.9,17-16.2,24.5c-4.9,5.9-10.1,11.9-17.3,14.7c-4.2,1.6-9.7,1.5-12.2-2.2c-2.9-4.3,0.2-10-0.2-15.2
				c-0.2-2-0.8-3.9-1.3-5.8c-1.5-5.9-1.1-12.4,1.7-17.8c2.6-5,13.8-14.9,19.6-8.8c2.2,2.3,0.2,4.3-0.6,6.7
				C197,455.4,198.1,460.4,202.6,458.1z" style="fill:#FFFFFF;"/>
		</g>
		<g>
			<path d="M212.1,492.4c0.2,0.6,0.4,1.2,0.8,1.7c0.5,0.6,1.3,0.9,2.1,1c1.8,0.2,3.6-0.5,5.2-1.5
				c1.7-1.1,3.3-2.5,4.2-4.3c2.2-4.3-1.2-9.4-6.1-7.8C213.4,483.3,210.8,487.2,212.1,492.4z" style="fill:#FFFFFF;"/>
		</g>
		<g>
			<path d="M121.1,446.1c2.2,0.1,4.8,0.8,5.5,2.9c0.3,0.9,0.1,2-0.2,2.9c-1.3,3.4-4.4,5.8-6.9,8.5s-4.5,6.6-3,9.9
				c1.1,2.4,3.9,3.7,6.5,3.8c2.7,0.1,5.2-0.9,7.6-2c12.3-5.7,23.1-17,23.7-30.6c0.1-2.4-0.1-4.9-1.1-7.1c-4-9-18.7-10.1-27.1-7.6
				C118.2,429.2,106.9,445.2,121.1,446.1z" style="fill:#FFFFFF;"/>
		</g>
		<g>
			<path d="M105.8,462.7c1.1,0,2.1-0.3,3.1-0.8c1.4-0.8,2.6-2.1,3.2-3.7c2.3-6.4-3.2-6.5-7.4-4.2
				C100,456.5,97.9,462.9,105.8,462.7z" style="fill:#FFFFFF;"/>
		</g>
	</g>
</g>
<g>
	<g>
		<polygon points="740.6,582.8 477.3,577.8 477.3,535.6 742.6,533.6 		" style="fill:#FECE2F;"/>
	</g>
	<g>
		<polygon points="740.6,546.5 477.3,545.3 477.3,535 742.6,534.5 		" style="fill:#FFFFFF;"/>
	</g>
	<g>
		<polygon points="760.6,621.8 457.2,621.8 457.2,577.6 761.6,582.6 		" style="fill:#FECE2F;"/>
	</g>
	<g>
		<polygon points="760.6,589.6 457.2,589.6 457.2,577.6 761.6,582.6 		" style="fill:#FFFFFF;"/>
	</g>
	<g>
		<polygon points="781.4,666.8 436.5,666.8 434.5,622.6 784.4,622.6 		" style="fill:#FECE2F;"/>
	</g>
	<g>
		<polygon points="783.9,631.1 435.4,633.6 434.5,622.6 784.4,622.6 		" style="fill:#FFFFFF;"/>
	</g>
	<path d="M785.4,621.7c-0.2-0.3-0.6-0.4-1-0.4h-22.5l1-38.7c0-0.3-0.1-0.6-0.3-0.9c-0.2-0.2-0.5-0.4-0.9-0.4l-19.8-0.3
		l2-47.4c0-0.3-0.1-0.7-0.3-0.9s-0.6-0.4-0.9-0.4l-265.4,2c-0.7,0-1.2,0.6-1.2,1.2v41.1l-18.8-0.3c-0.3,0-0.6,0.1-0.9,0.4
		c-0.2,0.2-0.4,0.5-0.4,0.9v43.7h-21.5c-0.4,0-0.7,0.1-0.9,0.4c-0.2,0.3-0.4,0.6-0.4,1l2,44.2c0,0.7,0.6,1.2,1.3,1.2h345
		c0.7,0,1.3-0.5,1.3-1.2l3-44.2C785.7,622.4,785.6,622,785.4,621.7z M478.5,536.9l262.9-2l-1.1,25.8H478.5V536.9z M458.5,578.9
		l301.9,5l-0.5,20.8H458.5V578.9z M781.2,650H437l-1.2-26H783L781.2,650z" style="fill:#1A1A1A;"/>
</g>
<g>
	<g>
		<g>
			<path d="M438.4,703.6c0,0,19.7,3.5,33.7,30.5C472.1,734.1,438.3,722.3,438.4,703.6z" style="fill:#FECE2F;"/>
		</g>
		<g>
			<path d="M424.4,704.8c0,0,16.7,12.2,19.6,30.5c0,0-23.2-13.1-24.1-30.8L424.4,704.8z" style="fill:#FECE2F;"/>
		</g>
		<g>
			<path d="M409.1,703.5c0,0,10.3,10,7.5,22.9c0,0-16.1-9.2-12.1-23.7L409.1,703.5z" style="fill:#FECE2F;"/>
		</g>
		<g>
			<path d="M458.7,677.1c0,0-20,8.3-20.2,26.6C438.4,703.6,451.7,701.8,458.7,677.1z" style="fill:#FECE2F;"/>
		</g>
		<g>
			<path d="M420,704.4c0,0-2.4-18.3,18.2-31.2C438.1,673.2,439.6,688.4,420,704.4z" style="fill:#FECE2F;"/>
		</g>
		<g>
			<path d="M404.5,702.7c0,0-2.7-15.2,14.2-27.4C418.7,675.3,424.6,686.7,404.5,702.7z" style="fill:#FECE2F;"/>
		</g>
	</g>
	<path d="M473.2,733.6c-10.6-20.4-24.3-27.7-30.8-30l0,0c7.6-1.7,15.4-4.5,23.2-8.9c0.6-0.3,0.8-1.1,0.5-1.7
		c-0.3-0.6-1.1-0.8-1.7-0.5c-5.5,3.1-11.1,5.4-16.5,7.1c4.1-3.9,8.7-10.6,12-22.2c0.1-0.5,0-0.9-0.4-1.2s-0.8-0.4-1.3-0.2
		c-0.2,0.1-5.2,2.2-10.3,6.6c-6.4,5.5-10,12.2-10.6,19.4c-4.8,0.8-9.5,1.1-14,1.1c17.2-15.4,16.1-29.4,16-30c0-0.4-0.3-0.8-0.7-1
		c-0.4-0.2-0.8-0.2-1.2,0.1c-17.7,11.1-19,26-18.8,30.8c-4-0.2-7.7-0.6-11.2-1.2c18-15.5,12.6-26.6,12.3-27.1
		c-0.2-0.3-0.5-0.5-0.8-0.6s-0.7,0-1,0.2c-14,10.1-15,22.1-14.8,26.7c-12.2-2.6-20.1-6.5-20.3-6.6c-0.6-0.3-1.3-0.1-1.6,0.5
		c-0.3,0.6-0.1,1.3,0.5,1.6c0.2,0.1,8.5,4.3,21.4,6.9c-3.1,14.7,12.8,23.9,13,24s0.4,0.2,0.6,0.2s0.3,0,0.5-0.1
		c0.4-0.2,0.6-0.5,0.7-0.9c2.1-9.9-2.8-18-5.8-21.8c2.2,0.3,4.5,0.4,6.8,0.6c1.6,17.7,23.7,30.3,24.6,30.8c0.2,0.1,0.4,0.2,0.6,0.2
		s0.5-0.1,0.7-0.2c0.4-0.3,0.6-0.7,0.5-1.2c-2.4-14.8-13.4-25.6-18-29.6c3.3-0.1,6.6-0.5,10-1c0.3,7.9,6.1,15.4,17.3,22.5
		c8.5,5.3,16.8,8.2,17.1,8.4c0.1,0,0.3,0.1,0.4,0.1c0.3,0,0.7-0.1,0.9-0.4C473.4,734.5,473.4,734,473.2,733.6z M418,677.4
		c0.6,3.3,0.6,11.8-12.5,22.9C405.6,695.9,407,686,418,677.4z M456.7,679.4c-3.4,10.6-8,16.2-11.4,19.1c-1.4,1.2-2.7,2.1-3.8,2.7
		c-0.6,0.1-1.1,0.2-1.7,0.3C441.1,689.4,451.8,682.1,456.7,679.4z M436.9,675.5c-0.2,1.6-0.6,4.1-1.7,7c-1.7,4.8-5.6,11.8-14.1,19.3
		C421.2,696.8,423.1,685.1,436.9,675.5z M415.7,724.4c-3.6-2.6-12.4-10-10.3-20.3l3.1,0.5C409.9,706.2,417,714.2,415.7,724.4z
		 M442.3,732.7c-5.6-3.7-19.5-14.1-21-27l2.7,0.2C425.9,707.5,438.7,717.9,442.3,732.7z M439.7,705.2c1.9,0.6,5.5,1.9,9.8,4.6
		c5.5,3.5,13.2,10.1,19.9,21.9C461.6,728.5,441.1,718.8,439.7,705.2z" style="fill:#1A1A1A;"/>
</g>
<g>
	<g>
		<path d="M124.3,605.3c2.4,0.1,3.8,1.6,2.7,5.2s-3.3,12.3-0.8,16.5" style="fill:#D21A1A;"/>
	</g>
	<g>
		<path d="M159.8,666c0,0,5.2,16-0.5,28.6s-17.2,18.2-27.8,19.4s-24.4,0.1-33.1-10.9s-5.6-29-5.6-29l15.8-0.1l20.6-0.6
			l24.5-4.2l4.4-6.1L159.8,666z" style="fill:#FECE2F;"/>
	</g>
	<g>
		<path d="M159.8,666c0,0,5.2,16-0.5,28.6s-17.2,18.2-27.8,19.4s-24.4,0.1-33.1-10.9s-5.6-29-5.6-29l15.8-0.1l20.6-0.6
			l24.5-4.2l4.4-6.1L159.8,666z" style="fill:#FECE2F;"/>
	</g>
	<g>
		<path d="M123.2,709.1c-22.8,0-28.8-14.2-28.8-14.2l-0.2,0.3c0.9,2.8,2.3,5.5,4.2,7.8c8.8,11,22.6,12,33.1,10.9
			s22-6.8,27.8-19.4c2.1-4.5,2.7-9.4,2.7-13.9c-0.2-0.4-0.3-0.6-0.3-0.6C157.9,692.4,145.9,709.1,123.2,709.1z" style="fill:#FFFFFF;"/>
	</g>
	<g>
		<path d="M119.4,628.6c0,0-10.2-4.5-20.5-0.5s-13.4,13-12.2,22.8s13.1,14.4,13.1,14.4s10,5.6,25.4,2.8
			c1.4-0.2,12.8,2.1,20.9-4c0,0,8.6-2.4,12.4-8.6s5.8-19.8-4.1-26.5s-25.4-1.1-25.4-1.1S121.7,627.9,119.4,628.6z" style="fill:#FECE2F;"/>
	</g>
	<g>
		<path d="M156.1,630.4c-0.5-0.5-1.1-0.9-1.8-1.4c-9.9-6.8-25.4-1.1-25.4-1.1s-1.8,0-3.9,0.1c-1.4,0.4-2.9,0.5-4.4,0.4
			c-0.5,0.1-0.9,0.2-1.2,0.3c0,0-1-0.4-2.7-0.9c-0.7-0.2-1.5-0.4-2.2-0.5c-3.9-0.8-9.8-1.3-15.7,1c-6.3,2.5-9.9,6.8-11.5,12.1
			c1.7-1.1,3-3.1,4.8-4.2c2.9-1.7,6.7-2.2,10-1.7c1.1,0.2,2.1,0.4,3.2,0.4c0.5,0,0.9-0.1,1.4-0.2c-3,2.2-6.2,5.7-7.5,10.8
			c-2.7,10.3,1.5,19.5,1.5,19.5c1.6-20.3,8.8-27.5,13.2-30.1c1.5-0.9,3.3-1.1,5-0.8h0.1c2.2,0.5,4.1,1.9,5.1,4
			c2.7,5.5,5.4,16.1-2,30.6l3.1-0.5c0,0,6.6-6.8,6.9-18c0.1-4.1-0.7-7.6-1.7-10.3c0.1,0.1,0.1,0.1,0.2,0.2c0,0,0,0,0-0.1
			c0.4-4.1,5.5-5.8,8.5-3c2.3,2.2,4.6,5.9,4.6,11.9c0,12.2-3.8,18.8-3.8,18.8s4.2,1.3,6.1-3.5c1.9-4.8,3-12.2,0.5-20.2
			c-0.9-2.9-2.3-5.3-3.8-7.4c0.7,0.8,1.4,1.7,2.1,2.5c-0.6-2.7-0.3-5.9,1.8-7.8C149.1,629.1,152.7,629.4,156.1,630.4z" style="fill:#FFFFFF;"/>
	</g>
	<g>
		<path d="M113.4,626.8c0,0,3.3-20.5,10.8-21.5c0,0,4.7-0.2,2.7,6.2c-1.2,3.7-3.8,10.7-0.8,15.5l-5.7,1.5L113.4,626.8z" style="fill:#FECE2F;"/>
	</g>
	<g>
		<path d="M124.3,605.3c-5.1,0.7-8.3,10.5-9.8,16.6c5.5,0.7,8.7-1.2,10.5-3c0.4-2.9,1.4-5.6,2-7.4
			c0.1-0.4,0.2-0.8,0.3-1.2l0.1-2.4C127,605.2,124.3,605.3,124.3,605.3z" style="fill:#FFFFFF;"/>
	</g>
	<path d="M158.1,657.9c3.6-4.5,4.6-9.1,4.8-12.2c0.4-7.7-3.4-15.1-9.5-18.4c-11.7-6.4-22.3-1.2-22.8-1
		c-0.2,0.1-0.3,0.2-0.4,0.4c-1.1-0.2-2-0.2-3-0.1v-0.1c-2.5-4-0.5-10,0.7-13.6l0.3-0.9c0.9-2.7,0.7-4.8-0.3-6.2s-2.7-1.6-3.6-1.6
		h-0.1c-3.6,0.5-6.7,4.5-9.2,11.9c-1.4,4.1-2.2,8.1-2.5,9.8c-0.4,0-0.8-0.1-1.3-0.1c-8.4-0.5-15.2,1.6-19.5,6.1
		c-5.6,5.8-8,14-6,21.2c1.2,4.6,4,8.4,8.1,10.9c-0.1,0.1-0.2,0.3-0.2,0.5l0,0c-1.4,2.9-4,10.5-1.6,23.9c0.1,1,0.3,2.1,0.5,3.3
		c0,0.2,0.1,0.3,0.2,0.4c0.2,1.1,0.5,2.1,0.8,3.3c3.6,13.5,14.3,20.3,31.8,20.3c1.2,0,2.5,0,3.8-0.1c16.3-0.9,27.1-8.4,32.1-22.5
		C166.3,677.9,159.3,660.8,158.1,657.9z M121.7,630.2c1.5,1.1,7.4,6.2,8.9,14.6c1.2,7.2-1.1,14.9-6.9,23.1c-2.1,0.4-12,2-22.9-3.4
		c-0.7-2.8-3.3-16.3,3.1-25.4C107.6,633.9,113.6,630.9,121.7,630.2z M152.2,629.4c5.2,2.8,8.6,9.5,8.2,16.1c-0.2,3.1-1.3,8-5.8,12.6
		l-6.5,4.8c-0.2,0.1-0.4,0.2-0.6,0.3c2.6-6.6,3-19.2-5.1-29c-2.9-3.5-5.8-5.5-8.5-6.6C137.3,626.5,144.6,625.2,152.2,629.4z
		 M140.5,635.8c9.2,11.1,6.2,26.5,3.1,29.3c-0.3,0.3-0.7,0.5-1.3,0.7c-6.3,1.8-15.3,1.9-15.4,1.9h-0.1l0,0c5.4-8.1,7.5-16,6.3-23.4
		c-1.3-7.7-6-12.8-8.5-15C127.5,628.4,134,627.9,140.5,635.8z M124.4,606.5c0.2,0,1,0.1,1.5,0.7c0.5,0.7,0.5,2.1-0.1,3.9l-0.3,0.9
		c-1.2,3.8-3.2,10-0.9,14.8c-1.2,0.3-2.1,0.6-2.6,0.9c-1.1-0.3-3.7-1.1-7.2-1.6C116.2,618.5,119.8,607.2,124.4,606.5z M87.9,652.3
		c-1.7-6.4,0.4-13.6,5.4-18.9c4.1-4.2,9.9-5.4,15.3-5.4c2.6,0,5,0.3,7.1,0.6c-6,1.5-10.6,4.5-13.8,8.9c-6.3,8.9-4.8,20.9-3.9,25.8
		C92.8,661.3,89.2,657.5,87.9,652.3z M158.6,692.2c-4.6,13-14.7,20.1-29.9,20.9c-18.7,1-29.5-5-33.1-18.4c-0.5-2-1-3.9-1.3-5.8
		c-0.1-0.5-0.1-1-0.2-1.5c-0.1-4.2,1.5-7.4,3.6-8.9c1.6-1.2,3.4-1.3,5-0.3c4.1,2.6,5.3,5.6,7,9.8c0.3,0.9,0.7,1.7,1.1,2.7
		c0.7,1.6,1.9,2.6,3.5,3c0.4,0.1,0.7,0.1,1.1,0.1c5.2,0,12.4-6.4,16.4-10.3c6.1-6.1,11.9-6.7,17-7.3c1.5-0.2,2.9-0.3,4.2-0.6
		c2.6-0.5,4.5-1.8,5.7-3.7c0.3-0.5,0.6-1,0.8-1.5C160.7,676.7,161.2,684.8,158.6,692.2z" style="fill:#1A1A1A;"/>
</g>
<g>
	<g>
		<path d="M284.9,576.7c0,0,5.1-9.2,4.1-13s-2.5-8.5-8.8-12s-12.5-7.8-9.5-12.5s13-4.1,22.4,0.9s18.8,19.5,20.5,35.2
			l-18.9,12.8L284.9,576.7z" style="fill:#FECE2F;"/>
	</g>
	<g>
		<path d="M294.4,585c0,0,5.9-10.6,19.2-9.6s18.8,5.2,18.8,5.2s11.6-5.8,25.5-4.2s19.8,4,19.8,4s16.2-0.2,31,12.4
			s16.5,39.4,14.2,57.9s-14.2,46-27.6,58.9l-23.4,10c0,0-22.8,11.5-34.5,11s-27.6-6-27.6-6H294l-31.5-0.8l-29.4-0.9
			c0,0-26.6-9.2-42.6-31.4s-19.6-40.4-17-57s8.6-37,27.1-47.2s38.1-10.4,38.1-10.4l15.1,3.4c0,0,12-6.9,22.4-5S291,578,294.4,585z" style="fill:#FECE2F;"/>
	</g>
	<g>
		<path d="M289.1,595.2c0,0-8-14.5-30-8.5s-44.5,61-7.2,124c0,0-27.8-28-27.8-65s22.5-65,36-69.5s26.8-1.7,34.2,8.8
			L289.1,595.2z" style="fill:#FFFFFF;"/>
	</g>
	<g>
		<path d="M282.8,686.4c0,0,6.1-75.1,19-91c7.3-9,30.5-7,36,4.3c7.3,15,21.7,64,1.7,104.7c0,0,13.7-16,16-55
			s-11.7-77.3-42.5-74C282.1,578.7,284.5,619.4,282.8,686.4z" style="fill:#FFFFFF;"/>
	</g>
	<g>
		<path d="M341.8,588.7c0,0,24.7-4,36.7,6.3c23.8,20.5,22.9,66.7,0.8,105.8c0,0,15.6-16.4,22.1-46.4s-4.8-58-18.2-70
			s-40-8.5-50.8-3.9L341.8,588.7z" style="fill:#FFFFFF;"/>
	</g>
	<g>
		<path d="M408.6,592.7c-14.2-12.2-29.9-12.4-30.9-12.4l14.8,14.4c0,0,22.7,4.7,23.8,51.6c0.5,21.6-5.9,37.1-8.1,45.8
			c7.6-13.2,13.3-29.4,14.8-41.5C425.1,632.1,423.4,605.4,408.6,592.7z" style="fill:#FFFFFF;"/>
	</g>
	<g>
		<path d="M252.8,580l-14.1-3.1c0,0-19.6,0.1-38.1,10.4s-24.5,30.6-27.1,47.2s1,34.9,17,57
			c12.6,17.5,31.8,26.9,39.4,30.1c-5.2-3-44-33.8-41.2-79.8C192.2,584.8,248.3,580.4,252.8,580z" style="fill:#FFFFFF;"/>
	</g>
	<g>
		<path d="M332.3,641.3c-2.5-1.2-5.5-1.3-8.3-0.3s-5.1,3-6.2,5.5c-1.1,2.3-1.3,4.9-1.4,7.3c-0.1,0.8-0.1,1.7-0.2,2.5
			c-0.5,4.5-3.7,7.1-7,9.9c-3.1,2.7-6.4,5.4-7.4,9.8c-0.6,2.4,0,5.1,1.5,7.4c1.9,2.8,4.9,4.7,8.1,5.2c0.8,0.1,1.5,0.2,2.2,0.2
			c5.7,0,10.6-3.3,13.2-5.5c7.6-6.3,12.4-15.9,12.9-25.7C340.2,651.7,338.4,644.2,332.3,641.3z" style="fill:#1A1A1A;"/>
		<path d="M304.3,649.4c-3.6-3-6.8-1.8-8.5,0.2c-2.9,3.4-3.1,10.1,1,13.6c1.8,1.6,3.4,2.1,4.7,2.1
			c0.6,0,1.2-0.1,1.6-0.3c2.2-0.8,3.7-3,4.3-6C308,656,307.4,651.9,304.3,649.4z" style="fill:#1A1A1A;"/>
		<path d="M277.2,595.6c-1.5-3-4.4-4.6-7.6-4.3c-5.8,0.5-14.7,5.8-16.9,11.5l0,0c-1.1,2.8-0.4,6,1.6,7.6
			c1.6,1.3,3.6,1.5,5.1,1.5c0.2,0,0.4,0,0.7,0c4.8,0,9.6-1.5,13.5-4.2c1.1-0.8,1.9-1.5,2.6-2.2C278.5,602.8,278.9,598.8,277.2,595.6
			z" style="fill:#1A1A1A;"/>
		<path d="M371.3,600.6c-2.4-1.4-5.1-1.3-7.4,0.1c-2.1,1.2-3.3,3.6-3.5,6.5c-0.3,3.9,1.3,8,3.8,9.9c1.3,1,3,1.6,4.8,1.6
			c1.5,0,3-0.4,4.3-1.1c2.6-1.5,4.2-4.1,4.2-6.8C377.3,606.9,374.7,602.5,371.3,600.6z" style="fill:#1A1A1A;"/>
		<path d="M415.1,599c-9-12.6-23.3-19.9-41.1-21h-0.1c-0.4-0.2-0.9-0.3-1.3-0.5c-19.2-6-37.8,0.5-40.3,1.4
			c-6.2-3.7-12.7-5-18-4.9c-0.2-3.8-1.4-15-9.6-25.6c-7.5-9.8-19.2-13.7-27.5-13.1c-3.9,0.3-6.7,1.5-7.8,3.4
			c-2.5,4.4,1.1,7.6,9.5,13.4l0,0c0.1,0.1,0.1,0.1,0.2,0.2c0.4,0.3,0.7,0.5,1,0.8c0.2,0.2,0.4,0.4,0.6,0.5c0.3,0.2,0.6,0.5,0.9,0.8
			c0.1,0.1,0.2,0.2,0.2,0.2c0.4,0.4,0.8,0.8,1.1,1.2c0,0.1,0.1,0.1,0.1,0.2c0.3,0.3,0.5,0.6,0.7,0.9c0.1,0.2,0.3,0.4,0.4,0.6
			c3.5,5.2,3.4,11.4-0.6,17.8c-2.3-0.6-4.9-1.1-8.1-1.4c-8-0.6-15.2,1.1-21.8,4.9c-1.3-0.8-11.9-6.8-36.9-0.3
			c-28.2,7.3-44.9,32.5-44.7,67.4c0.1,20.5,11.3,43.2,29.2,59.3c7.2,6.4,16.9,13.2,29.7,18.3c3.7,1.7,7.9,3,12.3,4
			c8.9,2.3,19,3.7,30.4,3.7c4.7,0,9.6-0.2,14.8-0.8c0.3,0,0.6-0.2,0.8-0.4c0.6,0,1.2,0,1.7,0c2.4,0,4.5-0.2,6-0.4l4-0.1
			c3.2,1.3,11.3,4.1,24.9,4.1c7.4,0,16.5-0.8,27.2-3.1c19.6-4.2,32.9-10.6,43.3-20.5c11.3-10.8,19.3-26.2,25.3-48.6
			C428.5,636.5,426.1,614.3,415.1,599z M371.8,579.9c18.9,5.9,30.1,28.1,30.1,59.3c0,16.9-9.3,42.2-23.3,61.9
			c-2,2.6-6.8,8.5-9.1,11.1c-10.5,11.7-24.6,13.9-31.2,13.3c-8.2-0.7-10.6-3.9-11.2-5.2c11.8-8.4,18.7-22.4,24.3-39.9
			c9.9-31,3.5-71.8-5.4-87.3c-3.1-5.4-7-9.5-11.1-12.4C340.2,579,356,575,371.8,579.9z M315,576.6c8.9,0,21.1,4.6,28.7,17.8
			c8.7,15.2,14.9,55,5.2,85.4c-6.3,19.8-14,32.4-24.7,39.5c-8.1,3.2-15.4,3.2-21.5-0.1c-7.6-4-12.1-12.1-14.5-18l-2.3-7.1
			c-6.9-26.7-0.1-83.3,3.7-95.3c6-19.2,15.2-21.5,23.4-22.1C313.7,576.6,314.4,576.6,315,576.6z M297.7,565.2
			c0.3-1.3,0.4-2.5,0.1-3.5c-0.8-3.1-4-4.6-6.1-5.6c-2.3-1.1-4.4-2.2-6.5-3.3c-1.6-0.8-3.3-1.7-5.1-2.6c-8.8-6.2-10-8-8.7-10.2
			c0.7-1.2,2.9-2,5.9-2.2c7.6-0.5,18.5,3.1,25.4,12.2c7.7,10,8.9,20.9,9,24.3c-6,0.6-12,2.5-17.1,8.8c-1-1.9-3.2-4.8-8.3-6.8
			C291.3,573.6,296.3,570.5,297.7,565.2z M275.3,576.5c15.9,1.1,17.6,8.9,17.6,9l0,0c-2.1,3.2-4,7.3-5.6,12.6
			c-3.9,12.6-10.8,69-3.7,96.6c0,0.2,0.3,1.4,0.8,3.1c1.5,5.5,3.1,10,4.6,13.8l0.6,1.8c-0.3,2.6-1.4,4.4-3.3,5.6
			c-6.8,4.1-21.7-1.1-26.9-3.1c-2.2-1.7-4.4-3.7-6.7-6c-25.1-25.4-34.5-64.3-22.7-94.7C240.6,587.7,255.5,575,275.3,576.5z
			 M174.6,646c-0.2-33.7,15.8-58,42.8-65.1c20.3-5.3,30.7-2,33.9-0.5c-9.5,6.5-17.4,17.8-23.6,33.9c-12.1,31.3-2.5,71.3,23.3,97.3
			c1.6,1.6,3.3,3.1,4.9,4.5c-2.5,7.3-18.8,5.9-25,4.7l0,0c-11.9-4.8-21-11.2-27.8-17.3C182.2,684.8,174.7,661.5,174.6,646z
			 M419.4,660.7c-3.4,12.8-7.5,23-12.3,31.3c-0.1,0.1-0.3,0.2-0.3,0.4c0,0,0,0.1-0.1,0.1c-0.1,0.1-0.2,0.4-0.5,0.8
			c-3.2,5.1-8,8.7-10.2,10c-10.9,6.1-14,5-14.8,4.3c-1.5-1.3-0.2-5.2,0.4-6.5l0,0c1.5-2.1,2.9-4.3,4.3-6.5
			c11.4-18.6,18.5-39.8,18.5-55.3c0-27.8-8.8-48.7-23.9-58c14,2.3,25.2,8.8,32.7,19.2C423.7,615.2,425.9,636.6,419.4,660.7z" style="fill:#1A1A1A;"/>
	</g>
</g>
<g>
	<g>
		<path d="M342.1,354.6c0,0-28.8,14.2-42.7,43.3c-17,35.7,4,119.2,4,119.2l14.5,10l-1-17.5l9-0.5l1.2-3.8l15.2,14.2
			l18.5-7l9.3,12l19.3-8.2l6.8,9.2l14.8-6.3l6.2,8.7l13.7-5.7l3.2,4.2l14.5-7.7l-5-8.3c0,0,13.7-7.2,13.5-8.2s-4-7.2-4-7.2l11.3-6.2
			l-9.2-16.8l-74.4-26l1.3-53.7l-19-36.7L342.1,354.6z" style="fill:#FFFFFF;"/>
	</g>
	<g>
		<polygon points="342.7,451.6 350.7,467.6 354.7,466.7 370.9,495.1 385.9,489.6 389.1,493.3 405.3,488.5 408.3,492.3 
			418.1,488.8 431.2,511.3 436.3,508.4 423.8,486.9 432.9,483.1 439.4,493.1 445.8,489.8 444.1,486.6 459.9,480.6 455.4,472.1 		" style="fill:#FECE2F;"/>
	</g>
	<g>
		<path d="M359.4,367.6c0,0-6.2-7.1-19.5-3.9c-8.8,2.1-38.3,22.1-39.1,61.1c-1,47.7,10.5,97.8,10.5,97.8l-7.7-5
			c0,0-12.3-57.5-10.8-88.5s17-52,34.5-66s33.5-1,33.5-1L359.4,367.6" style="fill:#FECE2F;"/>
	</g>
	<g>
		<path d="M325,397.3c-0.4,0-0.7-0.2-1-0.5c-0.4-0.5-0.3-1.3,0.3-1.7l9.5-7c0.5-0.4,1.3-0.3,1.7,0.3
			c0.4,0.5,0.3,1.3-0.3,1.7l-9.5,7C325.5,397.2,325.2,397.3,325,397.3z" style="fill:#1A1A1A;"/>
	</g>
	<g>
		<g>
			<path d="M471.4,282c0,0,30.7,5.3,53,40l14,23.7l-10.7,17l12.3-9l13.3,37.7l-9,14.3l12.3-7l7.3,22.3l-7,10.3l9.3-1
				l3.3,13.3c0,0-37.7,29-102.3,33s-112-12.7-131.3-29l2-9.7l17.3,5.7l-16.7-13.3l3.7-10.7l12.3,4.3l-10.7-11.3l9.3-29.7l17.3,7.3
				l-14-18.3c0,0,12-29,22.3-46s28.7-27.7,28.7-27.7l7,5.3l1.3-10.7c0,0,12.7-11.7,45.7-12.3l4.7,16.3L471.4,282z" style="fill:#FFFFFF;"/>
		</g>
		<g>
			<path d="M557.1,431.3l7-10.3l-7.3-22.3l-12.3,7l9-14.3l-13.3-37.7l-12.3,9l10.7-17l-14-23.7c-22.3-34.7-53-40-53-40
				l-5,15l-4.7-16.3c-33,0.7-45.7,12.3-45.7,12.3l-1.3,10.7l-7-5.3c0,0-18.3,10.7-28.7,27.7c-10.3,17-22.3,46-22.3,46l14,18.3
				l-17.3-7.3l-9.3,29.7l10.7,11.3l-12.3-4.3l-3.7,10.7l16.7,13.3l-17.3-5.7l-2,9.7c5.7,4.8,13.8,9.6,24.1,14l0.6-0.6l14.3-34.3
				l25.7,10.3l-29.7-36l11-8.7l8,8.7l6-5.7l17,16.7l-29.7-73.7l9.3-9l17.3,42.3l8.7-6.3l-12.3-35.7l14.3-8.3l8.3,21l9.3-2.7
				l-0.7-21.7h6l4,27.7l9.7-1l-0.7-30.7h18.7l-10.7,80.7l8.7,3.7l9.7-57.7l8.3,2.3l-4.7,23l7.3,3.3l15.3-27.7l10.3,5.7l-17,35.3
				l7.3,11.3l25.7-17.3l-19.3,23l5.7,9.7l11.3-10l5.7,17l8.3-1.7L527.8,432l3,9.7l28-2L546.1,457c0,0,0.1,0,0.4,0
				c15.2-7.1,23.3-13.4,23.3-13.4l-3.3-13.3L557.1,431.3z" style="fill:#FECE2F;"/>
		</g>
		<g>
			<path d="M571.1,443.3l-3.5-13.5c-0.2-0.6-0.7-1-1.4-0.9l-7.1,1.1l5.8-8.2c0.2-0.3,0.3-0.7,0.2-1.1l-7-23
				c-0.1-0.4-0.4-0.7-0.8-0.8c-0.4-0.1-0.8-0.1-1.1,0.1l-8.6,5.7l6.8-10.6c0.2-0.3,0.3-0.7,0.1-1.1l-3-8.6c0.1-0.4,0.1-0.9-0.3-1.2
				c-0.1-0.1-0.1-0.1-0.2-0.1l-10-28.6c-0.1-0.4-0.5-0.7-0.9-0.8c-0.4-0.1-0.8,0-1.1,0.3l-7.8,7.3l8.2-12.8c0.2-0.3,0.3-0.7,0.1-1.1
				c-0.1-0.2-2.9-7.2-8.6-16.6c0-0.5-0.2-1-0.7-1.2h-0.1c-10.4-16.8-29.8-40.5-59-47.4c-0.3-0.1-0.7,0-0.9,0.2
				c-0.3,0.2-0.5,0.5-0.5,0.8l-2.9,13.1l-3.7-14.1c-0.1-0.5-0.6-0.9-1.1-0.9c-1.1,0-27.6-0.9-46.8,13.2c-0.3,0.2-0.5,0.6-0.5,0.9
				l-0.4,8.7l-5-5c-0.3-0.3-0.7-0.4-1.1-0.3c-1.1,0.3-28.4,7.4-51.9,74.8c-0.1,0.4-0.1,0.8,0.2,1.1l11.1,15.1l-13.6-6.4
				c-0.3-0.2-0.7-0.2-1,0c-0.3,0.1-0.6,0.4-0.7,0.8l-9,30c-0.1,0.4,0,0.9,0.3,1.2l8.2,8.2l-8.8-3.7c-0.3-0.1-0.7-0.1-1,0
				c-0.3,0.2-0.5,0.5-0.6,0.8l-3,12c-0.1,0.5,0.1,1,0.4,1.3l10.7,8.2l-11-4.3c-0.4-0.1-0.8-0.1-1.1,0.1c-0.3,0.2-0.5,0.5-0.6,0.9
				l-1,10.5c0,0.4,0.1,0.8,0.5,1.1c0.4,0.3,40.6,30.4,109.7,30.4c2.7,0,5.3,0,8.1-0.1c74-2.5,116.3-33.9,116.7-34.2
				C571.1,444.3,571.2,443.8,571.1,443.3z M539.3,458.6c-5.7,2.4-12.6,4.9-20.6,7.3c-0.1,0-0.1,0-0.2,0c-8.7,0.9-13.9,0.4-15.6-1.6
				c-1.3-1.6-0.4-4.3,0.6-7.3c0.8-2.6,1.7-5.2,1.3-7.6c-1-6-5-8.1-7.9-9.6c-1.4-0.7-2.5-1.3-3.1-2.1c-2.5-3.8-2.9-7.9-3.2-11.5
				c-0.4-4.1-0.7-7.9-4.3-9.6c-3.3-1.6-7.1-0.1-10.7,1.4c-3.5,1.4-7.1,2.9-10.5,1.8c-3.2-1-5.3-4.5-7.3-7.9c-2.7-4.4-5.4-9-10.8-7.9
				c-9.5,1.9-8.3,11.1-7.4,17.9c0.4,3.1,0.9,6.6-0.2,7.3c-1.4,0.8-3.7-0.4-6.4-1.7c-4.3-2.2-9.7-5-15-0.9
				c-5.9,4.5-3.1,13.8-0.3,22.8c2,6.6,4.1,13.4,2,16.7c-4.8,7.7-23.1,5-23.3,4.9c-0.2,0-0.4,0-0.6,0.1c-34-7.8-54.3-21.4-57.8-23.9
				l0.8-8.2l17.5,6.9c0.6,0.2,1.2,0,1.5-0.5s0.2-1.2-0.3-1.6l-16.9-13l2.5-9.8l13.2,5.5c0.5,0.2,1.2,0,1.5-0.5s0.3-1.1-0.2-1.5
				l-12-12l3.9-13.1l52.6,41.4c0.2,0.2,0.5,0.3,0.8,0.3c0.4,0,0.7-0.2,1-0.5c0.4-0.5,0.3-1.3-0.2-1.7l-53.3-42l0,0l3.7-12.3
				l16.7,7.9c0.5,0.2,1.1,0.1,1.5-0.3s0.4-1.1,0-1.5l-13.6-18.5c4.6-13.2,9.4-24,14.1-32.8l41.2,77.1c0.2,0.4,0.6,0.6,1.1,0.6
				c0.2,0,0.4,0,0.6-0.1c0.6-0.3,0.8-1.1,0.5-1.7l-41.9-78.5c8.1-14.8,15.9-23.8,22-29.3l25.4,67.1c0.2,0.5,0.7,0.8,1.1,0.8
				c0.1,0,0.3,0,0.4-0.1c0.6-0.2,1-0.9,0.7-1.6l-25.7-68c4.9-4,8.5-5.6,9.8-6.1l6.5,6.5c0.3,0.3,0.9,0.5,1.3,0.3
				c0.5-0.2,0.8-0.6,0.8-1.1l0.5-10.9c6.8-4.9,14.7-7.9,22-9.7l7.9,63.7c0.1,0.6,0.6,1.1,1.2,1.1c0.1,0,0.1,0,0.2,0
				c0.7-0.1,1.1-0.7,1.1-1.4l-7.9-64c9.1-2,16.7-2.2,19.4-2.2h0.1l4.8,18.1c0.1,0.5,0.7,0.9,1.2,0.9c0.6,0,1-0.4,1.2-1l3.7-16.8
				c7,1.8,13.4,4.6,19.3,8L470,409.4c-0.1,0.7,0.3,1.3,1,1.4c0.1,0,0.1,0,0.2,0c0.6,0,1.1-0.4,1.2-1l21.1-117.3
				c16.2,10.2,27.7,25.2,34.8,36.8L497,391.7c-0.3,0.6-0.1,1.3,0.5,1.6c0.2,0.1,0.4,0.1,0.5,0.1c0.4,0,0.9-0.2,1.1-0.7l30.5-61
				c4.2,7.1,6.6,12.5,7.3,14.2l-13.2,20.5c-0.3,0.5-0.2,1.2,0.2,1.6c0.5,0.4,1.2,0.4,1.6,0l13.6-12.7l9.4,26.9l-49.2,47.3
				c-0.5,0.5-0.5,1.2,0,1.7c0.2,0.2,0.6,0.4,0.9,0.4s0.6-0.1,0.8-0.3l48.4-46.5l2.4,6.8l-9.7,15c-0.3,0.5-0.2,1.1,0.2,1.5
				s1.1,0.5,1.5,0.1l12.1-8.1l3.7,12.2L506.8,444c-0.6,0.3-0.8,1.1-0.4,1.7c0.2,0.4,0.6,0.6,1,0.6c0.2,0,0.4-0.1,0.6-0.2l52.3-31.4
				l1.9,6.3l-7.1,10c-0.3,0.4-0.3,0.9,0,1.4c0.3,0.4,0.7,0.6,1.2,0.6l8.9-1.3l3,11.6C566,445,555.9,451.7,539.3,458.6z" style="fill:#1A1A1A;"/>
			<path d="M449.1,353c-0.7,0.1-1.2,0.7-1.1,1.4l2.9,24.9c0.1,0.6,0.6,1.1,1.2,1.1h0.1c0.7-0.1,1.2-0.7,1.1-1.4
				l-2.9-24.9C450.4,353.4,449.8,352.9,449.1,353z" style="fill:#1A1A1A;"/>
			<path d="M495.4,397.7c-0.6-0.3-1.3-0.1-1.6,0.5l-2.4,4.8c-0.3,0.6-0.1,1.3,0.5,1.6c0.2,0.1,0.4,0.1,0.5,0.1
				c0.4,0,0.9-0.2,1.1-0.7l2.4-4.8C496.2,398.8,496,398,495.4,397.7z" style="fill:#1A1A1A;"/>
			<path d="M428.1,384.4c-0.2-0.6-0.9-1-1.6-0.7c-0.6,0.2-1,0.9-0.7,1.6l4.9,12.8c0.2,0.5,0.7,0.8,1.1,0.8
				c0.1,0,0.3,0,0.4-0.1c0.6-0.2,1-0.9,0.7-1.6L428.1,384.4z" style="fill:#1A1A1A;"/>
		</g>
	</g>
	<g>
		<g>
			<path d="M296.8,251c9.3,0,24.7,5.7,26.4,27.9c1.3,17.1-30,51,11.6,81.8c-2,1.3-24.3,22-24.3,22s-15,1-16-21.7
				c0,0-14,0.3-10.3-19c0,0-5.7-2.7-2.7-12.7s2.7-22.7-5-34c0,0-10.3-12.2-3.3-28.2S296.8,251,296.8,251z" style="fill:#FFFFFF;"/>
		</g>
		<g>
			<path d="M323.2,278.9c-1.8-22.2-17.1-27.9-26.4-27.9c0,0-11.8,0.1-19.7,9.7l-0.1,0.9c0,0,25-12.4,36.2,3.8
				c12,17.2-9.2,38.6-4.2,71.5c3.2,21.8,20.5,26,20.5,26l3-4v-0.1C294.4,328.6,324.5,295.7,323.2,278.9z" style="fill:#FECE2F;"/>
		</g>
		<g>
			<path d="M275.2,263.7c0,0-8.3-4.8-12.7,2.9c-4.3,7.7-1.6,21.2-1.6,24.7s-0.3,13.2-3.6,19.2c-3.3,6-4.8,17.5,1.9,16.8
				c6.7-0.7,8.3-9.8,8.3-9.8l0.1-25.3l1-8.8l2.3-5.2L275.2,263.7z" style="fill:#FFFFFF;"/>
		</g>
		<g>
			<path d="M266.5,271.4c-4.3,7.7-1.6,21.2-1.6,24.7s-0.3,13.2-3.6,19.2c-1.8,3.3-3.1,8.3-2.8,12c0.2,0,0.4,0,0.6,0
				c6.7-0.7,8.3-9.8,8.3-9.8l0.1-25.3l1-8.8l2.3-5.2l3.3-10.9C271.6,266.9,268.6,267.7,266.5,271.4z" style="fill:#FECE2F;"/>
		</g>
		<g>
			<polygon points="258.9,281.2 246.5,283 259.2,287.4 			" style="fill:#1A1A1A;"/>
		</g>
		<path d="M333.2,357.8c-25.7-18.6-19.2-39.1-13.4-57.3c2.2-6.9,4.3-13.4,4.5-19.4c0.3-10.2-3-18.9-9.3-24.5
			c-5.8-5.1-13.7-7.4-21.6-6.2l-0.5,0.1c-7.6,1.3-14.1,5.4-18.5,11.8c-1.3-0.6-5-1.7-9.1,0.4c-1.7,0.9-3.1,2.3-4.2,4.1
			c-0.1,0-0.2,0-0.4,0.1l-15.8,6.7c-0.5,0.2-0.8,0.8-0.7,1.3s0.5,1,1.1,1l13.1,1.1c-0.1,1.1-0.1,2.2,0,3.3l-13.1,1.5
			c-0.6,0.1-1,0.5-1.1,1.1c0,0.6,0.3,1.1,0.9,1.3l14.1,4c0,0.1,0,0.1,0,0.2c1.9,11-0.8,17.7-3.7,24.8c-0.6,1.4-1.1,2.8-1.7,4.2
			c-2,5.4-0.2,9.1,2.4,10.4c0.7,0.4,1.5,0.6,2.4,0.6c2.3,0,5.2-1.4,7.8-5.4c3.2-4.9,2.8-15.1,2.5-24.9c-0.1-2.7-0.2-5.5-0.2-8.1
			l2.7,0.5c1.3,3,3,5.4,4.6,7.6c3.3,4.5,6.4,8.8,5.8,18.4c-0.3,5-1.1,8.9-1.7,12.1c-1.3,6.7-2.1,10.8,3.4,15.3
			c-1.2,5.6-0.9,9.6,0.8,12.5c1.6,2.7,4.4,4.3,8.8,5.3c0.1,1.5,0.3,2.8,0.5,4.1c0,0.6,0,1,0,1c0,0.3,0.1,0.5,0.3,0.7
			c1.8,9.1,5.8,14,15,15.7c0.1,0,0.2,0,0.2,0c0.6,0,1.1-0.4,1.2-1c0.1-0.7-0.3-1.3-1-1.4c-8.1-1.5-11.7-5.6-13.3-15.1
			c-0.2-25.6,6.5-45,10.2-55.4c1.1-3.2,1.9-5.4,2.2-7c0.7-3.4-0.8-6.9-3.7-9.2c-3.5-2.7-8.2-3-12.5-0.9c-6.2,3-10.5,2.6-13.2,1.4
			c-1.4-0.9-2.8-2.2-4.3-4c-0.1-0.1-0.2-0.2-0.3-0.3c-0.8-1.2-1.1-2-1.2-2.2c-0.4-1.1-0.7-2.3-1-3.4c-1.6-7.2-0.2-14.9,3.9-20.9
			c4-5.9,10.1-9.8,17.1-11l0.4-0.1c7.2-1.1,14.4,0.9,19.6,5.6c4.1,3.6,8.9,10.5,8.5,22.6c-0.2,5.7-2.2,12-4.4,18.8
			c-5.8,18-12.9,40.4,14.3,60c0.2,0.2,0.5,0.2,0.7,0.2c0.4,0,0.8-0.2,1-0.5C333.9,359,333.8,358.2,333.2,357.8z M290.8,301.6
			c1.2,0.1,2.1,0.5,2.7,1.3c2.7,3.2,1.8,12,0.7,22.3c-0.7,6.6-1.5,14.2-1.5,21.7c0,4.6,0.1,8.7,0.3,12.3c-3.3-0.8-5.4-2.1-6.5-4
			c-1.8-3-1.6-8.2,0.8-15.7c4.7-15.1,3.3-30.6,3.2-31.2c-0.1-0.7-0.7-1.2-1.3-1.1c-0.7,0.1-1.2,0.7-1.1,1.3c0,0.2,1.4,15.7-3.1,30.3
			c-0.3,0.9-0.5,1.7-0.7,2.5c-3.5-3.2-2.9-6.1-1.7-12.1c0.6-3.2,1.4-7.2,1.8-12.4c0.6-9.5-2.2-14.3-5.2-18.6
			C282.1,299.9,285.9,301.3,290.8,301.6z M269.3,277.2L269.3,277.2c-3.3,2.5-3,11.1-2.7,21c0.3,9,0.6,19.3-2.1,23.5
			c-2.6,4-5.4,4.9-7.1,4c-1.6-0.8-2.7-3.5-1.2-7.4c0.5-1.4,1.1-2.8,1.6-4.1c2.9-7.1,5.9-14.5,3.9-26.2c-2.4-14,0.9-21.1,4.8-23.1
			c2.9-1.5,5.5-0.9,6.7-0.5C270.9,268.3,269.6,272.7,269.3,277.2z" style="fill:#1A1A1A;"/>
	</g>
	<g>
		<path d="M336.8,407.6c-0.5-0.5-1.2-0.5-1.7-0.1l-6.7,6.1l-2.2-17.6c-0.1-0.7-0.7-1.1-1.4-1.1
			c-0.7,0.1-1.1,0.7-1.1,1.4l0.6,4.5h-0.1l-3.7,2.7l-1.1-12.3l13.4-9.6c0.5-0.4,0.7-1.2,0.3-1.7c-0.4-0.5-1.2-0.7-1.7-0.3l-14,10
			c-0.4,0.3-0.5,0.7-0.5,1.1l1.2,14.5l-7.8,5.7c-0.3,0.2-0.5,0.6-0.5,1l0.2,20.2c0,0.7,0.6,1.2,1.2,1.2l0,0c0.7,0,1.2-0.6,1.2-1.2
			l-0.2-19.6l12.2-9l1.5,12l-6,5.4c-0.3,0.2-0.4,0.6-0.4,1l0.8,13.8c0,0.7,0.6,1.2,1.2,1.2c0,0,0,0,0.1,0c0.7,0,1.2-0.6,1.2-1.3
			l-0.7-13.2l14.6-13.1C337.3,408.8,337.3,408.1,336.8,407.6z" style="fill:#1A1A1A;"/>
		<path d="M466.4,488.2l-6.6-11.6c-0.3-0.6-1.1-0.8-1.7-0.5s-0.8,1.1-0.5,1.7l6,10.5l-10.3,5.4l-2.6-4.2
			c-0.4-0.6-1.1-0.8-1.7-0.4s-0.8,1.1-0.4,1.7l7.1,11.4l-12,6.6l-10.5-16.6c-0.4-0.6-1.1-0.7-1.7-0.4c-0.6,0.4-0.7,1.1-0.4,1.7
			l15.8,24.9l-12.3,7l-2-3.4v-0.1c-0.1-0.2-0.2-0.3-0.3-0.4l-16-27c-0.3-0.6-1.1-0.8-1.7-0.4c-0.6,0.3-0.8,1.1-0.4,1.7l15.5,26.1
			l-12.2,5l-16-26.1c-0.4-0.6-1.1-0.8-1.7-0.4s-0.8,1.1-0.4,1.7l10.4,17l-12.9,5.6l-16.9-26c-0.4-0.6-1.1-0.7-1.7-0.4
			c-0.6,0.4-0.7,1.1-0.4,1.7l10.3,15.8l-16.9,7.8l-20.7-27.2c-0.4-0.5-1.2-0.6-1.7-0.2s-0.6,1.2-0.2,1.7l11,14.5l-16.2,6.3
			l-16.2-16.3l0,0l-1.3-9.5l5.1,1.7c0.1,0,0.3,0.1,0.4,0.1c0.3,0,0.5-0.1,0.8-0.3c0.3-0.3,0.5-0.7,0.5-1.1l-1.6-19.5l6,1.8
			c0.1,0,0.2,0.1,0.4,0.1c0.3,0,0.5-0.1,0.8-0.3c0.3-0.2,0.5-0.6,0.5-1l-1-15.8c0-0.7-0.6-1.2-1.3-1.1c-0.7,0-1.2,0.6-1.1,1.3
			l0.9,14l-5.3-1.6l-1.7-20.6c-0.1-0.7-0.6-1.2-1.3-1.1c-0.7,0.1-1.2,0.6-1.1,1.3l3.3,40.9l-4.5-1.5l-5-36.7c-0.1-0.7-0.7-1.1-1.4-1
			c-0.7,0.1-1.1,0.7-1,1.4l7.3,54.3l-8.5,1l-8-46.9c-0.1-0.7-0.7-1.1-1.4-1c-0.7,0.1-1.1,0.7-1,1.4l10.8,63.3l-12.6-9
			c-15.9-77.1-16.6-109.9,11.2-140.5c2.5-2.8,5-5.3,7.5-7.6c0.1,0,0.3-0.1,0.4-0.2c0.1,0,2.7-2.2,6.4-5.1c7.1-4.6,19.1-9.6,29.8-0.4
			c0.3,0.3,0.7,0.3,1.1,0.3c0.4-0.1,0.7-0.3,0.8-0.7l8-18.5c0.2-0.4,0.1-0.9-0.2-1.2c-0.3-0.4-0.7-0.5-1.2-0.5h-0.1
			c-0.3-0.3-0.6-0.4-1-0.4c-0.5,0.1-7.3,0.9-17.3,5.5c-2.5,1-4.9,2.2-7,3.6c-8.6,4.9-18.8,12.3-29,23.6
			c-28.6,31.5-27.9,64.9-11.7,143.2c0.1,0.3,0.2,0.6,0.5,0.7l15.4,11c0.2,0.2,0.5,0.2,0.7,0.2s0.5-0.1,0.6-0.2
			c0.4-0.3,0.6-0.8,0.6-1.2l-2.9-16.9l9.6-1.1c0.3,0,0.6-0.2,0.8-0.5c0.2-0.3,0.3-0.6,0.2-0.9l-0.4-2.6l14.5,14.6
			c0.2,0.2,0.5,0.4,0.9,0.4c0.1,0,0.3,0,0.4-0.1l17.6-6.9l8.7,11.5c0.2,0.3,0.6,0.5,1,0.5c0.2,0,0.3,0,0.5-0.1l18.1-8.3l5.8,8.9
			c0.2,0.4,0.6,0.6,1,0.6c0.2,0,0.3,0,0.5-0.1l14.1-6.1l4.8,7.9c0.2,0.4,0.6,0.6,1,0.6c0.2,0,0.3,0,0.5-0.1l13.5-5.6l2.3,3.8
			c0.2,0.4,0.6,0.6,1.1,0.6c0.2,0,0.4-0.1,0.6-0.2l14.5-8.2c0.3-0.2,0.5-0.4,0.6-0.8c0.1-0.3,0-0.7-0.2-1l-4.6-7.3l13-7.2
			c0.3-0.2,0.5-0.4,0.6-0.8s0-0.7-0.1-1l-3.9-6.2l11.3-5.9c0.3-0.2,0.5-0.4,0.6-0.7S466.5,488.4,466.4,488.2z" style="fill:#1A1A1A;"/>
		<path d="M370,473.1l5.3,9.4l-7.3,3.3l-12-19.9c-0.4-0.6-1.1-0.8-1.7-0.4c-0.6,0.3-0.8,1.1-0.4,1.7l7,11.5l-7.3,2.9
			l-5.7-10c-0.3-0.6-1.1-0.8-1.7-0.5s-0.8,1.1-0.5,1.7l6.3,10.9c0.2,0.4,0.6,0.6,1.1,0.6c0.2,0,0.3,0,0.5-0.1l8.7-3.5l4.3,7.2
			c0.2,0.4,0.6,0.6,1,0.6c0.2,0,0.3,0,0.5-0.1l9.5-4.3c0.3-0.1,0.5-0.4,0.7-0.7c0.1-0.3,0.1-0.7-0.1-1l-6-10.6
			c-0.3-0.6-1.1-0.8-1.7-0.5C369.9,471.7,369.7,472.5,370,473.1z" style="fill:#1A1A1A;"/>
	</g>
	<path d="M367.4,518.5l-5.2-6.2c-0.4-0.4-1-0.6-1.5-0.3l-4.1,2.2c-0.3,0.1-0.5,0.4-0.6,0.7l-22.3,59.4
		c-1.5-1.4-4.2-3.3-8.3-3.8c-6.8-0.8-14.6,2.9-23.1,10.9c-0.4,0.4-0.5,1.1-0.2,1.6s1,0.7,1.5,0.4c0.1-0.1,11.3-5.2,20.7-4.7
		c-4.6,1.4-10.9,4.2-14.3,9.2c-0.3,0.5-0.3,1.1,0.1,1.5c0.2,0.2,0.6,0.4,0.9,0.4c0.2,0,0.5-0.1,0.7-0.2c0.1-0.1,11.2-7.1,24.7-6.8
		c0.5,0,0.9-0.3,1.1-0.7l30-62.3C367.7,519.4,367.7,518.9,367.4,518.5z" style="fill:#1A1A1A;"/>
	<path d="M413.8,521.4l-1.3-2.3c-0.3-0.5-1-0.8-1.6-0.5l-12,5.3c-0.3,0.1-0.5,0.4-0.6,0.7l-17.5,46.7
		c-1.7-0.8-5-2-9.5-2c-5.9-0.1-15.1,1.9-25,11.9c-0.4,0.4-0.5,1-0.2,1.5s0.8,0.7,1.4,0.6c0.1,0,6.5-1.8,12.1-3
		c-1.7,1.2-3.3,2.7-4.2,4.6c-0.2,0.5-0.1,1,0.2,1.4c0.2,0.2,0.6,0.4,0.9,0.4c0.2,0,0.3,0,0.5-0.1c0.1-0.1,15.1-6.5,26.7-5.6
		c0.5,0,1-0.2,1.2-0.7l29.1-57.7C414,522.2,414,521.7,413.8,521.4z" style="fill:#1A1A1A;"/>
</g>
<path d="M305.1,271.9c-4.1-3.8-4.2-10-4.2-10.1c0-1.4-1.1-2.5-2.5-2.5s-2.5,1.1-2.5,2.5c0,0.1,0,1.4,0.4,3.3
	c-0.1,0-0.1,0-0.2,0c-2.8,0-5.1,2.3-5.1,5.1s2.3,5.1,5.1,5.1c1.5,0,2.9-0.7,3.8-1.7c0.5,0.7,1.2,1.4,1.9,2.1
	c0.5,0.4,1.1,0.7,1.7,0.7c0.7,0,1.3-0.3,1.8-0.8C306.2,274.4,306.1,272.8,305.1,271.9z" style="fill:#1A1A1A;"/>
<g>
	<g>
		<g>
			<path d="M213.8,735.4c-0.1-5.1-16.9-22.9-23.6-19.7c-5.6,2.6-0.1,10.5-3.4,10.9c-4.7,0.6-14-11-19.2-8.4
				c-5.3,2.7,1.2,9-1.6,11.1c-1.8,1.3-9.9,1.3-9.1,7.3c0.6,4.4,8.4,2.7,10.9,4.8c2.4,2-1.3,7.6,3.7,10.2c5,2.6,12.9-9.1,16.8-8.7
				c3.9,0.4,2.7,5.5,7.7,7C201.2,751.3,213.9,742.3,213.8,735.4z" style="fill:#FECE2F;"/>
		</g>
		<g>
			<path d="M190.2,715.7c-5.6,2.6-0.1,10.5-3.4,10.9c-4.7,0.6-14-11-19.2-8.4c-5.3,2.7,1.2,9-1.6,11.1
				c-1.5,1.1,36.4-1.3,43.6-1.5C204.1,721.2,194.8,713.5,190.2,715.7z" style="fill:#FFFFFF;"/>
		</g>
		<path d="M220.5,735.8c-1.8-0.5-3.7-1-5.6-1.4c-1.1-4.5-8.9-13.5-15.8-17.8c-3.9-2.4-7.1-3.1-9.4-2.1
			c-4,1.9-3.5,5.9-3.1,8.5c0.1,0.8,0.3,2,0.1,2.3c-1.6,0.2-4.6-1.9-7.3-3.8c-4.3-3.1-8.8-6.2-12.3-4.4c-3.9,2-2.8,5.7-2.1,8.2
			c0.5,1.6,0.8,2.7,0.3,3c-0.3,0.2-1.2,0.5-2.1,0.7c-2.9,0.8-8.3,2.3-7.5,7.8v0.1l0,0l0,0c0.6,3.5,4.3,4,7.3,4.4
			c1.6,0.2,3.3,0.4,4,1c0.5,0.4,0.5,1.4,0.5,2.9c-0.1,2.4-0.2,5.6,3.4,7.5c0.7,0.4,1.4,0.5,2.1,0.5c3.1,0,6.4-2.8,9.5-5.4
			c2-1.7,4.6-3.8,5.7-3.7c1.2,0.1,1.6,0.8,2.4,2.3c0.9,1.6,2,3.8,5.2,4.7c3.4,0.9,8.5-1.7,11.8-4.3c4-3.1,6.6-6.7,7.3-9.8
			c1.7,0.4,3.3,0.8,4.9,1.2c0.1,0,0.2,0,0.3,0c0.5,0,1-0.4,1.2-0.9C221.5,736.6,221.1,736,220.5,735.8z M190.8,716.8
			c1.4-0.7,3.9,0,7,1.9c6.4,4,12.7,11.4,14.4,15.2c-4.1-0.7-8.2-1.2-12.3-1.5l0,0l-10.8-12.8c-0.1-0.1-0.1-0.1-0.2-0.1
			C189,718.3,189.6,717.4,190.8,716.8z M163.9,731.4c1.2-0.3,2.2-0.6,2.9-1.1c1.9-1.4,1.2-3.8,0.6-5.7c-0.9-2.9-1.1-4.3,0.9-5.3
			c0.3-0.2,0.7-0.3,1.2-0.3c2.3,0,5.6,2.4,8.6,4.5c3.5,2.5,6.5,4.6,9,4.3c2.4-0.3,2.3-2.6,2.1-4.4l7.4,8.8c-17.9-0.8-33.5,2-38.3,3
			C158.6,733,160.9,732.2,163.9,731.4z M163.4,738.9c-2.2-0.3-3.9-0.6-4.7-1.4c2.9-0.6,9.8-1.8,18.7-2.6l-7.4,9.8
			c0-1.5-0.1-3.2-1.4-4.3C167.4,739.5,165.5,739.2,163.4,738.9z M188.5,741.7c-2.1-0.2-4.6,1.9-7.5,4.3c-3,2.5-6.7,5.7-8.9,4.6
			c-1-0.5-1.6-1.2-1.9-2c0.1-0.1,0.1-0.1,0.2-0.2l10.1-13.4v-0.1c6.4-0.4,13.6-0.4,21,0.2l-9.1,9.8
			C191.7,743.3,190.7,741.9,188.5,741.7z M206.1,744.8c-3.6,2.8-7.7,4.4-9.7,3.9c-1.3-0.4-2.1-1-2.6-1.8l10.9-11.6
			c2.6,0.3,5.2,0.7,7.9,1.2C212,739,209.6,742.1,206.1,744.8z" style="fill:#1A1A1A;"/>
	</g>
	<g>
		<g>
			<path d="M356.7,751.8c-2.2-4.7-10.2-6.5-22.8-0.8c-11.8,5.4-16.9,13-14.9,16.6c2,3.5,13.5,3.5,24.2-0.5
				C353.9,763.2,359.2,757.2,356.7,751.8z" style="fill:#FECE2F;"/>
		</g>
		<g>
			<path d="M319,763.9c6.1-4.1,18.5-11.4,34.7-15.2c-3.8-2-10.6-1.8-19.7,2.4C325.4,755,320.3,760,319,763.9z" style="fill:#FFFFFF;"/>
		</g>
		<path d="M365.4,749.5c-0.1-0.7-0.8-1.1-1.5-0.9c-2.2,0.5-4.5,1.1-6.7,1.7c-3-4.4-11.2-6.1-23.8-0.3
			c-8.1,3.7-14.2,9-15.7,13.8c-0.5,1.7-0.5,3.2,0.2,4.5l0,0l0,0l0,0c1.3,2.2,4.9,3.2,9.4,3.2c5,0,11.1-1.2,16.4-3.1
			c7.5-2.8,12.5-6.6,14.2-10.7c0.7-1.7,0.8-3.4,0.4-5c2.1-0.6,4.1-1.1,6.2-1.5C365.1,750.9,365.5,750.2,365.4,749.5z M354.7,751
			c-2,0.6-4,1.3-5.9,1.9l0,0c-1.3,0.5-2.6,0.9-3.9,1.4l-10-2.4c5.2-2.3,9.6-3.3,13-3.3C351,748.7,353.4,749.6,354.7,751z
			 M334.1,758.8C334,758.8,334,758.8,334.1,758.8l-7.4-2.1c1.3-1,2.9-2,4.7-3l9.5,2.3C338.4,756.9,336.2,757.9,334.1,758.8z
			 M320,764.5c0.5-1.6,1.9-3.7,4.3-5.9l6.3,1.8c-5.1,2.3-8.9,4.4-10.9,5.4C319.8,765.3,319.9,764.9,320,764.5z M321.1,767.9
			c3.6-1.9,13.6-7.1,25.5-11.5l-5.3,9.9c0,0.1,0,0.1-0.1,0.2C332.1,769.6,324,769.5,321.1,767.9z M355.6,756.7
			c-1.3,3.1-5.3,6.2-11.1,8.6l5.4-10.1c2-0.7,3.9-1.3,6-1.9C356.2,754.3,356.1,755.5,355.6,756.7z" style="fill:#1A1A1A;"/>
	</g>
	<g>
		<g>
			<g>
				<path d="M75.6,723.7c0,0-9.9-6.8-8.8-22c0,0,5,8.5,11,1.5s4.4-15,4.4-15s6.2,11,18.8-2.7c0,0-3.5,13.6,2,18.3
					c5.5,4.6,16.3-6.6,16.3-6.6s2,14,17.9,8.6c0,0-14.4,7.6-11.9,17.6c0,0-11.3-1.8-11.2,3.6c0.1,5.4,13,9.6,13,9.6
					s-19.6-1.9-20.1,9.7c0,0-19.9-16-22.1-2.3C85.3,744,73.4,741.2,75.6,723.7z" style="fill:#FECE2F;"/>
			</g>
		</g>
		<g>
			<g>
				<path d="M119.6,697.2c0,0-10.8,11.2-16.3,6.6c-5.5-4.6-2-18.3-2-18.3c-0.9,1-1.8,1.8-2.6,2.5
					c-0.5,3.8-1.7,7.7-1.8,11.6c0,2.1,0.2,4.3,1.3,6.1c1.7,3,5.4,4.6,8.9,4.8s9.6-2,11.5-5.4c0.9,1.7,5.6,5,7.5,5.2
					c-2.5,0.9-5.9,4.1-5.3,7.9c-4-1.7-10,0.1-11.6,4.2c-1.5,3.6,0.6,10,4.5,12c-3.2-0.4-8,2.2-8.3,5.5c-0.2,1.8,0.3,3.6,0.9,5.3
					c0.8,0.6,1.3,1,1.3,1c0.5-11.7,20.1-9.7,20.1-9.7s-12.9-4.2-13-9.6c-0.1-5.4,11.2-3.6,11.2-3.6c-2.6-10,11.9-17.6,11.9-17.6
					C121.6,711.2,119.6,697.2,119.6,697.2z" style="fill:#FFFFFF;"/>
			</g>
		</g>
		<path d="M138.6,705.3c-0.3-0.6-0.9-0.9-1.5-0.7c-4.8,1.6-8.7,1.6-11.5-0.1c-4-2.4-4.8-7.4-4.8-7.4
			c-0.1-0.5-0.4-0.8-0.8-1c-0.4-0.1-0.9,0-1.3,0.3c-2.8,2.9-10.8,9.7-14.7,6.5c-4.1-3.4-2.6-13.5-1.6-17.1c0.1-0.5-0.1-1.1-0.6-1.4
			c-0.5-0.3-1.1-0.2-1.5,0.2c-4.3,4.6-8.3,6.8-11.6,6.4c-3.5-0.4-5.3-3.5-5.3-3.5c-0.3-0.5-0.9-0.8-1.5-0.5
			c-0.6,0.2-0.9,0.8-0.8,1.4c0,0.1,1.4,7.5-4.1,14c-1.4,1.7-2.9,2.5-4.3,2.3c-2.7-0.2-4.7-3.6-4.7-3.6c-0.3-0.5-0.8-0.7-1.3-0.6
			c-0.5,0.1-0.9,0.6-0.9,1.1c-0.9,11.9,4.7,18.9,7.6,21.7c-0.7,0.1-1.5,0.3-2.2,0.4c-7.4,1.2-14.8,2.3-22.3,2.6l0,0
			c-0.2,0-0.4,0-0.6,0.1c-1.4,0.4-2.3,1.9-1.9,3.3c0.4,1.4,1.9,2.3,3.3,1.9c7.3-2,14.7-3.7,22-5.3c0.9-0.2,1.8-0.4,2.6-0.6
			c-1.1,16.4,10.6,19.5,10.7,19.5c0.3,0.1,0.7,0,1-0.2s0.5-0.5,0.5-0.8c0.4-2.3,1.2-3.6,2.7-4.2c4.6-1.8,14.2,4.6,17.4,7.3
			c0.2,0.2,0.5,0.3,0.8,0.3c0.2,0,0.3,0,0.5-0.1c0.4-0.2,0.7-0.6,0.7-1.1c0.1-2.1,0.9-3.8,2.5-5.2c5.1-4.4,16.2-3.4,16.3-3.4
			c0.6,0.1,1.2-0.4,1.3-1s-0.2-1.2-0.8-1.4c-4.7-1.5-12.1-5.1-12.2-8.4c0-0.6,0.2-1.1,0.6-1.5c1.7-1.5,6.5-1.4,9.1-1
			c0.4,0.1,0.8-0.1,1.1-0.4c0.3-0.3,0.4-0.7,0.3-1.1c-2.3-9,11.1-16.1,11.3-16.2C138.6,706.5,138.8,705.8,138.6,705.3z M102.4,704.7
			c5,4.2,13.1-2.1,16.5-5.2c0.7,2.1,2.2,5.1,5.4,7c1.6,1,3.4,1.5,5.3,1.7l-4.2,1.7l-5.3,1.9c-1.8,0.6-3.6,1.1-5.3,1.7
			c-7.2,2.2-14.4,4.1-21.7,5.7c-3.6,0.9-7.3,1.6-11,2.3c-1.6,0.3-3.1,0.6-4.7,0.9c1.7-4.3,7.6-16.7,21.6-31.8
			C98.6,695.3,98.7,701.6,102.4,704.7z M68,705c1.1,1,2.6,2,4.4,2.2c2.2,0.2,4.4-0.9,6.4-3.2c3.8-4.5,4.8-9.2,4.9-12.4
			c1.1,0.9,2.7,1.7,4.6,1.9s3.9-0.2,5.9-1.1c-12.3,14-17.5,25.2-19.1,29.3C72.8,719.6,68.3,714.2,68,705z M109.4,739.3
			c-1.5,1.3-2.5,2.9-3,4.7c-7.5-5.6-12.8-6.7-15.6-6.7c-1.5,0-2.3,0.3-2.6,0.4c-1.9,0.7-3.2,2.3-3.9,4.7c-2.6-1.2-8.5-5.2-7.7-16.7
			c4.7,2.4,18.9,8.8,39.1,10.6C113.5,736.8,111.2,737.8,109.4,739.3z M124.1,721.9c-2.5-0.2-7.1-0.3-9.4,1.7c-1,0.9-1.5,2-1.5,3.3
			c0,2.8,2.6,5.2,5.6,7c-18.6-1.2-32.7-6.6-38.9-9.5c4.6-1,9.1-2.1,13.7-3.2c7.3-1.8,14.6-3.7,21.8-5.8c3.6-1.1,7.2-2.3,10.8-3.5
			l2.6-1C126,713.8,123.7,717.6,124.1,721.9z" style="fill:#1A1A1A;"/>
	</g>
	<g>
		<g>
			<g>
				<path d="M285.1,727.1c0,0-0.4,14.6-16.7,23.4c0,0,5.4-10.7-5.7-12.2s-18.2,5.4-18.2,5.4s7.1-13.5-15.1-17.5
					c0,0,16.2-5.4,17.3-14.1c1.1-8.7-17.5-12.3-17.5-12.3s13-11.3-3-23.9c0,0,17.2,9.8,25.7,0.6c0,0,5.6,12.6,11.1,9
					c5.5-3.7,1.2-19.6,1.2-19.6s10.9,21.3,23.1,14.1c0,0-3.2,30.8,12.2,24C299.5,704,304.4,717.9,285.1,727.1z" style="fill:#FECE2F;"/>
			</g>
		</g>
		<g>
			<g>
				<path d="M262.7,738.3c11.1,1.5,5.7,12.2,5.7,12.2c1-0.5,1.9-1.1,2.8-1.7c2.4-3.3,3.6-7.9,1.3-11.3
					c-1.9-2.8-5.6-3.7-8.9-3.9c-4.8-0.3-9.6,0.2-14.1,1.6c1.2-2,0.9-4.7-0.6-6.5c-1.1-1.3-2.9-2-4.6-1.9c6.3-1.7,11.1-8.3,10.3-14.9
					c-0.8-7.1-8-12.9-15.1-12.2c2.6-3.8,3.2-9,1.4-13.3c5.6-0.8,9.5-4.6,11.3-9.4c-0.2-0.4-0.3-0.6-0.3-0.6
					c-8.5,9.2-25.7-0.6-25.7-0.6c16,12.6,3,23.9,3,23.9s18.5,3.6,17.5,12.3s-17.3,14.1-17.3,14.1c22.3,4,15.1,17.5,15.1,17.5
					S251.6,736.8,262.7,738.3z" style="fill:#FFFFFF;"/>
			</g>
		</g>
		<path d="M310.1,748.7c-6.8-6.2-13.3-12.6-19.8-19c-0.8-0.8-1.7-1.7-2.6-2.5c17.5-9.6,12.9-23.4,12.9-23.5
			c-0.1-0.3-0.4-0.6-0.7-0.7c-0.3-0.1-0.7-0.1-1,0c-2.6,1.2-4.7,1.2-6.3,0c-5-3.6-4.7-17.7-4.2-22.8c0-0.5-0.2-0.9-0.6-1.2
			s-0.9-0.3-1.3,0c-2.3,1.3-4.6,1.7-7.1,0.9c-8-2.3-14.3-14.4-14.3-14.5c-0.3-0.6-0.9-0.8-1.5-0.6s-0.9,0.9-0.7,1.5
			c1,3.9,3.2,15.6-0.7,18.2c-0.7,0.5-1.4,0.6-2.1,0.4c-3.1-0.9-6.2-6.7-7.1-8.8c-0.2-0.4-0.5-0.6-0.9-0.7c-0.4-0.1-0.8,0.1-1.1,0.4
			c-7.8,8.4-24.1-0.7-24.2-0.8c-0.6-0.3-1.3-0.1-1.6,0.4c-0.4,0.5-0.2,1.2,0.3,1.6c4.9,3.8,7.4,7.9,7.5,12.1c0.2,5.8-4.5,9.9-4.5,10
			c-0.4,0.3-0.5,0.8-0.4,1.2c0.1,0.5,0.5,0.8,0.9,0.9c4.8,1,17.3,4.8,16.5,11c-1,7.8-16.3,13.1-16.5,13.1c-0.5,0.2-0.9,0.7-0.8,1.2
			c0,0.6,0.5,1,1,1.1c7.7,1.4,12.5,4,14.4,7.8c1.9,3.9-0.1,7.9-0.1,7.9c-0.3,0.5-0.1,1.2,0.3,1.6c0.5,0.4,1.2,0.3,1.6-0.1
			c0.1-0.1,6.8-6.5,17.2-5c2.7,0.4,4.6,1.4,5.4,3c1.6,3-0.6,7.4-0.6,7.5c-0.2,0.5-0.1,1.1,0.2,1.4c0.2,0.2,0.5,0.3,0.9,0.3
			c0.2,0,0.4,0,0.6-0.1c13-7,16.2-17.5,17-22.1l2.1,2.3c6.1,6.7,12.1,13.6,17.5,20.9l0,0c0.1,0.2,0.2,0.3,0.4,0.4
			c1.2,1.1,3.1,1,4.3-0.2C311.4,751.7,311.3,749.8,310.1,748.7z M278.9,682.2c2.4,0.7,4.8,0.6,7-0.2c-0.3,5.3-0.5,18.7,5.3,22.9
			c2,1.5,4.5,1.7,7.4,0.8c0.6,3.3,0.8,12.5-12.5,19.6c-0.6-6-3.4-26-15.7-48.6C272.9,679.1,275.7,681.3,278.9,682.2z M251.5,678.5
			c1.4,2.6,4.3,7.6,8,8.6c1.4,0.4,2.9,0.2,4.2-0.7c3-2,3.5-6.7,3.3-11.1c11.7,20.6,15.4,39.3,16.5,47.5c-4.2-4.1-8.4-8.2-12.7-12.3
			c-6.6-6.3-13.3-12.5-20.3-18.4c-3.5-3-7.1-5.8-10.6-8.7l-3.4-2.4C241.5,682.1,247.2,682.1,251.5,678.5z M247.9,712.3
			c1-7.9-11.2-11.9-16.3-13.2c1.6-2,4-5.6,3.8-10.2c-0.1-2.4-0.8-4.8-2.2-7.1l5.2,3.6l5.4,4.1c1.8,1.4,3.5,2.9,5.2,4.3
			c6.9,5.9,13.6,12,20.1,18.4c3.3,3.2,6.4,6.4,9.6,9.7l4.3,4.5c-5.2,1-22.3,3.4-47.8-1.2C240.4,722.6,247.1,718.2,247.9,712.3z
			 M270.7,747.8c0.4-1.9,0.5-4.3-0.6-6.4c-1.2-2.3-3.7-3.8-7.2-4.3c-1.2-0.2-2.3-0.2-3.4-0.2c-5.7,0-10,2-12.7,3.7
			c0.2-1.8,0.2-4.1-1-6.4c-1.2-2.4-3.2-4.3-6-5.9c9.7,1.5,18,2,24.8,2c9.7,0,16.3-1,19.2-1.6C283.1,732.3,280.6,741.2,270.7,747.8z" style="fill:#1A1A1A;"/>
	</g>
	<g>
		<g>
			<path d="M322.7,715.4c-1.1,5.4,1.9,11.9,11.4,14.2c8.7,2.1,23.6,5.7,31.5,9.9c8.9,4.7,19.4,9,23.9,2.8
				c4.2-5.7,2.8-13.7-13.9-24.2C358.7,707.6,325.7,700.5,322.7,715.4z" style="fill:#FECE2F;"/>
		</g>
		<g>
			<path d="M391,739.4c-23.9-23.7-52.9-28-65.7-28.7c8.8-8.3,35.6-1.7,50.2,7.4C389.6,726.9,392.8,734,391,739.4z" style="fill:#FFFFFF;"/>
		</g>
		<path d="M397.6,752c-2.5-3-5.2-5.7-7.9-8.2c0.2-0.2,0.5-0.5,0.7-0.8c1.9-2.6,2.6-5.5,2.1-8.4
			c-1.1-5.5-6.6-11.4-16.4-17.5c-13.6-8.5-36.6-14.5-48-9.7c-3.7,1.6-6,4.2-6.7,7.8c-1.2,6,2.1,13.2,12.3,15.6
			c8.8,2.1,23.4,5.7,31.2,9.8c5.4,2.9,12.2,6,17.7,6c1.9,0,3.6-0.4,5.2-1.2c2.8,2.5,5.4,5.3,8,8.2c0.2,0.3,0.6,0.4,0.9,0.4
			s0.6-0.1,0.8-0.3C398,753.3,398.1,752.6,397.6,752z M390.1,735.1c0.4,2.3-0.1,4.5-1.6,6.5c-0.2,0.2-0.3,0.4-0.5,0.6
			c-4.5-3.9-9.1-7.3-13.8-10.2l11.6-4.3c0,0,0,0,0.1,0C388.2,730.3,389.6,732.7,390.1,735.1z M383.9,725.8l-12.5,4.6
			c-2.5-1.4-5-2.8-7.4-4l14.2-5.1C380.4,722.9,382.3,724.4,383.9,725.8z M329.1,709.7c10.3-4.4,32.7,1.3,45.7,9.5
			c0.3,0.2,0.5,0.3,0.8,0.5l-14.8,5.3c-9.4-4.3-18.2-6.9-25-8.5c-0.1,0-0.2-0.1-0.3-0.1c-5.3-1.2-9.3-1.8-11.4-2.1
			C325,712.3,326.6,710.7,329.1,709.7z M340.8,730l-3.4-10.6c3,0.8,6.3,1.7,9.9,2.9l3,10.3C347,731.7,343.8,730.8,340.8,730
			L340.8,730z M323.7,716.8c1.8,0.2,5.7,0.8,10.9,2l3.4,10.6c-1.3-0.3-2.5-0.6-3.7-0.9C325.9,726.4,323.3,721.1,323.7,716.8z
			 M366.1,738.5c-3.4-1.8-8.1-3.5-13-5l-3-10.2c11.2,4,24.2,10.4,35.8,20.4C382,745.2,375.6,743.5,366.1,738.5z" style="fill:#1A1A1A;"/>
	</g>
</g>
<g>
	<g>
		<rect x="402.7" y="129.7" width="36.2" height="17.5" style="fill:#FECE2F;"/>
	</g>
	<g>
		<rect x="444.6" y="129.7" width="35.4" height="17.5" style="fill:#FECE2F;"/>
	</g>
	<g>
		<rect x="420.2" y="151.2" width="36.2" height="17.5" style="fill:#FECE2F;"/>
	</g>
</g>
<g>
	<g>
		<rect x="62.7" y="542.2" width="36.2" height="17.5" style="fill:#FECE2F;"/>
	</g>
	<g>
		<rect x="104.6" y="542.2" width="37.3" height="17.5" style="fill:#FECE2F;"/>
	</g>
	<g>
		<rect x="80.2" y="563.6" width="36.2" height="17.5" style="fill:#FECE2F;"/>
	</g>
</g>
<path d="M667.5,173.8l-53-19.4l0,0c0-2.5-2.1-4.6-4.6-4.6s-4.6,2.1-4.6,4.6c0,1.2,0.4,2.2,1.2,3l-67.6,73.4
	c-0.5,0.5-0.4,1.3,0.1,1.7c0.2,0.2,0.5,0.3,0.8,0.3s0.7-0.1,0.9-0.4l67.9-73.7c0.4,0.1,0.9,0.2,1.4,0.2c1.7,0,3.1-0.9,3.9-2.2
	l52.8,19.4c0.6,0.2,1.3-0.1,1.6-0.7C668.5,174.8,668.2,174.1,667.5,173.8z" style="fill:#1A1A1A;"/>
<g>
	<path d="M691.8,211.1l-17-39.1c-0.2-0.3-0.4-0.7-0.6-1c-1.2-1.8-3.5-2.5-5.5-1.6l-135.1,58.9c-0.3,0.1-0.6,0.3-0.9,0.5
		l-1.5,0.7c-2.4,1-3.4,3.8-2.4,6.1l17,39.1c0.5,1.1,1.4,2,2.6,2.5c0.6,0.2,1.1,0.3,1.7,0.3c0.6,0,1.3-0.1,1.9-0.4l137.5-59.9l0,0
		C691.7,216.2,692.8,213.5,691.8,211.1z" style="fill:#1A1A1A;"/>
	<path d="M534.5,230.6c-0.5,0.2-0.9,0.6-1.1,1.1c-0.2,0.5-0.2,1.1,0,1.6l15.8,36.2c0.5,1,1.7,1.5,2.7,1.1L687,211.7l0,0
		c0.5-0.2,0.9-0.6,1.1-1.1s0.2-1.1,0-1.6l-15.8-36.2c-0.3-0.8-1.1-1.2-1.9-1.2c-0.3,0-0.6,0.1-0.8,0.2L534.5,230.6z" style="fill:#FFFFFF;"/>
	<g>
		<path d="M553.7,257.2c-0.3-0.1-0.5-0.2-0.6-0.5L542.9,241l-0.1-0.1c-0.1-0.1-0.1-0.3,0-0.5s0.2-0.3,0.3-0.3l3.5-1.5
			c0.5-0.2,0.9-0.1,1.1,0.2l6,9.3l-0.7-6.6c-0.1-0.5,0.1-0.9,0.6-1.1l2-0.9c0.4-0.2,0.8-0.1,1.2,0.3l4.3,5l-2.7-10.7
			c-0.1-0.2,0-0.4,0-0.6c0.1-0.1,0.3-0.3,0.5-0.4l3.5-1.5c0.2-0.1,0.3-0.1,0.5,0s0.3,0.2,0.3,0.3l0.1,0.2l4.5,18.1
			c0.1,0.3,0,0.5-0.1,0.8s-0.3,0.4-0.6,0.6l-2.7,1.2c-0.3,0.1-0.5,0.1-0.8,0.1c-0.2-0.1-0.4-0.2-0.5-0.3l-5.8-6.2l0.6,8.5
			c0,0.2,0,0.4-0.1,0.6c-0.1,0.2-0.3,0.4-0.6,0.5l-2.6,1.2C554.2,257.2,553.9,257.3,553.7,257.2z" style="fill:#1A1A1A;"/>
		<path d="M573.7,248.5c-0.2-0.1-0.3-0.2-0.4-0.4l-7.5-17.1c-0.1-0.2-0.1-0.4,0-0.6c0.1-0.2,0.2-0.3,0.4-0.4l12.5-5.4
			c0.2-0.1,0.4-0.1,0.6,0c0.2,0.1,0.3,0.2,0.4,0.4l1.1,2.6c0.1,0.2,0.1,0.4,0,0.6c-0.1,0.2-0.2,0.3-0.4,0.4l-8.3,3.6l1.5,3.4
			l7.8-3.4c0.2-0.1,0.4-0.1,0.6,0c0.2,0.1,0.3,0.2,0.4,0.4l1,2.4c0.1,0.2,0.1,0.4,0,0.6c-0.1,0.2-0.2,0.3-0.4,0.4l-7.8,3.4l1.5,3.4
			l8.6-3.7c0.2-0.1,0.4-0.1,0.6,0c0.2,0.1,0.3,0.2,0.4,0.4l1.1,2.6c0.1,0.2,0.1,0.4,0,0.6c-0.1,0.2-0.2,0.3-0.4,0.4l-12.7,5.5
			C574,248.6,573.8,248.6,573.7,248.5z" style="fill:#1A1A1A;"/>
		<path d="M590.6,241.1c-0.2-0.1-0.3-0.2-0.4-0.4l-7.5-17.2c-0.1-0.2-0.1-0.4,0-0.6c0.1-0.2,0.2-0.3,0.4-0.4l3.7-1.6
			c0.2-0.1,0.4-0.1,0.6,0c0.2,0.1,0.3,0.2,0.4,0.4l6,13.7l7.9-3.5c0.2-0.1,0.4-0.1,0.6,0c0.2,0.1,0.3,0.2,0.4,0.4l1.2,2.8
			c0.1,0.2,0.1,0.4,0,0.6s-0.2,0.3-0.4,0.4l-12.3,5.4C591,241.2,590.8,241.2,590.6,241.1z" style="fill:#1A1A1A;"/>
		<path d="M607.2,232.3c-2-0.6-3.5-2-4.6-4.3c-0.2-0.5-0.6-1.2-1-2.3c-0.5-1.1-0.8-1.9-1-2.4c-0.9-2.3-0.9-4.4,0-6.3
			s2.6-3.4,5.1-4.4c1.6-0.7,3.1-1,4.5-1.1c1.5,0,2.8,0.3,3.9,0.9c1.1,0.7,2,1.6,2.6,2.9c0.1,0.2,0.1,0.3,0,0.5s-0.2,0.3-0.3,0.3
			l-3.8,1.6c-0.2,0.1-0.4,0.1-0.6,0.1c-0.2,0-0.3-0.2-0.5-0.4c-0.6-0.8-1.3-1.2-1.9-1.3c-0.7-0.1-1.4,0-2.2,0.4
			c-2,0.9-2.5,2.4-1.6,4.7c0.2,0.5,0.5,1.2,0.9,2.2s0.8,1.7,1,2.2c1,2.2,2.6,2.8,4.5,2c0.8-0.4,1.4-0.8,1.8-1.4
			c0.4-0.6,0.5-1.3,0.3-2.3c0-0.3,0-0.5,0.1-0.7c0.1-0.1,0.2-0.3,0.5-0.4l3.8-1.6c0.2-0.1,0.3-0.1,0.5,0s0.3,0.2,0.3,0.3
			c0.5,1.3,0.7,2.6,0.4,3.9c-0.3,1.3-1,2.5-2,3.5c-1,1.1-2.3,1.9-3.9,2.6C611.4,232.6,609.2,232.9,607.2,232.3z" style="fill:#1A1A1A;"/>
		<path d="M625.9,224.1c-2-0.6-3.5-2-4.6-4.4c-0.2-0.5-0.6-1.2-1-2.3c-0.4-1-0.8-1.8-1-2.3c-0.9-2.4-1-4.5,0-6.4
			c0.9-1.9,2.6-3.4,5.1-4.5c2.4-1.1,4.7-1.3,6.7-0.7s3.6,2.1,4.7,4.4c0.5,1,0.8,1.8,1.1,2.3c0.2,0.5,0.5,1.3,0.9,2.3
			c0.9,2.4,1,4.5,0.1,6.4c-0.9,1.8-2.6,3.3-5.1,4.4C630.1,224.5,627.8,224.7,625.9,224.1z M632.7,217.6c0.3-0.8,0.2-1.8-0.2-2.9
			c-0.4-1-0.7-1.8-0.9-2.2s-0.5-1.1-1-2.1c-0.5-1.1-1.2-1.9-2-2.2s-1.6-0.3-2.6,0.1c-0.9,0.4-1.6,1-1.9,1.8
			c-0.3,0.8-0.2,1.8,0.2,2.9c0.2,0.5,0.5,1.2,0.9,2.2s0.7,1.7,1,2.2c0.5,1.1,1.2,1.9,2,2.2s1.6,0.3,2.6-0.1
			C631.8,219,632.4,218.4,632.7,217.6z" style="fill:#1A1A1A;"/>
		<path d="M643.8,218c-0.2-0.1-0.3-0.2-0.4-0.4l-7.5-17.1c-0.1-0.2-0.1-0.4,0-0.6c0.1-0.2,0.2-0.3,0.4-0.4l3-1.3
			c0.4-0.2,0.8-0.1,1.2,0.2l8.1,6.2l1-10.1c0-0.5,0.3-0.8,0.7-1l3-1.3c0.2-0.1,0.4-0.1,0.6,0c0.2,0.1,0.3,0.2,0.4,0.4l7.5,17.1
			c0.1,0.2,0.1,0.4,0,0.6c-0.1,0.2-0.2,0.3-0.4,0.4L658,212c-0.2,0.1-0.4,0.1-0.5,0c-0.2-0.1-0.3-0.2-0.4-0.4l-4.2-9.6l-0.6,6.5
			c-0.1,0.5-0.3,0.8-0.7,1l-1.4,0.6c-0.4,0.2-0.7,0.1-1.2-0.2l-5.1-4l4.2,9.6c0.1,0.2,0.1,0.4,0,0.6c-0.1,0.2-0.2,0.3-0.4,0.4
			l-3.3,1.5C644.2,218,644,218,643.8,218z" style="fill:#1A1A1A;"/>
		<path d="M665.8,208.4c-0.2-0.1-0.3-0.2-0.4-0.4l-7.5-17.1c-0.1-0.2-0.1-0.4,0-0.6c0.1-0.2,0.2-0.3,0.4-0.4l12.5-5.4
			c0.2-0.1,0.4-0.1,0.6,0c0.2,0.1,0.3,0.2,0.4,0.4l1.1,2.6c0.1,0.2,0.1,0.4,0,0.6c-0.1,0.2-0.2,0.3-0.4,0.4l-8.3,3.6l1.5,3.4
			l7.8-3.4c0.2-0.1,0.4-0.1,0.6,0c0.2,0.1,0.3,0.2,0.4,0.4l1,2.4c0.1,0.2,0.1,0.4,0,0.6c-0.1,0.2-0.2,0.3-0.4,0.4l-7.8,3.4l1.5,3.4
			l8.6-3.7c0.2-0.1,0.4-0.1,0.6,0c0.2,0.1,0.3,0.2,0.4,0.4l1.1,2.6c0.1,0.2,0.1,0.4,0,0.6c-0.1,0.2-0.2,0.3-0.4,0.4l-12.7,5.5
			C666.1,208.5,666,208.5,665.8,208.4z" style="fill:#1A1A1A;"/>
	</g>
</g>
</svg>
