<?xml version="1.0" encoding="iso-8859-1"?>
<!-- Generator: Adobe Illustrator 23.0.2, SVG Export Plug-In . SVG Version: 6.00 Build 0)  -->
<svg version="1.1" id="Layer_1" xmlns="http://www.w3.org/2000/svg" xmlns:xlink="http://www.w3.org/1999/xlink" x="0px" y="0px"
	 viewBox="0 0 1105.6 1080" style="enable-background:new 0 0 1105.6 1080;" xml:space="preserve">
<g style="opacity:0.3;">
	<g>
		<path style="fill:#C4ECFE;" d="M1026.7,80.7V885H78.8V80.7H1026.7 M1029.8,77.6H75.7v810.5h954.1L1029.8,77.6L1029.8,77.6z"/>
	</g>
	<g>
		<g>
			<g>
				<rect x="306.5" y="77.6" style="fill:#C4ECFE;" width="2.9" height="810.5"/>
			</g>
			<g>
				<rect x="427.9" y="77.6" style="fill:#C4ECFE;" width="2.9" height="810.5"/>
			</g>
			<g>
				<rect x="306.5" y="77.6" style="fill:#C4ECFE;" width="2.9" height="810.5"/>
			</g>
			<g>
				<rect x="185.1" y="77.6" style="fill:#C4ECFE;" width="2.9" height="810.5"/>
			</g>
			<g>
				<rect x="549.3" y="77.6" style="fill:#C4ECFE;" width="2.9" height="810.5"/>
			</g>
			<g>
				<rect x="670.7" y="77.6" style="fill:#C4ECFE;" width="2.9" height="810.5"/>
			</g>
			<g>
				<rect x="790.6" y="77.6" style="fill:#C4ECFE;" width="2.9" height="810.5"/>
			</g>
			<g>
				<rect x="910.5" y="77.6" style="fill:#C4ECFE;" width="2.9" height="810.5"/>
			</g>
		</g>
	</g>
</g>
<g>
	<g>
		<g>
			
				<linearGradient id="SVGID_1_" gradientUnits="userSpaceOnUse" x1="-409.0324" y1="1020.9" x2="-409.0324" y2="840.1" gradientTransform="matrix(-1 0 0 -1 -222.4324 1392)">
				<stop  offset="0.2594" style="stop-color:#CAE6C4"/>
				<stop  offset="0.4772" style="stop-color:#CDE7C7"/>
				<stop  offset="0.6541" style="stop-color:#D6ECD1"/>
				<stop  offset="0.8167" style="stop-color:#E5F3E2"/>
				<stop  offset="0.9698" style="stop-color:#FBFDFA"/>
				<stop  offset="0.9958" style="stop-color:#FFFFFF"/>
			</linearGradient>
			<path style="fill:url(#SVGID_1_);" d="M186.6,551.9c-3,0-5.5-2.5-5.5-5.5V376.6c0-3,2.5-5.5,5.5-5.5s5.5,2.5,5.5,5.5v169.8
				C192.1,549.4,189.6,551.9,186.6,551.9z"/>
		</g>
	</g>
	<g>
		<path style="fill:#CAE6C4;" d="M186.6,417.7c-2.6,0-5-1.9-5.4-4.6c-1.5-9.2-9.7-15.6-19.1-14.9c-3,0.2-5.7-2-5.9-5.1
			s2-5.7,5.1-5.9c15-1.1,28.3,9.2,30.7,24.1c0.5,3-1.5,5.8-4.5,6.3C187.2,417.7,186.9,417.7,186.6,417.7z"/>
	</g>
	<g>
		<path style="fill:#CAE6C4;" d="M186.6,417.7c-0.3,0-0.6,0-0.9-0.1c-3-0.5-5-3.3-4.5-6.3c2.5-14.8,15.7-25.2,30.7-24.1
			c3,0.2,5.3,2.9,5.1,5.9s-2.9,5.3-5.9,5.1c-9.3-0.7-17.5,5.7-19.1,14.9C191.6,415.8,189.2,417.7,186.6,417.7z"/>
	</g>
</g>
<g>
	<g>
		<g>
			
				<linearGradient id="SVGID_2_" gradientUnits="userSpaceOnUse" x1="-658.5323" y1="800.9" x2="-658.5323" y2="637.5" gradientTransform="matrix(-1 0 0 -1 -222.4324 1392)">
				<stop  offset="0.2594" style="stop-color:#CAE6C4"/>
				<stop  offset="0.4772" style="stop-color:#CDE7C7"/>
				<stop  offset="0.6541" style="stop-color:#D6ECD1"/>
				<stop  offset="0.8167" style="stop-color:#E5F3E2"/>
				<stop  offset="0.9698" style="stop-color:#FBFDFA"/>
				<stop  offset="0.9958" style="stop-color:#FFFFFF"/>
			</linearGradient>
			<path style="fill:url(#SVGID_2_);" d="M436.1,754.5c-3,0-5.5-2.5-5.5-5.5V596.6c0-3,2.5-5.5,5.5-5.5s5.5,2.5,5.5,5.5V749
				C441.6,752,439.1,754.5,436.1,754.5z"/>
		</g>
	</g>
	<g>
		<path style="fill:#CAE6C4;" d="M436.1,637.7c-2.6,0-5-1.9-5.4-4.6c-1.5-9.2-9.7-15.6-19.1-14.9c-3,0.2-5.7-2-5.9-5.1
			c-0.2-3,2-5.7,5.1-5.9c15-1.1,28.3,9.2,30.7,24.1c0.5,3-1.5,5.8-4.5,6.3C436.7,637.7,436.4,637.7,436.1,637.7z"/>
	</g>
	<g>
		<path style="fill:#CAE6C4;" d="M436.1,637.7c-0.3,0-0.6,0-0.9-0.1c-3-0.5-5-3.3-4.5-6.3c2.5-14.8,15.7-25.2,30.7-24.1
			c3,0.2,5.3,2.9,5.1,5.9c-0.2,3-2.9,5.3-5.9,5.1c-9.3-0.7-17.5,5.7-19.1,14.9C441.1,635.8,438.7,637.7,436.1,637.7z"/>
	</g>
	<g>
		<path style="fill:#CAE6C4;" d="M436.1,665.3c-2.6,0-5-1.9-5.4-4.6c-1.5-9.2-9.7-15.6-19.1-14.9c-3,0.2-5.7-2-5.9-5.1
			c-0.2-3,2-5.7,5.1-5.9c15-1.1,28.3,9.2,30.7,24.1c0.5,3-1.5,5.8-4.5,6.3C436.7,665.3,436.4,665.3,436.1,665.3z"/>
	</g>
	<g>
		<path style="fill:#CAE6C4;" d="M436.1,665.3c-0.3,0-0.6,0-0.9-0.1c-3-0.5-5-3.3-4.5-6.3c2.5-14.8,15.7-25.2,30.7-24.1
			c3,0.2,5.3,2.9,5.1,5.9c-0.2,3-2.9,5.3-5.9,5.1c-9.3-0.7-17.5,5.7-19.1,14.9C441.1,663.4,438.7,665.3,436.1,665.3z"/>
	</g>
</g>
<linearGradient id="SVGID_3_" gradientUnits="userSpaceOnUse" x1="-70.6885" y1="834.5999" x2="-338.4427" y2="505.9924" gradientTransform="matrix(1 0 0 -1 536.4739 1392)">
	<stop  offset="0" style="stop-color:#FFD8A1"/>
	<stop  offset="0.9958" style="stop-color:#FFFFFF"/>
</linearGradient>
<path style="fill:url(#SVGID_3_);" d="M644,888.1c-86.5-5.6-114.7-123.8-165.1-170.5S319.6,704.3,296,577
	c-15.8-85-86.6-88.8-145.7-120.1c-32.2-17.1-71,6.2-71,42.7V888L644,888.1L644,888.1z"/>
<g>
	<g>
		<g>
			<path style="fill:#FFFFFF;" d="M139.7,696.3c-3,0-5.5-2.5-5.5-5.5V538.4c0-3,2.5-5.5,5.5-5.5s5.5,2.5,5.5,5.5v152.4
				C145.2,693.8,142.7,696.3,139.7,696.3z"/>
		</g>
	</g>
	<g>
		<path style="fill:#FFFFFF;" d="M139.7,579.5c-2.6,0-5-1.9-5.4-4.6c-1.5-9.2-9.7-15.6-19.1-14.9c-3,0.2-5.7-2-5.9-5.1
			c-0.2-3,2-5.7,5.1-5.9c15-1.1,28.3,9.2,30.7,24.1c0.5,3-1.5,5.8-4.5,6.3C140.3,579.5,140,579.5,139.7,579.5z"/>
	</g>
	<g>
		<path style="fill:#FFFFFF;" d="M139.7,579.5c-0.3,0-0.6,0-0.9-0.1c-3-0.5-5-3.3-4.5-6.3c2.5-14.8,15.7-25.2,30.7-24.1
			c3,0.2,5.3,2.9,5.1,5.9s-2.9,5.3-5.9,5.1c-9.3-0.7-17.5,5.7-19.1,14.9C144.7,577.6,142.3,579.5,139.7,579.5z"/>
	</g>
	<g>
		<path style="fill:#FFFFFF;" d="M139.7,607.1c-2.6,0-5-1.9-5.4-4.6c-1.5-9.2-9.7-15.6-19.1-14.9c-3,0.2-5.7-2-5.9-5.1
			c-0.2-3,2-5.7,5.1-5.9c15-1.1,28.3,9.2,30.7,24.1c0.5,3-1.5,5.8-4.5,6.3C140.3,607.1,140,607.1,139.7,607.1z"/>
	</g>
	<g>
		<path style="fill:#FFFFFF;" d="M139.7,607.1c-0.3,0-0.6,0-0.9-0.1c-3-0.5-5-3.3-4.5-6.3c2.5-14.8,15.7-25.2,30.7-24.1
			c3,0.2,5.3,2.9,5.1,5.9s-2.9,5.3-5.9,5.1c-9.3-0.7-17.5,5.7-19.1,14.9C144.7,605.2,142.3,607.1,139.7,607.1z"/>
	</g>
</g>
<linearGradient id="SVGID_4_" gradientUnits="userSpaceOnUse" x1="-1142.1323" y1="653.1903" x2="-1142.1323" y2="508.7404" gradientTransform="matrix(-1 0 0 -1 -222.4324 1392)">
	<stop  offset="0" style="stop-color:#FFD8A1"/>
	<stop  offset="0.9958" style="stop-color:#FFFFFF"/>
</linearGradient>
<path style="fill:url(#SVGID_4_);" d="M809.6,888.1h220.2V750.5c0-22.2-27.9-32.1-41.9-14.9c-10.7,13.1-19.7,31.1-21.4,55.2
	C962,856.5,896,888.1,809.6,888.1z"/>
<g>
	<circle style="fill:#BFD9FF;" cx="978.3" cy="286.5" r="4.1"/>
	<circle style="fill:#BFD9FF;" cx="315.2" cy="715.7" r="4.1"/>
	<circle style="fill:#BFD9FF;" cx="828.4" cy="120.9" r="4.1"/>
	<circle style="fill:#BFD9FF;" cx="629.4" cy="232.9" r="4.1"/>
	<circle style="fill:#BFD9FF;" cx="148" cy="312.7" r="4.1"/>
	<circle style="fill:#BFD9FF;" cx="828.4" cy="509.9" r="3.8"/>
	<circle style="fill:#BFD9FF;" cx="161.8" cy="521.1" r="3.8"/>
</g>
<linearGradient id="SVGID_5_" gradientUnits="userSpaceOnUse" x1="-567.6323" y1="722.163" x2="-567.6323" y2="510.9579" gradientTransform="matrix(-1 0 0 -1 -222.4324 1392)">
	<stop  offset="0" style="stop-color:#C0DDFC"/>
	<stop  offset="0.1856" style="stop-color:#D3E7FD"/>
	<stop  offset="0.4877" style="stop-color:#EBF4FE"/>
	<stop  offset="0.766" style="stop-color:#FAFCFF"/>
	<stop  offset="0.9958" style="stop-color:#FFFFFF"/>
</linearGradient>
<path style="fill:url(#SVGID_5_);" d="M614.6,888.1c-73.3-5.1-165.4-164.2-269.4-164.2c-137.7,0-126.6-71.4-180.6-71.4
	c-59.3,0-88.8,32.6-88.8,133.9v101.7L614.6,888.1L614.6,888.1z"/>
<rect x="450.2" y="883.9" style="fill:#2B2B2B;" width="392.5" height="4.1"/>
<g>
	
		<radialGradient id="SVGID_6_" cx="427.2946" cy="1397.958" r="336.8798" gradientTransform="matrix(0.9336 0.3584 0.3584 -0.9336 -398.1399 1536.856)" gradientUnits="userSpaceOnUse">
		<stop  offset="0.0042" style="stop-color:#FFFFFF"/>
		<stop  offset="0.234" style="stop-color:#FAFCFF"/>
		<stop  offset="0.5123" style="stop-color:#EBF4FE"/>
		<stop  offset="0.8144" style="stop-color:#D3E7FD"/>
		<stop  offset="1" style="stop-color:#C0DDFC"/>
	</radialGradient>
	<path style="fill:url(#SVGID_6_);" d="M90.9,214.9c-3.6-44.7-8.6-88.7-11.6-133.7c30,17,61,32,91.2,48.5L90.9,214.9z"/>
	
		<radialGradient id="SVGID_7_" cx="475.0524" cy="1347.6454" r="336.8798" gradientTransform="matrix(0.9632 0.2686 0.2686 -0.9632 -293.878 1523.0637)" gradientUnits="userSpaceOnUse">
		<stop  offset="0.0042" style="stop-color:#FFFFFF"/>
		<stop  offset="0.234" style="stop-color:#FAFCFF"/>
		<stop  offset="0.5123" style="stop-color:#EBF4FE"/>
		<stop  offset="0.8144" style="stop-color:#D3E7FD"/>
		<stop  offset="1" style="stop-color:#C0DDFC"/>
	</radialGradient>
	<path style="fill:url(#SVGID_7_);" d="M185.5,252.1c-4.3-40.8-10.3-81.8-15.3-122.8c31,13,63,23,93,37c-13,14-26,28-38.6,42
		C205.1,229.8,185.5,252.1,185.5,252.1z"/>
	
		<radialGradient id="SVGID_8_" cx="532.8021" cy="1270.9165" r="336.8798" gradientTransform="matrix(0.9901 0.1405 0.1405 -0.9901 -155.3773 1501.6478)" gradientUnits="userSpaceOnUse">
		<stop  offset="0.0042" style="stop-color:#FFFFFF"/>
		<stop  offset="0.234" style="stop-color:#FAFCFF"/>
		<stop  offset="0.5123" style="stop-color:#EBF4FE"/>
		<stop  offset="0.8144" style="stop-color:#D3E7FD"/>
		<stop  offset="1" style="stop-color:#C0DDFC"/>
	</radialGradient>
	<path style="fill:url(#SVGID_8_);" d="M295.1,282.5c-10.8-39.2-20.8-78.2-31.8-117.2c32,10,65,15,96,26c-12,14-21,30-32,44.8
		C311.2,259.1,295.1,282.5,295.1,282.5z"/>
	
		<radialGradient id="SVGID_9_" cx="560.9457" cy="1224.2869" r="336.8798" gradientTransform="matrix(0.9978 0.0667 0.0667 -0.9978 -79.3069 1489.3124)" gradientUnits="userSpaceOnUse">
		<stop  offset="0.0042" style="stop-color:#FFFFFF"/>
		<stop  offset="0.234" style="stop-color:#FAFCFF"/>
		<stop  offset="0.5123" style="stop-color:#EBF4FE"/>
		<stop  offset="0.8144" style="stop-color:#D3E7FD"/>
		<stop  offset="1" style="stop-color:#C0DDFC"/>
	</radialGradient>
	<path style="fill:url(#SVGID_9_);" d="M399.9,300.3c-13.7-36-27.7-73-40.7-110c32,4,65,9,97,14c-9,16-20,31-28.3,48
		C413.9,276.2,399.9,300.3,399.9,300.3z"/>
	
		<radialGradient id="SVGID_10_" cx="581.7847" cy="1183.7791" r="336.8798" gradientTransform="matrix(1 0.0046 0.0046 -1 -16.76 1481.2435)" gradientUnits="userSpaceOnUse">
		<stop  offset="0.0042" style="stop-color:#FFFFFF"/>
		<stop  offset="0.234" style="stop-color:#FAFCFF"/>
		<stop  offset="0.5123" style="stop-color:#EBF4FE"/>
		<stop  offset="0.8144" style="stop-color:#D3E7FD"/>
		<stop  offset="1" style="stop-color:#C0DDFC"/>
	</radialGradient>
	<path style="fill:url(#SVGID_10_);" d="M503.9,307.6c-16.6-34.3-31.6-68.3-47.6-102.3c32-2,65,1,97,2c-9,16-17,33-24.9,50.2
		C516.1,282.6,503.9,307.6,503.9,307.6z"/>
	<g>
		
			<radialGradient id="SVGID_11_" cx="-812.4525" cy="922.0312" r="336.8798" gradientTransform="matrix(-0.9336 0.3584 -0.3584 -0.9336 254.9057 1536.856)" gradientUnits="userSpaceOnUse">
			<stop  offset="0.0042" style="stop-color:#FFFFFF"/>
			<stop  offset="0.234" style="stop-color:#FAFCFF"/>
			<stop  offset="0.5123" style="stop-color:#EBF4FE"/>
			<stop  offset="0.8144" style="stop-color:#D3E7FD"/>
			<stop  offset="1" style="stop-color:#C0DDFC"/>
		</radialGradient>
		<path style="fill:url(#SVGID_11_);" d="M1014.7,214.7c4.5-45.5,8.5-89.5,11.5-134.5c-30,17-61,31-91.1,46.5L1014.7,214.7z"/>
		
			<radialGradient id="SVGID_12_" cx="-804.205" cy="990.9088" r="336.8798" gradientTransform="matrix(-0.9632 0.2686 -0.2686 -0.9632 150.6439 1523.0637)" gradientUnits="userSpaceOnUse">
			<stop  offset="0.0042" style="stop-color:#FFFFFF"/>
			<stop  offset="0.234" style="stop-color:#FAFCFF"/>
			<stop  offset="0.5123" style="stop-color:#EBF4FE"/>
			<stop  offset="0.8144" style="stop-color:#D3E7FD"/>
			<stop  offset="1" style="stop-color:#C0DDFC"/>
		</radialGradient>
		<path style="fill:url(#SVGID_12_);" d="M920,250.2c5.2-41,9.2-83,15.2-124c-31,13-63,23-93,36c13,14,26,29,38.7,43
			C900.5,227.3,920,250.2,920,250.2z"/>
		
			<radialGradient id="SVGID_13_" cx="-782.0003" cy="1084.3397" r="336.8798" gradientTransform="matrix(-0.9901 0.1405 -0.1405 -0.9901 12.1432 1501.6478)" gradientUnits="userSpaceOnUse">
			<stop  offset="0.0042" style="stop-color:#FFFFFF"/>
			<stop  offset="0.234" style="stop-color:#FAFCFF"/>
			<stop  offset="0.5123" style="stop-color:#EBF4FE"/>
			<stop  offset="0.8144" style="stop-color:#D3E7FD"/>
			<stop  offset="1" style="stop-color:#C0DDFC"/>
		</radialGradient>
		<path style="fill:url(#SVGID_13_);" d="M810.5,279.8c10.8-38.6,19.8-78.6,31.8-117.6c-32,7-64,16-96,24c10,16,22,31,32.1,46.5
			C794.4,256.1,810.5,279.8,810.5,279.8z"/>
		
			<radialGradient id="SVGID_14_" cx="-764.0686" cy="1135.7677" r="336.8798" gradientTransform="matrix(-0.9978 0.0667 -0.0667 -0.9978 -63.9273 1489.3124)" gradientUnits="userSpaceOnUse">
			<stop  offset="0.0042" style="stop-color:#FFFFFF"/>
			<stop  offset="0.234" style="stop-color:#FAFCFF"/>
			<stop  offset="0.5123" style="stop-color:#EBF4FE"/>
			<stop  offset="0.8144" style="stop-color:#D3E7FD"/>
			<stop  offset="1" style="stop-color:#C0DDFC"/>
		</radialGradient>
		<path style="fill:url(#SVGID_14_);" d="M705.6,298.1c14.6-36.9,26.6-74.9,40.6-111.9c-32,6-65,10-97,16c10,16,19,32,28.4,47.8
			C691.6,274,705.6,298.1,705.6,298.1z"/>
		
			<radialGradient id="SVGID_15_" cx="-746.187" cy="1177.6652" r="336.8798" gradientTransform="matrix(-1 0.0046 -0.0046 -1 -126.4741 1481.2435)" gradientUnits="userSpaceOnUse">
			<stop  offset="0.0042" style="stop-color:#FFFFFF"/>
			<stop  offset="0.234" style="stop-color:#FAFCFF"/>
			<stop  offset="0.5123" style="stop-color:#EBF4FE"/>
			<stop  offset="0.8144" style="stop-color:#D3E7FD"/>
			<stop  offset="1" style="stop-color:#C0DDFC"/>
		</radialGradient>
		<path style="fill:url(#SVGID_15_);" d="M601.7,306.8c16.5-33.6,30.5-69.6,47.5-103.6c-32-1-64,1-96,5c8,16,17,32,24,48.8
			C589.5,282,601.7,306.8,601.7,306.8z"/>
	</g>
</g>
<g>
	
		<linearGradient id="SVGID_16_" gradientUnits="userSpaceOnUse" x1="725.9477" y1="724.0405" x2="692.9493" y2="1223.5155" gradientTransform="matrix(0.9978 -0.0669 -0.0669 -0.9978 -13.6697 1373.3944)">
		<stop  offset="0" style="stop-color:#FFE0C2"/>
		<stop  offset="0.401" style="stop-color:#7AAEFC"/>
		<stop  offset="0.5908" style="stop-color:#B8C1FC"/>
		<stop  offset="1" style="stop-color:#D2D4D4"/>
	</linearGradient>
	<path style="fill:url(#SVGID_16_);" d="M835.6,488.5c-17.1-75.8-92.3-90.5-103.9-125.3c-11.6-34.8,18.4-85.9-18.7-130.2
		c-3.1-3.7-6-7.1-8.7-10.3c-11.4-13.4-19.5-29-28-44.3c-18.9-34.3-43.7-33.6-43.7-33.6s-32.8,3.5-44.4,58.5
		c-8.2,11.4-16.2,21.8-27.7,37.5c-34,46.7-0.6,74.1-9.9,109.6c-9.2,35.5-75,55.2-87,132c-15.9,102.3,68.8,179.9,145.8,160.1
		c36.6-9.4,44.4-12.3,81.6-5.3C769.4,651.7,858.4,589.5,835.6,488.5z"/>
	<path style="fill:#2B2B2B;" d="M724,377.9c22.5,56.7,47.9,121.6,54.7,143.2c13.4,42.1,6.2,57.1-6.6,65.8S714.7,388.9,724,377.9z"/>
	<path style="fill:#2B2B2B;" d="M722,634.9l-59.4-0.9c0,0-40.8,3.5-57.4,9.5c-16.7,6.1,0-123.3,0-123.3l59.7-5.3L722,634.9z"/>
	<g>
		
			<linearGradient id="SVGID_17_" gradientUnits="userSpaceOnUse" x1="370.5924" y1="1061.012" x2="370.5924" y2="1335.0118" gradientTransform="matrix(0.9295 0.3688 0.3688 -0.9295 -300.5761 1373.0481)">
			<stop  offset="0" style="stop-color:#77879D"/>
			<stop  offset="0.0893" style="stop-color:#A1978E"/>
			<stop  offset="0.1883" style="stop-color:#C9A780"/>
			<stop  offset="0.2791" style="stop-color:#E5B275"/>
			<stop  offset="0.3578" style="stop-color:#F7B96F"/>
			<stop  offset="0.4155" style="stop-color:#FDBB6D"/>
			<stop  offset="0.4989" style="stop-color:#FDBB9F"/>
			<stop  offset="0.599" style="stop-color:#D1D2D1"/>
			<stop  offset="1" style="stop-color:#FECEAA"/>
		</linearGradient>
		<path style="fill:url(#SVGID_17_);" d="M469.7,299.8l20.9,34.4l59.6-41.2c14.3-14.8,37.9-15.1,52.6-0.8
			c14.8,14.3,15.1,37.9,0.8,52.6l-110.8,80.9c-15.6,11.4-37.9,3.9-43.4-14.7l-35.1-88.3L469.7,299.8z"/>
		<path style="fill:#EA7068;" d="M414.3,322.9l-10.4-30.5c-4.8-14.1,2.7-29.4,16.8-34.2c12.4-4.2,25.8,1.1,32.1,12.1l16.9,29.5"/>
	</g>
	<g>
		<circle style="fill:#EA7068;" cx="660.1" cy="200.4" r="14.7"/>
		<g>
			<path style="fill:#EA7068;" d="M714.3,550.3l12.8,29.5c5.9,13.6,21.7,19.9,35.4,14c12-5.2,18.3-18.2,15.6-30.5l-7.3-33.3"/>
			
				<linearGradient id="SVGID_18_" gradientUnits="userSpaceOnUse" x1="745.191" y1="748.2271" x2="745.191" y2="1022.2272" gradientTransform="matrix(0.9925 -0.1222 -0.1222 -0.9925 65.4549 1383.6223)">
				<stop  offset="0" style="stop-color:#77879D"/>
				<stop  offset="0.0893" style="stop-color:#A1978E"/>
				<stop  offset="0.1883" style="stop-color:#C9A780"/>
				<stop  offset="0.2791" style="stop-color:#E5B275"/>
				<stop  offset="0.3578" style="stop-color:#F7B96F"/>
				<stop  offset="0.4155" style="stop-color:#FDBB6D"/>
				<stop  offset="0.4989" style="stop-color:#FDBB9F"/>
				<stop  offset="0.599" style="stop-color:#D1D2D1"/>
				<stop  offset="1" style="stop-color:#FECEAA"/>
			</linearGradient>
			<path style="fill:url(#SVGID_18_);" d="M770.8,530.1l-68.2-221.8c-7.7-19-34.5-31.3-53.5-23.6c-19,7.7-28.2,29.4-20.5,48.5
				l85.7,217.2L770.8,530.1z"/>
		</g>
		
			<linearGradient id="SVGID_19_" gradientUnits="userSpaceOnUse" x1="-6449.3071" y1="1008.4094" x2="-6449.3071" y2="590.5464" gradientTransform="matrix(-1 0 0 -1 -5827.7061 1392)">
			<stop  offset="0" style="stop-color:#6B9C83"/>
			<stop  offset="0.401" style="stop-color:#A6A6A4"/>
			<stop  offset="0.5011" style="stop-color:#9F9FC8"/>
			<stop  offset="0.5908" style="stop-color:#9FCCEC"/>
			<stop  offset="1" style="stop-color:#FFE7B0"/>
		</linearGradient>
		<path style="fill:url(#SVGID_19_);" d="M675.5,382.9c9.1,26.3-4.2,62.1-33.8,60.9c-22.8-1-24.4-0.1-34.1-0.5
			c-30.4-1.3-50.1-33.2-40.1-61.9L675.5,382.9z"/>
		
			<linearGradient id="SVGID_20_" gradientUnits="userSpaceOnUse" x1="622.629" y1="838.116" x2="622.629" y2="1112.116" gradientTransform="matrix(1 0 0 -1 0 1392)">
			<stop  offset="0" style="stop-color:#77879D"/>
			<stop  offset="0.0893" style="stop-color:#A1978E"/>
			<stop  offset="0.1883" style="stop-color:#C9A780"/>
			<stop  offset="0.2791" style="stop-color:#E5B275"/>
			<stop  offset="0.3578" style="stop-color:#F7B96F"/>
			<stop  offset="0.4155" style="stop-color:#FDBB6D"/>
			<stop  offset="0.4989" style="stop-color:#FDBB9F"/>
			<stop  offset="0.599" style="stop-color:#D1D2D1"/>
			<stop  offset="1" style="stop-color:#FECEAA"/>
		</linearGradient>
		<path style="fill:url(#SVGID_20_);" d="M567.6,381.4c0,0,2.6-6.5,2.8-15.2s-20.7-22.5-19.6-49c0.9-20.4,23.5-49.9,58.9-48.7
			l28.6,1.9c31.2,1.1,55.3,28.9,56.1,50.6h0.1c0,0.6-0.1,1.2-0.1,1.8c0,0.2,0,0.4,0,0.6l0,0c-2.6,36.1-27.7,33.8-18.9,59.6
			L567.6,381.4z"/>
		<polygon style="fill:#FFFFFF;" points="603.5,287.7 603.5,382.3 638.5,382.3 638.5,290.7 		"/>
		<rect x="618.5" y="294.2" style="fill:#D8B8C7;" width="5" height="28.9"/>
		<circle style="fill:#EA7068;" cx="592.8" cy="197.7" r="14.7"/>
		<path style="fill:#2B2B2B;" d="M606.8,291.2l-25.2-16.6c0,0,10.5-6.6,28-6L606.8,291.2z"/>
		<path style="fill:#EA7068;" d="M645.8,273.8l-0.6-69l-41.6-1.5l-4.6,68.9c-1.1,13,9.1,24.1,22.1,24.4h1.8
			C635.5,296.8,645.9,286.5,645.8,273.8z"/>
		<polygon style="fill:#2B2B2B;" points="609.7,242.6 645.4,262.9 645.8,235.5 		"/>
		<path id="XMLID_10_" style="fill:#EA7068;" d="M623.6,245.5L623.6,245.5c18.3,0,33.6-13.8,35.5-32l3.4-31.8
			c0-21.6-17.6-39-39.1-39l0,0c-21.6,0-39,17.6-39,39.1l3.5,31.8C590,231.8,605.3,245.5,623.6,245.5z"/>
		<g>
			<path style="fill:#2B2B2B;" d="M622.4,205.3c-0.4,0-0.9-0.2-1.1-0.7c-0.3-0.6-0.1-1.4,0.5-1.7l3.6-2c0.4-0.3,0.6-0.7,0.7-1.1
				c0.1-0.5,0-1-0.3-1.4c-2.2-3-3.3-6.6-2.9-10.1l0.1-1.1c0.1-0.7,0.7-1.2,1.4-1.1c0.7,0.1,1.2,0.7,1.1,1.4l-0.1,1.1
				c-0.3,2.9,0.6,5.9,2.5,8.4c0.7,1,1,2.1,0.8,3.3c-0.2,1.1-0.8,2.1-1.8,2.8l-0.1,0.1l-3.7,2C622.8,205.2,622.6,205.3,622.4,205.3z"
				/>
		</g>
		<path style="fill:#FFFFFF;" d="M629.8,215.7c-1,10-12,7.2-12,0H629.8z"/>
		<g>
			<path style="fill:#2B2B2B;" d="M675.5,384.3c-0.6,0-1.1-0.4-1.2-1c-2.1-9.7-3-19.6,5.1-26.6c0.5-0.5,1.3-0.4,1.8,0.1
				s0.4,1.3-0.1,1.8c-5.8,5-7,11.8-4.3,24.2c0.1,0.7-0.3,1.4-1,1.5C675.7,384.3,675.6,384.3,675.5,384.3z"/>
		</g>
	</g>
	
		<linearGradient id="SVGID_21_" gradientUnits="userSpaceOnUse" x1="-6536.2334" y1="964.5395" x2="-6536.2334" y2="470.594" gradientTransform="matrix(-0.9999 0.013 -0.013 -0.9999 -5933.5117 1432.266)">
		<stop  offset="0" style="stop-color:#6B9C83"/>
		<stop  offset="0.401" style="stop-color:#A6A6A4"/>
		<stop  offset="0.5011" style="stop-color:#9F9FC8"/>
		<stop  offset="0.5908" style="stop-color:#9FCCEC"/>
		<stop  offset="1" style="stop-color:#FFE7B0"/>
	</linearGradient>
	<path style="fill:url(#SVGID_21_);" d="M567.6,381.4c-8.2,17-52.1,160.1-50.1,204.7c2,44.7,3.5,272.8,3.2,277.5l66.6,6.2
		c0,0,38.3-265.8,44.4-283.4L665,409.2L567.6,381.4z"/>
	<g>
		
			<linearGradient id="SVGID_22_" gradientUnits="userSpaceOnUse" x1="719.9" y1="1014.8204" x2="719.9" y2="525.3745" gradientTransform="matrix(1 0 0 -1 0 1392)">
			<stop  offset="0" style="stop-color:#6B9C83"/>
			<stop  offset="0.401" style="stop-color:#A6A6A4"/>
			<stop  offset="0.5011" style="stop-color:#9F9FC8"/>
			<stop  offset="0.5908" style="stop-color:#9FCCEC"/>
			<stop  offset="1" style="stop-color:#FFE7B0"/>
		</linearGradient>
		<path style="fill:url(#SVGID_22_);" d="M676.3,387.8l73.3,194l8.6,27.1l4.3,13.6l2.1,6.8c0.7,2.3,1.6,4.5,2.4,6.7l67.7,184.8
			l-61.9,25.5c-2.7-4.1-38.1-57.9-46.9-75c-17.7-34.3-34.3-69-50.2-104c-1-2.2-2-4.4-2.9-6.6l-2.6-6.7l-5.1-13.4
			c-1.7-4.5-3.5-8.9-5.1-13.4l-5-13.5l-2.5-6.7l-2.4-6.8l-4.8-13.5l-4.6-13.6l-2.3-6.8l-2.2-6.8c-6-18.2-11.7-36.5-16.9-54.9
			c-1.3-4.6-2.6-9.2-3.9-13.8c-1.2-4.6-2.5-9.3-3.7-13.9l-3.5-14l-1.6-7l-0.8-3.5l-0.7-3.5L676.3,387.8z"/>
		<g>
			<g>
				<path style="fill:#2B2B2B;" d="M735.4,885.6l98.3-39.3c5.1-2.1,7.7-7.8,5.8-13l-4.7-12.6l-61.9,25.5l-42.5,30.4
					C725.5,880.1,729.7,887.8,735.4,885.6z"/>
			</g>
		</g>
		<g>
			<path style="fill:#2B2B2B;" d="M763.6,655.7c-0.7,0-1.3-0.6-1.3-1.3l-1.1-32c0-0.7,0.5-1.3,1.3-1.4c0.7,0,1.3,0.5,1.4,1.3l1.1,32
				C765,655.1,764.4,655.7,763.6,655.7L763.6,655.7z"/>
		</g>
	</g>
	<g>
		<path style="fill:#2B2B2B;" d="M469.9,886h108.4c5.7,0,10.3-4.5,10.4-10.2l0.3-13.7l-68.5,0.7l-51.9,12.8
			C462.6,877.1,463.7,886,469.9,886z"/>
	</g>
	<circle style="fill:#2B2B2B;" cx="641.5" cy="190.6" r="3.9"/>
	<circle style="fill:#2B2B2B;" cx="607.6" cy="190.6" r="4.1"/>
	
		<linearGradient id="SVGID_23_" gradientUnits="userSpaceOnUse" x1="651.8885" y1="765.5713" x2="618.8903" y2="1265.0463" gradientTransform="matrix(1 0 0 -1 0 1392)">
		<stop  offset="0" style="stop-color:#FFE0C2"/>
		<stop  offset="0.401" style="stop-color:#7AAEFC"/>
		<stop  offset="0.5908" style="stop-color:#B8C1FC"/>
		<stop  offset="1" style="stop-color:#D2D4D4"/>
	</linearGradient>
	<path style="fill:url(#SVGID_23_);" d="M660.1,157.3c0,0-18.6,18.3-75.7,33.4c-3.5-14.1,2.5-35,16.8-41
		C618.7,142.3,646.5,151.8,660.1,157.3z"/>
	
		<linearGradient id="SVGID_24_" gradientUnits="userSpaceOnUse" x1="-559.5184" y1="1000.2535" x2="-592.5167" y2="1499.7285" gradientTransform="matrix(-0.9171 -0.3986 0.3986 -0.9171 -466.1331 1295.027)">
		<stop  offset="0" style="stop-color:#FFE0C2"/>
		<stop  offset="0.401" style="stop-color:#7AAEFC"/>
		<stop  offset="0.5908" style="stop-color:#B8C1FC"/>
		<stop  offset="1" style="stop-color:#D2D4D4"/>
	</linearGradient>
	<path style="fill:url(#SVGID_24_);" d="M644.9,151.7c0,0-0.3,34,20,77.1C694.5,212.4,671.4,152.4,644.9,151.7z"/>
	<g>
		<path style="fill:#2B2B2B;" d="M638.7,574.2c-0.6,0-1.1-0.4-1.3-1l-23.3-82.4c-0.2-0.7,0.2-1.4,0.9-1.6s1.4,0.2,1.6,0.9l23.3,82.4
			c0.2,0.7-0.2,1.4-0.9,1.6C638.9,574.2,638.8,574.2,638.7,574.2z"/>
	</g>
	<g>
		<path style="fill:#2B2B2B;" d="M567.6,382.6h-0.1c-0.7-0.1-1.2-0.7-1.1-1.4c1.4-12.8-0.8-22.8-7.2-32.1c-0.4-0.6-0.2-1.4,0.3-1.8
			c0.6-0.4,1.4-0.2,1.8,0.3c6.8,9.9,9.1,20.4,7.6,33.9C568.8,382.1,568.2,382.6,567.6,382.6z"/>
	</g>
	<g>
		<path style="fill:#2B2B2B;" d="M681.7,403.2H560.8c-0.4,0-0.8-0.2-1-0.5s-0.3-0.8-0.2-1.1l6.8-20.5c0.2-0.5,0.7-0.9,1.2-0.9h106.5
			c0.5,0,1,0.3,1.2,0.8l7.6,20.5c0.1,0.4,0.1,0.8-0.1,1.2C682.5,403,682.1,403.2,681.7,403.2z M562.5,400.6h117.3l-6.7-18H568.5
			L562.5,400.6z"/>
	</g>
	<g>
		<path style="fill:#2B2B2B;" d="M502.6,358.9c-0.5,0-0.9-0.2-1.1-0.7l-12-23.3c-0.3-0.6-0.1-1.4,0.5-1.7c0.6-0.3,1.4-0.1,1.7,0.5
			l12,23.3c0.3,0.6,0.1,1.4-0.5,1.7C503,358.8,502.8,358.9,502.6,358.9z"/>
	</g>
</g>
<g>
	<path style="fill:#E8E993;" d="M348,446l-5.1-4.2c4.1-5,3.6-16.8,3-20.9l6.6-0.9C352.6,421.7,354.7,437.8,348,446z"/>
</g>
<g>
	<path style="fill:#E8E993;" d="M115.7,289.3l-7.7-6.4c6.2-7.5,5.3-25.2,4.4-31.4l9.9-1.4C122.6,252.8,125.8,277,115.7,289.3z"/>
</g>
<g>
	<path style="fill:#E8E993;" d="M892.8,571.2l-7.7-6.4c6.2-7.5,5.3-25.2,4.4-31.4l9.9-1.4C899.7,534.7,902.9,558.9,892.8,571.2z"/>
</g>
<g>
	<path style="fill:#A4E9B8;" d="M245,389.9c-0.4-1.7-4-16.6,1.4-25l5.3,3.4c-3.3,5.2-1.6,16.2-0.6,20L245,389.9z"/>
</g>
<g>
	<path style="fill:#A4E9B8;" d="M355.5,595.2c-0.6-2.2-5.3-22,2-33.1l7,4.6c-4.5,6.9-2.1,21.4-0.8,26.5L355.5,595.2z"/>
</g>
<g>
	<path style="fill:#E8928A;" d="M851.7,242.6c-3.5-15.9,6.4-28.8,6.8-29.3l7.9,6.1c-0.1,0.1-7.4,9.8-5,21.1L851.7,242.6z"/>
</g>
<g>
	<path style="fill:#E8928A;" d="M780.5,351.2c-2.5-11.4,4.6-20.7,4.9-21.1l5.7,4.4c-0.1,0.1-5.3,7.1-3.5,15.1L780.5,351.2z"/>
</g>
<g>
	<path style="fill:#98C2FE;" d="M387.2,147.8l-8.8-4.7l4.4,2.3l-4.4-2.3c0.1-0.1,5.6-11,1.1-21.5l9.2-3.9
		C395.1,132.8,387.5,147.2,387.2,147.8z"/>
</g>
<g>
	<path style="fill:#98C2FE;" d="M334.2,322l-8.8-4.7c0.1-0.1,5.6-11,1.1-21.5l9.2-3.9C342.1,307,334.5,321.4,334.2,322z"/>
</g>
<polygon style="fill:#FDE545;" points="592.8,156.3 643.8,86.3 665.7,162.9 "/>
<g>
	<path style="fill:#F9D5FF;" d="M916.6,695.6l-9.2-4c17.5-40.4,44.3-64.6,67.9-86c21.5-19.4,40-36.2,46-60.4l9.7,2.4
		c-6.7,27.2-26.3,45-49,65.5C959.2,633.7,933.3,657.1,916.6,695.6z"/>
</g>
</svg>
