<?xml version="1.0" encoding="iso-8859-1"?>
<!-- Generator: Adobe Illustrator 23.0.2, SVG Export Plug-In . SVG Version: 6.00 Build 0)  -->
<svg version="1.1" id="Layer_1" xmlns="http://www.w3.org/2000/svg" xmlns:xlink="http://www.w3.org/1999/xlink" x="0px" y="0px"
	 viewBox="0 0 1105.6 1080" style="enable-background:new 0 0 1105.6 1080;" xml:space="preserve">
<g style="opacity:0.3;">
	<g>
		<path style="fill:#C4ECFE;" d="M1026.7,80.7V885H78.8V80.7H1026.7 M1029.8,77.6H75.7v810.5h954.1L1029.8,77.6L1029.8,77.6z"/>
	</g>
	<g>
		<g>
			<g>
				<rect x="306.5" y="77.6" style="fill:#C4ECFE;" width="2.9" height="810.5"/>
			</g>
			<g>
				<rect x="427.9" y="77.6" style="fill:#C4ECFE;" width="2.9" height="810.5"/>
			</g>
			<g>
				<rect x="306.5" y="77.6" style="fill:#C4ECFE;" width="2.9" height="810.5"/>
			</g>
			<g>
				<rect x="185.1" y="77.6" style="fill:#C4ECFE;" width="2.9" height="810.5"/>
			</g>
			<g>
				<rect x="549.3" y="77.6" style="fill:#C4ECFE;" width="2.9" height="810.5"/>
			</g>
			<g>
				<rect x="670.7" y="77.6" style="fill:#C4ECFE;" width="2.9" height="810.5"/>
			</g>
			<g>
				<rect x="790.6" y="77.6" style="fill:#C4ECFE;" width="2.9" height="810.5"/>
			</g>
			<g>
				<rect x="910.5" y="77.6" style="fill:#C4ECFE;" width="2.9" height="810.5"/>
			</g>
		</g>
	</g>
</g>
<g>
	<circle style="fill:#BFD9FF;" cx="139.9" cy="453" r="4.1"/>
	<circle style="fill:#BFD9FF;" cx="611.2" cy="748.7" r="4.1"/>
	<circle style="fill:#BFD9FF;" cx="896.4" cy="101.6" r="4.1"/>
	<circle style="fill:#BFD9FF;" cx="607.2" cy="228.3" r="4.1"/>
	<circle style="fill:#BFD9FF;" cx="144" cy="161.3" r="4.1"/>
	<circle style="fill:#BFD9FF;" cx="993.5" cy="352.8" r="3.8"/>
	<circle style="fill:#BFD9FF;" cx="273.9" cy="587.6" r="3.8"/>
</g>
<linearGradient id="SVGID_1_" gradientUnits="userSpaceOnUse" x1="-1856.2275" y1="310.6565" x2="-1856.2275" y2="565.4969" gradientTransform="matrix(-1 0 0 1 -1031.5776 312)">
	<stop  offset="0" style="stop-color:#FFD8A1"/>
	<stop  offset="0.9958" style="stop-color:#FFFFFF"/>
</linearGradient>
<path style="fill:url(#SVGID_1_);" d="M623.2,888.1c114.7,0,111.1-188.8,210.8-213.8c39.9-10,61.6-42,80-76.7
	c30.7-57.9,112.1-34.5,112.1,32.3v258.2H623.2z"/>
<linearGradient id="SVGID_2_" gradientUnits="userSpaceOnUse" x1="-1127.7202" y1="184.8995" x2="-1127.7202" y2="498.4384" gradientTransform="matrix(-1 0 0 1 -841.6702 312)">
	<stop  offset="0" style="stop-color:#C0DDFC"/>
	<stop  offset="0.9958" style="stop-color:#FFFFFF"/>
</linearGradient>
<path style="fill:url(#SVGID_2_);" d="M79.5,422.8c0-25,36-28.8,41.2-4.3c7.3,34.6,16.6,74.8,62.8,90.5
	c51.8,17.6,38.7,82.9,134.1,109.1s9.8,234,175,270H79.5V422.8z"/>
<g>
	<path style="fill:#FDC068;" d="M684.2,530.2l-11.7,18.5c-8.2,13-25.4,16.8-38.4,8.6c-11.8-7.5-16-22.3-10.6-34.7l10.8-24.5
		L684.2,530.2z"/>
	
		<linearGradient id="SVGID_3_" gradientUnits="userSpaceOnUse" x1="708.8682" y1="-102.2139" x2="708.8682" y2="96.6225" gradientTransform="matrix(1 0 0 1 0 312)">
		<stop  offset="0" style="stop-color:#6B9C83"/>
		<stop  offset="0.401" style="stop-color:#A6A6A4"/>
		<stop  offset="0.5011" style="stop-color:#9F9FC8"/>
		<stop  offset="0.5908" style="stop-color:#9FCCEC"/>
		<stop  offset="1" style="stop-color:#FFE7B0"/>
	</linearGradient>
	<path style="fill:url(#SVGID_3_);" d="M634.3,498.1l46.6-106l-3.7,10.3l30.1-144.6c4.3-20.8,24.7-34.2,45.5-29.8
		s34.2,24.7,29.8,45.5l-30,144.5l-0.5,2.3c-0.6,2.9-1.8,5.6-3.2,8l-64.6,101.9L634.3,498.1z"/>
	<g>
		<path style="fill:#2B2B2B;" d="M621.5,569.9c-3.1,0-6.2-1.5-8.2-4.2c-3.2-4.5-2.1-10.8,2.4-13.9l84.3-59.4
			c4.5-3.2,10.8-2.1,13.9,2.4c3.2,4.5,2.1,10.8-2.4,13.9l-84.3,59.4C625.5,569.3,623.5,569.9,621.5,569.9z"/>
	</g>
	<g>
		<path style="fill:#F9D5FF;" d="M229,846.7c-3.1,0-6.2-1.5-8.2-4.2c-3.2-4.5-2.1-10.8,2.4-13.9l392.5-276.8
			c4.5-3.2,10.8-2.1,13.9,2.4c3.2,4.5,2.1,10.8-2.4,13.9L234.8,844.9C233,846.1,231,846.7,229,846.7z"/>
	</g>
	<g>
		<path style="fill:#2B2B2B;" d="M508.6,810.7h-45.3c-3,0-5.8-1.3-7.7-3.6l-69.1-82.2c-3.6-4.2-3-10.5,1.2-14.1s10.5-3,14.1,1.2
			l66.1,78.6h30.6V639.8c0-5.5,4.5-10,10-10c5.5,0,10,4.5,10,10v160.9C518.6,806.2,514.1,810.7,508.6,810.7z"/>
	</g>
	
		<linearGradient id="SVGID_4_" gradientUnits="userSpaceOnUse" x1="781.5546" y1="-102.2139" x2="781.5546" y2="96.6225" gradientTransform="matrix(1 0 0 1 0 312)">
		<stop  offset="0" style="stop-color:#6B9C83"/>
		<stop  offset="0.401" style="stop-color:#A6A6A4"/>
		<stop  offset="0.5011" style="stop-color:#9F9FC8"/>
		<stop  offset="0.5908" style="stop-color:#9FCCEC"/>
		<stop  offset="1" style="stop-color:#FFE7B0"/>
	</linearGradient>
	<path style="fill:url(#SVGID_4_);" d="M709.6,355.3c-3.9-38.8,23-39.7,10.1-64.7s-4.7-62.7,25.1-65.7c23-2.3,24.4-3.4,34.1-4.4
		c30.6-3.1,54.8,26,49,56.2c0,0-1.7,6.9-0.6,15.6c1.1,8.7,23.9,19.5,26.6,46.2L709.6,355.3z"/>
	<path style="fill:#FFFFFF;" d="M798.1,223l-33.3,67.5H743l-7.4-63.4c0,0,7.1-3,17.4-4.2s31.8-2.5,31.8-2.5S790,219.1,798.1,223z"/>
	
		<linearGradient id="SVGID_5_" gradientUnits="userSpaceOnUse" x1="731.7" y1="537" x2="731.7" y2="36.6282" gradientTransform="matrix(1 0 0 1 0 312)">
		<stop  offset="0" style="stop-color:#EA979A"/>
		<stop  offset="0.4092" style="stop-color:#F2D38B"/>
		<stop  offset="0.4989" style="stop-color:#7E9DAE"/>
		<stop  offset="0.599" style="stop-color:#90979D"/>
		<stop  offset="1" style="stop-color:#7EBDDB"/>
	</linearGradient>
	<path style="fill:url(#SVGID_5_);" d="M820.7,379l-71.2,232.5l2.3-12.6l-17,266.3l-74.6-4.8c-3.5-22.5-5.7-44.9-7.9-67.4
		c-2.1-22.4-3.7-44.8-5.1-67.2c-0.6-11.2-1.3-22.4-1.7-33.5l-0.7-16.8l-0.6-16.8c-0.8-22.3-1.2-44.6-1.5-67v-2.5l2.3-10
		c4.6-19.8,9.4-39.5,14.5-59.1c5.2-19.6,10.5-39.2,16.3-58.6S709.6,355,709.6,355L820.7,379z"/>
	<path style="fill:#2B2B2B;" d="M763.5,434.4c-20.6,36,14.6,85.7-3.4,142.5l23.3-73.8L763.5,434.4z"/>
	
		<linearGradient id="SVGID_6_" gradientUnits="userSpaceOnUse" x1="875.7501" y1="537" x2="875.7501" y2="36.6282" gradientTransform="matrix(1 0 0 1 0 312)">
		<stop  offset="0" style="stop-color:#EA979A"/>
		<stop  offset="0.4092" style="stop-color:#F2D38B"/>
		<stop  offset="0.4989" style="stop-color:#7E9DAE"/>
		<stop  offset="0.599" style="stop-color:#90979D"/>
		<stop  offset="1" style="stop-color:#7EBDDB"/>
	</linearGradient>
	<path style="fill:url(#SVGID_6_);" d="M865,344.9l29.4,244.6l-4.5-16.6l101.3,224.7l-68.1,30.7c-12.9-16.7-24.7-33.9-36.5-51.1
		c-11.7-17.3-22.9-34.7-33.9-52.3c-5.4-8.8-10.9-17.6-16.2-26.5l-8-13.3l-7.8-13.4c-10.4-17.8-20.6-35.8-30.5-53.8
		c-1.4-2.6-2.4-5.3-2.9-8.1l-1.5-8.3c-3.5-18.8-6.7-37.6-9.6-56.4c-2.9-18.8-5.6-37.7-7.8-56.6c-2.3-18.9-4.2-37.8-5.6-56.8l-1-14.3
		c-0.2-4.8-0.6-9.5-0.7-14.3l-0.6-14.3l-0.1-7.2l-0.1-3.6v-3.6L865,344.9z"/>
	
		<linearGradient id="SVGID_7_" gradientUnits="userSpaceOnUse" x1="781.6741" y1="537" x2="781.6741" y2="36.6282" gradientTransform="matrix(1 0 0 1 0 312)">
		<stop  offset="0" style="stop-color:#EA979A"/>
		<stop  offset="0.4092" style="stop-color:#F2D38B"/>
		<stop  offset="0.4989" style="stop-color:#7E9DAE"/>
		<stop  offset="0.599" style="stop-color:#90979D"/>
		<stop  offset="1" style="stop-color:#7EBDDB"/>
	</linearGradient>
	<path style="fill:url(#SVGID_7_);" d="M853.8,338.5c2,20.5-16.3,53.3-51.9,57.1l-28.8,2.2c-32.5,3.5-61.5-22.8-63.7-44.9
		L853.8,338.5z"/>
	<g>
		<g>
			<g>
				<path id="SVGID_417_" style="fill:#FDC068;" d="M730.3,204.8l26.6-4.1c13.8-2.1,23.3-15,21.1-28.8l-6.2-40.2
					c-3.4-22.1-24-37.2-46.1-33.8l0,0c-22.1,3.4-37.2,24-33.8,46.1l5.7,36.9C700,196.4,714.7,207.2,730.3,204.8z"/>
			</g>
			<g>
				<g>
					<path style="fill:#2B2B2B;" d="M697.4,155.6c0,2-1.3,3.7-3,4.3L693,151C695.4,151.1,697.4,153.1,697.4,155.6z"/>
				</g>
			</g>
		</g>
		<path style="fill:#2B2B2B;" d="M745.8,246.5l-27-9.2c0,0,12.1-11,25.9-12.4L745.8,246.5z"/>
		<path style="fill:#FDC068;" d="M758.3,247.1l24.8-13.7c4.4-2.5,6.8-7.5,5.8-12.5l-13.6-67.1l-42.5,6.5l7.8,77.5
			C741.4,246.3,750.7,251.2,758.3,247.1z"/>
		<g>
			<path style="fill:#2B2B2B;" d="M705.8,167.9c-0.2,0-0.4,0-0.6-0.1l-4.2-1.7c-1.1-0.6-1.9-1.7-2.3-2.9c-0.3-1.2-0.1-2.5,0.5-3.6
				l4.6-7.6c0.4-0.7,1.4-0.9,2.1-0.5c0.7,0.4,0.9,1.4,0.5,2.1l-4.6,7.6c-0.2,0.4-0.3,0.8-0.2,1.3c0.1,0.4,0.4,0.8,0.8,1l3.9,1.6
				c0.8,0.3,1.1,1.2,0.8,1.9C707,167.5,706.4,167.9,705.8,167.9z"/>
		</g>
		<g>
			<path style="fill:#2B2B2B;" d="M711.5,182.1C711.4,182.1,711.4,182.1,711.5,182.1c-3.8,0-6.3-3.1-6.4-3.2
				c-0.5-0.6-0.4-1.6,0.2-2.1s1.6-0.4,2.1,0.2c0,0,1.7,2.1,4.1,2.1l0,0c1.7,0,3.5-1.1,5.2-3.2c0.5-0.6,1.5-0.7,2.1-0.2
				s0.7,1.5,0.2,2.1C716.6,180.7,714.1,182.1,711.5,182.1z"/>
		</g>
		<polygon style="fill:#2B2B2B;" points="737.1,203.7 754.5,201 738.9,221 		"/>
		<circle style="fill:#2B2B2B;" cx="718.8" cy="151.8" r="4.6"/>
	</g>
	<g>
		<path style="fill:#2B2B2B;" d="M603.8,886.9l119.4-0.5c6.2,0,11.3-5,11.5-11.3L735,860l-75.5,1.1l-57.2,14.3
			C595.7,877.1,596.9,886.9,603.8,886.9z"/>
	</g>
	<rect x="115.6" y="882.2" style="fill:#2B2B2B;" width="862.2" height="4.1"/>
	<g>
		<g>
			<path style="fill:#2B2B2B;" d="M883.5,874l104.2-58.4c5.4-3.1,7.5-9.9,4.5-15.4l-7.1-13.3l-65.5,37.6l-43,40.3
				C871.7,869.4,877.5,877.4,883.5,874z"/>
		</g>
	</g>
	<circle style="fill:#2B2B2B;" cx="229" cy="836.7" r="50.2"/>
	<circle style="fill:#FFFFFF;" cx="229" cy="836.7" r="26.2"/>
	<g>
		<rect x="159.7" y="558.5" style="fill:#FD8945;" width="190.9" height="55.5"/>
		<g>
			<rect x="178.5" y="558.5" style="fill:#D87345;" width="3" height="55.5"/>
		</g>
		<g>
			<rect x="205.5" y="558.5" style="fill:#D87345;" width="3" height="55.5"/>
		</g>
		<g>
			<rect x="232.5" y="558.5" style="fill:#D87345;" width="3" height="55.5"/>
		</g>
		<g>
			<rect x="259.5" y="558.5" style="fill:#D87345;" width="3" height="55.5"/>
		</g>
		<g>
			<rect x="286.5" y="558.5" style="fill:#D87345;" width="3" height="55.5"/>
		</g>
		<g>
			<rect x="313.5" y="558.5" style="fill:#D87345;" width="3" height="55.5"/>
		</g>
		<g>
			<rect x="340.5" y="558.5" style="fill:#D87345;" width="3" height="55.5"/>
		</g>
		<polygon style="fill:#2B2B2B;" points="159.7,558.5 159.7,584.7 252.2,558.5 		"/>
	</g>
	<g>
		<rect x="135.1" y="448.2" style="fill:#FDB645;" width="190.9" height="55.5"/>
		<rect x="135.1" y="448.3" style="fill:#FD8945;" width="74.3" height="55.5"/>
		<rect x="135.1" y="448.3" style="fill:#D87345;" width="20.3" height="55.5"/>
		<rect x="236.9" y="448.2" style="fill:#FD8945;" width="74.3" height="55.5"/>
		<rect x="290.9" y="448.2" style="fill:#D87345;" width="20.3" height="55.5"/>
		<g>
			<rect x="153.8" y="448.3" style="fill:#D87345;" width="3" height="55.4"/>
		</g>
		<g>
			<rect x="180.8" y="448.3" style="fill:#D87345;" width="3" height="55.4"/>
		</g>
		<g>
			<rect x="207.8" y="448.3" style="fill:#D87345;" width="3" height="55.4"/>
		</g>
		<g>
			<rect x="234.8" y="448.3" style="fill:#D87345;" width="3" height="55.4"/>
		</g>
		<g>
			<rect x="261.8" y="448.3" style="fill:#D87345;" width="3" height="55.4"/>
		</g>
		<g>
			<rect x="288.8" y="448.3" style="fill:#D87345;" width="3" height="55.4"/>
		</g>
		<g>
			<rect x="315.8" y="448.3" style="fill:#D87345;" width="3" height="55.4"/>
		</g>
	</g>
	<polygon style="fill:#2B2B2B;" points="237,503.7 237,467.2 301.6,472.5 301.6,503.1 	"/>
	<g>
		<rect x="129.2" y="503.1" style="fill:#FDB645;" width="190.9" height="55.5"/>
		<rect x="129.2" y="503.1" style="fill:#FD8945;" width="74.3" height="55.5"/>
		<rect x="129.2" y="503.1" style="fill:#D87345;" width="20.3" height="55.5"/>
		<rect x="231.2" y="503" style="fill:#FD8945;" width="74.3" height="55.5"/>
		<rect x="285.2" y="503" style="fill:#D87345;" width="20.3" height="55.5"/>
		<g>
			<rect x="148" y="503.1" style="fill:#D87345;" width="3" height="55.4"/>
		</g>
		<g>
			<rect x="175" y="503.1" style="fill:#D87345;" width="3" height="55.4"/>
		</g>
		<g>
			<rect x="202" y="503.1" style="fill:#D87345;" width="3" height="55.4"/>
		</g>
		<g>
			<rect x="229" y="503.1" style="fill:#D87345;" width="3" height="55.4"/>
		</g>
		<g>
			<rect x="256" y="503.1" style="fill:#D87345;" width="3" height="55.4"/>
		</g>
		<g>
			<rect x="283" y="503.1" style="fill:#D87345;" width="3" height="55.4"/>
		</g>
		<g>
			<rect x="310" y="503.1" style="fill:#D87345;" width="3" height="55.4"/>
		</g>
	</g>
	<path style="fill:#2B2B2B;" d="M332.8,503.1v55.5h-39.1c-9.7-15-15.3-32.8-15.3-52c0-1.2,0-2.3,0.1-3.5L332.8,503.1L332.8,503.1z"
		/>
	<path style="fill:#2B2B2B;" d="M350.6,558.5V614h-20.3c-26.5-9.1-47.7-29.5-58-55.5H350.6z"/>
	<g>
		<rect x="263.3" y="406.5" style="fill:#FD8945;" width="190.9" height="55.5"/>
		<polygon style="fill:#2B2B2B;" points="454.2,406.6 454.2,432.8 350.6,420.8 361.8,406.6 		"/>
		<g>
			<rect x="432.5" y="406.6" style="fill:#2B2B2B;" width="3" height="55.5"/>
		</g>
		<g>
			<rect x="405.5" y="406.6" style="fill:#2B2B2B;" width="3" height="55.5"/>
		</g>
		<g>
			<rect x="378.5" y="406.6" style="fill:#2B2B2B;" width="3" height="55.5"/>
		</g>
		<g>
			<rect x="351.5" y="406.6" style="fill:#2B2B2B;" width="3" height="55.5"/>
		</g>
		<g>
			<rect x="324.5" y="406.6" style="fill:#2B2B2B;" width="3" height="55.5"/>
		</g>
		<g>
			<rect x="297.5" y="406.6" style="fill:#2B2B2B;" width="3" height="55.5"/>
		</g>
		<g>
			<rect x="270.5" y="406.6" style="fill:#2B2B2B;" width="3" height="55.5"/>
		</g>
	</g>
	<g>
		<rect x="291" y="295.7" style="fill:#FDB645;" width="190.9" height="55.5"/>
		<rect x="291" y="295.7" style="fill:#D87345;" width="20.3" height="55.5"/>
		<rect x="394.2" y="295.7" style="fill:#FD8945;" width="73" height="55.5"/>
		<rect x="447.5" y="295.7" style="fill:#D87345;" width="34.4" height="55.5"/>
		<g>
			<rect x="309.8" y="295.7" style="fill:#D87345;" width="3" height="55.5"/>
		</g>
		<g>
			<rect x="336.8" y="295.7" style="fill:#D87345;" width="3" height="55.5"/>
		</g>
		<g>
			<rect x="363.8" y="295.7" style="fill:#D87345;" width="3" height="55.5"/>
		</g>
		<g>
			<rect x="390.8" y="295.7" style="fill:#D87345;" width="3" height="55.5"/>
		</g>
		<g>
			<rect x="417.8" y="295.7" style="fill:#D87345;" width="3" height="55.5"/>
		</g>
		<g>
			<rect x="444.8" y="295.7" style="fill:#D87345;" width="3" height="55.5"/>
		</g>
		<g>
			<rect x="471.8" y="295.7" style="fill:#D87345;" width="3" height="55.5"/>
		</g>
	</g>
	<g>
		<g>
			<rect x="287.3" y="351.2" style="fill:#FDB645;" width="190.9" height="55.5"/>
			<rect x="287.3" y="351.2" style="fill:#FD8945;" width="74.3" height="55.5"/>
			<rect x="287.3" y="351.2" style="fill:#D87345;" width="20.3" height="55.5"/>
			<rect x="389.2" y="351.1" style="fill:#FD8945;" width="74.3" height="55.5"/>
			<rect x="443.3" y="351.1" style="fill:#D87345;" width="35" height="55.5"/>
			<g>
				<rect x="306.1" y="351.2" style="fill:#D87345;" width="3" height="55.4"/>
			</g>
			<g>
				<rect x="333.1" y="351.2" style="fill:#2B2B2B;" width="3" height="55.4"/>
			</g>
			<g>
				<rect x="360.1" y="351.2" style="fill:#D87345;" width="3" height="55.4"/>
			</g>
			<g>
				<rect x="387.1" y="351.2" style="fill:#D87345;" width="3" height="55.4"/>
			</g>
			<g>
				<rect x="414.1" y="351.2" style="fill:#D87345;" width="3" height="55.4"/>
			</g>
			<g>
				<rect x="441.1" y="351.2" style="fill:#D87345;" width="3" height="55.4"/>
			</g>
			<g>
				<rect x="468.1" y="351.2" style="fill:#D87345;" width="3" height="55.4"/>
			</g>
			<g>
				<rect x="334.6" y="351.3" style="fill:#2B2B2B;" width="143.6" height="3"/>
			</g>
		</g>
	</g>
	<g>
		<g>
			<g>
				<path style="fill:#FD8945;" d="M270.3,302.1v192h-24.7c-8.1,0-16-1-23.5-2.9c-3.3-0.8-6.5-1.8-9.7-3
					c-8.5-3.1-16.3-7.4-23.5-12.6c-1.3-1-2.6-2-3.9-3c-4.6-3.8-8.9-7.9-12.8-12.5l-0.1-0.1c-0.8-1-1.6-1.9-2.3-2.9
					c-4.8-6.2-8.9-12.9-12.1-20.2c-0.5-1-0.9-2-1.3-3c-2.6-6.4-4.5-13.1-5.6-20.1c-0.2-1-0.3-2-0.5-3c-0.6-4.1-0.8-8.4-0.8-12.7
					c0-2.5,0.1-5,0.3-7.5c0.1-1,0.2-2,0.3-3c0.8-6.9,2.2-13.7,4.4-20.1c0.2-0.5,0.3-1,0.5-1.5s0.4-1,0.5-1.5
					c2-5.4,4.5-10.6,7.4-15.5c0.4-0.6,0.8-1.3,1.2-1.9c0.2-0.4,0.5-0.7,0.7-1.1c3.6-5.6,7.7-10.7,12.4-15.4c0.1-0.1,0.2-0.2,0.4-0.4
					c0.9-0.9,1.8-1.8,2.7-2.6c6.7-6.2,14.2-11.4,22.4-15.5c2.2-1.1,4.4-2.1,6.7-3c11.1-4.5,23.3-7,36-7L270.3,302.1L270.3,302.1z"/>
			</g>
			<g>
				<g>
					<path style="fill:none;" d="M270.3,302.1v192h-24.7c-8.1,0-16-1-23.5-2.9c-3.3-0.8-6.5-1.8-9.7-3c-8.5-3.1-16.3-7.4-23.5-12.6
						c-1.3-1-2.6-2-3.9-3c-4.6-3.8-8.9-7.9-12.8-12.5l-0.1-0.1c-0.8-1-1.6-1.9-2.3-2.9c-4.8-6.2-8.9-12.9-12.1-20.2
						c-0.5-1-0.9-2-1.3-3c-2.6-6.4-4.5-13.1-5.6-20.1c-0.2-1-0.3-2-0.5-3c-0.6-4.1-0.8-8.4-0.8-12.7c0-2.5,0.1-5,0.3-7.5
						c0.1-1,0.2-2,0.3-3c0.8-6.9,2.2-13.7,4.4-20.1c0.2-0.5,0.3-1,0.5-1.5s0.4-1,0.5-1.5c2-5.4,4.5-10.6,7.4-15.5
						c0.4-0.6,0.8-1.3,1.2-1.9c0.2-0.4,0.5-0.7,0.7-1.1c3.6-5.6,7.7-10.7,12.4-15.4c0.1-0.1,0.2-0.2,0.4-0.4
						c0.9-0.9,1.8-1.8,2.7-2.6c6.7-6.2,14.2-11.4,22.4-15.5c2.2-1.1,4.4-2.1,6.7-3c11.1-4.5,23.3-7,36-7L270.3,302.1L270.3,302.1z"
						/>
					<path style="fill:#FFF6BB;" d="M219,347.1V366h-63.9c0.2-0.5,0.4-1,0.5-1.5c2-5.4,4.5-10.6,7.4-15.5c0.4-0.6,0.8-1.3,1.2-1.9
						H219z"/>
				</g>
			</g>
			<g>
				<g>
					<path style="fill:none;" d="M270.3,302.1v192h-24.7c-8.1,0-16-1-23.5-2.9c-3.3-0.8-6.5-1.8-9.7-3c-8.5-3.1-16.3-7.4-23.5-12.6
						c-1.3-1-2.6-2-3.9-3c-4.6-3.8-8.9-7.9-12.8-12.5l-0.1-0.1c-0.8-1-1.6-1.9-2.3-2.9c-4.8-6.2-8.9-12.9-12.1-20.2
						c-0.5-1-0.9-2-1.3-3c-2.6-6.4-4.5-13.1-5.6-20.1c-0.2-1-0.3-2-0.5-3c-0.6-4.1-0.8-8.4-0.8-12.7c0-2.5,0.1-5,0.3-7.5
						c0.1-1,0.2-2,0.3-3c0.8-6.9,2.2-13.7,4.4-20.1c0.2-0.5,0.3-1,0.5-1.5s0.4-1,0.5-1.5c2-5.4,4.5-10.6,7.4-15.5
						c0.4-0.6,0.8-1.3,1.2-1.9c0.2-0.4,0.5-0.7,0.7-1.1c3.6-5.6,7.7-10.7,12.4-15.4c0.1-0.1,0.2-0.2,0.4-0.4
						c0.9-0.9,1.8-1.8,2.7-2.6c6.7-6.2,14.2-11.4,22.4-15.5c2.2-1.1,4.4-2.1,6.7-3c11.1-4.5,23.3-7,36-7L270.3,302.1L270.3,302.1z"
						/>
					<path style="fill:#EA7A45;" d="M275.5,460v34c-1.7,0.1-3.5,0.1-5.2,0.1h-24.7c-8.1,0-16-1-23.5-2.9c-3.3-0.8-6.5-1.8-9.7-3
						c-8.5-3.1-16.3-7.4-23.5-12.6c-1.3-1-2.6-2-3.9-3c-4.6-3.8-8.9-7.9-12.8-12.5l-0.1-0.1H275.5z"/>
				</g>
			</g>
			<g>
				<g>
					<path style="fill:none;" d="M270.3,302.1v192h-24.7c-8.1,0-16-1-23.5-2.9c-3.3-0.8-6.5-1.8-9.7-3c-8.5-3.1-16.3-7.4-23.5-12.6
						c-1.3-1-2.6-2-3.9-3c-4.6-3.8-8.9-7.9-12.8-12.5l-0.1-0.1c-0.8-1-1.6-1.9-2.3-2.9c-4.8-6.2-8.9-12.9-12.1-20.2
						c-0.5-1-0.9-2-1.3-3c-2.6-6.4-4.5-13.1-5.6-20.1c-0.2-1-0.3-2-0.5-3c-0.6-4.1-0.8-8.4-0.8-12.7c0-2.5,0.1-5,0.3-7.5
						c0.1-1,0.2-2,0.3-3c0.8-6.9,2.2-13.7,4.4-20.1c0.2-0.5,0.3-1,0.5-1.5s0.4-1,0.5-1.5c2-5.4,4.5-10.6,7.4-15.5
						c0.4-0.6,0.8-1.3,1.2-1.9c0.2-0.4,0.5-0.7,0.7-1.1c3.6-5.6,7.7-10.7,12.4-15.4c0.1-0.1,0.2-0.2,0.4-0.4
						c0.9-0.9,1.8-1.8,2.7-2.6c6.7-6.2,14.2-11.4,22.4-15.5c2.2-1.1,4.4-2.1,6.7-3c11.1-4.5,23.3-7,36-7L270.3,302.1L270.3,302.1z"
						/>
					<g>
						<path style="fill:#EA7A45;" d="M247.1,310.6c0,0.8-0.7,1.5-1.5,1.5h-42.7c2.2-1.1,4.4-2.1,6.7-3h36
							C246.4,309.1,247.1,309.8,247.1,310.6z"/>
					</g>
				</g>
			</g>
			<g>
				<g>
					<path style="fill:none;" d="M270.3,302.1v192h-24.7c-8.1,0-16-1-23.5-2.9c-3.3-0.8-6.5-1.8-9.7-3c-8.5-3.1-16.3-7.4-23.5-12.6
						c-1.3-1-2.6-2-3.9-3c-4.6-3.8-8.9-7.9-12.8-12.5l-0.1-0.1c-0.8-1-1.6-1.9-2.3-2.9c-4.8-6.2-8.9-12.9-12.1-20.2
						c-0.5-1-0.9-2-1.3-3c-2.6-6.4-4.5-13.1-5.6-20.1c-0.2-1-0.3-2-0.5-3c-0.6-4.1-0.8-8.4-0.8-12.7c0-2.5,0.1-5,0.3-7.5
						c0.1-1,0.2-2,0.3-3c0.8-6.9,2.2-13.7,4.4-20.1c0.2-0.5,0.3-1,0.5-1.5s0.4-1,0.5-1.5c2-5.4,4.5-10.6,7.4-15.5
						c0.4-0.6,0.8-1.3,1.2-1.9c0.2-0.4,0.5-0.7,0.7-1.1c3.6-5.6,7.7-10.7,12.4-15.4c0.1-0.1,0.2-0.2,0.4-0.4
						c0.9-0.9,1.8-1.8,2.7-2.6c6.7-6.2,14.2-11.4,22.4-15.5c2.2-1.1,4.4-2.1,6.7-3c11.1-4.5,23.3-7,36-7L270.3,302.1L270.3,302.1z"
						/>
					<g>
						<path style="fill:#EA7A45;" d="M224.6,329.1c0,0.8-0.7,1.5-1.5,1.5h-45.8c0.1-0.1,0.2-0.2,0.4-0.4c0.9-0.9,1.8-1.8,2.7-2.6
							H223C223.9,327.6,224.6,328.3,224.6,329.1z"/>
					</g>
				</g>
			</g>
			<g>
				<g>
					<path style="fill:none;" d="M270.3,302.1v192h-24.7c-8.1,0-16-1-23.5-2.9c-3.3-0.8-6.5-1.8-9.7-3c-8.5-3.1-16.3-7.4-23.5-12.6
						c-1.3-1-2.6-2-3.9-3c-4.6-3.8-8.9-7.9-12.8-12.5l-0.1-0.1c-0.8-1-1.6-1.9-2.3-2.9c-4.8-6.2-8.9-12.9-12.1-20.2
						c-0.5-1-0.9-2-1.3-3c-2.6-6.4-4.5-13.1-5.6-20.1c-0.2-1-0.3-2-0.5-3c-0.6-4.1-0.8-8.4-0.8-12.7c0-2.5,0.1-5,0.3-7.5
						c0.1-1,0.2-2,0.3-3c0.8-6.9,2.2-13.7,4.4-20.1c0.2-0.5,0.3-1,0.5-1.5s0.4-1,0.5-1.5c2-5.4,4.5-10.6,7.4-15.5
						c0.4-0.6,0.8-1.3,1.2-1.9c0.2-0.4,0.5-0.7,0.7-1.1c3.6-5.6,7.7-10.7,12.4-15.4c0.1-0.1,0.2-0.2,0.4-0.4
						c0.9-0.9,1.8-1.8,2.7-2.6c6.7-6.2,14.2-11.4,22.4-15.5c2.2-1.1,4.4-2.1,6.7-3c11.1-4.5,23.3-7,36-7L270.3,302.1L270.3,302.1z"
						/>
					<g>
						<path style="fill:#EA7A45;" d="M202.1,347.5c0,0.8-0.7,1.5-1.5,1.5h-37.5c0.4-0.6,0.8-1.3,1.2-1.9c0.2-0.4,0.5-0.7,0.7-1.1
							h35.6c0.7,0,1.3,0.5,1.4,1.1C202.1,347.2,202.1,347.4,202.1,347.5z"/>
					</g>
				</g>
			</g>
			<g>
				<g>
					<path style="fill:none;" d="M270.3,302.1v192h-24.7c-8.1,0-16-1-23.5-2.9c-3.3-0.8-6.5-1.8-9.7-3c-8.5-3.1-16.3-7.4-23.5-12.6
						c-1.3-1-2.6-2-3.9-3c-4.6-3.8-8.9-7.9-12.8-12.5l-0.1-0.1c-0.8-1-1.6-1.9-2.3-2.9c-4.8-6.2-8.9-12.9-12.1-20.2
						c-0.5-1-0.9-2-1.3-3c-2.6-6.4-4.5-13.1-5.6-20.1c-0.2-1-0.3-2-0.5-3c-0.6-4.1-0.8-8.4-0.8-12.7c0-2.5,0.1-5,0.3-7.5
						c0.1-1,0.2-2,0.3-3c0.8-6.9,2.2-13.7,4.4-20.1c0.2-0.5,0.3-1,0.5-1.5s0.4-1,0.5-1.5c2-5.4,4.5-10.6,7.4-15.5
						c0.4-0.6,0.8-1.3,1.2-1.9c0.2-0.4,0.5-0.7,0.7-1.1c3.6-5.6,7.7-10.7,12.4-15.4c0.1-0.1,0.2-0.2,0.4-0.4
						c0.9-0.9,1.8-1.8,2.7-2.6c6.7-6.2,14.2-11.4,22.4-15.5c2.2-1.1,4.4-2.1,6.7-3c11.1-4.5,23.3-7,36-7L270.3,302.1L270.3,302.1z"
						/>
					<g>
						<path style="fill:#EA7A45;" d="M197.7,366c0,0.8-0.7,1.5-1.5,1.5h-41.6c0.2-0.5,0.3-1,0.5-1.5s0.4-1,0.5-1.5h40.5
							C197,364.5,197.7,365.2,197.7,366z"/>
					</g>
				</g>
			</g>
			<g>
				<g>
					<path style="fill:none;" d="M270.3,302.1v192h-24.7c-8.1,0-16-1-23.5-2.9c-3.3-0.8-6.5-1.8-9.7-3c-8.5-3.1-16.3-7.4-23.5-12.6
						c-1.3-1-2.6-2-3.9-3c-4.6-3.8-8.9-7.9-12.8-12.5l-0.1-0.1c-0.8-1-1.6-1.9-2.3-2.9c-4.8-6.2-8.9-12.9-12.1-20.2
						c-0.5-1-0.9-2-1.3-3c-2.6-6.4-4.5-13.1-5.6-20.1c-0.2-1-0.3-2-0.5-3c-0.6-4.1-0.8-8.4-0.8-12.7c0-2.5,0.1-5,0.3-7.5
						c0.1-1,0.2-2,0.3-3c0.8-6.9,2.2-13.7,4.4-20.1c0.2-0.5,0.3-1,0.5-1.5s0.4-1,0.5-1.5c2-5.4,4.5-10.6,7.4-15.5
						c0.4-0.6,0.8-1.3,1.2-1.9c0.2-0.4,0.5-0.7,0.7-1.1c3.6-5.6,7.7-10.7,12.4-15.4c0.1-0.1,0.2-0.2,0.4-0.4
						c0.9-0.9,1.8-1.8,2.7-2.6c6.7-6.2,14.2-11.4,22.4-15.5c2.2-1.1,4.4-2.1,6.7-3c11.1-4.5,23.3-7,36-7L270.3,302.1L270.3,302.1z"
						/>
					<g>
						<path style="fill:#EA7A45;" d="M197.7,389.1c0,0.8-0.7,1.5-1.5,1.5h-46.3c0.1-1,0.2-2,0.3-3h46
							C197,387.6,197.7,388.3,197.7,389.1z"/>
					</g>
				</g>
			</g>
			<g>
				<g>
					<path style="fill:none;" d="M270.3,302.1v192h-24.7c-8.1,0-16-1-23.5-2.9c-3.3-0.8-6.5-1.8-9.7-3c-8.5-3.1-16.3-7.4-23.5-12.6
						c-1.3-1-2.6-2-3.9-3c-4.6-3.8-8.9-7.9-12.8-12.5l-0.1-0.1c-0.8-1-1.6-1.9-2.3-2.9c-4.8-6.2-8.9-12.9-12.1-20.2
						c-0.5-1-0.9-2-1.3-3c-2.6-6.4-4.5-13.1-5.6-20.1c-0.2-1-0.3-2-0.5-3c-0.6-4.1-0.8-8.4-0.8-12.7c0-2.5,0.1-5,0.3-7.5
						c0.1-1,0.2-2,0.3-3c0.8-6.9,2.2-13.7,4.4-20.1c0.2-0.5,0.3-1,0.5-1.5s0.4-1,0.5-1.5c2-5.4,4.5-10.6,7.4-15.5
						c0.4-0.6,0.8-1.3,1.2-1.9c0.2-0.4,0.5-0.7,0.7-1.1c3.6-5.6,7.7-10.7,12.4-15.4c0.1-0.1,0.2-0.2,0.4-0.4
						c0.9-0.9,1.8-1.8,2.7-2.6c6.7-6.2,14.2-11.4,22.4-15.5c2.2-1.1,4.4-2.1,6.7-3c11.1-4.5,23.3-7,36-7L270.3,302.1L270.3,302.1z"
						/>
					<g>
						<path style="fill:#EA7A45;" d="M197.7,412.3c0,0.8-0.7,1.5-1.5,1.5h-45.3c-0.2-1-0.3-2-0.5-3h45.8
							C197,410.8,197.7,411.5,197.7,412.3z"/>
					</g>
				</g>
			</g>
			<g>
				<g>
					<path style="fill:none;" d="M270.3,302.1v192h-24.7c-8.1,0-16-1-23.5-2.9c-3.3-0.8-6.5-1.8-9.7-3c-8.5-3.1-16.3-7.4-23.5-12.6
						c-1.3-1-2.6-2-3.9-3c-4.6-3.8-8.9-7.9-12.8-12.5l-0.1-0.1c-0.8-1-1.6-1.9-2.3-2.9c-4.8-6.2-8.9-12.9-12.1-20.2
						c-0.5-1-0.9-2-1.3-3c-2.6-6.4-4.5-13.1-5.6-20.1c-0.2-1-0.3-2-0.5-3c-0.6-4.1-0.8-8.4-0.8-12.7c0-2.5,0.1-5,0.3-7.5
						c0.1-1,0.2-2,0.3-3c0.8-6.9,2.2-13.7,4.4-20.1c0.2-0.5,0.3-1,0.5-1.5s0.4-1,0.5-1.5c2-5.4,4.5-10.6,7.4-15.5
						c0.4-0.6,0.8-1.3,1.2-1.9c0.2-0.4,0.5-0.7,0.7-1.1c3.6-5.6,7.7-10.7,12.4-15.4c0.1-0.1,0.2-0.2,0.4-0.4
						c0.9-0.9,1.8-1.8,2.7-2.6c6.7-6.2,14.2-11.4,22.4-15.5c2.2-1.1,4.4-2.1,6.7-3c11.1-4.5,23.3-7,36-7L270.3,302.1L270.3,302.1z"
						/>
					<g>
						<path style="fill:#EA7A45;" d="M197.7,435.4c0,0.8-0.7,1.5-1.5,1.5h-38.4c-0.5-1-0.9-2-1.3-3h39.7
							C197,433.9,197.7,434.6,197.7,435.4z"/>
					</g>
				</g>
			</g>
			<g>
				<g>
					<path style="fill:none;" d="M270.3,302.1v192h-24.7c-8.1,0-16-1-23.5-2.9c-3.3-0.8-6.5-1.8-9.7-3c-8.5-3.1-16.3-7.4-23.5-12.6
						c-1.3-1-2.6-2-3.9-3c-4.6-3.8-8.9-7.9-12.8-12.5l-0.1-0.1c-0.8-1-1.6-1.9-2.3-2.9c-4.8-6.2-8.9-12.9-12.1-20.2
						c-0.5-1-0.9-2-1.3-3c-2.6-6.4-4.5-13.1-5.6-20.1c-0.2-1-0.3-2-0.5-3c-0.6-4.1-0.8-8.4-0.8-12.7c0-2.5,0.1-5,0.3-7.5
						c0.1-1,0.2-2,0.3-3c0.8-6.9,2.2-13.7,4.4-20.1c0.2-0.5,0.3-1,0.5-1.5s0.4-1,0.5-1.5c2-5.4,4.5-10.6,7.4-15.5
						c0.4-0.6,0.8-1.3,1.2-1.9c0.2-0.4,0.5-0.7,0.7-1.1c3.6-5.6,7.7-10.7,12.4-15.4c0.1-0.1,0.2-0.2,0.4-0.4
						c0.9-0.9,1.8-1.8,2.7-2.6c6.7-6.2,14.2-11.4,22.4-15.5c2.2-1.1,4.4-2.1,6.7-3c11.1-4.5,23.3-7,36-7L270.3,302.1L270.3,302.1z"
						/>
					<g>
						<path style="fill:#EA7A45;" d="M203.6,458.6c0,0.6-0.4,1.2-1,1.4c-0.2,0.1-0.3,0.1-0.5,0.1h-29.8l-0.1-0.1
							c-0.8-1-1.6-1.9-2.3-2.9h32.2C202.9,457.1,203.6,457.8,203.6,458.6z"/>
					</g>
				</g>
			</g>
			<g>
				<g>
					<path style="fill:none;" d="M270.3,302.1v192h-24.7c-8.1,0-16-1-23.5-2.9c-3.3-0.8-6.5-1.8-9.7-3c-8.5-3.1-16.3-7.4-23.5-12.6
						c-1.3-1-2.6-2-3.9-3c-4.6-3.8-8.9-7.9-12.8-12.5l-0.1-0.1c-0.8-1-1.6-1.9-2.3-2.9c-4.8-6.2-8.9-12.9-12.1-20.2
						c-0.5-1-0.9-2-1.3-3c-2.6-6.4-4.5-13.1-5.6-20.1c-0.2-1-0.3-2-0.5-3c-0.6-4.1-0.8-8.4-0.8-12.7c0-2.5,0.1-5,0.3-7.5
						c0.1-1,0.2-2,0.3-3c0.8-6.9,2.2-13.7,4.4-20.1c0.2-0.5,0.3-1,0.5-1.5s0.4-1,0.5-1.5c2-5.4,4.5-10.6,7.4-15.5
						c0.4-0.6,0.8-1.3,1.2-1.9c0.2-0.4,0.5-0.7,0.7-1.1c3.6-5.6,7.7-10.7,12.4-15.4c0.1-0.1,0.2-0.2,0.4-0.4
						c0.9-0.9,1.8-1.8,2.7-2.6c6.7-6.2,14.2-11.4,22.4-15.5c2.2-1.1,4.4-2.1,6.7-3c11.1-4.5,23.3-7,36-7L270.3,302.1L270.3,302.1z"
						/>
					<g>
						<path style="fill:#EA7A45;" d="M223.1,474.1c0,0.8-0.7,1.5-1.5,1.5H189c-1.3-1-2.6-2-3.9-3h36.5
							C222.4,472.6,223.1,473.3,223.1,474.1z"/>
					</g>
				</g>
			</g>
			<g>
				<g>
					<g>
						<path style="fill:#EA7A45;" d="M252.1,489.7c0,0.8-0.7,1.5-1.5,1.5h-28.5c-3.3-0.8-6.5-1.8-9.7-3h38.2
							C251.4,488.2,252.1,488.9,252.1,489.7z"/>
					</g>
				</g>
			</g>
		</g>
		<path style="fill:#FDE545;" d="M366.3,398.1c0,3.8-0.2,7.5-0.7,11.2c-4.7,40.8-35.1,73.8-74.5,82.5c-5.1,1.1-10.3,1.9-15.6,2.2
			c-1.7,0.1-3.5,0.1-5.2,0.1c-8.1,0-16-1-23.5-2.9c-3.3-0.8-6.5-1.8-9.7-3c-8.5-3.1-16.3-7.4-23.5-12.6c-1.3-1-2.6-2-3.9-3
			c-4.6-3.8-8.9-7.9-12.8-12.5l-0.1-0.1c-0.8-1-1.6-1.9-2.3-2.9c-4.8-6.2-8.9-12.9-12.1-20.2c-0.4-1-0.9-2-1.3-3
			c-2.6-6.4-4.5-13.1-5.6-20.1c-0.2-1-0.3-2-0.5-3c-0.6-4.1-0.8-8.4-0.8-12.7c0-2.5,0.1-5,0.3-7.5c0.1-1,0.2-2,0.3-3
			c0.8-6.9,2.2-13.7,4.4-20.1c0.2-0.5,0.3-1,0.5-1.5s0.3-1,0.5-1.5c2-5.4,4.5-10.6,7.4-15.5c0.4-0.6,0.8-1.3,1.2-1.9
			c0.2-0.4,0.5-0.7,0.7-1.1c3.6-5.6,7.7-10.7,12.4-15.4c1-1,2-2,3.1-3c6.7-6.2,14.2-11.4,22.5-15.5c2.2-1.1,4.4-2.1,6.7-3
			c11.1-4.5,23.3-7,36-7C323.3,302.1,366.3,345.1,366.3,398.1z"/>
		<circle style="fill:#FDB645;" cx="270.3" cy="398.1" r="69.1"/>
		<path style="fill:#2B2B2B;" d="M365.6,409.3c-4.7,40.8-35.1,73.8-74.5,82.5C295.9,451.1,326.2,418.1,365.6,409.3z"/>
		<g>
			<g>
				<path style="fill:#EA7A45;" d="M256.8,365.1c-0.7,0.4-1.6,0.7-2.5,0.7h5C258.4,365.8,257.5,365.6,256.8,365.1z M285.3,355.9
					c-0.6,0-1.1-0.1-1.7-0.1H244v46h39.6c5.4,0,10.4-1.9,14.3-5c5.3-4.2,8.7-10.7,8.7-18C306.6,366.7,297.2,356.7,285.3,355.9z
					 M254,391.8v-26h29.6c7.3,0,13,5.7,13,13c0,7.2-5.8,13-13,13H254z"/>
			</g>
			<g>
				<path style="fill:#EA7A45;" d="M254.3,427.8c0.9,0,1.8,0.2,2.5,0.7c0.7-0.4,1.6-0.7,2.5-0.7H254.3z M297.9,396.8
					c-3.9-3.1-8.9-5-14.3-5H244v46h39.6c0.6,0,1.1,0,1.7-0.1c11.9-0.9,21.3-10.8,21.3-22.9C306.6,407.5,303.2,401,297.9,396.8z
					 M283.6,427.8H254v-26h29.6c7.3,0,13,5.7,13,13C296.6,422,290.8,427.8,283.6,427.8z"/>
			</g>
			<g>
				<path style="fill:#EA7A45;" d="M254.3,365.8h-17.4c-2.8,0-5-2.2-5-5s2.2-5,5-5h17.4c2.8,0,5,2.2,5,5S257.1,365.8,254.3,365.8z"
					/>
			</g>
			<g>
				<path style="fill:#EA7A45;" d="M259.3,365.8c-2.8,0-5-2.2-5-5v-13.7c0-2.8,2.2-5,5-5s5,2.2,5,5v13.7
					C264.3,363.6,262.1,365.8,259.3,365.8z"/>
			</g>
			<g>
				<path style="fill:#EA7A45;" d="M280.3,365.8c-2.8,0-5-2.2-5-5v-13.7c0-2.8,2.2-5,5-5s5,2.2,5,5v13.7
					C285.3,363.6,283.1,365.8,280.3,365.8z"/>
			</g>
			<g>
				<path style="fill:#EA7A45;" d="M259.3,451.4c-2.8,0-5-2.2-5-5v-13.6c0-2.8,2.2-5,5-5s5,2.2,5,5v13.6
					C264.3,449.2,262.1,451.4,259.3,451.4z"/>
			</g>
			<g>
				<path style="fill:#EA7A45;" d="M280.3,451.4c-2.8,0-5-2.2-5-5v-13.6c0-2.8,2.2-5,5-5s5,2.2,5,5v13.6
					C285.3,449.2,283.1,451.4,280.3,451.4z"/>
			</g>
			<g>
				<path style="fill:#EA7A45;" d="M254.3,437.8h-17.4c-2.8,0-5-2.2-5-5s2.2-5,5-5h17.4c2.8,0,5,2.2,5,5S257.1,437.8,254.3,437.8z"
					/>
			</g>
		</g>
	</g>
	<g>
		<g>
			<g>
				<path style="fill:#FD8945;" d="M416.1,410.5v192h-24.7c-21.2,0-40.8-6.9-56.7-18.5c-1.3-1-2.6-2-3.9-3c-4.6-3.8-8.9-8-12.8-12.5
					c-0.8-1-1.7-2-2.4-3c-4.8-6.2-8.9-12.9-12.1-20.1c-0.5-1-0.9-2-1.3-3c-2.6-6.4-4.5-13.2-5.7-20.2c-0.2-1-0.3-2-0.5-3
					c-0.6-4.2-0.8-8.4-0.8-12.7c0-2.5,0.1-5,0.3-7.5c0.1-1,0.2-2,0.3-3c0.8-7,2.2-13.7,4.4-20.1c0.2-0.5,0.3-1,0.5-1.5
					s0.4-1,0.6-1.5c2-5.4,4.5-10.6,7.4-15.5c0.4-0.6,0.8-1.3,1.2-1.9c0.2-0.4,0.5-0.7,0.7-1.1c3.6-5.6,7.7-10.7,12.4-15.4
					c0.1-0.1,0.2-0.2,0.4-0.4c0.9-0.9,1.8-1.8,2.7-2.6c6.7-6.2,14.2-11.4,22.5-15.5c2.2-1.1,4.4-2.1,6.7-3c11.1-4.5,23.3-7,36-7
					H416.1z"/>
			</g>
			<g>
				<g>
					<path style="fill:none;" d="M416.1,410.5v192h-24.7c-21.2,0-40.8-6.9-56.7-18.5c-1.3-1-2.6-2-3.9-3c-4.6-3.8-8.9-8-12.8-12.5
						c-0.8-1-1.7-2-2.4-3c-4.8-6.2-8.9-12.9-12.1-20.1c-0.5-1-0.9-2-1.3-3c-2.6-6.4-4.5-13.2-5.7-20.2c-0.2-1-0.3-2-0.5-3
						c-0.6-4.2-0.8-8.4-0.8-12.7c0-2.5,0.1-5,0.3-7.5c0.1-1,0.2-2,0.3-3c0.8-7,2.2-13.7,4.4-20.1c0.2-0.5,0.3-1,0.5-1.5
						s0.4-1,0.6-1.5c2-5.4,4.5-10.6,7.4-15.5c0.4-0.6,0.8-1.3,1.2-1.9c0.2-0.4,0.5-0.7,0.7-1.1c3.6-5.6,7.7-10.7,12.4-15.4
						c0.1-0.1,0.2-0.2,0.4-0.4c0.9-0.9,1.8-1.8,2.7-2.6c6.7-6.2,14.2-11.4,22.5-15.5c2.2-1.1,4.4-2.1,6.7-3c11.1-4.5,23.3-7,36-7
						H416.1z"/>
					<g>
						<path style="fill:#EA7A45;" d="M392.9,419c0,0.8-0.7,1.5-1.5,1.5h-42.7c2.2-1.1,4.4-2.1,6.7-3h36
							C392.2,417.5,392.9,418.2,392.9,419z"/>
					</g>
				</g>
			</g>
			<g>
				<g>
					<path style="fill:none;" d="M416.1,410.5v192h-24.7c-21.2,0-40.8-6.9-56.7-18.5c-1.3-1-2.6-2-3.9-3c-4.6-3.8-8.9-8-12.8-12.5
						c-0.8-1-1.7-2-2.4-3c-4.8-6.2-8.9-12.9-12.1-20.1c-0.5-1-0.9-2-1.3-3c-2.6-6.4-4.5-13.2-5.7-20.2c-0.2-1-0.3-2-0.5-3
						c-0.6-4.2-0.8-8.4-0.8-12.7c0-2.5,0.1-5,0.3-7.5c0.1-1,0.2-2,0.3-3c0.8-7,2.2-13.7,4.4-20.1c0.2-0.5,0.3-1,0.5-1.5
						s0.4-1,0.6-1.5c2-5.4,4.5-10.6,7.4-15.5c0.4-0.6,0.8-1.3,1.2-1.9c0.2-0.4,0.5-0.7,0.7-1.1c3.6-5.6,7.7-10.7,12.4-15.4
						c0.1-0.1,0.2-0.2,0.4-0.4c0.9-0.9,1.8-1.8,2.7-2.6c6.7-6.2,14.2-11.4,22.5-15.5c2.2-1.1,4.4-2.1,6.7-3c11.1-4.5,23.3-7,36-7
						H416.1z"/>
					<g>
						<path style="fill:#EA7A45;" d="M370.4,437.5c0,0.8-0.7,1.5-1.5,1.5h-45.8c0.1-0.1,0.2-0.2,0.4-0.4c0.9-0.9,1.8-1.8,2.7-2.6
							h42.6C369.7,436,370.4,436.7,370.4,437.5z"/>
					</g>
				</g>
			</g>
			<g>
				<g>
					<path style="fill:none;" d="M416.1,410.5v192h-24.7c-21.2,0-40.8-6.9-56.7-18.5c-1.3-1-2.6-2-3.9-3c-4.6-3.8-8.9-8-12.8-12.5
						c-0.8-1-1.7-2-2.4-3c-4.8-6.2-8.9-12.9-12.1-20.1c-0.5-1-0.9-2-1.3-3c-2.6-6.4-4.5-13.2-5.7-20.2c-0.2-1-0.3-2-0.5-3
						c-0.6-4.2-0.8-8.4-0.8-12.7c0-2.5,0.1-5,0.3-7.5c0.1-1,0.2-2,0.3-3c0.8-7,2.2-13.7,4.4-20.1c0.2-0.5,0.3-1,0.5-1.5
						s0.4-1,0.6-1.5c2-5.4,4.5-10.6,7.4-15.5c0.4-0.6,0.8-1.3,1.2-1.9c0.2-0.4,0.5-0.7,0.7-1.1c3.6-5.6,7.7-10.7,12.4-15.4
						c0.1-0.1,0.2-0.2,0.4-0.4c0.9-0.9,1.8-1.8,2.7-2.6c6.7-6.2,14.2-11.4,22.5-15.5c2.2-1.1,4.4-2.1,6.7-3c11.1-4.5,23.3-7,36-7
						H416.1z"/>
					<path style="fill:#FFF6BB;" d="M359.2,455.5v18.9h-58.3c0.2-0.5,0.4-1,0.6-1.5c2-5.4,4.5-10.6,7.4-15.5
						c0.4-0.6,0.8-1.3,1.2-1.9H359.2z"/>
				</g>
			</g>
			<g>
				<g>
					<path style="fill:none;" d="M416.1,410.5v192h-24.7c-21.2,0-40.8-6.9-56.7-18.5c-1.3-1-2.6-2-3.9-3c-4.6-3.8-8.9-8-12.8-12.5
						c-0.8-1-1.7-2-2.4-3c-4.8-6.2-8.9-12.9-12.1-20.1c-0.5-1-0.9-2-1.3-3c-2.6-6.4-4.5-13.2-5.7-20.2c-0.2-1-0.3-2-0.5-3
						c-0.6-4.2-0.8-8.4-0.8-12.7c0-2.5,0.1-5,0.3-7.5c0.1-1,0.2-2,0.3-3c0.8-7,2.2-13.7,4.4-20.1c0.2-0.5,0.3-1,0.5-1.5
						s0.4-1,0.6-1.5c2-5.4,4.5-10.6,7.4-15.5c0.4-0.6,0.8-1.3,1.2-1.9c0.2-0.4,0.5-0.7,0.7-1.1c3.6-5.6,7.7-10.7,12.4-15.4
						c0.1-0.1,0.2-0.2,0.4-0.4c0.9-0.9,1.8-1.8,2.7-2.6c6.7-6.2,14.2-11.4,22.5-15.5c2.2-1.1,4.4-2.1,6.7-3c11.1-4.5,23.3-7,36-7
						H416.1z"/>
					<g>
						<path style="fill:#EA7A45;" d="M347.9,455.9c0,0.8-0.7,1.5-1.5,1.5h-37.5c0.4-0.6,0.8-1.3,1.2-1.9c0.2-0.4,0.5-0.7,0.7-1.1
							h35.6c0.7,0,1.3,0.5,1.4,1.1C347.9,455.6,347.9,455.8,347.9,455.9z"/>
					</g>
				</g>
			</g>
			<g>
				<g>
					<path style="fill:none;" d="M416.1,410.5v192h-24.7c-21.2,0-40.8-6.9-56.7-18.5c-1.3-1-2.6-2-3.9-3c-4.6-3.8-8.9-8-12.8-12.5
						c-0.8-1-1.7-2-2.4-3c-4.8-6.2-8.9-12.9-12.1-20.1c-0.5-1-0.9-2-1.3-3c-2.6-6.4-4.5-13.2-5.7-20.2c-0.2-1-0.3-2-0.5-3
						c-0.6-4.2-0.8-8.4-0.8-12.7c0-2.5,0.1-5,0.3-7.5c0.1-1,0.2-2,0.3-3c0.8-7,2.2-13.7,4.4-20.1c0.2-0.5,0.3-1,0.5-1.5
						s0.4-1,0.6-1.5c2-5.4,4.5-10.6,7.4-15.5c0.4-0.6,0.8-1.3,1.2-1.9c0.2-0.4,0.5-0.7,0.7-1.1c3.6-5.6,7.7-10.7,12.4-15.4
						c0.1-0.1,0.2-0.2,0.4-0.4c0.9-0.9,1.8-1.8,2.7-2.6c6.7-6.2,14.2-11.4,22.5-15.5c2.2-1.1,4.4-2.1,6.7-3c11.1-4.5,23.3-7,36-7
						H416.1z"/>
					<g>
						<path style="fill:#EA7A45;" d="M343.5,474.4c0,0.8-0.7,1.5-1.5,1.5h-41.6c0.2-0.5,0.3-1,0.5-1.5s0.4-1,0.6-1.5H342
							C342.8,472.9,343.5,473.6,343.5,474.4z"/>
					</g>
				</g>
			</g>
			<g>
				<g>
					<path style="fill:none;" d="M416.1,410.5v192h-24.7c-21.2,0-40.8-6.9-56.7-18.5c-1.3-1-2.6-2-3.9-3c-4.6-3.8-8.9-8-12.8-12.5
						c-0.8-1-1.7-2-2.4-3c-4.8-6.2-8.9-12.9-12.1-20.1c-0.5-1-0.9-2-1.3-3c-2.6-6.4-4.5-13.2-5.7-20.2c-0.2-1-0.3-2-0.5-3
						c-0.6-4.2-0.8-8.4-0.8-12.7c0-2.5,0.1-5,0.3-7.5c0.1-1,0.2-2,0.3-3c0.8-7,2.2-13.7,4.4-20.1c0.2-0.5,0.3-1,0.5-1.5
						s0.4-1,0.6-1.5c2-5.4,4.5-10.6,7.4-15.5c0.4-0.6,0.8-1.3,1.2-1.9c0.2-0.4,0.5-0.7,0.7-1.1c3.6-5.6,7.7-10.7,12.4-15.4
						c0.1-0.1,0.2-0.2,0.4-0.4c0.9-0.9,1.8-1.8,2.7-2.6c6.7-6.2,14.2-11.4,22.5-15.5c2.2-1.1,4.4-2.1,6.7-3c11.1-4.5,23.3-7,36-7
						H416.1z"/>
					<g>
						<path style="fill:#EA7A45;" d="M343.5,497.5c0,0.8-0.7,1.5-1.5,1.5h-46.3c0.1-1,0.2-2,0.3-3h46
							C342.8,496,343.5,496.7,343.5,497.5z"/>
					</g>
				</g>
			</g>
			<g>
				<g>
					<path style="fill:none;" d="M416.1,410.5v192h-24.7c-21.2,0-40.8-6.9-56.7-18.5c-1.3-1-2.6-2-3.9-3c-4.6-3.8-8.9-8-12.8-12.5
						c-0.8-1-1.7-2-2.4-3c-4.8-6.2-8.9-12.9-12.1-20.1c-0.5-1-0.9-2-1.3-3c-2.6-6.4-4.5-13.2-5.7-20.2c-0.2-1-0.3-2-0.5-3
						c-0.6-4.2-0.8-8.4-0.8-12.7c0-2.5,0.1-5,0.3-7.5c0.1-1,0.2-2,0.3-3c0.8-7,2.2-13.7,4.4-20.1c0.2-0.5,0.3-1,0.5-1.5
						s0.4-1,0.6-1.5c2-5.4,4.5-10.6,7.4-15.5c0.4-0.6,0.8-1.3,1.2-1.9c0.2-0.4,0.5-0.7,0.7-1.1c3.6-5.6,7.7-10.7,12.4-15.4
						c0.1-0.1,0.2-0.2,0.4-0.4c0.9-0.9,1.8-1.8,2.7-2.6c6.7-6.2,14.2-11.4,22.5-15.5c2.2-1.1,4.4-2.1,6.7-3c11.1-4.5,23.3-7,36-7
						H416.1z"/>
					<g>
						<path style="fill:#EA7A45;" d="M343.5,520.7c0,0.8-0.7,1.5-1.5,1.5h-45.3c-0.2-1-0.3-2-0.5-3H342
							C342.8,519.2,343.5,519.9,343.5,520.7z"/>
					</g>
				</g>
			</g>
			<g>
				<g>
					<path style="fill:none;" d="M416.1,410.5v192h-24.7c-21.2,0-40.8-6.9-56.7-18.5c-1.3-1-2.6-2-3.9-3c-4.6-3.8-8.9-8-12.8-12.5
						c-0.8-1-1.7-2-2.4-3c-4.8-6.2-8.9-12.9-12.1-20.1c-0.5-1-0.9-2-1.3-3c-2.6-6.4-4.5-13.2-5.7-20.2c-0.2-1-0.3-2-0.5-3
						c-0.6-4.2-0.8-8.4-0.8-12.7c0-2.5,0.1-5,0.3-7.5c0.1-1,0.2-2,0.3-3c0.8-7,2.2-13.7,4.4-20.1c0.2-0.5,0.3-1,0.5-1.5
						s0.4-1,0.6-1.5c2-5.4,4.5-10.6,7.4-15.5c0.4-0.6,0.8-1.3,1.2-1.9c0.2-0.4,0.5-0.7,0.7-1.1c3.6-5.6,7.7-10.7,12.4-15.4
						c0.1-0.1,0.2-0.2,0.4-0.4c0.9-0.9,1.8-1.8,2.7-2.6c6.7-6.2,14.2-11.4,22.5-15.5c2.2-1.1,4.4-2.1,6.7-3c11.1-4.5,23.3-7,36-7
						H416.1z"/>
					<g>
						<path style="fill:#EA7A45;" d="M343.5,543.9c0,0.8-0.7,1.5-1.5,1.5h-38.4c-0.5-1-0.9-2-1.3-3H342
							C342.8,542.4,343.5,543.1,343.5,543.9z"/>
					</g>
				</g>
			</g>
			<g>
				<g>
					<path style="fill:none;" d="M416.1,410.5v192h-24.7c-21.2,0-40.8-6.9-56.7-18.5c-1.3-1-2.6-2-3.9-3c-4.6-3.8-8.9-8-12.8-12.5
						c-0.8-1-1.7-2-2.4-3c-4.8-6.2-8.9-12.9-12.1-20.1c-0.5-1-0.9-2-1.3-3c-2.6-6.4-4.5-13.2-5.7-20.2c-0.2-1-0.3-2-0.5-3
						c-0.6-4.2-0.8-8.4-0.8-12.7c0-2.5,0.1-5,0.3-7.5c0.1-1,0.2-2,0.3-3c0.8-7,2.2-13.7,4.4-20.1c0.2-0.5,0.3-1,0.5-1.5
						s0.4-1,0.6-1.5c2-5.4,4.5-10.6,7.4-15.5c0.4-0.6,0.8-1.3,1.2-1.9c0.2-0.4,0.5-0.7,0.7-1.1c3.6-5.6,7.7-10.7,12.4-15.4
						c0.1-0.1,0.2-0.2,0.4-0.4c0.9-0.9,1.8-1.8,2.7-2.6c6.7-6.2,14.2-11.4,22.5-15.5c2.2-1.1,4.4-2.1,6.7-3c11.1-4.5,23.3-7,36-7
						H416.1z"/>
					<g>
						<path style="fill:#EA7A45;" d="M349.4,567c0,0.8-0.7,1.5-1.5,1.5h-29.8c-0.8-1-1.7-2-2.4-3h32.2
							C348.7,565.5,349.4,566.2,349.4,567z"/>
					</g>
				</g>
			</g>
			<g>
				<g>
					<path style="fill:none;" d="M416.1,410.5v192h-24.7c-21.2,0-40.8-6.9-56.7-18.5c-1.3-1-2.6-2-3.9-3c-4.6-3.8-8.9-8-12.8-12.5
						c-0.8-1-1.7-2-2.4-3c-4.8-6.2-8.9-12.9-12.1-20.1c-0.5-1-0.9-2-1.3-3c-2.6-6.4-4.5-13.2-5.7-20.2c-0.2-1-0.3-2-0.5-3
						c-0.6-4.2-0.8-8.4-0.8-12.7c0-2.5,0.1-5,0.3-7.5c0.1-1,0.2-2,0.3-3c0.8-7,2.2-13.7,4.4-20.1c0.2-0.5,0.3-1,0.5-1.5
						s0.4-1,0.6-1.5c2-5.4,4.5-10.6,7.4-15.5c0.4-0.6,0.8-1.3,1.2-1.9c0.2-0.4,0.5-0.7,0.7-1.1c3.6-5.6,7.7-10.7,12.4-15.4
						c0.1-0.1,0.2-0.2,0.4-0.4c0.9-0.9,1.8-1.8,2.7-2.6c6.7-6.2,14.2-11.4,22.5-15.5c2.2-1.1,4.4-2.1,6.7-3c11.1-4.5,23.3-7,36-7
						H416.1z"/>
					<g>
						<path style="fill:#EA7A45;" d="M369,582.5c0,0.8-0.7,1.5-1.5,1.5h-32.8c-1.3-1-2.6-2-3.9-3h36.6
							C368.3,581,369,581.7,369,582.5z"/>
					</g>
				</g>
			</g>
		</g>
		<circle style="fill:#FDE545;" cx="416.1" cy="506.5" r="96"/>
		<circle style="fill:#FDB645;" cx="416.1" cy="506.5" r="69.1"/>
		<g>
			<g>
				<path style="fill:#EA7A45;" d="M429.5,510.2h-39.6v-46h39.6c12.7,0,23,10.3,23,23S442.2,510.2,429.5,510.2z M399.9,500.2h29.6
					c7.2,0,13-5.8,13-13s-5.8-13-13-13h-29.6V500.2z"/>
			</g>
			<g>
				<path style="fill:#EA7A45;" d="M429.5,546.2h-39.6v-46h39.6c12.7,0,23,10.3,23,23S442.2,546.2,429.5,546.2z M399.9,536.2h29.6
					c7.2,0,13-5.8,13-13s-5.8-13-13-13h-29.6V536.2z"/>
			</g>
			<g>
				<path style="fill:#EA7A45;" d="M400.1,474.2h-17.3c-2.8,0-5-2.2-5-5s2.2-5,5-5h17.3c2.8,0,5,2.2,5,5S402.9,474.2,400.1,474.2z"
					/>
			</g>
			<g>
				<path style="fill:#EA7A45;" d="M405.2,474.2c-2.8,0-5-2.2-5-5v-13.7c0-2.8,2.2-5,5-5s5,2.2,5,5v13.7
					C410.2,472,408,474.2,405.2,474.2z"/>
			</g>
			<g>
				<path style="fill:#EA7A45;" d="M426.1,474.2c-2.8,0-5-2.2-5-5v-13.7c0-2.8,2.2-5,5-5s5,2.2,5,5v13.7
					C431.1,472,428.9,474.2,426.1,474.2z"/>
			</g>
			<g>
				<path style="fill:#EA7A45;" d="M405.2,559.8c-2.8,0-5-2.2-5-5v-13.6c0-2.8,2.2-5,5-5s5,2.2,5,5v13.6
					C410.2,557.6,408,559.8,405.2,559.8z"/>
			</g>
			<g>
				<path style="fill:#EA7A45;" d="M426.1,559.8c-2.8,0-5-2.2-5-5v-13.6c0-2.8,2.2-5,5-5s5,2.2,5,5v13.6
					C431.1,557.6,428.9,559.8,426.1,559.8z"/>
			</g>
			<g>
				<path style="fill:#EA7A45;" d="M400.1,546.2h-17.3c-2.8,0-5-2.2-5-5s2.2-5,5-5h17.3c2.8,0,5,2.2,5,5S402.9,546.2,400.1,546.2z"
					/>
			</g>
		</g>
	</g>
	<g>
		<polygon style="fill:#BE6361;" points="326.5,790 140.5,600.8 524.6,600.8 524.6,699.3 		"/>
		<path style="fill:#BE6361;" d="M326.5,800c-2.6,0-5.2-1-7.1-3l-186-189.1c-2.8-2.9-3.7-7.2-2.1-10.9c1.6-3.7,5.2-6.1,9.2-6.1
			h384.1c5.5,0,10,4.5,10,10v98.5c0,3.9-2.3,7.5-5.8,9.1l-198,90.6C329.4,799.7,328,800,326.5,800z M164.4,610.8L328.8,778
			l185.8-85.1v-82.1L164.4,610.8L164.4,610.8z"/>
		<polygon style="fill:#2B2B2B;" points="147.6,622.3 534.6,622.3 534.6,600.8 127.8,602.3 		"/>
	</g>
	<g>
		<path style="fill:#2B2B2B;" d="M894,542.2c-3.8,0-7.4-2.2-9.1-5.8c-2.3-5-0.1-11,4.9-13.3l99.5-45.6c5-2.3,11-0.1,13.3,4.9
			s0.1,11-4.9,13.3l-99.5,45.6C896.8,541.9,895.4,542.2,894,542.2z"/>
	</g>
	<g>
		<path style="fill:#F9D5FF;" d="M229,846.7c-3.8,0-7.4-2.2-9.1-5.8c-2.3-5-0.1-11,4.9-13.3l665-304.5c5-2.3,11-0.1,13.3,4.9
			s0.1,11-4.9,13.3l-665,304.5C231.8,846.4,230.4,846.7,229,846.7z"/>
	</g>
	<g>
		<path style="fill:#BE6361;" d="M538,610.8H121.1c-5.5,0-10-4.5-10-10s4.5-10,10-10H538c5.5,0,10,4.5,10,10S543.5,610.8,538,610.8z
			"/>
	</g>
	<g>
		<path style="fill:#F9D5FF;" d="M575.5,837.8h-45.3c-2.7,0-5.2-1.1-7.1-2.9l-88.5-88.5c-3.9-3.9-3.9-10.2,0-14.1
			c3.9-3.9,10.2-3.9,14.1,0l85.6,85.6h31.2V680c0-5.5,4.5-10,10-10s10,4.5,10,10v147.8C585.5,833.3,581,837.8,575.5,837.8z"/>
	</g>
	<path style="fill:#FDC068;" d="M964.9,478.5l8.5,27.5c4.5,14.7-3.7,30.2-18.3,34.8c-13.3,4.1-27.4-2.2-33.2-14.4l-12.6-25.9
		L964.9,478.5z"/>
	<path style="fill:#2B2B2B;" d="M806.9,343.2c4,30.5,47.1,83.6,47.1,83.6l27.7,56.1l-10.1-93.2l-39.3-48L806.9,343.2z"/>
	
		<linearGradient id="SVGID_8_" gradientUnits="userSpaceOnUse" x1="875.1" y1="-102.2139" x2="875.1" y2="96.6225" gradientTransform="matrix(1 0 0 1 0 312)">
		<stop  offset="0" style="stop-color:#6B9C83"/>
		<stop  offset="0.401" style="stop-color:#A6A6A4"/>
		<stop  offset="0.5011" style="stop-color:#9F9FC8"/>
		<stop  offset="0.5908" style="stop-color:#9FCCEC"/>
		<stop  offset="1" style="stop-color:#FFE7B0"/>
	</linearGradient>
	<path style="fill:url(#SVGID_8_);" d="M964.9,478.5l-33.7-108.6c-0.8-2.7-2.2-5.3-4-7.7l-1.4-1.8l-90.6-116.6
		c-8.2-10.5-20.8-15.7-33.2-14.8c0.8,5.8,1.6,11.6,2.3,17.5c0.5,13.6-2.3,26.3-8.5,38.1c-2.4,7.5-5.9,14.4-10.5,20.6l77.5,99.7
		l46.4,95.6L964.9,478.5z"/>
	<path style="fill:#C96F4D;" d="M691.9,131.9l43.6-6.7c2.8-0.4,5.4,1.4,5.9,4.2l4.4,24.3l8.7-1l5.7-2.4l20.2,28.3l-8.3-62.1
		c-2.1-15.4-16.8-25.8-32-22.6L679.5,106L691.9,131.9z"/>
	<g>
		<path style="fill:#2B2B2B;" d="M814.4,345.9c-0.5,0-0.9-0.2-1.2-0.6l-23.9-32.6c-0.5-0.7-0.3-1.6,0.3-2.1c0.7-0.5,1.6-0.3,2.1,0.3
			l23.9,32.6c0.5,0.7,0.3,1.6-0.3,2.1C815,345.8,814.7,345.9,814.4,345.9z"/>
	</g>
	<g>
		<path style="fill:#2B2B2B;" d="M878.9,406.4h-16c-0.8,0-1.5-0.7-1.5-1.5s0.7-1.5,1.5-1.5h16c0.8,0,1.5,0.7,1.5,1.5
			S879.7,406.4,878.9,406.4z"/>
	</g>
	<g>
		<path style="fill:#2B2B2B;" d="M709.6,356.8L709.6,356.8c-0.9-0.1-1.5-0.8-1.4-1.6l4.6-47.6c0.1-0.8,0.8-1.4,1.6-1.3
			s1.4,0.8,1.3,1.6l-4.6,47.6C711,356.2,710.4,356.8,709.6,356.8z"/>
	</g>
	<g>
		<path style="fill:#2B2B2B;" d="M679.5,416.3c-0.7,0-1.3-0.5-1.5-1.2l-2.3-12.5c-0.1-0.8,0.4-1.6,1.2-1.7c0.8-0.2,1.6,0.4,1.7,1.2
			l2.3,12.5c0.1,0.8-0.4,1.6-1.2,1.7C679.7,416.3,679.6,416.3,679.5,416.3z"/>
	</g>
	<polygon style="fill:#2B2B2B;" points="764.8,290.5 750.2,338.5 743,290.5 	"/>
	<g>
		<path style="fill:#2B2B2B;" d="M691.4,167.4c-6.1,0-11-4.9-11-11s4.9-11,11-11s11,4.9,11,11S697.5,167.4,691.4,167.4z
			 M691.4,148.4c-4.4,0-8,3.6-8,8s3.6,8,8,8s8-3.6,8-8S695.8,148.4,691.4,148.4z"/>
	</g>
	<g>
		<path style="fill:#2B2B2B;" d="M718.4,162.8c-6.1,0-11-4.9-11-11s4.9-11,11-11s11,4.9,11,11S724.5,162.8,718.4,162.8z
			 M718.4,143.8c-4.4,0-8,3.6-8,8s3.6,8,8,8s8-3.6,8-8S722.8,143.8,718.4,143.8z"/>
	</g>
	<g>
		<path style="fill:#2B2B2B;" d="M700.9,155.3c-0.7,0-1.3-0.5-1.5-1.1c-0.2-0.8,0.3-1.6,1.1-1.8l8-2c0.8-0.2,1.6,0.3,1.8,1.1
			s-0.3,1.6-1.1,1.8l-8,2C701.1,155.3,701,155.3,700.9,155.3z"/>
	</g>
	<g>
		<path style="fill:#2B2B2B;" d="M726.5,148.4c-0.7,0-1.4-0.5-1.5-1.3s0.4-1.6,1.2-1.7l30.9-5.2c0.8-0.1,1.6,0.4,1.7,1.2
			c0.1,0.8-0.4,1.6-1.2,1.7l-30.9,5.2C726.7,148.4,726.6,148.4,726.5,148.4z"/>
	</g>
	<path style="fill:#FDC068;" d="M761.5,155.8l-6.7,0.9l-1.9-15.1c-0.5-3.7,2.1-7.1,5.8-7.6l0,0c3.7-0.5,7.1,2.1,7.6,5.8l1.1,8.4
		C767.9,152,765.2,155.4,761.5,155.8z"/>
	<g>
		<path style="fill:#2B2B2B;" d="M773.8,531.3c-0.8,0-1.4-0.6-1.5-1.3l-12.1-112.5c-0.1-0.8,0.5-1.6,1.3-1.7s1.6,0.5,1.7,1.3
			l12.1,112.5c0.1,0.8-0.5,1.6-1.3,1.7C773.9,531.3,773.9,531.3,773.8,531.3z"/>
	</g>
	<g>
		<path style="fill:#2B2B2B;" d="M894,611.8c-0.8,0-1.5-0.7-1.5-1.5l-0.6-29.8c0-0.8,0.6-1.5,1.5-1.5c0.8,0,1.5,0.6,1.5,1.5
			l0.6,29.8C895.5,611.1,894.9,611.8,894,611.8L894,611.8z"/>
	</g>
	<polygon style="fill:#FFFFFF;" points="760.1,252.9 750.5,233.3 790.5,211 793.2,224.9 776.2,243.3 	"/>
	<polygon style="fill:#FFFFFF;" points="750.5,233.3 741.9,252.9 737.6,243.7 735.7,227.1 738.9,221 	"/>
	<polygon style="fill:#2B2B2B;" points="750.5,233.3 759.7,252 742.3,252 	"/>
</g>
<g>
	<path style="fill:#FDE545;" d="M253.4,213.1l0.4,1c1.5,3.9,4.7,7.1,8.6,8.6l1,0.4c1.1,0.4,1.1,2,0,2.4l-1,0.4
		c-3.9,1.5-7.1,4.7-8.6,8.6l-0.4,1c-0.4,1.1-2,1.1-2.4,0l-0.4-1c-1.5-3.9-4.7-7.1-8.6-8.6l-1-0.4c-1.1-0.4-1.1-2,0-2.4l1-0.4
		c3.9-1.5,7.1-4.7,8.6-8.6l0.4-1C251.4,212,253,212,253.4,213.1z"/>
	<path style="fill:#FDE545;" d="M539.2,403.6l0.4,1c1.5,3.9,4.7,7.1,8.6,8.6l1,0.4c1.1,0.4,1.1,2,0,2.4l-1,0.4
		c-3.9,1.5-7.1,4.7-8.6,8.6l-0.4,1c-0.4,1.1-2,1.1-2.4,0l-0.4-1c-1.5-3.9-4.7-7.1-8.6-8.6l-1-0.4c-1.1-0.4-1.1-2,0-2.4l1-0.4
		c3.9-1.5,7.1-4.7,8.6-8.6l0.4-1C537.3,402.5,538.8,402.5,539.2,403.6z"/>
	<path style="fill:#FDE545;" d="M250.2,655.8l0.4,1c1.5,3.9,4.7,7.1,8.6,8.6l1,0.4c1.1,0.4,1.1,2,0,2.4l-1,0.4
		c-3.9,1.5-7.1,4.7-8.6,8.6l-0.4,1c-0.4,1.1-2,1.1-2.4,0l-0.4-1c-1.5-3.9-4.7-7.1-8.6-8.6l-1-0.4c-1.1-0.4-1.1-2,0-2.4l1-0.4
		c3.9-1.5,7.1-4.7,8.6-8.6l0.4-1C248.2,654.7,249.8,654.7,250.2,655.8z"/>
	<path style="fill:#FDE545;" d="M110.3,415.6l0.4,1c1.5,3.9,4.7,7.1,8.6,8.6l1,0.4c1.1,0.4,1.1,2,0,2.4l-1,0.4
		c-3.9,1.5-7.1,4.7-8.6,8.6l-0.4,1c-0.4,1.1-2,1.1-2.4,0l-0.4-1c-1.5-3.9-4.7-7.1-8.6-8.6l-1-0.4c-1.1-0.4-1.1-2,0-2.4l1-0.4
		c3.9-1.5,7.1-4.7,8.6-8.6l0.4-1C108.4,414.5,109.9,414.5,110.3,415.6z"/>
	<path style="fill:#FDE545;" d="M367.5,284.5l0.4,1c1.5,3.9,4.7,7.1,8.6,8.6l1,0.4c1.1,0.4,1.1,2,0,2.4l-1,0.4
		c-3.9,1.5-7.1,4.7-8.6,8.6l-0.4,1c-0.4,1.1-2,1.1-2.4,0l-0.4-1c-1.5-3.9-4.7-7.1-8.6-8.6l-1-0.4c-1.1-0.4-1.1-2,0-2.4l1-0.4
		c3.9-1.5,7.1-4.7,8.6-8.6l0.4-1C365.5,283.5,367,283.5,367.5,284.5z"/>
	<g>
		
			<rect x="447.566" y="190.919" transform="matrix(0.5677 -0.8232 0.8232 0.5677 37.1831 462.6475)" style="fill:#F9D5FF;" width="23.099" height="10"/>
	</g>
	<g>
		
			<rect x="184.817" y="184.404" transform="matrix(0.8233 -0.5676 0.5676 0.8233 -77.684 142.3652)" style="fill:#F9D5FF;" width="10" height="23.1"/>
	</g>
	<g>
		
			<rect x="313.197" y="154.903" transform="matrix(0.0823 -0.9966 0.9966 0.0823 138.6515 470.3826)" style="fill:#F9D5FF;" width="23.1" height="10"/>
	</g>
</g>
<g>
	<path style="fill:#F9D5FF;" d="M912,197.8v-10c20.5,0,48.2-26.7,70.4-48.1c19.8-19.1,35.5-34.2,47.4-34.2v10
		c-7.9,0-24.4,16-40.5,31.4C964.6,170.8,936.5,197.8,912,197.8z"/>
</g>
</svg>
