<?xml version="1.0" encoding="iso-8859-1"?>
<!-- Generator: Adobe Illustrator 23.0.2, SVG Export Plug-In . SVG Version: 6.00 Build 0)  -->
<svg version="1.1" id="Layer_1" xmlns="http://www.w3.org/2000/svg" xmlns:xlink="http://www.w3.org/1999/xlink" x="0px" y="0px"
	 viewBox="0 0 1105.6 1080" style="enable-background:new 0 0 1105.6 1080;" xml:space="preserve">
<g style="opacity:0.3;">
	<g>
		<path style="fill:#C4ECFE;" d="M1026.7,80.7V885H78.8V80.7H1026.7 M1029.8,77.6H75.7v810.5h954.1L1029.8,77.6L1029.8,77.6z"/>
	</g>
	<g>
		<g>
			<g>
				<rect x="306.5" y="77.6" style="fill:#C4ECFE;" width="2.9" height="810.5"/>
			</g>
			<g>
				<rect x="427.9" y="77.6" style="fill:#C4ECFE;" width="2.9" height="810.5"/>
			</g>
			<g>
				<rect x="306.5" y="77.6" style="fill:#C4ECFE;" width="2.9" height="810.5"/>
			</g>
			<g>
				<rect x="185.1" y="77.6" style="fill:#C4ECFE;" width="2.9" height="810.5"/>
			</g>
			<g>
				<rect x="549.3" y="77.6" style="fill:#C4ECFE;" width="2.9" height="810.5"/>
			</g>
			<g>
				<rect x="670.7" y="77.6" style="fill:#C4ECFE;" width="2.9" height="810.5"/>
			</g>
			<g>
				<rect x="790.6" y="77.6" style="fill:#C4ECFE;" width="2.9" height="810.5"/>
			</g>
			<g>
				<rect x="910.5" y="77.6" style="fill:#C4ECFE;" width="2.9" height="810.5"/>
			</g>
		</g>
	</g>
</g>
<polygon style="fill:#2B2B2B;" points="331.5,883 75.7,883 75.7,887.1 331.5,887.1 "/>
<polygon style="fill:#2B2B2B;" points="404.4,883 404.6,887.1 1005.1,887.1 1005.1,883 "/>
<g>
	
		<linearGradient id="SVGID_1_" gradientUnits="userSpaceOnUse" x1="4333.9351" y1="1190.6979" x2="4333.9351" y2="1125.1831" gradientTransform="matrix(-1 0 0 -1 4974.2852 1392)">
		<stop  offset="0.0042" style="stop-color:#FFD8A1"/>
		<stop  offset="0.9958" style="stop-color:#FFFFFF"/>
	</linearGradient>
	<path style="fill:url(#SVGID_1_);" d="M565.2,234.4c0-18,28.9-47.5,65.9-26c36.8,21.4,23.7,55,84.4,63.4H598.2
		c-18.2,0-33-14.8-33-33V234.4z"/>
	
		<linearGradient id="SVGID_2_" gradientUnits="userSpaceOnUse" x1="6350.4604" y1="1308.4335" x2="6350.4604" y2="1229.8809" gradientTransform="matrix(1 0 0 -1 -5930.4604 1392)">
		<stop  offset="0.0042" style="stop-color:#FFD8A1"/>
		<stop  offset="0.9958" style="stop-color:#FFFFFF"/>
	</linearGradient>
	<path style="fill:url(#SVGID_2_);" d="M311,117.6c0-31.6,39.2-46.7,60.1-23c10.5,11.9,22,20.6,40.1,16.2
		c71.9-17.6,58.6,55.4,117.8,57.2H352c-22.6,0-41-18.3-41-41V117.6z"/>
</g>
<path style="fill:#FDE545;" d="M813.8,177.2l0.4,1c1.5,3.9,4.7,7.1,8.6,8.6l1,0.4c1.1,0.4,1.1,2,0,2.4l-1,0.4
	c-3.9,1.5-7.1,4.7-8.6,8.6l-0.4,1c-0.4,1.1-2,1.1-2.4,0l-0.4-1c-1.5-3.9-4.7-7.1-8.6-8.6l-1-0.4c-1.1-0.4-1.1-2,0-2.4l1-0.4
	c3.9-1.5,7.1-4.7,8.6-8.6l0.4-1C811.8,176.1,813.3,176.1,813.8,177.2z"/>
<g>
	<g>
		<g>
			<g>
				<g>
					<g>
						<path style="fill:#FDE345;" d="M859.2,885.5c-0.7,0-1.3-0.3-1.8-0.7c-0.5-0.5-0.7-1.1-0.7-1.8c0-0.2,0-0.3,0-0.5
							s0.1-0.3,0.1-0.5c0.1-0.2,0.1-0.3,0.2-0.4c0.1-0.1,0.2-0.3,0.3-0.4c0.6-0.6,1.5-0.8,2.3-0.7c0.2,0,0.3,0.1,0.5,0.1
							c0.1,0.1,0.3,0.1,0.4,0.2s0.3,0.2,0.4,0.3c0.5,0.5,0.7,1.1,0.7,1.8s-0.3,1.3-0.7,1.8C860.5,885.2,859.9,885.5,859.2,885.5z"/>
					</g>
					<g>
						<path style="fill:#FDE345;" d="M851.6,869.1L851.6,869.1L851.6,869.1c-0.9-1-0.8-2.6,0.3-3.5l0,0c1-0.9,2.6-0.8,3.5,0.3l0,0
							c0.9,1,0.8,2.6-0.3,3.5l0,0c-0.5,0.4-1,0.6-1.6,0.6l0,0C852.8,870,852.1,869.7,851.6,869.1z M838.5,860.2
							c-1.2-0.7-1.6-2.2-1-3.4l0,0c0.7-1.2,2.2-1.6,3.4-1l0,0c1.2,0.7,1.6,2.2,1,3.4l0,0c-0.5,0.8-1.3,1.3-2.2,1.3l0,0
							C839.3,860.5,838.9,860.4,838.5,860.2z"/>
					</g>
					<g>
						<path style="fill:#FDE345;" d="M825,852.4c-0.7,0-1.3-0.3-1.8-0.7c-0.5-0.5-0.7-1.1-0.7-1.8s0.3-1.3,0.7-1.8
							c0.6-0.6,1.5-0.8,2.3-0.7c0.2,0,0.3,0.1,0.5,0.1c0.1,0.1,0.3,0.1,0.4,0.2c0.1,0.1,0.3,0.2,0.4,0.3c0.1,0.1,0.2,0.2,0.3,0.4
							s0.2,0.3,0.2,0.4c0.1,0.2,0.1,0.3,0.1,0.5s0,0.3,0,0.5c0,0.7-0.3,1.3-0.7,1.8c-0.1,0.1-0.2,0.2-0.4,0.3
							c-0.1,0.1-0.3,0.2-0.4,0.2c-0.2,0.1-0.3,0.1-0.5,0.1C825.3,852.4,825.2,852.4,825,852.4z"/>
					</g>
					<g>
						<path style="fill:#FDE345;" d="M832.4,833.5c-1.2-0.6-1.8-2.1-1.2-3.3l0,0l0,0l0,0c0.6-1.2,2.1-1.8,3.3-1.2l0,0
							c1.2,0.6,1.8,2.1,1.2,3.3l0,0c-0.4,0.9-1.3,1.4-2.3,1.4l0,0C833.1,833.7,832.8,833.6,832.4,833.5z M840.7,814.6
							c-1.3-0.5-1.9-2-1.3-3.3l0,0c0.5-1.3,2-1.9,3.3-1.3l0,0c1.3,0.5,1.9,2,1.3,3.3l0,0c-0.4,1-1.3,1.5-2.3,1.5l0,0
							C841.3,814.8,841,814.7,840.7,814.6z M848.6,795.6c-1.3-0.5-1.9-2-1.4-3.3l0,0c0.5-1.3,2-1.9,3.3-1.4l0,0
							c1.3,0.5,1.9,2,1.4,3.3l0,0c-0.4,1-1.3,1.5-2.3,1.5l0,0C849.3,795.8,849,795.7,848.6,795.6z M856.3,776.5
							c-1.3-0.5-1.9-2-1.4-3.2l0,0c0.5-1.3,2-1.9,3.2-1.4l0,0c1.3,0.5,1.9,2,1.4,3.2l0,0c-0.4,1-1.3,1.6-2.3,1.6l0,0
							C856.9,776.7,856.6,776.6,856.3,776.5z"/>
					</g>
					<g>
						<path style="fill:#FDE345;" d="M864.6,757.4c-0.2,0-0.3,0-0.5,0s-0.3-0.1-0.5-0.1c-0.1-0.1-0.3-0.1-0.4-0.2
							c-0.1-0.1-0.3-0.2-0.4-0.3c-0.1-0.1-0.2-0.2-0.3-0.4c-0.1-0.1-0.2-0.3-0.2-0.4c-0.1-0.1-0.1-0.3-0.1-0.5s0-0.3,0-0.5
							s0-0.3,0-0.5s0.1-0.3,0.1-0.5c0.1-0.1,0.1-0.3,0.2-0.4c0.1-0.1,0.2-0.3,0.3-0.4c0.9-0.9,2.6-0.9,3.5,0
							c0.1,0.1,0.2,0.2,0.3,0.4c0.1,0.1,0.2,0.3,0.2,0.4c0.1,0.2,0.1,0.3,0.1,0.5s0,0.3,0,0.5s0,0.3,0,0.5s-0.1,0.3-0.1,0.5
							c-0.1,0.2-0.1,0.3-0.2,0.4c-0.1,0.1-0.2,0.3-0.3,0.4c-0.1,0.1-0.2,0.2-0.4,0.3c-0.1,0.1-0.3,0.2-0.4,0.2
							c-0.2,0.1-0.3,0.1-0.5,0.1S864.8,757.4,864.6,757.4z"/>
					</g>
					<g>
						<path style="fill:#FDE345;" d="M880.2,861.8c-0.2-1.4,0.7-2.7,2.1-2.9l0,0c1.4-0.2,2.6,0.7,2.9,2l0,0c0.2,1.4-0.7,2.7-2.1,2.9
							l0,0c-0.1,0-0.3,0-0.4,0l0,0C881.5,863.8,880.4,863,880.2,861.8z M876.6,840.5c-0.2-1.4,0.7-2.7,2-2.9l0,0
							c1.4-0.2,2.6,0.7,2.9,2l0,0c0.2,1.4-0.7,2.7-2,2.9l0,0c-0.1,0-0.3,0-0.4,0l0,0C877.9,842.6,876.8,841.7,876.6,840.5z
							 M873,819.2c-0.2-1.4,0.7-2.6,2-2.9l0,0c1.4-0.2,2.7,0.7,2.9,2l0,0c0.2,1.4-0.7,2.7-2,2.9l0,0c-0.1,0-0.3,0-0.4,0l0,0
							C874.3,821.3,873.2,820.4,873,819.2z M869.4,797.9c-0.2-1.4,0.7-2.7,2.1-2.9l0,0c1.4-0.2,2.6,0.7,2.9,2l0,0
							c0.2,1.4-0.7,2.7-2,2.9l0,0c-0.2,0-0.3,0-0.4,0l0,0C870.6,800,869.6,799.1,869.4,797.9z M865.7,776.6c-0.2-1.4,0.7-2.7,2-2.9
							l0,0c1.4-0.2,2.6,0.7,2.9,2l0,0c0.2,1.4-0.7,2.6-2,2.9l0,0c-0.1,0-0.3,0-0.4,0l0,0C867,778.7,865.9,777.8,865.7,776.6z"/>
					</g>
					<g>
						<path style="fill:#FDE345;" d="M886.8,885c-0.2,0-0.3,0-0.5,0s-0.3-0.1-0.5-0.1c-0.2-0.1-0.3-0.1-0.4-0.2
							c-0.1-0.1-0.3-0.2-0.4-0.3c-0.5-0.5-0.7-1.1-0.7-1.8c0-0.2,0-0.3,0-0.5s0.1-0.3,0.1-0.5c0.1-0.2,0.1-0.3,0.2-0.4
							c0.1-0.1,0.2-0.3,0.3-0.4c0.1-0.1,0.2-0.2,0.4-0.3c0.1-0.1,0.3-0.2,0.4-0.2c0.2-0.1,0.3-0.1,0.5-0.1c0.3-0.1,0.7-0.1,1,0
							c0.2,0,0.3,0.1,0.5,0.1c0.2,0.1,0.3,0.1,0.4,0.2c0.1,0.1,0.3,0.2,0.4,0.3c0.5,0.5,0.7,1.1,0.7,1.8s-0.3,1.3-0.7,1.8
							C888.1,884.7,887.5,885,886.8,885z"/>
					</g>
				</g>
				<g>
					<g>
						<path style="fill:#FDE345;" d="M1025.1,571.9c-0.2,0-0.3,0-0.5,0s-0.3-0.1-0.5-0.1c-0.1-0.1-0.3-0.1-0.4-0.2
							c-0.1-0.1-0.3-0.2-0.4-0.3c-0.5-0.5-0.7-1.1-0.7-1.8s0.3-1.3,0.7-1.8c0.9-0.9,2.6-0.9,3.5,0c0.5,0.5,0.7,1.1,0.7,1.8
							s-0.3,1.3-0.7,1.8C1026.4,571.6,1025.8,571.9,1025.1,571.9z"/>
					</g>
					<g>
						<path style="fill:#FDE345;" d="M1009.7,557.7c-1-1-1-2.6-0.1-3.5l0,0c1-1,2.5-1,3.5-0.1l0,0c1,1,1,2.5,0.1,3.5l0,0
							c-0.5,0.5-1.2,0.8-1.8,0.8l0,0C1010.8,558.4,1010.1,558.2,1009.7,557.7z M995.8,544.4c-1-1-1-2.5-0.1-3.5l0,0
							c1-1,2.5-1,3.5-0.1l0,0c1,1,1,2.5,0.1,3.5l0,0c-0.5,0.5-1.2,0.8-1.8,0.8l0,0C997,545.1,996.3,544.9,995.8,544.4z M982,531.1
							c-1-0.9-1-2.5-0.1-3.5l0,0c1-1,2.5-1,3.5-0.1l0,0c1,1,1,2.5,0.1,3.5l0,0c-0.5,0.5-1.2,0.8-1.8,0.8l0,0
							C983.1,531.8,982.5,531.6,982,531.1z M968.1,517.8c-1-1-1-2.5-0.1-3.5l0,0c1-1,2.5-1,3.5-0.1l0,0c1,0.9,1,2.5,0.1,3.5l0,0
							c-0.5,0.5-1.1,0.8-1.8,0.8l0,0C969.2,518.5,968.6,518.3,968.1,517.8z M954.3,504.5c-1-1-1-2.5-0.1-3.5l0,0c1-1,2.5-1,3.5-0.1
							l0,0c1,0.9,1,2.5,0.1,3.5l0,0c-0.5,0.5-1.2,0.8-1.8,0.8l0,0C955.4,505.2,954.8,505,954.3,504.5z M947.9,485.1
							c-0.4-1.3,0.3-2.7,1.7-3.1l0,0c1.3-0.4,2.7,0.3,3.1,1.6l0,0c0.4,1.3-0.3,2.7-1.7,3.1l0,0c-0.2,0.1-0.5,0.1-0.7,0.1l0,0
							C949.2,486.9,948.3,486.2,947.9,485.1z M942.3,466.8c-0.4-1.3,0.3-2.7,1.7-3.1l0,0c1.3-0.4,2.7,0.3,3.1,1.7l0,0
							c0.4,1.3-0.3,2.7-1.7,3.1l0,0c-0.2,0.1-0.5,0.1-0.7,0.1l0,0C943.6,468.6,942.6,467.9,942.3,466.8z M936.6,448.5
							c-0.4-1.3,0.3-2.7,1.7-3.1l0,0c1.3-0.4,2.7,0.3,3.1,1.7l0,0c0.4,1.3-0.3,2.7-1.7,3.1l0,0c-0.2,0.1-0.5,0.1-0.7,0.1l0,0
							C938,450.2,937,449.5,936.6,448.5z M931,430.1c-0.4-1.3,0.3-2.7,1.7-3.1l0,0c1.3-0.4,2.7,0.3,3.1,1.6l0,0
							c0.4,1.3-0.3,2.7-1.7,3.1l0,0c-0.2,0.1-0.5,0.1-0.7,0.1l0,0C932.3,431.9,931.3,431.2,931,430.1z M924.9,412.4
							c-0.6-1.2-0.1-2.7,1.1-3.4l0,0c1.2-0.6,2.7-0.1,3.4,1.1l0,0c0.6,1.2,0.1,2.7-1.1,3.4l0,0c-0.4,0.2-0.8,0.3-1.1,0.3l0,0
							C926.2,413.8,925.3,413.3,924.9,412.4z M913.6,398.2L913.6,398.2L913.6,398.2c-1.1-0.9-1.2-2.5-0.3-3.5l0,0
							c0.9-1.1,2.5-1.2,3.5-0.3l0,0c1,0.9,1.2,2.5,0.3,3.5l0,0c-0.5,0.6-1.2,0.9-1.9,0.9l0,0C914.7,398.8,914.1,398.6,913.6,398.2z"
							/>
					</g>
					<g>
						<path style="fill:#FDE345;" d="M900.2,387c-0.2,0-0.3,0-0.5-0.1c-0.2,0-0.3-0.1-0.5-0.1c-0.2-0.1-0.3-0.1-0.4-0.2
							c-0.1-0.1-0.3-0.2-0.4-0.3c-0.5-0.5-0.7-1.1-0.7-1.8c0-0.7,0.3-1.3,0.7-1.8c0.1-0.1,0.2-0.2,0.4-0.3c0.1-0.1,0.3-0.2,0.4-0.2
							c0.1-0.1,0.3-0.1,0.5-0.1c0.8-0.2,1.7,0.1,2.3,0.7c0.1,0.1,0.2,0.2,0.3,0.4c0.1,0.1,0.2,0.3,0.2,0.4c0.1,0.1,0.1,0.3,0.1,0.5
							s0.1,0.3,0.1,0.5c0,0.7-0.3,1.3-0.7,1.8C901.5,386.7,900.9,387,900.2,387z"/>
					</g>
					<g>
						<path style="fill:#FDE345;" d="M910.8,372.3c-1.2-0.6-1.8-2.1-1.1-3.3l0,0c0.6-1.2,2.1-1.8,3.3-1.1l0,0
							c1.2,0.6,1.8,2.1,1.1,3.4l0,0c-0.4,0.9-1.3,1.4-2.2,1.4l0,0C911.5,372.6,911.1,372.5,910.8,372.3z M913.6,352
							c0-1.4,1.1-2.5,2.5-2.5l0,0c1.4,0,2.5,1.1,2.5,2.5l0,0c0,1.4-1.1,2.5-2.5,2.5l0,0C914.7,354.5,913.6,353.4,913.6,352z
							 M917.9,336.3c-1.4-0.2-2.3-1.4-2.2-2.8l0,0c0.2-1.4,1.4-2.4,2.8-2.2l0,0c1.4,0.2,2.3,1.4,2.2,2.8l0,0
							c-0.2,1.3-1.2,2.2-2.5,2.2l0,0C918.1,336.4,918,336.4,917.9,336.3z"/>
					</g>
					<g>
						<path style="fill:#FDE345;" d="M913.2,318.9c-0.7,0-1.3-0.3-1.8-0.7c-0.1-0.1-0.2-0.2-0.3-0.4c-0.1-0.1-0.2-0.3-0.2-0.4
							c-0.1-0.1-0.1-0.3-0.1-0.5s0-0.3,0-0.5s0-0.3,0-0.5s0.1-0.3,0.1-0.5c0.1-0.1,0.1-0.3,0.2-0.4c0.1-0.1,0.2-0.3,0.3-0.4
							s0.2-0.2,0.4-0.3c0.1-0.1,0.3-0.2,0.4-0.2c0.1-0.1,0.3-0.1,0.5-0.1c0.8-0.2,1.7,0.1,2.3,0.7c0.5,0.5,0.7,1.1,0.7,1.8
							s-0.3,1.3-0.7,1.8c-0.1,0.1-0.2,0.2-0.4,0.3c-0.1,0.1-0.3,0.2-0.4,0.2c-0.2,0.1-0.3,0.1-0.5,0.1S913.4,318.9,913.2,318.9z"/>
					</g>
					<g>
						<path style="fill:#FDE345;" d="M920.5,299.5c-1.4-0.1-2.4-1.3-2.3-2.7l0,0c0.1-1.4,1.3-2.4,2.7-2.3l0,0
							c1.4,0.1,2.4,1.3,2.3,2.7l0,0c-0.1,1.3-1.2,2.3-2.5,2.3l0,0C920.6,299.5,920.6,299.5,920.5,299.5z M914.7,277.7
							c-0.6-1.2-0.1-2.7,1.1-3.3l0,0c1.2-0.6,2.7-0.1,3.3,1.1l0,0c0.6,1.2,0.1,2.7-1.1,3.4l0,0c-0.4,0.2-0.7,0.3-1.1,0.3l0,0
							C916,279,915.1,278.5,914.7,277.7z M901.6,263.3c-1.2-0.7-1.5-2.3-0.8-3.4l0,0c0.7-1.2,2.3-1.5,3.5-0.8l0,0
							c1.2,0.7,1.5,2.3,0.8,3.4l0,0c-0.5,0.8-1.3,1.2-2.1,1.2l0,0C902.5,263.7,902,263.5,901.6,263.3z"/>
					</g>
					<g>
						<path style="fill:#FDE345;" d="M883,257.9c-0.2,0-0.3,0-0.5-0.1c-0.2,0-0.3-0.1-0.5-0.1c-0.2-0.1-0.3-0.1-0.4-0.2
							c-0.1-0.1-0.3-0.2-0.4-0.3c-0.1-0.1-0.2-0.2-0.3-0.4c-0.1-0.1-0.2-0.3-0.2-0.4c-0.1-0.1-0.1-0.3-0.1-0.5c0-0.2,0-0.3,0-0.5
							c0-0.7,0.3-1.3,0.7-1.8c0.9-0.9,2.6-0.9,3.5,0c0.5,0.5,0.7,1.1,0.7,1.8c0,0.2,0,0.3,0,0.5c0,0.2-0.1,0.3-0.1,0.5
							c-0.1,0.1-0.1,0.3-0.2,0.4c-0.1,0.1-0.2,0.3-0.3,0.4s-0.2,0.2-0.4,0.3c-0.1,0.1-0.3,0.2-0.4,0.2c-0.2,0.1-0.3,0.1-0.5,0.1
							C883.3,257.9,883.2,257.9,883,257.9z"/>
					</g>
					<g>
						<path style="fill:#FDE345;" d="M883,257.9c-0.2,0-0.3,0-0.5-0.1c-0.2,0-0.3-0.1-0.5-0.1c-0.2-0.1-0.3-0.1-0.4-0.2
							c-0.1-0.1-0.3-0.2-0.4-0.3c-0.1-0.1-0.2-0.2-0.3-0.4c-0.1-0.1-0.2-0.3-0.2-0.4c-0.1-0.1-0.1-0.3-0.1-0.5c0-0.2,0-0.3,0-0.5
							c0-0.7,0.3-1.3,0.7-1.8c0.9-0.9,2.6-0.9,3.5,0c0.5,0.5,0.7,1.1,0.7,1.8c0,0.2,0,0.3,0,0.5c0,0.2-0.1,0.3-0.1,0.5
							c-0.1,0.1-0.1,0.3-0.2,0.4c-0.1,0.1-0.2,0.3-0.3,0.4s-0.2,0.2-0.4,0.3c-0.1,0.1-0.3,0.2-0.4,0.2c-0.2,0.1-0.3,0.1-0.5,0.1
							C883.3,257.9,883.2,257.9,883,257.9z"/>
					</g>
					<g>
						<path style="fill:#FDE345;" d="M813.3,363.7c-0.1-1.4,1-2.5,2.4-2.6l0,0c1.4-0.1,2.5,1,2.6,2.4l0,0c0.1,1.4-1,2.5-2.4,2.6l0,0
							h-0.1l0,0C814.4,366.1,813.3,365,813.3,363.7z M812.3,344.1c-0.1-1.4,0.9-2.6,2.3-2.7l0,0c1.4-0.1,2.6,0.9,2.7,2.3l0,0
							c0.1,1.4-0.9,2.6-2.3,2.7l0,0c-0.1,0-0.1,0-0.2,0l0,0C813.6,346.4,812.5,345.4,812.3,344.1z M809.6,325.9L809.6,325.9
							c-0.7-1.2-0.3-2.7,0.9-3.4l0,0c1.2-0.7,2.7-0.3,3.4,0.9l0,0l0,0l0,0c0.7,1.2,0.3,2.7-0.9,3.4l0,0c-0.4,0.2-0.8,0.3-1.2,0.3
							l0,0C810.9,327.2,810,326.7,809.6,325.9z M807.8,308.1c-1.4-0.2-2.3-1.4-2.2-2.8l0,0c0.2-1.4,1.4-2.3,2.8-2.2l0,0
							c1.4,0.2,2.3,1.4,2.2,2.8l0,0l0,0l0,0c-0.2,1.3-1.2,2.2-2.5,2.2l0,0C808,308.1,807.9,308.1,807.8,308.1z M814.9,290
							c-1-1-1-2.5,0-3.5l0,0c1-1,2.6-1,3.5,0l0,0c1,1,1,2.6,0,3.5l0,0c-0.5,0.5-1.1,0.8-1.8,0.8l0,0
							C816,290.7,815.3,290.5,814.9,290z M827.2,275.1c-1.1-0.9-1.2-2.5-0.4-3.5l0,0c0.9-1.1,2.5-1.2,3.5-0.4l0,0
							c1.1,0.9,1.2,2.5,0.4,3.5l0,0c-0.5,0.6-1.2,0.9-1.9,0.9l0,0C828.2,275.7,827.6,275.5,827.2,275.1z M842.4,263
							c-0.4-1.3,0.3-2.7,1.6-3.1l0,0c1.3-0.4,2.7,0.3,3.2,1.6l0,0c0.4,1.3-0.3,2.7-1.6,3.2l0,0l0,0l0,0c-0.3,0.1-0.5,0.1-0.8,0.1
							l0,0C843.7,264.7,842.8,264,842.4,263z M861.9,261.5c-0.6-1.2-0.1-2.7,1.1-3.4l0,0c1.2-0.6,2.7-0.1,3.4,1.1l0,0
							c0.6,1.2,0.1,2.7-1.1,3.4l0,0c-0.4,0.2-0.7,0.3-1.1,0.3l0,0C863.2,262.9,862.3,262.4,861.9,261.5z"/>
					</g>
					<g>
						<path style="fill:#FDE345;" d="M816.7,385.8c-0.7,0-1.3-0.3-1.8-0.7c-0.5-0.5-0.7-1.1-0.7-1.8c0-0.2,0-0.3,0-0.5
							s0.1-0.3,0.1-0.5c0.1-0.1,0.1-0.3,0.2-0.4c0.1-0.1,0.2-0.3,0.3-0.4s0.2-0.2,0.4-0.3c0.1-0.1,0.3-0.2,0.4-0.2
							c0.1-0.1,0.3-0.1,0.5-0.1c0.8-0.2,1.7,0.1,2.3,0.7c0.1,0.1,0.2,0.2,0.3,0.4c0.1,0.1,0.2,0.3,0.2,0.4s0.1,0.3,0.1,0.5
							s0.1,0.3,0.1,0.5c0,0.7-0.3,1.3-0.7,1.8C818,385.5,817.4,385.8,816.7,385.8z"/>
					</g>
					<g>
						<path style="fill:#FDE345;" d="M749,658.6c0-1.4,1.1-2.5,2.5-2.5l0,0c1.4,0,2.5,1.1,2.5,2.5l0,0c0,1.4-1.1,2.5-2.5,2.5l0,0
							C750.1,661.1,749,660,749,658.6z M730.8,655.9c-1.2-0.7-1.7-2.2-1-3.4l0,0c0.7-1.2,2.2-1.7,3.4-1l0,0c1.2,0.7,1.7,2.2,1,3.4
							l0,0c-0.5,0.8-1.3,1.3-2.2,1.3l0,0C731.6,656.2,731.2,656.1,730.8,655.9z M715.2,641.3c-0.8-1.2-0.4-2.7,0.7-3.5l0,0
							c1.2-0.8,2.7-0.4,3.5,0.8l0,0c0.8,1.2,0.4,2.7-0.8,3.5l0,0c-0.4,0.3-0.9,0.4-1.3,0.4l0,0C716.5,642.5,715.7,642.1,715.2,641.3
							z M708.4,621.1c-0.1-1.4,0.9-2.6,2.3-2.7l0,0c1.4-0.1,2.6,0.9,2.7,2.3l0,0l0,0l0,0c0.1,1.4-0.9,2.6-2.3,2.7l0,0
							c-0.1,0-0.1,0-0.2,0l0,0C709.6,623.4,708.5,622.4,708.4,621.1z M707,600.9c-0.1-1.4,0.9-2.6,2.3-2.7l0,0
							c1.4-0.1,2.6,0.9,2.7,2.3l0,0c0.1,1.4-0.9,2.6-2.3,2.7l0,0c-0.1,0-0.1,0-0.2,0l0,0C708.2,603.2,707.1,602.2,707,600.9z
							 M705.5,580.6c-0.1-1.4,0.9-2.6,2.3-2.7l0,0c1.4-0.1,2.6,0.9,2.7,2.3l0,0c0.1,1.4-0.9,2.6-2.3,2.7l0,0c-0.1,0-0.1,0-0.2,0l0,0
							C706.7,582.9,705.6,581.9,705.5,580.6z M704.1,560.4c-0.1-1.4,0.9-2.6,2.3-2.7l0,0c1.4-0.1,2.6,0.9,2.7,2.3l0,0
							c0.1,1.4-0.9,2.6-2.3,2.7l0,0c-0.1,0-0.1,0-0.2,0l0,0C705.2,562.7,704.1,561.7,704.1,560.4z M702.6,540.1
							c-0.1-1.4,0.9-2.6,2.3-2.7l0,0c1.4-0.1,2.6,0.9,2.7,2.3l0,0c0.1,1.4-0.9,2.6-2.3,2.7l0,0c-0.1,0-0.1,0-0.2,0l0,0
							C703.8,542.4,702.7,541.4,702.6,540.1z M701.1,519.9c-0.1-1.4,0.9-2.6,2.3-2.7l0,0c1.4-0.1,2.6,0.9,2.7,2.3l0,0
							c0.1,1.4-0.9,2.6-2.3,2.7l0,0c-0.1,0-0.1,0-0.2,0l0,0C702.3,522.2,701.2,521.2,701.1,519.9z M704.3,502
							c-1.3-0.4-2.1-1.8-1.7-3.1l0,0c0.4-1.3,1.8-2.1,3.1-1.7l0,0c1.3,0.4,2.1,1.8,1.7,3.1l0,0c-0.3,1.1-1.3,1.8-2.4,1.8l0,0
							C704.7,502.1,704.5,502,704.3,502z M713.2,483.9c-1-0.9-1.1-2.5-0.1-3.5l0,0c0.9-1,2.5-1.1,3.5-0.1l0,0c1,0.9,1.1,2.5,0.1,3.5
							l0,0c-0.5,0.5-1.2,0.8-1.8,0.8l0,0C714.3,484.6,713.7,484.3,713.2,483.9z M727.4,469.4c-1-1-1-2.5,0-3.5l0,0c1-1,2.5-1,3.5,0
							l0,0c1,1,1,2.5,0,3.5l0,0c-0.5,0.5-1.1,0.8-1.8,0.8l0,0C728.5,470.1,727.8,469.8,727.4,469.4z M741.6,454.9c-1-1-1-2.6,0-3.5
							l0,0c1-1,2.6-1,3.5,0l0,0c1,1,1,2.5,0,3.5l0,0c-0.5,0.5-1.1,0.8-1.8,0.8l0,0C742.7,455.6,742.1,455.4,741.6,454.9z
							 M755.8,440.4c-1-1-1-2.5,0-3.5l0,0c1-1,2.5-1,3.5,0l0,0c1,1,1,2.5,0,3.5l0,0c-0.5,0.5-1.1,0.8-1.8,0.8l0,0
							C757,441.1,756.3,440.9,755.8,440.4z M770.1,425.9c-1-1-1-2.5,0-3.5l0,0c1-1,2.5-1,3.5,0l0,0c1,1,1,2.6,0,3.5l0,0
							c-0.5,0.5-1.1,0.8-1.8,0.8l0,0C771.2,426.6,770.6,426.4,770.1,425.9z M784.3,411.4c-1-1-1-2.5,0-3.5l0,0c1-1,2.5-1,3.5,0l0,0
							c1,1,1,2.6,0,3.5l0,0c-0.5,0.5-1.1,0.8-1.8,0.8l0,0C785.4,412.2,784.8,411.9,784.3,411.4z M798.5,397c-1-1-1-2.6,0-3.5l0,0
							c1-1,2.6-1,3.5,0l0,0c1,1,1,2.6,0,3.5l0,0c-0.5,0.5-1.1,0.7-1.8,0.7l0,0C799.7,397.7,799,397.5,798.5,397z"/>
					</g>
					<g>
						<path style="fill:#FDE345;" d="M771.2,656.1c-0.7,0-1.3-0.3-1.8-0.7c-0.1-0.1-0.2-0.2-0.3-0.4c-0.1-0.1-0.2-0.3-0.2-0.4
							c-0.1-0.2-0.1-0.3-0.1-0.5s0-0.3,0-0.5s0-0.3,0-0.5s0.1-0.3,0.1-0.5c0.1-0.1,0.1-0.3,0.2-0.4c0.1-0.1,0.2-0.3,0.3-0.4
							c0.1-0.1,0.2-0.2,0.4-0.3c0.1-0.1,0.3-0.2,0.4-0.2c0.2-0.1,0.3-0.1,0.5-0.1c0.3-0.1,0.7-0.1,1,0c0.2,0,0.3,0.1,0.5,0.1
							c0.1,0.1,0.3,0.1,0.4,0.2c0.1,0.1,0.3,0.2,0.4,0.3c0.1,0.1,0.2,0.2,0.3,0.4c0.1,0.1,0.2,0.3,0.2,0.4c0.1,0.2,0.1,0.3,0.1,0.5
							s0.1,0.3,0.1,0.5c0,0.7-0.3,1.3-0.7,1.8C772.5,655.8,771.9,656.1,771.2,656.1z"/>
					</g>
					<g>
						<path style="fill:#FDE345;" d="M724.3,872.9c-0.8-1.2-0.4-2.7,0.7-3.5l0,0c1.2-0.8,2.7-0.4,3.5,0.7l0,0l0,0l0,0
							c0.8,1.1,0.4,2.7-0.7,3.5l0,0c-0.4,0.3-0.9,0.4-1.4,0.4l0,0C725.6,874.1,724.8,873.7,724.3,872.9z M721.6,854.5
							c-1.4-0.2-2.3-1.4-2.1-2.8l0,0c0.2-1.4,1.4-2.3,2.8-2.1l0,0c1.4,0.2,2.3,1.4,2.2,2.8l0,0c-0.2,1.3-1.2,2.2-2.5,2.2l0,0
							C721.8,854.6,721.7,854.5,721.6,854.5z M725.8,834.5c-1.3-0.3-2.2-1.7-1.8-3l0,0c0.3-1.3,1.7-2.2,3-1.8l0,0
							c1.3,0.3,2.2,1.7,1.8,3l0,0c-0.3,1.1-1.3,1.9-2.4,1.9l0,0C726.2,834.6,726,834.6,725.8,834.5z M730.8,814.7
							c-1.3-0.3-2.1-1.7-1.8-3l0,0c0.3-1.3,1.7-2.2,3-1.8l0,0c1.3,0.3,2.2,1.7,1.8,3l0,0c-0.3,1.1-1.3,1.9-2.4,1.9l0,0
							C731.2,814.8,731,814.8,730.8,814.7z M735.8,794.9c-1.3-0.3-2.1-1.7-1.8-3l0,0c0.3-1.3,1.7-2.2,3-1.8l0,0
							c1.3,0.3,2.1,1.7,1.8,3l0,0c-0.3,1.1-1.3,1.9-2.4,1.9l0,0C736.2,795,736,794.9,735.8,794.9z M740.9,775
							c-1.3-0.3-2.1-1.7-1.8-3l0,0c0.3-1.3,1.7-2.1,3-1.8l0,0c1.3,0.3,2.1,1.7,1.8,3l0,0c-0.3,1.1-1.3,1.9-2.4,1.9l0,0
							C741.3,775.1,741.1,775.1,740.9,775z M746,755.2c-1.3-0.3-2.2-1.7-1.8-3l0,0c0.3-1.3,1.7-2.1,3-1.8l0,0c1.3,0.3,2.2,1.7,1.8,3
							l0,0c-0.3,1.1-1.3,1.9-2.4,1.9l0,0C746.4,755.3,746.2,755.3,746,755.2z M751,735.4c-1.3-0.3-2.2-1.7-1.8-3l0,0
							c0.3-1.3,1.7-2.1,3-1.8l0,0c1.3,0.3,2.1,1.7,1.8,3l0,0c-0.3,1.1-1.3,1.9-2.4,1.9l0,0C751.4,735.5,751.2,735.5,751,735.4z
							 M756.1,715.6c-1.3-0.3-2.1-1.7-1.8-3l0,0c0.3-1.3,1.7-2.1,3-1.8l0,0c1.3,0.3,2.2,1.7,1.8,3l0,0c-0.3,1.1-1.3,1.9-2.4,1.9l0,0
							C756.5,715.6,756.3,715.6,756.1,715.6z M761.1,695.8c-1.3-0.3-2.1-1.7-1.8-3l0,0c0.3-1.3,1.7-2.2,3-1.8l0,0
							c1.3,0.3,2.2,1.7,1.8,3l0,0c-0.3,1.1-1.3,1.9-2.4,1.9l0,0C761.5,695.8,761.3,695.8,761.1,695.8z M766.2,675.9
							c-1.3-0.3-2.1-1.7-1.8-3l0,0c0.3-1.3,1.7-2.2,3-1.8l0,0c1.3,0.3,2.1,1.7,1.8,3l0,0c-0.3,1.1-1.3,1.9-2.4,1.9l0,0
							C766.6,676,766.4,676,766.2,675.9z"/>
					</g>
					<g>
						<path style="fill:#FDE345;" d="M742.8,885.8c-0.7,0-1.3-0.3-1.8-0.7c-0.5-0.5-0.7-1.1-0.7-1.8s0.3-1.3,0.7-1.8
							c0.6-0.6,1.4-0.8,2.3-0.7c0.2,0,0.3,0.1,0.5,0.1c0.2,0.1,0.3,0.1,0.4,0.2c0.1,0.1,0.3,0.2,0.4,0.3c0.5,0.5,0.7,1.1,0.7,1.8
							s-0.3,1.3-0.7,1.8c-0.1,0.1-0.2,0.2-0.4,0.3c-0.1,0.1-0.3,0.2-0.4,0.2c-0.2,0.1-0.3,0.1-0.5,0.1S743,885.8,742.8,885.8z"/>
					</g>
				</g>
				<g>
					<g>
						<path style="fill:#FDE345;" d="M1024.4,887.6c-0.2,0-0.3,0-0.5,0c-0.2,0-0.3-0.1-0.5-0.1c-0.1-0.1-0.3-0.1-0.4-0.2
							c-0.1-0.1-0.3-0.2-0.4-0.3c-0.1-0.1-0.2-0.2-0.3-0.4c-0.1-0.1-0.2-0.3-0.2-0.4c-0.1-0.2-0.1-0.3-0.1-0.5s-0.1-0.3-0.1-0.5
							c0-0.7,0.3-1.3,0.7-1.8c0.1-0.1,0.2-0.2,0.4-0.3s0.3-0.2,0.4-0.2c0.2-0.1,0.3-0.1,0.5-0.1c0.3-0.1,0.7-0.1,1,0
							c0.2,0,0.3,0.1,0.5,0.1c0.2,0.1,0.3,0.1,0.4,0.2c0.1,0.1,0.3,0.2,0.4,0.3c0.5,0.5,0.7,1.1,0.7,1.8s-0.3,1.3-0.7,1.8
							c-0.1,0.1-0.2,0.2-0.4,0.3c-0.1,0.1-0.3,0.2-0.4,0.2c-0.1,0.1-0.3,0.1-0.5,0.1S1024.6,887.6,1024.4,887.6z"/>
					</g>
					<g>
						<path style="fill:#FDE345;" d="M1024.1,867.9L1024.1,867.9L1024.1,867.9c-0.3-1.3,0.5-2.7,1.8-3l0,0c1.3-0.3,2.7,0.5,3,1.8
							l0,0c0.3,1.3-0.5,2.7-1.8,3l0,0c-0.2,0.1-0.4,0.1-0.6,0.1l0,0C1025.4,869.8,1024.3,869,1024.1,867.9z M1014.7,855
							c-1.2-0.7-1.5-2.3-0.8-3.5l0,0c0.7-1.2,2.3-1.5,3.4-0.8l0,0c1.2,0.7,1.5,2.3,0.8,3.5l0,0c-0.5,0.8-1.3,1.2-2.1,1.2l0,0
							C1015.6,855.3,1015.2,855.2,1014.7,855z M998.2,850.7c-1.4-0.2-2.3-1.5-2.1-2.8l0,0c0.2-1.4,1.5-2.3,2.8-2.1l0,0
							c1.4,0.2,2.3,1.5,2.1,2.8l0,0c-0.2,1.2-1.2,2.1-2.5,2.1l0,0C998.5,850.7,998.3,850.7,998.2,850.7z"/>
					</g>
					<g>
						<path style="fill:#FDE345;" d="M980.5,848.1c-0.7,0-1.3-0.3-1.8-0.7c-0.1-0.1-0.2-0.2-0.3-0.4c-0.1-0.1-0.2-0.3-0.2-0.4
							c-0.1-0.2-0.1-0.3-0.1-0.5s0-0.3,0-0.5s0-0.3,0-0.5s0.1-0.3,0.1-0.5c0.1-0.1,0.1-0.3,0.2-0.4c0.1-0.1,0.2-0.3,0.3-0.4
							c0.6-0.6,1.4-0.9,2.3-0.7c0.2,0,0.3,0.1,0.5,0.1c0.1,0.1,0.3,0.1,0.4,0.2c0.1,0.1,0.3,0.2,0.4,0.3c0.1,0.1,0.2,0.2,0.3,0.4
							c0.1,0.1,0.2,0.3,0.2,0.4c0.1,0.2,0.1,0.3,0.1,0.5s0,0.3,0,0.5c0,0.7-0.3,1.3-0.7,1.8C981.8,847.8,981.2,848.1,980.5,848.1z"
							/>
					</g>
					<g>
						<path style="fill:#FDE345;" d="M977.9,825.4c0-1.4,1.1-2.5,2.5-2.5l0,0c1.4,0,2.5,1.1,2.5,2.5l0,0c0,1.4-1.1,2.5-2.5,2.5l0,0
							C979,827.9,977.9,826.8,977.9,825.4z M977.5,805.2c-0.1-1.4,1-2.5,2.4-2.6l0,0c1.4,0,2.5,1,2.6,2.4l0,0c0.1,1.4-1,2.5-2.4,2.6
							l0,0H980l0,0C978.7,807.6,977.6,806.6,977.5,805.2z M976.6,785c-0.1-1.4,1-2.5,2.4-2.6l0,0c1.4-0.1,2.5,1,2.6,2.4l0,0
							c0.1,1.4-1,2.5-2.4,2.6l0,0h-0.1l0,0C977.8,787.4,976.6,786.3,976.6,785z M975.5,764.8c-0.1-1.4,1-2.6,2.4-2.6l0,0
							c1.4-0.1,2.6,1,2.6,2.4l0,0c0.1,1.4-1,2.5-2.4,2.6l0,0H978l0,0C976.7,767.1,975.6,766.1,975.5,764.8z M974.4,744.5
							c-0.1-1.4,1-2.6,2.4-2.6l0,0c1.4-0.1,2.6,1,2.6,2.4l0,0c0.1,1.4-1,2.5-2.4,2.6l0,0h-0.1l0,0
							C975.6,746.9,974.5,745.9,974.4,744.5z M973.3,724.3c-0.1-1.4,1-2.6,2.4-2.6l0,0c1.4-0.1,2.6,1,2.6,2.4l0,0
							c0.1,1.4-1,2.6-2.3,2.6l0,0c-0.1,0-0.1,0-0.2,0l0,0C974.5,726.7,973.4,725.6,973.3,724.3z M972.1,704.1
							c-0.1-1.4,1-2.6,2.4-2.6l0,0c1.4-0.1,2.6,1,2.6,2.3l0,0c0.1,1.4-1,2.6-2.3,2.6l0,0c-0.1,0-0.1,0-0.1,0l0,0
							C973.3,706.5,972.2,705.4,972.1,704.1z M970.9,683.9c-0.1-1.4,1-2.6,2.3-2.7l0,0c1.4-0.1,2.6,1,2.6,2.3l0,0
							c0.1,1.4-1,2.6-2.3,2.7l0,0c0,0-0.1,0-0.2,0l0,0C972.1,686.2,971,685.2,970.9,683.9z M969.5,663.7c-0.1-1.4,0.9-2.6,2.3-2.7
							l0,0c1.4-0.1,2.6,0.9,2.7,2.3l0,0c0.1,1.4-0.9,2.6-2.3,2.7l0,0c-0.1,0-0.2,0-0.2,0l0,0C970.7,666,969.6,665,969.5,663.7z
							 M965.8,644.1c-0.3-1.3,0.6-2.7,2-2.9l0,0c1.4-0.3,2.7,0.6,2.9,2l0,0c0.3,1.4-0.6,2.7-2,2.9l0,0c-0.2,0-0.3,0-0.5,0l0,0
							C967.1,646.1,966,645.3,965.8,644.1z"/>
					</g>
					<g>
						<path style="fill:#FDE345;" d="M964.3,626.7c-0.7,0-1.3-0.3-1.8-0.7c-0.5-0.5-0.7-1.1-0.7-1.8c0-0.2,0-0.3,0-0.5
							s0.1-0.3,0.1-0.5c0.1-0.2,0.1-0.3,0.2-0.4c0.1-0.1,0.2-0.3,0.3-0.4c0.1-0.1,0.2-0.2,0.4-0.3c0.1-0.1,0.3-0.2,0.4-0.2
							c0.2-0.1,0.3-0.1,0.5-0.1c0.8-0.2,1.7,0.1,2.3,0.7c0.1,0.1,0.2,0.2,0.3,0.4c0.1,0.1,0.2,0.3,0.2,0.4c0.1,0.2,0.1,0.3,0.1,0.5
							s0,0.3,0,0.5c0,0.7-0.3,1.3-0.7,1.8C965.6,626.4,965,626.7,964.3,626.7z"/>
					</g>
					<g>
						<path style="fill:#FDE345;" d="M996,635.7c-0.2-1.4,0.8-2.6,2.2-2.8l0,0c1.4-0.2,2.6,0.8,2.8,2.2l0,0c0.2,1.4-0.8,2.6-2.2,2.8
							l0,0c-0.1,0-0.2,0-0.3,0l0,0C997.2,637.9,996.1,637,996,635.7z M979.4,635.8L979.4,635.8c-1.3-0.5-2-1.9-1.5-3.2l0,0
							c0.5-1.3,1.9-2,3.2-1.5l0,0l0,0l0,0c1.3,0.5,2,1.9,1.5,3.2l0,0c-0.4,1-1.3,1.7-2.3,1.7l0,0C979.9,636,979.6,636,979.4,635.8z
							 M1013.6,630.4c-0.8-1.1-0.4-2.7,0.7-3.5l0,0c1.2-0.8,2.7-0.4,3.5,0.7l0,0c0.8,1.2,0.4,2.7-0.7,3.5l0,0
							c-0.4,0.3-0.9,0.4-1.4,0.4l0,0C1014.8,631.6,1014,631.2,1013.6,630.4z"/>
					</g>
					<g>
						<path style="fill:#FDE345;" d="M1028.4,618.3c-0.7,0-1.3-0.3-1.8-0.7c-0.5-0.5-0.7-1.1-0.7-1.8s0.3-1.3,0.7-1.8
							c0.6-0.6,1.4-0.9,2.3-0.7c0.2,0,0.3,0.1,0.5,0.1c0.2,0.1,0.3,0.1,0.4,0.2c0.1,0.1,0.3,0.2,0.4,0.3c0.5,0.5,0.7,1.1,0.7,1.8
							c0,0.2,0,0.3,0,0.5s-0.1,0.3-0.1,0.5c-0.1,0.2-0.1,0.3-0.2,0.4c-0.1,0.1-0.2,0.3-0.3,0.4
							C1029.7,618,1029.1,618.3,1028.4,618.3z"/>
					</g>
				</g>
			</g>
		</g>
	</g>
	<g>
		<path style="fill:#FDC068;" d="M991.2,564.2l16.5,15.9c8.2,7.9,8.5,21,0.6,29.2c-7.2,7.5-18.6,8.4-26.8,2.6l-15.9-11.2
			L991.2,564.2z"/>
		
			<linearGradient id="SVGID_3_" gradientUnits="userSpaceOnUse" x1="923.1405" y1="860.688" x2="923.1405" y2="988.825" gradientTransform="matrix(1 0 0 -1 0 1392)">
			<stop  offset="0" style="stop-color:#FFE0C2"/>
			<stop  offset="0.401" style="stop-color:#7AAEFC"/>
			<stop  offset="0.5908" style="stop-color:#B8C1FC"/>
			<stop  offset="1" style="stop-color:#D2D4D4"/>
		</linearGradient>
		<path style="fill:url(#SVGID_3_);" d="M965.6,600.7l-70.8-49.8c-4.1-2.9-7-6.9-8.4-11.4l-0.6-1.8l-29.3-95.4
			c-4.9-15,3.3-31.2,18.3-36.1s31.2,3.3,36.1,18.3l29.3,95.4l-9-13.2l60,57.6L965.6,600.7z"/>
		
			<linearGradient id="SVGID_4_" gradientUnits="userSpaceOnUse" x1="894.7142" y1="535.3261" x2="894.7142" y2="870.7277" gradientTransform="matrix(1 0 0 -1 0 1392)">
			<stop  offset="0" style="stop-color:#9774AC"/>
			<stop  offset="0.401" style="stop-color:#47A6D3"/>
			<stop  offset="0.5011" style="stop-color:#A7A7AE"/>
			<stop  offset="0.5908" style="stop-color:#E89AC0"/>
			<stop  offset="1" style="stop-color:#BFE7D1"/>
		</linearGradient>
		<path style="fill:url(#SVGID_4_);" d="M906.6,501.2c11.5,25.7,33,104.1,36.1,117.8c3,13.7,5.8,27.5,8.5,41.4l0.8,3.8
			c1.5,16.5,8,132.8,8.3,149.6c0.1,16.8,0.6,32.9-0.3,49.8l-55.2,8.2l-33-194l0.8,3.8l-43.7-162.8L906.6,501.2z"/>
		<g>
			<g>
				<g>
					<path id="SVGID_139_" style="fill:#FDC068;" d="M876.6,373.2l-20,1.8c-10.3,0.9-19.5-6.7-20.4-17l-2.7-30.1
						c-1.5-16.5,10.7-31.1,27.3-32.6l0,0c16.5-1.5,31.1,10.7,32.6,27.3l2.5,27.6C897,361.8,888.3,372.2,876.6,373.2z"/>
				</g>
				<g>
					<path style="fill:#2B2B2B;" d="M894.5,334.5c-1.6-0.2-2.9-1.7-2.9-3.4c0-1.5,1-2.8,2.3-3.2L894.5,334.5z"/>
				</g>
			</g>
			
				<linearGradient id="SVGID_5_" gradientUnits="userSpaceOnUse" x1="1555.7681" y1="827.3294" x2="1555.7681" y2="961.333" gradientTransform="matrix(-0.9985 0.0539 -0.0539 -0.9985 2458.9827 1268.5927)">
				<stop  offset="0" style="stop-color:#FFE0C2"/>
				<stop  offset="0.401" style="stop-color:#7AAEFC"/>
				<stop  offset="0.5908" style="stop-color:#B8C1FC"/>
				<stop  offset="1" style="stop-color:#D2D4D4"/>
			</linearGradient>
			<path style="fill:url(#SVGID_5_);" d="M853.9,394.6l6.4-0.3c22-1.2,42.3,11.7,50.7,32l0.6,1.5c5.4,13.2,5.1,28.1-0.8,41.1l0,0
				c-3.5,7.7-5.1,16.1-4.6,24.5v0.3l-93.7,5.1v-0.3c-0.4-8.4-2.9-16.6-7.2-23.8l0,0c-7.3-12.3-9.2-27-5.2-40.8l0.4-1.5
				c6.1-21.2,24.9-36.1,46.9-37.3L853.9,394.6"/>
			
				<linearGradient id="SVGID_6_" gradientUnits="userSpaceOnUse" x1="874.1762" y1="497.0062" x2="874.1762" y2="837.2941" gradientTransform="matrix(0.9985 -0.0539 -0.0539 -0.9985 32.767 1399.4805)">
				<stop  offset="0" style="stop-color:#9774AC"/>
				<stop  offset="0.401" style="stop-color:#47A6D3"/>
				<stop  offset="0.5011" style="stop-color:#A7A7AE"/>
				<stop  offset="0.5908" style="stop-color:#E89AC0"/>
				<stop  offset="1" style="stop-color:#BFE7D1"/>
			</linearGradient>
			<path style="fill:url(#SVGID_6_);" d="M859.4,496.2l-46.8,2.5l0.2,4.2c1.4,25.9,23.5,45.7,49.4,44.3l0,0l0,0
				c25.9-1.4,45.7-23.5,44.3-49.4l-0.2-4.2L859.4,496.2z"/>
			<g>
				<path style="fill:#FFFFFF;" d="M866.3,414c-1.2,0-2.5-0.2-3.7-0.5l-22.1-6c-4.8-1.3-8.1-5.5-8.3-10.4v-0.2v-1.7h10v1.6
					c0,0.5,0.4,1,0.9,1.1l22.1,6c1.8,0.5,3.1-0.4,3.5-0.8c0.5-0.4,1.6-1.6,1.3-3.5l-0.7-4.7l9.9-1.5l0.7,4.7c0.7,4.7-1,9.3-4.6,12.4
					C872.9,412.8,869.7,414,866.3,414z"/>
			</g>
			<path style="fill:#2B2B2B;" d="M852.3,404.7l-30.3-1.3c0,0,6.5-4.8,21.6-8L852.3,404.7z"/>
			<path style="fill:#FDC068;" d="M863.9,408.8l-22.1-6c-2.6-0.7-4.5-3-4.6-5.8l-2.2-52.6l31.9-2.8l8.1,57.3
				C876,405.3,870.1,410.4,863.9,408.8z"/>
			<g>
				<path style="fill:#2B2B2B;" d="M887.5,342.3c-0.3,0-0.6-0.1-0.8-0.4c-0.3-0.4-0.2-1,0.2-1.4l2.6-1.9c0.2-0.2,0.4-0.5,0.4-0.9
					s-0.1-0.8-0.4-1l-4.7-4.7c-0.4-0.4-0.4-1,0-1.4s1-0.4,1.4,0l4.7,4.7c0.6,0.6,1,1.5,0.9,2.4c0,0.9-0.4,1.8-1.1,2.4l-2.7,2
					C887.9,342.2,887.7,342.3,887.5,342.3z"/>
			</g>
			<g>
				<path style="fill:#2B2B2B;" d="M884.9,353.5c-1.5,0-3.1-0.6-4.8-1.9c-0.4-0.3-0.5-0.9-0.2-1.4c0.3-0.4,0.9-0.5,1.4-0.2
					c1.7,1.2,3.2,1.7,4.5,1.4c1.8-0.5,2.6-2.3,2.6-2.3c0.2-0.5,0.8-0.7,1.3-0.5s0.7,0.8,0.5,1.3c0,0.1-1.2,2.7-3.9,3.4
					C885.8,353.5,885.4,353.5,884.9,353.5z"/>
			</g>
			<polygon style="fill:#2B2B2B;" points="871.5,373.7 858.5,374.9 873.3,386.5 			"/>
			<circle style="fill:#2B2B2B;" cx="875.5" cy="333" r="3.4"/>
		</g>
		
			<linearGradient id="SVGID_7_" gradientUnits="userSpaceOnUse" x1="819.65" y1="533.8641" x2="819.65" y2="874.1522" gradientTransform="matrix(1 0 0 -1 0 1392)">
			<stop  offset="0" style="stop-color:#9774AC"/>
			<stop  offset="0.401" style="stop-color:#47A6D3"/>
			<stop  offset="0.5011" style="stop-color:#A7A7AE"/>
			<stop  offset="0.5908" style="stop-color:#E89AC0"/>
			<stop  offset="1" style="stop-color:#BFE7D1"/>
		</linearGradient>
		<path style="fill:url(#SVGID_7_);" d="M896.4,516c-0.5,14-2.2,27.7-3.8,41.5c-1.7,13.8-3.8,27.5-6.2,41.1
			c-2.3,13.7-5,27.3-7.7,40.9c-2.9,13.6-5.9,27.1-9.1,40.7l-0.7,3.6c-5.1,15.1-10.4,30.2-15.9,45.2l-4.1,11.3l-4.3,11.2
			c-2.8,7.5-5.8,15-8.7,22.4c-5.9,14.9-12.2,29.7-18.6,44.6c-6.6,14.8-13.1,29.5-20.6,44l-53.8-13.7L790,663.7l-0.8,3.6L815.6,503
			L896.4,516z"/>
		<g>
			<g>
				<path style="fill:#2B2B2B;" d="M833.7,887.4L748,864c-4.5-1.2-7.2-5.8-6.1-10.3l2.7-10.9l54,15.3l38.3,21.3
					C841.4,881.9,838.7,888.8,833.7,887.4z"/>
			</g>
		</g>
		<g>
			<g>
				<path style="fill:#2B2B2B;" d="M1003.4,877.7l-88.4,8.8c-4.6,0.5-8.8-2.9-9.3-7.5l-1.4-11.1l55.9-5l43.4,6.2
					C1008.6,869.9,1008.5,877.2,1003.4,877.7z"/>
			</g>
		</g>
		<g>
			<path style="fill:#2B2B2B;" d="M890.8,308.7c-12.3,7.6-29.1,8.1-38.1,4.7l0.2,21.7l-7.3,0.5l-4.8,5.4l-5.4,6.2l-1.8-20.9
				c-1.4-16.5,11.1-30.9,27.6-31.8l24.6-1.3c1.3-0.1,2.7,0.2,3.9,0.7l0,0C895.9,296.7,896.5,305.2,890.8,308.7z"/>
			<path style="fill:#FDC068;" d="M843.4,344.8l6.7-0.3l-0.6-12.7c-0.1-3-2.6-5.3-5.6-5.1l-1.4,0.1c-3,0.1-5.3,2.6-5.1,5.6l0.3,7.3
				C838,342.6,840.5,344.9,843.4,344.8z"/>
			<circle style="fill:#2B2B2B;" cx="883" cy="293.4" r="18"/>
			<circle style="fill:#2B2B2B;" cx="855.7" cy="295.3" r="15"/>
			<circle style="fill:#2B2B2B;" cx="838.6" cy="309.7" r="10.7"/>
			<circle style="fill:#2B2B2B;" cx="860.3" cy="309.9" r="16.6"/>
		</g>
	</g>
	<polygon style="fill:#2B2B2B;" points="837.3,467.8 828.9,502.7 812.8,502.9 812.6,478.8 	"/>
	<polygon style="fill:#2B2B2B;" points="812.6,498.7 906.3,493.7 906.6,501.2 813,505.2 	"/>
	<g>
		<path style="fill:#2B2B2B;" d="M870.8,675.9c-0.1,0-0.2,0-0.4-0.1c-0.5-0.2-0.7-0.8-0.5-1.3c18.2-45.2,14.2-91.2,14.1-91.6
			c0-0.5,0.3-1,0.9-1.1c0.5,0,1,0.3,1.1,0.9c0,0.5,4.1,46.9-14.3,92.6C871.5,675.6,871.2,675.9,870.8,675.9z"/>
	</g>
	<g>
		<path style="fill:#2B2B2B;" d="M906.3,494.6c-0.5,0-1-0.4-1-1c0-12.1,2.4-19.3,5.1-26.2c0.2-0.5,0.8-0.7,1.3-0.6
			c0.5,0.2,0.7,0.8,0.6,1.3c-2.6,6.7-4.9,13.7-4.9,25.4C907.3,494.1,906.8,494.6,906.3,494.6z"/>
	</g>
	<g>
		<path style="fill:#FDC068;" d="M774.3,593.1l-2.1,26.4c-0.9,11.4-10.9,19.9-22.2,19c-10.3-0.8-18.3-9.1-19-19.1l-1.7-24
			L774.3,593.1z"/>
		
			<linearGradient id="SVGID_8_" gradientUnits="userSpaceOnUse" x1="790.4271" y1="863.8641" x2="790.4271" y2="997.8678" gradientTransform="matrix(1 0 0 -1 0 1392)">
			<stop  offset="0" style="stop-color:#FFE0C2"/>
			<stop  offset="0.401" style="stop-color:#7AAEFC"/>
			<stop  offset="0.5908" style="stop-color:#B8C1FC"/>
			<stop  offset="1" style="stop-color:#D2D4D4"/>
		</linearGradient>
		<path style="fill:url(#SVGID_8_);" d="M774.3,593.1l6.3-79.3l-8.2,20l77-78.3c11.1-11.3,10.9-29.4-0.3-40.5
			c-11.3-11.1-29.4-10.9-40.5,0.3l-77,78.3l-1.5,1.5c-4.6,4.7-7.3,11.4-6.8,18.5l5.9,81.8L774.3,593.1z"/>
	</g>
	<polygon style="fill:#FFFFFF;" points="729.2,595.4 774.3,593.1 775.2,581.3 728.4,584.1 	"/>
	<polygon style="fill:#FFFFFF;" points="991.2,564.2 965.6,600.7 954.8,593.1 981.6,555 	"/>
	
		<linearGradient id="SVGID_9_" gradientUnits="userSpaceOnUse" x1="930.6" y1="497.4691" x2="930.6" y2="592.415" gradientTransform="matrix(1 0 0 -1 0 1392)">
		<stop  offset="0" style="stop-color:#9774AC"/>
		<stop  offset="0.401" style="stop-color:#47A6D3"/>
		<stop  offset="0.5011" style="stop-color:#A7A7AE"/>
		<stop  offset="0.5908" style="stop-color:#E89AC0"/>
		<stop  offset="1" style="stop-color:#BFE7D1"/>
	</linearGradient>
	<polygon style="fill:url(#SVGID_9_);" points="900.7,848 960.5,840.8 960.2,862.9 904.3,867.9 	"/>
	
		<linearGradient id="SVGID_10_" gradientUnits="userSpaceOnUse" x1="776.45" y1="497.8494" x2="776.45" y2="626.3299" gradientTransform="matrix(1 0 0 -1 0 1392)">
		<stop  offset="0" style="stop-color:#9774AC"/>
		<stop  offset="0.401" style="stop-color:#47A6D3"/>
		<stop  offset="0.5011" style="stop-color:#A7A7AE"/>
		<stop  offset="0.5908" style="stop-color:#E89AC0"/>
		<stop  offset="1" style="stop-color:#BFE7D1"/>
	</linearGradient>
	<polygon style="fill:url(#SVGID_10_);" points="798.7,858.1 808.2,838.6 749.8,821.4 744.7,842.8 	"/>
	<path style="fill:#FDE545;" d="M974.2,355l0.4,1c1.5,3.9,4.7,7.1,8.6,8.6l1,0.4c1.1,0.4,1.1,2,0,2.4l-1,0.4
		c-3.9,1.5-7.1,4.7-8.6,8.6l-0.4,1c-0.4,1.1-2,1.1-2.4,0l-0.4-1c-1.5-3.9-4.7-7.1-8.6-8.6l-1-0.4c-1.1-0.4-1.1-2,0-2.4l1-0.4
		c3.9-1.5,7.1-4.7,8.6-8.6l0.4-1C972.3,353.9,973.8,353.9,974.2,355z"/>
	<path style="fill:#FDE545;" d="M726.8,694.3l0.4,1c1.5,3.9,4.7,7.1,8.6,8.6l1,0.4c1.1,0.4,1.1,2,0,2.4l-1,0.4
		c-3.9,1.5-7.1,4.7-8.6,8.6l-0.4,1c-0.4,1.1-2,1.1-2.4,0l-0.4-1c-1.5-3.9-4.7-7.1-8.6-8.6l-1-0.4c-1.1-0.4-1.1-2,0-2.4l1-0.4
		c3.9-1.5,7.1-4.7,8.6-8.6l0.4-1C724.9,693.2,726.4,693.2,726.8,694.3z"/>
	<g>
		<path style="fill:#2B2B2B;" d="M779.5,528C779.5,528,779.4,528,779.5,528c-0.6,0-1-0.5-1-1.1l1.1-13.2c0-0.5,0.5-0.9,1-0.9
			s0.9,0.5,0.9,1l-1.1,13.2C780.4,527.6,780,528,779.5,528z"/>
	</g>
	<g>
		<path style="fill:#2B2B2B;" d="M938.8,514.9c-0.2,0-0.5-0.1-0.7-0.3l-7.5-7.2c-0.4-0.4-0.4-1,0-1.4s1-0.4,1.4,0l7.5,7.2
			c0.4,0.4,0.4,1,0,1.4C939.3,514.8,939.1,514.9,938.8,514.9z"/>
	</g>
</g>
<g>
	<g>
		<path style="fill:#FFE0C2;" d="M413.1,572.5l46.6-77.4c2.6-4.3,6.4-7.5,10.8-9.2l1.8-0.7L574,443.8c14.6-6,31.4,1.1,37.3,15.7
			c6,14.6-1.1,31.4-15.7,37.3l-101.7,41.4l12.5-9.9l-58.8,70.8L413.1,572.5z"/>
		<path style="fill:#FDC068;" d="M447.6,599.1l-9,10.8c-7.3,8.8-20.3,10-29.1,2.7c-8-6.6-9.7-18-4.5-26.6l8.1-13.5L447.6,599.1z"/>
		<path style="fill:#51A0CE;" d="M566.6,522.1c0.4,3.5,0.7,7,1.1,10.5l0.7,10.5c0.3,3.5,0.4,7,0.6,10.5l0.4,10.5
			c0.5,14,0.6,28.1,0.4,42.1c-0.1,14-0.6,28.1-1.2,42.1c-0.7,14-1.5,28.1-2.6,42.1l-1.4,18.8l-9.1,8.4
			c-10.7,9.9-21.5,19.7-32.4,29.4l-8.2,7.2l-8.3,7.2c-5.5,4.8-11.2,9.5-16.8,14.2c-11.3,9.3-22.7,18.6-34.5,27.6
			c-11.8,8.9-23.5,17.9-36,26.1l-41.1-37.4l117.2-129l-10.6,27.5l7.1-160.2L566.6,522.1z"/>
		<g>
			<g>
				<g>
					<path id="SVGID_144_" style="fill:#FDC068;" d="M638.1,453.5l-15.7-12.4c-8.2-6.4-9.6-18.2-3.1-26.4l18.7-23.8
						c10.3-13,29.2-15.3,42.2-5l0,0c13,10.3,15.3,29.2,5,42.2L668,449.9C660.8,459.2,647.4,460.8,638.1,453.5z"/>
				</g>
				<g>
					<path style="fill:#2B2B2B;" d="M681.9,432.3l-4.1,5.2c-0.5-0.6-0.8-1.3-0.8-2.1c0-1.9,1.5-3.4,3.4-3.4
						C680.9,432,681.4,432.1,681.9,432.3z"/>
				</g>
			</g>
			<path style="fill:#FFE0C2;" d="M607,453.5l4.9,4.1c16.8,14.2,22.8,37.5,14.9,58.1l-0.6,1.5c-5.1,13.3-15.5,24-28.7,29.4l0,0
				c-7.8,3.2-14.7,8.2-20.1,14.7l-0.2,0.2l-71.6-60.6l0.2-0.2c5.5-6.4,9.3-14,11.1-22.2l0,0c3.1-13.9,11.9-26,24.2-33.2l1.4-0.8
				c19-11.2,42.9-9.2,59.7,5L607,453.5"/>
			<path style="fill:#50A0CE;" d="M541.3,531.1l-35.8-30.3l-2.7,3.2c-16.7,19.8-14.3,49.4,5.5,66.1l0,0l0,0
				c19.8,16.7,49.4,14.3,66.1-5.5l2.7-3.2L541.3,531.1z"/>
			<g>
				<path style="fill:#FFFFFF;" d="M612.1,480.4c-0.2,0-0.3,0-0.5,0c-4.8-0.2-9.3-2.7-11.8-6.9l-11.7-19c-2.8-4.6-2.3-10.7,1.2-14.8
					l2-2.3c2-2.3,5.5-2.5,7.8-0.5s2.5,5.5,0.5,7.8l-2,2.3c-0.4,0.5-0.5,1.3-0.2,1.8l11.7,19c0.9,1.4,2.1,1.6,2.8,1.6
					c0.6,0,1.9-0.1,2.9-1.5l3-4.3c1.7-2.5,5.2-3.1,7.7-1.4s3.1,5.2,1.4,7.7l-3,4.3C621.2,478.1,616.8,480.4,612.1,480.4z"/>
			</g>
			<path style="fill:#2B2B2B;" d="M596.1,457l-22-19.5c0,0,14.3,3.4,24,7.5L596.1,457z"/>
			<path style="fill:#FDC068;" d="M604.5,470.6l-11.7-19c-1.6-2.6-1.3-6,0.7-8.3l34.1-39.3l25.1,19.8l-33.4,47.3
				C615.7,476.3,607.9,476.1,604.5,470.6z"/>
			<g>
				<path style="fill:#2B2B2B;" d="M671.3,439h-0.1l-3.2-0.4c-0.5-0.1-0.9-0.6-0.8-1.1s0.5-0.9,1.1-0.8l3.1,0.4
					c0.7,0,1.3-0.7,1.3-1.4l-0.2-6.6c0-0.5,0.4-1,0.9-1s1,0.4,1,0.9l0.2,6.6C674.6,437.5,673.1,439,671.3,439z"/>
			</g>
			<g>
				<path style="fill:#2B2B2B;" d="M663.5,446c-0.1,0-0.1,0-0.2,0c-0.2,0-2.4-0.6-6.1-4.2c-0.4-0.4-0.4-1,0-1.4s1-0.4,1.4,0
					c3.2,3.2,5.1,3.6,5.1,3.6c0.5,0.1,0.9,0.6,0.8,1.1C664.4,445.7,664,446,663.5,446z"/>
			</g>
			<polygon style="fill:#2B2B2B;" points="634.1,450.3 623.8,442.2 626.6,460.9 			"/>
			<circle style="fill:#2B2B2B;" cx="664.9" cy="423.4" r="3.4"/>
		</g>
		<path style="fill:#51A0CE;" d="M577.1,561.4c7.9,11.5,26.1,40.2,32,52.8c5.8,12.6,11.5,25.3,16.9,38.1l2.4,5.7
			c2.5,5.7,3,11.8,1.9,17.5c-3,15.7-6.2,31.3-9.6,47l-2.6,11.7l-2.7,11.7c-1.8,7.8-3.7,15.6-5.6,23.4c-3.8,15.6-8,31.1-12.3,46.7
			c-4.5,15.5-9,31-14.4,46.4l-55.2-6.3l21.6-189.8l4.4,23.5l-60-141.3L577.1,561.4z"/>
		<polygon style="fill:#BCA3B4;" points="530.7,831.9 590.6,839.8 584.6,857.8 529,850 		"/>
		<g>
			<g>
				<path style="fill:#2B2B2B;" d="M623.2,882.1l-88.1-11.5c-4.6-0.6-7.9-4.8-7.4-9.4L529,850l55.6,7.8l40.8,15.9
					C630.1,875.6,628.3,882.7,623.2,882.1z"/>
			</g>
		</g>
		<path style="fill:#FDC068;" d="M650.7,616.4l12.7,12.8c8,8.1,8,21.2-0.1,29.2c-7.4,7.3-18.8,7.9-26.9,1.9l-13.1-9.7L650.7,616.4z"
			/>
		<path style="fill:#FFE0C2;" d="M623.3,650.6l-72.1-53.5c-5.7-4.3-9-10.6-9.6-17.2l-0.2-2.1l-9.1-105.4
			c-1.3-15.8,10.4-29.6,26.2-30.9s29.6,10.4,30.9,26.2l9.1,105.4l-9.8-19.3l62,62.5L623.3,650.6z"/>
		<g>
			<g>
				<path style="fill:#2B2B2B;" d="M437.6,871.6l-65.3-60.2c-3.4-3.1-3.7-8.5-0.6-11.9l7.4-8.4l40.9,38.5l24.2,36.6
					C447,870.3,441.4,875.1,437.6,871.6z"/>
			</g>
		</g>
		<g>
			<path style="fill:#2B2B2B;" d="M691.5,413.9c-14.4-2-27.5-12.4-32.2-20.8l-13.7,16.8l-5.9-4.2l-7.1,1.1l-8.1,1.3l12-17.2
				c9.5-13.6,28.3-16.6,41.6-6.7l19.7,14.8c1.1,0.8,2,1.9,2.5,3.1l0,0C703.1,407.9,698.1,414.8,691.5,413.9z"/>
			<path style="fill:#FDC068;" d="M632,411.2l5.4,4.1l7.7-10.1c1.8-2.4,1.3-5.7-1-7.5l-1.1-0.8c-2.4-1.8-5.7-1.3-7.5,1l-4.4,5.8
				C629.2,406,629.6,409.4,632,411.2z"/>
			<circle style="fill:#2B2B2B;" cx="691.6" cy="401.6" r="18"/>
			<circle style="fill:#2B2B2B;" cx="673.1" cy="381.1" r="15"/>
			<circle style="fill:#2B2B2B;" cx="650.8" cy="381.1" r="10.7"/>
			<circle style="fill:#2B2B2B;" cx="667.3" cy="395.3" r="16.6"/>
		</g>
	</g>
	<g>
		<path style="fill:#2B2B2B;" d="M542.3,731h-0.1c-0.5-0.1-0.9-0.5-0.9-1.1l6-52.9l-26.7-63c-0.2-0.5,0-1.1,0.5-1.3s1.1,0,1.3,0.5
			l26.9,63.4l-6,53.5C543.2,730.6,542.8,731,542.3,731z"/>
	</g>
	<g>
		<path style="fill:#2B2B2B;" d="M485.5,675c-0.3,0-0.6-0.1-0.7-0.3c-0.3-0.4-0.3-1,0.1-1.4l8.4-7c0.4-0.3,1-0.3,1.4,0.1
			c0.3,0.4,0.3,1-0.1,1.4l-8.4,7C485.9,674.9,485.7,675,485.5,675z"/>
	</g>
	<g>
		<path style="fill:#2B2B2B;" d="M596.1,562.4c-0.2,0-0.5-0.1-0.7-0.3l-9.3-9.3c-0.4-0.4-0.4-1,0-1.4s1-0.4,1.4,0l9.3,9.3
			c0.4,0.4,0.4,1,0,1.4C596.6,562.3,596.3,562.4,596.1,562.4z"/>
	</g>
	<g>
		<path style="fill:#2B2B2B;" d="M596.1,548.1c-0.5,0-0.9-0.4-1-0.9l-3.8-47.8c0-0.5,0.4-1,0.9-1c0.6,0,1,0.4,1,0.9l3.8,47.8
			C597.1,547.6,596.7,548,596.1,548.1C596.2,548.1,596.1,548.1,596.1,548.1z"/>
	</g>
	<g>
		<path style="fill:#2B2B2B;" d="M537.2,529.5c-0.5,0-0.9-0.4-1-0.9l-3.3-40.4c0-0.5,0.4-1,0.9-1s1,0.4,1,0.9l3.3,40.4
			C538.2,529,537.8,529.4,537.2,529.5C537.3,529.5,537.2,529.5,537.2,529.5z"/>
	</g>
	<g>
		<path style="fill:#2B2B2B;" d="M505.5,501.8c-0.2,0-0.5-0.1-0.6-0.2c-0.4-0.4-0.4-1-0.1-1.4c8.6-9.9,9.9-16.6,11-22.4
			c0.8-4.2,1.6-8.2,4.9-12.7c0.3-0.4,0.9-0.5,1.4-0.2c0.4,0.3,0.5,0.9,0.2,1.4c-3,4.1-3.7,7.8-4.6,11.9c-1.2,6.1-2.5,13-11.5,23.3
			C506,501.7,505.8,501.8,505.5,501.8z"/>
	</g>
	<polygon style="fill:#FFFFFF;" points="413.1,572.5 447.6,599.1 456.3,588.6 419.8,561.4 	"/>
	<polygon style="fill:#FFFFFF;" points="650.7,616.4 623.3,650.6 613.4,643.3 641.9,607.6 	"/>
	<polygon style="fill:#BCA3B4;" points="379.1,791.1 392.3,776.6 434.5,818.9 420,829.5 	"/>
	<g>
		<path style="fill:#2B2B2B;" d="M552.8,688.3c-0.4,0-0.7-0.2-0.9-0.6l-4.5-10.5c-0.2-0.5,0-1.1,0.5-1.3s1.1,0,1.3,0.5l4.5,10.5
			c0.2,0.5,0,1.1-0.5,1.3C553.1,688.2,552.9,688.3,552.8,688.3z"/>
	</g>
</g>
<g>
	<g>
		<path style="fill:#FDC068;" d="M181.6,722.8v11.7c0,11.4-9.3,20.7-20.8,20.6c-10.1,0-18.5-7.3-20.3-16.9l-2.1-11.5L181.6,722.8z"
			/>
		<path style="fill:#B8C1FC;" d="M138.4,726.7l-13.6-73.4c-2-10.7,3.2-21.1,12.1-26.2l2.2-1.2l95.3-54.5
			c13.7-7.8,31.2-3.1,39.1,10.6c7.8,13.7,3.1,31.2-10.6,39.1l-95.3,54.5l14.3-27.4l-0.2,74.7L138.4,726.7z"/>
		<path style="fill:#2B2B2B;" d="M150.3,650.6c-0.1,28.3,3.5,40.1,12,47.6s19.3,14.7,19.3,14.7l0.1-33.9L150.3,650.6z"/>
		<g>
			<path style="fill:#BCA3B4;" d="M181.4,608.7c2.4,1.2,4.6,2.6,6.9,3.8l6.7,4.1c2.3,1.3,4.4,2.8,6.6,4.2l6.5,4.4
				c8.7,5.9,17.1,12.1,25.4,18.4c8.3,6.3,16.4,13,24.4,19.7c8,6.8,15.8,13.7,23.6,20.8l5.4,5c15.3,14.1,16.3,37.8,2.2,53.1
				c-1.5,1.6-3.3,3.2-5,4.5c-12.5,9.5-25.1,18.8-37.9,28l-9.6,6.9l-9.7,6.8c-6.4,4.5-13,8.9-19.5,13.4
				c-13.1,8.8-26.3,17.5-39.7,25.9c-13.5,8.3-27,16.7-41.1,24.3l-44.1-33.2L230.1,686l2.6,63.4l-70.5-70.6L181.4,608.7z"/>
			<g>
				<g>
					<path style="fill:#2B2B2B;" d="M155.7,886.4l-75.8-46.2c-4-2.4-5.3-7.6-3-11.6l5.6-9.7l47.6,29.7l30.9,31.1
						C164.6,883.3,160.1,889.1,155.7,886.4z"/>
				</g>
			</g>
		</g>
		<g>
			<path style="fill:#B8C1FC;" d="M281.9,583.8l3.8,5.1c13.2,17.6,13.8,41.7,1.5,59.9l-0.9,1.3c-8,11.8-20.5,19.9-34.6,22.1l0,0
				c-8.3,1.3-16.2,4.7-22.9,9.8l-0.2,0.2L172.4,607l0.2-0.2c6.8-5,12.2-11.6,15.8-19.2l0,0c6.2-12.9,17.4-22.6,31-26.9l1.5-0.5
				c21-6.6,43.9,0.7,57.1,18.4L281.9,583.8"/>
			<path style="fill:#BCA3B4;" d="M200.4,644.7l-28.1-37.6l-3.4,2.5c-20.8,15.5-25,44.9-9.5,65.7l0,0l0,0
				c15.5,20.8,44.9,25,65.7,9.5l3.4-2.5L200.4,644.7z"/>
			<g>
				<path style="fill:#FFFFFF;" d="M284.1,611.1c-1.2,0-2.3-0.1-3.5-0.4c-4.5-1.2-8.2-4.6-9.7-9l-7.4-22.1c-1.5-4.3,0-9.3,3.8-11.9
					l3.5-2.6c2.2-1.6,5.3-1.2,7,1c1.6,2.2,1.2,5.3-1,7l-3.5,2.6l-0.1,0.1c-0.2,0.1-0.2,0.4-0.1,0.6l7.4,22.2
					c0.4,1.3,1.4,2.2,2.7,2.6c1.3,0.3,2.6,0,3.6-0.9l5.3-4.7c2.1-1.8,5.2-1.6,7.1,0.4c1.8,2.1,1.6,5.2-0.4,7.1l-5.3,4.7
					C290.7,609.9,287.4,611.1,284.1,611.1z"/>
			</g>
			<path style="fill:#2B2B2B;" d="M270.9,585.7l-20.9-26c0,0,18.2,5.8,27,17.5L270.9,585.7z"/>
			<path style="fill:#FDC068;" d="M275.7,600l-7.4-22.1c-0.8-2.3,0-4.9,2-6.3l35.5-25.8l27.5,19.5L290,603.8
				C285.3,608,277.7,606,275.7,600z"/>
			<polygon style="fill:#2B2B2B;" points="312.8,583.4 304.2,575 299.4,595.4 			"/>
			<g>
				<g>
					<path id="SVGID_146_" style="fill:#FDC068;" d="M311.2,587.5l-10.3-17.2c-5.3-8.9-2.5-20.4,6.4-25.8l25.9-15.6
						c14.2-8.5,32.7-3.9,41.2,10.3l0,0c8.5,14.2,3.9,32.7-10.3,41.2l-23.8,14.3C330.3,600.9,317.2,597.6,311.2,587.5z"/>
				</g>
				<g>
					<path style="fill:#2B2B2B;" d="M359.4,583.2l-5.6,3.4c-0.1-0.3-0.1-0.6-0.1-0.9c0-1.9,1.5-3.4,3.4-3.4
						C358,582.3,358.8,582.7,359.4,583.2z"/>
				</g>
			</g>
			<g>
				<path style="fill:#2B2B2B;" d="M348.5,586c-0.4,0-0.8-0.1-1.2-0.2l-2.9-1.5c-0.5-0.3-0.7-0.8-0.4-1.3c0.3-0.5,0.8-0.7,1.3-0.4
					l2.8,1.5c0.3,0.1,0.6,0.1,1-0.1c0.3-0.1,0.6-0.4,0.7-0.8l2.2-6.3c0.2-0.5,0.7-0.8,1.2-0.6s0.8,0.7,0.6,1.2l-2.2,6.3
					c-0.3,0.8-0.9,1.5-1.7,1.9C349.4,585.9,348.9,586,348.5,586z"/>
			</g>
			<g>
				<path style="fill:#2B2B2B;" d="M337.9,589.6c-0.2,0-0.4-0.1-0.6-0.2c-0.4-0.3-0.5-0.9-0.2-1.3c0,0,0.6-0.9,0.3-2
					c-0.2-0.9-1.1-1.7-2.5-2.4c-0.5-0.2-0.7-0.8-0.4-1.3s0.8-0.7,1.3-0.4c1.9,1,3.1,2.2,3.5,3.7c0.5,1.9-0.6,3.5-0.6,3.6
					C338.5,589.4,338.2,589.6,337.9,589.6z"/>
			</g>
			<circle style="fill:#2B2B2B;" cx="346.9" cy="569" r="3.4"/>
			<g>
				<path style="fill:#2B2B2B;" d="M374.9,569.4c-12.8-6.9-21.5-21.2-23-30.7l-18.7,10.9l-4.1-6l-7.1-1.4l-8.1-1.6l17.2-11.9
					c13.6-9.4,32.3-5.7,41.3,8.1l13.4,20.7c0.7,1.1,1.2,2.4,1.3,3.8l0,0C387.9,567.9,380.8,572.6,374.9,569.4z"/>
				<path style="fill:#FDC068;" d="M320.1,546.2l3.6,5.7l10.7-6.8c2.5-1.6,3.3-4.9,1.7-7.4l-0.7-1.2c-1.6-2.5-4.9-3.3-7.4-1.7
					l-6.2,3.9C319.3,540.4,318.5,543.7,320.1,546.2z"/>
				<circle style="fill:#2B2B2B;" cx="378.2" cy="557.9" r="18"/>
				<circle style="fill:#2B2B2B;" cx="365.6" cy="535.3" r="15"/>
				<circle style="fill:#2B2B2B;" cx="348.2" cy="524.6" r="10.7"/>
				<circle style="fill:#2B2B2B;" cx="358.7" cy="543.6" r="16.6"/>
			</g>
		</g>
		<g>
			<path style="fill:#BCA3B4;" d="M172.6,606.9c2.6,1.2,99.1,63.7,108.3,70.3c9.1,6.7,18.1,13.5,27,20.6l6,4.7
				c14.2,11.3,17.6,31.2,8.6,46.4c-6.7,11.3-13.5,22.6-20.6,33.7l-5.3,8.4l-5.4,8.3c-3.6,5.6-7.3,11-11,16.5
				c-7.5,10.9-15.1,21.8-23.1,32.5s-16.1,21.4-25,31.6l-53.9-11.7l70.7-154.1l14.7,51.8l-98.4-84.4L172.6,606.9z"/>
			<polygon style="fill:#2B2B2B;" points="232.4,739.4 306.1,745.5 241.5,716.5 211.4,722.5 			"/>
			<g>
				<path style="fill:#2B2B2B;" d="M209.2,801.6c-0.1,0-0.3,0-0.4-0.1c-0.5-0.2-0.7-0.8-0.5-1.3l26.4-57.5l-35-29.1
					c-0.4-0.3-0.5-1-0.1-1.4c0.3-0.4,1-0.5,1.4-0.1l36.2,30.1l-27,58.9C209.9,801.4,209.6,801.6,209.2,801.6z"/>
			</g>
			<g>
				<g>
					<path style="fill:#2B2B2B;" d="M275.8,887.6l-88.8,0.3c-4.6,0-8.5-3.7-8.6-8.3l-0.3-11.2l56.1,0.4l42.6,10.3
						C281.8,880.3,280.9,887.6,275.8,887.6z"/>
				</g>
			</g>
		</g>
		<path style="fill:#B8C1FC;" d="M308,746l-91.6-21.7c-13.3-3.2-21.8-15.9-20-29.2l0.3-2.2l13.2-94.2c2.3-15.7,16.8-26.5,32.4-24.2
			s26.5,16.8,24.2,32.4l-13.2,94.2l-19.6-31.4l84.8,34.3L308,746z"/>
		<path style="fill:#FDC068;" d="M318.7,704l13.5,5.4c10.6,4.3,15.7,16.3,11.4,26.9c-3.9,9.6-14.2,14.7-23.9,12.4L308,746L318.7,704
			z"/>
	</g>
	<g>
		<path style="fill:#2B2B2B;" d="M255.5,688.3h-0.1c-0.5-0.1-0.9-0.6-0.8-1.1l1.2-8.3c0.1-0.5,0.6-0.9,1.1-0.8
			c0.5,0.1,0.9,0.6,0.8,1.1l-1.2,8.3C256.4,687.9,256,688.3,255.5,688.3z"/>
	</g>
	<g>
		<path style="fill:#2B2B2B;" d="M259.1,663.7H259c-0.5-0.1-0.9-0.6-0.8-1.1l5-35.1c0.1-0.5,0.6-0.9,1.1-0.8
			c0.5,0.1,0.9,0.6,0.8,1.1l-5,35.1C260,663.3,259.6,663.7,259.1,663.7z"/>
	</g>
	<g>
		<path style="fill:#2B2B2B;" d="M206.2,629.3h-0.1c-0.5-0.1-0.9-0.6-0.8-1.1l3.8-26.6c0.1-0.5,0.6-0.9,1.1-0.8
			c0.5,0.1,0.9,0.6,0.8,1.1l-3.8,26.6C207.1,628.9,206.7,629.3,206.2,629.3z"/>
	</g>
	<polygon style="fill:#FFFFFF;" points="318.7,704 308,746 295.3,743 306.3,699 	"/>
	<polygon style="fill:#FFFFFF;" points="181.6,722.8 181.6,712.8 136.2,715.1 138.4,726.7 	"/>
	<polygon style="fill:#51A0CE;" points="178.1,868.4 185.6,852.1 253.6,853 240.3,870.2 	"/>
	<polygon style="fill:#51A0CE;" points="131.2,849.6 147.2,840.3 94.8,807.8 82.5,818.9 	"/>
</g>
<linearGradient id="SVGID_11_" gradientUnits="userSpaceOnUse" x1="361.64" y1="551.8641" x2="361.64" y2="507.5809" gradientTransform="matrix(1 0 0 -1 0 1392)">
	<stop  offset="0.0042" style="stop-color:#FFD8A1"/>
	<stop  offset="0.9958" style="stop-color:#FFFFFF"/>
</linearGradient>
<path style="fill:url(#SVGID_11_);" d="M407.3,888.1c0,0-17.9-34.2-40.3-29c-9.5,2.2-21.9-29.4-39.6-26.2
	c-14.7,2.7-17.1,21,4.1,55.2H407.3z"/>
<g>
	<g>
		<path style="fill:#F9D5FF;" d="M527.7,367.9c-40.6,0-59.5-18.4-79.5-37.8c-8-7.8-16.3-15.8-26.3-22.8
			c-22.5-15.7-59.8-12.5-84.5-10.4c-7.4,0.6-13.8,1.2-18.9,1.2c-25.4,0-47.6-17-69-33.4c-20.6-15.7-40-30.6-61-30.6
			c-19.8,0-32,9.2-46,19.9c-16.1,12.2-34.4,26.1-66.9,26.1v-10c29.1,0,45.2-12.2,60.8-24c14.2-10.8,28.9-22,52.1-22
			c24.4,0,46.1,16.6,67,32.7c20.1,15.4,40.9,31.3,63,31.3c4.6,0,10.8-0.5,18-1.1c26.1-2.2,65.6-5.6,91,12.1
			c10.6,7.4,19.2,15.7,27.5,23.8c19.3,18.8,36,35,72.5,35v10H527.7z"/>
	</g>
	<g>
		<path style="fill:#F9D5FF;" d="M186.6,472.8c-18.4,0-33.8-14.9-50.1-30.7c-18-17.5-36.7-35.5-60.8-35.5v-10
			c28.2,0,49.2,20.4,67.8,38.4c14.8,14.3,28.7,27.8,43.1,27.8V472.8z"/>
	</g>
</g>
</svg>
