<?xml version="1.0" encoding="utf-8"?>
<!-- Generator: Adobe Illustrator 22.0.1, SVG Export Plug-In . SVG Version: 6.00 Build 0)  -->
<svg version="1.1" id="Layer_1" xmlns="http://www.w3.org/2000/svg" xmlns:xlink="http://www.w3.org/1999/xlink" x="0px" y="0px" viewBox="0 0 800 781.5" style="enable-background:new 0 0 800 781.5;" xml:space="preserve">

<title>source_final_all</title>
<g>
	<rect x="1.8" y="-0.1" width="800" height="781.5" style="fill:#FFFFFF;"/>
	<g style="opacity:0.3;">
		<path d="M743.5,58.4v582h-686v-582H743.5 M745.6,56.1H55.3v586.5h690.4L745.6,56.1L745.6,56.1z" style="fill:#C4ECFE;"/>
		<g>
			<rect x="55.3" y="471.9" width="690.4" height="2.1" style="fill:#C4ECFE;"/>
		</g>
		<g>
			<rect x="55.3" y="388" width="690.4" height="2.1" style="fill:#C4ECFE;"/>
		</g>
		<g>
			<rect x="55.3" y="471.9" width="690.4" height="2.1" style="fill:#C4ECFE;"/>
		</g>
		<g>
			<rect x="55.3" y="555.9" width="690.4" height="2.1" style="fill:#C4ECFE;"/>
		</g>
		<g>
			<rect x="55.3" y="304" width="690.4" height="2.1" style="fill:#C4ECFE;"/>
		</g>
		<g>
			<rect x="55.3" y="220" width="690.4" height="2.1" style="fill:#C4ECFE;"/>
		</g>
		<g>
			<rect x="55.3" y="136" width="690.4" height="2.1" style="fill:#C4ECFE;"/>
		</g>
	</g>
	<g style="opacity:0.3;">
		<path d="M743.5,58.4v582h-686v-582H743.5 M745.6,56.1H55.3v586.5h690.4L745.6,56.1L745.6,56.1z" style="fill:#C4ECFE;"/>
		<g>
			<rect x="222.3" y="56.1" width="2.1" height="586.5" style="fill:#C4ECFE;"/>
		</g>
		<g>
			<rect x="310.2" y="56.1" width="2.1" height="586.5" style="fill:#C4ECFE;"/>
		</g>
		<g>
			<rect x="222.3" y="56.1" width="2.1" height="586.5" style="fill:#C4ECFE;"/>
		</g>
		<g>
			<rect x="134.5" y="56.1" width="2.1" height="586.5" style="fill:#C4ECFE;"/>
		</g>
		<g>
			<rect x="398" y="56.1" width="2.1" height="586.5" style="fill:#C4ECFE;"/>
		</g>
		<g>
			<rect x="485.8" y="56.1" width="2.1" height="586.5" style="fill:#C4ECFE;"/>
		</g>
		<g>
			<rect x="572.6" y="56.1" width="2.1" height="586.5" style="fill:#C4ECFE;"/>
		</g>
		<g>
			<rect x="659.4" y="56.1" width="2.1" height="586.5" style="fill:#C4ECFE;"/>
		</g>
	</g>
	<circle cx="331.1" cy="413.1" r="3" style="fill:#BFD9FF;"/>
	<circle cx="541.3" cy="488.2" r="3" style="fill:#BFD9FF;"/>
	<circle cx="555.2" cy="85.1" r="3" style="fill:#BFD9FF;"/>
	<circle cx="720.2" cy="167.3" r="3" style="fill:#BFD9FF;"/>
	<circle cx="104.7" cy="116.7" r="3" style="fill:#BFD9FF;"/>
	<circle cx="372.1" cy="260.6" r="2.7" style="fill:#BFD9FF;"/>
	
		<linearGradient id="SVGID_1_" gradientUnits="userSpaceOnUse" x1="-15945.7822" y1="1869.3125" x2="-15945.7822" y2="1991.4977" gradientTransform="matrix(1 0 0 1 16139.0801 -1354)">
		<stop offset="0" style="stop-color:#FFD8A1"/>
		<stop offset="1" style="stop-color:#FFFFFF"/>
	</linearGradient>
	<path d="M331.5,642.6c-61.1,0-89-89.7-161-80.9c-21.6,2.6-45.7-41.7-55.6-58.4c-16.4-27.7-59.8-16.5-59.8,15.5v123.8
		H331.5z" style="fill:url(#SVGID_1_);"/>
	
		<linearGradient id="SVGID_2_" gradientUnits="userSpaceOnUse" x1="507.8782" y1="1795.2676" x2="507.8782" y2="1988.5527" gradientTransform="matrix(1 0 0 1 0 -1354)">
		<stop offset="0" style="stop-color:#FFD8A1"/>
		<stop offset="1" style="stop-color:#FFFFFF"/>
	</linearGradient>
	<path d="M270,642.6c157.7,0,214.1-203.3,297.5-180.3c48.5,13.4,80.5-21.3,110.6-52.8c24.5-25.5,67.6-8.2,67.6,27.1
		v205.9L270,642.6L270,642.6z" style="fill:url(#SVGID_2_);"/>
	<rect x="476.3" y="639.4" width="269.4" height="3.2" style="fill:#2B2B2B;"/>
	
		<linearGradient id="SVGID_3_" gradientUnits="userSpaceOnUse" x1="498.9385" y1="1519.9999" x2="498.9385" y2="1645.9044" gradientTransform="matrix(1 0 0 1 0 -1354)">
		<stop offset="0" style="stop-color:#F9D5FF"/>
		<stop offset="1" style="stop-color:#F4C5A1"/>
	</linearGradient>
	<path d="M579.4,200c-3.6,8.8-7.5,17.4-11.3,26c-3.8,8.6-7.8,17.1-11.8,25.7c-4,8.5-8.1,17-12.2,25.5l-6.2,12.7
		l-6.3,12.7l-0.7,1.4c-0.2,0.4-0.4,0.8-0.7,1.2l-7,11.1l-7.1,11c-4.7,7.3-9.5,14.6-14.3,21.9l-7.2,10.9l-3.6,5.4l-3.7,5.4
		c-4.9,7.2-9.8,14.4-14.9,21.6l-2,2.8c-0.8,1.1-1.7,2.1-2.7,2.9c-5,3.9-10.1,7.8-15.1,11.6c-10,7.5-24.1,5.5-31.6-4.4
		c-6.7-8.9-5.9-21.3,1.9-29.4c4.4-4.6,8.9-9,13.5-13.5l-4.7,5.7c3.8-7.8,7.8-15.6,11.9-23.4l3-5.8l3-5.8l6.1-11.6
		c4.1-7.7,8.2-15.4,12.4-23l6.3-11.4l6.4-11.4l-1.4,2.5l5.6-13l5.7-13c3.8-8.6,7.7-17.1,11.7-25.8c4-8.5,8-17.1,12.1-25.5
		c4.1-8.5,8.2-16.9,12.7-25.3c7.3-14.2,24.8-19.8,39-12.4C579.4,170.2,585.2,186.2,579.4,200z" style="fill:url(#SVGID_3_);"/>
	<path d="M401.4,642.9l86.4-0.4c4.5,0,8.5-4.3,8.8-8.8l0.7-10.9l-54.6,0.8L400.8,634
		C395.9,635.2,396.4,642.9,401.4,642.9z" style="fill:#2B2B2B;"/>
	
		<linearGradient id="SVGID_4_" gradientUnits="userSpaceOnUse" x1="526.5562" y1="1995.5933" x2="526.5562" y2="1603.806" gradientTransform="matrix(1 0 0 1 0 -1354)">
		<stop offset="0" style="stop-color:#9774AC"/>
		<stop offset="0.4" style="stop-color:#47A6D3"/>
		<stop offset="0.5" style="stop-color:#A7A7AE"/>
		<stop offset="0.59" style="stop-color:#E89AC0"/>
		<stop offset="1" style="stop-color:#BFE7D1"/>
	</linearGradient>
	<path d="M610.3,271.6l-60.6,152.1l-5.4,20.8l-3.8,14.7L497,625.1l-53.9-1.4c-2.4-22.6,8.2-112.5,14.8-164.5
		c0.7-5.1,1.3-9.9,1.8-14.2c1.8-13.6,5.7-26.8,11.5-39.2c0.9-1.8,1.7-3.6,2.7-5.4c24-45.9,57.3-143.1,59.2-154L610.3,271.6z" style="fill:url(#SVGID_4_);"/>
	<path d="M544.3,405.9v38.7l-3.8,14.7H458c0.7-5.1,1.3-9.9,1.8-14.2c1.8-13.6,5.6-26.8,11.5-39.2H544.3z" style="fill:#2B2B2B;"/>
	<path d="M572.9,642.3l86.4-0.4c4.6,0,8.2-3.6,8.3-8.2l0.1-8.7l-54.6-1.5l-41.4,10.3
		C566.9,635.2,567.9,642.3,572.9,642.3z" style="fill:#2B2B2B;"/>
	
		<linearGradient id="SVGID_5_" gradientUnits="userSpaceOnUse" x1="601.9085" y1="1994.942" x2="601.9085" y2="1618.6033" gradientTransform="matrix(1 0 0 1 0 -1354)">
		<stop offset="0" style="stop-color:#9774AC"/>
		<stop offset="0.4" style="stop-color:#47A6D3"/>
		<stop offset="0.5" style="stop-color:#A7A7AE"/>
		<stop offset="0.59" style="stop-color:#E89AC0"/>
		<stop offset="1" style="stop-color:#BFE7D1"/>
	</linearGradient>
	<path d="M613.8,261.5l8.2,181.5l45.7,182.1l-54.1-1.4c-3-15.5-62-133-72.9-164.5c-1.7-4.8-2.7-9.7-3.3-14.7L536.1,268
		L613.8,261.5z" style="fill:url(#SVGID_5_);"/>
	<polygon points="540.8,430 618,354.7 616.2,307 567.5,359.6 	" style="fill:#2B2B2B;"/>
	<g>
		<path d="M540.8,460.4c-0.4,0-0.8-0.2-1-0.7c-6.2-14-2.6-43.4-2.4-44.6c0.1-0.6,0.7-1,1.2-0.9c0.6,0.1,1,0.7,0.9,1.2
			c-0.1,0.3-3.7,30,2.2,43.5c0.2,0.6,0,1.2-0.6,1.4C541.1,460.3,540.9,460.4,540.8,460.4z" style="fill:#2B2B2B;"/>
	</g>
	
		<linearGradient id="SVGID_6_" gradientUnits="userSpaceOnUse" x1="505.3701" y1="1446.4886" x2="505.3701" y2="1649.1007" gradientTransform="matrix(1 -3.000000e-02 3.000000e-02 1 14.4879 -1296.514)">
		<stop offset="0" style="stop-color:#F9D5FF"/>
		<stop offset="1" style="stop-color:#F4C5A1"/>
	</linearGradient>
	<path d="M514.2,248.3c1.7-28.1,20.9-25.8,14.6-45.1s3.8-45.4,25.4-44.1c16.6,1,31.8-2.3,45.2,8
		c26.2,20.3,15.2,28.9,19.8,85.7L514.2,248.3z" style="fill:url(#SVGID_6_);"/>
	
		<linearGradient id="SVGID_7_" gradientUnits="userSpaceOnUse" x1="505.3383" y1="1951.5537" x2="505.3383" y2="1561.5754" gradientTransform="matrix(1 -3.000000e-02 3.000000e-02 1 14.4879 -1296.514)">
		<stop offset="0" style="stop-color:#9774AC"/>
		<stop offset="0.4" style="stop-color:#47A6D3"/>
		<stop offset="0.5" style="stop-color:#A7A7AE"/>
		<stop offset="0.59" style="stop-color:#E89AC0"/>
		<stop offset="1" style="stop-color:#BFE7D1"/>
	</linearGradient>
	<path d="M619.2,252.7c-0.9,14.8-17.7,36.2-43.6,34.9l-20.8-1.7c-23.6-1.2-41.4-23.3-40.4-39.4L619.2,252.7z" style="fill:url(#SVGID_7_);"/>
	<path d="M555.2,158.1c-6.3,0.4-12.4,2.7-17.4,6.5l19.8,9.4L555.2,158.1z" style="fill:#2B2B2B;"/>
	<path d="M566,175.5l25.1-9l-9.5-37.6l-34-0.2l6.8,38.1c-0.3,4.8,3.4,8.9,8.2,9.1C563.7,176,564.9,175.9,566,175.5z" style="fill:#FDC068;"/>
	<polygon points="551.4,150.3 566.3,144.7 554.3,166.8 	" style="fill:#2B2B2B;"/>
	<path d="M614.8,218.4l-15.4,3.7l19.8,30.7C619.2,252.7,618,234.1,614.8,218.4z" style="fill:#2B2B2B;"/>
	<path d="M567.1,151.4l-19.3,2.8c-11.3,1.7-21.9-6.2-23.5-17.5l-1.7-11.6l-0.9-6.6l0,0l-1.2-8.6
		c-2.2-16,9-30.8,25-32.9c15.8-2.2,30.4,8.8,32.9,24.5l4.2,29.1C584,140.6,577.1,150,567.1,151.4L567.1,151.4z" style="fill:#FDC068;"/>
	<path d="M525.4,122.8c-0.4,1.2-1.4,2.2-2.7,2.2l-0.9-6.6c0.5-0.1,1.1-0.1,1.6,0.1C525,119.1,526,121,525.4,122.8
		L525.4,122.8z" style="fill:#2B2B2B;"/>
	<g>
		<path d="M516.3,134.3c-6.1,0-11-4.9-11-11s4.9-11,11-11c6.1,0,11,4.9,11,11S522.3,134.3,516.3,134.3z M516.3,114.5
			c-4.8,0-8.8,4-8.8,8.8c0,4.8,4,8.8,8.8,8.8c4.8,0,8.8-4,8.8-8.8C525.1,118.5,521.1,114.5,516.3,114.5z" style="fill:#2B2B2B;"/>
	</g>
	<g>
		<path d="M531.5,130.7c-0.1,0-0.3,0-0.4-0.1l-3.1-1.3c-1.6-0.9-2.1-3-1.1-4.6l3.4-5.5c0.3-0.5,1-0.7,1.5-0.4
			c0.5,0.3,0.7,1,0.4,1.5l-3.5,5.5c-0.4,0.6-0.1,1.3,0.4,1.6l2.8,1.2c0.6,0.2,0.8,0.9,0.6,1.4C532.3,130.5,532,130.7,531.5,130.7z" style="fill:#2B2B2B;"/>
	</g>
	<g>
		<path d="M532.1,141.5c-1.8,0-3.5-1-5-3c-0.4-0.5-0.3-1.2,0.2-1.5c0.5-0.4,1.2-0.3,1.5,0.2c1.1,1.4,2.2,2.1,3.3,2.1
			c2.3-0.1,4.3-3,4.3-3c0.4-0.5,1-0.7,1.5-0.3c0.5,0.4,0.7,1,0.3,1.5c-0.1,0.1-2.6,3.8-6.1,3.9C532.2,141.5,532.2,141.5,532.1,141.5
			z" style="fill:#2B2B2B;"/>
	</g>
	<circle cx="541" cy="119.2" r="3.3" style="fill:#2B2B2B;"/>
	<path d="M520.2,100c2,11,11.9,11.1,22.1,0.8c2.5-2.5,6.6-2.6,9.1-0.1c0.9,0.8,1.4,1.9,1.7,3l1.6,6.3
		c0.7,2.5,2.6,4.5,5.1,5.2l6.2,1.7l5.1,13.1c2.1,5.3,7.6,8.3,13.1,7.3l0,0c0,0-4.5-27.3-6.6-38.9s-13.5-23.7-32-22.4
		C523.6,77.6,520.2,100,520.2,100z" style="fill:#565656;"/>
	<g>
		<path d="M541,130.7c-6.4,0-11.6-5.2-11.6-11.6s5.2-11.6,11.6-11.6c6.4,0,11.6,5.2,11.6,11.6
			C552.6,125.6,547.5,130.7,541,130.7z M541,109.8c-5.2,0-9.4,4.2-9.4,9.4s4.2,9.4,9.4,9.4s9.4-4.2,9.4-9.4S546.2,109.8,541,109.8z" style="fill:#2B2B2B;"/>
	</g>
	<g>
		<path d="M525.5,121c-0.5,0-1-0.4-1.1-0.9c-0.1-0.6,0.3-1.2,0.9-1.2l5.1-0.8c0.6-0.1,1.2,0.3,1.2,0.9
			c0.1,0.6-0.3,1.2-0.9,1.2l-5.1,0.8C525.7,121,525.6,121,525.5,121z" style="fill:#2B2B2B;"/>
	</g>
	<g>
		<path d="M551.2,117.7c-0.4,0-0.9-0.3-1-0.7c-0.2-0.6,0.1-1.2,0.7-1.4l11.7-4.1c0.6-0.2,1.2,0.1,1.4,0.7
			c0.2,0.6-0.1,1.2-0.7,1.4l-11.7,4.1C551.4,117.6,551.3,117.7,551.2,117.7z" style="fill:#2B2B2B;"/>
	</g>
	<path d="M564.3,105.3L564.3,105.3c2.7-0.4,5.3,1.4,5.7,4.1l1.1,7.1c0.4,2.7-1.4,5.3-4.1,5.7l0,0
		c-2.7,0.4-5.3-1.4-5.7-4.1l-1.1-7.1C559.7,108.3,561.6,105.8,564.3,105.3z" style="fill:#FDC068;"/>
	<path d="M396.8,373.8h147.6c3.9,0,7.1,3.2,7.1,7.1v35c0,3.9-3.2,7.1-7.1,7.1H396.8c-3.9,0-7.1-3.2-7.1-7.1v-35
		C389.7,377,392.9,373.8,396.8,373.8z" style="fill:#4C7DE0;"/>
	<rect x="449.8" y="381.5" width="101.7" height="33.6" style="fill:#FFFFFF;"/>
	<path d="M405.3,312.3h150.8c3,0,5.5,2.5,5.5,5.5v18.7c0,3-2.5,5.5-5.5,5.5H405.3c-3,0-5.5-2.5-5.5-5.5v-18.7
		C399.8,314.8,402.3,312.3,405.3,312.3z" style="fill:#DBB98B;"/>
	<rect x="490.7" y="319.4" width="70.3" height="14.8" style="fill:#FFFFFF;"/>
	<path d="M551.1,373.8H403.5c-3.9,0-7.1-3.2-7.1-7.1v-18.2c0-3.9,3.2-7.1,7.1-7.1h147.6c3.9,0,7.1,3.2,7.1,7.1v18.2
		C558.2,370.6,555,373.8,551.1,373.8z" style="fill:#E64FE0;"/>
	<rect x="396.4" y="349.2" width="88.1" height="16.8" style="fill:#FFFFFF;"/>
	<path d="M416.9,279.9h147.6c3.9,0,7.1,3.2,7.1,7.1v18.2c0,3.9-3.2,7.1-7.1,7.1H416.9c-3.9,0-7.1-3.2-7.1-7.1V287
		C409.8,283.1,412.9,279.9,416.9,279.9z" style="fill:#E64FE0;"/>
	<rect x="483.4" y="287.7" width="88.1" height="16.8" style="fill:#FFFFFF;"/>
	<path d="M425,210.3h147.6c3.9,0,7.1,3.2,7.1,7.1v18.2c0,3.9-3.2,7.1-7.1,7.1H425c-3.9,0-7.1-3.2-7.1-7.1v-18.2
		C417.9,213.5,421.1,210.3,425,210.3z" style="fill:#E64FE0;"/>
	<rect x="491.7" y="218.1" width="88.1" height="16.8" style="fill:#FFFFFF;"/>
	<path d="M416.9,242.7h147.6c3.9,0,7.1,3.2,7.1,7.1v24.3c0,3.9-3.2,7.1-7.1,7.1H416.9c-3.9,0-7.1-3.2-7.1-7.1v-24.3
		C409.8,245.8,412.9,242.7,416.9,242.7z" style="fill:#F9D5FF;"/>
	<rect x="483.4" y="250.5" width="88.1" height="22.9" style="fill:#FFFFFF;"/>
	<path d="M558.7,414.7l-1.3,2c-0.5,0.8-1.1,1.4-1.7,2.1L541,432.6c-9,8.6-23.3,8.2-31.9-0.7c-8-8.3-8.3-21.3-0.9-30.1
		l10.6-12.6l3-5.5L558.7,414.7z" style="fill:#FDC068;"/>
	<polygon points="569.3,210.3 547.5,335.6 581.5,298.6 	" style="fill:#2B2B2B;"/>
	
		<linearGradient id="SVGID_8_" gradientUnits="userSpaceOnUse" x1="711.4296" y1="1509.5968" x2="711.4296" y2="1622.9326" gradientTransform="matrix(1 9.000000e-02 -9.000000e-02 1 13.5164 -1401.228)">
		<stop offset="0" style="stop-color:#F9D5FF"/>
		<stop offset="1" style="stop-color:#F4C5A1"/>
	</linearGradient>
	<path d="M521.8,383.6l45.7-85l3.1-97.8c0.5-16,13.9-28.5,29.9-28c16,0.5,28.5,13.9,28,29.9l0,0l-3.3,104.6l-0.1,1.2
		c-0.1,4.6-1.6,8.9-4.1,12.7l-62.4,93.5L521.8,383.6z" style="fill:url(#SVGID_8_);"/>
	<g>
		<path d="M567.5,299.7c-0.2,0-0.5-0.1-0.7-0.2c-0.4-0.4-0.6-1.1-0.1-1.5l7.1-9c0.4-0.4,1.1-0.6,1.5-0.1
			c0.4,0.4,0.6,1.1,0.1,1.5l-7.1,9C568.1,299.5,567.8,299.7,567.5,299.7z" style="fill:#2B2B2B;"/>
	</g>
	<path d="M78.1,373.8h24.5c9,0,16.4,7.4,16.4,16.4l0,0l0,0H61.6l0,0l0,0C61.6,381.2,69,373.8,78.1,373.8z" style="fill:#F9D5FF;"/>
	<rect x="55.3" y="389" width="255.9" height="65.6" style="fill:#F9D5FF;"/>
	<rect x="55.3" y="387.9" width="277.1" height="4.6" style="fill:#96B5C8;"/>
	<rect x="309.1" y="390.7" width="4.3" height="251.9" style="fill:#96B5C8;"/>
	<path d="M314.3,642.6H166.7c-3.9,0-7.1-3.2-7.1-7.1v-18.2c0-3.9,3.2-7.1,7.1-7.1h147.6c3.9,0,7.1,3.2,7.1,7.1v18.2
		C321.4,639.4,318.2,642.6,314.3,642.6z" style="fill:#E64FE0;"/>
	<rect x="159.6" y="618" width="88.1" height="16.8" style="fill:#FFFFFF;"/>
	<path d="M314.3,611.8H178c-3.9,0-7.1-3.2-7.1-7.1v-12.3c0-3.9,3.2-7.1,7.1-7.1h136.3c3.9,0,7.1,3.2,7.1,7.1v12.3
		C321.4,608.7,318.2,611.8,314.3,611.8z" style="fill:#BB8EFF;"/>
	<rect x="170.9" y="593.2" width="76.8" height="10.9" style="fill:#FFFFFF;"/>
	<path d="M317.4,586.3H163.5c-3.9,0-7.1-3.2-7.1-7.1v-6.9c0-3.9,3.2-7.1,7.1-7.1h153.9c3.9,0,7.1,3.2,7.1,7.1v6.9
		C324.5,583.1,321.3,586.3,317.4,586.3z" style="fill:#F95FAC;"/>
	<rect x="156.3" y="571.4" width="87.3" height="8.7" style="fill:#FFFFFF;"/>
	<g>
		<path d="M82.1,378c-0.1,0-0.1,0-0.2,0c-0.6-0.1-0.9-0.7-0.9-1.3l20.1-93.6c0.1-0.4,0.4-0.7,0.7-0.8l81.2-24.5
			c0.6-0.1,1.2,0.1,1.4,0.7c0.1,0.6-0.1,1.2-0.7,1.4l-80.6,24.2l-20,93C83.1,377.7,82.6,378,82.1,378z" style="fill:#F9D5FF;"/>
	</g>
	<g>
		<path d="M90.4,378c-0.1,0-0.1,0-0.2,0c-0.6-0.1-0.9-0.7-0.9-1.3l19-89.2c0.1-0.4,0.4-0.7,0.7-0.8l79.9-24.3
			c0.6-0.1,1.2,0.1,1.4,0.7c0.1,0.6-0.1,1.2-0.7,1.4l-79.3,24.1l-18.9,88.6C91.3,377.7,90.8,378,90.4,378z" style="fill:#F9D5FF;"/>
	</g>
	<circle cx="104.2" cy="286.9" r="9.1" style="fill:#F9D5FF;stroke:#F9D5FF;stroke-width:3;stroke-linecap:round;stroke-linejoin:round;"/>
	<g>
		<path d="M202.9,304c-7.1,0-12.9-5.8-12.9-12.9s5.8-12.9,12.9-12.9c7.1,0,12.9,5.8,12.9,12.9S210,304,202.9,304z
			 M202.9,280.4c-5.9,0-10.7,4.8-10.7,10.7c0,5.9,4.8,10.7,10.7,10.7c5.9,0,10.7-4.8,10.7-10.7C213.6,285.1,208.8,280.4,202.9,280.4
			z" style="fill:#F9D5FF;"/>
	</g>
	<path d="M178.1,302.9c-6.1-12.7-0.7-28,12.2-34.1c12.7-6.1,28-0.7,34.1,12.1L178.1,302.9z" style="fill:#F9D5FF;stroke:#F9D5FF;stroke-width:3;stroke-linecap:round;stroke-linejoin:round;"/>
	<path d="M185.1,258L185.1,258c4.9-2.3,10.8-0.2,13.1,4.6l3.5,7.3c2.3,4.9,0.3,10.8-4.6,13.1l0,0
		c-4.9,2.3-10.8,0.2-13.1-4.6l-3.5-7.3C178.1,266.2,180.2,260.3,185.1,258z" style="fill:#F9D5FF;stroke:#F9D5FF;stroke-width:3;stroke-linecap:round;stroke-linejoin:round;"/>
	
		<linearGradient id="SVGID_9_" gradientUnits="userSpaceOnUse" x1="-5458.8667" y1="1914.5295" x2="-5458.8667" y2="1993.2994" gradientTransform="matrix(-1 0 0 1 -4780.8003 -1354)">
		<stop offset="0" style="stop-color:#C0DDFC"/>
		<stop offset="0.19" style="stop-color:#D3E7FD"/>
		<stop offset="0.49" style="stop-color:#EBF4FE"/>
		<stop offset="0.77" style="stop-color:#FAFCFF"/>
		<stop offset="1" style="stop-color:#FFFFFF"/>
	</linearGradient>
	<path d="M610.5,642.6c38.5,0,37.3-58.4,70.7-66.1c13.4-3.1,20.6-13,26.8-23.7c10.3-17.9,37.6-10.6,37.6,10v79.8H610.5
		z" style="fill:url(#SVGID_9_);"/>
	<rect x="520.2" y="68" width="56.5" height="31" style="fill:#2B2B2B;stroke:#2B2B2B;stroke-width:3;stroke-linecap:round;stroke-linejoin:round;"/>
	<g>
		<path d="M595.4,69.1h-93.3c-0.6,0-1.1-0.5-1.1-1.1s0.5-1.1,1.1-1.1h93.3c0.6,0,1.1,0.5,1.1,1.1S596,69.1,595.4,69.1z" style="fill:#2B2B2B;"/>
	</g>
	<g>
		<path d="M596.6,86.7c-0.5,0-1-0.4-1.1-0.9l-2.4-17.6c-0.1-0.6,0.4-1.2,0.9-1.2s1.2,0.4,1.2,0.9l2.4,17.6
			c0.1,0.6-0.4,1.2-0.9,1.2C596.7,86.7,596.7,86.7,596.6,86.7z" style="fill:#2B2B2B;"/>
	</g>
	<g>
		<circle cx="223.4" cy="137.4" r="52.2" style="fill:#FFFFFF;"/>
		<path d="M223.4,190.6c-29.4,0-53.3-23.9-53.3-53.3s23.9-53.3,53.3-53.3s53.3,23.9,53.3,53.3
			C276.7,166.8,252.7,190.6,223.4,190.6z M223.4,86.3c-28.2,0-51.1,22.9-51.1,51.1c0,28.2,22.9,51.1,51.1,51.1
			c28.2,0,51.1-22.9,51.1-51.1C274.5,109.2,251.6,86.3,223.4,86.3z" style="fill:#F9D5FF;"/>
	</g>
	<g>
		<polyline points="223.4,101.2 223.4,137.4 247.6,155.2 		" style="fill:#FFFFFF;"/>
		<path d="M247.6,156.3c-0.2,0-0.4-0.1-0.7-0.2l-24.2-17.7c-0.3-0.2-0.4-0.5-0.4-0.9v-36.2c0-0.6,0.5-1.1,1.1-1.1
			c0.6,0,1.1,0.5,1.1,1.1v35.6l23.8,17.4c0.5,0.4,0.6,1,0.2,1.5C248.3,156.1,248,156.3,247.6,156.3z" style="fill:#F9D5FF;"/>
	</g>
</g>
</svg>
