<?xml version="1.0" encoding="iso-8859-1"?>
<!-- Generator: Adobe Illustrator 23.0.2, SVG Export Plug-In . SVG Version: 6.00 Build 0)  -->
<svg version="1.1" id="Layer_1" xmlns="http://www.w3.org/2000/svg" xmlns:xlink="http://www.w3.org/1999/xlink" x="0px" y="0px"
	 viewBox="0 0 1105.6 1080" style="enable-background:new 0 0 1105.6 1080;" xml:space="preserve">
<g style="opacity:0.3;">
	<g>
		<path style="fill:#C4ECFE;" d="M1026.7,80.7V885H78.8V80.7H1026.7 M1029.8,77.6H75.7v810.5h954.1L1029.8,77.6L1029.8,77.6z"/>
	</g>
	<g>
		<g>
			<rect x="75.7" y="652.2" style="fill:#C4ECFE;" width="954.1" height="2.9"/>
		</g>
		<g>
			<rect x="75.7" y="536.1" style="fill:#C4ECFE;" width="954.1" height="2.9"/>
		</g>
		<g>
			<rect x="75.7" y="652.2" style="fill:#C4ECFE;" width="954.1" height="2.9"/>
		</g>
		<g>
			<rect x="75.7" y="768.2" style="fill:#C4ECFE;" width="954.1" height="2.9"/>
		</g>
		<g>
			<rect x="75.7" y="420.1" style="fill:#C4ECFE;" width="954.1" height="2.9"/>
		</g>
		<g>
			<rect x="75.7" y="304" style="fill:#C4ECFE;" width="954.1" height="2.9"/>
		</g>
		<g>
			<rect x="75.7" y="188" style="fill:#C4ECFE;" width="954.1" height="2.9"/>
		</g>
	</g>
</g>
<g>
	
		<linearGradient id="SVGID_1_" gradientUnits="userSpaceOnUse" x1="-9401.957" y1="1236.9021" x2="-9401.957" y2="1112.9233" gradientTransform="matrix(-1 0 0 -1 -8513.7578 1704)">
		<stop  offset="0" style="stop-color:#FFE272"/>
		<stop  offset="0.9958" style="stop-color:#FFFFFF"/>
	</linearGradient>
	<path style="fill:url(#SVGID_1_);" d="M748,596.2c62,0,90.3-90.9,163.4-82.1c21.9,2.6,46.4-42.3,56.4-59.2
		c16.6-28.1,60.6-16.8,60.6,15.7v125.6H748z"/>
	<g>
		<circle style="fill:#BFD9FF;" cx="506.1" cy="349.8" r="4.1"/>
		<circle style="fill:#BFD9FF;" cx="962.8" cy="589.8" r="4.1"/>
		<circle style="fill:#BFD9FF;" cx="958.7" cy="156" r="4.1"/>
		<circle style="fill:#BFD9FF;" cx="446.3" cy="139.1" r="4.1"/>
		<circle style="fill:#BFD9FF;" cx="113.8" cy="149.6" r="4.1"/>
		<circle style="fill:#BFD9FF;" cx="740.6" cy="690.5" r="3.8"/>
		
			<ellipse transform="matrix(0.8807 -0.4737 0.4737 0.8807 -261.9522 130.3987)" style="fill:#BFD9FF;" cx="127.891" cy="585.225" rx="3.8" ry="3.8"/>
	</g>
	
		<linearGradient id="SVGID_2_" gradientUnits="userSpaceOnUse" x1="397.9" y1="1612.0132" x2="397.9" y2="1035.4836" gradientTransform="matrix(1 0 0 -1 0 1704)">
		<stop  offset="0" style="stop-color:#E5A0C1"/>
		<stop  offset="0.4971" style="stop-color:#F3D1E1"/>
		<stop  offset="0.9958" style="stop-color:#FFFFFF"/>
	</linearGradient>
	<path style="fill:url(#SVGID_2_);" d="M75.7,188.2c0-26.8,37-43.5,51.3-20.8c80.9,128.8,162.3,60.2,200.4,125
		c64,108.9,110.8,81.6,198.5,133.6s58.3,150.4,194.2,170.2l-644.4,3.1L75.7,188.2L75.7,188.2z"/>
	
		<linearGradient id="SVGID_3_" gradientUnits="userSpaceOnUse" x1="238.05" y1="1316.9019" x2="238.05" y2="1123.4116" gradientTransform="matrix(1 0 0 -1 0 1704)">
		<stop  offset="0" style="stop-color:#FFE272"/>
		<stop  offset="0.9958" style="stop-color:#FFFFFF"/>
	</linearGradient>
	<path style="fill:url(#SVGID_3_);" d="M75.7,343.1c46.1,15.9,39.9,69.8,79,101.9s174,13.1,183.1,95.8s62.6,112.9,62.6,112.9
		L75.7,578.1V343.1z"/>
	
		<linearGradient id="SVGID_4_" gradientUnits="userSpaceOnUse" x1="402.6852" y1="1532.7753" x2="402.6852" y2="1175.1694" gradientTransform="matrix(1 0 0 -1 0 1704)">
		<stop  offset="0" style="stop-color:#FFE272"/>
		<stop  offset="0.9958" style="stop-color:#FFFFFF"/>
	</linearGradient>
	<path style="fill:url(#SVGID_4_);" d="M559,582.8c-103.3-21.8-87.9-108-141.1-144c-23.3-15.7-64-17.3-96.1-86.5
		c-14.5-31.3-63.5-20.6-71.6,12.9c-6.9,28.4-6.1,60.3,16.1,87.3c55.4,67.4,65.7,90.2,7.6,133.3L559,582.8z"/>
	
		<linearGradient id="SVGID_5_" gradientUnits="userSpaceOnUse" x1="317.7067" y1="944.4852" x2="317.7067" y2="858.1072" gradientTransform="matrix(0.8703 -0.4925 -0.4925 -0.8703 307.9755 1228.2225)">
		<stop  offset="0" style="stop-color:#FFE272"/>
		<stop  offset="0.9958" style="stop-color:#FFFFFF"/>
	</linearGradient>
	<path style="fill:url(#SVGID_5_);" d="M130.3,304c-4-12.1-1-43.1,18.5-34.2c9.6,4.4,15.5,32.8,21.8,41.7
		C176.7,320.1,141.7,338.6,130.3,304z"/>
	
		<linearGradient id="SVGID_6_" gradientUnits="userSpaceOnUse" x1="551.4805" y1="453.5289" x2="551.4805" y2="391.663" gradientTransform="matrix(0.7893 -0.614 -0.614 -0.7893 321.9193 1120.9705)">
		<stop  offset="0" style="stop-color:#FFE272"/>
		<stop  offset="0.9958" style="stop-color:#FFFFFF"/>
	</linearGradient>
	<path style="fill:url(#SVGID_6_);" d="M495.5,463.2c-4.8-7.6-11-30.5,3.6-26.3c7.1,2.1,17.8,19.3,19.5,26.9
		C520.3,471,509.4,484.9,495.5,463.2z"/>
</g>
<g>
	<rect x="180.7" y="569.7" style="fill:#FFFFFF;" width="314.1" height="26.3"/>
	<path style="fill:#2B2B2B;" d="M494.8,601H180.7c-2.8,0-5-2.2-5-5v-26.3c0-2.8,2.2-5,5-5h314.1c2.8,0,5,2.2,5,5V596
		C499.8,598.8,497.6,601,494.8,601z M185.7,591h304.1v-16.3H185.7V591z"/>
	<rect x="494.9" y="569.7" style="fill:#FFFFFF;" width="314.1" height="26.3"/>
	<path style="fill:#2B2B2B;" d="M809,601H494.9c-2.8,0-5-2.2-5-5v-26.3c0-2.8,2.2-5,5-5H809c2.8,0,5,2.2,5,5V596
		C814,598.8,811.8,601,809,601z M499.9,591H804v-16.3H499.9V591z"/>
	<rect x="709.7" y="569.7" style="fill:#FFFFFF;" width="314.1" height="26.3"/>
	<path style="fill:#2B2B2B;" d="M1023.8,601H709.7c-2.8,0-5-2.2-5-5v-26.3c0-2.8,2.2-5,5-5h314.1c2.8,0,5,2.2,5,5V596
		C1028.8,598.8,1026.6,601,1023.8,601z M714.7,591h304.1v-16.3H714.7V591z"/>
	<rect x="81.1" y="596" style="fill:#FFFFFF;" width="942.7" height="286.7"/>
	<path style="fill:#2B2B2B;" d="M1023.8,887.7H81.1c-2.8,0-5-2.2-5-5V596c0-2.8,2.2-5,5-5h942.7c2.8,0,5,2.2,5,5v286.7
		C1028.8,885.5,1026.6,887.7,1023.8,887.7z M86.1,877.7h932.7V601H86.1V877.7z"/>
	<path style="fill:#2B2B2B;" d="M394.3,882.7H231.4V697.5c0-45,36.5-81.5,81.5-81.5l0,0c45,0,81.5,36.5,81.5,81.5v185.2H394.3z"/>
	<path style="fill:#2B2B2B;" d="M399.4,887.7h-173V697.5c0-47.7,38.8-86.5,86.5-86.5s86.5,38.8,86.5,86.5V887.7z M236.4,877.7h153
		V697.5c0-42.2-34.3-76.5-76.5-76.5s-76.5,34.3-76.5,76.5V877.7z"/>
	<rect x="107.1" y="616.3" style="fill:#FFFFFF;" width="47.6" height="227.5"/>
	<path style="fill:#2B2B2B;" d="M154.7,848.8h-47.6c-2.8,0-5-2.2-5-5V616.3c0-2.8,2.2-5,5-5h47.6c2.8,0,5,2.2,5,5v227.5
		C159.7,846.6,157.5,848.8,154.7,848.8z M112.1,838.8h37.6V621.3h-37.6V838.8z"/>
	<rect x="81.1" y="569.7" style="fill:#FFFFFF;" width="99.6" height="26.3"/>
	<path style="fill:#2B2B2B;" d="M180.7,601H81.1c-2.8,0-5-2.2-5-5v-26.3c0-2.8,2.2-5,5-5h99.6c2.8,0,5,2.2,5,5V596
		C185.7,598.8,183.5,601,180.7,601z M86.1,591h89.6v-16.3H86.1V591z"/>
	<rect x="97.6" y="596" style="fill:#FFFFFF;" width="66.7" height="26.3"/>
	<path style="fill:#2B2B2B;" d="M164.3,627.3H97.6c-2.8,0-5-2.2-5-5V596c0-2.8,2.2-5,5-5h66.7c2.8,0,5,2.2,5,5v26.3
		C169.3,625.1,167.1,627.3,164.3,627.3z M102.6,617.3h56.7V601h-56.7C102.6,601,102.6,617.3,102.6,617.3z"/>
	<rect x="81.1" y="856.4" style="fill:#FFFFFF;" width="99.6" height="26.3"/>
	<path style="fill:#2B2B2B;" d="M180.7,887.7H81.1c-2.8,0-5-2.2-5-5v-26.3c0-2.8,2.2-5,5-5h99.6c2.8,0,5,2.2,5,5v26.3
		C185.7,885.5,183.5,887.7,180.7,887.7z M86.1,877.7h89.6v-16.3H86.1V877.7z"/>
	<rect x="97.6" y="830.1" style="fill:#FFFFFF;" width="66.7" height="26.3"/>
	<path style="fill:#2B2B2B;" d="M164.3,861.4H97.6c-2.8,0-5-2.2-5-5v-26.3c0-2.8,2.2-5,5-5h66.7c2.8,0,5,2.2,5,5v26.3
		C169.3,859.2,167.1,861.4,164.3,861.4z M102.6,851.4h56.7v-16.3h-56.7C102.6,835.1,102.6,851.4,102.6,851.4z"/>
	<rect x="125.9" y="643.7" style="fill:#2B2B2B;" width="10" height="168.6"/>
	<rect x="471.1" y="616.3" style="fill:#FFFFFF;" width="47.6" height="227.5"/>
	<path style="fill:#2B2B2B;" d="M518.7,848.8h-47.6c-2.8,0-5-2.2-5-5V616.3c0-2.8,2.2-5,5-5h47.6c2.8,0,5,2.2,5,5v227.5
		C523.7,846.6,521.5,848.8,518.7,848.8z M476.1,838.8h37.6V621.3h-37.6V838.8z"/>
	<rect x="445.1" y="569.7" style="fill:#FFFFFF;" width="99.6" height="26.3"/>
	<path style="fill:#2B2B2B;" d="M544.7,601h-99.6c-2.8,0-5-2.2-5-5v-26.3c0-2.8,2.2-5,5-5h99.6c2.8,0,5,2.2,5,5V596
		C549.7,598.8,547.5,601,544.7,601z M450.1,591h89.6v-16.3h-89.6V591z"/>
	<rect x="461.5" y="596" style="fill:#FFFFFF;" width="66.7" height="26.3"/>
	<path style="fill:#2B2B2B;" d="M528.2,627.3h-66.7c-2.8,0-5-2.2-5-5V596c0-2.8,2.2-5,5-5h66.7c2.8,0,5,2.2,5,5v26.3
		C533.2,625.1,531,627.3,528.2,627.3z M466.5,617.3h56.7V601h-56.7V617.3z"/>
	<rect x="445.1" y="856.4" style="fill:#FFFFFF;" width="99.6" height="26.3"/>
	<path style="fill:#2B2B2B;" d="M544.7,887.7h-99.6c-2.8,0-5-2.2-5-5v-26.3c0-2.8,2.2-5,5-5h99.6c2.8,0,5,2.2,5,5v26.3
		C549.7,885.5,547.5,887.7,544.7,887.7z M450.1,877.7h89.6v-16.3h-89.6V877.7z"/>
	<rect x="461.5" y="830.1" style="fill:#FFFFFF;" width="66.7" height="26.3"/>
	<path style="fill:#2B2B2B;" d="M528.2,861.4h-66.7c-2.8,0-5-2.2-5-5v-26.3c0-2.8,2.2-5,5-5h66.7c2.8,0,5,2.2,5,5v26.3
		C533.2,859.2,531,861.4,528.2,861.4z M466.5,851.4h56.7v-16.3h-56.7V851.4z"/>
	<rect x="489.9" y="643.7" style="fill:#2B2B2B;" width="10" height="168.6"/>
	<rect x="835" y="616.3" style="fill:#FFFFFF;" width="47.6" height="227.5"/>
	<path style="fill:#2B2B2B;" d="M882.6,848.8H835c-2.8,0-5-2.2-5-5V616.3c0-2.8,2.2-5,5-5h47.6c2.8,0,5,2.2,5,5v227.5
		C887.6,846.6,885.4,848.8,882.6,848.8z M840,838.8h37.6V621.3H840V838.8z"/>
	<rect x="809" y="569.7" style="fill:#FFFFFF;" width="99.6" height="26.3"/>
	<path style="fill:#2B2B2B;" d="M908.6,601H809c-2.8,0-5-2.2-5-5v-26.3c0-2.8,2.2-5,5-5h99.6c2.8,0,5,2.2,5,5V596
		C913.6,598.8,911.4,601,908.6,601z M814,591h89.6v-16.3H814V591z"/>
	<rect x="825.4" y="596" style="fill:#FFFFFF;" width="66.7" height="26.3"/>
	<path style="fill:#2B2B2B;" d="M892.1,627.3h-66.7c-2.8,0-5-2.2-5-5V596c0-2.8,2.2-5,5-5h66.7c2.8,0,5,2.2,5,5v26.3
		C897.1,625.1,894.9,627.3,892.1,627.3z M830.4,617.3h56.7V601h-56.7V617.3z"/>
	<rect x="809" y="856.4" style="fill:#FFFFFF;" width="99.6" height="26.3"/>
	<path style="fill:#2B2B2B;" d="M908.6,887.7H809c-2.8,0-5-2.2-5-5v-26.3c0-2.8,2.2-5,5-5h99.6c2.8,0,5,2.2,5,5v26.3
		C913.6,885.5,911.4,887.7,908.6,887.7z M814,877.7h89.6v-16.3H814V877.7z"/>
	<rect x="825.4" y="830.1" style="fill:#FFFFFF;" width="66.7" height="26.3"/>
	<path style="fill:#2B2B2B;" d="M892.1,861.4h-66.7c-2.8,0-5-2.2-5-5v-26.3c0-2.8,2.2-5,5-5h66.7c2.8,0,5,2.2,5,5v26.3
		C897.1,859.2,894.9,861.4,892.1,861.4z M830.4,851.4h56.7v-16.3h-56.7V851.4z"/>
	<rect x="853.8" y="643.7" style="fill:#2B2B2B;" width="10" height="168.6"/>
	<rect x="207.9" y="856.4" style="fill:#FFFFFF;" width="209.9" height="26.3"/>
	<path style="fill:#2B2B2B;" d="M417.8,887.7H207.9c-2.8,0-5-2.2-5-5v-26.3c0-2.8,2.2-5,5-5h209.9c2.8,0,5,2.2,5,5v26.3
		C422.8,885.5,420.6,887.7,417.8,887.7z M212.9,877.7h199.9v-16.3H212.9V877.7z"/>
	<rect x="231.4" y="830.1" style="fill:#FFFFFF;" width="162.9" height="26.3"/>
	<path style="fill:#2B2B2B;" d="M394.3,861.4H231.4c-2.8,0-5-2.2-5-5v-26.3c0-2.8,2.2-5,5-5h162.9c2.8,0,5,2.2,5,5v26.3
		C399.3,859.2,397.1,861.4,394.3,861.4z M236.4,851.4h152.9v-16.3H236.4V851.4z"/>
	<rect x="571.2" y="629.3" style="fill:#2B2B2B;" width="30" height="10"/>
	<rect x="556.2" y="750.7" style="fill:#2B2B2B;" width="30" height="10"/>
	<rect x="689.8" y="677.2" style="fill:#2B2B2B;" width="30" height="10"/>
	<rect x="602.2" y="682.2" style="fill:#2B2B2B;" width="10" height="15"/>
	<rect x="727.3" y="750.7" style="fill:#2B2B2B;" width="15" height="10"/>
	<rect x="424.8" y="788" style="fill:#2B2B2B;" width="15" height="10"/>
	<rect x="932" y="656" style="fill:#2B2B2B;" width="15" height="10"/>
	<rect x="625.8" y="794.7" style="fill:#2B2B2B;" width="15" height="10"/>
	<rect x="753.6" y="832.8" style="fill:#2B2B2B;" width="10" height="15"/>
	<rect x="961.5" y="762.2" style="fill:#2B2B2B;" width="10" height="15"/>
	<rect x="183.7" y="706.3" style="fill:#2B2B2B;" width="10" height="15"/>
</g>
<rect x="611.3" y="883.9" style="fill:#2B2B2B;" width="403" height="4.1"/>
<g>
	<g>
		<g>
			<path style="fill:#2B2B2B;" d="M639.9,887.1l119.4-0.5c6.2,0,11.3-5,11.5-11.3l0.3-15.1l-75.5,1.1l-57.2,14.3
				C631.8,877.3,633.1,887.1,639.9,887.1z"/>
		</g>
	</g>
	<path style="fill:#FDC068;" d="M673.6,533.6c-3.8,8.4-7.8,16.7-11.8,25l0,0c-6.8,13.8-23.5,19.6-37.4,12.8
		c-11.7-5.8-17.6-18.7-15-31c2.5-11.8,5.3-23.5,8.2-35.2L673.6,533.6z"/>
	
		<linearGradient id="SVGID_7_" gradientUnits="userSpaceOnUse" x1="699.968" y1="1511.7405" x2="699.968" y2="1264.2832" gradientTransform="matrix(1 0 0 -1 0 1704)">
		<stop  offset="0" style="stop-color:#77879D"/>
		<stop  offset="0.0893" style="stop-color:#A1978E"/>
		<stop  offset="0.1883" style="stop-color:#C9A780"/>
		<stop  offset="0.2791" style="stop-color:#E5B275"/>
		<stop  offset="0.3578" style="stop-color:#F7B96F"/>
		<stop  offset="0.4155" style="stop-color:#FDBB6D"/>
		<stop  offset="0.4989" style="stop-color:#FDBB9F"/>
		<stop  offset="0.599" style="stop-color:#D1D2D1"/>
		<stop  offset="1" style="stop-color:#FECEAA"/>
	</linearGradient>
	<path style="fill:url(#SVGID_7_);" d="M617.6,505.3c3.4-13.6,7-27.1,10.7-40.5c6.9-25,14.3-49.9,22.1-74.7l1.4-4.6
		c0.3-0.8,0.5-1.6,0.7-2.3l0.8-2.3l3.4-9.1c2.2-6.1,4.6-12.1,6.9-18.2c4.7-12.1,9.4-24.2,14.3-36.2c4.9-12,9.9-24,15.1-35.9
		c2.6-5.9,5.2-11.9,7.9-17.8l4.1-8.8c1.4-2.9,2.8-5.9,4.2-8.8c9.5-19.1,32.7-26.8,51.8-17.2c17.4,8.7,25.3,28.7,19.4,46.6l0,0
		c-1,3-2.1,6-3.2,9.1l-3.3,9c-2.2,6-4.5,12-6.8,17.9c-4.7,11.9-9.5,23.7-14.5,35.5c-4.9,11.8-10.1,23.5-15.2,35.2
		c-2.6,5.8-5.2,11.7-7.9,17.5l-4,8.7l-1,2.2c-0.3,0.7-0.6,1.5-0.9,2.2l-1.7,4.5c-9.1,23.9-18.6,47.6-28.6,71.2
		c-6.4,15.1-13,30.3-19.8,45.3L617.6,505.3z"/>
	<polygon style="fill:#2B2B2B;" points="693.1,348.8 651.3,522 673.6,533.6 703.6,399.2 	"/>
	<g>
		
			<rect x="643.384" y="488.691" transform="matrix(0.4525 -0.8918 0.8918 0.4525 -109.8286 859.2996)" style="fill:#2B2B2B;" width="3" height="60.802"/>
	</g>
	
		<linearGradient id="SVGID_8_" gradientUnits="userSpaceOnUse" x1="765.95" y1="1516" x2="765.95" y2="1235.9929" gradientTransform="matrix(1 0 0 -1 0 1704)">
		<stop  offset="0" style="stop-color:#77879D"/>
		<stop  offset="0.0893" style="stop-color:#A1978E"/>
		<stop  offset="0.1883" style="stop-color:#C9A780"/>
		<stop  offset="0.2791" style="stop-color:#E5B275"/>
		<stop  offset="0.3578" style="stop-color:#F7B96F"/>
		<stop  offset="0.4155" style="stop-color:#FDBB6D"/>
		<stop  offset="0.4989" style="stop-color:#FDBB9F"/>
		<stop  offset="0.599" style="stop-color:#D1D2D1"/>
		<stop  offset="1" style="stop-color:#FECEAA"/>
	</linearGradient>
	<path style="fill:url(#SVGID_8_);" d="M693.5,342.2c3.4-38.8,29.9-34.7,22-61.7s7.1-62.5,36.9-59.9c23,2,24.7,1.2,34.3,2.1
		c30.6,2.7,47.5,51.3,51.7,129.8L693.5,342.2z"/>
	
		<linearGradient id="SVGID_9_" gradientUnits="userSpaceOnUse" x1="735.9" y1="817.9867" x2="735.9" y2="1357.2544" gradientTransform="matrix(1 0 0 -1 0 1704)">
		<stop  offset="0" style="stop-color:#9774AC"/>
		<stop  offset="0.401" style="stop-color:#47A6D3"/>
		<stop  offset="0.5011" style="stop-color:#A7A7AE"/>
		<stop  offset="0.5908" style="stop-color:#E89AC0"/>
		<stop  offset="1" style="stop-color:#BFE7D1"/>
	</linearGradient>
	<path style="fill:url(#SVGID_9_);" d="M803.2,376.9l-25.7,225l0.3-4.9l-6.7,266.3l-74.7-1.9c-4.4-22.3-7.4-44.6-10.5-66.9
		c-3-22.3-5.4-44.6-7.7-66.8c-1-11.1-2.2-22.3-3-33.4l-1.4-16.7l-1.2-16.7c-1.6-22.3-2.9-44.5-4-66.7l0.3-4.8
		c0.7-18.9,1.8-37.8,3-56.6C673.3,514,694,342.3,694,342.3L803.2,376.9z"/>
	
		<linearGradient id="SVGID_10_" gradientUnits="userSpaceOnUse" x1="863.8" y1="818" x2="863.8" y2="1356.9508" gradientTransform="matrix(1 0 0 -1 0 1704)">
		<stop  offset="0" style="stop-color:#9774AC"/>
		<stop  offset="0.401" style="stop-color:#47A6D3"/>
		<stop  offset="0.5011" style="stop-color:#A7A7AE"/>
		<stop  offset="0.5908" style="stop-color:#E89AC0"/>
		<stop  offset="1" style="stop-color:#BFE7D1"/>
	</linearGradient>
	<path style="fill:url(#SVGID_10_);" d="M838.3,352.6L882,483.4l17.3,61.8l8.6,30.9l4.3,15.4l2.2,7.7c0.7,2.6,1.6,5.1,2.4,7.6
		l69.3,210.8l-70.7,26.3c-2.9-4.7-40.7-66.7-50-86.4c-18.6-39.3-36-79.1-52.6-119.2c-1-2.5-2.1-5-3.1-7.5l-2.7-7.6l-5.3-15.3
		c-1.7-5.1-3.6-10.2-5.2-15.3l-5.1-15.4l-2.5-7.7l-2.4-7.7l-4.9-15.4l-4.7-15.5l-2.3-7.8l-2.3-7.8c-6.1-20.7-11.8-41.6-17-62.5
		c-1.3-5.2-2.5-10.5-3.8-15.8c-1.2-5.3-2.5-10.5-3.6-15.8l-3.4-15.9l-1.5-8l-0.8-4l-0.7-4L838.3,352.6z"/>
	
		<linearGradient id="SVGID_11_" gradientUnits="userSpaceOnUse" x1="765.9409" y1="818" x2="765.9409" y2="1356.9508" gradientTransform="matrix(1 0 0 -1 0 1704)">
		<stop  offset="0" style="stop-color:#9774AC"/>
		<stop  offset="0.401" style="stop-color:#47A6D3"/>
		<stop  offset="0.5011" style="stop-color:#A7A7AE"/>
		<stop  offset="0.5908" style="stop-color:#E89AC0"/>
		<stop  offset="1" style="stop-color:#BFE7D1"/>
	</linearGradient>
	<path style="fill:url(#SVGID_11_);" d="M838.3,352.6c-1.8,20.5-25.9,49.3-61.7,46.4l-28.7-3.2c-32.6-2.6-56.2-33.9-54.2-56
		L838.3,352.6z"/>
	<g>
		<path style="fill:#2B2B2B;" d="M747.3,220.5c0,0-13.6,0.3-20.4,9.3l22.9,12.8L747.3,220.5z"/>
		<path style="fill:#FDC068;" d="M761.5,245l35-11.5l-15.6-52.4l-43-1.5l7.9,53C745.1,241.1,753.3,247.6,761.5,245z"/>
		<polygon style="fill:#2B2B2B;" points="742.4,209.5 763.2,202.4 745.8,232.5 		"/>
	</g>
	
		<linearGradient id="SVGID_12_" gradientUnits="userSpaceOnUse" x1="867.4204" y1="1500.0574" x2="867.4204" y2="1262.2866" gradientTransform="matrix(1 0 0 -1 0 1704)">
		<stop  offset="0" style="stop-color:#77879D"/>
		<stop  offset="0.0893" style="stop-color:#A1978E"/>
		<stop  offset="0.1883" style="stop-color:#C9A780"/>
		<stop  offset="0.2791" style="stop-color:#E5B275"/>
		<stop  offset="0.3578" style="stop-color:#F7B96F"/>
		<stop  offset="0.4155" style="stop-color:#FDBB6D"/>
		<stop  offset="0.4989" style="stop-color:#FDBB9F"/>
		<stop  offset="0.599" style="stop-color:#D1D2D1"/>
		<stop  offset="1" style="stop-color:#FECEAA"/>
	</linearGradient>
	<path style="fill:url(#SVGID_12_);" d="M820.4,135.6l129.7,81.1c15.9,13.1,18.2,36.5,5.1,52.4c-5.5,6.6-12.7,10.9-20.5,12.7
		l-2.4,0.5l-114.1,26c-20.7,4.7-41.4-8.3-46.1-29c-4.7-20.7,8.3-41.4,29-46.1l114.1-26L897.4,273L785,182.1L820.4,135.6z"/>
	<path style="fill:#FDC068;" d="M785,182.1L769.8,171c-12.4-9-15.1-26.4-6.1-38.8c8.3-11.4,23.7-14.6,35.8-8l21,11.5L785,182.1z"/>
	<g>
		<g>
			<path style="fill:#2B2B2B;" d="M871.6,887.1l112.3-40.5c5.9-2.1,9-8.5,7-14.5l-4.8-14.3l-70.7,26.3l-49,32.7
				C860.7,880.6,865.1,889.4,871.6,887.1z"/>
		</g>
	</g>
	<g>
		<path style="fill:#2B2B2B;" d="M872.9,254.6c-0.3,0-0.7-0.1-0.9-0.3l-34.6-27.9c-0.6-0.5-0.7-1.5-0.2-2.1s1.5-0.7,2.1-0.2
			l34.6,27.9c0.6,0.5,0.7,1.5,0.2,2.1C873.8,254.4,873.3,254.6,872.9,254.6z"/>
	</g>
	<path style="fill:#2B2B2B;" d="M833.7,304.9l-21.5,4.5l26.1,43.2C838.3,352.6,837.5,326.7,833.7,304.9z"/>
	<g>
		<path style="fill:#2B2B2B;" d="M693.7,341.4C693.7,341.4,693.6,341.4,693.7,341.4c-0.9-0.1-1.6-0.8-1.5-1.6
			c0.7-11.1,19.2-46.3,20-47.8c0.4-0.7,1.3-1,2-0.6s1,1.3,0.6,2c-0.2,0.4-19,36.1-19.6,46.6C695.1,340.8,694.5,341.4,693.7,341.4z"
			/>
	</g>
	<g>
		<path style="fill:#2B2B2B;" d="M782.5,550.8c-0.6,0-1.2-0.4-1.4-1.1l-18.5-63.2c-0.2-0.8,0.2-1.6,1-1.9c0.8-0.2,1.6,0.2,1.9,1
			l18.5,63.2c0.2,0.8-0.2,1.6-1,1.9C782.8,550.8,782.6,550.8,782.5,550.8z"/>
	</g>
	<g>
		<path style="fill:#2B2B2B;" d="M912.3,629.1c-0.8,0-1.5-0.7-1.5-1.5v-36.1c0-0.8,0.7-1.5,1.5-1.5s1.5,0.7,1.5,1.5v36.1
			C913.8,628.4,913.1,629.1,912.3,629.1z"/>
	</g>
	<g>
		<path style="fill:#2B2B2B;" d="M776.1,646.5c-0.4,0-0.9-0.2-1.2-0.5l-9.8-11.7c-0.5-0.6-0.4-1.6,0.2-2.1c0.6-0.5,1.6-0.4,2.1,0.2
			l9.8,11.7c0.5,0.6,0.4,1.6-0.2,2.1C776.8,646.4,776.4,646.5,776.1,646.5z"/>
	</g>
	<g>
		
			<rect x="773.483" y="157.429" transform="matrix(0.6058 -0.7956 0.7956 0.6058 189.9657 701.2715)" style="fill:#2B2B2B;" width="58.399" height="3"/>
	</g>
	<g>
		<g>
			<g>
				<path id="SVGID_303_" style="fill:#FDC068;" d="M737.5,216.1l25.4-9.1c13.1-4.7,20-19.2,15.3-32.3l-13.7-38.3
					c-7.5-21-30.7-32-51.7-24.4l0,0c-21,7.5-32,30.7-24.4,51.7l12.6,35.1C706.2,213.7,722.6,221.5,737.5,216.1z"/>
			</g>
			<g>
				<g>
					<path style="fill:#2B2B2B;" d="M696,175c0,1.6-0.9,3.1-2.2,3.9l-3-8.4c0.2,0,0.4,0,0.6,0C693.9,170.4,696,172.5,696,175z"/>
				</g>
			</g>
		</g>
		<g>
			<path style="fill:#2B2B2B;" d="M706.2,184.7c-0.1,0-0.2,0-0.3,0l-4.5-0.9c-1.2-0.4-2.2-1.3-2.7-2.4c-0.6-1.1-0.6-2.4-0.2-3.6
				l3.1-8.4c0.3-0.8,1.1-1.2,1.9-0.9c0.8,0.3,1.2,1.1,0.9,1.9l-3.1,8.4c-0.1,0.4-0.1,0.9,0.1,1.3c0.2,0.4,0.5,0.7,0.9,0.8l4.2,0.8
				c0.8,0.2,1.4,0.9,1.2,1.7C707.5,184.2,706.9,184.7,706.2,184.7z"/>
		</g>
		<g>
			<path style="fill:#2B2B2B;" d="M710.6,206c-0.2,0-0.5-0.1-0.7-0.2c-0.7-0.4-1-1.3-0.6-2c1.5-2.7,6.1-7.1,13.1-4
				c0.8,0.3,1.1,1.2,0.8,2s-1.2,1.1-2,0.8c-6.2-2.8-9.1,2.4-9.3,2.6C711.6,205.7,711.1,206,710.6,206z"/>
		</g>
		<circle style="fill:#2B2B2B;" cx="716.2" cy="166.4" r="4.6"/>
		<g>
			<path style="fill:#2B2B2B;" d="M716.8,155.2c-0.1,0-0.2,0-0.3,0l-11.5-2.1c-0.8-0.1-1.4-0.9-1.2-1.7c0.1-0.8,0.9-1.4,1.7-1.2
				l11.5,2.1c0.8,0.1,1.4,0.9,1.2,1.7C718.1,154.7,717.5,155.2,716.8,155.2z"/>
		</g>
		<g>
			<path style="fill:#2B2B2B;" d="M682.6,168c-0.3,0-0.6-0.1-0.9-0.3c-0.7-0.5-0.8-1.4-0.3-2.1l6.1-8.3c0.5-0.7,1.4-0.8,2.1-0.3
				c0.7,0.5,0.8,1.4,0.3,2.1l-6.1,8.3C683.5,167.8,683.1,168,682.6,168z"/>
		</g>
		<path style="fill:#565656;" d="M686.4,143.9c0,10.5,20.5,0.2,31.4-9.6c2.6-2.4,6.8-1.5,8.3,1.6l8.8,18.1c1.6,3.2,4.8,5.4,8.4,5.6
			l8.8,0.6l10.6,16.3c4.2,6.5,12.5,9.2,19.8,6.3l0,0c0,0-13.6-35.7-19.6-51s-25.9-28.2-50.1-20S686.4,143.9,686.4,143.9z"/>
		<path style="fill:#FDC068;" d="M754.7,167.6L754.7,167.6c-3.6,1.3-7.5-0.5-8.8-4.1l-3.4-9.3c-1.3-3.6,0.5-7.5,4.1-8.8l0,0
			c3.6-1.3,7.5,0.5,8.8,4.1l3.4,9.3C760.1,162.4,758.3,166.3,754.7,167.6z"/>
	</g>
</g>
<linearGradient id="SVGID_13_" gradientUnits="userSpaceOnUse" x1="378.6398" y1="1276.9115" x2="378.6398" y2="1089.8391" gradientTransform="matrix(0.9296 -0.3685 -0.3685 -0.9296 284.8777 1381.4471)">
	<stop  offset="0" style="stop-color:#FFE272"/>
	<stop  offset="0.9958" style="stop-color:#FFFFFF"/>
</linearGradient>
<path style="fill:url(#SVGID_13_);" d="M232,217.6c-26.3-11.5-49.4-34.2-54.1-63.5c-3-18.9,7.3-64.5,34.6-47.2
	c13.4,8.5,10,31.4,17.6,46C237.6,166.9,274.5,236.2,232,217.6z"/>
<g>
	<path style="fill:#F9D5FF;" d="M411.3,273.2c-18.1-3.9-31.9-22.2-45.2-39.8c-12.3-16.2-25-33-39.8-36.7l2.4-9.7
		c18.3,4.5,32.1,22.7,45.4,40.3c12.2,16.2,24.9,32.9,39.4,36L411.3,273.2z"/>
</g>
<g>
	<path style="fill:#F9D5FF;" d="M597.6,346.3c-20.8-6.8-37.9-30.1-53.7-53.5l8.3-5.6c14.1,20.9,30.7,43.7,48.5,49.5L597.6,346.3z"/>
</g>
</svg>
