<?xml version="1.0" encoding="iso-8859-1"?>
<!-- Generator: Adobe Illustrator 23.0.2, SVG Export Plug-In . SVG Version: 6.00 Build 0)  -->
<svg version="1.1" id="Layer_1" xmlns="http://www.w3.org/2000/svg" xmlns:xlink="http://www.w3.org/1999/xlink" x="0px" y="0px"
	 viewBox="0 0 1105.6 1080" style="enable-background:new 0 0 1105.6 1080;" xml:space="preserve">
<rect x="377.8" y="882.8" style="fill:#2B2B2B;" width="639" height="4.2"/>
<g style="opacity:0.3;">
	<g>
		<path style="fill:#C4ECFE;" d="M1026.7,80.7V885H78.8V80.7H1026.7 M1029.8,77.6H75.7v810.5h954.1L1029.8,77.6L1029.8,77.6z"/>
	</g>
	<g>
		<g>
			<rect x="75.7" y="652.2" style="fill:#C4ECFE;" width="954.1" height="2.9"/>
		</g>
		<g>
			<rect x="75.7" y="536.1" style="fill:#C4ECFE;" width="954.1" height="2.9"/>
		</g>
		<g>
			<rect x="75.7" y="652.2" style="fill:#C4ECFE;" width="954.1" height="2.9"/>
		</g>
		<g>
			<rect x="75.7" y="768.2" style="fill:#C4ECFE;" width="954.1" height="2.9"/>
		</g>
		<g>
			<rect x="75.7" y="420.1" style="fill:#C4ECFE;" width="954.1" height="2.9"/>
		</g>
		<g>
			<rect x="75.7" y="304" style="fill:#C4ECFE;" width="954.1" height="2.9"/>
		</g>
		<g>
			<rect x="75.7" y="188" style="fill:#C4ECFE;" width="954.1" height="2.9"/>
		</g>
	</g>
</g>
<g>
	<g>
		<polygon style="fill:#FFFFFF;" points="944.4,537.6 652.4,537.6 737.8,305.5 1029.8,305.5 		"/>
		<path style="fill:#F9D5FF;" d="M944.4,542.6h-292c-1.6,0-3.2-0.8-4.1-2.1c-0.9-1.3-1.2-3.1-0.6-4.6l85.4-232.1
			c0.7-2,2.6-3.3,4.7-3.3h292c1.6,0,3.2,0.8,4.1,2.1c0.9,1.3,1.2,3.1,0.6,4.6l-85.4,232.1C948.4,541.3,946.5,542.6,944.4,542.6z
			 M659.6,532.6h281.3l81.7-222.1H741.3L659.6,532.6z"/>
	</g>
	<g>
		<path style="fill:#F9D5FF;" d="M846.8,542.6h-311c-2.8,0-5-2.2-5-5s2.2-5,5-5h311c2.8,0,5,2.2,5,5S849.6,542.6,846.8,542.6z"/>
	</g>
	<g>
		<path style="fill:#F9D5FF;" d="M998.5,887.8c-2.4,0-4.5-1.8-4.9-4.2l-54.1-345.2c-0.4-2.7,1.4-5.3,4.2-5.7
			c2.7-0.4,5.3,1.4,5.7,4.2l54.1,345.2c0.4,2.7-1.4,5.3-4.2,5.7C999,887.8,998.8,887.8,998.5,887.8z"/>
	</g>
	<g>
		<path style="fill:#F9D5FF;" d="M749.2,887.8c-0.3,0-0.5,0-0.8-0.1c-2.7-0.4-4.6-3-4.2-5.7l54.1-345.2c0.4-2.7,3-4.6,5.7-4.2
			c2.7,0.4,4.6,3,4.2,5.7l-54.1,345.2C753.8,886,751.6,887.8,749.2,887.8z"/>
	</g>
	<g>
		<path style="fill:#F9D5FF;" d="M731.8,887.8c-2.4,0-4.5-1.8-4.9-4.2l-54.1-345.2c-0.4-2.7,1.4-5.3,4.2-5.7
			c2.7-0.4,5.3,1.4,5.7,4.2l54,345.1c0.4,2.7-1.4,5.3-4.2,5.7C732.3,887.8,732.1,887.8,731.8,887.8z"/>
	</g>
	<g>
		<path style="fill:#F9D5FF;" d="M482.5,887.8c-0.3,0-0.5,0-0.8-0.1c-2.7-0.4-4.6-3-4.2-5.7l54.1-345.2c0.4-2.7,3-4.6,5.7-4.2
			c2.7,0.4,4.6,3,4.2,5.7l-54.1,345.2C487.1,886,484.9,887.8,482.5,887.8z"/>
	</g>
</g>
<g>
	<g>
		<path style="fill:#CAE6C4;" d="M182.4,421.3c-5.4,0-10.1-4.1-10.8-9.6c-8.2-67.2-60.7-102.9-61.2-103.3c-5-3.3-6.4-10.1-3-15.1
			c3.3-5,10.1-6.4,15.1-3c2.5,1.7,61.4,41.8,70.8,118.7c0.7,6-3.5,11.4-9.5,12.1C183.3,421.3,182.8,421.3,182.4,421.3z"/>
	</g>
	<g>
		<path style="fill:#CAE6C4;" d="M195.3,440.9c-0.4,0-0.9,0-1.3-0.1c-6-0.7-10.2-6.2-9.5-12.2c5.1-41.3,25.2-65,41.2-77.7
			c17.5-13.8,34-17.7,34.7-17.8c5.9-1.3,11.7,2.3,13,8.2c1.3,5.9-2.3,11.7-8.2,13c-2.2,0.5-51.3,13-59.1,76.9
			C205.4,436.9,200.7,440.9,195.3,440.9z"/>
	</g>
	<g>
		<path style="fill:#CAE6C4;" d="M195,425.8c-6,0-10.9-4.9-10.9-10.9c0-119-15.5-188.8-24.7-219.8c-1.7-5.8,1.6-11.8,7.3-13.6
			c5.8-1.7,11.8,1.6,13.6,7.3c9.6,32.1,25.7,104.3,25.7,226C205.9,420.9,201,425.8,195,425.8z"/>
	</g>
	<g>
		<path style="fill:#F9D5FF;" d="M172.4,211.9c-4.7,0-9.1-3.1-10.5-7.8c-5.9-20.1-13.2-39.7-13.3-39.9c-2.1-5.6,0.8-11.9,6.4-14
			c5.6-2.1,11.9,0.8,14,6.4c0.3,0.8,7.6,20.5,13.7,41.3c1.7,5.8-1.6,11.8-7.4,13.5C174.5,211.8,173.4,211.9,172.4,211.9z"/>
	</g>
	<g>
		<path style="fill:#CAE6C4;" d="M211.6,417.6c-0.1,0-0.2,0-0.4,0c-6-0.2-10.7-5.2-10.5-11.2c1.7-51.2,12-100.2,30.8-145.6
			c15.4-37.3,36.4-71.5,60.7-98.8c4-4.5,10.9-4.9,15.4-0.9s4.9,10.9,0.9,15.4c-24.5,27.6-81.9,105.3-86,230.6
			C222.3,412.9,217.5,417.6,211.6,417.6z"/>
	</g>
	<g>
		<g>
			<path style="fill:#F9D5FF;" d="M300.3,180c-2.6,0-5.2-0.9-7.2-2.7c-4.5-4-4.9-10.9-0.9-15.4c15.9-17.9,32-33.7,47.9-46.9
				c4.6-3.9,11.5-3.2,15.4,1.4s3.2,11.5-1.4,15.4c-15.1,12.6-30.4,27.6-45.5,44.7C306.3,178.8,303.3,180,300.3,180z"/>
		</g>
		<g>
			<path style="fill:#F9D5FF;" d="M300.3,180.1c-1.7,0-3.4-0.4-5-1.2c-5.4-2.8-7.5-9.3-4.7-14.7c15.6-30.4,2.4-45.5,1.8-46.1
				l0.1,0.1l15.5-15.3c1,1.1,25.1,26.2,1.9,71.2C308.1,177.9,304.2,180.1,300.3,180.1z"/>
		</g>
		<g>
			<path style="fill:#F9D5FF;" d="M300.3,180.1c-4,0-7.8-2.2-9.7-5.9c-2.8-5.4-0.6-11.9,4.7-14.7c45-23.1,70.2,0.9,71.2,1.9
				L351.2,177l0.1,0.1c-0.6-0.6-15.8-13.8-46.1,1.8C303.7,179.7,302,180.1,300.3,180.1z"/>
		</g>
	</g>
	<g>
		<path style="fill:#F9D5FF;" d="M172.4,211.9c-0.1,0-0.1,0-0.2,0c-6-0.1-10.8-5-10.7-11.1c0.5-31.7,21.9-52,22.8-52.8
			c4.4-4.1,11.3-3.9,15.4,0.5c4.1,4.4,3.9,11.3-0.5,15.4c-0.3,0.3-15.5,15.2-15.9,37.2C183.2,207.1,178.3,211.9,172.4,211.9z"/>
	</g>
	<g>
		<path style="fill:#CAE6C4;" d="M236.3,289.2c-2.5,0-5-0.9-7-2.6c-4.6-3.9-5.2-10.8-1.3-15.4c13.1-15.4,34.4-33.7,61.7-32.9
			c6,0.2,10.8,5.2,10.6,11.2s-5.2,10.8-11.2,10.6c-14.9-0.4-29.9,8.1-44.5,25.3C242.5,287.9,239.4,289.2,236.3,289.2z"/>
	</g>
	<g>
		<path style="fill:#CAE6C4;" d="M185.1,274.7c-5,0-9.6-3.5-10.6-8.6c-2.5-11.6-16.4-13.7-17-13.8c-6-0.7-10.2-6.2-9.4-12.1
			c0.7-6,6.2-10.2,12.2-9.5c11,1.4,30.9,9.4,35.5,30.8c1.3,5.9-2.5,11.7-8.4,12.9C186.6,274.6,185.8,274.7,185.1,274.7z"/>
	</g>
	<path style="fill:#F9D5FF;" d="M256.3,479.8c-7.1-5.1-11.5-13-12.2-21.7c-0.7-8.9,2.5-17.7,8.8-24l24-24c1.3-1.2,1.6-3.1,0.9-4.8
		s-2.3-2.7-4-2.7H117c-1.8,0-3.4,1.1-4,2.7s-0.3,3.5,0.9,4.8l24,24c6.3,6.3,9.5,15,8.8,23.9c-0.7,8.8-5.2,16.8-12.3,22
		c-27.3,19.7-43.6,51.5-43.5,85.1c0.1,27,10.5,52.7,29.3,72.3c18.9,19.6,44.2,31,71.2,32c1.4,0.1,2.8,0.1,4.2,0.1
		c27.2,0,52.7-10.3,72.4-29.2c20.7-19.9,32.1-46.7,32.1-75.3C300,531.2,283.6,499.4,256.3,479.8z"/>
</g>
<g>
	
		<linearGradient id="SVGID_1_" gradientUnits="userSpaceOnUse" x1="746.0936" y1="842.1312" x2="746.0936" y2="1203.1243" gradientTransform="matrix(1 0 0 -1 0 1392)">
		<stop  offset="0" style="stop-color:#F89D9A"/>
		<stop  offset="0.2628" style="stop-color:#F5943B"/>
		<stop  offset="0.4989" style="stop-color:#F05052"/>
		<stop  offset="0.758" style="stop-color:#ECE674"/>
		<stop  offset="1" style="stop-color:#E1EEC3"/>
	</linearGradient>
	<path style="fill:url(#SVGID_1_);" d="M862.8,367.1L689.3,481l-3.4,2.2c-24.1,15.9-56.6,9.1-72.4-15c-7.6-11.6-10-25.3-7.8-37.9
		L641.1,233c3.8-21.2,24.1-35.4,45.4-31.6c19.3,3.5,32.7,20.5,32.2,39.5l-5.2,200.4L630,390.6l173.5-113.9
		c25-16.4,58.5-9.4,74.9,15.5C894.8,317.2,887.8,350.7,862.8,367.1z"/>
	<path style="fill:#2B2B2B;" d="M871.4,536l-6.2,0.6l-6.2,0.5l-12.4,0.9l-12.4,0.8l-12.4,0.7c-8.2,0.5-16.5,0.7-24.7,1.1l-24.7,0.8
		c-33,0.9-65.9,1.1-98.9,0.8c-8.2-0.1-16.5-0.1-24.7-0.3l-24.7-0.5c-8.2-0.1-16.5-0.5-24.7-0.7c-8.2-0.3-16.5-0.5-24.7-0.8l-24.7-1
		c-8.2-0.3-16.5-0.7-24.7-1.1l-24.7-1.3l-12.4-0.7l-12.4-0.8l39.2-10.8l-19.8,9.7l-9.9,4.9l-10,4.8c-13.3,6.3-26.6,12.8-40,18.9
		l-20.1,9.3l-20.2,9.1c-13.4,6.1-27.1,12-40.6,17.9c-27.2,11.7-54.7,23.1-82.4,33.9c-7,2.7-13.9,5.4-20.9,8s-14,5.3-21,7.8
		c-7.1,2.5-14.1,5.1-21.2,7.6l-10.7,3.6l-5.3,1.8l-5.4,1.7l-54-90.2l302.7-180.8c12.3-7.4,26.2-10.9,39.7-10.9l326.3,21.3L871.4,536
		z"/>
	
		<linearGradient id="SVGID_2_" gradientUnits="userSpaceOnUse" x1="878.1695" y1="842.1312" x2="878.1695" y2="1203.1243" gradientTransform="matrix(1 0 0 -1 0 1392)">
		<stop  offset="0" style="stop-color:#F89D9A"/>
		<stop  offset="0.2628" style="stop-color:#F5943B"/>
		<stop  offset="0.4989" style="stop-color:#F05052"/>
		<stop  offset="0.758" style="stop-color:#ECE674"/>
		<stop  offset="1" style="stop-color:#E1EEC3"/>
	</linearGradient>
	<path style="fill:url(#SVGID_2_);" d="M798.2,424.8c0,0,3.8-9.4,4-22.1c0.3-12.7-30.1-32.7-28.5-71.2c1.3-29.6,34.1-72.6,85.7-70.8
		l41.5,2.8c45.3,1.6,80.4,42,81.6,73.5h0.2c0,0.9-0.1,1.8-0.1,2.6c0,0.3,0,0.5,0,0.8h-0.1c-3.8,52.4-40.3,49.2-27.4,86.7
		L798.2,424.8z"/>
	<path style="fill:#2B2B2B;" d="M957.9,467c-11.7,39.9-44.9,69.8-85.8,77.3c-41,7.4-87.8,15.8-99.7,17.6c-5.6,0.8-11.1,1.6-16.7,2.3
		l-16.7,2.1c-5.6,0.7-11.1,1.3-16.7,1.9c-5.6,0.6-11.2,1.3-16.7,1.8l-16.8,1.6c-5.6,0.5-11.2,1.1-16.8,1.5l-16.8,1.3
		c-2.8,0.2-5.6,0.5-8.4,0.6l-8.4,0.5l64.3-83l0.4,22.9l0.2,11.5l0.1,11.5c0.1,15.3,0.3,30.6,0.2,45.9l-0.1,23l-0.3,23
		c-0.1,15.3-0.6,30.7-1,46c-0.9,30.7-2.2,61.4-4.2,92.2c-1,15.4-2.1,30.8-3.4,46.3c-0.6,7.7-1.4,15.4-2.1,23.2l-1.3,11.6l-0.6,5.8
		l-0.7,5.8l-104.5,10.3l-35.7-363.8c-4-41,24.9-77.6,65.1-84l187.6-21l152.9,24.4L957.9,467L957.9,467z"/>
	<path style="fill:#2B2B2B;" d="M955.1,427.1c13.2,38.2-6.1,90.4-49.1,88.5c-33.2-1.4-35.5-0.2-49.5-0.8
		c-44.2-1.9-72.8-48.2-58.3-90L955.1,427.1z"/>
	<g>
		<g>
			<g>
				<path id="SVGID_29_" style="fill:#FDC068;" d="M835.5,226.5l37.9,1.3c19.6,0.7,36.1-14.6,36.7-34.2l2-57.1
					c1.1-31.4-23.4-57.7-54.8-58.8l0,0c-31.4-1.1-57.7,23.4-58.8,54.8l-1.8,52.4C795.9,207.1,813.2,225.7,835.5,226.5z"/>
			</g>
			<g>
				<path style="fill:#2B2B2B;" d="M803,148.9c0,3.1-2.3,5.8-5.3,6.3l0.4-12.5C800.9,143.4,803,145.9,803,148.9z"/>
			</g>
		</g>
		<path style="fill:#2B2B2B;" d="M843.1,284.5L821,268.3c0,0,17.9-7.9,31.4-7.6L843.1,284.5z"/>
		<path style="fill:#FDC068;" d="M863,292.3l49.3-16.2L911,167.9l-60.4-2.1l-9.5,109C840,286.9,851.5,296.1,863,292.3z"/>
		<g>
			<path style="fill:#2B2B2B;" d="M794.4,162.5c-11.1,0-19.7-6-19.7-13.6s8.7-13.6,19.7-13.6c11.1,0,19.7,6,19.7,13.6
				C814.1,156.5,805.5,162.5,794.4,162.5z M794.4,138.9c-8.7,0-16.1,4.6-16.1,10s7.4,10,16.1,10c8.7,0,16.1-4.6,16.1-10
				S803.1,138.9,794.4,138.9z"/>
		</g>
		<g>
			<path style="fill:#2B2B2B;" d="M835.2,162.5c-11.1,0-19.7-6-19.7-13.6s8.7-13.6,19.7-13.6c11.1,0,19.7,6,19.7,13.6
				S846.3,162.5,835.2,162.5z M835.2,138.9c-8.7,0-16.1,4.6-16.1,10s7.4,10,16.1,10c8.7,0,16.1-4.6,16.1-10S843.9,138.9,835.2,138.9
				z"/>
		</g>
		<g>
			<path style="fill:#FDC068;" d="M814.4,148.2l-8.4,9.3c-1.7,1.9-1.5,4.7,0.5,6.3l5.1,3.3"/>
			<path style="fill:#2B2B2B;" d="M811.6,168.9c-0.3,0-0.7-0.1-1-0.3l-5.2-3.4c-1.4-1.1-2.2-2.6-2.3-4.3s0.4-3.4,1.6-4.7l8.4-9.3
				c0.7-0.8,1.8-0.8,2.6-0.1s0.8,1.8,0.1,2.6l-8.4,9.3c-0.5,0.5-0.7,1.2-0.7,1.9c0.1,0.6,0.4,1.2,0.9,1.7l5,3.2
				c0.9,0.6,1.1,1.7,0.5,2.5C812.8,168.6,812.2,168.9,811.6,168.9z"/>
		</g>
		<g>
			<path style="fill:#2B2B2B;" d="M812.8,194.3c-0.6,0-1.3-0.1-1.9-0.2c-5.1-1-7.7-5.7-7.8-5.9c-0.5-0.9-0.1-2,0.8-2.5
				c0.9-0.5,2-0.1,2.5,0.7c0,0.1,1.9,3.4,5.3,4.1c2.4,0.5,5.2-0.6,8.2-3.1c0.8-0.7,1.9-0.6,2.6,0.2c0.7,0.8,0.6,1.9-0.2,2.6
				C819,192.9,815.8,194.3,812.8,194.3z"/>
		</g>
		<polygon style="fill:#2B2B2B;" points="845.2,226.9 869.9,227.7 843.1,251.2 		"/>
		<circle style="fill:#2B2B2B;" cx="833.5" cy="150.4" r="6.4"/>
		<g>
			<path style="fill:#2B2B2B;" d="M817.3,147.4h-4.4c-1,0-1.8-0.8-1.8-1.8s0.8-1.8,1.8-1.8h4.4c1,0,1.8,0.8,1.8,1.8
				S818.3,147.4,817.3,147.4z"/>
		</g>
		<g>
			<path style="fill:#2B2B2B;" d="M881.2,145.8h-28.8c-1,0-1.8-0.8-1.8-1.8s0.8-1.8,1.8-1.8h28.8c1,0,1.8,0.8,1.8,1.8
				S882.2,145.8,881.2,145.8z"/>
		</g>
	</g>
	<g>
		<g>
			<g>
				<path style="fill:#9F70A7;" d="M76.5,510.9L146,663.7c3.6,8,13,11.6,21.1,8.2l19.5-8.3l-44.9-96.1l-51.4-65
					C84.4,494.9,72.5,502.1,76.5,510.9z"/>
			</g>
		</g>
	</g>
	<g>
		<g>
			<g>
				<path style="fill:#9F70A7;" d="M508.2,887l167.9-0.3c8.8,0,15.9-7,16.1-15.8l0.5-21.2L586.6,851l-80.4,20
					C496.8,873.2,498.5,887,508.2,887z"/>
			</g>
		</g>
	</g>
	<path style="fill:#9F70A7;" d="M869.1,77.6h-24.8c-24.5,0-44.4,19.9-44.4,44.4l0,0l17.5-25.2l15,19.2c2.9,3.8,7.4,6,12.2,6l0,0
		c8.6,0,15.5,6.9,15.5,15.5v25.2h13.6v-4.1c0-3.1,4-4.4,5.8-1.8l32,47.8l2.1-71.6v-11C913.5,97.4,893.6,77.6,869.1,77.6z"/>
	<circle style="fill:#FDC068;" cx="894.1" cy="154.8" r="21.3"/>
</g>
<g>
	<path style="fill:#F9D5FF;" d="M436.4,674.4H75.7c-2.8,0-5-2.2-5-5s2.2-5,5-5h360.7c2.8,0,5,2.2,5,5S439.2,674.4,436.4,674.4z"/>
</g>
<g>
	<path style="fill:#F9D5FF;" d="M112.4,887.8c-1,0-2.1-0.3-3-1c-2.2-1.7-2.7-4.8-1-7l159-213.4c1.7-2.2,4.8-2.7,7-1s2.7,4.8,1,7
		l-159,213.4C115.4,887.1,113.9,887.8,112.4,887.8z"/>
</g>
<g>
	<path style="fill:#F9D5FF;" d="M271.4,887.8c-1.5,0-3-0.7-4-2l-159-213.4c-1.6-2.2-1.2-5.3,1-7c2.2-1.6,5.3-1.2,7,1l159,213.4
		c1.6,2.2,1.2,5.3-1,7C273.5,887.5,272.4,887.8,271.4,887.8z"/>
</g>
<g>
	
		<linearGradient id="XMLID_2_" gradientUnits="userSpaceOnUse" x1="396.05" y1="507.6479" x2="396.05" y2="1208.8127" gradientTransform="matrix(1 0 0 -1 0 1392)">
		<stop  offset="0" style="stop-color:#FFE0C2"/>
		<stop  offset="0.401" style="stop-color:#7AAEFC"/>
		<stop  offset="0.5908" style="stop-color:#B8C1FC"/>
		<stop  offset="1" style="stop-color:#D2D4D4"/>
	</linearGradient>
	<path id="XMLID_20_" style="fill:url(#XMLID_2_);" d="M0,888.1c56.9,0,112.4-70.6,112.4-115.9S154.3,663.9,218,648.3
		c62.1-15.2,100.8-83.7,100.8-128.6c0-89.2,54.6-127.6,117.6-165.7s58.9-60.8,58.9-177.9h296.8c0,117.1-1.5,177.4-64.5,215.4
		s-112,75.5-112,164.7S568.1,698.6,506,713.8c-63.7,15.6-93.5,82-96.8,127.2c-1.3,18-5,34.7-23,46L0,888.1z"/>
	<g style="opacity:0.37;">
		<g>
			<path style="fill:#FFFFFF;" d="M64.6,889.6v-2.9c25.4,0,53.3-14.8,76.5-40.5c21.3-23.6,34.5-52,34.5-74c0-23.1,10.9-50.8,29.2-74
				c20.4-25.9,47.9-44.1,77.5-51.3c27.8-6.8,53.7-25.5,72.8-52.6c16.8-23.8,26.8-51.6,26.8-74.6c0-41,11.6-74.6,35.5-103
				c22.2-26.3,53.1-46,82.8-64c58.5-35.3,58.4-56.2,58.2-156.5c0-6.4,0-13.1,0-20.2h2.9c0,7.1,0,13.8,0,20.2
				c0.2,99.3,0.3,122.8-59.6,159c-29.5,17.8-60.1,37.3-82.1,63.3c-23.4,27.8-34.8,60.9-34.8,101.1c0,23.5-10.2,52.1-27.4,76.3
				c-19.6,27.7-46.1,46.8-74.5,53.7c-49.4,12.1-104.5,65.4-104.5,122.5c0,22.7-13.5,51.8-35.2,75.9
				C119.5,874.5,90.9,889.6,64.6,889.6z"/>
		</g>
		<g>
			<path style="fill:#FFFFFF;" d="M148.3,889.6v-2.9c25.4,0,53.3-14.8,76.5-40.5c21.3-23.6,34.5-52,34.5-74
				c0-23.1,10.9-50.8,29.2-74c20.4-25.9,47.9-44.1,77.5-51.3c27.8-6.8,53.7-25.5,72.8-52.6c16.8-23.8,26.8-51.6,26.8-74.6
				c0-40.9,11.6-74.6,35.5-103c22.1-26.2,53-46,82.8-64c58.5-35.4,58.4-56.2,58.2-156.5c0-6.4,0-13.1,0-20.2h2.9
				c0,7.1,0,13.8,0,20.2c0.2,99.2,0.3,122.7-59.6,159c-29.5,17.9-60.2,37.5-82.1,63.4c-23.4,27.8-34.8,60.8-34.8,101.1
				c0,23.5-10.2,52.1-27.4,76.3c-19.6,27.7-46.1,46.8-74.5,53.7c-49.4,12.1-104.5,65.4-104.5,122.5c0,22.7-13.5,51.8-35.2,75.9
				C203.2,874.5,174.6,889.6,148.3,889.6z"/>
		</g>
		<g>
			<path style="fill:#FFFFFF;" d="M232.1,889.6v-2.9c25.4,0,53.3-14.8,76.5-40.5c21.3-23.6,34.5-52,34.5-74
				c0-23.1,10.9-50.8,29.2-74c20.4-25.9,47.9-44.1,77.5-51.3c27.8-6.8,53.7-25.5,72.8-52.6c16.8-23.8,26.8-51.6,26.8-74.6
				c0-40.9,11.6-74.6,35.5-103c22.1-26.2,53-46,82.8-64c58.5-35.4,58.4-56.2,58.2-156.5c0-6.4,0-13.1,0-20.2h2.9
				c0,7.1,0,13.8,0,20.2c0.2,99.2,0.3,122.7-59.6,159c-29.5,17.9-60.2,37.5-82.1,63.4c-23.4,27.8-34.8,60.8-34.8,101.1
				c0,23.5-10.2,52.1-27.4,76.3c-19.6,27.7-46.1,46.8-74.5,53.7C401,661.8,346,715.1,346,772.2c0,22.7-13.5,51.8-35.2,75.9
				C287,874.5,258.4,889.6,232.1,889.6z"/>
		</g>
		<g>
			<path style="fill:#FFFFFF;" d="M790.4,262.3c-0.1,1-0.1,1.9-0.2,2.9H494.1c0.1-1,0.1-1.9,0.2-2.9H790.4z"/>
		</g>
		<g>
			<path style="fill:#FFFFFF;" d="M752.2,372.5c-1,1-2,2-3,2.9H402.7c1.4-1,2.9-2,4.3-2.9H752.2z"/>
		</g>
		<g>
			<path style="fill:#FFFFFF;" d="M631.8,482.7v2.9h-310c0.2-1,0.4-1.9,0.6-2.9H631.8z"/>
		</g>
		<g>
			<path style="fill:#FFFFFF;" d="M612.6,593c-0.2,1-0.3,2-0.5,2.9h-321c0.7-1,1.4-1.9,2.1-2.9H612.6z"/>
		</g>
		<g>
			<path style="fill:#FFFFFF;" d="M535.3,703.2c-2.1,1-4.2,2-6.4,2.9H136.1c0.7-1,1.4-1.9,2.1-2.9H535.3z"/>
		</g>
		<g>
			<path style="fill:#FFFFFF;" d="M414,813.4c-0.3,1-0.5,2-0.8,2.9H99.3c0.5-1,1-1.9,1.5-2.9H414z"/>
		</g>
	</g>
</g>
<g>
	<path style="fill:#ECEAEA;" d="M388.9,891.2l-5.3-8.5c15.4-9.7,19.3-23.3,20.7-42.1c1.9-26.1,11.6-54.2,26.6-77.1
		c18.6-28.4,44.2-47.3,74-54.6c66.2-16.2,105.8-73.3,105.8-152.7c0-92.4,51.8-131.2,114.4-169c59.6-35.9,62.1-90.7,62.1-211.1h10
		c0,61.6-0.6,104.5-8.8,138.5c-8.9,37.2-26.9,62.3-58.2,81.2c-33.4,20.2-59.5,38.4-78.3,62c-21.3,26.8-31.3,58.1-31.3,98.4
		c0,43.7-10.9,80.6-32.5,109.5c-19.7,26.5-47.7,44.8-80.9,52.9c-62.8,15.4-90,81.8-93,122.7C412.9,859.8,408.9,878.7,388.9,891.2z"
		/>
</g>
<linearGradient id="SVGID_3_" gradientUnits="userSpaceOnUse" x1="844.1246" y1="842.1312" x2="844.1246" y2="1203.1243" gradientTransform="matrix(1 0 0 -1 0 1392)">
	<stop  offset="0" style="stop-color:#F89D9A"/>
	<stop  offset="0.2628" style="stop-color:#F5943B"/>
	<stop  offset="0.4989" style="stop-color:#F05052"/>
	<stop  offset="0.758" style="stop-color:#ECE674"/>
	<stop  offset="1" style="stop-color:#E1EEC3"/>
</linearGradient>
<path style="fill:url(#SVGID_3_);" d="M731.8,396.4l93.7,28.1l58.3-121.9c12.9-27,45.2-38.4,72.2-25.6c27,12.9,38.4,45.2,25.6,72.2
	l-78,163.5l-1.9,4c-11.8,24.7-41.4,35.2-66.1,23.4c-0.2-0.1-0.6-0.3-0.8-0.4l-133.4-66.6"/>
<path style="fill:#FDC068;" d="M701.3,473.1L677,461c-19.3-9.6-27.2-33.1-17.5-52.5c8.6-17.3,28.3-25.4,46.2-20l26.1,7.8
	L701.3,473.1z"/>
<g>
	<path style="fill:#2B2B2B;" d="M776.5,404.5c-0.1,0-0.1,0-0.2,0c-1-0.1-1.7-1-1.6-2c1-10.4-0.1-17.5-8.9-27.3
		c-0.7-0.8-0.6-1.9,0.1-2.6c0.8-0.7,1.9-0.6,2.6,0.1c9.7,10.7,11,18.9,9.9,30.1C778.2,403.8,777.4,404.5,776.5,404.5z"/>
</g>
<g>
	<path style="fill:#2B2B2B;" d="M832.5,410.1c-0.3,0-0.6-0.1-0.8-0.2c-0.9-0.5-1.3-1.6-0.8-2.5l11.5-23.2c0.5-0.9,1.6-1.3,2.5-0.8
		s1.3,1.6,0.8,2.5l-11.5,23.2C833.8,409.8,833.2,410.1,832.5,410.1z"/>
</g>
<g>
	<path style="fill:#9F70A7;" d="M705.5,571.8c-0.1,0-0.2,0-0.3,0c-1-0.2-1.7-1.1-1.5-2.1l4.1-25c0.2-1,1.1-1.7,2.1-1.5
		s1.7,1.1,1.5,2.1l-4.1,25C707.2,571.2,706.4,571.8,705.5,571.8z"/>
</g>
</svg>
