<?xml version="1.0" encoding="iso-8859-1"?>
<!-- Generator: Adobe Illustrator 23.0.2, SVG Export Plug-In . SVG Version: 6.00 Build 0)  -->
<svg version="1.1" id="Layer_1" xmlns="http://www.w3.org/2000/svg" xmlns:xlink="http://www.w3.org/1999/xlink" x="0px" y="0px"
	 viewBox="0 0 1105.6 1080" style="enable-background:new 0 0 1105.6 1080;" xml:space="preserve">
<g style="opacity:0.3;">
	<g>
		<path style="fill:#C4ECFE;" d="M1026.7,80.7V885H78.8V80.7H1026.7 M1029.8,77.6H75.7v810.5h954.1L1029.8,77.6L1029.8,77.6z"/>
	</g>
	<g>
		<g>
			<line style="fill:none;stroke:#C4ECFE;stroke-width:2.9133;stroke-miterlimit:10;" x1="308" y1="77.6" x2="308" y2="888.1"/>
			<line style="fill:none;stroke:#C4ECFE;stroke-width:2.9133;stroke-miterlimit:10;" x1="429.4" y1="77.6" x2="429.4" y2="888.1"/>
			<line style="fill:none;stroke:#C4ECFE;stroke-width:2.9133;stroke-miterlimit:10;" x1="308" y1="77.6" x2="308" y2="888.1"/>
			<line style="fill:none;stroke:#C4ECFE;stroke-width:2.9133;stroke-miterlimit:10;" x1="186.6" y1="77.6" x2="186.6" y2="888.1"/>
			<line style="fill:none;stroke:#C4ECFE;stroke-width:2.9133;stroke-miterlimit:10;" x1="550.8" y1="77.6" x2="550.8" y2="888.1"/>
			<line style="fill:none;stroke:#C4ECFE;stroke-width:2.9133;stroke-miterlimit:10;" x1="672.2" y1="77.6" x2="672.2" y2="888.1"/>
			<line style="fill:none;stroke:#C4ECFE;stroke-width:2.9133;stroke-miterlimit:10;" x1="792.1" y1="77.6" x2="792.1" y2="888.1"/>
			<line style="fill:none;stroke:#C4ECFE;stroke-width:2.9133;stroke-miterlimit:10;" x1="912" y1="77.6" x2="912" y2="888.1"/>
		</g>
	</g>
</g>
<linearGradient id="SVGID_1_" gradientUnits="userSpaceOnUse" x1="267.55" y1="640.9935" x2="267.55" y2="507.5254" gradientTransform="matrix(1 0 0 -1 0 1392)">
	<stop  offset="0" style="stop-color:#FFD8A1"/>
	<stop  offset="0.9958" style="stop-color:#FFFFFF"/>
</linearGradient>
<path style="fill:url(#SVGID_1_);" d="M459.4,886.9C386.2,855.3,349,751.6,306.6,750.7c-42.4-0.9-47.6,46.3-75.5,51.8
	c-27.9,5.6-71.2-33.6-91.3,7.6c-20.1,41.2-64.1,29.7-64.1,77.9L459.4,886.9z"/>
<g>
	
		<linearGradient id="SVGID_2_" gradientUnits="userSpaceOnUse" x1="615.05" y1="513.6562" x2="615.05" y2="1052.589" gradientTransform="matrix(1 0 0 -1 0 1392)">
		<stop  offset="0" style="stop-color:#FFE0C2"/>
		<stop  offset="0.401" style="stop-color:#7AAEFC"/>
		<stop  offset="0.5908" style="stop-color:#B8C1FC"/>
		<stop  offset="1" style="stop-color:#D2D4D4"/>
	</linearGradient>
	<path style="fill:url(#SVGID_2_);" d="M584.9,345.9c10.3,17.7,84,203.2,91.4,222.2l2,5.3c0.3,0.7,0.5,1.5,0.6,2.2
		c4.8,23.3,9.4,46.6,13.8,70.1l3.3,17.6l3.1,17.6c2.1,11.7,4,23.5,6.1,35.3c3.9,23.5,23.8,124.8,25.9,148.9l-69.4-2.9l-73.5-262
		l2.7,7.5l-91.9-222L584.9,345.9z"/>
	<path style="fill:#2B2B2B;" d="M616.3,642l-11.6,16.6l29.5,105.1c3.8,13.7,15.1,24.1,29.1,26.8l57.7,11.1l-29.6-163.9L616.3,642z"
		/>
	
		<linearGradient id="SVGID_3_" gradientUnits="userSpaceOnUse" x1="435.4" y1="521.9297" x2="435.4" y2="1067.0757" gradientTransform="matrix(1 0 0 -1 0 1392)">
		<stop  offset="0" style="stop-color:#FFE0C2"/>
		<stop  offset="0.401" style="stop-color:#7AAEFC"/>
		<stop  offset="0.5908" style="stop-color:#B8C1FC"/>
		<stop  offset="1" style="stop-color:#D2D4D4"/>
	</linearGradient>
	<path style="fill:url(#SVGID_3_);" d="M561.8,379.6l-49.9,125.5l-25,62.8c-4.1,10.5-8.4,20.9-12.4,31.4L462.8,631L377,865.9h-68
		c8.8-44.9,19.9-92.5,31.2-136.5c11.5-44,23.8-87.7,36.8-131.1c1.6-5.4,3.2-10.9,4.9-16.3l5-16.3c1.7-5.4,3.5-10.8,5.3-16.1
		l5.4-16.1c7.4-21.4,14.9-42.8,23-63.9c8-21.2,16.3-42.2,25.1-63.1l3.3-7.8c1.1-2.6,2.3-5.2,3.4-7.8l6.9-15.5l7.2-15.4
		c1.2-2.6,2.5-5.1,3.7-7.7c1.2-2.5,10.9-19.5,12.2-22L561.8,379.6z"/>
	<polygon style="fill:#2B2B2B;" points="331,774 421.3,750.7 444.9,679.8 341.6,709.5 	"/>
	<g>
		<g>
			<g>
				<path style="fill:#2B2B2B;" d="M782.3,885.5L672.6,885c-5.7,0-10.4-4.4-10.5-9.8l-0.3-13.1l69.3,0.9l52.5,12.5
					C789.7,876.9,788.6,885.5,782.3,885.5z"/>
			</g>
		</g>
	</g>
	<g>
		<g>
			<g>
				<path style="fill:#2B2B2B;" d="M257.8,888.3l109.7-0.4c5.7,0,10.4-4.4,10.5-9.8l0.3-13.1l-69.3,0.9l-52.5,12.5
					C250.3,879.8,251.5,888.3,257.8,888.3z"/>
			</g>
		</g>
	</g>
	<g>
		<path style="fill:#EA7068;" d="M316.5,325.6l-28.1-15.3c-13-7.1-17.7-23.3-10.6-36.3c6.2-11.4,19.6-16.5,31.6-12.7l32.2,10.3"/>
		
			<linearGradient id="SVGID_4_" gradientUnits="userSpaceOnUse" x1="308.0034" y1="1164.983" x2="308.0034" y2="1320.2485" gradientTransform="matrix(0.9861 0.1662 0.1662 -0.9861 -67.6543 1445.1108)">
			<stop  offset="0" style="stop-color:#77879D"/>
			<stop  offset="0.0893" style="stop-color:#A1978E"/>
			<stop  offset="0.1883" style="stop-color:#C9A780"/>
			<stop  offset="0.2791" style="stop-color:#E5B275"/>
			<stop  offset="0.3578" style="stop-color:#F7B96F"/>
			<stop  offset="0.4155" style="stop-color:#FDBB6D"/>
			<stop  offset="0.4989" style="stop-color:#FDBB9F"/>
			<stop  offset="0.599" style="stop-color:#D1D2D1"/>
			<stop  offset="1" style="stop-color:#FECEAA"/>
		</linearGradient>
		<path style="fill:url(#SVGID_4_);" d="M341.6,271.6l71.8,13.6L520,224.6c17.6-10.3,25.2,0.5,35.5,18.1s4.4,40.3-13.2,50.6
			l-114.2,66.8l-2.5,1.5c-3.8,2.3-8.2,3.3-12.3,3.4l-96.8-39.4L341.6,271.6z"/>
	</g>
	<g>
		
			<linearGradient id="SVGID_5_" gradientUnits="userSpaceOnUse" x1="607.3547" y1="1024.3191" x2="607.3547" y2="1187.6304" gradientTransform="matrix(0.9994 -0.0334 -0.0334 -0.9994 101.823 1443.7681)">
			<stop  offset="0" style="stop-color:#77879D"/>
			<stop  offset="0.0893" style="stop-color:#A1978E"/>
			<stop  offset="0.1883" style="stop-color:#C9A780"/>
			<stop  offset="0.2791" style="stop-color:#E5B275"/>
			<stop  offset="0.3578" style="stop-color:#F7B96F"/>
			<stop  offset="0.4155" style="stop-color:#FDBB6D"/>
			<stop  offset="0.4989" style="stop-color:#FDBB9F"/>
			<stop  offset="0.599" style="stop-color:#D1D2D1"/>
			<stop  offset="1" style="stop-color:#FECEAA"/>
		</linearGradient>
		<path style="fill:url(#SVGID_5_);" d="M782.3,359.4l-74.5-28.6l-86.2-70.4c-16.1-12.6-39.3-9.7-51.9,6.4
			c-12.6,16.1-9.7,39.3,6.4,51.9L680.4,400l2.3,1.8c3.5,2.7,7.6,4.4,11.8,5l75.6,10.8L782.3,359.4z"/>
		<path style="fill:#EA7068;" d="M770.1,417.7l31.7,4.5c14.6,2.1,28.2-8.1,30.3-22.7c1.8-12.9-5.8-25-17.7-29.1l-32-11.1"/>
	</g>
	
		<linearGradient id="SVGID_6_" gradientUnits="userSpaceOnUse" x1="532.5129" y1="504.0237" x2="532.5129" y2="1050.2457" gradientTransform="matrix(1 0 0 -1 0 1392)">
		<stop  offset="0" style="stop-color:#FFE0C2"/>
		<stop  offset="0.401" style="stop-color:#7AAEFC"/>
		<stop  offset="0.5908" style="stop-color:#B8C1FC"/>
		<stop  offset="1" style="stop-color:#D2D4D4"/>
	</linearGradient>
	<path style="fill:url(#SVGID_6_);" d="M488.3,315.5c-17.7,21.2-18.1,59.2,9.9,68.5c21.5,7.2,22.7,8.5,31.8,11.5
		c28.7,9.5,58.2-13.1,59.1-43.3L488.3,315.5z"/>
	
		<linearGradient id="SVGID_7_" gradientUnits="userSpaceOnUse" x1="332.6783" y1="1262.575" x2="332.6783" y2="1425.8862" gradientTransform="matrix(0.9345 0.3559 0.3559 -0.9345 -240.5262 1441.9626)">
		<stop  offset="0" style="stop-color:#77879D"/>
		<stop  offset="0.0893" style="stop-color:#A1978E"/>
		<stop  offset="0.1883" style="stop-color:#C9A780"/>
		<stop  offset="0.2791" style="stop-color:#E5B275"/>
		<stop  offset="0.3578" style="stop-color:#F7B96F"/>
		<stop  offset="0.4155" style="stop-color:#FDBB6D"/>
		<stop  offset="0.4989" style="stop-color:#FDBB9F"/>
		<stop  offset="0.599" style="stop-color:#D1D2D1"/>
		<stop  offset="1" style="stop-color:#FECEAA"/>
	</linearGradient>
	<path style="fill:url(#SVGID_7_);" d="M589,352.2c0,0-0.1-6.9,2.8-15.1c2.9-8.2,27.2-13.6,35.5-38.6c6.4-19.2-4.1-54.6-37.5-66
		l-27.2-8.3c-29.3-10-61.6,7.3-70,27.1h-0.1c-0.2,0.6-0.4,1.2-0.5,1.7c-0.1,0.2-0.1,0.3-0.2,0.5l0,0c-10.3,34.4,13.8,41.2-3.6,62
		L589,352.2z"/>
	<g>
		
			<rect x="506.491" y="286.185" transform="matrix(0.3557 -0.9346 0.9346 0.3557 89.7491 705.0576)" style="fill:#2B2B2B;" width="99.5" height="2.5"/>
	</g>
	<circle style="fill:#EA7068;" cx="620.6" cy="161.8" r="14.6"/>
	<path style="fill:#FFFFFF;" d="M545.8,221.3v14.3c0,15.4,4.8,30.4,13.8,42.8l0,0l7.5-2.6c11.4-3.9,21.7-10.5,29.9-19.4l12.1-13
		c0,0-12.4-11.2-33.6-16.3C554.3,222.1,545.8,221.3,545.8,221.3z"/>
	<path style="fill:#2B2B2B;" d="M579.6,254.8l34.1-6.7c0,0-7.4-9.8-23.9-15.5L579.6,254.8z"/>
	<path style="fill:#EA7068;" d="M552.3,229.5l9.1-68l41.2,3.7l-3.9,68.5c-0.6,12.9-11.9,22.7-24.8,21.3l-1.8-0.2
		C559.6,253.4,550.6,242,552.3,229.5z"/>
	<polygon style="fill:#2B2B2B;" points="557.1,194.2 599.3,223.1 600.7,197.1 	"/>
	<path id="XMLID_100_" style="fill:#EA7068;" d="M577.6,204.3L577.6,204.3c-18-2.3-31.4-17.8-31.1-35.9l0.5-31.8
		c2.7-21.3,22.1-36.3,43.4-33.7l0,0c21.3,2.7,36.3,22.1,33.7,43.4l-7.4,30.9C612.5,194.9,595.7,206.5,577.6,204.3z"/>
	<g>
		<path style="fill:#2B2B2B;" d="M581.7,164.8c-0.5,0-0.9-0.3-1.1-0.7c-0.3-0.6,0-1.4,0.6-1.7l3.7-1.8c0.4-0.2,0.6-0.6,0.7-1.1
			c0.1-0.5,0-1-0.3-1.4c-2-2.9-3-6.7-2.5-10.3l0.1-1.1c0.1-0.7,0.6-1.2,1.4-1.1c0.7,0.1,1.2,0.7,1.1,1.4l-0.1,1.1
			c-0.4,3.1,0.4,6.2,2.1,8.6c0.7,0.9,0.9,2.1,0.7,3.3c-0.2,1.1-0.9,2.2-1.9,2.8l-0.1,0.1l-3.8,1.8
			C582.1,164.7,581.9,164.8,581.7,164.8z"/>
	</g>
	<circle style="fill:#EA7068;" cx="542.4" cy="152" r="14.6"/>
	<g>
		<path style="fill:#2B2B2B;" d="M586.7,179.6c-0.3,0-0.7-0.1-0.9-0.4c-1.8-2-3.6-3-5.3-3c-2.4,0.1-4,2.1-4,2.1
			c-0.4,0.5-1.2,0.6-1.8,0.2c-0.5-0.4-0.6-1.2-0.2-1.8c0.1-0.1,2.3-3,5.9-3.1c2.5-0.1,5,1.2,7.3,3.8c0.5,0.5,0.4,1.3-0.1,1.8
			C587.3,179.5,587,179.6,586.7,179.6z"/>
	</g>
	<g>
		<path style="fill:#2B2B2B;" d="M488.3,316.8c-0.2,0-0.5-0.1-0.7-0.2c-0.6-0.4-0.7-1.2-0.4-1.7c6.9-10.5,8.1-17.2,4.5-23.9
			c-0.3-0.6-0.1-1.4,0.5-1.7c0.6-0.3,1.4-0.1,1.7,0.5c5,9.4,0.7,18.3-4.7,26.5C489.1,316.6,488.7,316.8,488.3,316.8z"/>
	</g>
	<g>
		<path style="fill:#2B2B2B;" d="M421.3,292.3c-0.3,0-0.5-0.1-0.7-0.2l-7.9-5.8c-0.6-0.4-0.7-1.2-0.3-1.8c0.4-0.6,1.2-0.7,1.8-0.3
			l7.9,5.8c0.6,0.4,0.7,1.2,0.3,1.8C422.1,292.1,421.7,292.3,421.3,292.3z"/>
	</g>
	<circle style="fill:#2B2B2B;" cx="566.5" cy="148.9" r="4.1"/>
	<circle style="fill:#2B2B2B;" cx="600.7" cy="153.2" r="4.1"/>
	<path style="fill:#5D5D5D;" d="M562.3,110.3c0,0,4.4,15.1,22.2,20.7c17.7,5.6,36.5-5.6,36.5-5.6s-7.3-17.8-28.3-22.6
		C574.2,98.7,562.3,110.3,562.3,110.3z"/>
	<g>
		<path style="fill:#2B2B2B;" d="M598.1,143.3c-0.5,0-1-0.3-1.2-0.8c-0.3-0.6,0.1-1.4,0.7-1.6l13.6-5.5c0.6-0.3,1.4,0,1.6,0.7
			c0.3,0.6-0.1,1.4-0.7,1.6l-13.6,5.5C598.4,143.2,598.3,143.3,598.1,143.3z"/>
	</g>
	<g>
		<path style="fill:#2B2B2B;" d="M570.7,144.1c-0.2,0-0.3,0-0.5-0.1l-8.8-3.5c-0.6-0.3-1-1-0.7-1.6s1-1,1.6-0.7l8.8,3.5
			c0.6,0.3,1,1,0.7,1.6C571.7,143.8,571.2,144.1,570.7,144.1z"/>
	</g>
	<g>
		
			<rect x="518.582" y="454.919" transform="matrix(0.3702 -0.929 0.929 0.3702 -89.1515 780.8416)" style="fill:#2B2B2B;" width="25.401" height="2.5"/>
	</g>
	<path style="fill:#2B2B2B;" d="M594.8,333.2l-9.4-7.3l3.6,26.3C589,352.2,587.8,342.7,594.8,333.2z"/>
	<g>
		
			<rect x="694.471" y="332.341" transform="matrix(0.9176 -0.3974 0.3974 0.9176 -74.8086 306.2116)" style="fill:#2B2B2B;" width="13.799" height="2.5"/>
	</g>
	<g>
		
			<rect x="594.478" y="605.821" transform="matrix(0.7534 -0.6575 0.6575 0.7534 -256.2553 542.8841)" style="fill:#2B2B2B;" width="2.5" height="14.599"/>
	</g>
</g>
<rect x="308" y="883.9" style="fill:#2B2B2B;" width="290.1" height="4.1"/>
<g>
	<path style="fill:#D2C9DA;" d="M549.2,694.8l-289.7,78.4c-23.8,6.5-48.4-7.6-54.8-31.5L105,373.9c-6.5-23.8,7.6-48.4,31.5-54.8
		l190.6-51.6c13.6,6.7,26.5,15,38.3,24.7l82.7,68.1L410.6,425l75.8,70.8l-35.6,122.7l93.4,61.1C549.5,683.1,551.1,689.5,549.2,694.8
		z"/>
</g>
<g>
	<g>
		<path style="fill:#FFFFFF;" d="M520.5,685.5l9.8,5.9L228,773.3c-23.4,6.3-47.6-7.5-53.9-30.9L80.8,397.9L80,395l-1.9-7
			c-6.3-23.4,7.5-47.6,30.9-53.9l199-53.9l7.7,6.5l33.2,28l6.8,5.7l58.3,49.1l-37.5,64.7l69.7,65.1l6.1,5.7l-3.5,14.2l-7.1,28.7
			l-19.5,78.3L520.5,685.5z"/>
		<path style="fill:#F96379;" d="M530.3,691.5l-9.8-5.9l-294.7,79.8c-19,5.1-38.6-6.1-43.7-25.1l-86-317.4l-5.8-21.3l-2.3-8.7
			l-0.3-1.2l-1.6-5.8l0,0c-0.4-1.3-0.6-2.7-0.8-4c-1.2-7.9,0.3-16,4.3-23.1c4.7-8.3,12.4-14.2,21.6-16.7l204.6-55.4l-7.7-6.5
			l-7.7-6.5l-193.5,52.4c-13.5,3.6-24.7,12.3-31.6,24.4s-8.7,26.2-5.1,39.6l96,354.4c6.2,23.2,27.4,38.6,50.4,38.6
			c4.5,0,9.1-0.6,13.6-1.8l310-83.9L530.3,691.5z"/>
	</g>
	<path style="fill:#D2C9DA;" d="M446.2,499.3l6.1,5.7l-3.5,14.2l-7.1,28.7c-6,1.2-12.4,0.8-18.5-1.5L96.1,422.8l-9.5-3.6l-5.8-21.3
		l0,0L80,395l8-2.2l1.7-0.5l13.7-3.7l252.3-68.3l58.3,49.1l-37.5,64.7L446.2,499.3z"/>
	<g>
		<path style="fill:#FFFFFF;" d="M446.2,499.3l6.1,5.7c-9,11.2-24.2,15.3-37.6,10.2l-325-122.8l-2-0.8l-9.6-3.6l8-2.2l5.7-1.5
			l257.1-69.7l6.8,5.7l58.3,49.1l-37.5,64.7L446.2,499.3z"/>
		<path style="fill:#F96379;" d="M446.2,499.3l6.1,5.7l-3.5,14.2c-6.7,4.3-14.4,6.5-22.2,6.5c-4.9,0-9.9-0.9-14.8-2.7L90.3,401.5
			l-9.6-3.6l0,0l-5.6-2.1L78,388l2.9-7.8l4.2,1.6l6.5,2.5l11.6,4.4l314.3,118.8c10.1,3.8,21.4,0.8,28.2-7.6L446.2,499.3z"/>
	</g>
</g>
<g>
	<g>
		<path style="fill:#D2C9DA;" d="M1030.6,397.1l-107.2,367c-7,23.8-31.8,37.4-55.6,30.5l-194.6-56.9c-7.3-6.2-13.4-13.7-17.9-22.3
			l-54.7-102.9l89-87.7l-27.8-100l65.7-35.6l-33-111.7c-2.6-8.8-4.5-17.8-5.7-27l311.4,91.1C1023.9,348.5,1037.6,373.4,1030.6,397.1
			z"/>
	</g>
	<g>
		<g>
			<path style="fill:#FFFFFF;" d="M1060.6,413.5v0.1l0,0l0,0l-2,6.9l-0.9,3l-6.2,21.1L957.6,766c-6.8,23.3-31.2,36.7-54.5,29.9
				L691,734l-5.3-10.2l-53-101.9l57.6-56.7l21.1-20.8l10.4-10.2l-2.2-8l-25.6-92l65.7-35.6l-24.1-72.4l-2.8-8.4L719,276.7l-3.2-9.6
				l314.8,92C1053.9,366,1067.3,390.3,1060.6,413.5z"/>
			<path style="fill:#F96379;" d="M1064.2,376.3c-6.7-12.2-17.8-21.1-31.2-25l-320.4-93.6l3.2,9.6l3.2,9.6l309.3,90.4
				c9.1,2.7,16.7,8.7,21.3,17.1c3.9,7.2,5.3,15.3,3.9,23.2c-0.2,1.3-0.5,2.6-0.9,3.9l0,0l-1.7,5.8l-0.3,1.1l-2.5,8.7l-6.2,21.2
				l-92.2,315.6c-2.7,9.1-8.7,16.7-17.1,21.3c-8.3,4.6-18,5.6-27.1,3L685.7,724l5.3,10l5.3,10.2L900.8,804l0,0
				c4.9,1.4,9.8,2.1,14.6,2.1c22.6,0,43.5-14.8,50.2-37.6l103-352.4C1072.5,402.6,1070.9,388.5,1064.2,376.3z"/>
		</g>
		<path style="fill:#D2C9DA;" d="M1058.6,420.6l-0.9,3l-6.1,21.1h-0.1l-9.6,3.4l-329.3,117c-7.4,2.6-15.3,2.5-22.3,0l21.1-20.8
			l10.4-10.2l-2.2-8l-25.6-92l65.7-35.6l-24.1-72.4l300,87.7l13.6,4l1.5,0.5L1058.6,420.6L1058.6,420.6z"/>
		<g>
			<polygon style="fill:#FFFFFF;" points="1060.7,413.7 1060.6,413.7 1050.9,417.2 1049.1,417.8 721.7,534.2 719.5,526.2 
				693.9,434.2 759.6,398.6 735.5,326.2 732.7,317.8 1047.1,409.7 1052.7,411.3 1060.6,413.7 			"/>
			<path style="fill:#F96379;" d="M1063.5,421.5l-5.7,2l0,0l-9.6,3.4L724.5,542c-4.3,1.5-8.8,2.3-13.1,2.4l10.4-10.2l-2.2-8
				l316-112.3l11.6-4.1l6.5-2.3l4.4-1.5l2.7,7.7l0.1,0.2L1063.5,421.5z"/>
		</g>
	</g>
</g>
<linearGradient id="SVGID_8_" gradientUnits="userSpaceOnUse" x1="784.2716" y1="662.7287" x2="784.2716" y2="508.0936" gradientTransform="matrix(1 0 0 -1 0 1392)">
	<stop  offset="0" style="stop-color:#FFD8A1"/>
	<stop  offset="0.9958" style="stop-color:#FFFFFF"/>
</linearGradient>
<path style="fill:url(#SVGID_8_);" d="M570.7,888.1c160.5-48.1,240-152.6,288-158.4c80-9.8,46.6,81.3,71.6,84.3s99.6-5.1,52,74.1
	L570.7,888.1L570.7,888.1z"/>
<g>
	
		<rect x="720.561" y="196.737" transform="matrix(0.6384 -0.7697 0.7697 0.6384 109.416 636.3789)" style="fill:#F9D5FF;" width="22.9" height="10"/>
</g>
<g>
	
		<rect x="330.172" y="632.71" transform="matrix(0.9267 -0.3758 0.3758 0.9267 -214.6107 175.1254)" style="fill:#F9D5FF;" width="22.9" height="10"/>
</g>
<g>
	
		<rect x="401.104" y="212.596" transform="matrix(0.7027 -0.7115 0.7115 0.7027 -38.6344 355.5356)" style="fill:#F9D5FF;" width="10" height="22.8"/>
</g>
<g>
	
		<rect x="734.26" y="660.318" transform="matrix(0.7049 -0.7093 0.7093 0.7049 -258.2987 722.5813)" style="fill:#F9D5FF;" width="10" height="22.8"/>
</g>
<g>
	
		<rect x="416.292" y="127.905" transform="matrix(0.8586 -0.5126 0.5126 0.8586 -11.8472 235.6541)" style="fill:#F9D5FF;" width="10" height="22.799"/>
</g>
<g>
	<path style="fill:#F9D5FF;" d="M869.4,257.5l-6.6-7.5c33.1-29.3,73.2-32.5,105.5-35c35.1-2.8,53.6-5.3,56.6-27.2l9.9,1.4
		c-4.2,30.9-32.7,33.2-65.7,35.8C938.3,227.4,900,230.5,869.4,257.5z"/>
</g>
<g>
	<path style="fill:#F9D5FF;" d="M211,191.2c-12.8-19.9-37.6-28.5-64-37.7c-29.4-10.2-59.9-20.8-75.6-48.4l8.7-4.9
		c13.9,24.4,42.5,34.3,70.2,43.9c26.8,9.3,54.4,18.9,69.1,41.7L211,191.2z"/>
</g>
</svg>
