<?xml version="1.0" encoding="utf-8"?>
<!-- Generator: Adobe Illustrator 22.0.1, SVG Export Plug-In . SVG Version: 6.00 Build 0)  -->
<svg version="1.1" id="Layer_1" xmlns="http://www.w3.org/2000/svg" xmlns:xlink="http://www.w3.org/1999/xlink" x="0px" y="0px" viewBox="0 0 800 781.5" style="enable-background:new 0 0 800 781.5;" xml:space="preserve">

<title>source_final_all</title>
<g>
	<rect width="800" height="781.5" style="fill:#FFFFFF;"/>
	<g style="opacity:0.3;">
		<path d="M743,58.4v582H57v-582H743 M745.2,56.2H54.8v586.5h690.4L745.2,56.2L745.2,56.2z" style="fill:#C4ECFE;"/>
		<g>
			<rect x="54.8" y="471.9" width="690.4" height="2.1" style="fill:#C4ECFE;"/>
		</g>
		<g>
			<rect x="54.8" y="388" width="690.4" height="2.1" style="fill:#C4ECFE;"/>
		</g>
		<g>
			<rect x="54.8" y="471.9" width="690.4" height="2.1" style="fill:#C4ECFE;"/>
		</g>
		<g>
			<rect x="54.8" y="555.9" width="690.4" height="2.1" style="fill:#C4ECFE;"/>
		</g>
		<g>
			<rect x="54.8" y="304" width="690.4" height="2.1" style="fill:#C4ECFE;"/>
		</g>
		<g>
			<rect x="54.8" y="220" width="690.4" height="2.1" style="fill:#C4ECFE;"/>
		</g>
		<g>
			<rect x="54.8" y="136" width="690.4" height="2.1" style="fill:#C4ECFE;"/>
		</g>
	</g>
	<circle cx="192.5" cy="361.6" r="3" style="fill:#BFD9FF;"/>
	<circle cx="492.3" cy="597" r="3" style="fill:#BFD9FF;"/>
	<circle cx="648.6" cy="73.5" r="3" style="fill:#BFD9FF;"/>
	<circle cx="686" cy="257.8" r="3" style="fill:#BFD9FF;"/>
	<circle cx="104.2" cy="116.7" r="3" style="fill:#BFD9FF;"/>
	<circle cx="227.9" cy="102.1" r="2.7" style="fill:#BFD9FF;"/>
	
		<linearGradient id="SVGID_1_" gradientUnits="userSpaceOnUse" x1="3022.927" y1="1734.7019" x2="3022.927" y2="1944.6223" gradientTransform="matrix(-1 0 0 1 3218.73 -1354)">
		<stop offset="0" style="stop-color:#FFD8A1"/>
		<stop offset="1" style="stop-color:#FFFFFF"/>
	</linearGradient>
	<path d="M57.5,331.1c0-16.7,24.1-19.2,27.6-2.9c4.9,23.2,11.1,50.1,42,60.6c34.7,11.8,25.9,55.6,89.8,73.1
		s6.5,156.7,117.1,180.8H57.5V331.1z" style="fill:url(#SVGID_1_);"/>
	<rect x="128.2" y="409.9" width="543.5" height="9.8" style="fill:#2B2B2B;"/>
	<g>
		<rect x="656.9" y="419.8" width="14.5" height="221.6" style="fill:#F9D5FF;"/>
	</g>
	<g>
		<rect x="580.2" y="419.8" width="14.5" height="221.6" style="fill:#F9D5FF;"/>
	</g>
	<g>
		<rect x="580.2" y="416.9" width="14.5" height="20.8" style="fill:#2B2B2B;"/>
	</g>
	<g>
		<rect x="656.9" y="416.9" width="14.5" height="47" style="fill:#2B2B2B;"/>
	</g>
	<g>
		<rect x="128.6" y="419.8" width="14.5" height="221.6" style="fill:#F9D5FF;"/>
	</g>
	<g>
		<rect x="205.3" y="419.8" width="14.5" height="221.6" style="fill:#F9D5FF;"/>
	</g>
	<g>
		<rect x="205.3" y="416.9" width="14.5" height="20.8" style="fill:#2B2B2B;"/>
	</g>
	<g>
		<rect x="128.6" y="416.9" width="14.5" height="20.8" style="fill:#2B2B2B;"/>
	</g>
	<g>
		
			<rect x="466.5" y="142.3" transform="matrix(0.1877 -0.9822 0.9822 0.1877 271.798 620.4708)" width="89.1" height="7.2" style="fill:#F9D5FF;"/>
	</g>
	<g>
		
			<rect x="332.8" y="102" transform="matrix(0.9977 -6.810257e-02 6.810257e-02 0.9977 -9.1562 23.2488)" width="7.2" height="87.8" style="fill:#F9D5FF;"/>
	</g>
	<g>
		<rect x="235.4" y="179.7" width="329.2" height="197.1" style="fill:#2B2B2B;"/>
		<path d="M567.5,379.7h-335V176.8h335V379.7z M238.3,373.9h323.4V182.6H238.3V373.9z" style="fill:#2B2B2B;"/>
	</g>
	<g>
		<path d="M194.1,249.9c-4.7,0-9.1-2.2-12.4-6.2c-4.3-5.1-5.2-11.1-2.7-16.6c1.4-3.2,4.6-7.4,11.3-11.3
			c-17.7-17.5-46.2-39.5-46.5-39.7l4.4-5.7c1.4,1.1,31.2,24.1,49,42.1c9.9-4.1,25-7.3,47.6-8.2l0.3,7.2c-17.6,0.7-31.8,2.9-42.5,6.7
			c0.1,0.1,0.3,0.4,0.4,0.5c8.1,9.3,7.1,17,5.8,20.8c-1.9,5.3-6.4,9.1-12,10.1C195.9,249.8,195,249.9,194.1,249.9z M195.6,221.2
			c-5.1,2.6-8.5,5.6-9.9,8.8c-1.4,3-0.8,6.1,1.7,9c3,3.7,6.4,3.7,8.2,3.3c3-0.5,5.4-2.6,6.4-5.4c1.4-3.9-0.1-8.8-4.4-13.6
			C197,222.7,196.3,222,195.6,221.2z" style="fill:#F9D5FF;"/>
	</g>
	<g>
		<rect x="258.3" y="204.3" width="150.1" height="7.2" style="fill:#5E41F4;"/>
	</g>
	<g>
		<rect x="440.9" y="204.3" width="100.8" height="7.2" style="fill:#FFA300;"/>
	</g>
	<g>
		<rect x="258.3" y="225.1" width="77.7" height="7.2" style="fill:#FF288C;"/>
	</g>
	<g>
		<rect x="368.5" y="225.1" width="173.2" height="7.2" style="fill:#3ACDFF;"/>
	</g>
	<g>
		<rect x="258.3" y="246" width="150.1" height="7.2" style="fill:#5E41F4;"/>
	</g>
	<g>
		<rect x="427.3" y="246" width="114.3" height="7.2" style="fill:#FF75C2;"/>
	</g>
	<g>
		<rect x="258.3" y="266.9" width="150.1" height="7.2" style="fill:#FFA300;"/>
	</g>
	<g>
		<rect x="440.9" y="266.9" width="100.8" height="7.2" style="fill:#FF288C;"/>
	</g>
	<g>
		<rect x="258.3" y="287.7" width="150.1" height="7.2" style="fill:#FF288C;"/>
	</g>
	<g>
		<rect x="440.9" y="287.7" width="100.8" height="7.2" style="fill:#5E41F4;"/>
	</g>
	<g>
		<rect x="258.3" y="308.5" width="55.1" height="7.2" style="fill:#3ACDFF;"/>
	</g>
	<g>
		<rect x="345.7" y="308.5" width="195.9" height="7.2" style="fill:#5E41F4;"/>
	</g>
	<g>
		<rect x="258.3" y="329.4" width="114.9" height="7.2" style="fill:#5E41F4;"/>
	</g>
	<g>
		<rect x="405.6" y="329.4" width="136" height="7.2" style="fill:#FFA300;"/>
	</g>
	<g>
		<rect x="258.3" y="350.3" width="150.1" height="7.2" style="fill:#3ACDFF;"/>
	</g>
	<g>
		<rect x="440.9" y="350.3" width="100.8" height="7.2" style="fill:#FF288C;"/>
	</g>
	
		<linearGradient id="SVGID_2_" gradientUnits="userSpaceOnUse" x1="408.6435" y1="1792.4805" x2="408.6435" y2="2056.1997" gradientTransform="matrix(-1 0 0 1 749.49 -1354)">
		<stop offset="0" style="stop-color:#9774AC"/>
		<stop offset="0.4" style="stop-color:#47A6D3"/>
		<stop offset="0.5" style="stop-color:#A7A7AE"/>
		<stop offset="0.59" style="stop-color:#E89AC0"/>
		<stop offset="1" style="stop-color:#BFE7D1"/>
	</linearGradient>
	<path d="M408.7,417.4l-104.2-3.3c-16.9-0.5-31,12.7-31.5,29.6l0,0c-0.1,1.3,17.4,174.7,17.4,174.7l42.6-1l3-132.3
		l31.6,14.7L408.7,417.4z" style="fill:url(#SVGID_2_);"/>
	<path d="M276.8,641h56.3v-23.5l-42.6,1l-16.4,16.1c-0.7,0.7-1.1,1.7-1.1,2.7l0,0C273,639.3,274.7,641,276.8,641
		C276.7,641,276.7,641,276.8,641z" style="fill:#2B2B2B;"/>
	<path d="M277.9,391c2.2,13.9,15.1,23.4,29.1,21.3c0.6-0.1,1.1-0.2,1.6-0.3l2.9-0.7c13.6-3,22.1-16.4,19.2-30
		c-2.6-11.8-13.2-20.1-25.3-19.8l-3,0.1c-14,0.4-25.2,12.1-24.8,26.1C277.6,388.9,277.8,389.9,277.9,391L277.9,391z" style="fill:#EA7068;"/>
	<path d="M538,382.5c-2.2,13.9-15.1,23.4-29,21.3c-0.6-0.1-1.1-0.2-1.7-0.3l-2.9-0.7c-13.5-3.1-22.1-16.6-19-30.1
		c2.7-11.6,13.2-19.9,25.1-19.6l3,0.1c14,0.4,25.2,12.1,24.8,26.1C538.3,380.4,538.1,381.5,538,382.5L538,382.5z" style="fill:#EA7068;"/>
	
		<linearGradient id="SVGID_3_" gradientUnits="userSpaceOnUse" x1="502.6773" y1="1835.4978" x2="502.6773" y2="1675.2156" gradientTransform="matrix(1 0 0 1 0 -1354)">
		<stop offset="0" style="stop-color:#6B9C83"/>
		<stop offset="0.4" style="stop-color:#A6A6A4"/>
		<stop offset="0.5" style="stop-color:#9F9FC8"/>
		<stop offset="0.59" style="stop-color:#9FCCEC"/>
		<stop offset="1" style="stop-color:#FFE7B0"/>
	</linearGradient>
	<path d="M525.3,397.8l-3.1,39.6l-42.1-2.7l5.4-61.8h16.8c12.8,0,23.2,10.3,23.2,23.2
		C525.3,396.6,525.3,397.2,525.3,397.8z" style="fill:url(#SVGID_3_);"/>
	
		<linearGradient id="SVGID_4_" gradientUnits="userSpaceOnUse" x1="461.8308" y1="1792.4805" x2="461.8308" y2="2056.1997" gradientTransform="matrix(1 0 0 1 0 -1354)">
		<stop offset="0" style="stop-color:#9774AC"/>
		<stop offset="0.4" style="stop-color:#47A6D3"/>
		<stop offset="0.5" style="stop-color:#A7A7AE"/>
		<stop offset="0.59" style="stop-color:#E89AC0"/>
		<stop offset="1" style="stop-color:#BFE7D1"/>
	</linearGradient>
	<path d="M394,417.4l104.2-3.3c16.9-0.5,31,12.7,31.5,29.6l0,0c0.1,1.3-17.4,174.7-17.4,174.7l-42.6-1l-3-132.3
		l-42,11.8L394,417.4z" style="fill:url(#SVGID_4_);"/>
	
		<linearGradient id="SVGID_5_" gradientUnits="userSpaceOnUse" x1="475.6263" y1="1842.0013" x2="475.6263" y2="2271.0679" gradientTransform="matrix(0.9999 1.727790e-02 -1.727790e-02 0.9999 -47.6465 -1411.8406)">
		<stop offset="0" style="stop-color:#9774AC"/>
		<stop offset="0.4" style="stop-color:#47A6D3"/>
		<stop offset="0.5" style="stop-color:#A7A7AE"/>
		<stop offset="0.59" style="stop-color:#E89AC0"/>
		<stop offset="1" style="stop-color:#BFE7D1"/>
	</linearGradient>
	<path d="M340.8,436.6c-9.8,26.8,3.2,63.9,33.6,63.1c23.4-0.6,25.1,0.3,34.9,0.1c31.3-0.8,52-33.1,42.3-62.9
		L340.8,436.6z" style="fill:url(#SVGID_5_);"/>
	
		<linearGradient id="SVGID_6_" gradientUnits="userSpaceOnUse" x1="479.9417" y1="1801.1056" x2="479.9417" y2="1702.8423" gradientTransform="matrix(1 0 0 1 0 -1354)">
		<stop offset="0" style="stop-color:#6B9C83"/>
		<stop offset="0.4" style="stop-color:#A6A6A4"/>
		<stop offset="0.5" style="stop-color:#9F9FC8"/>
		<stop offset="0.59" style="stop-color:#9FCCEC"/>
		<stop offset="1" style="stop-color:#FFE7B0"/>
	</linearGradient>
	<path d="M507.6,405.8l14.5,31.5c6.2,13.5,0.2,29.3-13.2,35.5c-0.2,0.1-0.4,0.1-0.6,0.2l0,0c-11,4.7-23.8,1.5-31.3-7.8
		l-41.6-51.6l8.6-83.8l19.7,17.1C482.3,363.2,497.3,383.3,507.6,405.8z" style="fill:url(#SVGID_6_);"/>
	
		<linearGradient id="SVGID_7_" gradientUnits="userSpaceOnUse" x1="6317.7427" y1="1801.1056" x2="6317.7427" y2="1702.8423" gradientTransform="matrix(-1 0 0 1 6633.1699 -1354)">
		<stop offset="0" style="stop-color:#6B9C83"/>
		<stop offset="0.4" style="stop-color:#A6A6A4"/>
		<stop offset="0.5" style="stop-color:#9F9FC8"/>
		<stop offset="0.59" style="stop-color:#9FCCEC"/>
		<stop offset="1" style="stop-color:#FFE7B0"/>
	</linearGradient>
	<path d="M287.8,405.8l-14.5,31.5c-6.2,13.5-0.2,29.3,13.2,35.5c0.2,0.1,0.4,0.1,0.6,0.2l0,0c11,4.7,23.8,1.5,31.3-7.8
		l41.6-51.6l-8.6-83.8L331.8,347C313.1,363.2,298.1,383.3,287.8,405.8z" style="fill:url(#SVGID_7_);"/>
	
		<ellipse transform="matrix(0.1602 -0.9871 0.9871 0.1602 46.216 567.2003)" cx="356.4" cy="256.4" rx="15.1" ry="15.1" style="fill:#EA7068;"/>
	<circle cx="436" cy="257.8" r="15.1" style="fill:#EA7068;"/>
	<path d="M413,343.6l26.1-16.6c0,0-10.6-6.9-28.7-6.7L413,343.6z" style="fill:#2B2B2B;"/>
	<path d="M373.3,325l1.9-61l42.7-0.7l3.5,61c0.8,12.7-8.9,23.7-21.6,24.5c-0.5,0-0.9,0.1-1.4,0.1h-1.8
		c-12.8,0-23.2-10.3-23.2-23.2C373.3,325.5,373.3,325.3,373.3,325z" style="fill:#EA7068;"/>
	<path id="_Path_" d="M396.5,306.2L396.5,306.2c-18.7-0.4-34.2-14.8-36-33.5l-2.9-32.7c0.4-22.1,18.7-39.8,40.9-39.4
		l0,0l0,0c22.1,0.4,39.8,18.7,39.4,40.9l-4.2,32.6C431.3,292.8,415.3,306.6,396.5,306.2z" style="fill:#FEC73A;"/>
	
		<linearGradient id="SVGID_8_" gradientUnits="userSpaceOnUse" x1="474.635" y1="1850.9231" x2="474.635" y2="1752.667" gradientTransform="matrix(0.9999 1.727790e-02 -1.727790e-02 0.9999 -47.6465 -1411.8406)">
		<stop offset="0" style="stop-color:#6B9C83"/>
		<stop offset="0.4" style="stop-color:#A6A6A4"/>
		<stop offset="0.5" style="stop-color:#9F9FC8"/>
		<stop offset="0.59" style="stop-color:#9FCCEC"/>
		<stop offset="1" style="stop-color:#FFE7B0"/>
	</linearGradient>
	<path d="M451.7,436.9c-1.7-5.1-2.6-10.3-2.6-15.6c0-9,21.6-22.7,21-49.9c-0.5-20.9-23.2-51.7-59.6-51l-29.4,1.4
		c-32,0.6-57.2,28.7-58.5,50.9h-0.1c0,0.7,0.1,1.2,0.1,1.9c0,0.2,0,0.4,0,0.6l0,0c2,37,27.9,35.2,18.3,61.5L451.7,436.9z" style="fill:url(#SVGID_8_);"/>
	<g>
		<path d="M515.9,424.9c-0.4,0-0.9-0.3-1-0.7c-9.5-25.3-27.1-49.6-27.3-49.9c-0.4-0.5-0.2-1.2,0.2-1.5
			c0.5-0.4,1.2-0.2,1.5,0.2c0.1,0.2,17.9,24.8,27.6,50.4c0.2,0.6-0.1,1.2-0.7,1.4C516.1,424.9,516,424.9,515.9,424.9z" style="fill:#2B2B2B;"/>
	</g>
	<g>
		<path d="M451,434.2c-0.3,0-0.7-0.1-0.9-0.4l-10.7-13.2c-0.4-0.4-0.3-1.2,0.1-1.5c0.4-0.4,1.2-0.3,1.5,0.1l10.7,13.2
			c0.4,0.4,0.3,1.2-0.1,1.5C451.5,434.1,451.3,434.2,451,434.2z" style="fill:#2B2B2B;"/>
	</g>
	<g>
		<path d="M340.8,437.7c-0.1,0-0.1,0-0.1,0c-0.6-0.1-1-0.7-0.9-1.2l4.8-31.5c0.1-0.6,0.7-1,1.2-0.9
			c0.6,0.1,1,0.7,0.9,1.2l-4.8,31.5C341.8,437.3,341.4,437.7,340.8,437.7z" style="fill:#2B2B2B;"/>
	</g>
	<path d="M525.9,641h-56.3v-23.5l42.5,1l16.4,16.1c0.7,0.7,1.1,1.7,1.1,2.7l0,0C529.7,639.3,527.9,641,525.9,641
		L525.9,641z" style="fill:#2B2B2B;"/>
	<g>
		
			<rect x="309.6" y="595.5" transform="matrix(9.823819e-02 -0.9952 0.9952 9.823819e-02 -285.9376 889.8978)" width="76.8" height="14.5" style="fill:#2B2B2B;"/>
	</g>
	<g>
		
			<rect x="444.7" y="564.3" transform="matrix(0.9952 -9.827355e-02 9.827355e-02 0.9952 -57.0488 47.3347)" width="14.5" height="76.8" style="fill:#2B2B2B;"/>
	</g>
	<path d="M491.2,475.7h0.1c8.8,0.7,15.4,8.5,14.7,17.3l-0.7,8.5c-0.7,8.8-8.5,15.4-17.3,14.7h-0.1
		c-8.8-0.7-15.4-8.5-14.7-17.3l0.7-8.5C474.6,481.5,482.3,475,491.2,475.7z" style="fill:#FD8D45;"/>
	<path d="M310.4,516.3h-0.1c-8.8,0.4-16.4-6.5-16.6-15.4l-0.4-8.5c-0.4-8.8,6.5-16.4,15.4-16.6h0.1
		c8.8-0.4,16.4,6.5,16.6,15.4l0.4,8.5C326.2,508.5,319.3,515.9,310.4,516.3z" style="fill:#FD8D45;"/>
	<path d="M452.5,568.4H347.5c-18.3,0-33.5-14.2-34.8-32.5l-5.5-80.9c-1.3-19.2,13.2-35.8,32.4-37.1
		c0.8-0.1,1.6-0.1,2.4-0.1H458c19.2,0,34.9,15.6,34.9,34.9c0,0.8,0,1.6-0.1,2.4l-5.5,80.9C486,554.2,470.8,568.4,452.5,568.4z" style="fill:#FDCF45;"/>
	<rect x="113.3" y="639.4" width="373.8" height="3.2" style="fill:#2B2B2B;"/>
	<path d="M119,288.4h52.5c14.3,0,25.8,11.6,25.8,25.8v12.1c0,14.3-11.6,25.8-25.8,25.8h-52.6
		c-14.3,0-25.8-11.6-25.8-25.8v-12.1C93.1,300,104.7,288.4,119,288.4z" style="fill:#F9D5FF;"/>
	<path d="M131.3,330.5l-16.4-7.6v-4.1l16.4-7.6v4.5l-12,5.1l12,5.2V330.5z" style="fill:#5E41F4;"/>
	<path d="M139.1,335.5h-4.6l17-34.9h4.6L139.1,335.5z" style="fill:#5E41F4;"/>
	<path d="M159.2,311.1l16.4,7.6v4.1l-16.4,7.7V326l12-5.1l-12-5.2V311.1z" style="fill:#5E41F4;"/>
	<path d="M307.2,48.1h52.6c14.3,0,25.8,11.6,25.8,25.8V86c0,14.3-11.6,25.8-25.8,25.8h-52.6
		c-14.3,0-25.8-11.6-25.8-25.8V74C281.3,59.7,292.9,48.1,307.2,48.1z" style="fill:#F9D5FF;"/>
	<path d="M325,65.4c-2.9,0-4.8,1.6-4.6,4.4l0.1,2.3c0.1,3.4-1.4,5.9-4.5,7.1c3.1,1.2,4.6,3.7,4.5,7.1l-0.1,2.3
		c-0.1,2.8,1.7,4.4,4.6,4.4h1v4.2h-1c-6.3,0-9.6-3.5-9.3-9.2l0.1-2.3c0.1-2.8-1.7-4.4-4.7-4.4v-4.2c3,0,4.8-1.6,4.7-4.4l-0.1-2.3
		c-0.3-5.6,3-9.2,9.3-9.2h1v4.2L325,65.4z" style="fill:#FFA300;"/>
	<path d="M342.1,93.1c2.9,0,4.8-1.6,4.6-4.4l-0.1-2.3c-0.1-3.4,1.4-5.9,4.5-7.1c-3.1-1.2-4.6-3.7-4.5-7.1l0.1-2.3
		c0.1-2.8-1.7-4.4-4.6-4.4h-1v-4.2h1c6.3,0,9.6,3.5,9.3,9.2l-0.1,2.3c-0.1,2.8,1.7,4.4,4.7,4.4v4.2c-3,0-4.8,1.6-4.7,4.4l0.1,2.3
		c0.3,5.6-3,9.2-9.3,9.2h-1v-4.2L342.1,93.1L342.1,93.1z" style="fill:#FFA300;"/>
	<path d="M88.6,136.6h52.6c14.3,0,25.8,11.6,25.8,25.8v12.1c0,14.3-11.6,25.8-25.8,25.8H88.6
		c-14.3,0-25.8-11.6-25.8-25.8v-12.1C62.9,148.2,74.4,136.6,88.6,136.6z" style="fill:#F9D5FF;"/>
	<path d="M111.6,154.4c0,1.7-1.4,3.1-3.2,3.1s-3.1-1.4-3.1-3.2c0-1.7,1.4-3.1,3.1-3.1
		C110.1,151.2,111.5,152.6,111.6,154.4C111.6,154.4,111.6,154.4,111.6,154.4z M110.6,181.9h-4.5v-20.4h4.5V181.9z" style="fill:#FF288C;"/>
	<path d="M130.8,165.6h-7v16.4h-4.5v-16.4h-4.1v-4.1h4.1V158c0-4.1,2.1-7.4,6.9-7.4c2,0,4,0.5,5.7,1.5l-1.6,3.8
		c-1.2-0.7-2.5-1.1-3.8-1.1c-1.7,0-2.7,1.2-2.7,3.2v3.5h7V165.6z" style="fill:#FF288C;"/>
	<path d="M634.4,300.1H687c14.3,0,25.8,11.6,25.8,25.8v12.1c0,14.3-11.6,25.8-25.8,25.8h-52.6
		c-14.3,0-25.8-11.6-25.8-25.8V326C608.7,311.6,620.2,300.1,634.4,300.1z" style="fill:#F9D5FF;"/>
	<path d="M644.1,341.7h-4.8l-7.6-18.9h4.5l5.6,14.6l5.6-14.6h4.3L644.1,341.7z" style="fill:#FFA300;"/>
	<path d="M673.2,341.7H669v-2.2c-1.4,1.8-3.6,2.8-5.9,2.7c-5.3,0-9.4-4.1-9.4-9.9c0-5.8,4.1-9.9,9.4-9.9
		c2.3-0.1,4.5,0.9,5.9,2.7v-2.2h4.1V341.7z M658,332.3c0,3.3,2.2,6.1,5.7,6.1c3.4,0,5.7-2.6,5.7-6.1c0-3.5-2.3-6.1-5.7-6.1
		C660.1,326.3,658,328.9,658,332.3L658,332.3z" style="fill:#FFA300;"/>
	<path d="M692.3,322.9l-1,4.1c-1-0.4-2-0.7-3.1-0.7c-2.6,0-4.5,1.9-4.5,5.1v10.3h-4.1v-18.9h4.1v2.1
		c1.2-1.7,3.3-2.7,5.5-2.6C690.2,322.4,691.3,322.5,692.3,322.9z" style="fill:#FFA300;"/>
	<path d="M499,48.1h52.6c14.3,0,25.8,11.6,25.8,25.8V86c0,14.3-11.6,25.8-25.8,25.8H499c-14.3,0-25.8-11.6-25.8-25.8V74
		C473.2,59.7,484.8,48.1,499,48.1z" style="fill:#F9D5FF;"/>
	<path d="M511,80.2c0,0.5,0,0.9-0.1,1.4h-12.7c0.2,2.6,2.5,4.6,5.1,4.4c1.8-0.1,3.5-0.7,5-1.8l1.9,2.7
		c-2,1.7-4.5,2.5-7.1,2.4c-5.1,0-8.8-3.6-8.8-9s3.5-9,8.6-9C507.7,71.2,511,74.9,511,80.2z M498.3,78.8h8.9c-0.4-2.7-2-4.3-4.3-4.3
		C500.1,74.6,498.6,76.3,498.3,78.8L498.3,78.8z" style="fill:#5E41F4;"/>
	<path d="M519.4,88.9h-3.8V63h3.8V88.9z" style="fill:#5E41F4;"/>
	<path d="M537,76c-1.6-0.9-3.5-1.4-5.3-1.4c-2,0-3.3,0.8-3.3,2c0,1.2,1.2,1.5,2.8,1.8l1.8,0.3c3.8,0.5,6,2.1,6,5.1
		c0,3.3-2.9,5.6-7.8,5.6c-2.6,0.1-5.2-0.7-7.4-2.2l1.7-2.8c1.6,1.2,3.6,1.9,5.6,1.7c2.5,0,3.9-0.8,3.9-2.1c0-0.9-0.9-1.6-3-1.9
		l-1.8-0.2c-3.8-0.5-5.9-2.3-5.9-5.1c0-3.4,2.7-5.5,7.1-5.5c2.5-0.1,4.8,0.6,6.9,1.8L537,76z" style="fill:#5E41F4;"/>
	<path d="M559,80.2c0,0.5,0,0.9-0.1,1.4h-12.7c0.2,2.6,2.5,4.6,5.1,4.4c1.8-0.1,3.5-0.7,5-1.8l1.9,2.7
		c-2,1.7-4.5,2.5-7.1,2.4c-5.1,0-8.8-3.6-8.8-9s3.5-9,8.5-9C555.6,71.2,558.9,74.9,559,80.2z M546.2,78.8h8.9
		c-0.4-2.7-2-4.3-4.3-4.3C548,74.6,546.5,76.3,546.2,78.8L546.2,78.8z" style="fill:#5E41F4;"/>
	<g>
		<path d="M609.8,249.9c-0.9,0-1.8-0.1-2.7-0.2c-5.5-0.9-10.1-4.8-12-10.1c-1.3-3.8-2.4-11.4,5.8-20.8
			c0.1-0.1,0.3-0.4,0.4-0.5c-10.6-3.8-25-6-42.5-6.7l0.3-7.2c22.6,0.9,37.7,4.1,47.6,8.2c17.8-18.1,47.6-41,49-42.1l4.4,5.7
			c-0.4,0.3-28.8,22.2-46.5,39.7c6.7,3.9,9.8,8.1,11.3,11.3c2.5,5.6,1.5,11.5-2.7,16.6C619,247.7,614.5,249.9,609.8,249.9z
			 M608.4,221.2c-0.7,0.8-1.4,1.5-2,2.2c-4.2,4.8-5.8,9.7-4.4,13.6c1,2.8,3.5,4.8,6.4,5.4c1.8,0.3,5.3,0.3,8.2-3.3c2.5-3,3-6,1.7-9
			C616.9,226.9,613.5,223.9,608.4,221.2z" style="fill:#F9D5FF;"/>
	</g>
	<path d="M666.1,134.7h52.6c14.3,0,25.8,11.6,25.8,25.8v12.1c0,14.3-11.6,25.8-25.8,25.8h-52.6
		c-14.3,0-25.8-11.6-25.8-25.8v-12.1C640.2,146.2,651.8,134.7,666.1,134.7z" style="fill:#F9D5FF;"/>
	<path d="M696.7,155.5c0,2.3-1.9,4.2-4.2,4.2s-4.2-1.9-4.2-4.2c0-2.3,1.9-4.2,4.2-4.2l0,0
		C694.8,151.4,696.6,153.2,696.7,155.5z M695.7,168.5l-2.9,13.2h-4.3l1.3-13.2H695.7z" style="fill:#3ACDFF;"/>
	<g>
		<rect x="559" y="329.4" width="61.6" height="7.2" style="fill:#F9D5FF;"/>
	</g>
	<g>
		<rect x="181" y="329.4" width="61.6" height="7.2" style="fill:#F9D5FF;"/>
	</g>
	<g>
		<path d="M609.8,249.9c-0.9,0-1.8-0.1-2.7-0.2c-5.5-0.9-10.1-4.8-12-10.1c-1.3-3.8-2.4-11.4,5.8-20.8
			c0.1-0.1,0.3-0.4,0.4-0.5c-10.6-3.8-25-6-42.5-6.7l0.3-7.2c22.6,0.9,37.7,4.1,47.6,8.2c17.8-18.1,47.6-41,49-42.1l4.4,5.7
			c-0.4,0.3-28.8,22.2-46.5,39.7c6.7,3.9,9.8,8.1,11.3,11.3c2.5,5.6,1.5,11.5-2.7,16.6C619,247.7,614.5,249.9,609.8,249.9z
			 M608.4,221.2c-0.7,0.8-1.4,1.5-2,2.2c-4.2,4.8-5.8,9.7-4.4,13.6c1,2.8,3.5,4.8,6.4,5.4c1.8,0.3,5.3,0.3,8.2-3.3c2.5-3,3-6,1.7-9
			C616.9,226.9,613.5,223.9,608.4,221.2z" style="fill:#F9D5FF;"/>
	</g>
	
		<linearGradient id="SVGID_9_" gradientUnits="userSpaceOnUse" x1="2425.7446" y1="1812.8278" x2="2425.7446" y2="1989.275" gradientTransform="matrix(-1 0 0 1 3028.8198 -1354)">
		<stop offset="0" style="stop-color:#C0DDFC"/>
		<stop offset="0.19" style="stop-color:#D3E7FD"/>
		<stop offset="0.49" style="stop-color:#EBF4FE"/>
		<stop offset="0.77" style="stop-color:#FAFCFF"/>
		<stop offset="1" style="stop-color:#FFFFFF"/>
	</linearGradient>
	<path d="M463.5,642.6c79.5,0,76.9-130.8,146-148c27.6-6.9,42.6-29,55.4-53.1c21.3-40.1,77.6-23.9,77.6,22.4v178.8
		H463.5z" style="fill:url(#SVGID_9_);"/>
	
		<linearGradient id="SVGID_10_" gradientUnits="userSpaceOnUse" x1="-12737.6172" y1="1923.1461" x2="-12737.6172" y2="1993.8336" gradientTransform="matrix(-1 0 0 1 -12071.2998 -1354)">
		<stop offset="0" style="stop-color:#FFD8A1"/>
		<stop offset="1" style="stop-color:#FFFFFF"/>
	</linearGradient>
	<path d="M586.5,642.8c43,0,39.5-56.4,91.1-50.7c17.7,2,28.3-20.3,33.9-30c9.5-16,34.5-9.6,34.5,9v71.6H586.5z" style="fill:url(#SVGID_10_);"/>
	<g>
		<path d="M466.1,472.9H333.9c-0.6,0-1.1-0.5-1.1-1.1s0.5-1.1,1.1-1.1h132.3c0.6,0,1.1,0.5,1.1,1.1
			S466.7,472.9,466.1,472.9z" style="fill:#FD8D45;"/>
	</g>
	<g>
		<path d="M460.3,512H339.7c-0.6,0-1.1-0.5-1.1-1.1s0.5-1.1,1.1-1.1h120.5c0.6,0,1.1,0.5,1.1,1.1S460.9,512,460.3,512z
			" style="fill:#FD8D45;"/>
	</g>
</g>
</svg>
