<?xml version="1.0" encoding="iso-8859-1"?>
<!-- Generator: Adobe Illustrator 23.0.2, SVG Export Plug-In . SVG Version: 6.00 Build 0)  -->
<svg version="1.1" id="Layer_1" xmlns="http://www.w3.org/2000/svg" xmlns:xlink="http://www.w3.org/1999/xlink" x="0px" y="0px"
	 viewBox="0 0 1105.6 1080" style="enable-background:new 0 0 1105.6 1080;" xml:space="preserve">
<g style="opacity:0.3;">
	<g>
		<path style="fill:#C4ECFE;" d="M1026.7,80.7V885H78.8V80.7H1026.7 M1029.8,77.6H75.7v810.5h954.1L1029.8,77.6L1029.8,77.6z"/>
	</g>
	<g>
		<g>
			<rect x="75.7" y="652.2" style="fill:#C4ECFE;" width="954.1" height="2.9"/>
		</g>
		<g>
			<rect x="75.7" y="536.1" style="fill:#C4ECFE;" width="954.1" height="2.9"/>
		</g>
		<g>
			<rect x="75.7" y="652.2" style="fill:#C4ECFE;" width="954.1" height="2.9"/>
		</g>
		<g>
			<rect x="75.7" y="768.2" style="fill:#C4ECFE;" width="954.1" height="2.9"/>
		</g>
		<g>
			<rect x="75.7" y="420.1" style="fill:#C4ECFE;" width="954.1" height="2.9"/>
		</g>
		<g>
			<rect x="75.7" y="304" style="fill:#C4ECFE;" width="954.1" height="2.9"/>
		</g>
		<g>
			<rect x="75.7" y="188" style="fill:#C4ECFE;" width="954.1" height="2.9"/>
		</g>
	</g>
</g>
<g>
	<circle style="fill:#BFD9FF;" cx="121.6" cy="451" r="4.1"/>
	<circle style="fill:#BFD9FF;" cx="646.5" cy="726.9" r="4.1"/>
	<circle style="fill:#BFD9FF;" cx="987.7" cy="150.6" r="4.1"/>
	<circle style="fill:#BFD9FF;" cx="543.6" cy="122.1" r="4.1"/>
	<circle style="fill:#BFD9FF;" cx="144" cy="161.3" r="4.1"/>
	<circle style="fill:#BFD9FF;" cx="760.8" cy="342.6" r="3.8"/>
</g>
<g>
	<g>
		<g>
			<path style="fill:#DBECFD;" d="M973.3,422.7c-3,0-5.5-2.5-5.5-5.5V264.8c0-3,2.5-5.5,5.5-5.5s5.5,2.5,5.5,5.5v152.4
				C978.8,420.2,976.3,422.7,973.3,422.7z"/>
		</g>
	</g>
	<g>
		<path style="fill:#DBECFD;" d="M973.3,305.9c-2.6,0-5-1.9-5.4-4.6c-1.5-9.2-9.7-15.6-19.1-14.9c-3,0.2-5.7-2-5.9-5.1
			c-0.2-3,2-5.7,5.1-5.9c15.1-1.1,28.3,9.2,30.7,24.1c0.5,3-1.5,5.8-4.5,6.3C973.9,305.9,973.6,305.9,973.3,305.9z"/>
	</g>
	<g>
		<path style="fill:#DBECFD;" d="M973.3,305.9c-0.3,0-0.6,0-0.9-0.1c-3-0.5-5-3.3-4.5-6.3c2.5-14.8,15.7-25.2,30.7-24.1
			c3,0.2,5.3,2.9,5.1,5.9s-2.9,5.3-5.9,5.1c-9.3-0.7-17.5,5.7-19.1,14.9C978.3,304,975.9,305.9,973.3,305.9z"/>
	</g>
	<g>
		<path style="fill:#DBECFD;" d="M973.3,333.5c-2.6,0-5-1.9-5.4-4.6c-1.5-9.2-9.7-15.6-19.1-14.9c-3,0.2-5.7-2-5.9-5.1
			c-0.2-3,2-5.7,5.1-5.9c15.1-1.1,28.3,9.2,30.7,24.1c0.5,3-1.5,5.8-4.5,6.3C973.9,333.5,973.6,333.5,973.3,333.5z"/>
	</g>
	<g>
		<path style="fill:#DBECFD;" d="M973.3,333.5c-0.3,0-0.6,0-0.9-0.1c-3-0.5-5-3.3-4.5-6.3c2.5-14.8,15.7-25.2,30.7-24.1
			c3,0.2,5.3,2.9,5.1,5.9s-2.9,5.3-5.9,5.1c-9.3-0.7-17.5,5.7-19.1,14.9C978.3,331.6,975.9,333.5,973.3,333.5z"/>
	</g>
</g>
<g>
	<g>
		<g>
			<path style="fill:#DBECFD;" d="M868,498.9c-3,0-5.5-2.5-5.5-5.5V341c0-3,2.5-5.5,5.5-5.5s5.5,2.5,5.5,5.5v152.4
				C873.5,496.4,871,498.9,868,498.9z"/>
		</g>
	</g>
	<g>
		<path style="fill:#DBECFD;" d="M868,382.1c-2.6,0-5-1.9-5.4-4.6c-1.5-9.2-9.7-15.6-19.1-14.9c-3,0.2-5.7-2-5.9-5.1
			c-0.2-3,2-5.7,5.1-5.9c15.1-1.1,28.3,9.2,30.7,24.1c0.5,3-1.5,5.8-4.5,6.3C868.6,382.1,868.3,382.1,868,382.1z"/>
	</g>
	<g>
		<path style="fill:#DBECFD;" d="M868,382.1c-0.3,0-0.6,0-0.9-0.1c-3-0.5-5-3.3-4.5-6.3c2.5-14.8,15.7-25.2,30.7-24.1
			c3,0.2,5.3,2.9,5.1,5.9s-2.9,5.3-5.9,5.1c-9.3-0.7-17.5,5.7-19.1,14.9C873,380.2,870.6,382.1,868,382.1z"/>
	</g>
	<g>
		<path style="fill:#DBECFD;" d="M868,409.7c-2.6,0-5-1.9-5.4-4.6c-1.5-9.2-9.7-15.6-19.1-14.9c-3,0.2-5.7-2-5.9-5.1
			c-0.2-3,2-5.7,5.1-5.9c15.1-1.1,28.3,9.2,30.7,24.1c0.5,3-1.5,5.8-4.5,6.3C868.6,409.7,868.3,409.7,868,409.7z"/>
	</g>
	<g>
		<path style="fill:#DBECFD;" d="M868,409.7c-0.3,0-0.6,0-0.9-0.1c-3-0.5-5-3.3-4.5-6.3c2.5-14.8,15.7-25.2,30.7-24.1
			c3,0.2,5.3,2.9,5.1,5.9s-2.9,5.3-5.9,5.1c-9.3-0.7-17.5,5.7-19.1,14.9C873,407.8,870.6,409.7,868,409.7z"/>
	</g>
</g>
<linearGradient id="SVGID_1_" gradientUnits="userSpaceOnUse" x1="-7559.1245" y1="178.5003" x2="-7863.0454" y2="551.4943" gradientTransform="matrix(-1 0 0 1 -6998.6714 312)">
	<stop  offset="0" style="stop-color:#C0DDFC"/>
	<stop  offset="0.1856" style="stop-color:#D3E7FD"/>
	<stop  offset="0.4877" style="stop-color:#EBF4FE"/>
	<stop  offset="0.766" style="stop-color:#FAFCFF"/>
	<stop  offset="0.9958" style="stop-color:#FFFFFF"/>
</linearGradient>
<path style="opacity:0.12;fill:url(#SVGID_1_);enable-background:new    ;" d="M337.8,855.8c103.1-6.2,136.8-137.8,196.9-189.7
	s190-14.8,218.2-156.4c18.8-94.6,103.3-98.8,173.8-133.6c38.4-19,84.7,6.9,84.7,47.5v432.1H337.8V855.8z"/>
<linearGradient id="SVGID_2_" gradientUnits="userSpaceOnUse" x1="-7577.6626" y1="210.7244" x2="-7881.584" y2="583.7184" gradientTransform="matrix(-1 0 0 1 -6998.6714 312)">
	<stop  offset="0" style="stop-color:#C0DDFC"/>
	<stop  offset="0.1856" style="stop-color:#D3E7FD"/>
	<stop  offset="0.4877" style="stop-color:#EBF4FE"/>
	<stop  offset="0.766" style="stop-color:#FAFCFF"/>
	<stop  offset="0.9958" style="stop-color:#FFFFFF"/>
</linearGradient>
<path style="fill:url(#SVGID_2_);" d="M356.4,888.1c103.1-6.2,136.8-137.8,196.9-189.7s190-14.8,218.2-156.4
	c18.8-94.6,103.3-98.8,173.8-133.6c38.4-19,84.7,6.9,84.7,47.5V888L356.4,888.1L356.4,888.1z"/>
<rect x="104.6" y="883.9" style="fill:#2B2B2B;" width="743.9" height="4.1"/>
<g>
	<path style="fill:#2B2B2B;" d="M850.6,643.4h-26.4c-16.5,0-30,13.4-30,30l0,0h56.3v-30H850.6z"/>
	<g>
		<path style="fill:#3E434A;" d="M923.5,824.9c0,32.8-26.6,59.3-59.3,59.3c-0.4,0-27,0-27.4,0c-32.2-0.6-31.9-26.9-31.9-59.3
			c0-32,1.3-58.1,33-59.3c0.7,0,25.6,0,26.3,0C896.9,765.6,923.5,792.1,923.5,824.9z"/>
		<g>
			<path style="fill:#FFDDA7;" d="M864.2,852.7c-15.3,0-27.8-12.5-27.8-27.8s12.5-27.8,27.8-27.8s27.8,12.5,27.8,27.8
				S879.5,852.7,864.2,852.7z M864.2,797.9c-14.9,0-27,12.1-27,27s12.1,27,27,27s27-12.1,27-27S879.1,797.9,864.2,797.9z"/>
		</g>
		<circle style="fill:#3E434A;" cx="836.8" cy="824.9" r="59.3"/>
		<g>
			<path style="fill:#3E434A;" d="M836.8,853.9c-16,0-29-13-29-29s13-29,29-29s29,13,29,29S852.8,853.9,836.8,853.9z M836.8,799.1
				c-14.2,0-25.8,11.6-25.8,25.8s11.6,25.8,25.8,25.8s25.8-11.6,25.8-25.8S851,799.1,836.8,799.1z"/>
		</g>
	</g>
	<g>
		<path style="fill:#3E434A;" d="M478.4,824.9c0,32.8-26.6,59.3-59.3,59.3c-0.4,0-27,0-27.4,0c-32.2-0.6-31.9-26.9-31.9-59.3
			c0-32,1.3-58.1,33-59.3c0.7,0,25.6,0,26.3,0C451.8,765.6,478.4,792.1,478.4,824.9z"/>
		<g>
			<path style="fill:#FFDDA7;" d="M419,852.7c-15.3,0-27.8-12.5-27.8-27.8s12.5-27.8,27.8-27.8s27.8,12.5,27.8,27.8
				S434.3,852.7,419,852.7z M419,797.9c-14.9,0-27,12.1-27,27s12.1,27,27,27s27-12.1,27-27S433.9,797.9,419,797.9z"/>
		</g>
		<circle style="fill:#3E434A;" cx="391.6" cy="824.9" r="59.3"/>
		<g>
			<path style="fill:#3E434A;" d="M391.6,853.9c-16,0-29-13-29-29s13-29,29-29s29,13,29,29S407.6,853.9,391.6,853.9z M391.6,799.1
				c-14.2,0-25.8,11.6-25.8,25.8s11.6,25.8,25.8,25.8s25.8-11.6,25.8-25.8S405.8,799.1,391.6,799.1z"/>
		</g>
	</g>
	<path style="fill:#FCD850;" d="M973.3,743.7V803c0,3.7-0.9,7.2-2.6,10.3c-1.7,3.1-4.1,5.9-7.2,7.9c-3.6,2.4-7.8,3.6-12.1,3.6H288
		c-3.7,0-7.3-0.7-10.7-2.1c-3.4-1.4-6.5-3.4-9.1-6.1c-5.2-5.3-8.2-12.4-8.2-19.8V732c0-2.1,0.4-4.2,1.2-6.2c0.8-1.9,1.9-3.6,3.4-5.1
		c3-3.1,4.8-7.2,4.8-11.5v-43.7l81.5-384c9.4-9.7,22.3-15.1,35.8-15.1h233.2c0.1,0,0.2,0,0.2,0c12.9,0.1,24.4,8.1,29.4,20
		l161.9,377.3l106.4,15.7c6.9,1,13.5,3.1,19.7,6.2c6.1,3.1,11.8,7.2,16.7,12.1c1.6,1.6,3.1,3.3,4.5,5.1c4.2,5.1,7.5,10.9,9.9,17
		C971.7,727.4,973.3,735.4,973.3,743.7z"/>
	<g>
		<polygon id="XMLID_120_" style="fill:#FFFFFF;" points="537.7,287.4 678.7,664 811.6,664 650.6,287.4 		"/>
	</g>
	<g>
		<path style="fill:#FFDDA7;" d="M300.2,705h-31.1v-39.2h0.4c16.8,0,30.6,13.8,30.7,30.7V705z M269.9,704.2h29.5v-7.7
			c-0.1-16.3-13.3-29.7-29.5-29.9V704.2z"/>
	</g>
	<rect x="139.5" y="741.7" style="fill:#3E434A;" width="629.2" height="83.2"/>
	<g>
		<path style="fill:#3E434A;" d="M316.9,824.9c0,32.8-26.6,59.3-59.3,59.3c-0.4,0-27,0-27.4,0c-32.2-0.6-31.9-26.9-31.9-59.3
			c0-32,1.3-58.1,33-59.3c0.7,0,25.6,0,26.3,0C290.3,765.6,316.9,792.1,316.9,824.9z"/>
		<g>
			<path style="fill:#FFDDA7;" d="M257.6,852.7c-15.3,0-27.8-12.5-27.8-27.8s12.5-27.8,27.8-27.8s27.8,12.5,27.8,27.8
				S272.9,852.7,257.6,852.7z M257.6,797.9c-14.9,0-27,12.1-27,27s12.1,27,27,27s27-12.1,27-27S272.5,797.9,257.6,797.9z"/>
		</g>
		<circle style="fill:#95989C;" cx="230.2" cy="824.9" r="59.3"/>
		<g>
			<path style="fill:#3E434A;" d="M230.1,853.9c-6.7,0-13.1-2.3-18.3-6.6c-6-4.9-9.7-11.9-10.5-19.6c-1.6-15.9,10.1-30.1,26-31.7
				l0,0c7.7-0.8,15.3,1.5,21.2,6.4c6,4.9,9.7,11.9,10.5,19.6c0.8,7.7-1.5,15.3-6.4,21.2s-11.9,9.7-19.6,10.5
				C232.1,853.8,231.1,853.9,230.1,853.9z M227.7,799.2c-14.2,1.4-24.5,14.1-23.1,28.2c0.7,6.9,4,13,9.3,17.4s12,6.4,18.9,5.7
				s13-4,17.4-9.3s6.4-12,5.7-18.9s-4-13-9.3-17.4S234.5,798.5,227.7,799.2L227.7,799.2z"/>
		</g>
	</g>
	<g>
		<path style="fill:#3E434A;" d="M762,824.9c0,32.8-26.6,59.3-59.3,59.3c-0.4,0-27,0-27.4,0c-32.2-0.6-31.9-26.9-31.9-59.3
			c0-32,1.3-58.1,33-59.3c0.7,0,25.6,0,26.3,0C735.5,765.6,762,792.1,762,824.9z"/>
		<g>
			<path style="fill:#FFDDA7;" d="M702.7,852.7c-15.3,0-27.8-12.5-27.8-27.8s12.5-27.8,27.8-27.8s27.8,12.5,27.8,27.8
				S718,852.7,702.7,852.7z M702.7,797.9c-14.9,0-27,12.1-27,27s12.1,27,27,27s27-12.1,27-27S717.6,797.9,702.7,797.9z"/>
		</g>
		<circle style="fill:#95989C;" cx="675.3" cy="824.9" r="59.3"/>
		<g>
			<path style="fill:#3E434A;" d="M675.3,853.9c-16,0-29-13-29-29s13-29,29-29s29,13,29,29S691.3,853.9,675.3,853.9z M675.3,799.1
				c-14.2,0-25.8,11.6-25.8,25.8s11.6,25.8,25.8,25.8s25.8-11.6,25.8-25.8S689.5,799.1,675.3,799.1z"/>
		</g>
	</g>
	<path style="fill:#FCD850;" d="M808.3,803v-59.4c0-17.2-6.8-33.7-19-45.9l0,0c-9.8-9.8-22.6-16.3-36.4-18.3l-106.4-15.7
		L478.8,272.5c-7.3-4-15.5-6.1-23.8-6.1H221.8c-0.6,0-1.1,0-1.7,0c-18.5,0.6-33.9,14.2-37.8,32.2l-77.8,366.9v43.7
		c0,4.3-1.7,8.4-4.7,11.4l0,0c-3,3-4.7,7.1-4.7,11.4v64.9c0,7.4,3,14.5,8.2,19.8l0,0c5.3,5.3,12.4,8.2,19.8,8.2h35.4v-0.7
		c0-41.9,34-76,76-76l0,0c41.9,0,76,34,76,76v0.7h292.1v-3.4c0-40.5,32.8-73.3,73.3-73.3l0,0c40.5,0,73.3,32.8,73.3,73.3v3.4h37.5
		c4.3,0,8.5-1.3,12.1-3.6l0,0C804.6,817.2,808.3,810.4,808.3,803z"/>
	<g>
		<path style="fill:#F1742E;" d="M175.5,747.1c-9.6,0-17.4-7.8-17.4-17.4s7.8-17.4,17.4-17.4s17.4,7.8,17.4,17.4
			S185.1,747.1,175.5,747.1z M175.5,715.5c-7.8,0-14.2,6.4-14.2,14.2s6.4,14.2,14.2,14.2s14.2-6.4,14.2-14.2
			S183.3,715.5,175.5,715.5z"/>
	</g>
	<path style="fill:#FFFFFF;" d="M183.2,295L107,653.6c0,0,54.4-5.2,76.5-32.5L183.2,295z"/>
	<path style="fill:#95989C;" d="M93.5,811.2h5.1c8.5,0,15.5-6.9,15.5-15.5v-20.6c0-8.5-6.9-15.5-15.5-15.5h-5.1
		c-8.5,0-15.5,6.9-15.5,15.5v20.6C78,804.2,84.9,811.2,93.5,811.2z"/>
	<path style="fill:#F1742E;" d="M104.5,666.2L104.5,666.2v38.4h22.6v-15.8C127.1,676.3,117,666.2,104.5,666.2z"/>
	<path style="fill:#95989C;" d="M968.8,839.3H776.9c-10.4,0-18.9-8.5-18.9-18.9l0,0c0-10.4,8.5-18.9,18.9-18.9h191.9
		c10.4,0,18.9,8.5,18.9,18.9l0,0C987.7,830.9,979.2,839.3,968.8,839.3z"/>
	<path style="fill:#FFFFFF;" d="M626.1,673.3L470.9,287.4H250.4c-9.6,0-17.4,7.8-17.4,17.4v323.6c0,8.6,6.3,15.9,14.8,17.2L278,650
		l149.5-6.6L626.1,673.3z"/>
	<g>
		<polygon style="fill:#FCD850;" points="408.3,287.4 434.9,673.3 434.9,824.9 554.7,824.9 625.5,673.3 469.1,287.4 		"/>
		<rect x="459.5" y="699.7" style="fill:#F1742E;" width="31.9" height="9.6"/>
		<polygon id="XMLID_67_" style="fill:#FFFFFF;" points="434.9,673.3 408.3,287.4 482.4,287.4 627.9,673.3 		"/>
		<path style="fill:#F9D5FF;" d="M491.2,673.3h-56.3l-26.6-385.9h65.8c-1.7,26.6-22.6,41.1-22.4,50.4c0.2,10,3.2,17.5,3.2,17.5
			l-0.1,0.1c8.6,18.1,32.9,187.7,37.2,234.3C493.3,604.3,492.7,636.2,491.2,673.3z"/>
	</g>
	<path style="fill:#F1932E;" d="M573.4,643.4h26.4c16.5,0,30,13.4,30,30l0,0h-56.3v-30H573.4z"/>
	
		<ellipse transform="matrix(0.3409 -0.9401 0.9401 0.3409 -150.3484 1160.8883)" style="fill:#FFEAA1;" cx="752.735" cy="687.668" rx="2.8" ry="5"/>
	<g>
		<polyline style="fill:#FCD850;" points="410.1,287.4 278,287.4 278,650 278,702.9 345.7,824.9 436.8,824.9 436.8,673.3 
			410.1,287.4 		"/>
		<polygon style="fill:#F9D5FF;" points="278,287.4 410.1,287.4 436.8,673.3 278,650 		"/>
		<rect x="303.1" y="699.7" style="fill:#F1742E;" width="31.9" height="9.6"/>
	</g>
	<g>
		<path style="fill:#2B2B2B;" d="M811.6,665.5c-0.6,0-1.1-0.3-1.4-0.9L649.2,288c-0.3-0.8,0-1.6,0.8-2c0.8-0.3,1.6,0,2,0.8
			l161,376.6c0.3,0.8,0,1.6-0.8,2C812,665.5,811.8,665.5,811.6,665.5z"/>
	</g>
	<g>
		<path style="fill:#2B2B2B;" d="M106.9,655.1c-0.1,0-0.2,0-0.3,0c-0.8-0.2-1.3-1-1.2-1.8l76.3-358.6c0.2-0.8,1-1.3,1.8-1.2
			c0.8,0.2,1.3,1,1.2,1.8l-76.3,358.6C108.2,654.6,107.6,655.1,106.9,655.1z"/>
	</g>
	<g>
		<path style="fill:#2B2B2B;" d="M436.8,826.4c-0.8,0-1.5-0.7-1.5-1.5V673.3c0-0.8,0.7-1.5,1.5-1.5s1.5,0.7,1.5,1.5v151.6
			C438.3,825.7,437.6,826.4,436.8,826.4z"/>
	</g>
	<g>
		<path style="fill:#F9D5FF;" d="M436.8,674.8c-0.8,0-1.4-0.6-1.5-1.4l-26.7-385.9c-0.1-0.8,0.6-1.5,1.4-1.6s1.5,0.6,1.6,1.4
			l26.7,385.9c0.1,0.8-0.6,1.5-1.4,1.6C436.9,674.8,436.8,674.8,436.8,674.8z"/>
	</g>
	<g>
		<path style="fill:#2B2B2B;" d="M345.7,826.4c-0.5,0-1-0.3-1.3-0.8l-67.9-122.3V650c0-0.8,0.7-1.5,1.5-1.5s1.5,0.7,1.5,1.5v52.5
			L347,824.2c0.4,0.7,0.1,1.6-0.6,2C346.2,826.3,345.9,826.4,345.7,826.4z"/>
	</g>
	<g>
		<path style="fill:#F9D5FF;" d="M278,651.5c-0.8,0-1.5-0.7-1.5-1.5V287.4c0-0.8,0.7-1.5,1.5-1.5s1.5,0.7,1.5,1.5V650
			C279.5,650.8,278.8,651.5,278,651.5z"/>
	</g>
	<circle style="fill:#FFFFFF;" cx="816" cy="749" r="24.7"/>
	<circle style="fill:#FFFFFF;" cx="941.6" cy="749" r="24.7"/>
	<g>
		<path style="fill:#2B2B2B;" d="M858,771.2c-0.8,0-1.5-0.7-1.5-1.5v-40c0-0.8,0.7-1.5,1.5-1.5s1.5,0.7,1.5,1.5v40
			C859.5,770.5,858.8,771.2,858,771.2z"/>
	</g>
	<g>
		<path style="fill:#2B2B2B;" d="M868,771.2c-0.8,0-1.5-0.7-1.5-1.5v-40c0-0.8,0.7-1.5,1.5-1.5s1.5,0.7,1.5,1.5v40
			C869.5,770.5,868.8,771.2,868,771.2z"/>
	</g>
	<g>
		<path style="fill:#2B2B2B;" d="M878,771.2c-0.8,0-1.5-0.7-1.5-1.5v-40c0-0.8,0.7-1.5,1.5-1.5s1.5,0.7,1.5,1.5v40
			C879.5,770.5,878.8,771.2,878,771.2z"/>
	</g>
	<g>
		<path style="fill:#2B2B2B;" d="M888,771.2c-0.8,0-1.5-0.7-1.5-1.5v-40c0-0.8,0.7-1.5,1.5-1.5s1.5,0.7,1.5,1.5v40
			C889.5,770.5,888.8,771.2,888,771.2z"/>
	</g>
	<g>
		<path style="fill:#2B2B2B;" d="M898,771.2c-0.8,0-1.5-0.7-1.5-1.5v-40c0-0.8,0.7-1.5,1.5-1.5s1.5,0.7,1.5,1.5v40
			C899.5,770.5,898.8,771.2,898,771.2z"/>
	</g>
</g>
<linearGradient id="SVGID_3_" gradientUnits="userSpaceOnUse" x1="-14161.1846" y1="479.5974" x2="-14161.1846" y2="572.2195" gradientTransform="matrix(-1 0 0 1 -13236.0342 312)">
	<stop  offset="0" style="stop-color:#FFD8A1"/>
	<stop  offset="0.9958" style="stop-color:#FFFFFF"/>
</linearGradient>
<path style="fill:url(#SVGID_3_);" d="M820.4,888.1c46.3,0,67.5-67.9,122.1-61.4c16.4,2,34.7-31.6,42.1-44.2
	c12.4-21,45.3-12.5,45.3,11.7v93.9H820.4z"/>
<g>
	<polygon style="fill:#2B2B2B;" points="482.4,287.4 546.8,257.9 436.8,266.4 436.8,287.4 	"/>
	<path style="fill:#86C0F2;" d="M537.7,194.1h-17.5c-16,0-32,1.9-47.6,5.7l-101.6,25c-22.8,6.2-36.3,29.6-30.2,52.5
		c6.2,22.8,29.6,36.3,52.5,30.2l99.9-40.9l46.7-1.2c19.3-1.2,34.1-17.7,33.3-37l0,0C572.4,209.1,556.8,194.1,537.7,194.1z"/>
	<path style="fill:#FDC068;" d="M221,518.1l-20.6,30.7c-9.5,14.2-28.8,18-43,8.4c-12.5-8.4-16.9-24.4-11.2-37.8l15.3-36.1"/>
	<path style="fill:#86C0F2;" d="M161.4,483.4l113.4-223.3c12.5-20,45.3-28.6,65.3-16.1s26.1,39,13.5,59L221,518.1L161.4,483.4z"/>
	<g>
		<circle style="fill:#FDC068;" cx="300.9" cy="144.2" r="16.9"/>
		
			<linearGradient id="SVGID_4_" gradientUnits="userSpaceOnUse" x1="348.9975" y1="45.9066" x2="348.9975" y2="526.3732" gradientTransform="matrix(1 0 0 1 0 312)">
			<stop  offset="0" style="stop-color:#D96359"/>
			<stop  offset="0.3215" style="stop-color:#90979D"/>
			<stop  offset="0.5011" style="stop-color:#7E9DAE"/>
			<stop  offset="0.6828" style="stop-color:#B8C1FC"/>
			<stop  offset="1" style="stop-color:#D2D4D4"/>
		</linearGradient>
		<path style="fill:url(#SVGID_4_);" d="M287,357.2c-10.4,30.2,4.8,71.4,38.9,70c26.2-1.1,28.1-0.1,39.2-0.6
			c35-1.5,57.6-38.1,46.1-71.2L287,357.2z"/>
		<path style="fill:#86C0F2;" d="M407.9,337.9c0.2,10,3.2,17.5,3.2,17.5L287,357.2c10.2-29.6-18.7-27-21.7-68.5l0,0
			c0-0.2,0-0.4,0-0.6c-0.1-0.7-0.1-1.4-0.1-2.1h0.1c0.8-20.9,20.5-46.9,48.1-55.3c5.2-1.6,10.7-2.6,16.5-2.8l32.8-2.2
			c6.8-0.2,13.3,0.5,19.2,2.1c29.6,7.6,47.7,34.4,48.5,53.9C431.8,312,407.7,327.8,407.9,337.9z"/>
		<g>
			<rect x="347.5" y="251.6" style="fill:#2B2B2B;" width="2.9" height="104.7"/>
		</g>
		<path style="fill:#FFFFFF;" d="M382.4,233.8c0,19.1-15.5,34.6-34.6,34.6s-34.6-15.5-34.6-34.6c0-1.1,0-2.1,0.1-3.2
			c5.2-1.6,10.7-2.6,16.5-2.8l32.8-2.2c6.8-0.2,13.3,0.5,19.2,2.1C382.3,229.6,382.4,231.7,382.4,233.8z"/>
		<circle style="fill:#FDC068;" cx="389.9" cy="144.2" r="16.9"/>
		<path style="fill:#2B2B2B;" d="M366,251.6l40.8-35.7c0,0-23.8,6.9-44.1,9.7L366,251.6z"/>
		<path style="fill:#FDC068;" d="M321.2,231.6l0.7-79.4l47.8-1.7l5.3,79.2c1.2,14.9-10.4,27.8-25.4,28h-2.1
			C333,258.1,321,246.3,321.2,231.6z"/>
		<polygon style="fill:#2B2B2B;" points="330.6,195.8 374.2,217.6 372.1,187.6 		"/>
		<path id="XMLID_1_" style="fill:#FDC068;" d="M346.7,199.1L346.7,199.1c-21,0-38.6-15.9-40.9-36.8l-3.9-36.5
			c0-24.8,20.2-44.9,45-44.9l0,0c24.8,0,44.9,20.2,44.9,45l-4,36.5C385.4,183.3,367.7,199.1,346.7,199.1z"/>
		<g>
			<path style="fill:#2B2B2B;" d="M287.1,358.7c-0.1,0-0.2,0-0.3,0c-0.8-0.2-1.3-0.9-1.1-1.7c3-14.3,1.7-22.1-4.9-27.8
				c-0.6-0.5-0.7-1.4-0.1-2c0.5-0.6,1.4-0.7,2-0.1c9.2,8,8.2,19.4,5.9,30.6C288.4,358.2,287.8,358.7,287.1,358.7z"/>
		</g>
	</g>
	<polygon style="fill:#2B2B2B;" points="478.3,673.3 467.8,828.3 419,828.3 440.7,673.3 	"/>
	
		<linearGradient id="SVGID_5_" gradientUnits="userSpaceOnUse" x1="277.7146" y1="-56.6513" x2="277.7146" y2="456.3982" gradientTransform="matrix(0.9999 0.013 -0.013 0.9999 103.6372 410.133)">
		<stop  offset="0" style="stop-color:#D96359"/>
		<stop  offset="0.3215" style="stop-color:#90979D"/>
		<stop  offset="0.5011" style="stop-color:#7E9DAE"/>
		<stop  offset="0.6828" style="stop-color:#B8C1FC"/>
		<stop  offset="1" style="stop-color:#D2D4D4"/>
	</linearGradient>
	<path style="fill:url(#SVGID_5_);" d="M411.1,355.3c8.6,17.8,32.9,187.7,37.2,234.4S436.7,858.3,437,863.3l-71.7-1.7
		c0,0-21.1-282.2-23.8-301.4l-30.2-172.6L411.1,355.3z"/>
	<g>
		<path style="fill:#2B2B2B;" d="M467.3,886.7h-90.7c-5.9,0-10.8-4.7-10.9-10.7l-0.3-14.4l71.7,0.7l31.6,13.4
			C475,877.3,473.9,886.7,467.3,886.7z"/>
	</g>
	<path style="fill:#2B2B2B;" d="M289.5,772l42.8-114l-59.1-9l-24,100.7C249.2,749.7,272.8,754,289.5,772z"/>
	
		<linearGradient id="SVGID_6_" gradientUnits="userSpaceOnUse" x1="-11822.8398" y1="102.6375" x2="-11822.8398" y2="618.5241" gradientTransform="matrix(-0.9999 0.013 0.013 0.9999 -11554.7148 410.133)">
		<stop  offset="0" style="stop-color:#D96359"/>
		<stop  offset="0.3215" style="stop-color:#90979D"/>
		<stop  offset="0.5011" style="stop-color:#7E9DAE"/>
		<stop  offset="0.6828" style="stop-color:#B8C1FC"/>
		<stop  offset="1" style="stop-color:#D2D4D4"/>
	</linearGradient>
	<path style="fill:url(#SVGID_6_);" d="M287,357.2c-8.6,17.8-45.3,158.6-58.5,203.5S145,857,144.6,862l69.7,6.5
		c0,0,102-265.8,111.8-282.5l72.7-200L287,357.2z"/>
	<g>
		<path style="fill:#2B2B2B;" d="M91.9,886.7h113.5c5.9,0,10.8-4.7,10.9-10.7l0.3-14.4l-71.7,0.7l-54.4,13.4
			C84.2,877.3,85.3,886.7,91.9,886.7z"/>
	</g>
	<circle style="fill:#2B2B2B;" cx="326.1" cy="136.1" r="4.5"/>
	<circle style="fill:#2B2B2B;" cx="365.1" cy="136.1" r="4.7"/>
	<g>
		<path style="fill:#2B2B2B;" d="M345.5,153.1c-0.5,0-1-0.2-1.2-0.7c-0.4-0.7-0.2-1.6,0.4-2l4-2.5c0.8-0.8,0.9-2,0.2-2.9
			c-2.8-3.1-4.4-7.2-4.4-11.3v-1.3c0-0.8,0.6-1.5,1.5-1.5s1.5,0.6,1.5,1.5v1.3c0,3.5,1.3,6.8,3.6,9.4c0.9,1,1.3,2.3,1.2,3.7
			c-0.1,1.3-0.7,2.5-1.7,3.4l-0.2,0.1l-4.1,2.6C346,153,345.8,153.1,345.5,153.1z"/>
	</g>
	<path style="fill:#2B2B2B;" d="M383.8,153.8l-7.2,8.4c-2.8,3.3-8,3.2-10.6-0.2l-3.3-4.2c-1.9-2.5-4.9-3.9-8.1-3.9h-8.2h-8.2
		c-3.2,0-6.1,1.5-8.1,3.9L327,162c-2.7,3.4-7.8,3.5-10.6,0.2l-7.2-8.4H305v11.9c0,20.4,16.5,36.8,36.8,36.8h4.5h0.4h4.5
		c20.4,0,36.8-16.5,36.8-36.8v-11.9H383.8z"/>
	<path style="fill:#FFFFFF;" d="M339.6,164.9c1.1,11.4,13.8,8.3,13.8,0H339.6z"/>
	<path style="fill:#2B2B2B;" d="M305,153.8h4.2v-36.5c0-10.7,10.2-18.5,20.6-15.9l11.1,2.8c2.8,0.7,5.8,0.7,8.7-0.1l12.4-3.5
		c10.2-2.9,20.5,4.3,21,14.8l1.4,38.4h4.5l2.8-22c3.8-26.9-17.3-51-44.7-51l0,0c-27.1,0-48,23.5-44.8,50.2L305,153.8z"/>
	<circle style="fill:#FFFFFF;" cx="489" cy="231.9" r="34.5"/>
	<path style="fill:#FDC068;" d="M486,259.8h-4.6c-15.4,0-27.9-12.5-27.9-27.9l0,0c0-15.4,12.5-27.9,27.9-27.9h4.6
		c15.4,0,27.9,12.5,27.9,27.9l0,0C513.9,247.3,501.4,259.8,486,259.8z"/>
	<polygon style="fill:#FFFFFF;" points="287,355.3 411.3,355.3 415,368.6 283,368.6 	"/>
	<g>
		<path style="fill:#2B2B2B;" d="M429.6,295.2c-0.8,0-1.5-0.6-1.5-1.5V275c0-0.8,0.6-1.5,1.5-1.5s1.5,0.6,1.5,1.5v18.7
			C431.1,294.6,430.4,295.2,429.6,295.2z"/>
	</g>
	<polygon style="fill:#FFFFFF;" points="221,518.1 161.4,483.4 167,472.4 227.2,508 	"/>
	<g>
		
			<rect x="311.513" y="509.103" transform="matrix(0.3044 -0.9525 0.9525 0.3044 -241.5722 690.296)" style="fill:#2B2B2B;" width="80.697" height="2.9"/>
	</g>
	<g>
		
			<rect x="351.409" y="623.885" transform="matrix(0.7377 -0.6751 0.6751 0.7377 -333.5035 403.744)" style="fill:#2B2B2B;" width="2.9" height="14.4"/>
	</g>
</g>
<g>
	<path style="fill:#F9D5FF;" d="M825.1,248v-10c25.6,0,53.8-43.6,78.6-82c25.2-39.1,47-72.8,69.6-72.8v10
		c-17.1,0-39.5,34.7-61.2,68.2C884.6,204,856.2,248,825.1,248z"/>
</g>
<g>
	<path style="fill:#F9D5FF;" d="M138.6,264.7c-17.1-3.1-23.5-22.9-29.6-42c-8.3-25.6-15-42.3-33.3-42.3v-10
		c26.9,0,35.3,26.2,42.8,49.2c5.5,17.1,10.7,33.2,21.9,35.2L138.6,264.7z"/>
</g>
</svg>
