<?xml version="1.0" encoding="utf-8"?>
<!-- Generator: Adobe Illustrator 22.0.1, SVG Export Plug-In . SVG Version: 6.00 Build 0)  -->
<svg version="1.1" id="Layer_1" xmlns="http://www.w3.org/2000/svg" xmlns:xlink="http://www.w3.org/1999/xlink" x="0px" y="0px" viewBox="0 0 800 781.5" style="enable-background:new 0 0 800 781.5;" xml:space="preserve">

<title>source_final_all</title>
<g>
	<rect width="800" height="781.5" style="fill:#FFFFFF;"/>
	<g style="opacity:0.3;">
		<path d="M743,58.4v582H57v-582H743 M745.2,56.2H54.8v586.5h690.4L745.2,56.2L745.2,56.2z" style="fill:#C4ECFE;"/>
		<g>
			<rect x="221.9" y="56.2" width="2.1" height="586.5" style="fill:#C4ECFE;"/>
		</g>
		<g>
			<rect x="309.7" y="56.2" width="2.1" height="586.5" style="fill:#C4ECFE;"/>
		</g>
		<g>
			<rect x="221.9" y="56.2" width="2.1" height="586.5" style="fill:#C4ECFE;"/>
		</g>
		<g>
			<rect x="134" y="56.2" width="2.1" height="586.5" style="fill:#C4ECFE;"/>
		</g>
		<g>
			<rect x="397.5" y="56.2" width="2.1" height="586.5" style="fill:#C4ECFE;"/>
		</g>
		<g>
			<rect x="485.3" y="56.2" width="2.1" height="586.5" style="fill:#C4ECFE;"/>
		</g>
		<g>
			<rect x="572.1" y="56.2" width="2.1" height="586.5" style="fill:#C4ECFE;"/>
		</g>
		<g>
			<rect x="658.9" y="56.2" width="2.1" height="586.5" style="fill:#C4ECFE;"/>
		</g>
	</g>
	<circle cx="710.6" cy="398.7" r="3" style="fill:#BFD9FF;"/>
	<circle cx="697.3" cy="178.1" r="3" style="fill:#BFD9FF;"/>
	<circle cx="165.1" cy="128.1" r="3" style="fill:#BFD9FF;"/>
	<circle cx="442.6" cy="74.8" r="3" style="fill:#BFD9FF;"/>
	<circle cx="267.7" cy="474" r="2.7" style="fill:#BFD9FF;"/>
	
		<linearGradient id="SVGID_1_" gradientUnits="userSpaceOnUse" x1="225.7776" y1="1819.6818" x2="82.5142" y2="1995.5066" gradientTransform="matrix(-1 0 0 1 764.47 -1354)">
		<stop offset="0" style="stop-color:#C0DDFC"/>
		<stop offset="0.19" style="stop-color:#D3E7FD"/>
		<stop offset="0.49" style="stop-color:#EBF4FE"/>
		<stop offset="0.77" style="stop-color:#FAFCFF"/>
		<stop offset="1" style="stop-color:#FFFFFF"/>
	</linearGradient>
	<path d="M443.3,642.6c46.2-3,61.4-66.3,88.4-91.2c27-25,85.2-7.1,97.9-75.2c8.5-45.5,46.4-47.5,77.9-64.3
		c17.2-9.1,38,3.3,38,22.9v207.8H443.3z" style="fill:url(#SVGID_1_);"/>
	<rect x="135" y="639.4" width="552.6" height="3.2" style="fill:#2B2B2B;"/>
	
		<linearGradient id="SVGID_2_" gradientUnits="userSpaceOnUse" x1="278.1227" y1="1920.2012" x2="278.1227" y2="1571.9305" gradientTransform="matrix(1 0 0 1 0 -1354)">
		<stop offset="0" style="stop-color:#F8809A"/>
		<stop offset="1" style="stop-color:#FFD02D"/>
	</linearGradient>
	<path d="M395.9,178.9c-3-10.8-7.3-20.1-12.8-28c-2-2.7-4.1-5.4-6.4-7.9c-8.8-9.3-19.7-16.2-31.8-20.2
		c-12.5-4.2-26.3-6.3-41.1-6.3c-14.3-0.1-28.7,2-42.3,6.3c-13.2,4.1-25.4,11-35.8,20.2c-10.5,9.3-19.2,21.2-26.2,35.9
		c-6.9,14.7-11.4,32.4-13.5,53.3l-28.7,294.7c-2,20.9-1,38.7,3.1,53.3c4.1,14.7,10.5,26.6,19.2,35.9c8.8,9.3,19.7,16.2,31.8,20.2
		c12.5,4.2,26.3,6.3,41.1,6.3c14.3,0.1,28.7-2,42.3-6.3c13.2-4.1,25.4-11,35.8-20.2c10.5-9.3,19.2-21.2,26.1-35.9
		c6.9-14.7,11.4-32.4,13.5-53.3l28.7-294.7c0.3-2.8,0.5-5.6,0.7-8.3C400.7,206.5,399.4,191.5,395.9,178.9z M337.3,232.1L308.7,527
		c-2.1,22-7.4,37.8-15.6,47.4c-8.3,9.6-20,14.5-35.1,14.5c-15.1,0-25.8-4.8-32.1-14.5c-6.3-9.6-8.3-25.5-6.2-47.4l28.7-294.9
		c2.2-22,7.3-37.8,15.4-47.4c8.2-9.6,19.8-14.5,34.9-14.5c15.1,0,25.9,4.8,32.3,14.5C337.3,194.3,339.4,210.1,337.3,232.1z" style="fill:url(#SVGID_2_);"/>
	<path d="M399.6,223.8c0,0-37.9-41.4-49.5-52.4s-6.7-37.7-6.7-37.7l39.7,17.1c5.5,7.9,9.8,17.2,12.8,28
		C399.4,191.5,400.7,206.5,399.6,223.8z" style="fill:#2B2B2B;"/>
	<g>
		<rect x="297.7" y="105.9" width="19" height="19" style="fill:#FFFFFF;"/>
		<path d="M317.7,126h-21.1v-21.1h21.1V126z M298.8,123.8h16.8v-16.7h-16.8V123.8z" style="fill:#2B2B2B;"/>
	</g>
	
		<linearGradient id="SVGID_3_" gradientUnits="userSpaceOnUse" x1="580.876" y1="1755.3604" x2="580.876" y2="1419.89" gradientTransform="matrix(-1 0 0 1 1188.22 -1354)">
		<stop offset="0" style="stop-color:#F9D5FF"/>
		<stop offset="0.17" style="stop-color:#F9D5FC"/>
		<stop offset="0.32" style="stop-color:#F9D5F1"/>
		<stop offset="0.45" style="stop-color:#FAD6E0"/>
		<stop offset="0.58" style="stop-color:#FBD7C7"/>
		<stop offset="0.71" style="stop-color:#FCD8A7"/>
		<stop offset="0.83" style="stop-color:#FDD97F"/>
		<stop offset="0.95" style="stop-color:#FEDA52"/>
		<stop offset="1" style="stop-color:#FFDB40"/>
	</linearGradient>
	<path d="M533.9,310.7c-9.8-30.3,3.5-33.9-16.9-64.8c-20.5-31,6.4-86.5,5.4-117.7c-0.4-10.4-6.7-27.2-8.7-42.5
		c-2.3-19.1,21.1-30.1,34.3-16.2c4.4,4.8,8.2,10.1,11.1,15.8c1.2,2.2,2.8,4.3,4.8,5.9c6.2,5.2,12.6,10.3,21.3,17.7
		c30.2,25.3,16.1,63.2,28.1,85.2s64.2,22.9,84.7,71.8C742.4,371.6,576.8,443.8,533.9,310.7z" style="fill:url(#SVGID_3_);"/>
	<path d="M392.7,130.2l-19.9-10.3c-9.8-5.1-22-1.2-27.1,8.6c-4.5,8.7-2.1,19.4,5.7,25.3l11.9,9L392.7,130.2z" style="fill:#EA7068;"/>
	
		<linearGradient id="SVGID_4_" gradientUnits="userSpaceOnUse" x1="510.1796" y1="1521.5261" x2="364.4922" y2="1535.9979" gradientTransform="matrix(1 0 0 1 0 -1354)">
		<stop offset="0" style="stop-color:#B8A7D3"/>
		<stop offset="0.4" style="stop-color:#ED4861"/>
		<stop offset="0.5" style="stop-color:#F4837D"/>
		<stop offset="0.59" style="stop-color:#FECEAA"/>
		<stop offset="1" style="stop-color:#B7D5EA"/>
	</linearGradient>
	<path d="M363.3,162.9l62.5,59.1c3.4,1.2,6.9,1.7,10.6,1.8l83.7-13.6c15.1-2.7,25.3-17.1,22.6-32.3
		c-2.6-14.8-16.6-24.8-31.5-22.6l-75.5,12.7l-43.1-37.7L363.3,162.9z" style="fill:url(#SVGID_4_);"/>
	
		<linearGradient id="SVGID_5_" gradientUnits="userSpaceOnUse" x1="531.0801" y1="1511.3589" x2="531.0801" y2="1702.4443" gradientTransform="matrix(1 0 0 1 0 -1354)">
		<stop offset="0" style="stop-color:#B8A7D3"/>
		<stop offset="0.4" style="stop-color:#ED4861"/>
		<stop offset="0.5" style="stop-color:#F4837D"/>
		<stop offset="0.59" style="stop-color:#FECEAA"/>
		<stop offset="1" style="stop-color:#B7D5EA"/>
	</linearGradient>
	<path d="M583.3,251.6l-104.6-10.1c3.2-28,22.3-24.6,17-44.2c-4.3-16.1,2.6-36.1,17.1-41.5c3.4-1.2,7-1.7,10.6-1.2
		c16.6,1.9,17.8,1.3,24.8,2.1c2.2,0.2,4.4,0.7,6.5,1.4c18,6,27.4,27.4,19.6,45.7c-1.5,3.5-2.5,7.2-2.8,10.9
		C570.9,221.3,585.5,232.3,583.3,251.6z" style="fill:url(#SVGID_5_);"/>
	<path d="M556.1,164.9c0,10.7-10.3,19.3-23,19.3c-12.7,0-23-8.7-23-19.3c0-3.2,0.9-6.4,2.7-9c3.4-1.2,7-1.7,10.6-1.2
		c16.6,1.9,17.8,1.3,24.8,2.1c2.2,0.2,4.4,0.7,6.5,1.4C555.6,160.3,556.1,162.6,556.1,164.9z" style="fill:#FFFFFF;"/>
	<path d="M556.1,164.9c0,10.7-10.3,19.3-23,19.3c-12.7,0-23-8.7-23-19.3c0-3.2,0.9-6.4,2.7-9c3.4-1.2,7-1.7,10.6-1.2
		c16.6,1.9,17.8,1.3,24.8,2.1c2.2,0.2,4.4,0.7,6.5,1.4C555.6,160.3,556.1,162.6,556.1,164.9z" style="fill:#FFFFFF;"/>
	<polygon points="477.7,239.7 562.7,250.9 564.3,238.7 479.3,227.5 	" style="fill:#FFFFFF;"/>
	
		<linearGradient id="SVGID_6_" gradientUnits="userSpaceOnUse" x1="502.994" y1="2032.8901" x2="502.994" y2="1641.9277" gradientTransform="matrix(-1.03 -1.000000e-02 -0.13 0.97 1231.7921 -1345.4758)">
		<stop offset="0" style="stop-color:#EA979A"/>
		<stop offset="0.41" style="stop-color:#F2D38B"/>
		<stop offset="0.5" style="stop-color:#7E9DAE"/>
		<stop offset="0.6" style="stop-color:#90979D"/>
		<stop offset="1" style="stop-color:#7EBDDB"/>
	</linearGradient>
	<path d="M480.5,246.8c-17.7,41-30.8,83.1-47,124.5c-19.3,49.1-43.1,238.9-42.8,252.9l53.4-0.4L499.8,425l-0.9,3
		l57.4-156.5C556.7,270.1,487.6,249.4,480.5,246.8L480.5,246.8z" style="fill:url(#SVGID_6_);"/>
	
		<linearGradient id="SVGID_7_" gradientUnits="userSpaceOnUse" x1="598.3965" y1="1973.5514" x2="598.3965" y2="1606.67" gradientTransform="matrix(-1 0 0 1 1188.22 -1354)">
		<stop offset="0" style="stop-color:#EA979A"/>
		<stop offset="0.41" style="stop-color:#F2D38B"/>
		<stop offset="0.5" style="stop-color:#7E9DAE"/>
		<stop offset="0.6" style="stop-color:#90979D"/>
		<stop offset="1" style="stop-color:#7EBDDB"/>
	</linearGradient>
	<path d="M511.5,269.5l-0.1,2.5l-0.1,2.5l-0.1,5l-0.1,10c-0.1,3.3,0.1,6.7,0.1,10l0.2,10c0.4,13.3,1.2,26.6,2.2,39.8
		c0.9,13.2,2.3,26.5,3.8,39.7c1.4,13.2,3.3,26.3,5.1,39.6l0.8,5.4c0.4,2.4,1.1,4.7,2.1,6.9c4.1,8.3,14.9,30.3,20.7,41.5l5.4,10.4
		l5.5,10.4c3.6,6.9,7.5,13.8,11.1,20.8c7.6,13.7,16.8,32.6,24.9,46.1c8.1,13.5,16.4,27.1,25.3,40.3l50.4-19.8l-69.9-179.2l2.7,11.9
		l-22.8-159L511.5,269.5z" style="fill:url(#SVGID_7_);"/>
	
		<linearGradient id="SVGID_8_" gradientUnits="userSpaceOnUse" x1="657.2407" y1="1968.3488" x2="657.2407" y2="1606.8364" gradientTransform="matrix(-1 0 0 1 1188.22 -1354)">
		<stop offset="0" style="stop-color:#EA979A"/>
		<stop offset="0.41" style="stop-color:#F2D38B"/>
		<stop offset="0.5" style="stop-color:#7E9DAE"/>
		<stop offset="0.6" style="stop-color:#90979D"/>
		<stop offset="1" style="stop-color:#7EBDDB"/>
	</linearGradient>
	<path d="M583.3,251.6c-1.7,14.8-19.6,35.2-45.4,32.5l-20.8-2.8c-23.5-2.5-40-25.5-38.3-41.5L583.3,251.6z" style="fill:url(#SVGID_8_);"/>
	<path d="M558.2,370.9l20.3-25.1c6.7-4.6,10.2-12.5,9.3-20.5l-4.3-63.2l-31-29.4l15.6,51.7l-42.9,61.8
		c-4.2,6.1-4.8,13.9-1.7,20.6l0,0c4.8,10.3,17.2,14.8,27.5,9.9C553.8,375.3,556.3,373.4,558.2,370.9z" style="fill:#2B2B2B;"/>
	<path d="M516.2,138.2l19.5,1.2c10.1,0.6,18.7-7.1,19.3-17.1l1.7-29.4c0.9-16.1-11.4-30-27.5-31l0,0
		c-16.1-0.9-30,11.4-30.9,27.5l0,0l-1.6,26.9C496.1,127.7,504.8,137.6,516.2,138.2z" style="fill:#EA7068;"/>
	<path d="M556.7,92.8l-1.7,29.4c-0.6,10.1-9.3,17.7-19.3,17.1l-19.5-1.2c-11.4-0.7-20.1-10.5-19.5-21.9l0.9-15.3
		l0.4-6.4l0.3-5.2l0,0c0.9-15.6,13.8-27.5,29.2-27.5c0.6,0,1.2,0,1.7,0.1C545.4,62.9,557.7,76.7,556.7,92.8z" style="fill:none;"/>
	<g>
		<path d="M500.5,97.8c0,1.7-1.2,3-2.8,3.3l0.4-6.4C499.4,94.9,500.5,96.2,500.5,97.8z" style="fill:#2B2B2B;"/>
	</g>
	<path d="M522.4,171.4l-23.1-13.7c0,0,15.8-3.9,31.6-3.2L522.4,171.4z" style="fill:#2B2B2B;"/>
	<path d="M529.5,172.4l25.5-7.7l0.7-55.7l-31-1.9l-6.3,56c-0.5,4.8,2.9,9,7.7,9.6C527.3,172.9,528.4,172.7,529.5,172.4z
		" style="fill:#EA7068;"/>
	<circle cx="493.5" cy="97.7" r="8.9" style="fill:none;stroke:#F9F179;stroke-width:2.61;stroke-linecap:round;stroke-miterlimit:10;"/>
	<path d="M506.4,97.7l-4.4,4.7c-0.9,0.9-0.8,2.3,0.1,3.2l0.1,0.1l2.6,1.7" style="fill:none;stroke:#2B2B2B;stroke-width:2.61;stroke-linecap:round;stroke-miterlimit:10;"/>
	<path d="M503.3,115.6c0,0,2.7,5.4,8.4,1" style="fill:none;stroke:#2B2B2B;stroke-width:2.61;stroke-linecap:round;stroke-miterlimit:10;"/>
	<polygon points="521.2,138.5 533.9,139.3 519.8,151 	" style="fill:#2B2B2B;"/>
	<circle cx="516.1" cy="99.1" r="3.3" style="fill:#2B2B2B;"/>
	<circle cx="517" cy="99.1" r="8.9" style="fill:none;stroke:#F9F179;stroke-width:2.61;stroke-linecap:round;stroke-miterlimit:10;"/>
	<path d="M349,642.6l86.4,0.3c4.5,0,8.2-3.6,8.3-8.1l0.3-10.9l-53.4,0.4c-0.8,0-1.7,0.1-2.4,0.3l-40.2,9.8
		C343.1,635.5,344,642.5,349,642.6z" style="fill:#2B2B2B;"/>
	<path d="M587.9,641.8l22.5-0.1l55-38.1c4.1-2,5.8-6.9,3.8-11l-4.6-9.9l-48.7,24.7l-13.1,20.6l-16.1,5.6
		C581.9,634.8,582.9,641.9,587.9,641.8z" style="fill:#2B2B2B;"/>
	
		<linearGradient id="SVGID_9_" gradientUnits="userSpaceOnUse" x1="654.1041" y1="1736.3154" x2="654.1041" y2="1416.3228" gradientTransform="matrix(-1 0 0 1 1188.22 -1354)">
		<stop offset="0" style="stop-color:#F9D5FF"/>
		<stop offset="0.17" style="stop-color:#F9D5FC"/>
		<stop offset="0.32" style="stop-color:#F9D5F1"/>
		<stop offset="0.45" style="stop-color:#FAD6E0"/>
		<stop offset="0.58" style="stop-color:#FBD7C7"/>
		<stop offset="0.71" style="stop-color:#FCD8A7"/>
		<stop offset="0.83" style="stop-color:#FDD97F"/>
		<stop offset="0.95" style="stop-color:#FEDA52"/>
		<stop offset="1" style="stop-color:#FFDB40"/>
	</linearGradient>
	<path d="M559.8,160.5c-31.7-18.2-27.5-19.8-30.5-49.3c-2.5-24.4-32.8-26.2-23.7-39.4c6.4-9.3,21.1-13.6,34.9-7.3
		c13.7,6.3,23.6,29.7,23.9,46.5S559.8,160.5,559.8,160.5z" style="fill:url(#SVGID_9_);"/>
	<g>
		<path d="M516.3,384c-0.5,0-0.9-0.4-1.1-0.9l-12.4-68.3c-0.1-0.6,0.3-1.2,0.9-1.2c0.6-0.1,1.2,0.3,1.2,0.9l12.4,68.3
			c0.1,0.6-0.3,1.2-0.9,1.2C516.4,384,516.4,384,516.3,384z" style="fill:#2B2B2B;"/>
	</g>
	<g>
		<path d="M484.3,261c-0.4,0-0.8-0.2-1-0.7l-4.6-10.6c-0.2-0.6,0-1.2,0.6-1.4c0.6-0.2,1.2,0,1.4,0.6l4.6,10.6
			c0.2,0.6,0,1.2-0.6,1.4C484.6,261,484.4,261,484.3,261z" style="fill:#2B2B2B;"/>
	</g>
	<g>
		<path d="M483.6,228.6c-0.1,0-0.4-0.1-0.5-0.1c-0.5-0.3-0.7-0.9-0.4-1.4c1.6-3,3.6-5.7,5.6-8.2
			c5-6.6,9.8-12.7,5.7-24.4c-0.2-0.6,0.1-1.2,0.7-1.4c0.6-0.2,1.2,0.1,1.4,0.7c4.4,12.7-0.9,19.7-6.1,26.4c-1.9,2.5-3.9,5.1-5.4,8
			C484.4,228.4,484,228.6,483.6,228.6z" style="fill:#2B2B2B;"/>
	</g>
	<path d="M555.1,157.7c5.8,3.1,11.3,6.8,16.4,11l-16.4-4.1V157.7z" style="fill:#2B2B2B;"/>
	<g>
		<path d="M598.7,435.3c-0.6,0-1.1-0.5-1.1-1.1v-23c0-0.6,0.5-1.1,1.1-1.1s1.1,0.5,1.1,1.1v23
			C599.8,434.9,599.3,435.3,598.7,435.3z" style="fill:#2B2B2B;"/>
	</g>
	<path d="M551.1,327.1l-10.5,16.9c-5.9,9.4-3,21.9,6.5,27.7c8.4,5.2,19.2,3.5,25.8-3.8l10.4-11.9" style="fill:#EA7068;"/>
	
		<linearGradient id="SVGID_10_" gradientUnits="userSpaceOnUse" x1="587.8192" y1="1517.1476" x2="587.8192" y2="1707.2128" gradientTransform="matrix(1 0 0 1 0 -1354)">
		<stop offset="0" style="stop-color:#B8A7D3"/>
		<stop offset="0.4" style="stop-color:#ED4861"/>
		<stop offset="0.5" style="stop-color:#F4837D"/>
		<stop offset="0.59" style="stop-color:#FECEAA"/>
		<stop offset="1" style="stop-color:#B7D5EA"/>
	</linearGradient>
	<path d="M638.9,265.7l-1.2-1.8l-53-85.7c-6.2-10-17.7-15.2-28.6-13.2c-0.3,4.7-2.6,17.4-21.6,19.3
		c-2.5,7.7-1.4,16.2,2.8,23.2l44,71.2l-30.2,48.5l32.1,28.9l53.2-60.8C643.6,287,644.6,275,638.9,265.7z" style="fill:url(#SVGID_10_);"/>
	<g>
		<path d="M559.3,246.9c-0.4,0-0.7-0.2-0.9-0.6l-19-33.4c-0.3-0.5-0.1-1.2,0.4-1.4c0.5-0.3,1.2-0.1,1.4,0.4l19,33.4
			c0.3,0.5,0.1,1.2-0.4,1.4C559.7,246.8,559.5,246.9,559.3,246.9z" style="fill:#2B2B2B;"/>
	</g>
	<path d="M329,113.5c-3.8-1.1-16,0.9-21.9,2l-0.8,2.8c4.4,4,13.7,12.2,17.5,13.2c2.6,0.7,5.4,0.3,7.7-1.2v0.1l11.9,3.4
		l3.4-11.9l-11.9-3.4v0.1C333.8,116.1,331.6,114.2,329,113.5z" style="fill:#2B2B2B;"/>
	<path d="M428.6,151.7L428.6,151.7c-1.4,5.1-6.7,8-11.8,6.5c-0.3-0.1-0.7-0.2-0.9-0.3l-18-7.2c-2-0.8-4.1-1.5-6.2-2.2
		l-48.3-14.8l3.4-11.9l48.8,13c2.1,0.6,4.3,1,6.4,1.4l19.2,3.3c5.2,0.9,8.6,5.9,7.7,11.1C428.8,151.1,428.7,151.4,428.6,151.7z" style="fill:#ABABC2;"/>
	<g>
		<path d="M442.3,176.3c-0.3,0-0.6-0.1-0.8-0.4l-6.6-7.2c-0.4-0.4-0.4-1.2,0.1-1.5c0.4-0.4,1.2-0.4,1.5,0.1l6.6,7.2
			c0.4,0.4,0.4,1.2-0.1,1.5C442.9,176.2,442.6,176.3,442.3,176.3z" style="fill:#2B2B2B;"/>
	</g>
	<line x1="502.4" y1="96.5" x2="508.3" y2="96.5" style="fill:none;stroke:#F9F179;stroke-width:2.61;stroke-linecap:round;stroke-miterlimit:10;"/>
	<g>
		<path d="M136.1,642.7H53.7V55.1h82.4V642.7z M55.9,640.5h78.1V57.2H55.9V640.5z" style="fill:#2B2B2B;"/>
	</g>
	<g>
		<path d="M136.1,80H53.7v-25h82.4V80z M55.9,77.9h78.1V57.2H55.9V77.9z" style="fill:#2B2B2B;"/>
	</g>
	<g>
		<path d="M115,89.4H74.5c-0.6,0-1.1-0.5-1.1-1.1s0.5-1.1,1.1-1.1H115c0.6,0,1.1,0.5,1.1,1.1S115.6,89.4,115,89.4z" style="fill:#2B2B2B;"/>
	</g>
	<g>
		<path d="M128.1,166.4H61.6V99.9h66.5V166.4z M63.7,164.2h62.2V102H63.7V164.2z" style="fill:#2B2B2B;"/>
	</g>
	<polygon points="87.3,154.7 82.6,117.1 113.8,141.7 95,139.4 	" style="fill:#2B2B2B;"/>
	<g>
		<path d="M128.1,320.1H61.6v-66.5h66.5V320.1z M63.7,317.9h62.2v-62.2H63.7V317.9z" style="fill:#2B2B2B;"/>
	</g>
	<rect x="62.7" y="331.6" width="64.3" height="64.3" style="fill:#2B2B2B;stroke:#2B2B2B;stroke-width:3;stroke-linecap:round;stroke-miterlimit:10;"/>
	<g>
		<path d="M128.1,474H61.6v-66.5h66.5V474z M63.7,471.8h62.2v-62.2H63.7V471.8z" style="fill:#2B2B2B;"/>
	</g>
	<g>
		<path d="M128.1,550.8H61.6v-66.5h66.5V550.8z M63.7,548.6h62.2v-62.2H63.7V548.6z" style="fill:#2B2B2B;"/>
	</g>
	<g>
		<path d="M128.1,627.7H61.6v-66.5h66.5V627.7z M63.7,625.5h62.2v-62.2H63.7V625.5z" style="fill:#2B2B2B;"/>
	</g>
	<g>
		<path d="M128.1,242.6H61.6v-66.5h66.5V242.6z M63.7,240.4h62.2v-62.2H63.7V240.4z" style="fill:#2B2B2B;"/>
	</g>
	<g>
		<path d="M87.3,232.1c-0.1,0-0.1,0-0.2,0c-0.5-0.1-0.9-0.4-0.9-0.9l-4.7-37.6c-0.1-0.4,0.1-0.9,0.6-1.1
			c0.4-0.2,0.9-0.1,1.2,0.1l31.2,24.6c0.4,0.3,0.5,0.8,0.4,1.3c-0.2,0.4-0.7,0.7-1.2,0.7l-18.1-2.2l-7.4,14.7
			C88.1,231.8,87.8,232.1,87.3,232.1z M84,195.9l3.9,31.4l6.1-12.1c0.2-0.4,0.7-0.7,1.1-0.6l15,1.8L84,195.9z" style="fill:#2B2B2B;"/>
	</g>
	<path d="M80.9,298.8l20.4-23.4c0.4-0.4,1.1-0.5,1.5-0.1c0.4,0.4,0.4,1,0.1,1.4l-18.7,24.8c-0.7,0.9-2.1,1.2-3,0.4
		c-0.9-0.7-1.2-2.1-0.4-3l0,0L80.9,298.8z" style="fill:#2B2B2B;"/>
	<g>
		<path d="M85.8,278.8c-0.6,0-1.1-0.5-1.1-1.1v-6.4c0-0.6,0.5-1.1,1.1-1.1s1.1,0.5,1.1,1.1v6.4
			C86.9,278.3,86.4,278.8,85.8,278.8z" style="fill:#2B2B2B;"/>
	</g>
	<g>
		<path d="M89,275.6h-6.4c-0.6,0-1.1-0.5-1.1-1.1s0.5-1.1,1.1-1.1H89c0.6,0,1.1,0.5,1.1,1.1S89.6,275.6,89,275.6z" style="fill:#2B2B2B;"/>
	</g>
	<g>
		<path d="M110.6,273.5c-0.6,0-1.1-0.5-1.1-1.1v-6.4c0-0.6,0.5-1.1,1.1-1.1s1.1,0.5,1.1,1.1v6.4
			C111.7,273.1,111.2,273.5,110.6,273.5z" style="fill:#2B2B2B;"/>
	</g>
	<g>
		<path d="M113.8,270.3h-6.4c-0.6,0-1.1-0.5-1.1-1.1c0-0.6,0.5-1.1,1.1-1.1h6.4c0.6,0,1.1,0.5,1.1,1.1
			C114.9,269.8,114.4,270.3,113.8,270.3z" style="fill:#2B2B2B;"/>
	</g>
	<g>
		<path d="M105.4,295.6c-0.6,0-1.1-0.5-1.1-1.1v-6.4c0-0.6,0.5-1.1,1.1-1.1c0.6,0,1.1,0.5,1.1,1.1v6.4
			C106.4,295.1,105.9,295.6,105.4,295.6z" style="fill:#2B2B2B;"/>
	</g>
	<g>
		<path d="M108.5,292.3h-6.4c-0.6,0-1.1-0.5-1.1-1.1c0-0.6,0.5-1.1,1.1-1.1h6.4c0.6,0,1.1,0.5,1.1,1.1
			C109.6,291.8,109.1,292.3,108.5,292.3z" style="fill:#2B2B2B;"/>
	</g>
	<g id="nN90dw.tif">
		<path d="M78.7,385.1l6-7.4c2.1-2.6,4.3-5.3,6.4-7.9c0.1-0.2,0.4-0.4,0.7-0.3c1.4,0.4,3-0.4,3.5-1.7
			c0.7-1.6,0.1-3.5-1.5-4.2c-1.1-0.5-2.3-0.4-3.3,0.4c-1.2,0.9-1.6,2.5-0.9,3.8c0.1,0.2,0.1,0.5-0.1,0.7c-4.1,5-8.1,10.1-12.2,15.1
			l-0.3,0.3c-0.6-0.5-1.2-0.9-1.7-1.4c-0.1-0.1-0.1-0.4,0-0.6c0.9-3.4,1.9-6.8,2.8-10.1c1.2-4.4,2.5-8.8,3.8-13.2
			c0.2-0.9,0.9-1.6,1.7-2c3.8-1.7,7.5-3.4,11.2-5.1c0.9-0.5,2-0.4,2.7,0.4c2.7,2.3,5.6,4.6,8.4,6.8c0.7,0.5,1,1.4,0.8,2.2
			c-0.9,4.1-1.8,8.3-2.7,12.4c-0.1,0.8-0.7,1.5-1.4,1.9l-21.7,11.4c-0.2,0.1-0.5,0.1-0.7-0.1C79.7,385.9,79.2,385.5,78.7,385.1z" style="fill:#FFFFFF;"/>
		<path d="M108.2,358c-0.4-0.2-0.9-0.4-1.2-0.7c-2.9-2.3-5.8-4.7-8.7-7c-0.7-0.5-1.1-1.2-1.2-2.1
			c-0.1-0.8-0.1-1.6-0.2-2.3c-0.1-1.4,0.7-2.4,1.6-3.3c0.4-0.4,0.9-0.2,1.4,0.1c1.7,1.4,3.4,2.7,5.1,4.1l8.9,7.2
			c0.9,0.7,0.9,1.2,0.2,2c-0.7,1.1-2,1.7-3.2,1.7C110,357.9,109.1,358,108.2,358z" style="fill:#FFFFFF;"/>
	</g>
	<g>
		<path d="M114.5,429.5c-0.6,0-1.1-0.5-1.1-1.1v-5.6H76.3v5.6c0,0.6-0.5,1.1-1.1,1.1s-1.1-0.5-1.1-1.1v-7.8h41.5v7.8
			C115.6,429.1,115.2,429.5,114.5,429.5z" style="fill:#2B2B2B;"/>
	</g>
	<line x1="94.9" y1="421.7" x2="94.9" y2="459.3" style="fill:none;stroke:#2B2B2B;stroke-width:10;stroke-miterlimit:10;"/>
	<g>
		<path d="M102.7,460.4H87.3c-0.6,0-1.1-0.5-1.1-1.1s0.5-1.1,1.1-1.1h15.4c0.6,0,1.1,0.5,1.1,1.1
			S103.3,460.4,102.7,460.4z" style="fill:#2B2B2B;"/>
	</g>
	<rect x="77.8" y="502.2" width="34" height="30.8" style="fill:#2B2B2B;"/>
	<g>
		<path d="M87.2,604.4c-8.7,0-15.8-7.1-15.8-15.8c0-8.7,7.1-15.8,15.8-15.8S103,580,103,588.6
			C103,597.3,95.9,604.4,87.2,604.4z M87.2,575c-7.5,0-13.6,6.1-13.6,13.6c0,7.5,6.1,13.6,13.6,13.6s13.6-6.1,13.6-13.6
			S94.7,575,87.2,575z" style="fill:#2B2B2B;"/>
	</g>
	<path d="M99.1,597.5l15.6,14.3c0.8,0.7,0.9,2,0.1,2.8c-0.7,0.8-2,0.9-2.8,0.1l-0.1-0.1L97.5,599
		c-0.4-0.4-0.4-1.2,0.1-1.5C98,597.1,98.6,597.1,99.1,597.5L99.1,597.5z" style="fill:#2B2B2B;"/>
	<g>
		<rect x="226.8" y="114.3" width="70.9" height="2.2" style="fill:#2B2B2B;"/>
	</g>
	<circle cx="226.8" cy="115.4" r="4.6" style="fill:#2B2B2B;stroke:#2B2B2B;stroke-width:3;stroke-miterlimit:10;"/>
	<g>
		<rect x="316.6" y="114.3" width="71" height="2.2" style="fill:#2B2B2B;"/>
	</g>
	<circle cx="387.6" cy="115.4" r="4.6" style="fill:#2B2B2B;stroke:#2B2B2B;stroke-width:3;stroke-miterlimit:10;"/>
	
		<linearGradient id="SVGID_11_" gradientUnits="userSpaceOnUse" x1="98.6234" y1="1889.1448" x2="98.6234" y2="2000.3314" gradientTransform="matrix(-1 0 0 1 764.47 -1354)">
		<stop offset="0" style="stop-color:#FFD8A1"/>
		<stop offset="1" style="stop-color:#FFFFFF"/>
	</linearGradient>
	<path d="M586.2,642.6l159.3,7.5v-107c0-16.1-20.2-23.2-30.3-10.8c-7.7,9.5-14.3,22.5-15.5,39.9
		C696.5,619.8,648.7,642.6,586.2,642.6z" style="fill:url(#SVGID_11_);"/>
	
		<linearGradient id="SVGID_12_" gradientUnits="userSpaceOnUse" x1="584.7667" y1="1895.9103" x2="584.7667" y2="1995.0637" gradientTransform="matrix(-1 0 0 1 764.47 -1354)">
		<stop offset="0" style="stop-color:#FFEFA1"/>
		<stop offset="1" style="stop-color:#FFFFFF"/>
	</linearGradient>
	<path d="M305.9,642.6c-33.9-2.4-77.1-76.9-125.8-76.9c-64.5,0-57-27.6-83.6-31.3c-31.5-4.5-43.1,13.2-43.1,60.6v49.3
		L305.9,642.6z" style="fill:url(#SVGID_12_);"/>
	<g>
		<path d="M657.5,153.7c-14.3-12.7-19.9-26-24.9-37.8c-6.9-16.4-12.9-30.5-39.6-40.9l2.6-6.7
			c29.5,11.5,36.3,27.7,43.6,44.8c4.9,11.6,10,23.6,23,35.2L657.5,153.7z" style="fill:#F9D5FF;"/>
	</g>
</g>
</svg>
