<?xml version="1.0" encoding="iso-8859-1"?>
<!-- Generator: Adobe Illustrator 23.0.2, SVG Export Plug-In . SVG Version: 6.00 Build 0)  -->
<svg version="1.1" id="Layer_1" xmlns="http://www.w3.org/2000/svg" xmlns:xlink="http://www.w3.org/1999/xlink" x="0px" y="0px"
	 viewBox="0 0 1105.6 1080" style="enable-background:new 0 0 1105.6 1080;" xml:space="preserve">
<g style="opacity:0.3;">
	<g>
		<path style="fill:#C4ECFE;" d="M1026.7,80.7V885H78.8V80.7H1026.7 M1029.8,77.6H75.7v810.5h954.1L1029.8,77.6L1029.8,77.6z"/>
	</g>
	<g>
		<g>
			<rect x="306.6" y="77.6" style="fill:#C4ECFE;" width="2.7" height="810.5"/>
		</g>
		<g>
			<rect x="428" y="77.6" style="fill:#C4ECFE;" width="2.7" height="810.5"/>
		</g>
		<g>
			<rect x="306.6" y="77.6" style="fill:#C4ECFE;" width="2.7" height="810.5"/>
		</g>
		<g>
			<rect x="185.2" y="77.6" style="fill:#C4ECFE;" width="2.7" height="810.5"/>
		</g>
		<g>
			<rect x="549.4" y="77.6" style="fill:#C4ECFE;" width="2.7" height="810.5"/>
		</g>
		<g>
			<rect x="670.8" y="77.6" style="fill:#C4ECFE;" width="2.7" height="810.5"/>
		</g>
		<g>
			<rect x="790.7" y="77.6" style="fill:#C4ECFE;" width="2.7" height="810.5"/>
		</g>
		<g>
			<rect x="910.6" y="77.6" style="fill:#C4ECFE;" width="2.7" height="810.5"/>
		</g>
	</g>
</g>
<g>
	<g>
		<path style="fill:#FFFFFF;" d="M840.9,359.4c-5.2,0-10.4,0.2-15.6,0.6c-39.3,3.1-77.8-10.4-105.5-35.4
			c-40.3-36.5-96.4-59.1-158.3-59.1c-51.9,0-99.6,15.8-137.4,42.4c-28.5,20-65.2,28.3-100.9,23.1c-9.9-1.4-20.1-2.2-30.4-2.2
			c-103.5,0-186.8,74.2-186.9,166.5c0,2.3,0.1,4.6,0.2,6.9c-0.1,2.3-0.2,4.7-0.2,7.1c0,108.6,109.7,196.6,231.5,196.6
			c36.2,0,65.1-6.2,87.2-13.9c36.5-12.8,76.8-13.7,113.8-2.2c22.1,6.9,45.8,10.6,70.5,10.6c36,0,69.8-7.9,99.6-21.8
			c23.4-11,49.5-16.6,76-16.6h54.2c93.5,0,171.4-68.2,171.3-151.5C1009.9,427,934.5,359.7,840.9,359.4z"/>
		<path style="fill:#F9D5FF;" d="M337.4,712.3c-60.2,0-120.5-21.5-165.5-59.1c-46.7-38.9-72.4-90.1-72.4-143.9
			c0-2.4,0.1-4.6,0.2-7.1c-0.1-2.2-0.2-4.6-0.2-6.9c0.1-46.5,20.2-90.1,56.8-122.6c36.4-32.4,84.9-50.3,136.5-50.3
			c10.1,0,20.7,0.8,31.3,2.3c34.2,5,69.3-3,96.3-22c40.5-28.5,89.3-43.6,141.1-43.6c61.6,0,119.3,21.6,162.6,60.8
			c27,24.4,63.7,36.7,100.7,33.8c5.4-0.4,10.8-0.6,16.1-0.6l0,0c46.8,0.2,90.8,16.5,123.9,46c33.2,29.7,51.6,69.3,51.6,111.5
			c0,38.3-15.9,75.4-44.8,104.4c-34,34-82.4,53.5-132.9,53.5h-54.2c-25.7,0-51,5.5-73.3,16c-31.9,14.9-66.3,22.4-102.3,22.4
			c-24.9,0-49.3-3.7-72.4-10.9c-35.4-11-74.4-10.3-109.8,2.1C399.6,707.5,369.5,712.3,337.4,712.3z M292.8,335.2
			c-48.5,0-93.9,16.7-128,47c-33.8,30.1-52.5,70.3-52.5,113.1c0,2.2,0.1,4.3,0.2,6.6c0,0.2,0,0.4,0,0.6c-0.1,2.4-0.2,4.6-0.2,6.8
			c0,50,24.1,97.6,67.8,134.1c42.7,35.6,100.1,56.1,157.3,56.1c30.7,0,59.3-4.6,85.1-13.5c37.9-13.3,79.7-14.1,117.8-2.3
			c21.9,6.8,45,10.3,68.6,10.3c34.1,0,66.7-7.1,96.9-21.2c23.9-11.2,51.2-17.2,78.7-17.2h54.2c47.1,0,92.2-18.1,123.8-49.8
			c26.5-26.6,41.1-60.4,41.1-95.3c0-38.5-16.9-74.7-47.3-102c-30.7-27.4-71.7-42.6-115.4-42.7c-5,0-10.1,0.2-15.1,0.6
			c-40.5,3.2-80.7-10.3-110.3-37c-40.9-37-95.6-57.4-154-57.4c-49.1,0-95.4,14.3-133.7,41.2c-29.7,20.8-68.1,29.6-105.5,24.2
			C312.3,335.9,302.3,335.2,292.8,335.2z"/>
	</g>
	<g>
		<path style="fill:#FFFFFF;" d="M368.3,531.5c17.3-9.1,36.8-14.9,57.6-16.4c49.3-3.5,103,20.1,144.1,83"/>
		<path style="fill:#F9D5FF;" d="M570,604.4c-2.1,0-4.1-1-5.3-2.8c-48.9-74.8-107.7-82.3-138.4-80.2c-19.4,1.4-38,6.7-55.1,15.7
			c-3.1,1.6-6.9,0.4-8.5-2.6c-1.6-3.1-0.4-6.9,2.6-8.5c18.7-9.8,38.9-15.6,60.1-17.1c26.8-1.9,54,4.1,78.6,17.3
			c27.1,14.6,51.1,37.7,71.3,68.5c1.9,2.9,1.1,6.8-1.8,8.7C572.4,604.1,571.2,604.4,570,604.4z"/>
	</g>
	<g>
		<path style="fill:#F9D5FF;" d="M712.2,434.5c-1.7,0-3.4-0.7-4.6-2c-2.4-2.5-2.2-6.5,0.3-8.9c33-30.6,79.9-40.4,122.4-25.4
			c3.3,1.2,5,4.7,3.8,8s-4.7,5-8,3.8c-38-13.4-80.1-4.7-109.6,22.8C715.3,433.9,713.7,434.5,712.2,434.5z"/>
	</g>
	<g>
		<path style="fill:#F9D5FF;" d="M295.6,558.8c-1.7,0-3.4-0.7-4.6-2c-2.4-2.5-2.2-6.5,0.3-8.9c32.5-30.1,67-32.6,108.6-7.8
			c3,1.8,4,5.6,2.2,8.6s-5.6,4-8.6,2.2c-37.1-22.1-65.1-20.2-93.6,6.2C298.7,558.2,297.1,558.8,295.6,558.8z"/>
	</g>
	<g>
		<path style="fill:#F9D5FF;" d="M199,772.2c-1.4,3.2-5.2,4.6-8.3,3.2c-36.8-16.5-79.3-11.4-111.1,13.4c-1.2,0.9-2.5,1.3-3.9,1.3
			V776c35-25.2,80.6-29.9,120.2-12.1C199,765.3,200.5,769,199,772.2z"/>
	</g>
	<circle style="fill:#BFD9FF;" cx="946.3" cy="355.1" r="4.1"/>
</g>
<g>
	<g>
		<path style="fill:#F9D5FF;" d="M968.8,888.1c-2.2,0-4-1.8-4-4V761.8c0-2.2,1.8-4,4-4s4,1.8,4,4v122.3
			C972.8,886.3,971,888.1,968.8,888.1z"/>
	</g>
	<g>
		<path style="fill:#F9D5FF;" d="M968.8,803c-0.2,0-0.4,0-0.7-0.1c-2.2-0.4-3.6-2.4-3.3-4.6c2.5-14.7,15.5-24.9,30.3-23.7
			c2.2,0.2,3.8,2.1,3.7,4.3c-0.2,2.2-2.1,3.9-4.3,3.7c-10.6-0.8-20,6.5-21.7,17.1C972.4,801.6,970.7,803,968.8,803z"/>
	</g>
	<g>
		<path style="fill:#F9D5FF;" d="M968.8,803c-1.9,0-3.6-1.4-3.9-3.3c-1.8-10.6-11.1-17.9-21.7-17.1c-2.2,0.2-4.1-1.5-4.3-3.7
			s1.5-4.1,3.7-4.3c14.8-1.2,27.8,9,30.3,23.7c0.4,2.2-1.1,4.2-3.3,4.6C969.2,803,969,803,968.8,803z"/>
	</g>
	<g>
		<path style="fill:#F9D5FF;" d="M968.8,831.7c-0.2,0-0.4,0-0.7-0.1c-2.2-0.4-3.6-2.4-3.3-4.6c2.5-14.7,15.5-24.9,30.3-23.7
			c2.2,0.2,3.8,2.1,3.7,4.3c-0.2,2.2-2.1,3.9-4.3,3.7c-10.6-0.8-20,6.5-21.7,17.1C972.4,830.3,970.7,831.7,968.8,831.7z"/>
	</g>
	<g>
		<path style="fill:#F9D5FF;" d="M968.8,831.7c-1.9,0-3.6-1.4-3.9-3.3c-1.8-10.6-11.1-17.9-21.7-17.1c-2.2,0.2-4.1-1.5-4.3-3.7
			s1.5-4.1,3.7-4.3c14.8-1.2,27.8,9,30.3,23.7c0.4,2.2-1.1,4.2-3.3,4.6C969.2,831.7,969,831.7,968.8,831.7z"/>
	</g>
	<g>
		<path style="fill:#F9D5FF;" d="M968.8,860.5c-0.2,0-0.4,0-0.7-0.1c-2.2-0.4-3.6-2.4-3.3-4.6c2.5-14.7,15.5-24.9,30.3-23.7
			c2.2,0.2,3.8,2.1,3.7,4.3c-0.2,2.2-2.1,3.9-4.3,3.7c-10.6-0.8-20,6.5-21.7,17.1C972.4,859.1,970.7,860.5,968.8,860.5z"/>
	</g>
	<g>
		<path style="fill:#F9D5FF;" d="M968.8,860.5c-1.9,0-3.6-1.4-3.9-3.3c-1.8-10.6-11.1-17.9-21.7-17.1c-2.2,0.2-4.1-1.5-4.3-3.7
			s1.5-4.1,3.7-4.3c14.8-1.2,27.8,9,30.3,23.7c0.4,2.2-1.1,4.2-3.3,4.6C969.2,860.5,969,860.5,968.8,860.5z"/>
	</g>
</g>
<g>
	<g>
		<path style="fill:#F9D5FF;" d="M256.8,887.3c-2.2,0-4-1.8-4-4V799c0-2.2,1.8-4,4-4c2.2,0,4,1.8,4,4v84.3
			C260.8,885.5,259,887.3,256.8,887.3z"/>
	</g>
	<g>
		<path style="fill:#F9D5FF;" d="M256.8,841.7c-0.2,0-0.4,0-0.7-0.1c-2.2-0.4-3.6-2.4-3.3-4.6c2.5-14.7,15.5-24.9,30.3-23.7
			c2.2,0.2,3.8,2.1,3.7,4.3c-0.2,2.2-2.1,3.9-4.3,3.7c-10.6-0.8-20,6.5-21.7,17.1C260.4,840.3,258.7,841.7,256.8,841.7z"/>
	</g>
	<g>
		<path style="fill:#F9D5FF;" d="M256.8,841.7c-1.9,0-3.6-1.4-3.9-3.3c-1.8-10.6-11.1-17.9-21.7-17.1c-2.2,0.2-4.1-1.5-4.3-3.7
			s1.5-4.1,3.7-4.3c14.8-1.2,27.8,9,30.3,23.7c0.4,2.2-1.1,4.2-3.3,4.6C257.2,841.7,257,841.7,256.8,841.7z"/>
	</g>
	<g>
		<path style="fill:#F9D5FF;" d="M256.8,870.5c-0.2,0-0.4,0-0.7-0.1c-2.2-0.4-3.6-2.4-3.3-4.6c2.5-14.7,15.5-24.9,30.3-23.7
			c2.2,0.2,3.8,2.1,3.7,4.3c-0.2,2.2-2.1,3.9-4.3,3.7c-10.6-0.8-20,6.5-21.7,17.1C260.4,869.1,258.7,870.5,256.8,870.5z"/>
	</g>
	<g>
		<path style="fill:#F9D5FF;" d="M256.8,870.5c-1.9,0-3.6-1.4-3.9-3.3c-1.8-10.6-11.1-17.9-21.7-17.1c-2.2,0.2-4.1-1.5-4.3-3.7
			s1.5-4.1,3.7-4.3c14.8-1.2,27.8,9,30.3,23.7c0.4,2.2-1.1,4.2-3.3,4.6C257.2,870.5,257,870.5,256.8,870.5z"/>
	</g>
</g>
<g>
	<g>
		<path style="fill:#F9D5FF;" d="M167,887.3c-2.2,0-4-1.8-4-4v-60.4c0-2.2,1.8-4,4-4s4,1.8,4,4v60.4
			C171,885.5,169.2,887.3,167,887.3z"/>
	</g>
	<g>
		<path style="fill:#F9D5FF;" d="M167,870.5c-0.2,0-0.4,0-0.7-0.1c-2.2-0.4-3.6-2.4-3.3-4.6c2.5-14.7,15.5-24.9,30.3-23.7
			c2.2,0.2,3.8,2.1,3.7,4.3c-0.2,2.2-2.1,3.9-4.3,3.7c-10.6-0.8-20,6.5-21.7,17.1C170.6,869.1,168.9,870.5,167,870.5z"/>
	</g>
	<g>
		<path style="fill:#F9D5FF;" d="M167,870.5c-1.9,0-3.6-1.4-3.9-3.3c-1.8-10.6-11.1-17.9-21.7-17.1c-2.2,0.2-4.1-1.5-4.3-3.7
			s1.5-4.1,3.7-4.3c14.8-1.2,27.8,9,30.3,23.7c0.4,2.2-1.1,4.2-3.3,4.6C167.4,870.5,167.2,870.5,167,870.5z"/>
	</g>
</g>
<g>
	<path style="fill:#91AFEC;" d="M536.4,224.7c-101.3,51.1-105.1-15.3-184.9-3.5c-41.7,6.2,55.1-56.6,55.1-56.6l79.7-16.1l53.4,4.4
		L536.4,224.7z"/>
	<g>
		
			<linearGradient id="SVGID_1_" gradientUnits="userSpaceOnUse" x1="603.771" y1="912" x2="603.771" y2="1111" gradientTransform="matrix(1 0 0 -1 0 1392)">
			<stop  offset="0" style="stop-color:#FFE0C2"/>
			<stop  offset="0.401" style="stop-color:#7AAEFC"/>
			<stop  offset="0.5908" style="stop-color:#B8C1FC"/>
			<stop  offset="1" style="stop-color:#D2D4D4"/>
		</linearGradient>
		<path style="fill:url(#SVGID_1_);" d="M704.7,368.2l-51.3,89c-7,21.8-30.3,33.8-52.1,26.9c-9.8-3.1-17.6-9.6-22.7-17.7l-2.3-3.7
			l-67-129.1c-12.6-20.5-6.2-47.3,14.3-59.9s47.3-6.2,59.9,14.3l67,129.1l-77,5.4l76.1-91.3"/>
		<path style="fill:#FDC068;" d="M649.7,331.3l12.6-14.2c11.5-13,31.4-14.2,44.5-2.7c11.4,10.1,13.7,26.6,6.4,39.3l-8.4,14.5
			L649.7,331.3z"/>
		<g>
			<g>
				<path style="fill:#4C7DE0;" d="M904.9,824.1l-108.3-25.2c-8.2-4.9-9.9-7.7-15-18.5l-6.1-11.5l93.1,14.2l44.7,30.3
					C919.7,818.7,912.5,827.8,904.9,824.1z"/>
			</g>
		</g>
		
			<linearGradient id="SVGID_2_" gradientUnits="userSpaceOnUse" x1="667.8" y1="968.0531" x2="667.8" y2="624.7325" gradientTransform="matrix(1 0 0 -1 0 1392)">
			<stop  offset="0" style="stop-color:#9774AC"/>
			<stop  offset="0.401" style="stop-color:#47A6D3"/>
			<stop  offset="0.5011" style="stop-color:#A7A7AE"/>
			<stop  offset="0.5908" style="stop-color:#E89AC0"/>
			<stop  offset="1" style="stop-color:#BFE7D1"/>
		</linearGradient>
		<path style="fill:url(#SVGID_2_);" d="M784.9,503.2c25.8,90.1,77,268.1,83.7,279.9L775.5,769l-97.7-250.7L467,450.2l122.5-38.4
			l128.1,29C750,447.5,775.8,471.5,784.9,503.2z"/>
		
			<linearGradient id="SVGID_3_" gradientUnits="userSpaceOnUse" x1="482.4524" y1="1050.704" x2="482.4524" y2="1242.8706" gradientTransform="matrix(0.9352 0.1821 0.1578 -0.9821 -115.0981 1410.9008)">
			<stop  offset="0" style="stop-color:#FFE0C2"/>
			<stop  offset="0.401" style="stop-color:#7AAEFC"/>
			<stop  offset="0.5908" style="stop-color:#B8C1FC"/>
			<stop  offset="1" style="stop-color:#D2D4D4"/>
		</linearGradient>
		<path style="fill:url(#SVGID_3_);" d="M589.4,414.4c3.3-43.8-25.5-44.7-12.2-73c13.2-28.3,3.7-70.9-28.3-74.1
			c-24.7-2.5-26.3-3.7-36.7-4.8c-32.9-3.3-65.2,23.5-58.3,57.5c0,0,8.9,13.8,8,23.7s-25.2,22.2-27.5,52.3L589.4,414.4z"/>
		<g>
			<path style="fill:#2B2B2B;" d="M589.4,415.8h-0.1c-0.8-0.1-1.3-0.7-1.3-1.5c1.6-21.2-4.5-32.3-9.5-41.2c-1.7-3.1-3.4-6-4.5-9.1
				c-0.3-0.7,0.1-1.5,0.8-1.8s1.5,0.1,1.8,0.8c1.1,2.9,2.7,5.7,4.4,8.7c5.1,9.2,11.5,20.7,9.8,42.8
				C590.7,415.2,590.1,415.8,589.4,415.8z"/>
		</g>
		
			<linearGradient id="SVGID_4_" gradientUnits="userSpaceOnUse" x1="571.1191" y1="979.5023" x2="571.1191" y2="608.0734" gradientTransform="matrix(1 0 0 -1 0 1392)">
			<stop  offset="0" style="stop-color:#9774AC"/>
			<stop  offset="0.401" style="stop-color:#47A6D3"/>
			<stop  offset="0.5011" style="stop-color:#A7A7AE"/>
			<stop  offset="0.5908" style="stop-color:#E89AC0"/>
			<stop  offset="1" style="stop-color:#BFE7D1"/>
		</linearGradient>
		<path style="fill:url(#SVGID_4_);" d="M552.8,426.5l105,50.7c26.1,12.6,42,39.6,40.2,68.5c-5.2,87.5-15.7,265-16.3,268.9
			l-77.5-29.4l-26.1-232.7l-134-104.8L552.8,426.5z"/>
		
			<linearGradient id="SVGID_5_" gradientUnits="userSpaceOnUse" x1="441.7194" y1="1104.3232" x2="441.7194" y2="673.4165" gradientTransform="matrix(0.9846 0.1746 0.1746 -0.9846 -115.2869 1410.8842)">
			<stop  offset="0" style="stop-color:#9774AC"/>
			<stop  offset="0.401" style="stop-color:#47A6D3"/>
			<stop  offset="0.5011" style="stop-color:#A7A7AE"/>
			<stop  offset="0.5908" style="stop-color:#E89AC0"/>
			<stop  offset="1" style="stop-color:#BFE7D1"/>
		</linearGradient>
		<path style="fill:url(#SVGID_5_);" d="M435,391.3c-3.8,23.1,1.1,60.8,45.1,66.4l35.7,3.5c40.1,5.1,69.7-24.6,73.8-49.5L435,391.3z
			"/>
		<path style="fill:#2B2B2B;" d="M525.3,281.5l-56.5-8.2c0,0,23.6-11.8,39.4-11.8L525.3,281.5z"/>
		<g>
			
				<linearGradient id="SVGID_6_" gradientUnits="userSpaceOnUse" x1="452.6938" y1="908" x2="452.6938" y2="1106.2523" gradientTransform="matrix(1 0 0 -1 0 1392)">
				<stop  offset="0" style="stop-color:#FFE0C2"/>
				<stop  offset="0.401" style="stop-color:#7AAEFC"/>
				<stop  offset="0.5908" style="stop-color:#B8C1FC"/>
				<stop  offset="1" style="stop-color:#D2D4D4"/>
			</linearGradient>
			<path style="fill:url(#SVGID_6_);" d="M493.8,564.9c-2.2-1-4.4-2.1-6.6-3.1c-6-2.8-48.2-30.1-81.6-51.8
				c-24.5-15.9-35-46.4-25.6-74c17-49.8,52.1-124.5,54-127.9l4.2-7.7c1.3-2.3,2.6-4.6,3.9-6.8c12.3-21,40-28.5,60.8-15.8
				c18.2,11.1,25.5,33.6,18,52.9c-1.1,2.7-2.2,5.5-3.3,8.2l-3.4,8.1c-2.3,5.4-4.7,10.8-7.1,16.1c-4.9,10.7-42.9,75.8-42.9,75.8
				s63.5,63.6,64.6,64.5"/>
			<path style="fill:#FDC068;" d="M528.7,503.3c3.3,2.7,6.6,5.3,9.8,8.1l6.4,5.4c2.1,1.9,4.2,3.7,6.3,5.6c13,11.9,13.8,32.1,1.9,45
				c-9.2,10-23.4,12.8-35.3,8.1c-2.6-1-5.2-2.2-7.7-3.3l-7.7-3.4c-2.9-1.3-5.7-2.6-8.6-3.9"/>
		</g>
		<g>
			<path style="fill:#4C7DE0;" d="M711.8,867.7l-108.3-49.8c-6.4-3.1-9.1-10.6-6.2-17.1l7-15.6l77.5,29.4l37.1,42.1
				C724.8,861.6,718.8,871,711.8,867.7z"/>
		</g>
		<g>
			<g>
				<g>
					<path id="SVGID_81_" style="fill:#FDC068;" d="M568.5,235.7l-27.9-5.5c-14.4-2.9-23.8-16.9-21-31.3l8.3-42.1
						c4.6-23.1,27-38.2,50.1-33.6l0,0c23.1,4.6,38.2,27,33.6,50.1l-7.6,38.6C600.8,228.3,584.9,238.9,568.5,235.7z"/>
				</g>
				<g>
					<path style="fill:#2B2B2B;" d="M610.1,180.8l-1.8,9.2c-1.7-0.7-2.9-2.4-2.9-4.4C605.4,183,607.5,180.8,610.1,180.8z"/>
				</g>
			</g>
			<path style="fill:#FDC068;" d="M541.2,291.4l-28.3-19c-3.2-2.2-4.9-6-4.2-9.9l10.6-62.5c4.5-9.8,47.7-0.5,47.7-0.5l-7.2,81.9
				C559,290.4,549.2,295.7,541.2,291.4z"/>
			<g>
				<path style="fill:#2B2B2B;" d="M596.1,197.6c-0.6,0-1.1-0.4-1.3-0.9c-0.2-0.7,0.1-1.5,0.8-1.8l4.2-1.5c0.4-0.2,0.7-0.6,0.9-1
					c0.2-0.5,0.1-1-0.1-1.5l-4.5-8.2c-0.4-0.7-0.1-1.5,0.5-1.9c0.7-0.4,1.5-0.1,1.9,0.5l4.5,8.2c0.6,1.1,0.8,2.4,0.4,3.7
					c-0.4,1.2-1.2,2.2-2.4,2.7l-0.1,0.1l-4.3,1.5C596.4,197.6,596.2,197.6,596.1,197.6z M600.4,194.7L600.4,194.7L600.4,194.7z"/>
			</g>
			<g>
				<path style="fill:#2B2B2B;" d="M589.7,212.5c-0.1,0-0.2,0-0.3,0c-2.7-0.1-5.3-1.7-7.6-4.8c-0.5-0.6-0.3-1.5,0.3-1.9
					c0.6-0.5,1.5-0.3,1.9,0.3c1.8,2.4,3.6,3.6,5.5,3.7c2.6,0.1,4.6-2,4.6-2.1c0.5-0.6,1.4-0.6,1.9-0.1c0.6,0.5,0.6,1.4,0.1,1.9
					C596,209.6,593.4,212.5,589.7,212.5z"/>
			</g>
			<polygon style="fill:#2B2B2B;" points="564,234.7 546.5,229.1 562.4,252.6 			"/>
			<circle style="fill:#2B2B2B;" cx="583" cy="180.4" r="4.8"/>
			<path style="fill:#4C7DE0;" d="M572.8,119.3c0.3,12.7,31.2,43.4,39.7,46.9C612.4,166.3,622.8,129,572.8,119.3z"/>
		</g>
		<path style="fill:#CACDF5;" d="M685.7,332.9l-24.2-6.7c-4.5-1.2-7.1-5.9-5.8-10.3l22.4-80.2c1.2-4.5,5.9-7.1,10.3-5.8l24.2,6.7
			c4.5,1.2,7.1,5.9,5.8,10.3L696,327.1C694.8,331.5,690.2,334.1,685.7,332.9z"/>
	</g>
	<g>
		<path style="fill:#2B2B2B;" d="M698.5,566.3c-0.8,0-1.4-0.6-1.5-1.4l-1.2-25.8c-1.2-26.6-16.7-50.5-40.5-62.5L608.1,453
			c-0.7-0.4-1-1.3-0.7-2c0.4-0.7,1.2-1,2-0.7l47.2,23.6c24.8,12.4,40.9,37.3,42.1,65l1.2,25.8C700,565.5,699.4,566.2,698.5,566.3
			L698.5,566.3z"/>
	</g>
	<g>
		<path style="fill:#2B2B2B;" d="M464.1,440.3c-0.3,0-0.5-0.1-0.7-0.2c-0.7-0.4-0.9-1.3-0.5-2l23.5-40.6c0.4-0.7,1.3-0.9,2-0.5
			s0.9,1.3,0.5,2l-23.5,40.6C465.1,440,464.6,440.3,464.1,440.3z"/>
	</g>
	<g>
		<path style="fill:#2B2B2B;" d="M608.8,381.8c-0.3,0-0.7-0.1-0.9-0.3c-0.6-0.5-0.7-1.5-0.2-2.1l14-16.8c0.5-0.6,1.5-0.7,2.1-0.2
			s0.7,1.5,0.2,2.1l-14,16.8C609.6,381.6,609.2,381.8,608.8,381.8z"/>
	</g>
	
		<ellipse transform="matrix(0.2671 -0.9637 0.9637 0.2671 254.905 866.1436)" style="fill:#B3B7F1;" cx="696.881" cy="265.49" rx="10.3" ry="7.6"/>
	<path style="fill:#FDC068;" d="M698.5,315.7c0,0-23.1-10.7-36.9,15.7l23.7,7l13.2-1.4V315.7z"/>
	<circle style="fill:#BFD9FF;" cx="121.8" cy="739.4" r="4.1"/>
	<circle style="fill:#BFD9FF;" cx="203.9" cy="306.4" r="4.1"/>
	<circle style="fill:#BFD9FF;" cx="848.3" cy="196.3" r="4.1"/>
	<circle style="fill:#BFD9FF;" cx="865.7" cy="709.7" r="3.8"/>
	<path style="fill:#4C7DE0;" d="M578.2,125.8c-14-21.8-46.9-19.9-76.6-10.3c-31.9,10.3-48.5-4.8-69-11.4
		c-35.6-11.5-70,18.9-93.8,20.4c-23.7,1.5-55.4-29.7-105.2-21.6c-107.5,17.6-77.5,176.9,51.4,144.4c29.4-7.4,25.5-21.1,60.8-19.1
		c50,2.8,83.6-34.2,131.6-17C526.3,228.6,603.1,164.6,578.2,125.8z"/>
	<g>
		<path style="fill:#2B2B2B;" d="M578.1,554c-0.7,0-1.3-0.5-1.4-1.1l-5.3-23.1c-0.2-0.8,0.3-1.6,1.1-1.8s1.6,0.3,1.8,1.1l5.3,23.1
			c0.2,0.8-0.3,1.6-1.1,1.8C578.3,554,578.2,554,578.1,554z"/>
	</g>
</g>
</svg>
