<?xml version="1.0" encoding="iso-8859-1"?>
<!-- Generator: Adobe Illustrator 23.0.2, SVG Export Plug-In . SVG Version: 6.00 Build 0)  -->
<svg version="1.1" id="Layer_1" xmlns="http://www.w3.org/2000/svg" xmlns:xlink="http://www.w3.org/1999/xlink" x="0px" y="0px"
	 viewBox="0 0 1105.6 1080" style="enable-background:new 0 0 1105.6 1080;" xml:space="preserve">
<g style="opacity:0.3;">
	<g>
		<path style="fill:#C4ECFE;" d="M1026.7,80.7V885H78.8V80.7H1026.7 M1029.8,77.6H75.7v810.5h954.1L1029.8,77.6L1029.8,77.6z"/>
	</g>
	<g>
		<g>
			<g>
				<rect x="306.5" y="77.6" style="fill:#C4ECFE;" width="2.9" height="810.5"/>
			</g>
			<g>
				<rect x="427.9" y="77.6" style="fill:#C4ECFE;" width="2.9" height="810.5"/>
			</g>
			<g>
				<rect x="306.5" y="77.6" style="fill:#C4ECFE;" width="2.9" height="810.5"/>
			</g>
			<g>
				<rect x="185.1" y="77.6" style="fill:#C4ECFE;" width="2.9" height="810.5"/>
			</g>
			<g>
				<rect x="549.3" y="77.6" style="fill:#C4ECFE;" width="2.9" height="810.5"/>
			</g>
			<g>
				<rect x="670.7" y="77.6" style="fill:#C4ECFE;" width="2.9" height="810.5"/>
			</g>
			<g>
				<rect x="790.6" y="77.6" style="fill:#C4ECFE;" width="2.9" height="810.5"/>
			</g>
			<g>
				<rect x="910.5" y="77.6" style="fill:#C4ECFE;" width="2.9" height="810.5"/>
			</g>
		</g>
	</g>
</g>
<g>
	<circle style="fill:#BFD9FF;" cx="164.6" cy="448.9" r="4.1"/>
	
		<ellipse transform="matrix(0.0997 -0.995 0.995 0.0997 -421.9778 613.591)" style="fill:#BFD9FF;" cx="128.079" cy="539.979" rx="4.1" ry="4.1"/>
	<circle style="fill:#BFD9FF;" cx="983.7" cy="421.6" r="4.1"/>
	<circle style="fill:#BFD9FF;" cx="507.6" cy="165.4" r="4.1"/>
	<circle style="fill:#BFD9FF;" cx="144" cy="161.3" r="4.1"/>
	<circle style="fill:#BFD9FF;" cx="511.7" cy="657.5" r="3.8"/>
</g>
<linearGradient id="SVGID_1_" gradientUnits="userSpaceOnUse" x1="277.2" y1="748.5138" x2="277.2" y2="513.6742" gradientTransform="matrix(1 0 0 -1 0 1392)">
	<stop  offset="0" style="stop-color:#FFD8A1"/>
	<stop  offset="0.9958" style="stop-color:#FFFFFF"/>
</linearGradient>
<path style="fill:url(#SVGID_1_);" d="M478.7,888.1c-114.7,0-111.1-174-210.8-197c-39.9-9.2-61.6-38.7-80-70.7
	C157.1,567,75.7,588.6,75.7,650.1v238H478.7z"/>
<g>
	
		<linearGradient id="SVGID_2_" gradientUnits="userSpaceOnUse" x1="246.7507" y1="837.3471" x2="246.7507" y2="1300.967" gradientTransform="matrix(1 0 0 -1 0 1392)">
		<stop  offset="0" style="stop-color:#77879D"/>
		<stop  offset="0.4092" style="stop-color:#FDBB6D"/>
		<stop  offset="0.4989" style="stop-color:#FDBB9F"/>
		<stop  offset="0.599" style="stop-color:#D1D2D1"/>
		<stop  offset="1" style="stop-color:#FECEAA"/>
	</linearGradient>
	<path style="fill:url(#SVGID_2_);" d="M348.3,429.3c13.5-41.9-4.9-46.8,23.4-89.6s-8.8-119.6-7.4-162.7c0.5-14.4,9.3-37.6,12-58.7
		c3.3-26.4-29-41.6-47.4-22.3c-5.2,5.4-10.4,12.6-15.4,21.9c-1.7,3.1-3.9,5.9-6.6,8.1c-8.6,7.2-17.4,14.3-29.5,24.4
		c-41.7,35-22.3,87.4-38.8,117.8s-88.7,31.6-117.1,99.2C60.1,513.4,288.9,613.3,348.3,429.3z"/>
	<path style="fill:#EA7068;" d="M484.1,413.4l20.6,23.2c10.2,11.5,9.1,29.1-2.4,39.3c-10.3,9.1-25.5,9.2-35.9,0.9l-16.1-13"/>
	
		<linearGradient id="SVGID_3_" gradientUnits="userSpaceOnUse" x1="408.4029" y1="1178.8523" x2="408.4029" y2="933.4267" gradientTransform="matrix(1 0 0 -1 0 1392)">
		<stop  offset="0" style="stop-color:#B8A7D3"/>
		<stop  offset="0.401" style="stop-color:#ED4861"/>
		<stop  offset="0.5011" style="stop-color:#F4837D"/>
		<stop  offset="0.5908" style="stop-color:#FECEAA"/>
		<stop  offset="1" style="stop-color:#B7D5EA"/>
	</linearGradient>
	<path style="fill:url(#SVGID_3_);" d="M450.3,463.7l-83.6-67.2c-5.8-4.6-9.4-11-10.7-17.7l-0.5-2.9l-22.1-115.1
		c-4-20.9,9.7-41.1,30.5-45.1c20.9-4,41.1,9.7,45.1,30.5l22.1,115.1l-11.3-20.6l64.3,72.5"/>
	<g>
		<g>
			
				<linearGradient id="XMLID_2_" gradientUnits="userSpaceOnUse" x1="352.1472" y1="1179" x2="352.1472" y2="914.7274" gradientTransform="matrix(1 0 0 -1 0 1392)">
				<stop  offset="0" style="stop-color:#B8A7D3"/>
				<stop  offset="0.401" style="stop-color:#ED4861"/>
				<stop  offset="0.5011" style="stop-color:#F4837D"/>
				<stop  offset="0.5908" style="stop-color:#FECEAA"/>
				<stop  offset="1" style="stop-color:#B7D5EA"/>
			</linearGradient>
			<path id="XMLID_96_" style="fill:url(#XMLID_2_);" d="M424.6,333.8c-4.4-38.7-30.8-34-23.5-61.1s-8.6-62.3-38.3-59
				c-22.9,2.6-24.6,1.8-34.3,2.9c-30.6,3.4-48.1,36.9-36.1,65.2c0,0,3.1,6.4,3.9,15.1S277,321.1,280,347.7L424.6,333.8z"/>
		</g>
		<g>
			<polygon style="fill:#2B2B2B;" points="423.1,319.6 372.3,338.4 308.4,346.6 306.2,329.9 422.2,314.8 			"/>
		</g>
	</g>
	
		<linearGradient id="SVGID_4_" gradientUnits="userSpaceOnUse" x1="397.3983" y1="524.7905" x2="397.3983" y2="1053.3896" gradientTransform="matrix(1 0 0 -1 0 1392)">
		<stop  offset="0" style="stop-color:#6B9C83"/>
		<stop  offset="0.401" style="stop-color:#A6A6A4"/>
		<stop  offset="0.5011" style="stop-color:#9F9FC8"/>
		<stop  offset="0.5908" style="stop-color:#9FCCEC"/>
		<stop  offset="1" style="stop-color:#FFE7B0"/>
	</linearGradient>
	<path style="fill:url(#SVGID_4_);" d="M422.5,341l2.5,14l1.1,3.4l2.2,6.8l4.1,13.7c1.4,4.6,2.6,9.2,3.9,13.8l3.6,13.8
		c4.8,18.4,9,37,12.9,55.6c4,18.6,7.5,37.3,10.8,56.1c3.2,18.8,6.3,37.6,9,56.5l0.8,4.2c1.3,21.4,2.4,42.8,3.2,64.3l0.6,16.1
		l0.4,16.1c0.3,10.7,0.4,21.5,0.6,32.3c0.2,21.6,0.1,43.1-0.4,64.8c-0.7,21.7-3.3,50.3-5.2,72.2l-71.3,21.5L365.1,594l0.8,4.3
		l-49.4-222.9L422.5,341z"/>
	
		<linearGradient id="SVGID_5_" gradientUnits="userSpaceOnUse" x1="270.914" y1="535.8109" x2="270.914" y2="1042.837" gradientTransform="matrix(1 0 0 -1 0 1392)">
		<stop  offset="0" style="stop-color:#6B9C83"/>
		<stop  offset="0.401" style="stop-color:#A6A6A4"/>
		<stop  offset="0.5011" style="stop-color:#9F9FC8"/>
		<stop  offset="0.5908" style="stop-color:#9FCCEC"/>
		<stop  offset="1" style="stop-color:#FFE7B0"/>
	</linearGradient>
	<path style="fill:url(#SVGID_5_);" d="M379.2,372.3l0.2,3.5l0.1,3.5l0.2,6.9l0.1,13.8c0.1,4.6-0.1,9.2-0.1,13.8l-0.3,13.8
		c-0.6,18.3-1.7,36.7-3,55s-3.2,36.6-5.2,54.8c-2.1,18.2-4.4,36.5-7.1,54.7l-1.8,12.5l-1.8,3.8c-9.4,19.4-19,38.8-29,58.1l-7.4,14.4
		l-7.6,14.4c-5,9.6-10.3,19.1-15.4,28.7c-10.5,19-23.2,45-34.4,63.7c-11.3,18.7-22.6,37.4-35,55.7L162,815.9l96.6-247.7l-3.7,16.5
		L286.5,365L379.2,372.3z"/>
	<path style="fill:#2B2B2B;" d="M371.9,526.5l-85.4-48.6c-9.2-6.4-14.1-17.3-12.9-28.4l7.6-45.6l98.5,52.5L371.9,526.5z"/>
	
		<linearGradient id="SVGID_6_" gradientUnits="userSpaceOnUse" x1="352.2932" y1="543" x2="352.2932" y2="1042.6039" gradientTransform="matrix(1 0 0 -1 0 1392)">
		<stop  offset="0" style="stop-color:#6B9C83"/>
		<stop  offset="0.401" style="stop-color:#A6A6A4"/>
		<stop  offset="0.5011" style="stop-color:#9F9FC8"/>
		<stop  offset="0.5908" style="stop-color:#9FCCEC"/>
		<stop  offset="1" style="stop-color:#FFE7B0"/>
	</linearGradient>
	<path style="fill:url(#SVGID_6_);" d="M280,347.7c2.3,20.5,27.1,48.6,62.8,44.9l28.7-3.9c32.5-3.4,55.4-35.2,52.9-57.3L280,347.7z"
		/>
	<g>
		<g>
			<g>
				<path id="SVGID_370_" style="fill:#EA7068;" d="M372.7,191l-26.9,1.6c-13.9,0.8-25.9-9.8-26.7-23.7l-2.4-40.6
					c-1.3-22.3,15.7-41.4,37.9-42.8l0,0c22.3-1.3,41.4,15.7,42.8,37.9l2.2,37.2C400.5,176.5,388.5,190.1,372.7,191z"/>
			</g>
			<g>
				<path style="fill:#2B2B2B;" d="M398.4,139.7c-2.2-0.3-4-2.2-4-4.6c0-2.1,1.5-3.9,3.4-4.4L398.4,139.7z"/>
			</g>
		</g>
		<path style="fill:#2B2B2B;" d="M364.1,236.9l33.3-11.5c0,0-16.7-15.6-45.1-11.9L364.1,236.9z"/>
		<path style="fill:#EA7068;" d="M354.2,238.2l-35.3-10.7l-0.9-77l42.9-2.6l8.7,77.4C370.5,234,362.5,240.7,354.2,238.2z"/>
		<g>
			<path style="fill:#2B2B2B;" d="M388.6,149.6c-0.4,0-0.8-0.2-1.1-0.6c-0.4-0.6-0.2-1.4,0.4-1.8l3.5-2.3c0.3-0.3,0.5-0.8,0.6-1.3
				c0-0.5-0.2-1-0.5-1.3l-6.1-6.5c-0.5-0.5-0.5-1.4,0.1-1.8c0.5-0.5,1.4-0.5,1.8,0.1l6.1,6.5c0.8,0.9,1.2,2,1.2,3.2
				c-0.1,1.2-0.6,2.3-1.5,3.1l-0.2,0.1l-3.6,2.4C389.1,149.5,388.9,149.6,388.6,149.6z M392.2,145.9L392.2,145.9L392.2,145.9z"/>
		</g>
		<g>
			<path style="fill:#2B2B2B;" d="M384.8,164.9c-2.1,0-4.3-0.9-6.6-2.7c-0.6-0.4-0.7-1.3-0.2-1.8c0.4-0.6,1.3-0.7,1.8-0.2
				c2.2,1.7,4.2,2.4,5.9,2c2.4-0.5,3.7-3,3.7-3c0.3-0.6,1.1-0.9,1.8-0.6c0.6,0.3,0.9,1.1,0.6,1.7c-0.1,0.1-1.8,3.5-5.4,4.3
				C385.8,164.8,385.3,164.9,384.8,164.9z"/>
		</g>
		<polygon style="fill:#2B2B2B;" points="365.8,191.4 348.2,192.4 367.7,208.7 		"/>
		<circle style="fill:#2B2B2B;" cx="372.8" cy="136.9" r="4.6"/>
	</g>
	<g>
		<g>
			<path style="fill:#2B2B2B;" d="M533,842.6l-111.1,43.7c-5.8,2.3-12.4-0.5-14.8-6.2l-5.9-13.9l68.9-26.3c1.1-0.4,2.2-0.7,3.3-0.8
				l56.7-7.6C536.9,830.5,539.4,840.1,533,842.6z"/>
		</g>
	</g>
	<g>
		<g>
			<path style="fill:#2B2B2B;" d="M273.6,886.8l-31.1-0.2l-76-52.6c-5.6-2.8-8-9.5-5.3-15.2l6.4-13.7l67.3,34.1l18.1,28.5l22.3,7.7
				C281.9,877.3,280.4,887,273.6,886.8z"/>
		</g>
	</g>
	
		<linearGradient id="SVGID_7_" gradientUnits="userSpaceOnUse" x1="347.9518" y1="863.6667" x2="347.9518" y2="1305.8934" gradientTransform="matrix(1 0 0 -1 0 1392)">
		<stop  offset="0" style="stop-color:#77879D"/>
		<stop  offset="0.4092" style="stop-color:#FDBB6D"/>
		<stop  offset="0.4989" style="stop-color:#FDBB9F"/>
		<stop  offset="0.599" style="stop-color:#D1D2D1"/>
		<stop  offset="1" style="stop-color:#FECEAA"/>
	</linearGradient>
	<path style="fill:url(#SVGID_7_);" d="M312.4,221.8c43.8-25.2,38-27.3,42.2-68.1c3.4-33.7,45.3-36.2,32.8-54.5
		c-8.8-12.8-29.2-18.7-48.2-10.1s-32.6,41-33,64.3S312.4,221.8,312.4,221.8z"/>
	<g>
		<path style="fill:#2B2B2B;" d="M364.1,593.5c-0.1,0-0.1,0-0.2,0c-0.8-0.1-1.4-0.8-1.3-1.7l7.8-65.5c0.1-0.8,0.8-1.4,1.7-1.3
			c0.8,0.1,1.4,0.8,1.3,1.7l-7.8,65.5C365.5,592.9,364.9,593.5,364.1,593.5z"/>
	</g>
	<g>
		<path style="fill:#2B2B2B;" d="M349.5,333c-0.8,0-1.5-0.7-1.5-1.5l-0.3-27c0-0.8,0.7-1.5,1.5-1.5l0,0c0.8,0,1.5,0.7,1.5,1.5
			l0.3,27C351,332.3,350.3,333,349.5,333L349.5,333z"/>
	</g>
	<g>
		<path style="fill:#2B2B2B;" d="M416.7,360.7c-0.2,0-0.4,0-0.6-0.1c-0.8-0.3-1.1-1.2-0.8-2l6.5-14.7c0.3-0.8,1.2-1.1,2-0.8
			c0.8,0.3,1.1,1.2,0.8,2l-6.5,14.7C417.8,360.4,417.3,360.7,416.7,360.7z"/>
	</g>
	<g>
		<path style="fill:#2B2B2B;" d="M419.9,320c-0.7,0-1.3-0.5-1.5-1.1c-1.7-6.9-4.9-10.5-8.2-14.3c-2.8-3.2-5.7-6.4-7.8-11.7
			c-0.3-0.8,0.1-1.6,0.8-2c0.8-0.3,1.6,0.1,2,0.8c1.9,4.7,4.5,7.7,7.3,10.8c3.5,3.9,7,8,8.9,15.6c0.2,0.8-0.3,1.6-1.1,1.8
			C420.1,320,420,320,419.9,320z"/>
	</g>
	<path style="fill:#2B2B2B;" d="M318.9,218c-8.3,4.5-15.1,9.1-22.6,15.3l22.6-5.6V218z"/>
	<g>
		<path style="fill:#2B2B2B;" d="M258.6,601.6c-0.8,0-1.5-0.7-1.5-1.5v-31.8c0-0.8,0.7-1.5,1.5-1.5s1.5,0.7,1.5,1.5v31.8
			C260.1,600.9,259.4,601.6,258.6,601.6z"/>
	</g>
</g>
<g>
	<g style="enable-background:new    ;">
		<path style="fill:#2B2B2B;" d="M896.1,620.1c-1.8-2.6-36.2-50.2-67.4-93.3c-0.1-0.2-0.3-0.3-0.5-0.4L782.9,504
			c-0.6-0.3-1.3-0.1-1.7,0.3c-0.4,0.5-0.4,1.2-0.1,1.7c15.4,21.3,32.9,45.6,46.2,64c11.8,16.3,20.3,28,21.2,29.3
			c0.1,0.2,0.3,0.3,0.5,0.4l45.3,22.4c0.2,0.1,0.4,0.1,0.6,0.1c0.4,0,0.8-0.2,1-0.5C896.5,621.3,896.5,620.6,896.1,620.1z"/>
		<path style="fill:#2B2B2B;" d="M718.4,704.9l-80.8-53.7c0,0-0.1-0.1-0.2-0.1l-45.3-22.4c-0.7-0.3-1.4-0.1-1.8,0.5
			c-0.4,0.6-0.2,1.4,0.4,1.8l80.8,53.7c0,0,0.1,0.1,0.2,0.1l45.3,22.4c0.2,0.1,0.4,0.1,0.6,0.1c0.5,0,0.9-0.2,1.2-0.7
			C719.2,706.1,719,705.3,718.4,704.9z"/>
		<path style="fill:#2B2B2B;" d="M748,473.5c-0.1-0.4-0.4-0.7-0.7-0.9L702,450.3c-0.6-0.3-1.4-0.1-1.8,0.5L590.3,629.2
			c-0.2,0.3-0.3,0.7-0.2,1.1c0.1,0.4,0.4,0.7,0.7,0.9l45.3,22.4c0.2,0.1,0.4,0.1,0.6,0.1c0.5,0,0.9-0.2,1.2-0.7l109.9-178.4
			C748.1,474.3,748.1,473.9,748,473.5z"/>
		<path style="fill:#2B2B2B;" d="M984.3,180.8l-45.4-22.4c-0.5-0.2-1-0.2-1.5,0.1L590.8,425.9c-0.4,0.3-0.6,0.8-0.5,1.2
			c0,0.5,0.3,0.9,0.8,1.1l45.3,22.4c0.2,0.1,0.4,0.1,0.6,0.1c0.3,0,0.6-0.1,0.8-0.3L984.6,183c0.4-0.3,0.6-0.8,0.5-1.2
			C985,181.4,984.7,181,984.3,180.8z"/>
		<g>
			<g>
				<path style="fill:#FFFFFF;" d="M983.7,182L895,620.9c-1.9-2.7-38.4-53.1-67.4-93.3L717.6,706l-80.8-53.7l109.9-178.4
					l-109.8-24.5L983.7,182z"/>
				<path style="fill:#2B2B2B;" d="M717.6,707.4c-0.3,0-0.5-0.1-0.8-0.2L636,653.4c-0.6-0.4-0.8-1.2-0.4-1.9l108.9-176.8
					l-107.9-24.1c-0.5-0.1-0.9-0.5-1-1s0.1-1.1,0.5-1.4l346.8-267.4c0.5-0.4,1.1-0.4,1.6-0.1c0.5,0.3,0.7,0.9,0.6,1.4L896.4,621
					c-0.1,0.5-0.5,1-1.1,1.1c-0.5,0.1-1.1-0.1-1.4-0.6c-0.9-1.3-9.4-13.1-21.2-29.4c-13-17.9-29.9-41.3-44.9-62.2l-109,176.8
					c-0.2,0.3-0.5,0.5-0.9,0.6C717.8,707.4,717.7,707.4,717.6,707.4z M638.7,651.9l78.5,52.2l109.3-177.2c0.2-0.4,0.7-0.6,1.1-0.7
					c0.5,0,0.9,0.2,1.2,0.6c15.4,21.3,32.8,45.5,46.1,63.9c9,12.5,16.2,22.3,19.4,26.9l87.3-432.2L640.1,448.7L747,472.6
					c0.4,0.1,0.8,0.4,1,0.8s0.1,0.9-0.1,1.3L638.7,651.9z"/>
			</g>
		</g>
	</g>
</g>
<linearGradient id="SVGID_8_" gradientUnits="userSpaceOnUse" x1="-1057.7059" y1="673.729" x2="-1057.7059" y2="510.6983" gradientTransform="matrix(-1 0 0 -1 -167.756 1392)">
	<stop  offset="0" style="stop-color:#FFD8A1"/>
	<stop  offset="0.9958" style="stop-color:#FFFFFF"/>
</linearGradient>
<path style="fill:url(#SVGID_8_);" d="M750.1,888.1c79.6,0,77.1-120.8,146.4-136.8c27.7-6.4,42.7-26.8,55.5-49.1
	c21.3-37,77.8-22,77.8,20.7v165.2L750.1,888.1L750.1,888.1z"/>
<rect x="167.2" y="883.9" style="fill:#2B2B2B;" width="773.3" height="4.1"/>
<g>
	<path style="fill:#F9D5FF;" d="M900.8,755.8H600.5c-2.6,0-4.7-1.9-5-4.5l-30.8-282.1c-0.2-1.4,0.3-2.8,1.2-3.9s2.3-1.7,3.7-1.7
		h361.9c1.4,0,2.8,0.6,3.7,1.7s1.4,2.5,1.2,3.9l-30.8,282.1C905.5,753.9,903.4,755.8,900.8,755.8z M605,745.8h291.3L926,473.7H575.3
		L605,745.8z"/>
	
		<rect x="774.267" y="604.74" transform="matrix(0.1086 -0.9941 0.9941 0.1086 210.5411 1454.2736)" style="fill:#F9D5FF;" width="283.804" height="10"/>
	
		<rect x="694.254" y="604.747" transform="matrix(0.0549 -0.9985 0.9985 0.0549 180.8198 1410.5258)" style="fill:#F9D5FF;" width="282.502" height="10"/>
	<rect x="747.7" y="468.7" style="fill:#F9D5FF;" width="10" height="282.1"/>
	
		<rect x="660.891" y="468.494" transform="matrix(0.9985 -0.0545 0.0545 0.9985 -32.2459 37.203)" style="fill:#F9D5FF;" width="10" height="282.496"/>
	
		<rect x="654.088" y="475.991" transform="matrix(0.9986 -0.0526 0.0526 0.9986 -24.6063 35.3126)" style="fill:#D67CCC;" width="10" height="19"/>
	
		<rect x="580.088" y="467.924" transform="matrix(0.9941 -0.1085 0.1085 0.9941 -62.7117 67.0819)" style="fill:#F9D5FF;" width="10" height="283.801"/>
	
		<rect x="923.928" y="477.225" transform="matrix(0.1113 -0.9938 0.9938 0.1113 347.4664 1353.0028)" style="fill:#D67CCC;" width="12.6" height="10"/>
	
		<rect x="834.64" y="478.771" transform="matrix(0.0579 -0.9983 0.9983 0.0579 310.6427 1296.7286)" style="fill:#D67CCC;" width="15.5" height="10"/>
	<rect x="747.7" y="476" style="fill:#D67CCC;" width="10" height="20.3"/>
	
		<rect x="566.632" y="475.891" transform="matrix(0.9943 -0.1069 0.1069 0.9943 -48.745 63.8941)" style="fill:#D67CCC;" width="10" height="21.501"/>
	<path style="fill:#F9D5FF;" d="M942.2,478.7h-502c-5.5,0-10-4.5-10-10s4.5-10,10-10h502c5.5,0,10,4.5,10,10
		S947.7,478.7,942.2,478.7z"/>
	<rect x="577.4" y="534.2" style="fill:#F9D5FF;" width="346.5" height="10"/>
	<rect x="585.1" y="604.7" style="fill:#F9D5FF;" width="331.1" height="10"/>
	<rect x="592.8" y="675.3" style="fill:#F9D5FF;" width="315.7" height="10"/>
	<path style="fill:#F9D5FF;" d="M942.2,794.2c-5.5,0-10-4.5-10-10c0-12.9-10.5-23.4-23.4-23.4H600.5c-5.5,0-10-4.5-10-10
		s4.5-10,10-10h308.3c23.9,0,43.4,19.5,43.4,43.4C952.2,789.7,947.7,794.2,942.2,794.2z"/>
	<path style="fill:#F9D5FF;" d="M522.2,469.5c0,4.6-1.8,8.7-4.8,11.7s-7.1,4.8-11.7,4.8h-78.9c-9.1,0-16.6-7.4-16.6-16.5
		c0-4.6,1.9-8.7,4.9-11.7s7.1-4.8,11.7-4.8h78.9C514.8,452.9,522.2,460.3,522.2,469.5z"/>
	<path style="fill:#2B2B2B;" d="M478.4,469.5c0,4.6-1.9,8.7-4.9,11.7s-7.1,4.8-11.7,4.8h-43.2c-9.1,0-16.6-7.4-16.6-16.5
		c0-4.6,1.9-8.7,4.9-11.7s7.1-4.8,11.7-4.8h43.2C471,452.9,478.4,460.3,478.4,469.5z"/>
	<path style="fill:#2B2B2B;" d="M908.8,827.6H582.5c-5.5,0-10-4.5-10-10s4.5-10,10-10h326.3c12.9,0,23.4-10.5,23.4-23.4
		c0-5.5,4.5-10,10-10s10,4.5,10,10C952.2,808.1,932.7,827.6,908.8,827.6z"/>
	<path style="fill:#2B2B2B;" d="M872.2,887.7c-21.6,0-39.1-17.5-39.1-39.1s17.5-39.1,39.1-39.1s39.1,17.5,39.1,39.1
		S893.8,887.7,872.2,887.7z M872.2,829.5c-10.5,0-19.1,8.6-19.1,19.1s8.6,19.1,19.1,19.1s19.1-8.6,19.1-19.1
		S882.7,829.5,872.2,829.5z"/>
	<path style="fill:#2B2B2B;" d="M644.5,887.7c-21.6,0-39.1-17.5-39.1-39.1s17.5-39.1,39.1-39.1s39.1,17.5,39.1,39.1
		S666.1,887.7,644.5,887.7z M644.5,829.5c-10.5,0-19.1,8.6-19.1,19.1s8.6,19.1,19.1,19.1s19.1-8.6,19.1-19.1S655,829.5,644.5,829.5z
		"/>
	<path style="fill:#EA7068;" d="M412.5,425.1l23.8,13.7c13.3,7.7,17.9,24.7,10.2,38c-6.9,12-21.4,16.9-33.9,12.1l-20.5-7.7"/>
	
		<linearGradient id="SVGID_9_" gradientUnits="userSpaceOnUse" x1="339.0111" y1="1178.4005" x2="339.0111" y2="923.7735" gradientTransform="matrix(1 0 0 -1 0 1392)">
		<stop  offset="0" style="stop-color:#B8A7D3"/>
		<stop  offset="0.401" style="stop-color:#ED4861"/>
		<stop  offset="0.5011" style="stop-color:#F4837D"/>
		<stop  offset="0.5908" style="stop-color:#FECEAA"/>
		<stop  offset="1" style="stop-color:#B7D5EA"/>
	</linearGradient>
	<path style="fill:url(#SVGID_9_);" d="M392.1,481.2l-104.4-39.4c-14.4-5.5-23.1-19.6-22.1-34.2l0.2-3l8.8-139.1
		c1.3-21.2,19.6-37.3,40.8-36c21.2,1.3,37.3,19.6,36,40.8l-8.8,139.1l-22-37.2l91.9,52.9"/>
	<path style="fill:#2B2B2B;" d="M344.1,387.2c-0.3,0-0.5-0.1-0.7-0.2l-14.9-8.6c-0.7-0.4-1-1.3-0.5-2c0.4-0.7,1.3-1,2-0.5l14.9,8.6
		c0.7,0.4,1,1.3,0.5,2C345.1,386.9,344.6,387.2,344.1,387.2z"/>
</g>
<g>
	<g>
		<path style="fill:#F9D5FF;" d="M792.1,164.8c-33.1,0-60.1-19-81.8-34.3c-15.8-11.1-29.5-20.8-41.2-20.8v-10
			c14.9,0,29.7,10.5,47,22.6c21.6,15.2,46.1,32.5,76,32.5c25.6,0,46-16.7,65.8-32.8c17.9-14.6,34.7-28.3,54.1-28.3v10
			c-15.8,0-31.4,12.7-47.8,26.1C844.1,146.2,821.3,164.8,792.1,164.8z"/>
	</g>
	<g>
		<path style="fill:#F9D5FF;" d="M550.8,298.3v-10c16.5,0,37.9-17.9,58.7-35.1c22.5-18.7,43.7-36.4,62.7-36.4v10
			c-15.4,0-36.2,17.3-56.3,34.1C593.8,279.3,570.9,298.3,550.8,298.3z"/>
	</g>
</g>
</svg>
