<?xml version="1.0" encoding="utf-8"?>
<!-- Generator: Adobe Illustrator 22.0.1, SVG Export Plug-In . SVG Version: 6.00 Build 0)  -->
<svg version="1.1" id="Layer_1" xmlns="http://www.w3.org/2000/svg" xmlns:xlink="http://www.w3.org/1999/xlink" x="0px" y="0px" viewBox="0 0 800 781.5" style="enable-background:new 0 0 800 781.5;" xml:space="preserve">

<title>source_final_all</title>
<g>
	<rect width="800" height="781.5" style="fill:#FFFFFF;"/>
	<g style="opacity:0.3;">
		<path d="M743,58.4v582H57v-582H743 M745.2,56.2H54.8v586.5h690.4L745.2,56.2L745.2,56.2z" style="fill:#C4ECFE;"/>
		<g>
			<rect x="54.8" y="471.9" width="690.4" height="2.1" style="fill:#C4ECFE;"/>
		</g>
		<g>
			<rect x="54.8" y="388" width="690.4" height="2.1" style="fill:#C4ECFE;"/>
		</g>
		<g>
			<rect x="54.8" y="471.9" width="690.4" height="2.1" style="fill:#C4ECFE;"/>
		</g>
		<g>
			<rect x="54.8" y="555.9" width="690.4" height="2.1" style="fill:#C4ECFE;"/>
		</g>
		<g>
			<rect x="54.8" y="304" width="690.4" height="2.1" style="fill:#C4ECFE;"/>
		</g>
		<g>
			<rect x="54.8" y="220" width="690.4" height="2.1" style="fill:#C4ECFE;"/>
		</g>
		<g>
			<rect x="54.8" y="136" width="690.4" height="2.1" style="fill:#C4ECFE;"/>
		</g>
	</g>
	<g>
		
			<linearGradient id="SVGID_1_" gradientUnits="userSpaceOnUse" x1="693.343" y1="-694.0405" x2="693.343" y2="-837.7453" gradientTransform="matrix(1 0 0 -1 0 -570.5239)">
			<stop offset="0.26" style="stop-color:#CAE6C4"/>
			<stop offset="0.48" style="stop-color:#CDE7C7"/>
			<stop offset="0.65" style="stop-color:#D6ECD1"/>
			<stop offset="0.82" style="stop-color:#E5F3E2"/>
			<stop offset="0.97" style="stop-color:#FBFDFA"/>
			<stop offset="1" style="stop-color:#FFFFFF"/>
		</linearGradient>
		<path d="M693.3,267.2c-2.2,0-4-1.8-4-4V127.5c0-2.2,1.8-4,4-4s4,1.8,4,4v135.7C697.3,265.4,695.5,267.2,693.3,267.2z" style="fill:url(#SVGID_1_);"/>
	</g>
	<g>
		<path d="M693.3,157.2c-0.2,0-0.4,0-0.7-0.1c-2.2-0.4-3.6-2.4-3.3-4.6c1.8-10.8,11.3-18.2,22.2-17.4
			c2.2,0.1,3.8,2.1,3.7,4.3c-0.1,2.2-2.1,3.8-4.3,3.7c-6.7-0.5-12.7,4.1-13.7,10.8C697,155.9,695.2,157.2,693.3,157.2z" style="fill:#CAE6C4;"/>
	</g>
	<g>
		<path d="M693.3,157.2c-1.9,0-3.6-1.4-3.9-3.3c-1.1-6.7-7-11.3-13.7-10.8c-2.2,0.1-4.1-1.4-4.3-3.7
			c-0.1-2.2,1.4-4.1,3.7-4.3c10.9-0.9,20.5,6.7,22.2,17.4c0.4,2.2-1.1,4.2-3.3,4.6C693.8,157.2,693.6,157.2,693.3,157.2z" style="fill:#CAE6C4;"/>
	</g>
	<g>
		<path d="M693.3,177.2c-0.2,0-0.4,0-0.7-0.1c-2.2-0.4-3.6-2.4-3.3-4.6c1.8-10.8,11.3-18.2,22.2-17.4
			c2.2,0.1,3.8,2.1,3.7,4.3c-0.1,2.2-2.1,3.8-4.3,3.7c-6.7-0.5-12.7,4.1-13.7,10.8C697,175.8,695.2,177.2,693.3,177.2z" style="fill:#CAE6C4;"/>
	</g>
	<g>
		<path d="M693.3,177.2c-1.9,0-3.6-1.4-3.9-3.3c-1.1-6.7-7-11.3-13.7-10.8c-2.2,0.1-4.1-1.4-4.3-3.7
			c-0.1-2.2,1.4-4.1,3.7-4.3c10.9-0.9,20.5,6.7,22.2,17.4c0.4,2.2-1.1,4.2-3.3,4.6C693.8,177.2,693.6,177.2,693.3,177.2z" style="fill:#CAE6C4;"/>
	</g>
	<circle cx="651.7" cy="198.3" r="3" style="fill:#BFD9FF;"/>
	<circle cx="130.2" cy="260.4" r="3" style="fill:#BFD9FF;"/>
	<circle cx="165.1" cy="128.1" r="3" style="fill:#BFD9FF;"/>
	<circle cx="648.7" cy="82.3" r="3" style="fill:#BFD9FF;"/>
	<circle cx="86.3" cy="419" r="2.7" style="fill:#BFD9FF;"/>
	
		<linearGradient id="SVGID_2_" gradientUnits="userSpaceOnUse" x1="-14215.5938" y1="-711.4935" x2="-14215.5938" y2="-764.699" gradientTransform="matrix(-1 0 0 -1 -14097.3594 -570.5239)">
		<stop offset="0" style="stop-color:#FFD8A1"/>
		<stop offset="1" style="stop-color:#FFFFFF"/>
	</linearGradient>
	<path d="M56.4,183.6c0-26.9,23.8-55.2,54.2-37.6c30.2,17.6,19.5,45.2,69.4,52.1H56.4V183.6z" style="fill:url(#SVGID_2_);"/>
	
		<linearGradient id="SVGID_3_" gradientUnits="userSpaceOnUse" x1="-14774.2773" y1="-817.275" x2="-14774.2773" y2="-869.9233" gradientTransform="matrix(-1 0 0 -1 -14097.3594 -570.5239)">
		<stop offset="0" style="stop-color:#FFD8A1"/>
		<stop offset="1" style="stop-color:#FFFFFF"/>
	</linearGradient>
	<path d="M744.6,256.3c0-9.1-11.2-13.4-17.3-6.7c-8.2,9-19.2,15.6-32.9,12.3c-52-12.7-42.4,40.1-85.2,41.4h135.5V256.3z
		" style="fill:url(#SVGID_3_);"/>
	
		<linearGradient id="SVGID_4_" gradientUnits="userSpaceOnUse" x1="602.7134" y1="-1097.2172" x2="602.7134" y2="-1208.4978" gradientTransform="matrix(1 0 0 -1 0 -570.5239)">
		<stop offset="0" style="stop-color:#FFDDB5"/>
		<stop offset="1" style="stop-color:#FFFFFF"/>
	</linearGradient>
	<path d="M460.3,642.6c94.5,0,128.2-117.1,178.1-103.8c29,7.7,48.3-12.3,66.3-30.4c14.7-14.7,40.4-4.7,40.4,15.6v118.6
		H460.3z" style="fill:url(#SVGID_4_);"/>
	
		<linearGradient id="SVGID_5_" gradientUnits="userSpaceOnUse" x1="597.2725" y1="-1136.7178" x2="597.2725" y2="-1210.0753" gradientTransform="matrix(-1 0 0 -1 745.97 -570.5239)">
		<stop offset="0" style="stop-color:#FFDDB5"/>
		<stop offset="1" style="stop-color:#FFFFFF"/>
	</linearGradient>
	<path d="M242.6,642.6c-62.3,0-84.5-77.1-117.4-68.5c-19.2,5.1-31.8-8.1-43.7-20c-9.7-9.7-26.7-3.1-26.7,10.3v78.1
		L242.6,642.6z" style="fill:url(#SVGID_5_);"/>
	<rect x="122.9" y="640.4" width="537.8" height="2.2" style="fill:#2B2B2B;"/>
	<circle cx="463.6" cy="144.5" r="12.8" style="fill:#EA7068;"/>
	
		<linearGradient id="SVGID_6_" gradientUnits="userSpaceOnUse" x1="535.0975" y1="-877.5098" x2="535.0975" y2="-1241.9381" gradientTransform="matrix(0.9999 1.727790e-02 1.727790e-02 -0.9999 -22.5614 -579.4849)">
		<stop offset="0" style="stop-color:#9774AC"/>
		<stop offset="0.4" style="stop-color:#47A6D3"/>
		<stop offset="0.5" style="stop-color:#A7A7AE"/>
		<stop offset="0.59" style="stop-color:#E89AC0"/>
		<stop offset="1" style="stop-color:#BFE7D1"/>
	</linearGradient>
	<path d="M450.4,305.9c-8.3,22.8,2.7,54.3,28.6,53.6c19.9-0.5,21.3,0.3,29.7,0.1c26.6-0.7,44.1-28.1,35.9-53.4
		L450.4,305.9z" style="fill:url(#SVGID_6_);"/>
	
		<linearGradient id="SVGID_7_" gradientUnits="userSpaceOnUse" x1="568.5423" y1="-885.2851" x2="568.5423" y2="-801.8262" gradientTransform="matrix(1 0 0 -1 0 -570.5239)">
		<stop offset="0" style="stop-color:#6B9C83"/>
		<stop offset="0.4" style="stop-color:#A6A6A4"/>
		<stop offset="0.5" style="stop-color:#9F9FC8"/>
		<stop offset="0.59" style="stop-color:#9FCCEC"/>
		<stop offset="1" style="stop-color:#FFE7B0"/>
	</linearGradient>
	<path d="M592,279.7l12.3,26.8c5.2,11.4,0.2,24.9-11.2,30.1c-0.1,0.1-0.4,0.1-0.5,0.2l0,0c-9.3,4-20.3,1.3-26.6-6.6
		l-35.3-43.8l7.3-71.2l16.7,14.5C570.5,243.6,583.3,260.6,592,279.7z" style="fill:url(#SVGID_7_);"/>
	
		<linearGradient id="SVGID_8_" gradientUnits="userSpaceOnUse" x1="586.914" y1="-885.2851" x2="586.914" y2="-801.8262" gradientTransform="matrix(-1 0 0 -1 1015.73 -570.5239)">
		<stop offset="0" style="stop-color:#6B9C83"/>
		<stop offset="0.4" style="stop-color:#A6A6A4"/>
		<stop offset="0.5" style="stop-color:#9F9FC8"/>
		<stop offset="0.59" style="stop-color:#9FCCEC"/>
		<stop offset="1" style="stop-color:#FFE7B0"/>
	</linearGradient>
	<path d="M405.4,279.7l-12.3,26.8c-5.2,11.4-0.2,24.9,11.1,30.1c0.1,0.1,0.4,0.1,0.5,0.2l0,0c9.3,4,20.3,1.3,26.6-6.6
		l35.3-43.8l-7.3-71.2l-16.7,14.5C426.8,243.6,414.1,260.6,405.4,279.7z" style="fill:url(#SVGID_8_);"/>
	
		<linearGradient id="SVGID_9_" gradientUnits="userSpaceOnUse" x1="534.2551" y1="-885.0857" x2="534.2551" y2="-801.627" gradientTransform="matrix(0.9999 1.727790e-02 1.727790e-02 -0.9999 -22.5614 -579.4849)">
		<stop offset="0" style="stop-color:#6B9C83"/>
		<stop offset="0.4" style="stop-color:#A6A6A4"/>
		<stop offset="0.5" style="stop-color:#9F9FC8"/>
		<stop offset="0.59" style="stop-color:#9FCCEC"/>
		<stop offset="1" style="stop-color:#FFE7B0"/>
	</linearGradient>
	<path d="M544.5,306.1c-1.4-4.3-2.2-8.8-2.2-13.3c0-7.6,18.4-19.3,17.8-42.4c-0.4-17.7-19.7-43.8-50.7-43.3l-25,1.2
		c-27.2,0.4-48.6,24.4-49.7,43.3h-0.1c0,0.6,0,1.1,0.1,1.6c0,0.1,0,0.4,0,0.5l0,0c1.7,31.5,23.7,30,15.6,52.2L544.5,306.1z" style="fill:url(#SVGID_9_);"/>
	<circle cx="531.2" cy="145.7" r="12.8" style="fill:#EA7068;"/>
	<path d="M511.6,226.8l22.2-14.1c0,0-9-5.9-24.4-5.7L511.6,226.8z" style="fill:#2B2B2B;"/>
	<path d="M477.9,211.1l1.6-60.2l36.3-0.7l3,60.1c0.7,10.9-7.5,20.2-18.4,20.9c-0.4,0-0.8,0.1-1.2,0.1h-1.6
		c-10.9,0-19.7-8.8-19.7-19.7C477.9,211.5,477.9,211.3,477.9,211.1z" style="fill:#EA7068;"/>
	<polygon points="485.5,184 518.3,201.2 517.1,178.4 	" style="fill:#2B2B2B;"/>
	<path id="_Path_" d="M497.7,186.8L497.7,186.8c-15.9-0.3-29.1-12.6-30.5-28.4l-2.5-27.8c0.4-18.8,15.9-33.8,34.7-33.4
		l0,0c18.8,0.4,33.8,15.9,33.4,34.7l0,0l-3.5,27.6C527.2,175.3,513.6,187,497.7,186.8z" style="fill:#EA7068;"/>
	<ellipse cx="482.9" cy="143.5" rx="3.4" ry="2.4" style="fill:#2B2B2B;"/>
	<ellipse cx="512.4" cy="144.2" rx="3.5" ry="2.2" style="fill:#2B2B2B;"/>
	<g>
		<path d="M497.4,155.1c-0.4,0-0.7-0.2-0.9-0.5c-0.3-0.5-0.1-1.2,0.4-1.5l3-1.9c0.7-0.5,0.7-1.4,0.2-2.1
			c-2.2-2.5-3.3-5.6-3.2-8.8v-0.9c0-0.6,0.5-1.1,1.1-1.1s1.1,0.5,1.1,1.1v0.9c-0.1,2.7,0.9,5.2,2.6,7.2l0.1,0.1c1.3,1.6,1,4-0.6,5.3
			l-0.1,0.1l-3.1,2C497.8,155.1,497.6,155.1,497.4,155.1z" style="fill:#2B2B2B;"/>
	</g>
	<path d="M492.8,160.7c0.7,8.7,10.3,6.4,10.5,0.1L492.8,160.7z" style="fill:#FFFFFF;"/>
	<path d="M466.6,151.9l3.2,0.1l0.5-21.2c0.1-6.9,5.9-12.4,12.8-12.2c1,0,2.1,0.1,3,0.4l8.4,2.3c2.2,0.6,4.4,0.6,6.6,0
		l9.4-2.5c6.7-1.8,13.5,2.1,15.3,8.8c0.2,0.9,0.4,1.8,0.4,2.7l0.6,21l3.4,0.1l3.8-31.3c3.2-20.4-12.9-25.2-34.7-25.2
		s-37.9,4.6-35.8,24.8L466.6,151.9z" style="fill:#2B2B2B;"/>
	<polygon points="570,323.5 505.9,338.6 505.9,240.2 570,225.1 	" style="fill:#4C6CE0;"/>
	<path d="M547.5,294.9c0,0,10.6,22.9,22.6,28.6V298L547.5,294.9z" style="fill:#2B2B2B;"/>
	<polygon points="426.6,323.5 490.7,338.6 490.7,240.2 426.6,225.1 	" style="fill:#4C6CE0;"/>
	<path d="M448.6,289.4c0,0-5.6,19.2-22,34.2v-31.9L448.6,289.4z" style="fill:#2B2B2B;"/>
	<rect x="489.9" y="240.2" width="16.9" height="98.4" style="fill:#4C7DE0;"/>
	<path d="M591,290.2c-1.8,11.8-12.9,19.9-24.7,18.1c-0.4-0.1-0.9-0.1-1.4-0.3l-2.5-0.5c-11.5-2.5-18.8-14-16.3-25.5
		c2.2-10,11.2-17,21.4-16.8l2.5,0.1c11.9,0.3,21.3,10.3,21.1,22.2C591.2,288.4,591.2,289.4,591,290.2L591,290.2z" style="fill:#FDC068;"/>
	<path d="M404.1,287.3c1.8,11.8,12.9,19.9,24.7,18.1c0.4-0.1,0.9-0.1,1.4-0.3l2.5-0.5c11.5-2.5,18.8-14,16.3-25.5
		c-2.2-10-11.2-17-21.4-16.8l-2.5,0.1c-11.9,0.3-21.3,10.3-21.1,22.2C403.9,285.5,404,286.5,404.1,287.3L404.1,287.3z" style="fill:#FDC068;"/>
	
		<linearGradient id="SVGID_10_" gradientUnits="userSpaceOnUse" x1="249.1004" y1="-1064.67" x2="249.1004" y2="-695.5818" gradientTransform="matrix(1 0 0 -1 0 -570.5239)">
		<stop offset="0" style="stop-color:#77879D"/>
		<stop offset="0.41" style="stop-color:#FDBB6D"/>
		<stop offset="0.5" style="stop-color:#FDBB9F"/>
		<stop offset="0.6" style="stop-color:#D1D2D1"/>
		<stop offset="1" style="stop-color:#FECEAA"/>
	</linearGradient>
	<path d="M336.8,381.8c5.9-34.3-9-36,8.2-72.6s-27.4-82.3-26.3-116.4c0.4-11.4,7.4-29.7,9.4-46.3
		c2.6-20.8-22.9-32.8-37.4-17.7c-4.8,5.2-8.9,11-12.2,17.3c-1.3,2.5-3.1,4.6-5.2,6.4c-6.8,5.7-13.7,11.3-23.2,19.2
		c-32.9,27.6-7.6,70.8-17.1,96.3c-9.5,25.5-65.8,34.6-80.3,90.5C121.1,479.6,310.9,532,336.8,381.8z" style="fill:url(#SVGID_10_);"/>
	<path d="M413.2,379.3l16.2,18.3c8,9,7.2,22.9-1.9,31c-8,7.1-20,7.4-28.3,0.7L386.5,419" style="fill:#EA7068;"/>
	
		<linearGradient id="SVGID_11_" gradientUnits="userSpaceOnUse" x1="353.5767" y1="-791.8842" x2="353.5767" y2="-985.4804" gradientTransform="matrix(1 0 0 -1 0 -570.5239)">
		<stop offset="0" style="stop-color:#B8A7D3"/>
		<stop offset="0.4" style="stop-color:#ED4861"/>
		<stop offset="0.5" style="stop-color:#F4837D"/>
		<stop offset="0.59" style="stop-color:#FECEAA"/>
		<stop offset="1" style="stop-color:#B7D5EA"/>
	</linearGradient>
	<path d="M386.5,419l-65.9-53c-4.4-3.5-7.4-8.5-8.5-14l-0.4-2.2L294.3,259c-2.6-16.6,8.8-32.1,25.3-34.7
		c15.8-2.5,30.8,7.7,34.3,23.2l17.4,90.8l-8.8-16.2l50.7,57.2" style="fill:url(#SVGID_11_);"/>
	
		<linearGradient id="_Clipping_Path__1_" gradientUnits="userSpaceOnUse" x1="309.1101" y1="-791.7684" x2="309.1101" y2="-1000.2344" gradientTransform="matrix(1 0 0 -1 0 -570.5239)">
		<stop offset="0" style="stop-color:#B8A7D3"/>
		<stop offset="0.4" style="stop-color:#ED4861"/>
		<stop offset="0.5" style="stop-color:#F4837D"/>
		<stop offset="0.59" style="stop-color:#FECEAA"/>
		<stop offset="1" style="stop-color:#B7D5EA"/>
	</linearGradient>
	<path id="_Clipping_Path_" d="M366.3,316.6c-3.5-30.5-24.2-26.8-18.5-48.2c5.7-21.4-6.7-49.2-30.2-46.5
		c-18.1,2-19.4,1.4-27.1,2.3c-24.1,2.7-38,29.1-28.4,51.4c1.7,3.8,2.7,7.8,3,11.9c0.7,6.9-15.2,19-12.9,40L366.3,316.6z" style="fill:url(#_Clipping_Path__1_);"/>
	<path d="M324.7,468.5l-67.3-38.3c-7.2-5-11.1-13.6-10.1-22.4l5.9-36l77.8,41.4L324.7,468.5z" style="fill:#2B2B2B;"/>
	
		<linearGradient id="SVGID_12_" gradientUnits="userSpaceOnUse" x1="309.1946" y1="-1293.4617" x2="309.1946" y2="-899.3589" gradientTransform="matrix(1 0 0 -1 0 -570.5239)">
		<stop offset="0" style="stop-color:#6B9C83"/>
		<stop offset="0.4" style="stop-color:#A6A6A4"/>
		<stop offset="0.5" style="stop-color:#9F9FC8"/>
		<stop offset="0.59" style="stop-color:#9FCCEC"/>
		<stop offset="1" style="stop-color:#FFE7B0"/>
	</linearGradient>
	<path d="M252.2,327.5c1.8,16.1,21.4,38.4,49.5,35.5l22.6-3.1c25.6-2.7,43.7-27.8,41.7-45.2L252.2,327.5z" style="fill:url(#SVGID_12_);"/>
	<path d="M325.4,203.9l-21.2,1.3c-11,0.7-20.4-7.7-21.1-18.7l-1.9-32c-1-17.6,12.4-32.7,30-33.7l0,0l0,0
		c17.6-1,32.7,12.4,33.7,30l1.7,29.4C347.3,192.5,337.8,203.1,325.4,203.9L325.4,203.9z" style="fill:#EA7068;"/>
	<g>
		<g>
			<g>
				<defs>
					<path id="SVGID_13_" d="M325.4,203.9l-21.2,1.3c-11,0.7-20.4-7.7-21.1-18.7l-1.9-32c-1-17.6,12.4-32.7,30-33.7l0,0l0,0
						c17.6-1,32.7,12.4,33.7,30l1.7,29.4C347.3,192.5,337.8,203.1,325.4,203.9L325.4,203.9z"/>
				</defs>
				<clipPath id="SVGID_14_">
					<use xlink:href="#SVGID_13_" style="overflow:visible;"/>
				</clipPath>
				<g style="clip-path:url(#SVGID_14_);">
					<circle cx="346.1" cy="159.8" r="3.6" style="fill:#2B2B2B;"/>
				</g>
			</g>
		</g>
	</g>
	<path d="M318.6,240.1l26.3-9c0,0-13.2-12.3-35.6-9.4L318.6,240.1z" style="fill:#2B2B2B;"/>
	<path d="M310.8,241.2l-27.9-8.4l-0.7-60.7l33.9-2l6.8,61c0.6,5.2-3.2,9.8-8.3,10.4C313.3,241.7,312,241.5,310.8,241.2
		z" style="fill:#EA7068;"/>
	<path d="M336.1,159.6l4.8,5.1c0.9,1,0.9,2.5-0.1,3.5l-0.1,0.1l-2.8,2" style="fill:none;stroke:#2B2B2B;stroke-width:2.84;stroke-linecap:round;stroke-miterlimit:10;"/>
	<path d="M343,176.6c-1.4,9.5-9.9,10.4-13.1,0H343z" style="fill:#FFFFFF;"/>
	<polygon points="319.9,204.2 306.1,205.1 321.4,217.9 	" style="fill:#2B2B2B;"/>
	<circle cx="325.5" cy="161.1" r="3.6" style="fill:#2B2B2B;"/>
	
		<linearGradient id="SVGID_15_" gradientUnits="userSpaceOnUse" x1="308.1739" y1="-1040.2489" x2="308.1739" y2="-691.783" gradientTransform="matrix(1 0 0 -1 0 -570.5239)">
		<stop offset="0" style="stop-color:#77879D"/>
		<stop offset="0.41" style="stop-color:#FDBB6D"/>
		<stop offset="0.5" style="stop-color:#FDBB9F"/>
		<stop offset="0.6" style="stop-color:#D1D2D1"/>
		<stop offset="1" style="stop-color:#FECEAA"/>
	</linearGradient>
	<path d="M277.8,228.1c34.6-19.9,19.5-24.9,22.7-57c2.2-21.1,26.4-23.9,32.5-37.3c13,16.1,12.9,7.7,5-2.3
		c-7.6-9.6-24.1-14.8-39.1-8c-15,6.8-25.8,32.4-26,50.7S277.8,228.1,277.8,228.1z" style="fill:url(#SVGID_15_);"/>
	<g>
		<path d="M307.1,315.8c-0.7,0-1.2-0.5-1.2-1.2l-0.2-21.3c0-0.7,0.5-1.2,1.2-1.2l0,0c0.7,0,1.2,0.5,1.2,1.2l0.2,21.3
			C308.3,315.3,307.8,315.8,307.1,315.8L307.1,315.8z" style="fill:#2B2B2B;"/>
	</g>
	<g>
		<path d="M360.1,337.7c-0.1,0-0.3,0-0.5-0.1c-0.6-0.3-0.9-0.9-0.6-1.6l5.1-11.6c0.3-0.6,0.9-0.9,1.6-0.6
			c0.6,0.3,0.9,0.9,0.6,1.6l-5.1,11.6C361,337.5,360.6,337.7,360.1,337.7z" style="fill:#2B2B2B;"/>
	</g>
	<g>
		<path d="M365.2,316.9c-0.7,0-1.2-0.5-1.2-1.2c0-0.1,0-7.2-2.4-11.6c-2.1-3.8-4.1-6.2-6-8.5
			c-2.5-2.9-4.7-5.6-6.7-10.6c-0.2-0.6,0.1-1.3,0.7-1.5c0.6-0.2,1.3,0.1,1.5,0.7c1.9,4.6,4.1,7.2,6.4,9.9c2,2.4,4.1,4.8,6.3,8.9
			c2.7,4.9,2.7,12.4,2.7,12.7C366.4,316.4,365.8,316.9,365.2,316.9L365.2,316.9z" style="fill:#2B2B2B;"/>
	</g>
	<path d="M282.9,225.1c-6.4,3.4-12.3,7.5-17.8,12l17.8-4.4V225.1z" style="fill:#2B2B2B;"/>
	<path d="M356.8,388.6l18.8,10.9c10.5,6.1,14.1,19.5,8,30c-5.4,9.3-16.7,13.4-26.8,9.6l-16.1-6.1" style="fill:#EA7068;"/>
	
		<linearGradient id="SVGID_16_" gradientUnits="userSpaceOnUse" x1="298.8529" y1="-792.2387" x2="298.8529" y2="-993.0999" gradientTransform="matrix(1 0 0 -1 0 -570.5239)">
		<stop offset="0" style="stop-color:#B8A7D3"/>
		<stop offset="0.4" style="stop-color:#ED4861"/>
		<stop offset="0.5" style="stop-color:#F4837D"/>
		<stop offset="0.59" style="stop-color:#FECEAA"/>
		<stop offset="1" style="stop-color:#B7D5EA"/>
	</linearGradient>
	<path d="M340.7,432.9l-82.3-31.1c-11.1-4.2-18.2-15.1-17.4-27l0.1-2.3l6.9-109.7c0.4-16.8,14.3-30,31.1-29.7
		c16.8,0.4,30,14.3,29.7,31.1c0,0.8-0.1,1.6-0.1,2.4l-6.9,109.7l-17.4-29.5l72.4,41.8" style="fill:url(#SVGID_16_);"/>
	<g>
		<path d="M302.8,358.7c-0.2,0-0.4-0.1-0.6-0.1l-11.8-6.8c-0.6-0.4-0.8-1.1-0.4-1.6c0.4-0.6,1.1-0.8,1.6-0.4l11.8,6.8
			c0.6,0.4,0.8,1.1,0.4,1.6C303.6,358.5,303.3,358.7,302.8,358.7z" style="fill:#2B2B2B;"/>
	</g>
	<path d="M553.8,576H246.2l-81,8.4l15.7,26.1h40.5c6.5,0,12.9,2.2,18,6.1l4.6,3.5c5.2,4,11.5,6.1,18,6.1h276
		c6.5,0,12.9-2.2,18-6.1l4.6-3.5c5.2-4,11.5-6.1,18-6.1h40.5l15.7-26.1L553.8,576z" style="fill:#2B2B2B;"/>
	<path d="M628.9,453.4h60.2c5.4,0,9.8,4.4,9.8,9.8v169.5c0,5.4-4.4,9.8-9.8,9.8h-60.2c-5.4,0-9.8-4.4-9.8-9.8V463.3
		C619.1,457.8,623.5,453.4,628.9,453.4z" style="fill:#2B2B2B;"/>
	<path d="M171.1,642.6h-60.2c-5.4,0-9.8-4.4-9.8-9.8V463.3c0-5.4,4.4-9.8,9.8-9.8h60.2c5.4,0,9.8,4.4,9.8,9.8v169.5
		C180.9,638.1,176.5,642.6,171.1,642.6z" style="fill:#2B2B2B;"/>
	<path d="M690,416.4L641.5,344H158.5L110,416.4c-5.1,7.7-7.1,17-5.5,26l23.9,135.7c3.3,18.7,19.5,32.3,38.6,32.3h14
		v-13.9c0-5.6,4.6-10.1,10.1-10.1h68.4c7.2,0,14.3,1.4,21.1,4.1l26,10.4c3.7,1.5,7.7,2.2,11.6,2.2h163.7c4,0,8-0.8,11.6-2.2l26-10.4
		c6.7-2.7,13.8-4.1,21.1-4.1H609c5.6,0,10.1,4.6,10.1,10.1v13.9h14c19,0,35.2-13.7,38.6-32.3l23.9-135.7
		C697.1,433.4,695.2,424,690,416.4z" style="fill:#F9D5FF;"/>
	<g>
		<path d="M614,437.8c-0.2,0-0.4-0.1-0.6-0.1c-0.5-0.3-0.7-0.9-0.4-1.5l32.1-54c3.4-5.7,4.1-12.6,2-18.8l-6.5-19
			c-0.2-0.6,0.1-1.2,0.7-1.4c0.6-0.2,1.2,0.1,1.4,0.7l6.5,19c2.4,6.9,1.6,14.4-2.1,20.6l-32.1,54C614.7,437.6,614.4,437.8,614,437.8
			z" style="fill:#EA98E6;"/>
	</g>
	<g>
		<path d="M186,437.8c-0.4,0-0.7-0.2-0.9-0.5l-32-54c-3.7-6.2-4.5-13.7-2.1-20.6l6.5-19c0.2-0.6,0.8-0.9,1.4-0.7
			c0.6,0.2,0.9,0.8,0.7,1.4l-6.5,19c-2.2,6.3-1.4,13.1,2,18.8l32,54c0.3,0.5,0.1,1.2-0.4,1.5C186.3,437.7,186.2,437.8,186,437.8z" style="fill:#EA98E6;"/>
	</g>
	<path d="M529.7,445.9L529.7,445.9c0,10.1,8.2,18.3,18.3,18.3l0,0h94.6c19,0,34.5-15.4,34.5-34.5h-83.7
		C571.1,429.7,549.3,435.2,529.7,445.9L529.7,445.9z" style="fill:#FFFFFF;"/>
	<path d="M702.5,312.1h-66.9l6,31.8H693c11.4,0,20.7-9.3,20.7-20.7l0,0C713.7,317.1,708.6,312.1,702.5,312.1z" style="fill:#EA98E6;"/>
	<path d="M651.7,571.1h-69.4c-15.7,0-29.4-10.8-33-26l-1.2-5.4l0,0l-4.9-20.8c-1.4-6.2-7-10.6-13.4-10.6h81
		c14.6,0,27.4,9.9,31,24.1l1.9,7.3L651.7,571.1z" style="fill:#F9BBFF;"/>
	<circle cx="568.5" cy="524.1" r="7.5" style="fill:#FFFFFF;"/>
	<path d="M651.7,571.1h-69.4c-15.7,0-29.4-10.8-33-26l-1.2-5.4h95.6L651.7,571.1z" style="fill:#FDCF45;"/>
	<path d="M400,508.3h-72.9c-7.2,0-13.2,5.9-13.2,13.2l0,0v19.1c0,7.2,5.9,13.2,13.2,13.2l0,0h145.7
		c7.3,0,13.2-5.9,13.2-13.2l0,0v-19.1c0-7.3-5.9-13.2-13.2-13.2l0,0H400z" style="fill:#FFFFFF;"/>
	<path d="M270.3,445.9L270.3,445.9c0,10.1-8.2,18.3-18.3,18.3l0,0h-94.6c-19,0-34.5-15.4-34.5-34.5l0,0h83.6
		C228.8,429.7,250.7,435.2,270.3,445.9L270.3,445.9z" style="fill:#FFFFFF;"/>
	<path d="M529.7,445.9c0,2.2-0.2,4.3-0.7,6.4c-0.1,0.7-0.4,1.4-0.6,2.2c-1.4,4.5-3.8,8.5-7.2,11.8
		c-0.8,0.8-1.6,1.5-2.5,2.2c-1.7,1.4-3.6,2.5-5.6,3.5l-17.7,8.3l-4.6,2.2l-16.5,7.7c-3.8,1.8-8,2.7-12.2,2.7H337.7
		c-4.2,0-8.3-0.9-12.2-2.7l-16.5-7.7l-4.6-2.2l-17.7-8.3c-2-0.9-3.9-2.1-5.6-3.5c-0.9-0.7-1.7-1.4-2.5-2.2
		c-3.3-3.3-5.8-7.4-7.2-11.8c-0.2-0.7-0.4-1.4-0.6-2.2c-0.5-2.1-0.7-4.3-0.7-6.4l17.3-5.4l7-2.2l19.6-6.1c5.6-1.7,11.4-2.6,17.1-2.6
		h137.4c5.8,0,11.6,0.9,17.1,2.6l19.6,6.1l7,2.2L529.7,445.9z" style="fill:#2B2B2B;"/>
	<path d="M97.5,312.1h66.9l-6,31.9H107c-11.4,0-20.7-9.3-20.7-20.7l0,0C86.3,317.1,91.4,312.2,97.5,312.1z" style="fill:#EA98E6;"/>
	<path d="M148.3,571.1h69.4c15.7,0,29.4-10.8,33-26l1.3-5.4l0,0l4.9-20.8c1.4-6.2,7-10.6,13.4-10.6h-81
		c-14.6,0-27.4,9.9-31,24.1l-1.9,7.3L148.3,571.1z" style="fill:#F9BBFF;"/>
	<circle cx="231.5" cy="524.1" r="7.5" style="fill:#FFFFFF;"/>
	<path d="M148.3,571.1h69.4c15.7,0,29.4-10.8,33-26l1.3-5.4h-95.7L148.3,571.1z" style="fill:#FDCF45;"/>
	<g>
		<path d="M640.4,344.2L597,114c-6.8-29.1-37-39.5-63-39.5H266c-23.7,0-54.4,10.3-63,39.5l-43.4,230.1l-2.1-0.4
			l43.4-230.2v-0.1c9-30.4,40.7-41.2,65.1-41.2h268c15,0,29.2,3.3,40.3,9.4c13.1,7.2,21.7,18.2,24.9,31.8l43.4,230.2L640.4,344.2z" style="fill:#4171FF;"/>
	</g>
	<path d="M620.3,336c-42.1-15.8-86.8-24-131.8-24H311.4c-45,0-89.7,8.1-131.8,24l-21.2,8h483.1L620.3,336z" style="fill:#DEB8FF;"/>
	<polygon points="512.4,440.5 287.6,440.5 294.6,438.4 505.4,438.4 	" style="fill:#EA98E6;"/>
	<path d="M528.9,452.3c-0.1,0.7-0.4,1.4-0.6,2.2H271.6c-0.2-0.7-0.4-1.4-0.6-2.2H528.9z" style="fill:#EA98E6;"/>
	<path d="M521.2,466.4c-0.8,0.8-1.6,1.5-2.5,2.2H281.2c-0.9-0.7-1.7-1.4-2.5-2.2H521.2z" style="fill:#EA98E6;"/>
	<polygon points="495.4,480.3 490.8,482.5 309.2,482.5 304.6,480.3 	" style="fill:#EA98E6;"/>
	<g>
		<path d="M419.2,108.2h-56.6c-2.7,0-5.1-2.1-5.5-4.8l-0.9-6.9c-0.2-1.4,0.1-3,1.1-4.1c0.9-1.2,2.2-2,3.7-2.2
			c0.3,0,0.5,0,0.8-0.1h58.5l0,0c1.5,0,2.9,0.6,3.9,1.7c1.1,1.1,1.7,2.5,1.7,3.9c0,0.3,0,0.5-0.1,0.8l-0.9,6.9
			C424.4,106.1,422,108.2,419.2,108.2z M361.7,92.3c-0.1,0-0.3,0-0.4,0c-0.9,0.1-1.7,0.6-2.2,1.3c-0.6,0.7-0.8,1.6-0.7,2.5l0.9,6.9
			c0.2,1.7,1.7,3,3.4,3h56.6l0,0c1.7,0,3.2-1.3,3.4-3l0.9-6.9c0-0.1,0-0.3,0-0.4c0-0.9-0.4-1.7-1-2.4c-0.7-0.7-1.5-1-2.4-1l0,0
			L361.7,92.3L361.7,92.3z" style="fill:#4171FF;"/>
	</g>
	<g>
		<rect x="389.9" y="73.4" width="2.2" height="17.7" style="fill:#4171FF;"/>
	</g>
</g>
</svg>
