<?xml version="1.0" encoding="iso-8859-1"?>
<!-- Generator: Adobe Illustrator 23.0.2, SVG Export Plug-In . SVG Version: 6.00 Build 0)  -->
<svg version="1.1" id="Layer_1" xmlns="http://www.w3.org/2000/svg" xmlns:xlink="http://www.w3.org/1999/xlink" x="0px" y="0px"
	 viewBox="0 0 1105.6 1080" style="enable-background:new 0 0 1105.6 1080;" xml:space="preserve">
<g style="opacity:0.3;">
	<g>
		<path style="fill:#C4ECFE;" d="M1026.7,80.7V885H78.8V80.7H1026.7 M1029.8,77.6H75.7v810.5h954.1L1029.8,77.6L1029.8,77.6z"/>
	</g>
	<g>
		<g>
			<rect x="75.7" y="652.2" style="fill:#C4ECFE;" width="954.1" height="2.9"/>
		</g>
		<g>
			<rect x="75.7" y="536.1" style="fill:#C4ECFE;" width="954.1" height="2.9"/>
		</g>
		<g>
			<rect x="75.7" y="652.2" style="fill:#C4ECFE;" width="954.1" height="2.9"/>
		</g>
		<g>
			<rect x="75.7" y="768.2" style="fill:#C4ECFE;" width="954.1" height="2.9"/>
		</g>
		<g>
			<rect x="75.7" y="420.1" style="fill:#C4ECFE;" width="954.1" height="2.9"/>
		</g>
		<g>
			<rect x="75.7" y="304" style="fill:#C4ECFE;" width="954.1" height="2.9"/>
		</g>
		<g>
			<rect x="75.7" y="188" style="fill:#C4ECFE;" width="954.1" height="2.9"/>
		</g>
	</g>
</g>
<g>
	<g>
		<g>
			<path style="fill:#CAE6C4;" d="M294,427.1c-0.4,0-0.9,0-1.3-0.1c-6-0.7-10.2-6.2-9.5-12.1c9.4-77,68.3-117.1,70.8-118.7
				c5-3.3,11.8-2,15.1,3c3.3,5,2,11.8-3,15.1c-0.7,0.5-53.1,36.6-61.2,103.3C304.1,423,299.4,427.1,294,427.1z"/>
		</g>
		<g>
			<path style="fill:#CAE6C4;" d="M281.1,446.8c-5.4,0-10.1-4-10.8-9.6c-8-64.6-58.6-76.8-59.1-76.9c-5.9-1.3-9.5-7.2-8.2-13
				c1.3-5.9,7.2-9.5,13-8.2c0.7,0.2,17.2,4,34.7,17.8c16,12.6,36.1,36.3,41.2,77.7c0.7,6-3.5,11.4-9.5,12.2
				C282,446.8,281.5,446.8,281.1,446.8z"/>
		</g>
		<g>
			<path style="fill:#CAE6C4;" d="M281,449.1c-6,0-10.9-4.9-10.9-10.9c0-121.5,16.1-193.7,25.8-226c1.7-5.8,7.8-9.1,13.6-7.3
				c5.8,1.7,9.1,7.8,7.3,13.6c-9.3,31.1-24.8,101.1-24.8,219.8C291.9,444.2,287,449.1,281,449.1z"/>
		</g>
		<g>
			<path style="fill:#EDC16C;" d="M303.7,235.2c-1,0-2.1-0.1-3.1-0.4c-5.8-1.7-9.1-7.8-7.4-13.5c6.1-20.8,13.4-40.5,13.7-41.3
				c2.1-5.6,8.4-8.5,14-6.4s8.5,8.4,6.4,14c-0.1,0.2-7.3,19.8-13.3,39.9C312.8,232.1,308.4,235.2,303.7,235.2z"/>
		</g>
		<g>
			<path style="fill:#CAE6C4;" d="M270.2,475.3c-0.4,0-0.9,0-1.3-0.1c-6-0.7-10.2-6.2-9.5-12.1c15-124.5-29.9-210-49.8-241
				c-3.3-5.1-1.8-11.8,3.2-15.1c5.1-3.3,11.8-1.8,15.1,3.2c21.3,33,69,123.8,53.2,255.4C280.4,471.2,275.7,475.3,270.2,475.3z"/>
		</g>
		<g>
			<g>
				<path style="fill:#EDC16C;" d="M218.7,227c-3.6,0-7.1-1.8-9.2-5c-12.4-19.1-25.2-36.3-38.2-51.1c-4-4.5-3.5-11.4,1-15.4
					s11.4-3.5,15.4,1c13.7,15.6,27.2,33.7,40.2,53.7c3.3,5.1,1.8,11.8-3.2,15.1C222.8,226.4,220.7,227,218.7,227z"/>
			</g>
			<g>
				<path style="fill:#EDC16C;" d="M218.8,227c-4.6,0-8.8-2.9-10.3-7.4c-16.1-47.9,11.5-69.2,12.7-70.1l13,17.5l0.2-0.1
					c-0.7,0.5-16.1,13.5-5.2,45.8c1.9,5.7-1.1,11.9-6.9,13.8C221.1,226.8,220,227,218.8,227z"/>
			</g>
			<g>
				<path style="fill:#EDC16C;" d="M218.7,227c-2.2,0-4.5-0.7-6.4-2.1c-27.8-20.2-45-9-45.1-8.9c-4.9,3.5-11.7,2.4-15.2-2.5
					s-2.4-11.7,2.5-15.2c1.2-0.9,29.8-20.8,70.7,8.9c4.9,3.5,6,10.4,2.4,15.2C225.4,225.4,222.1,227,218.7,227z"/>
			</g>
		</g>
		<g>
			<path style="fill:#EDC16C;" d="M303.8,235.2c-5.9,0-10.8-4.8-10.9-10.7c-0.3-22.2-15.7-37.1-15.9-37.2c-4.4-4.1-4.6-11-0.5-15.4
				s11-4.6,15.4-0.5c0.9,0.8,22.3,21.1,22.8,52.8c0.1,6-4.7,11-10.7,11.1C303.9,235.2,303.9,235.2,303.8,235.2z"/>
		</g>
		<g>
			<path style="fill:#CAE6C4;" d="M265.3,344.7c-3.7,0-7.2-1.8-9.3-5.2c-11.7-18.9-25.5-29.9-40.1-31.8c-6-0.8-10.2-6.2-9.4-12.2
				s6.3-10.2,12.2-9.4c27,3.5,45.3,24.8,55.9,42c3.2,5.1,1.6,11.8-3.6,15C269.2,344.2,267.3,344.7,265.3,344.7z"/>
		</g>
		<g>
			<path style="fill:#CAE6C4;" d="M291,298c-0.8,0-1.5-0.1-2.3-0.2c-5.9-1.3-9.6-7.1-8.4-12.9c4.6-21.5,24.5-29.5,35.5-30.8
				c6-0.7,11.4,3.5,12.1,9.5s-3.5,11.4-9.4,12.1c-0.8,0.1-14.5,2.2-16.9,13.8C300.6,294.5,296,298,291,298z"/>
		</g>
	</g>
	<g>
		<path style="fill:#FFFFFF;" d="M226.6,436.7l-24-24h156.7l-24,24c-15,15-13.2,40,4.1,52.5c25.3,18.2,41.8,47.9,41.7,81.5
			c-0.1,53.5-42.8,98-96.3,100c-57.1,2.2-104.1-43.5-104.1-100.1c0-33.6,16.5-63.3,41.9-81.5C239.9,476.7,241.6,451.7,226.6,436.7z"
			/>
		<path style="fill:#F9D5FF;" d="M280.8,675.8c-27.3,0-53.1-10.3-72.9-29.4c-20.8-20-32.3-47-32.3-75.8c0-33.9,16.5-65.9,44-85.6
			c6.9-5,11.3-12.7,12-21.2c0.7-8.7-2.4-17.3-8.6-23.5l-24-24c-1.4-1.4-1.9-3.6-1.1-5.5c0.8-1.9,2.6-3.1,4.7-3.1h156.7
			c2,0,3.9,1.2,4.7,3.1c0.8,1.9,0.3,4.1-1.1,5.5l-24,24c-6.2,6.2-9.3,14.7-8.6,23.3c0.7,8.6,5.1,16.4,12.1,21.5
			c27.5,19.8,43.9,51.8,43.8,85.6c-0.1,27.2-10.5,53.1-29.5,72.8c-19,19.8-44.5,31.2-71.6,32.2C283.6,675.8,282.2,675.8,280.8,675.8
			z M214.8,417.8l15.4,15.4c8.3,8.3,12.5,19.8,11.6,31.4c-0.9,11.5-6.8,21.9-16.2,28.6c-24.9,17.9-39.8,46.8-39.8,77.4
			c0,26.1,10.4,50.4,29.2,68.6c18.8,18.1,43.5,27.5,69.7,26.5c24.5-0.9,47.5-11.3,64.7-29.1c17.2-17.9,26.7-41.2,26.7-65.8
			c0.1-30.6-14.7-59.5-39.6-77.4c-9.4-6.8-15.3-17.3-16.2-28.9c-0.9-11.6,3.3-23,11.5-31.3l15.4-15.4L214.8,417.8L214.8,417.8z"/>
	</g>
	<g>
		<rect x="236.8" y="456.9" style="fill:#F9D5FF;" width="93" height="10.1"/>
	</g>
</g>
<g>
	<path style="fill:#FFFFFF;" d="M628.4,882.1H145.1c-54.9,0-80.1-66.7-38.4-101.5L665.4,314c38.4-32.1,97.6-5.4,97.5,44l-0.8,394
		C761.9,823.8,702.1,882.1,628.4,882.1z"/>
	<path style="fill:#F9D5FF;" d="M628.4,887.2H145.1c-27.5,0-51.3-16.4-60.5-41.8c-9.1-25.1-1.9-51.4,18.8-68.6l558.7-466.6
		c19.6-16.4,46.2-19.8,69.4-8.9c22.5,10.6,36.5,32.3,36.4,56.8l-0.8,394C767,826.5,704.7,887.2,628.4,887.2z M703.6,305.1
		c-12.5,0-24.9,4.4-35,12.8L109.9,784.5c-20.7,17.3-21.7,41-15.8,57.4c6.2,17,22.8,35.1,50.9,35.1h483.3
		c70.7,0,128.4-56.1,128.6-125.1l0.8-394c0-20.8-11.4-38.6-30.6-47.6C719.6,306.8,711.6,305.1,703.6,305.1z"/>
</g>
<g>
	<g>
		<path style="fill:#FFFFFF;" d="M880.9,451.2H706.7v-40.1c0-25.5,20.6-46.1,46.1-46.1h128.1V451.2z"/>
		<path style="fill:#F9D5FF;" d="M886.1,456.4H701.5v-45.3c0-28.3,23-51.3,51.3-51.3h133.3V456.4z M711.9,446h163.8v-75.8H752.8
			c-22.5,0-40.9,18.3-40.9,40.9L711.9,446L711.9,446z"/>
	</g>
	<g>
		<path style="fill:#FFFFFF;" d="M784.9,537.4H610.7v-40.1c0-25.5,20.6-46.1,46.1-46.1h128.1V537.4z"/>
		<path style="fill:#F9D5FF;" d="M790.1,542.6H605.5v-45.3c0-28.3,23-51.3,51.3-51.3h133.3V542.6z M615.9,532.2h163.8v-75.8H656.8
			c-22.5,0-40.9,18.3-40.9,40.9L615.9,532.2L615.9,532.2z"/>
	</g>
	<g>
		<path style="fill:#FFFFFF;" d="M688.9,623.5H514.7v-40.1c0-25.5,20.6-46.1,46.1-46.1h128.1V623.5z"/>
		<path style="fill:#F9D5FF;" d="M694.1,628.7H509.5v-45.3c0-28.3,23-51.3,51.3-51.3h133.3V628.7z M519.9,618.3h163.8v-75.8H560.8
			c-22.5,0-40.9,18.3-40.9,40.9L519.9,618.3L519.9,618.3z"/>
	</g>
	<g>
		<path style="fill:#FFFFFF;" d="M592.9,709.7H418.7v-40.1c0-25.5,20.6-46.1,46.1-46.1h128.1V709.7z"/>
		<path style="fill:#F9D5FF;" d="M598.1,714.9H413.5v-45.3c0-28.3,23-51.3,51.3-51.3h133.3V714.9z M423.9,704.5h163.8v-75.8H464.8
			c-22.5,0-40.9,18.3-40.9,40.9V704.5z"/>
	</g>
	<g>
		<path style="fill:#FFFFFF;" d="M496.9,795.9H322.7v-40.1c0-25.5,20.6-46.1,46.1-46.1h128.1L496.9,795.9L496.9,795.9z"/>
		<path style="fill:#F9D5FF;" d="M502.1,801.1H317.5v-45.3c0-28.3,23-51.3,51.3-51.3h133.3L502.1,801.1L502.1,801.1z M327.9,790.7
			h163.8v-75.8H368.8c-22.5,0-40.9,18.3-40.9,40.9V790.7z"/>
	</g>
	<g>
		<path style="fill:#FFFFFF;" d="M400.9,882.1H226.7V842c0-25.5,20.6-46.1,46.1-46.1h128.1V882.1z"/>
		<path style="fill:#F9D5FF;" d="M406.1,887.3H221.5V842c0-28.3,23-51.3,51.3-51.3h133.3L406.1,887.3L406.1,887.3z M231.9,876.9
			h163.8v-75.8H272.8c-22.5,0-40.9,18.3-40.9,40.9V876.9z"/>
	</g>
</g>
<g>
	<path style="fill:#BE6361;" d="M496.3,246.1l14.1-11.4c15.1-12.2,37.3-9.9,49.6,5.2c11.3,13.9,10.2,33.8-1.8,46.4l-7,7.4
		L496.3,246.1z"/>
	
		<linearGradient id="SVGID_1_" gradientUnits="userSpaceOnUse" x1="487.8183" y1="1108" x2="487.8183" y2="898" gradientTransform="matrix(1 0 0 -1 0 1392)">
		<stop  offset="0" style="stop-color:#EA979A"/>
		<stop  offset="0.4092" style="stop-color:#F2D38B"/>
		<stop  offset="0.4989" style="stop-color:#7E9DAE"/>
		<stop  offset="0.599" style="stop-color:#90979D"/>
		<stop  offset="1" style="stop-color:#7EBDDB"/>
	</linearGradient>
	<path style="fill:url(#SVGID_1_);" d="M551.3,293.7l-135.4,143l-48.5-82.2l212.3-70.3c25.6-8.5,53.2,5.4,61.7,31s-5.4,53.2-31,61.7
		l-212.3,70.3l-3,1c-25.3,8.4-52.5-5.3-60.9-30.6c-6.5-19.5,0.3-40.3,15.4-52.6l146.8-118.9L551.3,293.7z"/>
	<g>
		<path style="fill:#2B2B2B;" d="M461.4,390.3c-0.4,0-0.8-0.2-1.1-0.5c-0.7-0.6-0.7-1.7-0.1-2.3l89.9-94.9c0.6-0.7,1.7-0.7,2.3-0.1
			c0.7,0.6,0.7,1.7,0.1,2.3l-89.9,94.9C462.3,390.1,461.8,390.3,461.4,390.3z"/>
	</g>
	
		<linearGradient id="SVGID_2_" gradientUnits="userSpaceOnUse" x1="427.25" y1="682.2672" x2="427.25" y2="995.2708" gradientTransform="matrix(1 0 0 -1 0 1392)">
		<stop  offset="0" style="stop-color:#D96359"/>
		<stop  offset="0.401" style="stop-color:#90979D"/>
		<stop  offset="0.5011" style="stop-color:#7E9DAE"/>
		<stop  offset="0.5908" style="stop-color:#B8C1FC"/>
		<stop  offset="1" style="stop-color:#D2D4D4"/>
	</linearGradient>
	<path style="fill:url(#SVGID_2_);" d="M564.2,568.9l-7.6-2c0,0-90.6-30.4-109.8-38.2c-1.6-0.7-17.8-7-33.2-14
		c-31.4-14.2-73.5-34.2-79.7-37.3l94.1-59.8l-3,21.9l-1.5,11l-1.6,11c-2.2,14.6-1.4,11.2-6.7,43.8c-5.3,33-82.7,261.5-82.7,261.5
		l-93.3-24.3l50.5-333.8c2.5-38.4,35.6-67.6,74.1-65.2c7.3,0.5,14.6,2.2,21.1,4.7L615.3,439L564.2,568.9z"/>
	<g>
		<path style="fill:#2B2B2B;" d="M413.6,516.4c-0.1,0-0.2,0-0.3,0c-0.9-0.1-1.5-1-1.4-1.9l4.4-27.7c0.1-0.9,1-1.5,1.9-1.4
			s1.5,1,1.4,1.9l-4.4,27.7C415.1,515.8,414.4,516.4,413.6,516.4z"/>
	</g>
	<g>
		<path style="fill:#2B2B2B;" d="M163.1,753l145.6,41.8c7.6,2.2,15.6-2.1,18-9.7l5.7-18.3l-92.3-25.5l-74.7-2.8
			C156.7,738.2,154.7,750.6,163.1,753z"/>
	</g>
	
		<linearGradient id="SVGID_3_" gradientUnits="userSpaceOnUse" x1="627.3066" y1="1108" x2="627.3066" y2="898" gradientTransform="matrix(1 0 0 -1 0 1392)">
		<stop  offset="0" style="stop-color:#EA979A"/>
		<stop  offset="0.4092" style="stop-color:#F2D38B"/>
		<stop  offset="0.4989" style="stop-color:#7E9DAE"/>
		<stop  offset="0.599" style="stop-color:#90979D"/>
		<stop  offset="1" style="stop-color:#7EBDDB"/>
	</linearGradient>
	<path style="fill:url(#SVGID_3_);" d="M535.3,438.2c0.9-49.4,34.8-46.6,22.3-80s3.4-79.7,41.3-79c29.3,0.5,31.3-0.6,43.6-0.4
		c39,0.7,65.2,40.9,53.3,78c0,0-3.1,8.4-3.1,19.6s27.3,28.2,26.6,62.1L535.3,438.2z"/>
	<path style="fill:#2B2B2B;" d="M601.8,308.8l-29.2-22.1l4-1.3c0,0,10.9-7.2,23.4-6.2L601.8,308.8z"/>
	
		<linearGradient id="SVGID_4_" gradientUnits="userSpaceOnUse" x1="575.322" y1="681.7209" x2="575.322" y2="995.1913" gradientTransform="matrix(1 0 0 -1 0 1392)">
		<stop  offset="0" style="stop-color:#D96359"/>
		<stop  offset="0.401" style="stop-color:#90979D"/>
		<stop  offset="0.5011" style="stop-color:#7E9DAE"/>
		<stop  offset="0.5908" style="stop-color:#B8C1FC"/>
		<stop  offset="1" style="stop-color:#D2D4D4"/>
	</linearGradient>
	<path style="fill:url(#SVGID_4_);" d="M718.9,561l-3.1,1.1l-3.1,1l-6.3,2l-6.3,1.8l-6.3,1.7c-4.2,1.2-8.4,2.2-12.6,3.3l-12.7,3
		c-16.9,3.9-34,7.1-51.1,9.9c-4.3,0.7-8.6,1.4-12.9,2l-12.9,1.9c-4.3,0.7-8.6,1.1-12.9,1.7c-4.3,0.5-8.6,1.1-12.9,1.6l-13,1.4
		c-4.3,0.5-8.7,0.9-13,1.3c-8.7,0.7-17.3,1.6-26.1,2.2l56.6-73.7l-0.1,18.5v9.3l-0.1,9.3c-0.2,12.4-0.3,24.7-0.7,37.1l-0.5,18.6
		l-0.7,18.6c-0.4,12.4-1.2,24.8-1.8,37.2c-1.5,24.8-3.2,49.7-5.6,74.6c-1.2,12.5-2.5,24.9-4,37.4c-0.7,6.2-1.5,12.5-2.4,18.7
		L553,812l-0.7,4.7l-0.8,4.7l-94.4,8L432,534.9c-3.1-36.1,22.3-68.2,57.2-74.6l205.1-36.6L718.9,561z"/>
	<g>
		<path style="fill:#2B2B2B;" d="M569.9,593.2c-0.9,0-1.7-0.7-1.7-1.7v-24.2c0-0.9,0.7-1.7,1.7-1.7s1.7,0.7,1.7,1.7v24.2
			C571.6,592.4,570.8,593.2,569.9,593.2z"/>
	</g>
	<g>
		<path style="fill:#2B2B2B;" d="M432,522.7c-0.1,0-0.1,0-0.2,0c-0.9-0.1-1.5-0.9-1.4-1.8c4-31.4,27.6-56.2,58.8-61.9l122.2-22.1
			c0.9-0.2,1.8,0.4,1.9,1.3c0.2,0.9-0.4,1.8-1.3,1.9l-122.2,22.1c-29.8,5.4-52.4,29.2-56.2,59.1C433.5,522,432.8,522.7,432,522.7z"
			/>
	</g>
	<g>
		<path style="fill:#BE6361;" d="M613.8,308.6l42.7-19.2l-11.4-97l-54.4,3.8l1.7,98.7C592.6,305.9,603.8,313,613.8,308.6z"/>
		<g>
			<g>
				<path id="SVGID_36_" style="fill:#BE6361;" d="M577.6,249.4l34.1,1.8c17.7,0.9,32.8-12.6,33.7-30.3l2.7-51.5
					c1.5-28.3-20.2-52.4-48.5-53.9l0,0c-28.3-1.5-52.4,20.2-53.9,48.5l-2.5,47.2C542.2,231.2,557.6,248.3,577.6,249.4z"/>
			</g>
			<g>
				<path style="fill:#2B2B2B;" d="M549.6,178.7c0,2.9-2.2,5.3-5,5.7l0.6-11.3C547.7,173.7,549.6,176,549.6,178.7z"/>
			</g>
		</g>
		<path style="fill:#2B2B2B;" d="M550.7,198.2L550.7,198.2c2.4-0.8,4.9-1.2,7.5-1.3l7.1-0.1c4.2,0,8.4,1.1,12,3.2l13.3,7.7
			c4.8,2.8,11,0.7,13.1-4.5l11.8-29.1h12.4v58.2c0,9.7-7.9,17.6-17.7,17.6h-30c-20.7,0-37.4-16.9-37-37.6l0.1-4.2
			C543.4,203.7,546.4,199.7,550.7,198.2z"/>
		<path style="fill:#FFFFFF;" d="M554,208.4c0,0,8.1,16.6,14.8,1L554,208.4z"/>
		<polygon style="fill:#2B2B2B;" points="591.6,250 615.3,248.5 592,273.6 		"/>
		<circle style="fill:#2B2B2B;" cx="577.1" cy="180.7" r="5.8"/>
	</g>
	<g>
		<path style="fill:#2B2B2B;" d="M537.7,198c-10.8,0-19.6-8.8-19.6-19.6s8.8-19.6,19.6-19.6s19.6,8.8,19.6,19.6S548.5,198,537.7,198
			z M537.7,162.2c-9,0-16.2,7.3-16.2,16.2s7.3,16.2,16.2,16.2c9,0,16.2-7.3,16.2-16.2S546.7,162.2,537.7,162.2z"/>
	</g>
	
		<linearGradient id="SVGID_5_" gradientUnits="userSpaceOnUse" x1="702.7659" y1="1108" x2="702.7659" y2="898" gradientTransform="matrix(1 0 0 -1 0 1392)">
		<stop  offset="0" style="stop-color:#EA979A"/>
		<stop  offset="0.4092" style="stop-color:#F2D38B"/>
		<stop  offset="0.4989" style="stop-color:#7E9DAE"/>
		<stop  offset="0.599" style="stop-color:#90979D"/>
		<stop  offset="1" style="stop-color:#7EBDDB"/>
	</linearGradient>
	<path style="fill:url(#SVGID_5_);" d="M712.7,320c1.6,3.5,3.1,7,4.7,10.6l4.5,10.6c3,7.1,5.9,14.2,8.8,21.3
		c5.7,14.3,11.2,28.6,16.6,43c5.4,14.4,10.5,28.9,15.6,43.4c2.6,7.3,5,14.5,7.5,21.8l7.3,21.9l1.2,3.5c1,2.8,1.5,5.9,1.7,8.7
		l1.5,22.5c0.4,7.5,0.9,15,1.3,22.5c0.8,15,1.4,30.1,1.9,45.1c0.5,15.1,0.8,30.1,0.9,45.2c0,7.6,0.1,15.1-0.1,22.7l-0.2,11.3
		c-0.1,3.8-0.2,7.6-0.4,11.4c-0.9,19.6-17.6,34.8-37.2,33.8c-15.9-0.8-28.9-11.9-32.7-26.6c-1-3.7-1.8-7.4-2.7-11.1l-2.5-11.1
		c-1.7-7.4-3.2-14.8-4.7-22.2c-3-14.8-5.7-29.6-8.4-44.5c-2.6-14.8-5-29.7-7.4-44.6c-1.2-7.4-2.2-14.9-3.4-22.3l-3.2-22.3l2.9,12.2
		l-8.9-21.3c-2.9-7.1-5.9-14.2-8.7-21.4c-5.8-14.3-11.4-28.6-16.9-42.9c-5.5-14.4-10.8-28.8-15.9-43.3c-2.5-7.3-5.1-14.5-7.5-21.8
		l-3.6-11c-1.1-3.7-2.3-7.3-3.4-11c-7.6-25.9,7.2-53.2,33.1-60.8C678,286.6,702.7,298.3,712.7,320z"/>
	<g>
		<path style="fill:#2B2B2B;" d="M391.3,870.1l149.4-24.9c7.8-1.3,13.2-8.6,12.1-16.4l-2.7-19l-94.3,16.7L387.2,856
			C379.2,859.4,382.7,871.5,391.3,870.1z"/>
	</g>
	<g>
		<path style="fill:#BE6361;" d="M559.9,178.4l-7.7,8.3c-1.5,1.6-1.4,4.2,0.3,5.7l4.6,3.1"/>
		<path style="fill:#2B2B2B;" d="M557.1,197.2c-0.3,0-0.6-0.1-0.9-0.3l-4.8-3.2c-1.2-1-1.8-2.4-1.9-4c-0.1-1.5,0.5-3,1.5-4.1
			l7.7-8.3c0.6-0.7,1.7-0.7,2.3-0.1c0.7,0.6,0.7,1.7,0.1,2.3l-7.7,8.3c-0.4,0.5-0.6,1-0.6,1.7c0,0.6,0.3,1.2,0.7,1.6l4.5,3
			c0.8,0.5,1,1.5,0.4,2.3C558.2,196.9,557.6,197.2,557.1,197.2z"/>
	</g>
	<g>
		<path style="fill:#2B2B2B;" d="M579.1,200.3c-10.8,0-19.6-8.8-19.6-19.6s8.8-19.6,19.6-19.6s19.6,8.8,19.6,19.6
			S589.9,200.3,579.1,200.3z M579.1,164.5c-9,0-16.2,7.3-16.2,16.2c0,9,7.3,16.2,16.2,16.2c9,0,16.2-7.3,16.2-16.2
			C595.3,171.7,588.1,164.5,579.1,164.5z"/>
	</g>
	<g>
		<path style="fill:#2B2B2B;" d="M561.4,180.1h-5.9c-0.9,0-1.7-0.7-1.7-1.7s0.7-1.7,1.7-1.7h5.9c0.9,0,1.7,0.7,1.7,1.7
			S562.3,180.1,561.4,180.1z"/>
	</g>
	<g>
		<path style="fill:#2B2B2B;" d="M547.5,399.5c-0.3,0-0.6-0.1-0.8-0.2c-0.8-0.4-1.1-1.5-0.6-2.3c1.9-3.4,4-5.9,5.8-8.2
			c4.3-5.3,7.4-9.1,6.7-20.7c-0.1-0.9,0.6-1.7,1.6-1.7c0.9,0,1.7,0.6,1.7,1.6c0.7,12.9-3.1,17.6-7.4,23c-1.8,2.2-3.7,4.5-5.5,7.7
			C548.6,399.2,548.1,399.5,547.5,399.5z"/>
	</g>
	<path style="fill:#2B2B2B;" d="M547.4,140.8c22,12.3,51.1,11.8,66.4,5.2l1.7,28.2l12.3,9.8l18.5,19.4l1.5-36.4
		c1.2-28.7-21.6-52.8-50.4-53.1l-42.8-0.4c-2.3,0-4.7,0.5-6.7,1.6l0,0C537.6,120.4,537.3,135.1,547.4,140.8z"/>
	<path style="fill:#BE6361;" d="M638.3,188.5h-10.4v-19.7c0-4.6,3.7-8.3,8.3-8.3h2.1c4.6,0,8.3,3.7,8.3,8.3v11.4
		C646.6,184.8,642.9,188.5,638.3,188.5z"/>
</g>
<rect x="893.9" y="883.9" style="fill:#2B2B2B;" width="134.4" height="4.2"/>
<g>
	<path style="fill:#FFFFFF;" d="M894.7,883.1H412.3c-54.8,0-80-66.7-38.3-101.5L931.5,315c38.3-32.1,97.4-5.4,97.3,44l-0.8,394
		C1027.9,824.8,968.2,883.1,894.7,883.1z"/>
	<path style="fill:#F9D5FF;" d="M894.7,888.2H412.3c-27.5,0-51.2-16.4-60.4-41.8c-9.1-25.1-1.9-51.4,18.8-68.7l557.5-466.6
		c19.5-16.3,46-19.8,69.2-8.9c22.5,10.5,36.5,32.3,36.4,56.8l-0.8,394C1033,827.5,970.9,888.2,894.7,888.2z M969.7,306.1
		c-12.5,0-24.8,4.4-34.9,12.8L377.2,785.5c-20.7,17.3-21.8,41-15.8,57.5c6.2,17,22.7,35.1,50.9,35.1h482.4
		c70.6,0,128.1-56.1,128.2-125.1l0.8-394c0-20.8-11.4-38.7-30.6-47.6C985.6,307.8,977.6,306.1,969.7,306.1z"/>
</g>
<g>
	<g>
		<g>
			<path style="fill:#CAE6C4;" d="M879.3,628.5c-5.8,0-10.6-4.5-10.9-10.3c-4.6-89.1-56.1-99.6-58.3-100l1.9-10.7l1.8-10.8
				c1.9,0.3,19.3,3.6,37.3,20.4c29.4,27.4,37.5,69.5,39.1,100c0.3,6-4.3,11.1-10.3,11.5C879.7,628.5,879.5,628.5,879.3,628.5z"/>
		</g>
		<g>
			<path style="fill:#CAE6C4;" d="M892.6,705.5c-0.4,0-0.8,0-1.2-0.1c-6-0.7-10.3-6.1-9.6-12c8.8-79.1,66.1-98.1,68.6-98.9
				c5.7-1.8,11.9,1.4,13.7,7.1c1.8,5.7-1.4,11.8-7.1,13.7c-2.1,0.7-46.4,16.1-53.5,80.5C902.8,701.4,898.1,705.5,892.6,705.5z"/>
		</g>
		<g>
			<path style="fill:#CAE6C4;" d="M866.9,704.4c-1,0-2.1-0.2-3.1-0.5c-5.8-1.7-9-7.8-7.3-13.6c17.8-59.2,13.3-101.3,9.4-138.4
				c-3.7-34.9-7.2-67.9,7.9-107.5c2.1-5.6,8.4-8.5,14.1-6.3c5.6,2.1,8.5,8.4,6.3,14.1c-13.2,34.7-10.1,63.8-6.6,97.4
				c4.2,39.1,8.9,83.5-10.2,146.9C875.9,701.4,871.6,704.4,866.9,704.4z"/>
		</g>
		<g>
			<g>
				<path style="fill:#F9D5FF;" d="M883.8,459.2c-1.2,0-2.4-0.2-3.7-0.6c-5.7-2-8.6-8.3-6.6-13.9c8.2-23,17.1-43.7,26.5-61.5
					c2.8-5.3,9.4-7.4,14.7-4.5c5.3,2.8,7.4,9.4,4.5,14.7c-8.9,16.9-17.4,36.6-25.3,58.7C892.5,456.4,888.3,459.2,883.8,459.2z"/>
			</g>
			<g>
				<path style="fill:#F9D5FF;" d="M883.9,459.2c-0.3,0-0.6,0-1,0c-6-0.5-10.4-5.8-9.9-11.8c3-34-15-42.9-15.8-43.3l0.2,0.1
					l8.6-20.1c1.4,0.6,33.2,14.8,28.8,65.2C894.3,454.9,889.5,459.2,883.9,459.2z"/>
			</g>
			<g>
				<path style="fill:#F9D5FF;" d="M883.9,459.3c-2.5,0-5-0.9-7.1-2.6c-4.6-3.9-5.1-10.8-1.2-15.4c32.8-38.5,65.3-25.8,66.6-25.2
					l-8.3,20.2l0.2,0.1c-0.8-0.3-19.8-6.8-42,19.1C890,458,887,459.3,883.9,459.3z"/>
			</g>
		</g>
		<g>
			<path style="fill:#CAE6C4;" d="M874.1,528.6c-0.4,0-0.8,0-1.2-0.1c-6-0.6-10.3-6-9.7-12c3.2-30.1,12.6-43.5,34.6-49.2
				c5.8-1.5,11.8,2,13.3,7.8s-2,11.8-7.8,13.3c-8.7,2.3-15.6,4.1-18.4,30.4C884.3,524.5,879.6,528.6,874.1,528.6z"/>
		</g>
	</g>
	<g>
		<path style="fill:#FFFFFF;" d="M838.6,689.4L819,669.8h128.1l-19.6,19.6c-12.3,12.3-10.8,32.7,3.3,42.9
			c20.7,14.9,34.1,39.2,34.1,66.6c0,43.8-35,80.1-78.7,81.8c-46.7,1.8-85.1-35.6-85.1-81.9c0-27.5,13.5-51.8,34.2-66.6
			C849.5,722.1,850.9,701.7,838.6,689.4z"/>
		<path style="fill:#F9D5FF;" d="M882.9,885.8c-22.6,0-43.8-8.5-60.1-24.3c-17.2-16.6-26.7-38.8-26.7-62.7c0-28,13.6-54.4,36.3-70.7
			c5.5-3.9,8.9-10,9.5-16.7c0.6-6.9-1.9-13.6-6.8-18.5l0,0l-19.6-19.6c-1.4-1.4-1.9-3.6-1.1-5.4c0.8-1.9,2.6-3.1,4.6-3.1h128.1
			c2,0,3.8,1.2,4.6,3.1c0.8,1.9,0.3,4-1.1,5.4L931,692.9c-4.9,4.9-7.3,11.6-6.8,18.4c0.5,6.8,4,12.9,9.5,16.9
			c22.6,16.3,36.2,42.7,36.2,70.7c0,22.5-8.7,43.8-24.4,60.2c-15.7,16.3-36.7,25.8-59.1,26.6C885.2,885.7,884.1,885.8,882.9,885.8z
			 M842.1,685.9c7,7,10.5,16.6,9.7,26.4c-0.8,9.6-5.8,18.4-13.7,24C818,750.7,806,774,806,798.8c0,21.1,8.4,40.8,23.6,55.5
			c15.2,14.6,35.2,22.2,56.3,21.4c19.8-0.8,38.4-9.1,52.3-23.6c13.9-14.4,21.6-33.3,21.6-53.2c0-24.7-12-48.1-32-62.5
			c-7.9-5.7-12.8-14.5-13.6-24.2c-0.8-9.8,2.8-19.3,9.7-26.3l11.1-11.1H831L842.1,685.9L842.1,685.9z"/>
	</g>
	<g>
		<rect x="846.9" y="697" style="fill:#F9D5FF;" width="72.4" height="10"/>
	</g>
	<g>
		<rect x="844.4" y="716.5" style="fill:#F9D5FF;" width="77.5" height="10"/>
	</g>
</g>
<g>
	<path style="fill:#2B2B2B;" d="M648.2,432.6c-0.7,0-1.3-0.4-1.6-1.1l-12.4-33.7c-0.3-0.9,0.1-1.8,1-2.1c0.9-0.3,1.8,0.1,2.1,1
		l12.4,33.7c0.3,0.9-0.1,1.8-1,2.1C648.6,432.5,648.4,432.6,648.2,432.6z"/>
</g>
</svg>
