<?xml version="1.0" encoding="iso-8859-1"?>
<!-- Generator: Adobe Illustrator 23.0.2, SVG Export Plug-In . SVG Version: 6.00 Build 0)  -->
<svg version="1.1" id="Layer_1" xmlns="http://www.w3.org/2000/svg" xmlns:xlink="http://www.w3.org/1999/xlink" x="0px" y="0px"
	 viewBox="0 0 1105.6 1080" style="enable-background:new 0 0 1105.6 1080;" xml:space="preserve">
<g style="opacity:0.3;">
	<g>
		<path style="fill:#C4ECFE;" d="M1026.7,80.7V885H78.8V80.7H1026.7 M1029.8,77.6H75.7v810.5h954.1L1029.8,77.6L1029.8,77.6z"/>
	</g>
	<g>
		<g>
			<rect x="75.7" y="652.2" style="fill:#C4ECFE;" width="954.1" height="2.9"/>
		</g>
		<g>
			<rect x="75.7" y="536.1" style="fill:#C4ECFE;" width="954.1" height="2.9"/>
		</g>
		<g>
			<rect x="75.7" y="652.2" style="fill:#C4ECFE;" width="954.1" height="2.9"/>
		</g>
		<g>
			<rect x="75.7" y="768.2" style="fill:#C4ECFE;" width="954.1" height="2.9"/>
		</g>
		<g>
			<rect x="75.7" y="420.1" style="fill:#C4ECFE;" width="954.1" height="2.9"/>
		</g>
		<g>
			<rect x="75.7" y="304" style="fill:#C4ECFE;" width="954.1" height="2.9"/>
		</g>
		<g>
			<rect x="75.7" y="188" style="fill:#C4ECFE;" width="954.1" height="2.9"/>
		</g>
	</g>
</g>
<linearGradient id="SVGID_1_" gradientUnits="userSpaceOnUse" x1="808.3" y1="923.3144" x2="808.3" y2="587.1603" gradientTransform="matrix(1 0 0 -1 0 1392)">
	<stop  offset="0" style="stop-color:#C0DDFC"/>
	<stop  offset="0.9958" style="stop-color:#FFFFFF"/>
</linearGradient>
<path style="fill:url(#SVGID_1_);" d="M1029.8,389.3c0-26.8-38.6-30.9-44.2-4.6c-7.9,37.1-17.8,80.2-67.4,97
	c-55.6,18.8-41.5,88.9-143.8,117c-102.2,28-10.5,250.9-187.6,289.5h442.9L1029.8,389.3z"/>
<g>
	<g>
		<g>
			<g>
				<rect x="294.2" y="553" style="fill:#F9D0B5;" width="97" height="127"/>
				<path style="fill:#F9D0B5;" d="M393.7,682.5h-102v-132h102V682.5z M296.7,677.5h92v-122h-92V677.5z"/>
			</g>
		</g>
		<g>
			<g>
				<rect x="169.9" y="553" style="fill:#FFFFFF;" width="127" height="127"/>
				<path style="fill:#F9D0B5;" d="M299.4,682.5h-132v-132h132V682.5z M172.4,677.5h122v-122h-122V677.5z"/>
			</g>
		</g>
		<g>
			<rect x="169.9" y="614" style="fill:#F9D0B5;" width="124.3" height="5"/>
		</g>
		<g>
			<rect x="230.9" y="553" style="fill:#F9D0B5;" width="5" height="127"/>
		</g>
	</g>
	<g>
		<path style="fill:#F9D5FF;" d="M480.1,681.5H250.6c-1.4,0-2.5,1.1-2.5,2.5v200.1c0,1.4,1.1,2.5,2.5,2.5h229.5
			c1.4,0,2.5-1.1,2.5-2.5V684C482.6,682.6,481.5,681.5,480.1,681.5z"/>
		<g>
			<g>
				<rect x="131.3" y="684" style="fill:#FFFFFF;" width="123.5" height="200.1"/>
				<path style="fill:#F9D5FF;" d="M254.8,886.6H131.3c-1.4,0-2.5-1.1-2.5-2.5V684c0-1.4,1.1-2.5,2.5-2.5h123.5
					c1.4,0,2.5,1.1,2.5,2.5v200.1C257.3,885.5,256.2,886.6,254.8,886.6z M133.8,881.6h118.5V686.5H133.8V881.6z"/>
			</g>
		</g>
	</g>
	<g>
		<g>
			<g>
				<rect x="384.4" y="378.9" style="fill:#F9D5FF;" width="90.5" height="170.2"/>
				<path style="fill:#F9D5FF;" d="M474.9,551.6h-90.5c-1.4,0-2.5-1.1-2.5-2.5V378.9c0-1.4,1.1-2.5,2.5-2.5h90.5
					c1.4,0,2.5,1.1,2.5,2.5v170.2C477.4,550.5,476.3,551.6,474.9,551.6z M386.9,546.6h85.5V381.4h-85.5V546.6z"/>
			</g>
		</g>
		<g>
			<g>
				<rect x="236.9" y="378.9" style="fill:#FFFFFF;" width="151.1" height="170.2"/>
				<path style="fill:#F9D5FF;" d="M388,551.6H236.9c-1.4,0-2.5-1.1-2.5-2.5V378.9c0-1.4,1.1-2.5,2.5-2.5H388c1.4,0,2.5,1.1,2.5,2.5
					v170.2C390.5,550.5,389.4,551.6,388,551.6z M239.4,546.6h146.1V381.4H239.4V546.6z"/>
			</g>
		</g>
	</g>
	<g>
		<g>
			<rect x="623.5" y="549.4" style="fill:#F9D0B5;" width="258.7" height="337"/>
			<g>
				<rect x="653.1" y="587.5" style="fill:#F9D0B5;" width="199.4" height="260.9"/>
				<path style="fill:#FFFFFF;" d="M852.5,850.9H653.1c-1.4,0-2.5-1.1-2.5-2.5V587.5c0-1.4,1.1-2.5,2.5-2.5h199.4
					c1.4,0,2.5,1.1,2.5,2.5v260.9C855,849.8,853.9,850.9,852.5,850.9z M655.6,845.9H850V590H655.6V845.9z"/>
			</g>
			<g>
				<polygon style="fill:#F9D0B5;" points="852.5,587.5 852.5,616.8 775.2,717.9 752.8,747.2 675.5,848.4 653.1,848.4 653.1,819.1 
					730.4,717.9 752.8,688.6 830.1,587.5 				"/>
				<path style="fill:#FFFFFF;" d="M675.5,850.9h-22.4c-1.4,0-2.5-1.1-2.5-2.5v-29.3c0-0.5,0.2-1.1,0.5-1.5l77.3-101.2L828.1,586
					c0.5-0.6,1.2-1,2-1h22.4c1.4,0,2.5,1.1,2.5,2.5v29.3c0,0.5-0.2,1.1-0.5,1.5l-99.7,130.4l-77.3,101.2
					C677,850.5,676.3,850.9,675.5,850.9z M655.6,845.9h18.7l76.5-100.2L850,616v-26h-18.7l-98.9,129.4l-76.8,100.5V845.9z"/>
			</g>
			<g>
				<polygon style="fill:#F9D0B5;" points="852.5,819.1 852.5,848.4 830.1,848.4 752.8,747.2 730.4,717.9 653.1,616.8 653.1,587.5 
					675.5,587.5 				"/>
				<path style="fill:#FFFFFF;" d="M852.5,850.9h-22.4c-0.8,0-1.5-0.4-2-1l-77.3-101.2l-99.7-130.4c-0.3-0.4-0.5-1-0.5-1.5v-29.3
					c0-1.4,1.1-2.5,2.5-2.5h22.4c0.8,0,1.5,0.4,2,1l177,231.6c0.3,0.4,0.5,1,0.5,1.5v29.3C855,849.8,853.9,850.9,852.5,850.9z
					 M831.3,845.9H850v-26L674.3,590h-18.7v26l99.2,129.7L831.3,845.9z"/>
			</g>
		</g>
		<g>
			<g>
				<rect x="300.9" y="551.9" style="fill:#FFFFFF;" width="332" height="332"/>
				<path style="fill:#F9D0B5;" d="M635.4,886.4h-337v-337h337V886.4z M303.4,881.4h327v-327h-327L303.4,881.4L303.4,881.4z"/>
			</g>
			<g>
				<rect x="336.4" y="587.5" style="fill:#FFFFFF;" width="260.9" height="260.9"/>
				<path style="fill:#F9D0B5;" d="M597.3,850.9H336.4c-1.4,0-2.5-1.1-2.5-2.5V587.5c0-1.4,1.1-2.5,2.5-2.5h260.9
					c1.4,0,2.5,1.1,2.5,2.5v260.9C599.8,849.8,598.7,850.9,597.3,850.9z M338.9,845.9h255.9V590H338.9V845.9z"/>
			</g>
			<g>
				<polygon style="fill:#FFFFFF;" points="597.3,587.5 597.3,616.8 496.2,717.9 466.9,747.2 365.7,848.4 336.4,848.4 336.4,819.1 
					437.6,717.9 466.9,688.6 568,587.5 				"/>
				<path style="fill:#F9D0B5;" d="M365.7,850.9h-29.3c-1.4,0-2.5-1.1-2.5-2.5v-29.3c0-0.7,0.3-1.3,0.7-1.8l231.6-231.6
					c0.5-0.5,1.1-0.7,1.8-0.7h29.3c1.4,0,2.5,1.1,2.5,2.5v29.3c0,0.7-0.3,1.3-0.7,1.8L367.5,850.2
					C367,850.6,366.4,850.9,365.7,850.9z M338.9,845.9h25.8l230.1-230.1V590H569L338.9,820.1V845.9z"/>
			</g>
			<g>
				<polygon style="fill:#FFFFFF;" points="597.3,819.1 597.3,848.4 568,848.4 466.9,747.2 437.6,717.9 336.4,616.8 336.4,587.5 
					365.7,587.5 				"/>
				<path style="fill:#F9D0B5;" d="M597.3,850.9H568c-0.7,0-1.3-0.3-1.8-0.7L465.1,749l-29.3-29.3L334.6,618.6
					c-0.5-0.5-0.7-1.1-0.7-1.8v-29.3c0-1.4,1.1-2.5,2.5-2.5h29.3c0.7,0,1.3,0.3,1.8,0.7l231.6,231.6c0.5,0.5,0.7,1.1,0.7,1.8v29.3
					C599.8,849.8,598.7,850.9,597.3,850.9z M569,845.9h25.8v-25.8L364.7,590h-25.8v25.8l100.5,100.4l29.3,29.3L569,845.9z"/>
			</g>
		</g>
	</g>
	<g>
		<g>
			<g>
				<rect x="789" y="723.6" style="fill:#F9D5FF;" width="121.8" height="159.4"/>
				<path style="fill:#F9D5FF;" d="M915.8,888H784V718.6h131.8V888z M794,878h111.8V728.6H794V878z"/>
			</g>
		</g>
		<g>
			<g>
				<rect x="632.9" y="723.6" style="fill:#FFFFFF;" width="159.4" height="159.4"/>
				<path style="fill:#F9D5FF;" d="M797.3,888H627.9V718.6h169.4L797.3,888L797.3,888z M637.9,878h149.4V728.6H637.9V878z"/>
			</g>
		</g>
	</g>
	<g>
		<rect x="901.1" y="671.1" style="fill:#F9D5FF;" width="73.9" height="93.6"/>
		<g>
			<g>
				<rect x="824.3" y="676.1" style="fill:#FFFFFF;" width="83.6" height="83.6"/>
				<path style="fill:#F9D5FF;" d="M912.9,764.7h-93.6v-93.6h93.6V764.7z M829.3,754.7h73.6v-73.6h-73.6V754.7z"/>
			</g>
		</g>
	</g>
	<g>
		<g>
			<g>
				<rect x="735.2" y="617" style="fill:#F9D0B5;" width="78.7" height="103"/>
				<path style="fill:#F9D0B5;" d="M818.9,725h-88.7V612h88.7V725z M740.2,715h68.7v-93h-68.7V715z"/>
			</g>
		</g>
		<g>
			<g>
				<rect x="634.3" y="617" style="fill:#FFFFFF;" width="103" height="103"/>
				<path style="fill:#F9D0B5;" d="M739.8,722.5h-108v-108h108V722.5z M636.8,717.5h98v-98h-98V717.5z"/>
			</g>
		</g>
		<g>
			
				<rect x="612.977" y="663.465" transform="matrix(0.7071 -0.7071 0.7071 0.7071 -271.8021 680.741)" style="fill:#F9D0B5;" width="145.699" height="10"/>
		</g>
		<g>
			
				<rect x="680.826" y="595.686" transform="matrix(0.7071 -0.7071 0.7071 0.7071 -271.8521 680.7617)" style="fill:#F9D0B5;" width="10" height="145.699"/>
		</g>
	</g>
	<g>
		<rect x="926.8" y="756.7" style="fill:#F9D0B5;" width="102" height="132"/>
		<g>
			<g>
				<rect x="804.9" y="759.2" style="fill:#FFFFFF;" width="127" height="127"/>
				<path style="fill:#F9D0B5;" d="M934.4,888.7h-132v-132h132V888.7z M807.4,883.7h122v-122h-122V883.7z"/>
			</g>
		</g>
		<g>
			<rect x="804.9" y="820.2" style="fill:#F9D0B5;" width="124.4" height="5"/>
		</g>
		<g>
			<rect x="865.9" y="759.2" style="fill:#F9D0B5;" width="5" height="127"/>
		</g>
	</g>
	<g>
		<g>
			<g>
				<rect x="688.4" y="791.9" style="fill:#F9D0B5;" width="71.8" height="94"/>
				<path style="fill:#F9D0B5;" d="M761.7,887.4H687v-96.9h74.7V887.4z M689.9,884.4h68.9v-91.1h-68.9V884.4z"/>
			</g>
			<g>
				<rect x="696.1" y="802" style="fill:#F9D0B5;" width="56.5" height="73.9"/>
				<path style="fill:#FFFFFF;" d="M752.6,878.4h-56.5c-1.4,0-2.5-1.1-2.5-2.5V802c0-1.4,1.1-2.5,2.5-2.5h56.5
					c1.4,0,2.5,1.1,2.5,2.5v73.9C755.1,877.3,754,878.4,752.6,878.4z M698.6,873.4h51.5v-68.9h-51.5V873.4z"/>
			</g>
			<g>
				<polygon style="fill:#F9D0B5;" points="696.1,875.9 696.1,867.6 718,839 724.3,830.7 746.2,802 752.6,802 752.6,810.3 
					730.7,839 724.3,847.3 702.4,875.9 				"/>
				<path style="fill:#FFFFFF;" d="M702.4,878.4h-6.3c-1.4,0-2.5-1.1-2.5-2.5v-8.3c0-0.5,0.2-1.1,0.5-1.5l21.9-28.6l6.3-8.3
					l21.9-28.7c0.5-0.6,1.2-1,2-1h6.4c1.4,0,2.5,1.1,2.5,2.5v8.3c0,0.5-0.2,1.1-0.5,1.5l-21.9,28.7l-6.4,8.3l-21.9,28.6
					C703.9,878,703.2,878.4,702.4,878.4z M698.6,873.4h2.6l21.1-27.6l6.4-8.3l21.4-28v-5h-2.7l-27.4,36l-21.4,27.9L698.6,873.4
					L698.6,873.4z"/>
			</g>
			<g>
				<polygon style="fill:#F9D0B5;" points="696.1,810.3 696.1,802 702.4,802 724.3,830.7 730.7,839 752.6,867.6 752.6,875.9 
					746.2,875.9 				"/>
				<path style="fill:#FFFFFF;" d="M752.6,878.4h-6.4c-0.8,0-1.5-0.4-2-1l-50.1-65.6c-0.3-0.4-0.5-1-0.5-1.5V802
					c0-1.4,1.1-2.5,2.5-2.5h6.3c0.8,0,1.5,0.4,2,1l21.9,28.7l6.4,8.3l21.9,28.6c0.3,0.4,0.5,1,0.5,1.5v8.3
					C755.1,877.3,754,878.4,752.6,878.4z M747.4,873.4h2.7v-5l-21.4-27.9l-6.4-8.3l-21.2-27.7h-2.6v5L747.4,873.4z"/>
			</g>
		</g>
		<g>
			<g>
				<rect x="758.3" y="791.9" style="fill:#FFFFFF;" width="94" height="94"/>
				<path style="fill:#F9D0B5;" d="M852.3,888.4h-94c-1.4,0-2.5-1.1-2.5-2.5v-94c0-1.4,1.1-2.5,2.5-2.5h94c1.4,0,2.5,1.1,2.5,2.5v94
					C854.8,887.3,853.7,888.4,852.3,888.4z M760.8,883.4h89v-89h-89V883.4z"/>
			</g>
			<g>
				<rect x="768.4" y="802" style="fill:#FFFFFF;" width="73.9" height="73.9"/>
				<path style="fill:#F9D0B5;" d="M842.3,878.4h-73.9c-1.4,0-2.5-1.1-2.5-2.5V802c0-1.4,1.1-2.5,2.5-2.5h73.9
					c1.4,0,2.5,1.1,2.5,2.5v73.9C844.8,877.3,843.7,878.4,842.3,878.4z M770.9,873.4h68.9v-68.9h-68.9V873.4z"/>
			</g>
			<g>
				<polygon style="fill:#FFFFFF;" points="768.4,875.9 768.4,867.6 797,839 805.3,830.7 834,802 842.3,802 842.3,810.3 813.6,839 
					805.3,847.3 776.7,875.9 				"/>
				<path style="fill:#F9D0B5;" d="M776.7,878.4h-8.3c-1.4,0-2.5-1.1-2.5-2.5v-8.3c0-0.7,0.3-1.3,0.7-1.8l65.6-65.6
					c0.5-0.5,1.1-0.7,1.8-0.7h8.3c1.4,0,2.5,1.1,2.5,2.5v8.3c0,0.7-0.3,1.3-0.7,1.8l-65.6,65.6C778,878.1,777.4,878.4,776.7,878.4z
					 M770.9,873.4h4.8l64.1-64.1v-4.8H835l-64.1,64.1V873.4z"/>
			</g>
			<g>
				<polygon style="fill:#FFFFFF;" points="768.4,810.3 768.4,802 776.7,802 805.3,830.7 813.6,839 842.3,867.6 842.3,875.9 
					834,875.9 				"/>
				<path style="fill:#F9D0B5;" d="M842.3,878.4H834c-0.7,0-1.3-0.3-1.8-0.7l-65.6-65.6c-0.5-0.5-0.7-1.1-0.7-1.8V802
					c0-1.4,1.1-2.5,2.5-2.5h8.3c0.7,0,1.3,0.3,1.8,0.7l36.9,37l28.7,28.6c0.5,0.5,0.7,1.1,0.7,1.8v8.3
					C844.8,877.3,843.7,878.4,842.3,878.4z M835,873.4h4.8v-4.8l-36.3-36.2l-27.9-28h-4.8v4.8L835,873.4z"/>
			</g>
		</g>
	</g>
	<rect x="226.9" y="883.9" style="fill:#2B2B2B;" width="401" height="4.1"/>
</g>
<g>
	
		<linearGradient id="SVGID_2_" gradientUnits="userSpaceOnUse" x1="541.8602" y1="1026.6355" x2="541.8602" y2="729.4694" gradientTransform="matrix(0.9333 -0.359 -0.359 -0.9333 347.4206 1339.2626)">
		<stop  offset="0" style="stop-color:#9774AC"/>
		<stop  offset="0.401" style="stop-color:#47A6D3"/>
		<stop  offset="0.5011" style="stop-color:#A7A7AE"/>
		<stop  offset="0.5908" style="stop-color:#E89AC0"/>
		<stop  offset="1" style="stop-color:#BFE7D1"/>
	</linearGradient>
	<path style="fill:url(#SVGID_2_);" d="M610.8,487.3c22.2-41.1,3.9-49.7,41.7-89c37.8-39.2,13.8-126.4,23.6-171.1
		c3.2-14.9,17-37.5,23.8-58.9c8.5-26.9-22.3-48.9-45.1-32.4c-6.5,4.7-13.3,11.1-20.3,19.9c-2.3,2.9-5.2,5.4-8.5,7.2
		c-10.4,5.9-20.9,11.6-35.4,19.8c-50.3,28.5-40,86.9-63.1,115.4c-23.1,28.5-98.6,15.9-141.2,80.9
		C294.1,519.7,513.5,667.8,610.8,487.3z"/>
	<g>
		
			<linearGradient id="SVGID_3_" gradientUnits="userSpaceOnUse" x1="558.3772" y1="958" x2="558.3772" y2="1140" gradientTransform="matrix(1 0 0 -1 0 1392)">
			<stop  offset="0" style="stop-color:#F89D9A"/>
			<stop  offset="0.4092" style="stop-color:#F5943B"/>
			<stop  offset="0.4989" style="stop-color:#F05052"/>
			<stop  offset="0.599" style="stop-color:#ECE674"/>
			<stop  offset="1" style="stop-color:#E1EEC3"/>
		</linearGradient>
		<path style="fill:url(#SVGID_3_);" d="M433.4,188.5c0,0-7.3,105.8,5.7,127.3c5.8,9.7,14.7,16.4,24.6,19.7l4.5,1.5l154.6,38.9
			c25,8.2,52-5.3,60.2-30.4c8.2-25-5.3-52-30.4-60.2L498,246.4l13.6,83.5L505.2,178"/>
		<path style="fill:#FDC068;" d="M505.3,177.9l-5.7-20c-5.3-18.3-24.4-28.9-42.7-23.6c-16,4.6-26.2,19.9-24.9,35.9l1.4,18.3
			L505.3,177.9z"/>
	</g>
	<g>
		<polygon style="fill:#2B2B2B;" points="361.6,731.6 466.9,583.6 391.3,553 		"/>
		
			<linearGradient id="SVGID_4_" gradientUnits="userSpaceOnUse" x1="475.8" y1="584.2805" x2="475.8" y2="980.3315" gradientTransform="matrix(1 0 0 -1 0 1392)">
			<stop  offset="0" style="stop-color:#FFE0C2"/>
			<stop  offset="0.401" style="stop-color:#7AAEFC"/>
			<stop  offset="0.5908" style="stop-color:#B8C1FC"/>
			<stop  offset="1" style="stop-color:#D2D4D4"/>
		</linearGradient>
		<path style="fill:url(#SVGID_4_);" d="M355,461.7C303.4,550.5,252.9,765.6,244.8,778l102.8-9l106.1-237.3L706.8,491L587,417.1
			l-143.8-3.7C407.1,411.9,373.2,430.5,355,461.7z"/>
		<g>
			<path style="fill:#2B2B2B;" d="M202.3,820.4l120.2-20c9.3-4.8,11.4-7.8,17.7-19.2l7.4-12.1l-102.8,9l-51,30.1
				C186.4,813.4,193.7,823.9,202.3,820.4z"/>
		</g>
	</g>
	
		<linearGradient id="SVGID_5_" gradientUnits="userSpaceOnUse" x1="673.6257" y1="958.841" x2="673.6257" y2="1135.8577" gradientTransform="matrix(1 0 0 -1 0 1392)">
		<stop  offset="0" style="stop-color:#F89D9A"/>
		<stop  offset="0.4092" style="stop-color:#F5943B"/>
		<stop  offset="0.4989" style="stop-color:#F05052"/>
		<stop  offset="0.599" style="stop-color:#ECE674"/>
		<stop  offset="1" style="stop-color:#E1EEC3"/>
	</linearGradient>
	<path style="fill:url(#SVGID_5_);" d="M586.5,420.1c8.3-47.4,39.1-40.6,32.7-74.2s15.2-76.3,50-71.1c26.9,4,28.9,3.1,40.2,4.8
		c35.8,5.3,62.9,42.5,46.4,76.8c0,0-13.2,12.3-14.9,23.1c-1.7,10.8,20.8,30.3,15.1,62.9L586.5,420.1z"/>
	<path style="fill:#FFFFFF;" d="M719.8,282.2c3.2,3.5,2.7,14.4-11,18.8c-13.6,4.5-37.5,13.7-46.3,13.5s-21.1-9.7-18.5-23.3
		l16.6-14.9L713,280L719.8,282.2z"/>
	<g>
		<path style="fill:#2B2B2B;" d="M586.5,421.5c-0.1,0-0.2,0-0.2,0c-0.7-0.1-1.2-0.8-1.1-1.6c4.2-23.9,14.1-34.3,22-42.7
			c2.6-2.7,5-5.3,6.9-8c0.4-0.6,1.3-0.8,1.9-0.3c0.6,0.4,0.8,1.3,0.3,1.9c-2,2.9-4.5,5.5-7.2,8.3c-7.7,8.1-17.2,18.3-21.3,41.3
			C587.7,421,587.2,421.5,586.5,421.5z"/>
	</g>
	<g>
		<polygon style="fill:#2B2B2B;" points="572,795.6 587.2,540 527.6,560.1 		"/>
		
			<linearGradient id="SVGID_6_" gradientUnits="userSpaceOnUse" x1="583.6856" y1="584.2805" x2="583.6856" y2="980.3315" gradientTransform="matrix(1 0 0 -1 0 1392)">
			<stop  offset="0" style="stop-color:#FFE0C2"/>
			<stop  offset="0.401" style="stop-color:#7AAEFC"/>
			<stop  offset="0.5908" style="stop-color:#B8C1FC"/>
			<stop  offset="1" style="stop-color:#D2D4D4"/>
		</linearGradient>
		<path style="fill:url(#SVGID_6_);" d="M656.3,429.3l-158.4,25c-31.4,4.1-53.3,28-65.6,57.3C394.5,602,485,818.9,485.5,823.2
			l86.5-27.6l-17.3-235.5l189.6-25.3L656.3,429.3z"/>
		<g>
			<path style="fill:#2B2B2B;" d="M449.5,879.5L571,831.4c7.1-3,10.6-11.1,7.8-18.3l-6.8-17.4l-86.5,27.6l-43,43.8
				C435.6,872.1,441.6,882.8,449.5,879.5z"/>
		</g>
	</g>
	
		<linearGradient id="SVGID_7_" gradientUnits="userSpaceOnUse" x1="671.7726" y1="584.2805" x2="671.7726" y2="980.3315" gradientTransform="matrix(1 0 0 -1 0 1392)">
		<stop  offset="0" style="stop-color:#FFE0C2"/>
		<stop  offset="0.401" style="stop-color:#7AAEFC"/>
		<stop  offset="0.5908" style="stop-color:#B8C1FC"/>
		<stop  offset="1" style="stop-color:#D2D4D4"/>
	</linearGradient>
	<path style="fill:url(#SVGID_7_);" d="M756.7,437.2c-2.2,25.6-17.5,64.3-65.8,58.4l-38.8-5.9c-44-5.4-67.4-45-65.1-72.5
		L756.7,437.2z"/>
	<polygon style="fill:#2B2B2B;" points="680.5,428.2 698.6,505.7 732.9,480.4 707.7,431.4 	"/>
	<path style="fill:#2B2B2B;" d="M673.6,301.5L629.5,285c0,0,9.2-11.1,32.8-11.1L673.6,301.5z"/>
	<g>
		
			<linearGradient id="SVGID_8_" gradientUnits="userSpaceOnUse" x1="726.8485" y1="967.1127" x2="726.8485" y2="1129.3903" gradientTransform="matrix(1 0 0 -1 0 1392)">
			<stop  offset="0" style="stop-color:#F89D9A"/>
			<stop  offset="0.4092" style="stop-color:#F5943B"/>
			<stop  offset="0.4989" style="stop-color:#F05052"/>
			<stop  offset="0.599" style="stop-color:#ECE674"/>
			<stop  offset="1" style="stop-color:#E1EEC3"/>
		</linearGradient>
		<path style="fill:url(#SVGID_8_);" d="M674.2,599.8c2.6-0.6,50.1-14.2,90.8-29.9c29.8-11.5,48.1-41.7,44.3-73.5
			c-6.8-57.3-27.5-145.3-28.7-149.3l-2.8-9.2c-0.9-2.7-1.7-5.5-2.6-8.2c-8.4-25.3-36.4-39.6-61.5-30.8
			c-22.1,7.8-34.9,30.2-31.4,52.6c0.5,3.2,1.1,6.3,1.7,9.5l1.8,9.5c1.2,6.3,2.6,12.6,4,18.9c2.8,12.6,28.7,91.1,28.7,91.1
			s-73.3,47.3-74.6,48"/>
		<path style="fill:#FDC068;" d="M644,528.4c-3.9,2.5-7.8,5-11.7,7.6l-7.6,5.1c-2.5,1.8-5.1,3.5-7.5,5.3
			c-15.6,11.3-19.1,33.1-7.8,48.8c8.7,12.1,23.8,16.8,37.4,13.2c3-0.8,5.9-1.7,8.8-2.6l8.8-2.7c3.3-1,6.6-2.1,9.9-3.2"/>
	</g>
	<g>
		<g>
			<g>
				<path id="SVGID_341_" style="fill:#FDC068;" d="M656.9,235.9l31.1,1.7c16.1,0.9,29.9-11.5,30.7-27.6l1.7-37.5
					c1.1-21.8-18.4-47.8-44.2-49.2l0,0c-25.8-1.4-47.8,18.4-49.2,44.2l-1.5,33.6C624.6,219.4,638.6,235,656.9,235.9z"/>
			</g>
			<g>
				<circle style="fill:#2B2B2B;" cx="633.6" cy="181.3" r="5.3"/>
			</g>
		</g>
		<path style="fill:#FDC068;" d="M670.8,302.5l35.2-12.6c4-1.4,6.8-5.1,7.1-9.3l5.5-69.2c-2.2-11.6-50.5-13.4-50.5-13.4l-14.4,88.9
			C652.2,296.7,661.2,304.9,670.8,302.5z"/>
		<g>
			<path style="fill:#2B2B2B;" d="M646,197.7c-0.3,0-0.5-0.1-0.7-0.2l-4.3-2.8c-1.1-0.9-1.7-2.2-1.8-3.5c-0.1-1.4,0.4-2.7,1.3-3.7
				l6.9-7.6c0.5-0.6,1.4-0.6,1.9-0.1c0.6,0.5,0.6,1.4,0.1,1.9l-6.9,7.6c-0.4,0.4-0.6,1-0.6,1.6s0.3,1.2,0.8,1.5l4.1,2.7
				c0.6,0.4,0.8,1.3,0.4,1.9C646.9,197.5,646.5,197.7,646,197.7z"/>
		</g>
		<g>
			<path style="fill:#2B2B2B;" d="M646.2,213.7c-0.2,0-0.4,0-0.5,0c-3.4-0.2-7-2.7-7.5-7.9c-0.1-0.8,0.5-1.4,1.2-1.5
				c0.8-0.1,1.4,0.5,1.5,1.2c0.3,3.7,2.9,5.2,4.9,5.4c2.5,0.2,5.4-1.5,6.4-5.6c0.2-0.7,0.9-1.2,1.7-1c0.7,0.2,1.2,0.9,1,1.7
				C653.7,211.4,649.8,213.7,646.2,213.7z"/>
		</g>
		<polygon style="fill:#2B2B2B;" points="662,236.1 682,234.9 658.8,255.6 		"/>
		<circle style="fill:#2B2B2B;" cx="663.9" cy="182.8" r="5.3"/>
		
			<linearGradient id="SVGID_9_" gradientUnits="userSpaceOnUse" x1="654.95" y1="1292.3513" x2="654.95" y2="995.1853" gradientTransform="matrix(1 0 0 -1 0 1392)">
			<stop  offset="0" style="stop-color:#9774AC"/>
			<stop  offset="0.401" style="stop-color:#47A6D3"/>
			<stop  offset="0.5011" style="stop-color:#A7A7AE"/>
			<stop  offset="0.5908" style="stop-color:#E89AC0"/>
			<stop  offset="1" style="stop-color:#BFE7D1"/>
		</linearGradient>
		<path style="fill:url(#SVGID_9_);" d="M683.7,123.4c-3.7,13.4-47.5,37.8-57.5,39.3C626.2,162.7,628,120.2,683.7,123.4z"/>
	</g>
	
		<linearGradient id="SVGID_10_" gradientUnits="userSpaceOnUse" x1="723.4787" y1="1292.3513" x2="723.4787" y2="995.1853" gradientTransform="matrix(1 0 0 -1 0 1392)">
		<stop  offset="0" style="stop-color:#9774AC"/>
		<stop  offset="0.401" style="stop-color:#47A6D3"/>
		<stop  offset="0.5011" style="stop-color:#A7A7AE"/>
		<stop  offset="0.5908" style="stop-color:#E89AC0"/>
		<stop  offset="1" style="stop-color:#BFE7D1"/>
	</linearGradient>
	<path style="fill:url(#SVGID_10_);" d="M683.7,123.4c0,0,6.7,107.3,6.7,132.2s23.2,18.3,46.8,35.6c30.5-19.7,36-77.3,7-94.8
		c-24.5-14.8-17.3-22.4-28.4-45.6S683.7,123.4,683.7,123.4z"/>
	<g>
		<path style="fill:#2B2B2B;" d="M702.4,432.2c-0.6,0-1.1-0.4-1.3-1L687,382.8c-0.2-0.7,0.2-1.5,0.9-1.7s1.5,0.2,1.7,0.9l14.1,48.4
			c0.2,0.7-0.2,1.5-0.9,1.7C702.7,432.2,702.5,432.2,702.4,432.2z"/>
	</g>
	<g>
		<path style="fill:#2B2B2B;" d="M509.9,290.5c-0.7,0-1.3-0.6-1.4-1.3l-1.8-40.2c0-0.8,0.6-1.4,1.3-1.4c0.8,0,1.4,0.6,1.4,1.3
			l1.8,40.2C511.3,289.8,510.7,290.4,509.9,290.5L509.9,290.5z"/>
	</g>
	<g>
		<path style="fill:#2B2B2B;" d="M735.2,516.4c-0.5,0-1-0.3-1.2-0.8L717.4,481c-0.3-0.7,0-1.5,0.6-1.8c0.7-0.3,1.5,0,1.8,0.6
			l16.6,34.6c0.3,0.7,0,1.5-0.6,1.8C735.6,516.3,735.4,516.4,735.2,516.4z"/>
	</g>
	<g>
		<path style="fill:#2B2B2B;" d="M424.8,601.2c-0.7,0-1.3-0.5-1.4-1.2l-5.8-56.1c-4-38.3,21.4-73.3,59-81.6l96.4-21.2
			c0.7-0.2,1.5,0.3,1.6,1c0.2,0.7-0.3,1.5-1,1.6l-96.4,21.2c-36.2,8-60.7,41.7-56.8,78.6l5.8,56.1c0.1,0.8-0.5,1.4-1.2,1.5
			C424.9,601.2,424.8,601.2,424.8,601.2z"/>
	</g>
	<g>
		<path style="fill:#2B2B2B;" d="M554.7,561.5c-0.7,0-1.3-0.5-1.4-1.2l-1.9-20.1c-0.1-0.8,0.5-1.4,1.2-1.5c0.8-0.1,1.4,0.5,1.5,1.2
			L556,560c0.1,0.8-0.5,1.4-1.2,1.5H554.7z"/>
	</g>
</g>
<linearGradient id="SVGID_11_" gradientUnits="userSpaceOnUse" x1="-9771.7646" y1="615.1646" x2="-9771.7646" y2="508.3679" gradientTransform="matrix(1 0 0 -1 9968.2148 1392)">
	<stop  offset="0" style="stop-color:#FFD8A1"/>
	<stop  offset="0.9958" style="stop-color:#FFFFFF"/>
</linearGradient>
<path style="fill:url(#SVGID_11_);" d="M317.2,888.1c-53.4,0-77.8-78.3-140.7-70.7c-18.9,2.3-40-36.4-48.6-51
	c-14.3-24.2-52.2-14.4-52.2,13.5v108.2H317.2z"/>
<g>
	<path style="fill:#F9D5FF;" d="M294.2,315.5c-36.2,0-68.9-32.7-100.5-64.3c-26.5-26.5-51.6-51.6-76.8-56.8l2-9.8
		c28.1,5.7,54.2,31.8,81.9,59.5c30.2,30.2,61.4,61.4,93.4,61.4V315.5z"/>
</g>
<g>
	<path style="fill:#F9D5FF;" d="M842.4,191.3v-10c26.9,0,53.1-30.8,76.3-58c20.4-24,38.1-44.8,55.5-44.8v10
		c-12.8,0-30.6,21-47.9,41.2C901.7,158.6,873.9,191.3,842.4,191.3z"/>
</g>
<g>
	<circle style="fill:#BFD9FF;" cx="164.6" cy="448.9" r="4.1"/>
	<circle style="fill:#BFD9FF;" cx="672.2" cy="752.5" r="4.1"/>
	<circle style="fill:#BFD9FF;" cx="912" cy="270" r="4.1"/>
	<circle style="fill:#BFD9FF;" cx="398.3" cy="129.6" r="4.1"/>
	<circle style="fill:#BFD9FF;" cx="144" cy="161.3" r="4.1"/>
	<circle style="fill:#BFD9FF;" cx="943.7" cy="477.8" r="3.8"/>
	<circle style="fill:#BFD9FF;" cx="269.1" cy="587.5" r="3.8"/>
</g>
</svg>
