<svg xmlns="http://www.w3.org/2000/svg" viewBox="0 0 568.62 365.29"><title>Success! + Artist</title><g id="Layer_2" data-name="Layer 2"><g id="Layer_1-2" data-name="Layer 1"><path d="M564.56,282.08a220.84,220.84,0,0,0-66.87,28.76c22.77-35.39,41.9-73.26,51.71-114.4.59-2.48-2.38-5.55-4.81-3.7a273.52,273.52,0,0,0-76.9,91.8,270,270,0,0,0,0-59.4,3.31,3.31,0,0,0-6.1-1.65,209.1,209.1,0,0,0-41.5,132.08,52.34,52.34,0,0,0,6.17,5.76c39.26,1.81,79,3.33,117.41-6.64,2.55-.66,3.4-4.77.78-6a109.87,109.87,0,0,0-38.12-9.93c22-15.16,43.7-31,61.41-51.22A3.3,3.3,0,0,0,564.56,282.08Z" style="fill:#cf4327;"/><path d="M169.66,326.09c-1-8.8-.8-22.59-10.23-27.18-4.84-2.36-10.27-.89-15.25.18q-11.1,2.39-22,5.68a292.68,292.68,0,0,0-40.84,15.91c-2.43,1.16-1.8,4.35,0,5.65,13.74,10,30.1,13.54,46.63,15.46q-12,4.87-23.44,10.85c-2.58,1.35-1.8,5.21.78,6a80.87,80.87,0,0,0,53.68-2.3,3.48,3.48,0,0,0,2.13-3.89,3,3,0,0,0,1.86-.54C171.82,346.11,170.72,335.34,169.66,326.09Z" style="fill:#cf4327;"/><path d="M335.33,327.07a229,229,0,0,0-42.94,6.86,313.39,313.39,0,0,0,40.87-62.81c1.11-2.25-.81-6-3.7-4.81a207.9,207.9,0,0,0-69.43,46.3,186,186,0,0,0,10.42-47.2c.27-3-3.65-4-5.59-2.31a177.16,177.16,0,0,0-48.57,70.66c-.91,2.42,1.11,4,3.15,3.95v10.43c-2.37.13-4.45,3.32-2.32,5.66,6.53,7.14,17,6,25.85,5.76a393.79,393.79,0,0,0,40.62-3.15c19.81-2.64,40.39-8,53.95-23.75C339.35,330.68,338.37,326.87,335.33,327.07Z" style="fill:#e5a024;"/><path d="M511.82,104.61c-.92-2.24-2.92-3.82-4.85-5.29l-4.51-3.46a1.15,1.15,0,0,0-.63-.3,1.09,1.09,0,0,0-.53.17A11.39,11.39,0,0,0,497,111.59a7.42,7.42,0,0,0,5.75,3.89c3.32.13,5.91-2.71,8-5.31" style="fill:#e5a024;"/><path d="M514.64,103c-1.41-2.77-3.6-4.6-6-6.46-1.89-1.46-4.23-4.13-6.8-4.21-5-.14-9,7.17-9.56,11.3-.81,5.51,1.63,11.86,6.89,14.3,5.59,2.6,10.45-1.24,13.86-5.4,2.65-3.23-2-7.89-4.63-4.63-2.54,3.09-6.35,6.77-9,1.27-1.49-3.13-.63-9.14,3.28-10.42l-2.52-.33c3.14,1.5,7.21,4.73,8.82,7.88,1.92,3.75,7.57.44,5.65-3.3Z" style="fill:#e5a024;"/><path d="M386.19,278.92l-9-6.87a3.33,3.33,0,0,1-1.18-1.29,3.36,3.36,0,0,1,.5-2.66c1-2,2.09-4.06,4-5.15,2.83-1.59,6.45-.46,9.14,1.37a12.91,12.91,0,0,1,4.65,5.14,7.52,7.52,0,0,1-.09,6.75" style="fill:#e5a024;"/><path d="M387.84,276.09c-2.24-1.72-4.44-3.5-6.73-5.15-.88-.64-1.54-.84-1.49-1.68s1.37-2.52,2.08-3c4.05-3,11.75,3.89,9.73,8.35-1.73,3.81,3.91,7.14,5.65,3.3,2.36-5.21,1-10.56-3.22-14.42-3.44-3.15-8.49-5.55-13.2-4.09-3.95,1.23-7.89,6.33-8,10.51-.06,2.25,1.27,3.71,2.92,5,2.95,2.34,6,4.58,9,6.87,3.34,2.56,6.61-3.12,3.3-5.65Z" style="fill:#e5a024;"/><path d="M481.81,354.27c-15.75-26.57-29.88-54-45.62-80.61a7.41,7.41,0,0,0-.63-.89c6.56-68.24,14.58-136.35,21.58-204.55.86-8.37-12.24-8.31-13.09,0-7.06,68.86-15.17,137.63-21.76,206.54a7.49,7.49,0,0,0-.54.82c-14.61,26-27.56,52.92-43.1,78.39-4.4,7.21,6.92,13.8,11.31,6.61,10.52-17.24,19.85-35.15,29.32-53Q417,333.27,415.15,359c-.6,8.41,12.5,8.37,13.09,0q2.28-32,5.23-63.88c12.43,21.87,24.2,44.12,37,65.76C474.8,368.12,486.12,361.54,481.81,354.27Z" style="fill:#3b301b;"/><path d="M514.89,104.33a3.31,3.31,0,0,0-3.27-3.27H401.77a3.35,3.35,0,0,0-3.27,3.27q-6.1,87.52-15.75,174.75c-.2,1.76,1.66,3.27,3.27,3.27H495.86a3,3,0,0,0,3-2.35,3.55,3.55,0,0,0,.24-.93Q508.79,191.87,514.89,104.33Z" style="fill:#e5a024;"/><path d="M504.2,95.16a3.31,3.31,0,0,0-3.27-3.27H391.08a3.35,3.35,0,0,0-3.27,3.27q-6.1,87.52-15.75,174.75c-.19,1.76,1.66,3.27,3.27,3.27H485.17a3,3,0,0,0,3-2.35,3.57,3.57,0,0,0,.24-.93Q498.09,182.71,504.2,95.16Z" style="fill:#eae2c2;"/><path d="M467.27,144.19a44.62,44.62,0,0,1-.59,7.68,3.37,3.37,0,0,0,2.29,4,3.3,3.3,0,0,0,4-2.29,54.7,54.7,0,0,0,.82-9.42c0-4.21-6.53-4.22-6.55,0Z" style="fill:#cf4327;"/><path d="M427,195.71c7.06-3.9,13.17-9.25,20.21-13.22a3.31,3.31,0,0,0,0-5.65c-8.66-5.88-16.94-12-24.06-19.61q17.65-19.79,34.5-40.27c2.66-3.23-2-7.89-4.63-4.63q-17.84,21.7-36.59,42.62a3.37,3.37,0,0,0,0,4.63c6.76,7.8,14.77,14.06,23.15,19.93-5.94,3.91-11.47,8.44-17.89,11.62a3.34,3.34,0,0,0-1.5,3.7q5.29,28.72,12.8,56.94c1.08,4.07,7.4,2.34,6.31-1.74Q432.19,223.1,427,195.71Z" style="fill:#cf4327;"/><path d="M492.91,149c-14-13.25-31.28-11.73-47.59-3.89-2.41,1.16-1.82,4.35,0,5.65,6.25,4.47,14.94,9.64,22.74,10.28a37,37,0,0,0,24.19-6.9,3.45,3.45,0,0,0,1-1.05A2.93,2.93,0,0,0,492.91,149Zm-25.38,5.35c-4.51-.8-9.39-3.17-13.73-5.81,10.7-4,21.68-4.51,31.21,2.38C479.69,153.79,473.48,155.43,467.53,154.37Z" style="fill:#cf4327;"/><path d="M478.83,190.36c-4.1,7.79-13.23-3.22-19-3.9A11.64,11.64,0,0,0,448.17,193c-1.93,3.74,3.72,7.05,5.65,3.3,4.31-8.36,12.8,2.42,18.58,3.5,5.12,1,9.69-1.65,12.07-6.17C486.44,189.94,480.8,186.63,478.83,190.36Z" style="fill:#cf4327;"/><path d="M397.72,144.66c9.72-.28,19.42-3,26-10.49,4.43-5,5.7-10.76,8.67-16.53,1-2-.19-5.2-2.83-4.93l-.6.06a3.59,3.59,0,0,0-.48.1,3.64,3.64,0,0,0-.4,0c-14.27,2.16-30.45,12.75-33.57,27.62A3.31,3.31,0,0,0,397.72,144.66Zm26.54-24.17a35.75,35.75,0,0,1-2,4.65c-4.24,7.76-11.65,11.44-19.85,12.58C406.24,129.27,415.26,123.24,424.26,120.49Z" style="fill:#cf4327;"/><path d="M413.58,132.73c4.21,0,4.22-6.55,0-6.55S409.36,132.73,413.58,132.73Z" style="fill:#cf4327;"/><path d="M453.33,211.94c.23,3.19.12,10.48-4.41,10.37-4.16-.11-6.06-4-5.58-7.67.54-4.17-6-4.13-6.55,0a12.66,12.66,0,0,0,12.13,14.22c8.82.22,11.48-9.73,11-16.92C459.58,207.76,453,207.72,453.33,211.94Z" style="fill:#cf4327;"/><path d="M458.52,136.86q9-4.09,18.21-7.61c3.9-1.49,2.21-7.82-1.74-6.31q-10,3.83-19.77,8.27C451.38,133,454.71,138.6,458.52,136.86Z" style="fill:#cf4327;"/><path d="M405.29,227.83c2.34-1.73,10.52.5,13,1,4.11.84,5.87-5.47,1.74-6.31-6.72-1.37-23.33-4.5-25.37,5.62a6.87,6.87,0,0,0,2.78,7.17,7.89,7.89,0,0,0-3.45,4.44c-1.13,3.39.29,6,2.73,7.85a11,11,0,0,0-2.8,1.94,9.34,9.34,0,0,0-1.67,11.8c5.35,8.71,18.51,6.25,27,6,4.21-.11,4.22-6.66,0-6.55-4.42.12-8.87.69-13.29.33a19.2,19.2,0,0,1-3.91-.62c-2.67-.79-2.64-.76-2.75-3.95-.14-3.77.88-3.55,4.27-4,2-.27,4-.25,5.93-.36,3.46-.19,4.72-5.81.87-6.43-2.16-.35-13.34-2.58-7.37-5.59,2.68-1.35,7.84.09,10.83-.19a3.28,3.28,0,0,0,0-6.55C412.3,233.33,399.45,232.16,405.29,227.83Z" style="fill:#cf4327;"/><path d="M248.27,212.48c-7.73-13.55-18.39-25.67-32-33.52-16-9.2-33.26-8.57-51-10.35-13.12-1.32-25.88-3-33.12,10.54-3.93,7.37-5.36,16.4-6.91,24.51a224.84,224.84,0,0,0-3.7,30.77c-1.36,26.54-2.06,65.32,22.58,82.71,11.89,8.39,28,9.21,42.06,8.82,15.24-.42,30.67-3.93,43.54-12.38C264.12,291,266.59,246.32,248.27,212.48Z" style="fill:#3b301b;"/><path d="M313.41,128c-4.59-3.09-8.86-.46-13.38.34,1.65-5.59,2.74-13.4-3.15-15.1-7.06-2-12.48,7.93-15.28,12.6-2.56,4.29-5.14,8.55-10.4,9.67-5.72,1.22-11.81-1.56-16-5.35-8.44-7.66-10.2-20.34-13.35-30.71-10.48-34.42-48.17-48.24-80.68-36.14-27.81,10.35-43.85,38.05-42.41,67.23a78.43,78.43,0,0,0,14,41.1c7.46,10.58,17.78,16.73,30.27,19.9,25.06,6.38,63.64,2.54,74.69-24.83a41.74,41.74,0,0,0,19.14,3.65,47.29,47.29,0,0,0,38.51-23.26c7.76,2.46,17.14-.61,20.44-8.62C317.44,134.72,317,130.47,313.41,128Z" style="fill:#3b301b;"/><path d="M133.1,119.7,133.76,92A3.52,3.52,0,0,0,137,87.89c-2.88-16.45-19.1-27.83-35.54-25.71C83.36,64.51,70.18,79.83,68,97.51c-2.08,17.08,5.28,37.58,22,44.75,17.72,7.6,36.51-2.13,45.82-17.72C137.3,122.13,135.26,119.87,133.1,119.7Z" style="fill:#3b301b;"/><path d="M213.19,95.7a59.72,59.72,0,0,0-23.46-4.31,60,60,0,0,0-23.46,4.31c-4.47,1.88-13.82,6.17-14.34,11.89-.49,5.42,7.8,9.76,11.75,11.71,8,3.94,16.81,5.45,25.66,5.47a2,2,0,0,1,.78,0,58.25,58.25,0,0,0,24.76-5.05c4.14-1.94,13.17-6.42,12.66-12.12S217.67,97.59,213.19,95.7Z" style="fill:#eae2c2;"/><path d="M206,108.08c.21-7.79-6.69-13.6-14.17-13.57-7.08,0-13.58,5.38-14,12.64-.38,7,4.81,12.08,11.41,13a3.62,3.62,0,0,0,.77.1,3.53,3.53,0,0,0,.75,0C197.82,120,205.81,115.92,206,108.08Z" style="fill:#3b301b;"/><path d="M203.33,157c-1.15-4-7.46-2.33-6.31,1.74.84,3,.71,6.14-2.54,7.38-4.25,1.62-5.55-2.82-5.85-6.09s-5.75-4.79-6.43-.87c-.38,2.16-.6,6.31-3,7.28-4.48,1.79-4.74-4.21-4.54-7,.31-4.2-6.24-4.18-6.55,0-.46,6.25,2,13.42,9.25,13.82a8.76,8.76,0,0,0,7.95-3.86,9.12,9.12,0,0,0,9.57,3.67C202.46,171.74,205.25,163.76,203.33,157Z" style="fill:#cf4327;"/><path d="M227.64,48.15c-4.09-12.88-22.94-17.56-34.75-16C183.67,33.35,178,39,171.82,45.37c-4.24,4.4-8.37,7.45-14.51,8.69-5.23,1.06-10.49,1.37-15.58,3.08a3.62,3.62,0,0,0-.56.25l-.23.08c-4.39,2-8.91,6.45-6.35,11.71,2.94,6,12.21,6.48,18,6.82,10.21.6,20.55-.5,30.78-.42,9.94.08,19.92.1,29.7-1.87,5.59-1.12,9.26-2.56,11.92-7.83S229.52,54.07,227.64,48.15Z" style="fill:#cf4327;"/><path d="M173.69,50.77a25,25,0,0,0-15.56-18.72c-3.9-1.59-5.6,4.74-1.74,6.31a18.49,18.49,0,0,1,11,14.14c.74,4.14,7,2.39,6.31-1.74Z" style="fill:#cf4327;"/><path d="M174.67,350.89a70.19,70.19,0,0,0,.77-43.52c-4.88-16.08-30.17-9.23-25.25,7a45.75,45.75,0,0,1-.77,29.6c-2.34,6.68,2.66,14.33,9.15,16.11,7.22,2,13.76-2.45,16.11-9.15Z" style="fill:#3b301b;"/><path d="M228.64,350.89a70.19,70.19,0,0,0,.77-43.52c-4.88-16.08-30.17-9.23-25.25,7a45.75,45.75,0,0,1-.77,29.6c-2.34,6.68,2.66,14.33,9.15,16.11,7.22,2,13.76-2.45,16.11-9.15Z" style="fill:#3b301b;"/><path d="M162.11,360.47h15.71c4.21,0,4.22-6.55,0-6.55H162.11c-4.21,0-4.22,6.55,0,6.55Z" style="fill:#3b301b;"/><path d="M214.26,360.47H230c4.21,0,4.22-6.55,0-6.55H214.26c-4.21,0-4.22,6.55,0,6.55Z" style="fill:#3b301b;"/><path d="M240.18,225.26c43.07,6.56,86.66-12.11,111.11-48.33,7.09-10.51-9.92-20.35-17-9.91-19.07,28.25-55.1,44.46-88.93,39.3-5.28-.8-10.5,1.34-12.08,6.86-1.33,4.64,1.62,11.28,6.86,12.08Z" style="fill:#3b301b;"/><path d="M137.74,262.15l-34.75-.8,38.54-.28c18.74-.14,18.79-29.23.05-29.15,12.77-5.41,10.9-28.19-5.73-28l-59.12.66c-16.69.19-18.55,23.29-5.5,28.22-14,3.19-14.15,24.91-.45,28.3-14.22,3.3-13.5,26.62,2.14,28.62a15.62,15.62,0,0,0-7.34,9c-2.26,8.24,2.81,15.08,10.18,17.93,9.22,3.56,18.6,2.46,28.21,2.93a134.46,134.46,0,0,0,29.54-1.34c7.77-1.29,12.11-10.91,10.18-17.93a13.5,13.5,0,0,0-7.74-9.06l1.79,0C156.51,291.74,156.5,262.58,137.74,262.15ZM91.67,290.24l5.45.13C95.29,290.37,93.48,290.36,91.67,290.24Zm15.24.35,11.17.26C114.37,291,110.69,290.79,106.92,290.59Z" style="fill:#3b301b;"/><path d="M116,228.68l.42-53c.18-23.46-36.26-23.48-36.44,0l-.42,53c-.18,23.46,36.26,23.48,36.44,0Z" style="fill:#3b301b;"/><path d="M151.09,264a14.06,14.06,0,0,0-1.42-1.09c9.26-5.75,13.26-21,5.67-29.45a13.83,13.83,0,0,0-5.66-3.7c8.87-9.39,7.62-25.29-7-28.59-7.87-1.78-16.9-.44-24.84-.24l-37.88,1c-3.51.09-3.52,5.56,0,5.47q23.31-.59,46.62-1.18c5.12-.13,11.44-1.12,16.34.7,10.56,3.92,7.87,15.11.89,20.85a2.66,2.66,0,0,0-.61.71c-5.13-.47-10.59,0-15,0-13.83-.28-27.66-.13-41.49.38-3.51.13-3.52,5.6,0,5.47,16.69-.61,33.38-.69,50.07-.15,7.82.25,16.8.4,16.82,10.5,0,5.92-3,12.85-9,14.7a2.65,2.65,0,0,0-1.42,1c-5.14-1.15-10.91-.86-15.74-1.07l-38.6-1.67c-3.52-.15-3.51,5.31,0,5.47,15.16.66,30.33,1.26,45.49,2,6.73.32,15.45,1,15.65,9.62.14,5.88-3.22,13.43-9,15.54a2.85,2.85,0,0,0-1.06.67c-5.46-2.95-12.8-2.47-18.7-2.94L90,285.34c-3.51-.28-3.49,5.19,0,5.47l21.76,1.73c7.31.58,15.59.2,22.71,2,6.11,1.51,9.71,8.36,6.43,13.93-1.81,3.07-5.51,4.71-8.73,5.8-16.23,5.51-35.9,2.89-52.52.66-3.48-.46-3.44,5,0,5.47,12.08,1.62,24.37,2.67,36.56,2,8.93-.51,20.25-1.55,27-8.17a15,15,0,0,0,1.17-19.65C154.31,289.2,160.46,272.21,151.09,264Z" style="fill:#eae2c2;"/><path d="M223.14,204.43c-17.32-10.07-36.71-1.68-44.33,16-6.26,14.51-6,33.81-2.44,49s13.24,28.09,29.56,29.93c23,2.6,38-17.88,40.06-38.7C247.09,240.87,241.6,215.17,223.14,204.43Z" style="fill:#eae2c2;"/><path d="M346.62,171.68c-1.29-11.63,9.74-25.55,22.28-20.59,3.92,1.55,5.62-4.78,1.74-6.31-16.27-6.44-32.31,11.25-30.57,26.91.46,4.14,7,4.19,6.55,0Z" style="fill:#3b301b;"/><path d="M335.76,156.86a15,15,0,0,0,1.61,13c2.29,3.52,8,.24,5.65-3.3a8.66,8.66,0,0,1-.95-8c1.38-4-4.94-5.7-6.31-1.74Z" style="fill:#3b301b;"/><path d="M334.85,172.83a9.44,9.44,0,0,1-4.46-5c-.7-1.62-3.08-2-4.48-1.17a3.36,3.36,0,0,0-1.17,4.48,15.57,15.57,0,0,0,6.81,7.33,3.27,3.27,0,0,0,3.3-5.65Z" style="fill:#3b301b;"/><path d="M328.38,164.25a17.17,17.17,0,0,0,5.12,7.61,3.36,3.36,0,0,0,4.63,0,3.3,3.3,0,0,0,0-4.63,10.84,10.84,0,0,1-3.43-4.72,3.36,3.36,0,0,0-4-2.29,3.3,3.3,0,0,0-2.29,4Z" style="fill:#3b301b;"/><path d="M415.71,174c-7.38-1.63-9.55-6.72-14.59-11.46a3.63,3.63,0,0,0-.6-.46l-.06-.05c-6.61-4.54-18.92-.48-14.78,9,4.71,10.78,20.35,12.92,30,9.28C418.49,179.28,419.14,174.77,415.71,174Z" style="fill:#3b301b;"/><path d="M339.82,135.88l44.66,33.6c6.74,5.07,13.27-6.3,6.61-11.31l-44.66-33.6c-6.74-5.07-13.27,6.3-6.61,11.31Z" style="fill:#cf4327;"/><path d="M347.2,179.14c15.14,3.18,32.13-7.71,29.47-24.5-.66-4.15-7-2.39-6.31,1.74,1.85,11.7-11.56,18.52-21.42,16.45-4.11-.86-5.87,5.45-1.74,6.31Z" style="fill:#3b301b;"/><path d="M34.24,201.47,6.3,199.83c-8.42-.5-8.39,12.6,0,13.09l27.94,1.65c8.42.5,8.39-12.6,0-13.09Z" style="fill:#cf4327;"/><path d="M44,171.84a312.48,312.48,0,0,1-32.12-15.75c-7.36-4.12-14,7.18-6.61,11.31a341.63,341.63,0,0,0,35.25,17.07c7.76,3.25,11.15-9.42,3.48-12.63Z" style="fill:#cf4327;"/><path d="M59.84,149.57,45,133.88c-5.81-6.13-15.06,3.14-9.26,9.26l14.87,15.69c5.81,6.13,15.06-3.14,9.26-9.26Z" style="fill:#cf4327;"/><path d="M187.2,227.58l.92,5.23a3.29,3.29,0,0,0,4,2.29,3.36,3.36,0,0,0,2.29-4l-.92-5.23a3.29,3.29,0,0,0-4-2.29,3.36,3.36,0,0,0-2.29,4Z" style="fill:#e5a024;"/><path d="M204.75,215.35l1.71,4.38a3.35,3.35,0,0,0,4,2.29c1.55-.5,3-2.32,2.29-4l-1.71-4.38a3.35,3.35,0,0,0-4-2.29c-1.55.5-3,2.32-2.29,4Z" style="fill:#e5a024;"/><path d="M224.87,224.07l.87,4.36a3.29,3.29,0,0,0,4,2.29,3.36,3.36,0,0,0,2.29-4l-.87-4.36a3.29,3.29,0,0,0-4-2.29,3.36,3.36,0,0,0-2.29,4Z" style="fill:#e5a024;"/><path d="M211.68,234.56l.9,6.11c.26,1.75,2.47,2.71,4,2.29a3.36,3.36,0,0,0,2.29-4l-.9-6.11c-.26-1.75-2.47-2.71-4-2.29a3.36,3.36,0,0,0-2.29,4Z" style="fill:#e5a024;"/><path d="M187.21,248.52v6.11c0,4.21,6.55,4.22,6.55,0v-6.11c0-4.21-6.55-4.22-6.55,0Z" style="fill:#e5a024;"/><path d="M201.31,254.62l.88,5.24a3.29,3.29,0,0,0,4,2.29,3.37,3.37,0,0,0,2.29-4l-.88-5.24a3.29,3.29,0,0,0-4-2.29,3.37,3.37,0,0,0-2.29,4Z" style="fill:#e5a024;"/><path d="M228.36,253.75l1.75,6.11a3.27,3.27,0,0,0,6.31-1.74L234.67,252a3.27,3.27,0,1,0-6.31,1.74Z" style="fill:#e5a024;"/><path d="M217,269.46l.87,3.49a3.27,3.27,0,1,0,6.31-1.74l-.87-3.49a3.27,3.27,0,0,0-6.31,1.74Z" style="fill:#e5a024;"/><path d="M223.95,283.42l-.89,2.61a3.3,3.3,0,0,0,2.29,4,3.35,3.35,0,0,0,4-2.29l.89-2.61a3.3,3.3,0,0,0-2.29-4,3.35,3.35,0,0,0-4,2.29Z" style="fill:#e5a024;"/><path d="M203,284.32a12.08,12.08,0,0,1-.68,6.15,3.31,3.31,0,0,0,2.29,4,3.34,3.34,0,0,0,4-2.29,18.84,18.84,0,0,0,.68-9.63c-.3-1.74-2.44-2.72-4-2.29a3.35,3.35,0,0,0-2.29,4Z" style="fill:#e5a024;"/><path d="M184.62,274.72l.88,3.49a3.27,3.27,0,0,0,6.31-1.74l-.88-3.49a3.27,3.27,0,0,0-6.31,1.74Z" style="fill:#e5a024;"/><path d="M319.91,61.76c-3.55,5.16-4.07,11.72-4.69,17.78-.88,8.67-1.34,17.32-5.38,25.22a3.16,3.16,0,0,0,.26,3.44,3.22,3.22,0,0,0,4,2.8A49.87,49.87,0,0,0,342.37,92.3c6.25-8.48,11.35-21.79,4.08-31.23A16.5,16.5,0,0,0,319.91,61.76Z" style="fill:#eae2c2;"/><path d="M336.72,41.25a3.31,3.31,0,0,0,6,.78c4-7.12,9.26-14.42,9.48-22.91.17-6.78-3.07-15.34-9.67-18.25-5.6-2.46-11.49.56-14.28,5.68-4.12,7.55-.09,15.72,3.85,22.38A46.7,46.7,0,0,1,336.72,41.25Z" style="fill:#eae2c2;"/><path d="M123.69,88.88C119.18,78.13,107.84,70.93,96,73.72c-12.49,2.94-19.27,15.59-17.55,27.7.77,5.4,9,3.1,8.21-2.26-2.45-17.3,22.05-24.13,28.82-8,2.09,5,10.33,2.79,8.21-2.26Z" style="fill:#574730;"/><path d="M83.73,221.91a144.08,144.08,0,0,1,49.52-1.81c5.41.72,5.36-7.79,0-8.51a150.77,150.77,0,0,0-51.78,2.11c-5.35,1.14-3.09,9.35,2.26,8.21Z" style="fill:#574730;"/><path d="M84.4,247.55A212.29,212.29,0,0,1,134,248.87c5.36.79,7.67-7.41,2.26-8.21A221.48,221.48,0,0,0,84.4,239c-5.41.48-5.46,9,0,8.51Z" style="fill:#574730;"/><path d="M88.77,275.54a95.44,95.44,0,0,1,36.4,2.6c5.3,1.43,7.55-6.78,2.26-8.21A102,102,0,0,0,88.77,267c-5.38.63-5.44,9.15,0,8.51Z" style="fill:#574730;"/><path d="M86.15,305.53l28.82,1.4c5.48.27,5.46-8.25,0-8.51L86.15,297c-5.48-.27-5.46,8.25,0,8.51Z" style="fill:#574730;"/><path d="M127.17,132.57a57.59,57.59,0,0,0,19.73,38.76c4.13,3.56,10.18-2.43,6-6a49.07,49.07,0,0,1-17.24-32.75c-.51-5.41-9-5.46-8.51,0Z" style="fill:#574730;"/><path d="M222,90c7.65,6.23,8.45,18.26,11.14,27.19s5.36,18.48,11.79,25.35c10.57,11.31,29.51,10.43,39.67-.88,3.65-4.06-2.35-10.1-6-6a19.25,19.25,0,0,1-19.08,6c-8.71-2.17-12.66-10.32-15.42-18.11-2.7-7.63-4.56-15.49-6.77-23.27-1.76-6.2-4.19-12.08-9.3-16.25-4.21-3.43-10.27,2.56-6,6Z" style="fill:#574730;"/><path d="M262.75,335.54a143.43,143.43,0,0,1,42.94-41.28c4.64-2.89.37-10.26-4.3-7.35a153.58,153.58,0,0,0-46,44.33c-3.08,4.55,4.29,8.81,7.35,4.3Z" style="fill:#f3bc63;"/><path d="M294.19,346.17l14-4.36c5.21-1.63,3-9.85-2.26-8.21l-14,4.36c-5.21,1.63-3,9.85,2.26,8.21Z" style="fill:#f3bc63;"/><path d="M474.25,303c.13-.58.3-1.13.46-1.7s.2-.55.06-.21q.18-.4.39-.79a15.59,15.59,0,0,1,.91-1.51q.44-.62.14-.19.28-.34.59-.65a4.26,4.26,0,0,0-6-6,19,19,0,0,0-4.74,8.81,4.26,4.26,0,1,0,8.21,2.26Z" style="fill:#db6653;"/><path d="M515,241.23a86.85,86.85,0,0,1,13.26-15.75c4-3.76-2-9.77-6-6a96.35,96.35,0,0,0-14.6,17.48c-3,4.6,4.36,8.87,7.35,4.3Z" style="fill:#db6653;"/><path d="M499.29,327.4a211.46,211.46,0,0,1,29.06-19.08c4.81-2.63.52-10-4.3-7.35a224.29,224.29,0,0,0-30.78,20.41c-4.31,3.38,1.76,9.36,6,6Z" style="fill:#db6653;"/><path d="M153.17,68.74c7.54,1.74,14.44-.68,20.48-5.3,7.39-5.65,15-17,25.65-13.49,5.22,1.7,7.46-6.52,2.26-8.21-7.74-2.52-15.25.16-21.52,4.92-7.13,5.41-14.37,16.22-24.62,13.86-5.33-1.23-7.61,7-2.26,8.21Z" style="fill:#db6653;"/><path d="M112.35,334.11h12.22c5.48,0,5.49-8.51,0-8.51H112.35c-5.48,0-5.49,8.51,0,8.51Z" style="fill:#db6653;"/></g></g></svg>