<?xml version="1.0" encoding="iso-8859-1"?>
<!-- Generator: Adobe Illustrator 23.0.6, SVG Export Plug-In . SVG Version: 6.00 Build 0)  -->
<svg version="1.1" id="&#x421;&#x43B;&#x43E;&#x439;_1"
	 xmlns="http://www.w3.org/2000/svg" xmlns:xlink="http://www.w3.org/1999/xlink" x="0px" y="0px" viewBox="0 0 1078.278 800"
	 style="enable-background:new 0 0 1078.278 800;" xml:space="preserve">
<g>
	<path style="fill:#EBE2C3;" d="M1013.785,646.393c-1.66-2.61-4.918-3.718-7.833-2.664c-13.357,3.966-26.308,9.183-38.68,15.579
		c9.689-24.165,21.493-50.29,16.667-74.714c-1.016-3.96-5.06-6.349-9.032-5.337c-1.34,0.341-2.557,1.049-3.515,2.043
		c-20.936,19.585-40.472,40.606-58.465,62.909c-0.875-33.575-4.287-67.036-10.208-100.1c-1.188-6.587-10.654-6.957-13.735-1.776
		c-21.912,36.619-38.18,76.313-48.257,117.751c-10.617-17.282-28.175-33.675-41.167-40.336c-4.566-2.368-11.916,0.444-11.136,6.476
		c2.858,28.716,6.422,63.353,24.982,86.852c14.848,18.503,38.903,17.208,60.544,17.874c31.85,0.962,62.326,4.811,89.424-14.802
		c21.716-15.801,36.75-39.041,51.078-61.244C1016.403,652.302,1016.117,648.662,1013.785,646.393z"/>
	<path style="fill:#EBE2C3;" d="M552.284,571.295c-7.019-6.205-31.478,10.463-48.819,22.281
		c-24.392,16.623-43.488,33.564-57.744,47.764c0.82-3.33,1.634-6.783,2.443-10.368c12.409-54.995,28.012-150.614,11.944-175.547
		c-2.267-3.518-7.273-4.487-10.86-2.134c-23.742,15.57-56.937,102.437-70.115,157.412c-24.019-52.196-61.396-121.819-86.283-132.902
		c-3.984-1.774-8.71-0.009-10.274,3.801c-8.725,21.269,7.336,88.368,25.774,140.49c-12.582-8.706-27.518-19.098-45.335-31.525
		c-46.126-32.174-53.429-37.309-56.535-36.392c-0.423,0.125-0.598,0.277-0.71,0.344c-16.468,9.804,5.194,130.391,75.703,166.249
		c6.358,3.233,3.127,0.699,124.82,5.455c17.967,0.702,40.751,1.645,63.559-11.348c16.624-9.47,27.545-23.088,31.659-28.307
		c8.04-10.2,10.743-16.995,24.234-44.172c7.718-15.548,14.335-28.436,19.121-37.646
		C556.131,581.657,555.276,573.941,552.284,571.295z"/>
	<g>
		<path style="fill:#3A301B;" d="M732.48,621.077c-20.633,12.861,21.901,98.1,23.954,101.284c1.001,1.552,2.276,2.898,3.759,3.977
			c0,0,0.87,0.634,1.837,1.141c1.6,0.839,56.026,26.65,90.53,22.36c42.449-5.277,87.635-60.201,95.473-135.732
			c1.554-6.803,1.253-10.96-0.903-12.473c-7.712-5.409-39.153,23.01-94.326,85.263c20.757-125.915,21.841-183.21,7.893-187.348
			c-13.024-3.864-40.358,38.257-85.821,139.388C749.785,618.953,738.225,617.496,732.48,621.077z"/>
		<path style="fill:#574730;" d="M845.03,595.584c-0.253,0-0.508-0.014-0.766-0.04c-4.06-0.418-7.013-4.047-6.595-8.108
			l5.173-50.255c0.418-4.06,4.038-7.015,8.109-6.595c4.06,0.418,7.013,4.047,6.595,8.108l-5.173,50.255
			C851.982,592.752,848.772,595.584,845.03,595.584z"/>
		<path style="fill:#574730;" d="M925.589,658.405c-0.294,0-0.591-0.018-0.89-0.054c-4.052-0.487-6.943-4.166-6.457-8.219
			l2.217-18.477c0.487-4.053,4.16-6.947,8.219-6.457c4.052,0.487,6.943,4.166,6.457,8.219l-2.217,18.477
			C932.467,655.647,929.276,658.405,925.589,658.405z"/>
	</g>
	<g>
		<path style="fill:#CF4427;" d="M713.015,351.354c-11.447,5.897-21.961,13.39-31.085,22.134
			c-4.563,4.371-8.772,9.061-12.586,14.019c-0.994,1.205-1.857,2.517-2.788,3.767c-0.945,1.241-1.767,2.571-2.613,3.879
			l-2.537,3.911l-2.288,4.056c-6.09,10.795-10.296,22.51-12.935,34.49c-1.343,5.989-2.15,12.093-2.623,18.179
			c-0.464,6.096-0.491,12.172-0.09,18.168c0.655,9.787-6.748,18.252-16.535,18.906c-9.787,0.655-18.252-6.748-18.906-16.535
			c-0.042-0.631-0.051-1.256-0.028-1.875l0.01-0.219c0.309-7.723,1.172-15.371,2.554-22.868c1.393-7.499,3.207-14.899,5.638-22.104
			c4.811-14.402,11.537-28.185,20.293-40.478l3.29-4.589l3.545-4.388c1.183-1.458,2.343-2.928,3.625-4.3
			c1.268-1.382,2.469-2.815,3.8-4.134c5.165-5.412,10.723-10.411,16.593-14.948c11.742-9.077,24.693-16.333,38.304-21.612
			c4.666-1.81,9.916,0.506,11.725,5.172c1.688,4.351-0.212,9.209-4.259,11.313L713.015,351.354z"/>
		<path style="fill:#E59F22;" d="M723.719,749.028c-2.448,2.487-25.158,24.778-58.375,20.146
			c-28.936-4.035-44.299-25.497-46.786-29.096c-6.017,4.35-28.117,19.216-59.415,17.159c-33.498-2.201-54.276-22.259-59.17-27.252
			c-5.563-0.065-21.627-0.995-35.952-12.719c-23.2-18.987-20.946-49.186-20.689-51.989c-0.68-52.539-1.36-105.079-2.04-157.618
			c-0.512-2.682-7.497-43.049,22.652-71.32c25.693-24.093,58.21-20.511,62.718-19.938c6.917-4.206,28.438-16.083,57.803-13.433
			c29.759,2.685,48.969,18.611,54.947,23.995c5.983-4.807,23.09-17.229,47.908-18.139c36.058-1.321,59.424,22.722,63.088,26.619
			c5.706,0.486,36.009,3.639,58.446,30.25c14.185,16.824,21.951,39.059,19.938,62.717c-9.322,49.003-18.644,98.005-27.966,147.008
			c-0.191,4.953-1.772,33.632-25.913,54.784C753.878,748.632,729.711,749.087,723.719,749.028z"/>
		<path style="fill:#3B301B;" d="M611.519,667.686l-42.854-64.026l-52.537,46.286l-6.242-53.552l-14.417,11.698
			c-4.128,3.352-10.188,2.718-13.538-1.409c-3.349-4.128-2.718-10.188,1.409-13.537l41.611-33.763l6.04,51.814l41.443-36.513
			l39.414,58.886l40.848-58.558l35.746,55.339l42.023-49.372l34.418,42.16c3.361,4.117,2.749,10.18-1.369,13.541
			c-4.118,3.362-10.181,2.748-13.542-1.368l-19.815-24.273l-43.836,51.501l-34.239-53.004L611.519,667.686z"/>
		<path style="fill:#3B301B;" d="M549.105,466.608c-9.12,20.152-18.241,40.304-27.361,60.456
			c22.328-1.319,44.657-2.639,66.985-3.958C575.521,504.273,562.313,485.441,549.105,466.608z"/>
		<path style="fill:#3B301B;" d="M721.883,479.381c5.584,21.403,11.168,42.807,16.751,64.21
			c-21.784-5.074-43.569-10.147-65.353-15.221C689.482,512.04,705.682,495.711,721.883,479.381z"/>
		<path style="fill:#F3BC63;" d="M797.624,593.989c-0.048,0-0.096-0.001-0.144-0.002c-3.188-0.078-5.71-2.725-5.632-5.913
			c0.571-23.449,3.154-46.017,7.677-67.078c0.18-0.841,0.364-1.678,0.547-2.513c2.187-9.985,4.076-18.609-0.094-26.399
			c-4.656-8.698-14.978-12.867-22.818-14.833c-3.094-0.776-4.972-3.912-4.197-7.006c0.776-3.094,3.91-4.97,7.006-4.197
			c14.487,3.634,24.927,10.751,30.191,20.586c6.181,11.547,3.645,23.125,1.193,34.32c-0.18,0.819-0.36,1.642-0.537,2.467
			c-4.372,20.357-6.869,42.205-7.423,64.934C803.318,591.495,800.747,593.989,797.624,593.989z"/>
		<path style="fill:#F3BC63;" d="M755.392,522.781c-0.158,0-0.318-0.007-0.479-0.02c-3.179-0.261-5.544-3.05-5.283-6.228
			c0.379-4.611,2.882-45.688-25.41-67.842c-5.1-3.993-18.64-14.594-37.223-12.935c-12.17,1.087-21.327,6.884-26.865,11.557
			c-2.438,2.057-6.081,1.748-8.138-0.69c-2.056-2.438-1.748-6.081,0.69-8.137c6.81-5.746,18.112-12.878,33.285-14.233
			c23.136-2.06,39.869,11.038,45.369,15.343c32.371,25.347,30.505,69.324,29.803,77.883
			C760.893,520.496,758.367,522.781,755.392,522.781z"/>
		<path style="fill:#F3BC63;" d="M513.608,480.952c-0.128,0-0.255-0.004-0.384-0.013c-3.182-0.209-5.593-2.958-5.384-6.14
			c0.243-3.7,3.178-36.634,31.094-53.361c13.707-8.214,27.607-9.205,36.856-8.581c3.182,0.213,5.589,2.965,5.376,6.147
			c-0.213,3.182-2.963,5.591-6.147,5.376c-7.601-0.505-19.004,0.286-30.149,6.965c-22.87,13.704-25.304,41.128-25.506,44.21
			C519.164,478.609,516.625,480.952,513.608,480.952z"/>
		<path style="fill:#F3BC63;" d="M459.792,534.329c-2.68,0-5.082-1.875-5.648-4.602c-3.586-17.265-3.807-34.608-0.656-51.546
			c1.561-8.387,3.967-16.682,7.15-24.652c1.183-2.962,4.54-4.405,7.505-3.221c2.962,1.183,4.403,4.544,3.22,7.505
			c-2.904,7.27-5.098,14.833-6.521,22.48c-2.875,15.454-2.67,31.296,0.609,47.085c0.648,3.122-1.357,6.18-4.48,6.829
			C460.576,534.289,460.181,534.329,459.792,534.329z"/>
		<path style="fill:#F3BC63;" d="M674.653,758.162c-1.465,0-2.939-0.055-4.427-0.164c-3.181-0.234-5.57-3.001-5.337-6.182
			c0.233-3.179,3.007-5.572,6.182-5.337c7.371,0.544,14.371-0.585,20.807-3.343c18.694-8.013,25.265-26.775,26.834-32.334
			c0.866-3.069,4.057-4.857,7.126-3.99c3.069,0.865,4.855,4.055,3.99,7.125c-1.92,6.805-10.002,29.785-33.399,39.814
			C689.589,756.684,682.281,758.162,674.653,758.162z"/>
	</g>
	<g>
		<path style="fill:#E5A024;" d="M97.023,734.612c8.656,4.382,11.968,3.665,88.334,3.922c46.457,0.156,49.465,0.436,55.606-3.223
			c34.867-20.776,31.071-85.327,29.136-118.231c-0.919-15.63-1.868-29.84-7.484-31.187c-10.721-2.571-31.043,43.5-47.138,84.643
			c-15.868-73.368-96.116-215.473-100.314-177.851c-5.646,50.598,6.831,120.476,18.687,167.075
			c-33.36-25.356-66.72-50.712-100.08-76.069c-3.955-3.341-9.037-6.894-11.738-5.305c-9.499,5.586,19.308,69.506,21.374,74.05
			C65.061,700.088,75.89,723.913,97.023,734.612z"/>
		<path style="fill:#3B301B;" d="M350.826,715.315c-0.915-1.41-2.691-1.996-4.27-1.409c-7.238,2.222-14.25,5.121-20.941,8.659
			c5.144-13.179,11.428-27.435,8.684-40.683c-0.572-2.147-2.781-3.425-4.935-2.855c-0.726,0.192-1.384,0.583-1.9,1.128
			c-11.279,10.747-21.79,22.267-31.456,34.477c-0.643-18.24-2.664-36.406-6.046-54.343c-0.678-3.573-5.824-3.727-7.472-0.897
			c-11.725,20.008-20.366,41.659-25.636,64.227c-5.855-9.338-15.478-18.159-22.571-21.713c-2.493-1.264-6.473,0.301-6.019,3.575
			c1.696,15.59,3.806,34.394,14.009,47.071c8.161,9.98,21.226,9.156,32.989,9.411c17.312,0.364,33.892,2.303,48.519-8.49
			c11.722-8.695,19.775-21.398,27.451-33.535C352.278,718.512,352.104,716.536,350.826,715.315z"/>
		<path style="fill:#D04123;" d="M0.235,684.672c-0.769-2.312,0.409-4.82,2.683-5.711c1.641-1.051,3.745-1.051,5.386,0
			c15.341,8.686,29.424,19.416,41.858,31.894c-5.666-29.812-7.805-60.184-6.374-90.493c0.202-4.203,6.052-7.782,9.299-3.841
			c20.231,25.268,34.886,54.508,43.008,85.808c10.611-32.055,23.339-63.386,45.791-89.287c2.15-2.113,5.611-2.089,7.731,0.054
			c0.646,0.653,1.116,1.457,1.367,2.339c5.467,30.687-2.3,59.886-13.435,88.08c13.391-10.937,28.947-18.934,45.65-23.468
			c2.961-0.691,5.924,1.141,6.618,4.093c0.315,1.341,0.113,2.751-0.566,3.951c-11.054,22.442-23.259,46.252-44.238,61.194
			c-19.144,13.574-43.31,17.636-66.347,15.263c-21.02-2.152-37.46-9.23-50.956-25.821C15.163,723.323,7.195,704.762,0.638,686.18
			C0.42,685.704,0.284,685.194,0.235,684.672z"/>
		<path style="fill:#FFBD5C;" d="M172.273,614.321c-2.765,0-5.21-1.989-5.693-4.807c-2.644-15.429-7.447-30.318-14.274-44.254
			c-4.404-8.99-9.687-17.634-15.701-25.693c-1.91-2.559-1.384-6.183,1.176-8.094c2.559-1.909,6.183-1.385,8.094,1.176
			c6.442,8.632,12.1,17.891,16.818,27.521c7.313,14.927,12.457,30.872,15.288,47.389c0.54,3.148-1.575,6.138-4.723,6.678
			C172.927,614.293,172.597,614.321,172.273,614.321z"/>
		<path style="fill:#FFBD5C;" d="M254.322,643.145c-0.143,0-0.287-0.006-0.433-0.017c-3.185-0.235-5.576-3.009-5.34-6.194
			l1.478-19.956c0.236-3.184,3.019-5.58,6.194-5.339c3.185,0.236,5.576,3.01,5.34,6.195l-1.478,19.954
			C259.859,640.828,257.322,643.145,254.322,643.145z"/>
		<path style="fill:#DB6653;" d="M76.942,692.88c-2.099,0-4.082-1.264-4.898-3.335l-9.608-24.389
			c-1.065-2.704,0.263-5.759,2.967-6.825c2.705-1.068,5.76,0.263,6.826,2.967l9.608,24.389c1.065,2.704-0.263,5.759-2.968,6.825
			C78.237,692.763,77.584,692.88,76.942,692.88z"/>
		<path style="fill:#DB6653;" d="M125.715,675.142c-0.963,0-1.937-0.264-2.811-0.817c-2.455-1.555-3.185-4.806-1.63-7.261
			l14.042-22.173c1.555-2.455,4.806-3.185,7.262-1.629c2.455,1.555,3.185,4.807,1.63,7.262l-14.042,22.171
			C129.164,674.277,127.458,675.142,125.715,675.142z"/>
		<path style="fill:#DB6653;" d="M143.46,717.269c-1.971,0-3.86-1.112-4.76-3.012c-1.244-2.627-0.123-5.764,2.504-7.008
			l14.043-6.651c2.626-1.247,5.764-0.124,7.009,2.503c1.244,2.627,0.123,5.764-2.504,7.008l-14.043,6.651
			C144.981,717.107,144.215,717.269,143.46,717.269z"/>
	</g>
	<g>
		<path style="fill:#3A301B;" d="M865.583,483.54c-0.457-7.325-0.341-22.906,9.039-38.194
			c10.113-16.483,30.693-32.133,51.227-28.908c10.436,1.639,24.896,8.788,24.931,18.243c0.023,6.138-6.042,10.902-8.809,12.819
			c-1.716-0.562-7.833-2.335-14.725,0.427c-8.396,3.364-11.508,10.879-12.028,12.195c-1.913-0.398-8.564-1.537-15.582,2.136
			c-5.985,3.132-8.843,7.985-9.818,9.849c-2.337-0.333-6.334-0.57-10.889,0.899C870.954,475.579,866.812,481.593,865.583,483.54z"/>
		<path style="fill:#3A301B;" d="M1062.99,367.633c-5.922-4.335-19.107-12.639-37.04-12.983
			c-19.335-0.371-43.612,8.521-51.968,27.553c-4.247,9.673-6.024,25.705,1.919,30.833c5.157,3.329,12.439,0.79,15.546-0.506
			c0.452-1.748,2.258-7.856,8.3-12.171c7.361-5.257,15.367-3.826,16.756-3.553c0.696-1.826,3.324-8.041,10.201-11.971
			c5.865-3.352,11.493-3.141,13.588-2.958c0.98-2.148,2.935-5.642,6.629-8.686C1053.389,367.863,1060.688,367.617,1062.99,367.633z"
			/>
		<path style="fill:#3A301B;" d="M871.715,340.937c11.007-23.364,35.285-35.719,58.294-35.153
			c26.293,0.646,52.192,18.195,58.77,43.717c6.466,25.09-8.71,46.363-11.817,50.717c-3.365,4.717-13.178,18.068-31.555,24.109
			c-18.532,6.092-42.183,3.57-59.411-11.686C865.988,394.924,860.343,365.078,871.715,340.937z"/>
		<path style="fill:#3A301B;" d="M813.257,324.633c5.312,3.591,12.688,7.729,22.055,10.716c16.504,5.262,30.921,4.314,39.23,3.09
			c3.457,23.376,6.913,46.751,10.37,70.127c-27.917,3.857-54.748-8.525-67.579-30.898
			C803.605,353.732,811.84,328.715,813.257,324.633z"/>
		<path style="fill:#3A301B;" d="M943.799,244.431c0.849,6.356,1.268,14.802-0.231,24.519c-2.641,17.12-9.911,29.605-14.708,36.499
			c19.388,13.507,38.777,27.015,58.166,40.522c15.889-23.276,16.755-52.814,2.44-74.267
			C974.151,248.752,948.085,244.981,943.799,244.431z"/>
		<path style="fill:#3A301B;" d="M984.86,454.662c-2.415,1.658-9.269,6.366-18.334,6.38c-16.231,0.025-26.185-15.016-27.051-16.369
			c-0.323-4.861-1.373-11.049-4.256-17.634c-0.8-1.827-1.662-3.504-2.543-5.033c-0.033-0.047-0.203-0.3-0.142-0.643
			c0.038-0.217,0.159-0.419,0.354-0.555l38.005-26.58c0.389-0.272,0.926-0.177,1.198,0.212c5.924,4.418,11.849,8.837,17.773,13.255
			c0.632,0.754,13.522,16.627,7.346,32.524C994.051,448.349,987.255,453.017,984.86,454.662z"/>
		<circle style="fill:#EAE2C2;" cx="908.027" cy="391.285" r="13.675"/>
		<circle style="fill:#EAE2C2;" cx="962.705" cy="360.586" r="13.675"/>
		<path style="fill:#574730;" d="M964.978,413.215c-5.921,5.232-15.093,11.506-27.813,13.377c-8.782,1.291-17.99,0.237-26.628-3.047
			c-1.461-0.555-2.194-2.189-1.638-3.651c0.555-1.458,2.189-2.194,3.651-1.638c7.736,2.942,15.964,3.889,23.793,2.738
			c16.019-2.357,25.965-12.777,30.214-17.231c6.99-7.325,12.201-16.517,15.071-26.581c0.43-1.504,1.995-2.373,3.497-1.945
			c1.502,0.429,2.373,1.994,1.945,3.497c-3.122,10.943-8.799,20.949-16.419,28.935C969.297,409.088,967.412,411.064,964.978,413.215
			z"/>
		<path style="fill:#574730;" d="M991.086,431.158c-0.484,0.428-1.115,0.692-1.812,0.708c-1.562,0.033-2.855-1.206-2.889-2.769
			c-0.08-3.721-0.932-9.321-4.545-14.859c-2.186-3.352-5.155-6.263-8.586-8.42c-1.323-0.831-1.721-2.578-0.889-3.901
			c0.833-1.325,2.578-1.721,3.901-0.889c4.119,2.588,7.685,6.087,10.313,10.119c4.343,6.657,5.368,13.371,5.464,17.83
			C992.06,429.842,991.688,430.625,991.086,431.158z"/>
		<path style="fill:#574730;" d="M952.58,448.825c-0.942,0.832-2.361,0.96-3.453,0.225c-2.88-1.94-6.9-5.417-9.691-10.97
			c-1.771-3.522-2.783-7.324-3.008-11.3c-0.088-1.56,1.103-2.896,2.665-2.984c1.56-0.089,2.896,1.105,2.984,2.665
			c0.181,3.197,0.994,6.251,2.415,9.079c2.241,4.458,5.476,7.255,7.796,8.817c1.296,0.873,1.639,2.631,0.766,3.927
			C952.917,448.488,952.757,448.669,952.58,448.825z"/>
		<path style="fill:#574730;" d="M911.469,324.685c-0.448,0.396-1.023,0.653-1.665,0.7c-4.001,0.295-11.681,1.714-18.157,8.003
			c-4.358,4.224-6.454,9.026-7.445,12.311c-0.449,1.498-2.028,2.343-3.525,1.891c-1.496-0.451-2.343-2.03-1.891-3.525
			c1.184-3.926,3.693-9.671,8.924-14.741c7.757-7.501,16.915-9.232,21.68-9.582c1.558-0.115,2.914,1.056,3.029,2.614
			C912.486,323.272,912.109,324.12,911.469,324.685z"/>
		<path style="fill:#574730;" d="M950.948,323.779c-0.636,0.562-1.516,0.833-2.413,0.659l-15.186-2.942
			c-1.533-0.297-2.536-1.781-2.239-3.316c0.297-1.533,1.781-2.537,3.316-2.239l15.186,2.942c1.533,0.297,2.536,1.781,2.24,3.316
			C951.728,322.835,951.4,323.38,950.948,323.779z"/>
		<path style="fill:#574730;" d="M831.268,379.199c-0.984,0.87-2.475,0.96-3.568,0.142c-3.642-2.726-10.131-8.822-12.669-19.001
			c-2.235-8.971-0.174-16.588,1.253-20.33c0.558-1.459,2.193-2.192,3.652-1.635c1.46,0.557,2.192,2.191,1.635,3.652
			c-1.19,3.122-2.91,9.474-1.049,16.945c2.113,8.478,7.529,13.563,10.57,15.84c1.25,0.937,1.506,2.709,0.568,3.96
			C831.542,378.931,831.41,379.073,831.268,379.199z"/>
		<path style="fill:#574730;" d="M886.865,463.476c-0.39,0.345-0.88,0.586-1.432,0.673c-1.544,0.243-2.992-0.812-3.234-2.355
			c-0.497-3.167-0.546-6.361-0.143-9.494c1.083-8.428,5.161-14.65,8.391-18.384c1.026-1.182,2.808-1.312,3.99-0.29
			c1.182,1.022,1.312,2.809,0.29,3.99c-2.721,3.147-6.154,8.375-7.058,15.405c-0.335,2.602-0.294,5.257,0.12,7.894
			C887.944,461.906,887.564,462.857,886.865,463.476z"/>
		<path style="fill:#574730;" d="M912.981,451.725c-0.272,0.24-0.594,0.432-0.959,0.556c-1.478,0.505-3.087-0.285-3.592-1.763
			l-3.961-11.603c-0.504-1.479,0.285-3.088,1.763-3.592c1.478-0.505,3.087,0.285,3.592,1.763l3.961,11.603
			C914.165,449.803,913.812,450.991,912.981,451.725z"/>
		<path style="fill:#574730;" d="M1009.027,389.504c-0.888,0.785-2.211,0.954-3.293,0.327l-7.741-4.487
			c-1.352-0.783-1.813-2.514-1.028-3.866c0.783-1.354,2.514-1.813,3.866-1.028l7.741,4.487c1.352,0.783,1.813,2.514,1.028,3.866
			C1009.444,389.073,1009.249,389.307,1009.027,389.504z"/>
		<path style="fill:#574730;" d="M1037.258,375.881c-1.042,0.921-2.63,0.955-3.715,0.023c-2.72-2.337-8.501-6.372-16.646-7.136
			c-6.029-0.565-11.029,0.873-14.163,2.178c-1.442,0.601-3.098-0.082-3.699-1.524c-0.601-1.442,0.079-3.1,1.524-3.699
			c5.344-2.226,11.176-3.121,16.866-2.588c9.706,0.91,16.575,5.702,19.806,8.478c1.185,1.018,1.32,2.804,0.302,3.99
			C1037.448,375.703,1037.355,375.796,1037.258,375.881z"/>
		<circle style="fill:#D04123;" cx="907.888" cy="391.465" r="9.169"/>
		<circle style="fill:#D04123;" cx="963.184" cy="360.615" r="9.169"/>
	</g>
	<g>
		<path style="fill:#3A301B;" d="M539.201,171.493c7.092-4.48,22.775-12.92,43.252-11.913c22.077,1.087,49.067,13.122,57.11,35.478
			c4.088,11.362,4.862,29.783-4.597,35.01c-6.14,3.393-14.246-0.07-17.688-1.791c-0.379-2.029-1.961-9.134-8.515-14.527
			c-7.983-6.569-17.225-5.562-18.83-5.361c-0.652-2.137-3.163-9.429-10.698-14.448c-6.426-4.28-12.861-4.479-15.265-4.434
			c-0.949-2.526-2.906-6.662-6.882-10.422C550.131,172.505,541.828,171.655,539.201,171.493z"/>
		<path style="fill:#3A301B;" d="M763.799,305.734c1.093-8.317,2.177-26.094-7.326-44.26c-10.246-19.586-32.491-39.04-56.159-36.965
			c-12.029,1.054-29.076,8.077-29.855,18.856c-0.505,6.997,6.039,12.903,9.044,15.306c2.001-0.507,9.115-2.051,16.759,1.637
			c9.312,4.492,12.274,13.304,12.764,14.846c2.213-0.305,9.886-1.083,17.602,3.652c6.581,4.038,9.46,9.796,10.427,11.997
			c2.691-0.197,7.267-0.156,12.347,1.876C758.296,296.236,762.55,303.417,763.799,305.734z"/>
		<path style="fill:#3A301B;" d="M685.522,99.329c29.466-1.797,55.183,15.757,67.252,39.133
			c13.791,26.713,10.422,62.312-11.551,82.921c-21.601,20.26-51.26,16.728-57.331,16.005c-6.577-0.783-25.349-3.288-41.497-18.393
			c-16.284-15.232-26.743-40.326-20.911-65.974C628.257,123.235,655.076,101.185,685.522,99.329z"/>
		<path style="fill:#3A301B;" d="M669.763,31.774c-0.683,7.298-0.78,16.963,1.37,27.994c3.788,19.434,12.656,33.366,18.445,41.023
			c-21.535,16.302-43.07,32.603-64.605,48.905c-19.197-25.868-21.519-59.564-6.137-84.712
			C635.292,38.079,664.893,32.596,669.763,31.774z"/>
		<path style="fill:#3A301B;" d="M821.849,118.593c-5.905,4.342-14.143,9.4-24.706,13.233c-18.612,6.754-35.121,6.322-44.666,5.299
			c-2.893,26.854-5.786,53.708-8.68,80.561c32.059,3.146,62.144-12.206,75.79-38.338
			C834.185,151.393,823.651,123.192,821.849,118.593z"/>
		<path style="fill:#3A301B;" d="M633.651,275.204c-2.988-1.51-11.472-5.795-16.464-14.876c-8.939-16.257,0.673-34.495,1.554-36.107
			c4.695-2.994,10.322-7.444,15.34-13.951c1.393-1.806,2.6-3.59,3.649-5.313c0.029-0.059,0.189-0.368,0.566-0.495
			c0.238-0.081,0.508-0.07,0.751,0.05l47.516,23.503c0.487,0.241,0.686,0.83,0.446,1.317c-1.176,8.365-2.352,16.731-3.528,25.096
			c-0.409,1.047-9.242,22.686-28.57,25.225C645.026,280.951,636.615,276.701,633.651,275.204z"/>
		<circle style="fill:#EAE2C2;" cx="654.991" cy="163.379" r="15.631"/>
		<circle style="fill:#EAE2C2;" cx="715.792" cy="201.333" r="15.631"/>
		<path style="fill:#574730;" d="M664.282,232.512c-8.496-3.062-19.823-8.811-28.683-20.535
			c-6.117-8.095-10.117-17.904-11.568-28.367c-0.245-1.769,0.99-3.402,2.76-3.647c1.766-0.244,3.402,0.99,3.647,2.76
			c1.299,9.371,4.868,18.138,10.321,25.355c11.16,14.764,27.067,19.012,33.866,20.826c11.182,2.985,23.258,3.161,34.923,0.511
			c1.743-0.394,3.474,0.697,3.87,2.438c0.395,1.741-0.696,3.474-2.438,3.87c-12.684,2.88-25.832,2.684-38.023-0.569
			C670.79,234.576,667.774,233.771,664.282,232.512z"/>
		<path style="fill:#574730;" d="M660.632,268.538c-0.694-0.25-1.306-0.738-1.704-1.428c-0.891-1.548-0.359-3.524,1.189-4.417
			c3.687-2.123,8.832-6.053,12.4-12.715c2.159-4.032,3.448-8.607,3.725-13.231c0.106-1.782,1.639-3.141,3.422-3.033
			c1.786,0.108,3.141,1.639,3.034,3.422c-0.333,5.55-1.882,11.047-4.48,15.895c-4.289,8.009-10.456,12.724-14.873,15.268
			C662.486,268.792,661.497,268.849,660.632,268.538z"/>
		<path style="fill:#574730;" d="M621.776,239.639c-1.352-0.487-2.259-1.84-2.121-3.338c0.363-3.953,1.641-9.891,5.675-15.739
			c2.559-3.709,5.814-6.812,9.676-9.221c1.515-0.944,3.508-0.485,4.455,1.033c0.946,1.515,0.483,3.51-1.033,4.455
			c-3.105,1.937-5.721,4.429-7.775,7.406c-3.238,4.694-4.266,9.474-4.558,12.657c-0.163,1.779-1.737,3.088-3.516,2.925
			C622.298,239.792,622.029,239.73,621.776,239.639z"/>
		<path style="fill:#574730;" d="M723.645,130.256c-0.643-0.232-1.217-0.667-1.616-1.284c-2.492-3.849-8.133-10.768-17.993-13.807
			c-6.628-2.049-12.593-1.514-16.43-0.703c-1.748,0.373-3.463-0.747-3.832-2.495c-0.37-1.747,0.748-3.463,2.495-3.832
			c4.586-0.969,11.723-1.609,19.677,0.851c11.779,3.656,18.544,11.886,21.511,16.472c0.97,1.499,0.542,3.501-0.957,4.472
			C725.619,130.5,724.562,130.586,723.645,130.256z"/>
		<path style="fill:#574730;" d="M746.233,169.334c-0.912-0.329-1.667-1.062-1.986-2.057l-5.39-16.838
			c-0.544-1.7,0.393-3.521,2.094-4.066c1.7-0.544,3.521,0.392,4.066,2.094l5.39,16.838c0.544,1.7-0.393,3.521-2.094,4.066
			C747.607,169.597,746.88,169.568,746.233,169.334z"/>
		<path style="fill:#574730;" d="M624.954,79.794c-1.412-0.509-2.322-1.953-2.102-3.499c0.733-5.148,3.28-15.001,12.09-23.134
			c7.766-7.167,16.533-9.283,21.067-9.908c1.769-0.242,3.401,0.994,3.645,2.763c0.244,1.77-0.993,3.401-2.763,3.645
			c-3.783,0.521-11.095,2.286-17.563,8.254c-7.338,6.774-9.462,14.995-10.074,19.294c-0.252,1.768-1.889,2.997-3.658,2.745
			C625.373,79.921,625.158,79.867,624.954,79.794z"/>
		<path style="fill:#574730;" d="M571.001,181.808c-0.56-0.202-1.07-0.56-1.461-1.066c-1.091-1.415-0.829-3.445,0.585-4.536
			c2.901-2.238,6.077-4.04,9.439-5.357c9.043-3.542,17.52-2.872,23.037-1.685c1.748,0.379,2.857,2.095,2.482,3.841
			c-0.375,1.747-2.095,2.858-3.841,2.482c-4.649-1-11.775-1.57-19.319,1.384c-2.792,1.093-5.431,2.592-7.847,4.455
			C573.168,182.028,572.005,182.17,571.001,181.808z"/>
		<path style="fill:#574730;" d="M597.123,201.536c-0.39-0.141-0.759-0.359-1.084-0.656c-1.318-1.205-1.41-3.251-0.205-4.569
			l9.456-10.342c1.206-1.318,3.252-1.411,4.569-0.205c1.318,1.205,1.41,3.251,0.205,4.569l-9.456,10.342
			C599.7,201.667,598.315,201.965,597.123,201.536z"/>
		<path style="fill:#574730;" d="M712.241,263.648c-1.275-0.459-2.17-1.693-2.136-3.122l0.247-10.224
			c0.042-1.785,1.525-3.198,3.311-3.154c1.788,0.041,3.198,1.525,3.154,3.311l-0.247,10.224c-0.042,1.785-1.525,3.198-3.311,3.154
			C712.901,263.829,712.559,263.763,712.241,263.648z"/>
		<path style="fill:#574730;" d="M741.4,284.468c-1.495-0.539-2.402-2.112-2.063-3.711c0.849-4.01,1.719-12.02-1.988-20.605
			c-2.745-6.354-6.932-10.577-9.961-13.002c-1.394-1.116-1.619-3.151-0.504-4.546c1.116-1.394,3.151-1.623,4.546-0.504
			c5.166,4.134,9.266,9.489,11.856,15.486c4.418,10.23,3.386,19.747,2.378,24.51c-0.37,1.747-2.086,2.864-3.834,2.493
			C741.682,284.56,741.538,284.518,741.4,284.468z"/>
		<circle style="fill:#D04123;" cx="654.733" cy="163.338" r="10.48"/>
		<circle style="fill:#D04123;" cx="716.025" cy="201.828" r="10.48"/>
	</g>
	<path style="fill:#E59F22;" d="M166.424,439.253c-0.061,0-0.121-0.001-0.182-0.003c-21.093-0.638-35.498-6.441-42.812-17.249
		c-5.454-8.058-5.314-16.429-5.202-23.156c0.113-6.792,0.013-11.145-3.32-14.889c-3.897-4.378-9.523-4.847-16.038-5.39
		c-7.499-0.626-15.999-1.335-21.122-9.255c-4.933-7.628-2.314-15.602-0.21-22.009c1.909-5.812,3.558-10.832,1.169-15.967
		c-1.922-4.132-5.045-5.657-11.364-8.449c-5.284-2.334-11.86-5.239-18.582-11.304c-10.685-9.641-17.575-23.533-20.478-41.29
		c-0.527-3.223,1.658-6.262,4.881-6.789c3.219-0.529,6.263,1.658,6.789,4.881c2.46,15.041,8.089,26.621,16.73,34.418
		c5.313,4.795,10.461,7.068,15.439,9.267c6.6,2.915,13.424,5.93,17.307,14.278c4.36,9.373,1.578,17.841-0.657,24.645
		c-1.891,5.756-2.874,9.147-1.095,11.897c1.875,2.899,5.655,3.349,12.176,3.892c7.507,0.626,16.849,1.406,23.888,9.312
		c6.57,7.38,6.432,15.651,6.31,22.948c-0.102,6.1-0.189,11.367,3.171,16.332c5.065,7.483,16.295,11.54,33.378,12.057
		c3.264,0.098,5.829,2.824,5.731,6.088C172.233,436.722,169.606,439.253,166.424,439.253z"/>
	<path style="fill:#E59F22;" d="M69.929,423.547c-0.693,0-1.398-0.123-2.085-0.382c-3.055-1.152-4.599-4.563-3.447-7.618
		c4.524-12.001,5.295-20.894,2.115-24.399c-2.827-3.116-9.812-2.863-15.977-2.641c-7.81,0.282-16.668,0.601-20.629-6.454
		c-3.614-6.435,0.257-12.882,3.672-18.57c3.063-5.101,6.23-10.375,5.32-15.786c-0.975-5.803-6.433-11.276-16.22-16.267
		c-2.909-1.483-4.065-5.044-2.582-7.953c1.483-2.91,5.043-4.066,7.953-2.582c13.307,6.784,20.881,15.142,22.511,24.841
		c1.633,9.716-3.267,17.876-6.844,23.834c-1.286,2.141-3.182,5.3-3.399,6.67c1.567,0.747,6.674,0.563,9.792,0.45
		c8.302-0.298,18.641-0.673,25.16,6.513c6.635,7.313,6.699,19.258,0.192,36.516C74.57,422.088,72.32,423.547,69.929,423.547z"/>
	<path style="fill:#E59F22;" d="M387.847,263.745c-0.313,0-0.631-0.025-0.95-0.077c-20.756-3.351-31.445-9.236-33.636-18.521
		c-1.696-7.188,2.618-12.835,6.084-17.372c2.877-3.766,4.727-6.398,4.245-8.576c-0.608-2.746-5.067-4.69-9.788-6.747
		c-6.316-2.753-14.177-6.179-16.687-14.197c-2.993-9.56,3.12-21.005,18.69-34.989c2.431-2.181,6.168-1.981,8.35,0.448
		c2.182,2.429,1.982,6.168-0.448,8.35c-16.224,14.571-15.818,21.027-15.307,22.658c0.898,2.867,5.381,4.821,10.127,6.89
		c6.549,2.854,14.7,6.407,16.609,15.032c1.705,7.708-2.785,13.587-6.394,18.31c-2.154,2.82-4.382,5.737-3.971,7.477
		c0.143,0.605,2.03,6.014,24.011,9.563c3.224,0.52,5.415,3.556,4.895,6.779C393.208,261.679,390.697,263.745,387.847,263.745z"/>
	<path style="fill:#E59F22;" d="M447.705,302.178c-0.613,0-1.236-0.096-1.85-0.298c-17.689-5.823-28.413-14.324-31.873-25.267
		c-2.22-7.021-0.827-12.804,0.292-17.451c1.07-4.445,1.561-6.893,0.106-9.676c-2.252-4.307-7.672-6.254-12.913-8.137
		c-6.242-2.243-13.318-4.784-14.315-12.301c-0.752-5.67,2.816-9.419,5.421-12.158c2.049-2.153,3.31-3.558,3.406-5.222
		c0.094-1.613-0.891-6.121-12.028-13.13c-2.763-1.739-3.594-5.39-1.855-8.153c1.74-2.763,5.39-3.593,8.153-1.855
		c12.281,7.73,18.017,15.522,17.534,23.824c-0.353,6.075-3.989,9.898-6.645,12.688c-0.692,0.727-1.676,1.761-2.102,2.401
		c1.111,0.868,4.267,2.002,6.428,2.778c6.332,2.275,15.003,5.39,19.393,13.786c3.58,6.846,2.1,12.989,0.911,17.925
		c-0.934,3.881-1.742,7.232-0.514,11.116c2.249,7.112,10.423,13.033,24.296,17.6c3.102,1.021,4.789,4.363,3.767,7.465
		C452.501,300.6,450.189,302.178,447.705,302.178z"/>
	<g>
		<path style="fill:#3A301B;" d="M141.978,374.543c37.511,45.897,91.126,67.065,150.597,64.682c0.06-0.002,0.261-0.011,0.572-0.027
			c-2.194,8.56-3.974,16.007-5.052,20.587c-7.283,30.932-5.146,64.317,21.839,85.72c40.024,31.745,79.335,1.883,121.943-0.039
			c9.245-0.417,16.461,1.161,30.873,3.367c2.29,0.35,9.536,1.502,16.435,4.623c2.787,1.261,5.913,2.956,5.913,2.956
			c2.372,1.207,4.862,2.666,7.391,4.434c9.741,6.814,15.696,15.189,19.216,21.433c2.285,24.145,5.896,51.612,11.086,51.734
			c3.849,0.091,7.517-14.883,8.869-23.65c6.462-41.923-15.982-98.054-63.094-124.727c-10.21-5.78-28.744-14.234-55.261-15.57
			c19.328-23.69,35.614-50.983,38.099-81.095c4.284-51.913-29.955-89.705-77.061-105.048c-5.955-1.939-24.269-7.517-41.374-12.548
			c-19.155-5.634-29.92-25.926-23.853-44.948c3.132-9.82,6.083-19.086,7.362-23.956c21.557-82.061,20.52-179.528-85.009-199.551
			C28.483-35.592,66.351,282.008,141.978,374.543z M311.263,384.048c0.454-0.938,1.048-1.843,1.803-2.709
			C312.48,382.068,311.878,382.978,311.263,384.048z"/>
		<g>
			
				<ellipse transform="matrix(0.0334 -0.9994 0.9994 0.0334 78.8689 315.1621)" style="fill:#EAE2C2;" cx="202.37" cy="116.807" rx="89.806" ry="96.768"/>
			<circle style="fill:#EAE2C2;" cx="269.333" cy="186.959" r="26.803"/>
			
				<ellipse transform="matrix(0.0334 -0.9994 0.9994 0.0334 -56.6021 317.6193)" style="fill:#EAE2C2;" cx="135.905" cy="188.072" rx="24.018" ry="25.758"/>
			<path style="fill:#EAE2C2;" d="M233.078,240.135c3.633,0.121,6.704-2.695,6.883-6.339l2.184-44.507
				c0.18-3.679-2.656-6.808-6.335-6.989c-3.655-0.169-6.808,2.656-6.989,6.335l-2.184,44.506c-0.18,3.679,2.656,6.808,6.335,6.989
				C233.007,240.132,233.043,240.134,233.078,240.135z"/>
			<path style="fill:#EAE2C2;" d="M213.041,235.286c3.622,0.121,6.689-2.68,6.881-6.315l1.904-36.157
				c0.194-3.678-2.631-6.817-6.309-7.011c-0.044-0.002-0.087-0.004-0.131-0.006c-3.622-0.121-6.689,2.68-6.881,6.315l-1.904,36.157
				c-0.194,3.678,2.631,6.817,6.309,7.011C212.954,235.283,212.997,235.285,213.041,235.286z"/>
			<path style="fill:#EAE2C2;" d="M189.291,237.279c3.625,0.121,6.693-2.685,6.881-6.322l1.974-38.245
				c0.19-3.679-2.638-6.815-6.317-7.005c-0.041-0.002-0.083-0.004-0.124-0.005c-3.625-0.121-6.693,2.685-6.881,6.322l-1.974,38.245
				c-0.19,3.679,2.638,6.815,6.317,7.005C189.209,237.276,189.25,237.277,189.291,237.279z"/>
			<path style="fill:#EAE2C2;" d="M166.332,236.511c3.569,0.119,6.621-2.609,6.872-6.201l2.671-38.222
				c0.257-3.675-2.514-6.862-6.189-7.118c-3.69-0.263-6.861,2.514-7.118,6.189l-2.671,38.221c-0.257,3.675,2.514,6.862,6.189,7.118
				C166.167,236.505,166.25,236.509,166.332,236.511z"/>
			<path style="fill:#3A301B;" d="M188.681,172.074c0.146,0.767,1.293,6.244,5.334,7.144c2.656,0.592,5.733-0.978,7.793-3.919
				c1.917,3.177,4.939,4.953,7.514,4.43c3.618-0.734,4.833-5.693,5.103-6.795c2.45-9.996-9.717-20.12-11.131-21.269
				C193.436,157.557,187.413,165.432,188.681,172.074z"/>
			
				<ellipse transform="matrix(0.0334 -0.9994 0.9994 0.0334 110.1789 372.1063)" style="fill:#D04123;" cx="247.464" cy="129.092" rx="30.961" ry="32.681"/>
			
				<ellipse transform="matrix(0.0334 -0.9994 0.9994 0.0334 108.4883 372.4495)" style="fill:#3A301B;" cx="246.797" cy="130.137" rx="20.515" ry="21.469"/>
			
				<ellipse transform="matrix(0.0334 -0.9994 0.9994 0.0334 26.4191 279.5011)" style="fill:#D04123;" cx="157.709" cy="126.092" rx="30.961" ry="32.681"/>
			
				<ellipse transform="matrix(0.0334 -0.9994 0.9994 0.0334 24.7285 279.8443)" style="fill:#3A301B;" cx="157.041" cy="127.138" rx="20.515" ry="21.469"/>
			<path style="fill:#FFFFFF;" d="M251.99,70.169c1.439,0.048,2.893-0.483,3.982-1.59c2.067-2.1,2.04-5.478-0.06-7.546
				c-6.289-6.191-19.815-17.123-39.744-20.791c-25.135-4.627-45.241,5.07-52.718,9.454c-2.542,1.491-3.395,4.76-1.905,7.302
				c1.49,2.542,4.759,3.396,7.302,1.904c6.447-3.78,23.777-12.142,45.389-8.164c17.127,3.152,28.772,12.568,34.19,17.901
				C249.42,69.616,250.699,70.126,251.99,70.169z"/>
			<path style="fill:#FFFFFF;" d="M127.62,185.822c2.091,0.07,4.116-1.101,5.037-3.124c0.332-0.728,1.12-2.072,2.677-2.888
				c2.407-1.26,4.984-0.274,5.271-0.157c2.731,1.115,5.843-0.195,6.957-2.923c1.114-2.728-0.196-5.843-2.924-6.957
				c-1.733-0.708-7.883-2.757-14.257,0.584c-4.378,2.294-6.538,5.946-7.436,7.919c-1.221,2.682-0.036,5.846,2.646,7.067
				C126.249,185.644,126.938,185.799,127.62,185.822z"/>
			<path style="fill:#FFFFFF;" d="M281.429,189.568c0.246,0.008,0.495,0,0.747-0.027c2.931-0.311,5.054-2.938,4.744-5.868
				c-0.301-2.836-1.196-5.483-2.662-7.868c-3.126-5.086-7.811-7.252-10.327-8.09c-2.791-0.933-5.816,0.58-6.748,3.375
				c-0.932,2.796,0.58,5.817,3.376,6.749c1.138,0.38,3.251,1.346,4.607,3.553c0.627,1.019,1.011,2.165,1.142,3.405
				C276.592,187.476,278.812,189.481,281.429,189.568z"/>
		</g>
		<path style="fill:#574730;" d="M417.84,397.684c-0.791,0-1.594-0.098-2.396-0.304c-5.139-1.319-8.236-6.555-6.917-11.695
			c1.557-6.067,2.667-15.396-0.894-25.387c-7.538-21.148-30.095-27.768-32.642-28.454c-5.124-1.379-8.16-6.65-6.782-11.774
			c1.379-5.124,6.648-8.16,11.774-6.782c5.78,1.555,35.149,10.818,45.75,40.558c5.192,14.566,3.631,27.952,1.406,36.617
			C426.026,394.801,422.121,397.684,417.84,397.684z"/>
		<path style="fill:#574730;" d="M345.607,317.397c-1.322,0-2.665-0.274-3.947-0.853l-13.886-6.267
			c-4.837-2.183-6.988-7.873-4.806-12.71c2.182-4.837,7.874-6.987,12.71-4.806l13.888,6.269c4.837,2.183,6.987,7.873,4.804,12.71
			C352.765,315.293,349.267,317.397,345.607,317.397z"/>
		<path style="fill:#574730;" d="M321.861,527.247c-2.25,0-4.51-0.786-6.334-2.387c-5.716-5.018-19.078-19.029-19.689-40.714
			c-0.27-9.585,2.096-19.232,6.843-27.897c2.549-4.653,8.388-6.359,13.042-3.81c4.654,2.55,6.36,8.389,3.81,13.043
			c-2.168,3.958-4.707,10.316-4.487,18.123c0.409,14.524,10.173,24.196,13.156,26.814c3.988,3.5,4.383,9.571,0.883,13.559
			C327.187,526.141,324.531,527.247,321.861,527.247z"/>
		<path style="fill:#EBE2C3;" d="M399.873,515.88c-0.244,0-0.491-0.025-0.74-0.075c-30.933-6.285-48.22-16.609-52.848-31.563
			c-4.375-14.135,4.375-26.837,13.638-40.285c9.556-13.873,20.388-29.597,18.767-49.638c-1.37-16.939-11.484-34.831-25.767-45.582
			c-18.697-14.073-39.506-11.857-61.538-9.51c-21.48,2.287-43.693,4.655-63.458-9.4c-15.04-10.695-25.164-28.705-30.089-53.533
			c-0.397-2.002,0.903-3.946,2.906-4.344c2-0.394,3.946,0.904,4.344,2.906c4.547,22.915,13.672,39.383,27.123,48.948
			c17.484,12.433,37.356,10.316,58.392,8.074c22.487-2.396,45.74-4.872,66.765,10.955c15.895,11.964,27.155,31.94,28.688,50.891
			c1.833,22.663-9.791,39.538-20.047,54.426c-8.574,12.448-15.979,23.197-12.664,33.906c3.704,11.97,19.604,20.887,47.259,26.505
			c2,0.407,3.292,2.357,2.886,4.357C403.135,514.671,401.594,515.88,399.873,515.88z"/>
		<path style="fill:#EBE2C3;" d="M188.195,300.272c-0.249,0-0.5-0.025-0.753-0.077l-42.595-8.818
			c-1.999-0.413-3.283-2.369-2.87-4.367c0.414-1.999,2.376-3.279,4.368-2.87l42.595,8.818c1.999,0.414,3.283,2.37,2.87,4.368
			C191.448,299.071,189.91,300.272,188.195,300.272z"/>
		<path style="fill:#EBE2C3;" d="M165.607,334.274c-1.637,0-3.133-1.096-3.57-2.753c-0.521-1.973,0.656-3.996,2.63-4.516
			l29.842-7.877c1.979-0.523,3.996,0.656,4.516,2.63c0.521,1.973-0.656,3.996-2.63,4.516l-29.842,7.877
			C166.237,334.234,165.919,334.274,165.607,334.274z"/>
		<path style="fill:#EBE2C3;" d="M188.827,369.804c-1.074,0-2.138-0.465-2.868-1.363c-1.289-1.583-1.05-3.91,0.534-5.198
			l23.565-19.178c1.583-1.289,3.91-1.049,5.198,0.534c1.289,1.583,1.05,3.91-0.534,5.198l-23.565,19.178
			C190.472,369.533,189.647,369.804,188.827,369.804z"/>
		<path style="fill:#EBE2C3;" d="M225.695,284.518c-1.162,0-2.306-0.546-3.025-1.569c-1.175-1.669-0.774-3.974,0.895-5.149
			l37.107-26.12c1.671-1.175,3.974-0.774,5.149,0.895c1.175,1.669,0.774,3.974-0.895,5.149l-37.107,26.12
			C227.172,284.299,226.429,284.518,225.695,284.518z"/>
		<path style="fill:#EBE2C3;" d="M235.295,307.024c-1.336,0-2.626-0.727-3.283-1.995c-0.94-1.812-0.232-4.042,1.579-4.981
			l54.934-28.483c1.81-0.94,4.043-0.232,4.981,1.579c0.94,1.812,0.232,4.042-1.579,4.981l-54.934,28.483
			C236.449,306.89,235.867,307.024,235.295,307.024z"/>
		<path style="fill:#EBE2C3;" d="M277.102,317.294c-1.278,0-2.521-0.664-3.205-1.851c-1.019-1.768-0.411-4.028,1.357-5.047
			l27.898-16.075c1.768-1.02,4.027-0.412,5.047,1.357c1.019,1.768,0.412,4.027-1.357,5.047L278.943,316.8
			C278.362,317.135,277.728,317.294,277.102,317.294z"/>
		<path style="fill:#EBE2C3;" d="M220.241,381.206c-0.908,0-1.818-0.333-2.532-1.005c-1.486-1.398-1.557-3.737-0.158-5.223
			l16.867-17.923c1.399-1.488,3.737-1.557,5.223-0.158c1.486,1.398,1.557,3.737,0.158,5.223l-16.867,17.923
			C222.205,380.816,221.224,381.206,220.241,381.206z"/>
	</g>
	<g>
		<path style="fill:#D04123;" d="M412.422,720.619c-0.791-2.305,0.365-4.824,2.63-5.735c1.631-1.066,3.736-1.085,5.386-0.049
			c15.42,8.545,29.601,19.145,42.149,31.508c-5.939-29.759-8.357-60.11-7.205-90.431c0.163-4.205,5.98-7.838,9.264-3.926
			c20.462,25.082,35.385,54.185,43.793,85.41c10.316-32.151,22.757-63.597,44.97-89.703c2.13-2.133,5.592-2.141,7.731-0.017
			c0.652,0.647,1.129,1.447,1.388,2.327c5.748,30.636-1.75,59.905-12.626,88.2c13.29-11.059,28.772-19.198,45.433-23.886
			c2.955-0.719,5.935,1.087,6.655,4.032c0.327,1.338,0.138,2.75-0.53,3.956c-10.848,22.543-22.833,46.464-43.674,61.597
			c-19.018,13.749-43.146,18.033-66.204,15.872c-21.039-1.959-37.543-8.886-51.19-25.352
			c-12.688-15.288-20.826-33.775-27.553-52.296C412.616,721.649,412.475,721.14,412.422,720.619z"/>
		<path style="fill:#DB6653;" d="M544.228,724.271c-0.381,0-0.767-0.041-1.154-0.128c-2.836-0.634-4.621-3.448-3.987-6.284
			c1.895-8.47,3.62-17.094,5.127-25.634c1.071-6.065,2.056-12.226,2.93-18.308c0.413-2.877,3.078-4.872,5.957-4.461
			c2.877,0.413,4.874,3.079,4.461,5.956c-0.889,6.194-1.892,12.466-2.983,18.643c-1.535,8.696-3.292,17.478-5.22,26.102
			C548.811,722.605,546.637,724.271,544.228,724.271z"/>
		<path style="fill:#DB6653;" d="M484.363,708.012c-1.878,0-3.694-1.008-4.643-2.779l-11.086-20.693
			c-1.373-2.562-0.409-5.752,2.153-7.125c2.561-1.373,5.751-0.408,7.124,2.153l11.087,20.695c1.372,2.561,0.408,5.751-2.154,7.124
			C486.053,707.811,485.202,708.012,484.363,708.012z"/>
		<path style="fill:#DB6653;" d="M564.918,744.226c-2.108,0-4.097-1.274-4.906-3.357c-1.054-2.708,0.288-5.758,2.997-6.812
			l13.304-5.174c2.709-1.052,5.759,0.288,6.812,2.998c1.054,2.708-0.288,5.758-2.997,6.812l-13.304,5.174
			C566.197,744.11,565.552,744.226,564.918,744.226z"/>
	</g>
	<path style="fill:#CF4427;" d="M820.264,288.134c-1.883,0-3.759-0.752-5.142-2.24l-29.562-31.779
		c-2.641-2.839-2.48-7.282,0.359-9.923c2.839-2.641,7.282-2.48,9.923,0.359l29.562,31.78c2.641,2.839,2.48,7.282-0.359,9.923
		C823.693,287.511,821.976,288.134,820.264,288.134z"/>
	<path style="fill:#CF4427;" d="M806.215,233.443c-3.749,0-6.859-2.962-7.011-6.741c-0.155-3.875,2.861-7.141,6.735-7.296
		l36.953-1.478c3.856-0.158,7.141,2.86,7.296,6.735c0.155,3.874-2.86,7.141-6.735,7.296l-36.953,1.478
		C806.406,233.441,806.31,233.443,806.215,233.443z"/>
	<path style="fill:#CF4427;" d="M563.815,119.628c-2.386,0-4.711-1.216-6.027-3.41L533.399,75.57
		c-1.995-3.325-0.917-7.638,2.408-9.633c3.327-1.996,7.638-0.916,9.633,2.408l24.389,40.648c1.995,3.325,0.917,7.638-2.408,9.633
		C566.289,119.305,565.044,119.628,563.815,119.628z"/>
	<path style="fill:#CF4427;" d="M530.545,129.975c-1.056,0-2.126-0.239-3.134-0.743l-28.085-14.043
		c-3.468-1.734-4.874-5.952-3.14-9.42c1.734-3.469,5.951-4.875,9.42-3.14l28.084,14.042c3.468,1.734,4.874,5.952,3.141,9.42
		C535.6,128.553,533.12,129.975,530.545,129.975z"/>
	<path style="fill:#CF4427;" d="M1021.48,332.405c-1.928,0-3.797-0.795-5.14-2.239c-1.698-1.825-2.301-4.412-1.585-6.799
		l12.165-40.568c1.113-3.715,5.028-5.826,8.741-4.709c3.714,1.113,5.823,5.027,4.709,8.741l-8.724,29.094l38.083-8.482
		c3.787-0.847,7.537,1.542,8.38,5.327c0.843,3.785-1.542,7.536-5.327,8.379l-49.775,11.087
		C1022.5,332.35,1021.988,332.405,1021.48,332.405z"/>
</g>
</svg>
