<svg xmlns="http://www.w3.org/2000/svg" viewBox="0 0 499.96 328.01"><title>car_rental + Logged out</title><g id="Layer_2" data-name="Layer 2"><g id="Layer_1-2" data-name="Layer 1"><path d="M95.8,179.37c-5.78-4-14.06-2.77-17.81,3.39-3.48,5.72-2.13,13.62,3.74,17.13a11.94,11.94,0,0,0,15.75-2.74c0-.06.07-.12.11-.18a2.77,2.77,0,0,0,.28-.33C101.74,191,101.85,183.5,95.8,179.37Z" style="fill:#3b301b;"/><path d="M324.7,97a24.26,24.26,0,0,0-11-13.1,36.5,36.5,0,0,1,9.12-5.45c1.86-.77,2.65-3.42.6-4.57a27.78,27.78,0,0,0-17-3.45,80.56,80.56,0,0,1,8.27-8.75,2.52,2.52,0,0,0-1.1-4.18,32.25,32.25,0,0,0-22.38,3.57,31.76,31.76,0,0,1,5.24-8.67c1.32-1.55.55-4.34-1.77-4.27A24.94,24.94,0,0,0,272.87,62c-1.35,2.7,2.37,5.09,4,3l33.42,31c-1.43,1.56-.09,4.8,2.51,4.13a16.65,16.65,0,0,1,8.79,0C323.34,100.53,325.38,98.86,324.7,97Z" style="fill:#cf4327;"/><path d="M91.72,184.87a5.57,5.57,0,0,0-8.24,2.1,5.41,5.41,0,0,0,2.36,7.24,5.61,5.61,0,0,0,6.75-1.08,1.29,1.29,0,0,0,.33-.36,1.21,1.21,0,0,0,.19-.39C94.42,189.92,94.17,186.55,91.72,184.87Z" style="fill:#cf4327;"/><path d="M352,233.16l-18-82.78a2.51,2.51,0,0,0-1.75-1.75l-99.86-31.91-14.42-4.61a2.5,2.5,0,0,0-2.43.64l-58.16,56.08a2.53,2.53,0,0,0,1.1,4.18l66.2,21.15,100.6,32.15,14.2,4.54a27.2,27.2,0,0,1,2.92.93c.35.16-.49-.25.62.51,1.56,1.06,3.11,2.15,4.66,3.24a2,2,0,0,0,1,.67,2.13,2.13,0,0,0,2.82-.95A2.41,2.41,0,0,0,352,233.16Z" style="fill:#3b301b;"/><path d="M299.28,216.31l-18-82.78a2.51,2.51,0,0,0-1.75-1.75L179.66,99.87l-14.42-4.61a2.5,2.5,0,0,0-2.43.64l-57.92,55.85-.16.15-.08.08a2.23,2.23,0,0,0-.42,2.84,2.39,2.39,0,0,0,1.53,1.34l102.52,32.76,51.26,16.38,24.68,7.89a39.2,39.2,0,0,1,11.4,5.94C297.52,220.47,299.71,218.28,299.28,216.31Z" style="fill:#3b301b;"/><path d="M294.49,232.43c1.4-6.28.9-13.92-4.44-18.21-2.83-2.27-6.45-3.36-9.85-4.48l-16.35-5.4q-32.42-10.67-64.93-21c-43.66-13.95-87.41-27.63-131.1-41.49l-17.91-5.69c-3.12-1-8.21-4.12-11.33-2s-3.85,9.09-5,12.65l-5.85,18.31a2.54,2.54,0,0,0,1.75,3.08c74.13,23.69,147.93,48.39,222.31,71.28,5.35,1.65,10.72,3.26,16.07,4.91,3.62,1.12,7.29,2.85,11.16,2.37,7.16-.89,12.73-6.67,15.12-13.19a2.67,2.67,0,0,0,.21-.57A2.71,2.71,0,0,0,294.49,232.43Z" style="fill:#e5a024;"/><path d="M332.66,145.92,164.08,92.06c-6.14-2-8.77,7.69-2.66,9.64L330,155.57C336.14,157.53,338.78,147.88,332.66,145.92Z" style="fill:#cf4327;"/><path d="M308.05,80.63C299.37,64,278.55,58.1,261.81,65.55c-9,4-13.56,11.67-18.93,19.51-6.79,9.92-13.3,20.54-21.14,29.65-8.52,9.9-18.26,18.68-27,28.4-8.94,10-16.52,21.1-25.92,30.66a2.53,2.53,0,0,0,1.1,4.18l85.18,30.52,12.18,4.36a2.47,2.47,0,0,0,.85.14,2,2,0,0,0,2-1.29L300.62,142C308.91,123.1,318.55,100.72,308.05,80.63Z" style="fill:#e5a024;"/><path d="M355.15,251.68c1.41-6.3,1-14-4.41-18.32-2.83-2.28-6.45-3.37-9.85-4.49l-16.35-5.4q-32.42-10.67-64.93-21C216,188.5,172.21,174.83,128.52,161l-17.91-5.69c-3.12-1-8.21-4.12-11.34-2s-3.87,9.16-5,12.74l-5.9,18.46a2.54,2.54,0,0,0,1.75,3.08C164.23,211.25,238,236,312.42,258.85c5.35,1.65,10.72,3.25,16.08,4.91,3.61,1.12,7.3,2.85,11.17,2.36,7.19-.91,12.76-6.76,15.16-13.31a4.43,4.43,0,0,0,.34-1.14Z" style="fill:#cf4327;"/><path d="M165.41,177.82l54-60.42c4.28-4.78-2.77-11.88-7.07-7.07l-54,60.42c-4.28,4.78,2.77,11.88,7.07,7.07Z" style="fill:#cf4327;"/><path d="M290,222l23.34-73c2-6.14-7.69-8.77-9.64-2.66l-23.34,73c-2,6.14,7.69,8.77,9.64,2.66Z" style="fill:#cf4327;"/><path d="M156.44,198.75c-5.78-4-14.06-2.77-17.81,3.39-3.48,5.72-2.13,13.62,3.74,17.13a11.94,11.94,0,0,0,15.75-2.74c0-.06.07-.12.11-.18a2.77,2.77,0,0,0,.28-.33C162.38,210.41,162.49,202.88,156.44,198.75Z" style="fill:#3b301b;"/><path d="M272.61,235.87c-5.78-4-14.06-2.77-17.81,3.39-3.48,5.72-2.13,13.62,3.74,17.13a11.94,11.94,0,0,0,15.75-2.74c0-.06.07-.12.11-.18a2.77,2.77,0,0,0,.28-.33C278.55,247.53,278.66,240,272.61,235.87Z" style="fill:#3b301b;"/><path d="M152.37,204.25a5.57,5.57,0,0,0-8.24,2.1,5.41,5.41,0,0,0,2.36,7.24,5.61,5.61,0,0,0,6.75-1.08,1.29,1.29,0,0,0,.33-.36,1.21,1.21,0,0,0,.19-.39C155.06,209.3,154.81,205.93,152.37,204.25Z" style="fill:#cf4327;"/><path d="M268.53,241.37a5.57,5.57,0,0,0-8.24,2.1,5.41,5.41,0,0,0,2.36,7.24,5.61,5.61,0,0,0,6.75-1.08,1.29,1.29,0,0,0,.33-.36,1.21,1.21,0,0,0,.19-.39C271.23,246.42,271,243.05,268.53,241.37Z" style="fill:#cf4327;"/><path d="M81.49,159.06a8.43,8.43,0,0,0-10,3.86,8.52,8.52,0,0,0,3.13,11.2c3.8,2.18,8.22.32,10.75-2.84a2.73,2.73,0,0,0,.37-.49,2.57,2.57,0,0,0,.31-.59A8.07,8.07,0,0,0,81.49,159.06Z" style="fill:#eae2c2;"/><path d="M46.88,148a8.43,8.43,0,0,0-10,3.86,8.52,8.52,0,0,0,3.13,11.2c3.8,2.18,8.22.32,10.75-2.84a2.73,2.73,0,0,0,.37-.49,2.57,2.57,0,0,0,.31-.59A8.07,8.07,0,0,0,46.88,148Z" style="fill:#eae2c2;"/><path d="M56.27,162.06l8.89,2.84c3.07,1,4.39-3.84,1.33-4.82l-8.89-2.84c-3.07-1-4.39,3.84-1.33,4.82Z" style="fill:#cf4327;"/><path d="M53.57,170.51l8.89,2.84c3.07,1,4.39-3.84,1.33-4.82l-8.89-2.84c-3.07-1-4.39,3.84-1.33,4.82Z" style="fill:#cf4327;"/><path d="M58.78,154.2,67.67,157c3.07,1,4.39-3.84,1.33-4.82l-8.89-2.84c-3.07-1-4.39,3.84-1.33,4.82Z" style="fill:#cf4327;"/><path d="M470.82,70c-5.48-13-20.58-12.18-31.41-6.75-3.26-8.06-11-14-19.95-14.21-8.32-.18-15.76,4.83-19.62,11.9-3.25-4.34-7.55-8.08-13.33-7.19C378.31,55,374.93,63.1,372.8,70.16c-6.45-2.66-12.31,1.24-13.72,8-1.62,7.8,4.44,14,11.87,15.16a17.76,17.76,0,0,0,5.28,0c1.11-.16,2.29-.71,3.39-.82,2.18-.22,3.07.95,4.4,2.26,3,3,5.1,5.33,9.52,6.25,9.25,1.93,17-3.34,23.59-9.16,7.67,14.39,29.1,13.74,35.51-1.86,6.12.3,12.94-.14,17-5.37C472.83,80.5,472.82,74.75,470.82,70Z" style="fill:#eae2c2;"/><path d="M180.3,243.33a14.66,14.66,0,0,0-4.67.09c-2.76.49-3.28,1.11-5.23-1-2.43-2.62-4.35-4.49-8-5.26-7.27-1.52-13.45,2.52-18.72,7.08A16.17,16.17,0,0,0,114.87,246c-4.7-.2-9.83.18-13.16,3.89-3.06,3.42-3.26,8.37-1.66,12.49,4.21,10.82,16.45,10.47,25.42,6.22,5.86,13.54,24.62,14.28,31.93,2.06,2.75,3.45,6.33,6.23,11.07,5.29,6.32-1.25,9.05-7.3,10.78-12.86,5.44,2.13,10.14-1.89,11.16-7.28C191.62,249.29,186.44,244.21,180.3,243.33Z" style="fill:#eae2c2;"/><path d="M104.08,56.46c2.13-2.6,2.36-2.77,5.69-2.09a15.34,15.34,0,0,0,4.74.21c6.09-.68,11.48-5.36,10.85-11.82-.57-5.84-5.66-10.55-11.49-8.24-1.78-5.74-4.66-12.17-11.31-13.18-4.73-.72-8.24,2-11,5.47C84.18,14.31,65,15.05,59.07,28.89,50,24.56,37.62,24.17,33.21,35c-1.63,4-1.53,8.9,1.28,12.37,3.38,4.16,8.76,4.62,13.77,4.41a16.45,16.45,0,0,0,29.3,1.74c5.24,4.54,11.27,8.54,18.53,7.34A12.9,12.9,0,0,0,104.08,56.46Z" style="fill:#eae2c2;"/><path d="M68.92,99c-18,2.09-35.81,8.62-49,21.48C7.31,132.8,0,150.59,2.19,168.29c.39,3.15,5.39,3.19,5,0-2-16.49,4.49-32.77,16.29-44.3,12.16-11.88,28.77-18.09,45.44-20,3.16-.37,3.2-5.37,0-5Z" style="fill:#3b301b;"/><path d="M25.65,97.11A47.26,47.26,0,0,0,.17,124.42c-1.11,3,3.72,4.33,4.82,1.33a42.45,42.45,0,0,1,23.19-24.32c2.94-1.28.4-5.59-2.52-4.32Z" style="fill:#3b301b;"/><path d="M261.18,7.36c-.38-2-2.86-2.17-4.18-1.1L242.55,17.91,233.5,1.22c-1.1-2-3.87-1.3-4.57.6l-9.84,26.58a149.14,149.14,0,0,0-23.35-12.84c-1.92-.84-4.28.55-3.67,2.82l8.39,31.54a109.81,109.81,0,0,0-17.87,4c-1.6.51-2.68,3-1.1,4.18a139.92,139.92,0,0,0,26.42,16.24c2.9,1.36,5.44-3,2.52-4.32a135.76,135.76,0,0,1-21.69-12.69,102.22,102.22,0,0,1,14.86-2.84A2.54,2.54,0,0,0,206,51.35l-7.75-29.14a149.18,149.18,0,0,1,20.79,12.2c1.43,1,3.16-.11,3.67-1.49l9-24.41L239.62,23a2.54,2.54,0,0,0,3.93.51L257,12.63a119.82,119.82,0,0,1,1.35,14.76c.09,3.21,5.09,3.22,5,0A127.47,127.47,0,0,0,261.18,7.36Z" style="fill:#3b301b;"/><path d="M360.63,223.09l65.72,22.58c3,1,4.36-3.78,1.33-4.82L362,218.27c-3-1-4.36,3.78-1.33,4.82Z" style="fill:#eae2c2;"/><path d="M363.77,243.93l65.72,22.58c3,1,4.36-3.78,1.33-4.82L365.09,239.1c-3-1-4.36,3.78-1.33,4.82Z" style="fill:#eae2c2;"/><path d="M360.63,264.13l65.72,22.58c3,1,4.36-3.78,1.33-4.82L362,259.31c-3-1-4.36,3.78-1.33,4.82Z" style="fill:#eae2c2;"/><path d="M281.93,75.72c-6.6-4.51-16.47-2.07-20.84,4.48-5.26,7.88-1.8,16.92,5.65,21.64a2.59,2.59,0,0,0,.55.35,2.67,2.67,0,0,0,.61.26c6.79,2.91,15,1.2,19.29-5.21C291.89,90.17,288.63,80.3,281.93,75.72Z" style="fill:#eae2c2;"/><path d="M282.21,84.83a2.74,2.74,0,0,0-.25-.56,2.53,2.53,0,0,0-.39-.58c-3.2-4.62-10.53-5.75-14.53-1.39-3.79,4.13-3.49,11.7,1.44,14.76a10,10,0,0,0,11.21-.9C283.37,93.3,283.92,88.89,282.21,84.83Z" style="fill:#3b301b;"/><path d="M259,71.91a186.59,186.59,0,0,0-5.48-20.76c-2-6.09-11.65-3.48-9.64,2.66,1.52,4.65,2.84,9.35,4,14.09q-7-.45-14-1.25c-6.38-.74-6.33,9.26,0,10q10.11,1.17,20.27,1.59C257.63,78.38,259.63,74.95,259,71.91Z" style="fill:#cf4327;"/><path d="M351.39,112.56a11.31,11.31,0,0,0-4.06.9l0-.06a7.93,7.93,0,0,1,3-2.09,2.58,2.58,0,0,0,1.75-3.08,2.52,2.52,0,0,0-3.08-1.75,14.54,14.54,0,0,0-5.67,3.94l-.67-.21a10.77,10.77,0,0,1,3-3.75,2.52,2.52,0,0,0,0-3.54,2.56,2.56,0,0,0-3.54,0,14.26,14.26,0,0,0-4.83,7.81h0a7.17,7.17,0,0,1-1.32-3.88c-.13-3.21-5.13-3.22-5,0a12.56,12.56,0,0,0,2.84,7.53c-11.06,16.35-31.81,20.52-50.38,20.82-9.64.16-9.67,15.16,0,15,23.76-.38,48.44-6.89,62.59-27.13a6.79,6.79,0,0,1,2.19.58,2.57,2.57,0,0,0,3.42-.9,2.52,2.52,0,0,0-.9-3.42,14.68,14.68,0,0,0-2.25-.82,5.53,5.53,0,0,1,3-1C354.6,117.46,354.62,112.46,351.39,112.56Z" style="fill:#e5a024;"/><path d="M266.89,75.27l11.62-2c3.16-.54,1.82-5.36-1.33-4.82l-11.62,2c-3.16.54-1.82,5.36,1.33,4.82Z" style="fill:#cf4327;"/><path d="M289.87,133.53a2.54,2.54,0,0,0-4.27-1.77,73.12,73.12,0,0,1-13.22,8.88l-1.3-15.69a2.53,2.53,0,0,0-3.76-2.16l-14.78,8.55-.83-14c-.09-1.5-1.54-3-3.16-2.41l-14.94,5.39.2-12.5c.05-3.22-4.95-3.22-5,0q-.13,8-.26,16.07a2.52,2.52,0,0,0,3.16,2.41l15.2-5.48.88,14.67a2.53,2.53,0,0,0,3.76,2.16l14.88-8.61,1.27,15.43a2.54,2.54,0,0,0,3.76,2.16,77.75,77.75,0,0,0,13.78-8.28l1.27,16.45c.25,3.19,5.25,3.21,5,0Z" style="fill:#eae2c2;"/><path d="M280.46,154.38c-.52-1.38-2.24-2.5-3.67-1.49l-13.84,9.71-3.84-15.33a2.52,2.52,0,0,0-3.67-1.49,126.36,126.36,0,0,1-14.62,8.17L235,137a2.54,2.54,0,0,0-3.67-1.49l-11.95,6-1.11-11.28c-.31-3.17-5.31-3.21-5,0l1.49,15.15a2.54,2.54,0,0,0,3.76,2.16l12.64-6.36,5.78,16.91a2.55,2.55,0,0,0,3.67,1.49,126.41,126.41,0,0,0,14.49-7.68L259,167.38a2.52,2.52,0,0,0,3.67,1.49L276.81,159q2.39,6.7,4.33,13.54c.87,3.09,5.7,1.78,4.82-1.33Q283.56,162.66,280.46,154.38Z" style="fill:#eae2c2;"/><path d="M276.24,178.18a2.53,2.53,0,0,0-4.18-1.1,111.1,111.1,0,0,1-12.31,8.87l-8.69-16.09a2.57,2.57,0,0,0-3.42-.9,128.54,128.54,0,0,1-16.26,5.67l-7-17.23c-.46-1.13-1.71-2.3-3.08-1.75l-18.18,7.43-2.4-13.91c-.55-3.16-5.37-1.82-4.82,1.33l2.89,16.72a2.5,2.5,0,0,0,3.08,1.75l18.74-7.66,6.88,17a2.57,2.57,0,0,0,3.08,1.75,136.88,136.88,0,0,0,17.18-5.79l8.89,16.47a2.53,2.53,0,0,0,3.42.9,118.71,118.71,0,0,0,12.32-8.44l1.87,7.06c.82,3.11,5.65,1.79,4.82-1.33Z" style="fill:#eae2c2;"/><path d="M190.36,170.43l1.66-2.34a2.51,2.51,0,0,0-.9-3.42,2.57,2.57,0,0,0-3.42.9L186,167.91a2.51,2.51,0,0,0,.9,3.42,2.57,2.57,0,0,0,3.42-.9Z" style="fill:#eae2c2;"/><path d="M215.7,178.44l1.65-3.34a2.5,2.5,0,1,0-4.32-2.52l-1.65,3.34a2.5,2.5,0,1,0,4.32,2.52Z" style="fill:#eae2c2;"/><path d="M244.35,190.43,246,187.1a2.5,2.5,0,1,0-4.32-2.52L240,187.91a2.5,2.5,0,0,0,4.32,2.52Z" style="fill:#eae2c2;"/><path d="M269.73,198.79l1-2a2.5,2.5,0,1,0-4.32-2.52l-1,2a2.5,2.5,0,1,0,4.32,2.52Z" style="fill:#eae2c2;"/><path d="M262.89,179.35c3.22,0,3.22-5,0-5s-3.22,5,0,5Z" style="fill:#eae2c2;"/><path d="M234.89,168c3.22,0,3.22-5,0-5s-3.22,5,0,5Z" style="fill:#eae2c2;"/><path d="M209.89,155c3.22,0,3.22-5,0-5s-3.22,5,0,5Z" style="fill:#eae2c2;"/><path d="M224.56,133.69c3.22,0,3.22-5,0-5s-3.22,5,0,5Z" style="fill:#eae2c2;"/><path d="M244.23,146.35c3.22,0,3.22-5,0-5s-3.22,5,0,5Z" style="fill:#eae2c2;"/><path d="M266.23,155.35c3.22,0,3.22-5,0-5s-3.22,5,0,5Z" style="fill:#eae2c2;"/><path d="M278.23,133.35c3.22,0,3.22-5,0-5s-3.22,5,0,5Z" style="fill:#eae2c2;"/><path d="M256.23,124.35c3.22,0,3.22-5,0-5s-3.22,5,0,5Z" style="fill:#eae2c2;"/><path d="M238.23,114.35c3.22,0,3.22-5,0-5s-3.22,5,0,5Z" style="fill:#eae2c2;"/><path d="M485.85,268.55A24.69,24.69,0,0,0,496,259.37a27.3,27.3,0,0,0,.54-27.46c-3.77-6.53-11.79-9.38-19-9.37-7.37,0-14.18,2.85-20.07,7,.38-3.9-.21-7.81-2.73-11-3.38-4.28-9-5.62-14.23-5.07-12.54,1.31-22.57,12.15-24.56,24.28-.52,3.15,4.3,4.5,4.82,1.33,1.48-9,7.56-16.94,16.41-19.81,4-1.3,9.34-1.61,12.73,1.36,4.27,3.73,2.65,10.33,1,14.92-.86,2.46,2.47,4.06,4.18,2.43,8.47-8.12,24.91-16,35.17-6,5.15,5,5.75,14.49,3.36,20.87-2.07,5.55-8.5,13.44-15.25,12a2.5,2.5,0,0,0-1.33,4.82c14.1,4.69,22.56,21.1,13.75,34.3-8.26,12.37-28.1,11.15-32.84-3.77a2.5,2.5,0,0,0-4.82,1.33c2.36,11.44-6.46,22.62-18.45,21.33s-18.22-14.41-12.29-24.74c1.38-2.41-2-5.15-3.93-3a10.08,10.08,0,0,1-14.4.32c-4.29-4.41-3.16-11.63.71-15.84,2.18-2.36-1.35-5.91-3.54-3.54-5.7,6.19-7,16.54-.71,22.91a15.09,15.09,0,0,0,15,3.66A21.38,21.38,0,0,0,434,327.86c12.12,1.39,21.69-7.07,23.94-17.86a23.69,23.69,0,0,0,35.77-1.53C504.42,294.9,498.85,277.22,485.85,268.55Z" style="fill:#eae2c2;"/><path d="M124.84,148.76l35.56-34.43c2.32-2.24-1.22-5.78-3.54-3.54l-35.56,34.43c-2.32,2.24,1.22,5.78,3.54,3.54Z" style="fill:#574730;"/><path d="M314.42,168.43q-3.72,16.77-8.32,33.33a2.57,2.57,0,0,0,1.75,3.08l14,5.72c3,1.22,4.27-3.62,1.33-4.82l-14-5.72,1.75,3.08q4.6-16.55,8.32-33.33c.7-3.14-4.12-4.47-4.82-1.33Z" style="fill:#574730;"/><path d="M296.37,81.4c7,9.35,7.39,21.61,2.51,32-1.36,2.9,3,5.44,4.32,2.52,5.59-11.95,5.65-26.27-2.51-37.09-1.91-2.54-6.26,0-4.32,2.52Z" style="fill:#f3bc63;"/><path d="M114.46,168.63,149,180.39c3.05,1,4.36-3.79,1.33-4.82l-34.52-11.76c-3.05-1-4.36,3.79-1.33,4.82Z" style="fill:#db6653;"/><path d="M173.11,187.35q41.75,12.39,82.7,27.26c3,1.1,4.33-3.73,1.33-4.82q-40.93-14.86-82.7-27.26c-3.09-.92-4.41,3.91-1.33,4.82Z" style="fill:#db6653;"/><path d="M304,230.87l19.79,6.89c4.93,1.72,11.58,5.65,16.84,4.42,3.13-.73,1.81-5.56-1.33-4.82-2.26.53-5.72-1.48-7.88-2.23l-9-3.13-17.09-5.95c-3-1.06-4.35,3.77-1.33,4.82Z" style="fill:#db6653;"/></g></g></svg>