<svg xmlns="http://www.w3.org/2000/svg" viewBox="0 0 493.22 409.18"><title>Sign in form + document flow</title><g id="Layer_2" data-name="Layer 2"><g id="Layer_1-2" data-name="Layer 1"><path d="M269.2,352.15a201.52,201.52,0,0,1-32.94-5.7c-4.42-1.16-9.91-3.94-14.51-3.62-4,.27-6.28,3.22-8.82,6-12.85,13.88-28.33,25.81-47.07,30-2.06-.93-4.54,2.06-2.7,4.18a107.45,107.45,0,0,0,29.12,23.91c5.11,2.79,9.1,3,14.57.9,5.26-2,10.43-4.33,15.48-6.81,20.23-10,39.07-24.3,49-45A2.54,2.54,0,0,0,269.2,352.15Z" style="fill:#eae2c2;"/><path d="M341.62,277.41c-2-3.84-5.33-3.49-9.23-3.17-12.9,1-25.74,2.59-38.53,4.55-1.73.26-2.11,2.38-1.49,3.67A104.28,104.28,0,0,1,295,365.86c-1,2.5,2.22,3.81,4,2.44l39.23-2.63a2.59,2.59,0,0,0,2.41-1.84,154.29,154.29,0,0,0,4.71-70.4C344.51,288.45,344,281.94,341.62,277.41Z" style="fill:#eae2c2;"/><path d="M285.55,197a2.55,2.55,0,0,0-2.41-1.84q-27.83,1.52-55.58,4.27a2.54,2.54,0,0,0-2.41,3.16c7.46,29.6,12,62,1.43,91.25a2.24,2.24,0,0,0-1.09,1.09L222,301.9a2.53,2.53,0,0,0,2.82,3.67,96.76,96.76,0,0,0,53-36.12c7-9.55,12.6-20.73,14.1-32.59C293.66,223.26,289.58,209.86,285.55,197Z" style="fill:#eae2c2;"/><path d="M368.58,142.13a93.87,93.87,0,0,1-51.22-6.34,2.55,2.55,0,0,0-3.67,1.49,116.68,116.68,0,0,0-5.91,47.91c1.56,17.29,7.07,34.17,5.09,51.67a2.08,2.08,0,0,0,2.41,2.37,2.68,2.68,0,0,0,.41.1,426.61,426.61,0,0,0,51.58,4.61,2.56,2.56,0,0,0,2.5-2.5c3.46-31.48-14.06-65.79,1.64-95.63A2.53,2.53,0,0,0,368.58,142.13Z" style="fill:#eae2c2;"/><path d="M443.17,110.82c-1.82-6.66-4.08-14-3.68-21a2.66,2.66,0,0,0,0-.32,2.16,2.16,0,0,1,.44-.8c1.94-2-.54-5.41-3-3.93-23.51,14-41.67,38.93-51.89,64-2.68,6.56-5.84,13.8-5.95,21-.1,6.78,2.38,13.22,5.4,19.18s6.79,12.45,11.89,17c2.5,2.21,7.86,4.14,9.26,7.19,1.27,2.75,5,.66,4.57-1.93-2.71-15.75,4.88-31,12.4-44.38a198,198,0,0,1,25.82-35.67,2.61,2.61,0,0,0,.39-3C446.24,122.72,444.74,116.57,443.17,110.82Z" style="fill:#eae2c2;"/><path d="M368.71,45.81c-10,21.45-36.56,25.28-54.15,38.14a88,88,0,0,0-32.69,47.35,2.25,2.25,0,0,0,.81,2.52,2.61,2.61,0,0,0,4.27,1.41c18-16.37,42.46-22.14,62.14-36,16.77-11.77,30.32-31.63,24.18-52.87C372.72,44.49,369.65,43.78,368.71,45.81Z" style="fill:#eae2c2;"/><path d="M492.52,40.22A74.31,74.31,0,0,1,471.46,1.8,2.13,2.13,0,0,0,469.06,0a2,2,0,0,0-2.27,1.27c.12-.28.2-.21,0,0a2.69,2.69,0,0,0-.14.51,2.32,2.32,0,0,1,.14-.51,1.91,1.91,0,0,1-.31.27c-.44.32-.88.62-1.33.93-1.45,1-2.95,1.92-4.44,2.85C457,7.62,453.34,9.83,449.63,12c-6,3.56-12.51,6.77-17.89,11.23A105.33,105.33,0,0,0,405.54,56.8a88.92,88.92,0,0,0-7.1,17.61c-1.08,4.23-.46,11.2-3.27,14.7-2,2.45,1.18,5.84,3.54,3.54A180.23,180.23,0,0,1,491.42,44.4C493.29,44,493.79,41.46,492.52,40.22Z" style="fill:#eae2c2;"/><polygon points="466.79 1.29 466.79 1.3 466.79 1.3 466.79 1.29" style="fill:#eae2c2;"/><path d="M291.16,230.49a65.54,65.54,0,0,1-22.34,12.14,64.81,64.81,0,0,1-9.51,2.17c-1.24.19-4.44,0-5.56,1.31s-.53,2.89-.3,4.29a99.56,99.56,0,0,1,1.39,13.9c.2,9.6-.74,19.71-4.8,28.48a.63.63,0,0,0,1,.76c1.43-1.4,3.76-2.13,5.42-3.28s3.38-2.43,5-3.75a90.33,90.33,0,0,0,11.2-10.88,101.82,101.82,0,0,0,15.3-24.14c2.93-6.61,5.12-13.26,4.3-20.56A.63.63,0,0,0,291.16,230.49Z" style="fill:#bcb080;"/><path d="M435.82,20.13C423,25.56,414.35,37.7,407.4,49.26,400,61.58,394.88,75.28,395,89.77L395,90a.57.57,0,0,0,.06.48c0,.15,0,.3,0,.45,0,.8,1.27.81,1.25,0,0-.31,0-.61,0-.92,5.25-18,18.88-32.64,36.79-38.41a.63.63,0,0,0,.44-.77A30.93,30.93,0,0,1,436.68,21C437.08,20.41,436.33,19.92,435.82,20.13Z" style="fill:#bcb080;"/><path d="M323.26,158.78q15.59,2.29,31.3,3.37c3.21.22,3.2-4.78,0-5q-15-1-30-3.19c-3.15-.46-4.51,4.35-1.33,4.82Z" style="fill:#bcb080;"/><path d="M321.58,172.91q14.39,2.91,29,4.46c3.2.34,3.17-4.66,0-5q-13.94-1.49-27.66-4.28c-3.14-.64-4.49,4.18-1.33,4.82Z" style="fill:#bcb080;"/><path d="M345.24,200a47.77,47.77,0,0,1,8,.33,2.51,2.51,0,0,0,2.5-2.5,2.56,2.56,0,0,0-2.5-2.5,47.77,47.77,0,0,0-8-.33c-3.21.13-3.22,5.14,0,5Z" style="fill:#bcb080;"/><path d="M348.9,208a20.78,20.78,0,0,0,7.33-.44c3.13-.73,1.81-5.55-1.33-4.82a16.89,16.89,0,0,1-6,.26,2.51,2.51,0,0,0-2.5,2.5,2.56,2.56,0,0,0,2.5,2.5Z" style="fill:#bcb080;"/><path d="M324.88,223c9.79.72,19.57,1.19,29.33,2.28,3.19.36,3.17-4.64,0-5-9.77-1.1-19.54-1.56-29.33-2.28-3.21-.24-3.19,4.76,0,5Z" style="fill:#bcb080;"/><path d="M335.92,235.2a50.08,50.08,0,0,0,11,.88c3.21-.11,3.22-5.11,0-5a43.94,43.94,0,0,1-9.66-.7c-3.14-.59-4.49,4.22-1.33,4.82Z" style="fill:#bcb080;"/><path d="M389.76,166.11a70.16,70.16,0,0,0,11.71,15.52c2.28,2.28,5.81-1.25,3.54-3.54a65.3,65.3,0,0,1-10.92-14.51c-1.56-2.81-5.88-.29-4.32,2.52Z" style="fill:#bcb080;"/><path d="M396.62,146.51a100.93,100.93,0,0,0,14,19.33c2.18,2.37,5.71-1.17,3.54-3.54A95.37,95.37,0,0,1,400.93,144c-1.56-2.81-5.88-.29-4.32,2.52Z" style="fill:#bcb080;"/><path d="M405.75,131.11a109.54,109.54,0,0,0,12.75,19.15c2.05,2.48,5.57-1.07,3.54-3.54a103.52,103.52,0,0,1-12-18.14c-1.49-2.85-5.8-.33-4.32,2.52Z" style="fill:#bcb080;"/><path d="M301.35,118.75A134.12,134.12,0,0,1,317,96c2.08-2.43-1.44-6-3.54-3.54A140.4,140.4,0,0,0,297,116.23c-1.55,2.82,2.77,5.35,4.32,2.52Z" style="fill:#bcb080;"/><path d="M321.07,107.12l11.34-20.66c1.55-2.82-2.77-5.35-4.32-2.52l-11.34,20.66c-1.55,2.82,2.77,5.35,4.32,2.52Z" style="fill:#bcb080;"/><path d="M338.83,96.49,347.25,77c1.27-2.92-3-5.47-4.32-2.52L334.51,94c-1.27,2.92,3,5.47,4.32,2.52Z" style="fill:#bcb080;"/><path d="M355.73,83.44a32.92,32.92,0,0,0,3.36-11.26c.37-3.19-4.63-3.16-5,0a26,26,0,0,1-2.68,8.73c-1.45,2.86,2.86,5.4,4.32,2.52Z" style="fill:#bcb080;"/><path d="M455.84,21.51a172.87,172.87,0,0,0,7.56,17.28c1.45,2.87,5.76.34,4.32-2.52a160.87,160.87,0,0,1-7.05-16.08c-1.12-3-6-1.69-4.82,1.33Z" style="fill:#bcb080;"/><path d="M445.07,28.54q2,7.44,4.76,14.64c1.13,3,6,1.69,4.82-1.33q-2.74-7.21-4.76-14.64c-.84-3.1-5.66-1.79-4.82,1.33Z" style="fill:#bcb080;"/><path d="M435.77,39.77a37.1,37.1,0,0,1,2.38,5.42,2.56,2.56,0,0,0,3.08,1.75A2.52,2.52,0,0,0,443,43.86a45.47,45.47,0,0,0-2.88-6.61c-1.52-2.84-5.84-.32-4.32,2.52Z" style="fill:#bcb080;"/><path d="M420.8,61.19a17.15,17.15,0,0,0,2,4.58,2.5,2.5,0,1,0,4.32-2.52,10.78,10.78,0,0,1-1.46-3.39,2.5,2.5,0,1,0-4.82,1.33Z" style="fill:#bcb080;"/><path d="M243.58,218.79q14.36-.86,28.64-2.63c3.15-.39,3.19-5.4,0-5q-14.28,1.77-28.64,2.63c-3.2.19-3.22,5.19,0,5Z" style="fill:#bcb080;"/><path d="M245.58,229.4a220.46,220.46,0,0,0,22.32-2.85c3.16-.57,1.82-5.39-1.33-4.82a207.26,207.26,0,0,1-21,2.67c-3.19.24-3.21,5.24,0,5Z" style="fill:#bcb080;"/><path d="M246.24,242.35l3-.33a2.56,2.56,0,0,0,2.5-2.5,2.53,2.53,0,0,0-2.5-2.5l-3,.33a2.56,2.56,0,0,0-2.5,2.5,2.53,2.53,0,0,0,2.5,2.5Z" style="fill:#bcb080;"/><path d="M239.3,369.37l5.73,2.88a2.56,2.56,0,0,0,3.42-.9,2.52,2.52,0,0,0-.9-3.42l-5.73-2.88a2.56,2.56,0,0,0-3.42.9,2.52,2.52,0,0,0,.9,3.42Z" style="fill:#bcb080;"/><path d="M235.24,377.6l4.7,1.93a2.52,2.52,0,0,0,3.08-1.75,2.56,2.56,0,0,0-1.75-3.08l-4.7-1.93a2.52,2.52,0,0,0-3.08,1.75,2.56,2.56,0,0,0,1.75,3.08Z" style="fill:#bcb080;"/><path d="M208,374.33l15.73,11.25c2.62,1.88,5.12-2.46,2.52-4.32L210.51,370c-2.62-1.88-5.12,2.46-2.52,4.32Z" style="fill:#bcb080;"/><path d="M198.44,381l14,11.61c2.46,2,6-1.48,3.54-3.54l-14-11.61c-2.46-2-6,1.48-3.54,3.54Z" style="fill:#bcb080;"/><path d="M192,389.67A36,36,0,0,1,199.8,395c2.4,2.13,5.94-1.39,3.54-3.54a41,41,0,0,0-8.84-6.06c-2.87-1.44-5.4,2.87-2.52,4.32Z" style="fill:#bcb080;"/><path d="M334.77,187.94c-1.63-.88-4-1-5.79-1.44l-7.79-1.79a2.56,2.56,0,0,0-3.11,2.61,2.69,2.69,0,0,0-.13.49,54.13,54.13,0,0,0-.1,17.68,2.52,2.52,0,0,0,2.41,1.84c2.47.07,4.94.1,7.41,0,1.68,0,3.84.16,5.41-.58,3.08-1.46,2.52-6.82,2.84-9.61S337.89,189.62,334.77,187.94Zm-9.14,14.46c-1.07,0-2.15,0-3.22,0a46.47,46.47,0,0,1,.19-12.21l3.74.86c1.64.38,3.59.55,5.27,1.05,0,1.66-.56,3.66-.72,5.1-.19,1.69-.27,3.5-.6,5.2A26.2,26.2,0,0,1,325.63,202.4Z" style="fill:#bcb080;"/><path d="M437.35,113.07l-6-9.77a2.52,2.52,0,0,0-3.42-.9,53.57,53.57,0,0,0-11,10.11A2.63,2.63,0,0,0,417,116c0,.05,0,.1.06.15a86.75,86.75,0,0,0,6.61,10.37c.88,1.19,2.78,1.85,3.93.51L437,116.1A2.58,2.58,0,0,0,437.35,113.07Zm-15.48,1.35a48.93,48.93,0,0,1,6.59-6.23l3.65,5.91L426,121.18Q423.79,117.9,421.86,114.41Z" style="fill:#bcb080;"/><path d="M246.9,264a25.53,25.53,0,0,0-6.22.44,2.44,2.44,0,0,0-1.75,1.75c-.56,2.43-1,4.86-1.35,7.33-.27,2-.82,4.5-.55,6.52.59,4.31,6.14,3,9.19,2.87,3.21-.1,3.22-5.1,0-5-1.26,0-2.72.25-4.08.27,0-.34,0-.67,0-.82.1-1.19.23-2.38.4-3.57.22-1.59.53-3.16.87-4.73a21.59,21.59,0,0,1,3.47-.06C250.12,269.22,250.11,264.22,246.9,264Z" style="fill:#bcb080;"/><path d="M212.37,364.43Z" style="fill:#bcb080;"/><path d="M236,356.3c-3.58-1.68-8.43-5.21-12.53-5.22a2.36,2.36,0,0,0-1.56.34c-2.22,1.3-3.68,4.16-5,6.24-.93,1.41-1.82,2.84-2.74,4.26a12,12,0,0,0-1.13,1.74,1.74,1.74,0,0,1-.59.77,5.85,5.85,0,0,1,.85-.35c-1.83.64-2.7,3.59-.6,4.57,3.51,1.64,9.78,6.38,13.58,3.72,4.25-3,7.79-8.39,10.64-12.64A2.51,2.51,0,0,0,236,356.3Zm-10.8,10.13q-1,1-2,2a3.3,3.3,0,0,0-2.12-1.36,34.23,34.23,0,0,0-3.24-1.53c.44-.74.84-1.48,1.22-2.07,1.25-2,2.9-5.72,4.8-7.3,2.05.29,4.89,1.91,7.19,3.21A65.7,65.7,0,0,1,225.15,366.43Z" style="fill:#bcb080;"/><path d="M320.68,288.8c-.24-1.45-1.86-1.92-3.08-1.75a64.63,64.63,0,0,0-10.37,2.35l-.23.1a2.34,2.34,0,0,0-2.31,3.06,74.85,74.85,0,0,1,3.11,15.09,2.54,2.54,0,0,0,3.16,2.41c3.22-.84,10.21-1.08,11.27-4.95.62-2.29-.11-5.43-.37-7.77C321.57,294.48,321.15,291.63,320.68,288.8Zm-3.14,14.38a8.07,8.07,0,0,1-2.43.63l-2.67.69a80.92,80.92,0,0,0-2.19-10.78c2-.56,4-1,6-1.41.19,1.23.37,2.46.52,3.7.2,1.69-.07,4.43.56,5.94C317.74,303,318.1,302.68,317.53,303.18Z" style="fill:#bcb080;"/><path d="M326.24,294.35l5.67.08c3.22,0,3.22-5,0-5l-5.67-.08c-3.22,0-3.22,5,0,5Z" style="fill:#bcb080;"/><path d="M330.91,302.27h2.67a2.5,2.5,0,0,0,0-5h-2.67a2.5,2.5,0,1,0,0,5Z" style="fill:#bcb080;"/><path d="M313.57,319.6l20.33.08c3.22,0,3.22-5,0-5l-20.33-.08c-3.22,0-3.22,5,0,5Z" style="fill:#bcb080;"/><path d="M315.57,331.33q7.5-.51,15-.31c3.22.09,3.22-4.91,0-5q-7.51-.21-15,.31c-3.19.22-3.22,5.22,0,5Z" style="fill:#bcb080;"/><path d="M314.57,345.35l12-.33c3.21-.09,3.22-5.09,0-5l-12,.33c-3.21.09-3.22,5.09,0,5Z" style="fill:#bcb080;"/><path d="M169.66,52.54c-1.24-3.69-3-8.8-7.64-8.94-6.29-.18-8.54,7.28-9.21,14.52A35.2,35.2,0,0,0,150,53.86c-2.26-2.87-6.38-7.53-10.54-5.92-4.55,1.76-4,8.65-3.62,12.5a32.41,32.41,0,0,0,.71,4.11c-1.47-1.12-3-2.18-4.57-3.15-3.07-1.9-7.73-5.19-10.8-1.49-7.32,8.81,9.17,22.09,14.72,26.68,2.2,1.82,5.26-.8,4.12-2.84L167.45,71.2c.92,2.12,4.76,1.77,4.8-1.05A52.65,52.65,0,0,0,169.66,52.54Z" style="fill:#cf4327;"/><path d="M216,66a2.21,2.21,0,0,0-1.75-1.92c-46.41-11.95-96.66,10.56-115.55,55.2a93.56,93.56,0,0,0-7.62,35.2c-.16,12.49,1.79,25,.63,37.46-2.13,23-20.54,46.51-44.1,50.28-7.94,1.27-22.16-2.15-27.11,6.5-2,3.51-.74,7.83,1.88,10.64a12.82,12.82,0,0,0,4.13,2.9,7.08,7.08,0,0,0-2.9,4.67c-1.13,6.79,5.31,9.32,11.18,9.94a7.32,7.32,0,0,0-.29,3.36c.68,4.55,5.38,6.88,9.36,8,10.23,3,21.87,2.91,32.39,2.11,21.9-1.65,44.17-8,63-19.5A124.72,124.72,0,0,0,185,222.09a97.4,97.4,0,0,0,10.32-32.31c1.63-13.19.14-26.41-1.67-39.5-2.15-15.54-4.44-31-3.48-46.73.44-7.25,1.72-15,6-21.1C200.76,76,207.92,72,214.86,68.69A2.07,2.07,0,0,0,216,66Z" style="fill:#3b301b;"/><path d="M182.45,166l20.79-7c6.4-2.17,13.73-3.72,19.73-6.84,5.13-2.67,6.74-9.56,8.89-14.45l8.59-19.51c2.57-5.84-6-10.93-8.63-5l-7.42,16.85c-2.12,4.81-3.59,12.21-8.7,14.24-11.68,4.65-24,8.13-35.9,12.16-6.06,2.05-3.46,11.72,2.66,9.64Z" style="fill:#3b301b;"/><path d="M180.46,134l25-10c4-1.6,5.74-2.67,8.46-5.69L227.6,103.2c4.3-4.77-2.75-11.86-7.07-7.07l-12.85,14.23c-.87,1-1.69,2.07-2.66,2.94a10.26,10.26,0,0,1-.73.81c1.75-1.26-3.25,1-3.25,1l-23.24,9.33c-5.9,2.37-3.32,12,2.66,9.64Z" style="fill:#3b301b;"/><path d="M172.19,84.76c0-.07-.1-.11-.15-.17a2.85,2.85,0,0,0-.24-.33c-13.92-15.57-39.64,5.33-29.54,22.75,5,8.68,16.88,9.9,24.78,4.46C175.42,105.68,178,93.15,172.19,84.76Z" style="fill:#eae2c2;"/><path d="M168.71,92.71l-.05-.1a2.85,2.85,0,0,0-.2-.5A10.1,10.1,0,0,0,156,87.05c-4.87,1.77-8.81,8.06-7.27,13.22,1.67,5.6,8.86,7.83,14,6A10.5,10.5,0,0,0,168.71,92.71Z" style="fill:#3b301b;"/><path d="M231.39,116.58a4.1,4.1,0,0,1-3-2.34c-.69-1.45-2.85-.18-2.16,1.26a6.44,6.44,0,0,0,4.48,3.49c1.57.32,2.24-2.09.66-2.41Z" style="fill:#3b301b;"/><path d="M216,66a2.22,2.22,0,0,0-1.74-1.9,103.1,103.1,0,0,0-19.77-3,2.5,2.5,0,0,0-2.5,2.5,50.08,50.08,0,0,0,3.89,14.24c.68,1.55,2.86,1.49,3.93.51a60,60,0,0,1,15.05-9.66A2.07,2.07,0,0,0,216,66Z" style="fill:#cf4327;"/><path d="M111.2,141.31c-7.59-19.62-19.32-41.37-41.68-46.43-7-1.58-18.34-1.36-19.48,8-.47,3.92,2,6.82,4.92,9,1.51,1.13,3,2.23,4.59,3.31a23.73,23.73,0,0,0-9.68.81c-5.91,1.84-10.76,6.36-11.53,12.7a12,12,0,0,0,8,13.15c3.34,1.15,6.94,1.09,10.42,1.27a22.51,22.51,0,0,0-7.74,4.91c-5.51,5.46-7.09,14.65.34,19.23,4.07,2.51,8.76,2.44,13.35,1.91,5.48-.63,10.56-1.21,16,0a38.38,38.38,0,0,1,25.45,18.94c1.56,2.82,5.88.3,4.32-2.52-.59-1.07-1.25-2.1-1.93-3.11l2-38.17C110.28,144.42,111.94,143.21,111.2,141.31Z" style="fill:#3b301b;"/><path d="M270.17,124.53l-7.5-11.32a2.45,2.45,0,0,0-1.35-1,2.16,2.16,0,0,0-3,1h0a2.19,2.19,0,0,0-.33.65l-5.74,11.26a2.53,2.53,0,0,0,2.16,3.76L268,128.3C269.8,128.22,271.27,126.19,270.17,124.53Z" style="fill:#eae2c2;"/><path d="M261.3,112.24,216.68,89.49a1.9,1.9,0,0,0-2.57.67l-6.5,12.76a1.9,1.9,0,0,0,.67,2.57l44.62,22.75a1.92,1.92,0,0,0,2.27-.29c1.64-1.79,4.2-3.7,5.33-5.85s1.18-5.36,1.66-7.73a2,2,0,0,0,0-.22A1.59,1.59,0,0,0,261.3,112.24Z" style="fill:#e5a024;"/><path d="M214.75,98.64l46.33,23.62" style="fill:#e5a024;"/><path d="M214.12,99.72l46.33,23.62c1.43.73,2.7-1.43,1.26-2.16L215.38,97.56c-1.43-.73-2.7,1.43-1.26,2.16Z" style="fill:#eae2c2;"/><path d="M216.78,89.37c-4.55-2.06-10-.79-12.41,3.81a9.31,9.31,0,0,0,3.81,12.41,2.53,2.53,0,0,0,3.42-.9l6.07-11.91a2.68,2.68,0,0,0,.23-.69A2,2,0,0,0,216.78,89.37Z" style="fill:#cf4327;"/><path d="M270.17,124.53l-1.64-2.47,0,0a2.15,2.15,0,0,0-.87-.87,2.65,2.65,0,0,0-.54-.21,2.27,2.27,0,0,0-1.74.09l-.23.11h0a2.1,2.1,0,0,0-.89.89l-1.33,2.6a2.53,2.53,0,0,0,2.16,3.76l3-.13C269.8,128.22,271.27,126.19,270.17,124.53Z" style="fill:#3b301b;"/><path d="M233.89,119.76a43.59,43.59,0,0,1,2.81-4.12,1.29,1.29,0,0,0,0-1.77,1.26,1.26,0,0,0-1.77,0,49.06,49.06,0,0,0-3.2,4.62,1.25,1.25,0,0,0,2.16,1.26Z" style="fill:#3b301b;"/><path d="M145.66,252.49c-3.47-5.39-12.13-.39-8.63,5,5.8,9,11.91,24.33.76,32.17a5,5,0,0,0-2.18,3.69,4.11,4.11,0,0,0-.6,3.94l2.88,7c1,2.41,3.37,4.39,6.15,3.49,2.33-.75,4.55-3.56,3.49-6.15l-2.19-5.36C158.36,284.82,154.36,266,145.66,252.49Z" style="fill:#3b301b;"/><path d="M170.53,309.32c8.62-9.85,13.76-22.69,12.59-35.94-1.12-12.61-8.43-29.75-22.63-31.79-6.29-.9-9,8.73-2.66,9.64,10.77,1.55,15.34,16,15.46,25.35.14,11.23-5.14,21.45-13.09,29.12a4.44,4.44,0,0,0-1.32,4.62,4.17,4.17,0,0,0,1.4,2.73,21.17,21.17,0,0,1,2.62,2.68l.1.15c.16.24.33.48.48.72.39.61.73,1.25,1.06,1.9a5,5,0,0,0,6.84,1.79,5.12,5.12,0,0,0,1.79-6.84A24.47,24.47,0,0,0,170.53,309.32Z" style="fill:#3b301b;"/><path d="M182.27,155.51l.57,7a2.56,2.56,0,0,0,2.5,2.5,2.52,2.52,0,0,0,2.5-2.5l-.57-7a2.56,2.56,0,0,0-2.5-2.5,2.52,2.52,0,0,0-2.5,2.5Z" style="fill:#cf4327;"/><path d="M186.32,177.5a19.05,19.05,0,0,1-.88,6.34c-1,3.08,3.86,4.39,4.82,1.33a23.5,23.5,0,0,0,1.06-7.67c-.09-3.21-5.09-3.22-5,0Z" style="fill:#cf4327;"/><path d="M180.17,200.75a21.83,21.83,0,0,0-2.28,6.59,2.57,2.57,0,0,0,1.75,3.08,2.52,2.52,0,0,0,3.08-1.75,17.66,17.66,0,0,1,1.78-5.39c1.5-2.84-2.81-5.37-4.32-2.52Z" style="fill:#cf4327;"/><path d="M170,225.21l-2,2.51a2.72,2.72,0,0,0-.73,1.77,2.54,2.54,0,0,0,.73,1.77c.9.83,2.67,1.09,3.54,0l2-2.51a2.72,2.72,0,0,0,.73-1.77,2.54,2.54,0,0,0-.73-1.77c-.9-.83-2.67-1.09-3.54,0Z" style="fill:#cf4327;"/><path d="M154,241.72l-2.49,3a2.56,2.56,0,0,0,0,3.54,2.53,2.53,0,0,0,3.54,0l2.49-3a2.56,2.56,0,0,0,0-3.54,2.53,2.53,0,0,0-3.54,0Z" style="fill:#cf4327;"/><path d="M136,256.33l-3,2a2.5,2.5,0,1,0,2.52,4.32l3-2a2.5,2.5,0,1,0-2.52-4.32Z" style="fill:#cf4327;"/><path d="M119.67,266.65l-3.5,1a2.5,2.5,0,1,0,1.33,4.82l3.5-1a2.5,2.5,0,1,0-1.33-4.82Z" style="fill:#cf4327;"/><path d="M102.13,272.52l-3,1a2.5,2.5,0,0,0,1.33,4.82l3-1a2.5,2.5,0,0,0-1.33-4.82Z" style="fill:#cf4327;"/><path d="M86.3,275.1l-4-.48a2.5,2.5,0,0,0-2.5,2.5,2.57,2.57,0,0,0,2.5,2.5l4,.48a2.5,2.5,0,0,0,2.5-2.5,2.57,2.57,0,0,0-2.5-2.5Z" style="fill:#cf4327;"/><path d="M108.82,266a7.36,7.36,0,0,0,4.77-1.72,2.5,2.5,0,0,0,0-3.54,2.58,2.58,0,0,0-3.54,0c.51-.39-.18.06-.29.12-.43.25.42-.09-.11,0l-.55.13q.53-.06.1,0h-.38a2.52,2.52,0,0,0-2.5,2.5,2.55,2.55,0,0,0,2.5,2.5Z" style="fill:#cf4327;"/><path d="M125.55,257.12l2.5-1.49a2.5,2.5,0,1,0-2.52-4.32l-2.5,1.49a2.5,2.5,0,1,0,2.52,4.32Z" style="fill:#cf4327;"/><path d="M141.08,246.66l2-1.5a2.73,2.73,0,0,0,1.15-1.49,2.55,2.55,0,0,0-.25-1.93c-.67-1-2.3-1.74-3.42-.9l-2,1.5a2.73,2.73,0,0,0-1.15,1.49,2.55,2.55,0,0,0,.25,1.93c.67,1,2.3,1.74,3.42.9Z" style="fill:#cf4327;"/><path d="M156.47,233.26l2.5-3.5a2.51,2.51,0,0,0-.9-3.42,2.57,2.57,0,0,0-3.42.9l-2.5,3.5a2.51,2.51,0,0,0,.9,3.42,2.57,2.57,0,0,0,3.42-.9Z" style="fill:#cf4327;"/><path d="M169,215.77l1.51-3a2.5,2.5,0,0,0-4.32-2.52l-1.51,3a2.5,2.5,0,0,0,4.32,2.52Z" style="fill:#cf4327;"/><path d="M177.62,194.15l.5-2.5a2.5,2.5,0,1,0-4.82-1.33l-.5,2.5a2.5,2.5,0,1,0,4.82,1.33Z" style="fill:#cf4327;"/><path d="M178.81,169v-3a2.5,2.5,0,1,0-5,0v3a2.5,2.5,0,0,0,5,0Z" style="fill:#cf4327;"/><path d="M182.77,138.44a2.53,2.53,0,0,0-3.16-2.41l-2,.47a2.52,2.52,0,0,0-1.75,3.08,2.56,2.56,0,0,0,1.95,1.77V142a2.5,2.5,0,0,0,5,0Z" style="fill:#cf4327;"/><path d="M165.38,175.34l-.5,3.5a2.57,2.57,0,0,0,1.75,3.08c1.18.27,2.88-.36,3.08-1.75l.5-3.5a2.57,2.57,0,0,0-1.75-3.08c-1.18-.27-2.88.36-3.08,1.75Z" style="fill:#cf4327;"/><path d="M159,194.71l-2.5,3a2.56,2.56,0,0,0,0,3.54,2.53,2.53,0,0,0,3.54,0l2.5-3a2.56,2.56,0,0,0,0-3.54,2.53,2.53,0,0,0-3.54,0Z" style="fill:#cf4327;"/><path d="M148.11,213.79l-2,2.49a2.7,2.7,0,0,0-.73,1.77,2.5,2.5,0,0,0,4.27,1.77l2-2.49a2.7,2.7,0,0,0,.73-1.77,2.5,2.5,0,0,0-4.27-1.77Z" style="fill:#cf4327;"/><path d="M134,228.21l-2.86,2.65a2.52,2.52,0,0,0,0,3.54,2.55,2.55,0,0,0,3.54,0l2.86-2.65a2.52,2.52,0,0,0,0-3.54,2.55,2.55,0,0,0-3.54,0Z" style="fill:#cf4327;"/><path d="M119,239.81l-3.5,2.49a2.56,2.56,0,0,0-.9,3.42,2.53,2.53,0,0,0,3.42.9l3.5-2.49a2.56,2.56,0,0,0,.9-3.42,2.53,2.53,0,0,0-3.42-.9Z" style="fill:#cf4327;"/><path d="M102.55,249.74l-2,2a2.5,2.5,0,1,0,3.54,3.54l2-2a2.5,2.5,0,0,0-3.54-3.54Z" style="fill:#cf4327;"/><path d="M86,261.79l-1,.51a2.52,2.52,0,0,0-.9,3.42,2.56,2.56,0,0,0,3.42.9l1-.51a2.52,2.52,0,0,0,.9-3.42,2.56,2.56,0,0,0-3.42-.9Z" style="fill:#cf4327;"/><path d="M68.31,274.5c3.22,0,3.22-5,0-5s-3.22,5,0,5Z" style="fill:#cf4327;"/><path d="M80.35,306c-.91-3.08-5.74-1.77-4.82,1.33,3.71,12.55,1.71,28.72-11.13,34.56a26.45,26.45,0,0,0,0-4.72c-.62-6.15-4.23-12.3-10.44-14.11-5.5-1.6-11.72.52-14.1,5.95-2.65,6,.25,12.65,5.36,16.28a19.71,19.71,0,0,0,12.7,3.39c-3.75,9.77-13.08,18.4-21.11,23-9.31,5.39-23,9-33.66,6.38-3.12-.77-4.46,4-1.33,4.82C14,386,29.38,382,40,375.63c9.83-5.9,20.05-16.23,23.39-28l.31-.09C81.12,341.67,85.06,321.91,80.35,306ZM43.82,334.15c-.16-4.94,4.33-7.63,8.77-6.26,3.77,1.16,5.94,4.84,6.64,8.52a20.66,20.66,0,0,1,.08,7C52.76,344.36,44.07,341.79,43.82,334.15Z" style="fill:#cf4327;"/><path d="M236.53,121.21l3.16-3.72c1-1.22-.72-3-1.77-1.77l-3.16,3.72c-1,1.22.72,3,1.77,1.77Z" style="fill:#3b301b;"/><path d="M238.52,122.69a8.83,8.83,0,0,0,4.55-2.83c1-1.22-.73-3-1.77-1.77a6.56,6.56,0,0,1-3.44,2.18,1.25,1.25,0,0,0,.66,2.41Z" style="fill:#3b301b;"/><path d="M203.79,32.85l1.49-15.32c.31-3.2-4.69-3.18-5,0l-1.49,15.32c-.31,3.2,4.69,3.18,5,0Z" style="fill:#cf4327;"/><path d="M220,35.39l8.33-18.52c1.31-2.91-3-5.46-4.32-2.52l-8.33,18.52c-1.31,2.91,3,5.46,4.32,2.52Z" style="fill:#cf4327;"/><path d="M230.67,45.41l13.53-8.34c2.73-1.69.23-6-2.52-4.32l-13.53,8.34c-2.73,1.69-.23,6,2.52,4.32Z" style="fill:#cf4327;"/><path d="M134,84.47a56.33,56.33,0,0,0-28.61,36.43c-1,4.06,5.26,5.79,6.27,1.73a49.94,49.94,0,0,1,25.62-32.55c3.71-1.93.43-7.55-3.28-5.61Z" style="fill:#574730;"/><path d="M97.14,186.59A53.89,53.89,0,0,1,75,236.09c-3.39,2.39-.15,8,3.28,5.61a60.32,60.32,0,0,0,25.33-55.11c-.43-4.12-6.94-4.16-6.5,0Z" style="fill:#574730;"/><path d="M67.87,104.69c14.26,3.75,21.67,17.49,29.25,28.92,7,10.59,15.44,20.95,28.25,24.28,4.05,1.06,5.78-5.21,1.73-6.27-14.28-3.72-21.7-17.45-29.28-28.88-7-10.59-15.42-21-28.22-24.33-4-1.07-5.78,5.2-1.73,6.27Z" style="fill:#574730;"/><path d="M56.95,127.1q-1.5,1.54-.48,1.09a2.22,2.22,0,0,1,.89-.08,27.11,27.11,0,0,1,2.86.09l6.68.2c4.18.13,4.18-6.37,0-6.5-4.54-.14-16.62-2.45-16.45,5.2.1,4.18,6.6,4.19,6.5,0Z" style="fill:#574730;"/><path d="M58.51,159.32a21,21,0,0,1,7.9-3.65c4.07-.94,2.35-7.21-1.73-6.27a25.77,25.77,0,0,0-9.45,4.31,3.35,3.35,0,0,0-1.17,4.45c.82,1.39,3,2.21,4.45,1.17Z" style="fill:#574730;"/><path d="M32.88,244.57a7.65,7.65,0,0,0-7.07,5.12,3.26,3.26,0,0,0,2.27,4,3.34,3.34,0,0,0,4-2.27c-.07.19-.27.51-.05.17a3,3,0,0,1,.18-.28q.15-.22-.05.07c-.33.21,0,0,.12-.08l.16-.15-.22.17a2,2,0,0,0,.38-.23c.46-.27-.16.06-.16.06s.84-.1.21-.09.17,0,.23,0a3.25,3.25,0,1,0,0-6.5Z" style="fill:#574730;"/><path d="M39.74,260.75a8.77,8.77,0,0,0-8.48,2.83,3.35,3.35,0,0,0,0,4.6c1.14,1.14,3.49,1.37,4.6,0,.08-.1.9-.91.47-.58a5.44,5.44,0,0,1,.53-.33q.47-.23.18-.1c-.41.16,1.09-.23.27-.11.17,0,1.32.07.7,0a3.33,3.33,0,0,0,4-2.27c.36-1.58-.48-3.68-2.27-4Z" style="fill:#574730;"/><path d="M42.71,272.87l-1.33,2a3.27,3.27,0,0,0,1.17,4.45A3.33,3.33,0,0,0,47,278.15l1.33-2a3.27,3.27,0,0,0-1.17-4.45,3.33,3.33,0,0,0-4.45,1.17Z" style="fill:#574730;"/><path d="M170.39,74.26,181.74,71c4-1.16,2.31-7.43-1.73-6.27L168.66,68c-4,1.16-2.31,7.43,1.73,6.27Z" style="fill:#574730;"/><path d="M121.9,67.61l2.79,4.59a3.25,3.25,0,0,0,5.61-3.28l-2.79-4.59a3.25,3.25,0,0,0-5.61,3.28Z" style="fill:#db6653;"/><path d="M138.28,54.53a19.63,19.63,0,0,0,1.8,8.3c.71,1.61,3.05,2,4.45,1.17a3.33,3.33,0,0,0,1.17-4.45,12,12,0,0,1-.91-5c.06-4.18-6.44-4.19-6.5,0Z" style="fill:#db6653;"/><path d="M157,51.2v5.33a3.25,3.25,0,1,0,6.5,0V51.2a3.25,3.25,0,1,0-6.5,0Z" style="fill:#db6653;"/></g></g></svg>