<svg xmlns="http://www.w3.org/2000/svg" viewBox="0 0 489.65 287.91"><title>Downloading + bank-client relationships + easy_money</title><g id="Layer_2" data-name="Layer 2"><g id="Layer_1-2" data-name="Layer 1"><path d="M433.06,153.65H344.72a2.57,2.57,0,0,0-.84.15,2.43,2.43,0,0,0-3.06,2.35V268.32a2.54,2.54,0,0,0,2.5,2.5h89.74a2.54,2.54,0,0,0,2.5-2.5V156.15A2.54,2.54,0,0,0,433.06,153.65Z" style="fill:#e5a024;"/><path d="M487.15,153.65H443a2.66,2.66,0,0,0-.66.09,2.37,2.37,0,0,0-2.54,2.41V268.32a2.54,2.54,0,0,0,2.5,2.5h44.87a2.54,2.54,0,0,0,2.5-2.5V156.15A2.54,2.54,0,0,0,487.15,153.65Z" style="fill:#e5a024;"/><path d="M423.4,165.72H354.08a2.6,2.6,0,0,0-.74.11,2.4,2.4,0,0,0-2.86,2.39v88a2.54,2.54,0,0,0,2.5,2.5H423.4a2.54,2.54,0,0,0,2.5-2.5v-88A2.54,2.54,0,0,0,423.4,165.72Z" style="fill:#3b301b;"/><path d="M358.49,269.82h-9.33a2.54,2.54,0,0,0-2.5,2.5v9.33a2.54,2.54,0,0,0,2.5,2.5h9.33a2.31,2.31,0,0,0,1.69-.67l.08-.08,0,0a2.31,2.31,0,0,0,.68-1.7v-9.33A2.54,2.54,0,0,0,358.49,269.82Z" style="fill:#e5a024;"/><path d="M425.9,272.32a2.54,2.54,0,0,0-2.5-2.5h-9.33a2.54,2.54,0,0,0-2.5,2.5v9.33a2.54,2.54,0,0,0,2.5,2.5h9.33a2.31,2.31,0,0,0,1.69-.67l.08-.08,0,0a2.31,2.31,0,0,0,.68-1.7Z" style="fill:#e5a024;"/><path d="M387.38,142.19a2.54,2.54,0,0,0-2.5-2.5H357.64a2.54,2.54,0,0,0-2.5,2.5v8.27a2.54,2.54,0,0,0,2.5,2.5h27.24a2.31,2.31,0,0,0,1.69-.67l.08-.08,0,0a2.31,2.31,0,0,0,.68-1.7Z" style="fill:#eae2c2;"/><path d="M357.75,143.46h26.88a.63.63,0,0,0,0-1.25H357.75a.63.63,0,0,0,0,1.25Z" style="fill:#3b301b;"/><path d="M357.75,147h26.88a.63.63,0,0,0,0-1.25H357.75a.63.63,0,0,0,0,1.25Z" style="fill:#3b301b;"/><path d="M357.75,150.45h26.88a.63.63,0,0,0,0-1.25H357.75a.63.63,0,0,0,0,1.25Z" style="fill:#3b301b;"/><path d="M374.2,140a.63.63,0,0,0-.62-.62h-4.64a.63.63,0,0,0-.62.63v12.58a.63.63,0,0,0,.63.63h4.64a.57.57,0,0,0,.4-.15l0,0,0,0a.57.57,0,0,0,.16-.4Z" style="fill:#cf4327;"/><path d="M385.44,247.88a2.54,2.54,0,0,0-2.5-2.5H355.7a2.54,2.54,0,0,0-2.5,2.5v8.27a2.54,2.54,0,0,0,2.5,2.5h27.24a2.31,2.31,0,0,0,1.69-.67l.08-.08,0,0a2.31,2.31,0,0,0,.68-1.7Z" style="fill:#eae2c2;"/><path d="M355.81,249.14h26.88a.63.63,0,0,0,0-1.25H355.81a.63.63,0,0,0,0,1.25Z" style="fill:#3b301b;"/><path d="M355.81,252.64h26.88a.63.63,0,0,0,0-1.25H355.81a.63.63,0,0,0,0,1.25Z" style="fill:#3b301b;"/><path d="M355.81,256.13h26.88a.63.63,0,0,0,0-1.25H355.81a.63.63,0,0,0,0,1.25Z" style="fill:#3b301b;"/><path d="M372.26,245.72a.63.63,0,0,0-.62-.62H367a.63.63,0,0,0-.62.63V258.3a.63.63,0,0,0,.63.63h4.64a.57.57,0,0,0,.4-.15l0,0,0,0a.57.57,0,0,0,.16-.4Z" style="fill:#cf4327;"/><path d="M385.44,233.25a2.54,2.54,0,0,0-2.5-2.5H355.7a2.54,2.54,0,0,0-2.5,2.5v8.27a2.54,2.54,0,0,0,2.5,2.5h27.24a2.31,2.31,0,0,0,1.69-.67l.08-.08,0,0a2.31,2.31,0,0,0,.68-1.7Z" style="fill:#eae2c2;"/><path d="M355.81,234.52h26.88a.63.63,0,0,0,0-1.25H355.81a.63.63,0,0,0,0,1.25Z" style="fill:#3b301b;"/><path d="M355.81,238h26.88a.63.63,0,0,0,0-1.25H355.81a.63.63,0,0,0,0,1.25Z" style="fill:#3b301b;"/><path d="M355.81,241.51h26.88a.63.63,0,0,0,0-1.25H355.81a.63.63,0,0,0,0,1.25Z" style="fill:#3b301b;"/><path d="M372.26,231.09a.63.63,0,0,0-.62-.62H367a.63.63,0,0,0-.62.63v12.58a.63.63,0,0,0,.63.63h4.64a.57.57,0,0,0,.4-.15l0,0,0,0a.57.57,0,0,0,.16-.4Z" style="fill:#cf4327;"/><path d="M385.44,218.63a2.54,2.54,0,0,0-2.5-2.5H355.7a2.54,2.54,0,0,0-2.5,2.5v8.27a2.54,2.54,0,0,0,2.5,2.5h27.24a2.31,2.31,0,0,0,1.69-.67l.08-.08,0,0a2.31,2.31,0,0,0,.68-1.7Z" style="fill:#eae2c2;"/><path d="M355.81,219.89h26.88a.63.63,0,0,0,0-1.25H355.81a.63.63,0,0,0,0,1.25Z" style="fill:#3b301b;"/><path d="M355.81,223.39h26.88a.63.63,0,0,0,0-1.25H355.81a.63.63,0,0,0,0,1.25Z" style="fill:#3b301b;"/><path d="M355.81,226.88h26.88a.63.63,0,0,0,0-1.25H355.81a.63.63,0,0,0,0,1.25Z" style="fill:#3b301b;"/><path d="M372.26,216.47a.63.63,0,0,0-.62-.62H367a.63.63,0,0,0-.62.63v12.58a.63.63,0,0,0,.63.63h4.64a.57.57,0,0,0,.4-.15l0,0,0,0a.57.57,0,0,0,.16-.4Z" style="fill:#cf4327;"/><path d="M421.69,247.88a2.54,2.54,0,0,0-2.5-2.5H391.95a2.54,2.54,0,0,0-2.5,2.5v8.27a2.54,2.54,0,0,0,2.5,2.5h27.24a2.31,2.31,0,0,0,1.69-.67l.08-.08,0,0a2.31,2.31,0,0,0,.68-1.7Z" style="fill:#eae2c2;"/><path d="M392.06,249.14h26.88a.63.63,0,0,0,0-1.25H392.06a.63.63,0,0,0,0,1.25Z" style="fill:#3b301b;"/><path d="M392.06,252.64h26.88a.63.63,0,0,0,0-1.25H392.06a.63.63,0,0,0,0,1.25Z" style="fill:#3b301b;"/><path d="M392.06,256.13h26.88a.63.63,0,0,0,0-1.25H392.06a.63.63,0,0,0,0,1.25Z" style="fill:#3b301b;"/><path d="M408.51,245.72a.63.63,0,0,0-.62-.62h-4.64a.63.63,0,0,0-.62.63V258.3a.63.63,0,0,0,.63.63h4.64a.57.57,0,0,0,.4-.15l0,0,0,0a.57.57,0,0,0,.16-.4Z" style="fill:#cf4327;"/><path d="M421.69,233.25a2.54,2.54,0,0,0-2.5-2.5H391.95a2.54,2.54,0,0,0-2.5,2.5v8.27a2.54,2.54,0,0,0,2.5,2.5h27.24a2.31,2.31,0,0,0,1.69-.67l.08-.08,0,0a2.31,2.31,0,0,0,.68-1.7Z" style="fill:#eae2c2;"/><path d="M392.06,234.52h26.88a.63.63,0,0,0,0-1.25H392.06a.63.63,0,0,0,0,1.25Z" style="fill:#3b301b;"/><path d="M392.06,238h26.88a.63.63,0,0,0,0-1.25H392.06a.63.63,0,0,0,0,1.25Z" style="fill:#3b301b;"/><path d="M392.06,241.51h26.88a.63.63,0,0,0,0-1.25H392.06a.63.63,0,0,0,0,1.25Z" style="fill:#3b301b;"/><path d="M408.51,231.09a.63.63,0,0,0-.62-.62h-4.64a.63.63,0,0,0-.62.63v12.58a.63.63,0,0,0,.63.63h4.64a.57.57,0,0,0,.4-.15l0,0,0,0a.57.57,0,0,0,.16-.4Z" style="fill:#cf4327;"/><path d="M421.69,218.63a2.54,2.54,0,0,0-2.5-2.5H391.95a2.54,2.54,0,0,0-2.5,2.5v8.27a2.54,2.54,0,0,0,2.5,2.5h27.24a2.31,2.31,0,0,0,1.69-.67l.08-.08,0,0a2.31,2.31,0,0,0,.68-1.7Z" style="fill:#eae2c2;"/><path d="M392.06,219.89h26.88a.63.63,0,0,0,0-1.25H392.06a.63.63,0,0,0,0,1.25Z" style="fill:#3b301b;"/><path d="M392.06,223.39h26.88a.63.63,0,0,0,0-1.25H392.06a.63.63,0,0,0,0,1.25Z" style="fill:#3b301b;"/><path d="M392.06,226.88h26.88a.63.63,0,0,0,0-1.25H392.06a.63.63,0,0,0,0,1.25Z" style="fill:#3b301b;"/><path d="M408.51,216.47a.63.63,0,0,0-.62-.62h-4.64a.63.63,0,0,0-.62.63v12.58a.63.63,0,0,0,.63.63h4.64a.57.57,0,0,0,.4-.15l0,0,0,0a.57.57,0,0,0,.16-.4Z" style="fill:#cf4327;"/><path d="M394.39,204a2.54,2.54,0,0,0-2.5-2.5H364.65a2.54,2.54,0,0,0-2.5,2.5v8.27a2.54,2.54,0,0,0,2.5,2.5h27.24a2.31,2.31,0,0,0,1.69-.67l.08-.08,0,0a2.31,2.31,0,0,0,.68-1.7Z" style="fill:#eae2c2;"/><path d="M364.76,205.26h26.88a.63.63,0,0,0,0-1.25H364.76a.63.63,0,0,0,0,1.25Z" style="fill:#3b301b;"/><path d="M364.76,208.76h26.88a.63.63,0,0,0,0-1.25H364.76a.63.63,0,0,0,0,1.25Z" style="fill:#3b301b;"/><path d="M364.76,212.25h26.88a.63.63,0,0,0,0-1.25H364.76a.63.63,0,0,0,0,1.25Z" style="fill:#3b301b;"/><path d="M381.21,201.84a.63.63,0,0,0-.62-.62H376a.63.63,0,0,0-.62.63v12.58a.63.63,0,0,0,.63.63h4.64a.57.57,0,0,0,.4-.15l0,0,0,0a.57.57,0,0,0,.16-.4Z" style="fill:#cf4327;"/><path d="M417.06,184.5a2.54,2.54,0,0,0-3.5.47L397,206.6a2.54,2.54,0,0,0,.47,3.5l6.57,5a2.54,2.54,0,0,0,3.5-.47L424.09,193a2.31,2.31,0,0,0,.5-1.75s0-.08,0-.12v-.07a2.31,2.31,0,0,0-.94-1.57Z" style="fill:#eae2c2;"/><path d="M400.06,208.8l16.33-21.34a.63.63,0,0,0-1-.76L399.06,208a.63.63,0,0,0,1,.76Z" style="fill:#3b301b;"/><path d="M402.83,210.92l16.33-21.34a.63.63,0,0,0-1-.76l-16.33,21.34a.63.63,0,0,0,1,.76Z" style="fill:#3b301b;"/><path d="M405.61,213l16.33-21.34a.63.63,0,0,0-1-.76l-16.33,21.34a.63.63,0,0,0,1,.76Z" style="fill:#3b301b;"/><path d="M407.34,193.66a.63.63,0,0,0-.88.12l-2.82,3.68a.63.63,0,0,0,.12.88l10,7.65a.63.63,0,0,0,.88-.12l2.82-3.68a.57.57,0,0,0,.12-.41s0,0,0-.05v0a.57.57,0,0,0-.22-.37Z" style="fill:#cf4327;"/><path d="M388.37,189.38a2.54,2.54,0,0,0-2.5-2.5H358.63a2.54,2.54,0,0,0-2.5,2.5v8.27a2.54,2.54,0,0,0,2.5,2.5h27.24a2.31,2.31,0,0,0,1.69-.67l.08-.08,0,0a2.31,2.31,0,0,0,.68-1.7Z" style="fill:#eae2c2;"/><path d="M358.74,190.64h26.88a.63.63,0,0,0,0-1.25H358.74a.63.63,0,0,0,0,1.25Z" style="fill:#3b301b;"/><path d="M358.74,194.13h26.88a.63.63,0,0,0,0-1.25H358.74a.63.63,0,0,0,0,1.25Z" style="fill:#3b301b;"/><path d="M358.74,197.63h26.88a.63.63,0,0,0,0-1.25H358.74a.63.63,0,0,0,0,1.25Z" style="fill:#3b301b;"/><path d="M375.19,187.22a.63.63,0,0,0-.62-.62h-4.64a.63.63,0,0,0-.62.63V199.8a.63.63,0,0,0,.63.63h4.64a.57.57,0,0,0,.4-.15l0,0,0,0a.57.57,0,0,0,.16-.4Z" style="fill:#cf4327;"/><path d="M382.82,127.89a2.54,2.54,0,0,0-2.5-2.5H353.07a2.54,2.54,0,0,0-2.5,2.5v8.27a2.54,2.54,0,0,0,2.5,2.5h27.24A2.31,2.31,0,0,0,382,138l.08-.08,0,0a2.31,2.31,0,0,0,.68-1.7Z" style="fill:#eae2c2;"/><path d="M353.19,129.16h26.88a.63.63,0,0,0,0-1.25H353.19a.63.63,0,0,0,0,1.25Z" style="fill:#3b301b;"/><path d="M353.19,132.65h26.88a.63.63,0,0,0,0-1.25H353.19a.63.63,0,0,0,0,1.25Z" style="fill:#3b301b;"/><path d="M353.19,136.15h26.88a.63.63,0,0,0,0-1.25H353.19a.63.63,0,0,0,0,1.25Z" style="fill:#3b301b;"/><path d="M369.64,125.74a.63.63,0,0,0-.62-.62h-4.64a.63.63,0,0,0-.62.63v12.58a.63.63,0,0,0,.63.63H369a.57.57,0,0,0,.4-.15l0,0,0,0a.57.57,0,0,0,.16-.4Z" style="fill:#cf4327;"/><path d="M435.6,174.72v12.67c0,3.22,5,3.22,5,0V174.72c0-3.22-5-3.22-5,0Z" style="fill:#e5a024;"/><path d="M435.6,234.26v12.67c0,3.22,5,3.22,5,0V234.26c0-3.22-5-3.22-5,0Z" style="fill:#e5a024;"/><path d="M193.55,130.1l68-38c8.43-4.71.87-17.68-7.57-13l-68,38c-8.43,4.71-.87,17.68,7.57,13Z" style="fill:#e5a024;"/><path d="M195,34.63c-9.61-1.52-20.12,1.85-29.49,4a2,2,0,0,0-1.29.34,2.27,2.27,0,0,0-1.1,3,2.51,2.51,0,0,0,1,1.38l7,4.92A179.77,179.77,0,0,0,136.41,61a2.51,2.51,0,0,0-.51,3.93,102.47,102.47,0,0,0,9.25,6.48,141,141,0,0,0-28.32,20.7c-1.68,1.58-.28,4.12,1.77,4.27a40.11,40.11,0,0,1,13.83,3.53L118,119.5c-1.07,1.45.18,3.12,1.49,3.67,2.48,1,5.07,2,7.48,3.15s1.9.83,1.47,3c-.27,1.32-1.63,2.87-2.31,4a148.35,148.35,0,0,1-9.93,14.48,2.52,2.52,0,0,0,.39,3,139.21,139.21,0,0,0,14,13.38,119.12,119.12,0,0,0-13.13,16.23,2.5,2.5,0,0,0,.39,3q7.66,6,14.84,12.47a101.84,101.84,0,0,0-14.14,12.83,2.55,2.55,0,0,0-.39,3l11.44,16.65c-8.24,3.17-12.77,13.16-10.05,21.52a93.93,93.93,0,0,1-18.89-.59c-1.89-.26-3.52,1-3.08,3.08a76.17,76.17,0,0,0,3,10q-14.76-.51-29.52.08a2.52,2.52,0,0,0-2.41,3.16l1.6,4.75a122.54,122.54,0,0,0-23.32-6.31,2.54,2.54,0,0,0-3.17,2.41,32.53,32.53,0,0,0,.91,8.78,131.67,131.67,0,0,1-22.57-6,2.52,2.52,0,0,0-3.16,2.41c.21,14.83,17.46,14.41,28,13.28,15.94-1.71,31.91-4,47.7-6.82,13.5-2.41,26.48-6.47,37.25-15.23,9.91-8.07,17.24-19,22.36-30.63,12.38-28.1,11.28-59.26,15-89.15,3.79-30.44,12.94-61.81,28.87-88.18C202.27,48,206.54,36.46,195,34.63Z" style="fill:#cf4327;"/><path d="M245.41,18.77c-7.06-.62-13.7,4.26-19.83,7.14-5.91,2.77-11.92,5.34-17.91,8-13,5.69-26.17,11.49-38.15,19.24C158.81,60,148.78,68.68,142.51,80c-8.46,15.21-9,33.82-9,50.8,0,21.56.34,43.12.51,64.67.15,18.36,3.72,40.9-11.08,54.79-13.1,12.3-32.68,15.39-49.6,19-23.76,5.07-47.7,9.26-71.58,13.74-2.82.53-2.1,4.91.66,4.91H115.67c14.72,0,29.45.1,44.18,0s30.44-3.72,43.36-11.21c16.06-9.3,26.42-27.6,30.4-45.33,5.57-24.81-3.35-48.17-14.05-70.22-5-10.32-10.45-20.48-14.95-31-4.8-11.27-11.09-26.83-5.08-38.69,4.59-7.76,11.81-13.57,18.39-19.58C225.34,65,232.09,57.51,239,50.26c5.29-5.52,14.09-12,15.78-19.94C256.14,24.19,251.31,19.29,245.41,18.77Z" style="fill:#e5a024;"/><path d="M223,168.31c-8.76-19-20.5-37.49-24.87-58.18-.36-1.71-2.31-2.13-3.67-1.49-9.15,4.28-12.26,15.95-12.87,25.19-.47,7.12.29,14.44.52,21.56q.4,12.51.75,25c.63,22.27-.3,57.54,29.86,58.77,4.12.17,6.55.37,8.87,4,1.1,1.71,2.39,3.46,4.68,3.42,5.88-.08,7.64-10.89,8.45-15.05C238.19,209.45,232.14,188.21,223,168.31Z" style="fill:#eae2c2;"/><path d="M158.39,128.38c26.43,33,71.41,36.8,109.42,24.56,9.15-2.95,5.24-17.44-4-14.46-33.4,10.76-71.54,8.41-94.82-20.7-2.55-3.19-7.94-2.61-10.61,0-3.16,3.09-2.52,7.46,0,10.61Z" style="fill:#e5a024;"/><path d="M231,280.88h-1.88c.09-.19.18-.39.27-.59,5.57-13.36,6-31.33-2.78-43.46-8-11.16-26.12-14.09-38.43-9-3.73,1.53-6.42,5-5.24,9.23,1,3.54,5.44,6.79,9.23,5.24,7-2.87,18.58-2.83,23,4.34,5.31,8.67,3.49,20.81-.22,29.7-1.53,3.68,1.54,8,5,9.14a2.39,2.39,0,0,0,1.43.44H231C234.26,285.88,234.27,280.88,231,280.88Z" style="fill:#e5a024;"/><path d="M327.74,222.25c-2-9-4.89-17.85-7.37-26.74a210.9,210.9,0,0,0-8.59-25.92c-5.35-12.6-10.71-27.36-22.6-35.23-6.23-3.72-15-7.66-18.78,1.07-3.19,7.27-1.77,16.5-1.46,24.18.58,14.22-2.48,28.86-5.86,42.61-3.84,15.63-10.41,30.86-11.53,47-.88,12.71,2.33,28.95,15.57,34.15,5.94,2.34,12.57,2.3,18.86,2.32a101.45,101.45,0,0,0,16-1c10.11-1.58,19.77-6.17,24-16C332.33,254.2,331.15,237.35,327.74,222.25Z" style="fill:#cf4327;"/><path d="M268.66,141.72a8.6,8.6,0,0,1,7.07-6.54,2.58,2.58,0,0,0,2.5-2.5,2.51,2.51,0,0,0-2.5-2.5,13.71,13.71,0,0,0-11.89,10.21c-.78,3.12,4,4.45,4.82,1.33Z" style="fill:#e5a024;"/><path d="M307.35,170.61A60.45,60.45,0,0,0,299.7,152c-3.24-4.85-12.22-17.39-19.69-13.76-9.64,4.68-.1,22.64,3.25,28.61,3.22,5.73,13,23.54,21.75,16.93C309.16,180.64,308.33,175,307.35,170.61Z" style="fill:#3b301b;"/><path d="M204,24.08a31.66,31.66,0,0,0-13.2-6.53C162.16,12.3,133.38,42,148.54,69.82a2.53,2.53,0,0,0,3.42.9c15.94-9.69,32-19.11,48-28.8,2.71-1.65,10.35-4.85,10.82-8.58C211.15,30.13,206.12,25.87,204,24.08Z" style="fill:#3b301b;"/><path d="M262.32,21.27q-3.29-.19-6.58-.09.13-3.23.56-6.45c.18-1.35-1.28-2.49-2.5-2.5a2.56,2.56,0,0,0-2.5,2.5,71.42,71.42,0,0,0-.62,9.07,2.52,2.52,0,0,0,2.5,2.5,73.16,73.16,0,0,1,9.15,0C265.53,26.46,265.52,21.46,262.32,21.27Z" style="fill:#cf4327;"/><path d="M233,44.8a2.47,2.47,0,0,0-.13-1,2.41,2.41,0,0,0-.33-.87c-4-9.66-17.1-9.89-24.74-4.28-4.57,3.35-7.38,8.74-12.19,11.75-2.63,1.65-5.72,1.9-8.51,3.18a53.93,53.93,0,0,0-10,6.11c-8.32,6.4-11.54,19.17-.47,24.76A16,16,0,0,0,191.31,84c5.71-3,8.4-8.13,11.73-13.36,2.5-3.94,5.25-6.56,9.88-7.73,3.79-1,7.74-1.3,11.34-3A14.54,14.54,0,0,0,233,44.8Z" style="fill:#3b301b;"/><path d="M192.71,59.72c-4.06-2.47-8.86-.11-11.44,3.35-2.8,3.75-2.86,9,1.66,11.44a9.43,9.43,0,0,0,11.84-2.83,2.63,2.63,0,0,0,.38-.54,2.67,2.67,0,0,0,.27-.58C197.06,66.83,196.43,62,192.71,59.72Z" style="fill:#eae2c2;"/><path d="M220.71,41c-4.06-2.47-8.86-.11-11.44,3.35-2.8,3.75-2.86,9,1.66,11.44A9.43,9.43,0,0,0,222.77,53a2.63,2.63,0,0,0,.38-.54,2.66,2.66,0,0,0,.27-.58C225.06,48.16,224.43,43.31,220.71,41Z" style="fill:#eae2c2;"/><path d="M188.47,62.18A4.85,4.85,0,0,0,183.73,67a5,5,0,0,0,3.77,4.38,4.09,4.09,0,0,0,5.1-3.3c0-.11,0-.22,0-.33s0-.22.06-.34C193,64.91,191.16,62.22,188.47,62.18Zm.21,4.93h0Zm-1-.41,0-.06Z" style="fill:#3b301b;"/><path d="M215.82,48.53l0,0,.08.05Z" style="fill:#3b301b;"/><path d="M216.53,43.55l-.38,0-.29-.05a4.57,4.57,0,0,0-4.92,5.15,5.58,5.58,0,0,0,5.54,5.14,4.77,4.77,0,0,0,4.46-4.89A5.37,5.37,0,0,0,216.53,43.55Zm-.59,5h0Zm0,0h0Zm0,0h0Zm0,.07h0Zm.47,0c.16-.07.12,0,0,0Zm-.63-.24,0,0h0l0,0,0,0,0,0,0,0,0,0,0,0v0C215.85,48.62,215.7,48.49,215.78,48.51Z" style="fill:#3b301b;"/><path d="M205.24,54.3q2.39-7.21,5.25-14.25c1.21-3-3.62-4.28-4.82-1.33q-2.86,7-5.25,14.25c-1,3.06,3.81,4.37,4.82,1.33Z" style="fill:#cf4327;"/><path d="M170.66,77,133.2,103.32c-2.61,1.83-.12,6.17,2.52,4.32l37.46-26.29c2.61-1.83.12-6.17-2.52-4.32Z" style="fill:#3b301b;"/><path d="M155.72,63.46a17,17,0,0,0,4.44-2.64,2.51,2.51,0,0,0,0-3.54,2.57,2.57,0,0,0-3.54,0q-.34.27,0,0l-.37.27q-.33.23-.68.44t-.7.39c-.08,0-.92.42-.45.23a2.57,2.57,0,0,0-1.75,3.08c.38,1.16,1.78,2.28,3.08,1.75Z" style="fill:#cf4327;"/><path d="M168.66,55.89a18,18,0,0,0,4.84-3.4A2.5,2.5,0,0,0,170,49a13.53,13.53,0,0,1-3.82,2.62,2.52,2.52,0,0,0-.9,3.42,2.56,2.56,0,0,0,3.42.9Z" style="fill:#cf4327;"/><path d="M180.66,49.21l4-2.33a2.5,2.5,0,1,0-2.52-4.32l-4,2.33a2.5,2.5,0,0,0,2.52,4.32Z" style="fill:#cf4327;"/><path d="M192.3,42.85l3.32-2a2.5,2.5,0,1,0-2.52-4.32l-3.32,2a2.5,2.5,0,1,0,2.52,4.32Z" style="fill:#cf4327;"/><path d="M202.63,36.83l3.34-2a2.5,2.5,0,1,0-2.52-4.32l-3.34,2a2.5,2.5,0,0,0,2.52,4.32Z" style="fill:#cf4327;"/><path d="M248.5,63.36c7.6,10.19,15,20.57,22.57,30.75,1.93,2.59,4.15,4.6,7.48,3.43,2.68-.95,5.13-3.67,7.38-5.4l8.78-6.75c2.51-1.93,0-6.28-2.52-4.32l-12.44,9.57c-2.6,2-3.13,2.69-5,0-.89-1.27-1.66-2.61-2.57-3.87-6.29-8.76-12.9-17.31-19.35-26-1.9-2.55-6.24-.06-4.32,2.52Z" style="fill:#3b301b;"/><path d="M295.93,79c-8.2-11-16.89-21.6-24.17-33.24a2.53,2.53,0,0,0-3.42-.9l-12.62,8.43c-2.36,1.58-6,3.22-6.18,6.5-.11,2.66,2.05,4.21,3.73,5.93,3,3.12,4.95,7.28,7.46,10.83,4.12,5.71,8.45,12.23,13.74,16.92,2.23,2,3.75,1.56,6.21.09A75.72,75.72,0,0,0,289,87.29c1.8-1.45,3.91-4,6-4.9A2.5,2.5,0,0,0,295.93,79Z" style="fill:#eae2c2;"/><path d="M263.45,66.79a30.3,30.3,0,0,0-8,11.14c-.73,1.79-.69,4,1.43,4.72s3.54-.77,3.77-2.68c.39-3.19-4.61-3.16-5,0l0,.26,1.24-2.16-.29.12,1.93-.25-.29-.11,1.75,1.75c.15.66.16,0,.37-.4s.43-.89.66-1.32A27.91,27.91,0,0,1,262.7,75a26.88,26.88,0,0,1,4.28-4.7c2.41-2.14-1.14-5.67-3.54-3.54Z" style="fill:#e5a024;"/><path d="M264.32,64.12c-1.72-2.8.95-7.44,4.42-6.52,4,1.06,3.36,5.95,1,8.19-1.77,1.65.89,4.3,2.65,2.65,4.64-4.34,3.93-13.34-3.23-14.58-6.38-1.1-11.4,6.71-8,12.15,1.26,2.05,4.51.17,3.24-1.89Z" style="fill:#3b301b;"/><path d="M285.17,78.1l0,0a2.11,2.11,0,0,0-.17-.42c-3.4-6.19-14.4-2.59-13.25,4.47a6.83,6.83,0,0,0,8.19,5.74A7.31,7.31,0,0,0,285.17,78.1Zm-6.24,6.15a3.13,3.13,0,0,1-3.5-3.62c.57-2.48,4.84-3.36,6.22-1.23A3.56,3.56,0,0,1,278.94,84.25Z" style="fill:#3b301b;"/><path d="M270.15,72.63l1.25,1.5a1.88,1.88,0,0,0,2.65,0,1.93,1.93,0,0,0,0-2.65L272.8,70a1.88,1.88,0,0,0-2.65,0,1.93,1.93,0,0,0,0,2.65Z" style="fill:#3b301b;"/><path d="M289.56,43.31A98.76,98.76,0,0,1,296.2,32c1.81-2.67-2.52-5.17-4.32-2.52a98.76,98.76,0,0,0-6.65,11.35c-1.43,2.87,2.88,5.41,4.32,2.52Z" style="fill:#3b301b;"/><path d="M297.85,51.52l12.32-9.68c2.53-2-1-5.5-3.54-3.54L294.32,48c-2.53,2,1,5.5,3.54,3.54Z" style="fill:#3b301b;"/><path d="M302.4,60.83l8.34-2.31c3.1-.86,1.78-5.68-1.33-4.82L301.07,56c-3.1.86-1.78,5.68,1.33,4.82Z" style="fill:#3b301b;"/><path d="M138.73,131.55V139c0,3.22,5,3.22,5,0v-7.5c0-3.22-5-3.22-5,0Z" style="fill:#cf4327;"/><path d="M154.75,131.05l-.56,7a2.52,2.52,0,0,0,2.5,2.5,2.55,2.55,0,0,0,2.5-2.5l.56-7a2.52,2.52,0,0,0-2.5-2.5,2.55,2.55,0,0,0-2.5,2.5Z" style="fill:#cf4327;"/><path d="M167.66,132.05l.51,6a2.56,2.56,0,0,0,2.5,2.5,2.52,2.52,0,0,0,2.5-2.5l-.51-6a2.56,2.56,0,0,0-2.5-2.5,2.52,2.52,0,0,0-2.5,2.5Z" style="fill:#cf4327;"/><path d="M161.25,146.55l-.47,6a2.52,2.52,0,0,0,2.5,2.5,2.55,2.55,0,0,0,2.5-2.5l.47-6a2.52,2.52,0,0,0-2.5-2.5,2.55,2.55,0,0,0-2.5,2.5Z" style="fill:#cf4327;"/><path d="M147.73,149.55a15.42,15.42,0,0,1-.41,4.84c-.78,3.12,4,4.45,4.82,1.33a20,20,0,0,0,.59-6.16,2.56,2.56,0,0,0-2.5-2.5,2.52,2.52,0,0,0-2.5,2.5Z" style="fill:#cf4327;"/><path d="M151.73,164v6c0,3.22,5,3.22,5,0v-6c0-3.22-5-3.22-5,0Z" style="fill:#cf4327;"/><path d="M168.23,164.55v5c0,3.22,5,3.22,5,0v-5c0-3.22-5-3.22-5,0Z" style="fill:#cf4327;"/><path d="M159.73,184.55v5c0,3.22,5,3.22,5,0v-5c0-3.22-5-3.22-5,0Z" style="fill:#cf4327;"/><path d="M170.8,193.72a10.36,10.36,0,0,1,0,5.17c-.78,3.12,4,4.46,4.82,1.33a15.82,15.82,0,0,0,0-7.83c-.8-3.12-5.62-1.79-4.82,1.33Z" style="fill:#cf4327;"/><path d="M150.23,199.55l.5,4a2.57,2.57,0,0,0,2.5,2.5c1.22-.05,2.67-1.11,2.5-2.5l-.5-4a2.57,2.57,0,0,0-2.5-2.5c-1.22.05-2.67,1.11-2.5,2.5Z" style="fill:#cf4327;"/><path d="M159.73,212.55V217a2.5,2.5,0,0,0,5,0v-4.5a2.5,2.5,0,0,0-5,0Z" style="fill:#cf4327;"/><path d="M173.25,214.22l.5,3.5a2.51,2.51,0,0,0,3.08,1.75,2.58,2.58,0,0,0,1.75-3.08l-.5-3.5a2.51,2.51,0,0,0-3.08-1.75,2.58,2.58,0,0,0-1.75,3.08Z" style="fill:#cf4327;"/><path d="M166.23,228a18.74,18.74,0,0,0,.59,6.16c.82,3.11,5.64,1.79,4.82-1.33a14.41,14.41,0,0,1-.41-4.84,2.52,2.52,0,0,0-2.5-2.5,2.55,2.55,0,0,0-2.5,2.5Z" style="fill:#cf4327;"/><path d="M151.77,232.22l.5,3a2.51,2.51,0,0,0,3.08,1.75,2.57,2.57,0,0,0,1.75-3.08l-.5-3a2.51,2.51,0,0,0-3.08-1.75,2.57,2.57,0,0,0-1.75,3.08Z" style="fill:#cf4327;"/><path d="M158.63,245.32l-2,3.49a2.5,2.5,0,1,0,4.32,2.52l2-3.49a2.5,2.5,0,1,0-4.32-2.52Z" style="fill:#cf4327;"/><path d="M174.09,244.3l-1.49,3a2.5,2.5,0,1,0,4.32,2.52l1.49-3a2.5,2.5,0,0,0-4.32-2.52Z" style="fill:#cf4327;"/><path d="M141.45,254.38l-4,3a2.58,2.58,0,0,0-.9,3.42,2.52,2.52,0,0,0,3.42.9l4-3a2.58,2.58,0,0,0,.9-3.42,2.52,2.52,0,0,0-3.42-.9Z" style="fill:#cf4327;"/><path d="M117.72,262l-4.49.54a2.58,2.58,0,0,0-2.5,2.5,2.52,2.52,0,0,0,2.5,2.5l4.49-.54a2.58,2.58,0,0,0,2.5-2.5,2.52,2.52,0,0,0-2.5-2.5Z" style="fill:#cf4327;"/><path d="M96.56,269.14l-2.5.5a2.52,2.52,0,0,0-1.75,3.08,2.56,2.56,0,0,0,3.08,1.75l2.5-.5a2.52,2.52,0,0,0,1.75-3.08,2.56,2.56,0,0,0-3.08-1.75Z" style="fill:#cf4327;"/><path d="M74.23,275h-1.5a2.5,2.5,0,0,0,0,5h1.5a2.5,2.5,0,0,0,0-5Z" style="fill:#cf4327;"/><path d="M108.73,278h1.5a2.5,2.5,0,1,0,0-5h-1.5a2.5,2.5,0,0,0,0,5Z" style="fill:#cf4327;"/><path d="M130.89,274l3-.5a2.51,2.51,0,0,0,1.75-3.08,2.57,2.57,0,0,0-3.08-1.75l-3,.5a2.51,2.51,0,0,0-1.75,3.08,2.57,2.57,0,0,0,3.08,1.75Z" style="fill:#cf4327;"/><path d="M152.34,264.78l1.51-2a2.51,2.51,0,0,0,.25-1.93,2.55,2.55,0,0,0-1.15-1.49,2.52,2.52,0,0,0-1.93-.25,2.94,2.94,0,0,0-1.49,1.15l-1.51,2a2.51,2.51,0,0,0-.25,1.93,2.55,2.55,0,0,0,1.15,1.49,2.52,2.52,0,0,0,1.93.25,2.94,2.94,0,0,0,1.49-1.15Z" style="fill:#cf4327;"/><path d="M168.42,265.33l1.49-2.5a2.5,2.5,0,0,0-4.32-2.52l-1.49,2.5a2.5,2.5,0,1,0,4.32,2.52Z" style="fill:#cf4327;"/><path d="M154,279.71l4.5-2a2.52,2.52,0,0,0,.9-3.42,2.56,2.56,0,0,0-3.42-.9l-4.5,2a2.52,2.52,0,0,0-.9,3.42,2.56,2.56,0,0,0,3.42.9Z" style="fill:#cf4327;"/><path d="M187.28,260.76l1.51-3a2.5,2.5,0,0,0-4.32-2.52l-1.51,3a2.5,2.5,0,1,0,4.32,2.52Z" style="fill:#cf4327;"/><path d="M201.73,241h4.5a2.5,2.5,0,1,0,0-5h-4.5a2.5,2.5,0,0,0,0,5Z" style="fill:#cf4327;"/><path d="M219.56,243l.27.06q-.57-.27-.23-.08-.47-.4-.18-.14t0,0q-.2-.28,0,0t-.09-.22q.09.39,0-.26a1.53,1.53,0,0,1,0,.27,2.51,2.51,0,0,0,2.5,2.5,2.57,2.57,0,0,0,2.5-2.5,4.28,4.28,0,0,0-3.34-4.37,2.71,2.71,0,0,0-1.93.25,2.5,2.5,0,0,0,.6,4.57Z" style="fill:#cf4327;"/><path d="M210,250.71l2,1a2.5,2.5,0,1,0,2.52-4.32l-2-1a2.5,2.5,0,1,0-2.52,4.32Z" style="fill:#cf4327;"/><path d="M221.87,257.19l1,3a2.5,2.5,0,1,0,4.82-1.33l-1-3a2.5,2.5,0,0,0-4.82,1.33Z" style="fill:#cf4327;"/><path d="M190.73,148.56H191q.41,0-.21,0l.3.07q.3.1,0,0t0,0l.27.15q.33.23-.14-.11l.22.22a2.5,2.5,0,1,0,3.54-3.54,5.72,5.72,0,0,0-4.27-1.72,2.5,2.5,0,0,0,0,5Z" style="fill:#cf4327;"/><path d="M205.08,152.39l1.5.49a2.52,2.52,0,0,0,3.08-1.75,2.56,2.56,0,0,0-1.75-3.08l-1.5-.49a2.52,2.52,0,0,0-3.08,1.75,2.56,2.56,0,0,0,1.75,3.08Z" style="fill:#cf4327;"/><path d="M221.06,153.48l3.5.5a2.57,2.57,0,0,0,3.08-1.75c.27-1.18-.36-2.88-1.75-3.08l-3.5-.5a2.57,2.57,0,0,0-3.08,1.75c-.27,1.18.36,2.88,1.75,3.08Z" style="fill:#cf4327;"/><path d="M240.72,153.51l4-.5a2.57,2.57,0,0,0,2.5-2.5c-.05-1.21-1.11-2.67-2.5-2.5l-4,.5a2.57,2.57,0,0,0-2.5,2.5c.05,1.21,1.11,2.67,2.5,2.5Z" style="fill:#cf4327;"/><path d="M259,149.32l.5-.5a2.5,2.5,0,0,0-3.54-3.54l-.5.5a2.5,2.5,0,1,0,3.54,3.54Z" style="fill:#cf4327;"/><path d="M148.23,119v3.5a2.5,2.5,0,1,0,5,0V119a2.5,2.5,0,0,0-5,0Z" style="fill:#cf4327;"/><path d="M50.23,283.17l4,0a2.5,2.5,0,0,0,0-5l-4,0a2.5,2.5,0,0,0,0,5Z" style="fill:#cf4327;"/><path d="M90.89,284l.49-.16q.41-.08-.16,0h.51q-.53-.08-.24,0c.19.06.38.11.57.18a2.51,2.51,0,0,0,1.93-.25,2.5,2.5,0,0,0-.6-4.57,5.51,5.51,0,0,0-3.82,0,2.7,2.7,0,0,0-1.49,1.15A2.5,2.5,0,0,0,90.89,284Z" style="fill:#cf4327;"/><path d="M132.07,282.92l2.5.5a2.5,2.5,0,0,0,1.33-4.82l-2.5-.5a2.5,2.5,0,1,0-1.33,4.82Z" style="fill:#cf4327;"/><path d="M178,277.74l2-1.5a2.73,2.73,0,0,0,1.15-1.49,2.55,2.55,0,0,0-.25-1.93c-.66-1-2.3-1.74-3.42-.9l-2,1.5a2.73,2.73,0,0,0-1.15,1.49,2.55,2.55,0,0,0,.25,1.93c.66,1,2.3,1.74,3.42.9Z" style="fill:#cf4327;"/><path d="M301.19,233.18c-2.44-1-10.35-2.72-8.54-6.42s7.69-2.36,10.29-.71c5.45,3.46,10.47-5.19,5-8.63a19.41,19.41,0,0,0-6.56-2.66c0-.08,0-.15,0-.23a32.77,32.77,0,0,1,.1-3.47,5,5,0,0,0-5-5,5.12,5.12,0,0,0-5,5,32.55,32.55,0,0,0,0,4.59,18.17,18.17,0,0,0-3.55,1.92c-6,4.18-7.74,12.18-2.83,17.92,2.47,2.88,5.71,4.39,9.18,5.72,3.3,1.27,8.23,2.76,7.91,7.28-.48,6.72-9.54,4.52-12.92,1.82-5-4-12.1,3.05-7.07,7.07A24.47,24.47,0,0,0,292.29,262l.3,4.62c.17,2.6,2.18,5.13,5,5,2.56-.11,5.18-2.2,5-5l-.31-4.77c5.05-1.44,9-5.23,9.81-12.1C312.94,242.21,307.87,236,301.19,233.18Z" style="fill:#e5a024;"/><path d="M125.06,27.34l10,5.27c2.85,1.49,5.38-2.82,2.52-4.32l-10-5.27c-2.85-1.49-5.38,2.82-2.52,4.32Z" style="fill:#cf4327;"/><path d="M133.2,11.12l10.62,8.07c2.56,1.95,5.06-2.39,2.52-4.32L135.72,6.8c-2.56-1.95-5.06,2.39-2.52,4.32Z" style="fill:#cf4327;"/><path d="M150.13,3.71,155,11.59c1.68,2.74,6,.23,4.32-2.52l-4.85-7.89c-1.68-2.74-6-.23-4.32,2.52Z" style="fill:#cf4327;"/><path d="M139.8,112.93c-3.32,26.5-1.12,53.13,0,79.7.91,21.11,3.77,47-14.16,62.15-3.2,2.71,1.42,7.29,4.6,4.6,17.92-15.17,17-39.46,16.29-60.9-1-28.52-3.81-57.09-.25-85.54.52-4.14-6-4.1-6.5,0Z" style="fill:#f3bc63;"/><path d="M156.19,32.51a33.31,33.31,0,0,0-6.74,17.88c-.35,4.17,6.16,4.15,6.5,0a27.3,27.3,0,0,1,5.86-14.6c2.55-3.31-3.09-6.55-5.61-3.28Z" style="fill:#574730;"/><path d="M126.23,93.8l4.68-2.65a3.25,3.25,0,1,0-3.28-5.61l-4.68,2.65a3.25,3.25,0,1,0,3.28,5.61Z" style="fill:#db6653;"/><path d="M125.6,119.87l4-2.67a3.25,3.25,0,0,0-3.28-5.61l-4,2.67a3.25,3.25,0,0,0,3.28,5.61Z" style="fill:#db6653;"/><path d="M124.92,147.36l2.67-3.33a3.52,3.52,0,0,0,1-2.3,3.31,3.31,0,0,0-1-2.3c-1.18-1.08-3.46-1.42-4.6,0l-2.67,3.33a3.52,3.52,0,0,0-1,2.3,3.31,3.31,0,0,0,1,2.3c1.18,1.08,3.46,1.42,4.6,0Z" style="fill:#db6653;"/><path d="M126.17,181.94l2-2a3.25,3.25,0,0,0-4.6-4.6l-2,2a3.25,3.25,0,1,0,4.6,4.6Z" style="fill:#db6653;"/><path d="M126.92,214.69l4-3.33a3.26,3.26,0,0,0,0-4.6,3.34,3.34,0,0,0-4.6,0l-4,3.33a3.26,3.26,0,0,0,0,4.6,3.34,3.34,0,0,0,4.6,0Z" style="fill:#db6653;"/><path d="M126.17,242.61l2-2a3.25,3.25,0,1,0-4.6-4.6l-2,2a3.25,3.25,0,0,0,4.6,4.6Z" style="fill:#db6653;"/><path d="M266.65,202.44a196.79,196.79,0,0,1-5.11,23.3c-2,7.11-4.56,14.08-5.56,21.44-1.63,12,1.73,25.12,12.87,31.39,5.62,3.16,10.66-5.48,5-8.63-10.2-5.74-9.11-18.92-6.55-28.6,3.2-12.11,7-23.81,8.94-36.23,1-6.3-8.63-9-9.64-2.66Z" style="fill:#db6653;"/><path d="M151.92,83.26a13.55,13.55,0,0,1,6.37-5.32c1.61-.69,2-3.06,1.17-4.45A3.34,3.34,0,0,0,155,72.33,19.35,19.35,0,0,0,146.31,80c-2.21,3.56,3.41,6.83,5.61,3.28Z" style="fill:#f3bc63;"/><path d="M234.62,31.64,240,31c1.68-.21,3.34-1.34,3.25-3.25-.07-1.58-1.44-3.48-3.25-3.25l-5.33.67c-1.68.21-3.34,1.34-3.25,3.25.07,1.58,1.44,3.48,3.25,3.25Z" style="fill:#f3bc63;"/><path d="M443.51,169.06q.94,45,1,90c0,4.18,6.5,4.19,6.5,0q0-45-1-90c-.09-4.18-6.59-4.19-6.5,0Z" style="fill:#f3bc63;"/></g></g></svg>