<svg xmlns="http://www.w3.org/2000/svg" viewBox="0 0 406.66 419.83"><title>No Connection</title><g id="Layer_2" data-name="Layer 2"><g id="Layer_1-2" data-name="Layer 1"><path d="M258.64,361.9c-.61-15.24-1.78-30.45-3.39-45.62-.25-2.31-3-3.86-4.81-2a174.52,174.52,0,0,0-16.9,19.79,178.72,178.72,0,0,0-4.46-25.78,2.84,2.84,0,0,0-4.71-1.24q-13.26,14.46-26.82,28.64a94,94,0,0,0-7.63-28.6,2.83,2.83,0,0,0-4.42-.57l-27.14,32.63-6.28-34.54c-.49-2.68-3.84-2.36-5.15-.67a126.14,126.14,0,0,0-18.58,33.63l-8.41-27.06a2.64,2.64,0,0,0-1.84-1.84,2.82,2.82,0,0,0-3.66,1.92c-9.8,20.45-13.65,41.75-14.08,64.32-.14,7.06-.45,14.7,2.35,21.34,3,7.19,8.84,9.39,16.16,10.33,26.19,3.36,53,2.21,79.33,2.36,12.64.07,25.47.82,38.09.1,8.75-.5,16.72-3.67,20.33-12.17C261.1,386.37,259.09,373,258.64,361.9Z" style="fill:#eae2c2;"/><path d="M397.76,315.7c-30.12,3.12-57.66,15.42-83.61,30.35,27.92-30.4,59.4-58.63,75.85-97.18,1.07-2.51-1.17-5.26-3.85-3.85a267.81,267.81,0,0,0-61.59,44.65,268.89,268.89,0,0,0,22.8-58,2.58,2.58,0,0,0-.82-2.74,2.47,2.47,0,0,0-3.11-.54,2.43,2.43,0,0,0-.63.37,222.6,222.6,0,0,0-48,41.13c-13.23,15-27.12,31.56-34.45,50.33-8,20.46-9.33,44.39-6.23,66,.71,4.92,1.09,11.23,3.79,15.57,2.23,3.59,6.27,4.61,10.17,5.31,10.76,1.92,21.73,1.21,32.43-.75,27.11-5,53.72-15.86,78.4-27.88,2.77-1.35,1.06-5-1.42-5.25-18.89-2-37.58.72-56,4.47q40-27.38,78.27-57.13C401.63,319.05,400.1,315.46,397.76,315.7Z" style="fill:#eae2c2;"/><path d="M99,359.78A2.67,2.67,0,0,0,96,358.51c1.42-7.59-.61-15.33-3.54-22.7a237.55,237.55,0,0,0-16.7-33.55c-1.14-1.92-4.72-1.81-5.15.67a107.74,107.74,0,0,0-.2,35.55c-15.81-26.74-33.09-52.75-56.6-73.38a2.84,2.84,0,0,0-4.71,2.74,326.31,326.31,0,0,0,38,97c-12.6-12-26.23-22.76-42.3-29.82-1.08-1.15-2.84-.72-3.85.45a2.53,2.53,0,0,0-.27,3.67,174.48,174.48,0,0,0,18.82,32.17c8.13,11.14,17.7,22.29,29.87,29.16,11.79,6.66,24,6.52,35.69-.42C98.76,391.88,107,374.75,99,359.78Z" style="fill:#eae2c2;"/><path d="M272.22,254.19c-8.8-5.91-19.7-8.15-30.08-9.14-11.37-1.08-22.94-1.68-34.35-2.17-20.3-.87-41.78,1.19-60.12,10.54-7.52,3.84-12.14,10.12-15.77,17.59-4.44,9.11-8.3,17.72-15.25,25.33-7.75,8.49-19.34,11.85-26.39,21-6.26,8.1-7.44,18-9.37,27.77C79.79,350.59,78.5,356.51,75,361s-9.58,4.8-13,9.09c-.1.13-.19.27-.29.41a5.12,5.12,0,0,0-2.3,4.48V405.4s0,.05,0,.08v.67c0,7.25,11.26,7.26,11.26,0v-29a47.26,47.26,0,0,0,22.81-4.54c10.19-4.88,16.61-16.18,28.71-16.12,25.08.13,50.26,2.52,75.32,3.5,20.52.81,42.68.18,59.88-12.53,14.79-10.92,24.07-28,28.12-45.75C289.38,284.77,288,264.76,272.22,254.19Z" style="fill:#e5a024;"/><path d="M353.92,231.82c-2.68-17.8-7.52-37.63-17.76-52.76-7.68-11.34-20.29-21.57-34.65-21.41a30.43,30.43,0,0,0-18.79,7.11c-6.2,5-11,11.87-18.87,14.46-12.83,4.23-32,1.88-38.32-11.46-2.68-7.92-.56-15.9-.49-24a38.05,38.05,0,0,0-3-15.68c-5-11.22-15.61-16.09-27.19-17.95-28.41-4.57-55,9.75-74,30-2.29,2.45.57,5.69,3.41,4.42a37.26,37.26,0,0,1,17.39-3.23C113.61,163,97.67,197,92.47,231.82c-.36,2.39,2.73,5.23,4.71,2.74a128.15,128.15,0,0,1,24.69-23.74,112.87,112.87,0,0,0,4.47,83.13c1,2.09,4.81,1.69,5.15-.67a122,122,0,0,1,9.25-32.19c3,26.17,18.49,48.81,34.33,69.48,1.89,2.47,5.83,1.13,5.15-2.17a77.08,77.08,0,0,1,2.52-40.8,113.49,113.49,0,0,0,14.54,31.23,115.56,115.56,0,0,0,12.6,15.69c3.13,3.26,8.46,10.35,13.33,10.35s10.23-7.12,13.33-10.35a115.09,115.09,0,0,0,12.6-15.69,113.51,113.51,0,0,0,14.54-31.23,77.07,77.07,0,0,1,2.52,40.8c-.68,3.28,3.24,4.66,5.15,2.17,15.84-20.68,31.37-43.32,34.33-69.48a122,122,0,0,1,9.25,32.19c.34,2.34,4.18,2.78,5.15.67a112.87,112.87,0,0,0,4.47-83.13,128.14,128.14,0,0,1,24.69,23.75C351.19,237,354.28,234.21,353.92,231.82Z" style="fill:#cf4327;"/><path d="M314.08,140.14c-6.15-4.59-10.3,1.44-14.13,5.7a3.29,3.29,0,0,0-.45.65c-4.19,4.68-8.33,9.41-12.59,14-3.66,3.95-8.23,6.08-13.17,2.39-2.63-2-5-4.47-7.41-6.66-.37-.33-.77-.67-1.19-1A2.37,2.37,0,0,0,265,155l-7.35-6.6-.24-.27a13.43,13.43,0,0,1-1.9-3c-1.24-3.37.16-6.87,2.52-10.17,1.34-1.51,2.84-2.91,4-4.21l6-6.66a3,3,0,0,0,.33-.45,2.7,2.7,0,0,0,.18-.35l.08-.17c0-.07,0-.13.06-.2a2.54,2.54,0,0,0-.65-2.82L253.16,108a2.91,2.91,0,0,0-4,0l-20.34,17.52c-21-21.81-58.81,0-66.15,25A27.62,27.62,0,0,0,162,164c3.25,33.5,41.32,56.37,73.75,51.12,18.61-3,35.06-13.6,49.21-25.58a262.39,262.39,0,0,0,21.2-20.38c4.51-4.78,9.67-9.6,13.59-14.9C324.11,148.43,318.69,143.57,314.08,140.14Z" style="fill:#e5a024;"/><path d="M261.22,113.68l-7.35-6.86a2.66,2.66,0,0,0-2.66-.66,2.86,2.86,0,0,0-1.32.66l-7.65,6.66c-1.9,1.66-.32,4.78,2,4.81l15,.2A2.85,2.85,0,0,0,261.22,113.68Z" style="fill:#3b301b;"/><path d="M229.43,144.93a3.1,3.1,0,0,0,0-.64c-.77-11.87-10-21.63-22.28-21.68a22.32,22.32,0,0,0,0,44.63c12.28,0,21.51-9.83,22.28-21.68A3.08,3.08,0,0,0,229.43,144.93Z" style="fill:#eae2c2;"/><path d="M222.5,145.54a2.87,2.87,0,0,0-.08-.83c-.81-8-6.9-14.57-15.31-14.57a15.38,15.38,0,0,0-.69,30.75c8.68.38,15.16-6.28,16-14.52A2.88,2.88,0,0,0,222.5,145.54Z" style="fill:#3b301b;"/><path d="M258.38,130.06a75.37,75.37,0,0,1,7.38,6.25c2.62,2.51,6.61-1.47,4-4a86.53,86.53,0,0,0-8.52-7.13,2.84,2.84,0,0,0-3.85,1,2.88,2.88,0,0,0,1,3.85Z" style="fill:#e5a024;"/><path d="M282.93,158.19a38.6,38.6,0,0,0,6.24,5.66,2.84,2.84,0,0,0,3.85-1,2.88,2.88,0,0,0-1-3.85,32.24,32.24,0,0,1-5.1-4.78,2.82,2.82,0,0,0-4,4Z" style="fill:#e5a024;"/><path d="M291.36,148.22a68.65,68.65,0,0,1,6.94,6.24c2.53,2.6,6.51-1.38,4-4a68.65,68.65,0,0,0-6.94-6.24,2.91,2.91,0,0,0-4,0c-1,1-1.2,3,0,4Z" style="fill:#e5a024;"/><path d="M182.28,127a214.62,214.62,0,0,1,23.48-8.37c6.94-2,4-12.92-3-10.86a239.24,239.24,0,0,0-26.17,9.5c-6.65,2.84-.91,12.54,5.68,9.73Z" style="fill:#3b301b;"/><path d="M261.7,119.07c-5.78,5.32-13,11-13.18,19.63-.16,9.16,7.57,16.22,14.09,21.54,7,5.67,14,11,23.27,7.06,9.62-4,17.46-13.9,24.33-21.43,4.88-5.34-3.06-13.33-8-8a164.41,164.41,0,0,1-16.13,16c-2.26,1.87-5.14,4.19-8.27,3.37-2.69-.7-5.17-3.32-7.27-5-3.58-2.92-10.53-7.73-10.82-12.86-.27-5,6.71-9.43,9.9-12.38,5.34-4.92-2.64-12.87-8-8Z" style="fill:#cf4327;"/><path d="M286.56,101.14c13.13,2.27,25,10.56,30.06,23.19,1.69,4.22,5.65,7.23,10.39,5.9,4-1.12,7.61-6.12,5.9-10.39-7.19-17.93-22.54-31.66-41.86-35-10.63-1.84-15.2,14.44-4.49,16.29Z" style="fill:#3b301b;"/><path d="M289,69.59c27,4.42,51.07,22.61,61.13,48.33,1.65,4.23,5.67,7.22,10.39,5.9,4-1.13,7.58-6.1,5.9-10.39-12.11-31-39.81-54.71-72.93-60.13-10.64-1.74-15.21,14.54-4.49,16.29Z" style="fill:#3b301b;"/><path d="M289.94,34.19c40.6,6.51,76.82,34.51,91.77,73.12,1.64,4.24,5.68,7.22,10.39,5.9,4.06-1.14,7.56-6.1,5.9-10.39C381,59,341.16,25.4,294.43,17.9c-4.54-.73-9,1.17-10.39,5.9-1.15,4,1.4,9.67,5.9,10.39Z" style="fill:#3b301b;"/><path d="M404.18,28.19l-6.88-6.88,6.88-6.88c7.7-7.7-4.25-19.65-11.95-11.95l-6.88,6.88-6.88-6.88c-7.7-7.7-19.65,4.25-11.95,11.95l6.88,6.88-6.88,6.88c-7.7,7.7,4.25,19.65,11.95,11.95l6.88-6.88,6.88,6.88C399.93,47.84,411.88,35.89,404.18,28.19Z" style="fill:#cf4327;"/><path d="M231,346.34v59.9c0,7.25,11.26,7.26,11.26,0v-59.9c0-7.25-11.26-7.26-11.26,0Z" style="fill:#e5a024;"/><path d="M248.49,339.15v67.09c0,7.25,11.26,7.26,11.26,0V339.15c0-7.25-11.26-7.26-11.26,0Z" style="fill:#e5a024;"/><path d="M85.57,405.4c.12-4.46-1.79-14.86,3.29-17.23,2.7-1.26,7.15-.84,10.14-1.76a48.38,48.38,0,0,0,9.55-4.11,43.53,43.53,0,0,0,13.85-12.84c4.32-6,8.43-10.31,15-13.93,6.34-3.52.67-13.25-5.68-9.73a48,48,0,0,0-16.48,14.28c-5.36,7.59-10.88,13.13-20.15,15.74-7.28,2.05-13.58.95-17.9,8.48-3.64,6.37-2.65,14.09-2.84,21.1-.2,7.25,11.06,7.25,11.26,0Z" style="fill:#e5a024;"/><path d="M58.42,280.09C57.41,290.6,67.95,294.26,76,297c13.82,4.75,15.83,18,16.8,31,.27,3.59,5.9,3.62,5.63,0-.74-10-1.76-20.49-8.38-28.51a24.62,24.62,0,0,0-10.79-7.33c-5.86-2.18-16-3.76-15.18-12.11.35-3.61-5.29-3.58-5.63,0Z" style="fill:#e5a024;"/><path d="M70.91,259.69a49.9,49.9,0,0,0-7.32,4.93c-1.59-4.55-3.06-10.34-8-11.24a3,3,0,0,0-3.18,1.29c-2.64,3.69-3.16,9.6-3,14.66-1.12-.42-2.26-.81-3.42-1.17a2.85,2.85,0,0,0-3.18,4.14c3.48,6.24,6,11.93,14,13.29C65.79,287.12,72,279.65,74,271.78a59.74,59.74,0,0,0,1.13-9.66A2.84,2.84,0,0,0,70.91,259.69Z" style="fill:#cf4327;"/><path d="M104.25,219.94a94.65,94.65,0,0,1,33.61-56.73c2.81-2.29-1.19-6.25-4-4a99.38,99.38,0,0,0-35.06,59.21c-.65,3.54,4.78,5.06,5.43,1.5Z" style="fill:#db6653;"/><path d="M129.74,273.23A99.29,99.29,0,0,1,135,212.28c1.39-3.34-4.05-4.8-5.43-1.5a104.42,104.42,0,0,0-5.25,63.94c.82,3.53,6.25,2,5.43-1.5Z" style="fill:#db6653;"/><path d="M172.47,310.94a101,101,0,0,1-19.83-55.71c-.16-3.61-5.79-3.63-5.63,0a106.2,106.2,0,0,0,20.6,58.55c2.13,2.89,7,.08,4.86-2.84Z" style="fill:#db6653;"/><path d="M189.86,287.15a104.89,104.89,0,0,0,29,49.29c2.62,2.51,6.6-1.47,4-4a99.27,99.27,0,0,1-27.51-46.81c-.92-3.5-6.35-2-5.43,1.5Z" style="fill:#db6653;"/><path d="M275.57,319.47c1.09-14,1.68-28.4-5.79-40.93-1.85-3.11-6.72-.28-4.86,2.84,6.93,11.62,6,25.11,5,38.09-.28,3.61,5.35,3.6,5.63,0Z" style="fill:#db6653;"/><path d="M321.16,279.63a65.68,65.68,0,0,0-8.64-29.16c-1.8-3.14-6.67-.31-4.86,2.84a59.14,59.14,0,0,1,7.87,26.31c.21,3.6,5.84,3.63,5.63,0Z" style="fill:#db6653;"/><path d="M329.63,210.2a56.18,56.18,0,0,1,15.07,15.94c1.93,3.06,6.81.23,4.86-2.84a63.26,63.26,0,0,0-17.09-18c-3-2.1-5.78,2.78-2.84,4.86Z" style="fill:#db6653;"/><path d="M234,223.55c16.79.26,31.76-7.7,45-17.34,13.53-9.85,26.33-20.86,36.2-34.47,2.13-2.94-2.75-5.75-4.86-2.84-9.26,12.77-21.49,23.21-34.18,32.45-12.44,9.06-26.36,16.82-42.17,16.58-3.63-.06-3.63,5.58,0,5.63Z" style="fill:#db6653;"/><path d="M294.92,158.49a118.44,118.44,0,0,0,11.62-11.66c2.36-2.73-1.6-6.73-4-4a118.44,118.44,0,0,1-11.62,11.66c-2.73,2.39,1.26,6.36,4,4Z" style="fill:#db6653;"/><path d="M258.07,132.53a49.21,49.21,0,0,1,5.31-5.59,2.82,2.82,0,0,0-4-4,49.21,49.21,0,0,0-5.31,5.59,2.9,2.9,0,0,0,0,4,2.84,2.84,0,0,0,4,0Z" style="fill:#db6653;"/><path d="M46.85,277.14l1.88,1.5a3.05,3.05,0,0,0,2,.82,2.87,2.87,0,0,0,2-.82c.94-1,1.23-3,0-4l-1.88-1.5a3.05,3.05,0,0,0-2-.82,2.87,2.87,0,0,0-2,.82c-.94,1-1.23,3,0,4Z" style="fill:#db6653;"/><path d="M52.91,259a19.3,19.3,0,0,0,.38,7.88c.93,3.5,6.37,2,5.43-1.5a12.24,12.24,0,0,1-.38-4.89,2.91,2.91,0,0,0-2-3.46c-1.32-.36-3.25.45-3.46,2Z" style="fill:#db6653;"/><path d="M66,265.06l-1.13,2.25a2.82,2.82,0,0,0,4.86,2.84l1.13-2.25A2.82,2.82,0,0,0,66,265.06Z" style="fill:#db6653;"/><path d="M237.08,128.81a23.57,23.57,0,0,1,1.85-1.72,5.61,5.61,0,0,1,.6-.47c.36-.26.73-.51,1.11-.75A2.82,2.82,0,0,0,237.8,121a26.72,26.72,0,0,0-4.7,3.82,2.82,2.82,0,0,0,4,4Z" style="fill:#f3bc63;"/><path d="M194.58,171c16.34,10.32,39.51-2.55,40.61-21.26.21-3.62-5.42-3.61-5.63,0-.86,14.62-19.61,24.31-32.14,16.4-3.07-1.94-5.9,2.93-2.84,4.86Z" style="fill:#f3bc63;"/><path d="M295.38,170.11c8-5.47,16-11.18,21-19.72,1.84-3.13-3-6-4.86-2.84-4.51,7.69-11.8,12.78-19,17.7-3,2-.16,6.91,2.84,4.86Z" style="fill:#f3bc63;"/><path d="M180.81,127.5c-18.16,14-22.56,39.14-9.26,58.11,2.07,2.95,7,.13,4.86-2.84-11.37-16.2-8.64-38.18,7.24-50.4,2.83-2.18,0-7.07-2.84-4.86Z" style="fill:#f3bc63;"/><path d="M82.27,366c9.83-12,5.84-28.69,14.51-41,2.09-3-2.8-5.79-4.86-2.84-8.38,12-4.37,28.61-13.63,39.91-2.28,2.78,1.68,6.79,4,4Z" style="fill:#f3bc63;"/><path d="M103.88,315.25a53.6,53.6,0,0,0,17.25-12.55c2.45-2.67-1.52-6.66-4-4A49.59,49.59,0,0,1,101,310.39c-3.29,1.5-.43,6.36,2.84,4.86Z" style="fill:#f3bc63;"/><path d="M139.15,284.43l1.13-1.88a2.82,2.82,0,1,0-4.86-2.84l-1.13,1.88a2.82,2.82,0,1,0,4.86,2.84Z" style="fill:#f3bc63;"/><path d="M233.15,309.61l-6,4.93a2.84,2.84,0,0,0,0,4,2.88,2.88,0,0,0,4,0l6-4.93a2.84,2.84,0,0,0,0-4,2.88,2.88,0,0,0-4,0Z" style="fill:#eae2c2;"/><path d="M225.44,298.66,230,302a2.82,2.82,0,0,0,3.85-1,2.9,2.9,0,0,0-1-3.85l-4.52-3.36a2.82,2.82,0,0,0-3.85,1,2.9,2.9,0,0,0,1,3.85Z" style="fill:#eae2c2;"/><path d="M244.36,284.58l-1.42,5.07c-1,3.5,4.45,5,5.43,1.5l1.42-5.07c1-3.5-4.45-5-5.43-1.5Z" style="fill:#eae2c2;"/><path d="M244.76,301.42l3.39,2.81a2.88,2.88,0,0,0,4,0,2.85,2.85,0,0,0,0-4l-3.39-2.81a2.88,2.88,0,0,0-4,0,2.85,2.85,0,0,0,0,4Z" style="fill:#eae2c2;"/><path d="M234.39,321.65a13.41,13.41,0,0,0,.66,4.41,2.82,2.82,0,0,0,5.43-1.5,14.53,14.53,0,0,1-.42-1.67q-.05-.31,0,.09,0-.2,0-.4c0-.31,0-.62,0-.93a2.82,2.82,0,1,0-5.63,0Z" style="fill:#eae2c2;"/><path d="M213.65,307.84l-2.53,4.22A2.82,2.82,0,1,0,216,314.9l2.53-4.22a2.82,2.82,0,0,0-4.86-2.84Z" style="fill:#eae2c2;"/><path d="M204.4,294.68a18.5,18.5,0,0,1,4.33,2.51,2.91,2.91,0,0,0,4,0c1-1,1.2-3,0-4a27.89,27.89,0,0,0-6.81-4c-1.41-.57-3.09.62-3.46,2a2.89,2.89,0,0,0,2,3.46Z" style="fill:#eae2c2;"/><path d="M221.29,275.19l-2.54,5.63a2.9,2.9,0,0,0,1,3.85,2.84,2.84,0,0,0,3.85-1l2.54-5.63a2.9,2.9,0,0,0-1-3.85,2.84,2.84,0,0,0-3.85,1Z" style="fill:#eae2c2;"/><path d="M231.83,267.32a29.33,29.33,0,0,0,5.08,4.1,2.84,2.84,0,0,0,3.85-1,2.88,2.88,0,0,0-1-3.85,21.29,21.29,0,0,1-3.94-3.22,2.82,2.82,0,0,0-4,4Z" style="fill:#eae2c2;"/><path d="M232.39,282.7l1.12.85a2.83,2.83,0,0,0,2.17.28,2.87,2.87,0,0,0,1.68-1.29,2.84,2.84,0,0,0,.28-2.17,3.29,3.29,0,0,0-1.29-1.68l-1.12-.85a2.83,2.83,0,0,0-2.17-.28,2.87,2.87,0,0,0-1.68,1.29,2.84,2.84,0,0,0-.28,2.17,3.29,3.29,0,0,0,1.29,1.68Z" style="fill:#eae2c2;"/><path d="M253.16,273.11l5.36-2a2.89,2.89,0,0,0,2-3.46,2.84,2.84,0,0,0-3.46-2l-5.36,2a2.89,2.89,0,0,0-2,3.46,2.84,2.84,0,0,0,3.46,2Z" style="fill:#eae2c2;"/><path d="M276.7,253.59a30.42,30.42,0,0,1-2.49,5.26c-1.85,3.13,3,6,4.86,2.84a38.22,38.22,0,0,0,3.06-6.6,2.84,2.84,0,0,0-2-3.46,2.87,2.87,0,0,0-3.46,2Z" style="fill:#eae2c2;"/><path d="M278.61,272.5l.5.3c.22.15.38.29.08,0a10.93,10.93,0,0,1,.83.8c.2.2.15.17,0,0,.11.16.22.31.33.48a8,8,0,0,1,.58,1.13,2.82,2.82,0,0,0,3.85,1,2.91,2.91,0,0,0,1-3.85,10.16,10.16,0,0,0-4.34-4.73,2.82,2.82,0,0,0-2.84,4.86Z" style="fill:#eae2c2;"/><path d="M283.77,285.31,281,289.81a2.84,2.84,0,0,0,1,3.85,2.87,2.87,0,0,0,3.85-1l2.82-4.51a2.84,2.84,0,0,0-1-3.85,2.87,2.87,0,0,0-3.85,1Z" style="fill:#eae2c2;"/><path d="M269,274.24l1.13-.56a2.83,2.83,0,0,0,1-3.85,2.89,2.89,0,0,0-3.85-1l-1.13.56a2.83,2.83,0,0,0-1,3.85,2.89,2.89,0,0,0,3.85,1Z" style="fill:#eae2c2;"/><path d="M290.24,256.78l1.41,5.35c.92,3.5,6.36,2,5.43-1.5l-1.41-5.35c-.92-3.5-6.36-2-5.43,1.5Z" style="fill:#eae2c2;"/><path d="M295.87,241.29l6.19,2.25a2.84,2.84,0,0,0,3.46-2,2.87,2.87,0,0,0-2-3.46l-6.19-2.25a2.84,2.84,0,0,0-3.46,2,2.87,2.87,0,0,0,2,3.46Z" style="fill:#eae2c2;"/><path d="M283.21,234.62,281,238.85a2.82,2.82,0,0,0,4.86,2.84l2.25-4.22a2.82,2.82,0,1,0-4.86-2.84Z" style="fill:#eae2c2;"/><path d="M257.76,253.78l4.51-.28a2.82,2.82,0,0,0,0-5.63l-4.51.28a2.82,2.82,0,1,0,0,5.63Z" style="fill:#eae2c2;"/><path d="M240.67,249.75l.92,4.21a2.84,2.84,0,0,0,3.46,2,2.88,2.88,0,0,0,2-3.46l-.92-4.21a2.84,2.84,0,0,0-3.46-2,2.88,2.88,0,0,0-2,3.46Z" style="fill:#eae2c2;"/><path d="M258.87,229.55l-3.94,4.22a2.82,2.82,0,1,0,4,4l3.94-4.22a2.82,2.82,0,0,0-4-4Z" style="fill:#eae2c2;"/><path d="M229,243.83l3.1,1.41a2.89,2.89,0,0,0,3.85-1c.65-1.23.42-3.2-1-3.85l-3.1-1.41a2.89,2.89,0,0,0-3.85,1c-.65,1.23-.42,3.2,1,3.85Z" style="fill:#eae2c2;"/><path d="M225.33,251.49,222.8,254a2.82,2.82,0,1,0,4,4l2.53-2.54a2.82,2.82,0,0,0-4-4Z" style="fill:#eae2c2;"/><path d="M207.05,263.66a12.83,12.83,0,0,0,3.67,3,2.82,2.82,0,0,0,2.84-4.86c-.27-.14-.53-.3-.78-.46l-.42-.28c-.43-.29.26.24,0,0a16.27,16.27,0,0,1-1.35-1.36,2.83,2.83,0,0,0-4,0,2.89,2.89,0,0,0,0,4Z" style="fill:#eae2c2;"/><path d="M201.27,275.18a7.82,7.82,0,0,0-1.44,3.48,3.1,3.1,0,0,0,.28,2.17,2.87,2.87,0,0,0,1.68,1.29c1.33.3,3.24-.41,3.46-2a6.57,6.57,0,0,1,.15-.75c0-.08.21-.84.11-.39q-.14.33,0,0l.18-.34a6.57,6.57,0,0,1,.43-.64,2.83,2.83,0,0,0,.28-2.17,2.82,2.82,0,0,0-5.15-.67Z" style="fill:#eae2c2;"/><path d="M188.47,265.87l-3.66,3.1a2.83,2.83,0,0,0,0,4,2.89,2.89,0,0,0,4,0l3.66-3.1a2.83,2.83,0,0,0,0-4,2.89,2.89,0,0,0-4,0Z" style="fill:#eae2c2;"/><path d="M168.48,279.43l2.25,2.25a2.82,2.82,0,1,0,4-4l-2.25-2.25a2.82,2.82,0,0,0-4,4Z" style="fill:#eae2c2;"/><path d="M168,291.15l.87,3.94a2.84,2.84,0,0,0,3.46,2,2.88,2.88,0,0,0,2-3.46l-.87-3.94a2.84,2.84,0,0,0-3.46-2,2.88,2.88,0,0,0-2,3.46Z" style="fill:#eae2c2;"/><path d="M163,270.36c0-.05.44-.61.27-.39s.19-.22.22-.25a11.43,11.43,0,0,1,1-1s.43-.37.25-.22.34-.24.39-.27a12.59,12.59,0,0,1,1.2-.7,2.84,2.84,0,0,0,1-3.85,2.88,2.88,0,0,0-3.85-1,14.74,14.74,0,0,0-5.34,4.85,2.83,2.83,0,0,0,1,3.85,2.89,2.89,0,0,0,3.85-1Z" style="fill:#eae2c2;"/><path d="M173.56,253.5l.28,5.91a2.88,2.88,0,0,0,2.82,2.82,2.84,2.84,0,0,0,2.82-2.82l-.28-5.91a2.88,2.88,0,0,0-2.82-2.82,2.84,2.84,0,0,0-2.82,2.82Z" style="fill:#eae2c2;"/><path d="M187.07,255.09a11,11,0,0,0,5.08,1.23,2.82,2.82,0,1,0,0-5.63l-.76,0q-.5,0,0,0l-.37-.08a7.55,7.55,0,0,1-.73-.21l-.36-.13q.43.18,0,0a2.82,2.82,0,0,0-2.84,4.86Z" style="fill:#eae2c2;"/><path d="M204.57,241.39V247c0,3.62,5.63,3.63,5.63,0v-5.63c0-3.62-5.63-3.63-5.63,0Z" style="fill:#eae2c2;"/><path d="M218.88,227.29l-2.82,2.82a2.82,2.82,0,0,0,4,4l2.82-2.82a2.82,2.82,0,0,0-4-4Z" style="fill:#eae2c2;"/><path d="M191,230.87c.7.38,1.39.79,2.05,1.23q.5.33,1,.68l.48.36q-.26-.2.14.11a2.89,2.89,0,0,0,4,0c.94-1,1.23-3,0-4a32.7,32.7,0,0,0-4.79-3.26,2.82,2.82,0,1,0-2.84,4.86Z" style="fill:#eae2c2;"/><path d="M181.71,235.18,178,239.4a2.82,2.82,0,0,0,4,4l3.66-4.22a2.82,2.82,0,1,0-4-4Z" style="fill:#eae2c2;"/><path d="M156.4,243.22l3.93,2.55a2.84,2.84,0,0,0,3.85-1,2.88,2.88,0,0,0-1-3.85l-3.93-2.55a2.84,2.84,0,0,0-3.85,1,2.88,2.88,0,0,0,1,3.85Z" style="fill:#eae2c2;"/><path d="M139.48,236.87l-2.54,3.1a2.88,2.88,0,0,0,0,4c1,.95,3,1.22,4,0l2.54-3.1a2.88,2.88,0,0,0,0-4c-1-.95-3-1.22-4,0Z" style="fill:#eae2c2;"/><path d="M135.52,226.5l3.1,2.81a2.82,2.82,0,0,0,4-4l-3.1-2.81a2.82,2.82,0,0,0-4,4Z" style="fill:#eae2c2;"/><path d="M130.86,256.2l2.81.6a2.82,2.82,0,1,0,1.5-5.43l-2.81-.6a2.82,2.82,0,0,0-1.5,5.43Z" style="fill:#eae2c2;"/><path d="M149.73,224l-.56,3.66a2.89,2.89,0,0,0,2,3.46c1.34.31,3.22-.41,3.46-2l.56-3.66a2.89,2.89,0,0,0-2-3.46c-1.34-.31-3.22.41-3.46,2Z" style="fill:#eae2c2;"/><path d="M163.4,221.14a16,16,0,0,0,4.52,3.24,2.88,2.88,0,0,0,3.85-1,2.85,2.85,0,0,0-1-3.85,13.86,13.86,0,0,1-2-1.14s-.46-.33-.26-.18-.2-.17-.24-.21c-.31-.27-.6-.55-.89-.84a2.82,2.82,0,0,0-4,4Z" style="fill:#eae2c2;"/><path d="M182.72,208.47l-2.56,3.64a2.83,2.83,0,0,0,1,3.85,2.89,2.89,0,0,0,3.85-1l2.56-3.64a2.83,2.83,0,0,0-1-3.85,2.89,2.89,0,0,0-3.85,1Z" style="fill:#eae2c2;"/><path d="M161.56,203.67a20.14,20.14,0,0,0,3,4.23,2.84,2.84,0,0,0,4,0,2.88,2.88,0,0,0,0-4q-.33-.37-.65-.75c-.15-.19-.17-.24,0,0l-.36-.51a17.37,17.37,0,0,1-1.07-1.81,2.84,2.84,0,0,0-3.85-1,2.88,2.88,0,0,0-1,3.85Z" style="fill:#eae2c2;"/><path d="M147.39,213.41l3.66-2a2.84,2.84,0,0,0,1-3.85,2.88,2.88,0,0,0-3.85-1l-3.66,2a2.84,2.84,0,0,0-1,3.85,2.88,2.88,0,0,0,3.85,1Z" style="fill:#eae2c2;"/><path d="M121.24,191.51a61.86,61.86,0,0,1-4,5.39,2.89,2.89,0,0,0,0,4,2.84,2.84,0,0,0,4,0,75.26,75.26,0,0,0,4.88-6.53,2.82,2.82,0,1,0-4.86-2.84Z" style="fill:#eae2c2;"/><path d="M128.94,190.41a32.94,32.94,0,0,0,4,5.12,2.82,2.82,0,0,0,4-4,23.61,23.61,0,0,1-3.16-4,2.82,2.82,0,0,0-4.86,2.84Z" style="fill:#eae2c2;"/><path d="M141.47,205.52l3.94-2a2.83,2.83,0,0,0,1-3.85,2.89,2.89,0,0,0-3.85-1l-3.94,2a2.83,2.83,0,0,0-1,3.85,2.89,2.89,0,0,0,3.85,1Z" style="fill:#eae2c2;"/><path d="M153.38,184.21l-2.23,3.39a2.84,2.84,0,0,0,1,3.85,2.88,2.88,0,0,0,3.85-1l2.23-3.39a2.84,2.84,0,0,0-1-3.85,2.88,2.88,0,0,0-3.85,1Z" style="fill:#eae2c2;"/><path d="M140.34,183.08a3.1,3.1,0,0,1,2.22.9,2.82,2.82,0,0,0,4-4,9.1,9.1,0,0,0-6.2-2.55,2.82,2.82,0,0,0,0,5.63Z" style="fill:#eae2c2;"/><path d="M146.83,163.68a17.71,17.71,0,0,0,0,3.94,2.88,2.88,0,0,0,2.82,2.82c1.39-.06,3-1.25,2.82-2.82a17.71,17.71,0,0,1,0-3.94,2.82,2.82,0,0,0-2.82-2.82,2.9,2.9,0,0,0-2.82,2.82Z" style="fill:#eae2c2;"/><path d="M132.36,177.94l2-.56a2.82,2.82,0,1,0-1.5-5.43l-2,.56a2.82,2.82,0,1,0,1.5,5.43Z" style="fill:#eae2c2;"/><path d="M143.16,148.19a13.69,13.69,0,0,0,.35,4.41,2.84,2.84,0,0,0,3.46,2,2.88,2.88,0,0,0,2-3.46c-.06-.26-.11-.51-.16-.77.11.59,0-.3,0-.43a11.38,11.38,0,0,1,0-1.71,2.83,2.83,0,0,0-2.82-2.82,2.89,2.89,0,0,0-2.82,2.82Z" style="fill:#eae2c2;"/><path d="M142.59,134.1c.23,0,.45,0,.68,0l.45,0q-.5-.07-.19,0c.47.15.94.25,1.4.44a2.82,2.82,0,0,0,2.17-.28,2.82,2.82,0,0,0,1-3.85,3.34,3.34,0,0,0-1.68-1.29,9.21,9.21,0,0,0-3.85-.67,2.82,2.82,0,0,0,0,5.63Z" style="fill:#eae2c2;"/><path d="M156.8,120.31l-2,3.66a2.82,2.82,0,1,0,4.86,2.84l2-3.66a2.82,2.82,0,0,0-4.86-2.84Z" style="fill:#eae2c2;"/><path d="M156.67,138.33a13.18,13.18,0,0,1,4,.46,2.82,2.82,0,1,0,1.5-5.43,19.83,19.83,0,0,0-5.54-.66,2.82,2.82,0,0,0,0,5.63Z" style="fill:#eae2c2;"/><path d="M153.67,147.44a21.48,21.48,0,0,0-.38,4.69,2.82,2.82,0,1,0,5.63,0c0-.61,0-1.22,0-1.83,0-.3,0-.61.08-.91-.06.45.08-.44.09-.46a2.82,2.82,0,0,0-5.43-1.5Z" style="fill:#eae2c2;"/><path d="M205.95,224.78H211a2.82,2.82,0,1,0,0-5.63h-5.07a2.82,2.82,0,0,0,0,5.63Z" style="fill:#eae2c2;"/><path d="M238.06,228.44a13.27,13.27,0,0,0,.33,4.42,2.84,2.84,0,0,0,3.46,2,2.88,2.88,0,0,0,2-3.46c-.06-.26-.11-.51-.16-.78.1.59,0-.3,0-.43a11,11,0,0,1,.06-1.71,2.82,2.82,0,0,0-2.82-2.82,2.9,2.9,0,0,0-2.82,2.82Z" style="fill:#eae2c2;"/><path d="M272.78,221a10.84,10.84,0,0,0,3.27,4.62,3.07,3.07,0,0,0,2,.82,2.87,2.87,0,0,0,2-.82c.93-1,1.24-3,0-4-.4-.31-1.18-.85-1.37-1.34.06.17.24.35.06.05l-.23-.36c-.09-.15-.18-.31-.26-.47s-.27-.62,0,0a3.09,3.09,0,0,0-1.29-1.68,2.88,2.88,0,0,0-2.17-.28c-1.31.43-2.56,2-2,3.46Z" style="fill:#eae2c2;"/><path d="M292.81,210.42l-2.49,5.65a2.91,2.91,0,0,0,1,3.85,2.84,2.84,0,0,0,3.85-1l2.49-5.65a2.91,2.91,0,0,0-1-3.85,2.84,2.84,0,0,0-3.85,1Z" style="fill:#eae2c2;"/><path d="M303.08,224.24l3.66,3.1a2.82,2.82,0,1,0,4-4l-3.66-3.1a2.82,2.82,0,0,0-4,4Z" style="fill:#eae2c2;"/><path d="M314.48,209.75l1.37,4a2.82,2.82,0,1,0,5.43-1.5l-1.37-4a2.82,2.82,0,0,0-5.43,1.5Z" style="fill:#eae2c2;"/><path d="M316,233.77a4,4,0,0,1,1.79.22,5.34,5.34,0,0,1,1.27.69,2.89,2.89,0,0,0,4,0,2.84,2.84,0,0,0,0-4,10.23,10.23,0,0,0-7-2.55,2.82,2.82,0,0,0,0,5.63Z" style="fill:#eae2c2;"/><path d="M321.51,240.26l-2,4.23a2.88,2.88,0,0,0,1,3.85,2.85,2.85,0,0,0,3.85-1l2-4.23a2.88,2.88,0,0,0-1-3.85,2.85,2.85,0,0,0-3.85,1Z" style="fill:#eae2c2;"/><path d="M321.4,256.32a10.77,10.77,0,0,0,.95,4,2.81,2.81,0,0,0,1.68,1.29,2.88,2.88,0,0,0,2.17-.28,2.84,2.84,0,0,0,1.29-1.68,3.32,3.32,0,0,0-.28-2.17c.29.69,0,0,0-.08s-.09-.32-.13-.49l0-.2q-.06-.32,0,.25a1.68,1.68,0,0,1,0-.6,2.82,2.82,0,1,0-5.63,0Z" style="fill:#eae2c2;"/><path d="M301.49,204.74l5.36,1.38c3.51.9,5-4.53,1.5-5.43L303,199.31c-3.51-.9-5,4.53-1.5,5.43Z" style="fill:#eae2c2;"/><path d="M311.62,185.27l1.13,4.22a2.82,2.82,0,0,0,5.43-1.5l-1.13-4.22a2.82,2.82,0,1,0-5.43,1.5Z" style="fill:#eae2c2;"/><path d="M323.27,179.89c.92-.16-.4,0,.54-.07.32,0,.65,0,1,0s.65,0,1,0a1.78,1.78,0,0,1,.53.08,2.88,2.88,0,0,0,3.46-2,2.85,2.85,0,0,0-2-3.46,17,17,0,0,0-6,0,2.83,2.83,0,0,0-2,3.46,2.9,2.9,0,0,0,3.46,2Z" style="fill:#eae2c2;"/><path d="M328.26,187.6a33.8,33.8,0,0,0-2.26,6.3c-.85,3.52,4.58,5,5.43,1.5a26.5,26.5,0,0,1,1.69-5,2.9,2.9,0,0,0-1-3.85,2.84,2.84,0,0,0-3.85,1Z" style="fill:#eae2c2;"/><path d="M336.3,201.15l2.53,2.82a2.84,2.84,0,0,0,4,0,2.88,2.88,0,0,0,0-4l-2.53-2.82a2.84,2.84,0,0,0-4,0,2.88,2.88,0,0,0,0,4Z" style="fill:#eae2c2;"/><path d="M228.61,187.87c3.63-2.14,16.87-12.62,11.77-18.32-4-4.44-13.5,7.24-15.72,10a10.06,10.06,0,0,0-2.51,4.95c-.22,1.87.77,4,2.56,4.45C226.05,189.26,227.42,188.58,228.61,187.87Z" style="fill:#cf4327;"/><path d="M230,190.3c5.07-3.1,10.54-7.77,13.14-13.2,2.43-5.06.06-12.83-6.78-11.13-5.6,1.39-10.16,7.12-13.6,11.42-2.42,3-4.53,6.7-2.83,10.6,1.94,4.43,6.31,4.3,10.07,2.3,3.2-1.7.36-6.56-2.84-4.86-4.35,2.31-.71-3.71.33-5s2.16-2.53,3.3-3.73c.92-1,5.77-6.39,7.45-5.34,3.94,2.44-9.19,12.89-11.09,14C224.11,187.33,226.93,192.2,230,190.3Z" style="fill:#cf4327;"/><path d="M323.58,393.61a2.28,2.28,0,0,0-2.53-1.55,57.33,57.33,0,0,0-22.89,7q5.94-12.45,10.73-25.4c.92-2.49-2.14-4.17-4.14-3.18a75.54,75.54,0,0,0-24.85,19.8,284.72,284.72,0,0,0,1.94-35.64c0-2.24-3.2-4-4.81-2a96,96,0,0,0-20.14,44.51l-1.39-1.87c-3.72-5-7.46-10-11.49-14.75-1.72-2.05-4.61-.19-4.81,2a43.7,43.7,0,0,0,2.11,16.63c1.21,4,2.13,8.5,3.82,12.35,4.19,9.54,16.29,7.2,24.81,7.32,10.2.14,22.89,1.07,32.43-3.07,8.85-3.85,15.92-11.47,21.1-19.44A2.41,2.41,0,0,0,323.58,393.61Z" style="fill:#3b301b;"/><path d="M146,397.73l0-.1c-.41-1.77-2.5-2.94-4-2.15a39.6,39.6,0,0,0-12.81,4.83,158.23,158.23,0,0,0,7.68-19.38c.79-2.45-2.07-4.28-4.14-3.18a75.31,75.31,0,0,0-22,17.68q.38-12.38.29-24.77a2.85,2.85,0,0,0-4.81-2,74.91,74.91,0,0,0-20.24,29.09l-.37-.72a141.81,141.81,0,0,1-6.85-14.7,2.84,2.84,0,0,0-5.43,0,41.51,41.51,0,0,0,.92,27.7c2.9,7.1,9.44,7.63,16.3,7.91,11.84.48,23.87.85,35.64-.79,9.56-1.33,15.25-8.75,19.26-17a2.44,2.44,0,0,0,.58-2.39Z" style="fill:#3b301b;"/><path d="M212.83,399.54c-2.87,1.52-5.81,2.88-8.75,4.23,1.51-4.12,2.85-8.29,3.95-12.56.48-1.88-1.38-4.31-3.46-3.46a42.49,42.49,0,0,0-15,10.15,95.92,95.92,0,0,0-1.83-16.69c-.44-2.2-3.25-2.56-4.71-1.24a40.44,40.44,0,0,0-12,19.58c-3.24-3-7.6-5.41-10.62-7.36a2.84,2.84,0,0,0-4.24,2.43,31.2,31.2,0,0,0,5.73,17.14c4.14,5.88,9.19,6.44,16,6.64,5.63.16,11.25.29,16.87,0,3.41-.15,7.16.17,10.48-.67,6.85-1.73,10.25-8.69,11.73-15A2.85,2.85,0,0,0,212.83,399.54Z" style="fill:#3b301b;"/><path d="M76.46,400.44c-1.23-7.85-2.77-16.12-7.48-22.69a2.57,2.57,0,0,1-.44-.57l-.28-.34c-1.38-1.71-4.18-.63-4.71,1.24-1.38,4.88-3,10.37-3.43,15.79a54.82,54.82,0,0,0-20.27-14.21c-1.88-.77-4.25,1.58-3.46,3.46A125.44,125.44,0,0,0,47,403.26c-5.43.58-11.61,3.31-15.43,4.26-2.59.65-2.47,3.78-.67,5.15,6.38,4.87,14.33,6.76,22.25,7.07,6,.24,15.28.38,20.11-3.9C77.65,412,77.29,405.72,76.46,400.44Z" style="fill:#cf4327;"/><path d="M138.76,336.93a11.94,11.94,0,0,0-4-1.19l-2.77-.61q-1.55-1.16-2.37.13-1.4,1.7,0-1.63l.83-3.25,1.92-7.59a2.88,2.88,0,0,0-2-3.46l-10.71-3.5c-3.45-1.13-4.93,4.31-1.5,5.43l8,2.62a72.77,72.77,0,0,0-2.59,10.42c-.22,1.71-.31,3.1,1.06,4.39,2.06,1.94,6,1.67,8.53,2.48a1.38,1.38,0,0,0,1.91-.43L134,343.5l-2.57,6.42c-1.35,3.36,4.1,4.83,5.43,1.5C138.47,347.47,143.67,340.1,138.76,336.93Z" style="fill:#3b301b;"/><path d="M164.51,337.58c-1.93-.46-3.87-.9-5.81-1.37a50.6,50.6,0,0,1-5.52-1.27c.74-.15,1.87-4.67,1.88-4.72l1.16-5.12c.52-2.31,1.71-5.25,1.34-7.66s-2.44-3.78-4.43-5.21c-3.53-2.55-7.08-5.08-10.63-7.62-3-2.12-5.77,2.77-2.84,4.86l8,5.71c.91.65,4,2.11,4.32,3.3.26.88-.72,3.18-.93,4.1-.78,3.41-1.58,6.82-2.33,10.24-.34,1.55-1,3.47-.32,5,1.36,3.13,7.08,3.37,9.79,4,1.74.42,7.3.79,8,2.51s-1.82,7.55-2.29,9.43c-.88,3.52,4.54,5,5.43,1.5,1-4.14,4.52-11.28,1.25-15.09C169,338.42,166.7,338.11,164.51,337.58Z" style="fill:#3b301b;"/><path d="M204.16,345.12a38.86,38.86,0,0,0-5.6-2.18q-1.25-1.28-1.63-.14-.66,1.28.15-1c.59-3.09,1.53-6.26,1.58-9.44.1-5.63-5.92-6.21-10.22-7.64-3.45-1.15-4.92,4.29-1.5,5.43,1.46.49,3.82.81,5.07,1.69,1.44,1,1.37-.38.86,2-.57,2.64-1.93,6.59-1.86,9.32.12,4.88,8.2,6.07,11.64,7.41S207.5,346.42,204.16,345.12Z" style="fill:#3b301b;"/></g></g></svg>