<svg xmlns="http://www.w3.org/2000/svg" viewBox="0 0 444.3 430.97"><title>Welcome + hug</title><g id="Layer_2" data-name="Layer 2"><g id="Layer_1-2" data-name="Layer 1"><path d="M100.47,355c-13.08-24.48-35.17-45.41-56.9-62.18-2-1.54-4.85,1-4.16,3.2a316.21,316.21,0,0,0,35.24,75.41,228.83,228.83,0,0,0-71-32.63C1.45,338.24-1,340.89.46,343A244.92,244.92,0,0,0,77,412.19,2.82,2.82,0,0,0,81.19,410l3.4.34a3.11,3.11,0,0,0,4.32,2.74C111.73,402.83,110.53,373.86,100.47,355Z" style="fill:#eae2c2;"/><path d="M442.28,395.35a222.56,222.56,0,0,0-109-11.27q38.82-25.55,75.82-53.71c1.9-1.45,1.73-5.69-1.43-5.28A232.42,232.42,0,0,0,306.77,363.4c-.61-1.84-3-3.08-4.59-1.22-9.23,10.5-16.13,26.09-13.52,40.37,1.12,6.15,4.86,10.5,11,11.89,8.7,2,18.37,1.82,27.24,1.91,39,.42,77.4-7.59,115.35-15.53C445.25,400.19,444.68,396.23,442.28,395.35Z" style="fill:#e5a024;"/><path d="M132.15,349.86A434,434,0,0,0,63.84,295.6c-2.25-1.45-4.57.93-4.16,3.2,3.18,17.37,10.37,33.39,18.44,48.95a166.29,166.29,0,0,0-43.87-23.9c-2.51-.91-4.2,2.14-3.2,4.16a208.23,208.23,0,0,0,46.87,62A298,298,0,0,0,22.18,379.8c-2.57-.22-3.56,3.18-2,4.83,36.26,38.48,92.81,54.9,144.06,42a2.57,2.57,0,0,0,2-3.09,2.85,2.85,0,0,0,1.66-2.38C170.62,392.29,151.55,368.79,132.15,349.86Z" style="fill:#cf4327;"/><path d="M400.22,358.42a155.52,155.52,0,0,0-86.82,16.31A456.45,456.45,0,0,0,367.57,304c1.21-2-.85-5.09-3.2-4.16a204.87,204.87,0,0,0-116.5,120.86,2.3,2.3,0,0,0-.7,3.52c.09.11.18.21.27.32a2.45,2.45,0,0,0,.42.49c4.63,5,12.66,3.7,19,3.76l33.69.29c20.83.18,41.86.89,62.25-4.1a2.86,2.86,0,0,0,.68-5.17,164.24,164.24,0,0,0-44.93-16.57,254.25,254.25,0,0,0,83.13-39.49A2.86,2.86,0,0,0,400.22,358.42Z" style="fill:#3b301b;"/><path d="M313.29,184.72l17-4.92c2.23-.65,2.53-3.09,1.25-4.73a96.18,96.18,0,0,0-55.15-34.56A132.68,132.68,0,0,1,288,132.2c1.92-1.21,1.83-4.67-.68-5.17a115.82,115.82,0,0,0-85.6,16.08c-3.05,2-.22,6.87,2.86,4.89l.48-.3,88.07,99a2.75,2.75,0,0,0-.19,4,186.86,186.86,0,0,1,30,41.51c1.37,2.58,5.18,1.26,5.28-1.43a142.7,142.7,0,0,0-6.4-47.75,58.26,58.26,0,0,1,10.9,9.84c1.56,1.81,5,.4,4.83-2A128.7,128.7,0,0,0,313.29,184.72Z" style="fill:#eae2c2;"/><path d="M163.17,125.57c-36.45-4.87-53.17,40.05-87.37,42-2.32.13-3.9,3.08-2,4.83a41.2,41.2,0,0,0,15.07,9c-4.8,3.56-8.5,8.9-12.79,13a78.51,78.51,0,0,1-29.41,17.56,2.87,2.87,0,0,0-.68,5.17,74.23,74.23,0,0,0,26.1,9.35c-3.62,3.23-6.39,7.52-9.17,11.65A75,75,0,0,1,38.1,261.23a2.87,2.87,0,0,0,.68,5.17c31.06,9.77,65.39-5.27,78.14-35.52,7.16-17,7.08-36,15-52.79s20.29-30.59,32.44-44.2a2.74,2.74,0,0,0,.51-3C166.63,129.71,166.05,126,163.17,125.57Z" style="fill:#e5a024;"/><path d="M240.51,104c-5.1-6.25-15.3-2.45-21.48-.38-11.18,3.75-22.51,6.82-33.46,11.26-21.16,8.58-40.95,20.37-56.84,36.92a158.51,158.51,0,0,0-33.16,52.82c-9,23.29-10.08,47-11.41,71.65-1.19,22.09-1.85,43.84.5,65.86.77,7.21,1.58,14.43,2.77,21.58a50.29,50.29,0,0,0,1.11,6.2A33.35,33.35,0,0,0,73,380.85c-3.88,5-7.61,12.49-5.14,18.88,2.4,6.22,9.39,7.09,15,5.22a28.67,28.67,0,0,0,8.48-4.63,17,17,0,0,0,.43,5.79c1.34,5.18,5.52,9.83,10.9,10.82,9,1.66,16.25-6.35,20.24-14.85,2,5.07,5.39,9.25,11.53,9.79,10.11.89,14.25-8.77,15.23-17.19l1.38-.32c1.93-.4,3.87-.77,5.8-1.15a72.81,72.81,0,0,0,9.48-2.12c9.13-3.14,18.75-8.48,25.44-15.52,7.77-8.18,10.58-18.46,12.1-29.39,2.13-15.31,1.5-30.76-.16-46.09-1.43-12.48-3.48-24.86-5.47-37.26-1.61-10-2.52-20.19-4.34-30.15-2.29-12.51-6-24.94-7.17-37.63-.27-2.82-.42-2.76,1.38-4.37a101.84,101.84,0,0,0,11.48-12.51A250.67,250.67,0,0,0,217,152.27c5.61-9.24,11.1-18.58,17.53-27.28C238.45,119.61,246.1,110.84,240.51,104Z" style="fill:#3b301b;"/><path d="M315,362.95c9.32-5.11,24.36-15.45,14.92-22.45-4.37-3.24-10.48-.94-14.83,1A58.66,58.66,0,0,0,304,348a284.72,284.72,0,0,0,9.86-80.21c-.59-27.4-4.22-56.49-15.22-81.83-9.14-21.06-23.81-38.43-46.33-45.05-19.2-5.65-41.6-4.55-59.46,4.88-11.15,5.89-20.4,15.74-27.89,25.72-8.6,11.45-15.06,24.71-16,39.16-.16,2.36,2.47,3.24,4.26,2.44,11.46-5.09,22-3,29.65,7.39,5.86,8,8.48,18.17,9.64,27.86,2.15,17.89-.55,36-2.16,53.8-1.54,17-2.44,34.79,3,51.27s16.86,31.29,33.3,37.45c11.06,3.6,21.67,2.4,32.82.3,3.06-.58,10.55-1.44,15.1-4A49.19,49.19,0,0,0,283.28,401c3.78,4.12,10.21,10,16.33,9.13,5.89-.82,7.83-7.44,8.12-12.57a31.85,31.85,0,0,0-1.91-12.08,28,28,0,0,0,7.42,2.71c5,1.05,12.39,1.45,16-3.06C335.88,376.76,324,367.47,315,362.95Z" style="fill:#cf4327;"/><path d="M262.13,212.89a176.21,176.21,0,0,1-110.91,27.34c-5.95-.51-11,5.44-11,11,0,6.4,5.08,10.52,11,11A196,196,0,0,0,273.27,232c11.91-7.66.85-26.79-11.15-19.07Z" style="fill:#cf4327;"/><path d="M167.6,233.1c38.3,14.12,82.92,8.77,116.91-13.79,11.79-7.82.74-27-11.15-19.07a111,111,0,0,1-99.89,11.57c-5.6-2.06-12.1,2.31-13.58,7.71-1.69,6.16,2.1,11.51,7.71,13.58Z" style="fill:#3b301b;"/><path d="M272.23,192.14a13.23,13.23,0,0,0,1.52,11.6c2,3,6.92.18,4.89-2.86a7.81,7.81,0,0,1-.95-7.24c1.18-3.45-4.28-4.94-5.46-1.51Z" style="fill:#3b301b;"/><path d="M284.39,194.14a21.58,21.58,0,0,1-4.3,5.21,2.83,2.83,0,0,0,4,4,26.63,26.63,0,0,0,5.19-6.35c1.85-3.15-3-6-4.89-2.86Z" style="fill:#3b301b;"/><path d="M289.94,199.09a19.47,19.47,0,0,1-5,4.31c-3.13,1.86-.28,6.76,2.86,4.89a24.08,24.08,0,0,0,6.16-5.19,2.91,2.91,0,0,0,0-4,2.85,2.85,0,0,0-4,0Z" style="fill:#3b301b;"/><path d="M293.15,205.95a4.46,4.46,0,0,1-3.36,1.08,2.91,2.91,0,0,0-3.48,2,2.85,2.85,0,0,0,2,3.48,9.72,9.72,0,0,0,7.73-1.65,2.93,2.93,0,0,0,1-3.87c-.7-1.19-2.65-2-3.87-1Z" style="fill:#3b301b;"/><path d="M290.95,214.34h-.51q.49.08,0,0l-.49-.14,0,0c-.12-.07-.88-.65-.49-.28a4.92,4.92,0,0,1-.37-.36q.25.37,0,0a2.83,2.83,0,0,0-4.89,2.86,8.08,8.08,0,0,0,6.82,3.66,2.83,2.83,0,0,0,0-5.66Z" style="fill:#3b301b;"/><path d="M143.82,237.68a7.19,7.19,0,0,1,3.54,5.46c.22,1.51,2.14,2.35,3.48,2a2.9,2.9,0,0,0,2-3.48,12.49,12.49,0,0,0-6.14-8.84c-3.16-1.83-6,3.06-2.86,4.89Z" style="fill:#cf4327;"/><path d="M133.93,242.4a15.79,15.79,0,0,0,12.64,5.15c3.62-.22,3.65-5.89,0-5.66a10.33,10.33,0,0,1-8.64-3.49c-2.46-2.7-6.45,1.31-4,4Z" style="fill:#cf4327;"/><path d="M130.88,251.93A19.5,19.5,0,0,0,145,254.55c3.58-.65,2.06-6.1-1.51-5.46a13.56,13.56,0,0,1-9.79-2c-3.09-2-5.93,2.95-2.86,4.89Z" style="fill:#cf4327;"/><path d="M133.77,263.06a13.54,13.54,0,0,0,13.12-3c2.72-2.43-1.29-6.43-4-4a7.73,7.73,0,0,1-7.61,1.53c-3.49-1.08-5,4.38-1.51,5.46Z" style="fill:#cf4327;"/><path d="M146.46,268.89a18,18,0,0,0,6.59-5.78,2.85,2.85,0,0,0-1-3.87,2.89,2.89,0,0,0-3.87,1A12.2,12.2,0,0,1,143.6,264a2.83,2.83,0,0,0,2.86,4.89Z" style="fill:#cf4327;"/><path d="M248.85,383c5.17-5.15-2.84-13.16-8-8-12.85,12.82-18.58,30.24-16.71,48.08h-2.32c-3.64,0-3.65,5.66,0,5.66h5.1c3.47,1.51,9.07-1.52,8.36-6.72A46.71,46.71,0,0,1,248.85,383Z" style="fill:#cf4327;"/><path d="M264.59,369.08c-9.81,16.41-19.68,34.21-17.25,54h-.62c-3.64,0-3.65,5.66,0,5.66h5.6c3.31.72,6.95-1,6.39-5.21-2.39-18.1,6.71-33.77,15.66-48.74C278.12,368.52,268.33,362.82,264.59,369.08Z" style="fill:#cf4327;"/><path d="M195.31,423.08H192.1a104.39,104.39,0,0,0-6.17-52.52c-2.65-6.7-13.61-3.78-10.92,3A93.64,93.64,0,0,1,180.91,422c-.78,5.19,4.8,8.23,8.3,6.72h6.09C199,428.74,199,423.08,195.31,423.08Z" style="fill:#3b301b;"/><path d="M171.71,423.08h-1.79a78.54,78.54,0,0,0-.43-39c-1.87-7-12.8-4.05-10.92,3a66.68,66.68,0,0,1-.06,35c-1.36,5,3.84,8,7.6,6.72h5.59C175.35,428.74,175.36,423.08,171.71,423.08Z" style="fill:#3b301b;"/><path d="M199.14,118.83a75.31,75.31,0,0,0-56.91,39.34c-1.23,2.34.79,4.54,3.2,4.16,6.26-1,12.15-1.33,18.08-3.79a74.53,74.53,0,0,0,16.31-9.2c4.68-3.5,9.61-7.28,13.37-11.78,3.3-3.94,5.2-8.29,7.4-12.86l.55-1C202.47,122,201.85,118.48,199.14,118.83Z" style="fill:#eae2c2;"/><path d="M176.47,134.32a8.43,8.43,0,0,0-10.38,2.1c-2.81,3.18-3.54,8.47.89,10.66a9.75,9.75,0,0,0,11.32-2.21,3,3,0,0,0,.51-.6C181,140.79,180.23,136.34,176.47,134.32Z" style="fill:#3b301b;"/><path d="M246,90.88a9.24,9.24,0,0,0-7.06-4.29c-6.93-.64-11.51,6-12.34,12.14-.6,4.47,1.33,9.22,6.26,9.83,5.33.66,9.77-3.51,12.41-7.67C246.95,97.83,247.86,94.11,246,90.88Z" style="fill:#cf4327;"/><path d="M213.47,124.16a7.81,7.81,0,0,0,12.83,5.54c5-4.22,3.4-11.26-1.4-14.82-2.93-2.17-5.75,2.74-2.86,4.89,1.53,1.14,2.38,3.46,1.12,5.1-1.09,1.42-3.86,1.51-4-.71-.29-3.61-6-3.64-5.66,0Z" style="fill:#cf4327;"/><path d="M227.56,156.15c-10.21-4.29-22.65-1-28.9,8.28-7.63,11.34-6.39,27.48,7.28,33.26,12.72,5.38,29.64-1.57,34.26-14.56a4.6,4.6,0,0,0,.36-1.36C242.72,171,238,160.53,227.56,156.15Z" style="fill:#eae2c2;"/><path d="M231,171.55c-2.6-6.93-11.07-10.14-17.81-7.54-6.57,2.53-11.35,10.23-9.51,17.27,2.24,8.58,12,12.09,19.56,8.62a3,3,0,0,0,.7-.32,3,3,0,0,0,.57-.39C230.11,185.31,233.48,178.29,231,171.55Z" style="fill:#3b301b;"/><path d="M184.44,117.29,166.28,93.13c-1.25-1.67-4.77-2-5.17.68q-2.18,14.72-3,29.55-9.37-7.92-19.35-15c-1.64-1.17-4.51.37-4.26,2.44a302.73,302.73,0,0,0,5.41,31.14c.81,3.55,6.27,2,5.46-1.51-.05-.24-.1-.48-.15-.72l14-8a2.84,2.84,0,0,0,4.26-2.4v0l16-9.13,0,0C181.72,123,186.64,120.21,184.44,117.29Z" style="fill:#3b301b;"/><path d="M108.33,216.09l-.92,6.83a2.93,2.93,0,0,0,2,3.48c1.32.36,3.28-.45,3.48-2l.92-6.83a2.93,2.93,0,0,0-2-3.48c-1.32-.36-3.28.45-3.48,2Z" style="fill:#cf4327;"/><path d="M105.91,242.85l-2.16,7.39c-1,3.5,4.44,5,5.46,1.51l2.16-7.39c1-3.5-4.44-5-5.46-1.51Z" style="fill:#cf4327;"/><path d="M104.07,268.51l-.46,4.54a2.84,2.84,0,0,0,2.83,2.83,2.91,2.91,0,0,0,2.83-2.83l.46-4.54a2.84,2.84,0,0,0-2.83-2.83,2.91,2.91,0,0,0-2.83,2.83Z" style="fill:#cf4327;"/><path d="M103.67,291.19l.17,5.66c.11,3.64,5.77,3.65,5.66,0l-.17-5.66c-.11-3.64-5.77-3.65-5.66,0Z" style="fill:#cf4327;"/><path d="M104.84,313.82l.9,6.76a2.93,2.93,0,0,0,2.83,2.83c1.37,0,3-1.3,2.83-2.83l-.9-6.76a2.93,2.93,0,0,0-2.83-2.83c-1.37,0-3,1.3-2.83,2.83Z" style="fill:#cf4327;"/><path d="M105.7,337.77a6,6,0,0,1,.22,1.5c0,.33,0,.65,0,1,0,.07-.08.9,0,.54a2.91,2.91,0,0,0,2,3.48c1.34.3,3.26-.41,3.48-2a16,16,0,0,0-.19-6,2.85,2.85,0,0,0-3.48-2,2.89,2.89,0,0,0-2,3.48Z" style="fill:#cf4327;"/><path d="M121.77,325l-.49,2.85a3.07,3.07,0,0,0,.29,2.18,2.89,2.89,0,0,0,1.69,1.3c1.37.31,3.22-.42,3.48-2l.49-2.85a3.07,3.07,0,0,0-.29-2.18,2.89,2.89,0,0,0-1.69-1.3c-1.37-.31-3.22.42-3.48,2Z" style="fill:#cf4327;"/><path d="M119.26,299.41a16.87,16.87,0,0,1-.23,5.88c-.75,3.55,4.71,5.07,5.46,1.51a24.81,24.81,0,0,0,.23-8.89c-.22-1.51-2.14-2.35-3.48-2a2.9,2.9,0,0,0-2,3.48Z" style="fill:#cf4327;"/><path d="M116.75,273.8l.22,7.36c.11,3.64,5.77,3.65,5.66,0l-.22-7.36c-.11-3.64-5.77-3.65-5.66,0Z" style="fill:#cf4327;"/><path d="M116.08,251.17a12.82,12.82,0,0,0,.79,5.83,2.91,2.91,0,0,0,3.48,2,2.85,2.85,0,0,0,2-3.48,8.84,8.84,0,0,1-.59-4.33,2.85,2.85,0,0,0-2.83-2.83,2.89,2.89,0,0,0-2.83,2.83Z" style="fill:#cf4327;"/><path d="M120,231.79l.15,5.09a2.83,2.83,0,0,0,5.66,0l-.15-5.09a2.83,2.83,0,0,0-5.66,0Z" style="fill:#cf4327;"/><path d="M119.56,194.78,118,199.36a2.85,2.85,0,0,0,2,3.48,2.9,2.9,0,0,0,3.48-2l1.57-4.57a2.85,2.85,0,0,0-2-3.48,2.9,2.9,0,0,0-3.48,2Z" style="fill:#cf4327;"/><path d="M125.22,210.5l-.5,2.28a2.83,2.83,0,0,0,5.46,1.51l.5-2.28a2.83,2.83,0,0,0-5.46-1.51Z" style="fill:#cf4327;"/><path d="M120.23,351.87l.07,2.26a2.83,2.83,0,0,0,5.66,0l-.07-2.26a2.83,2.83,0,1,0-5.66,0Z" style="fill:#cf4327;"/><path d="M135.43,311.19l.17,5.66c.11,3.64,5.77,3.65,5.66,0l-.17-5.66c-.11-3.64-5.77-3.65-5.66,0Z" style="fill:#cf4327;"/><path d="M135.08,337.26l.09,2.83a2.83,2.83,0,0,0,5.66,0l-.09-2.83a2.83,2.83,0,0,0-5.66,0Z" style="fill:#cf4327;"/><path d="M133.54,282l.73,5.07c.22,1.51,2.14,2.35,3.48,2a2.9,2.9,0,0,0,2-3.48l-.73-5.07c-.22-1.51-2.14-2.35-3.48-2a2.9,2.9,0,0,0-2,3.48Z" style="fill:#cf4327;"/><path d="M289.29,245.58a13,13,0,0,1,.74,6,2.85,2.85,0,0,0,2.83,2.83,2.89,2.89,0,0,0,2.83-2.83,16.87,16.87,0,0,0-.95-7.52,2.91,2.91,0,0,0-3.48-2,2.85,2.85,0,0,0-2,3.48Z" style="fill:#3b301b;"/><path d="M291.22,272.71a12.31,12.31,0,0,1-.21,4.76c-.83,3.54,4.63,5.06,5.46,1.51a19.62,19.62,0,0,0,.21-7.77,2.85,2.85,0,0,0-3.48-2,2.9,2.9,0,0,0-2,3.48Z" style="fill:#3b301b;"/><path d="M289.75,296.17a23.21,23.21,0,0,0-.48,7A2.91,2.91,0,0,0,292.1,306a2.85,2.85,0,0,0,2.83-2.83,18.11,18.11,0,0,1,.28-5.49,2.9,2.9,0,0,0-2-3.48,2.86,2.86,0,0,0-3.48,2Z" style="fill:#3b301b;"/><path d="M287.59,319.65l-.44,5.67a2.86,2.86,0,0,0,2.83,2.83,2.89,2.89,0,0,0,2.83-2.83l.44-5.67a2.86,2.86,0,0,0-2.83-2.83,2.89,2.89,0,0,0-2.83,2.83Z" style="fill:#3b301b;"/><path d="M284.68,340.69a13.17,13.17,0,0,1-1,4.88,2.93,2.93,0,0,0,1,3.87c1.19.7,3.26.4,3.87-1a20.48,20.48,0,0,0,1.77-7.74c.09-3.64-5.57-3.64-5.66,0Z" style="fill:#3b301b;"/><path d="M274.85,326.65l-1,5.7a2.92,2.92,0,0,0,2,3.48,2.85,2.85,0,0,0,3.48-2l1-5.7a2.92,2.92,0,0,0-2-3.48,2.85,2.85,0,0,0-3.48,2Z" style="fill:#3b301b;"/><path d="M274.61,304.37a12.23,12.23,0,0,1-.21,4.76c-.83,3.54,4.63,5.06,5.46,1.51a19.5,19.5,0,0,0,.21-7.77,2.85,2.85,0,0,0-3.48-2,2.9,2.9,0,0,0-2,3.48Z" style="fill:#3b301b;"/><path d="M274.83,275.28l.22,7.36c.11,3.64,5.77,3.65,5.66,0l-.22-7.36c-.11-3.64-5.77-3.65-5.66,0Z" style="fill:#3b301b;"/><path d="M273.45,247l.82,7.9a2.91,2.91,0,0,0,2.83,2.83,2.85,2.85,0,0,0,2.83-2.83l-.82-7.9a2.91,2.91,0,0,0-2.83-2.83,2.85,2.85,0,0,0-2.83,2.83Z" style="fill:#3b301b;"/><path d="M263.62,260.32l.14,4.53a2.83,2.83,0,1,0,5.66,0l-.14-4.53a2.83,2.83,0,0,0-5.66,0Z" style="fill:#3b301b;"/><path d="M261.65,285.88l-.48,4a2.84,2.84,0,0,0,2.83,2.83,2.92,2.92,0,0,0,2.83-2.83l.48-4a2.84,2.84,0,0,0-2.83-2.83,2.92,2.92,0,0,0-2.83,2.83Z" style="fill:#3b301b;"/><path d="M261.62,306.83l.07,2.26a2.83,2.83,0,0,0,5.66,0l-.07-2.26a2.83,2.83,0,0,0-5.66,0Z" style="fill:#3b301b;"/><path d="M260.58,326.88c.14.64.05-.28.06.32q0,.27,0,.54,0,.46,0,.17c0-.28-.1.45-.13.56a7.14,7.14,0,0,1-.32.9,2.84,2.84,0,0,0,2,3.48,2.92,2.92,0,0,0,3.48-2,9.16,9.16,0,0,0,.37-5.5,2.85,2.85,0,0,0-3.48-2,2.9,2.9,0,0,0-2,3.48Z" style="fill:#3b301b;"/><path d="M259,343.57l-.48,2.85a3.07,3.07,0,0,0,.29,2.18,2.89,2.89,0,0,0,1.69,1.3c1.37.31,3.22-.42,3.48-2l.48-2.85a3.07,3.07,0,0,0-.29-2.18,2.89,2.89,0,0,0-1.69-1.3c-1.37-.31-3.22.42-3.48,2Z" style="fill:#3b301b;"/><path d="M270.48,354.91c.13.58,0-.58,0,0a3.67,3.67,0,0,1,0,.37q0,.37,0,0t0,0a2.75,2.75,0,0,1-.08.26q-.11.3.11-.25a3.49,3.49,0,0,1-.18.32,2.83,2.83,0,1,0,4.89,2.86,6.74,6.74,0,0,0,.74-5,2.85,2.85,0,0,0-3.48-2,2.89,2.89,0,0,0-2,3.48Z" style="fill:#3b301b;"/><path d="M250.17,316.63a6.66,6.66,0,0,0,.89,5,2.83,2.83,0,0,0,4.89-2.86,4,4,0,0,1-.29-.48q.23.59.07.16a4.15,4.15,0,0,1-.13-.54q.07.62.06.29c0-.21.12-.91,0-.08a3.05,3.05,0,0,0-.29-2.18,2.83,2.83,0,0,0-5.17.68Z" style="fill:#3b301b;"/><path d="M249.86,292.46,250,297a2.83,2.83,0,1,0,5.66,0l-.14-4.53a2.83,2.83,0,0,0-5.66,0Z" style="fill:#3b301b;"/><path d="M250.89,270.33l.05,1.7a2.83,2.83,0,0,0,5.66,0l-.05-1.7a2.83,2.83,0,1,0-5.66,0Z" style="fill:#3b301b;"/><path d="M261.59,370.56l-1.1,1.17a2.83,2.83,0,0,0,4,4l1.1-1.17a2.83,2.83,0,0,0-4-4Z" style="fill:#3b301b;"/><path d="M165.27,192.41a9.62,9.62,0,0,0,13.14,11c7.77-3.29,8.27-12.89,3.08-18.68-2.44-2.72-6.43,1.3-4,4s2.81,7-.46,9.06c-2.88,1.85-7.09-.19-6.29-3.88s-4.68-5.07-5.46-1.51Z" style="fill:#3b301b;"/><path d="M228.83,43.26a40.13,40.13,0,0,0-8.7,8.66,26.32,26.32,0,0,0-4.71-12.67c-3.43-4.47-10.22-6.15-14.16-1.34s-2.92,13.16-1.14,18.74c2.54,8,7.55,14.8,12.56,21.37a2.92,2.92,0,0,0,2,1.17A2.2,2.2,0,0,0,217.3,79c7.19-5.47,14.63-11.24,20.5-18.17,3.48-4.11,8.74-11.48,5.33-17.06C239.81,38.31,233,40.29,228.83,43.26Z" style="fill:#cf4327;"/><path d="M285.77,76.26a3,3,0,0,0-.64.34,3.1,3.1,0,0,0-.54.39,47.59,47.59,0,0,0-5.41,4.49,17.94,17.94,0,0,0-4.27-9.12c-2.77-2.94-7.88-5.4-11.42-2.26-3.76,3.34-3,10.45-2.41,14.82.92,7.32,3.45,14.27,5.86,21.2.54,1.54,2.59,2.86,4.16,1.69,8.4-6.26,22-10,26.81-20.06C302.32,78.47,294,72.12,285.77,76.26Z" style="fill:#cf4327;"/><path d="M287.11,2.86c-6.12.94-10.9,4.47-15,8.77.26-3.71-.08-7.37-2.42-9.62-2.92-2.82-7.91-2.49-11-.2-4.66,3.42-5,9.86-4.73,15.12a70.11,70.11,0,0,0,4.65,21.89,2.87,2.87,0,0,0,2.49,1.89,2.37,2.37,0,0,0,3.08,1.2A68,68,0,0,0,286.43,29c4.87-4.27,12.22-11.07,13.12-17.83C300.54,3.77,292.9,2,287.11,2.86Z" style="fill:#cf4327;"/><path d="M124.89,163.92c-19.91,20.12-29,47.48-32.54,75-2,15.82-2.51,31.79-2.85,47.72a426.91,426.91,0,0,0,1.32,49.68c.45,4.67,7.81,4.72,7.36,0A464.78,464.78,0,0,1,99,245.4c2.87-27.75,11.06-56,31.14-76.28,3.34-3.37-1.87-8.58-5.2-5.2Z" style="fill:#574730;"/><path d="M80.79,378.36a17.65,17.65,0,0,0-7.27,10.77,3.77,3.77,0,0,0,2.57,4.53,3.72,3.72,0,0,0,4.53-2.57,10.17,10.17,0,0,1,3.89-6.37,3.78,3.78,0,0,0,1.32-5c-.93-1.59-3.41-2.48-5-1.32Z" style="fill:#574730;"/><path d="M97.72,393.62l-1.66,6.24a3.68,3.68,0,0,0,7.1,2l1.66-6.24a3.68,3.68,0,1,0-7.1-2Z" style="fill:#574730;"/><path d="M327.61,333.79a79.82,79.82,0,0,1,18-13.53c4.15-2.29.44-8.65-3.72-6.36a86.91,86.91,0,0,0-19.47,14.69c-3.35,3.36,1.85,8.56,5.2,5.2Z" style="fill:#574730;"/><path d="M337.9,377.79a129.21,129.21,0,0,1,33-8.93c4.63-.6,4.69-8,0-7.36a136,136,0,0,0-35,9.19c-4.31,1.79-2.42,8.91,2,7.1Z" style="fill:#574730;"/><path d="M312,417.76a54.63,54.63,0,0,1,24.53,2.93c4.47,1.6,6.39-5.51,2-7.1A59.53,59.53,0,0,0,312,410.4c-4.66.49-4.71,7.85,0,7.36Z" style="fill:#574730;"/><path d="M207.1,117.9a37.06,37.06,0,0,0,10.52-4.31c4.05-2.44.36-8.81-3.72-6.36a30.26,30.26,0,0,1-8.76,3.56c-4.61,1.1-2.66,8.19,2,7.1Z" style="fill:#574730;"/><path d="M98.44,170.88a68.32,68.32,0,0,0,17.43-9.57c3.71-2.84.05-9.23-3.72-6.36a62,62,0,0,1-15.67,8.83c-4.39,1.66-2.49,8.78,2,7.1Z" style="fill:#f3bc63;"/><path d="M65.28,213.36a64.75,64.75,0,0,0,18.51-11.9c4.87-4.65,8-10.85,14.61-13.34,4.39-1.66,2.49-8.78-2-7.1-6.35,2.4-10.05,6.47-14.38,11.51-5.62,6.54-12.67,11-20.49,14.48-4.32,1.93-.58,8.28,3.72,6.36Z" style="fill:#f3bc63;"/><path d="M77.5,225.66A190.07,190.07,0,0,1,54.88,253c-3.35,3.36,1.86,8.57,5.2,5.2a200.31,200.31,0,0,0,23.77-28.84c2.67-3.93-3.71-7.61-6.36-3.72Z" style="fill:#f3bc63;"/><path d="M345.38,356.1A251.26,251.26,0,0,1,377,342.88c4.46-1.52,2.54-8.63-2-7.1a265.48,265.48,0,0,0-33.34,14c-4.24,2.12-.51,8.47,3.72,6.36Z" style="fill:#f3bc63;"/><path d="M363.37,399.48a263.54,263.54,0,0,1,39.79-4.4c4.72-.16,4.75-7.53,0-7.36a276.72,276.72,0,0,0-41.75,4.66c-4.65.88-2.68,8,2,7.1Z" style="fill:#f3bc63;"/><path d="M50.75,343a84.21,84.21,0,0,1,21.79,19.78c2.85,3.7,9.24,0,6.36-3.72a94.26,94.26,0,0,0-24.43-22.42c-4-2.54-7.71,3.82-3.72,6.36Z" style="fill:#db6653;"/><path d="M68.77,313.44a12.82,12.82,0,0,1,4.17,5.73,3.77,3.77,0,0,0,4.53,2.57A3.71,3.71,0,0,0,80,317.21a19.81,19.81,0,0,0-6.06-9,3.79,3.79,0,0,0-5.2,0c-1.3,1.3-1.54,3.94,0,5.2Z" style="fill:#db6653;"/><path d="M47.18,394.22l3.4,1.13a3.71,3.71,0,0,0,4.53-2.57,3.77,3.77,0,0,0-2.57-4.53l-3.4-1.13a3.71,3.71,0,0,0-4.53,2.57,3.77,3.77,0,0,0,2.57,4.53Z" style="fill:#db6653;"/><path d="M173.18,179.73c6.89-13,20.45-18.94,33.32-24.48,4.34-1.87.59-8.21-3.72-6.36-14.1,6.07-28.45,13-36,27.12-2.22,4.18,4.13,7.91,6.36,3.72Z" style="fill:#db6653;"/><path d="M197.6,274.16c-7.66,33.17-6.55,69.67,14.47,97.94,2.8,3.76,9.19.09,6.36-3.72-19.89-26.74-21-60.84-13.73-92.26,1.06-4.61-6-6.58-7.1-2Z" style="fill:#db6653;"/><path d="M310.31,372.8a6.89,6.89,0,0,1,7,3.33c2.39,4.08,8.76.38,6.36-3.72a14.08,14.08,0,0,0-13.31-7,3.78,3.78,0,0,0-3.68,3.68c0,1.84,1.69,3.88,3.68,3.68Z" style="fill:#db6653;"/><path d="M290.34,387.6a13.52,13.52,0,0,1,7.32,8c1.47,4.48,8.58,2.56,7.1-2a20.77,20.77,0,0,0-10.7-12.42,3.78,3.78,0,0,0-5,1.32c-.94,1.6-.48,4.18,1.32,5Z" style="fill:#db6653;"/><path d="M308.21,356.49a33.4,33.4,0,0,1,12.7-4.76c4.66-.76,2.68-7.85-2-7.1a38.79,38.79,0,0,0-14.46,5.5c-4,2.52-.31,8.89,3.72,6.36Z" style="fill:#db6653;"/><path d="M260.38,159.32A40.23,40.23,0,0,1,278.74,178c2.07,4.26,8.42.53,6.36-3.72a46.72,46.72,0,0,0-21-21.3c-4.22-2.13-7.95,4.22-3.72,6.36Z" style="fill:#db6653;"/></g></g></svg>