<?xml version="1.0" encoding="iso-8859-1"?>
<!-- Generator: Adobe Illustrator 23.0.6, SVG Export Plug-In . SVG Version: 6.00 Build 0)  -->
<svg version="1.1" id="&#x421;&#x43B;&#x43E;&#x439;_1"
	 xmlns="http://www.w3.org/2000/svg" xmlns:xlink="http://www.w3.org/1999/xlink" x="0px" y="0px" viewBox="0 0 1242.84 800"
	 style="enable-background:new 0 0 1242.84 800;" xml:space="preserve">
<path style="fill:#DB6653;" d="M1162.755,679.538c-0.711,0-1.435-0.131-2.137-0.408c-2.997-1.181-4.47-4.567-3.288-7.565
	l10.001-25.385c1.18-2.997,4.564-4.475,7.565-3.288c2.997,1.181,4.47,4.567,3.288,7.565l-10.001,25.385
	C1167.279,678.136,1165.081,679.538,1162.755,679.538z"/>
<path style="fill:#CF4427;" d="M1154.24,268.224c-2.076,0-4.141-0.871-5.602-2.569c-2.659-3.092-2.309-7.754,0.784-10.414
	l38.89-33.445c3.09-2.659,7.752-2.31,10.413,0.784c2.659,3.092,2.309,7.754-0.784,10.414l-38.89,33.445
	C1157.658,267.637,1155.945,268.224,1154.24,268.224z"/>
<g>
	<path style="fill:#D04123;" d="M991.036,49.669c-12.356,23.601-13.23,45.062-13.986,70.628
		c-0.602,20.384-1.112,39.125-1.539,56.383c-0.335,13.643-0.622,26.37-0.874,38.251c-0.056,2.734-0.112,5.419-0.16,8.056
		c-0.028,1.245-0.049,2.482-0.07,3.706c-0.119,5.951-0.223,11.678-0.322,17.195c-0.048,2.958-0.098,5.86-0.147,8.699
		c-22.076,2.287-58.467,3.28-100.906-8.825c-44.243-12.622-75.557-33.915-93.179-47.943c0.734-1.867,1.511-3.783,2.335-5.762
		c1.944-4.643,4.133-9.587,6.622-14.762c0.602-1.266,1.231-2.552,1.881-3.846c0.783-1.587,1.601-3.203,2.448-4.832
		c5.741-11.07,12.769-22.971,21.391-35.181c3.818-5.405,7.944-10.867,12.405-16.342c78.138-95.893,198.974-121.626,203.96-112.277
		C1033.251,7.243,1008.203,16.872,991.036,49.669z"/>
	<path style="fill:#3A301B;" d="M1025.671,244.482c-1.168,0.196-2.35,0.294-3.539,0.294c-3.51,0-7.077-0.874-10.363-2.706
		c-12.231-6.818-24.671-13.181-37.293-19.083c-10.622-4.972-21.377-9.622-32.251-13.937c-0.007-0.007-0.014-0.007-0.028-0.014
		c-8.727-3.461-17.524-6.706-26.398-9.748c-15.203-5.203-30.608-9.776-46.188-13.692c-5-1.266-10.014-2.454-15.049-3.58
		c-8.475-1.895-17.007-3.601-25.587-5.112h-0.007c-12.678-2.238-25.454-4.056-38.279-5.454c-12.853-1.405-25.755-2.378-38.657-2.923
		c-3.112-0.126-6.042-0.923-8.657-2.238c14.783-1.203,31.566-1.105,49.761,0.329c5.741-11.07,12.769-22.971,21.391-35.181
		c16.594,2.329,33.069,5.315,49.349,8.958c3.168,0.706,6.328,1.441,9.482,2.21h0.008c5.377,1.28,10.741,2.643,16.083,4.084
		c11.335,3.042,22.587,6.405,33.733,10.084c5.063,1.664,10.098,3.399,15.112,5.203c12.545,4.496,24.957,9.398,37.216,14.706
		c-0.335,13.643-0.622,26.37-0.874,38.251C994.56,224.308,1011.846,234.343,1025.671,244.482z"/>
	<ellipse style="fill:#E5A024;" cx="901.178" cy="166.449" rx="37.412" ry="35.663"/>
	<ellipse style="fill:#F3BC63;" cx="903.276" cy="162.253" rx="20.629" ry="20.978"/>
	<path style="fill:#DB6653;" d="M882.997,108.059c-2.734,0-5.464-1.062-7.521-3.178c-4.038-4.153-3.945-10.794,0.209-14.832
		l25.174-24.475c4.153-4.038,10.794-3.945,14.832,0.209c4.038,4.153,3.945,10.794-0.209,14.832l-25.174,24.475
		C888.27,107.072,885.632,108.059,882.997,108.059z"/>
	<path style="fill:#DB6653;" d="M939.647,57.713c-3.797,0-7.461-2.067-9.326-5.672c-2.661-5.146-0.647-11.475,4.498-14.136
		l20.279-10.489c5.147-2.663,11.475-0.647,14.136,4.498c2.661,5.146,0.647,11.475-4.497,14.136l-20.279,10.489
		C942.917,57.335,941.269,57.713,939.647,57.713z"/>
	<path style="fill:#D04123;" d="M1061.355,299.684c-9.629,35.607-102.878,41.356-208.267,12.846
		c-105.39-28.517-183.017-80.494-173.387-116.102c4.622-17.077,28.475-27.286,63.676-30.139c14.783-1.203,31.566-1.105,49.761,0.329
		c22.426,1.755,47.006,5.538,72.648,11.426c7.322,1.671,14.72,3.517,22.189,5.538c12.468,3.371,24.545,7.077,36.139,11.042
		c18.168,6.21,35.132,13.063,50.523,20.307c19.923,9.377,37.209,19.412,51.034,29.552
		C1051.971,263.768,1065.754,283.432,1061.355,299.684z"/>
	<path style="fill:#DB6653;" d="M1009.375,267.146c-1.616,0-3.242-0.515-4.582-1.574c-30.715-24.233-64.96-42.865-101.782-55.377
		c-55.599-18.892-99.145-17.625-137.559-16.505c-49.559,1.443-56.145,9.672-56.983,12.159c-0.926,2.75,0.665,7.068,4.481,12.16
		c2.301,3.07,1.547,7.332-1.683,9.519c-3.231,2.186-7.714,1.47-10.015-1.6c-6.695-8.935-8.869-17.09-6.461-24.241
		c4.673-13.873,25.673-20.345,70.221-21.642c39.69-1.155,84.678-2.466,142.834,17.296c38.406,13.05,74.11,32.472,106.119,57.727
		c3.051,2.408,3.472,6.71,0.939,9.611C1013.484,266.306,1011.437,267.146,1009.375,267.146z"/>
</g>
<path style="fill:#3A301B;" d="M526.897,692.786c0.595,23.651-39.709,49.981-76.014,46.389
	c-24.978-2.471-57.293-20.02-57.573-44.209c-0.25-21.555,25.052-38.293,44.103-43.644
	C476.492,640.346,526.246,666.898,526.897,692.786z"/>
<path style="fill:#3A301B;" d="M231.4,695.647c0.527,20.94-35.159,44.253-67.303,41.073c-22.115-2.188-50.727-17.725-50.976-39.143
	c-0.221-19.084,22.181-33.905,39.049-38.642C186.771,649.216,230.824,672.725,231.4,695.647z"/>
<g>
	<path style="fill:#D04123;" d="M226.16,568.712c22.057,12.484-18.481,103.14-20.479,106.547c-0.974,1.661-2.242,3.119-3.739,4.308
		c0,0-0.878,0.699-1.863,1.27c-1.63,0.944-57.176,30.23-93.303,27.285c-44.444-3.623-93.931-58.833-105.428-137.155
		c-1.919-7.017-1.789-11.36,0.39-13.031c7.793-5.974,41.794,22.238,102.006,84.64C76.568,512.348,72.91,452.721,87.255,447.795
		c13.394-4.599,43.723,38.065,95.537,141.389C208.043,567.264,220.019,565.237,226.16,568.712z"/>
	<path style="fill:#E5A024;" d="M318.845,659.699c-4.598-3.801-19.814,7.325-30.602,15.213
		c-15.174,11.095-26.97,22.281-35.744,31.62c0.452-2.137,0.897-4.352,1.336-6.65c6.737-35.265,14.648-96.455,3.895-111.985
		c-1.517-2.191-4.724-2.702-6.958-1.129c-14.783,10.411-34.076,66.402-41.302,101.671c-16.39-32.715-41.65-76.239-57.725-82.768
		c-2.573-1.045-5.544,0.178-6.459,2.636c-5.104,13.721,6.536,56.09,19.372,88.875c-8.192-5.276-17.918-11.574-29.521-19.108
		c-30.038-19.504-34.795-22.618-36.752-21.969c-0.266,0.088-0.374,0.189-0.445,0.234c-10.275,6.588,6.059,82.882,51.695,104.216
		c4.115,1.924,2.005,0.379,79.561,0.836c11.451,0.067,25.972,0.186,40.214-8.565c10.381-6.379,17.044-15.277,19.553-18.686
		c4.902-6.662,6.479-11.044,14.492-28.627c4.584-10.059,8.523-18.402,11.375-24.365
		C321.512,666.213,320.806,661.319,318.845,659.699z"/>
	<path style="fill:#DB6653;" d="M107.483,548.046c-4.207,0-7.888-3.085-8.514-7.372l-7.606-52.115
		c-0.688-4.708,2.572-9.082,7.28-9.769c4.705-0.69,9.082,2.572,9.769,7.28l7.606,52.115c0.688,4.708-2.572,9.081-7.28,9.769
		C108.316,548.015,107.897,548.046,107.483,548.046z"/>
	<path style="fill:#DB6653;" d="M26.353,617.03c-4.146,0-7.802-3.002-8.491-7.228l-3.125-19.146
		c-0.768-4.696,2.418-9.124,7.113-9.891c4.693-0.773,9.124,2.417,9.891,7.113l3.125,19.146c0.768,4.696-2.418,9.124-7.113,9.891
		C27.281,616.993,26.814,617.03,26.353,617.03z"/>
	<path style="fill:#FFBD5C;" d="M165.183,669.873c-2.828,0-5.419-1.883-6.193-4.744l-6.399-23.634
		c-0.927-3.423,1.097-6.948,4.52-7.875c3.419-0.928,6.948,1.096,7.875,4.52l6.399,23.634c0.927,3.423-1.097,6.948-4.52,7.875
		C166.303,669.8,165.738,669.873,165.183,669.873z"/>
	<path style="fill:#FFBD5C;" d="M122.47,717.18c-2.371,0-4.65-1.318-5.767-3.59l-9.282-18.885c-1.564-3.183-0.252-7.03,2.93-8.594
		c3.185-1.566,7.03-0.252,8.594,2.93l9.282,18.885c1.564,3.183,0.252,7.03-2.93,8.594C124.386,716.968,123.42,717.18,122.47,717.18z
		"/>
</g>
<path style="fill:#3B301B;" d="M272.721,552.262c-1.198,0.168-2.458-0.046-3.588-0.694l-33.752-19.353
	c-2.705-1.551-3.641-5.003-2.09-7.708c1.552-2.707,5.004-3.641,7.708-2.09l33.752,19.353c2.705,1.551,3.641,5.003,2.09,7.708
	C275.938,551.054,274.39,552.029,272.721,552.262z"/>
<g>
	<path style="fill:#EBE2C3;" d="M407.624,696.883c-67.639,5.452-135.277,10.903-202.916,16.355l-43.993-190.48
		c-8.993-64.286,44.34-124.88,119.123-135.342l0,0c0.935-0.131,1.868-0.253,2.801-0.367
		c84.052-10.269,154.381,49.125,146.158,122.052L407.624,696.883z"/>
	<path style="fill:#3B301B;" d="M242.344,561.581c-2.85,0.399-5.588-1.429-6.269-4.285l-18.41-77.253
		c-0.723-3.034,1.15-6.079,4.184-6.802c3.041-0.724,6.08,1.15,6.802,4.184l18.41,77.253c0.723,3.034-1.15,6.079-4.184,6.802
		C242.699,561.523,242.521,561.556,242.344,561.581z"/>
	<path style="fill:#3B301B;" d="M236.32,527.579c-2.657,0.372-5.281-1.2-6.143-3.84c-0.969-2.965,0.649-6.154,3.613-7.122
		c12.908-4.219,17.874-13.109,19.41-16.735c1.77-4.179,2.076-8.404,0.797-11.026c-2.695-5.53-14.978-10.045-28.855-4.834
		c-2.916,1.09-6.175-0.382-7.272-3.303c-1.096-2.92,0.383-6.175,3.303-7.272c8.538-3.205,17.698-3.861,25.795-1.849
		c8.085,2.01,14.348,6.496,17.181,12.309c2.748,5.638,2.547,13.066-0.55,20.379c-4.521,10.674-14.108,19.08-26.301,23.066
		C236.973,527.458,236.646,527.533,236.32,527.579z"/>
	<path style="fill:#3B301B;" d="M346.948,546.686c-0.051,0.007-0.101,0.013-0.152,0.019c-3.099,0.349-5.895-1.879-6.245-4.978
		l-8.905-78.916c-0.349-3.099,1.887-5.907,4.979-6.245c3.099-0.349,5.894,1.879,6.245,4.979l8.904,78.915
		C352.118,543.509,349.967,546.264,346.948,546.686z"/>
	<path style="fill:#3B301B;" d="M345.085,512.204c-2.947,0.413-5.737-1.547-6.318-4.503c-0.602-3.06,1.391-6.029,4.451-6.631
		c13.323-2.622,19.332-10.844,21.297-14.258c2.264-3.933,3.079-8.089,2.129-10.847c-2.005-5.816-13.65-11.784-28.055-8.299
		c-3.033,0.745-6.084-1.128-6.817-4.159c-0.734-3.031,1.128-6.083,4.159-6.817c8.863-2.145,18.036-1.687,25.83,1.293
		c7.782,2.975,13.454,8.188,15.561,14.302c2.044,5.929,0.944,13.278-3.018,20.162c-5.783,10.046-16.318,17.229-28.905,19.706
		C345.293,512.172,345.188,512.19,345.085,512.204z"/>
	<path style="fill:#3B301B;" d="M308.837,552.278c-3.006,0.42-5.823-1.619-6.344-4.631l-13.265-76.706
		c-0.531-3.073,1.529-5.995,4.602-6.527c3.099-0.511,5.995,1.529,6.527,4.602l13.265,76.706c0.531,3.073-1.529,5.995-4.602,6.527
		C308.959,552.26,308.898,552.27,308.837,552.278z"/>
	<path style="fill:#FFFFFF;" d="M208.803,617.472c-2.909,0-5.624-1.835-6.606-4.744c-9.645-28.557-16.161-57.981-19.368-87.459
		c-0.536-4.942-0.988-9.954-1.343-14.897c-0.275-3.842,2.615-7.18,6.457-7.455c3.868-0.283,7.18,2.616,7.455,6.457
		c0.343,4.774,0.779,9.615,1.298,14.389c3.097,28.472,9.394,56.903,18.716,84.503c1.232,3.649-0.727,7.606-4.376,8.839
		C210.296,617.354,209.543,617.472,208.803,617.472z"/>
	<path style="fill:#FFFFFF;" d="M186.786,477.723c-0.646,0-1.302-0.09-1.953-0.279c-3.697-1.077-5.822-4.948-4.746-8.646
		c2.22-7.621,5.548-14.761,9.892-21.22c9.521-14.159,24.286-25.144,41.574-30.928c3.649-1.227,7.604,0.748,8.826,4.4
		s-0.748,7.604-4.4,8.826c-8.331,2.788-23.882,9.807-34.426,25.485c-3.541,5.265-6.257,11.097-8.073,17.336
		C192.592,475.745,189.808,477.723,186.786,477.723z"/>
	<path style="fill:#FFFFFF;" d="M402.747,569.359c-0.188,0-0.377-0.008-0.567-0.023c-3.84-0.309-6.701-3.672-6.392-7.511
		l4.127-51.269c0.309-3.839,3.671-6.703,7.511-6.392c3.839,0.309,6.701,3.671,6.392,7.511l-4.127,51.269
		C409.397,566.592,406.345,569.359,402.747,569.359z"/>
	<circle style="fill:#FFFFFF;" cx="332.572" cy="591.254" r="9.44"/>
	
		<ellipse transform="matrix(0.9991 -0.0423 0.0423 0.9991 -23.6145 15.7863)" style="fill:#FFFFFF;" cx="361.222" cy="565.903" rx="3.496" ry="4.895"/>
	
		<ellipse transform="matrix(0.9991 -0.0423 0.0423 0.9991 -17.3062 14.2885)" style="fill:#FFFFFF;" cx="328.983" cy="416.089" rx="6.993" ry="7.692"/>
</g>
<path style="fill:#E5A024;" d="M1143.289,722.378c-8.848,4.823-12.234,4.034-90.295,4.317c-47.488,0.172-50.563,0.48-56.84-3.547
	c-35.641-22.863-31.76-93.901-29.782-130.111c1.602-29.327,4.652-33.283,7.65-34.321c11.029-3.818,31.896,27.144,48.58,55.49
	c40.971-83.502,86.483-169.612,99.063-164.694c2.207,0.863,2.836,4.271,3.081,6.632c5.771,55.682-6.982,132.581-19.101,183.863
	c34.101-27.904,68.201-55.808,102.302-83.712c4.043-3.677,9.237-7.586,11.999-5.838c9.71,6.148-19.737,76.49-21.848,81.491
	C1175.96,684.385,1164.891,710.604,1143.289,722.378z"/>
<path style="fill:#3B301B;" d="M882.691,697.532c0.953-1.468,2.801-2.077,4.444-1.466c7.534,2.313,14.832,5.33,21.796,9.012
	c-5.354-13.717-11.895-28.555-9.039-42.344c0.595-2.234,2.895-3.565,5.136-2.972c0.756,0.2,1.441,0.607,1.977,1.174
	c11.739,11.186,22.68,23.177,32.741,35.884c0.669-18.985,2.773-37.893,6.293-56.562c0.706-3.719,6.062-3.88,7.777-0.933
	c12.203,20.825,21.198,43.36,26.682,66.849c6.094-9.719,16.11-18.9,23.493-22.6c2.595-1.316,6.737,0.313,6.265,3.721
	c-1.766,16.227-3.961,35.799-14.581,48.993c-8.494,10.388-22.092,9.53-34.336,9.795c-18.019,0.379-35.276,2.397-50.5-8.836
	c-12.2-9.05-20.582-22.272-28.571-34.904C881.179,700.86,881.36,698.802,882.691,697.532z"/>
<path style="fill:#D04123;" d="M1242.595,670.638c0.801-2.406-0.426-5.017-2.792-5.944c-1.708-1.094-3.898-1.094-5.606,0
	c-15.968,9.041-30.625,20.209-43.567,33.196c5.897-31.03,8.124-62.641,6.635-94.188c-0.21-4.375-6.299-8.1-9.679-3.998
	c-21.057,26.3-36.31,56.733-44.764,89.311c-11.044-33.364-24.292-65.974-47.661-92.932c-2.238-2.2-5.84-2.175-8.047,0.056
	c-0.672,0.679-1.161,1.517-1.423,2.435c-5.69,31.94,2.394,62.332,13.983,91.676c-13.938-11.383-30.129-19.707-47.514-24.426
	c-3.082-0.72-6.166,1.188-6.888,4.26c-0.328,1.396-0.118,2.863,0.589,4.112c11.506,23.359,24.208,48.141,46.044,63.692
	c19.925,14.128,45.078,18.356,69.056,15.886c21.878-2.24,38.99-9.607,53.036-26.875c13.059-16.033,21.353-35.352,28.177-54.692
	C1242.403,671.712,1242.545,671.181,1242.595,670.638z"/>
<path style="fill:#FFBD5C;" d="M1066.369,590.169c-0.341,0-0.687-0.027-1.035-0.082c-3.563-0.567-5.99-3.916-5.424-7.479
	c2.892-18.159,8.146-35.689,15.615-52.104c4.824-10.602,10.61-20.794,17.197-30.297c2.055-2.964,6.121-3.704,9.09-1.646
	c2.965,2.055,3.702,6.125,1.646,9.09c-6.144,8.862-11.541,18.372-16.043,28.265c-6.983,15.346-11.897,31.747-14.604,48.747
	C1072.3,587.878,1069.524,590.169,1066.369,590.169z"/>
<path style="fill:#FFBD5C;" d="M982.498,621.887c-3.403,0-6.272-2.637-6.51-6.084l-1.511-21.961
	c-0.247-3.599,2.47-6.717,6.069-6.964c3.566-0.256,6.716,2.47,6.964,6.069l1.511,21.959c0.248,3.599-2.469,6.717-6.068,6.965
	C982.801,621.882,982.648,621.887,982.498,621.887z"/>
<path style="fill:#DB6653;" d="M1111.993,661.075c-1.933,0-3.823-0.96-4.934-2.713l-14.615-23.077
	c-1.724-2.722-0.915-6.325,1.807-8.049s6.326-0.913,8.049,1.807l14.615,23.077c1.724,2.722,0.915,6.325-1.807,8.049
	C1114.141,660.782,1113.06,661.075,1111.993,661.075z"/>
<path style="fill:#DB6653;" d="M1093.522,704.922c-0.837,0-1.687-0.182-2.493-0.563l-14.616-6.923
	c-2.911-1.379-4.153-4.856-2.774-7.769c1.38-2.911,4.855-4.152,7.769-2.774l14.616,6.923c2.911,1.379,4.153,4.856,2.774,7.769
	C1097.801,703.689,1095.707,704.922,1093.522,704.922z"/>
<path style="fill:#3A301B;" d="M297.891,722.557c0.598,23.775-39.918,50.244-76.414,46.632
	c-25.109-2.484-57.594-20.125-57.876-44.442c-0.251-21.668,25.183-38.494,44.335-43.873
	C247.221,669.841,297.237,696.532,297.891,722.557z"/>
<path style="fill:#574730;" d="M268.824,725.887c-2.617,0-5.252-0.859-7.45-2.629c-4.423-3.559-13.8-9.679-26.913-10.687
	c-12.336-0.944-22.074,3.128-26.781,5.642c-5.795,3.1-13.003,0.906-16.099-4.888c-3.097-5.795-0.908-13.003,4.888-16.099
	c8.541-4.563,22.381-9.715,39.816-8.38c19.508,1.5,33.438,10.59,40.005,15.874c5.119,4.119,5.93,11.607,1.811,16.727
	C275.751,724.369,272.303,725.887,268.824,725.887z"/>
<path style="fill:#3A301B;" d="M421.08,706.139c0.598,23.775-39.918,50.244-76.414,46.632
	c-25.109-2.484-57.594-20.125-57.876-44.442c-0.251-21.668,25.183-38.494,44.335-43.873
	C370.409,653.422,420.425,680.114,421.08,706.139z"/>
<path style="fill:#574730;" d="M392.013,709.468c-2.617,0-5.251-0.859-7.449-2.628c-4.424-3.559-13.804-9.68-26.914-10.688
	c-12.334-0.947-22.074,3.129-26.783,5.643c-5.796,3.096-13.003,0.905-16.098-4.891c-3.096-5.796-0.905-13.003,4.891-16.098
	c8.543-4.563,22.383-9.717,39.814-8.379c19.503,1.5,33.435,10.589,40.004,15.873c5.119,4.118,5.932,11.606,1.813,16.727
	C398.94,707.95,395.492,709.468,392.013,709.468z"/>
<path style="fill:#3A301B;" d="M365.269,761.573c0.476,18.934-31.791,40.014-60.856,37.138
	c-19.997-1.979-45.867-16.027-46.092-35.393c-0.2-17.256,20.056-30.657,35.308-34.941
	C324.915,719.59,364.748,740.847,365.269,761.573z"/>
<path style="fill:#574730;" d="M342.12,764.596c-2.167,0-4.348-0.711-6.167-2.176c-3.488-2.807-10.883-7.635-21.229-8.43
	c-9.722-0.744-17.411,2.468-21.127,4.451c-4.795,2.562-10.761,0.747-13.322-4.049s-0.748-10.761,4.049-13.322
	c6.846-3.655,17.941-7.789,31.91-6.713c15.638,1.201,26.802,8.486,32.064,12.723c4.236,3.409,4.906,9.607,1.497,13.843
	C347.851,763.34,344.998,764.596,342.12,764.596z"/>
<path style="fill:#3A301B;" d="M449.837,757.19c0.411,16.346-27.444,34.543-52.536,32.06c-17.263-1.708-39.597-13.836-39.791-30.554
	c-0.173-14.897,17.314-26.465,30.481-30.164C415.001,720.947,449.387,739.298,449.837,757.19z"/>
<path style="fill:#3A301B;" d="M539.443,757.593c0.411,16.346-27.444,34.543-52.536,32.06
	c-17.263-1.708-39.597-13.836-39.791-30.554c-0.173-14.897,17.314-26.465,30.481-30.164
	C504.606,721.349,538.993,739.7,539.443,757.593z"/>
<g>
	<path style="fill:#E5A024;" d="M493.409,541.467c-14.277-8.307-17.882-25.395-10.002-39.445c4.785-8.536-8.922-15.097-13.685-6.608
		c-12.167,21.673-4.05,47.458,17.055,59.726c8.445,4.914,15.006-8.793,6.608-13.684L493.409,541.467z"/>
	<path style="fill:#E5A024;" d="M516.288,504.456c-20.601-0.169-28.261,18.085-32.892,35.32
		c-12.079,46.581-27.051,92.343-36.961,139.51c-2.432,11.547-4.96,22.817,5.48,30.887s27.352,11.996,40.271,13.677
		c12.372,1.618,26.044,1.383,33.06-10.518c3.973-6.735,4.536-14.829,5.57-22.407c1.539-11.372,4.243-22.586,6.597-33.795
		l15.162-73.218c3.891-18.631,10.542-40.112,6.467-59.272C555.271,506.404,532.287,504.479,516.288,504.456z"/>
	<path style="fill:#E5A024;" d="M511.632,516.153c4.037-15.589,7.341-32.109,0.021-47.298c-4.21-8.725-18.584-3.81-14.326,4.996
		c6.232,12.961,2.791,26.3-0.639,39.557C494.228,522.864,509.183,525.586,511.632,516.153L511.632,516.153z"/>
	<path style="fill:#E5A024;" d="M531.268,514.061c8.685-14.937,10.91-32.768,6.162-49.381c-2.559-9.457-16.884-4.403-14.326,4.996
		c3.427,12.799,1.448,26.444-5.474,37.742c-4.938,8.433,8.77,14.994,13.685,6.608L531.268,514.061z"/>
	<path style="fill:#E5A024;" d="M548.274,520.869c8.45-11.526,16.641-29.205,14.603-43.863c-1.318-9.637-16.487-8.509-15.085,1.37
		c1.458,10.483-4.822,24.383-10.9,32.67c-5.771,7.829,5.649,17.872,11.442,9.996L548.274,520.869z"/>
	<path style="fill:#E5A024;" d="M556.293,537.027c12.152-8.291,21.04-20.551,25.14-34.679c2.857-9.322-12.097-11.986-14.944-2.745
		c-3.199,10.177-9.796,18.947-18.688,24.842c-8.091,5.526,0.39,18.131,8.308,12.665L556.293,537.027z"/>
	<path style="fill:#F3BC63;" d="M520.764,632.647c8.185-19.811,14.506-40.342,18.881-61.326
		c2.594-12.421-16.823-15.998-19.406-3.601c-3.995,19.255-9.78,38.094-17.278,56.273c-4.835,11.685,12.933,20.351,17.778,8.584
		L520.764,632.647z"/>
	
		<ellipse transform="matrix(0.4348 -0.9005 0.9005 0.4348 -201.7686 752.7579)" style="fill:#F3BC63;" cx="498.804" cy="537.119" rx="8.042" ry="7.342"/>
	<circle style="fill:#F3BC63;" cx="531.931" cy="522.44" r="8.391"/>
	<circle style="fill:#F3BC63;" cx="522.321" cy="539.931" r="4.545"/>
	
		<ellipse transform="matrix(0.4348 -0.9005 0.9005 0.4348 -337.6468 815.7236)" style="fill:#F3BC63;" cx="481.027" cy="676.85" rx="17.132" ry="16.433"/>
</g>
<path style="fill:#3A301B;" d="M633.068,704.212c0.645,25.632-43.036,54.167-82.381,50.274
	c-27.07-2.678-62.091-21.696-62.396-47.912c-0.271-23.36,27.15-41.5,47.797-47.299C578.44,647.379,632.362,676.155,633.068,704.212z
	"/>
<path style="fill:#574730;" d="M601.731,706.873c-2.617,0-5.252-0.859-7.45-2.628c-4.852-3.904-15.14-10.618-29.526-11.725
	c-13.538-1.045-24.218,3.432-29.382,6.189c-5.796,3.097-13.003,0.906-16.099-4.89s-0.906-13.003,4.89-16.099
	c9.099-4.859,23.841-10.353,42.415-8.926c20.781,1.599,35.621,11.281,42.618,16.91c5.119,4.119,5.93,11.608,1.812,16.728
	C608.658,705.354,605.21,706.873,601.731,706.873z"/>
<path style="fill:#3A301B;" d="M500.062,730.467c0.403,16.021-26.899,33.857-51.492,31.423c-16.92-1.674-38.81-13.561-39-29.947
	c-0.169-14.601,16.97-25.939,29.875-29.564C465.918,694.944,499.621,712.93,500.062,730.467z"/>
<path style="fill:#574730;" d="M519.458,761.548c-2.167,0.001-4.348-0.711-6.166-2.175c-2.891-2.326-9.019-6.326-17.586-6.985
	c-8.058-0.622-14.424,2.046-17.501,3.689c-4.798,2.561-10.762,0.749-13.323-4.048s-0.749-10.762,4.048-13.323
	c6.069-3.24,15.908-6.905,28.286-5.951c13.859,1.065,23.755,7.522,28.421,11.276c4.236,3.409,4.907,9.606,1.498,13.843
	C525.189,760.293,522.336,761.548,519.458,761.548z"/>
<path style="fill:#EBE2C3;" d="M926.336,530.584c-2.124,0-4.016-1.506-4.428-3.669l-3.111-16.333
	c-0.467-2.447,1.14-4.811,3.588-5.277c2.448-0.469,4.811,1.14,5.277,3.588l3.111,16.333c0.467,2.448-1.14,4.812-3.588,5.277
	C926.9,530.557,926.616,530.584,926.336,530.584z"/>
<g>
	<path style="fill:#3B301B;" d="M771.687,391.689c-46.344,30.09-111.158,14.011-128.836-41.707
		c-1.501-4.752-3.888-9.176-7.036-13.039c1.907-2.453,3.509-5.129,4.771-7.969c1.587-3.608-1.535-8.069-5.072-8.999
		c-3.87-0.965-7.82,1.261-8.999,5.072c-0.496,1.081-1.119,2.099-1.855,3.033c-1.539-0.782-3.139-1.436-4.785-1.955
		c-0.097-3.382-0.088-6.772,0.028-10.171c0.363-9.453-14.282-9.834-14.627-0.397c-0.135,3.233-0.146,6.464-0.033,9.693
		c-0.623,0.107-1.264,0.196-1.888,0.339c-0.624,0.143-1.393,0.387-2.09,0.599l-3.855-7.495c-4.308-8.411-17.22-1.496-12.929,6.897
		l4.193,8.071l-0.364,0.345l-6.875-5.911c-2.824-2.829-7.368-2.952-10.342-0.281c-2.906,2.79-3.031,7.398-0.281,10.342l9.143,7.869
		c-0.461,1.112-0.859,2.249-1.191,3.406c-0.807-0.305-1.613-0.646-2.42-0.952c-3.87-0.965-7.82,1.261-8.999,5.072
		c-0.965,3.87,1.261,7.82,5.072,8.999c2.245,0.841,4.435,1.769,6.606,2.749c15.038,47.246,49.576,85.134,97.074,101.293
		c42.657,13.712,89.208,7.68,126.961-16.452c14.938-9.731,22.503-27.938,13.599-44.59
		C808.453,390.614,786.697,381.925,771.687,391.689z"/>
	<path style="fill:#3B301B;" d="M748.349,540.945c-25.677-12.019-55.223-15.048-81.655-3.705
		c-23.122,9.934-42.657,31.805-48.033,56.554c-3.77,17.377,2.986,35.651,21.11,41.566c15.585,5.081,37.671-3.603,41.566-21.11
		c1.779-8.23,6.442-14.983,11.319-16.963c11.571-4.687,24.838,1.409,35.25,6.279c16.121,7.554,36.508-5.658,41.566-21.11
		c6.206-18.674-4.934-33.998-21.11-41.566L748.349,540.945z"/>
	<path style="fill:#3B301B;" d="M953.472,302.54c-11.151-2.838-20.783,7.479-29.233,12.848
		c-27.746,17.576-61.673,26.391-92.787,35.878c-24.988,7.596-51.37,17.39-67.451,39.23c-21.174,28.738-22.985,71.35-31.063,105.042
		c-7.907,32.706-13.28,67.991,2.678,99.394c14.289,28.074,42.844,47.109,73.022,54.231c47.223,11.015,108.051-4.016,128.266-52.669
		c15.886-38.23,13.835-83.645,17.315-124.236c4.151-48.375,8.74-96.742,11.495-145.174
		C965.997,317.513,964.474,305.282,953.472,302.54z"/>
	<path style="fill:#3B301B;" d="M956.071,267.146c-6.693-9.389-21.228-27.12-46.153-39.859
		c-26.731-13.663-51.327-14.384-62.935-13.986c-11.546-1.465-31.208-2.239-52.446,6.294c-51.413,20.655-64.947,76.921-67.082,85.796
		c-3.755,15.608-11.748,51.536,8.598,83.422c14.714,23.06,40.29,34.615,66.385,38.75c12.273,1.945,81.397,18.908,128.894-29.786
		c29.501-30.245,39.523-74.135,31.732-109.654C961.1,279.169,958.28,272.009,956.071,267.146z"/>
	<path style="fill:#EAE2C2;" d="M794.447,379.462c2.474-45.704-62.712-71-88.906-30.536c-13.607,20.262-8.212,47.719,12.05,61.326
		c4.042,2.714,8.505,4.742,13.208,6.001c30.888,8.506,56.888-0.924,63.247-33.32c0.16-0.54,0.263-1.095,0.308-1.656
		C794.458,380.678,794.489,380.069,794.447,379.462z"/>
	<path style="fill:#CF4327;" d="M738.203,314.058c-7.757-6.932-20.975-8.424-28.095,0.476c-6.04,7.615-3.657,18.609,3.378,24.569
		c0.491,0.502,1.051,0.933,1.662,1.28c0.545,0.365,1.134,0.659,1.754,0.876c7.217,3.255,16.346,2.917,22.492-2.671
		C746.807,331.752,745.327,320.435,738.203,314.058z"/>
	<path style="fill:#EAE2C2;" d="M892.525,273.506c-33.971-27.897-84.125-22.974-112.022,10.997c-2.112,2.572-4.061,5.274-5.835,8.09
		c-2.135,3.083-1.366,7.312,1.717,9.447c0.009,0.006,0.018,0.013,0.027,0.019c0.481,0.827,1.109,1.56,1.853,2.162
		c32.877,27.354,81.703,22.876,109.056-10c2.757-3.314,5.233-6.852,7.401-10.578C896.812,280.218,895.845,275.757,892.525,273.506z"
		/>
	<path style="fill:#3B301B;" d="M818.912,273.902c-4.174,11.511-3.075,24.275,3.003,34.904c4.642,8.171,17.637,1.304,12.986-6.788
		c-4.246-7.132-5.005-15.813-2.059-23.573c3.198-8.896-10.726-13.414-13.834-4.692L818.912,273.902z"/>
	<path style="fill:#3B301B;" d="M725.658,382.248c9.206-1.996,6.126-16.324-3.105-14.323
		C713.323,369.926,716.427,384.249,725.658,382.248z"/>
	<path style="fill:#3B301B;" d="M737.636,360.4c9.206-1.996,6.126-16.324-3.105-14.323S728.405,362.401,737.636,360.4z"/>
	<path style="fill:#3B301B;" d="M751.634,383.231c9.206-1.996,6.126-16.324-3.105-14.323
		C739.298,370.909,742.403,385.232,751.634,383.231z"/>
	<path style="fill:#EAE2C2;" d="M778.31,449.533c-14.585-7.092-33.218-3.053-41.88,11.385c-4.901,8.138-5.564,19.15-7.709,28.177
		c-3.183,12.379-5.737,24.91-7.652,37.547c-3.039,23.115-0.928,46.215,8.874,67.546c11.911,25.975,44.502,48.134,61.829,14.539
		c6.481-12.556,9.082-26.809,11.505-40.587c3.685-20.845,8.74-41.397,7.631-62.716c-0.149-0.643-0.206-1.304-0.169-1.963
		C808.401,481.796,798.766,459.583,778.31,449.533z"/>
	<path style="fill:#3B301B;" d="M1149.992,346.721l-5.089,1.244c-0.096-1.036-0.247-2.067-0.453-3.087l5.155-2.419
		c3.675-1.678,5.294-6.018,3.615-9.693s-6.018-5.294-9.693-3.615c-0.247,0.113-0.488,0.239-0.721,0.379l-4.561,2.127
		c-0.834-1.171-1.734-2.294-2.696-3.364l5.485-8.272c5.261-7.858-6.981-15.926-12.083-8.209l-5.234,7.835l-0.81-0.322l3.268-10.781
		c2.742-9.029-11.145-13.727-13.889-4.672l-4.102,13.57c-3.761,0.43-7.407,1.561-10.752,3.333c0.138-2.37,0.936-4.655,2.304-6.595
		c5.455-7.747-6.812-15.816-12.083-8.209c-5.156,7.626-6.163,17.322-2.687,25.844c-1.772,2.433-3.298,5.037-4.553,7.773
		c-24.38,53.227-82.172,87.131-139.973,68.666c-40.423-12.918-61.51,49.553-21.087,62.471
		c45.526,14.536,96.226,10.745,138.07-13.093c38.032-21.669,65.417-54.752,83.93-93.832l11.68-2.88
		C1162.208,358.802,1159.203,344.455,1149.992,346.721z"/>
	<path style="fill:#CF4327;" d="M748.28,431.382c31.848,27.601,86.419,19.181,123.878,9.753c38.14-9.6,77.411-31.007,93.42-68.674
		c3.703-8.698-10.26-13.157-13.834-4.692c-13.783,32.442-50.063,50.739-82.589,58.918c-19.348,4.667-39.142,7.239-59.04,7.671
		c-17.829,0.532-36.876-0.773-50.93-12.98c-7.052-6.162-17.93,3.733-10.65,9.999L748.28,431.382z"/>
	<path style="fill:#E5A024;" d="M796.312,490.173c7.774-13.242,3.603-30.058-8.13-39.55c-12.056-9.934-29.882-8.213-39.815,3.842
		c-0.428,0.519-0.837,1.054-1.227,1.602c-9.342,13.412-3.332,30.824,8.21,40.612c0.448,0.429,0.946,0.803,1.483,1.113
		c0.5,0.374,1.044,0.687,1.618,0.932C771.653,506.342,787.842,504.426,796.312,490.173z"/>
	<path style="fill:#CF4327;" d="M783.43,430.114c-2.71,7.759-5.775,15.378-9.193,22.857c-3.915,8.557,9.718,13.931,13.633,5.374
		c3.418-7.479,6.483-15.097,9.193-22.857C800.166,426.634,786.483,421.286,783.43,430.114z"/>
	<path style="fill:#3B301B;" d="M861.413,556.703c-3.731,9.341-9.843,17.543-17.727,23.789c-7.159,5.688-8.12,5.955-15.036,7.347
		c-23.492,4.739-46.455,9.858-64.815,26.444c-42.356,38.286-26.24,96.223,5.35,135.105c26.806,32.957,78.043-8.518,51.278-41.446
		c-7.883-9.687-20.167-24.286-16.602-38.035c2.883-11.033,17.717-13.841,28.056-15.709c42.838-7.735,74.537-34.333,91.358-74.706
		c16.327-39.125-45.542-61.95-61.877-22.77L861.413,556.703z"/>
	<path style="fill:#3B301B;" d="M777.36,767.7c10.588-3.878,20.982-8.203,31.182-12.975c8.373-3.576,12.262-13.261,8.686-21.634
		c-3.576-8.373-13.261-12.262-21.634-8.686c-0.166,0.071-0.331,0.145-0.495,0.221c-10.218,4.739-20.612,9.064-31.182,12.975
		c-8.363,3.068-11.779,14.028-8.329,21.771C759.434,767.983,768.997,770.768,777.36,767.7z"/>
	<path style="fill:#3B301B;" d="M610.728,622.712c10.453,4.228,21.062,7.995,31.827,11.302c8.7,2.682,17.927-2.196,20.61-10.896
		c2.62-8.499-1.973-17.544-10.381-20.442c-10.756-3.342-21.365-7.109-31.827-11.302c-8.26-3.336-18.146,2.498-20.783,10.555
		C597.246,610.895,602.468,619.376,610.728,622.712z"/>
	<path style="fill:#CF4327;" d="M872.588,326.635c-7.932,5.73-15.528,11.913-22.749,18.517c-2.128-4.432-4.586-8.698-7.355-12.761
		c-1.469-2.698-4.846-3.694-7.544-2.226c-0.372,0.202-0.719,0.446-1.035,0.727l-14.692,15.002
		c-4.936,5.018,2.442,13.159,7.422,8.107l10.13-10.271c2.473,4.247,4.624,8.674,6.434,13.243c1.447,2.694,4.803,3.705,7.497,2.259
		c0.39-0.209,0.753-0.465,1.082-0.76c8.858-8.585,18.328-16.515,28.335-23.728C885.728,330.606,878.262,322.535,872.588,326.635z"/>
	<path style="fill:#CF4327;" d="M792.43,253.218c13.53-8.263,27.49-15.801,41.82-22.582c6.393-3.03,0.585-12.358-5.762-9.36
		c-14.33,6.781-28.29,14.319-41.82,22.582C780.626,247.559,786.388,256.919,792.43,253.218z"/>
	<path style="fill:#574730;" d="M933.381,291.335c2.415,16.13,0.856,32.607-4.541,47.998c-3.965,11.626,14.04,17.464,18.1,5.92
		c6.33-18.623,8.038-38.506,4.975-57.936c-1.806-12.118-20.428-8.03-18.608,4.034L933.381,291.335z"/>
	<path style="fill:#574730;" d="M963.337,444.045c41.977,0.562,82.473-15.503,112.65-44.687c8.811-8.511-3.733-22.794-12.675-14.189
		c-26.385,25.85-61.942,40.187-98.879,39.868c-12.215-0.086-13.362,18.919-1.072,19.01L963.337,444.045z"/>
	<path style="fill:#574730;" d="M775.08,682.199c-7.868-18.602-4.049-40.092,9.746-54.844c8.381-8.727-3.504-23.625-12.008-14.77
		c-20.253,20.357-26.238,50.916-15.161,77.409c4.712,11.36,22.128,3.53,17.393-7.754L775.08,682.199z"/>
	<path style="fill:#574730;" d="M662.254,582.858c3.891-7.874,10.594-14.001,18.785-17.171c4.695-1.992,6.265-8.587,4.01-12.841
		c-2.515-4.561-8.177-6.329-12.841-4.01c-12.577,5.481-22.602,15.534-28.049,28.126c-2.166,4.674,1.619,10.544,6.09,12.01
		c5.379,1.756,9.942-1.437,12.01-6.09L662.254,582.858z"/>
	<path style="fill:#F3BC63;" d="M755.088,477.409l5.08,6.254c3.13,4.225,9.092,5.113,13.317,1.983
		c4.225-3.13,5.113-9.092,1.983-13.317c-0.088-0.118-0.178-0.235-0.271-0.349l-5.08-6.254c-3.13-4.225-9.092-5.113-13.317-1.983
		c-4.225,3.13-5.113,9.092-1.983,13.317C754.904,477.178,754.995,477.295,755.088,477.409z"/>
	<path style="fill:#3A301B;" d="M1151.51,469.542c9.227,16.379,15.859,34.531,18.493,54.193c1.253,9.85,1.575,20.05,0.336,30.583
		c-1.227,10.501-3.915,21.344-8.835,31.922c-2.463,5.277-5.482,10.465-9.089,15.369c-3.588,4.906-7.825,9.515-12.442,13.567
		c-4.609,4.065-9.618,7.574-14.74,10.403c-5.121,2.852-10.342,5.105-15.499,6.858c-10.343,3.503-20.323,4.998-29.811,5.538
		c-9.507,0.505-18.526-0.011-27.415-1.216c-2.227-0.312-4.45-0.665-6.704-1.079c-2.244-0.418-4.569-0.883-7.104-1.513
		c-4.649-1.152-9.301-2.594-13.883-4.309c-4.573-1.761-9.055-3.8-13.338-6.086c-4.29-2.282-8.322-4.832-12.07-7.442
		c-7.498-5.226-13.732-10.777-18.612-15.014c-2.44-2.122-4.546-3.906-6.264-5.235c-1.724-1.339-3.024-2.21-4-2.793
		c-0.989-0.582-1.675-0.935-2.603-1.227c-0.894-0.283-2.237-0.468-3.524-0.475c-1.308-0.009-2.742,0.161-4.353,0.53
		c-1.598,0.315-3.402,1.069-5.288,1.866c-3.804,1.785-8.008,4.525-12.185,7.982c-4.188,3.452-8.357,7.574-12.419,12.042
		l-0.435,0.478c-9.516,10.466-25.714,11.236-36.18,1.72c-9.837-8.944-11.039-23.882-3.255-34.325
		c4.815-6.416,10.061-12.761,16.164-18.875c6.106-6.097,13.093-12.004,21.529-17.128c4.303-2.502,8.814-4.896,13.906-6.756
		c5.037-1.885,10.469-3.359,16.142-4.163c5.689-0.795,11.423-0.972,17.495-0.347c6.039,0.62,12.18,2.162,17.667,4.296
		c5.509,2.124,10.339,4.747,14.462,7.292c4.135,2.558,7.615,5.042,10.7,7.253c6.147,4.455,10.828,7.791,15.15,10.177
		c4.296,2.421,8.177,3.916,12.307,5.033c2.078,0.516,4.206,0.942,6.427,1.255c0.895,0.123,2.037,0.232,3.266,0.335
		c1.221,0.098,2.484,0.171,3.75,0.224c5.086,0.187,10.174-0.066,14.663-0.791c4.486-0.722,8.433-1.889,11.26-3.314
		c2.847-1.441,4.613-2.911,5.618-4.346c0.531-0.72,0.96-1.414,1.364-2.289c0.405-0.862,0.786-1.859,1.12-3.024
		c0.664-2.329,1.088-5.372,1.065-8.851c0.006-3.471-0.543-7.399-1.497-11.411c-1.986-8.081-5.938-16.507-11.331-24.091
		c-13.159-18.503-8.827-44.17,9.676-57.329c18.503-13.159,44.17-8.827,57.329,9.676c0.835,1.174,1.599,2.377,2.294,3.603
		L1151.51,469.542z"/>
	<path style="fill:#574730;" d="M1112.981,582.656c-1.887,0-3.796-0.52-5.505-1.609c-4.775-3.046-6.178-9.387-3.133-14.162
		c3.416-5.356,11.082-19.834,8.503-38.541c-2.278-16.533-11.213-27.556-16.335-32.653c-4.016-3.996-4.03-10.489-0.035-14.504
		c3.996-4.016,10.49-4.029,14.504-0.035c6.955,6.922,19.085,21.893,22.187,44.392c3.509,25.45-6.894,45.103-11.528,52.371
		C1119.682,580.98,1116.368,582.656,1112.981,582.656z"/>
	<path style="fill:#EBE2C3;" d="M840.777,493.25c-2.209,0-4.14-1.624-4.461-3.875l-2.334-16.334
		c-0.354-2.467,1.361-4.753,3.828-5.105c2.467-0.354,4.753,1.36,5.105,3.828l2.334,16.334c0.354,2.467-1.361,4.753-3.828,5.105
		C841.205,493.234,840.99,493.25,840.777,493.25z"/>
	<path style="fill:#EBE2C3;" d="M872.667,489.361c-2.166,0-4.077-1.564-4.445-3.771l-3.111-18.668
		c-0.41-2.459,1.251-4.783,3.709-5.193c2.452-0.406,4.784,1.25,5.193,3.709l3.111,18.668c0.41,2.459-1.251,4.783-3.709,5.193
		C873.164,489.34,872.914,489.361,872.667,489.361z"/>
	<path style="fill:#EBE2C3;" d="M910.008,483.138c-1.813,0-3.523-1.101-4.213-2.894l-7.777-20.223
		c-0.895-2.326,0.266-4.938,2.592-5.832c2.326-0.896,4.938,0.268,5.832,2.592l7.777,20.223c0.895,2.326-0.266,4.938-2.592,5.832
		C911.094,483.042,910.546,483.138,910.008,483.138z"/>
	<path style="fill:#EBE2C3;" d="M858.673,540.694c-2.492,0-4.513-2.021-4.513-4.513v-15.556c0-2.492,2.021-4.513,4.513-4.513
		s4.513,2.021,4.513,4.513v15.556C863.186,538.673,861.165,540.694,858.673,540.694z"/>
	<path style="fill:#EBE2C3;" d="M895.224,536.806c-2.178,0-4.095-1.581-4.45-3.8l-3.111-19.446
		c-0.394-2.461,1.282-4.775,3.743-5.169c2.452-0.385,4.775,1.281,5.169,3.743l3.111,19.444c0.394,2.461-1.281,4.775-3.742,5.17
		C895.701,536.787,895.461,536.806,895.224,536.806z"/>
	<path style="fill:#EBE2C3;" d="M832.232,594.364c-0.256,0-0.517-0.022-0.778-0.067c-2.455-0.428-4.1-2.765-3.673-5.22l3.112-17.891
		c0.428-2.455,2.756-4.099,5.22-3.671c2.455,0.427,4.099,2.764,3.671,5.22l-3.11,17.889
		C836.292,592.817,834.386,594.364,832.232,594.364z"/>
	<path style="fill:#EBE2C3;" d="M868.79,590.473c-0.187,0-0.375-0.011-0.565-0.035c-2.473-0.309-4.228-2.564-3.918-5.037
		l2.333-18.667c0.31-2.474,2.563-4.239,5.037-3.918c2.473,0.309,4.228,2.563,3.918,5.037l-2.333,18.667
		C872.977,588.803,871.032,590.473,868.79,590.473z"/>
	<path style="fill:#EBE2C3;" d="M903.003,588.14c-2.389,0-4.383-1.875-4.503-4.288l-0.777-15.556
		c-0.124-2.489,1.793-4.607,4.282-4.731c2.479-0.126,4.607,1.792,4.731,4.282l0.777,15.556c0.124,2.489-1.793,4.607-4.282,4.731
		C903.155,588.138,903.079,588.14,903.003,588.14z"/>
</g>
<path style="fill:#CF4427;" d="M1110.683,251.891c-2.04,0-4.07-0.84-5.53-2.487c-2.704-3.053-2.422-7.72,0.631-10.424
	c4.736-4.197,12.945-13.132,14.693-25.816c0.413-2.992,0.456-6.13,0.161-9.298c-8.453,4.609-17.148,6.729-25.387,5.995
	c-17.138-1.515-36.788-15.818-35.486-31.308c0.472-5.617,3.599-10.92,9.041-15.334c7.837-6.357,19.132-9.69,28.787-8.487
	c9.444,1.177,18.489,6.832,25.471,15.921c2.021,2.633,3.822,5.477,5.384,8.469c10.728-11.5,19.233-27.829,21.588-44.538
	c2.919-20.701-4.232-38.462-10.746-49.717c-2.042-3.53-0.837-8.047,2.693-10.09c3.529-2.042,8.047-0.837,10.09,2.692
	c7.678,13.268,16.094,34.304,12.587,59.176c-2.579,18.301-11.468,37.015-24.388,51.341c-2.03,2.25-4.119,4.343-6.252,6.27
	c1.604,6.972,2.021,14.147,1.088,20.924c-2.398,17.395-13.267,29.303-19.531,34.853
	C1114.171,251.278,1112.423,251.891,1110.683,251.891z M1093.556,169.255c-5.253,0-11.32,2.087-15.446,5.434
	c-2.149,1.744-3.506,3.651-3.628,5.102c-0.401,4.771,10.569,14.343,22.07,15.36c6.552,0.579,13.553-1.729,20.269-6.103
	c-1.465-3.388-3.304-6.578-5.471-9.399c-4.556-5.932-10.09-9.577-15.583-10.261C1095.052,169.298,1094.313,169.255,1093.556,169.255
	z"/>
<path style="fill:#CF4427;" d="M575.022,272.509c-0.76,0-1.532-0.118-2.293-0.367c-10.618-3.467-25.438-10.836-35.737-26.251
	c-4.868-7.285-8.541-16.025-10.471-24.948c-1.653-0.465-3.323-1.005-5.006-1.618c-15.909-5.794-35.351-19.719-42.205-41.427
	c-8.307-26.308,6.398-50.29,11.104-57.014c2.336-3.342,6.943-4.156,10.283-1.817c3.342,2.338,4.155,6.942,1.816,10.284
	c-3.725,5.324-15.392,24.237-9.119,44.1c5.029,15.932,19.368,26.538,31.659,31.42c0.438-10.155,3.714-19.512,10.705-26.039
	c9.313-8.693,25.934-12.516,34.239-4.621c3.923,3.729,5.692,9.809,4.982,17.12c-0.892,9.183-6.013,21.134-15.441,27.131
	c-4.71,2.995-10.569,4.561-17.116,4.687c1.637,5.209,3.978,10.239,6.849,14.536c7.954,11.904,19.64,17.673,28.042,20.417
	c3.877,1.266,5.993,5.435,4.728,9.312C581.023,270.53,578.132,272.509,575.022,272.509z M539.821,208.331
	c4.798,0.261,8.929-0.508,11.792-2.33c3.929-2.499,7.311-8.249,8.416-14.31c0.744-4.077,0.079-6.235-0.215-6.759
	c-1.795-0.927-9.081,0.126-13.979,4.697C541.404,193.767,539.605,200.649,539.821,208.331z"/>
<path style="fill:#CF4427;" d="M585.656,125.109c-3.854,0-7.1-2.992-7.36-6.894l-3.111-46.668c-0.271-4.069,2.808-7.588,6.877-7.859
	c4.048-0.256,7.588,2.808,7.859,6.877l3.111,46.668c0.271,4.069-2.808,7.588-6.877,7.859
	C585.988,125.104,585.822,125.109,585.656,125.109z"/>
<path style="fill:#CF4427;" d="M564.656,100.998c-3.807,0-7.037-2.923-7.352-6.784c-0.332-4.064,2.693-7.628,6.759-7.96
	l38.111-3.111c4.061-0.329,7.629,2.694,7.96,6.759c0.332,4.064-2.693,7.628-6.759,7.96l-38.111,3.111
	C565.061,100.989,564.857,100.998,564.656,100.998z"/>
<path style="fill:#CF4427;" d="M1097.464,100.998c-2.351,0-4.66-1.119-6.092-3.201l-17.111-24.89
	c-2.311-3.36-1.459-7.958,1.901-10.269c3.363-2.311,7.96-1.458,10.269,1.901l17.111,24.89c2.311,3.36,1.459,7.958-1.901,10.269
	C1100.362,100.576,1098.905,100.998,1097.464,100.998z"/>
<path style="fill:#CF4427;" d="M1071.796,97.109c-2.233,0-4.439-1.009-5.892-2.926c-2.463-3.25-1.824-7.882,1.427-10.345
	l25.667-19.445c3.252-2.464,7.883-1.823,10.345,1.427c2.463,3.25,1.824,7.882-1.427,10.345l-25.667,19.445
	C1074.915,96.62,1073.349,97.109,1071.796,97.109z"/>
<path style="fill:#CF4427;" d="M634.012,233.317c-1.89,0-3.779-0.721-5.222-2.163l-16.334-16.333c-2.884-2.884-2.884-7.559,0-10.443
	c2.883-2.884,7.559-2.884,10.443,0l16.334,16.334c2.884,2.884,2.884,7.559,0,10.443
	C637.791,232.596,635.901,233.317,634.012,233.317z"/>
<path style="fill:#CF4427;" d="M618.449,234.874c-1.367,0-2.751-0.379-3.986-1.174c-3.431-2.206-4.424-6.774-2.218-10.205l14-21.778
	c2.204-3.43,6.775-4.423,10.204-2.218c3.431,2.206,4.424,6.774,2.218,10.205l-14,21.778
	C623.257,233.676,620.878,234.874,618.449,234.874z"/>
<path style="fill:#CF4427;" d="M481.915,438.625c-2.449,0-4.846-1.218-6.25-3.441l-19.691-31.179
	c-2.178-3.448-1.147-8.009,2.3-10.187c3.45-2.178,8.01-1.148,10.187,2.301l19.691,31.178c2.178,3.448,1.148,8.009-2.3,10.187
	C484.628,438.256,483.263,438.625,481.915,438.625z"/>
<path style="fill:#CF4427;" d="M532.787,423.036c-0.222,0-0.445-0.01-0.671-0.03c-4.062-0.365-7.058-3.954-6.692-8.017l7.384-82.047
	c0.365-4.063,3.941-7.066,8.017-6.693c4.062,0.365,7.058,3.955,6.692,8.016l-7.384,82.048
	C539.788,420.149,536.566,423.036,532.787,423.036z"/>
<path style="fill:#CF4427;" d="M574.618,446.008c-1.646,0-3.3-0.547-4.672-1.67c-3.156-2.582-3.622-7.234-1.039-10.391l51.69-63.177
	c2.584-3.156,7.236-3.62,10.391-1.039c3.156,2.583,3.622,7.235,1.039,10.392l-51.69,63.176
	C578.877,445.084,576.756,446.008,574.618,446.008z"/>
<g>
	<path style="fill:#E59F22;" d="M399.037,294.803c-2.55-1.41-5.156-2.541-7.77-3.367c-2.617-0.817-5.21-1.398-7.823-1.55
		c-5.137-0.506-10.054,0.109-14.698,1.477c-4.646,1.37-9.05,3.489-13.168,6.072c-4.081,2.591-8.027,5.751-10.983,8.992
		c-9.765,10.708-26.362,11.472-37.07,1.707c-10.708-9.765-11.472-26.362-1.707-37.07c3.544-3.886,7.988-6.463,12.724-7.701
		l4.443-1.167c4.079-1.074,8.059-1.824,12.011-2.342c3.944-0.543,7.911-0.798,11.86-0.88c7.914-0.1,15.894,0.717,23.57,2.789
		c7.663,2.053,14.969,5.443,21.089,9.978c3.114,2.16,5.868,4.734,8.318,7.425c2.449,2.701,4.561,5.582,6.357,8.549
		c1.48,2.445,0.698,5.628-1.747,7.108c-1.64,0.993-3.611,0.968-5.178,0.107L399.037,294.803z"/>
	
		<ellipse transform="matrix(0.9975 -0.071 0.071 0.9975 -19.2434 22.5186)" style="fill:#3B301B;" cx="307.149" cy="281.958" rx="50.526" ry="39.381"/>
	<path style="fill:#3B301B;" d="M265.428,375.448c-42.141,48.22-102.412,59.951-135.684,62.987
		c-6.299,0.575-11.111-5.532-9.068-11.518c19.339-56.644,45.065-95.037,62.973-117.804c16.618-21.127,33.323-37.468,57.655-47.402
		c7.363-3.006,46.331-18.916,61.47-3.944C321.649,276.435,298.232,337.912,265.428,375.448z"/>
	
		<ellipse transform="matrix(0.9975 -0.071 0.071 0.9975 -18.9816 23.1444)" style="fill:#EBE2C3;" cx="316.083" cy="278.588" rx="22.114" ry="20.296"/>
	<circle style="fill:#D04123;" cx="318.133" cy="276.164" r="12.42"/>
	<path style="fill:#574730;" d="M236.296,391.455c-1.997,0-3.928-0.339-5.71-1.026c-4.771-1.839-8.382-5.978-10.358-11.26
		c-7.021,2.892-14.666,2.805-20.547-0.907c-5.035-3.179-8.467-8.954-9.415-15.844c-0.496-3.6-0.28-7.237,0.593-10.742
		c-2.703-0.674-5.28-1.764-7.632-3.256c-5.055-3.208-8.393-7.911-9.159-12.902c-0.712-4.636,0.726-9.618,4.046-14.028
		c4.306-5.717,11.135-9.555,18.735-10.529c4.277-0.548,8.176,2.471,8.723,6.741c0.547,4.27-2.471,8.175-6.74,8.722
		c-6.567,0.841-9.395,5.481-9.35,6.775c0.054,0.156,0.692,1.295,2.565,2.336c2.668,1.481,6.104,1.769,9.428,0.786
		c3.343-0.988,6.943,0.367,8.804,3.321c1.86,2.953,1.531,6.783-0.807,9.375c-4.162,4.614-4.019,9.421-3.763,11.274
		c0.346,2.514,1.432,4.245,2.294,4.789c1.991,1.258,8.251,0.528,12.617-5.299c2.197-2.931,6.137-3.937,9.469-2.419
		c3.333,1.519,5.159,5.152,4.389,8.732c-1.125,5.229,0.746,9.056,1.726,9.777c1.61,0.204,6.993-2.211,8.627-9.512
		c0.94-4.2,5.099-6.846,9.31-5.904c4.2,0.94,6.844,5.108,5.903,9.309c-1.88,8.399-6.962,15.358-13.941,19.093
		C242.889,390.578,239.506,391.455,236.296,391.455z"/>
	<path style="fill:#574730;" d="M254.214,352.589c-6.005,0-11.911-2.451-16.006-7.231c-3.451-4.029-5.1-9.177-4.925-14.338
		c-2.751-0.62-5.381-1.702-7.768-3.229c-5.134-3.284-8.566-8.278-9.417-13.7c-1.279-8.159,3.375-16.899,11.583-21.75
		c3.708-2.191,8.487-0.96,10.676,2.744c2.19,3.706,0.962,8.486-2.744,10.676c-2.85,1.685-4.354,4.381-4.114,5.914
		c0.116,0.737,0.818,1.961,2.417,2.984c2.22,1.419,5.105,1.773,7.917,0.974c3.223-0.917,6.668,0.329,8.562,3.093
		c1.893,2.764,1.809,6.427-0.21,9.101c-1.728,2.288-1.786,5.465-0.137,7.39c1.701,1.989,5.557,2.585,8.36,0.268
		c3.32-2.74,8.233-2.273,10.974,1.046s2.272,8.232-1.046,10.973C264.203,350.917,259.175,352.589,254.214,352.589z"/>
	<path style="fill:#574730;" d="M155.063,398.073c-1.198,0-2.414-0.277-3.554-0.862c-3.829-1.966-5.34-6.665-3.373-10.494
		l8.843-17.222c1.967-3.828,6.663-5.341,10.495-3.372c3.829,1.967,5.339,6.666,3.372,10.495l-8.843,17.219
		C160.623,396.527,157.894,398.073,155.063,398.073z"/>
	<path style="fill:#574730;" d="M172.258,407.77c-2.102,0-4.195-0.844-5.732-2.511c-2.918-3.165-2.718-8.096,0.446-11.014
		l10.243-9.446c3.163-2.918,8.096-2.72,11.014,0.445c2.919,3.165,2.72,8.096-0.445,11.014l-10.243,9.447
		C176.041,407.088,174.146,407.77,172.258,407.77z"/>
	<path style="fill:#574730;" d="M193.845,415.594c-3.152,0-6.12-1.927-7.296-5.052c-1.517-4.029,0.521-8.524,4.55-10.04l13.799-5.19
		c4.025-1.515,8.523,0.522,10.039,4.553c1.515,4.029-0.523,8.523-4.553,10.039l-13.795,5.188
		C195.685,415.433,194.757,415.594,193.845,415.594z"/>
	<path style="fill:#3B301B;" d="M291.97,400.063c-0.411,0-0.83-0.057-1.246-0.176c-2.396-0.687-3.78-3.186-3.094-5.582
		c2.239-7.811,0.186-15.986-5.232-20.826c-4.859-4.342-10.897-4.668-13.282-4.597c-2.477,0.06-4.564-1.898-4.632-4.39
		s1.898-4.565,4.39-4.633c3.447-0.089,12.266,0.393,19.537,6.889c7.984,7.132,11.083,18.925,7.896,30.044
		C295.738,398.773,293.932,400.063,291.97,400.063z"/>
	<path style="fill:#3B301B;" d="M273.098,404.166c-0.46,0-0.928-0.071-1.389-0.221c-2.372-0.767-3.673-3.31-2.906-5.682
		c0.256-0.79,2.377-7.868-1.709-13.046c-1.212-1.535-2.819-2.733-4.779-3.562c-2.296-0.97-3.37-3.618-2.399-5.914
		c0.97-2.296,3.619-3.368,5.913-2.4c3.329,1.407,6.217,3.58,8.351,6.284c6.843,8.671,3.876,19.359,3.212,21.414
		C276.773,402.95,275.002,404.166,273.098,404.166z"/>
</g>
<path style="fill:#CF4427;" d="M601.705,477.188c-2.589,0-5.101-1.363-6.453-3.783c-1.989-3.561-0.716-8.059,2.844-10.049
	l55.792-31.179c3.56-1.989,8.06-0.716,10.049,2.844s0.716,8.059-2.844,10.049l-55.792,31.179
	C604.161,476.885,602.924,477.188,601.705,477.188z"/>
</svg>
