<?xml version="1.0" encoding="iso-8859-1"?>
<!-- Generator: Adobe Illustrator 23.0.2, SVG Export Plug-In . SVG Version: 6.00 Build 0)  -->
<svg version="1.1" id="Layer_1" xmlns="http://www.w3.org/2000/svg" xmlns:xlink="http://www.w3.org/1999/xlink" x="0px" y="0px"
	 viewBox="0 0 1105.6 1080" style="enable-background:new 0 0 1105.6 1080;" xml:space="preserve">
<g style="opacity:0.3;">
	<g>
		<path style="fill:#C4ECFE;" d="M1026.7,80.7V885H78.8V80.7H1026.7 M1029.8,77.6H75.7v810.5h954.1L1029.8,77.6L1029.8,77.6z"/>
	</g>
	<g>
		<g>
			<rect x="75.7" y="652.2" style="fill:#C4ECFE;" width="954.1" height="2.9"/>
		</g>
		<g>
			<rect x="75.7" y="536.1" style="fill:#C4ECFE;" width="954.1" height="2.9"/>
		</g>
		<g>
			<rect x="75.7" y="652.2" style="fill:#C4ECFE;" width="954.1" height="2.9"/>
		</g>
		<g>
			<rect x="75.7" y="768.2" style="fill:#C4ECFE;" width="954.1" height="2.9"/>
		</g>
		<g>
			<rect x="75.7" y="420.1" style="fill:#C4ECFE;" width="954.1" height="2.9"/>
		</g>
		<g>
			<rect x="75.7" y="304" style="fill:#C4ECFE;" width="954.1" height="2.9"/>
		</g>
		<g>
			<rect x="75.7" y="188" style="fill:#C4ECFE;" width="954.1" height="2.9"/>
		</g>
	</g>
</g>
<g>
	<circle style="fill:#BFD9FF;" cx="139.9" cy="453" r="4.1"/>
	<circle style="fill:#BFD9FF;" cx="885.6" cy="610.9" r="4.1"/>
	<circle style="fill:#BFD9FF;" cx="896.4" cy="101.6" r="4.1"/>
	<circle style="fill:#BFD9FF;" cx="954.3" cy="239.3" r="4.1"/>
	<circle style="fill:#BFD9FF;" cx="144" cy="161.3" r="4.1"/>
	<circle style="fill:#BFD9FF;" cx="273.9" cy="587.6" r="3.8"/>
</g>
<linearGradient id="SVGID_1_" gradientUnits="userSpaceOnUse" x1="324.9068" y1="813.7012" x2="324.9068" y2="516.2681" gradientTransform="matrix(1 0 0 -1 6.0432 1392)">
	<stop  offset="0" style="stop-color:#FFD8A1"/>
	<stop  offset="0.9958" style="stop-color:#FFFFFF"/>
</linearGradient>
<path style="fill:url(#SVGID_1_);" d="M586.1,888.1c-145.3,0-140.7-220.4-267-249.6c-50.5-11.7-78-49-101.3-89.5
	c-38.9-67.5-142-40.2-142,37.7v301.4H586.1z"/>
<g>
	<g>
		<path style="fill:#FFFFFF;" d="M331.6,223.6c-14.2,18.5-28.4,37-42.6,55.5c-30.5-24.3-56.6-51.5-79.5-83
			c19.1-13.4,38.2-26.8,57.3-40.2C285.5,181.6,306.8,203.8,331.6,223.6z"/>
		<path style="fill:#BE6361;" d="M289.3,281.2l-1.2-1c-30.7-24.5-56.8-51.7-79.8-83.3l-0.9-1.2l59.8-41.9l0.9,1.2
			c18.6,25.5,39.7,47.6,64.5,67.4l1.1,0.9L289.3,281.2z M211.6,196.5c22.3,30.4,47.5,56.8,77.1,80.5l40.8-53.1
			c-24.2-19.5-44.8-41-63.1-65.9L211.6,196.5z"/>
	</g>
</g>
<g>
	<g>
		<path style="fill:#FFFFFF;" d="M766.8,185.1c10.1,9.1,20.3,18.2,30.4,27.3c-15.5,16.7-32.5,30.6-51.9,42.6
			c-6.9-11.7-13.9-23.4-20.8-35.1C740.3,210,754.2,198.7,766.8,185.1z"/>
		<path style="fill:#BE6361;" d="M744.8,257.1l-0.8-1.3c-3.5-5.9-7-11.8-10.4-17.6c-3.5-5.8-6.9-11.6-10.4-17.5l-0.7-1.3l1.2-0.8
			c16-10,29.8-21.3,42-34.5l1-1.1l1.1,1c5,4.5,10.1,9.1,15.2,13.6c5.1,4.6,10.2,9.1,15.2,13.7l1.1,1l-1,1.1
			c-15.5,16.7-32.6,30.7-52.2,42.9L744.8,257.1z M726.5,220.4c3.2,5.4,6.4,10.8,9.6,16.2c3.2,5.4,6.5,10.9,9.7,16.3
			c18.4-11.5,34.6-24.8,49.2-40.4c-4.7-4.2-9.4-8.4-14.1-12.6c-4.7-4.2-9.4-8.4-14.1-12.7C755,199.8,741.8,210.7,726.5,220.4z"/>
	</g>
</g>
<path style="fill:#BE6361;" d="M208.5,544l-1,1.1c-18.1,19.3-37.7,35.4-59.9,49.2l-1.2,0.8l0.7,1.3c9.8,16.6,19.7,33.3,29.6,50
	l0.8,1.3l1.3-0.8c27.6-17,51.9-36.9,74.2-60.9l1-1.1L208.5,544z"/>
<g style="display:none;">
	<g style="display:inline;">
		<path style="fill:#FFFFFF;" d="M257.7,748.8c-18.4,14.4-36.7,28.8-55.1,43.1c-23.5-31.1-42-64-56.3-100.2
			c21.8-8.2,43.7-16.4,65.5-24.6C223.5,696.6,238.6,723.4,257.7,748.8z"/>
		<path style="fill:#BE6361;" d="M202.3,794l-0.9-1.2c-23.7-31.3-42.1-64.2-56.5-100.6l-0.6-1.4l1.4-0.5
			c10.9-4.1,21.8-8.2,32.7-12.3c11-4.1,21.9-8.2,32.8-12.3l1.4-0.5l0.5,1.4c11.6,29.3,26.6,55.9,45.7,81.4l0.9,1.2l-1.2,0.9
			c-5.6,4.4-11.2,8.8-16.8,13.2c-12.5,9.8-25.5,20-38.3,29.9L202.3,794z M148.3,692.6c14,35.1,31.9,66.9,54.6,97.2
			c12.4-9.6,24.9-19.5,37.1-29c5.2-4.1,10.4-8.2,15.7-12.3C237,723.6,222.4,697.6,211,669c-10.5,3.9-21,7.9-31.5,11.8
			C169.1,684.7,158.7,688.7,148.3,692.6z"/>
	</g>
</g>
<g>
	<g>
		<polygon style="fill:#BE6361;" points="224.7,816.1 258.3,852.4 215,871.6 202.3,853.7 		"/>
		<path style="fill:#BE6361;" d="M214.5,873.5l-14-19.7l23.9-40.2l36.4,39.3L214.5,873.5z M204.1,853.6l11.4,16.1l40.3-17.9
			L225,818.6L204.1,853.6z"/>
	</g>
</g>
<g>
	<g>
		<path style="fill:#2B2B2B;" d="M262,888.2H151v-162h111V888.2z M154,885.2h105v-156H154V885.2z"/>
	</g>
	<g>
		<rect x="152.5" y="872.3" style="fill:#2B2B2B;" width="108" height="14.3"/>
		<path style="fill:#2B2B2B;" d="M262,888.1H151v-17.3h111V888.1z M154,885.1h105v-11.3H154V885.1z"/>
	</g>
	<g>
		<path style="fill:#2B2B2B;" d="M260.4,823.4c-0.4,0-0.8-0.1-1.1-0.4l-94.8-94.8c-0.6-0.6-0.6-1.5,0-2.1s1.5-0.6,2.1,0l94.8,94.8
			c0.6,0.6,0.6,1.5,0,2.1C261.2,823.3,260.8,823.4,260.4,823.4z"/>
	</g>
	<g>
		<path style="fill:#2B2B2B;" d="M260.4,850.3c-0.4,0-0.8-0.1-1.1-0.4L151,741.7c-0.6-0.6-0.6-1.5,0-2.1s1.5-0.6,2.1,0l108.3,108.2
			c0.6,0.6,0.6,1.5,0,2.1C261.2,850.2,260.8,850.3,260.4,850.3z"/>
	</g>
	<g>
		<path style="fill:#2B2B2B;" d="M260.4,877.2c-0.4,0-0.8-0.1-1.1-0.4l-108.1-108c-0.6-0.6-0.6-1.5,0-2.1s1.5-0.6,2.1,0l108.1,108
			c0.6,0.6,0.6,1.5,0,2.1C261.2,877.1,260.8,877.2,260.4,877.2z"/>
	</g>
	<g>
		<path style="fill:#2B2B2B;" d="M237.9,881.7c-0.4,0-0.8-0.1-1.1-0.4l-85.4-85.4c-0.6-0.6-0.6-1.5,0-2.1s1.5-0.6,2.1,0l85.4,85.4
			c0.6,0.6,0.6,1.5,0,2.1C238.7,881.6,238.3,881.7,237.9,881.7z"/>
	</g>
	<g>
		<path style="fill:#2B2B2B;" d="M213.3,884c-0.4,0-0.8-0.1-1.1-0.4L151.6,823c-0.6-0.6-0.6-1.5,0-2.1s1.5-0.6,2.1,0l60.6,60.6
			c0.6,0.6,0.6,1.5,0,2.1C214.1,883.9,213.7,884,213.3,884z"/>
	</g>
	<g>
		<path style="fill:#2B2B2B;" d="M183,880.7c-0.4,0-0.8-0.1-1.1-0.4l-30.5-30.5c-0.6-0.6-0.6-1.5,0-2.1s1.5-0.6,2.1,0l30.5,30.5
			c0.6,0.6,0.6,1.5,0,2.1C183.8,880.6,183.4,880.7,183,880.7z"/>
	</g>
	<g>
		<path style="fill:#2B2B2B;" d="M260.6,796.3c-0.4,0-0.8-0.1-1.1-0.4l-67.7-67.7c-0.6-0.6-0.6-1.5,0-2.1s1.5-0.6,2.1,0l67.7,67.7
			c0.6,0.6,0.6,1.5,0,2.1C261.4,796.2,261,796.3,260.6,796.3z"/>
	</g>
	<g>
		<path style="fill:#2B2B2B;" d="M260.8,769.2c-0.4,0-0.8-0.1-1.1-0.4l-40.6-40.6c-0.6-0.6-0.6-1.5,0-2.1s1.5-0.6,2.1,0l40.6,40.6
			c0.6,0.6,0.6,1.5,0,2.1C261.6,769.1,261.2,769.2,260.8,769.2z"/>
	</g>
	<g>
		<path style="fill:#2B2B2B;" d="M260.9,742.1c-0.4,0-0.8-0.1-1.1-0.4l-13.4-13.5c-0.6-0.6-0.6-1.5,0-2.1s1.5-0.6,2.1,0l13.4,13.5
			c0.6,0.6,0.6,1.5,0,2.1C261.7,742,261.3,742.1,260.9,742.1z"/>
	</g>
	<g>
		<path style="fill:#2B2B2B;" d="M152.7,823.4c-0.4,0-0.8-0.1-1.1-0.4c-0.6-0.6-0.6-1.5,0-2.1l94.8-94.8c0.6-0.6,1.5-0.6,2.1,0
			s0.6,1.5,0,2.1L153.8,823C153.5,823.3,153.1,823.4,152.7,823.4z"/>
	</g>
	<g>
		<path style="fill:#2B2B2B;" d="M152.7,850.3c-0.4,0-0.8-0.1-1.1-0.4c-0.6-0.6-0.6-1.5,0-2.1l108.2-108.2c0.6-0.6,1.5-0.6,2.1,0
			s0.6,1.5,0,2.1L153.8,849.9C153.5,850.2,153.1,850.3,152.7,850.3z"/>
	</g>
	<g>
		<path style="fill:#2B2B2B;" d="M152.7,877.2c-0.4,0-0.8-0.1-1.1-0.4c-0.6-0.6-0.6-1.5,0-2.1l108.1-108c0.6-0.6,1.5-0.6,2.1,0
			s0.6,1.5,0,2.1l-108.1,108C153.5,877.1,153.1,877.2,152.7,877.2z"/>
	</g>
	<g>
		<path style="fill:#2B2B2B;" d="M172.7,884.2c-0.4,0-0.8-0.1-1.1-0.4c-0.6-0.6-0.6-1.5,0-2.1l87.9-87.9c0.6-0.6,1.5-0.6,2.1,0
			s0.6,1.5,0,2.1l-87.9,87.9C173.5,884.1,173.1,884.2,172.7,884.2z"/>
	</g>
	<g>
		<path style="fill:#2B2B2B;" d="M200.3,883.5c-0.4,0-0.8-0.1-1.1-0.4c-0.6-0.6-0.6-1.5,0-2.1l60.1-60.1c0.6-0.6,1.5-0.6,2.1,0
			s0.6,1.5,0,2.1l-60.1,60.1C201.1,883.4,200.7,883.5,200.3,883.5z"/>
	</g>
	<g>
		<path style="fill:#2B2B2B;" d="M226.3,884.4c-0.4,0-0.8-0.1-1.1-0.4c-0.6-0.6-0.6-1.5,0-2.1l34.1-34.1c0.6-0.6,1.5-0.6,2.1,0
			s0.6,1.5,0,2.1l-34,34.1C227.1,884.3,226.7,884.4,226.3,884.4z"/>
	</g>
	<g>
		<path style="fill:#2B2B2B;" d="M152.5,796.3c-0.4,0-0.8-0.1-1.1-0.4c-0.6-0.6-0.6-1.5,0-2.1l67.7-67.7c0.6-0.6,1.5-0.6,2.1,0
			s0.6,1.5,0,2.1l-67.7,67.7C153.3,796.2,152.9,796.3,152.5,796.3z"/>
	</g>
	<g>
		<path style="fill:#2B2B2B;" d="M152.5,769c-0.4,0-0.8-0.1-1.1-0.4c-0.6-0.6-0.6-1.5,0-2.1l40.4-40.4c0.6-0.6,1.5-0.6,2.1,0
			s0.6,1.5,0,2.1l-40.4,40.4C153.3,768.9,152.9,769,152.5,769z"/>
	</g>
	<g>
		<path style="fill:#2B2B2B;" d="M152.1,742.1c-0.4,0-0.8-0.1-1.1-0.4c-0.6-0.6-0.6-1.5,0-2.1l14.5-14.5c0.6-0.6,1.5-0.6,2.1,0
			s0.6,1.5,0,2.1l-14.5,14.5C152.9,742,152.5,742.1,152.1,742.1z"/>
	</g>
</g>
<g>
	<g>
		<g>
			<polygon style="fill:#FFFFFF;" points="712.1,881.4 563.4,881.4 618.9,859 656.6,859 			"/>
			<path style="fill:#F9D5FF;" d="M712.1,886.4H563.4c-2.4,0-4.5-1.7-4.9-4s0.8-4.7,3-5.6l55.5-22.4c0.6-0.2,1.2-0.4,1.9-0.4h37.7
				c0.6,0,1.3,0.1,1.9,0.4l55.5,22.4c2.2,0.9,3.5,3.2,3,5.6S714.5,886.4,712.1,886.4z M589.1,876.4h97.2L655.6,864h-35.8
				L589.1,876.4z"/>
		</g>
		<g>
			<rect x="626.2" y="736" style="fill:#FFFFFF;" width="23" height="121.4"/>
			<path style="fill:#F9D5FF;" d="M649.2,862.4h-23c-2.8,0-5-2.2-5-5V736c0-2.8,2.2-5,5-5h23c2.8,0,5,2.2,5,5v121.4
				C654.2,860.2,652,862.4,649.2,862.4z M631.2,852.4h13V741h-13V852.4z"/>
		</g>
		<rect x="621.2" y="738.2" style="fill:#2B2B2B;" width="33" height="21"/>
		<rect x="617.5" y="607" style="fill:#F9D5FF;" width="40.4" height="146"/>
		<rect x="617.5" y="645.5" style="fill:#2B2B2B;" width="40.4" height="17.5"/>
		<rect x="579.8" y="635" style="fill:#F9D5FF;" width="115.9" height="21"/>
		<g>
			<path style="fill:#FFFFFF;" d="M435.1,584.5l4.8-85.7c1.5-26,23-46.3,49-46.2l72.1,0.3l-7.9,141.7c-0.5,9.6-8.4,17-18,17h-75
				c-2.1,0-4.1-0.3-6-0.8C442.2,608,434.4,596.7,435.1,584.5z"/>
			<path style="fill:#F9D5FF;" d="M535.1,616.6h-75c-2.4,0-4.8-0.3-7.2-0.9c-14.1-3.3-23.6-16.5-22.8-31.4l4.8-85.7
				c1.7-28.7,25.4-51,54-50.9l77.4,0.3l-8.2,147C557.5,607,547.4,616.6,535.1,616.6z M488.7,457.6c-23.2,0-42.5,18.2-43.8,41.5
				l-4.8,85.7c-0.6,10.1,5.8,18.9,15.2,21.1h0.1c1.6,0.4,3.2,0.6,4.7,0.6h75c6.9,0,12.6-5.4,13-12.3l7.6-136.5l-66.8-0.3
				C488.8,457.6,488.8,457.6,488.7,457.6z"/>
		</g>
		<g>
			<path style="fill:#FFFFFF;" d="M758.4,588.4H559.7c-19.3,0-33.9-18.1-32.6-40.4l11.7-199c1.3-22.3,18-40.4,37.4-40.4h198.7
				c19.3,0,33.9,18.1,32.6,40.4l-11.7,199C794.5,570.3,777.7,588.4,758.4,588.4z"/>
			<path style="fill:#F9D5FF;" d="M758.4,593.4H559.7c-9.8,0-19-4-25.9-11.4c-8.2-8.7-12.5-21.2-11.7-34.3l11.7-199
				c1.5-24.9,20.5-45.1,42.4-45.1h198.7c9.8,0,19,4,25.9,11.4c8.2,8.7,12.5,21.2,11.7,34.3l-11.7,199
				C799.3,573.2,780.3,593.4,758.4,593.4z M576.2,313.6c-16.7,0-31.3,16-32.4,35.7l-11.7,199c-0.6,10.4,2.7,20.2,9,26.9
				c5,5.3,11.6,8.2,18.6,8.2h198.7c16.7,0,31.3-16,32.4-35.7l11.7-199c0.6-10.4-2.7-20.2-9-26.9c-5-5.3-11.6-8.2-18.6-8.2
				L576.2,313.6L576.2,313.6z"/>
		</g>
		<path style="fill:#2B2B2B;" d="M582.1,195.9c-5.5,22.5-38.2,61.8-29.4,94.2c5.3,19.5,7.2,45.2-8.8,78.9
			c-10.9,22.9,44.7,19.2,69.1-5.1c24.4-24.3,14.2-103.9,14.2-103.9L582.1,195.9z"/>
		
			<linearGradient id="SVGID_2_" gradientUnits="userSpaceOnUse" x1="537.8856" y1="885" x2="537.8856" y2="1158.0018" gradientTransform="matrix(1 0 0 -1 0 1392)">
			<stop  offset="0" style="stop-color:#EA979A"/>
			<stop  offset="0.4092" style="stop-color:#F2D38B"/>
			<stop  offset="0.4989" style="stop-color:#7E9DAE"/>
			<stop  offset="0.599" style="stop-color:#90979D"/>
			<stop  offset="1" style="stop-color:#7EBDDB"/>
		</linearGradient>
		<path style="fill:url(#SVGID_2_);" d="M443.2,374.6l92.3,17.7l-32.7,5.4l82.8-57.6c17.5-12.1,41.4-7.8,53.6,9.6
			c12.1,17.5,7.8,41.4-9.6,53.6l-82.8,57.6l-2.6,1.8c-9.1,6.3-20.4,7.2-30,3.5l-84.5-33.1L443.2,374.6z"/>
		
			<linearGradient id="SVGID_3_" gradientUnits="userSpaceOnUse" x1="644.5989" y1="885.0023" x2="644.5989" y2="1158.0057" gradientTransform="matrix(1 0 0 -1 0 1392)">
			<stop  offset="0" style="stop-color:#EA979A"/>
			<stop  offset="0.4092" style="stop-color:#F2D38B"/>
			<stop  offset="0.4989" style="stop-color:#7E9DAE"/>
			<stop  offset="0.599" style="stop-color:#90979D"/>
			<stop  offset="1" style="stop-color:#7EBDDB"/>
		</linearGradient>
		<path style="fill:url(#SVGID_3_);" d="M560.9,470.4c-0.3-44.9,30.6-43.1,18.4-73.2c-10.4-25.8-2.1-60.6,22.2-70.3
			c4.1-1.6,8.6-2.5,13.5-2.5c26.6-0.2,28.4-1.3,39.6-1.4c6.1,0,11.8,1,17.1,2.8c25.8,9.1,41.4,38.6,33.2,66.8c0,0-2.6,7.7-2.3,17.8
			c0.3,10.2,25.4,25,25.7,55.8L560.9,470.4z"/>
		<path style="fill:#FFFFFF;" d="M671.9,325.8c-1.5,11.8-9,22.3-20.3,27.2L626,364.3c-11.3,5-24.1-3.3-24.2-15.7l-0.2-21.7
			c4.1-1.6,8.6-2.5,13.5-2.5c26.6-0.2,28.4-1.3,39.6-1.4C660.8,322.9,666.5,324,671.9,325.8z"/>
		<polygon style="fill:#2B2B2B;" points="656.3,399.1 628.8,451 692.5,463.2 703.7,442.2 		"/>
		<g>
			<path style="fill:#2B2B2B;" d="M573.9,430.8c-0.4,0-0.7-0.1-1-0.4c-0.6-0.6-0.6-1.5-0.1-2.1c13.4-14.2,5.6-29.7,5.3-30.4
				c-0.4-0.7-0.1-1.6,0.6-2c0.7-0.4,1.6-0.1,2,0.6c0.1,0.2,9.1,18-5.7,33.8C574.7,430.6,574.3,430.8,573.9,430.8z"/>
		</g>
		
			<linearGradient id="SVGID_4_" gradientUnits="userSpaceOnUse" x1="584.9199" y1="513" x2="584.9199" y2="972.9065" gradientTransform="matrix(1 0 0 -1 0 1392)">
			<stop  offset="0" style="stop-color:#9774AC"/>
			<stop  offset="0.401" style="stop-color:#47A6D3"/>
			<stop  offset="0.5011" style="stop-color:#A7A7AE"/>
			<stop  offset="0.5908" style="stop-color:#E89AC0"/>
			<stop  offset="1" style="stop-color:#BFE7D1"/>
		</linearGradient>
		<path style="fill:url(#SVGID_4_);" d="M682.5,598.7L546,598.1l50.8-54l-4.6,314.2l-74.7-1.1c-1.2-6.6-2.1-13.1-3.2-19.7l-2.8-19.7
			c-1.9-13.1-3.5-26.2-5.1-39.4c-3.1-26.2-5.8-52.5-8.2-78.7c-1.1-13.1-2.3-26.2-3.3-39.3l-1.5-19.7L492,621
			c-1.8-26.2-3.3-52.4-4.6-78.6c-1.2-24.6,15.7-46,39.1-51l11.1-2.4c10.3-2.2,20.6-4.1,30.9-5.8c10.3-1.6,20.7-3,31-4
			c10.4-1,20.8-1.7,31.2-1.8h7.8c2.6,0.1,5.2,0.1,7.8,0.2s5.2,0.2,7.9,0.4l3.9,0.4l2,0.2l2,0.3L682.5,598.7z"/>
		<polygon style="fill:#2B2B2B;" points="607.7,554.2 649.2,595.8 678.4,595.8 675.5,546.9 		"/>
		
			<linearGradient id="SVGID_5_" gradientUnits="userSpaceOnUse" x1="560.3" y1="513" x2="560.3" y2="972.9065" gradientTransform="matrix(1 0 0 -1 0 1392)">
			<stop  offset="0" style="stop-color:#9774AC"/>
			<stop  offset="0.401" style="stop-color:#47A6D3"/>
			<stop  offset="0.5011" style="stop-color:#A7A7AE"/>
			<stop  offset="0.5908" style="stop-color:#E89AC0"/>
			<stop  offset="1" style="stop-color:#BFE7D1"/>
		</linearGradient>
		<path style="fill:url(#SVGID_5_);" d="M739.3,595.7L529,528.4l61.4-20.2L404.2,743.7l-56.4-53.5c10.2-22.5,67.6-99.4,79.5-120.6
			c6-10.6,11.9-21.2,18.1-31.7l9.1-15.8l9.3-15.7c12.4-20.9,25-41.6,37.8-62.2c11.4-18.3,32.9-26.5,52.8-21.9l7.9,1.9
			c18,4.2,35.8,8.8,53.6,13.5c17.8,4.9,35.5,9.8,53,15.3c17.6,5.4,35.1,11.1,52.4,17.4l13,4.7c4.3,1.7,8.6,3.2,12.9,5l12.8,5.2
			l6.4,2.7l3.2,1.4l3.2,1.4L739.3,595.7z"/>
		<polygon style="fill:#2B2B2B;" points="464.2,667.8 487.4,559.1 503,618.8 		"/>
		<g>
			<path style="fill:#2B2B2B;" d="M539.9,514.1c-0.4,0-0.8-0.2-1.1-0.5l-11.1-12.1c-0.6-0.6-0.5-1.6,0.1-2.1
				c0.6-0.6,1.6-0.5,2.1,0.1l11.1,12.1c0.6,0.6,0.5,1.6-0.1,2.1C540.6,514,540.3,514.1,539.9,514.1z"/>
		</g>
		<g>
			<path id="XMLID_28_" style="fill:#FDC068;" d="M600.6,299.7l31-1.9c16.1-1,28.3-14.8,27.3-30.8l-2.8-46.8
				c-1.6-25.7-23.6-45.3-49.3-43.7l0,0c-25.7,1.6-45.3,23.6-43.7,49.3l2.6,42.9C566.8,286.9,582.4,300.8,600.6,299.7z"/>
			<path style="fill:#FDC068;" d="M628.3,351.3l39-17.1l-9.5-88.2l-49.5,3l0.8,89.8C609,348.6,619.2,355.2,628.3,351.3z"/>
			<g>
				<circle style="fill:#2B2B2B;" cx="569.1" cy="239.3" r="5.3"/>
				<g>
					<path style="fill:#2B2B2B;" d="M582.8,254.4c-0.2,0-0.4,0-0.6-0.1l-4.5-2.4c-1.1-0.7-1.9-1.9-2.1-3.2c-0.2-1.3,0.1-2.7,0.9-3.8
						l6.1-8.3c0.4-0.6,1.2-0.7,1.8-0.3s0.7,1.2,0.3,1.8l-6.1,8.3c-0.4,0.5-0.5,1.1-0.4,1.8c0.1,0.6,0.4,1.1,0.9,1.4l4.3,2.3
						c0.6,0.3,0.9,1.1,0.6,1.8C583.7,254.1,583.3,254.4,582.8,254.4z"/>
				</g>
				<g>
					<path style="fill:#2B2B2B;" d="M583.3,273c-0.3,0-0.5,0-0.8,0c-4.2-0.4-6.6-4-6.7-4.1c-0.4-0.6-0.2-1.4,0.4-1.8
						c0.6-0.4,1.4-0.2,1.8,0.4c0,0,1.9,2.7,4.8,3c2.1,0.2,4.3-0.9,6.6-3.2c0.5-0.5,1.3-0.5,1.8,0s0.5,1.3,0,1.8
						C588.6,271.7,585.9,273,583.3,273z"/>
				</g>
				<circle style="fill:#2B2B2B;" cx="599.3" cy="237.7" r="5.3"/>
			</g>
		</g>
		
			<linearGradient id="SVGID_6_" gradientUnits="userSpaceOnUse" x1="739.2936" y1="885" x2="739.2936" y2="1158.0018" gradientTransform="matrix(1 0 0 -1 0 1392)">
			<stop  offset="0" style="stop-color:#EA979A"/>
			<stop  offset="0.4092" style="stop-color:#F2D38B"/>
			<stop  offset="0.4989" style="stop-color:#7E9DAE"/>
			<stop  offset="0.599" style="stop-color:#90979D"/>
			<stop  offset="1" style="stop-color:#7EBDDB"/>
		</linearGradient>
		<path style="fill:url(#SVGID_6_);" d="M687.8,387.2l91.3-9.5l-21.2,70.6l-82.3-54.2c-17.8-11.7-22.7-35.6-11-53.3
			c11.7-17.8,35.6-22.7,53.3-11l82.3,54.2l3.3,2.2c17.3,11.4,22,34.6,10.7,51.9c-7.9,12-21.7,18-35.1,16.6l-83.5-9.1L687.8,387.2z"
			/>
		<g>
			<path style="fill:#2B2B2B;" d="M703.7,402.9c-0.5,0-1-0.2-1.3-0.7l-14.2-21.9c-0.5-0.7-0.3-1.6,0.4-2.1c0.7-0.4,1.6-0.3,2.1,0.4
				l14.2,21.9c0.5,0.7,0.3,1.6-0.4,2.1C704.3,402.8,704,402.9,703.7,402.9z"/>
		</g>
		<path style="fill:#FFFFFF;" d="M728.1,416.3c0,13.1-6.9,24.5-17.2,30.9l-15.3-1.7c0,0-12.1-15.5-12.1-27.5
			c0-14.8,4.3-30.8,4.3-30.8l22.2-2.3C720.8,391.2,728.1,402.9,728.1,416.3z"/>
		<g>
			<path style="fill:#2B2B2B;" d="M496.7,886.4h81.5c7.2,0,13.1-5.8,13.2-13l0.3-17.4l-75.5,0.7L495,873.2
				C487.3,875.1,488.7,886.4,496.7,886.4z"/>
		</g>
		<g>
			<g>
				<path style="fill:#2B2B2B;" d="M292.4,679.4l80.8,76.3c5.1,5.1,13.4,5.1,18.5,0.1l12.5-12.1l-56.4-53.5l-47.3-21.4
					C293.7,664.8,286.8,673.8,292.4,679.4z"/>
			</g>
		</g>
		<path style="fill:#2B2B2B;" d="M595.2,177.8c-2.1,13.7-22.4,38.7-32.1,41.4C563.2,219.2,564.9,184.3,595.2,177.8z"/>
		<g>
			<path style="fill:#FFFFFF;" d="M595.5,600.8h142.9c9.9,0,17.9,8,17.9,17.9l0,0c0,9.9-8,17.9-17.9,17.9H595.5V600.8z"/>
			<path style="fill:#F9D5FF;" d="M738.4,595.8H595.5v10h142.9c7.1,0,12.9,5.8,12.9,12.9c0,7.1-5.8,12.9-12.9,12.9H595.5v10h142.9
				c12.6,0,22.9-10.3,22.9-22.9C761.4,606.1,751.1,595.8,738.4,595.8z"/>
		</g>
		<g>
			<path style="fill:#FFFFFF;" d="M675.5,584.5l4.8-85.7c1.5-26,23-46.3,49-46.2l72.1,0.3l-6.1,110.3c-1.5,27.2-24,48.4-51.2,48.4
				h-43.6c-2.1,0-4.1-0.3-6-0.8C682.7,608,674.8,596.7,675.5,584.5z"/>
			<path style="fill:#F9D5FF;" d="M744.1,616.6h-43.6c-2.4,0-4.8-0.3-7.2-0.9c-14.1-3.4-23.6-16.6-22.8-31.4l4.8-85.7
				c1.6-28.6,25.3-50.9,53.8-50.9c0.1,0,0.1,0,0.2,0l77.4,0.3l-6.4,115.6C798.6,593.3,774,616.6,744.1,616.6z M729.1,457.6
				c-23.2,0-42.5,18.2-43.8,41.5l-4.8,85.7c-0.6,9.9,6,19,15.2,21.1h0.1c1.6,0.4,3.2,0.6,4.7,0.6h43.6c24.6,0,44.9-19.2,46.2-43.7
				l5.8-105l-66.8-0.3C729.2,457.6,729.2,457.6,729.1,457.6z"/>
		</g>
		
			<linearGradient id="SVGID_7_" gradientUnits="userSpaceOnUse" x1="540.9734" y1="513" x2="540.9734" y2="972.9065" gradientTransform="matrix(1 0 0 -1 0 1392)">
			<stop  offset="0" style="stop-color:#9774AC"/>
			<stop  offset="0.401" style="stop-color:#47A6D3"/>
			<stop  offset="0.5011" style="stop-color:#A7A7AE"/>
			<stop  offset="0.5908" style="stop-color:#E89AC0"/>
			<stop  offset="1" style="stop-color:#BFE7D1"/>
		</linearGradient>
		<path style="fill:url(#SVGID_7_);" d="M495.4,667.8c0-7.2-5.4-54.5-8.6-96.2c-2.1-28.1,17.6-53.2,45.4-57.8l0,0
			c33.1-5.4,63.2,20.2,63.1,53.7l-0.1,74.9L495.4,667.8z"/>
		
			<linearGradient id="SVGID_8_" gradientUnits="userSpaceOnUse" x1="597.05" y1="513" x2="597.05" y2="972.9065" gradientTransform="matrix(1 0 0 -1 0 1392)">
			<stop  offset="0" style="stop-color:#9774AC"/>
			<stop  offset="0.401" style="stop-color:#47A6D3"/>
			<stop  offset="0.5011" style="stop-color:#A7A7AE"/>
			<stop  offset="0.5908" style="stop-color:#E89AC0"/>
			<stop  offset="1" style="stop-color:#BFE7D1"/>
		</linearGradient>
		<polygon style="fill:url(#SVGID_8_);" points="570.7,522.9 623.4,570 589.9,570.8 		"/>
		<g>
			<path style="fill:#2B2B2B;" d="M595.5,597.3c-0.8,0-1.5-0.7-1.5-1.5v-19.1c0-0.8,0.7-1.5,1.5-1.5s1.5,0.7,1.5,1.5v19.1
				C597,596.6,596.3,597.3,595.5,597.3z"/>
		</g>
		<path style="fill:#2B2B2B;" d="M585,181.8c-16.3,13.1,14.2,36.2,33.8,50.6c24.3,17.9-5.7,91.7,32.3,129.5s55.8-14,95-12.9
			c9.4,0.2-19.1-10.8-29.5-58.5c-7.6-34.8-43.2-38.1-46.7-53.1c-1.1-4.9-4.8-32.4-22.8-49.9C630.3,171.2,606.9,164.2,585,181.8z"/>
		<path style="fill:#FDC068;" d="M429.7,433.2l-25.3-9.9c-14.3-5.6-21.4-21.7-15.8-36.1c5-12.7,18.2-19.7,31.2-17.2l23.5,4.5
			L429.7,433.2z"/>
		<path style="fill:#FDC068;" d="M690.3,445.4l-14.3-1.5c-15.2-1.6-26.8-15-25.4-30.3c1.2-13.5,11.9-23.9,24.9-25.2l12.3-1.3
			c5.1-0.5,10.2,0.9,14.3,3.9l3.2,2.3c10.3,7.6,14,21.3,9,33l-2.9,6.7C707.8,441.4,699.3,446.4,690.3,445.4z"/>
		<g>
			<path style="fill:#2B2B2B;" d="M501.2,400.6c-0.5,0-0.9-0.2-1.2-0.6c-0.5-0.7-0.3-1.6,0.3-2.1l14-10c0.7-0.5,1.6-0.3,2.1,0.3
				c0.5,0.7,0.3,1.6-0.3,2.1l-14,10C501.8,400.5,501.5,400.6,501.2,400.6z"/>
		</g>
		<g>
			<path style="fill:#2B2B2B;" d="M712.9,386.1c-0.8,0-1.4-0.6-1.5-1.3c-0.1-0.8,0.5-1.6,1.3-1.6l48.5-5.1c0.8-0.1,1.6,0.5,1.6,1.3
				s-0.5,1.6-1.3,1.6l-48.5,5.1C713,386.1,713,386.1,712.9,386.1z"/>
		</g>
		<polygon style="fill:#FFFFFF;" points="443.2,374.6 429.7,433.2 446,439.6 459.2,377.7 		"/>
		<g>
			<path style="fill:#2B2B2B;" d="M485.7,569.2c-0.8,0-1.5-0.7-1.5-1.5c-0.1-27.1,20.5-50.8,47.9-55.3h0.2c6.9-1,13.9,0.5,19.8,4.3
				l56.4,36.2c0.7,0.4,0.9,1.4,0.5,2.1c-0.4,0.7-1.4,0.9-2.1,0.5l-56.4-36.2c-5.3-3.4-11.7-4.8-17.9-3.9h-0.2
				c-25.9,4.3-45.3,26.7-45.2,52.3C487.2,568.5,486.5,569.2,485.7,569.2L485.7,569.2z"/>
		</g>
		<g>
			<path style="fill:#2B2B2B;" d="M606.2,302.6c-0.7,0-1.4-0.5-1.5-1.2c-0.1-0.8,0.4-1.6,1.2-1.7l14.7-2.5c0.8-0.1,1.6,0.4,1.7,1.2
				c0.1,0.8-0.4,1.6-1.2,1.7l-14.7,2.5C606.4,302.6,606.3,302.6,606.2,302.6z"/>
		</g>
	</g>
	<g>
		<g>
			<rect x="302.5" y="470" style="fill:#F9D5FF;" width="20" height="416.4"/>
		</g>
		<g>
			<rect x="196.5" y="470" style="fill:#F9D5FF;" width="20" height="416.4"/>
		</g>
		<g>
			<rect x="196.5" y="466.1" style="fill:#2B2B2B;" width="20" height="28.7"/>
		</g>
		<g>
			<rect x="302.5" y="466.1" style="fill:#2B2B2B;" width="20" height="28.7"/>
		</g>
	</g>
	<g>
		<g>
			<g>
				<rect x="754.4" y="427.7" style="fill:#FFFFFF;" width="115.4" height="31"/>
				<path style="fill:#BE6361;" d="M871.3,460.2H752.9v-34h118.4L871.3,460.2L871.3,460.2z M755.9,457.2h112.4v-28H755.9V457.2z"/>
			</g>
			<rect x="868.3" y="426.2" style="fill:#BE6361;" width="71.6" height="34"/>
		</g>
		<g>
			<g>
				<rect x="770.2" y="396.7" style="fill:#FFFFFF;" width="115.4" height="31"/>
				<path style="fill:#BE6361;" d="M887.1,429.2H768.7v-34h118.4L887.1,429.2L887.1,429.2z M771.7,426.2h112.4v-28H771.7V426.2z"/>
			</g>
			<rect x="884.1" y="395.2" style="fill:#BE6361;" width="71.6" height="34"/>
		</g>
		<g>
			<g>
				<path style="fill:#FFFFFF;" d="M771.9,359.8h113.7V398H771.9c-0.9,0-1.7-0.8-1.7-1.7v-34.8C770.2,360.6,771,359.8,771.9,359.8z"
					/>
				<path style="fill:#BE6361;" d="M887.1,399.5H771.9c-1.7,0-3.2-1.5-3.2-3.2v-34.8c0-1.7,1.5-3.2,3.2-3.2h115.2L887.1,399.5
					L887.1,399.5z M771.9,361.3c-0.1,0-0.2,0.1-0.2,0.2v34.8c0,0.1,0.1,0.2,0.2,0.2h112.2v-35.2H771.9z"/>
			</g>
			<rect x="884.1" y="358.3" style="fill:#BE6361;" width="71.6" height="41.2"/>
		</g>
		<g>
			<g>
				<rect x="752.1" y="329.4" style="fill:#FFFFFF;" width="115.4" height="31"/>
				<path style="fill:#BE6361;" d="M869,361.9H750.6v-34H869V361.9z M753.6,358.9H866v-28H753.6V358.9z"/>
			</g>
			<rect x="865.9" y="327.9" style="fill:#BE6361;" width="71.6" height="34"/>
		</g>
		<g>
			<g>
				<rect x="759.3" y="298.2" style="fill:#FFFFFF;" width="115.4" height="31"/>
				<path style="fill:#BE6361;" d="M876.2,330.7H757.8v-34h118.4V330.7z M760.8,327.7h112.4v-28H760.8V327.7z"/>
			</g>
			<rect x="873.1" y="296.7" style="fill:#BE6361;" width="71.6" height="34"/>
		</g>
	</g>
	<g>
		<g>
			<g>
				<g>
					<rect x="177.6" y="431.7" style="fill:#FFFFFF;" width="97.2" height="26.1"/>
					<path style="fill:#BE6361;" d="M276.3,459.3H176.1v-29.1h100.2V459.3z M179.1,456.3h94.2v-23.1h-94.2L179.1,456.3L179.1,456.3z
						"/>
				</g>
				<rect x="273.2" y="430.2" style="fill:#BE6361;" width="60.8" height="29.1"/>
			</g>
			<g>
				<g>
					<rect x="190.9" y="405.6" style="fill:#FFFFFF;" width="97.2" height="26.1"/>
					<path style="fill:#BE6361;" d="M289.6,433.2H189.4v-29.1h100.2L289.6,433.2L289.6,433.2z M192.4,430.2h94.2v-23.1h-94.2
						L192.4,430.2L192.4,430.2z"/>
				</g>
				<rect x="286.6" y="404.1" style="fill:#BE6361;" width="60.8" height="29.1"/>
			</g>
			<g>
				<g>
					<path style="fill:#FFFFFF;" d="M192.4,374.5h95.7v32.1h-95.7c-0.8,0-1.4-0.6-1.4-1.4V376C190.9,375.2,191.6,374.5,192.4,374.5z
						"/>
					<path style="fill:#BE6361;" d="M289.6,408.1h-97.2c-1.6,0-2.9-1.3-2.9-2.9v-29.1c-0.1-0.7,0.2-1.5,0.7-2.1c0.6-0.6,1.4-1,2.2-1
						h97.2V408.1z M192.5,405.1h94.1V376h-94.1V405.1z"/>
				</g>
				<rect x="286.6" y="373" style="fill:#BE6361;" width="60.8" height="35.1"/>
			</g>
			<g>
				<g>
					<rect x="175.6" y="348.9" style="fill:#FFFFFF;" width="97.2" height="26.1"/>
					<path style="fill:#BE6361;" d="M274.3,376.5H174.1v-29.1h100.2V376.5z M177.1,373.5h94.2v-23.1h-94.2L177.1,373.5L177.1,373.5z
						"/>
				</g>
				<rect x="271.3" y="347.4" style="fill:#BE6361;" width="60.8" height="29.1"/>
			</g>
			<g>
				<g>
					<rect x="181.7" y="322.7" style="fill:#FFFFFF;" width="97.2" height="26.1"/>
					<path style="fill:#BE6361;" d="M280.4,350.3H180.2v-29.1h100.2V350.3z M183.2,347.3h94.2v-23.1h-94.2V347.3z"/>
				</g>
				<rect x="277.4" y="321.2" style="fill:#BE6361;" width="60.8" height="29.1"/>
			</g>
		</g>
		<rect x="196.5" y="456.4" style="fill:#2B2B2B;" width="751.1" height="13.6"/>
		<g>
			<g>
				<rect x="927" y="470" style="fill:#F9D5FF;" width="20" height="416.4"/>
			</g>
			<g>
				<g>
					<rect x="712.8" y="718.5" style="fill:#FFFFFF;" width="140" height="167.3"/>
					<path style="fill:#BE6361;" d="M852.8,887.3h-140c-0.8,0-1.5-0.7-1.5-1.5V718.5c0-0.8,0.7-1.5,1.5-1.5h140
						c0.8,0,1.5,0.7,1.5,1.5v167.3C854.3,886.6,853.6,887.3,852.8,887.3z M714.3,884.3h137V720h-137V884.3z"/>
				</g>
				<polygon style="fill:#BE6361;" points="854,717.2 801,717.2 801,869.3 854.3,869.3 				"/>
				<g>
					<path style="fill:#BE6361;" d="M802.6,887.2c-0.8,0-1.5-0.7-1.5-1.5V718.5c0-0.8,0.7-1.5,1.5-1.5s1.5,0.7,1.5,1.5v167.2
						C804.1,886.5,803.4,887.2,802.6,887.2z"/>
				</g>
				<g>
					<path style="fill:#BE6361;" d="M747.7,743h-34.9c-0.8,0-1.5-0.7-1.5-1.5s0.7-1.5,1.5-1.5h34.9c0.8,0,1.5,0.7,1.5,1.5
						S748.5,743,747.7,743z"/>
				</g>
				<g>
					<path style="fill:#BE6361;" d="M800.3,753.5h-34.9c-0.8,0-1.5-0.7-1.5-1.5s0.7-1.5,1.5-1.5h34.9c0.8,0,1.5,0.7,1.5,1.5
						S801.1,753.5,800.3,753.5z"/>
				</g>
				<g>
					<path style="fill:#BE6361;" d="M730.3,758.6h-17.5c-0.8,0-1.5-0.7-1.5-1.5s0.7-1.5,1.5-1.5h17.5c0.8,0,1.5,0.7,1.5,1.5
						S731.1,758.6,730.3,758.6z"/>
				</g>
				<g>
					<path style="fill:#BE6361;" d="M765.4,780.4h-27.7c-0.8,0-1.5-0.7-1.5-1.5s0.7-1.5,1.5-1.5h27.7c0.8,0,1.5,0.7,1.5,1.5
						S766.2,780.4,765.4,780.4z"/>
				</g>
				<g>
					<path style="fill:#BE6361;" d="M742,791.5h-17.4c-0.8,0-1.5-0.7-1.5-1.5s0.7-1.5,1.5-1.5H742c0.8,0,1.5,0.7,1.5,1.5
						S742.8,791.5,742,791.5z"/>
				</g>
				<g>
					<path style="fill:#BE6361;" d="M779.3,852.4h-27.7c-0.8,0-1.5-0.7-1.5-1.5s0.7-1.5,1.5-1.5h27.7c0.8,0,1.5,0.7,1.5,1.5
						S780.1,852.4,779.3,852.4z"/>
				</g>
				<g>
					<path style="fill:#BE6361;" d="M742,866.1h-17.4c-0.8,0-1.5-0.7-1.5-1.5s0.7-1.5,1.5-1.5H742c0.8,0,1.5,0.7,1.5,1.5
						S742.8,866.1,742,866.1z"/>
				</g>
				<g>
					<path style="fill:#BE6361;" d="M800.3,806.9h-26.9c-0.8,0-1.5-0.7-1.5-1.5s0.7-1.5,1.5-1.5h26.9c0.8,0,1.5,0.7,1.5,1.5
						S801.1,806.9,800.3,806.9z"/>
				</g>
				<g>
					<path style="fill:#BE6361;" d="M800.3,869.3h-13.4c-0.8,0-1.5-0.7-1.5-1.5s0.7-1.5,1.5-1.5h13.4c0.8,0,1.5,0.7,1.5,1.5
						S801.1,869.3,800.3,869.3z"/>
				</g>
				<g>
					<path style="fill:#BE6361;" d="M755.2,827.6h-34.9c-0.8,0-1.5-0.7-1.5-1.5s0.7-1.5,1.5-1.5h34.9c0.8,0,1.5,0.7,1.5,1.5
						S756,827.6,755.2,827.6z"/>
				</g>
				<g>
					<path style="fill:#FFFFFF;" d="M755.2,683.7c0,0-19,13.1-17.4,26.9l71.3,7.9L755.2,683.7z"/>
					<path style="fill:#BE6361;" d="M809.1,720c-0.1,0-0.1,0-0.2,0l-71.3-7.9c-0.7-0.1-1.2-0.6-1.3-1.3c-1.7-14.5,17.2-27.8,18-28.3
						c0.5-0.3,1.2-0.4,1.7,0l53.9,34.8c0.6,0.4,0.8,1.1,0.6,1.8C810.3,719.6,809.7,720,809.1,720z M739.2,709.2l63.7,7.1l-47.7-30.8
						C751.9,688.1,738.9,698.5,739.2,709.2z"/>
				</g>
				<path style="fill:#BE6361;" d="M730.8,689.5l-0.9-0.3l-0.7,0.7c-5.8,6.1-7.7,14.9-4.8,21.7c2.3,5.3,7.2,8.4,13.3,8.4h80
					L730.8,689.5z"/>
			</g>
			<g>
				<g>
					<g>
						<rect x="800" y="859.2" style="fill:#FFFFFF;" width="100.2" height="26.9"/>
						<path style="fill:#BE6361;" d="M901.7,887.6H798.5v-29.9h103.2V887.6z M801.5,884.6h97.2v-23.9h-97.2V884.6z"/>
					</g>
					<rect x="898.7" y="857.7" style="fill:#BE6361;" width="62.6" height="29.9"/>
				</g>
				<g>
					<g>
						<rect x="813.8" y="832.3" style="fill:#FFFFFF;" width="100.2" height="26.9"/>
						<path style="fill:#BE6361;" d="M915.5,860.7H812.3v-29.9h103.2V860.7z M815.3,857.7h97.2v-23.9h-97.2V857.7z"/>
					</g>
					<rect x="912.5" y="830.8" style="fill:#BE6361;" width="62.6" height="29.9"/>
				</g>
				<g>
					<g>
						<path style="fill:#FFFFFF;" d="M815.3,800.2H914v33.1h-98.7c-0.8,0-1.5-0.7-1.5-1.5v-30.2
							C813.8,800.9,814.4,800.2,815.3,800.2z"/>
						<path style="fill:#BE6361;" d="M915.5,834.8H815.3c-1.6,0-3-1.4-3-3v-30.2c0-1.6,1.3-2.9,3-2.9h100.2V834.8z M815.3,801.7
							v30.1h97.2v-30.1H815.3z"/>
					</g>
					<rect x="912.5" y="798.7" style="fill:#BE6361;" width="62.6" height="36.1"/>
				</g>
				<g>
					<g>
						<rect x="798" y="773.8" style="fill:#FFFFFF;" width="100.2" height="26.9"/>
						<path style="fill:#BE6361;" d="M899.7,802.2H796.5v-29.9h103.2V802.2z M799.5,799.2h97.2v-23.9h-97.2V799.2z"/>
					</g>
					<rect x="896.7" y="772.3" style="fill:#BE6361;" width="62.6" height="29.9"/>
				</g>
				<g>
					<g>
						<rect x="804.3" y="746.7" style="fill:#FFFFFF;" width="100.2" height="26.9"/>
						<path style="fill:#BE6361;" d="M906,775.1H802.8v-29.9H906V775.1z M805.8,772.1H903v-23.9h-97.2V772.1z"/>
					</g>
					<rect x="902.9" y="745.2" style="fill:#BE6361;" width="62.6" height="29.9"/>
				</g>
			</g>
			<g>
				<rect x="821" y="470" style="fill:#F9D5FF;" width="20" height="416.4"/>
			</g>
			<g>
				<rect x="821" y="466.1" style="fill:#2B2B2B;" width="20" height="28.7"/>
			</g>
			<g>
				<rect x="927" y="466.1" style="fill:#2B2B2B;" width="20" height="28.7"/>
			</g>
		</g>
	</g>
</g>
<g>
	<g>
		<g>
			<path style="fill:#FFFFFF;" d="M314.4,783.5h113.7v38.2H314.4c-0.9,0-1.7-0.8-1.7-1.7v-34.8C312.7,784.2,313.4,783.5,314.4,783.5
				z"/>
			<path style="fill:#BE6361;" d="M429.6,823.2H314.4c-1.7,0-3.2-1.5-3.2-3.2v-34.8c0-1.8,1.4-3.2,3.2-3.2h115.2L429.6,823.2
				L429.6,823.2z M314.4,785c-0.2,0-0.2,0-0.2,0.2V820c0,0.1,0.1,0.2,0.2,0.2h112.2V785H314.4z"/>
		</g>
		<rect x="426.6" y="782" style="fill:#BE6361;" width="71.6" height="41.2"/>
	</g>
	<g>
		<g>
			<rect x="294.5" y="753" style="fill:#FFFFFF;" width="115.4" height="31"/>
			<path style="fill:#BE6361;" d="M411.4,785.5H293v-34h118.4V785.5z M296,782.5h112.4v-28H296V782.5z"/>
		</g>
		<rect x="408.4" y="751.5" style="fill:#BE6361;" width="71.6" height="34"/>
	</g>
	<g>
		<g>
			<rect x="296.8" y="838.7" style="fill:#FFFFFF;" width="115.4" height="43.7"/>
			<path style="fill:#BE6361;" d="M413.7,883.9H295.3v-46.7h118.4L413.7,883.9L413.7,883.9z M298.3,880.9h112.4v-40.7H298.3V880.9z"
				/>
		</g>
		<rect x="410.7" y="837.2" style="fill:#BE6361;" width="71.6" height="46.7"/>
	</g>
	<g>
		<g>
			<rect x="294.6" y="820.4" style="fill:#FFFFFF;" width="115.4" height="18.3"/>
			<path style="fill:#BE6361;" d="M411.5,840.2H293.1v-21.3h118.4V840.2z M296.1,837.2h112.4v-15.3H296.1V837.2z"/>
		</g>
		<rect x="390" y="818.9" style="fill:#BE6361;" width="90.1" height="21.3"/>
	</g>
</g>
<rect x="196.7" y="883.9" style="fill:#2B2B2B;" width="607.5" height="4.1"/>
<g>
	<path style="fill:#2B2B2B;" d="M561.2,228.6H325.1c-7.8,0-14.1,6.3-14.1,14.1v153.1c0,7.8,6.3,14.1,14.1,14.1h236.2
		c7.7,0,14-6.3,14-14.1V242.7C575.3,234.9,569,228.6,561.2,228.6z"/>
	<g>
		<path style="fill:#FFFFFF;" d="M547.2,408.4h-235c-7.3,0-13.2-5.9-13.2-13.2v-152c0-7.3,5.9-13.2,13.2-13.2h235
			c7.3,0,13.2,5.9,13.2,13.2v152C560.3,402.5,554.4,408.4,547.2,408.4z"/>
		<path style="fill:#2B2B2B;" d="M547.2,409.9h-235c-8.1,0-14.7-6.6-14.7-14.7v-152c0-8.1,6.6-14.7,14.7-14.7h235
			c8.1,0,14.7,6.6,14.7,14.7v152C561.8,403.3,555.2,409.9,547.2,409.9z M312.2,231.5c-6.5,0-11.7,5.2-11.7,11.7v152
			c0,6.5,5.2,11.7,11.7,11.7h235c6.4,0,11.6-5.3,11.7-11.7v-152c0-6.5-5.2-11.7-11.7-11.7L312.2,231.5L312.2,231.5z"/>
	</g>
	<path style="fill:#2B2B2B;" d="M455.8,317.8c-0.7-0.1-1.4,0.2-1.7,0.9l-36.6,89.1c-0.2,0.5-0.1,1,0.1,1.4c0.3,0.4,0.7,0.7,1.2,0.7
		h36.6c0.8,0,1.5-0.7,1.5-1.5v-89.1C457,318.6,456.5,318,455.8,317.8z"/>
	<g>
		<path style="fill:#FFFFFF;" d="M487.5,456.4H383.9c-7,0-12.2-6.6-10.5-13.4l30.4-123.7h51.7L427,435.1
			c-1.7,6.8,3.5,13.5,10.6,13.4l51.3-0.1c0.7,0,0,5.9,0,6.6l0,0C488.9,455.8,488.3,456.4,487.5,456.4z"/>
		<path style="fill:#2B2B2B;" d="M487.5,457.9H383.9c-3.8,0-7.4-1.7-9.7-4.7c-2.3-3-3.2-6.8-2.2-10.5l30.7-124.8h54.8l-29,117.7
			c-0.7,2.8-0.1,5.7,1.7,8c1.8,2.3,4.5,3.6,7.4,3.5l51.3-0.1c0.5,0,0.9,0.2,1.2,0.5c0.7,0.7,0.8,2,0.4,6.6c0,0.5-0.1,0.9-0.1,1
			C490.4,456.6,489.1,457.9,487.5,457.9z M405,320.8l-30.1,122.6c-0.7,2.8-0.1,5.7,1.7,7.9c1.8,2.3,4.5,3.6,7.3,3.6h103.5
			c0-0.2,0-0.6,0.1-1.2c0.1-0.8,0.2-2.7,0.2-3.8l-50.1,0.1c-3.8,0.1-7.4-1.6-9.8-4.6s-3.2-6.9-2.3-10.6l28-113.9H405V320.8z"/>
	</g>
</g>
<g>
	
		<rect x="430.024" y="173.849" transform="matrix(0.6628 -0.7488 0.7488 0.6628 4.7567 389.6612)" style="fill:#F9D5FF;" width="10" height="31.4"/>
</g>
<g>
	
		<rect x="535.43" y="116.13" transform="matrix(0.9192 -0.3939 0.3939 0.9192 -7.9028 223.4547)" style="fill:#F9D5FF;" width="10" height="29.701"/>
</g>
<g>
	
		<rect x="701.997" y="144.796" transform="matrix(0.7428 -0.6695 0.6695 0.7428 84.2977 519.0287)" style="fill:#F9D5FF;" width="31.4" height="10"/>
</g>
<linearGradient id="SVGID_9_" gradientUnits="userSpaceOnUse" x1="-11099.6807" y1="615.1646" x2="-11099.6807" y2="508.3679" gradientTransform="matrix(-1 0 0 -1 -10191.2305 1392)">
	<stop  offset="0" style="stop-color:#FFD8A1"/>
	<stop  offset="0.9958" style="stop-color:#FFFFFF"/>
</linearGradient>
<path style="fill:url(#SVGID_9_);" d="M787.7,888.1c53.4,0,77.8-78.3,140.7-70.7c18.9,2.3,40-36.4,48.6-51
	c14.3-24.2,52.2-14.4,52.2,13.5v108.2H787.7z"/>
</svg>
