<?xml version="1.0" encoding="utf-8"?>
<!-- Generator: Adobe Illustrator 22.0.1, SVG Export Plug-In . SVG Version: 6.00 Build 0)  -->
<svg version="1.1" id="Layer_1" xmlns="http://www.w3.org/2000/svg" xmlns:xlink="http://www.w3.org/1999/xlink" x="0px" y="0px" viewBox="0 0 800 781.5" style="enable-background:new 0 0 800 781.5;" xml:space="preserve">

<title>source_final_all</title>
<g>
	<rect width="800" height="781.5" style="fill:#FFFFFF;"/>
	<g style="opacity:0.3;">
		<path d="M743,58.4v582H57v-582H743 M745.2,56.2H54.8v586.5h690.4L745.2,56.2L745.2,56.2z" style="fill:#C4ECFE;"/>
		<g>
			<rect x="54.8" y="471.9" width="690.4" height="2.1" style="fill:#C4ECFE;"/>
		</g>
		<g>
			<rect x="54.8" y="388" width="690.4" height="2.1" style="fill:#C4ECFE;"/>
		</g>
		<g>
			<rect x="54.8" y="471.9" width="690.4" height="2.1" style="fill:#C4ECFE;"/>
		</g>
		<g>
			<rect x="54.8" y="555.9" width="690.4" height="2.1" style="fill:#C4ECFE;"/>
		</g>
		<g>
			<rect x="54.8" y="304" width="690.4" height="2.1" style="fill:#C4ECFE;"/>
		</g>
		<g>
			<rect x="54.8" y="220" width="690.4" height="2.1" style="fill:#C4ECFE;"/>
		</g>
		<g>
			<rect x="54.8" y="136" width="690.4" height="2.1" style="fill:#C4ECFE;"/>
		</g>
	</g>
	<circle cx="330.6" cy="413.2" r="3" style="fill:#BFD9FF;"/>
	<circle cx="674.7" cy="332.5" r="3" style="fill:#BFD9FF;"/>
	<circle cx="554.7" cy="85.1" r="3" style="fill:#BFD9FF;"/>
	<circle cx="719.7" cy="167.4" r="3" style="fill:#BFD9FF;"/>
	<circle cx="104.2" cy="116.7" r="3" style="fill:#BFD9FF;"/>
	<circle cx="224.7" cy="363.1" r="2.7" style="fill:#BFD9FF;"/>
	<polygon points="301.4,642.8 270.3,642.8 278.4,237.6 278.9,218.7 292.8,218.7 293.3,238 	" style="fill:#F9D5FF;"/>
	<path d="M293.3,238c-4.9,1.2-10.1,1.1-14.8-0.4l0.5-18.9h13.8L293.3,238z" style="fill:#181818;"/>
	<path d="M290,202.4L245.5,86.8c-0.5-1.1-1.7-1.6-2.8-1.2c-0.9,0.4-1.4,1.3-1.3,2.2l9.1,89.1l34.2,30.9L290,202.4z" style="fill:#F9D5FF;"/>
	<path d="M292.3,218.1l122.5,17.5c1.2,0.1,2.2-0.8,2.4-2c0.1-0.9-0.4-1.8-1.3-2.2l-82.2-35.5L290,210.7L292.3,218.1z" style="fill:#F9D5FF;"/>
	<path d="M277.4,212.4l-75.1,98.4c-0.7,1-0.4,2.3,0.5,3c0.8,0.6,1.8,0.5,2.6-0.1l71.1-54.4l8.4-45.4L277.4,212.4z" style="fill:#F9D5FF;"/>
	<g>
		<circle cx="286.5" cy="210.9" r="13" style="fill:#FFFFFF;"/>
		<path d="M286.5,225c-7.7,0-14-6.3-14-14c0-7.7,6.3-14,14-14c7.7,0,14,6.3,14,14C300.6,218.7,294.3,225,286.5,225z
			 M286.5,199.1c-6.5,0-11.9,5.4-11.9,11.9c0,6.5,5.4,11.9,11.9,11.9s11.9-5.4,11.9-11.9C298.4,204.4,293.1,199.1,286.5,199.1z" style="fill:#2B2B2B;"/>
	</g>
	<polygon points="163,642.8 139.7,642.8 145.8,297.3 146.2,283.2 156.4,283.2 156.9,297.5 	" style="fill:#F9D5FF;"/>
	<path d="M156.9,297.5c-3.6,0.9-7.5,0.8-11.1-0.3l0.4-14h10.3L156.9,297.5z" style="fill:#181818;"/>
	<path d="M156.4,272.4l-0.9-92.2c0-0.9-0.7-1.6-1.6-1.7c-0.8,0-1.5,0.6-1.6,1.4l-16.9,64.5l15.8,30.5L156.4,272.4z" style="fill:#F9D5FF;"/>
	<path d="M154,283.9l80.9,44.1c0.8,0.4,1.7,0.1,2.2-0.7c0.4-0.7,0.2-1.5-0.4-2l-48-46.2l-34.3-1.1L154,283.9z" style="fill:#F9D5FF;"/>
	<path d="M145.1,276.1l-78,49.1c-0.8,0.4-1.2,1.4-0.7,2.2c0.4,0.8,1.4,1.2,2.2,0.7l63.7-19.5l17.7-29.5L145.1,276.1z" style="fill:#F9D5FF;"/>
	<g>
		<circle cx="151.8" cy="277.4" r="9.6" style="fill:#FFFFFF;"/>
		<path d="M151.8,288.1c-5.9,0-10.7-4.8-10.7-10.7s4.8-10.7,10.7-10.7s10.7,4.8,10.7,10.7S157.7,288.1,151.8,288.1z
			 M151.8,268.8c-4.7,0-8.5,3.8-8.5,8.5c0,4.7,3.8,8.5,8.5,8.5c4.7,0,8.5-3.8,8.5-8.5C160.3,272.6,156.5,268.8,151.8,268.8z" style="fill:#2B2B2B;"/>
	</g>
	
		<linearGradient id="SVGID_1_" gradientUnits="userSpaceOnUse" x1="-231.7733" y1="1785.0239" x2="-403.1048" y2="1995.2916" gradientTransform="matrix(1 0 0 1 536.47 -1354)">
		<stop offset="0" style="stop-color:#FFD8A1"/>
		<stop offset="1" style="stop-color:#FFFFFF"/>
	</linearGradient>
	<path d="M418.7,642.6c-55.4-3.6-73.4-79.2-105.6-109.1c-32.3-29.9-102-8.5-117.1-89.9c-10.1-54.4-55.4-56.8-93.2-76.8
		c-20.6-10.9-45.4,4-45.4,27.4v248.6H418.7z" style="fill:url(#SVGID_1_);"/>
	
		<linearGradient id="SVGID_2_" gradientUnits="userSpaceOnUse" x1="-11766.832" y1="1819.6816" x2="-11910.0957" y2="1995.5066" gradientTransform="matrix(-1 0 0 1 -11228.1396 -1354)">
		<stop offset="0" style="stop-color:#C0DDFC"/>
		<stop offset="0.19" style="stop-color:#D3E7FD"/>
		<stop offset="0.49" style="stop-color:#EBF4FE"/>
		<stop offset="0.77" style="stop-color:#FAFCFF"/>
		<stop offset="1" style="stop-color:#FFFFFF"/>
	</linearGradient>
	<path d="M443.3,642.6c46.2-3,61.4-66.3,88.4-91.2c27-25,85.2-7.1,97.9-75.2c8.5-45.5,46.4-47.5,77.9-64.3
		c17.2-9.1,38,3.3,38,22.9v207.8H443.3z" style="fill:url(#SVGID_2_);"/>
	
		<linearGradient id="SVGID_3_" gradientUnits="userSpaceOnUse" x1="-2653.5105" y1="1888.5297" x2="-2653.5105" y2="1992.2924" gradientTransform="matrix(-1 0 0 1 -1997.36 -1354)">
		<stop offset="0" style="stop-color:#C0DDFC"/>
		<stop offset="0.19" style="stop-color:#D3E7FD"/>
		<stop offset="0.49" style="stop-color:#EBF4FE"/>
		<stop offset="0.77" style="stop-color:#FAFCFF"/>
		<stop offset="1" style="stop-color:#FFFFFF"/>
	</linearGradient>
	<path d="M567.1,642.6c50.7,0,49.1-76.8,93.1-87c17.6-4.1,27.2-17.1,35.3-31.3c13.6-23.6,49.6-14,49.6,13.2v105.1H567.1
		z" style="fill:url(#SVGID_3_);"/>
	<rect x="148" y="639.4" width="504.1" height="3.2" style="fill:#2B2B2B;"/>
	<circle cx="438.1" cy="109.8" r="13.1" style="fill:#2B2B2B;"/>
	<circle cx="435.2" cy="131" r="13.1" style="fill:#2B2B2B;"/>
	<path d="M456.8,253.4l79.5,32.9c9.6,4.1,13.9,15.3,9.7,24.7c-3.8,8.5-13.2,13.1-22.1,10.6l-93.4-27.1
		c-6.2-1.7-11.1-6.2-13.7-12l-0.5-1.2L456.8,253.4z" style="fill:#EA7068;"/>
	
		<linearGradient id="SVGID_4_" gradientUnits="userSpaceOnUse" x1="-1060.1685" y1="384.2654" x2="-1060.1685" y2="505.9514" gradientTransform="matrix(0.2077 -0.9782 0.9782 0.2077 210.0751 -905.0646)">
		<stop offset="0" style="stop-color:#F8809A"/>
		<stop offset="0.76" style="stop-color:#FFE651"/>
		<stop offset="1" style="stop-color:#FFEEC3"/>
	</linearGradient>
	<path d="M416.3,281.4l-37.3-87.2c-5.1-12.3,0.9-26.4,13.2-31.4c12-4.9,25.8,0.6,31.1,12.4l33.5,78.2L416.3,281.4z" style="fill:url(#SVGID_4_);"/>
	<path d="M479.6,642.9l-86.4-0.4c-4.5,0-8.2-3.6-8.2-8.2l-0.2-10.9l54.6,0.7l41.3,10.4
		C485.5,635.8,484.6,642.9,479.6,642.9z" style="fill:#2B2B2B;"/>
	
		<linearGradient id="SVGID_5_" gradientUnits="userSpaceOnUse" x1="388.4587" y1="1511.0333" x2="388.4587" y2="1657.1549" gradientTransform="matrix(1 0 0 1 0 -1354)">
		<stop offset="0" style="stop-color:#F8809A"/>
		<stop offset="0.76" style="stop-color:#FFE651"/>
		<stop offset="1" style="stop-color:#FFEEC3"/>
	</linearGradient>
	<path d="M440.9,248.6c-2.5-28.1-21.6-25.1-15.9-44.6c5.7-19.5-5.1-45.2-26.7-43.3c-16.6,1.4-17.8,1.2-24.8,1.5
		c-47.8,2.3-34.4,37.1-37.4,93.9L440.9,248.6z" style="fill:url(#SVGID_5_);"/>
	
		<linearGradient id="SVGID_6_" gradientUnits="userSpaceOnUse" x1="1160.5916" y1="1996.2069" x2="1160.5916" y2="1604.1448" gradientTransform="matrix(-1 0 0 1 1570.36 -1354)">
		<stop offset="0" style="stop-color:#9774AC"/>
		<stop offset="0.4" style="stop-color:#47A6D3"/>
		<stop offset="0.5" style="stop-color:#A7A7AE"/>
		<stop offset="0.59" style="stop-color:#E89AC0"/>
		<stop offset="1" style="stop-color:#BFE7D1"/>
	</linearGradient>
	<path d="M361.5,273.7l18.6,162.8l4.6,189.2l54.1-1.4c7.5-38.1,19.2-158.4,19.2-180c0-26.6-14-170-17.3-197.5
		L361.5,273.7z" style="fill:url(#SVGID_6_);"/>
	<path d="M381.2,479.5l0.9,39.7l54.2,23.4c5.1,2.2,11.1-0.1,13.3-5.2c0.4-1,0.7-2,0.8-3.1l3.6-36.5L381.2,479.5z" style="fill:#2B2B2B;"/>
	
		<linearGradient id="SVGID_7_" gradientUnits="userSpaceOnUse" x1="1252.7778" y1="1996.1201" x2="1252.7778" y2="1606.1418" gradientTransform="matrix(-1 0 0 1 1570.36 -1354)">
		<stop offset="0" style="stop-color:#9774AC"/>
		<stop offset="0.4" style="stop-color:#47A6D3"/>
		<stop offset="0.5" style="stop-color:#A7A7AE"/>
		<stop offset="0.59" style="stop-color:#E89AC0"/>
		<stop offset="1" style="stop-color:#BFE7D1"/>
	</linearGradient>
	<path d="M336.1,256.2c0,0-40.6,137.3-53.5,172.9c-8.2,22.5-53.8,163.5-53.5,163.7l51.2,19
		c2.1-3.4,29.5-48.3,36.2-62.5c33.1-70.1,59.8-141.7,78.7-217c4.1-16.3,8.6-32.9,11-49.5L336.1,256.2z" style="fill:url(#SVGID_7_);"/>
	<path d="M333.5,264.8l-2.9,33.6c-1.1,12.6,4.1,25,13.8,33.1l76.7,63.7l16.4-32.6l-86.3-94.2l-15.2-12.2L333.5,264.8z" style="fill:#2B2B2B;"/>
	
		<linearGradient id="SVGID_8_" gradientUnits="userSpaceOnUse" x1="1181.8947" y1="1996.1201" x2="1181.8947" y2="1606.1418" gradientTransform="matrix(-1 0 0 1 1570.36 -1354)">
		<stop offset="0" style="stop-color:#9774AC"/>
		<stop offset="0.4" style="stop-color:#47A6D3"/>
		<stop offset="0.5" style="stop-color:#A7A7AE"/>
		<stop offset="0.59" style="stop-color:#E89AC0"/>
		<stop offset="1" style="stop-color:#BFE7D1"/>
	</linearGradient>
	<path d="M336.1,256.2c1.3,14.8,18.7,35.7,44.6,33.6l20.8-2.3c23.6-1.9,40.7-24.5,39.2-40.5L336.1,256.2z" style="fill:url(#SVGID_8_);"/>
	<path d="M402,160.6c0,0,9.8,0.2,14.8,6.7l-16.6,9.3L402,160.6z" style="fill:#2B2B2B;"/>
	<path d="M391.7,178.3l-25.3-8.3l11.3-37.9l31.1-1.1l-5.7,38.4c0.4,4.8-3.2,9-8,9.3
		C393.9,178.7,392.8,178.7,391.7,178.3z" style="fill:#EA7068;"/>
	<polygon points="405.5,152.6 390.4,147.5 403,169.2 	" style="fill:#2B2B2B;"/>
	<path d="M312.6,642L231,613.5c-4.3-1.5-6.6-6.1-5.2-10.4l3.3-10.4l51.4,18.5l35.7,23.2
		C320.4,637.2,317.2,643.6,312.6,642z" style="fill:#2B2B2B;"/>
	<g>
		<path d="M376.5,399.6c-0.1,0-0.2,0-0.3-0.1c-0.6-0.1-0.9-0.8-0.7-1.4l13.4-45.7c0.1-0.6,0.8-0.9,1.4-0.7
			c0.6,0.1,0.9,0.8,0.7,1.4l-13.4,45.7C377.4,399.3,376.9,399.6,376.5,399.6z" style="fill:#2B2B2B;"/>
	</g>
	<g>
		<path d="M282.6,456.2c-0.6,0-1.1-0.5-1.1-1.1V429c0-0.6,0.5-1.1,1.1-1.1c0.6,0,1.1,0.5,1.1,1.1v26.1
			C283.6,455.8,283.1,456.2,282.6,456.2z" style="fill:#2B2B2B;"/>
	</g>
	<g>
		<path d="M381.1,468.8c-0.2,0-0.5-0.1-0.7-0.3c-0.4-0.4-0.5-1.1-0.1-1.5l7.1-8.4c0.4-0.4,1.1-0.5,1.5-0.1
			c0.4,0.4,0.5,1.1,0.1,1.5l-7.1,8.4C381.8,468.7,381.4,468.8,381.1,468.8z" style="fill:#2B2B2B;"/>
	</g>
	<path d="M446.3,109.6c0,3.3-0.6,6.6-1.7,9.8l0,0l-1.7,4.9l-2.2,6.1l-5.1,14.4c-3.8,10.8-15.7,16.4-26.5,12.5l0,0
		l-18.4-6.6c-9.5-3.4-14.5-13.8-11.1-23.4l0,0l9.9-27.7c5.4-15.2,22.2-23.2,37.4-17.7C438.9,86.3,446.3,97.6,446.3,109.6z" style="fill:#EA7068;"/>
	<path d="M409,157.4l-18.4-6.6c-9.5-3.4-14.5-13.9-11.1-23.4l0,0l9.9-27.7c5.4-15.2,22.2-23.2,37.4-17.7l0,0
		c15.2,5.4,23.2,22.2,17.7,37.4l0,0l-9,25.4C431.7,155.6,419.8,161.3,409,157.4L409,157.4z" style="fill:none;"/>
	<g>
		<path d="M442.8,124.4l-2.2,6.1c-0.9-0.6-1.6-1.6-1.6-2.8c0-1.8,1.4-3.3,3.3-3.3C442.5,124.4,442.7,124.4,442.8,124.4z
			" style="fill:#2B2B2B;"/>
	</g>
	<g>
		<path d="M431.7,134.7c-0.4,0-0.7-0.2-0.9-0.6c-0.3-0.5-0.1-1.2,0.4-1.4l3.6-2c0.4-0.1,0.6-0.4,0.7-0.7
			c0.1-0.3,0.1-0.6,0.1-0.9l-2.5-4.7c-0.3-0.5-0.1-1.2,0.4-1.4c0.5-0.3,1.2-0.1,1.4,0.4l2.6,4.9c0.3,0.9,0.3,1.7-0.1,2.5
			c-0.4,0.8-1,1.4-1.9,1.7c0,0,0,0-0.1,0l-3.3,1.8C432.1,134.6,431.8,134.7,431.7,134.7z" style="fill:#2B2B2B;"/>
	</g>
	<g>
		<path d="M430.4,143.6c-0.4,0-0.7-0.1-1.1-0.1c-3.4-0.8-5.1-4.8-5.2-5.1c-0.2-0.6,0-1.2,0.6-1.4c0.6-0.2,1.2,0,1.4,0.6
			l0,0c0.4,0.9,1.8,3.3,3.7,3.8c1.1,0.3,2.4-0.2,3.7-1.4c0.4-0.4,1.2-0.4,1.5,0.1s0.4,1.2-0.1,1.5
			C433.4,143,431.9,143.6,430.4,143.6z" style="fill:#2B2B2B;"/>
	</g>
	<circle cx="424.5" cy="121.4" r="3.3" style="fill:#2B2B2B;"/>
	<circle cx="385.7" cy="105" r="13.1" style="fill:#2B2B2B;"/>
	
		<ellipse transform="matrix(0.1602 -0.9871 0.9871 0.1602 197.8237 473.1796)" cx="377" cy="120.3" rx="13.1" ry="13.1" style="fill:#2B2B2B;"/>
	<path d="M448.3,109.8c-1.6,1.8-7.5,10.5-15.8-4.8c-2.3-4.3-6-3.8-9.3-6.7c-1.6-1.4-4-1.3-5.4,0.3
		c-0.2,0.3-0.4,0.6-0.6,0.9l-6.4,13.1c-1.2,2.3-3.5,3.9-6.1,4.1l-6.4,0.4l-7.7,11.8c-3,4.7-9,6.7-14.3,4.6l0,0
		c0,0,9.8-25.8,14.2-36.9C395,85.4,409.4,76,426.9,82C444.4,87.9,448.3,109.8,448.3,109.8z" style="fill:#2B2B2B;"/>
	<circle cx="421.9" cy="97" r="13.8" style="fill:#2B2B2B;"/>
	<path d="M396.2,122.2l-0.7-0.3c-2.7-1-4.2-4.1-3.2-6.9l2.2-6c1-2.7,4.1-4.2,6.9-3.2l0.7,0.3c2.7,1,4.2,4.1,3.2,6.9
		l-2.2,6C402,121.8,399,123.2,396.2,122.2z" style="fill:#EA7068;"/>
	<path d="M423.6,373.7l79.4,36.8l0,0l-43.3,93.4c-4.5,9.7-15.9,13.9-25.6,9.4l0,0l-44.4-20.5
		c-9.7-4.5-13.9-15.9-9.4-25.6l0,0L423.6,373.7L423.6,373.7z" style="fill:#4C7DE0;"/>
	<path d="M490.2,438.1l-79.4-36.8l15.3-32.9c10.1-21.9,36.2-31.5,58.1-21.3c21.9,10.1,31.5,36.2,21.3,58.1L490.2,438.1
		z M430,394.3l53.1,24.6l9.2-19.8c7.1-14.5,1.2-32.1-13.4-39.2c-14.5-7.1-32.1-1.2-39.2,13.4c-0.2,0.4-0.4,0.8-0.6,1.2L430,394.3z" style="fill:#4C7DE0;"/>
	<polygon points="546.2,458.9 550,450.7 466.8,471.6 456.1,508.2 	" style="fill:#4C7DE0;"/>
	<polygon points="574.2,475.4 546.2,458.9 544.1,452.6 556.7,422.7 	" style="fill:#4C7DE0;"/>
	<polygon points="539.4,453.3 539.1,462.8 546.2,458.9 544.3,452.1 	" style="fill:#2B2B2B;"/>
	<path d="M444.1,383.1l38.6,17.9c4.1,1.9,5.8,6.7,3.9,10.7l0,0c-1.9,4.1-6.7,5.8-10.7,3.9l-38.6-17.9
		c-4.1-1.9-5.8-6.7-3.9-10.7l0,0C435.2,383,440,381.3,444.1,383.1z" style="fill:#2B2B2B;"/>
	<path d="M443.1,464.6c-2.6,6.2-9.7,9.1-15.9,6.5c-6.2-2.6-9.1-9.7-6.5-15.9c0.1-0.3,0.2-0.5,0.4-0.8
		c2.8-6.1,19.8-13.9,19.8-13.9S445.9,458.5,443.1,464.6z" style="fill:#98B4ED;"/>
	<path d="M433.1,436.7c-3.2,3-8.2,2.9-11.3-0.2c-2.8-3-3-7.6-0.3-10.7c3-3.2,15.2-4.4,15.2-4.4
		S436.2,433.5,433.1,436.7z" style="fill:#98B4ED;"/>
	<path d="M448.5,444.4c-0.6,4.3,2.5,8.4,6.8,9c4.1,0.6,8-2.2,8.9-6.2c0.7-4.3-5.4-14.8-5.4-14.8
		S449.2,440.1,448.5,444.4z" style="fill:#98B4ED;"/>
	
		<linearGradient id="SVGID_9_" gradientUnits="userSpaceOnUse" x1="366.0744" y1="1511.0333" x2="366.0744" y2="1657.1549" gradientTransform="matrix(1 0 0 1 0 -1354)">
		<stop offset="0" style="stop-color:#F8809A"/>
		<stop offset="0.76" style="stop-color:#FFE651"/>
		<stop offset="1" style="stop-color:#FFEEC3"/>
	</linearGradient>
	<path d="M388.2,180.1c-1.7,0.6-3.5,0.8-5.4,0.8c-9.1,0-16.2-6.2-18.7-14.4c-0.7,0-1.4,0-2.2,0.1
		c-15.9,0.9-28.1,14.6-27.2,30.6l5.6,95.7l57.1-14.6l-5-84.4C392.3,188.9,390.7,184.2,388.2,180.1z" style="fill:url(#SVGID_9_);"/>
	<path d="M397.5,278.1l66.6,64c9,8.6,9.3,22.9,0.7,31.9c-7.9,8.2-20.7,9.3-29.8,2.4l-84.4-63.3
		c-5.9-4.4-9.6-11.2-10.1-18.6l-0.1-1.7L397.5,278.1z" style="fill:#EA7068;"/>
	<path d="M390.7,92.8c0,0,9-35.7,17-35.9c8-0.2,8.8,8.5,13.5,8.9c4.6,0.4,6.7-8.7,15.2-6.7c8.5,2,9.1,37.7,9.1,37.7
		L390.7,92.8z" style="fill:#BE6361;"/>
	<polygon points="393.8,82.3 445,86 445.6,96.8 390.7,92.8 	" style="fill:#2B2B2B;"/>
	<g>
		<path d="M476.4,100.2L476.4,100.2L361.7,92c-0.7-0.1-1.2-0.7-1.1-1.3s0.7-1.2,1.3-1.1l114.6,8.2
			c0.7,0.1,1.2,0.7,1.1,1.3C477.5,99.7,477,100.2,476.4,100.2z" style="fill:#BE6361;"/>
	</g>
	<g>
		<path d="M396,253c-0.6,0-1-0.4-1.1-1l-2.5-41.9c0-0.6,0.4-1.1,1-1.2c0.6,0,1.1,0.4,1.2,1l2.5,41.9
			C397.1,252.4,396.7,252.9,396,253L396,253z" style="fill:#2B2B2B;"/>
	</g>
	<g>
		<path d="M440.7,248c-0.6,0-1-0.4-1.1-0.9c-1.4-12.4-6.2-18-10.5-23.1c-4.5-5.3-8.3-9.8-5.2-20.3
			c0.1-0.6,0.8-0.9,1.4-0.7c0.6,0.1,0.9,0.8,0.7,1.4c-2.7,9.3,0.4,13.1,4.8,18.2c4.2,5,9.4,11.2,10.9,24.2
			C441.8,247.4,441.4,248,440.7,248C440.8,248,440.7,248,440.7,248z" style="fill:#2B2B2B;"/>
	</g>
	<path d="M576,555.8c0,4.8-3.9,8.7-8.7,8.7c-4.8,0-8.7-3.9-8.7-8.7c0-4.8,8.7-24.1,8.7-24.1S576,551,576,555.8z" style="fill:#98B4ED;"/>
	<path d="M615.3,597.1c-0.1,2.7-2.4,4.8-5.1,4.8c-2.6-0.1-4.7-2.2-4.8-4.8c0-2.7,4.9-13.7,4.9-13.7
		S615.3,594.4,615.3,597.1z" style="fill:#98B4ED;"/>
	<path d="M588.3,519.2c-0.1,2.7-2.4,4.8-5.1,4.8c-2.6-0.1-4.7-2.2-4.8-4.8c0-2.7,4.9-13.7,4.9-13.7
		S588.3,516.5,588.3,519.2z" style="fill:#98B4ED;"/>
	
		<linearGradient id="SVGID_10_" gradientUnits="userSpaceOnUse" x1="593.0535" y1="1466.5905" x2="593.0535" y2="1703.1172" gradientTransform="matrix(1 0 0 1 0 -1354)">
		<stop offset="0" style="stop-color:#6BB572"/>
		<stop offset="1" style="stop-color:#A4FF82"/>
	</linearGradient>
	<circle cx="593.1" cy="228.7" r="98.7" style="fill:url(#SVGID_10_);"/>
	<g>
		<path d="M593.1,642.5c-0.6,0-1.1-0.5-1.1-1.1V291.3c0-0.6,0.5-1.1,1.1-1.1s1.1,0.5,1.1,1.1v350.1
			C594.1,642,593.7,642.5,593.1,642.5z" style="fill:#2B2B2B;"/>
	</g>
	<path d="M576.6,641.4c0-9.1,7.4-16.4,16.5-16.4c9,0,16.4,7.4,16.4,16.4H576.6z" style="fill:#2B2B2B;"/>
	<path d="M600.1,641.4c0-6.7,5.4-12.2,12.2-12.2s12.2,5.4,12.2,12.2H600.1z" style="fill:#2B2B2B;"/>
	<path d="M563.9,641.4c0-6.7,5.4-12.2,12.2-12.2s12.2,5.4,12.2,12.2H563.9z" style="fill:#2B2B2B;"/>
	<g>
		<path d="M593.1,419.9c-0.3,0-0.6-0.1-0.8-0.3c-0.4-0.4-0.4-1.1,0-1.5l40.7-40.7c0.4-0.4,1.1-0.4,1.5,0
			c0.4,0.4,0.4,1.1,0,1.5l-40.7,40.7C593.6,419.8,593.3,419.9,593.1,419.9z" style="fill:#2B2B2B;"/>
	</g>
	<g>
		<path d="M593.1,374.2c-0.3,0-0.6-0.1-0.8-0.3l-29.2-29.2c-0.4-0.4-0.4-1.1,0-1.5c0.4-0.4,1.1-0.4,1.5,0l29.2,29.2
			c0.4,0.4,0.4,1.1,0,1.5C593.6,374,593.3,374.2,593.1,374.2z" style="fill:#2B2B2B;"/>
	</g>
	<circle cx="633.8" cy="266.4" r="6.5" style="fill:#9CF480;"/>
	<circle cx="624.7" cy="297.8" r="6.5" style="fill:#9CF480;"/>
	<circle cx="578.5" cy="209.9" r="6.5" style="fill:#9CF480;"/>
	<circle cx="580.2" cy="274.9" r="6.5" style="fill:#9CF480;"/>
	<circle cx="563.9" cy="240.4" r="6.5" style="fill:#9CF480;"/>
	<circle cx="663.2" cy="262.7" r="6.5" style="fill:#9CF480;"/>
	<circle cx="615.4" cy="216.5" r="6.5" style="fill:#9CF480;"/>
	<circle cx="531.8" cy="262.7" r="6.5" style="fill:#9CF480;"/>
	<g>
		<path d="M713.6,423.4c-2.2,0-4-1.8-4-4v-82.6c0-2.2,1.8-4,4-4s4,1.8,4,4v82.6C717.6,421.6,715.8,423.4,713.6,423.4z" style="fill:#DCECFD;"/>
	</g>
	<g>
		<path d="M713.6,366.6c-0.2,0-0.4,0-0.7-0.1c-2.2-0.4-3.6-2.4-3.3-4.6c1.8-10.8,11.4-18.3,22.2-17.4
			c2.2,0.1,3.8,2.1,3.7,4.3c-0.1,2.2-2.1,3.8-4.3,3.7c-6.7-0.5-12.7,4.1-13.7,10.8C717.2,365.2,715.6,366.6,713.6,366.6z" style="fill:#DCECFD;"/>
	</g>
	<g>
		<path d="M713.6,366.6c-1.9,0-3.6-1.4-3.9-3.3c-1.1-6.7-7-11.3-13.7-10.8c-2.2,0.1-4.1-1.4-4.3-3.7
			c-0.1-2.2,1.4-4.1,3.7-4.3c10.9-0.8,20.4,6.7,22.2,17.4c0.4,2.2-1.1,4.2-3.3,4.6C714,366.6,713.8,366.6,713.6,366.6z" style="fill:#DCECFD;"/>
	</g>
	<g>
		<path d="M713.6,386.5c-0.2,0-0.4,0-0.7-0.1c-2.2-0.4-3.6-2.4-3.3-4.6c1.8-10.8,11.4-18.3,22.2-17.4
			c2.2,0.1,3.8,2.1,3.7,4.3c-0.1,2.2-2.1,3.8-4.3,3.7c-6.7-0.5-12.7,4.1-13.7,10.8C717.2,385.1,715.6,386.5,713.6,386.5z" style="fill:#DCECFD;"/>
	</g>
	<g>
		<path d="M713.6,386.5c-1.9,0-3.6-1.4-3.9-3.3c-1.1-6.7-7-11.3-13.7-10.8c-2.2,0.1-4.1-1.4-4.3-3.7
			c-0.1-2.2,1.4-4.1,3.7-4.3c10.9-0.8,20.4,6.7,22.2,17.4c0.4,2.2-1.1,4.2-3.3,4.6C714,386.5,713.8,386.5,713.6,386.5z" style="fill:#DCECFD;"/>
	</g>
	<g>
		<path d="M665.8,455.5c-2.2,0-4-1.8-4-4v-82.6c0-2.2,1.8-4,4-4s4,1.8,4,4v82.6C669.8,453.8,667.9,455.5,665.8,455.5z" style="fill:#DCECFD;"/>
	</g>
	<g>
		<path d="M665.8,398.6c-0.2,0-0.4,0-0.7-0.1c-2.2-0.4-3.6-2.4-3.3-4.6c1.8-10.8,11.4-18.3,22.2-17.4
			c2.2,0.1,3.8,2.1,3.7,4.3s-2.1,3.8-4.3,3.7c-6.7-0.5-12.7,4.1-13.7,10.8C669.4,397.3,667.7,398.6,665.8,398.6z" style="fill:#DCECFD;"/>
	</g>
	<g>
		<path d="M665.8,398.6c-1.9,0-3.6-1.4-3.9-3.3c-1.1-6.7-7-11.3-13.7-10.8c-2.2,0.1-4.1-1.4-4.3-3.7
			c-0.1-2.2,1.4-4.1,3.7-4.3c10.9-0.9,20.5,6.7,22.2,17.4c0.4,2.2-1.1,4.2-3.3,4.6C666.2,398.6,666,398.6,665.8,398.6z" style="fill:#DCECFD;"/>
	</g>
	<g>
		<path d="M665.8,418.6c-0.2,0-0.4,0-0.7-0.1c-2.2-0.4-3.6-2.4-3.3-4.6c1.8-10.8,11.4-18.2,22.2-17.4
			c2.2,0.1,3.8,2.1,3.7,4.3s-2.1,3.8-4.3,3.7c-6.7-0.5-12.7,4.1-13.7,10.8C669.4,417.2,667.7,418.6,665.8,418.6z" style="fill:#DCECFD;"/>
	</g>
	<g>
		<path d="M665.8,418.6c-1.9,0-3.6-1.4-3.9-3.3c-1.1-6.7-7-11.3-13.7-10.8c-2.2,0.1-4.1-1.4-4.3-3.7
			c-0.1-2.2,1.4-4.1,3.7-4.3c10.9-0.8,20.4,6.7,22.2,17.4c0.4,2.2-1.1,4.2-3.3,4.6C666.2,418.6,666,418.6,665.8,418.6z" style="fill:#DCECFD;"/>
	</g>
	<g>
		<path d="M221.9,508.8c-2.2,0-4-1.8-4-4v-82.6c0-2.2,1.8-4,4-4s4,1.8,4,4v82.6C225.9,507,224.2,508.8,221.9,508.8z" style="fill:#FFE7C5;"/>
	</g>
	<g>
		<path d="M221.9,452c-0.2,0-0.4,0-0.7-0.1c-2.2-0.4-3.6-2.4-3.3-4.6c1.8-10.8,11.4-18.2,22.2-17.4
			c2.2,0.1,3.8,2.1,3.7,4.3c-0.1,2.2-2.1,3.8-4.3,3.7c-6.7-0.5-12.7,4.1-13.7,10.8C225.5,450.5,223.9,452,221.9,452z" style="fill:#FFE7C5;"/>
	</g>
	<g>
		<path d="M221.9,452c-1.9,0-3.6-1.4-3.9-3.3c-1.1-6.7-7-11.3-13.7-10.8c-2.2,0.1-4.1-1.4-4.3-3.7
			c-0.1-2.2,1.4-4.1,3.7-4.3c10.9-0.8,20.4,6.7,22.2,17.4c0.4,2.2-1.1,4.2-3.3,4.6C222.4,451.9,222.1,452,221.9,452z" style="fill:#FFE7C5;"/>
	</g>
	<g>
		<path d="M221.9,471.9c-0.2,0-0.4,0-0.7-0.1c-2.2-0.4-3.6-2.4-3.3-4.6c1.8-10.8,11.4-18.2,22.2-17.4
			c2.2,0.1,3.8,2.1,3.7,4.3c-0.1,2.2-2.1,3.8-4.3,3.7c-6.7-0.5-12.7,4.1-13.7,10.8C225.5,470.5,223.9,471.9,221.9,471.9z" style="fill:#FFE7C5;"/>
	</g>
	<g>
		<path d="M221.9,471.9c-1.9,0-3.6-1.4-3.9-3.3c-1.1-6.7-7-11.3-13.7-10.8c-2.2,0.1-4.1-1.4-4.3-3.7
			c-0.1-2.2,1.4-4.1,3.7-4.3c10.9-0.8,20.5,6.7,22.2,17.4c0.4,2.2-1.1,4.2-3.3,4.6C222.4,471.9,222.1,471.9,221.9,471.9z" style="fill:#FFE7C5;"/>
	</g>
</g>
</svg>
