<?xml version="1.0" encoding="utf-8"?>
<!-- Generator: Adobe Illustrator 22.0.1, SVG Export Plug-In . SVG Version: 6.00 Build 0)  -->
<svg version="1.1" id="Layer_1" xmlns="http://www.w3.org/2000/svg" xmlns:xlink="http://www.w3.org/1999/xlink" x="0px" y="0px" viewBox="0 0 800 781.5" style="enable-background:new 0 0 800 781.5;" xml:space="preserve">

<title>source_final_all</title>
<g>
	<rect width="800" height="781.5" style="fill:#FFFFFF;"/>
	<g style="opacity:0.3;">
		<path d="M743,58.4v582H57v-582H743 M745.2,56.2H54.8v586.5h690.4L745.2,56.2L745.2,56.2z" style="fill:#C4ECFE;"/>
		<g>
			<rect x="221.9" y="56.2" width="2.1" height="586.5" style="fill:#C4ECFE;"/>
		</g>
		<g>
			<rect x="309.7" y="56.2" width="2.1" height="586.5" style="fill:#C4ECFE;"/>
		</g>
		<g>
			<rect x="221.9" y="56.2" width="2.1" height="586.5" style="fill:#C4ECFE;"/>
		</g>
		<g>
			<rect x="134" y="56.2" width="2.1" height="586.5" style="fill:#C4ECFE;"/>
		</g>
		<g>
			<rect x="397.5" y="56.2" width="2.1" height="586.5" style="fill:#C4ECFE;"/>
		</g>
		<g>
			<rect x="485.3" y="56.2" width="2.1" height="586.5" style="fill:#C4ECFE;"/>
		</g>
		<g>
			<rect x="572.1" y="56.2" width="2.1" height="586.5" style="fill:#C4ECFE;"/>
		</g>
		<g>
			<rect x="658.9" y="56.2" width="2.1" height="586.5" style="fill:#C4ECFE;"/>
		</g>
	</g>
	<circle cx="710.6" cy="398.7" r="3" style="fill:#BFD9FF;"/>
	<circle cx="89.7" cy="260.4" r="3" style="fill:#BFD9FF;"/>
	<circle cx="165.1" cy="128.1" r="3" style="fill:#BFD9FF;"/>
	<circle cx="442.6" cy="74.8" r="3" style="fill:#BFD9FF;"/>
	<circle cx="267.7" cy="474" r="2.7" style="fill:#BFD9FF;"/>
	<g>
		<rect x="475.4" y="56.2" width="269.8" height="313.3" style="fill:#FFFFFF;"/>
		<path d="M745.2,370.5H475.4c-0.6,0-1.1-0.5-1.1-1.1V56.2c0-0.6,0.5-1.1,1.1-1.1h269.8c0.6,0,1.1,0.5,1.1,1.1v313.3
			C746.2,370,745.8,370.5,745.2,370.5z M476.5,368.4h267.6V57.2H476.5V368.4z" style="fill:#FDD668;"/>
	</g>
	<path d="M475.4,220.8l42.3,53.1c2.9,3.6,4.3,8.2,4.1,12.9l-4.6,83.7h-41.8V220.8z" style="fill:#2B2B2B;"/>
	<path d="M242,369.5l-18.9,10.8c-10.9,6.2-24.6,2.5-30.8-8.4c-5.7-10-3-22.6,6.2-29.4l17.8-13.1" style="fill:#FDC068;"/>
	<g>
		<path d="M216.3,329.5l64.3-47.3l38.9-101.3c5.7-14.9,22.4-22.4,37.4-16.6c15,5.7,22.4,22.4,16.6,37.4l-41.8,109.1
			l-0.6,1.4c-2,5.3-5.8,9.7-10.7,12.4L242,369.5" style="fill:#FFFFFF;"/>
		<path d="M242,370.5c-0.4,0-0.7-0.2-0.9-0.6c-0.3-0.5-0.1-1.2,0.4-1.4l78.4-44.8c4.7-2.7,8.3-6.9,10.2-11.9l0.6-1.4
			l41.8-109.1c2.7-6.9,2.5-14.5-0.6-21.3c-3-6.8-8.5-12-15.5-14.7c-6.9-2.7-14.5-2.5-21.3,0.6c-6.8,3-12,8.5-14.7,15.5l-38.9,101.6
			l-64.5,47.4c-0.5,0.4-1.2,0.2-1.5-0.2c-0.4-0.4-0.2-1.2,0.2-1.5l64-47l38.7-101c5.9-15.5,23.3-23.2,38.8-17.3
			c15.5,5.9,23.2,23.3,17.3,38.8l-41.8,109.2l-0.6,1.4c-2.1,5.5-6.1,10.1-11.1,13l-78.4,44.8C242.3,370.5,242.2,370.5,242,370.5z" style="fill:#2B2B2B;"/>
	</g>
	<path d="M274.7,642.3l86.4-0.4c4.5,0,8.2-3.6,8.3-8.2l0.2-10.9l-54.6,0.8L273.7,634
		C268.9,635.2,269.8,642.3,274.7,642.3z" style="fill:#2B2B2B;"/>
	
		<linearGradient id="SVGID_1_" gradientUnits="userSpaceOnUse" x1="344.0666" y1="-1212.0795" x2="344.0666" y2="-821.8698" gradientTransform="matrix(1 0 0 -1 0 -570.5239)">
		<stop offset="0" style="stop-color:#9774AC"/>
		<stop offset="0.4" style="stop-color:#47A6D3"/>
		<stop offset="0.5" style="stop-color:#A7A7AE"/>
		<stop offset="0.59" style="stop-color:#E89AC0"/>
		<stop offset="1" style="stop-color:#BFE7D1"/>
	</linearGradient>
	<path d="M392.8,273.2L374.2,436l0.2-3.5l-4.9,192.7l-54.1-1.4c-12.4-63.5-17-128.9-20.2-193.3l0.2-3.5
		c3.9-56,10.1-112.2,16.9-168.2l1.3-10.6L392.8,273.2z" style="fill:url(#SVGID_1_);"/>
	<polygon points="374.5,432.4 373.6,468.2 297.3,465.3 295.4,428.7 	" style="fill:#2B2B2B;"/>
	
		<linearGradient id="SVGID_2_" gradientUnits="userSpaceOnUse" x1="430.7887" y1="-1212.0652" x2="430.7887" y2="-822.0869" gradientTransform="matrix(1 0 0 -1 0 -570.5239)">
		<stop offset="0" style="stop-color:#9774AC"/>
		<stop offset="0.4" style="stop-color:#47A6D3"/>
		<stop offset="0.5" style="stop-color:#A7A7AE"/>
		<stop offset="0.59" style="stop-color:#E89AC0"/>
		<stop offset="1" style="stop-color:#BFE7D1"/>
	</linearGradient>
	<path d="M412.3,255.6c19.1,57.2,37.3,114.8,53.5,172.9l1.6,5.6c0.5,1.9,1.2,3.7,1.8,5.5l50.1,152.5l-51.2,19
		c-2-3.4-29.5-48.3-36.2-62.4c-13.5-28.4-26-57.2-38.1-86.3c-0.7-1.8-1.5-3.6-2.2-5.4l-2-5.6l-3.8-11.1
		c-16.4-47.6-32.1-97.3-41.4-146.6l-1.1-5.8l-0.6-2.9l-0.5-2.9L412.3,255.6z" style="fill:url(#SVGID_2_);"/>
	<path d="M395.7,467.1c0,0,38.9,5.3,79.7-8.4L464.9,425l-81.5,8.4C383.4,433.4,392.3,461.5,395.7,467.1z" style="fill:#2B2B2B;"/>
	<path d="M436.4,642.3l81.3-29.3c4.3-1.5,6.5-6.2,5.1-10.5l-3.5-10.3l-51.2,19l-35.5,23.7
		C428.4,637.6,431.7,644,436.4,642.3z" style="fill:#2B2B2B;"/>
	<path d="M470.7,433.4l-49.1-177.8c-3-56.9-24.6-92-46.7-93.9c-7-0.7-8.2-0.1-24.8-1.5c-10.8-0.9-18.9,5-23.6,13.7
		c-4.7,8.7-12,50-14.5,78.1l-22.6,189.7l3-0.1l-0.4,0.1c0,0,65.5,7.1,95.3,10c28.7,2.7,77.7-16.6,81.3-18.1L470.7,433.4z" style="fill:#FFFFFF;"/>
	<path d="M346.4,160c0,0-9.8,0.2-14.8,6.7l16.6,9.3L346.4,160z" style="fill:#2B2B2B;"/>
	<path d="M356.7,177.7l24.9-11.9l-6.2-29.8l-29.5-9.7l-0.5,42.4c-0.4,4.8,3.2,9,8,9.4
		C354.4,178.1,355.6,178.1,356.7,177.7z" style="fill:#FDC068;"/>
	<polygon points="342.9,148 358.8,147.3 345.4,168.7 	" style="fill:#2B2B2B;"/>
	<path d="M408.9,221.1l-15.6,3.3l18.9,31.3C412.3,255.6,411.6,236.8,408.9,221.1z" style="fill:#2B2B2B;"/>
	<path d="M357.7,150.4l-19.5,1.2c-11.4,0.7-21.3-8-22-19.4c0,0,0,0,0-0.1l-0.9-15.3l-0.4-6.4l-0.3-5.2
		c0-0.6-0.1-1.2-0.1-1.8c0.1-16.1,13.2-29.2,29.3-29.2c15.4,0,28.1,12,29.2,27.4l1.8,29.4C375.4,141.2,367.7,149.8,357.7,150.4z" style="fill:#FDC068;"/>
	<path d="M317.5,115.1c-0.4,0.9-1.2,1.7-2.2,1.9l-0.4-6.4c0.3,0.1,0.5,0.1,0.8,0.2C317.4,111.4,318.2,113.4,317.5,115.1
		z" style="fill:#2B2B2B;"/>
	<g>
		<path d="M310.6,123.2c-0.7,0-1.5-0.1-2.2-0.2c-2.7-0.6-5-2.2-6.5-4.6c-1.5-2.3-2-5.1-1.4-7.8s2.2-5,4.6-6.5
			c2.9-1.8,6.4-2.2,9.6-0.8l-0.9,2c-2.5-1.1-5.4-0.8-7.6,0.7c-1.9,1.2-3.1,3-3.6,5.1c-0.5,2.2-0.1,4.3,1.1,6.2
			c1.2,1.8,3,3.1,5.1,3.6c2.2,0.5,4.3,0.1,6.2-1.1l1.2,1.8C314.4,122.6,312.5,123.2,310.6,123.2z" style="fill:#2B2B2B;"/>
	</g>
	<g>
		<path d="M316.1,121.6l-1.2-1.8c1.4-0.9,2.5-2.2,3.1-3.7c0.9-2,0.9-4.3,0.1-6.3c-0.8-2-2.4-3.6-4.4-4.5l0.9-2
			c2.5,1.1,4.6,3.1,5.6,5.6s1,5.4-0.1,8C319.2,118.8,317.9,120.5,316.1,121.6z" style="fill:#FFFFFF;"/>
	</g>
	<g>
		<path d="M323,123.5c-0.1,0-0.4-0.1-0.5-0.1l-3-1.6c-0.7-0.5-1.2-1.3-1.3-2.2c-0.1-0.9,0.1-1.7,0.7-2.5l3.8-5.2
			c0.4-0.5,1-0.6,1.5-0.2c0.5,0.4,0.6,1,0.2,1.5l-3.8,5.2c-0.2,0.3-0.3,0.6-0.2,0.9c0.1,0.3,0.2,0.6,0.4,0.8l2.7,1.4
			c0.5,0.3,0.7,0.9,0.4,1.4C323.8,123.3,323.4,123.5,323,123.5z" style="fill:#2B2B2B;"/>
	</g>
	<g>
		<path d="M323.1,134.3c-0.1,0-0.2,0-0.3,0c-1.9-0.1-3.5-1.2-4.8-3.4c-0.3-0.5-0.1-1.2,0.4-1.5c0.5-0.3,1.2-0.1,1.5,0.4
			c0.9,1.5,2,2.3,3.2,2.4c2.3,0.1,4.6-2.5,4.6-2.6c0.4-0.4,1.1-0.5,1.5-0.1c0.4,0.4,0.5,1.1,0.1,1.5
			C329.1,131,326.4,134.3,323.1,134.3z" style="fill:#2B2B2B;"/>
	</g>
	<circle cx="333.4" cy="112.7" r="3.3" style="fill:#2B2B2B;"/>
	<g>
		<path d="M334.2,123.2c-5.7,0-10.3-4.6-10.3-10.3c0-5.7,4.6-10.3,10.3-10.3c5.7,0,10.3,4.6,10.3,10.3
			C344.5,118.6,339.9,123.2,334.2,123.2z M334.2,104.6c-4.5,0-8.2,3.7-8.2,8.2s3.7,8.2,8.2,8.2s8.2-3.7,8.2-8.2
			S338.7,104.6,334.2,104.6z" style="fill:#FFFFFF;"/>
	</g>
	<path d="M317.2,91.2c-2.1,7.3,14.3,4.3,23.7-0.3c1.9-0.9,4.2-0.1,5.1,1.8c0.1,0.3,0.3,0.7,0.4,1l2.5,14.4
		c0.4,2.6,2.2,4.7,4.7,5.6l6,2.2l4.1,13.5c1.6,5.4,6.9,8.9,12.4,8.4l0,0c0,0-2.2-27.6-3.4-39.4c-1.2-11.8-12.3-24.8-30.8-24
		C323.5,75.1,317.2,91.2,317.2,91.2z" style="fill:#565656;"/>
	<g>
		
			<rect x="342.9" y="107.7" transform="matrix(0.9714 -0.2373 0.2373 0.9714 -15.8247 86.1888)" width="14.4" height="2.2" style="fill:#FFFFFF;"/>
	</g>
	<path d="M358.7,104.3L358.7,104.3c2.7-0.2,5.1,1.9,5.4,4.6l0.5,7.2c0.2,2.7-1.9,5.1-4.6,5.4l0,0
		c-2.7,0.2-5.1-1.9-5.4-4.6l-0.5-7.2C353.9,106.9,355.9,104.5,358.7,104.3z" style="fill:#FDC068;"/>
	<g>
		<rect x="319.6" y="109.8" width="5.5" height="2.2" style="fill:#FFFFFF;"/>
	</g>
	<path d="M482.9,378.2l-0.9,19.5c-0.7,12.4-11.2,22-23.7,21.4c-11.4-0.6-20.6-9.6-21.3-21.1l-1.3-19.9" style="fill:#FDC068;"/>
	<path d="M382.3,163.9c11.3-2.7,23.2,1.6,30.1,10.9l69.5,94l0.9,1.2c3.3,4.6,5.1,10.1,4.8,15.8l-4.6,92.5h-47.4
		l-4.8-81.8l-42.3-56.4L371.9,194L382.3,163.9z" style="fill:#FFFFFF;"/>
	<g>
		<path d="M277.5,294.4c-0.1,0-0.2,0-0.3-0.1c-0.6-0.1-0.9-0.8-0.7-1.4l3.1-11.1c0.1-0.6,0.8-0.9,1.4-0.7
			c0.6,0.1,0.9,0.8,0.7,1.4l-3.1,11.1C278.4,294.1,277.9,294.4,277.5,294.4z" style="fill:#2B2B2B;"/>
	</g>
	<g>
		<path d="M382.3,163.9c11.3-2.7,23.2,1.6,30.1,10.9l69.5,94l0.9,1.2c3.3,4.6,5.1,10.1,4.8,15.8l-4.6,92.5" style="fill:#FFFFFF;"/>
		<path d="M482.9,379.3L482.9,379.3c-0.7,0-1.1-0.5-1.1-1.2l4.6-92.5c0.3-5.4-1.4-10.7-4.6-15.1l-0.9-1.2l-69.5-94
			c-6.7-9-18-13.2-28.9-10.5c-0.6,0.1-1.2-0.2-1.3-0.8c-0.1-0.6,0.2-1.2,0.8-1.3c11.8-2.8,24,1.6,31.2,11.4l70.4,95.2
			c3.5,4.7,5.3,10.6,5,16.4l-4.6,92.5C484,378.8,483.5,379.3,482.9,379.3z" style="fill:#2B2B2B;"/>
	</g>
	<path d="M381.5,165.8l-6.2,15.3c-5.9,14.8-27.7,11.6-29.3-4.2l-0.8-7.9l8.7-0.8L381.5,165.8z" style="fill:#FDC068;"/>
	<polyline points="435.6,378.2 430.2,296.4 384,233.8 	" style="fill:#FFFFFF;stroke:#2B2B2B;stroke-width:3;stroke-linecap:round;stroke-miterlimit:10;"/>
	<g>
		<path d="M437.4,306.4c-0.3,0-0.7-0.1-0.9-0.4l-7.2-8.9c-0.4-0.4-0.3-1.2,0.1-1.5c0.4-0.4,1.2-0.3,1.5,0.1l7.2,8.9
			c0.4,0.4,0.3,1.2-0.1,1.5C437.9,306.3,437.6,306.4,437.4,306.4z" style="fill:#2B2B2B;"/>
	</g>
	<g>
		<path d="M289.4,442.6c-0.1,0-0.1,0-0.1,0c-0.6-0.1-1-0.6-0.9-1.2l24.6-207.7c0.1-0.6,0.6-1,1.2-0.9
			c0.6,0.1,1,0.6,0.9,1.2l-24.6,207.7C290.4,442.2,289.9,442.6,289.4,442.6z" style="fill:#2B2B2B;"/>
	</g>
	<g>
		<path d="M336.7,215.3h-15.3c-0.6,0-1.1-0.5-1.1-1.1c0-0.6,0.5-1.1,1.1-1.1h15.3c0.6,0,1.1,0.5,1.1,1.1
			C337.8,214.8,337.3,215.3,336.7,215.3z" style="fill:#2B2B2B;"/>
	</g>
	<rect x="377.1" y="639.6" width="156.4" height="3" style="fill:#2B2B2B;"/>
	<path d="M114.8,556.9c0,0,24.1-6.5,102.6,5.4s106.2-5.4,106.2-5.4l57.7,84.7H59.9L114.8,556.9z" style="fill:#B7EDFF;"/>
	<g>
		<path d="M252.9,454.6h-71.1c-0.6,0-1.1-0.5-1.1-1.1V219.8c0-0.6,0.5-1.1,1.1-1.1h71.1c0.6,0,1.1,0.5,1.1,1.1v233.6
			C254,454.1,253.5,454.6,252.9,454.6z M182.9,452.4h68.9V220.9h-68.9V452.4z" style="fill:#4171FF;"/>
	</g>
	<g>
		<path d="M381.3,642.8H59.9c-0.4,0-0.8-0.2-0.9-0.6c-0.2-0.4-0.1-0.8,0.1-1.1L181,452.9c0.2-0.3,0.6-0.5,0.9-0.5H253
			c0.4,0,0.7,0.1,0.9,0.5l128.4,188.2c0.2,0.4,0.2,0.8,0.1,1.1C382.1,642.5,381.7,642.8,381.3,642.8z M61.9,640.6h317.3l-126.9-186
			h-69.9L61.9,640.6z" style="fill:#4171FF;"/>
	</g>
	<g>
		<path d="M259.3,220.9h-83.9c-0.6,0-1.1-0.5-1.1-1.1c0-0.6,0.5-1.1,1.1-1.1h83.9c0.6,0,1.1,0.5,1.1,1.1
			C260.4,220.4,259.9,220.9,259.3,220.9z" style="fill:#4171FF;"/>
	</g>
	<g>
		<path d="M171.1,592.3c-4,0-7.2-3.3-7.2-7.2c0-3.9,3.3-7.2,7.2-7.2c4,0,7.2,3.3,7.2,7.2
			C178.3,589.1,175.1,592.3,171.1,592.3z M171.1,580.1c-2.7,0-5,2.2-5,5c0,2.7,2.2,5,5,5c2.7,0,5-2.2,5-5
			C176.1,582.3,173.9,580.1,171.1,580.1z" style="fill:#FFFFFF;"/>
	</g>
	<g>
		<path d="M203.4,620.3c-2.7,0-5-2.2-5-5c0-2.7,2.2-5,5-5s5,2.2,5,5C208.4,618,206.2,620.3,203.4,620.3z M203.4,612.5
			c-1.5,0-2.8,1.2-2.8,2.8c0,1.6,1.2,2.8,2.8,2.8s2.8-1.2,2.8-2.8C206.2,613.7,205,612.5,203.4,612.5z" style="fill:#FFFFFF;"/>
	</g>
	<g>
		<path d="M243.3,582.1c-2.7,0-5-2.2-5-5s2.2-5,5-5c2.7,0,5,2.2,5,5S245.9,582.1,243.3,582.1z M243.3,574.4
			c-1.5,0-2.8,1.2-2.8,2.8s1.2,2.8,2.8,2.8c1.6,0,2.8-1.2,2.8-2.8S244.8,574.4,243.3,574.4z" style="fill:#FFFFFF;"/>
	</g>
	<g>
		<path d="M273.3,600.4c-3.5,0-6.2-2.8-6.2-6.2s2.8-6.2,6.2-6.2s6.2,2.8,6.2,6.2S276.8,600.4,273.3,600.4z M273.3,590.1
			c-2.2,0-4.1,1.8-4.1,4.1s1.8,4.1,4.1,4.1s4.1-1.8,4.1-4.1S275.5,590.1,273.3,590.1z" style="fill:#FFFFFF;"/>
	</g>
	<circle cx="201.1" cy="561.3" r="8" style="fill:none;stroke:#B7EDFF;stroke-width:3;stroke-miterlimit:10;"/>
	<circle cx="295.4" cy="566.7" r="5.4" style="fill:none;stroke:#B7EDFF;stroke-width:3;stroke-miterlimit:10;"/>
	<g>
		<rect x="183" y="452.4" width="68.9" height="2.2" style="fill:#B7EDFF;"/>
	</g>
	
		<linearGradient id="SVGID_3_" gradientUnits="userSpaceOnUse" x1="-7672.0518" y1="-1119.6844" x2="-7672.0518" y2="-1209.395" gradientTransform="matrix(-1 0 0 -1 -7029.3599 -570.5239)">
		<stop offset="0" style="stop-color:#FFD8A1"/>
		<stop offset="1" style="stop-color:#FFFFFF"/>
	</linearGradient>
	<path d="M541.2,642.6c44.9,0,65.3-65.8,118.2-59.4c15.8,2,33.6-30.6,40.8-42.8c12-20.4,43.8-12.2,43.8,11.4v90.9
		H541.2z" style="fill:url(#SVGID_3_);"/>
	<g>
		<path d="M642.8,329.6c-2.4,0-4.3-2-4.3-4.3c0-24.4,16.7-41,32.8-56.9c16.6-16.4,32.1-32,32.1-55.5
			s-15.6-39.1-32.1-55.5c-16.1-16.1-32.8-32.6-32.8-56.9c0-2.4,2-4.3,4.3-4.3c2.4,0,4.3,2,4.3,4.3c0,20.8,14.7,35.3,30.2,50.8
			c17.1,16.9,34.7,34.5,34.7,61.6s-17.7,44.7-34.7,61.6c-15.6,15.5-30.2,30-30.2,50.8C647.1,327.6,645.2,329.6,642.8,329.6z" style="fill:#F9D5FF;"/>
	</g>
	<g>
		<path d="M707.7,329.6c-2.4,0-4.3-2-4.3-4.3c0-23.5-15.6-39.1-32.1-55.5c-16.1-16.1-32.8-32.6-32.8-56.9
			s16.7-41,32.8-56.9c16.6-16.4,32.1-32,32.1-55.5c0-2.4,2-4.3,4.3-4.3c2.4,0,4.3,2,4.3,4.3c0,27.1-17.7,44.7-34.7,61.6
			c-15.6,15.5-30.2,30-30.2,50.8s14.7,35.3,30.2,50.8c17.1,16.9,34.7,34.5,34.7,61.6C712.1,327.6,710.1,329.6,707.7,329.6z" style="fill:#F9D5FF;"/>
	</g>
	<g>
		<path d="M707.3,111.7h-64c-2.4,0-4.3-2-4.3-4.3s2-4.3,4.3-4.3h64c2.4,0,4.3,2,4.3,4.3S709.7,111.7,707.3,111.7z" style="fill:#F9D5FF;"/>
	</g>
	<g>
		<path d="M702.5,128h-53.7c-2.4,0-4.3-2-4.3-4.3c0-2.4,2-4.3,4.3-4.3h53.7c2.4,0,4.3,2,4.3,4.3
			C706.9,126,704.9,128,702.5,128z" style="fill:#F9D5FF;"/>
	</g>
	<g>
		<path d="M692.1,144.3h-31.5c-2.4,0-4.3-2-4.3-4.3s2-4.3,4.3-4.3h31.5c2.4,0,4.3,2,4.3,4.3S694.5,144.3,692.1,144.3z" style="fill:#F9D5FF;"/>
	</g>
	<g>
		<path d="M707.3,324.1h-64c-2.4,0-4.3-2-4.3-4.3c0-2.4,2-4.3,4.3-4.3h64c2.4,0,4.3,2,4.3,4.3
			C711.6,322.1,709.7,324.1,707.3,324.1z" style="fill:#F9D5FF;"/>
	</g>
	<g>
		<path d="M702.5,307.8h-53.7c-2.4,0-4.3-2-4.3-4.3c0-2.4,2-4.3,4.3-4.3h53.7c2.4,0,4.3,2,4.3,4.3
			C706.9,305.9,704.9,307.8,702.5,307.8z" style="fill:#F9D5FF;"/>
	</g>
	<g>
		<path d="M692.1,291.6h-31.5c-2.4,0-4.3-2-4.3-4.3c0-2.4,2-4.3,4.3-4.3h31.5c2.4,0,4.3,2,4.3,4.3
			C696.5,289.7,694.5,291.6,692.1,291.6z" style="fill:#F9D5FF;"/>
	</g>
	<g>
		<path d="M702.5,235.1h-53.7c-2.4,0-4.3-2-4.3-4.3s2-4.3,4.3-4.3h53.7c2.4,0,4.3,2,4.3,4.3S704.9,235.1,702.5,235.1z" style="fill:#F9D5FF;"/>
	</g>
	<g>
		<path d="M692.1,254.6h-31.5c-2.4,0-4.3-2-4.3-4.3s2-4.3,4.3-4.3h31.5c2.4,0,4.3,2,4.3,4.3S694.5,254.6,692.1,254.6z" style="fill:#F9D5FF;"/>
	</g>
	<g>
		<path d="M707.3,215.6h-64c-2.4,0-4.3-2-4.3-4.3s2-4.3,4.3-4.3h64c2.4,0,4.3,2,4.3,4.3S709.7,215.6,707.3,215.6z" style="fill:#F9D5FF;"/>
	</g>
	<g>
		<path d="M702.5,197.8h-53.7c-2.4,0-4.3-2-4.3-4.3s2-4.3,4.3-4.3h53.7c2.4,0,4.3,2,4.3,4.3S704.9,197.8,702.5,197.8z" style="fill:#F9D5FF;"/>
	</g>
	<g>
		<path d="M692.1,180h-31.5c-2.4,0-4.3-2-4.3-4.3s2-4.3,4.3-4.3h31.5c2.4,0,4.3,2,4.3,4.3S694.5,180,692.1,180z" style="fill:#F9D5FF;"/>
	</g>
	<circle cx="539.2" cy="100.3" r="7.8" style="fill:#EDC16C;"/>
	<circle cx="572.6" cy="119.8" r="7.8" style="fill:#EDC16C;"/>
	<circle cx="572.6" cy="158.4" r="7.8" style="fill:#EDC16C;"/>
	<circle cx="606.1" cy="177.6" r="7.8" style="fill:#EDC16C;"/>
	<circle cx="539.2" cy="177.6" r="7.8" style="fill:#EDC16C;"/>
	<circle cx="539.2" cy="216.4" r="7.8" style="fill:#EDC16C;"/>
	<circle cx="572.6" cy="235.6" r="7.8" style="fill:#EDC16C;"/>
	<circle cx="505.8" cy="158.4" r="7.8" style="fill:#EDC16C;"/>
	<circle cx="505.8" cy="119.8" r="7.8" style="fill:#EDC16C;"/>
	<g>
		<path d="M539.2,179.7L504,159.3v-40.7l35.2-20.3l35.2,20.3v40.7L539.2,179.7z M507.6,157.2l31.6,18.2l31.6-18.2
			v-36.5l-31.6-18.2l-31.6,18.2V157.2z" style="fill:#EDC16C;"/>
	</g>
	<g>
		<polygon points="571.7,237.2 537.4,217.4 537.4,176.6 572.6,156.3 607,176.1 605.2,179.3 572.6,160.5 541,178.7 
			541,215.3 573.5,234.1 		" style="fill:#EDC16C;"/>
	</g>
	<g>
		<rect x="531.4" y="297.9" width="87.9" height="25.1" style="fill:#FFFFFF;"/>
		<path d="M620.4,324h-90.1v-27.3h90.1V324z M532.5,321.9h85.7v-22.9h-85.7V321.9z" style="fill:#FDD668;"/>
	</g>
	<g>
		<rect x="531.4" y="272.8" width="19.2" height="25.1" style="fill:#FFFFFF;"/>
		<path d="M551.7,299h-21.3v-27.3h21.3V299z M532.5,296.8h17v-22.9h-17V296.8z" style="fill:#FDD668;"/>
	</g>
	<g>
		<rect x="550.6" y="297.9" width="30.8" height="25.1" style="fill:#FFFFFF;"/>
		<path d="M582.4,324h-32.9v-27.3h32.9V324z M551.7,321.9h28.6v-22.9h-28.6V321.9z" style="fill:#FDD668;"/>
	</g>
	<g>
		<rect x="533.5" y="436.6" width="211.6" height="204.9" style="fill:#FFFFFF;"/>
		<path d="M745.2,642.7H533.5c-0.6,0-1.1-0.5-1.1-1.1v-205c0-0.6,0.5-1.1,1.1-1.1h211.6c0.6,0,1.1,0.5,1.1,1.1v204.9
			C746.2,642.2,745.8,642.7,745.2,642.7z M534.6,640.5h209.5V437.7H534.6V640.5z" style="fill:#F9D5FF;"/>
	</g>
	<g>
		<rect x="675.3" y="436.6" width="69.9" height="204.9" style="fill:#FFFFFF;"/>
		<path d="M745.2,642.7h-69.9c-0.6,0-1.1-0.5-1.1-1.1v-205c0-0.6,0.5-1.1,1.1-1.1h69.9c0.6,0,1.1,0.5,1.1,1.1v204.9
			C746.2,642.2,745.8,642.7,745.2,642.7z M676.3,640.5h67.7V437.7h-67.7V640.5L676.3,640.5z" style="fill:#F9D5FF;"/>
	</g>
	<g>
		<rect x="533.5" y="538.5" width="141.8" height="2.2" style="fill:#F9D5FF;"/>
	</g>
	<path d="M608.5,512.4c-0.1,15-12.2,27.1-27.3,27.1c-15-0.1-27.1-12.2-27.1-27.3c0-2.1,0.3-4.3,0.8-6.3h52.7
		C608.2,508.1,608.5,510.3,608.5,512.4z" style="fill:#CAE6C4;"/>
	<g>
		<path d="M581.3,540.7c-15.6,0-28.2-12.7-28.2-28.2c0-12.4,8.2-23.5,20.1-27.1v-23.8c0-0.6,0.5-1.1,1.1-1.1h14.1
			c0.6,0,1.1,0.5,1.1,1.1v23.8c11.9,3.5,20.1,14.5,20.1,27.1c0,7.5-3,14.6-8.2,20C595.9,537.8,588.9,540.7,581.3,540.7L581.3,540.7z
			 M575.3,462.7v23.5c0,0.5-0.4,0.9-0.8,1c-11.4,3-19.3,13.4-19.3,25.2c0,14.4,11.7,26,26,26l0,0c14.4,0,26-11.7,26-26l0,0l0,0l0,0
			l0,0c0-11.8-8-22.1-19.3-25.2c-0.5-0.1-0.8-0.6-0.8-1v-23.5H575.3z" style="fill:#F9D5FF;"/>
	</g>
	<g>
		<path d="M590.7,462.7h-18.9c-0.6,0-1.1-0.5-1.1-1.1c0-0.6,0.5-1.1,1.1-1.1h18.9c0.6,0,1.1,0.5,1.1,1.1
			C591.8,462.2,591.3,462.7,590.7,462.7z" style="fill:#F9D5FF;"/>
	</g>
	<rect x="558.6" y="604.2" width="10.6" height="36.9" style="fill:#71D6FF;"/>
	<g>
		<path d="M569.2,642.2h-10.6c-0.6,0-1.1-0.5-1.1-1.1v-67.3c0-0.6,0.5-1.1,1.1-1.1h10.6c0.6,0,1.1,0.5,1.1,1.1v67.3
			C570.3,641.7,569.8,642.2,569.2,642.2z M559.7,640h8.5v-65.1h-8.5V640z" style="fill:#F9D5FF;"/>
	</g>
	<g>
		<path d="M571.3,574.9h-14.8c-0.6,0-1.1-0.5-1.1-1.1s0.5-1.1,1.1-1.1h14.8c0.6,0,1.1,0.5,1.1,1.1
			S571.9,574.9,571.3,574.9z" style="fill:#F9D5FF;"/>
	</g>
	<rect x="576" y="604.2" width="10.6" height="36.9" style="fill:#71D6FF;"/>
	<g>
		<path d="M586.5,642.2H576c-0.6,0-1.1-0.5-1.1-1.1v-67.3c0-0.6,0.5-1.1,1.1-1.1h10.6c0.6,0,1.1,0.5,1.1,1.1v67.3
			C587.6,641.7,587.1,642.2,586.5,642.2z M577.1,640h8.5v-65.1h-8.5V640z" style="fill:#F9D5FF;"/>
	</g>
	<g>
		<path d="M588.7,574.9h-14.8c-0.6,0-1.1-0.5-1.1-1.1s0.5-1.1,1.1-1.1h14.8c0.6,0,1.1,0.5,1.1,1.1
			S589.3,574.9,588.7,574.9z" style="fill:#F9D5FF;"/>
	</g>
	<rect x="593.3" y="604.2" width="10.6" height="36.9" style="fill:#71D6FF;"/>
	<g>
		<path d="M603.9,642.2h-10.6c-0.6,0-1.1-0.5-1.1-1.1v-67.3c0-0.6,0.5-1.1,1.1-1.1H604c0.6,0,1.1,0.5,1.1,1.1v67.3
			C605,641.7,604.5,642.2,603.9,642.2z M594.4,640h8.5v-65.1h-8.5V640z" style="fill:#F9D5FF;"/>
	</g>
	<g>
		<path d="M606.1,574.9h-14.8c-0.6,0-1.1-0.5-1.1-1.1s0.5-1.1,1.1-1.1h14.8c0.6,0,1.1,0.5,1.1,1.1
			S606.7,574.9,606.1,574.9z" style="fill:#F9D5FF;"/>
	</g>
	<rect x="610.5" y="611.2" width="10.6" height="29.9" style="fill:#71D6FF;"/>
	<g>
		<path d="M621.1,642.2h-10.6c-0.6,0-1.1-0.5-1.1-1.1v-67.3c0-0.6,0.5-1.1,1.1-1.1h10.6c0.6,0,1.1,0.5,1.1,1.1v67.3
			C622.2,641.7,621.7,642.2,621.1,642.2z M611.6,640h8.5v-65.1h-8.5V640z" style="fill:#F9D5FF;"/>
	</g>
	<g>
		<path d="M623.3,574.9h-14.8c-0.6,0-1.1-0.5-1.1-1.1s0.5-1.1,1.1-1.1h14.8c0.6,0,1.1,0.5,1.1,1.1
			S623.9,574.9,623.3,574.9z" style="fill:#F9D5FF;"/>
	</g>
	<rect x="609.2" y="527.5" width="29.7" height="12.2" style="fill:#E4D0FE;"/>
	<g>
		<path d="M638.9,540.7h-29.7c-0.6,0-1.1-0.5-1.1-1.1v-11.1c0-5.9,4.6-10.8,10.3-11.4v-27.3c0-0.6,0.5-1.1,1.1-1.1h9
			c0.6,0,1.1,0.5,1.1,1.1v27.3c5.8,0.6,10.3,5.4,10.3,11.4v11.1C639.9,540.2,639.4,540.7,638.9,540.7z M610.3,538.5h27.5v-10
			c0-5.1-4.1-9.3-9.3-9.3c-0.6,0-1.1-0.5-1.1-1.1v-27.3h-6.9v27.3c0,0.6-0.5,1.1-1.1,1.1c-5.1,0-9.2,4.1-9.2,9.2V538.5z" style="fill:#F9D5FF;"/>
	</g>
	<g>
		<path d="M631.1,491h-13.7c-0.6,0-1.1-0.5-1.1-1.1c0-0.6,0.5-1.1,1.1-1.1h13.7c0.6,0,1.1,0.5,1.1,1.1
			C632.2,490.4,631.7,491,631.1,491z" style="fill:#F9D5FF;"/>
	</g>
	<path d="M642.9,513h29.7l0,0v11.8c0,8.2-6.7,14.8-14.8,14.8l0,0c-8.2,0-14.8-6.7-14.8-14.8V513L642.9,513z" style="fill:#F7B2AB;"/>
	<g>
		<path d="M657.7,540.7c-8.8,0-15.9-7.2-15.9-15.9V514c0-5.9,4.6-10.8,10.3-11.4v-27.3c0-0.6,0.5-1.1,1.1-1.1h9
			c0.6,0,1.1,0.5,1.1,1.1v27.3c5.8,0.6,10.3,5.4,10.3,11.4v10.8C673.7,533.6,666.6,540.7,657.7,540.7z M654.3,476.4v27.3
			c0,0.6-0.5,1.1-1.1,1.1c-5.1,0-9.3,4.1-9.3,9.3v10.8c0,7.6,6.2,13.7,13.7,13.7c7.6,0,13.7-6.2,13.7-13.7V514
			c0-5.1-4.1-9.3-9.3-9.3c-0.6,0-1.1-0.5-1.1-1.1v-27.3H654.3z" style="fill:#F9D5FF;"/>
	</g>
	<g>
		<path d="M664.8,476.4h-13.7c-0.6,0-1.1-0.5-1.1-1.1s0.5-1.1,1.1-1.1h13.7c0.6,0,1.1,0.5,1.1,1.1
			S665.4,476.4,664.8,476.4z" style="fill:#F9D5FF;"/>
	</g>
	<g>
		<path d="M106.4,470.5l-5.5-4.7l10.9-12.7c5.4-6.4,8.5-14.5,8.5-23V404h7.2v26.1c0,10.1-3.6,20-10.1,27.6L106.4,470.5
			z" style="fill:#F9D5FF;"/>
	</g>
	<g>
		<path d="M433.7,153.3l-11.4-15.7c-5.7-7.9-8.8-17.2-8.8-27v-12h7.2v12c0,8.2,2.5,16.1,7.4,22.7l11.4,15.7
			L433.7,153.3z" style="fill:#F9D5FF;"/>
	</g>
	
		<linearGradient id="SVGID_4_" gradientUnits="userSpaceOnUse" x1="-6635.0068" y1="-1139.67" x2="-6635.0068" y2="-1210.3574" gradientTransform="matrix(-1 0 0 -1 -5968.6899 -570.5239)">
		<stop offset="0" style="stop-color:#FFD8A1"/>
		<stop offset="1" style="stop-color:#FFFFFF"/>
	</linearGradient>
	<path d="M586.5,642.8c43,0,39.5-56.4,91.1-50.7c17.7,2,28.3-20.3,33.9-30c9.5-16,34.5-9.6,34.5,9v71.6H586.5z" style="fill:url(#SVGID_4_);"/>
</g>
</svg>
