<?xml version="1.0" encoding="iso-8859-1"?>
<!-- Generator: Adobe Illustrator 23.0.2, SVG Export Plug-In . SVG Version: 6.00 Build 0)  -->
<svg version="1.1" id="Layer_1" xmlns="http://www.w3.org/2000/svg" xmlns:xlink="http://www.w3.org/1999/xlink" x="0px" y="0px"
	 viewBox="0 0 1105.6 1080" style="enable-background:new 0 0 1105.6 1080;" xml:space="preserve">
<g style="opacity:0.3;">
	<g>
		<path style="fill:#C4ECFE;" d="M1026.7,80.7V885H78.8V80.7H1026.7 M1029.8,77.6H75.7v810.5h954.1L1029.8,77.6L1029.8,77.6z"/>
	</g>
	<g>
		<line style="fill:none;stroke:#C4ECFE;stroke-width:2.7462;stroke-miterlimit:10;" x1="308" y1="77.6" x2="308" y2="888.1"/>
		<line style="fill:none;stroke:#C4ECFE;stroke-width:2.7462;stroke-miterlimit:10;" x1="429.4" y1="77.6" x2="429.4" y2="888.1"/>
		<line style="fill:none;stroke:#C4ECFE;stroke-width:2.7462;stroke-miterlimit:10;" x1="308" y1="77.6" x2="308" y2="888.1"/>
		<line style="fill:none;stroke:#C4ECFE;stroke-width:2.7462;stroke-miterlimit:10;" x1="186.6" y1="77.6" x2="186.6" y2="888.1"/>
		<line style="fill:none;stroke:#C4ECFE;stroke-width:2.7462;stroke-miterlimit:10;" x1="550.8" y1="77.6" x2="550.8" y2="888.1"/>
		<line style="fill:none;stroke:#C4ECFE;stroke-width:2.7462;stroke-miterlimit:10;" x1="672.2" y1="77.6" x2="672.2" y2="888.1"/>
		<line style="fill:none;stroke:#C4ECFE;stroke-width:2.7462;stroke-miterlimit:10;" x1="792.1" y1="77.6" x2="792.1" y2="888.1"/>
		<line style="fill:none;stroke:#C4ECFE;stroke-width:2.7462;stroke-miterlimit:10;" x1="912" y1="77.6" x2="912" y2="888.1"/>
	</g>
</g>
<g>
	
		<linearGradient id="SVGID_1_" gradientUnits="userSpaceOnUse" x1="1188.4188" y1="957.9348" x2="1033.343" y2="821.9078" gradientTransform="matrix(1 0 0 -1 0 1080)">
		<stop  offset="0" style="stop-color:#9774AC"/>
		<stop  offset="0.401" style="stop-color:#47A6D3"/>
		<stop  offset="0.5011" style="stop-color:#A7A7AE"/>
		<stop  offset="0.5908" style="stop-color:#E89AC0"/>
		<stop  offset="1" style="stop-color:#BFE7D1"/>
	</linearGradient>
	<path style="fill:url(#SVGID_1_);" d="M1029.8,127.3v267.8c-38.1-71.9-46.2-162.1-3.7-259.7C1027.3,132.7,1028.5,130,1029.8,127.3z
		"/>
	<path style="fill:#FDC068;" d="M865,279.5l-0.6,8.1l-0.5,7l0,0l-8.6,118.8l-24.2-16l-12.5-8.3L639.6,271l-3.8-2.5v-191h88.6
		c31.7,10.6,59.8,28.7,82.5,52.1c34.3,35.4,56,83,58,135.3C865.1,269.8,865.2,274.6,865,279.5z"/>
	<path style="fill:#2B2B2B;" d="M862.3,316.6l-3.2,44.3c-8.4-3.5-14.4-11.9-14.4-21.6C844.7,328.4,852.2,319.2,862.3,316.6z"/>
	<path style="fill:#2B2B2B;" d="M836.9,364.3l-28.2-35.7c-2.3-2.9-6.5-3.4-9.4-1.1s-3.4,6.5-1.1,9.4l28.2,35.7
		c1.6,2,2.3,4.5,1.9,7.1c-0.3,2.4-1.6,4.5-3.5,6l-6.3,3.5l12.5,8.3l0.7-0.4l0.6-0.4c5-3.6,8.3-9,9.2-15.2
		C842.4,375.4,840.7,369.1,836.9,364.3z"/>
	<path style="fill:#2B2B2B;" d="M757.4,336.3c0,3.9-1,7.5-2.6,10.8L716,321.5c4.3-5.2,10.8-8.5,18.1-8.5
		C746.9,312.9,757.4,323.4,757.4,336.3z"/>
	<path style="fill:#2B2B2B;" d="M710.6,291.4c-2.5,0-5-1.4-6.2-3.9c-1.6-3.4-0.2-7.5,3.2-9.1l49.7-24c3.4-1.6,7.5-0.2,9.1,3.2
		c1.6,3.4,0.2,7.5-3.2,9.1l-49.7,24C712.6,291.2,711.6,291.4,710.6,291.4z"/>
	<path style="fill:#2B2B2B;" d="M858.3,297.5c-1.9,0-3.8-0.8-5.1-2.3l-16.1-18.1c-2.5-2.8-2.3-7.1,0.6-9.7c2.8-2.5,7.1-2.3,9.7,0.6
		l16.1,18.1c2.5,2.8,2.3,7.1-0.6,9.7C861.5,297,859.9,297.5,858.3,297.5z"/>
	
		<linearGradient id="SVGID_2_" gradientUnits="userSpaceOnUse" x1="750.4005" y1="495.7551" x2="750.4005" y2="886.4554" gradientTransform="matrix(1 0 0 -1 0 1080)">
		<stop  offset="0" style="stop-color:#9774AC"/>
		<stop  offset="0.401" style="stop-color:#47A6D3"/>
		<stop  offset="0.5011" style="stop-color:#A7A7AE"/>
		<stop  offset="0.5908" style="stop-color:#E89AC0"/>
		<stop  offset="1" style="stop-color:#BFE7D1"/>
	</linearGradient>
	<path style="fill:url(#SVGID_2_);" d="M865.1,265c-0.1,0-0.1,0-0.2,0c-57.6-1.8-140.4-57.8-182.5-121.9
		c-6.7,37.8-19.2,84.3-42.9,128l-3.8-2.5v-191H739C866.7,123.2,865.1,265,865.1,265z"/>
	<path style="fill:#EDC16C;" d="M1024,496.4c-5.1,5.9-10.1,12-15.1,18.3L975,492.3c6-7.6,12.1-15,18.2-22.2c7.2-8.5,20-9.5,28.5-2.3
		C1030.2,475.2,1031.2,487.9,1024,496.4z"/>
</g>
<g>
	<path style="fill:#FDC068;" d="M537.7,173c-9.5,54-31.1,125.8-79.8,181.8c-14.9,17.1-23.1,38.6-23.8,60.6l88.1,2.6l0.7,32.1
		l45.6-73.3c-1.6-3.2-2.5-6.8-2.5-10.6c0-12.9,10.5-23.4,23.4-23.4c0.1,0,0.2,0,0.2,0l28.6-46L569,320.7c-1,0.5-2,0.7-3,0.7
		c-2.5,0-5-1.4-6.2-3.9c-1.6-3.4-0.2-7.5,3.2-9.1l49.6-24c3.4-1.6,7.5-0.2,9.1,3.2c0.4,0.8,0.6,1.7,0.7,2.6l13.4-21.5
		c0-1.1,0-2.2,0-3.3C598.1,242.6,561.4,209.1,537.7,173z"/>
	<path style="fill:#FDC068;" d="M434.1,415.4c-0.4,12.6,1.7,25.4,6.5,37.6c9.5,24.4,20.4,53.5,29.8,81.6l52.5-84.5l-0.7-32.1
		L434.1,415.4z"/>
	<path style="fill:#2B2B2B;" d="M566,366.2c0,3.8,0.9,7.4,2.5,10.6l21.1-34c-0.1,0-0.2,0-0.2,0C576.5,342.8,566,353.3,566,366.2z"/>
	<path style="fill:#2B2B2B;" d="M612.6,284.3l-49.6,24c-3.4,1.6-4.8,5.7-3.2,9.1c1.2,2.4,3.6,3.9,6.2,3.9c1,0,2-0.2,3-0.7l49.3-23.8
		l4.2-6.7c-0.1-0.9-0.3-1.7-0.7-2.6C620.1,284.1,616,282.7,612.6,284.3z"/>
	
		<linearGradient id="SVGID_3_" gradientUnits="userSpaceOnUse" x1="472.25" y1="398.5001" x2="472.25" y2="1189.8383" gradientTransform="matrix(1 0 0 -1 0 1392)">
		<stop  offset="0" style="stop-color:#9774AC"/>
		<stop  offset="0.401" style="stop-color:#47A6D3"/>
		<stop  offset="0.5011" style="stop-color:#A7A7AE"/>
		<stop  offset="0.5908" style="stop-color:#E89AC0"/>
		<stop  offset="1" style="stop-color:#BFE7D1"/>
	</linearGradient>
	<path style="fill:url(#SVGID_3_);" d="M545.3,94.6c-122.9-11.3-192.5,45.9-223,114.1c-4.9,11-8.8,22.3-11.7,33.6
		c-0.6,1.5-1.3,3.1-1.9,4.6l3.8,11.3C333.6,163.4,419.5,94,520.1,97c43.4,1.3,83.2,15.9,115.7,39.7c0-2.7,0-5.5,0-8.3
		c-23.2-15.6-52.8-27.4-90.5-32.2C545.3,95.1,545.3,94.6,545.3,94.6z"/>
	<path style="fill:#FDC068;" d="M312.5,258.1L427.8,603l42.6-68.4c-9.4-28.1-20.2-57.1-29.8-81.6c-4.7-12.2-6.8-25-6.5-37.6
		c0.7-22,8.8-43.4,23.8-60.6c48.7-56,70.3-127.8,79.8-181.8c23.7,36.1,60.4,69.6,98.1,92.3c0-55.3,0-86.7,0-128.8
		c-32.5-23.8-72.3-38.4-115.7-39.7C419.5,93.9,333.6,163.4,312.5,258.1z"/>
	
		<linearGradient id="SVGID_4_" gradientUnits="userSpaceOnUse" x1="474.15" y1="398.5001" x2="474.15" y2="1189.8381" gradientTransform="matrix(1 0 0 -1 0 1392)">
		<stop  offset="0" style="stop-color:#9774AC"/>
		<stop  offset="0.401" style="stop-color:#47A6D3"/>
		<stop  offset="0.5011" style="stop-color:#A7A7AE"/>
		<stop  offset="0.5908" style="stop-color:#E89AC0"/>
		<stop  offset="1" style="stop-color:#BFE7D1"/>
	</linearGradient>
	<path style="fill:url(#SVGID_4_);" d="M312.5,258.1L427.8,603l42.6-68.4c-9.4-28.1-20.2-57.1-29.8-81.6c-4.7-12.2-6.8-25-6.5-37.6
		c0.7-22,8.8-43.4,23.8-60.6c48.7-56,70.3-127.8,79.8-181.8c23.7,36.1,60.4,69.6,98.1,92.3c0-55.3,0-86.7,0-128.8
		c-32.5-23.8-72.3-38.4-115.7-39.7C419.5,93.9,333.6,163.4,312.5,258.1z"/>
</g>
<g>
	
		<linearGradient id="SVGID_5_" gradientUnits="userSpaceOnUse" x1="726.0001" y1="702.1031" x2="726.0001" y2="278.1031" gradientTransform="matrix(1 0 0 -1 0 1392)">
		<stop  offset="0" style="stop-color:#9774AC"/>
		<stop  offset="0.401" style="stop-color:#47A6D3"/>
		<stop  offset="0.5011" style="stop-color:#A7A7AE"/>
		<stop  offset="0.5908" style="stop-color:#E89AC0"/>
		<stop  offset="1" style="stop-color:#BFE7D1"/>
	</linearGradient>
	<path style="fill:url(#SVGID_5_);" d="M786.2,724.2c-25.5,18.9-57.3,29.8-91.6,28.8l-28.8-0.9l0,0l0,0l1.2,54.1l1.8,81.9h106.5
		C761.9,836.1,771.3,779.9,786.2,724.2z"/>
	<path style="fill:#2B2B2B;" d="M838.6,480.6c0,9.7,5.9,18.1,14.4,21.6l3.2-44.3C846.1,460.5,838.6,469.7,838.6,480.6z"/>
	<path style="fill:#FDC068;" d="M667.8,842.4L623.9,797c-7.9,30.7-20.9,61-37,91.1h82l-1.8-81.9L667.8,842.4z"/>
	<path style="fill:#FDC068;" d="M841.6,404.3c-48.9-9.3-109.7-49.8-149.6-98.7l-17.5-11.5c-10.3,52.7-32.2,119.4-78,172.1
		c-14.9,17.1-23.1,38.6-23.8,60.5c-0.4,12.7,1.7,25.5,6.5,37.7c23.2,59.5,54.3,146.4,52.8,179.8c-0.1,2.3-0.2,4.5-0.4,6.8l34.2,1.1
		l0,0l28.8,0.9c34.2,1,66.1-9.8,91.6-28.8c34.7-25.8,57.6-66.5,58.9-113l7.9-109c-8.5-3.5-14.4-11.9-14.4-21.6
		c0-10.9,7.5-20.1,17.6-22.7l1.6-22c-0.3,0.4-0.6,0.8-1.1,1.2c-1.3,1.2-2.9,1.7-4.5,1.7c-1.9,0-3.8-0.8-5.1-2.3L831,418.4
		c-2.5-2.8-2.3-7.1,0.6-9.7c2.8-2.5,7.1-2.3,9.7,0.6l16.1,18.1c0.4,0.5,0.7,1,1,1.5l0.6-8.1c0-1.7,0.1-3.3,0.1-5L841.6,404.3z
		 M727.9,501c-12.9,0-23.4-10.5-23.4-23.4s10.5-23.4,23.4-23.4s23.4,10.5,23.4,23.4S740.8,501,727.9,501z M757.2,408.1l-49.7,24
		c-1,0.5-2,0.7-3,0.7c-2.5,0-5-1.4-6.2-3.9c-1.6-3.4-0.2-7.5,3.2-9.1l49.7-24c3.4-1.6,7.5-0.2,9.1,3.2
		C762,402.3,760.6,406.4,757.2,408.1z M801.4,621.7c-0.7,3.2-3.5,5.5-6.7,5.5c-0.5,0-0.9,0-1.4-0.1c-7.4-1.5-14.9-2.1-22.4-1.7
		c-3.8,0.2-7-2.7-7.2-6.5s2.7-7,6.5-7.2c8.6-0.4,17.3,0.2,25.8,1.9C799.8,614.3,802.2,618,801.4,621.7z M830.8,505.6
		c3.8,4.8,5.5,11.1,4.6,17.2c-0.9,6.2-4.1,11.5-9.2,15.2l-0.6,0.4l-19.4,10.8c-1,0.6-2.1,0.8-3.2,0.8c-2.3,0-4.6-1.2-5.8-3.4
		c-1.8-3.2-0.6-7.3,2.6-9.1l19-10.6c1.9-1.5,3.1-3.6,3.5-6c0.4-2.5-0.3-5-1.9-7.1l-28.2-35.7c-2.3-2.9-1.8-7.1,1.1-9.4
		c2.9-2.3,7.1-1.8,9.4,1.1L830.8,505.6z"/>
	<path style="fill:#2B2B2B;" d="M820.4,513.8c1.6,2,2.3,4.5,1.9,7.1c-0.3,2.4-1.6,4.5-3.5,6l-19,10.6c-3.2,1.8-4.4,5.8-2.6,9.1
		c1.2,2.2,3.5,3.4,5.8,3.4c1.1,0,2.2-0.3,3.2-0.8l19.4-10.8l0.6-0.4c5.1-3.6,8.3-9,9.2-15.2c0.9-6.1-0.8-12.4-4.6-17.2l-28.2-35.7
		c-2.3-2.9-6.5-3.4-9.4-1.1s-3.4,6.5-1.1,9.4L820.4,513.8z"/>
	<path style="fill:#2B2B2B;" d="M771,625.3c7.5-0.4,15,0.2,22.4,1.7c0.5,0.1,0.9,0.1,1.4,0.1c3.2,0,6-2.2,6.7-5.5
		c0.8-3.7-1.6-7.3-5.3-8.1c-8.5-1.7-17.2-2.4-25.8-1.9c-3.8,0.2-6.7,3.4-6.5,7.2S767.2,625.5,771,625.3z"/>
	<path style="fill:#2B2B2B;" d="M623.9,797l43.9,45.4l-0.8-36.2l-1.2-54.1l0,0l-34.2-1.1C630.4,766.5,627.8,781.8,623.9,797z"/>
	
		<ellipse transform="matrix(0.9871 -0.1602 0.1602 0.9871 -67.1082 122.7788)" style="fill:#2B2B2B;" cx="727.918" cy="477.593" rx="23.4" ry="23.4"/>
	<path style="fill:#2B2B2B;" d="M704.5,432.7c1,0,2-0.2,3-0.7l49.7-24c3.4-1.6,4.8-5.7,3.2-9.1s-5.7-4.8-9.1-3.2l-49.7,24
		c-3.4,1.6-4.8,5.7-3.2,9.1C699.5,431.3,702,432.7,704.5,432.7z"/>
	<path style="fill:#2B2B2B;" d="M841.2,409.4c-2.5-2.8-6.8-3.1-9.7-0.6c-2.8,2.5-3.1,6.8-0.6,9.7l16.1,18.1c1.4,1.5,3.2,2.3,5.1,2.3
		c1.6,0,3.2-0.6,4.5-1.7c0.4-0.4,0.8-0.8,1.1-1.2c1.4-2.1,1.6-4.7,0.5-7c-0.3-0.5-0.6-1-1-1.5L841.2,409.4z"/>
	<path style="fill:#FDC068;" d="M841.6,404.3L692,305.6C731.9,354.5,792.6,395,841.6,404.3z"/>
	
		<linearGradient id="SVGID_6_" gradientUnits="userSpaceOnUse" x1="766.8" y1="287.1031" x2="766.8" y2="1078.4412" gradientTransform="matrix(1 0 0 -1 0 1392)">
		<stop  offset="0" style="stop-color:#9774AC"/>
		<stop  offset="0.401" style="stop-color:#47A6D3"/>
		<stop  offset="0.5011" style="stop-color:#A7A7AE"/>
		<stop  offset="0.5908" style="stop-color:#E89AC0"/>
		<stop  offset="1" style="stop-color:#BFE7D1"/>
	</linearGradient>
	<path style="fill:url(#SVGID_6_);" d="M841.6,404.3L692,305.6C731.9,354.5,792.6,395,841.6,404.3z"/>
	<path style="fill:#FDC068;" d="M623.9,797l-46.1-47.7l53.8,1.7c0.2-2.3,0.3-4.5,0.4-6.8c1.5-33.4-29.6-120.3-52.8-179.8
		c-4.8-12.2-6.9-25.1-6.5-37.7c0.7-21.9,8.9-43.4,23.8-60.5c45.8-52.7,67.7-119.4,78-172.1l-38.7-25.5L437.9,586.8l-3.7,48l54,253.3
		h98.7C603,858,616,827.7,623.9,797z"/>
	<path style="fill:#2B2B2B;" d="M577.8,749.3l46.1,47.7c3.9-15.2,6.5-30.5,7.7-46L577.8,749.3z"/>
	<path style="fill:#EDC16C;" d="M924.9,599.2c-9.1-6.5-21.7-4.5-28.2,4.6s-4.5,21.7,4.6,28.2c0.2,0.2,19.6,15.6,16.9,53.5l33.7-48
		C942.2,612.1,926.2,600.1,924.9,599.2z"/>
	
		<linearGradient id="SVGID_7_" gradientUnits="userSpaceOnUse" x1="551.15" y1="80.5304" x2="551.15" y2="700.0304" gradientTransform="matrix(1 0 0 -1 0 1080)">
		<stop  offset="0" style="stop-color:#9774AC"/>
		<stop  offset="0.401" style="stop-color:#47A6D3"/>
		<stop  offset="0.5011" style="stop-color:#A7A7AE"/>
		<stop  offset="0.5908" style="stop-color:#E89AC0"/>
		<stop  offset="1" style="stop-color:#BFE7D1"/>
	</linearGradient>
	<path style="fill:url(#SVGID_7_);" d="M579.2,564.4c23.2,59.5,54.3,146.4,52.8,179.8c-0.1,2.3-0.2,4.5-0.4,6.8
		c-1.1,15.5-3.8,30.8-7.7,46c-7.9,30.7-20.9,61-37,91.1h-98.7l-54-253.3l-6.4-29.8l0.5-0.6l-0.5-1.4l10.1-16.2l197.9-318.2
		l38.7,25.5c-10.3,52.7-32.2,119.4-78,172.1c-14.9,17.1-23.1,38.6-23.8,60.5C572.3,539.3,574.4,552.2,579.2,564.4z"/>
</g>
<g>
	<g>
		<g>
			<path style="fill:#CAE6C4;" d="M312.1,375.8c-1.2,2.2-2.8,4.1-4.8,5.8c-0.1,0.1-6,5-14.8,14.2s-20.4,22.7-32,40.1
				c-30.8,45.9-47.1,95.6-48.5,147.8c-0.3,11-9.3,19.7-20.3,19.7h-0.6c-0.4,0-0.8,0-1.2-0.1l0,0c-10.6-0.9-18.8-10-18.6-20.8
				c0.7-26.1,4.8-52,12.1-77.3c9.4-32.4,24.1-63.7,43.7-92.8c0.1-0.2,0.2-0.4,0.4-0.5c16.4-24.2,32.7-41.8,43-51.8l16.4,6.2
				L312.1,375.8z"/>
		</g>
		<g>
			<path style="fill:#CAE6C4;" d="M191.9,624.3c0.6,6.2-1.7,12.1-5.8,16.2c-3.2,3.2-7.6,5.4-12.5,5.9c-0.7,0.1-1.3,0.1-2,0.1
				c-3.4,0-6.6-0.8-9.4-2.3c-5.9-3.1-10.1-9-10.8-16c-4.8-50.8-8-99.7-9.4-146.3c-1.3-41.8-1.2-81.7,0.3-119.6
				c0.2-6,0.5-11.9,0.8-17.6l0,0c0-0.7,0.1-1.4,0.1-2.1l0,0c0.5-10.4,1.2-20.3,1.9-29.8l10.3,3.9l29.3,11.1
				c-0.5,6.9-0.9,14.1-1.2,21.6c-1.4,28.8-2.1,61.3-1.7,97.7c0.2,18.4,0.8,37.9,1.6,58.3c1.3,30.4,3.4,63,6.4,98l0,0
				C190.6,610.2,191.2,617.2,191.9,624.3z"/>
		</g>
		<g>
			<path style="fill:#CAE6C4;" d="M195.4,331.7c-4.5,4.5-8.5,10.4-11.8,17.6c-0.5,1-0.9,2-1.4,3.1c-3.2,7.8-10.8,12.5-18.7,12.5
				c-2.6,0-5.2-0.5-7.8-1.6c-7.8-3.2-12.5-10.8-12.5-18.7l0,0c0-0.7,0-1.4,0.1-2.1l0,0c0.2-1.9,0.7-3.8,1.5-5.6
				c3.2-7.7,6.8-14.4,10.8-20.2l29.3,11.1L195.4,331.7z"/>
		</g>
	</g>
	
		<linearGradient id="SVGID_8_" gradientUnits="userSpaceOnUse" x1="255.15" y1="273.4007" x2="255.15" y2="792.6049" gradientTransform="matrix(1 0 0 -1 0 1080)">
		<stop  offset="0" style="stop-color:#9774AC"/>
		<stop  offset="0.3405" style="stop-color:#47A6D3"/>
		<stop  offset="0.5011" style="stop-color:#A7A7AE"/>
		<stop  offset="0.5908" style="stop-color:#E89AC0"/>
		<stop  offset="1" style="stop-color:#BFE7D1"/>
	</linearGradient>
	<path style="fill:url(#SVGID_8_);" d="M427.8,603l-241.7,37.5l-23.8,3.7l-79.8,12.4C87.8,598,94.1,534,142.1,481.9
		c6.3-6.9,13.4-13.6,21.3-20c6.3-5.1,12.4-10,18.5-14.8c15.7-12.4,30.9-23.7,45.4-34.5c21.4-16,41.4-30.9,59.7-46.2l25.1,9.5
		l45.5,17.2L427.8,603z"/>
	<path style="fill:#FFD8FF;" d="M357.6,393L357.6,393L357.6,393z"/>
</g>
<g>
	<g>
		<g>
			<path style="fill:#CAE6C4;" d="M920.8,813.8c-0.1,0.1-0.1,0.2-0.2,0.3c-0.3,0.4-0.5,0.8-0.8,1.3l0,0c-0.4,0.6-0.8,1.3-1.2,1.9
				c-10.1,16.5-23.3,40.3-36.5,70.7h-44c13.4-33.3,29.1-64.7,46.8-93.3c0.4-0.7,0.9-1.4,1.3-2.2c0,0,0-0.1,0.1-0.1
				c0.1-0.2,0.3-0.4,0.4-0.6c0.1-0.2,0.2-0.3,0.3-0.5c0.2-0.3,0.5-0.6,0.7-0.9c0.2-0.2,0.4-0.5,0.6-0.7c0.3-0.4,0.7-0.7,1-1.1
				c0.2-0.2,0.5-0.5,0.8-0.7c0.1-0.1,0.1-0.1,0.2-0.2c0.3-0.2,0.5-0.4,0.8-0.7c0,0,0,0,0.1-0.1s0.3-0.2,0.4-0.3
				c6.5-4.6,15.3-5.1,22.5-0.6C923.6,792.1,926.5,804.4,920.8,813.8z"/>
		</g>
		<g>
			<g>
				<path style="fill:#EDC16C;" d="M903.5,823.6c-3.7,0-7.4-1-10.7-3.1c-9.5-5.9-12.4-18.4-6.4-27.9c23-36.8,47.6-70.6,73.2-100.6
					c7.2-8.5,20-9.5,28.5-2.3s9.5,20,2.3,28.5c-24.3,28.5-47.7,60.7-69.6,95.8C916.8,820.3,910.2,823.6,903.5,823.6z"/>
			</g>
			<g>
				<path style="fill:#EDC16C;" d="M931.2,764.5c-0.6,13.3-3.1,28.4-8.5,45.2c-0.4,1.2-0.8,2.2-1.4,3.3l0,0c-0.5,0.9-1,1.7-1.5,2.5
					l0,0c-0.9,1.2-1.8,2.2-2.9,3.2l0,0c-3.7,3.2-8.4,5-13.4,5c-2,0-4.1-0.3-6.2-1c-7.4-2.4-12.4-8.5-13.7-15.7l0,0v-0.1
					c-0.1-0.8-0.2-1.6-0.3-2.3l0,0c0-0.1,0-0.2,0-0.3c0-0.3,0-0.5,0-0.8v-0.2c0-0.2,0-0.4,0-0.5s0-0.1,0-0.2c0,0,0-0.1,0-0.2
					c0-0.1,0-0.2,0-0.3c0-0.2,0-0.3,0-0.5c0-0.1,0-0.3,0-0.4c0-0.2,0.1-0.5,0.1-0.8c0.2-1,0.4-2.1,0.7-3.1c0.1-0.3,0.2-0.6,0.3-0.9
					l0,0v-0.1c0.2-0.5,0.3-1,0.5-1.5c9-29.8,6.2-50.4,1-63.5l25.6-36.5c6.2,8.4,12.9,20.4,16.6,36.5
					C930.5,740.9,931.8,751.9,931.2,764.5z"/>
			</g>
			<g>
				<path style="fill:#EDC16C;" d="M903.5,823.6c-6.2,0-12.2-2.8-16.2-8.1c-6.7-9-4.8-21.6,4.1-28.3c75.3-56.2,128.8-19.9,131-18.4
					L999.2,802c0,0,0.1,0.1,0.3,0.2c-1.3-0.9-33.1-20.5-83.9,17.4C912,822.3,907.7,823.6,903.5,823.6z"/>
			</g>
		</g>
	</g>
</g>
<g>
	
		<linearGradient id="SVGID_9_" gradientUnits="userSpaceOnUse" x1="470.6" y1="312.3002" x2="470.6" y2="216.9595" gradientTransform="matrix(1 0 0 -1 0 1080)">
		<stop  offset="0" style="stop-color:#9774AC"/>
		<stop  offset="0.401" style="stop-color:#47A6D3"/>
		<stop  offset="0.5011" style="stop-color:#A7A7AE"/>
		<stop  offset="0.5908" style="stop-color:#E89AC0"/>
		<stop  offset="1" style="stop-color:#BFE7D1"/>
	</linearGradient>
	<polygon style="fill:url(#SVGID_9_);" points="485.4,875.2 488.2,888.1 453,888.1 453.9,873.7 460.4,765.6 460.7,759.4 462,765.4 	
		"/>
	<path style="fill:#F9D5FF;" d="M485.4,875.2l2.8,12.9H140.8c30.6-48.1,78-85.4,136.7-101.3c9.8-2.7,20-4.7,30.5-6.1
		c3.2-0.5,6.6-0.9,9.9-1.2l137.6-13.4l5-0.5l1.7-0.2L485.4,875.2z"/>
	<g>
		<g>
			<path style="fill:#FDC068;" d="M427.8,605l6.7,31.2L429,636c-25.6-0.8-49.3-9-69-22.5l67.9-10.5l0.5,1.4L427.8,605z"/>
		</g>
	</g>
	<path style="fill:#FDC068;" d="M462,765.4l23.4,109.7c-10.1,2.2-20.9,1.9-31.6-1.5c-1.5-0.5-2.9-1-4.4-1.6L403,853.2l-126.8-51.5
		l1.2-15L290,624.4l69.9-10.8l67.9-10.5l0.5,1.4l-0.5,0.6l6.7,31.2l25.7,120.4c0.3-0.6,0.6-1.2,0.9-1.8l-0.3,4.6L462,765.4z"/>
	<g>
		<g>
			
				<linearGradient id="SVGID_10_" gradientUnits="userSpaceOnUse" x1="276.089" y1="32.7137" x2="239.5692" y2="1042.2277" gradientTransform="matrix(1 0 0 -1 0 1080)">
				<stop  offset="0" style="stop-color:#9774AC"/>
				<stop  offset="0.401" style="stop-color:#47A6D3"/>
				<stop  offset="0.5011" style="stop-color:#A7A7AE"/>
				<stop  offset="0.5908" style="stop-color:#E89AC0"/>
				<stop  offset="1" style="stop-color:#BFE7D1"/>
			</linearGradient>
			<path style="fill:url(#SVGID_10_);" d="M434.5,636.2l25.7,120.4c-1.5,3.2-3.1,6.3-4.8,9.5c-14.5,28.2-32,56.2-50.8,84.3
				c-0.5,1-1,1.9-1.5,2.8c-4.3,7.8-9.1,14.6-14.3,20.3c-3.3,4.8-6.6,9.7-10,14.5H75.7V657.6L290,624.4l69.9-10.8l67.9-10.5l0.5,1.4
				l-0.5,0.6L434.5,636.2z"/>
		</g>
	</g>
</g>
<g>
	<g>
		<polygon style="fill:#FFFFFF;" points="357.6,393 75.7,286.4 75.7,77.6 252.1,77.6 		"/>
		<g>
			<g>
				<g>
					<path style="fill:#CAE6C4;" d="M353.3,380.3c-2.2,2.6-4.6,5.5-6.9,8.5l-35.2-13.3l-4.3-1.6c11.8-16.2,23.1-28.9,31.7-37.6
						l4.9,14.6L353.3,380.3z"/>
				</g>
				<g>
					<path style="fill:#CAE6C4;" d="M271.7,180.6L271.7,180.6c0,1.3-0.1,2.5-0.4,3.8c-3.5,18-7.5,42.8-10.7,74.8
						c-1.8,18.2-3.4,38.8-4.6,61.7c-0.5,10.6-1,21.6-1.3,33.2l-40.1-15.2c0.1-1.7,0.1-3.4,0.2-5.1c0.2-6,0.5-11.9,0.8-17.6l0,0
						c0-0.7,0.1-1.4,0.1-2.1c2.7-50,7.5-88.8,12.1-116.7c0.1-0.4,0.1-0.9,0.2-1.3l0,0c1.2-7.2,2.4-13.7,3.5-19.5
						c2.2-11,12.8-18.2,23.8-16c1.8,0.3,3.4,0.9,5,1.7C267.2,165.6,271.8,172.8,271.7,180.6z"/>
				</g>
				<g>
					<path style="fill:#EDC16C;" d="M280.5,162.4c-3.5,5.8-6.6,12-8.8,18.2l0,0c-2,5.7-3.2,11.5-3.2,17.1l0,0c0,0.3,0,0.7,0,1
						c-0.1,1.1-0.2,2.2-0.4,3.3c0,0.2-0.1,0.4-0.1,0.5v0.1c0,0.2-0.1,0.4-0.2,0.6c-0.1,0.2-0.1,0.5-0.2,0.7
						c-0.1,0.3-0.2,0.6-0.3,0.8c-0.1,0.3-0.2,0.6-0.3,0.8c-0.2,0.6-0.5,1.1-0.8,1.7c-0.1,0.1-0.1,0.3-0.2,0.4
						c-0.6,1-1.2,1.9-1.9,2.8c-0.2,0.2-0.4,0.5-0.6,0.7s-0.4,0.5-0.7,0.7c-0.2,0.2-0.4,0.4-0.6,0.6c-0.3,0.2-0.5,0.5-0.8,0.7
						c-0.2,0.2-0.5,0.4-0.7,0.6l-0.1,0.1c-0.2,0.1-0.3,0.2-0.5,0.4l0,0c-0.2,0.1-0.3,0.2-0.5,0.3l-0.1,0.1c-0.2,0.1-0.4,0.2-0.6,0.3
						s-0.4,0.2-0.6,0.4c-0.3,0.2-0.6,0.3-0.9,0.5c-0.2,0.1-0.4,0.2-0.6,0.3c-0.4,0.2-0.8,0.3-1.2,0.5c-0.1,0-0.2,0.1-0.4,0.1
						c-0.1,0-0.2,0.1-0.4,0.1c-0.3,0.1-0.7,0.2-1.1,0.3c-0.3,0.1-0.6,0.1-0.9,0.2c-0.1,0-0.1,0-0.2,0.1c-0.6,0.1-1.2,0.2-1.9,0.3
						c-0.3,0-0.6,0.1-0.9,0.1c-0.1,0-0.3,0-0.4,0c-0.3,0-0.6,0-0.9,0c-0.3,0-0.7,0-1,0c-0.1,0-0.1,0-0.2,0c-0.2,0-0.5,0-0.7,0
						c-0.8-0.1-1.6-0.2-2.4-0.4c-0.2-0.1-0.5-0.1-0.7-0.2c-0.5-0.1-1-0.3-1.5-0.5s-1-0.3-1.5-0.6c-0.6-0.2-1.1-0.5-1.7-0.8
						c-0.3-0.1-0.6-0.3-0.8-0.5h-0.1c-0.5-0.3-1-0.7-1.5-1c0,0,0,0-0.1,0c-0.5-0.4-1-0.8-1.5-1.2c-0.2-0.2-0.5-0.4-0.7-0.7
						c-0.2-0.2-0.5-0.5-0.7-0.7s-0.4-0.5-0.6-0.7c-0.2-0.2-0.4-0.5-0.6-0.7l-0.1-0.1c-0.2-0.2-0.3-0.4-0.5-0.7c0,0,0,0-0.1-0.1
						c-0.1-0.2-0.2-0.3-0.3-0.5c-0.2-0.4-0.5-0.7-0.7-1.1c-0.2-0.3-0.3-0.6-0.5-0.9c-0.1-0.2-0.2-0.4-0.3-0.6v-0.1
						c-0.1-0.2-0.2-0.5-0.3-0.7c-0.2-0.4-0.3-0.8-0.4-1.2c-0.1-0.1-0.1-0.3-0.1-0.5c-0.2-0.5-0.3-1-0.4-1.5l0,0
						c-0.1-0.6-0.2-1.2-0.3-1.9c0-0.1,0-0.2,0-0.3c-0.1-0.6-0.1-1.3-0.1-1.9c0-0.5,0-1.1,0-1.6l0,0c0.4-18.3,7.1-37.9,20.1-58.2
						c1.4-2.2,2.9-4.5,4.5-6.7c4.2-6,8.4-11.3,12.1-15.6L280.5,162.4z"/>
				</g>
				<g>
					<path style="fill:#CAE6C4;" d="M235.9,336.5c-2.6,0-5.2-0.5-7.8-1.6c-10.3-4.3-15.2-16.2-10.9-26.5
						c15.1-36.3,39.5-49.7,57.3-54.5c19.3-5.2,35-1.5,36.8-1l-10,39.3l0.3,0.1c-0.1,0-8.3-1.8-17.9,1.2
						c-12.4,3.9-22.2,14.1-28.9,30.4C251.4,331.8,243.8,336.5,235.9,336.5z"/>
				</g>
			</g>
			
				<linearGradient id="SVGID_11_" gradientUnits="userSpaceOnUse" x1="334.4" y1="615.2221" x2="334.4" y2="736.7859" gradientTransform="matrix(1 0 0 -1 0 1080)">
				<stop  offset="0" style="stop-color:#9774AC"/>
				<stop  offset="0.401" style="stop-color:#47A6D3"/>
				<stop  offset="0.5011" style="stop-color:#A7A7AE"/>
				<stop  offset="0.5908" style="stop-color:#E89AC0"/>
				<stop  offset="1" style="stop-color:#BFE7D1"/>
			</linearGradient>
			<path style="fill:url(#SVGID_11_);" d="M353.3,380.3l4.3,12.7l-11.2-4.2l-35.2-13.3c11.2-8.4,22-16.5,32.3-24.6L353.3,380.3z"/>
		</g>
	</g>
	<path style="fill:#EDC16C;" d="M268.3,195.5c-6.4-58.5-49.5-92.3-51.4-93.7l0,0c-8.8-6.8-21.4-5.2-28.3,3.6
		c-6.9,8.8-5.3,21.5,3.5,28.4c0,0,0,0,0.1,0.1l0,0l-0.1-0.1c0.3,0.2,31.5,25.2,35.9,66.1c1.1,10.4,9.9,18,20.1,18
		c0.7,0,1.5,0,2.2-0.1C261.5,216.6,269.5,206.6,268.3,195.5z"/>
</g>
<g>
	<polygon style="fill:#FDC068;" points="728.3,77.6 635.8,204.6 635.8,77.6 	"/>
	
		<linearGradient id="SVGID_12_" gradientUnits="userSpaceOnUse" x1="663.45" y1="722.2735" x2="663.45" y2="1042.6796" gradientTransform="matrix(1 0 0 -1 0 1080)">
		<stop  offset="0" style="stop-color:#9774AC"/>
		<stop  offset="0.401" style="stop-color:#47A6D3"/>
		<stop  offset="0.5011" style="stop-color:#A7A7AE"/>
		<stop  offset="0.5908" style="stop-color:#E89AC0"/>
		<stop  offset="0.9024" style="stop-color:#BFE7D1"/>
	</linearGradient>
	<path style="fill:url(#SVGID_12_);" d="M691.1,77.6c-12.1,26.9-27.8,53.5-48.5,77.3c-2.4,2.8-4.7,5.8-6.8,8.8V77.6H691.1z"/>
</g>
<g>
	
		<linearGradient id="SVGID_13_" gradientUnits="userSpaceOnUse" x1="438.1" y1="462.0295" x2="438.1" y2="306.486" gradientTransform="matrix(1 0 0 -1 0 1080)">
		<stop  offset="0" style="stop-color:#9774AC"/>
		<stop  offset="0.401" style="stop-color:#47A6D3"/>
		<stop  offset="0.5011" style="stop-color:#A7A7AE"/>
		<stop  offset="0.5908" style="stop-color:#E89AC0"/>
		<stop  offset="1" style="stop-color:#BFE7D1"/>
	</linearGradient>
	<polygon style="fill:url(#SVGID_13_);" points="472.5,814.4 470.6,811.8 404.9,723.3 403.7,721.7 409,633.9 410.5,608.8 
		410.5,608.8 410.6,606.9 428.3,604.4 429.4,609.4 429.4,609.5 434.6,634.4 441.6,667.7 471.5,809.7 	"/>
	<g>
		<g>
			<polygon style="fill:#FDC068;" points="428.3,604.4 429.4,609.4 410.5,608.8 399.2,608.5 410.6,606.9 			"/>
		</g>
	</g>
	<path style="fill:#FDC068;" d="M471.5,809.7c-0.3,0.7-0.6,1.4-0.9,2.1L327.1,618.6l101.2-14.2L471.5,809.7z"/>
	<polygon style="fill:#2B2B2B;" points="441.6,667.7 430,655.7 429.4,609.5 434.6,634.4 	"/>
	
		<linearGradient id="SVGID_14_" gradientUnits="userSpaceOnUse" x1="380.8" y1="310.4285" x2="380.8" y2="640.8661" gradientTransform="matrix(1 0 0 -1 0 1080)">
		<stop  offset="0" style="stop-color:#9774AC"/>
		<stop  offset="0.401" style="stop-color:#47A6D3"/>
		<stop  offset="0.5011" style="stop-color:#A7A7AE"/>
		<stop  offset="0.5908" style="stop-color:#E89AC0"/>
		<stop  offset="1" style="stop-color:#BFE7D1"/>
	</linearGradient>
	<path style="fill:url(#SVGID_14_);" d="M434.6,634.4c-1.2,7.1-2.8,14.2-4.6,21.3c-5.8,22.8-14.5,45.3-25.2,67.6L327,618.6
		l101.2-14.2L434.6,634.4z"/>
</g>
<g>
	<g>
		<g>
			<path style="fill:#FFD8FF;" d="M76.2,661.1l-1-6.9l348.5-52.6L248.8,78.7l6.6-2.2l176.2,526.8c0.3,1,0.2,2.1-0.3,2.9
				s-1.4,1.5-2.5,1.6L76.2,661.1z"/>
		</g>
		<g>
			<path style="fill:#FFD8FF;" d="M484.8,888.8l-59.9-283.7c-0.2-0.9,0-1.8,0.4-2.6l207-335v-190h7v191c0,0.6-0.2,1.3-0.5,1.8
				L432,605l59.6,282.3L484.8,888.8z"/>
		</g>
		<g>
			<path style="fill:#FFD8FF;" d="M778.9,890.1l-5.7-4l251.7-356.8l-391-257.7l3.9-5.8l394,259.7c0.8,0.5,1.3,1.3,1.5,2.3
				c0.2,0.9,0,1.9-0.6,2.7L778.9,890.1z"/>
		</g>
		<g>
			
				<rect x="603.475" y="137.612" transform="matrix(0.5887 -0.8083 0.8083 0.5887 166.433 609.3374)" style="fill:#FFD8FF;" width="157.093" height="7"/>
		</g>
		<g>
			
				<rect x="397.259" y="594.777" transform="matrix(0.8098 -0.5868 0.5868 0.8098 -346.309 372.1544)" style="fill:#FFD8FF;" width="7" height="250.714"/>
		</g>
		<g>
			
				<rect x="948.183" y="353.339" transform="matrix(0.0576 -0.9983 0.9983 0.0576 466.9734 1355.8766)" style="fill:#FFD8FF;" width="7" height="154.494"/>
		</g>
		<g>
			
				<rect x="213.181" y="188.937" transform="matrix(0.3537 -0.9354 0.9354 0.3537 -177.6455 422.1917)" style="fill:#FFD8FF;" width="7" height="301.412"/>
		</g>
	</g>
</g>
</svg>
