<?xml version="1.0" encoding="utf-8"?>
<!-- Generator: Adobe Illustrator 22.0.1, SVG Export Plug-In . SVG Version: 6.00 Build 0)  -->
<svg version="1.1" id="Layer_1" xmlns="http://www.w3.org/2000/svg" xmlns:xlink="http://www.w3.org/1999/xlink" x="0px" y="0px" viewBox="0 0 800 781.5" style="enable-background:new 0 0 800 781.5;" xml:space="preserve">

<title>source_final_all</title>
<g>
	<rect x="1.8" y="-0.1" width="800" height="781.5" style="fill:#FFFFFF;"/>
	<g style="opacity:0.3;">
		<path d="M743.5,58.4v582h-686v-582H743.5 M745.6,56.1H55.3v586.5h690.4L745.6,56.1L745.6,56.1z" style="fill:#C4ECFE;"/>
		<line x1="55.3" y1="473" x2="745.6" y2="473" style="fill:none;stroke:#C4ECFE;stroke-width:2.91;stroke-miterlimit:10;"/>
		<line x1="55.3" y1="389" x2="745.6" y2="389" style="fill:none;stroke:#C4ECFE;stroke-width:2.91;stroke-miterlimit:10;"/>
		<line x1="55.3" y1="473" x2="745.6" y2="473" style="fill:none;stroke:#C4ECFE;stroke-width:2.91;stroke-miterlimit:10;"/>
		<line x1="55.3" y1="556.9" x2="745.6" y2="556.9" style="fill:none;stroke:#C4ECFE;stroke-width:2.91;stroke-miterlimit:10;"/>
		<line x1="55.3" y1="305" x2="745.6" y2="305" style="fill:none;stroke:#C4ECFE;stroke-width:2.91;stroke-miterlimit:10;"/>
		<line x1="55.3" y1="221" x2="745.6" y2="221" style="fill:none;stroke:#C4ECFE;stroke-width:2.91;stroke-miterlimit:10;"/>
		<line x1="55.3" y1="137.1" x2="745.6" y2="137.1" style="fill:none;stroke:#C4ECFE;stroke-width:2.91;stroke-miterlimit:10;"/>
	</g>
	
		<linearGradient id="SVGID_1_" gradientUnits="userSpaceOnUse" x1="-149.4625" y1="1715.0275" x2="-377.4581" y2="1994.8394" gradientTransform="matrix(1 0 0 1 536.47 -1354)">
		<stop offset="0" style="stop-color:#FFD8A1"/>
		<stop offset="1" style="stop-color:#FFFFFF"/>
	</linearGradient>
	<path d="M538.8,642.6c-73.7-4.8-97.7-105.4-140.6-145.2s-135.7-11.4-155.8-119.8c-13.5-72.4-73.7-75.6-124-102.2
		c-27.4-14.5-60.5,5.4-60.5,36.4v330.8H538.8z" style="fill:url(#SVGID_1_);"/>
	
		<linearGradient id="SVGID_2_" gradientUnits="userSpaceOnUse" x1="-2616.3452" y1="1842.8002" x2="-2616.3452" y2="1990.4413" gradientTransform="matrix(-1 0 0 1 -1997.36 -1354)">
		<stop offset="0" style="stop-color:#C0DDFC"/>
		<stop offset="0.19" style="stop-color:#D3E7FD"/>
		<stop offset="0.49" style="stop-color:#EBF4FE"/>
		<stop offset="0.77" style="stop-color:#FAFCFF"/>
		<stop offset="1" style="stop-color:#FFFFFF"/>
	</linearGradient>
	<path d="M492.3,642.6c72.1,0,69.8-109.4,132.6-123.9c25-5.8,38.7-24.3,50.3-44.4c19.3-33.5,70.5-20,70.5,18.7v149.6
		L492.3,642.6L492.3,642.6z" style="fill:url(#SVGID_2_);"/>
	<rect x="562.1" y="639.4" width="183.6" height="3.2" style="fill:#2B2B2B;"/>
	
		<linearGradient id="SVGID_3_" gradientUnits="userSpaceOnUse" x1="572.796" y1="1555.4774" x2="572.796" y2="1679.0881" gradientTransform="matrix(1 0 0 1 0 -1354)">
		<stop offset="0" style="stop-color:#F48B94"/>
		<stop offset="0.41" style="stop-color:#F4A9A6"/>
		<stop offset="0.5" style="stop-color:#FED3B5"/>
		<stop offset="0.6" style="stop-color:#DBECC2"/>
		<stop offset="1" style="stop-color:#ADDCC8"/>
	</linearGradient>
	<path d="M636.6,236.9l-78.3,26.7l-2.5,0.8c-9.2,3.1-19.3,0.1-25.3-7.5l-27.8-34.5l-12.2-15.2l17.1-18.1l11.3-11.9
		l36.2,31.3l64.3-21.9c13.8-4.9,29,2.3,33.9,16.1s-2.3,29-16.1,33.9C637.1,236.7,636.9,236.8,636.6,236.9L636.6,236.9z" style="fill:url(#SVGID_3_);"/>
	<path d="M519,177.2l-11.3,11.9l-17.1,18.1l-11.1-13.7c-6.5-8.4-4.9-20.5,3.5-27c7.1-5.5,17.1-5.4,24,0.4l0.6,0.5
		L519,177.2z" style="fill:#FDC068;"/>
	
		<linearGradient id="SVGID_4_" gradientUnits="userSpaceOnUse" x1="643.8157" y1="1538.4875" x2="643.8157" y2="1728.5527" gradientTransform="matrix(1 0 0 1 0 -1354)">
		<stop offset="0" style="stop-color:#F48B94"/>
		<stop offset="0.41" style="stop-color:#F4A9A6"/>
		<stop offset="0.5" style="stop-color:#FED3B5"/>
		<stop offset="0.6" style="stop-color:#DBECC2"/>
		<stop offset="1" style="stop-color:#ADDCC8"/>
	</linearGradient>
	<path d="M594.3,266.6c2.4-26.8,20.6-24,15.2-42.5s4.8-43.1,25.5-41.3c15.8,1.4,17,0.9,23.7,1.4
		c16.3,1.4,33.8,15.1,34.5,30.4c0.6,13.1-10.1,53-10.6,59.3L594.3,266.6z" style="fill:url(#SVGID_4_);"/>
	
		<linearGradient id="_Path__1_" gradientUnits="userSpaceOnUse" x1="620.6961" y1="1981.6351" x2="620.6961" y2="1630.926" gradientTransform="matrix(1 0 0 1 0 -1354)">
		<stop offset="0" style="stop-color:#EA979A"/>
		<stop offset="0.41" style="stop-color:#F2D38B"/>
		<stop offset="0.5" style="stop-color:#7E9DAE"/>
		<stop offset="0.6" style="stop-color:#90979D"/>
		<stop offset="1" style="stop-color:#7EBDDB"/>
	</linearGradient>
	<path id="_Path_" d="M670,290.9c-13.5,109.8-43.1,333.2-43.1,333.2l-52.1,0.7c-5.6-59.8-3.6-130.8,0.4-190.7
		c0.9-13.5,19.1-167.4,19.1-167.4L670,290.9z" style="fill:url(#_Path__1_);"/>
	<path d="M627,342.7c3.5,22.9,6.4,57.9-2.7,78.8c-8.6,19.6,11.7,37,4.6,58.7c-7.2,21.7,9.8,58,7.6,75l16.4-123.7
		L627,342.7z" style="fill:#2B2B2B;"/>
	
		<linearGradient id="_Path_2_1_" gradientUnits="userSpaceOnUse" x1="667.5017" y1="1987.12" x2="667.5017" y2="1631.078" gradientTransform="matrix(1 0 0 1 0 -1354)">
		<stop offset="0" style="stop-color:#EA979A"/>
		<stop offset="0.41" style="stop-color:#F2D38B"/>
		<stop offset="0.5" style="stop-color:#7E9DAE"/>
		<stop offset="0.6" style="stop-color:#90979D"/>
		<stop offset="1" style="stop-color:#7EBDDB"/>
	</linearGradient>
	<path id="_Path_2" d="M701.1,415.1L687,273.8l-92.5-8.8c-0.9,11.1,7.3,25.4,20.5,33.1c0,0,7.9,81.9,27.2,146.4
		c24.8,82.6,52.4,172.4,51.9,172.7l46.5-23.6L701.1,415.1z" style="fill:url(#_Path_2_1_);"/>
	<circle cx="670" cy="92.4" r="23.1" style="fill:#FFEAE0;"/>
	<circle cx="648" cy="112.6" r="19.5" style="fill:#2B2B2B;"/>
	<path d="M665.3,123l-1,28.1l0,0c-0.4,9.6-8.4,17.1-18,16.8l-18.6-0.7c-10.9-0.4-19.5-9.6-19-20.5l0.5-14.5l0.2-6.2
		l0.1-5c0.5-15.1,13-26.9,27.9-26.9c0.4,0,0.7,0,1,0C653.8,94.7,665.9,107.6,665.3,123z" style="fill:#FDC068;"/>
	<path d="M627.8,167.2l18.6,0.7c9.6,0.4,17.7-7.2,18-16.8l0,0l1-28.1c0.5-15.4-11.5-28.3-26.9-28.9l0,0
		c-15.4-0.5-28.3,11.5-28.9,26.9l-0.9,25.7C608.3,157.6,616.9,166.8,627.8,167.2L627.8,167.2z" style="fill:none;"/>
	<g>
		<path d="M611.9,129.1c0,1.6-1.2,2.9-2.6,3.1l0.2-6.2C610.8,126.4,611.9,127.6,611.9,129.1z" style="fill:#2B2B2B;"/>
	</g>
	<path d="M655.9,194.7l20.3-4.6c0,0-9.6-6.1-17.4-5.9L655.9,194.7z" style="fill:#2B2B2B;"/>
	<path d="M641.3,199.5l22.2-7.3c1.2-0.4,2-1.5,2-2.7l-0.7-51l-29.7-1l-4.7,53.5c-0.4,4.6,3,8.5,7.5,8.9
		C639.1,200,640.2,199.8,641.3,199.5z" style="fill:#FDC068;"/>
	<g>
		<path d="M616.1,139c-0.1,0-0.4-0.1-0.5-0.1l-2.7-1.7c-1.2-1.2-1.4-3-0.2-4.3l4.1-4.6c0.4-0.4,0.9-0.4,1.3-0.1
			c0.4,0.4,0.4,0.9,0.1,1.3L614,134c-0.4,0.5-0.4,1.3,0.1,1.8l2.5,1.6c0.4,0.3,0.5,0.8,0.3,1.2C616.6,138.8,616.3,139,616.1,139z" style="fill:#2B2B2B;"/>
	</g>
	<g>
		<path d="M618.8,149.4c-0.3,0-0.7,0-0.9-0.1c-2.5-0.5-3.8-2.8-3.8-2.9c-0.2-0.4-0.1-1,0.4-1.2c0.4-0.2,1-0.1,1.2,0.4
			l0,0c0,0,0.9,1.7,2.6,2c1.2,0.2,2.6-0.3,4.1-1.5c0.4-0.3,0.9-0.3,1.3,0.1c0.3,0.4,0.3,0.9-0.1,1.3
			C621.8,148.7,620.3,149.4,618.8,149.4z" style="fill:#2B2B2B;"/>
	</g>
	<polygon points="632.6,167.3 644.6,167.8 631.5,179.4 	" style="fill:#2B2B2B;"/>
	<circle cx="626.8" cy="129.9" r="3.2" style="fill:#2B2B2B;"/>
	<path d="M536.4,642.6l82.4-0.4c4.3,0,7.8-3.5,7.9-7.8l0.2-10.4l-52.1,0.7l-39.4,9.9
		C530.8,635.8,531.7,642.6,536.4,642.6z" style="fill:#2B2B2B;"/>
	<path d="M665.6,642.6l17.4-0.1l58.2-28.9c3.8-2,5.5-6.6,3.7-10.5l-4.4-9.5l-46.5,23.6l-14.1,13.6l-15.3,3.8
		C660,635.8,660.8,642.6,665.6,642.6z" style="fill:#2B2B2B;"/>
	<path d="M707.3,392.4l-2.1,14c-1.6,10.5-11.3,17.7-21.8,16.1c-9.4-1.4-16.4-9.5-16.4-19v-18.7L707.3,392.4z" style="fill:#FDC068;"/>
	<polygon points="594.5,265 674.1,272.5 677.5,281.7 593.6,271.6 	" style="fill:#FFFFFF;"/>
	
		<linearGradient id="SVGID_5_" gradientUnits="userSpaceOnUse" x1="681.7659" y1="1543.3138" x2="681.7659" y2="1734.8479" gradientTransform="matrix(1 0 0 1 0 -1354)">
		<stop offset="0" style="stop-color:#F48B94"/>
		<stop offset="0.41" style="stop-color:#F4A9A6"/>
		<stop offset="0.5" style="stop-color:#FED3B5"/>
		<stop offset="0.6" style="stop-color:#DBECC2"/>
		<stop offset="1" style="stop-color:#ADDCC8"/>
	</linearGradient>
	<path d="M667.1,384.8l-0.1-75.3L644.4,227c-4.1-14.1,4.1-28.8,18.2-32.9s28.8,4.1,32.9,18.2c0.1,0.2,0.1,0.5,0.2,0.7
		l23.4,85.9l0.4,1.6c0.7,2.4,0.8,4.9,0.4,7.4l-12.7,84.6L667.1,384.8z" style="fill:url(#SVGID_5_);"/>
	<path d="M609.6,121l10.5-11.6l6.2,5.6c5.2,4.8,9,11,10.9,17.9c2.1,7.5,4.6,16.5,4.7,16.9c5.1,14.3,13.3,19,25.8,19
		h6.4l-8.5-47.8c0-15.1-12.9-27.2-27.9-27.2h-0.9C621.8,93.8,609.6,106,609.6,121L609.6,121z" style="fill:#FFEAE0;"/>
	<g>
		<path d="M631,405.4c-0.4,0-0.8-0.3-0.9-0.7c-3.9-17.4-7.9-43.1-10.5-61.5c-0.1-0.5,0.3-0.9,0.8-1
			c0.5-0.1,0.9,0.3,1,0.8c2.6,18.5,6.5,44.1,10.4,61.4c0.1,0.5-0.2,0.9-0.7,1.1C631.2,405.4,631.1,405.4,631,405.4z" style="fill:#2B2B2B;"/>
	</g>
	<g>
		<path d="M655.9,271.2c-0.4,0-0.7-0.3-0.9-0.7l-6.2-22.7c-0.1-0.5,0.1-0.9,0.7-1.1c0.5-0.1,0.9,0.1,1.1,0.7l6.2,22.7
			c0.1,0.5-0.1,0.9-0.7,1.1C656,271.2,655.9,271.2,655.9,271.2z" style="fill:#2B2B2B;"/>
	</g>
	<g>
		<path d="M599.4,250.5c-0.1,0-0.2,0-0.4-0.1c-0.4-0.1-0.7-0.7-0.5-1.2c1.6-4.1,3.7-6.7,5.6-8.9
			c3.1-3.8,5.6-6.7,4.6-14.5c-0.1-0.5,0.3-0.9,0.8-1c0.5-0.1,0.9,0.3,1,0.8c1.2,8.5-1.8,12.1-4.9,15.9c-1.9,2.3-3.8,4.7-5.3,8.4
			C600.1,250.3,599.8,250.5,599.4,250.5z" style="fill:#2B2B2B;"/>
	</g>
	<g>
		<path d="M560.9,215.7c-0.2,0-0.5-0.1-0.7-0.3l-5.7-6.4c-0.4-0.4-0.3-0.9,0.1-1.3c0.4-0.4,0.9-0.3,1.3,0.1l5.7,6.4
			c0.4,0.4,0.3,0.9-0.1,1.3C561.4,215.7,561.1,215.7,560.9,215.7z" style="fill:#2B2B2B;"/>
	</g>
	<g>
		<path d="M671.9,325c-0.4,0-0.7-0.2-0.9-0.6l-4.9-14.5c-0.1-0.5,0.1-1,0.6-1.2s1,0.1,1.2,0.6l4.9,14.5
			c0.1,0.5-0.1,1-0.6,1.2C672.1,325,672,325,671.9,325z" style="fill:#2B2B2B;"/>
	</g>
	<path d="M500.9,163.4c-10.1-3.3-21,2.1-24.3,12.2c-2,6.1-0.9,12.8,3.1,17.9l11.1,13.7l12.2,15.2c3-1.7,4.8-4.8,4.8-8.3
		v-39.5C503.9,172,501.4,167.9,500.9,163.4z" style="fill:#2B2B2B;"/>
	<path d="M383.6,55.4h105.6c6.4,0,11.6,5.2,11.6,11.6v142c0,6.4-5.2,11.6-11.6,11.6H383.6c-6.4,0-11.6-5.2-11.6-11.6
		V67C372.1,60.6,377.3,55.4,383.6,55.4z" style="fill:#F9D5FF;"/>
	<rect x="383" y="68.6" width="113.7" height="130.6" style="fill:#FFFFFF;"/>
	<circle cx="441.7" cy="209.5" r="5.2" style="fill:#FFFFFF;"/>
	<path d="M456.4,82.2c0,10.6-8.6,19.2-19.3,19.2s-19.2-8.6-19.2-19.3c0-5.1,2-10.1,5.7-13.7h27.2
		C454.3,72.2,456.4,77.1,456.4,82.2z" style="fill:#EA7068;"/>
	<circle cx="437.1" cy="105.4" r="19.3" style="fill:#2B2B2B;"/>
	<path d="M496.7,161.8v37.4H383v-41.1c10.4-4.3,12.1-8.5,17.4-15.9c0.1-0.8,0.4-1.6,0.5-2.3c0.7-3.2,1.6-6.1,2.5-8.8
		c1.1-3.3,2.4-6.4,3.9-9.4c0.8-1.5,1.6-3,2.4-4.3c2.2-3.7,5-7.1,8.1-10.1c3.3-3.2,7.2-5.6,11.6-7.2c1.2-0.4,2.4-0.7,3.6-0.9
		c0,0,3.5-0.1,8.6,1.9c5.3,2.2,10.1,5.4,14,9.6c3.6,3.8,6.7,8,9.3,12.6c0.1,0.2,0.3,0.5,0.4,0.7c0.2,0.3,0.4,0.7,0.5,0.9
		C474.8,150.9,495.4,159.8,496.7,161.8z" style="fill:#EA7068;"/>
	<circle cx="464" cy="140.1" r="10.8" style="fill:#FDC068;"/>
	
		<linearGradient id="SVGID_6_" gradientUnits="userSpaceOnUse" x1="434.7595" y1="1566.5194" x2="434.7595" y2="1545.1229" gradientTransform="matrix(1 0 0 1 0 -1354)">
		<stop offset="0" style="stop-color:#6B9C83"/>
		<stop offset="0.4" style="stop-color:#A6A6A4"/>
		<stop offset="0.5" style="stop-color:#9F9FC8"/>
		<stop offset="0.59" style="stop-color:#9FCCEC"/>
		<stop offset="1" style="stop-color:#FFE7B0"/>
	</linearGradient>
	<path d="M470.3,199.2h-71.1c2.2-1.7,4.6-3.2,7.1-4.5l0,0l0.1-0.1c4.1-2,8.3-3.3,12.8-4c1.2-0.2,2.5-0.3,3.8-0.4
		c1.3-0.1,2.5-0.1,3.9,0l21.1,1.4c1.9,0.1,3.7,0.3,5.5,0.6C459.5,193.3,465.3,195.7,470.3,199.2z" style="fill:url(#SVGID_6_);"/>
	<polygon points="453.5,194.1 452.4,199.2 420.3,199.2 418.9,193.2 418.9,193 419,193 426.5,193.2 	" style="fill:#FFFFFF;"/>
	<circle cx="411.6" cy="138.1" r="10.8" style="fill:#FDC068;"/>
	<path d="M426.9,190.3l-0.4,3l-0.7,5.9H413l-6.7-4.5l0.1-0.1c0.7-0.4,5.3-3,12.8-4c1.2-0.1,2.5-0.3,3.8-0.4
		C424.4,190.2,425.5,190.2,426.9,190.3z" style="fill:#2B2B2B;"/>
	<path d="M453.5,194.1c0,1.7-0.2,3.4-0.7,5.1h-33.1c-0.6-2-0.8-4-0.7-6c0-0.1,0-0.1,0-0.2l0.1-2.3l0,0l1.5-23.1
		l1.7-25.3l14,0.5l16.6,0.6l0.2,22.7v1.8l0.1,10l0,0l0.1,14.5L453.5,194.1z" style="fill:#FDC068;"/>
	<polygon points="426.9,171.2 453.2,186.1 453.5,166 	" style="fill:#2B2B2B;"/>
	<path id="_Path_3" d="M437.2,173.3L437.2,173.3c13.5,0,24.7-10.2,26.2-23.6l2.5-23.4c0-15.9-13-28.8-28.8-28.7l0,0l0,0
		c-15.9,0-28.8,13-28.7,28.8l0,0l2.6,23.4C412.4,163.1,423.7,173.3,437.2,173.3z" style="fill:#FDC068;"/>
	<g>
		<path d="M436.3,143.6c-0.4,0-0.7-0.1-0.8-0.5c-0.2-0.4-0.1-1,0.4-1.2l2.7-1.4c0.6-0.4,0.7-1.2,0.3-1.8
			c-1.7-2.2-2.5-4.8-2.2-7.5l0.1-0.8c0.1-0.5,0.5-0.9,1-0.8s0.9,0.5,0.8,1l-0.1,0.8c-0.2,2.2,0.4,4.5,1.8,6.2l0.1,0.1
			c1,1.4,0.7,3.4-0.8,4.3l-0.1,0.1l-2.7,1.4C436.6,143.6,436.5,143.6,436.3,143.6z" style="fill:#2B2B2B;"/>
	</g>
	<path d="M441.7,151.3c-0.7,7.3-8.8,5.3-8.8,0H441.7z" style="fill:#FFFFFF;"/>
	<circle cx="450.4" cy="132.9" r="2.9" style="fill:#2B2B2B;"/>
	<circle cx="425.3" cy="132.9" r="3" style="fill:#2B2B2B;"/>
	<path d="M407.3,123.1h60.3l0,0c0-16.6-13.5-30.1-30.1-30.1l0,0l0,0C420.8,93,407.3,106.5,407.3,123.1L407.3,123.1z" style="fill:#EA7068;"/>
	<path d="M511.6,170.7l-9.4-8c-2.8-2.4-7.1-2.1-9.6,0.7l0,0c-2.7,2.9-2.6,7.4,0.2,10.1l15.3,14.8L511.6,170.7z" style="fill:#FDC068;"/>
	<circle cx="331.1" cy="413.1" r="3" style="fill:#BFD9FF;"/>
	<circle cx="541.3" cy="488.2" r="3" style="fill:#BFD9FF;"/>
	<circle cx="555.2" cy="85.1" r="3" style="fill:#BFD9FF;"/>
	<circle cx="720.2" cy="167.3" r="3" style="fill:#BFD9FF;"/>
	<circle cx="104.7" cy="116.7" r="3" style="fill:#BFD9FF;"/>
	<circle cx="372.1" cy="260.6" r="2.7" style="fill:#BFD9FF;"/>
	<path d="M456.4,515.1c-15.3,26.7,24.2,54.8-2,69.3c-18.7,10.3-36.5,29-58.2,26.6c-21.7-2.5-17.4-54.1-17.4-54.1
		l53.8-54.7L456.4,515.1z" style="fill:#2B2B2B;"/>
	<rect x="55.3" y="639.4" width="203.2" height="3.2" style="fill:#2B2B2B;"/>
	<path d="M247.6,423.5c-0.8-2.8-0.8-5.9-0.1-8.7l0,0c1.2-4.6-1.6-9.4-6.2-10.6l-88.4-24.1c-5.1-1.4-8,5.6-3.3,8.2
		l39.5,22l3.5,20.6l58.3,4.6L247.6,423.5z" style="fill:#FDC068;"/>
	<path d="M321.2,625.2c0.1,3.8,0.7,7.5,1.5,11.2l-96.2-3.7l-24-142.5l-3.5-21.1l0,0l-6.4-38.2l58.3,4.6l2.5,9l6.9,26
		l21.2,79.2l45.4-3.6c-2.3,3.9-4.1,8.1-5.4,12.4c-2,13.3-3.3,25.8-2.3,39.1C319.7,606.9,320.8,616,321.2,625.2z" style="fill:#4C7DE0;"/>
	<circle cx="248.3" cy="515.1" r="14.1" style="fill:#94B1EC;"/>
	<path d="M223.8,478.1c0,7.7-6.3,14.1-14.1,14.1c-2.5,0-5.1-0.7-7.2-2l-3.5-21.1l0,0c5-5.9,13.9-6.7,19.8-1.7
		C222,470,223.8,474,223.8,478.1L223.8,478.1z" style="fill:#94B1EC;"/>
	<path d="M260.2,470.6c-6.6,4.1-15.3,2-19.4-4.6c-4.1-6.6-2-15.3,4.6-19.4c2.2-1.4,4.8-2.1,7.5-2.1h0.4L260.2,470.6z" style="fill:#94B1EC;"/>
	
		<linearGradient id="SVGID_7_" gradientUnits="userSpaceOnUse" x1="556.8455" y1="1876.6063" x2="431.4837" y2="1949.7756" gradientTransform="matrix(0.9957 9.306572e-02 -9.306572e-02 0.9957 63.664 -1393.6868)">
		<stop offset="0" style="stop-color:#F8809A"/>
		<stop offset="0.76" style="stop-color:#FFE651"/>
		<stop offset="1" style="stop-color:#FFEEC3"/>
	</linearGradient>
	<path d="M394.8,581.3l-10.5-37.6c-4.7-14.8,3.5-30.6,18.2-35.3c14.8-4.7,30.6,3.5,35.3,18.2c0.1,0.2,0.1,0.4,0.1,0.6
		l9.8,35.1L394.8,581.3z" style="fill:url(#SVGID_7_);"/>
	<path d="M447.7,562.3L455,588l79.7,16.5c10.3,1.6,17.4,11.2,15.8,21.6c-1.4,9.2-9.3,15.9-18.6,16l-96.8,0.4
		c-10.7,0.7-32-4.9-36.1-14.8l-0.8-2l-3.4-44.4L447.7,562.3z" style="fill:#FDC068;"/>
	<path d="M318.4,546.9c-34.4-10.7-66.6,11.1-34.4,66.7c13.5,23.3,47.7,25.3,47.7,25.3L318.4,546.9z" style="fill:#4C7DE0;"/>
	<path d="M331.1,639l-1.5,0.4c-10,2.2-20.3,3.4-30.5,3.4l-54-0.1h-28h-20c-11.4,0-21.6-7.1-25.5-17.7
		c-1.9-5.1-4.2-11-6.7-17.5c-3.1-8-6.6-16.9-10.2-26.3c-10.3-26.4-22.4-56.4-31.8-80.2c-3.5-8.8-6.7-16.7-9.3-23.2
		c-4.7-11.7-7.7-19-7.7-19l57.3-9.1l14.3,24.6l12.2,20.8l0,0l32.1,55l97.4,2L331.1,639z" style="fill:#4C7DE0;"/>
	<path d="M155.8,436.9c-1.4-2.5-2.3-5.4-2.4-8.3l0,0c-0.1-4.8-4.1-8.6-8.8-8.6L53,420c-5.3,0-6.2,7.5-1.1,8.8l43.9,10.8
		l10.1,19l57.3-9.1L155.8,436.9z" style="fill:#FDC068;"/>
	
		<linearGradient id="SVGID_8_" gradientUnits="userSpaceOnUse" x1="425.4958" y1="1872.3372" x2="330.8576" y2="1939.4717" gradientTransform="matrix(1 0 0 1 0 -1354)">
		<stop offset="0" style="stop-color:#F8809A"/>
		<stop offset="0.76" style="stop-color:#FFE651"/>
		<stop offset="1" style="stop-color:#FFEEC3"/>
	</linearGradient>
	<path d="M417.3,502.2c1.8,2,3.8,3.8,5.4,6.2c4.2,6.2,4.3,7.6,14.3,22.2c12.9,19-5.4,42.3-26.4,47
		c-7,1.6-11.1,4.7-13.4,9.4c-13.2,27.5-31.1,35.5-42.4,42.7c-7.2,4.5-15.3,7.6-23.6,9.2l-12.7-92c17.4-11.4,26-36.4,47-47.7
		C379.7,491.4,407.2,491.1,417.3,502.2z" style="fill:url(#SVGID_8_);"/>
	<path d="M398.3,532.3l-2.5-5.6c-3.3-7.5-1.2-16.4,5-21.7l36.5-21.9l10.4,31.3l-25.4,22.1c-5.6,5.9-14.8,6.1-20.8,0.5
		C400.2,535.7,399.1,534.1,398.3,532.3z" style="fill:#FDC068;"/>
	<polygon points="420.5,506.9 427.3,532 444.6,517 	" style="fill:#2B2B2B;"/>
	<path d="M452.8,520.7h-0.4c-21.9,1-40.4-15.9-41.4-37.8l-0.5-10.9c-0.8-17.1,12.4-31.6,29.5-32.3l0,0
		c0.5,0,0.9,0,1.4,0c16.6,0,30.2,13,31,29.6l0.2,5.5l0.3,6.9l0.7,16.2C474.3,509.9,465,520.2,452.8,520.7z" style="fill:#FDC068;"/>
	<path d="M473,481.6c-1.9-0.3-3.2-2.1-2.9-4.1c0.2-1.4,1.2-2.5,2.6-2.8L473,481.6z" style="fill:#2B2B2B;"/>
	<g>
		<path d="M465.5,489.3c-0.4,0-0.7-0.1-0.9-0.5c-0.4-0.5-0.2-1.2,0.3-1.5l2.7-1.8c0.3-0.3,0.4-0.6,0.4-0.9
			c0-0.4-0.1-0.7-0.4-0.9l-4.6-5.1c-0.4-0.4-0.4-1.2,0.1-1.5c0.4-0.4,1.2-0.4,1.5,0.1l4.6,5.1c0.7,0.7,0.9,1.6,0.9,2.5
			c-0.1,0.9-0.4,1.8-1.1,2.4l-0.2,0.1l-2.7,1.8C465.9,489.2,465.7,489.3,465.5,489.3z M468.3,486.4L468.3,486.4L468.3,486.4z" style="fill:#2B2B2B;"/>
	</g>
	<g>
		<path d="M462.5,500.8c-1.7,0-3.4-0.7-5.1-2.2c-0.4-0.4-0.5-1.1-0.1-1.5c0.4-0.4,1.1-0.5,1.5-0.1
			c1.7,1.4,3.2,1.9,4.5,1.6c1.8-0.4,2.7-2.2,2.8-2.2c0.3-0.5,0.9-0.7,1.4-0.4c0.5,0.3,0.7,0.9,0.4,1.4c-0.1,0.1-1.4,2.7-4.3,3.3
			C463.2,500.8,462.9,500.8,462.5,500.8z" style="fill:#2B2B2B;"/>
	</g>
	<circle cx="453.5" cy="479.1" r="3.5" style="fill:#2B2B2B;"/>
	<path d="M440.2,436.7c0.1,13.4,20.3,29.2,32.6,29.1C472.7,465.7,472,435.9,440.2,436.7z" style="fill:#2B2B2B;"/>
	<path d="M445.4,436.6c0,0,8.9,60.2-32.6,64.4c0,0-2.5-19.5-2.6-33.8C410.1,452.9,419.7,435.1,445.4,436.6z" style="fill:#2B2B2B;"/>
	<rect x="401.1" y="631.4" width="87.3" height="10.9" style="fill:#F9D5FF;"/>
	
		<linearGradient id="SVGID_9_" gradientUnits="userSpaceOnUse" x1="426.3883" y1="1863.2714" x2="305.8964" y2="1938.2858" gradientTransform="matrix(1 0 0 1 0 -1354)">
		<stop offset="0" style="stop-color:#F8809A"/>
		<stop offset="0.76" style="stop-color:#FFE651"/>
		<stop offset="1" style="stop-color:#FFEEC3"/>
	</linearGradient>
	<path d="M343.9,579.1l-3.8-47.6c-0.4-15.3,11.8-28.1,27.2-28.4c15.3-0.4,28.1,11.8,28.4,27.2c0,0.1,0,0.4,0,0.5
		l0.9,44.6L343.9,579.1z" style="fill:url(#SVGID_9_);"/>
	<path d="M396.7,575.4v24.3l66.3,6.1c10.2,0.4,18.2,8.9,17.9,19c-0.3,9-7.2,16.6-16.1,17.7H363.6
		c-10.1-3.3-17.1-12.6-17.2-23.2v-2.1l-2.4-38.1L396.7,575.4z" style="fill:#FDC068;"/>
	<g>
		<path d="M480.6,622.2c-0.5,0-1-0.4-1.1-0.9c-1.4-8.1-8.3-14.2-16.6-14.5l-65.9-6.6c-0.6-0.1-1-0.6-0.9-1.2
			c0.1-0.6,0.6-1,1.2-0.9l65.8,6.6c9.2,0.3,17,7.2,18.5,16.2c0.1,0.6-0.3,1.2-0.9,1.2C480.7,622.2,480.6,622.2,480.6,622.2z" style="fill:#2B2B2B;"/>
	</g>
	<path d="M496.5,541.1h94.9c3.4-0.1,6.2,2.6,6.2,5.9c0,0.4,0,0.7-0.1,1l-10.1,87.5c-0.5,3.9-3.8,6.9-7.8,6.9H477.9
		l10.9-94.4C489.3,544.2,492.6,541.3,496.5,541.1z" style="fill:#F9D5FF;"/>
	
		<ellipse transform="matrix(0.7271 -0.6866 0.6866 0.7271 -258.5813 533.1887)" cx="541.3" cy="591.8" rx="9.5" ry="8.5" style="fill:#FFFFFF;"/>
	<g>
		<path d="M276.8,552.1H221l-10.4-19c-0.3-0.5-0.1-1.2,0.4-1.4c0.5-0.3,1.2-0.1,1.4,0.4l9.8,17.8h54.4
			c0.6,0,1.1,0.5,1.1,1.1S277.3,552.1,276.8,552.1z" style="fill:#2B2B2B;"/>
	</g>
	<g>
		<path d="M433.1,553.3c-0.5-0.3-1.2,0-1.4,0.5c-4.8,10-14,22.8-30.5,26.8l-4.5,0.9c0,0.2,0,0.4,0.1,0.6
			c0,0.5,0,1.1,0,1.6c0.1,0,0.1,0,0.2,0l4.7-1c17.3-4.3,26.9-17.6,32-28C433.9,554.2,433.6,553.6,433.1,553.3z" style="fill:#2B2B2B;"/>
	</g>
	<g>
		<path d="M397.1,600.3c-0.6,0-1.1-0.4-1.1-1.1l-0.9-47.4c0-0.6,0.4-1.1,1.1-1.1l0,0c0.6,0,1.1,0.4,1.1,1.1l0.9,47.4
			C398.3,599.8,397.7,600.3,397.1,600.3C397.2,600.3,397.1,600.3,397.1,600.3z" style="fill:#2B2B2B;"/>
	</g>
	<path d="M414.3,451.2c-9.7,15.2-16.2,19.7-45.9,18.7c-76-2.3-102.7,63.7-63.5,101.2c39.1,37.6,69,5.8,78.4-26.1
		c9.5-31.9,25.6-40.1,40-46.7c11.6-5.3-2.3-44.8-2.3-44.8L414.3,451.2z" style="fill:#2B2B2B;"/>
	<g>
		<path d="M389.1,601.6c-0.5,0-1-0.4-1.1-0.9c-0.1-0.6,0.3-1.2,0.9-1.2l7.5-1.1c0.6-0.1,1.2,0.3,1.2,0.9
			c0.1,0.6-0.3,1.2-0.9,1.2l-7.5,1.1C389.3,601.6,389.2,601.6,389.1,601.6z" style="fill:#2B2B2B;"/>
	</g>
	<path d="M194.1,431l56.7,4.3c1.3,0.1,2.5,1,2.8,2.3l2.6,9.3c0.5,1.7-0.5,3.4-2.2,3.9c-0.4,0.1-0.7,0.1-1,0.1
		l-57.9-2.6c-1.5-0.1-2.8-1.2-3-2.7l-1.4-11c-0.2-1.7,1-3.3,2.7-3.5C193.6,431,193.9,431,194.1,431z" style="fill:#4C7DE0;"/>
	<path d="M107.9,458.3l54.9-9.6c2-0.4,3.9,0.7,4.8,2.4l3.5,6.8c1.2,2.2,0.3,4.9-2,6.1c-0.4,0.2-0.8,0.4-1.2,0.4
		L112.5,475c-2.2,0.4-4.3-0.8-5.1-2.8l-3-7.8c-0.9-2.3,0.3-4.9,2.7-5.9C107.4,458.4,107.6,458.4,107.9,458.3z" style="fill:#4C7DE0;"/>
	<path d="M173.9,594.3c0,5.8-3.5,11-9,13.1c-3.1-8-6.6-16.9-10.2-26.3c7.2-2.8,15.4,0.8,18.2,8
		C173.6,590.8,173.9,592.5,173.9,594.3z" style="fill:#94B1EC;"/>
	<circle cx="163.2" cy="536.9" r="14.1" style="fill:#94B1EC;"/>
	<path d="M138.2,486.9c0,7.7-6.3,14.1-14,14.1l0,0c-0.4,0-0.9,0-1.3-0.1c-3.5-8.8-6.7-16.7-9.3-23.2
		c5.1-5.9,14-6.5,19.8-1.4C136.4,479,138.2,482.9,138.2,486.9z" style="fill:#94B1EC;"/>
	<path d="M189.6,494.8L189.6,494.8c-3.7,6.8-12.2,9.3-19.1,5.6c-6.9-3.7-9.3-12.2-5.6-19.1c2.5-4.6,7.2-7.4,12.4-7.4
		h0.3L189.6,494.8z" style="fill:#94B1EC;"/>
	<circle cx="209.8" cy="577.5" r="14.1" style="fill:#94B1EC;"/>
	<path d="M245.2,640.9c0,0.6,0,1.1-0.1,1.7h-28c-0.1-0.5-0.1-1.1-0.1-1.6c0-7.7,6.3-14.1,14.1-14.1
		C238.9,626.9,245.2,633.2,245.2,640.9L245.2,640.9L245.2,640.9z" style="fill:#94B1EC;"/>
	<circle cx="266.9" cy="572.8" r="14.1" style="fill:#94B1EC;"/>
	<circle cx="301.1" cy="618.9" r="14.1" style="fill:#94B1EC;"/>
	<g>
		<path d="M255,452.3L255,452.3l-59.6-2.8c-0.6,0-1.1-0.5-1-1.2c0-0.6,0.5-1.1,1.2-1l59.6,2.8c0.6,0,1.1,0.5,1,1.2
			C256.1,451.8,255.6,452.3,255,452.3z" style="fill:#2B2B2B;"/>
	</g>
	<g>
		<path d="M112.5,476.2c-0.5,0-0.9-0.4-1.1-0.9c-0.1-0.6,0.3-1.2,0.9-1.3l58.3-11c0.6-0.1,1.2,0.3,1.3,0.9
			s-0.3,1.2-0.9,1.3l-58.3,10.9C112.7,476.2,112.6,476.2,112.5,476.2z" style="fill:#2B2B2B;"/>
	</g>
	<g>
		<path d="M434.8,414.2c-0.3,0-0.6-0.1-0.8-0.3c-1.1-1.1-2.1-2.2-3-3.1c-0.4-0.4-0.4-1.2,0.1-1.5
			c0.4-0.4,1.2-0.4,1.5,0.1c0.9,1,2,2,3,3.1c0.4,0.4,0.4,1.1,0,1.5C435.3,414.2,435,414.2,434.8,414.2z" style="fill:#2B2B2B;"/>
	</g>
	<g>
		<path d="M426.1,404.7c-0.3,0-0.7-0.1-0.9-0.4c-1.9-2.2-3.6-4.6-5.2-6.9c-0.4-0.5-0.2-1.2,0.3-1.5
			c0.5-0.4,1.2-0.2,1.5,0.3c1.6,2.2,3.3,4.5,5.1,6.7c0.4,0.4,0.3,1.2-0.1,1.5C426.5,404.6,426.3,404.7,426.1,404.7z M416.3,390.7
			c-0.4,0-0.7-0.2-0.9-0.6c-1.4-2.6-2.7-5.2-3.9-7.7c-0.2-0.6,0-1.2,0.6-1.4c0.6-0.2,1.2,0,1.4,0.6c1.1,2.5,2.3,5.1,3.8,7.5
			c0.3,0.5,0.1,1.2-0.4,1.4C416.6,390.6,416.5,390.7,416.3,390.7z M409.6,375c-0.5,0-0.9-0.3-1-0.8c-0.8-2.8-1.4-5.7-1.7-8.5
			c-0.1-0.6,0.4-1.2,0.9-1.2s1.2,0.4,1.2,0.9c0.3,2.7,0.9,5.4,1.7,8.2c0.1,0.6-0.1,1.2-0.7,1.4C409.8,375,409.7,375,409.6,375z
			 M407.6,358.1L407.6,358.1c-0.7,0-1.1-0.6-1.1-1.2c0.1-2.9,0.6-5.9,1.3-8.6c0.1-0.6,0.7-0.9,1.3-0.8c0.6,0.1,0.9,0.7,0.8,1.3
			c-0.7,2.7-1.1,5.4-1.2,8.2C408.7,357.6,408.2,358.1,407.6,358.1z M411.6,341.6c-0.1,0-0.3,0-0.4-0.1c-0.6-0.2-0.8-0.9-0.6-1.4
			c1.2-2.6,2.6-5.2,4.3-7.6c0.4-0.5,1-0.7,1.5-0.3c0.5,0.4,0.7,1,0.3,1.5c-1.6,2.3-3,4.8-4.1,7.3C412.4,341.4,412,341.6,411.6,341.6
			z M475.2,333c-0.6,0-1-0.4-1.1-0.9c-0.1-0.6,0.4-1.2,0.9-1.2c3-0.3,5.6-1.2,7.6-2.5c0.5-0.3,1.2-0.1,1.5,0.3
			c0.3,0.5,0.1,1.2-0.3,1.5c-2.2,1.4-5.2,2.4-8.5,2.7C475.3,333,475.2,333,475.2,333z M466.7,332.6c-0.1,0-0.1,0-0.2,0
			c-2.8-0.5-5.6-1.4-8.4-2.5c-0.6-0.2-0.8-0.9-0.6-1.4s0.9-0.8,1.4-0.6c2.6,1.2,5.3,2,7.9,2.4c0.6,0.1,1,0.7,0.9,1.2
			C467.7,332.2,467.2,332.6,466.7,332.6z M421.1,327.5c-0.3,0-0.5-0.1-0.7-0.3c-0.4-0.4-0.4-1.1-0.1-1.5c2-2.1,4.1-4.1,6.4-5.9
			c0.4-0.4,1.2-0.3,1.5,0.1c0.4,0.4,0.3,1.2-0.1,1.5c-2.2,1.7-4.3,3.7-6.2,5.6C421.7,327.3,421.4,327.5,421.1,327.5z M451.1,325.9
			c-0.2,0-0.4-0.1-0.7-0.2c-2.3-1.7-4.6-3.6-6.6-5.8c-0.4-0.4-0.4-1.2,0.1-1.5c0.4-0.4,1.2-0.4,1.5,0.1c2,2,4.1,3.9,6.2,5.5
			c0.5,0.4,0.6,1,0.2,1.5C451.8,325.7,451.5,325.9,451.1,325.9z M487.1,323.3c-0.5,0-1-0.4-1.1-0.9c-0.3-2-1.7-4.3-4.1-6.4
			c-0.4-0.4-0.5-1.1-0.1-1.5c0.4-0.4,1.1-0.5,1.5-0.1c2.8,2.5,4.5,5.1,4.8,7.7c0.1,0.6-0.4,1.2-0.9,1.2
			C487.3,323.3,487.2,323.3,487.1,323.3z M434.5,316.8c-0.4,0-0.7-0.2-0.9-0.5c-0.3-0.5-0.1-1.2,0.4-1.5c1.4-0.8,2.8-1.6,4.3-2.2
			c-1.4-2.2-2.7-4.6-4-7.1c-0.3-0.5,0-1.2,0.5-1.4c0.5-0.3,1.2,0,1.4,0.5c1.2,2.5,2.5,4.9,4,7.1c0.5-0.2,1-0.4,1.6-0.7
			s1.2,0.1,1.4,0.6c0.2,0.6-0.1,1.2-0.6,1.4c-2.6,1.1-5.1,2.3-7.5,3.7C434.9,316.8,434.7,316.8,434.5,316.8z M475.5,311.6
			c-0.1,0-0.3,0-0.4-0.1c-2.5-1-5.1-1.7-8-2.2c-0.6-0.1-1-0.7-0.9-1.2c0.1-0.6,0.7-1,1.2-0.9c3,0.4,5.9,1.2,8.5,2.3
			c0.6,0.2,0.8,0.9,0.6,1.4C476.3,311.3,475.9,311.6,475.5,311.6z M450.3,310.5c-0.5,0-0.9-0.4-1.1-0.8c-0.1-0.6,0.2-1.2,0.8-1.3
			c2.9-0.7,5.8-1.2,8.6-1.4c0.6-0.1,1.1,0.4,1.2,1c0.1,0.6-0.4,1.1-1,1.2c-2.7,0.2-5.5,0.7-8.2,1.3
			C450.4,310.4,450.4,310.5,450.3,310.5z M432,298.2c-0.4,0-0.9-0.3-1-0.7c-0.9-2.7-1.7-5.4-2.3-8.3c-0.1-0.6,0.2-1.2,0.8-1.3
			c0.6-0.1,1.2,0.2,1.3,0.8c0.7,2.8,1.4,5.6,2.3,8.1c0.2,0.6-0.1,1.2-0.7,1.4C432.3,298.2,432.1,298.2,432,298.2z M428.1,281.6
			c-0.5,0-1-0.4-1.1-0.9c-0.4-2.7-0.7-5.6-0.9-8.5c-0.1-0.6,0.4-1.1,1-1.2c0.6-0.1,1.1,0.4,1.2,1c0.2,2.9,0.5,5.7,0.9,8.4
			C429.2,280.9,428.8,281.5,428.1,281.6C428.2,281.6,428.2,281.6,428.1,281.6z M426.8,264.6c-0.6,0-1.1-0.5-1.1-1.1
			c0-0.7,0-1.2,0-1.9c0-2.2,0.1-4.5,0.1-6.7c0-0.6,0.5-1.1,1.2-1c0.6,0,1.1,0.5,1,1.2c-0.1,2.2-0.1,4.5-0.1,6.7c0,0.7,0,1.2,0,1.9
			C428,264.1,427.5,264.5,426.8,264.6C426.9,264.6,426.8,264.6,426.8,264.6z" style="fill:#2B2B2B;"/>
	</g>
	<g>
		<path d="M427.6,247.4L427.6,247.4c-0.7-0.1-1.1-0.6-1.1-1.2c0.1-1.4,0.3-2.9,0.4-4.3c0.1-0.6,0.6-1,1.2-0.9
			c0.6,0.1,1,0.6,0.9,1.2c-0.1,1.4-0.3,2.9-0.4,4.3C428.6,247,428.1,247.4,427.6,247.4z" style="fill:#2B2B2B;"/>
	</g>
	<polygon points="173.3,215 273.7,163.6 231,255.3 	" style="fill:#F9D5FF;"/>
	<polygon points="273.7,163.6 194.1,228.7 207.1,238.6 	" style="fill:#F3ADFF;"/>
	<polygon points="194.1,228.7 199.6,255.3 207.1,238.6 	" style="fill:#F3ADFF;"/>
</g>
</svg>
