<?xml version="1.0" encoding="iso-8859-1"?>
<!-- Generator: Adobe Illustrator 23.0.2, SVG Export Plug-In . SVG Version: 6.00 Build 0)  -->
<svg version="1.1" id="Layer_1" xmlns="http://www.w3.org/2000/svg" xmlns:xlink="http://www.w3.org/1999/xlink" x="0px" y="0px"
	 viewBox="0 0 1105.6 1080" style="enable-background:new 0 0 1105.6 1080;" xml:space="preserve">
<g style="opacity:0.3;">
	<g>
		<path style="fill:#C4ECFE;" d="M1026.7,80.7V885H78.8V80.7H1026.7 M1029.8,77.6H75.7v810.5h954.1L1029.8,77.6L1029.8,77.6z"/>
	</g>
	<g>
		<g>
			<rect x="75.7" y="652.2" style="fill:#C4ECFE;" width="954.1" height="2.9"/>
		</g>
		<g>
			<rect x="75.7" y="536.1" style="fill:#C4ECFE;" width="954.1" height="2.9"/>
		</g>
		<g>
			<rect x="75.7" y="652.2" style="fill:#C4ECFE;" width="954.1" height="2.9"/>
		</g>
		<g>
			<rect x="75.7" y="768.2" style="fill:#C4ECFE;" width="954.1" height="2.9"/>
		</g>
		<g>
			<rect x="75.7" y="420.1" style="fill:#C4ECFE;" width="954.1" height="2.9"/>
		</g>
		<g>
			<rect x="75.7" y="304" style="fill:#C4ECFE;" width="954.1" height="2.9"/>
		</g>
		<g>
			<rect x="75.7" y="188" style="fill:#C4ECFE;" width="954.1" height="2.9"/>
		</g>
	</g>
</g>
<linearGradient id="SVGID_1_" gradientUnits="userSpaceOnUse" x1="-15900.0283" y1="654.5195" x2="-15900.0283" y2="509.934" gradientTransform="matrix(1 0 0 -1 16139.0781 1392)">
	<stop  offset="0" style="stop-color:#FFD8A1"/>
	<stop  offset="0.9958" style="stop-color:#FFFFFF"/>
</linearGradient>
<path style="fill:url(#SVGID_1_);" d="M402.5,888.1c-72.3,0-105.3-106.1-190.5-95.8c-25.6,3.1-54.1-49.3-65.7-69.1
	c-19.4-32.8-70.7-19.6-70.7,18.3V888L402.5,888.1L402.5,888.1z"/>
<g>
	
		<linearGradient id="SVGID_2_" gradientUnits="userSpaceOnUse" x1="761.6" y1="730.939" x2="761.6" y2="512.9749" gradientTransform="matrix(1 0 0 -1 0 1392)">
		<stop  offset="0" style="stop-color:#FFD8A1"/>
		<stop  offset="0.9958" style="stop-color:#FFFFFF"/>
	</linearGradient>
	<path style="fill:url(#SVGID_2_);" d="M493.4,888.1c177.9,0,241.4-229.3,335.4-203.3c54.7,15.1,90.8-24.1,124.8-59.6
		c27.6-28.8,76.2-9.3,76.2,30.6v232.3H493.4z"/>
	
		<linearGradient id="SVGID_3_" gradientUnits="userSpaceOnUse" x1="-3920.2559" y1="617.3066" x2="-3920.2559" y2="508.4531" gradientTransform="matrix(-1 0 0 -1 -2983.7559 1392)">
		<stop  offset="0" style="stop-color:#FFD8A1"/>
		<stop  offset="0.9958" style="stop-color:#FFFFFF"/>
	</linearGradient>
	<path style="fill:url(#SVGID_3_);" d="M843.1,888.1c53.2,0,51.5-80.6,97.7-91.3c18.5-4.3,28.5-17.9,37.1-32.8
		c14.2-24.7,52-14.7,52,13.8v110.3H843.1z"/>
</g>
<g>
	<circle style="fill:#BFD9FF;" cx="978.3" cy="286.5" r="4.1"/>
	<circle style="fill:#BFD9FF;" cx="487.6" cy="693.6" r="4.1"/>
	<circle style="fill:#BFD9FF;" cx="828.4" cy="120.9" r="4.1"/>
	<circle style="fill:#BFD9FF;" cx="573.1" cy="254.9" r="4.1"/>
	<circle style="fill:#BFD9FF;" cx="109.7" cy="262.7" r="4.1"/>
	<circle style="fill:#BFD9FF;" cx="857" cy="570.3" r="3.8"/>
	<circle style="fill:#BFD9FF;" cx="129.9" cy="579.3" r="3.8"/>
</g>
<g>
	<g>
		<g>
			
				<linearGradient id="XMLID_2_" gradientUnits="userSpaceOnUse" x1="-11379.8066" y1="1009.7115" x2="-11379.8066" y2="527.446" gradientTransform="matrix(0.9999 0.013 0.013 -0.9999 11739.6611 1470.4161)">
				<stop  offset="0" style="stop-color:#FECEAA"/>
				<stop  offset="0.401" style="stop-color:#D1D2D1"/>
				<stop  offset="0.5011" style="stop-color:#FDBB9F"/>
				<stop  offset="0.5908" style="stop-color:#FDBB6D"/>
				<stop  offset="1" style="stop-color:#77879D"/>
			</linearGradient>
			<path id="XMLID_125_" style="fill:url(#XMLID_2_);" d="M386.1,393.1c8.4,17.3,34.6,152.5,39.2,197.8
				c4.6,45.3,29.7,267.5,30,272.4l-67.8,6.3c0,0-62.7-270.7-68.9-288.5l-33.9-188.4L386.1,393.1z"/>
		</g>
		<g>
			<g>
				<g style="opacity:0.37;">
					<path style="fill:#FFFFFF;" d="M450.3,817.8c-0.9,0.1-1.9,0.2-2.8,0.2c-14.9,0-26.9-12-26.9-26.9c0-13.8,10.4-25.2,23.8-26.7
						C446.6,784,448.6,802.3,450.3,817.8z"/>
					<path style="fill:#FFFFFF;" d="M368.7,662.2c0,13.7-10.3,25-23.5,26.7c-4.4-18.6-8.7-36.4-12.4-52c2.8-1,5.9-1.6,9-1.6
						C356.7,635.3,368.7,647.3,368.7,662.2z"/>
					<path style="fill:#FFFFFF;" d="M418.4,543.1c-4.6,3.6-10.4,5.8-16.7,5.8c-14.9,0-26.9-12-26.9-26.9s12-26.9,26.9-26.9
						c2.9,0,5.7,0.5,8.3,1.3C413,512.4,415.9,528.4,418.4,543.1z"/>
					<path style="fill:#FFFFFF;" d="M421.3,846.8c0,8.2-3.7,15.6-9.5,20.5l0,0l-24.2,2.2c0,0-4-17.4-10.1-43.6
						c4.6-3.8,10.6-6.1,17-6.1C409.3,819.9,421.3,831.9,421.3,846.8z"/>
					<circle style="fill:#FFFFFF;" cx="357" cy="428.9" r="26.9"/>
					<circle style="fill:#FFFFFF;" cx="388.6" cy="741" r="24.4"/>
					<path style="fill:#FFFFFF;" d="M429.6,631.4c-4.3,3.3-9.6,5.2-15.4,5.2c-14.1,0-25.5-11.4-25.5-25.5s11.4-25.5,25.5-25.5
						c3.8,0,7.5,0.9,10.8,2.4c0.1,1,0.2,2,0.3,2.9C426.2,599.2,427.7,613.5,429.6,631.4z"/>
				</g>
			</g>
		</g>
	</g>
	<circle style="fill:#EA7068;" cx="326.8" cy="108.1" r="26.6"/>
	<circle style="fill:#2B2B2B;" cx="326.8" cy="140.1" r="26.6"/>
	<path style="fill:#EA7068;" d="M360.4,325h-64.2c-48.3,0-77.3-54.4-49.6-94.1c0.4-0.6,0.9-1.3,1.3-1.9c11.7-16,19.8-26.6,28.2-38.2
		c11.9-56,45.3-59.6,45.3-59.6s25.2-0.7,44.5,34.2c8.6,15.7,16.9,31.5,28.5,45.2c2.8,3.2,5.7,6.7,8.9,10.5
		c5.7,6.8,9.8,13.7,12.8,20.8C432.7,281.4,403.3,325,360.4,325z"/>
	<g>
		
			<linearGradient id="SVGID_4_" gradientUnits="userSpaceOnUse" x1="-746.6357" y1="2009.9468" x2="-746.6357" y2="2263.5962" gradientTransform="matrix(-0.9983 0.0585 -0.0585 -0.9983 -188.753 2576.7024)">
			<stop  offset="0" style="stop-color:#6B9C83"/>
			<stop  offset="0.401" style="stop-color:#A6A6A4"/>
			<stop  offset="0.5011" style="stop-color:#9F9FC8"/>
			<stop  offset="0.5908" style="stop-color:#9FCCEC"/>
			<stop  offset="1" style="stop-color:#FFE7B0"/>
		</linearGradient>
		<path style="fill:url(#SVGID_4_);" d="M478.7,325.1l-31.2,26.6l-44.4-58.8c-9.1-18.8-31.8-26.7-50.6-17.6
			c-18.8,9.1-26.7,31.8-17.6,50.6l64.1,87.3c19.9,27.1,59.9,28.6,81.8,3.1l44-51.3L478.7,325.1z"/>
		<path style="fill:#FDC068;" d="M524.9,365l19.8-26.1c9.1-12.1,6.8-29.3-5.3-38.4c-10.6-8.1-25.3-7.2-34.9,1.4L478.7,325"/>
	</g>
	<circle style="fill:#FDC068;" cx="364.1" cy="188" r="14.9"/>
	<g>
		<path style="fill:#FDC068;" d="M215.7,541L201,570.2c-6.8,13.5-23.3,18.9-36.8,12.1c-11.9-6-17.5-19.6-14-31.9l9.5-33.4"/>
		
			<linearGradient id="SVGID_5_" gradientUnits="userSpaceOnUse" x1="-274.1321" y1="553.8815" x2="-274.1321" y2="832.855" gradientTransform="matrix(-0.9835 -0.181 0.181 -0.9835 -153.3685 1035.8171)">
			<stop  offset="0" style="stop-color:#6B9C83"/>
			<stop  offset="0.401" style="stop-color:#A6A6A4"/>
			<stop  offset="0.5011" style="stop-color:#9F9FC8"/>
			<stop  offset="0.5908" style="stop-color:#9FCCEC"/>
			<stop  offset="1" style="stop-color:#FFE7B0"/>
		</linearGradient>
		<path style="fill:url(#SVGID_5_);" d="M159.6,517.1l82.7-221.3c9-18.9,36.9-29.8,55.8-20.8s26.9,31.6,17.9,50.5L215.7,541
			L159.6,517.1z"/>
	</g>
	
		<linearGradient id="SVGID_6_" gradientUnits="userSpaceOnUse" x1="325.9256" y1="844.1436" x2="325.9256" y2="1123.1169" gradientTransform="matrix(1 0 0 -1 0 1392)">
		<stop  offset="0" style="stop-color:#6B9C83"/>
		<stop  offset="0.401" style="stop-color:#A6A6A4"/>
		<stop  offset="0.5011" style="stop-color:#9F9FC8"/>
		<stop  offset="0.5908" style="stop-color:#9FCCEC"/>
		<stop  offset="1" style="stop-color:#FFE7B0"/>
	</linearGradient>
	<path style="fill:url(#SVGID_6_);" d="M269.9,372.2c0,0,2.6-6.6,2.8-15.5c0.2-8.9-21.1-22.9-19.9-49.9c0.9-20.7,23.9-50.8,60-49.5
		l29.1,1.9c31.7,1.1,56.3,29.4,57.1,51.5h0.1c0,0.6-0.1,1.2-0.1,1.8c0,0.2,0,0.4,0,0.6l0,0c-2.7,36.7-28.2,34.5-19.2,60.7
		L269.9,372.2z"/>
	<polygon style="fill:#FFFFFF;" points="301.8,261 325.8,370.4 349.5,262.7 	"/>
	<circle style="fill:#FDC068;" cx="291.6" cy="185.2" r="14.9"/>
	<path style="fill:#2B2B2B;" d="M309.9,280.4l-25.6-16.9c0,0,10.6-6.7,28.5-6.1L309.9,280.4z"/>
	<path style="fill:#FDC068;" d="M349.5,262.7l-0.7-70.3l-42.3-1.5l-4.7,70.1c-1.1,13.2,9.2,24.6,22.5,24.8h1.8
		C339.1,286.1,349.7,275.6,349.5,262.7z"/>
	<polygon style="fill:#2B2B2B;" points="312.8,230.9 349.2,251.5 349.5,223.7 	"/>
	<path id="XMLID_123_" style="fill:#FDC068;" d="M327,233.8L327,233.8c18.6,0,34.2-14.1,36.2-32.6l3.5-32.4
		c0-22-17.9-39.8-39.8-39.7l0,0c-22,0-39.8,17.9-39.7,39.8l3.6,32.4C292.7,219.9,308.3,233.9,327,233.8z"/>
	<g>
		<path style="fill:#2B2B2B;" d="M325.8,192.9c-0.5,0-0.9-0.2-1.1-0.7c-0.3-0.6-0.1-1.4,0.5-1.7l3.7-2c0.4-0.3,0.7-0.8,0.7-1.2
			c0.1-0.5-0.1-0.9-0.3-1.3c-2.2-2.8-3.3-6.5-3.1-10.4l0.1-1.1c0.1-0.7,0.7-1.2,1.4-1.1c0.7,0.1,1.2,0.7,1.1,1.4l-0.1,1.1
			c-0.2,3.2,0.7,6.3,2.5,8.6c0.7,0.9,1,2.1,0.9,3.2c-0.2,1.2-0.8,2.3-1.8,3l-0.1,0.1l-3.8,2C326.2,192.8,326,192.9,325.8,192.9z"/>
	</g>
	<path style="fill:#FFFFFF;" d="M333.2,203.6c-1,10.1-12.2,7.3-12.2,0H333.2z"/>
	<g>
		<path style="fill:#2B2B2B;" d="M379.7,375.1c-0.6,0-1.1-0.4-1.2-1c-2.1-9.9-3-20,5.2-27c0.5-0.5,1.3-0.4,1.8,0.1s0.4,1.3-0.1,1.8
			c-5.9,5.1-7.1,11.9-4.4,24.6c0.1,0.7-0.3,1.4-1,1.5C379.9,375.1,379.8,375.1,379.7,375.1z"/>
	</g>
	<g>
		<g>
			
				<linearGradient id="XMLID_3_" gradientUnits="userSpaceOnUse" x1="-12091.3379" y1="993.7035" x2="-12091.3379" y2="511.438" gradientTransform="matrix(-0.9999 0.013 -0.013 -0.9999 -11820.6504 1470.4161)">
				<stop  offset="0" style="stop-color:#FECEAA"/>
				<stop  offset="0.401" style="stop-color:#D1D2D1"/>
				<stop  offset="0.5011" style="stop-color:#FDBB9F"/>
				<stop  offset="0.5908" style="stop-color:#FDBB6D"/>
				<stop  offset="1" style="stop-color:#77879D"/>
			</linearGradient>
			<path id="XMLID_122_" style="fill:url(#XMLID_3_);" d="M269.9,372.2c-8.4,17.3-47.7,173.4-52.3,218.7s-44.5,267.5-44.8,272.4
				l67.8,6.3c0,0,77.4-270.7,83.6-288.5L349.5,479l-40.6-79L269.9,372.2z"/>
		</g>
		<g style="opacity:0.37;">
			<path style="fill:#FFFFFF;" d="M205.8,784.6c0,13.9-10.6,25.4-24.1,26.8c2.6-15.2,5.7-32.6,8.8-51
				C199.5,764.6,205.8,773.9,205.8,784.6z"/>
			<path style="fill:#FFFFFF;" d="M322.8,585.4c-2.7,8.7-8.2,27.5-15.3,51.6c-11.3-3.2-19.6-13.6-19.6-25.9
				c0-14.9,12-26.9,26.9-26.9C317.7,584.2,320.3,584.6,322.8,585.4z"/>
			<path style="fill:#FFFFFF;" d="M270.8,522c0,14.9-12,26.9-26.9,26.9c-6.8,0-13.1-2.5-17.8-6.7c3-14.3,6.5-30,10.2-46l0,0
				c2.4-0.7,5-1.1,7.6-1.1C258.8,495.1,270.8,507.1,270.8,522z"/>
			<path style="fill:#FFFFFF;" d="M254.8,820.2c-8.5,29.5-14.2,49.4-14.2,49.4l-4.4-0.4l0,0c-7.2-4.8-12-13-12-22.4
				c0-14.9,12-26.9,26.9-26.9C252.3,819.9,253.6,820,254.8,820.2z"/>
			<path style="fill:#FFFFFF;" d="M293.3,426.4c0,14.9-12,26.9-26.9,26.9c-6.9,0-13.2-2.6-17.9-6.9c4.4-17.5,8.8-33.5,12.4-46.4
				c1.8-0.4,3.6-0.6,5.5-0.6C281.3,399.5,293.3,411.5,293.3,426.4z"/>
			<circle style="fill:#FFFFFF;" cx="243.9" cy="721.3" r="19.7"/>
			<circle style="fill:#FFFFFF;" cx="319.7" cy="500.9" r="19.7"/>
			<path style="fill:#FFFFFF;" d="M256.9,636.6c0,14.1-11.4,25.5-25.5,25.5c-9.6,0-17.9-5.3-22.2-13c1.8-11.4,3.5-22,4.8-31.1
				c4.5-4.3,10.7-6.9,17.4-6.9C245.5,611.1,256.9,622.5,256.9,636.6z"/>
		</g>
	</g>
	<g>
		<path style="fill:#2B2B2B;" d="M155.8,886h75.8c5.8,0,10.5-4.6,10.6-10.4l0.3-14l-69.8,0.7l-18.3,13
			C148.3,876.9,149.4,886,155.8,886z"/>
	</g>
	<g>
		<path style="fill:#2B2B2B;" d="M484.4,886h-88c-5.8,0-10.5-4.6-10.6-10.4l-0.3-14l69.8,0.7l30.5,13
			C491.9,876.9,490.8,886,484.4,886z"/>
	</g>
	<circle style="fill:#2B2B2B;" cx="345.2" cy="178" r="4"/>
	<circle style="fill:#2B2B2B;" cx="310.6" cy="178" r="4.1"/>
	<g>
		<path style="fill:#2B2B2B;" d="M269.9,373.5h-0.1c-0.7-0.1-1.2-0.7-1.1-1.4c1.5-13.2-0.8-23.3-7.3-32.7c-0.4-0.6-0.2-1.4,0.3-1.8
			c0.6-0.4,1.4-0.2,1.8,0.3c6.9,10,9.2,20.6,7.7,34.5C271.1,373,270.5,373.5,269.9,373.5z"/>
	</g>
	<g>
		<polygon style="fill:#2B2B2B;" points="386.1,393.1 263,393.1 269.9,372.2 378.3,372.2 		"/>
		<path style="fill:#2B2B2B;" d="M386.1,394.4H263c-0.4,0-0.8-0.2-1-0.5s-0.3-0.8-0.2-1.1l6.9-20.9c0.2-0.5,0.7-0.9,1.2-0.9h108.4
			c0.5,0,1,0.3,1.2,0.8l7.8,20.9c0.1,0.4,0.1,0.8-0.1,1.2S386.5,394.4,386.1,394.4z M264.7,391.8h119.5l-6.9-18.4H270.8L264.7,391.8
			z"/>
	</g>
	<g>
		<path style="fill:#2B2B2B;" d="M428.5,371.7c-0.3,0-0.7-0.1-0.9-0.4c-0.5-0.5-0.5-1.3,0-1.8l19-18.7c0.5-0.5,1.3-0.5,1.8,0
			s0.5,1.3,0,1.8l-19,18.7C429.1,371.5,428.8,371.7,428.5,371.7z"/>
	</g>
	<path style="fill:#EA7068;" d="M285.7,164.5H369l0,0c0-23-18.6-41.6-41.6-41.6l0,0C304.3,122.9,285.7,141.5,285.7,164.5
		L285.7,164.5z"/>
	<g>
		<path style="fill:#2B2B2B;" d="M321.3,591.6c-0.1,0-0.2,0-0.3,0c-0.7-0.2-1.1-0.9-0.9-1.5l17.5-68.3c0.2-0.7,0.9-1.1,1.5-0.9
			c0.7,0.2,1.1,0.9,0.9,1.5l-17.5,68.3C322.4,591.2,321.9,591.6,321.3,591.6z"/>
	</g>
</g>
<path style="fill:none;stroke:#6ED8C3;stroke-linecap:round;stroke-linejoin:round;stroke-miterlimit:10;" d="M763.8,734.3
	L763.8,734.3L763.8,734.3z M841.4,576.8L841.4,576.8L841.4,576.8z M841.4,576.8L841.4,576.8L841.4,576.8z M821.4,576.2L821.4,576.2
	L821.4,576.2z M821.4,576.2L821.4,576.2L821.4,576.2z M576.4,509.9L576.4,509.9L576.4,509.9z M792.3,418.7L792.3,418.7L792.3,418.7z
	"/>
<g>
	<g>
		<circle style="fill:#FFFFFF;" cx="734.8" cy="108.1" r="26.6"/>
		<path style="fill:#6ED8C3;" d="M734.8,137.2c-16,0-29.1-13.1-29.1-29.1S718.8,79,734.8,79s29.1,13.1,29.1,29.1
			S750.8,137.2,734.8,137.2z M734.8,84c-13.3,0-24.1,10.8-24.1,24.1s10.8,24.1,24.1,24.1s24.1-10.8,24.1-24.1S748.1,84,734.8,84z"/>
	</g>
	<circle style="fill:#2B2B2B;" cx="734.8" cy="140.1" r="26.6"/>
	<g>
		<path style="fill:#FFFFFF;" d="M768.4,325h-64.2c-48.3,0-77.3-54.4-49.6-94.1c0.4-0.6,0.9-1.3,1.3-1.9
			c11.7-16,19.8-26.6,28.2-38.2c11.9-56,45.3-59.6,45.3-59.6s25.2-0.7,44.5,34.2c8.6,15.7,16.9,31.5,28.5,45.2
			c2.8,3.2,5.7,6.7,8.9,10.5c5.7,6.8,9.8,13.7,12.8,20.8C840.6,281.4,811.2,325,768.4,325z"/>
		<path style="fill:#6ED8C3;" d="M768.4,327.5h-64.2c-23.5,0-44.8-13-55.7-33.8c-10.9-20.9-9.4-44.9,4-64.2c0.2-0.3,0.4-0.6,0.6-0.9
			c0.2-0.3,0.4-0.6,0.6-0.9l0.1-0.1c5.7-7.8,10.6-14.4,14.9-20.2c4.7-6.3,8.7-11.8,13-17.6c12.2-56.6,45.9-60.9,47.4-61h0.2
			c1.1,0,27-0.3,46.8,35.5l1.9,3.5c7.7,14.2,15.7,28.8,26.3,41.3c2.1,2.4,4.3,5,6.6,7.8l2.3,2.7c5.6,6.7,9.9,13.7,13.2,21.4
			c8,19.2,5.9,41.1-5.7,58.5C809,317,789.5,327.5,768.4,327.5z M657.9,230.4c-0.2,0.3-0.4,0.6-0.6,0.9c-0.2,0.3-0.4,0.6-0.6,0.9
			c-12.4,17.8-13.8,39.8-3.7,59.1c10.2,19.5,29.3,31.1,51.3,31.1h64.2c19.4,0,37.4-9.7,48.1-25.8c10.7-16,12.6-36.1,5.3-53.8
			c-3.1-7.3-7.1-13.9-12.4-20.2l-2.3-2.7c-2.3-2.7-4.5-5.3-6.6-7.7c-10.9-12.9-19.1-27.8-26.9-42.2l-1.9-3.5
			c-9.6-17.3-20.5-25.3-28.1-29c-7.5-3.7-13.2-3.9-14.1-3.9c-0.9,0.1-8.5,1.5-17.1,8.5c-15.5,12.6-22.7,33.7-25.9,49.1l-0.1,0.5
			l-0.3,0.4c-4.3,6-8.7,11.8-13.3,18C668.5,216.1,663.6,222.7,657.9,230.4z"/>
	</g>
	
		<linearGradient id="SVGID_7_" gradientUnits="userSpaceOnUse" x1="915.8771" y1="1262.9858" x2="915.8771" y2="782.6139" gradientTransform="matrix(1 0 0 -1 0 1392)">
		<stop  offset="0" style="stop-color:#FFE0C2"/>
		<stop  offset="0.401" style="stop-color:#7AAEFC"/>
		<stop  offset="0.5908" style="stop-color:#B8C1FC"/>
		<stop  offset="1" style="stop-color:#D2D4D4"/>
	</linearGradient>
	<path style="fill:url(#SVGID_7_);" d="M926.3,363.7l19.8-26.1c9.1-12.1,6.8-29.3-5.3-38.4c-10.6-8.1-25.3-7.2-34.9,1.4l-25.8,23.1"
		/>
	<g>
		<g>
			<path style="fill:#FFFFFF;" d="M880.1,323.7l-31.2,26.6l-44.4-58.8c-9.1-18.8-31.8-26.7-50.6-17.6s-26.7,31.8-17.6,50.6
				l64.1,87.3c19.9,27.1,59.9,28.6,81.8,3.1l44-51.3"/>
			<path style="fill:#6ED8C3;" d="M842.6,435.6c-0.7,0-1.4,0-2.1,0c-16.8-0.6-32.1-8.8-42-22.3L734.3,326c-0.1-0.1-0.2-0.3-0.2-0.4
				c-9.7-20-1.3-44.2,18.8-53.9c9.7-4.7,20.6-5.3,30.8-1.8c10.1,3.5,18.3,10.7,23,20.3l42.7,56.5l29.2-24.9l3.2,3.8l-31.2,26.6
				c-0.5,0.4-1.2,0.7-1.9,0.6s-1.3-0.4-1.7-1L802.5,293c-0.1-0.1-0.2-0.3-0.3-0.4c-4.1-8.5-11.3-14.9-20.2-18s-18.5-2.6-27,1.6
				c-17.5,8.5-24.9,29.5-16.5,47.1l64,87.1c9,12.3,23,19.7,38.2,20.3c15.3,0.6,29.7-5.7,39.7-17.3l44-51.3l3.8,3.3l-44,51.3
				C873.6,428.7,858.6,435.6,842.6,435.6z"/>
		</g>
		<g>
			<path style="fill:#6ED8C3;" d="M852.6,429.5L852.6,429.5c-0.9-1.1-0.8-2.6,0.2-3.5l0,0c1-0.9,2.6-0.8,3.5,0.2l0,0
				c0.9,1,0.8,2.6-0.2,3.5l0,0c-0.5,0.4-1.1,0.6-1.6,0.6l0,0C853.8,430.4,853.1,430.1,852.6,429.5z M847.6,419.9
				c-0.5-1.3,0.2-2.7,1.5-3.2l0,0c1.3-0.5,2.7,0.2,3.2,1.5l0,0l0,0l0,0c0.5,1.3-0.2,2.7-1.5,3.2l0,0c-0.3,0.1-0.5,0.1-0.8,0.1l0,0
				C849,421.5,848,420.9,847.6,419.9z M845,409.9L845,409.9c-0.3-1.4,0.6-2.7,1.9-3l0,0c1.3-0.3,2.7,0.6,3,1.9l0,0
				c0.3,1.4-0.6,2.7-1.9,3l0,0c-0.2,0-0.4,0.1-0.5,0.1l0,0C846.2,411.9,845.2,411.1,845,409.9z M843.2,399.8L843.2,399.8
				c-0.2-1.4,0.8-2.6,2.1-2.8l0,0c1.4-0.2,2.6,0.8,2.8,2.1l0,0c0.2,1.4-0.8,2.6-2.1,2.8l0,0c-0.1,0-0.2,0-0.3,0l0,0
				C844.5,402,843.4,401.1,843.2,399.8z M842.2,389.8c-0.1-1.4,0.9-2.6,2.3-2.7l0,0c1.4-0.1,2.6,0.9,2.7,2.3l0,0
				c0.1,1.4-0.9,2.6-2.3,2.7l0,0c-0.1,0-0.1,0-0.2,0l0,0C843.4,392.1,842.3,391.1,842.2,389.8z M841.7,379.6L841.7,379.6
				c0-1.4,1.1-2.5,2.5-2.5l0,0c1.4,0,2.5,1.1,2.5,2.5l0,0c0,1.4-1.1,2.5-2.5,2.5l0,0l0,0l0,0C842.8,382.1,841.7,381,841.7,379.6z
				 M844.2,372.1c-1.4-0.1-2.4-1.2-2.4-2.6l0,0c0.1-1.4,1.2-2.4,2.6-2.4l0,0c1.4,0.1,2.4,1.2,2.4,2.6l0,0c-0.1,1.3-1.2,2.4-2.5,2.4
				l0,0C844.3,372.1,844.3,372.1,844.2,372.1z M845,362.1c-1.4-0.2-2.3-1.5-2-2.9l0,0c0.2-1.4,1.5-2.3,2.9-2l0,0
				c1.4,0.2,2.3,1.5,2,2.9l0,0l0,0l0,0c-0.2,1.2-1.3,2.1-2.5,2.1l0,0C845.3,362.1,845.1,362.1,845,362.1z M847.1,352.1
				c-1-1-0.9-2.6,0-3.5l0,0c1-1,2.6-1,3.5,0l0,0c1,1,0.9,2.6,0,3.5l0,0c-0.5,0.5-1.1,0.7-1.8,0.7l0,0
				C848.2,352.9,847.6,352.6,847.1,352.1z"/>
		</g>
		<g>
			<path style="fill:#6ED8C3;" d="M812.2,426.4c-1-0.9-1.1-2.5-0.1-3.5l0,0c1-1,2.5-1.1,3.5-0.1l0,0c1,0.9,1.1,2.5,0.1,3.5l0,0
				c-0.5,0.5-1.2,0.8-1.8,0.8l0,0C813.3,427.1,812.7,426.8,812.2,426.4z M807.4,416c-0.2-1.4,0.7-2.6,2-2.9l0,0
				c1.4-0.2,2.7,0.7,2.9,2l0,0c0.2,1.4-0.7,2.6-2,2.9l0,0c-0.1,0-0.3,0-0.4,0l0,0C808.6,418.1,807.6,417.2,807.4,416z M809.2,408.1
				c-1.4-0.1-2.5-1.2-2.4-2.6l0,0c0.1-1.4,1.2-2.5,2.6-2.4l0,0c1.4,0.1,2.4,1.2,2.4,2.6l0,0c-0.1,1.3-1.2,2.4-2.5,2.4l0,0
				C809.3,408.1,809.3,408.1,809.2,408.1z M810,398.2c-1.4-0.2-2.3-1.5-2.1-2.8l0,0c0.2-1.4,1.5-2.3,2.9-2.1l0,0
				c1.4,0.2,2.3,1.5,2.1,2.9l0,0l0,0l0,0c-0.2,1.2-1.3,2.1-2.5,2.1l0,0C810.2,398.2,810.1,398.2,810,398.2z M811.7,388.3
				c-1.4-0.3-2.2-1.7-1.9-3l0,0c0.3-1.3,1.7-2.2,3-1.9l0,0c1.3,0.3,2.2,1.7,1.9,3l0,0c-0.3,1.2-1.3,1.9-2.4,1.9l0,0
				C812.1,388.4,811.9,388.3,811.7,388.3z M814.1,378.6c-1.3-0.4-2.1-1.8-1.7-3.1l0,0c0.4-1.3,1.8-2.1,3.1-1.7l0,0
				c1.3,0.4,2.1,1.8,1.7,3.1l0,0c-0.3,1.1-1.3,1.8-2.4,1.8l0,0C814.6,378.7,814.3,378.6,814.1,378.6z M817.1,369
				c-1.3-0.5-2-1.9-1.5-3.2l0,0c0.5-1.3,1.9-2,3.2-1.5l0,0c1.3,0.5,2,1.9,1.5,3.2l0,0c-0.4,1-1.3,1.6-2.4,1.6l0,0
				C817.7,369.2,817.4,369.1,817.1,369z M820.6,359.6c-1.3-0.6-1.8-2-1.3-3.3l0,0c0.6-1.3,2-1.8,3.3-1.3l0,0c1.3,0.5,1.8,2,1.3,3.3
				l0,0c-0.4,0.9-1.3,1.5-2.3,1.5l0,0C821.3,359.9,821,359.8,820.6,359.6z M824.8,350.6c-1.2-0.7-1.6-2.2-1-3.4l0,0
				c0.7-1.2,2.2-1.6,3.4-1l0,0c1.2,0.7,1.6,2.2,1,3.4l0,0c-0.5,0.8-1.3,1.3-2.2,1.3l0,0C825.6,350.9,825.2,350.8,824.8,350.6z
				 M830,342c-1-0.9-1.1-2.5-0.2-3.5l0,0c0.9-1,2.5-1.1,3.5-0.1l0,0c1,0.9,1.1,2.5,0.2,3.5l0,0l0,0l0,0c-0.5,0.5-1.2,0.8-1.8,0.8
				l0,0C831.1,342.6,830.5,342.4,830,342z M838,340.1c-0.8-1.1-0.6-2.7,0.5-3.5l0,0c1.1-0.8,2.7-0.6,3.5,0.5l0,0
				c0.8,1.1,0.6,2.7-0.5,3.5l0,0c-0.5,0.3-1,0.5-1.5,0.5l0,0C839.2,341.1,838.5,340.8,838,340.1z"/>
		</g>
		<g>
			<path style="fill:#6ED8C3;" d="M818.6,427.4c0.8-11,5.7-19.6,11.7-19.6c6.5,0,11.8,10.1,11.8,22.5c0,1,0,1.9-0.1,2.9"/>
			<path style="fill:#6ED8C3;" d="M844.5,433.4l-5-0.5c0.1-0.9,0.1-1.7,0.1-2.7c0-11.8-4.9-20-9.3-20c-4.4,0-8.5,7.8-9.2,17.3
				l-5-0.4c0.9-12.7,6.9-21.9,14.2-21.9c8,0,14.3,11,14.3,25C844.6,431.3,844.6,432.3,844.5,433.4z"/>
		</g>
		<path style="opacity:0.56;fill:#C3B5FE;enable-background:new    ;" d="M787,342.3c-0.2,15.3,19.2,64.8,37.7,68.3
			s53.1,1.6,68.7-8.6c-6,6-12.4,12.5-18.7,18.8c-19.2,19.3-50.4,19.6-70,0.7l-26-25.2L787,342.3z"/>
		<g>
			<path style="fill:#6ED8C3;" d="M897.4,386.1L897.4,386.1c-1.1-0.8-1.4-2.4-0.6-3.5l0,0c0.8-1.1,2.4-1.4,3.5-0.6l0,0
				c1.1,0.8,1.4,2.4,0.5,3.5l0,0c-0.5,0.7-1.2,1-2,1l0,0C898.3,386.6,897.8,386.4,897.4,386.1z M889.5,379.3L889.5,379.3
				c-1-1-1-2.6,0-3.5l0,0c1-1,2.5-1,3.5,0l0,0l0,0l0,0c1,1,1,2.5,0,3.5l0,0c-0.5,0.5-1.1,0.7-1.8,0.7l0,0
				C890.6,380,890,379.8,889.5,379.3z M882.5,371.9c-0.9-1-0.8-2.6,0.2-3.5l0,0c1-0.9,2.6-0.8,3.5,0.2l0,0c0.9,1,0.8,2.6-0.2,3.5
				l0,0c-0.5,0.4-1.1,0.6-1.6,0.6l0,0C883.7,372.7,883,372.4,882.5,371.9z M876.1,364c-0.9-1.1-0.7-2.7,0.4-3.5l0,0
				c1.1-0.9,2.7-0.6,3.5,0.4l0,0l0,0l0,0c0.9,1.1,0.7,2.7-0.4,3.5l0,0c-0.5,0.4-1,0.5-1.5,0.5l0,0C877.3,365,876.6,364.7,876.1,364z
				 M870.1,355.8c-0.8-1.1-0.5-2.7,0.7-3.5l0,0c1.1-0.8,2.7-0.5,3.5,0.7l0,0c0.8,1.1,0.5,2.7-0.7,3.5l0,0c-0.4,0.3-0.9,0.4-1.4,0.4
				l0,0C871.3,356.9,870.6,356.5,870.1,355.8z M864.7,347c-0.6-1.2-0.1-2.7,1.1-3.4l0,0c1.2-0.6,2.7-0.1,3.4,1.1l0,0
				c0.6,1.2,0.1,2.7-1.1,3.4l0,0c-0.4,0.2-0.8,0.3-1.1,0.3l0,0C866.1,348.3,865.2,347.8,864.7,347z M863.3,338.1
				c-0.9-1-0.8-2.6,0.3-3.5l0,0c1-0.9,2.6-0.8,3.5,0.3l0,0c0.9,1.1,0.8,2.6-0.3,3.5l0,0l0,0l0,0c-0.5,0.4-1,0.6-1.6,0.6l0,0
				C864.5,339,863.8,338.7,863.3,338.1z"/>
		</g>
		<g>
			<path style="fill:#6ED8C3;" d="M779.8,387.9c-0.8-1.1-0.5-2.7,0.7-3.5l0,0c1.1-0.8,2.7-0.5,3.5,0.7l0,0c0.8,1.1,0.5,2.7-0.7,3.5
				l0,0c-0.4,0.3-0.9,0.4-1.4,0.4l0,0C781,389,780.2,388.6,779.8,387.9z M776.3,377.2c-0.1-1.4,1-2.6,2.4-2.6l0,0
				c1.4-0.1,2.6,1,2.6,2.4l0,0c0.1,1.4-1,2.6-2.4,2.6l0,0c-0.1,0-0.1,0-0.1,0l0,0C777.5,379.5,776.4,378.5,776.3,377.2z
				 M779.4,369.6c-1.3-0.4-2.1-1.7-1.8-3.1l0,0c0.4-1.3,1.7-2.1,3.1-1.8l0,0c1.3,0.4,2.1,1.7,1.8,3.1l0,0c-0.3,1.1-1.3,1.8-2.4,1.8
				l0,0C779.8,369.7,779.6,369.6,779.4,369.6z M782.5,360.1c-1.2-0.6-1.8-2.1-1.2-3.3l0,0c0.6-1.2,2.1-1.8,3.3-1.2l0,0
				c1.2,0.6,1.8,2.1,1.2,3.3l0,0c-0.4,0.9-1.3,1.4-2.3,1.4l0,0C783.2,360.3,782.8,360.2,782.5,360.1z M787.1,351.2
				c-1.2-0.7-1.5-2.3-0.8-3.4l0,0c0.7-1.2,2.3-1.5,3.5-0.8l0,0c1.2,0.7,1.5,2.3,0.8,3.4l0,0c-0.5,0.8-1.3,1.2-2.1,1.2l0,0
				C788,351.6,787.5,351.5,787.1,351.2z M792.7,342.9c-1.1-0.8-1.3-2.4-0.5-3.5l0,0c0.8-1.1,2.4-1.3,3.5-0.5l0,0
				c1.1,0.9,1.3,2.4,0.5,3.5l0,0c-0.5,0.6-1.2,1-2,1l0,0C793.7,343.4,793.1,343.2,792.7,342.9z M799,335.1c-1-0.9-1.1-2.5-0.2-3.5
				l0,0c0.9-1,2.5-1.1,3.5-0.2l0,0c1,0.9,1.1,2.5,0.2,3.5l0,0l0,0l0,0c-0.5,0.5-1.2,0.8-1.8,0.8l0,0
				C800,335.7,799.4,335.5,799,335.1z M805.9,327.8c-0.9-1-0.9-2.6,0.2-3.5l0,0c1-0.9,2.6-0.9,3.5,0.2l0,0c0.9,1,0.8,2.6-0.2,3.5
				l0,0c-0.5,0.4-1.1,0.6-1.7,0.6l0,0C807,328.6,806.4,328.4,805.9,327.8z M813.5,321.3c-0.7-1.2-0.4-2.7,0.8-3.5l0,0
				c1.2-0.7,2.7-0.4,3.5,0.8l0,0c0.7,1.2,0.4,2.7-0.8,3.5l0,0c-0.4,0.3-0.9,0.4-1.3,0.4l0,0C814.8,322.5,814,322.1,813.5,321.3z
				 M822.7,319.7L822.7,319.7L822.7,319.7c-0.8-1.1-0.6-2.7,0.5-3.5l0,0c1.1-0.8,2.7-0.6,3.5,0.5l0,0c0.8,1.1,0.6,2.7-0.5,3.5l0,0
				c-0.5,0.3-1,0.5-1.5,0.5l0,0C824,320.7,823.2,320.4,822.7,319.7z"/>
		</g>
		<g>
			<path style="fill:#6ED8C3;" d="M753.1,351.8c-0.8-1.2-0.4-2.7,0.7-3.5l0,0c1.1-0.8,2.7-0.4,3.5,0.7l0,0c0.8,1.1,0.4,2.7-0.7,3.5
				l0,0c-0.4,0.3-0.9,0.4-1.4,0.4l0,0C754.4,352.9,753.6,352.5,753.1,351.8z M753,343.3c-1.3-0.4-2.1-1.7-1.8-3.1l0,0
				c0.4-1.3,1.7-2.1,3.1-1.8l0,0c1.3,0.4,2.1,1.7,1.8,3.1l0,0c-0.3,1.1-1.3,1.8-2.4,1.8l0,0C753.4,343.3,753.2,343.3,753,343.3z
				 M757,334.2c-1-0.9-1.1-2.5-0.2-3.5l0,0c0.9-1,2.5-1.1,3.5-0.2l0,0c1,0.9,1.1,2.5,0.2,3.5l0,0c-0.5,0.6-1.2,0.9-1.9,0.9l0,0
				C758,334.8,757.5,334.6,757,334.2z M764,327.1c-0.9-1.1-0.7-2.7,0.4-3.5l0,0c1.1-0.9,2.7-0.7,3.5,0.4l0,0
				c0.9,1.1,0.7,2.7-0.4,3.5l0,0c-0.5,0.4-1,0.5-1.5,0.5l0,0C765.2,328,764.5,327.7,764,327.1z M772.1,321.1
				c-0.7-1.2-0.4-2.7,0.8-3.5l0,0c1.2-0.7,2.7-0.4,3.4,0.8l0,0c0.7,1.2,0.4,2.7-0.8,3.4l0,0c-0.4,0.3-0.9,0.4-1.3,0.4l0,0
				C773.3,322.3,772.5,321.9,772.1,321.1z M780.6,315.9c-0.7-1.2-0.2-2.7,1-3.4l0,0l0,0l0,0c1.2-0.7,2.7-0.2,3.4,1l0,0
				c0.7,1.2,0.2,2.7-1,3.4l0,0c-0.4,0.2-0.8,0.3-1.2,0.3l0,0C781.9,317.2,781.1,316.8,780.6,315.9z M789.5,311.2
				c-0.6-1.2-0.1-2.7,1.2-3.3l0,0c1.2-0.6,2.7-0.1,3.3,1.2l0,0c0.6,1.2,0.1,2.7-1.2,3.3l0,0c-0.4,0.2-0.7,0.2-1.1,0.2l0,0
				C790.8,312.7,789.9,312.1,789.5,311.2z M798.5,307.1c-0.5-1.3,0.2-2.7,1.5-3.2l0,0c1.3-0.5,2.7,0.2,3.2,1.5l0,0
				c0.5,1.3-0.2,2.7-1.5,3.2l0,0c-0.3,0.1-0.6,0.1-0.9,0.1l0,0C799.9,308.7,798.9,308.1,798.5,307.1z M808.1,304
				c0-1.4,1.1-2.5,2.5-2.5l0,0c1.4,0,2.5,1.1,2.5,2.5l0,0c0,1.4-1.1,2.5-2.5,2.5l0,0l0,0l0,0C809.2,306.5,808.1,305.4,808.1,304z"/>
		</g>
		<g>
			<path style="fill:#2B2B2B;" d="M926.3,366.2c-0.6,0-1.2-0.2-1.6-0.6l-46.2-40c-1-0.9-1.2-2.5-0.3-3.5s2.5-1.2,3.5-0.3l46.2,40
				c1,0.9,1.2,2.5,0.3,3.5C927.7,365.9,927,366.2,926.3,366.2z"/>
		</g>
	</g>
	
		<linearGradient id="SVGID_8_" gradientUnits="userSpaceOnUse" x1="772" y1="1258.062" x2="772" y2="1155.3607" gradientTransform="matrix(1 0 0 -1 0 1392)">
		<stop  offset="0" style="stop-color:#FFE0C2"/>
		<stop  offset="0.401" style="stop-color:#7AAEFC"/>
		<stop  offset="0.5908" style="stop-color:#B8C1FC"/>
		<stop  offset="1" style="stop-color:#D2D4D4"/>
	</linearGradient>
	<circle style="fill:url(#SVGID_8_);" cx="772" cy="188" r="14.9"/>
	<g>
		<path style="fill:#85B1FC;" d="M621.9,533.4l-16,28.6c-7.4,13.2-24.1,17.9-37.3,10.5C557,566,551.9,552.2,556,540l10.9-32.9"/>
		<g>
			<path style="fill:#FFFFFF;" d="M621.9,533.4c-7.4,13.1-59.6-15.6-55.1-26.4"/>
			<path style="fill:#2B2B2B;" d="M614.2,539.3c-8.5,0-19.4-4.9-23.6-7c-10.6-5.2-29.8-17.4-26.1-26.3c0.5-1.3,2-1.9,3.3-1.3
				c1.3,0.5,1.9,2,1.3,3.3c-1.1,2.7,7.7,12.1,23.7,19.9c13.4,6.5,24.7,8.4,26.9,4.4c0.7-1.2,2.2-1.6,3.4-0.9
				c1.2,0.7,1.6,2.2,0.9,3.4C622.2,538,618.5,539.3,614.2,539.3z"/>
		</g>
		<g>
			<path style="fill:#FFFFFF;" d="M566.9,507c4.6-10.8,92.3-217.5,92.3-217.5c9.8-18.5,38.2-28.1,56.7-18.3
				c18.5,9.8,25.5,32.8,15.6,51.3c0,0-102.2,197.8-109.6,210.9"/>
			<path style="fill:#6ED8C3;" d="M624.1,534.6l-4.4-2.5c7.3-12.9,108.5-208.8,109.6-210.8c4.5-8.4,5.4-18,2.7-27.1
				c-2.8-9-8.9-16.5-17.2-20.9c-8.2-4.3-19-4.8-29.7-1.3c-10.6,3.5-19.2,10.2-23.6,18.5c-2.4,5.5-87.8,206.8-92.3,217.4l-4.6-2
				c4.5-10.7,91.4-215.4,92.3-217.5c0-0.1,0.1-0.1,0.1-0.2c5-9.4,14.7-17.1,26.5-21c12-3.9,24.2-3.3,33.6,1.6
				c9.5,5,16.5,13.5,19.7,23.8s2.1,21.3-3,30.9C729.5,331.7,631.4,521.6,624.1,534.6z"/>
		</g>
		<g>
			<path style="fill:#2B2B2B;" d="M664.3,438.3c-0.5,0-1-0.1-1.4-0.5l-13.4-9.5c-1.1-0.8-1.4-2.4-0.6-3.5s2.4-1.4,3.5-0.6l13.4,9.5
				c1.1,0.8,1.4,2.4,0.6,3.5C665.9,437.9,665.1,438.3,664.3,438.3z"/>
		</g>
		<g>
			<g>
				<path style="fill:#6ED8C3;" d="M627.3,513.5c-1.4-0.2-2.3-1.5-2.1-2.8l0,0c0.2-1.4,1.4-2.3,2.8-2.1l0,0c1.4,0.2,2.3,1.5,2.1,2.8
					l0,0c-0.2,1.2-1.2,2.1-2.5,2.1l0,0C627.5,513.5,627.4,513.5,627.3,513.5z M617.1,510.8L617.1,510.8c-1.3-0.5-2-1.9-1.5-3.2l0,0
					c0.5-1.3,1.9-2,3.2-1.5l0,0l0,0l0,0c1.3,0.5,2,1.9,1.5,3.2l0,0c-0.4,1-1.3,1.7-2.4,1.7l0,0C617.7,511,617.4,510.9,617.1,510.8z
					 M607.6,506.9L607.6,506.9c-1.2-0.6-1.8-2.1-1.2-3.3l0,0c0.6-1.3,2.1-1.8,3.3-1.2l0,0c1.2,0.6,1.8,2.1,1.2,3.3l0,0
					c-0.4,0.9-1.3,1.5-2.3,1.5l0,0C608.3,507.1,608,507.1,607.6,506.9z M598.5,502.3c-1.2-0.7-1.7-2.2-1-3.4l0,0
					c0.7-1.2,2.2-1.7,3.4-1l0,0c1.2,0.7,1.7,2.2,1,3.4l0,0c-0.5,0.8-1.3,1.3-2.2,1.3l0,0C599.3,502.6,598.9,502.5,598.5,502.3z
					 M589.8,497.1L589.8,497.1c-1.2-0.8-1.5-2.3-0.8-3.5l0,0c0.8-1.2,2.3-1.5,3.5-0.8l0,0l0,0l0,0c1.2,0.8,1.5,2.3,0.7,3.5l0,0
					c-0.5,0.7-1.3,1.2-2.1,1.2l0,0C590.6,497.5,590.2,497.4,589.8,497.1z M581.4,491.1c-1.1-0.9-1.2-2.5-0.3-3.5l0,0
					c0.9-1.1,2.5-1.2,3.5-0.3l0,0c1,0.9,1.2,2.5,0.3,3.5l0,0c-0.5,0.6-1.2,0.9-1.9,0.9l0,0C582.4,491.7,581.9,491.5,581.4,491.1z
					 M576.8,483.5c-1.3-0.5-1.8-2-1.3-3.3l0,0c0.5-1.3,2-1.9,3.3-1.3l0,0c1.3,0.5,1.9,2,1.3,3.3l0,0l0,0l0,0c-0.4,1-1.3,1.5-2.3,1.5
					l0,0C577.5,483.7,577.1,483.6,576.8,483.5z"/>
			</g>
			<g>
				<path style="fill:#6ED8C3;" d="M654.2,454.7c-1.2-0.6-1.8-2.1-1.2-3.3l0,0c0.6-1.2,2.1-1.8,3.3-1.2l0,0c1.2,0.6,1.8,2.1,1.2,3.3
					l0,0c-0.4,0.9-1.3,1.4-2.3,1.4l0,0C655,454.9,654.6,454.8,654.2,454.7z M645.2,450.4c-1.2-0.6-1.8-2.1-1.2-3.3l0,0
					c0.6-1.2,2.1-1.8,3.3-1.2l0,0c1.2,0.6,1.8,2.1,1.2,3.3l0,0c-0.4,0.9-1.3,1.4-2.3,1.4l0,0C645.9,450.6,645.5,450.5,645.2,450.4z
					 M636.1,446c-1.2-0.6-1.8-2.1-1.2-3.3l0,0c0.6-1.2,2.1-1.8,3.3-1.2l0,0c1.2,0.6,1.8,2.1,1.2,3.3l0,0c-0.4,0.9-1.3,1.4-2.3,1.4
					l0,0C636.8,446.3,636.5,446.2,636.1,446z M627.1,441.7L627.1,441.7c-1.2-0.6-1.8-2.1-1.2-3.3l0,0c0.6-1.2,2.1-1.8,3.3-1.2l0,0
					c1.2,0.6,1.8,2.1,1.2,3.3l0,0c-0.4,0.9-1.3,1.4-2.3,1.4l0,0C627.8,442,627.4,441.9,627.1,441.7z M618,437.4
					c-1.2-0.6-1.8-2.1-1.2-3.3l0,0c0.6-1.2,2.1-1.8,3.3-1.2l0,0c1.2,0.6,1.8,2.1,1.2,3.3l0,0c-0.4,0.9-1.3,1.4-2.3,1.4l0,0
					C618.8,437.7,618.4,437.6,618,437.4z M609,433.2c-1.2-0.6-1.8-2.1-1.2-3.3l0,0c0.6-1.3,2.1-1.8,3.3-1.2l0,0
					c1.2,0.6,1.8,2.1,1.2,3.3l0,0c-0.4,0.9-1.3,1.5-2.3,1.5l0,0C609.7,433.4,609.3,433.3,609,433.2z M599.8,429.3
					c-1.3-0.5-1.8-2-1.3-3.3l0,0l0,0l0,0c0.5-1.3,2-1.9,3.3-1.3l0,0c1.3,0.6,1.9,2,1.3,3.3l0,0c-0.4,0.9-1.3,1.5-2.3,1.5l0,0
					C600.5,429.5,600.1,429.4,599.8,429.3z"/>
			</g>
			<g>
				<path style="fill:#6ED8C3;" d="M685.6,398c-1-0.9-1.1-2.5-0.2-3.5l0,0c0.9-1,2.5-1.1,3.5-0.2l0,0c1,0.9,1.1,2.5,0.2,3.5l0,0
					c-0.5,0.5-1.2,0.8-1.8,0.8l0,0C686.7,398.6,686.1,398.4,685.6,398z M677.8,392.4c-1.2-0.7-1.5-2.3-0.8-3.4l0,0
					c0.7-1.2,2.3-1.5,3.4-0.8l0,0c1.2,0.7,1.5,2.3,0.8,3.4l0,0c-0.5,0.8-1.3,1.2-2.1,1.2l0,0C678.7,392.8,678.3,392.7,677.8,392.4z
					 M669.3,387.6c-1.2-0.6-1.7-2.2-1.1-3.4l0,0c0.6-1.2,2.1-1.7,3.4-1.1l0,0c1.2,0.6,1.7,2.1,1.1,3.4l0,0c-0.4,0.8-1.3,1.3-2.2,1.3
					l0,0C670.1,387.8,669.7,387.8,669.3,387.6z M660.4,383.2c-1.3-0.6-1.8-2-1.2-3.3l0,0c0.6-1.2,2-1.8,3.3-1.2l0,0
					c1.3,0.6,1.8,2.1,1.2,3.3l0,0c-0.4,0.9-1.3,1.5-2.3,1.5l0,0C661.1,383.4,660.8,383.4,660.4,383.2z M651.3,379.4L651.3,379.4
					c-1.3-0.5-1.9-2-1.4-3.2l0,0c0.5-1.3,1.9-1.9,3.2-1.4l0,0l0,0l0,0c1.3,0.5,1.9,1.9,1.4,3.2l0,0c-0.4,1-1.3,1.6-2.3,1.6l0,0
					C651.9,379.5,651.6,379.5,651.3,379.4z M642,376c-1.3-0.4-2-1.8-1.6-3.1l0,0c0.4-1.3,1.8-2.1,3.1-1.6l0,0c1.3,0.4,2,1.8,1.6,3.1
					l0,0c-0.3,1.1-1.3,1.8-2.4,1.8l0,0C642.5,376.2,642.3,376.1,642,376z M622.8,375.1c-1.3-0.5-1.9-2-1.3-3.3l0,0
					c0.5-1.3,2-1.9,3.3-1.3l0,0c1.3,0.5,1.9,2,1.3,3.3l0,0c-0.4,0.9-1.3,1.5-2.3,1.5l0,0C623.5,375.3,623.1,375.2,622.8,375.1z
					 M632.7,373.7c-1.4-0.2-2.3-1.5-2.1-2.9l0,0c0.2-1.4,1.5-2.3,2.9-2.1l0,0c1.4,0.2,2.3,1.5,2.1,2.9l0,0c-0.2,1.2-1.3,2.1-2.5,2.1
					l0,0C633,373.7,632.8,373.7,632.7,373.7z"/>
			</g>
			<g>
				<path style="fill:#6ED8C3;" d="M716.9,342.9L716.9,342.9c0-1.4,1-2.5,2.4-2.6l0,0c1.4,0,2.5,1,2.6,2.4l0,0c0,1.4-1,2.5-2.4,2.6
					l0,0h-0.1l0,0C718,345.3,716.9,344.3,716.9,342.9z M714.1,334.7c-0.7-1.2-0.3-2.7,0.9-3.4l0,0c1.2-0.7,2.7-0.3,3.4,0.9l0,0l0,0
					l0,0c0.7,1.2,0.3,2.7-0.9,3.4l0,0c-0.4,0.2-0.8,0.3-1.2,0.3l0,0C715.4,335.9,714.6,335.5,714.1,334.7z M708.4,327.3
					c-1-1-1-2.6,0-3.5l0,0c1-1,2.6-1,3.5,0l0,0c1,1,1,2.6,0,3.5l0,0c-0.5,0.5-1.1,0.7-1.8,0.7l0,0
					C709.5,328,708.9,327.8,708.4,327.3z M701.1,321.3L701.1,321.3c-1.1-0.8-1.5-2.3-0.7-3.5l0,0c0.8-1.1,2.3-1.5,3.5-0.7l0,0
					c1.1,0.8,1.5,2.3,0.7,3.5l0,0c-0.5,0.7-1.3,1.1-2.1,1.1l0,0C702,321.7,701.5,321.6,701.1,321.3z M645.8,320.8
					c-1.3-0.5-1.9-2-1.3-3.3l0,0l0,0l0,0c0.5-1.3,2-1.9,3.3-1.3l0,0c1.3,0.5,1.9,2,1.3,3.3l0,0c-0.4,0.9-1.3,1.5-2.3,1.5l0,0
					C646.5,321,646.1,320.9,645.8,320.8z M692.7,316.8L692.7,316.8c-1.3-0.5-1.9-2-1.3-3.3l0,0c0.5-1.3,2-1.9,3.3-1.3l0,0
					c1.3,0.5,1.9,2,1.3,3.3l0,0c-0.4,0.9-1.3,1.5-2.3,1.5l0,0C693.3,317,693,316.9,692.7,316.8z M652.1,313.4
					c-0.5-1.3,0.2-2.7,1.5-3.2l0,0c1.3-0.5,2.7,0.2,3.2,1.5l0,0c0.5,1.3-0.2,2.7-1.5,3.2l0,0c-0.3,0.1-0.6,0.2-0.9,0.2l0,0
					C653.5,315,652.5,314.4,652.1,313.4z M683.6,314c-1.3-0.3-2.2-1.6-1.9-3l0,0c0.3-1.4,1.6-2.2,3-1.9l0,0c1.4,0.3,2.2,1.6,1.9,3
					l0,0c-0.2,1.2-1.3,2-2.4,2l0,0C684,314,683.8,314,683.6,314z M661.7,310.6c-0.1-1.4,0.8-2.6,2.2-2.7l0,0
					c1.4-0.1,2.6,0.9,2.7,2.2l0,0c0.1,1.4-0.9,2.6-2.2,2.8l0,0c-0.1,0-0.2,0-0.3,0l0,0C663,312.9,661.9,311.9,661.7,310.6z
					 M674.1,312.7L674.1,312.7c-1.4-0.1-2.4-1.3-2.3-2.6l0,0c0.1-1.4,1.3-2.4,2.6-2.4l0,0l0,0l0,0c1.4,0.1,2.4,1.3,2.4,2.6l0,0
					c-0.1,1.3-1.2,2.4-2.5,2.4l0,0C674.2,312.7,674.1,312.7,674.1,312.7z"/>
			</g>
		</g>
	</g>
	<path style="opacity:0.56;fill:#C3B5FE;enable-background:new    ;" d="M673.1,342.3c1,17.5-18.4,60-26.2,72
		c-6.4,9.9-33.4,86.2-42.8,113.1c-1.8,5.1,1.9,10.6,7.3,10.7c4.8,0.1,9.8-0.6,11.5-3.8c3.7-6.8,76.6-149.1,76.6-149.1L673.1,342.3z"
		/>
	
		<linearGradient id="SVGID_9_" gradientUnits="userSpaceOnUse" x1="-12447.9238" y1="1017.5281" x2="-12447.9238" y2="592.0805" gradientTransform="matrix(-1 0 0 -1 -11715.0918 1392)">
		<stop  offset="0" style="stop-color:#FFE0C2"/>
		<stop  offset="0.401" style="stop-color:#7AAEFC"/>
		<stop  offset="0.5908" style="stop-color:#B8C1FC"/>
		<stop  offset="1" style="stop-color:#D2D4D4"/>
	</linearGradient>
	<path style="fill:url(#SVGID_9_);" d="M787.7,373.8c9.2,26.8-4.3,63.3-34.4,62c-23.2-1-24.9-0.1-34.7-0.5c-31-1.3-51-33.8-40.8-63
		L787.7,373.8z"/>
	<g>
		<g>
			<path style="fill:#6ED8C3;" d="M794,347.9c-0.2,0-0.3,0-0.5-0.1c-0.2,0-0.3-0.1-0.5-0.1c-0.2-0.1-0.3-0.1-0.4-0.2
				c-0.1-0.1-0.3-0.2-0.4-0.3c-0.5-0.5-0.7-1.1-0.7-1.8s0.3-1.3,0.7-1.8c0.1-0.1,0.2-0.2,0.4-0.3c0.1-0.1,0.3-0.2,0.4-0.2
				c0.1-0.1,0.3-0.1,0.5-0.1c0.8-0.2,1.7,0.1,2.3,0.7c0.5,0.5,0.7,1.1,0.7,1.8s-0.3,1.3-0.7,1.8C795.3,347.6,794.7,347.9,794,347.9z
				"/>
		</g>
		<g>
			<path style="fill:#6ED8C3;" d="M784.8,366.1c-1.4,0-2.5-1.2-2.5-2.6l0,0c0-1.4,1.2-2.5,2.5-2.4l0,0c1.4,0,2.5,1.2,2.5,2.5l0,0
				l0,0l0,0C787.3,365,786.2,366.1,784.8,366.1L784.8,366.1L784.8,366.1z M786.5,355.9c-1.2-0.7-1.5-2.2-0.8-3.4l0,0
				c0.7-1.2,2.2-1.6,3.4-0.8l0,0c1.2,0.7,1.5,2.2,0.8,3.4l0,0c-0.5,0.8-1.3,1.2-2.1,1.2l0,0C787.3,356.3,786.9,356.2,786.5,355.9z"
				/>
		</g>
		<g>
			<path style="fill:#6ED8C3;" d="M786.7,376.3c-0.2,0-0.3,0-0.5,0s-0.3-0.1-0.5-0.1c-0.2-0.1-0.3-0.1-0.4-0.2
				c-0.1-0.1-0.3-0.2-0.4-0.3c-0.5-0.5-0.7-1.1-0.7-1.8s0.3-1.3,0.7-1.8c0.1-0.1,0.2-0.2,0.4-0.3c0.1-0.1,0.3-0.2,0.4-0.2
				c0.1-0.1,0.3-0.1,0.5-0.1c0.8-0.2,1.7,0.1,2.3,0.7c0.5,0.5,0.7,1.1,0.7,1.8c0,0.2,0,0.3-0.1,0.5c0,0.2-0.1,0.3-0.1,0.5
				c-0.1,0.1-0.1,0.3-0.2,0.4c-0.1,0.1-0.2,0.3-0.3,0.4C788,376,787.4,376.3,786.7,376.3z"/>
		</g>
		<g>
			<path style="fill:#6ED8C3;" d="M774.3,373.8c0-1.4,1.1-2.5,2.5-2.5l0,0c1.4,0,2.5,1.1,2.5,2.5l0,0c0,1.4-1.1,2.5-2.5,2.5l0,0
				C775.4,376.3,774.3,375.2,774.3,373.8z M764.3,373.8c0-1.4,1.1-2.5,2.5-2.5l0,0c1.4,0,2.5,1.1,2.5,2.5l0,0c0,1.4-1.1,2.5-2.5,2.5
				l0,0C765.5,376.3,764.3,375.2,764.3,373.8z M754.4,373.8c0-1.4,1.1-2.5,2.5-2.5l0,0c1.4,0,2.5,1.1,2.5,2.5l0,0
				c0,1.4-1.1,2.5-2.5,2.5l0,0C755.5,376.3,754.4,375.2,754.4,373.8z M744.4,373.8c0-1.4,1.1-2.5,2.5-2.5l0,0c1.4,0,2.5,1.1,2.5,2.5
				l0,0c0,1.4-1.1,2.5-2.5,2.5l0,0C745.5,376.3,744.4,375.2,744.4,373.8z M734.4,373.8c0-1.4,1.1-2.5,2.5-2.5l0,0
				c1.4,0,2.5,1.1,2.5,2.5l0,0c0,1.4-1.1,2.5-2.5,2.5l0,0C735.6,376.3,734.4,375.2,734.4,373.8z M724.5,373.8c0-1.4,1.1-2.5,2.5-2.5
				l0,0c1.4,0,2.5,1.1,2.5,2.5l0,0c0,1.4-1.1,2.5-2.5,2.5l0,0C725.6,376.3,724.5,375.2,724.5,373.8z M714.5,373.8
				c0-1.4,1.1-2.5,2.5-2.5l0,0c1.4,0,2.5,1.1,2.5,2.5l0,0c0,1.4-1.1,2.5-2.5,2.5l0,0C715.6,376.3,714.5,375.2,714.5,373.8z
				 M704.6,373.8c0-1.4,1.1-2.5,2.5-2.5l0,0c1.4,0,2.5,1.1,2.5,2.5l0,0c0,1.4-1.1,2.5-2.5,2.5l0,0
				C705.7,376.3,704.6,375.2,704.6,373.8z M694.6,373.8c0-1.4,1.1-2.5,2.5-2.5l0,0c1.4,0,2.5,1.1,2.5,2.5l0,0c0,1.4-1.1,2.5-2.5,2.5
				l0,0C695.7,376.3,694.6,375.2,694.6,373.8z M684.6,373.8c0-1.4,1.1-2.5,2.5-2.5l0,0c1.4,0,2.5,1.1,2.5,2.5l0,0
				c0,1.4-1.1,2.5-2.5,2.5l0,0C685.8,376.3,684.6,375.2,684.6,373.8z"/>
		</g>
		<g>
			<path style="fill:#6ED8C3;" d="M677.1,376.3c-0.2,0-0.3,0-0.5,0s-0.3-0.1-0.5-0.1c-0.1-0.1-0.3-0.1-0.4-0.2
				c-0.1-0.1-0.3-0.2-0.4-0.3c-0.1-0.1-0.2-0.2-0.3-0.4c-0.1-0.1-0.2-0.3-0.2-0.4c-0.1-0.2-0.1-0.3-0.1-0.5s0-0.3,0-0.5s0-0.3,0-0.5
				s0.1-0.3,0.1-0.5c0.1-0.1,0.1-0.3,0.2-0.4c0.1-0.1,0.2-0.3,0.3-0.4c0.6-0.6,1.4-0.8,2.3-0.7c0.2,0,0.3,0.1,0.5,0.1
				c0.2,0.1,0.3,0.1,0.4,0.2c0.1,0.1,0.3,0.2,0.4,0.3c0.1,0.1,0.2,0.2,0.3,0.4c0.1,0.1,0.2,0.3,0.2,0.4c0.1,0.1,0.1,0.3,0.1,0.5
				s0,0.3,0,0.5s0,0.3,0,0.5s-0.1,0.3-0.1,0.5c-0.1,0.1-0.1,0.3-0.2,0.4c-0.1,0.1-0.2,0.3-0.3,0.4s-0.2,0.2-0.4,0.3
				c-0.1,0.1-0.3,0.2-0.4,0.2c-0.2,0.1-0.3,0.1-0.5,0.1C677.4,376.3,677.3,376.3,677.1,376.3z"/>
		</g>
		<g>
			<path style="fill:#6ED8C3;" d="M679,367.8c-1.3-0.3-2.2-1.7-1.9-3l0,0c0.3-1.4,1.7-2.2,3-1.9l0,0c1.3,0.3,2.2,1.7,1.9,3l0,0
				c-0.3,1.2-1.3,1.9-2.4,1.9l0,0C679.4,367.9,679.2,367.9,679,367.8z"/>
		</g>
		<g>
			<path style="fill:#6ED8C3;" d="M680.7,359.2c-0.2,0-0.3,0-0.5,0s-0.3-0.1-0.5-0.1c-0.2-0.1-0.3-0.1-0.4-0.2
				c-0.1-0.1-0.3-0.2-0.4-0.3c-0.1-0.1-0.2-0.2-0.3-0.4c-0.1-0.1-0.2-0.3-0.2-0.4c-0.1-0.1-0.1-0.3-0.1-0.5s0-0.3,0-0.5s0-0.3,0-0.5
				s0.1-0.3,0.1-0.5c0.1-0.1,0.1-0.3,0.2-0.4c0.1-0.1,0.2-0.3,0.3-0.4s0.2-0.2,0.4-0.3c0.1-0.1,0.3-0.2,0.4-0.2
				c0.1-0.1,0.3-0.1,0.5-0.1c0.8-0.2,1.7,0.1,2.3,0.7c0.1,0.1,0.2,0.2,0.3,0.4c0.1,0.1,0.2,0.3,0.2,0.4s0.1,0.3,0.1,0.5
				s0.1,0.3,0.1,0.5s0,0.3-0.1,0.5c0,0.2-0.1,0.3-0.1,0.5c-0.1,0.2-0.1,0.3-0.2,0.4c-0.1,0.1-0.2,0.3-0.3,0.4
				C682,358.9,681.4,359.2,680.7,359.2z"/>
		</g>
	</g>
	<g>
		<path style="fill:#FFFFFF;" d="M677.5,273.8c10.4-10,25.1-17.2,43.2-16.5l29.1,1.9c15.9,0.6,29.9,7.9,40.2,17.9"/>
		<path style="fill:#6ED8C3;" d="M790,279.6c-0.6,0-1.3-0.2-1.7-0.7c-10.9-10.6-24.6-16.7-38.6-17.2l-29.2-1.9
			c-19.7-0.8-33.4,8.2-41.3,15.8c-1,1-2.6,0.9-3.5-0.1c-1-1-0.9-2.6,0.1-3.5c12.2-11.7,28.2-17.9,45-17.2l29.2,1.9
			c15.2,0.6,30,7.2,41.8,18.6c1,1,1,2.5,0.1,3.5C791.3,279.3,790.7,279.6,790,279.6z"/>
	</g>
	<path style="fill:#FFFFFF;" d="M792.5,325.2c0,39.4-24.6,76.1-60,76.1s-57.3-41.8-57.3-81.2s21.9-61.5,57.3-61.5
		C767.9,258.6,792.5,285.8,792.5,325.2z"/>
	<polygon style="fill:#6ED8C3;" points="706.6,258.4 733.7,382 760.6,260.3 	"/>
	
		<linearGradient id="SVGID_10_" gradientUnits="userSpaceOnUse" x1="699.5" y1="1258.062" x2="699.5" y2="1155.3607" gradientTransform="matrix(1 0 0 -1 0 1392)">
		<stop  offset="0" style="stop-color:#FFE0C2"/>
		<stop  offset="0.401" style="stop-color:#7AAEFC"/>
		<stop  offset="0.5908" style="stop-color:#B8C1FC"/>
		<stop  offset="1" style="stop-color:#D2D4D4"/>
	</linearGradient>
	<circle style="fill:url(#SVGID_10_);" cx="699.5" cy="185.2" r="14.9"/>
	<path style="fill:#2B2B2B;" d="M717.8,280.4l-25.6-16.9c0,0,10.6-6.7,28.5-6.1L717.8,280.4z"/>
	
		<linearGradient id="SVGID_11_" gradientUnits="userSpaceOnUse" x1="733.61" y1="1097.7288" x2="733.61" y2="1227.2528" gradientTransform="matrix(1 0 0 -1 0 1392)">
		<stop  offset="0" style="stop-color:#FFE0C2"/>
		<stop  offset="0.401" style="stop-color:#7AAEFC"/>
		<stop  offset="0.5908" style="stop-color:#B8C1FC"/>
		<stop  offset="1" style="stop-color:#D2D4D4"/>
	</linearGradient>
	<path style="fill:url(#SVGID_11_);" d="M757.5,262.7l-0.7-70.3l-42.3-1.5l-4.7,70.1c-1.1,13.2,9.2,24.6,22.5,24.8h1.8
		C747,286.1,757.6,275.6,757.5,262.7z"/>
	<g>
		<path style="fill:#2B2B2B;" d="M709.8,261c-0.3,3.2,0.1,6.4,1.2,9.4c1,3,2.7,5.8,4.9,8.1c2.2,2.3,4.8,4.2,7.7,5.5s6.1,1.9,9.2,1.9
			c0.8,0,1.6,0,2.4,0h1.2c0.4,0,0.8-0.1,1.2-0.1l1.2-0.2c0.4-0.1,0.8-0.2,1.2-0.3l1.2-0.3l1.1-0.4c3-1.1,5.7-2.7,8.1-4.9
			c4.7-4.3,7.4-10.6,7.3-17l5-0.1c0,3.8-0.7,7.7-2.2,11.3c-1.5,3.6-3.8,6.8-6.6,9.4s-6.2,4.7-9.8,6l-1.4,0.5l-1.4,0.3
			c-0.5,0.1-0.9,0.2-1.4,0.3l-1.4,0.2c-0.5,0.1-1,0.1-1.4,0.2l-1.4,0.1h-1.4h-1.2h-0.6h-0.7l-1.4-0.1l-0.7-0.1l-0.7-0.1l-1.4-0.3
			c-1.9-0.4-3.7-1-5.5-1.7c-3.5-1.5-6.8-3.8-9.4-6.6c-2.6-2.8-4.7-6.2-5.9-9.8c-1.3-3.7-1.7-7.6-1.4-11.4L709.8,261z"/>
	</g>
	<polygon style="fill:#2B2B2B;" points="720.7,230.9 757.1,251.5 757.4,223.7 	"/>
	
		<linearGradient id="XMLID_4_" gradientUnits="userSpaceOnUse" x1="734.8499" y1="1097.7288" x2="734.8499" y2="1227.2528" gradientTransform="matrix(1 0 0 -1 0 1392)">
		<stop  offset="0" style="stop-color:#FFE0C2"/>
		<stop  offset="0.401" style="stop-color:#7AAEFC"/>
		<stop  offset="0.5908" style="stop-color:#B8C1FC"/>
		<stop  offset="1" style="stop-color:#D2D4D4"/>
	</linearGradient>
	<path id="XMLID_110_" style="fill:url(#XMLID_4_);" d="M734.9,233.8L734.9,233.8c18.6,0,34.2-14.1,36.2-32.6l3.5-32.4
		c0-22-17.9-39.8-39.8-39.7l0,0c-22,0-39.8,17.9-39.7,39.8l3.6,32.4C700.6,219.9,716.3,233.9,734.9,233.8z"/>
	<g>
		<path style="fill:#2B2B2B;" d="M733.7,192.9c-0.5,0-0.9-0.2-1.1-0.7c-0.3-0.6-0.1-1.4,0.5-1.7l3.7-2c0.4-0.3,0.7-0.8,0.7-1.2
			c0.1-0.5-0.1-0.9-0.3-1.3c-2.2-2.8-3.3-6.5-3.1-10.4l0.1-1.1c0.1-0.7,0.7-1.2,1.4-1.1c0.7,0.1,1.2,0.7,1.1,1.4l-0.1,1.1
			c-0.2,3.2,0.7,6.3,2.5,8.6c0.7,0.9,1,2.1,0.9,3.2c-0.2,1.2-0.8,2.3-1.8,3l-0.1,0.1l-3.8,2C734.1,192.8,733.9,192.9,733.7,192.9z"
			/>
	</g>
	<path style="fill:#FFFFFF;" d="M741.2,203.6c-1,10.1-12.2,7.3-12.2,0H741.2z"/>
	<g>
		<path style="fill:#FFFFFF;" d="M793,390.3c8.4,17.3,35.6,155.3,40.2,200.6c4.6,45.3,29.7,267.5,30,272.4l-67.8,6.3
			c0,0-62.7-270.7-68.9-288.5l-33.9-190.7H793V390.3z"/>
		<path style="fill:#6ED8C3;" d="M793.5,872.3l-0.5-2.1c-0.6-2.7-62.7-270.8-68.8-288.2l-0.1-0.4L689.7,388h100.9v-8.5l4.7,9.8
			c8.7,17.9,36,158,40.4,201.4c2.6,26,12.1,110.6,19.6,178.5c5.7,51.3,10.2,91.8,10.4,94l0.1,2.4L793.5,872.3z M728.9,580.5
			c6.3,18.6,62.1,259.3,68.4,286.4l63.1-5.9c-1-9.9-5.3-48-10.1-91.3c-7.6-68-17-152.5-19.6-178.6c-4.7-46-30.7-176.5-39.3-198.3
			h-95.8L728.9,580.5z"/>
	</g>
	<g>
		<g>
			<path style="fill:#6ED8C3;" d="M742.1,542.9c-0.7,0-1.3-0.3-1.8-0.7c-0.5-0.5-0.7-1.1-0.7-1.8c0-0.2,0-0.3,0-0.5s0.1-0.3,0.1-0.5
				c0.1-0.1,0.1-0.3,0.2-0.4c0.1-0.1,0.2-0.3,0.3-0.4c0.1-0.1,0.2-0.2,0.4-0.3c0.1-0.1,0.3-0.2,0.4-0.2c0.2-0.1,0.3-0.1,0.5-0.1
				c0.8-0.2,1.7,0.1,2.3,0.7c0.1,0.1,0.2,0.2,0.3,0.4c0.1,0.1,0.2,0.3,0.2,0.4c0.1,0.1,0.1,0.3,0.1,0.5s0,0.3,0,0.5s0,0.3,0,0.5
				s-0.1,0.3-0.1,0.5c-0.1,0.2-0.1,0.3-0.2,0.4c-0.1,0.1-0.2,0.3-0.3,0.4C743.4,542.6,742.8,542.9,742.1,542.9z"/>
		</g>
		<g>
			<path style="fill:#6ED8C3;" d="M749,539.6c-0.2-1.4,0.7-2.6,2.1-2.8l0,0c1.4-0.2,2.6,0.8,2.8,2.1l0,0c0.2,1.4-0.8,2.6-2.1,2.8
				l0,0c-0.1,0-0.2,0-0.4,0l0,0C750.3,541.7,749.2,540.8,749,539.6z M758.4,538.1c-0.3-1.3,0.6-2.7,2-2.9l0,0c1.4-0.3,2.7,0.6,2.9,2
				l0,0c0.3,1.4-0.6,2.7-2,2.9l0,0c-0.2,0-0.3,0-0.5,0l0,0C759.7,540.1,758.6,539.3,758.4,538.1z M767.7,536.2
				c-0.3-1.4,0.5-2.7,1.9-3l0,0c1.3-0.3,2.7,0.5,3,1.9l0,0c0.3,1.3-0.5,2.7-1.9,3l0,0c-0.2,0-0.4,0.1-0.6,0.1l0,0
				C769,538.1,768,537.3,767.7,536.2z M777,533.9c-0.4-1.3,0.4-2.7,1.8-3.1l0,0c1.3-0.4,2.7,0.4,3.1,1.8l0,0
				c0.4,1.3-0.4,2.7-1.8,3.1l0,0c-0.2,0.1-0.4,0.1-0.7,0.1l0,0C778.3,535.8,777.2,535.1,777,533.9z M786.1,531.3
				c-0.4-1.3,0.3-2.7,1.6-3.1l0,0c1.3-0.4,2.7,0.3,3.1,1.6l0,0c0.4,1.3-0.3,2.7-1.6,3.1l0,0c-0.2,0.1-0.5,0.1-0.8,0.1l0,0
				C787.4,533.1,786.4,532.4,786.1,531.3z M795.1,528.4c-0.5-1.3,0.2-2.7,1.5-3.2l0,0c1.3-0.5,2.7,0.2,3.2,1.5l0,0
				c0.5,1.3-0.2,2.7-1.5,3.2l0,0c-0.3,0.1-0.6,0.2-0.9,0.2l0,0C796.4,530,795.5,529.4,795.1,528.4z M804,524.9
				c-0.6-1.2,0-2.7,1.2-3.3l0,0c1.2-0.6,2.7,0,3.3,1.2l0,0c0.6,1.3,0,2.7-1.2,3.3l0,0c-0.3,0.2-0.7,0.2-1,0.2l0,0
				C805.3,526.4,804.4,525.8,804,524.9z M812.5,520.7c-0.8-1.1-0.5-2.7,0.7-3.5l0,0l0,0l0,0c1.1-0.8,2.7-0.5,3.5,0.6l0,0
				c0.8,1.1,0.5,2.7-0.6,3.5l0,0c-0.4,0.3-0.9,0.4-1.4,0.4l0,0C813.7,521.8,813,521.4,812.5,520.7z"/>
		</g>
		<g>
			<path style="fill:#6ED8C3;" d="M819.8,514.5c-0.2,0-0.3,0-0.5-0.1c-0.2,0-0.3-0.1-0.5-0.1c-0.2-0.1-0.3-0.1-0.4-0.2
				c-0.1-0.1-0.3-0.2-0.4-0.3c-0.5-0.5-0.7-1.1-0.7-1.8s0.3-1.3,0.7-1.8c0.1-0.1,0.2-0.2,0.4-0.3c0.1-0.1,0.3-0.2,0.4-0.2
				s0.3-0.1,0.5-0.1c0.3-0.1,0.7-0.1,1,0c0.2,0,0.3,0.1,0.5,0.1s0.3,0.1,0.4,0.2c0.1,0.1,0.3,0.2,0.4,0.3c0.1,0.1,0.2,0.2,0.3,0.4
				c0.1,0.1,0.2,0.3,0.2,0.4c0.1,0.1,0.1,0.3,0.1,0.5s0,0.3,0,0.5s0,0.3,0,0.5s-0.1,0.3-0.1,0.5c-0.1,0.1-0.1,0.3-0.2,0.4
				c-0.1,0.1-0.2,0.3-0.3,0.4c-0.1,0.1-0.2,0.2-0.4,0.3c-0.1,0.1-0.3,0.2-0.4,0.2c-0.2,0.1-0.3,0.1-0.5,0.1
				C820.1,514.5,820,514.5,819.8,514.5z"/>
		</g>
	</g>
	<g>
		<path style="fill:#FFFFFF;" d="M732.1,581c-6.2,17.8-83.6,288.5-83.6,288.5l-67.8-6.3c0.3-4.9,40.2-227.1,44.8-272.4
			s43.9-201.3,52.3-218.7h55.9"/>
		<path style="fill:#6ED8C3;" d="M650.3,872.2l-72.3-6.7l0.1-2.4c0.1-1.5,2.8-17.3,8.5-50.1c12.4-71.2,33-190.4,36.3-222.4
			c2-20.1,11.3-65,24.8-120.2c10-40.9,22.9-89.4,27.8-99.4l0.7-1.4h57.5c1.4,0,2.5,1.1,2.5,2.5s-1.1,2.5-2.5,2.5h-54.3
			c-9.4,22.8-47,172.8-51.4,216.5c-3.3,32.2-24,151.5-36.3,222.7c-3.9,22.3-7.1,40.7-8.1,47.2l63.1,5.9
			c7.6-26.6,77.1-269.6,83.1-286.6c0.5-1.3,1.9-2,3.2-1.5s2,1.9,1.5,3.2c-6.1,17.5-82.8,285.7-83.6,288.4L650.3,872.2z"/>
	</g>
	<path style="fill:#6ED8C3;" d="M563.7,886h75.8c5.8,0,10.5-4.6,10.6-10.4l0.3-14l-69.8,0.7l-18.3,13
		C556.3,876.9,557.4,886,563.7,886z"/>
	<path style="fill:#6ED8C3;" d="M897.8,886h-93.4c-5.8,0-10.5-4.6-10.6-10.4l-0.3-14l69.8,0.7l35.8,13
		C905.2,876.9,904.1,886,897.8,886z"/>
	<circle style="fill:#2B2B2B;" cx="753.1" cy="178" r="4"/>
	<circle style="fill:#2B2B2B;" cx="718.6" cy="178" r="4.1"/>
	<polygon style="fill:#6ED8C3;" points="788,369.7 676,369.7 667.6,395.6 797.6,395.6 	"/>
	<g>
		<path style="fill:#2B2B2B;" d="M835.3,366.2c-0.6,0-1.3-0.3-1.8-0.8c-1-1-0.9-2.6,0-3.5l13.6-13.3c1-1,2.6-0.9,3.5,0
			c1,1,0.9,2.6,0,3.5L837,365.5C836.6,366,835.9,366.2,835.3,366.2z"/>
	</g>
	<g>
		<path style="fill:#FFFFFF;" d="M774.3,164.5h2.6l0,0c0-23-18.6-41.6-41.6-41.6l0,0c-23,0-41.6,18.6-41.6,41.6l0,0h1.6"/>
		<path style="fill:#6ED8C3;" d="M779.4,167h-5.1v-5c-1.3-20.4-18.3-36.6-39-36.6c-21.6,0-39.1,17.5-39.1,39.1h-0.9v2.5h-4.1v-2.5
			c0-24.3,19.8-44.1,44.1-44.1s44.1,19.8,44.1,44.1V167z"/>
	</g>
	<g>
		<rect x="695.3" y="162" style="fill:#2B2B2B;" width="79" height="5"/>
	</g>
	<g>
		<g>
			<path style="fill:#6ED8C3;" d="M780.1,806.1c-0.7,0-1.3-0.3-1.8-0.7c-0.5-0.5-0.7-1.1-0.7-1.8s0.3-1.3,0.7-1.8
				c0.6-0.6,1.4-0.8,2.3-0.7c0.2,0,0.3,0.1,0.5,0.1c0.2,0.1,0.3,0.1,0.4,0.2c0.1,0.1,0.3,0.2,0.4,0.3c0.5,0.5,0.7,1.1,0.7,1.8
				s-0.3,1.3-0.7,1.8C781.4,805.8,780.8,806.1,780.1,806.1z"/>
		</g>
		<g>
			<path style="fill:#6ED8C3;" d="M809.9,830.1c-1.4-0.1-2.4-1.4-2.2-2.7l0,0c0.1-1.4,1.4-2.4,2.7-2.2l0,0l0,0l0,0
				c1.4,0.1,2.4,1.4,2.2,2.7l0,0c-0.1,1.3-1.2,2.2-2.5,2.2l0,0C810.1,830.1,810,830.1,809.9,830.1z M818,827.9
				c-0.1-1.4,0.9-2.6,2.2-2.7l0,0c1.4-0.1,2.6,0.9,2.7,2.2l0,0c0.1,1.4-0.9,2.6-2.2,2.7l0,0c-0.1,0-0.2,0-0.2,0l0,0
				C819.2,830.1,818.1,829.1,818,827.9z M828.2,826.4c-0.4-1.3,0.4-2.7,1.7-3.1l0,0l0,0l0,0c1.3-0.4,2.7,0.4,3.1,1.7l0,0
				c0.4,1.3-0.4,2.7-1.7,3.1l0,0c-0.2,0.1-0.5,0.1-0.7,0.1l0,0C829.5,828.2,828.5,827.5,828.2,826.4z M799.2,827.8L799.2,827.8
				c-1.3-0.5-2-1.9-1.5-3.2l0,0c0.5-1.3,1.9-2,3.2-1.5l0,0l0,0l0,0c1.3,0.5,2,1.9,1.5,3.2l0,0c-0.4,1-1.3,1.7-2.4,1.7l0,0
				C799.8,827.9,799.5,827.9,799.2,827.8z M838,823c-0.7-1.2-0.2-2.7,1-3.4l0,0l0,0l0,0c1.2-0.6,2.7-0.2,3.4,1l0,0
				c0.7,1.2,0.2,2.7-1,3.4l0,0c-0.4,0.2-0.8,0.3-1.2,0.3l0,0C839.3,824.3,838.4,823.8,838,823z M789.5,822.6L789.5,822.6
				c-1.1-0.8-1.3-2.4-0.5-3.5l0,0c0.8-1.1,2.4-1.3,3.5-0.5l0,0l0,0l0,0c1.1,0.8,1.3,2.4,0.5,3.5l0,0c-0.5,0.7-1.2,1-2,1l0,0
				C790.5,823.1,789.9,823,789.5,822.6z M846.8,817.6c-1-1-0.9-2.6,0.1-3.5l0,0c1-1,2.6-0.9,3.5,0.1l0,0c1,1,0.9,2.6-0.1,3.5l0,0
				c-0.5,0.5-1.1,0.7-1.7,0.7l0,0C847.9,818.3,847.3,818.1,846.8,817.6z M781.9,814.4c-0.7-1.2-0.4-2.7,0.8-3.4l0,0
				c1.2-0.7,2.7-0.4,3.4,0.8l0,0l0,0l0,0c0.7,1.2,0.4,2.7-0.8,3.5l0,0c-0.4,0.3-0.9,0.4-1.3,0.4l0,0
				C783.2,815.6,782.4,815.2,781.9,814.4z M853.5,809.8c-1.3-0.5-1.9-2-1.3-3.3l0,0l0,0l0,0c0.5-1.3,2-1.9,3.3-1.3l0,0
				c1.3,0.5,1.9,2,1.3,3.3l0,0c-0.4,1-1.3,1.5-2.3,1.5l0,0C854.2,810,853.8,809.9,853.5,809.8z"/>
		</g>
		<g>
			<path style="fill:#6ED8C3;" d="M855.9,799.8c-0.7,0-1.3-0.3-1.8-0.7c-0.1-0.1-0.2-0.2-0.3-0.4c-0.1-0.1-0.2-0.3-0.2-0.4
				c-0.1-0.2-0.1-0.3-0.1-0.5s-0.1-0.3-0.1-0.5c0-0.7,0.3-1.3,0.7-1.8c0.1-0.1,0.2-0.2,0.4-0.3s0.3-0.2,0.4-0.2
				c0.2-0.1,0.3-0.1,0.5-0.1c0.3-0.1,0.7-0.1,1,0c0.2,0,0.3,0.1,0.5,0.1c0.2,0.1,0.3,0.1,0.4,0.2c0.1,0.1,0.3,0.2,0.4,0.3
				c0.5,0.5,0.7,1.1,0.7,1.8c0,0.2,0,0.3,0,0.5s-0.1,0.3-0.1,0.5c-0.1,0.2-0.1,0.3-0.2,0.4c-0.1,0.1-0.2,0.3-0.3,0.4
				C857.2,799.5,856.6,799.8,855.9,799.8z"/>
		</g>
	</g>
	<g>
		<g>
			<path style="fill:#6ED8C3;" d="M767.7,753c-0.7,0-1.3-0.3-1.8-0.7c-0.5-0.5-0.7-1.1-0.7-1.8c0-0.2,0-0.3,0-0.5s0.1-0.3,0.1-0.5
				c0.1-0.2,0.1-0.3,0.2-0.4c0.1-0.1,0.2-0.3,0.3-0.4c0.1-0.1,0.2-0.2,0.4-0.3c0.1-0.1,0.3-0.2,0.4-0.2c0.1-0.1,0.3-0.1,0.5-0.1
				c0.3-0.1,0.7-0.1,1,0c0.2,0,0.3,0.1,0.5,0.1c0.1,0.1,0.3,0.1,0.4,0.2s0.3,0.2,0.4,0.3c0.5,0.5,0.7,1.1,0.7,1.8s-0.3,1.3-0.7,1.8
				C769,752.7,768.4,753,767.7,753z"/>
		</g>
		<g>
			<path style="fill:#6ED8C3;" d="M798.3,770.2c0-1.4,1.2-2.5,2.5-2.5l0,0c1.4,0,2.5,1.2,2.5,2.5l0,0c0,1.4-1.2,2.5-2.6,2.5l0,0
				C799.3,772.7,798.2,771.5,798.3,770.2z M808.7,770c-0.2-1.4,0.8-2.6,2.2-2.8l0,0l0,0l0,0c1.4-0.2,2.6,0.8,2.8,2.2l0,0
				c0.2,1.4-0.8,2.6-2.2,2.8l0,0c-0.1,0-0.2,0-0.3,0l0,0C809.9,772.2,808.8,771.2,808.7,770z M790,771.6c-1.4-0.3-2.2-1.6-2-2.9l0,0
				c0.3-1.4,1.6-2.2,2.9-2l0,0c1.4,0.3,2.2,1.6,2,2.9l0,0c-0.2,1.2-1.3,2-2.5,2l0,0C790.3,771.6,790.1,771.6,790,771.6z
				 M818.9,768.3c-0.4-1.3,0.4-2.7,1.8-3.1l0,0c1.3-0.4,2.7,0.4,3.1,1.8l0,0c0.3,1.3-0.5,2.7-1.8,3.1l0,0c-0.2,0.1-0.4,0.1-0.6,0.1
				l0,0C820.2,770.2,819.2,769.5,818.9,768.3z M779.5,768.1c-1.2-0.6-1.8-2.1-1.1-3.3l0,0c0.6-1.2,2.1-1.8,3.4-1.1l0,0
				c1.2,0.6,1.7,2.1,1.1,3.3l0,0c-0.4,0.9-1.3,1.4-2.2,1.4l0,0C780.3,768.4,779.9,768.3,779.5,768.1z M828.8,765.3
				c-0.6-1.3,0-2.7,1.3-3.3l0,0l0,0l0,0c1.3-0.6,2.7,0,3.3,1.3l0,0c0.5,1.3,0,2.7-1.3,3.3l0,0c-0.3,0.1-0.7,0.2-1,0.2l0,0
				C830.2,766.8,829.2,766.3,828.8,765.3z M770.5,761.3L770.5,761.3c-0.9-1-0.8-2.6,0.2-3.5l0,0c1-0.9,2.6-0.8,3.5,0.2l0,0l0,0l0,0
				c0.9,1,0.8,2.6-0.2,3.5l0,0c-0.5,0.4-1.1,0.6-1.6,0.6l0,0C771.7,762.2,771,761.9,770.5,761.3z M838.2,760.7
				c-0.8-1.1-0.6-2.7,0.6-3.5l0,0l0,0l0,0c1.1-0.8,2.7-0.6,3.5,0.6l0,0c0.8,1.1,0.5,2.7-0.6,3.5l0,0c-0.4,0.3-1,0.5-1.5,0.5l0,0
				C839.4,761.8,838.6,761.4,838.2,760.7z M846.1,754c-1.2-0.7-1.5-2.3-0.8-3.5l0,0l0,0l0,0c0.7-1.2,2.3-1.5,3.5-0.8l0,0
				c1.2,0.7,1.5,2.3,0.8,3.5l0,0c-0.5,0.8-1.3,1.2-2.1,1.2l0,0C847,754.4,846.5,754.3,846.1,754z"/>
		</g>
		<g>
			<path style="fill:#6ED8C3;" d="M849.8,744.6c-0.7,0-1.3-0.3-1.8-0.7c-0.5-0.5-0.7-1.1-0.7-1.8s0.3-1.3,0.7-1.8
				c0.1-0.1,0.2-0.2,0.4-0.3c0.1-0.1,0.3-0.2,0.4-0.2c0.2-0.1,0.3-0.1,0.5-0.1c0.3-0.1,0.7-0.1,1,0c0.2,0,0.3,0.1,0.5,0.1
				c0.2,0.1,0.3,0.1,0.4,0.2c0.1,0.1,0.3,0.2,0.4,0.3c0.5,0.5,0.7,1.1,0.7,1.8s-0.3,1.3-0.7,1.8c-0.1,0.1-0.2,0.2-0.4,0.3
				c-0.1,0.1-0.3,0.2-0.4,0.2c-0.2,0.1-0.3,0.1-0.5,0.1S850,744.6,849.8,744.6z"/>
		</g>
	</g>
	<g>
		<g>
			<path style="fill:#6ED8C3;" d="M755.2,700.1c-0.7,0-1.3-0.3-1.8-0.7c-0.5-0.5-0.7-1.1-0.7-1.8s0.3-1.3,0.7-1.8
				c0.6-0.6,1.5-0.9,2.3-0.7c0.2,0,0.3,0.1,0.5,0.1c0.1,0.1,0.3,0.1,0.4,0.2c0.1,0.1,0.3,0.2,0.4,0.3c0.5,0.5,0.7,1.1,0.7,1.8
				s-0.3,1.3-0.7,1.8C756.5,699.8,755.9,700.1,755.2,700.1z"/>
		</g>
		<g>
			<path style="fill:#6ED8C3;" d="M787.3,715.4L787.3,715.4c-1.4,0-2.5-1.1-2.5-2.5l0,0c0-1.4,1.1-2.5,2.5-2.5l0,0
				c1.4,0,2.5,1.1,2.5,2.5l0,0C789.8,714.3,788.7,715.4,787.3,715.4L787.3,715.4L787.3,715.4z M794.3,712.7
				c-0.1-1.4,0.9-2.6,2.2-2.7l0,0l0,0l0,0c1.4-0.1,2.6,0.9,2.7,2.2l0,0c0.1,1.4-0.9,2.6-2.2,2.7l0,0c-0.1,0-0.2,0-0.2,0l0,0
				C795.6,715,794.5,714,794.3,712.7z M777.5,714.8L777.5,714.8c-1.4-0.2-2.3-1.4-2.2-2.8l0,0c0.2-1.4,1.4-2.3,2.8-2.2l0,0
				c1.4,0.2,2.3,1.5,2.2,2.8l0,0c-0.2,1.2-1.2,2.2-2.5,2.2l0,0C777.7,714.8,777.6,714.8,777.5,714.8z M803.8,711.6
				c-0.3-1.4,0.6-2.7,2-2.9l0,0l0,0l0,0c1.4-0.2,2.7,0.6,2.9,2l0,0c0.2,1.4-0.7,2.7-2,2.9l0,0c-0.2,0-0.3,0-0.5,0l0,0
				C805.1,713.6,804.1,712.8,803.8,711.6z M767.7,712.5c-1.3-0.5-2-1.9-1.5-3.2l0,0c0.4-1.3,1.9-2,3.2-1.5l0,0l0,0l0,0
				c1.3,0.5,2,1.9,1.5,3.2l0,0c-0.4,1-1.3,1.7-2.4,1.7l0,0C768.2,712.6,768,712.6,767.7,712.5z M813.2,709.6
				c-0.4-1.3,0.4-2.7,1.7-3.1l0,0c1.3-0.4,2.7,0.4,3.1,1.7l0,0c0.4,1.3-0.4,2.7-1.7,3.1l0,0c-0.2,0.1-0.5,0.1-0.7,0.1l0,0
				C814.5,711.4,813.5,710.7,813.2,709.6z M822.3,706.8c-0.5-1.3,0.1-2.7,1.4-3.3l0,0l0,0l0,0c1.3-0.5,2.7,0.1,3.3,1.4l0,0
				c0.5,1.3-0.1,2.7-1.4,3.3l0,0c-0.3,0.1-0.6,0.2-0.9,0.2l0,0C823.6,708.4,822.7,707.8,822.3,706.8z M758.6,707.5L758.6,707.5
				c-1-0.9-1.2-2.5-0.3-3.5l0,0c0.9-1,2.5-1.2,3.5-0.3l0,0c1,0.9,1.2,2.5,0.3,3.5l0,0c-0.5,0.6-1.2,0.9-1.9,0.9l0,0
				C759.6,708.1,759,707.9,758.6,707.5z M831,702.9c-0.7-1.2-0.3-2.7,0.8-3.4l0,0c1.2-0.7,2.7-0.3,3.4,0.8l0,0
				c0.7,1.2,0.3,2.7-0.8,3.4l0,0c-0.4,0.2-0.9,0.4-1.3,0.4l0,0C832.3,704.1,831.5,703.7,831,702.9z M838.9,697.5
				c-1.1-0.9-1.2-2.5-0.3-3.5l0,0c0.9-1,2.5-1.2,3.5-0.3l0,0c1.1,0.9,1.2,2.5,0.3,3.5l0,0c-0.5,0.6-1.2,0.9-1.9,0.9l0,0
				C840,698.1,839.4,697.9,838.9,697.5z"/>
		</g>
		<g>
			<path style="fill:#6ED8C3;" d="M843.7,689.3c-0.7,0-1.3-0.3-1.8-0.7c-0.5-0.5-0.7-1.1-0.7-1.8s0.3-1.3,0.7-1.8
				c0.6-0.6,1.5-0.9,2.3-0.7c0.2,0,0.3,0.1,0.5,0.1c0.1,0.1,0.3,0.1,0.4,0.2s0.3,0.2,0.4,0.3c0.5,0.5,0.7,1.1,0.7,1.8
				s-0.3,1.3-0.7,1.8c-0.1,0.1-0.2,0.2-0.4,0.3s-0.3,0.2-0.4,0.2c-0.2,0.1-0.3,0.1-0.5,0.1C844,689.3,843.9,689.3,843.7,689.3z"/>
		</g>
	</g>
	<g>
		<g>
			<path style="fill:#6ED8C3;" d="M742.9,647.1c-0.7,0-1.3-0.3-1.8-0.7c-0.5-0.5-0.7-1.1-0.7-1.8c0-0.2,0-0.3,0.1-0.5
				c0-0.2,0.1-0.3,0.1-0.5c0.1-0.1,0.1-0.3,0.2-0.4c0.1-0.1,0.2-0.3,0.3-0.4c0.1-0.1,0.2-0.2,0.4-0.3s0.3-0.2,0.4-0.2
				c0.2-0.1,0.3-0.1,0.5-0.1c0.8-0.2,1.7,0.1,2.3,0.7c0.1,0.1,0.2,0.2,0.3,0.4c0.1,0.1,0.2,0.3,0.2,0.4c0.1,0.2,0.1,0.3,0.1,0.5
				s0,0.3,0,0.5c0,0.7-0.3,1.3-0.7,1.8c-0.1,0.1-0.2,0.2-0.4,0.3c-0.1,0.1-0.3,0.2-0.4,0.2c-0.1,0.1-0.3,0.1-0.5,0.1
				S743.1,647.1,742.9,647.1z"/>
		</g>
		<g>
			<path style="fill:#6ED8C3;" d="M767.9,658c-1.4,0-2.5-1.2-2.4-2.6l0,0c0-1.4,1.2-2.5,2.6-2.4l0,0c1.4,0,2.5,1.2,2.4,2.6l0,0
				c0,1.3-1.2,2.4-2.5,2.4l0,0C768,658,768,658,767.9,658z M775.2,655.5c-0.1-1.4,1-2.5,2.4-2.6l0,0l0,0l0,0c1.4-0.1,2.6,1,2.6,2.4
				l0,0c0.1,1.4-1,2.5-2.4,2.6l0,0h-0.1l0,0C776.4,657.9,775.3,656.9,775.2,655.5z M784.9,654.9c-0.2-1.4,0.8-2.6,2.2-2.8l0,0
				c1.4-0.2,2.6,0.8,2.8,2.2l0,0c0.2,1.4-0.8,2.6-2.2,2.8l0,0c-0.1,0-0.2,0-0.3,0l0,0C786.1,657.1,785,656.1,784.9,654.9z M758,657
				L758,657c-1.4-0.2-2.3-1.5-2-2.9l0,0c0.2-1.4,1.6-2.3,2.9-2l0,0l0,0l0,0c1.4,0.2,2.2,1.5,2,2.9l0,0c-0.2,1.2-1.3,2-2.5,2l0,0
				C758.2,657,758.1,657,758,657z M794.5,653.6c-0.2-1.4,0.6-2.7,2-2.9l0,0l0,0l0,0c1.4-0.2,2.7,0.6,2.9,2l0,0
				c0.3,1.4-0.6,2.7-2,2.9l0,0c-0.1,0-0.3,0-0.5,0l0,0C795.8,655.6,794.7,654.8,794.5,653.6z M748,653.8c-1.2-0.6-1.7-2.1-1.1-3.4
				l0,0c0.6-1.2,2.2-1.7,3.4-1.1l0,0l0,0l0,0c1.2,0.6,1.7,2.2,1.1,3.4l0,0c-0.5,0.8-1.3,1.3-2.2,1.3l0,0
				C748.8,654.1,748.4,654,748,653.8z M804,651.6c-0.3-1.3,0.5-2.7,1.8-3l0,0c1.3-0.3,2.7,0.5,3,1.8l0,0c0.3,1.3-0.5,2.7-1.8,3l0,0
				c-0.2,0-0.4,0.1-0.6,0.1l0,0C805.3,653.5,804.3,652.8,804,651.6z M813.3,649.1c-0.4-1.3,0.3-2.7,1.6-3.2l0,0
				c1.3-0.4,2.7,0.3,3.2,1.6l0,0c0.4,1.3-0.3,2.7-1.6,3.2l0,0c-0.3,0.1-0.5,0.1-0.8,0.1l0,0C814.7,650.8,813.7,650.1,813.3,649.1z
				 M822.5,645.8c-0.6-1.2-0.1-2.7,1.2-3.3l0,0l0,0l0,0c1.2-0.6,2.7-0.1,3.3,1.2l0,0c0.6,1.2,0.1,2.7-1.2,3.3l0,0
				c-0.4,0.2-0.7,0.2-1.1,0.2l0,0C823.8,647.2,822.9,646.7,822.5,645.8z M831.1,641.3c-0.9-1.1-0.7-2.7,0.4-3.5l0,0
				c1.1-0.9,2.6-0.7,3.5,0.4l0,0c0.9,1.1,0.7,2.6-0.4,3.5l0,0c-0.5,0.4-1,0.6-1.6,0.6l0,0C832.3,642.2,831.5,641.9,831.1,641.3z"/>
		</g>
		<g>
			<path style="fill:#6ED8C3;" d="M837.5,634.1c-0.7,0-1.3-0.3-1.8-0.7c-0.1-0.1-0.2-0.2-0.3-0.4c-0.1-0.1-0.2-0.3-0.2-0.4
				c-0.1-0.2-0.1-0.3-0.1-0.5s0-0.3,0-0.5c0-0.7,0.3-1.3,0.7-1.8c0.1-0.1,0.2-0.2,0.4-0.3c0.1-0.1,0.3-0.2,0.4-0.2
				c0.1-0.1,0.3-0.1,0.5-0.1c0.8-0.2,1.7,0.1,2.3,0.7c0.5,0.5,0.7,1.1,0.7,1.8c0,0.2,0,0.3,0,0.5s-0.1,0.3-0.1,0.5
				c-0.1,0.2-0.1,0.3-0.2,0.4c-0.1,0.1-0.2,0.3-0.3,0.4C838.8,633.8,838.2,634.1,837.5,634.1z"/>
		</g>
	</g>
	<g>
		<g>
			<path style="fill:#6ED8C3;" d="M729.2,594.1c-0.2,0-0.3,0-0.5,0s-0.3-0.1-0.5-0.1c-0.2-0.1-0.3-0.1-0.4-0.2
				c-0.1-0.1-0.3-0.2-0.4-0.3c-0.5-0.5-0.7-1.1-0.7-1.8c0-0.2,0-0.3,0-0.5s0.1-0.3,0.1-0.5c0.1-0.1,0.1-0.3,0.2-0.4
				c0.1-0.1,0.2-0.3,0.3-0.4c0.1-0.1,0.2-0.2,0.4-0.3c0.1-0.1,0.3-0.2,0.4-0.2c0.1-0.1,0.3-0.1,0.5-0.1c0.8-0.2,1.7,0.1,2.3,0.7
				c0.1,0.1,0.2,0.2,0.3,0.4c0.1,0.1,0.2,0.3,0.2,0.4c0.1,0.2,0.1,0.3,0.1,0.5s0.1,0.3,0.1,0.5c0,0.7-0.3,1.3-0.7,1.8
				C730.5,593.8,729.9,594.1,729.2,594.1z"/>
		</g>
		<g>
			<path style="fill:#6ED8C3;" d="M757.1,601c-1.4,0-2.5-1-2.6-2.4l0,0c0-1.4,1-2.5,2.4-2.6l0,0c1.4,0,2.5,1,2.6,2.4l0,0
				C759.6,599.8,758.5,601,757.1,601L757.1,601z M746.9,601c-1.4-0.1-2.4-1.3-2.4-2.6l0,0c0.1-1.4,1.3-2.4,2.6-2.4l0,0
				c1.4,0.1,2.4,1.3,2.4,2.6l0,0c-0.1,1.3-1.2,2.4-2.5,2.4l0,0H746.9z M764.5,598.1c-0.1-1.4,0.9-2.6,2.3-2.7l0,0
				c1.4-0.1,2.6,0.9,2.7,2.3l0,0c0.1,1.4-0.9,2.6-2.3,2.7l0,0c-0.1,0-0.1,0-0.2,0l0,0C765.8,600.4,764.7,599.4,764.5,598.1z
				 M736.5,599.5L736.5,599.5c-1.3-0.3-2.1-1.7-1.8-3l0,0c0.3-1.3,1.7-2.1,3-1.8l0,0l0,0l0,0c1.3,0.4,2.1,1.7,1.8,3l0,0
				c-0.3,1.1-1.3,1.9-2.4,1.9l0,0C736.9,599.6,736.7,599.6,736.5,599.5z M774.5,597.1c-0.2-1.4,0.8-2.6,2.1-2.8l0,0
				c1.4-0.2,2.6,0.8,2.8,2.1l0,0c0.2,1.4-0.8,2.6-2.1,2.8l0,0c-0.1,0-0.2,0-0.3,0l0,0C775.8,599.2,774.7,598.3,774.5,597.1z
				 M784.5,595.6c-0.2-1.4,0.6-2.7,2-2.9l0,0l0,0l0,0c1.4-0.2,2.7,0.7,2.9,2l0,0c0.2,1.4-0.7,2.7-2,2.9l0,0c-0.1,0-0.3,0-0.4,0l0,0
				C785.7,597.6,784.7,596.8,784.5,595.6z M794.3,593.7c-0.3-1.4,0.5-2.7,1.9-3l0,0l0,0l0,0c1.3-0.3,2.7,0.5,3,1.9l0,0
				c0.3,1.4-0.5,2.7-1.9,3l0,0c-0.2,0-0.4,0.1-0.6,0.1l0,0C795.6,595.6,794.6,594.8,794.3,593.7z M804.1,591.3
				c-0.4-1.3,0.4-2.7,1.7-3.1l0,0c1.3-0.4,2.7,0.4,3.1,1.7l0,0c0.4,1.3-0.4,2.7-1.7,3.1l0,0c-0.2,0.1-0.5,0.1-0.7,0.1l0,0
				C805.4,593.1,804.4,592.4,804.1,591.3z M813.7,588.5c-0.5-1.3,0.2-2.7,1.5-3.2l0,0l0,0l0,0c1.3-0.5,2.7,0.2,3.2,1.5l0,0
				c0.5,1.3-0.2,2.7-1.5,3.2l0,0c-0.3,0.1-0.6,0.2-0.9,0.2l0,0C815,590.1,814,589.5,813.7,588.5z M823,584.7
				c-0.7-1.2-0.3-2.7,0.9-3.4l0,0l0,0l0,0c1.2-0.7,2.7-0.2,3.4,1l0,0c0.7,1.2,0.3,2.7-0.9,3.4l0,0c-0.4,0.2-0.8,0.3-1.2,0.3l0,0
				C824.3,586,823.5,585.5,823,584.7z"/>
		</g>
		<g>
			<path style="fill:#6ED8C3;" d="M831.4,578.9c-0.2,0-0.3,0-0.5,0s-0.3-0.1-0.5-0.1c-0.1-0.1-0.3-0.1-0.4-0.2s-0.3-0.2-0.4-0.3
				c-0.5-0.5-0.7-1.1-0.7-1.8s0.3-1.3,0.7-1.8c0.6-0.6,1.4-0.8,2.3-0.7c0.2,0,0.3,0.1,0.5,0.1c0.2,0.1,0.3,0.1,0.4,0.2
				c0.1,0.1,0.3,0.2,0.4,0.3c0.5,0.5,0.7,1.1,0.7,1.8s-0.3,1.3-0.7,1.8C832.7,578.6,832.1,578.9,831.4,578.9z"/>
		</g>
	</g>
	<g>
		<g>
			<path style="fill:#6ED8C3;" d="M668.1,803.3c-0.7,0-1.3-0.3-1.8-0.7c-0.1-0.1-0.2-0.2-0.3-0.4c-0.1-0.1-0.2-0.3-0.2-0.4
				c-0.1-0.2-0.1-0.3-0.1-0.5s0-0.3,0-0.5s0-0.3,0-0.5s0.1-0.3,0.1-0.5c0.1-0.2,0.1-0.3,0.2-0.4c0.1-0.1,0.2-0.3,0.3-0.4
				c0.1-0.1,0.2-0.2,0.4-0.3c0.1-0.1,0.3-0.2,0.4-0.2c0.2-0.1,0.3-0.1,0.5-0.1c0.3-0.1,0.7-0.1,1,0c0.2,0,0.3,0.1,0.5,0.1
				c0.2,0.1,0.3,0.1,0.4,0.2c0.1,0.1,0.3,0.2,0.4,0.3c0.1,0.1,0.2,0.2,0.3,0.4c0.1,0.1,0.2,0.3,0.2,0.4c0.1,0.2,0.1,0.3,0.1,0.5
				s0,0.3,0,0.5s0,0.3,0,0.5s-0.1,0.3-0.1,0.5c-0.1,0.2-0.1,0.3-0.2,0.4c-0.1,0.1-0.2,0.3-0.3,0.4c-0.1,0.1-0.2,0.2-0.4,0.3
				c-0.1,0.1-0.3,0.2-0.4,0.2c-0.2,0.1-0.3,0.1-0.5,0.1S668.3,803.3,668.1,803.3z"/>
		</g>
		<g>
			<path style="fill:#6ED8C3;" d="M634.4,823.6c-0.1-1.4,1-2.6,2.4-2.6l0,0c1.4-0.1,2.6,1,2.6,2.4l0,0c0.1,1.4-1,2.6-2.4,2.6l0,0
				l0,0l0,0h-0.1l0,0C635.6,826,634.5,824.9,634.4,823.6z M626.3,825.5L626.3,825.5L626.3,825.5c-1.4-0.2-2.3-1.5-2.1-2.8l0,0
				c0.2-1.4,1.5-2.3,2.8-2.1l0,0c1.4,0.2,2.3,1.5,2.1,2.8l0,0c-0.2,1.2-1.2,2.1-2.5,2.1l0,0C626.5,825.5,626.4,825.5,626.3,825.5z
				 M644.7,822.4c-0.4-1.3,0.3-2.7,1.7-3.1l0,0c1.3-0.4,2.7,0.3,3.1,1.7l0,0c0.4,1.3-0.4,2.7-1.7,3.1l0,0c-0.2,0.1-0.5,0.1-0.7,0.1
				l0,0C646,824.2,645,823.5,644.7,822.4z M615.8,822.9c-1.3-0.4-2-1.9-1.6-3.2l0,0c0.5-1.3,1.9-2,3.2-1.6l0,0
				c1.3,0.5,2,1.9,1.6,3.2l0,0c-0.4,1-1.3,1.7-2.4,1.7l0,0C616.3,823.1,616,823,615.8,822.9z M654.3,818.7c-0.8-1.1-0.5-2.7,0.7-3.5
				l0,0c1.1-0.8,2.7-0.5,3.5,0.6l0,0c0.8,1.1,0.5,2.7-0.6,3.5l0,0c-0.4,0.3-0.9,0.4-1.4,0.4l0,0
				C655.6,819.8,654.8,819.5,654.3,818.7z M605.9,818.4L605.9,818.4L605.9,818.4c-1.2-0.7-1.6-2.2-0.9-3.4l0,0
				c0.7-1.2,2.2-1.6,3.4-0.9l0,0c1.2,0.7,1.6,2.2,0.9,3.4l0,0c-0.5,0.8-1.3,1.2-2.1,1.2l0,0C606.8,818.8,606.3,818.6,605.9,818.4z
				 M662.3,812.1c-1.1-0.8-1.4-2.3-0.6-3.5l0,0c0.8-1.1,2.3-1.4,3.5-0.6l0,0c1.1,0.8,1.4,2.3,0.6,3.5l0,0l0,0l0,0
				c-0.5,0.7-1.3,1.1-2,1.1l0,0C663.2,812.6,662.7,812.5,662.3,812.1z M597.3,811.6L597.3,811.6L597.3,811.6c-1-1-0.9-2.6,0.1-3.5
				l0,0c1-1,2.6-0.9,3.5,0.1l0,0c1,1,0.9,2.6-0.1,3.5l0,0c-0.5,0.5-1.1,0.7-1.7,0.7l0,0C598.4,812.4,597.8,812.1,597.3,811.6z
				 M591.2,802.1L591.2,802.1L591.2,802.1c-0.5-1.3,0.2-2.7,1.5-3.2l0,0c1.3-0.5,2.7,0.2,3.2,1.5l0,0c0.5,1.3-0.2,2.7-1.5,3.2l0,0
				c-0.3,0.1-0.6,0.2-0.9,0.2l0,0C592.5,803.8,591.6,803.1,591.2,802.1z"/>
		</g>
		<g>
			<path style="fill:#6ED8C3;" d="M592.6,793.6c-0.7,0-1.3-0.3-1.8-0.7c-0.5-0.5-0.7-1.1-0.7-1.8s0.3-1.3,0.7-1.8
				c0.1-0.1,0.2-0.2,0.4-0.3c0.1-0.1,0.3-0.2,0.4-0.2c0.2-0.1,0.3-0.1,0.5-0.1c0.3-0.1,0.7-0.1,1,0c0.2,0,0.3,0.1,0.5,0.1
				c0.2,0.1,0.3,0.1,0.4,0.2c0.1,0.1,0.3,0.2,0.4,0.3c0.5,0.5,0.7,1.1,0.7,1.8s-0.3,1.3-0.7,1.8
				C593.9,793.3,593.3,793.6,592.6,793.6z"/>
		</g>
	</g>
	<g>
		<g>
			<path style="fill:#6ED8C3;" d="M683.2,750.9c-0.7,0-1.3-0.3-1.8-0.7c-0.1-0.1-0.2-0.2-0.3-0.4c-0.1-0.1-0.2-0.3-0.2-0.4
				c-0.1-0.1-0.1-0.3-0.1-0.5s0-0.3,0-0.5s0-0.3,0-0.5s0.1-0.3,0.1-0.5c0.1-0.1,0.1-0.3,0.2-0.4c0.1-0.1,0.2-0.3,0.3-0.4
				c0.1-0.1,0.2-0.2,0.4-0.3c0.1-0.1,0.3-0.2,0.4-0.2c0.1-0.1,0.3-0.1,0.5-0.1c0.3-0.1,0.7-0.1,1,0c0.2,0,0.3,0.1,0.5,0.1
				c0.1,0.1,0.3,0.1,0.4,0.2c0.1,0.1,0.3,0.2,0.4,0.3c0.1,0.1,0.2,0.2,0.3,0.4c0.1,0.1,0.2,0.3,0.2,0.4c0.1,0.2,0.1,0.3,0.1,0.5
				s0.1,0.3,0.1,0.5s0,0.3-0.1,0.5c0,0.2-0.1,0.3-0.1,0.5c-0.1,0.2-0.1,0.3-0.2,0.4c-0.1,0.1-0.2,0.3-0.3,0.4
				c-0.1,0.1-0.2,0.2-0.4,0.3c-0.1,0.1-0.3,0.2-0.4,0.2c-0.2,0.1-0.3,0.1-0.5,0.1C683.5,750.9,683.4,750.9,683.2,750.9z"/>
		</g>
		<g>
			<path style="fill:#6ED8C3;" d="M649.7,769.2L649.7,769.2L649.7,769.2c-1.4,0-2.5-1.2-2.4-2.6l0,0c0-1.4,1.2-2.5,2.6-2.4l0,0
				c1.4,0,2.5,1.2,2.4,2.5l0,0C652.2,768.1,651.1,769.2,649.7,769.2L649.7,769.2L649.7,769.2z M657.5,766.4
				c-0.2-1.4,0.7-2.6,2.1-2.9l0,0c1.4-0.2,2.6,0.7,2.9,2.1l0,0c0.2,1.4-0.7,2.7-2.1,2.9l0,0l0,0l0,0c-0.1,0-0.3,0-0.4,0l0,0
				C658.8,768.5,657.7,767.6,657.5,766.4z M639.1,768.1c-1.4-0.2-2.3-1.5-2-2.9l0,0c0.2-1.4,1.5-2.3,2.9-2l0,0
				c1.4,0.2,2.3,1.5,2,2.9l0,0c-0.2,1.2-1.3,2.1-2.5,2.1l0,0C639.4,768.2,639.2,768.2,639.1,768.1z M628.8,765.7L628.8,765.7
				L628.8,765.7c-1.3-0.4-2-1.8-1.6-3.1l0,0c0.4-1.3,1.8-2.1,3.1-1.6l0,0c1.3,0.4,2,1.8,1.6,3.1l0,0c-0.3,1.1-1.3,1.7-2.4,1.7l0,0
				C629.2,765.8,629,765.8,628.8,765.7z M667.5,764.2c-0.6-1.3,0-2.7,1.2-3.3l0,0c1.3-0.6,2.7,0,3.3,1.2l0,0c0.6,1.3,0,2.7-1.2,3.3
				l0,0c-0.3,0.2-0.7,0.2-1,0.2l0,0C668.9,765.7,668,765.1,667.5,764.2z M618.8,761.7c-1.2-0.6-1.7-2.1-1.1-3.4l0,0
				c0.6-1.2,2.1-1.8,3.3-1.1l0,0c1.2,0.6,1.7,2.1,1.1,3.4l0,0c-0.4,0.9-1.3,1.4-2.2,1.4l0,0C619.6,762,619.2,761.9,618.8,761.7z
				 M676.5,759.1c-1-0.9-1.1-2.5-0.1-3.5l0,0c0.9-1,2.5-1.1,3.5-0.1l0,0c1,0.9,1.1,2.5,0.1,3.5l0,0c-0.5,0.5-1.2,0.8-1.8,0.8l0,0
				C677.6,759.8,677,759.6,676.5,759.1z M609.7,756c-1.1-0.9-1.2-2.4-0.4-3.5l0,0c0.9-1.1,2.4-1.2,3.5-0.4l0,0
				c1.1,0.9,1.2,2.4,0.4,3.5l0,0c-0.5,0.6-1.2,0.9-2,0.9l0,0C610.7,756.5,610.1,756.3,609.7,756z M602.3,747.5L602.3,747.5
				L602.3,747.5c-0.7-1.2-0.2-2.7,1-3.4l0,0c1.2-0.7,2.7-0.2,3.4,1l0,0c0.7,1.2,0.2,2.7-1,3.4l0,0c-0.4,0.2-0.8,0.3-1.2,0.3l0,0
				C603.6,748.8,602.8,748.4,602.3,747.5z"/>
		</g>
		<g>
			<path style="fill:#6ED8C3;" d="M602.5,739c-0.7,0-1.3-0.3-1.8-0.7c-0.1-0.1-0.2-0.2-0.3-0.4c-0.1-0.1-0.2-0.3-0.2-0.4
				c-0.1-0.2-0.1-0.3-0.1-0.5s0-0.3,0-0.5c0-0.7,0.3-1.3,0.7-1.8c0.1-0.1,0.2-0.2,0.4-0.3c0.1-0.1,0.3-0.2,0.4-0.2
				c0.1-0.1,0.3-0.1,0.5-0.1c0.8-0.2,1.7,0.1,2.3,0.7c0.1,0.1,0.2,0.2,0.3,0.4c0.1,0.1,0.2,0.3,0.2,0.4c0.1,0.1,0.1,0.3,0.1,0.5
				s0,0.3,0,0.5c0,0.7-0.3,1.3-0.7,1.8C603.8,738.7,603.2,739,602.5,739z"/>
		</g>
	</g>
	<g>
		<g>
			<path style="fill:#6ED8C3;" d="M698.2,698.6c-0.7,0-1.3-0.3-1.8-0.7c-0.1-0.1-0.2-0.2-0.3-0.4c-0.1-0.1-0.2-0.3-0.2-0.4
				c-0.1-0.2-0.1-0.3-0.1-0.5s0-0.3,0-0.5c0-0.7,0.3-1.3,0.7-1.8c0.1-0.1,0.2-0.2,0.4-0.3c0.1-0.1,0.3-0.2,0.4-0.2
				c0.1-0.1,0.3-0.1,0.5-0.1c0.3-0.1,0.7-0.1,1,0c0.2,0,0.3,0.1,0.5,0.1c0.1,0.1,0.3,0.1,0.4,0.2c0.1,0.1,0.3,0.2,0.4,0.3
				c0.5,0.5,0.7,1.1,0.7,1.8c0,0.2,0,0.3-0.1,0.5c0,0.2-0.1,0.3-0.1,0.5c-0.1,0.2-0.1,0.3-0.2,0.4c-0.1,0.1-0.2,0.3-0.3,0.4
				c-0.1,0.1-0.2,0.2-0.4,0.3c-0.1,0.1-0.3,0.2-0.4,0.2c-0.2,0.1-0.3,0.1-0.5,0.1C698.5,698.6,698.4,698.6,698.2,698.6z"/>
		</g>
		<g>
			<path style="fill:#6ED8C3;" d="M670.1,710c-0.1-1.4,1-2.6,2.4-2.6l0,0c1.4-0.1,2.5,1,2.6,2.4l0,0c0.1,1.4-1,2.5-2.4,2.6l0,0h-0.1
				l0,0C671.3,712.4,670.2,711.4,670.1,710z M662.1,712.2c-1.4-0.1-2.4-1.3-2.3-2.7l0,0c0.1-1.4,1.3-2.4,2.7-2.3l0,0
				c1.4,0.1,2.4,1.3,2.3,2.7l0,0c-0.1,1.3-1.2,2.3-2.5,2.3l0,0C662.2,712.2,662.1,712.2,662.1,712.2z M680.5,709.1
				c-0.3-1.3,0.5-2.7,1.8-3l0,0c1.3-0.4,2.7,0.5,3,1.8l0,0c0.3,1.3-0.5,2.7-1.8,3l0,0c-0.2,0-0.4,0.1-0.6,0.1l0,0
				C681.8,711,680.7,710.2,680.5,709.1z M651.5,710.8L651.5,710.8L651.5,710.8c-1.4-0.3-2.2-1.6-2-2.9l0,0c0.3-1.3,1.6-2.2,2.9-2
				l0,0c1.4,0.3,2.2,1.6,2,2.9l0,0c-0.2,1.2-1.3,2-2.5,2l0,0C651.9,710.8,651.7,710.8,651.5,710.8z M641.2,708.3
				c-1.3-0.4-2.1-1.8-1.7-3.1l0,0c0.4-1.3,1.8-2.1,3.1-1.7l0,0c1.3,0.4,2.1,1.8,1.7,3.1l0,0c-0.3,1.1-1.3,1.8-2.4,1.8l0,0
				C641.7,708.4,641.5,708.4,641.2,708.3z M690.3,705.8c-0.8-1.1-0.6-2.7,0.6-3.5l0,0c1.1-0.8,2.7-0.5,3.5,0.6l0,0
				c0.8,1.1,0.5,2.7-0.6,3.5l0,0l0,0l0,0c-0.5,0.3-1,0.5-1.5,0.5l0,0C691.5,706.8,690.8,706.4,690.3,705.8z M631.2,704.8
				L631.2,704.8L631.2,704.8c-1.3-0.5-1.9-2-1.3-3.3l0,0c0.5-1.3,2-1.9,3.3-1.3l0,0c1.3,0.5,1.9,2,1.3,3.3l0,0
				c-0.4,1-1.3,1.5-2.3,1.5l0,0C631.8,705,631.5,705,631.2,704.8z M621.6,699.9c-1.2-0.7-1.5-2.3-0.8-3.5l0,0
				c0.7-1.2,2.3-1.5,3.4-0.8l0,0c1.2,0.7,1.5,2.3,0.8,3.4l0,0c-0.5,0.8-1.3,1.2-2.1,1.2l0,0C622.5,700.3,622,700.2,621.6,699.9z
				 M613.1,692.8L613.1,692.8L613.1,692.8c-0.9-1.1-0.7-2.6,0.3-3.5l0,0c1.1-0.9,2.6-0.7,3.5,0.3l0,0c0.9,1.1,0.7,2.6-0.3,3.5l0,0
				c-0.5,0.4-1,0.6-1.6,0.6l0,0C614.3,693.7,613.6,693.4,613.1,692.8z"/>
		</g>
		<g>
			<path style="fill:#6ED8C3;" d="M611.8,684.2c-0.7,0-1.3-0.3-1.8-0.7c-0.1-0.1-0.2-0.2-0.3-0.4s-0.2-0.3-0.2-0.4
				c-0.1-0.2-0.1-0.3-0.1-0.5s0-0.3,0-0.5c0-0.7,0.3-1.3,0.7-1.8c0.9-0.9,2.6-0.9,3.5,0c0.5,0.5,0.7,1.1,0.7,1.8c0,0.2,0,0.3,0,0.5
				s-0.1,0.3-0.1,0.5c-0.1,0.1-0.1,0.3-0.2,0.4s-0.2,0.3-0.3,0.4c-0.1,0.1-0.2,0.2-0.4,0.3c-0.1,0.1-0.3,0.2-0.4,0.2
				c-0.2,0.1-0.3,0.1-0.5,0.1C612.1,684.2,612,684.2,611.8,684.2z"/>
		</g>
	</g>
	<g>
		<g>
			<path style="fill:#6ED8C3;" d="M713.3,646.2c-0.2,0-0.3,0-0.5-0.1c-0.2,0-0.3-0.1-0.5-0.1s-0.3-0.1-0.4-0.2
				c-0.1-0.1-0.3-0.2-0.4-0.3c-0.1-0.1-0.2-0.2-0.3-0.4s-0.2-0.3-0.2-0.4c-0.1-0.2-0.1-0.3-0.1-0.5s0-0.3,0-0.5
				c0-0.7,0.3-1.3,0.7-1.8c0.1-0.1,0.2-0.2,0.4-0.3c0.1-0.1,0.3-0.2,0.4-0.2c0.2-0.1,0.3-0.1,0.5-0.1c0.8-0.2,1.7,0.1,2.3,0.7
				c0.1,0.1,0.2,0.2,0.3,0.4c0.1,0.1,0.2,0.3,0.2,0.4c0.1,0.1,0.1,0.3,0.1,0.5s0,0.3,0,0.5s0,0.3,0,0.5s-0.1,0.3-0.1,0.5
				c-0.1,0.1-0.1,0.3-0.2,0.4s-0.2,0.3-0.3,0.4c-0.1,0.1-0.2,0.2-0.4,0.3c-0.1,0.1-0.3,0.2-0.4,0.2c-0.2,0.1-0.3,0.1-0.5,0.1
				C713.6,646.2,713.5,646.2,713.3,646.2z"/>
		</g>
		<g>
			<path style="fill:#6ED8C3;" d="M688.1,656c-1.4,0-2.5-1.1-2.5-2.5l0,0c0-1.4,1.1-2.5,2.5-2.5l0,0c1.4,0,2.5,1.1,2.5,2.5l0,0
				C690.6,654.9,689.5,656,688.1,656L688.1,656L688.1,656z M678.3,655.5c-1.4-0.1-2.4-1.3-2.2-2.7l0,0c0.1-1.4,1.3-2.4,2.7-2.3l0,0
				c1.4,0.1,2.4,1.4,2.3,2.7l0,0c-0.1,1.3-1.2,2.3-2.5,2.3l0,0C678.5,655.6,678.4,655.6,678.3,655.5z M695.2,653.3
				c-0.2-1.4,0.8-2.6,2.1-2.8l0,0c1.4-0.2,2.6,0.8,2.8,2.1l0,0c0.2,1.4-0.8,2.6-2.1,2.8l0,0l0,0l0,0c-0.1,0-0.2,0-0.3,0l0,0
				C696.5,655.4,695.4,654.5,695.2,653.3z M668.7,654.3L668.7,654.3L668.7,654.3c-1.4-0.2-2.3-1.5-2.1-2.9l0,0
				c0.2-1.4,1.5-2.3,2.9-2.1l0,0c1.4,0.2,2.3,1.5,2.1,2.9l0,0c-0.2,1.2-1.3,2.1-2.5,2.1l0,0C668.9,654.3,668.8,654.3,668.7,654.3z
				 M704.6,651.5c-0.6-1.2-0.1-2.7,1.2-3.3l0,0c1.2-0.6,2.7-0.1,3.3,1.2l0,0c0.6,1.2,0.1,2.7-1.2,3.3l0,0l0,0l0,0
				c-0.3,0.2-0.7,0.2-1.1,0.2l0,0C706,652.9,705.1,652.4,704.6,651.5z M659.1,652.4c-1.3-0.3-2.2-1.6-1.9-3l0,0
				c0.3-1.3,1.7-2.2,3-1.9l0,0c1.4,0.3,2.2,1.7,1.9,3l0,0c-0.3,1.2-1.3,1.9-2.4,1.9l0,0C659.5,652.5,659.3,652.4,659.1,652.4z
				 M649.7,649.9c-1.3-0.4-2.1-1.8-1.7-3.1l0,0c0.4-1.3,1.8-2.1,3.1-1.7l0,0c1.3,0.4,2.1,1.8,1.7,3.1l0,0c-0.3,1.1-1.3,1.8-2.4,1.8
				l0,0C650.2,650,649.9,650,649.7,649.9z M640.4,646.7L640.4,646.7L640.4,646.7c-1.3-0.5-1.9-2-1.4-3.2l0,0c0.5-1.3,2-1.9,3.2-1.4
				l0,0c1.3,0.5,1.9,2,1.4,3.2l0,0c-0.4,1-1.3,1.6-2.3,1.6l0,0C641,646.9,640.7,646.8,640.4,646.7z M631.4,642.6L631.4,642.6
				L631.4,642.6c-1.2-0.6-1.7-2.2-1-3.4l0,0c0.6-1.2,2.2-1.7,3.4-1l0,0c1.2,0.7,1.7,2.2,1,3.4l0,0c-0.5,0.9-1.3,1.3-2.2,1.3l0,0
				C632.2,642.9,631.8,642.8,631.4,642.6z M623,637c-1-0.9-1.1-2.5-0.2-3.5l0,0c0.9-1,2.5-1.1,3.5-0.2l0,0c1,0.9,1.1,2.5,0.2,3.5
				l0,0c-0.5,0.5-1.2,0.8-1.9,0.8l0,0C624.1,637.6,623.5,637.4,623,637z"/>
		</g>
		<g>
			<path style="fill:#6ED8C3;" d="M620.6,629.4c-0.7,0-1.3-0.3-1.8-0.7c-0.1-0.1-0.2-0.2-0.3-0.4c-0.1-0.1-0.2-0.3-0.2-0.4
				c-0.1-0.1-0.1-0.3-0.1-0.5s0-0.3,0-0.5c0-0.7,0.3-1.3,0.7-1.8c0.1-0.1,0.2-0.2,0.4-0.3c0.1-0.1,0.3-0.2,0.4-0.2
				c0.2-0.1,0.3-0.1,0.5-0.1c0.8-0.2,1.7,0.1,2.3,0.7c0.5,0.5,0.7,1.1,0.7,1.8c0,0.2,0,0.3,0,0.5s-0.1,0.3-0.1,0.5
				c-0.1,0.2-0.1,0.3-0.2,0.4c-0.1,0.1-0.2,0.3-0.3,0.4c-0.1,0.1-0.2,0.2-0.4,0.3c-0.1,0.1-0.3,0.2-0.4,0.2
				c-0.2,0.1-0.3,0.1-0.5,0.1S620.8,629.4,620.6,629.4z"/>
		</g>
	</g>
	<g>
		<g>
			<path style="fill:#6ED8C3;" d="M728.4,593.8c-0.2,0-0.3,0-0.5,0s-0.3-0.1-0.5-0.1c-0.1-0.1-0.3-0.1-0.4-0.2s-0.3-0.2-0.4-0.3
				c-0.1-0.1-0.2-0.2-0.3-0.4c-0.1-0.1-0.2-0.3-0.2-0.4c-0.1-0.2-0.1-0.3-0.1-0.5s-0.1-0.3-0.1-0.5c0-0.7,0.3-1.3,0.7-1.8
				c0.9-0.9,2.6-0.9,3.5,0c0.5,0.5,0.7,1.1,0.7,1.8c0,0.2,0,0.3,0,0.5s-0.1,0.3-0.1,0.5c-0.1,0.2-0.1,0.3-0.2,0.4
				c-0.1,0.1-0.2,0.3-0.3,0.4C729.7,593.5,729.1,593.8,728.4,593.8z"/>
		</g>
		<g>
			<path style="fill:#6ED8C3;" d="M708.1,597.5c0-1.4,1.1-2.5,2.5-2.5l0,0c1.4,0,2.5,1.1,2.5,2.5l0,0c0,1.4-1.1,2.5-2.5,2.5l0,0l0,0
				l0,0C709.2,600,708.1,598.8,708.1,597.5z M700.5,599.6L700.5,599.6L700.5,599.6c-1.4-0.1-2.4-1.3-2.3-2.7l0,0
				c0.1-1.4,1.3-2.4,2.7-2.3l0,0c1.4,0.1,2.4,1.3,2.3,2.7l0,0c-0.1,1.3-1.2,2.3-2.5,2.3l0,0C700.6,599.6,700.5,599.6,700.5,599.6z
				 M718,597c-0.3-1.3,0.6-2.7,1.9-3l0,0c1.3-0.3,2.7,0.6,3,1.9l0,0c0.3,1.3-0.6,2.7-1.9,3l0,0l0,0l0,0c-0.2,0-0.3,0.1-0.5,0.1l0,0
				C719.2,599,718.2,598.2,718,597z M690.5,598.4c-1.4-0.2-2.3-1.5-2.1-2.8l0,0c0.2-1.4,1.5-2.3,2.8-2.1l0,0
				c1.4,0.2,2.3,1.4,2.1,2.8l0,0c-0.2,1.2-1.2,2.2-2.5,2.2l0,0C690.7,598.5,690.6,598.5,690.5,598.4z M680.5,596.8L680.5,596.8
				L680.5,596.8c-1.4-0.3-2.2-1.6-2-2.9l0,0c0.2-1.4,1.6-2.2,2.9-2l0,0c1.4,0.2,2.2,1.6,2,2.9l0,0c-0.2,1.2-1.3,2-2.5,2l0,0
				C680.9,596.8,680.7,596.8,680.5,596.8z M670.7,594.7L670.7,594.7L670.7,594.7c-1.4-0.3-2.2-1.7-1.9-3l0,0c0.3-1.3,1.6-2.2,3-1.9
				l0,0c1.3,0.3,2.2,1.7,1.9,3l0,0c-0.3,1.2-1.3,1.9-2.4,1.9l0,0C671.1,594.8,670.9,594.8,670.7,594.7z M661,592.3
				c-1.3-0.4-2.1-1.8-1.7-3.1l0,0c0.4-1.3,1.8-2.1,3.1-1.7l0,0c1.3,0.4,2.1,1.8,1.7,3.1l0,0c-0.3,1.1-1.3,1.8-2.4,1.8l0,0
				C661.5,592.4,661.2,592.3,661,592.3z M651.4,589.3L651.4,589.3L651.4,589.3c-1.3-0.4-2-1.8-1.6-3.2l0,0c0.4-1.3,1.9-2,3.2-1.6
				l0,0c1.3,0.4,2,1.8,1.6,3.2l0,0c-0.4,1-1.3,1.7-2.4,1.7l0,0C652,589.5,651.7,589.4,651.4,589.3z M642,585.8
				c-1.3-0.5-1.9-2-1.3-3.3l0,0c0.5-1.3,2-1.9,3.3-1.3l0,0c1.3,0.5,1.9,2,1.3,3.3l0,0c-0.4,1-1.3,1.5-2.3,1.5l0,0
				C642.6,586,642.3,585.9,642,585.8z M632.8,581.1c-1.2-0.7-1.5-2.3-0.8-3.5l0,0c0.7-1.2,2.3-1.5,3.5-0.8l0,0
				c1.2,0.7,1.5,2.3,0.8,3.4l0,0c-0.5,0.8-1.3,1.2-2.1,1.2l0,0C633.6,581.5,633.2,581.3,632.8,581.1z"/>
		</g>
		<g>
			<path style="fill:#6ED8C3;" d="M628.3,574.1c-0.7,0-1.3-0.3-1.8-0.7c-0.1-0.1-0.2-0.2-0.3-0.4c-0.1-0.1-0.2-0.3-0.2-0.4
				c-0.1-0.2-0.1-0.3-0.1-0.5s0-0.3,0-0.5s0-0.3,0-0.5s0.1-0.3,0.1-0.5c0.1-0.1,0.1-0.3,0.2-0.4c0.1-0.1,0.2-0.3,0.3-0.4
				c0.1-0.1,0.2-0.2,0.4-0.3c0.1-0.1,0.3-0.2,0.4-0.2c0.2-0.1,0.3-0.1,0.5-0.1c0.8-0.2,1.7,0.1,2.3,0.7c0.1,0.1,0.2,0.2,0.3,0.4
				c0.1,0.1,0.2,0.3,0.2,0.4c0.1,0.2,0.1,0.3,0.1,0.5s0,0.3,0,0.5s0,0.3,0,0.5s-0.1,0.3-0.1,0.5c-0.1,0.2-0.1,0.3-0.2,0.4
				c-0.1,0.1-0.2,0.3-0.3,0.4C629.6,573.8,629,574.1,628.3,574.1z"/>
		</g>
	</g>
	<g>
		<path style="fill:#FFFFFF;" d="M743.3,535c-4.3,17.2-105.9-8.6-102.7-23"/>
	</g>
	<g>
		<path style="fill:#6ED8C3;" d="M733.6,353.2c0-1.4,1.1-2.5,2.5-2.5l0,0c1.4,0,2.5,1.1,2.5,2.5l0,0c0,1.4-1.1,2.5-2.5,2.5l0,0l0,0
			l0,0C734.8,355.7,733.6,354.6,733.6,353.2z M726.1,355.6c-1.4,0-2.5-1.2-2.5-2.6l0,0c0-1.4,1.2-2.5,2.5-2.4l0,0
			c1.4,0,2.5,1.2,2.5,2.5l0,0C728.6,354.6,727.5,355.6,726.1,355.6L726.1,355.6L726.1,355.6z M743.6,353.1c0-1.4,1-2.5,2.4-2.6l0,0
			c1.4,0,2.5,1,2.6,2.4l0,0c0,1.4-1,2.5-2.4,2.6l0,0h-0.1l0,0C744.8,355.5,743.7,354.5,743.6,353.1z M716,355.3
			c-1.4-0.1-2.4-1.2-2.4-2.6l0,0c0.1-1.4,1.2-2.4,2.6-2.4l0,0c1.4,0.1,2.4,1.2,2.4,2.6l0,0c-0.1,1.3-1.2,2.4-2.5,2.4l0,0
			C716.1,355.3,716.1,355.3,716,355.3z M753.6,352.7c-0.1-1.4,1-2.6,2.3-2.7l0,0c1.4-0.1,2.6,1,2.7,2.3l0,0c0.1,1.4-1,2.6-2.3,2.7
			l0,0c-0.1,0-0.1,0-0.2,0l0,0C754.8,355.1,753.7,354,753.6,352.7z M706,354.8c-1.4-0.1-2.4-1.3-2.3-2.7l0,0
			c0.1-1.4,1.3-2.4,2.7-2.3l0,0c1.4,0.1,2.4,1.3,2.3,2.7l0,0c-0.1,1.3-1.2,2.3-2.5,2.3l0,0C706.1,354.8,706,354.8,706,354.8z
			 M763.6,352c-0.2-1.4,0.8-2.6,2.2-2.8l0,0c1.4-0.1,2.6,0.8,2.8,2.2l0,0c0.2,1.4-0.8,2.6-2.2,2.8l0,0c-0.1,0-0.2,0-0.3,0l0,0
			C764.8,354.2,763.8,353.2,763.6,352z M695.9,353.9L695.9,353.9c-1.4-0.1-2.4-1.4-2.2-2.7l0,0c0.1-1.4,1.4-2.4,2.8-2.2l0,0
			c1.4,0.1,2.4,1.4,2.2,2.8l0,0c-0.1,1.3-1.2,2.2-2.5,2.2l0,0C696.1,353.9,696,353.9,695.9,353.9z M773.5,350.7
			c-0.3-1.4,0.6-2.7,2-2.9l0,0c1.4-0.3,2.7,0.6,2.9,2l0,0c0.3,1.4-0.6,2.7-2,2.9l0,0c-0.2,0-0.3,0.1-0.5,0.1l0,0
			C774.8,352.7,773.8,351.9,773.5,350.7z M685.9,352.6L685.9,352.6c-1.4-0.2-2.3-1.5-2.1-2.9l0,0c0.2-1.4,1.5-2.3,2.9-2.1l0,0
			c1.4,0.2,2.3,1.5,2.1,2.9l0,0c-0.2,1.2-1.2,2.1-2.5,2.1l0,0C686.1,352.6,686,352.6,685.9,352.6z M675.7,350.4L675.7,350.4
			c-1.3-0.4-2-1.8-1.6-3.2l0,0c0.4-1.3,1.8-2,3.1-1.6l0,0l0,0l0,0c1.3,0.4,2,1.8,1.6,3.2l0,0c-0.3,1-1.3,1.7-2.4,1.7l0,0
			C676.2,350.5,676,350.5,675.7,350.4z M783.3,348.5c-0.5-1.3,0.2-2.7,1.5-3.2l0,0c1.3-0.5,2.7,0.2,3.2,1.5l0,0
			c0.5,1.3-0.2,2.7-1.5,3.2l0,0c-0.3,0.1-0.6,0.2-0.9,0.2l0,0C784.6,350.2,783.7,349.5,783.3,348.5z"/>
	</g>
	<g>
		<path style="fill:#6ED8C3;" d="M742.7,313.8c0-1.4,1.1-2.5,2.5-2.5l0,0c1.4,0,2.5,1.1,2.5,2.5l0,0c0,1.4-1.1,2.5-2.5,2.5l0,0l0,0
			l0,0C743.8,316.3,742.7,315.2,742.7,313.8z M735.1,316.3L735.1,316.3c-1.4,0-2.5-1.1-2.5-2.5l0,0c0-1.4,1.2-2.5,2.5-2.5l0,0
			c1.4,0,2.5,1.1,2.5,2.5l0,0C737.6,315.2,736.5,316.3,735.1,316.3L735.1,316.3L735.1,316.3z M752.7,313.7c0-1.4,1.1-2.5,2.4-2.5
			l0,0c1.4,0,2.5,1.1,2.6,2.4l0,0c0,1.4-1.1,2.5-2.5,2.6l0,0l0,0l0,0C753.8,316.2,752.7,315.1,752.7,313.7z M725.1,316.1
			c-1.4,0-2.5-1.2-2.5-2.5l0,0c0-1.4,1.2-2.5,2.6-2.5l0,0c1.4,0,2.5,1.2,2.4,2.6l0,0C727.6,315,726.5,316.1,725.1,316.1L725.1,316.1
			L725.1,316.1z M762.7,313.5c-0.1-1.4,1-2.5,2.4-2.6l0,0l0,0l0,0c1.4-0.1,2.5,1,2.6,2.4l0,0c0.1,1.4-1,2.5-2.4,2.6l0,0h-0.1l0,0
			C763.8,315.9,762.7,314.8,762.7,313.5z M715.1,315.8c-1.4,0-2.5-1.2-2.4-2.6l0,0c0.1-1.4,1.2-2.5,2.6-2.4l0,0
			c1.4,0,2.4,1.2,2.4,2.6l0,0C717.6,314.8,716.5,315.8,715.1,315.8L715.1,315.8L715.1,315.8z M705,315.4L705,315.4
			c-1.4-0.1-2.4-1.2-2.4-2.6l0,0c0.1-1.4,1.2-2.5,2.6-2.4l0,0c1.4,0.1,2.4,1.2,2.4,2.6l0,0c-0.1,1.3-1.2,2.4-2.5,2.4l0,0
			C705.1,315.4,705.1,315.4,705,315.4z M772.7,313c-0.1-1.4,0.9-2.6,2.3-2.7l0,0c1.4-0.1,2.6,0.9,2.7,2.3l0,0
			c0.1,1.4-0.9,2.6-2.3,2.7l0,0c-0.1,0-0.1,0-0.2,0l0,0C773.8,315.3,772.8,314.3,772.7,313z M695,314.8L695,314.8
			c-1.4-0.1-2.4-1.3-2.3-2.7l0,0c0.1-1.4,1.3-2.4,2.7-2.3l0,0c1.4,0.1,2.4,1.3,2.3,2.7l0,0c-0.1,1.3-1.2,2.3-2.5,2.3l0,0
			C695.1,314.8,695,314.8,695,314.8z M782.6,312.1c-0.2-1.4,0.7-2.6,2.1-2.8l0,0c1.4-0.2,2.6,0.7,2.8,2.1l0,0
			c0.2,1.4-0.7,2.6-2.1,2.9l0,0c-0.1,0-0.2,0-0.4,0l0,0C783.9,314.3,782.8,313.4,782.6,312.1z M684.9,313.9
			c-1.4-0.1-2.4-1.4-2.2-2.8l0,0c0.1-1.4,1.4-2.4,2.8-2.2l0,0c1.4,0.1,2.4,1.4,2.2,2.8l0,0c-0.1,1.3-1.2,2.2-2.5,2.2l0,0
			C685.1,314,685,314,684.9,313.9z M674.8,312.4L674.8,312.4c-1.3-0.3-2.2-1.6-1.9-3l0,0c0.3-1.4,1.6-2.2,3-1.9l0,0l0,0l0,0
			c1.3,0.3,2.2,1.6,1.9,3l0,0c-0.3,1.2-1.3,2-2.4,2l0,0C675.1,312.5,674.9,312.5,674.8,312.4z"/>
	</g>
	<path style="fill:#6ED8C3;" d="M829.6,675c-0.8-5.2-4.9-9.4-11.5-11.8c-6.1-2.3-13.7-2.9-21.5-1.6c-7.8,1.3-14.8,4.2-19.8,8.4
		c-5.4,4.4-7.9,9.7-7.1,14.9s4.9,9.4,11.5,11.8c4,1.5,8.6,2.3,13.4,2.3c2.6,0,5.3-0.2,8-0.7c7.8-1.3,14.8-4.2,19.8-8.4
		C828,685.5,830.5,680.2,829.6,675z"/>
	<path style="fill:#6ED8C3;" d="M658.8,659.4c-16.8-2.8-31.2,3.2-32.9,13.4s10.1,20.5,26.9,23.3c2.8,0.5,5.5,0.7,8.1,0.7
		c13.1,0,23.4-5.5,24.8-14.1C687.4,672.4,675.6,662.2,658.8,659.4z"/>
	<path style="opacity:0.56;fill:#C3B5FE;enable-background:new    ;" d="M756.8,639c-11.2-15.2-12.2-47.7-13.2-79.1
		c-0.1-4.7-0.3-9.5-0.5-14.2c0-1-0.8-1.8-1.8-1.9c-1-0.1-1.9,0.5-2.2,1.5l-12,45.8c-0.1,0.3-0.1,0.7,0,1l36.5,150.5
		c0.2,0.9,1,1.5,1.9,1.5c0.1,0,0.1,0,0.2,0c1-0.1,1.8-0.9,1.8-1.9C767.8,738.7,770.4,657.4,756.8,639z"/>
	<g>
		<path style="fill:#2B2B2B;" d="M729.2,592.8c-0.2,0-0.4,0-0.6-0.1c-1.3-0.3-2.1-1.7-1.8-3l17.6-68.3c0.3-1.3,1.7-2.1,3-1.8
			s2.1,1.7,1.8,3l-17.6,68.3C731.3,592.1,730.3,592.8,729.2,592.8z"/>
	</g>
	<g>
		<path style="fill:#6ED8C3;" d="M743.9,482.7c0-1.4,1.1-2.5,2.5-2.5l0,0c1.4,0,2.5,1.1,2.5,2.5l0,0c0,1.4-1.1,2.5-2.5,2.5l0,0l0,0
			l0,0C745.1,485.2,743.9,484,743.9,482.7z M736.4,485.1L736.4,485.1c-1.4,0-2.5-1.2-2.5-2.5l0,0c0-1.4,1.2-2.5,2.5-2.5l0,0
			c1.4,0,2.5,1.2,2.5,2.5l0,0C738.9,484,737.8,485.1,736.4,485.1L736.4,485.1L736.4,485.1z M753.9,482.6c0-1.4,1-2.5,2.4-2.6l0,0
			c1.4,0,2.5,1,2.6,2.4l0,0c0,1.4-1,2.5-2.4,2.6l0,0c0,0,0,0-0.1,0l0,0C755.1,485,754,483.9,753.9,482.6z M726.3,484.8L726.3,484.8
			c-1.4,0-2.5-1.2-2.4-2.6l0,0c0-1.4,1.2-2.5,2.6-2.4l0,0c1.4,0.1,2.5,1.2,2.4,2.6l0,0C728.9,483.8,727.8,484.8,726.3,484.8
			L726.3,484.8C726.4,484.8,726.4,484.8,726.3,484.8z M763.9,482.2c-0.1-1.4,1-2.6,2.4-2.6l0,0c1.4-0.1,2.6,1,2.6,2.4l0,0
			c0.1,1.4-1,2.6-2.3,2.6l0,0c0,0-0.1,0-0.2,0l0,0C765.1,484.5,764,483.5,763.9,482.2z M716.3,484.4c-1.4-0.1-2.4-1.3-2.4-2.6l0,0
			c0.1-1.4,1.3-2.4,2.7-2.3l0,0c1.4,0.1,2.4,1.3,2.3,2.6l0,0c-0.1,1.3-1.2,2.3-2.5,2.3l0,0C716.4,484.4,716.3,484.4,716.3,484.4z
			 M773.9,481.5c-0.1-1.4,0.9-2.6,2.3-2.7l0,0c1.4-0.1,2.6,0.9,2.7,2.3l0,0c0.1,1.4-0.9,2.6-2.3,2.7l0,0c-0.1,0-0.2,0-0.2,0l0,0
			C775.1,483.8,774,482.8,773.9,481.5z M706.2,483.6c-1.4-0.1-2.4-1.3-2.3-2.7l0,0c0.1-1.4,1.3-2.4,2.7-2.3l0,0
			c1.4,0.1,2.4,1.3,2.3,2.7l0,0c-0.1,1.3-1.2,2.3-2.5,2.3l0,0C706.4,483.7,706.3,483.7,706.2,483.6z M696.2,482.7L696.2,482.7
			c-1.4-0.1-2.4-1.4-2.2-2.8l0,0c0.1-1.4,1.4-2.4,2.8-2.2l0,0l0,0l0,0c1.4,0.1,2.4,1.4,2.2,2.8l0,0c-0.1,1.3-1.2,2.2-2.5,2.2l0,0
			C696.4,482.7,696.3,482.7,696.2,482.7z M783.9,480.5c-0.2-1.4,0.8-2.6,2.1-2.8l0,0l0,0l0,0c1.4-0.2,2.6,0.8,2.8,2.1l0,0
			c0.2,1.4-0.8,2.6-2.1,2.8l0,0c-0.1,0-0.2,0-0.4,0l0,0C785.1,482.6,784,481.7,783.9,480.5z M686.2,481.4c-1.4-0.2-2.3-1.5-2.1-2.8
			l0,0c0.2-1.4,1.5-2.3,2.8-2.1l0,0c1.4,0.2,2.3,1.5,2.1,2.8l0,0c-0.2,1.2-1.2,2.1-2.5,2.1l0,0C686.4,481.4,686.3,481.4,686.2,481.4
			z M793.8,478.9c-0.3-1.3,0.5-2.7,1.9-3l0,0l0,0l0,0c1.3-0.3,2.7,0.5,3,1.9l0,0c0.3,1.3-0.5,2.7-1.9,3l0,0c-0.2,0-0.4,0.1-0.6,0.1
			l0,0C795,480.9,794,480.1,793.8,478.9z M676.2,479.7c-1.4-0.3-2.2-1.6-2-2.9l0,0c0.3-1.4,1.6-2.2,2.9-2l0,0c1.4,0.3,2.2,1.6,2,2.9
			l0,0c-0.2,1.2-1.3,2-2.4,2l0,0C676.5,479.7,676.4,479.7,676.2,479.7z M803.5,476.4c-0.6-1.3,0-2.7,1.3-3.3l0,0l0,0l0,0
			c1.3-0.6,2.7,0,3.3,1.3l0,0c0.5,1.3,0,2.7-1.3,3.3l0,0c-0.3,0.1-0.7,0.2-1,0.2l0,0C804.8,477.9,803.9,477.4,803.5,476.4z
			 M666.3,477.3L666.3,477.3c-1.3-0.4-2.1-1.8-1.7-3.1l0,0c0.4-1.3,1.8-2.1,3.1-1.7l0,0c1.3,0.4,2.1,1.8,1.7,3.1l0,0
			c-0.3,1.1-1.3,1.8-2.4,1.8l0,0C666.7,477.4,666.5,477.4,666.3,477.3z M656.5,473.6c-1.2-0.6-1.7-2.1-1.1-3.4l0,0
			c0.6-1.2,2.1-1.7,3.4-1.1l0,0c1.2,0.6,1.7,2.1,1.1,3.4l0,0c-0.4,0.9-1.3,1.3-2.2,1.3l0,0C657.2,473.9,656.8,473.8,656.5,473.6z
			 M809.8,468.8c-0.1-1.4,1-2.6,2.4-2.6l0,0c1.4-0.1,2.5,1,2.6,2.4l0,0c0.1,1.4-1,2.6-2.4,2.6l0,0h-0.1l0,0
			C811,471.2,809.8,470.2,809.8,468.8z M651.4,466.5c-1.3-0.3-2.2-1.7-1.9-3l0,0c0.3-1.3,1.7-2.2,3-1.9l0,0c1.3,0.3,2.2,1.7,1.8,3
			l0,0l0,0l0,0c-0.3,1.1-1.3,1.9-2.4,1.9l0,0C651.8,466.6,651.6,466.6,651.4,466.5z"/>
	</g>
	<g>
		<path style="fill:#6ED8C3;" d="M739.7,433.5c-1.4,0-2.5-1.1-2.5-2.5l0,0c0-1.4,1.1-2.5,2.5-2.5l0,0c1.4,0,2.5,1.1,2.5,2.5l0,0
			C742.2,432.4,741.1,433.5,739.7,433.5L739.7,433.5L739.7,433.5z M747.2,431c0-1.4,1.1-2.5,2.4-2.6l0,0l0,0l0,0
			c1.4,0,2.5,1.1,2.6,2.4l0,0c0,1.4-1.1,2.5-2.4,2.6l0,0c0,0,0,0-0.1,0l0,0C748.3,433.4,747.2,432.3,747.2,431z M729.6,433.4
			c-1.4,0-2.5-1.2-2.4-2.6l0,0c0-1.4,1.2-2.5,2.6-2.4l0,0c1.4,0,2.5,1.2,2.4,2.6l0,0C732.2,432.3,731,433.4,729.6,433.4L729.6,433.4
			C729.7,433.4,729.6,433.4,729.6,433.4z M757.2,430.7c-0.1-1.4,1-2.5,2.4-2.6l0,0c1.4-0.1,2.5,1,2.6,2.4l0,0c0.1,1.4-1,2.6-2.4,2.6
			l0,0h-0.1l0,0C758.4,433.1,757.3,432,757.2,430.7z M719.6,433c-1.4-0.1-2.5-1.2-2.4-2.6l0,0c0.1-1.4,1.2-2.4,2.6-2.4l0,0
			c1.4,0.1,2.4,1.2,2.4,2.6l0,0c-0.1,1.3-1.2,2.4-2.5,2.4l0,0C719.7,433,719.6,433,719.6,433z M767.2,430.1
			c-0.1-1.4,0.9-2.6,2.3-2.7l0,0c1.4-0.1,2.6,0.9,2.7,2.3l0,0c0.1,1.4-0.9,2.6-2.3,2.7l0,0c-0.1,0-0.1,0-0.2,0l0,0
			C768.4,432.4,767.3,431.5,767.2,430.1z M709.5,432.4c-1.4-0.1-2.4-1.3-2.3-2.7l0,0c0.1-1.4,1.3-2.4,2.7-2.3l0,0
			c1.4,0.1,2.4,1.3,2.3,2.7l0,0c-0.1,1.3-1.2,2.3-2.5,2.3l0,0C709.6,432.4,709.6,432.4,709.5,432.4z M699.5,431.5L699.5,431.5
			c-1.4-0.2-2.4-1.4-2.2-2.8l0,0c0.1-1.4,1.4-2.4,2.8-2.2l0,0l0,0l0,0c1.4,0.1,2.4,1.4,2.2,2.8l0,0c-0.1,1.3-1.2,2.2-2.5,2.2l0,0
			C699.7,431.5,699.6,431.5,699.5,431.5z M777.2,429.2c-0.2-1.4,0.8-2.6,2.2-2.8l0,0c1.4-0.2,2.6,0.8,2.8,2.2l0,0
			c0.2,1.4-0.8,2.6-2.2,2.8l0,0c-0.1,0-0.2,0-0.3,0l0,0C778.4,431.4,777.3,430.5,777.2,429.2z M689.4,430.2L689.4,430.2
			c-1.4-0.2-2.3-1.5-2.1-2.9l0,0c0.2-1.4,1.5-2.3,2.8-2.1l0,0c1.4,0.2,2.3,1.5,2.1,2.8l0,0c-0.2,1.2-1.3,2.1-2.5,2.1l0,0
			C689.7,430.2,689.6,430.2,689.4,430.2z M787.1,427.8c-0.3-1.3,0.6-2.7,1.9-3l0,0l0,0l0,0c1.3-0.3,2.7,0.6,3,1.9l0,0
			c0.3,1.4-0.6,2.7-1.9,3l0,0c-0.2,0-0.4,0.1-0.5,0.1l0,0C788.4,429.8,787.3,429,787.1,427.8z M679.4,428.3L679.4,428.3
			c-1.4-0.3-2.2-1.6-1.9-3l0,0c0.3-1.3,1.6-2.2,3-1.9l0,0l0,0l0,0c1.3,0.3,2.2,1.6,1.9,3l0,0c-0.3,1.2-1.3,1.9-2.4,1.9l0,0
			C679.8,428.4,679.6,428.4,679.4,428.3z M796.8,425.4c-0.7-1.2-0.2-2.7,1-3.4l0,0l0,0l0,0c1.2-0.7,2.7-0.2,3.4,1l0,0
			c0.7,1.2,0.2,2.7-1,3.4l0,0c-0.4,0.2-0.8,0.3-1.2,0.3l0,0C798.1,426.7,797.3,426.2,796.8,425.4z M669.4,425.3
			c-1.3-0.5-1.9-2-1.3-3.3l0,0c0.5-1.3,2-1.9,3.3-1.3l0,0l0,0l0,0c1.3,0.5,1.9,2,1.3,3.3l0,0c-0.4,0.9-1.3,1.5-2.3,1.5l0,0
			C670.1,425.5,669.8,425.4,669.4,425.3z M663.6,418.6c-1.3-0.4-2.1-1.7-1.8-3.1l0,0c0.4-1.3,1.7-2.1,3-1.8l0,0
			c1.3,0.4,2.1,1.7,1.8,3.1l0,0c-0.3,1.1-1.3,1.9-2.4,1.9l0,0C664.1,418.7,663.9,418.7,663.6,418.6z"/>
	</g>
	<g>
		<path style="fill:#2B2B2B;" d="M787.7,376.3c-1.2,0-2.2-0.8-2.4-2c-2.2-10.3-3.1-20.8,5.6-28.2c1-0.9,2.6-0.8,3.5,0.3
			c0.9,1,0.8,2.6-0.3,3.5c-5.5,4.7-6.6,11.3-4,23.4c0.3,1.3-0.6,2.7-1.9,3C788.1,376.3,787.9,376.3,787.7,376.3z"/>
	</g>
	<g>
		<path style="fill:#2B2B2B;" d="M676.8,374.7c-0.2,0-0.3,0-0.5-0.1c-1.3-0.3-2.2-1.6-1.9-3c0.2-0.9,0.4-1.7,0.6-2.6
			c2.3-10.4,3.5-16.1-6.6-29c-0.9-1.1-0.7-2.7,0.4-3.5c1.1-0.9,2.7-0.7,3.5,0.4c11.6,14.8,9.9,22.5,7.5,33.1
			c-0.2,0.8-0.4,1.7-0.6,2.5C679,373.9,678,374.7,676.8,374.7z"/>
	</g>
	<g>
		<g>
			<path style="fill:#6ED8C3;" d="M739.4,540.7c-0.7,0-1.3-0.3-1.8-0.7c-0.5-0.5-0.7-1.1-0.7-1.8c0-0.2,0-0.3,0.1-0.5
				c0-0.2,0.1-0.3,0.1-0.5c0.1-0.1,0.1-0.3,0.2-0.4c0.1-0.1,0.2-0.3,0.3-0.4c0.9-0.9,2.6-0.9,3.5,0c0.5,0.5,0.7,1.1,0.7,1.8
				c0,0.2,0,0.3,0,0.5s-0.1,0.3-0.1,0.5c-0.1,0.2-0.1,0.3-0.2,0.4s-0.2,0.3-0.3,0.4C740.7,540.4,740.1,540.7,739.4,540.7z"/>
		</g>
		<g>
			<path style="fill:#6ED8C3;" d="M718.6,542.9L718.6,542.9L718.6,542.9c-1.4-0.1-2.4-1.3-2.4-2.6l0,0c0.1-1.4,1.3-2.4,2.6-2.4l0,0
				c1.4,0.1,2.4,1.3,2.4,2.6l0,0c-0.1,1.3-1.2,2.4-2.5,2.4l0,0C718.7,542.9,718.7,542.9,718.6,542.9z M726.7,540.6
				c-0.1-1.4,0.9-2.6,2.3-2.7l0,0c1.4-0.1,2.6,0.9,2.7,2.3l0,0c0.1,1.4-0.9,2.6-2.3,2.7l0,0c-0.1,0-0.1,0-0.2,0l0,0
				C727.9,542.9,726.8,541.9,726.7,540.6z M708,541.9c-1.4-0.2-2.3-1.4-2.1-2.8l0,0c0.2-1.4,1.4-2.3,2.8-2.1l0,0
				c1.4,0.2,2.3,1.4,2.2,2.8l0,0c-0.2,1.3-1.2,2.2-2.5,2.2l0,0C708.2,541.9,708.1,541.9,708,541.9z M697.6,540.2
				c-1.3-0.3-2.2-1.6-2-2.9l0,0c0.2-1.4,1.6-2.2,2.9-2l0,0c1.3,0.2,2.2,1.6,2,2.9l0,0c-0.2,1.2-1.3,2-2.5,2l0,0
				C697.9,540.2,697.7,540.2,697.6,540.2z M687.2,538L687.2,538L687.2,538c-1.3-0.3-2.2-1.7-1.9-3l0,0c0.3-1.4,1.7-2.2,3-1.9l0,0
				c1.3,0.3,2.2,1.7,1.9,3l0,0c-0.3,1.2-1.3,1.9-2.4,1.9l0,0C687.6,538.1,687.4,538,687.2,538z M677,535.3c-1.3-0.4-2.1-1.8-1.7-3.1
				l0,0c0.4-1.3,1.8-2.1,3.1-1.7l0,0c1.3,0.4,2.1,1.8,1.7,3.1l0,0c-0.3,1.1-1.3,1.8-2.4,1.8l0,0C677.5,535.4,677.2,535.4,677,535.3z
				 M666.9,532.2L666.9,532.2L666.9,532.2c-1.3-0.4-2-1.9-1.6-3.2l0,0c0.4-1.3,1.9-2,3.2-1.6l0,0c1.3,0.4,2,1.9,1.6,3.2l0,0
				c-0.3,1-1.3,1.7-2.4,1.7l0,0C667.4,532.3,667.2,532.3,666.9,532.2z M656.9,528.6L656.9,528.6L656.9,528.6c-1.3-0.5-1.9-2-1.4-3.3
				l0,0c0.5-1.3,2-1.9,3.3-1.4l0,0c1.3,0.5,1.9,2,1.4,3.3l0,0c-0.4,1-1.3,1.6-2.3,1.6l0,0C657.6,528.8,657.2,528.7,656.9,528.6z
				 M647.2,524L647.2,524L647.2,524c-1.2-0.7-1.6-2.2-1-3.4l0,0c0.7-1.2,2.2-1.6,3.4-1l0,0c1.2,0.7,1.6,2.2,1,3.4l0,0
				c-0.5,0.8-1.3,1.3-2.2,1.3l0,0C648,524.3,647.6,524.2,647.2,524z"/>
		</g>
		<g>
			<path style="fill:#6ED8C3;" d="M641.5,517.3c-0.7,0-1.3-0.3-1.8-0.7c-0.5-0.5-0.7-1.1-0.7-1.8s0.3-1.3,0.7-1.8
				c0.9-0.9,2.6-0.9,3.5,0c0.5,0.5,0.7,1.1,0.7,1.8s-0.3,1.3-0.7,1.8C642.8,517,642.2,517.3,641.5,517.3z"/>
		</g>
	</g>
	
		<ellipse transform="matrix(0.7695 -0.6386 0.6386 0.7695 -1.2132 573.0256)" style="fill:#6ED8C3;" cx="793.28" cy="288.194" rx="6.8" ry="14.3"/>
	
		<ellipse transform="matrix(0.6747 -0.7381 0.7381 0.6747 8.6152 588.2823)" style="fill:#6ED8C3;" cx="671.697" cy="284.367" rx="14.3" ry="6.8"/>
	<g>
		<path style="fill:#2B2B2B;" d="M863.2,864.1h-69.7c-1.4,0-2.5-1.1-2.5-2.5s1.1-2.5,2.5-2.5h69.7c1.4,0,2.5,1.1,2.5,2.5
			S864.6,864.1,863.2,864.1z"/>
	</g>
	<g>
		<path style="fill:#2B2B2B;" d="M650.5,864.8h-69.8c-1.4,0-2.5-1.1-2.5-2.5s1.1-2.5,2.5-2.5h69.8c1.4,0,2.5,1.1,2.5,2.5
			S651.9,864.8,650.5,864.8z"/>
	</g>
</g>
<g>
	<path style="fill:#6ACFFF;" d="M469.4,241.8v-5.5c0-6.2,6.4-10.3,12-7.6l20.7,9.8l-20.4,10.7C476.2,252.2,469.4,248.2,469.4,241.8z
		"/>
	<path style="fill:#6ACFFF;" d="M494.6,206.5l-5.2,1.8c-5.9,2-7.6,9.4-3.3,13.9l16,16.4l3.5-22.8
		C506.7,209.5,500.6,204.4,494.6,206.5z"/>
</g>
<g>
	<path style="fill:#6ACFFF;" d="M477.2,608l3.2-2.9c3.6-3.3,9.4-1.6,10.8,3l5.2,17.3l-17-6.3C474.6,617.4,473.5,611.3,477.2,608z"/>
	<path style="fill:#6ACFFF;" d="M511.2,604.2l-3.8-2.1c-4.3-2.4-9.5,0.5-9.9,5.4l-1.2,18l15.2-9.9
		C515.8,612.8,515.5,606.6,511.2,604.2z"/>
</g>
<g>
	<path style="fill:none;stroke:#6ACFFF;stroke-width:3;stroke-linejoin:round;stroke-miterlimit:10;" d="M940.9,557l5,2.3
		c5.6,2.6,6.6,10.2,1.8,14.1L930,588.1l-1.1-23C928.6,558.7,935.1,554.3,940.9,557z"/>
	<path style="fill:none;stroke:#6ACFFF;stroke-width:3;stroke-linejoin:round;stroke-miterlimit:10;" d="M962.2,594.8l0.6-5.4
		c0.7-6.2-5.3-10.9-11.2-8.9l-21.6,7.6l19.1,12.8C954.4,604.5,961.5,601.1,962.2,594.8z"/>
</g>
<rect x="145.1" y="883.9" style="fill:#2B2B2B;" width="718.1" height="4.1"/>
<g>
	<path style="fill:#F9D5FF;" d="M182.4,194.5c-15.5,0-27.6-17.9-41.5-38.7c-17.2-25.6-36.7-54.7-65.2-54.7v-10
		c33.8,0,55.8,32.8,73.5,59.1c11.8,17.6,23,34.3,33.2,34.3V194.5z"/>
</g>
<g>
	<path style="fill:#F9D5FF;" d="M936,221.4v-10c11,0,26.5-13.4,41.6-26.3c17.6-15.1,35.7-30.6,52.2-30.6v10
		c-12.8,0-29.5,14.3-45.7,28.2C966.9,207.5,950.7,221.4,936,221.4z"/>
</g>
</svg>
