<?xml version="1.0" encoding="iso-8859-1"?>
<!-- Generator: Adobe Illustrator 23.0.2, SVG Export Plug-In . SVG Version: 6.00 Build 0)  -->
<svg version="1.1" id="Layer_1" xmlns="http://www.w3.org/2000/svg" xmlns:xlink="http://www.w3.org/1999/xlink" x="0px" y="0px"
	 viewBox="0 0 1105.6 1080" style="enable-background:new 0 0 1105.6 1080;" xml:space="preserve">
<g style="opacity:0.3;">
	<g>
		<path style="fill:#C4ECFE;" d="M1026.7,80.7V885H78.8V80.7H1026.7 M1029.8,77.6H75.7v810.5h954.1L1029.8,77.6L1029.8,77.6z"/>
	</g>
	<g>
		<g>
			<rect x="75.7" y="652.2" style="fill:#C4ECFE;" width="954.1" height="2.9"/>
		</g>
		<g>
			<rect x="75.7" y="536.1" style="fill:#C4ECFE;" width="954.1" height="2.9"/>
		</g>
		<g>
			<rect x="75.7" y="652.2" style="fill:#C4ECFE;" width="954.1" height="2.9"/>
		</g>
		<g>
			<rect x="75.7" y="768.2" style="fill:#C4ECFE;" width="954.1" height="2.9"/>
		</g>
		<g>
			<rect x="75.7" y="420.1" style="fill:#C4ECFE;" width="954.1" height="2.9"/>
		</g>
		<g>
			<rect x="75.7" y="304" style="fill:#C4ECFE;" width="954.1" height="2.9"/>
		</g>
		<g>
			<rect x="75.7" y="188" style="fill:#C4ECFE;" width="954.1" height="2.9"/>
		</g>
	</g>
</g>
<linearGradient id="SVGID_1_" gradientUnits="userSpaceOnUse" x1="-532.7748" y1="775.8502" x2="-532.7748" y2="516.3241" gradientTransform="matrix(-1 0 0 -1 -216.4248 1392)">
	<stop  offset="0" style="stop-color:#FFD8A1"/>
	<stop  offset="0.9958" style="stop-color:#FFFFFF"/>
</linearGradient>
<path style="fill:url(#SVGID_1_);" d="M551,888.6c-71.4-8.9-200.1-250.6-271.7-279.1c-50.7-20.2-95.6,24.4-140.9,22.2
	c-31-1.5-56.7,23.8-56.7,54.8v201.6L551,888.6z"/>
<rect x="194.8" y="883" style="fill:#2B2B2B;" width="638" height="4.1"/>
<g>
	<g>
		<g>
			<g>
				<path style="fill:#EA7068;" d="M763,880.7l-17.8-136.2c-0.9-7.3-8.5-12.5-17.1-11.6l-20.7,2.2l12.3,88.5l27.9,60.7
					C750.7,891.8,764,888.7,763,880.7z"/>
			</g>
		</g>
	</g>
	<g>
		<path style="fill:#EA7068;" d="M526.1,373.9l-142-84.2l-13.1-107c-2.2-16.9-16-30.5-33.7-31.6c-20-1.3-37.2,13.9-38.5,33.9
			l2.4,150.3c0.1,5.6,8.9,24.1,23.3,31.3C343.1,376,471,454.9,471,454.9c25.7,10.3,54.9-2.2,65.2-28
			C546.5,401.2,551.8,384.1,526.1,373.9z"/>
		
			<linearGradient id="SVGID_2_" gradientUnits="userSpaceOnUse" x1="474.55" y1="819.348" x2="474.55" y2="1036.9664" gradientTransform="matrix(1 0 0 -1 0 1392)">
			<stop  offset="0" style="stop-color:#F48B94"/>
			<stop  offset="0.405" style="stop-color:#F4A9A6"/>
			<stop  offset="0.4989" style="stop-color:#FED3B5"/>
			<stop  offset="0.599" style="stop-color:#DBECC2"/>
			<stop  offset="1" style="stop-color:#ADDCC8"/>
		</linearGradient>
		<polygon style="fill:url(#SVGID_2_);" points="472.2,341.5 423.9,426.7 466,451.7 525.2,372.8 		"/>
		<polygon style="fill:#FFFFFF;" points="475.3,343.3 423.9,426.7 400.3,414.8 454.5,331.1 		"/>
		<g>
			<path style="fill:#2B2B2B;" d="M384.4,304.8c-0.9,0-1.7-0.7-1.7-1.6l-0.4-13.4c0-0.9,0.7-1.7,1.6-1.8c0.9,0,1.7,0.7,1.8,1.6
				l0.4,13.4C386.1,304,385.4,304.8,384.4,304.8L384.4,304.8z"/>
		</g>
	</g>
	<path style="fill:#565656;" d="M284.6,609.5c-1.4-6.3-2.9-12.6-4.3-18.8l-2.2-9.7l-2.1-9.7l-4.2-19.5c-7.1-33,13.8-65.4,46.8-72.6
		c4.5-1,9.1-1.4,13.6-1.4l147.2,38l45.2,51.3l3.4,80l-199.5-38.4l73.9-74.6l13.4,98.5"/>
	<path style="fill:#EA7068;" d="M415.6,632.5L445,848.6l-89.1,12.1l-1.8-4.8l-1.7-4.8l-3.4-9.6c-2.2-6.4-4.2-12.8-6.4-19.2
		c-4.3-12.8-8.2-25.6-12.1-38.4c-7.7-25.7-15-51.4-21.9-77.1c-3.3-12.9-6.8-25.8-10-38.7l-4.8-19.4l-4.6-19.4
		c-1.6-6.7-3.2-13.3-4.7-20L415.6,632.5z"/>
	<g>
		<g>
			<g>
				<path style="fill:#EA7068;" d="M331.1,886l102.4-0.7c7.6,0,13.8-7.1,13.9-16l-2.4-20.7l-92.6,0.8l-23,20.3
					C321.3,872.1,322.8,886,331.1,886z"/>
			</g>
		</g>
	</g>
	<path style="fill:#EA7068;" d="M669.1,756.4l7,55.3l-77.5-57.4L710,734.2l15.9,88.5c-4.1,3.7-8.3,7.1-12.5,10.3s-8.5,6.2-12.7,9.2
		c-8.5,5.8-17.2,11.1-25.9,16.1c-4.4,2.4-8.7,4.9-13.1,7.1l-6.6,3.4l-6.6,3.2c-4.4,2.2-8.8,4.1-13.3,6.1l-3.3,1.5l-3.3,1.4l-6.7,2.8
		c-27.3,11.3-58.6-1.6-69.9-28.9c-1.3-3.2-2.3-6.4-3-9.7l-3.7-18.2c-2.3-11.2-4.2-22.4-6.3-33.6c-1.1-5.6-2-11.2-2.9-16.8
		L669.1,756.4z"/>
	<path style="fill:#565656;" d="M536.1,776.6l-2.8-16.8c-0.9-5.6-1.8-11.2-2.6-16.9c-0.9-5.6-1.8-11.2-2.6-16.9l-2.4-16.9
		c-0.8-5.6-1.5-11.3-2.2-16.9c-2.9-22.6-5.4-45.2-7.2-67.8l-1.3-17c-0.3-5.7-0.8-11.4-1-17.1l-0.4-8.5l-0.3-8.5l-0.2-8.6l-0.1-4.3
		v-4.3l112-42.5l10,29.6c7.8,22.9,13.2,46.6,16.3,70.6l18,142.5L536.1,776.6z"/>
	<path style="fill:#EA7068;" d="M802.2,190.7c-2.8-19.8-21.1-33.7-40.9-30.9c-17.5,2.4-30.3,17-31.2,34l-7.3,139.7l-145.9,40.3
		c0,0-28.1,76.9-6.9,94.7l207.7-52.7c19.2-3.1,33.3-19.6,33.3-39L802.2,190.7z"/>
	<polygon style="fill:#2B2B2B;" points="728.5,222.5 804.1,231.8 802.2,190.7 730,193.8 	"/>
	<polygon style="fill:#2B2B2B;" points="374.7,218.3 299.7,231.8 299.4,190.7 371.6,189.7 	"/>
	
		<linearGradient id="SVGID_3_" gradientUnits="userSpaceOnUse" x1="631.6" y1="812.2401" x2="631.6" y2="1037.1768" gradientTransform="matrix(1 0 0 -1 0 1392)">
		<stop  offset="0" style="stop-color:#F48B94"/>
		<stop  offset="0.405" style="stop-color:#F4A9A6"/>
		<stop  offset="0.4989" style="stop-color:#FED3B5"/>
		<stop  offset="0.599" style="stop-color:#DBECC2"/>
		<stop  offset="1" style="stop-color:#ADDCC8"/>
	</linearGradient>
	<polygon style="fill:url(#SVGID_3_);" points="647,353.2 671.2,446 623.7,457.5 592,367.5 	"/>
	<path style="fill:#565656;" d="M479.3,515.7c-12.2,35.4,5.7,83.7,45.5,82c30.8-1.3,32.9-0.2,45.9-0.7c41-1.8,67.5-44.7,54-83.4
		L479.3,515.7z"/>
	
		<linearGradient id="SVGID_4_" gradientUnits="userSpaceOnUse" x1="550.579" y1="819.348" x2="550.579" y2="1036.9664" gradientTransform="matrix(1 0 0 -1 0 1392)">
		<stop  offset="0" style="stop-color:#F48B94"/>
		<stop  offset="0.405" style="stop-color:#F4A9A6"/>
		<stop  offset="0.4989" style="stop-color:#FED3B5"/>
		<stop  offset="0.599" style="stop-color:#DBECC2"/>
		<stop  offset="1" style="stop-color:#ADDCC8"/>
	</linearGradient>
	<path style="fill:url(#SVGID_4_);" d="M621,493.1c0.3,11.8,3.8,20.5,3.8,20.5l-145.5,2.1c12-34.7-21.9-31.7-25.4-80.3h-0.1
		c0-0.3,0-0.5,0-0.8c-0.1-0.8-0.1-1.6-0.1-2.4h0.1c0.8-19.8,15.9-43.3,38.7-57c4.7-2.8,9.8-5.2,15.1-7.1c6.9-2.4,14.2-3.9,21.9-4.1
		l38.5-2.6c11.3-0.4,21.7,1.5,30.9,5.1c5.4,2.1,10.5,4.8,15.1,7.8c20.6,13.7,32.7,35.6,33.4,52.7C648.9,462.8,620.8,481.4,621,493.1
		z"/>
	<path style="fill:#FFFFFF;" d="M614,361.8v45.6c0,33.5-27.2,60.7-60.7,60.7s-60.7-27.2-60.7-60.7v-53.9l15.1,8
		c0,0,14.2,2.9,21.9,2.6l38.5-2.6c11.3-0.4,21.2,1.2,30.4,4.7L614,361.8z"/>
	<path style="fill:#EA7068;" d="M598.9,366.6v40.7c0,25.2-20.4,45.6-45.7,45.6s-45.6-20.4-45.6-45.6v-39.1
		c6.9-2.4,14.2-3.9,21.9-4.1l38.5-2.6C579.3,361.1,589.7,363.1,598.9,366.6z"/>
	<path style="fill:#2B2B2B;" d="M576.9,373.8l24.2-1c3-2,4.8-5.3,4.8-8.8l0,0l-7.4,2.3c-6.4-2.4-16.8-5.1-30.4-4.7L576.9,373.8z"/>
	<g>
		<path style="fill:#2B2B2B;" d="M479.3,517.5c-0.1,0-0.2,0-0.4,0c-0.9-0.2-1.5-1.1-1.3-2c3.7-16.6,2.1-25.7-5.8-32.5
			c-0.7-0.6-0.8-1.7-0.2-2.4c0.6-0.7,1.7-0.8,2.4-0.2c10.9,9.5,9.7,22.8,6.8,35.9C480.8,517,480.1,517.5,479.3,517.5z"/>
	</g>
	<polygon style="fill:#FFFFFF;" points="647,353.2 671.2,446 696.7,438.6 670.2,346.8 	"/>
	<path style="fill:#2B2B2B;" d="M643.1,453l-23.4,5.5c0,0-1.1,14.6,1.4,34.6C628.3,473.2,639.2,468.7,643.1,453z"/>
	<g>
		<g>
			<path style="fill:#F9D5FF;" d="M907,235.3l-97.4-17.6c-89.1-16.1-180.5-24.8-271.9-25.8c-91.3-1-183.2,5.6-273.2,19.8l-86,13.5
				l-4.7-29.6l86-13.5C351.4,167.7,445,161,537.9,162c93.1,1,186.3,9.9,277,26.3l97.4,17.6L907,235.3z"/>
		</g>
		<polygon style="fill:#2B2B2B;" points="885.4,201.1 856.2,226.3 882.7,230.7 		"/>
		<g>
			
				<rect x="796.874" y="192.301" transform="matrix(0.088 -0.9961 0.9961 0.088 612.0806 1109.567)" style="fill:#7FB0FA;" width="230.296" height="56.399"/>
			
				<rect x="873.683" y="202.192" transform="matrix(0.088 -0.9961 0.9961 0.088 653.8973 1164.2249)" style="fill:#9FC4FB;" width="178.197" height="45.599"/>
			
				<rect x="932.987" y="212.804" transform="matrix(0.088 -0.9961 0.9961 0.088 685.3475 1205.2019)" style="fill:#ECC6FA;" width="135.798" height="30.999"/>
		</g>
		<polygon style="fill:#2B2B2B;" points="222.6,188.6 252.7,212.7 226.4,218.1 		"/>
		<g>
			
				<rect x="168.601" y="93.9" transform="matrix(0.9917 -0.1286 0.1286 0.9917 -25.2497 27.0443)" style="fill:#7FB0FA;" width="56.4" height="230.301"/>
			
				<rect x="123.4" y="126.4" transform="matrix(0.9917 -0.1286 0.1286 0.9917 -26.4993 20.5906)" style="fill:#9FC4FB;" width="45.6" height="178.201"/>
			
				<rect x="92.8" y="152.601" transform="matrix(0.9917 -0.1286 0.1286 0.9917 -27.4571 15.7583)" style="fill:#ECC6FA;" width="31" height="135.8"/>
		</g>
	</g>
	<ellipse style="fill:#EA7068;" cx="765.6" cy="177.9" rx="29.8" ry="14.7"/>
	<ellipse style="fill:#EA7068;" cx="335.1" cy="173.7" rx="29.8" ry="14.7"/>
	<circle style="fill:#EA7068;" cx="599.9" cy="266.1" r="19.8"/>
	<path style="fill:#EA7068;" d="M519.4,368.6l0.9-93l56-2l6.2,92.8c1.4,17.5-12.2,32.5-29.7,32.8h-2.4
		C533.2,399.7,519.2,385.7,519.4,368.6z"/>
	<polygon style="fill:#2B2B2B;" points="531.8,330.5 581.5,352.2 579.1,317 	"/>
	<path id="XMLID_4_" style="fill:#EA7068;" d="M564,330.5l-29.5-0.1c-16.2,0-29.9-12.3-31.6-28.4l-6.2-57.5
		c0-29.1,23.7-52.6,52.8-52.6l0,0c29.1,0,52.6,23.7,52.6,52.8l-6.4,57.5C593.9,318.3,580.2,330.5,564,330.5z"/>
	<g>
		<path style="fill:#2B2B2B;" d="M547.9,276.5c-0.6,0-1.1-0.3-1.4-0.8c-0.5-0.8-0.3-1.8,0.5-2.4l4.7-3c0.5-0.4,0.8-1,0.8-1.6
			s-0.2-1.3-0.6-1.8c-3.3-3.8-5.1-8.5-5.1-13.3v-1.5c0-0.9,0.8-1.7,1.7-1.7s1.7,0.8,1.7,1.7v1.5c0,4,1.5,8,4.3,11.1
			c1.1,1.2,1.6,2.8,1.5,4.3c-0.1,1.6-0.9,3-2.1,4l-0.2,0.1l-4.8,3.1C548.5,276.4,548.2,276.5,547.9,276.5z"/>
	</g>
	<g>
		<path style="fill:#2B2B2B;" d="M521.1,265.3c-2.8,0-5.7-1.3-8.7-3.8c-0.7-0.6-0.8-1.7-0.2-2.4c0.6-0.7,1.7-0.8,2.4-0.2
			c2.8,2.3,5.4,3.3,7.7,2.9c3.1-0.6,4.8-3.7,4.8-3.7c0.4-0.8,1.5-1.1,2.3-0.7s1.2,1.5,0.7,2.3c-0.1,0.2-2.4,4.6-7.2,5.5
			C522.4,265.2,521.8,265.3,521.1,265.3z"/>
	</g>
	<g>
		<path style="fill:#2B2B2B;" d="M576.8,265.3c-0.6,0-1.2-0.1-1.8-0.2c-4.7-0.9-7.1-5.3-7.2-5.5c-0.4-0.8-0.1-1.9,0.7-2.3
			s1.9-0.1,2.3,0.7l0,0c0,0,1.7,3.1,4.8,3.8c2.3,0.4,4.9-0.5,7.7-2.9c0.7-0.6,1.8-0.5,2.4,0.2c0.6,0.7,0.5,1.8-0.2,2.4
			C582.5,264,579.5,265.3,576.8,265.3z"/>
	</g>
	
		<ellipse transform="matrix(0.5403 -0.8415 0.8415 0.5403 2.7994 537.3048)" style="fill:#EA7068;" cx="493.143" cy="266.09" rx="19.801" ry="19.8"/>
	<path style="fill:#FFFFFF;" d="M558.2,290.4c0,12.8-17.1,13.1-17.7,0"/>
	<rect x="492.2" y="217.4" style="fill:#FFC44A;" width="111.4" height="29"/>
	<circle style="fill:#2B2B2B;" cx="492" cy="198.9" r="25.2"/>
	<circle style="fill:#2B2B2B;" cx="589.3" cy="191.7" r="28.5"/>
	<circle style="fill:#2B2B2B;" cx="517.2" cy="189.6" r="34.8"/>
	<circle style="fill:#2B2B2B;" cx="554.1" cy="192.8" r="29.6"/>
	<circle style="fill:#2B2B2B;" cx="549.4" cy="172.5" r="34.7"/>
	<g>
		<path style="fill:#2B2B2B;" d="M722.7,348.5c-0.9,0-1.7-0.8-1.7-1.7v-13.3c0-0.9,0.8-1.7,1.7-1.7s1.7,0.8,1.7,1.7v13.3
			C724.4,347.7,723.6,348.5,722.7,348.5z"/>
	</g>
	<path style="fill:#2B2B2B;" d="M576.9,290.4h-55l0,0c0-8.1,6.6-14.7,14.7-14.7h25.5C570.3,275.6,576.9,282.2,576.9,290.4
		L576.9,290.4z"/>
	<g>
		<path style="fill:#2B2B2B;" d="M932.2,313.4c0,0-0.1,0-0.2,0c-0.9-0.1-1.6-0.9-1.5-1.8l15.7-177.5c0.1-0.9,0.9-1.6,1.8-1.5
			c0.9,0.1,1.6,0.9,1.5,1.8l-15.7,177.5C933.8,312.7,933.1,313.4,932.2,313.4z"/>
	</g>
	<g>
		<path style="fill:#2B2B2B;" d="M979.5,296.3c0,0-0.1,0-0.2,0c-0.9-0.1-1.6-0.9-1.5-1.8l11.9-135.3c0.1-0.9,0.9-1.6,1.8-1.5
			c0.9,0.1,1.6,0.9,1.5,1.8l-11.9,135.3C981.1,295.6,980.4,296.3,979.5,296.3z"/>
	</g>
	<g>
		<path style="fill:#2B2B2B;" d="M180.3,302.7c-0.8,0-1.6-0.6-1.7-1.5l-22.9-176.6c-0.1-0.9,0.5-1.8,1.5-1.9
			c0.9-0.1,1.8,0.5,1.9,1.5L182,300.8c0.1,0.9-0.5,1.8-1.5,1.9C180.4,302.7,180.4,302.7,180.3,302.7z"/>
	</g>
	<g>
		<path style="fill:#2B2B2B;" d="M132.3,287.6c-0.8,0-1.6-0.6-1.7-1.5l-17.4-134.7c-0.1-0.9,0.5-1.8,1.5-1.9
			c0.9-0.1,1.8,0.5,1.9,1.5L134,285.7c0.1,0.9-0.5,1.8-1.5,1.9C132.4,287.6,132.4,287.6,132.3,287.6z"/>
	</g>
	<g>
		<path style="fill:#2B2B2B;" d="M675.4,808.2c-0.8,0-1.6-0.6-1.7-1.5l-6.3-50.1c-0.1-0.9,0.5-1.8,1.5-1.9c0.9-0.1,1.8,0.5,1.9,1.5
			l6.3,50.1c0.1,0.9-0.5,1.8-1.5,1.9C675.5,808.2,675.5,808.2,675.4,808.2z"/>
	</g>
	<g>
		<path style="fill:#2B2B2B;" d="M415.6,634.2c-0.8,0-1.6-0.6-1.7-1.5l-4.7-34.7c-0.1-0.9,0.5-1.8,1.5-1.9s1.8,0.5,1.9,1.5l4.7,34.7
			c0.1,0.9-0.5,1.8-1.5,1.9C415.8,634.2,415.7,634.2,415.6,634.2z"/>
	</g>
	<g>
		<path style="fill:#2B2B2B;" d="M352.4,851.2c-0.9,0-1.6-0.7-1.7-1.6c-0.1-0.9,0.6-1.8,1.6-1.8l12.4-0.9c0.9-0.1,1.8,0.6,1.8,1.6
			s-0.6,1.8-1.6,1.8l-12.4,0.9C352.5,851.2,352.4,851.2,352.4,851.2z"/>
	</g>
	<polygon style="fill:#2B2B2B;" points="721.2,826.9 731.3,818.8 731.2,848.6 	"/>
	<polygon style="fill:#2B2B2B;" points="517.5,645 513.9,600.2 473,636.4 	"/>
</g>
<rect x="81.8" y="848.7" style="fill:#7FB0FA;" width="176" height="39.4"/>
<rect x="826.9" y="856.4" style="fill:#7FB0FA;" width="201.1" height="31.7"/>
<rect x="813.9" y="824.7" style="fill:#9FC4FB;" width="201.1" height="31.7"/>
<rect x="828.8" y="784" style="fill:#7FB0FA;" width="201.1" height="40.6"/>
<rect x="110.7" y="798" style="fill:#9FC4FB;" width="194.9" height="50.6"/>
<rect x="125.3" y="760.2" style="fill:#ECC6FA;" width="108.1" height="38.6"/>
<g>
	<g>
		<rect x="840.2" y="716.8" style="fill:#F9D5FF;" width="176.2" height="30"/>
	</g>
	<rect x="959.8" y="679.5" style="fill:#ECC6FA;" width="30" height="104.5"/>
	<rect x="989.8" y="696.1" style="fill:#9FC4FB;" width="30" height="71.4"/>
	<rect x="851.7" y="679.5" style="fill:#ECC6FA;" width="30" height="104.5"/>
	<rect x="821.7" y="696" style="fill:#9FC4FB;" width="30" height="71.4"/>
</g>
<g>
	<circle style="fill:#BFD9FF;" cx="184.6" cy="435.2" r="4.1"/>
	<circle style="fill:#BFD9FF;" cx="892.3" cy="770.1" r="4.1"/>
	<circle style="fill:#BFD9FF;" cx="896.4" cy="101.6" r="4.1"/>
	<circle style="fill:#BFD9FF;" cx="662.8" cy="236.9" r="4.1"/>
	<circle style="fill:#BFD9FF;" cx="399.8" cy="126.8" r="4.1"/>
	<circle style="fill:#BFD9FF;" cx="832.2" cy="498.7" r="3.8"/>
	<circle style="fill:#BFD9FF;" cx="151.8" cy="604.2" r="3.8"/>
</g>
<g>
	
		<rect x="154.912" y="434.195" transform="matrix(0.7128 -0.7014 0.7014 0.7128 -249.6641 268.7099)" style="fill:#F9D5FF;" width="96.702" height="10"/>
</g>
<g>
	
		<rect x="880.654" y="388.864" transform="matrix(0.311 -0.9504 0.9504 0.311 226.9 1119.6151)" style="fill:#F9D5FF;" width="10" height="28.9"/>
</g>
<g>
	
		<rect x="848.34" y="429.514" transform="matrix(0.6039 -0.7971 0.7971 0.6039 -27.4458 861.8027)" style="fill:#F9D5FF;" width="10" height="58.002"/>
</g>
<g>
	
		<rect x="687.858" y="117.745" transform="matrix(0.7147 -0.6994 0.6994 0.7147 115.0499 527.5506)" style="fill:#F9D5FF;" width="32.699" height="10"/>
</g>
</svg>
