<?xml version="1.0" encoding="iso-8859-1"?>
<!-- Generator: Adobe Illustrator 23.0.2, SVG Export Plug-In . SVG Version: 6.00 Build 0)  -->
<svg version="1.1" id="Layer_1" xmlns="http://www.w3.org/2000/svg" xmlns:xlink="http://www.w3.org/1999/xlink" x="0px" y="0px"
	 viewBox="0 0 1105.6 1080" style="enable-background:new 0 0 1105.6 1080;" xml:space="preserve">
<g style="opacity:0.3;">
	<g>
		<path style="fill:#C4ECFE;" d="M1026.7,80.7V885H78.8V80.7H1026.7 M1029.8,77.6H75.7v810.5h954.1L1029.8,77.6L1029.8,77.6z"/>
	</g>
	<g>
		<g>
			<g>
				<rect x="306.5" y="77.6" style="fill:#C4ECFE;" width="2.9" height="810.5"/>
			</g>
			<g>
				<rect x="427.9" y="77.6" style="fill:#C4ECFE;" width="2.9" height="810.5"/>
			</g>
			<g>
				<rect x="306.5" y="77.6" style="fill:#C4ECFE;" width="2.9" height="810.5"/>
			</g>
			<g>
				<rect x="185.1" y="77.6" style="fill:#C4ECFE;" width="2.9" height="810.5"/>
			</g>
			<g>
				<rect x="549.3" y="77.6" style="fill:#C4ECFE;" width="2.9" height="810.5"/>
			</g>
			<g>
				<rect x="670.7" y="77.6" style="fill:#C4ECFE;" width="2.9" height="810.5"/>
			</g>
			<g>
				<rect x="790.6" y="77.6" style="fill:#C4ECFE;" width="2.9" height="810.5"/>
			</g>
			<g>
				<rect x="910.5" y="77.6" style="fill:#C4ECFE;" width="2.9" height="810.5"/>
			</g>
		</g>
	</g>
</g>
<linearGradient id="SVGID_1_" gradientUnits="userSpaceOnUse" x1="281.85" y1="1055.4998" x2="281.85" y2="624.6924" gradientTransform="matrix(1 0 0 -1 0 1392)">
	<stop  offset="0" style="stop-color:#C0DDFC"/>
	<stop  offset="0.9958" style="stop-color:#FFFFFF"/>
</linearGradient>
<path style="fill:url(#SVGID_1_);" d="M75.7,417v337.3c0,73.6,60.2,133.1,133.8,132.3l278.5-3.2C418.7,843,431.4,709,383,671.8
	c-48.3-37.3-25.9-179.8-100.1-202.3s-60.6-114-80.7-139.5c-0.5-0.6-1-1.2-1.5-1.8c-42.4-50.4-125-19.1-125,46.8V417z"/>
<g>
	<circle style="fill:#BFD9FF;" cx="947.6" cy="257.9" r="4.1"/>
	<circle style="fill:#BFD9FF;" cx="90.8" cy="709.2" r="4.1"/>
	<circle style="fill:#BFD9FF;" cx="189.7" cy="146.7" r="4.1"/>
	<circle style="fill:#BFD9FF;" cx="370.1" cy="339.5" r="4.1"/>
	<circle style="fill:#BFD9FF;" cx="690.2" cy="122.6" r="4.1"/>
	<circle style="fill:#BFD9FF;" cx="339" cy="677.9" r="3.8"/>
</g>
<g>
	
		<linearGradient id="SVGID_2_" gradientUnits="userSpaceOnUse" x1="-1008.2098" y1="1094.8746" x2="-1008.2098" y2="633.0239" gradientTransform="matrix(-1 0 0 -1 -220.3099 1392)">
		<stop  offset="0" style="stop-color:#C0DDFC"/>
		<stop  offset="0.9958" style="stop-color:#FFFFFF"/>
	</linearGradient>
	<path style="fill:url(#SVGID_2_);" d="M1029.1,288.3c0,36.6,0,443.7,0,443.7c0,86.2-70.4,155.7-156.5,154.7L546.7,883
		c81.1-47.2,89.8-240.8,183.7-275.8s62.8-184.1,138.7-197.6s89.8-83.1,101.6-119.1C983.2,252.6,1029.1,251.8,1029.1,288.3z"/>
	
		<linearGradient id="SVGID_3_" gradientUnits="userSpaceOnUse" x1="-566.4072" y1="633.9508" x2="-566.4072" y2="509.1155" gradientTransform="matrix(-1 0 0 -1 322.2428 1392)">
		<stop  offset="0" style="stop-color:#FFD8A1"/>
		<stop  offset="0.9958" style="stop-color:#FFFFFF"/>
	</linearGradient>
	<path style="fill:url(#SVGID_3_);" d="M747.5,888.1c62.4,0,90.9-91.6,164.5-82.7c22.1,2.7,46.7-42.6,56.8-59.6
		c16.7-28.3,61-16.9,61,15.8v126.5H747.5z"/>
</g>
<linearGradient id="SVGID_4_" gradientUnits="userSpaceOnUse" x1="215.65" y1="673.7291" x2="215.65" y2="510.6983" gradientTransform="matrix(1 0 0 -1 0 1392)">
	<stop  offset="0" style="stop-color:#FFD8A1"/>
	<stop  offset="0.9958" style="stop-color:#FFFFFF"/>
</linearGradient>
<path style="fill:url(#SVGID_4_);" d="M355.5,888.1c-79.6,0-77.1-120.8-146.4-136.8c-27.7-6.4-42.7-26.8-55.5-49.1
	c-21.3-37-77.8-22-77.8,20.7v165.2L355.5,888.1L355.5,888.1z"/>
<g>
	<g>
		<path style="fill:#F9D5FF;" d="M320.9,320c-14.9,0-29.6-20.7-48.3-47c-22.7-32-50.9-71.8-82.8-74.1l0.7-10
			c36.6,2.7,66.3,44.6,90.2,78.3c14.9,21,30.3,42.8,40.1,42.8v10H320.9z"/>
	</g>
	<g>
		<path style="fill:#F9D5FF;" d="M792.1,198v-10c7.7,0,24.2-19.1,38.7-35.9c25-29,53.4-61.8,81.2-61.8v10
			c-23.2,0-51.2,32.4-73.6,58.4C819.4,180.6,804.4,198,792.1,198z"/>
	</g>
	<g>
		<path style="fill:#E8E993;" d="M383,515.6c-5.2-8.3-22.2-13.1-28.4-14.2l1.8-9.8c2.7,0.5,26.6,5.3,35,18.8L383,515.6z"/>
	</g>
	<g>
		<path style="fill:#A4E9B8;" d="M759.7,510.1l-8-6c1.6-2.2,16.5-21.6,32.3-23.2l1,10C775.2,491.8,763.4,505.1,759.7,510.1z"/>
	</g>
	<g>
		<path style="fill:#E8928A;" d="M806.5,310l-9.7-2.5c4-15.9,18.7-22.9,19.3-23.2l4.2,9.1C820.3,293.5,809.4,298.8,806.5,310z"/>
	</g>
	<g>
		<path style="fill:#98C2FE;" d="M475.2,507.7c0-0.1-3.2-11.9-13.6-16.8l4.3-9c14.8,7,18.8,22.7,19,23.4L475.2,507.7l4.8-1.2
			L475.2,507.7z"/>
	</g>
	<g>
		<path style="fill:#98C2FE;" d="M698.6,239.7l-7.2-6.9l3.6,3.5l-3.6-3.4c0.1-0.1,8.4-9,7.1-20.5l9.9-1.1
			C710.2,227.4,699.1,239.2,698.6,239.7z"/>
	</g>
	<g>
		<path style="fill:#C492D6;" d="M447,388c-2.8-11.1-13.8-16.5-13.9-16.5l4.2-9.1c0.6,0.3,15.3,7.3,19.3,23.1L447,388z"/>
	</g>
	<g>
		<path style="fill:#C492D6;" d="M382.5,564.3c-8,0-14-2.5-14.4-2.6l3.9-9.2c0.1,0,11.4,4.6,21.7-0.7l4.6,8.9
			C392.8,563.5,387.3,564.3,382.5,564.3z"/>
	</g>
</g>
<g>
	<path style="fill:#BE6361;" d="M387.2,464.4l-20.2,5.2c-16.2,4.2-32.7-5.5-36.9-21.7c-3.7-14.3,3.5-28.9,16.3-34.9l20.2-9.6
		L387.2,464.4z"/>
	
		<linearGradient id="SVGID_5_" gradientUnits="userSpaceOnUse" x1="459.7924" y1="964.7287" x2="459.7924" y2="1209.0236" gradientTransform="matrix(1 0 0 -1 0 1392)">
		<stop  offset="0" style="stop-color:#FFE0C2"/>
		<stop  offset="0.401" style="stop-color:#7AAEFC"/>
		<stop  offset="0.5908" style="stop-color:#B8C1FC"/>
		<stop  offset="1" style="stop-color:#D2D4D4"/>
	</linearGradient>
	<path style="fill:url(#SVGID_5_);" d="M366.6,403.4l91.6-43.5l-25.6,26.6l38.6-120.2c7.1-22,30.7-34.1,52.7-27.1
		s34.1,30.7,27.1,52.7l-38.6,120.2l-1.1,3.5c-3.8,11.7-13.4,20.2-24.5,23.1l-99.6,25.7L366.6,403.4z"/>
	
		<linearGradient id="SVGID_6_" gradientUnits="userSpaceOnUse" x1="521.4778" y1="570.7287" x2="521.4778" y2="1050.2368" gradientTransform="matrix(1 0 0 -1 0 1392)">
		<stop  offset="0" style="stop-color:#BFE7D1"/>
		<stop  offset="0.4092" style="stop-color:#E89AC0"/>
		<stop  offset="0.4989" style="stop-color:#A7A7AE"/>
		<stop  offset="0.599" style="stop-color:#47A6D3"/>
		<stop  offset="1" style="stop-color:#9774AC"/>
	</linearGradient>
	<path style="fill:url(#SVGID_6_);" d="M618.3,405.3L532,597.6l4-13.3l-37.2,229.6l-71.6-11.6c-0.4-5-0.7-9.9-1-14.9l-0.6-14.8
		c-0.4-9.9-0.6-19.7-0.8-29.6c-0.3-19.7-0.1-39.3,0.3-58.9c0.3-9.8,0.5-19.6,0.9-29.3l0.6-14.6l0.8-14.6c1-19.5,2.3-38.9,3.8-58.3
		c0.1-1.8,0.5-3.5,1.1-5.1l2.9-8c5.9-16.6,12.1-33.1,18.5-49.5c6.5-16.3,13.1-32.6,20.2-48.7c7-16.1,14.3-32.1,22.1-47.9l5.9-11.8
		c2-3.9,4-7.8,6.1-11.7c2.1-3.9,4.2-7.8,6.3-11.6l3.3-5.7l1.6-2.9l1.7-2.8L618.3,405.3z"/>
	<path style="fill:#2B2B2B;" d="M393,874.6L500.1,801c5.6-3.8,7.1-11.5,3.4-17.2l-9-13.8l-67.2,47.1L384.7,865
		C379.7,870.7,386.9,878.8,393,874.6z"/>
	<path style="fill:#F9D5FF;" d="M603,596.2H320.9c-2.8,0-5,2.2-5,5v282.1c0,2.8,2.2,5,5,5H603c2.8,0,5-2.2,5-5V601.2
		C608,598.4,605.8,596.2,603,596.2z"/>
	<rect x="488" y="601.2" style="fill:#FFFFFF;" width="282.1" height="282.1"/>
	<path style="fill:#F9D5FF;" d="M770.1,888.3H488c-2.8,0-5-2.2-5-5V601.2c0-2.8,2.2-5,5-5h282.1c2.8,0,5,2.2,5,5v282.1
		C775.1,886.1,772.9,888.3,770.1,888.3z M493,878.3h272.1V606.2H493V878.3z"/>
	<polygon style="fill:#FFFFFF;" points="404.5,742.3 237.3,742.3 320.9,601.2 488,601.2 	"/>
	<path style="fill:#F9D5FF;" d="M404.5,747.3H237.3c-1.8,0-3.5-1-4.3-2.5c-0.9-1.6-0.9-3.5,0-5l83.6-141.1c0.9-1.5,2.5-2.5,4.3-2.5
		H488c1.8,0,3.5,1,4.3,2.5c0.9,1.6,0.9,3.5,0,5l-83.5,141.1C407.9,746.4,406.3,747.3,404.5,747.3z M246.1,737.3h155.6l77.6-131.1
		H323.7L246.1,737.3z"/>
	<polygon style="fill:#FFFFFF;" points="807.7,742.3 525.6,742.3 488,601.2 770.1,601.2 	"/>
	<path style="fill:#F9D5FF;" d="M807.7,747.3H525.6c-2.3,0-4.2-1.5-4.8-3.7l-37.6-141.1c-0.4-1.5-0.1-3.1,0.9-4.3c0.9-1.2,2.4-2,4-2
		h282.1c2.3,0,4.2,1.5,4.8,3.7L812.5,741c0.4,1.5,0.1,3.1-0.9,4.3C810.7,746.6,809.3,747.3,807.7,747.3z M529.4,737.3h271.8
		l-34.9-131.1H494.5L529.4,737.3z"/>
	
		<linearGradient id="SVGID_7_" gradientUnits="userSpaceOnUse" x1="561.6764" y1="964.7287" x2="561.6764" y2="1209.0236" gradientTransform="matrix(1 0 0 -1 0 1392)">
		<stop  offset="0" style="stop-color:#FFE0C2"/>
		<stop  offset="0.401" style="stop-color:#7AAEFC"/>
		<stop  offset="0.5908" style="stop-color:#B8C1FC"/>
		<stop  offset="1" style="stop-color:#D2D4D4"/>
	</linearGradient>
	<path style="fill:url(#SVGID_7_);" d="M502.2,383.6c-16.1-39.2,11.5-48.5-9.6-70.6c-21.2-22-24.5-63.9,5.6-76.3
		c23.2-9.5,24.4-11.2,34.2-15.2c30.9-12.7,65.2,10,68.5,43.3c0,0,0.4,7.7,4.2,16.4c3.8,8.8,31,12.9,42.1,39.8L502.2,383.6z"/>
	
		<linearGradient id="SVGID_8_" gradientUnits="userSpaceOnUse" x1="575.7434" y1="570.7287" x2="575.7434" y2="1050.2368" gradientTransform="matrix(1 0 0 -1 0 1392)">
		<stop  offset="0" style="stop-color:#BFE7D1"/>
		<stop  offset="0.4092" style="stop-color:#E89AC0"/>
		<stop  offset="0.4989" style="stop-color:#A7A7AE"/>
		<stop  offset="0.599" style="stop-color:#47A6D3"/>
		<stop  offset="1" style="stop-color:#9774AC"/>
	</linearGradient>
	<path style="fill:url(#SVGID_8_);" d="M647.3,321.1c8.5,20.7-0.4,60.6-36.3,75.7l-29.4,11.3c-32.7,13.8-71.2-4.6-80.4-26.9
		L647.3,321.1z"/>
	<path id="SVGID_206_" style="fill:#BE6361;" d="M476.3,218.4l28.8-5.5c14.9-2.9,24.7-17.3,21.8-32.2l-8.4-43.4
		c-4.6-23.8-27.6-39.5-51.5-34.9l0,0c-23.8,4.6-39.5,27.6-34.9,51.5l7.7,39.8C443,210.6,459.4,221.7,476.3,218.4z"/>
	<path style="fill:#2B2B2B;" d="M438.5,166.6c0,2.1-1.3,3.9-3,4.6l-1.9-9.6C436.3,161.7,438.5,163.9,438.5,166.6z"/>
	<path style="fill:#BE6361;" d="M519.2,255.6l28.1-28.6l-39.4-73.8l-42.3,20.1l32.3,78.3C501.4,260.1,512.7,262.3,519.2,255.6z"/>
	<path style="fill:#2B2B2B;" d="M448,179.3c-0.2,0-0.3,0-0.5-0.1l-4.6-1.7c-1.2-0.6-2-1.7-2.4-3s-0.2-2.6,0.4-3.8l4.7-8.5
		c0.4-0.7,1.3-1,2-0.6s1,1.3,0.6,2l-4.7,8.5c-0.5,0.9-0.2,2.1,0.7,2.6l4.3,1.6c0.8,0.3,1.2,1.1,0.9,1.9
		C449.2,178.9,448.6,179.3,448,179.3z"/>
	<path style="fill:#2B2B2B;" d="M454.6,194.4c-3.9,0-6.6-3-6.7-3.1c-0.5-0.6-0.5-1.6,0.1-2.1s1.6-0.5,2.1,0.1c0,0,2,2.2,4.6,2.1
		c1.9-0.1,3.8-1.3,5.7-3.7c0.5-0.7,1.4-0.8,2.1-0.3s0.8,1.4,0.3,2.1c-2.4,3.2-5.1,4.8-8,4.9C454.7,194.4,454.6,194.4,454.6,194.4z"
		/>
	<polygon style="fill:#2B2B2B;" points="483.7,217 502,213.5 490.9,234.5 	"/>
	<circle style="fill:#2B2B2B;" cx="461.6" cy="161.4" r="5"/>
	<circle style="fill:#2B2B2B;" cx="430.6" cy="114.4" r="32.8"/>
	<circle style="fill:#2B2B2B;" cx="474.6" cy="111" r="25.5"/>
	<circle style="fill:#2B2B2B;" cx="502.4" cy="126.6" r="22.6"/>
	<polygon style="fill:#2B2B2B;" points="481.2,133.5 489.4,170.5 509.1,167.3 531.9,198.2 518.9,138.6 487.4,122.7 	"/>
	<path style="fill:#BE6361;" d="M503.8,171.9L503.8,171.9c-3.9,0.6-7.5-2-8.1-5.9l-1.5-9.1c-0.6-3.9,2-7.5,5.9-8.1l0,0
		c3.9-0.6,7.5,2,8.1,5.9l1.5,9.1C510.3,167.6,507.7,171.3,503.8,171.9z"/>
	
		<linearGradient id="SVGID_9_" gradientUnits="userSpaceOnUse" x1="660.3" y1="559.6769" x2="660.3" y2="1050.6018" gradientTransform="matrix(1 0 0 -1 0 1392)">
		<stop  offset="0" style="stop-color:#BFE7D1"/>
		<stop  offset="0.4092" style="stop-color:#E89AC0"/>
		<stop  offset="0.4989" style="stop-color:#A7A7AE"/>
		<stop  offset="0.599" style="stop-color:#47A6D3"/>
		<stop  offset="1" style="stop-color:#9774AC"/>
	</linearGradient>
	<path style="fill:url(#SVGID_9_);" d="M668.9,357.1l28.2,238.2l-4.4-15.1l64.8,156.3l-44.5,69c0,0-10-16.1-12.5-18.9
		c-2.5-2.9-4.9-5.8-7.3-8.7c-4.9-5.8-9.5-11.7-14.1-17.6c-9.2-11.8-18-23.8-26.6-35.9c-4.2-6.1-8.5-12.1-12.6-18.3l-6.2-9.2l-6-9.3
		c-8-12.3-22.7-38.3-30.3-50.9c-1.4-2.3-2.3-4.7-2.8-7.1l-1.6-7.8C588.6,600,580.2,526,577,504s-6.1-44-8.5-66l-1.7-16.6
		c-0.5-5.5-1.1-11.1-1.5-16.6c-0.5-5.5-0.9-11.1-1.3-16.6l-0.5-8.3l-0.2-4.2l-0.2-4.2L668.9,357.1z"/>
	<path style="fill:#2B2B2B;" d="M702.7,871.4L774.3,763c3.7-5.7,2.3-13.3-3.3-17.2l-13.5-9.4l-44.5,69l-21.5,60.4
		C689,872.8,698.6,877.6,702.7,871.4z"/>
	<path style="fill:#BE6361;" d="M807.7,433.9l16.5,24.5c9.3,13.9,5.6,32.6-8.2,42c-12.6,8.4-29.2,6.2-39.1-4.7l-23.1-25.1
		L807.7,433.9z"/>
	<polygon style="fill:#2B2B2B;" points="587.9,345.5 675.9,415.9 668.9,357.1 607.4,337.5 	"/>
	
		<linearGradient id="SVGID_10_" gradientUnits="userSpaceOnUse" x1="671.5212" y1="964.5349" x2="671.5212" y2="1207.7368" gradientTransform="matrix(1 0 0 -1 0 1392)">
		<stop  offset="0" style="stop-color:#FFE0C2"/>
		<stop  offset="0.401" style="stop-color:#7AAEFC"/>
		<stop  offset="0.5908" style="stop-color:#B8C1FC"/>
		<stop  offset="1" style="stop-color:#D2D4D4"/>
	</linearGradient>
	<path style="fill:url(#SVGID_10_);" d="M753.7,470.6l-81.8-89.1l8.6,8.2L553,297.5c-18.8-13.4-23.2-39.6-9.8-58.4
		s39.6-23.2,58.4-9.8l127.5,92.1l2,1.5c2.6,1.9,4.8,4.2,6.5,6.7l70,104.2L753.7,470.6z"/>
	<rect x="690.8" y="883.9" style="fill:#2B2B2B;" width="187.5" height="4.1"/>
	<path style="fill:#2B2B2B;" d="M694.9,589.2c-0.5,0-1-0.3-1.3-0.7l-13.1-21.1c-0.4-0.7-0.2-1.6,0.5-2.1c0.7-0.4,1.6-0.2,2.1,0.5
		l13.1,21.1c0.4,0.7,0.2,1.6-0.5,2.1C695.4,589.1,695.2,589.2,694.9,589.2z"/>
	<path style="fill:#2B2B2B;" d="M576.6,502.4c-0.7,0-1.4-0.6-1.5-1.3l-8.1-62.9c-0.1-0.8,0.5-1.6,1.3-1.7s1.6,0.5,1.7,1.3l8.1,62.9
		c0.1,0.8-0.5,1.6-1.3,1.7C576.7,502.4,576.7,502.4,576.6,502.4z"/>
	<path style="fill:#2B2B2B;" d="M675.9,387.2c-0.7,0-1.3-0.5-1.5-1.2l-3.1-13.7c-0.2-0.8,0.3-1.6,1.1-1.8c0.8-0.2,1.6,0.3,1.8,1.1
		l3.1,13.7c0.2,0.8-0.3,1.6-1.1,1.8C676.1,387.2,676,387.2,675.9,387.2z"/>
	<path style="fill:#2B2B2B;" d="M607.4,341c-0.3,0-0.6-0.1-0.9-0.3l-13.3-9.5c-0.7-0.5-0.8-1.4-0.3-2.1s1.4-0.8,2.1-0.3l13.3,9.5
		c0.7,0.5,0.8,1.4,0.3,2.1C608.3,340.8,607.9,341,607.4,341z"/>
	<path style="fill:#2B2B2B;" d="M501.2,382.7c-0.5,0-0.9-0.2-1.2-0.7c-8.6-12.6-4.4-47.5-4.2-48.9c0.1-0.8,0.9-1.4,1.7-1.3
		c0.8,0.1,1.4,0.9,1.3,1.7c0,0.4-4.2,35.2,3.8,46.9c0.5,0.7,0.3,1.6-0.4,2.1C501.8,382.6,501.5,382.7,501.2,382.7z"/>
	<path style="fill:#2B2B2B;" d="M519.2,255.6l65.5-33.4c0,0-16.9-6.4-42.1-3.4l4.7,8.2L519.2,255.6z"/>
</g>
</svg>
