<?xml version="1.0" encoding="utf-8"?>
<!-- Generator: Adobe Illustrator 22.0.1, SVG Export Plug-In . SVG Version: 6.00 Build 0)  -->
<svg version="1.1" id="Layer_1" xmlns="http://www.w3.org/2000/svg" xmlns:xlink="http://www.w3.org/1999/xlink" x="0px" y="0px" viewBox="0 0 800 781.5" style="enable-background:new 0 0 800 781.5;" xml:space="preserve">

<title>source_final_all</title>
<g>
	<rect width="800" height="781.5" style="fill:#FFFFFF;"/>
	<g style="opacity:0.3;">
		<path d="M743,58.4v582H57v-582H743 M745.2,56.2H54.8v586.5h690.4L745.2,56.2L745.2,56.2z" style="fill:#C4ECFE;"/>
		<g>
			<rect x="221.9" y="56.2" width="2.1" height="586.5" style="fill:#C4ECFE;"/>
		</g>
		<g>
			<rect x="309.7" y="56.2" width="2.1" height="586.5" style="fill:#C4ECFE;"/>
		</g>
		<g>
			<rect x="221.9" y="56.2" width="2.1" height="586.5" style="fill:#C4ECFE;"/>
		</g>
		<g>
			<rect x="134" y="56.2" width="2.1" height="586.5" style="fill:#C4ECFE;"/>
		</g>
		<g>
			<rect x="397.5" y="56.2" width="2.1" height="586.5" style="fill:#C4ECFE;"/>
		</g>
		<g>
			<rect x="485.3" y="56.2" width="2.1" height="586.5" style="fill:#C4ECFE;"/>
		</g>
		<g>
			<rect x="572.1" y="56.2" width="2.1" height="586.5" style="fill:#C4ECFE;"/>
		</g>
		<g>
			<rect x="658.9" y="56.2" width="2.1" height="586.5" style="fill:#C4ECFE;"/>
		</g>
	</g>
	<circle cx="732.1" cy="288.1" r="3" style="fill:#BFD9FF;"/>
	<circle cx="697.3" cy="178.1" r="3" style="fill:#BFD9FF;"/>
	<circle cx="165.1" cy="128.1" r="3" style="fill:#BFD9FF;"/>
	<circle cx="442.6" cy="74.8" r="3" style="fill:#BFD9FF;"/>
	<circle cx="113" cy="340.1" r="2.7" style="fill:#BFD9FF;"/>
	
		<linearGradient id="SVGID_1_" gradientUnits="userSpaceOnUse" x1="-2851.8206" y1="1819.6887" x2="-2995.0842" y2="1995.5137" gradientTransform="matrix(1 0 0 1 3111.8201 -1354)">
		<stop offset="0" style="stop-color:#C0DDFC"/>
		<stop offset="0.19" style="stop-color:#D3E7FD"/>
		<stop offset="0.49" style="stop-color:#EBF4FE"/>
		<stop offset="0.77" style="stop-color:#FAFCFF"/>
		<stop offset="1" style="stop-color:#FFFFFF"/>
	</linearGradient>
	<path d="M355.4,642.6c-46.2-3-61.4-66.3-88.4-91.2s-85.2-7.1-97.9-75.2c-8.5-45.5-46.4-47.5-77.9-64.3
		c-17.2-9.1-38,3.3-38,22.9v207.8H355.4z" style="fill:url(#SVGID_1_);"/>
	
		<linearGradient id="SVGID_2_" gradientUnits="userSpaceOnUse" x1="-2471.2334" y1="1895.9103" x2="-2471.2334" y2="1995.0637" gradientTransform="matrix(-1 0 0 1 -2291.53 -1354)">
		<stop offset="0" style="stop-color:#FFEFA1"/>
		<stop offset="1" style="stop-color:#FFFFFF"/>
	</linearGradient>
	<path d="M305.9,642.6c-33.9-2.4-77.1-76.9-125.8-76.9c-64.5,0-57-27.6-83.6-31.3c-31.5-4.5-43.1,13.2-43.1,60.6v49.3
		L305.9,642.6z" style="fill:url(#SVGID_2_);"/>
	<path d="M316.1,192.4c-0.1-0.1,0.1-0.1,0.2-0.1c0.1,0,0.2-0.1,0.3-0.1c0.2-0.1,0.4-0.1,0.7-0.1l1.4-0.3
		c0.9-0.1,1.9-0.2,2.8-0.3c1.8-0.1,3.7-0.1,5.5,0.1c3.5,0.3,6.9,0.8,10.3,1.7c6.7,1.6,12.8,5,19.2,7c3.2,1,6.3,2.1,9.3,3.1
		c3,1,6,1.7,9.1,2.2c2.8,0.4,5.6,0.5,8.5,0.4c1.3-0.1,2.5-0.3,3.8-0.4c1.2-0.1,2.3-0.4,3.3-0.7s2-0.5,2.8-0.8c0.9-0.3,1.4-0.4,2.8-1
		c2.8-1.2,5.6-2.5,8.2-3.9c5.9-3.2,12.2-7.2,18.3-11.3c6.2-4.1,12.4-8.5,18.7-13.2c3.1-2.3,6.2-4.6,9.3-6.9l4.6-3.5l4.4-3.5l0.6-0.5
		c9.8-7.7,24-5.9,31.7,3.8c6.8,8.7,6.4,21-1.1,29.1l-4.3,4.8l-4.3,4.6c-2.9,3-5.7,6.1-8.7,9c-5.9,5.9-11.9,11.8-18.2,17.6
		s-13,11.4-20.4,16.9c-4,3-8.2,5.7-12.4,8.2c-2.6,1.5-5.4,2.8-8.1,4c-1.4,0.6-2.9,1.1-4.3,1.6c-1.4,0.5-2.9,0.9-4.3,1.3
		c-2.8,0.7-5.6,1.3-8.5,1.8c-1.4,0.2-2.7,0.4-4.1,0.6c-1.4,0.1-2.7,0.4-4.1,0.5c-5.4,0.7-10.5,1-15.6,1.4c-5.1,0.4-10.1,1.4-15.1,2
		c-2.5,0.3-4.9,0.4-7.4,0.4c-2.4-0.1-4.8-0.3-7.2-0.7c-4.6-0.9-9.1-2.5-13.3-4.8c-4.2-2.2-8.2-4.8-12.2-6.8c-2-1-4.1-1.9-6.2-2.8
		c-2.1-0.9-4.1-1.7-6.2-2.6c-2-0.9-4.2-1.7-6.3-2.4c-1.1-0.4-2.2-0.7-3.3-1.2l-3.7-1.2c-14.6-6.4-21.3-23.5-14.8-38.1
		C284.4,192.7,301.5,186,316.1,192.4L316.1,192.4z" style="fill:#FDC068;"/>
	<path d="M425.6,185.1c0,0,18.8,31.3,35.7,39l21.3-17.1l-38.9-36.5L425.6,185.1z" style="fill:#E3514F;"/>
	<circle cx="475.5" cy="177.1" r="38.1" style="fill:#F96361;"/>
	<path d="M231.9,249.2c-0.2,0.1-0.4,0.3-0.7,0.4c-0.1,0.1-0.4,0.3-0.5,0.4c-0.3,0.3-0.7,0.6-0.9,0.8
		c-0.6,0.5-1.2,0.9-1.8,1.4c-1.1,0.8-2.3,1.5-3.5,2.2c-2.2,1.2-4.6,2.2-6.9,2.8c-2.2,0.7-4.6,1-6.9,1.1c-2.3,0.1-4.6-0.1-6.9-0.4
		c-1.2-0.2-2.3-0.5-3.4-0.9c-0.6-0.1-1.2-0.4-1.7-0.6c-0.5-0.2-1.1-0.4-1.7-0.7c-2.2-1.1-4.4-2.2-6.6-3.5c-2.2-1.3-4.3-2.5-6.4-3.6
		s-4.3-2-6.6-2.7c-4.5-1.4-9-2.7-13.7-3.6c-4.8-0.9-9.6-2.2-14.3-3.7c-2.4-0.8-4.8-1.8-7.2-2.8c-2.4-1-4.8-2.2-7.2-3.4
		c-2.4-1.2-4.8-2.6-7.2-4.1s-4.8-3.1-7.1-4.9c-2.4-1.8-4.7-3.8-6.9-5.9c-2.2-2.1-4.3-4.3-6.2-6.7c-3.1-3.9-6-8-8.6-12.2
		c-5-7.9-9.2-15.5-13.1-23.2c-3.9-7.7-7.3-15.3-10.7-23c-1.7-3.8-3.3-7.7-4.8-11.6l-2.3-5.9l-2.3-6c-4.5-11.6,1.3-24.7,13-29.2
		c10.2-3.9,21.9,0.1,27.5,9.4l0.4,0.7l2.9,4.8l3,4.9c2,3.3,4.1,6.5,6.2,9.8c4.1,6.5,8.3,12.9,12.7,19s8.7,12.1,13,17.1
		c2,2.3,4.1,4.6,6.3,6.7c1.1,1,1.5,1.3,2.2,2c0.7,0.7,1.5,1.2,2.3,1.8c0.8,0.7,1.8,1.3,2.8,2c1.1,0.7,2.2,1.3,3.3,1.8
		c2.6,1.2,5.3,2,8.1,2.5c1.6,0.2,3.1,0.3,4.7,0.1c1.6-0.1,3.3-0.3,4.9-0.4c3.3-0.4,6.5-0.4,9.8,0.2c1.6,0.3,3.3,0.7,4.8,1.3
		c1.7,0.6,3.3,1.3,4.8,2c3.3,1.5,6.6,3.3,10.1,4.3c1.7,0.5,3.5,0.9,5.2,1.2c1.7,0.4,3.5,0.5,5.3,0.7c1.7,0.1,3.5,0.2,5.3,0.1
		c0.9,0,1.7-0.1,2.5-0.1l1.2-0.1c0.2,0,0.4-0.1,0.6-0.1l0.2-0.1c0.1,0,0.2-0.1,0.1-0.1c16-0.9,29.7,11.2,30.6,27.2
		c0.9,16-11.2,29.7-27.2,30.6C232.4,249.1,232.2,249.1,231.9,249.2L231.9,249.2z" style="fill:#FDC068;"/>
	<path d="M129.8,145.1c0,0-28.8,22.4-47.4,23.5l-13.7-23.7l49.3-20.1L129.8,145.1z" style="fill:#E3514F;"/>
	<circle cx="86.3" cy="119.7" r="38.1" style="fill:#F96361;"/>
	<path d="M224.2,274.9c-7.1,24.7-4.5,56.9,23.4,55.6c21.5-0.9,23-0.1,32.1-0.5c28.7-1.2,36.5-31.2,28.7-58.2
		L224.2,274.9z" style="fill:#F96361;"/>
	
		<linearGradient id="SVGID_3_" gradientUnits="userSpaceOnUse" x1="264.9421" y1="1390.809" x2="264.9421" y2="1739.644" gradientTransform="matrix(1 0 0 1 0 -1354)">
		<stop offset="0" style="stop-color:#FFE0C2"/>
		<stop offset="0.4" style="stop-color:#7AAEFC"/>
		<stop offset="0.59" style="stop-color:#B8C1FC"/>
		<stop offset="1" style="stop-color:#D2D4D4"/>
	</linearGradient>
	<path d="M317.3,252.1c-4.9,5.8-9,11.8-8.9,21.3l-84.2,1.5c-1-7.7-6.2-14.4-11.6-21.6c7.6-7,12.7-19.5,12.7-33.9
		c0-11.3-3.2-21.6-8.2-28.8c5.4-3.3,12.2-5.6,20.3-6.7c4.4-0.6,8.8-2.1,13.5-2.2l26.9-1.8h0.1c5.3-0.2,10.6,0.4,15.6,1.7
		c2.3,0.6,4.6,1.4,6.8,2.2c4.8,1.9,9.5,4.1,14,6.5c-5.2,7.2-8.5,17.6-8.5,29.1C305.8,233,310.3,244.9,317.3,252.1z" style="fill:url(#SVGID_3_);"/>
	<path d="M293.8,186.6c0,15.6-12.7,28.3-28.3,28.3c-15.6,0-28.3-12.7-28.3-28.3c0-0.9,0-1.7,0.1-2.6
		c4.3-1.4,8.9-2.1,13.5-2.3l26.9-1.8c5.3-0.2,10.6,0.4,15.7,1.7C293.7,183.3,293.8,184.9,293.8,186.6z" style="fill:#FFFFFF;"/>
	<path d="M300.2,183.9l-19.8,17.4l-2.7-21.3h0.1c5.3-0.2,10.6,0.4,15.6,1.7C295.7,182.2,298,183,300.2,183.9z" style="fill:#2B2B2B;"/>
	<path d="M287.3,189.9c-2.2,9.5-10.6,16.3-20.3,16.4h-1.7c-11.7,0.2-21.4-9.1-21.6-20.8c0-0.2,0-0.4,0-0.7l0.6-59.6
		l39.1-1.4l3.2,48l1.2,11.4C288,185.5,287.8,187.7,287.3,189.9z" style="fill:#FDC068;"/>
	<path d="M287.3,189.9l-35.8-10.3l35.2-7.7l1.2,11.4C288,185.5,287.8,187.7,287.3,189.9z" style="fill:#2B2B2B;"/>
	<circle cx="230" cy="144.5" r="13.2" style="fill:#FDC068;"/>
	<circle cx="299.6" cy="144.5" r="13.2" style="fill:#FDC068;"/>
	<path d="M300.3,144.1l-1.7,7.7c-2.1,18.7-19,32.3-37.7,30.2c-15.9-1.7-28.5-14.4-30.2-30.3l-1.7-7.8
		c-2.7-13,1.6-26.6,11.5-35.5c6-5.4,13.6-8.6,21.6-9.1c0.9-0.1,1.7-0.1,2.5-0.1c0.4,0,0.9,0,1.3,0c5.6,0.2,11,1.7,15.8,4.3
		c2.5,1.4,4.8,3,6.9,4.9l0,0C298.8,117.4,303.2,131,300.3,144.1z" style="fill:#FDC068;"/>
	<circle cx="251.6" cy="138.3" r="3" style="fill:#2B2B2B;"/>
	<circle cx="277.7" cy="138.3" r="3.1" style="fill:#2B2B2B;"/>
	<g>
		<path d="M264.6,149.7c-0.4,0-0.7-0.1-0.9-0.5c-0.3-0.5-0.1-1.2,0.3-1.4l2.7-1.7c0.5-0.4,0.6-1.2,0.1-1.7
			c-1-1.1-1.7-2.3-2.2-3.6c-0.2-0.5,0.1-1.2,0.6-1.4c0.5-0.2,1.2,0.1,1.4,0.6c0.4,1.1,1,2.1,1.8,2.9l0.1,0.1c1.2,1.4,1,3.5-0.4,4.8
			l-0.1,0.1l-2.7,1.7C265,149.7,264.8,149.7,264.6,149.7z" style="fill:#2B2B2B;"/>
	</g>
	<path d="M257.1,153.4c1.3,13.5,16.4,9.8,16.3,0" style="fill:#FFFFFF;"/>
	<path d="M288.8,108.5c0,0-11.2,4.9-23.2,4.9c-11.9,0-25.1-4.9-25.1-4.9c6-5.4,13.6-8.6,21.6-9.1
		c0.9-0.1,1.7-0.1,2.5-0.1c0.4,0,0.9,0,1.3,0c5.8,0.2,12.1,1.5,16.8,4.1L288.8,108.5L288.8,108.5z" style="fill:#565656;"/>
	<path d="M279.2,153.4h-28c2.5-3,6.2-4.8,10.1-4.8h7.7C272.9,148.7,276.6,150.4,279.2,153.4L279.2,153.4z" style="fill:#565656;"/>
	<path d="M340.8,414l-87.4,5.1c-8.6-50.3-17.8-120.9-17.8-120.9l72.8-24.7c1.9,4.6,6.4,20,11.6,40
		c4.7,18.1,10,39.9,14.2,61.2C337,388.4,339.3,402,340.8,414z" style="fill:#F96361;"/>
	<polygon points="340.7,414 339,399.8 251.4,406.9 253.4,419.1 	" style="fill:#FFFFFF;"/>
	<path d="M356,642.6h-68.2c-4.5,0-8.1-3.8-8.2-8.6l-0.3-11.6l53.9,0.6l23.7,10.8C361.8,635.1,360.9,642.6,356,642.6z" style="fill:#2B2B2B;"/>
	<path d="M333.3,623.7l-53.9-1.3c0,0-12.3-139.9-19.1-168.6c-2.4-10.3-4.3-19.3-6.9-34.8l87.4-5
		c1.6,13,2.8,24.2,3.5,31.9C347.8,484.2,333.1,619.8,333.3,623.7z" style="fill:#FDC068;"/>
	<path d="M169.1,420.9l87,4.4c15.4-50.3,36-127.2,36-127.2l-69.6-24.7C216.5,285,182.3,369.8,169.1,420.9z" style="fill:#F96361;"/>
	<path d="M124.9,642.6h68.2c4.5,0,8.6-3.8,9.4-8.6l1.8-11.6l-54,0.6l-25.2,10.8C120.2,635.1,120,642.6,124.9,642.6z" style="fill:#2B2B2B;"/>
	<path d="M150.3,623l54-0.6c0,0,31.3-139.9,42-168.6c3.8-10.3,5.1-13,9.9-28.5l-87-4.4c-3.3,13-4.1,17.3-5.8,25
		C154.6,484.2,151.1,619,150.3,623z" style="fill:#FDC068;"/>
	<polygon points="310.4,281 219.4,281 222.9,267.8 308.9,268.7 	" style="fill:#FFFFFF;"/>
	<polygon points="256.2,425.3 259.6,414 172.4,408.4 169.1,420.9 	" style="fill:#FFFFFF;"/>
	<g>
		<path d="M256.2,426.4c-0.1,0-0.2,0-0.3-0.1c-0.6-0.1-0.9-0.7-0.7-1.3l14.8-50.2c0.1-0.6,0.7-0.9,1.3-0.7
			c0.6,0.1,0.9,0.7,0.7,1.3l-14.8,50.2C257,426.1,256.6,426.4,256.2,426.4z" style="fill:#2B2B2B;"/>
	</g>
	<path d="M332.6,218.9c0,17.1-15.3,33.2-22.1,43.7c-6.9-7.2-4.6-29.6-4.6-43.1c0-11.5,3.3-21.9,8.5-29.1
		C325.9,196.7,332.6,204.6,332.6,218.9z" style="fill:#FDC068;"/>
	<path d="M225.3,219.5c0,14.3,2.8,32.8-6.1,43.1c-6-8.2-24.6-25.5-24.7-37.8c-0.2-14.8,11.2-27.1,22.6-34.1
		C222.1,197.9,225.3,208.1,225.3,219.5z" style="fill:#FDC068;"/>
	<g>
		<path d="M122.3,133.1c-0.4,0-0.7-0.2-0.9-0.5l-18.6-32.3c-0.3-0.5-0.1-1.2,0.4-1.4c0.5-0.3,1.2-0.1,1.4,0.4
			l18.6,32.3c0.3,0.5,0.1,1.2-0.4,1.4C122.6,133,122.4,133.1,122.3,133.1z" style="fill:#2B2B2B;"/>
	</g>
	<g>
		<path d="M313.9,258.7c-0.2,0-0.4-0.1-0.7-0.2l-5.6-4.4c-0.4-0.4-0.5-1-0.1-1.4c0.4-0.4,1-0.5,1.4-0.1l5.6,4.4
			c0.4,0.4,0.5,1,0.1,1.4C314.5,258.5,314.2,258.7,313.9,258.7z" style="fill:#2B2B2B;"/>
	</g>
	<rect x="135" y="639.4" width="552.6" height="3.2" style="fill:#2B2B2B;"/>
	<path d="M686.5,623.8l-53.9-1.3c0,0-5.1-23.8-11.4-52.5h65.6C686.7,598.6,686.3,622,686.5,623.8z" style="fill:#FDC068;"/>
	<path d="M558.5,572.2c-7.7,27.6-13.8,50.2-13.8,50.2l-54,0.6c0.4-2,2.5-28.2,5.1-59.4L558.5,572.2z" style="fill:#FDC068;"/>
	<path d="M707,239.4c2,8.3,3.6,16.7,5.2,25.1c1.6,8.4,3.1,16.8,4.5,25.3c1.4,8.5,2.7,16.9,4,25.3
		c0.7,4.2,1.2,8.5,1.8,12.7c0.2,2.1,0.7,4.2,1.2,6.3l1.2,6.3c3.3,16.8,6.4,33.6,9.3,50.5s5.6,33.9,7.8,50.9l0,0
		c1.7,12.4-7.1,23.7-19.5,25.4c-10.8,1.4-21-5-24.5-15.3c-5.6-16.5-10.6-33.1-15.4-49.9s-9.5-33.4-13.9-50.2l-1.7-6.3
		c-0.6-2.1-1.2-4.2-1.5-6.4c-0.9-4.3-1.8-8.5-2.6-12.7c-1.7-8.5-3.3-17.1-4.9-25.6c-1.6-8.5-3-17.1-4.4-25.7
		c-1.4-8.6-2.7-17.1-3.7-25.8c-1.9-15.9,9.6-30.3,25.5-32.1C690,215.5,703.6,225,707,239.4L707,239.4z" style="fill:#FDC068;"/>
	<path d="M710.8,238c2.5,21,11.9,37.2-37.5,43.1c-21.1,1.7-39.6-14-41.3-35.2c-1.6-20,12.4-37.8,32.3-41
		C685.2,202.5,708.2,217,710.8,238z" style="fill:#2B2B2B;"/>
	<path d="M507.4,243.8c-0.9,8.5-1.6,17-2.2,25.5c-0.7,8.5-1.1,17.1-1.5,25.6c-0.4,8.5-0.7,17.1-1,25.6
		c-0.1,4.3-0.2,8.5-0.4,12.8c0,2.2-0.2,4.3-0.4,6.4l-0.5,6.4c-1.3,17.1-2.5,34.2-3.3,51.3c-0.9,17.1-1.6,34.3-1.7,51.5l0,0
		c-0.1,12.5,9.9,22.7,22.4,22.9c10.8,0.1,20.2-7.5,22.4-18c3.5-17,6.6-34.2,9.4-51.3c2.8-17.1,5.4-34.3,7.9-51.5l0.9-6.4
		c0.3-2.2,0.7-4.3,0.8-6.4c0.4-4.3,0.8-8.7,1.1-13c0.7-8.7,1.3-17.4,1.9-26c0.6-8.6,1-17.4,1.4-26c0.4-8.7,0.7-17.4,0.7-26
		c-0.1-16-13-28.9-29.1-28.9C521.4,218.2,509,229.2,507.4,243.8z" style="fill:#FDC068;"/>
	<path d="M503.5,243c0,21.1-7.4,38.4,42.3,38.4c21.2,0.8,38.9-15.8,39.7-36.9c0.8-21.2-15.8-38.9-36.9-39.7
		c-0.9,0-1.9,0-2.8,0C524.7,204.7,503.5,221.9,503.5,243z" style="fill:#2B2B2B;"/>
	<path d="M709.2,642.6H641c-4.5,0-8.1-3.8-8.2-8.6l-0.2-11.6l53.9,0.6l23.7,10.8C715,635.1,714.1,642.6,709.2,642.6z" style="fill:#2B2B2B;"/>
	<path d="M686.8,570h-65.6c-7.5-34.5-16.6-76.1-20.3-91.8c-2.4-10.3-24.7-155.7-24.7-155.7l72.8-24.7
		c0.5,1.3,3.4,14.3,7.4,32.8c10.4,48.6,28.1,134.2,28.6,139.8C686.7,491.3,687,534.7,686.8,570z" style="fill:#FFEAE0;"/>
	<path d="M465.3,642.6h68.2c4.5,0,8.6-3.8,9.4-8.6l1.8-11.6l-54,0.6l-25.2,10.8C460.6,635.1,460.4,642.6,465.3,642.6z" style="fill:#2B2B2B;"/>
	<path d="M632.6,322.4c0,0-23.3,80.6-36.8,126c-4.6,15.6-8.1,27.1-9,29.7c-5.9,16-18.3,59.1-28.1,94.1l-58-8h-0.1
		l-4.6-0.7c2.7-33.7,6-73.1,8-93.3c1.4-15.1,29.1-93.8,46.2-139.8c6.4-17.1,11.3-29.7,12.9-32.8l42,14.9L632.6,322.4z" style="fill:#FFEAE0;"/>
	<g>
		<path d="M596.6,450.7c-0.5,0-1-0.4-1-0.9l-4.2-49.4c-0.1-0.6,0.4-1.1,0.9-1.2c0.6-0.1,1.1,0.4,1.2,0.9l4.2,49.4
			c0.1,0.6-0.4,1.1-0.9,1.2C596.7,450.7,596.6,450.7,596.6,450.7z" style="fill:#2B2B2B;"/>
	</g>
	<path d="M649.3,293l6.8,37.5H550.1l13.4-38.4c-0.9-19.5-36-30.2-32.3-56c3.1-21.5,23.2-35.7,50.6-35.9
		c12.4-0.1,26.8-0.3,37.4-0.4h2.7c7-0.1,14,0.7,20.9,2.3c20.2,4.8,37.6,16.9,38.1,36.5C681.5,272.2,650.4,270.5,649.3,293z" style="fill:#2B2B2B;"/>
	<path d="M587.7,268.7c7.5-0.1,14.5,3.8,17.9,10.6c0.7,1.6,1.4,3.2,1.9,4.9c0.6,1.9,0.8,3.8,0.7,5.7
		c0,3.1,0,4.6-0.1,7.7c0,2-0.3,3.8-0.7,5.7c-0.4,1.7-1,3.3-1.7,4.9c-3.5,7.2-11.1,10.6-18.7,10.6c-7.4,0-15.2-3.2-18-10.6
		c-0.6-1.6-0.9-3.3-1.1-4.9c-0.3-1.9-0.3-3.8-0.1-5.7c0.5-3.4,2.7-5.4,5.6-5.4h4.8c3,0,4.6,1.9,4.5,5.4c-0.1,3.2,1.6,5.3,4.6,5.3
		c3.2,0,5.2-2.1,5.3-5.3c0.1-3.2,0.1-4.6,0.1-7.7c0.1-3.4-1.6-5.1-4.8-5.4c-0.9-0.1-1.9,0.2-2.5,0.9c-0.8,0.7-1.9,1-2.9,0.9h-4
		c-3,0-5.2-0.9-6.8-2.7c-1.6-1.8-2.5-4.5-2.7-8c-0.6-7.1-1.7-14.2-2.7-21.3c-0.4-3.3,0.3-5.9,2-7.8c1.7-1.9,4.4-2.8,8-2.8H603
		c1.8,0,3.1,0.5,4,1.4c0.9,1.1,1.4,2.5,1.3,3.9c0,2.1,0,3.2,0,5.3c0.1,1.4-0.4,2.8-1.3,3.9c-0.9,0.9-2.2,1.4-4,1.4h-18.3
		c-1.7,0-2.4,0.9-2.3,2.7c0.2,2.7,0.3,4.1,0.5,6.9C584.4,269,586,268.7,587.7,268.7z" style="fill:#FFEAE0;"/>
	<path d="M641.5,313c0.1,1.8-0.3,3.1-1.2,4.1c-1.1,0.9-2.5,1.4-3.9,1.4H631c-1.4,0.1-2.8-0.4-3.9-1.4
		c-0.9-0.9-1.4-2.2-1.5-4.1c-0.9-17-1.9-33.4-0.8-50.5c0.1-1.8-0.7-2.7-2.4-2.7H620c-1.4,0.1-2.8-0.4-3.8-1.4
		c-0.9-1.1-1.3-2.5-1.2-3.9c0.1-2.1,0.1-3.2,0.1-5.3c-0.1-1.4,0.4-2.8,1.4-3.9c0.9-0.9,2.2-1.4,4-1.4H631c3.5,0,6.3,0.9,8,2.8
		s2.4,4.5,2,7.8C638.2,275.3,639.1,292.2,641.5,313z" style="fill:#FFEAE0;"/>
	<path d="M636.8,204.6c0,17-13.7,30.8-30.8,30.8s-30.8-13.7-30.8-30.8c0-0.9-0.1-3.3,0-4.3c5.3-0.9,9.7-0.9,14.8-1
		l29.2-2c5.7-0.2,11.5,0.4,17.1,1.8C636.6,201,636.8,202.8,636.8,204.6z" style="fill:#FFFFFF;"/>
	<path d="M642.6,202.1l-27,17.7l3.4-20h2.7C628.7,199.7,635.7,200.5,642.6,202.1z" style="fill:#2B2B2B;"/>
	<path d="M625.9,206c-0.1,0.4-0.1,0.7-0.2,1.1c-2,8.4-9.3,14.4-18,14.5h-1.4c-10.4,0.1-19-8.1-19.1-18.5
		c0-0.1,0-0.4,0-0.5l0.5-52.7l34.7-1.2l2.6,39.5l0.2,3l1,10.1C626.3,202.9,626.2,204.4,625.9,206z" style="fill:#FDC068;"/>
	<path d="M625.9,206l-35.6-10.2l34.6-7.5l0.2,3l1,10.1C626.2,202.9,626.1,204.4,625.9,206z" style="fill:#2B2B2B;"/>
	<path d="M641.5,161.9l-1.7,7.7c-2.1,18.9-19.1,32.5-38,30.4c-16.1-1.8-28.7-14.5-30.5-30.5l-1.7-7.9
		c-2.8-13.1,1.6-26.7,11.6-35.7c6-5.4,13.7-8.7,21.9-9.3c0.9-0.1,1.7-0.1,2.6-0.1c0.4,0,0.9,0,1.3,0c8.5,0.3,16.6,3.5,22.9,9.3l0,0
		C639.9,135,644.4,148.8,641.5,161.9z" style="fill:#FDC068;"/>
	<circle cx="592.4" cy="162.2" r="3" style="fill:#2B2B2B;"/>
	<circle cx="618.7" cy="162.2" r="3.1" style="fill:#2B2B2B;"/>
	<g>
		<path d="M605.5,173.7c-0.4,0-0.7-0.1-0.9-0.5c-0.3-0.5-0.1-1.2,0.3-1.4l2.7-1.7c0.2-0.2,0.4-0.5,0.4-0.9
			c0-0.4-0.1-0.7-0.3-0.9c-1-1.1-1.7-2.3-2.2-3.6c-0.2-0.5,0.1-1.2,0.6-1.4c0.5-0.2,1.2,0.1,1.4,0.6c0.4,1.1,1,2.1,1.8,3
			c0,0.1,0.1,0.1,0.1,0.1c0.6,0.7,0.9,1.6,0.7,2.5c-0.1,0.9-0.5,1.7-1.2,2.3l-0.1,0.1l-2.7,1.7C605.9,173.7,605.7,173.7,605.5,173.7
			z" style="fill:#2B2B2B;"/>
	</g>
	<path d="M597.9,177.5c1.3,13.6,16.5,9.8,16.4,0" style="fill:#FFFFFF;"/>
	
		<linearGradient id="SVGID_4_" gradientUnits="userSpaceOnUse" x1="605.5017" y1="1540.7872" x2="605.5017" y2="1418.2402" gradientTransform="matrix(1 0 0 1 0 -1354)">
		<stop offset="0" style="stop-color:#9774AC"/>
		<stop offset="0.4" style="stop-color:#47A6D3"/>
		<stop offset="0.5" style="stop-color:#A7A7AE"/>
		<stop offset="0.59" style="stop-color:#E89AC0"/>
		<stop offset="1" style="stop-color:#BFE7D1"/>
	</linearGradient>
	<path d="M638.1,179.8v-28.3c-4.8,1.2-9.6,2.2-14.4,2.8c-10.8,1.6-21.8,1.7-32.6,0.3c-5.7-0.7-11.4-1.7-17-3.1V181
		c-8.7-8.5-13.6-33.5-13.6-33.5c0.4-24.9,20.8-44.9,45.7-44.5c24.9,0.4,44.9,20.8,44.5,45.7l0,0
		C650.5,148.7,645.7,171.7,638.1,179.8z" style="fill:url(#SVGID_4_);"/>
	
		<linearGradient id="SVGID_5_" gradientUnits="userSpaceOnUse" x1="606.5847" y1="1540.78" x2="606.5847" y2="1418.233" gradientTransform="matrix(1 0 0 1 0 -1354)">
		<stop offset="0" style="stop-color:#9774AC"/>
		<stop offset="0.4" style="stop-color:#47A6D3"/>
		<stop offset="0.5" style="stop-color:#A7A7AE"/>
		<stop offset="0.59" style="stop-color:#E89AC0"/>
		<stop offset="1" style="stop-color:#BFE7D1"/>
	</linearGradient>
	<path d="M628.4,110.1v13.2c0,6.6-5.4,11.9-11.9,11.9h-19.7c-6.6,0-11.9-5.4-11.9-11.9l0,0v-13.2
		c0-6.6,5.4-11.9,11.9-11.9l0,0h19.7C623,98.1,628.4,103.5,628.4,110.1z" style="fill:url(#SVGID_5_);"/>
	
		<linearGradient id="SVGID_6_" gradientUnits="userSpaceOnUse" x1="648.9209" y1="1540.7874" x2="648.9209" y2="1418.2332" gradientTransform="matrix(1 0 0 1 8.392773e-03 -1354.0005)">
		<stop offset="0" style="stop-color:#9774AC"/>
		<stop offset="0.4" style="stop-color:#47A6D3"/>
		<stop offset="0.5" style="stop-color:#A7A7AE"/>
		<stop offset="0.59" style="stop-color:#E89AC0"/>
		<stop offset="1" style="stop-color:#BFE7D1"/>
	</linearGradient>
	<path d="M645.7,139.4l5.6,0.7c2.6,0.3,4.5,2.7,4.2,5.3l-2.2,18.9c-0.3,2.6-2.7,4.5-5.3,4.2l-5.6-0.7l0,0L645.7,139.4
		L645.7,139.4z" style="fill:url(#SVGID_6_);"/>
	
		<linearGradient id="SVGID_7_" gradientUnits="userSpaceOnUse" x1="564.2836" y1="1540.8224" x2="564.2836" y2="1418.2681" gradientTransform="matrix(1 0 0 1 2.878092e-02 -1354.127)">
		<stop offset="0" style="stop-color:#9774AC"/>
		<stop offset="0.4" style="stop-color:#47A6D3"/>
		<stop offset="0.5" style="stop-color:#A7A7AE"/>
		<stop offset="0.59" style="stop-color:#E89AC0"/>
		<stop offset="1" style="stop-color:#BFE7D1"/>
	</linearGradient>
	<path d="M570.8,167.7l-5.6,0.7c-2.6,0.3-5-1.6-5.3-4.2l-2.2-18.9c-0.3-2.6,1.6-5,4.2-5.3l5.6-0.7l0,0L570.8,167.7
		L570.8,167.7z" style="fill:url(#SVGID_7_);"/>
	<path d="M608.2,98.1v29.5c0,0.6-0.5,1.1-1.1,1.1H606c-0.6,0-1.1-0.5-1.1-1.1V98.1H608.2z" style="fill:#2B2B2B;"/>
	<g>
		<path d="M606.2,177.9l-47.3-6.4v-7.2c0-0.6,0.4-1.1,1.1-1.1s1.1,0.4,1.1,1.1v5.4l45.2,6.2l45.2-6.2v-5.4
			c0-0.6,0.4-1.1,1.1-1.1s1.1,0.4,1.1,1.1v7.2L606.2,177.9z" style="fill:#2B2B2B;"/>
	</g>
	<g>
		<path d="M606.2,186.4l-40-5.4c-0.6-0.1-0.9-0.6-0.9-1.2s0.6-0.9,1.2-0.9l39.7,5.4l40.5-5.5c0.6-0.1,1.1,0.3,1.2,0.9
			s-0.3,1.1-0.9,1.2L606.2,186.4z" style="fill:#2B2B2B;"/>
	</g>
	<g>
		<path d="M606.2,201.3l-32.9-6.4L559,171.1c-0.3-0.5-0.1-1.2,0.4-1.4c0.5-0.3,1.2-0.1,1.4,0.4l13.8,23l31.5,6.2
			l31.5-6.2l13.8-23c0.3-0.5,0.9-0.7,1.4-0.4s0.7,0.9,0.4,1.4l-14.3,23.8L606.2,201.3z" style="fill:#2B2B2B;"/>
	</g>
	<g>
		<path d="M628.4,197c-0.1,0-0.3,0-0.4-0.1c-0.5-0.2-0.8-0.9-0.6-1.4l9.6-23.4c0.2-0.5,0.9-0.8,1.4-0.6
			c0.5,0.2,0.8,0.9,0.6,1.4l-9.6,23.4C629.2,196.7,628.8,197,628.4,197z" style="fill:#2B2B2B;"/>
	</g>
	<g>
		<path d="M616.3,199.3C616.2,199.3,616.2,199.3,616.3,199.3c-0.7-0.1-1.1-0.5-1-1.1l1.5-23c0.1-0.6,0.5-1,1.1-1
			c0.6,0.1,1,0.5,1,1.1l-1.5,23C617.3,198.9,616.8,199.3,616.3,199.3z" style="fill:#2B2B2B;"/>
	</g>
	<g>
		<path d="M583.9,197c-0.4,0-0.8-0.2-0.9-0.7l-9.7-23.4c-0.2-0.5,0-1.2,0.6-1.4c0.5-0.2,1.2,0,1.4,0.6l9.6,23.4
			c0.2,0.5,0,1.2-0.6,1.4C584.2,196.9,584.1,197,583.9,197z" style="fill:#2B2B2B;"/>
	</g>
	<g>
		<path d="M596,199.3c-0.6,0-1-0.4-1-1l-1.5-23c-0.1-0.6,0.4-1.1,0.9-1.1c0.6,0,1.1,0.4,1.1,0.9l1.5,23
			C597.1,198.8,596.7,199.3,596,199.3C596.1,199.3,596.1,199.3,596,199.3z" style="fill:#2B2B2B;"/>
	</g>
	
		<linearGradient id="SVGID_8_" gradientUnits="userSpaceOnUse" x1="607.2721" y1="1525.8307" x2="607.2721" y2="1498.0811" gradientTransform="matrix(1 0 0 1 0 -1354)">
		<stop offset="0" style="stop-color:#9774AC"/>
		<stop offset="0.4" style="stop-color:#47A6D3"/>
		<stop offset="0.5" style="stop-color:#A7A7AE"/>
		<stop offset="0.59" style="stop-color:#E89AC0"/>
		<stop offset="1" style="stop-color:#BFE7D1"/>
	</linearGradient>
	<path d="M623.6,153.8v0.5c-10.8,1.6-21.8,1.7-32.6,0.3v-0.8c0-5.6,4.6-10.2,10.2-10.2h12.2
		C619,143.6,623.6,148.2,623.6,153.8z" style="fill:url(#SVGID_8_);"/>
	<path d="M686.8,570h-5.6l-3.3-106.3l-28.1-133.2h6.4c10.4,48.5,28.1,134.2,28.6,139.8
		C686.7,491.3,687,534.7,686.8,570z" style="fill:#2B2B2B;"/>
	<path d="M555.1,330.5l-45.4,133.2l-9.2,100.6h-0.1l-4.6-0.7c2.7-33.7,6-73.1,8-93.3c1.4-15.1,29.1-93.8,46.2-139.8
		H555.1z" style="fill:#2B2B2B;"/>
	
		<linearGradient id="SVGID_9_" gradientUnits="userSpaceOnUse" x1="632.5254" y1="1860.8379" x2="632.5254" y2="1994.4849" gradientTransform="matrix(1 0 0 1 0 -1354)">
		<stop offset="0" style="stop-color:#C0DDFC"/>
		<stop offset="0.19" style="stop-color:#D3E7FD"/>
		<stop offset="0.49" style="stop-color:#EBF4FE"/>
		<stop offset="0.77" style="stop-color:#FAFCFF"/>
		<stop offset="1" style="stop-color:#FFFFFF"/>
	</linearGradient>
	<path d="M745.2,510v136l-225.3-3c41.7,0,55.4-41,75.2-73.4c10.7-17.4,23.2-32.3,42.7-36.8
		c21.4-4.9,33.4-20.3,43.5-37.3l1.2-2.2C699.7,463.5,745.2,475.6,745.2,510z" style="fill:url(#SVGID_9_);"/>
	<path d="M327.6,343.9l-53.8-52c-7-7.6-6.5-19.5,1.1-26.5c6.7-6.1,16.6-6.6,23.9-1.2l10.1,8.7" style="fill:#2B2B2B;"/>
	<path d="M334.3,335.7l-56.2-54.3c-7-7.7-6.4-19.5,1.2-26.5c6.6-6.1,16.6-6.6,23.8-1.2l60.2,52" style="fill:#EA7068;"/>
	
		<linearGradient id="SVGID_10_" gradientUnits="userSpaceOnUse" x1="383.1773" y1="1580.8379" x2="383.1773" y2="1838.9928" gradientTransform="matrix(1 0 0 1 0 -1354)">
		<stop offset="0" style="stop-color:#EA979A"/>
		<stop offset="0.41" style="stop-color:#F2D38B"/>
		<stop offset="0.5" style="stop-color:#7E9DAE"/>
		<stop offset="0.6" style="stop-color:#90979D"/>
		<stop offset="1" style="stop-color:#7EBDDB"/>
	</linearGradient>
	<path d="M363.2,305.6l61.1,49.3c10,10.2,10.4,30.8,0.1,40.7c-10.2,10-26.6,9.8-36.6-0.4l0,0l-53.6-59.5L363.2,305.6z" style="fill:url(#SVGID_10_);"/>
	<path d="M474.7,304.8l51.2-54.2c7.4-7.2,19.3-7.1,26.6,0.4c6.3,6.4,7.1,16.4,2,23.7l-48.7,58" style="fill:#EA7068;"/>
	
		<linearGradient id="SVGID_11_" gradientUnits="userSpaceOnUse" x1="457.1062" y1="1580.8379" x2="457.1062" y2="1838.9928" gradientTransform="matrix(1 0 0 1 0 -1354)">
		<stop offset="0" style="stop-color:#EA979A"/>
		<stop offset="0.41" style="stop-color:#F2D38B"/>
		<stop offset="0.5" style="stop-color:#7E9DAE"/>
		<stop offset="0.6" style="stop-color:#90979D"/>
		<stop offset="1" style="stop-color:#7EBDDB"/>
	</linearGradient>
	<path d="M505.8,332.7l-48.6,66.5c-9.9,10.3-30.4,11.4-40.7,1.5s-10.7-26.3-0.8-36.7l0,0l59-59.3L505.8,332.7z" style="fill:url(#SVGID_11_);"/>
	
		<linearGradient id="SVGID_12_" gradientUnits="userSpaceOnUse" x1="423.7763" y1="1756.2649" x2="423.7763" y2="2047.3574" gradientTransform="matrix(1 0 0 1 0 -1354)">
		<stop offset="0" style="stop-color:#F9D5FF"/>
		<stop offset="0.17" style="stop-color:#F9D5FC"/>
		<stop offset="0.32" style="stop-color:#F9D5F1"/>
		<stop offset="0.45" style="stop-color:#FAD6E0"/>
		<stop offset="0.58" style="stop-color:#FBD7C7"/>
		<stop offset="0.71" style="stop-color:#FCD8A7"/>
		<stop offset="0.83" style="stop-color:#FDD97F"/>
		<stop offset="0.95" style="stop-color:#FEDA52"/>
		<stop offset="1" style="stop-color:#FFDB40"/>
	</linearGradient>
	<path d="M386.3,403c-6.3,18.3,2.9,42,23.5,41.2c15.9-0.7,17-0.1,23.7-0.4c21.2-0.9,34.9-23.1,27.9-43.1L386.3,403z" style="fill:url(#SVGID_12_);"/>
	
		<linearGradient id="SVGID_13_" gradientUnits="userSpaceOnUse" x1="393.7771" y1="1757.2489" x2="393.7771" y2="1816.547" gradientTransform="matrix(1 0 0 1 0 -1354)">
		<stop offset="0" style="stop-color:#F9D5FF"/>
		<stop offset="0.17" style="stop-color:#F9D5FC"/>
		<stop offset="0.32" style="stop-color:#F9D5F1"/>
		<stop offset="0.45" style="stop-color:#FAD6E0"/>
		<stop offset="0.58" style="stop-color:#FBD7C7"/>
		<stop offset="0.71" style="stop-color:#FCD8A7"/>
		<stop offset="0.83" style="stop-color:#FDD97F"/>
		<stop offset="0.95" style="stop-color:#FEDA52"/>
		<stop offset="1" style="stop-color:#FFDB40"/>
	</linearGradient>
	<path d="M461.4,461.6h-80.8l-54.6-52c22.6-7.4,39.3-6.7,60.1-6.7C405.8,413,461.4,461.6,461.4,461.6z" style="fill:url(#SVGID_13_);"/>
	
		<linearGradient id="SVGID_14_" gradientUnits="userSpaceOnUse" x1="423.0826" y1="1580.8379" x2="423.0826" y2="1838.9928" gradientTransform="matrix(1 0 0 1 0 -1354)">
		<stop offset="0" style="stop-color:#EA979A"/>
		<stop offset="0.41" style="stop-color:#F2D38B"/>
		<stop offset="0.5" style="stop-color:#7E9DAE"/>
		<stop offset="0.6" style="stop-color:#90979D"/>
		<stop offset="1" style="stop-color:#7EBDDB"/>
	</linearGradient>
	<path d="M461.4,402l-75.2,1.1c-2-12.2-6.4-16.8-13.2-32.1l0,0c0-0.1,0-0.3,0-0.4c0-0.4-0.1-0.9-0.1-1.3h0.1
		c0.5-12.7,12.4-28.4,29.1-33.5c3.3-1,6.6-1.6,10-1.7l19.9-1.3h0.1c3.9-0.1,7.8,0.3,11.6,1.2c1.7,0.4,3.4,1,5.1,1.7
		c14.9,6.1,24.3,20.3,24.4,31C473.2,377.3,460.9,392.2,461.4,402z" style="fill:url(#SVGID_14_);"/>
	<path d="M444.1,337.7c-0.6,11.6-10.4,20.5-22,19.9c-10.8-0.5-19.4-9.1-19.9-19.9c0-0.7,0-1.3,0.1-2
		c3.3-1,6.6-1.6,10-1.7l19.9-1.3c3.9-0.1,7.8,0.3,11.6,1.2C443.9,335.2,444.1,336.5,444.1,337.7z" style="fill:#FFFFFF;"/>
	<path d="M448.8,335.7l-14.7,12.9l-2-15.8h0.1c3.9-0.1,7.8,0.3,11.6,1.2C445.4,334.4,447.1,335,448.8,335.7z" style="fill:#2B2B2B;"/>
	<path d="M439.2,340.1c-1.6,7-7.8,12-15.1,12.2h-1.2c-8.7,0.1-15.8-6.7-16-15.4c0-0.1,0-0.3,0-0.4l0.4-48.1l28.9-1
		l2.4,35.5l0.9,12.5C439.7,336.9,439.6,338.5,439.2,340.1z" style="fill:#EA7068;"/>
	<path d="M439.2,340.1l-26.6-11.6l26-5.6l0.9,12.5C439.7,336.9,439.6,338.5,439.2,340.1z" style="fill:#2B2B2B;"/>
	<circle cx="393.9" cy="297.4" r="10.9" style="fill:#EA7068;"/>
	<circle cx="451.2" cy="297.4" r="10.9" style="fill:#EA7068;"/>
	<path id="_Path_" d="M422.4,330.5L422.4,330.5c-14.7,0-27-11.1-28.5-25.7l-1.4-6.6c-3.9-18.4,9.2-36.3,27.9-37.6
		c0.7-0.1,1.4-0.1,2.2-0.1l0,0h1.1c19.2,0.7,32.9,19,28.8,37.8l-1.4,6.5C449.3,319.5,437,330.5,422.4,330.5z" style="fill:#EA7068;"/>
	<circle cx="409.7" cy="289.4" r="2.7" style="fill:#2B2B2B;"/>
	<circle cx="433.6" cy="289.4" r="2.9" style="fill:#2B2B2B;"/>
	<g>
		<path d="M421.6,300.1c-0.4,0-0.7-0.1-0.9-0.5c-0.3-0.5-0.1-1.2,0.3-1.4l2.4-1.6c0.4-0.4,0.4-1.1,0.1-1.5l0,0
			c-0.9-1-1.6-2.1-2-3.3c-0.2-0.5,0.1-1.2,0.6-1.4c0.5-0.2,1.2,0.1,1.4,0.6c0.4,1,0.9,1.9,1.6,2.7c1.2,1.4,1,3.4-0.3,4.6l-0.1,0.1
			l-2.5,1.6C422,300,421.8,300.1,421.6,300.1z" style="fill:#2B2B2B;"/>
	</g>
	<path d="M414.7,303.4c1.2,12.4,15,9,15,0" style="fill:#FFFFFF;"/>
	<path d="M394.1,299.1L394.1,299.1c1.2,0,2.2-0.9,2.2-2.2v-15.1c0-7.5,10.3-8.5,24.7-8.5c14.3,0,26.5,0.7,26.8,7.2
		l0.9,16.4c0.1,1.2,1,2,2.2,2h0.4c1.1,0,2-0.8,2.2-2l0.5-5.1c2.3-17.1-9.7-32.9-26.8-35.3c-1.4-0.2-3-0.3-4.4-0.3l0,0
		c-17.3-0.1-31.4,13.9-31.5,31.3c0,1.3,0.1,2.5,0.2,3.8l0.6,5.6C392,298.3,392.9,299.1,394.1,299.1z" style="fill:#FEC73A;"/>
	
		<linearGradient id="SVGID_15_" gradientUnits="userSpaceOnUse" x1="439.8336" y1="1756.3589" x2="439.8336" y2="1861.576" gradientTransform="matrix(1 0 0 1 0 -1354)">
		<stop offset="0" style="stop-color:#F9D5FF"/>
		<stop offset="0.17" style="stop-color:#F9D5FC"/>
		<stop offset="0.32" style="stop-color:#F9D5F1"/>
		<stop offset="0.45" style="stop-color:#FAD6E0"/>
		<stop offset="0.58" style="stop-color:#FBD7C7"/>
		<stop offset="0.71" style="stop-color:#FCD8A7"/>
		<stop offset="0.83" style="stop-color:#FDD97F"/>
		<stop offset="0.95" style="stop-color:#FEDA52"/>
		<stop offset="1" style="stop-color:#FFDB40"/>
	</linearGradient>
	<path d="M478.7,506h-65.2c-6.4-37.3-12.6-85.7-12.6-85.7l60.5-18.3C465.6,410.5,474.1,468.2,478.7,506z" style="fill:url(#SVGID_15_);"/>
	<path d="M490,640.7h-50.4c-3.3,0-6-2.8-6.1-6.4l-0.2-8.5l39.9,0.4l17.6,8C494.3,635.2,493.7,640.7,490,640.7z" style="fill:#2B2B2B;"/>
	<path d="M300.2,548.8h63.1c3.4-0.1,6.1-3,6.1-6.4l0.2-8.5l-39.9,0.4l-30.2,8C295.9,543.3,296.6,548.8,300.2,548.8z" style="fill:#2B2B2B;"/>
	<path d="M389.1,594.8c0,25.4-20.5,45.9-45.9,46c-14.8,0-28.7-7.1-37.3-19.1c-1-1.4-2-2.8-2.8-4.3
		c-5.5-9.8-7.2-21.1-4.9-32.1c0.3-1.3,0.7-2.7,1-4c2.8-9,8.3-16.9,15.7-22.7c0.8-0.7,1.7-1.3,2.5-1.9c0.4-0.3,0.9-0.6,1.3-0.9
		c7.4-4.6,15.8-7.1,24.5-7.1c7.5,0,15,1.9,21.6,5.4C379.7,562.2,389.1,577.9,389.1,594.8z" style="fill:#2B2B2B;"/>
	<path d="M340.2,638.7c1.4,0.3,2.7,0.5,4.1,0.7C342.8,639.3,341.5,639,340.2,638.7z" style="fill:#2B2B2B;"/>
	<path d="M345,639.5c-0.2,0-0.5-0.1-0.7-0.1l0,0C344.5,639.5,344.8,639.5,345,639.5z" style="fill:#2B2B2B;"/>
	<path d="M346.7,604.3L346.7,604.3c-0.1,3.1-0.1,6.2-0.1,9.3c0,0.1,0,0.1,0,0.1c0,0,0,0,0,0.1v0.1c0,0,0,0,0,0.1
		c-5.3,3.3-10.9,6.1-16.8,8.2l0,0c-4.4-2.2-8.9-4.3-12.9-7.4l-0.5-0.4c-0.5-0.4-0.9-0.7-1.2-0.9l-0.4-0.3c-0.2-0.2-0.5-0.4-0.7-0.7
		l0,0c-2-6.8-1-15.6-0.2-20.3l0,0c0-0.1,0.1-0.1,0.1-0.1c0.1-0.1,0.1-0.1,0.1-0.1c0.1-0.1,0.2-0.2,0.4-0.3c4-2.2,7.9-4.3,11.9-6.4
		c1-0.5,2-1.1,3-1.5c0.1,0,0.1-0.1,0.1-0.1c0.1,0,0.2,0,0.4,0l0,0c2.7,2.9,7.8,7,16.7,11c0.1,0.1,0.1,0.4,0.1,0.5
		C346.7,598.1,346.7,601.2,346.7,604.3z" style="fill:#FFFFFF;"/>
	<path d="M365.6,568.2c-0.1,3.3-0.3,9.6-0.6,17.3c-0.1,0.1-0.1,0.1-0.1,0.1c-0.1,0.1-0.1,0.1-0.2,0.1
		c-4.3,2.4-8.9,4.5-13.5,6.4c-0.7,0.3-1.4,0.5-2.2,0.7c-10.5-4.5-15.8-9.3-18.2-11.9c0.1-2.5,0.2-5.1,0.4-7.5
		c0.2-2.7,0.5-5.4,0.8-8.1c0-0.1,0.1-0.2,0.1-0.4c2.2-1.7,6.9-4.6,15.9-6.9l0,0c0.2,0,0.4,0,0.7,0s0.4,0.1,0.7,0.1
		c0.4,0.1,0.7,0.2,1.1,0.4c3.7,1.7,7.3,3.5,10.8,5.7c1.6,0.9,3,2.1,4.2,3.5C365.5,567.9,365.6,568.1,365.6,568.2z" style="fill:#FFFFFF;"/>
	<path d="M363.2,619.4V631c-1.2,0.8-2.5,1.7-3.8,2.4c-0.3,0.1-0.6,0.4-0.9,0.5c-1.3,0.7-2.6,1.3-3.9,1.9
		c-0.5,0.2-1.1,0.5-1.6,0.7l-2.3,1.1c-10.2-0.1-16.2-2.6-18.9-4.1c-0.4-2.7-0.7-5.4-1.1-8.2c-0.1-0.3-0.1-0.5-0.1-0.8
		c6.1-2.2,11.9-5.1,17.4-8.5c0.8,0.4,1.6,0.7,2.4,1c0.1,0.1,0.4,0.1,0.5,0.1c0.4,0.1,0.7,0.2,1,0.3l1,0.3c0.4,0.1,0.7,0.1,1,0.2
		c0.7,0.1,1.4,0.3,2.1,0.4C358.3,618.7,360.8,619,363.2,619.4z" style="fill:#FFFFFF;"/>
	<path d="M388.1,586.3c-0.4,3-0.9,6.1-1.4,9.1c-0.1,0.4-0.1,0.7-0.1,1c0,0.1,0,0.3-0.1,0.4c-0.1,0-0.1,0.1-0.1,0.1
		c-0.1,0.1-1.7,1.3-8.9,3.5l-0.4,0.1c-0.2,0-0.4-0.1-0.6-0.2c-1.4-2.7-3-5.2-4.8-7.6c-1.4-2-2.9-4-4.3-5.9l0,0
		c0.3-8.1,0.5-14.8,0.7-18.2c2.2-1,4.6-1.7,6.9-2.1c0.9-0.2,1.9,0,2.5,0.6c1.4,1.2,2.7,2.2,4.1,3.5c0.5,0.4,0.9,0.9,1.2,1.6
		c2.4,4.1,4.1,8.5,5.1,13.2c0.1,0.2,0.1,0.4,0.1,0.6c0,0.2,0,0.4,0,0.6L388.1,586.3z" style="fill:#FFFFFF;"/>
	<path d="M311.5,612.2c-1.1,0.5-2.1,1.1-3.1,1.7c-0.2,0.1-0.4,0.3-0.7,0.4c-0.2,0.1-0.4,0.3-0.6,0.4
		c-0.2,0.1-0.2,0.1-0.3,0.2c-0.2,0.1-0.4,0.3-0.5,0.4c-0.2,0.1-0.4,0.4-0.7,0.6c-1.4-0.7-2.8-1.6-4.1-2.5l-0.1-0.1l-0.9-0.8
		c-0.7-0.7-1.3-1.7-1.6-2.7c-2.5-7.3-3.1-15.1-1.9-22.6c0.1-0.4,0.2-0.9,0.5-1.3c0.1-0.1,0.1-0.2,0.2-0.3c0,0,0-0.1,0.1-0.1
		c1.7-1.7,3.8-3.1,6-4c0.1,0.2,0.2,0.4,0.3,0.7c1.4,2.7,3.2,5.1,5.4,7.2c0.3,0.3,0.6,0.6,0.9,0.9l0.1,0.1l0.4,0.4
		c0.2,0.2,0.4,0.4,0.7,0.6C310.8,595.9,309.7,604.8,311.5,612.2z" style="fill:#FFFFFF;"/>
	<path d="M385.3,612.9c-2.2,5.2-5.4,10-9.4,14c-0.3,0.3-0.6,0.5-0.9,0.7c-2,1.1-4.1,1.8-6.2,2.2
		c-0.7,0.1-1.4,0.1-2.2,0.1c-0.4,0-0.4-0.1-0.4-0.5c0-3.3-0.1-6.7-0.1-10.1c0.1-0.3,0.2-0.7,0.5-0.9c4.1-4.2,7.3-9.1,9.4-14.6
		c0-0.1,0.1-0.1,0.1-0.1c0-0.2,0.1-0.4,0.1-0.6c5.9-1.7,9-2.9,10.5-3.8c0.1,1.2,0.3,2.4,0.4,3.6c0.1,0.5,0.1,1.1,0.1,1.6
		C387.6,607.7,386.4,610.3,385.3,612.9z" style="fill:#FFFFFF;"/>
	<path d="M349.3,549.1c0,0.1,0,0.1,0,0.1c-0.4,2.1-0.7,4.1-1.1,6.2c-3.8,0.9-7.4,2.1-10.9,3.6c-2.5,1.1-4.8,2.5-6.9,4.1
		c-0.3-0.1-0.6-0.2-0.8-0.3l-0.4-0.1c-0.3-0.1-0.6-0.1-0.9-0.2l-0.7-0.1l-0.4-0.1c-0.2-0.1-0.5-0.1-0.7-0.1c-0.1,0-0.1,0-0.1,0
		c-0.3-0.1-0.6-0.1-0.9-0.1c-0.7-0.1-1.2-0.2-1.9-0.3c-0.4-0.1-0.7-0.1-1.1-0.1c-0.4-0.1-0.7-0.1-0.9-0.1s-0.7-0.1-0.9-0.1
		c-1.1-0.1-2.2-0.1-3.3-0.1h-0.1c-0.1-1.5-0.1-3,0.1-4.5c0-0.2,0-0.4,0.1-0.6c0.2-0.1,0.4-0.3,0.7-0.4l0,0l0.7-0.4
		c0.3-0.2,0.7-0.4,1-0.6c0.4-0.2,0.6-0.4,0.9-0.5l0.1-0.1c0.6-0.3,1.2-0.7,1.8-0.9l0.7-0.4l0.5-0.2c0.6-0.2,1.1-0.5,1.7-0.7l0.8-0.4
		l0.8-0.3c0.4-0.1,0.8-0.3,1.2-0.4l1.2-0.4c0.6-0.1,1.1-0.4,1.7-0.4l0.9-0.2c0.3-0.1,0.6-0.1,0.8-0.2c0.7-0.1,1.3-0.3,2-0.4
		c4.7-0.9,9.5-0.9,14.3-0.4C349,549,349.2,549.1,349.3,549.1z" style="fill:#FFFFFF;"/>
	<path d="M314.8,561.9c-0.1,0.1-0.2,0.2-0.4,0.3c-2.8,2-4.8,4.6-6.6,7.5c-1.7,2.7-3,5.6-4.1,8.7c0,0.1-0.1,0.2-0.1,0.3
		c0,0.1-0.1,0.1-0.1,0.1s-0.1,0.1-0.1,0.1c-0.1,0.1-0.1,0.1-0.1,0.2c-0.1,0.1-0.1,0.1-0.2,0.2l0,0c-1.7,0.7-3.3,1.6-4.8,2.7
		c0.1-0.3,0.1-0.6,0.3-0.9l0,0c0.1-0.3,0.1-0.6,0.3-0.9l0.2-0.7c0.1-0.3,0.2-0.6,0.4-0.9c0.1-0.4,0.2-0.6,0.4-0.9
		c0.2-0.5,0.4-1,0.7-1.5c0.4-0.9,0.8-1.7,1.2-2.5c0.1-0.1,0.1-0.2,0.1-0.4c0,0,0,0,0-0.1c0.1-0.2,0.2-0.5,0.4-0.7
		c0.1-0.2,0.3-0.6,0.5-0.9c0.2-0.3,0.3-0.6,0.5-0.9c0.6-0.9,1.2-1.9,1.9-2.8c0.2-0.4,0.4-0.7,0.7-0.9c0.7-0.9,1.4-1.9,2.2-2.7
		c0.4-0.4,0.8-0.9,1.2-1.2c0.9-0.9,1.7-1.7,2.7-2.6c0.2-0.2,0.4-0.4,0.7-0.6c0.2-0.1,0.4-0.4,0.7-0.6l0.8-0.7l0.7-0.6
		C314.8,559.1,314.7,560.4,314.8,561.9z" style="fill:#FFFFFF;"/>
	<path d="M348.1,640.4c0,0.4-0.3,0.4-0.5,0.4c-9.6,1-19.2-0.9-27.6-5.6l-0.8-0.5l-0.1-0.1c1.7,0.4,3.3,0.8,4.9,1.1
		c2.2,0.5,4.5,0.7,6.7,0.6c0.2,0,0.4,0,0.6,0.1c0.6,0.2,1.1,0.5,1.7,0.7l0.7,0.2c0.4,0.1,0.9,0.3,1.4,0.4l0.7,0.2
		c0.5,0.1,1,0.3,1.5,0.4c0.5,0.1,1,0.2,1.5,0.4c0.1,0,0.1,0.1,0.2,0.1l0,0c0.1,0,0.2,0.1,0.3,0.1c1.4,0.3,2.7,0.5,4.1,0.7l0,0
		c0.2,0,0.4,0.1,0.7,0.1c0.1,0,0.3,0.1,0.4,0.1c0.5,0.1,1,0.1,1.5,0.2c0.5,0.1,1,0.1,1.5,0.1C347.9,640,348.1,639.9,348.1,640.4z" style="fill:#FFFFFF;"/>
	<path d="M307.4,624.6l-0.7-0.8l-0.7-0.8c-1.4-1.8-2.6-3.7-3.7-5.6l-0.3-0.6c0.8,0.5,1.5,0.9,2.3,1.3l0,0
		c0,0,0.1,0.1,0.1,0.1c0.6,2.2,1.6,4.3,2.8,6.2C307.4,624.5,307.4,624.5,307.4,624.6z" style="fill:#FFFFFF;"/>
	<path d="M473.2,626.8l-39.9-1c0,0-9.1-69.2-14.1-90.4c-1.8-7.6-3.8-17.9-5.7-29.5h65.2c1.2,9.6,2.1,17.9,2.6,23.7
		C483.9,557.9,473.1,623.9,473.2,626.8z" style="fill:#EA7068;"/>
	<path d="M369.6,461.6c4.6,32.1-1.3,76.3-1.3,76.3l-38.7-3.8c0.1-3-29.9-74.8-21.9-102c2.3-7.8,6.9-17.4,18.5-22.4
		l54.6,52H369.6z" style="fill:#EA7068;"/>
	<polygon points="468.4,311.2 500.4,340 505.8,332.7 474.7,304.8 	" style="fill:#FFFFFF;"/>
	<polygon points="363.2,305.6 334.3,335.7 341,343.1 371,311.9 	" style="fill:#FFFFFF;"/>
	<g>
		<path d="M369.6,462.7c-0.4,0-0.9-0.3-1-0.7l-4.2-10.4c-0.2-0.6,0.1-1.2,0.6-1.4c0.6-0.2,1.2,0.1,1.4,0.6l4.2,10.4
			c0.2,0.6-0.1,1.2-0.6,1.4C369.8,462.7,369.7,462.7,369.6,462.7z" style="fill:#2B2B2B;"/>
	</g>
	<g>
		<path d="M406.9,464.8c-0.5,0-1-0.4-1.1-0.9l-3-21.6c-0.1-0.6,0.4-1.2,0.9-1.2c0.6-0.1,1.2,0.4,1.2,0.9l3,21.6
			c0.1,0.6-0.4,1.2-0.9,1.2C407,464.8,406.9,464.8,406.9,464.8z" style="fill:#2B2B2B;"/>
	</g>
	<path d="M364.8,554.3c-3.2,1.9-8.3,3.4-14.5,4.2c-1.8,0.2-3.8,0.4-5.8,0.5c-1.5,0.1-3,0.1-4.6,0.1
		c-0.9,0-1.7,0-2.5-0.1c-7.5-0.2-14.2-1.4-18.8-3.1c-0.1-0.1-0.4-0.1-0.5-0.2l0.7-0.4c0.3-0.2,0.7-0.4,1-0.6
		c0.4-0.2,0.6-0.4,0.9-0.5l0.1-0.1c0.6-0.3,1.2-0.7,1.8-0.9l0.7-0.4l0.5-0.2c0.6-0.2,1.1-0.5,1.7-0.7l0.8-0.4l0.8-0.3
		c0.4-0.1,0.8-0.3,1.2-0.4l1.2-0.4c0.6-0.1,1.1-0.4,1.7-0.4l0.9-0.2c0.3-0.1,0.6-0.1,0.8-0.2c0.7-0.1,1.3-0.3,2-0.4
		c4.7-0.9,9.5-0.9,14.3-0.4c0.2,0,0.4,0.1,0.7,0.1c0,0.1,0,0.1,0,0.1C354.8,550,360,551.7,364.8,554.3z" style="fill:#2B2B2B;"/>
	<g>
		
			<rect x="672.7" y="92.3" transform="matrix(0.7548 -0.6559 0.6559 0.7548 109.9354 485.8706)" width="64.3" height="7.2" style="fill:#F9D5FF;"/>
	</g>
	<g>
		
			<rect x="102.3" y="244.7" transform="matrix(0.5551 -0.8318 0.8318 0.5551 -185.5547 212.5228)" width="7.2" height="70.1" style="fill:#F9D5FF;"/>
	</g>
	<g>
		
			<rect x="365.6" y="71.3" transform="matrix(0.9817 -0.1907 0.1907 0.9817 -10.6438 72.0775)" width="7.2" height="40" style="fill:#F9D5FF;"/>
	</g>
</g>
</svg>
