<?xml version="1.0" encoding="iso-8859-1"?>
<!-- Generator: Adobe Illustrator 23.0.2, SVG Export Plug-In . SVG Version: 6.00 Build 0)  -->
<svg version="1.1" id="Layer_1" xmlns="http://www.w3.org/2000/svg" xmlns:xlink="http://www.w3.org/1999/xlink" x="0px" y="0px"
	 viewBox="0 0 1105.6 1080" style="enable-background:new 0 0 1105.6 1080;" xml:space="preserve">
<g style="opacity:0.3;">
	<g>
		<path style="fill:#C4ECFE;" d="M1026.7,80.7V885H78.8V80.7H1026.7 M1029.8,77.6H75.7v810.5h954.1L1029.8,77.6L1029.8,77.6z"/>
	</g>
	<g>
		<g>
			<rect x="75.7" y="652.2" style="fill:#C4ECFE;" width="954.1" height="2.9"/>
		</g>
		<g>
			<rect x="75.7" y="536.1" style="fill:#C4ECFE;" width="954.1" height="2.9"/>
		</g>
		<g>
			<rect x="75.7" y="652.2" style="fill:#C4ECFE;" width="954.1" height="2.9"/>
		</g>
		<g>
			<rect x="75.7" y="768.2" style="fill:#C4ECFE;" width="954.1" height="2.9"/>
		</g>
		<g>
			<rect x="75.7" y="420.1" style="fill:#C4ECFE;" width="954.1" height="2.9"/>
		</g>
		<g>
			<rect x="75.7" y="304" style="fill:#C4ECFE;" width="954.1" height="2.9"/>
		</g>
		<g>
			<rect x="75.7" y="188" style="fill:#C4ECFE;" width="954.1" height="2.9"/>
		</g>
	</g>
</g>
<linearGradient id="SVGID_1_" gradientUnits="userSpaceOnUse" x1="4532.2354" y1="-219.0977" x2="4532.2354" y2="-128.129" gradientTransform="matrix(-1 0 0 1 4716.2852 312)">
	<stop  offset="0" style="stop-color:#C0DDFC"/>
	<stop  offset="0.9958" style="stop-color:#FFFFFF"/>
</linearGradient>
<path style="fill:url(#SVGID_1_);" d="M78.4,165.9c0-46.1,40.7-94.4,92.6-64.2c51.7,30,33.3,77.2,118.7,89.1H78.4V165.9z"/>
<linearGradient id="SVGID_2_" gradientUnits="userSpaceOnUse" x1="6174.9604" y1="25.0929" x2="6174.9604" y2="103.6456" gradientTransform="matrix(1 0 0 1 -5930.4604 312)">
	<stop  offset="0" style="stop-color:#C0DDFC"/>
	<stop  offset="0.9958" style="stop-color:#FFFFFF"/>
</linearGradient>
<path style="fill:url(#SVGID_2_);" d="M135.5,371.2c0-31.6,39.2-46.7,60.1-23c10.5,11.9,22,20.6,40.1,16.2
	c71.9-17.6,58.6,55.4,117.8,57.2h-177c-22.6,0-41-18.3-41-41V371.2z"/>
<path style="fill:#2B2B2B;" d="M796.4,248.4c-3.6-16,10.3-54.1,40.2-62.4s70.3-15.9,89.8-1.3c19.5,14.5,81.3,147.9,72.3,173.7
	c-12.9,36.9-45.7,75.5-89.5,60.3C865.3,403.6,807.5,298.6,796.4,248.4z"/>
<g>
	<path style="fill:#2B2B2B;" d="M750.1,133.9l0.6,56.8c0.1,10.3,10.9,17.1,20.2,12.7l21-9.9L761,131L750.1,133.9z"/>
	<linearGradient id="SVGID_3_" gradientUnits="userSpaceOnUse" x1="714.4365" y1="458.1555" x2="714.4365" y2="211.9909">
		<stop  offset="0" style="stop-color:#FFE0C2"/>
		<stop  offset="0.401" style="stop-color:#7AAEFC"/>
		<stop  offset="0.5908" style="stop-color:#B8C1FC"/>
		<stop  offset="1" style="stop-color:#D2D4D4"/>
	</linearGradient>
	<path style="fill:url(#SVGID_3_);" d="M831.8,231.5c-11.7-14-32.6-15.9-46.6-4.2l-101.8,85l-90.3-3.6l-3.7,51.2l101.8,18.8
		c7.9,1.4,16.5-0.5,23.2-6.1l1.7-1.4l111.5-93.1C841.6,266.4,843.5,245.5,831.8,231.5z"/>
	<path style="fill:#DE6381;" d="M589.4,359.8l-25.3-4.7c-13-2.4-21.5-14.9-19.1-27.8c2.2-11.8,12.7-20,24.4-19.5l23.7,0.9"/>
	<g>
		<g>
			<g>
				<path id="SVGID_110_" style="fill:#FDC068;" d="M790.1,199.7l22.4-6c11.6-3.1,18.5-15,15.4-26.6l-9-33.7
					c-5-18.5-24-29.5-42.5-24.6l0,0c-18.5,5-29.5,24-24.6,42.5l8.3,30.9C763.5,195.4,776.9,203.2,790.1,199.7z"/>
			</g>
			<g>
				<path style="fill:#2B2B2B;" d="M757.4,161.2c0,1.5-0.8,2.8-2,3.4l-2-7.3h0.1C755.7,157.3,757.4,159,757.4,161.2z"/>
			</g>
		</g>
		
			<linearGradient id="SVGID_4_" gradientUnits="userSpaceOnUse" x1="860.1723" y1="-153.7908" x2="860.1723" y2="55.6678" gradientTransform="matrix(1 0 0 1 0 312)">
			<stop  offset="0" style="stop-color:#FFE0C2"/>
			<stop  offset="0.401" style="stop-color:#7AAEFC"/>
			<stop  offset="0.5908" style="stop-color:#B8C1FC"/>
			<stop  offset="1" style="stop-color:#D2D4D4"/>
		</linearGradient>
		<path style="fill:url(#SVGID_4_);" d="M819.9,187.2c0,0,26.1-25.7,45.1-23.6c19,2.1,35.8,74.5,35.8,74.5S813.3,205.8,819.9,187.2z
			"/>
		<g>
			<path style="fill:#2B2B2B;" d="M835.1,198.3c-0.4,0-0.8-0.2-1.1-0.5c-0.6-0.6-0.5-1.6,0.1-2.1l25.1-23.3c0.6-0.6,1.6-0.5,2.1,0.1
				c0.6,0.6,0.5,1.6-0.1,2.1l-25.1,23.3C835.8,198.2,835.5,198.3,835.1,198.3z"/>
		</g>
		
			<linearGradient id="SVGID_5_" gradientUnits="userSpaceOnUse" x1="842.7543" y1="146.1555" x2="842.7543" y2="-100.0092" gradientTransform="matrix(1 0 0 1 0 312)">
			<stop  offset="0" style="stop-color:#FFE0C2"/>
			<stop  offset="0.401" style="stop-color:#7AAEFC"/>
			<stop  offset="0.5908" style="stop-color:#B8C1FC"/>
			<stop  offset="1" style="stop-color:#D2D4D4"/>
		</linearGradient>
		<path style="fill:url(#SVGID_5_);" d="M888.7,238.1L888.7,238.1c0-0.2-0.1-0.3-0.1-0.5c-0.1-0.5-0.3-1-0.4-1.5h-0.1
			c-6.6-17.2-33.8-33-59.2-25.2l-23.5,6.4c-28.9,8.8-38.9,38.8-34,55.5l10.4,61.9l133.5-5C901,311.4,896.6,267.9,888.7,238.1z"/>
		<path style="fill:#2B2B2B;" d="M793.6,338.7c-46.9-91.1-9-116-9-116l21.5-6.3c0,0-38.6,36.3,8.2,127.3"/>
		<path style="fill:#FDC068;" d="M817.9,233.2l25.9-18.2l-20.1-63l-35.7,9.5l13.9,65.4C803.5,234.1,811.9,237.4,817.9,233.2z"/>
		<g>
			<path style="fill:#2B2B2B;" d="M765.6,170.3c-0.1,0-0.2,0-0.3,0l-3.7-1c-2-0.8-2.8-3.1-2-5.1l3.2-6.9c0.3-0.6,0.9-0.8,1.5-0.5
				s0.8,0.9,0.5,1.5l-3.2,6.9c-0.3,0.8,0,1.7,0.8,2.1l3.5,1c0.6,0.2,0.9,0.8,0.8,1.4C766.5,170,766.1,170.3,765.6,170.3z"/>
		</g>
		<g>
			<path style="fill:#2B2B2B;" d="M771.2,182c-2.8,0-4.9-2-5-2.1c-0.4-0.4-0.4-1.1,0-1.6c0.4-0.4,1.1-0.4,1.6,0c0,0,1.7,1.7,3.8,1.4
				c1.5-0.2,3-1.3,4.3-3.2c0.3-0.5,1-0.7,1.6-0.3c0.5,0.3,0.7,1,0.3,1.6c-1.7,2.6-3.7,4-5.9,4.2C771.6,182,771.4,182,771.2,182z"/>
		</g>
		<polygon style="fill:#2B2B2B;" points="795.8,198.1 810.4,194.2 798.9,212.7 		"/>
		<circle style="fill:#2B2B2B;" cx="775.3" cy="155.6" r="3.9"/>
	</g>
	
		<linearGradient id="SVGID_6_" gradientUnits="userSpaceOnUse" x1="781.5453" y1="-90.9126" x2="781.5453" y2="362.1724" gradientTransform="matrix(1 0 0 1 0 312)">
		<stop  offset="0" style="stop-color:#B8A7D3"/>
		<stop  offset="0.401" style="stop-color:#ED4861"/>
		<stop  offset="0.5011" style="stop-color:#F4837D"/>
		<stop  offset="0.5908" style="stop-color:#FECEAA"/>
		<stop  offset="1" style="stop-color:#B7D5EA"/>
	</linearGradient>
	<path style="fill:url(#SVGID_6_);" d="M870.9,428.6l-151.3-21.7l53.5-53.1L807,605.2l-63.6,8.6c-7-20.4-12.9-40.9-18.9-61.5
		c-5.8-20.5-11.2-41.2-16.5-61.8c-2.5-10.3-5.1-20.6-7.5-31l-3.7-15.5l-3.5-15.5c-4.7-20.7-9.1-41.4-13.4-62.2
		c-4.9-23.8,10.5-47.1,34.3-52c3.6-0.7,7.1-1,10.6-0.9l8,0.4c12.8,0.6,25.5,1.5,38.2,2.5c12.7,1.1,25.4,2.4,38,4.1
		c12.6,1.6,25.2,3.6,37.8,5.9l9.4,1.8c3.1,0.7,6.3,1.3,9.4,2l9.3,2.2l4.6,1.3l2.3,0.6l2.3,0.7L870.9,428.6z"/>
	<path style="fill:#2B2B2B;" d="M743.6,624.5l-19.1,15.1c-11.2,8.9-14.1,24.8-6.5,37l0,0l95.1-26.1l-13.7-101.8l-72.9,18.9
		L743.6,624.5z"/>
	
		<linearGradient id="SVGID_7_" gradientUnits="userSpaceOnUse" x1="919.5" y1="-90.9126" x2="919.5" y2="362.1724" gradientTransform="matrix(1 0 0 1 0 312)">
		<stop  offset="0" style="stop-color:#B8A7D3"/>
		<stop  offset="0.401" style="stop-color:#ED4861"/>
		<stop  offset="0.5011" style="stop-color:#F4837D"/>
		<stop  offset="0.5908" style="stop-color:#FECEAA"/>
		<stop  offset="1" style="stop-color:#B7D5EA"/>
	</linearGradient>
	<path style="fill:url(#SVGID_7_);" d="M924.4,324.4L954,519.1l-1-4.7l55,213.2l-62.1,16c-8.7-16.7-16.3-33.7-23.9-50.7
		c-7.5-17-14.6-34.1-21.5-51.3c-3.4-8.6-6.8-17.2-10.1-25.8l-4.9-12.9l-4.8-13c-6.4-17.3-12.5-34.7-18.5-52.1l-1-4.7
		c-3.7-16-7.1-32.1-10.3-48.2c-3.1-16.1-6.1-32.3-8.7-48.5c-2.6-16.2-5-32.4-6.9-48.8l-1.4-12.2c-0.4-4.1-0.9-8.2-1.2-12.3l-1-12.3
		l-0.4-6.2l-0.2-3.1l-0.1-3.1L924.4,324.4z"/>
	<polygon style="fill:#2B2B2B;" points="873.3,411.9 941.7,438.4 936.8,393.7 	"/>
	
		<linearGradient id="SVGID_8_" gradientUnits="userSpaceOnUse" x1="860.25" y1="147.6991" x2="860.25" y2="-106.7733" gradientTransform="matrix(1 0 0 1 0 312)">
		<stop  offset="0" style="stop-color:#FFE0C2"/>
		<stop  offset="0.401" style="stop-color:#7AAEFC"/>
		<stop  offset="0.5908" style="stop-color:#B8C1FC"/>
		<stop  offset="1" style="stop-color:#D2D4D4"/>
	</linearGradient>
	<path style="fill:url(#SVGID_8_);" d="M783.7,317.6c27.8,16.2,23.2,56.8,52.9,81.7s100.2,6.7,100.2,6.7l-12.4-91.6l-45.9,17
		C878.5,331.3,819,320.4,783.7,317.6z"/>
	<path style="fill:#2B2B2B;" d="M915.2,329.7c0,0,0.5,53.9,23.9,91.9l-2.4-81.9L915.2,329.7z"/>
	<path style="fill:#DE6381;" d="M1014.5,410.3l8.5,24.5c4.3,12.5-2.3,26.1-14.7,30.4c-11.3,3.9-23.5-1.1-28.9-11.3L967.1,431"/>
	
		<linearGradient id="SVGID_9_" gradientUnits="userSpaceOnUse" x1="925.4341" y1="111.7467" x2="925.4341" y2="-99.8484" gradientTransform="matrix(1 0 0 1 0 312)">
		<stop  offset="0" style="stop-color:#FFE0C2"/>
		<stop  offset="0.401" style="stop-color:#7AAEFC"/>
		<stop  offset="0.5908" style="stop-color:#B8C1FC"/>
		<stop  offset="1" style="stop-color:#D2D4D4"/>
	</linearGradient>
	<path style="fill:url(#SVGID_9_);" d="M967.1,430.9l-43.5-81.4l6.1,9.3l-84.3-90.1c-12.5-13.3-11.8-34.3,1.6-46.7
		s34.3-11.8,46.7,1.6l84.3,90.1l1.4,1.5c2.1,2.3,3.7,5,4.7,7.8l30.3,87.2"/>
	<path style="fill:#2B2B2B;" d="M930.4,365c-125.7-37.1-99.5-142.8-77.5-155l15.5,2.8c-16.3,2.4-54.1,100.1,60.8,139.9"/>
	<g>
		<path style="fill:#2B2B2B;" d="M782.8,129.9c0,0,10.3,11.2,10.3,24.9c0,6.8,0.7,19.8,1.4,31.1c0.6,10,11.1,16.2,20.2,12l16.6-7.8
			c7.2-3.4,10.7-11.7,7.9-19.2c-6.7-18.3-18.9-49-25.5-50.4C804.1,118.5,782.8,129.9,782.8,129.9z"/>
		<path style="fill:#DE6381;" d="M808.2,105l-58.6,12c-4.1,0.8-6.8,4.9-5.9,9l0.8,4c0.8,4.1,4.9,6.8,9,5.9l58.6-12
			c4.1-0.8,6.8-4.9,5.9-9l-0.8-4C816.3,106.8,812.3,104.2,808.2,105z"/>
		<path style="fill:#DE6381;" d="M773.5,84.6c-19.1,3.9-25.3,39.4-25.3,39.4l64.1-13.1C812.3,110.9,791.5,80.9,773.5,84.6z"/>
		<g>
			<path style="fill:#2B2B2B;" d="M749.6,118.6c-0.8,0-1.5-0.5-1.6-1.3c-0.2-0.9,0.4-1.8,1.3-1.9l57.8-11.8c0.9-0.2,1.8,0.4,1.9,1.3
				c0.2,0.9-0.4,1.8-1.3,1.9l-57.8,11.8C749.8,118.6,749.7,118.6,749.6,118.6z"/>
		</g>
	</g>
</g>
<g>
	<path style="fill:#2B2B2B;" d="M552.8,486.3c-0.1,0-0.2,0-0.3,0c-1.9-0.1-3.4-1.8-3.2-3.8l23.2-311.2c0.1-1.9,1.8-3.4,3.8-3.2
		c1.9,0.1,3.4,1.8,3.2,3.8l-23.2,311.2C556.2,484.9,554.6,486.3,552.8,486.3z"/>
</g>
<g>
	<g>
		
			<linearGradient id="XMLID_2_" gradientUnits="userSpaceOnUse" x1="340.5" y1="-85.7645" x2="574.1" y2="-85.7645" gradientTransform="matrix(1 0 0 1 0 312)">
			<stop  offset="0" style="stop-color:#B8A7D3"/>
			<stop  offset="0.401" style="stop-color:#ED4861"/>
			<stop  offset="0.5011" style="stop-color:#F4837D"/>
			<stop  offset="0.5908" style="stop-color:#FECEAA"/>
			<stop  offset="1" style="stop-color:#B7D5EA"/>
		</linearGradient>
		<path id="XMLID_85_" style="fill:url(#XMLID_2_);" d="M565.5,296.7c-34.3-40.2-71.3-23.3-112.4-7s-76,24.9-112.6-5.8
			c2.3-41,4.7-82.1,7-123.1c36.9,30.9,72,21.7,113.4,5.9c41.5-15.9,83.6-35.6,113.2,7.1C571.3,214.7,568.4,255.7,565.5,296.7z"/>
	</g>
	<g>
		<path style="fill:none;" d="M565.5,296.7c-34.3-40.2-71.3-23.3-112.4-7s-76,24.9-112.6-5.8c2.3-41,4.7-82.1,7-123.1
			c36.9,30.9,72,21.7,113.4,5.9c41.5-15.9,83.6-35.6,113.2,7.1C571.3,214.7,568.4,255.7,565.5,296.7z"/>
		<path style="fill:#92BFFC;" d="M502.8,151.8L496,274.5c-13.8,3.3-28,9.3-42.8,15.1c-6.6,2.6-13,5-19.3,7.1l6.6-122.8
			c6.7-2.1,13.5-4.6,20.5-7.3C475,161.3,489.1,155.5,502.8,151.8z"/>
	</g>
	<g>
		<path style="fill:#92BFFC;" d="M385.4,179.8l-4.7,123.6c-13.4-2.2-26.7-8.2-40.2-19.5c2.3-41,4.7-82.1,7-123.1
			C360.2,171.5,372.8,177.3,385.4,179.8z"/>
	</g>
</g>
<g>
	<g>
		<g>
			<path style="fill:#CEE4FD;" d="M194.8,665.7c-3,0-5.5-2.5-5.5-5.5V491.6c0-3,2.5-5.5,5.5-5.5s5.5,2.5,5.5,5.5v168.6
				C200.3,663.2,197.8,665.7,194.8,665.7z"/>
		</g>
	</g>
	<g>
		<path style="fill:#CEE4FD;" d="M217.9,549.9c-14.1,0-26.2-10.1-28.5-24.2c-0.5-3,1.5-5.8,4.5-6.3s5.8,1.5,6.3,4.5
			c1.5,9.2,9.7,15.6,19.1,14.9c3-0.2,5.7,2,5.9,5.1s-2,5.7-5.1,5.9C219.4,549.8,218.6,549.9,217.9,549.9z"/>
	</g>
	<g>
		<path style="fill:#CEE4FD;" d="M171.7,549.9c-0.7,0-1.5,0-2.2-0.1c-3-0.2-5.3-2.9-5.1-5.9s2.9-5.3,5.9-5.1
			c9.3,0.7,17.5-5.7,19.1-14.9c0.5-3,3.3-5,6.3-4.5s5,3.3,4.5,6.3C197.9,539.8,185.8,549.9,171.7,549.9z"/>
	</g>
	<g>
		<path style="fill:#CEE4FD;" d="M217.9,522.3c-14.1,0-26.2-10.1-28.5-24.2c-0.5-3,1.5-5.8,4.5-6.3s5.8,1.5,6.3,4.5
			c1.5,9.2,9.7,15.6,19.1,14.9c3-0.2,5.7,2,5.9,5.1c0.2,3-2,5.7-5.1,5.9C219.4,522.2,218.6,522.3,217.9,522.3z"/>
	</g>
	<g>
		<path style="fill:#CEE4FD;" d="M171.7,522.3c-0.7,0-1.5,0-2.2-0.1c-3-0.2-5.3-2.9-5.1-5.9s2.9-5.3,5.9-5.1
			c9.3,0.7,17.5-5.7,19.1-14.9c0.5-3,3.3-5,6.3-4.5s5,3.3,4.5,6.3C197.9,512.2,185.8,522.3,171.7,522.3z"/>
	</g>
</g>
<g>
	<g>
		<g>
			<path style="fill:#CEE4FD;" d="M256.9,741.5c-3,0-5.5-2.5-5.5-5.5V567.4c0-3,2.5-5.5,5.5-5.5s5.5,2.5,5.5,5.5V736
				C262.4,739,259.9,741.5,256.9,741.5z"/>
		</g>
	</g>
	<g>
		<path style="fill:#CEE4FD;" d="M280,625.7c-14.1,0-26.2-10-28.5-24.2c-0.5-3,1.5-5.8,4.5-6.3s5.8,1.5,6.3,4.5
			c1.5,9.2,9.7,15.6,19.1,14.9c3-0.2,5.7,2,5.9,5.1s-2,5.7-5.1,5.9C281.5,625.6,280.7,625.7,280,625.7z"/>
	</g>
	<g>
		<path style="fill:#CEE4FD;" d="M233.8,625.7c-0.7,0-1.5,0-2.2-0.1c-3-0.2-5.3-2.9-5.1-5.9s2.9-5.3,5.9-5.1
			c9.3,0.7,17.5-5.7,19.1-14.9c0.5-3,3.3-5,6.3-4.5c3,0.5,5,3.3,4.5,6.3C260,615.6,247.9,625.7,233.8,625.7z"/>
	</g>
	<g>
		<path style="fill:#CEE4FD;" d="M280,598.1c-14.1,0-26.2-10-28.5-24.2c-0.5-3,1.5-5.8,4.5-6.3s5.8,1.5,6.3,4.5
			c1.5,9.2,9.7,15.6,19.1,14.9c3-0.2,5.7,2,5.9,5.1c0.2,3-2,5.7-5.1,5.9C281.5,598,280.7,598.1,280,598.1z"/>
	</g>
	<g>
		<path style="fill:#CEE4FD;" d="M233.8,598.1c-0.7,0-1.5,0-2.2-0.1c-3-0.2-5.3-2.9-5.1-5.9s2.9-5.3,5.9-5.1
			c9.3,0.7,17.5-5.7,19.1-14.9c0.5-3,3.3-5,6.3-4.5c3,0.5,5,3.3,4.5,6.3C260,588,247.9,598.1,233.8,598.1z"/>
	</g>
</g>
<linearGradient id="SVGID_10_" gradientUnits="userSpaceOnUse" x1="75.7" y1="440.6337" x2="280.5" y2="440.6337" gradientTransform="matrix(1 0 0 1 0 312)">
	<stop  offset="0" style="stop-color:#FFD8A1"/>
	<stop  offset="0.9958" style="stop-color:#FFFFFF"/>
</linearGradient>
<path style="fill:url(#SVGID_10_);" d="M280.5,717.3L225,643.8c-27.2-36-80.8-37.3-109.7-2.6L92,669c-10.5,12.6-16.3,28.5-16.3,44.9
	v175.4h41.9L280.5,717.3z"/>
<linearGradient id="SVGID_11_" gradientUnits="userSpaceOnUse" x1="-1033.2325" y1="158.5237" x2="-1033.2325" y2="547.8288" gradientTransform="matrix(-1 0 0 1 -480.4326 312)">
	<stop  offset="0" style="stop-color:#C0DDFC"/>
	<stop  offset="0.9958" style="stop-color:#FFFFFF"/>
</linearGradient>
<path style="fill:url(#SVGID_11_);" d="M988,889.3L795.3,598.2c-37.4-56.5-93.3-98.1-158-117.8l0,0c-55.1-16.7-113.8-16.7-168.9,0
	l0,0c-64.8,19.7-120.7,61.3-158,117.8L117.6,889.3"/>
<path style="fill:#C5B3FE;" d="M931.3,803.7c0,0-6,25.5,2,33s39.3,29.5,39.3,29.5L931.3,803.7z"/>
<g>
	<g>
		<g>
			
				<linearGradient id="SVGID_12_" gradientUnits="userSpaceOnUse" x1="713.8" y1="364.8" x2="713.8" y2="582.8" gradientTransform="matrix(1 0 0 1 0 312)">
				<stop  offset="0.0105" style="stop-color:#81B1F9"/>
				<stop  offset="0.2503" style="stop-color:#84B3F9"/>
				<stop  offset="0.421" style="stop-color:#8DB8FA"/>
				<stop  offset="0.5704" style="stop-color:#9DC2FA"/>
				<stop  offset="0.7074" style="stop-color:#B3D0FB"/>
				<stop  offset="0.836" style="stop-color:#CFE2FD"/>
				<stop  offset="0.9567" style="stop-color:#F2F7FE"/>
				<stop  offset="0.9958" style="stop-color:#FFFFFF"/>
			</linearGradient>
			<path style="fill:url(#SVGID_12_);" d="M713.8,894.8c-3,0-5.5-2.5-5.5-5.5v-207c0-3,2.5-5.5,5.5-5.5s5.5,2.5,5.5,5.5v207
				C719.3,892.3,716.8,894.8,713.8,894.8z"/>
		</g>
	</g>
	<g>
		<path style="fill:#81B1F9;" d="M736.9,737.2c-14.1,0-26.2-10.1-28.5-24.2c-0.5-3,1.5-5.8,4.5-6.3s5.8,1.5,6.3,4.5
			c1.5,9.2,9.7,15.6,19.1,14.9c3-0.2,5.7,2,5.9,5.1s-2,5.7-5.1,5.9C738.4,737.1,737.6,737.2,736.9,737.2z"/>
	</g>
	<g>
		<path style="fill:#81B1F9;" d="M690.7,737.2c-0.7,0-1.5,0-2.2-0.1c-3-0.2-5.3-2.9-5.1-5.9s2.9-5.3,5.9-5.1
			c9.3,0.7,17.5-5.7,19.1-14.9c0.5-3,3.3-5,6.3-4.5s5,3.3,4.5,6.3C716.9,727.1,704.8,737.2,690.7,737.2z"/>
	</g>
	<g>
		<path style="fill:#81B1F9;" d="M736.9,764.7c-14.1,0-26.2-10.1-28.5-24.2c-0.5-3,1.5-5.8,4.5-6.3s5.8,1.5,6.3,4.5
			c1.5,9.2,9.7,15.6,19.1,14.9c3-0.2,5.7,2,5.9,5.1s-2,5.7-5.1,5.9C738.4,764.6,737.6,764.7,736.9,764.7z"/>
	</g>
	<g>
		<path style="fill:#81B1F9;" d="M690.7,764.7c-0.7,0-1.5,0-2.2-0.1c-3-0.2-5.3-2.9-5.1-5.9s2.9-5.3,5.9-5.1
			c9.3,0.7,17.5-5.7,19.1-14.9c0.5-3,3.3-5,6.3-4.5s5,3.3,4.5,6.3C716.9,754.6,704.8,764.7,690.7,764.7z"/>
	</g>
	<g>
		<path style="fill:#81B1F9;" d="M736.9,709.6c-14.1,0-26.2-10.1-28.5-24.2c-0.5-3,1.5-5.8,4.5-6.3s5.8,1.5,6.3,4.5
			c1.5,9.2,9.7,15.6,19.1,14.9c3-0.2,5.7,2,5.9,5.1s-2,5.7-5.1,5.9C738.4,709.5,737.6,709.6,736.9,709.6z"/>
	</g>
	<g>
		<path style="fill:#81B1F9;" d="M690.7,709.6c-0.7,0-1.5,0-2.2-0.1c-3-0.2-5.3-2.9-5.1-5.9s2.9-5.3,5.9-5.1
			c9.3,0.7,17.5-5.7,19.1-14.9c0.5-3,3.3-5,6.3-4.5s5,3.3,4.5,6.3C716.9,699.5,704.8,709.6,690.7,709.6z"/>
	</g>
</g>
<g>
	<g>
		<g>
			
				<linearGradient id="SVGID_13_" gradientUnits="userSpaceOnUse" x1="508.6" y1="456.4" x2="508.6" y2="582.8" gradientTransform="matrix(1 0 0 1 0 312)">
				<stop  offset="0.0105" style="stop-color:#81B1F9"/>
				<stop  offset="0.2503" style="stop-color:#84B3F9"/>
				<stop  offset="0.421" style="stop-color:#8DB8FA"/>
				<stop  offset="0.5704" style="stop-color:#9DC2FA"/>
				<stop  offset="0.7074" style="stop-color:#B3D0FB"/>
				<stop  offset="0.836" style="stop-color:#CFE2FD"/>
				<stop  offset="0.9567" style="stop-color:#F2F7FE"/>
				<stop  offset="0.9958" style="stop-color:#FFFFFF"/>
			</linearGradient>
			<path style="fill:url(#SVGID_13_);" d="M508.6,894.8c-3,0-5.5-2.5-5.5-5.5V773.9c0-3,2.5-5.5,5.5-5.5s5.5,2.5,5.5,5.5v115.4
				C514.1,892.3,511.6,894.8,508.6,894.8z"/>
		</g>
	</g>
	<g>
		<path style="fill:#81B1F9;" d="M531.7,828.8c-14.1,0-26.2-10.1-28.5-24.2c-0.5-3,1.5-5.8,4.5-6.3s5.8,1.5,6.3,4.5
			c1.5,9.2,9.7,15.6,19.1,14.9c3-0.2,5.7,2,5.9,5.1c0.2,3-2,5.7-5.1,5.9C533.2,828.7,532.4,828.8,531.7,828.8z"/>
	</g>
	<g>
		<path style="fill:#81B1F9;" d="M485.5,828.8c-0.7,0-1.5,0-2.2-0.1c-3-0.2-5.3-2.9-5.1-5.9c0.2-3,2.9-5.3,5.9-5.1
			c9.3,0.7,17.5-5.7,19.1-14.9c0.5-3,3.3-5,6.3-4.5c3,0.5,5,3.3,4.5,6.3C511.7,818.7,499.6,828.8,485.5,828.8z"/>
	</g>
	<g>
		<path style="fill:#81B1F9;" d="M531.7,801.2c-14.1,0-26.2-10.1-28.5-24.2c-0.5-3,1.5-5.8,4.5-6.3s5.8,1.5,6.3,4.5
			c1.5,9.2,9.7,15.6,19.1,14.9c3-0.2,5.7,2,5.9,5.1s-2,5.7-5.1,5.9C533.2,801.1,532.4,801.2,531.7,801.2z"/>
	</g>
	<g>
		<path style="fill:#81B1F9;" d="M485.5,801.2c-0.7,0-1.5,0-2.2-0.1c-3-0.2-5.3-2.9-5.1-5.9c0.2-3,2.9-5.3,5.9-5.1
			c9.4,0.7,17.5-5.7,19.1-14.9c0.5-3,3.3-5,6.3-4.5c3,0.5,5,3.3,4.5,6.3C511.7,791.1,499.6,801.2,485.5,801.2z"/>
	</g>
</g>
<path style="fill:#2B2B2B;" d="M947.9,750.5l-16.5,17.9c-9.7,10.5-10,26.7-0.7,37.6l0,0l89.9-40.5L991.3,667l-69.1,30L947.9,750.5z"
	/>
<g>
	<path style="fill:#2B2B2B;" d="M840.4,425.8c-0.7,0-1.4-0.5-1.5-1.3l-3.1-21.2c-0.1-0.8,0.4-1.6,1.3-1.7c0.8-0.1,1.6,0.4,1.7,1.3
		l3.1,21.2c0.1,0.8-0.4,1.6-1.3,1.7C840.5,425.8,840.5,425.8,840.4,425.8z"/>
</g>
<g>
	<path style="fill:#2B2B2B;" d="M900.8,329.4c-0.4,0-0.8-0.2-1.1-0.5l-28.2-30.1c-0.6-0.6-0.5-1.6,0.1-2.1c0.6-0.6,1.6-0.5,2.1,0.1
		l28.2,30.1c0.6,0.6,0.5,1.6-0.1,2.1C901.5,329.3,901.2,329.4,900.8,329.4z"/>
</g>
<g>
	<path style="fill:#2B2B2B;" d="M872.6,308.6c-0.7,0-1.3-0.5-1.5-1.2c-0.2-0.8,0.3-1.6,1.1-1.8l8-1.9c0.8-0.2,1.6,0.3,1.8,1.1
		c0.2,0.8-0.3,1.6-1.1,1.8l-8,1.9C872.8,308.6,872.7,308.6,872.6,308.6z"/>
</g>
<g>
	<path style="fill:#2B2B2B;" d="M698.5,314.4L698.5,314.4l-15.3-0.6c-0.8,0-1.5-0.7-1.4-1.6c0-0.8,0.7-1.5,1.6-1.4l15.2,0.6
		c0.8,0,1.5,0.7,1.4,1.6C700,313.8,699.3,314.4,698.5,314.4z"/>
</g>
<g>
	<path style="fill:#2B2B2B;" d="M781.8,418.9c-0.7,0-1.4-0.5-1.5-1.3l-2-14.3c-0.1-0.8,0.5-1.6,1.3-1.7s1.6,0.5,1.7,1.3l2,14.3
		c0.1,0.8-0.5,1.6-1.3,1.7C781.9,418.9,781.9,418.9,781.8,418.9z"/>
</g>
<path style="fill:#DE6381;" d="M557.6,310.4c4.3,0,16.1-5.4,17.6,7.6c0.7,6.3-0.4,11.9-4.3,16.4c-2.9,3.4-15.1,12.3-15.1,12.3
	L557.6,310.4z"/>
<g>
	<g>
		<path style="fill:#FFFFFF;" d="M445.5,482.4c-0.5,0-1.1-0.3-1.3-0.8l-5.4-10.7c-0.4-0.7-0.1-1.6,0.7-2c0.7-0.4,1.6-0.1,2,0.7
			l5.4,10.7c0.4,0.7,0.1,1.6-0.7,2C446,482.3,445.7,482.4,445.5,482.4z"/>
	</g>
	<g>
		<path style="fill:#FFFFFF;" d="M464.4,474.1c-0.7,0-1.3-0.5-1.3-1.3c0-0.7,0.5-1.4,1.3-1.4l11.6-0.7c0.7,0,1.4,0.5,1.4,1.3
			c0,0.7-0.5,1.4-1.3,1.4L464.4,474.1C464.5,474.1,464.4,474.1,464.4,474.1z"/>
	</g>
	<g>
		<path style="fill:#FFFFFF;" d="M454.4,460.6c-0.1,0-0.3,0-0.4-0.1c-0.8-0.2-1.2-1.1-1-1.9l3.6-11.5c0.2-0.8,1.1-1.2,1.9-1
			s1.2,1.1,1,1.9l-3.6,11.5C455.6,460.2,455,460.6,454.4,460.6z"/>
	</g>
</g>
<g>
	<g>
		<path style="fill:#FFFFFF;" d="M402.1,464.3c-0.5,0-1-0.2-1.3-0.7l-6.4-10.2c-0.4-0.7-0.2-1.6,0.5-2.1c0.7-0.4,1.6-0.2,2.1,0.5
			l6.4,10.2c0.4,0.7,0.2,1.6-0.5,2.1C402.6,464.2,402.4,464.3,402.1,464.3z"/>
	</g>
	<g>
		<path style="fill:#FFFFFF;" d="M420.3,454.4c-0.6,0-1.2-0.5-1.3-1.1c-0.1-0.7,0.4-1.4,1.1-1.5l11.4-1.8c0.7-0.1,1.4,0.4,1.5,1.1
			s-0.4,1.4-1.1,1.5l-11.4,1.8C420.4,454.4,420.4,454.4,420.3,454.4z"/>
	</g>
	<g>
		<path style="fill:#FFFFFF;" d="M409.1,441.8c-0.1,0-0.2,0-0.3,0c-0.8-0.2-1.3-1-1.1-1.8l2.6-11.8c0.2-0.8,1-1.3,1.8-1.1
			c0.8,0.2,1.3,1,1.1,1.8l-2.6,11.8C410.4,441.3,409.8,441.8,409.1,441.8z"/>
	</g>
</g>
<g>
	<g>
		<g>
			<g>
				<path style="fill:#FFFFFF;" d="M360.6,615.4c-0.5,0-1.1-0.3-1.3-0.8l-5.4-10.7c-0.4-0.7-0.1-1.6,0.7-2c0.7-0.4,1.6-0.1,2,0.7
					l5.4,10.7c0.4,0.7,0.1,1.6-0.7,2C361.1,615.3,360.8,615.4,360.6,615.4z"/>
			</g>
			<g>
				<path style="fill:#FFFFFF;" d="M379.5,607.3c-0.8,0-1.4-0.6-1.5-1.4c-0.1-0.8,0.6-1.5,1.4-1.6l11.6-0.8c0.8-0.1,1.5,0.6,1.6,1.4
					c0.1,0.8-0.6,1.5-1.4,1.6l-11.6,0.8H379.5z"/>
			</g>
			<g>
				<path style="fill:#FFFFFF;" d="M369.5,593.5c-0.1,0-0.3,0-0.5-0.1c-0.8-0.2-1.2-1.1-1-1.9l3.6-11.4c0.2-0.8,1.1-1.2,1.9-1
					s1.2,1.1,1,1.9l-3.6,11.4C370.7,593.1,370.1,593.5,369.5,593.5z"/>
			</g>
		</g>
		<g>
			<g>
				<path style="fill:#FFFFFF;" d="M360.6,651.6c-0.5,0-1.1-0.3-1.3-0.8l-5.4-10.7c-0.4-0.7-0.1-1.6,0.7-2c0.7-0.4,1.6-0.1,2,0.7
					l5.4,10.7c0.4,0.7,0.1,1.6-0.7,2C361.1,651.5,360.8,651.6,360.6,651.6z"/>
			</g>
			<g>
				<path style="fill:#FFFFFF;" d="M379.6,643.5c-0.8,0-1.4-0.6-1.5-1.4c-0.1-0.8,0.6-1.5,1.4-1.6l11.5-0.7c0.8-0.1,1.5,0.6,1.6,1.4
					c0.1,0.8-0.6,1.5-1.4,1.6L379.6,643.5C379.7,643.5,379.6,643.5,379.6,643.5z"/>
			</g>
			<g>
				<path style="fill:#FFFFFF;" d="M369.6,629.8c-0.1,0-0.3,0-0.4-0.1c-0.8-0.2-1.2-1.1-1-1.9l3.6-11.5c0.2-0.8,1.1-1.2,1.9-1
					s1.2,1.1,1,1.9l-3.6,11.5C370.8,629.4,370.2,629.8,369.6,629.8z"/>
			</g>
		</g>
		<g>
			<g>
				<path style="fill:#FFFFFF;" d="M318,597.1c-0.3,0.1-0.5,0.2-0.8,0.2c-0.5,0-1-0.2-1.3-0.7l-2.1-3.4c0.6-0.9,1.3-1.8,1.9-2.7
					l2.8,4.5C318.9,595.7,318.7,596.6,318,597.1z"/>
			</g>
			<g>
				<path style="fill:#FFFFFF;" d="M335.4,587.5c-0.7,0-1.4-0.5-1.5-1.3s0.4-1.6,1.3-1.7l11.4-1.7c0.8-0.1,1.6,0.4,1.7,1.3
					c0.1,0.8-0.4,1.6-1.3,1.7l-11.4,1.7C335.5,587.5,335.5,587.5,335.4,587.5z"/>
			</g>
		</g>
		<g>
			<g>
				<path style="fill:#FFFFFF;" d="M320.4,633.3c-0.5,0-1-0.2-1.3-0.7l-6.3-10.1c-0.4-0.7-0.2-1.6,0.5-2.1c0.7-0.4,1.6-0.2,2.1,0.5
					l6.3,10.1c0.4,0.7,0.2,1.6-0.5,2.1C320.9,633.2,320.7,633.3,320.4,633.3z"/>
			</g>
			<g>
				<path style="fill:#FFFFFF;" d="M338.6,623.6c-0.7,0-1.4-0.5-1.5-1.3s0.4-1.6,1.2-1.7l11.4-1.8c0.8-0.1,1.6,0.4,1.7,1.2
					s-0.4,1.6-1.2,1.7l-11.4,1.8C338.8,623.6,338.7,623.6,338.6,623.6z"/>
			</g>
			<g>
				<path style="fill:#FFFFFF;" d="M327.4,610.8c-0.1,0-0.2,0-0.3,0c-0.8-0.2-1.3-1-1.1-1.8l2.6-11.7c0.2-0.8,1-1.3,1.8-1.1
					s1.3,1,1.1,1.8l-2.6,11.7C328.7,610.3,328.1,610.8,327.4,610.8z"/>
			</g>
		</g>
		<g>
			<g>
				<path style="fill:#FFFFFF;" d="M323.6,674.6c-0.5,0-1.1-0.3-1.3-0.8l-5.4-10.7c-0.4-0.7-0.1-1.6,0.7-2c0.7-0.4,1.6-0.1,2,0.7
					l5.4,10.7c0.4,0.7,0.1,1.6-0.7,2C324.1,674.5,323.8,674.6,323.6,674.6z"/>
			</g>
			<g>
				<path style="fill:#FFFFFF;" d="M342.6,666.5c-0.8,0-1.4-0.6-1.5-1.4c-0.1-0.8,0.6-1.5,1.4-1.6l11.5-0.8c0.8-0.1,1.5,0.6,1.6,1.4
					c0.1,0.8-0.6,1.5-1.4,1.6l-11.5,0.8H342.6z"/>
			</g>
			<g>
				<path style="fill:#FFFFFF;" d="M332.6,652.7c-0.1,0-0.3,0-0.5-0.1c-0.8-0.2-1.2-1.1-1-1.9l3.6-11.4c0.2-0.8,1.1-1.2,1.9-1
					s1.2,1.1,1,1.9l-3.6,11.4C333.8,652.3,333.2,652.7,332.6,652.7z"/>
			</g>
		</g>
		<g>
			<g>
				<path style="fill:#FFFFFF;" d="M323.7,710.8c-0.5,0-1.1-0.3-1.3-0.8l-5.5-10.7c-0.4-0.7-0.1-1.6,0.6-2s1.6-0.1,2,0.6l5.5,10.7
					c0.4,0.7,0.1,1.6-0.6,2C324.2,710.7,323.9,710.8,323.7,710.8z"/>
			</g>
			<g>
				<path style="fill:#FFFFFF;" d="M342.6,702.7c-0.8,0-1.4-0.6-1.5-1.4c-0.1-0.8,0.6-1.5,1.4-1.6l11.5-0.8c0.8-0.1,1.5,0.6,1.6,1.4
					c0.1,0.8-0.6,1.5-1.4,1.6l-11.5,0.8H342.6z"/>
			</g>
			<g>
				<path style="fill:#FFFFFF;" d="M332.6,689c-0.1,0-0.3,0-0.4-0.1c-0.8-0.2-1.2-1.1-1-1.9l3.6-11.5c0.2-0.8,1.1-1.2,1.9-1
					s1.2,1.1,1,1.9l-3.6,11.5C333.8,688.6,333.2,689,332.6,689z"/>
			</g>
		</g>
		<g>
			<g>
				<path style="fill:#FFFFFF;" d="M281,656.2c-0.3,0.1-0.5,0.2-0.8,0.2c-0.5,0-1-0.2-1.3-0.7l-3.2-5.1l1.8-2.8l3.9,6.3
					C281.9,654.8,281.7,655.7,281,656.2z"/>
			</g>
			<g>
				<path style="fill:#FFFFFF;" d="M298.4,646.7c-0.7,0-1.4-0.5-1.5-1.3s0.4-1.6,1.2-1.7l11.4-1.8c0.8-0.1,1.6,0.4,1.7,1.2
					s-0.4,1.6-1.2,1.7l-11.4,1.8C298.6,646.7,298.5,646.7,298.4,646.7z"/>
			</g>
			<g>
				<path style="fill:#FFFFFF;" d="M289.3,630l-0.6,2.8c-0.2,0.6-0.8,1.1-1.5,1.1h-0.3h-0.1L289.3,630z"/>
			</g>
		</g>
		<g>
			<g>
				<path style="fill:#FFFFFF;" d="M283.5,692.5c-0.5,0-1-0.2-1.3-0.7l-6.4-10.2c-0.4-0.7-0.2-1.6,0.5-2.1c0.7-0.4,1.6-0.2,2.1,0.5
					l6.4,10.2c0.4,0.7,0.2,1.6-0.5,2.1C284,692.4,283.8,692.5,283.5,692.5z"/>
			</g>
			<g>
				<path style="fill:#FFFFFF;" d="M301.6,682.8c-0.7,0-1.4-0.5-1.5-1.3s0.4-1.6,1.2-1.7l11.4-1.8c0.8-0.1,1.6,0.4,1.7,1.2
					s-0.4,1.6-1.2,1.7l-11.4,1.8C301.8,682.8,301.7,682.8,301.6,682.8z"/>
			</g>
			<g>
				<path style="fill:#FFFFFF;" d="M290.4,670c-0.1,0-0.2,0-0.3,0c-0.8-0.2-1.3-1-1.1-1.8l2.6-11.7c0.2-0.8,1-1.3,1.8-1.1
					s1.3,1,1.1,1.8l-2.6,11.7C291.7,669.5,291.1,670,290.4,670z"/>
			</g>
		</g>
		<g>
			<g>
				<path style="fill:#FFFFFF;" d="M433.2,531.9c-0.5,0-1.1-0.3-1.3-0.8l-5.4-10.7c-0.4-0.7-0.1-1.6,0.7-2c0.7-0.4,1.6-0.1,2,0.7
					l5.4,10.7c0.4,0.7,0.1,1.6-0.7,2C433.7,531.8,433.4,531.9,433.2,531.9z"/>
			</g>
			<g>
				<path style="fill:#FFFFFF;" d="M452.2,523.8c-0.8,0-1.4-0.6-1.5-1.4c-0.1-0.8,0.6-1.5,1.4-1.6l11.5-0.7c0.8-0.1,1.5,0.6,1.6,1.4
					c0.1,0.8-0.6,1.5-1.4,1.6L452.2,523.8C452.3,523.8,452.2,523.8,452.2,523.8z"/>
			</g>
			<g>
				<path style="fill:#FFFFFF;" d="M442.2,510.1c-0.1,0-0.3,0-0.5-0.1c-0.8-0.2-1.2-1.1-1-1.9l3.6-11.4c0.2-0.8,1.1-1.2,1.9-1
					s1.2,1.1,1,1.9l-3.6,11.4C443.4,509.7,442.8,510.1,442.2,510.1z"/>
			</g>
		</g>
		<g>
			<g>
				<path style="fill:#FFFFFF;" d="M422.8,502.2l-9.7,1.4c2.7-1.5,5.4-2.9,8.1-4.3l1.2-0.2c0.8-0.1,1.6,0.4,1.7,1.3
					S423.7,502.1,422.8,502.2z"/>
			</g>
		</g>
		<g>
			<g>
				<path style="fill:#FFFFFF;" d="M396.3,554.9c-0.5,0-1.1-0.3-1.3-0.8l-5.5-10.7c-0.4-0.7-0.1-1.6,0.6-2s1.6-0.1,2,0.6l5.5,10.7
					c0.4,0.7,0.1,1.6-0.6,2C396.8,554.8,396.5,554.9,396.3,554.9z"/>
			</g>
			<g>
				<path style="fill:#FFFFFF;" d="M415.2,546.8c-0.8,0-1.4-0.6-1.5-1.4c-0.1-0.8,0.6-1.5,1.4-1.6l11.5-0.7c0.8,0,1.5,0.6,1.6,1.4
					c0.1,0.8-0.6,1.5-1.4,1.6L415.2,546.8C415.3,546.8,415.2,546.8,415.2,546.8z"/>
			</g>
			<g>
				<path style="fill:#FFFFFF;" d="M405.2,533.1c-0.1,0-0.3,0-0.4-0.1c-0.8-0.2-1.2-1.1-1-1.9l3.6-11.5c0.2-0.8,1.1-1.2,1.9-1
					s1.2,1.1,1,1.9l-3.6,11.5C406.4,532.7,405.8,533.1,405.2,533.1z"/>
			</g>
		</g>
		<g>
			<g>
				<path style="fill:#FFFFFF;" d="M396.3,591.1c-0.5,0-1.1-0.3-1.3-0.8l-5.4-10.7c-0.4-0.7-0.1-1.6,0.7-2c0.7-0.4,1.6-0.1,2,0.7
					l5.4,10.7c0.4,0.7,0.1,1.6-0.7,2C396.8,591,396.5,591.1,396.3,591.1z"/>
			</g>
			<g>
				<path style="fill:#FFFFFF;" d="M415.2,583c-0.8,0-1.4-0.6-1.5-1.4c-0.1-0.8,0.6-1.5,1.4-1.6l11.6-0.7c0.8-0.1,1.5,0.6,1.6,1.4
					c0.1,0.8-0.6,1.5-1.4,1.6L415.2,583C415.3,583,415.2,583,415.2,583z"/>
			</g>
			<g>
				<path style="fill:#FFFFFF;" d="M405.2,569.3c-0.1,0-0.3,0-0.5-0.1c-0.8-0.2-1.2-1.1-1-1.9l3.6-11.4c0.2-0.8,1.1-1.2,1.9-1
					s1.2,1.1,1,1.9l-3.6,11.4C406.4,568.9,405.8,569.3,405.2,569.3z"/>
			</g>
		</g>
		<g>
			<g>
				<path style="fill:#FFFFFF;" d="M382.7,525.3l-4.2,0.6c0.2-0.1,0.4-0.3,0.6-0.4c1.4-1,2.8-2,4.1-3c0.4,0.2,0.7,0.6,0.8,1.1
					C384.1,524.4,383.6,525.2,382.7,525.3z"/>
			</g>
		</g>
		<g>
			<g>
				<path style="fill:#FFFFFF;" d="M356.1,572.9c-0.5,0-1-0.2-1.3-0.7l-6.4-10.2c-0.4-0.7-0.2-1.6,0.5-2.1c0.7-0.4,1.6-0.2,2.1,0.5
					l6.4,10.2c0.4,0.7,0.2,1.6-0.5,2.1C356.6,572.8,356.4,572.9,356.1,572.9z"/>
			</g>
			<g>
				<path style="fill:#FFFFFF;" d="M374.3,563.1c-0.7,0-1.4-0.5-1.5-1.3s0.4-1.6,1.3-1.7l11.4-1.7c0.8-0.1,1.6,0.4,1.7,1.3
					c0.1,0.8-0.4,1.6-1.3,1.7l-11.4,1.7C374.4,563.1,374.4,563.1,374.3,563.1z"/>
			</g>
			<g>
				<path style="fill:#FFFFFF;" d="M367.2,537.5l-2.6,11.7c-0.2,0.6-0.8,1.1-1.5,1.1h-0.3c-0.8-0.2-1.3-1-1.1-1.8l2.5-11.1l0,0
					c0.7-0.6,1.3-1.1,2-1.7C366.9,535.9,367.4,536.7,367.2,537.5z"/>
			</g>
		</g>
		<g>
			<g>
				<path style="fill:#FFFFFF;" d="M287.7,736.9c-0.5,0-1.1-0.3-1.3-0.8l-5.4-10.7c-0.4-0.7-0.1-1.6,0.7-2c0.7-0.4,1.6-0.1,2,0.7
					l5.4,10.7c0.4,0.7,0.1,1.6-0.7,2C288.2,736.8,287.9,736.9,287.7,736.9z"/>
			</g>
			<g>
				<path style="fill:#FFFFFF;" d="M306.7,728.8c-0.8,0-1.4-0.6-1.5-1.4c-0.1-0.8,0.6-1.5,1.4-1.6l11.5-0.7c0.8,0,1.5,0.6,1.6,1.4
					c0.1,0.8-0.6,1.5-1.4,1.6L306.7,728.8C306.8,728.8,306.7,728.8,306.7,728.8z"/>
			</g>
			<g>
				<path style="fill:#FFFFFF;" d="M296.7,715.1c-0.1,0-0.3,0-0.4-0.1c-0.8-0.2-1.2-1.1-1-1.9l3.6-11.5c0.2-0.8,1.1-1.2,1.9-1
					s1.2,1.1,1,1.9l-3.6,11.5C297.9,714.7,297.3,715.1,296.7,715.1z"/>
			</g>
		</g>
		<g>
			<g>
				<path style="fill:#FFFFFF;" d="M287.7,773.1c-0.5,0-1.1-0.3-1.3-0.8l-5.4-10.7c-0.4-0.7-0.1-1.6,0.7-2c0.7-0.4,1.6-0.1,2,0.7
					l5.4,10.7c0.4,0.7,0.1,1.6-0.7,2C288.2,773,287.9,773.1,287.7,773.1z"/>
			</g>
			<g>
				<path style="fill:#FFFFFF;" d="M306.7,765c-0.8,0-1.4-0.6-1.5-1.4c-0.1-0.8,0.6-1.5,1.4-1.6l11.5-0.7c0.8,0,1.5,0.6,1.6,1.4
					c0.1,0.8-0.6,1.5-1.4,1.6L306.7,765C306.8,765,306.7,765,306.7,765z"/>
			</g>
			<g>
				<path style="fill:#FFFFFF;" d="M296.7,751.3c-0.1,0-0.3,0-0.5-0.1c-0.8-0.2-1.2-1.1-1-1.9l3.6-11.4c0.2-0.8,1.1-1.2,1.9-1
					s1.2,1.1,1,1.9l-3.6,11.4C297.9,750.9,297.3,751.3,296.7,751.3z"/>
			</g>
		</g>
		<g>
			<g>
				<path style="fill:#FFFFFF;" d="M245.1,718.6c-0.3,0.1-0.5,0.2-0.8,0.2c-0.5,0-1-0.3-1.3-0.7l-5.8-9.4l0,0l1.8-2.7
					c0.1,0.1,0.2,0.2,0.3,0.3l6.3,10.2C246,717.2,245.8,718.1,245.1,718.6z"/>
			</g>
			<g>
				<path style="fill:#FFFFFF;" d="M262.5,709c-0.7,0-1.4-0.5-1.5-1.3s0.4-1.6,1.3-1.7l11.4-1.7c0.8-0.1,1.6,0.4,1.7,1.3
					c0.1,0.8-0.4,1.6-1.3,1.7l-11.4,1.7C262.6,709,262.6,709,262.5,709z"/>
			</g>
			<g>
				<path style="fill:#FFFFFF;" d="M255.4,683.4l-2.6,11.7c-0.2,0.6-0.8,1.1-1.5,1.1H251c-0.8-0.2-1.3-1-1.1-1.8l1.6-7.3l3.4-5.2
					C255.3,682.3,255.5,682.8,255.4,683.4z"/>
			</g>
		</g>
		<g>
			<g>
				<path style="fill:#FFFFFF;" d="M247.5,754.9c-0.5,0-1-0.3-1.3-0.7l-6.3-10.2c-0.4-0.7-0.2-1.6,0.5-2.1c0.7-0.4,1.6-0.2,2.1,0.5
					l6.3,10.2c0.4,0.7,0.2,1.6-0.5,2.1C248,754.8,247.8,754.9,247.5,754.9z"/>
			</g>
			<g>
				<path style="fill:#FFFFFF;" d="M265.7,745.1c-0.7,0-1.4-0.5-1.5-1.3s0.4-1.6,1.3-1.7l11.4-1.7c0.8-0.1,1.6,0.4,1.7,1.3
					c0.1,0.8-0.4,1.6-1.3,1.7l-11.4,1.7C265.8,745.1,265.8,745.1,265.7,745.1z"/>
			</g>
			<g>
				<path style="fill:#FFFFFF;" d="M254.5,732.3c-0.1,0-0.2,0-0.3,0c-0.8-0.2-1.3-1-1.1-1.8l2.6-11.7c0.2-0.8,1-1.3,1.8-1.1
					s1.3,1,1.1,1.8l-2.6,11.7C255.8,731.8,255.2,732.3,254.5,732.3z"/>
			</g>
		</g>
		<g>
			<g>
				<path style="fill:#FFFFFF;" d="M250.8,796.1c-0.5,0-1.1-0.3-1.3-0.8l-5.5-10.7c-0.4-0.7-0.1-1.6,0.6-2c0.7-0.4,1.6-0.1,2,0.6
					l5.5,10.7c0.4,0.7,0.1,1.6-0.6,2C251.3,796,251,796.1,250.8,796.1z"/>
			</g>
			<g>
				<path style="fill:#FFFFFF;" d="M269.7,788c-0.8,0-1.4-0.6-1.5-1.4c-0.1-0.8,0.6-1.5,1.4-1.6l11.5-0.8c0.8-0.1,1.5,0.6,1.6,1.4
					c0.1,0.8-0.6,1.5-1.4,1.6l-11.5,0.8C269.8,788,269.7,788,269.7,788z"/>
			</g>
			<g>
				<path style="fill:#FFFFFF;" d="M259.7,774.3c-0.1,0-0.3,0-0.4-0.1c-0.8-0.2-1.2-1.1-1-1.9l3.6-11.5c0.2-0.8,1.1-1.2,1.9-1
					s1.2,1.1,1,1.9l-3.6,11.5C260.9,773.9,260.3,774.3,259.7,774.3z"/>
			</g>
		</g>
		<g>
			<g>
				<path style="fill:#FFFFFF;" d="M250.8,832.3c-0.5,0-1.1-0.3-1.3-0.8l-5.4-10.7c-0.4-0.7-0.1-1.6,0.7-2c0.7-0.4,1.6-0.1,2,0.7
					l5.4,10.7c0.4,0.7,0.1,1.6-0.7,2C251.3,832.2,251,832.3,250.8,832.3z"/>
			</g>
			<g>
				<path style="fill:#FFFFFF;" d="M269.8,824.2c-0.8,0-1.4-0.6-1.5-1.4c-0.1-0.8,0.6-1.5,1.4-1.6l11.5-0.7c0.8,0,1.5,0.6,1.6,1.4
					c0.1,0.8-0.6,1.5-1.4,1.6L269.8,824.2C269.9,824.2,269.8,824.2,269.8,824.2z"/>
			</g>
			<g>
				<path style="fill:#FFFFFF;" d="M259.7,810.5c-0.2,0-0.3,0-0.5-0.1c-0.8-0.3-1.2-1.1-1-1.9L262,797c0.3-0.8,1.1-1.2,1.9-1
					c0.8,0.3,1.2,1.1,1,1.9l-3.7,11.5C260.9,810.1,260.3,810.5,259.7,810.5z"/>
			</g>
		</g>
		<g>
			<g>
				<path style="fill:#FFFFFF;" d="M207.4,778c-0.5,0-1-0.2-1.3-0.7l-6.4-10.2c-0.4-0.7-0.2-1.6,0.5-2.1c0.7-0.4,1.6-0.2,2.1,0.5
					l6.4,10.2c0.4,0.7,0.2,1.6-0.5,2.1C207.9,777.9,207.7,778,207.4,778z"/>
			</g>
			<g>
				<path style="fill:#FFFFFF;" d="M225.5,768.2c-0.7,0-1.4-0.5-1.5-1.3s0.4-1.6,1.3-1.7l11.5-1.7c0.8-0.1,1.6,0.4,1.7,1.3
					c0.1,0.8-0.4,1.6-1.3,1.7l-11.5,1.7C225.6,768.2,225.6,768.2,225.5,768.2z"/>
			</g>
			<g>
				<path style="fill:#FFFFFF;" d="M214.4,755.4c-0.1,0-0.2,0-0.3,0c-0.8-0.2-1.3-1-1.1-1.8l2.6-11.7c0.2-0.8,1-1.3,1.8-1.1
					s1.3,1,1.1,1.8l-2.6,11.7C215.7,754.9,215.1,755.4,214.4,755.4z"/>
			</g>
		</g>
		<g>
			<g>
				<path style="fill:#FFFFFF;" d="M210.6,814c-0.5,0-1-0.2-1.3-0.7l-6.3-10.1c-0.4-0.7-0.2-1.6,0.5-2.1c0.7-0.4,1.6-0.2,2.1,0.5
					l6.3,10.1c0.4,0.7,0.2,1.6-0.5,2.1C211.1,813.9,210.9,814,210.6,814z"/>
			</g>
			<g>
				<path style="fill:#FFFFFF;" d="M228.8,804.3c-0.7,0-1.4-0.5-1.5-1.3s0.4-1.6,1.2-1.7l11.4-1.8c0.8-0.1,1.6,0.4,1.7,1.2
					c0.1,0.8-0.4,1.6-1.2,1.7l-11.4,1.8C229,804.3,228.9,804.3,228.8,804.3z"/>
			</g>
			<g>
				<path style="fill:#FFFFFF;" d="M217.6,791.5c-0.1,0-0.2,0-0.3,0c-0.8-0.2-1.3-1-1.1-1.8l2.6-11.7c0.2-0.8,1-1.3,1.8-1.1
					s1.3,1,1.1,1.8l-2.6,11.7C218.9,791,218.3,791.5,217.6,791.5z"/>
			</g>
		</g>
	</g>
	<g>
		<g>
			<g>
				<path style="fill:#FFFFFF;" d="M429.2,629.8c-0.8,0-1.4-0.6-1.5-1.4c-0.1-0.8,0.5-1.6,1.4-1.6l12-1c0.8-0.1,1.6,0.5,1.6,1.4
					c0.1,0.8-0.5,1.6-1.4,1.6l-12,1C429.3,629.8,429.2,629.8,429.2,629.8z"/>
			</g>
			<g>
				<path style="fill:#FFFFFF;" d="M426.3,609.4c-0.5,0-1.1-0.3-1.3-0.8l-5.4-10.3c-0.4-0.7-0.1-1.6,0.6-2s1.6-0.1,2,0.6l5.4,10.3
					c0.4,0.7,0.1,1.6-0.6,2C426.8,609.3,426.5,609.4,426.3,609.4z"/>
			</g>
			<g>
				<path style="fill:#FFFFFF;" d="M443.2,610.8c-0.3,0-0.7-0.1-1-0.4c-0.6-0.5-0.7-1.5-0.1-2.1l7.9-9.1c0.5-0.6,1.5-0.7,2.1-0.1
					c0.6,0.5,0.7,1.5,0.1,2.1l-7.9,9.1C444,610.6,443.6,610.8,443.2,610.8z"/>
			</g>
		</g>
		<g>
			<g>
				<path style="fill:#FFFFFF;" d="M398.3,648.6c-0.8,0-1.4-0.6-1.5-1.4c-0.1-0.8,0.6-1.5,1.4-1.6l11.9-0.9c0.8-0.1,1.5,0.6,1.6,1.4
					c0.1,0.8-0.6,1.5-1.4,1.6l-11.9,0.9H398.3z"/>
			</g>
			<g>
				<path style="fill:#FFFFFF;" d="M395.3,628.2c-0.5,0-1.1-0.3-1.3-0.8l-5.3-10.2c-0.4-0.7-0.1-1.6,0.6-2s1.6-0.1,2,0.6l5.3,10.2
					c0.4,0.7,0.1,1.6-0.6,2C395.8,628.1,395.5,628.2,395.3,628.2z"/>
			</g>
			<g>
				<path style="fill:#FFFFFF;" d="M412.3,629.6c-0.3,0-0.7-0.1-1-0.4c-0.6-0.5-0.7-1.5-0.2-2.1l7.8-9c0.5-0.6,1.5-0.7,2.1-0.2
					s0.7,1.5,0.2,2.1l-7.8,9C413.1,629.4,412.7,629.6,412.3,629.6z"/>
			</g>
		</g>
		<g>
			<g>
				<path style="fill:#FFFFFF;" d="M479.3,657.5L479.3,657.5l-12-0.1c-0.8,0-1.5-0.7-1.5-1.5s0.7-1.5,1.5-1.5l0,0l12,0.1
					c0.8,0,1.5,0.7,1.5,1.5S480.1,657.5,479.3,657.5z"/>
			</g>
			<g>
				<path style="fill:#FFFFFF;" d="M466.1,636.8c-0.6,0-1.1-0.3-1.4-0.9l-4.4-10.7c-0.3-0.8,0.1-1.6,0.8-2c0.8-0.3,1.6,0,2,0.8
					l4.4,10.7c0.3,0.8-0.1,1.6-0.8,2C466.5,636.8,466.3,636.8,466.1,636.8z"/>
			</g>
			<g>
				<path style="fill:#FFFFFF;" d="M482.9,639.7c-0.4,0-0.8-0.2-1.1-0.5c-0.6-0.6-0.6-1.5,0-2.1l8.6-8.3c0.6-0.6,1.5-0.6,2.1,0
					s0.6,1.5,0,2.1l-8.6,8.3C483.7,639.6,483.3,639.7,482.9,639.7z"/>
			</g>
		</g>
		<g>
			<g>
				<path style="fill:#FFFFFF;" d="M446.8,673.5L446.8,673.5l-12-0.1c-0.8,0-1.5-0.7-1.5-1.5s0.7-1.5,1.5-1.5l0,0l12,0.1
					c0.8,0,1.5,0.7,1.5,1.5S447.6,673.5,446.8,673.5z"/>
			</g>
			<g>
				<path style="fill:#FFFFFF;" d="M433.6,652.8c-0.6,0-1.1-0.3-1.4-0.9l-4.4-10.6c-0.3-0.8,0-1.6,0.8-2c0.8-0.3,1.6,0,2,0.8
					l4.4,10.6c0.3,0.8,0,1.6-0.8,2C434,652.8,433.8,652.8,433.6,652.8z"/>
			</g>
			<g>
				<path style="fill:#FFFFFF;" d="M450.4,655.7c-0.4,0-0.8-0.2-1.1-0.5c-0.6-0.6-0.6-1.5,0-2.1l8.6-8.3c0.6-0.6,1.5-0.6,2.1,0
					s0.6,1.5,0,2.1l-8.6,8.3C451.2,655.6,450.8,655.7,450.4,655.7z"/>
			</g>
		</g>
		<g>
			<g>
				<path style="fill:#FFFFFF;" d="M397.9,692.1c-0.8,0-1.4-0.6-1.5-1.4c-0.1-0.8,0.6-1.5,1.4-1.6l12-0.9c0.8-0.1,1.5,0.6,1.6,1.4
					s-0.6,1.5-1.4,1.6l-12,0.9H397.9z"/>
			</g>
			<g>
				<path style="fill:#FFFFFF;" d="M395,671.7c-0.5,0-1.1-0.3-1.3-0.8l-5.4-10.2c-0.4-0.7-0.1-1.6,0.6-2s1.6-0.1,2,0.6l5.4,10.2
					c0.4,0.7,0.1,1.6-0.6,2C395.5,671.6,395.2,671.7,395,671.7z"/>
			</g>
			<g>
				<path style="fill:#FFFFFF;" d="M411.9,673.1c-0.4,0-0.7-0.1-1-0.4c-0.6-0.5-0.7-1.5-0.1-2.1l7.9-9c0.5-0.6,1.5-0.7,2.1-0.1
					c0.6,0.5,0.7,1.5,0.1,2.1l-7.9,9C412.7,672.9,412.3,673.1,411.9,673.1z"/>
			</g>
		</g>
		<g>
			<g>
				<path style="fill:#FFFFFF;" d="M367,711c-0.8,0-1.4-0.6-1.5-1.4c-0.1-0.8,0.5-1.6,1.4-1.6l11.9-1c0.8-0.1,1.6,0.5,1.6,1.4
					c0.1,0.8-0.5,1.6-1.4,1.6l-11.9,1H367z"/>
			</g>
			<g>
				<path style="fill:#FFFFFF;" d="M364,690.6c-0.5,0-1.1-0.3-1.3-0.8l-5.4-10.3c-0.4-0.7-0.1-1.6,0.6-2s1.6-0.1,2,0.6l5.4,10.3
					c0.4,0.7,0.1,1.6-0.6,2C364.5,690.5,364.2,690.6,364,690.6z"/>
			</g>
			<g>
				<path style="fill:#FFFFFF;" d="M380.9,692c-0.3,0-0.7-0.1-1-0.4c-0.6-0.5-0.7-1.5-0.1-2.1l7.9-9.1c0.5-0.6,1.5-0.7,2.1-0.1
					c0.6,0.5,0.7,1.5,0.1,2.1l-7.9,9.1C381.7,691.8,381.3,692,380.9,692z"/>
			</g>
		</g>
		<g>
			<g>
				<path style="fill:#FFFFFF;" d="M448,719.9L448,719.9l-12-0.1c-0.8,0-1.5-0.7-1.5-1.5s0.7-1.5,1.5-1.5l12,0.1
					c0.8,0,1.5,0.7,1.5,1.5S448.8,719.9,448,719.9z"/>
			</g>
			<g>
				<path style="fill:#FFFFFF;" d="M434.8,699.2c-0.6,0-1.1-0.3-1.4-0.9l-4.4-10.7c-0.3-0.8,0.1-1.6,0.8-2c0.8-0.3,1.6,0.1,2,0.8
					l4.4,10.7c0.3,0.8-0.1,1.6-0.8,2C435.2,699.2,435,699.2,434.8,699.2z"/>
			</g>
			<g>
				<path style="fill:#FFFFFF;" d="M451.6,702.1c-0.4,0-0.8-0.2-1.1-0.5c-0.6-0.6-0.6-1.5,0-2.1l8.6-8.4c0.6-0.6,1.5-0.6,2.1,0
					s0.6,1.5,0,2.1l-8.6,8.4C452.4,702,452,702.1,451.6,702.1z"/>
			</g>
		</g>
		<g>
			<g>
				<path style="fill:#FFFFFF;" d="M415.5,735.9L415.5,735.9l-12-0.1c-0.8,0-1.5-0.7-1.5-1.5s0.7-1.5,1.5-1.5l0,0l12,0.1
					c0.8,0,1.5,0.7,1.5,1.5S416.3,735.9,415.5,735.9z"/>
			</g>
			<g>
				<path style="fill:#FFFFFF;" d="M402.3,715.2c-0.6,0-1.1-0.3-1.4-0.9l-4.4-10.7c-0.3-0.8,0.1-1.6,0.8-2c0.8-0.3,1.6,0.1,2,0.8
					l4.4,10.7c0.3,0.8-0.1,1.6-0.8,2C402.7,715.2,402.5,715.2,402.3,715.2z"/>
			</g>
			<g>
				<path style="fill:#FFFFFF;" d="M419.1,718.1c-0.4,0-0.8-0.2-1.1-0.5c-0.6-0.6-0.6-1.5,0-2.1l8.6-8.3c0.6-0.6,1.5-0.6,2.1,0
					s0.6,1.5,0,2.1l-8.6,8.3C419.9,718,419.5,718.1,419.1,718.1z"/>
			</g>
		</g>
		<g>
			<g>
				<path style="fill:#FFFFFF;" d="M470.9,531.9c-0.2,0-0.4,0-0.6-0.1c-0.8-0.3-1.1-1.2-0.8-2l3.7-8.5c0.3-0.8,1.2-1.1,2-0.8
					s1.1,1.2,0.8,2l-3.7,8.5C472,531.6,471.5,531.9,470.9,531.9z"/>
			</g>
			<g>
				<path style="fill:#FFFFFF;" d="M459.7,503.9c-0.5,0-1.1-0.3-1.3-0.8l-5.4-10.2c-0.4-0.7-0.1-1.6,0.6-2s1.6-0.1,2,0.6l5.4,10.2
					c0.4,0.7,0.1,1.6-0.6,2C460.2,503.8,459.9,503.9,459.7,503.9z"/>
			</g>
			<g>
				<path style="fill:#FFFFFF;" d="M476.6,505.3c-0.4,0-0.7-0.1-1-0.4c-0.6-0.5-0.7-1.5-0.1-2.1l7.9-9c0.5-0.6,1.5-0.7,2.1-0.1
					c0.6,0.5,0.7,1.5,0.1,2.1l-7.9,9C477.4,505.1,477,505.3,476.6,505.3z"/>
			</g>
		</g>
		<g>
			<g>
				<path style="fill:#FFFFFF;" d="M511.2,549.3L511.2,549.3l-12-0.2c-0.8,0-1.5-0.7-1.5-1.5s0.7-1.5,1.5-1.5l0,0l12,0.2
					c0.8,0,1.5,0.7,1.5,1.5S512,549.3,511.2,549.3z"/>
			</g>
			<g>
				<path style="fill:#FFFFFF;" d="M498,528.5c-0.6,0-1.1-0.3-1.4-0.9l-4.4-10.6c-0.3-0.8,0-1.6,0.8-2c0.8-0.3,1.6,0,2,0.8l4.4,10.6
					c0.3,0.8,0,1.6-0.8,2C498.4,528.5,498.2,528.5,498,528.5z"/>
			</g>
			<g>
				<path style="fill:#FFFFFF;" d="M514.8,531.4c-0.4,0-0.8-0.2-1.1-0.5c-0.6-0.6-0.6-1.5,0-2.1l8.6-8.3c0.6-0.6,1.5-0.6,2.1,0
					s0.6,1.5,0,2.1l-8.6,8.3C515.6,531.3,515.2,531.4,514.8,531.4z"/>
			</g>
		</g>
		<g>
			<g>
				<path style="fill:#FFFFFF;" d="M462.3,567.8c-0.8,0-1.4-0.6-1.5-1.4c-0.1-0.8,0.6-1.5,1.4-1.6l11.9-0.9c0.8-0.1,1.5,0.6,1.6,1.4
					c0.1,0.8-0.6,1.5-1.4,1.6l-11.9,0.9H462.3z"/>
			</g>
			<g>
				<path style="fill:#FFFFFF;" d="M459.3,547.4c-0.5,0-1.1-0.3-1.3-0.8l-5.3-10.2c-0.4-0.7-0.1-1.6,0.6-2s1.6-0.1,2,0.6l5.3,10.2
					c0.4,0.7,0.1,1.6-0.6,2C459.8,547.3,459.5,547.4,459.3,547.4z"/>
			</g>
			<g>
				<path style="fill:#FFFFFF;" d="M476.3,548.8c-0.4,0-0.7-0.1-1-0.4c-0.6-0.5-0.7-1.5-0.1-2.1l7.9-9c0.5-0.6,1.5-0.7,2.1-0.1
					c0.6,0.5,0.7,1.5,0.1,2.1l-7.9,9C477.1,548.6,476.7,548.8,476.3,548.8z"/>
			</g>
		</g>
		<g>
			<g>
				<path style="fill:#FFFFFF;" d="M434.8,591.1c-0.5,0-1-0.2-1.3-0.7c-0.4-0.7-0.2-1.6,0.5-2.1l8.5-5.4c0.7-0.4,1.6-0.2,2.1,0.5
					c0.4,0.7,0.2,1.6-0.5,2.1l-8.5,5.4C435.4,591,435.1,591.1,434.8,591.1z"/>
			</g>
			<g>
				<path style="fill:#FFFFFF;" d="M428.4,566.3c-0.5,0-1.1-0.3-1.3-0.8l-5.4-10.3c-0.4-0.7-0.1-1.6,0.6-2s1.6-0.1,2,0.6l5.4,10.3
					c0.4,0.7,0.1,1.6-0.6,2C428.9,566.2,428.6,566.3,428.4,566.3z"/>
			</g>
			<g>
				<path style="fill:#FFFFFF;" d="M445.3,567.7c-0.3,0-0.7-0.1-1-0.4c-0.6-0.5-0.7-1.5-0.1-2.1l7.9-9.1c0.5-0.6,1.5-0.7,2.1-0.1
					c0.6,0.5,0.7,1.5,0.1,2.1l-7.9,9.1C446.1,567.5,445.7,567.7,445.3,567.7z"/>
			</g>
		</g>
		<g>
			<g>
				<path style="fill:#FFFFFF;" d="M512.3,595.6L512.3,595.6l-12-0.1c-0.8,0-1.5-0.7-1.5-1.5s0.7-1.5,1.5-1.5l0,0l12,0.1
					c0.8,0,1.5,0.7,1.5,1.5C513.8,594.9,513.1,595.6,512.3,595.6z"/>
			</g>
			<g>
				<path style="fill:#FFFFFF;" d="M499.2,574.9c-0.6,0-1.1-0.3-1.4-0.9l-4.4-10.7c-0.3-0.8,0.1-1.6,0.8-2c0.8-0.3,1.6,0.1,2,0.8
					l4.4,10.7c0.3,0.8-0.1,1.6-0.8,2C499.6,574.9,499.4,574.9,499.2,574.9z"/>
			</g>
			<g>
				<path style="fill:#FFFFFF;" d="M516,577.8c-0.4,0-0.8-0.2-1.1-0.5c-0.6-0.6-0.6-1.5,0-2.1l8.6-8.3c0.6-0.6,1.5-0.6,2.1,0
					s0.6,1.5,0,2.1l-8.6,8.3C516.8,577.7,516.4,577.8,516,577.8z"/>
			</g>
		</g>
		<g>
			<g>
				<path style="fill:#FFFFFF;" d="M479.9,611.6L479.9,611.6l-12-0.1c-0.8,0-1.5-0.7-1.5-1.5s0.7-1.5,1.5-1.5l0,0l12,0.1
					c0.8,0,1.5,0.7,1.5,1.5C481.4,610.9,480.7,611.6,479.9,611.6z"/>
			</g>
			<g>
				<path style="fill:#FFFFFF;" d="M466.7,590.9c-0.6,0-1.1-0.3-1.4-0.9l-4.4-10.7c-0.3-0.8,0.1-1.6,0.8-2c0.8-0.3,1.6,0.1,2,0.8
					l4.4,10.7c0.3,0.8-0.1,1.6-0.8,2C467.1,590.9,466.9,590.9,466.7,590.9z"/>
			</g>
			<g>
				<path style="fill:#FFFFFF;" d="M483.5,593.8c-0.4,0-0.8-0.2-1.1-0.5c-0.6-0.6-0.6-1.5,0-2.1l8.6-8.3c0.6-0.6,1.5-0.6,2.1,0
					s0.6,1.5,0,2.1l-8.6,8.3C484.3,593.7,483.9,593.8,483.5,593.8z"/>
			</g>
		</g>
		<g>
			<g>
				<path style="fill:#FFFFFF;" d="M363.4,755.2c-0.8,0-1.4-0.6-1.5-1.4c-0.1-0.8,0.6-1.5,1.4-1.6l11.9-0.9c0.8-0.1,1.5,0.6,1.6,1.4
					c0.1,0.8-0.6,1.5-1.4,1.6l-11.9,0.9H363.4z"/>
			</g>
			<g>
				<path style="fill:#FFFFFF;" d="M360.4,734.8c-0.5,0-1.1-0.3-1.3-0.8l-5.3-10.2c-0.4-0.7-0.1-1.6,0.6-2s1.6-0.1,2,0.6l5.3,10.2
					c0.4,0.7,0.1,1.6-0.6,2C360.9,734.7,360.6,734.8,360.4,734.8z"/>
			</g>
			<g>
				<path style="fill:#FFFFFF;" d="M377.4,736.2c-0.3,0-0.7-0.1-1-0.4c-0.6-0.5-0.7-1.5-0.2-2.1l7.8-9c0.5-0.6,1.5-0.7,2.1-0.2
					s0.7,1.5,0.2,2.1l-7.8,9C378.2,736,377.8,736.2,377.4,736.2z"/>
			</g>
		</g>
		<g>
			<g>
				<path style="fill:#FFFFFF;" d="M332.4,774.1c-0.8,0-1.4-0.6-1.5-1.4c-0.1-0.8,0.5-1.6,1.4-1.6l12-1c0.8-0.1,1.6,0.5,1.6,1.4
					c0.1,0.8-0.5,1.6-1.4,1.6l-12,1H332.4z"/>
			</g>
			<g>
				<path style="fill:#FFFFFF;" d="M329.5,753.7c-0.5,0-1.1-0.3-1.3-0.8l-5.4-10.3c-0.4-0.7-0.1-1.6,0.6-2s1.6-0.1,2,0.6l5.4,10.3
					c0.4,0.7,0.1,1.6-0.6,2C330,753.6,329.7,753.7,329.5,753.7z"/>
			</g>
			<g>
				<path style="fill:#FFFFFF;" d="M346.4,755.1c-0.3,0-0.7-0.1-1-0.4c-0.6-0.5-0.7-1.5-0.1-2.1l7.9-9.1c0.5-0.6,1.5-0.7,2.1-0.1
					c0.6,0.5,0.7,1.5,0.1,2.1l-7.9,9.1C347.2,754.9,346.8,755.1,346.4,755.1z"/>
			</g>
		</g>
		<g>
			<g>
				<path style="fill:#FFFFFF;" d="M413.4,783L413.4,783l-12-0.1c-0.8,0-1.5-0.7-1.5-1.5s0.7-1.5,1.5-1.5l0,0l12,0.1
					c0.8,0,1.5,0.7,1.5,1.5S414.2,783,413.4,783z"/>
			</g>
			<g>
				<path style="fill:#FFFFFF;" d="M400.3,762.3c-0.6,0-1.1-0.3-1.4-0.9l-4.5-10.7c-0.3-0.8,0-1.6,0.8-2c0.8-0.3,1.6,0,2,0.8
					l4.5,10.7c0.3,0.8,0,1.6-0.8,2C400.7,762.3,400.5,762.3,400.3,762.3z"/>
			</g>
			<g>
				<path style="fill:#FFFFFF;" d="M417,765.2c-0.4,0-0.8-0.2-1.1-0.5c-0.6-0.6-0.5-1.5,0.1-2.1l8.7-8.3c0.6-0.6,1.5-0.6,2.1,0
					s0.5,1.5-0.1,2.1l-8.7,8.3C417.7,765.1,417.4,765.2,417,765.2z"/>
			</g>
		</g>
		<g>
			<g>
				<path style="fill:#FFFFFF;" d="M380.9,799L380.9,799l-12-0.1c-0.8,0-1.5-0.7-1.5-1.5s0.7-1.5,1.5-1.5l0,0l12,0.1
					c0.8,0,1.5,0.7,1.5,1.5S381.7,799,380.9,799z"/>
			</g>
			<g>
				<path style="fill:#FFFFFF;" d="M367.8,778.3c-0.6,0-1.1-0.3-1.4-0.9l-4.4-10.7c-0.3-0.8,0.1-1.6,0.8-2c0.8-0.3,1.6,0,2,0.8
					l4.4,10.7c0.3,0.8-0.1,1.6-0.8,2C368.2,778.3,368,778.3,367.8,778.3z"/>
			</g>
			<g>
				<path style="fill:#FFFFFF;" d="M384.5,781.2c-0.4,0-0.8-0.2-1.1-0.5c-0.6-0.6-0.5-1.5,0.1-2.1l8.7-8.3c0.6-0.6,1.5-0.6,2.1,0
					s0.5,1.5-0.1,2.1l-8.7,8.3C385.2,781.1,384.9,781.2,384.5,781.2z"/>
			</g>
		</g>
		<g>
			<g>
				<path style="fill:#FFFFFF;" d="M332.1,817.6c-0.8,0-1.4-0.6-1.5-1.4c-0.1-0.8,0.6-1.5,1.4-1.6l11.9-0.9c0.8-0.1,1.5,0.6,1.6,1.4
					c0.1,0.8-0.6,1.5-1.4,1.6l-11.9,0.9H332.1z"/>
			</g>
			<g>
				<path style="fill:#FFFFFF;" d="M329.1,797.2c-0.5,0-1.1-0.3-1.3-0.8l-5.4-10.2c-0.4-0.7-0.1-1.6,0.6-2s1.6-0.1,2,0.6l5.4,10.2
					c0.4,0.7,0.1,1.6-0.6,2C329.6,797.1,329.3,797.2,329.1,797.2z"/>
			</g>
			<g>
				<path style="fill:#FFFFFF;" d="M346,798.6c-0.4,0-0.7-0.1-1-0.4c-0.6-0.5-0.7-1.5-0.1-2.1l7.9-9c0.5-0.6,1.5-0.7,2.1-0.1
					c0.6,0.5,0.7,1.5,0.1,2.1l-7.9,9C346.8,798.4,346.4,798.6,346,798.6z"/>
			</g>
		</g>
		<g>
			<g>
				<path style="fill:#FFFFFF;" d="M301.1,836.4c-0.8,0-1.4-0.6-1.5-1.4c-0.1-0.8,0.6-1.5,1.4-1.6l12-0.9c0.8-0.1,1.5,0.6,1.6,1.4
					c0.1,0.8-0.6,1.5-1.4,1.6l-12,0.9H301.1z"/>
			</g>
			<g>
				<path style="fill:#FFFFFF;" d="M298.2,816c-0.5,0-1.1-0.3-1.3-0.8l-5.4-10.2c-0.4-0.7-0.1-1.6,0.6-2s1.6-0.1,2,0.6l5.4,10.2
					c0.4,0.7,0.1,1.6-0.6,2C298.7,815.9,298.4,816,298.2,816z"/>
			</g>
			<g>
				<path style="fill:#FFFFFF;" d="M315.1,817.4c-0.4,0-0.7-0.1-1-0.4c-0.6-0.5-0.7-1.5-0.1-2.1l7.9-9c0.5-0.6,1.5-0.7,2.1-0.1
					c0.6,0.5,0.7,1.5,0.1,2.1l-7.9,9C315.9,817.2,315.5,817.4,315.1,817.4z"/>
			</g>
		</g>
		<g>
			<g>
				<path style="fill:#FFFFFF;" d="M382.1,845.3L382.1,845.3l-12-0.1c-0.8,0-1.5-0.7-1.5-1.5s0.7-1.5,1.5-1.5l0,0l12,0.1
					c0.8,0,1.5,0.7,1.5,1.5S382.9,845.3,382.1,845.3z"/>
			</g>
			<g>
				<path style="fill:#FFFFFF;" d="M369,824.6c-0.6,0-1.1-0.3-1.4-0.9l-4.5-10.6c-0.3-0.8,0-1.6,0.8-2c0.8-0.3,1.6,0,2,0.8l4.5,10.6
					c0.3,0.8,0,1.6-0.8,2C369.4,824.6,369.2,824.6,369,824.6z"/>
			</g>
			<g>
				<path style="fill:#FFFFFF;" d="M385.7,827.5c-0.4,0-0.8-0.2-1.1-0.5c-0.6-0.6-0.5-1.5,0-2.1l8.7-8.3c0.6-0.6,1.5-0.6,2.1,0
					s0.5,1.5,0,2.1l-8.7,8.3C386.4,827.4,386.1,827.5,385.7,827.5z"/>
			</g>
		</g>
		<g>
			<g>
				<path style="fill:#FFFFFF;" d="M349.6,861.4L349.6,861.4l-12-0.2c-0.8,0-1.5-0.7-1.5-1.5s0.7-1.5,1.5-1.5l12,0.2
					c0.8,0,1.5,0.7,1.5,1.5S350.4,861.4,349.6,861.4z"/>
			</g>
			<g>
				<path style="fill:#FFFFFF;" d="M336.5,840.7c-0.6,0-1.1-0.3-1.4-0.9l-4.4-10.7c-0.3-0.8,0.1-1.6,0.8-2c0.8-0.3,1.6,0.1,2,0.8
					l4.4,10.7c0.3,0.8-0.1,1.6-0.8,2C336.9,840.7,336.7,840.7,336.5,840.7z"/>
			</g>
			<g>
				<path style="fill:#FFFFFF;" d="M353.2,843.5c-0.4,0-0.8-0.2-1.1-0.5c-0.6-0.6-0.5-1.5,0-2.1l8.7-8.3c0.6-0.6,1.5-0.6,2.1,0
					s0.5,1.5,0,2.1l-8.7,8.3C353.9,843.4,353.6,843.5,353.2,843.5z"/>
			</g>
		</g>
	</g>
</g>
</svg>
