<?xml version="1.0" encoding="iso-8859-1"?>
<!-- Generator: Adobe Illustrator 23.0.2, SVG Export Plug-In . SVG Version: 6.00 Build 0)  -->
<svg version="1.1" id="Layer_1" xmlns="http://www.w3.org/2000/svg" xmlns:xlink="http://www.w3.org/1999/xlink" x="0px" y="0px"
	 viewBox="0 0 1105.6 1080" style="enable-background:new 0 0 1105.6 1080;" xml:space="preserve">
<g style="opacity:0.3;">
	<g>
		<path style="fill:#C4ECFE;" d="M1026.7,80.7V885H78.8V80.7H1026.7 M1029.8,77.6H75.7v810.5h954.1L1029.8,77.6L1029.8,77.6z"/>
	</g>
	<g>
		<g>
			<rect x="75.7" y="652.2" style="fill:#C4ECFE;" width="954.1" height="2.9"/>
		</g>
		<g>
			<rect x="75.7" y="536.1" style="fill:#C4ECFE;" width="954.1" height="2.9"/>
		</g>
		<g>
			<rect x="75.7" y="652.2" style="fill:#C4ECFE;" width="954.1" height="2.9"/>
		</g>
		<g>
			<rect x="75.7" y="768.2" style="fill:#C4ECFE;" width="954.1" height="2.9"/>
		</g>
		<g>
			<rect x="75.7" y="420.1" style="fill:#C4ECFE;" width="954.1" height="2.9"/>
		</g>
		<g>
			<rect x="75.7" y="304" style="fill:#C4ECFE;" width="954.1" height="2.9"/>
		</g>
		<g>
			<rect x="75.7" y="188" style="fill:#C4ECFE;" width="954.1" height="2.9"/>
		</g>
	</g>
</g>
<linearGradient id="SVGID_1_" gradientUnits="userSpaceOnUse" x1="147.75" y1="509.7" x2="147.75" y2="504.2029" gradientTransform="matrix(1 0 0 -1 0 1392)">
	<stop  offset="0" style="stop-color:#FFE0C2"/>
	<stop  offset="0.401" style="stop-color:#7AAEFC"/>
	<stop  offset="0.5908" style="stop-color:#B8C1FC"/>
	<stop  offset="1" style="stop-color:#D2D4D4"/>
</linearGradient>
<path style="fill:url(#SVGID_1_);" d="M147.8,888.1l-0.1-5.8C147.7,884.2,147.8,886.1,147.8,888.1z"/>
<g>
	<g>
		<path style="fill:#CAE6C4;" d="M957.2,685.4c-3,0-5.5-2.5-5.5-5.5V492.4c0-3,2.5-5.5,5.5-5.5s5.5,2.5,5.5,5.5v187.5
			C962.7,682.9,960.2,685.4,957.2,685.4z"/>
	</g>
	<g>
		<path style="fill:#CAE6C4;" d="M957.2,533.5c-0.3,0-0.6,0-0.9-0.1c-3-0.5-5-3.3-4.5-6.3c2.5-14.8,15.7-25.2,30.7-24.1
			c3,0.2,5.3,2.9,5.1,5.9s-2.9,5.3-5.9,5.1c-9.3-0.7-17.5,5.7-19.1,14.9C962.2,531.6,959.8,533.5,957.2,533.5z"/>
	</g>
	<g>
		<path style="fill:#CAE6C4;" d="M957.2,533.5c-2.6,0-5-1.9-5.4-4.6c-1.5-9.2-9.7-15.6-19.1-14.9c-3,0.2-5.7-2-5.9-5.1
			s2-5.7,5.1-5.9c15.1-1.1,28.3,9.2,30.7,24.1c0.5,3-1.5,5.8-4.5,6.3C957.8,533.5,957.5,533.5,957.2,533.5z"/>
	</g>
	<g>
		<path style="fill:#CAE6C4;" d="M957.2,561c-0.3,0-0.6,0-0.9-0.1c-3-0.5-5-3.3-4.5-6.3c2.5-14.8,15.7-25.2,30.7-24.1
			c3,0.2,5.3,2.9,5.1,5.9s-2.9,5.3-5.9,5.1c-9.3-0.7-17.5,5.7-19.1,14.9C962.2,559.1,959.8,561,957.2,561z"/>
	</g>
	<g>
		<path style="fill:#CAE6C4;" d="M957.2,561c-2.6,0-5-1.9-5.4-4.6c-1.5-9.2-9.7-15.6-19.1-14.9c-3,0.2-5.7-2-5.9-5.1s2-5.7,5.1-5.9
			c15.1-1.1,28.3,9.2,30.7,24.1c0.5,3-1.5,5.8-4.5,6.3C957.8,561,957.5,561,957.2,561z"/>
	</g>
</g>
<g>
	<g>
		<path style="fill:#CAE6C4;" d="M886.6,712c-3,0-5.5-2.5-5.5-5.5V561.7c0-3,2.5-5.5,5.5-5.5s5.5,2.5,5.5,5.5v144.8
			C892.1,709.5,889.6,712,886.6,712z"/>
	</g>
	<g>
		<path style="fill:#CAE6C4;" d="M886.6,602.8c-0.3,0-0.6,0-0.9-0.1c-3-0.5-5-3.3-4.5-6.3c2.5-14.8,15.7-25.2,30.7-24.1
			c3,0.2,5.3,2.9,5.1,5.9s-2.9,5.3-5.9,5.1c-9.3-0.7-17.5,5.7-19.1,14.9C891.6,600.9,889.2,602.8,886.6,602.8z"/>
	</g>
	<g>
		<path style="fill:#CAE6C4;" d="M886.6,602.8c-2.6,0-5-1.9-5.4-4.6c-1.5-9.2-9.7-15.6-19.1-14.9c-3,0.2-5.7-2-5.9-5.1
			c-0.2-3,2-5.7,5.1-5.9c15-1.1,28.3,9.2,30.7,24.1c0.5,3-1.5,5.8-4.5,6.3C887.2,602.8,886.9,602.8,886.6,602.8z"/>
	</g>
	<g>
		<path style="fill:#CAE6C4;" d="M886.6,630.4c-0.3,0-0.6,0-0.9-0.1c-3-0.5-5-3.3-4.5-6.3c2.5-14.8,15.7-25.2,30.7-24.1
			c3,0.2,5.3,2.9,5.1,5.9s-2.9,5.3-5.9,5.1c-9.3-0.7-17.5,5.7-19.1,14.9C891.6,628.5,889.2,630.4,886.6,630.4z"/>
	</g>
	<g>
		<path style="fill:#CAE6C4;" d="M886.6,630.4c-2.6,0-5-1.9-5.4-4.6c-1.5-9.2-9.7-15.6-19.1-14.9c-3,0.2-5.7-2-5.9-5.1
			s2-5.7,5.1-5.9c15.1-1.1,28.3,9.2,30.7,24.1c0.5,3-1.5,5.8-4.5,6.3C887.2,630.4,886.9,630.4,886.6,630.4z"/>
	</g>
</g>
<g>
	<g>
		<path style="fill:#CAE6C4;" d="M134.7,819.8c-3,0-5.5-2.5-5.5-5.5V696.2c0-3,2.5-5.5,5.5-5.5s5.5,2.5,5.5,5.5v118.1
			C140.2,817.3,137.7,819.8,134.7,819.8z"/>
	</g>
	<g>
		<path style="fill:#CAE6C4;" d="M134.7,737.3c-0.3,0-0.6,0-0.9-0.1c-3-0.5-5-3.3-4.5-6.3c2.5-14.8,15.7-25.2,30.7-24.1
			c3,0.2,5.3,2.9,5.1,5.9s-2.9,5.3-5.9,5.1c-9.3-0.7-17.5,5.7-19.1,14.9C139.7,735.4,137.3,737.3,134.7,737.3z"/>
	</g>
	<g>
		<path style="fill:#CAE6C4;" d="M134.7,737.3c-2.6,0-5-1.9-5.4-4.6c-1.5-9.2-9.7-15.6-19.1-14.9c-3,0.2-5.7-2-5.9-5.1
			c-0.2-3,2-5.7,5.1-5.9c15-1.1,28.3,9.2,30.7,24.1c0.5,3-1.5,5.8-4.5,6.3C135.3,737.3,135,737.3,134.7,737.3z"/>
	</g>
</g>
<linearGradient id="SVGID_2_" gradientUnits="userSpaceOnUse" x1="1125.3889" y1="739.205" x2="1125.3889" y2="522.5713" gradientTransform="matrix(-1 0 0 -1 1926.189 1392)">
	<stop  offset="0" style="stop-color:#FFD8A1"/>
	<stop  offset="0.9958" style="stop-color:#FFFFFF"/>
</linearGradient>
<path style="fill:url(#SVGID_2_);" d="M1030.1,729.4v88.5c0,37.5-30.4,68-68,68H571.5c0,0,14.6-118.9,191.8-118.9
	c99.5,0,77.4-52.1,143.5-100.6C958,628.8,1030.1,666,1030.1,729.4z"/>
<linearGradient id="SVGID_3_" gradientUnits="userSpaceOnUse" x1="232.1" y1="644.4802" x2="232.1" y2="502.7031" gradientTransform="matrix(1 0 0 -1 0 1392)">
	<stop  offset="0" style="stop-color:#FFD8A1"/>
	<stop  offset="0.9958" style="stop-color:#FFFFFF"/>
</linearGradient>
<path style="fill:url(#SVGID_3_);" d="M80.1,883.5h304c0-63.1-33-75.9-69.1-77.2c-31.4-1.2-39.2-60.5-91.8-52.3
	c-31.8,5-33.8,32.1-61.7,38.1C136.9,797.4,80.1,819.5,80.1,883.5z"/>
<linearGradient id="SVGID_4_" gradientUnits="userSpaceOnUse" x1="530.7667" y1="1285.3926" x2="223.8681" y2="1020.7129" gradientTransform="matrix(1 0 0 -1 0 1392)">
	<stop  offset="0.0286" style="stop-color:#2A7CF9"/>
	<stop  offset="0.401" style="stop-color:#418BFB"/>
	<stop  offset="0.5908" style="stop-color:#AAB5FB"/>
	<stop  offset="1" style="stop-color:#D2D4D4"/>
</linearGradient>
<path style="fill:url(#SVGID_4_);" d="M366.6,389.2c19.3-32,46.9-52.7,81.9-84.1s37.8-103.7,44.4-137.8c3.9-20,38.4-59.2,12.6-77.7
	c0,0-31.9-6.1-62.1,29.7c-11.7,5.9-22.8,11.1-39,19.3c-48.2,24.1-33.9,67.3-55,89.9c-21,22.6-188.1,29.8-226.1,80.8
	C41.2,419.5,282,529.7,366.6,389.2z"/>
<rect x="194.8" y="883" style="fill:#2B2B2B;" width="638" height="4.1"/>
<g>
	<path style="fill:#565656;" d="M702.9,413.1l-84.2-10.8c-5.9-0.8-11.2-3.3-15.3-7.1l-2.2-2.1L488.7,290.3
		c-15.7-14.3-16.8-38.7-2.5-54.4s38.7-16.8,54.4-2.5l112.5,102.8l-17.5-9.1l81.2,26.4L702.9,413.1z"/>
	<path style="fill:#FDC068;" d="M716.8,353.5l29,9.4c14.6,4.8,22.6,20.5,17.9,35.1c-4.2,12.9-17,20.7-30,19l-30.7-3.9L716.8,353.5z"
		/>
	<path style="fill:#565656;" d="M567.5,352.4c-2.3-42.3-31.2-38.8-21.5-67.8s-5.3-68.1-37.8-66.4c-25,1.3-26.8,0.4-37.4,1
		c-33.4,1.8-54.6,36.9-43.3,68.4c0,0,2.9,7.1,3.2,16.7c0.3,9.6-22.5,24.9-20.9,54L567.5,352.4z"/>
	<g>
		<g>
			<path style="fill:#2B2B2B;" d="M332.4,874.3l-95.7-76.6c-5-4-6.1-11.1-2.5-16l8.8-11.8l60,49l37.4,47.5
				C344.7,871.9,337.9,878.7,332.4,874.3z"/>
		</g>
	</g>
	<g>
		
			<linearGradient id="SVGID_5_" gradientUnits="userSpaceOnUse" x1="488.5727" y1="512.7299" x2="488.5727" y2="1040.8594" gradientTransform="matrix(1 0 0 -1 0 1392)">
			<stop  offset="0" style="stop-color:#77879D"/>
			<stop  offset="0.4092" style="stop-color:#FDBB6D"/>
			<stop  offset="0.4989" style="stop-color:#FDBB9F"/>
			<stop  offset="0.599" style="stop-color:#D1D2D1"/>
			<stop  offset="1" style="stop-color:#FECEAA"/>
		</linearGradient>
		<path style="fill:url(#SVGID_5_);" d="M409.8,358.2c1.2,22.3,26.3,54.5,65.2,52.7l31.3-2.4c35.5-1.6,62.3-34.7,61-58.7
			L409.8,358.2z"/>
		
			<linearGradient id="SVGID_6_" gradientUnits="userSpaceOnUse" x1="381.4" y1="512.2632" x2="381.4" y2="1044.5399" gradientTransform="matrix(1 0 0 -1 0 1392)">
			<stop  offset="0" style="stop-color:#77879D"/>
			<stop  offset="0.4092" style="stop-color:#FDBB6D"/>
			<stop  offset="0.4989" style="stop-color:#FDBB9F"/>
			<stop  offset="0.599" style="stop-color:#D1D2D1"/>
			<stop  offset="1" style="stop-color:#FECEAA"/>
		</linearGradient>
		<path style="fill:url(#SVGID_6_);" d="M242.9,769.9l57.3,49.9c3.2-3.8,6.1-7.8,9.2-11.7c3-3.9,5.9-7.9,8.9-11.8l4.4-5.9l4.3-6
			l8.6-12c2.9-4,5.7-8,8.5-12.1c2.8-4,5.6-8.1,8.3-12.1c2.7-4.1,5.5-8.1,8.2-12.2l8.1-12.3c21.4-32.8,41.7-66.2,61.3-100l3.7-6.3
			c0.6-1.1,1.3-2.1,1.8-3.2l1.6-3.3c2.2-4.3,4.3-8.7,6.4-13.1l6.4-13.2l2.5-5.3l3.7-7.9c4.2-8.8,8.1-17.7,12.2-26.6
			c2-4.4,3.9-8.9,5.9-13.4s3.9-8.9,5.8-13.4c0.1-0.1,0.1-0.3,0.2-0.4c7.6-17.8,14.7-35.9,21.4-54.1c1.8-4.9,3.6-9.8,5.3-14.8
			c1.5-4.3,3-8.6,4.4-13l4.5-14l2.1-7.1l1-3.5l1-3.6l-20.9-9.4L467,384l-57.2-25.8L373.9,469l-21.7,53.6l-4.4,10.9l-6.5,15.9
			l-5.4,13.4l-1.4,3.3c-0.4,1.1-1,2.2-1.5,3.3l-3,6.6L242.9,769.9z"/>
		
			<linearGradient id="SVGID_7_" gradientUnits="userSpaceOnUse" x1="543.5223" y1="512.5818" x2="543.5223" y2="1045.2229" gradientTransform="matrix(1 0 0 -1 0 1392)">
			<stop  offset="0" style="stop-color:#77879D"/>
			<stop  offset="0.4092" style="stop-color:#FDBB6D"/>
			<stop  offset="0.4989" style="stop-color:#FDBB9F"/>
			<stop  offset="0.599" style="stop-color:#D1D2D1"/>
			<stop  offset="1" style="stop-color:#FECEAA"/>
		</linearGradient>
		<path style="fill:url(#SVGID_7_);" d="M460.7,373.4l25.8,121.8l6.7,31.5l6.2,29.4c0.8,3.7,1.6,7.4,2.3,11.1
			c3.6,16.6,7.3,33.2,9.6,49.9L550.9,862l74.4-2.7c0.3-5.2,0.2-12.5,0.4-17.7s0.3-10.4,0.4-15.6l0.2-7.8c0.1-2.6,0-5.2,0-7.8v-15.6
			V787l-0.1-7.8c-0.1-5.2-0.1-10.4-0.2-15.6l-0.4-15.6l-0.5-15.6c-1.4-41.6-4-83.1-7.3-124.7c-0.9-10.4-1.5-20.8-3.2-31.1l-2.3-15.5
			l-1.1-7.8l-1.2-7.8l-2.5-15.5l-2.7-15.5l-1.4-7.7l-1.4-7.7l-2.9-15.5c-4-20.6-8.5-41.1-13.4-61.6c-5-20.5-15.2-48.3-21.9-68.5
			l-71,7.3l-25.4,9.9L460.7,373.4z"/>
	</g>
	<g>
		<path style="fill:#2B2B2B;" d="M684.1,883.6l-119.5-0.5c-6.3,0-11.8-5-12.6-11.3l-1.8-15.1l75.6,1.1l58.6,14.3
			C691.2,873.8,691,883.6,684.1,883.6z"/>
	</g>
	<g>
		<g>
			<g>
				<path id="SVGID_195_" style="fill:#FDC068;" d="M520.3,194.1H491c-15.2,0-27.5-12.3-27.5-27.4v-44.2c0-24.3,19.6-43.9,43.9-43.9
					l0,0c24.3,0,43.9,19.6,43.9,43.9V163C551.4,180.2,537.5,194.1,520.3,194.1z"/>
			</g>
			<circle style="fill:#2B2B2B;" cx="544" cy="135.2" r="5"/>
		</g>
		<path style="fill:#2B2B2B;" d="M510.5,241.6l23.2-13.1c0,0-6.4-11.8-32.4-10.4L510.5,241.6z"/>
		<path style="fill:#FDC068;" d="M497.3,244.2l-37.6-13.8l3.9-83.5h46.7l4.4,84.5C515.2,240.6,506,247.4,497.3,244.2z"/>
		<g>
			<path style="fill:#2B2B2B;" d="M531.8,150.3c-0.5,0-1-0.3-1.2-0.7c-0.4-0.7-0.2-1.5,0.5-1.9l4-2.3c0.4-0.3,0.6-0.8,0.7-1.3
				c0.1-0.6-0.1-1.1-0.5-1.5l-6.2-7.4c-0.5-0.6-0.4-1.5,0.2-2c0.6-0.5,1.5-0.4,2,0.2l6.2,7.4c1.7,2.1,1.4,5.2-0.7,6.9l-0.2,0.1
				l-4.1,2.4C532.3,150.3,532,150.3,531.8,150.3z M535.9,146.5L535.9,146.5L535.9,146.5z"/>
		</g>
		<g>
			<path style="fill:#2B2B2B;" d="M526.8,166.9c-0.7,0-1.4-0.6-1.4-1.3c0-0.8,0.6-1.4,1.3-1.5l9.5-0.5c0.8,0,1.4,0.6,1.5,1.3
				s-0.6,1.4-1.3,1.5L526.8,166.9L526.8,166.9z"/>
		</g>
		<polygon style="fill:#2B2B2B;" points="512.8,194.1 493.7,194.2 513.8,213 		"/>
		<circle style="fill:#2B2B2B;" cx="515.5" cy="135.4" r="5"/>
	</g>
	<g>
		
			<linearGradient id="SVGID_8_" gradientUnits="userSpaceOnUse" x1="596.8866" y1="1298.0386" x2="236.8938" y2="1101.7776" gradientTransform="matrix(1 0 0 -1 0 1392)">
			<stop  offset="0" style="stop-color:#FFE0C2"/>
			<stop  offset="0.401" style="stop-color:#7AAEFC"/>
			<stop  offset="0.5908" style="stop-color:#B8C1FC"/>
			<stop  offset="1" style="stop-color:#D2D4D4"/>
		</linearGradient>
		<path style="fill:url(#SVGID_8_);" d="M309.3,386.1c35.5-30.4,21.5-45,70.8-68.1s58.3-113,83.4-151.3c14.7-22.4,68-55,55.1-88.3
			c0,0-25.5-20.9-72.9,9.4c-13.9,2.2-26.9,3.8-46.1,6.7c-57.2,8.5-68.6,66.7-100.3,85c-31.8,18.3-97.8-20.6-160.8,24.8
			C2.2,302.5,153.8,519.5,309.3,386.1z"/>
		<g>
			<path style="fill:#2B2B2B;" d="M307.2,187.6h-0.1l-34.8-3.4c-0.8-0.1-1.4-0.8-1.3-1.6s0.8-1.4,1.6-1.3l34.8,3.4
				c0.8,0.1,1.4,0.8,1.3,1.6C308.6,187,308,187.6,307.2,187.6z"/>
		</g>
		<g>
			<path style="fill:#2B2B2B;" d="M451.9,191.6c-0.1,0-0.1,0-0.2,0c-0.8-0.1-1.4-0.8-1.3-1.6l2.2-21.1c0.1-0.8,0.8-1.4,1.6-1.3
				c0.8,0.1,1.4,0.8,1.3,1.6l-2.2,21.1C453.3,191,452.7,191.6,451.9,191.6z"/>
		</g>
	</g>
	<path style="fill:#FDC068;" d="M366.6,158l13.2-19.4c8.7-12.7,26-16,38.7-7.4c11.2,7.6,15.1,22,9.9,34l-7.5,17.4L366.6,158z"/>
	<path style="fill:#565656;" d="M421,182.7l-36.8,85.9l-28.6-56.7l91.9,13.6c21.1,2.9,35.8,22.2,33,43.3
		c-2.9,21.1-22.2,35.8-43.3,33l-91.9-13.6l-3.5-0.5c-19.8-2.7-33.7-20.9-31-40.7c0.8-5.7,2.9-11,5.9-15.5l50-73.5L421,182.7z"/>
	
		<linearGradient id="SVGID_9_" gradientUnits="userSpaceOnUse" x1="-129.0963" y1="1428.5714" x2="-69.8866" y2="1567.0891" gradientTransform="matrix(0.7705 0.6374 0.6374 -0.7705 -364.0108 1330.7426)">
		<stop  offset="0" style="stop-color:#FFE0C2"/>
		<stop  offset="0.401" style="stop-color:#7AAEFC"/>
		<stop  offset="0.5908" style="stop-color:#B8C1FC"/>
		<stop  offset="1" style="stop-color:#D2D4D4"/>
	</linearGradient>
	<path style="fill:url(#SVGID_9_);" d="M522.5,80.4c0,0,6.1,24.4,28.9,42.1C551.4,122.5,553.1,81.8,522.5,80.4z"/>
	<g>
		<g>
			<rect x="733.3" y="224.7" style="fill:#F9D5FF;" width="20" height="263.5"/>
		</g>
		<g>
			<rect x="733.3" y="224.7" style="fill:#2B2B2B;" width="20" height="78.2"/>
		</g>
		<g>
			<polygon style="fill:#F48B94;" points="782.7,86.8 703.9,86.8 648.2,142.5 648.2,221.3 703.9,277 782.7,277 838.5,221.3 
				838.5,142.5 			"/>
			<path style="fill:#F9D5FF;" d="M782.7,284.4h-78.8c-2,0-3.9-0.8-5.2-2.2L643,226.5c-1.4-1.4-2.2-3.3-2.2-5.2v-78.8
				c0-2,0.8-3.9,2.2-5.2l55.7-55.7c1.4-1.4,3.3-2.2,5.2-2.2h78.8c2,0,3.8,0.8,5.2,2.2l55.8,55.7c1.4,1.4,2.2,3.3,2.2,5.2v78.8
				c0,2-0.8,3.9-2.2,5.2l-55.8,55.7C786.5,283.6,784.7,284.4,782.7,284.4z M707,269.6h72.7l51.5-51.4v-72.6l-51.5-51.4H707
				l-51.4,51.4v72.7L707,269.6z"/>
		</g>
		<g>
			<path style="fill:#FFFFFF;" d="M773.2,161.9c0,2.9-0.8,5.9-2.3,8.9s-4.1,6.8-7.7,11.4l-5.8,7.5c-1.5,1.9-2.7,3.5-3.6,4.7
				c-1,1.2-1.7,2.2-2.2,3s-0.9,1.5-1.1,2.1c-0.2,0.6-0.3,1.3-0.3,1.9v3.6c0,0.8-0.3,1.4-1,1.8c-0.7,0.4-1.4,0.6-2.1,0.6h-12.9
				c-0.7,0-1.3-0.3-1.7-0.8c-0.5-0.5-0.7-1.1-0.7-1.8v-3.5c0-1.6,0-3.2,0.1-4.6c0.1-1.4,0.3-2.8,0.7-4.1s0.9-2.6,1.7-3.9
				c0.7-1.3,1.7-2.8,2.9-4.5l6.2-8.1c2.4-3.2,4-5.7,4.8-7.5s1.2-3.7,1.2-5.6v-1.3c0-1.5-0.5-2.6-1.5-3.5s-2.6-1.3-4.9-1.3
				c-3.4,0-6.5,0.1-9.4,0.4c-2.9,0.3-5.9,0.6-9.1,1h-0.4c-1.5,0-2.2-0.9-2.2-2.7v-11.5c0-0.9,0.1-1.7,0.5-2.2
				c0.3-0.5,0.9-0.9,1.9-1.2c2.8-0.9,6-1.5,9.7-2s7.4-0.7,11-0.7c4.5,0,8.5,0.4,12,1.1c3.5,0.7,6.4,1.9,8.9,3.6
				c2.4,1.7,4.3,3.9,5.6,6.6c1.3,2.7,1.9,6.1,1.9,10.2v2.4L773.2,161.9L773.2,161.9z M751.3,234.5c0,0.7-0.3,1.3-0.8,1.7
				c-0.5,0.5-1.1,0.7-1.8,0.7h-15.3c-0.7,0-1.3-0.2-1.8-0.7s-0.8-1.1-0.8-1.7v-16.3c0-0.7,0.3-1.3,0.8-1.8s1.1-0.8,1.8-0.8h15.3
				c0.7,0,1.3,0.3,1.8,0.8s0.8,1.1,0.8,1.8V234.5z"/>
		</g>
	</g>
	<path style="fill:#FDC068;" d="M754.9,367.9c0,0-22.6,6.6-24,12.4c-2.1,9-7.9,34-2.8,36s30.8-9.4,30.8-9.4L754.9,367.9z"/>
	<g>
		<path style="fill:#2B2B2B;" d="M487.2,501.7c-0.2,0-0.4,0-0.5-0.1c-0.8-0.3-1.2-1.2-0.9-1.9l24-64.4c0.3-0.8,1.2-1.2,1.9-0.9
			c0.8,0.3,1.2,1.2,0.9,1.9l-24,64.4C488.4,501.3,487.8,501.7,487.2,501.7z"/>
	</g>
	<g>
		<path style="fill:#2B2B2B;" d="M448,303.6c-0.1,0-0.1,0-0.2,0l-17.6-2.4c-0.8-0.1-1.4-0.9-1.3-1.7s0.9-1.4,1.7-1.3l17.6,2.4
			c0.8,0.1,1.4,0.9,1.3,1.7C449.4,303.1,448.7,303.6,448,303.6z"/>
	</g>
	<g>
		<path style="fill:#2B2B2B;" d="M566.2,362.1c-0.1,0-0.3,0-0.4-0.1c-0.8-0.2-1.3-1.1-1-1.8c5.1-18.1-5.2-33.4-19.3-54.6l-1.3-1.9
			c-0.5-0.7-0.3-1.6,0.4-2.1s1.6-0.3,2.1,0.4l1.3,1.9c14.6,21.8,25.2,37.6,19.7,57C567.5,361.7,566.9,362.1,566.2,362.1z"/>
	</g>
	<g>
		<path style="fill:#2B2B2B;" d="M636.8,334.8c-0.7,0-1.3-0.5-1.5-1.2c-0.2-0.8,0.3-1.6,1.1-1.8l10.5-2.3c0.8-0.2,1.6,0.3,1.8,1.1
			c0.2,0.8-0.3,1.6-1.1,1.8l-10.5,2.3C637,334.8,636.9,334.8,636.8,334.8z"/>
	</g>
</g>
<g>
	<circle style="fill:#BFD9FF;" cx="208.1" cy="483.5" r="4.1"/>
	<circle style="fill:#BFD9FF;" cx="915.8" cy="818.3" r="4.1"/>
	<circle style="fill:#BFD9FF;" cx="919.8" cy="149.9" r="4.1"/>
	<circle style="fill:#BFD9FF;" cx="626.4" cy="266.4" r="4.1"/>
	<circle style="fill:#BFD9FF;" cx="423.3" cy="175.1" r="4.1"/>
	<circle style="fill:#BFD9FF;" cx="740.6" cy="690.5" r="3.8"/>
	<circle style="fill:#BFD9FF;" cx="208.1" cy="731.8" r="3.8"/>
</g>
<g>
	<path style="fill:#F9D5FF;" d="M796.6,591l-2.9-9.6c42.9-12.9,67.7-51,91.8-87.9c24.9-38.2,48.4-74.3,89.5-75.9l0.4,10
		c-35.9,1.4-57,33.8-81.5,71.3C870.1,535.5,843.1,577.1,796.6,591z"/>
</g>
<g>
	<path style="fill:#F9D5FF;" d="M201.4,658.4c-20.5-6.3-36.6-36.2-52.3-65.1c-12.8-23.8-27.4-50.7-39.3-50.7v-10
		c17.9,0,31.9,25.9,48.1,55.9c14,25.9,29.9,55.2,46.4,60.3L201.4,658.4z"/>
</g>
</svg>
