<?xml version="1.0" encoding="iso-8859-1"?>
<!-- Generator: Adobe Illustrator 23.0.2, SVG Export Plug-In . SVG Version: 6.00 Build 0)  -->
<svg version="1.1" id="Layer_1" xmlns="http://www.w3.org/2000/svg" xmlns:xlink="http://www.w3.org/1999/xlink" x="0px" y="0px"
	 viewBox="0 0 1105.6 1080" style="enable-background:new 0 0 1105.6 1080;" xml:space="preserve">
<g style="opacity:0.3;">
	<g>
		<path style="fill:#C4ECFE;" d="M1026.7,80.7V885H78.8V80.7H1026.7 M1029.8,77.6H75.7v810.5h954.1L1029.8,77.6L1029.8,77.6z"/>
	</g>
	<g>
		<g>
			<g>
				<rect x="306.5" y="77.6" style="fill:#C4ECFE;" width="2.9" height="810.5"/>
			</g>
			<g>
				<rect x="427.9" y="77.6" style="fill:#C4ECFE;" width="2.9" height="810.5"/>
			</g>
			<g>
				<rect x="306.5" y="77.6" style="fill:#C4ECFE;" width="2.9" height="810.5"/>
			</g>
			<g>
				<rect x="185.1" y="77.6" style="fill:#C4ECFE;" width="2.9" height="810.5"/>
			</g>
			<g>
				<rect x="549.3" y="77.6" style="fill:#C4ECFE;" width="2.9" height="810.5"/>
			</g>
			<g>
				<rect x="670.7" y="77.6" style="fill:#C4ECFE;" width="2.9" height="810.5"/>
			</g>
			<g>
				<rect x="790.6" y="77.6" style="fill:#C4ECFE;" width="2.9" height="810.5"/>
			</g>
			<g>
				<rect x="910.5" y="77.6" style="fill:#C4ECFE;" width="2.9" height="810.5"/>
			</g>
		</g>
	</g>
</g>
<g>
	<circle style="fill:#BFD9FF;" cx="139.9" cy="453" r="4.1"/>
	<circle style="fill:#BFD9FF;" cx="576.4" cy="727.5" r="4.1"/>
	<circle style="fill:#BFD9FF;" cx="896.4" cy="101.6" r="4.1"/>
	<circle style="fill:#BFD9FF;" cx="728.3" cy="228.8" r="4.1"/>
	<circle style="fill:#BFD9FF;" cx="144" cy="161.3" r="4.1"/>
	<circle style="fill:#BFD9FF;" cx="943.7" cy="477.8" r="3.8"/>
	<circle style="fill:#BFD9FF;" cx="273.9" cy="587.6" r="3.8"/>
</g>
<linearGradient id="SVGID_1_" gradientUnits="userSpaceOnUse" x1="-11172.7256" y1="731.3671" x2="-11172.7256" y2="512.9919" gradientTransform="matrix(1 0 0 -1 11495.376 1392)">
	<stop  offset="0" style="stop-color:#FFE272"/>
	<stop  offset="0.9958" style="stop-color:#FFFFFF"/>
</linearGradient>
<path style="fill:url(#SVGID_1_);" d="M569.6,888.1c-109.2,0-159.1-160.2-287.8-144.6c-38.6,4.7-81.7-74.5-99.3-104.3
	c-29.3-49.6-106.8-29.5-106.8,27.7v221.3h493.9V888.1z"/>
<path style="fill:#2B2B2B;" d="M822.1,838.8H491.8c-24.3,0-41.7-23.5-34.5-46.8l58.5-188.6l32.5-104.9c8.1-26.1,0-54.3-20.4-72.5
	c-14.9-13.4-27.8-29.1-37.9-46.5c-16.7-28.5-26.2-61.8-26.2-97.2c0-105.6,84.8-191.4,190-193.1c107.2-1.7,194.7,83,196.3,190.2
	c0.9,58.4-24.2,111-64.5,147c-20.2,18.1-28.1,46.3-20,72.3l91,293.5C863.7,815.2,846.4,838.8,822.1,838.8z"/>
<g>
	<path style="fill:#FDC068;" d="M337.7,463.5l-9.5,20.9c-6.4,14-22.9,20.1-36.8,13.7c-12.6-5.8-18.9-19.8-15.2-32.8l4.1-14.8"/>
	
		<linearGradient id="SVGID_2_" gradientUnits="userSpaceOnUse" x1="397.0491" y1="950.6522" x2="397.0491" y2="1151.1545" gradientTransform="matrix(1 0 0 -1 0 1392)">
		<stop  offset="0" style="stop-color:#FFE0C2"/>
		<stop  offset="0.401" style="stop-color:#7AAEFC"/>
		<stop  offset="0.5908" style="stop-color:#B8C1FC"/>
		<stop  offset="1" style="stop-color:#D2D4D4"/>
	</linearGradient>
	<path style="fill:url(#SVGID_2_);" d="M280.2,450.6l33.2-118.7c2.2-7.9,7.2-14.2,13.6-18.1l2.4-1.4l125.8-77.3
		c18.1-11.1,41.8-5.5,53,12.6c11.1,18.1,5.5,41.8-12.6,53L369.8,378l16-19.6l-48,105.2"/>
	<g>
		<path style="fill:#C7982A;" d="M767.3,325.6c-5.1-24.3-29-39.9-53.3-34.8l-48.8,10.3c-1.8,0.1-3.5,0.4-5.3,0.7
			c-2,0.4-3.9,0.9-5.7,1.6L364,364.5l-0.3-1.5c-15.4-75.8-89.7-125-165.5-109.5c-36.7,7.5-68.4,28.8-89,60.1
			c-20.7,31.3-28,68.7-20.5,105.5l18.7,91.7c7.5,36.7,28.8,68.4,60.1,89c23.2,15.4,49.9,23.3,77.2,23.3c9.4,0,18.9-0.9,28.3-2.9l0,0
			c36.7-7.5,68.4-28.8,89-60.1c20.7-31.3,28-68.7,20.5-105.5l-0.4-2.1l252-53.1l7.1,34.8c4.3,21.3,23.1,36,44,36c3,0,6-0.3,9-0.9
			c24.4-5,40.1-28.7,35.1-53.1l-7.2-35.4l10.6-2.2C756.9,373.7,772.4,349.9,767.3,325.6z M286.8,510.5
			c-7.4,11.2-18.8,18.9-31.9,21.6l0,0c-13.2,2.7-26.6,0.1-37.8-7.3c-11.2-7.4-18.9-18.8-21.6-31.9l-18.7-91.7
			c-2.7-13.2-0.1-26.6,7.3-37.8c7.4-11.2,18.8-18.9,31.9-21.6c3.4-0.7,6.7-1,10.1-1c23.4,0,44.5,16.5,49.3,40.3l18.7,91.7
			C296.8,485.9,294.2,499.3,286.8,510.5z"/>
	</g>
	<g>
		<path style="fill:#FDE545;" d="M778.2,322.1c-5.1-24.3-29-39.9-53.3-34.8l-350,73.7l-0.3-1.5c-15.4-75.8-89.7-125-165.5-109.5
			c-36.7,7.5-68.4,28.8-89,60.1c-20.7,31.3-28,68.7-20.5,105.5l18.7,91.7c7.5,36.7,28.8,68.4,60.1,89c23.2,15.4,49.9,23.3,77.2,23.3
			c9.4,0,18.9-0.9,28.3-2.9l0,0c36.7-7.5,68.4-28.8,89-60.1c20.7-31.3,28-68.7,20.5-105.5L393,449l252-53.1l7.1,34.8
			c4.3,21.3,23.1,36,44,36c3,0,6-0.3,9-0.9c24.4-5,40.1-28.7,35.1-53.1l-7.2-35.4l10.6-2.2C767.8,370.3,783.3,346.5,778.2,322.1z
			 M297.7,507.1c-7.4,11.2-18.8,18.9-31.9,21.6l0,0c-13.2,2.7-26.6,0.1-37.8-7.3c-11.2-7.4-18.9-18.8-21.6-31.9l-18.7-91.7
			c-2.7-13.2-0.1-26.6,7.3-37.8c7.4-11.2,18.8-18.9,31.9-21.6c3.4-0.7,6.7-1,10.1-1c23.4,0,44.5,16.5,49.3,40.3l18.7,91.7
			C307.7,482.5,305.1,495.9,297.7,507.1z"/>
	</g>
	<polygon style="fill:#2B2B2B;" points="374.5,359.6 409.7,354.8 393.7,450.6 	"/>
	<g>
		<g>
			<path style="fill:#FDC068;" d="M595.9,192.8l2.4,8.6c0.5,1.7-0.6,3.5-2.3,3.9l-4.3,0.5"/>
			<path style="fill:#2B2B2B;" d="M591.7,207.1c-0.7,0-1.2-0.5-1.3-1.2s0.4-1.4,1.1-1.4l4.2-0.5c0.5-0.1,0.9-0.4,1.1-0.9
				c0.3-0.4,0.3-0.9,0.2-1.4l-2.4-8.6c-0.2-0.7,0.2-1.4,0.9-1.6c0.7-0.2,1.4,0.2,1.6,0.9l2.4,8.6c0.3,1.1,0.2,2.4-0.4,3.4
				c-0.6,1.1-1.6,1.8-2.8,2.1h-0.1l-4.3,0.5C591.8,207.1,591.7,207.1,591.7,207.1z M596,205.3L596,205.3L596,205.3z"/>
		</g>
		<g>
			<g>
				<path id="SVGID_347_" style="fill:#FDC068;" d="M550.8,228.1l-24.5-11.2c-12.7-5.8-18.3-20.8-12.4-33.5l16.9-37
					c9.3-20.3,33.3-29.2,53.6-19.9l0,0c20.3,9.3,29.2,33.3,19.9,53.6L588.8,214C582.2,228.3,565.2,234.7,550.8,228.1z"/>
			</g>
			<g>
				<path style="fill:#2B2B2B;" d="M601.3,186.6l-3.7,8.2c-1.1-0.8-1.9-2.2-1.9-3.7c0-2.5,2.1-4.6,4.6-4.6
					C600.7,186.5,601,186.5,601.3,186.6z"/>
			</g>
		</g>
		<path style="fill:#FDC068;" d="M498.1,247l-6.8-6.8c-3-3-3.8-7.7-1.8-11.5l32-62l39.1,17.9l-21.3,53.7
			C532.6,255.2,510.9,259.7,498.1,247z"/>
		<polygon style="fill:#2B2B2B;" points="544.5,225.2 531.7,219.3 539.5,237.9 		"/>
	</g>
	
		<linearGradient id="SVGID_3_" gradientUnits="userSpaceOnUse" x1="484.1477" y1="917" x2="484.1477" y2="1149.3101" gradientTransform="matrix(1 0 0 -1 0 1392)">
		<stop  offset="0" style="stop-color:#FFE0C2"/>
		<stop  offset="0.401" style="stop-color:#7AAEFC"/>
		<stop  offset="0.5908" style="stop-color:#B8C1FC"/>
		<stop  offset="1" style="stop-color:#D2D4D4"/>
	</linearGradient>
	<path style="fill:url(#SVGID_3_);" d="M550.5,370c8.9-37.9-17.5-42.4-1.5-65.4c16-23.1,12.9-61.6-16.2-68.4
		c-22.5-5.3-23.8-6.6-33.3-8.8c-29.9-7.1-57.7,18.5-55.9,49.2c0,0,0.8,7-1.5,15.5s-26.3,16.2-32.4,42.3L550.5,370z"/>
	
		<linearGradient id="SVGID_4_" gradientUnits="userSpaceOnUse" x1="382.2" y1="1055.6" x2="382.2" y2="516.9136" gradientTransform="matrix(1 0 0 -1 0 1392)">
		<stop  offset="0" style="stop-color:#9774AC"/>
		<stop  offset="0.401" style="stop-color:#47A6D3"/>
		<stop  offset="0.5011" style="stop-color:#A7A7AE"/>
		<stop  offset="0.5908" style="stop-color:#E89AC0"/>
		<stop  offset="1" style="stop-color:#BFE7D1"/>
	</linearGradient>
	<path style="fill:url(#SVGID_4_);" d="M515.4,371.2l-0.2,3.8l-0.3,3.7l-0.6,7.5l-1.5,14.9c-0.5,5-1.1,9.9-1.7,14.9l-1.9,14.8
		c-2.7,19.7-5.9,39.4-9.4,59s-7.4,39.1-11.5,58.6c-4.2,19.5-8.6,38.9-13.4,58.3l-1.9,7.8c-1.4,5.6-4.1,10.8-7.6,14.9
		c-13.9,16.4-27.9,32.6-42.1,48.7l-10.7,12L401.7,702c-7.2,8-14.6,15.8-21.9,23.7c-14.8,15.7-29.7,31.3-45.1,46.5
		c-15.5,15.2-34,36.2-50.5,50.6L249,748.4l127.8-182.9l-9.6,23l42.6-252.1L515.4,371.2z"/>
	
		<linearGradient id="SVGID_5_" gradientUnits="userSpaceOnUse" x1="479.9569" y1="1039" x2="479.9569" y2="524.9377" gradientTransform="matrix(1 0 0 -1 0 1392)">
		<stop  offset="0" style="stop-color:#9774AC"/>
		<stop  offset="0.401" style="stop-color:#47A6D3"/>
		<stop  offset="0.5011" style="stop-color:#A7A7AE"/>
		<stop  offset="0.5908" style="stop-color:#E89AC0"/>
		<stop  offset="1" style="stop-color:#BFE7D1"/>
	</linearGradient>
	<path style="fill:url(#SVGID_5_);" d="M409.7,334.4c-4.7,20,9.2,54.9,44,63.4l28.3,6c31.7,7.8,64-14.5,69.1-36.1L409.7,334.4z"/>
	<g>
		<g>
			<path style="fill:#2B2B2B;" d="M291.2,882l-56.8-105c-3-5.5-1-12.4,4.4-15.5l10.2-13.1l38.2,72.4l14.8,57
				C303.6,884.5,294.4,888.1,291.2,882z"/>
		</g>
	</g>
	
		<linearGradient id="SVGID_6_" gradientUnits="userSpaceOnUse" x1="558.8" y1="1038.4174" x2="558.8" y2="566.8115" gradientTransform="matrix(1 0 0 -1 0 1392)">
		<stop  offset="0" style="stop-color:#9774AC"/>
		<stop  offset="0.401" style="stop-color:#47A6D3"/>
		<stop  offset="0.5011" style="stop-color:#A7A7AE"/>
		<stop  offset="0.5908" style="stop-color:#E89AC0"/>
		<stop  offset="1" style="stop-color:#BFE7D1"/>
	</linearGradient>
	<path style="fill:url(#SVGID_6_);" d="M679.8,838.8h-79.6l-71.7-199.6l-5.2-15.2l-2.6-7.6l-2.9-7.5l-2.1-5.5l-9.3-24.4l-22.9-59.9
		l-45.7-119.8l52.1-19.9l50.7-19.3c9.9,19.3,18.5,39.1,26.8,59c8.2,19.9,15.9,40,23.3,60.3c3.6,10.2,7.3,20.3,10.7,30.5
		c1.7,5.1,3.5,10.2,5.2,15.3l5,15.4c1.7,5.1,3.3,10.3,4.9,15.4l4.8,15.4l2.3,7.8l2.1,7.8l4.1,15.7c10.8,41.8,20.9,84,29.8,126.4
		c4.5,21.2,8.8,42.5,12.6,63.9c1.9,10.7,3.9,21.4,5.5,32.2C678.4,829.7,679.1,834.2,679.8,838.8z"/>
	<path style="fill:#FDC068;" d="M668.9,461.1l18.4,14.7c12,9.6,13.9,27.1,4.4,39.1c-8.7,10.9-23.9,13.5-35.6,6.7l-14.7-8.5"/>
	<path style="fill:#2B2B2B;" d="M492.1,353.8c0,0-1.4,100.9,19.5,117.2s90.9,42.2,90.9,42.2l-49.7-127.5l-32-29.1L492.1,353.8z"/>
	
		<linearGradient id="SVGID_7_" gradientUnits="userSpaceOnUse" x1="580.5354" y1="926.937" x2="580.5354" y2="1148.9208" gradientTransform="matrix(1 0 0 -1 0 1392)">
		<stop  offset="0" style="stop-color:#FFE0C2"/>
		<stop  offset="0.401" style="stop-color:#7AAEFC"/>
		<stop  offset="0.5908" style="stop-color:#B8C1FC"/>
		<stop  offset="1" style="stop-color:#D2D4D4"/>
	</linearGradient>
	<path style="fill:url(#SVGID_7_);" d="M641.4,513.2l-108.8-62.8c-8.5-4.9-14-13.1-15.7-22.1l-0.5-2.8l-23.6-128.6
		c-3.8-20.9,10-41,30.9-44.8c20.9-3.8,41,10,44.8,30.9l23.6,128.6l-16.2-24.8l93,74.4"/>
	<path style="fill:#B37F56;" d="M607.9,165.6l-6,0.5c-9.2,0.8-16.8,7.5-18.7,16.6l-3.7,17.1l-13.9-2.1l-27.2,14.4
		c-6.3,3.3-13.7,3.8-20.3,1.4l-17.5-6.4l31-63.8c9.5-19.5,32.7-28.1,52.6-19.4l9.6,4.2C608.3,134.5,614.6,151.4,607.9,165.6
		L607.9,165.6z"/>
	<path style="fill:#B37F56;" d="M582.4,159.7l28.1,8.3c7.2,2.1,14.8-1.1,18.4-7.7l3.2-6c4.5-8.3,0.8-18.6-7.9-22.2l0,0
		c-3.3-1.4-6.9-1.6-10.4-0.6l-10.9,3.1L582.4,159.7z"/>
	<path style="fill:#FDC068;" d="M567.6,202.9L567.6,202.9c-2.8-0.7-4.6-3.6-3.9-6.4l3.8-15.4c0.7-2.8,3.6-4.6,6.4-3.9l0,0
		c2.8,0.7,4.6,3.6,3.9,6.4L574,199C573.4,201.8,570.5,203.6,567.6,202.9z"/>
	<g>
		<path style="fill:#2B2B2B;" d="M503.7,357.8c-0.6,0-1.2-0.4-1.3-1.1l-7.3-39.5c-0.1-0.7,0.3-1.4,1-1.5s1.4,0.3,1.5,1l7.3,39.5
			c0.1,0.7-0.3,1.4-1,1.5C503.9,357.8,503.8,357.8,503.7,357.8z"/>
	</g>
	<g>
		<path style="fill:#2B2B2B;" d="M589.5,399c-0.3,0-0.5-0.1-0.8-0.3l-16.3-12c-0.6-0.4-0.7-1.2-0.3-1.8c0.4-0.6,1.2-0.7,1.8-0.3
			l16.3,12c0.6,0.4,0.7,1.2,0.3,1.8C590.3,398.8,589.9,399,589.5,399z"/>
	</g>
	<g>
		<path style="fill:#2B2B2B;" d="M409.7,335.7c-0.2,0-0.4,0-0.5-0.1c-0.7-0.3-1-1.1-0.7-1.7L426,294c0.3-0.7,1.1-1,1.7-0.7
			c0.7,0.3,1,1.1,0.7,1.7l-17.5,39.9C410.7,335.4,410.2,335.7,409.7,335.7z"/>
	</g>
	<polygon style="fill:#FFFFFF;" points="483.9,226.5 496.4,210.5 539.3,238.4 	"/>
	<g>
		<path style="fill:#2B2B2B;" d="M490.6,538.7c-0.5,0-1-0.3-1.2-0.8L449.7,434c-0.3-0.7,0.1-1.4,0.8-1.7c0.7-0.3,1.4,0.1,1.7,0.8
			L491.9,537c0.3,0.7-0.1,1.4-0.8,1.7C490.9,538.7,490.8,538.7,490.6,538.7z"/>
	</g>
	<g>
		<path style="fill:#2B2B2B;" d="M369.2,600.7c-0.7,0-1.3-0.6-1.3-1.3v-23.1c0-0.7,0.6-1.3,1.3-1.3s1.3,0.6,1.3,1.3v23.1
			C370.5,600.1,369.9,600.7,369.2,600.7z"/>
	</g>
	<g>
		<path style="fill:#2B2B2B;" d="M644.8,397.5c-0.6,0-1.2-0.4-1.3-1.1s0.3-1.4,1-1.5l20-3.7c0.7-0.1,1.4,0.3,1.5,1s-0.3,1.4-1,1.5
			l-20,3.7C645,397.5,644.9,397.5,644.8,397.5z"/>
	</g>
	<polygon style="opacity:0.4;fill:#2B2B2B;enable-background:new    ;" points="600.3,838.8 580.5,783.7 669.5,783.7 679.8,838.8 	
		"/>
</g>
<rect x="226.9" y="883.9" style="fill:#2B2B2B;" width="403.3" height="4.1"/>
<linearGradient id="SVGID_8_" gradientUnits="userSpaceOnUse" x1="899" y1="614.7171" x2="899" y2="508.3501" gradientTransform="matrix(1 0 0 -1 0 1392)">
	<stop  offset="0" style="stop-color:#C0DDFC"/>
	<stop  offset="0.9958" style="stop-color:#FFFFFF"/>
</linearGradient>
<path style="fill:url(#SVGID_8_);" d="M768.1,888.1c86.8,0,117.8-111.9,163.7-99.2c26.7,7.4,44.3-11.8,60.9-29.1
	c13.5-14,37.2-4.5,37.2,14.9V888L768.1,888.1L768.1,888.1z"/>
<g>
	<path style="fill:#F9D5FF;" d="M917,422.2l-10-1.2c4.9-40.2,36.8-59.3,64.9-76.2c26.5-15.9,49.4-29.7,49.4-57.2h10
		c0,33.2-27.6,49.8-54.2,65.8C949.6,369.8,921.3,386.9,917,422.2z"/>
</g>
<g>
	<path style="fill:#F9D5FF;" d="M432.2,185.2h-10c0-22.5-28.4-28.7-58.4-35.3c-29.9-6.5-60.8-13.3-60.8-39.4h10
		c0,16.8,21,22.7,53,29.7C397,146.9,432.2,154.6,432.2,185.2z"/>
</g>
</svg>
