<?xml version="1.0" encoding="iso-8859-1"?>
<!-- Generator: Adobe Illustrator 23.0.2, SVG Export Plug-In . SVG Version: 6.00 Build 0)  -->
<svg version="1.1" id="Layer_1" xmlns="http://www.w3.org/2000/svg" xmlns:xlink="http://www.w3.org/1999/xlink" x="0px" y="0px"
	 viewBox="0 0 1105.6 1080" style="enable-background:new 0 0 1105.6 1080;" xml:space="preserve">
<g style="opacity:0.3;">
	<g>
		<path style="fill:#C4ECFE;" d="M1026.7,80.7V885H78.8V80.7H1026.7 M1029.8,77.6H75.7v810.5h954.1L1029.8,77.6L1029.8,77.6z"/>
	</g>
	<g>
		<g>
			<rect x="75.7" y="652.2" style="fill:#C4ECFE;" width="954.1" height="2.9"/>
		</g>
		<g>
			<rect x="75.7" y="536.1" style="fill:#C4ECFE;" width="954.1" height="2.9"/>
		</g>
		<g>
			<rect x="75.7" y="652.2" style="fill:#C4ECFE;" width="954.1" height="2.9"/>
		</g>
		<g>
			<rect x="75.7" y="768.2" style="fill:#C4ECFE;" width="954.1" height="2.9"/>
		</g>
		<g>
			<rect x="75.7" y="420.1" style="fill:#C4ECFE;" width="954.1" height="2.9"/>
		</g>
		<g>
			<rect x="75.7" y="304" style="fill:#C4ECFE;" width="954.1" height="2.9"/>
		</g>
		<g>
			<rect x="75.7" y="188" style="fill:#C4ECFE;" width="954.1" height="2.9"/>
		</g>
	</g>
</g>
<linearGradient id="SVGID_1_" gradientUnits="userSpaceOnUse" x1="215.65" y1="673.7291" x2="215.65" y2="510.6983" gradientTransform="matrix(1 0 0 -1 0 1392)">
	<stop  offset="0" style="stop-color:#FFD8A1"/>
	<stop  offset="0.9958" style="stop-color:#FFFFFF"/>
</linearGradient>
<path style="fill:url(#SVGID_1_);" d="M355.5,888.1c-79.6,0-77.1-120.8-146.4-136.8c-27.7-6.4-42.7-26.8-55.5-49.1
	c-21.3-37-77.8-22-77.8,20.7v165.2L355.5,888.1L355.5,888.1z"/>
<g>
	<circle style="fill:#BFD9FF;" cx="123.8" cy="376.6" r="4.1"/>
	<circle style="fill:#BFD9FF;" cx="962.8" cy="589.8" r="4.1"/>
	<circle style="fill:#BFD9FF;" cx="919.8" cy="149.9" r="4.1"/>
	<circle style="fill:#BFD9FF;" cx="784.5" cy="356.2" r="4.1"/>
	<circle style="fill:#BFD9FF;" cx="423.3" cy="175.1" r="4.1"/>
	<circle style="fill:#BFD9FF;" cx="740.6" cy="690.5" r="3.8"/>
	
		<ellipse transform="matrix(0.9565 -0.2918 0.2918 0.9565 -165.181 62.7785)" style="fill:#BFD9FF;" cx="127.895" cy="585.213" rx="3.8" ry="3.8"/>
</g>
<g>
	<path style="fill:#FDC068;" d="M337,680.2l-103.2,174l-70.1-41.6c1.7-5.6,3.7-11.2,5.5-16.7l5.9-16.5c3.9-11,8.1-21.9,12.3-32.8
		c8.4-21.7,17.3-43.1,26.4-64.5c4.6-10.6,9.2-21.3,13.9-31.8l7.1-15.8l7.2-15.7c1.5-3.3,3.1-6.7,4.6-10"/>
	<g>
		<path style="fill:#2B2B2B;" d="M100.3,810.7l112.4,54c5.9,2.8,12.9,0.4,15.9-5.4l7.2-14.1l-71.4-33.4l-60.2-12.6
			C97.2,797.8,93.8,807.5,100.3,810.7z"/>
	</g>
	
		<linearGradient id="SVGID_2_" gradientUnits="userSpaceOnUse" x1="409.4" y1="388.4171" x2="409.4" y2="669.1598" gradientTransform="matrix(1 0 0 -1 0 1080)">
		<stop  offset="0" style="stop-color:#FDBB6D"/>
		<stop  offset="0.4092" style="stop-color:#D8727E"/>
		<stop  offset="0.4989" style="stop-color:#C498A7"/>
		<stop  offset="0.599" style="stop-color:#92B7B7"/>
		<stop  offset="1" style="stop-color:#F3ECD8"/>
	</linearGradient>
	<path style="fill:url(#SVGID_2_);" d="M572.2,548.7l-45.7-110.9l-3.7,1l-3.7,1.1l-7.4,2.2l-7.3,2.4l-7.3,2.4
		c-4.9,1.6-9.7,3.3-14.5,5l-14.4,5.3c-19.1,7.1-38.1,14.8-56.9,22.8s-37.4,16.4-56,25c-18.5,8.7-36.9,17.6-55.2,26.8l-8.2,4.1
		c-8.5,4.2-15.7,11.2-20.2,20.4c-8.5,17.4-16.9,34.8-25.1,52.4l90.2,71.6l27.1-45.7L572.2,548.7z"/>
</g>
<polygon style="fill:#2B2B2B;" points="430.1,553.4 465.3,486.5 572.3,552.1 430.1,581 "/>
<g>
	<g>
		<g>
			<rect x="496.2" y="556.8" style="fill:#F9D5FF;" width="243" height="192.2"/>
			<path style="fill:#F9D5FF;" d="M744.2,754h-253V551.8h253V754z M501.2,744h233V561.8h-233V744z"/>
		</g>
		<polygon style="fill:#2B2B2B;" points="685.9,551.2 744.3,667.1 744.3,632.7 702.5,551.2 		"/>
		<g>
			<rect x="374.8" y="556.8" style="fill:#FFFFFF;" width="243" height="192.2"/>
			<path style="fill:#F9D5FF;" d="M623.4,754.6H369.2V551.2h254.2V754.6z M380.4,743.4h231.8v-181H380.4V743.4z"/>
		</g>
	</g>
	<g>
		<g>
			<rect x="208" y="749" style="fill:#FFFFFF;" width="166.7" height="133.2"/>
			<path style="fill:#F9D5FF;" d="M379.7,887.2H203V744h176.7V887.2z M213,877.2h156.7V754H213V877.2z"/>
		</g>
	</g>
	<g>
		<g>
			<rect x="496.2" y="690" style="fill:#FFFFFF;" width="243" height="192.2"/>
			<path style="fill:#F9D5FF;" d="M744.2,887.2h-253V685h253V887.2z M501.2,877.2h233V695h-233V877.2z"/>
		</g>
		<g>
			<rect x="374.8" y="556.8" style="fill:#FFFFFF;" width="243" height="325.4"/>
			<path style="fill:#F9D5FF;" d="M622.8,887.2h-253V551.8h253V887.2z M379.8,877.2h233V561.8h-233V877.2z"/>
		</g>
		<path style="fill:#2B2B2B;" d="M480.5,551.2L394,729.4c-4.6,9.4-14.2,15.4-24.7,15.4l0,0V614.3l64.3-63.1H480.5z"/>
	</g>
	<g>
		<g>
			<rect x="688.4" y="690" style="fill:#F9D5FF;" width="192.2" height="192.2"/>
			<path style="fill:#F9D5FF;" d="M885.6,887.2H683.4V685h202.2L885.6,887.2L885.6,887.2z M693.4,877.2h182.2V695H693.4V877.2z"/>
		</g>
		<g>
			<rect x="617.7" y="690" style="fill:#FFFFFF;" width="166.7" height="192.2"/>
			<path style="fill:#F9D5FF;" d="M789.4,887.2H612.7V685h176.7V887.2z M622.7,877.2h156.7V695H622.7V877.2z"/>
		</g>
	</g>
	<g style="enable-background:new    ;">
		<path style="fill:#F9D5FF;" d="M495.4,749h-8.1v-51.8c-2,1.9-4.5,3.7-7.7,5.6c-3.2,1.9-6,3.3-8.6,4.2v-7.9
			c4.5-2.1,8.5-4.7,11.9-7.8c3.4-3,5.8-6,7.2-8.9h5.2V749H495.4z"/>
	</g>
	<g style="enable-background:new    ;">
		<path style="fill:#F9D5FF;" d="M711.1,811.7v7.8h-43.8c-0.1-2,0.3-3.8,0.9-5.6c1.1-3,2.9-5.9,5.4-8.8s6-6.2,10.6-10
			c7.2-5.9,12.1-10.6,14.6-14s3.8-6.7,3.8-9.8c0-3.2-1.2-5.9-3.5-8.2c-2.3-2.2-5.3-3.3-9-3.3c-3.9,0-7,1.2-9.4,3.5s-3.5,5.6-3.6,9.8
			l-8.4-0.9c0.6-6.2,2.7-11,6.5-14.3c3.7-3.3,8.7-4.9,15-4.9c6.4,0,11.4,1.8,15.1,5.3c3.7,3.5,5.6,7.9,5.6,13.1
			c0,2.7-0.5,5.3-1.6,7.8c-1.1,2.6-2.9,5.3-5.4,8.1s-6.7,6.7-12.5,11.7c-4.9,4.1-8,6.9-9.4,8.3c-1.4,1.5-2.5,2.9-3.4,4.4
			L711.1,811.7L711.1,811.7z"/>
	</g>
	<g style="enable-background:new    ;">
		<path style="fill:#F9D5FF;" d="M263.9,826.4l8.1-1.1c0.9,4.6,2.5,7.9,4.8,10c2.2,2,5,3,8.2,3c3.8,0,7.1-1.3,9.7-4
			c2.6-2.6,4-5.9,4-9.8c0-3.7-1.2-6.8-3.7-9.2s-5.5-3.6-9.3-3.6c-1.5,0-3.4,0.3-5.7,0.9l0.9-7.1c0.5,0.1,1,0.1,1.3,0.1
			c3.5,0,6.6-0.9,9.3-2.7c2.8-1.8,4.2-4.6,4.2-8.4c0-3-1-5.5-3-7.4c-2-2-4.6-2.9-7.8-2.9c-3.2,0-5.8,1-7.9,3s-3.5,5-4.1,8.9
			l-8.1-1.4c1-5.5,3.3-9.7,6.8-12.7s7.9-4.5,13.1-4.5c3.6,0,6.9,0.8,10,2.3c3,1.6,5.4,3.7,7,6.3c1.6,2.7,2.4,5.5,2.4,8.5
			c0,2.9-0.8,5.5-2.3,7.8s-3.8,4.2-6.8,5.6c3.9,0.9,7,2.8,9.1,5.6s3.3,6.4,3.3,10.7c0,5.8-2.1,10.7-6.3,14.7c-4.2,4-9.5,6-16,6
			c-5.8,0-10.6-1.7-14.5-5.2C266.6,836.4,264.4,831.9,263.9,826.4z"/>
	</g>
</g>
<g>
	<rect x="123.8" y="883" style="fill:#2B2B2B;" width="84.2" height="4.1"/>
	<g>
		<path style="fill:#BE6361;" d="M508.3,296.6l84.9,31.7c19.9,7.4,30,29.6,22.6,49.5s-29.6,30-49.5,22.6l-75.7-28.3L508.3,296.6z"/>
		<path style="fill:#FDC068;" d="M490.6,372.2l-105.7-39.4l-2.4-0.9c-6.3-2.3-11.3-6.5-14.7-11.7l-79.5-121.1
			c-8.4-12.8-4.9-30.1,8-38.5c11.7-7.7,27-5.4,36,4.7l96.6,108l-17.1-12.6l96.5,36L490.6,372.2z"/>
		<path style="fill:#BE6361;" d="M487.6,473c7-50.6,41.4-43.6,32.7-79.4s13.2-81.4,52.1-76.1c30,4.1,32.2,3.2,44.8,4.9
			c40,5.5,61.9,49.9,45.2,86.6c0,0-4.2,8.2-5.6,19.7c-1.3,11.5,24.5,32.2,19.8,67L487.6,473z"/>
		<path style="fill:#2B2B2B;" d="M518.7,383.9l22.8,4.4l-13.2,31.1l-8.8-4.5C524.5,401.3,518.9,394.9,518.7,383.9z"/>
		<g>
			<path style="fill:#BE6361;" d="M648.9,466.1l-42-56.7c-12.7-17.1-9.1-41.2,8-53.9c17.1-12.7,41.2-9.1,53.9,8l40.3,54.3
				L648.9,466.1z"/>
			<polygon style="fill:#2B2B2B;" points="579.8,413 647.1,339.7 572.3,391.7 			"/>
			<path style="fill:#FDE545;" d="M554.4,445.8L554.4,445.8c-16.6,0-30-13.4-30-30l0,0c0-16.6,13.4-30,30-30l0,0
				c16.6,0,30,13.4,30,30l0,0C584.4,432.4,571,445.8,554.4,445.8z"/>
			<g>
				<path style="fill:#6AC69F;" d="M542.6,282.3L542.6,282.3c-4.8,3.3-6.1,9.9-2.7,14.7l10,14.5c3.3,4.8,9.9,6.1,14.7,2.7l0,0
					c4.8-3.3,6.1-9.9,2.7-14.7l-10-14.5C554,280.2,547.4,279,542.6,282.3z"/>
				<path style="fill:#6AC69F;" d="M513.8,314.1L513.8,314.1c1.4,5.7,7.1,9.2,12.8,7.8l17.1-4.2c5.7-1.4,9.2-7.1,7.8-12.8l0,0
					c-1.4-5.7-7.1-9.2-12.8-7.8l-17.1,4.2C515.9,302.7,512.4,308.4,513.8,314.1z"/>
				<path style="fill:#6AC69F;" d="M531,319L531,319c2.4,5.3,8.7,7.7,14,5.4l16.1-7.2c5.3-2.4,7.7-8.7,5.4-14l0,0
					c-2.4-5.3-8.7-7.7-14-5.4l-16.1,7.2C531,307.4,528.6,313.7,531,319z"/>
				<path style="fill:#6AC69F;" d="M525.8,367.2L525.8,367.2c5.8,0.3,10.8-4.3,11.1-10.1l0.8-17.6c0.3-5.8-4.3-10.8-10.1-11.1l0,0
					c-5.8-0.3-10.8,4.3-11.1,10.1l-0.8,17.6C515.4,362,519.9,367,525.8,367.2z"/>
				<path style="fill:#6AC69F;" d="M501.7,339.5L501.7,339.5c2.4,5.3,8.7,7.7,14,5.4l16.1-7.2c5.3-2.4,7.7-8.7,5.4-14l0,0
					c-2.4-5.3-8.7-7.7-14-5.4l-16.1,7.2C501.7,327.9,499.3,334.2,501.7,339.5z"/>
				<path style="fill:#6AC69F;" d="M523.9,391L523.9,391c5.7-1.1,9.5-6.7,8.3-12.5l-3.4-17.3c-1.1-5.7-6.7-9.5-12.5-8.3l0,0
					c-5.7,1.1-9.5,6.7-8.3,12.5l3.4,17.3C512.5,388.4,518.1,392.1,523.9,391z"/>
				<path style="fill:#6AC69F;" d="M492.9,365.9L492.9,365.9c3.2,4.9,9.8,6.2,14.7,3l14.7-9.7c4.9-3.2,6.2-9.8,3-14.7l0,0
					c-3.2-4.9-9.8-6.2-14.7-3l-14.7,9.7C491,354.5,489.7,361,492.9,365.9z"/>
				<path style="fill:#6AC69F;" d="M491.4,400.9L491.4,400.9c4.6,3.6,11.3,2.8,14.9-1.8l10.9-13.8c3.6-4.6,2.8-11.3-1.8-14.9l0,0
					c-4.6-3.6-11.3-2.8-14.9,1.8L489.6,386C486,390.6,486.8,397.3,491.4,400.9z"/>
				<path style="fill:#6AC69F;" d="M514.7,426L514.7,426c5.8-0.3,10.3-5.3,10-11.2l-1-17.6c-0.3-5.8-5.3-10.3-11.2-10l0,0
					c-5.8,0.3-10.3,5.3-10,11.2l1,17.6C503.8,421.9,508.8,426.4,514.7,426z"/>
				<path style="fill:#6AC69F;" d="M540.6,352L540.6,352c5.8,1,11.3-2.8,12.3-8.5l3.2-17.3c1-5.8-2.8-11.3-8.5-12.3l0,0
					c-5.8-1-11.3,2.8-12.3,8.5l-3.2,17.3C531,345.5,534.9,351,540.6,352z"/>
			</g>
			<path style="fill:#FDB145;" d="M554.4,432.6L554.4,432.6c-9.3,0-16.8-7.5-16.8-16.8l0,0c0-9.3,7.5-16.8,16.8-16.8l0,0
				c9.3,0,16.8,7.5,16.8,16.8l0,0C571.2,425,563.7,432.6,554.4,432.6z"/>
			<g>
				<path style="fill:#2B2B2B;" d="M534.4,328.1c-0.1,0-0.3,0-0.4-0.1c-0.7-0.2-1-1-0.8-1.7l2.7-7.4l-11.1,2.9
					c-0.7,0.2-1.4-0.2-1.6-0.9c-0.2-0.7,0.2-1.4,0.9-1.6l13.5-3.5c0.5-0.1,1,0,1.3,0.4s0.4,0.9,0.3,1.3l-3.5,9.7
					C535.4,327.8,534.9,328.1,534.4,328.1z"/>
			</g>
			<g>
				<path style="fill:#2B2B2B;" d="M503.4,347.6c-0.4,0-0.8-0.2-1.1-0.6c-0.4-0.6-0.2-1.4,0.4-1.8l10.2-6.6c0.6-0.4,1.4-0.2,1.8,0.4
					c0.4,0.6,0.2,1.4-0.4,1.8l-10.2,6.6C503.9,347.5,503.6,347.6,503.4,347.6z"/>
			</g>
			<g>
				<path style="fill:#2B2B2B;" d="M515.7,369.9c-0.7,0-1.3-0.6-1.3-1.3v-12.4c0-0.7,0.6-1.3,1.3-1.3s1.3,0.6,1.3,1.3v12.4
					C517,369.3,516.4,369.9,515.7,369.9z"/>
			</g>
			<g>
				<path style="fill:#2B2B2B;" d="M507.7,398.5c-0.2,0-0.4,0-0.6-0.1c-0.6-0.3-0.9-1.1-0.6-1.8l5.9-11.6c0.3-0.6,1.1-0.9,1.8-0.6
					c0.6,0.3,0.9,1.1,0.6,1.8l-5.9,11.6C508.6,398.2,508.2,398.5,507.7,398.5z"/>
			</g>
		</g>
		
			<linearGradient id="SVGID_3_" gradientUnits="userSpaceOnUse" x1="512.15" y1="700.4171" x2="512.15" y2="981.1597" gradientTransform="matrix(1 0 0 -1 0 1392)">
			<stop  offset="0" style="stop-color:#FDBB6D"/>
			<stop  offset="0.4092" style="stop-color:#D8727E"/>
			<stop  offset="0.4989" style="stop-color:#C498A7"/>
			<stop  offset="0.599" style="stop-color:#92B7B7"/>
			<stop  offset="1" style="stop-color:#F3ECD8"/>
		</linearGradient>
		<path style="fill:url(#SVGID_3_);" d="M350.9,483.4c7.9-23.7,16.1-47.3,24.6-70.8c9.5-26.5,37.4-41,64.1-34.4l10.2,2.6
			c15.5,3.9,223.6,115,223.6,115l-129,55.4l-135-58.2l75.2-32.1L453,532.2L350.9,483.4z"/>
		<path style="fill:#FDC068;" d="M452.9,532.2l-89.5,201.9l-74.5-33c1.3-6.3,2.7-12.4,4.1-18.6l4.5-18.4c3-12.3,6.2-24.5,9.5-36.6
			c6.6-24.3,13.6-48.4,20.9-72.4c3.7-12,7.4-24,11.3-35.9l5.8-17.9l5.9-17.8"/>
		
			<linearGradient id="SVGID_4_" gradientUnits="userSpaceOnUse" x1="582.0381" y1="700.4171" x2="582.0381" y2="981.1597" gradientTransform="matrix(1 0 0 -1 0 1392)">
			<stop  offset="0" style="stop-color:#FDBB6D"/>
			<stop  offset="0.4092" style="stop-color:#D8727E"/>
			<stop  offset="0.4989" style="stop-color:#C498A7"/>
			<stop  offset="0.599" style="stop-color:#92B7B7"/>
			<stop  offset="1" style="stop-color:#F3ECD8"/>
		</linearGradient>
		<path style="fill:url(#SVGID_4_);" d="M676.7,495.8c-3.7,26.7-37.1,62.9-83.7,56.9l-55.1-1.7c-42.5-5.5-53.7-52.3-49.8-81.1
			L676.7,495.8z"/>
		<g>
			<g>
				<g>
					<path id="SVGID_227_" style="fill:#FDC068;" d="M560.6,284.4l34.8,6.3c18,3.3,35.2-8.7,38.5-26.7l9.5-52.5
						c5.2-28.8-13.9-56.4-42.7-61.6l0,0c-28.8-5.2-56.4,13.9-61.6,42.7l-8.7,48.1C526.7,261.1,540.2,280.7,560.6,284.4z"/>
				</g>
				<g>
					<path style="fill:#2B2B2B;" d="M541.1,207.5c0,3.2-2.6,5.9-5.8,6l2.1-11.5C539.6,202.9,541.1,205,541.1,207.5z"/>
				</g>
			</g>
			<path style="fill:#FDC068;" d="M582.9,349.9l46.6-12.8l8.6-96.7l-55.5-10.1l-19.5,102.3C561.7,343.8,572,352.9,582.9,349.9z"/>
			<g>
				<path style="fill:#2B2B2B;" d="M546.6,227.6c-0.3,0-0.6-0.1-0.9-0.3l-4.4-3.8c-1-1.1-1.5-2.5-1.4-4s0.8-2.9,1.9-3.8l9-7.5
					c0.6-0.5,1.4-0.4,1.8,0.2c0.5,0.6,0.4,1.4-0.2,1.8l-9,7.5c-0.6,0.5-1,1.2-1,2c0,0.7,0.2,1.4,0.7,2l4.2,3.7
					c0.5,0.5,0.6,1.3,0.1,1.8C547.3,227.5,547,227.6,546.6,227.6z"/>
			</g>
			<g>
				<path style="fill:#2B2B2B;" d="M550.1,248.1c-1.1,0-2.1-0.2-3.1-0.5c-4.4-1.6-6-6.1-6.1-6.3c-0.2-0.7,0.1-1.4,0.8-1.7
					c0.7-0.2,1.4,0.1,1.7,0.8c0,0.1,1.3,3.6,4.5,4.7c2.3,0.8,5.2,0.2,8.5-1.8c0.6-0.4,1.4-0.2,1.8,0.4c0.4,0.6,0.2,1.4-0.4,1.8
					C555,247.3,552.5,248.1,550.1,248.1z"/>
			</g>
			<polygon style="fill:#2B2B2B;" points="569.6,286 592.2,290.1 567.4,310.8 			"/>
			<circle style="fill:#2B2B2B;" cx="569" cy="213.9" r="6"/>
		</g>
		<g>
			<path style="fill:#2B2B2B;" d="M220.1,685.2l123.8,58.4c6.7,3.1,14.6,0.1,17.8-6.6l7.7-16.3l-76.8-36.1L224.1,672
				C216.1,670.5,212.7,681.8,220.1,685.2z"/>
		</g>
		<path style="fill:#FFFFFF;" d="M558.8,386.1l71.8-61.8l20.8,11.7L578,397.2C571.6,388.2,558.8,386.1,558.8,386.1z"/>
		<path style="fill:#FFFFFF;" d="M565.9,317.1l-7,69c0,0-8.4-1.1-17.3,2.3c3.1-34.7,10.6-75.4,10.6-75.4L565.9,317.1z"/>
		<path style="fill:#5D5D5D;" d="M546.5,173.1l41.8,8.2c12.7,2.5,21,14.7,18.7,27.4l-1.1,6l14.5,3.8l9.4,44.4c0.9,4.2,6.9,4,7.5-0.3
			l9.5-67.5c2.9-20.5-11-39.6-31.4-43.4l-25.2-4.6C571.2,143.7,552.5,154.8,546.5,173.1L546.5,173.1z"/>
		<path style="fill:#FDC068;" d="M621.9,242.2l-13.6-3.6l6.8-25.6c1.6-6,7.7-9.5,13.7-7.9l2.8,0.7c6,1.6,9.5,7.7,7.9,13.7l-3.9,14.8
			C634,240.2,627.9,243.8,621.9,242.2z"/>
		<g>
			<path style="fill:#2B2B2B;" d="M461,515.3c-0.2,0-0.4,0-0.5-0.1c-0.7-0.3-1-1.1-0.7-1.7l10.5-23.7c0.3-0.7,1.1-1,1.7-0.7
				c0.7,0.3,1,1.1,0.7,1.7l-10.5,23.7C462,515,461.5,515.3,461,515.3z"/>
		</g>
		<path style="fill:#FDC068;" d="M709,417.9l39.4,53.2l1.2,1.6c1.8,2.4,3.1,5.1,3.9,7.7l48.2,159c4.5,14.7-3.8,30.2-18.5,34.6
			c-13.5,4.1-27.7-2.6-33.4-15.2l-68.4-151.5l5.1,9.4l-37.6-50.8L709,417.9z"/>
		<g>
			<path style="fill:#2B2B2B;" d="M681.4,508.8c-0.2,0-0.3,0-0.5-0.1c-0.7-0.3-1-1-0.7-1.7l3.5-8.6c0.3-0.7,1-1,1.7-0.7s1,1,0.7,1.7
				l-3.5,8.6C682.4,508.5,681.9,508.8,681.4,508.8z"/>
		</g>
		<g>
			<path style="fill:#2B2B2B;" d="M421.8,279.7c-0.7,0-1.2-0.5-1.3-1.2l-1.1-14.3c-0.1-0.7,0.5-1.3,1.2-1.4s1.3,0.5,1.4,1.2
				l1.1,14.3c0.1,0.7-0.5,1.3-1.2,1.4H421.8z"/>
		</g>
		<path style="fill:#5D5D5D;" d="M560,175.8l-15-3c-12-2.4-18.4-15.5-13.1-26.4l5.1-10.5c4-8.3,13.5-12.4,22.3-9.6l0,0
			c4.2,1.3,7.8,4,10.1,7.7l2.7,4.2c2.9,4.5,7.5,7.5,12.8,8.3l1.5,0.2L560,175.8z"/>
	</g>
	<g>
		<path style="fill:#6AC69F;" d="M666.7,304.2L666.7,304.2c2.4,5.3,0.1,11.6-5.2,14.1l-16,7.3c-5.3,2.4-11.6,0.1-14.1-5.2l0,0
			c-2.4-5.3-0.1-11.6,5.2-14.1l16-7.3C657.9,296.6,664.2,298.9,666.7,304.2z"/>
		<path style="fill:#6AC69F;" d="M675,346.3L675,346.3c-4.1,4.2-10.8,4.2-15,0.1L647.5,334c-4.2-4.1-4.2-10.8-0.1-15l0,0
			c4.1-4.2,10.8-4.2,15-0.1l12.5,12.4C679,335.5,679.1,342.2,675,346.3z"/>
		<path style="fill:#6AC69F;" d="M657.7,341.7L657.7,341.7c-4.8,3.4-11.4,2.2-14.8-2.6l-10.1-14.4c-3.4-4.8-2.2-11.4,2.6-14.8l0,0
			c4.8-3.4,11.4-2.2,14.8,2.6l10.1,14.4C663.7,331.7,662.5,338.3,657.7,341.7z"/>
		<path style="fill:#6AC69F;" d="M637.4,385.7L637.4,385.7c-5.2-2.8-7.1-9.2-4.3-14.4l8.4-15.5c2.8-5.2,9.2-7.1,14.4-4.3l0,0
			c5.2,2.8,7.1,9.2,4.3,14.4l-8.4,15.5C649,386.6,642.5,388.5,637.4,385.7z"/>
		<path style="fill:#6AC69F;" d="M672.3,374.3L672.3,374.3c-4.8,3.4-11.4,2.2-14.8-2.6l-10.1-14.4c-3.4-4.8-2.2-11.4,2.6-14.8l0,0
			c4.8-3.4,11.4-2.2,14.8,2.6l10.1,14.4C678.3,364.3,677.1,371,672.3,374.3z"/>
		<path style="fill:#6AC69F;" d="M626.8,407L626.8,407c-4.3-3.9-4.7-10.6-0.7-15l11.8-13.1c3.9-4.3,10.6-4.7,15-0.7l0,0
			c4.3,3.9,4.7,10.6,0.7,15l-11.8,13.1C637.8,410.6,631.1,411,626.8,407z"/>
		<path style="fill:#6AC69F;" d="M666.2,401.5L666.2,401.5c-5.3,2.5-11.6,0.3-14.2-5l-7.6-15.9c-2.5-5.3-0.3-11.6,5-14.2l0,0
			c5.3-2.5,11.6-0.3,14.2,5l7.6,15.9C673.7,392.6,671.5,398.9,666.2,401.5z"/>
		<path style="fill:#6AC69F;" d="M649.6,432.2L649.6,432.2c-5.8,0.7-11.1-3.4-11.9-9.2l-2.3-17.5c-0.7-5.8,3.4-11.1,9.2-11.9l0,0
			c5.8-0.7,11.1,3.4,11.9,9.2l2.3,17.5C659.5,426.2,655.4,431.5,649.6,432.2z"/>
		<path style="fill:#6AC69F;" d="M616.6,441.8L616.6,441.8c-4.8-3.3-6.1-9.9-2.8-14.7l9.9-14.6c3.3-4.8,9.9-6.1,14.7-2.8l0,0
			c4.8,3.3,6.1,9.9,2.8,14.7l-9.9,14.6C628.1,443.9,621.5,445.1,616.6,441.8z"/>
		<path style="fill:#6AC69F;" d="M632.5,365L632.5,365c-5.5-2.1-8.3-8.2-6.2-13.7l6.2-16.5c2.1-5.5,8.2-8.3,13.7-6.2l0,0
			c5.5,2.1,8.3,8.2,6.2,13.7l-6.2,16.5C644.1,364.3,637.9,367.1,632.5,365z"/>
		<g>
			<path style="fill:#2B2B2B;" d="M651.5,324.1c-0.5,0-1-0.3-1.2-0.8c-0.3-0.7,0-1.4,0.6-1.7l9.9-4.5c0.7-0.3,1.4,0,1.7,0.6
				s0,1.4-0.6,1.7L652,324C651.9,324.1,651.7,324.1,651.5,324.1z"/>
		</g>
		<g>
			<path style="fill:#2B2B2B;" d="M636.1,367c-0.2,0-0.5-0.1-0.7-0.2c-0.6-0.4-0.8-1.2-0.4-1.8l9.4-15c0.4-0.6,1.2-0.8,1.8-0.4
				s0.8,1.2,0.4,1.8l-9.4,15C637,366.8,636.5,367,636.1,367z"/>
		</g>
		<g>
			<path style="fill:#2B2B2B;" d="M655.2,400.3c-0.6,0-1.2-0.4-1.3-1.1l-3.5-17.6c-0.1-0.7,0.3-1.4,1-1.5s1.4,0.3,1.5,1l3.5,17.6
				c0.1,0.7-0.3,1.4-1,1.5C655.4,400.3,655.3,400.3,655.2,400.3z"/>
		</g>
		<g>
			<path style="fill:#2B2B2B;" d="M636.4,414.3c-0.7,0-1.3-0.5-1.3-1.2l-0.7-11.3c0-0.7,0.5-1.3,1.2-1.4c0.7,0,1.3,0.5,1.4,1.2
				l0.7,11.3C637.7,413.6,637.2,414.3,636.4,414.3C636.5,414.3,636.4,414.3,636.4,414.3z"/>
		</g>
	</g>
</g>
<linearGradient id="SVGID_5_" gradientUnits="userSpaceOnUse" x1="-3063.6572" y1="662.345" x2="-3063.6572" y2="510.2454" gradientTransform="matrix(-1 0 0 -1 -2205.7573 1392)">
	<stop  offset="0" style="stop-color:#FFD8A1"/>
	<stop  offset="0.9958" style="stop-color:#FFFFFF"/>
</linearGradient>
<path style="fill:url(#SVGID_5_);" d="M685.9,888.1c76.1,0,110.8-111.6,200.4-100.7c26.9,3.3,56.9-51.9,69.2-72.7
	c20.4-34.5,74.4-20.6,74.4,19.3v154.1H685.9z"/>
<g>
	<path style="fill:#E8E993;" d="M860.3,416c-0.5-2.7-5.1-26.7,4.3-39.5l8.1,5.9c-5.7,7.9-3.8,25.5-2.5,31.7L860.3,416z"/>
	<path style="fill:#A4E9B8;" d="M187.3,577.3c-0.4-2.7-3.6-26.9,6.4-39.3l7.8,6.3c-6.2,7.6-5.2,25.3-4.2,31.5L187.3,577.3z"/>
	<path style="fill:#E8928A;" d="M391.8,177.7c-6.2-15,1.3-29.5,1.6-30.1l8.8,4.7l-4.4-2.3l4.4,2.3c-0.1,0.1-5.6,11-1.2,21.6
		L391.8,177.7z"/>
	<path style="fill:#98C2FE;" d="M256.5,354l-9.6-2.7l4.8,1.4l-4.8-1.3c0-0.1,3.1-11.9-3.5-21.3l8.2-5.7
		C260.9,337.6,256.7,353.3,256.5,354z"/>
	<path style="fill:#98C2FE;" d="M816.7,569.1l-7.2-6.9l3.6,3.5l-3.6-3.5c0.1-0.1,8.4-9,7.1-20.5l9.9-1.1
		C828.3,556.8,817.2,568.6,816.7,569.1z"/>
	<path style="fill:#98C2FE;" d="M906.1,279.8l-7.2-6.9l3.6,3.5l-3.6-3.5c0.1-0.1,8.4-9,7.1-20.5l9.9-1.1
		C917.7,267.5,906.6,279.3,906.1,279.8z"/>
	<path style="fill:#C492D6;" d="M736.8,232.2l-9.5-3.2l4.7,1.6l-4.7-1.6c0-0.1,3.7-11.7-2.4-21.5l8.5-5.3
		C742.1,216.1,737.1,231.5,736.8,232.2z"/>
	<path style="fill:#FDE545;" d="M784.1,219.1l0.4,1c1.5,3.9,4.7,7.1,8.6,8.6l1,0.4c1.1,0.4,1.1,2,0,2.4l-1,0.4
		c-3.9,1.5-7.1,4.7-8.6,8.6l-0.4,1c-0.4,1.1-2,1.1-2.4,0l-0.4-1c-1.5-3.9-4.7-7.1-8.6-8.6l-1-0.4c-1.1-0.4-1.1-2,0-2.4l1-0.4
		c3.9-1.5,7.1-4.7,8.6-8.6l0.4-1C782.1,218.1,783.6,218.1,784.1,219.1z"/>
	<path style="fill:#FDE545;" d="M446.2,129l0.4,1c1.5,3.9,4.7,7.1,8.6,8.6l1,0.4c1.1,0.4,1.1,2,0,2.4l-1,0.4
		c-3.9,1.5-7.1,4.7-8.6,8.6l-0.4,1c-0.4,1.1-2,1.1-2.4,0l-0.4-1c-1.5-3.9-4.7-7.1-8.6-8.6l-1-0.4c-1.1-0.4-1.1-2,0-2.4l1-0.4
		c3.9-1.5,7.1-4.7,8.6-8.6l0.4-1C444.3,127.9,445.8,127.9,446.2,129z"/>
	<path style="fill:#FDE545;" d="M247.8,452.7l0.4,1c1.5,3.9,4.7,7.1,8.6,8.6l1,0.4c1.1,0.4,1.1,2,0,2.4l-1,0.4
		c-3.9,1.5-7.1,4.7-8.6,8.6l-0.4,1c-0.4,1.1-2,1.1-2.4,0l-0.4-1c-1.5-3.9-4.7-7.1-8.6-8.6l-1-0.4c-1.1-0.4-1.1-2,0-2.4l1-0.4
		c3.9-1.5,7.1-4.7,8.6-8.6l0.4-1C245.8,451.6,247.4,451.6,247.8,452.7z"/>
	<path style="fill:#F9D5FF;" d="M169.7,287.2c-4-16.5-22.6-41-42.3-67c-22-28.9-46.8-61.7-56.5-90.4l9.5-3.2
		c9.1,27.1,33.5,59.2,54.9,87.6c21.2,28,39.5,52.1,44.1,70.6L169.7,287.2z"/>
	<path style="fill:#F9D5FF;" d="M870.9,503.9l-9.3-3.6c8.5-22.4,26.3-36.1,45.1-50.6c18.4-14.2,37.4-28.9,47.5-52.7l9.2,3.9
		c-11.1,26.2-31.2,41.7-50.6,56.7C895.1,471.3,878.4,484.1,870.9,503.9z"/>
</g>
</svg>
