<?xml version="1.0" encoding="iso-8859-1"?>
<!-- Generator: Adobe Illustrator 22.1.0, SVG Export Plug-In . SVG Version: 6.00 Build 0)  -->
<svg version="1.1" id="Layer_1" xmlns="http://www.w3.org/2000/svg" xmlns:xlink="http://www.w3.org/1999/xlink" x="0px" y="0px"
	 viewBox="0 0 800 600" style="enable-background:new 0 0 800 600;" xml:space="preserve">
<rect style="fill:#FFFFFF;" width="800" height="600"/>
<title>20_downloading</title>
<g>
	
		<linearGradient id="SVGID_1_" gradientUnits="userSpaceOnUse" x1="544" y1="286" x2="544" y2="378" gradientTransform="matrix(1 0 0 -1 0 600)">
		<stop  offset="0" style="stop-color:#FFFFFF"/>
		<stop  offset="0.34" style="stop-color:#E8E8E8"/>
		<stop  offset="0.74" style="stop-color:#D2D2D2"/>
		<stop  offset="1" style="stop-color:#CACACA"/>
	</linearGradient>
	<rect x="391" y="222" style="fill:url(#SVGID_1_);" width="306" height="92"/>
	
		<linearGradient id="SVGID_2_" gradientUnits="userSpaceOnUse" x1="369.5" y1="258" x2="369.5" y2="387" gradientTransform="matrix(1 0 0 -1 0 600)">
		<stop  offset="0" style="stop-color:#FFFFFF"/>
		<stop  offset="0.08" style="stop-color:#F9F9F9"/>
		<stop  offset="0.37" style="stop-color:#E6E6E6"/>
		<stop  offset="0.68" style="stop-color:#DBDBDB"/>
		<stop  offset="1" style="stop-color:#D7D7D7"/>
	</linearGradient>
	<polygon style="fill:url(#SVGID_2_);" points="391,314 348,342 348,213 391,222 	"/>
	<polygon style="fill:#E6E6E6;" points="314,163 673,163 713,222 389,222 	"/>
	<polygon style="fill:#D9D9D9;" points="224,115 348,213 391,222 317,163 	"/>
	
		<radialGradient id="SVGID_3_" cx="520.59" cy="382.455" r="122.7651" gradientTransform="matrix(1 0 0 -1 0 600)" gradientUnits="userSpaceOnUse">
		<stop  offset="0" style="stop-color:#FFFFFF;stop-opacity:0"/>
		<stop  offset="0.41" style="stop-color:#FFFFFF;stop-opacity:0.01"/>
		<stop  offset="0.56" style="stop-color:#FFFFFF;stop-opacity:0.03"/>
		<stop  offset="0.67" style="stop-color:#FFFFFF;stop-opacity:0.08"/>
		<stop  offset="0.75" style="stop-color:#FFFFFF;stop-opacity:0.15"/>
		<stop  offset="0.83" style="stop-color:#FFFFFF;stop-opacity:0.23"/>
		<stop  offset="0.89" style="stop-color:#FFFFFF;stop-opacity:0.34"/>
		<stop  offset="0.95" style="stop-color:#FFFFFF;stop-opacity:0.46"/>
		<stop  offset="1" style="stop-color:#FFFFFF;stop-opacity:0.6"/>
	</radialGradient>
	<polygon style="fill:url(#SVGID_3_);" points="694,226 390.59,226 347.18,216.91 348.82,209.09 391.41,218 694,218 	"/>
	
		<linearGradient id="SVGID_4_" gradientUnits="userSpaceOnUse" x1="223.93" y1="258" x2="223.93" y2="485" gradientTransform="matrix(1 0 0 -1 0 600)">
		<stop  offset="0" style="stop-color:#F7F7F7"/>
		<stop  offset="1" style="stop-color:#E6E6E6"/>
	</linearGradient>
	<polygon style="fill:url(#SVGID_4_);" points="224,115 347.86,211.09 347.86,342 223.93,342 100,342 100,211.09 	"/>
	<polyline style="fill:none;stroke:#FAFAFA;stroke-width:9;stroke-miterlimit:10;" points="94.5,217.5 224.37,115.07 353.5,217.5 	
		"/>
	<g>
		<g>
			<rect x="256" y="244" style="fill:#CACACA;" width="40" height="52"/>
			<path style="fill:#FAFAFA;" d="M295,245v50h-38v-50H295 M297,243h-42v54h42V243z"/>
		</g>
		<g>
			<rect x="233" y="244" style="fill:#F5F5F5;" width="20" height="52"/>
			<path style="fill:#FAFAFA;" d="M252,245v50h-18v-50H252 M254,243h-22v54h22V243z"/>
		</g>
		<g>
			<rect x="299.96" y="243.81" style="fill:#F5F5F5;" width="20" height="52.25"/>
			<path style="fill:#FAFAFA;" d="M319,244.81v50.25h-18v-50.25H319 M321,242.81h-22v54.25h22V242.81z"/>
		</g>
		<rect x="255" y="230" style="fill:#D7D7D7;" width="42" height="8"/>
		<line style="fill:none;stroke:#FAFAFA;stroke-width:2;stroke-miterlimit:10;" x1="276" y1="244" x2="276" y2="296"/>
		<line style="fill:none;stroke:#FAFAFA;stroke-width:2;stroke-miterlimit:10;" x1="286" y1="243.81" x2="285.89" y2="297"/>
		<line style="fill:none;stroke:#FAFAFA;stroke-width:2;stroke-miterlimit:10;" x1="266" y1="244" x2="266" y2="296"/>
		<line style="fill:none;stroke:#FAFAFA;stroke-width:2;stroke-miterlimit:10;" x1="256" y1="270" x2="296" y2="270"/>
		<line style="fill:none;stroke:#FAFAFA;stroke-width:2;stroke-miterlimit:10;" x1="256" y1="257" x2="296" y2="257"/>
		<line style="fill:none;stroke:#FAFAFA;stroke-width:2;stroke-miterlimit:10;" x1="256" y1="283" x2="296" y2="283"/>
	</g>
	<g>
		<g>
			<rect x="151" y="244" style="fill:#CACACA;" width="40" height="52"/>
			<path style="fill:#FAFAFA;" d="M190,245v50h-38v-50H190 M192,243h-42v54h42V243z"/>
		</g>
		<g>
			<rect x="128" y="244" style="fill:#F5F5F5;" width="20" height="52"/>
			<path style="fill:#FAFAFA;" d="M147,245v50h-18v-50H147 M149,243h-22v54h22V243z"/>
		</g>
		<g>
			<rect x="194.96" y="243.81" style="fill:#F5F5F5;" width="20" height="52.25"/>
			<path style="fill:#FAFAFA;" d="M214,244.81v50.25h-18v-50.25H214 M216,242.81h-22v54.25h22V242.81z"/>
		</g>
		<rect x="150" y="230" style="fill:#D7D7D7;" width="42" height="8"/>
		<line style="fill:none;stroke:#FAFAFA;stroke-width:2;stroke-miterlimit:10;" x1="171" y1="244" x2="171" y2="296"/>
		<line style="fill:none;stroke:#FAFAFA;stroke-width:2;stroke-miterlimit:10;" x1="181" y1="243.81" x2="180.89" y2="297"/>
		<line style="fill:none;stroke:#FAFAFA;stroke-width:2;stroke-miterlimit:10;" x1="161" y1="244" x2="161" y2="296"/>
		<line style="fill:none;stroke:#FAFAFA;stroke-width:2;stroke-miterlimit:10;" x1="151" y1="270" x2="191" y2="270"/>
		<line style="fill:none;stroke:#FAFAFA;stroke-width:2;stroke-miterlimit:10;" x1="151" y1="257" x2="191" y2="257"/>
		<line style="fill:none;stroke:#FAFAFA;stroke-width:2;stroke-miterlimit:10;" x1="151" y1="283" x2="191" y2="283"/>
	</g>
	<g>
		<rect x="218" y="151" style="fill:#CACACA;" width="12" height="29"/>
		<path style="fill:#FAFAFA;" d="M228,153v25h-8v-25H228 M230,151h-12v29h12V151z"/>
	</g>
	<rect x="218" y="142" style="fill:#D1D1D1;" width="12" height="6"/>
	<rect x="362" y="153" style="fill:#E6E6E6;" width="18" height="10"/>
	<rect x="359" y="148" style="fill:#F1F1F1;" width="24" height="5"/>
	<rect x="367" y="143" style="fill:#E6E6E6;" width="8" height="5"/>
</g>
<radialGradient id="SVGID_5_" cx="672.1892" cy="514.5683" r="238.44" gradientTransform="matrix(1.34 0 0 -1.29 -502.17 1035.9)" gradientUnits="userSpaceOnUse">
	<stop  offset="0" style="stop-color:#FFFFFF;stop-opacity:0"/>
	<stop  offset="0.41" style="stop-color:#FFFFFF;stop-opacity:0.01"/>
	<stop  offset="0.56" style="stop-color:#FFFFFF;stop-opacity:0.03"/>
	<stop  offset="0.67" style="stop-color:#FFFFFF;stop-opacity:0.08"/>
	<stop  offset="0.75" style="stop-color:#FFFFFF;stop-opacity:0.15"/>
	<stop  offset="0.83" style="stop-color:#FFFFFF;stop-opacity:0.23"/>
	<stop  offset="0.89" style="stop-color:#FFFFFF;stop-opacity:0.34"/>
	<stop  offset="0.95" style="stop-color:#FFFFFF;stop-opacity:0.46"/>
	<stop  offset="1" style="stop-color:#FFFFFF;stop-opacity:0.6"/>
</radialGradient>
<rect style="fill:url(#SVGID_5_);" width="800" height="600"/>
<path style="fill:#FFFFFF;" d="M421,317.5c0.006-6.898-5.582-12.495-12.48-12.5c-2.573-0.002-5.084,0.791-7.19,2.27
	c-3.424-5.976-11.044-8.044-17.019-4.62c-0.865,0.496-1.668,1.094-2.391,1.78c-2.805-6.302-10.188-9.136-16.49-6.331
	c-2.102,0.936-3.905,2.435-5.21,4.331c-6.129-3.165-13.663-0.761-16.828,5.368c-0.91,1.763-1.387,3.718-1.392,5.702
	c0,0.2,0,0.4,0,0.59c-5.451,0.664-9.831,4.805-10.8,10.21c-0.887-0.197-1.792-0.297-2.7-0.3c-3.352-0.004-6.565,1.345-8.91,3.74
	c-3.011-5.803-9.981-8.312-16-5.76c-4.694-5.047-12.591-5.332-17.638-0.638c-2.069,1.924-3.423,4.494-3.842,7.288
	c-5.45-4.22-13.289-3.222-17.508,2.228c-0.957,1.236-1.674,2.641-2.112,4.142c-1.581-0.672-3.282-1.012-5-1
	c-2.679-0.003-5.286,0.864-7.43,2.47c-4.424-5.285-12.295-5.983-17.58-1.559c-1.377,1.152-2.489,2.588-3.26,4.209
	c-3.502-5.924-11.144-7.886-17.067-4.384c-0.456,0.27-0.895,0.568-1.313,0.894c-1.027-6.821-7.389-11.518-14.21-10.492
	c-4.634,0.698-8.487,3.93-9.98,8.372c-1.352-0.982-2.979-1.51-4.65-1.51c-3.646,0.003-6.829,2.47-7.74,6
	c-2.757-3.453-7.79-4.017-11.243-1.26c-1.357,1.083-2.324,2.579-2.757,4.26c-2.748-3.46-7.781-4.036-11.24-1.288
	c-0.69,0.548-1.285,1.206-1.76,1.948c-1.838-4.018-6.585-5.785-10.603-3.947c-0.659,0.301-1.273,0.691-1.827,1.157
	c-0.879-4.606-5.326-7.627-9.931-6.747c-2.5,0.477-4.654,2.051-5.869,4.287l-0.08-0.09c0-0.28,0-0.56,0-0.84
	c-0.004-6.904-5.604-12.497-12.507-12.493c-4.66,0.003-8.932,2.598-11.083,6.733c-4.827-4.92-12.728-4.996-17.649-0.169
	c-0.248,0.243-0.485,0.496-0.711,0.759c-1.345-0.855-2.906-1.309-4.5-1.31c-3.195,0.001-6.119,1.794-7.57,4.64
	c-2.966-3.275-8.025-3.526-11.3-0.56c-1.672,1.514-2.627,3.664-2.63,5.92v22h370V317.5z"/>
<linearGradient id="SVGID_6_" gradientUnits="userSpaceOnUse" x1="248.695" y1="680" x2="248.695" y2="660" gradientTransform="matrix(1 0 0 -1 0 1150)">
	<stop  offset="0" style="stop-color:#E0E0E0"/>
	<stop  offset="1" style="stop-color:#FFFFFF"/>
</linearGradient>
<path style="opacity:0.2;fill:url(#SVGID_6_);enable-background:new    ;" d="M116.78,490h263.86c11.046,0,20-8.954,20-20H96.75
	c0,11.046,8.954,20,20,20C116.76,490,116.77,490,116.78,490z"/>
<g>
	<path style="fill:#589442;" d="M726,240c0-17-15-24-20-24l-265.35,0.82C415,216.82,395,239,395,263c0,19.65,8.5,29,29,29
		c0,0,10.26,15,27,15c19,0,24-11,24-11s13,6,18.74-1.12c5.452,5.946,13.194,9.267,21.26,9.12c18,0,22-11,22-11
		c4.78,4.41,8.39,8,24,8c9,0,20-4,23-11c7,10,25.66,5.29,26,6c5.352,9.299,15.271,15.021,26,15c15.88,0,23.12-9.47,25-12.07
		c5.582,3.881,12.202,5.996,19,6.07c6.28,0,16.14-2.24,22-9c13-15,10-33,10-33S726,258,726,240z"/>
	<path style="fill:#5D4037;" d="M542,350c-2,0-3,0-5.31-2c-3.92-4.77-7.91-12.55-10.69-18c-7.89-15.56-19-24-31-36
		c-10-10-11-28-11-29c-0.841-0.695-1.91-1.052-3-1c-1.25,0-1.87,13,3,25c2.92,7.21,9.4,13,14.45,18.41
		C508.83,318.54,517,329,517,329s1,11,10,26c5,8.39,15,16.73,15,23v61c0,0-6.31,12.77-13,15c-15,5-19.23,14.16-26,16
		c5,0,11.61-2.1,13-3c2-1.32,6.06-1.83,9-2c6.24-0.36,6.64-2.08,12.37-4.49c2.421-0.996,5.013-1.509,7.63-1.51c8,0,13.31,5.15,19,8
		c2.842,1.245,5.899,1.924,9,2c2,0,4-0.05,4-1c0-2-4-3-5.61-3.64c-2-0.74-4.39-2.36-4.39-3.36s5-3,12-3c8,0,12,2,16,2c1,0,3,0,3-1
		c0-2-11.39-5.88-17-7c-5-1-11.81-6.31-13-10c-1.233-4.568-1.905-9.269-2-14c0-14-2.18-26.34-2.18-41.74c0-12.26,4.11-17.52,5.28-19
		c6.35-8.17,7.35-14.44,13.9-31.25c6.89-17.67,19.89-35.52,24-54c0.15-0.66,2-7,2-9c0-1-1-2-4-2s-2.39,2.16-4,7
		c-3,9-3.67,11.87-6,16c-2,3.55-6,8-11,8c-3.84,0-7-10-9-21c-1.47-8.09-0.55-18.55-1-19c-0.863-0.653-1.917-1.004-3-1
		c0,0-5,20,6.43,45.1c4.53,10,2.4,16.72-2.43,25.9c-3.56,6.78-4.15,8.38-8,15c-1.44,2.47-3,5-5,5c-5,0-5-3-5-3c-1.37,0-3-1-3-4
		c0-14-4.72-28.08-9-42c-4-13-5-18.2-5-29c0-6,5-18,5-20s-3-2-3-2c-3,7-8,20-5,40c1.36,9.09,4,19.84,5,29c0.72,6.44,5,15,5,21
		S544,350,542,350z"/>
	<path style="fill:#8D6E63;" d="M455,280c-0.43-1.72,1-2,2-2c0.758,0.105,1.461,0.456,2,1c0,0,0.81,4.84,10,10
		c2.491,1.416,5.192,2.429,8,3c2.05,0.51,4.57,1.67,7,2c0,0-6-18-6-29c0.841-0.695,1.91-1.052,3-1c0,27,11,31,18,40
		c3,3.9,7.49,8.39,13,15c5,6,7.38,9.3,10,17c2.76,10.4,9.72,18.59,16,25c3.49,3.56,10.65,10.11,11,19c0.06,1.43,1,10,1,22
		c0,11.79,2,18,2,30c0,13-5,19-11,21c-6.81,2.27-11.87,0.91-25,10c-7.93,5.49-10.21,6.89-12,7c-1.14,0.07-2,0-2-1
		c0-0.5,3.52-2.14,6-4c1.516-1.137,2.863-2.484,4-4l5-5l2-1c0-2.4-2.09-3.06-4-3c-6.75,0.23-14.59,8.67-15,9
		c-2.651,1.84-5.775,2.881-9,3c-2,0-3,0-3-1c0-2,7.3-2,10-6c4-6,11-10,20-12c10.74-2.39,11-13,11-19v-40c0-7-4-18.14-7-24
		c-5.28-10.18-6.42-19.46-11-30c-3-10-10-15-18-27c-3-4-4.94-3.8-6-4C461,296,456,284,455,280z"/>
	<path style="fill:#73B242;" d="M706,197c0.753-1.907,1.094-3.952,1-6c-0.06-4.433-2.306-8.549-6-11c-2.729-1.56-5.867-2.257-9-2
		c1.342-4.545,2.016-9.261,2-14c0-22-19-31-32-31c-18,0-27,8-27,8c0-12.83-6.89-20-16-20c-7,0-10,3-10,3s-8-19-26-19
		c-13,0-19,9-19,9s-13-27-39-27c-17.387-0.198-32.678,11.461-37.09,28.28c-4.574,1.027-8.309,4.314-9.91,8.72c0,0-3-2-9-2
		c-9.28,0-17,6.82-17,19c0,0-7-10-24-10c-23,0-33,16-33,31c-0.074,5.156,0.949,10.269,3,15c0,0-15,3-15,21
		c-7.12,2.08-13,11.38-13,23c0,16,15,23,15,23s-2,4-2,12c0,10,6.4,24.75,26.4,24.75c12.46,0,19.6-9.75,19.6-9.75s7.62,6.4,23,2
		c21-6,19-26,19-26c3.052,2.638,6.967,4.061,11,4c9.389,0,17-7.611,17-17c0-0.31,0-0.61-0.05-0.91L499,233c0,0,7,8,21,8
		c16,0,23-10,23-10c3,4,12,10,23,10c16,0,22-8,22-8s10,28,40,28c23,0,32.42-16.68,32.42-16.68c5.28,4.228,11.817,6.578,18.58,6.68
		c29,0,33-25.72,33-35C712,203,706,197,706,197z"/>
	<path style="fill:#5D4037;" d="M500,461c4.26-5.42,9.25-9.77,16-10c1.91-0.06,5,0.6,5,3c0,2-2.38,2.19-4,3
		c-1.818,1.133-3.496,2.476-5,4c0.695-0.841,1.052-1.91,1-3c-0.046-1.085-0.915-1.954-2-2C507,456,504.53,458,500,461z"/>
	<path style="fill:#589442;" d="M395,186c2.962,1.969,6.443,3.013,10,3c4,0,9.21-1.23,15-9c0,0,3,9,16,9s17-6,17-6s4,5.12,14.1,5.12
		c14.9,0,17.82-8.82,17.82-8.82S489,183,494,183c3.432,0.073,6.753-1.214,9.24-3.58c0,0,1.76,14.58-11.24,14.58
		c-2.179,0.104-4.319-0.609-6-2c0,0-6,11-19,11c-8,0-12-3-12-3c-4.472,4.558-10.615,7.087-17,7c-7.377,0.207-14.278-3.628-18-10
		c0,0-3,3-10,3C396,200,395,186,395,186z"/>
	<path style="fill:#589442;" d="M645,214c-2.774-0.123-5.495-0.803-8-2c-4.513,5.209-11.109,8.141-18,8
		c-7.377,0.207-14.278-3.628-18-10c-3.046,2.647-6.965,4.072-11,4c-14,0-18-15-18-15s5,4,11,4s13-2,17-10c0,0,6,9,17,9s16-6,16-6
		s6,5,13,5c5.561-0.12,10.89-2.252,15-6C661,195,659,214,645,214z"/>
	<path style="fill:#8D6E63;" d="M536.69,348c3.36,1.22,4.87-0.5,5.51-3.52c0.529-2.968,0.402-6.016-0.37-8.93
		c-2.68-11.87-3.88-24.1-7-35.76C531.1,286.22,526.2,276.3,515,267c-3.35-3.001-6.367-6.354-9-10c-0.75-1.5,1.19-4.78,3-5
		c0.722-0.04,1.398,0.353,1.72,1c4.28,6,14.58,18,20.28,18c2,0,2.27-3.46,3-6c2-7,3-13,8-13c-1,5-5,20-5,27c0,4.37,1.19,11,2,15
		c1.81,9,5,17.84,6,27c0.72,6.44,3,11.63,3,18c0,4-1,13-5,13C540,352,539,351,536.69,348z"/>
	<path style="fill:#8D6E63;" d="M579,306c-3.28-5.33-8-26-8-45c-2.1-0.18-3,1-3,2c0,2.35,0,12,0,17c0,3,3,18,6,26
		c1.25,3.34,1,6.55,1,10c0,5-3.65,12.62-5,15c-5.56,9.78-9,18-13,18c0,5.2,8,6,9,6c3,0,5.31-1.23,6-4c1-4,0.44-7.22,4-14
		c3-5.74,5.83-14.84,6-21C582.1,312.3,581.15,309.49,579,306z"/>
</g>
<g>
	<circle style="fill:#FFB226;" cx="423.5" cy="153.5" r="6.5"/>
	<path style="fill:#FB9617;" d="M427.15,148.12c1.969,3.002,1.131,7.031-1.871,9c-2.164,1.419-4.965,1.419-7.129,0
		c1.969,3.002,5.998,3.839,9,1.871c3.002-1.969,3.84-5.998,1.871-9C428.532,149.246,427.895,148.609,427.15,148.12z"/>
	<circle style="fill:#FFB226;" cx="467.5" cy="168.5" r="7.5"/>
	<path style="fill:#FB9617;" d="M471.71,162.29c2.33,3.424,1.444,8.09-1.981,10.42c-2.546,1.733-5.893,1.733-8.439,0
		c2.33,3.424,6.996,4.311,10.42,1.981s4.311-6.996,1.981-10.42C473.161,163.492,472.489,162.82,471.71,162.29z"/>
	<circle style="fill:#FFB226;" cx="525.5" cy="128.5" r="6.5"/>
	<path style="fill:#FB9617;" d="M529.15,123.12c1.969,3.002,1.131,7.031-1.871,9c-2.164,1.419-4.965,1.419-7.129,0
		c1.969,3.002,5.998,3.839,9,1.871c3.002-1.969,3.839-5.998,1.871-9C530.532,124.246,529.895,123.609,529.15,123.12z"/>
	<circle style="fill:#FFB226;" cx="543.5" cy="171.5" r="7.5"/>
	<path style="fill:#FB9617;" d="M547.71,165.29c2.33,3.424,1.444,8.09-1.981,10.42c-2.546,1.733-5.893,1.733-8.439,0
		c2.33,3.424,6.996,4.311,10.42,1.981s4.311-6.996,1.981-10.42C549.161,166.492,548.489,165.82,547.71,165.29z"/>
	<circle style="fill:#FFB226;" cx="559.5" cy="214.5" r="6.5"/>
	<path style="fill:#FB9617;" d="M563.15,209.12c1.969,3.002,1.131,7.031-1.871,9c-2.164,1.419-4.965,1.419-7.129,0
		c1.969,3.002,5.998,3.839,9,1.871c3.002-1.969,3.839-5.998,1.871-9C564.532,210.246,563.895,209.609,563.15,209.12z"/>
	<circle style="fill:#FFB226;" cx="447.5" cy="235.5" r="6.5"/>
	<path style="fill:#FB9617;" d="M451.15,230.12c1.969,3.002,1.131,7.031-1.871,9c-2.164,1.419-4.965,1.419-7.129,0
		c1.969,3.002,5.998,3.839,9,1.871c3.002-1.969,3.84-5.998,1.871-9C452.532,231.246,451.895,230.609,451.15,230.12z"/>
	<circle style="fill:#FFB226;" cx="611.5" cy="147.5" r="6.5"/>
	<path style="fill:#FB9617;" d="M615.15,142.12c1.969,3.002,1.131,7.031-1.871,9c-2.164,1.419-4.965,1.419-7.129,0
		c1.969,3.002,5.998,3.839,9,1.871c3.002-1.969,3.839-5.998,1.871-9C616.532,143.246,615.895,142.609,615.15,142.12z"/>
	<circle style="fill:#FFB226;" cx="631.5" cy="242.5" r="6.5"/>
	<path style="fill:#FB9617;" d="M635.15,237.12c1.969,3.002,1.131,7.031-1.871,9c-2.164,1.419-4.965,1.419-7.129,0
		c1.969,3.002,5.998,3.839,9,1.871c3.002-1.969,3.839-5.998,1.871-9C636.532,238.246,635.895,237.609,635.15,237.12z"/>
	<circle style="fill:#FFB226;" cx="665.5" cy="163.5" r="7.5"/>
	<path style="fill:#FB9617;" d="M669.71,157.29c2.33,3.424,1.444,8.09-1.981,10.42c-2.546,1.733-5.893,1.733-8.439,0
		c2.33,3.424,6.996,4.311,10.42,1.981s4.311-6.996,1.981-10.42C671.161,158.492,670.489,157.82,669.71,157.29z"/>
	<circle style="fill:#FFB226;" cx="709" cy="470" r="8"/>
	<path style="fill:#FB9617;" d="M713.49,463.38c2.478,3.658,1.521,8.632-2.137,11.11c-2.709,1.835-6.263,1.835-8.973,0
		c2.478,3.658,7.452,4.615,11.11,2.137c3.658-2.478,4.615-7.452,2.137-11.11C715.057,464.676,714.332,463.95,713.49,463.38z"/>
	<circle style="fill:#FFB226;" cx="422" cy="462" r="8"/>
	<path style="fill:#FB9617;" d="M426.49,455.38c2.478,3.658,1.521,8.632-2.137,11.11c-2.709,1.835-6.263,1.835-8.973,0
		c2.478,3.658,7.452,4.615,11.11,2.137c3.658-2.478,4.615-7.452,2.137-11.11C428.057,456.676,427.332,455.95,426.49,455.38z"/>
	<circle style="fill:#FFB226;" cx="673.5" cy="462.5" r="7.5"/>
	<path style="fill:#FB9617;" d="M677.71,456.29c2.33,3.424,1.444,8.09-1.981,10.42c-2.546,1.733-5.893,1.733-8.439,0
		c2.33,3.424,6.996,4.311,10.42,1.981s4.311-6.996,1.981-10.42C679.161,457.492,678.489,456.82,677.71,456.29z"/>
</g>
<g>
	<circle style="fill:#FFB226;" cx="188" cy="423" r="9"/>
	<path style="fill:#FB9617;" d="M194.83,417.15c0.108,0.611,0.164,1.23,0.17,1.85c0,6.075-4.925,11-11,11l0,0
		c-0.62-0.006-1.239-0.062-1.85-0.17c3.806,3.197,9.483,2.703,12.68-1.104C197.641,425.38,197.641,420.497,194.83,417.15
		L194.83,417.15z"/>
	<circle style="fill:#FFBD45;" cx="170.5" cy="417.5" r="8.5"/>
	<path style="fill:#FFA433;" d="M177,412c0.104,0.574,0.157,1.156,0.16,1.74c0,5.738-4.652,10.39-10.39,10.39h0
		c-0.593,0.009-1.185-0.035-1.77-0.13c1.535,1.304,3.486,2.013,5.5,2c4.692-0.006,8.494-3.808,8.5-8.5
		C179.013,415.486,178.304,413.535,177,412z"/>
	<circle style="fill:#F7A32A;" cx="176.5" cy="424.5" r="8.5"/>
	<path style="fill:#E38815;" d="M183,419c0.104,0.574,0.157,1.156,0.16,1.74c0,5.738-4.652,10.39-10.39,10.39h0
		c-0.593,0.009-1.185-0.035-1.77-0.13c1.535,1.304,3.486,2.013,5.5,2c4.692-0.006,8.494-3.808,8.5-8.5
		C185.013,422.486,184.304,420.535,183,419z"/>
	<circle style="fill:#FFAE19;" cx="162.5" cy="426.5" r="8.5"/>
	<path style="fill:#F29116;" d="M169,421c0.104,0.574,0.157,1.156,0.16,1.74c0,5.738-4.652,10.39-10.39,10.39h0
		c-0.593,0.009-1.185-0.035-1.77-0.13c1.535,1.304,3.486,2.013,5.5,2c4.692-0.006,8.494-3.808,8.5-8.5
		C171.013,424.486,170.304,422.535,169,421z"/>
	<circle style="fill:#FFB226;" cx="138.5" cy="424.5" r="8.5"/>
	<path style="fill:#FB9A21;" d="M145,419c0.104,0.574,0.157,1.156,0.16,1.74c0,5.738-4.652,10.39-10.39,10.39h0
		c-0.593,0.009-1.185-0.035-1.77-0.13c1.535,1.304,3.486,2.013,5.5,2c4.692-0.006,8.494-3.808,8.5-8.5
		C147.013,422.486,146.304,420.535,145,419z"/>
	<circle style="fill:#FFBD45;" cx="149.5" cy="429.5" r="8.5"/>
	<path style="fill:#FCA119;" d="M156,424c0.104,0.574,0.157,1.156,0.16,1.74c0,5.738-4.652,10.39-10.39,10.39h0
		c-0.593,0.009-1.185-0.035-1.77-0.13c1.535,1.304,3.486,2.013,5.5,2c4.692-0.006,8.494-3.808,8.5-8.5
		C158.013,427.486,157.304,425.535,156,424z"/>
</g>
<g>
	<path style="fill:#7B593D;" d="M202,428c0,0-9,4-38.5,4s-38.5-4-38.5-4c0,2.3,9,41,9,41c0,2.16,13.21,4,29.5,4s29.5-1.75,29.5-3.92
		C193,469.08,202,430.3,202,428z"/>
	<path style="fill:#996F4B;" d="M197,422.49L197,422.49c0.074,1.363-0.141,2.726-0.63,4l0.66,0.12c0.61,0.15,1.17,0.29,1.63,0.44
		c-4.5,1.44-17.09,3-35.13,3s-30.64-1.56-35.13-3c0.45-0.15,1-0.29,1.63-0.44l0.34,0.15c-0.382-1.385-0.399-2.846-0.05-4.24h-0.29
		c-5.65,1.23-7,2.73-7,4.51c0,2.3,2,9,2,9s5,5,38,5c34,0,39-5,39-5s2-6.7,2-9C204,425.22,202.6,423.72,197,422.49z"/>
	<path style="fill:#BA8E61;" d="M214,417.5c-0.072-1.902-1.598-3.428-3.5-3.5c-4.58,0-10.17,3.54-13.87,6.53
		c0.339,1.213,0.428,2.482,0.26,3.73c4-3.66,9.85-7.26,13.61-7.26c0.241,0.071,0.429,0.259,0.5,0.5c0,2.41-6.55,6.17-14.91,8.56
		c-0.564,0.117-1.013,0.543-1.16,1.1c-0.131,0.504,0.05,1.039,0.46,1.36c0.507,1.269,0.716,2.638,0.61,4c0,4.08-0.79,5.42-0.79,5.43
		c-0.524,0.641-0.43,1.585,0.21,2.11c0.284,0.226,0.637,0.346,1,0.34c0.45,0.003,0.877-0.2,1.16-0.55c0.35-0.42,1.47-2.19,1.47-7.33
		c0.028-1.364-0.123-2.726-0.45-4.05C203.19,427,214,422.93,214,417.5z"/>
	<path style="fill:#BA8E61;" d="M131,432.5c-0.106-1.362,0.103-2.731,0.61-4c0.406-0.325,0.586-0.856,0.46-1.36
		c-0.149-0.556-0.597-0.981-1.16-1.1c-8.36-2.39-14.91-6.15-14.91-8.56c0.071-0.241,0.259-0.429,0.5-0.5c3.74,0,9.53,3.56,13.54,7.2
		c0-0.07,0-0.13,0-0.19c0.066-1.069,0.33-2.117,0.78-3.09c-3.69-3.07-9.56-6.92-14.34-6.92c-1.902,0.072-3.428,1.598-3.5,3.5
		c0,5.43,10.77,9.46,15.45,10.95c-0.327,1.324-0.478,2.686-0.45,4.05c0,5.14,1.12,6.91,1.46,7.33c0.301,0.356,0.744,0.561,1.21,0.56
		c0.812,0.012,1.48-0.636,1.492-1.448c0.005-0.346-0.112-0.684-0.332-0.952C131.81,437.97,131,436.67,131,432.5z"/>
</g>
<g>
	<circle style="fill:#FFB226;" cx="397.5" cy="250.5" r="6.5"/>
	<path style="fill:#FB9617;" d="M404,250.5c0.001-1.277-0.375-2.526-1.08-3.59c0.052,0.361,0.079,0.725,0.08,1.09
		c-0.032,1.869-0.809,3.648-2.16,4.94c-0.078,0.078-0.205,0.078-0.283,0c-0.032-0.032-0.052-0.074-0.057-0.12
		c-0.174-1.138-0.864-2.131-1.87-2.69c-1.09-0.74-4.09-0.12-3.63-2.13s2-2.62,2-3.25c0-0.17-0.62-0.36-1.5-0.43
		c-3.415,1.106-5.287,4.772-4.18,8.187c0.453,1.398,1.366,2.601,2.59,3.413l0,0c0.234,0.152,0.478,0.289,0.73,0.41l0.15,0.07
		c0.258,0.124,0.526,0.228,0.8,0.31l0,0c0.268,0.081,0.542,0.141,0.82,0.18h0.21c0.491,0.064,0.989,0.064,1.48,0l0,0
		C401.41,256.579,403.953,253.824,404,250.5z"/>
	<path style="fill:#C69C6D;" d="M398.13,250c-0.63,0-1,0.88-2.38,3c-0.681,0.706-1.641,1.073-2.62,1c-0.63,0-1.1-0.85-1.13-2.18
		c0.01-1.017,0.238-2.019,0.67-2.94c0.41-1,1.07-2.46,4.2-4c0.44-0.22-0.26-0.92-1.75-0.91c-1.258,0.057-2.482,0.429-3.56,1.08
		c-1.64,0.92-4.14,3.9-4.29,6.26c-0.103,1.967-0.313,3.926-0.63,5.87l-15.55,21.91c-1.19,1.67-1.64,2.08-3.34,2.38l-5.28,1
		l-1.25,13.63c0,0,9.13-1.88,14.38-5.38c8.31-5.54,16.1-30.89,16.1-30.89s4.89-3.79,6-5.37c0.69-1.097,1.14-2.327,1.32-3.61
		c0.031-0.441-0.302-0.823-0.743-0.853C398.228,249.993,398.179,249.994,398.13,250z"/>
	<path style="fill:#1565C0;" d="M317.38,410L304,456l10,4c14.95-30,28-49,28-49v-46l-28-0.34V366C314,382,317.38,410,317.38,410z"/>
	<path style="fill:#C69C6D;" d="M335,275v-2c0-2.63-4.41-11.19-0.74-19c4.94-10.43,20.68-5.31,22.31-2.06c1,2,4.43,8.27,4.43,16.15
		c0,5.37-1.12,8-4.87,9.22c-1.474,0.477-2.977,0.861-4.5,1.15c-1.66,0.37-1.55,1.13-1.63,3.5c-0.06,1.74,1.57,3.68,0.18,4
		c-2.76,0.61-17.18,1-17.18,1l1.5-8.5C334.804,277.331,334.972,276.169,335,275z"/>
	<path style="fill:#444B54;" d="M335,273c-0.458-1.28-1.013-2.524-1.66-3.72c-1.22-2.44-5.12-8.86-1.45-16.63
		c4.94-10.43,15.51-9.09,20.64-6.84c2.867,1.403,5.198,3.702,6.64,6.55c0.75,1.49-3.65,2.85-11,0.41
		c-0.437,1.968-0.589,3.989-0.45,6C348.63,264.5,349,266,349,266c-0.978,0.362-1.98,0.653-3,0.87c-0.49-3.47-2.19-6.86-4.88-6.36
		c-4.47,0.83-1.64,5.72,0.88,9.49C342,270,341.08,272.94,335,273z"/>
	<path style="fill:#BBDEFB;" d="M368.13,298.75c2-1,3.83-2.34,3.86-3.12c0-0.28,0-0.54,0-0.75c-0.05-4.11-4.25-13.38-4.25-13.38
		c-5.87,0.63-13.75,0.5-17.75,0.5c0,3.75-3.62,3.81-4.5,3.75c-2-0.12-9.17-2.18-12.37-6.12C332.33,280.91,316,288,316,317v30h26
		l21-19v-22c0,0-0.67-3.48-1-5C364.095,300.399,366.144,299.647,368.13,298.75z"/>
	<path style="fill:#E0C18F;" d="M357,248c-6.86,2.14-23.95,9.18-27.49,12c-1.88,1.51-8,6.39-7.48,8c0.74,2.24,9.48,0.7,23.13-3.95
		c8.6-2.93,23.84-12.54,23.84-17c0-0.75-0.47-1-1.5-1C363.925,246.198,360.39,246.855,357,248z"/>
	<path style="fill:#EBD0A4;" d="M330,260.38c-0.234-1.959-0.568-3.905-1-5.83c-0.47-2.08-2-6.25-2-6.25
		c-0.311-1.415,0.434-2.85,1.77-3.41l17.89-7.65c1.295-0.562,2.806-0.146,3.63,1c0.937,2.084,2.037,4.09,3.29,6
		c1.035,1.395,2.175,2.708,3.41,3.93C356.99,248.17,332.61,260.87,330,260.38z"/>
	<path style="fill:#2C74C6;" d="M348.11,251.4c5.52-3.11,6.74-5.6,6.74-5.6l2.55,2.72c0.146,0.149,0.178,0.376,0.08,0.56
		c-0.6,1.19-3.4,5.55-13.78,9.47c-8.39,3.18-12.36,2.3-13.41,1.94c-0.177-0.059-0.305-0.215-0.33-0.4l-0.65-4.08
		C329.31,256.01,336.78,257.8,348.11,251.4z"/>
	<path style="fill:#205DA3;" d="M321.32,464.56c-2.39-1.6-6.32-3.24-3.49-8.56c3.71-7,9.17-16,9.17-16l-19-8l-7.94,28.62
		c-0.323,1.955,0.834,3.852,2.72,4.46c1.74,0.57,3.91,0.28,5.87,0.92c3.06,1,5.1,4,10.19,4H325C325,470,325,467,321.32,464.56z"/>
	<path style="fill:#2C74C6;" d="M355.87,308.13c0,0-2.29,11.65-7.56,19.87c-5,7.78-8.31,15-15.31,15c-5.62,0-10-3-10-11v-10
		c-5,0-7-1-7-1c0,7-2,34.94-2,44c0,16,22.13,44.38,22.13,44.38L342,460h12l5.78-50.86c0.15-1.174,0.21-2.357,0.18-3.54l-3.74-41.2
		c-0.098-1.048,0.144-2.1,0.69-3C359,358,364,348,364,332c0-5.8,0-20-1-26C360,307,355.87,308.13,355.87,308.13z"/>
	<path style="fill:#205DA3;" d="M338,440l1.77,28.25c0.132,2.111,1.885,3.754,4,3.75H366c0,0-0.06-4.64-7-6
		c-4.05-0.79-4.22-4.06-4-6c1-9,3.13-19.87,3.13-19.87L338,440z"/>
	<circle style="fill:#FFB226;" cx="363.5" cy="322.5" r="5.5"/>
	<path style="fill:#F7A125;" d="M366.67,318c0.48,0.83,0.83,2,0.21,2s-0.88-1-1.74-1c-1.11,0-0.23,2.75-1.14,5c0,0-2-3-5-3v7h5
		c3.058-0.085,5.469-2.633,5.385-5.691c-0.001-0.04-0.003-0.079-0.005-0.119C369.38,320.43,367.92,319,366.67,318z"/>
	<path style="fill:#C69C6D;" d="M350,329c0,0-1.54-12-2.64-18.63l-14.59,3.06c0,0,3,23.44,7.09,26.47
		c3.08,2.26,13.81,1.71,25.78-8.09c0.73-0.6,4.3-2.88,4.92-3.62c2.14-2.59,1.47-6.49,0.67-7.9c-0.978-1.55-2.733-2.432-4.56-2.29
		c0,0,2.33,2,2.33,4.25c0.094,0.867-0.532,1.647-1.4,1.742c-0.073,0.008-0.147,0.011-0.22,0.008c-0.67,0-1.23-1.35-1.38-3
		c-0.11-1.25-0.12-2-1-2c-0.58,0-1,0.73-1,2c0,2,0,2.63,0,3.51c-0.08,1.26-0.91,1.47-0.93,1.47c-0.72,0.25-2.18,0.8-2.19,0.8
		C352.61,328.28,350,329,350,329z"/>
	<path style="fill:#2C74C6;" d="M356.19,313.35c0.76-0.21,1.39-0.36,2.17-0.52C357.47,306.86,353,289,339,289c-16,0-19,19-19,40h3
		c0-20,2-38.13,16.13-38.13C351,290.87,355.6,308.45,356.19,313.35z"/>
	<path style="fill:#D6EBFD;" d="M339,293c7,0,9,6,9.85,14.43c0.56,5.45,1.15,12.05,1.15,12.05L332.73,323c0,0-1.38-6.85-2.42-14.38
		c-0.197-1.324-0.301-2.661-0.31-4C330,299,332,293,339,293z"/>
	<path style="fill:#4887CE;" d="M328,365c-6.5-1.08-13.45-2.86-13.95-3c0,1.14-0.05,2.15-0.05,3c0,5.73,2.84,13.05,6.49,20.09
		c0.39,0.28,1.86,1.18,5.51,1.91l2-1V365z"/>
	<path style="fill:#444B54;" d="M356.81,305.37c-0.093-0.283-0.398-0.437-0.682-0.344c-0.013,0.004-0.026,0.009-0.038,0.014
		l-1.52,0.65c-0.247,0.113-0.378,0.387-0.31,0.65l0.93,3.23c0.081,0.293,0.384,0.465,0.676,0.384
		c0.005-0.001,0.009-0.003,0.014-0.004l1.48-0.74c0.259-0.077,0.421-0.333,0.38-0.6C357.534,307.503,357.223,306.418,356.81,305.37z
		"/>
	<circle style="fill:#F7A125;" cx="354" cy="320" r="6"/>
	<path style="fill:#F5970C;" d="M349.28,324h9.18c0.988-1.098,1.537-2.523,1.54-4c-0.001-0.389-0.038-0.778-0.11-1.16
		c-0.38-0.46-1.76-1.84-5.09-1.84c-3.214-0.195-5.978,2.252-6.173,5.466c-0.003,0.051-0.006,0.103-0.007,0.154l0,0L349.28,324z"/>
	<path style="fill:#FFB93A;" d="M361,325.5c0.116,3.472-2.604,6.381-6.076,6.497c-0.081,0.003-0.162,0.004-0.244,0.003
		c-3.639,0.05-6.63-2.86-6.68-6.499c0,0,0-0.001,0-0.001c-0.116-3.472,2.604-6.381,6.076-6.497c0.081-0.003,0.162-0.004,0.244-0.003
		c3.639-0.05,6.63,2.86,6.68,6.499C361,325.499,361,325.5,361,325.5z"/>
	<path style="fill:#C69C6D;" d="M367,329l-4-3c0,0-8.46,2.72-11.87,2.63c-1.501-0.152-2.93-0.716-4.13-1.63v11L367,329z"/>
	<path style="fill:#A8D6FA;" d="M332.88,279.88l1.62-1.38c2.268,2.413,5.146,4.168,8.33,5.08c2.46,0.78,4.79,0.93,5.8,0.54
		c0.901-0.293,1.473-1.178,1.37-2.12c0.641,0.727,0.996,1.661,1,2.63c0,0.84-1,2.37-3.37,2.37
		C341.892,286.968,336.474,284.353,332.88,279.88z"/>
	<path style="fill:#A2D2FA;" d="M356,288c2.562,4.051,4.579,8.422,6,13l1-0.3C363,297.93,360.84,292.35,356,288z"/>
	<path style="fill:#444B54;" d="M357.37,271.92c-0.34,0.56-0.64-2,0-3.32s2.2-2.6,3.44-2.6c0.728,0.192,1.214,0.879,1.15,1.63
		c0,0.34-0.09,0.51-0.5,0.75c-1.073,0.328-2.071,0.861-2.94,1.57C357.87,270.6,357.88,271.08,357.37,271.92z"/>
</g>
</svg>
