<?xml version="1.0" encoding="iso-8859-1"?>
<!-- Generator: Adobe Illustrator 22.1.0, SVG Export Plug-In . SVG Version: 6.00 Build 0)  -->
<svg version="1.1" id="Layer_1" xmlns="http://www.w3.org/2000/svg" xmlns:xlink="http://www.w3.org/1999/xlink" x="0px" y="0px"
	 viewBox="0 0 800 600" style="enable-background:new 0 0 800 600;" xml:space="preserve">
<rect style="fill:#FFFFFF;" width="800" height="600"/>
<title>elete_confirmation</title>
<radialGradient id="SVGID_1_" cx="398.5" cy="10.6872" r="333.46" gradientTransform="matrix(1 0 0 1.13 0 493.02)" gradientUnits="userSpaceOnUse">
	<stop  offset="0" style="stop-color:#FFFFFF;stop-opacity:0"/>
	<stop  offset="0.09" style="stop-color:#FFFFFF;stop-opacity:0.02"/>
	<stop  offset="0.22" style="stop-color:#FFFFFF;stop-opacity:0.09"/>
	<stop  offset="0.36" style="stop-color:#FFFFFF;stop-opacity:0.2"/>
	<stop  offset="0.52" style="stop-color:#FFFFFF;stop-opacity:0.35"/>
	<stop  offset="0.69" style="stop-color:#FFFFFF;stop-opacity:0.55"/>
	<stop  offset="0.86" style="stop-color:#FFFFFF;stop-opacity:0.79"/>
	<stop  offset="1" style="stop-color:#FFFFFF"/>
</radialGradient>
<rect y="67" style="fill:url(#SVGID_1_);" width="800" height="466"/>
<g>
	<rect style="fill:#E0E0E0;" width="800" height="395"/>
	<g>
		<path style="fill:none;stroke:#FFFFFF;stroke-width:10;stroke-miterlimit:10;" d="M418.87,264h-37.78
			c-10.725-0.007-20.638,5.712-26,15l-19,33c-5.328,9.262-5.328,20.658,0,29.92l19,33c5.362,9.288,15.275,15.007,26,15h37.78
			c10.725,0.007,20.638-5.712,26-15l19-33c5.328-9.262,5.328-20.658,0-29.92l-19-33C439.508,269.712,429.595,263.993,418.87,264z"/>
		<path style="fill:none;stroke:#FFFFFF;stroke-width:10;stroke-miterlimit:10;" d="M418.87,138h-37.78
			c-10.725-0.007-20.638,5.712-26,15l-19,33c-5.328,9.262-5.328,20.658,0,29.92l19,33c5.362,9.288,15.275,15.007,26,15h37.78
			c10.725,0.007,20.638-5.712,26-15l19-33c5.328-9.262,5.328-20.658,0-29.92l-19-33C439.508,143.712,429.595,137.993,418.87,138z"/>
		<path style="fill:none;stroke:#FFFFFF;stroke-width:10;stroke-miterlimit:10;" d="M418.87,12h-37.78
			c-10.725-0.007-20.638,5.712-26,15l-19,33c-5.328,9.262-5.328,20.658,0,29.92l19,33c5.362,9.288,15.275,15.007,26,15h37.78
			c10.725,0.007,20.638-5.712,26-15l19-33c5.328-9.262,5.328-20.658,0-29.92l-19-33C439.508,17.712,429.595,11.993,418.87,12z"/>
		<path style="fill:none;stroke:#FFFFFF;stroke-width:10;stroke-miterlimit:10;" d="M527.64,327h-37.79
			c-10.725-0.007-20.638,5.712-26,15l-19,33c-5.328,9.262-5.328,20.658,0,29.92l19,33c5.362,9.288,15.275,15.007,26,15h37.79
			c10.725,0.007,20.638-5.712,26-15l19-33c5.328-9.262,5.328-20.658,0-29.92l-19-33C548.278,332.712,538.365,326.993,527.64,327z"/>
		<path style="fill:none;stroke:#FFFFFF;stroke-width:10;stroke-miterlimit:10;" d="M527.64,201h-37.79
			c-10.725-0.007-20.638,5.712-26,15l-19,33c-5.328,9.262-5.328,20.658,0,29.92l19,33c5.362,9.288,15.275,15.007,26,15h37.79
			c10.725,0.007,20.638-5.712,26-15l19-33c5.328-9.262,5.328-20.658,0-29.92l-19-33C548.278,206.712,538.365,200.993,527.64,201z"/>
		<path style="fill:none;stroke:#FFFFFF;stroke-width:10;stroke-miterlimit:10;" d="M527.64,75h-37.79
			c-10.725-0.007-20.638,5.712-26,15l-19,33c-5.328,9.262-5.328,20.658,0,29.92l19,33c5.362,9.288,15.275,15.007,26,15h37.79
			c10.725,0.007,20.638-5.712,26-15l19-33c5.328-9.262,5.328-20.658,0-29.92l-19-33C548.278,80.712,538.365,74.993,527.64,75z"/>
		<path style="fill:none;stroke:#FFFFFF;stroke-width:10;stroke-miterlimit:10;" d="M636.37,264h-37.79
			c-10.725-0.007-20.638,5.712-26,15l-19,33c-5.328,9.262-5.328,20.658,0,29.92l19,33c5.362,9.288,15.275,15.007,26,15h37.79
			c10.725,0.007,20.638-5.712,26-15l19-33c5.328-9.262,5.328-20.658,0-29.92l-19-33C657.008,269.712,647.095,263.993,636.37,264z"/>
		<path style="fill:none;stroke:#FFFFFF;stroke-width:10;stroke-miterlimit:10;" d="M636.37,138h-37.79
			c-10.725-0.007-20.638,5.712-26,15l-19,33c-5.328,9.262-5.328,20.658,0,29.92l19,33c5.362,9.288,15.275,15.007,26,15h37.79
			c10.725,0.007,20.638-5.712,26-15l19-33c5.328-9.262,5.328-20.658,0-29.92l-19-33C657.008,143.712,647.095,137.993,636.37,138z"/>
		<path style="fill:none;stroke:#FFFFFF;stroke-width:10;stroke-miterlimit:10;" d="M636.37,12h-37.79
			c-10.725-0.007-20.638,5.712-26,15l-19,33c-5.328,9.262-5.328,20.658,0,29.92l19,33c5.362,9.288,15.275,15.007,26,15h37.79
			c10.725,0.007,20.638-5.712,26-15l19-33c5.328-9.262,5.328-20.658,0-29.92l-19-33C657.008,17.712,647.095,11.993,636.37,12z"/>
		<path style="fill:none;stroke:#FFFFFF;stroke-width:10;stroke-miterlimit:10;" d="M745.14,327h-37.79
			c-10.725-0.007-20.638,5.712-26,15l-19,33c-5.328,9.262-5.328,20.658,0,29.92l19,33c5.362,9.288,15.275,15.007,26,15h37.79
			c10.725,0.007,20.638-5.712,26-15l19-33c5.328-9.262,5.328-20.658,0-29.92l-19-33C765.778,332.712,755.865,326.993,745.14,327z"/>
		<path style="fill:none;stroke:#FFFFFF;stroke-width:10;stroke-miterlimit:10;" d="M745.14,201h-37.79
			c-10.725-0.007-20.638,5.712-26,15l-19,33c-5.328,9.262-5.328,20.658,0,29.92l19,33c5.362,9.288,15.275,15.007,26,15h37.79
			c10.725,0.007,20.638-5.712,26-15l19-33c5.328-9.262,5.328-20.658,0-29.92l-19-33C765.778,206.712,755.865,200.993,745.14,201z"/>
		<path style="fill:none;stroke:#FFFFFF;stroke-width:10;stroke-miterlimit:10;" d="M745.14,75h-37.79
			c-10.725-0.007-20.638,5.712-26,15l-19,33c-5.328,9.262-5.328,20.658,0,29.92l19,33c5.362,9.288,15.275,15.007,26,15h37.79
			c10.725,0.007,20.638-5.712,26-15l19-33c5.328-9.262,5.328-20.658,0-29.92l-19-33C765.778,80.712,755.865,74.993,745.14,75z"/>
		<path style="fill:none;stroke:#FFFFFF;stroke-width:10;stroke-miterlimit:10;" d="M201.38,264H163.6
			c-10.725-0.007-20.638,5.712-26,15l-19,33c-5.328,9.262-5.328,20.658,0,29.92l19,33c5.362,9.288,15.275,15.007,26,15h37.78
			c10.725,0.007,20.638-5.712,26-15l19-33c5.328-9.262,5.328-20.658,0-29.92l-19-33C222.018,269.712,212.105,263.993,201.38,264z"/>
		<path style="fill:none;stroke:#FFFFFF;stroke-width:10;stroke-miterlimit:10;" d="M201.38,138H163.6
			c-10.725-0.007-20.638,5.712-26,15l-19,33c-5.328,9.262-5.328,20.658,0,29.92l19,33c5.362,9.288,15.275,15.007,26,15h37.78
			c10.725,0.007,20.638-5.712,26-15l19-33c5.328-9.262,5.328-20.658,0-29.92l-19-33C222.018,143.712,212.105,137.993,201.38,138z"/>
		<path style="fill:none;stroke:#FFFFFF;stroke-width:10;stroke-miterlimit:10;" d="M201.38,12H163.6
			c-10.725-0.007-20.638,5.712-26,15l-19,33c-5.328,9.262-5.328,20.658,0,29.92l19,33c5.362,9.288,15.275,15.007,26,15h37.78
			c10.725,0.007,20.638-5.712,26-15l19-33c5.328-9.262,5.328-20.658,0-29.92l-19-33C222.018,17.712,212.105,11.993,201.38,12z"/>
		<path style="fill:none;stroke:#FFFFFF;stroke-width:10;stroke-miterlimit:10;" d="M310.15,327h-37.79
			c-10.725-0.007-20.638,5.712-26,15l-19,33c-5.328,9.262-5.328,20.658,0,29.92l19,33c5.362,9.288,15.275,15.007,26,15h37.79
			c10.725,0.007,20.638-5.712,26-15l19-33c5.328-9.262,5.328-20.658,0-29.92l-19-33C330.788,332.712,320.875,326.993,310.15,327z"/>
		<path style="fill:none;stroke:#FFFFFF;stroke-width:10;stroke-miterlimit:10;" d="M310.15,201h-37.79
			c-10.725-0.007-20.638,5.712-26,15l-19,33c-5.328,9.262-5.328,20.658,0,29.92l19,33c5.362,9.288,15.275,15.007,26,15h37.79
			c10.725,0.007,20.638-5.712,26-15l19-33c5.328-9.262,5.328-20.658,0-29.92l-19-33C330.788,206.712,320.875,200.993,310.15,201z"/>
		<path style="fill:none;stroke:#FFFFFF;stroke-width:10;stroke-miterlimit:10;" d="M310.15,75h-37.79
			c-10.725-0.007-20.638,5.712-26,15l-19,33c-5.328,9.262-5.328,20.658,0,29.92l19,33c5.362,9.288,15.275,15.007,26,15h37.79
			c10.725,0.007,20.638-5.712,26-15l19-33c5.328-9.262,5.328-20.658,0-29.92l-19-33C330.788,80.712,320.875,74.993,310.15,75z"/>
		<path style="fill:none;stroke:#FFFFFF;stroke-width:10;stroke-miterlimit:10;" d="M92.65,327H54.86
			c-10.725-0.007-20.638,5.712-26,15l-19,33c-5.328,9.262-5.328,20.658,0,29.92l19,33c5.362,9.288,15.275,15.007,26,15h37.79
			c10.725,0.007,20.638-5.712,26-15l19-33c5.328-9.262,5.328-20.658,0-29.92l-19-33C113.288,332.712,103.375,326.993,92.65,327z"/>
		<path style="fill:none;stroke:#FFFFFF;stroke-width:10;stroke-miterlimit:10;" d="M92.65,201H54.86
			c-10.725-0.007-20.638,5.712-26,15l-19,33c-5.328,9.262-5.328,20.658,0,29.92l19,33c5.362,9.288,15.275,15.007,26,15h37.79
			c10.725,0.007,20.638-5.712,26-15l19-33c5.328-9.262,5.328-20.658,0-29.92l-19-33C113.288,206.712,103.375,200.993,92.65,201z"/>
		<path style="fill:none;stroke:#FFFFFF;stroke-width:10;stroke-miterlimit:10;" d="M92.65,75H54.86
			c-10.725-0.007-20.638,5.712-26,15l-19,33c-5.328,9.262-5.328,20.658,0,29.92l19,33c5.362,9.288,15.275,15.007,26,15h37.79
			c10.725,0.007,20.638-5.712,26-15l19-33c5.328-9.262,5.328-20.658,0-29.92l-19-33C113.288,80.712,103.375,74.993,92.65,75z"/>
		<rect y="385" style="fill:#FFFFFF;" width="800" height="10"/>
		
			<radialGradient id="SVGID_2_" cx="398.5" cy="113.2728" r="327.33" gradientTransform="matrix(1 0 0 -1.13 0 549.39)" gradientUnits="userSpaceOnUse">
			<stop  offset="0" style="stop-color:#FFFFFF;stop-opacity:0"/>
			<stop  offset="0.09" style="stop-color:#FFFFFF;stop-opacity:0.02"/>
			<stop  offset="0.22" style="stop-color:#FFFFFF;stop-opacity:0.09"/>
			<stop  offset="0.36" style="stop-color:#FFFFFF;stop-opacity:0.2"/>
			<stop  offset="0.52" style="stop-color:#FFFFFF;stop-opacity:0.35"/>
			<stop  offset="0.69" style="stop-color:#FFFFFF;stop-opacity:0.55"/>
			<stop  offset="0.86" style="stop-color:#FFFFFF;stop-opacity:0.79"/>
			<stop  offset="1" style="stop-color:#FFFFFF"/>
		</radialGradient>
		<rect style="fill:url(#SVGID_2_);" width="800" height="448"/>
	</g>
</g>
<g>
	<g>
		<path style="fill:#424242;" d="M470.13,474h81.74c2.292,0.002,4.44-1.119,5.75-3l15.92-24.09c0-3.91-0.23-5.42-4.2-7.23l-30.77-15
			c-0.911-0.413-1.9-0.628-2.9-0.63h-49.34c-1,0.002-1.989,0.217-2.9,0.63l-30.77,15c-4,1.81-4.2,3.32-4.2,7.23L464.38,471
			C465.69,472.881,467.838,474.002,470.13,474z"/>
		<path style="fill:#E0E0E0;" d="M447.69,445.65l0.77,1.25L485,428v-7l-34.59,17.61C447.27,440.22,446.14,443.15,447.69,445.65z"/>
		<path style="fill:#E0E0E0;" d="M571.59,438.61L537,421v7l36.54,18.9l0.77-1.25C575.86,443.15,574.73,440.22,571.59,438.61z"/>
		<polygon style="fill:#EEEEEE;" points="536.99,421 485,421 485,421 485,428 536.99,428 537,421 		"/>
	</g>
	<g>
		<circle style="fill:#FFFFFF;" cx="536" cy="468" r="1"/>
		<circle style="fill:#FFFFFF;" cx="556" cy="459" r="1"/>
		<circle style="fill:#FFFFFF;" cx="487" cy="459" r="1"/>
		<circle style="fill:#FFFFFF;" cx="557" cy="450" r="1"/>
		<circle style="fill:#FFFFFF;" cx="530" cy="453" r="1"/>
		<ellipse style="fill:#FFFFFF;" cx="506.51" cy="453.5" rx="1.49" ry="1.5"/>
		<ellipse style="fill:#FFFFFF;" cx="499.49" cy="447.5" rx="1.49" ry="1.5"/>
		<circle style="fill:#FFFFFF;" cx="484" cy="436" r="1"/>
		<circle style="fill:#FFFFFF;" cx="470.5" cy="454.5" r="0.5"/>
		<circle style="fill:#FFFFFF;" cx="476" cy="463" r="1"/>
		<circle style="fill:#FFFFFF;" cx="511" cy="470" r="1"/>
		<circle style="fill:#FFFFFF;" cx="528.5" cy="434.5" r="0.5"/>
		<circle style="fill:#FFFFFF;" cx="473" cy="441" r="1"/>
		<circle style="fill:#FFFFFF;" cx="503" cy="459" r="1"/>
		<circle style="fill:#FFFFFF;" cx="549" cy="443" r="1"/>
	</g>
</g>
<g>
	<path style="fill:#FFE0B2;" d="M495,432c0.051,1.689-0.158,3.375-0.62,5c-0.311,0.618-0.442,1.311-0.38,2v1.5
		c0,0.85-0.46,1.5-1.12,1.5c-0.13,0-0.259-0.024-0.38-0.07c-2.62-1-2.5-2.43-2.5-3.68c0.065-2.117,0.401-4.218,1-6.25
		C492,431,493,431,495,432z"/>
	<path style="fill:#A488D4;" d="M513,386l-12-6c0,0-9.85,18.63-10.94,27.83l0,0C490,416,490.73,429.47,491,432h4
		c0.53-8.58,2-23,2-23L513,386z"/>
	<path style="fill:#A488D4;" d="M501.93,272.43l-0.28,0.42c0,0-2,2.29,1,5.4c2.63,2.54,3,4.07,2.89,4.93
		c-0.029,0.194-0.086,0.383-0.17,0.56l-15.26,21.89c-0.91,1.005-1.299,2.377-1.05,3.71l8.23,35.54l3.77-29.26
		c0,0-1.48-5.56-1.07-7.62c2.72-2.89,7.36-14.7,9.65-20l0,0c0.19-0.4,0.77-1.84,0.93-2.08c0.65-1,2.16-2.12,3-3.4l1.12-1.71
		L501.93,272.43z"/>
	<path style="fill:#FFE0B2;" d="M521,401c0-3.25-2.87-6.62-7.25-8.62c-2.795-1.037-5.773-1.49-8.75-1.33
		c-3,0.42-3.13,4.23-2.94,5.51c1.39,9.81,6.49,11.54,11.07,11.44c0.806-0.024,1.611-0.091,2.41-0.2
		C518.783,407.182,521.098,404.3,521,401z"/>
	<path style="fill:#FFE0B2;" d="M507,387.5c0.133,1.741-0.619,3.432-2,4.5c2,1,10,1,10,1v-1c0,0-1-1-1-4.62
		c0.32-6.68-10.68-6.74-10.93-5.65C504.9,383.09,507,385.13,507,387.5z"/>
	<path style="fill:#B39DDB;" d="M537.12,300.73c-0.9,4.72-2.51,5.09-3.12,5.27l-30.25-1c-2.12,0.044-3.913,1.582-4.28,3.67
		c-2.132,9.974-3.294,20.132-3.47,30.33c0,2.9,0.5,5.87,0.74,8.54c0,0.24,0,0.49,0,0.72C497.28,356.67,498,365,498,365c0,3-1,8-1,11
		c0,2.71,7.27,9,10,11c0,0,0.76-1,3-1c1.404-0.082,2.8,0.267,4,1c1.46-2.586,2.154-5.534,2-8.5c0-8.5-5-15.75-5-21.5
		c0-5,2-9.12,2-14.37c0-5.86-0.26-13.72-5-28.63c1.523,0.719,3.197,1.062,4.88,1c7.1,0,18.23-3.37,21.1-3.37
		c1.16,0,4,0.37,5.52,0.37h2v-15H541C541,297,538.05,296.6,537.12,300.73z"/>
	<path style="fill:#FFE7C4;" d="M478.77,405.75c-0.46,0.76-0.69,0.9-0.75,1.38c-0.12,0.91,0.25,1.5,1.31,2.84
		c0.532,0.654,1.337,1.024,2.18,1c0.521-0.014,1.015-0.238,1.37-0.62c0.798-0.785,1.208-1.884,1.12-3c0-0.95,0-2.13,0-3.38
		c-1.379-0.113-2.73-0.451-4-1C479.676,403.932,479.264,404.863,478.77,405.75z"/>
	<path style="fill:#FFE0B2;" d="M495,432c0,1.37,1,1.87,1,4.37c0,1,0,2.75,0,3.13s0,0.5-0.25,0.5c-0.49,0-1-0.63-1-1.38
		c-0.012-0.561-0.141-1.113-0.38-1.62C493.38,437,494,434,495,432z"/>
	<path style="fill:#C4B4E3;" d="M508.5,371c-3.44,0-8,1.27-12.5,3.13c-5.372,2.276-10.417,5.259-15,8.87
		c-0.721,3.283-1.057,6.639-1,10v10c0.49,0.353,1.043,0.608,1.63,0.75c0.78,0.163,1.574,0.247,2.37,0.25l3.41-16.7
		c2.308-1.202,4.725-2.18,7.22-2.92c4.36-1.3,6.81-2,12.12-3.13c4.63-1,7.25-2.37,7.25-5.25C514,374.83,514,371,508.5,371z"/>
	<polygon style="fill:#757575;" points="515,280.39 513.88,282.09 501.65,272.85 502.21,272 	"/>
	<polygon style="fill:#757575;" points="542,312 540,312 541,297 542,297 	"/>
	<path style="fill:#FB8C00;" d="M523,420.13c0-1.84-2-2.13-2-5.5c0-2.44,2-3.63,2-5.25c0-2-2-2.38-2-4.75c0-1.65,1-2.5,1-4.88
		c0-5.8-3.12-7.75-7-7.75c-1,0-2,1-2,4.38c0,4.87-2,2.62-2.5,4.75c-0.44,1.88-2.75,4.49-4.5,4.49c0,3.38,2,4.38,2,5.76
		c0,1.62-1,1.62-1,3.62s2,2,2,3.5s-1,1.55-1,3.63c0,3,3,1.87,3,4.37c0,2-1,4.34-1,6.37c0,1.42,0.3,2.88,2.5,3.13
		c4.69,0.54,2.5,3.62,2.5,6.63c0,1.25,0.13,2.37,0.5,2.37c0.75,0,1.75-3,2.75-5.5c0.93-2.33,1.75-3.25,1.75-5.25
		c0-2.41-1-3.78-1-5.25C519,425.75,523,423.5,523,420.13z"/>
</g>
<g>
	<path style="fill:#26B49F;" d="M385,434c0,7,4,11.5,16,19c9.67,6,12,12,18,26c3.83,8.93,16.12,15.78,20,16c-0.38,0-20.07,0-28-8
		c-8.49-8.53-12.51-18-22-18c-18,0-32,1-47-29c-7.44-14.89-16-28-28-28c-13,0-14,11-33,26c-4.5,3.55-19.21,11-24,11
		c-26,0-28.92-10.36-41-20c-14.75-11.77-36.26-5.23-37-5c8.401-5.234,18.102-8.006,28-8c7.615-0.004,15.134,1.705,22,5
		c4.05,1.91,7.64,3,11,3c10.76,0,18.62-9.08,27-22c12.91-20,11.18-30,22-57c16.83-42.06,37-56,37-56s-0.52-3.62-0.81-9.74
		c-0.11-2.39-0.19-5.17-0.19-8.26c0-0.33,0-0.65,0-1c0.15-17.67,4.56-35.22,17-51c-4.442-5.73-6.899-12.75-7-20c0-11,4-18,4-18
		s11.09,13,34,13c26.28,0,55,17.88,55,53c0,18.47-4.72,30.32-9.58,38.32L418,286l-0.34,0.52c-0.2,0.28-0.46,0.67-0.78,1.15
		c0,0-4.22,2.84-5.88,5.33c-1.168,1.581-1.693,3.547-1.47,5.5l-0.78,1.16l-0.74,1.11c-2,3-3.66,5.53-4,6.21
		c-0.726,1.914-1.066,3.954-1,6c-0.1,6.24,2.23,13.85,3,20c2,16,2.5,24,6,40c3.84,17.55,13,30,27,30c12,0,19-6,19-15c0-7-5-9-9-9
		c-6,0-8,4-8,4s2-9,11-9c8,0,15,6,15,19c0,16-19,32-36,32c-18,0-21-7-31-7C388,418,385,428,385,434z"/>
	<path style="fill:#75C7B2;" d="M439,495c-3.301,0.601-6.645,0.936-10,1c-3.034,0.034-6.059-0.326-9-1.07
		c-1.589-0.422-3.141-0.974-4.64-1.65c-1-0.43-1.93-0.93-2.92-1.49c-1.737-0.989-3.408-2.091-5-3.3
		c-1.073-0.82-2.177-1.723-3.31-2.71c-1.273-1.1-2.607-2.32-4-3.66l-0.9-0.89c-0.539-0.66-1.127-1.279-1.76-1.85
		c-1.616-1.394-3.464-2.494-5.46-3.25c-1.301-0.51-2.638-0.921-4-1.23c-1.87-0.425-3.768-0.716-5.68-0.87h-0.36
		c-1.06-0.08-2.13-0.16-3.23-0.26c-2.2-0.19-4.47-0.44-6.74-0.8c-1.41-0.23-2.82-0.5-4.21-0.83c-1.949-0.457-3.861-1.059-5.72-1.8
		c-1.788-0.717-3.503-1.604-5.12-2.65c-0.33-0.21-0.66-0.43-1-0.66c-1.38-0.993-2.697-2.023-3.95-3.09
		c-1.473-1.273-2.867-2.583-4.18-3.93c-1.33-1.36-2.59-2.75-3.8-4.17l0,0c-1.02-1.3-2.02-2.59-3.02-3.84
		c-1.27-1.63-2.48-3.26-3.65-4.87C329.15,436,322.76,426,311,426c-5.66,0-10.2,3-18.5,8.5c-5.953,4.252-12.129,8.185-18.5,11.78
		c-1.87,1-3.8,2-5.77,2.86c-3.381,1.554-6.895,2.799-10.5,3.72c-1.902,0.477-3.838,0.811-5.79,1l0,0c-1,0.09-1.95,0.14-2.92,0.14
		c-4.358,0.105-8.697-0.597-12.8-2.07l0,0c-1.312-0.503-2.58-1.115-3.79-1.83c-1.519-0.904-2.94-1.963-4.24-3.16
		c-1.444-1.328-2.797-2.751-4.05-4.26c-0.77-0.9-1.52-1.8-2.27-2.7c-0.28-0.33-0.55-0.66-0.83-1c-0.92-1.07-1.86-2.22-2.88-3.4
		c-0.66-0.79-1.37-1.59-2.12-2.38c-1.35-1.453-2.818-2.791-4.39-4c-0.56-0.44-1.14-0.86-1.76-1.27
		c-1.646-1.094-3.407-2.006-5.25-2.72c-0.852-0.346-1.723-0.639-2.61-0.88c-1.538-0.458-3.109-0.792-4.7-1
		c-0.88-0.12-1.79-0.21-2.73-0.26S192.88,423,192,423h-1.5c-3.854,0.016-7.701,0.35-11.5,1c0,0,7-4,20-4c25,0,29,21,48,21
		c9,0,17.35-5.68,19.5-7.5c6.5-5.5,8.5-6.5,17-10c6.83-2.81,7-6.75,9.5-11.5s7-11,17-11c5,0,8.45,2.45,11,5c4.74,4.74,10.71,4,15,12
		c7,13,16.5,23.5,18,30c1.59,6.89,11,14,18,14s7.79,3,15,3c6,0,11-1,17,6c2.68,3.13,8,13,12,17C422.08,494.08,439,495,439,495z"/>
	<path style="fill:#75C7B2;" d="M467,393c0.003,1.336-0.07,2.672-0.22,4c-0.12,1.06-0.28,2.11-0.5,3.14
		c-0.33,1.633-0.789,3.238-1.37,4.8c-0.484,1.288-1.048,2.544-1.69,3.76c-0.768,1.446-1.647,2.831-2.63,4.14
		c-0.5,0.67-1,1.32-1.58,1.95c-1.32,1.498-2.773,2.873-4.34,4.11c-0.72,0.58-1.48,1.13-2.27,1.66c-1.929,1.294-3.971,2.412-6.1,3.34
		l0,0c-1.08,0.48-2.2,0.92-3.36,1.31c-1.962,0.678-3.966,1.226-6,1.64c-1.31,0.27-2.67,0.5-4.06,0.67
		c-2.16,0.275-4.333,0.435-6.51,0.48H425c-1.053,0-2.053-0.02-3-0.06c-2-0.08-3.76-0.23-5.36-0.44c-1.82-0.235-3.626-0.569-5.41-1
		c-1.76-0.4-3.29-0.84-4.72-1.23c-1.566-0.47-3.159-0.844-4.77-1.12l0,0c-0.57-0.09-1.14-0.15-1.73-0.19
		c-0.932-0.001-1.863,0.045-2.79,0.14c-1.244,0.119-2.473,0.36-3.67,0.72l0,0c-1.509,0.457-2.917,1.197-4.15,2.18
		c-3.46,2.68-4.46,6.87-3.86,11.05c-2.335-4.314-3.552-9.144-3.54-14.05c0-6.68,2.9-16,11-16c6,0,9.92,6,16,6c11.47,0,15,6,24,6
		c6,0,7-2.42,12-3c5.13-0.6,7.16-2.34,9-5c1.59-2.31,3-5,5-8c2.35-3.53,4-4,4-10c0-7,0.23-9,1.23-13c0.759,1.244,1.335,2.591,1.71,4
		c0.362,1.262,0.63,2.548,0.8,3.85c0.12,1,0.21,2,0.24,3.2C467,392.36,467,392.68,467,393z"/>
	<g>
		<path style="fill:#94D4CB;" d="M393.54,424.86c1.004-1.968,0.223-4.377-1.745-5.381c-1.968-1.004-4.377-0.223-5.381,1.745
			c-1.004,1.968-0.223,4.377,1.745,5.381c0.389,0.199,0.809,0.332,1.241,0.395L393.54,424.86z"/>
		<path style="fill:#94D4CB;" d="M403,421.5c-0.001,1.039-0.463,2.024-1.26,2.69l0,0c-0.57-0.09-1.14-0.15-1.73-0.19
			c-0.932-0.001-1.863,0.045-2.79,0.14c-1.467-1.259-1.635-3.469-0.375-4.935s3.469-1.635,4.935-0.375
			C402.559,419.498,403.005,420.474,403,421.5z"/>
		<path style="fill:#94D4CB;" d="M413,423.5c-0.013,1.244-0.687,2.387-1.77,3c-1.76-0.4-3.29-0.84-4.72-1.23
			c-0.336-0.544-0.513-1.171-0.51-1.81c0-1.933,1.567-3.5,3.5-3.5s3.5,1.567,3.5,3.5V423.5z"/>
		<path style="fill:#94D4CB;" d="M423,425.5c0.002,0.913-0.358,1.791-1,2.44c-2-0.08-3.76-0.23-5.36-0.44
			c-0.42-0.582-0.644-1.282-0.64-2c0-1.933,1.567-3.5,3.5-3.5S423,423.567,423,425.5L423,425.5z"/>
		<path style="fill:#94D4CB;" d="M433,426.5c0,0.339-0.05,0.676-0.15,1c-2.16,0.275-4.333,0.435-6.51,0.48
			c-0.225-0.464-0.342-0.974-0.34-1.49c0-1.933,1.567-3.5,3.5-3.5s3.5,1.567,3.5,3.5V426.5z"/>
		<path style="fill:#94D4CB;" d="M443,424.5c0.002,0.235-0.021,0.47-0.07,0.7c-1.962,0.678-3.966,1.226-6,1.64
			c-0.589-0.636-0.914-1.473-0.91-2.34c0-1.933,1.567-3.5,3.5-3.5s3.5,1.567,3.5,3.5L443,424.5z"/>
		<path style="fill:#94D4CB;" d="M452.4,420.55c-1.929,1.294-3.971,2.412-6.1,3.34l0,0c-0.193-0.438-0.291-0.912-0.29-1.39
			c0.005-1.933,1.577-3.496,3.51-3.49c1.159,0.003,2.241,0.58,2.89,1.54L452.4,420.55z"/>
		<path style="fill:#94D4CB;" d="M459,414.78c-1.32,1.498-2.773,2.873-4.34,4.11c-1.03-1.298-0.814-3.185,0.484-4.215
			C456.284,413.77,457.91,413.814,459,414.78z"/>
		<path style="fill:#94D4CB;" d="M463.22,408.69c-0.768,1.446-1.647,2.831-2.63,4.14c-1.287-0.5-1.924-1.949-1.424-3.236
			c0.374-0.962,1.301-1.595,2.334-1.594C462.142,407.996,462.759,408.244,463.22,408.69z"/>
		<path style="fill:#94D4CB;" d="M466.28,400.13c-0.33,1.633-0.789,3.238-1.37,4.8c-1.342-0.324-2.167-1.675-1.843-3.017
			c0.272-1.123,1.277-1.914,2.433-1.913C465.766,399.997,466.03,400.041,466.28,400.13z"/>
		<path style="fill:#94D4CB;" d="M467,393c0.003,1.336-0.07,2.672-0.22,4h-0.28c-1.381,0-2.5-1.119-2.5-2.5s1.119-2.5,2.5-2.5
			c0.161,0.001,0.322,0.018,0.48,0.05C467,392.36,467,392.68,467,393z"/>
		<path style="fill:#94D4CB;" d="M466.74,388.85c-0.234,0.1-0.486,0.151-0.74,0.15c-1.105,0.017-2.013-0.865-2.03-1.97
			s0.865-2.013,1.97-2.03C466.302,386.262,466.57,387.548,466.74,388.85z"/>
	</g>
	<g>
		<path style="fill:#26B49F;" d="M506,297c-5.78,6.11-18,6-24,6c-19,0-22,4-34,22c-11.38,17.07-34,38-55,38h-1.2h-0.05
			c-17.26-0.45-27.75-10.41-27.75-26c0-7,3-19,19-19c7.8,0,12,4,25,4c14,0,25.53-12.12,35-19c11-8,19.39-9,28-9s13,2,21,2
			c7.542,0.148,14.606-3.681,18.6-10.08C510.6,285.92,511.28,291.41,506,297z"/>
		<path style="fill:#75C7B2;" d="M511,289c0,0.35,0,0.72-0.05,1.11c-0.086,0.826-0.261,1.641-0.52,2.43l0,0
			c-0.186,0.55-0.413,1.085-0.68,1.6c-0.601,1.146-1.377,2.192-2.3,3.1c-0.569,0.573-1.184,1.098-1.84,1.57
			c-1.073,0.776-2.218,1.446-3.42,2c-0.68,0.32-1.41,0.64-2.2,0.94c-1.13,0.42-2.37,0.82-3.74,1.18c-0.73,0.19-1.51,0.38-2.32,0.54
			c-1.22,0.26-2.52,0.49-3.92,0.69c-0.98,0.14-2.01,0.26-3.09,0.36c-1.19,0.12-2.43,0.22-3.73,0.29c-1,0.05-2.09,0.1-3.19,0.12
			s-2,0-3,0c-0.34,0-0.67,0-1,0c-1.008,0.039-2.011,0.159-3,0.36c-1.583,0.305-3.124,0.798-4.59,1.47
			c-0.991,0.45-1.95,0.967-2.87,1.55c-1.68,1.071-3.254,2.3-4.7,3.67c-0.92,0.85-1.83,1.78-2.74,2.78
			c-1.273,1.407-2.537,2.947-3.79,4.62c-0.78,1-1.55,2.09-2.33,3.21s-1.42,2.08-2.14,3.18l0,0c-0.75,1.15-1.51,2.33-2.28,3.56
			c-0.913,1.46-1.837,2.977-2.77,4.55c-0.59,1-1.19,2-1.79,3l-0.12,0.19c-0.79,1.323-1.673,2.59-2.64,3.79
			c-1.018,1.264-2.109,2.466-3.27,3.6c-1.201,1.166-2.459,2.27-3.77,3.31c-1.4,1.12-2.88,2.17-4.4,3.17c-1,0.66-2.07,1.31-3.13,1.92
			c-1.39,0.8-2.81,1.55-4.24,2.26c-1.77,0.87-3.57,1.68-5.36,2.41c-8.69,3.66-17.34,5.47-23.07,5.47h-1.2c2.65-0.11,12-1.69,18.2-6
			c8.37-5.82,7.08-9.54,18-15c12-6,9.78-19.48,18-23c7-3,6-8,11-13c5.52-5.52,11-6,16-6s7,1,13,1c22,0,24.7-14.15,24.6-15.08
			C510.898,286.919,511.033,287.959,511,289z"/>
	</g>
	<g>
		<path style="fill:#94D4CB;" d="M421.43,355.24c-1.77,0.87-3.57,1.68-5.36,2.41c-0.049-0.213-0.072-0.431-0.07-0.65
			c0-1.657,1.342-3,2.999-3.001C419.962,353.999,420.866,354.461,421.43,355.24z"/>
		<path style="fill:#94D4CB;" d="M429,350c0,0.363-0.067,0.722-0.2,1.06c-1,0.66-2.07,1.31-3.13,1.92
			c-1.647-0.182-2.834-1.665-2.652-3.312c0.182-1.647,1.665-2.834,3.312-2.652c1.513,0.167,2.661,1.441,2.67,2.964L429,350z"/>
		<path style="fill:#94D4CB;" d="M440.24,341c-0.08,0.01-0.16,0.01-0.24,0c-1.657,0.005-3.004-1.335-3.009-2.991
			c-0.005-1.657,1.335-3.004,2.991-3.009c1.348-0.004,2.533,0.892,2.897,2.19L440.24,341z"/>
		<path style="fill:#94D4CB;" d="M447.56,329.44c-0.913,1.46-1.837,2.977-2.77,4.55c-1.653-0.114-2.901-1.546-2.787-3.199
			c0.114-1.653,1.546-2.901,3.199-2.787C446.174,328.071,447.054,328.607,447.56,329.44z"/>
		<path style="fill:#94D4CB;" d="M452,322.69c-0.71,1-1.42,2.08-2.14,3.18l0,0c-0.273,0.081-0.556,0.122-0.84,0.12
			c-1.657-0.009-2.993-1.359-2.984-3.016s1.359-2.993,3.016-2.984c1.531,0.008,2.81,1.167,2.968,2.69L452,322.69z"/>
		<path style="fill:#94D4CB;" d="M458.1,314.86c-1.273,1.407-2.537,2.947-3.79,4.62c-1.37-0.931-1.726-2.797-0.795-4.168
			c0.931-1.37,2.797-1.726,4.168-0.795C457.832,314.619,457.971,314.734,458.1,314.86z"/>
		<path style="fill:#94D4CB;" d="M465.54,308.41c-1.68,1.071-3.254,2.3-4.7,3.67c-1.158-1.185-1.136-3.084,0.049-4.242
			c1.185-1.158,3.084-1.136,4.242,0.049C465.287,308.045,465.424,308.221,465.54,308.41z"/>
		<path style="fill:#94D4CB;" d="M473,305.39c-1.583,0.305-3.124,0.798-4.59,1.47c-0.268-0.403-0.411-0.876-0.41-1.36
			c-0.03-1.381,1.064-2.525,2.445-2.555S472.97,304.009,473,305.39L473,305.39z"/>
		<path style="fill:#94D4CB;" d="M480,305c-1,0-2,0-3,0c-0.34,0-0.67,0-1,0l0,0c0-1.105,0.895-2,2-2S480,303.895,480,305z"/>
		<path style="fill:#94D4CB;" d="M487,304c-0.001,0.186-0.028,0.371-0.08,0.55c-1.19,0.12-2.43,0.22-3.73,0.29
			c-0.47-1-0.04-2.191,0.959-2.661c1-0.47,2.191-0.04,2.661,0.959C486.937,303.408,487.002,303.702,487,304z"/>
		<path style="fill:#94D4CB;" d="M493.93,303.5c-1.22,0.26-2.52,0.49-3.92,0.69c-0.005-0.063-0.005-0.127,0-0.19
			c0.013-1.104,0.919-1.989,2.024-1.976c0.894,0.011,1.672,0.613,1.906,1.476H493.93z"/>
		<path style="fill:#94D4CB;" d="M500,301.78c-1.13,0.42-2.37,0.82-3.74,1.18c-0.172-0.305-0.259-0.65-0.25-1
			c-0.061-1.105,0.785-2.049,1.89-2.11c1.105-0.061,2.049,0.785,2.11,1.89L500,301.78z"/>
		<path style="fill:#94D4CB;" d="M505.61,298.82c-1.073,0.776-2.218,1.446-3.42,2c-0.421-1.021,0.066-2.19,1.087-2.611
			C504.104,297.868,505.056,298.117,505.61,298.82z"/>
		<path style="fill:#94D4CB;" d="M509.75,294.15c-0.601,1.146-1.377,2.192-2.3,3.1c-0.294-0.35-0.454-0.793-0.45-1.25
			c0-1.105,0.895-2,2-2C509.258,293.999,509.513,294.05,509.75,294.15z"/>
		<path style="fill:#94D4CB;" d="M511,290.11c-0.086,0.826-0.261,1.641-0.52,2.43c-0.268-0.265-0.422-0.623-0.43-1
			C510.027,290.909,510.409,290.333,511,290.11z"/>
		<path style="fill:#94D4CB;" d="M437,344.58c-1.201,1.166-2.459,2.27-3.77,3.31c-1.597-0.441-2.534-2.094-2.092-3.691
			c0.441-1.597,2.094-2.534,3.691-2.092C435.98,342.425,436.833,343.397,437,344.58z"/>
	</g>
	<g>
		<path style="fill:#3CA69E;" d="M385.65,335c-1.931-0.081-3.563,1.419-3.644,3.35c-0.081,1.931,1.419,3.563,3.35,3.644
			c1.929,0.081,3.559-1.415,3.643-3.344C389.079,336.718,387.581,335.087,385.65,335z"/>
		<path style="fill:#3CA69E;" d="M396.65,343c-1.931-0.081-3.563,1.419-3.644,3.35c-0.081,1.931,1.419,3.563,3.35,3.644
			c1.929,0.081,3.559-1.415,3.643-3.344C400.079,344.718,398.581,343.087,396.65,343z"/>
		<path style="fill:#3CA69E;" d="M407.56,335c-0.828-0.032-1.525,0.612-1.558,1.44c-0.032,0.828,0.612,1.525,1.44,1.558
			c0.827,0.032,1.524-0.611,1.557-1.438C409.028,335.733,408.386,335.038,407.56,335z"/>
	</g>
	<path style="fill:#3BA896;" d="M504.17,280.68c-0.741,0.357-1.2,1.118-1.17,1.94c0.05,1,0.87,1.78,2.56,1.17
		c1.9-0.68,6.43-5,6.44-10.5c-0.005-1.482-0.329-2.945-0.95-4.29C511.05,269,512.79,276.56,504.17,280.68z"/>
	<g>
		<circle style="fill:#3CA69E;" cx="353.5" cy="234.5" r="3.5"/>
		<circle style="fill:#3CA69E;" cx="412.5" cy="218.5" r="3.5"/>
		<circle style="fill:#3CA69E;" cx="413.5" cy="234.5" r="3.5"/>
		<circle style="fill:#3CA69E;" cx="384.5" cy="201.5" r="3.5"/>
		<circle style="fill:#3CA69E;" cx="354.5" cy="201.5" r="3.5"/>
		<circle style="fill:#3CA69E;" cx="347.5" cy="241.5" r="1.5"/>
		<circle style="fill:#3CA69E;" cx="377.5" cy="206.5" r="1.5"/>
		<circle style="fill:#3CA69E;" cx="417.5" cy="226.5" r="1.5"/>
		<circle style="fill:#3CA69E;" cx="374.5" cy="197.5" r="1.5"/>
		<circle style="fill:#3CA69E;" cx="423.5" cy="245.5" r="1.5"/>
		<circle style="fill:#3CA69E;" cx="361.5" cy="198.5" r="1.5"/>
		<circle style="fill:#3CA69E;" cx="369.5" cy="203.5" r="1.5"/>
		<circle style="fill:#3CA69E;" cx="422.5" cy="253.5" r="1.5"/>
		<circle style="fill:#3CA69E;" cx="420.5" cy="239.5" r="1.5"/>
		<circle style="fill:#3CA69E;" cx="348.5" cy="195.5" r="1.5"/>
		<circle style="fill:#3CA69E;" cx="421.5" cy="233.5" r="1.5"/>
		<circle style="fill:#3CA69E;" cx="357.5" cy="243.5" r="1.5"/>
		<path style="fill:#3CA69E;" d="M370.65,396c-1.931-0.081-3.563,1.419-3.644,3.35c-0.081,1.931,1.419,3.563,3.35,3.644
			c1.929,0.081,3.559-1.415,3.643-3.344C374.079,397.718,372.581,396.087,370.65,396z"/>
		<path style="fill:#3CA69E;" d="M295.65,378c-1.931-0.081-3.563,1.419-3.644,3.35c-0.081,1.931,1.419,3.563,3.35,3.644
			c1.929,0.081,3.559-1.415,3.643-3.344C299.079,379.718,297.581,378.087,295.65,378z"/>
		<path style="fill:#3CA69E;" d="M369.65,411c-1.931-0.081-3.563,1.419-3.644,3.35c-0.081,1.931,1.419,3.563,3.35,3.644
			c1.929,0.081,3.559-1.415,3.643-3.344C373.079,412.718,371.581,411.087,369.65,411z"/>
		<path style="fill:#3CA69E;" d="M362.56,405c-0.828-0.032-1.525,0.612-1.558,1.44c-0.032,0.828,0.612,1.525,1.44,1.558
			c0.827,0.032,1.524-0.611,1.557-1.438C364.028,405.733,363.386,405.038,362.56,405z"/>
		<path style="fill:#3CA69E;" d="M293.56,391c-0.828-0.032-1.525,0.612-1.558,1.44c-0.032,0.828,0.612,1.525,1.44,1.558
			c0.827,0.032,1.524-0.611,1.557-1.438C295.028,391.733,294.386,391.038,293.56,391z"/>
		<path style="fill:#3CA69E;" d="M285.56,397c-0.828-0.032-1.525,0.612-1.558,1.44c-0.032,0.828,0.612,1.525,1.44,1.558
			c0.827,0.032,1.524-0.611,1.557-1.438C287.028,397.733,286.386,397.038,285.56,397z"/>
		<path style="fill:#3CA69E;" d="M305.61,381c-1.379-0.059-2.546,1.011-2.605,2.39c-0.059,1.379,1.011,2.546,2.39,2.605
			c1.378,0.059,2.543-1.008,2.605-2.385c0.062-1.379-1.006-2.548-2.385-2.61C305.613,381,305.612,381,305.61,381z"/>
		<path style="fill:#3CA69E;" d="M372.56,426c-0.828-0.032-1.525,0.612-1.558,1.44c-0.032,0.828,0.612,1.525,1.44,1.558
			c0.827,0.032,1.524-0.611,1.557-1.438C374.028,426.733,373.386,426.038,372.56,426z"/>
		<path style="fill:#3CA69E;" d="M342,219c0,0,2,4,14,4c-5.5,2.06-10.13,3-13,3c-2.5,0-3-1.52-3-2.37C340,222,342,219,342,219z"/>
		<path style="fill:#3CA69E;" d="M402,233c-2.014-3.65-5.831-5.941-10-6c-14,0-15,17-15,17s4-13,16-13
			C396.107,231.032,399.172,231.713,402,233z"/>
		<path style="fill:#3CA69E;" d="M397,224c-1.963-2.427-4.881-3.885-8-4c-10,0-12,13-12,13s3-10,13-10
			C392.366,223.034,394.719,223.37,397,224z"/>
		<path style="fill:#3CA69E;" d="M383,278c0,0-5,1-5,6c-0.073,2.799,0.618,5.565,2,8c0,0-5-2.93-5-8S380,278,383,278z"/>
		<path style="fill:#3CA69E;" d="M376,277c-1.625,0.613-2.894,1.918-3.46,3.56c-0.437,1.437-0.62,2.94-0.54,4.44
			c-0.684-0.973-1.035-2.141-1-3.33C371,277.29,376,277,376,277z"/>
		<path style="fill:#3CA69E;" d="M350,301c-19,0-24-12-24-12s-0.52-3.62-0.81-9.74C328.73,287,335.85,297.14,350,301z"/>
		<path style="fill:#3CA69E;" d="M360,353c0,0,6,10,31,10c8.72,0,18.54-3,18.54-3s-7.54,8-24.54,8C362,368,360,353,360,353z"/>
		<path style="fill:#3CA69E;" d="M370,320.07c0,0,3-2.07,12-2.07s22,3.86,22,3.86S391.64,316,383.08,316
			C372,316,370,320.07,370,320.07z"/>
	</g>
	<g>
		<path style="fill:#94D4CB;" d="M379,472.5c0.001,0.424-0.077,0.845-0.23,1.24c-2.2-0.19-4.47-0.44-6.74-0.8
			c-0.01-0.146-0.01-0.294,0-0.44c0-1.933,1.567-3.5,3.5-3.5s3.5,1.567,3.5,3.5H379z"/>
		<path style="fill:#94D4CB;" d="M389,472.5c-0.007,0.9-0.366,1.762-1,2.4c-1.87-0.425-3.768-0.716-5.68-0.87
			c-0.237-0.475-0.361-0.999-0.36-1.53c0-1.933,1.567-3.5,3.5-3.5s3.5,1.567,3.5,3.5H389z"/>
		<path style="fill:#94D4CB;" d="M399,476.5c0,1.152-0.569,2.23-1.52,2.88c-1.616-1.394-3.464-2.494-5.46-3.25
			c0.102-1.933,1.752-3.417,3.685-3.315s3.417,1.752,3.315,3.685H399z"/>
		<path style="fill:#94D4CB;" d="M369,469.5c0.003,1-0.427,1.952-1.18,2.61c-1.949-0.457-3.861-1.059-5.72-1.8
			c-0.069-0.264-0.103-0.537-0.1-0.81c0-1.933,1.567-3.5,3.5-3.5S369,467.567,369,469.5z"/>
		<path style="fill:#94D4CB;" d="M359,464.5c0.004,1.352-0.776,2.585-2,3.16c-0.33-0.21-0.66-0.43-1-0.66
			c-1.38-0.993-2.697-2.023-3.95-3.09c0.326-1.905,2.134-3.186,4.039-2.861C357.771,461.337,359,462.794,359,464.5z"/>
		<path style="fill:#94D4CB;" d="M351,456.5c0.004,1.791-1.348,3.295-3.13,3.48c-1.33-1.36-2.59-2.75-3.8-4.17l0,0
			c0.385-1.894,2.232-3.118,4.127-2.733c1.632,0.332,2.805,1.768,2.803,3.434V456.5z"/>
		<path style="fill:#94D4CB;" d="M344,448.5c0.018,1.753-1.264,3.25-3,3.5c-1.27-1.63-2.48-3.26-3.65-4.87
			c0.783-1.767,2.85-2.565,4.618-1.782c1.26,0.558,2.075,1.804,2.082,3.182L344,448.5z"/>
		<circle style="fill:#94D4CB;" cx="341.5" cy="438.5" r="3.5"/>
		<circle style="fill:#94D4CB;" cx="332.5" cy="431.5" r="3.5"/>
		<circle style="fill:#94D4CB;" cx="330" cy="419" r="3"/>
		<circle style="fill:#94D4CB;" cx="318" cy="411" r="3"/>
		<circle style="fill:#94D4CB;" cx="306" cy="410" r="3"/>
		<circle style="fill:#94D4CB;" cx="273" cy="437" r="3"/>
		<circle style="fill:#94D4CB;" cx="261" cy="444" r="3"/>
		<circle style="fill:#94D4CB;" cx="245" cy="447" r="3"/>
		<path style="fill:#94D4CB;" d="M217,431c0.008,0.851-0.357,1.663-1,2.22c-1.35-1.453-2.818-2.791-4.39-4
			c1.001-1.32,2.883-1.578,4.203-0.577C216.552,429.203,216.99,430.073,217,431z"/>
		<path style="fill:#94D4CB;" d="M210,427c0.001,0.313-0.049,0.624-0.15,0.92c-1.646-1.094-3.407-2.006-5.25-2.72
			c0.994-1.325,2.875-1.594,4.2-0.6C209.555,425.167,210,426.056,210,427z"/>
		<path style="fill:#94D4CB;" d="M202,424.32c-1.538-0.458-3.109-0.792-4.7-1c0.629-1.223,2.131-1.704,3.354-1.074
			C201.438,422.65,201.951,423.439,202,424.32z"/>
		<path style="fill:#94D4CB;" d="M194.56,423.08c-0.83-0.05-1.68-0.08-2.56-0.08h-1.5c0.471-0.631,1.213-1.002,2-1
			C193.322,422.001,194.092,422.404,194.56,423.08z"/>
		<circle style="fill:#94D4CB;" cx="321.5" cy="423.5" r="3.5"/>
		<circle style="fill:#94D4CB;" cx="312.5" cy="420.5" r="3.5"/>
		<circle style="fill:#94D4CB;" cx="299.5" cy="422.5" r="3.5"/>
		<circle style="fill:#94D4CB;" cx="291.5" cy="429.5" r="3.5"/>
		<path style="fill:#94D4CB;" d="M268.22,449.14c-0.778-0.656-1.225-1.623-1.22-2.64c-0.061-1.933,1.457-3.549,3.39-3.61
			c1.933-0.061,3.549,1.457,3.61,3.39L268.22,449.14z"/>
		<path style="fill:#94D4CB;" d="M258,451.5c0,0.468-0.095,0.93-0.28,1.36c-1.902,0.477-3.838,0.811-5.79,1l0,0
			c-1.312-1.419-1.225-3.634,0.194-4.946c1.419-1.312,3.634-1.225,4.946,0.194C257.672,449.759,258.004,450.614,258,451.5z"/>
		<path style="fill:#94D4CB;" d="M236.18,451.93L236.18,451.93c1.894-0.387,3.116-2.235,2.729-4.129
			c-0.387-1.894-2.235-3.116-4.129-2.729c-1.629,0.333-2.8,1.766-2.8,3.429c-0.001,0.557,0.132,1.106,0.39,1.6L236.18,451.93z"/>
		<path style="fill:#94D4CB;" d="M225,436.5c-0.002,1.803-1.375,3.31-3.17,3.48c-0.28-0.33-0.55-0.66-0.83-1
			c-0.92-1.07-1.86-2.22-2.88-3.4c0.502-1.867,2.422-2.973,4.289-2.471c1.526,0.41,2.588,1.792,2.591,3.371V436.5z"/>
		<path style="fill:#94D4CB;" d="M228.15,446.94c1.9-0.358,3.15-2.187,2.792-4.087c-0.358-1.9-2.187-3.15-4.087-2.792
			c-1.354,0.255-2.432,1.28-2.755,2.619L228.15,446.94z"/>
		<circle style="fill:#94D4CB;" cx="282.5" cy="434.5" r="3.5"/>
		<path style="fill:#94D4CB;" d="M413,490c0.002,0.646-0.209,1.276-0.6,1.79c-1.737-0.989-3.408-2.091-5-3.3
			c0.827-1.436,2.661-1.93,4.097-1.103C412.431,487.924,413.005,488.922,413,490z"/>
		<path style="fill:#94D4CB;" d="M406,483c-0.005,1.228-0.757,2.33-1.9,2.78c-1.273-1.1-2.607-2.32-4-3.66
			c0.419-1.603,2.058-2.563,3.661-2.144C405.125,480.333,406.057,481.591,406,483z"/>
		<path style="fill:#94D4CB;" d="M420,494.5c0.015,0.143,0.015,0.287,0,0.43c-1.589-0.422-3.141-0.974-4.64-1.65
			c0.713-1.182,2.249-1.563,3.432-0.85C419.521,492.869,419.976,493.649,420,494.5z"/>
	</g>
	<g>
		<path style="fill:#FFFFFF;" d="M417.66,286.52c-0.2,0.28-0.46,0.67-0.78,1.15l-2.18,3.2l-2.38,3.49l-2.79,4.14l-0.78,1.16
			c-1.905,0.259-3.827,0.372-5.75,0.34c-14,0-20-7-20-12c0.001-0.507,0.047-1.012,0.14-1.51c0.625-3.623,3.687-6.323,7.36-6.49
			c6.72,0,9.5,7,22.5,7C414.565,286.983,416.125,286.822,417.66,286.52z"/>
		<path style="fill:#E0E0E0;" d="M414.7,290.87l-2.38,3.49l-4.86,2.53c-0.49,0.254-1.094,0.063-1.348-0.428
			c-0.016-0.03-0.03-0.061-0.042-0.092l-1.57-3.93l-6,3.43c-0.294,0.156-0.646,0.156-0.94,0c-0.298-0.146-0.504-0.431-0.55-0.76
			l-0.82-5.77l-6.84,2.57c-0.308,0.113-0.652,0.068-0.92-0.12c-0.26-0.18-0.42-0.473-0.43-0.79v-4.78l-3.8,0.76
			c-0.422,0.081-0.849-0.116-1.06-0.49c-0.06-0.087-0.101-0.186-0.12-0.29c-0.083-0.42,0.11-0.846,0.48-1.06
			c0.091-0.06,0.193-0.101,0.3-0.12l5-1c0.294-0.058,0.599,0.019,0.83,0.21c0.232,0.188,0.368,0.471,0.37,0.77v4.56l6.65-2.5
			c0.284-0.105,0.6-0.075,0.86,0.08c0.261,0.155,0.438,0.42,0.48,0.72l0.79,5.54l5.72-3.27c0.253-0.143,0.556-0.168,0.83-0.07
			c0.273,0.094,0.492,0.302,0.6,0.57l1.59,4L414.7,290.87z"/>
		<path style="fill:#00897B;" d="M413,286c-7.29,0-11.17-2.24-14.6-4.22c-2.48-1.43-4.82-2.78-7.9-2.78
			c-4.828,0.147-8.629,4.171-8.5,9c0,5,5.7,13,21,13c1.67,0.016,3.339-0.061,5-0.23c0.48-0.73,1-1.49,1.52-2.27
			c-2.152,0.406-4.342,0.573-6.53,0.5c-13.1,0-19-6.43-19-11c-0.129-3.725,2.776-6.854,6.5-7c2.54,0,4.47,1.11,6.9,2.52
			c4.646,3.003,10.078,4.562,15.61,4.48c1.3-0.006,2.598-0.117,3.88-0.33c0.63-0.94,1-1.54,1.12-1.67l0.42-0.68
			C416.644,285.746,414.826,285.974,413,286z"/>
	</g>
	<g>
		<circle style="fill:#31827C;" cx="395.5" cy="255.5" r="14.5"/>
		<circle style="fill:#77BFB6;" cx="393.5" cy="254.5" r="13.5"/>
		<circle cx="395" cy="255" r="12"/>
		<circle style="fill:#FAFAFA;" cx="399" cy="259" r="4"/>
		<path style="fill:#2C2C2C;" d="M387,258c0-6.075,4.925-11,11-11c0.428,0.001,0.855,0.028,1.28,0.08
			c-4.371-2.367-9.833-0.743-12.2,3.628c-1.448,2.674-1.448,5.898,0,8.572C387.028,258.855,387.001,258.428,387,258z"/>
		<circle style="fill:#FAFAFA;" cx="392.5" cy="248.5" r="1.5"/>
	</g>
</g>
</svg>
