<svg id="Layer_1" data-name="Layer 1" xmlns="http://www.w3.org/2000/svg" xmlns:xlink="http://www.w3.org/1999/xlink" width="800" height="600" viewBox="0 0 800 600">
  <defs>
    <linearGradient id="linear-gradient" x1="789.5" y1="-435.08" x2="789.5" y2="116.91" gradientTransform="translate(0 550)" gradientUnits="userSpaceOnUse">
      <stop offset="0" stop-color="#eee"/>
      <stop offset="0.01" stop-color="#ededed"/>
      <stop offset="0.39" stop-color="#d3d3d3"/>
      <stop offset="0.74" stop-color="#c3c3c3"/>
      <stop offset="1" stop-color="#bdbdbd"/>
    </linearGradient>
    <linearGradient id="linear-gradient-2" x1="752" y1="-435.08" x2="752" y2="116.91" xlink:href="#linear-gradient"/>
    <linearGradient id="linear-gradient-3" x1="776.5" y1="-435.08" x2="776.5" y2="116.91" xlink:href="#linear-gradient"/>
    <linearGradient id="linear-gradient-4" x1="698" y1="-435.08" x2="698" y2="116.91" xlink:href="#linear-gradient"/>
    <linearGradient id="linear-gradient-5" x1="725" y1="-435.08" x2="725" y2="116.91" xlink:href="#linear-gradient"/>
    <linearGradient id="linear-gradient-6" x1="644" y1="-435.08" x2="644" y2="116.91" xlink:href="#linear-gradient"/>
    <linearGradient id="linear-gradient-7" x1="671" y1="-435.08" x2="671" y2="116.91" xlink:href="#linear-gradient"/>
    <linearGradient id="linear-gradient-8" x1="590" y1="-435.08" x2="590" y2="116.91" xlink:href="#linear-gradient"/>
    <linearGradient id="linear-gradient-9" x1="617" y1="-435.08" x2="617" y2="116.91" xlink:href="#linear-gradient"/>
    <linearGradient id="linear-gradient-10" x1="536" y1="-435.08" x2="536" y2="116.91" xlink:href="#linear-gradient"/>
    <linearGradient id="linear-gradient-11" x1="563" y1="-435.08" x2="563" y2="116.91" xlink:href="#linear-gradient"/>
    <linearGradient id="linear-gradient-12" x1="482" y1="-435.08" x2="482" y2="116.91" xlink:href="#linear-gradient"/>
    <linearGradient id="linear-gradient-13" x1="509" y1="-435.08" x2="509" y2="116.91" xlink:href="#linear-gradient"/>
    <linearGradient id="linear-gradient-14" x1="428" y1="-435.08" x2="428" y2="116.91" xlink:href="#linear-gradient"/>
    <linearGradient id="linear-gradient-15" x1="455" y1="-435.08" x2="455" y2="116.91" xlink:href="#linear-gradient"/>
    <linearGradient id="linear-gradient-16" x1="374" y1="-435.08" x2="374" y2="116.91" xlink:href="#linear-gradient"/>
    <linearGradient id="linear-gradient-17" x1="401" y1="-435.08" x2="401" y2="116.91" xlink:href="#linear-gradient"/>
    <linearGradient id="linear-gradient-18" x1="320" y1="-435.08" x2="320" y2="116.91" xlink:href="#linear-gradient"/>
    <linearGradient id="linear-gradient-19" x1="347" y1="-435.08" x2="347" y2="116.91" xlink:href="#linear-gradient"/>
    <linearGradient id="linear-gradient-20" x1="266" y1="-435.08" x2="266" y2="116.91" xlink:href="#linear-gradient"/>
    <linearGradient id="linear-gradient-21" x1="293" y1="-435.08" x2="293" y2="116.91" xlink:href="#linear-gradient"/>
    <linearGradient id="linear-gradient-22" x1="212" y1="-435.08" x2="212" y2="116.91" xlink:href="#linear-gradient"/>
    <linearGradient id="linear-gradient-23" x1="239" y1="-435.08" x2="239" y2="116.91" xlink:href="#linear-gradient"/>
    <linearGradient id="linear-gradient-24" x1="158" y1="-435.08" x2="158" y2="116.91" xlink:href="#linear-gradient"/>
    <linearGradient id="linear-gradient-25" x1="185" y1="-435.08" x2="185" y2="116.91" xlink:href="#linear-gradient"/>
    <linearGradient id="linear-gradient-26" x1="104" y1="-435.08" x2="104" y2="116.91" xlink:href="#linear-gradient"/>
    <linearGradient id="linear-gradient-27" x1="131" y1="-435.08" x2="131" y2="116.91" xlink:href="#linear-gradient"/>
    <linearGradient id="linear-gradient-28" x1="50" y1="-435.08" x2="50" y2="116.91" xlink:href="#linear-gradient"/>
    <linearGradient id="linear-gradient-29" x1="77" y1="-435.08" x2="77" y2="116.91" xlink:href="#linear-gradient"/>
    <linearGradient id="linear-gradient-30" x1="11" y1="-435.08" x2="11" y2="116.91" xlink:href="#linear-gradient"/>
    <linearGradient id="linear-gradient-31" x1="24.5" y1="-435.08" x2="24.5" y2="116.91" xlink:href="#linear-gradient"/>
    <radialGradient id="radial-gradient" cx="398.5" cy="145.03" r="327.33" gradientTransform="matrix(1, 0, 0, -1.13, 0, 585.27)" gradientUnits="userSpaceOnUse">
      <stop offset="0" stop-color="#fff" stop-opacity="0"/>
      <stop offset="0.09" stop-color="#fff" stop-opacity="0.02"/>
      <stop offset="0.22" stop-color="#fff" stop-opacity="0.09"/>
      <stop offset="0.36" stop-color="#fff" stop-opacity="0.2"/>
      <stop offset="0.52" stop-color="#fff" stop-opacity="0.35"/>
      <stop offset="0.69" stop-color="#fff" stop-opacity="0.55"/>
      <stop offset="0.86" stop-color="#fff" stop-opacity="0.79"/>
      <stop offset="1" stop-color="#fff"/>
    </radialGradient>
  </defs>
  <title>19_done</title>
  <rect width="800" height="600" fill="#fff"/>
  <g>
    <g>
      <path d="M798,405H781a1,1,0,0,0-1,1v12a1,1,0,0,0,1,1h17a1,1,0,0,0,1-1V406A1,1,0,0,0,798,405Z" fill="url(#linear-gradient)"/>
      <path d="M777,405H727a1,1,0,0,0-1,1v12a1,1,0,0,0,1,1h50a1,1,0,0,0,1-1V406A1,1,0,0,0,777,405Z" fill="url(#linear-gradient-2)"/>
      <path d="M799,389H754a1,1,0,0,0-1,1v12a1,1,0,0,0,1,1h45a1,1,0,0,0,1-1V390A1,1,0,0,0,799,389Z" fill="url(#linear-gradient-3)"/>
      <path d="M723,405H673a1,1,0,0,0-1,1v12a1,1,0,0,0,1,1h50a1,1,0,0,0,1-1V406A1,1,0,0,0,723,405Z" fill="url(#linear-gradient-4)"/>
      <path d="M750,389H700a1,1,0,0,0-1,1v12a1,1,0,0,0,1,1h50a1,1,0,0,0,1-1V390A1,1,0,0,0,750,389Z" fill="url(#linear-gradient-5)"/>
      <path d="M669,405H619a1,1,0,0,0-1,1v12a1,1,0,0,0,1,1h50a1,1,0,0,0,1-1V406A1,1,0,0,0,669,405Z" fill="url(#linear-gradient-6)"/>
      <path d="M696,389H646a1,1,0,0,0-1,1v12a1,1,0,0,0,1,1h50a1,1,0,0,0,1-1V390A1,1,0,0,0,696,389Z" fill="url(#linear-gradient-7)"/>
      <path d="M615,405H565a1,1,0,0,0-1,1v12a1,1,0,0,0,1,1h50a1,1,0,0,0,1-1V406A1,1,0,0,0,615,405Z" fill="url(#linear-gradient-8)"/>
      <path d="M642,389H592a1,1,0,0,0-1,1v12a1,1,0,0,0,1,1h50a1,1,0,0,0,1-1V390A1,1,0,0,0,642,389Z" fill="url(#linear-gradient-9)"/>
      <path d="M561,405H511a1,1,0,0,0-1,1v12a1,1,0,0,0,1,1h50a1,1,0,0,0,1-1V406A1,1,0,0,0,561,405Z" fill="url(#linear-gradient-10)"/>
      <path d="M588,389H538a1,1,0,0,0-1,1v12a1,1,0,0,0,1,1h50a1,1,0,0,0,1-1V390A1,1,0,0,0,588,389Z" fill="url(#linear-gradient-11)"/>
      <path d="M507,405H457a1,1,0,0,0-1,1v12a1,1,0,0,0,1,1h50a1,1,0,0,0,1-1V406A1,1,0,0,0,507,405Z" fill="url(#linear-gradient-12)"/>
      <path d="M534,389H484a1,1,0,0,0-1,1v12a1,1,0,0,0,1,1h50a1,1,0,0,0,1-1V390A1,1,0,0,0,534,389Z" fill="url(#linear-gradient-13)"/>
      <path d="M453,405H403a1,1,0,0,0-1,1v12a1,1,0,0,0,1,1h50a1,1,0,0,0,1-1V406A1,1,0,0,0,453,405Z" fill="url(#linear-gradient-14)"/>
      <path d="M480,389H430a1,1,0,0,0-1,1v12a1,1,0,0,0,1,1h50a1,1,0,0,0,1-1V390A1,1,0,0,0,480,389Z" fill="url(#linear-gradient-15)"/>
      <path d="M399,405H349a1,1,0,0,0-1,1v12a1,1,0,0,0,1,1h50a1,1,0,0,0,1-1V406A1,1,0,0,0,399,405Z" fill="url(#linear-gradient-16)"/>
      <path d="M426,389H376a1,1,0,0,0-1,1v12a1,1,0,0,0,1,1h50a1,1,0,0,0,1-1V390A1,1,0,0,0,426,389Z" fill="url(#linear-gradient-17)"/>
      <path d="M345,405H295a1,1,0,0,0-1,1v12a1,1,0,0,0,1,1h50a1,1,0,0,0,1-1V406A1,1,0,0,0,345,405Z" fill="url(#linear-gradient-18)"/>
      <path d="M372,389H322a1,1,0,0,0-1,1v12a1,1,0,0,0,1,1h50a1,1,0,0,0,1-1V390A1,1,0,0,0,372,389Z" fill="url(#linear-gradient-19)"/>
      <path d="M291,405H241a1,1,0,0,0-1,1v12a1,1,0,0,0,1,1h50a1,1,0,0,0,1-1V406A1,1,0,0,0,291,405Z" fill="url(#linear-gradient-20)"/>
      <path d="M318,389H268a1,1,0,0,0-1,1v12a1,1,0,0,0,1,1h50a1,1,0,0,0,1-1V390A1,1,0,0,0,318,389Z" fill="url(#linear-gradient-21)"/>
      <path d="M237,405H187a1,1,0,0,0-1,1v12a1,1,0,0,0,1,1h50a1,1,0,0,0,1-1V406A1,1,0,0,0,237,405Z" fill="url(#linear-gradient-22)"/>
      <path d="M264,389H214a1,1,0,0,0-1,1v12a1,1,0,0,0,1,1h50a1,1,0,0,0,1-1V390A1,1,0,0,0,264,389Z" fill="url(#linear-gradient-23)"/>
      <path d="M183,405H133a1,1,0,0,0-1,1v12a1,1,0,0,0,1,1h50a1,1,0,0,0,1-1V406A1,1,0,0,0,183,405Z" fill="url(#linear-gradient-24)"/>
      <path d="M210,389H160a1,1,0,0,0-1,1v12a1,1,0,0,0,1,1h50a1,1,0,0,0,1-1V390A1,1,0,0,0,210,389Z" fill="url(#linear-gradient-25)"/>
      <path d="M129,405H79a1,1,0,0,0-1,1v12a1,1,0,0,0,1,1h50a1,1,0,0,0,1-1V406A1,1,0,0,0,129,405Z" fill="url(#linear-gradient-26)"/>
      <path d="M156,389H106a1,1,0,0,0-1,1v12a1,1,0,0,0,1,1h50a1,1,0,0,0,1-1V390A1,1,0,0,0,156,389Z" fill="url(#linear-gradient-27)"/>
      <path d="M75,405H25a1,1,0,0,0-1,1v12a1,1,0,0,0,1,1H75a1,1,0,0,0,1-1V406A1,1,0,0,0,75,405Z" fill="url(#linear-gradient-28)"/>
      <path d="M102,389H52a1,1,0,0,0-1,1v12a1,1,0,0,0,1,1h50a1,1,0,0,0,1-1V390A1,1,0,0,0,102,389Z" fill="url(#linear-gradient-29)"/>
      <path d="M21,405H1a1,1,0,0,0-1,1v12a1,1,0,0,0,1,1H21a1,1,0,0,0,1-1V406A1,1,0,0,0,21,405Z" fill="url(#linear-gradient-30)"/>
      <path d="M48,389H1a1,1,0,0,0-1,1v12a1,1,0,0,0,1,1H48a1,1,0,0,0,1-1V390A1,1,0,0,0,48,389Z" fill="url(#linear-gradient-31)"/>
      <path d="M798,373H781a1,1,0,0,0-1,1v12a1,1,0,0,0,1,1h17a1,1,0,0,0,1-1V374A1,1,0,0,0,798,373Z" fill="url(#linear-gradient)"/>
      <path d="M777,373H727a1,1,0,0,0-1,1v12a1,1,0,0,0,1,1h50a1,1,0,0,0,1-1V374A1,1,0,0,0,777,373Z" fill="url(#linear-gradient-2)"/>
      <path d="M799,357H754a1,1,0,0,0-1,1v12a1,1,0,0,0,1,1h45a1,1,0,0,0,1-1V358A1,1,0,0,0,799,357Z" fill="url(#linear-gradient-3)"/>
      <path d="M723,373H673a1,1,0,0,0-1,1v12a1,1,0,0,0,1,1h50a1,1,0,0,0,1-1V374A1,1,0,0,0,723,373Z" fill="url(#linear-gradient-4)"/>
      <path d="M750,357H700a1,1,0,0,0-1,1v12a1,1,0,0,0,1,1h50a1,1,0,0,0,1-1V358A1,1,0,0,0,750,357Z" fill="url(#linear-gradient-5)"/>
      <path d="M669,373H619a1,1,0,0,0-1,1v12a1,1,0,0,0,1,1h50a1,1,0,0,0,1-1V374A1,1,0,0,0,669,373Z" fill="url(#linear-gradient-6)"/>
      <path d="M696,357H646a1,1,0,0,0-1,1v12a1,1,0,0,0,1,1h50a1,1,0,0,0,1-1V358A1,1,0,0,0,696,357Z" fill="url(#linear-gradient-7)"/>
      <path d="M615,373H565a1,1,0,0,0-1,1v12a1,1,0,0,0,1,1h50a1,1,0,0,0,1-1V374A1,1,0,0,0,615,373Z" fill="url(#linear-gradient-8)"/>
      <path d="M642,357H592a1,1,0,0,0-1,1v12a1,1,0,0,0,1,1h50a1,1,0,0,0,1-1V358A1,1,0,0,0,642,357Z" fill="url(#linear-gradient-9)"/>
      <path d="M561,373H511a1,1,0,0,0-1,1v12a1,1,0,0,0,1,1h50a1,1,0,0,0,1-1V374A1,1,0,0,0,561,373Z" fill="url(#linear-gradient-10)"/>
      <path d="M588,357H538a1,1,0,0,0-1,1v12a1,1,0,0,0,1,1h50a1,1,0,0,0,1-1V358A1,1,0,0,0,588,357Z" fill="url(#linear-gradient-11)"/>
      <path d="M507,373H457a1,1,0,0,0-1,1v12a1,1,0,0,0,1,1h50a1,1,0,0,0,1-1V374A1,1,0,0,0,507,373Z" fill="url(#linear-gradient-12)"/>
      <path d="M534,357H484a1,1,0,0,0-1,1v12a1,1,0,0,0,1,1h50a1,1,0,0,0,1-1V358A1,1,0,0,0,534,357Z" fill="url(#linear-gradient-13)"/>
      <path d="M453,373H403a1,1,0,0,0-1,1v12a1,1,0,0,0,1,1h50a1,1,0,0,0,1-1V374A1,1,0,0,0,453,373Z" fill="url(#linear-gradient-14)"/>
      <path d="M480,357H430a1,1,0,0,0-1,1v12a1,1,0,0,0,1,1h50a1,1,0,0,0,1-1V358A1,1,0,0,0,480,357Z" fill="url(#linear-gradient-15)"/>
      <path d="M399,373H349a1,1,0,0,0-1,1v12a1,1,0,0,0,1,1h50a1,1,0,0,0,1-1V374A1,1,0,0,0,399,373Z" fill="url(#linear-gradient-16)"/>
      <path d="M426,357H376a1,1,0,0,0-1,1v12a1,1,0,0,0,1,1h50a1,1,0,0,0,1-1V358A1,1,0,0,0,426,357Z" fill="url(#linear-gradient-17)"/>
      <path d="M345,373H295a1,1,0,0,0-1,1v12a1,1,0,0,0,1,1h50a1,1,0,0,0,1-1V374A1,1,0,0,0,345,373Z" fill="url(#linear-gradient-18)"/>
      <path d="M372,357H322a1,1,0,0,0-1,1v12a1,1,0,0,0,1,1h50a1,1,0,0,0,1-1V358A1,1,0,0,0,372,357Z" fill="url(#linear-gradient-19)"/>
      <path d="M291,373H241a1,1,0,0,0-1,1v12a1,1,0,0,0,1,1h50a1,1,0,0,0,1-1V374A1,1,0,0,0,291,373Z" fill="url(#linear-gradient-20)"/>
      <path d="M318,357H268a1,1,0,0,0-1,1v12a1,1,0,0,0,1,1h50a1,1,0,0,0,1-1V358A1,1,0,0,0,318,357Z" fill="url(#linear-gradient-21)"/>
      <path d="M237,373H187a1,1,0,0,0-1,1v12a1,1,0,0,0,1,1h50a1,1,0,0,0,1-1V374A1,1,0,0,0,237,373Z" fill="url(#linear-gradient-22)"/>
      <path d="M264,357H214a1,1,0,0,0-1,1v12a1,1,0,0,0,1,1h50a1,1,0,0,0,1-1V358A1,1,0,0,0,264,357Z" fill="url(#linear-gradient-23)"/>
      <path d="M183,373H133a1,1,0,0,0-1,1v12a1,1,0,0,0,1,1h50a1,1,0,0,0,1-1V374A1,1,0,0,0,183,373Z" fill="url(#linear-gradient-24)"/>
      <path d="M210,357H160a1,1,0,0,0-1,1v12a1,1,0,0,0,1,1h50a1,1,0,0,0,1-1V358A1,1,0,0,0,210,357Z" fill="url(#linear-gradient-25)"/>
      <path d="M129,373H79a1,1,0,0,0-1,1v12a1,1,0,0,0,1,1h50a1,1,0,0,0,1-1V374A1,1,0,0,0,129,373Z" fill="url(#linear-gradient-26)"/>
      <path d="M156,357H106a1,1,0,0,0-1,1v12a1,1,0,0,0,1,1h50a1,1,0,0,0,1-1V358A1,1,0,0,0,156,357Z" fill="url(#linear-gradient-27)"/>
      <path d="M75,373H25a1,1,0,0,0-1,1v12a1,1,0,0,0,1,1H75a1,1,0,0,0,1-1V374A1,1,0,0,0,75,373Z" fill="url(#linear-gradient-28)"/>
      <path d="M102,357H52a1,1,0,0,0-1,1v12a1,1,0,0,0,1,1h50a1,1,0,0,0,1-1V358A1,1,0,0,0,102,357Z" fill="url(#linear-gradient-29)"/>
      <path d="M21,373H1a1,1,0,0,0-1,1v12a1,1,0,0,0,1,1H21a1,1,0,0,0,1-1V374A1,1,0,0,0,21,373Z" fill="url(#linear-gradient-30)"/>
      <path d="M48,357H1a1,1,0,0,0-1,1v12a1,1,0,0,0,1,1H48a1,1,0,0,0,1-1V358A1,1,0,0,0,48,357Z" fill="url(#linear-gradient-31)"/>
      <path d="M798,341H781a1,1,0,0,0-1,1v12a1,1,0,0,0,1,1h17a1,1,0,0,0,1-1V342A1,1,0,0,0,798,341Z" fill="url(#linear-gradient)"/>
      <path d="M777,341H727a1,1,0,0,0-1,1v12a1,1,0,0,0,1,1h50a1,1,0,0,0,1-1V342A1,1,0,0,0,777,341Z" fill="url(#linear-gradient-2)"/>
      <path d="M799,325H754a1,1,0,0,0-1,1v12a1,1,0,0,0,1,1h45a1,1,0,0,0,1-1V326A1,1,0,0,0,799,325Z" fill="url(#linear-gradient-3)"/>
      <path d="M723,341H673a1,1,0,0,0-1,1v12a1,1,0,0,0,1,1h50a1,1,0,0,0,1-1V342A1,1,0,0,0,723,341Z" fill="url(#linear-gradient-4)"/>
      <path d="M750,325H700a1,1,0,0,0-1,1v12a1,1,0,0,0,1,1h50a1,1,0,0,0,1-1V326A1,1,0,0,0,750,325Z" fill="url(#linear-gradient-5)"/>
      <path d="M669,341H619a1,1,0,0,0-1,1v12a1,1,0,0,0,1,1h50a1,1,0,0,0,1-1V342A1,1,0,0,0,669,341Z" fill="url(#linear-gradient-6)"/>
      <path d="M696,325H646a1,1,0,0,0-1,1v12a1,1,0,0,0,1,1h50a1,1,0,0,0,1-1V326A1,1,0,0,0,696,325Z" fill="url(#linear-gradient-7)"/>
      <path d="M615,341H565a1,1,0,0,0-1,1v12a1,1,0,0,0,1,1h50a1,1,0,0,0,1-1V342A1,1,0,0,0,615,341Z" fill="url(#linear-gradient-8)"/>
      <path d="M642,325H592a1,1,0,0,0-1,1v12a1,1,0,0,0,1,1h50a1,1,0,0,0,1-1V326A1,1,0,0,0,642,325Z" fill="url(#linear-gradient-9)"/>
      <path d="M561,341H511a1,1,0,0,0-1,1v12a1,1,0,0,0,1,1h50a1,1,0,0,0,1-1V342A1,1,0,0,0,561,341Z" fill="url(#linear-gradient-10)"/>
      <path d="M588,325H538a1,1,0,0,0-1,1v12a1,1,0,0,0,1,1h50a1,1,0,0,0,1-1V326A1,1,0,0,0,588,325Z" fill="url(#linear-gradient-11)"/>
      <path d="M507,341H457a1,1,0,0,0-1,1v12a1,1,0,0,0,1,1h50a1,1,0,0,0,1-1V342A1,1,0,0,0,507,341Z" fill="url(#linear-gradient-12)"/>
      <path d="M534,325H484a1,1,0,0,0-1,1v12a1,1,0,0,0,1,1h50a1,1,0,0,0,1-1V326A1,1,0,0,0,534,325Z" fill="url(#linear-gradient-13)"/>
      <path d="M453,341H403a1,1,0,0,0-1,1v12a1,1,0,0,0,1,1h50a1,1,0,0,0,1-1V342A1,1,0,0,0,453,341Z" fill="url(#linear-gradient-14)"/>
      <path d="M480,325H430a1,1,0,0,0-1,1v12a1,1,0,0,0,1,1h50a1,1,0,0,0,1-1V326A1,1,0,0,0,480,325Z" fill="url(#linear-gradient-15)"/>
      <path d="M399,341H349a1,1,0,0,0-1,1v12a1,1,0,0,0,1,1h50a1,1,0,0,0,1-1V342A1,1,0,0,0,399,341Z" fill="url(#linear-gradient-16)"/>
      <path d="M426,325H376a1,1,0,0,0-1,1v12a1,1,0,0,0,1,1h50a1,1,0,0,0,1-1V326A1,1,0,0,0,426,325Z" fill="url(#linear-gradient-17)"/>
      <path d="M345,341H295a1,1,0,0,0-1,1v12a1,1,0,0,0,1,1h50a1,1,0,0,0,1-1V342A1,1,0,0,0,345,341Z" fill="url(#linear-gradient-18)"/>
      <path d="M372,325H322a1,1,0,0,0-1,1v12a1,1,0,0,0,1,1h50a1,1,0,0,0,1-1V326A1,1,0,0,0,372,325Z" fill="url(#linear-gradient-19)"/>
      <path d="M291,341H241a1,1,0,0,0-1,1v12a1,1,0,0,0,1,1h50a1,1,0,0,0,1-1V342A1,1,0,0,0,291,341Z" fill="url(#linear-gradient-20)"/>
      <path d="M318,325H268a1,1,0,0,0-1,1v12a1,1,0,0,0,1,1h50a1,1,0,0,0,1-1V326A1,1,0,0,0,318,325Z" fill="url(#linear-gradient-21)"/>
      <path d="M237,341H187a1,1,0,0,0-1,1v12a1,1,0,0,0,1,1h50a1,1,0,0,0,1-1V342A1,1,0,0,0,237,341Z" fill="url(#linear-gradient-22)"/>
      <path d="M264,325H214a1,1,0,0,0-1,1v12a1,1,0,0,0,1,1h50a1,1,0,0,0,1-1V326A1,1,0,0,0,264,325Z" fill="url(#linear-gradient-23)"/>
      <path d="M183,341H133a1,1,0,0,0-1,1v12a1,1,0,0,0,1,1h50a1,1,0,0,0,1-1V342A1,1,0,0,0,183,341Z" fill="url(#linear-gradient-24)"/>
      <path d="M210,325H160a1,1,0,0,0-1,1v12a1,1,0,0,0,1,1h50a1,1,0,0,0,1-1V326A1,1,0,0,0,210,325Z" fill="url(#linear-gradient-25)"/>
      <path d="M129,341H79a1,1,0,0,0-1,1v12a1,1,0,0,0,1,1h50a1,1,0,0,0,1-1V342A1,1,0,0,0,129,341Z" fill="url(#linear-gradient-26)"/>
      <path d="M156,325H106a1,1,0,0,0-1,1v12a1,1,0,0,0,1,1h50a1,1,0,0,0,1-1V326A1,1,0,0,0,156,325Z" fill="url(#linear-gradient-27)"/>
      <path d="M75,341H25a1,1,0,0,0-1,1v12a1,1,0,0,0,1,1H75a1,1,0,0,0,1-1V342A1,1,0,0,0,75,341Z" fill="url(#linear-gradient-28)"/>
      <path d="M102,325H52a1,1,0,0,0-1,1v12a1,1,0,0,0,1,1h50a1,1,0,0,0,1-1V326A1,1,0,0,0,102,325Z" fill="url(#linear-gradient-29)"/>
      <path d="M21,341H1a1,1,0,0,0-1,1v12a1,1,0,0,0,1,1H21a1,1,0,0,0,1-1V342A1,1,0,0,0,21,341Z" fill="url(#linear-gradient-30)"/>
      <path d="M48,325H1a1,1,0,0,0-1,1v12a1,1,0,0,0,1,1H48a1,1,0,0,0,1-1V326A1,1,0,0,0,48,325Z" fill="url(#linear-gradient-31)"/>
      <path d="M798,309H781a1,1,0,0,0-1,1v12a1,1,0,0,0,1,1h17a1,1,0,0,0,1-1V310A1,1,0,0,0,798,309Z" fill="url(#linear-gradient)"/>
      <path d="M777,309H727a1,1,0,0,0-1,1v12a1,1,0,0,0,1,1h50a1,1,0,0,0,1-1V310A1,1,0,0,0,777,309Z" fill="url(#linear-gradient-2)"/>
      <path d="M799,293H754a1,1,0,0,0-1,1v12a1,1,0,0,0,1,1h45a1,1,0,0,0,1-1V294A1,1,0,0,0,799,293Z" fill="url(#linear-gradient-3)"/>
      <path d="M723,309H673a1,1,0,0,0-1,1v12a1,1,0,0,0,1,1h50a1,1,0,0,0,1-1V310A1,1,0,0,0,723,309Z" fill="url(#linear-gradient-4)"/>
      <path d="M750,293H700a1,1,0,0,0-1,1v12a1,1,0,0,0,1,1h50a1,1,0,0,0,1-1V294A1,1,0,0,0,750,293Z" fill="url(#linear-gradient-5)"/>
      <path d="M669,309H619a1,1,0,0,0-1,1v12a1,1,0,0,0,1,1h50a1,1,0,0,0,1-1V310A1,1,0,0,0,669,309Z" fill="url(#linear-gradient-6)"/>
      <path d="M696,293H646a1,1,0,0,0-1,1v12a1,1,0,0,0,1,1h50a1,1,0,0,0,1-1V294A1,1,0,0,0,696,293Z" fill="url(#linear-gradient-7)"/>
      <path d="M615,309H565a1,1,0,0,0-1,1v12a1,1,0,0,0,1,1h50a1,1,0,0,0,1-1V310A1,1,0,0,0,615,309Z" fill="url(#linear-gradient-8)"/>
      <path d="M642,293H592a1,1,0,0,0-1,1v12a1,1,0,0,0,1,1h50a1,1,0,0,0,1-1V294A1,1,0,0,0,642,293Z" fill="url(#linear-gradient-9)"/>
      <path d="M561,309H511a1,1,0,0,0-1,1v12a1,1,0,0,0,1,1h50a1,1,0,0,0,1-1V310A1,1,0,0,0,561,309Z" fill="url(#linear-gradient-10)"/>
      <path d="M588,293H538a1,1,0,0,0-1,1v12a1,1,0,0,0,1,1h50a1,1,0,0,0,1-1V294A1,1,0,0,0,588,293Z" fill="url(#linear-gradient-11)"/>
      <path d="M507,309H457a1,1,0,0,0-1,1v12a1,1,0,0,0,1,1h50a1,1,0,0,0,1-1V310A1,1,0,0,0,507,309Z" fill="url(#linear-gradient-12)"/>
      <path d="M534,293H484a1,1,0,0,0-1,1v12a1,1,0,0,0,1,1h50a1,1,0,0,0,1-1V294A1,1,0,0,0,534,293Z" fill="url(#linear-gradient-13)"/>
      <path d="M453,309H403a1,1,0,0,0-1,1v12a1,1,0,0,0,1,1h50a1,1,0,0,0,1-1V310A1,1,0,0,0,453,309Z" fill="url(#linear-gradient-14)"/>
      <path d="M480,293H430a1,1,0,0,0-1,1v12a1,1,0,0,0,1,1h50a1,1,0,0,0,1-1V294A1,1,0,0,0,480,293Z" fill="url(#linear-gradient-15)"/>
      <path d="M399,309H349a1,1,0,0,0-1,1v12a1,1,0,0,0,1,1h50a1,1,0,0,0,1-1V310A1,1,0,0,0,399,309Z" fill="url(#linear-gradient-16)"/>
      <path d="M426,293H376a1,1,0,0,0-1,1v12a1,1,0,0,0,1,1h50a1,1,0,0,0,1-1V294A1,1,0,0,0,426,293Z" fill="url(#linear-gradient-17)"/>
      <path d="M345,309H295a1,1,0,0,0-1,1v12a1,1,0,0,0,1,1h50a1,1,0,0,0,1-1V310A1,1,0,0,0,345,309Z" fill="url(#linear-gradient-18)"/>
      <path d="M372,293H322a1,1,0,0,0-1,1v12a1,1,0,0,0,1,1h50a1,1,0,0,0,1-1V294A1,1,0,0,0,372,293Z" fill="url(#linear-gradient-19)"/>
      <path d="M291,309H241a1,1,0,0,0-1,1v12a1,1,0,0,0,1,1h50a1,1,0,0,0,1-1V310A1,1,0,0,0,291,309Z" fill="url(#linear-gradient-20)"/>
      <path d="M318,293H268a1,1,0,0,0-1,1v12a1,1,0,0,0,1,1h50a1,1,0,0,0,1-1V294A1,1,0,0,0,318,293Z" fill="url(#linear-gradient-21)"/>
      <path d="M237,309H187a1,1,0,0,0-1,1v12a1,1,0,0,0,1,1h50a1,1,0,0,0,1-1V310A1,1,0,0,0,237,309Z" fill="url(#linear-gradient-22)"/>
      <path d="M264,293H214a1,1,0,0,0-1,1v12a1,1,0,0,0,1,1h50a1,1,0,0,0,1-1V294A1,1,0,0,0,264,293Z" fill="url(#linear-gradient-23)"/>
      <path d="M183,309H133a1,1,0,0,0-1,1v12a1,1,0,0,0,1,1h50a1,1,0,0,0,1-1V310A1,1,0,0,0,183,309Z" fill="url(#linear-gradient-24)"/>
      <path d="M210,293H160a1,1,0,0,0-1,1v12a1,1,0,0,0,1,1h50a1,1,0,0,0,1-1V294A1,1,0,0,0,210,293Z" fill="url(#linear-gradient-25)"/>
      <path d="M129,309H79a1,1,0,0,0-1,1v12a1,1,0,0,0,1,1h50a1,1,0,0,0,1-1V310A1,1,0,0,0,129,309Z" fill="url(#linear-gradient-26)"/>
      <path d="M156,293H106a1,1,0,0,0-1,1v12a1,1,0,0,0,1,1h50a1,1,0,0,0,1-1V294A1,1,0,0,0,156,293Z" fill="url(#linear-gradient-27)"/>
      <path d="M75,309H25a1,1,0,0,0-1,1v12a1,1,0,0,0,1,1H75a1,1,0,0,0,1-1V310A1,1,0,0,0,75,309Z" fill="url(#linear-gradient-28)"/>
      <path d="M102,293H52a1,1,0,0,0-1,1v12a1,1,0,0,0,1,1h50a1,1,0,0,0,1-1V294A1,1,0,0,0,102,293Z" fill="url(#linear-gradient-29)"/>
      <path d="M21,309H1a1,1,0,0,0-1,1v12a1,1,0,0,0,1,1H21a1,1,0,0,0,1-1V310A1,1,0,0,0,21,309Z" fill="url(#linear-gradient-30)"/>
      <path d="M48,293H1a1,1,0,0,0-1,1v12a1,1,0,0,0,1,1H48a1,1,0,0,0,1-1V294A1,1,0,0,0,48,293Z" fill="url(#linear-gradient-31)"/>
      <path d="M798,277H781a1,1,0,0,0-1,1v12a1,1,0,0,0,1,1h17a1,1,0,0,0,1-1V278A1,1,0,0,0,798,277Z" fill="url(#linear-gradient)"/>
      <path d="M777,277H727a1,1,0,0,0-1,1v12a1,1,0,0,0,1,1h50a1,1,0,0,0,1-1V278A1,1,0,0,0,777,277Z" fill="url(#linear-gradient-2)"/>
      <path d="M799,261H754a1,1,0,0,0-1,1v12a1,1,0,0,0,1,1h45a1,1,0,0,0,1-1V262A1,1,0,0,0,799,261Z" fill="url(#linear-gradient-3)"/>
      <path d="M723,277H673a1,1,0,0,0-1,1v12a1,1,0,0,0,1,1h50a1,1,0,0,0,1-1V278A1,1,0,0,0,723,277Z" fill="url(#linear-gradient-4)"/>
      <path d="M750,261H700a1,1,0,0,0-1,1v12a1,1,0,0,0,1,1h50a1,1,0,0,0,1-1V262A1,1,0,0,0,750,261Z" fill="url(#linear-gradient-5)"/>
      <path d="M669,277H619a1,1,0,0,0-1,1v12a1,1,0,0,0,1,1h50a1,1,0,0,0,1-1V278A1,1,0,0,0,669,277Z" fill="url(#linear-gradient-6)"/>
      <path d="M696,261H646a1,1,0,0,0-1,1v12a1,1,0,0,0,1,1h50a1,1,0,0,0,1-1V262A1,1,0,0,0,696,261Z" fill="url(#linear-gradient-7)"/>
      <path d="M615,277H565a1,1,0,0,0-1,1v12a1,1,0,0,0,1,1h50a1,1,0,0,0,1-1V278A1,1,0,0,0,615,277Z" fill="url(#linear-gradient-8)"/>
      <path d="M642,261H592a1,1,0,0,0-1,1v12a1,1,0,0,0,1,1h50a1,1,0,0,0,1-1V262A1,1,0,0,0,642,261Z" fill="url(#linear-gradient-9)"/>
      <path d="M561,277H511a1,1,0,0,0-1,1v12a1,1,0,0,0,1,1h50a1,1,0,0,0,1-1V278A1,1,0,0,0,561,277Z" fill="url(#linear-gradient-10)"/>
      <path d="M588,261H538a1,1,0,0,0-1,1v12a1,1,0,0,0,1,1h50a1,1,0,0,0,1-1V262A1,1,0,0,0,588,261Z" fill="url(#linear-gradient-11)"/>
      <path d="M507,277H457a1,1,0,0,0-1,1v12a1,1,0,0,0,1,1h50a1,1,0,0,0,1-1V278A1,1,0,0,0,507,277Z" fill="url(#linear-gradient-12)"/>
      <path d="M534,261H484a1,1,0,0,0-1,1v12a1,1,0,0,0,1,1h50a1,1,0,0,0,1-1V262A1,1,0,0,0,534,261Z" fill="url(#linear-gradient-13)"/>
      <path d="M453,277H403a1,1,0,0,0-1,1v12a1,1,0,0,0,1,1h50a1,1,0,0,0,1-1V278A1,1,0,0,0,453,277Z" fill="url(#linear-gradient-14)"/>
      <path d="M480,261H430a1,1,0,0,0-1,1v12a1,1,0,0,0,1,1h50a1,1,0,0,0,1-1V262A1,1,0,0,0,480,261Z" fill="url(#linear-gradient-15)"/>
      <path d="M399,277H349a1,1,0,0,0-1,1v12a1,1,0,0,0,1,1h50a1,1,0,0,0,1-1V278A1,1,0,0,0,399,277Z" fill="url(#linear-gradient-16)"/>
      <path d="M426,261H376a1,1,0,0,0-1,1v12a1,1,0,0,0,1,1h50a1,1,0,0,0,1-1V262A1,1,0,0,0,426,261Z" fill="url(#linear-gradient-17)"/>
      <path d="M345,277H295a1,1,0,0,0-1,1v12a1,1,0,0,0,1,1h50a1,1,0,0,0,1-1V278A1,1,0,0,0,345,277Z" fill="url(#linear-gradient-18)"/>
      <path d="M372,261H322a1,1,0,0,0-1,1v12a1,1,0,0,0,1,1h50a1,1,0,0,0,1-1V262A1,1,0,0,0,372,261Z" fill="url(#linear-gradient-19)"/>
      <path d="M291,277H241a1,1,0,0,0-1,1v12a1,1,0,0,0,1,1h50a1,1,0,0,0,1-1V278A1,1,0,0,0,291,277Z" fill="url(#linear-gradient-20)"/>
      <path d="M318,261H268a1,1,0,0,0-1,1v12a1,1,0,0,0,1,1h50a1,1,0,0,0,1-1V262A1,1,0,0,0,318,261Z" fill="url(#linear-gradient-21)"/>
      <path d="M237,277H187a1,1,0,0,0-1,1v12a1,1,0,0,0,1,1h50a1,1,0,0,0,1-1V278A1,1,0,0,0,237,277Z" fill="url(#linear-gradient-22)"/>
      <path d="M264,261H214a1,1,0,0,0-1,1v12a1,1,0,0,0,1,1h50a1,1,0,0,0,1-1V262A1,1,0,0,0,264,261Z" fill="url(#linear-gradient-23)"/>
      <path d="M183,277H133a1,1,0,0,0-1,1v12a1,1,0,0,0,1,1h50a1,1,0,0,0,1-1V278A1,1,0,0,0,183,277Z" fill="url(#linear-gradient-24)"/>
      <path d="M210,261H160a1,1,0,0,0-1,1v12a1,1,0,0,0,1,1h50a1,1,0,0,0,1-1V262A1,1,0,0,0,210,261Z" fill="url(#linear-gradient-25)"/>
      <path d="M129,277H79a1,1,0,0,0-1,1v12a1,1,0,0,0,1,1h50a1,1,0,0,0,1-1V278A1,1,0,0,0,129,277Z" fill="url(#linear-gradient-26)"/>
      <path d="M156,261H106a1,1,0,0,0-1,1v12a1,1,0,0,0,1,1h50a1,1,0,0,0,1-1V262A1,1,0,0,0,156,261Z" fill="url(#linear-gradient-27)"/>
      <path d="M75,277H25a1,1,0,0,0-1,1v12a1,1,0,0,0,1,1H75a1,1,0,0,0,1-1V278A1,1,0,0,0,75,277Z" fill="url(#linear-gradient-28)"/>
      <path d="M102,261H52a1,1,0,0,0-1,1v12a1,1,0,0,0,1,1h50a1,1,0,0,0,1-1V262A1,1,0,0,0,102,261Z" fill="url(#linear-gradient-29)"/>
      <path d="M21,277H1a1,1,0,0,0-1,1v12a1,1,0,0,0,1,1H21a1,1,0,0,0,1-1V278A1,1,0,0,0,21,277Z" fill="url(#linear-gradient-30)"/>
      <path d="M48,261H1a1,1,0,0,0-1,1v12a1,1,0,0,0,1,1H48a1,1,0,0,0,1-1V262A1,1,0,0,0,48,261Z" fill="url(#linear-gradient-31)"/>
      <path d="M798,245H781a1,1,0,0,0-1,1v12a1,1,0,0,0,1,1h17a1,1,0,0,0,1-1V246A1,1,0,0,0,798,245Z" fill="url(#linear-gradient)"/>
      <path d="M777,245H727a1,1,0,0,0-1,1v12a1,1,0,0,0,1,1h50a1,1,0,0,0,1-1V246A1,1,0,0,0,777,245Z" fill="url(#linear-gradient-2)"/>
      <path d="M799,229H754a1,1,0,0,0-1,1v12a1,1,0,0,0,1,1h45a1,1,0,0,0,1-1V230A1,1,0,0,0,799,229Z" fill="url(#linear-gradient-3)"/>
      <path d="M723,245H673a1,1,0,0,0-1,1v12a1,1,0,0,0,1,1h50a1,1,0,0,0,1-1V246A1,1,0,0,0,723,245Z" fill="url(#linear-gradient-4)"/>
      <path d="M750,229H700a1,1,0,0,0-1,1v12a1,1,0,0,0,1,1h50a1,1,0,0,0,1-1V230A1,1,0,0,0,750,229Z" fill="url(#linear-gradient-5)"/>
      <path d="M669,245H619a1,1,0,0,0-1,1v12a1,1,0,0,0,1,1h50a1,1,0,0,0,1-1V246A1,1,0,0,0,669,245Z" fill="url(#linear-gradient-6)"/>
      <path d="M696,229H646a1,1,0,0,0-1,1v12a1,1,0,0,0,1,1h50a1,1,0,0,0,1-1V230A1,1,0,0,0,696,229Z" fill="url(#linear-gradient-7)"/>
      <path d="M615,245H565a1,1,0,0,0-1,1v12a1,1,0,0,0,1,1h50a1,1,0,0,0,1-1V246A1,1,0,0,0,615,245Z" fill="url(#linear-gradient-8)"/>
      <path d="M642,229H592a1,1,0,0,0-1,1v12a1,1,0,0,0,1,1h50a1,1,0,0,0,1-1V230A1,1,0,0,0,642,229Z" fill="url(#linear-gradient-9)"/>
      <path d="M561,245H511a1,1,0,0,0-1,1v12a1,1,0,0,0,1,1h50a1,1,0,0,0,1-1V246A1,1,0,0,0,561,245Z" fill="url(#linear-gradient-10)"/>
      <path d="M588,229H538a1,1,0,0,0-1,1v12a1,1,0,0,0,1,1h50a1,1,0,0,0,1-1V230A1,1,0,0,0,588,229Z" fill="url(#linear-gradient-11)"/>
      <path d="M507,245H457a1,1,0,0,0-1,1v12a1,1,0,0,0,1,1h50a1,1,0,0,0,1-1V246A1,1,0,0,0,507,245Z" fill="url(#linear-gradient-12)"/>
      <path d="M534,229H484a1,1,0,0,0-1,1v12a1,1,0,0,0,1,1h50a1,1,0,0,0,1-1V230A1,1,0,0,0,534,229Z" fill="url(#linear-gradient-13)"/>
      <path d="M453,245H403a1,1,0,0,0-1,1v12a1,1,0,0,0,1,1h50a1,1,0,0,0,1-1V246A1,1,0,0,0,453,245Z" fill="url(#linear-gradient-14)"/>
      <path d="M480,229H430a1,1,0,0,0-1,1v12a1,1,0,0,0,1,1h50a1,1,0,0,0,1-1V230A1,1,0,0,0,480,229Z" fill="url(#linear-gradient-15)"/>
      <path d="M399,245H349a1,1,0,0,0-1,1v12a1,1,0,0,0,1,1h50a1,1,0,0,0,1-1V246A1,1,0,0,0,399,245Z" fill="url(#linear-gradient-16)"/>
      <path d="M426,229H376a1,1,0,0,0-1,1v12a1,1,0,0,0,1,1h50a1,1,0,0,0,1-1V230A1,1,0,0,0,426,229Z" fill="url(#linear-gradient-17)"/>
      <path d="M345,245H295a1,1,0,0,0-1,1v12a1,1,0,0,0,1,1h50a1,1,0,0,0,1-1V246A1,1,0,0,0,345,245Z" fill="url(#linear-gradient-18)"/>
      <path d="M372,229H322a1,1,0,0,0-1,1v12a1,1,0,0,0,1,1h50a1,1,0,0,0,1-1V230A1,1,0,0,0,372,229Z" fill="url(#linear-gradient-19)"/>
      <path d="M291,245H241a1,1,0,0,0-1,1v12a1,1,0,0,0,1,1h50a1,1,0,0,0,1-1V246A1,1,0,0,0,291,245Z" fill="url(#linear-gradient-20)"/>
      <path d="M318,229H268a1,1,0,0,0-1,1v12a1,1,0,0,0,1,1h50a1,1,0,0,0,1-1V230A1,1,0,0,0,318,229Z" fill="url(#linear-gradient-21)"/>
      <path d="M237,245H187a1,1,0,0,0-1,1v12a1,1,0,0,0,1,1h50a1,1,0,0,0,1-1V246A1,1,0,0,0,237,245Z" fill="url(#linear-gradient-22)"/>
      <path d="M264,229H214a1,1,0,0,0-1,1v12a1,1,0,0,0,1,1h50a1,1,0,0,0,1-1V230A1,1,0,0,0,264,229Z" fill="url(#linear-gradient-23)"/>
      <path d="M183,245H133a1,1,0,0,0-1,1v12a1,1,0,0,0,1,1h50a1,1,0,0,0,1-1V246A1,1,0,0,0,183,245Z" fill="url(#linear-gradient-24)"/>
      <path d="M210,229H160a1,1,0,0,0-1,1v12a1,1,0,0,0,1,1h50a1,1,0,0,0,1-1V230A1,1,0,0,0,210,229Z" fill="url(#linear-gradient-25)"/>
      <path d="M129,245H79a1,1,0,0,0-1,1v12a1,1,0,0,0,1,1h50a1,1,0,0,0,1-1V246A1,1,0,0,0,129,245Z" fill="url(#linear-gradient-26)"/>
      <path d="M156,229H106a1,1,0,0,0-1,1v12a1,1,0,0,0,1,1h50a1,1,0,0,0,1-1V230A1,1,0,0,0,156,229Z" fill="url(#linear-gradient-27)"/>
      <path d="M75,245H25a1,1,0,0,0-1,1v12a1,1,0,0,0,1,1H75a1,1,0,0,0,1-1V246A1,1,0,0,0,75,245Z" fill="url(#linear-gradient-28)"/>
      <path d="M102,229H52a1,1,0,0,0-1,1v12a1,1,0,0,0,1,1h50a1,1,0,0,0,1-1V230A1,1,0,0,0,102,229Z" fill="url(#linear-gradient-29)"/>
      <path d="M21,245H1a1,1,0,0,0-1,1v12a1,1,0,0,0,1,1H21a1,1,0,0,0,1-1V246A1,1,0,0,0,21,245Z" fill="url(#linear-gradient-30)"/>
      <path d="M48,229H1a1,1,0,0,0-1,1v12a1,1,0,0,0,1,1H48a1,1,0,0,0,1-1V230A1,1,0,0,0,48,229Z" fill="url(#linear-gradient-31)"/>
      <path d="M798,213H781a1,1,0,0,0-1,1v12a1,1,0,0,0,1,1h17a1,1,0,0,0,1-1V214A1,1,0,0,0,798,213Z" fill="url(#linear-gradient)"/>
      <path d="M777,213H727a1,1,0,0,0-1,1v12a1,1,0,0,0,1,1h50a1,1,0,0,0,1-1V214A1,1,0,0,0,777,213Z" fill="url(#linear-gradient-2)"/>
      <path d="M799,197H754a1,1,0,0,0-1,1v12a1,1,0,0,0,1,1h45a1,1,0,0,0,1-1V198A1,1,0,0,0,799,197Z" fill="url(#linear-gradient-3)"/>
      <path d="M723,213H673a1,1,0,0,0-1,1v12a1,1,0,0,0,1,1h50a1,1,0,0,0,1-1V214A1,1,0,0,0,723,213Z" fill="url(#linear-gradient-4)"/>
      <path d="M750,197H700a1,1,0,0,0-1,1v12a1,1,0,0,0,1,1h50a1,1,0,0,0,1-1V198A1,1,0,0,0,750,197Z" fill="url(#linear-gradient-5)"/>
      <path d="M669,213H619a1,1,0,0,0-1,1v12a1,1,0,0,0,1,1h50a1,1,0,0,0,1-1V214A1,1,0,0,0,669,213Z" fill="url(#linear-gradient-6)"/>
      <path d="M696,197H646a1,1,0,0,0-1,1v12a1,1,0,0,0,1,1h50a1,1,0,0,0,1-1V198A1,1,0,0,0,696,197Z" fill="url(#linear-gradient-7)"/>
      <path d="M615,213H565a1,1,0,0,0-1,1v12a1,1,0,0,0,1,1h50a1,1,0,0,0,1-1V214A1,1,0,0,0,615,213Z" fill="url(#linear-gradient-8)"/>
      <path d="M642,197H592a1,1,0,0,0-1,1v12a1,1,0,0,0,1,1h50a1,1,0,0,0,1-1V198A1,1,0,0,0,642,197Z" fill="url(#linear-gradient-9)"/>
      <path d="M561,213H511a1,1,0,0,0-1,1v12a1,1,0,0,0,1,1h50a1,1,0,0,0,1-1V214A1,1,0,0,0,561,213Z" fill="url(#linear-gradient-10)"/>
      <path d="M588,197H538a1,1,0,0,0-1,1v12a1,1,0,0,0,1,1h50a1,1,0,0,0,1-1V198A1,1,0,0,0,588,197Z" fill="url(#linear-gradient-11)"/>
      <path d="M507,213H457a1,1,0,0,0-1,1v12a1,1,0,0,0,1,1h50a1,1,0,0,0,1-1V214A1,1,0,0,0,507,213Z" fill="url(#linear-gradient-12)"/>
      <path d="M534,197H484a1,1,0,0,0-1,1v12a1,1,0,0,0,1,1h50a1,1,0,0,0,1-1V198A1,1,0,0,0,534,197Z" fill="url(#linear-gradient-13)"/>
      <path d="M453,213H403a1,1,0,0,0-1,1v12a1,1,0,0,0,1,1h50a1,1,0,0,0,1-1V214A1,1,0,0,0,453,213Z" fill="url(#linear-gradient-14)"/>
      <path d="M480,197H430a1,1,0,0,0-1,1v12a1,1,0,0,0,1,1h50a1,1,0,0,0,1-1V198A1,1,0,0,0,480,197Z" fill="url(#linear-gradient-15)"/>
      <path d="M399,213H349a1,1,0,0,0-1,1v12a1,1,0,0,0,1,1h50a1,1,0,0,0,1-1V214A1,1,0,0,0,399,213Z" fill="url(#linear-gradient-16)"/>
      <path d="M426,197H376a1,1,0,0,0-1,1v12a1,1,0,0,0,1,1h50a1,1,0,0,0,1-1V198A1,1,0,0,0,426,197Z" fill="url(#linear-gradient-17)"/>
      <path d="M345,213H295a1,1,0,0,0-1,1v12a1,1,0,0,0,1,1h50a1,1,0,0,0,1-1V214A1,1,0,0,0,345,213Z" fill="url(#linear-gradient-18)"/>
      <path d="M372,197H322a1,1,0,0,0-1,1v12a1,1,0,0,0,1,1h50a1,1,0,0,0,1-1V198A1,1,0,0,0,372,197Z" fill="url(#linear-gradient-19)"/>
      <path d="M291,213H241a1,1,0,0,0-1,1v12a1,1,0,0,0,1,1h50a1,1,0,0,0,1-1V214A1,1,0,0,0,291,213Z" fill="url(#linear-gradient-20)"/>
      <path d="M318,197H268a1,1,0,0,0-1,1v12a1,1,0,0,0,1,1h50a1,1,0,0,0,1-1V198A1,1,0,0,0,318,197Z" fill="url(#linear-gradient-21)"/>
      <path d="M237,213H187a1,1,0,0,0-1,1v12a1,1,0,0,0,1,1h50a1,1,0,0,0,1-1V214A1,1,0,0,0,237,213Z" fill="url(#linear-gradient-22)"/>
      <path d="M264,197H214a1,1,0,0,0-1,1v12a1,1,0,0,0,1,1h50a1,1,0,0,0,1-1V198A1,1,0,0,0,264,197Z" fill="url(#linear-gradient-23)"/>
      <path d="M183,213H133a1,1,0,0,0-1,1v12a1,1,0,0,0,1,1h50a1,1,0,0,0,1-1V214A1,1,0,0,0,183,213Z" fill="url(#linear-gradient-24)"/>
      <path d="M210,197H160a1,1,0,0,0-1,1v12a1,1,0,0,0,1,1h50a1,1,0,0,0,1-1V198A1,1,0,0,0,210,197Z" fill="url(#linear-gradient-25)"/>
      <path d="M129,213H79a1,1,0,0,0-1,1v12a1,1,0,0,0,1,1h50a1,1,0,0,0,1-1V214A1,1,0,0,0,129,213Z" fill="url(#linear-gradient-26)"/>
      <path d="M156,197H106a1,1,0,0,0-1,1v12a1,1,0,0,0,1,1h50a1,1,0,0,0,1-1V198A1,1,0,0,0,156,197Z" fill="url(#linear-gradient-27)"/>
      <path d="M75,213H25a1,1,0,0,0-1,1v12a1,1,0,0,0,1,1H75a1,1,0,0,0,1-1V214A1,1,0,0,0,75,213Z" fill="url(#linear-gradient-28)"/>
      <path d="M102,197H52a1,1,0,0,0-1,1v12a1,1,0,0,0,1,1h50a1,1,0,0,0,1-1V198A1,1,0,0,0,102,197Z" fill="url(#linear-gradient-29)"/>
      <path d="M21,213H1a1,1,0,0,0-1,1v12a1,1,0,0,0,1,1H21a1,1,0,0,0,1-1V214A1,1,0,0,0,21,213Z" fill="url(#linear-gradient-30)"/>
      <path d="M48,197H1a1,1,0,0,0-1,1v12a1,1,0,0,0,1,1H48a1,1,0,0,0,1-1V198A1,1,0,0,0,48,197Z" fill="url(#linear-gradient-31)"/>
      <path d="M798,181H781a1,1,0,0,0-1,1v12a1,1,0,0,0,1,1h17a1,1,0,0,0,1-1V182A1,1,0,0,0,798,181Z" fill="url(#linear-gradient)"/>
      <path d="M777,181H727a1,1,0,0,0-1,1v12a1,1,0,0,0,1,1h50a1,1,0,0,0,1-1V182A1,1,0,0,0,777,181Z" fill="url(#linear-gradient-2)"/>
      <path d="M799,165H754a1,1,0,0,0-1,1v12a1,1,0,0,0,1,1h45a1,1,0,0,0,1-1V166A1,1,0,0,0,799,165Z" fill="url(#linear-gradient-3)"/>
      <path d="M723,181H673a1,1,0,0,0-1,1v12a1,1,0,0,0,1,1h50a1,1,0,0,0,1-1V182A1,1,0,0,0,723,181Z" fill="url(#linear-gradient-4)"/>
      <path d="M750,165H700a1,1,0,0,0-1,1v12a1,1,0,0,0,1,1h50a1,1,0,0,0,1-1V166A1,1,0,0,0,750,165Z" fill="url(#linear-gradient-5)"/>
      <path d="M669,181H619a1,1,0,0,0-1,1v12a1,1,0,0,0,1,1h50a1,1,0,0,0,1-1V182A1,1,0,0,0,669,181Z" fill="url(#linear-gradient-6)"/>
      <path d="M696,165H646a1,1,0,0,0-1,1v12a1,1,0,0,0,1,1h50a1,1,0,0,0,1-1V166A1,1,0,0,0,696,165Z" fill="url(#linear-gradient-7)"/>
      <path d="M615,181H565a1,1,0,0,0-1,1v12a1,1,0,0,0,1,1h50a1,1,0,0,0,1-1V182A1,1,0,0,0,615,181Z" fill="url(#linear-gradient-8)"/>
      <path d="M642,165H592a1,1,0,0,0-1,1v12a1,1,0,0,0,1,1h50a1,1,0,0,0,1-1V166A1,1,0,0,0,642,165Z" fill="url(#linear-gradient-9)"/>
      <path d="M561,181H511a1,1,0,0,0-1,1v12a1,1,0,0,0,1,1h50a1,1,0,0,0,1-1V182A1,1,0,0,0,561,181Z" fill="url(#linear-gradient-10)"/>
      <path d="M588,165H538a1,1,0,0,0-1,1v12a1,1,0,0,0,1,1h50a1,1,0,0,0,1-1V166A1,1,0,0,0,588,165Z" fill="url(#linear-gradient-11)"/>
      <path d="M507,181H457a1,1,0,0,0-1,1v12a1,1,0,0,0,1,1h50a1,1,0,0,0,1-1V182A1,1,0,0,0,507,181Z" fill="url(#linear-gradient-12)"/>
      <path d="M534,165H484a1,1,0,0,0-1,1v12a1,1,0,0,0,1,1h50a1,1,0,0,0,1-1V166A1,1,0,0,0,534,165Z" fill="url(#linear-gradient-13)"/>
      <path d="M453,181H403a1,1,0,0,0-1,1v12a1,1,0,0,0,1,1h50a1,1,0,0,0,1-1V182A1,1,0,0,0,453,181Z" fill="url(#linear-gradient-14)"/>
      <path d="M480,165H430a1,1,0,0,0-1,1v12a1,1,0,0,0,1,1h50a1,1,0,0,0,1-1V166A1,1,0,0,0,480,165Z" fill="url(#linear-gradient-15)"/>
      <path d="M399,181H349a1,1,0,0,0-1,1v12a1,1,0,0,0,1,1h50a1,1,0,0,0,1-1V182A1,1,0,0,0,399,181Z" fill="url(#linear-gradient-16)"/>
      <path d="M426,165H376a1,1,0,0,0-1,1v12a1,1,0,0,0,1,1h50a1,1,0,0,0,1-1V166A1,1,0,0,0,426,165Z" fill="url(#linear-gradient-17)"/>
      <path d="M345,181H295a1,1,0,0,0-1,1v12a1,1,0,0,0,1,1h50a1,1,0,0,0,1-1V182A1,1,0,0,0,345,181Z" fill="url(#linear-gradient-18)"/>
      <path d="M372,165H322a1,1,0,0,0-1,1v12a1,1,0,0,0,1,1h50a1,1,0,0,0,1-1V166A1,1,0,0,0,372,165Z" fill="url(#linear-gradient-19)"/>
      <path d="M291,181H241a1,1,0,0,0-1,1v12a1,1,0,0,0,1,1h50a1,1,0,0,0,1-1V182A1,1,0,0,0,291,181Z" fill="url(#linear-gradient-20)"/>
      <path d="M318,165H268a1,1,0,0,0-1,1v12a1,1,0,0,0,1,1h50a1,1,0,0,0,1-1V166A1,1,0,0,0,318,165Z" fill="url(#linear-gradient-21)"/>
      <path d="M237,181H187a1,1,0,0,0-1,1v12a1,1,0,0,0,1,1h50a1,1,0,0,0,1-1V182A1,1,0,0,0,237,181Z" fill="url(#linear-gradient-22)"/>
      <path d="M264,165H214a1,1,0,0,0-1,1v12a1,1,0,0,0,1,1h50a1,1,0,0,0,1-1V166A1,1,0,0,0,264,165Z" fill="url(#linear-gradient-23)"/>
      <path d="M183,181H133a1,1,0,0,0-1,1v12a1,1,0,0,0,1,1h50a1,1,0,0,0,1-1V182A1,1,0,0,0,183,181Z" fill="url(#linear-gradient-24)"/>
      <path d="M210,165H160a1,1,0,0,0-1,1v12a1,1,0,0,0,1,1h50a1,1,0,0,0,1-1V166A1,1,0,0,0,210,165Z" fill="url(#linear-gradient-25)"/>
      <path d="M129,181H79a1,1,0,0,0-1,1v12a1,1,0,0,0,1,1h50a1,1,0,0,0,1-1V182A1,1,0,0,0,129,181Z" fill="url(#linear-gradient-26)"/>
      <path d="M156,165H106a1,1,0,0,0-1,1v12a1,1,0,0,0,1,1h50a1,1,0,0,0,1-1V166A1,1,0,0,0,156,165Z" fill="url(#linear-gradient-27)"/>
      <path d="M75,181H25a1,1,0,0,0-1,1v12a1,1,0,0,0,1,1H75a1,1,0,0,0,1-1V182A1,1,0,0,0,75,181Z" fill="url(#linear-gradient-28)"/>
      <path d="M102,165H52a1,1,0,0,0-1,1v12a1,1,0,0,0,1,1h50a1,1,0,0,0,1-1V166A1,1,0,0,0,102,165Z" fill="url(#linear-gradient-29)"/>
      <path d="M21,181H1a1,1,0,0,0-1,1v12a1,1,0,0,0,1,1H21a1,1,0,0,0,1-1V182A1,1,0,0,0,21,181Z" fill="url(#linear-gradient-30)"/>
      <path d="M48,165H1a1,1,0,0,0-1,1v12a1,1,0,0,0,1,1H48a1,1,0,0,0,1-1V166A1,1,0,0,0,48,165Z" fill="url(#linear-gradient-31)"/>
      <path d="M798,149H781a1,1,0,0,0-1,1v12a1,1,0,0,0,1,1h17a1,1,0,0,0,1-1V150A1,1,0,0,0,798,149Z" fill="url(#linear-gradient)"/>
      <path d="M777,149H727a1,1,0,0,0-1,1v12a1,1,0,0,0,1,1h50a1,1,0,0,0,1-1V150A1,1,0,0,0,777,149Z" fill="url(#linear-gradient-2)"/>
      <path d="M799,133H754a1,1,0,0,0-1,1v12a1,1,0,0,0,1,1h45a1,1,0,0,0,1-1V134A1,1,0,0,0,799,133Z" fill="url(#linear-gradient-3)"/>
      <path d="M723,149H673a1,1,0,0,0-1,1v12a1,1,0,0,0,1,1h50a1,1,0,0,0,1-1V150A1,1,0,0,0,723,149Z" fill="url(#linear-gradient-4)"/>
      <path d="M750,133H700a1,1,0,0,0-1,1v12a1,1,0,0,0,1,1h50a1,1,0,0,0,1-1V134A1,1,0,0,0,750,133Z" fill="url(#linear-gradient-5)"/>
      <path d="M669,149H619a1,1,0,0,0-1,1v12a1,1,0,0,0,1,1h50a1,1,0,0,0,1-1V150A1,1,0,0,0,669,149Z" fill="url(#linear-gradient-6)"/>
      <path d="M696,133H646a1,1,0,0,0-1,1v12a1,1,0,0,0,1,1h50a1,1,0,0,0,1-1V134A1,1,0,0,0,696,133Z" fill="url(#linear-gradient-7)"/>
      <path d="M615,149H565a1,1,0,0,0-1,1v12a1,1,0,0,0,1,1h50a1,1,0,0,0,1-1V150A1,1,0,0,0,615,149Z" fill="url(#linear-gradient-8)"/>
      <path d="M642,133H592a1,1,0,0,0-1,1v12a1,1,0,0,0,1,1h50a1,1,0,0,0,1-1V134A1,1,0,0,0,642,133Z" fill="url(#linear-gradient-9)"/>
      <path d="M561,149H511a1,1,0,0,0-1,1v12a1,1,0,0,0,1,1h50a1,1,0,0,0,1-1V150A1,1,0,0,0,561,149Z" fill="url(#linear-gradient-10)"/>
      <path d="M588,133H538a1,1,0,0,0-1,1v12a1,1,0,0,0,1,1h50a1,1,0,0,0,1-1V134A1,1,0,0,0,588,133Z" fill="url(#linear-gradient-11)"/>
      <path d="M507,149H457a1,1,0,0,0-1,1v12a1,1,0,0,0,1,1h50a1,1,0,0,0,1-1V150A1,1,0,0,0,507,149Z" fill="url(#linear-gradient-12)"/>
      <path d="M534,133H484a1,1,0,0,0-1,1v12a1,1,0,0,0,1,1h50a1,1,0,0,0,1-1V134A1,1,0,0,0,534,133Z" fill="url(#linear-gradient-13)"/>
      <path d="M453,149H403a1,1,0,0,0-1,1v12a1,1,0,0,0,1,1h50a1,1,0,0,0,1-1V150A1,1,0,0,0,453,149Z" fill="url(#linear-gradient-14)"/>
      <path d="M480,133H430a1,1,0,0,0-1,1v12a1,1,0,0,0,1,1h50a1,1,0,0,0,1-1V134A1,1,0,0,0,480,133Z" fill="url(#linear-gradient-15)"/>
      <path d="M399,149H349a1,1,0,0,0-1,1v12a1,1,0,0,0,1,1h50a1,1,0,0,0,1-1V150A1,1,0,0,0,399,149Z" fill="url(#linear-gradient-16)"/>
      <path d="M426,133H376a1,1,0,0,0-1,1v12a1,1,0,0,0,1,1h50a1,1,0,0,0,1-1V134A1,1,0,0,0,426,133Z" fill="url(#linear-gradient-17)"/>
      <path d="M345,149H295a1,1,0,0,0-1,1v12a1,1,0,0,0,1,1h50a1,1,0,0,0,1-1V150A1,1,0,0,0,345,149Z" fill="url(#linear-gradient-18)"/>
      <path d="M372,133H322a1,1,0,0,0-1,1v12a1,1,0,0,0,1,1h50a1,1,0,0,0,1-1V134A1,1,0,0,0,372,133Z" fill="url(#linear-gradient-19)"/>
      <path d="M291,149H241a1,1,0,0,0-1,1v12a1,1,0,0,0,1,1h50a1,1,0,0,0,1-1V150A1,1,0,0,0,291,149Z" fill="url(#linear-gradient-20)"/>
      <path d="M318,133H268a1,1,0,0,0-1,1v12a1,1,0,0,0,1,1h50a1,1,0,0,0,1-1V134A1,1,0,0,0,318,133Z" fill="url(#linear-gradient-21)"/>
      <path d="M237,149H187a1,1,0,0,0-1,1v12a1,1,0,0,0,1,1h50a1,1,0,0,0,1-1V150A1,1,0,0,0,237,149Z" fill="url(#linear-gradient-22)"/>
      <path d="M264,133H214a1,1,0,0,0-1,1v12a1,1,0,0,0,1,1h50a1,1,0,0,0,1-1V134A1,1,0,0,0,264,133Z" fill="url(#linear-gradient-23)"/>
      <path d="M183,149H133a1,1,0,0,0-1,1v12a1,1,0,0,0,1,1h50a1,1,0,0,0,1-1V150A1,1,0,0,0,183,149Z" fill="url(#linear-gradient-24)"/>
      <path d="M210,133H160a1,1,0,0,0-1,1v12a1,1,0,0,0,1,1h50a1,1,0,0,0,1-1V134A1,1,0,0,0,210,133Z" fill="url(#linear-gradient-25)"/>
      <path d="M129,149H79a1,1,0,0,0-1,1v12a1,1,0,0,0,1,1h50a1,1,0,0,0,1-1V150A1,1,0,0,0,129,149Z" fill="url(#linear-gradient-26)"/>
      <path d="M156,133H106a1,1,0,0,0-1,1v12a1,1,0,0,0,1,1h50a1,1,0,0,0,1-1V134A1,1,0,0,0,156,133Z" fill="url(#linear-gradient-27)"/>
      <path d="M75,149H25a1,1,0,0,0-1,1v12a1,1,0,0,0,1,1H75a1,1,0,0,0,1-1V150A1,1,0,0,0,75,149Z" fill="url(#linear-gradient-28)"/>
      <path d="M102,133H52a1,1,0,0,0-1,1v12a1,1,0,0,0,1,1h50a1,1,0,0,0,1-1V134A1,1,0,0,0,102,133Z" fill="url(#linear-gradient-29)"/>
      <path d="M21,149H1a1,1,0,0,0-1,1v12a1,1,0,0,0,1,1H21a1,1,0,0,0,1-1V150A1,1,0,0,0,21,149Z" fill="url(#linear-gradient-30)"/>
      <path d="M48,133H1a1,1,0,0,0-1,1v12a1,1,0,0,0,1,1H48a1,1,0,0,0,1-1V134A1,1,0,0,0,48,133Z" fill="url(#linear-gradient-31)"/>
      <path d="M798,117H781a1,1,0,0,0-1,1v12a1,1,0,0,0,1,1h17a1,1,0,0,0,1-1V118A1,1,0,0,0,798,117Z" fill="url(#linear-gradient)"/>
      <path d="M777,117H727a1,1,0,0,0-1,1v12a1,1,0,0,0,1,1h50a1,1,0,0,0,1-1V118A1,1,0,0,0,777,117Z" fill="url(#linear-gradient-2)"/>
      <path d="M799,101H754a1,1,0,0,0-1,1v12a1,1,0,0,0,1,1h45a1,1,0,0,0,1-1V102A1,1,0,0,0,799,101Z" fill="url(#linear-gradient-3)"/>
      <path d="M723,117H673a1,1,0,0,0-1,1v12a1,1,0,0,0,1,1h50a1,1,0,0,0,1-1V118A1,1,0,0,0,723,117Z" fill="url(#linear-gradient-4)"/>
      <path d="M750,101H700a1,1,0,0,0-1,1v12a1,1,0,0,0,1,1h50a1,1,0,0,0,1-1V102A1,1,0,0,0,750,101Z" fill="url(#linear-gradient-5)"/>
      <path d="M669,117H619a1,1,0,0,0-1,1v12a1,1,0,0,0,1,1h50a1,1,0,0,0,1-1V118A1,1,0,0,0,669,117Z" fill="url(#linear-gradient-6)"/>
      <path d="M696,101H646a1,1,0,0,0-1,1v12a1,1,0,0,0,1,1h50a1,1,0,0,0,1-1V102A1,1,0,0,0,696,101Z" fill="url(#linear-gradient-7)"/>
      <path d="M615,117H565a1,1,0,0,0-1,1v12a1,1,0,0,0,1,1h50a1,1,0,0,0,1-1V118A1,1,0,0,0,615,117Z" fill="url(#linear-gradient-8)"/>
      <path d="M642,101H592a1,1,0,0,0-1,1v12a1,1,0,0,0,1,1h50a1,1,0,0,0,1-1V102A1,1,0,0,0,642,101Z" fill="url(#linear-gradient-9)"/>
      <path d="M561,117H511a1,1,0,0,0-1,1v12a1,1,0,0,0,1,1h50a1,1,0,0,0,1-1V118A1,1,0,0,0,561,117Z" fill="url(#linear-gradient-10)"/>
      <path d="M588,101H538a1,1,0,0,0-1,1v12a1,1,0,0,0,1,1h50a1,1,0,0,0,1-1V102A1,1,0,0,0,588,101Z" fill="url(#linear-gradient-11)"/>
      <path d="M507,117H457a1,1,0,0,0-1,1v12a1,1,0,0,0,1,1h50a1,1,0,0,0,1-1V118A1,1,0,0,0,507,117Z" fill="url(#linear-gradient-12)"/>
      <path d="M534,101H484a1,1,0,0,0-1,1v12a1,1,0,0,0,1,1h50a1,1,0,0,0,1-1V102A1,1,0,0,0,534,101Z" fill="url(#linear-gradient-13)"/>
      <path d="M453,117H403a1,1,0,0,0-1,1v12a1,1,0,0,0,1,1h50a1,1,0,0,0,1-1V118A1,1,0,0,0,453,117Z" fill="url(#linear-gradient-14)"/>
      <path d="M480,101H430a1,1,0,0,0-1,1v12a1,1,0,0,0,1,1h50a1,1,0,0,0,1-1V102A1,1,0,0,0,480,101Z" fill="url(#linear-gradient-15)"/>
      <path d="M399,117H349a1,1,0,0,0-1,1v12a1,1,0,0,0,1,1h50a1,1,0,0,0,1-1V118A1,1,0,0,0,399,117Z" fill="url(#linear-gradient-16)"/>
      <path d="M426,101H376a1,1,0,0,0-1,1v12a1,1,0,0,0,1,1h50a1,1,0,0,0,1-1V102A1,1,0,0,0,426,101Z" fill="url(#linear-gradient-17)"/>
      <path d="M345,117H295a1,1,0,0,0-1,1v12a1,1,0,0,0,1,1h50a1,1,0,0,0,1-1V118A1,1,0,0,0,345,117Z" fill="url(#linear-gradient-18)"/>
      <path d="M372,101H322a1,1,0,0,0-1,1v12a1,1,0,0,0,1,1h50a1,1,0,0,0,1-1V102A1,1,0,0,0,372,101Z" fill="url(#linear-gradient-19)"/>
      <path d="M291,117H241a1,1,0,0,0-1,1v12a1,1,0,0,0,1,1h50a1,1,0,0,0,1-1V118A1,1,0,0,0,291,117Z" fill="url(#linear-gradient-20)"/>
      <path d="M318,101H268a1,1,0,0,0-1,1v12a1,1,0,0,0,1,1h50a1,1,0,0,0,1-1V102A1,1,0,0,0,318,101Z" fill="url(#linear-gradient-21)"/>
      <path d="M237,117H187a1,1,0,0,0-1,1v12a1,1,0,0,0,1,1h50a1,1,0,0,0,1-1V118A1,1,0,0,0,237,117Z" fill="url(#linear-gradient-22)"/>
      <path d="M264,101H214a1,1,0,0,0-1,1v12a1,1,0,0,0,1,1h50a1,1,0,0,0,1-1V102A1,1,0,0,0,264,101Z" fill="url(#linear-gradient-23)"/>
      <path d="M183,117H133a1,1,0,0,0-1,1v12a1,1,0,0,0,1,1h50a1,1,0,0,0,1-1V118A1,1,0,0,0,183,117Z" fill="url(#linear-gradient-24)"/>
      <path d="M210,101H160a1,1,0,0,0-1,1v12a1,1,0,0,0,1,1h50a1,1,0,0,0,1-1V102A1,1,0,0,0,210,101Z" fill="url(#linear-gradient-25)"/>
      <path d="M129,117H79a1,1,0,0,0-1,1v12a1,1,0,0,0,1,1h50a1,1,0,0,0,1-1V118A1,1,0,0,0,129,117Z" fill="url(#linear-gradient-26)"/>
      <path d="M156,101H106a1,1,0,0,0-1,1v12a1,1,0,0,0,1,1h50a1,1,0,0,0,1-1V102A1,1,0,0,0,156,101Z" fill="url(#linear-gradient-27)"/>
      <path d="M75,117H25a1,1,0,0,0-1,1v12a1,1,0,0,0,1,1H75a1,1,0,0,0,1-1V118A1,1,0,0,0,75,117Z" fill="url(#linear-gradient-28)"/>
      <path d="M102,101H52a1,1,0,0,0-1,1v12a1,1,0,0,0,1,1h50a1,1,0,0,0,1-1V102A1,1,0,0,0,102,101Z" fill="url(#linear-gradient-29)"/>
      <path d="M21,117H1a1,1,0,0,0-1,1v12a1,1,0,0,0,1,1H21a1,1,0,0,0,1-1V118A1,1,0,0,0,21,117Z" fill="url(#linear-gradient-30)"/>
      <path d="M48,101H1a1,1,0,0,0-1,1v12a1,1,0,0,0,1,1H48a1,1,0,0,0,1-1V102A1,1,0,0,0,48,101Z" fill="url(#linear-gradient-31)"/>
      <path d="M798,85H781a1,1,0,0,0-1,1V98a1,1,0,0,0,1,1h17a1,1,0,0,0,1-1V86A1,1,0,0,0,798,85Z" fill="url(#linear-gradient)"/>
      <path d="M777,85H727a1,1,0,0,0-1,1V98a1,1,0,0,0,1,1h50a1,1,0,0,0,1-1V86A1,1,0,0,0,777,85Z" fill="url(#linear-gradient-2)"/>
      <path d="M799,69H754a1,1,0,0,0-1,1V82a1,1,0,0,0,1,1h45a1,1,0,0,0,1-1V70A1,1,0,0,0,799,69Z" fill="url(#linear-gradient-3)"/>
      <path d="M723,85H673a1,1,0,0,0-1,1V98a1,1,0,0,0,1,1h50a1,1,0,0,0,1-1V86A1,1,0,0,0,723,85Z" fill="url(#linear-gradient-4)"/>
      <path d="M750,69H700a1,1,0,0,0-1,1V82a1,1,0,0,0,1,1h50a1,1,0,0,0,1-1V70A1,1,0,0,0,750,69Z" fill="url(#linear-gradient-5)"/>
      <path d="M669,85H619a1,1,0,0,0-1,1V98a1,1,0,0,0,1,1h50a1,1,0,0,0,1-1V86A1,1,0,0,0,669,85Z" fill="url(#linear-gradient-6)"/>
      <path d="M696,69H646a1,1,0,0,0-1,1V82a1,1,0,0,0,1,1h50a1,1,0,0,0,1-1V70A1,1,0,0,0,696,69Z" fill="url(#linear-gradient-7)"/>
      <path d="M615,85H565a1,1,0,0,0-1,1V98a1,1,0,0,0,1,1h50a1,1,0,0,0,1-1V86A1,1,0,0,0,615,85Z" fill="url(#linear-gradient-8)"/>
      <path d="M642,69H592a1,1,0,0,0-1,1V82a1,1,0,0,0,1,1h50a1,1,0,0,0,1-1V70A1,1,0,0,0,642,69Z" fill="url(#linear-gradient-9)"/>
      <path d="M561,85H511a1,1,0,0,0-1,1V98a1,1,0,0,0,1,1h50a1,1,0,0,0,1-1V86A1,1,0,0,0,561,85Z" fill="url(#linear-gradient-10)"/>
      <path d="M588,69H538a1,1,0,0,0-1,1V82a1,1,0,0,0,1,1h50a1,1,0,0,0,1-1V70A1,1,0,0,0,588,69Z" fill="url(#linear-gradient-11)"/>
      <path d="M507,85H457a1,1,0,0,0-1,1V98a1,1,0,0,0,1,1h50a1,1,0,0,0,1-1V86A1,1,0,0,0,507,85Z" fill="url(#linear-gradient-12)"/>
      <path d="M534,69H484a1,1,0,0,0-1,1V82a1,1,0,0,0,1,1h50a1,1,0,0,0,1-1V70A1,1,0,0,0,534,69Z" fill="url(#linear-gradient-13)"/>
      <path d="M453,85H403a1,1,0,0,0-1,1V98a1,1,0,0,0,1,1h50a1,1,0,0,0,1-1V86A1,1,0,0,0,453,85Z" fill="url(#linear-gradient-14)"/>
      <path d="M480,69H430a1,1,0,0,0-1,1V82a1,1,0,0,0,1,1h50a1,1,0,0,0,1-1V70A1,1,0,0,0,480,69Z" fill="url(#linear-gradient-15)"/>
      <path d="M399,85H349a1,1,0,0,0-1,1V98a1,1,0,0,0,1,1h50a1,1,0,0,0,1-1V86A1,1,0,0,0,399,85Z" fill="url(#linear-gradient-16)"/>
      <path d="M426,69H376a1,1,0,0,0-1,1V82a1,1,0,0,0,1,1h50a1,1,0,0,0,1-1V70A1,1,0,0,0,426,69Z" fill="url(#linear-gradient-17)"/>
      <path d="M345,85H295a1,1,0,0,0-1,1V98a1,1,0,0,0,1,1h50a1,1,0,0,0,1-1V86A1,1,0,0,0,345,85Z" fill="url(#linear-gradient-18)"/>
      <path d="M372,69H322a1,1,0,0,0-1,1V82a1,1,0,0,0,1,1h50a1,1,0,0,0,1-1V70A1,1,0,0,0,372,69Z" fill="url(#linear-gradient-19)"/>
      <path d="M291,85H241a1,1,0,0,0-1,1V98a1,1,0,0,0,1,1h50a1,1,0,0,0,1-1V86A1,1,0,0,0,291,85Z" fill="url(#linear-gradient-20)"/>
      <path d="M318,69H268a1,1,0,0,0-1,1V82a1,1,0,0,0,1,1h50a1,1,0,0,0,1-1V70A1,1,0,0,0,318,69Z" fill="url(#linear-gradient-21)"/>
      <path d="M237,85H187a1,1,0,0,0-1,1V98a1,1,0,0,0,1,1h50a1,1,0,0,0,1-1V86A1,1,0,0,0,237,85Z" fill="url(#linear-gradient-22)"/>
      <path d="M264,69H214a1,1,0,0,0-1,1V82a1,1,0,0,0,1,1h50a1,1,0,0,0,1-1V70A1,1,0,0,0,264,69Z" fill="url(#linear-gradient-23)"/>
      <path d="M183,85H133a1,1,0,0,0-1,1V98a1,1,0,0,0,1,1h50a1,1,0,0,0,1-1V86A1,1,0,0,0,183,85Z" fill="url(#linear-gradient-24)"/>
      <path d="M210,69H160a1,1,0,0,0-1,1V82a1,1,0,0,0,1,1h50a1,1,0,0,0,1-1V70A1,1,0,0,0,210,69Z" fill="url(#linear-gradient-25)"/>
      <path d="M129,85H79a1,1,0,0,0-1,1V98a1,1,0,0,0,1,1h50a1,1,0,0,0,1-1V86A1,1,0,0,0,129,85Z" fill="url(#linear-gradient-26)"/>
      <path d="M156,69H106a1,1,0,0,0-1,1V82a1,1,0,0,0,1,1h50a1,1,0,0,0,1-1V70A1,1,0,0,0,156,69Z" fill="url(#linear-gradient-27)"/>
      <path d="M75,85H25a1,1,0,0,0-1,1V98a1,1,0,0,0,1,1H75a1,1,0,0,0,1-1V86A1,1,0,0,0,75,85Z" fill="url(#linear-gradient-28)"/>
      <path d="M102,69H52a1,1,0,0,0-1,1V82a1,1,0,0,0,1,1h50a1,1,0,0,0,1-1V70A1,1,0,0,0,102,69Z" fill="url(#linear-gradient-29)"/>
      <path d="M21,85H1a1,1,0,0,0-1,1V98a1,1,0,0,0,1,1H21a1,1,0,0,0,1-1V86A1,1,0,0,0,21,85Z" fill="url(#linear-gradient-30)"/>
      <path d="M48,69H1a1,1,0,0,0-1,1V82a1,1,0,0,0,1,1H48a1,1,0,0,0,1-1V70A1,1,0,0,0,48,69Z" fill="url(#linear-gradient-31)"/>
      <path d="M798,53H781a1,1,0,0,0-1,1V66a1,1,0,0,0,1,1h17a1,1,0,0,0,1-1V54A1,1,0,0,0,798,53Z" fill="url(#linear-gradient)"/>
      <path d="M777,53H727a1,1,0,0,0-1,1V66a1,1,0,0,0,1,1h50a1,1,0,0,0,1-1V54A1,1,0,0,0,777,53Z" fill="url(#linear-gradient-2)"/>
      <path d="M799,37H754a1,1,0,0,0-1,1V50a1,1,0,0,0,1,1h45a1,1,0,0,0,1-1V38A1,1,0,0,0,799,37Z" fill="url(#linear-gradient-3)"/>
      <path d="M723,53H673a1,1,0,0,0-1,1V66a1,1,0,0,0,1,1h50a1,1,0,0,0,1-1V54A1,1,0,0,0,723,53Z" fill="url(#linear-gradient-4)"/>
      <path d="M750,37H700a1,1,0,0,0-1,1V50a1,1,0,0,0,1,1h50a1,1,0,0,0,1-1V38A1,1,0,0,0,750,37Z" fill="url(#linear-gradient-5)"/>
      <path d="M669,53H619a1,1,0,0,0-1,1V66a1,1,0,0,0,1,1h50a1,1,0,0,0,1-1V54A1,1,0,0,0,669,53Z" fill="url(#linear-gradient-6)"/>
      <path d="M696,37H646a1,1,0,0,0-1,1V50a1,1,0,0,0,1,1h50a1,1,0,0,0,1-1V38A1,1,0,0,0,696,37Z" fill="url(#linear-gradient-7)"/>
      <path d="M615,53H565a1,1,0,0,0-1,1V66a1,1,0,0,0,1,1h50a1,1,0,0,0,1-1V54A1,1,0,0,0,615,53Z" fill="url(#linear-gradient-8)"/>
      <path d="M642,37H592a1,1,0,0,0-1,1V50a1,1,0,0,0,1,1h50a1,1,0,0,0,1-1V38A1,1,0,0,0,642,37Z" fill="url(#linear-gradient-9)"/>
      <path d="M561,53H511a1,1,0,0,0-1,1V66a1,1,0,0,0,1,1h50a1,1,0,0,0,1-1V54A1,1,0,0,0,561,53Z" fill="url(#linear-gradient-10)"/>
      <path d="M588,37H538a1,1,0,0,0-1,1V50a1,1,0,0,0,1,1h50a1,1,0,0,0,1-1V38A1,1,0,0,0,588,37Z" fill="url(#linear-gradient-11)"/>
      <path d="M507,53H457a1,1,0,0,0-1,1V66a1,1,0,0,0,1,1h50a1,1,0,0,0,1-1V54A1,1,0,0,0,507,53Z" fill="url(#linear-gradient-12)"/>
      <path d="M534,37H484a1,1,0,0,0-1,1V50a1,1,0,0,0,1,1h50a1,1,0,0,0,1-1V38A1,1,0,0,0,534,37Z" fill="url(#linear-gradient-13)"/>
      <path d="M453,53H403a1,1,0,0,0-1,1V66a1,1,0,0,0,1,1h50a1,1,0,0,0,1-1V54A1,1,0,0,0,453,53Z" fill="url(#linear-gradient-14)"/>
      <path d="M480,37H430a1,1,0,0,0-1,1V50a1,1,0,0,0,1,1h50a1,1,0,0,0,1-1V38A1,1,0,0,0,480,37Z" fill="url(#linear-gradient-15)"/>
      <path d="M399,53H349a1,1,0,0,0-1,1V66a1,1,0,0,0,1,1h50a1,1,0,0,0,1-1V54A1,1,0,0,0,399,53Z" fill="url(#linear-gradient-16)"/>
      <path d="M426,37H376a1,1,0,0,0-1,1V50a1,1,0,0,0,1,1h50a1,1,0,0,0,1-1V38A1,1,0,0,0,426,37Z" fill="url(#linear-gradient-17)"/>
      <path d="M345,53H295a1,1,0,0,0-1,1V66a1,1,0,0,0,1,1h50a1,1,0,0,0,1-1V54A1,1,0,0,0,345,53Z" fill="url(#linear-gradient-18)"/>
      <path d="M372,37H322a1,1,0,0,0-1,1V50a1,1,0,0,0,1,1h50a1,1,0,0,0,1-1V38A1,1,0,0,0,372,37Z" fill="url(#linear-gradient-19)"/>
      <path d="M291,53H241a1,1,0,0,0-1,1V66a1,1,0,0,0,1,1h50a1,1,0,0,0,1-1V54A1,1,0,0,0,291,53Z" fill="url(#linear-gradient-20)"/>
      <path d="M318,37H268a1,1,0,0,0-1,1V50a1,1,0,0,0,1,1h50a1,1,0,0,0,1-1V38A1,1,0,0,0,318,37Z" fill="url(#linear-gradient-21)"/>
      <path d="M237,53H187a1,1,0,0,0-1,1V66a1,1,0,0,0,1,1h50a1,1,0,0,0,1-1V54A1,1,0,0,0,237,53Z" fill="url(#linear-gradient-22)"/>
      <path d="M264,37H214a1,1,0,0,0-1,1V50a1,1,0,0,0,1,1h50a1,1,0,0,0,1-1V38A1,1,0,0,0,264,37Z" fill="url(#linear-gradient-23)"/>
      <path d="M183,53H133a1,1,0,0,0-1,1V66a1,1,0,0,0,1,1h50a1,1,0,0,0,1-1V54A1,1,0,0,0,183,53Z" fill="url(#linear-gradient-24)"/>
      <path d="M210,37H160a1,1,0,0,0-1,1V50a1,1,0,0,0,1,1h50a1,1,0,0,0,1-1V38A1,1,0,0,0,210,37Z" fill="url(#linear-gradient-25)"/>
      <path d="M129,53H79a1,1,0,0,0-1,1V66a1,1,0,0,0,1,1h50a1,1,0,0,0,1-1V54A1,1,0,0,0,129,53Z" fill="url(#linear-gradient-26)"/>
      <path d="M156,37H106a1,1,0,0,0-1,1V50a1,1,0,0,0,1,1h50a1,1,0,0,0,1-1V38A1,1,0,0,0,156,37Z" fill="url(#linear-gradient-27)"/>
      <path d="M75,53H25a1,1,0,0,0-1,1V66a1,1,0,0,0,1,1H75a1,1,0,0,0,1-1V54A1,1,0,0,0,75,53Z" fill="url(#linear-gradient-28)"/>
      <path d="M102,37H52a1,1,0,0,0-1,1V50a1,1,0,0,0,1,1h50a1,1,0,0,0,1-1V38A1,1,0,0,0,102,37Z" fill="url(#linear-gradient-29)"/>
      <path d="M21,53H1a1,1,0,0,0-1,1V66a1,1,0,0,0,1,1H21a1,1,0,0,0,1-1V54A1,1,0,0,0,21,53Z" fill="url(#linear-gradient-30)"/>
      <path d="M48,37H1a1,1,0,0,0-1,1V50a1,1,0,0,0,1,1H48a1,1,0,0,0,1-1V38A1,1,0,0,0,48,37Z" fill="url(#linear-gradient-31)"/>
      <path d="M798,21H781a1,1,0,0,0-1,1V34a1,1,0,0,0,1,1h17a1,1,0,0,0,1-1V22A1,1,0,0,0,798,21Z" fill="url(#linear-gradient)"/>
      <path d="M777,21H727a1,1,0,0,0-1,1V34a1,1,0,0,0,1,1h50a1,1,0,0,0,1-1V22A1,1,0,0,0,777,21Z" fill="url(#linear-gradient-2)"/>
      <path d="M723,21H673a1,1,0,0,0-1,1V34a1,1,0,0,0,1,1h50a1,1,0,0,0,1-1V22A1,1,0,0,0,723,21Z" fill="url(#linear-gradient-4)"/>
      <path d="M669,21H619a1,1,0,0,0-1,1V34a1,1,0,0,0,1,1h50a1,1,0,0,0,1-1V22A1,1,0,0,0,669,21Z" fill="url(#linear-gradient-6)"/>
      <path d="M615,21H565a1,1,0,0,0-1,1V34a1,1,0,0,0,1,1h50a1,1,0,0,0,1-1V22A1,1,0,0,0,615,21Z" fill="url(#linear-gradient-8)"/>
      <path d="M561,21H511a1,1,0,0,0-1,1V34a1,1,0,0,0,1,1h50a1,1,0,0,0,1-1V22A1,1,0,0,0,561,21Z" fill="url(#linear-gradient-10)"/>
      <path d="M507,21H457a1,1,0,0,0-1,1V34a1,1,0,0,0,1,1h50a1,1,0,0,0,1-1V22A1,1,0,0,0,507,21Z" fill="url(#linear-gradient-12)"/>
      <path d="M453,21H403a1,1,0,0,0-1,1V34a1,1,0,0,0,1,1h50a1,1,0,0,0,1-1V22A1,1,0,0,0,453,21Z" fill="url(#linear-gradient-14)"/>
      <path d="M399,21H349a1,1,0,0,0-1,1V34a1,1,0,0,0,1,1h50a1,1,0,0,0,1-1V22A1,1,0,0,0,399,21Z" fill="url(#linear-gradient-16)"/>
      <path d="M345,21H295a1,1,0,0,0-1,1V34a1,1,0,0,0,1,1h50a1,1,0,0,0,1-1V22A1,1,0,0,0,345,21Z" fill="url(#linear-gradient-18)"/>
      <path d="M291,21H241a1,1,0,0,0-1,1V34a1,1,0,0,0,1,1h50a1,1,0,0,0,1-1V22A1,1,0,0,0,291,21Z" fill="url(#linear-gradient-20)"/>
      <path d="M237,21H187a1,1,0,0,0-1,1V34a1,1,0,0,0,1,1h50a1,1,0,0,0,1-1V22A1,1,0,0,0,237,21Z" fill="url(#linear-gradient-22)"/>
      <path d="M183,21H133a1,1,0,0,0-1,1V34a1,1,0,0,0,1,1h50a1,1,0,0,0,1-1V22A1,1,0,0,0,183,21Z" fill="url(#linear-gradient-24)"/>
      <path d="M129,21H79a1,1,0,0,0-1,1V34a1,1,0,0,0,1,1h50a1,1,0,0,0,1-1V22A1,1,0,0,0,129,21Z" fill="url(#linear-gradient-26)"/>
      <path d="M75,21H25a1,1,0,0,0-1,1V34a1,1,0,0,0,1,1H75a1,1,0,0,0,1-1V22A1,1,0,0,0,75,21Z" fill="url(#linear-gradient-28)"/>
      <path d="M21,21H1a1,1,0,0,0-1,1V34a1,1,0,0,0,1,1H21a1,1,0,0,0,1-1V22A1,1,0,0,0,21,21Z" fill="url(#linear-gradient-30)"/>
    </g>
    <rect width="800" height="448" fill="url(#radial-gradient)"/>
  </g>
  <g>
    <g>
      <path d="M335,228l-2-6,4.25-4.15L343,224s7.35,11.81,9.21,16.47,1.89,6.51,2.8,7.46c2,2.07,4,2.07,11.58,17.27a4,4,0,0,0,1.14,1.32c2.59,2,4.27,3.48,4.27,3.48v25h-9a64.68,64.68,0,0,1-2-10c-.79-5.54-7-7-11-20l-4-13S337.58,240.72,335,228Z" fill="#72574c"/>
      <path d="M439,228l2-6-4.25-4.15L431,224s-7.35,11.81-9.21,16.47-1.89,6.51-2.8,7.46c-2,2.07-4,2.07-11.58,17.27a4,4,0,0,1-1.14,1.32c-2.59,2-4.27,3.48-4.27,3.48v25h9a64.68,64.68,0,0,0,2-10c.79-5.54,7-7,11-20l4-13S436.42,240.72,439,228Z" fill="#72574c"/>
    </g>
    <g>
      <path d="M387.07,275c-9.68,0-13.07-4-13.07-4a36.4,36.4,0,0,1-3-15c0-6,2-18,16-18s16,12,16,18a44.85,44.85,0,0,1-3,16s-3.39,3-13.07,3Z"/>
      <path d="M399,271c-4-1-6-5-6-5H381s-2,4-6,5c0,0-3,25,12,25S399,271,399,271Z" fill="#72574c"/>
      <path d="M398.8,252c0,5.63-4.2,18.83-12,18.83-8.31,0-11.9-13.2-11.9-18.83s5.35-10.19,12-10.19S398.8,246.38,398.8,252Z" fill="#87675a"/>
      <path d="M377,271s-1-22,5-23l5-8s-14,0-14,17c0,5,1,14,1,14Z"/>
      <path d="M397,271s1-22-5-23l-5-8s14,0,14,17c0,5-1,14-1,14Z"/>
      <path d="M387,237c-4.66,0-6,4.2-6,7a6.51,6.51,0,0,0,1,4,13,13,0,0,1,10,0,6.51,6.51,0,0,0,1-4C393,241.2,391.66,237,387,237Z" fill="#212121"/>
    </g>
    <g>
      <path d="M417,408.33c0,15-3,26.12-3,31.67v5h-8v-5c0-5.32-5-18.63-5-29.5V407S412.41,401.8,417,408.33Z" fill="#72574c"/>
      <path d="M357,408.33c0,15,3,26.12,3,31.67v5h8v-5c0-5.32,5-18.62,5-29.5V407S361.59,401.8,357,408.33Z" fill="#72574c"/>
    </g>
    <path d="M413.26,347.12c-2.42-8.2-6.26-11.35-6.26-15.12H367c0,3.77-3.84,6.92-6.26,15.12C360,349.81,358,356,358,376c0,4,8,5,13,5,6,0,8.55-3,8.55-3a89.41,89.41,0,0,0,3.45-9c1.13-4,2-9,2-9h4s.87,5,2,9a89.41,89.41,0,0,0,3.45,9,10.22,10.22,0,0,0,7.55,3c5,0,14-1,14-5C416,356,414.05,349.81,413.26,347.12Z"/>
    <g>
      <path d="M417.28,451.56c1.67,3,2.72,4.53,2.72,6.57a4.68,4.68,0,0,1-2.5,3.87s-8,0-9.5-7c-.86-4-3-4-3-7a22.83,22.83,0,0,1,1-5s1,1,5,1c3,0,3-1,3-1S413.66,445.11,417.28,451.56Z" fill="#b71c1c"/>
      <path d="M416.42,450l-1.55-3.34a6.53,6.53,0,0,0-3.12-.63,13.2,13.2,0,0,0-4.75,1l1,3a12.81,12.81,0,0,1,4.37-1C415,449,415.37,449.27,416.42,450Z" fill="#bdbdbd"/>
      <path d="M356.72,451.56c-1.67,3-2.72,4.53-2.72,6.57a4.68,4.68,0,0,0,2.5,3.87s8,0,9.5-7c.86-4,3-4,3-7a22.83,22.83,0,0,0-1-5s-1,1-5,1c-3,0-3-1-3-1S360.34,445.11,356.72,451.56Z" fill="#b71c1c"/>
      <path d="M357.58,450l1.55-3.34a6.53,6.53,0,0,1,3.12-.63,13.2,13.2,0,0,1,4.75,1l-1,3a12.81,12.81,0,0,0-4.37-1C359,449,358.63,449.27,357.58,450Z" fill="#bdbdbd"/>
    </g>
    <g>
      <path d="M358,377v1c0,4,1.19,16.24,1.19,17.87s-1.61,7.87-2,10.34c-.09.56,1.47,2.66,8,2.66S373,407,373,407s.22-6.23,1.06-8.13c3.74-8.4,5.4-20.46,5.4-20.46l-11.2,0Z" fill="#1565c0"/>
      <path d="M379,380c-2.21,0-8.05,0-12.35-.51A59.25,59.25,0,0,1,358,378v-1.95c.53.19,2.59.78,8.86,1.46,4.57.49,11.17.5,12.69.49l-.34,2Z" fill="#64b5f6"/>
      <path d="M365,408c-4.84,0-7.37-1.51-7.78-1.79-.11.49-.21,2-.22,2.12a17.73,17.73,0,0,0,8,1.67c4.1,0,7.19-.43,8-.91V407C372.75,407.37,369.7,408,365,408Z" fill="#64b5f6"/>
    </g>
    <g>
      <path d="M416,377v1c0,4-1.19,16.24-1.19,17.87s1.61,7.87,2,10.34c.09.56-1.47,2.66-8,2.66S401,407,401,407s-.22-6.23-1.06-8.13c-3.74-8.4-5.4-20.46-5.4-20.46l11.2,0Z" fill="#1565c0"/>
      <path d="M395,380c2.21,0,8.05,0,12.35-.51A59,59,0,0,0,416,378v-1.95c-.53.19-2.59.78-8.86,1.46-4.57.49-11.17.5-12.69.49l.34,2Z" fill="#64b5f6"/>
      <path d="M409,408c4.84,0,7.37-1.51,7.78-1.79.11.49.21,2,.22,2.12a17.73,17.73,0,0,1-8,1.67c-4.1,0-7.19-.43-8-.91V407C401.25,407.37,404.3,408,409,408Z" fill="#64b5f6"/>
    </g>
    <g>
      <path d="M434,211v7l8,2c1-3,1-9,1-9Z" fill="#72574c"/>
      <path d="M340,211v7l-8,2c-1-3-1-9-1-9Z" fill="#72574c"/>
      <path d="M332,220a6.79,6.79,0,0,1,4.13-1.87A13.19,13.19,0,0,1,340,218l3,6a8.75,8.75,0,0,0-4.87,1.25C335,227,335,228,335,228Z" fill="#bdbdbd"/>
      <rect x="294" y="209" width="186" height="5" fill="#90a4ae"/>
      <path d="M331,209.5c0,2,4.43,2.5,7,2.5,3,0,4-1.5,4-2.5,0-2-2-3.5-4-3.5h-2C333,206,331,208,331,209.5Z" fill="#87675a"/>
      <path d="M344.66,210.41c-.34-.67-1-2.36-1.78-2.41-.49,0-.88.27-.88,1.34a4.47,4.47,0,0,0,.59,1.68,1.8,1.8,0,0,1-.46,1.11A4,4,0,0,1,340,213c-4,0-4.12,2-4.12,2l4.12,3s3.22-1.81,4-3.37a6.83,6.83,0,0,0,1-2.88A2.76,2.76,0,0,0,344.66,210.41Z" fill="#72574c"/>
      <path d="M442,220a6.78,6.78,0,0,0-4.12-1.87A13.25,13.25,0,0,0,434,218l-3,6a8.79,8.79,0,0,1,4.88,1.25C439,227,439,228,439,228Z" fill="#bdbdbd"/>
      <path d="M443,209.5c0,2-4.43,2.5-7,2.5-3,0-4-1.5-4-2.5,0-2,2-3.5,4-3.5h2C441,206,443,208,443,209.5Z" fill="#87675a"/>
      <path d="M438.13,215s-.13-2-4.13-2a4,4,0,0,1-2.12-.87,1.77,1.77,0,0,1-.47-1.11,4.47,4.47,0,0,0,.59-1.68c0-1.07-.39-1.37-.87-1.34-.77.05-1.45,1.74-1.79,2.41a2.76,2.76,0,0,0-.34,1.34,6.64,6.64,0,0,0,1,2.88c.78,1.56,4,3.37,4,3.37Z" fill="#72574c"/>
    </g>
    <g>
      <path d="M406,313c0-5.09,5-13,5-18-6-1-9-15.67-9-25a3.49,3.49,0,0,1-2,1,9.21,9.21,0,0,1-3-.77S398,283,387,283s-10-12.77-10-12.77a9.21,9.21,0,0,1-3,.77,3.49,3.49,0,0,1-2-1c0,9.33-3,24-9,25,0,5,5,12.91,5,18v11s-1,9,19,9,19-9,19-9Z" fill="#b71c1c"/>
      <path d="M367,301a9.39,9.39,0,0,0,9,6,15.39,15.39,0,0,0,8-2c-1,3-5,5-8,5C368,310,367,301,367,301Z" fill="#a32525"/>
      <path d="M407,301a9.39,9.39,0,0,1-9,6,15.39,15.39,0,0,1-8-2c1,3,5,5,8,5C406,310,407,301,407,301Z" fill="#a32525"/>
    </g>
    <g>
      <path d="M406,324s1.38-.37,1.63,2.25c.07.83.37,4,.37,5.75a3.09,3.09,0,0,1-1,2s-6,7-20,7-20-7-20-7-4-4-4-5a2.48,2.48,0,0,1,.53-1.57c.6-1.08,1.71-2.87,2.32-3.93a1,1,0,0,1,1.65-.12l.5.62s4,7,19,7S406,324,406,324Z" fill="#546e7a"/>
      <path d="M369,338a1,1,0,0,1-.41-.09,1,1,0,0,1-.5-1.32l4-9a1,1,0,1,1,1.82.82l-4,9A1,1,0,0,1,369,338Z" fill="#37474f"/>
      <path d="M390,342h-4a1,1,0,0,1,0-2h3v-8h-3a1,1,0,0,1,0-2h4a1,1,0,0,1,1,1v10A1,1,0,0,1,390,342Z" fill="#37474f"/>
      <path d="M386,335v2h-1a1,1,0,0,1,0-2Z" fill="#37474f"/>
      <path d="M392,337h-6a1,1,0,0,1,0-2h6a1,1,0,0,1,0,2Z" fill="#78909c"/>
      <circle cx="380" cy="335.42" r="1" fill="#37474f"/>
      <circle cx="395" cy="335.25" r="1" fill="#37474f"/>
      <circle cx="400" cy="333.75" r="1" fill="#37474f"/>
      <circle cx="404.38" cy="331" r="1" fill="#37474f"/>
      <circle cx="375" cy="334.14" r="1" fill="#37474f"/>
    </g>
    <g>
      <rect x="488" y="177" width="10" height="69" fill="#bf360c"/>
      <rect x="498" y="177" width="6" height="69" fill="#ffca28"/>
      <rect x="477" y="206" width="11" height="11" fill="#b0bec5"/>
      <rect x="504" y="200" width="6" height="23" fill="#cfd8dc"/>
      <rect x="510" y="203" width="6" height="17" fill="#b0bec5"/>
      <rect x="516" y="207" width="23" height="9" fill="#cfd8dc"/>
    </g>
    <g>
      <rect x="276" y="177" width="10" height="69" transform="translate(562 423) rotate(-180)" fill="#bf360c"/>
      <rect x="270" y="177" width="6" height="69" transform="translate(546 423) rotate(-180)" fill="#ffca28"/>
      <rect x="286" y="206" width="11" height="11" transform="translate(583 423) rotate(-180)" fill="#b0bec5"/>
      <rect x="264" y="200" width="6" height="23" transform="translate(534 423) rotate(-180)" fill="#cfd8dc"/>
      <rect x="258" y="203" width="6" height="17" transform="translate(522 423) rotate(-180)" fill="#b0bec5"/>
      <rect x="235" y="207" width="23" height="9" transform="translate(493 423) rotate(-180)" fill="#cfd8dc"/>
    </g>
  </g>
  <g>
    <path d="M644.89,453.8c0,7.29-15.17,13.2-33.89,13.2s-33.89-5.91-33.89-13.2v-6.6h67.78Z" fill="#388e3c"/>
    <ellipse cx="611" cy="447.5" rx="33.89" ry="13.5" fill="#43a047"/>
    <path d="M639,447.45c0,4.72-12.54,8.55-28,8.55s-28-3.83-28-8.55S595.54,438,611,438,639,442.73,639,447.45Z" fill="#66bb6a"/>
    <path d="M611,439c14.92,0,27.1,4.4,28,8.95a2.83,2.83,0,0,0,0-.5c0-4.72-12.54-9.45-28-9.45s-28,4.73-28,9.45a2.83,2.83,0,0,0,0,.5C583.9,443.4,596.08,439,611,439Z" fill="#388e3c"/>
    <path d="M625,447.73c0,2.36-6.27,4.27-14,4.27s-14-1.91-14-4.27V446h28Z" fill="#388e3c"/>
    <ellipse cx="611" cy="446" rx="14" ry="4" fill="#43a047"/>
    <ellipse cx="611" cy="446" rx="5" ry="1" fill="#424242"/>
  </g>
  <g>
    <path d="M572,476.6c0,5.74-12.09,10.4-27,10.4s-27-4.66-27-10.4v-5.2h54Z" fill="#1565c0"/>
    <ellipse cx="545" cy="471.5" rx="27" ry="10.5" fill="#1e88e5"/>
    <path d="M567,471.35c0,3.67-9.85,6.65-22,6.65s-22-3-22-6.65,9.85-7.35,22-7.35S567,467.68,567,471.35Z" fill="#42a5f5"/>
    <path d="M545,465c11.6,0,21.09,3.35,21.93,6.85a2.15,2.15,0,0,0,.07-.5c0-3.67-9.85-7.35-22-7.35s-22,3.68-22,7.35a2.15,2.15,0,0,0,.07.5C523.91,468.35,533.4,465,545,465Z" fill="#1565c0"/>
    <path d="M556,471.58c0,1.89-4.92,3.42-11,3.42s-11-1.53-11-3.42V470.2h22Z" fill="#1565c0"/>
    <ellipse cx="545" cy="470.2" rx="11" ry="3.2" fill="#1e88e5"/>
    <ellipse cx="545" cy="470" rx="3.98" ry="1" fill="#424242"/>
  </g>
  <g>
    <circle cx="187.5" cy="394.5" r="32.5" fill="#bf360c"/>
    <circle cx="187.5" cy="394.5" r="23.64" fill="#e64a19"/>
    <circle cx="187.5" cy="394.5" r="12.58" fill="#bf360c"/>
    <circle cx="187.5" cy="394.5" r="5.24" fill="#c7c7c7"/>
  </g>
</svg>
