<svg id="Layer_1" data-name="Layer 1" xmlns="http://www.w3.org/2000/svg" xmlns:xlink="http://www.w3.org/1999/xlink" width="800" height="600" viewBox="0 0 800 600">
  <defs>
    <linearGradient id="linear-gradient" x1="789.5" y1="998.08" x2="789.5" y2="446.09" gradientTransform="matrix(1, 0, 0, -1, 0, 1152)" gradientUnits="userSpaceOnUse">
      <stop offset="0" stop-color="#eee"/>
      <stop offset="0.01" stop-color="#ededed"/>
      <stop offset="0.39" stop-color="#d3d3d3"/>
      <stop offset="0.74" stop-color="#c3c3c3"/>
      <stop offset="1" stop-color="#bdbdbd"/>
    </linearGradient>
    <linearGradient id="linear-gradient-2" x1="752" y1="998.08" x2="752" y2="446.09" xlink:href="#linear-gradient"/>
    <linearGradient id="linear-gradient-3" x1="776.5" y1="998.08" x2="776.5" y2="446.09" xlink:href="#linear-gradient"/>
    <linearGradient id="linear-gradient-4" x1="698" y1="998.08" x2="698" y2="446.09" xlink:href="#linear-gradient"/>
    <linearGradient id="linear-gradient-5" x1="725" y1="998.08" x2="725" y2="446.09" xlink:href="#linear-gradient"/>
    <linearGradient id="linear-gradient-6" x1="644" y1="998.08" x2="644" y2="446.09" xlink:href="#linear-gradient"/>
    <linearGradient id="linear-gradient-7" x1="671" y1="998.08" x2="671" y2="446.09" xlink:href="#linear-gradient"/>
    <linearGradient id="linear-gradient-8" x1="590" y1="998.08" x2="590" y2="446.09" xlink:href="#linear-gradient"/>
    <linearGradient id="linear-gradient-9" x1="617" y1="998.08" x2="617" y2="446.09" xlink:href="#linear-gradient"/>
    <linearGradient id="linear-gradient-10" x1="536" y1="998.08" x2="536" y2="446.09" xlink:href="#linear-gradient"/>
    <linearGradient id="linear-gradient-11" x1="563" y1="998.08" x2="563" y2="446.09" xlink:href="#linear-gradient"/>
    <linearGradient id="linear-gradient-12" x1="482" y1="998.08" x2="482" y2="446.09" xlink:href="#linear-gradient"/>
    <linearGradient id="linear-gradient-13" x1="509" y1="998.08" x2="509" y2="446.09" xlink:href="#linear-gradient"/>
    <linearGradient id="linear-gradient-14" x1="428" y1="998.08" x2="428" y2="446.09" xlink:href="#linear-gradient"/>
    <linearGradient id="linear-gradient-15" x1="455" y1="998.08" x2="455" y2="446.09" xlink:href="#linear-gradient"/>
    <linearGradient id="linear-gradient-16" x1="374" y1="998.08" x2="374" y2="446.09" xlink:href="#linear-gradient"/>
    <linearGradient id="linear-gradient-17" x1="401" y1="998.08" x2="401" y2="446.09" xlink:href="#linear-gradient"/>
    <linearGradient id="linear-gradient-18" x1="320" y1="998.08" x2="320" y2="446.09" xlink:href="#linear-gradient"/>
    <linearGradient id="linear-gradient-19" x1="347" y1="998.08" x2="347" y2="446.09" xlink:href="#linear-gradient"/>
    <linearGradient id="linear-gradient-20" x1="266" y1="998.08" x2="266" y2="446.09" xlink:href="#linear-gradient"/>
    <linearGradient id="linear-gradient-21" x1="293" y1="998.08" x2="293" y2="446.09" xlink:href="#linear-gradient"/>
    <linearGradient id="linear-gradient-22" x1="212" y1="998.08" x2="212" y2="446.09" xlink:href="#linear-gradient"/>
    <linearGradient id="linear-gradient-23" x1="239" y1="998.08" x2="239" y2="446.09" xlink:href="#linear-gradient"/>
    <linearGradient id="linear-gradient-24" x1="158" y1="998.08" x2="158" y2="446.09" xlink:href="#linear-gradient"/>
    <linearGradient id="linear-gradient-25" x1="185" y1="998.08" x2="185" y2="446.09" xlink:href="#linear-gradient"/>
    <linearGradient id="linear-gradient-26" x1="104" y1="998.08" x2="104" y2="446.09" xlink:href="#linear-gradient"/>
    <linearGradient id="linear-gradient-27" x1="131" y1="998.08" x2="131" y2="446.09" xlink:href="#linear-gradient"/>
    <linearGradient id="linear-gradient-28" x1="50" y1="998.08" x2="50" y2="446.09" xlink:href="#linear-gradient"/>
    <linearGradient id="linear-gradient-29" x1="77" y1="998.08" x2="77" y2="446.09" xlink:href="#linear-gradient"/>
    <linearGradient id="linear-gradient-30" x1="11" y1="998.08" x2="11" y2="446.09" xlink:href="#linear-gradient"/>
    <linearGradient id="linear-gradient-31" x1="24.5" y1="998.08" x2="24.5" y2="446.09" xlink:href="#linear-gradient"/>
    <radialGradient id="radial-gradient" cx="398.5" cy="489.6" r="327.33" gradientTransform="translate(0 -92.86) scale(1 1.13)" gradientUnits="userSpaceOnUse">
      <stop offset="0" stop-color="#fff" stop-opacity="0"/>
      <stop offset="0.09" stop-color="#fff" stop-opacity="0.02"/>
      <stop offset="0.22" stop-color="#fff" stop-opacity="0.09"/>
      <stop offset="0.36" stop-color="#fff" stop-opacity="0.2"/>
      <stop offset="0.52" stop-color="#fff" stop-opacity="0.35"/>
      <stop offset="0.69" stop-color="#fff" stop-opacity="0.55"/>
      <stop offset="0.86" stop-color="#fff" stop-opacity="0.79"/>
      <stop offset="1" stop-color="#fff"/>
    </radialGradient>
    <linearGradient id="linear-gradient-389" x1="459.03" y1="428" x2="459.03" y2="292.22" gradientUnits="userSpaceOnUse">
      <stop offset="0" stop-color="#fff"/>
      <stop offset="0.41" stop-color="#f9f9f9"/>
      <stop offset="0.99" stop-color="#e6e6e6"/>
      <stop offset="1" stop-color="#e6e6e6"/>
    </linearGradient>
    <linearGradient id="linear-gradient-390" x1="392.5" y1="417.44" x2="392.5" y2="243.44" xlink:href="#linear-gradient-389"/>
    <linearGradient id="linear-gradient-391" x1="294.93" y1="364.51" x2="371.58" y2="231.75" xlink:href="#linear-gradient-389"/>
    <linearGradient id="linear-gradient-392" x1="434.69" y1="340.68" x2="503.2" y2="222.03" gradientUnits="userSpaceOnUse">
      <stop offset="0" stop-color="#fff"/>
      <stop offset="0.53" stop-color="#f9f9f9"/>
      <stop offset="1" stop-color="#eee"/>
    </linearGradient>
  </defs>
  <title>26_Sign_Up_edited</title>
  <rect width="800" height="600" style="fill: #fff"/>
  <g>
    <g>
      <path d="M798,444H781a1,1,0,0,0-1,1v12a1,1,0,0,0,1,1h17a1,1,0,0,0,1-1V445A1,1,0,0,0,798,444Z" style="fill: url(#linear-gradient)"/>
      <path d="M777,444H727a1,1,0,0,0-1,1v12a1,1,0,0,0,1,1h50a1,1,0,0,0,1-1V445A1,1,0,0,0,777,444Z" style="fill: url(#linear-gradient-2)"/>
      <path d="M799,428H754a1,1,0,0,0-1,1v12a1,1,0,0,0,1,1h45a1,1,0,0,0,1-1V429A1,1,0,0,0,799,428Z" style="fill: url(#linear-gradient-3)"/>
      <path d="M723,444H673a1,1,0,0,0-1,1v12a1,1,0,0,0,1,1h50a1,1,0,0,0,1-1V445A1,1,0,0,0,723,444Z" style="fill: url(#linear-gradient-4)"/>
      <path d="M750,428H700a1,1,0,0,0-1,1v12a1,1,0,0,0,1,1h50a1,1,0,0,0,1-1V429A1,1,0,0,0,750,428Z" style="fill: url(#linear-gradient-5)"/>
      <path d="M669,444H619a1,1,0,0,0-1,1v12a1,1,0,0,0,1,1h50a1,1,0,0,0,1-1V445A1,1,0,0,0,669,444Z" style="fill: url(#linear-gradient-6)"/>
      <path d="M696,428H646a1,1,0,0,0-1,1v12a1,1,0,0,0,1,1h50a1,1,0,0,0,1-1V429A1,1,0,0,0,696,428Z" style="fill: url(#linear-gradient-7)"/>
      <path d="M615,444H565a1,1,0,0,0-1,1v12a1,1,0,0,0,1,1h50a1,1,0,0,0,1-1V445A1,1,0,0,0,615,444Z" style="fill: url(#linear-gradient-8)"/>
      <path d="M642,428H592a1,1,0,0,0-1,1v12a1,1,0,0,0,1,1h50a1,1,0,0,0,1-1V429A1,1,0,0,0,642,428Z" style="fill: url(#linear-gradient-9)"/>
      <path d="M561,444H511a1,1,0,0,0-1,1v12a1,1,0,0,0,1,1h50a1,1,0,0,0,1-1V445A1,1,0,0,0,561,444Z" style="fill: url(#linear-gradient-10)"/>
      <path d="M588,428H538a1,1,0,0,0-1,1v12a1,1,0,0,0,1,1h50a1,1,0,0,0,1-1V429A1,1,0,0,0,588,428Z" style="fill: url(#linear-gradient-11)"/>
      <path d="M507,444H457a1,1,0,0,0-1,1v12a1,1,0,0,0,1,1h50a1,1,0,0,0,1-1V445A1,1,0,0,0,507,444Z" style="fill: url(#linear-gradient-12)"/>
      <path d="M534,428H484a1,1,0,0,0-1,1v12a1,1,0,0,0,1,1h50a1,1,0,0,0,1-1V429A1,1,0,0,0,534,428Z" style="fill: url(#linear-gradient-13)"/>
      <path d="M453,444H403a1,1,0,0,0-1,1v12a1,1,0,0,0,1,1h50a1,1,0,0,0,1-1V445A1,1,0,0,0,453,444Z" style="fill: url(#linear-gradient-14)"/>
      <path d="M480,428H430a1,1,0,0,0-1,1v12a1,1,0,0,0,1,1h50a1,1,0,0,0,1-1V429A1,1,0,0,0,480,428Z" style="fill: url(#linear-gradient-15)"/>
      <path d="M399,444H349a1,1,0,0,0-1,1v12a1,1,0,0,0,1,1h50a1,1,0,0,0,1-1V445A1,1,0,0,0,399,444Z" style="fill: url(#linear-gradient-16)"/>
      <path d="M426,428H376a1,1,0,0,0-1,1v12a1,1,0,0,0,1,1h50a1,1,0,0,0,1-1V429A1,1,0,0,0,426,428Z" style="fill: url(#linear-gradient-17)"/>
      <path d="M345,444H295a1,1,0,0,0-1,1v12a1,1,0,0,0,1,1h50a1,1,0,0,0,1-1V445A1,1,0,0,0,345,444Z" style="fill: url(#linear-gradient-18)"/>
      <path d="M372,428H322a1,1,0,0,0-1,1v12a1,1,0,0,0,1,1h50a1,1,0,0,0,1-1V429A1,1,0,0,0,372,428Z" style="fill: url(#linear-gradient-19)"/>
      <path d="M291,444H241a1,1,0,0,0-1,1v12a1,1,0,0,0,1,1h50a1,1,0,0,0,1-1V445A1,1,0,0,0,291,444Z" style="fill: url(#linear-gradient-20)"/>
      <path d="M318,428H268a1,1,0,0,0-1,1v12a1,1,0,0,0,1,1h50a1,1,0,0,0,1-1V429A1,1,0,0,0,318,428Z" style="fill: url(#linear-gradient-21)"/>
      <path d="M237,444H187a1,1,0,0,0-1,1v12a1,1,0,0,0,1,1h50a1,1,0,0,0,1-1V445A1,1,0,0,0,237,444Z" style="fill: url(#linear-gradient-22)"/>
      <path d="M264,428H214a1,1,0,0,0-1,1v12a1,1,0,0,0,1,1h50a1,1,0,0,0,1-1V429A1,1,0,0,0,264,428Z" style="fill: url(#linear-gradient-23)"/>
      <path d="M183,444H133a1,1,0,0,0-1,1v12a1,1,0,0,0,1,1h50a1,1,0,0,0,1-1V445A1,1,0,0,0,183,444Z" style="fill: url(#linear-gradient-24)"/>
      <path d="M210,428H160a1,1,0,0,0-1,1v12a1,1,0,0,0,1,1h50a1,1,0,0,0,1-1V429A1,1,0,0,0,210,428Z" style="fill: url(#linear-gradient-25)"/>
      <path d="M129,444H79a1,1,0,0,0-1,1v12a1,1,0,0,0,1,1h50a1,1,0,0,0,1-1V445A1,1,0,0,0,129,444Z" style="fill: url(#linear-gradient-26)"/>
      <path d="M156,428H106a1,1,0,0,0-1,1v12a1,1,0,0,0,1,1h50a1,1,0,0,0,1-1V429A1,1,0,0,0,156,428Z" style="fill: url(#linear-gradient-27)"/>
      <path d="M75,444H25a1,1,0,0,0-1,1v12a1,1,0,0,0,1,1H75a1,1,0,0,0,1-1V445A1,1,0,0,0,75,444Z" style="fill: url(#linear-gradient-28)"/>
      <path d="M102,428H52a1,1,0,0,0-1,1v12a1,1,0,0,0,1,1h50a1,1,0,0,0,1-1V429A1,1,0,0,0,102,428Z" style="fill: url(#linear-gradient-29)"/>
      <path d="M21,444H1a1,1,0,0,0-1,1v12a1,1,0,0,0,1,1H21a1,1,0,0,0,1-1V445A1,1,0,0,0,21,444Z" style="fill: url(#linear-gradient-30)"/>
      <path d="M48,428H1a1,1,0,0,0-1,1v12a1,1,0,0,0,1,1H48a1,1,0,0,0,1-1V429A1,1,0,0,0,48,428Z" style="fill: url(#linear-gradient-31)"/>
      <path d="M798,412H781a1,1,0,0,0-1,1v12a1,1,0,0,0,1,1h17a1,1,0,0,0,1-1V413A1,1,0,0,0,798,412Z" style="fill: url(#linear-gradient)"/>
      <path d="M777,412H727a1,1,0,0,0-1,1v12a1,1,0,0,0,1,1h50a1,1,0,0,0,1-1V413A1,1,0,0,0,777,412Z" style="fill: url(#linear-gradient-2)"/>
      <path d="M799,396H754a1,1,0,0,0-1,1v12a1,1,0,0,0,1,1h45a1,1,0,0,0,1-1V397A1,1,0,0,0,799,396Z" style="fill: url(#linear-gradient-3)"/>
      <path d="M723,412H673a1,1,0,0,0-1,1v12a1,1,0,0,0,1,1h50a1,1,0,0,0,1-1V413A1,1,0,0,0,723,412Z" style="fill: url(#linear-gradient-4)"/>
      <path d="M750,396H700a1,1,0,0,0-1,1v12a1,1,0,0,0,1,1h50a1,1,0,0,0,1-1V397A1,1,0,0,0,750,396Z" style="fill: url(#linear-gradient-5)"/>
      <path d="M669,412H619a1,1,0,0,0-1,1v12a1,1,0,0,0,1,1h50a1,1,0,0,0,1-1V413A1,1,0,0,0,669,412Z" style="fill: url(#linear-gradient-6)"/>
      <path d="M696,396H646a1,1,0,0,0-1,1v12a1,1,0,0,0,1,1h50a1,1,0,0,0,1-1V397A1,1,0,0,0,696,396Z" style="fill: url(#linear-gradient-7)"/>
      <path d="M615,412H565a1,1,0,0,0-1,1v12a1,1,0,0,0,1,1h50a1,1,0,0,0,1-1V413A1,1,0,0,0,615,412Z" style="fill: url(#linear-gradient-8)"/>
      <path d="M642,396H592a1,1,0,0,0-1,1v12a1,1,0,0,0,1,1h50a1,1,0,0,0,1-1V397A1,1,0,0,0,642,396Z" style="fill: url(#linear-gradient-9)"/>
      <path d="M561,412H511a1,1,0,0,0-1,1v12a1,1,0,0,0,1,1h50a1,1,0,0,0,1-1V413A1,1,0,0,0,561,412Z" style="fill: url(#linear-gradient-10)"/>
      <path d="M588,396H538a1,1,0,0,0-1,1v12a1,1,0,0,0,1,1h50a1,1,0,0,0,1-1V397A1,1,0,0,0,588,396Z" style="fill: url(#linear-gradient-11)"/>
      <path d="M507,412H457a1,1,0,0,0-1,1v12a1,1,0,0,0,1,1h50a1,1,0,0,0,1-1V413A1,1,0,0,0,507,412Z" style="fill: url(#linear-gradient-12)"/>
      <path d="M534,396H484a1,1,0,0,0-1,1v12a1,1,0,0,0,1,1h50a1,1,0,0,0,1-1V397A1,1,0,0,0,534,396Z" style="fill: url(#linear-gradient-13)"/>
      <path d="M453,412H403a1,1,0,0,0-1,1v12a1,1,0,0,0,1,1h50a1,1,0,0,0,1-1V413A1,1,0,0,0,453,412Z" style="fill: url(#linear-gradient-14)"/>
      <path d="M480,396H430a1,1,0,0,0-1,1v12a1,1,0,0,0,1,1h50a1,1,0,0,0,1-1V397A1,1,0,0,0,480,396Z" style="fill: url(#linear-gradient-15)"/>
      <path d="M399,412H349a1,1,0,0,0-1,1v12a1,1,0,0,0,1,1h50a1,1,0,0,0,1-1V413A1,1,0,0,0,399,412Z" style="fill: url(#linear-gradient-16)"/>
      <path d="M426,396H376a1,1,0,0,0-1,1v12a1,1,0,0,0,1,1h50a1,1,0,0,0,1-1V397A1,1,0,0,0,426,396Z" style="fill: url(#linear-gradient-17)"/>
      <path d="M345,412H295a1,1,0,0,0-1,1v12a1,1,0,0,0,1,1h50a1,1,0,0,0,1-1V413A1,1,0,0,0,345,412Z" style="fill: url(#linear-gradient-18)"/>
      <path d="M372,396H322a1,1,0,0,0-1,1v12a1,1,0,0,0,1,1h50a1,1,0,0,0,1-1V397A1,1,0,0,0,372,396Z" style="fill: url(#linear-gradient-19)"/>
      <path d="M291,412H241a1,1,0,0,0-1,1v12a1,1,0,0,0,1,1h50a1,1,0,0,0,1-1V413A1,1,0,0,0,291,412Z" style="fill: url(#linear-gradient-20)"/>
      <path d="M318,396H268a1,1,0,0,0-1,1v12a1,1,0,0,0,1,1h50a1,1,0,0,0,1-1V397A1,1,0,0,0,318,396Z" style="fill: url(#linear-gradient-21)"/>
      <path d="M237,412H187a1,1,0,0,0-1,1v12a1,1,0,0,0,1,1h50a1,1,0,0,0,1-1V413A1,1,0,0,0,237,412Z" style="fill: url(#linear-gradient-22)"/>
      <path d="M264,396H214a1,1,0,0,0-1,1v12a1,1,0,0,0,1,1h50a1,1,0,0,0,1-1V397A1,1,0,0,0,264,396Z" style="fill: url(#linear-gradient-23)"/>
      <path d="M183,412H133a1,1,0,0,0-1,1v12a1,1,0,0,0,1,1h50a1,1,0,0,0,1-1V413A1,1,0,0,0,183,412Z" style="fill: url(#linear-gradient-24)"/>
      <path d="M210,396H160a1,1,0,0,0-1,1v12a1,1,0,0,0,1,1h50a1,1,0,0,0,1-1V397A1,1,0,0,0,210,396Z" style="fill: url(#linear-gradient-25)"/>
      <path d="M129,412H79a1,1,0,0,0-1,1v12a1,1,0,0,0,1,1h50a1,1,0,0,0,1-1V413A1,1,0,0,0,129,412Z" style="fill: url(#linear-gradient-26)"/>
      <path d="M156,396H106a1,1,0,0,0-1,1v12a1,1,0,0,0,1,1h50a1,1,0,0,0,1-1V397A1,1,0,0,0,156,396Z" style="fill: url(#linear-gradient-27)"/>
      <path d="M75,412H25a1,1,0,0,0-1,1v12a1,1,0,0,0,1,1H75a1,1,0,0,0,1-1V413A1,1,0,0,0,75,412Z" style="fill: url(#linear-gradient-28)"/>
      <path d="M102,396H52a1,1,0,0,0-1,1v12a1,1,0,0,0,1,1h50a1,1,0,0,0,1-1V397A1,1,0,0,0,102,396Z" style="fill: url(#linear-gradient-29)"/>
      <path d="M21,412H1a1,1,0,0,0-1,1v12a1,1,0,0,0,1,1H21a1,1,0,0,0,1-1V413A1,1,0,0,0,21,412Z" style="fill: url(#linear-gradient-30)"/>
      <path d="M48,396H1a1,1,0,0,0-1,1v12a1,1,0,0,0,1,1H48a1,1,0,0,0,1-1V397A1,1,0,0,0,48,396Z" style="fill: url(#linear-gradient-31)"/>
      <path d="M798,380H781a1,1,0,0,0-1,1v12a1,1,0,0,0,1,1h17a1,1,0,0,0,1-1V381A1,1,0,0,0,798,380Z" style="fill: url(#linear-gradient)"/>
      <path d="M777,380H727a1,1,0,0,0-1,1v12a1,1,0,0,0,1,1h50a1,1,0,0,0,1-1V381A1,1,0,0,0,777,380Z" style="fill: url(#linear-gradient-2)"/>
      <path d="M799,364H754a1,1,0,0,0-1,1v12a1,1,0,0,0,1,1h45a1,1,0,0,0,1-1V365A1,1,0,0,0,799,364Z" style="fill: url(#linear-gradient-3)"/>
      <path d="M723,380H673a1,1,0,0,0-1,1v12a1,1,0,0,0,1,1h50a1,1,0,0,0,1-1V381A1,1,0,0,0,723,380Z" style="fill: url(#linear-gradient-4)"/>
      <path d="M750,364H700a1,1,0,0,0-1,1v12a1,1,0,0,0,1,1h50a1,1,0,0,0,1-1V365A1,1,0,0,0,750,364Z" style="fill: url(#linear-gradient-5)"/>
      <path d="M669,380H619a1,1,0,0,0-1,1v12a1,1,0,0,0,1,1h50a1,1,0,0,0,1-1V381A1,1,0,0,0,669,380Z" style="fill: url(#linear-gradient-6)"/>
      <path d="M696,364H646a1,1,0,0,0-1,1v12a1,1,0,0,0,1,1h50a1,1,0,0,0,1-1V365A1,1,0,0,0,696,364Z" style="fill: url(#linear-gradient-7)"/>
      <path d="M615,380H565a1,1,0,0,0-1,1v12a1,1,0,0,0,1,1h50a1,1,0,0,0,1-1V381A1,1,0,0,0,615,380Z" style="fill: url(#linear-gradient-8)"/>
      <path d="M642,364H592a1,1,0,0,0-1,1v12a1,1,0,0,0,1,1h50a1,1,0,0,0,1-1V365A1,1,0,0,0,642,364Z" style="fill: url(#linear-gradient-9)"/>
      <path d="M561,380H511a1,1,0,0,0-1,1v12a1,1,0,0,0,1,1h50a1,1,0,0,0,1-1V381A1,1,0,0,0,561,380Z" style="fill: url(#linear-gradient-10)"/>
      <path d="M588,364H538a1,1,0,0,0-1,1v12a1,1,0,0,0,1,1h50a1,1,0,0,0,1-1V365A1,1,0,0,0,588,364Z" style="fill: url(#linear-gradient-11)"/>
      <path d="M507,380H457a1,1,0,0,0-1,1v12a1,1,0,0,0,1,1h50a1,1,0,0,0,1-1V381A1,1,0,0,0,507,380Z" style="fill: url(#linear-gradient-12)"/>
      <path d="M534,364H484a1,1,0,0,0-1,1v12a1,1,0,0,0,1,1h50a1,1,0,0,0,1-1V365A1,1,0,0,0,534,364Z" style="fill: url(#linear-gradient-13)"/>
      <path d="M453,380H403a1,1,0,0,0-1,1v12a1,1,0,0,0,1,1h50a1,1,0,0,0,1-1V381A1,1,0,0,0,453,380Z" style="fill: url(#linear-gradient-14)"/>
      <path d="M480,364H430a1,1,0,0,0-1,1v12a1,1,0,0,0,1,1h50a1,1,0,0,0,1-1V365A1,1,0,0,0,480,364Z" style="fill: url(#linear-gradient-15)"/>
      <path d="M399,380H349a1,1,0,0,0-1,1v12a1,1,0,0,0,1,1h50a1,1,0,0,0,1-1V381A1,1,0,0,0,399,380Z" style="fill: url(#linear-gradient-16)"/>
      <path d="M426,364H376a1,1,0,0,0-1,1v12a1,1,0,0,0,1,1h50a1,1,0,0,0,1-1V365A1,1,0,0,0,426,364Z" style="fill: url(#linear-gradient-17)"/>
      <path d="M345,380H295a1,1,0,0,0-1,1v12a1,1,0,0,0,1,1h50a1,1,0,0,0,1-1V381A1,1,0,0,0,345,380Z" style="fill: url(#linear-gradient-18)"/>
      <path d="M372,364H322a1,1,0,0,0-1,1v12a1,1,0,0,0,1,1h50a1,1,0,0,0,1-1V365A1,1,0,0,0,372,364Z" style="fill: url(#linear-gradient-19)"/>
      <path d="M291,380H241a1,1,0,0,0-1,1v12a1,1,0,0,0,1,1h50a1,1,0,0,0,1-1V381A1,1,0,0,0,291,380Z" style="fill: url(#linear-gradient-20)"/>
      <path d="M318,364H268a1,1,0,0,0-1,1v12a1,1,0,0,0,1,1h50a1,1,0,0,0,1-1V365A1,1,0,0,0,318,364Z" style="fill: url(#linear-gradient-21)"/>
      <path d="M237,380H187a1,1,0,0,0-1,1v12a1,1,0,0,0,1,1h50a1,1,0,0,0,1-1V381A1,1,0,0,0,237,380Z" style="fill: url(#linear-gradient-22)"/>
      <path d="M264,364H214a1,1,0,0,0-1,1v12a1,1,0,0,0,1,1h50a1,1,0,0,0,1-1V365A1,1,0,0,0,264,364Z" style="fill: url(#linear-gradient-23)"/>
      <path d="M183,380H133a1,1,0,0,0-1,1v12a1,1,0,0,0,1,1h50a1,1,0,0,0,1-1V381A1,1,0,0,0,183,380Z" style="fill: url(#linear-gradient-24)"/>
      <path d="M210,364H160a1,1,0,0,0-1,1v12a1,1,0,0,0,1,1h50a1,1,0,0,0,1-1V365A1,1,0,0,0,210,364Z" style="fill: url(#linear-gradient-25)"/>
      <path d="M129,380H79a1,1,0,0,0-1,1v12a1,1,0,0,0,1,1h50a1,1,0,0,0,1-1V381A1,1,0,0,0,129,380Z" style="fill: url(#linear-gradient-26)"/>
      <path d="M156,364H106a1,1,0,0,0-1,1v12a1,1,0,0,0,1,1h50a1,1,0,0,0,1-1V365A1,1,0,0,0,156,364Z" style="fill: url(#linear-gradient-27)"/>
      <path d="M75,380H25a1,1,0,0,0-1,1v12a1,1,0,0,0,1,1H75a1,1,0,0,0,1-1V381A1,1,0,0,0,75,380Z" style="fill: url(#linear-gradient-28)"/>
      <path d="M102,364H52a1,1,0,0,0-1,1v12a1,1,0,0,0,1,1h50a1,1,0,0,0,1-1V365A1,1,0,0,0,102,364Z" style="fill: url(#linear-gradient-29)"/>
      <path d="M21,380H1a1,1,0,0,0-1,1v12a1,1,0,0,0,1,1H21a1,1,0,0,0,1-1V381A1,1,0,0,0,21,380Z" style="fill: url(#linear-gradient-30)"/>
      <path d="M48,364H1a1,1,0,0,0-1,1v12a1,1,0,0,0,1,1H48a1,1,0,0,0,1-1V365A1,1,0,0,0,48,364Z" style="fill: url(#linear-gradient-31)"/>
      <path d="M798,348H781a1,1,0,0,0-1,1v12a1,1,0,0,0,1,1h17a1,1,0,0,0,1-1V349A1,1,0,0,0,798,348Z" style="fill: url(#linear-gradient)"/>
      <path d="M777,348H727a1,1,0,0,0-1,1v12a1,1,0,0,0,1,1h50a1,1,0,0,0,1-1V349A1,1,0,0,0,777,348Z" style="fill: url(#linear-gradient-2)"/>
      <path d="M799,332H754a1,1,0,0,0-1,1v12a1,1,0,0,0,1,1h45a1,1,0,0,0,1-1V333A1,1,0,0,0,799,332Z" style="fill: url(#linear-gradient-3)"/>
      <path d="M723,348H673a1,1,0,0,0-1,1v12a1,1,0,0,0,1,1h50a1,1,0,0,0,1-1V349A1,1,0,0,0,723,348Z" style="fill: url(#linear-gradient-4)"/>
      <path d="M750,332H700a1,1,0,0,0-1,1v12a1,1,0,0,0,1,1h50a1,1,0,0,0,1-1V333A1,1,0,0,0,750,332Z" style="fill: url(#linear-gradient-5)"/>
      <path d="M669,348H619a1,1,0,0,0-1,1v12a1,1,0,0,0,1,1h50a1,1,0,0,0,1-1V349A1,1,0,0,0,669,348Z" style="fill: url(#linear-gradient-6)"/>
      <path d="M696,332H646a1,1,0,0,0-1,1v12a1,1,0,0,0,1,1h50a1,1,0,0,0,1-1V333A1,1,0,0,0,696,332Z" style="fill: url(#linear-gradient-7)"/>
      <path d="M615,348H565a1,1,0,0,0-1,1v12a1,1,0,0,0,1,1h50a1,1,0,0,0,1-1V349A1,1,0,0,0,615,348Z" style="fill: url(#linear-gradient-8)"/>
      <path d="M642,332H592a1,1,0,0,0-1,1v12a1,1,0,0,0,1,1h50a1,1,0,0,0,1-1V333A1,1,0,0,0,642,332Z" style="fill: url(#linear-gradient-9)"/>
      <path d="M561,348H511a1,1,0,0,0-1,1v12a1,1,0,0,0,1,1h50a1,1,0,0,0,1-1V349A1,1,0,0,0,561,348Z" style="fill: url(#linear-gradient-10)"/>
      <path d="M588,332H538a1,1,0,0,0-1,1v12a1,1,0,0,0,1,1h50a1,1,0,0,0,1-1V333A1,1,0,0,0,588,332Z" style="fill: url(#linear-gradient-11)"/>
      <path d="M507,348H457a1,1,0,0,0-1,1v12a1,1,0,0,0,1,1h50a1,1,0,0,0,1-1V349A1,1,0,0,0,507,348Z" style="fill: url(#linear-gradient-12)"/>
      <path d="M534,332H484a1,1,0,0,0-1,1v12a1,1,0,0,0,1,1h50a1,1,0,0,0,1-1V333A1,1,0,0,0,534,332Z" style="fill: url(#linear-gradient-13)"/>
      <path d="M453,348H403a1,1,0,0,0-1,1v12a1,1,0,0,0,1,1h50a1,1,0,0,0,1-1V349A1,1,0,0,0,453,348Z" style="fill: url(#linear-gradient-14)"/>
      <path d="M480,332H430a1,1,0,0,0-1,1v12a1,1,0,0,0,1,1h50a1,1,0,0,0,1-1V333A1,1,0,0,0,480,332Z" style="fill: url(#linear-gradient-15)"/>
      <path d="M399,348H349a1,1,0,0,0-1,1v12a1,1,0,0,0,1,1h50a1,1,0,0,0,1-1V349A1,1,0,0,0,399,348Z" style="fill: url(#linear-gradient-16)"/>
      <path d="M426,332H376a1,1,0,0,0-1,1v12a1,1,0,0,0,1,1h50a1,1,0,0,0,1-1V333A1,1,0,0,0,426,332Z" style="fill: url(#linear-gradient-17)"/>
      <path d="M345,348H295a1,1,0,0,0-1,1v12a1,1,0,0,0,1,1h50a1,1,0,0,0,1-1V349A1,1,0,0,0,345,348Z" style="fill: url(#linear-gradient-18)"/>
      <path d="M372,332H322a1,1,0,0,0-1,1v12a1,1,0,0,0,1,1h50a1,1,0,0,0,1-1V333A1,1,0,0,0,372,332Z" style="fill: url(#linear-gradient-19)"/>
      <path d="M291,348H241a1,1,0,0,0-1,1v12a1,1,0,0,0,1,1h50a1,1,0,0,0,1-1V349A1,1,0,0,0,291,348Z" style="fill: url(#linear-gradient-20)"/>
      <path d="M318,332H268a1,1,0,0,0-1,1v12a1,1,0,0,0,1,1h50a1,1,0,0,0,1-1V333A1,1,0,0,0,318,332Z" style="fill: url(#linear-gradient-21)"/>
      <path d="M237,348H187a1,1,0,0,0-1,1v12a1,1,0,0,0,1,1h50a1,1,0,0,0,1-1V349A1,1,0,0,0,237,348Z" style="fill: url(#linear-gradient-22)"/>
      <path d="M264,332H214a1,1,0,0,0-1,1v12a1,1,0,0,0,1,1h50a1,1,0,0,0,1-1V333A1,1,0,0,0,264,332Z" style="fill: url(#linear-gradient-23)"/>
      <path d="M183,348H133a1,1,0,0,0-1,1v12a1,1,0,0,0,1,1h50a1,1,0,0,0,1-1V349A1,1,0,0,0,183,348Z" style="fill: url(#linear-gradient-24)"/>
      <path d="M210,332H160a1,1,0,0,0-1,1v12a1,1,0,0,0,1,1h50a1,1,0,0,0,1-1V333A1,1,0,0,0,210,332Z" style="fill: url(#linear-gradient-25)"/>
      <path d="M129,348H79a1,1,0,0,0-1,1v12a1,1,0,0,0,1,1h50a1,1,0,0,0,1-1V349A1,1,0,0,0,129,348Z" style="fill: url(#linear-gradient-26)"/>
      <path d="M156,332H106a1,1,0,0,0-1,1v12a1,1,0,0,0,1,1h50a1,1,0,0,0,1-1V333A1,1,0,0,0,156,332Z" style="fill: url(#linear-gradient-27)"/>
      <path d="M75,348H25a1,1,0,0,0-1,1v12a1,1,0,0,0,1,1H75a1,1,0,0,0,1-1V349A1,1,0,0,0,75,348Z" style="fill: url(#linear-gradient-28)"/>
      <path d="M102,332H52a1,1,0,0,0-1,1v12a1,1,0,0,0,1,1h50a1,1,0,0,0,1-1V333A1,1,0,0,0,102,332Z" style="fill: url(#linear-gradient-29)"/>
      <path d="M21,348H1a1,1,0,0,0-1,1v12a1,1,0,0,0,1,1H21a1,1,0,0,0,1-1V349A1,1,0,0,0,21,348Z" style="fill: url(#linear-gradient-30)"/>
      <path d="M48,332H1a1,1,0,0,0-1,1v12a1,1,0,0,0,1,1H48a1,1,0,0,0,1-1V333A1,1,0,0,0,48,332Z" style="fill: url(#linear-gradient-31)"/>
      <path d="M798,316H781a1,1,0,0,0-1,1v12a1,1,0,0,0,1,1h17a1,1,0,0,0,1-1V317A1,1,0,0,0,798,316Z" style="fill: url(#linear-gradient)"/>
      <path d="M777,316H727a1,1,0,0,0-1,1v12a1,1,0,0,0,1,1h50a1,1,0,0,0,1-1V317A1,1,0,0,0,777,316Z" style="fill: url(#linear-gradient-2)"/>
      <path d="M799,300H754a1,1,0,0,0-1,1v12a1,1,0,0,0,1,1h45a1,1,0,0,0,1-1V301A1,1,0,0,0,799,300Z" style="fill: url(#linear-gradient-3)"/>
      <path d="M723,316H673a1,1,0,0,0-1,1v12a1,1,0,0,0,1,1h50a1,1,0,0,0,1-1V317A1,1,0,0,0,723,316Z" style="fill: url(#linear-gradient-4)"/>
      <path d="M750,300H700a1,1,0,0,0-1,1v12a1,1,0,0,0,1,1h50a1,1,0,0,0,1-1V301A1,1,0,0,0,750,300Z" style="fill: url(#linear-gradient-5)"/>
      <path d="M669,316H619a1,1,0,0,0-1,1v12a1,1,0,0,0,1,1h50a1,1,0,0,0,1-1V317A1,1,0,0,0,669,316Z" style="fill: url(#linear-gradient-6)"/>
      <path d="M696,300H646a1,1,0,0,0-1,1v12a1,1,0,0,0,1,1h50a1,1,0,0,0,1-1V301A1,1,0,0,0,696,300Z" style="fill: url(#linear-gradient-7)"/>
      <path d="M615,316H565a1,1,0,0,0-1,1v12a1,1,0,0,0,1,1h50a1,1,0,0,0,1-1V317A1,1,0,0,0,615,316Z" style="fill: url(#linear-gradient-8)"/>
      <path d="M642,300H592a1,1,0,0,0-1,1v12a1,1,0,0,0,1,1h50a1,1,0,0,0,1-1V301A1,1,0,0,0,642,300Z" style="fill: url(#linear-gradient-9)"/>
      <path d="M561,316H511a1,1,0,0,0-1,1v12a1,1,0,0,0,1,1h50a1,1,0,0,0,1-1V317A1,1,0,0,0,561,316Z" style="fill: url(#linear-gradient-10)"/>
      <path d="M588,300H538a1,1,0,0,0-1,1v12a1,1,0,0,0,1,1h50a1,1,0,0,0,1-1V301A1,1,0,0,0,588,300Z" style="fill: url(#linear-gradient-11)"/>
      <path d="M507,316H457a1,1,0,0,0-1,1v12a1,1,0,0,0,1,1h50a1,1,0,0,0,1-1V317A1,1,0,0,0,507,316Z" style="fill: url(#linear-gradient-12)"/>
      <path d="M534,300H484a1,1,0,0,0-1,1v12a1,1,0,0,0,1,1h50a1,1,0,0,0,1-1V301A1,1,0,0,0,534,300Z" style="fill: url(#linear-gradient-13)"/>
      <path d="M453,316H403a1,1,0,0,0-1,1v12a1,1,0,0,0,1,1h50a1,1,0,0,0,1-1V317A1,1,0,0,0,453,316Z" style="fill: url(#linear-gradient-14)"/>
      <path d="M480,300H430a1,1,0,0,0-1,1v12a1,1,0,0,0,1,1h50a1,1,0,0,0,1-1V301A1,1,0,0,0,480,300Z" style="fill: url(#linear-gradient-15)"/>
      <path d="M399,316H349a1,1,0,0,0-1,1v12a1,1,0,0,0,1,1h50a1,1,0,0,0,1-1V317A1,1,0,0,0,399,316Z" style="fill: url(#linear-gradient-16)"/>
      <path d="M426,300H376a1,1,0,0,0-1,1v12a1,1,0,0,0,1,1h50a1,1,0,0,0,1-1V301A1,1,0,0,0,426,300Z" style="fill: url(#linear-gradient-17)"/>
      <path d="M345,316H295a1,1,0,0,0-1,1v12a1,1,0,0,0,1,1h50a1,1,0,0,0,1-1V317A1,1,0,0,0,345,316Z" style="fill: url(#linear-gradient-18)"/>
      <path d="M372,300H322a1,1,0,0,0-1,1v12a1,1,0,0,0,1,1h50a1,1,0,0,0,1-1V301A1,1,0,0,0,372,300Z" style="fill: url(#linear-gradient-19)"/>
      <path d="M291,316H241a1,1,0,0,0-1,1v12a1,1,0,0,0,1,1h50a1,1,0,0,0,1-1V317A1,1,0,0,0,291,316Z" style="fill: url(#linear-gradient-20)"/>
      <path d="M318,300H268a1,1,0,0,0-1,1v12a1,1,0,0,0,1,1h50a1,1,0,0,0,1-1V301A1,1,0,0,0,318,300Z" style="fill: url(#linear-gradient-21)"/>
      <path d="M237,316H187a1,1,0,0,0-1,1v12a1,1,0,0,0,1,1h50a1,1,0,0,0,1-1V317A1,1,0,0,0,237,316Z" style="fill: url(#linear-gradient-22)"/>
      <path d="M264,300H214a1,1,0,0,0-1,1v12a1,1,0,0,0,1,1h50a1,1,0,0,0,1-1V301A1,1,0,0,0,264,300Z" style="fill: url(#linear-gradient-23)"/>
      <path d="M183,316H133a1,1,0,0,0-1,1v12a1,1,0,0,0,1,1h50a1,1,0,0,0,1-1V317A1,1,0,0,0,183,316Z" style="fill: url(#linear-gradient-24)"/>
      <path d="M210,300H160a1,1,0,0,0-1,1v12a1,1,0,0,0,1,1h50a1,1,0,0,0,1-1V301A1,1,0,0,0,210,300Z" style="fill: url(#linear-gradient-25)"/>
      <path d="M129,316H79a1,1,0,0,0-1,1v12a1,1,0,0,0,1,1h50a1,1,0,0,0,1-1V317A1,1,0,0,0,129,316Z" style="fill: url(#linear-gradient-26)"/>
      <path d="M156,300H106a1,1,0,0,0-1,1v12a1,1,0,0,0,1,1h50a1,1,0,0,0,1-1V301A1,1,0,0,0,156,300Z" style="fill: url(#linear-gradient-27)"/>
      <path d="M75,316H25a1,1,0,0,0-1,1v12a1,1,0,0,0,1,1H75a1,1,0,0,0,1-1V317A1,1,0,0,0,75,316Z" style="fill: url(#linear-gradient-28)"/>
      <path d="M102,300H52a1,1,0,0,0-1,1v12a1,1,0,0,0,1,1h50a1,1,0,0,0,1-1V301A1,1,0,0,0,102,300Z" style="fill: url(#linear-gradient-29)"/>
      <path d="M21,316H1a1,1,0,0,0-1,1v12a1,1,0,0,0,1,1H21a1,1,0,0,0,1-1V317A1,1,0,0,0,21,316Z" style="fill: url(#linear-gradient-30)"/>
      <path d="M48,300H1a1,1,0,0,0-1,1v12a1,1,0,0,0,1,1H48a1,1,0,0,0,1-1V301A1,1,0,0,0,48,300Z" style="fill: url(#linear-gradient-31)"/>
      <path d="M798,284H781a1,1,0,0,0-1,1v12a1,1,0,0,0,1,1h17a1,1,0,0,0,1-1V285A1,1,0,0,0,798,284Z" style="fill: url(#linear-gradient)"/>
      <path d="M777,284H727a1,1,0,0,0-1,1v12a1,1,0,0,0,1,1h50a1,1,0,0,0,1-1V285A1,1,0,0,0,777,284Z" style="fill: url(#linear-gradient-2)"/>
      <path d="M799,268H754a1,1,0,0,0-1,1v12a1,1,0,0,0,1,1h45a1,1,0,0,0,1-1V269A1,1,0,0,0,799,268Z" style="fill: url(#linear-gradient-3)"/>
      <path d="M723,284H673a1,1,0,0,0-1,1v12a1,1,0,0,0,1,1h50a1,1,0,0,0,1-1V285A1,1,0,0,0,723,284Z" style="fill: url(#linear-gradient-4)"/>
      <path d="M750,268H700a1,1,0,0,0-1,1v12a1,1,0,0,0,1,1h50a1,1,0,0,0,1-1V269A1,1,0,0,0,750,268Z" style="fill: url(#linear-gradient-5)"/>
      <path d="M669,284H619a1,1,0,0,0-1,1v12a1,1,0,0,0,1,1h50a1,1,0,0,0,1-1V285A1,1,0,0,0,669,284Z" style="fill: url(#linear-gradient-6)"/>
      <path d="M696,268H646a1,1,0,0,0-1,1v12a1,1,0,0,0,1,1h50a1,1,0,0,0,1-1V269A1,1,0,0,0,696,268Z" style="fill: url(#linear-gradient-7)"/>
      <path d="M615,284H565a1,1,0,0,0-1,1v12a1,1,0,0,0,1,1h50a1,1,0,0,0,1-1V285A1,1,0,0,0,615,284Z" style="fill: url(#linear-gradient-8)"/>
      <path d="M642,268H592a1,1,0,0,0-1,1v12a1,1,0,0,0,1,1h50a1,1,0,0,0,1-1V269A1,1,0,0,0,642,268Z" style="fill: url(#linear-gradient-9)"/>
      <path d="M561,284H511a1,1,0,0,0-1,1v12a1,1,0,0,0,1,1h50a1,1,0,0,0,1-1V285A1,1,0,0,0,561,284Z" style="fill: url(#linear-gradient-10)"/>
      <path d="M588,268H538a1,1,0,0,0-1,1v12a1,1,0,0,0,1,1h50a1,1,0,0,0,1-1V269A1,1,0,0,0,588,268Z" style="fill: url(#linear-gradient-11)"/>
      <path d="M507,284H457a1,1,0,0,0-1,1v12a1,1,0,0,0,1,1h50a1,1,0,0,0,1-1V285A1,1,0,0,0,507,284Z" style="fill: url(#linear-gradient-12)"/>
      <path d="M534,268H484a1,1,0,0,0-1,1v12a1,1,0,0,0,1,1h50a1,1,0,0,0,1-1V269A1,1,0,0,0,534,268Z" style="fill: url(#linear-gradient-13)"/>
      <path d="M453,284H403a1,1,0,0,0-1,1v12a1,1,0,0,0,1,1h50a1,1,0,0,0,1-1V285A1,1,0,0,0,453,284Z" style="fill: url(#linear-gradient-14)"/>
      <path d="M480,268H430a1,1,0,0,0-1,1v12a1,1,0,0,0,1,1h50a1,1,0,0,0,1-1V269A1,1,0,0,0,480,268Z" style="fill: url(#linear-gradient-15)"/>
      <path d="M399,284H349a1,1,0,0,0-1,1v12a1,1,0,0,0,1,1h50a1,1,0,0,0,1-1V285A1,1,0,0,0,399,284Z" style="fill: url(#linear-gradient-16)"/>
      <path d="M426,268H376a1,1,0,0,0-1,1v12a1,1,0,0,0,1,1h50a1,1,0,0,0,1-1V269A1,1,0,0,0,426,268Z" style="fill: url(#linear-gradient-17)"/>
      <path d="M345,284H295a1,1,0,0,0-1,1v12a1,1,0,0,0,1,1h50a1,1,0,0,0,1-1V285A1,1,0,0,0,345,284Z" style="fill: url(#linear-gradient-18)"/>
      <path d="M372,268H322a1,1,0,0,0-1,1v12a1,1,0,0,0,1,1h50a1,1,0,0,0,1-1V269A1,1,0,0,0,372,268Z" style="fill: url(#linear-gradient-19)"/>
      <path d="M291,284H241a1,1,0,0,0-1,1v12a1,1,0,0,0,1,1h50a1,1,0,0,0,1-1V285A1,1,0,0,0,291,284Z" style="fill: url(#linear-gradient-20)"/>
      <path d="M318,268H268a1,1,0,0,0-1,1v12a1,1,0,0,0,1,1h50a1,1,0,0,0,1-1V269A1,1,0,0,0,318,268Z" style="fill: url(#linear-gradient-21)"/>
      <path d="M237,284H187a1,1,0,0,0-1,1v12a1,1,0,0,0,1,1h50a1,1,0,0,0,1-1V285A1,1,0,0,0,237,284Z" style="fill: url(#linear-gradient-22)"/>
      <path d="M264,268H214a1,1,0,0,0-1,1v12a1,1,0,0,0,1,1h50a1,1,0,0,0,1-1V269A1,1,0,0,0,264,268Z" style="fill: url(#linear-gradient-23)"/>
      <path d="M183,284H133a1,1,0,0,0-1,1v12a1,1,0,0,0,1,1h50a1,1,0,0,0,1-1V285A1,1,0,0,0,183,284Z" style="fill: url(#linear-gradient-24)"/>
      <path d="M210,268H160a1,1,0,0,0-1,1v12a1,1,0,0,0,1,1h50a1,1,0,0,0,1-1V269A1,1,0,0,0,210,268Z" style="fill: url(#linear-gradient-25)"/>
      <path d="M129,284H79a1,1,0,0,0-1,1v12a1,1,0,0,0,1,1h50a1,1,0,0,0,1-1V285A1,1,0,0,0,129,284Z" style="fill: url(#linear-gradient-26)"/>
      <path d="M156,268H106a1,1,0,0,0-1,1v12a1,1,0,0,0,1,1h50a1,1,0,0,0,1-1V269A1,1,0,0,0,156,268Z" style="fill: url(#linear-gradient-27)"/>
      <path d="M75,284H25a1,1,0,0,0-1,1v12a1,1,0,0,0,1,1H75a1,1,0,0,0,1-1V285A1,1,0,0,0,75,284Z" style="fill: url(#linear-gradient-28)"/>
      <path d="M102,268H52a1,1,0,0,0-1,1v12a1,1,0,0,0,1,1h50a1,1,0,0,0,1-1V269A1,1,0,0,0,102,268Z" style="fill: url(#linear-gradient-29)"/>
      <path d="M21,284H1a1,1,0,0,0-1,1v12a1,1,0,0,0,1,1H21a1,1,0,0,0,1-1V285A1,1,0,0,0,21,284Z" style="fill: url(#linear-gradient-30)"/>
      <path d="M48,268H1a1,1,0,0,0-1,1v12a1,1,0,0,0,1,1H48a1,1,0,0,0,1-1V269A1,1,0,0,0,48,268Z" style="fill: url(#linear-gradient-31)"/>
      <path d="M798,252H781a1,1,0,0,0-1,1v12a1,1,0,0,0,1,1h17a1,1,0,0,0,1-1V253A1,1,0,0,0,798,252Z" style="fill: url(#linear-gradient)"/>
      <path d="M777,252H727a1,1,0,0,0-1,1v12a1,1,0,0,0,1,1h50a1,1,0,0,0,1-1V253A1,1,0,0,0,777,252Z" style="fill: url(#linear-gradient-2)"/>
      <path d="M799,236H754a1,1,0,0,0-1,1v12a1,1,0,0,0,1,1h45a1,1,0,0,0,1-1V237A1,1,0,0,0,799,236Z" style="fill: url(#linear-gradient-3)"/>
      <path d="M723,252H673a1,1,0,0,0-1,1v12a1,1,0,0,0,1,1h50a1,1,0,0,0,1-1V253A1,1,0,0,0,723,252Z" style="fill: url(#linear-gradient-4)"/>
      <path d="M750,236H700a1,1,0,0,0-1,1v12a1,1,0,0,0,1,1h50a1,1,0,0,0,1-1V237A1,1,0,0,0,750,236Z" style="fill: url(#linear-gradient-5)"/>
      <path d="M669,252H619a1,1,0,0,0-1,1v12a1,1,0,0,0,1,1h50a1,1,0,0,0,1-1V253A1,1,0,0,0,669,252Z" style="fill: url(#linear-gradient-6)"/>
      <path d="M696,236H646a1,1,0,0,0-1,1v12a1,1,0,0,0,1,1h50a1,1,0,0,0,1-1V237A1,1,0,0,0,696,236Z" style="fill: url(#linear-gradient-7)"/>
      <path d="M615,252H565a1,1,0,0,0-1,1v12a1,1,0,0,0,1,1h50a1,1,0,0,0,1-1V253A1,1,0,0,0,615,252Z" style="fill: url(#linear-gradient-8)"/>
      <path d="M642,236H592a1,1,0,0,0-1,1v12a1,1,0,0,0,1,1h50a1,1,0,0,0,1-1V237A1,1,0,0,0,642,236Z" style="fill: url(#linear-gradient-9)"/>
      <path d="M561,252H511a1,1,0,0,0-1,1v12a1,1,0,0,0,1,1h50a1,1,0,0,0,1-1V253A1,1,0,0,0,561,252Z" style="fill: url(#linear-gradient-10)"/>
      <path d="M588,236H538a1,1,0,0,0-1,1v12a1,1,0,0,0,1,1h50a1,1,0,0,0,1-1V237A1,1,0,0,0,588,236Z" style="fill: url(#linear-gradient-11)"/>
      <path d="M507,252H457a1,1,0,0,0-1,1v12a1,1,0,0,0,1,1h50a1,1,0,0,0,1-1V253A1,1,0,0,0,507,252Z" style="fill: url(#linear-gradient-12)"/>
      <path d="M534,236H484a1,1,0,0,0-1,1v12a1,1,0,0,0,1,1h50a1,1,0,0,0,1-1V237A1,1,0,0,0,534,236Z" style="fill: url(#linear-gradient-13)"/>
      <path d="M453,252H403a1,1,0,0,0-1,1v12a1,1,0,0,0,1,1h50a1,1,0,0,0,1-1V253A1,1,0,0,0,453,252Z" style="fill: url(#linear-gradient-14)"/>
      <path d="M480,236H430a1,1,0,0,0-1,1v12a1,1,0,0,0,1,1h50a1,1,0,0,0,1-1V237A1,1,0,0,0,480,236Z" style="fill: url(#linear-gradient-15)"/>
      <path d="M399,252H349a1,1,0,0,0-1,1v12a1,1,0,0,0,1,1h50a1,1,0,0,0,1-1V253A1,1,0,0,0,399,252Z" style="fill: url(#linear-gradient-16)"/>
      <path d="M426,236H376a1,1,0,0,0-1,1v12a1,1,0,0,0,1,1h50a1,1,0,0,0,1-1V237A1,1,0,0,0,426,236Z" style="fill: url(#linear-gradient-17)"/>
      <path d="M345,252H295a1,1,0,0,0-1,1v12a1,1,0,0,0,1,1h50a1,1,0,0,0,1-1V253A1,1,0,0,0,345,252Z" style="fill: url(#linear-gradient-18)"/>
      <path d="M372,236H322a1,1,0,0,0-1,1v12a1,1,0,0,0,1,1h50a1,1,0,0,0,1-1V237A1,1,0,0,0,372,236Z" style="fill: url(#linear-gradient-19)"/>
      <path d="M291,252H241a1,1,0,0,0-1,1v12a1,1,0,0,0,1,1h50a1,1,0,0,0,1-1V253A1,1,0,0,0,291,252Z" style="fill: url(#linear-gradient-20)"/>
      <path d="M318,236H268a1,1,0,0,0-1,1v12a1,1,0,0,0,1,1h50a1,1,0,0,0,1-1V237A1,1,0,0,0,318,236Z" style="fill: url(#linear-gradient-21)"/>
      <path d="M237,252H187a1,1,0,0,0-1,1v12a1,1,0,0,0,1,1h50a1,1,0,0,0,1-1V253A1,1,0,0,0,237,252Z" style="fill: url(#linear-gradient-22)"/>
      <path d="M264,236H214a1,1,0,0,0-1,1v12a1,1,0,0,0,1,1h50a1,1,0,0,0,1-1V237A1,1,0,0,0,264,236Z" style="fill: url(#linear-gradient-23)"/>
      <path d="M183,252H133a1,1,0,0,0-1,1v12a1,1,0,0,0,1,1h50a1,1,0,0,0,1-1V253A1,1,0,0,0,183,252Z" style="fill: url(#linear-gradient-24)"/>
      <path d="M210,236H160a1,1,0,0,0-1,1v12a1,1,0,0,0,1,1h50a1,1,0,0,0,1-1V237A1,1,0,0,0,210,236Z" style="fill: url(#linear-gradient-25)"/>
      <path d="M129,252H79a1,1,0,0,0-1,1v12a1,1,0,0,0,1,1h50a1,1,0,0,0,1-1V253A1,1,0,0,0,129,252Z" style="fill: url(#linear-gradient-26)"/>
      <path d="M156,236H106a1,1,0,0,0-1,1v12a1,1,0,0,0,1,1h50a1,1,0,0,0,1-1V237A1,1,0,0,0,156,236Z" style="fill: url(#linear-gradient-27)"/>
      <path d="M75,252H25a1,1,0,0,0-1,1v12a1,1,0,0,0,1,1H75a1,1,0,0,0,1-1V253A1,1,0,0,0,75,252Z" style="fill: url(#linear-gradient-28)"/>
      <path d="M102,236H52a1,1,0,0,0-1,1v12a1,1,0,0,0,1,1h50a1,1,0,0,0,1-1V237A1,1,0,0,0,102,236Z" style="fill: url(#linear-gradient-29)"/>
      <path d="M21,252H1a1,1,0,0,0-1,1v12a1,1,0,0,0,1,1H21a1,1,0,0,0,1-1V253A1,1,0,0,0,21,252Z" style="fill: url(#linear-gradient-30)"/>
      <path d="M48,236H1a1,1,0,0,0-1,1v12a1,1,0,0,0,1,1H48a1,1,0,0,0,1-1V237A1,1,0,0,0,48,236Z" style="fill: url(#linear-gradient-31)"/>
      <path d="M798,220H781a1,1,0,0,0-1,1v12a1,1,0,0,0,1,1h17a1,1,0,0,0,1-1V221A1,1,0,0,0,798,220Z" style="fill: url(#linear-gradient)"/>
      <path d="M777,220H727a1,1,0,0,0-1,1v12a1,1,0,0,0,1,1h50a1,1,0,0,0,1-1V221A1,1,0,0,0,777,220Z" style="fill: url(#linear-gradient-2)"/>
      <path d="M799,204H754a1,1,0,0,0-1,1v12a1,1,0,0,0,1,1h45a1,1,0,0,0,1-1V205A1,1,0,0,0,799,204Z" style="fill: url(#linear-gradient-3)"/>
      <path d="M723,220H673a1,1,0,0,0-1,1v12a1,1,0,0,0,1,1h50a1,1,0,0,0,1-1V221A1,1,0,0,0,723,220Z" style="fill: url(#linear-gradient-4)"/>
      <path d="M750,204H700a1,1,0,0,0-1,1v12a1,1,0,0,0,1,1h50a1,1,0,0,0,1-1V205A1,1,0,0,0,750,204Z" style="fill: url(#linear-gradient-5)"/>
      <path d="M669,220H619a1,1,0,0,0-1,1v12a1,1,0,0,0,1,1h50a1,1,0,0,0,1-1V221A1,1,0,0,0,669,220Z" style="fill: url(#linear-gradient-6)"/>
      <path d="M696,204H646a1,1,0,0,0-1,1v12a1,1,0,0,0,1,1h50a1,1,0,0,0,1-1V205A1,1,0,0,0,696,204Z" style="fill: url(#linear-gradient-7)"/>
      <path d="M615,220H565a1,1,0,0,0-1,1v12a1,1,0,0,0,1,1h50a1,1,0,0,0,1-1V221A1,1,0,0,0,615,220Z" style="fill: url(#linear-gradient-8)"/>
      <path d="M642,204H592a1,1,0,0,0-1,1v12a1,1,0,0,0,1,1h50a1,1,0,0,0,1-1V205A1,1,0,0,0,642,204Z" style="fill: url(#linear-gradient-9)"/>
      <path d="M561,220H511a1,1,0,0,0-1,1v12a1,1,0,0,0,1,1h50a1,1,0,0,0,1-1V221A1,1,0,0,0,561,220Z" style="fill: url(#linear-gradient-10)"/>
      <path d="M588,204H538a1,1,0,0,0-1,1v12a1,1,0,0,0,1,1h50a1,1,0,0,0,1-1V205A1,1,0,0,0,588,204Z" style="fill: url(#linear-gradient-11)"/>
      <path d="M507,220H457a1,1,0,0,0-1,1v12a1,1,0,0,0,1,1h50a1,1,0,0,0,1-1V221A1,1,0,0,0,507,220Z" style="fill: url(#linear-gradient-12)"/>
      <path d="M534,204H484a1,1,0,0,0-1,1v12a1,1,0,0,0,1,1h50a1,1,0,0,0,1-1V205A1,1,0,0,0,534,204Z" style="fill: url(#linear-gradient-13)"/>
      <path d="M453,220H403a1,1,0,0,0-1,1v12a1,1,0,0,0,1,1h50a1,1,0,0,0,1-1V221A1,1,0,0,0,453,220Z" style="fill: url(#linear-gradient-14)"/>
      <path d="M480,204H430a1,1,0,0,0-1,1v12a1,1,0,0,0,1,1h50a1,1,0,0,0,1-1V205A1,1,0,0,0,480,204Z" style="fill: url(#linear-gradient-15)"/>
      <path d="M399,220H349a1,1,0,0,0-1,1v12a1,1,0,0,0,1,1h50a1,1,0,0,0,1-1V221A1,1,0,0,0,399,220Z" style="fill: url(#linear-gradient-16)"/>
      <path d="M426,204H376a1,1,0,0,0-1,1v12a1,1,0,0,0,1,1h50a1,1,0,0,0,1-1V205A1,1,0,0,0,426,204Z" style="fill: url(#linear-gradient-17)"/>
      <path d="M345,220H295a1,1,0,0,0-1,1v12a1,1,0,0,0,1,1h50a1,1,0,0,0,1-1V221A1,1,0,0,0,345,220Z" style="fill: url(#linear-gradient-18)"/>
      <path d="M372,204H322a1,1,0,0,0-1,1v12a1,1,0,0,0,1,1h50a1,1,0,0,0,1-1V205A1,1,0,0,0,372,204Z" style="fill: url(#linear-gradient-19)"/>
      <path d="M291,220H241a1,1,0,0,0-1,1v12a1,1,0,0,0,1,1h50a1,1,0,0,0,1-1V221A1,1,0,0,0,291,220Z" style="fill: url(#linear-gradient-20)"/>
      <path d="M318,204H268a1,1,0,0,0-1,1v12a1,1,0,0,0,1,1h50a1,1,0,0,0,1-1V205A1,1,0,0,0,318,204Z" style="fill: url(#linear-gradient-21)"/>
      <path d="M237,220H187a1,1,0,0,0-1,1v12a1,1,0,0,0,1,1h50a1,1,0,0,0,1-1V221A1,1,0,0,0,237,220Z" style="fill: url(#linear-gradient-22)"/>
      <path d="M264,204H214a1,1,0,0,0-1,1v12a1,1,0,0,0,1,1h50a1,1,0,0,0,1-1V205A1,1,0,0,0,264,204Z" style="fill: url(#linear-gradient-23)"/>
      <path d="M183,220H133a1,1,0,0,0-1,1v12a1,1,0,0,0,1,1h50a1,1,0,0,0,1-1V221A1,1,0,0,0,183,220Z" style="fill: url(#linear-gradient-24)"/>
      <path d="M210,204H160a1,1,0,0,0-1,1v12a1,1,0,0,0,1,1h50a1,1,0,0,0,1-1V205A1,1,0,0,0,210,204Z" style="fill: url(#linear-gradient-25)"/>
      <path d="M129,220H79a1,1,0,0,0-1,1v12a1,1,0,0,0,1,1h50a1,1,0,0,0,1-1V221A1,1,0,0,0,129,220Z" style="fill: url(#linear-gradient-26)"/>
      <path d="M156,204H106a1,1,0,0,0-1,1v12a1,1,0,0,0,1,1h50a1,1,0,0,0,1-1V205A1,1,0,0,0,156,204Z" style="fill: url(#linear-gradient-27)"/>
      <path d="M75,220H25a1,1,0,0,0-1,1v12a1,1,0,0,0,1,1H75a1,1,0,0,0,1-1V221A1,1,0,0,0,75,220Z" style="fill: url(#linear-gradient-28)"/>
      <path d="M102,204H52a1,1,0,0,0-1,1v12a1,1,0,0,0,1,1h50a1,1,0,0,0,1-1V205A1,1,0,0,0,102,204Z" style="fill: url(#linear-gradient-29)"/>
      <path d="M21,220H1a1,1,0,0,0-1,1v12a1,1,0,0,0,1,1H21a1,1,0,0,0,1-1V221A1,1,0,0,0,21,220Z" style="fill: url(#linear-gradient-30)"/>
      <path d="M48,204H1a1,1,0,0,0-1,1v12a1,1,0,0,0,1,1H48a1,1,0,0,0,1-1V205A1,1,0,0,0,48,204Z" style="fill: url(#linear-gradient-31)"/>
      <path d="M798,188H781a1,1,0,0,0-1,1v12a1,1,0,0,0,1,1h17a1,1,0,0,0,1-1V189A1,1,0,0,0,798,188Z" style="fill: url(#linear-gradient)"/>
      <path d="M777,188H727a1,1,0,0,0-1,1v12a1,1,0,0,0,1,1h50a1,1,0,0,0,1-1V189A1,1,0,0,0,777,188Z" style="fill: url(#linear-gradient-2)"/>
      <path d="M799,172H754a1,1,0,0,0-1,1v12a1,1,0,0,0,1,1h45a1,1,0,0,0,1-1V173A1,1,0,0,0,799,172Z" style="fill: url(#linear-gradient-3)"/>
      <path d="M723,188H673a1,1,0,0,0-1,1v12a1,1,0,0,0,1,1h50a1,1,0,0,0,1-1V189A1,1,0,0,0,723,188Z" style="fill: url(#linear-gradient-4)"/>
      <path d="M750,172H700a1,1,0,0,0-1,1v12a1,1,0,0,0,1,1h50a1,1,0,0,0,1-1V173A1,1,0,0,0,750,172Z" style="fill: url(#linear-gradient-5)"/>
      <path d="M669,188H619a1,1,0,0,0-1,1v12a1,1,0,0,0,1,1h50a1,1,0,0,0,1-1V189A1,1,0,0,0,669,188Z" style="fill: url(#linear-gradient-6)"/>
      <path d="M696,172H646a1,1,0,0,0-1,1v12a1,1,0,0,0,1,1h50a1,1,0,0,0,1-1V173A1,1,0,0,0,696,172Z" style="fill: url(#linear-gradient-7)"/>
      <path d="M615,188H565a1,1,0,0,0-1,1v12a1,1,0,0,0,1,1h50a1,1,0,0,0,1-1V189A1,1,0,0,0,615,188Z" style="fill: url(#linear-gradient-8)"/>
      <path d="M642,172H592a1,1,0,0,0-1,1v12a1,1,0,0,0,1,1h50a1,1,0,0,0,1-1V173A1,1,0,0,0,642,172Z" style="fill: url(#linear-gradient-9)"/>
      <path d="M561,188H511a1,1,0,0,0-1,1v12a1,1,0,0,0,1,1h50a1,1,0,0,0,1-1V189A1,1,0,0,0,561,188Z" style="fill: url(#linear-gradient-10)"/>
      <path d="M588,172H538a1,1,0,0,0-1,1v12a1,1,0,0,0,1,1h50a1,1,0,0,0,1-1V173A1,1,0,0,0,588,172Z" style="fill: url(#linear-gradient-11)"/>
      <path d="M507,188H457a1,1,0,0,0-1,1v12a1,1,0,0,0,1,1h50a1,1,0,0,0,1-1V189A1,1,0,0,0,507,188Z" style="fill: url(#linear-gradient-12)"/>
      <path d="M534,172H484a1,1,0,0,0-1,1v12a1,1,0,0,0,1,1h50a1,1,0,0,0,1-1V173A1,1,0,0,0,534,172Z" style="fill: url(#linear-gradient-13)"/>
      <path d="M453,188H403a1,1,0,0,0-1,1v12a1,1,0,0,0,1,1h50a1,1,0,0,0,1-1V189A1,1,0,0,0,453,188Z" style="fill: url(#linear-gradient-14)"/>
      <path d="M480,172H430a1,1,0,0,0-1,1v12a1,1,0,0,0,1,1h50a1,1,0,0,0,1-1V173A1,1,0,0,0,480,172Z" style="fill: url(#linear-gradient-15)"/>
      <path d="M399,188H349a1,1,0,0,0-1,1v12a1,1,0,0,0,1,1h50a1,1,0,0,0,1-1V189A1,1,0,0,0,399,188Z" style="fill: url(#linear-gradient-16)"/>
      <path d="M426,172H376a1,1,0,0,0-1,1v12a1,1,0,0,0,1,1h50a1,1,0,0,0,1-1V173A1,1,0,0,0,426,172Z" style="fill: url(#linear-gradient-17)"/>
      <path d="M345,188H295a1,1,0,0,0-1,1v12a1,1,0,0,0,1,1h50a1,1,0,0,0,1-1V189A1,1,0,0,0,345,188Z" style="fill: url(#linear-gradient-18)"/>
      <path d="M372,172H322a1,1,0,0,0-1,1v12a1,1,0,0,0,1,1h50a1,1,0,0,0,1-1V173A1,1,0,0,0,372,172Z" style="fill: url(#linear-gradient-19)"/>
      <path d="M291,188H241a1,1,0,0,0-1,1v12a1,1,0,0,0,1,1h50a1,1,0,0,0,1-1V189A1,1,0,0,0,291,188Z" style="fill: url(#linear-gradient-20)"/>
      <path d="M318,172H268a1,1,0,0,0-1,1v12a1,1,0,0,0,1,1h50a1,1,0,0,0,1-1V173A1,1,0,0,0,318,172Z" style="fill: url(#linear-gradient-21)"/>
      <path d="M237,188H187a1,1,0,0,0-1,1v12a1,1,0,0,0,1,1h50a1,1,0,0,0,1-1V189A1,1,0,0,0,237,188Z" style="fill: url(#linear-gradient-22)"/>
      <path d="M264,172H214a1,1,0,0,0-1,1v12a1,1,0,0,0,1,1h50a1,1,0,0,0,1-1V173A1,1,0,0,0,264,172Z" style="fill: url(#linear-gradient-23)"/>
      <path d="M183,188H133a1,1,0,0,0-1,1v12a1,1,0,0,0,1,1h50a1,1,0,0,0,1-1V189A1,1,0,0,0,183,188Z" style="fill: url(#linear-gradient-24)"/>
      <path d="M210,172H160a1,1,0,0,0-1,1v12a1,1,0,0,0,1,1h50a1,1,0,0,0,1-1V173A1,1,0,0,0,210,172Z" style="fill: url(#linear-gradient-25)"/>
      <path d="M129,188H79a1,1,0,0,0-1,1v12a1,1,0,0,0,1,1h50a1,1,0,0,0,1-1V189A1,1,0,0,0,129,188Z" style="fill: url(#linear-gradient-26)"/>
      <path d="M156,172H106a1,1,0,0,0-1,1v12a1,1,0,0,0,1,1h50a1,1,0,0,0,1-1V173A1,1,0,0,0,156,172Z" style="fill: url(#linear-gradient-27)"/>
      <path d="M75,188H25a1,1,0,0,0-1,1v12a1,1,0,0,0,1,1H75a1,1,0,0,0,1-1V189A1,1,0,0,0,75,188Z" style="fill: url(#linear-gradient-28)"/>
      <path d="M102,172H52a1,1,0,0,0-1,1v12a1,1,0,0,0,1,1h50a1,1,0,0,0,1-1V173A1,1,0,0,0,102,172Z" style="fill: url(#linear-gradient-29)"/>
      <path d="M21,188H1a1,1,0,0,0-1,1v12a1,1,0,0,0,1,1H21a1,1,0,0,0,1-1V189A1,1,0,0,0,21,188Z" style="fill: url(#linear-gradient-30)"/>
      <path d="M48,172H1a1,1,0,0,0-1,1v12a1,1,0,0,0,1,1H48a1,1,0,0,0,1-1V173A1,1,0,0,0,48,172Z" style="fill: url(#linear-gradient-31)"/>
      <path d="M798,156H781a1,1,0,0,0-1,1v12a1,1,0,0,0,1,1h17a1,1,0,0,0,1-1V157A1,1,0,0,0,798,156Z" style="fill: url(#linear-gradient)"/>
      <path d="M777,156H727a1,1,0,0,0-1,1v12a1,1,0,0,0,1,1h50a1,1,0,0,0,1-1V157A1,1,0,0,0,777,156Z" style="fill: url(#linear-gradient-2)"/>
      <path d="M799,140H754a1,1,0,0,0-1,1v12a1,1,0,0,0,1,1h45a1,1,0,0,0,1-1V141A1,1,0,0,0,799,140Z" style="fill: url(#linear-gradient-3)"/>
      <path d="M723,156H673a1,1,0,0,0-1,1v12a1,1,0,0,0,1,1h50a1,1,0,0,0,1-1V157A1,1,0,0,0,723,156Z" style="fill: url(#linear-gradient-4)"/>
      <path d="M750,140H700a1,1,0,0,0-1,1v12a1,1,0,0,0,1,1h50a1,1,0,0,0,1-1V141A1,1,0,0,0,750,140Z" style="fill: url(#linear-gradient-5)"/>
      <path d="M669,156H619a1,1,0,0,0-1,1v12a1,1,0,0,0,1,1h50a1,1,0,0,0,1-1V157A1,1,0,0,0,669,156Z" style="fill: url(#linear-gradient-6)"/>
      <path d="M696,140H646a1,1,0,0,0-1,1v12a1,1,0,0,0,1,1h50a1,1,0,0,0,1-1V141A1,1,0,0,0,696,140Z" style="fill: url(#linear-gradient-7)"/>
      <path d="M615,156H565a1,1,0,0,0-1,1v12a1,1,0,0,0,1,1h50a1,1,0,0,0,1-1V157A1,1,0,0,0,615,156Z" style="fill: url(#linear-gradient-8)"/>
      <path d="M642,140H592a1,1,0,0,0-1,1v12a1,1,0,0,0,1,1h50a1,1,0,0,0,1-1V141A1,1,0,0,0,642,140Z" style="fill: url(#linear-gradient-9)"/>
      <path d="M561,156H511a1,1,0,0,0-1,1v12a1,1,0,0,0,1,1h50a1,1,0,0,0,1-1V157A1,1,0,0,0,561,156Z" style="fill: url(#linear-gradient-10)"/>
      <path d="M588,140H538a1,1,0,0,0-1,1v12a1,1,0,0,0,1,1h50a1,1,0,0,0,1-1V141A1,1,0,0,0,588,140Z" style="fill: url(#linear-gradient-11)"/>
      <path d="M507,156H457a1,1,0,0,0-1,1v12a1,1,0,0,0,1,1h50a1,1,0,0,0,1-1V157A1,1,0,0,0,507,156Z" style="fill: url(#linear-gradient-12)"/>
      <path d="M534,140H484a1,1,0,0,0-1,1v12a1,1,0,0,0,1,1h50a1,1,0,0,0,1-1V141A1,1,0,0,0,534,140Z" style="fill: url(#linear-gradient-13)"/>
      <path d="M453,156H403a1,1,0,0,0-1,1v12a1,1,0,0,0,1,1h50a1,1,0,0,0,1-1V157A1,1,0,0,0,453,156Z" style="fill: url(#linear-gradient-14)"/>
      <path d="M480,140H430a1,1,0,0,0-1,1v12a1,1,0,0,0,1,1h50a1,1,0,0,0,1-1V141A1,1,0,0,0,480,140Z" style="fill: url(#linear-gradient-15)"/>
      <path d="M399,156H349a1,1,0,0,0-1,1v12a1,1,0,0,0,1,1h50a1,1,0,0,0,1-1V157A1,1,0,0,0,399,156Z" style="fill: url(#linear-gradient-16)"/>
      <path d="M426,140H376a1,1,0,0,0-1,1v12a1,1,0,0,0,1,1h50a1,1,0,0,0,1-1V141A1,1,0,0,0,426,140Z" style="fill: url(#linear-gradient-17)"/>
      <path d="M345,156H295a1,1,0,0,0-1,1v12a1,1,0,0,0,1,1h50a1,1,0,0,0,1-1V157A1,1,0,0,0,345,156Z" style="fill: url(#linear-gradient-18)"/>
      <path d="M372,140H322a1,1,0,0,0-1,1v12a1,1,0,0,0,1,1h50a1,1,0,0,0,1-1V141A1,1,0,0,0,372,140Z" style="fill: url(#linear-gradient-19)"/>
      <path d="M291,156H241a1,1,0,0,0-1,1v12a1,1,0,0,0,1,1h50a1,1,0,0,0,1-1V157A1,1,0,0,0,291,156Z" style="fill: url(#linear-gradient-20)"/>
      <path d="M318,140H268a1,1,0,0,0-1,1v12a1,1,0,0,0,1,1h50a1,1,0,0,0,1-1V141A1,1,0,0,0,318,140Z" style="fill: url(#linear-gradient-21)"/>
      <path d="M237,156H187a1,1,0,0,0-1,1v12a1,1,0,0,0,1,1h50a1,1,0,0,0,1-1V157A1,1,0,0,0,237,156Z" style="fill: url(#linear-gradient-22)"/>
      <path d="M264,140H214a1,1,0,0,0-1,1v12a1,1,0,0,0,1,1h50a1,1,0,0,0,1-1V141A1,1,0,0,0,264,140Z" style="fill: url(#linear-gradient-23)"/>
      <path d="M183,156H133a1,1,0,0,0-1,1v12a1,1,0,0,0,1,1h50a1,1,0,0,0,1-1V157A1,1,0,0,0,183,156Z" style="fill: url(#linear-gradient-24)"/>
      <path d="M210,140H160a1,1,0,0,0-1,1v12a1,1,0,0,0,1,1h50a1,1,0,0,0,1-1V141A1,1,0,0,0,210,140Z" style="fill: url(#linear-gradient-25)"/>
      <path d="M129,156H79a1,1,0,0,0-1,1v12a1,1,0,0,0,1,1h50a1,1,0,0,0,1-1V157A1,1,0,0,0,129,156Z" style="fill: url(#linear-gradient-26)"/>
      <path d="M156,140H106a1,1,0,0,0-1,1v12a1,1,0,0,0,1,1h50a1,1,0,0,0,1-1V141A1,1,0,0,0,156,140Z" style="fill: url(#linear-gradient-27)"/>
      <path d="M75,156H25a1,1,0,0,0-1,1v12a1,1,0,0,0,1,1H75a1,1,0,0,0,1-1V157A1,1,0,0,0,75,156Z" style="fill: url(#linear-gradient-28)"/>
      <path d="M102,140H52a1,1,0,0,0-1,1v12a1,1,0,0,0,1,1h50a1,1,0,0,0,1-1V141A1,1,0,0,0,102,140Z" style="fill: url(#linear-gradient-29)"/>
      <path d="M21,156H1a1,1,0,0,0-1,1v12a1,1,0,0,0,1,1H21a1,1,0,0,0,1-1V157A1,1,0,0,0,21,156Z" style="fill: url(#linear-gradient-30)"/>
      <path d="M48,140H1a1,1,0,0,0-1,1v12a1,1,0,0,0,1,1H48a1,1,0,0,0,1-1V141A1,1,0,0,0,48,140Z" style="fill: url(#linear-gradient-31)"/>
      <path d="M798,124H781a1,1,0,0,0-1,1v12a1,1,0,0,0,1,1h17a1,1,0,0,0,1-1V125A1,1,0,0,0,798,124Z" style="fill: url(#linear-gradient)"/>
      <path d="M777,124H727a1,1,0,0,0-1,1v12a1,1,0,0,0,1,1h50a1,1,0,0,0,1-1V125A1,1,0,0,0,777,124Z" style="fill: url(#linear-gradient-2)"/>
      <path d="M799,108H754a1,1,0,0,0-1,1v12a1,1,0,0,0,1,1h45a1,1,0,0,0,1-1V109A1,1,0,0,0,799,108Z" style="fill: url(#linear-gradient-3)"/>
      <path d="M723,124H673a1,1,0,0,0-1,1v12a1,1,0,0,0,1,1h50a1,1,0,0,0,1-1V125A1,1,0,0,0,723,124Z" style="fill: url(#linear-gradient-4)"/>
      <path d="M750,108H700a1,1,0,0,0-1,1v12a1,1,0,0,0,1,1h50a1,1,0,0,0,1-1V109A1,1,0,0,0,750,108Z" style="fill: url(#linear-gradient-5)"/>
      <path d="M669,124H619a1,1,0,0,0-1,1v12a1,1,0,0,0,1,1h50a1,1,0,0,0,1-1V125A1,1,0,0,0,669,124Z" style="fill: url(#linear-gradient-6)"/>
      <path d="M696,108H646a1,1,0,0,0-1,1v12a1,1,0,0,0,1,1h50a1,1,0,0,0,1-1V109A1,1,0,0,0,696,108Z" style="fill: url(#linear-gradient-7)"/>
      <path d="M615,124H565a1,1,0,0,0-1,1v12a1,1,0,0,0,1,1h50a1,1,0,0,0,1-1V125A1,1,0,0,0,615,124Z" style="fill: url(#linear-gradient-8)"/>
      <path d="M642,108H592a1,1,0,0,0-1,1v12a1,1,0,0,0,1,1h50a1,1,0,0,0,1-1V109A1,1,0,0,0,642,108Z" style="fill: url(#linear-gradient-9)"/>
      <path d="M561,124H511a1,1,0,0,0-1,1v12a1,1,0,0,0,1,1h50a1,1,0,0,0,1-1V125A1,1,0,0,0,561,124Z" style="fill: url(#linear-gradient-10)"/>
      <path d="M588,108H538a1,1,0,0,0-1,1v12a1,1,0,0,0,1,1h50a1,1,0,0,0,1-1V109A1,1,0,0,0,588,108Z" style="fill: url(#linear-gradient-11)"/>
      <path d="M507,124H457a1,1,0,0,0-1,1v12a1,1,0,0,0,1,1h50a1,1,0,0,0,1-1V125A1,1,0,0,0,507,124Z" style="fill: url(#linear-gradient-12)"/>
      <path d="M534,108H484a1,1,0,0,0-1,1v12a1,1,0,0,0,1,1h50a1,1,0,0,0,1-1V109A1,1,0,0,0,534,108Z" style="fill: url(#linear-gradient-13)"/>
      <path d="M453,124H403a1,1,0,0,0-1,1v12a1,1,0,0,0,1,1h50a1,1,0,0,0,1-1V125A1,1,0,0,0,453,124Z" style="fill: url(#linear-gradient-14)"/>
      <path d="M480,108H430a1,1,0,0,0-1,1v12a1,1,0,0,0,1,1h50a1,1,0,0,0,1-1V109A1,1,0,0,0,480,108Z" style="fill: url(#linear-gradient-15)"/>
      <path d="M399,124H349a1,1,0,0,0-1,1v12a1,1,0,0,0,1,1h50a1,1,0,0,0,1-1V125A1,1,0,0,0,399,124Z" style="fill: url(#linear-gradient-16)"/>
      <path d="M426,108H376a1,1,0,0,0-1,1v12a1,1,0,0,0,1,1h50a1,1,0,0,0,1-1V109A1,1,0,0,0,426,108Z" style="fill: url(#linear-gradient-17)"/>
      <path d="M345,124H295a1,1,0,0,0-1,1v12a1,1,0,0,0,1,1h50a1,1,0,0,0,1-1V125A1,1,0,0,0,345,124Z" style="fill: url(#linear-gradient-18)"/>
      <path d="M372,108H322a1,1,0,0,0-1,1v12a1,1,0,0,0,1,1h50a1,1,0,0,0,1-1V109A1,1,0,0,0,372,108Z" style="fill: url(#linear-gradient-19)"/>
      <path d="M291,124H241a1,1,0,0,0-1,1v12a1,1,0,0,0,1,1h50a1,1,0,0,0,1-1V125A1,1,0,0,0,291,124Z" style="fill: url(#linear-gradient-20)"/>
      <path d="M318,108H268a1,1,0,0,0-1,1v12a1,1,0,0,0,1,1h50a1,1,0,0,0,1-1V109A1,1,0,0,0,318,108Z" style="fill: url(#linear-gradient-21)"/>
      <path d="M237,124H187a1,1,0,0,0-1,1v12a1,1,0,0,0,1,1h50a1,1,0,0,0,1-1V125A1,1,0,0,0,237,124Z" style="fill: url(#linear-gradient-22)"/>
      <path d="M264,108H214a1,1,0,0,0-1,1v12a1,1,0,0,0,1,1h50a1,1,0,0,0,1-1V109A1,1,0,0,0,264,108Z" style="fill: url(#linear-gradient-23)"/>
      <path d="M183,124H133a1,1,0,0,0-1,1v12a1,1,0,0,0,1,1h50a1,1,0,0,0,1-1V125A1,1,0,0,0,183,124Z" style="fill: url(#linear-gradient-24)"/>
      <path d="M210,108H160a1,1,0,0,0-1,1v12a1,1,0,0,0,1,1h50a1,1,0,0,0,1-1V109A1,1,0,0,0,210,108Z" style="fill: url(#linear-gradient-25)"/>
      <path d="M129,124H79a1,1,0,0,0-1,1v12a1,1,0,0,0,1,1h50a1,1,0,0,0,1-1V125A1,1,0,0,0,129,124Z" style="fill: url(#linear-gradient-26)"/>
      <path d="M156,108H106a1,1,0,0,0-1,1v12a1,1,0,0,0,1,1h50a1,1,0,0,0,1-1V109A1,1,0,0,0,156,108Z" style="fill: url(#linear-gradient-27)"/>
      <path d="M75,124H25a1,1,0,0,0-1,1v12a1,1,0,0,0,1,1H75a1,1,0,0,0,1-1V125A1,1,0,0,0,75,124Z" style="fill: url(#linear-gradient-28)"/>
      <path d="M102,108H52a1,1,0,0,0-1,1v12a1,1,0,0,0,1,1h50a1,1,0,0,0,1-1V109A1,1,0,0,0,102,108Z" style="fill: url(#linear-gradient-29)"/>
      <path d="M21,124H1a1,1,0,0,0-1,1v12a1,1,0,0,0,1,1H21a1,1,0,0,0,1-1V125A1,1,0,0,0,21,124Z" style="fill: url(#linear-gradient-30)"/>
      <path d="M48,108H1a1,1,0,0,0-1,1v12a1,1,0,0,0,1,1H48a1,1,0,0,0,1-1V109A1,1,0,0,0,48,108Z" style="fill: url(#linear-gradient-31)"/>
      <path d="M798,92H781a1,1,0,0,0-1,1v12a1,1,0,0,0,1,1h17a1,1,0,0,0,1-1V93A1,1,0,0,0,798,92Z" style="fill: url(#linear-gradient)"/>
      <path d="M777,92H727a1,1,0,0,0-1,1v12a1,1,0,0,0,1,1h50a1,1,0,0,0,1-1V93A1,1,0,0,0,777,92Z" style="fill: url(#linear-gradient-2)"/>
      <path d="M799,76H754a1,1,0,0,0-1,1V89a1,1,0,0,0,1,1h45a1,1,0,0,0,1-1V77A1,1,0,0,0,799,76Z" style="fill: url(#linear-gradient-3)"/>
      <path d="M723,92H673a1,1,0,0,0-1,1v12a1,1,0,0,0,1,1h50a1,1,0,0,0,1-1V93A1,1,0,0,0,723,92Z" style="fill: url(#linear-gradient-4)"/>
      <path d="M750,76H700a1,1,0,0,0-1,1V89a1,1,0,0,0,1,1h50a1,1,0,0,0,1-1V77A1,1,0,0,0,750,76Z" style="fill: url(#linear-gradient-5)"/>
      <path d="M669,92H619a1,1,0,0,0-1,1v12a1,1,0,0,0,1,1h50a1,1,0,0,0,1-1V93A1,1,0,0,0,669,92Z" style="fill: url(#linear-gradient-6)"/>
      <path d="M696,76H646a1,1,0,0,0-1,1V89a1,1,0,0,0,1,1h50a1,1,0,0,0,1-1V77A1,1,0,0,0,696,76Z" style="fill: url(#linear-gradient-7)"/>
      <path d="M615,92H565a1,1,0,0,0-1,1v12a1,1,0,0,0,1,1h50a1,1,0,0,0,1-1V93A1,1,0,0,0,615,92Z" style="fill: url(#linear-gradient-8)"/>
      <path d="M642,76H592a1,1,0,0,0-1,1V89a1,1,0,0,0,1,1h50a1,1,0,0,0,1-1V77A1,1,0,0,0,642,76Z" style="fill: url(#linear-gradient-9)"/>
      <path d="M561,92H511a1,1,0,0,0-1,1v12a1,1,0,0,0,1,1h50a1,1,0,0,0,1-1V93A1,1,0,0,0,561,92Z" style="fill: url(#linear-gradient-10)"/>
      <path d="M588,76H538a1,1,0,0,0-1,1V89a1,1,0,0,0,1,1h50a1,1,0,0,0,1-1V77A1,1,0,0,0,588,76Z" style="fill: url(#linear-gradient-11)"/>
      <path d="M507,92H457a1,1,0,0,0-1,1v12a1,1,0,0,0,1,1h50a1,1,0,0,0,1-1V93A1,1,0,0,0,507,92Z" style="fill: url(#linear-gradient-12)"/>
      <path d="M534,76H484a1,1,0,0,0-1,1V89a1,1,0,0,0,1,1h50a1,1,0,0,0,1-1V77A1,1,0,0,0,534,76Z" style="fill: url(#linear-gradient-13)"/>
      <path d="M453,92H403a1,1,0,0,0-1,1v12a1,1,0,0,0,1,1h50a1,1,0,0,0,1-1V93A1,1,0,0,0,453,92Z" style="fill: url(#linear-gradient-14)"/>
      <path d="M480,76H430a1,1,0,0,0-1,1V89a1,1,0,0,0,1,1h50a1,1,0,0,0,1-1V77A1,1,0,0,0,480,76Z" style="fill: url(#linear-gradient-15)"/>
      <path d="M399,92H349a1,1,0,0,0-1,1v12a1,1,0,0,0,1,1h50a1,1,0,0,0,1-1V93A1,1,0,0,0,399,92Z" style="fill: url(#linear-gradient-16)"/>
      <path d="M426,76H376a1,1,0,0,0-1,1V89a1,1,0,0,0,1,1h50a1,1,0,0,0,1-1V77A1,1,0,0,0,426,76Z" style="fill: url(#linear-gradient-17)"/>
      <path d="M345,92H295a1,1,0,0,0-1,1v12a1,1,0,0,0,1,1h50a1,1,0,0,0,1-1V93A1,1,0,0,0,345,92Z" style="fill: url(#linear-gradient-18)"/>
      <path d="M372,76H322a1,1,0,0,0-1,1V89a1,1,0,0,0,1,1h50a1,1,0,0,0,1-1V77A1,1,0,0,0,372,76Z" style="fill: url(#linear-gradient-19)"/>
      <path d="M291,92H241a1,1,0,0,0-1,1v12a1,1,0,0,0,1,1h50a1,1,0,0,0,1-1V93A1,1,0,0,0,291,92Z" style="fill: url(#linear-gradient-20)"/>
      <path d="M318,76H268a1,1,0,0,0-1,1V89a1,1,0,0,0,1,1h50a1,1,0,0,0,1-1V77A1,1,0,0,0,318,76Z" style="fill: url(#linear-gradient-21)"/>
      <path d="M237,92H187a1,1,0,0,0-1,1v12a1,1,0,0,0,1,1h50a1,1,0,0,0,1-1V93A1,1,0,0,0,237,92Z" style="fill: url(#linear-gradient-22)"/>
      <path d="M264,76H214a1,1,0,0,0-1,1V89a1,1,0,0,0,1,1h50a1,1,0,0,0,1-1V77A1,1,0,0,0,264,76Z" style="fill: url(#linear-gradient-23)"/>
      <path d="M183,92H133a1,1,0,0,0-1,1v12a1,1,0,0,0,1,1h50a1,1,0,0,0,1-1V93A1,1,0,0,0,183,92Z" style="fill: url(#linear-gradient-24)"/>
      <path d="M210,76H160a1,1,0,0,0-1,1V89a1,1,0,0,0,1,1h50a1,1,0,0,0,1-1V77A1,1,0,0,0,210,76Z" style="fill: url(#linear-gradient-25)"/>
      <path d="M129,92H79a1,1,0,0,0-1,1v12a1,1,0,0,0,1,1h50a1,1,0,0,0,1-1V93A1,1,0,0,0,129,92Z" style="fill: url(#linear-gradient-26)"/>
      <path d="M156,76H106a1,1,0,0,0-1,1V89a1,1,0,0,0,1,1h50a1,1,0,0,0,1-1V77A1,1,0,0,0,156,76Z" style="fill: url(#linear-gradient-27)"/>
      <path d="M75,92H25a1,1,0,0,0-1,1v12a1,1,0,0,0,1,1H75a1,1,0,0,0,1-1V93A1,1,0,0,0,75,92Z" style="fill: url(#linear-gradient-28)"/>
      <path d="M102,76H52a1,1,0,0,0-1,1V89a1,1,0,0,0,1,1h50a1,1,0,0,0,1-1V77A1,1,0,0,0,102,76Z" style="fill: url(#linear-gradient-29)"/>
      <path d="M21,92H1a1,1,0,0,0-1,1v12a1,1,0,0,0,1,1H21a1,1,0,0,0,1-1V93A1,1,0,0,0,21,92Z" style="fill: url(#linear-gradient-30)"/>
      <path d="M48,76H1a1,1,0,0,0-1,1V89a1,1,0,0,0,1,1H48a1,1,0,0,0,1-1V77A1,1,0,0,0,48,76Z" style="fill: url(#linear-gradient-31)"/>
      <path d="M798,60H781a1,1,0,0,0-1,1V73a1,1,0,0,0,1,1h17a1,1,0,0,0,1-1V61A1,1,0,0,0,798,60Z" style="fill: url(#linear-gradient)"/>
      <path d="M777,60H727a1,1,0,0,0-1,1V73a1,1,0,0,0,1,1h50a1,1,0,0,0,1-1V61A1,1,0,0,0,777,60Z" style="fill: url(#linear-gradient-2)"/>
      <path d="M723,60H673a1,1,0,0,0-1,1V73a1,1,0,0,0,1,1h50a1,1,0,0,0,1-1V61A1,1,0,0,0,723,60Z" style="fill: url(#linear-gradient-4)"/>
      <path d="M669,60H619a1,1,0,0,0-1,1V73a1,1,0,0,0,1,1h50a1,1,0,0,0,1-1V61A1,1,0,0,0,669,60Z" style="fill: url(#linear-gradient-6)"/>
      <path d="M615,60H565a1,1,0,0,0-1,1V73a1,1,0,0,0,1,1h50a1,1,0,0,0,1-1V61A1,1,0,0,0,615,60Z" style="fill: url(#linear-gradient-8)"/>
      <path d="M561,60H511a1,1,0,0,0-1,1V73a1,1,0,0,0,1,1h50a1,1,0,0,0,1-1V61A1,1,0,0,0,561,60Z" style="fill: url(#linear-gradient-10)"/>
      <path d="M507,60H457a1,1,0,0,0-1,1V73a1,1,0,0,0,1,1h50a1,1,0,0,0,1-1V61A1,1,0,0,0,507,60Z" style="fill: url(#linear-gradient-12)"/>
      <path d="M453,60H403a1,1,0,0,0-1,1V73a1,1,0,0,0,1,1h50a1,1,0,0,0,1-1V61A1,1,0,0,0,453,60Z" style="fill: url(#linear-gradient-14)"/>
      <path d="M399,60H349a1,1,0,0,0-1,1V73a1,1,0,0,0,1,1h50a1,1,0,0,0,1-1V61A1,1,0,0,0,399,60Z" style="fill: url(#linear-gradient-16)"/>
      <path d="M345,60H295a1,1,0,0,0-1,1V73a1,1,0,0,0,1,1h50a1,1,0,0,0,1-1V61A1,1,0,0,0,345,60Z" style="fill: url(#linear-gradient-18)"/>
      <path d="M291,60H241a1,1,0,0,0-1,1V73a1,1,0,0,0,1,1h50a1,1,0,0,0,1-1V61A1,1,0,0,0,291,60Z" style="fill: url(#linear-gradient-20)"/>
      <path d="M237,60H187a1,1,0,0,0-1,1V73a1,1,0,0,0,1,1h50a1,1,0,0,0,1-1V61A1,1,0,0,0,237,60Z" style="fill: url(#linear-gradient-22)"/>
      <path d="M183,60H133a1,1,0,0,0-1,1V73a1,1,0,0,0,1,1h50a1,1,0,0,0,1-1V61A1,1,0,0,0,183,60Z" style="fill: url(#linear-gradient-24)"/>
      <path d="M129,60H79a1,1,0,0,0-1,1V73a1,1,0,0,0,1,1h50a1,1,0,0,0,1-1V61A1,1,0,0,0,129,60Z" style="fill: url(#linear-gradient-26)"/>
      <path d="M75,60H25a1,1,0,0,0-1,1V73a1,1,0,0,0,1,1H75a1,1,0,0,0,1-1V61A1,1,0,0,0,75,60Z" style="fill: url(#linear-gradient-28)"/>
      <path d="M21,60H1a1,1,0,0,0-1,1V73a1,1,0,0,0,1,1H21a1,1,0,0,0,1-1V61A1,1,0,0,0,21,60Z" style="fill: url(#linear-gradient-30)"/>
    </g>
    <rect y="39" width="800" height="448" style="fill: url(#radial-gradient)"/>
  </g>
  <g>
    <g>
      <path d="M523.44,351.56,541.29,443H258.72l17.84-91.44A147,147,0,0,1,252,270c0-81.61,66.39-148,148-148s148,66.39,148,148A147,147,0,0,1,523.44,351.56Z" style="fill: #fff"/>
      <path d="M479.61,375.48l8.69,42.6L486,418v10H476V418H466a44.7,44.7,0,0,1-45-44.4h0V373c0-19.88,12.44-37.21,30.34-43.33a12.56,12.56,0,0,1-.16-2.45,35,35,0,0,1,34.88-35,34.58,34.58,0,0,1,11,1.79,99.93,99.93,0,0,1-21.6,41.54l-3.25,3.72Z" style="fill: url(#linear-gradient-389)"/>
      <path d="M421,373c0-19.88,12.44-37.21,30.34-43.33a12.56,12.56,0,0,1-.16-2.45A34.88,34.88,0,0,1,456,309.58a35.27,35.27,0,0,0-32.83-22.41h0a1.43,1.43,0,0,1-1.44-1.42h0v-.18A32.79,32.79,0,0,0,422,282c0-15.82-12.93-28-29-28-14.42,0-26,11.61-27,26-.05.81,0,2.21,0,3,.11,6.7-4.52,12.43-10.69,15C339.13,304.89,329,321,329,340c0,21.26,17,41,39,41h17v47h10V389a29.5,29.5,0,0,0,20,8,29.12,29.12,0,0,0,11.13-2.54l.13-.08A45.51,45.51,0,0,1,421,373Z" style="fill: url(#linear-gradient-390)"/>
      <path d="M329,340c0-19,10.13-35.11,26.31-42,6.17-2.61,10.8-8.34,10.69-15,0-.79-.05-2.19,0-3a30,30,0,0,1,.37-3h0a17.12,17.12,0,0,1-2.37-8c0-3.4,1-7,1-13.86a47.42,47.42,0,0,0-43.46-47.06,99.77,99.77,0,0,0,3,127.45l3.25,3.72-3.45,16.91-4.63,22.66H340.4a53.28,53.28,0,0,0,12-1.36C338.45,370.85,329,355.85,329,340Z" style="fill: url(#linear-gradient-391)"/>
      <path d="M493.38,443H306.61l17.73-86.84a29.86,29.86,0,0,1,22,36.06l-.06.23C351.68,385,359,380,370,380a33.49,33.49,0,0,1,7.05.94A29.75,29.75,0,0,1,405,361a30.09,30.09,0,0,1,29.63,25.39A29.22,29.22,0,0,1,449,383a29.61,29.61,0,0,1,17.1,5,30,30,0,0,1,13.51-12.54Z" style="fill: #fff"/>
      <path d="M472.21,339.25l3.25-3.72A99.78,99.78,0,0,0,488.24,223h0l-1.43.06A36,36,0,0,0,453.1,260.2a12.5,12.5,0,0,1-8.72,12.18,44,44,0,0,0-30.3,44.07A44.84,44.84,0,0,0,429,347h44.8Z" style="fill: url(#linear-gradient-392)"/>
      <path d="M491.5,428h-183l15.77-77.16A100.46,100.46,0,0,0,344.21,373a104.28,104.28,0,0,1-19.6-23.86l2-9.73-2.81-3.22A101.74,101.74,0,0,1,313,321.27a.29.29,0,0,0,0-.09,87,87,0,0,1-.67-39.19c5.32-24.57,21.26-45.16,44.5-53.79A51.77,51.77,0,0,1,390,226.87c-21.92-1.33-41.84,8.63-55.13,27.23C321,274,319,295.94,324.25,317.86c5.31,21.25,17.27,37.19,35.2,49.81A107.76,107.76,0,0,0,390,382.28a98.7,98.7,0,0,0,23.45,3.17h0c-33.58-2.45-65.67-21.66-79.86-53-12.62-27.88-7.31-67.06,21.25-83-26.57,23.91-25.9,65.75-3.32,92.32C364.8,357,381.35,367,401.35,370.32A96.37,96.37,0,0,0,476,352.09ZM309.68,281.35c3.32-20,13.32-36.55,28.55-49.83,26.57-22.58,68.41-23.25,92.32,3.32-15.94-28.56-55.12-33.87-83-21.25-24,10.85-40.84,32.19-48.54,56.64a100.91,100.91,0,0,0,11,45.5A97.62,97.62,0,0,1,309.68,281.35Zm52.46-77.1C384.06,199,406,201,425.9,214.91c18.6,13.29,28.56,33.21,27.23,55.13a51.77,51.77,0,0,0-1.33-33.21c-8.63-23.24-29.22-39.18-53.79-44.5a87,87,0,0,0-39.19.67,104.2,104.2,0,0,0-45.12,24.46,100.89,100.89,0,0,0-14.61,48.26,107.83,107.83,0,0,1,13.24-26.27C325,221.52,340.89,209.56,362.14,204.25ZM466.28,193.7a101,101,0,0,0-142.49,9.93,101.9,101.9,0,0,0-9.15,12.31,96.69,96.69,0,0,1,84-26.26c20,3.32,36.55,13.32,49.83,28.55,22.58,26.57,23.25,68.41-3.32,92.32,28.56-15.94,33.87-55.12,21.25-83-14.19-31.34-46.28-50.55-79.86-53-4.15-.14-8.3-.14-12.45-.14a99.46,99.46,0,0,1,12.45.14A98.7,98.7,0,0,1,410,177.72a107.76,107.76,0,0,1,30.55,14.61c17.93,12.62,29.89,28.56,35.2,49.81C481,264.06,479,286,465.09,305.9c-13.29,18.6-33.21,28.56-55.13,27.23a51.77,51.77,0,0,0,33.21-1.33c23.24-8.63,39.18-29.22,44.5-53.79a87,87,0,0,0-.67-39.19A104.2,104.2,0,0,0,455.79,187c26.56,21.92,40.51,55.79,34.53,91.65-3.32,20-13.32,36.55-28.55,49.83-26.57,22.58-68.41,23.25-92.32-3.32,15.94,28.56,55.12,33.87,83,21.25,18.66-8.45,33-23.24,42.1-40.92A101,101,0,0,0,466.28,193.7ZM486.2,322.56c-12.38,16.81-27.9,28.08-48.34,33.19C415.94,361,394,359,374.1,345.09c-18.6-13.29-28.56-33.21-27.23-55.13a51.77,51.77,0,0,0,1.33,33.21c8.63,23.24,29.22,39.18,53.79,44.5a87,87,0,0,0,39.19-.67,104.11,104.11,0,0,0,34.6-15.93l-2.38-11.66,2.81-3.22A101,101,0,0,0,486.2,322.56Z" style="fill: #fff"/>
    </g>
    <g>
      <g>
        <path d="M326.6,339.41,308.5,428H321l18.54-92-6.69-7.7a89,89,0,1,1,134.3,0l-6.69,7.7,18.61,92H491.5l-18.1-88.59,2.81-3.22a101,101,0,1,0-152.42,0Z" style="fill: #e2e8ea"/>
        <rect x="231" y="415" width="67" height="9" style="fill: #ccd5d9"/>
        <rect x="498" y="415" width="67" height="9" style="fill: #ccd5d9"/>
        <polygon points="185.71 438 193 438 193 445 173 445 185.71 438" style="fill: #c0cbd1"/>
        <polygon points="167 452 153 460 173 460 173 452 167 452" style="fill: #a6b6be"/>
        <polygon points="193 430 193 445 173 445 173 460 153 460 153 475 261 475 293 430 193 430" style="fill: #859ba6"/>
        <path d="M548,270c0-81.61-66.39-148-148-148S252,188.39,252,270a147,147,0,0,0,24.56,81.56L262.43,424h8.11l9.91-9,13.11-67-1.94-2.78a132,132,0,1,1,216.76,0L506.44,348l13.1,67,9.92,9h8.15l-14.17-72.44A147,147,0,0,0,548,270Z" style="fill: #b0bec5"/>
        <polygon points="607 430 607 445 627 445 627 460 647 460 647 475 539 475 507 430 607 430" style="fill: #859ba6"/>
        <polygon points="614.29 438 607 438 607 445 627 445 614.29 438" style="fill: #c0cbd1"/>
        <polygon points="633 452 647 460 627 460 627 452 633 452" style="fill: #a6b6be"/>
        <polygon points="490 443 310 443 267 508 533 508 490 443" style="fill: #d4dcdf"/>
        <polygon points="479 428 321 428 310 443 490 443 479 428" style="fill: #f0f2f4"/>
        <polygon points="193 430 221 415 245 415 245 424 310.5 424 305.23 430 193 430" style="fill: #ccd5d9"/>
        <polygon points="607 430 579 415 554 415 554 424 489.5 424 494.77 430 607 430" style="fill: #ccd5d9"/>
        <path d="M242.07,424h28.47l14.51-74.17A139.88,139.88,0,0,1,260,270c0-77.2,62.8-140,140-140s140,62.8,140,140a139.85,139.85,0,0,1-25,79.83L529.46,424h28.47l-16.51-69.07A163.92,163.92,0,0,0,565,270c0-91-74-165-165-165S235,179,235,270a163.92,163.92,0,0,0,23.58,84.93Z" style="fill: #90a4ae"/>
        <rect x="241" y="488" width="26" height="20" style="fill: #859ba6"/>
        <rect x="533" y="488" width="26" height="20" style="fill: #859ba6"/>
        <polygon points="310.5 424 305.23 430 267 488 267 508 310 443 321 428 310.5 424" style="fill: #e2e8ea"/>
        <polygon points="489.5 424 494.77 430 533 488 533 508 490 443 479 428 489.5 424" style="fill: #e2e8ea"/>
        <polygon points="241 488 267 488 305.23 430 283.53 430 241 488" style="fill: #a6b6be"/>
        <polygon points="516.47 430 494.77 430 533 488 559 488 516.47 430" style="fill: #a6b6be"/>
        <path d="M290.08,424h20.41l17.3-84.75-3.25-3.72a100,100,0,1,1,150.92,0l-3.25,3.72L489.51,424h20.41l-16.16-79.2a120,120,0,1,0-187.52,0Z" style="fill: #a6b6be"/>
      </g>
      <g>
        <path d="M396.37,141.73,373.46,96.15a4.22,4.22,0,0,1,1.79-5.68,4.36,4.36,0,0,1,1.84-.47h45.82a4.21,4.21,0,0,1,4.1,4.31,4.09,4.09,0,0,1-.47,1.84l-22.91,45.58a4,4,0,0,1-7.26,0Z" style="fill: #cfd8dc"/>
        <path d="M419.9,96,400,135.59,380.1,96h39.8" style="fill: #90a4ae"/>
        <path d="M388.21,101,400,124.45,411.79,101Z" style="fill: #fbc02d"/>
      </g>
      <g>
        <path d="M509.27,202.72l28-42.63a4.21,4.21,0,0,1,5.81-1.28,4.09,4.09,0,0,1,1.33,1.35l22.91,39.68a4.21,4.21,0,0,1-1.7,5.71h0a4.27,4.27,0,0,1-1.81.5l-50.93,3a4,4,0,0,1-3.61-6.33Z" style="fill: #cfd8dc"/>
        <path d="M560.64,200.23l-44.23,2.56,24.33-37,19.9,34.46" style="fill: #90a4ae"/>
        <path d="M540.47,175.29l-14.42,21.94,26.2-1.52Z" style="fill: #fbc02d"/>
      </g>
      <g>
        <path d="M287.1,209l-50.93-3a4.2,4.2,0,0,1-4-4.4,4.27,4.27,0,0,1,.5-1.81l22.91-39.68a4.22,4.22,0,0,1,5.79-1.4,4.39,4.39,0,0,1,1.35,1.33l28,42.63A4,4,0,0,1,287.1,209Z" style="fill: #cfd8dc"/>
        <path d="M259.26,165.77l24.33,37-44.23-2.56,19.9-34.46" style="fill: #90a4ae"/>
        <path d="M247.75,195.71l26.2,1.52-14.42-21.94Z" style="fill: #fbc02d"/>
      </g>
    </g>
  </g>
  <g>
    <path d="M351,266.25c0-.18-.22-.25-.47-.25a1.27,1.27,0,0,0-1.21.76c-.17.34-.14.49-.38,1.12a3.93,3.93,0,0,1-1,1.45,10.44,10.44,0,0,1-1.33-2.7,16.38,16.38,0,0,1-.63-3.25c-.08-1.34-.49-2.35-1.12-2.38-1.22-.05-3.14,1.11-4.35,2.76a3.08,3.08,0,0,0-.53,1.86,22.79,22.79,0,0,0,1.47,6.51c.78,2.37,2.53,3.5,2.53,5.12V279a3.3,3.3,0,0,0,3.24.88,3.37,3.37,0,0,0,2.39-2.88,17,17,0,0,1-.63-3,2.43,2.43,0,0,1,.33-1.17,6.26,6.26,0,0,0,1.22-2.79c.06-.45,0-1.33.09-1.79C350.81,267.15,351,266.53,351,266.25Z" style="fill: #cc9281"/>
    <path d="M402,376c-.27-3.19-.12-28.37-6.54-50.65l-35.46.53c-4,7.5-5,17.12-5,26.12s1,25,1,25-5,6.12-6,13.12c-1.14,8-3,22.87-3,22.87s1,3,5,3c3,0,3.44-1,3.44-1l13.94-33.69S376,353.82,376,353c4,10,12,22,12,22v3c0,5,.84,17.77,7,38,0,0,0,1,3,1,5,0,6-3,6-3S402.27,379.19,402,376Z" style="fill: #1565c0"/>
    <path d="M344,279c.11,3.65-.65,21.34,3.13,26,.61.76,1.36.63,2.25.63,4,0,2.87-13.38,2.87-13.38A87.64,87.64,0,0,0,349.63,277a5.74,5.74,0,0,1-2.13,1.37A10.21,10.21,0,0,1,344,279Z" style="fill: #369ced"/>
    <path d="M386.13,268.75A6.42,6.42,0,0,1,385,265H373a9.27,9.27,0,0,1-2,3.38c.83,2.07,3.93,3.59,7.38,3.62A10,10,0,0,0,386.13,268.75Z" style="fill: #42a5f5"/>
    <path d="M364,271.89s-6.78,2.86-12.12,13.11c-5,9.53-5.88,12.75-5.88,16,0,4.27,2.09,5,3.26,5,2.74,0,11.9-9.08,12.74-15C362.51,287.36,364,271.89,364,271.89Z" style="fill: #42a5f5"/>
    <path d="M396.45,274.75a68.42,68.42,0,0,1-8.32-4.12,12.7,12.7,0,0,1-2-1.88C384,270.42,381,271,378,271s-6-1-7-2.62c-.37.37-1.79,1.71-6.37,3.25-3,1-6.63,6.37-6.63,14.37,0,5,1.86,12.14,2.49,14.63,1.26,5,2.51,8.74,2.51,12.37a28.89,28.89,0,0,1-3,12.88s.77,7.25,16.63,7.25c19.54,0,18.83-7.78,18.83-7.78A34.33,34.33,0,0,1,394,315.13c0-13.38,4-16.13,4-24.13Z" style="fill: #1976d2"/>
    <path d="M382,235c6,0,9.5,4.86,10.63,7a18.27,18.27,0,0,1,1.37,7c0,6.63-1.45,13-6,13a2.93,2.93,0,0,0-3,2.86h0V265c0,1.17-2.75,2-6,2-4,0-6-.82-6-2a13.89,13.89,0,0,0-1.12-5S368,253,368,247,373,235,382,235Z" style="fill: #cc9281"/>
    <path d="M366,246c0-4.45,2-13,14-13a15.05,15.05,0,0,1,8,2c3.78,2.31,5.08,5.93,5,7s-3,3-3,3a14.39,14.39,0,0,1-2,3,3.54,3.54,0,0,1-2,1,2.08,2.08,0,0,0-2,2.14v.24c0,3.5,2,4.62,2,4.62s-3.5,5-7.13,5H374.5c-1.5,0-2.25-.39-2.62-1C368.25,254.2,366,251.05,366,246Z" style="fill: #5d4037"/>
    <path d="M414,330a9.51,9.51,0,0,0,.24,2.12,4.73,4.73,0,0,0,1.83,2.24c1.08.89,1.31,3.64,2.43,3.64.43,0,.5-.31.5-1.25s-1-6.75-1-6.75Z" style="fill: #ba8675"/>
    <path d="M413,329.75l3.71-4.19.76,1s5.06,4.08,5.4,4.94,1.1,4.33,1.1,4.33a1.31,1.31,0,0,1,0,.28,4.18,4.18,0,0,1-.49,1.33,14.42,14.42,0,0,1-1.22,2.21,1.33,1.33,0,0,1-.54.46,14.22,14.22,0,0,1-2,.87c-.5,0-.75-.1-.75-.75,0-1,1.9-1.73,1.9-1.73l.07-1.77-.73-1.86s-.42-.09-2.84-1a5.31,5.31,0,0,1-3.42-2.68A6.53,6.53,0,0,0,413,329.75Z" style="fill: #cc9281"/>
    <path d="M413,329.75c-7.52-6.35-13.25-10.5-17.25-16.25C394.17,311,391,297,391,286c0-9,4.64-11.17,5.45-11.25,0,0,5.55,1.88,6.68,17.38.23,3.21.87,15.37.87,15.37a190.42,190.42,0,0,1,12.71,18.06s.76,1-1.07,2.95A5.34,5.34,0,0,1,413,329.75Z" style="fill: #42a5f5"/>
    <path d="M373,232a4.3,4.3,0,0,1,4,4,3.74,3.74,0,0,1-3.48,4H373c-2,0-3-2-3-4S371,232,373,232Z" style="fill: #42a5f5"/>
    <path d="M368,229c-8,0-10,7.25-10,13,0,5,3,12,6,17,2-7,4.45-10.14,6-12,2.62-3.14,4.93-7.2,5-10C375.07,234.44,373,229,368,229Z" style="fill: #6d4c41"/>
    <path d="M388,235s6,1.43,6,8.57c0,1.43-4,1.43-4,1.43S390,237,388,235Z" style="fill: #5d4037"/>
    <g>
      <path d="M355,435.88a14,14,0,0,1-6.12-4.63,29.13,29.13,0,0,0-4.77-4.24l-.59-.51,1.19-3.26a48.19,48.19,0,0,0,1.41-5c.06-.22.4-2,.5-2.62h0c.14-1.15.41-2.62.41-2.62a29.34,29.34,0,0,0,8.41,2s-.43,1.1-1,2.62c-.23.62-.48,1.31-.73,2l-.12.35a27.13,27.13,0,0,0-1.6,6c0,3,.5,4.66,1,4.88C355,431.75,355,432.88,355,435.88Z" style="fill: #37474f"/>
      <path d="M354.45,417.62l-.73,2-.12.35c-2.22,0-6.49-1-7.48-1.75.06-.22.4-2,.5-2.62C347.27,416.36,352.5,417.62,354.45,417.62Z" style="fill: #263238"/>
      <path d="M355,435.5c0-1.45-2.53-1-4.4-4-.77-1.23-1.72-5.5-5.85-5.5-1,0-1.23.5-1.23.5a10.23,10.23,0,0,0-.52,2.38c0,.87,2.8,2.29,3.5,3,1,1,.63,3.87,2.4,4.84,1.51.83,2,1.3,3.6,1.28,1.81,0,2.5-.5,2.5-.75Z" style="fill: #263238"/>
      <path d="M349.88,434.57c-1-1-1.24-5.43-5.25-6.12-1.27-.22-1.63.12-1.63.43a7.68,7.68,0,0,0,1.75,3.57c1,1,.83,3.93,2.7,4.93.89.47,2.67.62,5.05.62,1.37,0,2.5-.5,2.5-.75C355,436.25,350.9,435.6,349.88,434.57Z"/>
    </g>
    <g>
      <path d="M412,428c0,1-1.75,2.37-3,3-2,1-6,5-9,5-2,0-3-.76-3-3v-5l7.5-2,7.5-1Z" style="fill: #263238"/>
      <path d="M412,425c0,1-1.75,2.37-3,3-2,1-6,5-9,5-2,0-3-.76-3-3v-5a18.57,18.57,0,0,0-.51-3.63c-.22-1-.49-2-.74-2.88-.4-1.44-.75-2.49-.75-2.49,8,0,9-2,9-2l.16,2.76.17,3,.17,4.21a12.51,12.51,0,0,1,4.25-1C410.5,423,412,423.88,412,425Z" style="fill: #37474f"/>
      <path d="M404.33,419.79c-.74.56-2.74,1.49-7.84,1.58-.22-1-.49-2-.74-2.88,5.92,0,7.85-1.21,8.41-1.73Z" style="fill: #263238"/>
    </g>
  </g>
</svg>
