<?xml version="1.0" encoding="iso-8859-1"?>
<!-- Generator: Adobe Illustrator 22.1.0, SVG Export Plug-In . SVG Version: 6.00 Build 0)  -->
<svg version="1.1" id="Layer_1" xmlns="http://www.w3.org/2000/svg" xmlns:xlink="http://www.w3.org/1999/xlink" x="0px" y="0px"
	 viewBox="0 0 800 600" style="enable-background:new 0 0 800 600;" xml:space="preserve">
<rect style="fill:#FFFFFF;" width="800" height="600"/>
<g>
	
		<linearGradient id="SVGID_1_" gradientUnits="userSpaceOnUse" x1="621.5" y1="429" x2="621.5" y2="287" gradientTransform="matrix(1 0 0 -1 0 600)">
		<stop  offset="0" style="stop-color:#F6F6F6;stop-opacity:0.1"/>
		<stop  offset="0.3453" style="stop-color:#FBFBFB;stop-opacity:0.4108"/>
		<stop  offset="1" style="stop-color:#FFFFFF"/>
	</linearGradient>
	<polygon style="fill:url(#SVGID_1_);" points="603,313 640,313 640,171 603,171 	"/>
	
		<linearGradient id="SVGID_2_" gradientUnits="userSpaceOnUse" x1="621.5" y1="429" x2="621.5" y2="287" gradientTransform="matrix(1 0 0 -1 0 600)">
		<stop  offset="0" style="stop-color:#F5F5F5"/>
		<stop  offset="0.3762" style="stop-color:#FBFBFB"/>
		<stop  offset="1" style="stop-color:#FFFFFF"/>
	</linearGradient>
	<polygon style="fill:url(#SVGID_2_);" points="603,313 640,313 640,171 603,171 	"/>
</g>
<g>
	
		<linearGradient id="SVGID_3_" gradientUnits="userSpaceOnUse" x1="513" y1="415" x2="513" y2="251" gradientTransform="matrix(1 0 0 -1 0 600)">
		<stop  offset="0" style="stop-color:#F6F6F6;stop-opacity:0.1"/>
		<stop  offset="0.3453" style="stop-color:#FBFBFB;stop-opacity:0.4108"/>
		<stop  offset="1" style="stop-color:#FFFFFF"/>
	</linearGradient>
	<polygon style="fill:url(#SVGID_3_);" points="487,349 539,349 539,185 487,185 	"/>
	
		<linearGradient id="SVGID_4_" gradientUnits="userSpaceOnUse" x1="513" y1="415" x2="513" y2="251" gradientTransform="matrix(1 0 0 -1 0 600)">
		<stop  offset="0" style="stop-color:#F5F5F5"/>
		<stop  offset="0.3762" style="stop-color:#FBFBFB"/>
		<stop  offset="1" style="stop-color:#FFFFFF"/>
	</linearGradient>
	<polygon style="fill:url(#SVGID_4_);" points="487,349 539,349 539,185 487,185 	"/>
</g>
<g>
	
		<linearGradient id="SVGID_5_" gradientUnits="userSpaceOnUse" x1="577" y1="403" x2="577" y2="255" gradientTransform="matrix(1 0 0 -1 0 600)">
		<stop  offset="0" style="stop-color:#F6F6F6;stop-opacity:0.1"/>
		<stop  offset="0.3453" style="stop-color:#FBFBFB;stop-opacity:0.4108"/>
		<stop  offset="1" style="stop-color:#FFFFFF"/>
	</linearGradient>
	<polygon style="fill:url(#SVGID_5_);" points="551,345 603,345 603,197 551,197 	"/>
	
		<linearGradient id="SVGID_6_" gradientUnits="userSpaceOnUse" x1="577" y1="403" x2="577" y2="255" gradientTransform="matrix(1 0 0 -1 0 600)">
		<stop  offset="0" style="stop-color:#F5F5F5"/>
		<stop  offset="0.3762" style="stop-color:#FBFBFB"/>
		<stop  offset="1" style="stop-color:#FFFFFF"/>
	</linearGradient>
	<polygon style="fill:url(#SVGID_6_);" points="551,345 603,345 603,197 551,197 	"/>
</g>
<g>
	<rect x="636" y="198" style="fill:#FFFFFF;" width="48" height="172"/>
	
		<linearGradient id="SVGID_7_" gradientUnits="userSpaceOnUse" x1="38" y1="402" x2="38" y2="230" gradientTransform="matrix(-1 0 0 -1 698 600)">
		<stop  offset="0" style="stop-color:#F5F5F5"/>
		<stop  offset="0.3762" style="stop-color:#FBFBFB"/>
		<stop  offset="1" style="stop-color:#FFFFFF"/>
	</linearGradient>
	<rect x="636" y="198" style="fill:url(#SVGID_7_);" width="48" height="172"/>
</g>
<g>
	<rect x="82" y="209" style="fill:#FFFFFF;" width="49" height="172"/>
	
		<linearGradient id="SVGID_8_" gradientUnits="userSpaceOnUse" x1="591.5" y1="391" x2="591.5" y2="219" gradientTransform="matrix(-1 0 0 -1 698 600)">
		<stop  offset="0" style="stop-color:#F5F5F5"/>
		<stop  offset="0.3762" style="stop-color:#FBFBFB"/>
		<stop  offset="1" style="stop-color:#FFFFFF"/>
	</linearGradient>
	<polygon style="fill:url(#SVGID_8_);" points="82,381 131,381 131,209 82,209 	"/>
</g>
<g>
	<rect x="112" y="163" style="fill:#FFFFFF;" width="66" height="170"/>
	
		<linearGradient id="SVGID_9_" gradientUnits="userSpaceOnUse" x1="553" y1="437" x2="553" y2="267" gradientTransform="matrix(-1 0 0 -1 698 600)">
		<stop  offset="0" style="stop-color:#F5F5F5"/>
		<stop  offset="0.3762" style="stop-color:#FBFBFB"/>
		<stop  offset="1" style="stop-color:#FFFFFF"/>
	</linearGradient>
	<polygon style="fill:url(#SVGID_9_);" points="112,333 178,333 178,163 112,163 	"/>
</g>
<g>
	<path style="fill:#FFFFFF;" d="M322,231.7c3.4,0,6.1-2.7,6.1-6.1s-2.7-6.1-6.1-6.1c-2.1,0-3.9,1-5,2.6c-0.3-6-1.2-11.8-2.5-17.4
		c1.5,1.3,3.6,1.9,5.6,1.3c3.3-0.9,5.2-4.2,4.3-7.5c-0.9-3.3-4.2-5.2-7.5-4.3c-2.1,0.6-3.6,2.1-4.2,4.1c-1.8-5.8-4.2-11.3-7-16.5
		c1.8,1,4,1,5.9-0.1c2.9-1.7,3.9-5.5,2.2-8.4s-5.5-3.9-8.4-2.2c-2,1.1-3,3.2-3,5.3c-3.3-5.2-7.1-10-11.3-14.4c2,0.5,4.3,0,5.9-1.6
		c2.4-2.4,2.4-6.3,0-8.7s-6.3-2.4-8.7,0c-1.6,1.6-2.1,3.9-1.6,5.9c-4.5-4.1-9.3-7.8-14.5-11.1c2.1-0.1,4-1.1,5.2-3
		c1.7-2.9,0.7-6.7-2.2-8.4c-2.9-1.7-6.7-0.7-8.4,2.2c-1.1,1.9-1,4.2,0,6c-5.3-2.8-10.8-5.1-16.6-6.9c1.9-0.6,3.4-2.2,4-4.2
		c0.9-3.3-1.1-6.6-4.3-7.5c-3.3-0.9-6.6,1.1-7.5,4.3c-0.6,2.1,0,4.2,1.4,5.7c-5.7-1.3-11.5-2.1-17.5-2.3c1.6-1.1,2.6-2.9,2.6-5
		c0-3.4-2.7-6.1-6.1-6.1c-3.4,0-6.1,2.7-6.1,6.1c0,2.1,1,3.9,2.6,5c-5.9,0.2-11.6,1-17.2,2.2c1.1-1.5,1.6-3.4,1.1-5.3
		c-0.9-3.3-4.2-5.2-7.5-4.3s-5.2,4.2-4.3,7.5c0.5,1.9,1.8,3.3,3.5,4c-5.4,1.7-10.6,3.9-15.6,6.5c0.6-1.6,0.5-3.5-0.4-5.1
		c-1.7-2.9-5.5-3.9-8.4-2.2s-3.9,5.5-2.2,8.4c0.9,1.6,2.5,2.6,4.2,2.9c-4.7,3-9.1,6.3-13.1,10c0-1.6-0.5-3.3-1.8-4.5
		c-2.4-2.4-6.3-2.4-8.7,0s-2.4,6.3,0,8.7c1.2,1.2,2.9,1.8,4.5,1.8c-3.6,3.9-6.9,8.2-9.8,12.7c-0.4-1.5-1.4-2.8-2.8-3.6
		c-2.9-1.7-6.7-0.7-8.4,2.2s-0.7,6.7,2.2,8.4c1.4,0.8,3,1,4.5,0.6c-2.4,4.6-4.5,9.5-6.1,14.5c-0.8-1.2-2-2.1-3.5-2.5
		c-3.3-0.9-6.6,1.1-7.5,4.3c-0.9,3.3,1.1,6.6,4.3,7.5c1.5,0.4,3,0.2,4.2-0.4c-1.1,5-1.8,10.1-2,15.3c-1-0.8-2.4-1.4-3.8-1.4
		c-3.4,0-6.1,2.7-6.1,6.1s2.7,6.1,6.1,6.1c1.4,0,2.8-0.5,3.8-1.4c0.3,5.2,0.9,10.2,2,15.1c-1.2-0.5-2.5-0.6-3.9-0.3
		c-3.3,0.9-5.2,4.2-4.3,7.5c0.9,3.3,4.2,5.2,7.5,4.3c1.3-0.4,2.4-1.2,3.2-2.2c1.6,4.8,3.5,9.5,5.8,13.9c-1.3-0.1-2.5,0.1-3.7,0.8
		c-2.9,1.7-3.9,5.5-2.2,8.4s5.5,3.9,8.4,2.2c1.2-0.7,2-1.7,2.6-2.9c2.8,4.2,5.8,8.2,9.2,11.9c-1.2,0.2-2.4,0.8-3.4,1.7
		c-2.4,2.4-2.4,6.3,0,8.7s6.3,2.4,8.7,0c1-1,1.5-2.2,1.7-3.5c3.8,3.3,7.8,6.4,12,9.1c-1.1,0.5-2.2,1.4-2.8,2.5
		c-1.7,2.9-0.7,6.7,2.2,8.4s6.7,0.7,8.4-2.2c0.7-1.2,0.9-2.5,0.8-3.8c4.5,2.2,9.1,4.2,14,5.7c-1,0.8-1.7,1.9-2.1,3.2
		c-0.9,3.3,1.1,6.6,4.3,7.5c3.3,0.9,6.6-1.1,7.5-4.3c0.4-1.4,0.2-2.7-0.3-3.9c4.9,1,10,1.6,15.1,1.8c-0.8,1-1.3,2.3-1.3,3.8
		c0,3.4,2.7,6.1,6.1,6.1c3.4,0,6.1-2.7,6.1-6.1c0-1.5-0.5-2.8-1.4-3.9c5.2-0.3,10.3-1.1,15.3-2.2c-0.6,1.3-0.8,2.7-0.4,4.2
		c0.9,3.3,4.2,5.2,7.5,4.3c3.3-0.9,5.2-4.2,4.3-7.5c-0.4-1.5-1.4-2.7-2.6-3.5c5-1.7,9.9-3.8,14.5-6.3c-0.3,1.5-0.1,3,0.7,4.4
		c1.7,2.9,5.5,3.9,8.4,2.2c2.9-1.7,3.9-5.5,2.2-8.4c-0.8-1.5-2.2-2.4-3.7-2.8c4.5-3,8.7-6.3,12.6-10c0,1.6,0.6,3.2,1.8,4.4
		c2.4,2.4,6.3,2.4,8.7,0s2.4-6.3,0-8.7c-1.3-1.3-3-1.8-4.6-1.8c3.7-4.1,7-8.5,9.9-13.3c0.3,1.7,1.3,3.2,2.9,4.1
		c2.9,1.7,6.7,0.7,8.4-2.2s0.7-6.7-2.2-8.4c-1.6-1-3.5-1-5.2-0.4c2.5-5,4.6-10.3,6.3-15.7c0.7,1.7,2.1,3,4,3.5
		c3.3,0.9,6.6-1.1,7.5-4.3c0.9-3.3-1.1-6.6-4.3-7.5c-1.9-0.5-3.9,0-5.3,1.1c1.2-5.6,1.8-11.3,2-17.2
		C318.2,230.7,320,231.7,322,231.7z M223,313.3c-2.8,0-5.5-0.1-8.2-0.4l7.2-77.8c0.3,0,0.7,0.1,1,0.1s0.7,0,1-0.1l7.2,77.8
		C228.5,313.2,225.7,313.3,223,313.3z M241.7,311.2l-14.4-77.3c2.2-1.4,3.7-3.9,3.7-6.7c0-4.4-3.6-8-8-8s-8,3.6-8,8
		c0,2.8,1.5,5.3,3.7,6.7l-14.4,77.3c-38.5-8.6-67.4-43-67.4-84c0-47.5,38.7-86.1,86.2-86.1s86.2,38.7,86.2,86.1
		C309.2,268.2,280.3,302.6,241.7,311.2z"/>
	
		<linearGradient id="SVGID_10_" gradientUnits="userSpaceOnUse" x1="223.35" y1="478.7" x2="223.35" y2="268.4004" gradientTransform="matrix(1 0 0 -1 0 600)">
		<stop  offset="0" style="stop-color:#BDBDBD;stop-opacity:0.2"/>
		<stop  offset="0.0535" style="stop-color:#C4C4C4;stop-opacity:0.2428"/>
		<stop  offset="0.2731" style="stop-color:#DEDEDE;stop-opacity:0.4185"/>
		<stop  offset="0.5001" style="stop-color:#F0F0F0;stop-opacity:0.6001"/>
		<stop  offset="0.7371" style="stop-color:#FBFBFB;stop-opacity:0.7897"/>
		<stop  offset="1" style="stop-color:#FFFFFF"/>
	</linearGradient>
	<path style="fill:url(#SVGID_10_);" d="M322,231.7c3.4,0,6.1-2.7,6.1-6.1s-2.7-6.1-6.1-6.1c-2.1,0-3.9,1-5,2.6
		c-0.3-6-1.2-11.8-2.5-17.4c1.5,1.3,3.6,1.9,5.6,1.3c3.3-0.9,5.2-4.2,4.3-7.5c-0.9-3.3-4.2-5.2-7.5-4.3c-2.1,0.6-3.6,2.1-4.2,4.1
		c-1.8-5.8-4.2-11.3-7-16.5c1.8,1,4,1,5.9-0.1c2.9-1.7,3.9-5.5,2.2-8.4s-5.5-3.9-8.4-2.2c-2,1.1-3,3.2-3,5.3
		c-3.3-5.2-7.1-10-11.3-14.4c2,0.5,4.3,0,5.9-1.6c2.4-2.4,2.4-6.3,0-8.7s-6.3-2.4-8.7,0c-1.6,1.6-2.1,3.9-1.6,5.9
		c-4.5-4.1-9.3-7.8-14.5-11.1c2.1-0.1,4-1.1,5.2-3c1.7-2.9,0.7-6.7-2.2-8.4c-2.9-1.7-6.7-0.7-8.4,2.2c-1.1,1.9-1,4.2,0,6
		c-5.3-2.8-10.8-5.1-16.6-6.9c1.9-0.6,3.4-2.2,4-4.2c0.9-3.3-1.1-6.6-4.3-7.5c-3.3-0.9-6.6,1.1-7.5,4.3c-0.6,2.1,0,4.2,1.4,5.7
		c-5.7-1.3-11.5-2.1-17.5-2.3c1.6-1.1,2.6-2.9,2.6-5c0-3.4-2.7-6.1-6.1-6.1c-3.4,0-6.1,2.7-6.1,6.1c0,2.1,1,3.9,2.6,5
		c-5.9,0.2-11.6,1-17.2,2.2c1.1-1.5,1.6-3.4,1.1-5.3c-0.9-3.3-4.2-5.2-7.5-4.3s-5.2,4.2-4.3,7.5c0.5,1.9,1.8,3.3,3.5,4
		c-5.4,1.7-10.6,3.9-15.6,6.5c0.6-1.6,0.5-3.5-0.4-5.1c-1.7-2.9-5.5-3.9-8.4-2.2s-3.9,5.5-2.2,8.4c0.9,1.6,2.5,2.6,4.2,2.9
		c-4.7,3-9.1,6.3-13.1,10c0-1.6-0.5-3.3-1.8-4.5c-2.4-2.4-6.3-2.4-8.7,0s-2.4,6.3,0,8.7c1.2,1.2,2.9,1.8,4.5,1.8
		c-3.6,3.9-6.9,8.2-9.8,12.7c-0.4-1.5-1.4-2.8-2.8-3.6c-2.9-1.7-6.7-0.7-8.4,2.2s-0.7,6.7,2.2,8.4c1.4,0.8,3,1,4.5,0.6
		c-2.4,4.6-4.5,9.5-6.1,14.5c-0.8-1.2-2-2.1-3.5-2.5c-3.3-0.9-6.6,1.1-7.5,4.3c-0.9,3.3,1.1,6.6,4.3,7.5c1.5,0.4,3,0.2,4.2-0.4
		c-1.1,5-1.8,10.1-2,15.3c-1-0.8-2.4-1.4-3.8-1.4c-3.4,0-6.1,2.7-6.1,6.1s2.7,6.1,6.1,6.1c1.4,0,2.8-0.5,3.8-1.4
		c0.3,5.2,0.9,10.2,2,15.1c-1.2-0.5-2.5-0.6-3.9-0.3c-3.3,0.9-5.2,4.2-4.3,7.5c0.9,3.3,4.2,5.2,7.5,4.3c1.3-0.4,2.4-1.2,3.2-2.2
		c1.6,4.8,3.5,9.5,5.8,13.9c-1.3-0.1-2.5,0.1-3.7,0.8c-2.9,1.7-3.9,5.5-2.2,8.4s5.5,3.9,8.4,2.2c1.2-0.7,2-1.7,2.6-2.9
		c2.8,4.2,5.8,8.2,9.2,11.9c-1.2,0.2-2.4,0.8-3.4,1.7c-2.4,2.4-2.4,6.3,0,8.7s6.3,2.4,8.7,0c1-1,1.5-2.2,1.7-3.5
		c3.8,3.3,7.8,6.4,12,9.1c-1.1,0.5-2.2,1.4-2.8,2.5c-1.7,2.9-0.7,6.7,2.2,8.4s6.7,0.7,8.4-2.2c0.7-1.2,0.9-2.5,0.8-3.8
		c4.5,2.2,9.1,4.2,14,5.7c-1,0.8-1.7,1.9-2.1,3.2c-0.9,3.3,1.1,6.6,4.3,7.5c3.3,0.9,6.6-1.1,7.5-4.3c0.4-1.4,0.2-2.7-0.3-3.9
		c4.9,1,10,1.6,15.1,1.8c-0.8,1-1.3,2.3-1.3,3.8c0,3.4,2.7,6.1,6.1,6.1c3.4,0,6.1-2.7,6.1-6.1c0-1.5-0.5-2.8-1.4-3.9
		c5.2-0.3,10.3-1.1,15.3-2.2c-0.6,1.3-0.8,2.7-0.4,4.2c0.9,3.3,4.2,5.2,7.5,4.3c3.3-0.9,5.2-4.2,4.3-7.5c-0.4-1.5-1.4-2.7-2.6-3.5
		c5-1.7,9.9-3.8,14.5-6.3c-0.3,1.5-0.1,3,0.7,4.4c1.7,2.9,5.5,3.9,8.4,2.2c2.9-1.7,3.9-5.5,2.2-8.4c-0.8-1.5-2.2-2.4-3.7-2.8
		c4.5-3,8.7-6.3,12.6-10c0,1.6,0.6,3.2,1.8,4.4c2.4,2.4,6.3,2.4,8.7,0s2.4-6.3,0-8.7c-1.3-1.3-3-1.8-4.6-1.8c3.7-4.1,7-8.5,9.9-13.3
		c0.3,1.7,1.3,3.2,2.9,4.1c2.9,1.7,6.7,0.7,8.4-2.2s0.7-6.7-2.2-8.4c-1.6-1-3.5-1-5.2-0.4c2.5-5,4.6-10.3,6.3-15.7
		c0.7,1.7,2.1,3,4,3.5c3.3,0.9,6.6-1.1,7.5-4.3c0.9-3.3-1.1-6.6-4.3-7.5c-1.9-0.5-3.9,0-5.3,1.1c1.2-5.6,1.8-11.3,2-17.2
		C318.2,230.7,320,231.7,322,231.7z M223,313.3c-2.8,0-5.5-0.1-8.2-0.4l7.2-77.8c0.3,0,0.7,0.1,1,0.1s0.7,0,1-0.1l7.2,77.8
		C228.5,313.2,225.7,313.3,223,313.3z M241.7,311.2l-14.4-77.3c2.2-1.4,3.7-3.9,3.7-6.7c0-4.4-3.6-8-8-8s-8,3.6-8,8
		c0,2.8,1.5,5.3,3.7,6.7l-14.4,77.3c-38.5-8.6-67.4-43-67.4-84c0-47.5,38.7-86.1,86.2-86.1s86.2,38.7,86.2,86.1
		C309.2,268.2,280.3,302.6,241.7,311.2z"/>
</g>
<g>
	<polygon style="fill:#FFFFFF;" points="634,127 634,147 623,147 623,374 699.6,374 	"/>
	
		<linearGradient id="SVGID_11_" gradientUnits="userSpaceOnUse" x1="661.3" y1="473" x2="661.3" y2="226" gradientTransform="matrix(1 0 0 -1 0 600)">
		<stop  offset="0" style="stop-color:#E0E0E0;stop-opacity:0.7"/>
		<stop  offset="1" style="stop-color:#FFFFFF;stop-opacity:0.4"/>
	</linearGradient>
	<polygon style="fill:url(#SVGID_11_);" points="634,127 634,147 623,147 623,374 699.6,374 	"/>
</g>
<g>
	<polygon style="fill:#FFFFFF;" points="160,284 160,272 157,263 154,272 154,279 144,279 144,272 141,263 138,272 138,284 126,284 
		126,272 123,263 120,272 120,279 110,279 110,272 107,263 104,272 104,284 82,284 82,373 178,373 178,284 	"/>
	
		<linearGradient id="SVGID_12_" gradientUnits="userSpaceOnUse" x1="130" y1="337" x2="130" y2="227" gradientTransform="matrix(1 0 0 -1 0 600)">
		<stop  offset="0" style="stop-color:#E0E0E0;stop-opacity:0.85"/>
		<stop  offset="1" style="stop-color:#FFFFFF;stop-opacity:0.4"/>
	</linearGradient>
	<polygon style="fill:url(#SVGID_12_);" points="160,284 160,272 157,263 154,272 154,279 144,279 144,272 141,263 138,272 138,284 
		126,284 126,272 123,263 120,272 120,279 110,279 110,272 107,263 104,272 104,284 82,284 82,373 178,373 178,284 	"/>
	
		<radialGradient id="SVGID_13_" cx="188.8237" cy="294.6621" r="126.4803" fx="155.9454" fy="289.0329" gradientTransform="matrix(1 0 0 -0.9975 0 599.9593)" gradientUnits="userSpaceOnUse">
		<stop  offset="0" style="stop-color:#F6F6F6;stop-opacity:0"/>
		<stop  offset="1" style="stop-color:#FFFFFF"/>
	</radialGradient>
	<polygon style="fill:url(#SVGID_13_);" points="160,284 160,272 157,263 154,272 154,279 144,279 144,272 141,263 138,272 138,284 
		126,284 126,272 123,263 120,272 120,279 110,279 110,272 107,263 104,272 104,284 82,284 82,373 178,373 178,284 	"/>
</g>
<g>
	<path style="fill:#FFFFFF;" d="M199,226v-9l-7-9.4v-11.7l-8-22.9l-8,22.9v11.8l-7,9.2v9h-3v32h3v106h30V258h3v-32H199z"/>
	
		<linearGradient id="SVGID_14_" gradientUnits="userSpaceOnUse" x1="184" y1="427" x2="184" y2="236.1" gradientTransform="matrix(1 0 0 -1 0 600)">
		<stop  offset="0" style="stop-color:#BDBDBD;stop-opacity:0.4"/>
		<stop  offset="1" style="stop-color:#FFFFFF"/>
	</linearGradient>
	<path style="fill:url(#SVGID_14_);" d="M199,226v-9l-7-9.4v-11.7l-8-22.9l-8,22.9v11.8l-7,9.2v9h-3v32h3v106h30V258h3v-32H199z
		 M184.3,252c-5.5,0-10-4.5-10-10s4.5-10,10-10s10,4.5,10,10S189.8,252,184.3,252z"/>
</g>
<g>
	<path style="fill:#FFFFFF;" d="M548,324.6c1.2,0.2,2.3,0.3,3.5,0.5l0.9-7.9c-43.3-5.1-80.2-35.8-89.4-44V273v-21l-3.5-15l-3.5,15
		l-6-20l-6,20l-3.5-15l-3.5,15v15h-49v-2l-6-4v-0.1l-6,4.1v2h-49v-15l-3.5-15l-3.5,15l-6-20l-6,20l-3.5-15l-3.5,15v21v0.2
		c-9.2,8.2-45.9,38.9-89.4,44l0.9,7.9c1.2-0.1,2.4-0.3,3.5-0.5V339h-4v8h89v33h26v-28l46.8-35l-4-6L327,332v-56h110v56l-43.2-21
		l-4,6l47.2,35v28h24v-33h91v-8h-4V324.6z M230,339h-10v-15c3.4-0.6,6.7-1.4,10-2.2V339z M244,339h-10v-18.3c3.4-1,6.7-2.1,10-3.3
		V339z M258,339h-10v-23.2c3.4-1.4,6.8-2.8,10-4.4V339z M272,339h-10v-29.5c3.5-1.8,6.8-3.6,10-5.4V339z M286,339h-10v-37.4
		c3.6-2.2,6.9-4.4,10-6.5V339z M301,284v54.9v0.1h-11v-46.7c4.4-3.2,8.1-6.1,11-8.5V284z M474,339h-11v-0.1V284v-0.2
		c2.9,2.4,6.6,5.4,11,8.5V339z M488,339h-10v-43.9c3.1,2.1,6.4,4.3,10,6.5V339z M502,339h-10v-35c3.2,1.8,6.5,3.7,10,5.4V339z
		 M516,339h-10v-27.6c3.2,1.5,6.6,3,10,4.4V339z M530,339h-10v-21.7c3.3,1.2,6.6,2.3,10,3.3V339z M544,339h-10v-17.2
		c3.3,0.9,6.6,1.6,10,2.2V339z"/>
	
		<linearGradient id="SVGID_15_" gradientUnits="userSpaceOnUse" x1="382" y1="368" x2="382" y2="220" gradientTransform="matrix(1 0 0 -1 0 600)">
		<stop  offset="0" style="stop-color:#BDBDBD"/>
		<stop  offset="1" style="stop-color:#FFFFFF"/>
	</linearGradient>
	<path style="fill:url(#SVGID_15_);" d="M548,324.6c1.2,0.2,2.3,0.3,3.5,0.5l0.9-7.9c-43.3-5.1-80.2-35.8-89.4-44V273v-21l-3.5-15
		l-3.5,15l-6-20l-6,20l-3.5-15l-3.5,15v15h-49v-2l-6-4v-0.1l-6,4.1v2h-49v-15l-3.5-15l-3.5,15l-6-20l-6,20l-3.5-15l-3.5,15v21v0.2
		c-9.2,8.2-45.9,38.9-89.4,44l0.9,7.9c1.2-0.1,2.4-0.3,3.5-0.5V339h-4v8h89v33h26v-28l46.8-35l-4-6L327,332v-56h110v56l-43.2-21
		l-4,6l47.2,35v28h24v-33h91v-8h-4V324.6z M230,339h-10v-15c3.4-0.6,6.7-1.4,10-2.2V339z M244,339h-10v-18.3c3.4-1,6.7-2.1,10-3.3
		V339z M258,339h-10v-23.2c3.4-1.4,6.8-2.8,10-4.4V339z M272,339h-10v-29.5c3.5-1.8,6.8-3.6,10-5.4V339z M286,339h-10v-37.4
		c3.6-2.2,6.9-4.4,10-6.5V339z M301,284v54.9v0.1h-11v-46.7c4.4-3.2,8.1-6.1,11-8.5V284z M474,339h-11v-0.1V284v-0.2
		c2.9,2.4,6.6,5.4,11,8.5V339z M488,339h-10v-43.9c3.1,2.1,6.4,4.3,10,6.5V339z M502,339h-10v-35c3.2,1.8,6.5,3.7,10,5.4V339z
		 M516,339h-10v-27.6c3.2,1.5,6.6,3,10,4.4V339z M530,339h-10v-21.7c3.3,1.2,6.6,2.3,10,3.3V339z M544,339h-10v-17.2
		c3.3,0.9,6.6,1.6,10,2.2V339z"/>
	
		<radialGradient id="SVGID_16_" cx="382" cy="294" r="131.3624" gradientTransform="matrix(1 0 0 -1 0 600)" gradientUnits="userSpaceOnUse">
		<stop  offset="0" style="stop-color:#F6F6F6;stop-opacity:0"/>
		<stop  offset="1" style="stop-color:#FFFFFF"/>
	</radialGradient>
	<path style="fill:url(#SVGID_16_);" d="M548,324.6c1.2,0.2,2.3,0.3,3.5,0.5l0.9-7.9c-43.3-5.1-80.2-35.8-89.4-44V273v-21l-3.5-15
		l-3.5,15l-6-20l-6,20l-3.5-15l-3.5,15v15h-49v-2l-6-4v-0.1l-6,4.1v2h-49v-15l-3.5-15l-3.5,15l-6-20l-6,20l-3.5-15l-3.5,15v21v0.2
		c-9.2,8.2-45.9,38.9-89.4,44l0.9,7.9c1.2-0.1,2.4-0.3,3.5-0.5V339h-4v8h89v33h26v-28l46.8-35l-4-6L327,332v-56h110v56l-43.2-21
		l-4,6l47.2,35v28h24v-33h91v-8h-4V324.6z M230,339h-10v-15c3.4-0.6,6.7-1.4,10-2.2V339z M244,339h-10v-18.3c3.4-1,6.7-2.1,10-3.3
		V339z M258,339h-10v-23.2c3.4-1.4,6.8-2.8,10-4.4V339z M272,339h-10v-29.5c3.5-1.8,6.8-3.6,10-5.4V339z M286,339h-10v-37.4
		c3.6-2.2,6.9-4.4,10-6.5V339z M301,284v54.9v0.1h-11v-46.7c4.4-3.2,8.1-6.1,11-8.5V284z M474,339h-11v-0.1V284v-0.2
		c2.9,2.4,6.6,5.4,11,8.5V339z M488,339h-10v-43.9c3.1,2.1,6.4,4.3,10,6.5V339z M502,339h-10v-35c3.2,1.8,6.5,3.7,10,5.4V339z
		 M516,339h-10v-27.6c3.2,1.5,6.6,3,10,4.4V339z M530,339h-10v-21.7c3.3,1.2,6.6,2.3,10,3.3V339z M544,339h-10v-17.2
		c3.3,0.9,6.6,1.6,10,2.2V339z"/>
</g>
<g>
	<path style="fill:#FFFFFF;" d="M593,241c0,30.1,0,132,0,132h-68c0,0,0-59.1,0-132s15.2-132,34-132S593,168.1,593,241z"/>
	
		<linearGradient id="SVGID_17_" gradientUnits="userSpaceOnUse" x1="559" y1="491" x2="559" y2="227" gradientTransform="matrix(1 0 0 -1 0 600)">
		<stop  offset="0" style="stop-color:#E0E0E0;stop-opacity:0.7"/>
		<stop  offset="1" style="stop-color:#FFFFFF;stop-opacity:0.4"/>
	</linearGradient>
	<path style="fill:url(#SVGID_17_);" d="M593,241c0,30.1,0,132,0,132h-68c0,0,0-59.1,0-132s15.2-132,34-132S593,168.1,593,241z"/>
</g>
<radialGradient id="SVGID_18_" cx="422.3986" cy="228.8071" r="357.5919" gradientTransform="matrix(0.9984 0.0047 0.0083 -1.7843 -23.6254 635.7752)" gradientUnits="userSpaceOnUse">
	<stop  offset="0" style="stop-color:#FFFFFF;stop-opacity:0"/>
	<stop  offset="0.8625" style="stop-color:#FFFFFF;stop-opacity:0.8625"/>
	<stop  offset="1" style="stop-color:#FFFFFF"/>
</radialGradient>
<rect style="fill:url(#SVGID_18_);" width="800" height="459"/>
<g>
	
		<linearGradient id="SVGID_19_" gradientUnits="userSpaceOnUse" x1="389.3" y1="135" x2="389.3" y2="155" gradientTransform="matrix(1 0 0 -1 0 602)">
		<stop  offset="0" style="stop-color:#FFFFFF"/>
		<stop  offset="1" style="stop-color:#E0E0E0"/>
	</linearGradient>
	<path style="opacity:0.2;fill:url(#SVGID_19_);enable-background:new    ;" d="M656.3,447L656.3,447c0,11-9,20-20,20h-494
		c-11.1,0-20-9-20-20l0,0H656.3z"/>
</g>
<g>
	<path style="fill:#FFCCBC;" d="M269.1,241.8c-0.9,1.7-2.3,3.2-6.7,5.9c0,0-1.8,0.9-0.9,5.3h-15.8c0,0,2.5-1.5,4.1-5.3
		c0.9-2.1,0.5-4.6-0.9-6.4c-1.8-2.4-4.1-6.4-4.1-15.6c0-10.5,7.6-14,14-14c9,0,13.3,6.1,13.3,17.6
		C272.1,233.3,271.3,237.5,269.1,241.8z"/>
	<path style="fill:#3E2723;" d="M246.1,241l-2-5c0,0-1-5.4-1-10.2c0-10.5,6.2-15.8,15.7-15.8c8,0,11.5,5.3,12.4,10.5l-6.1,4.5
		c0,0-2,1-2,3.5c-0.1,1.7-1.3,2.1-2,2.5c-0.8-3.3-2-4-3.1-4c-0.6,0-1.3,0.1-1.9,0.6c-0.8,0.7-1,1.9-1,3.1c0,1.9,0.9,3.5,2,4.3
		c0,2.1-1,4.9-1,4.9l-3,1.1L246.1,241L246.1,241z"/>
	<path style="fill:#424242;" d="M292,437.7c-10.4,0.3-11.1-5.7-11.1-5.7l-8.8,1.8l2,10.3c0,0,0.7,3.5,4.1,2.8
		c7.6-1.5,20.9-4.2,20.9-4.2S298.8,437.6,292,437.7z"/>
	<path style="fill:#93756B;" d="M269.6,257c0,0,2.4,5.1,4.5,7c0,5-3.5,27-3.5,27l-5-25l2-11L269.6,257z"/>
	<path style="fill:#7986CB;" d="M246.9,239c0,0,2.4-1.4,5-1.3c1.1,0,2.2,0.3,3.1,1.1c4.9,3.9,10.3,3.9,11.1,8.7
		c0.4,2,6.1,3.8,6.1,8.7c0,1.6-0.1,2-1.2,3.8c-1.8,3-2.5,7-2.5,7H247v-28H246.9z"/>
	<path style="fill:#5C6BC0;" d="M255,245c0,0,7.1,1.7,10.3,8.9c0.8,1.8,2.7,9.8,2.7,14.1h-13V245z"/>
	<path style="fill:#424242;" d="M218.6,445c-3.8-4.2-4.9-5.3-9.5-8.6c-1.7-1.2-2.7-3.2-1.4-5.8c1.6-3.2,5.1-8.1,5.1-8.1l8.1,1.6
		c0,0,0.2,0.1-0.6,2.5s0.3,9.7,2.9,11.8c3.9,3,7,5.7,6.9,8.6c0,0-1.5,0-3.3,0C224.5,446.9,220.2,446.7,218.6,445z"/>
	<path style="fill:#5D65A0;" d="M229.1,323.4c0,0-2.8,34-2.9,54.2c-4.1,14-16.1,45.4-16.1,45.4l12.4,7c21-37.3,27.1-42,33.7-68.7
		c1.8-7-5.5-35.8-5.5-35.8L229.1,323.4z"/>
	<path style="fill:#495099;" d="M265.1,326.3L283,432.7l-13.1,3c0,0-11.8-31.9-14.1-54.8c-4.5-17.3-12.8-35.8-15.9-57.5
		C274.1,326.9,265.1,326.3,265.1,326.3z"/>
	<path style="fill:#8D6E63;" d="M268.6,273.8c-1.4-2.1-6.6-18.8-6.6-18.8l-13-3.3l-3.6-3L242,250c0,0-12,6-12,24c0,5.1,0,18,0,18
		l1,10l2.9,6.9c-14.5,32-35.8,77.1-35.8,77.1s10.8,13,40.3,13c27.5,0,44.6-8,44.6-8c-5.8-39.8-7-95-7-95S275.6,284,268.6,273.8z"/>
	<path style="fill:#A1887F;" d="M239.6,259.6c-7.6,2.7-11.4,22.4-12.4,32c-1.2,11.1,21.6,41.4,21.6,41.4l6.4-10.5
		c0,0-10.9-24.3-11-28.5c0-2.3,0.6-5.1,1.9-8.5c3.6-9.5,5-14.8,3.6-20.4C248.1,259.2,243.6,258.1,239.6,259.6z"/>
	<path style="fill:#8D6E63;" d="M244.1,236c0,4.8-2,7.5-2,14l20.1,5.5C251.7,241.1,244.1,236,244.1,236z"/>
	<path style="fill:#A1887F;" d="M262.1,255c-1.6,6.4-7,8-7,8s5.1,7.1,11,15.4C273.6,289,276,296,276,296
		C275.8,274.9,264.5,261.4,262.1,255z"/>
	<path style="fill:#A1887F;" d="M262.1,255c-8-2.4-11-5-11-5c-1-9.7-7-14-7-14S255.7,241.4,262.1,255z"/>
	<path style="fill:none;stroke:#880E4F;stroke-width:2;stroke-linecap:round;stroke-linejoin:round;stroke-miterlimit:10;" d="
		M255.1,205l3.1,3.4c0,0,0.3-3,2.9-4.4"/>
	<path style="fill:#8D6E63;" d="M274.1,223c-0.1-8.2-7.2-15-16-15c-8.8,0-16,6.8-16,15l-7.9,3.5c0,0,0.7,1.5,5.5,1.5
		c6.4,0,10.4-3,10.4-4l8,1h8c0,0,4,3,10.4,3c4.8,0,5.6-1.5,5.6-1.5L274.1,223z"/>
	<path style="fill:#A1887F;" d="M265.1,216.5c0,4.5,1,8.5,1,8.5h-16c0,0,1-4,1-8.5c0-4.7,2.8-8.5,7-8.5
		C262.3,208,265.1,211.8,265.1,216.5z"/>
	<circle style="fill:#5D4037;" cx="269.1" cy="311" r="2"/>
	<ellipse style="fill:#5D4037;" cx="269.1" cy="299" rx="2" ry="2"/>
	<polygon style="fill:#5D4037;" points="249.3,338 244.2,334.9 255.9,316 261.1,319.1 	"/>
</g>
<g>
	<path style="fill:#6D4C41;" d="M489.1,396.9c0,0-1.1,13.9-2.9,17.6s-6.6,8.5-7.2,10.9s-1.9,8.1-2.5,11.6c-0.2,1-0.4,2.6-0.4,4
		c0,1.9,0.4,4.2,1.9,5.3c0.9,0.6,2.4,0.8,3.8,0.8h2.2c1.1,0,2-0.9,2-2l0,0c0-2.2-1.8-4-4-4l0,0c0-3.1,2.5-12.7,4.5-14
		c6.5-4,9.4-6,9.4-6s6.6-4.6,5.9-6.7C500.7,410.7,489.1,396.9,489.1,396.9z"/>
	<path style="fill:#6D4C41;" d="M544,442c0,0,1,5,5.5,5h3.5c1.1,0,2-0.9,2-2l0,0c0-2.2-1.8-4-4-4h-1c-1.9,0-5.8-38.9-5.8-38.9
		l-11.3,3.9L544,442z"/>
	<path style="fill:#8D6E63;" d="M536.8,406.7c0,0-6.9,2.1-11.2,1.6c-7.2-0.8-10.8-2.5-10.8-2.5s0.1,5.6-5.2,12.8
		c-3.7,4.8-8,9.7-7.8,11.6c0.3,2.6,4,10.8,4,10.8h2c2.2,0,4,1.8,4,4l0,0c0,1.1-0.9,2-2,2c-0.8,0-1.9,0-3.3,0c-1.9,0-3.1,0.7-6.9-5.1
		c-4-6.2-6-9.8-6.6-12.3s2.3-5.2,2.9-12.6c0,0-11-11-11-23.2c0-9.6,0-12.1,0-12.1s-2.5,1-6.2,1c-4.5,0-11.1-1.2-15.6-5.8
		c-11.9-11.7-5.1-28.6-5.1-28.6s-1.9,25.3,16.6,26.3c4.2,0.2,11.3-1.7,15.9-3.3c3.8-1.3,7-2.6,14.2-2.7c1.9,0,4,0,6.5,0.1
		c16.7,0.8,29,8.1,34.4,8.6c15,1.3,14.2,6.2,23.8,18.3c1.7,2.1,4.4,3.4,6.4,5.6c1.7,2,2.7,6.8,4.8,8.1c4,2.4,4,6.8,4.5,9
		c1.2,6.2,2.7,8,5.8,13.2l0.1,6.9c-0.5,0.5-6.4,2.8-10.4,2.8c-2.3,0-7.8-4.6-12-9.3c-4-4.4-8-7.5-8-10.5c0-6.2,0.9-10.6-9.6-8.9
		L536.8,406.7z"/>
	<path style="fill:#3E2723;" d="M569.5,409c-4.7,0-10.4,3-10.4,9.6c0,13.4,0,14.4-2.2,18.2c-1.6,2.8-0.9,7.2,3.9,7.2
		c3.2,0,6.8-1.9,8.6-6c0.5-1.1,0.6-2.4,0.6-3.4c0-3.9-2.9-6.8-3-12.1c0-1.8,0.1-4.1,1-6.6c1.1-3,3-4.5,3-5.3
		C571.1,409.8,571.1,409,569.5,409z"/>
	<path style="fill:#5D4037;" d="M591.2,431.1c0,0-2.1,1.5-2.1,3.1s2.4,4,2.4,4s1.6-0.8,1.6-3.2C593.1,434.2,591.2,431.1,591.2,431.1
		z"/>
	<path style="fill:#795548;" d="M515,406l13,6c0,0,10.2-5.4,11-11c0,0-14-5.6-20.5-9.8c-3.7-2.4-8.5-2.2-8.5-2.2S515,393.9,515,406z
		"/>
	<path style="fill:#8D6E63;" d="M556,411.8c-1.7,0.3-8.2,7.2-17,8.8c-4.4,0.8-4.1,6.5-4.1,11.4c0,7.9-6,9-8.8,9
		c-2.3,0-4.1-1-4.1-3.3V437c0-1.7,1.4-3,3-3h1.8c0.8,0,1.5-0.4,1.8-1.1l0,0c0.3-0.6,0.3-1.2,0.1-1.8c-1-2.7-2.8-10.5-2.8-13.8
		c0-2,0.4-3.8,2-5.4c1.7-1.7,8.5-6,10.9-11l6.5,8.4L556,411.8z"/>
	<path style="fill:#FFAB40;" d="M556.9,415l-2-0.5c-0.6-0.1-0.9-0.7-0.8-1.3c2.8-10.6,11.5-16.6,15.4-19.1c0.5-0.3,1.1-0.1,1.4,0.4
		l1.1,1.8c0.3,0.5,0.1,1.1-0.3,1.4c-5,3.2-11.3,8.2-13.5,16.5C557.9,414.8,557.4,415.1,556.9,415z"/>
	<path style="fill:#795548;" d="M576.1,418c0,0,0.2-1,2.3-1c2,0,2.7,2.1,2.7,3.1c0,1.1-1,1.9-2,1.9s-2-0.8-2-1.5c0-1,1-1.5,1-1.5
		S578.4,418,576.1,418z"/>
</g>
</svg>
