<svg id="Layer_1" data-name="Layer 1" xmlns="http://www.w3.org/2000/svg" xmlns:xlink="http://www.w3.org/1999/xlink" width="800" height="600" viewBox="0 0 800 600">
  <defs>
    <radialGradient id="radial-gradient" cx="736.97" cy="537.14" r="280.78" gradientTransform="matrix(1.42, 0, 0, -1.38, -641.9, 1131.89)" gradientUnits="userSpaceOnUse">
      <stop offset="0" stop-color="#b3b3b3"/>
      <stop offset="0.47" stop-color="#b3b3b3"/>
      <stop offset="0.54" stop-color="#b5b5b5" stop-opacity="0.98"/>
      <stop offset="0.62" stop-color="#bababa" stop-opacity="0.91"/>
      <stop offset="0.71" stop-color="#c3c3c3" stop-opacity="0.79"/>
      <stop offset="0.79" stop-color="#cfcfcf" stop-opacity="0.64"/>
      <stop offset="0.87" stop-color="#dedede" stop-opacity="0.43"/>
      <stop offset="0.95" stop-color="#f1f1f1" stop-opacity="0.18"/>
      <stop offset="1" stop-color="#fff" stop-opacity="0"/>
    </radialGradient>
    <radialGradient id="radial-gradient-2" cx="208.5" cy="961.5" r="59.5" gradientTransform="matrix(1, 0, 0, -1, 0, 1150)" gradientUnits="userSpaceOnUse">
      <stop offset="0.76" stop-color="#e1e1e1"/>
      <stop offset="0.78" stop-color="#e6e6e6" stop-opacity="0.64"/>
      <stop offset="0.8" stop-color="#ececec" stop-opacity="0.3"/>
      <stop offset="0.81" stop-color="#efefef" stop-opacity="0.08"/>
      <stop offset="0.82" stop-color="#f0f0f0" stop-opacity="0"/>
    </radialGradient>
    <linearGradient id="linear-gradient" x1="400" y1="757" x2="400" y2="633" gradientTransform="matrix(1, 0, 0, -1, 0, 1150)" gradientUnits="userSpaceOnUse">
      <stop offset="0" stop-color="#e0e0e0"/>
      <stop offset="0.29" stop-color="#e0e0e0" stop-opacity="0.99"/>
      <stop offset="0.43" stop-color="#e1e1e1" stop-opacity="0.96"/>
      <stop offset="0.54" stop-color="#e3e3e3" stop-opacity="0.9"/>
      <stop offset="0.64" stop-color="#e6e6e6" stop-opacity="0.81"/>
      <stop offset="0.72" stop-color="#e9e9e9" stop-opacity="0.71"/>
      <stop offset="0.8" stop-color="#ededed" stop-opacity="0.57"/>
      <stop offset="0.87" stop-color="#f2f2f2" stop-opacity="0.41"/>
      <stop offset="0.93" stop-color="#f8f8f8" stop-opacity="0.23"/>
      <stop offset="0.99" stop-color="#fefefe" stop-opacity="0.03"/>
      <stop offset="1" stop-color="#fff" stop-opacity="0"/>
    </linearGradient>
    <radialGradient id="radial-gradient-3" cx="589.6" cy="-783.2" r="78.65" gradientTransform="translate(1.02 1101.16)" gradientUnits="userSpaceOnUse">
      <stop offset="0" stop-color="#e0e0e0"/>
      <stop offset="1" stop-color="#ccc" stop-opacity="0"/>
    </radialGradient>
    <radialGradient id="radial-gradient-4" cx="400" cy="-227.02" r="256.27" gradientTransform="translate(0 550.02)" gradientUnits="userSpaceOnUse">
      <stop offset="0" stop-color="#cfcfcf"/>
      <stop offset="1" stop-color="#d4d4d4"/>
    </radialGradient>
    <linearGradient id="linear-gradient-2" x1="399" y1="-608.63" x2="399" y2="-626.63" gradientTransform="translate(0 1070.63)" gradientUnits="userSpaceOnUse">
      <stop offset="0" stop-color="#fff" stop-opacity="0"/>
      <stop offset="1" stop-color="#b3b3b3" stop-opacity="0.8"/>
    </linearGradient>
    <radialGradient id="radial-gradient-5" cx="474.96" cy="856.5" r="4.82" gradientTransform="matrix(1, 0, 0, -1, 0, 1150)" gradientUnits="userSpaceOnUse">
      <stop offset="0.76" stop-color="#ebebeb"/>
      <stop offset="0.77" stop-color="#ececec" stop-opacity="0.86"/>
      <stop offset="0.78" stop-color="#eee" stop-opacity="0.66"/>
      <stop offset="0.79" stop-color="#f0f0f0" stop-opacity="0.48"/>
      <stop offset="0.8" stop-color="#f2f2f2" stop-opacity="0.33"/>
      <stop offset="0.81" stop-color="#f3f3f3" stop-opacity="0.21"/>
      <stop offset="0.82" stop-color="#f4f4f4" stop-opacity="0.12"/>
      <stop offset="0.83" stop-color="#f4f4f4" stop-opacity="0.05"/>
      <stop offset="0.85" stop-color="#f5f5f5" stop-opacity="0.01"/>
      <stop offset="0.87" stop-color="#f5f5f5" stop-opacity="0"/>
    </radialGradient>
  </defs>
  <title>28_Working_Remotely-01-01</title>
  <g>
    <g>
      <rect width="800" height="600" style="fill: #fff"/>
      <rect width="800" height="600" style="fill: url(#radial-gradient)"/>
    </g>
    <g>
      <g>
        <circle cx="208.5" cy="188.5" r="41.5" style="fill: #cdcdcd"/>
        <path d="M250,188.5a41.51,41.51,0,0,1-62,36.07,294.45,294.45,0,0,1,60.46-47.45A41.26,41.26,0,0,1,250,188.5Z" style="fill: #c8c8c8"/>
        <g>
          <path d="M244.94,186.61,241,185.48h0l-.47-.14a23.88,23.88,0,0,0-9.49.2c-5.8,1.72-2.45,6.06-9.38,4.08-.89-.25-.93-4.36-.48-5.93.19-.67,3.25-1.25,4.57-1.6a2.35,2.35,0,0,0,1.82-2.14l-1.31-3a2.58,2.58,0,0,1,1.36-2.26L233,172.6a5.9,5.9,0,0,0,2.85-2.32l6.25-6.14A41.26,41.26,0,0,1,250,188.5" style="fill: #b6b6b6"/>
          <path d="M219.43,213.69h0c.33,1.13,1.51,5.49,2.5,10.12.17.88.45,2.09.73,3.29a40.85,40.85,0,0,0,7.91-4.15,42.39,42.39,0,0,0,6.45-5.36l-17.67-4.19A2.45,2.45,0,0,1,219.43,213.69Z" style="fill: #afafaf"/>
          <path d="M208.69,162l-3.19,11.18c-1.28,4.47-5.08,3.38-8,2.56-7.16-2-7.86,2.11-8.63,4.79s-1.27,4.47-3.28,3.89-.07-4.85-3.42-5.81l-2-.56-10.94-3.12a41.55,41.55,0,0,1,32.4-27.36,19.4,19.4,0,0,0-2.41,4.25c-.77,2.68,1.95,4.18,5.75,5.27C209.48,158.36,208.88,161.32,208.69,162Z" style="fill: #b9b9b9"/>
          <path d="M201.67,203.5h0l-1.71,6s-3,3.78-3.71,4.55a76,76,0,0,0-8.87,10.17,41,41,0,0,1-5-3.48c-.7-.57-1.37-1.16-2-1.77l2.5-8.77V193.3l2.54-1.41.34-.19,1.78.5,3.58,1c1.57.45,3.13,2.59,4.09,4.3C197.16,202.2,199,202.72,201.67,203.5Z" style="fill: #b9b9b9"/>
          <path d="M250,188.5A41.43,41.43,0,0,1,231.58,223a21.14,21.14,0,0,0-11.07-9.26h-.08c-.91-.38-8.47-3.88-6.31-11.46.71-2.45,2.56-8.94,13.74-5.75,6.7,1.92,11.81,1,12.45-1.28,1.91-6.7.32-9.58.32-9.58a1.77,1.77,0,0,0,.31-.15H241c2.45-1.36,4.16-6.32,7.51-8.08A41.3,41.3,0,0,1,250,188.5Z" style="fill: #9b9b9b"/>
          <path d="M202.91,207.52c-2.07,7.36-6.67,6.53-6.67,6.53-3.33-.93-11.27,1-13.87,6.69-.7-.57-1.37-1.16-2-1.77s-1.38-1.31-2-2c.57-4.84-1-13,1-19.82,1.29-4.47-4.43-9-5.84-10.86-1.89-2.49-4.21-5.48-5.09-8.28.27-1,.58-2.07.94-3.08a41.35,41.35,0,0,1,10.27-16.15,12.55,12.55,0,0,1,1.06,8.28c-1,3.36,2.75,7.32,1.6,11.34a8,8,0,0,0-2-.35c-2-.07-3,.94-3.31,2l-.63,2.23c-.33,1.13.37,2,1.72,2.43,1.79.51,1.88,1,1.56,2.14s.29,3.23,1.63,3.61l4.25,1.21-.07.25c-2.36,8.54.94,12.1,5.37,13.35,8.5,2.43,10.89-1.72,10.89-1.72h0C203,203.94,203.16,206.63,202.91,207.52Z" style="fill: #aaa"/>
        </g>
      </g>
      <path d="M208.5,129A59.5,59.5,0,1,0,268,188.5,59.5,59.5,0,0,0,208.5,129Zm0,101A41.5,41.5,0,1,1,250,188.5h0A41.5,41.5,0,0,1,208.5,230Z" style="fill: url(#radial-gradient-2)"/>
    </g>
    <path d="M615.24,227.87a293.48,293.48,0,0,0-98.09-68.15,301.13,301.13,0,0,0-234.3,0A292.74,292.74,0,0,0,188,224.57c-1.08,1.09-2.14,2.19-3.2,3.3C127.57,288,96.05,370.26,96,459.62c1.29,1.3,14,13.23,56.69,25.28,25.54,7.22,56.66,13,92.48,17.14,44.6,5.18,96.7,7.85,154.84,8,58.12-.11,110.22-2.78,154.82-8,35.82-4.15,66.94-9.92,92.48-17.14,42.64-12,55.4-24,56.69-25.28C704,370.27,672.44,288,615.24,227.87Z" style="fill: #fff;opacity: 0.44999998807907104;isolation: isolate"/>
    <g>
      <path d="M374.5,93l1,7.16a1.55,1.55,0,0,0,.44.87,1.61,1.61,0,0,0,.87.44l7.15,1-7.16,1a1.55,1.55,0,0,0-.87.44,1.61,1.61,0,0,0-.44.87l-1,7.15-1-7.16A1.51,1.51,0,0,0,373,104a1.61,1.61,0,0,0-.87-.44l-7.15-1,7.16-1A1.52,1.52,0,0,0,373,101a1.61,1.61,0,0,0,.44-.87Z" style="fill: #fff"/>
      <path d="M633.5,195l1.37,9.42a2,2,0,0,0,.57,1.14,2.08,2.08,0,0,0,1.14.58L646,207.5l-9.42,1.37a2,2,0,0,0-1.72,1.71L633.5,220l-1.37-9.42a2,2,0,0,0-.57-1.14,2.08,2.08,0,0,0-1.14-.58L621,207.5l9.42-1.37a2,2,0,0,0,1.72-1.71Z" style="fill: #fafafa"/>
      <path d="M253.5,380l.82,5.65a1.24,1.24,0,0,0,.35.69,1.11,1.11,0,0,0,.68.34l5.65.82-5.65.82a1.24,1.24,0,0,0-.69.35,1.11,1.11,0,0,0-.34.68L253.5,395l-.82-5.65a1.24,1.24,0,0,0-.35-.69,1.11,1.11,0,0,0-.68-.34L246,387.5l5.65-.82a1.24,1.24,0,0,0,.69-.35,1.11,1.11,0,0,0,.34-.68Z" style="fill: #fafafa"/>
      <circle cx="288" cy="131" r="3" style="fill: #fff"/>
      <path d="M405.5,248l.6,4.15a1,1,0,0,0,.25.5,1,1,0,0,0,.51.25l4.14.6-4.15.6a1,1,0,0,0-.5.25,1,1,0,0,0-.25.51l-.6,4.14-.6-4.15a1,1,0,0,0-.25-.5,1,1,0,0,0-.51-.25l-4.14-.6,4.15-.6a1,1,0,0,0,.5-.25,1,1,0,0,0,.25-.51Z" style="fill: #fafafa"/>
      <path d="M464.5,199l.6,4.15a1,1,0,0,0,.25.5,1,1,0,0,0,.51.25l4.14.6-4.15.6a1,1,0,0,0-.5.25,1,1,0,0,0-.25.51l-.6,4.14-.6-4.15a1,1,0,0,0-.25-.5,1,1,0,0,0-.51-.25l-4.14-.6,4.15-.6a1,1,0,0,0,.5-.25,1,1,0,0,0,.25-.51Z" style="fill: #fafafa"/>
      <path d="M233.5,285l1.15,7.91a1.66,1.66,0,0,0,.48,1,1.73,1.73,0,0,0,1,.49l7.87,1.1-7.91,1.15a1.66,1.66,0,0,0-1,.48,1.73,1.73,0,0,0-.49,1L233.5,306l-1.15-7.91a1.66,1.66,0,0,0-.48-1,1.73,1.73,0,0,0-1-.49L223,295.5l7.91-1.15a1.66,1.66,0,0,0,1-.48,1.73,1.73,0,0,0,.49-1Z" style="fill: #fafafa"/>
      <path d="M164.5,363l.6,4.15a1,1,0,0,0,.25.5,1,1,0,0,0,.51.25l4.14.6-4.15.6a1,1,0,0,0-.5.25,1,1,0,0,0-.25.51l-.6,4.14-.6-4.15a1,1,0,0,0-.25-.5,1,1,0,0,0-.51-.25l-4.14-.6,4.15-.6a1,1,0,0,0,.5-.25,1,1,0,0,0,.25-.51Z" style="fill: #fafafa"/>
      <path d="M554.5,251l.6,4.15a1,1,0,0,0,.25.5,1,1,0,0,0,.51.25l4.14.6-4.14.6a.87.87,0,0,0-.76.76l-.6,4.14-.6-4.15a1,1,0,0,0-.25-.5,1,1,0,0,0-.51-.25l-4.14-.6,4.14-.6a.87.87,0,0,0,.76-.76Z" style="fill: #fafafa"/>
      <path d="M222.5,363l.6,4.14a.87.87,0,0,0,.76.76l4.14.6-4.14.6a.87.87,0,0,0-.76.76l-.6,4.14-.6-4.15a1,1,0,0,0-.25-.5.91.91,0,0,0-.51-.25l-4.14-.6,4.14-.6a.87.87,0,0,0,.76-.76Z" style="fill: #fafafa"/>
      <path d="M670.5,373l.6,4.15a.87.87,0,0,0,.26.5,1,1,0,0,0,.5.25l4.14.6-4.14.6a.87.87,0,0,0-.76.76l-.6,4.14-.6-4.15a1,1,0,0,0-.25-.5,1,1,0,0,0-.51-.25l-4.14-.6,4.15-.6a1,1,0,0,0,.5-.25,1,1,0,0,0,.25-.51Z" style="fill: #fafafa"/>
      <path d="M373.5,173l.82,5.65a1.24,1.24,0,0,0,.35.69,1.11,1.11,0,0,0,.68.34l5.65.82-5.65.82a1.24,1.24,0,0,0-.69.35,1.11,1.11,0,0,0-.34.68L373.5,188l-.82-5.65a1.24,1.24,0,0,0-.35-.69,1.11,1.11,0,0,0-.68-.34L366,180.5l5.65-.82a1.24,1.24,0,0,0,.69-.35,1.11,1.11,0,0,0,.34-.68Z" style="fill: #fff"/>
      <path d="M604.5,383l.82,5.65a1.24,1.24,0,0,0,.35.69,1.11,1.11,0,0,0,.68.34l5.65.82-5.65.82a1.24,1.24,0,0,0-.69.35,1.11,1.11,0,0,0-.34.68L604.5,398l-.82-5.65a1.24,1.24,0,0,0-.35-.69,1.11,1.11,0,0,0-.68-.34L597,390.5l5.65-.82a1.24,1.24,0,0,0,.69-.35,1.11,1.11,0,0,0,.34-.68Z" style="fill: #fff"/>
      <path d="M501.5,268l.82,5.65a1.24,1.24,0,0,0,.35.69,1.11,1.11,0,0,0,.68.34l5.65.82-5.65.82a1.24,1.24,0,0,0-.69.35,1.11,1.11,0,0,0-.34.68L501.5,283l-.82-5.65a1.24,1.24,0,0,0-.35-.69,1.11,1.11,0,0,0-.68-.34L494,275.5l5.65-.82a1.24,1.24,0,0,0,.69-.35,1.11,1.11,0,0,0,.34-.68Z" style="fill: #fff"/>
      <path d="M528.5,206l1.5,10.17a2.19,2.19,0,0,0,.62,1.24,2.26,2.26,0,0,0,1.23.62L542,219.5,531.83,221a2.2,2.2,0,0,0-1.86,1.85L528.5,233,527,222.83a2.19,2.19,0,0,0-.62-1.24,2.26,2.26,0,0,0-1.23-.62L515,219.5l10.17-1.5a2.2,2.2,0,0,0,1.86-1.85Z" style="fill: #fff"/>
      <circle cx="525" cy="101" r="3" style="fill: #fafafa"/>
      <circle cx="481" cy="121" r="2" style="fill: #fff"/>
      <circle cx="639" cy="403" r="2" style="fill: #fff"/>
      <circle cx="583" cy="127" r="4" style="fill: #fafafa"/>
      <circle cx="144" cy="317" r="3" style="fill: #eee"/>
      <circle cx="376" cy="281.07" r="3" style="fill: #eee"/>
      <circle cx="140" cy="242" r="2" style="fill: #fafafa"/>
    </g>
    <g>
      <path d="M779,517S692.29,393,400,393,21,517,21,517H0v83H800V517Z" style="fill: #fff"/>
      <path d="M21,517s86.71-124,379-124S779,517,779,517Z" style="fill: url(#linear-gradient)"/>
    </g>
    <g>
      <circle cx="589.5" cy="318.5" r="78.5" style="fill: url(#radial-gradient-3)"/>
      <circle cx="589.5" cy="318.5" r="18.5" style="fill: #fff"/>
    </g>
    <path d="M400,140a293.12,293.12,0,0,1,115.58,23.4,289.55,289.55,0,0,1,96.77,67.23c56.1,58.95,87.18,139.58,87.64,227.19-4,3.24-18.66,13.44-54.88,23.55-25.38,7.08-56.25,12.74-91.77,16.82-44.22,5.08-95.81,7.7-153.33,7.81-57.54-.11-109.13-2.73-153.35-7.81-35.52-4.08-66.39-9.74-91.77-16.82C118.65,471.25,104,461.05,100,457.82c.47-87.64,31.55-168.25,87.65-227.19a289.41,289.41,0,0,1,96.76-67.23A293.16,293.16,0,0,1,400,140m0-8c-82.87,0-161,33.07-218.14,93.12C123.91,286,92,369.36,92,459.85a3.5,3.5,0,0,0,1,2.43c2,2.1,51.94,51.25,307,51.72,255.06-.47,305-49.62,307-51.72a3.5,3.5,0,0,0,1-2.43c0-90.49-31.91-173.85-89.86-234.73C561,165.07,482.87,132,400,132Z" style="fill: url(#radial-gradient-4)"/>
  </g>
  <g>
    <g>
      <path d="M440.25,331H426a2,2,0,0,1,0-4h14.25a28.81,28.81,0,0,0,6.28-.59h.16c.32-.06,3.31-.65,3.31-3.45a19.79,19.79,0,0,0-.67-4.19c-2.07-8.92-4.23-16.59-5.66-21.66l-.15-.52c-.16-.57-.34-1.23-.53-1.93-1-3.73-3.65-13.63-6.52-13.63a2,2,0,0,1,0-4c5.94,0,8.51,9.59,10.39,16.59.18.69.35,1.32.51,1.88l.15.53c1.44,5.1,3.62,12.82,5.71,21.83A24.09,24.09,0,0,1,454,323c0,5-4.27,7-6.61,7.39A31.67,31.67,0,0,1,440.25,331Z" style="fill: #ebebeb"/>
      <path d="M441.77,238.43l-1-.43L424,320h1.06a5.4,5.4,0,0,0,5.31-4.21l14.52-71.38A5.34,5.34,0,0,0,441.77,238.43Z" style="fill: #fafafa"/>
    </g>
    <path d="M568,444h0a18,18,0,0,1-18,18H248a18,18,0,0,1-18-18Z" style="opacity: 0.20000000298023224;isolation: isolate;fill: url(#linear-gradient-2)"/>
    <g>
      <path d="M387,318l5,1h7.27a10.57,10.57,0,0,1,1.49.13c.92.16,2.5.44,3.57.69a3.17,3.17,0,0,1,1.84,1.1c1.08,1.36,4.82,4.78,4.83,5.79,0,.23-.05.75-.83.82-.95.09-6.14-3-6.14-3l-4-.59-1,1a16.49,16.49,0,0,0,3,1.35c1,.35,1,.68,1,1.18,0,.21-.09.68-.8.75-1.13.12-3.4-.28-5.12-.28a8.48,8.48,0,0,1-5.08-2h-7Z" style="fill: #4d3e34"/>
      <path d="M343,279c-4,0-9,1-9,14,0,6,2.22,22.78,8,30,4,5,37.62,3,43,3l2-8s-14.91-3.16-30.72-5.8c0,0-1.32-5.44-3.51-15.92C350,283,347.12,279,343,279Z" style="fill: #1b3963"/>
      <path d="M344,276h0c5,3,9,15.49,9,26,0,13-3,27-2,40a87.37,87.37,0,0,1,0,15H320V276Z" style="fill: #22477d"/>
      <g>
        <path d="M345.72,428.62A5,5,0,0,1,345,426a4.66,4.66,0,0,1,1.44-3c4.56-5,6.56-7,6.56-7l8,6a10.7,10.7,0,0,0-3,8,9.64,9.64,0,0,0,2,6s4,2,4,8h-6.34a4,4,0,0,1-3.38-1.87Z" style="fill: #212121"/>
        <path d="M337,368c12,3,29,5,29,5-7,18-17,46-17,46l13,6s28.72-42,28.72-57.7C390.72,359,384,349,344,344c-13.94-1.74-19,5-19,11C325,363,331,366.5,337,368Z" style="fill: #6d4c41"/>
      </g>
      <g>
        <path d="M395,426s.35,1.47,5,11c1.26,2.58,2.08,7,5,7,1.77,0,21.49-8.14,24-9,0-2-3-5-8-5-4,0-8,1-10,1s-5-9-5-9Z" style="fill: #212121"/>
        <path d="M327,350c-19.89,0-27,8-27,8s0,21,19,21h51c0,10,24.93,50.52,25,51l13-6s-13-40.33-19.89-57.8c-1.37-3.47-4.11-6.2-11.44-8.87C357.31,350.29,330.86,350,327,350Z" style="fill: #8d6e63"/>
      </g>
      <path d="M390,331H373c0-4,2-5,6-5C389,326,390,331,390,331Z" style="fill: #fafafa"/>
      <path d="M365,322h3c1.45,0,7.08-2,10-2,1.5,0,5.29,1.4,7,2,1.54.54,4,4.81,4,6,0,.74-.28,1-1,1-1,0-4-1-8-1-1.51,0-7,1-9,1h-6Z" style="fill: #6d584a"/>
      <path d="M350,271a12.27,12.27,0,0,1-5-1,14.64,14.64,0,0,0-1,6c0,2-1,4-3,4-17,0-14-14-14-14s3-3,3-5v-8c0-15,5-22,16-22s19,7.71,19,16C365,258,358,271,350,271Z" style="fill: #6d584a"/>
      <path d="M346,228c-15,0-18,12-18,18,0,5.22,1.84,9.52,2,12,.05.85,0,3,0,3s7.43-.77,10.42-2.49A3,3,0,0,0,342,256a20.35,20.35,0,0,1-1-5,3.76,3.76,0,0,1,3-4c2,0,3,1.24,3,5a2.78,2.78,0,0,0,3-2c.56-2.28,2.71-8,5-8,2,0,5,5,10,5C365,240,363,228,346,228Z" style="fill: #212121"/>
      <path d="M348,328a140.6,140.6,0,0,0,2-31c-.54-15.28-6-21-6-21s-1,1-4,1c-9,0-13-9-13-9l-7,8v81h14s12-4.15,12-12C346,343.24,347.13,333.11,348,328Z" style="fill: #ffb300"/>
      <path d="M327,266s-13,9-19,20.62c-5.69,11-6.95,32.79-6.75,42.27C301,352,299,354,299,365c0,0,3.95,4,18,4s18.91-9.18,19-11c.43-8.76,0-17,2-33,.62-5,4-15,4-25a30.2,30.2,0,0,0-5-17C327,269,327,266,327,266Z" style="fill: #22477d"/>
      <path d="M323,282c-7,0-11,6-11,24,0,7.95,1.4,18.53,5,22,2.16,2.09,9,3,16,3h32v-9c-13-3-33-7-33-7V299C332,289,330,282,323,282Z" style="fill: #254e8a"/>
    </g>
    <g>
      <path d="M417,331H395v-1.11a1,1,0,0,1,.91-1l20-1.87a1,1,0,0,1,1.09.9h0Z" style="fill: #fafafa"/>
      <polygon points="417 331 395 331 417 329 417 331" style="fill: #e0e0e0"/>
    </g>
    <g>
      <path d="M272,279c0,37.75,12,44.64,12,71,0,21.07-1.48,41,26.63,41H353v-7a5,5,0,0,0-5-5H310.63c-3.88,0-9-.48-11.26-2.77-3.44-3.46-3.41-13.48-3.38-23.18V350c0-13.83-2.92-23.17-5.74-32.22-3.08-9.85-6.26-20-6.26-38.78h0a5,5,0,0,0-5-4.95h-7Z" style="fill: #546e7a"/>
      <path d="M348,396H310.63c-10.47,0-18.09-2.54-23.3-7.77C278.9,379.77,279,366.77,279,353v-3c0-11.24-2.3-18.61-5-27.15-3.29-10.56-7-22.52-7-43.85a5,5,0,0,1,5-5h5v5c0,19.81,3.34,30.51,6.58,40.87C286.37,328.8,289,337.24,289,350v3c0,11.64-.07,22.63,5.42,28.14,3.24,3.25,8.55,4.83,16.22,4.83H353v5a5,5,0,0,1-5,5Z" style="fill: #455a64"/>
      <path d="M321,392a3,3,0,0,1-1.28-5.71c.17-.08,17.28-8.38,17.28-20.46,0-2.71-.66-5.83-5.83-5.83H285a3,3,0,0,1,0-6h46.17c7.3,0,11.83,4.53,11.83,11.83,0,15.89-19.87,25.48-20.72,25.88A3,3,0,0,1,321,392Z" style="fill: #263238"/>
      <path d="M336.1,440.69S334,437,319,437c-9.91,0-14.15,1.62-15.8,2.59a3.52,3.52,0,0,0-1.27,1.06l-1.3-.41-1-.19-3.63-.29c.16-2.05,2.31-8.76,23-8.76s22.83,6.71,23,8.76l-6,.48A1.14,1.14,0,0,0,336.1,440.69Z" style="fill: #263238"/>
      <path d="M353,445.46c-.58-2.36-7.81-8.46-34-8.46s-33.46,6.1-34,8.46a.81.81,0,0,0,0-.22l-6-.48c.18-2.3,3-13.76,40-13.76s39.81,11.46,40,13.76l-6,.48A.81.81,0,0,0,353,445.46Z" style="fill: #546e7a"/>
      <rect x="313" y="396" width="12" height="37" style="fill: #37474f"/>
      <rect x="311" y="427" width="16" height="12" rx="3" ry="3" style="fill: #455a64"/>
      <g>
        <path d="M319,451a3,3,0,0,1-3-3V434a3,3,0,0,1,6,0h0v14A3,3,0,0,1,319,451Z" style="fill: #78909c"/>
        <rect x="315" y="448" width="8" height="7" rx="2" ry="2" style="fill: #263238"/>
        <rect x="278" y="444" width="8" height="7" rx="2" ry="2" style="fill: #263238"/>
        <rect x="295" y="439" width="8" height="7" rx="2" ry="2" style="fill: #263238"/>
        <rect x="335" y="439" width="8" height="7" rx="2" ry="2" style="fill: #263238"/>
        <rect x="352" y="444" width="8" height="7" rx="2" ry="2" style="fill: #263238"/>
      </g>
    </g>
    <g id="surface1">
      <path d="M502,314a10.62,10.62,0,0,0-5.48-9.13l1-1.76A12.63,12.63,0,0,1,504,314Z" style="fill: #33691e"/>
      <path d="M503,314l-2-.06a10.74,10.74,0,0,0-4.58-9.15l1.16-1.64A12.79,12.79,0,0,1,503,314Z" style="fill: #33691e"/>
      <path d="M503,314a12.79,12.79,0,0,1,5.42-10.85l1.16,1.64A10.74,10.74,0,0,0,505,314Z" style="fill: #33691e"/>
      <path d="M511.5,296c4.31,0,9.23,3.39,10.5,4.31-2.75,1.07-4.6,4.41-9.47,5.05-3.25.41-4-.77-4-.77s-2.57-.25-2.57-4C506,298.65,507.64,296,511.5,296Z" style="fill: #558b2f"/>
      <path d="M512.8,310.92c4.65-.65,6.41-9.54,9.2-10.61-2.17-.32-5.58,1-13.43,4.28C506.81,309.42,509.39,311.45,512.8,310.92Z" style="fill: #33691e"/>
      <path d="M497.54,296.85c-4.24-2.09-10.86.26-12.54.86,2.47,1.48,2.12,9.46,6.63,10.94,3.18,1,5.65-.17,5.91-4.51C501.08,302.14,500.55,298.32,497.54,296.85Z" style="fill: #558b2f"/>
      <path d="M491.63,308.65c-4.51-1.48-4.16-9.46-6.63-10.94,2.21.18,5.39,2.09,12.54,6.43C497.28,308.48,494.89,309.69,491.63,308.65Z" style="fill: #33691e"/>
      <rect x="502" y="298" width="2" height="15" style="fill: #33691e"/>
      <path d="M503,287a11.61,11.61,0,0,0-3,7.38c0,4.62,3,4.62,3,4.62s3,0,3-2.77C506,293.82,503,291.62,503,287Z" style="fill: #558b2f"/>
      <path d="M492,316l3,15h16l3-15Z" style="fill: #e64a19"/>
      <path d="M514,319H492a1,1,0,0,1-1-1v-4h24v4A1.08,1.08,0,0,1,514,319Z" style="fill: #bf360c"/>
    </g>
    <g>
      <rect x="463" y="312" width="32" height="10" style="fill: #ffb300"/>
      <rect x="468" y="312" width="2" height="10" style="fill: #ff8f00"/>
      <rect x="488" y="312" width="2" height="10" style="fill: #ff8f00"/>
      <rect x="473" y="315" width="12" height="4" style="fill: #ff8f00"/>
    </g>
    <g>
      <rect x="463" y="322" width="32" height="9" style="fill: #2e7d32"/>
      <rect x="468" y="322" width="2" height="9" style="fill: #7cb342"/>
      <rect x="488" y="322" width="2" height="9" style="fill: #7cb342"/>
      <rect x="473" y="325" width="12" height="3" style="fill: #7cb342"/>
    </g>
    <g>
      <rect x="467" y="303" width="27" height="9" style="fill: #1565c0"/>
      <rect x="470" y="303" width="2" height="9" style="fill: #64b5f6"/>
      <rect x="489" y="303" width="2" height="9" style="fill: #64b5f6"/>
      <rect x="475" y="306" width="11" height="3" style="fill: #64b5f6"/>
    </g>
    <g>
      <g>
        <path d="M478,288l1,11h-3.71a3,3,0,0,1-2.89-2.21l-1.37-5a3,3,0,0,1,2.1-3.68,3.09,3.09,0,0,1,.8-.11Z" style="fill: url(#radial-gradient-5)"/>
        <path d="M480.09,300h-4.8a4,4,0,0,1-3.85-2.95l-1.37-5a3.93,3.93,0,0,1,.38-3,4,4,0,0,1,2.42-1.88,4.15,4.15,0,0,1,1.05-.14h5Zm-6.16-11a1.88,1.88,0,0,0-.53.07,2,2,0,0,0-1.4,2.46h0l1.37,5a2,2,0,0,0,1.92,1.47h2.62l-.82-9Z" style="fill: #1b3963"/>
      </g>
      <path d="M477,303h12a111.16,111.16,0,0,0,2-19,1,1,0,0,0-1-1H476a1,1,0,0,0-1,1A111.16,111.16,0,0,0,477,303Z" style="fill: #254e8a"/>
    </g>
    <g>
      <polygon points="516.99 391.25 517 446 508.01 446 508 391.25 508.01 336 517 336 516.99 391.25" style="fill: #4e342e"/>
      <polygon points="473.99 390.75 474 446 465.01 446 465 390.75 465.01 336 474 336 473.99 390.75" style="fill: #4e342e"/>
      <rect x="371" y="331" width="160" height="11" style="fill: #6d4c41"/>
      <rect x="425" y="436" width="106" height="10" style="fill: #6d4c41"/>
    </g>
  </g>
</svg>
