<svg xmlns="http://www.w3.org/2000/svg" viewBox="0 0 2628.5 1856.98"><title>comingSoon</title><g id="Layer_2" data-name="Layer 2"><g id="Layer_2-2" data-name="Layer 2"><g id="Ot41GL.tif"><path d="M425.31,992.43l.09.21h.06c0-.06,0-.12.06-.18A.51.51,0,0,1,425.31,992.43ZM688.83,558.28s0,0,0,.06l.27,0C689,558.31,688.92,558.28,688.83,558.28Zm828.41,193a15.93,15.93,0,0,0,2.34-.59v0A23.15,23.15,0,0,1,1517.24,751.26Zm-3.4.09a8.48,8.48,0,0,0,2.31.06A9.75,9.75,0,0,1,1513.84,751.35Zm11.5,133.76a6.4,6.4,0,0,1,2.28-.5v0A5.85,5.85,0,0,0,1525.35,885.1Z" style="fill:#52b5c9;"/><path d="M1682.13,555.94c-5.5-3.87-5.53-9.9-6.45-15.7-1.36-8.87-7.21-15.32-15.64-13.6-6.92,1.42-7.18-.09-7.78-5.53-1.36-12-11.68-19.54-19-25.93-5.41-4.76-13.72-9.28-20.19-14.28-5.23-4-9-7.75-15-2.37-4.52,4.11-10.5,1.27-11.47-1.36-1.45-3.87-4.91-6.24-4.94-12.09-.18-17.47,17.06-25.34,19.6-41.78,1.24-8.28,7.45-17.15,7.1-26.73-.53-14.28-3.58-28.59-2.78-42.75,1.12-20.55-9.46-33.44-24.69-43.85-2.84-2-4.23-1.89-3-5.71,2.34-7.51-2.72-11.47-8.19-15.43-7.54-5.5-15.14-11.12-21.79-17.62-5.8-5.68-5.29-6.24-10,2.69-1.3-6.5-2.87-11.47-10-13.16-20.31-4.79-37.19-18.63-59.72-19.19-22.91-.56-45.62-6.3-68.42,1.51-8.16,2.78-13.25,2.72-12.92-9.88.47-17.53-.89-35.36-5.91-52.78-1.24-4.32-6.95-4.14-6-12,1.83-14.58-6.5-28.95-17.06-39.71-7.51-7.69-9-22.65-24.3-21.67.47-9.9-7-12.8-14.19-15.7-5.59-2.25-16.88,4.11-14.58-10.08.18-1.21-4.38-2.48-6.36-.44-9,9.28-16.65,7.07-23.8-2.19-2-2.6-4.91-2.6-7.81-3.25-14.22-3.25-28.41,1.45-42.87-.5-8.52-1.12-21.73-.65-19.84,17.74-4.85-16.44-15.08-6.5-21.76-6.53-10.82-.09-7.6,12.33-10.79,20.16-6.59-3.93-10.35-8-13.22-14.25-4-8.72-8.25-18.72-15.43-24.3-21.08-16.32-37.52-38.67-64.4-47.81-13.63-4.64-25.72-12.45-40.33-16.56-21.35-6-40.68-2.87-60.43,1.77-10.17,2.37-21.7,4.41-27.53,16.26-1.72,3.43-8.25,4.29-12.3,6.77C915.07,42.23,891.51,55,876.31,79.25c-5.53,8.87-6.62,23.12-20.76,26-3.22-20.93-17-27.17-34.86-13.87,4.17-13.75-3.25-14-12.65-16.14-10-2.34-19.19,4.46-28,.47-10.58-4.76-20.49-2-27.53,4.2-8,7-14.28,9.14-22.2,2.13-3.4-3-8.4-2.57-7.92.15,2,11.21-5.35,7.72-10.94,8.78-5.11,1-12.77,2.9-14.19,6.45-5.38,13.45-20.19,17.06-27.08,29.51-7.81,14-18.8,26.14-16.94,43.67.12,1.36.74,2.19-.44,3.52-15.32,17.21-11.21,39-12,58.87-.47,12.24-5,14-12.48,10-12-6.42-24-2.57-36-3.81-15.79-1.69-30.45,4.55-45.59,4.91-11.71.3-20.93,4.05-29.65,10.47-3.58,2.63-6.15,5.5-11.35,5.29-9.08-.38-15.37,4.08-16.38,13.36-5.06-.24-3-13.81-7.07-5.53-7.86,16.17-36.66,15.26-31.67,40.42.06.3-1.51.92-2.34,1.39-19.54,11-28.8,27.23-25.93,49.91.38,3.13,1.51,7-2.28,9.34.33,6.09,1.51,11.71,0,18.36-4.41,20,6.68,36.6,15.61,53.34,5.06,9.49,12.95,16.79,10.23,30.28-2.84,14.07-13.48,12.54-19.13,9.79-7.24-3.58-9.37.12-13.66,2.9-15.43,10-29.48,21.23-38.7,37.64-1.6,2.84-4.43,5.65-8.43,2.54-19.6,10.14-19.34,32.29-25.46,48.72-8.28,22.17-5.85,47.78-4.35,72.14,1.83,29.8,9.67,56,37.11,72.56,7.3,4.38,8.13,8.34-.06,13.87-18.21,12.33-28.15,32.14-41.87,48.58-9.55,11.44-6.21,26.58-11.21,38.79-12.39,30.39-7.69,60.11,3.73,88,11.5,28.18,30,53.31,52.78,73.77,9.28,8.34,21.73,17,36.9,12.74l11.77-.09-.09-.21a.51.51,0,0,0,.21,0c.77-2.34,1.86-2.78,3.49-.5,10,4.73,18.72,3.43,25.87-5.35.71-.89,1.54-2.75,2-2.63,34.74,8.16,47.45,3.34,76.52-20,15.64-12.51,33.76-22.15,44.47-39.62,8-13.1,15.37-26.46,16.88-43C596,868,600,854.53,601.61,840.87c.15-1.42,1.74-3,1.39-4.08-5.65-16.59,4.17-30.57,7.54-45.56,3.19-14.31-13.1-1.83-12.89-11.62,13.07-6.62,13.87-18.8,10.41-32.37q0-10.47-.12-20.87c6-12.54-7.36-25.1.09-37.64.47-5.2-2.57-12.09,6.42-13.13,5.56-6.95-2.13-16.05,3.7-23l.65-1.18,1.21.15c13.28-8,9.49-22.41,11-33.82.8-6.24-.09-9.76,5.41-15s15.94-9.37,14-20.49c3.87-11.65,13.69-9.46,22.47-9.67,1.3-2,2.57-4,3.84-6-.56-9.7,5.82-9,12.18-8.37l2.6-3.34c7.33,1.69,13.48-1.06,20.25-3.87,24.57-10.11,50.26-15.73,76.55-20.34,16.29-2.87,33.11-5.41,49.08-6.65,21.23-1.63,42.9-3.4,64.48-3.46,19.16,0,40,4.7,57.74-5.53,8.37-4.82,13.9-.21,20.76,0,9.55.24,19.54-3.16,28.56-1.3,10,2.07,19.1,2.57,28.86.24,6.18-1.45,13.22,2,18.48,1.3,12.09-1.48,23.36-11.18,36.25-2.34,2.42-6.89,6.09-8.22,13.1-4.85,28.35,13.54,59.46,5.41,88.4,10.5,29.18,5.14,58.78,4.35,88,10.58,20,4.23,36.57,13.72,55,20,5.71,1.92,9.4,5.5,11.92,12.8,4.32,12.74,19.69,19.57,21.17,35.18.33,3.73,12.09-2.78,9.61,2.84-5.94,13.3,11.24,23.8,2.31,36.16,4.64,8.78,4.79,21.64,9.2,27.11,8.54,10.61,1.86,26.08,15,34.59,4.55,2.93,7.48,17.27,4.41,21.38-8.51,11.41,2.31,22.94-3.07,33.74a1.46,1.46,0,0,0-.12.38,3.81,3.81,0,0,0,.38,2.16,10.12,10.12,0,0,0,.47,1c.18.35.38.71.59,1.06s.5.86.77,1.27.53.86.8,1.3.53.86.8,1.27c.38.65.74,1.24,1,1.83a41.48,41.48,0,0,1,2.31,4.76,41.69,41.69,0,0,0-2.34-4.76c-2.25,0-6.71-.5-5.44,2.25,5.17,11.21.38,24,6.3,34.92,1.54,9.14,3.7,18.27,1.48,27.61-.33,1.42-.95,4.05-.56,4.2,15.4,6.77,1.24,16.53,2.45,24.66.41,2.87-1.18,6.8.24,8.63,9.7,12.54.18,25,.65,37.25.86,21.52-1.6,44,13.48,62.8,6.06,7.57,4.49,17.5.06,24.78-3.87,6.33-1.63,11,1,14.81,14.9,21.73,28.3,44.53,45.15,64.87,5.11-.65,9.11-.06,12.45,5.11,10.17,15.82,41.48,18.39,54.85,4.52,2.93,10.41,9.17,8.81,16.11,4.64a436.33,436.33,0,0,0-15.08-80.09c-2.57-1.77-2.66-3.58-.18-5.5a13.93,13.93,0,0,0-4.32-13c-2.78-7.1-.33-12.6,5.29-17.09-4.64-14.13-18-26.28-9.76-43.31-9.11-6.56-9.76-18.42-5.94-24.72,5.14-8.43.47-11.18-2.87-16a6.4,6.4,0,0,0-2.28.5l-.71.35c-5.38,3.07-8.46,12.77-17.86,5.53-13.25-10.23-13.39-26.28,1.8-33.29,4.88-2.25,9.46-6.86,15.67-6.3,1.48-8.22-1.09-16.26-1.36-24-.41-11-3.67-22.74,1.21-33.79.95-2.16,2.37-5.82,1.42-6.8-10.29-10.82-1.18-24.6-5.94-36.1a15.93,15.93,0,0,1-2.34.59,7.45,7.45,0,0,1-1.09.15,8.48,8.48,0,0,1-2.31-.06,5.07,5.07,0,0,1-1.36-.3,3.46,3.46,0,0,1-.77-.3,6.11,6.11,0,0,1-1.33-.8c-.21-.15-.41-.33-.62-.5s-.35-.35-.53-.53a12.16,12.16,0,0,1-2.1-3.31,12.42,12.42,0,0,1-.65-1.63q-.31-.8-.53-1.6c-.35-1.15-.65-2.31-.92-3.4-4.76-19.07,14.64-36.87,33.26-31.28,11.47-17.74,20.37-37.64,40.33-48.28,2.78-1.48,4.73-3.67,5.11-6.77.47-3.78,2.87-6.21,5.44-8.49,5.56-4.88,23.21.89,14.49-16.56,11.29-1.8,12.83-14,20.7-19.42,8.72-6,18-10.14,23.56-20.87,4.91-9.4,15.91-14.43,25.69-19.54C1678,565.52,1684.09,563.28,1682.13,555.94Zm-1247,54.64c6.18-6.95,35-11,43-7.21,2.66,1.3,3,3.4,2.93,6-.33,14-20.93,34.74-35.92,35.21-4.55-4.94-15.67,2.93-18.18-8.66C424.77,625.84,429,617.53,435.18,610.58Zm33.5,275.91c-1.51,5.94-3.67,11.83-4.35,17.86-.68,6.3-1.83,7.6-9.28,9.08-12.12,2.39-23,1.36-34.21-1.63-8.63-2.28-11.8-7.6-8.72-16.59,5.17-15,13.72-21.94,30.22-20.58,9,.74,17.33-5.8,26.76-1.8C467.44,877.77,451.06,882.27,468.68,886.49Zm-1-102.86h0c-.77-.8-1.54-1.57-2.34-2.37-4.52,1-8.19,4.94-13.3,4.2a.11.11,0,0,1,0,.09l0,0v0l-.24.24c-.15.18-.35.38-.44.47l.56-.86H452c-8-17.74,1.51-30.6,12.36-42.84,6.95-7.86,16.23-.77,24.48-2.66,5.2-1.15,8.57,8.69,13.42,13C506,756.31,475.07,784.22,467.7,783.63Zm28-327.95c5.85-5.79,13.48-12.39,23.74-10.64,1.92.33,3.9.35,6.36.56,13.51-6.68,17.77,8.75,27.26,12.39,1,.38,1,3.37,1.39,5.11-9.61-.18-6.68,16.17-17.83,13.66-3.28-.74-6.95-3.58-9.49-.24-10.11,13.1-19.4,2.16-23.74-3.61C500.29,468.78,487.69,463.64,495.73,455.69Zm56.71,399c-7.3,8.84-16.23,15-26.11,16.44-12.42-.33-21.23-3-22.15-15.73a10.15,10.15,0,0,1,.92-5.5c5.32-9.37,36.81-14.66,45-7.72C554.33,845.72,556.52,849.74,552.44,854.68ZM543,692.27c-2.39.83-4.58,1.21-6.77-.77-9.49-8.66-3.1-41,9.11-45.71,9.7-3.75,18.57,2,19,12.3C565,673.68,553.51,692.07,543,692.27Zm40.09-309.06c-6.3-5-9.11-13.81-12.71-21.52-2.6-5.65-1.89-14.1-11.65-16.68-5.38-1.42-7-8.1-.35-13.93,5.23-4.61,10-7.66,15.64-6.33,21.73-.62,39.56,14.69,45.5,35.15,3.84,13.13,3.4,20.16-12.65,17.53a2,2,0,0,0-1.45.15C599,383.84,591.08,389.6,583.07,383.22Zm57.77,144.87c-8.84,7.51-19.66,7.89-30.48,9.28-9.17,1.74-12.54-6.45-15.64-11.71-3.28-5.59.86-10.2,6.36-15.34,12.51-11.68,24.66-6.56,36.87-2.54C648.21,511.15,649,521.12,640.84,528.09Zm61.82-151.44c-4.2-2.13-10.38-4.41-6.24-12.06,3.1-5.79-2.25-6.92-6.09-9.2-4-2.37-9-5.26-6.42-11.5,2-4.94,5.85-6.18,11.18-7.57,12.48-3.19,22.91.12,32.52,6.95,5.32,3.78,11.47,8.57,7.63,16.88-1.8,3.87-1.42,6.21,2.6,8.22,5.94,3,3.78,8.13,2.63,15.4-4.94-8.28-10.82-6.33-16.29-5C716.71,380.5,709.29,380,702.67,376.65Zm56.5,112.47c-12.74.83-22.62-4.61-30.87-10.53-6.39-4.55-5-15.32-3.67-22.59,1.27-6.95,9.82-4.61,15.35-4.2,13.63,1,29.51,12.51,30.39,24.19C770.79,481.2,771,493.62,759.17,489.12ZM792,259.57c-7.33,1.74-13-8.84-20.9-2.78-2.42-4.85-3.1-9.25-10.58-11.71-9.61-3.13-9.4-15.34-8.57-24.1.65-6.8,7.63-8.81,14.78-8.84,19.19-.12,38,18.89,37,38.26C803.43,257.83,794.74,255,792,259.57Zm61.17,122.91c-1.48,4.58-5.41,3.7-8.54,3.49-11.09-.74-20.08-7.3-29.8-11.62-6.74-3-10.88-8.63-7.42-16.14-2.69-15.37,4.64-17.38,15.55-11.8,5.74,2.93,11.09-2.22,16.79,1.74C847.13,353.3,856,373.76,853.19,382.48ZM906.55,265c-5.26.35-10.38,3.87-15.61,1-13.33,3.1-17.53-2.78-17.3-15.37.06-4.23-4.67-8.31-6.3-12.8-4.41-12.18.47-17.41,13.22-16.2,7.33.68,16.05-.44,20.43,5.56,5.44,7.51,9,16.62,13.28,25C916.43,256.35,914.72,264.48,906.55,265Zm81.9,199.42c-11.41-2.25-24.92-1.36-34.5-12-6.36-7-4.41-14.07-1.83-20.22s8.81-6,16-5.59c9.43.53,16,5.17,23.3,9.11,4.23,2.31,8.9,5.26,4.46,12.12C997.94,455.15,1000.72,466.83,988.45,464.44Zm12.15-167.73c-.53,4.08-2.31,9.55-8.4,10.82-8.16,1.69-35-15.7-36.75-24.16C953,271.58,957.2,266,969,265.63,981.54,265.22,1002.17,284.79,1000.61,296.71Zm24.1-148.36c-4.58-.15-12.09,11.8-15.91-2.42-1.39-5.23-11.56-3.75-17.53-7.48-6.83-4.26-10.55-8.16-9.82-15.88.44-4.73-1.63-8.46-3.4-12.54-4.85-11,2-20.84,13.84-20.34,12.21,2.54,23.15,4.46,26.55,20.81,1.63,7.84,9.43,14.93,10.23,24.84C1029.11,141,1029.28,148.52,1024.7,148.34Zm95.65,180.18c-.47,7.63-7.54,14.75-.62,23.15,2,2.42-2.69,4.94-5.62,4.14-5.35-1.48-14,2.1-14.28-8.19-.18-8,0-16.05,0-24.07l-2-.3c-.74,3.1-.65,6.83-2.42,9.14-2.19,2.9-.18,10-5.59,8.66-4.82-1.24-11.29-6.68-9.61-11.35,2.57-7.13,1-14,2.34-20.73,1.77-8.75,9.49-9.82,16.14-8.93C1112.6,301.94,1121.24,314.21,1120.35,328.52Zm59-141.59c-9.61-8.19-19.72-17.68-24.51-28.86-2.28-5.26,7.27-15.58,11.5-23.59.15-.3.92-.27,1.39-.38,2.42,11.92,19.78,6.65,20.19,13.22.62,9.34,12.77,8,10.88,15.67C1199.29,174.51,1184.77,191.63,1179.3,186.93Zm29.57,294.92c-3.16-10.05-12.21-10.94-20.4-13.16a21.1,21.1,0,0,0-4-15c-5.41-7.72.83-13.78,7.24-12.86,10.38,1.54,20.31,6.62,24.3,18.15C1219.25,468.37,1217.77,476.26,1208.87,481.85Zm32.67-103.54c-8.81.38-17.68-1.3-26.4,1.15.8-2.69,1.69-5.38-.83-7.72-.74-1.18-1.51-2.34-2.28-3.52-1-10.61-3.9-21.26,0-31.84,1.69-4.49,3.13-10.61,8.19-11,5.35-.41,10.91,1.09,15,6.77C1245.68,346.62,1248.13,361.72,1241.54,378.31Zm59.81-143c-1.33,4.76-1.12,12.06-8.93,11.15-6-.71-12.6-1-15.17-9-2.42-7.6-6.15-14.78-9.61-22-5.09-10.76,1.3-22.5,6.83-26.11,8.4-5.44,18.36,2.9,23.65,11.32,3.43,5.47,4.14,12.65,5.68,17.77C1302.92,225,1302.74,230.36,1301.35,235.33Zm62.8,194.1c-8.37,10.2-15.46,1.06-20.22-4.41-13.6-15.61-13.6-40.21-1.68-58.07,2-2.9,3.73-4,7.1-3.22,10.79,2.39,25.28,21.7,24.75,34.77C1358.89,404.24,1371.6,420.29,1364.15,429.43Zm62.12-143.9c4.43-1.24,10.76,2.16,15.52,4.82,7.15,4.05,17.95,32.32,14.55,39.26-1.92,3.84-6.83,6.8-11,8.72-4.64,2.1-9.64-1.6-11.21-4.82-5.23-10.76-11.74-21.23-12.42-32.43C1422,294.43,1421.1,287,1426.27,285.53Zm24.54,308.61c.47,18.72-9.55,28.41-26.67,26.85-.95-.09-2.75,0-2.78-.12-.59-8-8.93-13.93-9-19.9-.09-11.38,19.45-25.52,31.34-24.45C1457.43,577.73,1448.09,589,1450.81,594.14Zm-12-121.28c-1.83,3.46-6.21,1-9.08-1.09-17.56-13-19.07-40.45-2.9-54.55,4.73-4.11,6.3-14.81,16-9.25,9.08,5.17,13.16,14,14.58,26C1451.7,446.08,1445.72,459.74,1438.78,472.86Zm19.72,110a2.71,2.71,0,0,1-.38-1.09c0-.33.38-.65.59-1,.15.38.44.77.41,1.09S1458.73,582.49,1458.5,582.82Zm66.61-186.33c4.76-7.63,7.75-4.05,13.63-.38,7.75,4.82,12.6,9.85,11.15,19.28-2.57,16.73-9.93,25.34-21.58,25-5-.15-6.42-4.67-7.33-8.07-1.63-6.06-2-12.45-3.22-21.2C1517.63,406.78,1521.74,401.87,1525.11,396.49Zm38.58,168.56c-2.07,22-12.39,32.2-33.17,33.82-6.8.53-11.26-2.93-12.86-7.51-3.9-11.29,5-19.16,10.2-27.64,3.49-5.71,8.54-9.85,15.94-5.26,8.22,5.11,14.75-9.88,24-.74C1566.32,560.23,1563.93,562.54,1563.69,565.05Z" style="fill:#4ba7bb;"/><path d="M1431.92,1005.14c-2.63-3.81-4.88-8.49-1-14.81,4.43-7.27,6-17.21-.06-24.78-15.08-18.83-12.62-41.27-13.48-62.8-.47-12.3,9-24.72-.65-37.25-1.42-1.83.18-5.77-.24-8.63-1.21-8.13,13-17.89-2.45-24.66-.38-.15.24-2.78.56-4.2,2.22-9.34.06-18.48-1.48-27.61-5.91-10.91-1.12-23.71-6.3-34.92-1.27-2.75,3.19-2.22,5.44-2.25-.3-.59-.62-1.18-1-1.83-.27-.41-.53-.86-.8-1.27s-.53-.86-.8-1.3-.53-.83-.77-1.27-.41-.71-.59-1.06a10.12,10.12,0,0,1-.47-1,3.81,3.81,0,0,1-.38-2.16,1.46,1.46,0,0,1,.12-.38c5.38-10.79-5.44-22.32,3.07-33.74,3.07-4.11.15-18.45-4.41-21.38-13.19-8.52-6.5-24-15-34.59-4.41-5.47-4.55-18.33-9.2-27.11-15.73-3.87-29.65,9.2-45.5,4.76-2.78-.77-3-.27-4.61-5.82-1-3.37-3.75-2.72-5.82-2.42-10.61,1.63-20.58,11.89-32.14,1.6-1.92-1.71-2.07,3.43-4,4.67-2.75,1.77-4.55,6.74-8.25,5-13.22-6.36-29.24,5.94-42.28-7.84-3.49-3.67-14.28,6.33-22.85,7.6-3.75.56-7.16,2.84-10.91.5-5.56-3.4-10.44-4-15.91.92-2.13,1.89-7.42,2.81-9.82,1.48-20.81-11.35-40.12,3.43-60.29,3.34-5.38,0-9.55,3.75-12.18-3.87-.56-1.63-5.77-3.43-5.91-3.19-6.27,9.37-16.5.8-23.68,5.44-4.35,2.78-8.81,7.66-11.06-2.54-.83-3.67-4.94-.59-7,1.21-18.77,16.35-40.15,13.22-61.5,7.63-4.58-1.18-7.39-.27-10.79,1.74-16.08,9.64-32.35,13.81-49,1.3-3.13-2.37-7-1.51-6.36,1.71,3,13.81-9.37,9.11-12.12,8.1-8.31-2.93-18.21,3-25.22-4.94-.41-.47-2.51-.41-2.72,0-8.52,16.38-23.65,4.64-35.1,8.37-7.83,8.78-17.62.71-26.2,3.1l-7.72,2c-3.78.5-6.92,2.16-10.23,4.11-5.94,3.46-5.82-1.45-5.94-5.35l-5.23,1c-9,5.74-4.94-3.16-6.47-5.8-2.25,1.06-4.46,2.1-6.71,3.13-11.29,11.15-24.39,12.42-31.64,3-11,2.16-21.38,8.16-33.17,5.11-2.39,5-5.32,3.4-8.34.65-14,5.56-27,5-38.58-5.68-2.54,3.75-4.41,6.92-10,8.66-17.27,5.29-35.3,3.43-52.6,7.48-1.66.38-4-2.28-6.06-3.55-7.45,12.54,5.91,25.1-.09,37.64q.09,10.42.12,20.87c3.46,13.57,2.66,25.75-10.41,32.37-.21,9.79,16.08-2.69,12.89,11.62-3.37,15-13.19,29-7.54,45.56.35,1.06-1.24,2.66-1.39,4.08C600,854.53,596,868,594.72,881.41c-1.51,16.5-8.84,29.86-16.88,43C567.14,941.84,549,951.48,533.37,964c-29.06,23.33-41.78,28.15-76.52,20-.44-.12-1.27,1.74-2,2.63C447.72,995.39,439,996.69,429,992c0,0-.92.8-.92.83h0c-.15.15-.27.3-.38.41-.89.83-1.71,1-2.28-.56l-11.77.09c.35,4.49.71,9,1.09,13.48.24,1.24,1,3.34.62,3.58-1.83,1.12-2-.62-2.34-1.86-4.11,6.89,9.08,9.79,5,13.54-13.57,12.62,1.48,20.1,3.9,29.74,3.52-10.73,6.86-21.67,21.32-20.25,1.06-6.39-9-12.89,1.3-16.94,9.61-3.78,17.65.95,23.48,7.89,9.46,11.32,13.72,24.63,11.09,39.59-.15.89.5,2.63.38,2.66-15.73,4.76-8.75,18.36-11.09,28.29,6.15-1,11.68,1.42,17.3,3.19-2.13-13.16,4.29-24.69,7.66-36.72,1-3.58,2.28-6.47,2.19-10.58-.47-16.08,9.43-22.56,23.56-15,17.65,9.37,30.28,21.76,26.93,44.94-1,6.71,10.29,16.91-9.11,12.18,3,5.14,4.79,8.37,6.65,11.59,8.57-5.91,12.62-3.64,14.58,6.62,3.46,18.06,9.17,35.57,15.2,53,4.79,13.87,16.29,23.77,21.05,37.19,10.73,30.25,34,50.94,53.93,74.33,4.94,5.79,12.06,8,17.5,14.1,10.32,11.53,18,28.09,32.17,33.56,18.3,7.1,31.61,20.93,48.72,29.09,17.36,8.25,30.93,23.74,51.06,26.85,1.3,1.63,2.1,3.4,4,5,14.28,11.8,33.94,9.52,49.29,20.28,8.37,5.85,22,17.56,32.58,1.57,5.32,3.46-.21,9,6.09,11.89,13.07,6.06,27.59,4.73,41,9.25,4.32,1.45,5.26,1.33,6.27,5.47,4.79,19.22,2,37-9.08,53.46.36,5.41.33,9.31-6.24,12.65-18.27,9.34-31.67,24.48-33.29,45.15-.95,11.94-3.75,26.4,7.51,36.75,2.57,1.8,2.42,4.35,2,7-.15,1.63-.27,3.25-.41,4.88,15.64-1.92,11,8.4,9.93,16.5,6.53,5,11.8,12.21,20.81,13.13,8.51.86,3.13,10.88,10.47,13.93,32.82,13.63,66.88,23.09,102,17.41,30.48-4.88,57.24-20.55,79.47-42.78a39.41,39.41,0,0,0,10.05-17.36c2.28-7.39,4-16.62,14-19,1.24-.33,2.42-1.69,3.22-2.84,6.89-10,3.43-50.14-1.45-61.08-5.23-11.62-22.09-10-23.56-23.89-.71-.68-1.36-1.86-2.16-2-22.5-2.39-31.16-13.19-27.67-36.9,2.13-14.37,12.06-27.56,27.05-25.55,11,1.51,20.64-5,23.33-17.74,11.12,16.94,23.95,6.45,32.4.53,15.58-10.94,35.57-9.11,50.38-20.76,1.92-1.51,2.69-3.28,4-4.94,18-3.13,30.75-16.05,46.06-24.07,18.51-9.67,34.33-23.33,53.69-32.17,13.25-6,24-20.34,32.35-33.23,4.88-7.57,12.6-8.46,17.53-14.31,19.84-23.51,43-44.2,54-74.48,4.79-13.25,15.82-23.62,20.9-37.28a314.55,314.55,0,0,0,17.92-71.93c.83-6.8,3-12.86,4.85-19.22C1460.21,1049.67,1446.82,1026.87,1431.92,1005.14Zm-199.6-241.5c21.05-4.29,46.48-2.37,61.73,16.7,8.13,10.17,18.74,20.16,22.09,34,2.16,6.39,9.9,13-.83,18.8l3.78,4.49c-13.13,6.95-.56,25.66-16.35,33.11-11.71,5.56-14.1,22.68-29.18,27.76-7.33,2.48-12.57,7-22,6.74-8.22-.27-17.53,8.28-25,13.72-11.53,8.4-24.48,11.38-37.08,14.81-10.14,2.75-20.93,2.87-30.07,9-.83.56-1.74,1.54-2.51,1.45-22.83-2.28-48,10.47-67.68-2.13-10.94-7-27-12.71-32.46-28.95-4.26-12.71-5.65-12.24,6.21-19-1.77-4.52-10.85,1.21-10.29-10.05,1-20,7.57-35.33,18.27-51.83,9.76-15,25.22-20.52,37.22-31.31,8.52-7.63,22.53-1.92,33.41-8.31,13.51-7.92,27.32-17.3,44.67-13.75C1197.43,762.32,1217.3,766.72,1232.31,763.65Zm-215.48,16.08c3.13-10.11,6.21-21.08,20.81-22.47,6.65-.62,14.07-5.29,14.13-14.4.06-8.16,7.16-2.07,9.61-5.14,5.41-6.15,11-11.65,19.87-5.53,2.25-9.7,25.6-25.9,36-24.33,6.21.95,10.08,1,7.36-6.95-.8-2.39-.71-6.33,1.89-6,11.44,1.48,18.57-7.48,28-10.38,5.79-1.77,10.91-2.75,15.26-8.1,4.7-5.8,30.66-5.06,37.76-.5,2.4,1.54,3.16,3.07,2.54,5.94-4.26,19.81-9,39.71-20.93,56.26-4.82,6.68-13.3,11-23.92,9.9-6.74-.71-12,7.45-17.8,11.35-5,3.37-9.22,8.93-15.52,9.52-14.84,1.42-22.65,13.87-33.56,21.08-18.66,12.36-38.85,21.29-58.48,31.58-9.37,4.94-15.85-3.73-18.75-8.13C1014.74,803.77,1013.32,791.14,1016.84,779.73ZM974.47,956.54c-.21-28.09,1-56.09-3.43-84.09-1.24-7.69,9-7.6,14.55-8.63,7.13-1.33,30.39,14.72,32.88,21.35a3.63,3.63,0,0,1-.24,2.78c-11.92,18.8-3.61,38.35-1.92,57.54.62,7.45-2,14.61-3.34,21.05-2.66,12.83,5.74,24.07,1.36,36.78-4.46,13-11.62,20.08-25.31,22.2-14.84,2.28-29.77,1.83-44.59,3-12.68,1-21.38,11.38-29.3,20.34-5.65,6.39,2.75,12.06,6.65,12.51,15,1.77,28.71,10.32,45,6.18,13.48-3.4,27.88,5.35,41.87-.38,5.32,11.12,17.71-4.29,23.21,6.15,6.33-6.12,14.43-8.52,22.71-10.23,13.69-2.87,18.63-14.46,23.5-25,2.75-5.85,5.29-9.11,10-4.7,7,6.53,10.79-10.14,16.05-1.69,2.93,4.73,1.8,12,4.79,16.65,4,6.24,8.25,11,5.74,19.63-1.69,5.77-1.27,10.94-9.43,8.75-1.21-.33-3.81.3-3.84.62-1.71,20.22-18,17.06-30.87,19.51-6.06,1.18-15.94,1.06-20-2.25,4.73,10.76-.62,14.55-7.81,13.93-11.53-.95-25,11.12-34.56-4.64a3.36,3.36,0,0,0-5.09-1c-17.62,15-37.7,4.52-56.47,4.82-20,.3-38.17-8.72-55.67-17.86-11.15-5.82-19.07-25.84-15.82-37.7a10.61,10.61,0,0,0,0-4.32c-1.74-9.61-2.34-18.15,8.66-23.74,12.62-6.42,15.55-23.48,29.68-28.71,4.91-1.89,9.87-5.94,14.55.44l5.79,1.33c-.09-6.09-3.84-16.41,8.9-7.75a33.86,33.86,0,0,1,5.53-1.66C974.29,984.74,974.65,983.74,974.47,956.54ZM693.74,814.41c9.28-20.08,21.61-38.88,41.81-47.87,12.3-5.47,29.68-7.6,41.84-3.16,15.29,5.56,34.56-.71,46.69,15.23,1.71,2.25,9.19.38,14,0,12.71-1,20,9.85,30.19,14.31,14.64,6.33,30.36,6.65,45.38,15.79,17.59,10.7,24.69,27.85,37.52,40.74,7.57,7.6,5.47,25.43,6.42,38.73.44,6.62-7.6,1.83-10.44,5.11,2,5.77,12.92,5.82,11.53,8.25-4.46,7.81-5.82,18.07-14,23.21-6,3.78-12.09,7.51-18.21,11.06-16.35,9.43-28.18,14.07-48,10.35-28.86-5.41-58.39-9.49-85.21-21.88-9.7-4.49-21.61-7.27-28.47-17.36a5.81,5.81,0,0,0-7.75-2.13c-8.25,3.9-13.19-3-19.75-5.32-17.74-6.3-21.64-26-36.43-34.77a9,9,0,0,1-4-11.53c2.75-6.53,3.37-10.05-5.26-12.51a3.14,3.14,0,0,1-.95-.41l-.21-.18c-1-1,.41-2.57,1.86-4.17.24-.27.5-.53.74-.8l.35-.41A7.47,7.47,0,0,0,694,834l.27-.38a2.45,2.45,0,0,0,.24-.35h0a15.27,15.27,0,0,1-3.1-2.16c-.33-.33-.59-.62-.83-.89s-.44-.59-.65-.89C687,824.49,692,819.41,693.74,814.41ZM798,1376.46c.41-.53.89-1.12,1.36-1.66.09.65.21,1.27.33,1.92Zm31.31-339.6c-4.85,4.82-13,10.88-20.81,7.3-6-2.75-14.34-4.05-14.67-15.26-.3-10.53-13.54-5.85-20-10.88-3.07-2.42-6.06,5.17-5.94,9,.18,5.29-5.56,7-5.56,11.56,0,7.63,2.9,19-5.77,20.4-11.94,2-25.57,4.88-37.14-3.37-12.54-8.9-24.87-17.38-40.74-20.28-7.89-1.45-4.85-14.49-13.66-17.71,9-.59,17-1,25-3.93,14.46-5.32,26.28,3.13,38.52,8.9,3,1.42,4.55,8.13,9.22,3.37,3.64-3.7,3.22-7.3.68-12.86-5.71-12.51,5.53-23.92,5.29-36.51,0-.56,3.49-1.92,5.14-1.69,16.65,2.57,34.56,1.57,46.09,17.89,4.17,5.91,14.28,7.72,11.94,18,7.78.53,12.18,5.14,16.38,11.38C826.67,1027,833.7,1032.52,829.33,1036.87ZM1174,1254.24c-4.76,3.73-3.81,12.3-3.73,15.46.71,20.31-17.5,24.36-27.2,35.36-4.67,5.26-12.48-4.41-18.3,3.67-2.48,3.43-13.22-4.2-15,8.19-.35,2.54-12.65-2-14.19-9.76-7.81-1.6-1.6,18.51-15.49,7.86-4.55-3.49-14.9-.95-22.09.83-20.67,5.14-40.3-15.11-62.38-.71-6.12,4-20.34-1.15-30.84.35-6.42.95-13.07-4.43-19.45,1.69-2.25,2.16-3.34,1-8.07-11.24-5,4.61-6.65,13.16-16.08,11.68-7.13-1.12-11.53-5.68-16.85-9.25-1.57-1-2.78-3.67-4.2-3.7-25.34-.65-35.36-15.14-40.57-38.64-3.37-15.32-12.59-30-7.54-45.92,6.47-20.52,5.41-44.05,24.51-60,10.26-8.54,22.88-10.5,33.91-10.73,7.75-.18,5.2-2.54,8.22-5.74,8.07-8.49,13.3.38,16.65,7.42,7.33,1.45,1.12-18.63,15-8,4.52,3.49,14.87.95,22.06-.86,20.67-5.2,40.3,15.17,62.38.74,6.15-4.05,20.31,1.21,30.84-.35,6.42-1,13.07,4.41,19.48-1.66,2.28-2.19,3.37-1.06,8.93,13.51,3.49-9.14,6.56-15.11,15.14-13.72,7.69,1.24-.65,8.19,4.2,10.23,10.32-3.93,33.11,2.37,41,10.23,10.88,10.88,15.37,23.06,18.77,38.44,2.48,11.24,6.8,22.41,6.8,34.42C1180,1241.32,1181,1248.71,1174,1254.24Zm53.87,122.49c.09-.62.21-1.27.33-1.92.44.56.86,1.09,1.33,1.63C1229,1376.55,1228.47,1376.64,1227.91,1376.73ZM1334,988.14c4.26,13.42-1.18,20.37-7.45,25.6-20.84,17.44-40.09,36.75-62.53,52.24-2.63,1.8-6.09,3.93-7.18.12-3.9-13.78-23.53-18-20.93-36,.53-3.78-3.46-9.93-7.13-12.27-6.45-4.11-6.3,5.26-9.87,6.77-12.12,5.11-20.93,13.9-29.36,23.53-4.67,5.38-8.75,1.77-11.71-2.48-6.06-8.66-3.9-28.06,5.14-33.56,17.65-10.82,28.89-28.41,45.12-40.45,5.65-4.17,11.35-9.14,18.21,2.63,7.39,12.71,19.84,21.94,14.67,39.65-1.45,4.85,5,7.27,9.22,3.28,13.48-12.89,31.67-19.81,43.28-35.15,3.81-5,9.55-6.74,16.85-4.55C1339.85,980.37,1333.55,987.28,1334,988.14Zm-908.66,4.29.09.21h.06Z" style="fill:#163847;"/><path d="M2016.74,1595.9c-9.25,6.18-15.55,15.43-23.53,22.94-25,23.62-54,42.55-78.82,66.44-8.25,7.92-16.79,18.77-30.69,19.07-1.27-1.71-3.46-2.81-4.76-1.3-1.86,2.13,1.15,2.66,2.31,3.75,1.48,2.9,2,6.15-1.18,7.81-14.37,7.3-24,20.4-36.78,29.54-24,17.21-43.91,39.15-66.55,57.92-9.08,7.51-17.59,18.66-28,21-18.83,4.2-23.33,26.43-41.16,28.92-13.72,1.89-27.58,7.54-41.81,1.42-2.54-1.09-6.47-1.77-8.6-.59a33.94,33.94,0,0,1-30,1.36c-14-6.06-25.52,4.05-38.85,2.22-26.08-3.52-52.81-2-78.94-2.57-24.72-.62-50.77-5.91-75.75,2-5.41,1.69-11.86-3.93-14.4-3.37-15.46,3.31-30.69-5.11-44.11-2.66-17.12,3.16-34-2.81-50.65,3-11.24,3.93-5-10.26-11.83-13-.12,10.05-5.77,12.06-14.93,12-36.6-.27-73.21.41-109.81.56-70.6.27-141.18.24-211.75.65-29.45.18-59-3-88.17-1.66-25.6,1.18-51.21-.3-76.84,1.12-19.31,1.06-39.35,1.63-59.07-1.09-7.92-1.09-5.09-8-9.58-12.83-1.83,18.21-11.77,17.27-24.13,12.24-3.9-1.6-9.22-2.37-13-1-8.66,3-16.05,4.79-24.66-1.39-3.19-2.28-11.47-1.3-15,1.39-11.71,8.84-22.09-3.67-33.88-.83-6.89,1.66-19.72-28.53-15.7-36.69,8.9-18,10.61-38.2,18.77-56.5,4.11-9.22,9.49-18,14.16-26.52,18.54-33.85,37.79-67.26,63.86-96.74,12-13.57,24.72-27.08,36.48-41,15.94-18.89,39.18-30.39,61.17-41.45,14.4-7.21,25.46-18.57,39.88-25.57,24.07-11.71,47.07-25.6,71.49-36.63,2.22-1,4.05-2.78,6.06-4.2.36,5.41.33,9.31-6.24,12.65-18.27,9.34-31.67,24.48-33.29,45.15-.95,11.94-3.75,26.4,7.51,36.75-5.56,4.08-.68,5.23,2,7-.15,1.63-.27,3.25-.41,4.88,0,7.51,2.51,13.48,9.93,16.5,6.53,5,11.8,12.21,20.81,13.13,8.51.86,3.13,10.88,10.47,13.93,32.82,13.63,66.88,23.09,102,17.41,30.48-4.88,57.24-20.55,79.47-42.78a39.41,39.41,0,0,0,10.05-17.36c2.28-7.39,4-16.62,14-19,1.24-.33,2.42-1.69,3.22-2.84,6.89-10,3.43-50.14-1.45-61.08-5.23-11.62-22.09-10-23.56-23.89,28.56,6.27,51.92,23.83,77.23,36.78,28.29,14.49,55.11,32,81.63,49.7,8.93,6,19.66,10.32,26.17,19.66,11.91,17.06,29.45,29.3,40.56,47,12.18,19.48,31.55,33.56,40,56.15,5.44,14.49,14.46,27.7,22.29,41.27,3.16,5.47,8.84,9,14,3.34,7-7.78,16.14-7.45,24.92-9.17,11.18-2.19,23.89-4.82,27.64-16.29,8.28-25.46,32.29-42.63,35.69-70.34.41-3.43.71-7.81,6.53-7.92,4.85-.15,5.59-4.85,6.8-8.57,3.7-11-.8-26.34,16.14-30.45.68-.15,1-2.63,1.15-4.08,1.83-18.83,16.53-33.26,17.77-52.36.32-4.64,5.71-10.2,7.1-11.47,13.3-12.36,17.68-28.68,21.73-44.73,3.93-15.49,8.78-30.31,18.63-42.75,6-7.57,11.56-14.13,14.34-24.27,2.19-7.92,3.78-18.18,11.86-24.1,5.65,6.77,16.11,10.38,12.86,22.91-.8,3.07,5.23,6.8,9.73,7.18,4.08.35,7.6,1.12,11.26,5.23-5.85-.09-12.62,2.93-8.6,7.36,5.44,6,12.27,18.39,16,17.18,12.54-4.11,7.63,4.82,9.55,9.11,1.33,2.93,4.08,5.23,6.18,7.81,1.69,5.5,7.3,6.24,11.12,9.17,9.73.89,17.15,4.26,22.09,13.93,8.52,16.62,22.8,27.11,40.68,32.37,18.51,5.44,34.77,16.38,52.18,24,25.28,11.15,51.92,18,77.32,28.47,24.21,9.93,52.63,5.23,78.44,13,5.23,1.57,11.62,4.29,18.45,2.31C2000.47,1589,2009,1591.41,2016.74,1595.9Z" style="fill:#52b6ca;"/><path d="M2359.11,1344.33a0,0,0,0,0,0,0,1.38,1.38,0,0,0,.15.3c0-.15.06-.33.09-.47Z" style="fill:#163847;"/><path d="M2462.56,1239.84c-8.6,21.35-20.9,40.89-25.66,64.31-1.89,9.31-10,20.49-18,29-3.37,3.52-3.4-1-4.88-2l-3.58-3.31c-1.42,2.25-1.6,4.14,1.42,5.14,1.45,12.6-6.68,22.71-12.86,30.84-18.77,24.69-39.12,48.52-61.47,70-11,10.61-19.1,24.39-33,32.32-4.76,2.72-6.59,7.92-8.46,14-2.54,8.34-11.26,15-20.34,18-15.82,5.2-28.86,14.22-42.63,23.48-17.3,11.68-34.5,26.17-56.71,28.77-5.2.59-7.51,3.73-10.85,6.42-8.87,7.18-16.68,16.65-30.16,14.72-1.54-.24-3.64,1.27-5.06,2.45-14.37,12.06-33.65,9.11-49.73,16.32-13.42,6-28.35,4.32-42.66,2.78-7.57-.83-14.46-.3-21.23,2.9-7.78-4.49-16.26-6.95-24.89-4.43-6.83,2-13.22-.74-18.45-2.31-25.81-7.78-54.22-3.07-78.44-13-25.4-10.44-52-17.33-77.32-28.47-17.41-7.66-33.68-18.6-52.18-24-17.89-5.26-32.17-15.76-40.68-32.37-4.94-9.67-12.36-13-22.09-13.93-3.81-2.93-9.43-3.67-11.12-9.17-2.1-2.57-4.85-4.88-6.18-7.81-1.92-4.29,3-13.22-9.55-9.11-3.7,1.21-10.53-11.18-16-17.18-4-4.43,2.75-7.45,8.6-7.36-3.67-4.11-7.18-4.88-11.26-5.23-4.49-.38-10.53-4.11-9.73-7.18,3.25-12.54-7.21-16.14-12.86-22.91-.86-6.42-1.18-11.74-8.13-16.73-6.18-4.41-11.53-14.87-7.83-23.18,3.58-8,.38-18.51-1.21-20.67-13.57-18.51-5-42-15.32-60.67-.68-1.21-1.39-3.43-.83-4.14,7.45-8.93-8.31-16.56-1.27-25.34-17.5-11,.71-35.48-17.36-46.48-.77-.47.56-3.73.12-5.5-1.71-7.13-2.22-14.25-4.91-21.55-3.52-9.58-7.24-20.84-7.36-31.55-.12-10.47,1.06-20.43-3.78-30.48-3.07-6.39-7-13.07-6.27-20.81a436.33,436.33,0,0,0-15.08-80.09c2.78-1.92,2.63-3.75-.18-5.5a13.93,13.93,0,0,0-4.32-13c7.81-3.81,16.76-7.3,5.29-17.09-4.64-14.13-18-26.28-9.76-43.31-9.11-6.56-9.76-18.42-5.94-24.72,5.14-8.43.47-11.18-2.87-16v0c-1.45-8.07-6.86-15.79,2.22-23.8,4.14-3.7,1.12-9-5.59-9.37,1.48-8.22-1.09-16.26-1.36-24-.41-11-3.67-22.74,1.21-33.79.95-2.16,2.37-5.82,1.42-6.8-10.29-10.82-1.18-24.6-5.94-36.1,2.9-2,9.76-4.41,8.1-5.74-7.92-6.27,1.6-10.08.92-14-1.83-10.47,11.09-13.75,9.7-23.24,11.47-17.74,20.37-37.64,40.33-48.28,2.78-1.48,4.73-3.67,5.11-6.77.47-3.78,2.87-6.21,5.44-8.49,5.56-4.88,23.21.89,14.49-16.56,11.29-1.8,12.83-14,20.7-19.42,8.72-6,18-10.14,23.56-20.87,4.91-9.4,15.91-14.43,25.69-19.54,4.35-2.25,10.47-4.49,8.52-11.83,2.34-9.08,7.72-16.08,14.84-21.91,3.19-2.57,6.33-5.17,9.22.3-4.11,4.32-2.54,10.08-4,15-1.69,6-1,9.46,4.26,13.39,6.06,4.58,9.67,1.12,14.1-1.89,13.72-9.34,25.37-21.17,36.81-32.91,13.16-13.51,13.66-31.31,3.16-42.4,16.79-10.91,32-5.77,46.12,5.17a26,26,0,0,1,10.58,17.95c1.33,9.37,4.32,19.54,4.73,28.21.89,18.54-5.62,36.75-20.25,50.26-1,.92-4.43.18-3.64,2.6.68,2.07,3.25,3.52,5,5.2-10.73,15.2-22.06,30.13-33.2,44.76-20.13,26.46-41.66,51.86-59.55,80-3.7,5.82-8.43,11.21-7.63,18.51a58.37,58.37,0,0,1-3.52,28.65q9.27,16.9,18.57,33.79c5.56,22.62,21.26,40.54,28.77,62.24,1.71,7.54-.24,14.69-3.49,21.2-13.13,26.2-17.95,54.64-22.26,83.08-7,45.65-8.13,91.12,2.45,136.83,3.37,14.46,14.1,28.32,7.66,44.62,15.14,15.82,15.91,39.12,29.06,56,3.43,4.38-.5,11.62,7.1,15.34,11,5.38,17.77,14.84,18.92,27.61.33,3.49,1.18,8.25,5,7.92,8.72-.71,10,5.56,13.3,11,5,8.34,10.41,16.65,16.94,23.83,16.73,18.39,35.89,34.53,53.57,51.71,18.75,18.24,42.19,28.09,61.32,44.85,13.57,11.89,33.14,14.81,49.08,23.45,11.86,6.39,24.81,10,37,12.89,20.93,5,43.34,1.06,64.9,5.41,4.49.89,8.81-7.86,14.34-2.6,7.1,6.77,15.2,4.32,22,1.8,10.79-4,22.44-2.42,32.43-2.28,19,.3,39.06-.56,54.11-8.4,22-11.47,49.35-11.65,67.17-31.46,1.15-1.3,3.52-1.8,5.41-2.07,13.36-1.92,23.36-10.17,33.17-18.24,6.95-5.71,13.1-11.68,23.09-9.82,2.66.5,7.18,1.39,7.07-2.6a9.4,9.4,0,0,1,0-1.6v-.06a8.94,8.94,0,0,1,.18-1.36,7.36,7.36,0,0,1,.24-.95s0-.09.06-.12a4.35,4.35,0,0,1,.3-.65,3.69,3.69,0,0,1,.38-.68,1.28,1.28,0,0,1,.18-.21,4.55,4.55,0,0,1,.53-.53,3.61,3.61,0,0,1,.41-.3,1.87,1.87,0,0,1,.41-.24,3.32,3.32,0,0,1,.47-.21,3.08,3.08,0,0,1,.74-.24.69.69,0,0,1,.24-.06,4.16,4.16,0,0,1,.59-.12c.33-.06.65-.09,1-.12a1.56,1.56,0,0,1,.38,0,3.23,3.23,0,0,1,.53,0c.8-.06,1.66-.06,2.45-.12l1.06-.09a.27.27,0,0,0,.15,0c.3,0,.59-.09.89-.15l.24-.06a2.23,2.23,0,0,0,.47-.15l.27-.09.44-.18c.21-.12.41-.24.59-.35a1.38,1.38,0,0,0,.15.3c-.09.62-.21,1.21-.3,1.8l1.42.09c-.38-.62-.77-1.27-1.12-1.89,0-.15.06-.33.09-.47l-.27.15c-1.48-5.56.33-9.93,5.62-11.94,10.85-4.14,18.21-12.45,26.94-19.54,27.82-22.62,48.46-50.2,65.34-81.22C2462,1232.21,2461.82,1236.32,2462.56,1239.84Z" style="fill:#163847;"/><path d="M2498.9,1135.38c-6.53,10.5-7.54,23.42-11.26,35-2.93,9.11-12.86,12.48-12.95,21.85-.12,15.76-11.94,26.2-17.68,39.41-16.88,31-37.52,58.6-65.34,81.22-8.72,7.1-16.08,15.4-26.94,19.54-5.29,2-7.1,6.39-5.62,11.94l.27-.15-.24.18c-.18.12-.38.24-.59.35l-.44.18-.27.09a2.23,2.23,0,0,1-.47.15l-.24.06c-.3.06-.59.12-.89.15a.27.27,0,0,1-.15,0l-1.06.09c-.8.06-1.66.06-2.45.12a3.23,3.23,0,0,0-.53,0,1.56,1.56,0,0,0-.38,0c-.33,0-.65.06-1,.12a4.16,4.16,0,0,0-.59.12.69.69,0,0,0-.24.06,3.08,3.08,0,0,0-.74.24,3.32,3.32,0,0,0-.47.21,1.87,1.87,0,0,0-.41.24,3.61,3.61,0,0,0-.41.3,4.55,4.55,0,0,0-.53.53,1.28,1.28,0,0,0-.18.21,3.69,3.69,0,0,0-.38.68,4.35,4.35,0,0,0-.3.65s0,.09-.06.12a7.36,7.36,0,0,0-.24.95,8.94,8.94,0,0,0-.18,1.36v.06a9.4,9.4,0,0,0,0,1.6c.12,4-4.41,3.1-7.07,2.6-10-1.86-16.14,4.11-23.09,9.82-9.82,8.07-19.81,16.32-33.17,18.24-1.89.27-4.26.77-5.41,2.07-17.83,19.81-45.15,20-67.17,31.46-15,7.83-35.1,8.69-54.11,8.4-10-.15-21.64-1.71-32.43,2.28-6.8,2.51-14.9,5-22-1.8-5.53-5.26-9.85,3.49-14.34,2.6-21.55-4.35-44-.41-64.9-5.41-12.24-2.93-25.19-6.5-37-12.89-15.94-8.63-35.51-11.56-49.08-23.45-19.13-16.76-42.57-26.61-61.32-44.85-17.68-17.18-36.84-33.32-53.57-51.71-6.53-7.18-11.94-15.49-16.94-23.83-3.28-5.47-4.58-11.74-13.3-11-3.81.33-4.67-4.43-5-7.92-1.15-12.77-8-22.23-18.92-27.61-7.6-3.73-3.67-11-7.1-15.34-13.16-16.88-13.93-40.18-29.06-56,6.45-16.29-4.29-30.16-7.66-44.62-10.58-45.71-9.43-91.18-2.45-136.83,4.32-28.44,9.14-56.89,22.26-83.08,3.25-6.5,5.2-13.66,3.49-21.2,17-18.27,23.71-44,43.34-60.43,2.6-2.19,1.6-4.94-1-5.56-17.47-4.08-20.34-23.68-34-31.67,15.26-15.34,25.1-35.54,42.58-48.78,11.56-8.78,17.71-23.09,31.25-29.65,2,10.17,10.35,14.64,18.33,18.57,4.55,2.22,8.6,3.87,9.93,9.14,4,11.77,11.09,4.82,15.7,1.57,8.16-5.74,16.41-14.52,24.3-17.12,16.73-5.53,26.55-21.85,42.63-25.1,13.22-2.69,22.56-12.6,36.37-14.1,11.32-1.21,22.8-6.74,32.67-12.8a1.8,1.8,0,0,0,.44-.38,2.26,2.26,0,0,0,.44-.68,2.62,2.62,0,0,0,.33-.77,0,0,0,0,0,0,0,7.42,7.42,0,0,0,.33-1.54c0-.27.06-.56.09-.86a3.77,3.77,0,0,0,0-.59,33.06,33.06,0,0,0,0-4.2c0-1.18-.09-2.42-.15-3.67,0-.62,0-1.21-.06-1.8a34.25,34.25,0,0,1,0-3.49c-1-.27-1.92-.47-2.87-.71-8.1-26.08-7.72-53.49-12.57-80,2.51-14.75,13.84-7.63,20.76-7,7.48.74,14.31,2.13,21-2a57.52,57.52,0,0,0,5.94,24.51c7.33,15.37,2.81,33,7.45,49-.83,18.36,5.91,24.57,21.35,19.72a10.78,10.78,0,0,1,4.29-.68c24.39,2.6,48.67,7.27,73.35,3.46.41-.09.92.24,1.39.35,1.8,7.33-6.59,9.4-7.78,15.2l-.89.3.06.53.06.35,0,0-.15.24a21.76,21.76,0,0,1-1.24,2,4.51,4.51,0,0,0-1.39,1.06,2.79,2.79,0,0,0-.62,1.21,6.62,6.62,0,0,0,.53,3.7,7.29,7.29,0,0,1,.33.86s0,0,0,.06h0v0q-2.26,1-4.61,2c-2.81-.59-2.51,1.21-2.28,3v0c.18,2.51.33,5,.5,7.54-7.24,1.71-6.83,7.21-7.33,12.3a22.38,22.38,0,0,1-.38,2.45,8.37,8.37,0,0,1-.74,2.25v0c-.15.35-.3.71-.41,1a13,13,0,0,0,.53,8.31c-4.11,1.51-5.35,5.41-3.4,8.19a13.07,13.07,0,0,1,2.51,9.43,19.06,19.06,0,0,1-.56,3.1c-.27,1-.59,2.07-.92,3.1s-.68,2-1,3.07v0c-.15.53-.33,1-.47,1.57l-30.07,1.92-30.07,1.89c-4.91.3-10,.09-12.24,5.82-12.74-2.93-23.48,5-35.39,6.53-2.37.3-4.88.15-7.1.92-23.77,8.25-44,23.18-65,36.34-15.23,9.58-31.58,18.36-43.23,32.94-6.92,4.52-5.77,16.11-15.73,18-9.67,2.75-11.77,12.51-16.79,19.19-17.33,23.06-25.81,51-39.65,76-6.65,12.06-9.46,26.64-12,40.45-2.25,12.3-.27,25.43-2.78,37.64a123.49,123.49,0,0,0-1.86,39.09c5.74,47.28,16.26,93.49,37.31,136.83,8.1,16.7,12.68,36.1,26.43,48.7,20.31,18.66,38.88,39.18,61.47,55.53,17.12,12.39,34,22.88,54.85,28.92,29.54,8.57,59.43,13.6,89.44,19.51,51.71,10.14,100.05-.53,148.33-14.87,34.89-10.38,61.91-35.39,92-54.55,5.85-3.75,16.79-8.4,14.1-20.1v0c.47-1.21.92-2.39,1.39-3.58a26.82,26.82,0,0,0,4.17-1.92,32,32,0,0,0,5.06-3.49q.67-.53,1.24-1.06c.83-.74,1.63-1.51,2.39-2.28,1-1.06,2-2.13,3-3.22,1.51-1.69,2.93-3.37,4.41-5,.83-.92,1.69-1.83,2.51-2.75a11.77,11.77,0,0,1,1-1.06c.83-.89,1.71-1.74,2.6-2.54,5.5-3.16,6.56-9.4,9.79-14.13,15.61-23,21.55-50.74,36.57-74a3.38,3.38,0,0,0,2.75-.59c18.63,4,36.4-1.45,54.67-3.73,14.37-1.83,23.74-13.81,37.82-14.4C2495.71,1118.74,2503.84,1127.52,2498.9,1135.38Z" style="fill:#f2ba04;"/><path d="M2124.21,690.8a7.33,7.33,0,0,0-.38,1c.12-.33.27-.68.41-1Zm14.87-29.71v.06h0S2139.11,661.11,2139.08,661.08ZM2267,975h0a3.51,3.51,0,0,1,.21-.59A5,5,0,0,0,2267,975Zm32.82-113.8-.27-.18c.09.06.18.15.27.21.47.18.95.35,1.39.56C2300.72,861.6,2300.25,861.39,2299.77,861.21Zm17.89-315.15v0l0,0Zm44,92.81-1.15,4.52c.41-1.51.8-3,1.18-4.52Zm21.44,447.87,0-.06c0,.06-.09.12-.12.18s.15,0,.21-.06v0A.1.1,0,0,1,2383.12,1086.75Zm138.22,23.68a1,1,0,0,0,0,.3l.12-.27C2521.43,1110.46,2521.4,1110.43,2521.34,1110.43Zm3.07-4.2a.18.18,0,0,1,0,.12l.09-.15Z" style="fill:#183a48;"/><path d="M2611.58,945.27c-1.92-7-7.51-10-13.75-11.47-7.66-1.83-8.66-9.88-7-12.92,7.54-13.87,8.07-28.41,7.45-43.4-6.62,5-5.09,13.42-8.57,19.78-12.15,22.06-25.19,42.13-45.74,59-18.33,15.11-38.32,26.17-57.89,38.52-7.42,4.67-16.17,2.81-24.07,5.79-4.43,1.69-4.2-4.32-4.14-7.42.15-7.21,5.32-12.27,10.85-14.43,14.81-5.82,26.88-16.29,40.42-23.3,36-18.63,55.76-48,66.64-85.24,2.84-9.67,7.36-13.45,16.73-7.48-1.71-20.46-11.86-37.49-22.23-54.43-1.36-2.25-5.79-3-4-6.74,5-10.5-3.1-15-9.22-20.08-6.47-5.32-14.55-9-20.28-15-13-13.6-27.14-18.39-44.64-9.73-5-2-1.86-7.07-3.67-9.9-6.8-10.76,4.7-27.26-11.06-35,3.19,15.7,8.93,31.31,1.45,47.34.15,2.9,1.45,6.47.21,8.6-16,27.82-20.76,61.08-46.83,84.44-17.8,15.94-30.33,37.58-53.22,48.46-6.68,3.16-15.52,9.34-19.51,4.26-4.2-5.35.77-14,7.69-19.45,23.8-18.63,47.22-38.73,63.33-64,17.8-27.88,32-58.66,32.38-93.34,0-3.31-1.18-6.68-1.92-10-.89-3.93-8.84-5.56-4.79-10.64,3.64-4.55,9-1.06,13.66-.15.65.12,1.57-.95,2.37-1.45,5.59-8.37,1.92-17.18-4.35-20.61-15.11-8.25-22.26-25-38.79-32-21.79-9.14-40.68-28.86-67.35-14.43-.38,1.51-.77,3-1.18,4.52s-.77,3-1.18,4.52c-.77,3-1.57,6-2.31,9-.5,2-1,4-1.45,6-7.13,31.61-25.69,55.53-51.09,74.27-5.11,3.78-9.79,7.86-14.58,11.94-4.38,3.73-10.67,6.86-14.46,2.16-5.35-6.59,3.81-3.37,5.41-5.65a2.8,2.8,0,0,0,.53-1.27c.83-14.93,1.8-13.75,19-27.82,12.48-10.23,18.18-26.49,25.66-40.74,21.79-41.45,9.14-79.21-15-114.27-8.46-12.27-3.43-13.72,6.62-15.52.18-.83.35-1.66.53-2.51-4.73-1.71-4.61-8.07-10.08-9.64-32-9.14-60-31.1-97.72-22.26-13.25,3.1-27.41.77-41.42,8.63-33.29,18.72-58.81,43.46-73.41,79-1,17.62,14.16,10,20.37,10.44,11.24.83,22.38.74,33.5,3.73,4.05,1.06,9.28-.77,11.18,4.38,1.71,4.58-1.36,8.4-4.14,11.77a81.29,81.29,0,0,1-6.27,6.09c1.8,7.33-6.59,9.4-7.78,15.2l0,.86-.74.33,0,0-.15.24a19.59,19.59,0,0,1-1.24,2l-1.15,6.83s0,0,0,.06h0v0q-2.26,1-4.61,2c-.74,1-1.48,2-2.28,3v0c.18,2.51.33,5,.5,7.54-7.24,1.71-6.83,7.21-7.33,12.3a22.38,22.38,0,0,1-.38,2.45,8.37,8.37,0,0,1-.74,2.25v0c-.15.35-.3.71-.41,1a13,13,0,0,0,.53,8.31c-4.11,1.51-5.35,5.41-3.4,8.19a13.07,13.07,0,0,1,2.51,9.43,19.06,19.06,0,0,1-.56,3.1c-.27,1-.59,2.07-.92,3.1s-.68,2-1,3.07v0c-.15.53-.33,1-.47,1.57,1.63,1.06,3.22,2.19,4.88,3.31,8,2.93,7.75,13.13,7.66,16.73-.38,15.43,12,21,19,30.69,5.85,8,15,1.57,21.47,6,4.82,11.92,16.08,11.35,26,13.45,1.92.06,3.84.09,5.77.12,7.33,1.51,5.82,5.77,3.22,10.35-8.57,14.72-14.07,30.87-22.74,45.68-9,15.37-4.73,32.67-.35,49.11-7.3,8.46-.68,13.19,4.85,18.18,4.91,3.43,8.52,6.65,10.5,13.57,3.87,13.36,16.65,20.81,26,30.51,3.55.95,8.4-2.78,10.64,2.9,2.78.56,5.68.95,7.66,2.75a3,3,0,0,1,.53.53,4.64,4.64,0,0,1,.47.59,7.6,7.6,0,0,1,1.09,2.37c1.3-.3,2.22,0,2.13,1.6L2267,975a5,5,0,0,1,.24-.59,3.51,3.51,0,0,0-.21.59h0c4,5.2,9.85,4.41,15.35,4.61,5.38,18.42,9.82,36.34,23.71,51.95,10.5,11.83,22.2,18.8,35.89,21.47,9.85,1.92,17.89,1,15.58,14.43-.24,1.48,1.77,3.37,2.72,5.06-1.09,4.05-4.58,7.57-2.07,12.33,8,15.08,16.94,29.18,33.5,36.28l6.71-.71c1.21,4.64,10.67,2.25,8.4,9.85a3.38,3.38,0,0,0,2.75-.59c18.63,4,36.4-1.45,54.67-3.73,14.37-1.83,23.74-13.81,37.82-14.4a40.92,40.92,0,0,1,19.37-1.12c-.33-2.34,1-3.49,3.07-4.2-.38-2.51.56-4.11,3.19-4.64,4.11-4.88,10.11-.92,14.78-3.22-1-5.29-2.22-10.56-3-15.91-1.3-9.49,4.85-15.37,12.54-14.4,10.38,1.36,15.26-5.26,19-11,7.45-11.65,18.3-21.08,24.48-32.7,9.22-17.36,17.8-36.72,8.55-57.33C2599.31,956.65,2600.19,949.41,2611.58,945.27Zm-403-158.92c-2.69.89-4.43,1.36-6.33-.77-.53-5.65-4.67-5.71-8.84-5.65l-14.25-10c-.95-3.22-3.16-4.58-6.45-4.35-7.39-15.73-11.92-30.78-.38-47.48,7.16-10.35,11.32-22,24.13-27.91,22.38-10.38,52.69-3,64.48,17.09,10.44,17.74,5.91,33.65-7.6,49.52C2240.82,771.48,2226.3,780.59,2208.59,786.35Zm98.31,145.5c-7.16,4-13,7.78-17.65,15.4-6.56,10.88-20,12.6-30.25,8.63-21.76-8.46-35.92-25.28-42.87-48.16-3.07-10.2,8-8.07,10.91-14.16,6-12.24,15.43-24.3,30.51-28.53,7.92-8.49,16.59-12.83,27.47-5,4.2.59,8.57-1.33,12.65.12a8.14,8.14,0,0,1,1.06.44,4,4,0,0,1,.77.44l.27.18c.47.18.95.38,1.39.59s.86.44,1.27.68a21.48,21.48,0,0,1,2.31,1.63c4.26,3.58,6.83,8.84,10.7,12.83C2330.79,890.19,2326.17,921.18,2306.9,931.85Zm35,101.06c-15.23-5.71-30.51-28.5-29.27-42.07.44-5,4.17-7.6,6.86-11,8.22-10.38,40.45-28.15,50-27.23,14.31.27,26.2,6.5,37.49,14.4,10.29,7.18,7.57,26.55-7.72,41.13-4.58,4.41-10.29,7.89-13.93,12.92C2372.71,1038.55,2359.7,1039.59,2341.93,1032.91Zm131.72,59.9c-14.72,13.36-31.87,23.42-52.78,23.3-17.8-.09-24.63-15.7-35-26.23-1-1-1.8-2-2.72-3.07-.06,0-.15,0-.21.06s.09-.12.12-.18l0,.06a.1.1,0,0,0,.06,0c-5.56-16.94-.09-27.53,17.44-33.94,13.39-4.88,25.49-13.9,40.71-13,18.63,1.06,25.13,16.5,33.71,29.12C2480.42,1076.81,2480.3,1086.78,2473.65,1092.81Z" style="fill:#163847;"/><path d="M446,470.68c-2.84,14.07-13.48,12.54-19.13,9.79-7.24-3.58-9.37.12-13.66,2.9-15.43,10-29.48,21.23-38.7,37.64-1.6,2.84-4.43,5.65-8.43,2.54-.86-5.71-8.9-6.21-9-12.62,0-2.22-2.31-3.78-4.17-2.34-17.89,13.84-37.58-1.57-55.91,3.67-6-12.39-15.94-2.13-19.9-.44-25.22,10.67-41.66-3.16-58.39-17.65-4.82-4.14-9.25-8.72-13.84-13.16-3.19-3.07-5.17-7.39-1.12-10.14,10.53-7.13,5.85-18.45,7.39-27.44,1.3-7.6,3-9.2,9.82-12,14.78-6,31.13-4.2,45.44-10.94,3.19-1.51,5.68.21,8.46.8,24.13,5.14,49.05-1.8,74.74,7.78-3.81-9-13.33-9-14.31-13.1-4.17-17.21-23-11.06-32.11-22.15-9.46-11.59-25.49-17.56-37.58-27.35-12.71-10.26-29.18-15-40-27.94-2.45-2.93-8.87-3.46-5.26-10,1.69-3,0-3.52-3.49-2.93-11.92,1.92-11.5,1.45-11.83-10.44-.18-5.62,2.75-13.93-7.36-15.79-2.69-.5-1.86-3.87-2.31-6.24-4.32-22.83-9.82-45.83,9.58-65.08,3.19-3.19,7.66-1.6,11.35-1,20.52,3.19,38,11.77,53.63,26.25s33.38,27.67,49.79,41.13c19,15.58,45,23.59,57.68,46.83,16.08-1.36,20.64,17.83,35.12,19.75,3.34.44,7.54,2.75,7.63,7.72.33,6.09,1.51,11.71,0,18.36-4.41,20,6.68,36.6,15.61,53.34C440.8,449.89,448.69,457.19,446,470.68Z" style="fill:#e76166;"/><path d="M159.12,1260.91c-11.71-8.67-12.88-22.38-11.22-34,1-7.26,11.24-13.31,17.53-19.71,9.7-9.87,24.53-14,30.87-27.68l17.65-10.73c-11.8-4.94-19.5-11-16.56-23.7.8-3.45-2.35-4.75-5.86-4.59-3.78.18-7-.65-6-5.73,2.84-1.8,4.43-4.7,2-7.16-4.5-4.59-8.84,1.6-13.45,1.07-8.66,1.54,6.56-16.35-6.19-8.67-13.86,8.34-29.49,14.93-40.26,27.63-9.92,11.7-24.79,16.64-35.51,27.44-2.55,2.57-11.33,8.29-14.08,6.57-10.52-6.59-24.08.36-32.76-7.43-6.87-6.18-11.93-1-17.78-1-7.65-5.22-10.22-17.42-22.63-16.35-1.31.11-3.75-2.22-4.13-3.79-3.5-14.68,6.26-26,10.25-38.82,2.72-8.73,11.91-6.63,16.38-5.4,28.7,7.93,47.05-11.44,66.26-25.49,13.23-9.68,25.92-20.41,39.75-29.3,11.91-7.66,22.07-17.46,33.62-25.33,16.85-11.47,34.44-21.8,50.85-34,14.63-10.91,26.73-25.26,44.27-32.4,5.34-2.17,9.37-4.14,11.34,2.83,6.55,23.26,14.73,46.18,15.34,70.72.1,3.89-3.43,4.22-5.83,5.61-6.17-2.21-11.29,1.64-14.25,5.21-8.29,10-24.05,11.91-29.47,21.26-7.92,13.67-23.13,9.32-33.3,20.07-11.08,11.72-5,13.68.4,20.49a31,31,0,0,0,16.74,11c2.64,2.89,5.59,5.56,7.88,8.71,9.83,13.59,15.78,14.65,28.19,4.11,13.34-11.34,26.79-22.59,39.49-34.61,5.31-5,13.29-4.84,17.81-11.38,2.22-3.21,7.17-.79,8.34,2.58,2.83,8.1,16.37,11.77,10,23.4-1.29,2.35-4.81,3.32-2,7,8.24,10.62,0,11.55-7.66,12.7-1.11-2.85.17-10.77-4.9-6.56-7.13,5.91-19.26,10.09-16.1,23.59-15.83,6.38-26.41,19.79-39.33,30-8.38,6.62-16.94,13.71-25.62,19.21-13.86,8.78-20.94,24.9-35.65,31.23-13.31,5.73-22.36,15.33-29.63,26.56C169.51,1262.88,165,1262.32,159.12,1260.91Z" style="fill:#e26066;"/><path d="M196.87,1306.37c4.55-3.39,3.36-7.35,1.54-11.73-2.62-6.33-2.26-11.52,6.18-12.91,1.62-.27,4.33-2,4.31-3-.43-20.95,18.8-20.51,30.34-28.7,19.41-13.78,38.41-10.84,58-1.07.73.36,2.46-1.28,3.72-2,7.66,10.21,20.76,15,25.7,28.52,2.46,6.73,4.65,14.26,9.93,20.46,4.59,5.4,7,3.27,7.77-.77,2.83-14.46,10.76-27.68,1.25-44.16-7.6-13.18-21.63-17.22-29.48-28.6,2-5.65,6.22-9.74,10-14.23,16.75-20,18.12-21.46,35.57-2.93,10.41,11.06,21.95,19,34.45,26.54-10.36,9.12-1.38,11.75,5.11,15.21l6.54,9.41c-6,4.46-6.2,5.58-1.38,6.67,5.55,1.25,6.51,7,5.59,8.33-6,8.46,3.43,12.7,4.35,19.06-3.43,3.63-1.49,8.62-3.1,12.59-5.47,13.5-1.06,31-14.52,40.92-8.33,6.12-12.52,14.24-15.91,22.85s-8.67,14.9-15.6,20.69c-13.07,10.92-16.71,26-9.42,41.19,3.39,7.07-.74,7.41-5.07,8.58-10.14,2.72-20.54,1-30.81,1.64-20.78,1.25-34.18-6.16-35.59-25.49-1.07-14.58-17.25-18.7-17.14-32.47,0-1-4.46-3.27-6.33-2.82-6.24,1.51-9-2.67-13.49-5.38-11-6.59-16.15-18.23-25.55-25.82C210.48,1336.21,202,1322.42,196.87,1306.37Zm48.31-7.95c-7.11,4-2.37,10.4,0,12.18,9.08,6.92,12.2,19.08,21.06,24.89,7.9,5.18,14.83,15.21,26.88,11.76,14-2.83,24.67-13.15,19.25-17.84-7.64-6.61-10.51-15.57-16.32-22.84l-23.09-28.91c-4.73,7.65-12.82,10.8-20.82,13.37C247.79,1292.42,244.9,1293.48,245.18,1298.42Z" style="fill:#e26066;"/><path d="M394,1415.12a107.24,107.24,0,0,0,3.23-35.66l-.35.18c9.76,1.71,16.89-.47,21.23-10.78,3.86-9.16,15.53-9.94,21.63-18.15,17.11-23,42.43-38.37,59.3-62.13,5.86-8.26,14.78-14.69,20.32-23.8,2.78-4.58,6.55-2.82,10.08-.32,11.66,8.26,21.28,18.9,35.64,24.12,6,2.2,14.53,10.54,11.64,21.31-1.73,6.45,16,10.39,2.32,18.31-2.48-.46-5.47-.93-6.69,1.57-13.18,26.94-40.85,38.65-60.8,58.42-4.54,4.5-7.11,11-10.59,16.56,10.36,2.16,8.35,12.9,12.84,18.34,11.66,14.14,13.77,26.08,5.24,43.39-10.94,22.2-20.59,43.8-42.89,57.69-8.79,5.47-11.78,19-24.77,20.5-.76.09-1.33,3.4-1.69,5.26-2.36,12.18,5,15.35,15,16,8.54,2,9.1,6.36,3.72,12.5-5.47,4.73-10.72,9.77-16.48,14.12s-13.1,5.54-19.37,2c-16.8-9.55-24.33-26.79-21.32-46.47,4.89-7.16,6.06-15.13,5.13-23.55l-.11-.11c3.86.35,5.32,3,7.07,6.13,2.13,3.81,8,2.56,6.83-.28-3.42-8,4.81-16.88-2.82-23.8,14.15-8.83,22.06-24.23,36.5-33.56,6.09-3.93,16.79-13.13,14.32-25.61,1.79-8.52-2.22-14.1-9.38-17.8s-13.18-.21-18.79,4c-3.51,2.62-6.93,5.4-10.17,8.35-5.2,4.74-8.86,5.36-16.19,1.18-9.61-5.46-14.55-15.76-24.6-20Z" style="fill:#e26066;"/><path d="M2353.74,394.82c-19.41,2.19-41.37-19.07-41.37-40.13,0-2.44,1.64-5.6.62-7.21-14.23-22.29,11.1-29.29,16.86-43.76,1-2.43,5.73-3.86,5.91-6,.92-10.67,7.77-15.5,16.05-20.67,6.08-3.79,6-13.27,7.63-19.35,5.08-18.38,22.09-24.83,32.43-37.59,1.55-1.91,5.1-3.31,6.7-6.36,4.71-9,10.46-5.54,14.91-.27,4,4.74,5.62,9.76,13.4,3.5,6.81-5.48,9.46.94,8.76,7.07-1.33,11.56,3.62,19.82,12.24,26.58,2.25,6.76,6.12,13-4.56,17.58-4.4,1.88-6.63,9.62-1.18,15.21,4.91,5,2.41,8.48-2.42,11.44-.89,9.74-11.64,14.94-13.7,20.36-8.42,22.22-28.14,34.21-40.54,52.31-3,4.43-7.48,5.93-12.39,8.13C2365.15,379.23,2351.86,380.31,2353.74,394.82Z" style="fill:#e76166;"/><path d="M2037.5,359c-13.69,8.61-28.22,7.83-42.67,2.93-8.05-2.73-15.29-8.18-23.44-10.22-9.24-2.32-3.71-9.16-5.36-13.48-6.38-16.71-14.12-33-20-49.63-6.52-18.33-5.71-39.23-9.33-58.33-2.55-13.43,10-26.4-1.23-39-1.21-1.36,4-8.19,10.78-9,20.16-2.42,38.85-8.91,60.81-1.55,11.79,3.95,14.31,6.46,14.2,16.38a18.42,18.42,0,0,0,.92,17.41c5.87,10.39,1.42,12.83-7.15,11.21,6.07,17.47,22.85,31.83,10.92,53.1-1.52,2.71-.71,6.74-1,10.16l2.82,20.26c3.11,5.51,11,3.38,14.19,9,1.43,2.5,3,7.56,2.19,7.36-10.35-2.72-10.11,13.68-20.26,10.86-1.87-.52-5.54.45-6.28,1.85-1.53,2.9,1.08,5.35,3,7.56C2025.45,351.21,2034.49,351.26,2037.5,359Z" style="fill:#e76166;"/><path d="M2225.5,347.65c-4.5,4.51-15-4.14-16.5,7.55-.18,1.4-3.53,1.3-5.13-.18-15.26-14.08-39.69-19.85-42.52-45.14-1.13-10.16-1.09-20.34,3.72-30.57a77,77,0,0,0,7.28-30.43c.21-10.91,1.6-21,5.23-31.23s2.58-20.6,1.1-31.07c-.5-3.56-2-8.06,3.59-9.72,17.61-5.23,42.13,1.71,51.58,17.55,3.16,5.29,7.74,4.64,10.47,8.08-.89,10.47,5,19.44,6.55,29.37,6.19-1-8,18.25,8,8.05,1.71-1.09,2.07,2.53,2.29,4.35.55,4.57-1.39,8.52-2.77,12.73-4,12.2-14.51,20.89-14,36.29.3,9.6-6.42,20.92-9.08,31.75-.72,2.95-1.52,7.11-4.51,6.83C2205.42,329.49,2224.2,341.43,2225.5,347.65Z" style="fill:#e76166;"/><path d="M1833.51,678.38c-3.28,2.45-3.87,5.29-4.85,8.46-13.54,6.56-19.69,20.87-31.25,29.65-17.47,13.25-27.32,33.44-42.58,48.78-8.6,11.56-17.36,23-25.72,34.77-3.84,5.41-7.45,2.72-11.35.65q-9.31-16.9-18.57-33.79c8.31-.53,22.15,3.46,10.08-13.19-2.37-3.28.3-8.37,4-10.05,14.25-6.59,21-20.28,30.69-31.16,14.66-16.47,30.25-32.2,43.88-49.46,12.51-15.85,28.24-29.3,36.9-48.1,12-2.42,20.61,6.86,23.06,24.1C1850,654.78,1846.55,668.5,1833.51,678.38Z" style="fill:#e76166;"/><path d="M554.4,1531.8a23.75,23.75,0,0,1,11.28-18.75c28.78-18.56,57-38.08,86.64-55.15,10.56-6.09,22.16-9.65,32.42-17.63,10.59-8.23,22.81,2,24.28,18.38-9.1,4.39,1.78,13.08-3.77,18C693,1487.54,683,1500.38,668,1508.83c-26.82,15.17-54.46,29.16-79.16,48-6.12,4.68-14.88,9.88-22.38,5-7.15-4.64-8.95-13.59-6.18-22.3C562.13,1533.84,560.88,1531,554.4,1531.8Z" style="fill:#e26066;"/><path d="M396.84,1379.64l.35-.18c-13.26,11.92-21.06,26.86-20.59,44.6.36,13.6,1.38,20.46-16.05,28.77-22.2,10.57-43.47,5.82-64.67,10.16-5.48,1.12-16.14,1.08-9.36-11,1-1.79,1.85-3.91-1.27-3.75-15.74.81-13.82-12.31-14.25-20.56-.77-14.74-9.51-22.24-19.8-30.22-17.41-13.52-37.09-25-49.37-43.85-8.17-12.55-8.11-28.45-12-42.76-1.08-3.92,3-5.61,7.08-4.52,5.17,16,13.6,29.83,26.91,40.57,9.4,7.59,14.53,19.23,25.55,25.82,4.53,2.71,7.25,6.89,13.49,5.38,1.87-.45,6.33,1.82,6.33,2.82-.12,13.77,16.07,17.88,17.14,32.47,1.41,19.33,14.82,26.74,35.59,25.49,10.26-.62,20.66,1.08,30.81-1.64,4.33-1.16,8.45-1.51,5.07-8.58-7.29-15.23-3.65-30.27,9.42-41.19,6.93-5.79,12.21-12.08,15.6-20.69s7.57-16.73,15.91-22.85c13.46-9.89,9.06-27.41,14.52-40.92,1.61-4-.34-9,3.08-12.59,0,0,0-.7,0-.7,7.19,6.24,8.6,24.28,4.23,33.41-7.9,16.48-11,35.25-24,49.35C395.36,1373.74,396.67,1377.21,396.84,1379.64Z" style="fill:#24404e;"/><path d="M554.4,1531.8c6.49-.85,7.74,2,5.92,7.77-2.77,8.72-1,17.66,6.18,22.3,7.5,4.87,16.25-.33,22.38-5,24.7-18.86,52.34-32.85,79.16-48,14.94-8.45,25-21.3,37.21-32.16,5.55-4.93-5.32-13.62,3.77-18,16.39,34.92,1,56.44-31.58,71.69-11.1,5.19-20.27,12.43-29.19,19.73-12.32,10.08-28,13.3-40.25,23.9-16.81,14.47-27.48,13.32-51.82,2.14,0,2.18-.57,4.34.09,6,6.85,17.24-3.16,27.3-15.75,35.41-12,7.74-28.91,4.84-42.36-5.84-12.3-9.78-17.27-24.28-11.64-39.45,3.12-8.41,1-22.09,16.54-21.27-1,9.13-4.54,17.66-3.82,27.33,1.07,14.5,14.33,8.72,20.77,14.06,3.9,3.23,26.82-4.79,29.19-9.58.59-1.2.79-3.95.52-4-12.8-4.27-2.16-17.35-9-23.74C542.4,1545.57,548.2,1538.56,554.4,1531.8Z" style="fill:#24404e;"/><path d="M2225.5,347.65c-1.29-6.21-20.08-18.15,5.27-15.78,3,.28,3.79-3.88,4.51-6.83,2.66-10.83,9.38-22.15,9.08-31.75-.48-15.4,10-24.09,14-36.29,1.38-4.21,3.32-8.16,2.77-12.73-.22-1.81-.58-5.44-2.29-4.35-16,10.2-1.8-9-8-8.05-1.55-9.93-7.44-18.9-6.55-29.37,20-16.18,25.78-13.38,42,10,8.36,12,9.83,26,16.68,38.23,3.07,5.47-1.08,16.12-4,23.61-10.6,27.12-23.83,53.15-33,80.91-3.3,10-19,12.84-27.3,5.82C2233.94,357,2229.88,352.15,2225.5,347.65Z" style="fill:#52b5c9;"/><path d="M2353.74,394.82c-1.88-14.5,11.41-15.59,19.36-19.15,4.91-2.2,9.36-3.7,12.39-8.13,12.4-18.1,32.12-30.09,40.54-52.31,2.05-5.42,12.8-10.62,13.69-20.36l7.05.22c-2.4-13.82,7.19-18.06,17.32-22.2,1.16-.47,1.29-3.47,1.9-5.29,16.09,22.54,16.49,47,4,70.11-6.66,12.25-20.28,20.56-30,31.37-14.29,15.95-30.79,29.89-42.64,48.12-3.58,5.51-9.3,12.49-17,3.73-1.38-1.58-2.7-3.41-4.63-2.56-14.35,6.28-13.57-5.69-15.86-13.32C2358.64,401,2359.73,395.91,2353.74,394.82Z" style="fill:#52b5c9;"/><path d="M485.72,1095.66c-2.13-13.18,4.26-24.71,7.64-36.73,1-3.58,2.29-6.49,2.18-10.58-.45-16.09,9.43-22.58,23.59-15.06,17.63,9.37,30.26,21.76,26.93,45-1,6.71,10.3,16.91-9.11,12.18L543.6,1102c-1.84,18-3.17,35.69,1.2,53.75,2.81,11.58-9.72,10.08-14.46,9.43-12.33-1.7-24-5.86-33-16.49-4-4.81-4.34-15.12-14.6-13.56,1.55-7.95-9.7-16.35.37-23.78C489.59,1106.6,481,1100.2,485.72,1095.66Z" style="fill:#f2ba04;"/><path d="M2037.5,359c-3-7.73-12-7.77-16.86-13.21-2-2.22-4.58-4.66-3-7.56.74-1.39,4.4-2.37,6.28-1.85,10.15,2.82,9.91-13.57,20.26-10.86.78.2-.76-4.86-2.19-7.36-3.19-5.58-11.08-3.46-14.19-9,7.41-.77,13.65-2.11,11.41-12.35-1.89-8.65-6.35-10.91-14.23-7.9.27-3.42-.55-7.44,1-10.16,11.93-21.27-4.84-35.63-10.92-53.1,8.57,1.62,13-.81,7.15-11.21a18.42,18.42,0,0,1-.92-17.41c17.88,5.09,31.87,18,49.11,24.4,1.14.42,3,2.15,2.8,2.5-5.82,12.57,6.49,25,.18,37.57-1.66,3.3-.4,6.42,1.2,9.73,2.07,4.29,4.39,10.34,1,13.68-9.7,9.48-3.95,19.27-1.66,28.7,2.59,10.65-1.12,19.94-4.37,29.4-.7,2-4.08,3.58-2.68,6.18,10,18.49-3.57,12-11.77,11.27C2049.17,360,2043.33,359.48,2037.5,359Z" style="fill:#52b5c9;"/><path d="M185.5,1134.72c-1,5.08,2.25,5.9,6,5.73,3.5-.16,6.65,1.14,5.86,4.59-2.94,12.75,4.76,18.77,16.56,23.7l-17.65,10.73a63.45,63.45,0,0,1-26.35-15.55c-4.82-4.73-15.23-2.1-19.5,6-5.1,9.66-14.42,13.1-22.3,19.08-10,7.55-20.58,12.5-31.24,18.18s-41.18,5.69-50.8-1.08c-2.38-1.68-2-4.21-2.15-6.62l1.78-1.78c-.47-.07-1-.36-1.4-.19-1.29.62-1.26,1.42,0,2.19-15.21-2.74-13.76-16-16.81-26.5,5.85,0,10.91-5.2,17.78,1,8.68,7.8,22.25.84,32.76,7.43,2.75,1.72,11.53-4,14.08-6.57,10.72-10.8,25.59-15.74,35.51-27.44,10.77-12.7,26.4-19.29,40.26-27.63,12.75-7.67-2.47,10.22,6.19,8.67,1,2.88,2.55,5.22,5.82,5.84.1,1.52.61,2.83,2.4,2.35.49-.13.64-1.51,1-2.31l1.09.45Z" style="fill:#24404e;"/><path d="M421.92,1051.21c3.54-10.74,6.88-21.68,21.32-20.27,1.09-6.38-9-12.87,1.32-16.93,9.6-3.79,17.63,1,23.45,7.9,9.47,11.3,13.74,24.6,11.11,39.59-.15.87.5,2.62.38,2.66-15.74,4.75-8.76,18.36-11.1,28.3-6.14,9.67-11.09,19.24-8.86,31.73,1.71,9.58-14.09,17-24.39,11.51-12-6.44-23.12-14.7-31.27-25.6-3.27-4.37-6.18-10.28-1.25-18.06C410.63,1079.42,415.65,1064.92,421.92,1051.21Z" style="fill:#f2ba04;"/><path d="M464.64,1566c-10-.67-17.35-3.85-15-16,.36-1.87.93-5.18,1.69-5.26,13-1.47,16-15,24.77-20.5,22.31-13.88,32-35.49,42.89-57.69,8.53-17.31,6.42-29.24-5.24-43.39-4.49-5.44-2.48-16.18-12.84-18.34,3.48-5.57,6.05-12.06,10.59-16.56,20-19.77,47.62-31.48,60.8-58.42,1.22-2.49,4.21-2,6.69-1.57,1.3,19.06-6.81,31.66-21.53,44.68-13.19,11.67-28.74,23.07-35.72,40.9,11.56,7,20.88,16.13,19.35,32.48-.53,5.66.32,11.65.81,17.46.74,8.83,1.18,18.85-9.1,24.28-4.23,2.23-5.76,6.65-6.77,11-1.5,6.39-2.83,12.32-11.29,13-2.35.19-4.71,3.19-6.62,5.3-12,13.23-22.63,27.75-38.63,36.79C465.07,1556.57,467.72,1562.57,464.64,1566Z" style="fill:#24404e;"/><path d="M2361.51,622.05c-6.68-18.3-11.47-37.43-19.72-55-4.55-9.67-11-20.43-23.59-23.51-.18.86-.35,1.69-.53,2.51-10.05,1.8-15.08,3.25-6.62,15.52,24.16,35.07,36.81,72.82,15,114.27-7.48,14.25-13.19,30.51-25.66,40.74-17.18,14.07-18.15,12.89-19,27.82a2.8,2.8,0,0,1-.53,1.27c-1.6,2.28-10.76-.95-5.41,5.65,3.78,4.7,10.08,1.57,14.46-2.16,4.79-4.08,9.46-8.16,14.58-11.94,25.4-18.75,44-42.66,51.09-74.27.44-2,.95-4,1.45-6,.74-3,1.54-6,2.31-9,.41-1.51.8-3,1.18-4.52s.8-3,1.18-4.52C2357.19,633.35,2363.64,627.88,2361.51,622.05Zm-43.76-75.93a4.6,4.6,0,0,0,.68.24,2.9,2.9,0,0,1,.44.27c.18.15.09.62.12.95C2318.58,547.1,2318.13,546.6,2317.75,546.13Z" style="fill:#4ba7bb;"/><path d="M1824.7,614.93c-8.66,18.8-24.39,32.26-36.9,48.1-13.63,17.27-29.21,33-43.88,49.46-9.73,10.88-16.44,24.57-30.69,31.16-3.67,1.69-6.33,6.77-4,10.05,12.06,16.65-1.77,12.65-10.08,13.19a58.37,58.37,0,0,0,3.52-28.65c-.8-7.3,3.93-12.68,7.63-18.51,17.89-28.18,39.41-53.57,59.55-80,11.15-14.64,22.47-29.57,33.2-44.76C1816.84,594.56,1817,608.87,1824.7,614.93Z" style="fill:#f2ba04;"/><path d="M2478.85,759.12c.15,2.9,1.45,6.47.21,8.6-16,27.82-20.76,61.08-46.83,84.44-17.8,15.94-30.33,37.58-53.22,48.46-6.68,3.16-15.52,9.34-19.51,4.26-4.2-5.35.77-14,7.69-19.45,23.8-18.63,47.22-38.73,63.33-64,17.8-27.88,32-58.66,32.38-93.34,0-3.31-1.18-6.68-1.92-10-.89-3.93-8.84-5.56-4.79-10.64,3.64-4.55,9-1.06,13.66-.15.65.12,1.57-.95,2.37-1.45,2.28,1.51,5,2.6,5.2,5.91C2480.6,727.49,2486.33,743.1,2478.85,759.12Z" style="fill:#4ba7bb;"/><path d="M159.12,1260.91c5.92,1.41,10.39,2,14.82-4.88,7.27-11.23,16.33-20.83,29.63-26.56,14.71-6.34,21.78-22.45,35.65-31.23,8.68-5.5,17.25-12.59,25.62-19.21,12.91-10.21,23.5-23.62,39.33-30,6.68-2.37,8.22-14.18,18.45-10.05,3.24,14.6-2.44,24.69-14.39,33.36-16.11,11.7-29.2,27.65-48.78,34.42-6.82,2.36-7.15,10-13,14.24-21.48,15.66-41.18,33.76-61.56,50.93-6.51,5.48-13,.89-19.49-.09C158.57,1270.8,158.45,1266.13,159.12,1260.91Z" style="fill:#24404e;"/><path d="M2598.27,877.48c-6.62,5-5.09,13.42-8.57,19.78-12.15,22.06-25.19,42.13-45.74,59-18.33,15.11-38.32,26.17-57.89,38.52-7.42,4.67-16.17,2.81-24.07,5.79-4.43,1.69-4.2-4.32-4.14-7.42.15-7.21,5.32-12.27,10.85-14.43,14.81-5.82,26.88-16.29,40.42-23.3,36-18.63,55.76-48,66.64-85.24,2.84-9.67,7.36-13.45,16.73-7.48C2595.26,867.34,2601.49,870.56,2598.27,877.48Z" style="fill:#4ba7bb;"/><path d="M2616.31,1034.21a.88.88,0,0,1,.12-.24s.06-.06.09-.06Z" style="fill:#4ba7bb;"/><path d="M2628.22,986.58c-1.12,14.61-1.6,29.39-9.67,42.43-.71,1.63-1.42,3.28-2.13,4.94v0h0l-.09.24.09,0c-4.49,9.73-8.07,20.1-17.89,26.25-14.13,16.56-32.46,27.61-50.74,38.7-1.21.74-3.58-.44-5.38-.77-1-5.29-2.22-10.56-3-15.91-1.3-9.49,4.85-15.37,12.54-14.4,10.38,1.36,15.26-5.26,19-11,7.45-11.65,18.3-21.08,24.48-32.7,9.22-17.36,17.8-36.72,8.55-57.33-4.64-10.35-3.75-17.59,7.63-21.73C2626.74,955.18,2629.49,970.11,2628.22,986.58Z" style="fill:#4ba7bb;"/><path d="M1966.28,533.7c-11.58,2.2-17.38-3-15.79-13.5,1.24-8.2.65-16.77,2.64-24.73,2.19-8.76,6.91-10.7,11.56.7,1.88-17.72,16.93-19.08,26.79-21.16,13.7-2.9,27.11-7.5,41.18-9.29,8.11-1,16.9-2.59,21.21,3.9,5.24,7.91,4.48,17.91-2.13,26.17-1.84,2.29-3.72,4.54-5.59,6.81-4.69-4.06-8.82-12.58-15.37-2-1.45,2.34-2.78,2-4.4.36-9-9-16.42-1.2-24.19,2.24-6.91,3.06-9.29,16.23-21.66,8.27-3-1.91-10.16,4.81-11.44,11.25C1968.35,526.44,1969.65,530.64,1966.28,533.7Z" style="fill:#f2ba04;"/><path d="M1966.28,533.7c3.37-3.06,2.07-7.26,2.8-11,1.27-6.44,8.47-13.16,11.44-11.25,12.37,8,14.75-5.21,21.66-8.27,7.78-3.44,15.24-11.26,24.19-2.24,1.63,1.64,3,2,4.4-.36,6.55-10.57,10.68-2,15.37,2,1.83,13.56-8.85,23.82-9.71,36.66-6.74,4.12-13.55,2.71-21,2-6.93-.67-18.25-7.8-20.78,7C1973.24,554.05,1967.2,551,1966.28,533.7Z" style="fill:#e76166;"/><path d="M223.1,1119.51a31,31,0,0,1-16.74-11c-5.43-6.81-11.48-8.78-.4-20.49,10.16-10.75,25.38-6.41,33.3-20.07,5.42-9.35,21.18-11.26,29.47-21.26,3-3.57,8.08-7.41,14.25-5.21,3.46,16.87-5.84,27.24-16.25,39.28C253.69,1095.8,237.23,1106.17,223.1,1119.51Z" style="fill:#24404e;"/><path d="M2156.46,629.56a81.29,81.29,0,0,1-6.27,6.09c-.47-.12-1-.44-1.39-.35-24.69,3.81-49-.86-73.35-3.46a10.78,10.78,0,0,0-4.29.68c-15.43,4.85-22.17-1.36-21.35-19.72,12.06-.71,23.18-6.77,35.48-6.3,5.23.21,7-4.58,10.26-7.24-1,17.62,14.16,10,20.37,10.44,11.24.83,22.38.74,33.5,3.73,4.05,1.06,9.28-.77,11.18,4.38C2162.32,622.38,2159.24,626.19,2156.46,629.56Z" style="fill:#e26066;"/><path d="M2007.21,628.25l3,.74-.17-.16c-.35,6.27,1.58,16.26-1.48,18.14-9.89,6.08-21.34,11.6-32.68,12.83-13.79,1.49-23.13,11.4-36.36,14.08-16.09,3.25-25.89,19.6-42.61,25.1-7.92,2.61-16.14,11.39-24.32,17.14-4.6,3.24-11.7,10.2-15.7-1.59,11.83-1,18.13-11.27,25.91-17.72,11.9-9.88,22.87-22.16,36.52-28.37,20.41-9.28,36.18-26.68,59.55-31.11C1988.13,635.59,1996.44,627.55,2007.21,628.25Z" style="fill:#e76166;"/><path d="M1757.41,527.94c-11.44,11.74-23.09,23.56-36.81,32.91-4.43,3-8,6.47-14.1,1.89-5.23-3.93-5.94-7.36-4.26-13.39,1.42-4.94-.15-10.7,4-15,13.81-13.69,28.12-26.91,41.07-41.33,4.08-4.52,8.25-6.09,13.3-7.45C1771.07,496.63,1770.57,514.43,1757.41,527.94Z" style="fill:#d75d63;"/><path d="M399,1423c10,4.23,15,14.52,24.6,20,7.34,4.17,11,3.55,16.19-1.18,3.24-3,6.66-5.72,10.17-8.35,5.61-4.19,11.56-7.72,18.79-4s11.17,9.28,9.38,17.8c-4.88,1.64-10.17-.36-13.59,7.61-2.44,5.68-9.59,13.9-19.79,11.93-1.38-.27-3.94-.16-4.24.52-7.79,17.66-14.3,6.54-21.7-.51-7.13-6.78-16.62-9.5-23.49-18.47-5.66-7.41-.84-12.74-3.38-18.29Z" style="fill:#24404e;"/><path d="M540.72,1555c6.83,6.4-3.81,19.47,9,23.74.27.09.08,2.84-.52,4-2.37,4.79-25.29,12.81-29.19,9.58-6.44-5.33-19.69.45-20.77-14.06-.72-9.67,2.82-18.2,3.82-27.33,8.09-3,6.15-17.5,18.26-16,10.31,1.31,9.76,12.42,15.89,17.48C538.31,1553.4,539.54,1554.16,540.72,1555Z" style="fill:#d75d63;"/><path d="M2521.49,1110.46v.24a81.51,81.51,0,0,1-5.17,29.24c-13.36,35.89-32.58,68.36-53.75,99.9-.74-3.52-.53-7.63-5.56-8.22,5.74-13.22,17.56-23.65,17.68-39.41.09-9.37,10-12.74,12.95-21.85,3.73-11.56,4.73-24.48,11.26-35,4.94-7.86-3.19-16.65,3.07-23.83a40.92,40.92,0,0,1,19.37-1.12C2521.4,1110.43,2521.43,1110.46,2521.49,1110.46Z" style="fill:#e76166;"/><path d="M411.19,1548.08c-3,19.68,4.52,36.93,21.32,46.47,6.27,3.56,13.5,2.44,19.37-2s11-9.38,16.48-14.12c.15,11.87,7.23,24.33-7.25,34.19-14.93,10.17-40.43,8.77-50.12-6.9-11.17-18.07-14.58-37.86-3.45-57.88Z" style="fill:#24404e;"/><path d="M316.09,1222.42c7.85,11.38,21.88,15.42,29.48,28.6,9.5,16.48,1.57,29.7-1.25,44.16-.79,4-3.17,6.17-7.77.77-5.28-6.21-7.47-13.73-9.93-20.46-4.94-13.52-18-18.31-25.7-28.52C293.09,1230.82,305.53,1227.21,316.09,1222.42Z" style="fill:#24404e;"/><path d="M2466,267.6c-.61,1.82-.74,4.82-1.9,5.29-10.13,4.13-19.72,8.38-17.32,22.2l-7.05-.22c4.83-3,7.33-6.41,2.42-11.44-5.45-5.59-3.22-13.33,1.18-15.21,10.67-4.57,6.81-10.82,4.56-17.58C2461.09,248.63,2462.59,259.13,2466,267.6Z" style="fill:#4ba7bb;"/><path d="M427.28,1506.47c7.63,6.93-.6,15.83,2.82,23.8,1.22,2.84-4.69,4.09-6.83.28-1.75-3.12-3.21-5.78-7.07-6.13C417.14,1516.73,420.13,1510.32,427.28,1506.47Z" style="fill:#d06970;"/><path d="M322.62,1139c-10.22-4.12-11.77,7.68-18.45,10.05-3.17-13.5,9-17.69,16.1-23.59,5.07-4.2,3.79,3.72,4.9,6.56Z" style="fill:#d06970;"/><path d="M2616.51,1033.91c0,.09-.09.18-.12.27l-.09,0,.09-.24h0v0Z" style="fill:#24404e;"/><path d="M411.19,1548.08l-3.65-.22c2-8.15,2.55-16.8,8.78-23.34C417.25,1533,416.08,1540.92,411.19,1548.08Z" style="fill:#d06970;"/><path d="M2616.4,1034.18l-.09,0,.09-.24h0v0c.71-1.66,1.42-3.31,2.13-4.94C2618.94,1031.19,2619.23,1033.35,2616.4,1034.18Z" style="fill:#24404e;"/><path d="M2524.53,1106.2c.06,2.25-.77,3.87-3,4.49l-.12,0a1,1,0,0,1,0-.3c-.33-2.34,1-3.49,3.07-4.2Z" style="fill:#e76166;"/><path d="M2527.61,1101.59c-1,1.54-2,3.1-3.07,4.61l-.09.15a.18.18,0,0,0,0-.12C2524,1103.72,2525,1102.12,2527.61,1101.59Z" style="fill:#e76166;"/><path d="M688.83,558.28s0,0,0,.06l.27,0C689,558.31,688.92,558.28,688.83,558.28Z" style="fill:#e26066;"/><path d="M1382,636.13c-15.73-3.87-29.65,9.2-45.5,4.76-2.78-.77-3-.27-4.61-5.82-1-3.37-3.75-2.72-5.82-2.42-10.61,1.63-20.58,11.89-32.14,1.6-1.92-1.71-2.07,3.43-4,4.67-2.75,1.77-4.55,6.74-8.25,5-13.22-6.36-29.24,5.94-42.28-7.84-3.49-3.67-14.28,6.33-22.85,7.6-3.75.56-7.16,2.84-10.91.5-5.56-3.4-10.44-4-15.91.92-2.13,1.89-7.42,2.81-9.82,1.48-20.81-11.35-40.12,3.43-60.29,3.34-5.38,0-9.55,3.75-12.18-3.87-.56-1.63-5.77-3.43-5.91-3.19-6.27,9.37-16.5.8-23.68,5.44-4.35,2.78-8.81,7.66-11.06-2.54-.83-3.67-4.94-.59-7,1.21-18.77,16.35-40.15,13.22-61.5,7.63-4.58-1.18-7.39-.27-10.79,1.74-16.08,9.64-32.35,13.81-49,1.3-3.13-2.37-7-1.51-6.36,1.71,3,13.81-9.37,9.11-12.12,8.1-8.31-2.93-18.21,3-25.22-4.94-.41-.47-2.51-.41-2.72,0-8.52,16.38-23.65,4.64-35.1,8.37-7.83,8.78-17.62.71-26.2,3.1l-7.72,2c-3.78.5-6.92,2.16-10.23,4.11-5.94,3.46-5.82-1.45-5.94-5.35l-5.23,1c-1.12-3,1-6.95-2.51-8.93-.53-.33-2.6,2-4,3.13-2.25,1.06-4.46,2.1-6.71,3.13-10.73-.89-21.52-2.6-31.64,3-11,2.16-21.38,8.16-33.17,5.11-3-2.84-5.79-2.6-8.34.65-14,5.56-27,5-38.58-5.68-2.54,3.75-4.41,6.92-10,8.66-17.27,5.29-35.3,3.43-52.6,7.48-1.66.38-4-2.28-6.06-3.55.47-5.2-2.57-12.09,6.42-13.13,5.56-6.95-2.13-16.05,3.7-23a5.78,5.78,0,0,0,1.86-1c13.28-8,9.49-22.41,11-33.82.8-6.24-.09-9.76,5.41-15s15.94-9.37,14-20.49c3.87-11.65,13.69-9.46,22.47-9.67,1.3-2,2.57-4,3.84-6-.56-9.7,5.82-9,12.18-8.37,0,0,0,0,0,.06l.27,0c-.09,0-.15,0-.24,0l2.6-3.34c7.33,1.69,13.48-1.06,20.25-3.87,24.57-10.11,50.26-15.73,76.55-20.34,16.29-2.87,33.11-5.41,49.08-6.65,21.23-1.63,42.9-3.4,64.48-3.46,19.16,0,40,4.7,57.74-5.53,8.37-4.82,13.9-.21,20.76,0,9.55.24,19.54-3.16,28.56-1.3,10,2.07,19.1,2.57,28.86.24,6.18-1.45,13.22,2,18.48,1.3,12.09-1.48,23.36-11.18,36.25-2.34,2.42-6.89,6.09-8.22,13.1-4.85,28.35,13.54,59.46,5.41,88.4,10.5,29.18,5.14,58.78,4.35,88,10.58,20,4.23,36.57,13.72,55,20,5.71,1.92,9.4,5.5,11.92,12.8,4.32,12.74,19.69,19.57,21.17,35.18.33,3.73,12.09-2.78,9.61,2.84C1373.73,613.27,1390.91,623.77,1382,636.13Z" style="fill:#d75d63;"/><path d="M606.84,377.45a2,2,0,0,0-1.45.15c-6.42,6.24-14.31,12-22.32,5.62-6.3-5-9.11-13.81-12.71-21.52-2.6-5.65-1.89-14.1-11.65-16.68-5.38-1.42-7-8.1-.35-13.93,5.23-4.61,10-7.66,15.64-6.33,21.73-.62,39.56,14.69,45.5,35.15C623.34,373,622.9,380.08,606.84,377.45Z" style="fill:#d06970;"/><path d="M1024.7,148.34c-4.58-.15-12.09,11.8-15.91-2.42-1.39-5.23-11.56-3.75-17.53-7.48-6.83-4.26-10.55-8.16-9.82-15.88.44-4.73-1.63-8.46-3.4-12.54-4.85-11,2-20.84,13.84-20.34,12.21,2.54,23.15,4.46,26.55,20.81,1.63,7.84,9.43,14.93,10.23,24.84C1029.11,141,1029.28,148.52,1024.7,148.34Z" style="fill:#d06970;"/><path d="M1364.15,429.43c-8.37,10.2-15.46,1.06-20.22-4.41-13.6-15.61-13.6-40.21-1.68-58.07,2-2.9,3.73-4,7.1-3.22,10.79,2.39,25.28,21.7,24.75,34.77C1358.89,404.24,1371.6,420.29,1364.15,429.43Z" style="fill:#d06970;"/><path d="M469.09,872.83c-9.43-4-17.74,2.54-26.76,1.8-16.5-1.36-25,5.62-30.22,20.58-3.07,9,.09,14.31,8.72,16.59,11.24,3,22.09,4,34.21,1.63,7.45-1.48,8.6-2.78,9.28-9.08.68-6,2.84-11.92,4.35-17.86C451.06,882.27,467.44,877.77,469.09,872.83Zm-45.15,36.6c-.24-.33-.68-.68-.65-.95s.56-.5.86-.77c.24.33.47.65.68,1C424.54,908.93,424.24,909.17,423.95,909.44Z" style="fill:#d06970;"/><path d="M1457.4,433.92c-5.71,12.15-11.68,25.81-18.63,38.94-1.83,3.46-6.21,1-9.08-1.09-17.56-13-19.07-40.45-2.9-54.55,4.73-4.11,6.3-14.81,16-9.25C1451.9,413.14,1456,422,1457.4,433.92Z" style="fill:#d06970;"/><path d="M740.48,383.78c-4.94-8.28-10.82-6.33-16.29-5-7.48,1.74-14.9,1.24-21.52-2.1-4.2-2.13-10.38-4.41-6.24-12.06,3.1-5.79-2.25-6.92-6.09-9.2-4-2.37-9-5.26-6.42-11.5,2-4.94,5.85-6.18,11.18-7.57,12.48-3.19,22.91.12,32.52,6.95,5.32,3.78,11.47,8.57,7.63,16.88-1.8,3.87-1.42,6.21,2.6,8.22C743.79,371.33,741.63,376.51,740.48,383.78Z" style="fill:#d06970;"/><path d="M481.07,609.37c-.33,14-20.93,34.74-35.92,35.21-4.55-4.94-15.67,2.93-18.18-8.66-2.19-10.08,2-18.39,8.22-25.34s35-11,43-7.21C480.8,604.67,481.13,606.77,481.07,609.37Z" style="fill:#d06970;"/><path d="M803.78,250.41c-.35,7.42-9,4.55-11.77,9.17-7.33,1.74-13-8.84-20.9-2.78-2.42-4.85-3.1-9.25-10.58-11.71-9.61-3.13-9.4-15.34-8.57-24.1.65-6.8,7.63-8.81,14.78-8.84C785.92,212,804.73,231,803.78,250.41Z" style="fill:#d06970;"/><path d="M906.55,265c-5.26.35-10.38,3.87-15.61,1-13.33,3.1-17.53-2.78-17.3-15.37.06-4.23-4.67-8.31-6.3-12.8-4.41-12.18.47-17.41,13.22-16.2,7.33.68,16.05-.44,20.43,5.56,5.44,7.51,9,16.62,13.28,25C916.43,256.35,914.72,264.48,906.55,265Z" style="fill:#d06970;"/><path d="M452.06,785.56l-.09-.09H452A.11.11,0,0,1,452.06,785.56Z" style="fill:#d06970;"/><path d="M467.7,783.63c2.63-.53,5.62-2.37,3.9-4.64-2.87-3.87-4.58.18-6.27,2.28-4.52,1-8.19,4.94-13.3,4.2-8-17.74,1.51-30.6,12.36-42.84,6.95-7.86,16.23-.77,24.48-2.66,5.2-1.15,8.57,8.69,13.42,13C506,756.31,475.07,784.22,467.7,783.63Z" style="fill:#d06970;"/><path d="M554.48,463.11c-9.61-.18-6.68,16.17-17.83,13.66-3.28-.74-6.95-3.58-9.49-.24-10.11,13.1-19.4,2.16-23.74-3.61-3.13-4.14-15.73-9.28-7.69-17.24,5.85-5.79,13.48-12.39,23.74-10.64,1.92.33,3.9.35,6.36.56,13.51-6.68,17.77,8.75,27.26,12.39C554.07,458.38,554.07,461.36,554.48,463.11Z" style="fill:#d06970;"/><path d="M1303.81,218.45c-.89,6.56-1.06,11.92-2.45,16.88-1.33,4.76-1.12,12.06-8.93,11.15-6-.71-12.6-1-15.17-9-2.42-7.6-6.15-14.78-9.61-22-5.09-10.76,1.3-22.5,6.83-26.11,8.4-5.44,18.36,2.9,23.65,11.32C1301.56,206.15,1302.27,213.33,1303.81,218.45Z" style="fill:#d06970;"/><path d="M1543.79,558.46c-7.39-4.58-12.45-.44-15.94,5.26-5.23,8.49-14.1,16.35-10.2,27.64,1.6,4.58,6.06,8,12.86,7.51,20.79-1.63,31.1-11.86,33.17-33.82.24-2.51,2.63-4.82,4.11-7.33C1558.55,548.58,1552,563.57,1543.79,558.46Zm-1.15,35.36a16,16,0,0,1-3.58-1.06c.5-.59,1-1.63,1.51-1.66a17.57,17.57,0,0,1,4.05.65C1543.68,592.75,1543.11,593.85,1542.64,593.82Z" style="fill:#d06970;"/><path d="M1120.35,328.52c-.47,7.63-7.54,14.75-.62,23.15,2,2.42-2.69,4.94-5.62,4.14-5.35-1.48-14,2.1-14.28-8.19-.18-8,0-16.05,0-24.07l-2-.3c-.74,3.1-.65,6.83-2.42,9.14-2.19,2.9-.18,10-5.59,8.66-4.82-1.24-11.29-6.68-9.61-11.35,2.57-7.13,1-14,2.34-20.73,1.77-8.75,9.49-9.82,16.14-8.93C1112.6,301.94,1121.24,314.21,1120.35,328.52Z" style="fill:#d06970;"/><path d="M1241.54,378.31c-8.81.38-17.68-1.3-26.4,1.15.8-2.69,1.69-5.38-.83-7.72-.74-1.18-1.51-2.34-2.28-3.52-1-10.61-3.9-21.26,0-31.84,1.69-4.49,3.13-10.61,8.19-11,5.35-.41,10.91,1.09,15,6.77C1245.68,346.62,1248.13,361.72,1241.54,378.31Z" style="fill:#d06970;"/><path d="M853.19,382.48c-1.48,4.58-5.41,3.7-8.54,3.49-11.09-.74-20.08-7.3-29.8-11.62-6.74-3-10.88-8.63-7.42-16.14-2.69-15.37,4.64-17.38,15.55-11.8,5.74,2.93,11.09-2.22,16.79,1.74C847.13,353.3,856,373.76,853.19,382.48Z" style="fill:#d06970;"/><path d="M1198.76,163c.53,11.53-14,28.65-19.45,23.95-9.61-8.19-19.72-17.68-24.51-28.86-2.28-5.26,7.27-15.58,11.5-23.59.15-.3.92-.27,1.39-.38,2.42,11.92,19.78,6.65,20.19,13.22C1188.5,156.65,1200.65,155.32,1198.76,163Z" style="fill:#d06970;"/><path d="M995.9,447.85c2,7.3,4.82,19-7.45,16.59-11.41-2.25-24.92-1.36-34.5-12-6.36-7-4.41-14.07-1.83-20.22s8.81-6,16-5.59c9.43.53,16,5.17,23.3,9.11C995.67,438,1000.34,441,995.9,447.85Z" style="fill:#d06970;"/><path d="M640.84,528.09c-8.84,7.51-19.66,7.89-30.48,9.28-9.17,1.74-12.54-6.45-15.64-11.71-3.28-5.59.86-10.2,6.36-15.34,12.51-11.68,24.66-6.56,36.87-2.54C648.21,511.15,649,521.12,640.84,528.09Z" style="fill:#d06970;"/><path d="M759.17,489.12c-12.74.83-22.62-4.61-30.87-10.53-6.39-4.55-5-15.32-3.67-22.59,1.27-6.95,9.82-4.61,15.35-4.2,13.63,1,29.51,12.51,30.39,24.19C770.79,481.2,771,493.62,759.17,489.12Z" style="fill:#d06970;"/><path d="M1450.81,594.14c.47,18.72-9.55,28.41-26.67,26.85-.95-.09-2.75,0-2.78-.12-.59-8-8.93-13.93-9-19.9-.09-11.38,19.45-25.52,31.34-24.45C1457.43,577.73,1448.09,589,1450.81,594.14Z" style="fill:#d06970;"/><path d="M1000.61,296.71c-.53,4.08-2.31,9.55-8.4,10.82-8.16,1.69-35-15.7-36.75-24.16C953,271.58,957.2,266,969,265.63,981.54,265.22,1002.17,284.79,1000.61,296.71Z" style="fill:#d06970;"/><path d="M1456.34,329.62c-1.92,3.84-6.83,6.8-11,8.72-4.64,2.1-9.64-1.6-11.21-4.82-5.23-10.76-11.74-21.23-12.42-32.43.33-6.65-.59-14.13,4.58-15.55,4.43-1.24,10.76,2.16,15.52,4.82C1448.95,294.4,1459.74,322.67,1456.34,329.62Z" style="fill:#d06970;"/><path d="M552.44,854.68c-7.3,8.84-16.23,15-26.11,16.44-12.42-.33-21.23-3-22.15-15.73a10.15,10.15,0,0,1,.92-5.5c5.32-9.37,36.81-14.66,45-7.72C554.33,845.72,556.52,849.74,552.44,854.68Z" style="fill:#d06970;"/><path d="M564.33,658.1c.65,15.58-10.82,34-21.35,34.18-2.39.83-4.58,1.21-6.77-.77-9.49-8.66-3.1-41,9.11-45.71C555,642,563.88,647.78,564.33,658.1Z" style="fill:#d06970;"/><path d="M1549.89,415.39c-2.57,16.73-9.93,25.34-21.58,25-5-.15-6.42-4.67-7.33-8.07-1.63-6.06-2-12.45-3.22-21.2-.12-4.32,4-9.22,7.36-14.61,4.76-7.63,7.75-4.05,13.63-.38C1546.48,400.93,1551.33,406,1549.89,415.39Z" style="fill:#d06970;"/><path d="M1527.68,744.93c1.66,1.33-5.2,3.78-8.1,5.74a15.93,15.93,0,0,1-2.34.59,7.45,7.45,0,0,1-1.09.15,8.48,8.48,0,0,1-2.31-.06,5.07,5.07,0,0,1-1.36-.3,3.46,3.46,0,0,1-.77-.3,9.92,9.92,0,0,1-1.33-.8c-.21-.15-.41-.33-.62-.5s-.35-.35-.53-.53a12.16,12.16,0,0,1-2.1-3.31,12.42,12.42,0,0,1-.65-1.63q-.31-.8-.53-1.6c-.35-1.15-.65-2.31-.92-3.4-4.76-19.07,14.64-36.87,33.26-31.28,1.39,9.49-11.53,12.77-9.7,23.24C1529.28,734.85,1519.76,738.66,1527.68,744.93Z" style="fill:#d06970;"/><path d="M1529.84,860.77c-9.08,8-3.67,15.73-2.22,23.8v0a6.4,6.4,0,0,0-2.28.5l-.71.35c-5.38,3.07-8.46,12.77-17.86,5.53-13.25-10.23-13.39-26.28,1.8-33.29,4.88-2.25,9.46-6.86,15.67-6.3C1531,851.78,1534,857.08,1529.84,860.77Z" style="fill:#d06970;"/><path d="M1208.87,481.85c-3.16-10.05-12.21-10.94-20.4-13.16a21.1,21.1,0,0,0-4-15c-5.41-7.72.83-13.78,7.24-12.86,10.38,1.54,20.31,6.62,24.3,18.15C1219.25,468.37,1217.77,476.26,1208.87,481.85Z" style="fill:#d06970;"/><path d="M1540.9,985.69c-2.78-7.1-.33-12.6,5.29-17.09C1557.66,978.39,1548.7,981.87,1540.9,985.69Z" style="fill:#4ba7bb;"/><path d="M689.07,558.31l-.27,0s0,0,0-.06S689,558.31,689.07,558.31Z" style="fill:#4ba7bb;"/><path d="M1545.39,1004.2c-2.57-1.77-2.66-3.58-.18-5.5C1548,1000.44,1548.17,1002.28,1545.39,1004.2Z" style="fill:#4ba7bb;"/><path d="M1459.12,581.84c0,.35-.38.65-.62,1a2.71,2.71,0,0,1-.38-1.09c0-.33.38-.65.59-1C1458.85,581.13,1459.15,581.52,1459.12,581.84Z" style="fill:#d06970;"/><path d="M425.51,992.46c0,.06,0,.12-.06.18l-.15-.21A.51.51,0,0,0,425.51,992.46Z" style="fill:#163847;"/><path d="M429,992s-.92.8-.92.83h0a8.23,8.23,0,0,1-2.54-.33C426.28,990.12,427.38,989.68,429,992Z" style="fill:#163847;"/><path d="M620,651.59a5.78,5.78,0,0,1-1.86,1l.65-1.18Z" style="fill:#d75d63;"/><path d="M452.09,785.58v0l-.24.24c-.15.18-.35.38-.44.47l.56-.86.09.09Z" style="fill:#d06970;"/><path d="M1094.09,1154.52c3.5-9.14,6.56-15.1,15.15-13.72,7.67,1.24-.65,8.19,4.2,10.23,10.3-3.94,33.1,2.36,41,10.24,10.87,10.86,15.36,23.06,18.76,38.42,2.49,11.23,6.81,22.41,6.8,34.43,0,7.21,1.06,14.6-5.95,20.12-4.76,3.75-3.82,12.3-3.71,15.46.7,20.32-17.51,24.36-27.22,35.36-4.66,5.28-12.46-4.4-18.28,3.67-2.48,3.44-13.24-4.18-15,8.19-.36,2.54-12.65-2-14.19-9.76-7.81-1.59-1.59,18.53-15.5,7.87-4.55-3.48-14.88-.94-22.08.84-20.66,5.12-40.29-15.11-62.38-.71-6.11,4-20.33-1.18-30.84.35-6.4.93-13.08-4.45-19.47,1.68-2.25,2.16-3.33,1-8.07-11.23-5,4.59-6.65,13.16-16.07,11.67-7.13-1.13-11.55-5.68-16.87-9.25-1.55-1-2.76-3.66-4.17-3.7-25.35-.66-35.39-15.13-40.57-38.64-3.37-15.32-12.6-30-7.56-45.91,6.48-20.52,5.43-44.07,24.53-60,10.25-8.53,22.88-10.48,33.91-10.72,7.73-.17,5.2-2.55,8.23-5.73,8.07-8.49,13.28.38,16.63,7.41,7.34,1.47,1.13-18.61,15-8,4.55,3.48,14.89.94,22.08-.87,20.67-5.21,40.28,15.19,62.37.74,6.16-4,20.33,1.24,30.85-.35,6.4-1,13.07,4.41,19.48-1.66C1087.46,1138.82,1088.52,1139.95,1094.09,1154.52Zm-159,47.18c-12.3-4.53-21.16,8-30.07,16.44-2,1.94,5.21,14.82-1.28,22.48,10.43,6.24,17.53,17.64,33,15.57,17.19-2.3,34.59-3.47,51.89-5.36,36.11-4,72.18,3.58,108.33,5.43,14.22.73,19.83-10.93,29.92-15.86a2.75,2.75,0,0,0-.08-4.86c-7.85-4.09-10.26-7.81-.39-12.55,2.57-1.24,2.46-4-.28-5.8-10.64-6.88-18.66-17.28-34.59-15.13-16.21,2.18-32.64,3.81-48.92,5.32C1008,1210.56,973.36,1204.53,935.11,1201.69Zm-47.45,89.8a59.64,59.64,0,0,0-6.09-.4c-.48,0-.93,1-1.4,1.57a54.36,54.36,0,0,0,5.51.9C886.12,1293.59,886.63,1292.6,887.66,1291.49Zm255.4,1.2c2.79,1.72,5.23,1.51,7.65-.66C1147.9,1290.07,1145.48,1290.45,1143.06,1292.69Zm-.89-126.37c3.36.33,5.85,2.35,9.48-1.16C1148.19,1165.07,1145.69,1163.16,1142.17,1166.31Zm-255.63-2.07-6.59,1.37C882.23,1168.67,884.75,1167.25,886.54,1164.24Z" style="fill:#df5e64;"/><path d="M694.48,833.22c-.06.12-.15.24-.21.35a2.45,2.45,0,0,0,.24-.35Z" style="fill:#f3f5f6;"/><path d="M947.12,893.32c2.84-3.28,10.88,1.51,10.44-5.11-.95-13.3,1.15-31.13-6.42-38.73-12.83-12.89-19.93-30-37.52-40.74-15-9.14-30.75-9.46-45.38-15.79-10.23-4.46-17.47-15.29-30.19-14.31-4.79.35-12.27,2.22-14,0-12.12-15.94-31.4-9.67-46.69-15.23-12.15-4.43-29.54-2.31-41.84,3.16-20.19,9-32.52,27.79-41.81,47.87-1.74,5-6.77,10.08-3.84,14.87.21.3.41.59.65.89s.5.56.83.89a15.27,15.27,0,0,0,3.1,2.16h0a2.45,2.45,0,0,1-.24.35L694,834a7.47,7.47,0,0,1-.65.77l-.35.41c-.24.27-.5.53-.74.8-1.45,1.6-2.84,3.19-1.86,4.17l.21.18a3.14,3.14,0,0,0,.95.41c8.63,2.45,8,6,5.26,12.51a9,9,0,0,0,4,11.53c14.78,8.72,18.69,28.47,36.43,34.77,6.56,2.31,11.5,9.22,19.75,5.32a5.81,5.81,0,0,1,7.75,2.13c6.86,10.08,18.77,12.86,28.47,17.36,26.82,12.39,56.35,16.47,85.21,21.88,19.84,3.73,31.67-.92,48-10.35,6.12-3.55,12.24-7.27,18.21-11.06,8.19-5.14,9.55-15.4,14-23.21C960,899.15,949.1,899.09,947.12,893.32Zm-108.06,4.52c-5.65-.86-2.13,6.53-8.54,6.68-11.71.3-23-1.18-30.07-9.58-7.69-9.11-19.48-17.15-17.36-30.75.36-15.91,20.13-33.82,37.49-34.33,3-.06,5.23.09,8-1.42,12.39-6.95,21.49-2,29.27,10.08,6.27,9.79,6.68,20.49,9.79,30.6C871.81,882.92,854.13,900.18,839.06,897.85Z" style="fill:#fdfcfc;"/><path d="M1316.14,814.38c-3.34-13.87-14-23.86-22.09-34-15.26-19.07-40.68-21-61.73-16.7-15,3.07-34.89-1.33-46.12,15.29-17.36-3.55-31.16,5.82-44.67,13.75-10.88,6.39-24.89.68-33.41,8.31-12,10.79-27.47,16.29-37.22,31.31-10.7,16.5-17.3,31.81-18.27,51.83-.56,11.26,8.52,5.53,10.29,10.05-11.86,6.8-10.47,6.33-6.21,19,5.47,16.23,21.52,21.94,32.46,28.95,19.66,12.6,44.85-.15,67.68,2.13.77.09,1.69-.89,2.51-1.45,9.14-6.15,19.93-6.27,30.07-9,12.59-3.43,25.55-6.42,37.08-14.81,7.51-5.44,16.82-14,25-13.72,9.46.27,14.69-4.26,22-6.74,15.08-5.09,17.47-22.2,29.18-27.76,15.79-7.45,3.22-26.17,16.35-33.11l-3.78-4.49C1326,827.39,1318.29,820.77,1316.14,814.38ZM1208.37,885.1c-2.81.53-3.81,3.34-2.54,5.77,3.28,6.47-2.42,8-5.71,8.46-7.72,1.12-16.85-2.9-21.41,7.33-7.27-9-26.08,4.79-28.32-14.31-.21-1.69-.77-3.84-3.61-3.19-17.36,4-17.95-11.53-19.31-20.22-1.71-10.85-7.63-24.3,9-33,9.43-5,15.85-15.76,28.56-15,5.38-11.15,11.68-1.69,17.59-.8,8.63,2.57,16,7.21,23.8,11.56,15.23,8.54,5.68,23.71,13.57,33C1213.36,869.85,1220.49,882.83,1208.37,885.1Z" style="fill:#fdfcfc;"/><path d="M928,995.82l5.8,1.34c8.92,4.27,8-2.81,8.9-7.74a32.29,32.29,0,0,1,5.53-1.65c26-3,26.38-4,26.18-31.24-.2-28.07,1-56.08-3.43-84.08-1.22-7.69,9-7.6,14.55-8.64,7.14-1.34,30.41,14.73,32.87,21.35a3.6,3.6,0,0,1-.23,2.79c-11.89,18.79-3.59,38.34-1.93,57.53.64,7.44-2,14.61-3.34,21-2.64,12.83,5.73,24.05,1.36,36.77-4.46,13-11.63,20.09-25.3,22.21-14.86,2.3-29.76,1.85-44.58,3-12.69,1-21.4,11.38-29.32,20.35-5.65,6.39,2.75,12,6.67,12.51,15,1.76,28.71,10.32,45,6.18,13.49-3.42,27.87,5.34,41.85-.39,5.33,11.11,17.7-4.29,23.21,6.16,6.33-6.14,14.42-8.52,22.7-10.25,13.7-2.86,18.62-14.46,23.53-25,2.73-5.87,5.27-9.1,10-4.7,7,6.54,10.8-10.16,16-1.69,2.93,4.72,1.8,12,4.79,16.63,4,6.26,8.27,11,5.75,19.64-1.69,5.76-1.28,10.95-9.45,8.75-1.19-.32-3.81.29-3.84.63-1.7,20.22-18,17-30.87,19.52-6.06,1.17-15.93,1.06-20-2.24,4.73,10.76-.62,14.53-7.8,13.92-11.53-1-25,11.11-34.55-4.64a3.35,3.35,0,0,0-5.1-1c-17.62,15-37.69,4.52-56.46,4.8-19.95.3-38.17-8.72-55.68-17.86-11.15-5.82-19.06-25.82-15.82-37.71a10.12,10.12,0,0,0,0-4.31c-1.73-9.61-2.31-18.16,8.67-23.74,12.63-6.42,15.54-23.45,29.68-28.71C917.77,1014.37,923.16,996.86,928,995.82Z" style="fill:#d75d63;"/><path d="M1210.05,681.87c-4.26,19.81-9,39.71-20.93,56.26-4.82,6.68-13.3,11-23.92,9.9-6.74-.71-12,7.45-17.8,11.35-5,3.37-9.22,8.93-15.52,9.52-14.84,1.42-22.65,13.87-33.56,21.08-18.66,12.36-38.85,21.29-58.48,31.58-9.37,4.94-15.85-3.73-18.75-8.13-6.36-9.67-7.78-22.29-4.26-33.71,3.13-10.11,6.21-21.08,20.81-22.47,6.65-.62,14.07-5.29,14.13-14.4.06-8.16,7.16-2.07,9.61-5.14,5.41-6.15,11-11.65,19.87-5.53,2.25-9.7,25.6-25.9,36-24.33,6.21.95,10.08,1,7.36-6.95-.8-2.39-.71-6.33,1.89-6,11.44,1.48,18.57-7.48,28-10.38,5.79-1.77,10.91-2.75,15.26-8.1,4.7-5.8,30.66-5.06,37.76-.5C1209.9,677.46,1210.67,679,1210.05,681.87Z" style="fill:#52b5c9;"/><path d="M1334,988.15c4.26,13.41-1.17,20.36-7.45,25.61-20.83,17.42-40.09,36.75-62.54,52.23-2.61,1.8-6.07,3.92-7.16.1-3.93-13.76-23.54-18-21-36,.55-3.8-3.46-10-7.11-12.27-6.45-4.1-6.31,5.26-9.87,6.77-12.13,5.13-20.93,13.9-29.35,23.53-4.7,5.38-8.76,1.77-11.74-2.49-6-8.64-3.88-28,5.15-33.56,17.66-10.8,28.9-28.4,45.14-40.44,5.63-4.17,11.35-9.13,18.2,2.64,7.4,12.72,19.85,21.94,14.66,39.63-1.43,4.86,5,7.3,9.22,3.29,13.48-12.88,31.69-19.8,43.3-35.14,3.8-5,9.54-6.74,16.85-4.55C1339.84,980.38,1333.54,987.29,1334,988.15Z" style="fill:#d75d63;"/><path d="M665.09,1017.61c9-.57,17-1,25-3.92,14.45-5.34,26.28,3.12,38.53,8.9,3,1.4,4.55,8.11,9.21,3.37,3.66-3.71,3.24-7.33.7-12.87-5.73-12.5,5.53-23.92,5.3-36.52,0-.56,3.47-1.92,5.13-1.67,16.64,2.55,34.56,1.54,46.1,17.88,4.16,5.89,14.29,7.71,12,18,7.75.53,12.16,5.13,16.38,11.37,3.28,4.86,10.31,10.39,5.94,14.72-4.85,4.81-13,10.9-20.84,7.31-6-2.76-14.34-4.07-14.65-15.27-.29-10.51-13.56-5.84-20-10.87-3.09-2.43-6.07,5.18-5.94,9,.18,5.3-5.58,7-5.56,11.58,0,7.61,2.9,18.95-5.79,20.4-11.94,2-25.55,4.89-37.13-3.36-12.51-8.92-24.87-17.4-40.73-20.31C670.85,1033.87,673.89,1020.83,665.09,1017.61Z" style="fill:#d75d63;"/><path d="M788.44,673c-11.29,11.15-24.39,12.42-31.64,3C766.91,670.39,777.71,672.11,788.44,673Z" style="fill:#d75d63;"/><path d="M907.44,1606.53c-7.43-3-9.93-9-9.93-16.5C913.14,1588.11,908.46,1598.42,907.44,1606.53Z" style="fill:#24404e;"/><path d="M928,995.82c-4.88,1-10.27,18.55-14.54-.44C918.41,993.49,923.38,989.45,928,995.82Z" style="fill:#24404e;"/><path d="M942.74,989.42c-.92,4.93,0,12-8.9,7.74C933.76,991.07,930,980.75,942.74,989.42Z" style="fill:#24404e;"/><path d="M801.62,675.66c-9,5.74-4.94-3.16-6.47-5.8,1.36-1.09,3.43-3.46,4-3.13C802.63,668.71,800.5,672.7,801.62,675.66Z" style="fill:#d75d63;"/><path d="M723.63,681.16c-2.39,5-5.32,3.4-8.34.65C717.83,678.56,720.61,678.32,723.63,681.16Z" style="fill:#d75d63;"/><path d="M897.92,1585.14c-2.67-1.77-7.54-2.91-2-7C898.5,1579.94,898.37,1582.49,897.92,1585.14Z" style="fill:#24404e;"/><path d="M428.09,992.78a5.49,5.49,0,0,1-.41.41c-.89.83-1.71,1-2.28-.56l-.09-.21a.51.51,0,0,0,.21,0,8.23,8.23,0,0,0,2.54.33Z" style="fill:#52b5c9;"/><path d="M1230,1376.35l-2.12.38.32-1.92c.52.63,1,1.26,1.56,1.88Z" style="fill:#fefefe;"/><path d="M797.8,1376.69l1.56-1.88.33,1.92-2.13-.37Z" style="fill:#fefefe;"/><path d="M2359.38,1344.18c0,.15-.06.33-.09.47a1.38,1.38,0,0,1-.15-.3,0,0,0,0,1,0,0Z" style="fill:#f2ba04;"/><path d="M2359,1346.45c.09-.59.21-1.18.3-1.8.35.62.74,1.27,1.12,1.89Z" style="fill:#f2ba04;"/><path d="M2398.35,1120.42l-6.71.71c-16.56-7.1-25.55-21.2-33.5-36.28-2.51-4.76,1-8.28,2.07-12.33-.95-1.69-3-3.58-2.72-5.06,2.31-13.42-5.74-12.51-15.58-14.43-13.69-2.66-25.4-9.64-35.89-21.47-13.9-15.61-18.33-33.53-23.71-51.95-5.5-.21-11.32.59-15.35-4.61l-17.74,2.07c-2.07,1.27-2.25,0-2.16-1.6a8.31,8.31,0,0,0-1.06-2.37,4.64,4.64,0,0,0-.47-.59L2245,972c-2-1.8-4.88-2.19-7.66-2.75-5,4.17-7.87.8-10.64-2.9-9.31-9.7-22.09-17.15-26-30.51-2-6.92-5.59-10.14-10.5-13.57-5.53-5-12.15-9.73-4.85-18.18-4.38-16.44-8.6-33.74.35-49.11,8.66-14.81,14.16-31,22.74-45.68,2.6-4.58,4.11-8.84-3.22-10.35-1.92,0-3.84-.06-5.77-.12-9.9-2.1-21.17-1.54-26-13.45-6.42-4.43-15.61,2-21.47-6-7-9.67-19.4-15.26-19-30.69.09-3.61.35-13.81-7.66-16.73-1.66-1.12-3.25-2.25-4.88-3.31a0,0,0,0,0,0,0l-30,2-30.07,1.89c-4.91.3-10,.09-12.24,5.82,12.65,10,1.27,24.81,7.15,36.19-6.39,1.6-11.83,6.27-19.07,5-13.75-2.42-19.48-9.4-17.5-24.36.83-6.06-7.24-5.11-6-10.29-2.37.3-4.88.15-7.1.92-23.77,8.25-44,23.18-65,36.34-15.23,9.58-31.58,18.36-43.23,32.94,16.44,4.38,25,19.34,38,28.44a8.5,8.5,0,0,1,3,9.2c-4.17,17.18-21.05,21.76-35.45,12.68a83.32,83.32,0,0,1-22.56-20.61c-7.07,2.6-8.4,10.17-10.08,15.32-8,24.66-27.85,45.18-25.9,73.24v.15l.12,0c8.75,2.16,17.56,4,26.17,6.56q2.57.75,5.14,1.6c.86.27,1.71.56,2.57.86,2.54.89,5.09,1.89,7.57,3,3.16,1.42,4.85,2.42,5.09,5.74.62,9.2-20.13,31.64-29.42,30.72-4-.41-7.84-3.67-11.41-6.09-3.93-2.66-6.18-7.81-11.89-7.75-8.28,31.19-3.64,62,3.13,92.66,6.24-.5,12.42-.09,18.75-1.48,13.1-2.9,17.35,3.31,13.1,16.5-3.43,10.53-9.49,17.65-20.52,20.08-.86,22.68,13.22,40.42,19.87,60.61,3.93,12,11.56,21.91,16.17,33.59.33.8.65,1.6,1,2.34,0,0,0,0,0,.06a18.15,18.15,0,0,0,.92,1.66.6.6,0,0,0,.15.27,7.08,7.08,0,0,0,.53.89c.3.47.59.92.92,1.36s.62.83.95,1.24c.5.65,1,1.27,1.57,1.89s1.27,1.42,2,2.1a1.13,1.13,0,0,0,.27.27,27.56,27.56,0,0,0,2.16,2c.33.3.62.56.95.83.83.71,1.66,1.42,2.51,2.1,2.37,1.89,4.82,3.7,7.27,5.5,2.9,2.13,5.74,4.23,8.4,6.47h0c.44-.06.89-.12,1.3-.21.59-.12,1.15-.24,1.72-.38.35-.09.68-.18,1-.3a17.05,17.05,0,0,0,2.16-.8c.53-.24,1-.5,1.51-.77s1.12-.68,1.63-1,.95-.74,1.39-1.12c.27-.24.5-.47.74-.71a15.84,15.84,0,0,0,1.33-1.48c.3-.38.62-.8.92-1.24s.65-1,.95-1.51.59-1.06.86-1.63c5.41-11.44,11.47-9.76,18.48-1.42,14.49,17.24,13.9,27.32-2.69,40,15.55,12.51,28,27.67,49.29,34.06,30.1,9,59.31,20.64,91,23.15,6-9.37,5.65-21.11,12.09-30.51,7.66-11.18,15.82-11.56,23.3-.5,6.27,9.2,14.66,17.56,2.78,28.53-.86.77.95,4.41,1.54,6.74,17.47,4.91,34.68.53,51.95-1.51-2-7.1-3.81-14.19-6-21.2-4-13,2.1-20.16,15.76-18.33,11.21,1.54,20.64,4.58,23.15,18,1,5.41,5.38,10.17,8.25,15.23,7.27-7.57,17.15-4.82,25.93-6.5,2.19-3.73,5.2-5.88,9.76-5,21.58-8.13,38.67-23.95,58.81-34.62,5-2.66,10.2-5.5,15.08-8.6v0c-.18-1.51-.33-3-.5-4.49-15.08-1-17.53-18.89-30.51-23.09-2.19-.71-2.81-4.94-1.83-8,4.26-13.84,29.09-21.11,40.48-11.38,7.21,6.15,13.48,13.36,20.19,20.08,5.5-3.16,6.56-9.4,9.79-14.13,15.61-23,21.55-50.74,36.57-74C2409,1122.67,2399.56,1125.06,2398.35,1120.42ZM2152.8,915.14c.27,6.15,3.67,12.45-.92,17.89-3.22,3.84-1.51,6,.77,8.81,3.19,3.9,3.28,9.73,1.36,12.6-8.66,12.89.38,28.27-7.45,42.19-3,5.32.65,19.07,3.13,28.41,1.51,5.59-1.12,7.42-3.78,9.55-16.2,13-34.56,11.59-50.85-3-24.75-22.09-49.26-44.47-74.86-65.49-11.59-9.52-19.34-22.94-33.62-30-6.59-3.25,0-9.9,3.46-13.07,11.06-10.29,29-8.34,41,1.57,9.19,7.6,17.71,16.11,26.93,23.65,15,12.21,31.58,22.62,45.06,37.37,2-12.48,4.38-25.93,3.7-36-1.66-24.63,2.66-48.67,2.25-73-.27-15.37-1.66-31,.3-46.42.89-6.86.92-16.35,10-17.8,9.4-1.51,16.62,4.46,22.32,11.74,17.71,22.71,17.09,46.66,6,72.05C2145,902.31,2152.5,908,2152.8,915.14Z" style="fill:#fdfcfc;"/><path d="M2258.68,1288.6c21.59-8.13,38.67-23.95,58.81-34.64,5-2.65,10.19-5.48,15.07-8.59,2.68,11.72-8.24,16.36-14.11,20.1-30.05,19.16-57.09,44.18-92,54.54-48.28,14.34-96.62,25-148.32,14.87-30-5.9-59.92-10.94-89.45-19.5-20.82-6-37.72-16.52-54.83-28.91-22.6-16.36-41.18-36.88-61.49-55.52-13.73-12.61-18.31-32-26.43-48.72-21-43.32-31.57-89.56-37.31-136.81a123.15,123.15,0,0,1,1.87-39.1c2.52-12.22.54-25.33,2.78-37.64,2.52-13.81,5.31-28.39,12-40.44,13.85-25.07,22.33-53,39.63-76,5-6.69,7.14-16.45,16.82-19.19q-.64,5.85-1.26,11.7c-7.05,2.6-8.4,10.18-10.07,15.32-8.06,24.67-27.91,45.24-25.89,73.37l.19-.14-4.32-.07-1.94,34.86c-8.28,31.2-3.64,62,3.14,92.65l11.31,35.12c-.86,22.68,13.24,40.4,19.86,60.6,3.93,12,11.58,21.9,16.17,33.6,5.17,13.15,19,20,29.62,28.95,8.58,11.27,15.33,24.63,31.35,27.4,15.54,12.51,28,27.66,49.28,34,30.1,9,59.3,20.65,91,23.16l39.69,4.25c17.48,4.92,34.68.55,52-1.51,1.85,2.42,4,1.18,6.42,1,11.94-.86,22.1-10.13,34.76-7.25,7.29-7.57,17.16-4.83,25.93-6.51C2252.14,1291.87,2262,1303.15,2258.68,1288.6Z" style="fill:#e76166;"/><path d="M1880.46,844.72q.62-5.85,1.26-11.7c10-1.91,8.79-13.49,15.71-18,16.45,4.39,25,19.34,38,28.45a8.51,8.51,0,0,1,3.06,9.2c-4.17,17.16-21.05,21.77-35.44,12.68A83.06,83.06,0,0,1,1880.46,844.72Z" style="fill:#24404e;"/><path d="M2332.06,1240.85c-15.1-1.05-17.55-18.91-30.53-23.1-2.17-.7-2.79-4.93-1.83-8,4.28-13.85,29.1-21.12,40.49-11.39,7.19,6.14,13.48,13.35,20.18,20.08-8.75,7.84-14.52,19.07-26.44,23.33A1.42,1.42,0,0,0,2332.06,1240.85Z" style="fill:#24404e;"/><path d="M2048.1,738.28c12.64,10,1.28,24.81,7.15,36.18-6.36,1.59-11.8,6.27-19.07,5-13.73-2.41-19.47-9.38-17.48-24.36.81-6.06-7.27-5.1-6-10.29C2024.63,743.32,2035.36,735.35,2048.1,738.28Z" style="fill:#eb878c;"/><path d="M2121,727.07c-.15.53-.33,1-.47,1.57a0,0,0,0,0,0,0C2120.6,728.11,2120.78,727.58,2121,727.07Z" style="fill:#d06970;"/><path d="M2125,688.52a8.37,8.37,0,0,1-.74,2.25A11.16,11.16,0,0,0,2125,688.52Z" style="fill:#d06970;"/><path d="M2140.23,654.25l-1.15,6.83v.06c-.12-.3-.21-.62-.33-.92a6.62,6.62,0,0,1-.53-3.7,2.79,2.79,0,0,1,.62-1.21A4.51,4.51,0,0,1,2140.23,654.25Z" style="fill:#d06970;"/><path d="M2134.47,663.21c-.74,1-1.48,2-2.28,3C2132,664.42,2131.66,662.62,2134.47,663.21Z" style="fill:#d06970;"/><path d="M2142.42,650.85l0,.86-.74.33,0,0a2.74,2.74,0,0,0,0-.38l-.06-.53Z" style="fill:#d06970;"/><path d="M2332.06,1240.85a1.42,1.42,0,0,1,1.87.89c-.45,1.2-.91,2.39-1.37,3.58Z" style="fill:#e76166;"/><path d="M2010.25,629l.46-1.3-.63,1.14Z" style="fill:#e76166;"/><path d="M2253.35,756.79c-12.54,14.69-27.05,23.8-44.76,29.57-2.69.89-4.43,1.36-6.33-.77-.53-5.65-4.67-5.71-8.84-5.65l-14.25-10c-.95-3.22-3.16-4.58-6.45-4.35-7.39-15.73-11.92-30.78-.38-47.48,7.16-10.35,11.32-22,24.13-27.91,22.38-10.38,52.69-3,64.48,17.09C2271.39,725,2266.87,740.91,2253.35,756.79Z" style="fill:#df5e64;"/><path d="M2315.44,876.94c-10.61.12-20.16-.83-15.67-15.7v0l-.27-.18a4,4,0,0,0-.77-.44,8.14,8.14,0,0,0-1.06-.44c-4.08-1.45-8.46.47-12.65-.12-7.48,10.79-18.33,3.19-27.47,5-15.08,4.23-24.51,16.29-30.51,28.53-3,6.09-14,4-10.91,14.16,6.95,22.88,21.11,39.71,42.87,48.16,10.2,4,23.68,2.25,30.25-8.63,4.61-7.63,10.5-11.44,17.65-15.4C2326.17,921.18,2330.79,890.19,2315.44,876.94Zm-56.77,9.67c-1.51,1-2.66-.21-2.6-1.66a5.36,5.36,0,0,1,1.57-3.43c.38-.33,2,.74,3.49,1.33C2260.09,884.48,2259.65,886,2258.68,886.61Z" style="fill:#df5e64;"/><path d="M2399.26,1008.13c-4.58,4.41-10.29,7.89-13.93,12.92-12.62,17.5-25.63,18.54-43.4,11.86-15.23-5.71-30.51-28.5-29.27-42.07.44-5,4.17-7.6,6.86-11,8.22-10.38,40.45-28.15,50-27.23,14.31.27,26.2,6.5,37.49,14.4C2417.27,974.19,2414.55,993.55,2399.26,1008.13Z" style="fill:#d75d63;"/><path d="M2473.65,1092.81c-14.72,13.36-31.87,23.42-52.78,23.3-17.8-.09-24.63-15.7-35-26.23-1-1-1.8-2-2.72-3.07l-.06-.06a.1.1,0,0,0,.06,0c-5.56-16.94-.09-27.53,17.44-33.94,13.39-4.88,25.49-13.9,40.71-13,18.63,1.06,25.13,16.5,33.71,29.12C2480.42,1076.81,2480.3,1086.78,2473.65,1092.81Z" style="fill:#d75d63;"/><path d="M2383.18,1086.8c-.06,0-.15,0-.21.06s.09-.12.12-.18l0,.06Z" style="fill:#24404e;"/><path d="M2285,860c-7.48,10.79-18.33,3.19-27.47,5C2265.48,856.54,2274.14,852.2,2285,860Z" style="fill:#d75d63;"/><path d="M2267.19,974.42a3.51,3.51,0,0,0-.21.59h0A5,5,0,0,1,2267.19,974.42Z" style="fill:#52b5c9;"/><path d="M2315.44,876.94c-10.61.12-20.16-.83-15.67-15.7v0c.47.18.95.38,1.39.59s.86.44,1.27.68a21.48,21.48,0,0,1,2.31,1.63C2309,867.69,2311.57,873,2315.44,876.94Z" style="fill:#d75d63;"/><path d="M2237.33,969.25c-5,4.17-7.87.8-10.64-2.9C2230.23,967.3,2235.08,963.57,2237.33,969.25Z" style="fill:#52b5c9;"/><path d="M2249.21,977.08c-2.07,1.27-2.25,0-2.16-1.6h0C2248.39,975.19,2249.3,975.49,2249.21,977.08Z" style="fill:#52b5c9;"/><path d="M179.9,1134.47c-3.27-.63-4.82-3-5.82-5.84,4.61.53,9-5.66,13.45-1.07,2.4,2.45.81,5.35-2,7.16l-1.16.25-1.09-.45Z" style="fill:#d06970;"/><path d="M245.18,1298.42c-.28-4.95,2.61-6,6.93-7.38,8-2.57,16.09-5.72,20.82-13.37L296,1306.57c5.81,7.28,8.68,16.24,16.32,22.84,5.42,4.68-5.21,15-19.25,17.83,1.56-6.57,5.29-13.63-7-14.11-5.05-.2-8-5.12-8.22-10.67-.11-2.52,2.16-7.11-2.42-6.63C260.87,1317.38,256.32,1302.32,245.18,1298.42Z" style="fill:#24404e;"/><path d="M2024.93,288.93c7.88-3,12.33-.74,14.23,7.9,2.24,10.25-4,11.58-11.41,12.35Zm10.33,12.47-3.11-2c-.35.79-1.21,1.95-1,2.29a10.72,10.72,0,0,0,2.7,2Z" style="fill:#d06970;"/><path d="M179.9,1134.47l3.35,0c-.31.8-.46,2.18-.95,2.31C180.52,1137.31,180,1136,179.9,1134.47Z" style="fill:#e26066;"/><path d="M2317.64,546.11a4.34,4.34,0,0,1,1.23.51c.17.14.08.62.11.94l-1.3-1.48Z" style="fill:#183a48;"/><path d="M424.85,908.69l-.91.73c-.23-.32-.66-.66-.62-.94s.55-.5.85-.74Z" style="fill:#52b5c9;"/><path d="M467.7,783.63h0c-.77-.8-1.54-1.57-2.34-2.37,1.69-2.1,3.4-6.15,6.27-2.28C473.32,781.27,470.34,783.1,467.7,783.63Z" style="fill:#52b5c9;"/><path d="M1544.61,591.74c-.93,1-1.49,2.1-2,2.07a15.5,15.5,0,0,1-3.58-1.07c.5-.58,1-1.62,1.52-1.65A18.72,18.72,0,0,1,1544.61,591.74Z" style="fill:#52b5c9;"/><path d="M935.11,1201.69c38.25,2.84,72.91,8.87,107.53,5.65,16.28-1.51,32.71-3.13,48.92-5.32,15.93-2.15,23.95,8.25,34.59,15.13,2.74,1.77,2.85,4.57.28,5.8-9.88,4.74-7.46,8.47.39,12.55a2.75,2.75,0,0,1,.08,4.86c-10.09,4.94-15.7,16.59-29.92,15.86-36.14-1.84-72.22-9.38-108.33-5.43-17.3,1.89-34.69,3.06-51.89,5.36-15.48,2.07-22.57-9.33-33-15.57,6.49-7.66-.76-20.54,1.28-22.48C914,1209.67,922.82,1197.16,935.11,1201.69Z" style="fill:#163847;"/><path d="M887.66,1291.49c-1,1.11-1.54,2.1-2,2.07a54.36,54.36,0,0,1-5.51-.9c.46-.55.92-1.56,1.4-1.57A59.64,59.64,0,0,1,887.66,1291.49Z" style="fill:#163847;"/><path d="M1143.06,1292.69c2.42-2.24,4.84-2.62,7.65-.66C1148.29,1294.2,1145.84,1294.41,1143.06,1292.69Z" style="fill:#163847;"/><path d="M1142.17,1166.31c3.53-3.15,6-1.24,9.48-1.16C1148,1168.67,1145.52,1166.65,1142.17,1166.31Z" style="fill:#163847;"/><path d="M886.54,1164.24c-1.79,3-4.31,4.43-6.59,1.37Z" style="fill:#163847;"/><path d="M839.06,897.85c-5.65-.86-2.13,6.53-8.54,6.68-11.71.3-23-1.18-30.07-9.58-7.69-9.11-19.48-17.15-17.36-30.75.36-15.91,20.13-33.82,37.49-34.33,3-.06,5.23.09,8-1.42,12.39-6.95,21.49-2,29.27,10.08,6.27,9.79,6.68,20.49,9.79,30.6C871.81,882.92,854.13,900.18,839.06,897.85Z" style="fill:#24404e;"/><path d="M1220,864.61c-6.59,5.23.53,18.21-11.59,20.49-2.81.53-3.81,3.34-2.54,5.77,3.28,6.47-2.42,8-5.71,8.46-7.72,1.12-16.85-2.9-21.41,7.33-7.27-9-26.08,4.79-28.32-14.31-.21-1.69-.77-3.84-3.61-3.19-17.36,4-17.95-11.53-19.31-20.22-1.71-10.85-7.63-24.3,9-33,9.43-5,15.85-15.76,28.56-15,5.38-11.15,11.68-1.69,17.59-.8,8.63,2.57,16,7.21,23.8,11.56C1221.61,840.19,1212.06,855.36,1220,864.61Z" style="fill:#163847;"/><path d="M2103,985.65c2-12.48,4.37-25.93,3.7-35.94-1.66-24.62,2.67-48.67,2.25-73-.26-15.38-1.67-31,.3-46.42.88-6.87.91-16.35,10-17.81,9.4-1.51,16.64,4.46,22.32,11.74,17.73,22.7,17.11,46.67,6,72-2.63,6,4.9,11.68,5.21,18.88.26,6.15,3.67,12.44-.92,17.89-3.23,3.84-1.52,6,.76,8.8,3.19,3.9,3.29,9.72,1.35,12.6-8.66,12.88.38,28.27-7.45,42.19-3,5.32.64,19.08,3.15,28.42,1.5,5.59-1.14,7.41-3.8,9.55-16.21,13-34.56,11.59-50.86-3-24.74-22.08-49.23-44.48-74.85-65.5-11.61-9.52-19.34-23-33.6-30-6.6-3.26,0-9.91,3.44-13.08,11.05-10.29,29-8.32,41,1.57,9.2,7.59,17.72,16.12,26.94,23.66C2072.92,960.5,2089.54,970.92,2103,985.65Z" style="fill:#eb878c;"/><path d="M1838.42,968.06q1-17.43,1.94-34.86c1.43,1,2.83,3.21,4.32.07l-.19.14c14,3.5,28.21,6.11,41.56,12,3.16,1.41,4.84,2.43,5.07,5.73.64,9.19-20.12,31.64-29.41,30.71-4-.4-7.84-3.65-11.42-6.09C1846.38,973.15,1844.12,968,1838.42,968.06Z" style="fill:#eb878c;"/><path d="M2223,1300.08c-12.66-2.89-22.82,6.38-34.76,7.25-2.4.17-4.57,1.41-6.42-1-2-7.07-3.8-14.19-6-21.2-4-13,2.08-20.16,15.75-18.31,11.2,1.52,20.64,4.57,23.16,18C2215.76,1290.25,2220.13,1295,2223,1300.08Z" style="fill:#eb878c;"/><path d="M1949.87,1246.38c-16-2.77-22.77-16.13-31.35-27.4a18.65,18.65,0,0,0,15.54-11.16c5.41-11.43,11.48-9.77,18.48-1.43C1967,1223.64,1966.43,1233.73,1949.87,1246.38Z" style="fill:#24404e;"/><path d="M2129.85,1307.83l-39.69-4.25c6-9.37,5.62-21.1,12.08-30.51,7.67-11.19,15.82-11.56,23.32-.51,6.24,9.21,14.66,17.57,2.76,28.53C2127.47,1301.87,2129.27,1305.52,2129.85,1307.83Z" style="fill:#eb878c;"/><path d="M1852.87,1095.83l-11.31-35.12c6.23-.49,12.41-.07,18.73-1.47,13.11-2.89,17.37,3.31,13.09,16.5C1870,1086.28,1863.9,1093.41,1852.87,1095.83Z" style="fill:#eb878c;"/><path d="M2258.68,1288.6c3.31,14.55-6.53,3.27-9.77,5C2251.1,1289.82,2254.11,1287.69,2258.68,1288.6Z" style="fill:#eb878c;"/><path d="M1844.68,933.27c-1.49,3.13-2.89.95-4.32-.07Z" style="fill:#fdfcfc;"/><path d="M2261.12,882.86c-1,1.64-1.46,3.09-2.44,3.75-1.5,1-2.66-.2-2.62-1.64a5.29,5.29,0,0,1,1.59-3.44C2258,881.2,2259.65,882.26,2261.12,882.86Z" style="fill:#d75d63;"/><path d="M2035.26,301.4l-1.36,2.29a10.72,10.72,0,0,1-2.7-2c-.25-.35.61-1.5,1-2.29Z" style="fill:#52b5c9;"/></g></g></g></svg>