<svg xmlns="http://www.w3.org/2000/svg" viewBox="0 0 2165.85 2198.46"><title>noComment</title><g id="Layer_2" data-name="Layer 2"><g id="Layer_1-2" data-name="Layer 1"><g id="vpWdtt.tif"><path d="M1715.8,828.81c-.22,2.71-2.2,5.4-4.28,4.16-6.49-3.88-12.45,2.38-18.72.19-2.38-.83-4.35,1.15-6.12,2.72-1.28,1.14-3.11,2.51-4.39,1.24-6.06-6-9-1-12,3.23-1,1.39-1.91,3.48-3.55,2.68-7.53-3.72-14.14,1-21.15,1.89-2.09.27-3-.85-3.76-2.41-.86-1.78-1.71-3.57-2.58-5.39-5.35.43-9,2.55-10.68,7.61-1.35,4.07-4.06,3.58-7.11,1.92-6.93-3.76-13.66-5.23-21.16-.55-5.41,3.37-12.06.3-18.16,1.51-4.86,1-9.77,1-13.53,4.86-1.09,1.11-2.52,3.32-4,1.93-5.11-4.77-8.11-1-11.4,2.27a7.16,7.16,0,0,1-1.51,1.28c-.55.3-1.64.69-1.79.5-5.2-6.8-11.61,2.89-16-.84-3.88-3.27-5.48-1.75-8,.76s-5.18,4-8.71,1.21a5.07,5.07,0,0,0-5.62-.68c-4,2-8.27,2.42-12.6,2.16-3.77-.22-5.9,2.79-8.89,4-2.26,1-3.3,5.46-6.41,3.22-3.91-2.81-11.72,1.73-11.88-7.77-5.71,3.93-10.27,6.66-16.39,1.69-2.68-2.18-8.24-.64-12.45-1.16-3.05-.38-6.63,1.38-9-2.55-1-1.65-3.64-1.3-5.57-.6-7,2.56-10,2.66-16.82.08a17.18,17.18,0,0,0-7.66-.8c-4.87.58-9.06,2.05-10.49-4.63-.37-1.75-2.5-1.45-3.32-.8-4.79,3.75-10.5-2.76-15.12,1.53-6-3.81-14.62-2.6-19.11-8.86-3.49-4.86-10.15-7.68-10.1-14.94,0-.63-.2-1.74-.53-1.83-9.06-2.63-6.78-9.5-5.87-15.75.37-2.52-1.49-3.44-2.77-4.87-4.47-5-4.26-10.31-1.68-16.25,2-4.65,5.31-8.74,5.58-14.28.14-2.81,3-4.87,5.34-6.76,4.31-3.42,10.62-3.4,14-8.36,1-1.42,2.55-.93,3.51-.1,2.46,2.13,3.61.91,5.57-1,4.22-4.22,8.91-8,15.71-6.17.82.22,2.57-.14,2.69-.56,2-7.1,10.6-8.2,13.16-15.63,1.9-5.52,7.65-10.13,12.56-14.06,3.08-2.46,4.73-5.24,6.47-8.45,2.22-4.08,2.73-9.07,7.93-11.72,2-1,1.4-6.27,2.78-9.22,2.34-5-.7-13.45,8.66-14.14.66-6.2,7.91-10.1,6.14-17.07-.91-3.56-.26-5.49,2.69-8.34s6.88-7.2,4.57-12.87a5.34,5.34,0,0,1,1.93-6.3c4.75-2.9,2.07-9.73,7.05-12.26.38-.19.55-1.25.45-1.84-1.6-9.25,1.69-17.66,5-25.87a12.06,12.06,0,0,0,.23-9.47c-1.92-5.14-2.85-10.11,2.79-13.81.77-.5,1.81-2,1.59-2.38-4.2-7.23,2.4-15-1.15-22.12-1.3-2.59-.81-4.4,0-7.17,1.95-6.66,4.43-13.3,2.4-20.84-1.51-5.63-3.46-12.37,3.85-16.65,3-1.77,2.2-5.05,1.87-8.11-.58-5.47-2.37-11.23,2.6-15.9,1.75-1.64.89-4,.15-5.59-2.32-5-6.72-9.62-1.49-15.31-2.67-3-.26-6.37-.61-9.57-.66-6-2.63-12.51,2.79-17.7a2.13,2.13,0,0,0,.38-1.84c-3.51-10.06-.52-20.75-3.05-30.89-.24-.95-1-2.48-.69-2.75,6-5,1.32-9.41-.47-14-.7-1.8.29-3.17,1.53-4.38,2.89-2.83,4.29-7.22,2.92-10.11-5.31-11.23-.3-21.38,2.11-31.83a19,19,0,0,0-.4-9.8c-2.32-7.42-1.17-15.27.6-21.73,2-7.13,4-15.51,10.62-20.85,1.05-.85,2.4-2,1.93-3.2-1.51-3.79,1.6-7.13,1.43-9.8-.73-11.12,6.11-19.34,9.3-28.87.48-1.44,1.56-2.69,1.92-4.39,1.69-8,4.94-15.43,11.34-20.47a18.63,18.63,0,0,0,6.9-10.38c2.27-9.7,8.42-17.66,11-27.4,1.84-7.07,7.68-13.27,11.54-20,9.49-16.57,21.51-31.51,34.41-45.49,3.35-3.63,5.73-9.79,12.15-10.3C1604.21,90.28,1619.53,86,1626,73c1-1.93,2.39-1.56,4-1.8,5.75-.83,8.32-6.12,12.46-9.08,3.5-2.5,9.51.43,13.57-4.09,1.92-2.14,4-4.28,6.12-6.38,1.89-1.92,3.18-5.43,7.21-2.93,1.77,1.1,2.95-1,3.7-2.36,1.43-2.64,4-3.6,6.5-4.14s4.27-.6,5-3.48c.63-2.52,2.37-4.1,5.2-2.5a3.52,3.52,0,0,0,3.74-.21,106.14,106.14,0,0,1,26.31-10.58,11.09,11.09,0,0,0,4.92-3.28c3-3.35,5.76-6.71,10.75-2.79.67.53,3,.07,3.66-.69,2.21-2.4,4-3.88,7.44-1.62,2.31,1.52,4.65-.71,6-2.37,5.43-6.63,14.66-2.92,20.61-7.89,4.82,3.44,9.23,2.4,13.55-1.08a3,3,0,0,1,2.73.26c5.14,3.71,10.16,4.48,15.17-.16,13,1.7,25.77-6.95,38.85-1,2.37,1.07,3.76-.42,5.44-1.22,4.28-2,9-2.17,13.48-3,.65-.12,1.62-.76,1.85-.54,9.7,9.2,21.49,3.17,31.84,3.09,11.28-.09,20.78,3.51,30.83,6.64,7.86,2.45,15.18,6.32,23.5,7.71,4.84.81,9.1,4.87,14.59,2.75,4.37,5.86,13.68,4.06,17.3,11.2.87,1.72,2.7,4.6,3.56,4.42,7.37-1.53,10.57,5.09,15.37,8,4.48,2.69,9.32,5.37,13.18,8.88a14.73,14.73,0,0,0,8.69,4.14c9.3.73,17.84,5.69,22,12,4.67,7.1,12.8,9.15,16.8,16,1.16,2,3.42,3,4.36,5.35a12.79,12.79,0,0,0,10.41,8.19c5.34.55,8.51,3.6,9.74,7.58,1.85,6,7.11,9,11,11.71,6.36,4.34,8.88,10.75,13.17,16.16.4.51,1.28,1.21,1.16,1.48-2.73,6.32,2.09,7.15,6.07,9.32,3,1.64,2.93,6.39,2.45,8.68-1.45,6.94,1.44,11.78,5.89,15.87,5.89,5.42,7.8,12.83,10.17,19.76,2.22,6.52,4.37,12.41,11.42,14.63,2.86.9,3.44,2.27,3.3,5a103,103,0,0,0,4.8,36.09c1.15,3.71-1.52,8.48,3.39,11.42,1,.61.14,2.38-.73,3.49a7,7,0,0,0,.26,9.14c4.51,5.28,2.94,10.23.75,15.65-2.89,7.17-.11,16,6.24,21v2c-3.32,2-3.86,4,0,6v6l-7.59,2.83c1.33,3.41,2.31,6.57,3.77,9.48,1.54,3.07,2.25,5.67-1.62,7.34-3.53,1.53-3.09,4.05-1.45,6.48,4.49,6.64,0,13.86,1.57,20.66-7.49,3.82-1.71,15.79-11.26,18.39-.43.12-1.05,1.31-.91,1.51,3.6,5-3,10.12.2,15,2.1,3.18-.78,5-1.89,7.07-3.21,5.91-2.59,13.69-9.53,17.92-2.53,1.54-2.17,5.43-.47,8.25,2.9,4.83,0,8.59-3.73,9.17s-4.35,3.79-7.21,4.69c-4.69,1.48-5.85,4.27-3.24,9.1,2.33,4.32,2.09,9.14-2.57,12.41-3.85,2.7-2.4,7.32-4.19,10.85-2.69,5.32-5.85,10.66-6.17,16.84-.16,3.16-3,4.59-4.5,6-3.91,3.69-8,6.47-5,12.64a2.41,2.41,0,0,1-.54,1.75c-8.36-.51-4.21,10.1-10.67,11.89-2.73.75-2.34,5.17-2.64,8.1-.45,4.52-1.93,7.32-7.39,7-5.76-.3-8.79,2.75-9.77,8.88-.81,5.11-3.14,10.06-5.31,14.85-1.23,2.7-2.59,6.67-7.13,2.83-1.45-1.23-3.21.39-2.81,2.4,1.38,6.9-1.43,10.76-8.18,12.17a3.2,3.2,0,0,0-2.5,3.81c.86,4.91-4.41,7.24-4.66,11.69-.07,1.26-1.43,2.66-2.83,2.15-5.54-2-7.15,3.5-10.6,5.41-4.3,2.38-5.13,6.44-4.89,11.15.12,2.35-1.73,4.83-4.26,4.76-4-.11-6.27,1.12-6.58,5.25-9.85,3.1-13.26,13.9-21.81,18.41-10.28,5.42-17,14.32-23.88,23.16-1.2,1.55-1.77,3.88-3.64,4.61-9.8,3.83-15.15,12.27-21.19,20a3.16,3.16,0,0,1-3.47,1.26c-6.65-1.6-8.74,3.35-10.74,7.87-2.13,4.82-3.72,9.6-10.64,6.14-2.26-1.13-4.05.58-4.1,2.83-.14,6.64-5.4,9.43-9.33,13.31-1.3,1.28-2.59,2.42-4.25,1.46-3-1.7-4.87-1.44-5.8,2.11-.16.63-.55,1.66-.91,1.7-7.34.79-10.83,8.6-17.56,9.86-4,.74-5.93,1.74-6.24,5.89-.23,3.15-1.81,4.15-5.48,3.36-7.09-1.53-12.08.34-14,7.39-2.32,8.57-8.76,7.74-14.28,8.21-2.67.23-3.77.08-4.93,2.64-2.76,6.09-6.59,10.69-14.3,11-2.77.1-6.53,1.07-7.69,5.19-1.06,3.77-7,2-7.91,6.31-9,1.15-14.57,9.4-22.13,11.64-6.15,1.82-11.13,10.61-19.19,5.17-3.71,2.56-8.22,4.49-10.91,7.87s-4.36,4.94-8.69,2.86c-1.45-.69-4.21,1.35-6.36,2.14-5.56.73-8.94-4.7-14.56-5.78-.22,3.62-.5,6.51-.52,9.41C1714.75,827,1715.44,827.92,1715.8,828.81Zm184.67-622.17c-3.42-.72-6.42-6.09-11-1.87-6.31,5.86-13.9,10.46-19.12,17.36-7.88,10.4-18.8,17.39-28.21,26-3.68,3.38-7.4,6.14-9.71,10.83-3.26,6.6-13.21,11.08-18,7.36-7.53-5.89-16.87-7.32-24.74-12.06a30.83,30.83,0,0,1-6.06-5c-4.68-4.73-8.58-10-16.23-11.58-6.66-1.42-12.9-7.06-15.64-13-4.32-9.42-12.78-14.25-19.26-21.15a12.19,12.19,0,0,0-12.14-2.92c-8.15,2.44-17.27,2-24.18,8.14-1.35,1.19-2.94,1.18-4.64,1.29-4.55.32-8.07,2.56-10.87,6.19-3.31,4.29-7.48,8-12.66,9.31-7.54,1.89-10.11,8.53-10.55,13.78-.57,6.92,1.82,13.88-5.33,18.85-.85.59-1.16,2.46-1.12,3.72.12,3.41,0,6.62-2.66,9.23-1,1-1.49,2.56-.37,3.59,3.27,3,3.32,7.56,6.06,11.1,4.25,5.51,10.58,9.43,12.49,17.25.75,3.07,2.6,8.87,5,9.84,4.72,1.95,6.57,6.43,10,8.52,9.74,5.88,17.54,13.65,25.27,21.67,3.33,3.45,11,4.51,6.64,12.18,0,.08.53.41.64.69,3.56,9.43.32,16.78-7.42,22.3-10.78,7.69-17.62,20-30.2,25.56a3.9,3.9,0,0,0-2,2.09c-2.48,8.13-10.26,11.56-15.42,17.26-7.07,7.82-16,13.82-23.75,20.86-11.59,10.48-23.91,20.07-35.56,30.39-13.43,11.89-25.86,25.17-21.77,45.82a4.64,4.64,0,0,1-.45,2.9c-2.35,4.29-.25,7.55,2,11a26.56,26.56,0,0,1,3.41,7.1c3.47,11.5,10.4,21,18.37,29.81a7.64,7.64,0,0,0,6,3,16.37,16.37,0,0,1,14.67,8.22c2.43,4.06,5.22,6.77,10.24,6.51a4.53,4.53,0,0,1,4.68,3c2.6,6.19,8.26,6.3,13.37,5.68,12.16-1.48,23.82-4.66,33.28-13.23,2.21-2,4.55-4.58,7.22-5.2,7.88-1.82,12.73-8,18.85-12.25,8.69-6,16.39-13.4,24.51-20.2,2.81-2.35,5.64-4.65,7.1-8.21s4.41-7.89,7.06-7.65c6.68.61,7.9-5.16,11.76-7.67,2.56-1.67,3.19-5,6.16-6.36,8.82-4,14.16-12.82,23-17,.79-.37,1.79-1.53,1.74-2.27-.37-5.87,4.71-8,8.27-14,1,9,4.78,7.3,8.58,4.62,4.06-2.86,8.59-5.05,12.12-8.69,1.38-1.42,3.65-3.36,5.09-1.55,3.81,4.82,9.86,6.85,13.65,11.06s6.89,8.75,11.08,12.55,2.32,12,9.84,13.39c.26,0,.3,1.85.25,2.82-.13,2.57-2.59,5.28-.47,7.6,1.84,2,4.92,1.78,7.56,1.9,1.84.08,2.95,1.11,4.25,2.19,4.13,3.39,8.87,5.61,14.27,5.66,2.8,0,4.48.62,4.67,3.65.08,1.37.55,2.83,1.88,3.27,7.07,2.35,12.72,8.79,21.23,7.19,2.38-.45,5.84-1.5,6.94,2,1.47,4.62,4.08,2.93,7,2.17s6.19-6.41,8.79.57c.36,1,2.54.18,3.46-.83,5.2-5.71,13.78-5.14,19.39-10.74,1.83-1.83,6.53-.88,7-5.65.1-1.11,2.06-2,3.32-1.39,6.88,3.53,7.79-3.05,10-6.31,1.59-2.37,1.84-5.2,5.22-6.58,8-3.26,10.24-11.46,12.25-18.4,1.19-4.11,1.69-9,2.79-13.43,1-4,1.72-7.41-1.76-10.91-2.56-2.59-4.24-6.71-2.56-10.19,4.71-9.76-5.69-16.5-4.59-25.48.18-1.5-2.08-2.7-3.66-3-5.88-1-7.52-5.62-9.7-10.24-3.33-7.06-6.89-13.83-14.67-17.74-4.29-2.16-10-5.09-10.1-10.86,0-3.09-.14-3.83-3-4.47-9.09-2-9.69-11.88-15.29-17.21-.86-.82,0-2.54.91-3.59a54.47,54.47,0,0,1,5.34-5.94c10.58-8.95,22.06-17,28.51-29.9.42-.83,1.42-1.37,2.15-2,15.44-13.94,32.42-26.23,46.45-41.65,8.42-9.25,18.46-16.9,25.06-28.05,7.82-13.24,9.74-26.2,3.55-40.35-2.54-5.82-3.38-12.24-3.65-18.39-.45-10.21-.24-12.4-10.24-14.6-7.69-1.69-11.79-7.17-16.81-11.46-2-1.69-8.28-4.22-4.62-10.08,1.08-1.72-1.12-3.59-2.79-4.76-3.1-2.18-6.64-3.6-10.35-2.8-7.23,1.55-13.4-.69-19.54-4.09-1.72-1-3.78-1.42-5.09-3-3.39-4-8.15-3.9-11.95-2.31-13.58,5.68-27.81,10.2-38.61,21.24a57.29,57.29,0,0,1-10.89,8.63c-6.52,4-13.33,8.39-10,18.1C1901.5,205.59,1901.05,205.93,1900.47,206.64Zm157,359.75-.69-1.58c-.15.25-.46.53-.42.75a8.85,8.85,0,0,0,.54,1.52Z" style="fill:#163948;"/><path d="M2165.85,313.4c-3.86-2-3.32-4,0-6Z" style="fill:#fff;"/><path d="M308,1717.58c.75-3.52-1.16-6.31-2.47-9.3s-3.38-5.85-2.7-9.31c.64-3.24.28-5.79-2.8-7.6-1.87-1.1-3-3.26-2.3-5.06,3-7.58-2.83-12.29-5.42-18,4.75-.42,10.31-2.61,14.07-.88,5.53,2.55,10.87,2.26,16.38,2.75,14.8,1.32,24.42-8.37,32.56-17.84,6.82-7.94,11.28-18.17,17-27.28,2.52-4,4.75-10.46,4.09-15.51-1.09-8.39,4-16.42.58-24.73-.38-.93.31-2.86,1.14-3.62,3.39-3.09,2.39-6.37,1.26-10a14.9,14.9,0,0,1-.31-6.9c.79-4.23-.88-9,2.81-12.62-2.21-9.9-1.89-20-2.54-30-.3-4.66-.39-9.28-.25-13.95.28-9.09,1.38-18.38-.1-27.22-1.55-9.27-4.26-18-2.45-27.76,1.16-6.26-.89-13.12-1.47-19.71-.49-5.6-1.19-11-4-16.21-1.84-3.45-3-7.5,2-10.32,3.13-1.78,2-4.66.26-6.88-5-6.36,4.41-14.28-2.3-20.43-.24-.22.1-1.27.39-1.82a6.28,6.28,0,0,1,1.31-1.49c1.36-1.31,2-2.89.49-4.28-2.9-2.67-2.05-5.94-2.23-9.25-.38-7.28,1.27-14.64.91-21.58-.7-13.65-1.5-27,2.6-40.22a5.14,5.14,0,0,0-.08-2c-.49-4.26,1.77-7.54,3.5-11.17,5.16-10.86,15.87-14.69,25.13-20.16,3.88-2.29,7.82-4.77,13.52-4.39,3.31.22,9.4-1.07,12.48-4.92,5.75-7.16,12.9-9.91,21.89-8.46a7.39,7.39,0,0,0,3.87-.85c12.19-5.47,24.28-11.14,36.53-16.46,4.31-1.87,7.11-4.6,8.35-9.12.81-2.95,2.8-5.07,5-7.27,7.11-7.19,16.53-12.25,20.73-22.2,1-2.4,5.48-2,5.27-5.38-.31-5,1.85-8.12,6.07-10.46,2.32-1.29,2.07-4,2.15-6.3.07-2-.3-4.65,1.48-5.56,4.72-2.42,4.74-7.18,5.75-11.1,2.29-8.94,6.39-17.44,6.72-26.87a9.74,9.74,0,0,1,1.6-5.69c3.31-4.44,2.32-9.19,1.92-14.28-.53-6.65-2.8-13.58.62-20.18,4.22.6,8.25,1.34,12.7.08,6.84-1.94,14.41-1.63,21.16-1.63s13.37-.46,20.14-.94c6.12-.44,12.29-1.52,18.7-1.18,6,.31,12.3,1.91,18.38.83,5.68-1,11-2.29,17.12-1.89,4.38.29,8.71,1.64,13.22,1.37,21.09-1.27,42.1-3.65,63.28-3.57,12.16,0,24.36-1.49,36.48-.88,7.93.4,15.75-.6,23.53-.89,10.9-.4,21.72-.43,32.58.18,3.7.21,6.3-.18,4.06-4.79-.81-1.66-1-3.33.9-4.07,1.38-.52,2.65.77,3.13,1.93,2.28,5.48,6.45,6.16,12,6.57,6.11.45,11.86-2.53,17.57-1.4,10.22,2,20.3-.15,30.44.16,7.43.23,14.93-.31,22.32-.14,6.57.16,12.88,1.08,18.76-2.53,1.38-.85,2.45-1.05,3.26.38,1.69,3,4.15,2.2,6.9,2.09,7.24-.29,14.35-1.84,21.74-1.14,3.43.32,7.13.91,10.71.36a250.7,250.7,0,0,1,41.09-3c3.72,0,8.15,1.11,10.7-3.3.33-.57.6-1.69,1.92-.41,4,3.91,7.84,1.46,11.5-.91,1.45-.94,3.07-1.9,4.64-1.21,8.82,3.82,17.44.37,26.14-.48,4-.39,8-1.12,11,2.7,2.68,2.5,5.29,5,9.47,4.51,2.85-.3,5.17,2,4.36,4.13-3.14,8.34,2.42,16.78-.88,25.06-1.2,3-1.39,6.45-1.79,9.72-.29,2.32-.43,5.07,2.43,5.86,5.09,1.41,4.63,4.45,3.49,8.48a12.28,12.28,0,0,0,.59,6.85c3.57,10.44,3.46,21.91,10.86,31.44,3.15,4.06,2.31,11.18,8.26,14.3.66.35.8,1.77,1.09,2.72,2.77,8.95,9.09,15.31,15.47,21.72s14.11,11.09,17.5,20.08c1.63,4.32,5.84,6.2,10.48,6.41,2,.09,3.83.06,5.64,1.35,7.58,5.4,16.42,8.45,24.48,13,1.77,1,3.49,1.83,5.64,1.44,9.28-1.68,16.52,1.89,23.11,8.27,3.55,3.44,10.12,6.73,13.22,4.95,5.78-3.33,7.06.46,10.16,2.85a60.72,60.72,0,0,0,10.28,6c13,6.41,21.9,15.68,23.15,31,.32,3.91,1.78,7.76,3,11.56a13.38,13.38,0,0,1,.49,6.86c-2.07,10.11-4,20.2,1.61,29.92.44.76.66,2.28.21,2.83-4.5,5.64-2.23,11.15-.08,16.79a8.78,8.78,0,0,1-.44,6.84c-2.57,5.23-6.34,10-1.78,16.22.8,1.1-1.1,4.28-1.95,6.42s-2,4.61.27,6.41c4.37,3.47,3.08,7.83,2,11.92-3.11,11.54-3.18,23.5-5.3,35.17-.36,2-.64,4.35.75,5.78,3.56,3.68,2,7.43.52,11.08a22.5,22.5,0,0,0-1.51,10.69c1.25,17.42-2,34.83-.27,52.27a2.93,2.93,0,0,1-.57,1.88c-3.23,4.24-2,8.94-1.08,13.39,1.66,7.79,2.84,15.53,1,23.45a3.85,3.85,0,0,0,.75,3.74c3.35,3.33,2.47,7.57,2,11.35-.92,7.19-1.26,13.94,1.89,21,2.21,4.93,2.91,8.24,5.74,9.77-5.47,2.82-6.89,6.71-2.83,8.5,5.53,2.44,6.19,7.36,8.48,11.54,2.56,4.67,4.86,9.5,11.08,10.12l-.15-.17c1.27,2.53-3.13,6.71-.39,6.94,5.73.48,5.61,6.6,9.1,7.71,5.86,1.86,10.27,10.32,18,4.56,1.39-1,2.44,0,3.4.9,2.55,2.31,6.31,2.62,8.34,1.12,6.85-5,15.53.32,22.25-4.5.26-.19,1.87,1.49,2.86,2.31-2.78,3.73-5.63,7.38-3.56,12.57.45,1.12.57,3.29-.07,3.79-7.38,5.68-3.32,15.54-8.24,22-2.91,3.83-1.05,8.34-2,12.44l-3.53,1.33-8.86,2.86,2.24,6.12-1.39,2.18c-.88.4-2.29.58-2.55,1.23-2.44,6.13-5.37,11.79-10.43,16.37a7.16,7.16,0,0,0-1.81,8.22l-1.31,1.92c-7.66,3.52-9.74,11.12-12.48,17.95-1.27,3.18-2.22,8.82.61,10.29,5.94,3.09,11.83,10.56,19.84,3.71l5.77.56a47.08,47.08,0,0,0,28.54,14.42.86.86,0,0,0,.84.85c-1.95,4.61,2.84,9,.37,13.93-.6,1.22,2.81,1.47,4.64.89,2.15,1.38,4.58,1,6.94,1.15-.28,1.73,0,3.45,1.55,4.31,7.38,4.17,14.48,8.65,19.51,15.72l.1.14c3.24,5.15,5.12,11,12.41,13,6,1.66,10.1,8.45,17.41,8l2.32,1c4.3,5.94,10.42,11.06,15.72,13.16l7,3.25c-.43,4.85,2.35,9.39,1.71,14.67l3.34-3.19c1.85,2,4.21,2.24,6.72,2,2.74,3.33,5.66,6.53,6.2,11.13.42,3.55,3.3,5.74,5.31,8.24,3.19,4,8.82,6.48,6,13.29-.38.92,1.15,3.14,2.33,4.11,5,4.06,4.32,11.82,10.23,15.17-1.83,9.37,7.35,13.35,9.91,20.47,1.37,3.8,3.1,7.73,1.47,12.44-1.12,3.23-.45,7.3.19,10.85s1.19,7.22-.45,10.71a5.93,5.93,0,0,0,.18,5.53c4.46,9.77,3.58,16.67-.55,26.36a34.64,34.64,0,0,0-2.93,17.05c.87,7.65,0,15.15-.49,22.7-.14,2,.09,4.28-1.45,5.68-5.36,4.86-6,11.64-7.67,18-1.17,4.52-2.61,8.86-5.33,12.76-1.5,2.15-3.47,4.69-3.47,7.05,0,9.73-7.53,15.29-11.65,22.72-4.44,8-12.41,12.3-18.56,18.38-7.8,7.71-17.8,12.2-25.29,20.23-3.72,4-8.86,8.25-16.14,7.06-2.65-.43-5.92,2.55-8.82,4.15-3.94,2.17-6.9,5.1-12.58,2.08-4.44-2.36-3.81,7.38-8.89,7-4.62-.32-9.11-.81-13,2.43a1,1,0,0,1-.94.08c-5.82-5.91-11.09-2.69-16.41.88a4,4,0,0,1-2.86.62c-11.95-3.24-24.34,1.38-35.94-1.37-7.83-1.85-14.39-.82-21.74.73-5.72,1.2-11.83.56-16.09-5.2-1.86-2.51-4.43-4.25-8.6-2.75-5.34,1.92-8.5-3.85-12.7-5.85-4.65-2.22-9.36-4.83-13.94-7.44-3.53-2-8.75-1.92-8.73-8,0-1.87-2.25-2.1-3.86-2.5-10.07-2.51-17.22-9.67-24.84-16-3.35-2.76-6.28-5.5-10.75-6.75-3.66-1-6.68-4.19-10.21-5.94-3.78-1.87-5-8-7.68-8-5.74,0-5-4.1-6.84-6.8-2.6-3.83-8.79-3.53-10.46-8.64,1.92-9.84-4.1-15.37-11.41-19.57-8.3-4.77-12.67-13.1-18.4-20a67.88,67.88,0,0,1-9.36-14.72c-6.07-13.25-19.33-22.19-22.37-37.32-.28-1.41-2.05-2.51-3.1-3.78q-7.85-9.54-15.67-19.09c1.09-3.57-.91-6.76-1.38-10.14-.23-1.62-2-.94-3.22-.71l-4.25-11.12c-1.09-5-2.77-2.6-4.43-.35l-7.4.76c-1.87-2.93-4.65-2.14-7.16-1.49-8.24,2.15-16,6.27-24.84,6.13-.93,0-1.88,1.66-2.83,2.55l-3,.46c-3.44-2.58-6.79-1.62-10.28,0-8.62,4.06-17.16,7.63-27.29,6.32-8.41-1.09-16.3,5-25.06,3.14-2.34,6.56-8.09,4.12-12.66,4.81-1.95.29-2.63,1.78-3.06,3.46l-7.59,2.1c-5.91-5.37-8.17-5.5-13.59-.77-3.84-2.58-7.75-1.19-11.48.06-10.07,3.39-20.85,3.74-30.86,7.46a16,16,0,0,1-8.87.36c-4.82-1.18-8.72-.45-13.21,1.79s-9.84,6.36-14.63-.48c-1-1.48-3.71-.21-5.65-.17-9.74.19-19.64,2.65-29.16-1.68-3.74-1.7-7.71-1.46-11.74-.7a102.71,102.71,0,0,1-31.58.61c-7-.84-13.2-5-20-5.08-12.71-.13-24.91-2.38-37.22-5.2-6.18-1.41-11.77-5.1-18.14-5-20.78.19-40.52-6.39-60.86-8.86-9.94-1.2-18.62-8.11-28.62-6.9-8.1,1-14.75-1.22-21.56-4.55a9,9,0,0,0-3.9-.63c-3.7,0-7.16,1-5.93,5.63,1,3.92-1,6-3.63,7.21a13.26,13.26,0,0,0-6.61,6.7c-4.29,9.06-12.7,14.84-18.25,23-2.75,4-7.12,6.41-7.83,12.37-.4,3.34-3.8,8.08-9.59,5.95-1.53-.56-2.48.25-2.93,1.74-.67,2.23-1.53,4.41-2,6.67-1,4.69-1.7,9.25-8.4,8.8a5.58,5.58,0,0,0-5.3,4c-3.94,13.41-14,21.88-23.71,30.94-3.37,3.15-9.6,4.1-10.22,8.57-.77,5.56-4.24,5.84-7.87,7.14-2.15.77-4.47,1.33-6,3.35-2.46,3.25-6.77,4.29-9.38,6.53-4.25,3.64-11.92,5.09-11.71,12.94-10.32,5.5-18.94,13.86-30.12,17.9-.61.22-1.72-.05-1.91.29-4.46,7.84-13.67,8.69-19.89,13.66-6,4.83-13.53,5.25-19.76,8.95a3.79,3.79,0,0,1-4.62-.31c-5.28-4.28-11.17-1.22-14.58,1.41a21.85,21.85,0,0,1-13.57,4.72,22.28,22.28,0,0,0-5.83,1.25c-4.27,1.36-8.54,4.34-12.25-1.2-1.07-1.6-3.07-.12-4.59-.25-10.1-.84-20.54-.14-29.63-6a7.94,7.94,0,0,0-5.66-1.15c-11,1.41-21-3-30.78-6.51-4.95-1.78-9.56-5.23-15.06-5.79-4.9-.5-5.77-5.89-10.24-7.27-10.2-3.16-16.07-13.13-25.68-17.48-.83-.38-2-1.45-2-2.09.74-7.46-7.85-10.44-8.24-17.41-.07-1.3-1.74-3-3.09-3.66-4.1-2.11-5.56-6.5-5.94-9.86-1-8.57-5.9-16-6.72-24.11-.63-6.27-3.8-12.45-2-18.92.59-2.08.1-3.85-.43-5.8-1.42-5.33-4.72-10.52-1.62-16.32a1.18,1.18,0,0,0,0-.95c-5.87-11.55-2.28-23.83-.94-35.27,1.23-10.5,1.63-22.27,10.68-31,3.3-3.19,5.15-9.41,5.61-13.9,1-9.5,8.48-15.44,10.6-24.05.76-3.09,3-5.81,4.6-8.7,6.23-.81,10.28-4.94,12.6-10.06,6.39-14.15,19.52-22.71,28.32-34.9,3.72-5.15,9.11-9,12.83-14.88,7.44-11.66,18.72-20,29.11-29.07,5.52-4.82,12.06-7.92,17.6-12.54,13.64-11.38,25.49-24.76,39.77-35.44,4.32-3.23,4.83-6.48.57-9.5-3.78-2.69-4.27-6.46-6.22-9.75-1.16-2-1.32-4.33-3.26-6-4.82-4.24-6.88-10.32-10.12-15.64C318.48,1731.8,314.89,1723.48,308,1717.58Zm815.13-472.35a8.61,8.61,0,0,1-1.14-.88,8.25,8.25,0,0,0-4.89-4.88l-1.86-2.42c-3.09-14.82-14.35-18.73-27.27-20.43l-8.25-4.23c-6.81-6.9-15.57-5.33-23.93-5.5-4.25-1.28-8.11-.34-11.72,2-16-3.65-30.55-.44-43.81,9.1-2.62,1.89-6,3.18-5,7.45-2.61,3.68-6.82,5.21-10.41,7.53-2.58,1.67-5.87,3.32-6.09,6.17-.44,5.7-3.77,8.8-7.89,11.69-2,1.39-2.87,3.6-4.11,5.56-8.3,13.12-6.25,28.18-7.77,42.51-1.23,11.57-.06,23.53-2.48,34.78-2,9.09-1.25,18.19-1.75,27-.72,12.85-.28,26.06.27,39.12.74,17.4.81,34.8,3.5,52.06-2.36,1.86-2.44,3.68.11,5.44l1.81,4.51c-.46,5.66,1.57,10.63,4.26,15.42l1.94,4.47c0,5.54,0,11.1,4.52,15.3l5.29,6.8c1,4.91,2.68,9.78,6.16,13.23,10.18,10.1,22.22,16.31,37.09,15.42l12.18,2.62c2.58,2.07,5.1,2.43,7.48-.31l7.17.13c3.5,2.66,7.11,2.1,10.75.37l4.53-1.47c1.2,1,2.41,1.25,3.64.05,3.3,1.7,5.78-.71,8.54-1.7,1.76,1.83,3.63,2.43,6.14,1.21a121.31,121.31,0,0,1,14.05-6.22c11-3.69,18.8-10.55,23.35-21.18l3.2-2.88c4.94.16,5.18-3.18,5.06-6.79,2.8-1.61,1.33-6.07,4.82-7.22,6.63-6.53,10.48-14.24,10.1-23.75l1.1-4.51c5.35-1.5,2.2-6.94,4.56-9.82,4.56-5.56,2.31-10.4-1.57-15.07l.43-5.11c5.19-4.52,4.78-11.25,6.74-17l-1-.2-1-8.75c1.12-6.27,2.39-12.52,3.29-18.82a15.55,15.55,0,0,0-.55-6.83c-2.71-8.22-5.22-16.24-1.15-24.92,1-2.1,1.39-6.51-3.87-5.69l-1.06-3.69c3.74-2.22,4.14-4.64.44-7.3-.26-3-3.92-5-2.26-8.48,2.73-1.64,6.43-3.81,4.39-7-2.19-3.48-1.51-6.81-2.12-10.22-.77-4.25-.28-9.06-4.32-12.18-.8-2.16-1.66-4.31-1.29-6.69,4-4,.27-6.34-1.89-9l-.3-5.07c2.07-3.43,1.24-5.86-2.52-7.28l-1.78-2.44c-.83-4-1.7-7.88-6-9.72l-4.67-7.94C1126.45,1248.94,1125.89,1246.86,1123.08,1245.23ZM855.92,1919.48l-.15-.15c-.07,4.23,5.38,5.61,5.42,9.14.11,10.12,9.49,11.73,15.12,16,3.16,2.38,6.72,4.37,9.67,7.4,3.38,3.47,6.1,8.83,12.71,6.29,2.55-1,4.23,1,6,2.63,8.3,7.7,20.28,6.82,29.52,12.45,1,.6,2.64.34,3.93.14,4.35-.68,8.76.82,12.88.31,7.66-1,14.91,1.74,22.42,1.38,5.34-.26,10.64-5,16-.22,5.13-2.08,10.45-1.2,15.75-1.17s10.43.55,15.21-3.2c2.82-2.22,7.05-1.8,10.6-.39a23.86,23.86,0,0,0,16.7.37c8.92-3.2,17.64-5.19,27.2-5,7.85.13,11.1-6,8.32-13.35a21.14,21.14,0,0,1-1.16-4.75c-.46-3.57,1.19-7.91-1.49-10.55-2.83-2.78-7.11-2.56-11.16-2-1.42.19-3.14-1-4.57-1.82-3.45-2-7-1.89-10.6-.71-1.85.61-3.69,2.35-5.56.92-4.86-3.7-6.95.83-10.25,4.11-.67-6.34-4.42-7.16-9.13-7.81-5.64-.78-10.34,2.3-15.64,2.47-15.9.5-31.79,1.12-47.69,1.57a28.87,28.87,0,0,1-7.91-.8,18.65,18.65,0,0,0-8.8.13c-8.38,1.74-16.26.63-23.4-4.74-2.85-2.15-6.17-4-10-4.13-7.59-.18-12-7.19-18.5-8.88-8.3-2.18-6.72-12.74-14.52-14.8-1.18-.31.13-2.95,1.08-4.32,10.78-15.59,26.59-24.91,45.92-28.25,12.46-2.16,24.9-4.12,37.52-4.67,2.65-.12,5-1.51,7.8-1a127.07,127.07,0,0,0,40.54.1c6.84-1,9-4.62,4.77-9.74-3.11-3.72-4.24-7.87-6.35-11.79-2-3.66-6.13-6.15-8.1-9.81s-4.62-4.44-7.92-5.08c-13.65-2.64-27.88-.5-41.32-5.13-1.35-.47-3.19.61-4.82.77-4.57.43-9.71,2.26-13.63.83-9.3-3.4-19-5.39-28.29-8.75a57.83,57.83,0,0,1-12.47-5.91c-4.11-2.7-8-7.83-12.53-7.39-9.49.93,0-8.51-5.81-9.12-1.23-.13-2.19-2.34-3.36-3.51-7.19-7.12-8.88-15.92-7.42-25.47.48-3.13,2.07-5.34,5.4-7.45,5.39-3.41,11.24-5.09,16.82-7.68,6.61-3.06,12.6-7.49,20.55-4.43,1.29.5,3.28-.3,4.75-.93,10.76-4.59,22.18.78,33.06-2.19,1.1-.3,2.51.77,3.81,1,15.54,2.5,29.43,10,44.14,15,5.6,1.89,11.86,1.79,16.89,5.52,4.16,3.09,9.38,3.32,14.21,4.16,7.52,1.31,11.49-2.78,8.78-9.75-2.19-5.65-3.41-11.42-4.87-17.18-.81-3.19-2.08-5.47-5.7-6a9.12,9.12,0,0,1-4.54-1.82c-13.5-11.71-32.41-15.51-43.92-30-2.64-3.34-7.06-3.38-9.93-6.41-10.24-10.8-20.86-21.24-31.16-32-5.63-5.88-6.88-13.85-3.72-20.07,4.25-8.37,12.3-14,20.3-13.56,9.09.52,18.16-1.13,27.32.53,8.89,1.61,17.95,2.6,25.53,7.59,18,11.84,37.6,20.84,55.75,32.51,15.51,10,31,20.12,46.78,29.62,5,3,10,6.27,16.29,7.07,5.45.69,10.38,8.09,10.67,13.83.15,3-.08,6.07.52,9,1.08,5.19,8.16,9,10.24,5.61,4.61-7.47,13-11.31,16.93-19.2,1.14-2.3,4-20.45,3.22-23.1s-1.18-5.16-.21-7.8a73.07,73.07,0,0,0,4.87-27.19c-.25-9.49,4.68-18.57,1.7-28.12a2.23,2.23,0,0,1,.64-2.59c9.58-9.4,21.63-12.66,34.39-12.11,5.54.24,11,4.52,14.12,9.31a184,184,0,0,1,12.85,24.32c3.29,7.27,8.57,13.82,10.67,21.2,2.73,9.62,6.77,18.76,9.28,28.4,1.09,4.18,2.74,8.29,3.23,12.53a173.24,173.24,0,0,0,8.56,37.83c2.23,6.32,3.57,12.78,5.06,19.2,1.05,4.53,1.8,9.13,3.64,13.42.9,2.11,3.85,3.5,4.52,1.55,1.7-5,7.23-6.74,8.23-12.64,1.47-8.68,1.26-17,.78-25.71-.57-10.27-3-20.25-3.43-30.58-.35-8.37,1.16-18.12-7.27-24.54-1.34-1-.66-3.13-.14-4.73.62-1.89,1.78-3.85,1-5.79-5.93-14-7.75-29.72-16.81-42.35-3.34-4.66-5.19-9.87-8-14.69-6.94-12.07-12.61-25.65-29-28-1.51-.21-1.94-1.63-2.72-2.64-1.24-1.6-2.58-3.37-4.66-3.51-6.17-.42-12.28-3.32-18.55-.49a11.54,11.54,0,0,1-6.78.88c-11.6-1.81-15.81-.31-24.75,8.52a3.08,3.08,0,0,1-2.44,1.07c-7.29,0-10.8,3.9-11.47,10.94-.24,2.47-2.42,3.9-3.92,5.65-1.28,1.51-3.42,2.72-3.36,4.79.23,8.18-5,14.94-5.71,23-.35,3.7,1.53,7.15.15,10.68-3.55,9.12-1.85,18.85-3.25,28.22-.47,3.15,1.53,7.36-1.82,9.2s-5.57-2.64-8.59-3.72c-1.46-.52-2.54-2.1-3.79-3.2-8.17-7.2-17.29-13.19-24.75-21.34-5.55-6.06-14.16-8.52-20.35-13.79-5.29-4.5-11.1-7.84-16.74-11.64-9.59-6.45-20.33-10.69-29.94-17.43-9.25-6.49-20-11.93-32.84-12.56-9-.45-18.44-1.17-27.55-3.26a66.42,66.42,0,0,0-25.28-1.15c-11.15,1.79-19.63,8.48-27.22,16.47-9.57,10.07-17.17,21-14.71,35.87,1.72,10.37,3.53,20.67,12.07,28.44a94.74,94.74,0,0,1,9.09,10.28c4.23,5.19,9.7,8.94,13.88,14a3.68,3.68,0,0,1,.26,4.6,2.94,2.94,0,0,1-3.55,1.1c-3.79-1.55-7.73-1.56-11.74-1.72-8.81-.35-17.86,2.93-26.44-1.62-.72-.38-1.94.09-2.91.26-10.81,2-20,8.64-31.18,10.17-4,.54-7.1,6.48-10.91,9.59-2.94,2.4-4.62,5.59-6.73,8.55a4.27,4.27,0,0,1-4.3,2c-2.11-.41-2.4-2.3-2.3-3.87a19.32,19.32,0,0,0-4.5-14c-6.52-7.33-13.94-13.88-20.12-21.57a4.06,4.06,0,0,0-3.5-1.55c-7.32.31-13.4-3.5-19.89-5.93-4.91-1.84-9.93-4.93-15.19-3-5.5,2.08-10.95,2.28-16.54,1.9-6.89-.47-13.67-1.8-20.35,1.81-3,1.61-3.92-1.24-4-3.82-.05-2.35,1.9-3.33,3.35-4.66a267.48,267.48,0,0,0,21.14-22.33c5.3-6.1,7.79-13,9.74-20.07,3.8-13.74,3-27-8.58-37.56a7.6,7.6,0,0,1-1.06-1.67c-7.21-11.54-18.34-17.5-30.76-21.68a12.27,12.27,0,0,0-6.85-.23c-9.06,2-18.41,2.34-27.54,2.93-10.35.67-20,5.16-30.43,4.49a5,5,0,0,0-2.7,1.14c-8.72,6-19.55,8.37-27.29,16-4.41,4.36-10.72,5.09-15.82,8.15-14.35,8.61-26.62,20.2-41.1,28.63a13.76,13.76,0,0,0-2.92,2.63c-8.62,9.24-18.57,16.92-28.82,24.18-6.47,4.58-7.82,3.89-7.88-3.85-.1-13.41-2.72-26.57-3.52-39.9-.45-7.43-4.82-13.85-6.19-20.87-1.65-8.41-9.36-13.4-10.48-21.72-6.56-2.59-11.65-7.69-17.91-10.68-6-2.85-12.22-4.85-19.05-2.09-1.65.67-3.92-.35-5.91-.37-8.52-.1-17.91-3.37-23.72,6.52-.85,1.45-2.34.82-3.59.46-3-.84-5.45.81-7.33,2.37-6.65,5.52-12.91,11.95-16.84,19.37-4.75,8.95-7.76,18.83-13.88,27.16a22.44,22.44,0,0,0-2,4.54,138.67,138.67,0,0,0-5.92,16.9c-1.61,5.68-6.69,12-4.71,16.75,3.22,7.66-3.29,10.4-4.56,15.52a15.18,15.18,0,0,0-.19,2c-1.87,17.1-4,34.18-5.52,51.32-1,11.35-.38,22.6,8.31,31.62,3.4,3.53,5.12,3.43,6.83-1.22a61.55,61.55,0,0,0,2.17-8.7c1.15-5.51,1.58-11.25,3.42-16.51a192.78,192.78,0,0,0,8.55-32.68c1.39-8.48,2.06-17.13,5.41-25.29,5.51-13.45,7.64-28,15.35-40.86,6.22-10.35,10.54-21.85,15.63-32.87.63-1.35,1.91-1.65,2.84-2.47,7.75-6.81,17.06-6,26.32-5.77,6.61.19,10.55,5.1,15.43,8.43,3.6,2.46,3,6.2,3.79,9.71,4,17.14,2.08,35.29,8.9,51.93a5.57,5.57,0,0,1,.18,3.9c-3.39,7.75.93,14.94,1.77,22.3.54,4.69,3,9.55,8,12,3.14,1.51,5,4.33,6.93,7,1.75,2.38,3.21,5.36,7,4.2a8.59,8.59,0,0,0,6.47-6.85c.59-2.91,1.87-5.7.74-8.79-1.19-3.24.61-5.23,2.53-7.85,4-5.45,10.28-5.29,15.4-7.86,13.59-6.85,25.07-17,38.29-24.44,11.44-6.44,21.86-14.47,33.33-21,8-4.55,16.82-7.93,24.14-13.71,15.18-12,32.5-18.28,51.72-17.3,8.48.44,17.06-1.91,25.77,2.77,11.23,6,15.61,18.26,8.15,28.93-6.12,8.74-14.79,15.09-21.73,23.09-7.21,8.3-17.56,13.13-25,21-5.2,5.51-10.77,9.88-17.38,12.7-6.88,2.93-12.46,7.54-18.5,11.6-1.66,1.11-3.14,3-4.92,3.32-7.38,1.37-9.44,6.55-9.78,12.94-.22,4.18-2.61,7.51-3.74,11.29-1.91,6.44,1.18,10.4,8,10.28a28.11,28.11,0,0,0,13.31-3.63c2.6-1.45,5.21-3.29,8-3.86,11.4-2.28,21.78-7.21,32.32-11.76,17.78-7.69,36.47-8.62,55.37-6.83,5.2.49,10.19,2.86,15.55.64a5.15,5.15,0,0,1,4.75.93c7.91,5.37,17.68,6.48,25.82,11.89,4.39,2.92,5.84,5.55,6.16,10,.94,13.06-5.21,23.07-14.35,31.31-9.34,8.41-19.13,16-31.94,19.31-13.13,3.39-25.78,8.65-39.79,5.85a8.24,8.24,0,0,0-4.84.89c-5,2.46-10.31,2.25-15.64,2.11-7.7-.2-15.12,2-22.71,2.76-2.23.23-5,.9-6.43,2.39-7.5,7.54-12.08,17.12-16.73,26.47-2.45,4.92-.08,7.55,5.88,8.23,14.19,1.62,28.36,2.63,42.52-.47a14.1,14.1,0,0,1,6.92.34c5.54,1.73,11.22,1.45,16.84,1.58,4.39.1,8.53,1.06,12.79,1.72,3.87.6,7.73,3.29,11.65,1.59,5.61-2.44,5.71,4.85,9.78,5,1.6.07,3.13,1.16,4.75,1.39,6.48.94,11.44,4.1,16.16,8.7,3.84,3.74,6,8.66,10.27,12.06,2.88,2.31,2.82,5.22-1.26,6.78a6.16,6.16,0,0,0-4.38,6,5.69,5.69,0,0,1-4,5.22c-9.17,3.32-15.49,12.64-26.38,12.48a6.91,6.91,0,0,0-4.45,2.11c-5.48,5.66-12.66,5.67-19.56,5.74-18.57.17-37.15,0-55.72-.25-7.58-.09-15.09.29-22.58-2.45-6.54-2.39-12.43.65-16.34,6.59-2.21-1.59-3.31-6-7.07-3.79-3.16,1.85-5.54.52-8.41-.3a12.39,12.39,0,0,0-8.81.47,20.28,20.28,0,0,1-11.2,2.3c-5.31-.46-6.72,2.26-7.24,8.15-.31,3.58,1.2,7.48-1.31,10.7-3.57,4.55-.8,7.15,2.56,9.89a9.93,9.93,0,0,0,7.38,2.36c8.07-.61,15.74.76,23.52,3.19,6.14,1.92,12.76,3.51,19.49.78,3.41-1.38,8-1.65,10.62.61,5.39,4.57,11.36,2.76,17.14,3,2.59.12,5.45-1.45,7.79-.81,4.82,1.31,8.65,0,13.24-1.36,3.36-1,8.08,3.21,12.79,2.59,1.64-.21,3.27-.56,4.92-.66,8.1-.49,16.27-1.77,24.27-1.08,5.1.44,9.23-.25,12.94-3.14,2.75-2.14,5.4-3.9,9-3.65,5.47.39,9.56-2.43,13.19-5.91,1.71-1.64,3.1-4.06,5.71-2.94,6.87,2.94,9.05-3,12.84-6.2,3.4-2.84,4.35-9.29,11.12-7.42,1.77.49,2.36-2,3.49-3.08,2-1.93,2.61-5.6,6.66-5,1.44.23,2-1.21,2.42-2.62,2.41-9.15,2.31-9.23,10.54-15.47a2.2,2.2,0,0,0,.75-2.61,8.19,8.19,0,0,1-.08-4.75c3.71-17.81,1.2-33.53-14.25-45.67-6.45-5.06-11.9-11.44-17.22-17.83s-5.37-8.67,2.07-10.54a17.73,17.73,0,0,0,6.76-3.62c10.91-8.28,20.27-17.79,26.16-30.41,1.61-3.45,4.23-3.23,6,.37,3.65,7.62,5.74,16,11,22.83,8.31,10.79,14.52,23.94,30.21,26.3a6.76,6.76,0,0,1,3.39,2c3.29,3.25,6.11,7,11,8.18a2,2,0,0,1-1.05,3.84c-1.81-.46-3.5-2-5.31.21-6.22,7.67-14.45,13.25-21.8,19.63-8.62,7.47-11.74,16.45-14.19,27-2,8.52,2.4,16,1.34,24.18C850.69,1919.83,854.15,1919,855.92,1919.48Zm-281.55-499.1c3,18.26,1.55,35,7.77,50.79,2.5,6.36,5.16,13,6.33,19.56,1.44,8,4.25,14.33,10.41,19.33,1,.81,2.36,1.14,2.16,2.9-.91,8.05,6.36,10.6,10.86,13.86,10.58,7.65,23.81,10.59,36.23,10.33,12.15-.26,23.95,2.71,36.48.79,17.81-2.74,33.61-7.47,46-21a60.52,60.52,0,0,1,6.34-6.34c10.55-8.49,14.85-20.83,20-32.54,5.83-13.17,7.88-27.12,8-41.52.06-5.49.77-11.78,3.57-16.2s2.69-8.49.55-11.78c-3.86-5.92-2.19-11.11.43-16.33,1.27-2.52,2.06-4.46,1.1-7.39a62,62,0,0,1-2.88-13.48,22,22,0,0,1,2.28-12.56c2.53-4.81-4.06-7.2-3.59-12.59.62-7.18-1.14-14.61-.66-22.12.53-8.32-2.65-16.28-4.11-24.39-1.86-10.32-1.94-20.71-9.26-29.38a18.83,18.83,0,0,1-3.81-10.17c-.14-1.56.54-3.35-1.09-4.62-8.6-6.69-13.9-17.3-25.12-21a15,15,0,0,1-6.6-4.11c-7.4-7.93-15-14.91-27.09-16.31-5.22-.61-9.62,1.32-14.14.83-11.43-1.23-22.13,4.68-33.51,2.67a4.53,4.53,0,0,0-4.42,1.91c-3.17,5-8.16,5-13.11,5.27a11.63,11.63,0,0,0-7.25,2.63c-8.09,6.59-17.6,11.63-22,22-1,2.37-3.15,4.24-4.72,6.38-4.94,6.73-8.63,14.29-9.26,22.48-.92,12-1.09,24-2.71,36-.55,4.06-1.26,8.87-.74,12.15,1.57,10-2.09,19.27-1.85,29.05.21,8.65-.06,17.63-.5,26.45C573.88,1395.4,574.37,1408.88,574.37,1420.38Zm341.41-200c5.72-2.63,13.21-4.17,17.76-8.68,4.8-4.76,10.49-7.95,15.48-12.21,14.1-12,28.48-23.73,42.74-35.57,6.56-5.45,13.55-10.49,19.46-16.57,3.46-3.57,6.43-7.54,10.8-10.1,5.21-3,8.1-7.58,9.3-13.49,1.72-8.45,3.55-16.89,5.75-25.22,1.47-5.54-1.26-10.23-5-11.94-7.6-3.48-15.63-6.92-24.41-1.2-10.49,6.83-23,10.38-31.65,20.26-1.25,1.43-3.45,2-5,3.17-6.52,4.82-14.34,7.21-20.8,12.52-9.5,7.81-21.13,12.48-30.3,21.4q-9.89,9.62-19.44,19.61c-4,4.16-5.33,9.29-3.16,14.78,3.36,8.51-3.18,17,.09,25.4-6.19,3.78-1.64,8.52-.83,12.64,1.38,7,7,9.33,13.2,5.79C911.53,1220,912.83,1218.53,915.79,1220.43ZM846.89,1420c-6.25-.6-12.61-1.87-18.25,2.16a25.84,25.84,0,0,1-8.05,3.68A58.33,58.33,0,0,0,794,1442.3c-9.34,10-12.2,22.58-14.12,35.33-.7,4.65-1.1,9.3-3.7,13.07s-2.75,8.28-2.86,12.37c-.08,3.28-.36,6.43-.73,9.69-1.15,10-.08,19.89,1.89,29.71.69,3.45,2.8,5.84,5.47,8,2.87,2.37,5.8,3.17,9.19,1.63,3.17-1.44,2.41-4.37,2.41-7,0-20,5.75-38.73,13-57,1.47-3.7,2.54-7.36,3.64-11.14a27.15,27.15,0,0,1,15.27-17.48c9.41-4.1,20-4.93,29.92-3.73,4.46.54,10.39.16,14.49,3.93,2.71,2.49,4.86,7.11,9.48,2.35.58-.6,1.92,0,2.24,1.1,2.16,7.68,9.7,11.32,13.24,18.32,5.75,11.35,8.62,23.29,11.63,35.43,2.62,10.53,8.07,19.61,18.52,24.61,5.34,2.56,6.75,2.41,9.09-3.26,4.45-10.78,7.15-22.06,5.38-33.76-1.24-8.2.78-17-4.07-24.64-.76-1.21-.35-3.27-.19-4.91.38-3.87-.69-6.84-5-7-3.77-.14-3.69-2.45-4.41-5.18-2.33-8.76-5.8-17-14.75-21.19-1.61-.75-3.09-1.42-3.2-3.32-.17-3-1.9-4-4.53-4.22a7.14,7.14,0,0,1-5.28-2.49c-4.84-6.24-12.29-7-19-9.13C867.14,1419.25,856.94,1420.52,846.89,1420Z" style="fill:#163948;"/><path d="M556.93,1087.67c-3.41,6.6-1.15,13.52-.62,20.18.41,5.09,1.4,9.83-1.92,14.28a9.74,9.74,0,0,0-1.6,5.69c-.33,9.42-4.43,17.93-6.72,26.87-1,3.92-1,8.69-5.75,11.1-1.77.91-1.41,3.57-1.48,5.56-.08,2.33.18,5-2.15,6.3-4.22,2.34-6.37,5.46-6.07,10.46.21,3.36-4.26,3-5.27,5.38-4.2,9.95-13.61,15-20.73,22.2-2.17,2.2-4.16,4.32-5,7.27-1.24,4.52-4,7.24-8.35,9.12-12.25,5.32-24.35,11-36.53,16.46a7.39,7.39,0,0,1-3.87.85c-9-1.46-16.14,1.29-21.89,8.46-3.08,3.84-9.17,5.14-12.48,4.92-5.7-.38-9.64,2.1-13.52,4.39-9.26,5.47-20,9.29-25.13,20.16-1.73,3.64-4,6.92-3.5,11.17a5.14,5.14,0,0,1,.08,2c-4.1,13.22-3.3,26.58-2.6,40.22.36,6.94-1.29,14.29-.91,21.58.17,3.31-.67,6.58,2.23,9.25,1.52,1.4.87,3-.49,4.28a6.28,6.28,0,0,0-1.31,1.49c-.29.55-.63,1.6-.39,1.82,6.71,6.15-2.69,14.07,2.3,20.43,1.74,2.22,2.88,5.1-.26,6.88-5,2.82-3.85,6.87-2,10.32,2.76,5.17,3.46,10.6,4,16.21.58,6.59,2.63,13.45,1.47,19.71-1.82,9.79.89,18.49,2.45,27.76,1.48,8.84.38,18.13.1,27.22-.14,4.67-.05,9.29.25,13.95.65,10,.33,20.14,2.54,30-3.7,3.57-2,8.39-2.81,12.62a14.9,14.9,0,0,0,.31,6.9c1.13,3.66,2.13,6.93-1.26,10-.83.76-1.52,2.7-1.14,3.62,3.42,8.31-1.68,16.34-.58,24.73.66,5.05-1.57,11.47-4.09,15.51-5.67,9.11-10.13,19.34-17,27.28-8.14,9.47-17.76,19.16-32.56,17.84-5.51-.49-10.85-.2-16.38-2.75-3.75-1.73-9.31.46-14.07.88-6.69-4.5-15.45-5.73-20.38-13a4.25,4.25,0,0,0-3.42-1.71c-9.72-1-12.59-8.26-14.7-16.09a15.76,15.76,0,0,0-1.9-4.47c-6.59-10.48-8.77-22-7.54-34.19.32-3.14-.93-4.91-2.7-7-3.69-4.3-5.51-9.07-2.73-14.66.42-.85,1.07-2.23.71-2.75-6.79-9.88,1.1-20.45-1.54-30.52-1.5-5.72,1.67-11,2.57-16.47,1.75-10.58-3.66-19.66-4.2-29.61.82-.54,2.44-1.32,2.36-1.58-2-6.52,1-13,.33-19.25-1-8.57-.63-17.1-1-25.63-1-20.87.44-41.71,1.53-62.56.71-13.57-.12-27.25,1.17-40.74,1.42-14.88.42-29.85,3.06-44.69,2.55-14.32,3.09-29,5.39-43.36,3.92-24.54,8.1-49,13.05-73.39,1.9-9.34,2.26-19.06,6-28,6.38-15.28,12.63-30.63,18.88-46,.88-2.15,2.08-4.45,2-6.64-.15-5.34,2.2-9.87,4.85-13.85,5.61-8.43,7.91-18.13,11.81-27.2a27.29,27.29,0,0,0,1.94-16.53c0-7.18,5.11-11.71,9.41-16.08,2.53-2.58,4.16-5,4.7-8.21,1-6.32,3.58-11.69,8.85-15.53,1.13-.82,2.32-1.78,2.08-3.14-1-5.42,3.25-9.42,3.89-14.14,1.78-13.12,9.8-23,17.4-32.49,6.54-8.2,10.71-17.36,15.85-26.17,5.71-9.8,11.78-19.47,19.61-27.83,1.14-1.22,2.88-2.22,3.35-3.65,3.45-10.65,10.76-18.84,16.67-28,4.45-6.9,9.93-12.73,14.84-19.13,2.61-3.4,6.94-5.37,8.38-9.69,1.37-4.1,7.26-1,7.94-4.65.84-4.59,4.4-6,7.06-8.8,8.32-8.72,18-15.93,26.17-24.78,2.22-2.41,3.41-5.9,7.7-5,.54.11,1.72-.37,1.72-.59.12-8.38,7.95-10.44,12.88-13.07,9.6-5.12,15.15-15.56,26.26-18.47,3.23-.85,5.85-4.12,8.67-6.37,1-.8,1.73-1.94,2.68-2.82,3.81-3.49,10.55,1.54,13.11-3.68s8.16-5.45,11.51-8.86c3.74-3.8,10.37-3.73,12.71-6.92,5.28-7.2,14.57-4.12,19.73-9.66,9.49-10.18,23.35-11.28,34.85-17.27,4.38-2.28,9.14-3.66,13.61-6,10-5.2,21.23-8.09,32.19-9.45,8.22-1,14.73-5.29,22.3-7.09,1.56-.37,3.75-2.35,4.34-1.9,7.43,5.76,13.41-3.23,20.36-1.83,1,.2,2.52-.84,3.46-1.68,7.28-6.54,16.15-6.87,25.16-6.54,4.64.17,9.22-1.29,13.93-.23a6.41,6.41,0,0,0,4.67-1.28c4.27-3.32,8.23-5.59,12.95-.55.77.82,3.34.63,4.75.07,9.71-3.91,19.91-3.21,29.93-2.92,12.32.36,24.62,1.57,36.89,2.63,11.12,1,21.82,3.82,32.87,4.64,7.88.58,15.49-1.63,23.34-1.64,7,0,13.81-.33,20.68,1.89,6.26,2,12.84,3.09,19.33,4.35,6.15,1.2,12.42,1.87,17.78,5.56.54.37,1.27.93,1.78.82,8.81-2,16.73,2.14,25.07,3.29,10.45,1.44,20.88,2.06,29.91,8.23a8.21,8.21,0,0,0,6.64,1.52c6.26-1.75,11.24,3.59,17.34,2.66,2.14-.33,3.21,2.16,4.2,3.84,2.15,3.64,5.63,7,9.23,6.88,11.14-.47,16.75,8.29,24.45,13.41,1.86,1.24,3.12,3.17,5.69,3.19,4.61,0,7.75,1.08,9.49,6.57,1.38,4.36,7.16,5.78,11.57,5.84,4.6.06,7.71,1.17,9.69,5.28a3.83,3.83,0,0,0,1.14,1.61c4,2.51,10.4-.14,12.29,7.66.89,3.68,7,7.27,10.72,9,5.72,2.69,10.54,6.34,15.86,9.37,4,2.3,6.34,5.62,9.23,8.7,2,2.15,3,5.48,6.06,6.41,7.53,2.26,10.39,8.24,12.64,14.93,1.1,3.26,3.22,6.32,6.88,6.23,5.66-.15,7.46,3.71,9.2,7.66,2.06,4.67,6.33,7.9,8.53,11.93,2.39,4.38,5.38,6.8,8.9,9.79,3.16,2.69,5.06,7.42,6.32,11.62,1.33,4.43,4,7.43,6.94,10.65S1242,874,1240.45,880c-.35,1.34,1.16,2.48,2.37,2.89,6,2.05,9.1,6.51,10.39,12.38.57,2.61,2.38,3.69,4.31,5.07,4.82,3.44,7,9.62,13,12.1,3.13,1.3,1.7,5.42,3,8.08s.89,6.77,2.8,8.35c7.06,5.85,12,13.24,17.6,20.3,4.17,5.28,10.75,8.56,10.52,16.7-.09,3.12,1.33,6,5.36,5.71,6.1-.45,6.72,4.07,6.08,7.93-1.09,6.6.49,11.45,6.21,15,1.12.68,2.93,1.77,2.88,2.57-.5,8.6,8.18,11.6,10.83,18.2.49,1.21,1.69,2.4,1.62,3.53-.47,7,3.43,11,9.1,13.9.09,2.92-1.19,5.77.28,8.8,5.67,11.66,8.35,24.51,14.17,36.15,1.93,3.85,3.15,8,6.19,11.29,4.65,5,3,12.15,5.51,17.8,5,11.12,9.87,22.14,14,33.68s8.43,22.69,10.78,34.77c2.78,14.3,6.06,28.48,8.35,42.9,1.29,8.08,1.73,16.61,6.58,23.78a2.2,2.2,0,0,1,.56,1.66c-1,13,2.69,25.43,4,38.15,1.31,12.88,3.66,25.68,4.45,38.58,1.6,26.11,2.47,52.26,3.56,78.39.12,2.95-.82,6-.35,8.86,2.63,16.23.41,32.54,1.26,48.78.35,6.75-2,13.83,2,20.24,3,11.12-.42,21.88-2.92,32.36-1.77,7.44-1.14,14.5.05,21.41,1,5.92,1.92,11.66,1.56,17.65-.25,4.21-1.55,8.66,2.1,12.24.22.22.49.72.4.87-5,7.46,1.7,17-2.64,23.24-4.55,6.57-4.77,12.67-4.87,19.75-.14,9.72-2.19,19.13-8.26,27.14-1.6,2.11-.21,4.88-1.36,6.64-3.48,5.31-5.39,12.38-13.33,13.31-1.29.15-3.27.27-3.68,1.05-3.73,7.2-12.24,7.36-17.51,12.2-1-.81-2.59-2.49-2.86-2.3-6.72,4.82-15.4-.53-22.25,4.5-2,1.49-5.79,1.19-8.34-1.12-1-.87-2-1.93-3.4-.9-7.77,5.76-12.18-2.7-18-4.56-3.49-1.11-3.37-7.23-9.1-7.71-2.74-.23,1.66-4.41.39-6.94.84.18,1.22-.08,1.1-.77,0,0-.51,0-.6.08a3.26,3.26,0,0,0-.36.86c-6.22-.61-8.52-5.45-11.08-10.12-2.29-4.17-2.95-9.09-8.48-11.54-4.06-1.8-2.64-5.68,2.83-8.5-2.82-1.53-3.53-4.84-5.74-9.77-3.14-7-2.8-13.77-1.89-21,.48-3.78,1.37-8-2-11.35a3.85,3.85,0,0,1-.75-3.74c1.79-7.91.61-15.65-1-23.45-.94-4.45-2.15-9.15,1.08-13.39a2.93,2.93,0,0,0,.57-1.88c-1.71-17.44,1.52-34.85.27-52.27a22.5,22.5,0,0,1,1.51-10.69c1.53-3.65,3-7.4-.52-11.08-1.39-1.43-1.11-3.8-.75-5.78,2.12-11.67,2.19-23.63,5.3-35.17,1.1-4.09,2.4-8.45-2-11.92-2.26-1.79-1.16-4.17-.27-6.41s2.75-5.33,1.95-6.42c-4.55-6.24-.79-11,1.78-16.22a8.78,8.78,0,0,0,.44-6.84c-2.15-5.64-4.42-11.15.08-16.79.44-.56.23-2.07-.21-2.83-5.59-9.72-3.69-19.81-1.61-29.92a13.38,13.38,0,0,0-.49-6.86c-1.19-3.8-2.65-7.65-3-11.56-1.25-15.28-10.16-24.55-23.15-31a60.72,60.72,0,0,1-10.28-6c-3.1-2.38-4.38-6.17-10.16-2.85-3.1,1.79-9.67-1.51-13.22-4.95-6.59-6.38-13.83-10-23.11-8.27-2.15.39-3.87-.44-5.64-1.44-8.05-4.53-16.9-7.58-24.48-13-1.81-1.29-3.65-1.26-5.64-1.35-4.64-.21-8.85-2.09-10.48-6.41-3.39-9-11.24-13.79-17.5-20.08s-12.7-12.77-15.47-21.72c-.29-1-.43-2.38-1.09-2.72-6-3.12-5.11-10.25-8.26-14.3-7.4-9.53-7.29-21-10.86-31.44a12.28,12.28,0,0,1-.59-6.85c1.14-4,1.61-7.07-3.49-8.48-2.86-.79-2.72-3.54-2.43-5.86.41-3.27.6-6.72,1.79-9.72,3.29-8.28-2.27-16.72.88-25.06.81-2.14-1.5-4.44-4.36-4.13-4.18.44-6.79-2-9.48-4.52,3.62-1.57,7.17-3.85,10.77.3,1.42,1.64,4.55,2.14,5.05.08,1.74-7.16,8.69-11.14,10.61-17.64s7.29-11.05,11.9-12.13c7.54-1.76,13.91-6.18,21.49-7.42a27.44,27.44,0,0,0,18.38-12.27c5.75-9.31,5.67-21.2,2.85-31.44-3.42-12.4-14.26-21.13-20.2-32.57-1.57-3-4.52-5.87-8.83-5.64-2.17.11-3.55-1.63-5.32-2.43-11.16-5-18.65-15.46-30.52-19.8-4.82-1.76-10-2.88-14.68-5.61-11.21-6.61-24-9.44-36.49-11.4-11.43-1.8-23.37.23-35.22,2.18-13.48,2.22-20.71,7.16-25.13,20.52-3.67,11.11-7.46,21.57-5.94,33.36.31,2.4,0,4.86-2.24,6.23-2.61,1.6-2.57,4.37-3.74,6.63-2.09,4-3.23,8.75-7.08,11.76-4,3.15-5.85,7.95-8.32,12.1-5,8.39-10,16.06-21.3,15.42-1-.06-2.3-.28-2.45,1-1.16,9.49-9.51,7.77-15.27,9.32-5,1.35-10.19,2.39-14.5,5-4.08,2.49-7.69,4.94-12.73,3.91a5.29,5.29,0,0,0-3.86.53c-4.27,3.36-8.32,6.07-12.44-.1-.48-.72-.82-.51-1.5.14-4.91,4.69-11.74,4-16.78,2.85-9.89-2.34-19.81,1.13-29.45-1.7a9.05,9.05,0,0,0-4,.21c-12.34,2.29-24.6,5.32-37,6.67a47.51,47.51,0,0,1-20.2-2.72c-3.49-1.23-6.66-2.29-10.29-2.28-2.3,0-5.07.81-6.75-.88-3.24-3.26-7.15-3.07-11.1-3.16-3.12-.07-5.64-1.94-8.47-2.73-5.81-1.62-10.12-6.47-16.28-7.21-4.89-.59-10.81-.47-13-5.45-2.79-6.22-10.27-1.54-12.91-6.8-1.32-2.63-4-3.21-6.4-4.37-3.46-1.67-6.08-4.18-5.25-8.62.65-.47,1.51-.93.37-1.71-.12-.08-.75.61-1.15.94a6.8,6.8,0,0,1-4.84-3.08,69,69,0,0,1-10.07-19.08c-3-9-9-16.28-7.17-27.45,1.58-9.46-4.79-18.88-8.46-28-2.69-6.7-8.41-9.75-15.61-10.48-12.72-1.28-25.26-5.29-38.24-2.07-9.35,2.32-19.45,1.9-27.85,7.68a11.57,11.57,0,0,1-3.4,2c-9.91,2.47-18.32,8.7-28.31,11.14-3.64.89-6.81,3.83-9.94,6.39-5.62,4.59-10.95,10.62-17.85,12.31-8.23,2-12.12,7.4-16,13.64-1,1.7-1.57,3.92-3,5.15-9.46,8.14-11.38,19.22-12.67,30.71-1.39,12.41,6.68,26.32,18.93,29.79,8.26,2.33,15.45,7.75,24.37,8,2.09.06,3.2,2.42,4.92,3.17,7.22,3.14,7.22,11.7,12.46,16.14,4.79,4.06,6.32,9.64,6.17,15.09C550.8,1080,553.46,1083.79,556.93,1087.67Zm644.69-1.59-.31-.35c-3.18-3.09-5.48-2.59-6.85,1.68l-2.66,3.64c-8.32-.34-8.32-.34-8.51,6.35-3.39,7.58-.48,14.76,1.41,22,2.4,5.18,5.89,9.53,6,16.08.08,6.34,11.65,8.58,16.66,3.77l3.68-.1c-.6,1.27-.82,2.67.92,2.92,1.5.21,2.07-1.16,2.34-2.5l4.27-1.52c0,1.12.63,2,1.69,1.91,5.24-.53,8.42-3.3,9-8.72,2.71-5.44,2.48-8-2.55-10.86-2.92-1.66-4.34-3.85-5.69-6.52-1-2-1.74-4.79-3.45-5.87-6.92-4.37-9.51-12.34-15.32-17.55,1.59,0,2.52-.8,2.33-2.33S1203,1086.14,1201.62,1086.08Zm82.1-92.73.06-.09c3.19-1.16,6.89-2.33,4.57-6.79s-10.85-5.76-16.39-3.09a6.74,6.74,0,0,0-4.31-1.64c-.44-2.82-.57-5.79-3.47-7.47a.53.53,0,0,0-.08-.89c-.73-6.6-3.73-12-9.27-15.59-3.05-2-5.74-2.32-7.95,2.07-5,10-7.74,20.42-6.24,31.49.84,6.15,3.29,11.91,8.79,15.83,5.21,3.71,11,3.83,16.94,3.3,5.6-.49,6.26-5.92,9.12-9.14l.19-.23C1278.21,998.35,1282.35,997.28,1283.73,993.35ZM547.33,849.63c.06-1.15.18-2.15.14-3.14-.34-8.78-2.59-10.36-10.18-6.44-8.18,4.23-17,7.17-23.55,14.54-4.51,5.07-10.48,9.17-16.48,12.49-9.64,5.34-14.4,14.48-20.08,23-1.22,1.83-1.68,4.5.38,5.23,3.83,1.35,7,5,11.87,3.35,10.06-3.34,19.36-8.14,28.76-13,9.22-4.75,14.6-13.24,21.93-19.77C544.73,861.81,549.41,856.9,547.33,849.63Zm162-76.8c3,0,4.71.35,6.27-.06,8.48-2.21,17.85-3.28,23.52-10.8,5.35-7.12,9.66-15.06,14.09-22.82,1.58-2.76,3.34-6.21,1.13-9.33-2-2.83-4.87-.48-7.36-.22a14.22,14.22,0,0,1-2,0c-9.95-.37-10.7,0-18.55,7.35a4,4,0,0,1-2.71.83c-4.15-.28-6.67,2.52-9.54,4.73-2.08,1.6-4,4-6.37,4.53-7.38,1.69-10.36,8.07-14.26,13.09s-1.31,9.77,5.28,11.19C702.74,772.14,706.61,773.11,709.35,772.83ZM845.73,979.88c0-1.16.09-2.17,0-3.16-1-10.21-8.24-13.76-16.1-7.41-5.12,4.14-12.2,2.53-17.21,6.92-.62.54-6.83,1-8.06-1.72-3.61-8-5.37-2.52-7.25.7-1,1.7-1.71,3.22-3.5,4.51-10.85,7.79-6.7,9.76.63,16,1.69,1.44,4.11,2.17,6.32,2.85,9.06,2.8,17.77,5.91,27.87,4.87,7.57-.78,13.46-1.89,17.48-8.81,1.85-3.19,2.29-3-.85-5.69a2.11,2.11,0,0,1-.8-2.54C845.06,984.25,846.17,982.16,845.73,979.88Zm297.09-110.15c-3.48,2.08-7.62.91-11.51,1.7-5.64,1.15-9.27,5.4-12.11,9.76s1,9.62,7.45,9.4c7.22-.25,12.54,1.64,17.32,7.34,3.72,4.44,9.5,6.91,13.62,11.28,2.07,2.19,4.77,1.5,7.2-.4,3.76-2.93,8.34-4.05,12.83-5.28,6-1.65,7.93-7.26,3.09-11a35.11,35.11,0,0,1-8-8.65C1165.62,872.85,1153.68,873.12,1142.83,869.74Zm-479.08,7.54a72,72,0,0,1,11.49-2.74c4.83-.57,8.66-2.95,10.48-8a29.37,29.37,0,0,1,4.12-7.85c5.59-7.27,8.42-14.28,2.51-23.15-2.12-3.19-2.39-8.89-7.13-7.57-3.79,1.05-8.11-1.05-11.63,2.72a83.08,83.08,0,0,0-9,11.56c-2.83,4.36-3.8,9.69-9.11,13.06-3.58,2.27-4.92,8.33-6.84,12.87-.88,2.09-1,5.39,1.68,6C654.18,875.07,657.56,877.65,663.75,877.27ZM908.31,760.74c2.66.56,4.66-.77,6.85-1.5,3.74-1.26,7.69-3.51,11.32-3.14,10.78,1.09,16-6.42,21.84-12.89,2.57-2.83,1.91-5.64-1.14-8.58-6.54-6.3-15.8-4.71-23-8.72a1.27,1.27,0,0,0-1,.15c-5.68,2.91-12.31,2.94-18,5.48C897.63,735,891.14,740,888,748.43c-1.28,3.5-.94,5.36,2.48,7.16C896.2,758.58,902.5,759.11,908.31,760.74Zm146.95,45.73c2-.89,4.43-1.94,6.82-3,2-.94,3.23-3.21,5.94-3.25,7.1-.1,11.64-5.74,17.51-8.52,3-1.44,3-3.87,1.17-6.62a22.65,22.65,0,0,0-25.58-8.79c-5.19,1.7-10.4-.07-15.58.93-1.83.35-3-1.92-3.78-4-.41-1.14,3.39-2.75-.4-3.19-2-.23-4.81-.59-4.85,1.9-.08,5.1-3.36,6.42-7.11,8.2-5.29,2.51-6,6.58-2.72,11.24C1033.49,801.14,1044.5,803,1055.25,806.47ZM401.06,1150c.88-17-3.44-32.77-6.93-48.59-.46-2.09-.24-5.14-3.57-5.12a6.88,6.88,0,0,0-5.9,3.25c-1.41,2.23-2.88,4.43-3,7.29-.31,9.14-3.58,17.53-7.92,25.3-3.66,6.55-3.38,12.43,1.78,17.16,6,5.54,10.49,12.34,16.18,18.1,1.6,1.62,3.33,3.72,6,2.57a6.19,6.19,0,0,0,3.55-5.64C401.12,1159.35,402.33,1154.35,401.06,1150Zm-9-170.72c5,6.9,5.63,17.12,13.15,23.7,3.31,2.89,7,1.36,8.52-4.09,2-7.11,4.28-13.95,8.69-20a6.79,6.79,0,0,0,1.07-2.76c1.73-9.69,4.13-19.16,8.54-28,.76-1.53,1.41-3.09-.11-4.54s-3-1.61-4.39-.2c-1.65,1.65-3.34,2.18-5.23.64-3.61-2.93-5.89-.08-8.39,1.83-5.58,4.27-8.53,11.52-14,15.11C392.9,965.61,394.33,972.16,392,979.29Zm231-180c-.76-2.76-1.26-5-2-7.23-3.42-10.12-3.94-10.26-13-3.94-.54.38-1.07,1.08-1.63,1.1-9.47.39-15.81,7.63-24,11-6.41,2.62-12.52,6.21-17.19,11.64-2,2.36-2,10.57.19,13,2.92,3.17,6.93,3.53,9.9.86,6.7-6,14.69-6.5,22.91-6.61s14.54-4,20.15-9.49C621.43,806.64,622,802.61,623,799.31Zm729.8,463a12.73,12.73,0,0,0-1.53-8.83c-5.83-11.47-10.68-23.51-20.48-32.47-.07-7.57-6.61-5.07-10.48-6.67-2.19-.91-3.82-.13-4.7,2.17-1.06,2.8-3,5.72-1.73,8.61,2.42,5.67,1.92,11.76,3.22,17.57,1.35,6,4.34,10.84,8.59,15.38,4.83,5.16,11.2,8.12,16.22,13,5.23,5.07,9.87,3.16,11-4A22.44,22.44,0,0,0,1352.81,1262.32ZM326.45,1343.08c-8.57.91-8.31,1-11.92,9.64-1.64,3.92-1.51,8.24-4.45,12-6.08,7.67-5.25,12.75,2.39,19.21,2.11,1.78,2.42,2.35,1.2,5.28-1.9,4.58.76,6.82,5.74,6,2.93-.49,5.56-1,8.56.84,4,2.45,8.86.84,10.19-3.44,1.52-4.93,2.84-10.3,1.61-15.44a129.64,129.64,0,0,0-6.73-21.68c-1.62-3.73-3.46-6.13,1.09-8.69a2.54,2.54,0,0,0,.63-3.57,3.31,3.31,0,0,0-3.57-1.11C329.9,1342.29,328.6,1342.61,326.45,1343.08ZM321.94,1254c-.85-11.23-6.14-22-10.64-32.84-1.53-3.7-5.37-5.68-9.85-5.51-2.28.09-3.82.9-4.46,3.1-2.2,7.6-4.75,15.14-6.41,22.86-1.35,6.28-.75,13.36,4.29,17.42,5.58,4.5,9.88,10.47,16.33,14,2.74,1.5,5.24,3.36,8.11,1.13,2.67-2.07,4.69-4.7,3.59-8.55C321.9,1262.13,320.65,1258.64,321.94,1254ZM978.44,875.53c.12-4.75-6.52-13.87-11.15-15.26-7.88-2.37-15.67-1.63-23.22,1.37-3.53,1.4-6.78,2.42-10.3-.07-5.59-3.95-7.66-3.25-8.52,3-.57,4.14.53,8.48-3.36,11.87-1.56,1.36-.78,3.72,1.21,5.07,5.45,3.71,10.71,7.49,16.87,10.35,5.56,2.58,4.92-4.84,9.66-3.48,4.28,1.22,5.93-6.11,9.93-7,4.4-1,6.59,5.37,11.34,5.1.65,0,1.29-.14,1.93-.22a3.83,3.83,0,0,1-1.21-.39c-4.13-3.17-.78-4,1.62-5.08S977.83,878.14,978.44,875.53Zm-160.9-31.88c2.5,3.26,4.17,6.51,7.16,8.71,1.6,1.18,3.39,3.22,5.23,2.24,5-2.64,9.72,0,14.48-.33,5.39-.33,11-1.07,14.12-7.36,2.47-5,6.44-9.25,10-13.63,2.43-3,4.79-6.09,2.28-9.79-2.19-3.22-5.66-4.42-9.68-3.24-6.42,1.88-13.06,1.2-19.54.89-5-.24-9.82-1.91-8,6.15a1.86,1.86,0,0,1-1,1.54C824.87,831.17,823.11,839.29,817.54,843.65Zm-331.69,265.6c3.33-6.33-5.25-6.1-5.1-10.65,0-.75-2.62-.33-3.33.7-2.8,4-6.71,7.71-6.86,12.93-.22,7.82-4.47,12.68-10.52,16.69-4.43,2.94-5.44,6.6-2.28,10.68,5.2,6.72,9.18,14.63,17.59,18.46,2.65,1.21,4.63,3.85,8,2.07,3.73-2,5.72-6.2,4.92-9.06-1.69-6,.41-11.76-.23-17.68C487.19,1125.22,488.27,1116.85,485.85,1109.24Zm-230,452.22c.67,4,2,8.18,2,12.39,0,12.73,14.08.65,16.3,9.53.37,1.5,2.5.89,4.2-.08,6.19-3.53,9.7-10.8,7.38-17.14a166.36,166.36,0,0,1-6.57-22.57c-1.16-5.43-3-10.95-8.32-14.15-4.84-2.92-9.32-1.79-9.84,3.45C260,1542.48,256.73,1551.61,255.82,1561.47Zm1103-227.56c-5.17,0-8.25,3.54-10.84,7.31-3,4.29-3.72,8.27.24,13.29,5.69,7.22,11.77,14.32,15,23.34,1.81,5,4.63,5.47,9.67,3.2,4.62-2.08,7-6.05,8.21-10.67,2.83-10.7-1.09-21.11-10.39-27.67-1.91-1.35-4.35-2.22-4.88-4.69C1365,1333.94,1362.14,1333.87,1358.86,1333.9ZM769.08,926.81c.62-.08,2.28.19,3.15-.51,6.21-5.05,16.73-5.65,17.35-16.57.08-1.42,1.27-2.22,2.31-3.05,3.23-2.57,4.47-5.54,2.16-9.48-3.77-6.44-8-9.29-13.19-8.27a28.84,28.84,0,0,0-11.65,5.19c-7.05,5.19-11.32,12.66-16.36,19.48-3.66,5-2,9.69,3.89,11.28C760.51,925.89,764.49,926.12,769.08,926.81Zm-459,639.44c-.39,9.44.13,10.58,8.66,14.23a18.66,18.66,0,0,1,7.48,6.29c1.42,1.84,2.87,3.66,4.37,5.43,2.12,2.5,3.92,2.35,6.66.22,6.46-5,7.41-8,4.86-16.21-1.57-5.06-5-9.47-5.12-15,0-1.34-.58-2.94-1.89-3.3-7.08-2-7.5-8.19-9.35-13.71-1.67-5-4-5.27-7.52-1A37.25,37.25,0,0,0,310.11,1566.25Zm1039.82-62.6c2.16-4.78,8-3.66,9.15-7.62,2.45-8.54,1.68-17.65-4.17-24.17-4-4.41-6-9-8-14.14-2.94-7.63-6-7.92-11.44-1.62a5.16,5.16,0,0,1-1.48,1.26c-7.09,3.58-7,10.55-7.93,17-.6,4.18,1.25,7.37,5.42,8.18,4.43.86,6.65,3.69,8.8,7.19C1342.86,1493.91,1345.88,1497.85,1349.93,1503.65Zm28.14,48.57c0-.59,0-1.25,0-1.9-.09-6.29-.24-6.26-5.72-4.51-9.33,3-13.77,10.69-16.13,18.87-2.78,9.64-.79,11.56,7.35,19.68,3.53,3.53,7.53,6.3,11.25,9.48,4.07,3.48,7.25,2.82,8.75-2,2.07-6.56,2.66-13-2.13-18.9-3.83-4.69-5.37-9.91-3.13-15.82A7.22,7.22,0,0,0,1378.08,1552.21Zm-76.65-411.36c5.84-1.6,12.88-3.27,19.71-5.59,1.91-.65,3.44-3,4.65-5,1.79-2.84.78-5.09-2.41-6.12-1.24-.4-2.64-.3-3.92-.63-6.64-1.72-6.8-2.09-4.06-8.47,2-4.78.8-7.43-4-8.58a17.53,17.53,0,0,0-21.4,12.25,45.36,45.36,0,0,0-1.71,5.66C1286.94,1132.15,1293.14,1140.55,1301.42,1140.86ZM297,1456.13a5.92,5.92,0,0,0-2.26.8c-3.24,2.71-7.09,5-6.36,10.33.83,6,3.83,10.1,8.85,11.31s10.24,2.32,15.3,3.71c2.14.59,4,.64,5.28-1.25,1.45-2.17,1.18-4.27-.78-6.23a112.34,112.34,0,0,1-13.58-15.68C302.12,1457.1,300.06,1456.09,297,1456.13Zm998.51,90.33c-.26-.57-.42-1.54-.79-1.62-1.14-.26-1.81.59-1.87,1.63a1.9,1.9,0,0,0,.86,1.54C1295,1548.48,1295.32,1547.43,1295.55,1546.47ZM518.68,929.34a1.85,1.85,0,0,0-2-1.46c-1.08,0-1.82.63-1.67,1.74a1.77,1.77,0,0,0,2,1.51A1.67,1.67,0,0,0,518.68,929.34Zm624.47.54c-.21-.54-.28-1.31-.66-1.54a1.6,1.6,0,0,0-1.54.35,1.17,1.17,0,0,0,.77,2C1142.12,930.73,1142.67,930.15,1143.16,929.87Z" style="fill:#e66165;"/><path d="M307.81,1048.41a27.29,27.29,0,0,1-1.94,16.53c-3.9,9.07-6.2,18.77-11.81,27.2-2.65,4-5,8.51-4.85,13.85.06,2.2-1.14,4.49-2,6.64-6.25,15.34-12.49,30.68-18.88,46-3.75,9-4.11,18.7-6,28-5,24.34-9.13,48.86-13.05,73.39-2.3,14.38-2.84,29-5.39,43.36-2.65,14.85-1.64,29.82-3.06,44.69-1.29,13.49-.45,27.18-1.17,40.74-1.1,20.85-2.51,41.69-1.53,62.56.4,8.53.06,17.06,1,25.63.71,6.23-2.31,12.73-.33,19.25.08.26-1.54,1-2.36,1.58-2.93-1-6.47-1.34-8.73.08-4.83,3-8.92,2.89-13.46-.17a4.44,4.44,0,0,0-4.75-.28c-7.36,4.46-14.26,2.09-20.48-2.08-3.81-2.55-9.66-.55-11.37-7.57-2.89,8.27-3.15,8.58-7.61,4.84-10.1-8.46-22.68-13.07-32.83-21.43-1.2-1-4.21-1.27-4.23-2-.25-7.2-10.34-8.07-9.87-15.69.09-1.44-1.23-3-1.9-4.47.74-4,1.4-8-4.87-7.39-2.29-7.19-8.58-13.13-8.23-20.93.33-7.36-3.86-15,1-22.15,1.09-1.61-.33-3.15-1.51-4.34-2.29-2.3-2-3.77,1.17-4.81a2.27,2.27,0,0,0,1-3.35c-6.83-7.65,1.72-12.49,3.44-18.42,1.64-5.66,5.26-10.77,6.77-16.45.88-3.31,1.66-5.45,5-6.34,3.72-1,5.75-4.24,9.19-6.3-1.85-1.54-3-3.22-4.37-3.54-10.53-2.37-18.38-9.72-27.53-14.63-7.22-3.87-14.69-7-21.32-12.58-6.05-5.13-13.46-9.84-18.95-15.22-6-5.9-12.42-12.27-17.23-19.81a64.48,64.48,0,0,1-6.57-14.5,173.19,173.19,0,0,0-11.74-26,20.26,20.26,0,0,1-2.5-7.51,13.65,13.65,0,0,0-4.71-9.57c-2.41-2-3.39-4.79-4.25-7.7-1.39-4.69-2.64-9.28-6.12-13.27-2.12-2.43-2.69-6.24-2.34-10.24.46-5.25.44-10.71-3.34-15.69C1.07,1165.47.81,1160.73,3,1157c1.63-2.73,1.14-5.85,2.31-8.62,1.3-3.08,1.13-5.54-2.19-7.57-3.84-2.36-4.1-5.48-1.18-9.18,2.37-3,5.59-6.12,2.63-10.59,5.51-6.69.46-16.52,6.84-23,.67-.68,1.53-1.62,1.52-2.44-.07-9.69,6.61-16.52,10.11-24.71,2.93-6.85,8.32-10.63,13.88-14.6,1.55-1.11,4.75-1.35,4.29-3.56-2-9.46,6.4-11,11.13-15.33,2.58-2.36,6.64-3.38,6.78-7.92,0-.83,1-2.29,1.58-2.33,5.79-.31,8.78-5.26,13.24-7.54,3.42-1.75,6.91-4.79,12-3,3.47,1.22,13.64-4,18.36-7.41.74-.54,1.91-1.32,2.52-1.07,8.9,3.53,16.14-2.62,24.15-3.73,9.88-1.37,19.71-5.57,30-2.72.89.25,2.32.41,2.82-.08,4.78-4.72,9.17-1.6,13.07,1,2.77,1.84,4.22,1.29,5.56-1.06,2.06-3.59,5.23-3.13,7.72-1.47,5.94,3.94,12.79-.15,18.74,2.63,3.66-3.88,5.73,1.24,8.67,1.59,9.11,1.07,18.61.6,26.75,6,8.82-4.5,11.18,8.66,19,6.94,5.15,5.5,13.83,4.18,19.07,10.14,1.6,1.82,3.85,3.19,4.86,5.68,1.32,3.25,3.08,5.75,7.31,5.23,2.13-.26,3.57,1.51,4.84,3.1A29.42,29.42,0,0,0,307.81,1048.41Z" style="fill:#163948;"/><path d="M1427.81,1476.46c-3.94-6.41-1.6-13.5-2-20.24-.85-16.24,1.37-32.55-1.26-48.78-.46-2.86.48-5.92.35-8.86-1.09-26.14-2-52.29-3.56-78.39-.79-12.9-3.14-25.7-4.45-38.58-1.29-12.72-5-25.2-4-38.15a2.2,2.2,0,0,0-.56-1.66c-4.84-7.17-5.29-15.7-6.58-23.78-2.29-14.41-5.57-28.6-8.35-42.9-2.35-12.07-6.67-23.27-10.78-34.77s-9-22.56-14-33.68c-2.51-5.64-.87-12.77-5.51-17.8-3-3.29-4.27-7.43-6.19-11.29-5.82-11.64-8.49-24.48-14.17-36.15-1.47-3-.19-5.87-.28-8.8,3.91-1.11,6.61-4.05,9.83-6.26,4.69-3.22,7.07-10,14.39-9.46,1,.07,2.68-2.17,3.05-3.6,1.71-6.54,8-10,12.45-11.54,4.73-1.64,8.61-4.89,13.2-5.93,4.32-1,7-3.38,9.76-6.24.92-1,2-2.36,3.28-1.91,6.32,2.18,11.08-2.65,16.69-3.47,4.44-.65,9-.72,13.35-1.69,7.21-1.61,14.17-4,21.83-2,2.08.52,4.81-1.75,7.29-2.62,1.83-.64,4.28-2,5.5,0,3.17,5.2,5.89,3.58,10.08,1,2.3-1.4,6.62-4.33,9.72.34.36.54,1.84.67,2.69.49,15.69-3.29,30,3.23,44.8,6.24.91.19,1.92,1.63,2.49,1.42,8.74-3.14,15.21,2.6,22.43,5.46a11.16,11.16,0,0,0,4.91.76c7.32-.63,13.61,1,18.14,7.28.38.53.95,1.32,1.43,1.32,6.1,0,8.35,4.5,11.41,8.75,2.41,3.36,7.18,4.54,10.26,7.72,2.63,2.71,7.19,4,5,9.38-1,2.4,1.48,3.31,3.24,4.26,10.65,5.74,15.82,15.4,21.16,25.89,3.17,6.23,2.77,14,8.47,19,1.55,1.37.31,3.91.85,5.76,2.52,8.53,1.4,18.05,7,25.71,2.19,3,1.8,5.86-1.15,7.7-4.05,2.53-3.76,5.42-2.31,9.29.9,2.41.77,5.16,2.16,7.57a11.36,11.36,0,0,1-.25,11.43c-3.08,5.07-3.49,10.28-3.24,15.73.09,2,.93,3.89-.28,5.74-4.72,7.16-5.5,16.45-10.45,23-6.19,8.21-7.52,18-12,26.75s-9.72,17.45-10.17,27.76c-6.65,5.53-8.55,15.17-16.61,19.39a4.52,4.52,0,0,0-2.78,3.63c-.39,2.53-1.3,4.41-4.38,4.35-.86,0-2.29.53-2.53,1.16-2.57,6.82-10.57,7.56-14.24,12.43-5.37,7.14-13.64,8.6-20.46,12.71-2.43,1.47-5,2.87-7.39,4.54-5.11,3.57-9.72,7.92-16.51,8.6-2.84.28-5.24,2.67-7.06,5.15-.19,2.22,2.19,2.18,2.92,3.45,2.39,4.14,10.79,2.13,9.87,9.47-.63,5,7,6.51,4.9,12.17-.3.79,1.19,2.19,1.75,3.36,3,6.32,10.48,11.66,4.37,20.09-.6.83.18,2.53,1.74,3.08.83.29,2.61.74,2,1.52-5.89,7.45,1.11,15.38-1.1,23.15-1.54,5.4,1.32,12-4.94,16.16-.88.58-.62,3.12-.6,4.74a7,7,0,0,1-3.53,6.66c-6.62-.66-4.48,4.11-4.6,7.47-2.37,5.14-1.91,12.17-9.3,14-3.82,11.07-15,13-23.16,18.75-5.38,3.79-10.79,7.55-16.13,11.4-1.32,1-2.32,2.47-4.27,1.84-7.24-2.35-9.48-3.07-13.34.47-4.65,4.26-10.55,2.19-15.31,4.77-1.6.86-3.25-.06-4.49-1.28-1-1-2.68-2.18-3.42-1.52-7.7,6.79-15.54-.63-23.24.43C1430.41,1475.93,1429.11,1476.22,1427.81,1476.46Zm88.38-332.7a9.06,9.06,0,0,1,2.32-8.28c4-4.56,6-10.55,9.85-14.93,8-9,5.09-17.88,1-26.83-3.26-7.2-11.77-8.21-15.79-1.4-7.38,12.51-20.55,19.61-28.19,31.86-3.06,4.91-6.41,5-11,1.22-6.21-5.1-13.6-6.65-20.94-8.73-4.23-1.2-8.31,1.45-12.72-.22-2.66-1-6.57-2.05-8.34,2.63-1.46,3.85-3.33,7.36,1.09,10.57,1.28.93,3,2.46,2.17,4.11-4.09,7.72,2,8.19,6.64,9.54,4.27,1.23,8.15,2.57,9.39,7.69.44,1.81,2.13,3.33,3.34,4.92,4.84,6.41,5.28,10.59.75,16.91-3.55,4.94-5.7,10.51-8.42,15.82-2.11,4.12-2.88,8.72-.27,12.29,3.29,4.5,6.38,9.23,10.63,13.12,3.59,3.28,7,3.41,10.91,1.78a15.2,15.2,0,0,0,8.23-8.27c2.72-6,5.78-11.93,8.54-18,4-8.82,4.74-9.12,14.35-6.57a84.08,84.08,0,0,0,39.46.64c5.78-1.23,9.43-9.28,5.34-12.9s-4.72-8.5-7-12.65C1532.8,1149.5,1526,1144.62,1516.19,1143.76Z" style="fill:#163948;"/><path d="M1031.81,1985.49l3-.46c12.36,1.25,23.59-3,34.82-7.19l7.4-.76,4.43.35,4.25,11.11c.07,4.23.33,8.39,4.59,10.86q7.83,9.55,15.67,19.09c1,1.27,2.82,2.37,3.1,3.78,3,15.13,16.3,24.07,22.37,37.32a67.88,67.88,0,0,0,9.36,14.72c5.73,6.89,10.1,15.21,18.4,20,7.31,4.21,13.32,9.73,11.41,19.57-4.41-.51-8.51,1.26-12.78,1.79-3.89.48-7.79,2.37-11.06-1.51a2.12,2.12,0,0,0-1.79-.69c-7,3.09-14.72.43-21.47,2.43-7,2.08-13.63,1.37-20.43,1.1-1.83-.07-3.59-1.17-5.71-.71-13.22,2.85-27,3.84-40.13,4.14-13.41.31-26.63,4.83-40.08,2.09-2.43-.5-4.58-.59-6.64.88-2.93,2.09-5.93,3-9.25.8a2.36,2.36,0,0,0-1.9-.3c-11,4.91-22.21,2.6-33.43,1.52a19.66,19.66,0,0,0-7.92.41c-4.66,1.57-8.92,2-13.4-.51a6.62,6.62,0,0,0-4.89-.16c-8,2.89-16.55.79-24.53,2.44s-15.67,1.48-23.54,1c-1-.06-2.17-.51-2.9-.11-11.82,6.46-25.51,1.4-37.82,6.41-5.27,2.14-12.34,1-18.35.5-14-1.22-27.68,1.21-41.47,1.83-14.28.65-28-1.49-42.06-2.47-8.91-.62-18.34,1.07-27.52,1.55-13.44.7-26.93.44-40.31,2.29-6.58-4.83-15.68,1.59-21.9-4.89-9.2,1.1-18.25-1.75-27.63-.41-8.06,1.15-16.52,3.78-24.75-.15a5.91,5.91,0,0,0-3.87.1c-7.18,2.22-14.37,1.57-21.68.81-6.51-.68-13.06-2-19.61,1-2.47,1.13-6,.64-8.87.05-13.27-2.72-26.33-.82-39.39,1.33-2.12.35-3.89-.73-5.83-.83-11.77-.64-23.52-3-35.36-.75-.95.18-2.44.43-2.87-.06-6.48-7.47-16.56-3.66-24.06-7.8-.2-7.85,7.46-9.29,11.71-12.94,2.61-2.24,6.92-3.28,9.38-6.53,1.53-2,3.85-2.58,6-3.35,3.63-1.3,7.11-1.58,7.87-7.14.62-4.47,6.84-5.42,10.22-8.57,9.69-9.06,19.77-17.52,23.71-30.94a5.58,5.58,0,0,1,5.3-4c6.7.45,7.4-4.11,8.4-8.8.49-2.26,1.35-4.44,2-6.67.45-1.5,1.4-2.31,2.93-1.74,5.79,2.14,9.19-2.61,9.59-5.95.71-6,5.07-8.34,7.83-12.37,5.55-8.13,14-13.9,18.25-23a13.26,13.26,0,0,1,6.61-6.7c2.61-1.22,4.67-3.29,3.63-7.21-1.22-4.63,2.24-5.61,5.93-5.63a9,9,0,0,1,3.9.63c6.82,3.34,13.46,5.54,21.56,4.55,10-1.21,18.68,5.69,28.62,6.9,20.34,2.47,40.08,9,60.86,8.86,6.37-.06,12,3.63,18.14,5,12.32,2.82,24.51,5.07,37.22,5.2,6.79.07,12.95,4.24,20,5.08a102.71,102.71,0,0,0,31.58-.61c4-.76,8-1,11.74.7,9.53,4.32,19.42,1.87,29.16,1.68,1.93,0,4.61-1.31,5.65.17,4.8,6.84,10.2,2.69,14.63.48s8.39-3,13.21-1.79a16,16,0,0,0,8.87-.36c10-3.71,20.79-4.07,30.86-7.46,3.73-1.26,7.65-2.64,11.48-.07,7.08,6.56,7.44,6.58,13.59.78l7.59-2.09c4.49-.67,8.46,3.42,13.39.78,7.66-4.1,17.24-1,24.87-5.93.58-.38,1.9.59,2.82.47,5.15-.67,11-.16,15.24-2.56C1016.93,1992,1024.74,1989.52,1031.81,1985.49Z" style="fill:#4ab6ca;"/><path d="M308,1717.58c6.94,5.9,10.53,14.22,15.1,21.73,3.24,5.32,5.29,11.4,10.12,15.64,1.94,1.7,2.1,4.07,3.26,6,1.95,3.29,2.44,7.07,6.22,9.75,4.26,3,3.75,6.27-.57,9.5-14.28,10.68-26.13,24.06-39.77,35.44-5.54,4.62-12.08,7.73-17.6,12.54-10.39,9.07-21.67,17.41-29.11,29.07-3.72,5.83-9.12,9.73-12.83,14.88-8.8,12.19-21.93,20.74-28.32,34.9-2.31,5.12-6.37,9.25-12.6,10.06-1.27-9.58,1.93-18.7,2.86-28.05,7.67-4.86,4.25-14.36,8.83-20.91,3.61-5.16,6.9-11.36,6.8-18.38a8.08,8.08,0,0,1,1.17-3.78c6.82-12.31,11.4-25.71,17.9-38.07a213.32,213.32,0,0,1,25.66-38.59c8.07-9.56,15.44-19.77,23.17-29.64a97.9,97.9,0,0,1,10.53-11.8A77.75,77.75,0,0,0,308,1717.58Z" style="fill:#4ab6ca;"/><path d="M1466.93,1877.68l-7-3.24c-1.89-8.38-8.47-11.17-15.72-13.16l-2.32-1c-1.67-4.61-5-7.26-9.51-9.14s-9.06-4.22-11.73-8.53c-2.2-3.54-5.35-3.2-8.58-3.32l-.1-.14c-.25-4.61-.73-10.47-4.52-12.23-5.5-2.56-10.23-7-16.53-7.8-2.36-.12-4.79.24-6.94-1.14-.41-5.36,1.17-11.41-5-14.83a.86.86,0,0,1-.84-.85,7.32,7.32,0,0,0-3.63-4.46c-6.65-3.31-14.16-5-19.19-11.31-1.61-2-4.27-1.14-5.72,1.35l-5.77-.56c-2.43-3.18-6.65-2-9.76-4.32-7.44-5.51-8.42-9.62-2.33-16.75,2.71-3.17,4.43-6.6,4.11-10.87l1.3-1.92c2.26-.57,5.11-1.34,5.77-3.33,2.54-7.7,9.16-13.76,9-22.49l1.38-2.18c4.17-1.55,6.66-4.34,6.63-9l3.53-1.33c2.9.08,3.54,2.41,4.76,4.43,2.47,4.09,5.4,7.77,11.13,6.28a3.64,3.64,0,0,1,1,0c5.6.19-.4,6.34,3.81,7.36,2.67.65,7-1.06,7.51,3,1.05,8.53,8.83,10.5,13.85,15,2.24,2,5.22,2.82,4.52,6.65-.5,2.73,1.57,4.08,3.13,5.83,5.6,6.28,14.18,10.31,15.31,20.05a3.48,3.48,0,0,0,2,2.09c3.75,1.61,3.87,4.2,4.77,8s3.62,10.42,9.68,11.52c5.72,1,7.83,5.29,8.45,9.76s3.53,8.7,2.77,13.56c-.33,2.12.64,4.53,2.16,5.33,5.53,2.91,4.78,9,7.43,13.08,4.79,7.38,5.38,16.08,9.41,23.53,3.46,6.39,2.28,13.63,3.56,20.42-2.51.27-4.86,0-6.71-2A14.82,14.82,0,0,0,1466.93,1877.68Z" style="fill:#4ab6ca;"/><path d="M1900.47,206.64c.58-.71,1-1,1-1.21-3.34-9.7,3.47-14.08,10-18.1a57.29,57.29,0,0,0,10.89-8.63c10.8-11,25-15.56,38.61-21.24,3.79-1.59,8.55-1.72,11.95,2.31,1.31,1.55,3.37,2,5.09,3,6.14,3.4,12.32,5.64,19.54,4.09,3.71-.79,7.24.63,10.35,2.8,1.67,1.17,3.87,3,2.79,4.76-3.65,5.86,2.64,8.39,4.62,10.08,5,4.29,9.12,9.77,16.81,11.46,10,2.2,9.79,4.38,10.24,14.6.27,6.15,1.11,12.57,3.65,18.39,6.19,14.15,4.27,27.11-3.55,40.35-6.59,11.16-16.64,18.8-25.06,28.05-14,15.42-31,27.71-46.45,41.65-.74.67-1.74,1.21-2.15,2-6.46,12.89-17.93,21-28.51,29.9a54.47,54.47,0,0,0-5.34,5.94c-.93,1.05-1.77,2.77-.91,3.59,5.6,5.33,6.2,15.16,15.29,17.21,2.85.64,3,1.38,3,4.47.07,5.78,5.81,8.7,10.1,10.86,7.78,3.92,11.33,10.68,14.67,17.74,2.18,4.62,3.82,9.21,9.7,10.24,1.59.28,3.85,1.48,3.66,3-1.09,9,9.31,15.72,4.59,25.48-1.68,3.49,0,7.6,2.56,10.19,3.47,3.51,2.76,6.87,1.76,10.91-1.1,4.43-1.6,9.31-2.79,13.43-2,6.94-4.25,15.14-12.25,18.4-3.38,1.38-3.63,4.21-5.22,6.58-2.19,3.26-3.1,9.84-10,6.31-1.26-.65-3.22.28-3.32,1.39-.43,4.76-5.13,3.82-7,5.65-5.61,5.6-14.19,5-19.39,10.74-.92,1-3.1,1.79-3.46.83-2.6-7-5.94-1.31-8.79-.57s-5.56,2.45-7-2.17c-1.09-3.45-4.56-2.4-6.94-2-8.51,1.61-14.16-4.83-21.23-7.19-1.33-.44-1.8-1.9-1.88-3.27-.18-3-1.86-3.63-4.67-3.65-5.4,0-10.14-2.27-14.27-5.66-1.31-1.07-2.41-2.11-4.25-2.19-2.64-.12-5.72.11-7.56-1.9-2.12-2.32.34-5,.47-7.6.05-1,0-2.77-.25-2.82-7.52-1.43-5.7-9.64-9.84-13.39s-7.37-8.44-11.08-12.55-9.84-6.24-13.65-11.06c-1.43-1.81-3.71.14-5.09,1.55-3.52,3.63-8.06,5.83-12.12,8.69-3.8,2.68-7.57,4.36-8.58-4.62-3.56,6-8.64,8.12-8.27,14,0,.73-.95,1.89-1.74,2.27-8.8,4.13-14.14,12.93-23,17-3,1.35-3.6,4.69-6.16,6.36-3.85,2.51-5.08,8.28-11.76,7.67-2.65-.24-5.64,4.17-7.06,7.65s-4.29,5.85-7.1,8.21c-8.12,6.8-15.82,14.22-24.51,20.2-6.12,4.21-11,10.43-18.85,12.25-2.67.62-5,3.2-7.22,5.2-9.46,8.57-21.12,11.75-33.28,13.23-5.11.62-10.76.51-13.37-5.68a4.53,4.53,0,0,0-4.68-3c-5,.26-7.81-2.44-10.24-6.51a16.37,16.37,0,0,0-14.67-8.22,7.64,7.64,0,0,1-6-3c-8-8.79-14.9-18.3-18.37-29.81a26.56,26.56,0,0,0-3.41-7.1c-2.3-3.46-4.39-6.72-2-11a4.64,4.64,0,0,0,.45-2.9c-4.09-20.65,8.34-33.93,21.77-45.82,11.66-10.32,24-19.9,35.56-30.39,7.79-7,16.68-13,23.75-20.86,5.16-5.71,12.95-9.13,15.42-17.26a3.9,3.9,0,0,1,2-2.09c12.58-5.55,19.42-17.87,30.2-25.56,7.74-5.52,11-12.86,7.42-22.3-.11-.28-.68-.61-.64-.69,4.37-7.67-3.31-8.73-6.64-12.18-7.73-8-15.53-15.79-25.27-21.67-3.46-2.09-5.31-6.57-10-8.52-2.36-1-4.21-6.77-5-9.84-1.91-7.82-8.24-11.74-12.49-17.25-2.73-3.54-2.79-8.11-6.06-11.1-1.12-1-.62-2.63.37-3.59,2.7-2.61,2.78-5.82,2.66-9.23,0-1.26.27-3.13,1.12-3.72,7.16-5,4.76-11.93,5.33-18.85.44-5.26,3-11.9,10.55-13.78,5.18-1.3,9.35-5,12.66-9.31,2.8-3.62,6.32-5.87,10.87-6.19,1.7-.12,3.29-.1,4.64-1.29,6.91-6.13,16-5.7,24.18-8.14a12.19,12.19,0,0,1,12.14,2.92c6.48,6.9,14.94,11.74,19.26,21.15,2.74,6,9,11.62,15.64,13,7.65,1.63,11.54,6.86,16.23,11.58a30.83,30.83,0,0,0,6.06,5c7.87,4.74,17.22,6.17,24.74,12.06,4.75,3.72,14.71-.76,18-7.36,2.31-4.69,6-7.45,9.71-10.83,9.41-8.65,20.33-15.64,28.21-26,5.22-6.9,12.81-11.49,19.12-17.36C1894.06,200.56,1897.06,205.92,1900.47,206.64Z" style="fill:#e66165;"/><path d="M2057.43,566.39l-.56.69a8.85,8.85,0,0,1-.54-1.52c0-.22.27-.5.42-.75Z" style="fill:#fff;"/><path d="M855.92,1919.48c-1.77-.51-5.24.35-4.93-2,1.06-8.16-3.32-15.66-1.34-24.18,2.44-10.5,5.57-19.48,14.19-27,7.36-6.38,15.58-12,21.8-19.63,1.81-2.23,3.5-.67,5.31-.21a2,2,0,0,0,1.05-3.84c-4.91-1.13-7.73-4.92-11-8.18a6.76,6.76,0,0,0-3.39-2c-15.69-2.36-21.9-15.5-30.21-26.3-5.28-6.86-7.37-15.21-11-22.83-1.73-3.6-4.34-3.83-6-.37-5.89,12.62-15.25,22.13-26.16,30.41a17.73,17.73,0,0,1-6.76,3.62c-7.43,1.87-7.39,4.14-2.07,10.54s10.77,12.77,17.22,17.83c15.45,12.14,18,27.86,14.25,45.67a8.19,8.19,0,0,0,.08,4.75,2.2,2.2,0,0,1-.75,2.61c-8.24,6.24-8.14,6.32-10.54,15.47-.37,1.4-1,2.85-2.42,2.62-4.06-.65-4.71,3-6.66,5-1.14,1.12-1.72,3.57-3.49,3.08-6.76-1.87-7.71,4.58-11.12,7.42-3.78,3.15-6,9.14-12.84,6.2-2.61-1.11-4,1.3-5.71,2.94-3.63,3.48-7.72,6.3-13.19,5.91-3.56-.25-6.21,1.51-9,3.65-3.71,2.89-7.84,3.58-12.94,3.14-8-.69-16.18.58-24.27,1.08-1.65.1-3.28.44-4.92.66-4.71.61-9.44-3.59-12.79-2.59-4.59,1.37-8.42,2.67-13.24,1.36-2.35-.64-5.2.93-7.79.81-5.78-.28-11.76,1.53-17.14-3-2.66-2.26-7.22-2-10.62-.61-6.73,2.73-13.35,1.14-19.49-.78-7.78-2.43-15.45-3.8-23.52-3.19a9.93,9.93,0,0,1-7.38-2.36c-3.36-2.74-6.13-5.34-2.56-9.89,2.52-3.21,1-7.12,1.31-10.7.51-5.89,1.93-8.61,7.24-8.15a20.28,20.28,0,0,0,11.2-2.3,12.39,12.39,0,0,1,8.81-.47c2.87.82,5.25,2.15,8.41.3,3.75-2.19,4.85,2.2,7.07,3.79,3.91-5.94,9.8-9,16.34-6.59,7.49,2.74,15,2.36,22.58,2.45,18.57.22,37.15.43,55.72.25,6.9-.06,14.09-.08,19.56-5.74a6.91,6.91,0,0,1,4.45-2.11c10.89.17,17.21-9.15,26.38-12.48a5.69,5.69,0,0,0,4-5.22,6.16,6.16,0,0,1,4.38-6c4.08-1.56,4.14-4.47,1.26-6.78-4.24-3.39-6.44-8.32-10.27-12.06-4.72-4.6-9.68-7.76-16.16-8.7-1.62-.23-3.15-1.32-4.75-1.39-4.07-.17-4.17-7.46-9.78-5-3.92,1.7-7.78-1-11.65-1.59-4.26-.66-8.4-1.62-12.79-1.72-5.61-.13-11.3.15-16.84-1.58a14.1,14.1,0,0,0-6.92-.34c-14.16,3.1-28.34,2.09-42.52.47-6-.68-8.33-3.31-5.88-8.23,4.65-9.35,9.23-18.92,16.73-26.47,1.48-1.48,4.2-2.16,6.43-2.39,7.59-.78,15-3,22.71-2.76,5.33.14,10.62.35,15.64-2.11a8.24,8.24,0,0,1,4.84-.89c14,2.79,26.66-2.46,39.79-5.85,12.81-3.31,22.6-10.9,31.94-19.31,9.14-8.23,15.29-18.25,14.35-31.31-.32-4.43-1.77-7.07-6.16-10-8.14-5.41-17.91-6.52-25.82-11.89a5.15,5.15,0,0,0-4.75-.93c-5.36,2.21-10.35-.15-15.55-.64-18.9-1.8-37.59-.87-55.37,6.83-10.54,4.56-20.92,9.49-32.32,11.76-2.83.56-5.44,2.4-8,3.86a28.11,28.11,0,0,1-13.31,3.63c-6.77.12-9.87-3.84-8-10.28,1.12-3.78,3.51-7.11,3.74-11.29.34-6.39,2.4-11.57,9.78-12.94,1.78-.33,3.26-2.21,4.92-3.32,6-4.05,11.62-8.67,18.5-11.6,6.61-2.82,12.18-7.19,17.38-12.7,7.4-7.85,17.76-12.67,25-21,6.94-8,15.6-14.35,21.73-23.09,7.47-10.66,3.08-22.89-8.15-28.93-8.71-4.68-17.29-2.33-25.77-2.77-19.21-1-36.54,5.31-51.72,17.3-7.32,5.78-16.12,9.16-24.14,13.71-11.48,6.5-21.89,14.54-33.33,21-13.22,7.44-24.7,17.59-38.29,24.44-5.12,2.58-11.42,2.41-15.4,7.86-1.91,2.62-3.72,4.6-2.53,7.85,1.13,3.09-.16,5.89-.74,8.79a8.59,8.59,0,0,1-6.47,6.85c-3.82,1.16-5.27-1.82-7-4.2-2-2.67-3.79-5.49-6.93-7-5-2.42-7.45-7.28-8-12-.84-7.36-5.17-14.55-1.77-22.3a5.57,5.57,0,0,0-.18-3.9c-6.83-16.65-4.9-34.8-8.9-51.93-.82-3.51-.19-7.25-3.79-9.71-4.87-3.33-8.82-8.24-15.43-8.43-9.26-.27-18.57-1-26.32,5.77-.93.82-2.22,1.11-2.84,2.47-5.1,11-9.41,22.52-15.63,32.87-7.71,12.82-9.84,27.41-15.35,40.86-3.34,8.16-4,16.81-5.41,25.29a192.78,192.78,0,0,1-8.55,32.68c-1.84,5.26-2.27,11-3.42,16.51a61.55,61.55,0,0,1-2.17,8.7c-1.71,4.66-3.43,4.75-6.83,1.22-8.69-9-9.29-20.27-8.31-31.62,1.47-17.14,3.64-34.22,5.52-51.32a15.18,15.18,0,0,1,.19-2c1.27-5.12,7.78-7.86,4.56-15.52-2-4.7,3.1-11.07,4.71-16.75a138.67,138.67,0,0,1,5.92-16.9,22.44,22.44,0,0,1,2-4.54c6.12-8.33,9.13-18.21,13.88-27.16,3.94-7.42,10.19-13.85,16.84-19.37,1.88-1.56,4.36-3.21,7.33-2.37,1.25.35,2.74,1,3.59-.46,5.81-9.9,15.21-6.62,23.72-6.52,2,0,4.26,1,5.91.37,6.83-2.76,13.08-.76,19.05,2.09,6.26,3,11.35,8.09,17.91,10.68,1.12,8.33,8.83,13.32,10.48,21.72,1.38,7,5.75,13.44,6.19,20.87.8,13.33,3.41,26.49,3.52,39.9.06,7.74,1.41,8.43,7.88,3.85,10.25-7.26,20.2-14.94,28.82-24.18a13.76,13.76,0,0,1,2.92-2.63c14.48-8.43,26.74-20,41.1-28.63,5.1-3.06,11.41-3.79,15.82-8.15,7.74-7.65,18.57-10,27.29-16a5,5,0,0,1,2.7-1.14c10.44.68,20.08-3.82,30.43-4.49,9.14-.59,18.49-.91,27.54-2.93a12.27,12.27,0,0,1,6.85.23c12.41,4.18,23.55,10.14,30.76,21.68a7.6,7.6,0,0,0,1.06,1.67c11.56,10.53,12.38,23.82,8.58,37.56-1.95,7.05-4.44,14-9.74,20.07a267.48,267.48,0,0,1-21.14,22.33c-1.45,1.33-3.4,2.31-3.35,4.66.06,2.58,1,5.44,4,3.82,6.67-3.61,13.46-2.28,20.35-1.81,5.59.39,11,.18,16.54-1.9,5.25-2,10.27,1.11,15.19,3,6.5,2.43,12.57,6.25,19.89,5.93a4.06,4.06,0,0,1,3.5,1.55c6.19,7.69,13.6,14.23,20.12,21.57a19.32,19.32,0,0,1,4.5,14c-.1,1.58.19,3.46,2.3,3.87a4.27,4.27,0,0,0,4.3-2c2.11-3,3.78-6.15,6.73-8.55,3.81-3.11,6.92-9.05,10.91-9.59,11.17-1.53,20.37-8.2,31.18-10.17,1-.18,2.18-.65,2.91-.26,8.59,4.54,17.63,1.26,26.44,1.62,4,.16,7.94.18,11.74,1.72a2.94,2.94,0,0,0,3.55-1.1,3.68,3.68,0,0,0-.26-4.6c-4.18-5.09-9.65-8.84-13.88-14a94.74,94.74,0,0,0-9.09-10.28c-8.53-7.77-10.35-18.07-12.07-28.44-2.46-14.86,5.13-25.8,14.71-35.87,7.59-8,16.06-14.68,27.22-16.47a66.42,66.42,0,0,1,25.28,1.15c9.12,2.1,18.53,2.81,27.55,3.26,12.81.63,23.59,6.07,32.84,12.56,9.61,6.74,20.34,11,29.94,17.43,5.65,3.8,11.46,7.14,16.74,11.64,6.19,5.27,14.8,7.72,20.35,13.79,7.46,8.15,16.58,14.15,24.75,21.34,1.25,1.1,2.33,2.68,3.79,3.2,3,1.08,5.16,5.6,8.59,3.72s1.35-6,1.82-9.2c1.41-9.37-.3-19.1,3.25-28.22,1.38-3.53-.5-7-.15-10.68.76-8.05,5.94-14.81,5.71-23-.06-2.07,2.08-3.29,3.36-4.79,1.49-1.75,3.68-3.18,3.92-5.65.67-7,4.18-10.95,11.47-10.94a3.08,3.08,0,0,0,2.44-1.07c8.94-8.83,13.15-10.33,24.75-8.52a11.54,11.54,0,0,0,6.78-.88c6.27-2.83,12.38.08,18.55.49,2.08.14,3.42,1.91,4.66,3.51.78,1,1.22,2.43,2.72,2.64,16.41,2.32,22.08,15.9,29,28,2.77,4.81,4.61,10,8,14.69,9.07,12.63,10.89,28.35,16.81,42.35.82,1.94-.34,3.9-1,5.79-.53,1.6-1.2,3.71.14,4.73,8.44,6.42,6.92,16.17,7.27,24.54.44,10.33,2.85,20.31,3.43,30.58.48,8.67.69,17-.78,25.71-1,5.91-6.53,7.68-8.23,12.64-.67,1.95-3.62.56-4.52-1.55-1.83-4.29-2.58-8.89-3.64-13.42-1.49-6.42-2.82-12.88-5.06-19.2a173.24,173.24,0,0,1-8.56-37.83c-.49-4.24-2.15-8.35-3.23-12.53-2.51-9.65-6.55-18.78-9.28-28.4-2.09-7.38-7.38-13.93-10.67-21.2a184,184,0,0,0-12.85-24.32c-3.1-4.79-8.59-9.07-14.12-9.31-12.76-.56-24.8,2.7-34.39,12.11a2.23,2.23,0,0,0-.64,2.59c3,9.55-2,18.63-1.7,28.12a73.07,73.07,0,0,1-4.87,27.19c-1,2.63-.61,5.14.21,7.8s-2.08,20.8-3.22,23.1c-3.9,7.89-12.33,11.73-16.93,19.2-2.08,3.37-9.17-.42-10.24-5.61-.6-2.9-.36-6-.52-9-.3-5.74-5.22-13.14-10.67-13.83-6.31-.8-11.27-4.06-16.29-7.07-15.82-9.5-31.27-19.65-46.78-29.62-18.15-11.67-37.75-20.66-55.75-32.51-7.58-5-16.63-6-25.53-7.59-9.17-1.66-18.23,0-27.32-.53-8-.46-16,5.19-20.3,13.56-3.16,6.22-1.91,14.19,3.72,20.07,10.3,10.75,20.92,21.19,31.16,32,2.87,3,7.29,3.07,9.93,6.41,11.51,14.53,30.42,18.33,43.92,30a9.12,9.12,0,0,0,4.54,1.82c3.62.5,4.89,2.79,5.7,6,1.46,5.76,2.68,11.53,4.87,17.18,2.7,7-1.26,11.06-8.78,9.75-4.83-.84-10-1.07-14.21-4.16-5-3.73-11.29-3.63-16.89-5.52-14.72-5-28.6-12.46-44.14-15-1.3-.21-2.71-1.28-3.81-1-10.88,3-22.29-2.4-33.06,2.19-1.48.63-3.47,1.42-4.75.93-7.94-3.06-13.93,1.37-20.55,4.43-5.58,2.59-11.43,4.26-16.82,7.68-3.33,2.11-4.92,4.32-5.4,7.45-1.46,9.55.23,18.35,7.42,25.47,1.17,1.16,2.13,3.38,3.36,3.51,5.76.62-3.68,10,5.81,9.12,4.51-.44,8.42,4.69,12.53,7.39A57.83,57.83,0,0,0,910,1813.4c9.3,3.36,19,5.34,28.29,8.75,3.92,1.43,9.05-.4,13.63-.83,1.63-.16,3.47-1.24,4.82-.77,13.43,4.63,27.67,2.49,41.32,5.13,3.31.64,6,1.53,7.92,5.08s6.13,6.15,8.1,9.81c2.11,3.92,3.24,8.07,6.35,11.79,4.28,5.12,2.08,8.73-4.77,9.74a127.07,127.07,0,0,1-40.54-.1c-2.84-.49-5.15.9-7.8,1-12.62.55-25.06,2.51-37.52,4.67-19.33,3.35-35.14,12.66-45.92,28.25-1,1.38-2.26,4-1.08,4.32,7.8,2.07,6.22,12.63,14.52,14.8,6.46,1.69,10.91,8.71,18.5,8.88,3.85.09,7.17,2,10,4.13,7.14,5.38,15,6.48,23.4,4.74a18.65,18.65,0,0,1,8.8-.13,28.87,28.87,0,0,0,7.91.8c15.9-.45,31.79-1.07,47.69-1.57,5.3-.17,10-3.24,15.64-2.47,4.71.65,8.46,1.47,9.13,7.81,3.31-3.28,5.39-7.8,10.25-4.11,1.88,1.43,3.71-.3,5.56-.92,3.58-1.19,7.15-1.28,10.6.71,1.43.82,3.15,2,4.57,1.82,4-.55,8.33-.78,11.16,2,2.68,2.64,1,7,1.49,10.55a21.14,21.14,0,0,0,1.16,4.75c2.78,7.32-.47,13.48-8.32,13.35-9.56-.16-18.29,1.83-27.2,5a23.86,23.86,0,0,1-16.7-.37c-3.55-1.41-7.79-1.83-10.6.39-4.78,3.76-10,3.23-15.21,3.2s-10.62-.91-15.75,1.17c-5.4-4.77-10.7,0-16,.22-7.51.36-14.75-2.33-22.42-1.38-4.12.51-8.53-1-12.88-.31-1.29.2-2.94.46-3.93-.14-9.24-5.62-21.22-4.74-29.52-12.45-1.76-1.64-3.44-3.6-6-2.63-6.62,2.53-9.33-2.82-12.71-6.29-3-3-6.51-5-9.67-7.4-5.63-4.24-15-5.85-15.12-16,0-3.53-5.49-4.91-5.42-9.14a2.62,2.62,0,0,0,.84-.27c.12-.09.11-.61.09-.62C856.08,1918.3,855.82,1918.66,855.92,1919.48Z" style="fill:#47afc2;"/><path d="M556.93,1087.67c-3.47-3.89-6.13-7.71-6-13.63.15-5.44-1.38-11-6.17-15.09-5.24-4.44-5.24-13-12.46-16.14-1.72-.75-2.82-3.11-4.92-3.17-8.92-.25-16.12-5.67-24.37-8-12.25-3.46-20.32-17.38-18.93-29.79,1.29-11.5,3.21-22.57,12.67-30.71,1.42-1.22,1.95-3.45,3-5.15,3.84-6.24,7.73-11.62,16-13.64,6.91-1.69,12.23-7.71,17.85-12.31,3.13-2.56,6.3-5.5,9.94-6.39,10-2.44,18.4-8.67,28.31-11.14a11.57,11.57,0,0,0,3.4-2c8.4-5.78,18.5-5.36,27.85-7.68,13-3.22,25.52.78,38.24,2.07,7.2.73,12.92,3.78,15.61,10.48,3.67,9.13,10,18.55,8.46,28-1.87,11.17,4.16,18.46,7.17,27.45a69,69,0,0,0,10.07,19.08,6.8,6.8,0,0,0,4.84,3.08q.38.4.78.78c-.83,4.44,1.79,7,5.24,8.62,2.4,1.16,5.08,1.74,6.4,4.37,2.63,5.26,10.12.58,12.91,6.8,2.24,5,8.15,4.86,13,5.45,6.16.74,10.47,5.59,16.28,7.21,2.84.79,5.36,2.65,8.47,2.73,4,.09,7.87-.1,11.1,3.16,1.68,1.69,4.45.89,6.75.88,3.63,0,6.8,1.06,10.29,2.28A47.51,47.51,0,0,0,799,1048c12.44-1.35,24.7-4.38,37-6.67a9.05,9.05,0,0,1,4-.21c9.65,2.83,19.56-.65,29.45,1.7,5,1.2,11.88,1.83,16.78-2.85.68-.65,1-.87,1.5-.14,4.12,6.17,8.17,3.46,12.44.1a5.29,5.29,0,0,1,3.86-.53c5,1,8.66-1.42,12.73-3.91,4.31-2.64,9.51-3.68,14.5-5,5.76-1.55,14.1.17,15.27-9.32.15-1.24,1.46-1,2.45-1,11.31.64,16.31-7,21.3-15.42,2.47-4.15,4.28-9,8.32-12.1,3.85-3,5-7.72,7.08-11.76,1.17-2.26,1.12-5,3.74-6.63,2.23-1.37,2.55-3.83,2.24-6.23-1.52-11.79,2.26-22.25,5.94-33.36,4.42-13.36,11.66-18.3,25.13-20.52,11.85-2,23.79-4,35.22-2.18,12.44,2,25.27,4.8,36.49,11.4,4.63,2.73,9.86,3.85,14.68,5.61,11.87,4.34,19.36,14.79,30.52,19.8,1.77.8,3.15,2.54,5.32,2.43,4.31-.23,7.26,2.61,8.83,5.64,5.94,11.44,16.79,20.18,20.2,32.57,2.82,10.23,2.9,22.13-2.85,31.44a27.44,27.44,0,0,1-18.38,12.27c-7.58,1.24-14,5.66-21.49,7.42-4.61,1.08-9.94,5.5-11.9,12.13s-8.87,10.48-10.61,17.64c-.5,2.06-3.63,1.56-5.05-.08-3.6-4.15-7.15-1.87-10.77-.3-2.94-3.82-7-3.08-11-2.7-8.69.84-17.32,4.3-26.14.48-1.58-.68-3.19.27-4.64,1.21-3.66,2.37-7.47,4.82-11.5.91-1.32-1.28-1.59-.16-1.92.41-2.56,4.41-7,3.34-10.7,3.3a250.7,250.7,0,0,0-41.09,3c-3.58.55-7.28,0-10.71-.36-7.39-.7-14.51.84-21.74,1.14-2.75.11-5.21.9-6.9-2.09-.81-1.44-1.88-1.23-3.26-.38-5.88,3.6-12.19,2.68-18.76,2.53-7.39-.18-14.89.37-22.32.14-10.14-.31-20.21,1.87-30.44-.16-5.7-1.13-11.45,1.84-17.57,1.4-5.5-.4-9.67-1.08-12-6.57-.48-1.16-1.76-2.46-3.13-1.93-1.94.74-1.7,2.41-.9,4.07,2.23,4.61-.36,5-4.06,4.79-10.85-.61-21.68-.58-32.58-.18-7.78.29-15.6,1.29-23.53.89-12.11-.61-24.32.93-36.48.88-21.18-.08-42.19,2.3-63.28,3.57-4.51.27-8.83-1.08-13.22-1.37-6.09-.4-11.44.88-17.12,1.89-6.09,1.08-12.36-.52-18.38-.83-6.41-.33-12.59.75-18.7,1.18-6.77.48-13.33.95-20.14.94s-14.33-.31-21.16,1.63C565.19,1089,561.15,1088.27,556.93,1087.67Z" style="fill:#f4b902;"/><path d="M574.37,1420.38c0-11.51-.5-25,.18-38.4.44-8.82.71-17.8.5-26.45-.23-9.79,3.42-19.09,1.85-29.05-.52-3.28.19-8.09.74-12.15,1.62-11.94,1.79-24,2.71-36,.63-8.19,4.32-15.75,9.26-22.48,1.57-2.14,3.72-4,4.72-6.38,4.41-10.36,13.92-15.4,22-22a11.63,11.63,0,0,1,7.25-2.63c4.94-.26,9.94-.28,13.11-5.27a4.53,4.53,0,0,1,4.42-1.91c11.38,2,22.08-3.91,33.51-2.67,4.52.49,8.92-1.44,14.14-.83,12.06,1.4,19.69,8.37,27.09,16.31a15,15,0,0,0,6.6,4.11c11.21,3.65,16.51,14.27,25.12,21,1.63,1.27.95,3.06,1.09,4.62a18.83,18.83,0,0,0,3.81,10.17c7.32,8.67,7.4,19.06,9.26,29.38,1.46,8.11,4.64,16.07,4.11,24.39-.48,7.5,1.28,14.94.66,22.12-.46,5.39,6.12,7.78,3.59,12.59a22,22,0,0,0-2.28,12.56,62,62,0,0,0,2.88,13.48c1,2.93.17,4.87-1.1,7.39-2.63,5.22-4.29,10.41-.43,16.33,2.14,3.29,2.32,7.24-.55,11.78s-3.5,10.71-3.57,16.2c-.17,14.4-2.21,28.35-8,41.52-5.19,11.72-9.49,24.06-20,32.54a60.52,60.52,0,0,0-6.34,6.34c-12.42,13.49-28.22,18.22-46,21-12.53,1.93-24.32-1-36.48-.79-12.42.27-25.65-2.68-36.23-10.33-4.5-3.25-11.77-5.8-10.86-13.86.2-1.75-1.17-2.09-2.16-2.9-6.16-5-9-11.28-10.41-19.33-1.17-6.52-3.83-13.2-6.33-19.56C575.93,1455.34,577.33,1438.65,574.37,1420.38Zm132.72,45.24c2.93-2.72,5.78-5.48,6.34-9.74l1.71-6.34c3.58-1.79,2.36-4.91,2.16-7.75,3.14-6.67.95-14,2.65-20.86,1.66-1,1.63-2.06,0-3.06l0-5c2.87-2.74,2.44-5.79.86-9l.62-9.12c1.23-2.34.54-4.65-.07-7l1-10.91c1.4-1.9,1.48-3.63-.67-5.06l.2-4.9c1.81-1.26,1.94-2.33-.36-3.12,1.47-5.19-3-9.73-1.61-14.91,2.68-.83,3.29-2.89,3.33-5.39.23-14-3.46-27.69-4.28-41.63,0-.17-.55-.31-.84-.47-2.58-5.85-7.79-9.26-12.32-13.29-1.67-2.42-3.86-3.65-6.87-3l-2.81-1.56c-2.33-5.3-10.88-4.08-11.72-11.13-.06-.51-2.27-1-3.51-1.1-5.74-.48-11,.31-14.5,5.7l-2.55,1.84c-4.54-.86-9.14-3.05-13.45.65-2.57.33-4,2.12-5.32,4.09-6.06-.67-10.28,1.87-12.84,7.33l-5.82,10.28a2.85,2.85,0,0,0-2.32,3.64c-5.66,5-8.19,11.63-9.5,18.85-1,4.35-4.67,8.46-1.23,13.22l.44,5.05c-2.34,3-2.33,6.76-3.54,10.12-.62,1.72-.65,4,1.84,5,.29,4.13-.29,8.35,1.24,12.36-1,2.46-5.27,4.37-1.26,7.65l-.62,4.86a3.26,3.26,0,0,0-2,4c1.57,4.91.09,9.8.32,14.69-.09,3.94,1.92,7.36,2.75,11.08.8,4.13-.08,8.81,4,11.85,1,2.57,1.22,5.09-.58,7.44-2.94,1.88-3.38,3.84-.2,5.92l.63,10.82c-1,2,0,3.1,1.62,4l2,4.38c2.27,4,1.17,8.81,3.47,13.1,6.83,12.77,21.4,22.24,38.15,17.38a5.25,5.25,0,0,0,4.38-.26c5.86-.39,11.69-.86,16-5.58,3.86-1.35,6.51-4.14,8.76-7.39,2,.34,2.95-.81,3.47-2.52a3.53,3.53,0,0,0,.76-1.08c4.53,2,8.92,3.41,11.15-3A13.08,13.08,0,0,0,707.1,1465.63Z" style="fill:#fff;"/><path d="M915.79,1220.43c-3-1.9-4.26-.44-6.06.58-6.21,3.54-11.82,1.18-13.2-5.79-.82-4.12-5.36-8.86.83-12.64-3.27-8.44,3.27-16.89-.09-25.4-2.17-5.49-.8-10.62,3.16-14.78q9.52-10,19.44-19.61c9.17-8.92,20.8-13.59,30.3-21.4,6.46-5.31,14.28-7.7,20.8-12.52,1.6-1.18,3.8-1.73,5-3.17,8.61-9.88,21.17-13.43,31.65-20.26,8.78-5.72,16.81-2.28,24.41,1.2,3.74,1.71,6.47,6.4,5,11.94-2.2,8.33-4,16.77-5.75,25.22-1.2,5.91-4.09,10.45-9.3,13.49-4.37,2.56-7.34,6.53-10.8,10.1-5.91,6.09-12.9,11.12-19.46,16.57-14.26,11.84-28.64,23.54-42.74,35.57-5,4.26-10.68,7.44-15.48,12.21C929,1216.26,921.51,1217.8,915.79,1220.43Z" style="fill:#e66165;"/><path d="M846.89,1420c10.05.47,20.26-.8,30.09,2.38,6.73,2.17,14.18,2.89,19,9.13a7.14,7.14,0,0,0,5.28,2.49c2.63.21,4.36,1.27,4.53,4.22.11,1.89,1.59,2.56,3.2,3.32,9,4.2,12.42,12.42,14.75,21.19.73,2.74.64,5,4.41,5.18,4.31.16,5.37,3.13,5,7-.16,1.64-.57,3.71.19,4.91,4.84,7.68,2.82,16.43,4.07,24.64,1.77,11.7-.93,23-5.38,33.76-2.34,5.66-3.74,5.81-9.09,3.26-10.45-5-15.9-14.08-18.52-24.61-3-12.13-5.88-24.08-11.63-35.43-3.54-7-11.08-10.64-13.24-18.32-.32-1.13-1.66-1.7-2.24-1.1-4.62,4.76-6.76.14-9.48-2.35-4.1-3.77-10-3.39-14.49-3.93-9.9-1.2-20.5-.37-29.92,3.73A27.15,27.15,0,0,0,808.16,1477c-1.1,3.78-2.18,7.44-3.64,11.14-7.26,18.31-13,37-13,57,0,2.59.76,5.52-2.41,7-3.39,1.54-6.32.74-9.19-1.63-2.67-2.2-4.78-4.59-5.47-8-2-9.82-3-19.73-1.89-29.71.37-3.26.65-6.41.73-9.69.11-4.1.17-8.47,2.86-12.37s3-8.42,3.7-13.07c1.93-12.75,4.78-25.35,14.12-35.33a58.33,58.33,0,0,1,26.63-16.42,25.84,25.84,0,0,0,8.05-3.68C834.28,1418.18,840.63,1419.44,846.89,1420Z" style="fill:#e66165;"/><path d="M1031.81,1985.49c-7.08,4-14.88,6.46-22,10.51-4.21,2.39-10.1,1.88-15.24,2.56-.92.12-2.24-.85-2.82-.47-7.63,5-17.21,1.82-24.87,5.93-4.93,2.64-8.9-1.45-13.39-.78.43-1.67,1.11-3.16,3.06-3.46,4.57-.69,10.32,1.75,12.66-4.81,8.76,1.91,16.65-4.22,25.06-3.14,10.12,1.31,18.67-2.26,27.29-6.32C1025,1983.87,1028.38,1982.91,1031.81,1985.49Z" style="fill:#47afc2;"/><path d="M1335.84,1755.37c.32,4.26-1.41,7.7-4.11,10.87-6.09,7.13-5.11,11.24,2.33,16.75,3.12,2.31,7.33,1.15,9.76,4.32-8,6.85-13.9-.62-19.84-3.71-2.83-1.47-1.88-7.11-.61-10.29C1326.09,1766.48,1328.17,1758.89,1335.84,1755.37Z" style="fill:#47afc2;"/><path d="M1412.07,1839.29c3.23.11,6.39-.23,8.58,3.32,2.67,4.3,7.23,6.65,11.73,8.53s7.85,4.53,9.51,9.14c-7.31.46-11.38-6.33-17.41-8C1417.19,1850.27,1415.31,1844.44,1412.07,1839.29Z" style="fill:#47afc2;"/><path d="M1349.59,1787.87c1.45-2.49,4.11-3.37,5.72-1.35,5,6.32,12.54,8,19.19,11.31a7.32,7.32,0,0,1,3.63,4.46A47.13,47.13,0,0,1,1349.59,1787.87Z" style="fill:#47afc2;"/><path d="M1069.67,1977.84c-11.23,4.22-22.46,8.43-34.82,7.19.94-.89,1.89-2.56,2.82-2.55,8.85.15,16.59-4,24.84-6.13C1065,1975.7,1067.79,1974.91,1069.67,1977.84Z" style="fill:#47afc2;"/><path d="M1390.92,1819.11c6.29.84,11,5.25,16.53,7.8,3.8,1.76,4.27,7.62,4.52,12.23-5-7.08-12.12-11.55-19.5-15.72C1390.94,1822.56,1390.64,1820.84,1390.92,1819.11Z" style="fill:#47afc2;"/><path d="M1351.93,1727.62c.14,8.73-6.49,14.79-9,22.49-.66,2-3.51,2.76-5.77,3.33a7.17,7.17,0,0,1,1.82-8.22c5.06-4.58,8-10.23,10.43-16.37C1349.64,1728.21,1351.05,1728,1351.93,1727.62Z" style="fill:#47afc2;"/><path d="M1444.22,1861.27c7.24,2,13.82,4.79,15.72,13.16C1454.64,1872.33,1448.52,1867.21,1444.22,1861.27Z" style="fill:#47afc2;"/><path d="M945.87,2005.33c-6.15,5.8-6.51,5.78-13.59-.78C937.71,1999.84,940,2000,945.87,2005.33Z" style="fill:#47afc2;"/><path d="M1379,1803.15c6.18,3.42,4.61,9.47,5,14.83-1.83.57-5.24.31-4.64-.9C1381.8,1812.12,1377,1807.76,1379,1803.15Z" style="fill:#47afc2;"/><path d="M1466.93,1877.68a14.82,14.82,0,0,1,5,11.49l-3.34,3.18C1469.27,1887.07,1466.5,1882.53,1466.93,1877.68Z" style="fill:#47afc2;"/><path d="M1359.95,1716.46c0,4.65-2.47,7.44-6.63,9-.67-1.85-1.34-3.7-2.23-6.12Z" style="fill:#47afc2;"/><path d="M1090.34,1999.39c-4.26-2.47-4.53-6.63-4.59-10.86,1.2-.23,3-.9,3.22.72C1089.43,1992.63,1091.42,1995.82,1090.34,1999.39Z" style="fill:#47afc2;"/><path d="M1081.49,1977.43l-4.43-.35C1078.72,1974.83,1080.4,1972.39,1081.49,1977.43Z" style="fill:#47afc2;"/><path d="M547.33,849.63c2.08,7.27-2.6,12.18-7.21,16.29-7.33,6.53-12.71,15-21.93,19.77-9.39,4.84-18.7,9.64-28.76,13-4.9,1.63-8-2-11.87-3.35-2.06-.73-1.6-3.4-.38-5.23,5.68-8.53,10.44-17.67,20.08-23,6-3.32,12-7.42,16.48-12.49,6.56-7.37,15.36-10.31,23.55-14.54,7.59-3.92,9.84-2.34,10.18,6.44C547.51,847.48,547.39,848.47,547.33,849.63Z" style="fill:#47afc2;"/><path d="M709.35,772.83c-2.74.28-6.61-.69-10.5-1.53-6.59-1.42-9.25-6.08-5.28-11.19s6.88-11.39,14.26-13.09c2.35-.54,4.29-2.92,6.37-4.53,2.87-2.21,5.39-5,9.54-4.73a4,4,0,0,0,2.71-.83c7.84-7.38,8.6-7.71,18.55-7.35a14.22,14.22,0,0,0,2,0c2.49-.26,5.36-2.61,7.36.22,2.21,3.13.45,6.57-1.13,9.33-4.43,7.77-8.73,15.71-14.09,22.82-5.66,7.53-15,8.6-23.52,10.8C714.06,773.17,712.31,772.83,709.35,772.83Z" style="fill:#47afc2;"/><path d="M845.73,979.88c.43,2.28-.67,4.37-1.5,6.54A2.11,2.11,0,0,0,845,989c3.13,2.68,2.7,2.5.85,5.69-4,6.91-9.91,8-17.48,8.81-10.1,1-18.81-2.06-27.87-4.87-2.2-.68-4.62-1.41-6.32-2.85-7.33-6.26-11.47-8.23-.63-16,1.79-1.28,2.5-2.8,3.5-4.51,1.88-3.22,3.64-8.67,7.25-.7,1.23,2.73,7.45,2.26,8.06,1.72,5-4.39,12.09-2.79,17.21-6.92,7.86-6.35,15.06-2.79,16.1,7.41C845.82,977.71,845.73,978.72,845.73,979.88Z" style="fill:#47afc2;"/><path d="M1142.83,869.74c10.86,3.38,22.8,3.11,29.88,14.13a35.11,35.11,0,0,0,8,8.65c4.85,3.75,2.93,9.37-3.09,11-4.49,1.23-9.08,2.35-12.83,5.28-2.43,1.89-5.13,2.59-7.2.4-4.12-4.37-9.89-6.84-13.62-11.28-4.78-5.7-10.1-7.59-17.32-7.34-6.44.22-10.32-5-7.45-9.4s6.47-8.61,12.11-9.76C1135.2,870.64,1139.35,871.82,1142.83,869.74Z" style="fill:#47afc2;"/><path d="M663.75,877.27c-6.19.37-9.56-2.2-13.43-3.09-2.63-.6-2.56-3.9-1.68-6,1.92-4.54,3.26-10.6,6.84-12.87,5.31-3.37,6.28-8.7,9.11-13.06a83.08,83.08,0,0,1,9-11.56c3.52-3.78,7.84-1.67,11.63-2.72,4.74-1.31,5,4.38,7.13,7.57,5.9,8.87,3.08,15.88-2.51,23.15a29.37,29.37,0,0,0-4.12,7.85c-1.82,5-5.66,7.4-10.48,8A72,72,0,0,0,663.75,877.27Z" style="fill:#47afc2;"/><path d="M908.31,760.74c-5.81-1.64-12.1-2.17-17.79-5.16-3.42-1.8-3.77-3.66-2.48-7.16,3.1-8.45,9.59-13.48,17.19-16.89,5.65-2.54,12.28-2.57,18-5.48a1.27,1.27,0,0,1,1-.15c7.24,4,16.51,2.42,23,8.72,3,2.93,3.7,5.75,1.14,8.58-5.87,6.47-11.06,14-21.84,12.89-3.64-.37-7.59,1.89-11.32,3.14C913,760,911,761.3,908.31,760.74Z" style="fill:#47afc2;"/><path d="M1184.7,1119.4c-1.89-7.24-4.8-14.42-1.42-22,3.24-1.57,6.34-3.33,8.51-6.35l2.66-3.64a11.8,11.8,0,0,0,6.85-1.68l.31.35.55,4.36c5.81,5.21,8.4,13.18,15.32,17.55,1.71,1.08,2.42,3.82,3.45,5.87,1.34,2.68,2.77,4.86,5.69,6.52,5,2.86,5.27,5.42,2.55,10.86-4.57.68-6.43,5.59-10.65,6.81l-4.27,1.52-3.25-.42-3.68.1c-8,.22-10.06-6.16-11.12-11.67-.89-4.66-2.66-6.2-6.8-6.65A23.6,23.6,0,0,1,1184.7,1119.4Z" style="fill:#4ab6ca;"/><path d="M1055.25,806.47c-10.75-3.49-21.76-5.33-28.58-15.11-3.25-4.66-2.57-8.73,2.72-11.24,3.75-1.78,7-3.1,7.11-8.2,0-2.5,2.87-2.13,4.85-1.9,3.78.44,0,2,.4,3.19.74,2,2,4.32,3.78,4,5.18-1,10.39.77,15.58-.93a22.65,22.65,0,0,1,25.58,8.79c1.79,2.75,1.87,5.17-1.17,6.62-5.87,2.79-10.41,8.42-17.51,8.52-2.71,0-3.9,2.31-5.94,3.25C1059.68,804.53,1057.26,805.58,1055.25,806.47Z" style="fill:#47afc2;"/><path d="M401.06,1150c1.27,4.35.07,9.35.2,14.32a6.19,6.19,0,0,1-3.55,5.64c-2.64,1.16-4.38-.95-6-2.57-5.68-5.76-10.14-12.56-16.18-18.1-5.16-4.73-5.43-10.61-1.78-17.16,4.34-7.77,7.61-16.16,7.92-25.3.1-2.86,1.57-5.06,3-7.29a6.88,6.88,0,0,1,5.9-3.25c3.33,0,3.11,3,3.57,5.12C397.61,1117.24,401.93,1133,401.06,1150Zm-13.89-6-.55-1.62c-.53.25-1.21.36-1.57.77a.83.83,0,0,0,.51,1.45C386.06,1144.67,386.63,1144.21,387.17,1144Z" style="fill:#47afc2;"/><path d="M392,979.29c2.33-7.13.9-13.67,7.88-18.29,5.43-3.59,8.38-10.85,14-15.11,2.5-1.91,4.78-4.76,8.39-1.83,1.89,1.54,3.58,1,5.23-.64,1.41-1.41,3-1.12,4.39.2s.87,3,.11,4.54c-4.4,8.87-6.81,18.34-8.54,28a6.79,6.79,0,0,1-1.07,2.76c-4.41,6-6.7,12.85-8.69,20-1.52,5.45-5.21,7-8.52,4.09C397.64,996.41,397,986.19,392,979.29Z" style="fill:#47afc2;"/><path d="M623,799.31c-1,3.3-1.59,7.33-4.6,10.28-5.61,5.49-12,9.39-20.15,9.49s-16.21.57-22.91,6.61c-3,2.68-7,2.31-9.9-.86-2.23-2.41-2.22-10.62-.19-13,4.66-5.43,10.77-9,17.19-11.64,8.14-3.33,14.48-10.57,24-11,.56,0,1.08-.72,1.63-1.1,9-6.32,9.56-6.18,13,3.94C621.75,794.27,622.26,796.55,623,799.31Z" style="fill:#47afc2;"/><path d="M1352.81,1262.32a22.44,22.44,0,0,1,.16,4.71c-1.18,7.2-5.81,9.12-11,4-5-4.87-11.39-7.83-16.22-13-4.26-4.55-7.24-9.34-8.59-15.38-1.3-5.81-.79-11.9-3.22-17.57-1.23-2.88.67-5.81,1.73-8.61.88-2.3,2.51-3.08,4.7-2.17,3.87,1.6,10.41-.91,10.48,6.67,9.79,9,14.65,21,20.48,32.47A12.73,12.73,0,0,1,1352.81,1262.32Z" style="fill:#47afc2;"/><path d="M326.45,1343.08c2.15-.47,3.44-.79,4.75-1a3.31,3.31,0,0,1,3.57,1.11,2.54,2.54,0,0,1-.63,3.57c-4.55,2.56-2.71,5-1.09,8.69a129.64,129.64,0,0,1,6.73,21.68c1.23,5.15-.09,10.51-1.61,15.44-1.32,4.29-6.23,5.89-10.19,3.44-3-1.85-5.63-1.32-8.56-.84-5,.83-7.64-1.4-5.74-6,1.21-2.93.9-3.5-1.2-5.28-7.64-6.46-8.48-11.54-2.39-19.21,2.94-3.71,2.81-8,4.45-12C318.14,1344.1,317.88,1344,326.45,1343.08Z" style="fill:#47afc2;"/><path d="M321.94,1254c-1.29,4.63,0,8.11,1,11.6,1.1,3.85-.92,6.49-3.59,8.55-2.88,2.23-5.37.36-8.11-1.13-6.45-3.53-10.75-9.49-16.33-14-5-4.07-5.63-11.14-4.29-17.42,1.66-7.72,4.21-15.25,6.41-22.86.63-2.19,2.17-3,4.46-3.1,4.48-.17,8.32,1.81,9.85,5.51C315.79,1232.07,321.08,1242.79,321.94,1254Z" style="fill:#47afc2;"/><path d="M978.44,875.53c-.62,2.61-2.72,4.11-5.21,5.25s-5.75,1.91-1.62,5.08a3.83,3.83,0,0,0,1.21.39c-.64.07-1.28.18-1.93.22-4.75.27-6.94-6.12-11.34-5.1-4,.93-5.65,8.26-9.93,7-4.74-1.35-4.09,6.07-9.66,3.48-6.16-2.86-11.41-6.64-16.87-10.35-2-1.35-2.77-3.71-1.21-5.07,3.89-3.39,2.79-7.73,3.36-11.87.86-6.27,2.94-7,8.52-3,3.51,2.48,6.77,1.47,10.3.07,7.55-3,15.35-3.74,23.22-1.37C971.92,861.66,978.56,870.78,978.44,875.53Z" style="fill:#47afc2;"/><path d="M817.54,843.65c5.58-4.36,7.33-12.48,15.09-14.82a1.86,1.86,0,0,0,1-1.54c-1.84-8.06,3-6.38,8-6.15,6.48.31,13.11,1,19.54-.89,4-1.18,7.49,0,9.68,3.24,2.52,3.7.16,6.78-2.28,9.79-3.55,4.38-7.51,8.66-10,13.63-3.13,6.29-8.73,7-14.12,7.36-4.76.29-9.53-2.31-14.48.33-1.83,1-3.62-1.07-5.23-2.24C821.71,850.16,820,846.91,817.54,843.65Z" style="fill:#47afc2;"/><path d="M485.85,1109.24c2.42,7.61,1.34,16,2.22,24.14.63,5.92-1.46,11.64.23,17.68.8,2.86-1.19,7.1-4.92,9.06-3.4,1.79-5.38-.86-8-2.07-8.41-3.83-12.39-11.74-17.59-18.46-3.16-4.08-2.15-7.74,2.28-10.68,6.05-4,10.31-8.88,10.52-16.69.14-5.22,4.06-8.89,6.86-12.93.72-1,3.36-1.45,3.33-.7C480.6,1103.14,489.18,1102.92,485.85,1109.24Z" style="fill:#47afc2;"/><path d="M255.82,1561.47c.91-9.86,4.16-19,5.12-28.58.52-5.24,5-6.37,9.84-3.45,5.3,3.2,7.16,8.72,8.32,14.15a166.36,166.36,0,0,0,6.57,22.57c2.32,6.34-1.19,13.61-7.38,17.14-1.7,1-3.83,1.57-4.2.08-2.22-8.88-16.34,3.21-16.3-9.53C257.81,1569.65,256.49,1565.44,255.82,1561.47Z" style="fill:#47afc2;"/><path d="M1358.86,1333.9c3.28,0,6.13,0,7,4.1.53,2.46,3,3.34,4.88,4.69,9.3,6.57,13.21,17,10.39,27.67-1.22,4.62-3.59,8.59-8.21,10.67-5,2.27-7.86,1.84-9.67-3.2-3.24-9-9.32-16.11-15-23.34-4-5-3.19-9-.24-13.29C1350.61,1337.44,1353.69,1333.9,1358.86,1333.9Z" style="fill:#47afc2;"/><path d="M769.08,926.81c-4.59-.69-8.57-.92-12.34-1.94-5.85-1.58-7.55-6.32-3.89-11.28,5-6.81,9.3-14.29,16.36-19.48a28.84,28.84,0,0,1,11.65-5.19c5.2-1,9.43,1.83,13.19,8.27,2.31,3.94,1.06,6.91-2.16,9.48-1,.84-2.23,1.63-2.31,3.05-.62,10.92-11.14,11.51-17.35,16.57C771.36,927,769.69,926.73,769.08,926.81Z" style="fill:#47afc2;"/><path d="M310.11,1566.25a37.25,37.25,0,0,1,8.15-23c3.48-4.31,5.85-4,7.52,1,1.85,5.52,2.26,11.75,9.35,13.71,1.31.36,1.87,2,1.89,3.3.12,5.56,3.55,10,5.12,15,2.55,8.2,1.61,11.2-4.86,16.21-2.74,2.12-4.54,2.27-6.66-.22-1.5-1.77-3-3.59-4.37-5.43a18.66,18.66,0,0,0-7.48-6.29C310.24,1576.83,309.72,1575.69,310.11,1566.25Z" style="fill:#47afc2;"/><path d="M1349.93,1503.65c-4.05-5.8-7.07-9.73-9.65-13.94-2.15-3.5-4.36-6.34-8.8-7.19-4.17-.81-6-4-5.42-8.18.92-6.42.84-13.39,7.93-17a5.16,5.16,0,0,0,1.48-1.26c5.43-6.3,8.5-6,11.44,1.62,2,5.17,4,9.72,8,14.14,5.86,6.52,6.63,15.62,4.17,24.17C1357.94,1500,1352.09,1498.87,1349.93,1503.65Z" style="fill:#47afc2;"/><path d="M1378.08,1552.21a7.22,7.22,0,0,1,.24,5c-2.24,5.92-.7,11.13,3.13,15.82,4.79,5.87,4.2,12.35,2.13,18.9-1.51,4.77-4.68,5.44-8.75,2-3.72-3.19-7.72-6-11.25-9.48-8.13-8.13-10.13-10-7.35-19.68,2.36-8.18,6.8-15.89,16.13-18.87,5.48-1.75,5.63-1.79,5.72,4.51C1378.08,1551,1378.08,1551.63,1378.08,1552.21Z" style="fill:#47afc2;"/><path d="M1301.42,1140.86c-8.29-.3-14.49-8.71-13.18-16.43a45.36,45.36,0,0,1,1.71-5.66,17.53,17.53,0,0,1,21.4-12.25c4.83,1.15,6.08,3.8,4,8.58-2.74,6.38-2.58,6.74,4.06,8.47,1.27.33,2.67.22,3.92.63,3.19,1,4.2,3.28,2.41,6.12-1.2,1.91-2.74,4.3-4.65,5C1314.31,1137.58,1307.26,1139.25,1301.42,1140.86Z" style="fill:#47afc2;"/><path d="M1275.53,1001.35c-2.86,3.22-3.52,8.65-9.12,9.14-6,.52-11.74.41-16.94-3.3-5.5-3.92-8-9.68-8.79-15.83-1.51-11.08,1.2-21.49,6.24-31.49,2.21-4.39,4.89-4.07,7.95-2.07a20.49,20.49,0,0,1,9.27,15.59c-1.17-.38-2.63-.44-3.45-1.2-3.84-3.58-4.66-1.43-4.78,2.33,0,.94,0,1.88,0,2.82l-.15.15c-4.66.43-7.67,4.93-12.79,4.34,3.52,7.46,3.48,7.51,9.14,11.66,1.71,1.26,2.29,2.5,2.56,4.76.54,4.42,6.44,8.16,7.74,5.94C1266.13,997.86,1271.09,1001.65,1275.53,1001.35Z" style="fill:#47afc2;"/><path d="M1255.93,977.33c0-.94-.07-1.88,0-2.82.12-3.76.94-5.91,4.78-2.33.81.76,2.28.82,3.45,1.2a.53.53,0,0,1,.08.89c0,2.22-.36,4.49,0,6.64s1.92,2.11,3.46.82a6.75,6.75,0,0,1,4.31,1.63c2,2,3.92,5.91,6.52,4.75,7.28-3.26,4.43,2.58,5.29,5.14l-.06.09c-4.7,2.06-9.79,1.72-15.36,1.45,2.11,3.7,7.53,1.51,7.34,6.32l-.19.23c-4.44.3-9.39-3.49-13.1,2.84-1.3,2.22-7.2-1.52-7.74-5.94-.28-2.27-.85-3.51-2.56-4.76-5.65-4.15-5.61-4.21-9.14-11.66,5.12.59,8.13-3.91,12.79-4.34.4.93.76,1.07.9.39C1256.71,977.74,1256.2,977.51,1255.93,977.33Zm3.36,18.9-.72,1.67c.56.24,1.24.79,1.64.63s.52-1,.76-1.58Z" style="fill:#4ab6ca;"/><path d="M297,1456.13c3,0,5.09,1,6.47,3a112.34,112.34,0,0,0,13.58,15.68c2,2,2.23,4.07.78,6.23-1.27,1.89-3.14,1.84-5.28,1.25-5.06-1.39-10.2-2.48-15.3-3.71s-8-5.31-8.85-11.31c-.74-5.34,3.11-7.62,6.36-10.33A5.92,5.92,0,0,1,297,1456.13Z" style="fill:#47afc2;"/><path d="M1184.7,1119.4a23.6,23.6,0,0,0,4.72,1.53c4.14.45,5.9,2,6.8,6.65,1.06,5.51,3.15,11.9,11.12,11.67-5,4.81-16.58,2.57-16.66-3.77C1190.59,1128.93,1187.1,1124.58,1184.7,1119.4Z" style="fill:#47afc2;"/><path d="M1283.79,993.26c-.86-2.56,2-8.4-5.29-5.14-2.6,1.16-4.55-2.78-6.52-4.75,5.54-2.67,14.12-1.28,16.39,3.1S1287,992.1,1283.79,993.26Z" style="fill:#47afc2;"/><path d="M1218.54,1138c4.22-1.22,6.09-6.13,10.65-6.81-.55,5.42-3.73,8.19-9,8.72C1219.17,1140.07,1218.56,1139.17,1218.54,1138Z" style="fill:#47afc2;"/><path d="M1275.72,1001.12c.18-4.81-5.23-2.62-7.34-6.32,5.57.28,10.66.61,15.36-1.45C1282.35,997.28,1278.21,998.35,1275.72,1001.12Z" style="fill:#47afc2;"/><path d="M1191.8,1091.06c-2.17,3-5.28,4.77-8.51,6.35C1183.48,1090.72,1183.48,1090.72,1191.8,1091.06Z" style="fill:#47afc2;"/><path d="M1267.67,981.74c-1.54,1.29-3.09,1.33-3.46-.82s0-4.42,0-6.64C1267.1,976,1267.23,978.92,1267.67,981.74Z" style="fill:#47afc2;"/><path d="M1201.31,1085.73a11.8,11.8,0,0,1-6.85,1.68C1195.84,1083.14,1198.14,1082.65,1201.31,1085.73Z" style="fill:#47afc2;"/><path d="M1202.18,1090.44l-.55-4.36c1.4.06,2.7.49,2.88,2S1203.77,1090.48,1202.18,1090.44Z" style="fill:#47afc2;"/><path d="M1295.55,1546.47c-.23,1-.51,2-1.8,1.54a1.9,1.9,0,0,1-.86-1.54c.06-1,.73-1.88,1.87-1.63C1295.12,1544.93,1295.29,1545.9,1295.55,1546.47Z" style="fill:#163948;"/><path d="M518.68,929.33a1.67,1.67,0,0,1-1.71,1.8,1.77,1.77,0,0,1-2-1.51c-.15-1.11.6-1.72,1.67-1.74A1.85,1.85,0,0,1,518.68,929.33Z" style="fill:#f4b902;"/><path d="M1143.15,929.88c-.48.28-1,.85-1.44.77a1.17,1.17,0,0,1-.77-2,1.6,1.6,0,0,1,1.54-.35C1142.88,928.57,1142.95,929.34,1143.15,929.88Z" style="fill:#f4b902;"/><path d="M1211,1139.15l3.25.42c-.26,1.33-.84,2.71-2.34,2.5C1210.2,1141.82,1210.41,1140.42,1211,1139.15Z" style="fill:#47afc2;"/><path d="M687.49,1003c.39-.33,1-1,1.15-.94,1.14.78.29,1.24-.37,1.71C688,1003.54,687.74,1003.28,687.49,1003Z" style="fill:#f4b902;"/><path d="M1313.9,1645.48a3.26,3.26,0,0,1,.36-.86c.09-.12.6-.09.6-.08.12.69-.27.95-1.1.77Z" style="fill:#163948;"/><path d="M1516.19,1143.76c9.81.86,16.61,5.74,21.36,14.38,2.28,4.15,2.82,9,7,12.65s.44,11.67-5.34,12.9a84.08,84.08,0,0,1-39.46-.64c-9.61-2.55-10.31-2.25-14.35,6.57-2.76,6-5.82,11.91-8.54,18a15.2,15.2,0,0,1-8.23,8.27c-3.93,1.62-7.32,1.49-10.91-1.78-4.26-3.89-7.34-8.62-10.63-13.12-2.61-3.57-1.85-8.17.27-12.29,2.73-5.32,4.88-10.88,8.42-15.82,4.53-6.31,4.08-10.49-.75-16.91-1.2-1.59-2.9-3.12-3.34-4.92-1.23-5.12-5.11-6.46-9.39-7.69-4.68-1.35-10.73-1.82-6.64-9.54.88-1.65-.89-3.19-2.17-4.11-4.42-3.21-2.55-6.72-1.09-10.57,1.77-4.69,5.68-3.64,8.34-2.63,4.41,1.67,8.49-1,12.72.22,7.33,2.09,14.73,3.64,20.94,8.73,4.6,3.78,7.94,3.69,11-1.22,7.64-12.24,20.81-19.35,28.19-31.86,4-6.81,12.52-5.8,15.79,1.4,4.06,9,6.93,17.82-1,26.83-3.87,4.38-5.86,10.37-9.85,14.93A9.06,9.06,0,0,0,1516.19,1143.76Z" style="fill:#47afc2;"/><path d="M855.92,1919.48c-.1-.82.16-1.18.77-1,0,0,0,.53-.09.62a2.62,2.62,0,0,1-.84.27Z" style="fill:#163948;"/><path d="M722.37,1376.9q-.5,5.46-1,10.9c.61,2.33,1.3,4.64.07,7-.21,3-.41,6.08-.62,9.11,1.59,3.18,2,6.23-.86,9,0,1.67,0,3.34,0,5,1.67,1,1.7,2,0,3.07-1.7,6.85.49,14.19-2.65,20.85.2,2.85,1.42,6-2.16,7.76-.57,2.12-1.15,4.23-1.71,6.34-.57,4.26-3.42,7-6.35,9.74a12.07,12.07,0,0,1-.93,1.08c-2.24,6.45-6.63,5-11.16,3a3.57,3.57,0,0,1-.76,1.08c-.52,1.72-1.46,2.87-3.47,2.53-2.25,3.25-4.9,6-8.75,7.39-4.36,4.72-10.2,5.19-16.06,5.58a5.26,5.26,0,0,1-4.37.27c-16.76,4.85-31.33-4.61-38.15-17.39-2.3-4.29-1.2-9.05-3.47-13.1-.65-1.46-1.31-2.92-2-4.37-1.66-.87-2.64-2-1.61-4l-.63-10.81c-3.19-2.09-2.75-4.06.19-5.94,1.8-2.35,1.56-4.87.58-7.43-4.06-3-3.18-7.73-4-11.86-.82-3.71-2.84-7.13-2.74-11.07-.24-4.89,1.25-9.79-.33-14.7a3.25,3.25,0,0,1,2-4c.21-1.62.42-3.24.62-4.86-4-3.28.28-5.2,1.26-7.66-1.53-4-.95-8.22-1.24-12.34-2.49-1-2.47-3.26-1.84-5s.91-3.48,1.35-5.22a12.62,12.62,0,0,1,2.19-4.91c-.15-1.68-.29-3.37-.44-5-3.43-4.78.21-8.88,1.23-13.23,1.32-7.22,3.84-13.82,9.5-18.84a2.86,2.86,0,0,1,2.33-3.65l5.81-10.27c2.56-5.46,6.79-8,12.84-7.33,1.31-2,2.75-3.76,5.31-4.09,4.32-3.7,8.92-1.51,13.46-.65l2.55-1.83c3.47-5.39,8.76-6.19,14.5-5.7,1.25.1,3.46.59,3.52,1.1.84,7.05,9.39,5.83,11.72,11.13l2.8,1.56c3-.62,5.21.61,6.88,3,4.54,4,9.75,7.45,12.32,13.29.29.16.83.3.84.47.83,13.94,4.52,27.59,4.28,41.64,0,2.5-.65,4.56-3.33,5.39-1.36,5.18,3.08,9.72,1.6,14.9,2.3.8,2.17,1.87.36,3.13-.06,1.64-.13,3.27-.2,4.9C723.85,1373.28,723.76,1375,722.37,1376.9Z" style="fill:#163948;"/><path d="M1099.62,1422.82c-.13,9-2.73,17.42-5.38,26-1.76,5.68-5.59,9.65-8.6,14.3-1.15,1.78-3.41,4-5.78,2.93-5.25-2.45-7.17,1.75-9.62,4.41-9.19,10-20.22,11.88-32.69,7.89-5.15-1.65-11.24.36-15.58-4.5-5.46-6.13-14.38-9-16.7-18.14a6.69,6.69,0,0,0-2.23-3.15c-9-7.45-8.39-16.92-5.87-26.86.32-1.25.84-2.88.32-3.83-5.39-9.93-.13-21.17-4-31.24,2.78-16.65-.13-33.64,2.89-50.26.42-2.32.92-4.53.46-6.86-4.59-23.38,11.37-43.88,30.3-49.07,4.59-1.26,7.06-6.44,12.28-6,10.14.9,20.85-2.47,30.23,4,5.68.17,8.09,6.51,13.92,7.09,3.5.35,7.95,1.83,6.73,7.73-.43,2.09,2.27,2.95,4.06,3.82,2.72,1.32,3.92,3.3,3.2,6.46-.77,3.4.17,6.83-.89,10.46-2.2,7.52-1.69,7.64,4.17,14.28.86,1,1.36,2.29,2.79,2.65-.16,2.91.55,5.87-.53,8.71-2.79-.13-5.42,2.46-4.68,3.81,3,5.58,1.42,12.26,4.82,17.58.67,5.74-1.52,11.22-1.5,16.89-5.73,5.64-5.73,5.64.64,13l-1,7c-1.53,0-2.66.81-2.6,2.3C1099.13,1410.4,1097.43,1416.7,1099.62,1422.82Zm-91.68-74.66c-.5.31-1.26.52-1.41.95s.17,1.44.52,1.57a1.32,1.32,0,0,0,1.9-1.27C1009,1349,1008.29,1348.58,1007.93,1348.16Z" style="fill:#163948;"/><path d="M387.16,1144c-.54.22-1.11.67-1.6.6a.83.83,0,0,1-.51-1.45c.35-.4,1-.52,1.57-.77Z" style="fill:#e66165;"/><path d="M1259.3,996.23l1.68.72c-.24.56-.36,1.43-.76,1.58s-1.08-.39-1.64-.63Z" style="fill:#47afc2;"/><path d="M1255.93,977.33c.26.18.78.41.75.53-.14.69-.5.55-.9-.39Z" style="fill:#47afc2;"/><path d="M1152.69,1379.21c-2.71-8.22-5.21-16.24-1.15-24.92,1-2.09,1.39-6.51-3.88-5.69l-1.05-3.69c2-1.17,3-2.39,3-3.68s-.83-2.36-2.57-3.62c-.27-2.95-3.92-5-2.26-8.48,2.73-1.63,6.43-3.8,4.39-7-2.19-3.47-1.51-6.81-2.12-10.22-.77-4.24-.28-9.05-4.33-12.18-.8-2.15-1.65-4.3-1.28-6.68,4-4,.27-6.35-1.9-9-.09-1.68-.19-3.37-.29-5.06,2.07-3.43,1.24-5.86-2.52-7.29l-1.78-2.43c-.83-3.95-1.7-7.88-6-9.73l-4.67-7.92c2.14-2.6,1.58-4.68-1.23-6.32a9.53,9.53,0,0,1-1.14-.87,8.28,8.28,0,0,0-4.9-4.89l-1.86-2.42c-3.09-14.82-14.35-18.73-27.27-20.43l-8.24-4.22c-6.82-6.9-15.58-5.34-23.95-5.51-4.24-1.27-8.1-.33-11.71,2.05-16-3.65-30.55-.45-43.81,9.1-2.62,1.89-6,3.18-5.05,7.46-2.61,3.67-6.82,5.2-10.4,7.52-2.58,1.67-5.87,3.32-6.09,6.17-.44,5.7-3.78,8.8-7.9,11.69-2,1.39-2.86,3.6-4.1,5.56-8.3,13.12-6.25,28.18-7.77,42.51-1.23,11.57-.06,23.53-2.48,34.78-2,9.09-1.25,18.19-1.75,27-.72,12.85-.28,26.06.28,39.13.74,17.4.81,34.8,3.5,52.06-2.36,1.86-2.44,3.67.11,5.44q.9,2.25,1.81,4.5c-.46,5.66,1.57,10.63,4.26,15.43.64,1.48,1.29,3,1.93,4.46,0,5.53,0,11.1,4.53,15.3l5.28,6.79c1,4.91,2.68,9.78,6.16,13.23,10.18,10.1,22.22,16.31,37.1,15.43l12.17,2.61c2.58,2.07,5.1,2.44,7.49-.31l7.16.13c3.49,2.66,7.1,2.1,10.76.37l4.52-1.47c1.2,1,2.41,1.25,3.65,0,3.29,1.7,5.77-.71,8.53-1.7,1.76,1.83,3.63,2.43,6.14,1.21a121,121,0,0,1,14-6.22c11-3.69,18.8-10.56,23.36-21.19l3.19-2.87c4.94.16,5.18-3.17,5.07-6.79,2.79-1.61,1.32-6.07,4.81-7.22,6.63-6.53,10.48-14.23,10.1-23.75.36-1.5.73-3,1.09-4.5,5.35-1.5,2.2-7,4.56-9.82,4.57-5.56,2.32-10.4-1.56-15.09.14-1.69.28-3.4.42-5.1,5.19-4.52,4.78-11.25,6.75-17l-1-.2-1-8.75c1.12-6.27,2.39-12.51,3.29-18.82A15.48,15.48,0,0,0,1152.69,1379.21Zm-54.22-31.76c3,5.58,1.42,12.27,4.82,17.59.68,5.73-1.52,11.21-1.5,16.88-2.79,2.75-4.22,4.15-4.22,5.72s1.59,3.48,4.86,7.24l-1,7c-1.54,0-2.66.81-2.6,2.3.26,6.21-1.44,12.5.75,18.63-.13,9-2.74,17.42-5.38,26-1.76,5.68-5.59,9.65-8.6,14.3-1.14,1.78-3.4,4-5.77,2.94-5.26-2.45-7.17,1.74-9.62,4.41-9.19,10-20.23,11.88-32.69,7.89-5.14-1.64-11.24.37-15.58-4.5-5.46-6.12-14.38-9-16.7-18.14a6.67,6.67,0,0,0-2.23-3.15c-9-7.45-8.39-16.92-5.87-26.86.32-1.24.84-2.88.32-3.83-5.38-9.93-.13-21.17-4-31.24,2.79-16.66-.12-33.64,2.89-50.26.43-2.32.92-4.53.46-6.86-4.58-23.37,11.37-43.88,30.31-49.07,4.59-1.26,7.06-6.45,12.28-6,10.14.89,20.83-2.47,30.23,4,5.69.17,8.09,6.51,13.93,7.09,3.5.35,8,1.83,6.73,7.73-.44,2.08,2.27,2.94,4.06,3.82,2.71,1.32,3.92,3.29,3.2,6.45-.77,3.4.18,6.83-.88,10.46-2.2,7.52-1.69,7.64,4.17,14.28.86,1,1.35,2.29,2.79,2.65-.15,2.9.55,5.86-.53,8.71C1100.36,1343.51,1097.74,1346.1,1098.47,1347.45Z" style="fill:#fff;"/><path d="M1007.93,1348.16c-.5.31-1.26.52-1.41.95s.17,1.44.52,1.57a1.32,1.32,0,0,0,1.9-1.27C1009,1349,1008.29,1348.58,1007.93,1348.16Z" style="fill:#fff;"/></g></g></g></svg>