<svg xmlns="http://www.w3.org/2000/svg" viewBox="0 0 330.1 301.05"><title>Delete confirmation_magic</title><g id="Layer_2" data-name="Layer 2"><g id="Layer_1-2" data-name="Layer 1"><path d="M119.51,299.46c.7.34,5.79,1.24,5.79,1.24l10.83-.62h34.5c.5,0,13.1-.61,13.1-.61l5.57-1s9.2-10.5,10-11.17-6.67-37.17-6.67-37.17l-13.56-17L151,240.8l-27.57-6.18-8.92,3.81s-2.3,26-1.6,26,2.13,29.67,2.13,29.67Z" style="fill:#f4f5f5;"/><path d="M123.22,295.87l-.41.08c.41,1.43-1.07,2.33-1,3.67s-1.48,1.13-1.59,1.05c-1.45-1.1-3.26.47-4.64-.69-1.28,1.09-2.76-.2-4.19.39-1,.42-2.27-.19-3.48-.68.25.77,0,1.33-.86,1-1.55-.51-3.2.22-4.62-.24-1.83-.59-3.52.3-5.27,0-1.52-.28-2.92.63-4.49.4-1.37-.21-2.94.87-4.11-.68-1.24.91-2.17-1.32-3.41-.33-.28-.88-1.71-.08-1.83-1.32s-1.28.22-1.69-.73c.2-.46,1.56-1.23-.48-1.69,1.47-.62,1.11-1.4.47-2.1-.8-.87-1.6-1.66-.44-2.81.06-.06.13-.22.11-.24-1.15-1.25.14-2.56-.11-3.81A27.63,27.63,0,0,1,81,283c-.08-1.44,0-2.88,0-4.32,0-.62-.08-1.24-.13-2a11.37,11.37,0,0,1-3.25,2.17c-2.76,1.67-5.59,3.18-8.25,5.06a16.33,16.33,0,0,1-4,1.85c-.76.25-1.78.2-2,1.31-2.71.12-4.12,3.19-7,3.1-.24,0-.53.37-.75.62-.91,1-2.29,1.21-3.32,2-.56.46-1.49.47-1.67,1.4-1-.41-1.33.68-2,.8-2,.37-3.74,1.64-5.82,1.45-.74-.07-2.08.91-2-1,0-.33-.26,0-.4,0-.3,0-.8-.1-.76-.23.41-1.45-.91-1.6-1.57-2.25-.05-.05.24-.47.38-.72s.47-.29.16-.55c-.7-.61-1.29-1.23-.46-2.16-1.3-1-.63-2.53-.82-3.81-.14-1-1.19-1.66-.85-2.75s-.13-2,0-3.06a2.76,2.76,0,0,0-.52-2.16c-.37-.53-.1-1.34-.08-1.93a14.07,14.07,0,0,1,.2-3.37,7.06,7.06,0,0,0-.33-2.58,55.07,55.07,0,0,1-1.06-5.78c-.11-2.09-1.15-4.14-.29-6.27,0,0,.05-.12,0-.13-1.17-.75-.23-2-.7-3a4.58,4.58,0,0,1-.19-2.39c.21-1.76-1.17-3.51,0-5.25a.44.44,0,0,0,0-.41c-1.41-1.36-.64-3.13-.76-4.69-.09-1.18-.89-2.48.08-3.68.06-.07-.06-.34-.16-.47-.84-1.18-.52-2.54-.73-3.81-.31-1.91.73-3.91-.49-5.69l-.16-.21c1.5-1.14-.69-2.74.5-3.92-.88-1.3-.58-2.87-1-4.29a3.49,3.49,0,0,1,.12-3c.59-.79,0-1.1-.15-1.67-.41-1.93-1-3.77-.59-5.91.41-1.93,0-4.05-.21-6.08s-.43-4.33-.73-6.46c-.25-1.75-.39-3.52-.47-5.25a50.49,50.49,0,0,0-.15-6c-.1-.59,1-1.3-.17-1.79,1.91-1-.3-1.29-.4-2a3.51,3.51,0,0,1,.63-2.25,4.91,4.91,0,0,1,2.89-2.8l.13-.06c1-.42.14,1.23.76.75.43-.33.65-.81,1.33-.81.49,0,.87-.57,1.44-.49,1.58.51,3-.43,4.61-.38a16.11,16.11,0,0,0,4.46-.34c.81-.21,1.77.27,2.43-.5.76.81,1.61.1,2.19-.14a21.08,21.08,0,0,1,2.41-.66,1.37,1.37,0,0,1,1.79,1.23c0,.19,0,.52.06.55,2,.66,1.43,2.64,1.89,4a3.79,3.79,0,0,1,0,2.46c-.66,1.28,0,2.45.13,3.57.29,1.85.09,3.76.38,5.49.38,2.23,0,4.58.92,6.72a.83.83,0,0,1,.06.42c-.38,2.76.38,5.5.35,8.19s1.1,5,.84,7.59c-.11,1.11.63,2.08.63,3.29,0,3.07.4,6.14.54,9.22a54.85,54.85,0,0,0,1.06,8.47,11.9,11.9,0,0,1,.16,3.61,9.39,9.39,0,0,0,.62,4.27c.3.81-.19,1.29-.24,1.89-.13,1.66.51,3.2.4,4.83,0,.59.42.45.67.23a30.85,30.85,0,0,1,4-2.94c2.38-1.54,4.4-3.63,6.81-5.19s4.55-4,7.2-5.47c2.12-1.2,3.31-3.34,4.89-5.06.27-.29.47-.57.87-.63,1.38,1,2.37,2.63,4.19,3.08.69,1.31,2,1.7,3.26,2.1.43.14,1,.8,1.53.15a8.6,8.6,0,0,0,1.63.47c1.86.16,3.66.62,5.59.67a21.85,21.85,0,0,0,7.47-1.52c.23-.07.51-.14.44-.44-.23-.93.52-.74.83-.6.91.44,1.27-.21,1.69-.73a6.42,6.42,0,0,1,2.85-2.36,6.46,6.46,0,0,1,2,3.47,14.66,14.66,0,0,0,1.1,3c.46,1.07,1.79,1.49,2.16,2.45.53,1.38,1.79,1.83,2.66,2.75.35.79-.3,1.83.62,2.48-1.16,1-.16,2.32-.63,3.37a1,1,0,0,0,.16,1.16c.52.55.5.85-.13,1.3a1.84,1.84,0,0,0-.57,1.93c.14.7.91.53,1.47.59a2,2,0,0,1,.35.09c.07.45-.33.61-.43.9-.36,1-1.51,1.51-1.36,2.83.1.93.57,1.76.28,2.88-.37,1.4,1,3-.36,4.46-.22.23.17.47.12.61-.29.88.78,1.63.34,2.38s-.44,1.38.44,1.82c-.67.53-.76.82-.76,1.93,0,4.44,0,8.89-.26,13.33,0,.45-.65,1.59.74,1.52,0,0,.15.44.09.48-1.45,1.09-.33,2.68-.79,4-.26.72.86,1.12.53,1.8a1.65,1.65,0,0,0,.72,2.34.11.11,0,0,0-.13.12Z" style="fill:#153747;"/><path d="M279.43,247.86c.12-.06.34-.2.36-.17a3.16,3.16,0,0,0,2.92.93c.72-.07.52.24.59.58a9.11,9.11,0,0,1-.93,5.65c-1,2.19-1.49,4.57-2.28,6.84-.19.56-.08,1.38-.93,1.59-.13,0-.12.07-.08.2.3,1-.33,1.69-.66,2.53-.4,1-1.1,2-.91,3.22a.49.49,0,0,1-.15.38c-1.46,1.27-1.51,3.08-1.86,4.77,0,.13-.06.3-.15.37-1.16.84-1.4,2.12-1.63,3.39-.15.82-1.07,1.29-1.07,2.06a6.92,6.92,0,0,1-1.67,4.47.85.85,0,0,0-.08.69,2.25,2.25,0,0,1-.81,2.28c-.56.52-.5,1-.68,1.55-.36,1.09-.26,2.46-1.63,3-.05,0-.08.18-.06.27a3.38,3.38,0,0,1-.7,2.75,13.05,13.05,0,0,0-1.3,3.45c-.12.47-.22.67-.69.62a4.11,4.11,0,0,0-2.43.56c-1.89,1-3.93-.05-5.88.38-.61.14-1.4-.49-1.84.44-.49-.64-1.32-.38-1.92-.72-.15-.08-.34-.29-.43-.26-2.66,1.18-5.43.1-8.12.4-2.13.24-4.25,0-6.38,0-2.59.08-5.19.07-7.78,0-.5,0-1.63-.18-1.22-1.36a2.36,2.36,0,0,1-1.19-.81,50,50,0,0,1-3.38-5c-.14-.21,0-.56-.45-.57s-.34.31-.47.54c-.35.61-.47,1.29-1.18,1.78s-.4,1.56-.3,2.33-.06.8-.65.89c-1.18.17-2.19,1.34-3.56.57-.35-.2-.31.37-.49.55s-.19.39.1.55.74-.23.39.36c-.13.22-.45.35-.59.09-.42-.78-.5-.12-.88,0a7.19,7.19,0,0,1-2.63.32c-2.51,0-5-.07-7.54-.12-2.29,0-4.63,0-6.94.15-1.39.1-2.92-.52-4.18-.14s-2.15-.2-3.11-.73c-.39-.22-.52-.16-.34.27s-.17.68-.46.61c-.88-.24-1.91.26-2.55-.06-1.43-.71-2.71-.14-4,0-.26,0-.48.1-.61-.14-.31-.57.24-.26.39-.34.31-.16.09-.28,0-.4a.38.38,0,0,0-.61,0c-.31.28-.32.81-.78,1a1.21,1.21,0,0,1-.21-.94c.47-1.86-.23-3.67-.3-5.51a2.65,2.65,0,0,1,.1-1.43c.44-.92,1-1.9-.14-2.76-.16-.12-.3-.38-.12-.48,1.22-.68.19-1.87.65-2.76a3.25,3.25,0,0,0-.1-1.85,13.44,13.44,0,0,1,0-3.63c0-.44.17-.74-.18-1.1-.58-.59-.75-1.16.57-1.51-1.42,0-1.22-.57-.7-1.22.11-.14.3-.36.25-.45-.9-2.06.34-4.19-.28-6.33-.21-.73-.86-1.94.08-2.87.21-.21-.11-.53-.15-.8a3.17,3.17,0,0,1,.14-2.22c.65-1.15-.81-2.31-.13-3.51-.91-.22-.14-1.29-.85-1.68-.12-.06-.47-.9.45-.72a.31.31,0,0,0,.29-.54c-.39-.37-.12-.69-.07-1,.2-1.6-.37-3.24.24-4.81a.36.36,0,0,0-.06-.27c-.89-1.42-1.37-2.85-.19-4.38a.61.61,0,0,0-.21-.88c-.23-.14-.38-.45-.21-.6.88-.76.27-1.83.64-2.69a3,3,0,0,0,1.39-.57c1.14-.73,1.56-2,2.39-2.91.36-.41,1.81-.45.77-1.59-.12-.13.11-.24.23-.2,1,.3.88-.63,1.16-1.06.45-.69.21-1.67.53-2.26a22.78,22.78,0,0,1,1.48-2.59c.44-.6-.11-1.42.62-1.85.55.69.87,1.59,1.68,2a5.1,5.1,0,0,1,1.48,1.44c.52.64,1,1.39,2,.88a.82.82,0,0,1,.65.12c.23,1.81,2,1.48,3,1.89a14.87,14.87,0,0,0,6,.63,30.6,30.6,0,0,0,6.08-1.18c1.46.26,4.06-1,4.61-2.17l1.41-.46c.23,1.48,1.62,2.17,2.26,3.3,1,1.76,2.35,3.34,3.07,5.26a9.05,9.05,0,0,0,1.24,2c1.41,2,2.37,4.21,3.7,6.23.61.93,1.15,1.9,1.78,2.82a4,4,0,0,1,.94,3.25c-.08.29-.23.58.09.68,1.23.38,1.13,1.42,1.47,2.38a11.41,11.41,0,0,0,1.84,3.95,10,10,0,0,1,1.67,3,10.74,10.74,0,0,0,1.69,2.56c.7.91.55,2,1,2.88a38,38,0,0,0,2.29,4.69,41,41,0,0,1,2.92,6c.36.76,1.25,1.22,1.2,2.2a1.7,1.7,0,0,1-.18.93c.89-.27.95-.89,1-1.64s1.57-.92.39-1.84c0,0,0-.18,0-.28,1.17.14.38-.91.75-1.33a5.59,5.59,0,0,0,.67-2.09s0-.13,0-.14c1.15-.56.9-1.78,1.21-2.7.9-2.68,2.52-5.08,3.27-7.77.49-1.78,1-3.58,1.62-5.29s.91-3.33,1.93-4.86c.59-.89.71-2.32,1.18-3.47.73-1.78,1.41-3.59,2-5.41.23-.68,1.21-.13,1.09-.55-.42-1.51,1.67-2.07,1.2-3.55-.09-.29.31-.52.57-.55,1.56-.18,3.12-.61,4.7-.14,0,.44-.06.91.72.82a9.83,9.83,0,0,1,3.65.69C273.79,246.37,276.67,246.89,279.43,247.86Z" style="fill:#153747;"/><path d="M119.05,120.17c-.07-3.51.23-7-.15-10.53a14.13,14.13,0,0,1,.3-4.92c.6-2.3.31-4.7.4-7,.11-2.9.21-5.84.35-8.74.17-3.64.25-7.28.4-10.92.09-2.2.29-4.4.22-6.61a4.24,4.24,0,0,1,.86-2.65c.05-.08.11-.22.16-.22,2.21,0,3.52-2.11,5.82-2.36a11.26,11.26,0,0,0,4.22-1.56,2.25,2.25,0,0,1,2.45-.22c.16.11.38.33.64.14,2.36-1.69,5.17-1.12,7.76-1.65a18.44,18.44,0,0,1,4.49-.56c1.5.07,3-.37,4.56.25.57.23,2.08.64,3-.27a.67.67,0,0,1,.52-.17c2.5.55,5.09-.24,7.62.67,1.3.47,2.86.18,4.28.49s2.74,0,3.79,1.09c.09.09.28.22.31.2,1.38-1.15,2.63.05,3.82.35a55.86,55.86,0,0,1,6.63,2.43c.37.15,1.18.15.79,1-.05.12.06.21.32.23,1.74.14,2.39.85,2.38,2.74,0,1.43.22,2.86.14,4.26-.12,2,.22,3.88.16,5.83-.06,2.35.21,4.77.32,7.14.08,1.69.73,3.49-.07,5.2-.27.58.52.77.47,1.26-.19,2.12.3,4.22.06,6.35a15.75,15.75,0,0,0,.31,2.91,46.85,46.85,0,0,1,0,9.19c-.21,1.86.23,3.8.14,5.71-1.32-.38-2.72-.26-4-.76-2.36-.9-4.92,0-7.35-.84-1-.33-2.27-.22-3.25-.47-1.65-.43-3.32-.31-4.95-.7a13.15,13.15,0,0,0-5.42-.13c-1.06.19-2-.6-3.16-.42-.34.05-.68,1.13-1.15.2l0-.11v.13c-1.15.47-2.22-.66-3.43-.12-.35.16-.86-.1-1.31.25-.84.65-1-.7-1.73-.63-1.07.1-2.16.21-3.21.29-3.23.25-6.47.36-9.7.64a25.33,25.33,0,0,0-4.36.28c-3,.79-6.1,1.25-9.1,2.13C122.65,119.48,120.83,119.76,119.05,120.17Z" style="fill:#173847;"/><path d="M191,230.38c-.72.42-.18,1.24-.62,1.85a22.78,22.78,0,0,0-1.48,2.59c-.32.59-.08,1.57-.53,2.26-.29.44-.18,1.37-1.16,1.06-.12,0-.36.07-.23.2,1,1.14-.41,1.19-.77,1.59-.83.94-1.25,2.18-2.39,2.91a3,3,0,0,1-1.39.57c-.14,0-.33-.09-.42,0-1.77,1.25-4.06,1.06-5.93,2.11-.51.28-1.54,1-2.23-.14-.17-.28-.54.06-.52.18.15.68-.29.67-.71.67-1.61,0-3,1.51-4.73.63-1.07,1-2.55.72-3.81,1.15a12.08,12.08,0,0,0-3.57.16.58.58,0,0,0-.27.07c-.2-.52-.83-.33-1.13-.68-.07-.17-.18-.33-.37-.23s-.06.23-.09.35c-.59.67-1.45.06-2.1.44a.14.14,0,0,0-.18.06l-2.1-.21c-.19-.24-.38-.28-.56,0-1.19-.38-2.54.31-3.66-.54-.19-.44-.64-.21-.95-.37l-.24-.13s-.06,0-.09,0l.35.06-.08.82c-.71.12-1.26-.35-1.9-.48s-1.28-.94-1.81.13l-.85-.17c-.34-.74-1,.17-1.43-.31,0-.18-.12-.27-.31-.21l-.57.46-.58-.2c-.33-.55-.77-.14-1.16-.14l-6.29-.63-.33-.13c-.76-.46-1.62-.21-2.43-.32-.19-.29-.35-.66-.77-.24-.66-.22-1.14-1-2-.62-1.71-1.1-3.77-1-5.6-1.62-.86-.93-2.12-1.37-2.66-2.75-.37-1-1.7-1.38-2.16-2.45a14.66,14.66,0,0,1-1.1-3,6.46,6.46,0,0,0-2-3.47h0c0-.33.89-.37.28-.9.31-1.08,1.54-1.73,1.64-2.77.17-1.72,2-3.15.87-5.07,1.4-.81.78-2.23.89-3.36a9.41,9.41,0,0,0,.27-3.09,27.22,27.22,0,0,1-.17-4.5c-.16-2.69-.3-5.38-.34-8.08,0-1.68-.58-3.28-.66-4.93-.17-3.52-1-6.94-1.33-10.43-.26-2.64-.49-5.27-.5-7.91a108.25,108.25,0,0,1,1.18-12.71,23.36,23.36,0,0,1,2.75-9.5c.5-.84,1.11-1.53,1.66-2.3.76-1.06,1.07-2.48,2.67-2.69.94-.19,1.88-.36,2.81-.56,1.84-.39,3.71-1,5.47-1.25,3.24-.41,6.29-1.52,9.51-1.93,2.32-.29,4.58-1.07,6.88-1.54,1.45-.29,3.09-.09,4.38-.68a29.4,29.4,0,0,1,5-1.37,50.5,50.5,0,0,1,7.31-1.26.91.91,0,0,1-.4.56c-1.07.9-2.63,1.21-3.21,2.75a2,2,0,0,1-1.18.87c-1.67,0-2,1.65-3.11,2.33-.22.13-.36.38-.64.5-2.55,1.15-3.27,2.41-3,5.07.1,1.15,1.18.93,1.78,1.36a.72.72,0,0,0,1.12-.17,19.5,19.5,0,0,1,3.71-3.42c2.14-1.86,4.4-3.62,6.62-5.42.38-.31.94-.61.85-1.24-.16-1.08.45-1.93.78-2.86,2.89,1.51,5.85,2.85,8.86,4.11a7,7,0,0,1,2.29,1.33c.86.82,1.34,1.89,2.22,2.68.56.5,1.57.1,1.67.79.21,1.48,1.36,2.38,2.13,3.35,1.47,1.86,1.9,4,2.58,6.12s.73,4.63,1.06,7a66.19,66.19,0,0,1,.88,11.93,61.57,61.57,0,0,1-1.32,11.67c-.43,1.86-.22,3.88-.68,5.73a37.49,37.49,0,0,0-.73,8.06,87,87,0,0,0-.12,10.85c.09.94.07,1.89.17,2.83.08.73,1.07,1.34.28,2.19,0,0,.09.16.12.25C189.07,226.24,189.55,228.53,191,230.38ZM149,179.32a2.15,2.15,0,0,0-1,.46c-.84.48-.79,1.68-2,2-.71.18-.27,1.32.14,2s.72.43,1.06.09c1.23-1.22,2.44-2.48,3.65-3.72.36-.21.74-.77,1.07-.51a1.21,1.21,0,0,1,.32,1.3,3,3,0,0,0,.19,2.34c.4.68.39,2.56,1.83,1.78a36.8,36.8,0,0,0,7.47-5.81c.81-.76-.29-1.35-.57-1.94s-.71,0-1,.28a72,72,0,0,1-5.69,4.53c.63-1.58-.42-3-.26-4.52.09-.82-.6-1.37-1.22-1.84a.6.6,0,0,0-.9.12C151.37,177.3,149.57,177.76,149,179.32Zm8.79-17.4c-.62,1.67-1.67,3.11-2,5-.45,2.65-1.09,5.14.56,7.63a4.37,4.37,0,0,0,2.52,1.69c2.1.65,4-.52,5.47-1.72a16.31,16.31,0,0,1,4.33-2.42c.86-.37,1.62,0,2.35-.14,1.93-.49,3.43.52,4.94,1.32.93.5,1.77,1.31,2.68,1.8,3.72,2,7.88-1,8.64-4.77a20.59,20.59,0,0,0,0-4,5.41,5.41,0,0,0-1.3-3.55,14.94,14.94,0,0,0-4.25-4A19.35,19.35,0,0,0,174,156c-2.28-.19-4.57.57-6.85.92-1.71.26-3.28,1.35-5.08,1.52a.7.7,0,0,0-.5.27c-.65,1.23-2,1.62-2.95,2.44A1.85,1.85,0,0,0,157.76,161.92Zm-37.63,45.51c-.19,0-.49,0-.43.23.74,2.69.62,5.57,1.75,8.16a25.64,25.64,0,0,0,2.37,4.77,36,36,0,0,0,4.33,4.79,21.22,21.22,0,0,0,7.28,4.67c1,.38,2,.41,3,.77a24.21,24.21,0,0,0,7.11,1,17.06,17.06,0,0,1,4.27.38,5.74,5.74,0,0,0,3.43.31,8.22,8.22,0,0,1,4.84-.4c1.94.48,3.65-.09,5.41-.23,2-.17,4.06-1,6.07-1.37a16.56,16.56,0,0,0,7.39-3.55,25.72,25.72,0,0,0,5.44-5.75,36.11,36.11,0,0,0,2.89-5.75c1-2.44.87-5.12,1.64-7.61.11-.35-.16-.38-.42-.37l-.21-.23a4.53,4.53,0,0,0,.63-3.75c-.44-1.87.88-3.9-.63-5.57,1.37-1.11.44-2.37-.06-3.3s.16-1.66-.12-2.48-1.2-1.2-.53-2.12c0-.06-.06-.33-.15-.37-.92-.41-1-1.46-1.49-2.15-.72-1-1-2.2-2.53-2.34-.27,0-.87-.21-.53-.87.1-.19-.17-.49-.49-.61a24.16,24.16,0,0,0-3.74-1.57c-.45-.09-.72-.83-1.34-.19-.18.18-.48-.22-.74-.31a6.57,6.57,0,0,0-3.6-.09c-1.16.26-2.12,1.15-3.11,1.54a20.67,20.67,0,0,0-4.52,2.83c-.55.4-1.36.07-1.79.85a3.92,3.92,0,0,1-3.71,1.65c-1.92-.07-3.76,1-5.67.24-.21-.08-.39.12-.42.3-.14.61-.39.3-.7.15a4.08,4.08,0,0,0-1.2-.44c-1.94-.27-3.84-.59-5.14-2.29-.13-.17-.46-.37-.59-.31-.87.37-1.15-.49-1.63-.81-1.06-.7-1.89-1.8-3.29-1.92a1,1,0,0,1-.85-.47c-.65-1.43-2.32-1.49-3.26-1.5-1.84,0-3.86,0-5.58,1a1.09,1.09,0,0,1-.88.17.87.87,0,0,0-1.08.5.94.94,0,0,1-1.1.7c-.44-.06-.73.34-.63.6.28.75-.29.81-.68.86a2,2,0,0,0-1.49,1c-.65,1-1.12,2.11-1.83,3s-.28,1.75-.9,2.44-.2,1.42-.2,2.16c0,.92-.71,1.82-.87,2.77s.37,1.7,0,2.7c-.46,1.19.51,2.6-.13,3.87-.5,1,.72,1.85.31,2.54-.52.89.13,1.16.4,1.67Zm30.75-41a3.33,3.33,0,0,0-.38-2.19c-2.13-4.26-5.92-6.42-10.24-7.69a7.12,7.12,0,0,0-4-.34,9.61,9.61,0,0,1-3.42.61c-1.85-.32-3.17,1-4.82.95-.58,0-.78,1.14-1.63.76s-1.15.12-1.54.64-.52,1-.88,1.08c-2.69.6-3,3.13-4.25,4.92-.51.73.12,1.17-.09,1.77-.9,2.5-1.25,4.93.32,7.43a4.37,4.37,0,0,0,2.8,2c1.85.49,3.47-.61,4.89-1.55a18,18,0,0,1,4.66-2.67c.9-.27,1.71.08,2.48-.17a4.09,4.09,0,0,1,2.84.39c1.63.61,2.91,1.88,4.38,2.7,3.75,2.08,8-.52,8.94-4.67A8.94,8.94,0,0,0,150.88,166.41Zm-31.91,72,.24-.11c0-.06-.07-.17-.13-.18s-.14.05-.22.08Z" style="fill:#e66267;"/><path d="M313.37,211.87c-.52-.29-1,0-1.43.24s-.92.22-1.37.36c-.65.2-1.39-.65-1.54-.43-.71,1.07-1.08-.07-1.6-.1-1.14-.07-2.35.35-3.35-.56-.46.73-1.21.36-1.77.52-.78.24-1.48-.17-1.89-.07-1.79.47-3.62-.77-5.36.28-.39.24-1.12,0-1.66-.1-1.73-.46-3.54.66-5.15-.11-1.41-.67-2.74,0-4,.11-.95.08-2-.53-2.88.06-.31.2-.51-.13-.68-.36s-.26-.47-.38-.33c-1.07,1.28-2.8-.16-3.89,1,0,0-.1.06-.13,0-1.24-.66-2.63.57-3.86-.3a2,2,0,0,0-1.46-.27c-.93.11-1.54-.82-2.12-1.73-1.3-2-1.16-4.38-1.47-6.56-.37-2.58-1.24-5-1.56-7.57a37.88,37.88,0,0,0-1.84-7,.81.81,0,0,1-.07-.42c.61-2.14-.81-4-.82-6.15a35.14,35.14,0,0,0-1-6.65c-.47-2.3-.81-4.63-1.32-6.93s-1-4.87-1.61-7.21c-.35-1.24.05-2.64-.85-3.76-.48-.59.17-1.37-.15-2.06-1-2.13-.41-4.5-1-6.72a14.48,14.48,0,0,0-.39-2.11.63.63,0,0,1,.39-.93c1.58-.5,3-1.58,4.82-1.13a1,1,0,0,0,.57,0c1.89-.69,3.84.25,5.64-.08,2.47-.46,5,.84,7.46-.55.45-.26,1.55.33,2.37.46a15.72,15.72,0,0,0,5.88,0c1.22-.27,2.68.11,4,.05.94,0,2-.39,2.83-.37a15,15,0,0,1,2.93,0,21.86,21.86,0,0,0,4.35.37,24.78,24.78,0,0,1,3.18.07,11.59,11.59,0,0,0,6.31-.39,3.55,3.55,0,0,1,1.68.08,12.46,12.46,0,0,0,3.94.31c1.85-.08,3.74.13,5.52-.07,1.33-.15,2.56.25,3.78.09,1.83-.24,3.25.7,4.83,1.19a.55.55,0,0,1,.38.8c-1,1.76-.65,3.81-.87,5.64-.18,1.47-.45,3.08-.69,4.55-.21,1.29-.64,2.78-.76,4-.21,2.2-1.59,4.17-1.13,6.44.15.75-.51,1.22-.63,1.94-.29,1.63-.42,3.32-.86,4.89a56.07,56.07,0,0,0-1.36,8c-.25,2-1,3.89-1,6s-1,4.27-1.68,6.37a12.08,12.08,0,0,0-.49,2.67,16.36,16.36,0,0,1-1.1,4.66c-.33.83.1,1.48-.14,2.25a22.37,22.37,0,0,0-.61,4.28C316.25,209.85,314.49,211.87,313.37,211.87Zm-19.27-58.74c-1.53-.05-2.34,1.12-3.49,1.54-.61.22-1,.94-.87,1.16.52,1.24-.42,2.27-.35,3.42.09,1.57.07,3.2.05,4.72,0,2.13,0,4.29-.09,6.44a65.15,65.15,0,0,0,.1,8.32c.06.67-.86,1.62.54,1.93a.73.73,0,0,1-.05.4c-1,1.42-.63,3.11-.47,4.56.27,2.49-.48,5,.12,7.41,0,.17-.06.38-.09.57a31.78,31.78,0,0,0,.12,7.6,5.84,5.84,0,0,0,2.73,4.71,1.43,1.43,0,0,0,1.36.28c1.36-.7,3-1.15,3.63-2.74.31-.73.2-1.56.66-2.31.69-1.12-.43-2.47.28-3.65-1.18-.22-.15-.84-.23-1.26-.17-.93.38-1.82.24-2.7a18.17,18.17,0,0,1,0-3.81c.08-1.69,0-3.37,0-5,0-1.86-.49-3.84-.3-5.54s-.07-3.25.23-4.85c.21-1.16-.59-2.28-.35-3.36A29,29,0,0,0,298,163c-.11-2,.43-4-.27-6-.29-.86.09-2-.94-2.61C295.89,153.84,295.14,153,294.11,153.14Zm25.1,3.7c.51-1.42-.88-1.7-1.44-2.39-1.31-1.59-5.47-1-6.26.87-.42,1-.59,2.17-1,3.23-.82,2.08-.46,4.38-1.1,6.55a8.87,8.87,0,0,0-.55,2c-.13,2.4.1,4.88-1.08,7.13,0,.08-.1.21-.07.27.85,1.86-1.51,3.75.07,5.6,0,0,0,.2-.08.26-1.27,1.31-1.13,3.07-1.21,4.62a65.23,65.23,0,0,1-1.17,7.14c-.41,2.5-.87,5-1.11,7.52-.07.69.19,1.41.17,2.12a4.78,4.78,0,0,0,2.36,3.94,2.19,2.19,0,0,0,1.13.05c2.68-.4,4-2.34,4.74-4.61.22-.67,1.24-1.64.14-2.56-.19-.16.16-.35.42-.39s.44-.26.19-.32c-1.11-.29-.16-.72-.13-1.09.09-1,.8-1.91.75-2.81a13.11,13.11,0,0,1,.55-3.68c.37-1.65.35-3.34.79-5,.68-2.48,0-5.2,1.26-7.58a1.85,1.85,0,0,0,.1-.83,28.15,28.15,0,0,1,.43-5.37c.52-2.07.59-4.2,1.08-6.25.26-1.08,0-2.22.37-3.2C319.27,160.4,318.64,158.52,319.21,156.84Zm-43.79-.08a1.67,1.67,0,0,0-.55-2.05,14.33,14.33,0,0,0-3.33-1.26c-1.36-.36-4.27,1.77-4,3.35.24,1.17-.15,2.33.24,3.44a29.66,29.66,0,0,1,1,6.48c.29,2.53,1,5,1.06,7.57a13.69,13.69,0,0,0,.56,4.5c.16.47.87.39.68,1.06-.48,1.66,0,3.3.27,4.93.31,2.32.65,4.64,1,7a9.61,9.61,0,0,0,.62,3.17c.66,1.2.33,2.55.9,3.76.14.29-.12,1.2.15,1.94.79,2.15,1.35,4.3,4.11,4.91,1.72.38,4.44-1,4.36-2.81a44.26,44.26,0,0,0-.5-7.64c-.53-2.47-.76-5-1.46-7.43a3.74,3.74,0,0,1-.13-.83c-.14-2.2-.11-4.44-1.39-6.39a.88.88,0,0,1-.1-.39c1.25-.43.18-1.24.33-1.76.31-1.11-.79-1.94-.36-3a1.93,1.93,0,0,0-.28-1.78,4.75,4.75,0,0,1-.44-2,39.32,39.32,0,0,0-1.11-7.29c-.09-.31-.52-.51-.34-.89.52-1.11,0-2.12-.22-3.17A7.85,7.85,0,0,0,275.42,156.76Z" style="fill:#56b8c9;"/><path d="M46.92,175c-.67.77-1.63.29-2.43.5a16.11,16.11,0,0,1-4.46.34c-1.56-.05-3,.88-4.61.38a15.28,15.28,0,0,1-.51-7c.11-.57-.25-1-1-.83-1.33.25-2.68.43-4,.64-.19,0-.48.16-.55.09-1.48-1.64-3.46-.09-5.17-.86a47.92,47.92,0,0,0-5-1.51,77.24,77.24,0,0,1-9.92-4.24A34.5,34.5,0,0,1,1.32,157c-.65-.59-.9-1.32,0-2a8.37,8.37,0,0,1,1.11-.85c.71-.32,1.4-2.33,2.24-.11,1.41,0,2.31,1,3.34,1.65a47.53,47.53,0,0,0,7.19,3.5,10.5,10.5,0,0,0,1.76.44c.87,1.07,2.07.56,3.36,1-.76-1.36-1.84-1.54-2.77-1.95-.82-1.31-2.26-1.87-3.41-2.78A21.22,21.22,0,0,1,10,151.81c-.42-.57-1.59-.38-2-1.31-.15-.34-.48-.65-.39-1,.18-.73-.12-.86-.73-.7a.49.49,0,0,1-.59-.28,32.81,32.81,0,0,1-2.95-4.59c-.84-2-2-3.84-2.93-5.81a5.06,5.06,0,0,1,.1-3.94C1.1,132.27,2,132.75,3.38,133c1.58.29,1.86,1.65,2.81,2.42.34.27-.08.34-.21.48s-.53,0-.15.42c2.22,2.24,3.5,5.15,5.47,7.58.76.94,1.93,1.53,2.28,2.83.06.23.62.33,1,.5.43-.59-.48-1.24.23-1.78.11-.08-.72-.49-1-1.12-.57-1.34-.65-2.81-1.34-4.09-.18-.34-.44-.76,0-1.19a1.25,1.25,0,0,0,.1-1.37c-1-2.58-.66-5.35-1.1-8A2.39,2.39,0,0,1,13,127.07a4.57,4.57,0,0,0,1.47-1.1c1.1-.93,1.75-.35,2.31.52a4.19,4.19,0,0,0,1,1.21c.47.35.35.82.45,1.3.33,1.53-.25,3.24,1.06,4.63a3.47,3.47,0,0,1,.73,2.67,5.07,5.07,0,0,0,.77,3c.36.48.87.72.78,1.51,0,.31.2,1.21.76,1.2s.69-.7.84-1.22a16.83,16.83,0,0,1,1-3.32c.61-1.17.57-2.85,2.26-3.29-.17-.64.45-1,.55-1.44.43-1.8,1.94-2.51,3.16-3.48.57-.46.81-1.12,1.34-1.58a18.31,18.31,0,0,1,6.06-3.19c1.12-.39,2.28-.68,3.42-1a1.77,1.77,0,0,1,.95.59c.55.69.9,1.69,2.21.82.53-.35,1.41.24,1.36,1.16-.07,1.39-1.71,3.09-3.08,3.51-.5.15-1.19,0-1.49.69-.66-.07-.78.58-.93.91-.79,1.8-2.5,2.69-4,3.51-1.9,1-2.67,2.7-3.52,4.4-.43.85-.23,2-1.46,2.42-.1,0-.24.25-.23.26,1.15,1.12.08,2.32-.1,3.31a11,11,0,0,0,4.52,11.45c.52.4,1.32.46,1.7,1.13a.53.53,0,0,0-.11.07s0,.05,0,.08l.09-.16c1.34,0,2.67.11,4,.14s2.38-.88,3.58-1.27c.71-.23,1.27.66,1.89-.11,1.82-2.24,3.93-4.28,5.51-6.66.91-1.37,1-3.26,1.48-4.92.38-1.43-.07-2.84-.16-4.26-.1-1.59-1.13-2.76-1.32-4.31-.17-1.33-2-1.17-2.93-1.94-.69-.76-1.08-1.77-2.41-1.84-.89-.05-1.26-1.28-.69-1.69,1.17-.83,1.16-2.6,2.66-3.06.2.13.47.41.58.35,1.53-.7,2.79,0,4.1.67,1.09.56,2.46.74,2.67,2.3,2.13-.05,2.13,2.1,3.06,3.19s.8,2.62,1,4a8.81,8.81,0,0,1,.24,1.4c0,1.64.77,3.39-.65,4.84a.62.62,0,0,0-.11.53c.77,2.12-.65,3.79-1.27,5.56a15.58,15.58,0,0,1-3.67,5.7,54.12,54.12,0,0,1-4.12,4.19c-1.06.87-1.85,1.94-2.89,2.78s-.77,1.83-.36,2.85c.27.69.76,1.36-.25,2-.38.23-.21.87-.13,1.34.12.66.77,1.45-.45,1.78,0,0-.1.22-.07.25C47.27,172.41,46.67,173.77,46.92,175ZM22.67,161.66a1.48,1.48,0,0,0-2.13-1C21,161.48,22.11,161.06,22.67,161.66Zm.67-18.74s-.19-.14-.45-.16c-.54,0-.73.32-.8.78,0,.28,0,.44.36.42C22.95,143.93,23.23,143.68,23.35,142.92Z" style="fill:#e96669;"/><path d="M329.46,138.48a2.31,2.31,0,0,1-.42-.89,4.21,4.21,0,0,0-4.31-3.17,48.9,48.9,0,0,1-5.72-.26c-3.55-.5-7.13-.74-10.7-1-.71-.06-.8-.37-.62-.93a10.71,10.71,0,0,0,.1-5.07c-.17-1.19-1-1.93-1.36-2.83-.62-1.37-2.37-.74-2.82-2.29-.17-.6-1.81-1.5-2.77-1.67-2-.34-3.79-1.5-5.89-1a1,1,0,0,1-.69-.08c-1.67-1-3.34-.38-5-.11-.86.14-1.83.95-2.31.75-1.12-.47-1.8.11-2.67.41-1.57.56-2.1,2.05-2.91,3.22-1.21,1.74-.88,3.86-.89,5.84,0,1.25-.38,1.59-1.62,1.41a17.68,17.68,0,0,0-4.95-.35,8.79,8.79,0,0,1-3.3-.17,13.73,13.73,0,0,0-5.07-.43c-1.51.2-2.74-.39-4.09-.49-1.12-.08-2.36-.38-3.26.1s-1.82,1.61-.82,3c.17.23-.18.51-.35.73a1.3,1.3,0,0,0-.21,1.1,4.48,4.48,0,0,0,3.65,3.74,9.44,9.44,0,0,0,1.52-.05c1.42.08,2.79.46,4.19.54,1.94.1,3.9-.09,5.84.07,2.82.23,5.64.61,8.44,1a2.77,2.77,0,0,0,1.67-.17c.49-.27.65-.51,1,.13s1.07.36,1.6.24a8.61,8.61,0,0,1,1.2,0c1.53-.16,2.84.77,4.36.7.69,0,1.2-.82,1.63-.53.9.59,2,.3,2.72.61,2.17,1,4.42-.09,6.52.71,1.29.49,2.78-.28,4.08.52.32.2.61-.18.9-.33s.57-.35.58-.33c.91,1.26,2.3.5,3.42.82a34.81,34.81,0,0,0,4.59.49c2.36.35,4.84-.11,7.2.24a10.11,10.11,0,0,0,3.48.34c.1.6.57.72.93.44.57-.43,1.66-.51,1.54-1.49-.08-.65.11-.56.58-.73C330.3,140.48,330.53,139.52,329.46,138.48Zm-32-6.27c-1.81.21-3.81-.46-5.9-.14-.65.1-1.8-.48-2.79-.57-.55-.05-1-2.32-.67-3a2.14,2.14,0,0,0,.3-.62c.25-1.91,1.13-2.71,3.15-2.52a25.86,25.86,0,0,1,4.94,1.06c.92.27,1.62,1.22,2.72.92a.33.33,0,0,1,.37.46c-.37.73,0,1.4.07,2.09C300,132.18,299.91,132.24,297.46,132.21Zm28,10.69.06-.32.16.1Z" style="fill:#58b9cc;"/><path d="M279.43,247.86c-2.76-1-5.64-1.49-8.45-2.25a9.83,9.83,0,0,0-3.65-.69c-.78.09-.68-.38-.72-.82,1.05-.53,1.11-1.62,1.46-2.56s.91-1.68,1.2-2.57c.54-1.7,1.77-3,2.58-4.68-.46,0-.86-.48-1.15-.78-.45-.46-1.08-.66-1.6-1.15-1.07-1-1.19-2.28-1.53-3.41a34.47,34.47,0,0,1-1.07-6.37c-.06-.65.33-1.38,1.47-1.23,1.87.24,3.57.56,4.58,2.41.28.52.7,1.21.53,1.55-.62,1.18.78,2,.39,3.1-.14.4.35.25.61.25a4.69,4.69,0,0,1,2.66.7,2.37,2.37,0,0,0,1.93.29,14.38,14.38,0,0,1,4.91-.08,6,6,0,0,0,3.45-.74c.71-.35,1.22-1.16,2.19-.89.05,0,.16-.1.21-.18,1.18-2,2.7-4,2-6.61-.34-1.29.09-1.8,1.4-1.56,1.58.29,3.35.37,4,2.32.08.24.38.42.61.59.81.59,1,1.1-.16,1.46-.33.1-.8.33-.62.63,1,1.7-1,2.9-.5,4.57a5.1,5.1,0,0,0,3.75-2,12,12,0,0,0,2.25-7,1.58,1.58,0,0,1,1.69-1.69c2.05,0,3.48,1.52,4.79,2.82.38.37.06,2-.24,3.06-.45,1.6-1.78,2.67-2.27,4.23-.11.36-.31.58,0,.79s.44-.06.59-.35,1.7-.49,2.65-.76c.73-.2,1-1.07,1.34-1.74.67-1.47,1.16-3,1.88-4.46a2.62,2.62,0,0,1,4.56-.37,12,12,0,0,1,1.7,4.06,1.31,1.31,0,0,1-.31,1.06c-.41.71-1.2,1.25-.94,2.25a.32.32,0,0,1-.3.4h-.14c-1.31,0-.12.54-.16.81-.09.58-.26.93-1,1s-.88.36-.11.74c-.34.46-.55,1.12-1.11,1.27-1.1.29-2.19.46-2.29,1.93a.74.74,0,0,1-.76.55c-1.09-.25-1.89,1.47-3.09.39-.25-.22-.28.24-.29.44,0,.42-.33.43-.6.45-2.49.16-5,.42-7.49.44-1.86,0-3.73-.31-5.59-.43a26.56,26.56,0,0,1-5.89-.58c-.39-.11-.62.13-.9.3-.53.33-1.15.66-1.73.28-.95-.62-1.34-.3-1.51.68,0,.13-.11.37-.15.36-1.71-.21-1.1,1.32-1.44,2-.55,1.18-.75,2.53-2,3.27a.65.65,0,0,0-.37.84c.41.85,0,1.12-.76,1.46C279,246.11,279.87,247.18,279.43,247.86Zm28.51-26.57c-.1,0-.26-.11-.28-.09s0,.18.13.22-.11.57.26.42S308.15,221.46,307.94,221.29Z" style="fill:#e96669;"/><path d="M32.37,15c-.37,1.49.11,2.79.22,4.1.17,2.08.93,4.09.78,6.22-.09,1.24.81,2.18,1,3.4.38,2.2.44,4.43.86,6.62.2,1.05-.31,1.39-1.23,1.35a2.12,2.12,0,0,0-1.39.17c-1.52,1-2.57.18-3.56-.89-.14-.15-.37-.53-.47-.2-.4,1.3-1.13.46-1.67.27-1.63-.57-3.24-1.21-4.91-1.85A2.19,2.19,0,0,0,22.73,36c1.78,2.32,2.93,5,4.57,7.43,1.06,1.55,2,3.19,3,4.78.41.65,1,1.36.27,2a2.73,2.73,0,0,1-2.4.41c-2.52-.44-2.94-2.66-4-4.36-.14-.22-.23-.48-.38-.72-.47-.76-1.74-1.18-1.1-2.43-1.36-.35-1-2-1.9-2.64A8.44,8.44,0,0,1,18,36.66c-.7-2-2.35-3.23-3-5.12-.17-.48-.33-.66.22-.94,1.06-.53,2.26-.75,3.26-1.17,1.37-.57,2.25.49,3.35.22.58-.14.43.62.78.65s.79,1.56,1.38.13c0,0,.29-.05.38,0,1.38,1,3.43.55,4.61,2.06a1,1,0,0,0,1.19.25c.61-.21.4-.76.35-1.1a36.08,36.08,0,0,0-.91-4.86,35,35,0,0,1-1.06-6.25c-.17-1.53-.07-3.2-.77-4.67-.37-.78.26-1.23.62-1.85-1.35-.23-.91-1.4-1.21-2.2,0,0,0-.09.06-.13.36-.63-.85-1.68.23-1.92,1.63-.36,3.43-1.34,5,.35.09.1.14.31.24.33,1.57.32,2.46,1.71,3.8,2.38,1.54.77,2.26,2.41,3.68,3.29.61.38,0,.82,0,1.35,1.3-.77,1.95.43,2.39,1.05.86,1.2,2.27,1.72,3.06,3.17.91-2.1,2.69-3.29,3.76-4.92A25,25,0,0,1,52,14.15c1.09-1.25,1.78-2.88,3.52-3.67,1.06-.48,1.56-2,2.88-2.41-.39-.85.31-1.34.64-1.95,1-1.75,1.92-1.79,3-.16.73,1.08,1.58,2.08.6,3.48-.35.5.49.95.34,1.46-.63,2.08.06,4.3-.76,6.36s-.94,4.46-1.31,6.71A8.41,8.41,0,0,1,60,26.75c-.28.49-.38,1,.59.89,2-.16,4-.17,6-.24,0,0,.12-.05.13,0,.77.79,1.45.25,2.29.05s2.06-.19,3.09-.38a1.35,1.35,0,0,1,1.76,1.18c0,.14,0,.35.05.42,1.58,1.44.17,2.63-.62,3.39-1.35,1.29-2.05,3.07-3.57,4.24-.67.51-.87,1.63-1.28,2.48s-.67,1.6-1.76,1.53a1.2,1.2,0,0,0-.27,0c.06,1.41-1.49,1.64-2,2.74s-.91,2.74-2.62,3c-.23,0-.22.17-.27.37-.44,1.57-1.74,2.42-2.9,3.39-.53.44-.9.4-1.27-.16-1.19-1.85-1.84-3.06.43-4.64a6,6,0,0,0,1.64-1.67C61,40.91,63.1,39,64.7,36.68c1.09-1.56,2.16-3.15,3.42-4.85a30,30,0,0,0-5.49-.07c-1.83,0-3.63.6-5.52.07-.9-.25-1.08-.81-.86-1.27a2,2,0,0,0-.17-1.92,3.87,3.87,0,0,1,.08-2.81c.49-1.64,1.2-3.34,1-5.14a3.27,3.27,0,0,1,.26-1.83,11.6,11.6,0,0,0,.91-4c.06-.43.22-1-.28-1.12a1.11,1.11,0,0,0-1.33.62c-.92,2.69-3.43,4.07-5,6.19-1.09,1.44-2.16,2.89-3.27,4.31a3.87,3.87,0,0,1-1.58,1.42c-.34.13-.87.27-1.1.1-.95-.7-2.29-1.08-2.91-1.85a27,27,0,0,0-2.43-2.16c-1.61-1.6-3.52-3-4.79-4.8C34.76,16.37,33.6,15.9,32.37,15Z" style="fill:#f4c02f;"/><path d="M118.9,136.49c.39.4.35,0,.51-.22.31-.36.7-.74,1.09-.06.13.22.37.5.49.28.53-1,1.47-.4,2.17-.66.68.48,1.17-.44,1.8-.24a4.1,4.1,0,0,0,3.09-.21,1.55,1.55,0,0,0,1-.42c.61,0,1.23,0,1.84-.1,1.76-.21,3.51-.45,5.27-.69l.56,0c.22.11.44.15.62-.08s.56-.52.91-.34c1.62.83,3-.54,4.6-.34.37-1.27.75-.75,1.47-.17s1.42-.4,2.37-.25c2.11.33,4.32-.15,6.4.68a.18.18,0,0,0,.14,0c1.3-.78,2.59-.16,3.9-.14s3,.71,4.15.19c1.5-.66,2.73.3,4.06,0,.41.3.79.09,1.17-.08a.92.92,0,0,0,1-.26c.51-.59.91-.76,1.07.23,0,.23.23.37.4.3,1.19-.45,2.42.26,3.6-.14.3-.1.43.07.64.14.36.12.85.42,1.07.29,1-.58,1.74-.75,2.64.34.43.53.06-.67.32-.69a26.06,26.06,0,0,0,9.38,2.48c1.54.45,3.07.93,4.66,1.28a16.45,16.45,0,0,1,6.74,2.81c.68.52,1.82.79,2.66,1.44a6.72,6.72,0,0,1,3,6,2.33,2.33,0,0,1-.59,1.53c-1.46,1.45-3,2.81-5.24,3-.24,0-.3.18-.26.4h0c-.29-.12-.36.11-.46.29a1.58,1.58,0,0,0-1.77-.08c-1,.58-1.86,0-2.75,0-1.23,0-.8-1.39-.94-2a22,22,0,0,0-3-6.92,2.74,2.74,0,0,0-1.22-1.18c-.54-.23-1.28-.34-.57-1.25.23-.29-.32-.59-.68-.65a61.6,61.6,0,0,1-6.27-1.58c-1.9-.53-3.85-.3-5.77-1-1.37-.47-3.39,0-4.89-.57s-2.84,0-4.24-.19-3.19-.45-4.72.22c-.47-.31-1.23-.53-1.36-.94-.24-.81-.56-.55-1-.29a5,5,0,0,1-2.41.61c-.91.12-1.81-.31-2.48-.13a6.43,6.43,0,0,1-4.67-.49c-.19-.09-.55-.65-.71-.07-.22.83-1,.89-1.51,1.3-1.08-.08-2.24-.1-3.22-.21-1.31-.14-2.72.74-4-.24-.68-.53-1.16.43-1.85.56-2.36.43-4.76.57-7.12.91s-4.38.94-6.61,1.16c-1.16.12-2.1,1.15-3.39,1-.14,0-.48.41-.46.44,1,1.37-.58,1.17-1,1.67a15,15,0,0,0-2.51,4.24,19.81,19.81,0,0,0-1.49,5.2c0,.38-.42.5-.78.5-1.06,0-2.15.32-3.16-.12-.5-.22-.82,0-1.22.14-.1-.18-.17-.4-.45-.29h.05c.05-.6-.44-.37-.7-.43a8.41,8.41,0,0,1-4.94-3.21c-.7-.91-.48-4.15.42-5.1s1.86-2.53,3.27-3c1.95-.62,3.56-1.86,5.42-2.65C114.64,137.46,117.09,138,118.9,136.49Zm56.95-2.19s-.08,0-.08.07,0,.06.06.09.08,0,.08-.07S175.87,134.33,175.84,134.3Z" style="fill:#1c3c4b;"/><path d="M48.66,61c-.06,5.43-.12,10.87-.12,16.3s0,10.76.2,16.12-.78,10.51,0,15.75a4.62,4.62,0,0,1-1.24.26,50.57,50.57,0,0,0-6.23.13c-.56-1.63-.13-3.32-.26-5-.18-2.41,0-4.84-.11-7.26,0-1.42.17-2.82,0-4.25a43.73,43.73,0,0,1,0-6.4c.32-5-.25-10,.14-15,.27-3.5-.35-7-.09-10.55Z" style="fill:#58b9cc;"/><path d="M41.3,109.58a50.57,50.57,0,0,1,6.23-.13,4.62,4.62,0,0,0,1.24-.26c.41,1.5-.1,3,.09,4.56a40.36,40.36,0,0,1-.1,5.37c0,2.64,0,5.28-.05,7.93a2.24,2.24,0,0,1-.23.67c-1.5.46-1.48,2.22-2.66,3.06-.57.41-.2,1.64.69,1.69,1.34.07,1.73,1.08,2.41,1.84-.55.91.06,1.92-.25,2.87-.23.72-.7,1.49.15,2.18.12.1.09.46,0,.68-.31,1.22-.29,2.74-2.24,2.53a1.08,1.08,0,0,0-.78.26A2,2,0,0,1,43,143a3.92,3.92,0,0,1-2-3.12c-.09-3.22-.09-6.44-.13-9.67.3-.64,1-.53,1.49-.69,1.38-.42,3-2.11,3.08-3.51,0-.92-.83-1.51-1.36-1.16-1.31.86-1.66-.14-2.21-.82a1.77,1.77,0,0,0-.95-.59c-.07-1.6.68-3.2,0-4.8a.72.72,0,0,1,0-.43c.66-2.6.13-5.2.06-7.8C41,110.09,41,109.8,41.3,109.58Z" style="fill:#1c3c4b;"/><path d="M41.45,55.46A32.25,32.25,0,0,1,41,47.93c.13-2.61-.2-5.21.07-7.82a21.66,21.66,0,0,0,0-3.79c-.12-1.5.61-1.19,1.45-1.07s1.41,1,2.32-.1c.29-.36,1.89,0,2.58.67s1.48,1.32,1.33,2.62c-.23,1.9.2,3.86-.51,5.73,1.19.94-.77,2.34.53,3.39.37.3.25,1.36.14,2a31.26,31.26,0,0,0,0,5.62,8.31,8.31,0,0,1-2.46.13A33.48,33.48,0,0,0,41.45,55.46Z" style="fill:#58b9cc;"/><path d="M136.32,15.49a18.13,18.13,0,0,1,.15-2.28A1.22,1.22,0,0,1,138,12.14a81.44,81.44,0,0,0,8.33,1.58c1.21.24,2.17,1.34,3.59.91.28-.09.56.51.49.9-.16.94-.38,1.88-.59,2.81-.06.28-.15.56-.57.43-1.55-.49-3.19-.48-4.72-1.2-2-1-4.32-.32-6.44-.8C137.39,16.6,136.16,17,136.32,15.49Z" style="fill:#f4c02f;"/><path d="M197.4,35.94c1.34-.26,1.9.93,2.8,1.49.3.18.11.42,0,.62a7,7,0,0,1-.35.63c-1.59,2.67-1.57,2.65-4,.88a36.64,36.64,0,0,0-7.48-4.7c-.92-.37-.85-.85-.51-1.54s.52-1.14.79-1.7c.52-1.06,1.5-1.37,2.2-.47,1,1.29,2.65,1.4,3.78,2.42A15.2,15.2,0,0,0,197,35.12c.31.19.26.48.32.75-.2.08-.31.29-.14.38S197.4,36.12,197.4,35.94Z" style="fill:#f4c02f;"/><path d="M117.46,13c0-1.66.58-2.2,2.69-1.87,1.9.3,3.79.06,5.67.23a33.42,33.42,0,0,0,4.34.06c.61,0,.49.32.46.61-.09,1-.23,1.91-.33,2.86-.07.62-.45.87-1,.71-1.5-.43-3.06.41-4.64-.4a6,6,0,0,0-2.66.06,9.64,9.64,0,0,1-2.37,0C117.61,15.14,117.44,15,117.46,13Z" style="fill:#f4c02f;"/><path d="M165.85,23.69l-.57-.21c0-.41-.12-.72-.58-.28-3-1-6-2.07-9-3.07-.21-.07-.42,0-.49-.31-.14-.75,1-3.18,1.69-3.46.12,0,.3-.11.39-.06,2,1.18,4.33,1.15,6.3,2.09a21.6,21.6,0,0,0,4,1.17c.65.18,1.11.58.74,1.38s-.77,1.75-1.14,2.64c-.2.48-.42.15-.65,0,0-.19-.14-.39-.33-.34S165.94,23.55,165.85,23.69Z" style="fill:#f4c02f;"/><path d="M234.43,73.47c0,.77-1.87,2.9-2.67,3.06-.4.08-.47-.22-.62-.44-1.92-2.73-3.72-5.55-5.85-8.14-.23-.28-.44-.54-.14-.87q1.12-1.22,2.27-2.41c.17-.18.56-.3.61-.07.3,1.14,1.6,1.47,1.94,2.65a6.15,6.15,0,0,0,1.72,2.14c1,1,1.09,2.65,2.51,3.3C234.42,72.79,234.49,73.16,234.43,73.47Z" style="fill:#f4c02f;"/><path d="M217.37,52.2c.68.33,1.08,1.19,1.54,1.77,1.32,1.69,3.38,2.76,4.14,4.89a.23.23,0,0,0,.09.11c.72.46,1.85.9,1.62,1.8-.28,1.11-1.6,1.57-2.46,2.31s-1.44-.35-1.64-.76c-.82-1.67-2.46-2.56-3.51-4-.53-.73-.69-1.85-1.84-2.13a1.26,1.26,0,0,1-.21-1.42l1.55-2.25A.64.64,0,0,1,217.37,52.2Z" style="fill:#f4c02f;"/><path d="M183.09,28a15.74,15.74,0,0,1-.72,2.52c-.2.43-.34.43-.74.26-1.67-.72-3.44-1.23-4.7-2.69-.53-.62-1.47-.24-2.2-.81s-1.23-1.23-2.15-1.3a.48.48,0,0,1-.31-.23,6.6,6.6,0,0,1,1-3c.82-.27,1.69-.69,2.48.08,1,.95,2.55,1.08,3.21,2.44,1.78-.39,2.48,1.27,3.72,1.92C183,27.3,183.22,27.4,183.09,28Z" style="fill:#f4c02f;"/><path d="M112.52,13.57c0,2.16-.19,2.18-2.42,2.12a73,73,0,0,0-7.87.32c-.82.07-1-.19-1.09-.84a8.31,8.31,0,0,0-.23-1.27c-.33-1.07-.4-1.66,1.16-1.74,2.8-.13,5.59-.72,8.41-.73C112.51,11.42,112.51,11.49,112.52,13.57Z" style="fill:#f4c02f;"/><path d="M206.18,42.11c-.36.22-.38.33-.09.4,2.21.54,3.52,2.39,5.21,3.67.41.31.49,1.21,1.27,1.42a.32.32,0,0,1,.13.48q-1,1.38-2.09,2.74a.34.34,0,0,1-.6,0c-1.16-1.76-3-2.73-4.52-4.12a32.7,32.7,0,0,0-2.85-2.32c-.67-.5-.6-1-.19-1.57.27-.39.47-.84.73-1.23s.72-1.33.86-1.19c.6.57,1.51.57,2,1.24C206.2,41.82,206.34,42,206.18,42.11Z" style="fill:#f4c02f;"/><path d="M72.82,56.91c-1.68.72-3.48-1.06-5.14.24-1.31-.65-2.73.07-4.08-.33-.73-.21-1-.43-.71-1.29.45-1.2.72-2.45,2.19-2.9a1.77,1.77,0,0,1,1.06-.09,17,17,0,0,0,5,.22,7.65,7.65,0,0,1,3.35.62c.12.05.3.16.31.26.13.86-.88,1.65-.15,2.55a2.11,2.11,0,0,0-1.27.86C73.2,57.32,73,57,72.82,56.91Z" style="fill:#f4c02f;"/><path d="M250.33,100.3c-.64.51-.64,1.48-1.57,2-2.26,1.31-2.2,1.4-3-1.09-.56-1.65-1.16-3.29-1.75-4.93a1.14,1.14,0,0,0-.14-.25c-.36-.53-1.43-1-1.07-1.49a10.88,10.88,0,0,1,2.52-2.31c.52-.4,1,.11,1.18.47,1.3,2.38,2.53,4.79,3.78,7.2A2,2,0,0,1,250.33,100.3Z" style="fill:#f4c02f;"/><path d="M41.45,55.46a33.48,33.48,0,0,1,5-.12,8.31,8.31,0,0,0,2.46-.13c-.43,1.92,0,3.88-.27,5.81L41,61.15c.17-.39.45-.64.26-1.23A5.71,5.71,0,0,1,41.45,55.46Z" style="fill:#1c3c4b;"/><path d="M18.68,58.37c1.12-2.14,2.76-2.55,5.16-2a23.76,23.76,0,0,0,4.68.39,2,2,0,0,1,1.85,1.07c.36.65-.2,1.16-.61,1.62-.8.92-1.3,1.83-3.07,1.27-1.57-.5-3.45-.29-5.11-.92-.79-.29-1.39.56-2.19.42-.26,0-.43.63-.82.26s-.2-.79,0-1.18c.36,0,.64.45,1.06.14Z" style="fill:#f4c02f;"/><path d="M67,72a10,10,0,0,1-1.48,1.61c-1.42,1-3.12.4-4.3-1.36-.18-.27-.21-.67-.58-.77-1.43-.36-2-1.75-3.16-2.53s-.91-1.8.3-2.41c2-1,2.7-.83,4,.92a5.1,5.1,0,0,0,1.59,1.12C64.84,69.47,65.28,71.41,67,72Zm-2.55,1.27c-.34.23-.49.54-.07.75.25.12.36-.2.33-.47l.07-.31Z" style="fill:#f4c02f;"/><path d="M237.12,78.28c.5,0,2.79,2.57,2.52,2.9-.46.54-.21.49.2.76a1.78,1.78,0,0,1,1.07,1.84A2.55,2.55,0,0,0,242,85.83a1,1,0,0,1-.11,1.67q-.58.42-1.17.83c-1.5,1-1.53,1-2-.69a7.25,7.25,0,0,0-1.23-1.89,13,13,0,0,1-2.17-3.85c-.14-.56-1-1-.59-1.46a16.67,16.67,0,0,1,2.18-2.06A.73.73,0,0,1,237.12,78.28Z" style="fill:#f4c02f;"/><path d="M22.8,72.4c.36-1.33.47-2.87,1.93-3.67a8.59,8.59,0,0,0,2.88-2.81,1,1,0,0,1,1.18-.5,1.26,1.26,0,0,1,1.1,1c.64,2.23,0,4.92-3,5.57-.48.1-.46.95-1,1.37s-1.21.68-1.57,1.36c-.28.52-.67.1-.91-.18A4,4,0,0,1,22.8,72.4Z" style="fill:#f4c02f;"/><path d="M74.37,15.17C73.7,17,72.15,18,70.85,19.3c-.82.79-1.54.13-2.24-.76-.9-1.14.21-2-.07-3,0-.09.22-.37.35-.39,1.94-.17,2.25-2.1,3.39-3.12a1.23,1.23,0,0,1,2.06.43,9.28,9.28,0,0,1,.31,1.25,1.85,1.85,0,0,1-.56,1C73.36,15.42,74.32,15,74.37,15.17Z" style="fill:#f4c02f;"/><path d="M42.38,3.52l-.47-1.85c-.13-.52-.23-1,.27-1.43s.83-.18,1.27,0c.64.32,1.51.12,1.92,1,.22.5,1.09.74.36,1.52-.26.27.15.59.35.85.42.57.65,1.09,0,1.74-.25.26-.89,1,.4,1,.48,0,.13,1,.07,1.48s-.59.65-1.11.5C43.3,7.73,42.26,6.25,42.38,3.52Z" style="fill:#f4c02f;"/><path d="M7.33,45.31c-1,.23-1.52-.41-1.55-1.6,0-1,1-2.53,1.92-2.51a3.93,3.93,0,0,0,1.92-.75c.38-.19.74-.43,1-.06.47.67.75.73,1.28,0,.23-.29.69-.12.7.46a4.21,4.21,0,0,1-3,3.84A4.73,4.73,0,0,1,7.33,45.31Z" style="fill:#f4c02f;"/><path d="M15.11,14.66c-.53,0-.13.86-.73.65a.81.81,0,0,1-.46-.5c-.1-.44.36-.5.61-.69,1.93-1.44,2.63-1.63,3.73-.53.66.66,1.33,1.33,2,2,.86.91.34,2.13-.89,2.52-2.2.71-3.39-.06-3.9-2.36A2,2,0,0,0,15.11,14.66Z" style="fill:#f4c02f;"/><path d="M74.37,15.17c-.05-.17-1,.24-.28-.42a1.85,1.85,0,0,0,.56-1c.83.05.85.71.75,1.23S74.67,14.86,74.37,15.17Z" style="fill:#f7cc64;"/><path d="M18.68,58.37l1,1.08c-.42.3-.7-.16-1.06-.14A.59.59,0,0,1,18.68,58.37Z" style="fill:#f7cc64;"/><path d="M164.7,23.2c.45-.44.54-.12.58.28A.6.6,0,0,1,164.7,23.2Z" style="fill:#f7cc64;"/><path d="M165.85,23.69c.09-.14.16-.36.28-.39s.29.15.33.34C166.26,23.71,166.07,23.84,165.85,23.69Z" style="fill:#f7cc64;"/><path d="M123.22,295.87l.23-.19Z" style="fill:#f4f5f5;"/><path d="M197.54,152.72l0,0v0Z" style="fill:#56b8c9;"/><path d="M225.52,207a1.78,1.78,0,0,0-1.38-1.47,2,2,0,0,0-1.45-2L221,202.08c-.33-.59-.62-.74-.84.07-.75-.13-.41-.81-.6-1.22-.42-.7-1.07-.5-1.68-.44-.67-.56-.24-.9.26-1.18a10.51,10.51,0,0,0,3.89-4c.6-1,1.09-2.16,1.72-3.13a10.44,10.44,0,0,0,1.4-4.35,16.68,16.68,0,0,0-1.29-9.8,15.08,15.08,0,0,0-3-4.79,23.86,23.86,0,0,0-5.44-3.45,28.68,28.68,0,0,0-7.72-2.81c-.77-.16-1.46.74-2.22-.06,1.47-2.11,1.38-4.33.63-6.73-.26-.84-1.08-1.08-1.24-1.75-.45-1.91-2.1-2.62-3.45-3.58a33.67,33.67,0,0,0-3.82-2.08c-.07.2-.26.22-.44.26a1.58,1.58,0,0,0-1.77-.08c-1,.58-1.86,0-2.75,0-1.23,0-.8-1.39-.94-2a22,22,0,0,0-3-6.92,2.74,2.74,0,0,0-1.22-1.18c-.54-.23-1.28-.34-.57-1.25.23-.29-.32-.59-.68-.65a61.61,61.61,0,0,1-6.27-1.58c-1.9-.53-3.85-.3-5.77-1-1.36-.47-3.39,0-4.89-.57s-2.84,0-4.24-.19-3.19-.45-4.72.22a23.92,23.92,0,0,0,3.85,4.09c.89.89,2.19,1.28,2.82,2.43.68.19,1.54,0,1.87.9,2.89,1.51,5.85,2.85,8.86,4.11a7,7,0,0,1,2.29,1.33c.86.82,1.34,1.89,2.22,2.68.56.5,1.57.1,1.67.79.21,1.48,1.36,2.38,2.13,3.35,1.47,1.86,1.9,4,2.58,6.12s.73,4.63,1.06,7a66.19,66.19,0,0,1,.88,11.93,61.58,61.58,0,0,1-1.32,11.67c-.43,1.86-.22,3.88-.68,5.73a37.49,37.49,0,0,0-.73,8.06,87,87,0,0,0-.12,10.85c.09.94.07,1.89.17,2.83.08.73,1.07,1.34.28,2.19,0,0,.09.16.12.25.77,2.17,1.25,4.46,2.74,6.32.55.69.87,1.59,1.68,2a5.1,5.1,0,0,1,1.48,1.44c.52.64,1,1.39,2,.88a.82.82,0,0,1,.65.12c.23,1.81,2,1.48,3,1.89a14.87,14.87,0,0,0,6,.63,30.6,30.6,0,0,0,6.08-1.18c1.46.26,4.06-1,4.61-2.17l1.41-.46c.77-.33,1-1.21,1.63-1.64,2-1.43,3.09-3.58,4.24-5.64a22,22,0,0,0,2.2-5.95c.35-1.56.59-3.16.85-4.72C227.43,212.66,226.06,209.87,225.52,207Zm-48-62.29c-.86.09-1.23,1-2,1.19s-1.28-.43-1.61-1,1-1.94,2.27-1.88l1.36,1.56S177.57,144.71,177.56,144.72Zm2.51-1.36c-.47-.77-.81-1.39.6-1.25.35,0,.5-.66,1-.31,1.58-.21,1.68,1.43,2.58,2.1.23.17-.16.39-.32.48A3.59,3.59,0,0,1,180.06,143.35Zm8.59,10.35c-.5.45-1.14.28-1.22-.66,0-.35-.36-.14-.55,0-1,.53-1.5,0-1.94-.77a9.58,9.58,0,0,0-.56-1c-.26-.35-.92-.5-.63-1.12s.93-.37,1.48-.6c.42.49,1.73-.31,1.56,1.14.9,0,1.14.8,1.67,1.27A1.16,1.16,0,0,1,188.65,153.71Zm28.2,23.71a2.61,2.61,0,0,1,2.44,1.82,11.22,11.22,0,0,1,.47,3.17c.27,1.89-.44,2.37-2.15,1.52-.36-.18-1-.4-.81-1,.49-1.57-.34-2.91-.78-4.28C215.64,177.47,216.35,177.57,216.85,177.41ZM207.52,174c.6-.51,1.21-.46,2.14.17,1.3.89,1.13,2.41,2.24,3.17a3.4,3.4,0,0,0-.46,1.28c-.09.36-.84.3-.84.26,0-1.33-.68-.82-1.54-.82s-1-1.38-1.32-2.19C207.49,175.27,206.91,174.5,207.52,174Zm-1.25,6.65a1.84,1.84,0,0,1,1.74.61,5,5,0,0,1,.83,2.08c.15.67-.46.55-.77.6a2.33,2.33,0,0,1-2.4-2.58A.73.73,0,0,1,206.27,180.64ZM205,207.27a2.54,2.54,0,0,1-2.22-2.58c-.05-.66,0-1.34,0-2,0-.46-.08-.92.45-1.05a1.26,1.26,0,0,1,1.31.36,7.88,7.88,0,0,1,1.6,4.64C206.13,207.5,205.24,207,205,207.27Zm-.33,13.58a3.39,3.39,0,0,1-2.39-3.05c.05-.8-.08-1.61.74-1.7a2.05,2.05,0,0,1,2,.9,8.75,8.75,0,0,1,.94,3C205.93,220.4,205.81,221.31,204.63,220.85Zm-5.41-61.74a2.84,2.84,0,0,1,1.87-.47c1.37.18,2,1.26,2.38,2.38.21.56,1.3,1,.3,1.91a1.55,1.55,0,0,1-1.43.47c-.35,0-.83-.35-1.32-.86-.73-.75-1-1.82-1.76-2.51A.69.69,0,0,1,199.23,159.12Zm-6.8-1.65c1.19-.56,4.08,1.27,3.85,2.54-.15.79-1.19.63-1.76.81a3.46,3.46,0,0,1-2.72-2.65C191.81,157.8,192.13,157.61,192.42,157.47Zm.22,31.27c2.07-.09,2.21,0,2.74,2a6.47,6.47,0,0,1,0,3.27c-.25,1.07-.94,1.09-1.57.57s-1.25-.79-1.09-2A7.89,7.89,0,0,0,192.64,188.74Zm-.41-16.45c-.13-.29.08-.4.33-.49a2.29,2.29,0,0,1,2.61,1.87,11.41,11.41,0,0,0,.19,3c.34,1.1-.28,1-.82.83a3.6,3.6,0,0,1-2.39-3.28A3,3,0,0,0,192.24,172.29Zm0,43.81c-.73-.44-.09-1.26-.37-1.88a3.74,3.74,0,0,0-.22-2.05c-.21-.53-.17-1.08.51-1.26s1.32-.12,1.61.51c.46,1,1.2,1.95,1,3.18,0,.18,0,.38,0,.57-.1.65,1,1.53,0,1.87C193.93,217.31,193,216.57,192.25,216.11ZM197,229.36c-.34.22-.82.58-1.05-.2a.61.61,0,0,0-.45-.32c-.4,0-1,.7-1.14.08-.26-1.43-1.24-2.68-1-4.2.1-.74.64-.54,1.08-.44,1.51-.12,2,.66,2.06,2A2.28,2.28,0,0,0,197,228C197.47,228.46,197.61,229,197,229.36Zm-.33-22.47c-1.48-.51-2.12-1.74-2.12-4-.16-.55,0-1.46.36-1.43.71.08,1.62,0,2.08.93.61,1.28.53,2.68.8,4C198,207.24,197.15,207,196.68,206.89Zm0-38.45c.22-.75-.39-1.17-.58-1.73s-.63-1.67.22-2a1.72,1.72,0,0,1,2.3.87,29.78,29.78,0,0,1,1.19,3.9c.18.74-.16,1.17-1,1.06A2.14,2.14,0,0,1,196.69,168.44Zm4.57,12c-1.45,0-1.93-.56-2-2.08,0-1,.73-1.12,1.46-1.1a1.6,1.6,0,0,1,1.78,1.71C202.58,180,202.38,180.71,201.26,180.46Zm.91,8.36a1.29,1.29,0,0,1,1.6-.05c.83.59,1.82,1.22,1.58,2.51a5.93,5.93,0,0,0,.13,1.64,1.77,1.77,0,0,1-2,2c-.65-.13,0-.49-.23-.77a3.31,3.31,0,0,1-.6-3.34c.11-.27-.07-.45-.21-.64C202.11,189.75,201.6,189.37,202.18,188.82Zm3.33,45.75c-.24.17-.51.48-.73.19a21.34,21.34,0,0,1-2.68-3.83c-.42-.92.84-.69,1.31-.94.55,0,2.91,2,3.08,2.69C206.71,233.58,206.16,234.11,205.51,234.57Zm4.81-20.78c-.26.77-.88.37-1.3.25a3.33,3.33,0,0,1-2.51-2c-.27-.72-.69-1.48,0-1.86a2.14,2.14,0,0,1,2.05.41c.29.24.77.69.77,1-.4.78-.15.88.3,1A.88.88,0,0,1,210.32,213.8Zm-.41-27.68c-.13-.3.29-.72.87-.65a2.69,2.69,0,0,1,2.45,1.73,4.08,4.08,0,0,1-1.22,4.32,7.39,7.39,0,0,0-1.47-2.48C209.76,188.29,210.32,187.08,209.9,186.12Zm.91,15.67c-.12-.14-.06-.5.12-.46.82.19,1.9-1.17,2.48.42.18.49.85.24,1.15.72a2.49,2.49,0,0,1,.11,3,2,2,0,0,0-.59-.26C212,205,211.85,203,210.81,201.79Zm4.45,25.35a3.33,3.33,0,0,1-2.83-3.28c.08-.64.71-.62,1.14-.58.86.07,3,2.58,2.88,3.44S215.71,227.18,215.26,227.14Zm1.71-11c-.9-.5-.93.44-1.47.84-.13-1.65-1.92-2.25-2.06-3.81-.07-.76-.82-1.68.48-2.14a1.81,1.81,0,0,1,2.32,1.12c.54,1,.76,2.25,1.19,3.36C217.66,216.07,217.31,216.31,217,216.12Zm7.64.08c-.25.55-.89.54-1.37.64s-.15-.33-.16-.53l-.22-.23c-1.41-.63-1.54-2.12-2-3.29-.32-.72.37-1.22,1.19-1.12C223.64,211.86,225.29,214.73,224.61,216.2Zm.51,3.93c0-.08-.13-.16-.11-.23a1,1,0,0,1,.18-.29l.15.27Z" style="fill:#56b8c9;"/><path d="M109,152.71l0,0,0,0Z" style="fill:#56b8c9;"/><path d="M139,137.34c-.68-.53-1.16.43-1.85.56-2.36.43-4.76.57-7.12.91s-4.38.94-6.61,1.16c-1.16.12-2.1,1.15-3.39,1-.14,0-.48.41-.46.44,1,1.37-.58,1.17-1,1.67a15,15,0,0,0-2.51,4.24,19.8,19.8,0,0,0-1.49,5.2c0,.38-.42.5-.78.5-1.06,0-2.15.32-3.16-.12-.5-.22-.82,0-1.22.14-.18,0-.37-.05-.44-.26-.53.29-1.06.58-1.57.88-1.86,1.09-3.9,1.92-5.29,3.73-.36.47-.14,1.09-.71,1.47a3.74,3.74,0,0,0-1.38,3.22c-.08,1.72-.35,3.53,1.24,4.91-.94.34-1.59-.16-2.14-.07a27.86,27.86,0,0,0-9.49,3.62c-.69.39-1.52.39-2.12,1.08a29.18,29.18,0,0,0-3.6,4.24A18.19,18.19,0,0,0,81.36,185a14.81,14.81,0,0,0,1.7,7.41c1.48,2.81,2.94,5.41,5.7,7.09.53.32.44.67,0,1-.61-.06-1.27-.26-1.68.44-.2.41.15,1.09-.6,1.22-.2-.88-.55-.52-.9-.1l-1.7,1.43c-.79.47-1.49,1-1.43,2.06a1.59,1.59,0,0,0-1.31,1.19,47.31,47.31,0,0,0-1.48,6.73c-.27,2.36.5,4.65.93,7a31.35,31.35,0,0,0,2,5.59c.71,1.84,2.06,3.22,3.07,4.85,1.38,1,2.37,2.63,4.19,3.08.69,1.31,2,1.7,3.26,2.1.43.14,1,.8,1.53.15a8.6,8.6,0,0,0,1.63.47c1.86.16,3.66.62,5.59.67a21.85,21.85,0,0,0,7.47-1.52c.23-.07.51-.14.44-.44-.23-.93.52-.74.83-.6.91.44,1.27-.21,1.69-.73a6.41,6.41,0,0,1,2.85-2.36h0a1.06,1.06,0,0,1,.28-.9c.31-1.08,1.54-1.73,1.64-2.77.17-1.72,2-3.15.87-5.07,1.4-.81.78-2.23.89-3.36a9.41,9.41,0,0,0,.27-3.09,27.23,27.23,0,0,1-.17-4.5c-.16-2.69-.3-5.38-.34-8.08,0-1.68-.58-3.28-.66-4.93-.17-3.52-1-6.94-1.33-10.43-.26-2.64-.49-5.27-.5-7.91a108.27,108.27,0,0,1,1.18-12.71,23.36,23.36,0,0,1,2.75-9.5c.5-.84,1.11-1.53,1.66-2.3.76-1.06,1.07-2.48,2.67-2.69,1.46-2.74,3.93-4.14,6.73-5.11a41.08,41.08,0,0,0,8.49-4.19,21.21,21.21,0,0,0,6.75-6.37c-1.08-.08-2.24-.1-3.22-.21C141.72,137.44,140.32,138.32,139,137.34Zm-57.73,83c-.07,0-.18-.2-.16-.28s.07-.47.37-.44c.05,0,.08.23.11.31S81.55,220.4,81.32,220.38ZM88,217.21c-.37.32-.84,0-1.3-.16-1.9-.51-2.14-1.88-2.13-3.5a3.89,3.89,0,0,0-.3-1.24c-.24-.69-.4-1.48.55-1.56.66-.05,1.68-.31,1.88,1,.15,1,1.47,1.52,1,2.55a1.74,1.74,0,0,0,.27,1.52A1,1,0,0,1,88,217.21Zm26.57-22.41c-.15.56-1,1.24,0,2.15.22.2-.7.66-1.3.38a2.4,2.4,0,0,1-1.44-3.28l0-.14c.14-.53-.54-1.46.59-1.49A2.4,2.4,0,0,1,114.52,194.8Zm-4.06-23.11a1.64,1.64,0,0,1,2,1.15c.16.64.65,1.21.39,1.74.23,1.32-.54,1.21-1.06.89a3,3,0,0,1-1.69-1.93C110,172.87,109.56,171.91,110.46,171.69Zm-3.37-11.17c.16-.63.45-1,1.22-.46,1.64,1.1,2,2.34,1.09,4.38-.27.58-.19,1.46-1.07,1.68-.12,0-.22.15-.4.28-.49-.88-1.42-1.58-1.44-2.56A13.17,13.17,0,0,1,107.09,160.52Zm-4.79,14.36c.38-.63-.19-2,1.11-1.85a2.15,2.15,0,0,1,1.82,2.77c-.06.3-.45.55-.14.89s.28.87-.14,1.08-1.12.38-1.34.17a3.44,3.44,0,0,1-1.45-2.65A1.47,1.47,0,0,1,102.3,174.87ZM93.09,210.7c-.33.93.34,2.07-.62,2.83-.18.14-.48.66-.61.27-.38-1.13-2.31-1.32-1.75-2.84.06-.77.15-1.43.17-2.08,0-1.15.55-1.51,1.49-.86S93.55,209.4,93.09,210.7ZM88.5,183.34a2.44,2.44,0,0,1-1.56-3.1c.19-.93.88-1.76.42-2.83-.18-.42.37-.49.69-.4,1.19.3,1.77,1.06,1.7,2.71a8.56,8.56,0,0,0,0,2.8C90,183.33,89.21,183.58,88.5,183.34Zm.37,7.16c0-.74.41-1.46,0-2.25-.2-.36.17-.7.62-.77,1.36-.2,2.48.89,2.33,2.7.1.79.24,2,.43,3.12,0,.28.25.54,0,.77s-.51.1-.8,0A3.45,3.45,0,0,1,88.87,190.5ZM93,231.69c-1-.89-2.66-.88-3.07-2.52a14.13,14.13,0,0,0-.85-3.26c-.25-.48.65-.87,1.26-.77a1,1,0,0,1,1.23.6,8.17,8.17,0,0,1,1.4,3.18c.07.61.55,1.16.64,1.77C93.68,231.09,93.56,232.2,93,231.69Zm1.44-9.15c-.35.37-.67-.23-.58-.42.35-.78-.13-.92-.67-1.25a2.84,2.84,0,0,1-.69-3.15.72.72,0,0,1,1.08-.36c.68.39,1.76.42,1.82,1.5-.33.36-.1.54,0,.72C96.33,221,95.2,221.74,94.43,222.55Zm1.45-44.49a3.32,3.32,0,0,1-1.44-3.6c.11-.74-.07-1.68.77-2s2.08,1,2,2c0,.42,0,.84,0,1.26h0c0,.66,0,1.31,0,2,0,.5-.27.61-.68.73S96.1,178.21,95.88,178.06Zm.42,9.21c.21-.56-.06-1.45.06-2.24s.08-1.46,1-1.37,1.78.42,1.85,1.49-.11,2.08-.07,3.12a3,3,0,0,1-1.19,2.16c-.75.73-.46-.49-.74-.75h0C96.4,189.05,95.83,188.51,96.3,187.27Zm.88,18.08c-.82-1.55,0-2.9.2-4.3.09-.58-.06-1.36.63-1.92.31.33.12,1,1,.75.66-.19,1,.79,1,1.44.1,1.29-.62,2.52-.28,3.85.08.3-.4.78-.61.56C98.54,205.14,97.79,206.49,97.19,205.35ZM101.6,235c-.58.49-1.07-.17-1.51-.62a3.17,3.17,0,0,1-.87-3.83.65.65,0,0,1,.79-.46,1.52,1.52,0,0,1,1.45,2.23c-.28.48-.11.64.08,1C101.88,233.8,102,234.58,101.6,235Zm-.32-21.36c-.37-.33-.34-.9.35-1.18.42-.17,0-.44-.1-.66a2,2,0,0,1,0-2.16c.22-.38.84-.35,1.18-.15.61.34,1.45.51,1.29,1.62-.08.54.37,1.16.33,1.8-.08.47-.14.93-.24,1.39a.85.85,0,0,1-.78.73C102.31,215,101.88,214.13,101.28,213.59Zm4.18,8.46c-.15.61-.13,1.19-.23,1.78-.14.8-.41,1.57-.54,2.36-.16.95-.58.84-1.16.38-.61-.15-1.43-.09-1.11-1.14a7.79,7.79,0,0,1,.6-4.07c.2-.56.15-1.33,1.11-1.07S105.67,221.22,105.46,222.05Zm2-17.52c-.23.74.58,2-.93,2.11-1.13.06-2.19-1.5-2.06-2.68a25,25,0,0,0,.05-3c0-.8.2-1.14,1.09-.87,1.62.49,2,1.25,1.86,4.12C107.48,204.15,107.53,204.36,107.47,204.53Zm.35-12.67c-1.4-.5-1.31-1.88-1.68-2.91a12.49,12.49,0,0,0,.16-2.3c0-.7.4-1.52,1.16-1.48a1.32,1.32,0,0,1,1.39,1.41c.06.92.59,1.76,0,2.71a.87.87,0,0,0,.29,1.14.81.81,0,0,1,0,1.26A1.07,1.07,0,0,1,107.82,191.86Zm2.17,26c-.28-.64-1.07-1-.94-1.87a11,11,0,0,0,.29-2.67c0-.65,1.31-1.12,1.66-.58s1.44,1.12,1,2.37c-.31.85.3,1.92-.43,2.84S110.41,218.83,110,217.89Zm4.53,7.7a4.18,4.18,0,0,0-.86,2.44c0,.94-.58,1-1.23.46a2.67,2.67,0,0,1-1-3.14c.46-1.25,1-2.48,1.48-3.71.17-.42.16-1,.84-1s.93.44,1.21.89.34.66.53,1C114.73,223.43,115.16,224.66,114.53,225.59ZM116,205.38c-.2.64-.35,1.11.11,1.69a.71.71,0,0,1-.11,1,.79.79,0,0,1-.95,0c-.8-.65-2.34-.89-1.93-2.28a5.46,5.46,0,0,0,.05-2.49c-.13-.83.26-.76.76-.79A2.54,2.54,0,0,1,116,205.38Zm.45-45.95c-.09.34-.26.47-.52.5-.76,0-2.21-2.4-1.76-3s.27-1.31.48-1.95c.27-.82,1.15-1.33,1.74-.76a2.71,2.71,0,0,1,.91,2.09A21.44,21.44,0,0,1,116.42,159.43Zm7.62-11.6a.32.32,0,0,1-.47.17,3.14,3.14,0,0,1-1.4-2.4,2.06,2.06,0,0,1,1.28-1.83c.75-.33,1.7.71,1.69,1.95C124.82,146.34,124.44,147.09,124,147.83Zm11.8-6.29c-.39.54-.82,1-1.23,1.56-.18.24-.2.81-.62.57s-1-.4-.81-.84c.3-.69-.52-1.16-.19-1.62,0-.77,1.49-2.52,2-2.49C135.75,138.78,136.38,140.79,135.84,141.54Z" style="fill:#56b8c9;"/><path d="M157.23,116.13V116l0,.11Z" style="fill:#e66267;"/><path d="M186.47,207.43c.26,0,.53,0,.42.37-.77,2.49-.59,5.17-1.64,7.61a36.11,36.11,0,0,1-2.89,5.75,25.72,25.72,0,0,1-5.44,5.75,16.56,16.56,0,0,1-7.39,3.55c-2,.38-4,1.21-6.07,1.37-1.76.14-3.47.71-5.41.23a8.22,8.22,0,0,0-4.84.4,5.74,5.74,0,0,1-3.43-.31,17.06,17.06,0,0,0-4.27-.38,24.21,24.21,0,0,1-7.11-1c-1-.36-2-.39-3-.77a21.22,21.22,0,0,1-7.28-4.67,36,36,0,0,1-4.33-4.79,25.64,25.64,0,0,1-2.37-4.77c-1.13-2.59-1-5.47-1.75-8.16-.06-.21.24-.24.43-.23l.32,0-.12-.26c-.27-.51-.92-.79-.4-1.67.41-.69-.81-1.56-.31-2.54.64-1.27-.32-2.68.13-3.87.39-1-.13-1.84,0-2.7s.87-1.84.87-2.77c0-.74-.38-1.51.2-2.16s.25-1.65.9-2.44,1.18-2,1.83-3a2,2,0,0,1,1.49-1c.38-.06,1-.11.68-.86-.1-.26.19-.65.63-.6a.94.94,0,0,0,1.1-.7.87.87,0,0,1,1.08-.5,1.09,1.09,0,0,0,.88-.17c1.72-1,3.74-1,5.58-1,.94,0,2.6.07,3.26,1.5a1,1,0,0,0,.85.47c1.4.12,2.22,1.21,3.29,1.92.48.32.76,1.18,1.63.81.13-.06.47.15.59.31,1.31,1.69,3.21,2,5.14,2.29a4.08,4.08,0,0,1,1.2.44c.3.15.56.47.7-.15,0-.18.22-.38.42-.3,1.91.79,3.75-.31,5.67-.24a3.92,3.92,0,0,0,3.71-1.65c.43-.78,1.24-.45,1.79-.85a20.67,20.67,0,0,1,4.52-2.83c1-.4,1.95-1.29,3.11-1.54a6.57,6.57,0,0,1,3.6.09c.25.09.56.49.74.31.62-.64.9.1,1.34.19a24.16,24.16,0,0,1,3.74,1.57c.31.12.59.42.49.61-.34.66.26.84.53.87,1.49.14,1.81,1.38,2.53,2.34.52.7.56,1.74,1.49,2.15.09,0,.2.31.15.37-.67.92.29,1.45.53,2.12s-.37,1.56.12,2.48,1.43,2.19.06,3.3c1.51,1.67.19,3.7.63,5.57a4.53,4.53,0,0,1-.63,3.75l-.12.26Zm-48.35,19.83c.82.93.83.15.86-.43.1-2.13,0-4.27.2-6.41.06-.58.3-1.66-.67-1.94-1.32-.38-2.11-1.41-3.1-2.21-2.81-2.28-6.39-.82-7.12,2.73-.4,1.95,1,2.75,2,3.76a20.26,20.26,0,0,0,5.08,3.26l.21.09.59.22C136.5,227.26,137.39,227.07,138.12,227.25Zm21.47,1.5c2.23-.22,3.95-.4,5.66-.54,1.08-.09,1.37-.68,1.14-1.63a2.74,2.74,0,0,1-.13-.66c0-2.92.31-5.85-.12-8.77-.2-1.35-.71-1.89-2-1.72a31.53,31.53,0,0,1-7.89.3c-.51-.06-1.26.06-1.19.61.27,2.1-.37,4.16,0,6.27a22.56,22.56,0,0,1,0,5.07c-.09,1.19.31,1.45,1.1,1.27C157.45,228.64,158.8,229,159.59,228.75Zm-6.81-9.29c0-.85,0-1.71,0-2.56,0-1.22-.66-1.63-1.68-1.36-2.37.62-4.81-.22-7.2.4a2.09,2.09,0,0,1-1.37.17c-1.09-.44-1.27.3-1.14,1.1.51,3.12,0,6.25.19,9.37.1,1.88-.09,1.93,1.76,2,2.66,0,5.3.37,8,.3,1.22,0,1.52-.26,1.51-1.36C152.8,224.8,152.44,222.13,152.78,219.46Zm-9.92-26.9c0-2-.06-2.45-1.26-3.61a9.9,9.9,0,0,0-3.35-2.3c-1.43-.54-2.55-.1-2.81,1.39-.32,1.8-.3,3.65-.47,5.47-.12,1.23.5,2.39.23,3.65a6.43,6.43,0,0,0,.16,2.39c.14.74,1.32,1.23,2,1.83,1.15,1,2.72,1.1,3.79,2.2a1.56,1.56,0,0,0,1.59.4c.66-.26.21-.9.19-1.37C142.87,199.27,143.31,196,142.87,192.55Zm20.25-2.34c-2.06,1.38-4.44,1.36-6.7,1.71-1.15.18-1.22.78-1.12,1.6a25.6,25.6,0,0,1,.27,5.91c-.2,1.74.17,3.49-.13,5.23-.1.58.19,1.14.9.91,1.81-.59,3.7-.23,5.53-.57,1.13-.21,2.21-.29,2-2-.18-1.27,0-2.59-.18-3.87-.09-.83.36-1.67.13-2.4C163.1,194.65,163.88,192.42,163.11,190.21Zm-10.24,3.53c-.35-.62.49-1.46-.63-1.49a25.85,25.85,0,0,1-6-1.11c-.36-.1-.79-.16-.72.62.14,1.65.08,3.32.08,5a6.72,6.72,0,0,0,0,2.29,8.53,8.53,0,0,1,.21,3.58c0,2,.4,2.51,2.37,2.57a21.19,21.19,0,0,1,4,.09c.71.16.64-.07.76-.51.32-1.13-.36-2.24-.19-3.27C153.15,198.82,152.27,196.18,152.87,193.75Zm19.33.6c.16-2-.4-3.89-.4-5.86,0-.79-.23-2-1.6-2-1.84,0-3.12,1.14-4.47,2.18-.92.7-.2,1.47-.19,2.19a63.16,63.16,0,0,1,.14,6.92c-.16,1.69.85,3.35,0,5,.24.12,0,.78.49.54a39.19,39.19,0,0,0,4-2.25c.64-.43,1.68-.85,1.7-1.62C171.88,197.74,172.41,196.07,172.2,194.35ZM168.74,223c-.13,1,.17,2-.26,2.9a.69.69,0,0,0,.31.88c.35.2.45-.24.69-.32a18.21,18.21,0,0,0,2.69-1.37c2.8-1.42,4.75-3.87,6.59-6.36a1.26,1.26,0,0,0,.2-1.35,9.94,9.94,0,0,0-3.42-3.88c-.15-.09-.23-.23-.48-.1-1.67.87-3.54,1.44-4.82,2.86-.61.68-1.73,1.08-1.54,2.45A31.19,31.19,0,0,1,168.74,223Zm-45.49-12.21c0,.58-.12,1,0,1.21a16.3,16.3,0,0,1,2.1,4.24c.09.32.32,1.13,1.12.13,1.21-1.53,2.42-3.27,4.6-3.71.52-.1.32-.5.18-.9-.46-1.31-1.7-2-2.28-3.22-.8-1.63-2.27-2.07-3.78-2.39-1.07-.23-2.94,2.13-2.33,2.92A1.85,1.85,0,0,1,123.25,210.77Zm57.49,3.83a14.15,14.15,0,0,0,1.77-4.5,22.45,22.45,0,0,0,.29-3.95c0-.59-1.06-.76-.6-1.64.09-.18-3.11-.25-3.69.28-2,1.82-2.91,4.33-4.54,6.78C177.3,210.8,179.32,212.13,180.75,214.6Z" style="fill:#1c3c4b;"/><path d="M150.88,166.41a8.94,8.94,0,0,1,.05,3.91c-.91,4.16-5.18,6.76-8.94,4.67-1.47-.82-2.75-2.09-4.38-2.7a4.09,4.09,0,0,0-2.84-.39c-.77.25-1.58-.1-2.48.17a18,18,0,0,0-4.66,2.67c-1.42.94-3,2-4.89,1.55a4.37,4.37,0,0,1-2.8-2c-1.56-2.5-1.21-4.93-.32-7.43.21-.6-.42-1,.09-1.77,1.26-1.79,1.56-4.32,4.25-4.92.36-.08.6-.7.88-1.08s.8-1,1.54-.64,1.05-.76,1.63-.76c1.66,0,3-1.27,4.82-.95a9.61,9.61,0,0,0,3.42-.61,7.12,7.12,0,0,1,4,.34c4.32,1.27,8.11,3.42,10.24,7.69A3.33,3.33,0,0,1,150.88,166.41ZM134,159.59a1.72,1.72,0,0,0-1.35.31c-1.67,1.28-3,2.6-3.22,5s.28,3.59,2.57,4.42c.7.25,1.6-.67,2.06.42l.12-.06a8.12,8.12,0,0,0,3-2c1.32-1.19,1.26-2.73,1.35-4.45.1-1.89-1.51-2-2-3.06-.31-.66-.93.8-1.21-.11S134.66,159.45,134,159.59Z" style="fill:#f4f5f5;"/><path d="M146.25,137.78c.52-.41,1.29-.47,1.51-1.3.16-.59.52,0,.71.07a6.43,6.43,0,0,0,4.67.49c.66-.19,1.56.24,2.48.13a5,5,0,0,0,2.41-.61c.39-.27.71-.53,1,.29.12.41.88.63,1.36.94a23.92,23.92,0,0,0,3.85,4.09c.89.89,2.19,1.28,2.82,2.43-.57-.05-.93.4-1.41.56a50.5,50.5,0,0,0-7.31,1.26,29.4,29.4,0,0,0-5,1.37c-1.3.59-2.93.38-4.38.68-2.31.46-4.56,1.25-6.88,1.54-3.22.4-6.27,1.51-9.51,1.93-1.76.22-3.63.86-5.47,1.25-.93.2-1.87.37-2.81.56,1.46-2.74,3.93-4.14,6.73-5.11a41.08,41.08,0,0,0,8.49-4.19A21.21,21.21,0,0,0,146.25,137.78Zm12.19-.34c0-.06.16-.14.15-.2a.18.18,0,0,0-.3-.13c-.06,0-.07.14-.11.21Zm-10.08-.05c.13-.08.13-.16,0-.22l-.26-.1v.36Z" style="fill:#f4c02f;"/><path d="M165.61,144.87c.48-.16.85-.62,1.41-.56s1.54,0,1.87.9c-.33.93-.94,1.78-.78,2.86.09.63-.46.92-.85,1.24-2.22,1.79-4.47,3.55-6.62,5.42a19.5,19.5,0,0,0-3.71,3.42.72.72,0,0,1-1.12.17c-.61-.43-1.68-.22-1.78-1.36-.24-2.66.47-3.91,3-5.07.28-.13.43-.37.64-.5,1.1-.67,1.44-2.32,3.11-2.33a2,2,0,0,0,1.18-.87c.58-1.54,2.14-1.85,3.21-2.75A.91.91,0,0,0,165.61,144.87Z" style="fill:#1c3c4b;"/><path d="M149,179.32c.6-1.56,2.4-2,3.17-3.44a.6.6,0,0,1,.9-.12c.62.47,1.3,1,1.22,1.84-.16,1.54.89,2.94.26,4.52a72,72,0,0,0,5.69-4.53c.24-.24.64-.93,1-.28s1.39,1.18.57,1.94a36.8,36.8,0,0,1-7.47,5.81c-1.44.78-1.44-1.1-1.83-1.78a3,3,0,0,1-.19-2.34,1.21,1.21,0,0,0-.32-1.3c-.33-.25-.71.3-1.07.51-.38,0-1.05.12-.39-.61.19-.2.79-.29.46-.67s-.68,0-.89.33C149.72,179.7,149.36,179.58,149,179.32Z" style="fill:#56b8c9;"/><path d="M149,179.32c.39.27.75.38,1.06-.13.2-.32.56-.7.89-.33s-.27.47-.46.67c-.67.73,0,.57.39.61-1.21,1.24-2.42,2.49-3.65,3.72-.34.34-.73.45-1.06-.09s-.85-1.82-.14-2c1.2-.31,1.14-1.51,2-2A2.15,2.15,0,0,1,149,179.32Z" style="fill:#48a1b4;"/><path d="M187.26,166.28a5.41,5.41,0,0,0-1.3-3.55,14.94,14.94,0,0,0-4.25-4A19.35,19.35,0,0,0,174,156c-2.28-.19-4.57.57-6.85.92-1.71.26-3.28,1.35-5.08,1.52a.71.71,0,0,0-.5.27c-.65,1.23-2,1.62-3,2.44a1.85,1.85,0,0,0-.85.75c-.62,1.67-1.67,3.11-2,5-.45,2.65-1.09,5.14.56,7.63a4.37,4.37,0,0,0,2.52,1.69c2.1.65,4-.52,5.47-1.72a16.32,16.32,0,0,1,4.33-2.42c.86-.37,1.62,0,2.35-.14,1.93-.49,3.43.52,4.94,1.32.93.5,1.77,1.31,2.68,1.8,3.72,2,7.88-1,8.64-4.77A20.59,20.59,0,0,0,187.26,166.28Zm-28.06-3.71-.29-.29,0,0,.29.28.11.08Zm1.28-1.51a2,2,0,0,1-.23-.11s.07-.11.08-.11a1.75,1.75,0,0,1,.23.11S160.5,161.06,160.49,161.06ZM174,168.83c-1.19.52-2.5-.11-3.42.22-1.53.55-2-.47-2.88-1a1.65,1.65,0,0,1-.73-2.06,2.88,2.88,0,0,0-.21-2.26,1.14,1.14,0,0,1,0-.69,6.8,6.8,0,0,1,5.79-4.16c1.34-.26,2.14.37,2.84,1.51.52.84,1.68,1.1,1.84,2.41A5.91,5.91,0,0,1,174,168.83Z" style="fill:#f4f5f5;"/><path d="M115.07,231.67a1.06,1.06,0,0,1,.28-.9C116,231.3,115.08,231.34,115.07,231.67Z" style="fill:#153747;"/><path d="M119,238.43l-.1-.21c.07,0,.15-.1.22-.08s.09.12.13.18Z" style="fill:#153747;"/><path d="M294.11,153.14c1-.13,1.78.7,2.66,1.25,1,.65.65,1.75.94,2.61.69,2,.15,4.06.27,6a29,29,0,0,1-.15,7.89c-.23,1.07.56,2.2.35,3.36-.29,1.6-.05,3.23-.23,4.85s.3,3.68.3,5.54c0,1.68.1,3.36,0,5a18.17,18.17,0,0,0,0,3.81c.15.88-.41,1.77-.24,2.7.08.42-.95,1,.23,1.26-.71,1.18.41,2.53-.28,3.65-.46.75-.35,1.58-.66,2.31-.68,1.59-2.26,2-3.63,2.74a1.43,1.43,0,0,1-1.36-.28,5.84,5.84,0,0,1-2.73-4.71,31.78,31.78,0,0,1-.12-7.6c0-.19.13-.39.09-.57-.6-2.45.16-4.92-.12-7.41-.16-1.45-.56-3.13.47-4.56a.73.73,0,0,0,.05-.4c-1.41-.3-.48-1.26-.54-1.93a65.15,65.15,0,0,1-.1-8.32c.07-2.15.07-4.32.09-6.44,0-1.52,0-3.14-.05-4.72-.06-1.15.87-2.18.35-3.42-.09-.22.26-.94.87-1.16C291.77,154.26,292.58,153.09,294.11,153.14Zm1.84,9.46a9.77,9.77,0,0,0-.4-4.06c-.33-1.37-1-2-2.3-1.74-.39.07-.79.18-.91.59s.4.62.7.73a1.73,1.73,0,0,1,1.32,1.91c-.12,3.17.2,6.33,0,9.53-.19,3.4-.22,6.83-.21,10.26,0,2.69.15,5.38-.07,8.11-.37,4.49-.3,9.05-.46,13.58a1,1,0,0,0,.52,1c.5.26.51-.38.77-.58.75-.58.29-1.36.35-2,.2-2.06.06-4.16.27-6.21.19-1.83-.15-3.68.17-5.46a38.66,38.66,0,0,0,.14-5.74c0-1.39-.1-2.79-.1-4.19,0-1.17-.73-2.38.2-3.51.09-.12,0-.38,0-.57a23.79,23.79,0,0,1,0-4.2A36.79,36.79,0,0,0,295.94,162.6Z" style="fill:#1c3c4b;"/><path d="M319.21,156.84c-.57,1.68.06,3.56-.67,5.31-.41,1-.11,2.12-.37,3.2-.49,2.05-.56,4.18-1.08,6.25a28.15,28.15,0,0,0-.43,5.37,1.85,1.85,0,0,1-.1.83c-1.28,2.39-.57,5.1-1.26,7.58-.45,1.62-.42,3.31-.79,5A13.11,13.11,0,0,0,314,194c.05.9-.66,1.82-.75,2.81,0,.37-1,.8.13,1.09.25.07,0,.3-.19.32s-.61.23-.42.39c1.1.92.08,1.89-.14,2.56-.75,2.26-2.05,4.21-4.74,4.61a2.19,2.19,0,0,1-1.13-.05,4.78,4.78,0,0,1-2.36-3.94c0-.7-.23-1.42-.17-2.12.24-2.53.69-5,1.11-7.52a65.23,65.23,0,0,0,1.17-7.14c.08-1.55-.06-3.31,1.21-4.62.06-.06.12-.22.08-.26-1.57-1.85.78-3.75-.07-5.6,0-.07,0-.19.07-.27,1.18-2.25,1-4.72,1.08-7.13a8.87,8.87,0,0,1,.55-2c.64-2.17.27-4.47,1.1-6.55.42-1.07.59-2.21,1-3.23.79-1.89,4.95-2.45,6.26-.87C318.33,155.14,319.72,155.43,319.21,156.84Zm-2.56,3a5,5,0,0,0,.08-.74c-.12-1.56-1.13-2.52-2.37-2.27-.18,0-.43,0-.44.26a.6.6,0,0,0,.23.46c1.53.84.62,2.55,1.33,3.67-1.38,2.88-1.14,6.08-1.71,9.12-.49,2.61-1.6,5.2-1,8,0,.11-.09.28-.18.37-1.07,1-1,2.33-1,3.6,0,.53-.3,1-.34,1.48-.17,1.73-1.26,3.22-1.14,5,.13,2-.73,4-.83,6a17.4,17.4,0,0,1-1.4,5.28,1.34,1.34,0,0,0,.5,1.64c.69.29,1-.62,1-1.06.46-2.41,1.36-4.72,1.63-7.17.2-1.86.53-3.71.84-5.54.36-2.13.9-4.24,1.36-6.36.16-.74-.48-1.55.14-2a2.66,2.66,0,0,0,.81-2c.26-2,.69-4.05,1-6.08C315.74,167.51,317.05,163.68,316.65,159.82Z" style="fill:#1c3c4b;"/><path d="M275.42,156.76a7.85,7.85,0,0,1,1.17,3.38c.19,1.05.74,2.06.22,3.17-.18.38.25.58.34.89a39.32,39.32,0,0,1,1.11,7.29,4.75,4.75,0,0,0,.44,2,1.93,1.93,0,0,1,.28,1.78c-.43,1,.67,1.85.36,3-.14.52.92,1.33-.33,1.76a.88.88,0,0,0,.1.39c1.28,2,1.25,4.19,1.39,6.39a3.74,3.74,0,0,0,.13.83c.7,2.44.92,5,1.46,7.43a44.26,44.26,0,0,1,.5,7.64c.07,1.77-2.64,3.19-4.36,2.81-2.76-.61-3.32-2.76-4.11-4.91-.27-.73,0-1.65-.15-1.94-.56-1.21-.23-2.56-.9-3.76a9.61,9.61,0,0,1-.62-3.17c-.35-2.32-.69-4.64-1-7-.22-1.64-.74-3.27-.27-4.93.19-.66-.52-.59-.68-1.06a13.69,13.69,0,0,1-.56-4.5c0-2.59-.77-5-1.06-7.57a29.66,29.66,0,0,0-1-6.48c-.38-1.1,0-2.27-.24-3.44-.32-1.58,2.59-3.71,4-3.35a14.33,14.33,0,0,1,3.33,1.26A1.67,1.67,0,0,1,275.42,156.76Zm0,10.42a1.6,1.6,0,0,0,0-.56,14.67,14.67,0,0,1-.84-5.61,5.2,5.2,0,0,0-1.93-3.83c-.33-.32-.83-.67-1.09-.31a1.13,1.13,0,0,0,0,1.41,4.77,4.77,0,0,1,1.12,2.4c.31,2.17.77,4.33,1.17,6.49,0,.31-.51.7.14.91.11,2.06.18,4.12.34,6.17.14,1.78.85,3.44,1.11,5.22a36.25,36.25,0,0,0,1.27,5.91c.93,2.84.92,5.81,1.41,8.71.33,2,.56,4,.93,5.92.11.58.44,1.37,1.19,1.18.53-.14.69-.87.52-1.46-.66-2.3-.49-4.71-.94-7-.11-.59-.76-1-.55-1.56.5-1.37-.18-2.63-.4-3.88-.68-3.83-1.69-7.6-2.48-11.41-.14-.66-.68-1.13-.59-1.87a23.21,23.21,0,0,0-.55-5.68A1.15,1.15,0,0,0,275.38,167.19Z" style="fill:#1c3c4b;"/><path d="M216.85,177.41a2.61,2.61,0,0,1,2.44,1.82,11.22,11.22,0,0,1,.47,3.17c.27,1.89-.44,2.37-2.15,1.52-.36-.18-1-.4-.81-1,.49-1.57-.34-2.91-.78-4.28C215.64,177.47,216.35,177.57,216.85,177.41Z" style="fill:#e0bd2f;"/><path d="M205.36,191.28a5.92,5.92,0,0,0,.13,1.64,1.77,1.77,0,0,1-2,2c-.65-.13,0-.49-.23-.77a3.31,3.31,0,0,1-.6-3.34c.11-.27-.07-.45-.21-.64-.31-.4-.82-.78-.25-1.33a1.29,1.29,0,0,1,1.6-.05C204.61,189.36,205.59,190,205.36,191.28Z" style="fill:#e0bd2f;"/><path d="M196.69,168.44c.22-.75-.39-1.17-.58-1.73s-.63-1.67.22-2a1.72,1.72,0,0,1,2.3.87,29.78,29.78,0,0,1,1.19,3.9c.18.74-.16,1.17-1,1.06A2.14,2.14,0,0,1,196.69,168.44Z" style="fill:#e0bd2f;"/><path d="M192.64,188.74c2.07-.09,2.21,0,2.74,2a6.47,6.47,0,0,1,0,3.27c-.25,1.07-.94,1.09-1.57.57s-1.25-.79-1.09-2A7.89,7.89,0,0,0,192.64,188.74Z" style="fill:#e0bd2f;"/><path d="M191.88,214.23a3.74,3.74,0,0,0-.22-2.05c-.21-.53-.17-1.08.51-1.26s1.32-.12,1.61.51c.46,1,1.2,1.95,1,3.18,0,.18,0,.38,0,.57-.1.65,1,1.53,0,1.87-.81.27-1.72-.47-2.49-.93S192.17,214.85,191.88,214.23Z" style="fill:#e0bd2f;"/><path d="M202.34,163.4c-.35,0-.83-.35-1.32-.86-.73-.75-1-1.82-1.76-2.51a.69.69,0,0,1,0-.92,2.84,2.84,0,0,1,1.87-.47c1.37.18,2,1.26,2.38,2.38.21.56,1.3,1,.3,1.91A1.55,1.55,0,0,1,202.34,163.4Z" style="fill:#d8bd38;"/><path d="M215.49,217c-.13-1.65-1.92-2.25-2.06-3.81-.07-.76-.82-1.68.48-2.14a1.81,1.81,0,0,1,2.32,1.12c.54,1,.76,2.25,1.19,3.36.23.59-.12.82-.46.63C216.06,215.62,216,216.56,215.49,217Z" style="fill:#d8bd38;"/><path d="M194.42,224.28c1.51-.12,2,.66,2.06,2A2.28,2.28,0,0,0,197,228c.43.42.56.93,0,1.32-.34.22-.82.58-1.05-.2a.61.61,0,0,0-.45-.32c-.4,0-1,.7-1.14.08-.26-1.43-1.24-2.68-1-4.2C193.44,224,194,224.18,194.42,224.28Z" style="fill:#d8bd38;"/><path d="M212,191.53a7.39,7.39,0,0,0-1.47-2.48c-.78-.76-.22-2-.64-2.93-.13-.3.29-.72.87-.65a2.69,2.69,0,0,1,2.45,1.73A4.08,4.08,0,0,1,212,191.53Z" style="fill:#e0bd2f;"/><path d="M192.15,174.2a3,3,0,0,0,.08-1.91c-.13-.29.08-.4.33-.49a2.29,2.29,0,0,1,2.61,1.87,11.4,11.4,0,0,0,.19,3c.34,1.1-.28,1-.82.83A3.6,3.6,0,0,1,192.15,174.2Z" style="fill:#e0bd2f;"/><path d="M211.9,177.32a3.4,3.4,0,0,0-.46,1.28c-.09.36-.84.3-.84.26,0-1.33-.68-.82-1.54-.82s-1-1.38-1.32-2.19c-.25-.58-.83-1.36-.22-1.87s1.21-.46,2.14.17C211,175,210.79,176.57,211.9,177.32Z" style="fill:#e0bd2f;"/><path d="M205,207.27a2.54,2.54,0,0,1-2.22-2.58c-.05-.66,0-1.34,0-2,0-.46-.08-.92.45-1.05a1.26,1.26,0,0,1,1.31.36,7.88,7.88,0,0,1,1.6,4.64C206.13,207.5,205.24,207,205,207.27Z" style="fill:#e0bd2f;"/><path d="M194.56,202.91c-.16-.55,0-1.46.36-1.43.71.08,1.62,0,2.08.93.61,1.28.53,2.68.8,4,.17.82-.65.63-1.12.47C195.2,206.38,194.56,205.15,194.56,202.91Z" style="fill:#e0bd2f;"/><path d="M222.86,216.09c-1.41-.63-1.54-2.12-2-3.29-.32-.72.37-1.22,1.19-1.12,1.64.2,3.29,3.07,2.61,4.53-.25.55-.89.54-1.37.64s-.15-.33-.16-.53l.11-.32Z" style="fill:#d8bd38;"/><path d="M185.23,149.53c.42.49,1.73-.31,1.56,1.14.9,0,1.14.8,1.67,1.27a1.16,1.16,0,0,1,.19,1.77c-.5.45-1.14.28-1.22-.66,0-.35-.36-.14-.55,0-1,.53-1.5,0-1.94-.77a9.58,9.58,0,0,0-.56-1c-.26-.35-.92-.5-.63-1.12S184.68,149.77,185.23,149.53Z" style="fill:#d8bd38;"/><path d="M203.41,230c.55,0,2.91,2,3.08,2.69.23.89-.32,1.42-1,1.89-.24.17-.51.48-.73.19a21.34,21.34,0,0,1-2.68-3.83C201.68,230,202.94,230.25,203.41,230Z" style="fill:#d8bd38;"/><path d="M202.24,217.8c.06-.8-.08-1.61.74-1.7a2.05,2.05,0,0,1,2,.9,8.75,8.75,0,0,1,.94,3c.06.42-.07,1.32-1.24.87A3.39,3.39,0,0,1,202.24,217.8Z" style="fill:#d8bd38;"/><path d="M214.68,205.51a2,2,0,0,0-.59-.26c-2.07-.24-2.24-2.26-3.28-3.46-.12-.14-.06-.5.12-.46.82.19,1.9-1.17,2.48.42.18.5.85.24,1.15.72A2.49,2.49,0,0,1,214.68,205.51Z" style="fill:#e0bd2f;"/><path d="M209.37,211.57c-.4.78-.15.88.3,1a.88.88,0,0,1,.64,1.23c-.26.77-.88.37-1.3.25a3.33,3.33,0,0,1-2.51-2c-.27-.72-.69-1.48,0-1.86a2.14,2.14,0,0,1,2.05.41C208.89,210.81,209.38,211.26,209.37,211.57Z" style="fill:#d8bd38;"/><path d="M194.52,160.82a3.46,3.46,0,0,1-2.72-2.65c0-.37.33-.56.63-.7,1.19-.56,4.08,1.27,3.85,2.54C196.12,160.8,195.08,160.64,194.52,160.82Z" style="fill:#d8bd38;"/><path d="M215.26,227.14a3.33,3.33,0,0,1-2.83-3.28c.08-.64.71-.62,1.14-.58.86.07,3,2.58,2.88,3.44S215.71,227.18,215.26,227.14Z" style="fill:#e0bd2f;"/><path d="M181.65,141.79c1.58-.21,1.68,1.43,2.58,2.1.23.17-.16.39-.32.48a3.59,3.59,0,0,1-3.85-1c-.47-.77-.81-1.39.6-1.25C181,142.14,181.16,141.44,181.65,141.79Z" style="fill:#d8bd38;"/><path d="M201.26,180.46c-1.45,0-1.93-.56-2-2.08,0-1,.73-1.12,1.46-1.1a1.6,1.6,0,0,1,1.78,1.71C202.58,180,202.38,180.71,201.26,180.46Z" style="fill:#d8bd38;"/><path d="M208.07,183.92a2.33,2.33,0,0,1-2.4-2.58.73.73,0,0,1,.6-.7,1.84,1.84,0,0,1,1.74.61,5,5,0,0,1,.83,2.08C209,184,208.38,183.88,208.07,183.92Z" style="fill:#e0bd2f;"/><path d="M176.22,143l1.36,1.56s0,.13,0,.13c-.86.09-1.23,1-2,1.19s-1.28-.43-1.61-1S174.91,143,176.22,143Z" style="fill:#d8bd38;"/><path d="M225.33,219.88l-.21.25c0-.08-.13-.16-.11-.23a1,1,0,0,1,.18-.29Z" style="fill:#fffefe;"/><path d="M197.13,153c.1-.18.17-.4.46-.29C197.53,152.95,197.32,153,197.13,153Z" style="fill:#fffefe;"/><path d="M115.48,222.57c-.75.86-.32,2.09-1,3a4.17,4.17,0,0,0-.86,2.44c0,.94-.58,1-1.23.46a2.67,2.67,0,0,1-1-3.14c.46-1.25,1-2.48,1.48-3.71.17-.42.16-1,.84-1s.93.44,1.21.89S115.29,222.2,115.48,222.57Z" style="fill:#e0bd2f;"/><path d="M87.66,214.25a1.75,1.75,0,0,0,.27,1.52,1,1,0,0,1,0,1.44c-.37.32-.84,0-1.3-.16-1.9-.51-2.14-1.88-2.13-3.5a3.89,3.89,0,0,0-.3-1.24c-.24-.69-.4-1.48.55-1.56.66-.05,1.68-.31,1.88,1C86.81,212.66,88.13,213.22,87.66,214.25Z" style="fill:#e0bd2f;"/><path d="M107.48,204.22c0-.07,0,.14,0,.31-.23.74.58,2-.93,2.11-1.13.06-2.19-1.5-2.07-2.68a25,25,0,0,0,.05-3c0-.8.2-1.14,1.09-.87C107.24,200.59,107.65,201.35,107.48,204.22Z" style="fill:#e0bd2f;"/><path d="M90.34,225.14a1,1,0,0,1,1.23.6,8.17,8.17,0,0,1,1.4,3.18c.07.61.55,1.16.64,1.77.06.4-.06,1.5-.62,1-1-.89-2.66-.88-3.07-2.52a14.13,14.13,0,0,0-.85-3.26C88.83,225.43,89.73,225,90.34,225.14Z" style="fill:#e0bd2f;"/><path d="M91.8,190.19c.1.79.24,2,.43,3.12,0,.28.25.54,0,.77s-.51.1-.8,0a3.45,3.45,0,0,1-2.51-3.57c0-.74.41-1.46,0-2.25-.2-.36.17-.7.62-.77C90.83,187.29,92,188.38,91.8,190.19Z" style="fill:#e0bd2f;"/><path d="M106.14,189a12.5,12.5,0,0,0,.16-2.3c0-.7.4-1.52,1.16-1.48a1.32,1.32,0,0,1,1.39,1.41c.06.92.59,1.76,0,2.71a.87.87,0,0,0,.29,1.14.81.81,0,0,1,0,1.26,1.07,1.07,0,0,1-1.31.18C106.43,191.37,106.52,190,106.14,189Z" style="fill:#e0bd2f;"/><path d="M97.18,189.67c-.78-.62-1.35-1.16-.88-2.4.21-.56-.06-1.45.06-2.24s.08-1.46,1-1.37,1.78.42,1.85,1.49-.11,2.08-.07,3.12a3,3,0,0,1-1.19,2.16c-.75.73-.46-.49-.74-.75.27,0,.45-.08.46-.37,0,0-.12-.14-.18-.14C97.13,189.19,97.18,189.44,97.18,189.67Z" style="fill:#e0bd2f;"/><path d="M98,199.13c.31.33.12,1,1,.75.65-.19,1,.79,1,1.44.1,1.29-.62,2.52-.28,3.85.08.3-.4.78-.61.56-.59-.6-1.34.76-1.94-.38-.82-1.55,0-2.9.2-4.3C97.47,200.47,97.33,199.69,98,199.13Z" style="fill:#e0bd2f;"/><path d="M107.92,166.39c-.49-.88-1.42-1.58-1.44-2.56a13.17,13.17,0,0,1,.61-3.32c.16-.63.45-1,1.22-.46,1.64,1.1,2,2.34,1.09,4.38-.27.58-.19,1.46-1.07,1.68C108.2,166.14,108.1,166.26,107.92,166.39Z" style="fill:#d8bd38;"/><path d="M89.75,179.71a8.56,8.56,0,0,0,0,2.8c.26.81-.57,1.06-1.29.82a2.44,2.44,0,0,1-1.56-3.1c.19-.93.88-1.76.42-2.83-.18-.42.37-.49.69-.4C89.23,177.3,89.82,178.06,89.75,179.71Z" style="fill:#e0bd2f;"/><path d="M109.06,216a11,11,0,0,0,.29-2.67c0-.65,1.31-1.12,1.66-.58s1.44,1.12,1,2.37c-.31.85.3,1.92-.43,2.84s-1.14.86-1.55-.08C109.71,217.25,108.92,216.87,109.06,216Z" style="fill:#e0bd2f;"/><path d="M90.11,211c.06-.77.15-1.43.17-2.08,0-1.15.55-1.51,1.49-.86s1.78,1.39,1.32,2.69c-.33.93.34,2.07-.62,2.83-.18.14-.48.66-.61.27C91.48,212.67,89.55,212.47,90.11,211Z" style="fill:#e0bd2f;"/><path d="M104.31,212.86c-.08.47-.14.93-.24,1.39a.85.85,0,0,1-.78.73c-1,0-1.41-.86-2-1.39-.37-.33-.34-.9.35-1.18.42-.17,0-.44-.1-.66a2,2,0,0,1,0-2.16c.22-.38.84-.35,1.18-.15.61.34,1.45.51,1.29,1.62C103.91,211.6,104.35,212.21,104.31,212.86Z" style="fill:#d8bd38;"/><path d="M102.42,225.43a7.79,7.79,0,0,1,.6-4.07c.2-.56.15-1.33,1.11-1.07s1.53.92,1.32,1.76c-.15.61-.13,1.19-.23,1.78-.14.8-.41,1.57-.54,2.36-.16.95-.58.84-1.16.38a1.18,1.18,0,0,0-.29-1.41C102.84,224.8,102.72,225.41,102.42,225.43Z" style="fill:#e0bd2f;"/><path d="M97.23,175.77c0,.66,0,1.31,0,2,0,.5-.27.61-.68.73s-.46-.26-.68-.4a3.32,3.32,0,0,1-1.44-3.6c.11-.74-.07-1.68.77-2s2.08,1,2,2c0,.42,0,.84,0,1.26Z" style="fill:#e0bd2f;"/><path d="M113.91,202.5a2.54,2.54,0,0,1,2.06,2.88c-.2.64-.35,1.11.11,1.69a.71.71,0,0,1-.11,1,.79.79,0,0,1-.95,0c-.8-.65-2.34-.89-1.93-2.28a5.46,5.46,0,0,0,.05-2.49C113,202.45,113.41,202.52,113.91,202.5Z" style="fill:#e0bd2f;"/><path d="M115.9,159.93c-.76,0-2.21-2.4-1.76-3s.27-1.31.48-1.95c.27-.82,1.14-1.33,1.74-.76a2.71,2.71,0,0,1,.91,2.09,21.44,21.44,0,0,1-.85,3.08C116.33,159.77,116.16,159.9,115.9,159.93Z" style="fill:#d8bd38;"/><path d="M102.16,175.29a1.47,1.47,0,0,1,.14-.41c.38-.63-.19-2,1.11-1.85a2.15,2.15,0,0,1,1.82,2.77c-.06.3-.45.55-.14.89s.28.87-.14,1.08-1.12.38-1.34.17A3.44,3.44,0,0,1,102.16,175.29Z" style="fill:#e0bd2f;"/><path d="M95.39,218.86c-.33.36-.1.54,0,.72.92,1.39-.21,2.16-1,3-.35.37-.67-.23-.58-.42.35-.78-.13-.92-.67-1.25a2.84,2.84,0,0,1-.69-3.15.72.72,0,0,1,1.08-.36C94.25,217.75,95.33,217.78,95.39,218.86Z" style="fill:#d8bd38;"/><path d="M114.52,194.8c-.15.56-1,1.24,0,2.15.22.2-.7.66-1.3.38a2.4,2.4,0,0,1-1.44-3.28l0-.14c.14-.53-.54-1.46.59-1.49A2.4,2.4,0,0,1,114.52,194.8Z" style="fill:#e0bd2f;"/><path d="M100,230.05a1.52,1.52,0,0,1,1.45,2.23c-.28.48-.11.64.08,1,.34.56.51,1.35.06,1.72s-1.07-.17-1.51-.62a3.17,3.17,0,0,1-.87-3.83A.65.65,0,0,1,100,230.05Z" style="fill:#d8bd38;"/><path d="M133,141.21c0-.77,1.49-2.52,2-2.49.76.05,1.39,2.07.85,2.82-.39.54-.82,1-1.23,1.56-.18.24-.2.81-.62.57s-1-.4-.81-.84C133.48,142.14,132.67,141.68,133,141.21Z" style="fill:#d8bd38;"/><path d="M125.14,145.72c-.32.62-.71,1.37-1.1,2.12a.32.32,0,0,1-.47.17,3.14,3.14,0,0,1-1.4-2.4,2.06,2.06,0,0,1,1.28-1.83C124.2,143.44,125.16,144.48,125.14,145.72Z" style="fill:#d8bd38;"/><path d="M112.88,174.57c.23,1.32-.54,1.21-1.06.89a3,3,0,0,1-1.69-1.93c-.11-.67-.57-1.63.32-1.85a1.64,1.64,0,0,1,2,1.15C112.66,173.47,113.15,174.05,112.88,174.57Z" style="fill:#d8bd38;"/><path d="M102.42,225.43c.29,0,.42-.63.82-.26a1.18,1.18,0,0,1,.29,1.41C102.93,226.43,102.1,226.48,102.42,225.43Z" style="fill:#d8bd38;"/><path d="M81.64,220c-.05.23-.09.43-.32.41-.07,0-.18-.2-.16-.28s.07-.47.37-.44C81.58,219.66,81.61,219.89,81.64,220Z" style="fill:#fffefe;"/><path d="M109,152.71c.29-.12.36.11.45.29C109.28,153,109.07,152.95,109,152.71Z" style="fill:#fffefe;"/><path d="M36.86,157.63l-.09.16s0-.07,0-.08a.53.53,0,0,1,.11-.07Z" style="fill:#fffefe;"/><path d="M157.21,116.11v0h0Z" style="fill:#e66267;"/><path d="M186.53,119.24c-1.32-.38-2.72-.26-4-.76-2.36-.9-4.92,0-7.35-.84-1-.33-2.27-.22-3.25-.47-1.65-.43-3.32-.31-4.95-.7a13.15,13.15,0,0,0-5.42-.13c-1.06.19-2-.6-3.16-.42-.34.05-.67,1.11-1.14.22-1.14.46-2.22-.66-3.42-.12-.35.16-.86-.1-1.31.25-.83.65-1-.7-1.73-.63-1.07.1-2.16.21-3.21.29-3.23.25-6.47.36-9.7.64a25.32,25.32,0,0,0-4.36.28c-3,.79-6.1,1.25-9.1,2.13-1.73.51-3.56.79-5.33,1.2-.06.12-.21.27-.18.36.64,1.94.07,3.95.06,5.88,0,3.35,0,6.72,0,10.08.39.4.35,0,.51-.22.31-.36.7-.74,1.09-.06.13.22.37.5.49.28.53-1,1.47-.4,2.17-.66a.83.83,0,0,0,.49-.41.83.83,0,0,1-.49.41c.68.48,1.17-.44,1.8-.24a4.1,4.1,0,0,0,3.09-.21,1.55,1.55,0,0,0,1-.42h0c.61,0,1.23,0,1.84-.1,1.76-.21,3.51-.45,5.27-.69l.56,0c0-.12,0-.27.06-.39,0,.12,0,.27-.06.39.22.11.44.15.62-.08s.56-.52.91-.34c1.62.83,3-.54,4.6-.34.37-1.27.75-.75,1.47-.17s1.42-.4,2.37-.25c2.11.33,4.32-.15,6.4.68a.18.18,0,0,0,.14,0c1.3-.78,2.59-.16,3.9-.14s3,.71,4.15.19c1.5-.66,2.73.3,4.06,0,.41.3.79.09,1.17-.08a.92.92,0,0,0,1-.26c.51-.59.91-.76,1.07.23,0,.23.23.37.4.3,1.19-.45,2.42.26,3.6-.14.3-.1.43.07.64.14.36.12.85.42,1.07.29,1-.58,1.74-.75,2.64.34.43.53.06-.67.32-.69a26.05,26.05,0,0,0,9.38,2.48C187,130.63,186.66,124.94,186.53,119.24ZM125.71,135l-.56-.18c.09-.32.36-.26.59-.29Zm5.69-.59c-.23,0-.19-.27-.18-.45l.64,0C131.76,134.16,131.68,134.46,131.41,134.44Z" style="fill:#e66267;"/><path d="M125.74,134.56l0,.47-.56-.18C125.24,134.53,125.51,134.59,125.74,134.56Z" style="fill:#1c3c4b;"/><path d="M131.87,134c-.11.2-.19.5-.46.48s-.19-.27-.18-.45Z" style="fill:#1c3c4b;"/><path d="M325.42,142.94l.07-.36.16.1-.25.24Z" style="fill:#fffefe;"/><path d="M276.72,123.07c-.59-1.71-.41-3.55-.92-5.27.61-.78-.11-1-.55-1.37.56-1.16-.26-2.27-.13-3.42a.36.36,0,0,0-.22-.28c-.23,0-.46.53-.67.07-.1-.21.12-.55.13-.83,0-.95-.77-1.19-1.38-1.63s-.91-.14-1.49.1c-2,.84-2.5,3-3.74,4.42s-1.72,3.51-3.45,4.65a.58.58,0,0,0-.31.6c.06.34.72.83-.14.94-.51.07-.87-.17-1.12-.81-.64-1.6-2.38-2.53-2.77-4.35-.26-1.22-1.54-1.74-2.16-2.78a22.05,22.05,0,0,0-2.46-2.8c-1.21-1.42-3-1.05-4.55-1.6-.57-.21-1.08.16-.67.89.27.49.66.92-.34,1-.3,0-.28.35-.26.58.08,1.12-.24,2.26-.23,3.31,0,2.77-1.64,5.46-.42,8.26,0,0-.05.17-.11.21-.77.5-.58,1.26-.55,2a2.81,2.81,0,0,1,.54.18,2.77,2.77,0,0,0-.54-.18l-.23.23c-.58.33-1.55-1-1.86.46a1.48,1.48,0,0,1-.25-.08,20.27,20.27,0,0,0-4.39-1.85,11.56,11.56,0,0,1-3.4-1.11c-2-1.41-4-1-6.07-.51-.47.11-1,.51-.63,1a15.9,15.9,0,0,1,1.06,2.6,22.73,22.73,0,0,0,1.91,2.75c1,1.54,1.85,3.13,2.77,4.7,0,.81.81,1.13,1.16,1.73,1.07.38.94,1.53,1.42,2.29.93,1.43.56,2.22-1.1,2.51-.75.13-1.51.2-2.26.3l-.2.24a2.41,2.41,0,0,0-.85,0c-1.62.58-3.19,1.32-4.84,1.77-1.32.36-1.84,1.58-2.89,2.21-.51.3-.3,1,.09,1.4a5.45,5.45,0,0,0,1.85,1.27c1,.39,2.46.2,3,1.57.12.31.35.22.56,0a1.62,1.62,0,0,1,.36-.19l.07.23c.41,1.41,1.55,1.17,2.58,1.1.34,0,.61-.41.95.12a4,4,0,0,0,2.86,1.66c1.12.19,2.44,2,1.84,2.69-1.21,1.31-.87,3.09-1.7,4.5s-.25,3.33-1.1,4.87c-.23.41-.69.88-.5,1.44.4,1.19.88,2.35,1.29,3.54.19.55.48.39.89.27a37.33,37.33,0,0,0,8.86-4.91,3.84,3.84,0,0,0,.31-.29,5.45,5.45,0,0,1,2.51-1.87.74.74,0,0,0,.46-.68,1.12,1.12,0,0,1,.46-.84,2.8,2.8,0,0,0,.62-3.71,1.11,1.11,0,0,0-1.8-.39,39,39,0,0,0-5.09,4.23,8.71,8.71,0,0,1-3.84,2.34c1.48-2.43,1.2-5,2.38-7.23.44-.82.93-2-.13-3a.91.91,0,0,1,.14-1.28h0c.42-.45,1.07-.9,0-1.37a.27.27,0,0,0-.22-.06c0-.64-.3-.92-.94-.79a48,48,0,0,1-9-3.8,7.29,7.29,0,0,1,2.39-.87c2.28-.31,4.55-.73,5.71-3.12.25-.52.74-.31,1.13-.43a1.32,1.32,0,0,0,.68-2.15,10.84,10.84,0,0,1-1.81-2.74c-1.67-2.65-3.11-5.44-4.64-8.18l.24-.28a8.52,8.52,0,0,1,2.92,1c1.48,1,3.17.83,4.67,1.5a2.11,2.11,0,0,0,2.14-.26,1.75,1.75,0,0,1,2-.16c.86.41,1.32.07,1.58-.92s-.34-2.06.07-3.17c.85-2.32-.34-4.91.77-7.26.47-1-.25-2.24.63-3.17,2.1,1.84,3.08,4.5,4.79,6.61,1.09,1.34,1.63,3.29,3.67,3.7a.39.39,0,0,0,.63.08l.59.11c.13,1,.88,1,1.58,1s.79-.62.94-1.13a37.47,37.47,0,0,1,5.47-7.79c0,1.62.92,2.86.88,4.33s.79,2.39,2.11,3.18a1.79,1.79,0,0,0,2,.13C277,124.53,276.95,123.72,276.72,123.07ZM234.24,143.8h0Zm13.65-18.3.08-.28h0Zm.33,0-.07-.08.07.08c.11,0,.26,0,.37-.08C248.47,125.43,248.33,125.43,248.22,125.47Z" style="fill:#f4c02f;"/><path d="M175.84,134.3s.06.06.06.09-.05,0-.08.07-.06-.06-.06-.09S175.82,134.32,175.84,134.3Z" style="fill:#e66267;"/><path d="M123.09,277.57l-.1.1a.87.87,0,0,1-.09-.19s.05-.06.08-.09Z" style="fill:#153747;"/><path d="M197.4,35.94c0,.18,0,.42-.24.31s-.07-.3.14-.38Z" style="fill:#fffefe;"/><path d="M96.35,16.5c-.16-.89-.43-1.76-.66-2.64a.41.41,0,0,0-.38-.34,5.17,5.17,0,0,0-3.77,1c-.44.32-1.16.74-1.54.58-1.36-.54-2.15.62-3.22.86A2.81,2.81,0,0,0,84.39,19c0,.6-.24,1.06.81.87a33,33,0,0,1,3.36-.47c1.11-.09,1.4-.54,1-1.79,1.52.87,2.83,1.14,4,.12.61-.52,1.79.06,2-1.12.08,0,.18,0,.22.1C96.35,17.53,96.42,16.9,96.35,16.5Z" style="fill:#f4c02f;"/><path d="M64.7,73.51c0,.26-.08.59-.33.47-.42-.21-.27-.52.07-.75Z" style="fill:#fffefe;"/><path d="M64.44,73.23l.33,0-.07.31Z" style="fill:#fffefe;"/><path d="M159.59,228.75c-.8.21-2.15-.11-3.48.19-.79.18-1.19-.07-1.1-1.27a22.56,22.56,0,0,0,0-5.07c-.33-2.12.31-4.18,0-6.27-.07-.55.68-.68,1.19-.61a31.53,31.53,0,0,0,7.89-.3c1.33-.16,1.84.38,2,1.72.43,2.92.09,5.85.12,8.77a2.74,2.74,0,0,0,.13.66c.24.95-.06,1.54-1.14,1.63C163.54,228.35,161.83,228.53,159.59,228.75Z" style="fill:#f4f5f5;"/><path d="M152.78,219.46c-.35,2.67,0,5.34,0,8,0,1.1-.29,1.32-1.51,1.36-2.67.07-5.31-.25-8-.3-1.84,0-1.66-.08-1.76-2-.17-3.12.32-6.25-.19-9.37-.13-.79,0-1.54,1.14-1.1a2.09,2.09,0,0,0,1.37-.17c2.39-.61,4.83.23,7.2-.4,1-.27,1.72.14,1.68,1.36C152.76,217.75,152.78,218.61,152.78,219.46Z" style="fill:#f4f5f5;"/><path d="M142.87,192.55c.44,3.4,0,6.72.1,10,0,.48.47,1.11-.19,1.37a1.56,1.56,0,0,1-1.59-.4c-1.06-1.1-2.64-1.24-3.79-2.2-.72-.6-1.91-1.08-2-1.83a6.43,6.43,0,0,1-.16-2.39c.28-1.27-.35-2.42-.23-3.65.18-1.82.16-3.67.47-5.47.26-1.49,1.38-1.93,2.81-1.39a9.9,9.9,0,0,1,3.35,2.3C142.8,190.11,142.89,190.58,142.87,192.55Z" style="fill:#f4f5f5;"/><path d="M152.87,193.75c-.61,2.43.27,5.07-.16,7.75-.17,1,.51,2.14.19,3.27-.12.44,0,.68-.76.51a21.19,21.19,0,0,0-4-.09c-2-.06-2.41-.54-2.37-2.57a8.53,8.53,0,0,0-.21-3.58,6.72,6.72,0,0,1,0-2.29c0-1.66.06-3.33-.08-5-.06-.78.36-.72.72-.62a25.85,25.85,0,0,0,6,1.11C153.36,192.29,152.52,193.13,152.87,193.75Z" style="fill:#f4f5f5;"/><path d="M172.2,194.35c.21,1.72-.33,3.39-.35,5.11,0,.77-1.05,1.19-1.7,1.62a39.19,39.19,0,0,1-4,2.25c-.47.24-.25-.42-.49-.54.87-1.65-.15-3.31,0-5a63.16,63.16,0,0,0-.14-6.92c0-.72-.73-1.49.19-2.19,1.35-1,2.63-2.17,4.47-2.18,1.37,0,1.6,1.2,1.6,2C171.8,190.46,172.36,192.38,172.2,194.35Z" style="fill:#f4f5f5;"/><path d="M168.74,223a31.19,31.19,0,0,0,0-4.29c-.19-1.37.92-1.77,1.54-2.45,1.28-1.43,3.16-2,4.82-2.86.24-.13.33,0,.48.1a9.94,9.94,0,0,1,3.42,3.88,1.26,1.26,0,0,1-.2,1.35c-1.84,2.49-3.79,4.94-6.59,6.36a18.21,18.21,0,0,1-2.69,1.37c-.23.07-.33.51-.69.32a.69.69,0,0,1-.31-.88C168.91,225,168.61,224,168.74,223Z" style="fill:#f4f5f5;"/><path d="M123.25,210.77a1.85,1.85,0,0,0-.38-1.71c-.6-.8,1.26-3.15,2.33-2.92,1.51.32,3,.76,3.78,2.39.57,1.17,1.82,1.91,2.28,3.22.14.4.34.8-.18.9-2.19.44-3.39,2.18-4.6,3.71-.79,1-1,.19-1.12-.13a16.3,16.3,0,0,0-2.1-4.24C123.13,211.75,123.25,211.35,123.25,210.77Z" style="fill:#f4f5f5;"/><path d="M180.75,214.6c-1.43-2.47-3.45-3.8-6.77-3,1.63-2.45,2.55-5,4.54-6.78.58-.53,3.78-.45,3.69-.28-.46.88.6,1,.6,1.64a22.45,22.45,0,0,1-.29,3.95A14.15,14.15,0,0,1,180.75,214.6ZM177,208a1,1,0,0,0-.3-.14c-.23,0-.32.14-.3.33a.33.33,0,0,0,.25.2C176.85,208.37,176.94,208.21,177,208Z" style="fill:#f4f5f5;"/><path d="M138.5,218.47c-1.32-.38-2.11-1.41-3.1-2.21-2.81-2.28-6.39-.82-7.12,2.73-.4,1.95,1,2.75,2,3.76a20.26,20.26,0,0,0,5.08,3.26.17.17,0,0,1,.21.09l.59.22a.6.6,0,0,1,.34-.55.6.6,0,0,0-.34.55c.37.94,1.27.76,2,.94.82.93.83.15.86-.43.1-2.13,0-4.27.2-6.41C139.23,219.83,139.48,218.75,138.5,218.47Z" style="fill:#f4f5f5;"/><path d="M135.32,226a.17.17,0,0,1,.21.09Z" style="fill:#cdd5d8;"/><path d="M186.47,207.43l-.32,0,.12-.26Z" style="fill:#e66267;"/><path d="M120.34,207.2l.12.26-.32,0Z" style="fill:#e66267;"/><path d="M134,159.59c.62-.15,1.12-.34,1.35.43s.9-.55,1.21.11c.52,1.09,2.13,1.16,2,3.06-.09,1.72,0,3.26-1.35,4.45a8.12,8.12,0,0,1-3,2l-.12.06c-.47-1.08-1.36-.16-2.06-.42-2.29-.83-2.81-2-2.57-4.42s1.54-3.68,3.22-5A1.72,1.72,0,0,1,134,159.59Z" style="fill:#1c3c4b;"/><path d="M172.48,158.88c1.34-.26,2.14.37,2.84,1.51.52.84,1.68,1.1,1.84,2.41a5.91,5.91,0,0,1-3.2,6c-1.19.52-2.5-.11-3.42.22-1.53.55-2-.47-2.88-1a1.65,1.65,0,0,1-.73-2.06,2.88,2.88,0,0,0-.21-2.26,1.14,1.14,0,0,1,0-.69A6.8,6.8,0,0,1,172.48,158.88Z" style="fill:#1c3c4b;"/><path d="M160.56,160.95s-.07.11-.08.11a2,2,0,0,1-.23-.11s.07-.11.08-.11A1.71,1.71,0,0,1,160.56,160.95Z" style="fill:#e66267;"/><path d="M159.21,162.57l-.29-.29,0,0,.29.28Z" style="fill:#cdd5d8;"/><path d="M159.24,162.54l.11.08-.14-.05Z" style="fill:#cdd5d8;"/><path d="M158.44,137.44l-.26-.12c0-.07.05-.17.11-.21a.18.18,0,0,1,.3.13C158.6,137.3,158.49,137.38,158.44,137.44Z" style="fill:#1c3c4b;"/><path d="M148.37,137.38l-.25,0v-.36l.26.1C148.49,137.22,148.49,137.3,148.37,137.38Z" style="fill:#1c3c4b;"/><path d="M295.94,162.6a36.79,36.79,0,0,1,0,7.41,23.79,23.79,0,0,0,0,4.2c0,.19.08.45,0,.57-.92,1.13-.2,2.34-.2,3.51,0,1.4.15,2.79.1,4.19a38.66,38.66,0,0,1-.14,5.74c-.32,1.78,0,3.63-.17,5.46-.21,2.06-.07,4.15-.27,6.21-.06.63.4,1.42-.35,2-.26.2-.27.84-.77.58a1,1,0,0,1-.52-1c.16-4.53.09-9.09.46-13.58.22-2.73.08-5.42.07-8.11,0-3.42,0-6.85.21-10.26.17-3.19-.15-6.35,0-9.53a1.73,1.73,0,0,0-1.32-1.91c-.29-.11-.86-.18-.7-.73s.52-.52.91-.59c1.26-.21,2,.38,2.3,1.74A9.77,9.77,0,0,1,295.94,162.6Zm-1.17,28.86-.1-.23c-.06,0-.16.08-.17.13s.05.15.09.22Z" style="fill:#48a1b4;"/><path d="M316.65,159.82c.4,3.86-.92,7.68-1.49,11.6-.3,2-.72,4-1,6.08a2.66,2.66,0,0,1-.81,2c-.61.49,0,1.3-.14,2-.46,2.12-1,4.23-1.36,6.36-.31,1.83-.64,3.68-.84,5.54-.27,2.45-1.17,4.76-1.63,7.17-.08.44-.34,1.35-1,1.06a1.34,1.34,0,0,1-.5-1.64,17.4,17.4,0,0,0,1.4-5.28c.1-2.07,1-4,.83-6-.11-1.81,1-3.3,1.14-5,0-.45.31-.95.34-1.48.08-1.27,0-2.61,1-3.6.1-.09.21-.26.18-.37-.63-2.77.48-5.35,1-8,.57-3,.33-6.24,1.71-9.12-.71-1.12.2-2.84-1.33-3.67a.6.6,0,0,1-.23-.46c0-.24.26-.23.44-.26,1.24-.25,2.25.71,2.37,2.27A5,5,0,0,1,316.65,159.82Z" style="fill:#48a1b4;"/><path d="M280.73,199.74c-.66-2.3-.49-4.71-.94-7-.11-.59-.76-1-.55-1.56.5-1.37-.18-2.63-.4-3.88-.68-3.83-1.69-7.6-2.48-11.41-.14-.66-.68-1.13-.59-1.87a23.18,23.18,0,0,0-.55-5.68h0a1.15,1.15,0,0,0,.16-1.11,1.61,1.61,0,0,0,0-.56,14.67,14.67,0,0,1-.84-5.61,5.19,5.19,0,0,0-1.93-3.83c-.33-.32-.83-.67-1.09-.31a1.13,1.13,0,0,0,0,1.41,4.77,4.77,0,0,1,1.12,2.4c.31,2.17.77,4.33,1.17,6.49,0,.31-.51.7.14.91.11,2.06.18,4.12.34,6.17.14,1.78.85,3.44,1.11,5.22a36.24,36.24,0,0,0,1.27,5.91c.93,2.84.92,5.81,1.41,8.71.33,2,.56,4,.93,5.92.11.58.44,1.37,1.19,1.18C280.74,201.06,280.9,200.32,280.73,199.74Z" style="fill:#48a1b4;"/><path d="M222.86,216.09l.33-.09-.11.32Z" style="fill:#56b8c9;"/><path d="M97.18,189.67c0-.23-.05-.48.29-.5.06,0,.18.09.18.14,0,.29-.2.38-.46.37Z" style="fill:#56b8c9;"/><path d="M163.83,203c-.18-1.27,0-2.59-.18-3.87-.09-.83.36-1.67.13-2.4-.67-2.13.11-4.36-.66-6.57-2.06,1.38-4.44,1.36-6.7,1.71-1.15.18-1.22.78-1.12,1.6a25.6,25.6,0,0,1,.27,5.91c-.2,1.74.17,3.49-.13,5.23-.1.58.19,1.14.9.91,1.81-.59,3.7-.23,5.53-.57C163,204.79,164.07,204.71,163.83,203Z" style="fill:#f4f5f5;"/><path d="M177,208c-.05.23-.14.4-.35.39a.33.33,0,0,1-.25-.2c0-.19.07-.36.3-.33A1,1,0,0,1,177,208Z" style="fill:#1c3c4b;"/><path d="M294.77,191.46l-.19.12c0-.07-.1-.15-.09-.22s.11-.09.17-.13Z" style="fill:#1c3c4b;"/><path d="M164.12,248.8c.22,0,.49.21.62-.16l.14,0,.12-.07c.87,0,1.75-.33,2.59.18.18.11.4,0,.59-.21.45-.6,1-.45,1.61-.15a1.86,1.86,0,0,0,1.35.3c1.9-.46,3,.63,3.1,2.66.09,1.66-.27,3.29-.2,4.89,0,.9-.07,1.81,0,2.7.22,2.25-.61,3.33-2.82,3.71a6.72,6.72,0,0,1-1.87.43c-1-1-2.37-.3-3.56-.6-1.35-.34-2.82-.2-4.16-.74-.9-.36-1.86-.51-2.78-.86a3.2,3.2,0,0,0-3.34.46c-2.45,1.8-6.49,1.48-8.89-.41a1.42,1.42,0,0,0-1.51-.32,32.44,32.44,0,0,1-5,1.42c-1.65.23-3.29,1-5,.45-.36-.11-.51.16-.76.25a5,5,0,0,1-5.59-1.81,1.37,1.37,0,0,1-.12-.82,23.86,23.86,0,0,0-.32-6.65,6.08,6.08,0,0,1,0-1.47c.46-.41.3-.81,0-1.21a.18.18,0,0,0,0-.23c.16-.17.51-.21.38-.57.36-.63.59-1.45,1.62-1.08.4-.06.56-.28.44-.68l.75.3c.54.56.82.15,1.09-.28h0l1.71-.1.34.11c0,.45.08.72.6.48l.24-.16.27-.14a8.57,8.57,0,0,1,3.65.93c-.22.48,0,.54.41.47a1.78,1.78,0,0,1,1.78.44c-.11.56.08.68.56.38l.8.5a2.63,2.63,0,0,0,2.05.54.28.28,0,0,0,.26,0c.22.1.45.65.64,0s.86-.54,1.14-1l.18-.15c.65-.73,1.71-.73,2.4-1.38l1.15.15,1.94.1a.24.24,0,0,0,.35.13l.58.14c.13.28.34.17.54.1.46.21,1,.3,1.29.76l.18.16c.28.44.93.45,1.13,1,.19.68.43.13.65,0a2.87,2.87,0,0,0,2-.43l.3-.15c.28,0,.42-.2.53-.41,1,.49.85-1,1.59-1l.43-.15c.29.29.62.44,1,.17s.09-.41-.06-.6A1,1,0,0,0,164.12,248.8Zm-12.23,3.61c-.52-.43-.07-1.71-1.09-1.34-1.56.58-3,1.39-3.54,3.28-.21.77-.13,1.22.41,1.58.81.54,1.5,1.38,2.63,1.22a.59.59,0,0,0,.35-.4C150.94,255.27,151,253.75,151.89,252.41ZM138,249.22l.06.05,0-.08Zm26.77,0,.07.06v-.09Z" style="fill:#1c3c4b;"/><path d="M151.89,252.41c-.88,1.34-1,2.86-1.24,4.33a.59.59,0,0,1-.35.4c-1.12.16-1.82-.68-2.63-1.22-.54-.36-.63-.81-.41-1.58.53-1.89,2-2.7,3.54-3.28C151.82,250.7,151.37,252,151.89,252.41Z" style="fill:#48a1b4;"/></g></g></svg>