<svg xmlns="http://www.w3.org/2000/svg" viewBox="0 0 2333.79 2219.94"><title>messageSent</title><g id="Layer_2" data-name="Layer 2"><g id="Layer_1-2" data-name="Layer 1"><path d="M824.78,811.91a52.2,52.2,0,0,0,14.14,13.61,75.68,75.68,0,0,1,16.3,14.19c8,9.25,17.52,17,25.11,26.59,2.62,3.32,4.8,6.36,3.77,10.66-1.22,5.11.74,9.27,4,12.73,6.41,6.78,9.12,16.15,16.13,22.49,1.73,1.56,2.13,4,2.82,6.28,1.25,4.07,2.78,8.11,7,10.2-2.79,4.38-7.3,6.66-11.44,9.37-6.64,4.35-10.36,13.55-7.3,20.32,4,8.81,5.47,18.32,7.83,27.49,3.47,13.45,7,26.78,11.95,39.77,4.86,12.63,9.54,25.37,13.27,38.37a175.27,175.27,0,0,0,14.17,34.78c3.22,6,7.82,11.34,16,13.13,8.32,1.82,16.81,2.38,25,4.44.51.84,1.67,2,1.44,2.48-3.1,7.19,1.47,14,1,20.62-.57,8.94,1.71,17,3.07,25.44.32,2,.13,3.81,2.12,5.15,6.59,4.43,19.74,2.8,25.9-2.57,8.89-7.74,14.22-17.88,19.07-28.09a105.42,105.42,0,0,1,28.35-36.41c4.24-3.51,6.79-8.52,12.08-11.26,3.9-2,8-4.61,11.91-4.37,8.41.53,16.93-3.83,25.21.48a3.75,3.75,0,0,0,2,.14c14.74-1.48,24.86,7.67,35.46,15.55a11.33,11.33,0,0,1,5.12,9c.26,4,2.7,8.19,5,11.78,4,6.29,4.08,12.94,3.65,20-.74,12.15-.87,24.31-5.62,35.87-1.1,2.68.13,4.92,2.9,7.41,5.45,4.91,11,10.22,13.43,17.67,2.74,8.36-2.53,14.12-11.55,13.43-6.37-.48-12.21-2.55-18.26-4-4.26-1.06-8.46-.7-10.14,3.77-1.54,4.09-8.26,4.33-7.41,8.36,1.21,5.73,4.5,11.81,9.18,15,8.94,6.08,5.35,14,5.1,21.53-.14,4.23-4.21,4.93-6.78,6.62-3.19,2.09-3.64,8.74-9.72,6.13-4-1.72-5.85-5.46-7.27-9.08-2.49-6.36-8.43-7.22-13.59-8.95-4.41-1.48-9.41,1.7-10.52,6.5-.64,2.78-1.52,5.3-3.57,6.87-4.29,3.29-5.44,7.51-4.33,12.39.81,3.58-2.45,7.72.27,10.41,4.19,4.13,9,9.64,14.17,10.34,10.24,1.39,20.54,4.7,31.37,1.38,14.32-4.39,29.24-5,44.18-4.16,4,.23,7.64,1.62,11.43,2.7,6.25,1.79,11.66,5.26,18,7,15.68,4.28,24,16.55,28.87,31.39.43,1.3.69,2.82-.42,3.73-3.13,2.57-1.27,5.3-.73,8.16a18.94,18.94,0,0,1-2.15,13.44c-4.47,7.77-8.4,15.85-12.94,23.57-3.69,6.27-7.92,7.87-15.25,6.15-1.71-.4-2.37-.15-2.86,1.26-2.1,6.06-7.68,7.19-12.76,8.26-12.5,2.64-25.2,4-37.93,5.24-12,1.21-24,3.4-36.16,3.47-5,0-8.54,3.26-11.28,7.23-.93,1.35-1.32,3.22-2.5,4.21-2,1.68-5.51,2.67-4.71,5.7.89,3.39,2.46,7.49,5.09,9.36,5.58,4,8.46,12.63,17.72,10.86,1.21-.23,3.1,1.29,4.19,2.46,6.69,7.18,15.88,10.43,24,15.38,3.15,1.93,3.58,5.58,6.2,7.56,8.74,6.58,13.47,16.53,17,25.83,3.35,8.83,8,19.42,1.16,29.53-1.62,2.38-.73,5.16.21,7.7,1.8,4.86-.1,9-2.34,13.17q-8.49,16-17.16,31.84c-2.62,4.8-3.79,11.53-11.43,14.15-5.72,2-10.23,8.16-14.64,13a38.15,38.15,0,0,1-19.38,11.38c-11.72,2.71-23.39,6.54-35.79,6.47-7.92,0-15.83.73-23.76-.26a7.16,7.16,0,0,0-5.94,1.89c4.91,7.3-1.31,13.28-2.81,19.94-1.07,4.76-3.49,9.48-1.68,14.28,2.52,6.68-1.69,11.66-4.68,16-2.1,3-4.24,5.86-4.92,9.29-2.24,11.2-7.35,20.25-16.58,27.4-9,6.94-17.28,14.68-26.57,21.32-8.86,6.34-19.16,8.9-28.89,12.73-6.05,2.38-13.36,1.7-20.12,2.15-10.91.72-21.9-.91-32.76.58-9,1.24-16.95-1.44-25-6.37-.5,9.89,0,18.86-1.63,27.43-2.07,10.94,1.83,21.51.45,32.28-.29,2.29.24,4.74-1.57,6.58-1.22,1.23-4.31.23-4.07,3.26s2.72,2,4.39,2.72c2.17.91,1.85,3.35,1.69,5.28-1.14,13.68.56,27.36.27,41.07-.26,12.16-1.67,24.63.25,36.87a11.12,11.12,0,0,1-.84,6.74c-1.8,3.86-3.49,7.67-.86,12a4.75,4.75,0,0,1,0,3.9c-3.87,7.92-1.91,15.66.42,23.41-3.43,1.27-5.63,3.45-4.36,7.34,2.27,6.93.72,13.54-1.34,20.13-.61,1.95-1.41,3.79,1.39,4.66,0,1.22,0,2.44,0,3.65-2.18.46-2.89,2.2-3.48,4-3.49,4.3-7.54,7.69-13.47,5.42-7.43-2.84-12.39.26-17.18,5.62-2,2.23-4.62,5-8.61,3.43-1.31-.52-3.27-.13-3.61.89-2.09,6.18-8,5-12.36,6.49-4.58,1.52-9.24,3.43-11.44,7.33-3.53,6.25-9.25,9.94-14.08,14.67-3,2.9-5.51,6-6.08,10.63a40.84,40.84,0,0,1-4.46-2.32c-3.46-2.49-5.29-1.47-8,1.84-5.12,6.22-12.06,10.77-17,17.37-1.22,1.64-4.6,1.31-6.33,2.39-4.41,2.77-11.44,1.71-13.14,8.57-.29,1.16-1.23,1.23-2.24,1.36-5.27.66-12.71,3.36-17,6.6a7.14,7.14,0,0,1-5.49,1.6c-3.87-.44-7.14,1.21-10.39,2.92-3.84,2-7.63,3.2-12.21,2.06-3.42-.85-7.81-1.89-10.57.88-4.93,5-14.08,2.82-17.13,10.74-.65,1.69-2.18.44-3-.62-1.14-1.44-2.74-2.25-4.37-1.71-4.61,1.51-9.08,1.14-13.65-.08a8,8,0,0,0-6.62,1.43c-1,.68-1.68,2.37-3.26,1.72-7-2.86-13.89-4.66-20.93-.12a2.77,2.77,0,0,1-2.53-.77c-2-2.65-4.78-1.63-7.3-2-7.81-1.29-15.59.72-23.38.06-.16-1.58-.14-3.36-2.13-3.78-2.29-.48-3.48,1-4.22,2.91-3.68.77-5.71-3.9-9.46-2.86-2.22-10.43,4.81-20.78.29-31.27-.32-.75.17-2,.54-2.89a52.06,52.06,0,0,0,3.33-29.94c-.47-2.56-1-5.83.19-7.84,5.72-10,2-21.2,4.47-31.45,2.09-8.6-2-16.49-1.1-25,.5-5,2.72-9.53,2.36-14.62-1.12-16.16,1.67-32.33.19-48.51-.24-2.62-.53-5.66.51-7.9,3.68-7.9,2.71-16.27,3.44-24.49.76-8.53,1-17.26,5.15-25.12,8.8-16.64,24.08-27.19,37.9-38.83,4.67-3.93,9.69-7.42,13.69-12.14,2.14-2.52,4-5.3,7.13-6.87,9.85-5,16.95-13.5,25.07-20.55,10-8.71,21-16.86,28.43-28.23,4.31-6.56,9.61-12.56,11.31-20.67.78-3.72-.15-6.92-2.46-9s-6.06-.85-8.24,1.14c-4.52,4.13-10.93,4.58-15.42,8.51-9.2,8.06-20.9,12.26-30.06,20.69-11.35,10.45-24.53,19.27-33.94,31.44-11.71,15.16-25.32,28.55-37.92,42.81-14.3,16.19-19.21,35.18-22.45,55-1.53,9.41-3.09,18.94-3.85,28.46-.36,4.55-3.81,7.72-3.67,12.07.22,6.6-1.15,13-2.22,19.43-1.94,11.73-3.05,23.6-4.61,35.4-1.6,12.16,2.52,24.56-1.64,36.59,3.89,8.19-1.24,16.31-.18,24.48.26,2-.1,4.26.81,5.82,3.6,6.17,3.1,12.71,2.83,19.42-.23,5.54-.15,11.13-.07,16.69.13,9.14,2.13,18.62-2,27.5l-5.16.56c-.55-.8-.94-2.09-1.68-2.33-5-1.61-10.23-2.7-15.15-4.55-4.3-1.62-7-7.28-12.88-5.06-.37.14-1.35-.52-1.59-1-2.7-5.55-6.39-2.63-9.91-1.24l-3.53,0c-.5-2.46-1.44-3.87-3.91-1.65-1.63.33-3.12.68-4.41-1-3.44-4.64-9.6-6.58-12.16-12.13-7.56,1.21-13.55-5-21-4.45-5.24.4-9.21-1.66-13.21-5.08-4.16-3.56-6-9.62-12-11.11s-10.13-5.86-15.91-7.52c-3.66-1.05-7.65-4.72-8.75-7-2.28-4.68-5.87-6.73-9.48-9.48-6.81-5.19-14.32-9.89-19.7-16.33-2.84-3.4-6-6.27-9.16-6-7,.55-11.85-4.18-15.22-7.57-6-6.07-13-9.69-20.19-13.52,1-6.85,1.71-13.76,2.5-20.6a66.79,66.79,0,0,0-1.22-23.58c-2.46-10.17-.87-20.79-.63-31.21,0-1.64.66-3.38.26-4.88-3.74-14.16.69-28.73-2.27-43-1-4.85,2.21-9.55,1.47-14.69-2-14.27.09-28.88-3.42-43-3.49-12.22,1.15-24.14,2.9-35.8,2.19-14.61,4.83-29.17,5.21-43.92.31-12,1.53-23.87,1.84-35.77.55-20.46-.57-40.93.48-61.46.85-16.46-.44-33.08.74-49.6.57-7.93-1-16,.13-23.63,2-13.63.63-27.12,1-40.67.06-2.33-.66-3.44-3.11-4.09-4.16-1.11-4.37-5.32-3.74-8.15.87-3.91,4.63.8,6.73-1.12,1-6.49,0-13.17,1.77-19.72.84-3.07,0-6.61-.17-9.93-.15-2.52-1.76-3.63-4.06-2.91-12.75,4-25,.17-37.27-2.4-2.24-.47-5,.21-6.58-1.78-6.37-8-19.1-10.44-20.33-23a3.39,3.39,0,0,0-1.81-2.25c-5-2.15-5-6.48-5.2-10.9a23.07,23.07,0,0,0-1.33-6.79c-4.11-11.17,0-22,3.74-31.65,2.89-7.51,5.13-16.48,12.69-22.11,3-2.22,1.31-6.26-2.58-7.23-20.4-5.12-30.37-21.3-40.1-37.71-.77-1.3-1.37-4-.68-4.68,4-4.17-.43-8.82,1.14-13.37,1.13-3.27,0-8.11-1.73-11.44-5.68-11.09-2.93-22.85-3.5-34.3-.69-13.93,4.52-26.52,10.21-38.9,1-2.08-.17-4.88,1.79-6.6,10.64-9.31,17.81-21.93,29.9-30,11.2-7.46,23.84-10.6,36.26-14.64,7.73,3.2,15.69,0,23.62.68,10.28.92,20.49.26,30.29,4.86,4.67,2.19,10,3.28,14.64,5.66,6.15,3.13,12,8.29,12.92,14.39,1.15,7.29,4.1,14.66,2.46,22.42-1,4.74-1.25,9.72-1.82,14.43-.48,4,4.71,8.44,6.55,13,3.63,9.09,7.77,17.87,5.73,28.55-1.6,8.36-1,17.23-.64,25.85.16,4.19-.42,8.7,2.12,12.64,2.07,3.21-.68,7.57,3.46,10.89,2.76,2.21-2.55,6.86.21,10.9,6.33,9.25,2.18,21.46,8.33,31,1.17,1.82.47,5.36-.29,7.81-1.63,5.25-1.33,9.73,2.81,13.75a7.85,7.85,0,0,1,2.31,4.3c1.15,10,8.65,17.5,10.16,27.42.73,4.8,4.8,8.67,5.2,13.84.81,10.49,6.45,18.51,13.32,25.94,2.69,2.91,6.59,5.24,7.44,9.21,1.48,7,6.92,11.14,11.12,15.71,7.29,7.93,16,14.5,21.56,24.06a7.2,7.2,0,0,0,4.67,3.53c1.71.39,3.66,1.1,3.67,2.86,0,6,5.38,6.87,8.78,9.67,2.06,1.69,5.49,1.73,6.54,4.34,4.79,11.91,18.23,10.33,26.26,17.11.2.17.82.21.94.07,3.64-4.46,4.09,1.34,6.15,1.87,5.3,1.36,6.21,8.88,12.76,8.66,6.09-.21,10.56,3.11,15.69,6.3,3.9,2.43,11.33-1.07,17.05,1.41,1.5.65,3.24.82,4.66,1.61,8.32,4.61,17.87,5.58,26.69,5.78,7.88.18,14.66,2.87,21.86,4.45,9,2,17.48,6.81,27.27,4.42,2.19-.53,5-.8,6.89.15,6.24,3.22,11.33,1.6,17.43-1.14,5.09-2.29,11.7-1.06,16.21-5.77.79-.83,1.86-.53,2.75-.09,4.64,2.28,8.38.83,11.56-2.79a5.87,5.87,0,0,1,5.36-2c5.29.58,9.71-1.71,14.09-4.17A95.57,95.57,0,0,1,766,1544.27c2-.42,4.17-.91,5.15-2.7,3-5.46,9.36-8.42,10.74-15.1.54-2.6,2.45-4.7,4.69-6.3,5.31-3.8,7.95-10.34,14.73-13,3.21-1.24,6.48-5.41,7.43-8.88,2.58-9.48,9.46-15.85,14.71-23.43,4.74-6.84,10.47-12.7,11.27-22.35.51-6.23,1.64-13.61,5.39-19.49,3.26-5.11,4.74-10.33,5.63-16.5,1.06-7.37,1.63-15.65,4.53-22,5-11,5.79-23,9.81-34.11,1.83-5.09,5.18-9.75,5.62-15.55.72-9.46,5.16-17.62,10.61-25.24,2.31-3.22,5.79-6.24,6.54-9.81,1.78-8.54,9.69-12.83,12.73-20.34a5.6,5.6,0,0,1,3.75-3c5-.61,6.89-4.28,9.4-7.93,6.77-9.85,13.71-19,27.5-20.58,6.55-.77,14.46-3.17,18-10.79,1.27-2.72,4.09-3.34,6.44-4.36,11.27-4.87,17.1-16.67,15.7-28.54-1.14-9.65-7.66-16.18-12.76-22.72a29.6,29.6,0,0,0-25.88-11.68c-11.75.73-23,2.36-33.68,7.28-2.39,1.1-4.57,3-7.43,2.33-5.84-1.39-9.49,1.86-14.11,4.8-3.55,2.26-5.11,6.35-9.65,7.68-15.25,4.47-27.51,13.19-35.45,27.41-1.55,2.78-2.58,6.14-6.25,7.44-3.21,1.14-4.37,3.89-4.18,7.21.5,8.51-3.57,15.1-8.59,21.47-2.2,2.79-5.29,5.73-4.64,9.66,2.17,13.11-4.87,24.11-9.18,35.22-2.73,7-3.8,14.06-5.88,21-1,3.51.28,7.56-2.33,10.55-4.19,4.79-5.35,10.94-6.11,16.64-1.12,8.44-5.22,15.73-8.19,23.22-4.42,11.17-14,19.82-18.44,31.32-2.74,7.16-9.9,10.53-13.82,16.34-9.11,13.48-22.41,22.2-34.34,32.48-2.44,2.1-5.72,4-8.81,4.4-7,.82-13.15,4.17-20,5.32-17.85,3-35.28,4.22-52.41-4.15-4.61-2.26-9.35-5-14.26-6.35-12.24-3.41-23.35-9.4-34.89-14.34-7.19-3.08-13.92-7.08-19.67-13.2s-12.34-10.86-15.36-19c-.62-1.68-2.55-3.17-4.23-4.1-4.73-2.61-7.07-7.1-8.94-11.64a35.83,35.83,0,0,0-5.2-8.3c-9.9-12.86-18.94-26.53-23-42.26-2.95-11.45-9.81-20.69-14.34-31.17-2.8-6.48-5.86-12.54-6-19.57-.12-6.5-2.23-12.58-5-18-4-8.06-4.15-16.91-6.89-25.17-2-5.91-1.74-12.32-4.72-18.13-2.23-4.35-4.3-9-4.5-14.18-.43-11.1-2.41-22.07-1.33-33.33.8-8.27,1.88-16.46,3.28-24.62.38-2.25.74-5.24,2.91-6.12,6.22-2.52,7.2-7.87,8.77-13.38a22.11,22.11,0,0,1,4.45-8.84c5.49-6.15,10.41-12.4,13.42-20.52,4.39-11.83,11.28-22.88,11.15-36-.11-11.55,4.1-22.5,3.38-34.27-.44-7.17-3.17-13.44-4.46-20.17-1.77-9.3-2.68-19.14-7.92-27.52-2.56-4.1-7-7.24-5.66-13.17.23-1-1.62-3.18-2.94-3.69-6.19-2.41-12.88-4.07-11.37-13.18.1-.62-1.92-1.6-3-2.39a5.32,5.32,0,0,1-1.94-4.36c-.56-9.41,3.88-16,12.89-19.47a28.51,28.51,0,0,0,7-3.8,19.87,19.87,0,0,1,10.11-4c5.08-.53,9.86-1.4,13.63-5.24a3.85,3.85,0,0,1,4.56-1.07c6,3,11.56-.07,17-1.38,7-1.67,13.65-4.73,21-4.76,5.86,0,10.76-5.05,17-3.3,4.81-5.51,12.41-5.47,18-5.73,14.11-.66,25.21-12.05,39.69-9.78,6.57-6,15.5-5.2,23.19-8,10.8-3.93,20.88-10.29,33.06-9.49,3.43.23,4.75-3.64,7.49-4.48,3.63-1.12,5.71-8.34,11.19-3,.37.36,2.53-.61,3.44-1.43,4.88-4.36,11.15-6.13,16.75-9.11,8.64-4.59,18-7.83,26.62-12.3,12.16-6.3,21.89-16.65,34.51-22.51,1.09-.5,1.89-1.89,2.53-3,2.87-5.09,8-7.57,13-8.53,4.53-.88,7.51-2.88,9.43-6.3S822.18,811.18,824.78,811.91ZM629.55,958.22a1.85,1.85,0,0,0-1.74,2.24l-1.93,2c-3.14-.28-5.63.36-5.79,4.19a3.15,3.15,0,0,0-.66,1.47c-7.25,5.83-14,11.95-13.38,22.48l-.09.16c-1.89.52-2.41,1.86-2.18,3.64l0,.08c-1.21.31-1.63,1-1,2.15l-1,3.87c-5.48,9.82-8.3,20.28-7.6,31.59l.87,12c-1.79,1.9-1.63,4.05-.83,6.29l.77,3.95c-4.12,6-2.77,12,.36,17.72,2.43,4.42,4.63,8.74,4.75,13.9a2.88,2.88,0,0,0,2.45,2.72l1.61,1.87c2.38,10.15,5.59,19.82,14.94,26,1.9,4.42,5.26,7.73,8.9,10.6,9.83,7.78,19.6,15.68,29.87,22.84,12.24,8.53,26.57,12.87,41,14.16,11,1,22.43.31,33.66.11,3.85-.07,7.93-3.13,11.47-2.47,13.79,2.55,24.33-5.29,35.69-10.23,8.5-3.7,14.74-11.82,22.7-15.54,11.24-5.26,18.28-14.36,24.69-23.14,7.24-9.91,16.95-19.6,16.89-33.58,6.77-7.86,1.31-18.27,5.55-26.66-3.59-13,4.06-27-3.36-39.83-.9-1.55-.26-3.92-.61-5.86s-.41-4.68-1.67-5.6c-7.34-5.36-8-14.83-13.87-21.38-4.75-5.33-9.94-10.37-14.69-15.71-5.6-6.28-9.32-13.8-15.72-19.64-13.12-12-29-18.09-45-24.45-9.76-3.89-20.19-5.42-30.18-3.15-14.53,3.3-29.58,3.8-43.79,8.94-10.61,3.84-21.2,7.7-29.86,14.91-5.6,4.66-11.16,9.31-17.11,13.5a2,2,0,0,0-2.17,1.93l0,0a1.83,1.83,0,0,0-2,2.11Zm132.64,260.55a5.59,5.59,0,0,0-4.55-2.69c-14.81-9.09-31-14.59-47.95-17.79-2.2-5.56-7.65-4.78-12-6.13v0c-.91-1.84-2.54-2-4.29-1.78-2-.56-4.3-.64-5.67.86-4.51,4.93-8.42,1.94-13.88-2.26,3.8,6.59,6,11.39,1.12,16.19-2,2-3.45,1.38-4.88-.4-1.67-2.08-.14-6.42-4.26-6.57-5.18,7.21-4,15-3,22.91a222.73,222.73,0,0,0,5,25.66c-7.66-5.08-14.74-3.7-21.16-7-5.07-2.63-11.45-2.21-16.79-5-1.16-.62-3.44-.11-4.73.67-6.86,4.09-13.16,8.93-18.09,15.34-2.32,3-2,6.45,1.47,7.2,7.57,1.61,13.8,7.74,22.31,6.19,2.47-.45,5.21.82,7.85.91,13.49.49,25.83,7.14,39.6,7,3.77,0,7.33,1.5,10.82-1.13,1.48-1.11,3-.71,4.66,0,3.2,1.44,6.57,3.25,8.2-2.13,1-3.2,5.54-4.81,4.22-9.08-2.41-7.77-4.13-15.89-7.68-23.11-1.73-3.52-2.24-6.38-.68-9.08,1.85-3.19,5.6-1.47,8.24-.87,5.4,1.23,11,3.86,16.07,4,10.34.22,21,.36,31.2-2.75a76.09,76.09,0,0,0,7.82.44c2.32-.09,4.81-.79,5.47-3.37.71-2.74-1.58-4-3.51-5.26A1.28,1.28,0,0,0,762.19,1218.77Zm-282.48,846.8a4.53,4.53,0,0,0,2-4c.8-11.76,2.19-23.48,2.83-35.27.44-8.16,2.87-16.55,2.44-25-.21-4.07,0-7.83,1.53-11.56,1.48-3.53,1.08-7.33.49-10.82a35.5,35.5,0,0,1,.13-10.6c2.44-20.3,3.9-40.72,6.28-61,.72-6.16-3-10.77-3.62-16.27-1.13-9.77.21-19.63.69-29.33.49-10,1.21-19.77-.25-29.65-.24-1.62-.8-3.07-.29-4.83a33.33,33.33,0,0,0-1.07-21.65,29.31,29.31,0,0,1-1.7-10.77c0-8.13,2.73-16.64-3.17-24a2.6,2.6,0,0,1-.11-1.94c2.58-10.05-5-16.15-10.09-22.28-5.27-6.38-11.13-12.86-19.43-16.48a44.89,44.89,0,0,1-14.43-10.46c-6.06-6.52-12.81-7.26-20.75-5.43-6.83,1.57-9.38,4.4-7,11.19,2.17,6.29,3.15,12.84,5.35,19.07a18.83,18.83,0,0,0,4,6.79c6.31,6.81,14.34,11.64,20.6,18.63,3.24,3.62,10.25,4.16,6.57,11.63-.62,1.26.82,2.34,1.94,3.11,2.88,2,2.82,5,3,8A33.55,33.55,0,0,0,461,1809.5a19.1,19.1,0,0,1,3,11.34c-.12,10.12-.78,20.32,1.45,30.31,1.16,5.23.74,10.36.46,15.63-.57,10.57-4.86,21.39,1.48,31.67a2.69,2.69,0,0,1-.07,1.92c-4.23,13-1.54,26.85-4.61,40a11.07,11.07,0,0,0,.08,3.88c2.28,16.91.18,33.89.82,50.83.38,10.22,3.21,20.27,2.37,30.61a5.84,5.84,0,0,0,1.36,3.68c2.15,2.67,2.45,4.72,1.18,8.46C464.62,2049.18,468.81,2058.54,479.71,2065.57Zm59.12-319.35c-3.66-4.52-3.55-7.87-5.85-9.91-5.12-4.55-7.29-10.75-9.87-16.93s-4.4-13.44-12.25-15.86c-1.57-.48-2.41-2.12-3.09-3.72-6.48-15.28-18.08-26.36-30.26-37-2.42-2.11-4.83-2.69-7.1-.85-2.11,1.72-4.56,3.35-3,7.4,4.08,10.6,8.4,21.26,10.94,32.28,2.9,12.63,18,19,16.39,33.5,0,.25.3.59.53.82,6.27,6.33,10,15,18.11,19.7,2.22,1.29,5.23,2.36,5.27,6.43,0,2.12,2.6,4.42,4.42,6.25,3.77,3.8,8.19,3.71,12.92-.27,2-1.65,2.92-.85,3.61.91.53,1.37,1.09,2.65,2.57,1.39,4-3.43,9.75-3.66,13.35-8.28,6.28-8.06,14.34-14.87,19.77-23.4,4.15-6.52,9.61-11.64,14.07-17.69,7.34-10,16.81-18.13,22.41-29.64,3.94-8.1,4.29-16,3.11-24.19-1.28-8.87-5.26-10.6-13.35-6.45-9.47,4.86-15.3,13.54-20.87,22.06s-10.09,17.65-15.88,26.11c-2.53,3.69-7.22,5.66-8.24,9.14C553.38,1728.82,542.54,1733.8,538.83,1746.21ZM985.32,1523c-6.36-.6-12.42.55-14.84,4.88s1.7,9.19,4.83,13.15c2.77,3.51,8.22,5.09,7.44,11.33-.24,2,2.78,3.1,5.08,4,10.56,4.29,20.08.41,29.23-3.91,6.06-2.86,5.64-6.82-.49-10.3s-12.25-6.76-16.58-12.36A16.9,16.9,0,0,0,985.32,1523Zm80-5.83c-11.83-3.68-20.39-9.42-28.29-16.43-7.19-6.37-11.44-4.77-13.14,4.86-1.56,8.81,1.29,16.81,4.42,25,2,5.07,5,5.41,8.24,3.29,5.84-3.84,11.4-2.39,17.06-.47,3.5,1.19,6.86,2.31,10.84.86C1065,1528.55,1060.12,1522.81,1065.29,1517.17Zm-131.83,172c6,.51,11-1.79,16.45-.76,2.42.46,4.82-1.83,6.21-4.31,1.69-3-1-4.15-2.52-5.59a25.1,25.1,0,0,1-7.75-13.39c-1.14-5-3.56-9.83-5.87-14.51-1.51-3.06-4.31-5.37-8-4.89-3.28.44-6.7,1.78-7.75,5.38-3.14,10.73-6.94,21.14.08,32.38C927.14,1688,929.33,1689.92,933.46,1689.17Zm-78.71-75.5c.54,2.18.95,5.76,1.5,5.78,5.79.23,4.36,6.29,7.34,8.58a32.06,32.06,0,0,0,4.05,2.85q6.54,3.57,13.19,6.93c2,1,4.24,2.67,6.36.54A5.54,5.54,0,0,0,888,1631c-2.15-3.11-3.93-7-3.73-10.05.73-11.31-7.5-14.65-15.14-17.88C860,1599.27,854.31,1604,854.76,1613.67Zm265.62-108.81c-1.92.38-3.56.65-5.17,1-3.47.82-8.57,0-9.64,3.86-1.38,5,1.34,9.76,5.3,13.21a17.1,17.1,0,0,0,7.81,4.17c7.11,1.49,14.1,3.49,21.19,5.09a5.73,5.73,0,0,0,7.1-6.62C1145,1516.26,1130.06,1504.78,1120.38,1504.85ZM872.52,1684.08c-1.42-.38-2.07-.76-2.65-.68-2.29.31-4.57.76-6.85,1.18-5.54,1-9.15,5-8.46,10.9.34,2.9-.9,6,.88,8.74,2.11,3.23,4-.43,6.06-.24a2.79,2.79,0,0,1,2.76,2.38c.67,4.39,3.71,4.72,7.28,4.82a13.83,13.83,0,0,1,5.7,1.64c2.4,1.24,4.78,3.19,7.12.5,2.08-2.4.42-5.28-.57-7.49-1.19-2.65-3.37-4.9-5.33-7.14C874.7,1694.42,871.14,1690.11,872.52,1684.08Z" style="fill:#193947;"/><path d="M824.78,811.91c-2.59-.73-4.73-1.33-6.57,2s-4.89,5.42-9.43,6.3c-4.94,1-10.11,3.43-13,8.53-.64,1.14-1.45,2.53-2.53,3-12.62,5.86-22.36,16.21-34.51,22.51-8.62,4.47-18,7.71-26.62,12.3-5.6,3-11.87,4.75-16.75,9.11-.91.82-3.08,1.79-3.44,1.43-5.47-5.31-7.56,1.91-11.19,3-2.73.84-4.06,4.71-7.49,4.48-12.19-.8-22.26,5.56-33.06,9.49-7.68,2.79-16.61,2-23.19,8-14.48-2.27-25.58,9.12-39.69,9.78-5.61.26-13.22.22-18,5.73-6.21-1.75-11.1,3.28-17,3.3-7.38,0-14,3.09-21,4.76-5.47,1.31-11.06,4.39-17,1.38a3.85,3.85,0,0,0-4.56,1.07c-3.77,3.84-8.54,4.71-13.63,5.24a19.87,19.87,0,0,0-10.11,4,28.51,28.51,0,0,1-7,3.8c-9,3.45-13.45,10.06-12.89,19.47a5.32,5.32,0,0,0,1.94,4.36c1.05.79,3.07,1.77,3,2.39-1.51,9.11,5.18,10.77,11.37,13.18,1.32.52,3.16,2.69,2.94,3.69-1.34,5.94,3.09,9.07,5.66,13.17,5.24,8.38,6.14,18.22,7.92,27.52,1.28,6.73,4,13,4.46,20.17.72,11.77-3.49,22.72-3.38,34.27.12,13.08-6.77,24.13-11.15,36-3,8.13-7.94,14.37-13.42,20.52a22.11,22.11,0,0,0-4.45,8.84c-1.57,5.51-2.55,10.86-8.77,13.38-2.18.88-2.53,3.87-2.91,6.12-1.4,8.16-2.48,16.35-3.28,24.62-1.08,11.26.9,22.23,1.33,33.33.2,5.13,2.27,9.83,4.5,14.18,3,5.81,2.77,12.22,4.72,18.13,2.73,8.25,2.84,17.1,6.89,25.17,2.73,5.44,4.84,11.52,5,18,.13,7,3.18,13.09,6,19.57,4.53,10.48,11.39,19.73,14.34,31.17,4.05,15.74,13.1,29.4,23,42.26a35.83,35.83,0,0,1,5.2,8.3c1.87,4.55,4.21,9,8.94,11.64,1.68.93,3.61,2.42,4.23,4.1,3,8.16,9.71,13,15.36,19s12.48,10.12,19.67,13.2c11.54,4.94,22.65,10.93,34.89,14.34,4.91,1.37,9.64,4.1,14.26,6.35,17.12,8.37,34.56,7.14,52.41,4.15,6.86-1.15,13-4.5,20-5.32,3.09-.36,6.37-2.3,8.81-4.4,11.93-10.28,25.23-19,34.34-32.48,3.92-5.81,11.08-9.18,13.82-16.34,4.41-11.5,14-20.14,18.44-31.32,3-7.49,7.06-14.78,8.19-23.22.76-5.7,1.91-11.85,6.11-16.64,2.61-3,1.29-7,2.33-10.55,2.07-7,3.15-14,5.88-21,4.31-11.11,11.36-22.12,9.18-35.22-.65-3.93,2.44-6.86,4.64-9.66,5-6.37,9.09-13,8.59-21.47-.2-3.32,1-6.07,4.18-7.21,3.67-1.29,4.7-4.66,6.25-7.44,7.94-14.22,20.2-22.95,35.45-27.41,4.54-1.33,6.1-5.42,9.65-7.68,4.61-2.94,8.27-6.19,14.11-4.8,2.86.68,5-1.23,7.43-2.33,10.69-4.92,21.93-6.54,33.68-7.28a29.6,29.6,0,0,1,25.88,11.68c5.1,6.54,11.62,13.07,12.76,22.72,1.4,11.86-4.43,23.67-15.7,28.54-2.35,1-5.17,1.64-6.44,4.36-3.57,7.63-11.49,10-18,10.79-13.79,1.62-20.73,10.73-27.5,20.58-2.51,3.65-4.36,7.31-9.4,7.93a5.6,5.6,0,0,0-3.75,3c-3,7.51-10.95,11.8-12.73,20.34-.75,3.57-4.23,6.59-6.54,9.81-5.45,7.62-9.89,15.77-10.61,25.24-.44,5.8-3.79,10.46-5.62,15.55-4,11.16-4.79,23.08-9.81,34.11-2.9,6.39-3.47,14.66-4.53,22-.89,6.17-2.37,11.39-5.63,16.5-3.74,5.88-4.88,13.26-5.39,19.49-.79,9.66-6.53,15.51-11.27,22.35-5.26,7.58-12.13,14-14.71,23.43-.94,3.47-4.21,7.64-7.43,8.88-6.78,2.62-9.42,9.17-14.73,13-2.24,1.6-4.15,3.71-4.69,6.3-1.38,6.68-7.76,9.64-10.74,15.1-1,1.79-3.12,2.28-5.15,2.7a95.57,95.57,0,0,0-27.74,10.19c-4.37,2.46-8.8,4.75-14.09,4.17a5.87,5.87,0,0,0-5.36,2c-3.19,3.63-6.92,5.07-11.56,2.79-.89-.44-2-.74-2.75.09-4.51,4.71-11.12,3.48-16.21,5.77-6.1,2.75-11.19,4.36-17.43,1.14-1.85-1-4.7-.69-6.89-.15-9.79,2.39-18.25-2.43-27.27-4.42-7.21-1.59-14-4.28-21.86-4.45-8.82-.2-18.38-1.17-26.69-5.78-1.41-.78-3.15-1-4.66-1.61-5.73-2.48-13.15,1-17.05-1.41-5.13-3.19-9.59-6.51-15.69-6.3-6.55.23-7.46-7.3-12.76-8.66-2.06-.53-2.5-6.33-6.15-1.87-.12.15-.73.1-.94-.07-8-6.78-21.47-5.19-26.26-17.11-1.05-2.62-4.48-2.65-6.54-4.34-3.4-2.79-8.76-3.62-8.78-9.67,0-1.75-2-2.47-3.67-2.86a7.2,7.2,0,0,1-4.67-3.53c-5.53-9.56-14.27-16.13-21.56-24.06-4.2-4.57-9.65-8.74-11.12-15.71-.84-4-4.75-6.31-7.44-9.21-6.88-7.43-12.52-15.44-13.32-25.94-.4-5.17-4.47-9-5.2-13.84-1.5-9.91-9-17.45-10.16-27.42a7.85,7.85,0,0,0-2.31-4.3c-4.13-4-4.43-8.5-2.81-13.75.76-2.46,1.46-6,.29-7.81-6.15-9.56-2-21.77-8.33-31-2.76-4,2.55-8.68-.21-10.9-4.14-3.32-1.39-7.68-3.46-10.89-2.54-3.94-2-8.44-2.12-12.64-.32-8.62-1-17.49.64-25.85,2-10.68-2.09-19.46-5.73-28.55-1.83-4.59-7-9-6.55-13,.57-4.72.81-9.7,1.82-14.43,1.64-7.75-1.3-15.13-2.46-22.42-1-6.1-6.77-11.26-12.92-14.39-4.68-2.38-10-3.46-14.64-5.66-9.8-4.6-20-3.94-30.29-4.86-7.93-.71-15.89,2.52-23.62-.68-12.42,4-25.06,7.17-36.26,14.64-12.09,8.06-19.26,20.68-29.9,30-2,1.72-.84,4.51-1.79,6.6-5.69,12.38-10.9,25-10.21,38.9.57,11.45-2.19,23.21,3.5,34.3,1.71,3.33,2.86,8.17,1.73,11.44-1.58,4.55,2.88,9.2-1.14,13.37-.69.71-.1,3.38.68,4.68,9.73,16.41,19.7,32.59,40.1,37.71,3.88,1,5.56,5,2.58,7.23-7.57,5.63-9.8,14.6-12.69,22.11-3.71,9.66-7.85,20.48-3.74,31.65a23.07,23.07,0,0,1,1.33,6.79c.21,4.42.2,8.75,5.2,10.9a3.39,3.39,0,0,1,1.81,2.25c1.23,12.59,14,15,20.33,23,1.58,2,4.34,1.31,6.58,1.78,12.31,2.57,24.52,6.39,37.27,2.4,2.3-.72,3.91.39,4.06,2.91.2,3.32,1,6.86.17,9.93-1.8,6.55-.72,13.23-1.77,19.72-2.1,1.92-5.86-2.79-6.73,1.12-.63,2.83-.42,7,3.74,8.15,2.45.65,3.17,1.76,3.11,4.09-.33,13.54,1,27-1,40.67-1.11,7.62.43,15.7-.13,23.63-1.18,16.52.11,33.14-.74,49.6-1.06,20.53.06,41-.48,61.46-.32,11.9-1.53,23.81-1.84,35.77-.38,14.75-3,29.3-5.21,43.92-1.75,11.66-6.4,23.58-2.9,35.8-6.72,2.94-11,8.49-13.51,14.88-3.79,9.45-9.91,17.65-16.14,25-13.5,15.93-31.41,26.1-52.7,27.06-6,.27-11.56-.28-16.91,2.68-9.32-3.51-18.16,4-27.74,1-3.57-1.09-7.94-1.82-12.53.4-2.76,1.33-7.3-1.86-11.64-.14-3.54,1.4-7-.77-9.71-3.63a19.77,19.77,0,0,0-13.95-6.61c-4-.19-7.9-.71-9.33-5.7-.34-1.2-2.59-1.91-4-2.73-11.37-6.52-23.16-12.2-34.88-18-8-4-16.71-7.75-21.69-16.16-.65-1.11-1.44-2.51-2.5-2.94C56,1807.74,49.26,1797,40.51,1788.6c-3.83-3.67-3.68-9.83-7.46-13.89-7.35-7.88-10.6-18.52-13.55-28-2.91-9.36-6.94-18.63-8.6-28.6s-6-19.66-8-29.7C1.49,1681-1,1672.71.4,1666c1.71-8.45,1.22-16.58,1.6-24.85a25.32,25.32,0,0,0-.6-5.92c-1.07-5.52-1.48-10.57.85-16.31,2.16-5.32,2.13-11.75,2.12-17.69,0-10.43,1.38-20.26,7-29.36,2-3.19,3.38-6.69,2.43-11.25-1.52-7.27,4.3-12.94,6.94-19.14,1.7-4,3.48-8.95,6.39-12,8.9-9.33,9.43-22.73,17.05-32.57,1.57-2,2.35-4.71,4.77-6.13,4.93-2.89,9.48-5.92,10.5-12.34.37-2.34,3.06-3.22,5.18-4.29,4.68-2.36,9.35-5.1,14.09-6.92,7.21-2.76,10.3-9.92,17-13.11,12.08-5.79,23.27-13.53,36.72-16.15,2-.39,3.91-.5,5.43-2,6.84-6.82,15.59-11.11,22.86-17.31a18.17,18.17,0,0,0,5.63-7.95c2.08-7,5.62-13.57,5.81-21,.46-18.61,6.06-36.57,6.91-55.13.15-3.39,2.9-5.83,3.57-9.22,2.42-12.35,2.81-24.8,3-37.32.22-14.44.74-28.89,1.13-43.33.16-6,.46-12-1.74-17.77-2.28-5.93.1-12,.52-17.6.59-8-1.49-16.54,2.34-24.31a10.37,10.37,0,0,0,.59-3.93c1.12-21.41.2-42.88,3.68-64.22,2.89-17.7,1.7-35.73,2.27-53.63.69-21.6.32-43.16-.6-64.73-.14-3.25-.15-7.3,1.59-9.66,3.92-5.34,3.14-10.65,1.74-16.16-1.65-6.48,1.43-12.37,1.82-18.46.69-10.88,2.52-21.58,3.82-32.34a316.49,316.49,0,0,1,5.79-35.19c1.73-7.32,5.59-14.14,8.57-21.15,3.48-8.2,9.33-15.06,12.46-23.62,2.78-7.61,10.21-12.41,15.15-18.81a124.06,124.06,0,0,0,10-15.66,59.46,59.46,0,0,1,15.84-17.61c9.08-6.95,18.64-13.13,26.52-21.79,6.32-6.95,14-13.49,22.38-17.45,6.25-3,8.43-9.54,14.31-11.75s11.73-2.63,17.54-6a362.94,362.94,0,0,1,45.35-22.21,18.14,18.14,0,0,0,3.64-1.62c22.21-15.61,47.51-25.34,71.4-37.75a224.46,224.46,0,0,0,22.67-13.72c9.67-6.57,17.27-15.42,26.85-21.56,8.91-5.71,16.57-12.59,24.37-19.48a40.49,40.49,0,0,0,4.83-5c3.67-4.59,7.17-9.08,11.81-13,11.65-9.9,19.72-23.07,28.32-35.54,2.17-3.15,4.88-6.08,7.13-9.05,5.28-7,5.55-15.81,10.31-22.9,2.35-3.5,5-6.93,7-10.75,6.46-12.8,10.22-33.33,8.86-48.58-.18-2-.69-3.92,1.18-5.45a4.21,4.21,0,0,0,1.68-4.43c-2.93-10.06,3.06-15.78,9-22.82,10.89-12.85,24.71-16.82,40.25-17.08,10.16-.17,20.32.38,30.09,4.44a32.42,32.42,0,0,1,9.71,6.64c6.09,5.63,10.87,12.55,17.54,17.62,3.1,2.36,4,6,5.33,9.43s3.78,3.94,6.07,1.53c3.18-3.37,7.57-4,11.33-6,1.15-.62,3-.44,3.71-1.3,9.16-11.42,22-8.15,33.85-8.6,1.32,0,2.75.57,4,.24,18.22-5,29.7,6.82,41.82,16.83,1.78,1.47,3.18,3.5,5.47,4.17,2.66.78,3.24,2.46,3.78,5,1.47,7.14.7,14.65,3.6,21.54a3.39,3.39,0,0,1,.08,2c-.46,1.92-1.1,3.79-1.56,5.71-.32,1.32-1.11,2.91,1.19,3.35-8.57,7.51-5.72,17.45-5.68,26.79-.8.83-1.83,1.72-.56,2.84s2,0,2.72-.91c6.12,6.42,14,2.62,21.07,3.47,1.61.2,4-.49,4.08,1.32.56,8.42,8.38,9.52,13.32,13.15,3.62,2.66,6.76,5.32,8.58,9.28a15.43,15.43,0,0,0,4,5.27c6.27,5.68,8.35,13.85,7.46,21.54a57.84,57.84,0,0,0-.33,13.64A95.37,95.37,0,0,1,903.82,639a42.54,42.54,0,0,0-1.44,15.77c.82,8.77-3.38,16.67-4.87,25.07-1.86,10.47-6.15,20.37-11.34,29.77a6.51,6.51,0,0,0-1,2.8c-.19,10.77-7.49,18.43-12,27.28a130.69,130.69,0,0,1-9.64,15.81,18.07,18.07,0,0,0-3.26,7.1c-.25,1.29-.48,3.24-1.33,3.66-8.14,4-8.3,14.6-16,19-4.85,2.77-5.47,9.24-11.16,12.08C826.8,799.86,828.55,807.63,824.78,811.91ZM415.51,1122.2l.15.15c-2.11-4.24-5.67-4.54-9.17-2.54-4.44,2.54-7.86,6.73-8.5,11.67a187.8,187.8,0,0,0-1.11,24.22c0,2.91,1.6,5.31,4.55,7.11,5.9,3.59,12,4.23,18.69,3.79,5.5-.35,8-1.38,6.67-6.05-2.78-9.55-2.84-19.58-5.86-29A21.35,21.35,0,0,0,415.51,1122.2Zm22.13-229.36c.13,1.66.23,3.32.38,5,.53,6,3.33,8.07,9,6.59,1.58-.41,3-1.42,4.57-1.9,7.46-2.28,13.53-8.05,21.76-8.44,4.63-.22,6.94-3.18,8-7.55,2.12-8.66,4.09-17.29,7.7-25.6s-1.44-14.4-10.94-14.09a11.91,11.91,0,0,1-3,0c-9-2-14.19,3.41-18.7,9.65-1.52,2.11-2.63,4.39-4.67,6.25C442.95,870.75,437,880.25,437.64,892.84Zm148.25,639.4c7.32-.08,12.89-1.43,16.83-5.85,4.73-5.31,9.63-10.41,14.75-15.33,2.79-2.68,2-4.6-.73-7.32-4.11-4-8.16-6-14.06-5-4.82.87-10.78,1.78-14.32-1.62-4.9-4.71-11.68-7.76-14.31-14.86-.87-2.36-3-4.29-4.76-6.28-2.26-2.6-5.09-4.57-8.67-3.87-4,.78-4.47,4.47-5.31,7.66-1,3.91-1.66,8.17-.05,11.74,2.85,6.35,3.16,13.31,5.91,19.7,4,9.31,12.26,14,19.47,19.84C582.54,1532.62,585,1532.27,585.89,1532.24ZM408.31,802.37a4.48,4.48,0,0,0-2.29-4.14c-6.51-4.51-14.77-5.68-20.78-2.44-5.18,2.78-10.59,3.94-15.71,6.23-9.13,4.09-18.84,7.93-19.61,20-.47,7.36-1.51,14.51-4.48,21.27-1.06,2.4-1.24,4.48.75,6.34,2.75,2.57,17.55,3.32,19.07.25,3.21-6.49,7.83-10.2,14.69-11.88,1.1-.27,1.67-2.68,2.49-4.09s1.31-3.42,2.54-4.11c7.11-4,10.43-11.76,16.8-16.57A16.86,16.86,0,0,0,408.31,802.37Zm70.92-79c-.94,5,1.88,8.91,3.69,13.11a2.33,2.33,0,0,0,4.11.44c4-5.88,11.22-7.7,15.81-13.21a144,144,0,0,1,27.9-26.26c4.17-2.92,6.45-7.57,9.41-11.58,1.7-2.29,1-4.24-1.48-5.79-6.83-4.28-14.4-4.11-21.34-1.8-8.29,2.76-17,4.92-24.15,10.57-11.81-1.71-11.34,7.55-12.52,14.62C479.57,710,479.65,716.72,479.22,723.35Zm161-57.88c-1.11-.6-2.19-1.6-3.38-1.77-6.14-.85-12.44-2.84-18.33.66-8.75,5.2-18,9.85-23.12,19.41-1.25,2.35-.39,4.28.78,6.48,3.18,6,6.33,12,8.94,18.31,2,4.78,0,12.08,5,14.46s10.39-2.54,16-2.4C625.22,714.35,632.62,683.2,640.26,665.47Zm71.31,131.95c7.69.14,9.4-1.7,12-7.34,5.82-12.47,8.91-26.25,18.63-36.88,4.59-5,3.1-9.61-3.16-12.24a16.87,16.87,0,0,0-8.73-1.21c-9.2,1.13-16.48,5.79-23.82,11.1-8.65,6.27-10.78,13.66-6.85,23.25a13.17,13.17,0,0,1,.33,2c1.19,5.06,3.4,10-.79,15-1.65,2,2.24,6.9,5.5,5.91S710.54,797.31,711.57,797.42ZM300.45,848.18a2.5,2.5,0,0,0-.79-2.78c-1.86-1.74-16.39-4.36-18.6-3.14-6,3.33-9.86,9.64-16.51,12.15a2,2,0,0,0-1.12,1.53c.69,4.59-3.08,4.6-5.74,6.15-5,2.88-6.69,9.08-3.48,13.69,5.27,7.58,11.06,14.74,12.8,24.21.38,2.08,3.27,2.06,3.71.46,1.2-4.47,3.14-4.24,6.31-2.07,3.58,2.45,4.49.08,5.1-3,1-4.85.79-10.62,3.46-14.28,6.59-9.06,7.23-20.44,13.07-29.62C299.37,850.37,299.92,849.16,300.45,848.18Zm28.17,138.39c11.36,1,17.62-3.55,22-13.82,2.93-6.84,2.84-14.17,6.11-20.75,5-10,1.41-19.91-2.06-29.43-2.22-6.09-5.42-6.21-10.6-2.2-5.34,4.15-8,10.21-12.09,15.22-6.88,8.44-11.54,17.17-6.42,28.25.41.9.48,2,1,2.82A24.56,24.56,0,0,1,328.63,986.57ZM511.49,1420c-.7-9.72-7.28-18.51-10.59-28.48-1.45-4.36-4.73-.28-6.51-2.37-3.66-4.28-7.56-8.34-11.37-12.49-3.47-3.78-15.88-2.41-16.77,2.37-1.31,7-3.43,14.72,1,21.1,2.63,3.83,4.44,8,7.11,11.85,7.49,10.64,17.39,15.94,30.26,16.11C510.43,1428.16,511.58,1427,511.49,1420ZM793.63,645.11c-.11-11.37-1-15.82-4.31-21-4.06-6.4-8.8-7.86-15-4-5.57,3.49-11,7.33-14.63,13-2,3.07-6.5,6.19.41,8.93.94.37,1,1.61.11,2.39-3.75,3.38-2,6.55.45,9.54a24.51,24.51,0,0,1,5.62,16.48c-.09,3.71,1.65,5.17,5.18,5.87,10.36,2.07,16.47-2.15,17.9-12.95.12-.94-.14-2.07.6-2.65C795.37,656.52,793.45,650.58,793.63,645.11Zm-443,461.4c2.57-1.06,5-2.1,7.39-3.05,6.45-2.53,6.63-2.6,3.49-8.72-1.32-2.57-2.52-5.32-.54-7.37,5.28-5.46,3.22-12.16,3.61-18.34.37-6-.23-12-5.14-16.49a5.65,5.65,0,0,1-2-3.16c-1.23-5.25-5.19-7.24-9.06-4.36-4.25,3.16-8.89,7-9.62,12.23-1.17,8.45-7.23,14.76-7.69,23.94-.47,9.51-2.09,11.19,6.08,14.43C343,1097.89,347.66,1101.18,350.66,1106.51ZM94.29,1520.94c-.16,3.71-.18,8.51,4.93,8,4.55-.46,9-2.13,12-7.35,4.87-8.39,10-16.82,17.24-23.68,4.23-4,5.45-9.91,6.73-15.32,1.49-6.33-2.68-9.53-9.34-8.89-13.19,1.26-21.9,10.94-32.5,17C89.69,1492.73,88.7,1497,90,1502,91.62,1508.18,91.87,1514.72,94.29,1520.94Zm788.12-273.5c0-.87,0,.13,0,1.12.18,9.55,1.69,10.23,11.33,8.77,9.07-1.38,14.54-7.68,20.09-13.52,2.63-2.77,10.11-5.5,4.13-11.93-.21-.22.22-1.31.61-1.78,3.86-4.74,2.81-10.78,4.16-16.16,1.74-6.94-1.12-9.1-8.42-9.45-8.46-.41-12.76,5.67-18.08,10.19C886.75,1222.73,880.74,1232.46,882.41,1247.43ZM545.84,847c-.46,3.72.39,5.52,4.73,6.94,8.45,2.78,13.27-3.31,17.56-7.28,8.37-7.74,14.77-17.54,22.66-25.95,5.61-6,4.23-9.83-3.25-13.32-9.64-4.5-18.89-2.19-27.53,2-4.09,2-8.7,6.11-9.87,10.18C547.6,828.35,547.14,837.78,545.84,847ZM253.61,1096.36c.79-3.05-3.78-7.14-5-12.25-.56-2.38-3.24-1.93-5.08-.93-5.35,2.92-9.54,7.77-13.45,11.86-6.55,6.86-6.64,17.54-9.42,26.62-1.24,4,1.89,6,4,8.39a1.85,1.85,0,0,1,.21.95c.88,8.29.91,8.14,7.93,9.76,3.55.82,7.22.75,10.73,2.13,4.49,1.76,7.32-1.69,10.27-4.3,2.71-2.4,1.29-4.84,0-7.18-2.51-4.59-2.32-9.62-2.62-14.59C250.84,1110.79,252.69,1105,253.61,1096.36Zm601,204.61c.35-4-.35-5.75-3.85-6.62-6.71-1.67-13,.59-16.09,6.89-3.16,6.48-7.27,12.44-10.85,18.64-2,3.45-3.48,5.23-.45,8s1.39,4.47-.82,6.47c-3.61,3.26-3.48,5.52.7,7,2.81,1,5.88,1.44,8,3.73,4.15,4.44,8.63,2.8,12.64.33,8.81-5.42,15.31-21.39,12.23-31.39C854.69,1309.29,852.49,1305,854.64,1301Zm-609.7,239c.22-8-1-8.91-8.06-5.49-2.06,1-4.37,1.27-6.48,1.91-8.61,2.6-10.58,9.68-12.73,16.83-.47,1.56-.38,3.36-1.12,4.74-2.68,5-.88,9.79.86,14.38,1.91,5,9.11,5.4,10.52,11.14,0,.15.68.35.88.24,5-2.72,12,.13,15.69-6.29,2.45-4.29,5.95-7.79,9.6-11.24,4.64-4.39,3.57-8.29-2.18-11.75C250,1553.32,244.87,1542.61,244.94,1540Zm19.28-561.53c1.48-4-.22-5.06-4.27-4.47-2.37.35-4.44.72-6.14,2.69-4.78,5.54-9.8,10.88-14.58,16.42-3.13,3.63-5.21,8.43-4.53,12.76,1.69,10.76,8.52,19.06,16.21,26.26,4.11,3.85,8.6,2.15,9.08-3.49,1-12,6.75-22.91,7.95-34.84.43-4.28,3.3-9.27-3.37-11.65C263.1,981.62,263.44,980,264.22,978.46Zm563-242.26c-.91-5.91.29-11,1.12-16.27,1.3-8.16,2.13-16.39,3-24.61.5-4.6-2.58-7.95-5.92-9.47-2.89-1.31-5,2.5-6.59,4.89a164.77,164.77,0,0,1-14.34,18.85c-4.57,5.21-4.81,9.51-3.67,15.16s2.71,11.49,1,17.52c-.6,2.08-1.23,5.22.93,6.49,3.15,1.85,7,1.46,10.57.93,1.65-.25,4.75-7.93,4.44-9.91-.29-1.82.11-3.4,2.3-3.56C822,736.09,824,736.2,827.23,736.2ZM412,1298.88c1.61,15.92,10.81,26.32,25.17,21.16,2.75-1,5.65-2,8.78-1.32s4.87-.69,6.1-3.66c1.42-3.41.36-6.65-2.1-7.94-9.32-4.89-11-13.57-12.49-22.58a18.65,18.65,0,0,0-9.45-13.38c-4.2-2.49-8.41-1.65-9.75,2.76C415.56,1282.75,413.7,1291.8,412,1298.88ZM258.67,1791.39c8.27,0,13.6-4.19,19.88-5.1,3.2-.46,7-.75,7.59-5.1.49-3.61-1.42-6.5-4-8.68a102.79,102.79,0,0,0-10.35-7.62c-3.1-2-7-1.65-9.57-6-2.91-4.87-7.23,2.4-11.35,1.32-1.92-.51-3.87-.88-5.79-1.35a41.5,41.5,0,0,0-5.77-1.47c-6-.58-8.63,3.11-5.78,8.5,1.36,2.57,2.6,4.62.73,7.23-2.45,3.42-.91,5.33,2.24,7.06,2.59,1.43,5,3.35,7.51,4.78C249.08,1787.86,254.74,1789.73,258.67,1791.39ZM146.26,1664.11c.73-.1,1.39-.15,2-.29,8.19-1.79,14.59-7.58,22.55-10.1,3.31-1.05,2.74-8.76-.61-11a26.29,26.29,0,0,0-9-3.85c-7.42-1.59-13.72-4.67-14.78-13.53-.21-1.78-.91-4-3.26-4.52-8.33-1.94-18.54,7.8-17.28,16.21,1.46,9.81,8,16.84,13.14,24.62C140.62,1664.11,143.78,1663.61,146.26,1664.11Zm63-200.39c.53-6.33-1.37-13.49-2.77-20.6-1-5-3-10.18-8.2-13.11-3.26-1.84-6.32-1.52-7.73,1.51-5.3,11.35-11,22.57-8,36,1.65,7.5,1.48,15.47,12.44,14.94,1,0,2,1.82,3.15,2.27,3.27,1.23,5.33,1.67,7.5-3A36,36,0,0,0,209.28,1463.72Zm535.7,33.1c.68-5,.24-5.5-4.15-6.67-7-1.87-13.7-.19-20.07,2.5-10,4.22-19.14,10.12-28.26,16-5.64,3.63-6.14,4.78-3.73,10.08,1.51,3.32,9,7.66,11.78,6.36,11.15-5.26,24.14-5.41,34.34-13.94C740.08,1506.8,743.52,1502.45,745,1496.83ZM243.16,1683.64c8.31,0,11.56-3.5,9.42-10.18-1.15-3.6-4.52-4.71-7.36-6.2-7.64-4-15.47-7.68-16.35-17.9-.1-1.19-1.2-2.3-1.86-3.43-2.75-4.65-3.26-4.67-6.67.25-.76,1.09-1.21,2.57-2.73,2.44-8-.73-8.65,6.32-9.44,10.75-3,16.48,9.8,28.52,26.23,25.53C237.3,1684.37,240.11,1683.25,243.16,1683.64ZM75.93,1728c.14,2.66.12,5.34.48,8a52.17,52.17,0,0,0,1.61,6.79c2.37,8.58,9.19,13.4,17.72,11.7a145,145,0,0,1,14.69-2.67c3.24-.31,4.15-2.55,5.23-5.16,1.27-3.09-.67-4.25-2.52-5.63-5.42-4-8.94-9.16-11.89-15.43s-7.17-12.86-14.13-16.21c-5.77-2.78-8.44-1.32-9.68,4.8C76.52,1718.71,75.63,1723.28,75.93,1728Zm735-293c-.06-.3-.27-1.61-.61-2.88-.86-3.23-1.85-6.5-4.47-8.71-1.89-1.6.69-6-3.78-5.73a11.55,11.55,0,0,0-7,3.45,27,27,0,0,0-4,5.61c-3.36,5.4-6.51,11.09-10.21,16.07-5.62,7.58-8.48,17.48-4.51,25.4.4.79,1.45,1.9,2.09,1.83,3.8-.43,7.53,2.33,11.47-.56,10.88-8,17.22-18.85,21-31.48A14.75,14.75,0,0,0,810.91,1435ZM72.77,1605.25c-.54-2.78-1-5.38-1.56-8-.87-4.3-3.11-5.2-7.23-3.61a14.12,14.12,0,0,0-5.73,3.56c-2.69,2.91-5.24,6.33-8.6,8.14-7.62,4.1-9,11.13-9.42,18.37a14.75,14.75,0,0,0,6.93,13.55c3.56,2.35,7.54,4.06,11,6.5,3.68,2.56,6.77,0,9.65-1,3.19-1.18,2-5,1-7-2.76-5.64-1.41-10.76.37-16.2C70.76,1614.83,71.64,1609.92,72.77,1605.25Zm374.47-531.39c2.25-2.89,3.65-5.84,7.34-4.86,2.35.62,2.94-1.75,2.46-3.19-3.42-10.32.56-20.12,1.76-30.12.93-7.68-7.19-17.82-14.72-18-3.12-.07-7.23.08-6.82,5.07.52,6.41-3.51,11.38-5.92,16.52-2,4.21-5.28,6.95-2.45,12.19,4,7.43,4,7.33,7.38,10.51C440,1065.47,446.08,1066.49,447.25,1073.87ZM302.2,1528a38.6,38.6,0,0,0,14-1.33c5.23-1.54,6-4.49,2.39-8.47-1.33-1.48-2.83-2.81-4.13-4.32-5.14-6-5.94-13-2.3-20,.72-1.39,2.71-2.59,1.51-4.28a6,6,0,0,0-6.16-2.46c-2.49.44-4.85,2.72-7.5.57-3-2.45-4.88-.18-6.75,1.65-6.69,6.55-7.92,15-7.43,23.69C286.51,1524.18,291,1528,302.2,1528Zm391-938c0-2,.49-4.14-.09-5.94-1.84-5.76-1.42-12.29-7.38-16.63-3.76-2.74-5.89-2.62-7.88,1.07-1.26,2.33-1.87,5.06-4.32,6.52-4.81,2.87-4.35,7.22-2.9,11.43,2.75,8,5.86,15.86,8.94,23.73.83,2.13,1.73,4.66,4.49,4.82,2.91.17,5.14-1.85,6.4-4.06,1.44-2.53,3-5.74,2.59-8.39C692.39,598.18,693.32,594.12,693.16,590ZM219.58,1343.74c-2.54-.22-3.24,2.22-5,3.07-8,3.89-11.22,13-5.68,19.27,6.3,7.1,12.45,14.58,20.51,20,2.16,1.46,3.65,1.22,5.1-.57,6.86-8.55,3-25.67-7-30.18a8,8,0,0,1-4.48-4.77C222,1348.25,221.62,1345.5,219.58,1343.74Zm-54.13,461c5.18-1.43,10.22-.88,14.09-4.81,1.39-1.42,4.7-1.17,4.49-4.24-.2-2.93-2.23-4.42-4.88-5.61-9.14-4.11-19.78-4-28.15-10.55-2.63-2.05-5.59.43-4.49,3.62,1.19,3.48,3.17,6.48-.28,9.89-.4.4,1.19,4.12,2.59,4.8C154.37,1800.53,160.22,1802.63,165.45,1804.75Z" style="fill:#e56267;"/><path d="M2031.61,820.29c.73,8.26-4.89,14.91-10,18-8.92,5.3-15.19,13.06-23,19.19-4.59,3.58-9.71,6.43-12.59,12-1.49,2.9-5.32,3.82-8.13,5.58s-6.77,1.7-8.64,5.91c-1.63,3.69-4.31-1.36-7.36-.5,1.25,4.91-1.51,7.65-4.9,11.34-6.8,7.39-14.57,13.9-20.63,22-.58.77-1.1,2-1.82,2.19-10.91,2.21-15.78,12.52-24.16,18.17-2.7,1.82-5.88,2.37-8.43,4.72-4.86,4.47-11.85,5.85-16.41,11.42-2.36,2.89-6.46,4.65-11.33,4.83-6.74.25-11.44,6.21-16.84,9.76-10.6,7-22.57,10.34-34,15.13-8.48-2.33-17.15-1.76-25.79-1.85-1.17,0-2.3-2.18-3.5-3.3-1.43-1.35-2.9-3.7-4.81-3.11-6.32,2-8.62-.42-8.68-6.58,0-1.93-2.29-2.07-3.76-2.74-10.06-4.56-15.71-13.46-21.31-22.24-1.23-1.93-2.29-2.36-4.21-3.1-9.2-3.56-18-8-27-12.12a21.29,21.29,0,0,1-12-15c-.35-1.63-.52-3.25-1.57-4.65-3.5-4.67-10.42-6-13-10.53s-4-9.56-9.45-11.8c-1.81-.74-3.08-2.34-4.48-3.79-6.18-6.38-11.56-13.39-18.37-19.33-9.14-8-14.89-19-21.35-29.32-.82-1.3-.34-3.25-1.89-4.41-4.21-3.15-9.33-5.82-7.35-12.6-4.79-1.78-4.48-7.49-8.13-10.37a26.39,26.39,0,0,1-9-12.92c-1.2-3.76-3.41-7.38-7.26-9.12-4.88-2.21-7.47-6.25-10.13-10.6a131.87,131.87,0,0,0-18-23.74c-4.53-4.65-9.6-9.81-10.58-17.15-.25-1.84-1.36-4.35-2.82-5.11-6.71-3.48-8.18-10.85-12.49-16.08S1548.95,697,1543.84,692a32.56,32.56,0,0,1-9.54-20.16c-.64-6.24-5.2-10.64-8.19-15.18-6.2-9.43-11.33-18.79-14.72-29.69-2.28-7.32-6.52-14.19-8.83-21.81-1.77-5.82-3.06-11.42-2.45-17.55.76-7.6,1.82-15.16,2.55-22.76.82-8.5,6.93-14.7,12.82-20.56,1.17-1.17,2.94-1.89,3.73-3.24,3.13-5.35,7.32-6.21,12.61-2.8,2.12-3.2-2.67-10.29,5.8-8.81,2.54.44,2.21-4.25,4.13-6.19,7.49-7.56,14.74-15.35,22-23.15,1.25-1.35,2.78-2.38,4.32-1.91,5.53,1.69,7.57-2.27,10.27-5.63a65.7,65.7,0,0,1,15.74-14.6,17.51,17.51,0,0,0,4.48-3.88c6.64-8.65,15.49-14,25.6-17.56,1.31-.46,2.47-.91,3.11-2.19,4-8,12.62-9.75,19.18-14.35,9.26-6.5,19.8-10.44,28.92-17.62a370.08,370.08,0,0,1,40.74-28.16c11.21-6.61,23-13.21,31.69-23.41,4.94-5.81,13.6-7,17-14.46,11.51-3.94,20-13.8,32.28-16.25a8.57,8.57,0,0,0,5.12-2.48c8.27-8.61,18.28-14.77,29.24-19.34a39.57,39.57,0,0,0,10.12-6.18c8.06-6.66,16.49-12.87,24.68-19.38a35.42,35.42,0,0,0,4.72-5.12c.85-1,1.36-3,2.24-3.18,9.56-1.4,13.83-10.5,21.62-14.64,7.09-3.77,14.26-7.94,19.81-14.12,4.22-4.7,10.19-7,15.27-10.43,7.55-5.15,14.92-10.46,23.8-14,6.08-2.41,12.2-7.46,17.54-12.18,10.63-9.39,22.93-16.55,33.45-26.12,8-7.32,18.58-11.12,27.54-17.23.73-.5,2.41-.92,2.63-.62,4.67,6.2,7.86.8,11.35-1.42,8.3-5.27,17.17-2.77,25-.18a95,95,0,0,1,13.57,5.3c5.64,2.89,11.36,5.46,14.94,11.07.52.82,1.29,2,2,2.07,7.81.78,9.39,7.39,11.95,12.85,3,6.31,5.72,12.33,13.39,14.49,2.14.6,3.68,3.65,5.28,5.75,4.54,6,8.71,11.89,14.59,17.09,4.89,4.32,9.8,9.44,14.43,14.45a22.7,22.7,0,0,1,5.71,12.53c.21,1.6.29,4.09,1.25,4.6,7.25,3.83,8.28,12.57,14.45,17.55,3.62,2.92,7.1,8.86,7.47,13.21.59,7,7.07,9.78,8.2,15.86.29,1.56,2.52,3.22,4.24,4,8.46,3.67,13.32,10.36,16.65,18.57.86,2.12,1.92,5.32,3.53,5.79,12.21,3.5,13.21,18.7,24.49,23,1.24.48,1.2,2.19,1.42,3.52.26,1.61.4,3.62,1.41,4.65,5.06,5.13,9.57,10.71,14.24,16.11a109.4,109.4,0,0,1,11.32,15.88c5.79,9.71,12.15,19,13.64,30.59.41,3.19,3.42,4.82,5.64,6.76,3.1,2.71,7.83,4.44,3.48,10-1.44,1.85,1.84,3,2.81,4.58,2.45,3.94,8.14,5.81,6.7,12.36-.65,3,3.57,4.83,5.87,6.12,8.81,4.94,10.06,13.58,10.94,22,.47,4.49,1.91,7.79,3.95,11.72a43.93,43.93,0,0,1,4,29.57,6,6,0,0,1-3,3.81c-3.08,1.94-3.59,5-2.69,7.91,3.13,10-3.45,15.44-9.64,20.92-4.52,4-10.15,6.77-12.66,12.82-.62,1.5-2,2.75-1.34,4.53,1,2.53.2,3.35-2.44,3.94-8.46,1.9-13.68,7.94-17.52,15.18-2.44,4.59-5.27,8.42-10.44,10.07s-7.33,8.09-13.58,7.63c-.48,0-1.51.88-1.45,1.07,3.33,9.89-9.11,8.2-11,15.18-1.84,6.81-10.26,8.91-15.26,13.5-4.76,4.36-11.26,5.77-15.3,11.17-3.72,5-8.67,9.08-13,13.6-10.66,11.1-21.25,22.44-33.56,31.47-5.75,4.22-10.47,11-18.73,12-1.92.22-4,2.47-5.25,4.31a22,22,0,0,1-6.43,6.06c-4.93,3.32-9.71,6.74-12.86,12.15a14.79,14.79,0,0,1-7.33,6.57c-1.2.46-3.19,1.23-3.24,2-.64,9.11-10.82,9.87-14.27,16.47a4.51,4.51,0,0,1-3.21,2.14c-8.13.13-13.32,7-20.67,8.86a10.9,10.9,0,0,0-4.13,2.62c-7.25,6.44-7.23,6.27-17.86,6.5-3.39.07-5.92,1.09-8,5.47-3.36,7-7.06,15.08-16.37,17l-.55-1.24Zm-210-234.23c-3.29-2.27,2.28-7.71-3.59-7.13-6.5.64-13.8,1-19.19,3.22-5.84,2.44-9.47.94-13.59-1.07-5.17-2.53-10.17-3.19-16-3.28-7.9-.12-16.54,4.18-23.94-2.39-.67-.6-2.58-.09-3.8.27-6.23,1.84-12.73,1.64-18.85.69-6.86-1.06-13,.46-19.53,1.61-3.74.67-6.83,1.78-8.94,5-3-3.89-7.26-3.1-11-2.28-11.64,2.53-22.05-6-33.66-3.47-1.06.23-2.39-1.11-3.66-1.44-6.38-1.61-13.34-5.49-19.08-4.17-11.07,2.55-22.63-2.92-33.12,3-17,.67-33.52,4.74-50.12,8.11-7.18,1.46-10.21,8.08-5.79,13.8,4,5.18,8.52,10.47,15.66,11.62,4.33.7,8.26,2.47,12.3,4,6.26,2.3,13,4.61,19.32,3.38,11.13-2.17,21.8,2.54,32.82.67,3.72-.63,7.83.14,11.8,1.24,5.35,1.49,11.29,3.44,16.44,2.44,7.46-1.44,13.14,2,19.35,4.07,1.78.6,3.07,2.15,5.32,1.4,8.88-3,18.3-1.35,27.41-3.15,5.18-1,10.32-3,15.52-3.11s9.59,1.22,15.36-.4c8.92-2.5,19.05-1,28.65-.59,5.61.23,8.13,4.17,6.27,9.46-2.16,6.13-2.18,12.28-2,18.63.1,3.18.78,6.33,0,9.68-3,12.6-4.07,25.19.46,37.84,1.88,5.24,3.84,11,3.43,16.38-.8,10.53,1.37,21.2-1.77,31.67a15.27,15.27,0,0,0,1.1,10.78c3.49,6.88-.35,15.37,5.06,21.76.73.86-.27,1.76-.77,2.6-3.52,6-1.31,12.31-.88,18.47.53,7.64,5.41,15,1,23-.7,1.27-.18,3.29,0,4.94.7,7-2.1,14.36,1.78,21.19a4.8,4.8,0,0,1-.13,3.91c-3.65,7.08-2.23,14.94-2.84,22.3-.63,7.59-2.33,16.56,6.4,22.27a67.36,67.36,0,0,1,12.37,11.12c3.5,3.82,9.16,3.41,13,2.33s3.7-6.51,3.17-10.64a25.66,25.66,0,0,0-.4-3.94c-2.56-8.61-.88-17.63-2.55-26.26-1.35-7,.73-13.74.55-20.47-.26-9.71.59-19.54-1.36-29.24-.84-4.18-1.67-9.06-.33-12.86,4.64-13.19,0-26.14,0-39.17-.06-15.38-6.6-30.72-.22-46.16a2.94,2.94,0,0,0-.17-1.95c-2.24-5.8-1.15-11.85-1.43-17.8-.06-1.31.13-3.12-.61-3.82-6.58-6.1-6.06-14.88-6.64-22.2-1.17-14.89-1.49-29.86-3.44-44.71-.21-1.58-1.11-3.21,1-5,9.42-2,19.82,2.82,29.63-1.64.93-.42,2.51.9,3.79.9,7.16,0,14.24,3.73,21.46.7,5.25-2.21,10.47-.73,15.53.29,7.59,1.54,15,3.47,22.84,4.07s15.59,1.53,23.35,2.7c11.87,1.8,24,5.8,36.29,2.34.92-.26,1.9-.84,2.72.16,3.59,4.36,7.28,1.6,10.75,0,3.89-1.84,7.57-4.89,11.92-1.41,5.45,4.37,6.82-6.35,11.9-3.09a4.34,4.34,0,0,0,1.92.51c2.65.23,5.42.66,7.69-1.17s4.64-1.61,7.45-1.1c4.43.8,8.57.07,13.23-1.41,5.66-1.8,10.78-4.89,16.48-6.27,8.19-2,12.91-7.79,16.8-14.48,1.18-2,1.93-3.91,4.27-5.1,8.79-4.46,13.9-11.57,13.5-21.66-.28-7,.83-13.28,5.54-18.57,3-3.36,2.9-7.27,2.55-11.3-1.17-13.51-1.6-27,2.81-40.08a28,28,0,0,0,.72-13.79c-1.62-9.89.71-18.9,4.93-27.65,1-2.06,3.73-3.8,3-6.11-2.36-7.06,2.08-13.2,1.86-20.09a17.47,17.47,0,0,1,8.56,2.33c8.79,5.58,15.45,7.22,25.19,9.75,6.07,1.57,12.68,4.82,16.69,9.39,3.24,3.68,6.45,4.86,10.46,6.3,5.09,1.83,11.51-.2,15.37,3.36,5.58,5.15,12.55,8,18.15,13,4.12,3.7,8,8.82,13.61,9.66,6.72,1,12.33,4.77,18.9,6a14.12,14.12,0,0,1,9.13,5.41c4,5.21,12.15,5,16.15,10.71,6-1.68,11.66,1.53,17.69.88a78.22,78.22,0,0,1,24.69,1.39c6.52-13.8,4.21-20.45-9.29-26.66-1.29-.59-2.43-1.13-2.84-2.47-2-6.45-7-7.3-12.68-7.13-2.33.07-4.69.36-6.77-1.07-5.6-3.85-10.25-9.4-17.85-9.67-.68,0-1.47-1.3-1.95-2.15-4.9-8.68-16.19-8.91-21.87-16.54-6,.47-9.38-4-13.44-7.17-7.32-5.67-14.14-12.33-24.5-11.64a4.81,4.81,0,0,1-2.76-1c-13.28-9.4-28.82-13.42-44.11-17.51-10-2.67-20.62-3.26-30.73.21-5.54-7.54-6.26-15.66-2.61-24.25,2.16-5.07,1.65-10.48,1.68-15.79,0-3.32-.43-6.58,1.86-9.54,2.41-3.14,1.92-7,1.65-10.61-.55-7.36-2.79-14.74,1.52-21.85,1.28-2.1,0-4.6-1.05-6.67-3.47-6.58-3.25-13.9-2-20.51,1.56-8,.64-15.67-.11-23.42-.91-9.34,3.88-19-1.64-28.07-.12-.19.11-.64.24-.94,2.38-5.26-.18-8.9-2.75-13.6-4.3-7.87-12-11.13-18-16.66-2.22-2.06-4.05-1.28-4.93,1.95-2.7,9.88-5.62,19.7-4.53,30.15.14,1.31.37,2.88-.19,3.94-4.46,8.42-4.16,17.7-5.18,26.75-.22,2,.1,5.11-.93,5.66-6.3,3.37-4.08,9.13-4.13,13.94-.1,9.7-1.82,19.58,1.87,29,1.11,2.86.2,5.49-1.14,7.63-4.79,7.59-2.51,16-2.8,24-.19,5.24,2.31,10.39-3.68,14.08-2,1.25-.59,3.52-.27,5.47a84.22,84.22,0,0,1-.2,28.44c-1.21,6.69-1.4,12.85.32,18.92,2.17,7.64-3.94,15,0,22.44-6,2.14-2.31,8.15-4.28,11.17-4.51,6.94-3.09,14.73-2,20.9,2.19,12.26-3.58,23.29-2.65,35.21.34,4.34-.85,9.21.54,13.57,1.73,5.43.75,10-3.23,13.65-4.55,4.22-5.33,10.08-6,15.36-.58,4.78-.59,8.68-6.2,9.43-4.27.58-7,6.29-11.77,4.05s-10-.25-14.56-2.52c-4.08-2-7,.69-10.16,2.34-4,2.08-5.76-4.91-9.91-2.15-5.37,3.57-11.7,3.25-17.67,4.53-7.53,1.61-15,1.34-22.41,2-9.35.77-18.92.41-27.88-3.44-10.47,3.43-21.21-1.8-31.35.66-4,1-8.26.44-11.23,1.54-7.4,2.73-14.09-.63-20.74-1C1830.82,579.52,1826.2,581.06,1821.65,586.06Z" style="fill:#4eb8cb;"/><path d="M1843.16,1113c3-7,5.51-11.66,12.45-9.38.85.28,2.54.3,2.77-.14,5-9.39,17.08-9.05,23.27-16.79.81-1,2.24-1.58,3-2.64,8.45-12.5,22-19.45,32.36-29.74,3.54-3.5,6.45-7.84,9.79-11.69,4.63-5.34,10.14-9.63,15.68-13.87s7.49-3.24,9.76,3.58a20.25,20.25,0,0,1-.93,15.51c-3,6.36-5.38,12.92-5.94,19.95-.27,3.33-2.5,5.34-4.09,7.82-4.6,7.16-9.06,15.12-14.84,20.59-6.72,6.38-8.92,15.61-16.05,20.91-6.92,5.15-13.41,11.57-20.91,15.06-10,4.64-18.33,11.93-28.57,15.77-3,1.11-5,3.32-7.21,5.18-3.66,3.09-6.92,5.44-12.29,5.21-5-.21-8.52,4.64-13.22,6.35-3.75,1.37-7,3.53-11.31,1.46-1.66-.8-4.55-1.22-5.83-.32-9.2,6.44-18.65,1.08-27.94.92a11.64,11.64,0,0,0-5.7,1.28c-3.2,1.63-6.15,2.09-9.26-.46a7.46,7.46,0,0,0-7.59-1.31c-6.21,2.82-12.24,3.15-19.09,2.5-5.15-.49-10.35,1-15.2-2.26-4.56-3-7.93,4.12-11.81,2.07-3.55-1.87-5-7.18-10.39-6.53-10.31,1.25-18.34-7.74-28.68-6.44-4.58-6.5-12.65-6.71-18.75-10.46-12.7-7.81-25.68-14.91-40.62-17.59a18.85,18.85,0,0,1-6.4-2.67c-4.13-2.57-8.4-3.89-13.27-2.91-1,.19-2.2.52-3,.13-12-6.31-25.32-.82-37.55-4.34-3.07-.88-5.7-1.13-8.63.11-1.14.48-3.13.78-3.85.15-6.07-5.25-11.78-1.54-17.46.52-8.38,3-16.94,0-25.46,1.11-8.88,1.21-17.32,2-25.71,6.35-5.71,3-12.67,4.86-19.3,6.65-8.59,2.32-18.43,3-25.61,9.71-.92.86-2.5,1-3.49,1.79-3.26,2.66-8.29-.25-11.17,3.81-2.61,3.68-7.37,4-11,6.22-9,5.5-19.52,7.86-29.32,11.52-8.57,3.2-15.78,8.36-23.67,12.37-7.28,3.7-14.94,6.61-22.36,9.55-10.26,4.05-20.31,8-29.3,14.47a7.3,7.3,0,0,1-1.65,1.11c-2.89,1-5.91,5-8.78,1.26-2.52-3.26.54-6.17,2.71-8.7,4.3-5,8.43-10,13.71-14.25,4.87-3.95,7.75-10.31,13.49-13.94,10.94-6.92,20.13-16,29-25.29,2.92-3.09,7.1-.38,9.82-3.73,5.79-7.14,14.22-11.44,22.47-13.66,12.12-3.26,21.22-11.3,31.52-17.17,6.87-3.92,15.6-4,21-10.57,6,1.17,10.7-3.29,16.79-3.43,6.89-.16,13.77-3.84,19.86-7.69,2.31-1.46,4-2.41,7-2.22,6.57.41,12.47-3.47,19.06-4.28,3.66-.45,7.28-1.15,10.81-.42a46.7,46.7,0,0,0,24.72-1.55c8.16-2.66,17.15-1.13,25.79-.89,4.86.13,9.8,1.11,14.12-2.39,1.91-1.55,4.56-2.15,6.44-.28,3.32,3.29,7.43,2.13,11.26,2.78,15.75,2.68,31.44,5.49,46.93,9.66,9.54,2.57,17.9,8.76,28.16,8.8,10.28,8,23.58,8,34.89,13.19,6.25,2.9,13.51,2.85,19.34,7.1,4.56,3.33,7.63-4,11.92-2.34,3.61,1.42,4.87,7.33,9.43,6.52,4.1-.73,8.61,1.9,12.35-1.63,1.58-1.5,3.7-1.36,5.63-.44,3.82,1.82,7.81,1.33,11.79,1,2.34-.21,5-.81,6.82.62,3.55,2.73,7,2.72,11.12,1.59,2.07-.57,5.19-.42,6.75.8,5.43,4.25,11.63,2,15.86.05a77.57,77.57,0,0,1,13.85-4.41c4.54-1.09,8.43-2.56,10.71-6.36C1837.69,1105,1840.13,1107.56,1843.16,1113Z" style="fill:#4eb8cb;"/><path d="M1312.56,1095c-2,2.83-.23,5.39.39,7.81,1.55,6-.48,10.52-5.36,13.76-13.56,9-25.07,20.71-38.57,29.64-5.66,3.75-11.38,9.1-19.12,8.83-2.42-.08-2.16,2.18-3.35,2.83-6.42,3.44-13,6.5-21.18,5.4,2.85-6.45,6-12.12,13.61-12.52,9.45-.49,14.68-6.86,19.75-13.48,4.22-5.52,7.24-12.43,12.48-16.61,9.12-7.28,13.69-17.85,21.36-26.06,3.36-3.59,6.38-7.51,7.57-12.65,1-4.25,5.5-6.09,8-9.55,5.39-7.46,7-16.94,13.59-23.63a7.83,7.83,0,0,0,1.83-4.57c.51-6.2,1.64-11.88,8.05-14.94a5,5,0,0,0,2-3.26c1.12-5.59,4.09-10.1,6.8-15,2.47-4.47,4.89-9.94,5.55-15.53.19-1.66.08-3.38,1.18-4.75,9.41-11.66,9.73-25.55,11-39.66,1.21-13.61,1.21-27.35,4.46-40.92,2.63-11,1.06-22.79-3.38-33.36-1.71-4.06,2.41-8.85-2.42-11.85,3.13-10.23-5.21-16.26-9.18-23.69-2-3.65-3.95-6.84-3.52-11,.56-5.4-2.78-10-5-13.73-4.32-7.33-5.65-15.31-8.23-23-3-9-11.35-12.52-17.68-18.1-8.18-7.19-17.2-13.61-21.74-24.07-2.6-6-1.53-7.36,4.51-9.1,8.44-2.44,15.5,1.92,22.93,4,16.11,4.48,30.55,12.15,42.54,24.13,2.57,2.57,5,4.11,5,8.79,0,3.95,5,6.74,7.53,10.31,2.91,4.14,6.51,7.51,5.65,13.15-.33,2.16.87,3.78,2.35,5.25,1.9,1.88,3.9,3.72,2.27,6.88-.7,1.36.05,2.61,1.31,3.33,4.05,2.32,4.64,7.4,7.46,10.15,9.39,9.16,5.95,21.92,10.29,32.36-4.12,7.32.79,14.07,1.26,21.1a276.42,276.42,0,0,1,.64,32.26,26.44,26.44,0,0,1-.95,5.85,88.2,88.2,0,0,0-1.74,43.05c.88,4.12-4.48,22.58-7.73,25.28-2.58,2.14-4.07,4.59-3.74,7.69.57,5.29-1.48,9.69-3.58,14.26a81.91,81.91,0,0,0-3.92,11.27c-2.06,7-4.76,13.54-9.59,19.34-5.43,6.52-10.5,13.44-13.26,21.75-.68,2.07-2.71,3.74-4.24,5.48-8.72,9.89-19.29,18.06-26.38,29.5-2.63,4.24-7.76,4-11.93.78C1316.59,1097.12,1315.88,1094.79,1312.56,1095Z" style="fill:#4eb8cb;"/><path d="M1050.4,1011.83c-9.76.53-19.12-.29-27.93-5.42-3.53-2.05-8-2.94-12-4.23-15-4.78-26-13.77-35.5-26.71-10.11-13.82-13.45-29.81-19.57-44.93-1.2-2.95-.3-5.91,0-8.85.2-1.94,1.19-3.75.24-5.81-3.56-7.79,1.11-13.66,4.6-19.89,3.21-5.73,6.1-11.64,9-17.52,7.76-15.51,17.09-29.43,32.26-39.14a80.23,80.23,0,0,1,35.64-12.41c11.91-1.25,23.75-3.12,35.82-.65,7.56,1.55,13.85,5.73,20.84,8.43,12.4,4.78,21,14.55,29.48,24a141,141,0,0,1,20.28,28.85c3.08,5.93,6,13.42,3.37,21-.33.93-.91,2.16-.57,2.88,4.57,9.66-.37,19-1.4,28.29-2,17.79-11.27,32.67-24,44.75-9.58,9.09-21.54,15.5-33.49,21C1076,1010.66,1063,1011.14,1050.4,1011.83ZM989.66,923c-.24,4.13,1.14,7.84,2.23,11.69,2.79,9.91,9.14,17.56,15.7,25,8.41,9.5,19.1,16.27,31.82,16.41,21,.23,38.46-8.47,51.73-25,8.09-10,12-21.22,13-34.52,1.86-25.23-6.82-43.68-30-53s-48.26-6.56-65.57,16.94c-2.75,3.74-5.59,7.42-8.3,11.19A54.43,54.43,0,0,0,989.66,923Z" style="fill:#193947;"/><path d="M2241.6,202.56c-6.59,1.79-11.48-1-16-5.51-2.32-2.31-5.34-3.93-8.06-5.84-1.63-1.14-4.15-1.9-4.77-3.44-4.59-11.46-17.4-14.87-23.71-24.58-.69-1.06-1.84-2.35-2.94-2.52-8.52-1.33-14.8-6.84-21.81-11.07-5.15-3.1-10.46-5.79-14.46-10.47-4.32-5-11-6-16.64-8.52-4.44-2-8.9-4.21-13.38-6.2-2.81-1.25-5.95-1-8.24-1.89-7.86-3-18.18-1.51-23-10.65-2.05-3.9-4.84-3.42-7.35-1.84-6.32,4-12.32,2.9-18.85.58-3.31-1.17-7.25-1-10.87-.75a78,78,0,0,1-24.67-2.52c-1.59-.43-3.34-1.17-4.83-.85-11.92,2.53-24.14-.23-36.16,2.41-4,.89-9.17-.45-13.51-2.5-7.4-3.5-5.74-3.47-3.49-11.25,3.49-12.09,14.39-17.35,20.65-26.67,2.49-3.71,7.41-5.26,11.76-7.11,3.57-1.51,6.52-4.51,9.71-6.88,1.67-1.24,4-2.68,5.4-1.17,4.42,4.68,9.09,2.36,13.84,1.3a13.06,13.06,0,0,1,3.95-.34c4.42.4,7.87,4.8,11.64,4.59,3.39-.19,6.55-4.24,10.9-2.47a3.87,3.87,0,0,0,4.55-.68c3-2.82,6-2.56,8.64.46a4.64,4.64,0,0,0,5.45,1.35c5.69-2.45,11.69-.92,17.51-1.63,7.18-.87,14.64-2.9,20.74,5.34,4.2,5.67,13.17,5.47,19.72,8.59,4,1.92,8,4.27,12.58,1,1.39-1,4.34.29,3.23,1.7-3.57,4.56.48,5,2.8,6,9.89,4.54,18.6,10.35,23.63,20.48,1.57,3.17,5,4.23,7.58,6.15,3.26,2.42,6.22,4.46,7,9.06.8,5,5.87,7.76,9.44,9.52,9.88,4.87,14.26,14.51,21.41,21.66,3.74,3.73,6.59,8.33,10.94,11.47a7.35,7.35,0,0,1,3.13,3.73c3.61,11.84,11,22.21,13.09,34.7C2249.35,202.68,2249.82,202.61,2241.6,202.56Z" style="fill:#4eb8cb;"/><path d="M983.55,1116.32c-8.23-2.06-16.72-2.61-25-4.44-8.16-1.79-12.77-7.15-16-13.13A175.27,175.27,0,0,1,928.36,1064c-3.72-13-8.41-25.74-13.27-38.37-5-13-8.48-26.32-11.95-39.77-2.36-9.16-3.86-18.67-7.83-27.49-3.05-6.77.67-16,7.3-20.32,4.14-2.71,8.65-5,11.44-9.37,6.19,2.51,9,8.19,12.07,13.38,8.89,14.83,14.24,31.42,23.31,46.25,6.82,11.16,14.37,21.86,25.06,28.86,7.45,4.88,15.28,9.8,23.79,13.31,12.18,5,19.65,14.18,21.09,27.71.77,7.26,2.2,14.4,2.21,21.82,0,6.16-1.59,11.14-5.87,15.16-6,5.61-10.56,12.55-18.16,16.69C993,1114.33,987.46,1112.66,983.55,1116.32Z" style="fill:#e56267;"/><path d="M1691.28,992.43c-.58,4.31-3.16,5.7-6.42,5.51a66.35,66.35,0,0,0-22.68,2.71c-7.75,2.34-15.53.35-23.13,2.54-3.19.92-7.15-.58-10.71-1.26-11.72-2.22-23.68-1.79-35.5-3.47-16.15-2.3-32.35-1.37-47.53,6.26-4.66,2.34-10.19,3.25-15.14,4.06-10.9,1.79-20.44,7.67-31.26,9.1-6.74.89-12.57,4.32-18.47,6.89-15.67,6.82-32,12.49-46.33,22.19-4.33,2.92-9.66,4.37-14.54,6.46-3.05,1.31-5.15-.21-6.8-2.55-1.77-2.5-1.28-4.16,1.91-5,7.89-2.19,7.9-2.26,8.79-11a6.07,6.07,0,0,1,2.48-4.12l39.19-33.16c10.81-1.92,18.22-10.56,27.88-14.3a165,165,0,0,0,16.92-8.11c4.41-2.3,8.68-5.13,14-3.29,2.61.9,4.83-.43,6.48-1.77,10.51-8.47,24.06-6.47,35.77-10.69a2.57,2.57,0,0,1,1.81.21c1.53,8.8,5.83,1.37,8.35,1.09,9.76-1.09,19.11.88,28.43,2.94,10,2.2,19.86,4.91,29.77,7.46,4.86,1.25,9.8,2.67,14.65.66s8.14,5.54,13,1.68c9.75,3.67,21.93,2.95,27.08,15C1690,989.93,1690.76,991.37,1691.28,992.43Z" style="fill:#4eb8cb;"/><path d="M1442.07,709.75c10.45-4.14,17.17-.36,23.39,6.86s10.32,15.32,15.41,23c4.91,7.43,7,16.23,12.09,23.48.77,1.08,1.67,2.07,1.41,3.55-1.93,10.62,3.09,20.39,3.76,30.73.84,13.06,2.68,25.75,1,39.22a188.15,188.15,0,0,1-7.74,35.42,95.56,95.56,0,0,1-12.42,24.32c-5.78,8.44-11.77,16.73-17.78,25-1.17,1.61-2.37,3.19-3.66,4.7-.89,1-2.11,1.8-3.51,1.22-2.15-.89-1.47-2.62-.94-4.19a161.82,161.82,0,0,1,11.74-27.41,41.7,41.7,0,0,0,5.67-22.85c-.16-3.32.7-6.37,1.67-9.61,2.27-7.56,1.48-15.65,1-23.4-.37-5.6-1.1-11.19-1-16.84,0-2,.26-4.16-.45-5.9-3.19-7.84-2.61-16.21-3.37-24.31a266.46,266.46,0,0,0-6.73-37.39,245.1,245.1,0,0,0-10.41-31.82C1449.26,718.77,1445.44,714.76,1442.07,709.75Z" style="fill:#4eb8cb;"/><path d="M2259.12,66.49c-.07,8.46-2.62,10.65-8.23,8.64-8.1-2.9-15.89-6.67-24-9.69-14.37-5.38-27.3-13.1-39.58-22.26-5.76-4.3-11.76-8.5-18.87-10.82-10.69-3.5-18.36-11.79-27.25-18.12-3-2.16-3-4.67-.69-7.65,4.93-6.36,9.09-7.69,17.29-5.79,7.72,1.79,15.39,3.92,23.49,3.69,9.33-.27,17.31,4.36,24.85,8.84,13.3,7.92,27.13,15.33,38.36,26.19C2252.76,47.48,2256.41,58.16,2259.12,66.49Z" style="fill:#4eb8cb;"/><path d="M994.19,780.74c-1.55,4.91-1.69,9.57-3.84,13.87-8.56,17.1-16.76,34.39-25.18,51.56-2.73,5.57-2.41,12.47-7.64,17-1.21,1-1.69,3-3,3.88-9.35,6.54-10.45,7.22-15.3-3.23-2.24-4.82-4-9.71-8.85-12.91-3-2-2.77-5-1.85-8.77,2.9-11.83,9.5-21.53,15.63-31.7,3.72-6.17,6-13.32,9.56-19.72,4.15-7.46,8.47-14.84,12.53-22.35a18.57,18.57,0,0,1,6.65-7.3c6.42-3.71,13.78-3.53,16.14,4.15C990.72,770.56,992.57,775.85,994.19,780.74Z" style="fill:#193947;"/><path d="M1160.25,868.71c1.56-4.62,3.31-9.19,4.64-13.89,1.11-3.93-.48-8.85,4.59-11.2,10.44-4.85,18.93-14.7,32.16-12.35,6.88,1.22,8.9,5.85,4.86,11.53-8.12,11.43-17.77,21.19-30.9,26.74C1168.31,872.62,1168.19,872.34,1160.25,868.71Z" style="fill:#193947;"/><path d="M1099.29,750.41c1,4.33,1.13,8.58,5.46,11,2.74,1.55,3,5,1.59,8.06-4.77,10.12-7.53,21-11.24,31.51-12.3-5.73-15.5-14.73-10.07-25.84a79.62,79.62,0,0,0,5.95-16.75C1092,753.84,1094.6,751.88,1099.29,750.41Z" style="fill:#193947;"/><path d="M1166.29,792.11c-3.74,8-11.36,13.86-12.65,23.32-.41,3-3.13,2.79-5.57,1.86-8.23-3.16-12.14-14.81-6.72-21.67a195.47,195.47,0,0,0,13.06-18.19c1.87-3,5.22-4.63,8.5-2.61s2.05,5-.11,7.49c-1.6,1.88.57,1.81,1.38,2.42,0,0,.27.86.27.86l.85-.1a3.85,3.85,0,0,0,.9,1.11Q1166.24,789.34,1166.29,792.11Z" style="fill:#193947;"/><path d="M1166.29,792.11q-.05-2.76-.1-5.52C1170.35,789.35,1170.36,790,1166.29,792.11Z" style="fill:#67acbd;"/><path d="M872.28,1992.09l-5.09,0c.59-1.84,1.3-3.58,3.48-4Z" style="fill:#67acbd;"/><path d="M1165.29,785.48l-.85.1s-.28-.87-.27-.86l.89-.08Z" style="fill:#67acbd;"/><path d="M555.57,2094.77c-1.65,1.71-3.89,2.36-3.2,6.16.85,4.64-2.43,6.33-5.51,3-3.9-4.22-10.71-3.5-13.49-8.95,4.17-8.88,2.17-18.36,2-27.5-.08-5.56-.16-11.15.07-16.69.27-6.71.77-13.25-2.83-19.42-.91-1.57-.56-3.86-.81-5.82-1.07-8.17,4.07-16.29.18-24.48,4.15-12,0-24.44,1.64-36.59,1.55-11.8,2.67-23.66,4.61-35.4,1.07-6.47,2.44-12.83,2.22-19.43-.14-4.36,3.3-7.52,3.67-12.07.76-9.52,2.31-19.05,3.85-28.46,3.23-19.85,8.14-38.84,22.45-55,12.6-14.26,26.21-27.65,37.92-42.81,9.4-12.17,22.59-21,33.94-31.44,9.16-8.44,20.86-12.64,30.06-20.69,4.49-3.94,10.9-4.39,15.42-8.51,2.18-2,5.78-3.37,8.24-1.14s3.24,5.3,2.46,9c-1.7,8.12-7,14.11-11.31,20.67-7.47,11.37-18.38,19.52-28.43,28.23-8.12,7-15.22,15.56-25.07,20.55-3.11,1.57-5,4.35-7.13,6.87-4,4.72-9,8.21-13.69,12.14-13.82,11.64-29.1,22.19-37.9,38.83-4.16,7.86-4.39,16.59-5.15,25.12-.73,8.23.24,16.59-3.44,24.49-1,2.24-.75,5.28-.51,7.9,1.48,16.19-1.31,32.35-.19,48.51.35,5.08-1.86,9.65-2.36,14.62-.86,8.47,3.18,16.36,1.1,25-2.48,10.24,1.25,21.43-4.47,31.45-1.15,2-.66,5.28-.19,7.84a52.06,52.06,0,0,1-3.33,29.94c-.37.9-.86,2.14-.54,2.89C560.38,2074,553.35,2084.34,555.57,2094.77Z" style="fill:#127d8e;"/><path d="M479.71,2065.57c-10.89-7-15.09-16.38-11.22-27.73,1.27-3.73,1-5.79-1.18-8.46a5.84,5.84,0,0,1-1.36-3.68c.84-10.35-2-20.39-2.37-30.61-.64-16.93,1.46-33.91-.82-50.83a11.07,11.07,0,0,1-.08-3.88c3.08-13.16.38-27,4.61-40a2.69,2.69,0,0,0,.07-1.92c-6.34-10.28-2-21.1-1.48-31.67.28-5.27.71-10.4-.46-15.63-2.23-10-1.57-20.19-1.45-30.31a19.1,19.1,0,0,0-3-11.34,33.55,33.55,0,0,1-5.38-16.87c-.21-3-.15-6.07-3-8-1.12-.77-2.56-1.85-1.94-3.11,3.68-7.47-3.33-8-6.57-11.63-6.26-7-14.29-11.82-20.6-18.63a18.83,18.83,0,0,1-4-6.79c-2.21-6.24-3.19-12.78-5.35-19.07-2.34-6.8.21-9.62,7-11.19,7.94-1.83,14.69-1.09,20.75,5.43a44.89,44.89,0,0,0,14.43,10.46c8.3,3.62,14.16,10.1,19.43,16.48,5.06,6.13,12.67,12.22,10.09,22.28a2.6,2.6,0,0,0,.11,1.94c5.9,7.38,3.19,15.89,3.17,24a29.31,29.31,0,0,0,1.7,10.77,33.33,33.33,0,0,1,1.07,21.65c-.51,1.76.05,3.21.29,4.83,1.46,9.88.75,19.69.25,29.65-.48,9.7-1.82,19.56-.69,29.33.64,5.5,4.33,10.11,3.62,16.27-2.37,20.31-3.84,40.73-6.28,61a35.5,35.5,0,0,0-.13,10.6c.59,3.5,1,7.29-.49,10.82-1.56,3.73-1.74,7.49-1.53,11.56.43,8.43-2,16.82-2.44,25-.64,11.79-2,23.51-2.83,35.27A4.53,4.53,0,0,1,479.71,2065.57Z" style="fill:#127d8e;"/><path d="M538.83,1746.21c3.71-12.41,14.55-17.4,17.72-28.21,1-3.48,5.71-5.45,8.24-9.14,5.8-8.46,10.33-17.59,15.88-26.11s11.4-17.2,20.87-22.06c8.1-4.16,12.07-2.42,13.35,6.45,1.18,8.16.83,16.09-3.11,24.19-5.6,11.51-15.07,19.68-22.41,29.64-4.46,6-9.92,11.17-14.07,17.69-5.43,8.53-13.49,15.34-19.77,23.4-3.6,4.62-9.33,4.84-13.35,8.28-1.48,1.26-2,0-2.57-1.39-.69-1.76-1.64-2.56-3.61-.91-4.73,4-9.15,4.07-12.92.27-1.82-1.83-4.39-4.14-4.42-6.25,0-4.07-3-5.14-5.27-6.43-8.14-4.73-11.84-13.36-18.11-19.7-.23-.23-.56-.57-.53-.82,1.56-14.53-13.49-20.87-16.39-33.5-2.53-11-6.85-21.68-10.94-32.28-1.56-4,.89-5.68,3-7.4,2.26-1.84,4.68-1.26,7.1.85,12.19,10.65,23.78,21.73,30.26,37,.68,1.6,1.52,3.24,3.09,3.72,7.84,2.41,9.68,9.71,12.25,15.86s4.75,12.38,9.87,16.93C535.28,1738.35,535.18,1741.69,538.83,1746.21Z" style="fill:#127d8e;"/><path d="M985.32,1523a16.9,16.9,0,0,1,14.67,6.82c4.33,5.6,10.52,8.92,16.58,12.36s6.55,7.44.49,10.3c-9.16,4.32-18.67,8.2-29.23,3.91-2.29-.93-5.32-2.08-5.08-4,.78-6.24-4.67-7.82-7.44-11.33-3.13-4-7.31-8.7-4.83-13.15S979,1522.4,985.32,1523Z" style="fill:#e56267;"/><path d="M1065.29,1517.17c-5.17,5.63-.24,11.38-.87,17.07-4,1.46-7.34.34-10.84-.86-5.66-1.93-11.22-3.37-17.06.47-3.23,2.12-6.29,1.79-8.24-3.29-3.14-8.15-6-16.15-4.42-25,1.7-9.63,5.95-11.23,13.14-4.86C1044.91,1507.75,1053.46,1513.5,1065.29,1517.17Zm-7.29,9.32c-1.22-.36-1.75.36-1.87,1.36s.75,1.65,1.65,2c1.35.58,1.63-.47,1.76-1.36C1059.71,1527.43,1058.92,1526.86,1058,1526.49Zm-22.25,4.15c.32-1.33-.65-1.64-1.55-1.66-.35,0-.9.75-1,1.24-.29,1.16.57,1.71,1.51,1.72C1035,1532,1035.4,1531.1,1035.75,1530.64Z" style="fill:#e56267;"/><path d="M933.46,1689.17c-4.14.75-6.32-1.2-9.12-5.69-7-11.23-3.22-21.65-.08-32.38,1.05-3.6,4.47-4.94,7.75-5.38,3.65-.49,6.45,1.83,8,4.89,2.31,4.68,4.74,9.48,5.87,14.51a25.1,25.1,0,0,0,7.75,13.39c1.55,1.45,4.21,2.58,2.52,5.59-1.39,2.48-3.79,4.77-6.21,4.31C944.48,1687.38,939.43,1689.67,933.46,1689.17Z" style="fill:#e56267;"/><path d="M854.76,1613.67c-.44-9.65,5.27-14.4,14.35-10.56,7.64,3.23,15.88,6.58,15.14,17.88-.2,3,1.58,6.94,3.73,10.05a5.54,5.54,0,0,1-.78,7.32c-2.12,2.13-4.34.48-6.36-.54q-6.65-3.37-13.19-6.93a32.06,32.06,0,0,1-4.05-2.85c-3-2.3-1.55-8.35-7.34-8.58C855.7,1619.42,855.29,1615.84,854.76,1613.67Z" style="fill:#e56267;"/><path d="M1120.38,1504.85c9.68-.07,24.58,11.41,26.6,20.73a5.73,5.73,0,0,1-7.1,6.62c-7.09-1.59-14.08-3.6-21.19-5.09a17.1,17.1,0,0,1-7.81-4.17c-4-3.45-6.68-8.21-5.3-13.21,1.06-3.85,6.17-3,9.64-3.86C1116.82,1505.5,1118.46,1505.23,1120.38,1504.85Z" style="fill:#e56267;"/><path d="M872.52,1684.08c-1.38,6,2.18,10.33,5.93,14.62,2,2.24,4.14,4.49,5.33,7.14,1,2.2,2.65,5.09.57,7.49-2.33,2.69-4.71.74-7.12-.5a13.83,13.83,0,0,0-5.7-1.64c-3.57-.11-6.61-.43-7.28-4.82a2.79,2.79,0,0,0-2.76-2.38c-2-.19-3.95,3.47-6.06.24-1.78-2.71-.54-5.84-.88-8.74-.69-5.88,2.92-9.88,8.46-10.9,2.28-.42,4.56-.87,6.85-1.18C870.45,1683.32,871.1,1683.7,872.52,1684.08Z" style="fill:#e56267;"/><path d="M1075.58,2190.44c-7.66-1.78-7.82-1.86-4-8.37,1.56-2.69,2.53-5.14,2.27-8.35-1.09-13.19-2.7-26.39.27-39.57a11.09,11.09,0,0,0-.14-4c-.7-4.66-3.79-8.9.37-14,3.45-4.24-3.29-10.12-.57-14.08,3.45-5-2.62-9.41.64-13.85,2.91-4,1.14-8,.1-12.22-.79-3.24-3.83-6.79-1-10.27,3.07-3.78,1.74-7.34.41-11.19-2.9-8.41-5.09-17.4-3.56-25.94,1.18-6.62-.21-11.36-3.52-16.35-5.32-6.09-5.31-6.23.49-9.12.11-1.34.27-3.22-1-3.58-8.33-2.28-15.52-9.65-25.26-5.84-1.64.64-3.08,0-4.71-.61-7.86-3.19-15.55-5.82-24.55-3.16-7.14,2.11-15.31,2.07-22.45,1.75-14.3-.64-28.65.58-42.91-1-2.32-.25-4.64-.14-6.78-1.27-7.67-4-16.13-2.37-24.18-2.81-4.94-.27-10.85-.35-15.12,1.11-9.27,3.19-18.36,4.85-28,4.29l-5.09,0c-3.49,4.3-7.54,7.69-13.47,5.42-7.43-2.84-12.39.26-17.18,5.62-2,2.23-4.62,5-8.61,3.43-1.31-.52-3.27-.13-3.61.89-2.09,6.18-8,5-12.36,6.49-4.58,1.52-9.24,3.43-11.44,7.33-3.53,6.25-9.25,9.94-14.08,14.67-3,2.9-5.51,6-6.08,10.63a40.73,40.73,0,0,1-4.46-2.32c-3.46-2.49-5.29-1.47-8,1.84-5.12,6.22-12.06,10.77-17,17.37-1.22,1.64-4.6,1.31-6.33,2.39-4.41,2.77-11.44,1.71-13.14,8.57-.29,1.16-1.23,1.23-2.24,1.36-5.27.66-12.71,3.36-17,6.6a7.14,7.14,0,0,1-5.49,1.6c-3.87-.44-7.14,1.21-10.39,2.92-3.84,2-7.63,3.2-12.21,2.06-3.42-.85-7.81-1.89-10.57.88-4.93,5-14.08,2.82-17.13,10.74-.65,1.69-2.18.44-3-.62-1.14-1.44-2.74-2.25-4.37-1.71-4.61,1.51-9.08,1.14-13.65-.08a8,8,0,0,0-6.62,1.43c-1,.68-1.68,2.37-3.26,1.72-7-2.86-13.89-4.66-20.93-.12a2.77,2.77,0,0,1-2.53-.77c-2-2.65-4.78-1.63-7.3-2-7.81-1.29-15.59.72-23.38.06l-6.35-.87c-3.68.77-5.71-3.9-9.46-2.86-1.65,1.71-3.89,2.36-3.2,6.16.85,4.64-2.43,6.33-5.51,3-3.9-4.22-10.71-3.5-13.49-8.95l-5.16.55h0c-.55-.8-.94-2.09-1.68-2.33-5-1.61-10.23-2.7-15.15-4.55-4.3-1.62-7-7.28-12.88-5.06-.37.14-1.35-.52-1.59-1-2.7-5.55-6.39-2.63-9.91-1.24,3.32,3.37,7.35,5.48,11.62,7.24-4.27-1.77-8.3-3.87-11.62-7.24l-3.53,0c-1.08.74-1.87.8-2.48.43.61.36,1.4.31,2.48-.43-.5-2.46-1.44-3.87-3.91-1.65-1.63.32-3.12.68-4.41-1.05-3.44-4.64-9.6-6.58-12.16-12.13-7.56,1.21-13.55-5-21-4.45-5.24.4-9.21-1.66-13.21-5.08-4.16-3.56-6-9.62-12-11.11s-10.13-5.86-15.91-7.52c-3.66-1.05-7.65-4.72-8.75-7-2.28-4.68-5.87-6.73-9.48-9.48-6.81-5.19-14.32-9.89-19.7-16.33-2.83-3.4-6-6.27-9.16-6-7,.55-11.85-4.18-15.22-7.57-6-6.07-13-9.69-20.19-13.52-2.86,3.47-5.73,6.47-10.57,7.76-6.93,1.85-14.21,3.88-20.14,7.7-8.75,5.64-16.76,12-26.37,16.77-9.36,4.61-19.93,9.48-25.07,20.25-.75,1.57-3.21,2.26-4.71,3.56-11.18,9.66-22.28,19.41-33.47,29.06-5.65,4.88-7.37,12.29-11.81,17.93-9.17,11.65-17.24,23.57-19.45,39-.75,5.24-1.41,11.37-4.21,16.1-7.58,12.79-2.81,27.4-6.81,40.63a1.38,1.38,0,0,0,.16,1c4.12,7.07,3.95,15.73,9.18,22.62,2.75,3.61,4.15,6.45,9.16,4.47,4.69-1.86,4.88,7,10.85,4.38,9.48-4.15,19,.67,28.22,2.33,4.92.88,9.41,1.63,14.46,1.31,12.67-.81,25.43-3.35,38.08.57,2.93.91,5.89.27,8.72-1.14,1.75-.87,3.79-1.84,5.64-1.75,8.81.46,17.59,3.1,26.43-.11,1.06-.39,2.63.28,3.85.74,8.85,3.31,18,2.88,27.24,3.26,7,.29,14.38-1.56,21.25,1.71,5.2,2.47,10.65,2.23,16.41,2.16,8.37-.11,16.25-2.62,24.63-2.78,27.17-.54,54.26,1.92,81.41,1.3,3.06-.07,5.15-.14,5.8-3.64.61-3.28,2.91-3.91,4.91-1.58,5,5.82,10.37,4.64,16.17,1.74,2.73-1.36,5.73-2.36,8.58-.57,6.87,4.31,14.29,3.82,21.89,3.2,11.82-1,23.7-2.63,35.41,1,2.31.72,4.85.88,6.8-.41,3.64-2.42,6.49-3.06,8.91,1.51a2.15,2.15,0,0,0,3.47.16c3.1-5.63,6.17-2.27,9.53-.4,2.32,1.29,5.15,2.25,7.72,1.44,9-2.84,18.31.7,27.35-1.32a10.67,10.67,0,0,1,6.88.48c3.62,1.67,7.1.87,10.66-.32a36.53,36.53,0,0,1,21.47-.9c4.68,1.21,10.57,3.1,14.57-2.43.76-1,1.36-.91,2.29-.36,8.79,5.21,17.66,0,26.48-.09,3.77,0,7.5-1.31,11.56-.82,5.94.71,12.36,1.32,17.9.38,6.55-1.11,13.25-3.1,19.56-1.89,6,1.14,11.18-2.53,16.81-.77,11.72-7.47,25.06-3.65,37.59-5.46,5.67-.82,10.93-1.45,16.25,1.64,1.76,1,4.56.28,6.89.3,9.89.09,19.91-.79,29.63.55,7.37,1,14.26,2.17,21.55-.19,2.69-.87,5.93-.23,8.9,0,2.27.2,4.38,1.23,6.83.41,8.53-2.87,17.57-1,26.32-2.58,3.47-.64,6.95-1.81,10.78-1.36,16.76,2,16.53,1.11,32.71-4.53,9.53-3.33,20.5-1,30.15-5.4,1-.43,2.54.81,3.83.82,4.55,0,9.28,1.53,13.52-1.43-1.32-.7-3.67-.89-2.71-3.08a14.27,14.27,0,0,1,3.66-4.46c1.64-1.5,3.4-3.47,5.94-2.58,3,1,1.36,3.91,1.83,5.94a9.87,9.87,0,0,1-.22,2.9c4.6,3.17,10.74,6.51,15,4,7.25-4.3,15-3.74,22.42-5.52C1076.63,2191.17,1076.16,2190.57,1075.58,2190.44Zm-401.87-66.19c-2.67-3.88-3.56-6.79-.06-9.31a2.19,2.19,0,0,1,1.88,0C677.2,2115.74,677,2116.74,673.71,2124.25Z" style="fill:#4eb8cb;"/><path d="M763.09,1219.67a1.26,1.26,0,0,0-.91-.9,5.59,5.59,0,0,0-4.55-2.69c-14.81-9.09-31-14.59-47.95-17.79-2.2-5.56-7.65-4.78-12-6.13v0a4,4,0,0,1-4.28-1.78c-2-.56-4.3-.64-5.68.86-4.51,4.93-8.42,1.94-13.88-2.26,3.8,6.59,6,11.39,1.12,16.19-2,2-3.45,1.38-4.88-.4-1.67-2.08-.14-6.42-4.26-6.57-5.18,7.21-4,15-3,22.91a222.76,222.76,0,0,0,5,25.66c-7.66-5.08-14.74-3.7-21.16-7-5.07-2.63-11.45-2.21-16.79-5-1.16-.62-3.44-.11-4.73.67-6.86,4.09-13.16,8.93-18.09,15.34-2.32,3-2,6.45,1.47,7.2,7.57,1.61,13.8,7.74,22.31,6.19,2.47-.45,5.21.82,7.85.91,13.49.49,25.83,7.14,39.6,7,3.77,0,7.33,1.5,10.82-1.13,1.48-1.11,3-.71,4.66,0,3.2,1.44,6.57,3.25,8.2-2.13,1-3.2,5.54-4.81,4.22-9.08-2.41-7.77-4.13-15.89-7.68-23.11-1.73-3.52-2.24-6.38-.68-9.08,1.85-3.19,5.6-1.47,8.24-.87,5.4,1.23,11,3.86,16.07,4,10.34.22,21,.36,31.2-2.75a76,76,0,0,0,7.82.44c2.32-.09,4.81-.79,5.47-3.37C767.32,1222.19,765,1220.93,763.09,1219.67Z" style="fill:#67acbd;"/><path d="M697.69,1192.17a4,4,0,0,1-4.29-1.78C695.15,1190.21,696.78,1190.33,697.69,1192.17Z" style="fill:#127d8e;"/><path d="M846.09,1012.69c-.9-1.55-.26-3.92-.61-5.86s-.41-4.68-1.67-5.6c-7.34-5.36-8-14.83-13.87-21.38-4.75-5.33-9.94-10.37-14.69-15.71-5.6-6.28-9.32-13.8-15.72-19.64-13.12-12-29-18.09-45-24.45-9.76-3.89-20.19-5.42-30.18-3.15-14.53,3.3-29.58,3.8-43.79,8.94-10.61,3.84-21.2,7.7-29.86,14.91-5.6,4.66-11.16,9.31-17.11,13.5a2,2,0,0,0-2.17,1.9,1.82,1.82,0,0,0-1.94,2.07,1.84,1.84,0,0,0-1.72,2.23l-1.93,2c-3.15-.28-5.63.36-5.79,4.19a3.14,3.14,0,0,0-.66,1.47c-7.25,5.83-14,11.95-13.37,22.48l-.09.16c-1.88.52-2.41,1.86-2.18,3.64l0,.08c-1.21.31-1.63,1-1,2.15l-1,3.87c-5.48,9.82-8.3,20.28-7.6,31.59a14.28,14.28,0,0,0,.91-2,19.41,19.41,0,0,0,.63-2.08,19.41,19.41,0,0,1-.63,2.08,14.28,14.28,0,0,1-.91,2l.87,12c.13.28.25.57.35.85-.1-.28-.22-.56-.35-.85-1.79,1.9-1.63,4.05-.83,6.29l.77,3.95c-4.12,6-2.77,12,.36,17.72,2.43,4.42,4.63,8.74,4.75,13.9a2.89,2.89,0,0,0,2.46,2.73l1.61,1.86c2.38,10.15,5.59,19.82,14.94,26,1.9,4.42,5.26,7.72,8.89,10.6,9.83,7.78,19.6,15.68,29.87,22.84,12.24,8.53,26.57,12.87,41,14.16,11,1,22.43.31,33.66.11,3.85-.07,7.93-3.13,11.47-2.47,13.79,2.55,24.33-5.29,35.69-10.23,8.5-3.7,14.74-11.82,22.7-15.54,11.24-5.26,18.28-14.36,24.69-23.14,7.24-9.91,16.95-19.6,16.89-33.58,6.77-7.86,1.31-18.27,5.55-26.66C845.86,1039.47,853.5,1025.49,846.09,1012.69Zm-249.69,11c-.17,1.08-.33,2.16-.55,3.22C596.07,1025.88,596.23,1024.8,596.4,1023.72Zm-.85,22a5.27,5.27,0,0,1,.16,1.62A5.27,5.27,0,0,0,595.55,1045.72Zm186.6,16.69c-7.89,17.63-21.19,29.81-39.55,36.43-5.4,1.95-10.94,1.87-17.4,2.61-29.22-.54-58.51-20-57.78-56,.32-15.71,5.68-29.46,16.15-40.57,9.24-9.8,21.89-14.48,35.15-16.08,4.95-.59,9.9-1.58,15-1.74,17.65-.55,29.68,8.67,40.79,20.5A46,46,0,0,1,785.44,1026C789.22,1038.54,787.33,1050.84,782.15,1062.41Z" style="fill:#fff;"/><path d="M437.64,892.84c-.69-12.59,5.31-22.09,14.16-30.14,2-1.85,3.15-4.14,4.67-6.25,4.51-6.24,9.75-11.69,18.7-9.65a11.91,11.91,0,0,0,3,0c9.49-.31,14.6,5.64,10.94,14.09s-5.58,16.94-7.7,25.6c-1.07,4.36-3.38,7.33-8,7.55-8.24.38-14.31,6.15-21.76,8.44-1.57.48-3,1.49-4.57,1.9-5.69,1.47-8.48-.62-9-6.59C437.87,896.16,437.77,894.5,437.64,892.84Z" style="fill:#67acbd;"/><path d="M585.89,1532.24c-.85,0-3.36.39-5.25-1.17-7.2-5.88-15.46-10.53-19.47-19.84-2.75-6.4-3.06-13.36-5.91-19.7-1.6-3.57-1-7.83.05-11.74.84-3.19,1.33-6.89,5.31-7.66,3.58-.7,6.41,1.27,8.67,3.87,1.73,2,3.89,3.92,4.76,6.28,2.63,7.1,9.4,10.15,14.31,14.86,3.54,3.4,9.5,2.49,14.32,1.62,5.9-1.07,9.94,1,14.06,5,2.78,2.72,3.52,4.64.73,7.32-5.12,4.92-10,10-14.75,15.33C598.78,1530.81,593.22,1532.16,585.89,1532.24Z" style="fill:#67acbd;"/><path d="M408.31,802.37a16.86,16.86,0,0,1-6.53,10.89c-6.38,4.81-9.69,12.56-16.8,16.57-1.23.69-1.72,2.7-2.54,4.11s-1.39,3.82-2.49,4.09c-6.86,1.68-11.48,5.39-14.69,11.88-1.52,3.07-16.32,2.32-19.07-.25-2-1.85-1.8-3.94-.75-6.34,3-6.76,4-13.91,4.48-21.27.77-12.09,10.48-15.94,19.61-20,5.12-2.29,10.53-3.45,15.71-6.23,6-3.23,14.27-2.06,20.78,2.44A4.48,4.48,0,0,1,408.31,802.37Z" style="fill:#67acbd;"/><path d="M479.22,723.35c.43-6.64.35-13.36,1.44-19.89,1.18-7.07.71-16.34,12.52-14.62,7.11-5.65,15.87-7.8,24.15-10.57,6.94-2.31,14.51-2.48,21.34,1.8,2.47,1.55,3.17,3.49,1.48,5.79-3,4-5.24,8.66-9.41,11.58a144,144,0,0,0-27.9,26.26c-4.58,5.52-11.76,7.33-15.81,13.21a2.33,2.33,0,0,1-4.11-.44C481.1,732.26,478.28,728.31,479.22,723.35Z" style="fill:#67acbd;"/><path d="M640.26,665.47c-7.65,17.72-15,48.87-14.19,55.15-5.59-.13-11.17,4.73-16,2.4s-3-9.68-5-14.46c-2.61-6.26-5.76-12.31-8.94-18.31-1.17-2.2-2-4.13-.78-6.48,5.11-9.56,14.38-14.21,23.12-19.41,5.89-3.5,12.19-1.51,18.33-.66C638.07,663.87,639.15,664.87,640.26,665.47Z" style="fill:#67acbd;"/><path d="M711.57,797.42c-1-.11-3.5-1.43-6.84-.42s-7.16-3.92-5.5-5.91c4.19-5,2-10,.79-15a13.17,13.17,0,0,0-.33-2c-3.93-9.59-1.8-17,6.85-23.25,7.33-5.31,14.61-10,23.82-11.1a16.87,16.87,0,0,1,8.73,1.21c6.26,2.63,7.75,7.22,3.16,12.24-9.72,10.63-12.81,24.41-18.63,36.88C721,795.73,719.26,797.56,711.57,797.42Z" style="fill:#67acbd;"/><path d="M300.45,848.18c-.53,1-1.09,2.19-1.79,3.3-5.84,9.18-6.49,20.56-13.07,29.62-2.67,3.67-2.5,9.44-3.46,14.28-.61,3.08-1.52,5.45-5.1,3-3.17-2.17-5.11-2.4-6.31,2.07-.43,1.6-3.32,1.62-3.71-.46-1.74-9.48-7.53-16.63-12.8-24.21-3.21-4.61-1.48-10.81,3.48-13.69,2.66-1.54,6.42-1.56,5.74-6.15a2,2,0,0,1,1.12-1.53c6.65-2.51,10.5-8.82,16.51-12.15,2.2-1.22,16.74,1.39,18.6,3.14A2.5,2.5,0,0,1,300.45,848.18Z" style="fill:#67acbd;"/><path d="M328.63,986.57a24.56,24.56,0,0,0-2.07-19.9c-.48-.85-.55-1.92-1-2.82-5.12-11.08-.46-19.82,6.42-28.25,4.09-5,6.74-11.07,12.09-15.22,5.17-4,8.38-3.89,10.6,2.2,3.47,9.52,7.07,19.39,2.06,29.43-3.28,6.58-3.18,13.91-6.11,20.75C346.25,983,340,987.54,328.63,986.57Z" style="fill:#67acbd;"/><path d="M511.49,1420c.1,7-1.06,8.17-6.92,8.09-12.86-.17-22.77-5.46-30.26-16.11-2.67-3.8-4.48-8-7.11-11.85-4.39-6.38-2.27-14.15-1-21.1.9-4.79,13.3-6.16,16.77-2.37,3.81,4.15,7.71,8.21,11.37,12.49,1.79,2.09,5.07-2,6.51,2.37C504.2,1401.48,510.79,1410.27,511.49,1420Z" style="fill:#67acbd;"/><path d="M793.63,645.11c-.18,5.47,1.74,11.41-3.68,15.69-.74.59-.48,1.71-.6,2.65-1.42,10.79-7.54,15-17.9,12.95-3.52-.7-5.27-2.16-5.18-5.87A24.51,24.51,0,0,0,760.65,654c-2.42-3-4.19-6.16-.45-9.54.86-.77.83-2-.11-2.39-6.91-2.73-2.37-5.86-.41-8.93,3.65-5.72,9.06-9.56,14.63-13,6.2-3.89,10.95-2.43,15,4C792.61,629.29,793.52,633.74,793.63,645.11Z" style="fill:#67acbd;"/><path d="M350.66,1106.51c-3-5.33-7.68-8.61-13.44-10.9-8.17-3.24-6.55-4.92-6.08-14.43.45-9.18,6.52-15.49,7.69-23.94.73-5.26,5.37-9.07,9.62-12.23,3.87-2.88,7.83-.89,9.06,4.36a5.65,5.65,0,0,0,2,3.16c4.91,4.47,5.51,10.54,5.14,16.49-.39,6.18,1.67,12.89-3.61,18.34-2,2-.78,4.8.54,7.37,3.14,6.12,3,6.19-3.49,8.72C355.62,1104.4,353.23,1105.44,350.66,1106.51Z" style="fill:#67acbd;"/><path d="M94.29,1520.94c-2.42-6.21-2.67-12.76-4.28-18.94-1.31-5-.31-9.27,3.34-11.35,10.6-6,19.31-15.71,32.5-17,6.66-.64,10.83,2.56,9.34,8.89-1.27,5.41-2.5,11.31-6.73,15.32-7.23,6.87-12.36,15.29-17.24,23.68-3,5.22-7.46,6.9-12,7.35C94.11,1529.45,94.13,1524.65,94.29,1520.94Z" style="fill:#67acbd;"/><path d="M882.41,1247.43c-1.67-15,4.34-24.71,13.82-32.76,5.32-4.52,9.62-10.59,18.08-10.19,7.3.35,10.16,2.51,8.42,9.45-1.35,5.38-.31,11.42-4.16,16.16-.39.48-.82,1.56-.61,1.78,6,6.43-1.5,9.16-4.13,11.93-5.55,5.84-11,12.14-20.09,13.52-9.64,1.46-11.15.78-11.33-8.77C882.4,1247.56,882.41,1246.57,882.41,1247.43Z" style="fill:#67acbd;"/><path d="M545.84,847c1.3-9.19,1.77-18.62,4.3-27.46,1.17-4.07,5.78-8.22,9.87-10.18,8.64-4.14,17.89-6.45,27.53-2,7.48,3.49,8.86,7.34,3.25,13.32-7.89,8.4-14.28,18.2-22.66,25.95-4.29,4-9.1,10.05-17.56,7.28C546.24,852.49,545.38,850.69,545.84,847Z" style="fill:#67acbd;"/><path d="M253.61,1096.36c-.93,8.67-2.77,14.44-2.41,20.46.3,5,.11,10,2.62,14.59,1.28,2.34,2.7,4.78,0,7.18-3,2.61-5.78,6.06-10.27,4.3-3.51-1.38-7.18-1.31-10.73-2.13-7-1.62-7-1.47-7.93-9.76a1.85,1.85,0,0,0-.21-.95c-2.11-2.43-5.24-4.34-4-8.39,2.78-9.08,2.86-19.76,9.42-26.62,3.92-4.1,8.1-8.95,13.45-11.86,1.84-1,4.52-1.45,5.08.93C249.83,1089.22,254.4,1093.3,253.61,1096.36Z" style="fill:#67acbd;"/><path d="M854.64,1301c-2.15,4,.06,8.33,1.53,13.13,3.07,10-3.43,26-12.23,31.39-4,2.47-8.49,4.11-12.64-.33-2.14-2.28-5.2-2.7-8-3.73-4.18-1.52-4.31-3.78-.7-7,2.21-2,3.74-3.75.82-6.47s-1.54-4.59.45-8c3.58-6.21,7.69-12.17,10.85-18.64,3.07-6.29,9.38-8.56,16.09-6.89C854.29,1295.22,855,1297,854.64,1301Z" style="fill:#67acbd;"/><path d="M244.94,1540c-.07,2.63,5.1,13.34,7,14.47,5.75,3.46,6.82,7.36,2.18,11.75-3.66,3.45-7.15,7-9.6,11.24-3.67,6.42-10.73,3.57-15.69,6.29-.2.11-.84-.09-.88-.24-1.41-5.75-8.61-6.11-10.52-11.14-1.74-4.59-3.54-9.36-.86-14.38.74-1.38.65-3.18,1.12-4.74,2.16-7.15,4.12-14.23,12.73-16.83,2.11-.64,4.41-.91,6.48-1.91C243.93,1531.08,245.16,1531.95,244.94,1540Z" style="fill:#67acbd;"/><path d="M264.22,978.46c-.78,1.5-1.12,3.17.34,3.68,6.67,2.38,3.8,7.38,3.37,11.65-1.19,11.92-6.92,22.79-7.95,34.84-.48,5.64-5,7.34-9.08,3.49-7.69-7.2-14.51-15.5-16.21-26.26-.68-4.32,1.41-9.13,4.53-12.76,4.78-5.54,9.8-10.88,14.58-16.42,1.7-2,3.78-2.35,6.14-2.69C264,973.4,265.69,974.45,264.22,978.46Z" style="fill:#67acbd;"/><path d="M827.23,736.2c-3.18,0-5.18-.11-7.16,0-2.19.16-2.59,1.74-2.3,3.56.31,2-2.78,9.67-4.44,9.91-3.56.53-7.43.91-10.57-.93-2.16-1.27-1.53-4.41-.93-6.49,1.73-6,.18-11.74-1-17.52s-.89-9.94,3.67-15.16a164.77,164.77,0,0,0,14.34-18.85c1.55-2.39,3.7-6.21,6.59-4.89,3.34,1.52,6.42,4.86,5.92,9.47-.89,8.22-1.72,16.45-3,24.61C827.51,725.15,826.31,730.29,827.23,736.2Z" style="fill:#67acbd;"/><path d="M412,1298.88c1.74-7.07,3.6-16.13,6.27-24.94,1.34-4.41,5.55-5.25,9.75-2.76a18.65,18.65,0,0,1,9.45,13.38c1.5,9,3.17,17.69,12.49,22.58,2.46,1.29,3.51,4.53,2.1,7.94-1.23,3-3,4.35-6.1,3.66s-6,.33-8.78,1.32C422.77,1325.2,413.57,1314.8,412,1298.88Z" style="fill:#67acbd;"/><path d="M258.67,1791.39c-3.94-1.66-9.59-3.52-14.66-6.42-2.51-1.43-4.91-3.36-7.51-4.78-3.15-1.73-4.69-3.65-2.24-7.06,1.87-2.6.63-4.66-.73-7.23-2.85-5.39-.18-9.08,5.78-8.5a41.5,41.5,0,0,1,5.77,1.47c1.92.48,3.88.85,5.79,1.35,4.12,1.09,8.44-6.18,11.35-1.32,2.59,4.34,6.47,4,9.57,6a102.79,102.79,0,0,1,10.35,7.62c2.57,2.18,4.49,5.07,4,8.68-.59,4.34-4.39,4.63-7.59,5.1C272.27,1787.2,266.94,1791.39,258.67,1791.39Z" style="fill:#67acbd;"/><path d="M146.26,1664.11c-2.48-.5-5.64,0-7.24-2.42-5.14-7.78-11.67-14.8-13.14-24.62-1.25-8.4,8.95-18.15,17.28-16.21,2.35.55,3,2.74,3.26,4.52,1.06,8.86,7.36,11.94,14.78,13.53a26.29,26.29,0,0,1,9,3.85c3.35,2.2,3.92,9.92.61,11-8,2.52-14.35,8.31-22.55,10.1C147.65,1664,147,1664,146.26,1664.11Z" style="fill:#67acbd;"/><path d="M209.28,1463.72a36,36,0,0,1-3.62,18c-2.16,4.63-4.23,4.19-7.5,3-1.18-.45-2.15-2.32-3.15-2.27-11,.53-10.8-7.43-12.44-14.94-2.95-13.44,2.72-24.66,8-36,1.41-3,4.47-3.35,7.73-1.51,5.19,2.94,7.21,8.07,8.2,13.11C207.91,1450.23,209.81,1457.39,209.28,1463.72Z" style="fill:#67acbd;"/><path d="M745,1496.83c-1.46,5.63-4.89,10-10.08,14.31-10.19,8.52-23.18,8.67-34.34,13.94-2.76,1.3-10.27-3-11.78-6.36-2.41-5.3-1.92-6.45,3.73-10.08,9.12-5.86,18.24-11.76,28.26-16,6.37-2.68,13-4.37,20.07-2.5C745.22,1491.33,745.66,1491.84,745,1496.83Z" style="fill:#67acbd;"/><path d="M243.16,1683.64c-3-.39-5.86.72-8.78,1.25-16.43,3-29.18-9.05-26.23-25.53.79-4.44,1.4-11.49,9.44-10.75,1.52.14,2-1.34,2.73-2.44,3.41-4.92,3.92-4.9,6.67-.25.67,1.13,1.76,2.24,1.86,3.43.87,10.22,8.71,13.88,16.35,17.9,2.84,1.5,6.21,2.6,7.36,6.2C254.71,1680.14,251.47,1683.64,243.16,1683.64Z" style="fill:#67acbd;"/><path d="M75.93,1728c-.31-4.71.59-9.27,1.51-13.85,1.24-6.12,3.91-7.58,9.68-4.8,7,3.35,11.13,9.84,14.13,16.21s6.47,11.38,11.89,15.43c1.85,1.38,3.79,2.54,2.52,5.63-1.07,2.61-2,4.86-5.23,5.16a145,145,0,0,0-14.69,2.67c-8.53,1.7-15.35-3.12-17.72-11.7a52.17,52.17,0,0,1-1.61-6.79C76.06,1733.32,76.08,1730.64,75.93,1728Z" style="fill:#67acbd;"/><path d="M810.91,1435a14.75,14.75,0,0,1,0,3c-3.77,12.64-10.11,23.49-21,31.48-3.94,2.89-7.67.13-11.47.56-.63.07-1.69-1-2.09-1.83-4-7.92-1.11-17.82,4.51-25.4,3.7-5,6.84-10.68,10.21-16.07a27,27,0,0,1,4-5.61,11.55,11.55,0,0,1,7-3.45c4.47-.3,1.89,4.12,3.78,5.73,2.62,2.22,3.62,5.49,4.47,8.71C810.64,1433.38,810.85,1434.69,810.91,1435Z" style="fill:#67acbd;"/><path d="M72.77,1605.25c-1.14,4.67-2,9.58-3.56,14.27-1.78,5.44-3.13,10.57-.37,16.2,1,2.07,2.18,5.85-1,7-2.88,1.07-6,3.6-9.65,1-3.49-2.43-7.48-4.15-11-6.5a14.75,14.75,0,0,1-6.93-13.55c.47-7.25,1.81-14.28,9.42-18.37,3.36-1.81,5.91-5.23,8.6-8.14a14.12,14.12,0,0,1,5.73-3.56c4.13-1.6,6.37-.69,7.23,3.61C71.74,1599.87,72.23,1602.47,72.77,1605.25Z" style="fill:#67acbd;"/><path d="M447.25,1073.87c-1.17-7.37-7.27-8.4-11-11.86-3.41-3.19-3.36-3.09-7.38-10.51-2.83-5.24.48-8,2.45-12.19,2.41-5.14,6.44-10.11,5.92-16.52-.4-5,3.7-5.13,6.82-5.07,7.53.16,15.65,10.3,14.72,18-1.21,10-5.18,19.8-1.76,30.12.48,1.45-.11,3.81-2.46,3.19C450.89,1068,449.49,1071,447.25,1073.87Z" style="fill:#67acbd;"/><path d="M415.51,1122.2a21.35,21.35,0,0,1,5.42,9.31c3,9.46,3.08,19.49,5.86,29,1.36,4.67-1.18,5.7-6.67,6.05-6.74.43-12.8-.21-18.69-3.79-3-1.8-4.55-4.2-4.55-7.11a187.8,187.8,0,0,1,1.11-24.22c.65-4.94,4.06-9.13,8.5-11.67,3.5-2,7.06-1.7,9.17,2.54-2-.12-3.92-.1-4,2.58,0,.39.76,1.14,1.18,1.15C415.53,1126.12,415.63,1124.2,415.51,1122.2Z" style="fill:#67acbd;"/><path d="M302.2,1528c-11.17,0-15.69-3.81-16.32-15-.49-8.71.74-17.14,7.43-23.69,1.87-1.83,3.73-4.1,6.75-1.65,2.64,2.15,5-.14,7.5-.57a6,6,0,0,1,6.16,2.46c1.2,1.7-.8,2.9-1.51,4.28-3.64,7-2.85,14,2.3,20,1.3,1.51,2.8,2.84,4.13,4.32,3.58,4,2.83,6.92-2.39,8.47A38.6,38.6,0,0,1,302.2,1528Z" style="fill:#67acbd;"/><path d="M693.16,590c.15,4.17-.77,8.23-.16,12.55.37,2.65-1.15,5.86-2.59,8.39-1.26,2.21-3.49,4.23-6.4,4.06-2.76-.16-3.65-2.69-4.49-4.82-3.08-7.87-6.19-15.74-8.94-23.73-1.45-4.21-1.91-8.56,2.9-11.43,2.45-1.46,3.06-4.19,4.32-6.52,2-3.69,4.12-3.82,7.88-1.07,6,4.34,5.54,10.87,7.38,16.63C693.65,585.81,693.16,588,693.16,590Z" style="fill:#67acbd;"/><path d="M219.58,1343.74c2,1.76,2.41,4.51,3.41,6.86a8,8,0,0,0,4.48,4.77c10,4.5,13.9,21.63,7,30.18-1.44,1.79-2.93,2-5.1.57-8.06-5.45-14.2-12.92-20.51-20-5.54-6.25-2.31-15.38,5.68-19.27C216.34,1346,217,1343.52,219.58,1343.74Z" style="fill:#67acbd;"/><path d="M165.45,1804.75c-5.23-2.12-11.07-4.21-16.63-6.91-1.4-.68-3-4.4-2.59-4.8,3.45-3.41,1.47-6.42.28-9.89-1.1-3.2,1.86-5.67,4.49-3.62,8.37,6.52,19,6.44,28.15,10.55,2.64,1.19,4.68,2.69,4.88,5.61.21,3.08-3.09,2.82-4.49,4.24C175.67,1803.87,170.63,1803.32,165.45,1804.75Z" style="fill:#67acbd;"/><path d="M848.47,533.18c-.7.95-1.46,2-2.72.91s-.24-2,.56-2.84Z" style="fill:#fff;"/><path d="M1821.65,586.06c4.54-5,9.17-6.54,16.33-6.1,6.65.41,13.34,3.77,20.74,1,3-1.1,7.22-.57,11.23-1.54,10.14-2.46,20.88,2.77,31.35-.66,9,3.85,18.52,4.21,27.88,3.44,7.42-.61,14.89-.34,22.41-2,6-1.28,12.3-1,17.67-4.53,4.15-2.76,5.94,4.24,9.91,2.15,3.15-1.65,6.09-4.37,10.16-2.34,4.56,2.27,9.82.31,14.56,2.52s7.5-3.48,11.77-4.05c5.61-.76,5.62-4.66,6.2-9.43.64-5.28,1.43-11.14,6-15.36,4-3.69,5-8.21,3.23-13.65-1.39-4.37-.21-9.23-.54-13.57-.93-11.91,4.84-22.95,2.65-35.21-1.1-6.17-2.52-14,2-20.9,2-3-1.76-9,4.28-11.17-4-7.43,2.14-14.8,0-22.44-1.73-6.07-1.53-12.23-.32-18.92a84.22,84.22,0,0,0,.2-28.44c-.32-1.95-1.75-4.22.27-5.47,6-3.69,3.49-8.84,3.68-14.08.29-8-2-16.4,2.8-24,1.34-2.13,2.25-4.77,1.14-7.63-3.68-9.45-2-19.33-1.87-29,0-4.8-2.18-10.57,4.13-13.94,1-.55.7-3.7.93-5.66,1-9,.73-18.34,5.18-26.75.56-1.06.33-2.63.19-3.94-1.1-10.45,1.83-20.26,4.53-30.15.88-3.23,2.71-4,4.93-1.95,6,5.53,13.7,8.79,18,16.66,2.57,4.69,5.13,8.34,2.75,13.6-.14.3-.36.75-.24.94,5.52,9.05.73,18.73,1.64,28.07.75,7.75,1.67,15.41.11,23.42-1.29,6.61-1.5,13.93,2,20.51,1.09,2.07,2.33,4.57,1.05,6.67-4.31,7.11-2.07,14.49-1.52,21.85.27,3.62.77,7.48-1.65,10.61-2.28,3-1.83,6.23-1.86,9.54,0,5.31.47,10.71-1.68,15.79-3.65,8.59-2.94,16.71,2.61,24.25,10.12-3.47,20.74-2.88,30.73-.21,15.29,4.08,30.82,8.11,44.11,17.51a4.81,4.81,0,0,0,2.76,1c10.37-.69,17.18,6,24.5,11.64,4.07,3.14,7.44,7.64,13.44,7.17,5.68,7.64,17,7.86,21.87,16.54.48.84,1.26,2.12,1.95,2.15,7.59.27,12.25,5.82,17.85,9.67,2.08,1.43,4.44,1.14,6.77,1.07,5.65-.17,10.72.68,12.68,7.13.41,1.34,1.56,1.88,2.84,2.47,13.5,6.21,15.81,12.86,9.29,26.66a78.22,78.22,0,0,0-24.69-1.39c-6,.66-11.72-2.55-17.69-.88-4-5.75-12.1-5.5-16.15-10.71a14.12,14.12,0,0,0-9.13-5.41c-6.56-1.19-12.18-5-18.9-6-5.65-.84-9.48-6-13.61-9.66-5.6-5-12.57-7.9-18.15-13-3.86-3.56-10.28-1.53-15.37-3.36-4-1.44-7.22-2.62-10.46-6.3-4-4.57-10.62-7.82-16.69-9.39-9.75-2.53-16.4-4.17-25.19-9.75a17.47,17.47,0,0,0-8.56-2.33c.22,6.89-4.22,13-1.86,20.09.77,2.31-2,4-3,6.11-4.21,8.75-6.55,17.76-4.93,27.65a28,28,0,0,1-.72,13.79c-4.41,13.06-4,26.56-2.81,40.08.35,4,.44,7.94-2.55,11.3-4.71,5.29-5.81,11.61-5.54,18.57.4,10.09-4.71,17.2-13.5,21.66-2.34,1.19-3.09,3.07-4.27,5.1-3.88,6.69-8.61,12.5-16.8,14.48-5.7,1.38-10.81,4.47-16.48,6.27-4.66,1.48-8.8,2.21-13.23,1.41-2.81-.51-5.1-.79-7.45,1.1s-5,1.39-7.69,1.17a4.34,4.34,0,0,1-1.92-.51c-5.09-3.26-6.45,7.46-11.9,3.09-4.34-3.48-8-.43-11.92,1.41-3.47,1.64-7.16,4.4-10.75,0-.83-1-1.8-.42-2.72-.16-12.33,3.46-24.42-.55-36.29-2.34-7.76-1.17-15.59-2.11-23.35-2.7s-15.25-2.53-22.84-4.07c-5.05-1-10.27-2.5-15.53-.29-7.22,3-14.29-.69-21.46-.7-1.28,0-2.86-1.32-3.79-.9-9.81,4.45-20.21-.34-29.63,1.64-2.11,1.81-1.21,3.44-1,5,2,14.85,2.27,29.82,3.44,44.71.58,7.31.06,16.1,6.64,22.2.75.69.55,2.51.61,3.82.28,5.95-.81,12,1.43,17.8a2.94,2.94,0,0,1,.17,1.95c-6.38,15.45.17,30.78.22,46.16,0,13,4.68,26,0,39.17-1.34,3.8-.51,8.68.33,12.86,2,9.71,1.1,19.53,1.36,29.24.18,6.73-1.9,13.47-.55,20.47,1.67,8.64,0,17.66,2.55,26.26a25.66,25.66,0,0,1,.4,3.94c.54,4.13.54,9.58-3.17,10.64s-9.47,1.49-13-2.33A67.36,67.36,0,0,0,1774.87,893c-8.73-5.71-7-14.68-6.4-22.27.61-7.36-.81-15.22,2.84-22.3a4.8,4.8,0,0,0,.13-3.91c-3.88-6.83-1.08-14.15-1.78-21.19-.16-1.65-.68-3.67,0-4.94,4.38-8-.5-15.35-1-23-.43-6.16-2.64-12.49.88-18.47.49-.84,1.5-1.74.77-2.6-5.41-6.39-1.57-14.88-5.06-21.76a15.27,15.27,0,0,1-1.1-10.78c3.14-10.48,1-21.14,1.77-31.67.41-5.36-1.56-11.14-3.43-16.38-4.53-12.65-3.45-25.24-.46-37.84.8-3.35.11-6.5,0-9.68-.19-6.35-.16-12.49,2-18.63,1.86-5.28-.66-9.23-6.27-9.46-9.6-.39-19.73-1.91-28.65.59-5.77,1.61-10.24.34-15.36.4s-10.34,2.08-15.52,3.11c-9.11,1.81-18.53.19-27.41,3.15-2.26.75-3.55-.8-5.32-1.4-6.21-2.1-11.89-5.51-19.35-4.07-5.15,1-11.09-1-16.44-2.44-4-1.1-8.08-1.87-11.8-1.24-11,1.87-21.69-2.84-32.82-.67-6.31,1.23-13.06-1.08-19.32-3.38-4-1.49-8-3.26-12.3-4-7.15-1.15-11.66-6.44-15.66-11.62-4.42-5.72-1.39-12.34,5.79-13.8,16.6-3.37,33.09-7.44,50.12-8.11,10.49-6,22.05-.49,33.12-3,5.74-1.32,12.69,2.56,19.08,4.17,1.28.32,2.6,1.67,3.66,1.44,11.61-2.5,22,6,33.66,3.47,3.78-.82,8-1.62,11,2.28,2.11-3.24,5.2-4.35,8.94-5,6.48-1.15,12.67-2.67,19.53-1.61,6.11.95,12.61,1.15,18.85-.69,1.22-.36,3.13-.86,3.8-.27,7.4,6.56,16,2.27,23.94,2.39,5.8.09,10.8.74,16,3.28,4.12,2,7.75,3.51,13.59,1.07,5.39-2.26,12.7-2.58,19.19-3.22C1823.93,578.35,1818.36,583.79,1821.65,586.06Zm-227.17-8.35.39-.59-.62-.08Zm331.69,51.61.47.32.06-.53Z" style="fill:#fff;"/><path d="M2031.61,820.29l-.61-1.17.55,1.24Z" style="fill:#fff;"/><path d="M1690.32,1443.8c-4.17-7.22-8.43-8.77-18.08-6.19-3.17.76-5.07,3.16-7,5.53-16.86,4.35-31.7,14.8-49.52,16.32a28.78,28.78,0,0,0-10.36,3.39c-2.24,1.13-5,2.87-7.5,1.82-6.61-2.77-12.21.57-18.12,2.26-1.58.45-3.1,1.15-4.69,1.49s-3.6.24-4.36-1.48c-1.12-2.52.93-3.91,2.83-4.26,7.31-1.35,13.7-6.77,21.75-4.88,1.22.29,3.16.54,3.77-.12,5.15-5.49,12.22-5.45,18.77-6.93l1.73-1c1.25.47,1.86-.09,2.05-1.3l1.86-1c2.85,1,5-.51,7.45-1.7,16.24-7.87,30.83-18.57,46.63-27.17,3.33-1.81,5-4.82,4.26-8.27-1.2-6-1.65-11.33,3.48-16,1.16-1,1.55-3.66.45-5.65-4.44-8-12.33-10.24-21.34-7-11.56,4.19-22.18,10.08-32.82,16.11-3.91,2.21-7.84,5.94-12.41,5.56-8.39-.7-15.48,3.92-23.8,4.45-8.68.55-17.45,5.36-26.27,8.11-5.13,1.6-8.12.81-11.19-2.91-4.24-5.13-3.69-7.64,2.88-7.7,9.17-.08,16.62-4.89,24.67-7.67,13.64-4.7,26.78-11.12,38.3-20.05,5.17-4,12.11-6.18,15.71-11.31a36.14,36.14,0,0,1,10.32-10.05,34,34,0,0,0,9.9-9.66c2.21-3.44,5.89-7.46,1.83-12.37-1.81-2.19-1.56-5-.42-7.59,1.61-3.73-.63-5.45-3.58-6.92-5.14-2.57-9.91-1.39-15.45,4a15.17,15.17,0,0,0-6.85,5.34,3.22,3.22,0,0,0-3.45,2.28h0L1629,1333a7.83,7.83,0,0,1-2.38,4.08,7.21,7.21,0,0,1-2.1,1.24,10.74,10.74,0,0,1-1.6.47,10.74,10.74,0,0,0,1.6-.47,7.21,7.21,0,0,0,2.1-1.24A7.83,7.83,0,0,0,1629,1333c-4.53.77-7.85,3.7-11.36,6.33a1.53,1.53,0,0,0-1,.94c-2.93,1.81-7.92,0-9,5.14a29,29,0,0,0,5.54-.71,29,29,0,0,1-5.54.71l-2.44,2a7.15,7.15,0,0,1,.07,1.35,7.07,7.07,0,0,0-.07-1.35c-16.8,7-33.53,13.92-51.7,17-12.64,2.15-25.48,4.19-37.1,10.46a16.42,16.42,0,0,1-8.68,1.85c-7.83-.65-15.45,1.21-23.2,1.26-3,0-6,.16-8.25,2.66l-5.08,1.18c-8.34-.45-16.67-.54-24.95.93l-5,1.5a17.34,17.34,0,0,0-11.67-.25,22.43,22.43,0,0,1-13.22.1c-1.28-6.94,2.89-12.12,4.65-18l.42-.57c1.08.19,1.44-.3,1.25-1.32a1.81,1.81,0,0,0-.62,0,.8.8,0,0,0-.62.67.8.8,0,0,1,.62-.67,1.81,1.81,0,0,1,.62,0l1.33-1.93c5.41-5.37,12.78-8.05,19.28-10.91,8.08-3.55,17.25-6.53,26.66-5.9a8.45,8.45,0,0,0,7.13-2.62c5-5.16,10.32-10.11,13.6-16.7h0l2.83-2.75h0c6.64-7.63,6.54-8.68-1.33-14.67a1.91,1.91,0,0,0-.92-1.19c-1.1-3.14-3.53-2.22-5.77-1.9s-4.64,1.59-6.79.34c-9.37-5.45-19.8-4.59-29.8-4.37-11.49.25-22.43,3.57-31.2,11.82a1.31,1.31,0,0,0-1,.79c-11.12,3.83-18.47,12.54-25.23,21.24-5.29,6.81-6.33,16.08-10.46,24s-5.37,18.35-4.63,28c.4,5.21-2.06,6.35-6,7q-11.72,1.81-23.45,3.56c-3.83.58-8,.11-10.92,3.51l-2.86,2c-8.51-1.16-15.23,2.65-21.51,7.71l-4.5,2.23c-2-2.36-4.18-.75-6.35-.33-13.57,2.61-25.28,10.07-37.59,15.57-9.73,4.35-18.58,11.61-26.8,19-1.84,1.65-3.14,3.34-2.87,5.91l-1,2.52c-5.24,2.66-9.09,6.87-9.67,12.59a29.66,29.66,0,0,1-2.88,10.27c-4.07,8.32-.92,17.1-1.91,25.59,0,.42.83.94,1.27,1.42l-.27,4.73c-2.06,5.1-.76,10.42-1.09,15.64-.7,11.23.43,22.55-.57,33.64a248.61,248.61,0,0,0-.77,38.64,127.81,127.81,0,0,1-1.59,32.19c-2.21,11.63-2.34,23.45-2.62,35.17-.31,12.84,2.36,25.58,2.4,38.55,0,7.2-1.47,14.54.25,21.74a47.78,47.78,0,0,0-.25,14.13,3.46,3.46,0,0,0,.29,3.93c-1.69,20-1.41,40-.47,60q.45,5.94.91,11.88c-1.9,5.13-1.27,10.45-1.24,15.76.1,18.87,0,37.75,0,56.63-.13.24-.44.57-.37.69a8.28,8.28,0,0,0,.93,1.16c-1.36,10.77-.9,21.6-.84,32.42-2.4,15-2.25,30.16-1.3,45.3l-.85,8.69c-2,3-1.73,6.15-.65,9.37a9.62,9.62,0,0,0-.48,8.13,3.88,3.88,0,0,0,.08,3.87,4.36,4.36,0,0,0,0,4.09c-3.42,4.6-8.43,2.94-12.89,3.15s-9.24-1.24-13.6,1.23h-5.62a76.73,76.73,0,0,0-18.18-2c-6.45.15-13,.7-19.61-.12-24.49-3.05-49.06-6.59-73.74-1.39-5.79,2.9-5.8,3-.49,9.12,3.31,5,4.7,9.73,3.52,16.35-1.52,8.54.66,17.53,3.56,25.94,1.33,3.85,2.65,7.4-.41,11.19-2.82,3.48.21,7,1,10.27,1,4.26,2.82,8.25-.1,12.22-3.26,4.44,2.81,8.81-.64,13.85-2.71,4,4,9.85.57,14.08-4.16,5.1-1.07,9.34-.37,14a11.09,11.09,0,0,1,.14,4c-3,13.18-1.36,26.39-.27,39.57.27,3.22-.71,5.67-2.27,8.35-3.78,6.51-3.62,6.58,4,8.37.58.14,1.06.73,1.57,1.11,10.64-2.8,21.4-2.21,32.27-1.67,7.94.4,16,1.69,23.8,1,7.42-.66,14.59.65,21.87.42,7.06-.22,14-1.07,21.21-.52,9.52.73,19.17-.15,28.77-.42,4.94-.14,10,.74,14.79-1.12a59.87,59.87,0,0,1,25.29-3.41c14,1,27.63-.6,41.41-1.66,9.6-.74,19.3-1.85,28.86-1.28,12.49.75,24.89,2.73,37-1.75,2.32-.85,4.33-.53,6.7-.2,4.65.65,8.58-1,12.12-4.67,8.89-9.27,10.2-21.63,12.81-32.92,5.61-24.3,6.45-49.41,5-74.17-1.85-31.61.74-63,1.17-94.54.25-17.85-.56-35.66-.2-53.49.21-10.37-3-20.43-2.39-30.71.66-10.59,1.27-21.15.59-31.75a49.87,49.87,0,0,1,.11-8,550.63,550.63,0,0,0,2.38-59.53c-.08-7-1.61-13.85-1.45-20.69.45-19.5,1-38.94-1.43-58.38-2.1-16.83-3.33-33.77-1.93-50.75a67,67,0,0,0-2.55-25.54,1.91,1.91,0,0,0,0-3.09l-.44-6.94a6.21,6.21,0,0,0,1.19-7.53q.28-5.19.56-10.39c5.47-2.52,11-3.64,17.09-2.07a14.08,14.08,0,0,0,12.25-2.54c2.71-2.11,5-2.93,8-1.21,1.65.93,3.22-.64,4.66-.58,6.3.25,11-4.2,16.94-5.15,12.76-2,25.23-6.33,38.38-5.06,3.21.31,5.51-3.45,8.42-1.76,6.48,3.76,11.58-1.16,16.51-3.16,4.44-1.8,7.65-6,13.33-3.53,2.24,1,4.39-.89,6.34-2.18,1.67-1.1,3.53-2.5,5.43-1,2.88,2.33,4.86.39,7.05-1,2-1.28,4.29-1.48,6.53-2,6.92-1.73,15.32,2,20.72-5.5a2,2,0,0,1,1.85-.28c7.68,4.37,12.68-6.87,20.16-3.43,13.65-7,28.85-10.67,41.77-19.07,4.41-2.87,10.47-2.76,13.54-7.8l1.88-.79c6.56-.9,13-2,16.16-9l.94-1.83c7.26-3.16,9.24-10.28,12.4-16.53l1-1.94c3.38-2.45,4.51-5.66,2.59-9.41-2.13-4.18-5.92-4.82-10.17-4l-5.63.11-.65-.35s-.26.72-.27.73l-2.85,1.92c-1.61.31-3.36.32-4.81,1-13.41,6.14-26.83,12.17-41.71,13.89-3.62.42-7.6.31-10.73,1.83-9.87,4.82-21,3.7-31.06,7.23a2.91,2.91,0,0,1-4-1.92,4,4,0,0,1,1.43-4.44c1.61-1.45,3.47-1.52,5.52-1.65,5.65-.37,11.3-1.09,16.38-3.81,6.77-3.63,14.47-3.88,21.6-4.32,8.18-.51,13.54-5.18,19.86-8.69-7.09-.32-13.82,1.49-20.55,3.29-1.35.36-2.69.72-4,1.07,1.35-.34,2.7-.71,4-1.07,6.74-1.81,13.46-3.61,20.55-3.3l1.73-1.12a12.34,12.34,0,0,1,3.49-4.09,12.34,12.34,0,0,0-3.49,4.09c5.14-.62,10.24-1.84,15.47-.94,5.89-6.45,16.52-7.08,20.12-16.36l2.57-2.33c2.55-1,6.35.36,7.19-3.84l.56-.56c5.62-3.37,9.41-7.7,8.9-14.88-.3-4.15-1.59-8.65,2.25-12.16C1691.12,1445.7,1690.94,1444.88,1690.32,1443.8Zm-196.28-125a10.11,10.11,0,0,1,.1,1.84,10.11,10.11,0,0,0-.1-1.84,16.76,16.76,0,0,0-.37-1.82A16.76,16.76,0,0,1,1494,1318.76Zm139.17,12.83a1.8,1.8,0,0,0,1.47-.59A1.8,1.8,0,0,1,1633.2,1331.58Zm-27.88,17.14a3.28,3.28,0,0,1-.83,2.25A3.28,3.28,0,0,0,1605.32,1348.72Zm-247.42,49.92a2.67,2.67,0,0,1,1.7,1.58h0A2.66,2.66,0,0,0,1357.9,1398.64Z" style="fill:#193947;"/><path d="M989.66,923a54.43,54.43,0,0,1,10.5-31.27c2.72-3.77,5.55-7.45,8.3-11.19,17.31-23.5,42.49-26.18,65.57-16.94s31.9,27.75,30,53c-1,13.29-4.87,24.47-13,34.52-13.27,16.48-30.75,25.18-51.73,25-12.72-.14-23.4-6.91-31.82-16.41-6.56-7.4-12.91-15.05-15.7-25C990.8,930.81,989.42,927.09,989.66,923Zm60.4-34.67a66.57,66.57,0,0,0-7.89,0c-20.14,2.42-31.25,24.88-20.72,40.78,12.25,18.5,27.75,21.65,45.33,7.48,5.66-4.56,11.68-10.78,11.87-19.78C1079,900.68,1067.06,888.59,1050.05,888.29Z" style="fill:#fff;"/><path d="M725.2,1101.45c-29.22-.54-58.51-20-57.78-56,.32-15.71,5.68-29.46,16.15-40.57,9.24-9.8,21.89-14.48,35.15-16.08,4.95-.59,9.9-1.58,15-1.74,17.65-.56,29.68,8.67,40.79,20.5A46,46,0,0,1,785.45,1026c3.78,12.57,1.88,24.87-3.29,36.44-7.89,17.63-21.19,29.81-39.55,36.43C737.2,1100.78,731.66,1100.71,725.2,1101.45Z" style="fill:#193947;"/><path d="M1058,1526.49c.93.37,1.71.94,1.55,2-.14.89-.41,1.94-1.76,1.36-.89-.38-1.77-.91-1.65-2S1056.78,1526.13,1058,1526.49Z" style="fill:#193947;"/><path d="M1035.76,1530.64c-.35.46-.72,1.31-1.07,1.31-.95,0-1.8-.56-1.51-1.72.12-.49.68-1.25,1-1.24C1035.1,1529,1036.07,1529.31,1035.76,1530.64Z" style="fill:#193947;"/><path d="M415.51,1122.2c.11,2,0,3.91-2.69,3.88-.42,0-1.19-.76-1.18-1.15.1-2.67,2-2.7,4-2.58Z" style="fill:#e56267;"/><polygon points="1594.48 577.71 1594.25 577.04 1594.87 577.12 1594.48 577.71" style="fill:#4eb8cb;"/><polygon points="1926.17 629.32 1926.7 629.11 1926.65 629.63 1926.17 629.32" style="fill:#4eb8cb;"/><path d="M1050.05,888.29c17,.3,28.94,12.39,28.59,28.52-.19,9-6.22,15.23-11.87,19.78-17.58,14.17-33.08,11-45.33-7.48-10.53-15.9.59-38.36,20.72-40.78A67.08,67.08,0,0,1,1050.05,888.29Z" style="fill:#193947;"/></g></g></svg>