<svg xmlns="http://www.w3.org/2000/svg" viewBox="0 0 2480.32 1490.93"><title>done</title><g id="Layer_2" data-name="Layer 2"><g id="Layer_1-2" data-name="Layer 1"><path d="M842.71,585.68h0c.12-.19.25-.37.38-.54Q842.91,585.4,842.71,585.68Zm-35.85,4.37h0c0-.14.09-.29.14-.43C807,589.76,806.91,589.9,806.86,590.05Z" style="fill:#e86462;"/><path d="M1648.5,840c-.83-17.49-2.51-35-4-52.4-.5-5.61-3.59-11.7-2.19-16.62,2.44-8.57-1.6-15.71-3.1-23.1-1.54-7.65-3.72-15.88-10.88-21.68-4-3.26-8.18-8.55-7.87-14,.55-10-4.46-15.9-11.86-20.84-2.22-1.49-4.33-2.64-4.57-5.93-1-13.52-12.14-19.79-21.08-26.6-11.86-9-27.83-11.15-39.68-20.83a4.85,4.85,0,0,0-1.74-.51c-8-2.16-16-4.35-23.7-7.56a68.11,68.11,0,0,0-28.68-5.15c-6.24.23-12.31.84-18.54-.22a30,30,0,0,0-9.91,0c-12.11,2.07-24.3,1.26-36.46,1.57-3.08.07-6,0-8.12-2.73-1.47-1.87-3.55-2.55-5.77-3.45-9.37-3.8-16.27-11-22.31-18.73-7.49-9.62-8.32-22-11-33.21-3.35-14-3.34-28.75-7.85-42.65-3.17-4-3.9-9-5.7-13.6-5-12.69-9.25-25.68-14-38.47-1.21-3.27-2.72-6.16-6.18-8.48-2.76-1.86-3.7-6.67-5.08-10.31-3.07-8.11-6.34-16.07-12.59-22.38a19,19,0,0,1-5.65-6.62,115.61,115.61,0,0,0-20.15-29.36,25.54,25.54,0,0,1-5.36-7.08c-3.44-7.8-10.28-13.28-13.9-20.94a11.81,11.81,0,0,0-3.94-4.41c-7.6-5.48-8.76-15.59-15.39-21.82.88-8.67-6.46-9.56-11.79-11.82-2.09-.89-4-1-5.56-3.24-4.63-6.76-10.42-12.12-19.08-13.25-.92-.12-2.29-.47-2.59-1.11-2.93-6.37-8.42-6.58-14.27-6.34-2.61.11-4.31-1.88-5.55-3.8-3-4.69-7.3-6.43-12.68-6.13-2.73.16-6.2-.13-7.32-2.32-3.34-6.49-9.6-8.16-15.11-11.66-11-7-22.23-12.75-34.89-15.57a30.86,30.86,0,0,1-12.43-5.42c-3.35-2.52-7.7-4.6-12-3.9-7.07,1.12-12.88-2.69-19.28-4-4-.85-6.37-5.15-11.19-5.63a23,23,0,0,1-13.35-5.57c-3.33-2.94-8.2-4-13.09-3.65-8.08.63-15.76,1.06-24-2-7.52-2.8-16.48-.22-24.87-3.17-4.85-1.7-11.15.25-16.69,1.17-4.45.74-8.26.93-12.11-2.2-2.51-2-5.93-2.47-9.49-2-5.6.67-11.79,1.54-16.76-.68-6-2.66-11.61-1.39-17.46-1.73-9.55-.57-18.81,2.12-28.51,1.14-12.54-1.27-25.41-3.33-37.81,1.64a3.83,3.83,0,0,1-3.78-.12c-6.19-4.19-12.88-2-19.17-.86-6.56,1.24-12.68,3-19.43.35-3.94-1.57-8.67-1-12.86.06-9.73,2.5-20.31,1.48-29.28,7.31-1.79,1.16-4.6.62-6.81,1.28-5.37,1.6-11.28.92-16.3,4-6.11,3.79-12.95,4.84-20,5.06a71.16,71.16,0,0,0-29.79,7c-5.13,2.55-10.48,4.91-15.9,5.19-14.95.78-27.43,8.6-39.79,14.95-19.56,10-39.58,19.33-58.47,30.76-6.26,3.79-11.56,9.17-18.28,11.89-8.09,3.27-14.83,8.52-22.06,13-22.76,14.24-41.27,34.15-64,48.41-1.3.82-1.9,2.68-3,3.87-7.32,7.74-12.9,16.79-19.2,25.3-7.25,9.82-15.71,18.67-23.16,28.37-3.34,4.35-4.58,9.49-7.71,13.77-13.29,18.12-24,37.73-34.08,57.79-2.72,5.43-3.62,12.25-9.18,16-4.37,3-4.9,7.54-6,12-1.86,7.25-1.89,15.15-5.93,21.59a28.34,28.34,0,0,0-4,11c-2.41,15.11-5,30.2-7.22,45.34-1.16,7.89-3.12,16-2.17,23.77a184.81,184.81,0,0,1,.33,44.59c-.38,3.3,1.86,6.14.45,9.73-4.14,10.51-10.09,21.12-18.86,28.7-4.35,3.75-7.57,9.84-13.35,10.89C321.45,734,309,738,296,738c-5.15,0-9.74,1.88-14.44,3.49-1.88.64-3.89,2.51-5.46,2.16-11.73-2.64-20.84,4.46-30.6,8.34-8.86,3.51-16.91,9-25.32,13.67a13.79,13.79,0,0,0-2.5,1.6c-16,14.45-28.66,31.73-41.49,48.88a27.25,27.25,0,0,0-4,8c-1.92,5.93-3.24,12.49-5.94,17.62-4.15,7.93-5.87,16.19-7.62,24.51-.72,3.45-.8,7.42-2,10.6-6.1,16.65-6.68,34-7.48,51.33-.79,16.93,2.19,33.54,3.94,50.26a180.49,180.49,0,0,0,6.52,30.81c3.15,10.92,6.3,22.22,14.52,31.07a13.16,13.16,0,0,1,3.38,8.17c.14,3.11,1.7,5.85,3.39,8.24,8.55,12.16,16.52,24.78,27.39,35.14,1.16,1.11,2,2.38,3.51,3.28,8.11,4.8,18.25,6.48,23.8,15.25,14.77,6.24,28.38,14.71,42.67,21.87a7.27,7.27,0,0,0,2.8,1c7.07.2,13.93,2.15,20.46,4.21,6.12,1.92,13.15-1.47,18.53,3.7.56.54,2.67,0,3.72-.64a8.09,8.09,0,0,1,6.68-.89c14,4,28.31.61,42.45,1a239.09,239.09,0,0,0,35.84-1.45c7.12-.9,14.44.53,21.39-2.9,2.43-1.21,6.12-1.14,8.81-.3,5.88,1.82,11.36,0,16.54-1.56,11-3.31,22.35-5.71,32.88-10.56,7.35-3.39,15-5.84,22-10.37,10.69-6.89,22.8-11.18,33.28-19,7-5.22,15.36-8.78,22-14.91,7-6.46,12.8-14.51,20.45-19.86,9.85-6.9,15.3-17.15,22.83-25.7,4.32-4.91,8.43-9.83,13.55-13.9a35.17,35.17,0,0,1,7.09-17.19c6.94-9.33,10.81-19.78,13.39-30.78,1.38-5.87,5.14-10.69,6.1-16.76.88-5.59,2.53-11.09,2-16.78-.61-6.56,4-11.63,4.28-18.18.27-7.24,1.48-14.44,1.43-21.81,0-6.13-1.17-12.73,3-18.36a4.85,4.85,0,0,0,.46-3.85c-3.19-9.35,0-18.39,1.06-27.55.57-4.87,1.78-9.77-.14-14.68a8.18,8.18,0,0,1,.22-5.88,14.59,14.59,0,0,0-.27-11.64c-1.42-3.22-.2-6.6-.19-9.89,0-4,0-7.82-1.37-11.76-1.85-5.18-3.42-10.51-1.38-16.3a11.26,11.26,0,0,0-.65-8.8c-2.62-4.93-2.5-10.29-2.79-15.57-.63-11.46-1.85-23-1.52-34.35.21-7.13-1.25-14.31-.53-21.43a31.61,31.61,0,0,1,.73-4.26l-.21-1.75-.18-1.74L653,689c-.1-1.16-.17-2.31-.23-3.46l-.06-1.19c0-1-.08-1.94-.11-2.91s0-1.94-.06-2.91,0-1.93,0-2.89c0-7.48.34-15,.47-22.49.23-12.83-2.11-25.74-3.77-38.56-1-7.32-1.23-7.87,6.06-9.06l6.27-1,4.71-.73c7.32-1.11,14.66-2.16,22-3.21l11-1.6h0c3.72,3.93,7.35,1.93,11-.17a30.6,30.6,0,0,0,6.55.1l.47-.08.26,0a4.14,4.14,0,0,0,.5-.12l.37-.1a9.75,9.75,0,0,0,2.19-1h0a7.32,7.32,0,0,0,5.6,1c9.67-1.64,19.26-4.38,29.21-3.36,8.56.88,17-1.08,25.64-.3,7.22.65,14.29-1.38,21.09-4l2.38-.43,2.37-.44c0-.15.09-.29.15-.43,0,.14-.1.29-.14.43h0c6.9-.28,13.82-.38,20.71-.93,3.51-.29,7.32.7,10.5-1.75l4.64-1.7q.19-.28.39-.54c-.13.17-.26.35-.38.54a9.63,9.63,0,0,0,2.82.57c14.27-1.68,28.55-3.21,42.77-5.23,12.62-1.78,24.86-5.8,37.7-6.41a7.67,7.67,0,0,0,6-3c20.31-2.54,40.54-5.65,60.77-8.72,4.49-.68,8.86,1.66,13.63.61s9.9.45,14.31-2.83a4.76,4.76,0,0,1,3.87-.34c8.35,3.16,16.44-.41,24.47-1.33,6.54-.74,12.9,1,19.56-.64,6.27-1.52,12.7-2.68,19-4.3,7.74-2,10.83-.48,11.72,7.76.93,8.62,2.45,17.31,1.06,26.12-.5,3.19-.79,6.64.88,9.76a9.36,9.36,0,0,1,.58,7.69h0c.62,23.77,5.69,47,8.17,70.52,1.1,10.37,2.46,20.85,2.43,31.36,0,6.3,1.86,12.48,2,18.65.14,8.27,3.07,16.2,2.24,24.51a30,30,0,0,0,.87,9.81c2.5,10.93,5,21.91,5.23,33.2.06,2.76,1.07,5.2,2,7.68,3.5,9.36,5,19.12,5.88,29,.18,2,.22,4,1.43,5.69,4.78,6.87,5.43,14.91,7.4,22.75,2.13,8.41,3.21,17.75,9.28,24.88,2.33,2.74,2.24,6.23,3,9.37,1.93,7.87,5.93,14.63,9.69,21.67.4.76.81,1.51,1.23,2.26l.94,1.67q.68,1.22,1.38,2.4c.54.93,1.09,1.86,1.65,2.78,1.72,2.88,3.5,5.73,5.26,8.58q1.61,2.56,3.18,5.14,1.91,3.08,3.72,6.21,1.23,2.09,2.39,4.2c4,2.44,7.4,5.2,9.63,9.65,2.87,5.73,8.07,9.8,13.32,13.07a85.66,85.66,0,0,1,18.93,15.42c3,3.35,7.3,5.63,11.17,8.14,9.34,6,18.85,11.83,28.16,17.93a64,64,0,0,0,25.61,10.21,13.66,13.66,0,0,1,5.44,2.28c6.48,4.14,13.13,7.66,21.19,7.33.71,0,1.47,1.17,2.22,1.8,9.63,2,19.19,4.52,28.91,5.9,8,1.14,15.53,5.53,24.14,2.9,2.56-.79,5.87.46,8.73,1.16,12.35,3,24-2.74,36.13-2.73,7.87,0,15.57-2.74,23.56-1.73,1.27.16,3,.26,3.84-.44,5.7-4.77,12.93-3.15,19.35-4.39,6.71-1.3,13.46-3.26,20.54-3,6.68.23,12.57-3.52,19-4.78,4.42-.86,8.43-4.06,13.29-1.49.55.29,2.54-.75,2.5-1-1.06-7.69,4.09-3.81,7.29-4.29s6.23-2.17,9.35-3.3c13.69-5,27.44-9.87,36.64-22.2,1.56-2.09,3.9-2.33,5.88-3.45,2.79-1.57,6.47-2.25,7-6.33.28-1.91,1.78-2.8,3.31-3.4,4.43-1.75,8.27-3.64,8.76-9.4.22-2.68,3.41-4,5.72-5.19a41.88,41.88,0,0,0,17.46-16.85c1.42-2.54,3.92-4.47,5.91-6.67,5.37-13.74,13.29-26.6,14.4-41.87.18-2.52,1.88-4.93,2.91-7.38.9-2.14,2.22-4.18,2.69-6.41A183,183,0,0,0,1648.5,840ZM321.59,814c-5.53,4-8.56,11.59-12.46,17.71-8.61,13.56-16,27.73-20.84,43.14a8,8,0,0,1-1.42,2.57c-2.26,2.76-3.78,7.29-7.65,7.15s-5.28-4.35-7.19-7.53C261.12,859,265,841.2,273.79,824a98.15,98.15,0,0,1,27.75-33.82c16.38-12.41,31.73-26.76,52.19-32.61,8.79-2.52,17.64-5.43,25.14-4.23,11.37-.07,20.59.44,27.45,8.32a34.18,34.18,0,0,1,2.7,2.84,4.14,4.14,0,0,1,0,4.72c-.84,1.28-2.28.8-3.62.65-16.55-1.88-31,3.67-45,12C345.75,790.59,335.26,804.13,321.59,814ZM404,823.48c-6.06,6.51-12.15,13-17.72,20-3.68,4.58-7.42,9.38-8.25,15.6a8.76,8.76,0,0,1-2.29,5.42c-5,4.83-5.34,11.11-5.6,17.44a41.74,41.74,0,0,1-1.13,9.86c-1.78,6.24-6.88,8.25-12.83,10.51-1.39-4.49-4-7.58-6.53-10.57-13.45-16.06-10.22-29.42-1.77-44.79,5.88-10.7,15.68-17.91,25.07-25.14,8.61-6.63,18.22-11.92,28-16.84a46,46,0,0,1,16-5.17c1.83-.19,3.93-2,5.23.51,1.13,2.25.58,4.23-1.44,6.19Q412.11,814.73,404,823.48Zm64.65,19.69c-5.32,13.81-10.12,27.75-14.11,42.07-3.49,12.55-10,24.33-15.9,36.08-2.64,5.27-8.93,6.88-14.18,8.51-3.3,1-6.18-1.72-6.62-5.66-.81-7.26-1.56-14.54-2.49-23.23,1.66-9.53,5.07-19.66,12.23-28.23s14.85-17,21.71-25.87c4.31-5.6,10.13-6.94,16.28-7.87C468.29,838.55,470,839.73,468.63,843.17ZM512.48,670c-2,21.63-4.26,43.34-12.79,63.54a37.63,37.63,0,0,1-12.82,15.71c-2.11,1.5-4.2,3.55-7.14,1.65-2.45-1.58-1.7-4.09-1.83-6.33-.06-1,0-2,0-4.33C479.09,728,483,715,488.1,702.52c5.44-13.36,11.5-26.45,15.1-40.48.41-1.61.48-3.58,2.5-3.74,1.69-.13,3,1.17,4.18,2.41C512.35,663.36,512.79,666.71,512.48,670Zm21.29,106.85c-2-.58-2.8-2-2.21-3.7,2.55-7.48.69-14.2-2.64-21-1.93-3.94-1.51-8.16.14-12.55,2.19-5.83,4.29-11.77,4.89-18.13.48-5.21,3.64-9.62,5.06-14.7,3.41-12.24,4.2-24.57,4.72-37a46,46,0,0,1,.4-5c.5-3.28,3-4.11,4.8-2,2.49,3,6,5.51,6.9,9.54,2.25,9.62,6.22,19,4.47,30.17,1.94,10.5-1,21.82-.84,33.32.11,10.31-3.1,20.74-5.54,31C552.3,773.55,540.63,778.91,533.77,776.88Zm100.54-45.82c-1.34,9.3,1.59,18.81-1.83,28-.83,2.24.42,4.55.63,6.81.63,7.19.21,14-2.73,21.1-2.52,6.07-2.6,13.48-2.43,20.27.28,11.29-5.74,21.09-6.57,32a3.14,3.14,0,0,1-2.34,3c-4.39.89-5,3-3.43,7.12.94,2.38-.07,5.65-1.84,7.53-3,3.13-3.43,7-4.66,10.76-2.28,6.87-9.67,8.26-14.16,12.85-1.75,1.78-4.31-1.06-4.79-3.45-1.44-7.11-3.07-14.12-1.54-21.59,3.19-15.53,4.86-31.44,9-46.68,2.58-9.45,4.28-19.08,7.06-28.43.89-3,1.21-5.73.58-10.57,3.25-9,2.3-20.42,4.85-31.36a57,57,0,0,0,1.48-13.81c-.24-20.53-.82-41.06-1-61.59-.08-12.21-.38-24.53-1.28-36.76-.15-2-.51-4.22,1.93-5s3.55.89,4.75,2.64a9.46,9.46,0,0,1,1.46,8.53c-1.66,5-.34,9,3.51,12,2.39,1.89,2.93,4.23,3.39,6.88,2.24,13,5.75,25.92,6.45,39C631.58,704,636.28,717.3,634.31,731.06ZM886,413.56a35.42,35.42,0,0,1-2,5,1,1,0,0,0,.07.15c.75,1.46-.87,3-2.51,4-5.87,8.27-15,12-25.1,14.13a13.7,13.7,0,0,1-5.81,1.72c-6.86.5-13.37,3.43-20.48,2.36a9.72,9.72,0,0,0-3,0c-3.33.69-10.16,3.89-7.4,7.3a2.76,2.76,0,0,1,2.74,2.13l15.77,10.78c4,2.71,8,5.46,11.2,9,5.79,6.33,9.41,15.74,10.21,25.33a3.68,3.68,0,0,1,2.66,4c-1.07,12.2-4.81,23.61-15.78,30a36.4,36.4,0,0,1-18.13,4.62,28.68,28.68,0,0,1-4.79-.41,53.88,53.88,0,0,1-22.26-4.37c-12.13-5.45-21.34-15.1-29.15-25.63a8,8,0,0,0-1.27-1.46,2.48,2.48,0,0,0-.67,0c-2.42.3-1.71,2.26-2,3.79-1.1,6.47-1.53,13.07-2.56,19.47-1.71,10.63-5.29,21.16-12.62,29.32-3.78,4.2-9.25,7.82-16,5.63-1.92-.62-3.83-1.1-5.81-.18-7.3,3.39-13.08.3-17.58-5-2.35-2.79-5.8-3.77-8-6.68a.76.76,0,0,1-.12-.14,7.87,7.87,0,0,1-.82-1c-5.79-8.15-7.75-17.15-6.93-26.83a12.48,12.48,0,0,0-1.25-7.59,8.33,8.33,0,0,0-1.13-1.58,0,0,0,0,0,0,0c-1.66-1.27-3.6-1-5.34,1.2a54.8,54.8,0,0,1-9.88,9.4c-7.65,7.21-16.79,13.65-25.76,17-7.58,2.82-16.75,3.44-24.26,0-6-2.73-9.55-9.29-12.87-14.74a52.28,52.28,0,0,1-6.79-16.18,4.35,4.35,0,0,1-.64-5.5,24.4,24.4,0,0,1,.87-7.39c1.3-4.66,4-8.8,7.11-12.54,8.84-10.73,20.37-16.87,32.18-22.72a17.44,17.44,0,0,1,8.1-4.14l.57-.14h0c1.18-.6,2.36-1.2,3.54-1.82,5.08-2.72-.29-4.64-2.9-4.66-4,0-8,1.34-12.15,1.16a44,44,0,0,1-22.92-7.59,46.87,46.87,0,0,1-13.89-15.47.41.41,0,0,1,0-.09,33.2,33.2,0,0,1-4.81-14.93.27.27,0,0,1,0-.09c-.08-1-.11-2-.1-3a10.8,10.8,0,0,0-1-5.67,18.62,18.62,0,0,1-1.13-2.48,2.45,2.45,0,0,1-.08-.25,16.45,16.45,0,0,1,.12-10.7,48.17,48.17,0,0,1,3-6.91c.66-1.3,1.33-2.61,2-3.92a6.25,6.25,0,0,1,4.3-3.8,24.39,24.39,0,0,1,4.81-3.42,43.62,43.62,0,0,1,10.29-3.6,7.51,7.51,0,0,1,4.3-1c4.26-.93,8.63-1.62,12.89-.84,4.61.84,8.72,3.31,12.71,5.75,3,1.85,11.34,10,14.46,4.16a5.22,5.22,0,0,0,.41-2.59c-1.21-4.49-2.31-9-3.42-13.52-1-3-1.94-5.56-2.31-7-2.81-11-2.34-21.67.37-32.56,1.24-5,1.74-10,4.43-14.39a17.27,17.27,0,0,1,4-5c6.49-5.54,12.16-12,21.94-8,8.78-4.94,13,5.71,20.37,6,.73,0,1.73,1.19,2.06,2,3.5,9,10.13,16.35,13.14,25.57.41,1.25.26,2.79.93,3.83,2,3.18,1.67,8.55,6.46,9.06a3.87,3.87,0,0,0,2.25-.63h0c.77-.43,1.55-1,2.35-1.54a.05.05,0,0,0,0,0,8.83,8.83,0,0,1,2.26-1.16,7.29,7.29,0,0,0,.87-.33c1.53-1.26,1.28-3.19,1.24-5.28s1.9-3.27,2.92-4.88c5.83-9.21,13.5-18.5,22.66-25.26l.56-.48c5.64-4.75,12.75-8.79,20.64-9.1a41.11,41.11,0,0,1,6.89-.66c5.09,0,10.34.7,14.74,3.27,8.16,4.78,11.78,15.06,11.26,24.5s-4.43,18.32-8.28,27a90.31,90.31,0,0,1-7.39,14.08q-7,10.38,5.79,12.82c3.63.68,7.36.49,11,.62,16.75.59,36,1.23,48.35,14.26a30.61,30.61,0,0,1,7.46,13.42A24,24,0,0,1,886,413.56Zm347.11,424.28c-9,3.1-16.46.4-22.09-6.63-3.66-4.57-8.54-8.45-10-14.6a4.86,4.86,0,0,0-1.5-2.49c-10.4-8.68-16-21-21.21-32.61-4.26-9.51-9-19.35-10.73-30.28-1.51-9.6-5.75-18.78-8.89-28.11a209.28,209.28,0,0,1-10.69-49.41c-.78-9.28-3.83-18.15-3.18-27.74s-1-19.14-1.37-28.73c-.35-9.26-.41-18.54-.44-27.81,0-9.61.12-19.22.18-28.83a48.49,48.49,0,0,1,0-5c.27-2.4,1.09-4.85,3.88-5.07,2.62-.21,2.7,2.41,3.4,4.17,2.87,7.17,3.53,14.79,4.8,22.31,3.79,22.54,6.85,45.2,10.48,67.77,1.6,10,2.11,20.41,4.3,30.21s3.3,20.27,8.37,29.38a15.21,15.21,0,0,1,2.22,6.54c.56,9.68,5.51,18,9,26.67,4.61,11.54,7.75,23.95,14.88,34.27,6.26,9,8.71,19.71,13.42,29.36,4.81,9.85,9.61,19.89,14.16,30C1232.78,833,1234.18,835.35,1233.07,837.84Zm28.77-76.24c-2.24,2.38-13.77.76-16.83-2.07-7.62-7.08-12.91-15.88-17.54-25-5.36-10.61-7.09-22.49-11-33.6a18.48,18.48,0,0,0-.91-2.84c-11.62-21.13-13.93-44.45-16.58-67.81-1.14-10-2.62-19.74.77-29.51.43-1.25.58-2.58,2.13-3.46,7,7.35,8,17.22,10,26.38a324.49,324.49,0,0,0,17,53.89c4.9,12.09,9.91,24.3,15.7,35.92,5.15,10.33,8.46,21.42,14.25,31.39,1.19,2,2.6,4.17,2.37,6.46C1260.81,754.86,1265,758.23,1261.84,761.6Zm33.36-56.23c-7.9-.42-13.46-4-18.53-9.94-12.92-15.25-19.33-32.74-22.3-52.38-1.63-10.73-4.23-21.36-4.8-32.27-.28-5.29,0-10.61.16-15.92,0-1.66.6-3.31,2.5-3.49,1.69-.05,2.85.44,3.43,1.85,1.13,2.75,2.26,5.5,3.37,8.27,3.59,8.94,6,18.26,9.89,27.19,3.26,7.42,6,15.33,8.77,23.07,4,10.88,9.74,20.78,15.41,30.77a125.22,125.22,0,0,1,8.08,15.92C1303.38,704.07,1301.32,705.7,1295.2,705.37Zm207.34,102.19c-3.16,5.45-11,2.84-16.64,2.46-9.88-.67-18.31-6.11-26.18-11.5-6.8-4.66-14.11-7.14-21.8-9.18-9-2.39-18-4.75-27.36-5.13-1.39-.05-2.94-.39-2.93-1.88a4.39,4.39,0,0,1,1.71-3.39c2.3-1.19,4.91-2.53,7.4-2.53,9.26,0,18.12-4.53,25.73-2.34,18.76-1,33.51,5.65,47.82,13.54a14.48,14.48,0,0,1,6.11,6.23C1498.75,798.45,1505.07,803.22,1502.54,807.56Zm37.06-55.64c-9.81,9-20.23,3.47-30.34,1-14.13-3.39-27.49-10-42-11.58-11.48-1.25-23.2-.18-34.8-.59-8.81-.31-17.52.46-26.25,1.16-8.9.71-17.86.46-26.71,2-1.78.3-3.94,1-6.15-1.36,3.4-3.66,8.16-4.73,12.45-6.12,21.19-6.87,43.14-10.32,65-14.17,10.28-1.81,21-2.2,30.41.27,13.1,3.43,28.12,3.21,38.48,14.38,7.57,1.53,12.77,6.74,18.11,11.7C1538.77,749.48,1540,750.29,1539.6,751.92Zm35.31-42.13c-7.11,3.28-13.3-.42-19.13-2.68-12.6-4.89-24.56-11.41-37-16.77-10.35-4.47-21.48-6.29-32.57-7.9q-.72-.1-1.41-.24l-.57-.12a4.14,4.14,0,0,1-.5-.12l-.48-.13-.48-.14a9.89,9.89,0,0,1-1.4-.55,3.13,3.13,0,0,1-.32-.16,6.36,6.36,0,0,1-.58-.3c-.24-.14-.48-.3-.71-.46h0a18.77,18.77,0,0,1-1.81.65,17.75,17.75,0,0,1-1.86.41,17.05,17.05,0,0,1-1.87.22A54.69,54.69,0,0,1,1465,681c-12.33-1.19-24.34,2.9-36.63,1.87-11.14.93-22,3.55-33.22,4.54-8.28.73-16.28,4.69-25.39,7.51,1.89-5.73,6-7.89,10.22-10.07q1.13-.59,2.25-1.14c.62-.32,1.25-.63,1.88-.93.81-.4,1.62-.79,2.44-1.17s1.65-.78,2.48-1.15c1.13-.51,2.27-1,3.41-1.5a.71.71,0,0,1,.18-.08h0c.35-.16.71-.31,1.06-.45a1.59,1.59,0,0,1,.27-.12c.86-.37,1.74-.73,2.6-1.07l0,0c.77-.31,1.54-.62,2.32-.91s1.76-.68,2.66-1c.59-.23,1.17-.45,1.77-.65,1.14-.41,2.28-.8,3.43-1.18l2.62-.85,1.32-.42c.81-.25,1.63-.5,2.44-.73l.11,0,.84-.24.42-.12c.89-.26,1.78-.51,2.67-.74,1.17-.31,2.35-.61,3.53-.89q7.07-1.74,14.34-2.85l.12-.12.08-.08a1.11,1.11,0,0,1,.11-.11l.11-.11.1-.11.72.19a32.72,32.72,0,0,1,5.74-.51c.22,0,.44,0,.66.06h0a5.62,5.62,0,0,1,.57.09,6.79,6.79,0,0,1,.75.17c.3.09.59.19.89.31h0a.71.71,0,0,1,.89-.37.9.9,0,0,1,.26.13,4.74,4.74,0,0,1,.77-1.26,2.65,2.65,0,0,1,.34-.33,3.15,3.15,0,0,1,1.81-.7c19.82-1.5,39.65-3.18,59.43.31a54.73,54.73,0,0,1,20,7.56,26.71,26.71,0,0,0,5.38,2.39c16.41,6,30.41,15.68,42.88,27.68C1581.29,706.27,1580.69,707.13,1574.91,709.79Z" style="fill:#e86462;"/><path d="M2478.34,1003.11c-1.37-1.25.25-3.61,1.51-5.15q-.24-2.94-.46-5.88c-3.86-1.76-5.63,3.06-8.94,2.95-2.48-2.19-.29-3.6.86-4.9,2.2-2.46,3.38-4.72,1-7.85-3.3-4.3.44-9.86-3.18-14.89s-2.65-5.62-9.72-13.54c-2.23-2.5-4.46-7.68-3.82-9.57,1.76-5.16-1.5-8.43-2.36-12.5l-3.4-2.25c.43,3.05-.35,4.65-3.52,2.59-1.81-1.18-1.6-3.46-2.11-5.28a32,32,0,0,0-6.08-11.92,7.73,7.73,0,0,1-5.69-3.63c-3.51-5.67-9-7.48-15.24-7.87-2.22-.14-4.74.54-6.94-2.26,5.07-5,7.53-11.92,11.7-17.76,2.69-3.77,5.22-8.13,8.91-10.6,5.56-3.73,5.66-11.26,11.54-14.51,1.33-.73.86-3.05.61-4.72-.29-2-1-4.27.51-5.76,4.56-4.55,2.83-9.66,2-14.88-.86-5.56-2.48-12,.07-16.59,2.69-4.85,2.64-8.3.5-12.67-1.27-2.59.21-5.22.23-7.81,0-5.22,1.4-10.64-1-15.65-4.48-9.29-10.71-17.68-13.92-27.66-1.42-4.39-3.25-8.72-8.35-10.49-2.36-.81-3-3.23-3.78-5.51-2.65-7.44-7.54-12.9-15.24-15.36-1.93-.62-3.83-1.15-5.31-2.58-7.09-6.82-16.6-9.66-25.08-13.66-7.43-3.5-14.52-9.35-23.61-9-3.76-5-9.71.33-13.72-2.83-8-6.32-19.07-.7-27-7.05-.34-.27-1.27.19-1.92.31-9.69,1.78-19.49.07-29.26.65-5,.3-10.41,1.05-15.71-.41a113.83,113.83,0,0,0-37.41-3.36c-14.84.94-29.91-.12-44.49,2.74-7.64,1.49-11.19-3.74-16.34-6.28-2.42-1.2-4.07-4.53-3.82-7.75.71-8.78,1.05-17.65,2.67-26.27.82-4.37,1.72-8.09-.11-12.44-1.75-4.16,1.24-16.41,4.84-19,3.85-2.74,3.86-5.66,2.76-9.5-2.9-10.2-1.55-20.26.52-30.49,1.67-8.24,8.37-15.53,4.88-24.82a3,3,0,0,1,1.11-2.58c3.57-2.1,2.89-4,.81-7.09a21.52,21.52,0,0,1,.58-25.3c4.25-5.48,2.41-8.69,1.1-13-1-3.13-2.78-6-4.21-9-.86-1.8-1.77-3.54-.91-5.67,2.36-5.86,1.27-12.25,2.66-18.18,1-4.28.7-7.67-2-11-3.86-4.74-3.55-10.81-2.71-15.9,1.1-6.72-.12-12.29-3.73-17.5-1.65-2.4-2.81-4.44-1.57-7.25-.76-2.12-.75-4.6-3-6-1.09-.72-3-1.57-3-2.34.07-4.47-6.3-7-3.08-12.6,3.12-5.4-9-3.44-5.45-9.79-.74-1.09-1.47-2.19-2.2-3.3-1.42-.18-2.8-1-3.06-2.18-1.3-6.12-2-12.46-8.26-16,1-4.83-1.31-7.33-5.77-8.64-.48-.15-.72-2.49-.42-3.64,1-3.59.62-6-3.93-5.59-1,.07-2.34-.17-2.18-1.35.74-5.19-5-7.77-4.92-12.6-.55-1-1.1-2-1.64-3-1.84-.09-3.57-1.1-3.71-2.7-.39-4.39-2.57-7.28-6.2-9.45-2.45-1.47-2.62-3.58-1.22-5.92a.89.89,0,0,1-.73-.73c-1.82.91-4.37,1.93-5.61.63-8.71-9.17-20.64-14.84-27.76-25.66-.63-1-.31-2.54-.42-3.82-2.23-2.81-5-4.55-8.72-4.38-8.12-1.29-9-2-9.4-7.66-.15-.88-.29-1.77-.43-2.66-7.25,1.23-14-.51-19.05-5.54-2.54-2.52-5.84-.78-7.85-3.14-3.29-.36-6.59-.79-9.89-1.09-2-.18-4.33-.14-4.82-2.55-.82-4-3.23-4.39-6.63-3.83-2.62.43-5.61.67-7.56-1.48-4.24-4.72-9-2.37-13.61-1.27-1.44.35-2.71,2.23-4.39,1.13-3.45-2.26-6.73-4.7-10.63-.82-5.6,5.59-5.14-4.21-8.81-3.5-1.61.32-3.6.27-4.72,1.21-3.69,3.11-8.6,3.42-12.54,6-3.09,2-6,2.82-9.75-.3-5.36-4.42-12.05-.5-18.1-.47-3.81,0-6.35,4.3-7.77,8.27-.8,2.25-3.38,3.43-4.74,2.15-3.4-3.18-5.82-2-8.35.69s-5.66,2.12-8.23.57c-3.37-2-5.14-.33-7.63,1.61-7.74,6-16.52,10.53-24.81,15.7-4,2.48-8,4.66-10.72,8.37-6.35,8.73-13.2,16.91-16,28.08-1.58,6.22-4.11,12.26-4.69,18.82-.14,1.62-.3,3.65-1.29,4.72-4.64,5.07-3.22,10.39-1.34,15.92,3,8.79,3.36,18.15,5.44,27.17a44.54,44.54,0,0,1,0,19.24c-1.36,6.15-.88,13.27,2.35,19,2.43,4.35,6.83,7.68,1.65,12.83-.32.31.29,1.86.77,2.65,3.21,5.28,4.53,10.83,3,17a3.35,3.35,0,0,0,.48,2.79c5.1,4.33,3.36,9.64,1.9,14.62-.72,2.46-.94,4.76.25,6.7,4,6.43,3.14,13.36,2.41,20.23-.18,1.7-1,3.09.94,4.15,4.74,2.58,5.5,5.49.83,9a3,3,0,0,0-.8,3.67c4.61,10.38-1.85,22.44,5,32.46-2.32,10,1.81,19.33,2.45,29,.46,7.09,1.32,13.6,5,19.92,2.08,3.56,2.65,8,2.73,12.51.25,12.72-3.19,25.2-1.9,38,.67,6.55-2.43,13-1.25,19.67,2.18,12.29-1.31,24.85,1.84,37.1a4.15,4.15,0,0,1-.35,2.88c-3.73,6.29-1.91,13.68-4.09,20.27,11.83-4.29,23-10.13,34.3-15.48,6.14-2.88,12.16-6.56,19.54-3.72,1.22.47,3.27-.47,4.64-1.28,10.6-6.25,22.62-7.33,34.23-10.16,5.16-1.26,9.53-3.86,15-1,1.36.71,3.89-.48,5.76-1.12,9.51-3.29,19.84-1.68,29.33-5,13.69,4.49,27.24-.53,40.85-.73a235.65,235.65,0,0,0,36.2-3.27c8.3-1.42,17,1.94,25.21-1.58,1.82-.77,3.12.37,4.31,1.63.93,1,2.2,2.19,3.43,1.55,7.31-3.78,15.07,0,22.51-1.53,3.81-.79,8-2.1,10.51,2.78,1.45,2.81,2.5-.4,3.66-.37,4.19.12,7.75-3,12.41-1.36,6.24,2.17,8.86,4.83,8.29,11.26a21.46,21.46,0,0,1-1.07,3.83c-1.24,4.26,4.42,10.86-1.2,12.54-6.88,2.05-14.67,5-22.24,1.08-1.14-.59-2.1-1.73-3.6-1.12a42.13,42.13,0,0,1-31.69.49,1.47,1.47,0,0,0-1.74.15c-10.75,8.17-23.93,4.73-35.86,7.34-5.1,1.12-10.46,2-15.62-.48-1.58-.76-3.18,0-4.82.43a69.76,69.76,0,0,1-18.44,2.19,139.69,139.69,0,0,0-15.95,1.52c-12.8,1.61-25.62,1.66-38.43,2.45-5.83.36-12.16.65-17.78,3.71a24.27,24.27,0,0,1-13.51,2.75c-8.78-.61-17.1,1.72-25.32,4.39-5.05,1.65-9.6,9.79-8,15.34,2.26,7.86.93,14.31-4.92,20.09a9,9,0,0,0-2.74,9.09c1.66,6.27.5,12.47-.35,18.79-.6,4.49-3.23,10,2.37,13.62a1,1,0,0,1,.37.85c-4.48,13,10.28,22.12,7,35-.69,2.7,1.35,5.88,3.62,7.93a19.39,19.39,0,0,1,5.61,9.28c.73,2.56,2.27,3.41,4.61,4.45,5.28,2.36,5.51,7.33,1,11.14-1.53,1.27-3,3.29-4.75,3.52-14.42,1.92-26.4,12.88-41.87,11.06a19,19,0,0,0-12.31,3.29,45.1,45.1,0,0,1-22.28,7.49c-8.07.68-15.35,4.11-22.94,6.55-11,3.57-22.6,5.41-33.93,7.67a44.72,44.72,0,0,0-18.67,8.51c-7,5.43-14.21,10.71-21,16.49-2.61,2.23-3.89,4.48-3.2,7.72.81,3.82,3.91,3.9,7,4.21,9.39.94,18.48-1.6,26.68-5,7.47-3.11,15.22-3.64,22.34-3.54,8.23.12,15.5-6.29,23.92-2.51,1.1.49,3.09-.89,4.63-1.49a48.26,48.26,0,0,1,18.43-3.61c6.66.1,13.33-1.43,18.77-5.63,5.2-4,11.16-5.76,17.36-7.08,4-.86,8.81.48,11.22-4.64.73-1.55,2.28-.63,3.28.35,1.86,1.82,3.66,1.19,5.26-.26,2.21-2,4.73-2.08,7.48-1.84,11.29,1,17.42-2.58,21.65-12.56.38-.89.46-2.52,1-2.63,7.69-1.82,4.37-7.24,2.6-14.06,5.31,5.46,8.27,5.07,10.65.28,1.92-3.89,4.62-3,7.07-.31,2.77,3.09,6.22,3.45,10.06,2.83,2.88-.46,5.74-1.42,8.54.91,2.38,2,5.29,1,7.49-.5,4.74-3.15,9.66-2.62,15.05-2.67,13.16-.14,26.22.84,39.32,1.41.65,0,1.39.53,1.93.34,12.87-4.59,26-.46,39-1.46,10.38-.8,20.35,2.78,30.7,2.12,13.81-.87,27.68-.13,41.47-.57,10.12-.33,20.09-3.91,30.23-5.39,8-1.18,16.65-3.34,24.13-1.49,8.15,2,15.69-.54,23.56.15s16.44,1.93,24.25-1.82c11.54,2.78,22.74-2.89,34.43-1.16,6.35.93,13.27-.54,19.71-2,10.17-2.23,20.41-1.91,30.64-2.16a11.51,11.51,0,0,0,5.64-1.68c9.38-5.53,19.67-4,29.75-4,5.7,0,8.31,3.23,7.27,8.91-1.49,8.15-6.8,14.26-11.39,20.73a4.18,4.18,0,0,1-2.5,1.55c-16.45,2.57-32.53,8.71-49.6,5.13-1.94-.41-4.22-1.84-5.77-.58-6.1,5-13.3,3.47-20.14,3.8-15.13.74-30,4.69-45.29,3.6-9.27-.66-18.59-.64-27.86-.86-14.86-.35-29.88-2-44.61.88-7.41,1.48-14.46,5.49-22.26,3.56-11.59-2.87-23.37,3.28-34.84-1.13-10.89,3.41-21.89-2.5-33.28,1.18-6.69,2.17-15.11-.37-22.64-1.55-12.09-1.89-23.76,2.4-35.72,1.78-8.91-.47-17.95,1.57-26.72-1.59-.83-.3-2.33-.3-2.8.21-6.24,6.81-14,4.14-21.36,3.52a87.39,87.39,0,0,0-24.27,1.8c-11.26,2.31-19.37,11.3-23.29,22.63-2.81,8.12-4.4,16.66-8.08,24.51-.55,1.17-1.14,2.74-.79,3.82,2.58,8-1,15.48-2,23.1-.64,5.11,1.44,9.63,1,14.69-.44,5.45,1.93,11.09-.47,16.66a3.06,3.06,0,0,0,.37,2.8c5,4,2.17,8.78.73,12.75s-.7,6,2.14,8.6c5.17,4.69,10.05,9.71,14.94,14.71,2.08,2.12,4.57,4.11,5.28,7.14.63,2.76.34,5.92-3.4,5.66-3.27-.23-5.84,2.08-8.48,2-8-.2-15.64,2.67-23.71,2.31-9.75-.44-19.56-1.41-29.33.9-10.89,2.58-22,2.74-33.21,2.61-5.37-.06-10.93-.73-16.33,2.15-4.54,2.42-10.36,1.63-15.34,2-11.35.92-21.72,4.81-32.5,7.41a8.28,8.28,0,0,0-4.31,2.33c-3.6,3.8-2.69,7,2.59,8,3,.59,5.94,1.13,8.28,3.15,2.5,2.15,5.48,2.5,8.45,2.35,11.59-.6,23.09,1.83,34.69.8,4.26-.38,8.41.43,10.73-5,.94-2.2,5.15-4.6,5.77,1.36.26,2.51,1.73,3.13,4,3.46,13.12,2,26.12.19,39.14-1,2.7-5.84,5.79-2.47,9.05-.55,1.66,1,3.78,1.72,5.76.84,7.8-3.45,16.2-1.88,24.29-2.81a18.49,18.49,0,0,0,10.51-4.79,69.21,69.21,0,0,0,16.67-20.61c2.92-5.5,6.11-6.2,10.73-1.62,3.46,3.43,6.93.89,10.18,2,7.74,2.7,15.63,1.57,23.52,1,3.44-.26,7.05-2.89,10.39.5a1.86,1.86,0,0,0,1.81.15c8.64-6.57,17-2.07,25.73,0,4.23,1,9.25-.38,13.65-1.62a36.53,36.53,0,0,1,13.79-1.06c3.25.32,6.68.37,9.8-1.13a12.77,12.77,0,0,1,8.81-.79c8.11,2.41,15.71-.15,23.47-1.3,6.63-1,13.3-.41,19.93-.8,11.82-.69,23.74.88,35.48-1.74a10.2,10.2,0,0,1,5.88.17c6.35,2.74,12.83.86,19.12.61,10.13-.41,20.24-1.91,30.3-3.31,7.93-1.11,13.33,2.45,17.76,9.35,5.57-12.27,16.11-9.16,25.24-9.27a61,61,0,0,0,10.07-.87c9.55-1.67,19.53-.47,29.19-2.59,3.4,4,7.3,3.72,11.63,1.59,1.62-.79,3.21,0,4.36,1.47s2.65,2.66,4.26,1.89c9.48-4.5,19.85-2.14,29.69-4,5.07-1,10.56,2.81,15.79-1,1.29-.94,2.93,1,4.26,2,3.39,2.5,6.92,3.14,11.26,2.31,5.19-1,10.33,1.65,16.38.57-1,1.39-2.93,14.37-2.57,15.33,1.68,4.47-.48,6.21-4.54,6.66a11.82,11.82,0,0,0-7.65,4.22c-7.68,8.49-15.72,10.31-26.09,5.93a5.22,5.22,0,0,0-5.36.28c-5.59,3.08-11.45,2.8-18.05,2.11-16.58-1.73-33.41-2.61-50.06-.45a53.1,53.1,0,0,1-16.67-.76c-11.57-2.14-22.93-1.65-34.39,0-1,.14-2.22.63-2.94.24-6.92-3.76-13.65.24-20.44.18s-13.72-1.64-20.7-1.79c-9.18-.21-18.31,1.27-27.6-1.44-6.28-1.83-12.32,3.9-19,4.15-1.58.07-3.63,1.59-4.75.42-5.3-5.55-11.46-2.74-16.75-1.17-4.64,1.39-8.39-1.25-12.68-.52-12.63,2.15-25.75-.37-38.18,3.9a4.08,4.08,0,0,1-2,.26c-14.75-2.88-29.67,2.81-44.38-.92a9.72,9.72,0,0,0-7.69,1.12c-4.09,2.53-8.51,2.42-12.58,1.23-9.21-2.7-18.33-2.84-27.83-1.86a33.17,33.17,0,0,1-13.67-1.78c-6-2-10.93-.52-14.5,5.16-3.17,5-7.33,9.4-11.12,13.93-5.79,6.92-6.87,14.77-7.39,23.07-.42,6.62,0,13.29-1.76,19.83-2,7.18,1.54,14.2.71,21.57-1.46,12.81-1.7,25.69,1.18,38.54.89,4,1.55,7.42,4.38,10.64,4.79,5.46,4.56,5.74,5.31,12.52-2.6,1.55-3.55-2.68-5.81-1.86-10.77,3.93-21.47.36-32.2-.28-3-.17-6.13-.42-8.78,1.24-11.81,7.45-24.76,5.11-37.52,4.55-8.85-7.27-17.79-.76-25.73,1.31-11.05,2.89-22.27,2.81-33.26,5-6.18,1.21-12.48,1.74-18.46,3.94-2.62,1-5,2.16-5.4,5.22-.43,3.56,2.82,4.06,5,5.33a4.84,4.84,0,0,0,2.83.87c7.92-1.24,14.44,4.78,22.23,4.17,3.78-.3,7.05,1.82,10.62,2.54,4,.8,8.15,3.28,11.93-.29,1.57-1.49,1.94.07,3,.48a41.65,41.65,0,0,0,16.38,3.27c11-.24,21.79,1.67,32.55,3.74,1.94.38,4.37,1,5.89.22,7.8-4.07,16.25-.09,24.1-2.33a8.05,8.05,0,0,1,5.67.58c8,3.28,9.31,3.06,13.15-4.7,2-4.08,3.73-7.33,8.55-8.69,2.26-.64,4.28-3.23,5.73-5.4,5.1-7.57,12.44-8.37,20.2-6.42,4.1,1,7.79.2,11.72.13,20.18-.31,39-8.94,59-9.72,1.29,0,2.64-.72,3.84-.49,10.71,2.09,10.58,1,23.43-.37a112.74,112.74,0,0,1,23.39-.38c8.76.93,17.19-1.21,25.64-2.22,10.48-1.25,20.92.54,31.27-.94,13.25-1.9,26.54-1.49,39.85-1.3,7.61.12,15-2.81,22.8-1.58,3.92.62,8,.2,11.65,2.19a5.44,5.44,0,0,0,5.56-.09c6.39-3.16,13.4-2.76,20.34-3,9-.38,17.73,1.43,26.55,2.65a14.57,14.57,0,0,0,6.87-.88,12.77,12.77,0,0,1,8.82-.34c5.27,2,10.38,1.41,15.63,0a23.57,23.57,0,0,1,6.92-.54c12.44.51,24.88,1.72,37.31,1.56,11-.15,22.61,1.12,32.43-6.12,1.12-.83,2.71-1.41,3.68-.45,3.66,3.64,9,4.28,12.86,7.24,3.59,2.71,2.83,9.18-1.08,11.72-7.47,4.85-15.07,9.41-20,17.3-2,3.15-5.21,5.12-9.48,3.3a13.08,13.08,0,0,0-10.67.36c-3.46,1.49-7.2,1-10.86,1-5,0-10-.53-14.87,1.11-1.22.41-2.89.8-3.91.29-8.64-4.32-17.17-2.55-25.74.14-6.22,2-8.92-2.53-11.8-7.62-4.26,8.76-11.88,4.23-17.61,5.21-6.26,1.07-13.24,4.21-20.24-.2-2-1.28-6.18,3.07-10.15,2.55-4.71-.63-10.34,4.11-14-2.58-.26-.47-2.11-.64-2.78-.23-8.31,5.16-17.92,1.85-26.86,4-6.84,1.64-15.22.22-22.47-1.29-8.81-1.85-17,1.07-25.59.51-16.75-1.09-33.34,2.74-50.15,2.58-6.26-.06-12.53-.52-18.77-.68-12.27-.31-23.72,5-36.05,4.15-10.95-.76-21.76,1-32.62,3.07-5.75,1.08-12.23-1.38-18.32-2.58-1.92-.38-4-1.91-5.7-.72-9.15,6.44-18.69,1.81-27.84.73-11.18-1.33-10.92-1.94-17.42,8.08-4.13,6.37-6.63,13-5.62,20.63.13,1,.43,2.17,0,3-4.29,9-.41,19-3.65,28.12a12.91,12.91,0,0,0-.3,5.94c1.43,9.8,3,19.56,4.58,29.34.34,2.12,1.94,3.35,3.27,4.85,2,2.21,4.48,4.5,5.2,7.18,2.43,9,10.54,14.11,14.17,22.3,1.29,2.92,3.36,6.55,7.68,7.27a3.7,3.7,0,0,1,3,3.59c-.94,9.12,7.15,11.26,12.33,13.31,7.39,2.92,10.67,9.71,16.77,13.53,2.65,1.65,1.07,4-.55,6-5.7,6.78-13.42,6.33-21,5.54-7.22-.76-14.37-2.38-21.65-.61l-.15,2.64c3.06,2.91,7,2.52,10.4,1.77,5.91-1.32,11.86-1.41,17.8-2,6.59-.68,13.24-.21,19.76-.94,13.82-1.53,27.49-2,41.4-.4,6.34.73,13.22,2.67,19.58.15,3.75-1.49,7-1.63,10.51,0,2.92,1.33,5.88.43,8.84,0,4-.62,8-.75,11.77.95,2.83,1.26,5.72.92,8.75.85,9.14-.21,18.35-.46,27.41-.25,15.77.37,31.46,2.55,47.37,1.59,13-.78,26-2.94,39-.21a21.89,21.89,0,0,0,8.94-.1c13.32-3,27-2,40.44-4,13.69-2.06,27.69-2.1,41.46-3.92,6.88-.9,13.71-1.77,20.69-2s14.21-1.09,21-4.29c8.52-4,16.9-8.45,26.79-9.32,5-.43,10.47-2.23,14.4-6.07,6.72-6.56,15.07-9.13,24-10.32,2.24-.3,4.48-1.32,4.44-3.24-.13-7.25,5.93-9.89,10.32-12.22,10.28-5.47,16.15-15.23,24.48-22.5,2-1.76,3.83-3.81,4.38-6.48,2.51-12.21,9.94-23.06,9.76-36.05-.05-3.61.89-7.23,1.43-10.84.76-5.07,5.41-10.47-1.29-14.89,2.12-5.56-2.85-10-2.18-15.82.73-6.28-3.21-12.76-2.09-19.59.22-1.32-1.13-2.26-2.28-3-8.3-5.5-12.71-15.26-22-19.77-4.07-2-4.57-5.41-.84-8.77,1.46-1.31,2.51-3.52,4.17-4.09,4.51-1.54,6.57-5.44,9.37-8.63,9.7-11,15.82-24.4,23.65-36.65,3.19-5,5.38-10.81,2.27-17a6.91,6.91,0,0,1-.68-4.82c2.24-9.53,6.12-19,1.91-29,3-6.9-1.91-11.47-4.61-16.9-3.14-6.32-8.9-11.81-7.33-20a4.74,4.74,0,0,0-1.28-3.61c-8.74-8.93-13.05-21.74-24.85-28.05-3.15-1.68-4.84-5.22-2.44-8.52,3.22-4.42,5.94-9.87,12.62-10.14,2.17-6,7.18-3.31,11.2-3.64l1.91-1.49a11.13,11.13,0,0,1,5.32-9.19c.42-.75.85-1.5,1.27-2.26l12.08-18.92c.23-2.88.45-5.75.67-8.63-.8-2.76.29-3.68,3-3l2.43-1.27c-1-10.62-.43-20.89,5.86-30.12C2480.34,1008.4,2481.48,1005.94,2478.34,1003.11Zm-468.2-433.55c-3.35,13.46-7.46,26.73-11,40.14-2.81,10.59-9.44,18.87-16,27.17-2.05,2.57-5.09,4.76-8.68,3.52s-3.22-4.71-3.35-7.66a62.45,62.45,0,0,1,11.47-39.25c7.23-10.37,12.24-21.91,18.31-32.89,1.74-3.15,2.85-6.65,5.33-9.38C2013.51,556.1,2011.74,563.13,2010.14,569.56Zm15.06-305c-.4.82-.71,1.74-2.06,1.8a12.21,12.21,0,0,1-.27-2.65c.1-.93.48-2.13,1.67-1.92C2026.51,262.09,2025.73,263.42,2025.2,264.52Zm38.69,292.08c-.81,12.16-.48,24.48-3.85,36.42-1.21,4.29-3.65,7.32-6.61,10.6-2.6,2.88,1.11,8.23-1.73,12-3.9,5.23-5.13,12.35-11.74,15.69-5.76,2.92-7.25,2.12-7.84-4.17-1.41-15.25,2.56-29.33,8.71-43,4.34-9.63,6.46-20,10-29.91,1.73-4.8,1.58-10.65,7.51-13.24,3.19-1.4,5.27-1.21,5.47,2.63C2064.06,548,2063.89,552.28,2063.89,556.6Zm44.42,21.91c-2.91,9-4.82,18.54-10.8,26.34-1.22,1.58-2.13,3.6-3.69,4.67-3.3,2.26-7.46,3.7-11,1.81-3-1.6-1.79-5.47-1-8.28a34.82,34.82,0,0,0,1.23-10.86,18.31,18.31,0,0,1,2.16-9.66c8.59-15.27,10.29-32.48,14.35-49,1.2-4.91,1.26-9.88,1.53-14.86.24-4.18-.55-8.73,4.5-11.26,1.86-.94,2.16-3.33.4-5.12-1.17-1.19-2.63-2.19-2.67-4-.06-3.12.71-6.35,3.75-7.44,3.24-1.16,4.47,2,5.72,4.33a7.91,7.91,0,0,1,1,2.78c.84,9.24,1.59,18.48,2.35,27.49C2114.48,543.41,2113.83,561.38,2108.31,578.51Z" style="fill:#f4bb19;"/><path d="M1850.55,727.72c11.83-4.28,23-10.12,34.31-15.47,6.13-2.89,12.15-6.56,19.54-3.72,1.22.47,3.27-.48,4.64-1.28,10.6-6.25,22.63-7.33,34.23-10.17,5.16-1.26,9.53-3.85,15-1,1.36.71,3.89-.47,5.76-1.12,9.51-3.28,19.84-1.68,29.33-5,13.68,4.49,27.23-.53,40.85-.73a235.29,235.29,0,0,0,36.19-3.27c8.31-1.42,17,1.94,25.22-1.58,1.82-.78,3.12.37,4.31,1.62.93,1,2.2,2.19,3.43,1.56,7.31-3.78,15.07,0,22.5-1.53,3.81-.79,8-2.1,10.51,2.78,1.45,2.81,2.5-.4,3.66-.36,4.19.12,7.75-3,12.42-1.36,6.24,2.17,8.86,4.83,8.28,11.25a21.15,21.15,0,0,1-1.07,3.83c-1.24,4.26,4.42,10.86-1.19,12.54-6.88,2.05-14.67,5-22.24,1.08-1.14-.59-2.11-1.74-3.61-1.12a42.17,42.17,0,0,1-31.69.49c-.76-.28-1.11-.34-1.74.14-10.75,8.17-23.93,4.73-35.86,7.34-5.11,1.12-10.46,2-15.63-.48-1.58-.76-3.18,0-4.82.44a69.56,69.56,0,0,1-18.45,2.19,140.2,140.2,0,0,0-15.94,1.52c-12.81,1.61-25.63,1.66-38.44,2.45-5.82.36-12.16.65-17.77,3.72a24.33,24.33,0,0,1-13.51,2.74c-8.78-.61-17.11,1.73-25.32,4.4-5,1.64-9.6,9.78-8,15.34,2.27,7.86.94,14.31-4.92,20.08a9,9,0,0,0-2.74,9.09c1.66,6.27.5,12.47-.35,18.79-.6,4.49-3.24,10,2.37,13.62a1,1,0,0,1,.37.86c-4.49,13,10.28,22.11,7,35-.69,2.7,1.34,5.88,3.62,7.93a19.33,19.33,0,0,1,5.61,9.27c.73,2.57,2.26,3.41,4.61,4.46,5.28,2.36,5.51,7.33.94,11.13-1.53,1.28-3,3.29-4.75,3.52-14.42,1.92-26.4,12.89-41.87,11.06a19,19,0,0,0-12.31,3.29,45.1,45.1,0,0,1-22.29,7.49c-8.06.67-15.35,4.1-22.93,6.55-11,3.56-22.6,5.41-33.94,7.66a44.76,44.76,0,0,0-18.66,8.51c-7,5.44-14.21,10.71-21,16.5-2.61,2.23-3.88,4.47-3.19,7.72.81,3.82,3.9,3.9,7,4.2,9.4.94,18.48-1.6,26.69-5,7.46-3.12,15.22-3.64,22.34-3.54,8.22.12,15.5-6.3,23.92-2.52,1.1.49,3.09-.88,4.63-1.48a48.15,48.15,0,0,1,18.43-3.61c6.66.09,13.33-1.43,18.77-5.64,5.2-4,11.16-5.75,17.36-7.07,4-.86,8.82.48,11.22-4.64.73-1.55,2.28-.63,3.28.34,1.86,1.82,3.66,1.19,5.27-.26,2.2-2,4.73-2.08,7.48-1.84,11.29,1,17.42-2.59,21.65-12.57.37-.88.46-2.51,1-2.63,7.69-1.81,4.38-7.23,2.6-14.05,5.31,5.45,8.27,5.07,10.65.28,1.93-3.89,4.62-3,7.07-.31,2.77,3.09,6.22,3.45,10.06,2.83,2.88-.47,5.74-1.42,8.54.91,2.38,2,5.3,1,7.49-.5,4.74-3.15,9.66-2.62,15.05-2.68,13.15-.14,26.22.84,39.32,1.42.65,0,1.39.53,1.93.34,12.87-4.59,26.05-.46,39-1.46,10.38-.8,20.34,2.78,30.7,2.12,13.81-.87,27.68-.13,41.47-.57,10.12-.33,20.09-3.9,30.22-5.39,8-1.18,16.66-3.34,24.13-1.49,8.15,2,15.69-.54,23.56.15s16.44,1.93,24.25-1.82c11.54,2.78,22.74-2.89,34.43-1.16,6.35.94,13.28-.54,19.72-2,10.16-2.23,20.4-1.91,30.64-2.16a11.44,11.44,0,0,0,5.64-1.68c9.38-5.53,19.67-4,29.75-4,5.7,0,8.31,3.23,7.27,8.91-1.5,8.15-6.8,14.27-11.39,20.74a4.19,4.19,0,0,1-2.51,1.54c-16.44,2.57-32.53,8.72-49.59,5.13-1.94-.41-4.22-1.84-5.77-.58-6.11,5-13.31,3.47-20.14,3.8-15.14.73-30,4.68-45.3,3.6-9.26-.66-18.59-.64-27.86-.86-14.85-.35-29.88-2.05-44.6.88-7.41,1.48-14.47,5.49-22.27,3.56-11.58-2.87-23.37,3.28-34.84-1.13-10.89,3.41-21.89-2.49-33.27,1.18-6.7,2.16-15.12-.38-22.64-1.55-12.09-1.89-23.76,2.4-35.72,1.78-8.91-.46-18,1.57-26.72-1.59-.83-.3-2.33-.3-2.8.21-6.24,6.81-14,4.14-21.36,3.52a87.34,87.34,0,0,0-24.27,1.8c-11.26,2.31-19.37,11.3-23.29,22.63-2.81,8.12-4.4,16.66-8.08,24.51-.55,1.16-1.14,2.73-.79,3.82,2.58,8-1,15.48-2,23.1-.65,5.11,1.44,9.63,1,14.69-.44,5.45,1.92,11.08-.47,16.65a3.07,3.07,0,0,0,.37,2.8c5,4,2.17,8.78.73,12.74s-.7,6,2.14,8.6c5.17,4.7,10.05,9.72,14.94,14.72,2.07,2.12,4.57,4.11,5.27,7.14.64,2.75.34,5.92-3.39,5.66-3.28-.23-5.85,2.08-8.49,2-8-.2-15.63,2.67-23.71,2.31-9.75-.44-19.56-1.41-29.32.9-10.9,2.58-22,2.74-33.21,2.61-5.37-.06-10.94-.73-16.33,2.15-4.54,2.42-10.36,1.63-15.34,2-11.35.91-21.72,4.81-32.51,7.4a8.36,8.36,0,0,0-4.31,2.34c-3.59,3.8-2.69,7,2.59,8,3,.59,5.94,1.13,8.28,3.14,2.5,2.15,5.49,2.51,8.45,2.35,11.59-.6,23.09,1.83,34.69.8,4.25-.38,8.4.43,10.72-5,.94-2.2,5.15-4.6,5.77,1.36.26,2.52,1.73,3.13,4,3.47,13.12,2,26.12.19,39.15-1,2.7-5.84,5.78-2.47,9-.55,1.67,1,3.78,1.72,5.76.85,7.8-3.45,16.21-1.89,24.3-2.82a18.47,18.47,0,0,0,10.5-4.78,69.12,69.12,0,0,0,16.68-20.62c2.92-5.5,6.11-6.2,10.73-1.62,3.46,3.43,6.93.89,10.18,2,7.73,2.7,15.63,1.56,23.52,1,3.45-.27,7.06-2.89,10.39.5a1.88,1.88,0,0,0,1.82.15c8.63-6.58,17-2.07,25.73-.05,4.22,1,9.24-.39,13.64-1.62a36.42,36.42,0,0,1,13.79-1.06c3.26.32,6.69.37,9.81-1.13a12.78,12.78,0,0,1,8.81-.79c8.12,2.41,15.72-.15,23.47-1.31,6.63-1,13.3-.41,19.93-.8,11.82-.69,23.74.88,35.48-1.74a10.22,10.22,0,0,1,5.88.17c6.34,2.74,12.83.86,19.12.61,10.13-.4,20.23-1.9,30.3-3.31,7.93-1.11,13.33,2.46,17.76,9.35,5.57-12.27,16.11-9.16,25.24-9.27a60.43,60.43,0,0,0,10.07-.87c9.55-1.67,19.53-.47,29.18-2.6,3.4,4,7.31,3.72,11.63,1.6,1.62-.8,3.22,0,4.36,1.47s2.65,2.65,4.26,1.89c9.48-4.5,19.85-2.14,29.69-4,5.07-1,10.55,2.81,15.78-1,1.3-.94,2.94,1,4.26,2a13.4,13.4,0,0,0,11.26,2.31c5.19-1,10.33,1.65,16.38.57-1,1.39-2.93,14.37-2.57,15.33,1.68,4.47-.48,6.21-4.54,6.67a11.81,11.81,0,0,0-7.66,4.22c-7.68,8.49-15.72,10.31-26.08,5.93a5.22,5.22,0,0,0-5.36.28c-5.59,3.09-11.45,2.81-18.05,2.12-16.58-1.73-33.41-2.61-50.06-.45a53.3,53.3,0,0,1-16.67-.76c-11.57-2.14-22.92-1.65-34.39,0-1,.14-2.22.63-2.94.23-6.92-3.76-13.65.24-20.44.18s-13.72-1.64-20.7-1.79c-9.17-.2-18.3,1.28-27.59-1.43-6.29-1.83-12.32,3.89-19,4.15-1.58.06-3.63,1.58-4.75.41-5.3-5.55-11.47-2.74-16.75-1.16-4.64,1.38-8.39-1.25-12.68-.52-12.63,2.15-25.75-.37-38.18,3.9a4,4,0,0,1-2,.26c-14.75-2.88-29.67,2.81-44.38-.92a9.72,9.72,0,0,0-7.69,1.12c-4.08,2.53-8.51,2.42-12.57,1.23-9.22-2.69-18.34-2.84-27.83-1.86a33,33,0,0,1-13.67-1.78c-6-2-10.93-.51-14.5,5.16-3.17,5-7.33,9.4-11.12,13.93-5.79,6.92-6.87,14.77-7.4,23.07-.42,6.62,0,13.29-1.75,19.83-2,7.18,1.54,14.2.7,21.57-1.45,12.81-1.7,25.69,1.18,38.55.9,4,1.55,7.42,4.38,10.64,4.8,5.46,4.56,5.74,5.31,12.52-2.6,1.55-3.55-2.68-5.81-1.86-10.77,3.93-21.47.36-32.2-.27-3-.18-6.14-.43-8.78,1.24-11.82,7.45-24.76,5.11-37.52,4.55-8.85-7.27-17.79-.76-25.73,1.31-11.05,2.88-22.27,2.8-33.26,5-6.18,1.21-12.48,1.74-18.45,3.94-2.62,1-5,2.16-5.41,5.22-.42,3.56,2.82,4.06,5,5.33a4.91,4.91,0,0,0,2.83.88c7.92-1.24,14.44,4.77,22.23,4.16,3.78-.3,7.05,1.83,10.62,2.54,4,.8,8.15,3.28,11.93-.3,1.57-1.49,1.94.07,3,.49a41.89,41.89,0,0,0,16.39,3.27c11-.24,21.79,1.67,32.55,3.74,1.94.37,4.37,1,5.89.22,7.8-4.07,16.24-.09,24.1-2.33a8,8,0,0,1,5.67.58c8,3.28,9.3,3.06,13.15-4.7,2-4.08,3.73-7.32,8.54-8.69,2.26-.64,4.28-3.23,5.74-5.39,5.1-7.58,12.43-8.37,20.2-6.43,4.1,1,7.8.2,11.72.14,20.19-.32,38.95-8.95,59-9.72,1.29,0,2.64-.72,3.84-.49,10.71,2.09,10.58,1,23.43-.37a112.79,112.79,0,0,1,23.39-.38c8.76.94,17.19-1.21,25.64-2.22,10.48-1.25,20.92.55,31.27-.94,13.26-1.9,26.54-1.49,39.86-1.3,7.6.11,15-2.82,22.8-1.58,3.91.62,8,.2,11.64,2.19a5.44,5.44,0,0,0,5.56-.09c6.4-3.16,13.41-2.75,20.35-3,9-.38,17.73,1.43,26.54,2.64a14.5,14.5,0,0,0,6.87-.88,12.87,12.87,0,0,1,8.83-.34c5.27,2,10.38,1.42,15.63,0a23.69,23.69,0,0,1,6.92-.54c12.44.51,24.88,1.73,37.31,1.56,11-.15,22.61,1.13,32.43-6.11,1.12-.83,2.72-1.42,3.69-.45,3.66,3.64,8.95,4.28,12.86,7.24,3.58,2.71,2.83,9.18-1.08,11.72-7.47,4.85-15.06,9.41-20,17.3-2,3.15-5.21,5.12-9.48,3.3a13.08,13.08,0,0,0-10.67.36c-3.46,1.49-7.2,1-10.86,1-5,0-10-.53-14.87,1.11-1.22.41-2.89.8-3.91.29-8.65-4.33-17.18-2.55-25.74.14-6.22,2-8.92-2.53-11.8-7.62-4.27,8.76-11.89,4.23-17.61,5.21-6.26,1.07-13.24,4.21-20.24-.2-2-1.28-6.18,3.07-10.14,2.55-4.71-.62-10.34,4.11-14-2.58-.26-.47-2.11-.64-2.78-.23-8.31,5.16-17.92,1.85-26.87,4-6.84,1.65-15.22.23-22.46-1.29-8.81-1.85-17,1.07-25.6.51-16.74-1.09-33.33,2.74-50.15,2.58-6.26-.06-12.53-.51-18.78-.67-12.27-.31-23.71,5-36,4.14-10.95-.75-21.76,1-32.62,3.07-5.75,1.09-12.24-1.37-18.32-2.57-1.92-.38-4-1.92-5.7-.72-9.15,6.44-18.69,1.81-27.84.73-11.18-1.32-10.92-1.94-17.42,8.09-4.13,6.37-6.64,13-5.62,20.62.13,1,.43,2.17,0,3-4.29,9-.41,19-3.65,28.12a12.91,12.91,0,0,0-.3,5.95c1.43,9.79,3,19.56,4.59,29.34.34,2.12,1.94,3.35,3.27,4.85,2,2.21,4.47,4.5,5.2,7.18,2.43,9,10.54,14.11,14.16,22.3,1.3,2.93,3.37,6.56,7.68,7.27a3.7,3.7,0,0,1,3,3.6c-.94,9.11,7.15,11.26,12.33,13.3,7.39,2.92,10.67,9.72,16.78,13.53,2.65,1.65,1.06,4-.55,6-5.7,6.79-13.42,6.34-21,5.54-7.22-.76-14.37-2.37-21.65-.61-4.32-2.66-10.68-2.24-13.19-.63-6.23,4-9.78,1-14.09-2-2.79-2-5.51-3.41-9.19-1.8-3.35,1.48-7.28-.33-10.78,1.31-1.64.76-3.08.23-4.33-1.27-5.85-7-12.29-5.47-18.47-.88-2.38-1.69-.88-6.6-3.18-5.78-5.44,1.92-9.63-4.71-15-1.22-1.75,1.13-4.49.19-6.79-.5-6.3-1.88-6.32-1.75-14.17,0a5.57,5.57,0,0,1-2.83-.65c-3.33-1.26-6.44-.22-9.73.43-6.61,1.3-13.23,1.92-18.11-4.46-2.12-2.76-4.89-2.78-8.07-1.6-3.79,1.41-6.6.2-7.23-4.13-.38-2.59-1.45-3.65-3.92-2.33s-3.69.52-4.5-1.85c-.63-1.85-1.59-2.53-3.68-1.58-8.75,4-15.8,2.41-22.13-5.43-3.58-4.44-7.81-9.07-14.22-10.2-2.05-.36-4.26-2.12-3.42-4.1,1.76-4.16-.56-4.66-3.49-6.24-4-2.17-7.46-5.47-11-8.41-2.73-2.24-4.4-5-3.1-8.74,3.56-10.18-3-18.09-7.35-25.57a34.81,34.81,0,0,1-4.88-16.58c-.46-12.79,3.75-25.31,3.53-38.22,0-2.84,1.44-5.71,2.08-8,2.77-1.84,6.3,5.91,6.61-.13.25-4.83,1.92-6,5.16-7.61a3.11,3.11,0,0,0,1.37-4.29c-.91-1.77-2.83-1.35-4.46-1.35.09-4.16-.25-8.73,6.38-6.46a3.08,3.08,0,0,0,4.11-1.82c2-5.22,6-9.51,6.58-15.39.21-2.09.81-3.84-1.17-5.27-11.39-8.2-19.83-19.05-26.57-31.12-3-5.29-8.92-10.83-2.39-17.65-3.09-1.84-5.94-3.42-8.67-5.2-6.85-4.48-7.8-7.13-5.35-15.43a7.68,7.68,0,0,0,0-4.78c-1.68-5.37-1.17-11.05-2.3-16.61-1.52-7.43,0-15.38,2.24-22.92,2.63-8.84,6-17.66,7-26.71.89-8.05,5.77-13.63,10.66-17.55s10.09-8,15.93-10.73c4.15-1.93,4-3.86.88-6.4-1.54-1.25-3.11-2.76-4.92-3.29-9.5-2.79-12.79-13-21-17.34-1.89-1-3.12-3.29-3.52-5.8a26.91,26.91,0,0,0-7.42-14.86,4.53,4.53,0,0,1-1.12-5.41c1.7-4,0-7.64-.81-11.56-1.08-5.24-4.67-9.77-4.42-15.2.51-11,3.06-21.83,5.52-32.35,1.48-6.29,2.4-13.29,5.75-19.65,2.3-4.36,6-9.56,4.73-15.62a2.84,2.84,0,0,1,1.27-2.45c5.25-1.52,8.15-6.64,13.28-8.39s8-9.24,5.24-13.92c-4.7-8-11.78-14.4-15.61-23,0-.33.16-.85,0-1-4.78-3.66-9.69-7.25-6.36-14.47,1.77-3.85-6.75-.68-3.72-5.53,2.61-4.19-2.36-4.29-3.42-6.36-2.42-4.68-6.4-9.39-3.92-15.44a4.17,4.17,0,0,0,.07-3.83c-4.79-8-1.5-16.12-1-24.42s1.53-15.16,9.09-19.74c.62-.37.95-1.83.83-2.7-1.08-8.45,6-12.24,11-15a63.74,63.74,0,0,0,18.7-15.17c1.05-1.25,2.14-2.84,3.55-3.36,14.93-5.43,26.71-16.9,42-21.62,6.87-2.12,13.53-4.33,19.22-9.72,3-2.87,9.36-4,13.65-4.18s6.25-2.31,8.93-4.11c8.67-5.86,16.28-13.17,26.8-16.36C1840.57,734.63,1844.53,729.11,1850.55,727.72Zm124.12,376.42c-1.8-.17-2.55.36-2.69,1.35a1.59,1.59,0,0,0,1.59,1.88,1.74,1.74,0,0,0,2-1.5A1.49,1.49,0,0,0,1974.66,1104.14Zm-26.89,358.72c-.55,2.28-.21,3.17.7,3.51,1.21.45,1.76-.55,1.75-1.46s-.4-2-1-2.24C1948.26,1462.23,1947.68,1463.19,1947.77,1462.86Zm-247.94-406.5c-.24-.56-.34-1.36-.77-1.61a1.68,1.68,0,0,0-1.63.31,1.23,1.23,0,0,0,.83,2C1698.71,1057.2,1699.3,1056.63,1699.83,1056.36Z" style="fill:#e86462;"/><path d="M1699.61,919.27c3.83,8.61,10.91,15,15.61,23,2.75,4.67,0,12.13-5.24,13.92s-8,6.87-13.28,8.39a2.84,2.84,0,0,0-1.27,2.45c1.3,6.06-2.43,11.26-4.73,15.62-3.36,6.36-4.28,13.36-5.75,19.65-2.47,10.52-5,21.37-5.52,32.35-.25,5.44,3.34,10,4.42,15.2.81,3.92,2.5,7.59.81,11.56a4.53,4.53,0,0,0,1.12,5.41,26.91,26.91,0,0,1,7.42,14.86c.4,2.5,1.63,4.79,3.52,5.8,8.19,4.37,11.49,14.55,21,17.34,1.81.53,3.39,2,4.92,3.29,3.13,2.54,3.27,4.47-.88,6.4-5.83,2.71-11.13,6.89-15.93,10.73s-9.77,9.5-10.66,17.55c-1,9.05-4.38,17.87-7,26.71-2.24,7.55-3.76,15.49-2.24,22.92,1.13,5.56.62,11.23,2.3,16.61a7.68,7.68,0,0,1,0,4.78c-2.46,8.3-1.5,11,5.35,15.43,2.72,1.78,5.58,3.36,8.67,5.2-6.53,6.82-.57,12.36,2.39,17.65,6.75,12.06,15.18,22.91,26.57,31.12,2,1.43,1.38,3.18,1.17,5.27-.6,5.89-4.62,10.17-6.58,15.39a3.08,3.08,0,0,1-4.11,1.82c-6.63-2.26-6.28,2.31-6.38,6.46-2.42,1.69-5.18.83-7.8,1.06A9.06,9.06,0,0,0,1700,1311a8.24,8.24,0,0,1-6.41-2.15c-3.54-2.86-7.09-6.33-12.12-2.65-12.2-5.41-24.66,2-37-.81-5.71-1.3-11.33-3.08-17.4-3.39-13.81-.71-27.62-2-41.35-3.76-13.15-1.65-26.33-1.8-39.52-2.17-5.43-.15-9.85-2.8-14.52-4.92-4.44,4.82-9.86,2.1-14.95,1.94-2.71-.08-5.79-.18-7.56-2-2.8-2.91-6.15-2.32-9.29-2.42a237.16,237.16,0,0,1-31.43-3.11c-14.63-2.4-29.25-5.36-44-6.83a17.15,17.15,0,0,1-7.57-2.07c-1.38-.83-3.17-1.89-4.57-1.66-10.25,1.73-20.11-1.64-30-2.81-8.06-.95-17.32,2.29-24.53-4.81-1.42-1.4-5.08-.8-7.69-.67-3.67.19-7,.62-9.92-2.73-2.64-3-6.39-1.78-9.26-.19-3.3,1.83-5.95.72-9.26.18-12.51-2-24.49-7.86-37.67-5.54-6.07,1.07-11.74-1.82-17.67-2.48-7.29-.81-14.48-.25-21.68-.35-10.28-.14-19.92-4.07-30.32-4-5.32,0-10.91-.48-15.67,1.11-6.92,2.31-12.93.66-18-2.83-7.08-4.9-14.75-5.38-22.64-5.93-6.9-3.16-13.89-5.78-21.59-1.49-.84-4.54.08-8.31,3.06-9.57,5-2.09,3.72-4.65,2.76-8.49a31.68,31.68,0,0,0-9.71-15.74c-1.66-1.54-3.53-2.46-4.26-5.1-3.61-13-11.26-23.69-20.48-33.23-3.89-4-8.18-7.68-11.82-12-4.65-5.53-9.63-10.83-15.71-14.8a143.7,143.7,0,0,1-17.63-12.92,8.57,8.57,0,0,0-4.39-2.14c-6.1-.69-8.92-5-11.43-9.76,4.47-.39,8.16-2.41,11.61-5.17,7.08-5.66,14.58-10.35,24.16-10.52,2.55,0,5.69-.6,7.52-2.14,9-7.58,20.28-9.33,30.74-13.29,8.19-3.1,17-4.34,24.79-8.57,5.67-3.09,11.09-5.37,18-6.19,15.24-1.81,30.29-5.62,45.65-6.69,6.3-.44,12.4,0,17.79-4.2,1.34-1.05,3.86-.48,5.75-1,5.73-1.48,12.14-.44,17.29-3.85,9.89-6.56,21.38-8.64,32.37-12.16q8.95-2.86,17.76-6.14c5.48-2,12-.87,16.7-5.25,9.63,2,19.2,4.51,28.92,5.9,8,1.14,15.53,5.53,24.14,2.89,2.56-.78,5.86.46,8.73,1.17,12.35,3,24-2.74,36.13-2.73,7.86,0,15.57-2.74,23.56-1.73,1.27.16,3,.25,3.84-.44,5.7-4.77,12.94-3.15,19.35-4.39,6.72-1.3,13.47-3.26,20.54-3,6.68.22,12.57-3.53,19-4.78,4.42-.86,8.43-4.06,13.29-1.49.54.29,2.53-.75,2.5-1-1.06-7.69,4.09-3.81,7.29-4.29s6.23-2.17,9.34-3.3c13.69-5,27.44-9.88,36.64-22.2,1.56-2.09,3.9-2.34,5.88-3.45,2.79-1.57,6.47-2.25,7.06-6.33.27-1.9,1.78-2.8,3.31-3.4,4.43-1.75,8.27-3.64,8.76-9.4.23-2.69,3.42-4,5.72-5.2a41.88,41.88,0,0,0,17.46-16.85c1.42-2.54,3.92-4.47,5.92-6.67,15.7-4.82,31.41-9.62,47.35-13.73C1681.13,926.68,1690.8,924,1699.61,919.27Z" style="fill:#f4bb19;"/><path d="M622.59,1020a35.24,35.24,0,0,1,7.1-17.2c6.94-9.33,10.8-19.77,13.38-30.78,1.38-5.88,5.15-10.69,6.1-16.76.88-5.59,2.53-11.09,2-16.79-.61-6.55,4-11.63,4.29-18.18.27-7.24,1.48-14.44,1.43-21.81,0-6.13-1.18-12.73,3-18.36a4.82,4.82,0,0,0,.46-3.84c-3.19-9.36,0-18.4,1.06-27.56.58-4.87,1.79-9.77-.13-14.67a8.12,8.12,0,0,1,.22-5.88,14.64,14.64,0,0,0-.27-11.64c-1.43-3.22-.2-6.6-.19-9.89,0-4,0-7.82-1.38-11.76-1.84-5.18-3.42-10.51-1.38-16.3a11.27,11.27,0,0,0-.65-8.8c-2.62-4.93-2.5-10.29-2.79-15.57-.64-11.46-1.85-23-1.52-34.34.25-8.56-1.9-17.19.19-25.7,2,1.88,2.94,6.64,6.42,5,7.73-3.69,16.32-3.42,24.16-6.26,2.5-.91,4.15-3.1,6.55-4.36,3.85-2,4.16,4.49,7.5,2.43a13.09,13.09,0,0,1,1.83-.78,17.46,17.46,0,0,1,1,6.84c0,7.44,3,11,10,9.46,7.33-1.6,15.31,2.48,22-2.82,15.6-.58,30.77-5.66,46.52-4.57,5.09.35,9.89-1.39,14.86-1.6,3.69-.16,3.92-6.38,8.74-4.68.69.24,1.49-2.39-.14-2.86-3.88-1.14-4.83-1.82-1.79-5.78,2.42-3.15,0-7-3.92-8.5A23.25,23.25,0,0,0,786.55,674c-7.24.74-14.46,1.74-21.69,2.64-.58-.33-1.32-.54-1.69-1-.68-.91-.71-2.06.84-1.32,3.65,1.74,6.4-.64,9.42-1.74,6.55-2.4,13.3-5.82,20.07-5.1,9.89,1.05,19.34-1.34,28.15-3.8,10.5-2.93,21.2-4.63,31.7-7.29,17.55-4.43,36.08-4.4,53.17-11.09,9.27-3.63,19.13-4.93,28.73-6.89,11-2.25,21.73-6,33-6.63,9.67-.55,19.05-2.11,28.06-5.73.84-.34,2.36-.63,2.75-.2,4.3,4.68,7.89.35,11.56-.93,3.06-1.07,6-4.36,8.75-4.11,7.11.63,13.48-2,20.13-2.75,10.07-1.09,19.4-3.87,28.66-7.37,2.56-1,5.3-1.95,7.72-1.55,9.12,1.49,17.38-2.1,26-3.68.61,23.77,5.69,47,8.17,70.53,1.09,10.36,2.45,20.84,2.42,31.35,0,6.3,1.87,12.48,2,18.65.14,8.27,3.08,16.2,2.24,24.51a30,30,0,0,0,.87,9.82c2.5,10.93,5,21.91,5.23,33.2.06,2.76,1.07,5.19,2,7.67,3.51,9.36,5,19.13,5.88,29,.18,2,.22,4,1.44,5.7,4.77,6.87,5.42,14.91,7.4,22.75,2.12,8.41,3.2,17.76,9.27,24.88,2.34,2.74,2.25,6.23,3,9.38,1.92,7.87,5.93,14.63,9.69,21.67,6.08,11.4,13.56,21.93,19.75,33.24-4.34,9.53-12.59,16.06-18.94,24-6.76,8.47-15.15,15.71-23.27,23-9.59,8.6-18.91,17.84-29.71,24.64-10.59,6.66-20.48,14.36-31.61,20.33-17.83,9.55-35.93,18.08-55.5,23.32-13.8,3.69-26.52,10.31-40,14.89-1.88.64-5.55,1.28-4.44,4.22,1.41,3.75.4,8.47,5.09,11.2,3,1.73,4.81,5.35,7.1,8.16,6.69,8.2,13.74,16.4,26.27,13.89a10,10,0,0,1,3,.32c-.42,5.3,3.88,8.18,6.15,12.12,1.07,1.85,3.84,3.86,1.5,6.07-4.45,4.2-1.38,7.7,1.22,10.23,4,3.87,4.83,8.15,4.5,13.28a59.08,59.08,0,0,0,.37,10c2,18.94,3.17,37.74.21,56.84-1.39,9-3.13,17.06-7,25.44-6.86,14.78-18.88,23.67-31.81,31.45-8.09,4.87-17.62,7.75-27.57,6.17a90.8,90.8,0,0,0-18.79-.69c-8.56.41-17.88,2.86-24.6-5.57-.52-.65-1.84-.67-2.81-.94a47.72,47.72,0,0,1-26-18c-6.68-8.93-13.59-17.69-20.32-26.58a5,5,0,0,0-5.12-2.27c-6.08,1-7.37-2.82-7.83-7.63-.19-2-.73-3.9-1.12-5.86-.8-8.58-1.1-16.9,7.5-22.46,2.26-1.46-.2-4.12,1-6.83,5.32-11.8,10.23-23.8,15.38-35.7,5.61-13,9.61-26.64,14.56-39.92,2.07-5.56,4.51-10.93,5.87-16.78.92-4-.27-6-3.95-6-7.16-.11-14.43-.43-21.46.63a86.2,86.2,0,0,1-16.61,1.12c-10.61-.45-21.21-1.59-31.86-.59a24.57,24.57,0,0,1-7.95-.46c-9.74-2.36-19.43-.67-29.11.16-3.3.29-5.82.71-9.13-1.58-4.43-3.06-10.78-1.39-15.89-3.83-1.14-.55-2.78-.08-3.9-.65-13.44-6.94-28.84-7-42.69-12.18-12.38-4.65-25.9-7.12-35.94-16.9-.82-.8-2.47-.69-3.66-1.18-6.06-2.47-12.6-4.2-16.81-9.77-3.37-4.47-9-3.67-13.42-5.75C640.88,1035.77,631.39,1028.5,622.59,1020Zm75.74-175.45a35,35,0,0,0,13,12.47c8.69,4.76,17.62,9.24,27,11.35,5.4,1.21,10,5.86,15.61,4.44,5.07-1.29,9.8-.08,14.69,0,4,.06,8.14.38,11.68-1.7,10.74-6.3,23.91-6.64,34.09-15,3.56-2.93,8.41-4.43,11.12-8.89a13.38,13.38,0,0,1,4.42-3.88c1.78-1.12,3.31-2.26,3.44-4.49.46-7.87,5.75-13.61,9.08-20.19,1-2,1.69-3.41.1-5.19l.17.15c-.12-1.33-.32-3.11.94-3.61,5.09-2,4.51-5.6,5.16-10.39,1.9-13.92.26-26.72-6.22-39-3.18-6-3.34-14.18-11.66-16.77-.89-.28-1.73-2.09-1.85-3.27-.51-5-4.3-8.66-5.32-13.42-8.16-15.52-24.43-16.49-38.56-20.9a14.56,14.56,0,0,0-10.6,1c-3.3,1.82-8.91-2.12-10,1.38-2,6.29-6.88-3.62-7.81,2.18L748.35,717c-1.52-.94-2.53-.27-3.34,1.05a4.65,4.65,0,0,0-5,0c-2.8-1.51-5.24-1.9-8.13.48a84.39,84.39,0,0,1-16.32,10.93,105,105,0,0,0-11,6c-4,2.64-6.3,8.05-9.23,12.33-4.09,6-5.17,13.45-8.69,19.45-7,12-7.91,24.57-6.26,37.6.35,2.77-1.1,7,3,8.76l.59,6.55c-1.23,2.34-1.9,4.5,1.71,5.27l1.9,2.65c.72,4.12,2.73,7.75,4.71,11.31C693.62,841.72,694.5,845,698.33,844.59ZM881.91,1038c9.09,1.38,17.45-2.6,26.24-3.59,6.2-.69,13,.72,18.61-2.33,11.21-6.14,23.94-7.5,35.76-11.54,16-5.46,30.88-11.83,43.4-22.79,7.35-6.44,14.6-13.44,19.2-22.46,5.13-10.06,10.7-20,10.07-31.9-.08-1.48,1.27-3,1.88-4.57a14.43,14.43,0,0,0,.79-5.85c-.24-8.69-5.45-16.58-4-25.55.1-.66-1-1.61-1.73-2.29a189.81,189.81,0,0,1-19.56-22.3,14.72,14.72,0,0,0-5.3-4.45c-12.21-5.58-25-7.92-38.33-5.41-11.48,2.16-22,7.48-32.24,12.49-9.24,4.51-18.88,6.65-28.51,8-11.37,1.59-22.93,3.16-34.62,2.35-5.84-.4-11.86,1.58-17.66,1a76.74,76.74,0,0,0-21.07.55c-3.68.66-7.43.87-10.86-.35-4-1.42-7.76-1-11.74-.35a60.55,60.55,0,0,1-9.9.7c-9.78,0-18.1,1.24-25.31,10.06-11.58,14.17-21,28.44-21.33,47.52-.12,8.13,1.94,15.69,3.9,23.28,2.3,8.92,4.09,18.43,13.69,23.24,1.09.55,1.78,1.94,2.59,3,7.37,9.64,18.49,14.89,27.13,23.07,1.29,1.22,3.74,1.16,5.59,1.87,6.54,2.52,14.08,1,20.15,3.89,5.61,2.66,10.85,2.14,16.42,2.19,6.6.05,14-1.38,19.56,1.16C870.85,1039.46,876.25,1037.67,881.91,1038Zm79.36-333.84c-2.52-.13-5-2.74-7,1.1-2.95,5.72-8.09,9.46-13,13.44C938,721.37,936,725,934.1,729c-5.11,10.47-7.54,21.74-11.43,32.55-4,11.17-5.14,22.81-1.55,34,1.61,5,0,10.94,3.24,14.72,7.21,8.37,14.32,16.81,20.77,25.75,3.79,5.26,9.17,7.32,14.77,9.24,4.36,1.5,9.44,1.69,13.18,4.07,10.58,6.73,21.18,5.83,32.14,1.83,2.2-.8,4.49-1.67,6.77-.88,9,3.13,16.84-.2,24.57-4.37,3.47-1.87,6.95-4.15,10.7-5,11.08-2.57,18.5-10.73,27.2-16.91,1.26-.89,2.33-3,1.51-4.46-1.81-3.28,1-5.25,2.22-6.91,5.82-7.69,8-16.73,9.1-25.75,1.13-9.42,3.71-18.86,1.81-28.54-1.77-9.06-6.84-17.1-8-26.36-.19-1.52-1.33-3-2.28-4.34-8.14-11.49-17.68-21.15-32-24.68a10.48,10.48,0,0,1-4.3-2.41c-4.75-4.31-10.1-6.25-16.45-4.68a5.81,5.81,0,0,1-3.64,0,48.81,48.81,0,0,0-27.94-1.28c-3.22.81-6.51,1.77-9.78,1.82-5.21.07-9.68,1-13.46,5.08A10,10,0,0,1,961.28,704.12Zm8.46-17.33c8.34.28,16.05-3.41,24.36-3.81,11.23-.54,22.3-2.78,33.31-5,8.62-1.75,16-10.72,16.41-19.24.08-1.63-.57-2.66-1.91-3-2.21-.57-4.84-1.72-6.72-1-7.8,2.83-15.77.2-23.57,1.36s-15.73,2.49-23.64,3.29a246.75,246.75,0,0,0-36.19,6.13c-5.26,1.34-8,3.88-10,8.42-4.87,11.21-3.12,14,9.17,14.36C957.32,688.45,963.49,687.35,969.74,686.79ZM744,933c-8.33-15.1-22.51-24.41-26.84-40.56-.81-3-5.24-4.07-9.52-2.94-3.77,1-7.09,1.28-7.56,6-.32,3.29-1,6.55-1.36,9.84-1,10.48.19,20.92,1,32.42-5.92-4.45-11.43-8-16.22-12.33-7.3-6.6-11.85-7.64-21.5-3.57.22,1.77,1.49,2.88,2.53,4.17,7.25,9,17.23,14.12,27,19.66,5.49,3.11,10.55,5.07,17.22,3.63,5.12-1.1,6.26-3.37,4.95-7.43-2.7-8.31-2.86-17-4.15-25.48-.38-2.53-.16-4.57,2.66-6.9A88.2,88.2,0,0,0,744,933Zm347.41-52.27c-1.05-6.19-2-10.22-2.12-14.54a22.92,22.92,0,0,0-4.67-12.91c-2.75-3.76-7.43-4.26-9.84-1-8,11-16,22-22.3,34.1-1.71,3.3-2.7,6.49-.12,10.7,7.59-8.47,14.23-16.63,19.77-25.58,1.25-2,1.85-4.68,4.47-4.44,3.61.33,1.76,3.59,2.07,5.56.35,2.28,0,4.66.26,7,.66,5.91,1.28,11.85,2.33,17.7.7,3.9,6.52,8.18,10.33,7.86,4.57-.38,4.41-4.11,4.9-7.41.46-3,2.41-5.34,4.2-7.78a211.77,211.77,0,0,0,17.15-28c3-5.71.56-12.08-5.22-14.85-2.75-1.32-4.58-1.78-5.56,2.43C1104.59,860.38,1099.29,869.89,1091.45,880.75Z" style="fill:#f4bb19;"/><path d="M860.15,1219.75c.38,2,.93,3.89,1.12,5.86.46,4.82,1.75,8.63,7.83,7.63a5,5,0,0,1,5.12,2.27c6.74,8.89,13.64,17.65,20.32,26.58a47.72,47.72,0,0,0,26,18c1,.27,2.29.29,2.81.94,6.73,8.43,16,6,24.6,5.57a90.8,90.8,0,0,1,18.79.69c9.95,1.58,19.48-1.3,27.57-6.17,12.93-7.79,24.95-16.67,31.81-31.45,3.89-8.38,5.63-16.48,7-25.44,3-19.1,1.82-37.9-.21-56.84a59.08,59.08,0,0,1-.37-10c.33-5.12-.51-9.4-4.5-13.28-2.6-2.52-5.67-6-1.22-10.23,2.33-2.21-.44-4.22-1.5-6.07-2.27-3.94-6.57-6.82-6.16-12.12,1.77-1.85,2.82-5.88,5.43-5.18,7.6,2,16.39,1.22,22.19,8.19,2.5,4.77,5.32,9.07,11.43,9.76a8.57,8.57,0,0,1,4.39,2.14,143.7,143.7,0,0,0,17.63,12.92c6.07,4,11.05,9.26,15.71,14.8,3.64,4.32,7.92,8,11.82,12,9.22,9.55,16.87,20.23,20.48,33.23.73,2.64,2.61,3.56,4.26,5.1a31.68,31.68,0,0,1,9.71,15.74c1,3.84,2.2,6.39-2.76,8.49-3,1.26-3.9,5-3.06,9.57,7.7-4.29,14.69-1.67,21.59,1.49,6.19,8.27,11.32,17,12.63,27.59.2,1.59.52,3.6,1.57,4.59,7.1,6.76,7.47,16.77,12.16,24.74,2.77,4.72,6,9.9,7.47,14.68,3.19,10.38,11.34,19,11.06,30.48a2.29,2.29,0,0,0,.09,1c3.22,6.82,5.82,13,2.39,21.34-2.6,6.35-1.35,14.4-2.9,21.56-.8,3.71-2.11,6.79-6.54,2.86-2.06-1.82-3.5.2-5.12,1.28-10.89,7.28-22.48,12.36-36,11.21-4-.34-7.77.62-11.71,1.5-9.07,2-18.19,5.81-27.77,2.18-14,5.7-29.11.09-43.22,4.39a20.71,20.71,0,0,1-10.69.36c-4.85-1-9.74-.24-14.76.71-7,1.32-14.13,2.87-21.36,2.06a9.54,9.54,0,0,0-4.82.26c-10.25,4-20.72,3.45-31.26,1.39-2.63-.52-5.34-.85-7.9.1-3.26,1.21-6.32,1.67-9.59-.09-2.55-1.37-5.21-.33-7.75.48s-5.3,1.36-7.86.5c-8.46-2.85-16.87-.35-25.31-.12-10.84.29-21.69.47-32.53.39a9.88,9.88,0,0,0-5.6,1.26c-1.39.84-3.36,2.38-4.36,2-10.87-4.66-22,1.43-32.83-.94-.32-.07-.71.1-1,0-10-4.4-20.9-.74-31.05-3.77-3.17-.95-6.55-.64-9.89-.56-6.7.17-10.4-3.64-10-10.28.11-1.95,1.18-3.69-.64-5.44-5.91-5.67-5.8-13.14-5.73-20.47.06-5.24,1.07-10.51.78-15.72s7.26-5.88,6-10.47a12.91,12.91,0,0,1,2-11.27,8.92,8.92,0,0,0,1.39-8.26c-.93-3.38-.14-7,1.4-10.58,2.94-6.86,2.31-14.82,6.16-21.55,6.8-11.9,8.3-25.75,13.79-38.16,1.23-2.79,2.33-5.79,4.51-7.62,3.09-2.59,4-6,5.11-9.42,1.73-5.39,3.13-10.78,7.49-14.93,2.19-2.08,2.58-5.28,3.06-8.29,1.23-7.76,1.3-7.75,9.35-5.55Zm171.17,122.58c-1.81,4.4,2.75,6,5.73,8.36,4.88,3.87,8,3.06,8.74-3.11,1-8.83,4.73-16.45,8.33-24.28,7.87-17.14,17.71-33.37,23.75-51.38,1.18-3.5,3-6.71.87-10.38-1-1.78-2.41-3.19-4.6-3.41-2.54-.25-3.57,1.54-4.1,3.52-1.5,5.61-5.45,9.83-8.1,14.78-7.43,13.9-15.15,27.67-22.07,41.82C1036.29,1325.57,1031.68,1332.72,1031.32,1342.33Zm41.66,9.22c0,1.86-.05,4.52,0,7.17,0,1.66.2,3.54,2.12,4.05,1.7.45,3.17-.59,4.46-1.7a26,26,0,0,0,7.15-10.64c5.54-14.19,11-28.4,16.4-42.66a56,56,0,0,0,2.3-9.64,3.15,3.15,0,0,0-2.42-3.77c-1.55-.41-2.35.9-3.08,2-8.26,12.42-15.09,25.72-23.29,38.17C1073.4,1339.46,1072.6,1345,1073,1351.55Zm57.67-30.73c-5.54,12-14.46,21.93-18.51,34.58-.84,2.64-4.49,4.93-1.37,7.8s6.19-.16,9.08-1.31c2.12-.84,4.2-2,5-4.51,2.88-8.74,5.9-17.44,8.65-26.22C1134.66,1327.53,1134.09,1324,1130.65,1320.82Z" style="fill:#52b8cb;"/><path d="M20.47,479.79a119.87,119.87,0,0,0,16.46,2.52,5.61,5.61,0,0,1,3.48,1.83c8.38,9.6,19.73,16,28.12,25.38,5.7,6.4,12.35,11.72,18.1,18,6,6.56,14.35,8.16,22.47,9.73,4.1.79,8.38-1.68,10.73-4.47,5.06-6,9.29-12.35,8.27-21.45-1.11-9.83-6.81-17-11.32-24.88-2.25-3.94-5-7.57-7.22-11.58s-5-8.11-10-11.25c-8.89-5.59-17.82-12.65-20-24.58-1-5.36-1.87-11.17.36-15.66,2.47-5,7.46-8.74,11.49-12.91a3,3,0,0,1,2.78-.4c9.3,5.6,21.57,3.51,29.88,12.32,4.15,4.4,10.3,7,15.51,10.29,9.72,6.19,16.34,15.24,24.6,22.71a91.16,91.16,0,0,1,18.53,24c4,7.29,7.35,15.13,8.83,23.09,1.35,7.27-1.95,14.85-3.82,22.15-.48,1.88-1.35,3.67-1.71,5.66-1.32,7.33-1.45,7.49,5.49,10.17a28.8,28.8,0,0,1,9.81,6.68c11.06,10.82,22.38,21.34,34.4,31.12,4.3,3.5,7.4,8.56,11.22,12.49,4.94,5.08,8.94,11.38,14.83,15.26,12.39,8.17,19.35,20.72,27.7,32.19,1.75,2.4,1.11,5.12.9,7.75-.76,9.57-5,18.34-6.44,27.75-.1.63-.41,1.55-.87,1.73-4.47,1.79-5.6,7.05-8.8,9.2-3.56,2.39-6.65,5.37-10.26,7.66-4,2.52-8.54,0-12.69,1.63-4.57,1.8-7.58-.59-9.78-4.48A2.86,2.86,0,0,0,238,688c-6.5,2.41-9.85-2.52-13.58-6-6.5-6-11.51-13.61-20.28-17.1-2.18-.87-3.25-4.17-5.29-5.79-17.69-14-32.11-31.08-46.28-48.47-4.15-5.09-9.75-9-14.62-13.49-2.06-1.91-4-1.75-6.29-.39-4.87,2.91-9.93,3.5-15.23,1s-10.5,1.84-16.47.51a49.56,49.56,0,0,0-14.38-.92c-10.05.92-17-4.12-23.2-10.84a13.72,13.72,0,0,0-6.56-4C44.41,579,35.51,572.1,28,562.61c-4.81-6.1-11.88-10.11-16.61-16.77C6.93,539.51,2.59,532.9.7,525.78c-2-7.36.73-15.44,1.38-23.19.75-8.84,4.68-14.87,11.09-20.11C15.33,480.72,17.52,479.37,20.47,479.79Z" style="fill:#52b8cb;"/><path d="M343.29,98.91c6,2.79,10.07,2.75,14.33,1.1,8.61-3.33,16-.49,23.1,4.74,4.74,3.51,9.59,6.84,13.88,10.92,6.52,6.21,15.8,8,22.54,13.89,1.41,1.24,4.12,1.45,4.72,3.39,3,9.66,12.27,14.21,17.47,22.08,3.78,5.72,5.3,5.56,10.62.37,5.69-5.55,11.4-11,16.19-17.51,2.9-3.94,2.42-6.62-.13-9.6-4.49-5.25-9-10.48-14-15.31-4.76-4.66-9.58-9.22-12.88-15.05-1.2-2.12-2.71-4.1-4.71-5-4.79-2.2-6.54-6.22-7.76-10.8-.34-1.26-.53-2.87-1.4-3.6-2.16-1.82-6.89-2.16-5.94-5.7,1.64-6.18.1-12.83,2.6-18.55,2.93-6.71,20.8-11.33,27.32-7.91,8.49,4.45,16.06,10.49,25.07,14.05a10.35,10.35,0,0,1,4.88,4.72c1.49,3,3.75,4.35,6.61,5.51s6.56,1.65,7.17,6c.14,1,1.68,2.14,2.82,2.58C503.15,82,507.88,88.36,514,92.5c9.9,6.74,16.34,17.5,27.67,22.35,2.18.93,3.31,4.08,5.26,5.84,13.52,12.18,27.16,24.22,39.31,37.83a37.39,37.39,0,0,1,5.35,7.18c3,5.63,7.26,10.28,11.84,14.66,7.4,7.08,7.22,11.47-.77,18.75-.49.44-1.27.72-1.5,1.26-2.24,5.26-5.69,5.06-9.41,1.89-2.09-1.78-3.33-2.56-5.64-.06-6.77,7.33-14.76,4.45-21.94,1.19-7.65-3.48-14.7-8.26-22-12.5-4.09-2.38-5.33-7.35-9.63-9.87a87.73,87.73,0,0,1-16-11.43c-6.91-6.46-11.92-5.55-18.5,1.15-4.42,4.51-8.91,8.95-13.42,13.37-4.8,4.72-4.91,7.73-.26,12.52a15.68,15.68,0,0,0,2.48,1.63c14.52,10,25.3,23.83,37.64,36.09,5.12,5.08,8.31,10.8,11.35,17,3.27,6.69,1.48,13.34-.81,19.29-2.06,5.35-7.56,7.76-13.69,8.21-12.1.89-22.23-2.45-32.09-10.08-11.72-9.08-23.35-18.29-35.07-27.39a15.86,15.86,0,0,1-4.24-4.12c-7-11.86-17.71-20.47-27.88-29.11-10.86-9.23-18.27-21.83-30.39-29.61C384,164.38,368.41,157.47,360,144c-1.31-2.1-3.68-2.79-5.54-4.15a14.46,14.46,0,0,1-5.8-7.87c-.81-2.86-1.53-6.05-3.32-8.27-2.91-3.6-3.06-7.42-1.93-11.27S344.27,104.74,343.29,98.91Z" style="fill:#52b8cb;"/><path d="M139,391.61c1.6-3.75-1.33-8.44-1.05-13.51.81-14.8,6.73-27.1,14-39.69A247.1,247.1,0,0,0,164.37,315c5.33-12,13.83-21.65,26.82-26,12.57-4.24,27.15,4.51,31.36,16.2a6.49,6.49,0,0,1,.27,4.81,6.2,6.2,0,0,0-.62,2.9c2.55,17.13-5.35,30.86-14.15,44.38a23,23,0,0,1-5.86,6.71c-9.54,6.59-9.83,23.78-5.6,32.87,2,4.34,2.77,9.62,7.87,12.17,3,1.48,5.37,1.57,6.24-1.89,2-8,7.8-13.72,11.47-20.62,5.3-10,13.55-14.35,23.35-18.48,12.53-5.28,20.3,2.58,24.37,12.34,2.92,7,1.39,14.17-.76,21.22-1.82,6-4.84,11.52-4.74,18.17.07,4.41-3.87,7.54-6.71,10.71q-5.91,6.59-12.32,12.74c-3.27,3.14-2.28,5.17.43,8.26,3.92,4.47,9.28,7.26,12.6,12.57,2.34,3.74,7.33,2.43,9.4-2.14,6.19-13.69,15.38-25,26.43-35a12.67,12.67,0,0,0,3.64-5.85c2-7.79,8.15-12.73,12.8-18.51,6.06-7.53,13.29-8.2,22.28-3.36,5.68,3.05,11.44,5.65,15.07,12,2.59,4.53,5.73,8,3.11,13.49-.47,1,.09,2.62.52,3.83,3.22,9.27-.52,16.88-4.52,25.09-3.62,7.44-8.18,14.4-11.17,22.2-4.19,10.9-12.18,19.54-18.46,29.2-2.84,4.36-5.42,9.2-8.35,13-5.1,6.69-9.72,16.66-21.52,14-7.44,5.26-14,.64-21.12-1.34-9.75-2.71-15.88-10.2-23.19-16-4.89-3.88-9.09-8.72-14.49-12.09-7.9-4.93-13.15-12.83-20.64-18.2-7.81-5.6-14.4-12.53-21.46-19a87.48,87.48,0,0,1-14.34-17.67c-3.32-5.13-6.58-9.91-12.35-12.57a16.18,16.18,0,0,1-6-5.11c-5.15-6.72-7.46-15-12.84-21.76C138.31,404.65,138.24,398.25,139,391.61Z" style="fill:#52b8cb;"/><path d="M310.86,179.87a25.79,25.79,0,0,1,15.23,3.67,30.44,30.44,0,0,0,13,3.82c4.34.39,9.22,3.43,12.59,5.84,5,3.55,11.42,5.49,15,11.05a4.46,4.46,0,0,0,2.25,1.86c9.14,2.54,14.38,10.95,22.56,14.89a9.35,9.35,0,0,1,5.26,5.31c2.1,5.13,8.5,5.52,12.32,9.21,4.27,4.12,10.57,5.19,12.82,12.67,1.25,4.14,7.76,7.57,12,10.89,10.3,8,17.4,19.22,28,26.74,2.85,2,2.7,4.36,1,6.84-.93,1.36-2.37,2.36-.69,4.15,4.52,4.82,6.41,16.71,3.7,22.81-.13.3-.29.79-.5.84-6.74,1.37-10.61,8.36-17.32,9.27-4.42.61-8.58,2.49-13.57,1.22-7.42-1.89-14.12-5.92-18.41-11-5.91-7-14.43-10.29-19.91-17.24-2.91-3.68-7.2-4.56-11-6.46-3.13-1.55-5.73-1.19-8,1.44-5,5.72-11.17,10-17.27,14.52-8.14,6-7.8,11.05.47,16.78,4,2.79,8.6,4.88,10.76,10a8.7,8.7,0,0,0,6.13,4.8c5.15,1.09,8.53,4.94,12.72,7.54,3.83,2.38,4.87,5.29,3.76,9.21-1.48,5.27-1.61,10,1.1,15.3,3.23,6.35-2.74,14.95-11.07,14.87-5.93-.06-11.73,1.41-17.72.62-4.7-.62-8.47-1.47-9.48-6.7a5.46,5.46,0,0,0-2.73-3.89c-8.76-5.29-16.58-11.56-22.52-20.11-1.94-2.79-4.3-5.37-8.51-6.13-3.89-.7-6.38-4.4-7.94-8.3-2.28-5.7-6-9.8-12.64-10-1,0-1.95.24-2.49-.9-4.77-9.87-14.15-15.61-21.09-23.54a6.18,6.18,0,0,1-1.65-2.45c-1.49-7.57-7.12-12.5-11.53-18.17-6.92-8.9-10.32-19.78-16.68-29-2.18-3.18-5-7.42-1.57-11.93,1.53-2-.5-3.72-.84-5.58-1.61-8.66-4-17.15-1.18-26.19,1-3.09,1.23-5.65,4.66-6.63a5,5,0,0,0,2.9-2.52C265.87,187.15,287.68,182.15,310.86,179.87Zm-3,55.74c-10.67.11-11.36,1-8.88,11.71,3,13,11.24,23.26,17.93,34.33,1.37,2.27,3.45,2,5.11.66a19.72,19.72,0,0,0,4.68-5.06c3.94-6.49,6.9-13.56,12.57-19,2.19-2.09,2.11-5-1-6.64-2.17-1.19-3.05-3.5-4.69-4.92C326.29,240.36,318.32,235,307.89,235.62Z" style="fill:#52b8cb;"/><path d="M1369.15,525.41c-3.17-4-3.9-9-5.7-13.59-5-12.69-9.25-25.68-14-38.48-1.22-3.27-2.72-6.16-6.18-8.48-2.76-1.85-3.7-6.66-5.08-10.3-3.07-8.11-6.34-16.07-12.59-22.38,2.7-.52,3.15-3.22,4.71-4.85,14.82-15.53,30.81-29.85,46.23-44.75,7.52-7.27,14.85-15,21.72-23.05,3.26-3.8,7.31-6.85,10.2-10.81,5.1-7,11.82-6.88,19.14-5.78,1.53.23,2.32.7,2.54,2.29,1.15,8.18,4.28,15.85,4.62,24.39.35,8.86-2.94,15.07-9.6,19.42-8.34,5.45-15.05,12.73-21.64,19.74-10.71,11.39-21.87,22.29-32.93,33.3a28.43,28.43,0,0,0-2.1,2.13c-1,1.28-2.24,2.63-1.1,4.41.81,1.27,2.25,1.15,3.56,1.22,8.7.49,17.05-1.79,25.55-3,7.31-1.07,14.6-3.45,22.15-1.49a6.51,6.51,0,0,0,2.95-.1c27.18-6.19,55.25-5.37,82.59-10.78,13.55-2.68,27.76-1.64,41.44-4.55,10.37,3.93,20.84-.39,31.07-.8,11.29-.45,22.38,2.83,33.5.67,4.59-.89,7.45,1.37,10.6,4s4.25,5.33,1.8,8.58-3.11,6.28-1.28,10.12c1.73,3.63.51,7.11-1.78,10.29-3.49,4.86-6.83,9.82-10.3,14.7-3.91,5.49-8.05,10.67-15.77,10.58a5,5,0,0,0-2.8,1c-7.74,5.75-17.23,7.58-25.66,11.62a33.27,33.27,0,0,1-19.78,3.24c-4-.54-7.67-1.52-11.3,1.59-2.92,2.51-6.86,1.82-10.52,1.76-6.93-.12-13.95-.87-20.39,2.89-1.34.78-3.84,1.53-4.72.86-8.35-6.28-16.1,1.76-24.42.81s-17.16,1.79-24.7,6.08c-6,3.42-11.83-1-17.32.63-5.19,1.58-9.59,6.16-15.69,3.34-2.53-1.17-4.51-.13-6.37,1.45-2.26,1.92-4.51,3-6.89.22-1.06-1.22-2.33-1.09-3.59-.49C1389.56,527.66,1379.39,526.91,1369.15,525.41Z" style="fill:#52b8cb;"/><path d="M512.76,30.37C513,16.05,519,8.14,531.29,4.62c1-.27,1.92-.56,2.86-.87,4.37-1.43,8.12-6.58,13.5-1.67,3.55,3.23,9.15,3.95,10.81,9.62.85,2.89,4,4.26,6.24,6.2q12.36,10.63,24.36,21.68c4,3.66,8.88,5.86,13,9.19,9.14,7.41,16.2,17.55,28.09,21.34,3.21,5.86,10.25,7.43,14,13.37,3.07,4.85,9.81,7.2,14,12,6.18,7.11,13.44,13.25,19.41,20.61,2.53,3.12,2.92,5.07-.55,8.19-6.23,5.6-11.5,12.16-20,14.85-3.33,1.06-6.78,2.58-8.79,6.14-1.05,1.87-2.75,1.49-3.52-.65-.52-1.44-1.68-2.69-2.64-1.18-3.14,4.93-6.42,2.19-8.91,0-4.55-4-10.52-3.67-15.63-5.93-9.06-4-15.89-11.14-22.55-17.61-11.9-11.56-26-20.24-38-31.48-8.19-7.67-16.42-15.32-24.32-23.28C527.61,60,521.37,56,518,49.18,514.87,42.8,512.31,36.43,512.76,30.37Z" style="fill:#52b8cb;"/><path d="M1995.28,184c-.6,3.12-2.88,5.3-4.46,7.87-15.91,4.75-26.6-1.55-35.25-15-2.54-3.94-3.62-9.1-7.81-12-1.46-5.84,1.2-11.49.85-17.28,2.07-.51,2.82-1.66,1.81-3.68-4.15-10.56-2-21.57-1.75-32.31.2-10.24.08-20.49-.46-30.66-.44-8.16,2.29-16,.34-24.44-1.15-4.94,7-9.72,11.83-7.29,4.58,2.31,5.7.3,7.1-3.3.73-1.88.5-5.12,4-4.78,2.62.25,4,1.85,4.59,4.48,2.54,10.62,8.54,18.36,18.7,22.95,3.87,1.74,4.63,5.26,5.12,9.77,1.44,13.12,1.22,26.15.64,39.25-2.1,1.36-2.1,2.7,0,4l.48,4c-5,3.49-5,3.49-1,10l.64,6c-2.84,2.39-2.23,5.14-.81,8,.54,7.93-2.63,15.38-3,23.2C1993.16,176,1995.08,180.13,1995.28,184Z" style="fill:#e86462;"/><path d="M1813,179.27c-6.69-16.5-17.18-31.18-23.44-47.76-2.6-6.87-7.63-14-4.35-22.48a9.79,9.79,0,0,0-1.38-8.64c-2.19-3.28-2-7-2.06-10.61-.18-6.44.87-7.34,7.34-5.5,3.5,1,6.52-.62,9.7-.54,5.78.14,10.63,5.88,17.15,3.17.23-.1,1.49,3.29,2.77,4.55a47.9,47.9,0,0,1,13.36,22.83c1,4,3.19,8.18,6.59,9.6,5.77,2.42,6.61,7,7.52,11.82.73,3.91,1.11,7.89,1.57,11.84.19,1.62-.37,3.63.41,4.82,6.57,10,9.07,21.79,14.23,32.36a35,35,0,0,1,3.67,19.63c-.26,2.46.59,4.55.93,6.82,1.24,8.29-1.94,10.41-10,9-5.69-1-10.56-3.55-15.86-5.22-4.3-8.56-4.3-8.56-10.67-7.17l-1.24-4.23c-.09-7.09-3-12.19-10.08-14.43l-1.93-3C1820.06,181.28,1817.42,179.72,1813,179.27Z" style="fill:#e86462;"/><path d="M2181.62,115a14.55,14.55,0,0,1-.88,2.15c-7.75,12.13-7.56,27.26-15.36,39.52-5.53,8.68-7.23,19.17-9.72,29.08-1.37,5.47-4.32,9.1-8,13.08-5.82,6.26-13,10.23-20.1,14.38-5.71,3.32-15.65-2.11-15.49-8.54.24-9.47-.85-18.88-5.12-27.17-3.45-6.69-2.17-12.32,1.23-17.59,10.2-15.84,18-32.82,25.56-50,3.68-8.39,7.77-16.67,13.28-24.11,3.55-4.79,9-6.08,12.53-1.79,7.5,9.18,14.25,19,21.26,28.56A8.07,8.07,0,0,1,2181.62,115Z" style="fill:#e86462;"/><path d="M709.34,133.89c12.55-1.68,21.08,3.6,26.53,14.71,2.78,5.68,3,11.49,1.79,17.42-1.11,5.39-3.67,10.28-2.1,16.36,1.09,4.22-6.45,14-10.76,14.08-9.83.2-19.35,3.84-29.51,1.34-11-2.7-17.41-7.75-20.79-19.43-2.8-9.67-2.78-18.13.31-27.09a32.72,32.72,0,0,1,8.68-13.1c5.31-5,12.69-3.51,19.14-4.77C704.54,133,707.13,133.78,709.34,133.89Z" style="fill:#52b8cb;"/><path d="M603.42,390.07a48.17,48.17,0,0,1,3-6.91A29.3,29.3,0,0,0,603.42,390.07Zm2.2,22.06c-.08-1-.11-2-.1-3a10.8,10.8,0,0,0-1-5.67,18.62,18.62,0,0,1-1.13-2.48,14.13,14.13,0,0,0,1.12,2.64,10.75,10.75,0,0,1,1,5.63A27.08,27.08,0,0,0,605.62,412.13Zm137.15-72.89c.77-.43,1.55-1,2.35-1.54C744.32,338.15,743.54,338.73,742.77,339.24Z" style="fill:#fff;"/><path d="M886.18,400.46A30.61,30.61,0,0,0,878.72,387c-12.39-13-31.6-13.67-48.35-14.26-3.69-.13-7.42.06-11-.62q-12.73-2.41-5.79-12.82a90.31,90.31,0,0,0,7.39-14.08c3.85-8.64,7.77-17.52,8.28-27s-3.1-19.72-11.26-24.5c-4.4-2.57-9.65-3.32-14.74-3.27a41.11,41.11,0,0,0-6.89.66c-7.89.31-15,4.35-20.64,9.1l-.56.48c-9.16,6.76-16.83,16-22.66,25.26-1,1.61-3,2.78-2.92,4.88s.29,4-1.24,5.28a5.06,5.06,0,0,1-1.86.94,6.68,6.68,0,0,0-1.27.55.05.05,0,0,1,0,0c-.8.53-1.58,1.11-2.35,1.54h0a3.87,3.87,0,0,1-2.25.63c-4.79-.51-4.44-5.88-6.46-9.06-.67-1-.52-2.58-.93-3.83-3-9.22-9.64-16.59-13.14-25.57-.33-.85-1.33-2-2.06-2-7.32-.24-11.59-10.89-20.37-6-9.78-4-15.45,2.5-21.94,8a17.27,17.27,0,0,0-4,5c-2.69,4.35-3.19,9.4-4.43,14.39-2.71,10.89-3.18,21.56-.37,32.56.37,1.45,1.3,4,2.31,7,1.11,4.51,2.21,9,3.42,13.52a5.22,5.22,0,0,1-.41,2.59c-3.12,5.86-11.41-2.31-14.46-4.16-4-2.44-8.1-4.91-12.71-5.75-4.26-.78-8.63-.09-12.89.84a7.51,7.51,0,0,0-4.3,1,43.62,43.62,0,0,0-10.29,3.6,24.39,24.39,0,0,0-4.81,3.42,6.25,6.25,0,0,0-4.3,3.8c-.63,1.31-1.3,2.62-2,3.92a48.17,48.17,0,0,0-3,6.91,19.29,19.29,0,0,0-.12,10.7,2.45,2.45,0,0,0,.08.25,18.62,18.62,0,0,0,1.13,2.48,10.8,10.8,0,0,1,1,5.67c0,1,0,2,.1,3a.27.27,0,0,0,0,.09,38,38,0,0,0,4.81,14.93.41.41,0,0,0,0,.09,46.87,46.87,0,0,0,13.89,15.47,44,44,0,0,0,22.92,7.59c4.14.18,8.14-1.19,12.15-1.16,2.61,0,8,1.94,2.9,4.66-1.18.62-2.36,1.22-3.54,1.82h0l-.57.14a17.44,17.44,0,0,0-8.1,4.14c-11.81,5.85-23.34,12-32.18,22.72-3.08,3.74-5.81,7.88-7.11,12.54a24.4,24.4,0,0,0-.87,7.39,4.35,4.35,0,0,0,.64,5.5,52.28,52.28,0,0,0,6.79,16.18c3.32,5.45,6.91,12,12.87,14.74,7.51,3.43,16.68,2.81,24.26,0,9-3.33,18.11-9.77,25.76-17a54.8,54.8,0,0,0,9.88-9.4c1.74-2.17,3.68-2.47,5.34-1.2a0,0,0,0,1,0,0,8.33,8.33,0,0,1,1.13,1.58,12.48,12.48,0,0,1,1.25,7.59c-.82,9.68,1.14,18.68,6.93,26.83a7.87,7.87,0,0,0,.82,1,.76.76,0,0,0,.12.14c2.23,2.91,5.68,3.89,8,6.68,4.5,5.34,10.28,8.43,17.58,5,2-.92,3.89-.44,5.81.18,6.74,2.19,12.21-1.43,16-5.63,7.33-8.16,10.91-18.69,12.62-29.32,1-6.4,1.46-13,2.56-19.47.26-1.53-.45-3.49,2-3.79a2.48,2.48,0,0,1,.67,0,8,8,0,0,1,1.27,1.46c7.81,10.53,17,20.18,29.15,25.63a53.88,53.88,0,0,0,22.26,4.37,28.68,28.68,0,0,0,4.79.41,36.4,36.4,0,0,0,18.13-4.62c11-6.37,14.71-17.78,15.78-30a3.68,3.68,0,0,0-2.66-4c-.8-9.59-4.42-19-10.21-25.33-3.23-3.54-7.23-6.29-11.2-9l-15.77-10.78a2.76,2.76,0,0,0-2.74-2.13c-2.76-3.41,4.07-6.61,7.4-7.3a9.72,9.72,0,0,1,3,0c7.11,1.07,13.62-1.86,20.48-2.36a13.7,13.7,0,0,0,5.81-1.72c10.07-2.11,19.23-5.86,25.1-14.13,1.64-1,3.26-2.52,2.51-4a1,1,0,0,1-.07-.15,35.42,35.42,0,0,0,2-5A24,24,0,0,0,886.18,400.46ZM787,434.29c-1.39,4.29-1.57,8.95-2.51,13.36-1.19,5.57-3.91,9.49-7.19,13.33-6.33,7.42-13,14.56-22.11,18.78-1.87.86-3.61,2-5.58,1l-.17-.08a3.17,3.17,0,0,1-.83-.29q-.54-.27-1.08-.48c-4.37-1.46-8.66-.7-13,.89a6.78,6.78,0,0,1-3.89,0,121,121,0,0,1-15.19-5.14l-.66-.29A44.28,44.28,0,0,1,697.45,463c-8.42-10.2-13.88-21.3-14.09-34.73-.18-11.18,4.19-21,8.89-30.72,1-2.05,2.58-3.79,3.09-6.12,2.16-9.91,9-14.94,17.55-19.25l1.68-.84.61-.29c8.4-4.08,16.48-7.18,23.67-6.05,6,.32,9.62.41,13.26.75,2.32.22,4.58.82,5.85,3.19,3.46,6.4,10.24,8.05,16,11.3,6.56,3.73,9.93,10.33,12.16,17C790.13,409.37,791,421.79,787,434.29Z" style="fill:#fff;"/><path d="M700,690.22a13.09,13.09,0,0,0-1.83.78c-3.34,2.06-3.65-4.46-7.5-2.43-2.4,1.26-4.05,3.46-6.55,4.36-7.84,2.84-16.42,2.57-24.16,6.26-3.48,1.66-4.38-3.1-6.42-5-1.72-13.68-.78-27.35-.54-41.07.22-12.83-2.12-25.74-3.77-38.56-.95-7.32-1.23-7.87,6.06-9.06,14.62-2.39,29.31-4.38,44-6.53,3.72,3.94,7.35,1.93,11-.17,3.53.24,7.09.78,10.34-1.25a7.3,7.3,0,0,0,5.61,1c9.67-1.64,19.26-4.38,29.21-3.36,8.56.88,17-1.08,25.64-.3,7.22.65,14.3-1.38,21.1-4l4.75-.86c6.9-.28,13.82-.38,20.7-.94,3.51-.28,7.32.7,10.5-1.74l4.64-1.7a9.33,9.33,0,0,0,2.83.57c14.26-1.67,28.55-3.2,42.77-5.22,12.61-1.79,24.86-5.81,37.69-6.42a7.68,7.68,0,0,0,6-3c20.31-2.54,40.53-5.65,60.76-8.72,4.49-.68,8.86,1.66,13.63.61s9.9.45,14.31-2.83a4.75,4.75,0,0,1,3.87-.34c8.35,3.16,16.44-.41,24.47-1.33,6.54-.74,12.9,1,19.56-.64,6.27-1.52,12.7-2.68,19-4.3,7.74-2,10.83-.47,11.72,7.76.93,8.63,2.45,17.31,1.07,26.12-.5,3.19-.79,6.64.88,9.76a9.39,9.39,0,0,1,.58,7.7c-8.59,1.58-16.85,5.16-26,3.68-2.42-.39-5.16.59-7.72,1.55-9.26,3.5-18.6,6.28-28.66,7.37-6.65.72-13,3.38-20.13,2.75-2.76-.24-5.68,3-8.75,4.11-3.67,1.29-7.26,5.61-11.56.93-.39-.43-1.91-.14-2.75.2-9,3.63-18.39,5.18-28.06,5.73-11.27.64-22,4.38-33,6.63-9.59,2-19.45,3.26-28.73,6.89-17.09,6.69-35.62,6.66-53.17,11.09-10.51,2.65-21.21,4.36-31.7,7.29-8.81,2.46-18.26,4.85-28.15,3.8-6.77-.72-13.52,2.71-20.07,5.1-3,1.1-5.77,3.48-9.42,1.74-1.55-.74-1.52.41-.84,1.32.36.49,1.11.69,1.63,1-1.54.74-2.95,1.8-4.51,2.11-12.57,2.53-25.76,2.35-37.41,8.82-.27.15-.78.27-.94.13-4.72-3.9-9.06-.1-13.49.74C705.63,689,702.11,686.41,700,690.22Z" style="fill:#52b8cb;"/><path d="M1233.08,837.84c-9,3.1-16.46.39-22.09-6.64-3.66-4.57-8.54-8.45-10-14.6a5,5,0,0,0-1.51-2.5c-10.4-8.68-16-21-21.2-32.6-4.26-9.51-9-19.35-10.73-30.28-1.51-9.6-5.75-18.78-8.9-28.11a209.67,209.67,0,0,1-10.69-49.42c-.77-9.27-3.82-18.15-3.17-27.73s-1-19.14-1.38-28.73c-.35-9.26-.4-18.54-.43-27.81,0-9.61.12-19.22.18-28.83a47.23,47.23,0,0,1,0-5c.27-2.4,1.09-4.86,3.88-5.08,2.62-.21,2.7,2.42,3.4,4.18,2.87,7.17,3.53,14.79,4.79,22.31,3.8,22.54,6.86,45.2,10.48,67.76,1.6,10,2.11,20.41,4.3,30.22s3.3,20.27,8.37,29.38a15.15,15.15,0,0,1,2.21,6.54c.56,9.68,5.51,18,9,26.67,4.61,11.55,7.75,24,14.88,34.27,6.26,9.05,8.71,19.71,13.42,29.36,4.81,9.85,9.61,19.89,14.16,30C1232.78,833,1234.18,835.35,1233.08,837.84Z" style="fill:#52b8cb;"/><path d="M605.27,769.73c3.26-9,2.3-20.42,4.85-31.37a57.36,57.36,0,0,0,1.48-13.81c-.24-20.53-.82-41.06-1-61.59-.08-12.21-.38-24.52-1.28-36.76-.15-2-.51-4.22,1.93-5s3.55.89,4.74,2.65a9.45,9.45,0,0,1,1.46,8.52c-1.66,5-.34,9,3.51,12,2.39,1.89,2.93,4.24,3.39,6.88,2.24,13,5.75,25.92,6.45,39,.73,13.67,5.44,27,3.46,40.79-1.33,9.3,1.59,18.81-1.83,28-.84,2.24.42,4.54.62,6.81.64,7.18.22,14-2.73,21.1-2.52,6.07-2.59,13.48-2.43,20.27.28,11.29-5.74,21.09-6.57,32a3.14,3.14,0,0,1-2.34,3c-4.39.89-5,3-3.43,7.13.94,2.38-.07,5.65-1.84,7.52-3,3.14-3.43,7-4.66,10.77-2.28,6.87-9.67,8.26-14.16,12.84-1.75,1.79-4.31-1.05-4.79-3.45-1.44-7.11-3.07-14.11-1.53-21.59,3.18-15.53,4.85-31.43,9-46.67,2.58-9.45,4.27-19.08,7.05-28.43C605.59,777.29,605.9,774.57,605.27,769.73Z" style="fill:#52b8cb;"/><path d="M378.87,753.37c11.37-.07,20.59.44,27.45,8.32a33.13,33.13,0,0,1,2.7,2.84,4.14,4.14,0,0,1,0,4.72c-.84,1.28-2.28.8-3.62.65-16.55-1.88-31,3.67-45,12-14.64,8.71-25.13,22.26-38.8,32.16-5.53,4-8.56,11.58-12.46,17.71-8.62,13.56-16,27.73-20.84,43.14a7.93,7.93,0,0,1-1.43,2.57c-2.26,2.76-3.78,7.29-7.65,7.15s-5.28-4.35-7.19-7.52c-10.91-18.11-7-35.87,1.76-53a98.21,98.21,0,0,1,27.75-33.82c16.38-12.41,31.73-26.76,52.18-32.61C362.52,755.08,371.37,752.17,378.87,753.37Z" style="fill:#52b8cb;"/><path d="M1201.83,597.28c7.05,7.35,8.06,17.22,10,26.38a324.17,324.17,0,0,0,17,53.89c4.9,12.08,9.91,24.3,15.7,35.91,5.15,10.33,8.46,21.43,14.25,31.39,1.19,2,2.61,4.17,2.37,6.46-.36,3.55,3.83,6.91.67,10.28-2.24,2.38-13.77.77-16.82-2.07-7.63-7.08-12.91-15.88-17.54-25-5.37-10.61-7.1-22.49-11.05-33.6a19.15,19.15,0,0,0-.91-2.84c-11.62-21.12-13.93-44.45-16.58-67.81-1.13-10-2.61-19.74.77-29.52C1200.13,599.49,1200.28,598.17,1201.83,597.28Z" style="fill:#52b8cb;"/><path d="M356.17,902.27c-1.4-4.49-4-7.58-6.54-10.57-13.45-16.06-10.22-29.42-1.77-44.79,5.88-10.69,15.69-17.91,25.07-25.14,8.61-6.63,18.22-11.91,28-16.84a45.91,45.91,0,0,1,16-5.17c1.83-.19,3.93-2.06,5.23.51,1.13,2.24.59,4.23-1.44,6.18q-8.59,8.27-16.72,17c-6.06,6.51-12.15,13-17.72,20-3.69,4.58-7.42,9.38-8.25,15.6a8.78,8.78,0,0,1-2.29,5.42c-5,4.82-5.34,11.11-5.6,17.43a41.56,41.56,0,0,1-1.13,9.87C367.22,898,362.12,900,356.17,902.27Z" style="fill:#52b8cb;"/><path d="M1539.6,751.92c-9.81,9-20.22,3.47-30.34,1-14.12-3.39-27.49-10-42-11.58-11.48-1.26-23.2-.18-34.8-.59-8.81-.31-17.52.46-26.25,1.16-8.89.71-17.85.46-26.7,2-1.79.31-3.94,1-6.15-1.36,3.4-3.66,8.16-4.73,12.44-6.12,21.2-6.87,43.15-10.32,65-14.17,10.28-1.81,21-2.2,30.41.27,13.1,3.44,28.12,3.21,38.48,14.39,7.56,1.53,12.77,6.73,18.1,11.7C1538.77,749.48,1540,750.29,1539.6,751.92Z" style="fill:#52b8cb;"/><path d="M560.3,702.5c1.95,10.5-1,21.82-.84,33.32.11,10.31-3.09,20.74-5.54,31-1.62,6.77-13.29,12.13-20.15,10.11-2-.59-2.8-2-2.21-3.71,2.55-7.47.68-14.19-2.64-21-1.93-3.94-1.51-8.17.14-12.56,2.19-5.83,4.29-11.77,4.89-18.13.49-5.21,3.64-9.61,5.06-14.69,3.42-12.25,4.21-24.57,4.72-37.06a45.46,45.46,0,0,1,.4-5c.5-3.29,3-4.12,4.81-2,2.49,3,5.95,5.51,6.89,9.54C558.09,681.95,562,691.3,560.3,702.5ZM536,724.33l-.62-.7-.62.67,1,.62Z" style="fill:#52b8cb;"/><path d="M468.63,843.17c-5.32,13.81-10.12,27.75-14.11,42.07-3.49,12.55-10,24.33-15.9,36.08-2.64,5.27-8.93,6.88-14.18,8.51-3.3,1-6.18-1.72-6.62-5.66-.81-7.26-1.56-14.54-2.49-23.23,1.66-9.53,5.07-19.66,12.23-28.23s14.85-17,21.71-25.87c4.31-5.6,10.13-6.94,16.28-7.87C468.29,838.55,470,839.73,468.63,843.17Z" style="fill:#52b8cb;"/><path d="M1252.24,591.37c1.69,0,2.84.44,3.43,1.85q1.7,4.13,3.37,8.26c3.59,8.94,6,18.27,9.89,27.19,3.26,7.42,6,15.33,8.78,23.08,4,10.88,9.73,20.78,15.4,30.77a124.86,124.86,0,0,1,8.09,15.92c2.2,5.63.14,7.26-6,6.93-7.9-.42-13.46-4-18.53-9.94-12.91-15.25-19.32-32.74-22.3-52.38-1.63-10.73-4.23-21.36-4.8-32.27-.28-5.29,0-10.61.16-15.92C1249.78,593.2,1250.33,591.56,1252.24,591.37Z" style="fill:#52b8cb;"/><path d="M1442.47,774.07c18.76-1,33.51,5.65,47.82,13.54a14.42,14.42,0,0,1,6.11,6.23c2.35,4.61,8.67,9.38,6.15,13.72-3.17,5.45-11,2.84-16.65,2.46-9.88-.67-18.31-6.11-26.18-11.5-6.8-4.66-14.11-7.14-21.79-9.18-9-2.39-18-4.74-27.37-5.12-1.38-.06-2.93-.39-2.93-1.89a4.4,4.4,0,0,1,1.71-3.39c2.31-1.19,4.91-2.53,7.4-2.52C1426,776.42,1434.87,771.88,1442.47,774.07Z" style="fill:#52b8cb;"/><path d="M477.89,740.27C479.1,728,483,715,488.1,702.52c5.44-13.37,11.5-26.45,15.1-40.48.41-1.61.48-3.57,2.5-3.73,1.69-.13,3,1.17,4.17,2.4,2.48,2.66,2.92,6,2.61,9.32-2,21.63-4.26,43.34-12.79,63.54a37.65,37.65,0,0,1-12.82,15.72c-2.12,1.5-4.21,3.54-7.15,1.64-2.44-1.58-1.7-4.09-1.83-6.33C477.84,743.61,477.89,742.61,477.89,740.27Z" style="fill:#52b8cb;"/><path d="M1574.91,709.79c-7.11,3.28-13.3-.42-19.13-2.68-12.6-4.89-24.56-11.41-37-16.77-10.35-4.47-21.48-6.29-32.57-7.9a14.36,14.36,0,0,1-6.45-2.22c-4.83,2-9.89,1.27-14.78.8-12.33-1.19-24.34,2.9-36.63,1.87-11.14.93-22,3.55-33.22,4.54-8.28.73-16.28,4.69-25.39,7.51,1.89-5.73,6-7.89,10.22-10.07a178.24,178.24,0,0,1,55.08-18.23l.53-.54.72.19c2.88-.35,5.77-1.05,8.62.11a.73.73,0,0,1,1.15-.23,3.32,3.32,0,0,1,2.92-2.3c19.82-1.5,39.65-3.18,59.43.31a54.73,54.73,0,0,1,20,7.56,26.71,26.71,0,0,0,5.38,2.39c16.41,6,30.41,15.68,42.88,27.68C1581.29,706.27,1580.69,707.13,1574.91,709.79Z" style="fill:#52b8cb;"/><path d="M843.1,585.14c-.13.17-.26.35-.38.54h0Q842.91,585.4,843.1,585.14Z" style="fill:#e86462;"/><path d="M807,589.62c0,.14-.1.29-.14.43h0C806.91,589.9,807,589.76,807,589.62Z" style="fill:#e86462;"/><path d="M2116.18,525.4c-1.7,18-2.34,36-7.87,53.11-2.91,9-4.82,18.54-10.8,26.34-1.21,1.58-2.13,3.6-3.69,4.67-3.3,2.26-7.46,3.7-11,1.81-3-1.6-1.79-5.47-1-8.28a34.79,34.79,0,0,0,1.23-10.86,18.33,18.33,0,0,1,2.15-9.66c8.6-15.27,10.3-32.48,14.35-49,1.2-4.91,1.26-9.87,1.54-14.86.23-4.18-.55-8.73,4.5-11.26,1.86-.93,2.16-3.32.4-5.12-1.17-1.19-2.63-2.19-2.66-4-.06-3.12.7-6.35,3.75-7.44,3.24-1.16,4.47,2,5.72,4.33a7.7,7.7,0,0,1,1,2.78C2114.67,507.15,2115.42,516.39,2116.18,525.4Zm-20.86,59.13a8.63,8.63,0,0,0-.59,1.57c0,.16.63.62.65.59.39-.35.95-.74,1-1.16S2095.7,584.87,2095.32,584.53Z" style="fill:#e86462;"/><path d="M2063.89,556.6c-.81,12.16-.48,24.48-3.84,36.42-1.21,4.3-3.66,7.32-6.61,10.6-2.6,2.88,1.11,8.23-1.73,12-3.9,5.23-5.14,12.34-11.74,15.69-5.76,2.92-7.26,2.12-7.84-4.17-1.42-15.25,2.55-29.33,8.71-43,4.34-9.64,6.45-20,10-29.91,1.74-4.81,1.58-10.65,7.51-13.25,3.19-1.39,5.27-1.2,5.47,2.64C2064.06,548,2063.89,552.28,2063.89,556.6Z" style="fill:#e86462;"/><path d="M2006.19,551.21c7.33,4.89,5.56,11.92,4,18.35-3.35,13.46-7.46,26.72-11,40.13-2.81,10.6-9.44,18.88-16,27.17-2,2.58-5.09,4.77-8.67,3.52s-3.22-4.71-3.35-7.66a62.4,62.4,0,0,1,11.47-39.25c7.22-10.37,12.24-21.91,18.31-32.89C2002.6,557.44,2003.7,553.94,2006.19,551.21Z" style="fill:#e86462;"/><path d="M1974.66,1104.14a1.49,1.49,0,0,1,.85,1.74,1.74,1.74,0,0,1-2,1.5,1.59,1.59,0,0,1-1.59-1.88C1972.11,1104.5,1972.87,1104,1974.66,1104.14Z" style="fill:#f4bb19;"/><path d="M1947.77,1462.86c-.09.33.49-.63,1.49-.18.56.25,1,1.46,1,2.24s-.55,1.91-1.75,1.46C1947.56,1466,1947.22,1465.14,1947.77,1462.86Z" style="fill:#f4bb19;"/><path d="M1699.83,1056.36c-.53.27-1.11.84-1.57.75a1.23,1.23,0,0,1-.83-2,1.68,1.68,0,0,1,1.63-.31C1699.48,1055,1699.58,1055.8,1699.83,1056.36Z" style="fill:#f4bb19;"/><path d="M881.91,1038c-5.67-.29-11.06,1.5-17.22-1.33-5.54-2.54-13-1.11-19.56-1.16-5.57,0-10.81.47-16.42-2.19-6.07-2.87-13.61-1.38-20.15-3.89-1.85-.71-4.3-.65-5.59-1.87-8.63-8.18-19.76-13.42-27.13-23.07-.81-1.05-1.5-2.44-2.59-3-9.6-4.81-11.39-14.32-13.69-23.24-2-7.59-4-15.15-3.9-23.28.29-19.09,9.76-33.36,21.33-47.52,7.21-8.83,15.53-10.06,25.31-10.06a60.55,60.55,0,0,0,9.9-.7c4-.66,7.73-1.07,11.74.35,3.43,1.22,7.19,1,10.86.35a76.74,76.74,0,0,1,21.07-.55c5.8.56,11.82-1.43,17.66-1,11.69.81,23.25-.76,34.62-2.35,9.63-1.35,19.26-3.49,28.51-8,10.27-5,20.76-10.33,32.24-12.49,13.34-2.51,26.12-.17,38.33,5.41a14.72,14.72,0,0,1,5.3,4.45,189.81,189.81,0,0,0,19.56,22.3c.7.67,1.83,1.63,1.73,2.29-1.41,9,3.8,16.86,4,25.55a14.43,14.43,0,0,1-.79,5.85c-.61,1.54-2,3.08-1.88,4.57.63,11.93-4.94,21.83-10.07,31.9-4.59,9-11.84,16-19.2,22.46-12.52,11-27.45,17.34-43.4,22.79-11.82,4-24.55,5.4-35.76,11.54-5.56,3-12.41,1.63-18.61,2.33C899.37,1035.35,891,1039.34,881.91,1038Zm70.68-112.2.23-.16c-10.24-.63-18.21,5.83-27.32,8.71-9.33-1.19-18.09,2.71-27.24,3.05-5.2-.92-10.4-1.83-15.51.42-4.93-4.6-11.78.2-17.3-3.59-1.61-1.11-5.95,1.74-9,2.78-5.64-.56-11-3.16-16.8-2.53-3.53-.8-7.12-1.27-10.66-2.1s-7.66-2.78-11.55-.33c-4.42-.95-8.69.49-12.73,1.62-4.38,1.23-9.39,3.2-11.19,7.65-3.31,8.17-2.47,16.75.41,25s9.7,13.9,15.37,20.21a16.08,16.08,0,0,0,7.54,4.67c16.49,4.87,33.66,6.2,50.38,9.84a17.63,17.63,0,0,0,3,.26c20.21.87,40-1.78,59.59-6.63,5.06-1.26,10.18-1.77,15.29-3.64a164.83,164.83,0,0,0,31-15.58c8.08-5.08,17.41-10.17,19.95-20.8,1.47-6.16-.85-13,.65-18.73,2.48-9.46-6.39-14.61-6.36-22.69,0-.34-1.48-.86-2.32-1-2.3-.35-4.62-.54-6.93-.79-9.27,2.49-18.41,5.3-26.26,11.14Z" style="fill:#e86462;"/><path d="M961.28,704.12a10,10,0,0,0,10-2.77c3.78-4.06,8.24-5,13.46-5.08,3.27,0,6.56-1,9.78-1.82a48.81,48.81,0,0,1,27.94,1.28,5.81,5.81,0,0,0,3.64,0c6.35-1.57,11.71.37,16.45,4.68a10.48,10.48,0,0,0,4.3,2.41c14.32,3.53,23.86,13.2,32,24.68.94,1.33,2.09,2.82,2.28,4.34,1.17,9.26,6.23,17.3,8,26.36,1.9,9.68-.68,19.13-1.81,28.54-1.08,9-3.29,18.07-9.1,25.75-1.26,1.66-4,3.63-2.22,6.91.82,1.49-.25,3.57-1.51,4.46-8.71,6.18-16.13,14.35-27.2,16.91-3.76.87-7.23,3.14-10.7,5-7.73,4.17-15.52,7.5-24.57,4.37-2.28-.79-4.57.07-6.77.88-11,4-21.56,4.9-32.14-1.83-3.74-2.38-8.82-2.57-13.18-4.07-5.6-1.92-11-4-14.77-9.24-6.45-8.95-13.56-17.39-20.77-25.75-3.26-3.78-1.63-9.72-3.24-14.72-3.59-11.15-2.47-22.79,1.55-34C926.56,750.7,929,739.43,934.1,729c1.95-4,3.87-7.59,7.18-10.3,4.88-4,10-7.72,13-13.44C956.23,701.37,958.75,704,961.28,704.12Zm.62,71.21c.39,3.91,1.38,7.88,1,11.72a23.36,23.36,0,0,0,12.25,23.24c7.25,3.92,12.47,15.22,23.82,9.52.89-.44,2.5.38,3.71.8,6.38,2.2,10,1.18,14.45-4.05.81-.94,2.52-2.48,2.88-2.26,7.27,4.55,10.38-3.77,15.54-5.43,4.75-1.53,9.09-6.45,12.08-10.91,5.56-8.3,8.77-17.55,5.54-27.88a8.27,8.27,0,0,1-.2-4.88c2-5.61-1.2-10.16-4-13.66-3.29-4.08-6.37-7.44-5.22-13a3.27,3.27,0,0,0-1.82-3.31c-4.19-2.56-8.14-6.22-12.7-7.36-15.71-3.92-30.72-1.72-44.1,8S960.78,756.88,961.9,775.33Z" style="fill:#fff;"/><path d="M842.53,813.49a.6.6,0,0,1,.06.19l.08,0A2.08,2.08,0,0,0,842.53,813.49Z" style="fill:#fff;"/><path d="M842.58,760.62c-3.19-6.05-3.34-14.18-11.66-16.77-.9-.28-1.73-2.09-1.85-3.27-.51-5-4.31-8.66-5.33-13.42-8.16-15.52-24.42-16.5-38.55-20.91a14.63,14.63,0,0,0-10.6,1c-3.3,1.82-8.91-2.12-10,1.38-2,6.3-6.88-3.62-7.82,2.18L748.35,717c-1.52-.95-2.53-.28-3.34,1.05a4.65,4.65,0,0,0-5,0c-2.81-1.5-5.24-1.89-8.13.48a84.57,84.57,0,0,1-16.32,10.93,104.26,104.26,0,0,0-11,6c-4,2.64-6.29,8.05-9.23,12.33-4.09,6-5.17,13.45-8.69,19.45-7,12-7.91,24.57-6.26,37.6.35,2.77-1.1,7,3,8.76.19,2.18.39,4.36.58,6.54,2.93,1,2.31,3.14,1.72,5.27l1.88,2.64c6.76,3.45,7,11.1,10.72,16.52a34.92,34.92,0,0,0,13,12.46c8.69,4.76,17.62,9.24,27,11.35,5.4,1.21,10,5.86,15.6,4.44,5.08-1.29,9.81-.08,14.69,0,4,.06,8.14.38,11.68-1.7,10.74-6.3,23.92-6.64,34.09-15,3.56-2.93,8.41-4.43,11.12-8.89a13.52,13.52,0,0,1,4.42-3.88c1.78-1.11,3.31-2.26,3.45-4.48.46-7.88,5.75-13.62,9.08-20.19,1-2,1.65-3.32.24-5l-.08,0c.21.71-.28,1.54-.59,1.31-1.66-1.23-.16-1.12.59-1.31a.6.6,0,0,0-.06-.19,2.08,2.08,0,0,1,.14.17h0c-.12-1.34-.31-3.11.94-3.61,5.09-2,4.51-5.6,5.17-10.39C850.7,785.73,849.06,772.92,842.58,760.62Zm-31.71,40c-.81,1-1.83,2.48-1.62,3.52,1.65,8.39-4.12,14.74-8.5,19.16-9,9.07-19,18.55-35.18,15.83-1.51.18-4.13.47-6.75.81a14.78,14.78,0,0,1-8.71-1.2c-17.22-8.82-29.19-21.57-29.38-42.06-.09-8.85,2.11-17.63,7.65-24.81,7.6-9.85,16-19,29.15-21.39,9.06-1.63,18.14-3.36,26.51,2.75a11.41,11.41,0,0,0,6.43,2.16c5.77-.1,8.83,4,12.29,7.33,1.36,1.32,1.65,3.87,3.71,4.47,6.47,1.88,7.41,6,4.68,11.41a5,5,0,0,0,.35,5.47C814.88,789.69,815.35,795.26,810.87,800.65Z" style="fill:#fff;"/><path d="M969.74,686.79c-6.25.57-12.42,1.66-18.73,1.46-12.29-.4-14-3.15-9.17-14.36,2-4.54,4.69-7.08,10-8.42A246.75,246.75,0,0,1,988,659.34c7.91-.8,15.77-2.12,23.64-3.29s15.77,1.47,23.57-1.36c1.88-.68,4.5.47,6.72,1,1.34.34,2,1.38,1.91,3-.41,8.51-7.79,17.49-16.41,19.24-11,2.23-22.08,4.47-33.31,5C985.8,683.38,978.08,687.06,969.74,686.79Z" style="fill:#e86462;"/><path d="M700,690.22c2.1-3.81,5.62-1.26,8.43-1.79,4.42-.84,8.77-4.64,13.49-.74.17.14.68,0,.94-.13,11.64-6.47,24.84-6.28,37.41-8.82,1.56-.31,3-1.38,4.51-2.11,7.29-.91,14.51-1.91,21.75-2.65a23.25,23.25,0,0,1,10.78,1.73c4,1.54,6.34,5.36,3.92,8.5-3,4-2.09,4.64,1.79,5.78,1.63.48.83,3.11.14,2.86-4.82-1.7-5,4.53-8.74,4.68-5,.21-9.77,2-14.86,1.6-15.75-1.09-30.92,4-46.52,4.57-6.73,5.31-14.7,1.22-22,2.82-6.94,1.52-10-2-10-9.46A17.46,17.46,0,0,0,700,690.22Z" style="fill:#e86462;"/><path d="M744,933a88.2,88.2,0,0,1-31.82-23.43c-2.82,2.33-3,4.37-2.66,6.9,1.29,8.5,1.45,17.16,4.15,25.48,1.32,4.06.17,6.33-4.95,7.43-6.67,1.43-11.73-.52-17.22-3.63-9.78-5.54-19.76-10.67-27-19.66-1-1.29-2.32-2.39-2.54-4.17,9.65-4.07,14.2-3,21.5,3.57,4.79,4.33,10.3,7.88,16.22,12.33-.77-11.5-2-21.95-1-32.42.32-3.29,1-6.55,1.36-9.84.46-4.76,3.79-5,7.56-6,4.29-1.13,8.71-.1,9.52,2.94C721.52,908.61,735.7,917.92,744,933Z" style="fill:#e86462;"/><path d="M1091.45,880.75c7.84-10.86,13.14-20.37,15.65-31.12,1-4.21,2.82-3.75,5.56-2.43,5.78,2.78,8.19,9.14,5.22,14.85a211.77,211.77,0,0,1-17.15,28c-1.79,2.43-3.74,4.73-4.2,7.78-.5,3.3-.34,7-4.9,7.41-3.81.32-9.63-4-10.33-7.86-1-5.85-1.67-11.79-2.33-17.7-.26-2.3.09-4.68-.26-7-.3-2,1.55-5.24-2.07-5.56-2.62-.24-3.21,2.42-4.47,4.44-5.54,9-12.17,17.11-19.77,25.58-2.58-4.21-1.59-7.4.12-10.7,6.29-12.12,14.27-23.13,22.3-34.1,2.41-3.29,7.1-2.8,9.84,1a22.92,22.92,0,0,1,4.67,12.91C1089.43,870.53,1090.39,874.56,1091.45,880.75Z" style="fill:#e86462;"/><path d="M687.62,828.08c6.76,3.44,7,11.1,10.72,16.52-3.84.4-4.72-2.88-6-5.21C690.34,835.83,688.34,832.2,687.62,828.08Z" style="fill:#f2b2ab;"/><path d="M684,820.17c2.92,1,2.3,3.14,1.71,5.27C682.11,824.67,682.78,822.51,684,820.17Z" style="fill:#f2b2ab;"/><path d="M1031.32,1342.33c.37-9.61,5-16.76,8.55-24.07,6.93-14.15,14.64-27.92,22.07-41.82,2.65-5,6.6-9.18,8.1-14.78.53-2,1.55-3.76,4.1-3.52,2.19.21,3.55,1.63,4.6,3.41,2.16,3.67.3,6.88-.87,10.38-6,18-15.87,34.24-23.75,51.38-3.6,7.83-7.3,15.45-8.33,24.28-.72,6.17-3.86,7-8.74,3.11C1034.07,1348.34,1029.51,1346.73,1031.32,1342.33Z" style="fill:#fff;"/><path d="M1073,1351.55c-.37-6.55.42-12.1,3.66-17,8.2-12.46,15-25.75,23.29-38.17.73-1.1,1.52-2.41,3.08-2a3.15,3.15,0,0,1,2.42,3.77,56,56,0,0,1-2.3,9.64c-5.35,14.26-10.86,28.47-16.4,42.66a26,26,0,0,1-7.15,10.64c-1.29,1.11-2.76,2.15-4.46,1.7-1.92-.51-2.07-2.39-2.12-4.05C1072.92,1356.07,1073,1353.41,1073,1351.55Z" style="fill:#fff;"/><path d="M1130.65,1320.82c3.44,3.21,4,6.71,2.88,10.33-2.75,8.78-5.77,17.48-8.65,26.22-.82,2.49-2.9,3.67-5,4.51-2.89,1.15-6,4.17-9.08,1.31s.53-5.15,1.37-7.8C1116.18,1342.75,1125.11,1332.87,1130.65,1320.82Z" style="fill:#fff;"/><path d="M787,434.29c-1.39,4.29-1.57,8.95-2.51,13.36-1.19,5.57-3.91,9.49-7.19,13.33-6.33,7.42-13,14.56-22.11,18.78-1.87.86-3.61,2-5.58,1l-.17-.08a14.35,14.35,0,0,0-1.91-.77c-4.37-1.46-8.66-.7-13,.89a6.78,6.78,0,0,1-3.89,0,121,121,0,0,1-15.19-5.14l-.66-.29A44.28,44.28,0,0,1,697.45,463c-8.42-10.2-13.88-21.3-14.09-34.73-.18-11.18,4.19-21,8.89-30.72,1-2.05,2.58-3.79,3.09-6.12,2.16-9.91,9-14.94,17.55-19.25l1.68-.84.61-.29c8.4-4.08,16.48-7.18,23.67-6.05,6,.32,9.62.41,13.26.75,2.32.22,4.58.82,5.85,3.19,3.46,6.4,10.24,8.05,16,11.3,6.56,3.73,9.93,10.33,12.16,17C790.13,409.37,791,421.79,787,434.29Z" style="fill:#f4bb19;"/><path d="M536,724.33l-.27.59-1-.62.62-.67Z" style="fill:#e86462;"/><path d="M925.49,934.31c9.12-2.88,17.09-9.34,27.32-8.71a16.12,16.12,0,0,1,2.27,10.29,20.5,20.5,0,0,0,4.85,16.74c5.83,6.82,16.16,6.08,21.14-1.74,4.16-6.54,3-13.84,4-20.82a26.61,26.61,0,0,0-4-18.7c2.31.25,4.63.44,6.93.79.84.13,2.32.65,2.32,1,0,8.07,8.84,13.22,6.36,22.69-1.5,5.7.82,12.57-.65,18.73-2.54,10.63-11.87,15.72-19.95,20.8A164.83,164.83,0,0,1,945,991c-5.11,1.87-10.23,2.39-15.29,3.64-19.54,4.85-39.39,7.5-59.59,6.63a17.63,17.63,0,0,1-3-.26c-16.72-3.64-33.89-5-50.38-9.84a16.08,16.08,0,0,1-7.54-4.67c-5.67-6.31-12.45-11.89-15.37-20.21s-3.72-16.8-.41-25c1.8-4.44,6.82-6.42,11.19-7.65,4-1.13,8.31-2.57,12.73-1.62.74,2-.4,3.93-.38,5.87.08,8,.42,16,5.26,22.82,2.12,3,5.22,5.54,9.32,4.66,3.67-.78,2.22-4.21,2.74-6.63a9.68,9.68,0,0,1,1.56-2.51,28.14,28.14,0,0,0,3.72-21.78c5.82-.63,11.16,2,16.81,2.52q-.39,2.37-.79,4.76a29,29,0,0,0-3.24,9.92c-.29,1.95-.25,3.88,2.13,4.67l1.34,3.47c-1.53.36-2.54,1.7-1.94,2.85,2.06,3.93,10.9,6.41,15.94,4.75,8.66-.08,12.87-4.39,12.88-13.17q0-8.21,0-16.43c5.11-2.25,10.31-1.34,15.51-.42.25,1.29,1.14,2.94.65,3.8-4,7.08,1.37,13.31,1.58,20,.05,1.57,1.34,1.89,2.52,2.55,5.33,3,10.42,3.55,15.15-1,1.4-1.35,2.39-2.89,4.7-3.17,5.08-.61,6.25-4.68,7.29-8.88C931.72,944.24,928.88,939.23,925.49,934.31Z" style="fill:#213f4d;"/><path d="M981.05,911.38a26.61,26.61,0,0,1,4,18.7c-1,7,.21,14.27-4,20.82-5,7.83-15.31,8.57-21.14,1.74a20.5,20.5,0,0,1-4.85-16.74,16.12,16.12,0,0,0-2.27-10.29l-.23.16c2.4.05,2.52-1.45,2.21-3.24C962.64,916.67,971.78,913.87,981.05,911.38Z" style="fill:#fff;"/><path d="M925.49,934.31c3.39,4.91,6.23,9.93,4.65,16.32-1,4.2-2.21,8.27-7.29,8.88-2.31.28-3.3,1.82-4.7,3.17-4.74,4.55-9.82,4-15.15,1-1.18-.66-2.47-1-2.52-2.55-.21-6.66-5.59-12.88-1.58-20,.49-.87-.4-2.51-.65-3.8C907.4,937,916.16,933.12,925.49,934.31Z" style="fill:#fff;"/><path d="M882.74,937.78v16.43c0,8.78-4.23,13.09-12.88,13.16-5,1.67-13.88-.8-15.94-4.74-.61-1.14.4-2.48,1.94-2.84-.45-1.16-.9-2.32-1.34-3.47-2.38-.8-2.43-2.73-2.13-4.68a28.92,28.92,0,0,1,3.23-9.92c.27-1.59.53-3.18.79-4.76,3.08-1,7.42-3.88,9-2.77C871,938,877.8,933.19,882.74,937.78Z" style="fill:#fff;"/><path d="M839.61,934.44a28.14,28.14,0,0,1-3.72,21.78,9.68,9.68,0,0,0-1.56,2.51c-.52,2.42.93,5.85-2.74,6.63-4.09.87-7.2-1.7-9.32-4.66-4.84-6.79-5.18-14.84-5.26-22.82,0-1.94,1.12-3.85.38-5.87,3.89-2.45,7.93-.51,11.55.33S836.08,933.64,839.61,934.44Z" style="fill:#fff;"/><path d="M954.8,922.52c.31,1.79.19,3.29-2.21,3.24Z" style="fill:#213f4d;"/><path d="M961.9,775.33c-1.12-18.45,9.81-29.76,23.25-39.51s28.38-11.91,44.1-8c4.56,1.14,8.51,4.8,12.7,7.36a3.27,3.27,0,0,1,1.82,3.31c-1.15,5.6,1.93,9,5.22,13,2.83,3.5,6,8.05,4,13.66a8.27,8.27,0,0,0,.2,4.88c3.23,10.33,0,19.58-5.54,27.88-3,4.46-7.32,9.39-12.08,10.91-5.16,1.66-8.27,10-15.54,5.43-.36-.23-2.06,1.31-2.88,2.26-4.5,5.23-8.08,6.25-14.45,4.05-1.21-.42-2.83-1.24-3.71-.8-11.36,5.7-16.57-5.6-23.82-9.52A23.36,23.36,0,0,1,962.94,787C963.28,783.2,962.28,779.24,961.9,775.33Z" style="fill:#213f4d;"/><path d="M765.57,839.16c-1.51.18-4.13.48-6.74.81a14.7,14.7,0,0,1-8.71-1.2c-17.22-8.82-29.19-21.57-29.38-42.06-.08-8.85,2.11-17.63,7.65-24.81,7.6-9.85,16-19,29.16-21.39,9.06-1.63,18.13-3.36,26.51,2.75a11.4,11.4,0,0,0,6.43,2.16c5.77-.1,8.83,4,12.29,7.34,1.36,1.32,1.65,3.87,3.71,4.47,6.47,1.88,7.41,6,4.68,11.41a5,5,0,0,0,.35,5.47c3.38,5.59,3.85,11.16-.63,16.55-.82,1-1.83,2.48-1.63,3.52,1.65,8.39-4.12,14.74-8.5,19.16C791.78,832.4,781.7,841.88,765.57,839.16Z" style="fill:#213f4d;"/><path d="M842.53,813.5c.37.74-.19,1.74-.53,1.49-1.74-1.28,0-1.1.69-1.34Z" style="fill:#f4bb19;"/></g></g></svg>