<?xml version="1.0" encoding="iso-8859-1"?>
<!-- Generator: Adobe Illustrator 23.0.0, SVG Export Plug-In . SVG Version: 6.00 Build 0)  -->
<svg version="1.1" id="Layer_1" xmlns="http://www.w3.org/2000/svg" xmlns:xlink="http://www.w3.org/1999/xlink" x="0px" y="0px"
	 viewBox="0 0 2129.7 2269.3" style="enable-background:new 0 0 2129.7 2269.3;" xml:space="preserve">
<path style="fill:#B1E7F1;" d="M2129.7,1135.5c-1.1,0.8-1.8,2-1.8,3.4c0.1,16.2-6.2,31.1-10.9,46.2c-3.2,10.6-9,20.5-14.8,30.1
	c-3.2,5.2-9,8.8-14.4,11.8c-2.9,1.6-5.6,0.4-6.2-3.8c-1-7.2,2.8-12.9,6.1-18.4c12.9-22,24.5-44.5,32.2-68.8c0.6-1.9,1.2-3.8,1.6-5.7
	c0.6-2.5-1.2-6,1.6-7.3c3.9-1.7,4,3.6,6.6,4.6L2129.7,1135.5z"/>
<path style="fill:#4AB6CA;" d="M1037.8,647.9c-0.4-1.4-1.6-2-2.3-3c-5.5-7.4-8.7-16.3-16.1-22.6c-2.2-1.8-3.5-5.4-6.5-7.1
	c-2.6-1.4-4.9-3.2-5.9-6.4c-1.8-5.7-7.1-8.2-11.5-11.5c-3.2-2.4-6.9-1-10.4-2.4c-19.1-7.9-39.2-11-59.8-10.6
	c-5,0.1-9.9,1.1-14.9,1.1c-22,0-40.9,8.8-58.6,20.7c-12.1,8.1-22.9,17.8-29.2,31.5c-0.7,1.5-1.8,2.8-3.1,3.9
	c-6,4.8-8,11.8-10.8,18.4c-1.3,2.9-0.8,6.6-4,8.7c-2.2-6.1-3-13.1-11.5-13.8c-1.1-0.1-2.1-1.5-3.2-2.1c-6.8-3.7-12.1-9.4-20.3-11.2
	c-7.6-1.7-14.7-5.5-18.9-12.9c-1.6-2.7-3.9-4.4-7.3-5.7c-7.8-2.9-15.4-6.2-23.4-8.7c-3-0.9-5.9-2.5-7.5-4.6
	c-5.8-7.7-15-9.3-22.9-12.1c-6.2-2.2-12.9-4.4-19.9-5.2c-6.7-0.8-14.6,1.3-20-5.2c-10.6,1.5-18.7-6.3-28.4-7.8
	c-5-0.8-9.6-1.6-13.5-4.9c-3.4,0.8-5.5,3-7.4,6c-3.4,5.3-6.5,10.8-9.9,16.1c-7.4,11.7-19.2,19.4-26.9,30.4
	c-5.9,8.4-16.1,12.4-19.9,22.3c-0.7,1.7-2.5,1.9-3.9,2.7c-9.2,5.5-18.1,11.6-26.7,18.2c-3.6,2.9-7.2,6-12.3,5.6
	c-2.2-0.2-3.5,1.7-5.1,2.5c-8.4,3.9-16.8,8.5-25.7,10.5c-2.9,0.6-5.8,1.6-8.5,2.8c-3,1.4-6.2,4.3-9.6,4.1c-4.1-0.2-8.1,2.2-11.7,1.1
	c-3.6-1.1-6.4,0-9.6,0.6c-17.2,3.2-34.5,6-51.7,9.6c-6.5,1.4-12.4-0.8-18.4-1.6c-19.9-2.9-40.1-3.7-59.9-7.4
	c-3.5-0.6-6.9-1.9-10-3.8c-5.6-3.4-11.4-6.9-18.4-6.4c-1,7.3-7.1,10.8-11.6,15.4c-10.4,10.6-19.9,22.1-28.3,34.4
	c-5.2,7.7-8,17-15.7,23.1c-2.1,1.7,0.7,4.9-1,7.5c-8.5,13-14.9,27.1-21.6,41c-1.3,2.7-1.1,5.9-3.2,8.3c-6.1,7.2-7.5,16.7-11.5,24.9
	c-3.5,7.2-5.3,15.8-7.6,25.5c-19.9-22.4-46.1-23.6-72-23.7c-23.1-0.1-41.5,13.3-58,27.4c-9.2,7.9-16.9,18.3-23.2,29.5
	c-3.7,6.8-6,13.9-8.7,20.9c-8.1,20.6-13.1,41.5-7.5,64c4.6,18.3,8.6,36.8,20.7,51.7c5.1,6.3,8.4,13.8,15.8,18.7
	c12.2,8.1,26.3,12.4,38.6,20c1.7,1,3.8,1.5,5.8,1.3c10.9-0.3,21.4,3.3,32.4,2.4c12-0.9,23.9-1.7,35.7-4.8c4.2-1.1,7.5-4.1,11.8-5
	c4.6-0.9,7.2,0.1,6.6,4.3c-0.9,6.4,0.9,11.2,4.6,16.2c2.9,4.1,4.6,8.9,5.1,13.9c0.5,4.8,2.9,8.7,4.8,12.9c2.6,5.8,9.1,9.9,8.1,17.4
	c7.8,6.9,8,19.1,17.6,24.8c1.6,0.9,1.3,2.9,1.9,4.4c2.3,5.8,3.8,12.4,7.6,17c5.8,6.9,10.4,14.5,16.1,21.4
	c5.2,6.3,10.7,12.6,14.9,19.3c5.2,8.4,12.4,15.4,20.9,20.4c7.3,4.4,14.7,8.7,21.5,13.8c6.4,4.8,13,9.3,21.1,10.6
	c5.9,1.1,11.3,4.2,15.2,8.8c7.9,9,18.6,13.3,28.9,18.5c6.1,3,13.1,2.2,19.1,4.5c17.3,6.5,34.2,13.9,52.9,15.4
	c6.9,0.6,12.5,4.9,19.3,5.6c4.6,0.4,9.2,1.2,13.7,2.3c12.8,3.4,26,4.8,39.2,4c2.5-0.1,4.9,0,6.7,1.5c6.9,5.8,14.8,5.1,22.8,4.4
	c3.3-0.3,6.6-0.9,9.9,0.2c5.2-2.8,11-2.3,16.5-2.8c4.2-1.6,8,0.2,12.5,1.4l-3.8,3.4c3.1,5.1,1.9,11.4,1,15.9
	c-1.3,6.5-7.6,11.4-14.5,13.4c-5.9,1.6-11.8,0.9-15.4-5.4c-0.9-1.7-2.5-2.9-3.8-4.4c-7,2.3-13.4,6.1-20,9.5
	c-9.9,5-17.4,13.4-26.8,19.1c0.7,18.9,3.8,37.4,8,55.8c0.4,2.3,1.3,4.5,2.6,6.4c7.8,10.2,12.7,22.3,21.1,32.2
	c8.1,9.5,16.9,17.6,28,24.2c17.3,10.3,35.9,14.5,55.1,18.1c0-4.9-0.5-9.9-1.5-14.7c-1.2-4.9,1.9-9.6,1.5-14.2
	c-4.2-1.3-6.4,1.4-9,2.5c-6.5,2.9-14.1,1.9-19.6-2.6c-5.9-4.6-6.2-14.9-2.1-22.4c1.3-2.3,1.2-4.9,3.3-7.1c10-10.5,26.4-6.8,31.5,7.6
	c0.4,1.1,0.2,3.6-0.1,3.7c-8.5,2.2-2.3,6.5-1.8,10c4.2,0.7,6.4-2.1,8.4-4.5c6.5-7.6,15.4-9,24.4-8.9c6.2,0.1,12.5,1.8,18.7,2.4
	c8.2,0.7,13.8,6,19.7,10.7c2.4,2,3.9,4.8,3.2,8c-1.5,6.6,0.9,13.3-0.9,19.9c8.4-5,17.8-8.3,24.9-15.3c12.2-12,21-26.4,28.5-41.6
	c2.6-5.2,2-12,4.8-17c5.5-10,2.2-21.5,6.8-31.5c1.4-3.1-1.4-4.8-3-6.8c-1.5,0.9-2.5,2.3-2.1,4.1c2.4,9.8-2.6,16.9-9.9,21.8
	c-8.3,5.6-17.6,4.4-26.2-0.1c-5.5-2.9-9-16.7-6.6-23.1c3.1-8.3,8.9-14.3,16.5-18.4c6.1-3.3,20.7,0.3,23.9,6.4
	c1.5,2.9,4.6,4.9,4.8,8.5c4-3.2,4.1-6.8,2.1-11.3c-2.9-6.9-2.7-7,5.7-8.9c-2.2-6.4-8.9-6.3-13.4-9.4c-5.8,1.4-11.6,1.3-17.5,1
	c-12.7-0.9-17.8-5.8-19.2-18.7c-0.2-1.3-0.5-2.6-0.8-3.8c-12.1-2.1-15.9-10-14.8-21.3c0-1.3,0-2.7-0.2-4
	c-1.2-12.1-1.2-12.2,10.5-16.1c1.2-0.5,2.5-1,3.8-1.3c10.8-1.3,19.8-7,28.6-12.6c10.4-6.6,20.8-13.4,31.8-18.9
	c5.2-2.6,10.2-5.8,14.7-9.5c7.3-5.9,13.3-13.6,20.5-19.2s13-12.4,19.4-18.5c1.7-1.6,4-3.8,5.8-3.6c4.9,0.4,6.7-1.7,6.8-6
	c0.1-2.9,1.2-4.2,4.2-4c1.7,0.2,3.4-0.4,4.6-1.6c3-2.9,3.4-7.1,5.1-10.6c2-4,7.9-1.2,10.6-5.8c5.8-9.8,14.9-17.5,18.8-28.7
	c1-3,3.2-6.8,5.8-7.8c5.8-2.3,6.8-6.9,7.8-11.7c1-4.8,3.6-8.5,8.2-10.4c3-1.2,5-3,5.6-6.3c0.7-4.5,4.1-7.8,7.1-10.3
	c5.7-4.7,7.9-10.9,10.7-17c0.8-1.8,0.7-4.3,1.9-5.5c9.4-9.1,11.8-20.7,11.2-33.1c-0.1-1.6,0.4-3.3,1.4-4.6
	c4.1-5.9,1.8-14.6,8.6-19.4c0.8-0.6,0.8-2.5,1-3.8c1.3-8.5,5.8-16.7,2-25.6c-0.2-0.4,0.5-1.2,0.7-1.8c-2.1-2.3-8.9-4.5-0.2-7.2
	c3.3-1,0.3-5.2,3.1-6.6c0.6-8.8,3.7-17.6-1.2-26.2c-0.7-1.3,0.5-3.8,1.1-5.7c4.4-13.9,0.3-29.1,7.1-42.6c-4.4-6.7-3-14.1-2.5-21.4
	c0-0.3-0.1-0.7-0.3-0.9c-2.7-5.3-6-10.4-1.7-16.6c0.7-1,0.1-3.6-0.8-4.7c-6.1-8.2-4.3-19.2-10-27.8c-3.5-5.2-1.7-7.3,5.1-8.5
	c5.3-0.9,10.4-2,15.1-4.7c9.4-5.3,19-10.4,28.2-16c19-11.4,34.5-26.2,44.1-46.5c4.3-9.1,9.2-18.2,12.7-27.4
	c4.7-12.7,7.8-25.9,9.1-39.4C1050.2,683.5,1042.6,666.1,1037.8,647.9z M135.4,997.9c-3.6,0.2-6.4-2.4-9.8-2.9
	c-1,1.9-2.5,2.3-3.8,0.8c-2.1-2.4-4.3-5-3.1-8.6c-0.7-3.7-2.4-7.3-2-11.2c-2.8-8.8-2.1-11.4,4.5-16.8l3-5.4
	c-0.5-2.6,0.9-3.9,3.3-4.4c0-0.6,0.2-1.2,0.5-1.8c0.1-2.8,1.3-3.9,4.1-3c2.5-1.8,5.9-3.8,2.8-7c-5.7-6-12.8-10.2-20-14.1
	c-1.8-1-4.9-3.6-6.8-2.4c-5.1,3.2-11,1.6-16.3,3.7c-18.3,7.4-29.1,21.3-35.5,39.3c-0.8,2.6-0.8,5.3,0.1,7.8
	c3.7,13.4,7.4,26.8,11,40.2c0.7,1.9,1.7,3.6,3,5.1c2.9,3.7,5.7,7.4,8.5,11.1c3.2,4,7.2,9.2,3.4,13.2c-3.7,3.9-8.4-1.4-12.2-3.5
	c-4.3-2.4-8.1-5.8-12.2-8.7c-5.3-3.6-9.2-8.8-11.2-14.9c-4.1-12.8-7.2-26-11.2-38.8c-2.1-6.5-1.2-12.1,1.8-18.1
	c6-12.1,10.8-24.9,20.8-34.4c8.3-7.8,16.5-15.5,28.6-18.2c5.3-1.2,10.8-2.4,16.1-3.9c8.7-2.5,16.5-0.8,23.7,3.7
	c7.4,4.4,14.4,9.6,20.8,15.3c11,10.3,14.7,23.7,0.8,36c-9.1,8-10.2,17-10.4,27.4c2.7,1.1,7.2-1.1,7.7,4.1l0.1,0.1
	c7.2,0.9,11.2,6,15.3,11.2C152.5,1002.5,140.8,1001.9,135.4,997.9z M510.6,1401.5c-5.9-10.2-4-20.4,0-30.6c1.3-3.5,4.6-4.5,8.1-4.8
	c13.2-0.9,21.7,6.6,22.3,18.3c0.1,1.7,0,3.3,0,5h0.1v0.1c0,2.3-0.1,4.6-0.4,6.8c-1.2,8.2-5.1,12.5-12.1,13.6
	C520.1,1411.5,514.8,1408.8,510.6,1401.5z M556.9,1459.3c-3.5,3-10.1,2.9-15.1,1.5c-4.4-1.2-10.4-1.6-10.5-8.6
	c-9.3-7.4-4.2-16.5-1.5-24.1c3.2-9,12.5-11.5,23.4-8.4c9.4,2.7,14.5,9.8,14.4,20.2v0.1C567.4,1448.2,562.5,1454.6,556.9,1459.3z
	 M690.5,1426.4c15.3,0.7,25.4,11.7,22.7,23v0.1c1.2,12-8,21.6-24.5,21.1c-10.1-0.3-18.8-12.2-18.1-24.6
	C671,1436.1,681.4,1426,690.5,1426.4z M996.4,695.6c-7-2-12.6-6.3-17.6-11.1c-9.8-9.4-22.3-11.5-34.7-12.8
	c-13.3-1.4-24.3,7.7-27.3,20.8c-1,4.4-5.1,9.6-2.7,13.1c2.6,3.8,8.4,0.1,12.8,0.1c12-0.1,19.9,6.1,26.5,15
	c3.8,5.1,2.2,11.2,1.4,16.5c-1.4,9.1-4.3,17.9-10.7,25.3c-6.1,7-13.1,10.6-22.6,8.7c-6.9-1.4-8.9-5.7-4.9-11.5
	c2.8-4.1,5.1-8.7,8.4-12.4c4.1-4.5,2.4-10.2,4.1-15.1c0.8-2.2-1.7-3.3-3.6-4c-3.8-1.5-7.8-1.4-11.8-1.1c-0.4,0-0.9,0.1-1.3,0.1
	c-9.5,0.1-17.3-7.6-17.4-17.2c0-2.6-0.2-5.2-0.5-7.9c-1.1-12,3.2-22.8,7.6-33.5c2.7-6.4,8.4-10.4,13.9-14
	c12.9-8.7,25.9-15.7,43.1-14.2c10,0.7,19.8,3.7,28.5,8.8c2.5,1.5,4.4,2.7,4.2,5.9c-0.1,1.2-0.3,3.3,1.5,3.1c6.2-0.7,6,4.5,6.9,7.8
	c2.1,7.5,3.8,15.1,5,22.8C1006,696,1003.6,697.6,996.4,695.6z"/>
<path style="fill:#4AB6CA;" d="M1087.9,1286.9c12.3-5.4,24.6-10.9,36.9-16.2c12.1-5.2,24.2-10.2,36.7-14.4
	c18.6-6.1,37.2-11.9,55.7-18.2c10.7-3.7,14.9-0.8,13.6,10.3l0.1,0.2l-1.7,0.6c-5.4,8.9-14.6,12.5-23.8,14.7
	c-7.7,1.8-15.6,3.5-22.9,6.1s-14.4,4.8-21.6,7.6c-16,6.2-32.9,8.4-49.8,10.7c-10.3,1.4-10.2,0.8-13.2,10.9
	c-1.8,6.1-2.9,12.2-2.2,18.6c0.1,2.3,0,4.7-0.3,7c-1.2,12.2-5.5,23.6-8.2,35.3c-2.2,9.5-7.2,19.7-0.3,29.5c-1.5,0-2.7,0.7-2.5,2.1
	c0.4,2.6,2.4,3.5,4.9,3.4c3.6,0.9,7.1,1.3,6.9,6.7c-0.2,4.3,3.2,6.5,7.1,7c14.7,2.1,29.2,4.8,43.9,6.7c6.4,0.8,12.3-1.2,18.5-0.5
	c21.1,2.2,41.5-2.2,61.9-6.3c3.2,1.9,5.3-1.8,8.2-1.5c1.8,2.2,3.1,1.3,4.2-0.7l3.8-0.5c1.2,1.2,2.4,1.5,3.6,0l6.2-0.7
	c2.6,3.5,5.4,0.5,8.2,0.3c1.2,0.6,2.6,0.6,3.7,0c18.2,3,36.6,4,55.1,4.4c6.8,0.2,13.2,2.1,16.5,9c1.6,3.3,1.7,6.4-2.9,7.8
	c-5.8,1.8-11.3,3.9-14.7,9.5c-1.2,2.1-3.4,1.3-5.4,1.2c-6.2-0.3-12.5-0.8-18.7-0.4c-10.6,0.7-21-1.3-31.6-1.4
	c-4.3,0-8.6-0.3-12.8,0.4c-3.1,0.6-6.2,2.7-8.9-1.2c-0.8-1.2-3.4-1.4-4.7-0.4c-4.3,3.6-8.6,1-13,0.7c-16.2-1.4-32.3-3.8-48.6-4.4
	c-8.8-0.3-18-0.1-26.4-3.1c-5.7-2-11.1,0.4-16.5-1.2c-2.5-0.8-3.7,1.5-3.2,3.7c1.1,5-0.6,9.9,0.1,14.9c0.3,1.6,0.2,3.3-0.2,4.9
	c-3,9.2-4.3,18.7-5.6,28.2c-0.9,7.2-3.3,14.1-7,20.3c-6.1,9.7-7.4,20.9-12,31c-4.2,9.1-7.8,18.4-12.8,27.1
	c-2.8,4.9-5.5,9.9-10.4,13.1c-3,2-3.1,5.8-5,8.4c-9.9,13.2-20.3,25.5-33.6,35.9c-11.9,9.3-24.9,14.6-38.5,19.2
	c-9.8,3.4-20,5.2-30.9,1.9c-12.7-3.9-24.8-9.2-37-14.4c-9.7-4.2-18.7-9.6-27.7-15.1c-2.5-1.5-3.7-2.3-6.6-0.3
	c-3.2,2.3-6.3,4.8-9.2,7.4c-7.1,5.8-15,10.5-23.4,14c-2.4,1.1-4.7,2.6-6.6,4.4c-13.8,3.2-26.1,10.2-38.2,16.7
	c-16.1,8.8-32.6,16.8-49,24.8s-33.6,13.8-52.1,15.2c-10.2,0.8-20.3,3.4-30.2,6c-4.8,1.3-9.1-1.2-13.8,0.1c-12.8,3.4-25.9,5-39.1,4.9
	c-11.5,0-22.9-0.8-34.3-2.3c-14-1.9-28-2.8-41.5-7.2c-11.8,3.6-20.7-5-31.1-7.2c-0.9-0.3-1.9-0.7-2.8-1.1
	c-15.9-5.2-32.7-7.3-48.3-13.7c-4.2-1.7-9.3-1.7-11.9-6.4c-0.9-1.6-2.9-1.3-4.5-1.6c-12.5-1.7-24.3-6.7-34.3-14.3
	c-4.5-3.4-9-6.8-14.7-7.7c-2-0.3-3.7-1.7-4.4-3.6c-0.7-1.4-0.9-3.5-2.8-3.8c-10-1.7-16.2-10-24.9-13.9c-4.2-1.9-5.1-8.1-11.2-7.7
	c-0.2,3.5-1.3,7.1-0.4,10.1c2.2,6.7-1.6,7.3-6.4,7.5c-0.3-1-0.9-2-0.8-2.9c2.2-16.7-5.1-32.4-4.8-48.9c0.1-4.3,0.6-8.5,0.9-12.7
	c1.2-16.4,1.7-33.1,5.7-48.9c3.9-15.1,8.2-30.8,18.3-43.6c1.6-2.1,3-4.3,4.1-6.7c6.5-13.5,16.9-23.7,28.7-32.6
	c7.4-5.6,14.9-11,21.7-17.4c5.2,2.6,6.4,5.3,5.5,12.1c-1.9,14.4-4.5,29.8,8.9,41.7c7.4,6.6,16.9,10.1,23.9,17.2
	c0.7,0.7,2.7,0.1,3.9,0.5c3.9,1.6,7.9,2.8,10.5,6.9c3.8,5.9,11.6,7,16.2,12.3c7-2.6,10.5,4.1,15.7,6.2c8.8,3.6,13.6,13.3,23.4,15.2
	c1.9,4.6,6.7-0.4,9.5,3.2c3.1,4,8.8,4.2,13.1,6.5c4,2.2,9.2-0.1,12.3,3.1c3.4,3.5,9.8,0.7,11.9,6.2c3.8-1.2,6.7,0.8,9.8,2.5
	c1.2,0.5,2.5,0.9,3.8,1.2c11.4,3.9,24,0.7,35.1,6.3c0.7,0.2,1.4,0.2,2-0.2c5.7-2.8,11,0.1,16.3,1.2c3.6,0.8,7.2,1.1,10.8,0.9
	c10.1-0.5,20.2,0,30.2-1.8c4.6-0.9,8.2-3.7,13-4.2c9-1,18.8-0.2,26.6-6.6c0.6-0.5,1.8-0.4,2.8-0.5c6.8-1.1,13.5-2.9,20-5.3
	c8.5-3.1,15.9-8.1,24.1-11.7c10.3-4.5,20.4-9.8,28.9-17.4c3.9-3.5,7.6-7.3,12.6-8.8c-5.8-13.1-17.6-20.4-25.9-30.8
	c-1.4-1.7-3.7-2.8-5.7-3.9c-1.7-1-3.8-1.6-4.8-3.4c-6.4-12.1-16.3-21.9-20.4-35.9c-2.9-9.9-5-19.8-7.2-29.8
	c-0.5-1.6,0.1-3.4,1.5-4.4c4,1.4,8.6,1.5,11.6,5.2c1.2,1.4,3,1.4,4.6,1.6c4.3,0.6,8.5,1.7,12.8,1.7c6.8-0.1,9.6,7,15.5,7.9
	c5.5,0.9,9.9,2.3,14.2,7c3.8,4.1,8.4,7.4,13.5,9.7c7.1,3.3,13.5,8.6,19.5,13.7c5.4,4.5,12.1,7.3,16.5,13c1.8,2.4,4.7,1,5.7-1.3
	c5.1-11.7,15-20.1,20.7-31.6c3-6.2,4.9-14.5,12.5-18.1c0.9-0.5,1.4-1.4,1.6-2.4c0-10.8,10.2-18.3,9.1-29.4c-0.2-2.1,1.2-4.5,2.4-6.5
	c7.2-11.5,10.2-25.1,16.5-36.8c5.4-9.8,6.7-19.5,7.7-30.1c1.2-12.5,3-25,3.2-37.6c0.1-9.2,1.8-18.5,3.4-27.6
	c1.2-6.9,5.8-8.6,11.8-5.1c0.8,0.5,1.7,1.6,2.5,1.5c8.5-0.8,8.5,5.3,8.8,11.1c3.4,0.3,3.9-2.4,4.7-4.3c10.6-26,28.7-46.7,47.7-66.7
	c3.2-3.4,5.3-3,7.8,0.6c5.1,7.4,5.1,12.1-0.5,19.5c-5.3,7.2-10.4,14.5-16.1,21.4c-9.2,11.1-15.4,23.9-21.6,36.8
	c7.2,2.1,7.4,2.2,11-2.7c9.1-12.5,18.3-25,27.1-37.7c4.9-7,11.6-12.5,14.9-20.7c1.7-4.3,6.3-3.4,9.6-3.6c2.8-0.2,1.9,3.8,3.1,5.3
	c6.9,9.1,1.4,17.1-1.6,25.4c-2.8,7.9-9.4,13.6-12.1,21.5c-4.7,6-7.5,13.2-12.5,19c-1.1,1.3-3.1,4.6-0.6,6.2s3.8-0.8,5-3
	c4.1-7.2,9.5-13.6,12-21.6c6.6-8.2,13.5-16.2,19.7-24.7c1.9-2.6,3.5-4.4,6.6-5.2c5.9-1.6,6.5-1.3,8.4,4.6c0.1,0.7,0.3,1.3,0.5,1.9
	c6.4,12.9,2.5,22.8-7.4,32.5c-6,6-11.1,12.9-15,20.5c-2.6,2.2-5,4.5-5.4,10l10.1-9.8c8.8-12.2,21.7-20.4,31.9-31.2
	c4.5-4.8,8.2-3.2,10.7,3.3c0.7,1.9,1.6,3.6,2.6,5.3c1.5,2.3,1.3,4.2-0.7,6.2c-4,3.9-6.9,8.7-11.9,11.8c-8.7,5.5-15.3,13.5-22.1,21
	c-1.3,1.4-1.7,3.6-2.5,5.3c-7,0.8-8,7.8-12.2,11.6c-2.2,0.8-4,2.3-5.2,4.3c-2.3,3.9-4.8,8-8.2,10.8c-6.9,5.7-10.6,13.6-14.6,20.9
	c-5.9,10.8-9.2,23-15,34c-3.9,7.3-2.7,16.1-8.1,23.3c-4,5.5-8.3,11.8-7.5,19.8c0.2,1.5-1.7,3.8-3.3,4.7c-6.3,3.7-7,10.3-7.8,16.2
	c-0.6,4.6-2.7,7.5-5,11.1c-2.8,4.4-6.1,9.7-6.5,14.3c-1.2,14.1-11.2,23.8-16.3,35.8c-1.3,3.2-5.2,6.3-5.2,10.1c0,4.7-7,7.4-4.2,11.3
	c2.1,2.8,7.6,3,11.3,4.9c10.7,5.6,20.3,2.9,27.7-7.2c2.3-3.2,3.5-7.2,5.7-9.6c4.3-4.8,4.3-11.1,7.9-16.2c4.9-7.1,9.3-15.7,7.3-25.9
	c-1-5.1,0.7-11.3,2.9-16.3c3.5-7.8,5.8-14.5,5.6-22c-0.2-8,0.2-16.5,4.3-23.1c4-6.4,3.4-15,9.9-20c0.5-0.8,0.6-1.9,0.2-2.8
	c-2.6-4.4-0.3-8.7,1.4-12.2c4-8.2,2.4-18.2,8.5-25.7c0.7-0.9,0.3-2.6,0.7-3.9c1.6-5.3,1.7-12.6,5.3-15.5c7.2-5.6,9.3-13.3,12.6-20.6
	C1083.7,1293.8,1086.2,1290.8,1087.9,1286.9z"/>
<path style="fill:#E86462;" d="M457.9,2035.9c-3,0.1-5.9-0.2-8.8,1c-4.4,1.7-9.4,1.4-13.6-0.7c-10.4-5.2-21.3-6.9-32.7-6.5
	c-4.7,0.3-9.3-1-13.1-3.7c-1.6-1.2-3.4-2.5-3.2-4.7c1.2-14.4-0.8-28.7,0.1-43.1c1.2-19.2,0.8-38.7,0.9-58.1c0-18.1-0.1-36.1,2-54.2
	c1.7-14.4,1-29.1,2-43.7c0.6-7.2,1.6-14.5,3.1-21.6c1.6-8,2.2-16.3,3.2-24.5c7,3.7,12.3,10.1,20,12.7c2.6,8.2,9.7,6.3,15.6,6.9
	c11.8,1.2,23.8,0.8,35.5,3c4.3,0.8,9.7,0.9,13.2-1.1c4-2.3,7.3,0.8,9.8-0.4c4-2,7.2-2.3,11.2-0.4c1.9,0.7,4,0.5,5.8-0.5
	c3.3-1.9,6.6-0.6,9.7-0.2c3.5,0.4,7.1,0.4,10.7,0c7.2-0.5,14.3-2.5,21.6-0.7c3.6,1,7.4,0.6,10.7-1.1c2.4-1.3,5.2-1.6,7.8-0.8
	c10,3.5,18.9-3.8,28.9-2.1c4.4,0.8,9.1-1.7,14.4-1c4.7,0.6,9.9-4.7,15.1,0.2c0.2,0.2,1.3-0.2,1.8-0.6c5.9-4.5,13.2-3.5,19.8-4
	c5.8-0.4,12-1.6,17.5-0.3c5.1,1.2,8.9,0.5,13.3-1.4c3.9-1.7,8.2-2.3,12.3-3.4c6.2-1.6,12.6,2.2,18.4-1.6c5.3-3.4,12.2-1.6,17.4-5.5
	c2.1-1.6,4.4,0.1,6.6,0.7c3.5,1.1,7.2,1.1,10.7,0c21.7-6.5,43.4-13.6,66.2-15.3c5-0.4,9.9-1,14.3-3.8c5.6-3.5,11.3-6.8,16.9-10.3
	c2-1.3,4.3-3,6.4-1.7c5.7,3.5,9.3,0,13.3-3c0.8,4.8,0.9,9.6,6.7,12c9,3.9,12.6,12.3,14.1,21.1c1.5,8.4,5.1,14.7,12.3,19.2
	c3.2,1.8,5.6,4.9,6.5,8.5c1.7,7.5,5.4,13.8,9.7,20c1.5,2.2,2,4.8,2.8,7.4c2.2,6.8,3,14,8.9,19.3c1.8,1.6,3.2,4.7,4,7.8
	c1.5,5.8,4.2,11.2,8,15.9c2.7,3.4,5.5,6.7,4.5,11.6c-0.2,1.3,0.2,2.7,1.1,3.7c9.4,8.5,8.8,21.8,15.6,31.5c6.7,9.4,9,21,15.8,30.3
	c1.4,2.2,3.1,4.2,4.9,6c3.1,2.9,5.3,6.7,6,10.9c1.3,6.4,3.7,12.6,6.1,18.7c2.5,6.4,2.4,7.7-3.4,12c-0.8,0.6-2.1,1-2.3,1.7
	c-3.2,11.3-13.7,15.2-22,21.1c-5.2,3.8-11.5,6.1-17.3,9.1c-5-0.8-8.8,1-12.6,4.4c-13.1,11.8-28.2,20.6-43.2,29.6
	c-5.3,3.2-11,6.1-13.8,12.2c-1.8,0.8-3.7,1.4-5.7,1.9c-11.7,2.6-22.5,8-31.6,15.8c-5.5,4.6-11.1,3.1-16.9,2.4
	c-0.9-0.1-2.4-0.9-2.4-1.5c-0.6-6.4-6.8-7.5-10.3-11.2c-12.2-12.7-20.6-28-28.7-43.4c-2.9-5.6-9.1-7.7-11.7-13.2
	c-0.3-0.5-1.2-0.8-1.5-1.3c-7.2-13.6-20.8-22.8-25.4-38.3c-1.4-4.8-4.2-9.9-9.1-12.8c-2.7-1.6-3.9-4.4-5.3-7.1
	c-9.3-16.6-19.6-32.6-31.8-47.3c-6.9-8.3-12.3-18-18.2-27.1c-3.5-5.3-7-11.1-12.3-14.2c-4.8-2.9-11.2,0.1-16.9,0.5
	c-2.3,0.1-4.6,1-6.9,1.1c-4.4,0.3-6.2,2.2-7.9,6.7c-4.1,11.4-5.7,23-6,34.9c-0.2,5.8-2.3,11-3.5,16.3c-2.5,10.8-2.7,21.8-5.1,32.4
	c-4,17.4-6.6,35.1-10.4,52.6c-1.4,6.2-6,9.3-14.4,9.6c-11.1,0.4-22.2,2.1-32.9,5.1c-4.1,1.1-8.6,0.5-12.9,0.7
	c-1.4-1.3-2.7-3.5-4.4-3.8c-8-1.5-16.2-3-24.3-3.4c-17.9-0.9-35.9,1.9-53.8-0.7C459.2,2028.6,459.8,2033.3,457.9,2035.9z
	 M849.3,1848.9c7.1,1.8,9.7-5.7,13.7-10.5c3.6-4.3,2-9.7-3.3-10.3c-7.5-0.9-12.2-4.8-16.5-10.5c-4-5.5-11.4-7.6-16.8-5.8
	c-5.2,1.7-6.8,5.5-3.3,9.5c4.6,5.4,6.9,12,9.9,18.1C836.2,1846.3,841.1,1848.4,849.3,1848.9L849.3,1848.9z M941,1990.9
	c6.8,0.8,12.4-1.7,16.9-6.6c4.7-5.2,3.4-10.7-3.1-12.3c-3.2-0.8-5.8-2.2-7.1-4.9c-2.8-5.9-8.8-9-12.2-14.3c-2.2-3.5-5.2-2.5-7.9-1.9
	c-3.4,0.7-3.5,3.6-3.2,6.4c0.8,6.3,1.4,12.5,2.5,18.8c0.6,3.6,2.3,6.8,4.3,10C933.7,1989.8,936.4,1991.8,941,1990.9L941,1990.9z
	 M892.7,1913.1c3.8-1.6,8.3-1.2,12.4-2.1c8.8-1.9,9-6.9,3.7-14.6s-12.2-11.7-20.8-13.7c-1.6-0.4-3.1-1.2-4.3-2.2
	c-4.1-2.9-7.9-1.3-8.7,3.6c-0.4,2.7,0.4,5.2,1.5,7.7c2.5,5.3,6.4,9.7,7.3,15.9C884.4,1911.7,888.7,1912.6,892.7,1913.1L892.7,1913.1
	z M460.8,1856.5c1.6-6-2.8-11.7-2.4-18.2c0.2-2.6-1.6-4-4.7-3.4s-5.6,1.7-6.7,5.1c-1.5,4.7-4.4,9.4-4.6,14.1
	c-0.3,6.7-3.1,13.2-0.3,20.4c2,5,4.9,5.7,8.9,5.8c3.4,0.1,9.4-4.6,8.8-7.7C458.7,1867.1,462.3,1862.3,460.8,1856.5L460.8,1856.5z
	 M451.2,1911.6c-7.8,1.3-8.4,7.7-10.6,11.9c-4,7.6-1.2,15.6,3.7,21.8c2.4,3.1,6.7,8.4,11,6.4c3.7-1.7,1.7-7.7,1.6-11.8
	c0-0.9-0.8-1.9-0.8-2.8C455.9,1928.3,449.4,1921,451.2,1911.6L451.2,1911.6z M451.5,1972.5c-12.2,18.3-8.8,28.9,9.9,33.8
	C459.2,1994.6,461.6,1982.4,451.5,1972.5L451.5,1972.5z"/>
<path style="fill:#193948;" d="M607.8,574.3c-3.5,0.8-5.5,3-7.4,6c-3.4,5.3-6.5,10.8-9.9,16.1c-7.4,11.7-19.2,19.3-26.9,30.4
	c-5.8,8.4-16.1,12.4-19.9,22.3c-0.7,1.8-2.5,1.9-3.9,2.7c-9.2,5.5-18.1,11.6-26.7,18.2c-3.6,2.9-7.2,6-12.3,5.6
	c-2.2-0.2-3.4,1.7-5.1,2.5c-8.4,3.9-16.8,8.5-25.7,10.5c-2.9,0.6-5.8,1.6-8.5,2.8c-3,1.4-6.2,4.2-9.6,4.1c-4.1-0.2-8,2.3-11.7,1.1
	s-6.4,0-9.6,0.6c-17.2,3.2-34.5,6-51.7,9.6c-6.5,1.3-12.4-0.8-18.4-1.6c-19.9-2.9-40.1-3.7-59.9-7.4c-3.5-0.6-6.9-1.9-10-3.8
	c-5.6-3.4-11.4-6.9-18.4-6.5c-7.5-6.6-17.1-10-25.2-15.8c-11-7.9-22.4-15-29.9-27c-5.4-8.6-12.9-16-17.6-25
	c-9-16.9-18.2-33.9-15.2-54.6c1.6-11.3,1.3-22.8,1.6-34.2c0.3-9.7,5.5-17.5,9.5-25.8c1.4-2.8,4.1-5.2,5.6-8.2
	c6.9-13.5,19.2-21.4,31.9-27.4c10.9-5.1,23.4-7.4,35.5-1c4.9,2.6,10.3,4.4,15.6,6.6c6.1-23.8,20.7-41.2,40.2-54.6
	c12.4-8.5,25.8-8.1,38.4-0.4c8.2,5.1,17.8,7.3,25.8,12.7c2.4,1.6,4.8,1.4,5.6-2.7c0.9-4.8,2.8-9.4,3.9-14.1
	c5.3-21.9,25.3-42.7,51.2-42.4c9.4,0.1,17.5,4.3,24.5,9.2c5.4,3.9,11.6,4.8,17,7.7c2.6,1.4,3.6-0.7,5-3c4-6.8,5.8-14.6,10.8-21
	c9.3-11.7,22-16.8,36-18.9c14.7-2.1,27.2,3.3,37.7,13.6c1.4,1.5,3,2.7,4.7,3.6c9.5,4.5,14.3,12.9,19.1,21.6c2.8,5,6.4,9.6,9.5,14.5
	c12.8,19.6,17.3,41.1,18.1,64c0.4,12.9,0.4,26.1-2,38.5c-4.1,21.3-7.5,43-19,62.2C609.3,568.4,607.5,571.1,607.8,574.3z M387.6,575
	c-0.1,0.6-0.5,1.4-0.4,1.9c1.6,5.1,7,8.6,6,14.8c0,0.2,1,0.8,1.6,0.9c6.9,0.6,14.1-4.7,20.7,1.2c1.8-2.7,7-4.1,6.3-6.8
	c-1.1-3.9,2.1-9.4-3-11.7c-4.2-1.9-6.4-5.6-9.2-8.7c-4-4.5-9.2-6.7-15-5.4c-6.1,1.3-6.4,6.8-6.7,11.9
	C387.9,573.7,387.8,574.4,387.6,575z M290.1,620.3c-0.4,7.8,1.4,9.3,10.6,14.5c6.1,3.5,8.5-0.8,11.9-3.6c2.8-2.3,5.5-4.8,8.1-7.3
	c2.2-2.2,6.2-3.9,4.2-8c-1.9-3.8-4.5-5.7-9.6-4.1c-4.5,1.4-9.3,1.3-13.8-0.1C292.5,608.9,290.6,610.6,290.1,620.3L290.1,620.3z
	 M544.5,434.7c0.3,5.9,3,11.1,6.8,15.9c0.8,1,2.3,2.1,3.2,1.9c6.1-1.3,12.6-0.7,18.2-3.9c3.4-1.9,3.9-7.1,0.5-9.1
	c-5.6-3.3-9-8.6-14-12.5c-2.8-2.2-5.6-5.6-9.4-4.5c-4.6,1.3-3.8,6.4-5.2,10C544.5,433.2,544.4,434,544.5,434.7z M441.4,650.3
	c0.9-0.1,2.9-0.3,4.8-0.6c6.9-1.3,8.3-3.8,4-9.1s-7.7-11.4-13.2-15.9c-2.6-2-5.6-3.4-8.8-4.2c-2-0.6-4.1,0.3-5.1,2.2
	c-2.4,3.7,0.6,21.5,4,24.5c1.5,1.3,3.4,2.1,5.4,2.2C435,649.6,437.7,649.9,441.4,650.3z M376.3,512.8c5-0.7,9.6-1,14.2-1.9
	c5.1-1,5.8-4.3,2-8.5c-5-5.6-11.6-8.8-17.8-12.6c-3.1-1.9-7-3.2-10.4-0.7c-3.6,2.8-1.7,6.7-1,10.2c0.5,2.3,1.3,4.5,2.3,6.6
	C367.3,510.3,371.6,513.1,376.3,512.8z M509.1,619c-1.6-9.2-3-18.6-5-27.9c-0.7-3.3-3.9-3.7-7-1.5c-6.1,4.3-5.8,11.3-7.8,17.5
	c-1.6,5.1-0.1,8.3,3.7,11.1c2.6,2,5.4,3.8,8.2,5.5C506.6,626.9,509,625.4,509.1,619z M255,548.6c-5.2,0-7.9,2.9-6.2,7
	c2.2,5.1,4.9,9.9,8.1,14.4c1.4,2,4.1,2.7,6.3,1.7c5.5-2.3,10.9-4.7,16.2-7.1c1.5-0.7,3-1.8,2.6-3.8s-1.3-4.2-3.5-4.2
	c-6.4,0.2-11-4-16.6-5.9C259.4,549.8,256.8,549.2,255,548.6z M565,592.9c-1.1-12.6,0-24.3,1.7-36c0-0.3,0-0.7,0-1
	c-0.1-1.3-0.2-2.7-1.6-3.4c-1.5-0.8-3.4-0.3-4.3,1.2c-4,5.7-8.1,11.3-11.8,17.1c-1.9,2.9-2.4,7.2-0.1,9.4
	C553.5,584.5,555.5,591.9,565,592.9L565,592.9z M392.7,668.8c0.1-1.3-0.5-2.6-1.6-3.4c-2.4-1.7-5-3.7-8-3.5
	c-7.9,0.5-15.7,1.4-23.6,2.2c-2.4,0.3-3.1,2-2.9,4.3c0.7,7.8,11.2,14.9,18.2,11.9c5.4-2.3,10.5-5.5,15.7-8.3
	C391.7,671.3,392.5,670.1,392.7,668.8L392.7,668.8z M570.7,488.8c-7.4,3.6-8.3,10-9.8,16c-2.2,8.6-0.7,11.3,7.7,14.8
	c1.2,0.5,2.3,1.4,3.5,1.9c2.5,1,4.5,4.2,7.9,1.4c3.9-3.2,1-5.7-0.4-8.5c-0.4-0.9-0.2-2-0.6-2.9C575.7,504.3,575.2,496.1,570.7,488.8
	L570.7,488.8z M505,553.6c0.5-7.9-2.2-15.7-7.4-21.6c-4.7-5.1-9.3-4.2-11.6,2.6c-1.5,4.6-1.9,8.9,2,12.8c3.7,3.7,6.9,8,10.6,11.8
	c2.5,2.6,4.7,2,5.7-1.5C504.6,556.3,504.8,555,505,553.6L505,553.6z M477,452.5c-3.7,6.1-2.8,11.4-1.1,16.3
	c3.4,10.1,9.1,14.2,17.9,14c3.6-0.1,5.1-1.7,3.9-5c-1.8-5.3-3.1-11-8.3-14.2c-4.6-2.8-8.1-6.7-12.5-11.1L477,452.5z"/>
<path style="fill:#B1E7F1;" d="M1911.2,817.4c-3.1-0.3-6.1-1.7-8.2-4c-6.4-6.2-13.1-12.3-17.9-19.9c-2.2-3.6-5.3-5.6-8.7-7.9
	c-8.5-5.7-16.9-12.3-22.7-20.5c-3.5-4.9-6.6-10.2-10.5-15c-2.5-3-6.8-2.3-9-5.8c-3.4-5.3-7.4-10.2-8.5-16.6
	c-0.8-4.7-2.2-9.1-7.7-10.5c-2.4-0.7-2.7-3-2.1-4.9c1.2-4.2,2.5-8.7,6-11.3c10.2-7.5,18.6-17,26.6-26.5c17.5-21,38.5-39.2,52.5-63.1
	c13.3-11.4,20.1-28,32.2-40.4c2.7-2.8,2.9-6.7,4.8-9.8c7.5-11.7,14.4-23.9,22.8-35c4.6-6.1,8.5-12.6,11.8-19.5
	c3.8-8,9.1-14.5,14.3-21.4c2.2-2.9,5-5.6,6.3-8.9c2.2-5.4,5.9-7.1,11.4-7.7c3.1-0.4,5.1-0.5,8,1.5c10.1,7,19.5,14.9,28.2,23.6
	c6.2,6.1,13.3,11.1,19.3,17.3c9.8,10,19.1,20.3,28.5,30.6c1.3,1.5,2.3,3.2,4,4.3c11.7,7.9,17.9,20,24.4,31.9c1,1.9,1.1,4.1,3.7,5.5
	c6,3.2,7.1,6.1,3.2,11.4c-8.2,10.9-13.6,23.6-22.6,34c-1.8,1.9-3.3,4.1-4.5,6.5c-6.3,15.2-16.5,28-26.8,40.4
	c-11.3,13.7-23,27.2-35,40.3c-10.7,11.8-22,23.1-32.8,34.8c-7,7.6-15.9,13.9-24.1,20.7c-9.1,7.6-17.3,16.2-27.5,22.6
	c-11.2,7-22.9,13.5-33.1,22.1C1915.9,817.5,1913.8,817.4,1911.2,817.4z M2020.6,644.2c3.2-5.2-1.4-9.9-4.5-15
	c-0.9-1.3-1.8-2.8-2.5-4.2c-3.6-8.1-9.6-13.4-18.1-15.4c-12.6-3-24.5-2.3-36.9,3.3c-17.2,7.7-32,26.8-30.9,48.1
	c0.4,9.3,3.9,18.2,10,25.3c7.5,8.8,17.4,11.2,27.4,12.2c14.8,1.5,28.9-1.4,40.5-12.2C2017.5,675.1,2020.7,661.2,2020.6,644.2z
	 M2036.7,589.3c12.6,0.8,21.1-8.7,18.8-19.2c-2.9-13-7.1-16.4-20.5-16.5c-2,0-4,0-6,0.2c-3.7,0.2-7.1,2.1-9.3,5.1
	c-5.3,6.8-3,22.1,4.1,26.8c0.5,0.4,1.1,0.7,1.7,0.9C2029.8,587.7,2034,588.6,2036.7,589.3L2036.7,589.3z M1925,727.2
	c-0.1-9-1.9-12.1-8.6-14.6c-7.7-2.9-19.4,1.2-23.7,8.4c-5,8.3-1.8,22.2,5.9,25.2C1911.1,751.2,1925.1,741.1,1925,727.2z"/>
<path style="fill:#B1E7F1;" d="M1893.7,107.1c0.2,8.6-0.6,15.2,1.6,21.8c1,3,1.5,7-0.5,9.7c-3.3,4.4-2.2,9.5-3.3,14.2
	c-2.8,11.7-0.5,23.8-2.4,35.2c-2.1,12-3.3,24.8-10.6,35.5c-0.9,1.4-2.7,2.7-2.1,4.3c2.6,7.6-2.4,12.5-5.7,18.1
	c-1.8,2.8-2.9,6-3.2,9.3c-1.6,15.2-9.6,28-16.2,41.2c-5.6,11.2-12.8,21.8-17.8,33.2c-2.2,5-4.5,9.9-9.3,9.8
	c-7.1,0-12.3,3.9-18.4,5.6c-5.4,1.5-9.2-0.2-11.4-5.4c-2.5-5.9-5.1-10.3-12.9-9.2c-3.5,0.5-6.1-3.9-8.2-6.7
	c-3.5-4.8-8-8.8-13.3-11.6c-9.6-5-17.9-12.1-27-17.9c-10.4-6.4-19.6-14.7-26.9-24.5c-1.1-1.7-2.3-3.2-3.7-4.6
	c-9.2-8.5-10.1-13.9-2.8-24.2c2.6-3.6,3.7-8,4.7-11.8c2.9-9.9,10.2-16.9,14.6-25.6c2.3-4.7,5.1-9.1,6.9-14.1
	c0.4-1.2,0.5-3.1,1.4-3.6c6.5-3.6,6.8-10.4,8.3-16.3c2.3-8.8,5.4-17.4,7.2-26.5c2.1-10.7,4-22,8.3-32c5.1-12.1,6.5-24.8,9.8-37.1
	c0.9-3.5,1.3-7.2,1.2-10.8c-0.3-11.3,2.2-22.4,3.1-33.6c0.2-2.3,0.5-4.5-0.3-6.8c-1.4-4.2-2.1-9.1-0.1-12.7s7.1-5.2,9.7-9.2
	c1.3-2,3.7-0.3,5.1,1.2c2.4,2.6,5.4,4.6,8.8,2.9c4.4-2.2,7.2,0.5,9.8,2.7c8.1,7.1,16.7,13.7,26.1,18.8c15.9,8.6,28.4,21.6,43.4,31.3
	c5.5,3.6,9.8,8.6,16.3,11.2c4.9,2,7.1,8.1,7.8,13.3C1892.3,91.3,1895.2,100,1893.7,107.1z M1779.3,269.9c0.5,0.8,0.8,2.3,1.4,2.4
	c3.7,0.5,7.6-1.8,11.4,0.8c0.6,0.4,2.5-0.5,3.5-1.1c6.7-4.1,10.2-14.6,6.8-21.9c-1.2-2.6-2.3-5.3-3.2-8.1c-2.8-8.3-9.5-11.4-17.7-8
	c-3.2,1.3-5.6,0.3-8.5-0.1c-5.2-0.8-6.6,1.2-5.5,6.9c0.2,1,0.4,1.9,0.6,2.9c-0.8,1.8-0.8,3.8,0.1,5.6c0,2-0.2,3.9-0.1,5.9
	c0.3,8.9,2.1,10.9,11.1,12.9C1779.1,268.7,1779.1,269.3,1779.3,269.9z M1813.8,206.9c7.5,0.7,14.3,0.9,20.6-3.4
	c11.8-8.1,16.3-19.7,15-33.4c-2-20.1-16.5-32.9-35.9-37.1c-11.7-2.5-21.7,2.9-28.7,11.6c-8.7,10.8-11.8,22.7-5.2,36.8
	c3.3,7,7.7,13.4,13,19.1C1798.9,207.6,1806.2,207.7,1813.8,206.9L1813.8,206.9z M1810.4,96c0,11.2,5.3,16.5,15.3,21.3
	c12.7,6.1,24.9-7.7,22.3-20.2c-1.9-9.4-9.1-13.4-14.5-19.3c-1.7-1.8-3.7-0.7-5.5,0.2c-2.7,1.4-5.4,3.1-8.3,1c-2.7-2-5.1-3.1-7.7,0
	c-2,2.4-3.6,5-2.7,8.1C1810.2,90,1810.6,93,1810.4,96z"/>
<path style="fill:#B1E7F1;" d="M1719.8,597.8c-0.6,1.9-1.1,3.8-1.9,5.6c-5.6,12.3-10.5,24.8-18.7,35.8c-3.4,4.5-6.3,9.4-8.6,14.5
	c-4.5,9.9-11.3,18-18.9,25.5c-3.8,3.7-7.2,7.8-10,12.3c-6,9.6-13.8,18-23,24.6c-1.9,1.4-4,2.8-4.6,5.1c-1.6,6.6-7,10.4-11.2,14.9
	c-9.2,9.9-17.8,20.7-28.6,28.6c-13.8,10.2-24.6,24.1-40.4,31.6c-5.4,2.5-9.2,7.8-15.5,8.7c-3.2,0.4-6.3,1-6.7-3.4
	c-0.3-3.3-2.3-5.4-4.4-7.6c-1.2-1.2-2.7-2.4-3.1-3.9c-3.1-13.7-13.4-24.5-15.1-38.8c-0.6-4.7-4.3-8.2-6.3-12.4
	c-2.1-4.3-3.6-8.5-3.4-13.2c0.2-4,0.4-8-3.9-10.5c-2.5-1.5-1.9-3.9-0.4-6.1c2.8-4.6,6.2-8.7,10.3-12.2c17.3-14,33.4-29.1,44.9-48.6
	c0.8-1.4,1.9-2.7,3.2-3.8c10.3-8.3,17.2-20.1,28.4-27.6c1.6-1.3,2.7-3,3.2-4.9c3.8-13.3,13.3-22.5,22.5-31.9c1.6-1.7,3.2-3.2,4-5.6
	c1.8-5,5.1-9.4,9.4-12.5c2.8-2.3,5.2-5.1,7-8.2c3.6-5.5,6.5-11.5,11.3-16.3c1.7-1.6,2.8-3.8,3.2-6.1c0.8-8.4,6.8-13.5,11.6-19.2
	c6.2-7.4,13.1-8.5,21.1-3.3c3.1,1.9,5.7,4.6,7.5,7.8c4.9,9.8,10.1,19.4,15,29.1c7.2,14.2,11.9,29.3,19.4,43.3
	C1718.5,591.7,1718.9,594.8,1719.8,597.8z M1633.2,650.6c0.1-2,0.1-4,0-6c-1.3-11.8-9.4-16.1-20.1-11.6s-16.9,13.3-22.6,22.7
	c-2.8,4.6-3.7,10.1-2.6,15.4c1.7,7.4,4.1,14.6,7.1,21.6c1.9,4.7,6.4,7.3,11.4,6.2c5.8-1.3,11.7-3.7,15-9
	C1628.8,678,1633.4,665,1633.2,650.6z M1564.1,726.4c0.8,0,1.6-0.2,2.3-0.4c6.6-2.2,14.9-17.5,12.6-24.1c-1.8-4.9-5.4-9-7.4-14
	c-1.1-2.7-5.3-4.5-7.7-3c-5.6,3.6-12.3,6.1-15.5,12.8c-3.4,7.1-1.1,13.3,2.1,19.8S1556.4,726.6,1564.1,726.4z M1663.2,615.7
	c0.8-6.9-6.3-9.9-7.6-15.8c-0.4-0.6-1-0.9-1.7-0.9c-3.8,0.7-8,0.7-9.9,5.3c-1.5,3.4-3.5,6.5,0.3,9.8c2.2,2.1,4.2,4.2,6.1,6.6
	c2.8,3.3,6.1,1.7,9.2,1S1663.6,618.6,1663.2,615.7L1663.2,615.7z"/>
<path style="fill:#B1E7F1;" d="M1366.3,1016.9c1,7.9-3.2,14.3-6,20.6c-6.1,13.9-10.9,28.3-16.6,42.4c-4.4,10.8-10.3,20.9-17.4,30.1
	c-5.2,6.8-9.6,14.2-14.6,21.2c-14.8,20.4-29.4,41-47,59.1c-5.2,5.1-11.3,9.1-18.1,11.7c-4.3,1.7-7.1,6.1-13.4,4.2
	c-5.3-1.6-8.4-5-12-8.2c-3-2.6-5.3-5.9-9.6-6.8c-3.1-0.7-4.9-3.4-6.9-5.6c-9.5-10.1-17.3-21.6-27.1-31.4c-3.7-3.7-6.9-8.3-4.1-14.2
	c0.4-1,0.4-2,0.1-3c-3.6-9.8,2.7-14.8,9.6-19.1c4.4-2.8,7.3-6.5,9.9-10.9c3.9-6.6,7.8-13.2,13.1-18.8c1.3-1.5,2.6-3.1,3.6-4.8
	c9.9-15.6,19.8-31.3,29.6-47c6.5-10.4,12.9-20.8,19.3-31.2c2.6-4.2,6.2-7.9,5.2-13.5c-0.3-2,0.7-4.1,2.4-5.2
	c7.1-5.6,11.5-12.3,9.9-22c-0.5-3.3,1.6-6.5,5.8-6.8c10.8-0.8,21.6-1.4,30.6,6.5c1.5,1.3,3.4,2.4,4.2,4.1c2.4,4.9,6.8,7.4,11.4,9
	c5.6,2,9.8,5.5,13.7,9.6c5.6,5.7,11,11.5,17.5,16.3C1363.7,1006.2,1368.4,1010.3,1366.3,1016.9z M1251.6,1080.6
	c0.8,5.6,0.9,11.2,2.3,16.7c1.2,5.3,4.9,9.7,9.9,11.7c14.4,5.8,32.5-4.1,37.5-18.9c2.6-7.8-1.1-14.1-1.9-21.1
	c-0.8-6.5-4.6-9.8-10.1-10.6c-6-0.9-11.8-2.3-18.3-1C1256.2,1060.2,1250.7,1065.9,1251.6,1080.6L1251.6,1080.6z M1220,1138.2
	c-0.4,4.8,2.2,8,5.4,11.1c4.3,4.1,8-0.3,11.9-0.4c7-0.3,8.4-6.4,9.4-10.9c1.2-5.1-1.4-10.7-5.4-14.2c-3.6-3.1-7.4,0.7-10.9,2.1
	c-1.5,0.6-2.9,1.5-4.4,2.1C1221.4,1129.8,1220,1133.7,1220,1138.2z M1303.8,1026.9c-9.4-1-9.4-1-11.3,6.5c-0.4,1.9-0.7,3.9-0.8,5.8
	c-0.7,8.1,4.7,12.7,12.7,14.2c6.3,1.2,8.7-1.6,10.5-5.9c1.5-3.6-3.8-12.6-7.8-12.7C1299.4,1034.4,1302.7,1030.3,1303.8,1026.9
	L1303.8,1026.9z"/>
<path style="fill:#193948;" d="M769.8,1390.7c-1.4,1-2,2.7-1.5,4.4c2.2,10,4.3,19.9,7.2,29.8c4.1,14,14,23.8,20.4,35.9
	c1,1.8,3.1,2.4,4.8,3.4c2,1.2,4.3,2.2,5.7,3.9c8.3,10.3,20.1,17.7,25.9,30.8c-5,1.6-8.7,5.3-12.6,8.8c-8.5,7.6-18.7,12.9-28.9,17.4
	c-8.2,3.6-15.6,8.6-24.1,11.7c-6.5,2.5-13.2,4.3-20,5.3c-0.9,0.1-2.1,0-2.8,0.5c-7.8,6.4-17.6,5.6-26.6,6.6c-4.8,0.6-8.4,3.4-13,4.2
	c-10.1,1.9-20.2,1.4-30.2,1.8c-3.6,0.1-7.3-0.2-10.8-0.9c-5.3-1.1-10.7-3.9-16.3-1.2c-0.6,0.3-1.3,0.4-2,0.2
	c-11.1-5.6-23.7-2.3-35.1-6.3c-1.3-0.3-2.6-0.7-3.8-1.2c-3.1-1.7-6-3.7-9.8-2.5c-2.1-5.5-8.4-2.6-11.9-6.2
	c-3.1-3.2-8.2-0.9-12.3-3.1c-4.3-2.3-10-2.5-13.1-6.5c-2.8-3.6-7.6,1.4-9.5-3.2c-9.8-2-14.6-11.7-23.4-15.2
	c-5.2-2.1-8.7-8.7-15.7-6.2c-4.5-5.3-12.4-6.4-16.2-12.3c-2.6-4.2-6.6-5.3-10.5-6.9c-1.2-0.5-3.1,0.2-3.9-0.5
	c-7-7-16.5-10.6-23.9-17.2c-13.4-11.8-10.7-27.2-8.9-41.7c0.9-6.8-0.4-9.5-5.5-12.1c1.4-15.2,7.8-21.5,22-26.8
	c7.7-2.8,15.8-4.1,23.9-3.8c0.7,18.9,3.7,37.4,8,55.8c0.4,2.3,1.3,4.5,2.6,6.4c7.8,10.2,12.7,22.3,21.1,32.2
	c8.1,9.5,16.9,17.6,28,24.2c17.3,10.3,35.9,14.5,55.1,18.1c3.3,4.1,6.3,8.6,10,12.4c4.7,4.8,10.2,8.7,17.3,8.9
	c3.2,0.1,6.5,0.5,9.6,1.4c7.9,2.1,22-3.1,25.7-8.9c5-7.4,9.3-15.2,12.9-23.4c8.3-5,17.8-8.4,24.9-15.3c12.2-12,21-26.5,28.5-41.6
	c2.6-5.2,2-12,4.8-17c5.5-10,2.2-21.6,6.8-31.5c1.4-3-1.4-4.8-3-6.8l0.4-0.8c4-3.2,4.1-6.8,2.1-11.3c-2.9-6.8-2.7-7,5.7-8.9
	c4.8-0.2,8.9,2.2,13.3,3.2C767.3,1380.2,768.2,1385.8,769.8,1390.7z"/>
<path style="fill:#B1E7F1;" d="M1446.3,1240c-1.2,0.3-2.4,0.6-3.7,0.9c-5.1,1.2-6.3-1.8-6.9-6c-1.2-8.1,1.2-16,2.5-23.6
	c1.2-7.5,2-15.1,2.4-22.6c1.1-15.7,7-30.3,7.8-46c0.2-2.9,0.3-4.7-2-7c-3.7-3.7-2.7-8.3,2-9.8c11.5-3.5,20-11.2,28.9-18.8
	c6.4-5.5,14.2-9.3,19.8-15.8c7.4-8.4,15.7-16,22.7-24.7c6.6-8.2,14.7-15.1,21.4-23.4c9.3-11.4,16.6-23.9,23.4-36.7
	c2.8-5.2,5.9-10.3,7.8-16s13.3-11.4,18.8-10.7c4.5,0.6,9.7,4.9,10.1,9.7c0.6,8.2,5.2,15.2,6.3,23.4c0.4,3.5,0,7.1,0.7,10.6
	c1.2,6.9,2.9,13.6,5.3,20.1c2.4,6.3,2.6,13.1,0.8,19.5c-0.7,2.6-1.6,5.3-0.7,7.8c6.9,19.5,0.2,36.2-9.2,53.3
	c-7.1,13-17.2,22.3-28,31.7c-8.9,7.7-18,15.1-26.5,23.3c-7.7,7.5-17.2,13.2-26.1,19.4c-6.3,4.4-12.3,9.4-18.6,14
	c-14.4,10.6-30.1,19.4-46.7,26C1455,1240.2,1450.9,1242.6,1446.3,1240z M1527.2,1153.2c10.6,0.5,23.2-8.6,24.2-17.9
	c0.9-7.5,1.2-15.2,1-22.8c-0.2-6.6-3.5-11.3-7.6-15.7c-5.1-5.6-8.8-5.9-15.2-1.6c-1.1,0.7-2.2,1.9-3.4,2c-7.6,0.4-10,6.4-11.5,11.9
	c-3.7,12.9-5.3,25.8,2.7,38.4C1520.2,1151.9,1522.4,1154.1,1527.2,1153.2L1527.2,1153.2z M1476.2,1148.2c-0.1,5.6,1.7,9.4,5.6,11.8
	c4.7,3,6.3-1.6,9-3.7c1.7-1.1,3.5-1.8,5.5-2.1c3.8-0.8,7-2.2,7.3-6.8c0.3-5.5-2.7-11.1-7.2-13
	C1486.2,1130.1,1476.4,1136.7,1476.2,1148.2L1476.2,1148.2z M1586.1,1091.2c1.6-3.2-1.3-7.7,2.7-10.7c1.8-1.3,3.7-4.5,1.3-7.1
	c-3.1-3.3-5.6-7.7-11-7.8c-1.8,0-3.5,0.7-4.2,2.2c-1.1,3.1-3.1,5.8-5.7,7.8c-1.5,1.1-0.7,2.8,0,4.5
	C1572.1,1087.7,1577.6,1091.2,1586.1,1091.2L1586.1,1091.2z"/>
<path style="fill:#B1E7F1;" d="M1086.9,1389.6c-6.8-9.9-1.8-20,0.3-29.5c2.7-11.8,7-23.2,8.2-35.3c0.3-2.3,0.4-4.7,0.3-7
	c-0.7-6.4,0.5-12.5,2.2-18.6c2.9-10.2,2.9-9.5,13.2-10.9c16.8-2.3,33.8-4.4,49.8-10.7c7.1-2.8,14.4-5,21.6-7.6s15.2-4.3,22.9-6.1
	c9.2-2.1,18.4-5.8,23.8-14.7c0.5,0.4,1.1,1.2,1.4,1c0.7-0.2,0.7-1,0.2-1.6l-0.1-0.2c9.9,0.2,17.5-5.8,25.1-10.6
	c4.9-3.2,9.6-6.9,14.7-10c4-2.4,7.8-5.1,10.7-8.8s6.8-3.8,10.9-3.2c4.3,0.6,3.4,4.6,3.9,7.1c1.4,6.5,2.2,12.7,0.8,19.9
	c-2,10.1-7.4,19.1-7.9,29.5c-3.1-0.1-4.4-4.2-8.1-3.7c-0.3,1.2-0.8,2.4-1.4,3.5c-9.3,12.3-13.4,27.1-14.8,41.7
	c-1,10.5-5,21.3-1.6,32.2c0.4,1.3,0.1,2.7-0.9,3.6c-3.6,3.6-3.9,8.2-3.8,12.9c0.1,4.4-1.8,7-5.8,9.3c-16.9,10-35.5,14.7-54.6,17.4
	c-7.2,1-14.4,2.7-21.5,3.4c-10.5,1.1-20.8,3.3-31.6,3.1c-13.9-0.2-27.6-2.4-41.4-3.1c-0.1-1.5-0.9-2.6-2.4-2.2
	c-1.7,0.3-2.8,1.8-2.6,3.5l-0.3,0.3c-2.6-1-5.4-0.8-8.1-0.6C1089.4,1392,1088.7,1390.4,1086.9,1389.6z M1154.7,1338.8
	c-2.9,5.5,6.2,8.5,5.6,14.8c-0.1,1.2,1.7,2.8,2.9,3.9c6.1,5.7,18.2,6.3,25.1,1.2c12.7-9.4,24.8-33.6,16.8-53.3
	c-4.4-10.7-21.6-16.2-30-8.6C1163.1,1307.6,1157.3,1321.6,1154.7,1338.8L1154.7,1338.8z M1101.8,1377.8c-0.2-1.4-0.1-3.4-2.3-3.3
	s-2,2.1-2.1,3.6c-0.1,1.3,0.2,2.8,1.7,3C1101.2,1381.3,1101.7,1379.7,1101.8,1377.8L1101.8,1377.8z M1093.4,1374
	c-1.2,0.3-2,1.5-1.7,2.7c0,0.1,0,0.1,0.1,0.2c0.2,0.8,0.4,2,1.8,1.4s2.1-1.4,1.7-2.8C1095,1374.5,1094.4,1373.8,1093.4,1374
	L1093.4,1374z"/>
<path style="fill:#B1E7F1;" d="M1724.5,1264.7c0-4.3,2-6.8,4.2-9.4c4.7-5.5,10.3-10.3,11.6-18.1c0.3-1.7,2.1-3.5,3.7-4.5
	c11.8-7.2,18.8-19.1,28.8-28.1c2.6-2.3,4.6-5.5,7.6-7.7s6.1-5.3,7.2-9.2c0.7-2.6,1.9-3.8,4.6-4.2c27.7-3.6,52.4-15.7,77.1-27.8
	c16.3-8,31.9-17.6,48.8-24.6c9.6-4,16.9-11.6,24.1-19c5.4-5.5,11.7-9.9,18.6-13.2c2.6-1.2,5.1-2,7.3,0.5c2.4,2.7,0,5-1.2,7.2
	c-0.8,1.4-2.2,2.5-3.2,3.8c-5.7,7.2-12.1,13.7-14,23.4c-1.4,7.2-6.9,12.8-11,18.7c-3.6,5-6.6,10.5-8.9,16.2
	c-2,5.2-4.6,10.5-9.7,13.5c-3.8,2.3-5.4,6.4-6.4,9.7c-2.9,9.4-10.4,15.2-16.3,22.1c-9.4,10.8-19.4,21-30,30.6
	c-9.2,8.5-20.3,13.9-33,14.9c-7.4,0.6-13.8,4.2-21.2,4.7c-23.7,1.8-47.2,6.7-71.2,5.5C1735.3,1269.4,1730.8,1264.7,1724.5,1264.7z
	 M1832.3,1227.7c2.7-0.4,6.1,0.3,9.1-1.8c12-8.7,21.6-19.2,26.4-33.6c1-3,0.4-5.2-2-6.9c-5.3-3.8-17.1-3.8-21.6,0.9
	c-8.8,9.1-16.1,19.4-19.9,31.7C1821.9,1225.2,1824.1,1227.6,1832.3,1227.7L1832.3,1227.7z M1810.3,1223.9c2.2-0.2,4.3-0.1,6.1-0.8
	c4.2-1.6,5-5.1,3.7-8.9c-1-2.9-1.8-7.1-6.4-5.9c-4.1,1.1-8.2,2.5-12.1,4.3c-2.3,0.8-3.7,3-3.6,5.4c0.2,2.9,2.4,3.8,4.6,4.4
	C1805.2,1223.1,1807.8,1223.4,1810.3,1223.9L1810.3,1223.9z M1890.5,1204.1c0.7-0.4,2.1-0.9,2.2-1.5c0.6-4.7,3.4-8.4,4.7-12.7
	c1.3-4.1-2.1-6.9-6.3-5.8c-4,1-8.3,3.6-8.1,7.4c0.3,4.2,1.7,9,5.5,12.1C1888.8,1203.9,1889.6,1203.8,1890.5,1204.1L1890.5,1204.1z"
	/>
<path style="fill:#193948;" d="M545.7,2145.4c2.9,0.7,6.8,0.9,7.5,4c1.5,6,4.2,12.3,1.8,18.5c-1.9,4.9-1.8,9.7-1.3,14.6
	c0.1,1-0.3,2.2,0.1,3c7.2,13.9,2.3,27.7,0.6,41.7c-0.9,7.2-2.2,15.3,1.8,22.6c2.2,4-3.6,17.1-7.8,19c-1.5,0.8-3.4,0.4-4.5-0.9
	c-4.4-5.6-11.2-6.8-17.1-9.7c-3-1.5-5.4-2-4.2-7c0.9-3.7-4.1-7.8-2.2-13.6c-10,2.5-20.2,3.8-30.5,3.8c-12.2-0.1-24,4.6-36.3,4.8
	c-13.2,0.2-26.2,3.6-39.5,3.4c-6.5-0.1-13,2.2-19.6,0.1c-2.2-0.6-4.3-1.6-6.1-3c-5.9-4.9-5.9-11,0.7-14.4c4.7-2.4,8.2-5.3,10.3-10.1
	c1.1-3.3,4.3-5.4,7.8-5c6.4,0.2,12.4-1.6,18.5-3.2c5.4-1.4,11-2.7,16.7-0.9c4,1.3,5.2-0.5,5.6-4.4c1.7-14.9,2.2-29.9,1.5-44.8
	c-0.2-4-0.8-8.1,3.4-10.7c3.2,1,5.7,0.2,8.1-2.2c1.6-1.6,3.8-3.7,6-3.2c9.9,2.5,19.8-1,29.6,0.1c3.3,0.5,6.7,0.2,9.8-0.9
	c6.9-2.7,13.9-2.1,20.6-0.6C533.5,2147.6,539.5,2147,545.7,2145.4z"/>
<path style="fill:#B1E7F1;" d="M1502.3,1489.1c-12.2,1.7-24.6,1-36.6-2.1c-9-2.3-18.8-2.5-27.2-8.6c-6.8-4.9-16-3-24.1-4.9
	c-1.6-0.4-3.3,0.1-5-0.2c-5-0.8-7.6-4.2-5.2-8.4c5.2-9.2,8.1-20.8,21.5-22.6c6.6-0.9,12.1-5.4,18.3-7.8c8.9-3.4,17.1-8.2,26.8-10.2
	c8.2-1.7,15.8-6.9,22.8-12.1c3.2-2.4,6.7-4.4,10.5-5.8c5.3-1.8,10.2-3.1,15.8,1s12.1,7,19.6,6.2c1.7,0,3.3,0.4,4.8,1.2
	c13.8,7.5,28.3,4.5,42.8,3.1c11.8-1,23.2-4.6,33.5-10.4c8.9-5.1,17.8-10.1,26.7-15.1c2-1.1,3.8-2.7,5.9-3.6c5.3-2.3,6.2-1.8,8.5,3.9
	c0.4,1.3,0.9,2.5,1.6,3.6c3.3,4.2,2.2,6.9-2.2,9.6c-6.5,3.9-10.9,10.4-17.1,15c-8.9,6.7-18.4,12.3-27,19.5
	c-7.3,6.2-14.5,12.6-22.8,17.6c-13,7.8-25.7,16.2-38.7,24.1c-2.9,1.6-6.1,2.6-9.4,2.9C1531.2,1486.5,1516.7,1492.3,1502.3,1489.1z
	 M1519.5,1465.2c2.8,0.3,5.7-0.2,8.2-1.4c7.8-4.3,15.6-8.8,22.3-14.8c1.7-1.6,3.2-3.4,4.2-5.5c3.5-6.7-0.1-12.2-7.5-11.6
	c-8,0.5-15.8,2.8-22.8,6.6c-7.5,4.2-13.7,10.1-15,19.6c-0.5,3.5,0.7,4.8,3.3,6.2C1514.3,1465.4,1516.6,1465.3,1519.5,1465.2
	L1519.5,1465.2z M1485.5,1443.1c0,1,0,2,0,3c0.1,2.3,0.3,4.9,3.3,5.2c2.7,0.3,4.2-1.1,4.8-3.8c0.8-3.8,3.4-6.2,6.9-7.7
	c1.7-0.7,3-1.5,2.8-3.4c-0.1-2.2-1.5-3.6-3.5-4.4C1493.2,1429.3,1485.9,1434.9,1485.5,1443.1L1485.5,1443.1z"/>
<path style="fill:#4AB6CA;" d="M545.7,2145.4c-6.2,1.6-12.2,2.2-18.7,0.8c-6.7-1.4-13.7-2.1-20.6,0.6c-3.2,1.1-6.5,1.4-9.8,0.9
	c-9.9-1-19.7,2.4-29.6-0.1c-2.2-0.6-4.4,1.6-6,3.2c-2.4,2.4-4.9,3.3-8.1,2.2c-1-12.2,2.2-24.3,0.5-36.8c-1.6-11.5-0.5-23.7,1-35.3
	c1.2-9.2,1.1-18.4,1.8-27.6c0.4-5.8,2-11.6,1.9-17.4c1.9-2.6,1.3-7.4,7-6.6c17.9,2.5,35.9-0.2,53.8,0.7c8.1,0.4,16.2,2,24.3,3.4
	c1.6,0.3,2.9,2.5,4.4,3.8C547.9,2073.3,545.8,2109.4,545.7,2145.4z"/>
<path style="fill:#183A48;" d="M747.1,480c3.5-8.8,11-14.4,14.2-22.9c0.2-0.6,0.5-1.7,0.8-1.7c8.2-0.6,12.5-9.1,20.6-10
	c3-0.2,5.9,0.3,8.6,1.5c4.1,1.6,1.8,4.9,1.6,7.6c-0.1,1.3-0.3,2.9,0.2,3.9c4.4,7.5-1.6,13.2-3.4,19.6c-0.3,1.1-1.7,2.6-2.7,2.7
	c-8.4,0.6-12,9-19.4,11.4c-4.3,1.4-3.7,5.7-1.8,8.2c2.6,3.4,7.7,4.5,8.1,10.1c0.1,1.4,2.9,1,4.2-0.1c7.8-6.6,17.4-10.9,23.8-19.2
	c0.2-0.3,0.2-0.8,0.4-0.9c10.8-2.1,12.1-13.5,18.9-19.6c2.1-1.9,3.4-5.1,7.3-3.2c3.4,1.7,7.5,2.2,7.1,7.7c-0.3,4.4,3.2,7,5.8,10
	c5,5.6,4.4,6.8,0.8,13.8c-1.8,3.5-4.9,5.4-7.3,7.9c-12.5,12.5-26.7,23.2-42.7,30.7c-6.9,3.2-14.8,7.8-23.2,2.4
	c-13.3,1-19.1-9.3-26.9-17.3c-7-7.2-13.2-15-19.9-22.4c-8.7-9.5-15.9-20.8-17.7-32.8c-2.2-14-2.6-29.4,10-41
	c4.7-4.3,7.7-10.5,11.9-15.6c7.3-8.8,15.6-16.1,27.6-18c4.6-0.9,9.3,0.1,13.1,2.8c5.2,3.7,6.1,7.2,1.8,11.1
	c-5.3,4.9-8.4,11-11.3,17.3c-0.9,2-2.4,2.9-3.7,4.3c-6.3,6.9-12.5,14.1-19,20.6c-6,6-0.8,11.1-1.5,16.5
	C739.7,468.4,739.5,476.7,747.1,480z"/>
<path style="fill:#193948;" d="M982.8,2095.5c3.1-0.6,6.4-0.6,7.9,2.5c2.8,5.9,6,2.6,8.5,0.4c6.8-5.8,13.5-11.8,19.8-18.2
	c5.2-5.2,11.8-5.6,18.3-6.5c4.1-0.6,6.4,1.6,5.8,5.9c-0.3,2.2-2.1,4.4,0.3,6.4c7.1,6.1,2.7,12.2,0.2,18.4
	c-2.6,6.8-4.9,13.7-12.4,16.9c-0.6,0.4-0.9,1-0.9,1.6c1.3,7.9-5.7,8.9-9.7,12.9c-6.3,6.2-12.1,13-19.2,18.4
	c-5.8,4.4-10.8,9.7-16.3,14.5c-2.5,2.1-2.7,4.4-1.2,7.1c2.8,4.9,5.6,9.9,10.1,13.4c3.4,2.7,4.2,5.8,3.3,9.6s-4.3,4.5-7.7,5.1
	c-3.9,0.7-7.7,1.9-11.6,2.9c-7.5,1.9-12.5,0.3-15.8-6.5s-6.2-13.8-13.8-17.4c-3.3-1.6-1.7-6.9-5.6-9c-11.1-5.8-14.4-17.2-19.2-27.4
	c2.6-2.6,1.8-5.3,0.4-8.2c-1.9-4.1-1-9.2,2-11c4.9-2.9,6.3-7.4,8.4-11.6c1.4-2.9,3.9-4.3,6.3-6.1c8-6.2,18.1-9.5,24.5-18
	c2.6-3.5,8.2-3.3,11.5,0C978.5,2093.5,979.5,2096.3,982.8,2095.5z"/>
<path style="fill:#183A48;" d="M865.3,463.6c-3,0.5-5.5-1.2-7.7-3.3c-3.7-3.3-8-6.2-10.8-10.2c-6.2-9-15.4-15.4-21-24.7
	c-2.3-3.9-6.2-6.6-9-8.5c-7-4.5-10.5-11.2-15.5-17c-2.3-2.7-4.8-5.4-7.2-8c-6.1-6.9-9.6-15.6-11.9-24.5c-1.2-4.7,6.5-8.5,11.9-5.6
	c4.1,2.2,7.6,5.3,11.3,8.1c7.9,5.8,16.2,11,24.8,15.8c1.3,0.8,2.5,1.9,3.2,3.3c3.9,5.7,6.8,6,10,0.1c3.8-7,9.2-13.2,15.2-16.3
	c5.8-3,11.1-7.1,17.6-9.2c14.5-4.5,26,0.3,35,10.7c9.6,11.2,20.4,21.3,29.4,33.1c0.6,0.8,1.2,1.6,1.8,2.4c5.9,9,4.7,11.8-5.9,13.2
	c-2.3,0.3-4.5,0.5-6.7,1.5c-9.1,4.4-11.1,3.8-18.7-3c-7.9-7.2-14.2-15.9-21.6-23.4c-5.5-5.5-7.5-5.5-15.3-2
	c-5.8,2.7-10.6,6.6-15.1,10.9c-5.3,5.1-5,6.3,0.7,10.4c2.3,1.7,5.2,2.7,5.9,6.2c1.6,7.8,6.7,13.4,12.5,18.5
	c3.2,2.9,5.6,6.6,7.1,10.7c1.9,4.7-0.2,8.2-5.1,8.1C875.1,460.9,870.6,463.6,865.3,463.6z"/>
<path style="fill:#183A48;" d="M956.5,360.1c4.3,4.7,9,4,13.4,5.2c8.8,2.3,11.5-2.5,15.6-8.5c4.9-7.1,11.5-13.1,17.7-19.2
	c2-1.8,4.6-2.7,7.3-2.7c4.8-0.1,7.4,1.5,7.7,6.4c0.2,2.6-0.9,5.5,1.3,7.6c8.3,8.3,2.1,15.8-2.6,21.8c-7.8,9.9-17.5,18.2-28.5,24.3
	c-3.7,2-7.8,3.7-12.4,1.4c-2.1-0.9-4.5-1.3-6.8-1.2c-17.2-0.1-29.9-9-38.4-22.7c-6.6-10.7-11.4-22.8-9.4-36.4
	c0.8-5.2,0.3-10.6,0.1-15.9c-0.9-17.7,17.6-33.8,35-32.4c5.6,0.5,11.4,0.3,16.7,1.8c9.1,2.7,16.5,9.5,17.2,18.6
	c0.9,11.3-0.1,23.5-8.8,32.8C974.6,348.5,967,355.4,956.5,360.1z M944.7,331.4c1.1,2.1-1,4.6-0.7,7.2c0.2,1.9-0.3,4.4,1.9,5.2
	c2,0.7,4.1-0.6,5-2.3c3.6-6.2,8.1-12.1,10.2-19.1c2.7-8.8,0.2-11.4-9-10.8c-4,0.2-6,1.6-6.7,5.6
	C944.6,321.7,943.5,326.2,944.7,331.4z"/>
<path style="fill:#183A48;" d="M854,317.5c9.8,1.4,16.9-2.4,18.9-11.1c1.5-6.7,5-13,4.5-20.2c-0.2-3.9,2.7-6.7,4.6-9.5
	c3.9-5.8,8-5.4,12,0.5c3.1,4.6,7.2,8.2,8.4,14.4c1.8,9.1,0,16.4-4.9,24c-3.5,5.5-6.6,10.9-10.7,16.1c-5.9,7.3-13.7,10.6-21.5,13.4
	c-6.2,2.1-13.9,1.8-20.2-0.5s-13.9-2-18.4-8.4c-0.6-0.9-2.3-1.3-3.6-1.6c-11.2-2.8-18.7-10.1-26.2-18.6c-8.3-9.4-7.8-19.4-6.3-30.1
	c1.6-11.4,6.6-21.4,13.1-30.7c3.1-4.4,6.3-9,12.3-8.8c3.3,0.1,5.5,8.3,4.1,15.2c-0.7,3.6-1.8,7.1-3.3,10.4c-3.9,8.3-2.6,17.3-3.9,26
	c-0.7,4.6,17.1,13.9,21,11.1c2.8-2,4.2-5.4,3.5-8.8c-0.9-4.2,0.3-7.8,2.4-11.3c2.3-3.9,2.2-8.2,1.8-12.6c-0.2-2.6-0.3-5.2-0.2-7.9
	c0-4.4,4-5,6.7-6.3c2.6-1.2,4,1.5,5.2,3.5c2.6,4.7,6.7,8.1,10.3,12c8,8.7,8,13.2,1.6,22.8c-2.2,3.3-6.1,5.4-7.2,9.4
	C857,312.6,853.8,314.2,854,317.5z"/>
<path style="fill:#183A48;" d="M950.8,124.1c7.7-2.8,14-5,14.7-13.6c0.4-4.5,2.5-8.6,2.7-13.3c0.3-7.1,6.6-12.8,13.6-14.2
	c1.7-0.5,3.5,0.4,4,2.1l0,0c2.4,7.5,7.2,13.2,12.3,19c2.8,3.2,3.4,6.9,1.8,11.9s-2.1,10.2-4.3,15.5c-4.3,10.8-12.8,16.4-21.4,22.5
	c-3,2.1-6.3,3.6-10.2,2c-1.7-0.7-3.7-1.9-5.7-0.5c-9.1,6.2-17.8,0.9-24.9-3c-4.9-2.7-10.4-6.1-14.7-10.9
	c-8.3-9.1-14.5-19.8-15.7-31.5c-2.3-22.1,14-43.6,34.5-41.8c9.6,0.7,16.6,6,22.1,13.6c1.8,2.5,2.2,5.3,2.2,8.5
	c-0.1,10.2-1.1,19.9-9,27.5c-0.6,0.8-1.1,1.7-1.4,2.6C951,121.6,950.8,122.8,950.8,124.1z M935.9,118.1c0.8-8,3.3-14.4,2.2-21.2
	c-0.4-2.7,0.8-6.6-3.2-7.4s-5.6,2.8-7.5,5.3c-0.9,1.2-0.9,3.1-1.3,4.7C924.2,107.8,930.7,111.6,935.9,118.1L935.9,118.1z"/>
<path style="fill:#183A48;" d="M865.2,197.5c-2.2-10.2,3.9-16.7,8-24.2c6-11,15.8-11.9,26.6-11.4c9,0.4,17.5,1.6,24.9,7.2
	c0.3,0.2,0.6,0.3,0.9,0.3c9.7-1.4,16.7,5.5,25,8.3c3.1,1,5.5,2.9,6,6c0.6,3.4-2.3,5.1-4.8,6.8c-3.7,2.6-7.8,4.2-11,8.1
	c-3.3,4.2-10.7,3.8-15,0c-2.5-2.2-5.1-0.9-7.3-1.9c-4.8-2.2-9.8-4-14.4-6.8c-9.2-5.6-15.9-2.7-18.1,8c-0.7,3.2-1.7,6.4-3,9.4
	c-2.6,5.8-2.5,5.8,3.9,8.4c9.8,3.9,19.7,7.5,29.3,11.8c2.8,1.2,5.9,2.2,7.7,5.7c3.6,6.8,3,9.4-4.4,12.1c-1.8,0.8-3.5,1.7-5.2,2.8
	c-5.2,2.9-9.4,4.3-16.4,2.4c-12.3-3.4-24.7-6.7-36.8-10.6c-0.9-0.3-1.9-1-2.8-0.8c-13.5,2.2-24.4-2.4-33.4-12.5
	c-2.1-2.3-6-2.6-8-5.5s-1.4-6-0.3-9.2c1.2-3.7,3.6-1.9,5.7-1.5c1.4,0.2,3.1,0.5,3.7-0.6c4-6.5,9.5-2.7,14-1.6
	c6.9,1.8,13.7,2.2,20.7,2.4c2.2,0.1,4.3-0.3,3.6-3C863.6,203.9,865.5,200.4,865.2,197.5z"/>
<path style="fill:#4AB6CA;" d="M982.8,2095.5c-3.4,0.8-4.3-1.9-6.2-3.8c-3.2-3.3-8.8-3.5-11.5,0c-6.4,8.5-16.5,11.9-24.5,18
	c-2.4,1.8-4.9,3.2-6.3,6.1c-2.1,4.3-3.5,8.7-8.4,11.6c-3,1.8-3.9,6.9-2,11c1.4,2.9,2.2,5.6-0.4,8.2c-6.7-13.4-17.8-24.2-22.5-38.7
	c-0.4-1.2-1.3-3.2-2-3.2c-10.8-0.5-9.7-12.4-16.3-17.3c-3.2-2.4-7.7-6.9-7.5-12.8c2.8-6.2,8.5-9,13.8-12.2c15-9,30.1-17.9,43.2-29.6
	c3.8-3.4,7.5-5.3,12.6-4.4c4,5.9,7.9,11.9,12,17.7c8.2,11.6,14.2,24.3,19.2,37.5C977.6,2088.1,982.2,2090.5,982.8,2095.5z"/>
<path style="fill:#B1E7F1;" d="M881.6,1290.6c1-21.2,4.3-42.2,12.9-61.7c7.3-16.6,18.8-30.9,29.3-45.7c8.6-12.2,21.4-20.7,29.1-33.6
	c0.2-0.3,0.4-0.5,0.7-0.8c16.3-12.7,30.1-28.8,50.3-36.2c5.9-2.2,12.6-1.6,15.8,2c1.2,1.3,2,2.8,1.4,4.5c-0.8,2.2-2.5,1.8-4,1.1
	c-3.5-1.5-5.6,0.5-7.8,2.7c-14.2,14.4-29.4,27.9-40.9,44.7c-0.4,0.5-0.8,1-1.3,1.5c-7.6,7.4-14,15.8-20.6,24.1
	c-7.3,9.1-13.2,19-20.1,28.1c-4.6,6.1-6.7,13.4-10.7,19.7c-3.1,5-4.9,10.8-7.5,16.1c-4.3,8.5-6.8,17.7-8.6,27.2
	c-1.4,7.8-4.6,15.1-9.4,21.5c-2.7,3.5-4.3,3.2-6.6-0.7C880.8,1300.6,881.9,1295.5,881.6,1290.6z"/>
<path style="fill:#B1E7F1;" d="M2069.9,1107.1c-1.7,10-1,20.7-6,30.5c-1.1,2-1.8,4.3-1.9,6.7c0.2,9.5-5,17.1-9.3,24.6
	c-5,8.9-8.6,18.5-14.8,26.9c-12.1,16.3-22.2,34.3-39.8,45.9c-3,2.1-6.3,3.8-9.7,5.1c-4,1.4-7.2-1-6.3-4.8c1-4.1,0.6-8.7,4-12.1
	c8.8-8.8,12.6-20.9,19.7-30.8c8.1-11.4,13.2-24.4,20.1-36.4c2.1-3.7,4.5-7.6,5.5-11.7c3-12,10.2-22.1,14.2-33.7
	c2.1-6.2,2.6-12.4,3.4-18.3c1.8-13.3,3.1-27-3.4-39.8c-1.1-2.1-2.5-4.2,0.1-6.2c2.6-2,5.1-1.2,7.4,0.3c5.3,3.6,9,9,10.5,15.3
	C2066.7,1081.2,2068.9,1094.1,2069.9,1107.1z"/>
<path style="fill:#B1E7F1;" d="M1959.7,194.9c3.1-13.3,1-27.2,4.2-40.4c3.3-13.8,1.6-27.8,1.8-41.7c0.5-25.3-6.1-49-18.6-71
	c-2.9-5.1-7.1-8.8-10.8-12.9c-2.4-2.6-6.2-4.7-3.5-9.2c2.5-4.2,6.5-4.9,12.2-2.5c8.3,3.5,15.3,9.5,20,17.3
	c10.8,17.4,19.7,35.6,22.7,56.2c1.6,11.4,3.3,22.6,2.5,34.3c-0.4,6.3,1.4,12.8,0.3,19.5c-2.5,15.5-3.4,31.5-11.4,45.5
	c-2.8,4.8-6.8,8.9-10.7,13c-1.5,1.6-3.9,2.9-6.4,2c-2.9-1-2.1-3.8-2.3-6C1959.6,197.6,1959.7,196.2,1959.7,194.9z"/>
<path style="fill:#1C8A9B;" d="M1289.2,1273.8c-1.1,1.7-2.4,3.8-1.8,5.6c3.9,10.4-0.7,19.9-2.7,29.7c-1.6,7.9-3.8,15.7-4.3,24
	c-0.3,5.4-3.1,11.4-3,17.1c0.1,4.4-7.4,3.5-4.5,8.8c2,3.6-1.4,6.9-2.1,10.4c-1.1,5.1-4.1,8.7-8.4,11.8c-11,7.8-22.4,14.6-35.6,18.1
	c-13.6,2.7-27.1,5.4-40.7,8.2c-4.5,0.9-9.2,3.6-13.3,2.9c-6.2-1.1-12.5-1.4-18.8-0.9c-6.2,0.6-12.2-4.4-18.4-0.2
	c-7.8-4-18.6,0.7-24.7-8.6c-1.1-1.7-3,0.5-4.5,0.4c-4.2-0.3-9.2,0-8.3-6.7l0.3-0.3c1.7-0.3,3.6,0.2,5-1.3
	c13.8,0.7,27.5,2.8,41.4,3.1c10.8,0.2,21.1-2,31.6-3.1c7.1-0.7,14.3-2.4,21.5-3.4c19.1-2.7,37.7-7.4,54.6-17.4
	c4-2.3,5.9-4.9,5.8-9.3c-0.1-4.7,0.2-9.3,3.8-12.9c1-0.9,1.4-2.3,0.9-3.6c-3.3-10.9,0.7-21.6,1.6-32.2c1.3-14.6,5.5-29.3,14.8-41.7
	c0.6-1.1,1.1-2.3,1.4-3.5c3.7-0.5,5,3.6,8.1,3.7C1288.9,1272.7,1289,1273.3,1289.2,1273.8z"/>
<path style="fill:#B1E7F1;" d="M1197.5,931.6c-0.1-6.9,3.9-12.2,8.2-16.5c11.4-11.4,23.1-22.6,36.3-32.1c8.3-5.9,15.7-13,24.8-18.1
	c14.2-7.9,29.2-11.1,45.5-11.8c14.2-0.9,28.3,3,40.1,11c3.4,2.3,8,4.5,6.6,9.9c-0.6,2.4-10,5.8-13.4,5.1c-2.9-0.5-5.8-1.2-8.7-2.2
	c-3.5-1.4-7.2-1.4-10.8-1.4c-18.6,0-35.6,5.6-51.8,14.6c-14.4,8-28.8,16.3-41.3,27c-7.3,6.2-16.4,11.1-20.2,21
	c-1.7,4.4-6,3.7-9.5,2.9S1197.5,936.3,1197.5,931.6z"/>
<path style="fill:#B1E7F1;" d="M1055.3,1695.4c-0.7,0-1.3,0-2,0c-2.8-0.4-6.4,1.1-7.4-3.1c-1.1-3.7,0.5-7.6,3.8-9.6
	c4.2-2.7,9.1-4.4,13-7.4c17.3-12.9,32.6-28.2,45.3-45.6c12.7-17.4,25.6-34.7,37.2-52.8c8.5-13.1,14.9-27.5,18.7-42.7
	c0.1-0.3,0-0.7,0.2-1c1.9-2.3,0.3-7.9,5.2-7.1c3.7,0.7,4,5.3,4,8.3c0.1,5.6-0.5,11.3-2,16.7c-4.7,15.6-8.9,31.6-17.6,45.5
	c-7.7,12.3-13.5,25.6-21.9,37.6c-10.6,15-20.5,30.6-34.7,42.5C1085,1687,1071.8,1695,1055.3,1695.4z"/>
<path style="fill:#B1E7F1;" d="M1706.2,1031c0.3,3,0.5,8.8,0.6,14.7c0.1,8.4,0,16.2-4.4,23.5c-0.5,0.9-0.7,1.9-0.7,2.9
	c0.6,10-4.4,18.3-9,26.4c-5.1,9.2-10.3,18.6-19.7,24.6c-3,1.9-6.3,5.8-9.6,3.4s-2.6-7.5-0.7-11c9.7-17.6,12.5-37.4,17.4-56.3
	c5-19.4,5.9-39.6-0.2-59.6c-2.9-9.5-7.5-18.4-13.5-26.3c-1.2-1.6-2.9-2.8-3.9-4.5c-2.4-4-0.6-7,4.2-7.4c4.2-0.4,7.8,1.2,11.1,3.7
	c13.8,10.6,22.1,24.8,25.4,41.6C1704.7,1013.8,1707.3,1020.8,1706.2,1031z"/>
<path style="fill:#B1E7F1;" d="M1751,447.1c0.2,2.7-4.8,6.8-8.2,5.5c-11.8-4.7-24.1-0.5-36.2-2.6c-11.6-2-23.9,0-35.9-0.6
	c-11.2-0.6-20.7,3.6-30.3,8.3c-9.2,4.6-17.9,10.2-25.9,16.7c-9.1,7.2-19.2,13.2-27,21.9c-1.1,1.2-2.8,2.1-3.4,3.4
	c-1,2.4-2.1,4.5-5,3.2c-3.3-1.5-4-4.4-2.4-7.5c3-6,7-11.3,11.9-15.9c9.9-9.1,19.4-18.9,30-27.2c11.9-9.3,24-19.1,39.5-21.9
	c13.1-2.4,26.6-1.5,39.8-0.5c11.5,0.9,22.5,5.2,34.2,5.9c6,0.4,11.1,4.2,16.2,7.3C1749.7,444.1,1750.7,445.5,1751,447.1z"/>
<path style="fill:#B1E7F1;" d="M2015.2,112.4c-2.1-17.2,1.8-34,0.5-50.8c-0.2-3.7-1.4-7.2-3.5-10.2c-2.2-3.1-4.5-6.3-0.3-9.4
	c4.6-3.4,11.8-3.4,14.7,0.1c4.4,5.1,6.9,11.3,8.8,17.7c4.3,14.8,5.1,30.1,5.6,45.2c0.4,11.9,2,24.2-1.2,36.2
	c-1.8,6.6-4.2,12.6-8.7,17.6c-3.4,3.8-5.5,3.1-7.9-1.5c-3.8-7.2-6.1-14.5-5.8-22.8c0.2-5.2-1.3-10.5-2.4-15.7
	C2014.6,116.4,2013.7,114.3,2015.2,112.4z"/>
<path style="fill:#183A48;" d="M1017.8,214.1c-6.8,0.1-9-2.9-7-9.5c0.6-2.3,1.7-4.4,3.1-6.2c7.5-8.4,15.2-16.6,24.7-22.8
	c1.1-0.7,2.3-1.2,3.6-1.5c7.5-1.8,14.6-4.9,21.1-9.1c2.5-1.6,5.1-2.6,8.4-1.5c3.7,1.2,5.4,2.5,4.3,7c-2,8.8-5.3,17.1-8.8,25.4
	c-1.6,4.1-5.3,7.1-9.7,7.9c-10.6,2.3-20.7,5.9-31,9C1023.8,213.7,1020.7,213.7,1017.8,214.1z"/>
<path style="fill:#183A48;" d="M1070.3,271.1c-8.1,1.9-15.8-0.3-23.5-1.7c-3.3-0.5-6.4-1.7-9.2-3.6c-2.7-2-6-4.5-4.9-7.8
	c1-3,3.7-6.3,7.5-6.8c5.7-0.9,10.6-3.7,15.4-6.6s9.5-5.4,15.3-6.4c4.5-0.8,9.5-0.5,13.3-5c1.9-2.3,6.8-2,10.2,0.2
	c3.2,2.1,3.7,5.3,3.2,8.8c-0.3,1.6-1.7,3.5-1.2,4.7c3.8,8.8-2.6,13.5-7.3,18.8C1083.9,271.2,1077,271,1070.3,271.1z"/>
<path style="fill:#B1E7F1;" d="M1765.4,1042c2,10.9-2.7,20.5-7.1,30c-3.5,7.5-9.6,11.5-17.7,12.9c-2.6,0.6-5.4-0.2-7.3-2.1
	c-2.3-2.3,0.1-4.4,0.9-6.3c6.3-14.6,10.3-30,11.8-45.8c1.1-11.6,3.1-23-0.2-34.5c-0.7-2.4,0.5-4.9,2.8-5.8c2.2-1,3.7,0.8,5.2,2.1
	c3.9,3.3,6.4,7.8,7.2,12.9C1762.4,1017.6,1767.1,1029.3,1765.4,1042z"/>
<path style="fill:#4AB6CA;" d="M1271.3,1401.6c0.4-6.9,7.3-7.4,11.2-9.1c9.7-4.3,19.5-7.4,21.9-19.6c0.3-1.3,2.2-2.4,3.3-3.5
	c11.7,0.1,22.7,3.2,33.5,7.6c2.4,1,5,2.4,4.3,4.6c-1.4,4.3-1.1,9,0.7,13.2c1.1,2.6-2.3,4.2-4.6,3.6c-5.7-1.6-10.2-0.4-14.2,4
	c-1.7,1.8-4.3,1.6-6.6,1.3C1304.4,1401.2,1287.8,1401.7,1271.3,1401.6z"/>
<path style="fill:#B1E7F1;" d="M1136.8,1713.3c-2.5-11.6-0.1-20.7,7.2-29.1c11.5-13.2,24.5-25.1,34.3-39.7c2.2-3.3,4.6-6.5,5.6-10.5
	c0.5-1.9,1.4-4,3.9-3.7c2.3,0.3,2.9,2.7,3.3,4.5c1.6,7.3,1.8,15.2-2.4,21.2s-6.8,12.8-10.5,19.1c-7.2,12.1-16.5,22.9-27.4,31.9
	C1146.8,1710.4,1141.8,1711.1,1136.8,1713.3z"/>
<path style="fill:#B1E7F1;" d="M932.5,1138.4c-12.5,10.3-21.8,21.1-28.2,33.9c-8.5,16.9-15.6,34.5-21,52.7
	c-1.4,4.8-3.6,9.3-5.5,13.8c-0.9,2.2-2.3,4.4-5,4.3c-3.4-0.1-4.1-3.2-4.7-5.6c-1-4.6-1-9.3,0-13.9c5.1-29.7,19.8-56.9,42-77.4
	C915.7,1141,921.7,1136.2,932.5,1138.4z"/>
<path style="fill:#F6BC02;" d="M734.5,1366.1c-5.8,1.4-11.6,1.3-17.5,0.9c-12.7-0.9-17.8-5.8-19.2-18.7c-0.2-1.3-0.5-2.6-0.8-3.8
	c2.2-9,12.8-18.3,20.8-18.3c9.7,0,19.7,6.8,22.7,14.7c2.3,6-0.1,11.1-2.3,16.1C736.8,1360.1,734.8,1362.7,734.5,1366.1z"/>
<path style="fill:#183A48;" d="M1098.6,325.2c-0.3,2.3-0.4,5-2.8,6c-6.4,2.7-10.4,8.1-15.2,12.7c-5.2,5-10.8,7.4-17.8,2.8
	c-4.4-2.9-9.5-4.7-14.2-7.1c-3.9-2-5-5.2-3-9.1c4.8-9.2,10.3-16.6,22.5-17.9c6.7-0.7,11.8-1.2,17.2,3.1c1.9,1.5,5,1.4,7.6,2.2
	C1096.4,318.9,1097.9,321.7,1098.6,325.2z"/>
<path style="fill:#B1E7F1;" d="M1653.3,383.6c4.8,1,12.1,0.2,17.4,5.9c3.7,3.9,3.2,6.6-1.8,7.7c-7.7,1.7-15.3,4-23.4,4.4
	c-20.5,1-39.1,8.9-57.5,17.1c-3.4,1.5-5.9,5.3-8.7,8.1c-1.8,1.7-3.4,3.4-5.8,1.1c-1.9-1.9-2.2-4.3-0.4-6.2c3.8-4.2,7.4-8.7,11.9-12
	c18.9-14,39.9-23.2,63.4-25.9C1649.3,383.5,1650.3,383.6,1653.3,383.6z"/>
<path style="fill:#4AB6CA;" d="M1309.7,1361.1c-1.1-2.1-2.1-4.1-0.4-6.4c1-1.3,1.9-2.6,1.8-4.4s-4.2-3.2-2.1-4.6
	c5.6-4,2.1-12.7,8.8-15.7c2.7-0.1,5.4,0.2,7.9-0.3c12.2-2.4,21.6,4.6,31.6,9.3c4.4,2.1,3,5.8,0.8,8.2c-4.4,4.5-9,8.8-13.8,12.9
	c-0.9,0.8-2.6,1.6-3.6,1.3C1330.4,1358.4,1320,1363.3,1309.7,1361.1z"/>
<path style="fill:#B1E7F1;" d="M1284,817.5c14.2-2,25.3,3.5,34.5,13.9c1.3,1.5,3.2,3,2.3,5.1c-1,2.5-3.5,2.7-5.9,2.9
	c-3.1,0.2-6-0.9-8.6-2.1c-14.2-6.5-29-7-43.7-3.4c-8.1,1.9-15.7,5.4-22.5,10.2c-1.1,0.8-1.9,1.9-3,2.6c-2.2,1.2-4.6,1.6-6.4-0.4
	s-1.3-4.5,0.2-6.4c2.1-2.5,4.3-5.3,7-7c9.5-6,19-12,30.3-14.4C1273.5,817.1,1278.8,817.8,1284,817.5z"/>
<path style="fill:#F6BC02;" d="M541.6,1331.8c5.2-2.8,11-2.3,16.5-2.8c2.4,2.6,6,3,8.8,4.7c3.1,5.1,1.9,11.4,1,15.9
	c-1.3,6.4-7.6,11.4-14.5,13.3c-5.9,1.7-11.8,1-15.4-5.4c-0.9-1.7-2.5-2.9-3.8-4.4C533.4,1344.9,536.5,1338,541.6,1331.8z"/>
<path style="fill:#4AB6CA;" d="M1319.9,1313.1c-2.7-7,1-13.4,1.9-20c0.8-0.5,1-1.5,0.6-2.3l3.3-2.3c8.9,0.9,17.7,1.8,26.6,2.6
	c5,0.5,6.5,3.7,6.9,8.1c0.2,1.8,0.2,3.6-1.8,3.9c-4.9,0.9-7.7,4.9-11.6,7.3C1337.6,1315.6,1328.8,1314.7,1319.9,1313.1z"/>
<path style="fill:#193948;" d="M865.6,1676.4c0.5-7.9,4.2-15.9-1.4-23.5c-0.5-0.7-0.1-1.9-0.2-2.9c-0.2-6.3-0.3-12.5-0.5-18.8
	c-13.8,3.2-26.1,10.2-38.2,16.7c-16.1,8.8-32.6,16.8-49,24.8s-33.6,13.8-52.1,15.2c-10.2,0.8-20.3,3.4-30.2,6
	c-4.8,1.3-9.1-1.2-13.8,0.1c-12.8,3.4-25.9,5-39.1,4.9c-11.5,0-22.9-0.8-34.3-2.3c-14-1.9-28-2.8-41.5-7.2
	c-11.8,3.6-20.7-5-31.1-7.2c-1-0.2-1.8-0.8-2.8-1.1c-15.9-5.2-32.7-7.3-48.3-13.7c-4.2-1.7-9.3-1.7-11.9-6.4
	c-0.9-1.6-2.9-1.3-4.5-1.6c-12.5-1.7-24.3-6.7-34.3-14.3c-4.5-3.4-9-6.8-14.7-7.7c-2-0.3-3.7-1.7-4.4-3.6c-0.7-1.4-0.9-3.5-2.8-3.8
	c-10-1.7-16.2-10-24.9-13.9c-4.2-1.9-5.1-8.1-11.2-7.7c-0.2,3.5-1.3,7.1-0.4,10.1c2.2,6.7-1.6,7.3-6.4,7.5
	c-2.9,3.6-0.9,7.4-0.2,11.1c-0.9,4.4,2.7,7.9,2.6,12.2c-2.4,11.3,1.4,22.3,2,33.5c0.5,9.8,1.6,19.5,0.8,29.4
	c-0.2,4.3,0.4,8.6,1.8,12.7c3.4,10.1,7.8,19.8,13.1,29c3.9,6.9,10,13.3,10,22.2c7,3.7,12.3,10.1,20,12.7c2.6,8.2,9.7,6.3,15.6,6.9
	c11.8,1.2,23.8,0.8,35.5,3c4.3,0.8,9.7,0.9,13.2-1.1c4-2.3,7.3,0.8,9.8-0.4c4-2,7.2-2.3,11.2-0.4c1.9,0.7,4,0.5,5.8-0.5
	c3.3-1.9,6.6-0.6,9.7-0.2c3.5,0.4,7.1,0.4,10.7,0c7.2-0.5,14.3-2.5,21.6-0.7c3.6,1,7.4,0.6,10.7-1.1c2.4-1.3,5.2-1.6,7.8-0.8
	c10,3.5,18.9-3.8,28.9-2.1c4.4,0.8,9.1-1.7,14.4-1c4.7,0.6,9.9-4.7,15.1,0.2c0.2,0.2,1.3-0.2,1.8-0.6c5.9-4.5,13.2-3.5,19.8-4
	c5.8-0.4,12-1.6,17.5-0.3c5.1,1.2,8.9,0.5,13.3-1.4c3.9-1.7,8.2-2.3,12.3-3.4c6.2-1.6,12.6,2.2,18.4-1.6c5.3-3.4,12.2-1.6,17.4-5.5
	c2.1-1.6,4.4,0.1,6.6,0.7c3.5,1.1,7.2,1.1,10.7,0c21.7-6.5,43.4-13.6,66.2-15.3c5-0.4,9.9-1,14.3-3.8c5.6-3.5,11.3-6.8,16.9-10.3
	c2-1.3,4.3-3,6.4-1.7c5.7,3.5,9.3,0,13.3-3c2.2-11-0.7-22.3,2.7-33.4c1.2-4.3,1.4-8.9,0.7-13.3
	C864.8,1687.9,865.3,1682.2,865.6,1676.4z"/>
<path style="fill:#F6BC02;" d="M677.7,1508.8c-3.6,8.2-8,16-12.9,23.4c-3.8,5.8-17.8,11-25.7,8.9c-3.2-0.8-6.4-1.3-9.7-1.4
	c-7.1-0.2-12.6-4.2-17.3-8.9c-3.7-3.8-6.7-8.2-10-12.4c0-5-0.5-9.9-1.5-14.7c-1.2-4.9,1.9-9.5,1.5-14.2c-4.2-1.3-6.4,1.4-9,2.5
	c-6.5,2.9-14.1,1.9-19.6-2.6c-5.9-4.6-6.2-14.9-2.1-22.4c1.2-2.3,1.2-4.9,3.3-7.1c10-10.5,26.4-6.8,31.5,7.6
	c0.4,1.1,0.2,3.6-0.2,3.7c-8.5,2.2-2.3,6.4-1.8,10c4.2,0.7,6.4-2.1,8.4-4.5c6.5-7.6,15.4-9,24.4-8.9c6.2,0.1,12.5,1.8,18.7,2.4
	c8.2,0.8,13.8,6,19.7,10.7c2.4,1.9,4,4.8,3.2,7.9C677.1,1495.5,679.6,1502.2,677.7,1508.8z"/>
<path style="fill:#193948;" d="M666.4,630.5c-0.7,10.9-7.2,19.5-16.4,27.8c-9,8.4-17.5,17.3-25.3,26.8c-7.1,8.4-14.5,17-21.4,25.7
	c-9.1,11.4-20.5,20.3-32,29.1c-11.9,9-18.9,5.1-22.3-9.8c-2.4-10.4,0.2-20.6-1.3-30.9c-0.6-4.3,1.4-8.9,4.5-12.7
	c12.4-15.5,26.9-29,42.2-41.5c11.4-9.3,18.7-22,29.4-31.8c5.2-4.7,10.6-9.4,13.1-16.4c1.7-4.6,5.9-3.8,9.5-4.5
	c24.8-4.5,26.7-1.2,24.1,23.3C669.8,620.3,668,624.6,666.4,630.5z"/>
<path style="fill:#193948;" d="M262.151,802.719c-24.635,0.38-27.75-1.809-21.032-26.103c1.022-3.522,0.604-7.777,5.338-9.056
	c7.197-1.859,12.365-6.813,17.514-11.568c10.725-9.773,24.031-15.898,34.321-26.413c13.829-14.111,28.581-27.334,45.136-38.286
	c4.064-2.745,8.826-4.322,13.054-3.337c10.123,2.423,20.516,0.753,30.657,4.081c14.533,4.73,17.786,12.053,7.749,23.093
	c-9.801,10.66-19.693,21.211-31.867,29.246c-9.287,6.087-18.519,12.682-27.525,18.996c-10.165,6.912-19.795,14.575-28.972,22.781
	c-9.096,8.414-18.247,14.112-29.165,13.827C271.34,801.04,266.895,802.445,262.151,802.719z"/>
<path style="fill:#F6BC02;" d="M740.2,1395.7l-0.4,0.8c-1.5,1-2.5,2.3-2,4.1c2.3,9.9-2.6,16.9-9.9,21.8c-8.3,5.6-17.6,4.4-26.2-0.1
	c-5.5-2.9-9-16.7-6.6-23.1c3.1-8.3,8.9-14.3,16.5-18.4c6.1-3.3,20.7,0.3,23.9,6.4C736.8,1390.2,740,1392.2,740.2,1395.7z"/>
<path style="fill:#F6BC02;" d="M713.2,1449.5c1.2,12-8,21.7-24.6,21.2c-10.1-0.3-18.8-12.2-18.1-24.6c0.5-9.9,10.9-20,20-19.6
	C705.8,1427.1,715.9,1438.1,713.2,1449.5z"/>
<path style="fill:#F6BC02;" d="M567.6,1439.9c-0.2,8.3-5,14.7-10.6,19.5c-3.5,3-10.1,2.9-15.1,1.5c-4.4-1.2-10.4-1.6-10.5-8.6
	c-9.3-7.4-4.2-16.5-1.5-24.1c3.2-9,12.5-11.5,23.4-8.4C562.5,1422.4,567.7,1429.6,567.6,1439.9z"/>
<path style="fill:#F6BC02;" d="M541.1,1389.6c0,2.3-0.1,4.6-0.4,6.9c-1.2,8.2-5.1,12.4-12.1,13.6c-8.5,1.4-13.8-1.2-18.1-8.6
	c-5.9-10.2-4-20.4,0-30.6c1.4-3.5,4.7-4.5,8.1-4.8c13.2-0.9,21.7,6.6,22.3,18.3c0.1,1.7,0,3.3,0,5L541.1,1389.6z"/>
<path style="fill:#4BB6CA;" d="M1098,1394.3c-0.9,6.7,4.1,6.4,8.3,6.7c1.5,0.1,3.4-2,4.5-0.4c6.1,9.3,16.9,4.6,24.7,8.6
	c6.1-4.2,12.2,0.8,18.4,0.2c6.3-0.5,12.6-0.2,18.8,0.9c4.2,0.7,8.8-2,13.3-2.9c13.5-2.8,27.1-5.5,40.7-8.2c2.7,3,1.9,6.3,1,9.6
	c-20.4,4-40.8,8.5-61.9,6.3c-6.1-0.7-12.1,1.4-18.5,0.5c-14.7-1.9-29.3-4.6-43.9-6.7c-3.9-0.6-7.3-2.7-7.1-7
	c0.2-5.3-3.4-5.8-6.9-6.7c0.1-0.5,0.3-1,0.5-1.5C1092.7,1393.5,1095.4,1393.3,1098,1394.3z"/>
<path style="fill:#1C8A9B;" d="M1089.9,1393.7c-0.2,0.5-0.4,1-0.5,1.5c-2.5,0.1-4.5-0.8-4.9-3.4c-0.2-1.4,1-2.2,2.5-2.1
	C1088.7,1390.4,1089.4,1392,1089.9,1393.7z"/>
<path style="fill:#FFFFFF;" d="M1230.9,1248.6c0.5,0.6,0.5,1.4-0.2,1.6c-0.3,0.1-1-0.7-1.4-1L1230.9,1248.6z"/>
<path style="fill:#4BB6CA;" d="M849.3,1848.9c-8.2-0.5-13.1-2.6-16.4-9.4c-2.9-6.1-5.2-12.8-9.9-18.1c-3.5-4-1.9-7.8,3.3-9.5
	c5.5-1.8,12.8,0.3,16.8,5.8c4.2,5.8,9,9.7,16.5,10.5c5.4,0.6,6.9,6,3.3,10.3C859,1843.2,856.5,1850.7,849.3,1848.9z"/>
<path style="fill:#4BB6CA;" d="M941,1990.9c-4.6,0.9-7.3-1.1-9.7-5c-2-3.2-3.7-6.4-4.3-10c-1-6.2-1.7-12.5-2.5-18.8
	c-0.3-2.8-0.2-5.7,3.2-6.4c2.8-0.6,5.7-1.7,7.9,1.9c3.4,5.3,9.4,8.4,12.2,14.3c1.3,2.7,3.9,4.1,7.1,4.9c6.5,1.6,7.8,7.2,3.1,12.3
	C953.4,1989.2,947.8,1991.7,941,1990.9z"/>
<path style="fill:#4BB6CA;" d="M892.7,1913.1c-4-0.5-8.4-1.4-9-5.4c-1-6.2-4.9-10.7-7.3-15.9c-1.2-2.5-2-5-1.5-7.7
	c0.8-4.9,4.6-6.6,8.7-3.6c1.3,1,2.8,1.8,4.3,2.2c8.6,2,15.5,6,20.8,13.7s5.1,12.7-3.7,14.6C901,1911.9,896.5,1911.5,892.7,1913.1z"
	/>
<path style="fill:#4BB6CA;" d="M460.8,1856.5c1.5,5.8-2.1,10.7-1,16.2c0.6,3.2-5.4,7.8-8.8,7.7c-4-0.2-6.9-0.8-8.9-5.8
	c-2.9-7.2-0.1-13.7,0.3-20.4c0.2-4.8,3.1-9.4,4.6-14.1c1.1-3.3,3.5-4.4,6.7-5.1s4.9,0.8,4.7,3.4
	C458,1844.8,462.4,1850.4,460.8,1856.5z"/>
<path style="fill:#4BB6CA;" d="M451.2,1911.6c-1.7,9.4,4.7,16.8,4.8,25.4c0,0.9,0.8,1.9,0.8,2.8c0.1,4.2,2,10.1-1.6,11.8
	c-4.2,2-8.5-3.3-11-6.4c-4.9-6.2-7.7-14.3-3.7-21.8C442.8,1919.3,443.4,1912.9,451.2,1911.6z"/>
<path style="fill:#4BB6CA;" d="M451.5,1972.5c10.1,9.9,7.7,22.1,9.9,33.8C442.7,2001.4,439.2,1990.8,451.5,1972.5z"/>
<path style="fill:#E76166;" d="M387.6,575c0.2-0.7,0.3-1.3,0.3-2c0.3-5.1,0.6-10.6,6.7-11.9c5.8-1.3,11,0.9,15,5.4
	c2.8,3.2,5,6.8,9.2,8.7c5.1,2.3,1.8,7.8,3,11.7c0.8,2.6-4.5,4-6.3,6.8c-6.6-5.8-13.8-0.5-20.7-1.2c-0.6,0-1.7-0.7-1.6-0.9
	c1-6.2-4.4-9.7-6-14.8C387.1,576.3,387.5,575.6,387.6,575z"/>
<path style="fill:#E76166;" d="M290.1,620.3c0.5-9.7,2.3-11.3,11.3-8.6c4.5,1.4,9.3,1.5,13.8,0.1c5.1-1.7,7.7,0.2,9.6,4.1
	c2.1,4.2-2,5.8-4.2,8c-2.6,2.6-5.3,5-8.1,7.3c-3.4,2.8-5.8,7-11.9,3.6C291.5,629.5,289.8,628.1,290.1,620.3z"/>
<path style="fill:#E76166;" d="M544.5,434.7c0-0.8,0-1.5,0.2-2.2c1.4-3.5,0.5-8.7,5.2-10c3.8-1.1,6.5,2.3,9.4,4.5
	c4.9,3.9,8.3,9.2,14,12.5c3.4,2,2.9,7.2-0.5,9.1c-5.6,3.2-12.1,2.6-18.2,3.9c-0.9,0.2-2.5-1-3.2-1.9
	C547.5,445.9,544.8,440.6,544.5,434.7z"/>
<path style="fill:#E76166;" d="M441.4,650.3c-3.7-0.4-6.3-0.7-8.9-0.9c-2-0.1-3.9-0.9-5.4-2.2c-3.4-3-6.3-20.8-4-24.5
	c1-1.8,3.1-2.7,5.1-2.2c3.2,0.8,6.2,2.2,8.8,4.2c5.5,4.5,8.9,10.6,13.2,15.9s2.9,7.8-4,9.1C444.2,650,442.3,650.2,441.4,650.3z"/>
<path style="fill:#E76166;" d="M376.3,512.8c-4.7,0.3-9-2.5-10.7-6.9c-1-2.1-1.8-4.3-2.3-6.6c-0.7-3.5-2.6-7.4,1-10.2
	c3.4-2.5,7.3-1.1,10.4,0.7c6.2,3.7,12.9,7,17.8,12.6c3.7,4.2,3.1,7.4-2,8.5C386,511.8,381.3,512.2,376.3,512.8z"/>
<path style="fill:#E76166;" d="M509.1,619c0,6.5-2.5,7.9-8,4.8c-2.8-1.7-5.6-3.5-8.2-5.5c-3.8-2.8-5.4-6-3.7-11.1
	c2-6.2,1.8-13.2,7.8-17.5c3.1-2.2,6.3-1.9,7,1.5C506,600.4,507.5,609.8,509.1,619z"/>
<path style="fill:#E76166;" d="M255,548.6c1.9,0.5,4.4,1.2,6.9,2c5.5,1.9,10.2,6.1,16.6,5.9c2.3-0.1,3.1,2.2,3.5,4.2
	s-1.1,3.1-2.6,3.8c-5.4,2.5-10.8,4.8-16.2,7.1c-2.2,1-4.8,0.3-6.3-1.7c-3.2-4.5-5.9-9.3-8.1-14.3C247.1,551.5,249.8,548.6,255,548.6
	z"/>
<path style="fill:#E76166;" d="M564.9,592.9c-9.5-1-11.4-8.4-16.1-12.6c-2.3-2.1-1.8-6.4,0.1-9.4c3.7-5.8,7.8-11.5,11.8-17.1
	c0.9-1.5,2.8-2,4.3-1.2c1.4,0.6,1.5,2,1.6,3.4c0,0.3,0,0.7,0,1C565,568.6,563.8,580.3,564.9,592.9z"/>
<path style="fill:#E76166;" d="M392.6,668.8c-0.1,1.3-0.9,2.5-2.1,3.2c-5.2,2.8-10.2,6-15.7,8.3c-7,3-17.5-4.1-18.2-11.9
	c-0.2-2.3,0.5-4,2.9-4.3c7.9-0.9,15.7-1.7,23.6-2.2c3-0.2,5.6,1.8,8,3.5C392.2,666.1,392.8,667.4,392.6,668.8z"/>
<path style="fill:#E76166;" d="M570.6,488.8c4.6,7.3,5.1,15.5,8.3,22.6c0.4,0.9,0.2,2,0.6,2.9c1.3,2.8,4.3,5.3,0.4,8.5
	c-3.4,2.8-5.4-0.3-7.9-1.4c-1.2-0.5-2.3-1.4-3.5-1.9c-8.3-3.5-9.8-6.2-7.7-14.8C562.4,498.8,563.2,492.4,570.6,488.8z"/>
<path style="fill:#E76166;" d="M504.9,553.6c-0.1,1.4-0.3,2.7-0.6,4.1c-1,3.4-3.2,4.1-5.7,1.5c-3.6-3.8-6.9-8-10.6-11.8
	c-3.9-3.9-3.6-8.3-2-12.8c2.2-6.7,6.9-7.7,11.6-2.6C502.7,537.9,505.4,545.7,504.9,553.6z"/>
<path style="fill:#E76166;" d="M476.9,452.5c4.5,4.4,7.9,8.4,12.4,11.2c5.2,3.2,6.5,8.9,8.3,14.2c1.1,3.3-0.3,4.9-3.9,5
	c-8.8,0.2-14.5-3.9-17.9-14C474,463.9,473.1,458.6,476.9,452.5z"/>
<path style="fill:#1C8A9B;" d="M2020.6,644.2c0.1,17-3.1,30.9-15,42.1c-11.6,10.9-25.7,13.8-40.5,12.2c-10-1-19.9-3.4-27.4-12.2
	c-6.1-7-9.6-16-10-25.3c-1.1-21.3,13.6-40.4,30.9-48.1c12.4-5.5,24.3-6.2,36.9-3.3c8.5,2,14.6,7.3,18.1,15.4
	c0.7,1.5,1.6,2.9,2.5,4.2C2019.2,634.3,2023.8,639,2020.6,644.2z"/>
<path style="fill:#1C8A9B;" d="M2036.7,589.3c-2.7-0.7-6.9-1.6-11-2.7c-0.6-0.2-1.2-0.5-1.7-0.9c-7.2-4.6-9.5-20-4.1-26.8
	c2.2-3,5.6-4.9,9.3-5.1c2-0.1,4-0.2,6-0.2c13.4,0,17.6,3.4,20.5,16.5C2057.8,580.5,2049.3,590.1,2036.7,589.3z"/>
<path style="fill:#1C8A9B;" d="M1925,727.2c0.1,13.9-13.9,24-26.4,19c-7.7-3-11-16.9-5.9-25.2c4.3-7.1,16-11.3,23.7-8.4
	C1923.1,715.2,1924.9,718.2,1925,727.2z"/>
<path style="fill:#1C8A9B;" d="M1813.8,206.9c-7.6,0.8-14.9,0.8-21.2-6.3c-5.3-5.7-9.7-12.1-13-19.1c-6.6-14.1-3.4-26,5.2-36.8
	c7-8.7,17-14.2,28.7-11.6c19.4,4.2,33.9,17,35.9,37.1c1.4,13.7-3.1,25.3-15,33.4C1828.2,207.8,1821.3,207.5,1813.8,206.9z"/>
<path style="fill:#1C8A9B;" d="M1810.4,96c0.1-3-0.2-6-1.1-8.8c-0.9-3.1,0.8-5.8,2.7-8.1c2.6-3.1,5-2,7.7,0c2.9,2.1,5.6,0.4,8.3-1
	c1.7-0.9,3.8-2.1,5.5-0.2c5.4,5.9,12.6,9.9,14.5,19.3c2.6,12.5-9.7,26.3-22.3,20.2C1815.8,112.5,1810.4,107.2,1810.4,96z"/>
<path style="fill:#1C8A9B;" d="M1802.4,250.1c-1.2-2.6-2.3-5.3-3.2-8.1c-2.8-8.3-9.5-11.4-17.7-8c-3.2,1.3-5.6,0.3-8.5-0.1
	c-5.2-0.8-6.6,1.2-5.5,6.9c0.2,1,0.4,1.9,0.6,2.9c-0.8,1.8-0.8,3.8,0.1,5.6c0,2-0.2,3.9-0.1,5.9c0.3,8.9,2.1,10.9,11.1,12.9
	c0,0.6,0.1,1.3,0.2,1.9c0.5,0.8,0.8,2.3,1.4,2.4c3.7,0.5,7.6-1.8,11.4,0.8c0.6,0.4,2.5-0.5,3.5-1.1
	C1802.3,267.9,1805.8,257.4,1802.4,250.1z"/>
<path style="fill:#1C8A9B;" d="M1633.2,650.6c0.2,14.3-4.4,27.3-11.8,39.4c-3.3,5.4-9.2,7.7-15,9c-5,1.1-9.5-1.5-11.4-6.2
	c-3-7-5.3-14.2-7.1-21.6c-1.2-5.3-0.2-10.8,2.6-15.4c5.7-9.5,11.8-18.2,22.6-22.7s18.8-0.2,20.1,11.6
	C1633.3,646.6,1633.4,648.6,1633.2,650.6z"/>
<path style="fill:#1C8A9B;" d="M1564.1,726.4c-7.7,0.2-10.5-2.3-13.7-8.9s-5.5-12.7-2.1-19.8c3.2-6.7,9.9-9.1,15.5-12.8
	c2.4-1.5,6.6,0.2,7.7,3c2.1,5,5.7,9.1,7.4,14c2.4,6.6-5.9,22-12.6,24.1C1565.6,726.3,1564.8,726.4,1564.1,726.4z"/>
<path style="fill:#1C8A9B;" d="M1663.2,615.7c0.4,2.9-0.4,5.3-3.6,6s-6.4,2.3-9.2-1c-1.9-2.3-3.9-4.5-6.1-6.6
	c-3.7-3.3-1.8-6.4-0.3-9.8c2-4.5,6.1-4.6,9.9-5.3c0.7,0,1.3,0.3,1.7,0.9C1656.8,605.8,1664,608.8,1663.2,615.7z"/>
<path style="fill:#1C8A9B;" d="M1251.6,1080.6c-0.9-14.7,4.6-20.4,19.4-23.3c6.5-1.2,12.4,0.1,18.3,1c5.4,0.9,9.3,4.1,10.1,10.6
	c0.8,7,4.6,13.4,1.9,21.1c-5,14.8-23.1,24.7-37.5,18.9c-5-2.1-8.7-6.4-9.9-11.7C1252.5,1091.8,1252.5,1086.2,1251.6,1080.6z"/>
<path style="fill:#1C8A9B;" d="M1220,1138.2c0.1-4.5,1.4-8.3,6-10.3c1.5-0.6,2.9-1.5,4.4-2.1c3.5-1.4,7.4-5.2,10.9-2.1
	c4,3.5,6.6,9.1,5.4,14.2c-1.1,4.5-2.4,10.7-9.4,10.9c-4,0.2-7.6,4.6-11.9,0.4C1222.1,1146.2,1219.5,1143,1220,1138.2z"/>
<path style="fill:#1C8A9B;" d="M1303.8,1026.9c-1,3.4-4.3,7.5,3.2,7.8c4.1,0.2,9.4,9.1,7.8,12.7c-1.8,4.3-4.2,7.1-10.5,5.9
	c-8-1.5-13.4-6.1-12.7-14.2c0.1-2,0.4-3.9,0.8-5.8C1294.3,1025.9,1294.4,1025.9,1303.8,1026.9z"/>
<path style="fill:#1C8A9B;" d="M1527.2,1153.2c-4.7,1-7-1.3-9.7-5.7c-8-12.6-6.4-25.4-2.7-38.4c1.6-5.5,4-11.5,11.5-11.9
	c1.2-0.1,2.3-1.2,3.4-2c6.4-4.3,10.1-4,15.2,1.6c4,4.4,7.3,9.1,7.6,15.7c0.2,7.6-0.1,15.2-1,22.8
	C1550.3,1144.6,1537.7,1153.7,1527.2,1153.2z"/>
<path style="fill:#1C8A9B;" d="M1476.2,1148.1c0.2-11.4,10-18,20.2-13.7c4.4,1.8,7.5,7.5,7.2,13c-0.3,4.6-3.6,6-7.3,6.8
	c-2,0.3-3.9,1-5.5,2.1c-2.6,2-4.3,6.7-9,3.7C1477.9,1157.5,1476.1,1153.7,1476.2,1148.1z"/>
<path style="fill:#4BB6CA;" d="M1586.1,1091.1c-8.5,0.1-14-3.4-16.8-11.1c-0.6-1.7-1.4-3.4,0-4.5c2.6-2,4.6-4.7,5.7-7.8
	c0.7-1.6,2.4-2.3,4.2-2.2c5.4,0.1,7.9,4.5,11,7.8c2.4,2.6,0.5,5.7-1.3,7.1C1584.8,1083.4,1587.7,1087.9,1586.1,1091.1z"/>
<path style="fill:#1C8A9B;" d="M1154.7,1338.8c2.6-17.2,8.3-31.2,20.3-42c8.4-7.5,25.7-2.1,30,8.6c8,19.7-4.1,43.8-16.8,53.3
	c-6.9,5.1-18.9,4.5-25.1-1.2c-1.2-1.1-3-2.7-2.9-3.9C1160.9,1347.3,1151.9,1344.3,1154.7,1338.8z"/>
<path style="fill:#1C8A9B;" d="M1101.8,1377.8c-0.2,1.9-0.6,3.5-2.7,3.3c-1.5-0.2-1.7-1.7-1.7-3c0.1-1.5,0-3.5,2.1-3.6
	S1101.6,1376.4,1101.8,1377.8z"/>
<path style="fill:#4BB6CA;" d="M1103.4,1392.7c-1.4,1.4-3.3,1-5,1.3c-0.2-1.7,1-3.2,2.6-3.5
	C1102.5,1390.1,1103.3,1391.2,1103.4,1392.7z"/>
<path style="fill:#4BB6CA;" d="M1093.4,1374c1.1-0.2,1.6,0.5,1.9,1.5c0.3,1.5-0.5,2.3-1.7,2.8s-1.6-0.6-1.8-1.4
	c-0.4-1.2,0.3-2.5,1.4-2.9C1093.3,1374,1093.3,1374,1093.4,1374z"/>
<path style="fill:#1C8A9B;" d="M1832.3,1227.7c-8.2-0.1-10.4-2.5-8.1-9.8c3.8-12.2,11.1-22.6,19.9-31.7c4.5-4.7,16.3-4.6,21.6-0.9
	c2.5,1.7,3,4,2,6.9c-4.8,14.4-14.5,24.8-26.4,33.6C1838.4,1227.9,1835,1227.2,1832.3,1227.7z"/>
<path style="fill:#1C8A9B;" d="M1810.3,1223.9c-2.4-0.4-5.1-0.8-7.6-1.4c-2.2-0.6-4.5-1.5-4.6-4.4c-0.2-2.4,1.2-4.7,3.5-5.5
	c3.9-1.8,7.9-3.2,12.1-4.3c4.6-1.2,5.4,3,6.4,5.9c1.3,3.8,0.6,7.3-3.7,8.9C1814.5,1223.8,1812.4,1223.6,1810.3,1223.9z"/>
<path style="fill:#1C8A9B;" d="M1890.4,1204c-0.8-0.2-1.6-0.1-2.1-0.4c-3.8-3.1-5.2-8-5.5-12.1c-0.2-3.8,4-6.4,8.1-7.4
	c4.3-1.1,7.6,1.7,6.3,5.8c-1.3,4.3-4.1,8.1-4.7,12.7C1892.5,1203.2,1891.1,1203.6,1890.4,1204z"/>
<path style="fill:#1C8A9B;" d="M1519.5,1465.2c-2.9,0.1-5.2,0.1-7.4-1c-2.6-1.3-3.8-2.7-3.3-6.2c1.4-9.5,7.5-15.4,15-19.6
	c7.1-3.8,14.8-6,22.8-6.6c7.4-0.6,11,4.8,7.5,11.6c-1.1,2.1-2.5,3.9-4.2,5.5c-6.7,5.9-14.4,10.5-22.3,14.8
	C1525.2,1465.1,1522.3,1465.6,1519.5,1465.2z"/>
<path style="fill:#4BB6CA;" d="M1485.5,1443.1c0.4-8.2,7.7-13.8,14.4-11.1c2,0.8,3.3,2.2,3.5,4.4c0.1,1.9-1.2,2.7-2.8,3.4
	c-3.4,1.4-6.1,3.9-6.9,7.7c-0.6,2.7-2.2,4.1-4.8,3.8c-3.1-0.3-3.2-2.8-3.3-5.2C1485.5,1445.1,1485.5,1444.1,1485.5,1443.1z"/>
<path style="fill:#B1E7F1;" d="M1321.2,1263.2c-3.2-6.8-8.6-7.6-12.6-1.1c-4.6,7.5-11.3,10.6-19.4,11.7c-1.1,1.7-2.4,3.8-1.8,5.6
	c3.9,10.4-0.7,19.9-2.7,29.7c-1.6,7.9-3.8,15.7-4.3,24c-0.3,5.4-3.1,11.4-3,17.1c0.1,4.4-7.4,3.5-4.5,8.8c2,3.6-1.4,6.9-2.1,10.4
	c-1.1,5.1-4.1,8.7-8.4,11.8c-11,7.8-22.4,14.6-35.6,18.1c2.7,3,1.9,6.3,1.1,9.6c3.2,1.9,5.3-1.8,8.2-1.5c1.8,2.2,3.1,1.3,4.2-0.7
	l3.8-0.5c1.2,1.2,2.4,1.5,3.6,0l6.2-0.7c2.6,3.5,5.4,0.5,8.2,0.3c1.2,0.6,2.6,0.6,3.7,0c0.8-2.9,3.3-3.3,5.7-3.9
	c0.4-6.9,7.3-7.4,11.2-9.1c9.7-4.3,19.5-7.4,21.9-19.6c0.3-1.3,2.2-2.4,3.3-3.5c-0.4-3,0.7-5.7,2-8.3c-1.1-2.1-2.1-4.1-0.4-6.4
	c1-1.3,1.9-2.6,1.8-4.4s-4.2-3.2-2.1-4.6c5.6-4,2.1-12.7,8.8-15.7l2.2-16.8c-2.7-7,1-13.4,1.9-20l0,0c0.8-0.5,1-1.5,0.6-2.3l0,0
	l3.3-2.3C1328.3,1279.3,1325,1271.2,1321.2,1263.2z M1319.1,1293.1c-0.8,0-1.6-0.3-2.2-0.9c-0.3-0.3-0.4-0.8-0.3-1.2
	c0.1-0.3,0.2-0.5,0.4-0.7c-0.2,0.2-0.4,0.4-0.4,0.7c-0.1,0.4,0,0.9,0.3,1.2C1317.5,1292.8,1318.3,1293.2,1319.1,1293.1
	c0.3,0,0.6,0,0.9,0C1319.7,1293.2,1319.4,1293.2,1319.1,1293.1L1319.1,1293.1z"/>
<path style="fill:#183A48;" d="M769.8,873.4c-0.8,0.1-1.2-0.2-1-0.8c0,0,0.5,0,0.6,0.1c0.1,0.3,0.2,0.5,0.2,0.8L769.8,873.4z"/>
<path style="fill:#B1E7F1;" d="M821.3,733c-0.3-0.5-1-1-0.9-1.4c0-0.7,0.6-1.3,1.3-1.3c0.3,0,0.5,0.1,0.7,0.2c0.5,0.4,0.6,1,0.5,1.7
	C822.7,732.6,821.8,732.7,821.3,733z"/>
<path style="fill:#193948;" d="M1005,688.8c-1.1-7.7-2.8-15.3-5-22.8c-0.9-3.3-0.7-8.5-6.9-7.8c-1.8,0.2-1.6-1.9-1.5-3.1
	c0.2-3.2-1.7-4.4-4.2-5.9c-8.6-5.2-18.4-8.2-28.4-8.9c-17.2-1.5-30.1,5.6-43.1,14.2c-5.5,3.6-11.2,7.5-13.9,14
	c-4.4,10.7-8.8,21.6-7.6,33.6c0.3,2.6,0.4,5.2,0.5,7.9c0.1,9.5,7.8,17.2,17.4,17.2c0.4,0,0.9,0,1.3-0.1c4-0.3,8-0.3,11.8,1.1
	c1.8,0.7,4.4,1.8,3.6,4c-1.7,4.9,0,10.6-4.1,15.1c-3.3,3.6-5.6,8.2-8.4,12.4c-3.9,5.8-2,10.1,4.9,11.5c9.5,1.9,16.5-1.7,22.6-8.7
	c6.4-7.3,9.3-16.2,10.7-25.3c0.8-5.2,2.3-11.4-1.4-16.5c-6.5-8.9-14.4-15.1-26.5-15c-4.4,0-10.2,3.7-12.8-0.1
	c-2.4-3.5,1.6-8.6,2.7-13.1c3-13.2,14.1-22.2,27.3-20.8c12.4,1.3,24.9,3.3,34.7,12.8c5,4.8,10.6,9.1,17.6,11
	C1003.6,697.7,1006,696.1,1005,688.8z"/>
<path style="fill:#193948;" d="M145.5,987.8L145.5,987.8c-0.6-5.4-5.1-3.1-7.8-4.2c0.2-10.4,1.4-19.3,10.4-27.3
	c13.9-12.3,10.2-25.7-0.8-36c-6.4-5.8-13.4-10.9-20.8-15.3c-7.2-4.5-15-6.2-23.7-3.7c-5.3,1.5-10.8,2.8-16.1,3.9
	c-12.1,2.6-20.4,10.3-28.6,18.2c-10,9.5-14.8,22.3-20.8,34.4c-3,6-3.8,11.6-1.8,18.1c4,12.8,7.1,26,11.2,38.8
	c2,6.1,5.9,11.3,11.2,14.9c4.1,2.8,7.8,6.2,12.2,8.7c3.8,2.1,8.5,7.4,12.2,3.5c3.8-4-0.2-9.2-3.4-13.2c-2.9-3.7-5.7-7.4-8.5-11.1
	c-1.4-1.5-2.4-3.2-3.1-5.1c-3.6-13.4-7.3-26.8-11-40.2c-0.9-2.5-0.9-5.3-0.1-7.8c6.4-18,17.2-31.9,35.5-39.3
	c5.3-2.2,11.2-0.5,16.3-3.7c1.9-1.2,5,1.4,6.8,2.4c7.2,3.8,14.3,8.1,20,14.1c3.1,3.2-0.4,5.2-2.8,7c-2.8-0.9-4,0.2-4.1,3
	c-0.3,0.5-0.5,1.1-0.5,1.8c-2.4,0.5-3.8,1.7-3.3,4.4l0,0l-3,5.4l0,0c-6.6,5.4-7.3,7.9-4.5,16.7c-0.4,3.9,1.3,7.5,2,11.2
	c-1.3,3.7,1,6.2,3.1,8.7c1.3,1.5,2.9,1.1,3.8-0.8c3.4,0.5,6.2,3.1,9.8,3c5.4,4,17.1,4.6,25.4,1.1
	C156.7,993.7,152.7,988.7,145.5,987.8z"/>
<path style="fill:#193948;" d="M528.7,808.6c0.3,5.4,1.6,9.9,5.5,13.7c2.6,2.6,4.5,6,5.3,9.7c2.9,11.8,12.4,20.6,14.7,32.6
	c0.9,3.2,3.2,5.8,6.3,7l-0.1-0.2c0,0.5-0.3,1-0.1,1.4c12.9,27.1,35.6,44.8,61.1,58c14.6,7.5,20.2,19,24.5,32.6
	c1.2,3.2,0.6,6.7-1.5,9.4c-3.5,4.1-4.9,8.9-6.4,13.8c-1,2.6-2.9,4.8-5.3,6.1c-13.8,8.4-27.9,12.7-44.7,8.8
	c-8.6-2-13.1-4.7-11.2-15.2c-6.6,5.8-12.7,7.7-17.5,2.7c-11.9-12.4-25.6-24.1-27.7-42.9c0-2.3-1.4-4.4-3.6-5.4
	c-7.1-3.5-8.7-10.4-10.2-17.2c-1.1-4.5-1.4-9.3-5.2-12.5c1.4-10.9-3.2-20.1-7.8-29.3c1.9-5.1-0.2-9.9-0.9-15
	c-1.1-7.8-6.6-14.4-5.3-22.8c1.1-6.9-0.7-13.6-2.6-20.5c-2.1-7.8-3.1-15.8,0.8-24.2c3.7-8,6.8-16.3,10.3-24.3l0.7-0.2
	C518.8,783.6,528,793.7,528.7,808.6z"/>
<path style="fill:#213F4D;" d="M616.8,1096.6c-0.2,2.4-0.9,4.2-3.9,3.3L616.8,1096.6z"/>
<path style="fill:#183A48;" d="M773.7,910.5h0.1v-0.1L773.7,910.5z M809.6,977.7c-0.1-6.7-1.6-13.3-4.3-19.5
	c-3.1-6.8-6.2-13.8-7-21.6c-0.8-7.3-6.8-12-11.1-17.6c-3.6-4.6-7.2-8.4-13.4-8.5c0,0.1,0,0.3-0.1,0.4c-0.3,1.6-0.9,3.4-0.4,4.7
	c3.2,8.9,0.8,18.1,1.1,27.1c0.2,5.1-1.7,10.7-1.1,16.3c0,0,0,0,0,0.1c2,0.1,3.4,0.6,4.4,1.5c0.1,0.1,0.2,0.2,0.3,0.3
	s0.2,0.3,0.3,0.4c1,1.5,1,3.6,0.4,5.8c-2.8,10.9-5.6,21.8-9.3,32.4c-1.9,5.5-6.7,9.5-11.5,12.8c-2.1,1.4-3.3,3.5-2.6,5
	c2.3,5.5-1.7,7.1-5.5,10v-0.1c-0.3-0.9-0.7-1.7-1.1-2.5c-0.7-1.4-1.4-2.7-2.2-4c-1.4-2.1-2.9-4-4.7-5.7l0,0l-2.8,0.8
	c-5.2,6.4-9.8,13.4-17.6,17.2c-0.6,0.3-0.9,0.9-1.3,1.5c0,0.1-0.1,0.2-0.1,0.2c-0.1,0.2-0.2,0.4-0.3,0.5c-0.1,0.2-0.2,0.3-0.3,0.5
	c0,0,0,0.1-0.1,0.1l0,0c6.8,0.3,12.5,2.8,17.8,7.1c0.8,0.7,1.4,1.3,1.8,1.9c0.1,0.1,0.2,0.2,0.2,0.4c0.1,0.1,0.1,0.2,0.2,0.4l0,0
	c0.5,1.3,0.2,2.6-0.7,4.1c-4.8,7.7-7.6,17.1-17.5,20.3c-1.2,0.3-2,1.4-2,2.6c0,4.1-3.3,5.7-5.8,7.4c-4.8,3.3-7.3,9.7-14.2,10.8
	c0,0,0,0,0-0.1c-0.2-0.7-0.5-1.5-0.8-2.2c-0.1-0.3-0.3-0.7-0.4-1c-0.8-1.9-1.8-3.7-2.8-5.5c-0.3-0.5-0.6-1-0.9-1.5
	c-0.3-0.5-0.6-1-0.9-1.4c-0.3-0.5-0.6-1-0.9-1.4l0,0c-0.4-0.6-0.8-1.3-1.2-1.9c-0.9-1.3-1.7-2.6-2.6-3.9c-0.2-0.3-0.4-0.6-0.5-0.9
	c-0.4-0.6-0.8-1.3-1.2-1.9s-0.7-1.3-1.1-1.9c-0.9-1.7-1.8-3.4-2.5-5.2c-0.1-0.3-0.2-0.7-0.4-1c-0.2-0.6-0.4-1.2-0.6-1.9
	c0-0.1-0.1-0.2-0.1-0.3l0,0l-18.3,7.2c0,0.1,0,0.2,0,0.2c0.3,1.1,2,1.7,1.5,3.3v0.1c5,2.4,8.8,5.7,10.4,11v0.1
	c0.1,0.3,0.2,0.7,0.3,1c0,0.1,0.1,0.2,0.1,0.3c0.6,2.2,1.9,4.1,3.8,5.3c0.9,0.7,2,1.5,2.2,2.2c0.2,0.8-0.5,1.4-3.4,1.5
	c-0.9,0-1.1,0.4-1,0.8c0,0,0,0,0,0.1c0.2,0.7,0.9,1.7,1.2,2.4c0.7,1.5,1.2,2.8,1.5,4c0,0.1,0.1,0.3,0.1,0.4c0,0.2,0.1,0.3,0.1,0.5
	s0.1,0.3,0.1,0.5c0.9,4.3-1,6.8-6.9,9.2c-15.9,6.5-31.3,14.2-48.3,17.6c-4.3,0.8-6.4-0.2-8.3-4.2c-3.6-7.5-4.1-15.9-7.3-23.5
	c-1.8-0.2-2.4-0.7-2.4-1.3l0,0c0-0.7,0.7-1.6,1.5-2.4v-0.1c-0.3-0.6-0.5-1.2-0.5-1.9c0-0.1,0-0.2,0-0.3c0-0.7,0.1-1.4,0.2-2.2v-0.3
	l0,0c-3.9-2.8-6.2,3-9.3,2.1c-5.8-1.7-9.1,2.1-13,4.6c0,0,0,0-0.1,0c0.1,0,0.1,0.1,0.2,0.1c1.1,0.7,1.7,1.6,2,2.5
	c0,0.1,0.1,0.3,0.1,0.4s0,0.2,0.1,0.3c0,0.1,0.1,0.2,0.1,0.3c0,0.1,0,0.1,0,0.2s0,0.2,0.1,0.4c0,0.1,0,0.2,0,0.4
	c0.2,1.2,0.1,2.4,0.2,3.5c0,0.2,0,0.3,0,0.5s0,0.3,0.1,0.5c0,0.2,0.1,0.5,0.1,0.7c1.3,4.9,3.1,9.7,4.2,14.8c0.3,1.2,0.5,2.5,0.6,3.8
	c0.1,0.9,0.2,1.9,0.2,2.9c0.1,4.3-1.4,6.2-5.4,7.7c-7.9,3-16,0.5-23.8,1.9c-8.6,1.5-16.7-3.3-25.2-1.8c-0.3,0-0.6-0.1-0.9-0.2
	c-3-0.9-6.4,3.3-9.1-0.2c-1.5-1.9-2.6-4.1-3.1-6.4c-0.1-0.2-0.1-0.5-0.2-0.7c-0.1-0.4-0.2-0.8-0.2-1.3c-0.2-2-0.2-4,0.3-6
	c1.5-6.1,0.9-12.1,0.9-18.1c0-0.1,0-0.3,0-0.4l0,0c-6.5-1.4-12.8-1.8-19,1.2l0,0c0,0.1,0,0.2,0.1,0.3c0.1,0.3,0.1,0.6,0.2,0.9
	c0,0.2,0.1,0.5,0.1,0.8c0,0.2,0.1,0.5,0.1,0.8c0,0.2,0.1,0.5,0.1,0.7s0.1,0.5,0.1,0.7c0,0.3,0,0.5,0.1,0.8l0,0
	c0,0.4,0.1,0.8,0.1,1.2c0.1,1.8,0.2,3.5,0.3,5.3c0,0.7,0.1,1.3,0.1,2c0,0.1,0,0.2,0,0.3c0,0.5,0.1,1.1,0.1,1.7
	c0.1,0.7,0.1,1.4,0.2,2.1c0,0,0,0,0,0.1c0,0.4,0.1,0.8,0.1,1.2c0.1,0.4,0.1,0.8,0.2,1.3c0.1,0.4,0.1,0.8,0.2,1.1c0,0.1,0,0.2,0,0.3
	v0.1c0.1,0.7,0.1,1.4,0.1,2v0.3c0,0.2,0,0.3,0,0.4s0,0.1,0,0.2s0,0.1,0,0.2c-0.5,5.6-4.6,7.4-11.9,6c-5-0.9-10-1.7-14.8,0.4
	c-1.9,0.8-3.3,0.1-5-0.6c-7.1-3-14.2-5.9-21.3-8.8c-1.8-0.7-3.2-1.6-4-2.9c-0.1-0.1-0.2-0.3-0.3-0.4c-0.3-0.5-0.5-1-0.6-1.7
	c0-0.2-0.1-0.3-0.1-0.5v-0.1c0-0.2,0-0.4-0.1-0.5c0-0.4,0-0.8,0-1.2c0.2-4.7,0-9.4-0.2-14.1c0-0.2,0-0.4,0-0.6c0-0.6,0-1.1-0.1-1.7
	c0-0.2,0-0.4,0-0.6c0-0.4,0-0.8,0-1.1c-0.1-1.7-0.1-3.3-0.2-5c0-0.2,0-0.3,0-0.5c-7.8-2-14.7-6.9-23.2-6.6c0,0.1,0,0.3,0,0.4
	c0,0.7,0,1.4,0,2.1c0,0.1,0,0.3,0,0.4c0,0.2,0,0.4,0,0.6c0,0.1,0,0.3,0,0.4s0,0.2,0,0.2c0,0.2,0,0.4-0.1,0.6v0.1c0,0.2,0,0.3,0,0.4
	c0,0.4-0.1,0.8-0.2,1.2l-0.1,1c0,0.3-0.1,0.6-0.1,0.9v0.1c0,0.3,0,0.6-0.1,0.9c0,0.2,0,0.3,0,0.5c-0.1,1.1,0,2.3,0.2,3.4
	c0,0.1,0,0.3,0.1,0.4c0,0.1,0,0.1,0,0.2c0,0.2,0.1,0.4,0.1,0.6c0.2,0.8,0.5,1.6,1,2.4c0,0.1,0.1,0.2,0.2,0.3c0.7,1.4,0.2,3.1-1.1,4
	c-1.4,0.9-2.9,0.1-4.1-0.7c-9.3-6.2-19-11.8-27.7-18.8c-5.1-4.1-10.4-8-16.5-10.2c-1.3-0.5-2.2-0.9-2.8-1.7
	c-0.1-0.2-0.2-0.3-0.3-0.5c-0.3-0.5-0.3-1.2-0.2-2.1c1-8.1,0.5-16.5,5.5-23.6c0.1-0.1,0.1-0.1,0.2-0.2c-1.9-7.1-8.2-11.2-12.3-16.7
	c-2.4-3.2-4.9-7.3-9-9.4c-1.7-0.9-3.2-1.9-4.9-0.8c-4.2,2.9-5,8-7.2,12.1c-0.4,0.7-0.6,1.4-0.7,2.1c-0.3,2.3,0.8,4.8,2.7,6.7
	c1.7,1.6,2.5,4,2.1,6.3c0,0.1,0,0.2,0,0.3c-1.2,8.4,0.9,15.9,4.7,23.7c4.8,9.8,10.1,19.1,17.2,27.3c2.2,0.9,4.3,1.8,6.5,2.7
	c1.1,0.4,2.1,0.6,2.5,2.1c1,3.8,4.9,9.9,7.7,10.9c9.4,3.4,16.4,10.7,24.9,15.6c5.3,3.1,5.6,5.5,3,11.7c4.6,3.6,7.9,9.3,13.6,10.7
	c7.8,2,13.7,6.3,19.4,11.3c0,0,0,0,0-0.1c0.2-2.5-0.5-5.3-0.3-7.8c0-0.2,0-0.4,0.1-0.6c0.1-0.4,0.1-0.8,0.2-1.1
	c0.3-0.9,0.7-1.7,1.5-2.4c3.4-3.1,7.7,1.1,11.7,1.1c12.1,0,23.7,3.5,35.6,4.7c5,0.5,6.9,2.5,7.9,7.5c0.2,0.8,0.3,1.7,0.5,2.5
	c0.1,0.8,0.2,1.6,0.3,2.5v0.1c0.1,0.7,0.1,1.3,0.1,1.9c0,1,0,1.9,0,2.9c-0.1,1.8-0.3,3.6-0.6,5.4c-0.1,0.3-0.1,0.7-0.2,1.1v0.1l0,0
	l0,0c-0.1,0.4-0.2,0.8-0.3,1.2c-0.1,0.3-0.2,0.7-0.3,1c-0.5,1.5-1.1,3-1.8,4.4c-0.1,0.3-0.2,0.5-0.4,0.8s-0.3,0.5-0.4,0.8
	c10,2.6,20.4,2.5,30.6,3.2c-3.4-9.7-2.1-19.9-3.7-29.8c-0.2-1.2,0-2,0.5-2.7c0.1-0.1,0.1-0.2,0.2-0.3c0.1-0.2,0.3-0.3,0.5-0.5
	c0.8-0.7,1.8-1.2,2.7-1.8c2.6-1.6,5.5-1.1,7.8-0.2c11.1,4.4,22.3,1,33.3,0c5.1-0.5,10.4-0.7,15.4-1.9c5-1.2,6.4,1.6,7.3,5.3
	c2.5,9.6,3.4,19.2,1.1,28.9l0,0c2.6,0.6,5.4,0,7.5-1.6c1.5-1,3.4-2.4,4.8-2.1c7,1.7,11.7-2.5,16.9-5.8l0,0v-0.1c0-0.4,0-0.7-0.1-1.1
	c-0.1-2.1,0.2-4.2,0.7-6.2c0.2-0.8,0.5-1.6,0.8-2.5l0,0l-1.6-2.2c-3.5-4.9-6.1-10.1-5.5-16.4c-0.5-2.7-0.8-4.2-0.5-5.1
	c0-0.1,0-0.2,0.1-0.2c0-0.1,0-0.1,0.1-0.2c0.5-1,1.9-1.3,4.7-2c15.4-4.2,30.6-9.5,45.3-15.8c4.5-1.9,8.9-4.7,14.5-4.7
	c-0.5,9.5,0.6,18.3,4.3,26.8c0.2,0.6,0.3,1.1,0.2,1.7c0,0.2,0,0.3-0.1,0.5c-0.1,0.4-0.2,0.8-0.3,1.2c-0.1,0.4-0.2,0.8-0.3,1.2
	c0,0.3-0.1,0.7-0.1,1c0,0.2,0,0.3,0,0.5c0,0.5,0.2,1,0.5,1.5l0,0c4.1-0.4,8.1-1.8,11.4-4.3c7.2-5.5,14.3-11.1,21.5-16.6
	c-2.7-0.9-4.9-2.2-6.8-3.8c-1.7-1.3-3.1-2.9-4.4-4.6c-0.2-0.3-0.4-0.5-0.6-0.8c-0.4-0.5-0.7-1.1-1.1-1.6l0,0
	c-2.3-3.5-4.1-7.5-6-11.4c-1.5-3-0.4-5.4,2.3-6.7c12-5.9,20.4-15.9,29.4-25.2c2.6-2.8,5.7-5.1,9.2-6.8c0-4.5,2.7-6.7,6.6-8.4l0,0
	c3.2,3.2,4.5,7.2,5.4,11.5c2.5,4.7,5.3,9.3,5.4,14.9c0,1.2,0.7,2.3,1.8,2.9c2.7-0.6,4.6-1.9,5.2-4.4v-0.1c0.1-0.4,0.2-0.9,0.2-1.5
	c0.1-1.2,0.2-2.7,0.5-4l0,0c0.3-1.5,0.9-2.8,2.1-3.2c3.4-1.2,5-3.1,5.7-5.6c0.3-1.2,0.4-2.6,0.4-4.1c0-0.1,0-0.2,0-0.3l0,0
	c0.2-1.2,1.3-2.5,2.3-3.4c1.6-1.5,2.4-3.2,2.8-5v-0.1c0.4-1.7,0.4-3.5,0.4-5.3c0-0.1,0-0.2,0-0.3c-2.9,0.8-5.9,0.9-8.9,0.3
	c-0.8-0.1-1.5-0.3-2.1-0.5c-0.2-0.1-0.4-0.1-0.5-0.2s-0.3-0.1-0.4-0.2c-0.2-0.1-0.5-0.2-0.7-0.3c-0.2-0.1-0.4-0.2-0.6-0.3
	c-0.4-0.2-0.8-0.5-1.1-0.8l0,0c-0.2-0.1-0.3-0.2-0.4-0.4c-3.4-3.1-4.4-8-1.8-12.6c4.1-8,6.6-16.9,13.5-23.2c1.1-1,1.7-2.4,2-3.8
	c1.3-8.6,6-16,8-24.3c1.1-4.7,5.8-6.4,6.3-10.8c0.4,0.1,0.8,0.3,1.1,0.5c0.2,0.1,0.3,0.2,0.4,0.3c0.1,0.1,0.3,0.2,0.4,0.3
	c1.5,1.2,2,2.8,3.2,3.7c0.1,0.1,0.1,0.1,0.2,0.2c-0.2-2.3,0.5-4.4,1.3-6.5c0.1-0.4,0.3-0.8,0.4-1.2
	C808.9,982.4,809.7,980.2,809.6,977.7z M356.9,1038.6c-0.2,0-0.4,0-0.6,0c-1-0.2-1.6-1.1-1.4-2.1c0.1-0.8,0.8-2.1,1.1-2.1
	c1.2,0.2,2.1,1.1,2.2,2.3C358.2,1037.6,357.8,1038.5,356.9,1038.6z"/>
<path style="fill:#FFFFFF;" d="M586.5,1096.7c3.7,2.3,2.3,6.6,3.1,9.8c1.8,7.1,4.8,13.9,5,21.4c0.1,4.3-1.4,6.2-5.4,7.7
	c-7.9,2.9-16,0.5-23.8,1.9c-8.6,1.5-16.7-3.3-25.2-1.8c-0.3,0-0.6-0.1-0.9-0.2c-3-0.9-6.4,3.4-9.1-0.2c-3.2-4.1-4.3-9.3-3.2-14.4
	c1.5-6.2,0.8-12.4,0.9-18.6c9.4-0.6,18.7-1.1,28.1-2c7.3-0.7,14.8-0.4,21.7-3C580.8,1096.2,583.7,1097.3,586.5,1096.7z"/>
<path style="fill:#FFFFFF;" d="M509,1103.6c1.3,6.6,0.7,13.4,1.9,20.1c1.6,9.1-2.6,12.2-11.6,10.5c-5-1-9.9-1.7-14.8,0.4
	c-1.9,0.8-3.3,0.1-5-0.6c-7.1-3-14.2-5.9-21.3-8.8c-3.3-1.3-5.2-3-5.1-7.2c0.3-7.9-0.3-15.8-0.5-23.7c3.4,1.1,6.2,3.3,10.5,1.8
	c3.3-1.2,7-0.7,10.7,1c8,3.5,16.8,5.1,25.5,4.8C502.5,1101.9,505.7,1103,509,1103.6z"/>
<path style="fill:#FFFFFF;" d="M719.3,1035.7c6.8,0.2,12.5,2.8,17.8,7.1c2.8,2.3,3,4.2,1.5,6.7c-4.7,7.7-7.6,17.1-17.5,20.4
	c-1.2,0.3-2,1.4-2,2.6c0,4-3.3,5.7-5.8,7.4c-4.8,3.3-7.3,9.7-14.2,10.7c-3.7-11.6-13.6-20.1-17-32c5.6-0.6,7.9-6,12.2-8.4
	c4.9-2.7,10.1-5.1,14.5-8.5C712,1039,716.9,1039.6,719.3,1035.7z"/>
<path style="fill:#FFFFFF;" d="M510.2,1184.6c-0.6,3.2-1.8,6.3-3.4,9.3c-10.5-4.2-22.2-5.5-31.5-12.6c-1.1-0.9-2.7-1.8-4-1.8
	c-8.6,0-12.5-7-18-11.6c0.2-2.5-0.5-5.3-0.3-7.8c0.1-1.6,0.6-3,1.7-4.1c3.4-3.1,7.7,1.1,11.7,1.1c12.1,0,23.7,3.5,35.6,4.7
	c5,0.5,6.9,2.5,7.9,7.5c0.4,1.7,0.6,3.3,0.8,5c0,0,0,0,0,0.1c0.2,1.6,0.2,3.3,0.2,4.9C510.8,1181,510.6,1182.8,510.2,1184.6z"/>
<path style="fill:#FFFFFF;" d="M429.4,1087.8c0.5,5.8-2.5,11.7,0.9,17.4c0.7,1.4,0.2,3.1-1.1,4c-1.4,0.9-2.9,0.1-4.1-0.7
	c-9.3-6.2-19-11.8-27.7-18.8c-5.1-4.1-10.4-8-16.5-10.2c-2.4-0.8-3.6-1.8-3.3-4.3c1-8.2,0.5-16.7,5.7-23.8
	c8.2,2.1,11.8,10.1,18.4,14.4c6.9,4.4,12,11.3,19.6,14.7C424.7,1082.1,424.9,1087.3,429.4,1087.8z"/>
<path style="fill:#FFFFFF;" d="M806.1,1014.2c-1.1-7.3-1-14.8,0.2-22.1c-1.7-1.1-1.9-3.7-5.3-4.9c-0.5,4.4-5.2,6.1-6.3,10.8
	c-2,8.3-6.7,15.7-8,24.3c-0.2,1.5-0.9,2.8-2,3.8c-6.9,6.4-9.4,15.3-13.5,23.2c-3.7,6.6,0,14,7.8,15.3c2.9,0.6,6,0.4,8.9-0.3
	c0.9-1.9,3.1-2.9,3.4-5.1c4.4-3.2,5.2-8.4,6.6-13.1c0.7-2.5,1-5.1,2.5-7.5C804.9,1031.2,807.6,1023.2,806.1,1014.2z"/>
<path style="fill:#E76166;" d="M848.2,975.3c-1-8.7,0.5-17.7-2.9-26.2c-0.8-2-0.8-4.1-1-6.1c-1.3-11-4.2-21.3-12.6-29.5
	c-3.1-3.1-5.8-6.5-8.2-10.2c-3.8-5.6-8.8-10.3-14.5-13.9c-4.2-2.6-8.9-4.8-12.7-8c-3.6-3-7.6-4.6-12.3-4.2c-1.5,0.2-3,0.1-4.4-0.4
	c-10.9-5.1-21-1.8-30.9,2.8c-14.5,6.7-21,16.6-20.3,31.4c0,0,0,0,0,0.1c0,1,0.1,2,0.2,3.1c0.4,3.7,0.7,6.7,0.8,9.5
	c0,0.5,0.1,1,0.1,1.5c0.4,8.3-0.4,13.9-3.3,24.3c-0.2,0.4-0.2,0.8-0.2,1.2l0,0c0,0.2,0,0.4,0,0.5c0.6,1.8,1,3.5,1.2,5.1l0,0
	c0.3,3.3-0.8,6.3-4.7,8.8c-1.6,1-0.8,3.9-1.1,6c-1.2,8.3-4.5,15.8-11.9,20c-3.3,1.9-6.1,4.5-8.2,7.7c-5.3,7.6-12,14.7-19.9,18.8
	c-13.9,7.3-27.3,15.6-41.6,22c-5.4,2.4-10.9,4.3-16.6,5.7c-7.1,1.8-14.2,3.4-21.3,5c-10.1,2.3-20.3,7.2-30.4,6
	c-10.1-1.1-18.7,3.8-28.6,3.7c-10.5-0.1-20.9,5.6-31.7,0.7c-2.3-1.1-4.6,0.9-6.9,1.3s-4.7,1.1-6.7-0.9c-3.8-3.8-9-3.5-13.5-3
	c-3.5,0.4-6.1-0.4-9.2-1.5c-7.4-2.6-14.6-7.3-23.1-4c-1.7,0.6-2.5-0.9-3.7-1.5c-3.9-1.9-6.7-6.5-11.3-6.4
	c-7.2,0.2-12.7-3.6-17.5-7.9c-6-5.4-13.4-8.3-19.5-13.2c-7.7-6.3-16-12.2-20.5-21.8c-2.8-6-8.2-10.1-12.5-14.9
	c-1.2-1.4-3.1-2-4.9-1.6c-11.7,2.4-24.8,1.9-32.9,12.9c-4.9,6.6-10.8,13.3-11.8,21.6c-1,7.6-1.5,15.4-1.5,23.1c0,0.9,0,1.7,0.1,2.6
	c0,0.4,0,0.9,0.1,1.3c0.3,3.9,0.8,7.7,1.1,11.6c0,0.1,0,0.2,0,0.3c0,0.4,0.1,0.8,0.1,1.3c0,0.1,0,0.3,0,0.5
	c0.2,3.6,0.3,7.2-0.3,10.8c-0.2,1.5-0.3,3.2-0.2,4.8c0.2,2.7,0.8,5.4,2.1,7.2c4.4,6.4,6.1,13.1,6.6,20.4c0,0.6,0.1,1.2,0.1,1.7
	c0.1,1.5,0.4,3,1.2,4.3c2.5,4.5,3.6,9.9,9.8,12c3,1,4.2,6.7,11,3.3c0.1,0,0.2-0.1,0.3-0.1c-1,2.2-1.5,3.9-1.6,5.4
	c-0.3,3.6,1.7,5.7,4.1,8.3c10.6,11.5,18.8,25.1,33.1,32.8c1.6,0.9,3.2,1.6,3.1,3.8c-0.1,3.6,2.7,5,5,6.9
	c8.2,6.8,16.7,13.2,25.1,19.7c8.8,6.8,16.7,16,29.7,15.4c2.1-0.1,4.6,1.6,6.3,3.1c6.1,5.6,14,6.4,21.3,8.4c4.9,1.3,9.6,2.9,14.3,4.9
	c7.3,3.2,15,6.2,22.8,7.4c13.6,2.1,27.3,5.5,41.3,1.4c3-0.9,6.5-0.4,9.8-0.3c5.3,0.1,10.9,1.5,15.7,0.8c9-1.4,18-2.9,27-3.3
	c6.4-0.3,11.9-3.7,18-4.4c9.8-1.2,19.4-2.8,28.6-6.6c1.9-0.9,4-1.3,6.1-1.1c9,1.8,17-2.5,24.7-5.2c8.5-3,15.8-9.4,25-11.4
	c3.3-5.6,10.7-4,14.9-8.3c2.4-2.5,6.1-3.6,9-5.3c5.4-3.3,11.5-6.4,15.2-11.8c2.2-3.4,4.8-6,8.3-7.7c14-6.6,22.1-19.2,30.8-30.9
	c1.8-2.4,5.1-1.9,5.8-4.8c2.3-9.2,10.3-14.3,15.8-21.1c8.1-10,13.6-21.3,20.1-32.1c4-6.6,1.2-15.8,8.1-21.4c0.3-0.3,0.5-0.9,0.5-1.6
	v-0.1c0-0.6-0.1-1.3-0.2-1.8c-0.4-1.3-0.5-2.5-0.4-3.7l0,0c0.2-2,0.9-3.9,1.9-5.7c3.1-5.8,4.5-12.1,6.2-18.4c1-4,2.6-7.7,2.7-11.7
	c0-1.6-0.1-3.1-0.6-4.8c-0.1-0.4-0.1-0.8-0.1-1.2l0,0c0.1-0.5,0.2-1,0.5-1.4c1.7-2.8,2.2-5.6,2.2-8.6c0-2.3-0.1-4.6-0.2-7
	c0-1.3,0-2.5,0-3.8v-0.1c0.2-4.6,0.7-9.2,0.9-13.9v-0.2c0-0.5,0-1,0-1.5C848.6,979.8,848.5,977.6,848.2,975.3z M773,910.1
	c0,0,0.5,0.1,0.5,0.2c0.1,0.2,0.1,0.4,0.1,0.6C773,910.8,772.8,910.5,773,910.1z M807.7,985.7c-0.8,2.1-1.5,4.1-1.5,6.3l0,0
	c0,0.2,0,0.4,0,0.5c-1.2,7.3-1.3,14.7-0.2,22c0.6,3.4,0.6,6.6,0.1,9.7l0,0l0,0c-0.8,5.2-2.9,10.1-5.8,14.8c-1.5,2.4-1.7,4.9-2.5,7.5
	c-1.4,4.7-2.1,9.9-6.6,13.1c-0.2,2.2-2.3,3.2-3.2,4.9c0,0.1-0.1,0.1-0.1,0.2c0.1,1.8,0.1,3.5-0.2,5.1c0,0.1,0,0.1,0,0.1
	c-0.4,2-1.2,3.8-3,5.5c-0.8,0.8-1.8,1.9-2.2,2.9l0,0c-0.1,0.3-0.1,0.6-0.1,0.8c0,1.3,0,2.5-0.3,3.6c-0.6,2.8-2.2,4.8-5.8,6.1
	c-1,0.4-1.6,1.4-2,2.7l0,0c-0.4,1.4-0.5,3.2-0.6,4.5c0,0.3-0.1,0.7-0.1,1v0.1c-0.6,2.9-2.5,4.3-5.4,4.9
	c-9.3,14.9-22.5,26.1-35.3,37.7c-1.4,1.3-3.8,1.6-5.7,2.3l-21.5,16.6c-3.3,2.5-7.3,3.9-11.4,4.3c-3.5,5.5-9.9,6.6-15.1,8.7
	c-10.9,4.5-22.2,7.8-33.4,11.7c-4.5,2.3-9.3,2.4-14.2,1.8c-5.1,3.3-9.9,7.5-16.9,5.8c-1.3-0.3-3.3,1.1-4.8,2.1
	c-2.2,1.6-4.9,2.2-7.5,1.6c-21.4,5.7-43.2,4-64.9,2.9c-10.2-0.8-20.5-0.6-30.6-3.2c-10.5-4.2-22.2-5.5-31.5-12.6
	c-1.1-0.9-2.7-1.8-4-1.8c-8.6,0-12.5-7-18-11.6c-5.7-5.1-11.6-9.4-19.4-11.3c-5.7-1.4-9-7.1-13.6-10.7c-7.2-0.6-11-6.6-15.6-10.6
	c-9.8-8.4-19.4-17.2-27.6-27.4c-1.3-1.6-1.2-3.3-1.5-5c-7.1-8.2-12.4-17.5-17.2-27.3c-3.8-7.8-6-15.3-4.7-23.8c0-0.1,0-0.2,0.1-0.4
	c0-0.1,0-0.2,0-0.3c0.2-2.1-0.5-4.3-2.2-5.8c-2-2-3.1-4.7-2.6-7.2c0.1-0.6,0.3-1.1,0.6-1.6c2.2-4.1,3-9.2,7.2-12.1
	c1.7-1.2,3.2-0.1,4.9,0.8c4.1,2.1,6.6,6.2,9,9.4c4,5.5,10.2,9.5,12.2,16.4v0.1l0,0v0.1c8.2,2.1,11.8,10.1,18.4,14.4
	c6.9,4.4,12,11.3,19.6,14.7c3.7,1.7,3.9,6.9,8.3,7.4h0.1l0,0c8.4-0.2,15.3,4.7,23,6.6h0.1l0,0c3.3,1.1,6.1,3.2,10.3,1.8
	c3.3-1.2,7-0.7,10.7,1c8,3.5,16.8,5.1,25.5,4.8c3.2-0.1,6.4,1,9.7,1.6c0.1,0,0.1-0.1,0.2-0.1l0,0c6.1-2.9,12.4-2.5,18.8-1.1h0.1l0,0
	c9.3-0.6,18.6-1.1,27.9-2c7.3-0.7,14.8-0.4,21.7-3c3-1.1,5.9,0,8.7-0.7c0.1-0.1,0.2-0.2,0.3-0.2c0,0,0,0,0.1,0
	c3.8-2.5,7-6.1,12.6-4.4c3.1,0.9,5.3-4.9,9.3-2.1h0.1l0,0c7.9-2.8,16-5.5,23.6-8.7s16.1-5,23.5-8.9c2.9-1.5,6-2.5,9.2-2.9
	c0.1-0.2,0.1-0.3,0.1-0.5c0.1-1.4-1.5-2-1.6-3.2l0.2-0.1l18-7.1c0.1,0,0.2,0,0.3,0l0,0c5.4-0.7,7.7-6,11.9-8.4
	c4.9-2.7,10.1-5.1,14.5-8.5c3.3-2.6,8.2-2,10.6-5.9c0.1-0.1,0.2-0.2,0.2-0.4v-0.1c0.1-0.1,0.2-0.3,0.3-0.5s0.2-0.4,0.3-0.5
	c0-0.1,0.1-0.2,0.1-0.2c0.3-0.5,0.6-0.9,1.1-1.2c7.8-3.8,12.4-10.8,17.6-17.2l2.8-0.8c0.1-0.1,0.2-0.2,0.2-0.4l0,0
	c0-0.1,0-0.2,0.1-0.2c0-0.2,0-0.5-0.2-0.7c0.2-0.6,0.4-1.3,0.6-1.9c0-0.1,0.1-0.2,0.1-0.3c1.1-2.9,3-5.2,6.7-5.8
	c1.8-0.2,3.3-1.5,3.7-3.2l0,0c0.1-0.4,0.2-0.7,0.2-1.1c0.1-1.3,0.3-2.5,0.8-3.6c1.2-3.5,3.7-6.3,6.1-8.6c4.1-3.9,5.3-8.7,7.1-13.5
	c0.9-2.5,1.6-5.1,4.1-6.6c1.8-1.1,2.8-2.4,3.2-3.8l0,0c0.5-1.9,0-3.9-1.1-6.1c-0.6-5.6,1.3-11.3,1.1-16.4c-0.4-9,2.1-18.2-1.1-27.1
	c-0.5-1.5,0.2-3.4,0.5-5.1h0.1c6.1,0.2,9.7,4,13.3,8.5c4.3,5.6,10.2,10.3,11,17.6c0.8,7.8,4,14.7,7,21.6c2.7,6.2,4.2,12.8,4.3,19.5
	c0.1,2.3-0.6,4.4-1.3,6.4C808,984.9,807.8,985.3,807.7,985.7z"/>
<path style="fill:#FFFFFF;" d="M602.3,1194.3c-21.5,5.6-43.2,4-64.9,2.9c-3.4-9.7-2.1-19.9-3.7-29.8c-0.2-1.1,0-2,0.4-2.7
	c0.1-0.1,0.1-0.2,0.2-0.3c0.1-0.2,0.3-0.3,0.5-0.5c0.8-0.7,1.8-1.2,2.7-1.8c2.6-1.6,5.5-1.1,7.8-0.2c11.1,4.4,22.3,1,33.3,0
	c5.1-0.5,10.4-0.7,15.4-1.9c5-1.2,6.4,1.6,7.3,5.3C603.7,1174.9,604.6,1184.5,602.3,1194.3z"/>
<path style="fill:#FFFFFF;" d="M778.7,967.1c-2.8,10.9-5.6,21.8-9.3,32.4c-1.9,5.5-6.7,9.5-11.5,12.8c-2.1,1.4-3.3,3.5-2.6,5
	c2.3,5.5-1.7,7.1-5.5,10v-0.1c-0.3-0.9-0.7-1.7-1.1-2.5c-0.7-1.4-1.4-2.7-2.2-4c-1.4-2.1-2.9-4-4.7-5.7l0,0c0-0.1,0-0.2,0.1-0.2
	c0-0.2,0-0.5-0.2-0.7c0.2-0.6,0.4-1.3,0.6-1.9c0-0.1,0.1-0.2,0.1-0.3c1.1-2.9,3-5.2,6.7-5.8c1.8-0.2,3.3-1.5,3.7-3.2l0,0
	c0.1-0.4,0.2-0.7,0.2-1.1c0.1-1.3,0.3-2.5,0.8-3.6c1.2-3.5,3.7-6.3,6.1-8.6c4.1-3.9,5.3-8.7,7.1-13.5c0.9-2.5,1.6-5.1,4.1-6.6
	c1.8-1.1,2.8-2.4,3.2-3.8l0,0c0.5-1.9,0-3.9-1.1-6.1c-0.6-5.6,1.3-11.3,1.1-16.4c-0.4-9,2.1-18.2-1.1-27.1c-0.5-1.5,0.2-3.4,0.5-5.1
	h0.1c-0.3,1.6-0.9,3.4-0.4,4.7c3.2,8.9,0.8,18.1,1.1,27.1c0.2,5.1-1.7,10.7-1.1,16.3c0,0,0,0,0,0.1c2,0.1,3.4,0.6,4.4,1.5
	c0.1,0.1,0.2,0.2,0.3,0.3s0.2,0.3,0.3,0.4C779.3,962.8,779.3,964.9,778.7,967.1z"/>
<path style="fill:#FFFFFF;" d="M677.8,1091.8L677.8,1091.8c0.2,0.8,0.9,1.8,1.2,2.4c0.7,1.5,1.2,2.8,1.5,4c0,0.1,0.1,0.3,0.1,0.4
	c0,0.2,0.1,0.3,0.1,0.5s0.1,0.3,0.1,0.5c0.9,4.3-1,6.8-6.9,9.2c-15.9,6.5-31.3,14.2-48.3,17.6c-4.3,0.8-6.4-0.2-8.3-4.2
	c-3.6-7.5-4.1-15.9-7.3-23.5c-1.8-0.2-2.4-0.7-2.4-1.3l0,0c0-0.7,0.7-1.6,1.5-2.4v-0.1c-0.3-0.6-0.5-1.2-0.5-1.9c0-0.1,0-0.2,0-0.3
	c0-0.7,0.1-1.4,0.2-2.2c7.9-2.8,16-5.5,23.6-8.7s16.1-5,23.5-8.9c2.9-1.5,6-2.5,9.2-2.9c0.1-0.2,0.1-0.3,0.1-0.5
	c0.1-1.4-1.5-2-1.6-3.2l0.2-0.1c0.3,1.1,2,1.7,1.5,3.3v0.1c5,2.4,8.8,5.7,10.4,11v0.1c0.1,0.3,0.2,0.7,0.3,1c0,0.1,0.1,0.2,0.1,0.3
	c0.6,2.2,1.9,4.1,3.8,5.3c0.9,0.7,2,1.5,2.2,2.2c0.2,0.8-0.5,1.4-3.4,1.5C677.9,1090.9,677.7,1091.3,677.8,1091.8z"/>
<path style="fill:#FFFFFF;" d="M509.4,1188c-0.4,1.2-0.9,2.4-1.4,3.7c0.9-1.9,1.6-3.9,2-5.9c-0.1,0.4-0.2,0.8-0.3,1.2
	C509.6,1187.3,509.5,1187.6,509.4,1188z"/>
<path style="fill:#FFFFFF;" d="M507.9,1191.6c-0.1,0.1-0.1,0.2-0.2,0.3C507.8,1191.9,507.9,1191.8,507.9,1191.6z"/>
<path style="fill:#FFFFFF;" d="M773.5,1097.4c-0.6,2.9-2.5,4.3-5.4,4.9c-9.3,14.9-22.5,26.1-35.3,37.7c-1.4,1.3-3.8,1.6-5.7,2.3
	l-21.5,16.6c-3.3,2.5-7.3,3.9-11.4,4.3c-3.5,5.5-9.9,6.6-15.1,8.7c-10.9,4.5-22.2,7.8-33.4,11.7c-4.5,2.3-9.3,2.4-14.2,1.8
	c-5.1,3.3-9.9,7.5-16.9,5.8c-1.3-0.3-3.3,1.1-4.8,2.1c-2.2,1.6-4.9,2.2-7.5,1.6c-21.4,5.7-43.2,4-64.9,2.9
	c-10.2-0.8-20.5-0.6-30.6-3.2c-10.5-4.2-22.2-5.5-31.5-12.6c-1.1-0.9-2.7-1.8-4-1.8c-8.6,0-12.5-7-18-11.6
	c-5.7-5.1-11.6-9.4-19.4-11.3c-5.7-1.4-9-7.1-13.6-10.7c-7.2-0.6-11-6.6-15.6-10.6c-9.8-8.4-19.4-17.2-27.6-27.4
	c-1.3-1.6-1.2-3.3-1.5-5c-7.1-8.2-12.4-17.5-17.2-27.3c-3.8-7.8-6-15.3-4.7-23.8c0-0.1,0-0.2,0.1-0.4c-1.2,8.4,0.9,15.9,4.7,23.7
	c4.8,9.8,10.1,19.1,17.2,27.3c2.2,0.9,4.3,1.8,6.5,2.7c1.1,0.4,2.1,0.6,2.5,2.1c1,3.8,4.9,9.9,7.7,10.9c9.4,3.4,16.4,10.7,24.9,15.6
	c5.3,3.1,5.6,5.5,3,11.7c4.6,3.6,7.9,9.3,13.6,10.7c7.8,2,13.7,6.3,19.4,11.3c0,0,0,0,0-0.1c5.5,4.6,9.5,11.6,18,11.6
	c1.3,0,2.9,0.9,4,1.8c9.3,7.1,21,8.4,31.5,12.6c0.4-0.6,0.7-1.3,1-1.9c-0.1,0.1-0.1,0.3-0.2,0.4c-0.1,0.3-0.2,0.5-0.4,0.8
	s-0.3,0.5-0.4,0.8c10,2.6,20.4,2.5,30.6,3.2c-3.4-9.7-2.1-19.9-3.7-29.8c-0.2-1.2,0-2,0.5-2.7c-0.4,0.7-0.6,1.5-0.4,2.7
	c1.6,9.9,0.3,20.1,3.7,29.8c21.7,1.1,43.4,2.8,64.9-2.9l0,0c2.6,0.6,5.4,0,7.5-1.6c1.5-1,3.4-2.4,4.8-2.1c7,1.7,11.7-2.5,16.9-5.8
	l0,0c4.9,0.6,9.7,0.4,14.2-1.8c11.1-3.8,22.5-7.2,33.4-11.7c5.3-2.2,11.6-3.2,15.1-8.7l0,0c4.1-0.4,8.1-1.8,11.4-4.3
	c7.2-5.5,14.3-11.1,21.5-16.6c-2.7-0.9-4.9-2.2-6.8-3.8c1.9,1.5,4.1,2.8,6.8,3.8c1.9-0.7,4.3-1,5.7-2.3c12.8-11.5,26-22.8,35.3-37.7
	c-1.1-0.6-1.7-1.7-1.8-2.9c-0.1-5.6-2.8-10.2-5.4-14.9c-0.9-4.3-2.2-8.3-5.3-11.5l0,0c3.2,3.2,4.5,7.2,5.4,11.5
	c2.5,4.7,5.3,9.3,5.4,14.9c0,1.2,0.7,2.3,1.8,2.9C771,1101.2,772.8,1099.9,773.5,1097.4z"/>
<path style="fill:#FFFFFF;" d="M768.1,1101.8c-9.3,14.9-22.5,26.1-35.3,37.7c-1.4,1.3-3.8,1.6-5.7,2.3c-2.6-0.9-4.9-2.2-6.8-3.8
	c-1.7-1.3-3.1-2.9-4.4-4.6c-3.2-4.1-5.4-9-7.7-13.8c-1.5-3-0.4-5.4,2.3-6.7c12-5.9,20.4-15.9,29.4-25.2c2.6-2.8,5.7-5.1,9.2-6.8
	c0-4.5,2.7-6.7,6.6-8.4l0,0c3.1,3.2,4.5,7.2,5.3,11.5c2.5,4.7,5.3,9.3,5.4,14.9C766.4,1100.1,767.1,1101.2,768.1,1101.8z"/>
<path style="fill:#FFFFFF;" d="M694.2,1162.6C694.2,1162.6,694.2,1162.7,694.2,1162.6c-3.6,5.5-9.8,6.6-15.1,8.7
	c-10.9,4.5-22.2,7.8-33.4,11.6c-4.5,2.3-9.3,2.4-14.2,1.8v-0.1c0-0.4-0.1-0.7-0.1-1.1c-0.1-2.1,0.1-4.2,0.6-6.2
	c0.2-0.8,0.4-1.7,0.7-2.5l0,0l-1.6-2.2c-3.5-4.9-6.1-10.2-5.5-16.5c-0.5-2.6-0.8-4.1-0.6-5.1c0-0.1,0-0.2,0.1-0.2
	c0.4-1.2,1.8-1.5,4.8-2.3c15.4-4.2,30.6-9.5,45.3-15.8c4.5-1.9,8.9-4.7,14.5-4.7c-0.5,9.5,0.6,18.3,4.3,26.8
	c0.3,0.7,0.3,1.5,0.1,2.3c-0.1,0.4-0.2,0.8-0.3,1.2c-0.1,0.4-0.2,0.8-0.3,1.2c-0.1,0.3-0.1,0.7-0.1,1
	C693.7,1161.3,693.8,1162,694.2,1162.6z"/>
<path style="fill:#FFFFFF;" d="M835.7,759.6c-0.5-2.2-1.5-4.7-1.1-6.8c2.5-12.5-5-20.5-12-29.3c-5.8-7.3-13.2-12-20.6-17.2
	c-7.9-5.5-17.5-7-25.1-12.8c-0.9-0.7-2.6-0.3-3.9-0.2c-4.5,0.5-9,1.5-12.8-2.6c-1-1.1-3.8-1-5.8-0.9c-9.7,0.8-19.5-2.2-29.2,0.3
	c-1.2,0.3-2.7,0.8-3.8,0.5c-9.3-2.6-18-0.6-26.8,2.8c-5.5,2.2-11.2,3.9-17,5c-7.7,1.4-14.3,5.3-21.1,8.6c-4.4,2.1-8.8,5.3-11.5,9.2
	c-2.1,3.3-5,6-8.5,7.9c-10.6,5.6-18.6,13.4-23.3,24.6c-1.3,3.1-3,5.9-5,8.6c-7.1,9.8-14.2,19.3-17.5,31.3c-1.1,4.2-1,8.6-2.5,12.5
	c-6.2,16.5-1.7,31.3,6,45.9c2.2,4.2,6.5,5.5,9.3,8.7c7,7.9,15.5,13.4,26,11.7c10.1,0.3,17.5-3.2,25.2-8.2
	c8.6-5.6,14.5-13.7,19.9-21.2s8.1-17.5,14.8-25.2c3.2-3.8,6.1-7.5,10.4-10.2c10.3-6.7,21-9.3,33.6-8.6c13.4,0.8,24.6,5.7,35.8,12
	c8.5,4.8,17.1,9.5,27.7,7.7c14.5-2.5,24.9-9.6,29.6-24c0.7-2.2,1.3-4.2,3.1-6C836.5,776.8,837.8,768.6,835.7,759.6z M725.9,762.4
	c0.4,0.4,0.4,1.1,0.2,1.6c2.3,2,1.8,3.8-0.3,5.5c-1,2.8-1.6,5.8-4.7,7.2c-6.9,5.7-12.6,13.8-23.4,10.9c-13.5,6.5-22.4,0.7-29.2-10.9
	c-5.7-1.3-8.1-5.6-8.9-10.7c-2.7-17,3.2-31.2,19.3-41.8c1.5-2,3.2-1.9,5-0.5l4.7-3.4c11.4-7.3,21.9-5,32,2.7c2.5,1.3,4.4,3,4.3,6
	l0.6,0.5c7.2,2,6.4,8.2,7,13.7c0.5,1.6,1,3.2,1.5,4.8C734,756.1,732.5,758.8,725.9,762.4z"/>
<path style="fill:#FFFFFF;" d="M479.6,879.8c1-4.7-2.6-9.3-1.1-13.5c2.2-6.2-0.4-11-2.8-15.8c-3.9-8.1-8.8-15.6-17.1-20l-0.1-0.5
	H458c-0.7-7.2-6.6-6.1-11.2-7l-1.6-1.6c-0.3-0.6-0.5-1.3-0.9-1.7c-9.5-7.4-19.6-13-32.1-13.1c-2,0-4,0.5-5.6-1.1
	c-4.1-4-9.5-2.8-14.2-2.8c-8.3,0-17,0.9-25,0.1c-13.5-1.3-25.6,1.9-37.6,6.2c-5.8,2.1-12.6,1.6-17.4,6.3l-3.4,2.2
	c-9.2-0.1-14.8,6-20.4,12c-0.5,0.3-0.7,1-0.5,1.6c-1.4,2.3-4.8,2.8-5.4,5.9l-5.7,2.6c-2.5-0.8-3,0.6-3,2.6h-0.6l-0.3,0.5
	c-3.9-0.5-5.1,1.9-5.4,5.2l-2.8,3c-5,2-7.7,5.5-7.4,11l-3.3,5.4c-3.3,4.7-10.1,7.1-9.1,14.5c-0.5,1-0.9,2-1.4,3c-2,2.3-6,3.1-6,7.1
	c-1.4,2.6-3.3,5.2-1.8,8.5c-4.5,3.5-3.3,8.9-4.7,13.4c-3.9,12.3-4,24,0.6,36.2c5,13.3,13.5,22.8,26.6,28.2c0.2,0.5,0.8,0.8,1.4,0.8
	c12.9,7,24.7,3.4,36-3.8c6.6-4.2,11.6-9.9,16.9-15.8c5.9-6.7,8.8-13.6,11.2-21.4l1.1-1.8c2.2-0.6,3-2.2,3-4.3l0.5-0.5
	c5.5,0.2,4.9-4.1,5.5-7.5l0.6-0.4c2.7-0.6,3.6-2.8,4.5-5l3.5-2.1c3.4,0.7,5.1-1.3,6.2-4.1c1.5-0.1,2.8-0.9,3.8-2
	c14.8-3.7,29.4-0.9,44.1,1l1.8,1.1c2.5,3.8,6,4.8,10.3,4.1l2.4,1.5c0.2,2.2,1.1,3.5,3.5,3.2l3.6,1.4c5.2,4.6,10.9,7.5,18.1,4.9
	l4.3-0.3c12.3-0.9,22-5.3,27-17.9c1.8-4.4,2.9-9.5,6.5-13.2c0.6-0.2,1-0.7,1.1-1.4c3.1-2.9,4-6.7,3.7-10.8
	C480.1,882.6,480.3,881.1,479.6,879.8z M372.1,876.3c-1.1,0.7-1.9,1.9-2,3.2c-0.3,8.8-8.3,12.1-13.6,15.5c-5.8,3.8-13,7.5-21.9,4.6
	c-7.7-2.5-13.2-8.3-20.9-10.5c-4.4-1.3-4-7.9-6-12c-5.9-11.8-3.7-22.7,7-30.9c3.4-2.6,2.6-7.8,7.2-8.9c0.1-0.4,0.4-0.7,0.9-0.8
	c9.3-7.6,20.3-6.5,29.8-2.9c8.4,3.2,17.2,7.8,21.9,17.4c2.5,5.1,1,9.7,1.6,14.4C376.3,869.7,377.8,874.3,372.1,876.3z"/>
<path style="fill:#183A48;" d="M734,748.1l-1.5-4.8c-0.6-5.5,0.2-11.6-7-13.7l-0.6-0.5c0.1-3.1-1.8-4.8-4.2-6
	c-10.1-7.7-20.7-10-32-2.7l-4.7,3.4l0,0c-1.8-1.3-3.5-1.4-5,0.5c-16.1,10.6-22,24.7-19.3,41.8c0.8,5,3.2,9.4,8.9,10.7
	c6.7,11.6,15.7,17.3,29.1,10.9c10.8,2.9,16.6-5.2,23.4-10.9c3.1-1.4,3.7-4.5,4.7-7.2c2.1-1.7,2.6-3.5,0.3-5.5
	c0.2-0.5,0.2-1.1-0.2-1.6C732.5,758.8,734,756.1,734,748.1z M716.5,729.9l1.2-0.1L716.5,729.9z M712.8,724.8l-4.5-0.2l0,0
	L712.8,724.8z M707,726.4c-0.6,0.6-1.5,0.9-2.3,0.6C705.6,727.2,706.5,727,707,726.4L707,726.4z M683.7,728.8
	c-0.7,0.5-1.5,0.7-2.4,0.6C682.2,729.6,683,729.3,683.7,728.8L683.7,728.8z"/>
<path style="fill:#183A48;" d="M375.8,865.7c-0.5-4.8,0.9-9.3-1.6-14.4c-4.7-9.6-13.4-14.2-21.9-17.4c-9.5-3.6-20.5-4.7-29.8,2.9
	c-0.4,0.1-0.8,0.4-0.9,0.8c-4.6,1.1-3.8,6.3-7.2,8.9c-10.7,8.2-12.9,19.1-7,30.9c2,4.1,1.7,10.7,6,12c7.7,2.2,13.2,8.1,20.9,10.5
	c8.9,2.8,16.2-0.8,21.9-4.6c5.2-3.4,13.3-6.7,13.6-15.5c0.1-1.3,0.9-2.5,2-3.2C377.8,874.3,376.3,869.7,375.8,865.7z"/>
</svg>
