<?xml version="1.0" encoding="iso-8859-1"?>
<!-- Generator: Adobe Illustrator 22.1.0, SVG Export Plug-In . SVG Version: 6.00 Build 0)  -->
<svg version="1.1" id="Layer_14" xmlns="http://www.w3.org/2000/svg" xmlns:xlink="http://www.w3.org/1999/xlink" x="0px" y="0px"
	 viewBox="0 0 800 600" style="enable-background:new 0 0 800 600;" xml:space="preserve">
<rect style="fill:#FFFFFF;" width="800" height="600"/>
<g>
	
		<radialGradient id="SVGID_1_" cx="704.5922" cy="710.5954" r="264.3597" gradientTransform="matrix(1.339 0 0 -1.0196 -543.449 1081.0228)" gradientUnits="userSpaceOnUse">
		<stop  offset="0" style="stop-color:#F2F2F2"/>
		<stop  offset="0.672" style="stop-color:#F4F4F4"/>
		<stop  offset="0.9213" style="stop-color:#FBFBFB"/>
		<stop  offset="1" style="stop-color:#FFFFFF"/>
	</radialGradient>
	<rect y="84" style="fill:url(#SVGID_1_);" width="800" height="495"/>
	<rect y="433.097" style="fill:#FFFFFF;" width="800" height="166.903"/>
</g>
<linearGradient id="SVGID_2_" gradientUnits="userSpaceOnUse" x1="585.365" y1="127" x2="585.365" y2="147" gradientTransform="matrix(1 0 0 -1 0 600)">
	<stop  offset="0" style="stop-color:#FFFFFF"/>
	<stop  offset="1" style="stop-color:#E0E0E0"/>
</linearGradient>
<path style="opacity:0.2;fill:url(#SVGID_2_);enable-background:new    ;" d="M521.365,453c0,11.046,8.954,20,20,20h88
	c11.046,0,20-8.954,20-20H521.365z"/>
<polygon style="fill:#C62828;" points="479.148,492.201 163.67,492.25 203.67,442.25 439.148,442.201 "/>
<g>
	<path style="fill:#424242;" d="M649.615,303.001c0,0-2.5,1.124-3.083,5.333c-0.561,4.048,1.75,7.02,1.75,7.02
		s1.885-2.234,2.271-6.478C650.99,304.062,649.615,303.001,649.615,303.001z"/>
	<path style="fill:#FFFFFF;" d="M661.115,303.875c0.276,1.451-4.667,0.042-4.542,1.375c0.153,1.637,9.876,2.649,10.292,4.833
		c0.667,3.5-10.239,6.086-10.239,6.086c-0.672,0.209-1.396,0.181-2.05-0.08c0,0-10.454-5.544-10.711-6.464l0.5-2.25
		c-0.276-1.032,0.247-2.93,1-3.688l4.25-0.687c0,0,1.292-0.501,3.792-0.917C655.348,301.76,660.948,303.001,661.115,303.875z"/>
	<polygon style="fill:#EBEBEB;" points="585.849,261 575.349,256 573.349,271 576.349,284 580.113,298.19 592.349,279 599.349,263 
		598.349,251 	"/>
	<polygon style="fill:#004D40;" points="585.849,261 583.269,264.35 580.201,277 580.113,298.19 586.349,275.467 586.389,264.35 	
		"/>
	<path style="fill:#540931;" d="M557.05,386.117L557.05,386.117c0,1.961,1.589,3.55,3.55,3.55h13.851l12.757-30l12.922,30h13.686
		c1.961,0,3.55-1.589,3.55-3.55l0,0l-3.625-34.742h-55.375L557.05,386.117z"/>
	<path d="M565.544,437.49c0,0-1.516,8.468-10.061,10.898c-1.875,0.546-4.15,1.779-4.755,3.802c-0.651,2.178-0.399,2.41,1.786,3.054
		c0.733,0.216,0.752,0.159,1.515,0.258c0.952,0.107,1.852,0.104,2.714,0.019c4.895-0.48,13.634-3.144,18.161-4.269
		c3.304-0.821,4.473-1.362,4.445-3.919v-7.351L565.544,437.49z"/>
	<path style="fill:#424242;" d="M588.349,325l0.78,23.75l-6.19,44.87l-2.929,50.56c0,0-1.718,1.6-8.76-1.68
		c-6.083-2.833-8.531-0.5-8.531-0.5l-1.36-43.07c-0.03-2.27,0.02-4.53,0.16-6.8l-0.17-59.13L588.349,325z"/>
	<path d="M599.525,437.03h9.359c-0.197,2.788,0.114,5.589,0.918,8.262c1.063,3.299,4.014,5.812,8.441,10.629
		c1.201,1.366,1.652,3.07,1.778,4.586c0.168,2.028,0.01,2.228-1.979,2.493c-3.125,0.417-6.858-1.451-8.351-2.583
		c-1.992-1.511-6.678-6.024-7.535-6.579c-1.619-1.064-2.657-1.787-2.807-3.738L599.525,437.03z"/>
	<path style="fill:#424242;" d="M583.573,333l29.726,2.25v61.5l-0.649,50.5c0,0-1.483-0.713-6.067-0.713
		c-3.985,0-6.155,1.692-7.767,2.146c-2.332,0.258-3,0-3,0l-4.347-48.933L583.573,333z"/>
	<path style="fill:#191919;" d="M537.349,312c-2.31-0.06-3.44-1.13-5.75-3.75s-1.25-8.25-1.25-8.25l11.37,4.13
		C544.469,309.25,539.659,312.06,537.349,312z"/>
	<path style="fill:#F2F2F2;" d="M544.349,299c0,0-3.554,7.008-5.734,10.188c-1.845,2.468-4.312,1.121-7.722,1.777
		c0,0-3.043-0.035-4.153-1.215c-0.85-0.93-1.875-4.185-0.875-4.185c0.4,0,0.911-0.692-0.453-4.4c1.57,0.248,3.349-1.083,4.937-1.165
		L544.349,299z"/>
	<polygon style="fill:#757575;" points="582.365,281.35 595.793,263 611.49,329.875 588.145,337.667 580.74,328.25 	"/>
	<polygon style="fill:#BDBDBD;" points="583.349,283 577.643,262.746 561.49,327.875 573.145,337.667 582.091,327.333 	"/>
	<path style="fill:#B71C1C;" d="M611.349,311c0.141,11.5,3.43,18.882,5.08,30.475c2.938,20.639,0.936,44.642,0.936,44.642
		s-1.984-18.879-9.25-31.129c-6.35-10.706-28.024-27.15-28.708-49.217h0.97L598.365,272l-1.146-23.408c0,0,6.02,4.938,10.02,7.008
		C607.239,255.6,610.926,276.488,611.349,311z"/>
	<path style="fill:#B71C1C;" d="M648.282,315.353L622.349,308l-13.589-16l-1.521-36.4c3.79,1.97,8.62,4.41,9.11,6.36
		c1.849,4.04,12.788,24.493,15.266,31.54c0.15,0.733,18,9.501,18,9.501s-2.5,1.124-3.083,5.333
		C645.971,312.381,648.282,315.353,648.282,315.353z"/>
	<path style="fill:#B71C1C;" d="M564.096,343.305c-5.481,19.07-7.046,42.811-7.046,42.811c-1.43-7.693-0.698-30.626,0.299-41.117
		c0.914-9.616,3-28,4-36s-1-14-1-14s-4,8-6,10s-14.772,6.422-14.772,6.422c1.75-2.92-0.668-5.752-3.668-8.612
		c-3.44-3.31-5.56-2.81-5.56-2.81s9.254-4.009,13-6c6.016-18.167,9.568-26.311,16-36c4.125-3.162,9-3.5,18-9
		c0,0-3.211,6.6-2.367,22.798c1.068,20.498,6.751,34.603,6.366,36.698C578.532,323.833,568.017,329.661,564.096,343.305z"/>
	<path style="fill:#00695C;" d="M587.679,258.94l-1.29-1.29c-0.006-0.006-0.011-0.011-0.017-0.017
		c-0.856-0.846-2.236-0.839-3.083,0.017l-1.29,1.29c-0.86,0.859-0.868,3.25-0.02,4.12l1.29,1.29c0.862,0.859,2.258,0.859,3.12,0
		l1.29-1.29C588.539,262.198,588.539,259.802,587.679,258.94z"/>
	<circle style="fill:#DC9D36;" cx="584.849" cy="261.5" r="1.5"/>
	<path style="fill:#FFFFFF;" d="M593.469,253.72c-2.402,2.351-4.555,1.717-8.17,3.61c1.179,2.821,3.131,6.29,5.05,8.67
		c0,0,1.88-1.16,7-5c4-3,3-8,3-8l-4.9-6.9C595.449,246.1,597.709,249.72,593.469,253.72z"/>
	<path style="fill:#FFFFFF;" d="M584.836,257.264c0,0-3.177,6.736-5.487,6.736l-4-12l7-1
		C583.198,252.75,583.666,256.094,584.836,257.264z"/>
	<path style="fill:#212121;" d="M583.349,250c0,0-6,5-5,24c0.95,18,2.999,34.496,2.999,34.496L568.349,269l-1.734-5l5.734,2l-4-3
		c2-8,9-14,9-14L583.349,250z"/>
	<g>
		<path style="fill:#FAD6B7;" d="M584.837,222.138c13.635,0,13.325,12.127,11.845,24.964c-0.476,4.129-3.774,10.867-11.845,10.867
			c-4.868,0-10.221-12.918-10.204-21.672C574.617,230.826,576.273,222.138,584.837,222.138z"/>
	</g>
	<g>
		<path style="fill:#757575;" d="M584.837,221.057c11.51-0.63,14.627,8.738,14.541,18.323c-0.022,2.478-1.568,0.142-3.174-1.971
			c-1.15-1.513-1.289-6.385-2.648-7.438c-1.683-1.305-6.276,1.988-10.189,2.344c-3.215,0.293-4.514-2.638-6.018-0.993
			s-1.918,6.284-2.072,7.851c-0.171,1.741,0.336,4.898-0.133,2.338c0,0-1.074-3.748-1.234-5.101
			C573.353,231.701,574.447,221.626,584.837,221.057z"/>
	</g>
	<g>
		<path style="fill:#212121;" d="M599.249,288.548c-2.406,0.257-4.832,0.287-7.254,0.088l0.178-2.171
			c3.771,0.31,7.551,0.033,11.235-0.825l0.493,2.123C602.364,288.12,600.811,288.381,599.249,288.548z"/>
	</g>
	<g>
		<path style="fill:#212121;" d="M595.257,323.236c4.522,0.505,9.209-0.625,13.196-3.18l-0.9-1.749
			c-3.642,2.334-7.924,3.367-12.056,2.906L595.257,323.236z"/>
	</g>
	<g>
		<path style="fill:#212121;" d="M560.085,319.56c2.33,0.69,4.76,0.91,7.13,0.65l0.24,2.03c-2.53,0.28-5.11,0.05-7.59-0.66
			L560.085,319.56z"/>
	</g>
	<ellipse style="fill:#FAD6B7;" cx="597.219" cy="240.999" rx="3.241" ry="3.782"/>
	<ellipse style="fill:#FAD6B7;" cx="576.793" cy="242.513" rx="3.241" ry="3.782"/>
	<path style="fill:#A11919;" d="M550.445,299.64c-0.3-0.45-3.372-4.472-8.963-4.697c0.45-0.22,1.503-0.753,1.862-0.943
		c0.19-0.57,0.38-1.13,0.56-1.68C545.915,293.9,548.745,296.5,550.445,299.64z"/>
	<path style="fill:#212121;" d="M580.378,305.77c10-10.33,16.269-24.817,20.971-31.77c1.036-1.532,3.75-6.375,3.75-6.375
		l-5.75,1.375l4-3l-3.047-15l-3.083-2.408C597.549,265.262,580.378,305.77,580.378,305.77z"/>
</g>
<g>
	<g>
		
			<rect x="512.62" y="332.866" transform="matrix(0.9968 -0.0803 0.0803 0.9968 -25.1984 42.8655)" style="fill:#C1842B;" width="15.501" height="3.746"/>
	</g>
	<g>
		
			<rect x="518.49" y="278.581" transform="matrix(0.0801 -0.9968 0.9968 0.0801 193.2709 782.0886)" style="fill:#C1842B;" width="3.746" height="15.501"/>
	</g>
	<g>
		<rect x="525.273" y="280.077" style="fill:#DC9D36;" width="5.62" height="60.879"/>
	</g>
	<circle style="fill:#DC9D36;" cx="528.083" cy="276.33" r="4.683"/>
	<circle style="fill:#DC9D36;" cx="528.083" cy="344.702" r="4.683"/>
</g>
<path style="fill:#FAFAFA;" d="M524.584,307.572c0,1.396,0.281,3.011,0.689,3.011c1.061,0,1.741-2.353,2.152-3.54
	c0.522-1.508,1.205-5.23-2.152-6.037C525.158,301.029,524.584,301.76,524.584,307.572z"/>
<path style="fill:#FFFFFF;" d="M525.546,302.996c1.042,0.977,3.22,0.041,4.256,0.224c0.899,0.159,1.846,3.431,3.844,4.419
	c2.656,1.312,5.321-0.662,5.614-1c-3.833-5.263-6.333-6.2-7.833-6.638c-2.078-0.547-4.459-0.431-6.155,1.006
	C524.89,301.331,524.988,302.472,525.546,302.996z"/>
<rect x="203.67" y="187.935" style="fill:#A1887F;" width="105.914" height="245.162"/>
<rect x="215.67" y="199.935" style="fill:#FFECB3;" width="81.914" height="221.162"/>
<path style="fill:#8D6E63;" d="M189.106,169.371v263.726h14.564V187.935h105.914v245.162h14.564V169.371H189.106z"/>
<g>
	
		<line style="fill:none;stroke:#A1887F;stroke-width:5;stroke-miterlimit:10;" x1="271.627" y1="191.333" x2="271.627" y2="426.892"/>
	
		<line style="fill:none;stroke:#A1887F;stroke-width:5;stroke-miterlimit:10;" x1="241.627" y1="191.333" x2="241.627" y2="426.892"/>
</g>
<line style="fill:none;stroke:#A1887F;stroke-width:5;stroke-miterlimit:10;" x1="209.389" y1="310.516" x2="303.866" y2="310.516"/>
<g>
	
		<line style="fill:none;stroke:#A1887F;stroke-width:5;stroke-miterlimit:10;" x1="209.389" y1="348.549" x2="303.866" y2="348.549"/>
	
		<line style="fill:none;stroke:#A1887F;stroke-width:5;stroke-miterlimit:10;" x1="209.389" y1="385.549" x2="303.866" y2="385.549"/>
</g>
<g>
	
		<line style="fill:none;stroke:#A1887F;stroke-width:5;stroke-miterlimit:10;" x1="209.389" y1="235.484" x2="303.866" y2="235.484"/>
	
		<line style="fill:none;stroke:#A1887F;stroke-width:5;stroke-miterlimit:10;" x1="209.389" y1="272.484" x2="303.866" y2="272.484"/>
</g>
<g>
	<g>
		<rect x="297.273" y="280.076" style="fill:#DC9D36;" width="5.62" height="60.879"/>
	</g>
	<circle style="fill:#DC9D36;" cx="300.083" cy="276.33" r="4.683"/>
	<circle style="fill:#DC9D36;" cx="300.083" cy="344.702" r="4.683"/>
</g>
<path style="fill:#8D6E63;" d="M309.584,169.371v263.726h14.564V187.935h105.914v245.162h14.564V169.371H309.584z"/>
<g>
	<polygon style="fill:#A1887F;" points="430.148,187.935 519.415,177.722 519.415,443.31 430.148,433.097 	"/>
	<polygon style="fill:#E3F2FD;" points="439.566,198.963 508.561,191.842 508.561,429.19 439.566,422.069 	"/>
	<g>
		<g>
			<polygon style="fill:#A1887F;" points="487.92,433.168 483.615,432.7 483.615,185.385 487.92,184.907 			"/>
		</g>
		<g>
			<polygon style="fill:#A1887F;" points="462.576,430.415 458.463,429.968 458.463,188.183 462.576,187.726 			"/>
		</g>
	</g>
	<g>
		<polygon style="fill:#A1887F;" points="514.217,313.212 434.616,313.026 434.616,308.005 514.217,307.819 		"/>
	</g>
	<g>
		<g>
			<polygon style="fill:#A1887F;" points="514.217,354.229 434.616,351.218 434.616,346.197 514.217,348.837 			"/>
		</g>
		<g>
			<polygon style="fill:#A1887F;" points="514.217,394.132 434.616,388.372 434.616,383.351 514.217,388.74 			"/>
		</g>
	</g>
	<g>
		<g>
			<polygon style="fill:#A1887F;" points="514.217,232.292 434.616,237.681 434.616,232.66 514.217,226.9 			"/>
		</g>
		<g>
			<polygon style="fill:#A1887F;" points="514.217,272.195 434.616,274.835 434.616,269.814 514.217,266.803 			"/>
		</g>
	</g>
</g>
<rect x="324.148" y="187.935" style="fill:#FFEFBF;" width="106" height="228.406"/>
<g>
	<g>
		<defs>
			<rect id="SVGID_3_" x="324.148" y="187.726" width="106" height="245.371"/>
		</defs>
		<clipPath id="SVGID_4_">
			<use xlink:href="#SVGID_3_"  style="overflow:visible;"/>
		</clipPath>
		<rect x="315.699" y="337.592" style="clip-path:url(#SVGID_4_);fill:#FFE594;" width="121.374" height="68.748"/>
	</g>
	<g>
		<defs>
			<rect id="SVGID_5_" x="324.148" y="187.726" width="106" height="245.371"/>
		</defs>
		<clipPath id="SVGID_6_">
			<use xlink:href="#SVGID_5_"  style="overflow:visible;"/>
		</clipPath>
		<path style="clip-path:url(#SVGID_6_);fill:#FFD964;" d="M430.148,433.097c0,0,0-22.848,0-26.756h-106v26.756H430.148z"/>
	</g>
	<g>
		<defs>
			<rect id="SVGID_7_" x="324.148" y="187.726" width="106" height="245.371"/>
		</defs>
		<clipPath id="SVGID_8_">
			<use xlink:href="#SVGID_7_"  style="overflow:visible;"/>
		</clipPath>
		<g style="clip-path:url(#SVGID_8_);">
			
				<linearGradient id="SVGID_9_" gradientUnits="userSpaceOnUse" x1="377.148" y1="916.1723" x2="377.148" y2="842.0303" gradientTransform="matrix(1 0 0 -1 0 1021.4173)">
				<stop  offset="0" style="stop-color:#FFFFFF;stop-opacity:0"/>
				<stop  offset="1" style="stop-color:#FFFFFF"/>
			</linearGradient>
			<path style="opacity:0.65;fill:url(#SVGID_9_);enable-background:new    ;" d="M431.634,105.245H322.547
				c0,0,32.847,74.142,54.601,74.142c21.754,0,54.601-74.142,54.601-74.142S431.634,105.245,431.634,105.245z"/>
			<path style="fill:#FFDB70;" d="M368.527,185.135h17.242v8.621c0,4.761-3.86,8.621-8.621,8.621l0,0
				c-4.761,0-8.621-3.86-8.621-8.621V185.135z"/>
			
				<linearGradient id="SVGID_10_" gradientUnits="userSpaceOnUse" x1="377.148" y1="817.8763" x2="377.148" y2="714.4223" gradientTransform="matrix(1 0 0 -1 0 1021.4173)">
				<stop  offset="0" style="stop-color:#FFFFFF"/>
				<stop  offset="1" style="stop-color:#FFFFFF;stop-opacity:0"/>
			</linearGradient>
			<path style="opacity:0.8;fill:url(#SVGID_10_);enable-background:new    ;" d="M377.148,203.541
				c-21.605,1.724-54.601,103.454-54.601,103.454h109.202C431.749,306.996,398.753,205.266,377.148,203.541z"/>
		</g>
	</g>
	<g>
		<defs>
			<rect id="SVGID_11_" x="324.148" y="187.726" width="106" height="245.371"/>
		</defs>
		<clipPath id="SVGID_12_">
			<use xlink:href="#SVGID_11_"  style="overflow:visible;"/>
		</clipPath>
		<g style="clip-path:url(#SVGID_12_);">
			<path style="fill:#FFBA17;" d="M390.179,371.307l-0.132-2.435c-0.067-1.228,0.944-2.243,2.172-2.182l38.986,1.923l-7.871,5.236
				l-17.802-0.668L390.179,371.307"/>
			<path style="fill:#FFB300;" d="M391.602,397.417l-1.482-27.241c-0.067-1.228,0.944-2.243,2.172-2.182l35.916,1.796
				L391.602,397.417z"/>
			<g>
				<path style="fill:#FFB300;" d="M433.565,406.341h-42.823c-1.143,0-2.072-0.929-2.072-2.072v-9.67
					c0-1.143,0.929-2.072,2.072-2.072h40.75c1.081,0,1.97,0.831,2.064,1.888l2.08,9.854
					C435.637,405.411,434.707,406.341,433.565,406.341z M391.433,403.578h41.262l-1.776-8.288h-39.486V403.578z"/>
			</g>
			<path style="fill:#FFBA17;" d="M431.493,377.239l-14.335-4.742l8.212-15.329c1.323-2.469,3.896-4.01,6.697-4.01h4.144
				L431.493,377.239z"/>
			<path style="fill:#FFF9E5;" d="M383.251,373.539l-0.132-2.435c-0.067-1.228,0.944-2.243,2.172-2.182l38.986,1.923l-7.871,5.236
				l-17.802-0.668L383.251,373.539"/>
			<path style="fill:#FFD269;" d="M439.749,354.716l-4.967,38.497c-0.208,1.615-1.516,2.864-3.138,3l-44.823,3.735
				c-1.164,0.097-2.178-0.786-2.241-1.952l-1.366-25.111c-0.067-1.228,0.944-2.243,2.172-2.182l35.916,1.796l8.212-15.329
				c1.323-2.469,3.896-4.01,6.697-4.01h2.168C439.212,353.158,439.856,353.89,439.749,354.716z"/>
		</g>
	</g>
	<g>
		<defs>
			<rect id="SVGID_13_" x="324.148" y="187.726" width="106" height="245.371"/>
		</defs>
		<clipPath id="SVGID_14_">
			<use xlink:href="#SVGID_13_"  style="overflow:visible;"/>
		</clipPath>
		<g style="clip-path:url(#SVGID_14_);">
			<path style="fill:#FFF9E5;" d="M382.159,298.01v19c0,0-1.315,0.644-5.699,0.644c-3.945,0-5.26-0.644-5.26-0.644v-19"/>
			<ellipse style="fill:#FFDF94;" cx="380.405" cy="301.736" rx="1.315" ry="1.534"/>
			<path style="fill:#FFDF94;" d="M381.72,298.401c0,2.372-1.774,7.938-5.063,7.938c-3.507,0-5.019-5.566-5.019-7.938
				c0-2.372,2.257-4.294,5.041-4.294S381.72,296.029,381.72,298.401z"/>
			<path style="fill:#FFDF94;" d="M381.282,309.407c-3.507-1.315-2.454-4.378-2.454-4.378h-4.362c0,0,1.118,3.063-2.389,4.378
				c0,0,2.111,7.452,4.822,7.452S381.282,309.407,381.282,309.407z"/>
			<path style="fill:#FFF9E5;" d="M376.46,292.75c-3.507,0-5.26,2.63-5.26,5.26c0,2.788,0.934,4.383,0.934,4.383
				c0-0.613,0.655-3.858,1.258-5.26c2.286,1.304,6.223,1.179,8.274,5.041c0,0,0.493-1.261,0.493-4.164
				C382.159,296.695,381.282,292.75,376.46,292.75z"/>
			<path style="fill:#FFC43B;" d="M384.789,322.119c0,0-0.438,3.945-0.438,7.452c0,3.683,2.414,7.176,2.414,7.176
				s-9.865-5.825-17.399-5.792l-0.576-8.836c0,0-0.049,4.047-0.757,6.714c-0.32,1.204-0.884,2.108-2.665,2.108
				c-2.125,0-2.614-2.922-2.614-2.922s0.882-4.603,0.872-5.461c-0.056-4.86,1.399-9.78,4.068-10.959
				c1.668-0.744,4.384-2.192,4.384-2.192l4.822,7.014l4.383-7.014c0,0,2.717,1.448,4.384,2.192c2.67,1.179,3.945,5.699,3.945,10.959
				"/>
			<ellipse style="fill:#FFDF94;" cx="372.953" cy="302.175" rx="1.315" ry="1.534"/>
			<path style="fill:#FFDF94;" d="M358.166,313.194c-0.081-0.786-0.166-1.861,0.532-1.861c1.164,0,2.885,1.361,3.322,2.249
				c0.051,0.103-0.072-1.213,0.29-1.463c0.275-0.19,0.528,0.623,0.62,1.114c0.12,0.646,0.011,2.029,0.037,2.139
				c0.544,2.354,2.852,6.748,3.689,9.26c0.522,1.565,0.438,5.26-1.753,5.26c-1.475,0-2.268-1.699-2.63-3.507
				c-0.438-2.192-1.335-9.161-1.335-9.161s-0.045-0.093-1.078-0.856C358.663,315.487,358.354,315.029,358.166,313.194z"/>
		</g>
	</g>
	<g>
		<defs>
			<rect id="SVGID_15_" x="324.148" y="187.726" width="106" height="245.371"/>
		</defs>
		<clipPath id="SVGID_16_">
			<use xlink:href="#SVGID_15_"  style="overflow:visible;"/>
		</clipPath>
		<rect x="315.699" y="330.956" style="clip-path:url(#SVGID_16_);fill:#FFF6DD;" width="121.374" height="6.637"/>
	</g>
	<g>
		<defs>
			<rect id="SVGID_17_" x="324.148" y="187.726" width="106" height="245.371"/>
		</defs>
		<clipPath id="SVGID_18_">
			<use xlink:href="#SVGID_17_"  style="overflow:visible;"/>
		</clipPath>
		<g style="clip-path:url(#SVGID_18_);">
			<g>
				<path style="fill:#FFB300;" d="M319.932,375.015c0.289,0.161,0.601,0.303,0.918,0.429c0.501,0.209,1.021,0.376,1.511,0.537
					c1.163,0.379,2.148,0.704,2.274,1.308c0.025,0.114,0.025,0.225,0.008,0.331c-0.12,0.782-1.144,1.436-1.069,2.09
					c0.008,0.07,0.028,0.139,0.064,0.209c0.415,0.815,1.84,0.623,2.446,0.019c0.262-0.262,0.596-0.52,0.893-0.729
					c0.398-0.281,0.726-0.476,0.726-0.476s0.245-0.161,0.534-0.212c0.086-0.014,0.175-0.02,0.267-0.006h0.003
					c0.276,0.039,0.537,0.248,0.626,0.838c0.075,0.493,0.175,1.058,0.331,1.561c0.175,0.557,0.42,1.041,0.779,1.269
					c0.253,0.161,0.565,0.192,0.952,0.031c1.422-0.598,1.422-1.578,1.422-1.578s0.281,0.481,0.821,0.93
					c0.562,0.462,1.405,0.885,2.513,0.687c2.171-0.39,2.636-1.533,2.087-2.082c-0.543-0.54-1.943,0.443-3.167-0.74
					c-0.011-0.011-0.02-0.02-0.031-0.031c-1.233-1.227-1.238-1.634,0.192-1.417c0.22,0.033,0.484,0.081,0.774,0.131
					c1.6,0.284,4.044,0.673,4.723-0.696c0.801-1.617,0.793-2.43-1.244-2.446c-0.888-0.008-2.004,0.136-2.967,0.22
					c-1.25,0.106-2.24,0.109-2.129-0.465c0.128-0.665,1.305-1.144,2.446-1.394c0.601-0.131,1.194-0.198,1.614-0.195
					c0.053,0,0.109,0,0.167-0.003c1.252-0.039,3.301-0.643,3.484-1.995c0.192-1.419,0.573-4.664-1.862-3.468
					c-2.435,1.197-5.683,2.794-6.098,1.979c-0.415-0.815,2.221-2.619,3.64-3.217c1.422-0.596,3.657-1.592,3.234-3.22
					c-0.42-1.628-1.041-2.647-1.848-1.842c-0.81,0.804-3.025,3.832-4.049,3.214c-1.024-0.618,0.189-1.826,1.4-3.034
					c1.213-1.208,2.224-2.213,2.001-4.447c-0.223-2.235-2.057-2.455-3.278-2.057c-1.219,0.395-2.204,4.241-2.399,5.257
					c-0.195,1.013-1.417,1.408-1.225-0.011c0.192-1.419,0.576-4.258-0.245-5.076c-0.821-0.818-2.574,0.927-2.908,1.667
					c-0.331,0.74-0.718,3.173,1.13,5.015c1.851,1.842-0.39,2.026-1.01,1.007c-0.621-1.021-0.648-4.403-1.467-4.748
					c-0.818-0.345-2.235,0.657-2.416,3.295c-0.184,2.636,1.055,4.269,2.491,5.702c1.439,1.433-0.178,3.045-1.205,2.021
					c-1.027-1.024-2.26-2.251-2.48-4.08c-0.217-1.828-2.051-1.642-2.443-0.02c-0.264,1.08-0.523,2.341-0.181,3.423
					c0.167,0.543,0.49,1.041,1.035,1.453c0.523,0.392,1.085,0.827,1.611,1.261c1.127,0.93,2.085,1.87,2.087,2.424
					c0,0.05-0.003,0.097-0.008,0.139c-0.061,0.476-0.479,0.573-1.133,0.173c-0.264-0.161-0.565-0.404-0.899-0.735
					c-0.164-0.164-0.32-0.342-0.473-0.526c-0.991-1.197-1.781-2.658-3.014-2.14c-0.342,0.145-0.623,0.417-0.829,0.763
					c-0.003,0.006-0.003,0.008-0.003,0.011c-0.136,0.228-0.237,0.487-0.298,0.763l-0.003,0.003
					C318.521,373.133,318.828,374.4,319.932,375.015z M333.806,372.761c-0.529,0.095-1.024-0.192-1.108-0.646
					c-0.081-0.451,0.281-0.896,0.81-0.991c0.529-0.097,1.024,0.192,1.108,0.643C334.699,372.218,334.337,372.663,333.806,372.761z
					 M328.46,365.689c0.122-0.306,0.509-0.44,0.868-0.298c0.356,0.139,0.548,0.501,0.429,0.807
					c-0.122,0.303-0.509,0.437-0.868,0.298C328.532,366.354,328.34,365.995,328.46,365.689z"/>
				<path style="fill:#FFB300;" d="M336.704,376.473c-0.922,1.15-1.776,2.332-2.609,3.536c-0.829,1.205-1.633,2.427-2.397,3.675
					c-0.764,1.247-1.508,2.508-2.206,3.795c-0.71,1.28-1.367,2.59-2.01,3.906l0.784,0.367c0.613-1.312,1.241-2.62,1.921-3.9
					c0.669-1.287,1.384-2.549,2.12-3.8c0.735-1.251,1.512-2.477,2.313-3.687c0.803-1.206,1.637-2.403,2.517-3.542L336.704,376.473z"
					/>
				<path style="fill:#FFB300;" d="M328.968,376.508c-0.663,1.148-1.233,2.325-1.76,3.531c-0.52,1.207-0.99,2.439-1.369,3.704
					c-0.37,1.267-0.674,2.56-0.839,3.884c-0.147,1.326-0.164,2.677,0.042,4.025l0.918-0.168c-0.217-1.229-0.235-2.499-0.126-3.767
					c0.127-1.268,0.39-2.526,0.721-3.768c0.339-1.241,0.771-2.46,1.253-3.658c0.487-1.194,1.028-2.379,1.642-3.504L328.968,376.508z
					"/>
				<path style="fill:#FFB300;" d="M320.649,406.341h9.408c0.612,0,1.124-0.464,1.181-1.071l1.29-13.618
					c0.049-0.52-0.361-0.97-0.886-0.97h-12.579c-0.524,0-0.935,0.449-0.886,0.97l1.29,13.618
					C319.525,405.877,320.037,406.341,320.649,406.341z"/>
				<path style="fill:#FFB300;" d="M306.165,379.47c0.768,1.222,1.792,2.688,3.585,2.444c1.79-0.245,4.094-0.49,4.606,0
					s0,0.977-1.536,0.977s-3.326-0.732-3.838,0.49c-0.512,1.222,1.024,3.178,2.814,2.688c1.792-0.487,3.585-1.954,4.353-1.467
					c0.768,0.49,0.256,1.956,1.024,2.201c0.768,0.242,1.536-0.735,1.536-1.467c0-0.735,0.256-1.712,0.256-1.712
					s0.161-0.768,0.737-0.721c0.15,0.011,0.331,0.078,0.543,0.231c1.024,0.735,2.56,1.712,3.072,0.49
					c0.49-1.172-0.665-1.895-0.763-1.954c0.145,0.033,2.669,0.604,3.749-0.899c0.448-0.623,0.646-1.152,0.676-1.564
					c0.047-0.612-0.27-0.96-0.676-0.96c-0.682,0-0.938,1.467-2.474,1.467c-0.089,0-0.173,0-0.253-0.006
					c-1.308-0.025-1.481-0.281-0.515-0.974c0.39-0.278,1.002-0.665,1.584-1.116c0.946-0.732,1.806-1.642,1.489-2.549
					c-0.22-0.632-0.44-1.08-0.721-1.291c-0.289-0.217-0.646-0.181-1.133,0.173c-0.139,0.103-0.289,0.228-0.451,0.384
					c-0.476,0.454-0.988,1.08-1.467,1.645c-0.815,0.957-1.539,1.751-1.862,1.289c-0.27-0.387-0.042-1.116,0.351-1.826
					c0.348-0.632,0.824-1.25,1.186-1.595c0.289-0.278,0.615-0.693,0.871-1.158c0.256-0.476,0.44-0.999,0.426-1.475
					c-0.008-0.289-0.092-0.559-0.273-0.79c-0.529-0.673-1.542-1.926-2.374-1.923c-0.379,0-0.715,0.262-0.955,0.946
					c-0.209,0.593-0.434,1.241-0.668,1.865c-0.003,0.006-0.003,0.008-0.003,0.011c-0.1,0.262-0.2,0.515-0.298,0.763l-0.003,0.003
					c-0.548,1.344-1.116,2.396-1.589,2.246c-0.768-0.242-0.256-2.933,0.256-4.155c0.512-1.222,1.28-3.176,0-3.91
					c-1.28-0.732-2.304-0.977-2.304,0s0.512,4.155-0.512,4.4s-1.024-1.222-1.024-2.688s0-2.688-1.536-3.91
					c-1.536-1.222-2.814-0.245-3.326,0.732s1.28,3.91,1.789,4.645c0.512,0.732,0,1.712-0.765,0.732
					c-0.768-0.977-2.304-2.933-3.329-2.933s-1.024,2.121-0.768,2.772c0.256,0.651,1.536,2.363,3.841,2.363
					c2.302,0,1.021,1.467,0,1.222c-1.024-0.245-3.159-2.282-3.885-1.995c-0.724,0.284-0.98,1.751,0.557,3.462
					c1.536,1.712,3.329,1.956,5.118,1.956c1.792,0,1.792,1.954,0.512,1.954s-2.814,0-4.094-0.977
					C306.421,377.027,305.397,378.249,306.165,379.47z M313.776,379.752c0-0.459,0.557-0.832,1.244-0.832
					c0.69,0,1.247,0.373,1.247,0.832s-0.557,0.832-1.247,0.832C314.333,380.584,313.776,380.211,313.776,379.752z"/>
				<path style="fill:#FFB300;" d="M317.871,380.814c0.611,0.79,1.181,1.64,1.709,2.5c0.528,0.864,1.012,1.753,1.453,2.661
					c0.447,0.906,0.827,1.841,1.161,2.788c0.341,0.946,0.58,1.92,0.783,2.895l0.896-0.18c-0.242-1.02-0.523-2.028-0.904-2.997
					c-0.374-0.97-0.794-1.921-1.279-2.836c-0.479-0.918-1-1.811-1.564-2.676c-0.567-0.866-1.162-1.701-1.826-2.51L317.871,380.814z"
					/>
				<path style="fill:#FFB300;" d="M328.852,381.321c0.231,0,0.415-0.175,0.615-0.406c0.39-0.445,0.846-1.099,1.859-1.099
					c1.536,0,1.792,0.25,0.768,1.005c-0.451,0.331-1.197,0.807-1.848,1.364c-0.832,0.71-1.511,1.553-1.225,2.396
					c0.456,1.341,0.913,1.887,1.912,1.105l0.003-0.003c0.122-0.097,0.25-0.212,0.39-0.348c1.28-1.255,2.816-3.763,3.328-3.011
					c0.512,0.754-0.768,2.758-1.536,3.512c-0.768,0.751-1.792,2.508-1.024,3.509c0.768,1.005,2.56,3.262,3.329,1.005
					s1.792-5.268,2.56-5.015c0.768,0.25,0.256,3.008-0.256,4.261c-0.512,1.255-1.28,3.262,0,4.013s2.304,1.002,2.304,0
					s-0.512-4.264,0.512-4.514s1.024,1.255,1.024,2.758c0,1.506,0,2.758,1.536,4.013c1.536,1.252,2.814,0.25,3.326-0.751
					c0.512-1.005-1.28-4.013-1.789-4.765c-0.512-0.754,0-1.756,0.765-0.754c0.768,1.005,2.304,3.011,3.329,3.011
					s1.024-2.174,0.768-2.844c-0.256-0.668-1.536-2.424-3.841-2.424c-2.302,0-1.021-1.503,0-1.252
					c1.024,0.25,3.159,2.341,3.885,2.048c0.724-0.292,0.98-1.798-0.557-3.554c-1.536-1.756-3.328-2.007-5.118-2.007
					c-1.792,0-1.792-2.004-0.512-2.004s2.814,0,4.094,1.002s2.304-0.25,1.536-1.506c-0.768-1.252-1.792-2.758-3.585-2.508
					c-1.789,0.25-3.671,0.626-4.183,0.122c-0.512-0.501-0.423-1.124,1.113-1.124s3.326,0.751,3.838-0.501
					c0.512-1.255-1.024-3.262-2.814-2.758c-1.792,0.501-3.585,2.004-4.353,1.503c-0.509-0.334-0.456-1.108-0.587-1.664
					c-0.064-0.284-0.178-0.509-0.437-0.593c-0.534-0.175-1.069,0.259-1.344,0.79c-0.12,0.234-0.192,0.487-0.192,0.715
					c0,0.37-0.061,0.802-0.125,1.144c-0.064,0.353-0.131,0.612-0.131,0.612s-0.256,1.252-1.28,0.501
					c-1.024-0.754-2.56-1.756-3.073-0.501c-0.487,1.191,0.648,1.929,0.76,2.001c-0.181-0.047-2.992-0.76-4.088,0.71h-0.003
					c-0.014,0.017-0.025,0.036-0.039,0.053C327.358,380.158,328.17,381.321,328.852,381.321z M342.097,384.263
					c0.122-0.306,0.509-0.44,0.868-0.301c0.356,0.142,0.548,0.504,0.429,0.807c-0.122,0.306-0.509,0.44-0.868,0.301
					C342.169,384.928,341.977,384.566,342.097,384.263z M339.826,379.187c0.028-0.459,0.487-0.801,1.024-0.768
					c0.537,0.036,0.949,0.434,0.918,0.893c-0.028,0.459-0.487,0.802-1.024,0.768C340.207,380.044,339.795,379.646,339.826,379.187z
					 M335.927,382.852c0-0.326,0.312-0.593,0.696-0.593s0.696,0.267,0.696,0.593c0,0.328-0.312,0.596-0.696,0.596
					C336.238,383.447,335.927,383.18,335.927,382.852z"/>
			</g>
		</g>
	</g>
	<g>
		<defs>
			<rect id="SVGID_19_" x="324.148" y="187.726" width="106" height="245.371"/>
		</defs>
		<clipPath id="SVGID_20_">
			<use xlink:href="#SVGID_19_"  style="overflow:visible;"/>
		</clipPath>
		<path style="clip-path:url(#SVGID_20_);fill:#FFC43B;" d="M389.611,322.558c0,7.018-0.548,9.155-0.548,9.155
			s-2.52-2.58-3.835-2.142c0-3.507-0.438-7.452-0.438-7.452"/>
	</g>
	<g>
		<defs>
			<rect id="SVGID_21_" x="324.148" y="187.726" width="106" height="245.371"/>
		</defs>
		<clipPath id="SVGID_22_">
			<use xlink:href="#SVGID_21_"  style="overflow:visible;"/>
		</clipPath>
		<path style="clip-path:url(#SVGID_22_);fill:#FFDF94;" d="M385.688,328.717c0,0-2.299,0.17-4.615,0.557
			c-0.967,0.162-2.498,0.655-4.547-0.053c-0.713-0.246-0.892-0.298-1.535-0.554c-0.17-0.068-0.366-0.061-0.525,0.03
			c-1.814,1.037-2.224,1.728-2.625,2.744c-0.119,0.302,0.294,1.227,0.984,0.85c0.447-0.244,1.385-0.956,2.114-0.803
			c0.64,0.134,0.681,0.234,1.492,0.107c1.155-0.18,5.809,2.275,12.632,0.116C389.037,330.01,386.621,328.484,385.688,328.717z"/>
	</g>
</g>
</svg>
