<?xml version="1.0" encoding="utf-8"?>
<!-- Generator: Adobe Illustrator 23.0.0, SVG Export Plug-In . SVG Version: 6.00 Build 0)  -->
<svg version="1.1" id="Layer_14" xmlns="http://www.w3.org/2000/svg" xmlns:xlink="http://www.w3.org/1999/xlink" x="0px" y="0px" viewBox="0 0 800 600" style="enable-background:new 0 0 800 600;" xml:space="preserve">

<g id="Layer_14_1_">
	<rect width="800" height="600" style="fill:#FFFFFF;"/>
	<g>
		<rect width="800" height="600" style="fill:#FFFFFF;"/>
		
			<radialGradient id="SVGID_1_" cx="581.5497" cy="717.5931" r="264.3597" gradientTransform="matrix(1.339 0 0 -1.0196 -378.695 1088.1576)" gradientUnits="userSpaceOnUse">
			<stop offset="0" style="stop-color:#F2F2F2"/>
			<stop offset="0.672" style="stop-color:#F4F4F4"/>
			<stop offset="0.9213" style="stop-color:#FBFBFB"/>
			<stop offset="1" style="stop-color:#FFFFFF"/>
		</radialGradient>
		<rect y="84" width="800" height="495" style="fill:url(#SVGID_1_);"/>
		<rect y="433.1" width="800" height="166.9" style="fill:#FFFFFF;"/>
	</g>
</g>
<g>
	<g>
		<g>
			<g>
				<rect x="126.5" y="98" width="275.9" height="330.2" style="fill:#D3D3D3;"/>
			</g>
			<g>
				<path d="M408.5,433.1h-288V93h288V433.1z M137.5,419.2h254V106.9h-254V419.2z" style="fill:#E0E0E0;"/>
			</g>
			<g>
				<rect x="126.5" y="201" width="275.9" height="13.9" style="fill:#E0E0E0;"/>
			</g>
			<g>
				<rect x="126.5" y="309" width="275.9" height="13.9" style="fill:#E0E0E0;"/>
			</g>
		</g>
		<g>
			<g>
				<rect x="287.2" y="135.4" width="89.5" height="65.6" style="fill:#F5F5F5;"/>
			</g>
			<g>
				<rect x="289.4" y="137" width="85.1" height="62.4" style="fill:#F5F5F5;"/>
			</g>
			<g>
				<g>
					<rect x="287.2" y="141.2" width="13.1" height="5.7" style="fill:#EAEAEA;"/>
				</g>
			</g>
			<g>
				<g style="opacity:0.64;">
					<rect x="345" y="141.2" width="22.6" height="14.8" style="fill:#FAFAFA;"/>
				</g>
			</g>
			<g>
				<g>
					<rect x="345" y="186.3" width="9.2" height="7.5" style="fill:#EAEAEA;"/>
				</g>
			</g>
			<g>
				<g>
					<rect x="358.4" y="186.3" width="9.2" height="7.5" style="fill:#EAEAEA;"/>
				</g>
			</g>
			<g>
				<rect x="325.6" y="135.4" width="12.6" height="20.6" style="fill:#EAE9E8;"/>
			</g>
		</g>
		<g>
			<g>
				<rect x="160" y="353.6" width="89.5" height="65.6" style="fill:#F5F5F5;"/>
			</g>
			<g>
				<rect x="162.1" y="355.2" width="85.1" height="62.4" style="fill:#F5F5F5;"/>
			</g>
			<g>
				<g>
					<rect x="160" y="359.4" width="13.1" height="5.7" style="fill:#EAEAEA;"/>
				</g>
			</g>
			<g>
				<g style="opacity:0.64;">
					<rect x="217.8" y="359.4" width="22.6" height="14.8" style="fill:#FAFAFA;"/>
				</g>
			</g>
			<g>
				<g>
					<rect x="231.2" y="404.5" width="9.2" height="7.5" style="fill:#EAEAEA;"/>
				</g>
			</g>
			<g>
				<rect x="198.4" y="353.6" width="12.6" height="20.6" style="fill:#EAE9E8;"/>
			</g>
		</g>
		<g>
			<g>
				<rect x="256.9" y="332.2" width="118.7" height="87" style="fill:#F5F5F5;"/>
			</g>
			<g>
				<rect x="259.8" y="334.3" width="113" height="82.8" style="fill:#F5F5F5;"/>
			</g>
			<g>
				<g>
					<rect x="256.9" y="339.9" width="17.4" height="7.6" style="fill:#EAEAEA;"/>
				</g>
			</g>
			<g>
				<g style="opacity:0.64;">
					<rect x="333.6" y="339.9" width="30" height="19.6" style="fill:#FAFAFA;"/>
				</g>
			</g>
			<g>
				<g>
					<rect x="333.6" y="399.6" width="12.2" height="10" style="fill:#EAEAEA;"/>
				</g>
			</g>
			<g>
				<g>
					<rect x="351.4" y="399.6" width="12.2" height="10" style="fill:#EAEAEA;"/>
				</g>
			</g>
			<g>
				<rect x="307.9" y="332.2" width="16.7" height="27.3" style="fill:#EAE9E8;"/>
			</g>
		</g>
		<g>
			<g>
				<rect x="147.1" y="243.4" width="155.4" height="65.6" style="fill:#F5F5F5;"/>
			</g>
			<g>
				<rect x="149.3" y="245" width="151.1" height="62.4" style="fill:#F5F5F5;"/>
			</g>
			<g>
				<g>
					<rect x="147.1" y="249.2" width="13.1" height="5.7" style="fill:#EAEAEA;"/>
				</g>
			</g>
			<g>
				<g style="opacity:0.64;">
					<rect x="270.9" y="249.2" width="22.6" height="14.8" style="fill:#FAFAFA;"/>
				</g>
			</g>
			<g>
				<rect x="218.5" y="243.4" width="12.6" height="20.6" style="fill:#EAE9E8;"/>
			</g>
		</g>
		<g>
			<g>
				<rect x="172.1" y="125.9" width="102.5" height="75.1" style="fill:#F5F5F5;"/>
			</g>
			<g>
				<rect x="174.6" y="127.7" width="97.5" height="71.5" style="fill:#F5F5F5;"/>
			</g>
			<g>
				<g>
					<rect x="172.1" y="132.5" width="15" height="6.6" style="fill:#EAEAEA;"/>
				</g>
			</g>
			<g>
				<g>
					<rect x="238.4" y="184.1" width="10.5" height="8.6" style="fill:#EAEAEA;"/>
				</g>
			</g>
			<g>
				<rect x="216.2" y="125.9" width="14.4" height="23.6" style="fill:#EAE9E8;"/>
			</g>
		</g>
		<g>
			<g>
				<rect x="311.5" y="226.5" width="72.1" height="82.5" style="fill:#F5F5F5;"/>
			</g>
			<g>
				<rect x="313.3" y="227.8" width="68.6" height="79.9" style="fill:#F5F5F5;"/>
			</g>
			<g>
				<g>
					<rect x="311.5" y="231.2" width="10.5" height="4.6" style="fill:#EAEAEA;"/>
				</g>
			</g>
			<g>
				<g style="opacity:0.64;">
					<rect x="358.1" y="231.2" width="18.2" height="11.9" style="fill:#FAFAFA;"/>
				</g>
			</g>
			<g>
				<g>
					<rect x="358.1" y="297.1" width="7.4" height="6.1" style="fill:#EAEAEA;"/>
				</g>
			</g>
			<g>
				<rect x="342.5" y="226.5" width="10.1" height="16.6" style="fill:#EAE9E8;"/>
			</g>
		</g>
	</g>
	<g>
		<g>
			<g>
				<rect x="397.5" y="98" width="275.9" height="330.2" style="fill:#D3D3D3;"/>
			</g>
			<g>
				<path d="M679.5,433.1h-288V93h288V433.1z M408.5,419.2h254V106.9h-254V419.2z" style="fill:#E0E0E0;"/>
			</g>
			<g>
				<rect x="397.5" y="201" width="275.9" height="13.9" style="fill:#E0E0E0;"/>
			</g>
			<g>
				<rect x="397.5" y="309" width="275.9" height="13.9" style="fill:#E0E0E0;"/>
			</g>
		</g>
		<g>
			<g>
				<rect x="408.3" y="342.1" width="182.8" height="77.1" style="fill:#F5F5F5;"/>
			</g>
			<g>
				<rect x="410.8" y="344" width="177.7" height="73.4" style="fill:#F5F5F5;"/>
			</g>
			<g>
				<g>
					<rect x="408.3" y="348.9" width="15.4" height="6.7" style="fill:#EAEAEA;"/>
				</g>
			</g>
			<g>
				<g style="opacity:0.64;">
					<rect x="553.8" y="348.9" width="26.5" height="17.4" style="fill:#FAFAFA;"/>
				</g>
			</g>
			<g>
				<g>
					<rect x="553.8" y="401.9" width="10.8" height="8.8" style="fill:#EAEAEA;"/>
				</g>
			</g>
			<g>
				<rect x="492.2" y="342.1" width="14.8" height="24.2" style="fill:#EAE9E8;"/>
			</g>
		</g>
		<g>
			<g>
				<rect x="517.4" y="233.9" width="102.5" height="75.1" style="fill:#F5F5F5;"/>
			</g>
			<g>
				<rect x="519.9" y="235.7" width="97.5" height="71.5" style="fill:#F5F5F5;"/>
			</g>
			<g>
				<g>
					<rect x="517.4" y="240.5" width="15" height="6.6" style="fill:#EAEAEA;"/>
				</g>
			</g>
			<g>
				<g>
					<rect x="599" y="292.1" width="10.5" height="8.6" style="fill:#EAEAEA;"/>
				</g>
			</g>
			<g>
				<rect x="561.4" y="233.9" width="14.4" height="23.6" style="fill:#EAE9E8;"/>
			</g>
		</g>
		<g>
			<g>
				<rect x="456.7" y="118.9" width="112" height="82.1" style="fill:#F5F5F5;"/>
			</g>
			<g>
				<rect x="459.4" y="120.9" width="106.6" height="78.1" style="fill:#F5F5F5;"/>
			</g>
			<g>
				<g>
					<rect x="456.7" y="126.2" width="16.4" height="7.2" style="fill:#EAEAEA;"/>
				</g>
			</g>
			<g>
				<g>
					<rect x="529" y="182.5" width="11.5" height="9.4" style="fill:#EAEAEA;"/>
				</g>
			</g>
			<g>
				<rect x="504.8" y="118.9" width="15.8" height="25.8" style="fill:#EAE9E8;"/>
			</g>
		</g>
		<g>
			<g>
				<rect x="428.6" y="266.5" width="60.7" height="42.5" style="fill:#F5F5F5;"/>
			</g>
			<g>
				<rect x="430.1" y="267.5" width="57.8" height="40.4" style="fill:#F5F5F5;"/>
			</g>
			<g>
				<g>
					<rect x="428.6" y="270.4" width="8.9" height="3.9" style="fill:#EAEAEA;"/>
				</g>
			</g>
			<g>
				<g>
					<rect x="467.9" y="299" width="6.2" height="5.1" style="fill:#EAEAEA;"/>
				</g>
			</g>
			<g>
				<rect x="454.7" y="266.5" width="8.5" height="14" style="fill:#EAE9E8;"/>
			</g>
		</g>
		<g>
			<g>
				<rect x="417.1" y="224.7" width="60.7" height="42.5" style="fill:#F5F5F5;"/>
			</g>
			<g>
				<rect x="418.6" y="225.8" width="57.8" height="40.4" style="fill:#F5F5F5;"/>
			</g>
			<g>
				<g>
					<rect x="417.1" y="228.6" width="8.9" height="3.9" style="fill:#EAEAEA;"/>
				</g>
			</g>
			<g>
				<g>
					<rect x="456.3" y="257.2" width="6.2" height="5.1" style="fill:#EAEAEA;"/>
				</g>
			</g>
			<g>
				<g>
					<rect x="465.4" y="257.2" width="6.2" height="5.1" style="fill:#EAEAEA;"/>
				</g>
			</g>
			<g>
				<rect x="443.2" y="224.7" width="8.5" height="14" style="fill:#EAE9E8;"/>
			</g>
		</g>
	</g>
</g>
<radialGradient id="SVGID_2_" cx="398.5001" cy="130.0977" r="333.4584" gradientTransform="matrix(1 0 0 -1.1328 0 585.2738)" gradientUnits="userSpaceOnUse">
	<stop offset="0" style="stop-color:#FFFFFF;stop-opacity:0"/>
	<stop offset="1" style="stop-color:#FFFFFF"/>
</radialGradient>
<rect width="800" height="466" style="fill:url(#SVGID_2_);"/>
<linearGradient id="SVGID_3_" gradientUnits="userSpaceOnUse" x1="401.8205" y1="-61.057" x2="401.8205" y2="-41.057" gradientTransform="matrix(1 0 0 1 0 550)">
	<stop offset="0" style="stop-color:#E0E0E0"/>
	<stop offset="1" style="stop-color:#FFFFFF"/>
</linearGradient>
<path d="M177,508.9h449.6c11.1,0,20-9,20-20H157C157,500,165.9,508.9,177,508.9z" style="opacity:0.2;fill:url(#SVGID_3_);enable-background:new    ;"/>
<g>
	<g>
		<rect x="351.2" y="253" width="112.7" height="101.2" style="fill:#E0AF73;"/>
		<rect x="353.9" y="255.4" width="107.3" height="96.3" style="fill:#E7B674;"/>
		<g>
			<rect x="351.2" y="261.9" width="16.5" height="8.8" style="fill:#E8D7C8;"/>
		</g>
		<g>
			<rect x="425" y="260.3" width="28.4" height="22.8" style="fill:#E8D7C8;"/>
			<rect x="427.5" y="273.4" width="18" height="1.1" style="fill:#997B5E;"/>
			<rect x="427.5" y="276.3" width="19.9" height="1.1" style="fill:#997B5E;"/>
			<rect x="427.5" y="263.9" width="3" height="3" style="fill:#997B5E;"/>
		</g>
		<rect x="399.6" y="253" width="15.9" height="31.8" style="fill:#D39F66;"/>
	</g>
	<g>
		<rect x="285.9" y="299.8" width="58.3" height="54.4" style="fill:#E0AF73;"/>
		<rect x="287.4" y="301.1" width="55.5" height="51.8" style="fill:#E7B674;"/>
		<g>
			<rect x="285.9" y="304.4" width="8.5" height="4.6" style="fill:#E8D7C8;"/>
		</g>
		<g>
			
				<rect x="321.4" y="331.3" transform="matrix(0.9227 0.3854 -0.3854 0.9227 155.3831 -100.6557)" width="14.7" height="11.8" style="fill:#E8D7C8;"/>
			
				<rect x="322.9" y="336.5" transform="matrix(0.9227 0.3854 -0.3854 0.9227 155.1705 -100.6056)" width="11.3" height="0.5" style="fill:#997B5E;"/>
			
				<rect x="322.4" y="337.5" transform="matrix(0.9227 0.3854 -0.3854 0.9227 155.4401 -99.9484)" width="9.3" height="0.5" style="fill:#997B5E;"/>
			
				<rect x="321.7" y="339" transform="matrix(0.9227 0.3854 -0.3854 0.9227 156.0403 -99.7811)" width="10.3" height="0.5" style="fill:#997B5E;"/>
			
				<rect x="324.4" y="331.4" transform="matrix(0.9227 0.3854 -0.3854 0.9227 153.1526 -99.6529)" width="1.6" height="1.6" style="fill:#997B5E;"/>
			
				<rect x="326.5" y="332.3" transform="matrix(0.9227 0.3854 -0.3854 0.9227 153.655 -100.3976)" width="1.6" height="1.6" style="fill:#997B5E;"/>
		</g>
		<rect x="311" y="299.8" width="8.2" height="16.4" style="fill:#D39F66;"/>
	</g>
	<g>
		<rect x="280.1" y="354.1" width="129.2" height="134.9" style="fill:#E0AF73;"/>
		<rect x="283.2" y="356.9" width="123" height="129.3" style="fill:#E7B674;"/>
		<g>
			<rect x="280.1" y="364.3" width="18.9" height="10.1" style="fill:#E8D7C8;"/>
		</g>
		<g>
			<rect x="359.1" y="400.4" width="38.6" height="31" style="fill:#E8D7C8;"/>
			<rect x="362.5" y="414.2" width="29.7" height="1.4" style="fill:#997B5E;"/>
			<rect x="362.5" y="418.2" width="24.4" height="1.4" style="fill:#997B5E;"/>
			<rect x="362.5" y="405.3" width="4.1" height="4.1" style="fill:#997B5E;"/>
			<rect x="368.5" y="405.3" width="4.1" height="4.1" style="fill:#997B5E;"/>
		</g>
		<g>
			
				<rect x="351.3" y="415.1" transform="matrix(0.9112 -0.4119 0.4119 0.9112 -144.4873 190.883)" width="38.6" height="31" style="fill:#E8D7C8;"/>
			
				<rect x="354.3" y="429.4" transform="matrix(0.9112 -0.4119 0.4119 0.9112 -144.4205 190.2726)" width="29.7" height="1.4" style="fill:#997B5E;"/>
			
				<rect x="358.2" y="439.7" transform="matrix(0.9112 -0.4119 0.4119 0.9112 -148.95 189.7325)" width="14.8" height="1.4" style="fill:#997B5E;"/>
			
				<rect x="356.2" y="434.1" transform="matrix(0.9112 -0.4119 0.4119 0.9112 -146.4148 190.3701)" width="24.4" height="1.4" style="fill:#997B5E;"/>
			
				<rect x="352.3" y="426.5" transform="matrix(0.9112 -0.4119 0.4119 0.9112 -145.0508 184.0317)" width="4.1" height="4.1" style="fill:#997B5E;"/>
		</g>
		<rect x="335.6" y="354.1" width="18.2" height="36.4" style="fill:#D39F66;"/>
	</g>
	<g>
		
			<rect x="409.3" y="354.1" transform="matrix(-1 -4.481005e-11 4.481005e-11 -1 931.0764 843.0671)" width="112.4" height="134.9" style="fill:#E0AF73;"/>
		
			<rect x="412" y="356.5" transform="matrix(-1 -4.485802e-11 4.485802e-11 -1 931.0764 843.0671)" width="107" height="130.1" style="fill:#E7B674;"/>
		<g>
			
				<rect x="505.3" y="363" transform="matrix(-1 -4.498547e-11 4.498547e-11 -1 1027.0635 734.7312)" width="16.5" height="8.8" style="fill:#E8D7C8;"/>
		</g>
		<g>
			<rect x="420.7" y="363" width="28.4" height="22.8" style="fill:#E8D7C8;"/>
			<rect x="423.2" y="373.1" width="21.8" height="1.1" style="fill:#997B5E;"/>
			<rect x="423.2" y="376" width="18" height="1.1" style="fill:#997B5E;"/>
			<rect x="423.2" y="378.9" width="19.9" height="1.1" style="fill:#997B5E;"/>
			<rect x="423.2" y="366.5" width="3" height="3" style="fill:#997B5E;"/>
			<rect x="427.6" y="366.5" width="3" height="3" style="fill:#997B5E;"/>
		</g>
		
			<rect x="457.6" y="354.1" transform="matrix(-1 -4.421942e-11 4.421942e-11 -1 931.0764 739.8085)" width="15.8" height="31.7" style="fill:#D39F66;"/>
		<g>
			
				<rect x="502.3" y="470.9" transform="matrix(-1 -4.490687e-11 4.490687e-11 -1 1016.3641 953.6589)" width="11.8" height="11.8" style="fill:#D39F66;"/>
		</g>
	</g>
	<g>
		<rect x="485.8" y="269.3" width="94.6" height="84.9" style="fill:#E0AF73;"/>
		<rect x="488" y="271.3" width="90" height="80.8" style="fill:#E7B674;"/>
		<g>
			<rect x="485.8" y="276.7" width="13.8" height="7.4" style="fill:#E8D7C8;"/>
		</g>
		<g>
			
				<rect x="492.4" y="294.7" transform="matrix(0.9503 -0.3114 0.3114 0.9503 -69.6772 172.1928)" width="23.9" height="19.2" style="fill:#E8D7C8;"/>
			
				<rect x="494.4" y="303.5" transform="matrix(0.9503 -0.3114 0.3114 0.9503 -69.6012 171.919)" width="18.4" height="0.9" style="fill:#997B5E;"/>
			
				<rect x="495.2" y="306.3" transform="matrix(0.9503 -0.3114 0.3114 0.9503 -70.5194 171.8148)" width="15.1" height="0.9" style="fill:#997B5E;"/>
			
				<rect x="493.3" y="300.6" transform="matrix(0.9503 -0.3114 0.3114 0.9503 -69.4237 169.0215)" width="2.5" height="2.5" style="fill:#997B5E;"/>
			
				<rect x="496.8" y="299.5" transform="matrix(0.9503 -0.3114 0.3114 0.9503 -68.8892 170.0608)" width="2.5" height="2.5" style="fill:#997B5E;"/>
		</g>
		<rect x="526.4" y="269.3" width="13.3" height="26.6" style="fill:#D39F66;"/>
	</g>
	<g>
		
			<rect x="521.5" y="354.1" transform="matrix(-1 -4.490198e-11 4.490198e-11 -1 1126.5084 788.0703)" width="83.5" height="79.9" style="fill:#E0AF73;"/>
		
			<rect x="523.5" y="355.9" transform="matrix(-1 -4.493795e-11 4.493795e-11 -1 1126.5084 788.0703)" width="79.5" height="76.3" style="fill:#E7B674;"/>
		<g>
			
				<rect x="592.8" y="360.7" transform="matrix(-1 -4.406221e-11 4.406221e-11 -1 1197.7804 727.8828)" width="12.2" height="6.5" style="fill:#E8D7C8;"/>
		</g>
		<g>
			
				<rect x="572.9" y="392.8" transform="matrix(0.8936 0.449 -0.449 0.8936 242.2615 -219.241)" width="21.1" height="16.9" style="fill:#E8D7C8;"/>
			
				<rect x="575.1" y="400.1" transform="matrix(0.8936 0.449 -0.449 0.8936 241.8975 -219.1947)" width="16.2" height="0.8" style="fill:#997B5E;"/>
			
				<rect x="574.3" y="401.4" transform="matrix(0.8936 0.449 -0.449 0.8936 242.2323 -218.0494)" width="13.3" height="0.8" style="fill:#997B5E;"/>
			
				<rect x="573.2" y="403.7" transform="matrix(0.8936 0.449 -0.449 0.8936 243.2055 -217.6645)" width="14.8" height="0.8" style="fill:#997B5E;"/>
			
				<rect x="577.7" y="392.6" transform="matrix(0.8936 0.449 -0.449 0.8936 238.3589 -217.9581)" width="2.2" height="2.2" style="fill:#997B5E;"/>
			
				<rect x="580.6" y="394" transform="matrix(0.8936 0.449 -0.449 0.8936 239.3292 -219.1138)" width="2.2" height="2.2" style="fill:#997B5E;"/>
		</g>
		
			<rect x="557.4" y="354.1" transform="matrix(-1 -4.501300e-11 4.501300e-11 -1 1126.5084 731.6528)" width="11.8" height="23.5" style="fill:#D39F66;"/>
	</g>
	<g>
		
			<rect x="534.5" y="434" transform="matrix(-1 -4.490198e-11 4.490198e-11 -1 1152.5084 922.9728)" width="83.5" height="54.9" style="fill:#E0AF73;"/>
		
			<rect x="536.1" y="435.4" transform="matrix(-1 -4.492818e-11 4.492818e-11 -1 1152.5084 922.9728)" width="80.4" height="52.1" style="fill:#E7B674;"/>
		<g>
			
				<rect x="608.5" y="439.1" transform="matrix(-1 -4.437707e-11 4.437707e-11 -1 1226.5314 883.3624)" width="9.5" height="5.1" style="fill:#E8D7C8;"/>
		</g>
		<g>
			
				<rect x="550.8" y="459.4" transform="matrix(-1 -4.467550e-11 4.467550e-11 -1 1118.0178 932)" width="16.3" height="13.1" style="fill:#E8D7C8;"/>
			
				<rect x="553.2" y="465.3" transform="matrix(-1 -4.461910e-11 4.461910e-11 -1 1118.9231 931.1636)" width="12.6" height="0.6" style="fill:#997B5E;"/>
			
				<rect x="555.4" y="466.9" transform="matrix(-1 -4.453650e-11 4.453650e-11 -1 1121.1462 934.4983)" width="10.3" height="0.6" style="fill:#997B5E;"/>
			
				<rect x="554.3" y="468.6" transform="matrix(-1 -4.545576e-11 4.545576e-11 -1 1120.0347 937.833)" width="11.4" height="0.6" style="fill:#997B5E;"/>
			
				<rect x="564" y="461.5" transform="matrix(-1 -4.618229e-11 4.618229e-11 -1 1129.7463 924.7318)" width="1.7" height="1.7" style="fill:#997B5E;"/>
			
				<rect x="561.5" y="461.5" transform="matrix(-1 -3.988466e-11 3.988466e-11 -1 1124.6777 924.7318)" width="1.7" height="1.7" style="fill:#997B5E;"/>
		</g>
		
			<rect x="571.7" y="434" transform="matrix(-1 -4.491619e-11 4.491619e-11 -1 1152.5643 886.2837)" width="9.1" height="18.2" style="fill:#D39F66;"/>
	</g>
	<g>
		<rect x="372.6" y="469.6" width="11.8" height="11.8" style="fill:#D39F66;"/>
	</g>
	<g>
		<rect x="389.8" y="469.6" width="11.8" height="11.8" style="fill:#D39F66;"/>
	</g>
</g>
<g>
	<path d="M276.7,242.8c0,0-5.2-0.2-11-4.2c-6.5-4.6-10.5-7.5-17.1-5.7c-6,1.7-7.1,8.2-3.7,10.6
		c5.1,3.6,13.9-0.8,18.2,1C271.8,243.7,276.7,242.8,276.7,242.8z" style="fill:#B71C1C;"/>
	<path d="M269,227.6c-3.3-1.7-6.6-1.1-12.1,2c-3.8,2.1-6.3,6.1-6.5,10.5c-0.6,13.8,1,26.1,8.1,26
		c10-0.1,14.2-6.4,16-8.8c1-1.3,4.3-7.4,4.5-14.1C279,237.6,276.9,231.5,269,227.6z" style="fill:#FFCCBC;"/>
	<path d="M256.7,263.6c0,0,3.2,8.6-1,12c-2.2,1.8,2.4,13.5,8.5,12.7c5.5-0.8,15.6-14.1,14.8-14.9
		c-2.8-3.4-4.6-10.1-3.2-18.2C276.5,250.5,259.7,254.2,256.7,263.6z" style="fill:#FFCCBC;"/>
	<path d="M280.2,243.8c0,0,3.9-17.9-12.3-20.3c-8.7-1.3-15.6,3.3-16.5,10c8.9,2,12.5,7.8,17.9,9.7
		c4.7,1.6,8.6,0.3,8.6,0.3C279.3,243.7,280.2,243.8,280.2,243.8z" style="fill:#C62828;"/>
	
		<ellipse transform="matrix(0.2469 -0.969 0.969 0.2469 -30.3813 455.1365)" cx="277.6" cy="247.1" rx="5.1" ry="3.2" style="fill:#FFCCBC;"/>
	<path d="M275.7,243.8c0,0-3.7-0.5-9.9-5.3c-6.3-4.9-10.5-7.5-17.1-5.7c7.5,0.8,12.2,9.2,15.6,11.6
		C269.4,248.1,275.7,243.8,275.7,243.8z" style="fill:#E53935;"/>
	<path d="M313,311.8c-1.4,4.2-2.7,6.9-1.5,10.6c1.2,3.6,2,5.2,3,7.1c4.4,8.8,7.8,8.9,9.5,1.6c1.2-5.6,0.2-6.5-1.2-8.1
		c-0.6-0.7-1.3-1.7-1.9-2.5c-0.8-1.1-0.9-2.5-0.4-3.7L313,311.8z" style="fill:#FFCCBC;"/>
	<g>
		<path d="M330.6,298.9l-7.7,20.4c-5.1-5.1-12.2-3.8-12.2-3.8l3.3-15.5l-18.1,1.8l-0.6,5.9c0,0-0.6,13.7-1.3,19.1
			c-0.3,2.2-0.2,7.5,0,10.2c0.5,7.4-1.5,9.1-1.5,9.1s-25.9,12.4-51.8,0c0.1-0.9-1.2,0-0.8-6.7c0.1-1.2,3.7-30.8,3.7-30.8l-10.3-16.9
			c0.8-4.9,4.9-10.7,9.7-12.8l14.6-6.2c0,0,2.1,5.9,7.7,5.8c9.4-0.2,11.5-8.8,11.5-8.8l17.5,4.6c2.8,0.8,5.5,2.1,7.8,3.8l22.9,7.6
			C330.7,287.1,333.5,293.7,330.6,298.9z" style="fill:#64B5F6;"/>
	</g>
	<g>
		<g>
			<path d="M296.6,274.9l-8.7,42.8l-7.8-1.9l8.7-43l5.3,1.4C295,274.4,295.8,274.6,296.6,274.9z" style="fill:#3949AB;"/>
		</g>
		<g>
			<path d="M256.9,315.8l-7.8,1.8c-6.7-22.8-7-38.5-7-38.5c0.3-0.1,0.5-0.2,0.8-0.4l6.7-2.8
				C249.6,275.9,250.8,296.9,256.9,315.8z" style="fill:#3949AB;"/>
		</g>
		<path d="M288.9,310l-2.7,38.6c-17.2,9.1-35.3,4.6-41.1-0.4c-3.4-15.2,2.6-40.9,2.6-40.9
			C260.7,308.8,288.9,310,288.9,310z" style="fill:#3949AB;"/>
		<path d="M279.6,317.8l-1.8,22.6c0,0-14.7,2.1-23.6,0.3c-1.4-16.4,1.9-23.7,1.9-23.7L279.6,317.8z" style="fill:#4859AF;"/>
	</g>
	<g>
		<path d="M313.9,299.9l-18.1,1.8c0,0,4.4-17.4,6.2-23.7l22.9,7.6C316,285,313.9,299.9,313.9,299.9z" style="fill:#54B0EF;"/>
	</g>
	<path d="M291.8,354c3,17.4-3.8,41.8-7.4,60.3c0.4,11.4-3.2,25.6-9.3,54.8c-1.3,6-16.6-18-16.6-18l3.6-39.3l-1.4-31.6
		l2.4-26.5C263.2,353.6,290.8,348.1,291.8,354z" style="fill:#3949AB;"/>
	<path d="M282.5,435c0,0-9.4,44-11.4,53.9h-16l6.4-69.7L282.5,435z" style="fill:#344599;"/>
	<path d="M204.9,328c3,0.2-12.1-1.5-13.9-4.2c-1.4-2.2-3.2-8.2-0.7-9.7c1.6-0.9,8.1,0.8,11.1,3.3
		c0.7,0.5,2.6-0.4,2.9-1.2l0.9-3c2.1,0.2,3.4,5.7,3.4,5.7L204.9,328z" style="fill:#FFCCBC;"/>
	<g>
		<path d="M233.3,291.6l-9.1,29.4l-15.5-2.2l-3.8,9.3c0,0,25.3,9.1,30.8,5.2c4-2.8,9.3-20.3,9.2-28.4
			C241.4,294.2,233.3,291.6,233.3,291.6z" style="fill:#64B5F6;"/>
	</g>
	<g>
		<path d="M203,328h-9.8c-0.5,0-1-0.4-1-0.9l-1.9-23.4h15.5l-1.9,23.4C204,327.6,203.6,328,203,328z" style="fill:#E53935;"/>
		<polygon points="205.2,313.1 204.8,317 191.5,317 191.2,313.1 		" style="fill:#5D4037;"/>
		<path d="M207,304.7h-17.8v-1.4c0-1.1,0.9-1.9,1.9-1.9h13.9c1.1,0,1.9,0.9,1.9,1.9V304.7z" style="fill:#5D4037;"/>
		<path d="M201.5,315.1c0,2.8-1.6,5.1-3.4,5.1c-1.8,0-3.3-2.3-3.2-5.2c0-2.8,1.6-5.1,3.4-5.1
			C200.1,309.9,201.5,312.3,201.5,315.1z" style="fill:#FFE6C2;"/>
	</g>
	<path d="M255.1,488.9c0-4.3,3.5-7.8,7.8-7.8c4.3,0,7.8,3.5,7.8,7.8H255.1z" style="fill:#212121;"/>
	<path d="M292.7,468.6c1.2-2,1.4-4.5-1.1-6.6c-3.1-2.6-8.9-6.1-8.9-6.1L275,461c0,0-0.3,0.4,1.7,2.3
		c4.5,4.3-0.1,17.2-1.6,17.5c-6.1,1.5-4.1,8-4.1,8h9.2C282.6,487.8,289.4,474,292.7,468.6z" style="fill:#212121;"/>
	<path d="M233.4,422.5c24.1,28.2,41.8,46.6,41.8,46.6l12-12.1c0,0-16.7-31.7-30.4-42.6c-0.7-0.5-0.9-1.5-0.6-2.3
		c4.2-11.2,7.9-27.7,9-31.7c-2.4-8.2,1.3-22.2,1.3-22.2l2.3-4.2l-29,0.5l0,0c-0.8,2.4-9,33.7-8.8,61.4
		C231,418.4,231.9,420.7,233.4,422.5z" style="fill:#3949AB;"/>
	<path d="M291.8,354c0.1-3,0.5-5.8,0.5-8c0,0-25.2,9.8-51.8,0l-0.8,8.6C239.8,354.6,271.3,363.4,291.8,354z" style="fill:#2E3F93;"/>
</g>
</svg>
