<?xml version="1.0" encoding="iso-8859-1"?>
<!-- Generator: Adobe Illustrator 22.1.0, SVG Export Plug-In . SVG Version: 6.00 Build 0)  -->
<svg version="1.1" id="Layer_14" xmlns="http://www.w3.org/2000/svg" xmlns:xlink="http://www.w3.org/1999/xlink" x="0px" y="0px"
	 viewBox="0 0 800 600" style="enable-background:new 0 0 800 600;" xml:space="preserve">
<rect style="fill:#FFFFFF;" width="800" height="600"/>
<g>
	
		<radialGradient id="SVGID_1_" cx="-4141.0288" cy="739.7511" r="172.8223" gradientTransform="matrix(0.4478 0 0 -0.4741 2418.3528 514.716)" gradientUnits="userSpaceOnUse">
		<stop  offset="0" style="stop-color:#E0E0E0"/>
		<stop  offset="0.5864" style="stop-color:#F5F5F5;stop-opacity:0.4136"/>
		<stop  offset="1" style="stop-color:#FFFFFF;stop-opacity:0"/>
	</radialGradient>
	<circle style="fill:url(#SVGID_1_);" cx="564" cy="164" r="100"/>
	<circle style="fill:#FEFEFE;" cx="564" cy="164" r="29"/>
</g>
<g>
	<g>
		
			<linearGradient id="SVGID_2_" gradientUnits="userSpaceOnUse" x1="355.3895" y1="289.8895" x2="280.795" y2="364.484" gradientTransform="matrix(1 0 0 -1 0 600)">
			<stop  offset="0" style="stop-color:#FFFFFF;stop-opacity:0"/>
			<stop  offset="1" style="stop-color:#FAFAFA"/>
		</linearGradient>
		<polygon style="fill:url(#SVGID_2_);" points="361,304.5 334.287,304.104 310.743,293.291 301.646,269.023 304.672,253.822 
			291.311,225 320.13,252.591 328.989,255.883 349.155,288.117 		"/>
		
			<linearGradient id="SVGID_3_" gradientUnits="userSpaceOnUse" x1="260.3445" y1="282.3554" x2="322.15" y2="344.161" gradientTransform="matrix(1 0 0 -1 0 600)">
			<stop  offset="0" style="stop-color:#FFFFFF;stop-opacity:0"/>
			<stop  offset="1" style="stop-color:#F5F5F5"/>
		</linearGradient>
		<polygon style="fill:url(#SVGID_3_);" points="337.167,302.5 291.033,345.443 271.579,328.879 238.247,286.452 261.937,255.883 
			271.702,245.615 291.311,225 304.699,253.812 301.683,269.023 310.78,293.291 		"/>
	</g>
	<g>
		
			<linearGradient id="SVGID_4_" gradientUnits="userSpaceOnUse" x1="268.4463" y1="231.9703" x2="179.6292" y2="320.7872" gradientTransform="matrix(1 0 0 -1 0 600)">
			<stop  offset="0" style="stop-color:#FFFFFF"/>
			<stop  offset="1" style="stop-color:#F5F5F5"/>
		</linearGradient>
		<polygon style="fill:url(#SVGID_4_);" points="291.033,345.443 241.208,392.037 232.291,387.063 228.458,364.701 208.467,341.716 
			203.622,326.21 212.813,318.601 202.842,256 202.933,256.05 224.252,268.647 238.247,286.452 271.579,328.879 		"/>
		
			<linearGradient id="SVGID_5_" gradientUnits="userSpaceOnUse" x1="55.8403" y1="116.1597" x2="243.2612" y2="303.5808" gradientTransform="matrix(1 0 0 -1 0 600)">
			<stop  offset="0" style="stop-color:#FFFFFF;stop-opacity:0"/>
			<stop  offset="0.3493" style="stop-color:#FAFAFA;stop-opacity:0.3493"/>
			<stop  offset="0.7742" style="stop-color:#EBEBEB;stop-opacity:0.7742"/>
			<stop  offset="1" style="stop-color:#E0E0E0"/>
		</linearGradient>
		<path style="fill:url(#SVGID_5_);" d="M175.169,454H26c0,0,0,0,0.121-0.141c0.04-0.04,0.081-0.161,0.151-0.351
			c1.026-3.262,6.298-27.863,33.171-61.768l9.638-14.704l15.655-4.216l49.369-51.389l28.121-17.394L202.842,256l9.97,62.601
			l-9.191,7.609l4.844,15.506l19.991,22.985l3.753,22.312l8.998,5.024L175.169,454z"/>
	</g>
	<g>
		
			<linearGradient id="SVGID_6_" gradientUnits="userSpaceOnUse" x1="568.2158" y1="286.0289" x2="494.6359" y2="359.6089" gradientTransform="matrix(1 0 0 -1 0 600)">
			<stop  offset="0" style="stop-color:#FFFFFF;stop-opacity:0"/>
			<stop  offset="1" style="stop-color:#FAFAFA"/>
		</linearGradient>
		<path style="fill:url(#SVGID_6_);" d="M548.25,326.599l-1.417-5.251l-15.744-10.055l-1.875-22.956l2.635-11.691l-11.429-17.057
			l3.81-13.528l-13.207-22.057c0,0,31.366,26.697,32.382,33.968l12.763,10.723l5.038,11.667l18.1,15.023l-7.434,14.93
			L548.25,326.599z"/>
		
			<linearGradient id="SVGID_7_" gradientUnits="userSpaceOnUse" x1="463.9462" y1="259.1427" x2="545.9108" y2="341.1072" gradientTransform="matrix(1 0 0 -1 0 600)">
			<stop  offset="0" style="stop-color:#FFFFFF;stop-opacity:0"/>
			<stop  offset="0.3511" style="stop-color:#F9F9F9;stop-opacity:0.3511"/>
			<stop  offset="1" style="stop-color:#F5F5F5"/>
		</linearGradient>
		<polygon style="fill:url(#SVGID_7_);" points="548.25,326.599 505.588,356.009 497.451,360.373 472.02,329.458 445.688,312.894 
			434.121,310.931 434,310.911 461.368,273.39 475.593,270.744 480.678,262.44 511.018,224 524.181,246.229 520.471,259.655 
			531.855,276.644 529.216,288.332 531.086,311.29 546.828,321.352 		"/>
	</g>
	<g>
		
			<linearGradient id="SVGID_8_" gradientUnits="userSpaceOnUse" x1="734.414" y1="131.415" x2="564.3155" y2="301.5135" gradientTransform="matrix(1 0 0 -1 0 600)">
			<stop  offset="0" style="stop-color:#FFFFFF;stop-opacity:0"/>
			<stop  offset="0.8429" style="stop-color:#F7F7F7;stop-opacity:0.8429"/>
			<stop  offset="1" style="stop-color:#F5F5F5"/>
		</linearGradient>
		<polygon style="fill:url(#SVGID_8_);" points="661.17,460.999 649.251,383.939 611.923,340.777 613.519,313.937 590.775,272.027 
			648.523,317.036 654.218,333.845 742,460.999 		"/>
		
			<linearGradient id="SVGID_9_" gradientUnits="userSpaceOnUse" x1="563.95" y1="168.193" x2="657.25" y2="261.4929" gradientTransform="matrix(1 0 0 -1 0 600)">
			<stop  offset="0" style="stop-color:#FFFFFF;stop-opacity:0"/>
			<stop  offset="0.0019" style="stop-color:#FFFFFF;stop-opacity:0.0019"/>
			<stop  offset="0.6125" style="stop-color:#E8E8E8;stop-opacity:0.6125"/>
			<stop  offset="1" style="stop-color:#E0E0E0"/>
		</linearGradient>
		<polygon style="fill:url(#SVGID_9_);" points="663.833,469.857 604,469.857 530.09,388.19 520.333,388.19 497.451,360.373 
			505.588,356.009 571.872,310.314 590.773,272.03 590.783,272.04 613.506,313.915 613.506,313.925 613.516,313.935 
			611.941,340.642 611.931,340.771 637.473,370.325 649.251,383.946 661.139,460.851 		"/>
	</g>
	<g>
		<polygon style="fill:#FAFAFA;" points="604,469.857 289.138,469.857 281.318,414.815 265.409,388.19 305.708,409.604 
			317.452,395.371 331.499,352.432 349.912,347.441 392.964,306.003 445.688,312.894 472.02,329.458 520.333,388.19 530.09,388.19 
					"/>
		
			<linearGradient id="SVGID_10_" gradientUnits="userSpaceOnUse" x1="158" y1="212.075" x2="392.967" y2="212.075" gradientTransform="matrix(1 0 0 -1 0 600)">
			<stop  offset="0" style="stop-color:#FFFFFF;stop-opacity:0"/>
			<stop  offset="1" style="stop-color:#BDBDBD"/>
		</linearGradient>
		<polygon style="fill:url(#SVGID_10_);" points="392.967,306 349.921,347.439 331.496,352.429 317.449,395.373 305.708,409.604 
			265.418,388.189 158,469.85 331.806,307.314 		"/>
		
			<linearGradient id="SVGID_11_" gradientUnits="userSpaceOnUse" x1="223.5735" y1="130" x2="223.5735" y2="211.661" gradientTransform="matrix(1 0 0 -1 0 600)">
			<stop  offset="0" style="stop-color:#FFFFFF;stop-opacity:0"/>
			<stop  offset="0.0717" style="stop-color:#F8F8F8;stop-opacity:0.0717"/>
			<stop  offset="0.2785" style="stop-color:#EAEAEA;stop-opacity:0.2785"/>
			<stop  offset="0.5363" style="stop-color:#E2E2E2;stop-opacity:0.5363"/>
			<stop  offset="1" style="stop-color:#E0E0E0"/>
		</linearGradient>
		<polygon style="fill:url(#SVGID_11_);" points="289.147,470 158,470 265.418,388.339 281.316,414.963 		"/>
		
			<linearGradient id="SVGID_12_" gradientUnits="userSpaceOnUse" x1="416.1047" y1="254.9238" x2="410.6549" y2="292.5547" gradientTransform="matrix(1 0 0 -1 0 600)">
			<stop  offset="0" style="stop-color:#FFFFFF;stop-opacity:0"/>
			<stop  offset="0.1469" style="stop-color:#DADADA;stop-opacity:0.1469"/>
			<stop  offset="0.3171" style="stop-color:#B6B6B6;stop-opacity:0.3171"/>
			<stop  offset="0.4886" style="stop-color:#999999;stop-opacity:0.4886"/>
			<stop  offset="0.6598" style="stop-color:#858585;stop-opacity:0.6598"/>
			<stop  offset="0.8304" style="stop-color:#797979;stop-opacity:0.8304"/>
			<stop  offset="1" style="stop-color:#757575"/>
		</linearGradient>
		<path style="opacity:0.25;fill:url(#SVGID_12_);enable-background:new    ;" d="M355.128,342.476l37.836-36.473l51.976,6.407
			l26.3,16.56l3.621,4.539c3.536,4.433,0.01,10.938-5.634,10.395l-76.944-7.404l-35.533,8.927
			C355.02,345.848,353.846,343.711,355.128,342.476z"/>
	</g>
</g>
<g>
	<path style="fill:#F2D5D3;" d="M407,188.891c0,5.411-2.968,20.347-11.5,20.347S384,194.301,384,188.891
		c0-5.411,5.149-9.797,11.5-9.797S407,183.48,407,188.891z"/>
	<path style="fill:#4DB6AC;" d="M407.54,215.396c0,0.552-5.373,4.104-12,4.104s-12-3.552-12-4.104s5.373-2.396,12-2.396
		S407.54,214.844,407.54,215.396z"/>
	<path style="fill:#F2D5D3;" d="M405.941,221.857c-7.711-4.907-4.54-15.845-4.54-15.845h-11.95c0,0,3.171,10.938-4.54,15.845
		C381.204,224.215,409.647,224.215,405.941,221.857z"/>
	<path style="fill:#01579B;" d="M414,295c-2.215,0-34.785,0-37,0c-5.608,0-36,0-36,0l54.425,18.16L450,295
		C450,295,419.608,295,414,295z"/>
	<path style="fill:#424242;" d="M370.889,323.949c0,0-17.893-0.44-20.652,5.505c-2.76,5.945,10.348,4.624,13.798,3.963
		c3.449-0.661,9.658-2.922,9.658-2.922L370.889,323.949z"/>
	<path style="fill:#424242;" d="M419.962,323.949c0,0,17.893-0.44,20.652,5.505c2.76,5.945-10.348,4.624-13.798,3.963
		c-3.449-0.661-9.658-2.922-9.658-2.922L419.962,323.949z"/>
	<path style="fill:#424242;" d="M384.541,179c0,0,3.975,2.068,1.818,6.838c-1.438,3.18-1.229,8.744-1.229,10.162
		c0,0-3.086-3.975-3.086-10.335C382.044,182.209,381.463,179,384.541,179z"/>
	<path style="fill:#424242;" d="M405.732,178c0,0-3.023,2.081-1.082,7.048c1.294,3.312,1.283,9.475,1.283,10.952
		c0,0,3.067-4.14,3.067-10.763C409,180.269,407.673,178,405.732,178z"/>
	<path style="fill:none;stroke:#BDBDBD;stroke-width:3;stroke-miterlimit:10;" d="M410,191.465v-6.485
		c0-8.392-6.492-12.392-14.5-12.392S381,176.587,381,184.98v6.485"/>
	<path style="fill:#EF5350;" d="M386,187.905c0-1.052-0.895-1.905-2-1.905s-2,0.853-2,1.905v12.19c0,1.052,0.895,1.905,2,1.905
		s2-0.853,2-1.905V187.905z"/>
	<path style="fill:#EF5350;" d="M409,187.905c0-1.052-0.895-1.905-2-1.905s-2,0.853-2,1.905v12.19c0,1.052,0.895,1.905,2,1.905
		s2-0.853,2-1.905V187.905z"/>
	<polygon style="fill:#D32F2F;" points="412,198.4 409,200 409,188 412,189.6 	"/>
	<polygon style="fill:#D32F2F;" points="379,198.4 382,200 382,188 379,189.6 	"/>
	<path style="fill:#424242;" d="M386.385,186.104c0,0-1.58-2.677-2.789-4.907s-1.043-8.143,5.005-7.697s8.751,0.779,10.842,0.078
		C402.403,172.586,402,170,402,170s6,1.308,6,7c0,4-4.664,6.988-14.41,8.417C388.9,186.104,386.385,186.104,386.385,186.104z"/>
	<path style="fill:#1A68A5;" d="M331,305c0-5.258,4.773-10,10-10c10.165,0,17.49,2.685,27.788,6.401
		c32.246,11.638,51.174,22.548,51.174,22.548l-2.804,6.546c0,0-46.267-5.819-66.596-11.638C344.624,317.158,331,313.111,331,305z"/>
	<path style="fill:#2770AA;" d="M460,305c0-5.258-4.773-10-10-10c-10.165,0-17.639,2.685-27.937,6.401
		c-32.246,11.638-51.174,22.548-51.174,22.548l2.804,6.546c0,0,46.267-5.819,66.596-11.638C446.226,317.158,460,313.111,460,305z"/>
	<path style="fill:#F2D5D3;" d="M444.707,293.021c0.904,0.492,1.92,0.975,2.937,1.483c2.529,1.259,6.862,2.496,11.482,2.496
		c3.464,0,6.036,0.052,10.655-5.722c0.485-0.612,0-2.31-1.155-2.31c-0.751,0-4.641,1.124-5.969,2.071
		c-0.462-0.554-2.333-1.008-3.5-1.008c-4.619,0-3.937,1.008-6.894,1.008c-0.84,0-2.05-0.898-3.461-2.354
		C448.802,288.686,446.713,290.345,444.707,293.021z"/>
	<path style="fill:#F2D5D3;" d="M346.344,293.021c-0.904,0.492-1.92,0.975-2.937,1.483c-2.529,1.259-6.975,2.465-11.594,2.465
		c-3.464,0-6.006,0.064-10.625-5.71c-0.485-0.612,0-2.31,1.155-2.31c0.751,0,4.724,1.143,6.052,2.09
		c0.462-0.554,2.22-1.008,3.387-1.008c4.619,0,4.05,1.008,7.006,1.008c0.84,0,2.05-0.898,3.461-2.354
		C342.249,288.686,344.338,290.345,346.344,293.021z"/>
	<path style="fill:#4DB6AC;" d="M448.8,288.69c-1.43,1.33-2.8,2.79-4.09,4.33c-4.95-2.68-11.64-2.64-20.22-11.12
		c-1.27-1.25-2.27-2.74-2.99-4.38C418.68,271.06,416,256,416,256s0,14,0,22c0,8.402,3.61,17-2,17h-37c-5.61,0-2-8.598-2-17
		c0-8,0-22,0-22s-2.63,15.06-5.45,21.52c-0.72,1.64-1.72,3.13-2.99,4.38c-8.58,8.48-15.27,8.44-20.22,11.12
		c-1.29-1.54-2.66-3-4.09-4.33c3.95-4.04,9.46-12.56,12.81-17.93c0.74-1.19,1.29-2.47,1.65-3.82c0.96-3.65,2.89-12.94,2.89-12.94
		c1.4-10.52,4.03-21.12,10.12-23.81c3.805-1.697,7.316-3.538,10.296-5.282l31.014,0.071c2.983,1.714,6.497,3.515,10.3,5.211
		c6.09,2.69,8.72,13.29,10.12,23.81c0,0,1.93,9.29,2.89,12.94c0.36,1.35,0.91,2.63,1.65,3.82
		C439.34,276.13,444.85,284.65,448.8,288.69z"/>
	<path style="fill:#80CBC4;" d="M411.002,290h-31.004c-0.687,0-1.17-0.681-0.94-1.331c1.017-2.875,3.271-9.95,3.477-16.691
		c0.017-0.544,0.448-0.978,0.99-0.978h23.95c0.542,0,0.974,0.434,0.99,0.978c0.206,6.741,2.46,13.817,3.477,16.691
		C412.172,289.319,411.689,290,411.002,290z"/>
	<path style="fill:#80CBC4;" d="M383.041,215.85l-3.501,9.334c0,0,5.538,5.816,16,5.816s16-5.731,16-5.731l-3.501-9.419
		c-0.219-0.585-0.944-0.846-1.485-0.51c-1.382,0.86-4.497,2.089-11.014,2.089s-9.632-1.229-11.014-2.089
		C383.986,215.004,383.261,215.265,383.041,215.85z"/>
	<circle style="fill:#4DB6AC;" cx="391" cy="226" r="3"/>
	<circle style="fill:#4DB6AC;" cx="400" cy="226" r="3"/>
	
		<line style="fill:none;stroke:#80CBC4;stroke-width:2;stroke-linecap:round;stroke-miterlimit:10;" x1="400" y1="226" x2="400" y2="252"/>
	
		<line style="fill:none;stroke:#80CBC4;stroke-width:2;stroke-linecap:round;stroke-miterlimit:10;" x1="391" y1="226" x2="391" y2="252"/>
</g>
<g>
	<circle style="fill:#FFFFFF;" cx="385.917" cy="480.295" r="26.366"/>
	<circle style="fill:#FFFFFF;" cx="345.89" cy="465.645" r="28.362"/>
	<circle style="fill:#FFFFFF;" cx="303.106" cy="478.318" r="25.016"/>
	<circle style="fill:#FFFFFF;" cx="242.924" cy="487.136" r="44.981"/>
	<circle style="fill:#FFFFFF;" cx="183.612" cy="453.302" r="40.706"/>
	<circle style="fill:#FFFFFF;" cx="124.11" cy="454.078" r="33.058"/>
	
		<ellipse transform="matrix(0.9985 -0.0553 0.0553 0.9985 -26.0063 4.758)" style="fill:#FFFFFF;" cx="72.971" cy="472.293" rx="33.8" ry="33.8"/>
	<circle style="fill:#FFFFFF;" cx="451.476" cy="480.295" r="48.632"/>
	<circle style="fill:#FFFFFF;" cx="526.931" cy="506.093" r="47.01"/>
	<circle style="fill:#FFFFFF;" cx="590.775" cy="475.471" r="35.544"/>
	<circle style="fill:#FFFFFF;" cx="648.662" cy="468.661" r="37.279"/>
	<circle style="fill:#FFFFFF;" cx="693.609" cy="440.752" r="23.909"/>
	<circle style="fill:#FFFFFF;" cx="733.15" cy="478.318" r="38.39"/>
</g>
</svg>
