<?xml version="1.0" encoding="utf-8"?>
<!-- Generator: Adobe Illustrator 22.1.0, SVG Export Plug-In . SVG Version: 6.00 Build 0)  -->
<svg version="1.1" id="Layer_1" xmlns="http://www.w3.org/2000/svg" xmlns:xlink="http://www.w3.org/1999/xlink" x="0px" y="0px" viewBox="0 0 800 600" style="enable-background:new 0 0 800 600;" xml:space="preserve">

<rect width="800" height="600" style="fill:#FFFFFF;"/>
<g>
	
		<radialGradient id="SVGID_1_" cx="530.4866" cy="170.7412" r="139.5837" gradientTransform="matrix(0.9994 0 0 0.9994 0.3317 -0.1388)" gradientUnits="userSpaceOnUse">
		<stop offset="0" style="stop-color:#E0E0E0;stop-opacity:0.8"/>
		<stop offset="1" style="stop-color:#FFFFFF;stop-opacity:0"/>
	</radialGradient>
	<circle cx="530.5" cy="170.5" r="139.5" style="fill:url(#SVGID_1_);"/>
	<circle cx="530.5" cy="170.5" r="29.5" style="fill:#FFFFFF;"/>
</g>
<g>
	<linearGradient id="SVGID_2_" gradientUnits="userSpaceOnUse" x1="193.8" y1="371.3346" x2="193.8" y2="174">
		<stop offset="0" style="stop-color:#FFFFFF"/>
		<stop offset="0.3829" style="stop-color:#FCFCFC"/>
		<stop offset="0.7021" style="stop-color:#F1F1F1"/>
		<stop offset="0.9982" style="stop-color:#E0E0E0"/>
		<stop offset="1" style="stop-color:#E0E0E0"/>
	</linearGradient>
	<path d="M251,278.2l-14-24.1v-19.4c0-1.1-0.2-2.2-0.7-3.2l-2.6-5.6c-0.5-1-0.7-2.1-0.7-3.1v-20.7
		c0-0.6-0.5-1.1-1.1-1.1H227c-0.6,0-1.1,0.5-1.1,1.1V242c0,0.6-0.5,1.1-1,1.1l-4.9,8.6c-0.6,0-1-0.5-1-1.1v-59.1
		c0-0.8-0.4-1.5-1.1-1.9l-7.3-4c-0.4-0.2-0.7-0.6-0.9-1c-0.1-0.2-6.4-9.4-6.6-9.7c-0.4-0.6-1-0.9-1.7-0.9h-6.7
		c-0.3,0-0.6,0.1-0.8,0.4c-0.1,0.1-8.9,8.1-9,8.2c-0.2,0.3-0.5,0.4-0.8,0.4h-6c-0.5,0-1,0.4-1,1l-3.4,51.5c0,0.4-0.3,0.7-0.6,0.9
		l-5.4,2.6c-0.3,0.1-0.5,0.4-0.6,0.7l-6.6,22.6c-0.1,0.5-0.5,0.8-1,0.8h-6.3c-2,0-3.8,0.8-5.2,2.3c-3.2,3.5-9.3,10.1-12.4,13.6
		c-1.3,1.5-2,3.4-2,5.3c0,14.8,0.1,79.1,0.1,86.9c0,0.6,119.3-1,119.3-1c0.6,0,1-0.5,1-1.1l-1-83.5C253,282.9,252.3,280.4,251,278.2
		z" style="fill:url(#SVGID_2_);"/>
	<linearGradient id="SVGID_3_" gradientUnits="userSpaceOnUse" x1="340.2499" y1="362.9" x2="340.2499" y2="200">
		<stop offset="0" style="stop-color:#FFFFFF"/>
		<stop offset="0.3829" style="stop-color:#FCFCFC"/>
		<stop offset="0.7021" style="stop-color:#F1F1F1"/>
		<stop offset="0.9982" style="stop-color:#E0E0E0"/>
		<stop offset="1" style="stop-color:#E0E0E0"/>
	</linearGradient>
	<path d="M378.5,272.3l-12.5-8v-52.1c0-3.4-1.8-6.2-3.9-6.2h-1.2l-0.3-1.5c-0.4-2.7-2-4.5-3.8-4.5H339c-2.2,0-4,2.7-4,6
		v12v36.7c0,3-8,12.1-8,12.1v-37.7c0-0.6-0.5-1.1-1.1-1.1H323c-0.6,0-1.1-0.5-1.1-1.1V219c0-0.6-0.5-1.1-1.1-1.1h-4.2
		c-2.1,0-3.7,2.8-3.7,6.3v11.6c0,1.2-1,2.1-2.1,2.1h-2.7c-1.2,0-2.1,1-2.1,2.1v32.7l-8.5,14l-13.7,7.3c-2.1,0-3.8,2.8-3.8,6.2
		s-0.9,62.7-0.9,62.7l121.9-2l0.4-58L378.5,272.3z" style="fill:url(#SVGID_3_);"/>
	<linearGradient id="SVGID_4_" gradientUnits="userSpaceOnUse" x1="400" y1="592.9" x2="400" y2="273.9">
		<stop offset="0" style="stop-color:#FFFFFF"/>
		<stop offset="1" style="stop-color:#F5F5F5"/>
	</linearGradient>
	<path d="M710,335c-2.4,0-4,0-5.6-1.4c-6.4-6.9-22.5-13.7-49.8-16.2c-3.5-0.3-6.6-0.5-9.2-0.5
		c-10.4,0-13.7,1.7-14.9,2.9c-1.6,1.5-4,2.4-7.2,2.4l-20.1,1.5c-4.8,0.5-9.1,3.3-9.1,6.2c0,1.7,0,3-2,3c-4,0-8.3-1.7-17-8.7
		c-14.5-11.1-22.5-14.3-30-14.3c-5.7,0.1-11.3,2.2-18.3,3.5c-5.6,1.2-9,1.6-11.7,1.5c-5.1-0.1-6.7-1.5-6.7-1.5s-8-8.8-17.7-9.8
		c-9.6-1-33.8-15.7-70.7-24c-10.8-2.5-20.5-3.7-28.8-3.7c-21,0-33.8,5.2-33.8,5.2l-26.5,9.8c-2.4,1-3.6,1-6.6,1c-3.4,0-9-3-17.5-3
		h-54.7c-0.8,0-1.6,0-2.4,0c0,0-85.4-15-100.5-15c-5.4,0-82,18-82,18H0v301h800V335h-42H710z" style="fill:url(#SVGID_4_);"/>
	<linearGradient id="SVGID_5_" gradientUnits="userSpaceOnUse" x1="400" y1="561" x2="400" y2="307">
		<stop offset="0" style="stop-color:#FFFFFF"/>
		<stop offset="1" style="stop-color:#EEEEEE"/>
	</linearGradient>
	<path d="M711,343c-23.8,0-25.3,8-50,8c-27.1,0-45.3,4-70,4c0,0-63.6-18.5-78-20.9c-17.4-2.8-37.5-4.2-51-4.1
		c-5.2,0-9.2,0.4-11.5,1.1c-10.8,3.7-27.3,3.9-44.5,3.9c-14.6,0-28.1,1-40,1c-14.8,0-27.1-0.9-35.8-5.5
		C310.9,319.7,252.6,307,233,307c-18.4,0-53,4.1-77,7.2c-15,1.9-26.5,3.8-33,3.8s-14.8-6-28-6s-29,8.6-29,8.6L0,322v239h800V343H711
		z" style="fill:url(#SVGID_5_);"/>
	<path d="M711,375l89,1v195H0V363l67-5.3c0,0,103.6-10.7,170-10.7s127,26.9,191.6,26.9s114.3,10.6,172.1,1.7
		c16.1-2.4,31.5-3.8,46.3-3.7C671.4,372.1,693.7,375,711,375z" style="fill:#FFFFFF;"/>
	<linearGradient id="SVGID_6_" gradientUnits="userSpaceOnUse" x1="400" y1="571" x2="400" y2="347">
		<stop offset="0" style="stop-color:#FFFFFF"/>
		<stop offset="1" style="stop-color:#E0E0E0;stop-opacity:0.8"/>
	</linearGradient>
	<path d="M711,375l89,1v195H0V363l67-5.3c0,0,103.6-10.7,170-10.7s127,26.9,191.6,26.9s114.3,10.6,172.1,1.7
		c16.1-2.4,31.5-3.8,46.3-3.7C671.4,372.1,693.7,375,711,375z" style="fill:url(#SVGID_6_);"/>
	
		<radialGradient id="SVGID_7_" cx="400" cy="436.9204" r="319.9563" gradientTransform="matrix(1 0 0 1.4401 0 -192.3091)" gradientUnits="userSpaceOnUse">
		<stop offset="0" style="stop-color:#FFFFFF;stop-opacity:0"/>
		<stop offset="0.9218" style="stop-color:#FFFFFF;stop-opacity:0.9218"/>
		<stop offset="1" style="stop-color:#FFFFFF"/>
	</radialGradient>
	<path d="M710,335c-2.4,0-4,0-5.6-1.4c-6.4-6.9-22.5-13.7-49.8-16.2c-3.5-0.3-6.6-0.5-9.2-0.5
		c-10.4,0-13.7,1.7-14.9,2.9c-1.6,1.5-4,2.4-7.2,2.4l-20.1,1.5c-4.8,0.5-9.1,3.3-9.1,6.2c0,1.7,0,3-2,3c-4,0-8.3-1.7-17-8.7
		c-14.5-11.1-22.5-14.3-30-14.3c-5.7,0.1-11.3,2.2-18.3,3.5c-5.6,1.2-9,1.6-11.7,1.5c-5.1-0.1-6.7-1.5-6.7-1.5s-8-8.8-17.7-9.8
		c-9.6-1-33.8-15.7-70.7-24c-10.8-2.5-20.5-3.7-28.8-3.7c-21,0-33.8,5.2-33.8,5.2l-26.5,9.8c-2.4,1-3.6,1-6.6,1c-3.4,0-9-3-17.5-3
		h-54.7c-0.8,0-1.6,0-2.4,0c0,0-85.4-15-100.5-15c-5.4,0-82,18-82,18H0v308h800V335H710z" style="fill:url(#SVGID_7_);"/>
</g>
<g>
	<path d="M358.2,411.8l-1.7,0.2c-0.2,0-0.3,0-0.5,0l-4-0.5c-0.5-0.1-1-0.3-1.3-0.7l-0.2-0.2c-0.7-0.9-0.6-2.2,0.3-2.9
		l1.7-1.2c0.3-0.2,0.7-0.4,1.1-0.4l2.1-0.1c0.4,0,0.8,0.1,1.1,0.3l2.2,1.3c0.5,0.3,0.9,0.9,1,1.5l0.1,0.5
		C360.1,410.7,359.3,411.7,358.2,411.8z" style="fill:#FFFFFF;"/>
	<path d="M652.2,391.8l-1.7,0.2c-0.2,0-0.3,0-0.5,0l-4-0.5c-0.5-0.1-1-0.3-1.3-0.7l-0.2-0.2c-0.8-0.9-0.6-2.2,0.3-2.9
		l1.6-1.2c0.3-0.2,0.7-0.4,1.1-0.4l2-0.1c0.4,0,0.8,0.1,1.2,0.3l2.2,1.3c0.6,0.3,0.9,0.9,1,1.5l0.1,0.5
		C654.1,390.7,653.3,391.7,652.2,391.8z" style="fill:#FFFFFF;"/>
	<path d="M150.8,395c0.2,0,0.3,0,0.5,0l3.8-0.5c0.5-0.1,0.9-0.3,1.2-0.7l0.2-0.2c0.7-0.9,0.6-2.3-0.3-3l-1.7-1.4
		c-0.2-0.2-0.4-0.3-0.7-0.4l-2.8-0.7c-0.5-0.1-0.9-0.1-1.4,0.2l-2.5,1.5c-0.4,0.3-0.8,0.7-0.9,1.2l-0.3,0.8
		C145.7,392.9,150.8,395,150.8,395z" style="fill:#FFFFFF;"/>
	<path d="M214.8,368c0.2,0,0.3,0,0.5,0l3.8-0.5c0.5-0.1,0.9-0.3,1.3-0.7l0.2-0.2c0.7-0.9,0.6-2.3-0.3-3
		c0,0-2.2-1.7-2.4-1.8l-2.8-0.7c-0.5-0.1-0.9-0.1-1.4,0.2l-2.5,1.5c-0.4,0.3-0.8,0.7-0.9,1.2l-0.3,0.8
		C209.6,365.9,214.8,368,214.8,368z" style="fill:#FFFFFF;"/>
	<path d="M479.2,390c-0.2,0-0.3,0-0.5,0l-3.8-0.5c-0.5-0.1-0.9-0.3-1.3-0.7l-0.2-0.2c-0.7-0.9-0.6-2.3,0.3-3l1.7-1.4
		c0.2-0.2,0.4-0.3,0.7-0.4l2.8-0.7c0.5-0.1,0.9-0.1,1.4,0.2l2.5,1.5c0.4,0.3,0.8,0.7,0.9,1.2l0.3,0.8
		C484.4,387.9,479.2,390,479.2,390z" style="fill:#FFFFFF;"/>
	<path d="M111.2,415.3l-4.9,0.7c-0.1,0-0.3,0-0.4,0l-4.3-0.7c-0.5-0.1-1-0.4-1.3-0.9l0,0c-0.5-0.8-0.3-1.9,0.3-2.5
		l0.9-0.9c0.3-0.3,0.6-0.5,1-0.5l3.1-0.4c0.3,0,0.5,0,0.8,0.1l3.6,1.2c0.5,0.2,0.9,0.6,1.1,1.1l0.3,0.7c0.1,0.2,0.2,0.4,0.3,0.5
		C112.3,414.2,112,415.2,111.2,415.3z" style="fill:#FFFFFF;"/>
	<path d="M285.4,453.7l-1.6,1.4c-0.3,0.3-0.7,0.4-1.1,0.5l-2.4,0.3c-0.2,0-0.3,0-0.5,0l-3.9-0.4l-4.9-0.3
		c-0.6,0-1.2-0.4-1.5-0.9l-1.2-1.8c-0.5-0.8-0.4-1.8,0.2-2.5l3.6-3.6c0.4-0.4,0.9-0.6,1.4-0.6h3.2c0.2,0,0.4,0,0.6,0.1l5.9,1.9
		c0.5,0.1,0.8,0.5,1.1,0.9l1.4,2.4C286.2,452.1,286,453.1,285.4,453.7z" style="fill:#FFFFFF;"/>
	<path d="M618.6,413.5l1.6,1.6c0.3,0.3,0.7,0.5,1.1,0.5l2.4,0.4c0.2,0,0.3,0,0.5,0l3.9-0.4l4.9-0.3
		c0.6,0,1.2-0.4,1.5-0.9l1.2-2c0.5-0.9,0.4-2-0.2-2.7l-3.6-4c-0.4-0.4-0.9-0.6-1.4-0.6h-3.2c-0.2,0-0.4,0-0.6,0.1l-5.9,2.1
		c-0.5,0.2-0.8,0.5-1.1,1l-1.4,2.6C617.8,411.7,618,412.8,618.6,413.5z" style="fill:#FFFFFF;"/>
</g>
<g>
	<linearGradient id="SVGID_8_" gradientUnits="userSpaceOnUse" x1="562.4989" y1="238.1" x2="562.4989" y2="349.1">
		<stop offset="0" style="stop-color:#E0E0E0"/>
		<stop offset="1" style="stop-color:#EEEEEE"/>
	</linearGradient>
	<path d="M556,316c0,10,0,21.5,0,29.2c4.9,1.3,9.6,2.6,14,3.9c0-4.5,0-10.4,0-17c5.2-0.4,9.7-2.6,13.1-6.3
		c8.9-9.5,8-26.2,7.9-28c-0.2-2.8-2.6-4.8-5.3-4.6c-2.8,0.2-4.8,2.6-4.7,5.3c0.3,3.9-0.2,15.1-5.2,20.5c-1.5,1.6-3.8,2.1-5.8,2.1
		c0-32.8,0-74.8,0-76c0-3.9-3.1-7-7-7s-7,3.1-7,7c0,2.2,0,32.9,0,60c-1.8-0.5-3.3-1.2-4.7-2.6c-6.9-7.2-7.6-23.5-7.3-29.1
		c0.1-2.8-2-5.1-4.7-5.3c-2.8-0.1-5.1,2.2-5.3,5c-0.1,1-1.2,24.4,10.1,36.3C547.4,312.8,551.4,315.2,556,316z" style="fill:url(#SVGID_8_);"/>
</g>
<g>
	<linearGradient id="SVGID_9_" gradientUnits="userSpaceOnUse" x1="639.0054" y1="181.9498" x2="639.0054" y2="353">
		<stop offset="0" style="stop-color:#E0E0E0"/>
		<stop offset="1" style="stop-color:#EEEEEE"/>
	</linearGradient>
	<path d="M627,309v44c4.5-0.4,9.2-0.8,14-1.1v-31.1c28.5-3.2,32.8-51.3,33-53.4c0.2-2.8-1.8-5.2-4.6-5.4
		c-2.7-0.2-5.2,1.8-5.4,4.6c0,0.4-3.8,39.6-23,43.4v-46c14.1-1.7,18.6-18,19-26.8c0.1-2.8-2-5.1-4.8-5.2c-2.7-0.1-5.1,2-5.2,4.7
		c0,0.2-0.8,13.8-9,16.2v-63.7c0-3.6-2.6-6.8-6.1-7.2c-4.3-0.5-7.9,2.8-7.9,7c0,2.3,0,61,0,109c-1.5-0.6-2.9-1.2-4.2-2.5
		c-7.7-7.9-9-26.8-8.8-33.4c0.1-2.8-2.1-5-4.9-5.1H609c-2.7,0-4.9,2.3-5,5c0,1.1-0.5,28,11.7,40.5C618.9,305.8,622.7,308.2,627,309z
		" style="fill:url(#SVGID_9_);"/>
</g>
<g>
	<path d="M142,436.5c0-11.7,4.8-21.5,6-23.5c-0.6,1.9-2,5.5-2,23.5H142z" style="fill:#FFE082;"/>
	<path d="M144,435.6c0.7-8.6,7.9-18,10-19.6c-1.2,1.5-5.4,7.6-5.7,19.7c0,0.7-0.7,1.3-1.4,1.3h-1.4
		C144.6,437,143.9,436.3,144,435.6z" style="fill:#FFCC66;"/>
	<path d="M146,438.5c0.7-8.7,7.8-15.6,9-16.5c-1,1.1-4.5,7.1-4.9,16.7c0,0.7-0.6,1.3-1.4,1.3h-1.4
		C146.6,440,145.9,439.3,146,438.5z" style="fill:#FFD180;"/>
	<path d="M144.5,427.9c-0.4-2.3-1.2-4.6-2.2-6.8c-1.1-2.2-2.4-4.3-4.2-6.1c1.5,2,2.4,4.2,3,6.4
		c0.6,2.2,0.9,4.5,0.9,6.7c0,1,0,2-0.1,2.9c1,3.3,1.6,7,0.8,10.2c-0.1,0.3,0.2,0.7,0.6,0.8l0,0c0.5,0.1,0.9-0.2,1-0.5
		c0.4-2.1,0.7-4.3,0.8-6.4C145.1,432.6,144.9,430.3,144.5,427.9z" style="fill:#FFD180;"/>
	<path d="M140.9,436.8c-0.3-10.1-3.9-15.4-4.9-16.8c1.2,1.1,8.2,9.2,9,16.6c0.1,0.7-0.6,1.4-1.4,1.4h-1.3
		C141.5,438,140.9,437.5,140.9,436.8z" style="fill:#FFE082;"/>
	<path d="M138.7,437.8c-0.4-9.1-4.7-14.7-5.7-15.8c1.3,0.8,9.1,7.5,10,15.6c0.1,0.8-0.6,1.4-1.4,1.4h-1.4
		C139.4,439,138.8,438.4,138.7,437.8z" style="fill:#FFD180;"/>
</g>
<g>
	<g>
		<polygon points="634,424 608,391 549,380 525,388 509,400 510.9,430.5 537.7,450.9 561.3,461.6 591.4,460.6 633,434 
					" style="fill:#D7CCC8;"/>
		<polygon points="554,479 588,479 603.8,448.2 600,448 567,445 562.7,444.5 		" style="fill:#BCAAA4;"/>
		<polygon points="509,400 524,420 527.5,446.7 525,469 511,454 		" style="fill:#BCAAA4;"/>
		<polygon points="633,434 600,448 588,479 618.8,472.1 		" style="fill:#CCBDB8;"/>
		<polygon points="525,469 554,479 567,445 524,420 		" style="fill:#B7A09A;"/>
	</g>
	<g>
		<polygon points="163,425 156,428 169,439 190,439 204,431 199,426 177,422 		" style="fill:#D7CCC8;"/>
		<polygon points="192,437 167,437 162,451 192,453 		" style="fill:#B7A09A;"/>
		<polygon points="156,428 170,437 162,451 151,449 146,442 		" style="fill:#BCAAA4;"/>
		<polygon points="204,431 190,437 192,453 204,447 		" style="fill:#CCBDB8;"/>
	</g>
	<g>
		<polygon points="201,441 197,445 207,451 221,451 231,445 223,441 211,440 		" style="fill:#D7CCC8;"/>
		<polygon points="223,449 205,449 204,461 221,461 		" style="fill:#B7A09A;"/>
		<polygon points="197,445 207,449 204,461 193,454 		" style="fill:#BCAAA4;"/>
		<polygon points="231,445 221,449 221,461 233,455 		" style="fill:#CCBDB8;"/>
	</g>
	<g>
		<polygon points="133,434 130,436 135,440 143,440 148,436 145,434 138,433 		" style="fill:#D7CCC8;"/>
		<polygon points="144,438 134,438 133,445 144,445 		" style="fill:#B7A09A;"/>
		<polygon points="148,436 143,438 144,445 149,441 		" style="fill:#BCAAA4;"/>
		<polygon points="130,436 135,438 133,445 128,441 		" style="fill:#BCAAA4;"/>
	</g>
	<g>
		<polygon points="229,470 227,472 232,476 239,476 245,472 242,470 234,469 		" style="fill:#D7CCC8;"/>
		<polygon points="241,474 230,474 231,481 240,481 		" style="fill:#B7A09A;"/>
		<polygon points="227,472 232,474 231,481 225,477 		" style="fill:#BCAAA4;"/>
		<polygon points="245,472 239,474 240,481 246,478 		" style="fill:#CCBDB8;"/>
	</g>
	<g>
		<polygon points="427,481 424,483 428,487 437,487 442,483 438,480 432,480 		" style="fill:#D7CCC8;"/>
		<polygon points="438,485 427,485 428,491 437,492 		" style="fill:#B7A09A;"/>
		<polygon points="424,483 428,485 428,491 422,487 		" style="fill:#BCAAA4;"/>
		<polygon points="442,483 437,485 437,492 444,488 		" style="fill:#BCAAA4;"/>
	</g>
	<g>
		<polygon points="163,447 156,450 168,461 190,461 203,453 192,446 176,444 		" style="fill:#D7CCC8;"/>
		<polygon points="192,459 166,459 168,475 190,475 		" style="fill:#B7A09A;"/>
		<polygon points="156,450 168,459 168,475 151,465 		" style="fill:#BCAAA4;"/>
		<polygon points="203,453 190,459 190,475 206,466 		" style="fill:#CCBDB8;"/>
	</g>
	<g>
		<polygon points="482,444 476,447 489,458 510,458 521,451 512,443 495,441 		" style="fill:#D7CCC8;"/>
		<polygon points="513,456 487,456 487,470 508,470 		" style="fill:#B7A09A;"/>
		<polygon points="476,447 489,456 487.4,471.1 480,467 		" style="fill:#BCAAA4;"/>
		<polygon points="521,451 510,456 508,470 521,465 		" style="fill:#BCAAA4;"/>
	</g>
	<g>
		<polygon points="661,448 656,452 667,458 681,458 691,452 683,448 670,447 		" style="fill:#D7CCC8;"/>
		<polygon points="683,456 665,456 667,467.9 681,468 		" style="fill:#B7A09A;"/>
		<polygon points="656,452 667,456 667,467.9 653.4,460.4 		" style="fill:#BCAAA4;"/>
		<polygon points="691,452 681,456 681,468 692,462 		" style="fill:#BCAAA4;"/>
	</g>
	<g>
		<polygon points="623,457 615,460 630,471 650,471 663,463 651,456 636,455 		" style="fill:#D7CCC8;"/>
		<polygon points="652,469 628,469 628,484 650,483 		" style="fill:#B7A09A;"/>
		<polygon points="615,460 630,469 628,484 611,475 		" style="fill:#BCAAA4;"/>
		<polygon points="663,463 650,469 650,483 666,477 		" style="fill:#BCAAA4;"/>
	</g>
	<g>
		<polygon points="466,462 461,467 471,470 486,470 496,465 489,462 477,461 		" style="fill:#D7CCC8;"/>
		<polygon points="488,470 470,470 469,482 486,482 		" style="fill:#B7A09A;"/>
		<polygon points="461,467 472,470 469,482 458,475 		" style="fill:#BCAAA4;"/>
		<polygon points="496,465 486,470 486,482 498,476 		" style="fill:#BCAAA4;"/>
	</g>
</g>
<g>
	<path d="M524,475c0-17,7.3-31.1,9-34c-0.9,2.8-3,8-3,34H524z" style="fill:#FFE082;"/>
	<path d="M527,477c1-13.2,10.3-27.6,13-30c-1.5,2.3-6.6,11.4-7,29.9c0,1.1-1,2.1-2,2.1h-1.9
		C528,479,526.9,478.1,527,477z" style="fill:#FFCC66;"/>
	<path d="M531,475.8c1-12.6,10.4-22.6,12-23.8c-1.3,1.6-6.6,10.2-7,24.1c0,1.1-0.9,1.9-1.9,1.9h-1.3
		C531.8,478,530.9,477,531,475.8z" style="fill:#FFD180;"/>
	<path d="M523.9,467c2.4,4.5,1.1,13,1.1,13h3c1.2,0,2.1-1,2-2.2c-0.4-4.1-0.6-7.1-2.2-12.8
		c-2.1-7.7-5.6-17.3-11.9-24.5C522.2,453.5,523.7,465.5,523.9,467z" style="fill:#FFD180;"/>
	<path d="M523,478.1c-0.4-15.7-6.7-25-8-27.1c1.7,1.7,11.8,15.4,13,26.8c0.1,1.2-0.8,2.2-2,2.2h-1
		C524,480,523.1,479.1,523,478.1z" style="fill:#FFE082;"/>
	<path d="M520,477.1c-0.5-13.9-6.5-23.5-8-25.1c1.8,1.2,11.8,12.5,13,24.8c0.1,1.2-0.8,2.2-2,2.2h-1
		C521,479,520.1,478.2,520,477.1z" style="fill:#FFD180;"/>
</g>
<g>
	<path d="M614.5,426.3c-19.5-12.8-24.8-16.2-25.5-18.9c-0.6-2.3,4-4.4,4-6.9c0-1.1-1.1-2.4-1.1-2.4l-7,1.5
		c0,0-13.7,0.3-19.6,0.3c-5.6,0-10.3-1-10.3-1h-4c0,1.1,1.3,2.9,3.9,3c1.4,0.1,3.1,0.5,3.1,1c0,0.9-2,2-5.9,2c-4.1,0-6-1-6.1-1
		c-1.4,0-3,0-3,0h-2c0,3.3,4.6,6,11,6c1.5,2.1,4.1,2,8,2c4,0,7.4,0,11.8,0c3.5,0,7.3,0,13.5,3.8c16,9.6,21.2,7,27,12.6
		c5.2,5,3.2,13.2,3.2,13.2S620,429.9,614.5,426.3z" style="opacity:0.1;enable-background:new    ;"/>
	<path d="M590.4,397c-0.5,0-0.9,0.4-2.4,1.1c-1,0.5-2,0.6-2,0.6s-3.2-9.2-12.2-11.5c-5.9-1.5-3.2,3.1-3.2,3.1l3.4,7.2
		c0,0,0.8,3,2.2,2.8c3.5-0.6,4.9-1.9,4.9-1.9s0.6,3.5,3.1,3.5s6-1.6,6.9-2.3c0.6-0.4,0.9-0.8,0.9-1.2
		C591.9,397.8,591.1,397,590.4,397z" style="fill:#508E2F;"/>
	<path d="M552.5,383c0.3,2.5,2.5,6.7,2.5,9c0,1.8,0,4.8-1,5.8c0,0-0.6-0.5-1.3-0.5c-1.1,0-1.8,0.8-1.8,1.8
		c0,0.6,0.9,1,2.4,1c0.8,0,1.6-0.1,2.3-0.7c2.2-1.8,1.7-4.9,2-8.3c0.1-2,0.3-3.7,0.4-5.3C556.1,385,554.3,384.1,552.5,383z" style="fill:#508E2F;"/>
	<path d="M616.9,428.6c-1.5-4.1-5.5-6.3-12.1-9.9c-2.1-1.2-5.8-3.5-8.2-5.5c-7.2-6-10.6-10.8-12.1-13.2
		c-0.7-1.1-2.3-3.9-2.6-4.5c-7.2-14.4-27.7-15.4-31.7-17.6s-1.8-7.9-5.6-10.4c-0.6-1.6-1.7-2-3.8-2.3c-1.9-0.2-2.8-0.2-3.8-0.3
		c-1.3,0-5,0-5,2c0,0-0.1,2.5,2.2,6.1c2.4,3.8,5.8,5.8,5.8,5.8l3.8,4.7l3.9,4.2l-0.2,4c0,0,7.7-0.3,9.7,1.8
		c1.9,2.1,6.9,5.9,12.1,7.4c1.6,0.4,3,0.8,4.3,0.8c2.1,0,3.5-0.6,3.9-0.8c0.1,0.3,8.8,9.8,17.3,15.5c3.9,2.6,12,6.1,13.3,6.8
		c3.8,2.2,6.1,4,7.1,6.6c1.7,4.5,1.2,8.4-1.9,15.8c-2,5-2.3,7.3-2.6,9.6c-0.1,1-0.2,2-0.5,3.2c-0.8,3.4-5.2,4.3-5.2,4.3
		s6.3,0.3,7.1-7.3c0.2-2.2,1-4.4,2.9-9.1C618.2,438.7,618.8,433.5,616.9,428.6z" style="fill:#27AA27;"/>
	<path d="M547.4,384c-1.4,0-2.4,1.4-2.4,3.5c0,2.5,1,6.5,1,10.4c0,2.1-0.5,3.8-1,4.6c-0.3-0.3-1.1-0.5-1.8-0.5
		c-1.3,0-2.3,1-2.3,2c0,0.5,0.4,1,2,1c1.4,0,2.4-0.3,3-0.8c2.3-1.6,3.4-4.3,3.6-7.7c0.2-3,0.4-5.1,0.4-7.5
		C550,386.9,550,384,547.4,384z" style="fill:#59C12D;"/>
	<path d="M574.8,398.6c-1.1-2-4-4.9-8.4-6.2c-0.6-0.2-1.6-0.4-3.4-0.4c-2.2,0-4,0.4-4,2.1c0,2,1,4.5,5.3,8
		c1.8,1.4,2.8,2.2,3.8,2.9c-0.4,0.4-1.9,1-3.7,1c-2,0-2.3,0-5.4,0c-1.2,0-2.4,0.7-2.8,1.4c-0.4,0.7,0,1.6,0.8,1.5c0.5,0,1.7,0,2.4,0
		c6.9,0,8.3-0.1,11.3-0.5c2.6-0.4,3.3-1.3,3.3-2.3c0-0.2-0.1-0.5-0.2-0.7c-0.7-1.5-1.8-2.5-2.8-3.6c1-0.1,2.1-0.4,3.2-1.1
		c0.5-0.3,0.7-0.8,0.8-1.4C575,399.2,574.9,398.9,574.8,398.6z" style="fill:#59C12D;"/>
	<path d="M541.3,367.8c-1.5-1.5-4.3-0.6-4.3-0.6s2.6,0.2,2.9,1.1c0.1,0.3,0,0.5,0,0.5s-0.5-0.1-0.9,0.3
		c-0.7,0.8,0,1.8,0.8,1.9c0.6,0,1.2,0,1.7-0.5C542,370.1,542.4,368.9,541.3,367.8z" style="fill:#357F19;"/>
</g>
<radialGradient id="SVGID_10_" cx="2326.8821" cy="1177.7903" r="42.7984" fx="2338.3643" fy="1177.5193" gradientTransform="matrix(1.4954 0 0 0.5035 -3217.2239 -189.3406)" gradientUnits="userSpaceOnUse">
	<stop offset="0" style="stop-color:#BDBDBD;stop-opacity:0.8"/>
	<stop offset="1" style="stop-color:#FFFFFF;stop-opacity:0"/>
</radialGradient>
<ellipse cx="281.3" cy="405.2" rx="82.3" ry="42.2" style="fill:url(#SVGID_10_);"/>
<g>
	<path d="M242.4,352.1c4.9,2,5,6,5,6" style="fill:none;stroke:#BD8D5D;stroke-width:1.5;stroke-linecap:round;stroke-miterlimit:10;"/>
	<path d="M309.4,401.1c0,0,5.3-2.1,9,0" style="fill:none;stroke:#BD8D5D;stroke-width:1.5;stroke-linecap:round;stroke-miterlimit:10;"/>
	<line x1="325.4" y1="383.1" x2="330.4" y2="379.1" style="fill:none;stroke:#BD8D5D;stroke-width:1.5;stroke-linecap:round;stroke-miterlimit:10;"/>
	<line x1="289.4" y1="327.1" x2="294.4" y2="323.1" style="fill:none;stroke:#BD8D5D;stroke-width:1.5;stroke-linecap:round;stroke-miterlimit:10;"/>
	<line x1="266.4" y1="331.5" x2="265.4" y2="325.1" style="fill:none;stroke:#BD8D5D;stroke-width:1.5;stroke-linecap:round;stroke-miterlimit:10;"/>
	<line x1="248" y1="378.1" x2="241.4" y2="377.1" style="fill:none;stroke:#BD8D5D;stroke-width:1.5;stroke-linecap:round;stroke-miterlimit:10;"/>
	<line x1="327.4" y1="355.1" x2="329.4" y2="351.1" style="fill:none;stroke:#BD8D5D;stroke-width:1.5;stroke-linecap:round;stroke-miterlimit:10;"/>
	<line x1="272.4" y1="348.1" x2="267.4" y2="350.1" style="fill:none;stroke:#E3B37E;stroke-width:1.5;stroke-linecap:round;stroke-miterlimit:10;"/>
	<line x1="306.4" y1="336.1" x2="307.4" y2="332.1" style="fill:none;stroke:#E3B37E;stroke-width:1.5;stroke-linecap:round;stroke-miterlimit:10;"/>
	<line x1="303.1" y1="365.1" x2="306.4" y2="361.1" style="fill:none;stroke:#E3B37E;stroke-width:1.5;stroke-linecap:round;stroke-miterlimit:10;"/>
	<line x1="287.4" y1="380.1" x2="293.4" y2="378.1" style="fill:none;stroke:#BD8D5D;stroke-width:1.5;stroke-linecap:round;stroke-miterlimit:10;"/>
	<line x1="264.9" y1="374.1" x2="269.4" y2="369.1" style="fill:none;stroke:#BD8D5D;stroke-width:1.5;stroke-linecap:round;stroke-miterlimit:10;"/>
	<line x1="278.4" y1="347.9" x2="279.4" y2="341.1" style="fill:none;stroke:#BD8D5D;stroke-width:1.5;stroke-linecap:round;stroke-miterlimit:10;"/>
	<line x1="269.6" y1="337.1" x2="276.4" y2="337.1" style="fill:none;stroke:#E3B37E;stroke-width:1.5;stroke-linecap:round;stroke-miterlimit:10;"/>
	<line x1="309.6" y1="383.1" x2="315.4" y2="379.1" style="fill:none;stroke:#BD8D5D;stroke-width:1.5;stroke-linecap:round;stroke-miterlimit:10;"/>
	<line x1="319.1" y1="368.1" x2="320.4" y2="364.1" style="fill:none;stroke:#E3B37E;stroke-width:1.5;stroke-linecap:round;stroke-miterlimit:10;"/>
	<line x1="269.4" y1="377.1" x2="274.9" y2="374" style="fill:none;stroke:#E3B37E;stroke-width:1.5;stroke-linecap:round;stroke-miterlimit:10;"/>
	<line x1="313" y1="341" x2="314.4" y2="335.1" style="fill:none;stroke:#E3B37E;stroke-width:1.5;stroke-linecap:round;stroke-miterlimit:10;"/>
	<path d="M268.4,401.1c0,0,35-17,35-40c0-21-9-26-9-26" style="fill:none;stroke:#E3B37E;stroke-width:1.5;stroke-linecap:round;stroke-miterlimit:10;"/>
	<path d="M268.4,401.3c0,0,18.3,5.6,31,1c11-4,20-17.1,20-29.1c0-8-2.8-22.1-13-22.1" style="fill:none;stroke:#E3B37E;stroke-width:1.5;stroke-linecap:round;stroke-miterlimit:10;"/>
	<path d="M268.4,401.1c0,0-10.4-36.8,32-61" style="fill:none;stroke:#E3B37E;stroke-width:1.5;stroke-linecap:round;stroke-miterlimit:10;"/>
	<path d="M268.4,401.1c0,0,15-22,20-40" style="fill:none;stroke:#E3B37E;stroke-width:1.5;stroke-linecap:round;stroke-miterlimit:10;"/>
	<path d="M268.4,401.1c0,0-7-9-7-19c0-17,13-19,21-19c13,0,19,10,19,18" style="fill:none;stroke:#E3B37E;stroke-width:1.5;stroke-linecap:round;stroke-miterlimit:10;"/>
	<path d="M268.4,401.1c0,0-19-10.6-19-29c0-13,10.3-19,17-19c6,0,10,3,10,3" style="fill:none;stroke:#E3B37E;stroke-width:1.5;stroke-linecap:round;stroke-miterlimit:10;"/>
	<path d="M268.4,401.1c0,0,16.5-1.8,25.2-13.6c4.5-6.1,6.8-15.6,6.8-23.4c0-7-1.3-13-6.2-13c-2.7,0-3.8,2.1-3.8,3.9
		c0,2.1,2,3.1,3,3.1" style="fill:none;stroke:#E3B37E;stroke-width:1.5;stroke-linecap:round;stroke-miterlimit:10;"/>
	<path d="M273.4,342.1c-3.9,3.6-14.5,18.8-12.8,34.9s7.8,23.1,7.8,23.1" style="fill:none;stroke:#E3B37E;stroke-width:1.5;stroke-linecap:round;stroke-miterlimit:10;"/>
	<path d="M293.4,340.5c0,0-2-6.3-13-6.3c-16,0-28,18.9-28,33.3c0,20.9,16.1,33.7,16.1,33.7" style="fill:none;stroke:#E3B37E;stroke-width:1.5;stroke-linecap:round;stroke-miterlimit:10;"/>
	<path d="M297.2,333.1c22.3,4.6,36.7,32.6,22.6,50.2s-51.4,17.8-51.4,17.8" style="fill:none;stroke:#E3B37E;stroke-width:1.5;stroke-linecap:round;stroke-miterlimit:10;"/>
	<path d="M268.3,401.1c0,0-31-14.3-19.3-48.7c12.1-35.5,54.4-23.3,54.4-23.3" style="fill:none;stroke:#BD8D5D;stroke-width:1.5;stroke-linecap:round;stroke-miterlimit:10;"/>
	<path d="M303.4,340.1c0,0-12,48-35,61" style="fill:none;stroke:#BD8D5D;stroke-width:1.5;stroke-linecap:round;stroke-miterlimit:10;"/>
	<path d="M317,353.4c0,0-7.7,47.7-48.7,47.7" style="fill:none;stroke:#BD8D5D;stroke-width:1.5;stroke-linecap:round;stroke-miterlimit:10;"/>
	<path d="M310,343.1c0,0,12.5,49.6-19.6,59.1c-16.5,4.8-22-1-22-1" style="fill:none;stroke:#BD8D5D;stroke-width:1.5;stroke-linecap:round;stroke-miterlimit:10;"/>
	<path d="M268.4,401.1c0,0,0-27.1,20-46" style="fill:none;stroke:#BD8D5D;stroke-width:1.5;stroke-linecap:round;stroke-miterlimit:10;"/>
	<path d="M325.4,347.1c0,0,14.5,40.1-20,56.1c-5.6,2.6-11.2,3.9-16,3.9c-16,0-21-6-21-6" style="fill:none;stroke:#BD8D5D;stroke-width:1.5;stroke-linecap:round;stroke-miterlimit:10;"/>
	<path d="M265.4,346.1c0,0-24.4,29.9,3,55" style="fill:none;stroke:#BD8D5D;stroke-width:1.5;stroke-linecap:round;stroke-miterlimit:10;"/>
	<path d="M268.4,401.1c0,0-4-8.6-4-20c0-8.2,1.7-17.9,8.8-27.5c9.2-12.5,21.2-12.5,21.2-12.5" style="fill:none;stroke:#BD8D5D;stroke-width:1.5;stroke-linecap:round;stroke-miterlimit:10;"/>
</g>
</svg>
