<svg id="Layer_1" data-name="Layer 1" xmlns="http://www.w3.org/2000/svg" xmlns:xlink="http://www.w3.org/1999/xlink" width="800" height="600" viewBox="0 0 800 600">
  <defs>
    <radialGradient id="radial-gradient" cx="8222.729" cy="-811.647" r="264.37" gradientTransform="translate(11411.73 -458.79) rotate(180) scale(1.34 0.95)" gradientUnits="userSpaceOnUse">
      <stop offset="0" stop-color="#e0e0e0"/>
      <stop offset="1" stop-color="#fff"/>
    </radialGradient>
    <linearGradient id="linear-gradient" x1="282.965" y1="464" x2="282.965" y2="196.009" gradientTransform="translate(0 -64)" gradientUnits="userSpaceOnUse">
      <stop offset="0" stop-color="#fff"/>
      <stop offset="0.53" stop-color="#f9f9f9"/>
      <stop offset="1" stop-color="#eee"/>
    </linearGradient>
    <linearGradient id="linear-gradient-2" x1="489.49" x2="489.49" y2="214" xlink:href="#linear-gradient"/>
    <linearGradient id="linear-gradient-3" x1="212.97" y1="464" x2="212.97" y2="203" gradientTransform="translate(0 -64)" gradientUnits="userSpaceOnUse">
      <stop offset="0" stop-color="#fff"/>
      <stop offset="0.41" stop-color="#f9f9f9"/>
      <stop offset="0.99" stop-color="#e6e6e6"/>
      <stop offset="1" stop-color="#e6e6e6"/>
    </linearGradient>
    <linearGradient id="linear-gradient-4" x1="388.981" x2="388.981" y2="251.772" xlink:href="#linear-gradient-3"/>
    <linearGradient id="linear-gradient-5" x1="594" y1="458" x2="594" y2="181.93" xlink:href="#linear-gradient-3"/>
    <linearGradient id="linear-gradient-6" x1="670.5" y1="460" x2="670.5" y2="248" gradientTransform="translate(0 -64)" gradientUnits="userSpaceOnUse">
      <stop offset="0" stop-color="#fff"/>
      <stop offset="0.3" stop-color="#f9f9f9"/>
      <stop offset="0.72" stop-color="#e6e6e6"/>
      <stop offset="1" stop-color="#d6d6d6"/>
    </linearGradient>
    <linearGradient id="linear-gradient-7" x1="471" x2="471" y2="298.935" xlink:href="#linear-gradient-3"/>
    <linearGradient id="linear-gradient-8" x1="131.962" y1="464" x2="131.962" y2="278.845" xlink:href="#linear-gradient-6"/>
    <linearGradient id="linear-gradient-9" x1="400" y1="91.63" x2="400" y2="109.63" gradientTransform="matrix(1, 0, 0, -1, 0, 570.63)" gradientUnits="userSpaceOnUse">
      <stop offset="0" stop-color="#fff"/>
      <stop offset="1" stop-color="#ccc" stop-opacity="0.7"/>
    </linearGradient>
  </defs>
  <title>27_Teamwork</title>
  <g>
    <rect width="800" height="600" fill="#fff"/>
    <rect y="102.5" width="800" height="460.5" fill="url(#radial-gradient)"/>
    <rect y="91" width="800" height="309" fill="#fff"/>
    <rect width="800" height="600" fill="#fff"/>
    <path d="M338.44,214.19A57.5,57.5,0,1,0,229,189.5c0,1.64.09,3.27.22,4.88a57.469,57.469,0,0,0-20.54,88.12A42,42,0,0,0,279,320.37V400h14V319.59a57.5,57.5,0,0,0,45.44-105.4Z" fill="url(#linear-gradient)"/>
    <path d="M557.32,233.26c-11.6-9.26-18.74-23.2-18.34-38V192a44.011,44.011,0,0,0-88,2h0c0,.89,0,1.77.08,2.64a14,14,0,0,1-9.63,14.09A54.5,54.5,0,1,0,486,309.55V400h14V307.74a47,47,0,0,0,57.32-74.48Z" fill="url(#linear-gradient-2)"/>
    <path d="M213,400a76.18,76.18,0,0,0,76-76c0-41.93-76-185-76-185s-76.06,143.07-76.06,185A76.241,76.241,0,0,0,213,400Z" fill="url(#linear-gradient-3)"/>
    <path d="M467.9,275.41a43.49,43.49,0,0,0-40.47-46.31c-1-.07-1.95-.1-2.93-.1h0a1.78,1.78,0,0,1-1.78-1.78V227a34.5,34.5,0,0,0-68.28-9.93l-.09.65c-.1.69-.17,1.37-.22,2.06a35.768,35.768,0,0,0-.06,4.63,16.56,16.56,0,0,1-10.54,16.33,53,53,0,0,0-33.54,51,52.382,52.382,0,0,0,7.76,25.8A39,39,0,0,0,377,367.06V400h14V354a46.51,46.51,0,0,0,70.6-55,5,5,0,0,1,.34-4.41A43,43,0,0,0,467.9,275.41Z" fill="url(#linear-gradient-4)"/>
    <path d="M594,117.93h0S513,268.49,513,313s36.49,81,81,81,81-36.49,81-81S594,117.93,594,117.93Z" fill="url(#linear-gradient-5)"/>
    <path d="M716,341.28c0,35.8-20.37,54.72-45.5,54.72S625,377.08,625,341.28,670.5,184,670.5,184,716,305.48,716,341.28Z" fill="url(#linear-gradient-6)"/>
    <path d="M518.76,282.06a43.909,43.909,0,0,0,.18-6.88A42.5,42.5,0,0,0,434,277.5v1.38a2,2,0,0,1-1.3,1.91A56,56,0,0,0,397,333.42c.23,30.92,26,55.58,56.91,55.58H465v11h12V389h20.23c25.95,0,47.57-20.7,47.77-46.64A46.846,46.846,0,0,0,528.23,306,27.412,27.412,0,0,1,518.76,282.06Z" fill="url(#linear-gradient-7)"/>
    <path d="M190,288.14a30.7,30.7,0,0,1-10.22-26.38,45.2,45.2,0,0,0,.19-5.7,42.51,42.51,0,0,0-85,1.44v1.44a3,3,0,0,1-1.86,2.92,55.5,55.5,0,0,0,17.57,107.07c5.27.26,15.26.07,15.26.07v31h12V369s15.56.4,24.44-.06A46,46,0,0,0,190,288.14Z" fill="url(#linear-gradient-8)"/>
    <path d="M699.91,369a21,21,0,0,0-18.28-18.84A37,37,0,1,0,608,345a37.4,37.4,0,0,0,1.1,9,28.51,28.51,0,0,0-52.88,4.25,28.747,28.747,0,0,0-4.39,1.75,20,20,0,0,0-26-9.21,36.459,36.459,0,0,0-62.91.47,36.51,36.51,0,0,0-38.37-1.5,36.51,36.51,0,0,0-70.36-6.68,36.447,36.447,0,0,0-27.22,4,41.5,41.5,0,0,0-78.78-16.73,41,41,0,0,0-60.6,28.85A18.715,18.715,0,0,0,185,359a19,19,0,0,0-13,5.13,28.49,28.49,0,0,0-54.43,4.51,64.577,64.577,0,0,0-9.11-.64C81,368,63,400,63,400H737S722.61,374.44,699.91,369Z" fill="#fff"/>
  </g>
  <g>
    <path d="M687,461c0,9.94-8.91,18-19,18H132c-10.09,0-19-8.06-19-18Z" opacity="0.2" fill="url(#linear-gradient-9)" style="isolation: isolate"/>
    <g>
      <path d="M302,386c-5.72-3.06-6-4-6-6v-3l-8-2-2.42,6.63a7.29,7.29,0,0,0-.58,2.88,3.5,3.5,0,0,0,2,3.23c2.93,1.29,5.45,2.21,8.63,3.48s6.39,2.47,7.71,3,1.65-2,1.66-3.11A5.431,5.431,0,0,0,302,386Z" fill="#4fc3f7"/>
      <path d="M278.78,340c4.83,1.5,10.2,2.88,16.14,4.09C289.92,349.28,288,375,288,375l9,2s15-30.23,15-36c0-9-23-21-23-21Z" fill="#4d3e34"/>
      <path d="M289,320s-9-5-16-8c-7.74-3.32-10.23-5-16-5-6.59,0-11,3.08-11,10,0,6.77,10.58,16.11,32.78,23Z" fill="#01579b"/>
    </g>
    <g>
      <path d="M402.87,385.64a39.933,39.933,0,0,1-4.56-3.64,7.229,7.229,0,0,1-2.31-5l-9-3-2.4,6.72s-2.08,4.58,1.49,6.13c3.07,1.33,6.9,2.94,10.23,4.25s5.6,2.17,7,2.71c2.4.92,2.69-1.72,2.7-2.86A6.4,6.4,0,0,0,402.87,385.64Z" fill="#4fc3f7"/>
      <path d="M396.06,317.9C388,312,381,307,372,303a28.177,28.177,0,0,0-14-3,13.24,13.24,0,0,0-13,13c0,8.54,16.55,21,51,28-5.18,5.38-9,33-9,33l9,3s18-34,18-40C414,333.56,411.55,329.25,396.06,317.9Z" fill="#01579b"/>
    </g>
    <g>
      <path d="M507.59,385.37c-9-6-7.59-9.37-7.59-9.37l-9-3-3.34,7a9.147,9.147,0,0,0-.66,3.42,3.769,3.769,0,0,0,2.27,3.56c2.71,1.18,6.16,2.64,9.35,3.89,5.06,2,8.39,3.29,10.18,4.08a1.14,1.14,0,0,0,1.48-.6,7.43,7.43,0,0,0,.72-3C511,389.47,510.3,387.29,507.59,385.37Z" fill="#4fc3f7"/>
      <path d="M494,336.67c1.93.46,3.93.91,6,1.33-5.55,5.75-9,35-9,35l9,3s21-37.6,21-44c0-3.24-1.23-6.62-13.64-15Z" fill="#4d3e34"/>
      <path d="M507.36,317c-1.58-1.07-3.34-2.22-5.31-3.45-5.92-3.74-15.14-8.41-26.05-13.55-8.45-4-12-4-15-4-7.31,0-13,3.32-13,11,0,8.63,13.47,21.87,46,29.67Z" fill="#01579b"/>
    </g>
    <g>
      <polyline points="465.5 344.5 441.76 335.25 436.63 335.25" fill="none" stroke="#212121" stroke-linejoin="round" stroke-width="5"/>
      <polyline points="362 347.54 339.06 338.54 334.12 338.54" fill="none" stroke="#212121" stroke-linejoin="round" stroke-width="5"/>
      <g>
        <line x1="297.5" y1="395.5" x2="281.5" y2="411.5" fill="none" stroke="#37474f" stroke-linecap="round" stroke-linejoin="round" stroke-width="3"/>
        <path d="M303.34,394.21,294,390.57a1,1,0,0,0-1.3.55v.05l-1.57,4.27a1,1,0,0,0,.509,1.319h.081l9.38,3.64a1,1,0,0,0,1.3-.55v-.05l1.57-4.27a1,1,0,0,0-.53-1.31Z" fill="#546e7a"/>
        <circle cx="297.5" cy="395.5" r="1.5" fill="#263238"/>
      </g>
      <g>
        <line x1="501.5" y1="395.5" x2="485.5" y2="411.5" fill="none" stroke="#37474f" stroke-linecap="round" stroke-linejoin="round" stroke-width="3"/>
        <path d="M507.34,394.21,498,390.57a1,1,0,0,0-1.3.55v.05l-1.57,4.27a1,1,0,0,0,.509,1.319h.081l9.38,3.64a1,1,0,0,0,1.3-.55v-.05l1.57-4.27a1,1,0,0,0-.53-1.31Z" fill="#546e7a"/>
        <circle cx="501.5" cy="395.5" r="1.5" fill="#263238"/>
      </g>
      <g>
        <line x1="398.5" y1="395.5" x2="382.5" y2="411.5" fill="none" stroke="#37474f" stroke-linecap="round" stroke-linejoin="round" stroke-width="3"/>
        <path d="M404.34,394.21,395,390.57a1,1,0,0,0-1.3.55v.05l-1.57,4.27a1,1,0,0,0,.509,1.319h.081l9.38,3.64a1,1,0,0,0,1.3-.55v-.05l1.57-4.27a1,1,0,0,0-.53-1.31Z" fill="#546e7a"/>
        <circle cx="398.5" cy="395.5" r="1.5" fill="#263238"/>
      </g>
      <g>
        <g>
          <rect x="195" y="367.5" width="2" height="44.5" fill="#cfd8dc"/>
          <rect x="189.242" y="368.266" width="2" height="44.5" transform="translate(-94.591 62.545) rotate(-15)" fill="#cfd8dc"/>
          <rect x="183.867" y="370.479" width="2" height="44.5" transform="translate(-171.597 145.049) rotate(-30)" fill="#cfd8dc"/>
          <rect x="179.272" y="374.022" width="2" height="44.5" transform="translate(-227.406 243.537) rotate(-45)" fill="#cfd8dc"/>
          <rect x="175.742" y="378.629" width="2" height="44.5" transform="translate(-258.8 353.503) rotate(-60)" fill="#cfd8dc"/>
          <rect x="173.502" y="383.989" width="2" height="44.5" transform="translate(-263.059 469.652) rotate(-75)" fill="#cfd8dc"/>
          <rect x="151.5" y="411" width="44.5" height="2" fill="#cfd8dc"/>
          <rect x="152.258" y="416.759" width="44.5" height="2" transform="translate(-102.178 59.401) rotate(-15)" fill="#cfd8dc"/>
          <rect x="154.453" y="422.152" width="44.5" height="2" transform="translate(-187.854 144.98) rotate(-29.99)" fill="#cfd8dc"/>
          <rect x="158.021" y="426.731" width="44.5" height="2" transform="translate(-249.651 252.75) rotate(-45)" fill="#cfd8dc"/>
          <rect x="162.627" y="430.218" width="44.5" height="2" transform="translate(-281.017 375.799) rotate(-60.01)" fill="#cfd8dc"/>
          <rect x="167.987" y="432.5" width="44.5" height="2" transform="translate(-277.729 505.057) rotate(-75)" fill="#cfd8dc"/>
          <rect x="195" y="412" width="2" height="44.5" fill="#cfd8dc"/>
          <rect x="179.508" y="389.516" width="44.5" height="2" transform="translate(-227.67 484.326) rotate(-75)" fill="#cfd8dc"/>
          <rect x="184.883" y="391.729" width="44.5" height="2" transform="translate(-236.547 375.747) rotate(-60)" fill="#cfd8dc"/>
          <rect x="189.478" y="395.272" width="44.5" height="2" transform="translate(-218.193 265.779) rotate(-45)" fill="#cfd8dc"/>
          <rect x="193.008" y="399.879" width="44.5" height="2" transform="translate(-171.6 161.336) rotate(-30)" fill="#cfd8dc"/>
          <rect x="195.248" y="405.239" width="44.5" height="2" transform="translate(-97.731 70.135) rotate(-15)" fill="#cfd8dc"/>
          <rect x="196" y="411" width="44.5" height="2" fill="#cfd8dc"/>
          <rect x="216.492" y="395.509" width="2" height="44.5" transform="translate(-242.323 519.716) rotate(-75)" fill="#cfd8dc"/>
          <rect x="214.297" y="400.902" width="2" height="44.5" transform="translate(-258.817 398.111) rotate(-60.01)" fill="#cfd8dc"/>
          <rect x="210.729" y="405.481" width="2" height="44.5" transform="translate(-240.437 274.994) rotate(-45)" fill="#cfd8dc"/>
          <rect x="206.123" y="408.968" width="2" height="44.5" transform="translate(-187.813 161.265) rotate(-29.99)" fill="#cfd8dc"/>
          <rect x="200.763" y="411.25" width="2" height="44.5" transform="translate(-105.323 66.991) rotate(-15)" fill="#cfd8dc"/>
        </g>
        <path d="M196,465a53,53,0,1,1,53-53h0A53.071,53.071,0,0,1,196,465Zm0-96a43,43,0,1,0,43,43h0A43,43,0,0,0,196,369Z" fill="#90a4ae"/>
        <path d="M196,468a56,56,0,1,1,56-56h0A56.06,56.06,0,0,1,196,468Zm0-104a48,48,0,1,0,48,48A48,48,0,0,0,196,364Z" fill="#37474f"/>
      </g>
      <g>
        <g>
          <rect x="598" y="367.5" width="2" height="44.5" fill="#cfd8dc"/>
          <rect x="592.242" y="368.266" width="2" height="44.5" transform="translate(-80.859 166.849) rotate(-15)" fill="#cfd8dc"/>
          <rect x="586.867" y="370.479" width="2" height="44.5" transform="translate(-117.605 346.549) rotate(-30)" fill="#cfd8dc"/>
          <rect x="582.272" y="374.022" width="2" height="44.5" transform="translate(-109.37 528.501) rotate(-45)" fill="#cfd8dc"/>
          <rect x="578.742" y="378.629" width="2" height="44.5" transform="translate(-57.3 702.511) rotate(-60)" fill="#cfd8dc"/>
          <rect x="576.502" y="383.989" width="2" height="44.5" transform="translate(35.637 858.92) rotate(-75)" fill="#cfd8dc"/>
          <rect x="554.5" y="411" width="44.5" height="2" fill="#cfd8dc"/>
          <rect x="555.258" y="416.759" width="44.5" height="2" transform="translate(-88.446 163.705) rotate(-15)" fill="#cfd8dc"/>
          <rect x="557.453" y="422.152" width="44.5" height="2" transform="translate(-133.897 346.419) rotate(-29.99)" fill="#cfd8dc"/>
          <rect x="561.021" y="426.731" width="44.5" height="2" transform="translate(-131.615 537.714) rotate(-45)" fill="#cfd8dc"/>
          <rect x="565.627" y="430.218" width="44.5" height="2" transform="translate(-79.456 724.842) rotate(-60.01)" fill="#cfd8dc"/>
          <rect x="570.987" y="432.5" width="44.5" height="2" transform="translate(20.966 894.325) rotate(-75)" fill="#cfd8dc"/>
          <rect x="598" y="412" width="2" height="44.5" fill="#cfd8dc"/>
          <rect x="582.508" y="389.516" width="44.5" height="2" transform="translate(71.026 873.594) rotate(-75)" fill="#cfd8dc"/>
          <rect x="587.883" y="391.729" width="44.5" height="2" transform="translate(-35.047 724.755) rotate(-60)" fill="#cfd8dc"/>
          <rect x="592.478" y="395.272" width="44.5" height="2" transform="translate(-100.157 550.743) rotate(-45)" fill="#cfd8dc"/>
          <rect x="596.008" y="399.879" width="44.5" height="2" transform="translate(-117.609 362.836) rotate(-30)" fill="#cfd8dc"/>
          <rect x="598.248" y="405.239" width="44.5" height="2" transform="translate(-83.999 174.439) rotate(-15)" fill="#cfd8dc"/>
          <rect x="599" y="411" width="44.5" height="2" fill="#cfd8dc"/>
          <rect x="619.492" y="395.509" width="2" height="44.5" transform="translate(56.373 908.984) rotate(-75)" fill="#cfd8dc"/>
          <rect x="617.297" y="400.902" width="2" height="44.5" transform="translate(-57.256 747.155) rotate(-60.01)" fill="#cfd8dc"/>
          <rect x="613.729" y="405.481" width="2" height="44.5" transform="translate(-122.401 559.958) rotate(-45)" fill="#cfd8dc"/>
          <rect x="609.123" y="408.968" width="2" height="44.5" transform="translate(-133.856 362.704) rotate(-29.99)" fill="#cfd8dc"/>
          <rect x="603.763" y="411.25" width="2" height="44.5" transform="translate(-91.591 171.295) rotate(-15)" fill="#cfd8dc"/>
        </g>
        <path d="M599,465a53,53,0,1,1,53-53h0A53.071,53.071,0,0,1,599,465Zm0-96a43,43,0,1,0,43,43h0A43,43,0,0,0,599,369Z" fill="#90a4ae"/>
        <path d="M599,468a56,56,0,1,1,56-56h0A56.06,56.06,0,0,1,599,468Zm0-104a48,48,0,1,0,48,48A48,48,0,0,0,599,364Z" fill="#37474f"/>
      </g>
      <g>
        <line x1="358.14" y1="325.04" x2="381.5" y2="412" fill="none" stroke="#90a4ae" stroke-miterlimit="10" stroke-width="5"/>
        <rect x="366.685" y="337.463" width="10" height="75.83" rx="1" ry="1" transform="translate(-84.676 109.308) rotate(-15.04)" fill="#003966"/>
        <path d="M366.86,311H333.57a2.741,2.741,0,0,0-2.74,2.73c0,4.1,7.75,11.84,14.58,11.84,3.63,0,4.53-8.14,21.25-8.19a3.31,3.31,0,0,0,3.33-3,3.19,3.19,0,0,0-3-3.37h-.131Z" fill="#212121"/>
      </g>
      <g>
        <line x1="256.64" y1="325.04" x2="280" y2="412" fill="none" stroke="#90a4ae" stroke-miterlimit="10" stroke-width="5"/>
        <rect x="266.019" y="343.787" width="10" height="69.38" rx="1" ry="1" transform="translate(-88.929 83.292) rotate(-15.04)" fill="#003966"/>
        <path d="M270,319H236.73a2.73,2.73,0,0,0-2.73,2.73h0c0,4.1,7.74,11.84,14.57,11.84,3.64,0,4.54-8.14,21.25-8.19a3.31,3.31,0,0,0,3.34-3,3.19,3.19,0,0,0-3-3.37H270Z" fill="#212121"/>
      </g>
      <g>
        <line x1="460.32" y1="325.04" x2="483.68" y2="412" fill="none" stroke="#90a4ae" stroke-miterlimit="10" stroke-width="5"/>
        <rect x="467.981" y="330.838" width="10" height="82.56" rx="1" ry="1" transform="translate(-80.36 135.482) rotate(-15.04)" fill="#003966"/>
        <path d="M464.74,307h-26a2.73,2.73,0,0,0-2.73,2.73h0c0,4.1,7.74,11.84,14.57,11.84,3.64,0,4.54-8.14,21.25-8.19a3.31,3.31,0,0,0,3.34-3C475.27,308.55,466.54,307,464.74,307Z" fill="#212121"/>
      </g>
      <g>
        <line x1="195.5" y1="411.13" x2="266.56" y2="364.44" fill="none" stroke="#003966" stroke-linecap="round" stroke-linejoin="round" stroke-width="8"/>
        <polyline points="565 347.5 486 412 196 412" fill="none" stroke="#003966" stroke-linecap="round" stroke-linejoin="round" stroke-width="10"/>
        <polyline points="565 322 565 348.5 599 412" fill="none" stroke="#003966" stroke-miterlimit="10" stroke-width="10"/>
        <circle cx="599" cy="412" r="5" fill="#003966"/>
      </g>
      <g>
        <path d="M382.5,401A10.5,10.5,0,1,0,393,411.5h0A10.51,10.51,0,0,0,382.5,401Z" fill="#546e7a"/>
        <path d="M382.5,398a13.49,13.49,0,1,0,.02,0Zm9.39,8.86a6,6,0,0,1-7.46-4,6.146,6.146,0,0,1-.25-1.65A10.52,10.52,0,0,1,391.89,406.86ZM381,401.14a6,6,0,0,1-6,5.86,5.854,5.854,0,0,1-1.81-.29A10.489,10.489,0,0,1,381,401.14Zm-9,10.37a10.623,10.623,0,0,1,.16-1.78,6,6,0,0,1,3.74,7.51,5.661,5.661,0,0,1-.84,1.64A10.39,10.39,0,0,1,372,411.51Zm5.62,9.27a6,6,0,0,1,8.3-1.23,5.575,5.575,0,0,1,1.3,1.31,10.338,10.338,0,0,1-9.6-.08ZM389.81,419a6,6,0,0,1,1.526-8.347l0,0a6.165,6.165,0,0,1,1.52-.75,10.723,10.723,0,0,1,.14,1.61A10.379,10.379,0,0,1,389.81,419Z" fill="#263238"/>
      </g>
      <g>
        <line x1="382.5" y1="411.5" x2="365.5" y2="428.5" fill="none" stroke="#37474f" stroke-linecap="round" stroke-linejoin="round" stroke-width="3"/>
        <path d="M371.49,428.19l-8.72-5.05a1,1,0,0,0-1.378.317l0,0h0l-2.23,3.9a1,1,0,0,0,.317,1.378l0,0h0l8.72,5.05a1,1,0,0,0,1.378-.317l0,0h0l2.23-3.9a1,1,0,0,0-.317-1.378Z" fill="#546e7a"/>
        <circle cx="365.5" cy="428.5" r="1.5" fill="#263238"/>
      </g>
      <g>
        <path d="M485.5,401A10.5,10.5,0,1,0,496,411.5h0A10.51,10.51,0,0,0,485.5,401Z" fill="#546e7a"/>
        <path d="M485.5,398a13.49,13.49,0,1,0,.02,0Zm9.39,8.86a6,6,0,0,1-7.46-4,6.146,6.146,0,0,1-.25-1.65A10.52,10.52,0,0,1,494.89,406.86ZM484,401.14a6,6,0,0,1-6,5.86,5.854,5.854,0,0,1-1.81-.29A10.489,10.489,0,0,1,484,401.14Zm-9,10.37a10.623,10.623,0,0,1,.16-1.78,6,6,0,0,1,3.74,7.51,5.661,5.661,0,0,1-.84,1.64A10.39,10.39,0,0,1,475,411.51Zm5.62,9.27a6,6,0,0,1,8.3-1.23,5.575,5.575,0,0,1,1.3,1.31,10.338,10.338,0,0,1-9.6-.08ZM492.81,419a6,6,0,0,1,1.526-8.347l0,0a6.165,6.165,0,0,1,1.52-.75,10.723,10.723,0,0,1,.14,1.61A10.379,10.379,0,0,1,492.81,419Z" fill="#263238"/>
      </g>
      <g>
        <line x1="485.5" y1="411.5" x2="468.5" y2="428.5" fill="none" stroke="#37474f" stroke-linecap="round" stroke-linejoin="round" stroke-width="3"/>
        <path d="M474.49,428.19l-8.72-5.05a1,1,0,0,0-1.378.317l0,0h0l-2.23,3.9a1,1,0,0,0,.317,1.378l0,0h0l8.72,5.05a1,1,0,0,0,1.378-.317l0,0h0l2.23-3.9a1,1,0,0,0-.317-1.378Z" fill="#546e7a"/>
        <circle cx="468.5" cy="428.5" r="1.5" fill="#263238"/>
      </g>
      <g>
        <path d="M281.5,401A10.5,10.5,0,1,0,292,411.5h0A10.51,10.51,0,0,0,281.5,401Z" fill="#546e7a"/>
        <path d="M281.5,398a13.49,13.49,0,1,0,.02,0Zm9.39,8.86a6,6,0,0,1-7.46-4,6.146,6.146,0,0,1-.25-1.65A10.52,10.52,0,0,1,290.89,406.86ZM280,401.14a6,6,0,0,1-6,5.86,5.854,5.854,0,0,1-1.81-.29A10.489,10.489,0,0,1,280,401.14Zm-9,10.37a10.623,10.623,0,0,1,.16-1.78,6,6,0,0,1,3.74,7.51,5.661,5.661,0,0,1-.84,1.64A10.39,10.39,0,0,1,271,411.51Zm5.62,9.27a6,6,0,0,1,8.3-1.23,5.575,5.575,0,0,1,1.3,1.31,10.338,10.338,0,0,1-9.6-.08ZM288.81,419a6,6,0,0,1,1.526-8.347l0,0a6.165,6.165,0,0,1,1.52-.75,10.723,10.723,0,0,1,.14,1.61A10.379,10.379,0,0,1,288.81,419Z" fill="#263238"/>
      </g>
      <g>
        <line x1="281.5" y1="411.5" x2="264.5" y2="428.5" fill="none" stroke="#37474f" stroke-linecap="round" stroke-linejoin="round" stroke-width="3"/>
        <path d="M270.49,428.19l-8.72-5.05a1,1,0,0,0-1.378.317l0,0h0l-2.23,3.9a1,1,0,0,0,.317,1.378l0,0h0l8.72,5.05a1,1,0,0,0,1.378-.317l0,0h0l2.23-3.9a1,1,0,0,0-.317-1.378Z" fill="#546e7a"/>
        <circle cx="264.5" cy="428.5" r="1.5" fill="#263238"/>
      </g>
      <polyline points="555.5 327.5 588.5 308.5 574.5 308.5" fill="none" stroke="#000" stroke-linecap="round" stroke-linejoin="round" stroke-width="5"/>
    </g>
    <g>
      <g>
        <line x1="366.7" y1="356.91" x2="467" y2="349.37" fill="none" stroke="#003966" stroke-linecap="round" stroke-linejoin="round" stroke-width="8"/>
        <path d="M440,328c-.69-.69-7-2-7-2l-20-27s-.21-2.83-.54-7l-16.94,2A47.429,47.429,0,0,0,401,305.05c8.15,10.6,28,26.95,28,26.95s1,4.53,1.68,5.29S433.88,341,435,341a3.771,3.771,0,0,0,1.95-1H439c2,0,4-5,4-6A11.4,11.4,0,0,0,440,328Z" fill="#4d3e34"/>
        <path d="M371,306s38,29,38,45c0,5.17-8.6,23.37-18.32,37.26-1.6,2.28-14.6,18.33-15.43,19.78-5,0-10.25-2-9.79-7,5.08-8.17,13.85-38.29,21.54-45.12,0,0-35-22.88-44-31.88-8-8-9-16-9-26Z" fill="#0277bd"/>
        <path d="M412.46,292c-.78-10.15-2.22-28.28-2.82-33.12-.31-2.48-4.65-5.84-8.58-5.84-7,0-11.06,7.28-11.06,14,0,9,2.58,19.19,5.52,27Z" fill="#cf557e"/>
        <path d="M373,246c-24,11-39,36-39,52,0,0,2,10,26,10,8.77,0,11-2,11-2s2.12-1.84,9-8c10.52-9.41,15.46-4,22.81-9.66,4.58-3.55,5.95-8.72,6.19-16.34.41-13.16,1-16,1-16l-16-14C387,242,378.09,243.67,373,246Z" fill="#ff78a6"/>
        <path d="M406,296V277c0-8.54-3-18-12-18-4.62,0-11,4.57-11,14,0,8.69,2.31,19.32,5,27Z" fill="#ff9ebf"/>
        <path d="M429,332s1,4.53,1.68,5.29S433.88,341,435,341s3-2,3-2l-2-7Z" fill="#4d3e34"/>
        <path d="M440,328c-.69-.69-7-2-7-2l-27-26v-4l-18,4a29.344,29.344,0,0,0,6,10c9.46,9.46,35,22,35,22s2.78,3.05,5,3.05V337a3,3,0,0,0,3,3h2c2,0,4-5,4-6A11.4,11.4,0,0,0,440,328Z" fill="#6d584a"/>
        <circle cx="436.5" cy="334.5" r="3.5" fill="#212121"/>
        <path d="M397,237a14.589,14.589,0,0,0,4,10c4,4,11,4,11,4a5.2,5.2,0,0,1,3.66-2c1.59,0,4,3,6.34,3,3.25,0,7.65-5,10-9,4-6.86,4.07-10.17,4-13-.06-2.34-1-17-16-17-13,0-16.43,5.7-19,16C400.14,232.39,397,237,397,237Z" fill="#6d584a"/>
        <path d="M398,239a21.364,21.364,0,0,1-4,3s1.31,5.88,9,11a18.725,18.725,0,0,0,7,3,11.677,11.677,0,0,1,2-5S400,247,398,239Z" fill="#cf557e"/>
        <path d="M437.05,229.52s-2.57-1-9.38-1c0,3.21-4.67,4.46-4.67,7.47h-2s0-5-3.5-5c-2,0-3.5,1-3.5,4,0,3.42,3,7,3,7s-8,1-16-6l-2,2c0,5-4,9-11,9-6,0-9-4-14-4a.88.88,0,0,1-1-.74h0a.964.964,0,0,1,0-.24c0-1,2-3,5-3,1.9,0,3.65-.2,5-2,3-4,5-5,8-5a9,9,0,0,1,4,1l3-2s0-19,19-19C433,212,437.05,224.71,437.05,229.52Z" fill="#263238"/>
        <path d="M398,231a10.361,10.361,0,0,0,3,5c-.25,1.52-2,2-2,2-2.72-.53-4-3.9-4-5A2.87,2.87,0,0,1,398,231Z" fill="#cf557e"/>
        <path d="M372,419l3.25-11c-9.25-3-9.79-7-9.79-7-2.15,3.23-4.23,3.11-6,5.77a3.068,3.068,0,0,0-.46,1.77,4.9,4.9,0,0,0,2.23,3.76A4.28,4.28,0,0,1,363,416v4.31c0,1.85.75,3.24,3.28,4.94l5,2.88a7.019,7.019,0,0,0,2.12.87c1.67,0,1.63-2.91,1.63-4C375,422,372,419,372,419Z" fill="#4fc3f7"/>
      </g>
      <g>
        <line x1="415.5" y1="249.5" x2="415.5" y2="243.5" fill="none" stroke="#37474f" stroke-linecap="round" stroke-miterlimit="10" stroke-width="3"/>
        <path d="M403.5,224.5c0,13.52,11.76,19.1,12,19l11-13" fill="none" stroke="#37474f" stroke-miterlimit="10" stroke-width="3"/>
        <path d="M434,232a93.578,93.578,0,0,1-9-8c-11.51-11.51-23-11-23-11l-3.09,4.63a5.429,5.429,0,0,0-.91,3V224a2.129,2.129,0,0,0,.41,1.11c1.29,1.74,5.59,4.9,9.59,4.9,2,0,3-3,7-3a11,11,0,0,1,7,3c1.64,1.47,3,2,6,2Z" fill="#cf557e"/>
        <path d="M439.5,220c-3.5-7-11-13-23.5-13a37.012,37.012,0,0,0-9.87,1.38h0c-3.9,1.35-5.09,3.25-5.09,3.61v1.47a.53.53,0,0,0,.53.53c.11,0,6.8,0,17.47,7,4.44,2.9,15,15,22,15,.85,0,1-1,1-3C442,230,442,225,439.5,220Z" fill="#ff9ebf"/>
        <path d="M404,212c3,0,11.16.5,18,6s14,14,18,15c-2.91-9.83-14-22-29-22C406,211,404,212,404,212Z" fill="#37474f"/>
        <path d="M439.5,220c-3.5-7-11-13-23.5-13a37.012,37.012,0,0,0-9.87,1.38,33.287,33.287,0,0,1,5.37-.38,29.056,29.056,0,0,1,15,4c14,8,15.5,21,15.5,21h0C442,230,442,225,439.5,220Z" fill="#37474f"/>
      </g>
    </g>
    <g>
      <g>
        <line x1="266.56" y1="364.44" x2="366.7" y2="356.91" fill="none" stroke="#003966" stroke-linecap="round" stroke-linejoin="round" stroke-width="8"/>
        <path d="M270,349c-9.57-6.64-20.52-14.49-24-18a31.688,31.688,0,0,1-9-22.61L270,315s8.35,6.91,17,15.55Z" fill="#0277bd"/>
        <path d="M287,330.55c9.32,9.31,19,20.62,19,27.45,0,5-5.32,14.82-15,28-1.89,2.58-8.22,10.86-12.84,17a8.939,8.939,0,0,1-7-.61,6.59,6.59,0,0,1-3.44-5.39c4.33-10.68,12-31.45,18.33-37.1,0,0-7.47-5-16.05-10.93Z" fill="#6d584a"/>
        <path d="M289.13,272.7c0,14.17,5.93,32.18,9.87,37.3,7.87,10.23,22,20.65,22,20.65l6-4L311,303s-2.18-31.41-3-38c-.3-2.39-4.41-5.76-8.2-5.76C293,259.24,289.13,266.26,289.13,272.7Z" fill="#f9a825"/>
        <path d="M276,253c-18.09,9.11-39,37.06-39,56.35,0,5.74,14,7.65,22,7.65,8.46,0,11-2,11-2s1-6.94,8.4-13.51c10.2-9,16-2.71,23.09-8.2,4.42-3.42,5.74-8.41,6-15.76.39-12.69,1-15.44,1-15.44A55.839,55.839,0,0,1,293,249S285.48,248.22,276,253Z" fill="#ffc71c"/>
        <path d="M337.36,331.55C336.7,330.88,331,330,331,330l-4-3.33-6,4,6,4.35s.71,4.78,1.37,5.52,3.55,3.61,4.63,3.48a4.128,4.128,0,0,0,2.09-1H336c1.93,0,4-5,4-6A9.419,9.419,0,0,0,337.36,331.55Z" fill="#4d3e34"/>
        <path d="M283,279c0,14,7.52,32.71,10,35.19,9.13,9.12,28,17.35,28,17.35l4-6.54-21-20V282c0-8.24-2.32-17-11-17C288.54,265,283,269.9,283,279Z" fill="#ffde78"/>
        <path d="M327,335s.71,4.78,1.37,5.52,3.55,3.61,4.63,3.48a4.8,4.8,0,0,0,3-2l-2-7Z" fill="#4d3e34"/>
        <path d="M332,340c0,1.15.07,3,2,3h2c1.93,0,4-5,4-6a9.419,9.419,0,0,0-2.64-5.45C336.7,330.88,331,330,331,330l-6-5-4,6.54,6,3.46s2,3,5,3Z" fill="#6d584a"/>
        <circle cx="333.5" cy="337.5" r="3.5" fill="#212121"/>
        <path d="M295.87,243.76a14.092,14.092,0,0,0,3.86,9.65C303.56,257.24,310,257,310,257a4.319,4.319,0,0,1,4-2c1.53,0,3.7,3,6,3,3.13,0,7.74-4.15,10-8,3.89-6.62,4.07-11.27,4-14-.06-2.26-3-15-16-15-12.54,0-15.52,5.06-18,15C299.18,239.27,295.87,243.76,295.87,243.76Z" fill="#6d584a"/>
        <path d="M297,246a22.459,22.459,0,0,1-4,3s-.41,5.06,7,10a22.717,22.717,0,0,0,8.42,3.09A20.974,20.974,0,0,1,310,257S298.93,253.72,297,246Z" fill="#f9a825"/>
        <path d="M334.52,236.55s-2.48-1-9-1c0,3.09-4.47,3.54-4.47,7.4h-2s0-4-3-4a3.74,3.74,0,0,0-4,3.46h0a4.51,4.51,0,0,0,0,.52c0,3,3,7,3,7a24.723,24.723,0,0,1-16-7l-2,2v1c0,5-2.38,14-14.55,14-3.61,0-5.76-1-8.45-1-3.56,0-5.33,1.38-8,3-3,1.81-6,3-12,3-1.64,0-2-.56-2-1s.16-.7,1-1.1c4-1.9,3.56-3.87,5.47-8.09C262,247,271,250,274,245c2.3-3.83,4.91-6,10-6,3.15,0,4,1,9,1l3-2s.85-18.36,19.18-18.36C330.64,219.64,334.52,231.91,334.52,236.55Z" fill="#263238"/>
        <path d="M296,238a10.764,10.764,0,0,0,3,5,2,2,0,0,1-2,2c-2.95-.64-4-4-4-5.07C293,239.39,293.76,238,296,238Z" fill="#f9a825"/>
        <path d="M270.94,420.58s1.57-5.86,2.79-10.58l-9.48-6c-1.73,2-3.38,2.2-4.82,4.37A2.776,2.776,0,0,0,259,410a4.542,4.542,0,0,0,2.07,3.49c1.37,1.24,1.92,2.15,1.93,3.51v4c0,1.72.41,2.94,2.76,4.51l4.61,2.68a6.574,6.574,0,0,0,2,.81c1.55,0,1.66-2,1.66-3C274,423,270.94,420.58,270.94,420.58Z" fill="#4fc3f7"/>
        <path d="M264.25,404a67.063,67.063,0,0,0,3.47-7,23.8,23.8,0,0,0,10.44,6s-3.45,4.27-4.43,7C266.73,408.15,264.25,404,264.25,404Z" fill="#b1e4fc"/>
      </g>
      <g>
        <line x1="313.5" y1="255.5" x2="313.5" y2="250.5" fill="none" stroke="#37474f" stroke-linecap="round" stroke-miterlimit="10" stroke-width="3"/>
        <path d="M302.5,231.5c0,13,10.77,19.09,11,19l11-13" fill="none" stroke="#37474f" stroke-miterlimit="10" stroke-width="3"/>
        <path d="M332,239a68.3,68.3,0,0,1-9.07-7.74C311.88,220.11,301,221,301,221l-3.11,4.09A5.2,5.2,0,0,0,297,228v3.26a2,2,0,0,0,.39,1.07c1.24,1.67,5.76,4.67,9.6,4.67,1.92,0,2.16-3,6-3,2.88,0,5.69,1.84,7.05,3.06,1.58,1.43,3.07,1.94,5.95,1.94Z" fill="#f9a825"/>
        <path d="M339,240c0,1.92-.19,3-1,3-7,0-16.77-11.38-20.75-14.58C308,221,300.61,222,300.51,222a.51.51,0,0,1-.51-.51h0v-1.8c0-.35,1.14-2.2,4.88-3.51h0l.48-.16a32.888,32.888,0,0,1,9-1c12,0,19.16,5.65,22.52,12.45A24.176,24.176,0,0,1,339,237.56Z" fill="#ffde78"/>
        <path d="M302.64,219.64c2.89,0,10.76.49,17.36,5.79S333.14,239,337,240c-2.81-9.48-13.53-21-28-21C304.18,219,302.64,219.64,302.64,219.64Z" fill="#37474f"/>
        <path d="M336.88,227.47c-3.36-6.8-10.52-12.45-22.52-12.45a32.988,32.988,0,0,0-8.91,1c5.94,0,12.73.08,18.92,3.64C337.83,227.4,339,240,339,240v-2.44A24.176,24.176,0,0,0,336.88,227.47Z" fill="#37474f"/>
      </g>
    </g>
    <g>
      <g>
        <path d="M502,230.58a26.9,26.9,0,0,0,7.11,7.77,49.489,49.489,0,0,0,7.55,4.65l2.34-3s1.57-2,3-2c2.87,0,4.13,3,7,3s16-9.47,16-23.8c0-2.87-3.82-18.16-20.07-18.16-15.29,0-18.93,13.57-18.93,23.5a12.994,12.994,0,0,1-1.68,4.46C503.23,228.88,502,230.58,502,230.58Z" fill="#6d584a"/>
        <path d="M468,399c-2.23,1.48-7,3-7,7.5,0,1.16.37,2,2,3.5a6.061,6.061,0,0,1,2,5v4c0,1.88-.46,3.34,2.35,5.05.85.52,2.13,1.23,4.86,2.82,1.35.79,3,1.76,3.48,2a2.02,2.02,0,0,0,.64.11c.37,0,1.67,0,1.67-3,0-3.16-3-7-3-7s1.84-8,3.8-12Z" fill="#4fc3f7"/>
        <line x1="467" y1="349.37" x2="565" y2="342" fill="none" stroke="#003966" stroke-linecap="round" stroke-linejoin="round" stroke-width="8"/>
        <path d="M490.05,350c-9.28-6.32-37.64-25.79-43.74-31.88S439,304.4,439,298l36,6s19.21,15.54,31,30Z" fill="#0277bd"/>
        <path d="M515,351c0,5.54-4.27,11.68-14,27-1.85,2.91-8.57,11.32-13.93,18,0,0-3.6.63-8.1-2.19s-4.27-6.8-4.27-6.8h0c5.06-11.82,12.42-29.77,18.3-35l-2.95-2L506,334C511.23,340.34,515,346.51,515,351Z" fill="#6d584a"/>
        <path d="M495,256c0,15.72,13.94,35.94,19,41,7,7,44,13,44,13l2-8.4L531,289s-11-31-15-41c-1-2.48-6-5-9-5C499,243,495,248.85,495,256Z" fill="#038fd4"/>
        <path d="M481,235c-20.72,11.51-42,42.9-42,63,0,6.39,16.86,9,26,9,16,0,18-3.64,18-3.64s3.19-4.19,5-6.36a115.625,115.625,0,0,1,11.75-12.5C500.26,284,514,270,514,263c2-6,2.08-15,3-20l-15-13S490,230,481,235Z" fill="#29b6f6"/>
        <path d="M489,262c0,15.54,19.26,38.26,22,41,4.52,4.52,19,7,35,7h10l1-9c-12-4-33-10-33-10s-10-25-11.8-29.86c-2.2-6-5.32-11.14-13.2-11.14C494.05,250,489,253,489,262Z" fill="#81d4fa"/>
        <path d="M581,309c0-2,0-3-1-4-.66-.66-4-3-6-3-1,0-7,1-7,1l-7-1.4-2,8.4,9,1s3,3.66,4,4a26.7,26.7,0,0,0,5,1,3,3,0,0,0,2.37-1.7c.64-.31,1.37-.71,2.07-1.14S581,311,581,309Z" fill="#4d3e34"/>
        <path d="M567,311s3,3.66,4,4a26.7,26.7,0,0,0,5,1c2,0,3-3,3-3-4,0-6-5-6-5Z" fill="#4d3e34"/>
        <path d="M573.82,312.47c.47.83,1.58,2.52,2.77,2.53a14.5,14.5,0,0,0,3.85-1.84c.55-.35.56-2.16.56-4.16s0-3-1-4c-.66-.66-4-3-6-3-1,0-7,1-7,1l-10-2-1,9,11,1a13.381,13.381,0,0,0,5-1Z" fill="#6d584a"/>
        <path d="M545,218s-.79-1-4-1c-6,0-10,7-10,7h-2s-.34-5-4-5c-2.74,0-4,2.26-4,5,0,3.66,4,7,4,7h-2c-5,0-11.83-.79-16.06-6.4A9.167,9.167,0,0,1,506,223a53.824,53.824,0,0,1-1-8c0-12.72,10.16-18,19.16-18C540.57,197,545.3,210.15,545,218Z" fill="#263238"/>
        <path d="M504.32,227s1.31,9.25,14.68,13l-2,3a19.274,19.274,0,0,1-10.59-5.37C501.63,232.84,502,230,502,230Z" fill="#039be5"/>
        <path d="M487.07,396c-3.67,4.59-7.91,10.36-8.27,11-3.85,0-10.8-6-10.8-8a88.474,88.474,0,0,0,6.7-12s0,1.45,4.78,5A28.307,28.307,0,0,0,487.07,396Z" fill="#b1e4fc"/>
        <circle cx="574.5" cy="309.5" r="3.5" fill="#212121"/>
      </g>
      <g>
        <path d="M509.85,211.71c0,14.45,12.57,20.41,12.82,20.3l11.76-13.89" fill="none" stroke="#37474f" stroke-miterlimit="10" stroke-width="3"/>
        <path d="M543,220a91.75,91.75,0,0,1-10.17-8.83c-12.31-12.3-24.59-11.76-24.59-11.76l-3.29,5a5.67,5.67,0,0,0-.95,3.22v3.59a2.209,2.209,0,0,0,.41,1.19c1.38,1.85,6.31,5.64,10.59,5.64,2.14,0,2.72-3,7-3a11.937,11.937,0,0,1,7.59,2.86c1.75,1.57,3.2,2.09,6.41,2.09Z" fill="#039be5"/>
        <line x1="522.5" y1="238.5" x2="522.5" y2="231.5" fill="none" stroke="#37474f" stroke-linecap="round" stroke-miterlimit="10" stroke-width="3"/>
        <path d="M548.32,206.9c-3.76-7.49-11.9-13.9-25.32-13.9a37.233,37.233,0,0,0-10.49,1.48h0c-4.18,1.44-5.46,3.47-5.46,3.85v2.09a.59.59,0,0,0,.57.57c.12,0,7.3-.49,18.75,7,4.76,3.1,16.09,16,23.61,16,.91,0,1-1.09,1-3.21C551,218,551,212.24,548.32,206.9Z" fill="#81d4fa"/>
        <path d="M510,199c3.22,0,12.2-.12,19.54,5.76S545,221,549,221c-3.13-10.51-14.9-23-31-23A27.747,27.747,0,0,0,510,199Z" fill="#37474f"/>
        <path d="M551,220.78c0-2.78,0-8.54-2.68-13.88-3.76-7.49-11.9-13.9-25.32-13.9a37.8,37.8,0,0,0-10.47,1.47h0a33.7,33.7,0,0,1,21.86,3.66c15,8.55,16.63,22.65,16.63,22.65H551Z" fill="#37474f"/>
      </g>
    </g>
  </g>
</svg>
