<?xml version="1.0" encoding="iso-8859-1"?>
<!-- Generator: Adobe Illustrator 22.1.0, SVG Export Plug-In . SVG Version: 6.00 Build 0)  -->
<svg version="1.1" id="Layer_14" xmlns="http://www.w3.org/2000/svg" xmlns:xlink="http://www.w3.org/1999/xlink" x="0px" y="0px"
	 viewBox="0 0 800 600" style="enable-background:new 0 0 800 600;" xml:space="preserve">
<rect style="fill:#FFFFFF;" width="800" height="600"/>
<g>
	
		<linearGradient id="SVGID_1_" gradientUnits="userSpaceOnUse" x1="521.9139" y1="424.5" x2="521.9139" y2="508.93" gradientTransform="matrix(1 0 0 -1 0 600)">
		<stop  offset="0" style="stop-color:#FFFFFF"/>
		<stop  offset="0.5312" style="stop-color:#F9F9F9"/>
		<stop  offset="1" style="stop-color:#EEEEEE"/>
	</linearGradient>
	<path style="fill:url(#SVGID_1_);" d="M771.147,165.758c0,5.374-4.368,9.742-9.742,9.742c-0.861,0-476.205,0-478.982,0
		c-5.374,0-9.742-4.368-9.742-9.742c0-5.374,4.368-9.742,9.742-9.742c3.182,0,6.008,1.526,7.761,3.881
		c3.101-8.882,11.544-15.246,21.465-15.246c6.056,0,11.56,2.37,15.636,6.235c2.874-9.255,11.512-15.977,21.708-15.977
		c5.391,0,10.343,1.883,14.256,5.033c5.423-8.865,15.198-14.775,26.336-14.775c8.849,0,16.821,3.734,22.439,9.71
		c7.177-14.418,22.066-24.323,39.26-24.323c4.092,0,8.037,0.552,11.788,1.607c10.115-12.843,25.8-21.091,43.417-21.091
		c20.588,0,38.546,11.268,48.044,27.992c7.956-8.248,19.143-13.379,31.515-13.379c16.204,0,30.363,8.8,37.945,21.887
		c4.644-2.565,9.969-4.027,15.636-4.027c13.249,0,24.631,7.924,29.681,19.289c5.602-5.894,13.509-9.547,22.277-9.547
		c10.327,0,19.484,5.082,25.069,12.892c4.725-4.936,11.382-8.021,18.77-8.021c11.56,0,21.335,7.534,24.712,17.958
		c0.422-0.065,0.844-0.097,1.266-0.097C766.779,156.016,771.147,160.384,771.147,165.758z"/>
	<g>
		<g>
			<defs>
				<rect id="SVGID_2_" width="800" height="600"/>
			</defs>
			<clipPath id="SVGID_3_">
				<use xlink:href="#SVGID_2_"  style="overflow:visible;"/>
			</clipPath>
			<g style="clip-path:url(#SVGID_3_);">
				<path style="fill:#E6E6E6;" d="M526.851,303.384L20.894,280.211c-2.222-0.102-2.516,3.173-0.311,3.463
					c87.417,11.492,291.193,31.535,363.565,43.417c75.603,12.412,192.645,43.403,198.327,45.015
					c0.062,0.018,9.75,11.917,9.709,11.866L526.9,303.409C526.888,303.394,526.87,303.385,526.851,303.384z"/>
				<path style="fill:#F6F6F6;" d="M567.256,353.505c-66.828-26.451-512.737-65.362-491.812-62.585
					c99.299,13.177,248.26,33.281,308.036,43.095c75.603,12.412,202.958,48.452,208.64,50.065c0.062,0.018,0.105-0.057,0.064-0.107
					C592.184,383.973,567.257,353.506,567.256,353.505z"/>
				<g>
					<rect x="731.437" y="357.684" style="fill:#D1D1D1;" width="8.353" height="41.767"/>
					
						<rect x="720.307" y="346.543" transform="matrix(0.7071 -0.7071 0.7071 0.7071 -48.4292 617.9349)" style="fill:#D1D1D1;" width="2.784" height="41.767"/>
					<path style="fill:#D9D9D9;" d="M749.751,434.257h7.922c1.657,0,3-1.343,3-3V395.49c0-1.657-1.343-3-3-3h-7.922
						c-1.657,0-3,1.343-3,3v35.767C746.751,432.914,748.094,434.257,749.751,434.257z"/>
					<path style="fill:#D1D1D1;" d="M713.553,434.257h7.922c1.657,0,3-1.343,3-3V395.49c0-1.657-1.343-3-3-3h-7.922
						c-1.657,0-3,1.343-3,3v35.767C710.553,432.914,711.896,434.257,713.553,434.257z"/>
					<polygon style="fill:#EAEAEA;" points="724.475,402.003 735.613,398.058 746.751,402.003 746.751,421.727 735.613,417.782 
						724.475,421.727 					"/>
					<path style="fill:#E6E6E6;" d="M718.985,260.226l187.471-15.232c2.202-0.179,2.625,3.053,0.451,3.447l-187.922,34.061V260.226z
						"/>
					<path style="fill:#E6E6E6;" d="M713.367,303.384l505.957-23.174c2.222-0.102,2.516,3.173,0.311,3.463
						c-87.417,11.492-290.116,30.944-362.488,42.826c-75.603,12.412-194.318,43.388-200,45c-0.062,0.018,7.959-8.949,8-9
						l48.172-59.091C713.33,303.394,713.348,303.385,713.367,303.384z"/>
					<path style="fill:#F6F6F6;" d="M672.962,353.505c66.828-26.451,512.737-65.362,491.812-62.585
						c-99.299,13.177-248.26,33.281-308.036,43.095c-75.603,12.412-202.958,48.452-208.64,50.065
						c-0.062,0.018-0.105-0.057-0.064-0.107C648.034,383.973,672.961,353.506,672.962,353.505z"/>
				</g>
			</g>
		</g>
	</g>
	
		<linearGradient id="SVGID_4_" gradientUnits="userSpaceOnUse" x1="205.8" y1="351" x2="205.8" y2="405.3" gradientTransform="matrix(1 0 0 -1 0 600)">
		<stop  offset="0" style="stop-color:#FFFFFF"/>
		<stop  offset="1" style="stop-color:#EEEEEE"/>
	</linearGradient>
	<path style="fill:url(#SVGID_4_);" d="M376,242.726c0,3.465-2.809,6.274-6.26,6.274H41.86c-3.451,0-6.26-2.809-6.26-6.274
		c0-3.451,2.809-6.26,6.26-6.26c1.789,0,3.409,0.755,4.541,1.97c1.481-6.511,7.308-11.36,14.253-11.36
		c4.974,0,9.376,2.473,12.017,6.274c2.641-3.801,7.028-6.274,12.003-6.274c2.11,0,4.122,0.447,5.925,1.258
		c3.102-6.903,10.047-11.71,18.095-11.71c4.877,0,9.334,1.775,12.799,4.695c3.815-4.164,9.292-6.777,15.384-6.777
		c5.016,0,9.614,1.761,13.219,4.709c4.611-14.253,17.983-24.551,33.773-24.551c14.644,0,27.206,8.859,32.641,21.505
		c5.128-5.519,12.464-8.971,20.61-8.971c10.913,0,20.387,6.204,25.068,15.287c4.667-9.083,14.141-15.287,25.054-15.287
		c11.304,0,21.058,6.651,25.543,16.251c2.417-1.048,5.072-1.635,7.867-1.635c8.314,0,15.426,5.1,18.389,12.366
		c2.92-2.515,6.707-4.01,10.857-4.01c6.4,0,11.947,3.591,14.756,8.873c1.132-1.579,2.976-2.613,5.086-2.613
		C373.191,236.466,376,239.275,376,242.726z"/>
	
		<linearGradient id="SVGID_5_" gradientUnits="userSpaceOnUse" x1="522.767" y1="425" x2="522.767" y2="509.43" gradientTransform="matrix(1 0 0 -1 0 600)">
		<stop  offset="0" style="stop-color:#FFFFFF"/>
		<stop  offset="0.5312" style="stop-color:#F9F9F9"/>
		<stop  offset="1" style="stop-color:#EEEEEE"/>
	</linearGradient>
	<path style="fill:url(#SVGID_5_);" d="M772,165.258c0,5.374-4.368,9.742-9.742,9.742c-0.861,0-476.205,0-478.982,0
		c-5.374,0-9.742-4.368-9.742-9.742c0-5.374,4.368-9.742,9.742-9.742c3.182,0,6.008,1.526,7.761,3.881
		c3.101-8.882,11.544-15.246,21.465-15.246c6.056,0,11.56,2.37,15.636,6.235c2.874-9.255,11.512-15.977,21.708-15.977
		c5.391,0,10.343,1.883,14.256,5.033c5.423-8.865,15.198-14.775,26.336-14.775c8.849,0,16.821,3.734,22.439,9.71
		c7.177-14.418,22.066-24.323,39.26-24.323c4.092,0,8.037,0.552,11.788,1.607c10.115-12.843,25.8-21.091,43.417-21.091
		c20.588,0,38.546,11.268,48.044,27.992c7.956-8.248,19.143-13.379,31.515-13.379c16.204,0,30.363,8.8,37.945,21.887
		c4.644-2.565,9.969-4.027,15.636-4.027c13.249,0,24.631,7.924,29.681,19.289c5.602-5.894,13.509-9.547,22.277-9.547
		c10.326,0,19.484,5.082,25.069,12.892c4.725-4.936,11.382-8.021,18.77-8.021c11.561,0,21.335,7.534,24.712,17.958
		c0.422-0.065,0.844-0.097,1.266-0.097C767.632,155.516,772,159.884,772,165.258z"/>
	
		<linearGradient id="SVGID_6_" gradientUnits="userSpaceOnUse" x1="625" y1="147" x2="625" y2="166" gradientTransform="matrix(1 0 0 -1 0 600)">
		<stop  offset="0" style="stop-color:#FFFFFF"/>
		<stop  offset="1" style="stop-color:#E0E0E0"/>
	</linearGradient>
	<path style="opacity:0.2;fill:url(#SVGID_6_);enable-background:new    ;" d="M779,434L779,434c0,10.493-8.966,19-20.027,19
		H491.027C479.966,453,471,444.493,471,434H779z"/>
	
		<rect x="498.497" y="365.531" transform="matrix(0.7071 -0.7071 0.7071 0.7071 -107.3306 474.7266)" style="fill:#D1D1D1;" width="41.767" height="2.784"/>
	<path style="fill:#D2D2D2;" d="M522.086,259.726l-187.471-15.232c-2.202-0.179-2.625,3.053-0.451,3.447l187.922,34.061V259.726z"/>
	<path style="fill:#D9D9D9;" d="M620.322,41.945l-7.66,157.915h19.491l-7.66-157.915C624.351,39.021,620.464,39.021,620.322,41.945z
		"/>
	<path style="fill:#D2D2D2;" d="M392.004,357.145C346,359,320,357,287.714,357.145c0,28.799,23.346,52.145,52.145,52.145
		S392.004,385.943,392.004,357.145z"/>
	<path style="fill:#F6F6F6;" d="M392.004,357.145c0-28.799-23.346-52.145-52.145-52.145s-52.145,23.346-52.145,52.145
		c0,7.822,23.346,13.036,52.145,13.036S392.004,364.966,392.004,357.145z"/>
	<circle style="fill:#C2C2C2;" cx="339.859" cy="357.145" r="37.805"/>
	<circle style="fill:#CCCCCC;" cx="339.859" cy="357.145" r="9.125"/>
	<path style="fill:#E9E9E9;" d="M732.394,284.787c0-60.744-49.243-109.987-109.987-109.987S512.42,224.042,512.42,284.787
		c0,4.716,0.297,9.363,0.873,13.922C551,323,694,322,731.512,298.784C732.094,294.2,732.394,289.528,732.394,284.787z"/>
	<path style="fill:#D8D8D8;" d="M621.283,251.151c-7.406-1.45-49.48-9.524-68.488-9.524l-13.922,30.629l9.746,9.746
		c0,0,5.569-6.961,26.453-6.961s47.336,5.569,47.336,5.569v-28.093C622.407,251.851,621.936,251.279,621.283,251.151z"/>
	<path style="fill:#D8D8D8;" d="M623.531,251.151c7.406-1.45,49.48-9.524,68.488-9.524l13.922,30.629l-9.746,9.746
		c0,0-5.569-6.961-26.453-6.961s-47.336,5.569-47.336,5.569v-28.093C622.407,251.851,622.878,251.279,623.531,251.151z"/>
	<path style="fill:#EAEAEA;" d="M707.762,271.429L693.84,240.8c-0.324-0.714-1.036-1.172-1.82-1.172
		c-19.083,0-60.72,7.964-68.873,9.561h-0.001c-0.261,0.051-0.504,0.141-0.738,0.248c-0.234-0.106-0.478-0.196-0.738-0.248h-0.001
		c-8.154-1.597-49.797-9.561-68.873-9.561c-0.784,0-1.496,0.458-1.82,1.172l-13.923,30.629c-0.346,0.759-0.184,1.652,0.406,2.242
		l9.746,9.746c0.376,0.376,0.885,0.586,1.414,0.586c0.037,0,0.073-0.001,0.11-0.003c0.568-0.032,1.096-0.303,1.451-0.748
		c0.05-0.062,5.511-6.211,24.891-6.211c20.429,0,46.662,5.471,46.925,5.526c0.062,0.013,0.124,0.011,0.186,0.018
		c0.076,0.009,0.15,0.022,0.226,0.022c0.077,0,0.153-0.013,0.229-0.022c0.061-0.007,0.122-0.005,0.182-0.018
		c0.263-0.055,26.484-5.526,46.924-5.526c19.358,0,24.858,6.173,24.892,6.211c0.355,0.444,0.883,0.716,1.451,0.748
		c0.037,0.002,0.073,0.003,0.11,0.003c0.529,0,1.038-0.21,1.414-0.586l9.745-9.746C707.945,273.081,708.107,272.188,707.762,271.429
		z M620.407,278.173c-5.759-1.111-20.929-3.836-35.665-4.793l5.583-25.683c13.359,2.113,25.541,4.435,30.082,5.32V278.173z
		 M554.077,243.639c2.058,0.036,4.361,0.159,6.823,0.345l-13.055,34.418l-6.578-6.579L554.077,243.639z M552.67,276.96
		l12.373-32.619c6.596,0.636,14.035,1.634,21.323,2.742l-5.67,26.082c-1.905-0.079-3.789-0.124-5.626-0.124
		C563.926,273.041,556.904,275.01,552.67,276.96z M624.407,253.018c4.541-0.885,16.722-3.207,30.082-5.321l5.583,25.683
		c-14.736,0.956-29.906,3.682-35.665,4.793L624.407,253.018L624.407,253.018z M664.118,273.165l-5.67-26.083
		c7.288-1.108,14.727-2.106,21.323-2.741l12.374,32.619c-4.235-1.95-11.257-3.919-22.401-3.919
		C667.906,273.041,666.023,273.086,664.118,273.165z M696.969,278.401l-13.055-34.417c2.462-0.186,4.764-0.309,6.823-0.345
		l12.81,28.184L696.969,278.401z"/>
	
		<linearGradient id="SVGID_7_" gradientUnits="userSpaceOnUse" x1="204.947" y1="350.5" x2="204.947" y2="404.8" gradientTransform="matrix(1 0 0 -1 0 600)">
		<stop  offset="0" style="stop-color:#FFFFFF"/>
		<stop  offset="1" style="stop-color:#EEEEEE"/>
	</linearGradient>
	<path style="fill:url(#SVGID_7_);" d="M375.147,243.226c0,3.465-2.809,6.274-6.26,6.274H41.007c-3.451,0-6.26-2.809-6.26-6.274
		c0-3.451,2.809-6.26,6.26-6.26c1.789,0,3.409,0.755,4.541,1.97c1.481-6.511,7.308-11.36,14.253-11.36
		c4.974,0,9.376,2.473,12.017,6.274c2.641-3.801,7.028-6.274,12.003-6.274c2.11,0,4.122,0.447,5.925,1.258
		c3.102-6.903,10.047-11.71,18.095-11.71c4.877,0,9.334,1.775,12.799,4.695c3.815-4.164,9.292-6.777,15.384-6.777
		c5.016,0,9.614,1.761,13.219,4.709c4.611-14.253,17.983-24.551,33.773-24.551c14.644,0,27.206,8.859,32.641,21.505
		c5.128-5.519,12.464-8.971,20.61-8.971c10.913,0,20.387,6.204,25.068,15.287c4.667-9.083,14.141-15.287,25.054-15.287
		c11.304,0,21.058,6.651,25.543,16.251c2.417-1.048,5.072-1.635,7.867-1.635c8.314,0,15.426,5.1,18.389,12.366
		c2.92-2.515,6.707-4.01,10.857-4.01c6.4,0,11.947,3.591,14.756,8.873c1.132-1.579,2.976-2.613,5.086-2.613
		C372.338,236.966,375.147,239.775,375.147,243.226z"/>
	
		<linearGradient id="SVGID_8_" gradientUnits="userSpaceOnUse" x1="472.161" y1="108.252" x2="472.161" y2="127.252" gradientTransform="matrix(1 0 0 -1 0 600)">
		<stop  offset="0" style="stop-color:#FFFFFF"/>
		<stop  offset="1" style="stop-color:#E0E0E0"/>
	</linearGradient>
	<path style="opacity:0.2;fill:url(#SVGID_8_);enable-background:new    ;" d="M683.161,472.748L683.161,472.748
		c0,10.493-8.966,19-20.027,19H281.188c-11.061,0-20.027-8.507-20.027-19H683.161z"/>
	<rect x="617.377" y="390.097" style="fill:#D1D1D1;" width="5.569" height="61.767"/>
	<polygon style="fill:#D1D1D1;" points="620.301,420.334 618.332,417.744 647.866,378.894 649.835,381.484 	"/>
	<polygon style="fill:#D1D1D1;" points="621.99,417.744 620.022,420.334 590.488,381.484 592.456,378.894 	"/>
	<path style="fill:#D1D1D1;" d="M609.808,472.748h-4.353c-1.105,0-2-0.895-2-2v-25.237c0-1.105,0.895-2,2-2h4.353
		c1.105,0,2,0.895,2,2v25.237C611.808,471.853,610.913,472.748,609.808,472.748z"/>
	<path style="fill:#D1D1D1;" d="M634.868,472.748h-4.354c-1.105,0-2-0.895-2-2v-25.237c0-1.105,0.895-2,2-2h4.354
		c1.105,0,2,0.895,2,2v25.237C636.868,471.853,635.973,472.748,634.868,472.748z"/>
	<polygon style="fill:#EAEAEA;" points="628.515,450.472 620.161,447.688 611.808,450.472 611.808,464.395 620.161,461.61 
		628.515,464.395 	"/>
	<path style="fill:#E6E6E6;" d="M521.233,260.226l-187.471-15.232c-2.202-0.179-2.625,3.053-0.451,3.447l187.923,34.061v-22.276
		H521.233z"/>
	<path style="fill:#E0E0E0;" d="M391.15,357.645c-46.004,1.855-72.004-0.145-104.289,0c0,28.799,23.346,52.145,52.145,52.145
		S391.15,386.443,391.15,357.645z"/>
	<path style="fill:#F6F6F6;" d="M391.15,357.645c0-28.799-23.346-52.145-52.145-52.145s-52.145,23.346-52.145,52.145
		c0,7.822,23.346,13.036,52.145,13.036S391.15,365.466,391.15,357.645z"/>
	<circle style="fill:#D6D6D6;" cx="339.006" cy="357.645" r="37.805"/>
	<circle style="fill:#CCCCCC;" cx="339.006" cy="357.645" r="9.125"/>
	<g>
		<rect x="351.372" y="421.507" style="fill:#78909C;" width="40.378" height="5.814"/>
		<polygon style="fill:#90A4AE;" points="513.852,366.64 520.959,366.64 488.097,427.746 480.991,427.746 		"/>
		<path style="fill:#B71C1C;" d="M462.544,360.498l4.104,18.611l-30.598,6.748l-4.104-18.611c-0.362-1.64,0.5-3.296,2.042-3.953
			c2.04-0.873,5.718-2.058,12.352-3.521c6.634-1.463,10.469-1.935,12.688-2.001C460.704,357.719,462.182,358.858,462.544,360.498z"
			/>
		<polygon style="fill:#90A4AE;" points="576.681,368.076 359.878,415.887 355.788,427.765 351.372,428.739 342.644,419.687 
			308.554,427.203 307.421,422.063 312.499,415.087 574.316,357.348 		"/>
		<path style="fill:#ECEFF1;" d="M574.942,360.189l-216.134,47.645c-0.784,0.173-1.559-0.322-1.732-1.106s0.323-1.56,1.106-1.733
			l216.134-47.645L574.942,360.189z"/>
		<polygon style="fill:#424242;" points="312.499,415.089 574.316,357.35 573.898,355.458 312.081,413.196 307.442,422.158 		"/>
		<g>
			<path style="fill:#3949AB;" d="M328.542,410.273l-21.028,4.637c-2.991,0.66-5.951-1.23-6.61-4.222l-2.201-9.304
				c-0.66-2.991,1.23-5.951,4.222-6.61l21.028-4.637c2.991-0.66,5.951,1.23,6.61,4.222l2.201,9.304
				C333.424,406.654,331.534,409.613,328.542,410.273z"/>
			<path style="fill:#1A237E;" d="M326.402,401.814l-0.817,1.693c-0.344,0.714-0.997,1.23-1.771,1.401l-14.267,3.146
				c-0.774,0.171-1.584-0.023-2.196-0.526l-1.453-1.193l-0.631,0.139l0.76,3.448c0.192,0.871,1.054,1.422,1.925,1.229l18.611-4.104
				c0.871-0.192,1.421-1.054,1.229-1.925l-0.76-3.448L326.402,401.814z"/>
			<path style="fill:#546E7A;" d="M324.63,394.436L324.63,394.436c-0.723,0.159-1.439-0.297-1.598-1.021l-0.77-3.491
				c-0.159-0.723,0.297-1.439,1.021-1.598l0,0c0.723-0.159,1.439,0.297,1.598,1.021l0.77,3.491
				C325.81,393.561,325.354,394.277,324.63,394.436z"/>
		</g>
		<g>
			<path style="fill:#43A047;" d="M412.889,390.965l-29.496,6.505c-1.496,0.33-2.975-0.615-3.305-2.111l-2.075-9.41
				c-0.33-1.496,0.615-2.975,2.111-3.305l29.496-6.505c1.496-0.33,2.975,0.615,3.305,2.111l2.075,9.41
				C415.33,389.155,414.385,390.635,412.889,390.965z"/>
			
				<rect x="380.841" y="384.142" transform="matrix(0.9765 -0.2154 0.2154 0.9765 -74.7345 92.3284)" style="fill:#2E7D32;" width="10.774" height="9.795"/>
			<path style="fill:#455A64;" d="M383.906,393.344l-7.174,1.582c-0.66,0.146-1.314-0.272-1.459-0.932l0,0
				c-0.146-0.66,0.272-1.314,0.932-1.459l7.174-1.582c0.66-0.146,1.314,0.272,1.459,0.932l0,0
				C384.984,392.545,384.567,393.199,383.906,393.344z"/>
			<path style="fill:#455A64;" d="M382.852,388.562l-7.174,1.582c-0.66,0.146-1.314-0.272-1.459-0.932l0,0
				c-0.146-0.66,0.272-1.314,0.932-1.459l7.174-1.582c0.66-0.146,1.314,0.272,1.459,0.932l0,0
				C383.929,387.763,383.512,388.416,382.852,388.562z"/>
		</g>
		
			<rect x="434.362" y="375.164" transform="matrix(0.9765 -0.2154 0.2154 0.9765 -70.5261 105.776)" style="fill:#D32F2F;" width="31.332" height="2.584"/>
		
			<rect x="432.275" y="365.701" transform="matrix(0.9765 -0.2154 0.2154 0.9765 -68.5368 105.1042)" style="fill:#D32F2F;" width="31.332" height="2.584"/>
		
			<rect x="443.406" y="372.58" transform="matrix(0.9765 -0.2154 0.2154 0.9765 -70.5262 105.7759)" style="fill:#9B1616;" width="13.244" height="7.753"/>
		
			<rect x="444.698" y="375.164" transform="matrix(0.9765 -0.2154 0.2154 0.9765 -70.5261 105.7759)" style="fill:#E0E0E0;" width="10.66" height="2.584"/>
		
			<rect x="483.105" y="367.063" transform="matrix(0.9765 -0.2154 0.2154 0.9765 -67.7387 116.7653)" style="fill:#FFB300;" width="37.47" height="4.199"/>
		<path style="fill:#FFCA28;" d="M519.893,364.06l-36.591,8.069l-2.504-11.356c-0.499-2.265,0.932-4.506,3.196-5.005l28.39-6.261
			c2.265-0.499,4.506,0.932,5.005,3.196L519.893,364.06z"/>
		
			<rect x="487.578" y="352.526" transform="matrix(0.9765 -0.2154 0.2154 0.9765 -64.9204 115.8137)" style="fill:#FFB300;" width="22.611" height="6.46"/>
		
			<rect x="490.553" y="354.457" transform="matrix(0.9765 -0.2154 0.2154 0.9765 -64.9867 115.8358)" style="fill:#FFECB3;" width="16.797" height="3.23"/>
		<path style="fill:#B0BEC5;" d="M564.52,453.369c0,1.851-0.159,3.674-0.464,5.435h-177.15v-37.297h145.751
			C550.252,421.507,564.52,435.774,564.52,453.369z"/>
		<path style="fill:#78909C;" d="M446.665,453.369c0,1.802-0.194,3.563-0.555,5.262h-48.75c-0.36-1.698-0.554-3.459-0.554-5.262
			c0-13.768,11.161-24.93,24.93-24.93C435.504,428.44,446.665,439.601,446.665,453.369z"/>
		<polygon style="fill:#B0BEC5;" points="379.772,448.467 386.905,448.467 386.905,439.422 373.015,439.422 		"/>
		<rect x="547.493" y="443.623" style="fill:#B0BEC5;" width="31.32" height="15.182"/>
		<circle style="fill:#424242;" cx="421.736" cy="453.367" r="19.381"/>
		<circle style="fill:#BDBDBD;" cx="421.736" cy="453.367" r="10.983"/>
		<path style="fill:#B0BEC5;" d="M564.52,453.369c0,1.851-0.159,3.674-0.464,5.435H501.26c-0.305-1.761-0.464-3.584-0.464-5.435
			c0-17.595,14.267-31.862,31.862-31.862C550.252,421.507,564.52,435.774,564.52,453.369z"/>
		<path style="fill:#78909C;" d="M557.587,453.369c0,1.802-0.194,3.563-0.555,5.262h-48.75c-0.36-1.698-0.554-3.459-0.554-5.262
			c0-13.768,11.161-24.93,24.93-24.93C546.426,428.44,557.587,439.601,557.587,453.369z"/>
		<circle style="fill:#424242;" cx="532.658" cy="453.367" r="19.381"/>
		<circle style="fill:#BDBDBD;" cx="532.658" cy="453.367" r="10.983"/>
	</g>
	<g>
		<path style="fill:#FFCCBC;" d="M293.756,375.603c0.468-4.44-2.82-6.809-6.298-6.809s-6.298,3.048-6.298,6.809
			c0,1.56,0.485,2.997,1.301,4.145c0.54,0.76,0.315,3.141,0.315,3.141s3.601-0.477,4.682-0.477
			C290.936,382.412,293.252,380.376,293.756,375.603z"/>
		<path style="fill:#424242;" d="M293.756,375.603c0.58-4.499-2.823-6.956-6.298-6.809c-3.884,0.164-6.298,3.048-6.298,6.809
			c0,1.56,0.485,2.997,1.301,4.145c1.082,0.186,3.285-0.833,4.367-1.678c0,0-0.944-3.79,1.617-4.064
			C290.364,373.802,291.185,376.173,293.756,375.603z"/>
		<path style="fill:#424242;" d="M273.188,389.45c0,0-0.692,8.695,0,10.276s2.964,3.136,2.964,3.136S277.535,394.885,273.188,389.45
			z"/>
		<path style="fill:#FFCCBC;" d="M307.574,389.055c0,0,5.138,1.581,5.632,1.581l6.311-1.65c2.866,0.988,2.935,2.603,1.639,3.597
			c-2.296,1.76-5.418,3.226-7.456,3.574c-2.195,0.375-5.615,0-8.893-0.481C301.686,395.217,307.574,389.055,307.574,389.055z"/>
		<path style="fill:#EEEEEE;" d="M319.517,388.986c0,0,3.599-3.301,6.967-2.105c1.601,0.568,2.454,1.326,2.909,1.965
			c0.324,0.455-0.088,1.065-0.632,0.94c-1.075-0.246-2.65-0.447-3.574,0.175c-1.503,1.011-1.186,1.348-4.031,2.622
			C319.033,390.212,319.517,388.986,319.517,388.986z"/>
		<path style="fill:#FFCCBC;" d="M281.721,442.921c0,0-1.572,5.422-0.048,12.318c1.225,5.542,2.76,7.796,2.76,7.796l3.646-0.24
			c0,0,0.697-11.514,0.037-15.36c-0.503-2.93,0.717-6.028,0.717-6.028C285.35,439.525,281.721,442.921,281.721,442.921z"/>
		<path style="fill:#FFCCBC;" d="M289.938,439.713c0,0,0.615,4.241-0.005,7.056c-0.652,2.96-0.97,11.21,0.082,14.732
			c0,0,2.376,1.445,4.811,0.793c0,0,1.711-8.091,1.711-12.657s2.921-11.424,2.921-11.424L289.938,439.713z"/>
		<path style="fill:#424242;" d="M283.378,462.294l5.601-0.553l0.46,5.943l0.78,5.065h-5.33c-0.537,0-0.985-0.404-1.039-0.938
			c-0.102-1.02-0.152-2.675,0.362-3.958C284.24,466.731,283.378,462.294,283.378,462.294z"/>
		<path style="fill:#212121;" d="M288.833,461.3c0,0,3.915,0.315,6.654,0.025c0,0-0.04,5.697-0.7,7.167
			c2.501,0.474,4.308,1.996,4.766,3.106c0.227,0.548-0.178,1.15-0.771,1.15h-4.755h-0.876h-4.318c0,0-0.282-2.743,0.411-5.011
			C289.244,467.737,288.357,463.205,288.833,461.3z"/>
		<path style="fill:#424242;" d="M278.933,423.146c0,0,1.566,7.828,1.696,13.568s1.092,6.208,1.092,6.208s5.41-0.747,7.112-1.513
			c1.858-0.837,0.8-21.132,0.8-21.132L278.933,423.146z"/>
		<path style="fill:#616161;" d="M301.705,418.84c0,0,0.247,9.496-1.417,22.7c-5.907,0.473-11.455-0.133-11.455-0.133l-1.152-24.47
			L301.705,418.84z"/>
		<path style="fill:#616161;" d="M298.823,383.41l8.751,5.645c0,0-2.075,6.62-2.767,6.62l-2.371-0.198l-5.135,3.313
			C297.301,398.791,294.277,386.473,298.823,383.41z"/>
		<path style="fill:#FFA726;" d="M286.594,381.315c-2.279,0.227-4.762,1.367-8.319,3.64s-5.087,4.496-5.087,4.496
			s2.569,9.486,3.162,14.92c0.593,5.435,0.494,17.983,1.976,19.762s8.992-0.395,12.944-0.593s11.66-0.692,14.031-0.692
			c0,0-0.822-13.537-1.514-15.415c-0.692-1.877-1.352-11.956-1.352-11.956s-4.357,0.831-5.051-4.596
			c-0.54-4.219,0.352-6.187,1.438-7.472C296.227,382.011,289.914,380.984,286.594,381.315z"/>
		<g>
			<path style="fill:#E0E0E0;" d="M277.087,416.93c4.631-0.236,8.763-1.102,12.479-1.886c1.775-0.367,3.452-0.721,4.991-0.957
				c3.563-0.555,7.501-0.437,10.073-0.263c-0.062-0.721-0.132-1.428-0.201-2.101c-2.669-0.173-6.565-0.257-10.191,0.305
				c-1.594,0.25-3.3,0.603-5.102,0.984c-3.64,0.763-7.688,1.615-12.174,1.844L277.087,416.93z"/>
		</g>
		<g>
			<path style="fill:#E0E0E0;" d="M302.835,400.555c-2.426-0.097-5.47-0.076-8.277,0.361c-1.539,0.236-3.217,0.589-4.991,0.957
				c-3.931,0.832-8.326,1.747-13.283,1.92c-0.083-0.645-0.187-1.345-0.312-2.066c0.86-0.028,1.705-0.076,2.53-0.146
				c-1.983-5.602-2.926-10.96-3.362-14.247c0.527-0.471,1.158-0.998,1.913-1.546c0.347,3.002,1.282,9.227,3.577,15.571
				c3.057-0.374,5.886-0.971,8.506-1.518c1.414-0.298,2.766-0.582,4.056-0.804c-1.657-9.706-0.589-14.933,0.229-17.248
				c0.707,0.132,1.407,0.277,2.059,0.444c-0.672,1.733-1.92,6.607-0.236,16.486c2.579-0.312,5.22-0.34,7.411-0.263
				C302.703,399.106,302.765,399.82,302.835,400.555z"/>
			<path style="fill:#EEEEEE;" d="M295.833,381.47c0,0,0,0.007-0.007,0.007l-0.714-0.492L295.833,381.47z"/>
		</g>
	</g>
	<path style="fill:#F5F5F5;" d="M622.407,305.67c-60.744,0-109.115-6.962-109.115-6.962c6.843,54.171,53.086,96.065,109.115,96.065
		c56.003,0,102.229-41.855,109.105-95.99C731.512,298.784,683.151,305.67,622.407,305.67z"/>
	<path style="fill:#FAFAFA;" d="M662.782,333.515c0-22.299-18.077-40.375-40.375-40.375c-22.299,0-40.375,18.077-40.375,40.375
		s18.077,40.375,40.375,40.375c19.335,0,35.495-13.591,39.45-31.74C662.463,339.368,662.782,336.479,662.782,333.515z"/>
</g>
<g>
	<g>
		<g>
			<defs>
				<rect id="SVGID_9_" x="882.67" y="362.966" width="299.442" height="100.132"/>
			</defs>
			<clipPath id="SVGID_10_">
				<use xlink:href="#SVGID_9_"  style="overflow:visible;"/>
			</clipPath>
			<g style="display:none;clip-path:url(#SVGID_10_);">
				<path style="display:inline;fill:#F5F5F5;" d="M820.732,450.353h-45.514c-0.502,0-0.91,0.408-0.91,0.91v10.923
					c0,0.503,0.408,0.91,0.91,0.91h45.514c0.502,0,0.91-0.408,0.91-0.91v-10.923C821.642,450.761,821.234,450.353,820.732,450.353z"
					/>
				<path style="display:inline;fill:#F5F5F5;" d="M845.309,435.789h-45.514c-0.502,0-0.91,0.408-0.91,0.91v10.923
					c0,0.502,0.408,0.91,0.91,0.91h45.514c0.502,0,0.91-0.408,0.91-0.91v-10.923C846.22,436.197,845.812,435.789,845.309,435.789z"
					/>
				<path style="display:inline;fill:#F5F5F5;" d="M771.577,450.353h-18.206c-0.502,0-0.91,0.408-0.91,0.91v10.923
					c0,0.503,0.408,0.91,0.91,0.91h18.206c0.503,0,0.91-0.408,0.91-0.91v-10.923C772.487,450.761,772.079,450.353,771.577,450.353z"
					/>
				<path style="display:inline;fill:#F5F5F5;" d="M796.154,435.789h-42.783c-0.502,0-0.91,0.408-0.91,0.91v10.923
					c0,0.502,0.408,0.91,0.91,0.91h42.783c0.503,0,0.91-0.408,0.91-0.91v-10.923C797.065,436.197,796.657,435.789,796.154,435.789z"
					/>
				<path style="display:inline;fill:#F5F5F5;" d="M820.732,421.224h-45.514c-0.502,0-0.91,0.408-0.91,0.91v10.923
					c0,0.502,0.408,0.91,0.91,0.91h45.514c0.502,0,0.91-0.408,0.91-0.91v-10.923C821.642,421.632,821.234,421.224,820.732,421.224z"
					/>
				<path style="display:inline;fill:#F5F5F5;" d="M845.309,406.66h-45.514c-0.502,0-0.91,0.408-0.91,0.91v10.923
					c0,0.502,0.408,0.91,0.91,0.91h45.514c0.502,0,0.91-0.408,0.91-0.91V407.57C846.22,407.068,845.812,406.66,845.309,406.66z"/>
				<path style="display:inline;fill:#F5F5F5;" d="M771.577,421.224h-18.206c-0.502,0-0.91,0.408-0.91,0.91v10.923
					c0,0.502,0.408,0.91,0.91,0.91h18.206c0.503,0,0.91-0.408,0.91-0.91v-10.923C772.487,421.632,772.079,421.224,771.577,421.224z"
					/>
				<path style="display:inline;fill:#F5F5F5;" d="M796.154,406.66h-42.783c-0.502,0-0.91,0.408-0.91,0.91v10.923
					c0,0.502,0.408,0.91,0.91,0.91h42.783c0.503,0,0.91-0.408,0.91-0.91V407.57C797.065,407.068,796.657,406.66,796.154,406.66z"/>
				<path style="display:inline;fill:#F5F5F5;" d="M820.732,392.095h-45.514c-0.502,0-0.91,0.408-0.91,0.91v10.923
					c0,0.502,0.408,0.91,0.91,0.91h45.514c0.502,0,0.91-0.408,0.91-0.91v-10.923C821.642,392.503,821.234,392.095,820.732,392.095z"
					/>
				<path style="display:inline;fill:#F5F5F5;" d="M845.309,377.531h-45.514c-0.502,0-0.91,0.408-0.91,0.91v10.923
					c0,0.502,0.408,0.91,0.91,0.91h45.514c0.502,0,0.91-0.408,0.91-0.91v-10.923C846.22,377.939,845.812,377.531,845.309,377.531z"
					/>
				<path style="display:inline;fill:#F5F5F5;" d="M771.577,392.095h-18.206c-0.502,0-0.91,0.408-0.91,0.91v10.923
					c0,0.502,0.408,0.91,0.91,0.91h18.206c0.503,0,0.91-0.408,0.91-0.91v-10.923C772.487,392.503,772.079,392.095,771.577,392.095z"
					/>
				<path style="display:inline;fill:#F5F5F5;" d="M796.154,377.531h-42.783c-0.502,0-0.91,0.408-0.91,0.91v10.923
					c0,0.502,0.408,0.91,0.91,0.91h42.783c0.503,0,0.91-0.408,0.91-0.91v-10.923C797.065,377.939,796.657,377.531,796.154,377.531z"
					/>
				<path style="display:inline;fill:#F5F5F5;" d="M820.732,362.966h-45.514c-0.502,0-0.91,0.408-0.91,0.91V374.8
					c0,0.502,0.408,0.91,0.91,0.91h45.514c0.502,0,0.91-0.408,0.91-0.91v-10.923C821.642,363.374,821.234,362.966,820.732,362.966z"
					/>
				<path style="display:inline;fill:#F5F5F5;" d="M845.309,348.402h-45.514c-0.502,0-0.91,0.408-0.91,0.91v10.923
					c0,0.503,0.408,0.91,0.91,0.91h45.514c0.502,0,0.91-0.408,0.91-0.91v-10.923C846.22,348.81,845.812,348.402,845.309,348.402z"/>
				<path style="display:inline;fill:#F5F5F5;" d="M771.577,362.966h-18.206c-0.502,0-0.91,0.408-0.91,0.91V374.8
					c0,0.502,0.408,0.91,0.91,0.91h18.206c0.503,0,0.91-0.408,0.91-0.91v-10.923C772.487,363.374,772.079,362.966,771.577,362.966z"
					/>
				<path style="display:inline;fill:#F5F5F5;" d="M796.154,348.402h-42.783c-0.502,0-0.91,0.408-0.91,0.91v10.923
					c0,0.503,0.408,0.91,0.91,0.91h42.783c0.503,0,0.91-0.408,0.91-0.91v-10.923C797.065,348.81,796.657,348.402,796.154,348.402z"
					/>
				<path style="display:inline;fill:#F5F5F5;" d="M820.732,333.838h-45.514c-0.502,0-0.91,0.408-0.91,0.91v10.923
					c0,0.502,0.408,0.91,0.91,0.91h45.514c0.502,0,0.91-0.408,0.91-0.91v-10.923C821.642,334.245,821.234,333.838,820.732,333.838z"
					/>
				<path style="display:inline;fill:#F5F5F5;" d="M845.309,319.273h-45.514c-0.502,0-0.91,0.408-0.91,0.91v10.923
					c0,0.502,0.408,0.91,0.91,0.91h45.514c0.502,0,0.91-0.408,0.91-0.91v-10.923C846.22,319.681,845.812,319.273,845.309,319.273z"
					/>
				<path style="display:inline;fill:#F5F5F5;" d="M771.577,333.838h-18.206c-0.502,0-0.91,0.408-0.91,0.91v10.923
					c0,0.502,0.408,0.91,0.91,0.91h18.206c0.503,0,0.91-0.408,0.91-0.91v-10.923C772.487,334.245,772.079,333.838,771.577,333.838z"
					/>
				<path style="display:inline;fill:#F5F5F5;" d="M796.154,319.273h-42.783c-0.502,0-0.91,0.408-0.91,0.91v10.923
					c0,0.502,0.408,0.91,0.91,0.91h42.783c0.503,0,0.91-0.408,0.91-0.91v-10.923C797.065,319.681,796.657,319.273,796.154,319.273z"
					/>
				<path style="display:inline;fill:#F5F5F5;" d="M820.732,304.709h-45.514c-0.502,0-0.91,0.408-0.91,0.91v10.923
					c0,0.502,0.408,0.91,0.91,0.91h45.514c0.502,0,0.91-0.408,0.91-0.91v-10.923C821.642,305.116,821.234,304.709,820.732,304.709z"
					/>
				<path style="display:inline;fill:#F5F5F5;" d="M845.309,290.144h-45.514c-0.502,0-0.91,0.408-0.91,0.91v10.923
					c0,0.502,0.408,0.91,0.91,0.91h45.514c0.502,0,0.91-0.408,0.91-0.91v-10.923C846.22,290.552,845.812,290.144,845.309,290.144z"
					/>
				<path style="display:inline;fill:#F5F5F5;" d="M771.577,304.709h-18.206c-0.502,0-0.91,0.408-0.91,0.91v10.923
					c0,0.502,0.408,0.91,0.91,0.91h18.206c0.503,0,0.91-0.408,0.91-0.91v-10.923C772.487,305.116,772.079,304.709,771.577,304.709z"
					/>
				<path style="display:inline;fill:#F5F5F5;" d="M796.154,290.144h-42.783c-0.502,0-0.91,0.408-0.91,0.91v10.923
					c0,0.502,0.408,0.91,0.91,0.91h42.783c0.503,0,0.91-0.408,0.91-0.91v-10.923C797.065,290.552,796.657,290.144,796.154,290.144z"
					/>
				<path style="display:inline;fill:#F5F5F5;" d="M820.732,275.58h-45.514c-0.502,0-0.91,0.408-0.91,0.91v10.923
					c0,0.502,0.408,0.91,0.91,0.91h45.514c0.502,0,0.91-0.408,0.91-0.91V276.49C821.642,275.988,821.234,275.58,820.732,275.58z"/>
				<path style="display:inline;fill:#F5F5F5;" d="M845.309,261.015h-45.514c-0.502,0-0.91,0.408-0.91,0.91v10.923
					c0,0.502,0.408,0.91,0.91,0.91h45.514c0.502,0,0.91-0.408,0.91-0.91v-10.923C846.22,261.423,845.812,261.015,845.309,261.015z"
					/>
				<path style="display:inline;fill:#F5F5F5;" d="M771.577,275.58h-18.206c-0.502,0-0.91,0.408-0.91,0.91v10.923
					c0,0.502,0.408,0.91,0.91,0.91h18.206c0.503,0,0.91-0.408,0.91-0.91V276.49C772.487,275.988,772.079,275.58,771.577,275.58z"/>
				<path style="display:inline;fill:#F5F5F5;" d="M796.154,261.015h-42.783c-0.502,0-0.91,0.408-0.91,0.91v10.923
					c0,0.502,0.408,0.91,0.91,0.91h42.783c0.503,0,0.91-0.408,0.91-0.91v-10.923C797.065,261.423,796.657,261.015,796.154,261.015z"
					/>
				<path style="display:inline;fill:#F5F5F5;" d="M820.732,246.451h-45.514c-0.502,0-0.91,0.408-0.91,0.91v10.923
					c0,0.502,0.408,0.91,0.91,0.91h45.514c0.502,0,0.91-0.408,0.91-0.91v-10.923C821.642,246.859,821.234,246.451,820.732,246.451z"
					/>
				<path style="display:inline;fill:#F5F5F5;" d="M845.309,231.886h-45.514c-0.502,0-0.91,0.408-0.91,0.91v10.923
					c0,0.502,0.408,0.91,0.91,0.91h45.514c0.502,0,0.91-0.408,0.91-0.91v-10.923C846.22,232.294,845.812,231.886,845.309,231.886z"
					/>
				<path style="display:inline;fill:#F5F5F5;" d="M771.577,246.451h-18.206c-0.502,0-0.91,0.408-0.91,0.91v10.923
					c0,0.502,0.408,0.91,0.91,0.91h18.206c0.503,0,0.91-0.408,0.91-0.91v-10.923C772.487,246.859,772.079,246.451,771.577,246.451z"
					/>
				<path style="display:inline;fill:#F5F5F5;" d="M796.154,231.886h-42.783c-0.502,0-0.91,0.408-0.91,0.91v10.923
					c0,0.502,0.408,0.91,0.91,0.91h42.783c0.503,0,0.91-0.408,0.91-0.91v-10.923C797.065,232.294,796.657,231.886,796.154,231.886z"
					/>
				<path style="display:inline;fill:#F5F5F5;" d="M820.732,217.322h-45.514c-0.502,0-0.91,0.408-0.91,0.91v10.923
					c0,0.502,0.408,0.91,0.91,0.91h45.514c0.502,0,0.91-0.408,0.91-0.91v-10.923C821.642,217.73,821.234,217.322,820.732,217.322z"
					/>
				<path style="display:inline;fill:#F5F5F5;" d="M845.309,202.757h-45.514c-0.502,0-0.91,0.408-0.91,0.91v10.923
					c0,0.502,0.408,0.91,0.91,0.91h45.514c0.502,0,0.91-0.408,0.91-0.91v-10.923C846.22,203.165,845.812,202.757,845.309,202.757z"
					/>
				<path style="display:inline;fill:#F5F5F5;" d="M771.577,217.322h-18.206c-0.502,0-0.91,0.408-0.91,0.91v10.923
					c0,0.502,0.408,0.91,0.91,0.91h18.206c0.503,0,0.91-0.408,0.91-0.91v-10.923C772.487,217.73,772.079,217.322,771.577,217.322z"
					/>
				<path style="display:inline;fill:#F5F5F5;" d="M796.154,202.757h-42.783c-0.502,0-0.91,0.408-0.91,0.91v10.923
					c0,0.502,0.408,0.91,0.91,0.91h42.783c0.503,0,0.91-0.408,0.91-0.91v-10.923C797.065,203.165,796.657,202.757,796.154,202.757z"
					/>
				<path style="display:inline;fill:#F5F5F5;" d="M820.732,188.193h-45.514c-0.502,0-0.91,0.408-0.91,0.91v10.923
					c0,0.502,0.408,0.91,0.91,0.91h45.514c0.502,0,0.91-0.408,0.91-0.91v-10.923C821.642,188.601,821.234,188.193,820.732,188.193z"
					/>
				<path style="display:inline;fill:#F5F5F5;" d="M845.309,173.629h-45.514c-0.502,0-0.91,0.408-0.91,0.91v10.923
					c0,0.502,0.408,0.91,0.91,0.91h45.514c0.502,0,0.91-0.408,0.91-0.91v-10.923C846.22,174.036,845.812,173.629,845.309,173.629z"
					/>
				<path style="display:inline;fill:#F5F5F5;" d="M771.577,188.193h-18.206c-0.502,0-0.91,0.408-0.91,0.91v10.923
					c0,0.502,0.408,0.91,0.91,0.91h18.206c0.503,0,0.91-0.408,0.91-0.91v-10.923C772.487,188.601,772.079,188.193,771.577,188.193z"
					/>
				<path style="display:inline;fill:#F5F5F5;" d="M796.154,173.629h-42.783c-0.502,0-0.91,0.408-0.91,0.91v10.923
					c0,0.502,0.408,0.91,0.91,0.91h42.783c0.503,0,0.91-0.408,0.91-0.91v-10.923C797.065,174.036,796.657,173.629,796.154,173.629z"
					/>
				<path style="display:inline;fill:#F5F5F5;" d="M820.732,159.064h-45.514c-0.502,0-0.91,0.408-0.91,0.91v10.923
					c0,0.502,0.408,0.91,0.91,0.91h45.514c0.502,0,0.91-0.408,0.91-0.91v-10.923C821.642,159.472,821.234,159.064,820.732,159.064z"
					/>
				<path style="display:inline;fill:#F5F5F5;" d="M845.309,144.5h-45.514c-0.502,0-0.91,0.408-0.91,0.91v10.923
					c0,0.502,0.408,0.91,0.91,0.91h45.514c0.502,0,0.91-0.408,0.91-0.91V145.41C846.22,144.907,845.812,144.5,845.309,144.5z"/>
				<path style="display:inline;fill:#F5F5F5;" d="M771.577,159.064h-18.206c-0.502,0-0.91,0.408-0.91,0.91v10.923
					c0,0.502,0.408,0.91,0.91,0.91h18.206c0.503,0,0.91-0.408,0.91-0.91v-10.923C772.487,159.472,772.079,159.064,771.577,159.064z"
					/>
				<path style="display:inline;fill:#F5F5F5;" d="M796.154,144.5h-42.783c-0.502,0-0.91,0.408-0.91,0.91v10.923
					c0,0.502,0.408,0.91,0.91,0.91h42.783c0.503,0,0.91-0.408,0.91-0.91V145.41C797.065,144.907,796.657,144.5,796.154,144.5z"/>
				<path style="display:inline;fill:#F5F5F5;" d="M820.732,129.935h-45.514c-0.502,0-0.91,0.408-0.91,0.91v10.923
					c0,0.502,0.408,0.91,0.91,0.91h45.514c0.502,0,0.91-0.408,0.91-0.91v-10.923C821.642,130.343,821.234,129.935,820.732,129.935z"
					/>
				<path style="display:inline;fill:#F5F5F5;" d="M845.309,115.371h-45.514c-0.502,0-0.91,0.408-0.91,0.91v10.923
					c0,0.502,0.408,0.91,0.91,0.91h45.514c0.502,0,0.91-0.408,0.91-0.91v-10.923C846.22,115.778,845.812,115.371,845.309,115.371z"
					/>
				<path style="display:inline;fill:#F5F5F5;" d="M771.577,129.935h-18.206c-0.502,0-0.91,0.408-0.91,0.91v10.923
					c0,0.502,0.408,0.91,0.91,0.91h18.206c0.503,0,0.91-0.408,0.91-0.91v-10.923C772.487,130.343,772.079,129.935,771.577,129.935z"
					/>
				<path style="display:inline;fill:#F5F5F5;" d="M796.154,115.371h-42.783c-0.502,0-0.91,0.408-0.91,0.91v10.923
					c0,0.502,0.408,0.91,0.91,0.91h42.783c0.503,0,0.91-0.408,0.91-0.91v-10.923C797.065,115.778,796.657,115.371,796.154,115.371z"
					/>
				<path style="display:inline;fill:#F5F5F5;" d="M820.732,100.806h-45.514c-0.502,0-0.91,0.408-0.91,0.91v10.923
					c0,0.502,0.408,0.91,0.91,0.91h45.514c0.502,0,0.91-0.408,0.91-0.91v-10.923C821.642,101.214,821.234,100.806,820.732,100.806z"
					/>
				<path style="display:inline;fill:#F5F5F5;" d="M771.577,100.806h-18.206c-0.502,0-0.91,0.408-0.91,0.91v10.923
					c0,0.502,0.408,0.91,0.91,0.91h18.206c0.503,0,0.91-0.408,0.91-0.91v-10.923C772.487,101.214,772.079,100.806,771.577,100.806z"
					/>
			</g>
		</g>
	</g>
	<g>
		<g>
			<g>
				<defs>
					<rect id="SVGID_11_" x="943.775" y="141.77" width="187.254" height="131.99"/>
				</defs>
				<clipPath id="SVGID_12_">
					<use xlink:href="#SVGID_11_"  style="overflow:visible;"/>
				</clipPath>
				<g style="clip-path:url(#SVGID_12_);">
					<polygon style="fill:#FAFAFA;" points="1087.036,332.373 813.278,84.639 788.12,81.623 1088.505,353.455 					"/>
				</g>
			</g>
		</g>
	</g>
</g>
</svg>
