<?xml version="1.0" encoding="iso-8859-1"?>
<!-- Generator: Adobe Illustrator 22.1.0, SVG Export Plug-In . SVG Version: 6.00 Build 0)  -->
<svg version="1.1" id="Layer_14" xmlns="http://www.w3.org/2000/svg" xmlns:xlink="http://www.w3.org/1999/xlink" x="0px" y="0px"
	 viewBox="0 0 800 600" style="enable-background:new 0 0 800 600;" xml:space="preserve">
<rect style="fill:#FFFFFF;" width="800" height="600"/>
<g>
	
		<radialGradient id="SVGID_1_" cx="857.5235" cy="-107.6019" r="358.2785" fx="721.6097" fy="23.6011" gradientTransform="matrix(1.0944 0 0 -0.7327 -541.1005 249.6614)" gradientUnits="userSpaceOnUse">
		<stop  offset="0.1734" style="stop-color:#B3B3B3"/>
		<stop  offset="0.3403" style="stop-color:#B9B9B9;stop-opacity:0.7981"/>
		<stop  offset="0.5572" style="stop-color:#C9C9C9;stop-opacity:0.5358"/>
		<stop  offset="0.8005" style="stop-color:#E4E4E4;stop-opacity:0.2414"/>
		<stop  offset="1" style="stop-color:#FFFFFF;stop-opacity:0"/>
	</radialGradient>
	<rect y="57" style="fill:url(#SVGID_1_);" width="800" height="543"/>
	<g>
		<g>
			
				<radialGradient id="SVGID_2_" cx="286" cy="226" r="159.2055" gradientTransform="matrix(1 0 0 -1 0 600)" gradientUnits="userSpaceOnUse">
				<stop  offset="0" style="stop-color:#424242"/>
				<stop  offset="0.4625" style="stop-color:#444444;stop-opacity:0.5375"/>
				<stop  offset="0.6291" style="stop-color:#4B4B4B;stop-opacity:0.3709"/>
				<stop  offset="0.7478" style="stop-color:#565656;stop-opacity:0.2522"/>
				<stop  offset="0.8438" style="stop-color:#676767;stop-opacity:0.1562"/>
				<stop  offset="0.9251" style="stop-color:#7D7D7D;stop-opacity:0.0749"/>
				<stop  offset="0.9967" style="stop-color:#989898;stop-opacity:0.0033"/>
				<stop  offset="1" style="stop-color:#999999;stop-opacity:0"/>
			</radialGradient>
			<path style="fill:url(#SVGID_2_);" d="M206,389c-5,16-4,34,2,50c13,35,44,59,81,67c20,4,39,4,59-1c31-8,57-24,78-47
				c-33,40-84,61-138,52c-30-5-55-20-75-43c-34-40-35-103,5-139c-43,24-51,83-32,125c24,53,82,83,139,80c-18,0-36,0-54-5
				c-17-5-31-12-46-22c-27-19-45-43-53-75c-8-33-5-66,16-96c20-28,50-43,83-41c-16-5-34-4-50,2c-35,13-59,44-67,81c-4,20-4,39,1,59
				c8,31,24,57,47,78c-40-33-61-84-52-138c5-30,20-55,43-75c40-34,103-35,139,5c-24-43-83-51-125-32c-53,24-83,82-80,139
				c0-18,0-36,5-54c5-17,12-31,22-46c19-27,43-45,75-53c33-8,66-5,96,16c28,20,43,50,41,83c5-16,4-34-2-50c-13-35-44-59-81-67
				c-20-4-39-4-59,1c-31,8-57,24-78,47c33-40,84-61,138-52c30,5,55,20,75,43c34,40,35,103-5,139c43-24,51-83,32-125
				c-24-53-82-83-139-80c18,0,36,0,54,5c17,5,31,12,46,22c27,19,45,43,53,75c8,33,5,66-16,96c-20,28-50,43-83,41c16,5,34,4,50-2
				c35-13,59-44,67-81c4-20,4-39-1-59c-8-31-24-57-47-78c40,33,61,84,52,138c-5,30-20,55-43,75c-40,34-103,35-139-5
				c24,43,83,51,125,32c53-24,83-82,80-139c0,18,0,36-5,54c-5,17-12,31-22,46c-19,27-43,45-75,53c-33,8-66,5-96-16
				C219,452,204,422,206,389L206,389z"/>
		</g>
	</g>
	<circle style="fill:#464646;" cx="286" cy="374" r="70"/>
	<g>
		<polygon style="fill:#EEEEEE;" points="498.583,269.881 369.816,203.77 427.497,145.536 524.192,242.521 		"/>
		<path style="fill:#C4CED3;" d="M477.378,281.502l-112.142-57.537c-3.204-1.644-4.37-5.652-2.519-8.66l7.098-11.535l128.767,66.111
			l-14.812,11.118C481.938,282.374,479.459,282.569,477.378,281.502z"/>
		<polyline style="fill:#FAFAFA;" points="448.839,164.689 396.478,217.458 498.583,269.881 504.273,263.802 		"/>
		<path style="fill:#CFD8DC;" d="M386.888,235.073l0.006,0.006l90.485,46.426c2.077,1.065,4.556,0.868,6.393-0.503l14.812-11.119
			l-102.11-52.425L386.888,235.073z"/>
		<path style="fill:#64B5F6;" d="M504.036,135.435l-2.979-11.236c-0.095-0.358-0.026-0.74,0.189-1.041l1.806-2.538
			c0.599-0.842,1.568-1.343,2.601-1.344l8.825-0.016c1.767-0.003,3.202,1.426,3.205,3.193l0.012,6.743l1.03,4.722l-7.997,5.157
			L504.036,135.435z"/>
		<path style="fill:none;stroke:#FFFFFF;stroke-width:2.7387;stroke-linecap:square;stroke-miterlimit:10;" d="M502.292,200.684
			c10.349-10.387,68.943-16.904,47.155-38.613c-21.789-21.709,21.093-18.681,1.172-38.528
			c-15.675-15.617-57.245,15.335-63.303,0.723c-13.408-32.345,55.474-71.462,107.072-5.006"/>
		<path style="fill:#1E88E5;" d="M569.626,322.353l8.72,11.169l6.228,7.445l16.767-5.623c0,0,11.169-8.72,12.403-13.693
			c0,0-7.083-6.658-13.84-4.391c-6.757,2.266-9.782-0.536-14.769-9.227C580.895,313.03,569.626,322.353,569.626,322.353z"/>
		<path style="fill:#3949AB;" d="M580.547,336.154l4.026,4.813l16.767-5.623c0,0,11.169-8.72,12.403-13.693
			c0,0-6.076-5.711-12.341-4.754c-0.499,0.076-1.959,0.43-3.819,2.298c-3.721,3.735-2.414,11.427-4.326,13.057
			C589.462,335.487,580.547,336.154,580.547,336.154z"/>
		<path style="fill:#64B5F6;" d="M417.95,291.562c0,0,2.958,11.614,12.995,19.967c1.725,1.436,4.27-0.274,3.603-2.417
			c-0.297-0.953-0.63-2.048-1.002-3.304c-1.288-4.348-2.539-9.92-1.298-11.165c0.443-0.444,1.581-0.035,2.199,0.261
			c1.202,0.574,2.708,1.034,3.444,0.297c1.191-1.192-0.358-3.191-1.293-4.907c-0.953-1.75-4.991-6.213-4.991-6.213l-7.468-6.2
			L417.95,291.562z"/>
		<path style="fill:#64B5F6;" d="M416.557,250.628c0.042-0.864,0.165-1.709,0.374-2.542l11.51-46.451
			c0,0,33.308-26.209,37.311-29.193c4.009-2.978,8.154-2.892,8.154-2.892s0.003,0.004,0.003,0.005l-0.003-0.01l29.905-5.26
			c0.87-0.153,1.491-0.928,1.451-1.811l-1.225-27.039l9.036,2.112l5.491-4.371l8.073,37.008c0.648,2.969-0.685,6.018-3.305,7.558
			l-24.203,14.235l25.678,16.625c1.219,0.694-3.201,20.008-3.201,20.008s-31.784,26.983-33.737,26.142
			c0.23,0.018-37.71-19.175-37.71-19.175l-12.146,21.38c-0.57,1.082-0.996,2.245-1.255,3.451l-5.151,23.672
			c-7.667-3.136-13.657,7.482-13.657,7.482C415.176,280.152,416.239,256.451,416.557,250.628z"/>
		<path style="fill:#1E88E5;" d="M504.769,151.595l-0.732-16.16c11.38,0.502,14.527-2.259,14.527-2.259l3.787,17.359
			C522.35,150.535,515.986,154.671,504.769,151.595z"/>
		<path style="fill:none;stroke:#FFFFFF;stroke-width:4.5645;stroke-linecap:round;stroke-miterlimit:10;" d="M458.745,173.423
			c0,0,10.214-10.912,27.437,6.248c15.937,15.878,18.044,27.787,18.044,27.787"/>
		<path style="fill:#64B5F6;" d="M476.773,177.635l48.034,30.968c1.219,0.694-3.201,20.008-3.201,20.008
			s-31.784,26.983-33.737,26.142C488.099,254.771,476.773,177.635,476.773,177.635z"/>
		<path style="fill:#1E88E5;" d="M435.096,268.044l-3.49,16.037c-7.667-3.136-13.657,7.482-13.657,7.482
			c-1.164-4.79-1.653-11.746-1.804-18.636C416.146,272.926,427.729,261.3,435.096,268.044z"/>
		<path style="fill:#64B5F6;" d="M531.519,212.437l49.328-9.768c1.068-0.178,2.154-0.215,3.231-0.111l42.504,4.112
			c0,0,10.578,8.059-0.586,19.264c0,0-17.906,2.922-39.245,2.053c-1.623-0.066-3.242,0.207-4.764,0.775L527.24,250.35l-0.059-32.312
			l-0.636-8.077L531.519,212.437z"/>
		<path style="fill:#1E88E5;" d="M569.125,204.99l11.721-2.321c1.068-0.178,2.154-0.215,3.231-0.111l12.378,1.197
			c0,0-1,12.047-1.265,16.528c-0.055,0.928-0.816,1.654-1.746,1.654c-2.544-0.002-5.172-0.05-7.854-0.157
			c-1.636-0.066-3.271,0.179-4.805,0.751l-5.609,2.092c-1.012,0.377-2.122-0.239-2.337-1.298L569.125,204.99z"/>
		<path style="fill:#64B5F6;" d="M543.368,286.59c2.227,1.301,4.138,3.093,5.577,5.234l20.68,30.528c0,0,13.664-3.753,15.508-14.321
			l-13.506-31.927c-0.674-1.627-1.584-3.141-2.724-4.488l-23.658-28.137l-20.231-15.839l-30.224,30.634L543.368,286.59z"/>
		<path style="fill:#1E88E5;" d="M547.035,278.69c-0.571,0.754-0.456,1.836,0.283,2.428c2.148,1.72,4.801,4.61,5.97,6.35
			l5.143,7.592c0.52,0.768,1.547,0.999,2.346,0.529l15.288-8.995l-4.436-10.487c-0.674-1.627-1.584-3.141-2.724-4.488l-8.69-10.335
			L547.035,278.69z"/>
		<path style="fill:#1E88E5;" d="M625.995,225.934l28.584-0.053l2.422-34.802l-6.214,0.011c-9.942,0.018-1.213,16.158-24.206,15.579
			C626.581,206.67,622.235,208.542,625.995,225.934z"/>
		<path style="fill:#3949AB;" d="M647.122,225.895l7.457-0.014l2.422-34.802l-6.214,0.011c-4.036,0.007-4.995,2.672-6.248,5.796
			c-0.643,1.603,2.374,5.23,3.786,6.637c1.868,1.861,1.449,7.442,1.261,9.94C648.979,221.542,647.122,225.895,647.122,225.895z"/>
		<g>
			<path style="fill:#3949AB;" d="M487.869,254.753c1.953,0.842,6.923,3.523,6.923,3.523c0.416-0.28,0.918-0.71,1.08-0.835
				c4.989-3.986,9.834-8.152,14.437-12.572c5.39-5.174,10.693-10.844,14.708-17.227c2.487-3.942,5.361-10.199,6.814-15.257
				c-1.312-0.446-2.644-1.28-3.378-1.701c-1.219-0.694-2.426-1.388-3.645-2.081c-0.525,5.196-2.591,10.196-5.348,14.693
				c-1.109,1.823-2.336,3.565-3.619,5.202c-5.189,6.64-11.398,12.474-17.77,17.96c-1.272,1.09-2.55,2.173-3.853,3.232
				C492.132,251.421,490.01,253.102,487.869,254.753z"/>
		</g>
		<circle style="fill:#3949AB;" cx="493.966" cy="224.921" r="5.22"/>
		<path style="fill:none;stroke:#1E88E5;stroke-width:2.4579;stroke-linecap:round;stroke-miterlimit:10;" d="M494.258,224.933
			c0,0,11.429,22.245,2.169,31.636c-9.26,9.391-17.369-12.882-17.369-12.882"/>
		<circle style="fill:#3949AB;" cx="503.571" cy="211.851" r="5.22"/>
		<path style="fill:#64B5F6;" d="M475.003,229.318c0,0,14.819,26.276,12.866,25.435c0.23,0.018-37.71-19.175-37.71-19.175"/>
		<path style="fill:#1E88E5;" d="M515.84,228.498l5.049,4.949c10.318-0.232,24.358,10.035,24.358,10.035s1.9-4.309-2.502-8.695
			c-5.839-5.818-10.873-10.542-14.595-13.307l-6.135-2.97C522.014,218.509,519.966,223.332,515.84,228.498z"/>
		<polygon style="fill:#1E88E5;" points="479.277,187.677 498.289,199.072 481.206,223.093 460.058,211.947 		"/>
		<path style="fill:none;stroke:#FFFFFF;stroke-width:4.5645;stroke-linecap:round;stroke-miterlimit:10;" d="M420.295,215.127
			c0,0,13.013-13.706,29.832,3.052c15.563,15.506,16.209,28.554,16.209,28.554"/>
		<g>
			<path style="fill:#3949AB;" d="M427.307,206.21c9.604-4.959,18.141-4.589,21.547-4.185c3.429-2.815,21.679-17.832,22.959-26.914
				c-8.372-2.745-12.943-9.005-12.943-9.005c-0.305,4.834-2.154,7.456-5.757,11.701c-2.948,3.473-5.443,6.617-10.871,10.088
				c-11.208,0.411-19.21,11.217-19.21,11.217C424.482,201.323,427.307,206.21,427.307,206.21z"/>
			<path style="fill:#64B5F6;" d="M423.033,199.111c0,0,0.119-0.075,0.345-0.199c0.072-0.041,0.144-0.082,0.216-0.123
				c0.087-0.047,0.178-0.1,0.269-0.152c0.091-0.053,0.192-0.106,0.303-0.16c1.071-0.594,2.157-1.12,3.233-1.589l0.005,0.005
				c3.932-1.757,10.111-3.963,16.742-4.199c1.827-1.168,3.556-2.429,5.152-3.719c3.151-2.531,5.801-5.172,7.756-7.475
				c2.633-3.101,3.715-5.764,4.225-8.858c0.188-2.681-0.243-5.431-1.198-8.089c-1.514-4.273-4.358-8.312-8.112-11.499l-0.819,1.467
				l-0.518-0.44c-2.681-2.276-5-3.632-7.089-4.264l-0.555-5.315c-11.329-5.961-25.716-3.596-34.347,6.571
				c-9.99,11.768-8.55,29.399,3.218,39.389c2.136,1.813,4.462,3.249,6.908,4.314C420.513,196.035,421.924,197.586,423.033,199.111z"
				/>
			<path style="fill:#616161;" d="M419.889,184.285c-1.888-1.602-0.627-10.74,3.463-22.117c1.652-4.595,4.863-15.02,9.69-16.202
				c5.328-1.304,9.241-2.064,13.183,1.283c1.079,0.916,1.173,0.996,2.427,2.06c9.085,7.712,12.835,20.409,5.395,29.173
				c-7.097,8.36-19.62,13.098-27.956,11.068C426.091,189.551,421.196,185.395,419.889,184.285z"/>
			<path style="fill:#3949AB;" d="M421.777,185.888c-2.186-4.64-0.208-22.449,8.491-32.697c8.699-10.247,16.022-5.887,16.022-5.887
				l-3.365-2.857c0,0-7.323-4.361-16.022,5.887s-10.677,28.057-8.491,32.697L421.777,185.888z"/>
		</g>
		<circle style="fill:#3949AB;" cx="481.573" cy="203.995" r="7.186"/>
		<path style="fill:#64B5F6;" d="M504.036,135.435l-4.369-10.556c0,0-1.405-3.57-0.629-4.349c0.969-0.973,1.863-0.625,2.486-0.005
			c1.868,1.861,2.338,4.929,2.989,6.157c2.001,3.776,5.731,5.012,5.731,5.012L504.036,135.435z"/>
		<path style="fill:#64B5F6;" d="M506.544,130.064l-5.487-5.865c-0.095-0.358-0.026-0.74,0.189-1.041l1.806-2.538
			c0.599-0.842,1.568-1.343,2.601-1.344l8.825-0.016c1.091-0.002,2.256,0.668,2.834,1.501c0.26,0.375-2.675,5.808-3.813,7.666
			c-0.465,0.758-0.665-0.57-1.499-0.261L506.544,130.064z"/>
		<path style="fill:none;stroke:#1E88E5;stroke-width:2.7485;stroke-linecap:round;stroke-miterlimit:10;" d="M503.506,211.818
			c0,0,16.924,4.279,22.578-1.397c3.215-3.227-3.069-7.183-9.299-7.127c-7.038,0.064-7.841,3.066-7.841,3.066"/>
		<polygon style="fill:#64B5F6;" points="523.245,207.591 499.129,191.978 507.279,209.374 		"/>
		<path style="fill:#303F9F;" d="M505.414,208.756c-2.042-2.035-7.575,1.453-5.541-0.589c2.035-2.042,5.34-2.048,7.382-0.014
			c0.454,0.452,0.807,0.967,1.06,1.516C506.657,208.754,507.456,210.791,505.414,208.756z"/>
		<path style="fill:#1E88E5;" d="M418.385,190.275c-2.063-2.055-2.069-5.394-0.014-7.457c1.241-1.245,4.153-0.824,6.216,1.231
			s2.495,4.967,1.254,6.212C423.786,192.324,420.448,192.33,418.385,190.275z"/>
		<path style="fill:#FAFAFA;" d="M422.331,203.82l4.977,2.39c0,0-6.582,3.169-2.74,11.057c0,0-1.385,3.896-1.302,5.255
			c-2.182,1.891-11.49,1.154-11.49,1.154l4.248-17.849L422.331,203.82z"/>
		<polygon style="fill:#FAFAFA;" points="457.376,239.231 474.839,248.084 470.111,253.431 459.953,249.425 		"/>
		<g>
			<path style="fill:#BDBDBD;" d="M604.52,139.93l8.099-6.754l-17.587-20.683c-0.632-0.743-1.748-0.83-2.487-0.192l-5.323,4.592
				c-0.731,0.631-0.817,1.734-0.191,2.469L604.52,139.93z"/>
		</g>
		<g>
			<polygon style="fill:#757575;" points="599.958,134.498 608.056,127.744 597.607,115.494 589.621,122.381 			"/>
		</g>
	</g>
	<g>
		<path style="fill:#F5F5F5;" d="M250.593,386.572c1.829,0.365,3.501,0.352,3.501,0.352s1.146,0.545,2.738,0.437
			c4.762-0.323,8.508-7.007,9.506-8.367c1.271-1.733,5.113-7.036,8.586-10.366l1.648-1.66c2.727-0.904,7.098-3.938,7.098-3.938
			l0.643-0.955c0,0,5.674-0.473,12.067-1.3c2.932-0.38,3.781-2.155,3.781-2.155l1.772-2.718l-18.594-6.098l-0.722-2.238
			l-11.38-2.387l-3.644,1.496l-2.721,3.375c0,0-10.718,12.433-14.618,21.683c0,0-1.296,2.588-1.668,4.255
			c-0.769,3.437-0.276,4.764-0.358,6.6C248.097,385.503,249.625,386.379,250.593,386.572z"/>
		<path style="fill:#EEEEEE;" d="M250.461,357.369c2.825,2.407,2.694,3.254,2.398,5.429c-0.252,1.854-1.555,5.522-2.571,8.968
			c4.314-8.367,8.383-11.79,14.583-21.717l2.036-4.264l-22.358,0.582l-0.867,2.905c0,0-0.446,1.215,0.032,2.341
			C244.528,353.528,247.636,354.963,250.461,357.369z"/>
		<path style="fill:#F5F5F5;" d="M254.093,386.923c0,0-1.127-0.621-1.702-1.498c-0.261-0.399-0.785-0.213-0.855,0.046
			C251.443,385.82,252.623,387.024,254.093,386.923z"/>
		
			<ellipse transform="matrix(0.9977 -0.0678 0.0678 0.9977 -25.4898 18.421)" style="fill:#F5F5F5;" cx="258.639" cy="384.734" rx="0.934" ry="0.623"/>
		<path style="fill:#F5F5F5;" d="M256.068,383.661c0.515-0.035,0.951,0.215,0.974,0.558c0.023,0.343-0.375,0.65-0.89,0.685
			s-0.951-0.215-0.974-0.558S255.553,383.696,256.068,383.661z"/>
		<polygon style="fill:#424242;" points="300.997,357.337 282.573,351.822 281.772,354.373 300.16,358.62 		"/>
		<path style="fill:#FFFFFF;" d="M273.965,361.362c0,0-4.049,2.905-7.295,3.992c-2.429,0.814-5.168-1.226-3.939-4.463
			c1.222-3.219,5.325-7.381,5.325-7.381L273.965,361.362z"/>
		<path style="fill:#B6B6B6;" d="M267.108,357.945c0.164,2.409,2.548,4.197,4.956,4.034c0.666-0.045,1.543-0.261,2.143-0.614
			c2.038-0.022,1.843,0.326,2.955,0.274c0.789,1.195,2.276,2.336,4.082,2.214c2.486-0.169,4.241-1.907,4.055-4.646
			c-0.131-1.925-1.496-3.644-1.496-3.644l-0.38-5.593l1.074-2.57l-13.346-3.464l-3.56,2.739l0.464,6.836
			C268.056,353.51,266.894,354.786,267.108,357.945z"/>
		<path style="fill:#E0E0E0;" d="M274.254,360.141c0.745,0.54,1.868,0.374,2.628,0.047c1.073-0.461,1.553-0.933,1.553-0.933
			l-3.05-5.03c0,0-1.52,1.452-1.952,3.475C273.211,358.739,273.645,359.7,274.254,360.141z"/>
		<path style="fill:#E0E0E0;" d="M278.93,355.454c0.745,0.54,1.868,0.374,2.628,0.047c1.073-0.461,1.553-0.933,1.553-0.933
			l-3.05-5.03c0,0-1.52,1.452-1.952,3.475C277.888,354.051,278.321,355.012,278.93,355.454z"/>
		
			<ellipse transform="matrix(0.9977 -0.0678 0.0678 0.9977 -23.2141 19.9088)" style="fill:#FFFFFF;" cx="281.696" cy="351.951" rx="2.492" ry="3.114"/>
		
			<ellipse transform="matrix(0.9977 -0.0678 0.0678 0.9977 -23.5427 19.6026)" style="fill:#FFFFFF;" cx="277.02" cy="356.64" rx="2.492" ry="3.114"/>
		<path style="fill:#E0E0E0;" d="M270.682,353.517c0.745,0.54,1.868,0.374,2.628,0.047c1.073-0.461,1.553-0.933,1.553-0.933
			l-3.05-5.03c0,0-1.52,1.452-1.952,3.475C269.64,352.114,270.074,353.075,270.682,353.517z"/>
		
			<ellipse transform="matrix(0.9977 -0.0678 0.0678 0.9977 -23.1018 19.3451)" style="fill:#FFFFFF;" cx="273.448" cy="350.015" rx="2.492" ry="3.114"/>
		<polygon style="fill:#424242;" points="266.056,347.6 264.87,350.049 243.682,349.272 244.164,347.656 		"/>
		<path style="fill:#FFFFFF;" d="M270.376,366.654l6.337,9.059c0.224,0.321,0.69,0.366,0.976,0.095l1.542-1.456
			c0.153-0.145,0.223-0.353,0.188-0.557l-1.99-11.576c-0.104-0.607-0.643-1.049-1.272-1.045l-1.54,0.01
			c-0.364,0.002-0.712,0.156-0.954,0.423l-3.185,3.502C270.085,365.54,270.043,366.178,270.376,366.654z"/>
	</g>
	<path style="fill:#FFFFFF;" d="M307.086,88.071l1.128,7.767c0.054,0.357,0.215,0.683,0.474,0.942
		c0.259,0.253,0.586,0.424,0.942,0.474l7.761,1.123l-7.767,1.128c-0.357,0.054-0.683,0.215-0.942,0.474
		c-0.253,0.253-0.424,0.586-0.474,0.942l-1.123,7.761l-1.128-7.767c-0.054-0.357-0.215-0.683-0.474-0.942
		c-0.259-0.253-0.586-0.424-0.942-0.474l-7.761-1.123l7.767-1.128c0.357-0.054,0.683-0.215,0.942-0.474
		c0.253-0.253,0.424-0.586,0.474-0.942L307.086,88.071z"/>
	<path style="fill:#FAFAFA;" d="M302.086,168.071l1.455,10.027c0.069,0.46,0.277,0.881,0.611,1.215
		c0.334,0.327,0.757,0.549,1.215,0.611l10.022,1.45l-10.027,1.455c-0.46,0.069-0.881,0.277-1.215,0.611
		c-0.327,0.327-0.549,0.757-0.611,1.215l-1.45,10.022l-1.455-10.027c-0.069-0.46-0.277-0.881-0.611-1.215
		c-0.334-0.327-0.757-0.549-1.215-0.611l-10.022-1.45l10.027-1.455c0.46-0.069,0.881-0.277,1.215-0.611
		c0.327-0.327,0.549-0.757,0.611-1.215L302.086,168.071z"/>
	<path style="fill:#FAFAFA;" d="M330.086,394.5l0.861,5.935c0.041,0.273,0.164,0.522,0.362,0.719
		c0.198,0.193,0.448,0.325,0.719,0.362l5.932,0.859l-5.935,0.861c-0.272,0.041-0.522,0.164-0.719,0.362
		c-0.193,0.193-0.325,0.448-0.362,0.719l-0.859,5.932l-0.861-5.935c-0.041-0.273-0.164-0.522-0.362-0.719
		c-0.198-0.193-0.448-0.325-0.719-0.362l-5.932-0.859l5.935-0.862c0.272-0.041,0.522-0.164,0.719-0.362
		c0.193-0.193,0.325-0.448,0.362-0.719L330.086,394.5z"/>
	<circle style="fill:#FFFFFF;" cx="338" cy="144" r="3"/>
	<path style="fill:#FAFAFA;" d="M573.431,396.625l0.588,4.051c0.028,0.186,0.112,0.356,0.247,0.491
		c0.135,0.132,0.306,0.222,0.491,0.247l4.049,0.586l-4.051,0.588c-0.186,0.028-0.356,0.112-0.491,0.247
		c-0.132,0.132-0.222,0.306-0.247,0.491l-0.586,4.049l-0.588-4.051c-0.028-0.186-0.112-0.356-0.247-0.491
		c-0.135-0.132-0.306-0.222-0.491-0.247L568.056,402l4.051-0.588c0.186-0.028,0.356-0.112,0.491-0.247
		c0.132-0.132,0.222-0.306,0.247-0.491L573.431,396.625z"/>
	<path style="fill:#FAFAFA;" d="M394.431,509.197l1.182,8.142c0.056,0.374,0.225,0.716,0.496,0.987
		c0.271,0.265,0.615,0.446,0.987,0.496l8.138,1.178l-8.142,1.182c-0.374,0.056-0.716,0.225-0.987,0.496
		c-0.265,0.265-0.446,0.615-0.496,0.987l-1.178,8.138l-1.182-8.142c-0.056-0.374-0.225-0.716-0.496-0.987
		c-0.271-0.265-0.615-0.446-0.987-0.496L383.628,520l8.142-1.182c0.374-0.056,0.716-0.225,0.987-0.496
		c0.265-0.265,0.446-0.615,0.496-0.987L394.431,509.197z"/>
	<path style="fill:#FAFAFA;" d="M104.431,410.625l0.588,4.051c0.028,0.186,0.112,0.356,0.247,0.491
		c0.135,0.132,0.306,0.222,0.491,0.247l4.049,0.586l-4.051,0.588c-0.186,0.028-0.356,0.112-0.491,0.247
		c-0.132,0.132-0.222,0.306-0.247,0.491l-0.586,4.049l-0.588-4.051c-0.028-0.186-0.112-0.356-0.247-0.491
		c-0.135-0.132-0.306-0.222-0.491-0.247L99.056,416l4.051-0.588c0.186-0.028,0.356-0.112,0.491-0.247
		c0.132-0.132,0.222-0.306,0.247-0.491L104.431,410.625z"/>
	<path style="fill:#FAFAFA;" d="M155.644,246.914l0.588,4.051c0.028,0.186,0.112,0.356,0.247,0.491
		c0.135,0.132,0.306,0.222,0.491,0.247l4.049,0.586l-4.051,0.588c-0.186,0.028-0.356,0.112-0.491,0.247
		c-0.132,0.132-0.222,0.306-0.247,0.491l-0.586,4.049l-0.588-4.051c-0.028-0.186-0.112-0.356-0.247-0.491
		c-0.135-0.132-0.306-0.222-0.491-0.247l-4.05-0.586l4.051-0.588c0.186-0.028,0.356-0.112,0.491-0.247
		c0.132-0.132,0.222-0.306,0.247-0.491L155.644,246.914z"/>
	<path style="fill:#FFFFFF;" d="M173.711,205.704l0.807,5.559c0.038,0.255,0.154,0.489,0.339,0.674
		c0.185,0.182,0.419,0.304,0.674,0.339l5.555,0.804l-5.559,0.807c-0.255,0.038-0.489,0.154-0.674,0.339
		c-0.182,0.182-0.304,0.419-0.339,0.674l-0.804,5.555l-0.807-5.559c-0.038-0.255-0.154-0.489-0.339-0.674
		c-0.185-0.182-0.419-0.304-0.674-0.339l-5.555-0.804l5.559-0.807c0.255-0.038,0.489-0.154,0.674-0.339
		c0.182-0.182,0.304-0.419,0.339-0.674L173.711,205.704z"/>
	<path style="fill:#FFFFFF;" d="M499.431,343.982l1.464,10.081c0.07,0.463,0.279,0.887,0.615,1.223
		c0.336,0.329,0.76,0.551,1.223,0.615l10.074,1.457l-10.081,1.464c-0.463,0.07-0.887,0.279-1.223,0.615
		c-0.329,0.329-0.551,0.76-0.615,1.223l-1.457,10.074l-1.464-10.081c-0.07-0.463-0.279-0.887-0.615-1.223
		c-0.336-0.329-0.76-0.551-1.223-0.615l-10.074-1.457l10.081-1.464c0.463-0.07,0.887-0.279,1.223-0.615
		c0.329-0.329,0.551-0.76,0.615-1.223L499.431,343.982z"/>
	<circle style="fill:#FAFAFA;" cx="190" cy="127.881" r="3"/>
	<circle style="fill:#FFFFFF;" cx="396.478" cy="125.494" r="2"/>
	<circle style="fill:#FFFFFF;" cx="545.369" cy="429.665" r="2"/>
	<circle style="fill:#FAFAFA;" cx="640.618" cy="278.185" r="4.021"/>
	<circle style="fill:#EEEEEE;" cx="121.929" cy="351.533" r="3"/>
	<circle style="fill:#EEEEEE;" cx="214.172" cy="145.075" r="3"/>
	<circle style="fill:#FAFAFA;" cx="107.286" cy="233.054" r="2"/>
</g>
</svg>
