<?xml version="1.0" encoding="iso-8859-1"?>
<!-- Generator: Adobe Illustrator 22.1.0, SVG Export Plug-In . SVG Version: 6.00 Build 0)  -->
<svg version="1.1" id="Layer_14" xmlns="http://www.w3.org/2000/svg" xmlns:xlink="http://www.w3.org/1999/xlink" x="0px" y="0px"
	 viewBox="0 0 800 600" style="enable-background:new 0 0 800 600;" xml:space="preserve">
<rect style="fill:#FFFFFF;" width="800" height="600"/>
<g>
	<g>
		
			<linearGradient id="SVGID_1_" gradientUnits="userSpaceOnUse" x1="631.7" y1="-214.018" x2="631.7" y2="-356.018" gradientTransform="matrix(1 0 0 -1 0 -24)">
			<stop  offset="0" style="stop-color:#F6F6F6;stop-opacity:0.1"/>
			<stop  offset="0.3453" style="stop-color:#FBFBFB;stop-opacity:0.4108"/>
			<stop  offset="1" style="stop-color:#FFFFFF"/>
		</linearGradient>
		<polygon style="fill:url(#SVGID_1_);" points="613.2,332.018 650.2,332.018 650.2,190.018 613.2,190.018 		"/>
		
			<linearGradient id="SVGID_2_" gradientUnits="userSpaceOnUse" x1="631.7" y1="-214.018" x2="631.7" y2="-356.018" gradientTransform="matrix(1 0 0 -1 0 -24)">
			<stop  offset="0" style="stop-color:#F5F5F5"/>
			<stop  offset="0.3762" style="stop-color:#FBFBFB"/>
			<stop  offset="1" style="stop-color:#FFFFFF"/>
		</linearGradient>
		<polygon style="fill:url(#SVGID_2_);" points="613.2,332.018 650.2,332.018 650.2,190.018 613.2,190.018 		"/>
	</g>
	<g>
		
			<linearGradient id="SVGID_3_" gradientUnits="userSpaceOnUse" x1="523.2" y1="-228.018" x2="523.2" y2="-392.018" gradientTransform="matrix(1 0 0 -1 0 -24)">
			<stop  offset="0" style="stop-color:#F6F6F6;stop-opacity:0.1"/>
			<stop  offset="0.3453" style="stop-color:#FBFBFB;stop-opacity:0.4108"/>
			<stop  offset="1" style="stop-color:#FFFFFF"/>
		</linearGradient>
		<polygon style="fill:url(#SVGID_3_);" points="497.2,368.018 549.2,368.018 549.2,204.018 497.2,204.018 		"/>
		
			<linearGradient id="SVGID_4_" gradientUnits="userSpaceOnUse" x1="523.2" y1="-228.018" x2="523.2" y2="-392.018" gradientTransform="matrix(1 0 0 -1 0 -24)">
			<stop  offset="0" style="stop-color:#F5F5F5"/>
			<stop  offset="0.3762" style="stop-color:#FBFBFB"/>
			<stop  offset="1" style="stop-color:#FFFFFF"/>
		</linearGradient>
		<polygon style="fill:url(#SVGID_4_);" points="497.2,368.018 549.2,368.018 549.2,204.018 497.2,204.018 		"/>
	</g>
	<g>
		
			<linearGradient id="SVGID_5_" gradientUnits="userSpaceOnUse" x1="587.2" y1="-240.018" x2="587.2" y2="-388.018" gradientTransform="matrix(1 0 0 -1 0 -24)">
			<stop  offset="0" style="stop-color:#F6F6F6;stop-opacity:0.1"/>
			<stop  offset="0.3453" style="stop-color:#FBFBFB;stop-opacity:0.4108"/>
			<stop  offset="1" style="stop-color:#FFFFFF"/>
		</linearGradient>
		<polygon style="fill:url(#SVGID_5_);" points="561.2,364.018 613.2,364.018 613.2,216.018 561.2,216.018 		"/>
		
			<linearGradient id="SVGID_6_" gradientUnits="userSpaceOnUse" x1="587.2" y1="-240.018" x2="587.2" y2="-388.018" gradientTransform="matrix(1 0 0 -1 0 -24)">
			<stop  offset="0" style="stop-color:#F5F5F5"/>
			<stop  offset="0.3762" style="stop-color:#FBFBFB"/>
			<stop  offset="1" style="stop-color:#FFFFFF"/>
		</linearGradient>
		<polygon style="fill:url(#SVGID_6_);" points="561.2,364.018 613.2,364.018 613.2,216.018 561.2,216.018 		"/>
	</g>
	<g>
		<rect x="646.2" y="217.018" style="fill:#FFFFFF;" width="48" height="172"/>
		
			<linearGradient id="SVGID_7_" gradientUnits="userSpaceOnUse" x1="-720.2" y1="-241.018" x2="-720.2" y2="-413.018" gradientTransform="matrix(-1 0 0 -1 -50 -24)">
			<stop  offset="0" style="stop-color:#F5F5F5"/>
			<stop  offset="0.3762" style="stop-color:#FBFBFB"/>
			<stop  offset="1" style="stop-color:#FFFFFF"/>
		</linearGradient>
		<rect x="646.2" y="217.018" style="fill:url(#SVGID_7_);" width="48" height="172"/>
	</g>
	<g>
		<rect x="92.2" y="228.018" style="fill:#FFFFFF;" width="49" height="172"/>
		
			<linearGradient id="SVGID_8_" gradientUnits="userSpaceOnUse" x1="-166.7" y1="-252.018" x2="-166.7" y2="-424.018" gradientTransform="matrix(-1 0 0 -1 -50 -24)">
			<stop  offset="0" style="stop-color:#F5F5F5"/>
			<stop  offset="0.3762" style="stop-color:#FBFBFB"/>
			<stop  offset="1" style="stop-color:#FFFFFF"/>
		</linearGradient>
		<polygon style="fill:url(#SVGID_8_);" points="92.2,400.018 141.2,400.018 141.2,228.018 92.2,228.018 		"/>
	</g>
	<g>
		<rect x="122.2" y="182.018" style="fill:#FFFFFF;" width="66" height="170"/>
		
			<linearGradient id="SVGID_9_" gradientUnits="userSpaceOnUse" x1="-205.2" y1="-206.018" x2="-205.2" y2="-376.018" gradientTransform="matrix(-1 0 0 -1 -50 -24)">
			<stop  offset="0" style="stop-color:#F5F5F5"/>
			<stop  offset="0.3762" style="stop-color:#FBFBFB"/>
			<stop  offset="1" style="stop-color:#FFFFFF"/>
		</linearGradient>
		<polygon style="fill:url(#SVGID_9_);" points="122.2,352.018 188.2,352.018 188.2,182.018 122.2,182.018 		"/>
	</g>
	<g>
		<path style="fill:#FFFFFF;" d="M332.085,250.676c3.408,0,6.115-2.704,6.115-6.109s-2.706-6.109-6.115-6.109
			c-2.105,0-3.909,1.001-5.012,2.604c-0.301-6.009-1.203-11.817-2.506-17.425c1.504,1.302,3.609,1.903,5.613,1.302
			c3.308-0.901,5.212-4.206,4.31-7.511c-0.902-3.305-4.21-5.207-7.518-4.306c-2.105,0.601-3.609,2.103-4.21,4.106
			c-1.804-5.808-4.21-11.316-7.017-16.524c1.804,1.001,4.01,1.001,5.914-0.1c2.907-1.702,3.909-5.508,2.205-8.412
			s-5.513-3.906-8.42-2.203c-2.005,1.102-3.007,3.205-3.007,5.308c-3.308-5.207-7.117-10.014-11.327-14.421
			c2.005,0.501,4.31,0,5.914-1.602c2.406-2.403,2.406-6.309,0-8.712s-6.315-2.403-8.721,0c-1.604,1.602-2.105,3.906-1.604,5.908
			c-4.511-4.106-9.322-7.811-14.535-11.116c2.105-0.1,4.01-1.102,5.212-3.004c1.704-2.904,0.702-6.71-2.205-8.412
			c-2.907-1.702-6.716-0.701-8.42,2.203c-1.103,1.903-1.002,4.206,0,6.009c-5.313-2.804-10.826-5.107-16.64-6.91
			c1.905-0.601,3.408-2.203,4.01-4.206c0.902-3.305-1.103-6.609-4.31-7.511c-3.308-0.901-6.616,1.102-7.518,4.306
			c-0.601,2.103,0,4.206,1.403,5.708c-5.714-1.302-11.527-2.103-17.542-2.303c1.604-1.102,2.606-2.904,2.606-5.007
			c0-3.405-2.706-6.109-6.115-6.109c-3.408,0-6.115,2.704-6.115,6.109c0,2.103,1.002,3.906,2.606,5.007
			c-5.914,0.2-11.628,1.001-17.241,2.203c1.103-1.502,1.604-3.405,1.103-5.308c-0.902-3.305-4.21-5.207-7.518-4.306
			s-5.212,4.206-4.31,7.511c0.501,1.903,1.804,3.305,3.508,4.006c-5.413,1.702-10.625,3.906-15.637,6.509
			c0.601-1.602,0.501-3.505-0.401-5.107c-1.704-2.904-5.513-3.906-8.42-2.203c-2.907,1.702-3.909,5.508-2.205,8.412
			c0.902,1.602,2.506,2.604,4.21,2.904c-4.711,3.004-9.122,6.309-13.131,10.014c0-1.602-0.501-3.305-1.804-4.506
			c-2.406-2.403-6.315-2.403-8.721,0c-2.406,2.403-2.406,6.309,0,8.712c1.203,1.202,2.907,1.803,4.511,1.803
			c-3.609,3.906-6.916,8.212-9.823,12.718c-0.401-1.502-1.403-2.804-2.807-3.605c-2.907-1.702-6.716-0.701-8.42,2.203
			s-0.702,6.71,2.205,8.412c1.403,0.801,3.007,1.001,4.511,0.601c-2.406,4.607-4.511,9.514-6.115,14.521
			c-0.802-1.202-2.005-2.103-3.508-2.504c-3.308-0.901-6.616,1.102-7.518,4.306c-0.902,3.305,1.103,6.609,4.31,7.511
			c1.504,0.401,3.007,0.2,4.21-0.401c-1.103,5.007-1.804,10.114-2.005,15.322c-1.002-0.801-2.406-1.402-3.809-1.402
			c-3.408,0-6.115,2.704-6.115,6.109s2.706,6.109,6.115,6.109c1.403,0,2.807-0.501,3.809-1.402
			c0.301,5.207,0.902,10.215,2.005,15.122c-1.203-0.501-2.506-0.601-3.909-0.3c-3.308,0.901-5.212,4.206-4.31,7.511
			s4.21,5.207,7.518,4.306c1.303-0.401,2.406-1.202,3.208-2.203c1.604,4.807,3.508,9.514,5.814,13.92
			c-1.303-0.1-2.506,0.1-3.709,0.801c-2.907,1.702-3.909,5.508-2.205,8.412s5.513,3.906,8.42,2.203
			c1.203-0.701,2.005-1.702,2.606-2.904c2.807,4.206,5.814,8.212,9.222,11.917c-1.203,0.2-2.406,0.801-3.408,1.702
			c-2.406,2.403-2.406,6.309,0,8.712s6.315,2.403,8.721,0c1.002-1.001,1.504-2.203,1.704-3.505
			c3.809,3.305,7.819,6.409,12.029,9.113c-1.103,0.501-2.205,1.402-2.807,2.504c-1.704,2.904-0.702,6.71,2.205,8.412
			s6.716,0.701,8.42-2.203c0.702-1.202,0.902-2.504,0.802-3.805c4.511,2.203,9.122,4.206,14.033,5.708
			c-1.002,0.801-1.704,1.903-2.105,3.205c-0.902,3.305,1.103,6.609,4.31,7.511c3.308,0.901,6.616-1.102,7.518-4.306
			c0.401-1.402,0.2-2.704-0.301-3.906c4.912,1.001,10.024,1.602,15.136,1.803c-0.802,1.001-1.303,2.303-1.303,3.805
			c0,3.405,2.706,6.109,6.115,6.109c3.408,0,6.115-2.704,6.115-6.109c0-1.502-0.501-2.804-1.403-3.906
			c5.212-0.3,10.325-1.102,15.337-2.203c-0.601,1.302-0.802,2.704-0.401,4.206c0.902,3.305,4.21,5.207,7.518,4.306
			c3.308-0.901,5.212-4.206,4.31-7.511c-0.401-1.502-1.403-2.704-2.606-3.505c5.012-1.702,9.924-3.805,14.535-6.309
			c-0.301,1.502-0.1,3.004,0.702,4.406c1.704,2.904,5.513,3.906,8.42,2.203c2.907-1.702,3.909-5.508,2.205-8.412
			c-0.802-1.502-2.205-2.403-3.709-2.804c4.511-3.004,8.721-6.309,12.63-10.014c0,1.602,0.601,3.205,1.804,4.406
			c2.406,2.403,6.315,2.403,8.721,0s2.406-6.309,0-8.712c-1.303-1.302-3.007-1.803-4.611-1.803
			c3.709-4.106,7.017-8.512,9.924-13.319c0.301,1.702,1.303,3.205,2.907,4.106c2.907,1.702,6.716,0.701,8.42-2.203
			s0.702-6.71-2.205-8.412c-1.604-1.001-3.508-1.001-5.212-0.401c2.506-5.007,4.611-10.315,6.315-15.722
			c0.702,1.702,2.105,3.004,4.01,3.505c3.308,0.901,6.616-1.102,7.518-4.306c0.902-3.305-1.103-6.609-4.31-7.511
			c-1.905-0.501-3.909,0-5.313,1.102c1.203-5.608,1.804-11.316,2.005-17.225C328.276,249.675,330.081,250.676,332.085,250.676z
			 M233.05,332.293c-2.807,0-5.513-0.1-8.22-0.401l7.217-77.811c0.301,0,0.702,0.1,1.002,0.1s0.702,0,1.002-0.1l7.217,77.811
			C238.563,332.192,235.756,332.293,233.05,332.293z M251.794,330.19l-14.434-77.31c2.205-1.402,3.709-3.906,3.709-6.71
			c0-4.406-3.609-8.011-8.019-8.011s-8.019,3.605-8.019,8.011c0,2.804,1.504,5.308,3.709,6.71l-14.434,77.31
			c-38.492-8.612-67.36-42.961-67.36-84.02c0-47.468,38.692-86.123,86.205-86.123s86.205,38.655,86.205,86.123
			C319.255,287.228,290.386,321.577,251.794,330.19z"/>
		
			<linearGradient id="SVGID_10_" gradientUnits="userSpaceOnUse" x1="233.198" y1="-164.118" x2="233.198" y2="-374.4176" gradientTransform="matrix(1 0 0 -1 0 -24)">
			<stop  offset="0" style="stop-color:#BDBDBD;stop-opacity:0.2"/>
			<stop  offset="0.0535" style="stop-color:#C4C4C4;stop-opacity:0.2428"/>
			<stop  offset="0.2731" style="stop-color:#DEDEDE;stop-opacity:0.4185"/>
			<stop  offset="0.5001" style="stop-color:#F0F0F0;stop-opacity:0.6001"/>
			<stop  offset="0.7371" style="stop-color:#FBFBFB;stop-opacity:0.7897"/>
			<stop  offset="1" style="stop-color:#FFFFFF"/>
		</linearGradient>
		<path style="fill:url(#SVGID_10_);" d="M332.085,250.676c3.408,0,6.115-2.704,6.115-6.109s-2.706-6.109-6.115-6.109
			c-2.105,0-3.909,1.001-5.012,2.604c-0.301-6.009-1.203-11.817-2.506-17.425c1.504,1.302,3.609,1.903,5.613,1.302
			c3.308-0.901,5.212-4.206,4.31-7.511c-0.902-3.305-4.21-5.207-7.518-4.306c-2.105,0.601-3.609,2.103-4.21,4.106
			c-1.804-5.808-4.21-11.316-7.017-16.524c1.804,1.001,4.01,1.001,5.914-0.1c2.907-1.702,3.909-5.508,2.205-8.412
			s-5.513-3.906-8.42-2.203c-2.005,1.102-3.007,3.205-3.007,5.308c-3.308-5.207-7.117-10.014-11.327-14.421
			c2.005,0.501,4.31,0,5.914-1.602c2.406-2.403,2.406-6.309,0-8.712s-6.315-2.403-8.721,0c-1.604,1.602-2.105,3.906-1.604,5.908
			c-4.511-4.106-9.322-7.811-14.535-11.116c2.105-0.1,4.01-1.102,5.212-3.004c1.704-2.904,0.702-6.71-2.205-8.412
			c-2.907-1.702-6.716-0.701-8.42,2.203c-1.103,1.903-1.002,4.206,0,6.009c-5.313-2.804-10.826-5.107-16.64-6.91
			c1.905-0.601,3.408-2.203,4.01-4.206c0.902-3.305-1.103-6.609-4.31-7.511c-3.308-0.901-6.616,1.102-7.518,4.306
			c-0.601,2.103,0,4.206,1.403,5.708c-5.714-1.302-11.527-2.103-17.542-2.303c1.604-1.102,2.606-2.904,2.606-5.007
			c0-3.405-2.706-6.109-6.115-6.109c-3.408,0-6.115,2.704-6.115,6.109c0,2.103,1.002,3.906,2.606,5.007
			c-5.914,0.2-11.628,1.001-17.241,2.203c1.103-1.502,1.604-3.405,1.103-5.308c-0.902-3.305-4.21-5.207-7.518-4.306
			s-5.212,4.206-4.31,7.511c0.501,1.903,1.804,3.305,3.508,4.006c-5.413,1.702-10.625,3.906-15.637,6.509
			c0.601-1.602,0.501-3.505-0.401-5.107c-1.704-2.904-5.513-3.906-8.42-2.203c-2.907,1.702-3.909,5.508-2.205,8.412
			c0.902,1.602,2.506,2.604,4.21,2.904c-4.711,3.004-9.122,6.309-13.131,10.014c0-1.602-0.501-3.305-1.804-4.506
			c-2.406-2.403-6.315-2.403-8.721,0c-2.406,2.403-2.406,6.309,0,8.712c1.203,1.202,2.907,1.803,4.511,1.803
			c-3.609,3.906-6.916,8.212-9.823,12.718c-0.401-1.502-1.403-2.804-2.807-3.605c-2.907-1.702-6.716-0.701-8.42,2.203
			s-0.702,6.71,2.205,8.412c1.403,0.801,3.007,1.001,4.511,0.601c-2.406,4.607-4.511,9.514-6.115,14.521
			c-0.802-1.202-2.005-2.103-3.508-2.504c-3.308-0.901-6.616,1.102-7.518,4.306c-0.902,3.305,1.103,6.609,4.31,7.511
			c1.504,0.401,3.007,0.2,4.21-0.401c-1.103,5.007-1.804,10.114-2.005,15.322c-1.002-0.801-2.406-1.402-3.809-1.402
			c-3.408,0-6.115,2.704-6.115,6.109s2.706,6.109,6.115,6.109c1.403,0,2.807-0.501,3.809-1.402
			c0.301,5.207,0.902,10.215,2.005,15.122c-1.203-0.501-2.506-0.601-3.909-0.3c-3.308,0.901-5.212,4.206-4.31,7.511
			s4.21,5.207,7.518,4.306c1.303-0.401,2.406-1.202,3.208-2.203c1.604,4.807,3.508,9.514,5.814,13.92
			c-1.303-0.1-2.506,0.1-3.709,0.801c-2.907,1.702-3.909,5.508-2.205,8.412s5.513,3.906,8.42,2.203
			c1.203-0.701,2.005-1.702,2.606-2.904c2.807,4.206,5.814,8.212,9.222,11.917c-1.203,0.2-2.406,0.801-3.408,1.702
			c-2.406,2.403-2.406,6.309,0,8.712s6.315,2.403,8.721,0c1.002-1.001,1.504-2.203,1.704-3.505
			c3.809,3.305,7.819,6.409,12.029,9.113c-1.103,0.501-2.205,1.402-2.807,2.504c-1.704,2.904-0.702,6.71,2.205,8.412
			s6.716,0.701,8.42-2.203c0.702-1.202,0.902-2.504,0.802-3.805c4.511,2.203,9.122,4.206,14.033,5.708
			c-1.002,0.801-1.704,1.903-2.105,3.205c-0.902,3.305,1.103,6.609,4.31,7.511c3.308,0.901,6.616-1.102,7.518-4.306
			c0.401-1.402,0.2-2.704-0.301-3.906c4.912,1.001,10.024,1.602,15.136,1.803c-0.802,1.001-1.303,2.303-1.303,3.805
			c0,3.405,2.706,6.109,6.115,6.109c3.408,0,6.115-2.704,6.115-6.109c0-1.502-0.501-2.804-1.403-3.906
			c5.212-0.3,10.325-1.102,15.337-2.203c-0.601,1.302-0.802,2.704-0.401,4.206c0.902,3.305,4.21,5.207,7.518,4.306
			c3.308-0.901,5.212-4.206,4.31-7.511c-0.401-1.502-1.403-2.704-2.606-3.505c5.012-1.702,9.924-3.805,14.535-6.309
			c-0.301,1.502-0.1,3.004,0.702,4.406c1.704,2.904,5.513,3.906,8.42,2.203c2.907-1.702,3.909-5.508,2.205-8.412
			c-0.802-1.502-2.205-2.403-3.709-2.804c4.511-3.004,8.721-6.309,12.63-10.014c0,1.602,0.601,3.205,1.804,4.406
			c2.406,2.403,6.315,2.403,8.721,0s2.406-6.309,0-8.712c-1.303-1.302-3.007-1.803-4.611-1.803
			c3.709-4.106,7.017-8.512,9.924-13.319c0.301,1.702,1.303,3.205,2.907,4.106c2.907,1.702,6.716,0.701,8.42-2.203
			s0.702-6.71-2.205-8.412c-1.604-1.001-3.508-1.001-5.212-0.401c2.506-5.007,4.611-10.315,6.315-15.722
			c0.702,1.702,2.105,3.004,4.01,3.505c3.308,0.901,6.616-1.102,7.518-4.306c0.902-3.305-1.103-6.609-4.31-7.511
			c-1.905-0.501-3.909,0-5.313,1.102c1.203-5.608,1.804-11.316,2.005-17.225C328.276,249.675,330.081,250.676,332.085,250.676z
			 M233.05,332.293c-2.807,0-5.513-0.1-8.22-0.401l7.217-77.811c0.301,0,0.702,0.1,1.002,0.1s0.702,0,1.002-0.1l7.217,77.811
			C238.563,332.192,235.756,332.293,233.05,332.293z M251.794,330.19l-14.434-77.31c2.205-1.402,3.709-3.906,3.709-6.71
			c0-4.406-3.609-8.011-8.019-8.011s-8.019,3.605-8.019,8.011c0,2.804,1.504,5.308,3.709,6.71l-14.434,77.31
			c-38.492-8.612-67.36-42.961-67.36-84.02c0-47.468,38.692-86.123,86.205-86.123s86.205,38.655,86.205,86.123
			C319.255,287.228,290.386,321.577,251.794,330.19z"/>
	</g>
	<g>
		<polygon style="fill:#FFFFFF;" points="644.2,146.018 644.2,166.018 633.2,166.018 633.2,393.018 709.8,393.018 		"/>
		
			<linearGradient id="SVGID_11_" gradientUnits="userSpaceOnUse" x1="671.5" y1="-170.018" x2="671.5" y2="-417.018" gradientTransform="matrix(1 0 0 -1 0 -24)">
			<stop  offset="0" style="stop-color:#E0E0E0;stop-opacity:0.7"/>
			<stop  offset="1" style="stop-color:#FFFFFF;stop-opacity:0.4"/>
		</linearGradient>
		<polygon style="fill:url(#SVGID_11_);" points="644.2,146.018 644.2,166.018 633.2,166.018 633.2,393.018 709.8,393.018 		"/>
	</g>
	<g>
		<polygon style="fill:#FFFFFF;" points="170.2,303.018 170.2,291.018 167.2,282.018 164.2,291.018 164.2,298.018 154.2,298.018 
			154.2,291.018 151.2,282.018 148.2,291.018 148.2,303.018 136.2,303.018 136.2,291.018 133.2,282.018 130.2,291.018 
			130.2,298.018 120.2,298.018 120.2,291.018 117.2,282.018 114.2,291.018 114.2,303.018 92.2,303.018 92.2,392.018 188.2,392.018 
			188.2,303.018 		"/>
		
			<linearGradient id="SVGID_12_" gradientUnits="userSpaceOnUse" x1="140.2" y1="-306.018" x2="140.2" y2="-416.018" gradientTransform="matrix(1 0 0 -1 0 -24)">
			<stop  offset="0" style="stop-color:#E0E0E0;stop-opacity:0.85"/>
			<stop  offset="1" style="stop-color:#FFFFFF;stop-opacity:0.4"/>
		</linearGradient>
		<polygon style="fill:url(#SVGID_12_);" points="170.2,303.018 170.2,291.018 167.2,282.018 164.2,291.018 164.2,298.018 
			154.2,298.018 154.2,291.018 151.2,282.018 148.2,291.018 148.2,303.018 136.2,303.018 136.2,291.018 133.2,282.018 
			130.2,291.018 130.2,298.018 120.2,298.018 120.2,291.018 117.2,282.018 114.2,291.018 114.2,303.018 92.2,303.018 92.2,392.018 
			188.2,392.018 188.2,303.018 		"/>
		
			<radialGradient id="SVGID_13_" cx="199.0237" cy="-349.8747" r="126.4803" fx="166.1454" fy="-355.5039" gradientTransform="matrix(1 0 0 -0.9975 0 -23.9482)" gradientUnits="userSpaceOnUse">
			<stop  offset="0" style="stop-color:#F6F6F6;stop-opacity:0"/>
			<stop  offset="1" style="stop-color:#FFFFFF"/>
		</radialGradient>
		<polygon style="fill:url(#SVGID_13_);" points="170.2,303.018 170.2,291.018 167.2,282.018 164.2,291.018 164.2,298.018 
			154.2,298.018 154.2,291.018 151.2,282.018 148.2,291.018 148.2,303.018 136.2,303.018 136.2,291.018 133.2,282.018 
			130.2,291.018 130.2,298.018 120.2,298.018 120.2,291.018 117.2,282.018 114.2,291.018 114.2,303.018 92.2,303.018 92.2,392.018 
			188.2,392.018 188.2,303.018 		"/>
	</g>
	<g>
		<path style="fill:#FFFFFF;" d="M209.2,245.018v-8.952l-7-9.396v-11.716l-8-22.873l-8,22.873v11.79l-7,9.248v9.026h-3v32h3v106h30
			v-106h3v-32H209.2z"/>
		
			<linearGradient id="SVGID_14_" gradientUnits="userSpaceOnUse" x1="194.2" y1="-216.081" x2="194.2" y2="-407.018" gradientTransform="matrix(1 0 0 -1 0 -24)">
			<stop  offset="0" style="stop-color:#BDBDBD;stop-opacity:0.4"/>
			<stop  offset="1" style="stop-color:#FFFFFF"/>
		</linearGradient>
		<path style="fill:url(#SVGID_14_);" d="M209.2,245.018v-8.952l-7-9.396v-11.716l-8-22.873l-8,22.873v11.79l-7,9.248v9.026h-3v32h3
			v106h30v-106h3v-32H209.2z M194.4,271.018c-5.5,0-10-4.5-10-10c0-5.5,4.5-10,10-10s10,4.5,10,10
			C204.4,266.518,199.9,271.018,194.4,271.018z"/>
	</g>
	<g>
		<path style="fill:#FFFFFF;" d="M558.2,343.618c1.199,0.2,2.297,0.3,3.496,0.5l0.899-7.9c-43.349-5.1-80.206-35.8-89.395-44v-0.2
			v-21l-3.5-15l-3.5,15l-6-20l-6,20l-3.5-15l-3.5,15v15h-49v-2l-6-4v-0.1l-6,4.1v2h-49v-15l-3.5-15l-3.5,15l-6-20l-6,20l-3.5-15
			l-3.5,15v21v0.2c-9.189,8.2-45.946,38.9-89.395,44l0.899,7.9c1.199-0.1,2.397-0.3,3.496-0.5v14.4h-4v8h89v33h26v-28l47-35l-4-6
			l-43,21v-56h110v56l-43.18-21l-4.017,6l47.197,35v28h24v-33h91v-8h-4V343.618z M240.2,358.018h-10v-15c3.4-0.6,6.7-1.4,10-2.2
			V358.018z M254.2,358.018h-10v-18.3c3.4-1,6.7-2.1,10-3.3V358.018z M268.2,358.018h-10v-23.2c3.4-1.4,6.8-2.8,10-4.4V358.018z
			 M282.2,358.018h-10v-29.5c3.5-1.8,6.8-3.6,10-5.4V358.018z M296.2,358.018h-10v-37.4c3.6-2.2,6.9-4.4,10-6.5V358.018z
			 M311.2,303.018v54.9v0.1h-11v-46.7c4.4-3.2,8.1-6.1,11-8.5V303.018z M484.2,358.018h-11v-0.1v-54.9v-0.2c2.9,2.4,6.6,5.4,11,8.5
			V358.018z M498.2,358.018h-10v-43.9c3.1,2.1,6.4,4.3,10,6.5V358.018z M512.2,358.018h-10v-35c3.2,1.8,6.5,3.7,10,5.4V358.018z
			 M526.2,358.018h-10v-27.6c3.2,1.5,6.6,3,10,4.4V358.018z M540.2,358.018h-10v-21.7c3.3,1.2,6.6,2.3,10,3.3V358.018z
			 M554.2,358.018h-10v-17.2c3.3,0.9,6.6,1.6,10,2.2V358.018z"/>
		
			<linearGradient id="SVGID_15_" gradientUnits="userSpaceOnUse" x1="392.2" y1="-275.018" x2="392.2" y2="-423.018" gradientTransform="matrix(1 0 0 -1 0 -24)">
			<stop  offset="0" style="stop-color:#BDBDBD"/>
			<stop  offset="1" style="stop-color:#FFFFFF"/>
		</linearGradient>
		<path style="fill:url(#SVGID_15_);" d="M558.2,343.618c1.199,0.2,2.297,0.3,3.496,0.5l0.899-7.9
			c-43.349-5.1-80.206-35.8-89.395-44v-0.2v-21l-3.5-15l-3.5,15l-6-20l-6,20l-3.5-15l-3.5,15v15h-49v-2l-6-4v-0.1l-6,4.1v2h-49v-15
			l-3.5-15l-3.5,15l-6-20l-6,20l-3.5-15l-3.5,15v21v0.2c-9.189,8.2-45.946,38.9-89.395,44l0.899,7.9c1.199-0.1,2.397-0.3,3.496-0.5
			v14.4h-4v8h89v33h26v-28l47-35l-4-6l-43,21v-56h110v56l-43.18-21l-4.017,6l47.197,35v28h24v-33h91v-8h-4V343.618z M240.2,358.018
			h-10v-15c3.4-0.6,6.7-1.4,10-2.2V358.018z M254.2,358.018h-10v-18.3c3.4-1,6.7-2.1,10-3.3V358.018z M268.2,358.018h-10v-23.2
			c3.4-1.4,6.8-2.8,10-4.4V358.018z M282.2,358.018h-10v-29.5c3.5-1.8,6.8-3.6,10-5.4V358.018z M296.2,358.018h-10v-37.4
			c3.6-2.2,6.9-4.4,10-6.5V358.018z M311.2,303.018v54.9v0.1h-11v-46.7c4.4-3.2,8.1-6.1,11-8.5V303.018z M484.2,358.018h-11v-0.1
			v-54.9v-0.2c2.9,2.4,6.6,5.4,11,8.5V358.018z M498.2,358.018h-10v-43.9c3.1,2.1,6.4,4.3,10,6.5V358.018z M512.2,358.018h-10v-35
			c3.2,1.8,6.5,3.7,10,5.4V358.018z M526.2,358.018h-10v-27.6c3.2,1.5,6.6,3,10,4.4V358.018z M540.2,358.018h-10v-21.7
			c3.3,1.2,6.6,2.3,10,3.3V358.018z M554.2,358.018h-10v-17.2c3.3,0.9,6.6,1.6,10,2.2V358.018z"/>
		
			<radialGradient id="SVGID_16_" cx="392.2" cy="444.9565" r="131.4265" gradientTransform="matrix(1 0 0 1 0 -120)" gradientUnits="userSpaceOnUse">
			<stop  offset="0" style="stop-color:#F6F6F6;stop-opacity:0"/>
			<stop  offset="1" style="stop-color:#FFFFFF"/>
		</radialGradient>
		<path style="fill:url(#SVGID_16_);" d="M559.952,343.919c0.562,0.073,1.141,0.148,1.736,0.247l0.052,0.009l0.904-7.951l0.006-0.05
			l-0.05-0.006c-42.805-5.036-79.19-34.91-89.351-43.973l-0.001-21.189l-3.548-15.208l-3.506,15.026l-5.994-19.98l-5.994,19.979
			l-3.506-15.025l-3.55,15.22v14.95h-48.9v-1.977l-6-4v-0.168l-6.078,4.153l-0.021,0.015v1.977h-48.9l-0.001-14.961l-3.55-15.209
			l-3.506,15.026l-5.994-19.98l-5.994,19.979l-3.506-15.025l-3.55,15.22v21.178c-10.164,9.066-46.559,38.949-89.351,43.973
			l-0.049,0.006l0.904,7.949l0.005,0.048l0.048-0.004c1.198-0.1,2.409-0.302,3.442-0.49v14.291h-4v8.1h89v33h26.1v-28.024
			l46.98-34.985l0.038-0.028l-4.026-6.039l-0.024-0.037l-42.967,20.982v-55.87h109.9v55.87l-43.108-20.965l-0.039-0.02l-4.041,6.036
			l-0.026,0.04l47.215,35.014v28.024h24.1v-33h91v-8.1h-4v-14.292C558.834,343.773,559.402,343.847,559.952,343.919z M554.15,343.06
			v14.908h-9.9v-17.085C547.267,341.705,550.507,342.416,554.15,343.06z M540.15,339.655v18.313h-9.9v-21.579
			C533.682,337.636,536.922,338.705,540.15,339.655z M526.15,334.851v23.117h-9.9v-27.471
			C519.513,332.025,522.844,333.49,526.15,334.851z M498.15,320.646v37.322h-9.9v-43.756
			C491.261,316.251,494.543,318.441,498.15,320.646z M484.15,311.344v46.624h-10.9v-55.044
			C476.247,305.403,479.88,308.334,484.15,311.344z M512.15,328.45v29.519h-9.9v-34.864c0.373,0.209,0.747,0.42,1.122,0.632
			C506.185,325.323,509.094,326.963,512.15,328.45z M230.25,357.968V343.06c3.366-0.596,6.688-1.4,9.9-2.179v17.087L230.25,357.968
			L230.25,357.968z M244.25,357.968v-18.213c3.216-0.946,6.455-2.015,9.9-3.266v21.479H244.25z M258.25,357.968v-23.117
			c3.304-1.359,6.718-2.766,9.9-4.352v27.469H258.25z M272.25,357.968v-29.42c3.117-1.604,6.357-3.353,9.9-5.345v34.765H272.25z
			 M286.25,357.968v-37.322c3.595-2.197,6.882-4.39,9.9-6.434v43.756L286.25,357.968L286.25,357.968z M300.25,357.968v-46.625
			c3.904-2.84,7.67-5.749,10.9-8.419v55.044H300.25z"/>
	</g>
	<g>
		<path style="fill:#FFFFFF;" d="M603.2,260.018c0,30.1,0,132,0,132h-68c0,0,0-59.1,0-132s15.2-132,34-132
			S603.2,187.118,603.2,260.018z"/>
		
			<linearGradient id="SVGID_17_" gradientUnits="userSpaceOnUse" x1="569.2" y1="-152.018" x2="569.2" y2="-416.018" gradientTransform="matrix(1 0 0 -1 0 -24)">
			<stop  offset="0" style="stop-color:#E0E0E0;stop-opacity:0.7"/>
			<stop  offset="1" style="stop-color:#FFFFFF;stop-opacity:0.4"/>
		</linearGradient>
		<path style="fill:url(#SVGID_17_);" d="M603.2,260.018c0,30.1,0,132,0,132h-68c0,0,0-59.1,0-132s15.2-132,34-132
			S603.2,187.118,603.2,260.018z"/>
	</g>
</g>
<g>
	
		<linearGradient id="SVGID_18_" gradientUnits="userSpaceOnUse" x1="438" y1="-501.9738" x2="438" y2="-481.9738" gradientTransform="matrix(1 0 0 -1 0 -22)">
		<stop  offset="0" style="stop-color:#FFFFFF"/>
		<stop  offset="1" style="stop-color:#E0E0E0"/>
	</linearGradient>
	<path style="opacity:0.2;fill:url(#SVGID_18_);enable-background:new    ;" d="M699.5,459.974L699.5,459.974c0,11-9,20-20,20h-483
		c-11.1,0-20-9-20-20l0,0H699.5z"/>
</g>
<g>
	<rect x="219.151" y="409.017" style="fill:#BCAAA4;" width="335" height="12"/>
	<path style="fill:#BCAAA4;" d="M553.15,399.877l1,5.14h-335l-1-5.05c0-2.35,0.28-4.69,1.82-6.95h333.38
		C552.88,395.247,553.15,397.547,553.15,399.877z"/>
	<path style="fill:#8D6E63;" d="M552.109,391.017H221.22c0.18-2.278,1.85-4.414,3.98-6.315l2.61-1.449h317.77l0.62,1.471
		C548.29,386.626,549.94,388.746,552.109,391.017z"/>
	<polygon style="fill:#A1887F;" points="542.72,381.335 230.7,381.335 239.359,373.828 534.15,373.828 	"/>
	<rect x="239.359" y="359.017" style="fill:#A1887F;" width="294.58" height="12"/>
	<rect x="239.359" y="343.017" style="fill:#A1887F;" width="294.58" height="12"/>
	<rect x="239.359" y="327.017" style="fill:#A1887F;" width="294.58" height="12"/>
	<g>
		<polygon style="fill:#70574F;" points="543.134,452.305 561.5,457.035 551.5,457.035 532.734,452.305 		"/>
		<path style="fill:#4E342E;" d="M548.796,459.339l-16.205-4.174c-0.642-0.165-1.09-0.744-1.09-1.407l0,0
			c0-0.949,0.896-1.643,1.815-1.407l18.185,4.684l0.958,1.965l-2.581,0.617"/>
		<path style="fill:#6D4C41;" d="M558.5,460.035h-5.986c-0.673,0-1.344-0.085-1.995-0.253l-1.723-0.444l0,0
			c1.37,0.353,2.704-0.682,2.704-2.096v-59.359c0-4.13-2.481-7.78-6.322-9.3l-13.526-5.349v-58.2c0-1.657,1.343-3,3-3h4
			c1.657,0,3,1.343,3,3v51.401l7.204,2.849c7.631,3.018,12.645,10.391,12.645,18.597v59.153
			C561.5,458.692,560.157,460.035,558.5,460.035z"/>
	</g>
	<g>
		<polygon style="fill:#70574F;" points="228.866,452.305 210.5,457.035 220.5,457.035 239.266,452.305 		"/>
		<path style="fill:#4E342E;" d="M221.732,459.718l17.677-4.553c0.642-0.165,1.09-0.744,1.09-1.407l0,0
			c0-0.949-0.896-1.643-1.815-1.407l-18.185,4.684l-0.56,2.024L221.732,459.718z"/>
		<path style="fill:#6D4C41;" d="M213.5,460.035h5.986c0.673,0,1.344-0.085,1.995-0.253l1.723-0.444h0
			c-1.37,0.353-2.704-0.682-2.704-2.096v-59.359c0-4.13,2.481-7.78,6.322-9.3l13.526-5.349v-58.2c0-1.657-1.343-3-3-3h-4
			c-1.657,0-3,1.343-3,3v51.401l-7.204,2.849c-7.631,3.018-12.645,10.391-12.645,18.597v59.153
			C210.5,458.692,211.843,460.035,213.5,460.035z"/>
	</g>
</g>
<g>
	<path style="fill:#FFCCBC;" d="M517.688,279.719c0,0-0.594,2.438,2.141,4.049c1.521,0.896,4.901,1.895,6.825,2.621
		c0,0-4.914,21.866-12.863,21.866c-7.949,0-14.149-21.866-14.149-21.866c4.129-1.544,10.933-6.19,6.341-13.493
		c-3.01-4.502-5.762-9.415-5.698-17.172c0.09-9.544,3.743-12.155,14.265-12.155c5.917,0,11.568,6.429,13.624,12.532
		c-0.677,15.678-2.008,21.367-8.106,23.265C519.491,279.546,517.688,279.719,517.688,279.719z"/>
	<path style="fill:#283237;" d="M518.007,452.749c0,0,1.664,5.9,3.216,9.004c1.066,2.132,2.573,7.718,2.573,11.576
		c0,1.772,0,5.145-2.573,5.145s-4.369-2.451-5.145-3.859c-1.023-1.856-3.859-6.431-3.859-11.576c0-2.328,1.286-10.29,1.286-10.29
		H518.007z"/>
	<path style="fill:#9C1818;" d="M504.787,355.848c0,0-21.866,3.859-21.866,18.008c0,14.149,9.004,16.721,9.004,16.721h21.866
		L504.787,355.848z"/>
	<path style="fill:#9C1818;" d="M525.367,376.428c0,0-0.145,12.863-0.145,23.153c0,23.734-3.714,61.599-3.714,61.599h-10.29
		c0,0-7.718-52.596-7.718-60.313c0-5.666,0.494-10.664,6.431-18.008C512.808,379.302,525.367,376.428,525.367,376.428z"/>
	<path style="fill:#39474E;" d="M480.034,342.632c0,0-1.021-9.012-0.972-20.228c0.063-14.263,1.171-28.046,9.004-31.506
		c4.894-2.183,11.576-4.509,11.576-4.509l14.149,20.58l12.863-20.58c0,0,5.399,1.677,10.29,3.859c7.833,3.46,0,30.87,0,30.87
		s-1.286,11.576-1.286,21.866c0,10.807,7.083,23.63,7.083,23.63s-6.842-8.213-28.949-8.115c-12.816,0.057-28.356,7.711-28.356,7.711
		s5.568-12.425,5.203-23.227c-0.169-5.009-1.92-5.183-5.949-5.145C480.509,337.879,480.034,342.632,480.034,342.632z"/>
	<path style="fill:#39474E;" d="M536.944,290.248c7.833,3.46,9.004,12.863,9.004,28.298c0,20.592-5.75,24.086-5.75,24.086
		s-2.396-10.902-8.955-14.943c0,0,1.822-6.853,1.842-9.143C533.299,294,536.944,290.248,536.944,290.248z"/>
	<path style="fill:#FFC1B0;" d="M480.034,342.632c0,0,0.599,2.309,2.512,2.764c2.251,0.536,5.253,0.194,8.239,0.562
		c3.03,0.373,14.427,1.86,34.483-5.219c0,0,8.275,0.606,8.471-3.719l-8.848-1.77c0,0-5.309-1.393-11.601-1.393
		c-4.719,0-15.185-0.914-22.761-0.625c0,0-2.222-0.819-6.322,1.9C480.166,337.813,480.034,342.632,480.034,342.632z"/>
	<path style="fill:#FFC1B0;" d="M530.635,329.791c0.646-0.944,1.415-1.74,2.328-2.305c4.129-2.556,3.414-6.314,0.465-7.494
		c-2.949-1.18-6.095,0-7.865,1.77c-1.11,1.11-3.925,5.567-5.472,10.369L530.635,329.791z"/>
	<path style="fill:#FFCCBC;" d="M540.198,342.632c-3.736,1.573-12.334,2.085-32.258-4.256c-2.609-0.83-10.5-3.736-12.092-3.894
		c-1.592-0.158-5.318-1.25-5.318-1.25s0.638-2.816,2.36-4.283c1.619-1.379,4.999-1.712,8.885-1.105
		c6.02,0.94,6.753,2.892,17.778,2.703c8.311-0.142,12.977-2.859,12.977-2.859s2.378-0.675,4.307,1.469
		C542.651,335.618,540.198,342.632,540.198,342.632z"/>
	<path style="fill:#212121;" d="M513.261,241c3.898,0,10.003,1.664,13.018,7.311c1.616,3.028,1.896,7.791,1.896,7.791
		s-0.824-1.494-3.45-3.477c-1.233,4.073-8.852,10.281-11.202,13.312c-2.622,3.382,0.912,7.448,0.03,13.407
		c-0.652,4.401-4.41,5.304-5.641,11.335c-0.916,4.489,0.865,8.996,0.058,13.984c-1.649,10.196-6.207,7.217-9.327,14.963
		c-2.77,6.875-8.113-4.415-8.113-15.398c0-4.311,2.425-8.207,2.551-13.078c0.082-3.164-1.525-5.759-1.155-12.015
		c0.325-5.511,3.075-5.261,2.823-11.84C493.968,246.929,502.74,241,513.261,241z"/>
	<path style="fill:#283237;" d="M484.207,435.596c0,0-16.148,24.298-7.718,24.298c3.859,0,9.138-7.692,11.155-11.734
		s4.55-12.156,4.55-12.156L484.207,435.596z"/>
	<path style="fill:#B71C1C;" d="M524.586,391.646c0,0,20.076,0.217,20.076-17.791c0-13.473-15.141-18.018-27.012-18.008
		c-7.395,0.006-7.659,0.329-10.29,1.286c-2.703,0.983-11.944,5.323-18.329,36.337s-8.682,43.27-8.682,43.27
		c6.431,1.286,10.29,7.718,10.29,7.718s9.621-18.662,16.465-37.482c5.145-14.149,5.401-20.259,5.401-20.259L524.586,391.646z"/>
</g>
<g>
	<g>
		<path style="fill:#424242;" d="M251.916,454.936l0.929,10.489c0.073,0.823-0.363,1.601-1.104,1.967
			c-1.525,0.754-4.166,2.319-6.152,4.868c-2.962,3.802-12.653,3.248-12.653,3.248s-1.054-4.331,2.109-5.414
			c1.716-0.587,3.665-2.877,4.853-6.442c3.055-9.164,1.188-13.073,1.188-13.073L251.916,454.936z"/>
		<path style="fill:#424242;" d="M313.087,453.405c0,0-5.417,6.462-5.449,12.915c-0.003,0.51,0.224,0.994,0.584,1.355l0.776,0.779
			l-0.57,1.084c-0.37,0.703-0.064,1.572,0.664,1.888l9.338,4.062c0,0,3.562,0.894,1.781-4.918
			c-1.781-5.812-1.781-17.613-1.781-17.613L313.087,453.405z"/>
		<path style="fill:#596D79;" d="M279.116,393.537c8.367,0,30.884-22.794,30.884-22.794s-17.811-4.54-28.507-4.54
			c-14.261,0-27.386,4.508-27.386,4.508S269.608,393.537,279.116,393.537z"/>
		<path style="fill:#596D79;" d="M255.112,398.426c0,0,15.636-4.89,24.004-4.89l-17.331-22.283c0,0-14.855-3.961-28.725,8.503
			c-2.635,2.368,14.409,21.449,14.409,21.449L255.112,398.426z"/>
		<path style="fill:#596D79;" d="M303.667,398.426c0,0-15.636-4.89-24.004-4.89l23.221-23.768c0,0,12.28,0,22.278,8.319
			c2.724,2.266-13.852,23.119-13.852,23.119L303.667,398.426z"/>
		<path style="fill:#94A4AD;" d="M319.392,376.899c8.319,0,12.014,3.565,10.826,29.711c-1.012,22.256-10.696,53.479-10.696,53.479
			s-3.565-3.565-10.696-2.377c0,0-3.695-46.348-2.507-53.479C307.403,397.73,308.696,376.899,319.392,376.899z"/>
	</g>
	<path style="fill:#EEEEEE;" d="M243.567,319.363c0,0,9.528-9.185,35.83-9.185c26.302,0,29.327,6.488,29.327,6.488
		s-10.696,21.743-2.806,36.999c0,0,8.569,15.616,4.08,17.078c-14.737,4.801-31.311,12.731-31.311,12.731l-28.706-8.066
		l-0.263-31.168C249.719,344.24,252.583,327.803,243.567,319.363z"/>
	<path style="fill:#FFB300;" d="M243.565,319.366c0,0,5.792-5.587,20.808-8.049c3.015-0.494,11.717,48.275,5.259,59.338
		c-3.558,6.095-19.653,4.752-19.653,4.752l-0.257-31.164C249.723,344.244,252.579,327.807,243.565,319.366z"/>
	<path style="fill:#FFB300;" d="M309.995,370.743c-11.258,3.667-13.73,11.872-17.967-2.256c-5.916-19.728,0.142-57.781,3.874-57.16
		c11.195,1.861,12.818,5.342,12.818,5.342s-10.694,21.745-2.797,36.996C305.923,353.663,314.492,369.28,309.995,370.743z"/>
	<path style="fill:#FFC53D;" d="M307.265,315.483c0,0,9.526,4.602,12.507,23.365c2.981,18.762,6.137,28.845,3.332,33.404
		c-2.806,4.559-11.047,5.26-15.606-0.877c-4.559-6.137-1.49-25.075-1.49-27.705S298.849,327.232,307.265,315.483z"/>
	<path style="fill:#FFCCBC;" d="M241.04,364.01c0,0,2.806,1.578,5.962,2.63c3.156,1.052,8.437,1.954,14.203,2.63
		c5.236,0.614,8.914,0.583,12.246,3.739c3.332,3.156,4.597,4.817,6.212,6.859c7.326,9.261,5.732,13.066-3.028,11.119
		c-6.728-1.495-7.149-3.102-8.23-5.502c-0.448-0.994-1.143-2.273-1.761-3.359c-0.778-1.368-2.207-2.247-3.78-2.298
		c-10.487-0.335-18.317-2.705-22.966-3.015c-5.005-0.334-15.349,4.003-18.018-3.004S241.04,364.01,241.04,364.01z"/>
	<path style="fill:#FFC53D;" d="M243.567,319.363c10.93,6.262,8.883,26.291,8.883,26.291c-0.351,7.365-11.411,18.356-11.411,18.356
		s-6.771-0.24-19.16,9.801C219.211,366.805,234.123,331.849,243.567,319.363z"/>
	<path style="fill:#FFB7A1;" d="M281.049,280.018c0,0-19.036,7.95-19.036,22.411c0,16.391,12.578,28.865,19.367,28.865
		c6.127,0,19.049-12.274,19.049-28.865S281.049,280.018,281.049,280.018z"/>
	<path style="fill:#212121;" d="M281.049,280.018c-11.486,0-19.036,7.95-19.036,22.411c0,9.428,4.035,15.783,4.035,15.783
		c1.415-4.322,8.874-7.087,8.874-7.087s3.643,7.431,15.729,11.554c8.281,0,9.777-11.638,9.777-20.25
		C300.429,285.838,291.37,280.018,281.049,280.018z"/>
	<path style="fill:#FFCCBC;" d="M288.163,306.989c1.005-1.405,2.92-1.786,4.354-0.822c3.16,2.124,8.287,6.037,8.287,9.07
		c0,4.384-1.087,7.243,1.017,12.328c2.104,5.085,19.325,26.001,20.247,36.446c0.679,7.687-1.197,11.02-4.812,11.734
		c-3.273,0.646-9.426-0.523-11.706-8.589c-2.28-8.066-11.831-35.146-11.831-35.146s-8.784-6.35-9.31-9.331
		C283.94,320.022,283.527,313.472,288.163,306.989z"/>
	<path style="fill:#94A4AD;" d="M239.898,376.816c-8.319,0-11.888,2.377-10.7,28.522c1.012,22.256,10.7,53.479,10.7,53.479
		s5.942-4.754,13.073-2.377c0,0,1.314-46.348,0.126-53.479C252.012,396.459,250.593,376.816,239.898,376.816z"/>
</g>
<g>
	<path style="fill:#997055;" d="M625.612,461.982c-4.302,0.268-11.24,0.867-14.159-0.421l-11.509-25.347
		c3.474-1.36,8.974-6.832,15.199-6.832c12.059,0,12.065,1.304,20.793,1.02c10.006-0.326,15.467-2.992,24.182,0.305
		c10.284,3.891,10.84,22.839,3.561,27.713c-3.631,2.431-14.957,2.885-14.957,2.885S638.715,462.357,625.612,461.982z"/>
	<path style="fill:#94654A;" d="M619.949,448.71c0,0,7.338,10.917,4.038,13.378s-16.53,1.02-16.53,1.02l-1.178-6.161L619.949,448.71
		z"/>
	<path style="fill:#7D553E;" d="M589.323,451.163c0,0-5.61,2.925-8.811,3.181c-3.201,0.256-7.087,1.409-7.087,4.354
		s8.88,1.921,8.88,1.921l11.653-4.642L589.323,451.163z"/>
	<path style="fill:#997055;" d="M595.416,456.028c0,0-2.807-1.451-6.651-0.885c-3.227,0.475-7.704,2.225-7.453,5.49
		s9.044,2.931,10.97,2.261c0,0,4.516,0.72,7.031,0.863C601.829,463.9,605.835,458.373,595.416,456.028z"/>
	<path style="fill:#E6CEBD;" d="M597.207,463.569c-0.067,0.044-0.816-0.146-0.899-0.107c-2.06-0.253-4.025-0.567-4.025-0.567
		c-1.423,0.495-6.602,0.809-9.306-0.381v-0.003c-0.386-0.998-0.311-3.222,2.972-3.605
		C592.166,458.183,597.207,463.569,597.207,463.569z"/>
	<path style="fill:#A87E61;" d="M601.192,428.35c0,0-3.649-1.152-7.587,1.537c-3.938,2.689-6.147,11.045-6.147,11.045
		s-0.408,4.301,0.278,7.896c0.158,0.83,0.229,1.2,0.528,1.899c0.721,1.681,10.995,10.632,15.509,10.344
		c4.514-0.288,13.914-8.691,15.48-9.408c0.701-2.063,0.927-4.719,0.954-6.889c0.06-4.822-1.09-9.384-2.467-11.591
		c-1.377-2.207-3.104-5.995-11.232-5.995C603.698,427.187,601.192,428.35,601.192,428.35z"/>
	<path style="fill:#424242;" d="M597.75,447.598c0,0,3.106,2.013,1.778,2.947c-1.528,1.073-3.179,0.784-4.111-0.087
		c-0.574-0.537-0.861-1.191-0.861-1.7S597.75,447.598,597.75,447.598z"/>
	<path style="fill:#424242;" d="M607.042,446.871c0,0-0.358,3.129,0.429,3.464c0.471,0.2,1.661,0.402,2.805-0.234
		s1.432-1.359,1.222-2.503C611.288,446.454,608.376,446.553,607.042,446.871z"/>
	<path style="fill:#A87E61;" d="M608.491,431.231c0,0,1.977-7.779,7.203-7.779c1.553,0,2.974,1.326,3.543,6.339
		c0.781,6.871-1.046,9.604-1.046,9.604s-3.289-0.096-5.198-1.921C611.084,435.649,608.044,433.294,608.491,431.231z"/>
	<path style="fill:#CCA489;" d="M611.325,431.654c0.286-2.066,1.784-5.737,3.953-5.737c0,0,1.849,0.54,1.921,5.058
		c0.061,3.834-1.588,6.852-4.206,5.665C611.234,435.842,610.912,434.633,611.325,431.654z"/>
	<path style="fill:#A87E61;" d="M595.334,430.463c0,0-5.354-5.57-9.22-5.57c-2.423,0-2.553,7.949-1.729,10.756
		c0.997,3.399,3.073,5.282,3.073,5.282c1.729,0.096,3.169-2.209,4.514-2.305C593.317,438.53,595.91,434.016,595.334,430.463z"/>
	<path style="fill:#CCA489;" d="M591.876,431.803c-0.999-2.119-3.617-4.67-5.282-3.966c-1.287,0.544-1.111,6.194,0.672,8.514
		c1.06,1.379,3.116,2.306,4.15,1.441C592.958,436.502,593.49,435.226,591.876,431.803z"/>
	<path style="fill:#D4BEAF;" d="M597.893,463.081c-1.753-1.056-2.115-4.547-5.826-7.072c-2.153-1.466-2.933-3.043-3.803-5.283
		c0.523-0.536,0.862-0.618,1.715-0.624c2.938-0.025,3.686,2.341,3.98,3.049c0.661,1.593,2.337,2.778,4.116,2.967l0.556,3.012
		C598.693,458.933,599.095,463.805,597.893,463.081z"/>
	<path style="fill:#D4BEAF;" d="M619.255,451.661c-0.767,1.923-1.397,3.297-3.655,4.636c-3.601,2.135-3.44,4.576-6.033,6.783
		c-0.519-1.068,1.35-3.198,1.227-4.009c-0.16-1.053-2.347-3.694-2.347-3.694s3.2-0.662,4.548-2.821
		c1.343-2.162,2.741-2.607,3.95-2.415C617.987,450.305,618.977,450.986,619.255,451.661z"/>
	<path style="fill:#875D44;" d="M650.395,443.87c0,0-1.533,6.88,0.509,10.215c1.784,2.913,2.046,2.801,2.046,2.801l-4.229,4.419
		l-10.77,0.671C637.951,461.976,645.421,460.792,650.395,443.87z"/>
	<path style="fill:#C7997A;" d="M664.994,457.35c0,0-4.48,1.736-8.894-1.056c-2.48-1.569-7.314-1.858-9.507,2.113
		c-1.886,3.417,3.169,3.38,5.07,3.38c1.308,0,8.022,0.111,12.546-0.713C665.961,460.754,665.763,458.609,664.994,457.35z"/>
	<path style="fill:#94654A;" d="M663.559,432.836c0,0-9-12.227-17.617-12.227s-7.924,8.225-6.155,9.551
		c3.654,2.739,7.912,1.906,10.499,1.306C654.003,432.097,659.773,433.852,663.559,432.836z"/>
	<path style="fill:#7D553E;" d="M649.694,427.993c-3.495,0.274-3.124,2.842,0.592,3.473c1.858,0.316,4.23,0.912,6.61,1.303
		C656.896,432.769,653.012,427.733,649.694,427.993z"/>
	<path style="fill:#BA8F72;" d="M615.673,446.01c0,1.588-2.713,2.224-4.175,1.588s-3.833-0.799-4.152,0.649
		c-0.317,1.448,0.382,4.038,2.003,6.453c1.621,2.416,1.95,4.834,1.685,5.912c-0.775,3.148-3.485,3.834-7.153,3.945
		c-4.309,0.13-6.771-1.039-7.289-3.484c-0.272-1.282-0.062-2.786,0.76-4.346c1.26-2.393,1.978-3.42,2.177-4.933
		c0.246-1.867-0.626-3.64-2.025-3.767c-1.398-0.127-2.206,0.272-3.004,0.765c-1.703,1.052-3.791,0.641-4.056-0.682
		c-0.372-1.858,3.139-4.441,5.399-4.672c2.776-0.283,5.72,0.918,7.182,2.952c0,0,1.891-4.421,6.229-4.449
		C613.939,441.911,615.673,444.476,615.673,446.01z"/>
	<path style="fill:#E6CEBD;" d="M611.035,460.611c-0.776,3.149-3.486,3.833-7.155,3.944c-4.308,0.131-6.771-1.037-7.288-3.483
		c-0.183-0.862-0.15-1.821,0.142-2.83c0.692-0.239,1.39-0.397,2.024-0.397c3.233,0,4.717,2.007,4.717,2.007s1.676-2.007,4.528-2.007
		c0.967,0,2.221,0.261,2.977,0.681C611.152,459.405,611.152,460.139,611.035,460.611z"/>
	<path style="fill:#424242;" d="M601.602,458.593c1.056,0.079,2.011,0.293,3.31,0c1.818-0.41,2.424,0.537,2.424,1.714
		c0,0.942-1.071,3.375-3.641,3.358c-2.655-0.017-4.082-1.86-4.082-3.198C599.612,459.199,600.359,458.5,601.602,458.593z"/>
</g>
</svg>
