<?xml version="1.0" encoding="iso-8859-1"?>
<!-- Generator: Adobe Illustrator 22.1.0, SVG Export Plug-In . SVG Version: 6.00 Build 0)  -->
<svg version="1.1" id="Layer_14" xmlns="http://www.w3.org/2000/svg" xmlns:xlink="http://www.w3.org/1999/xlink" x="0px" y="0px"
	 viewBox="0 0 800 600" style="enable-background:new 0 0 800 600;" xml:space="preserve">
<rect style="fill:#FFFFFF;" width="800" height="600"/>
<g>
	
		<radialGradient id="SVGID_1_" cx="491.9627" cy="89.3833" r="238.4447" gradientTransform="matrix(1.339 0 0 1.2858 -261.1463 257.0781)" gradientUnits="userSpaceOnUse">
		<stop  offset="0.0031" style="stop-color:#FFFFFF;stop-opacity:0"/>
		<stop  offset="0.9506" style="stop-color:#FFFFFF;stop-opacity:0.8553"/>
		<stop  offset="1" style="stop-color:#FFFFFF"/>
	</radialGradient>
	<rect x="-0.375" style="fill:url(#SVGID_1_);" width="800" height="600"/>
	<rect x="-0.375" style="fill:#FFFFFF;" width="800" height="600"/>
	<rect x="79.618" y="56" style="fill:#F5F5F5;" width="640" height="373"/>
	<g>
		<g>
			<defs>
				<rect id="SVGID_2_" x="79.618" y="56" width="640" height="373"/>
			</defs>
			<clipPath id="SVGID_3_">
				<use xlink:href="#SVGID_2_"  style="overflow:visible;"/>
			</clipPath>
			<g style="clip-path:url(#SVGID_3_);">
				<rect x="204.525" y="408.409" style="fill:#D1D1D1;" width="3.591" height="26.93"/>
				
					<rect x="196.45" y="401.228" transform="matrix(0.7071 -0.7071 0.7071 0.7071 -235.4305 261.0069)" style="fill:#D1D1D1;" width="1.795" height="26.93"/>
				
					<rect x="201.831" y="413.799" transform="matrix(0.7071 -0.7071 0.7071 0.7071 -230.176 273.699)" style="fill:#D1D1D1;" width="26.93" height="1.795"/>
				<path style="fill:#D1D1D1;" d="M213.312,448.803h2.174c0.887,0,1.606-0.719,1.606-1.606v-15.639
					c0-0.887-0.719-1.606-1.606-1.606h-2.174c-0.887,0-1.606,0.719-1.606,1.606v15.639
					C211.706,448.084,212.425,448.803,213.312,448.803z"/>
				<path style="fill:#D1D1D1;" d="M197.154,448.803h2.174c0.887,0,1.606-0.719,1.606-1.606v-15.639
					c0-0.887-0.719-1.606-1.606-1.606h-2.174c-0.887,0-1.606,0.719-1.606,1.606v15.639
					C195.548,448.084,196.267,448.803,197.154,448.803z"/>
				<polygon style="fill:#EAEAEA;" points="200.934,434.441 206.32,432.645 211.706,434.441 211.706,443.417 206.32,441.622 
					200.934,443.417 				"/>
				<rect x="278.134" y="386.865" style="fill:#D1D1D1;" width="5.386" height="26.93"/>
				
					<rect x="270.957" y="379.684" transform="matrix(0.7071 -0.7071 0.7071 0.7071 -198.3737 307.3807)" style="fill:#D1D1D1;" width="1.795" height="26.93"/>
				<path style="fill:#D1D1D1;" d="M290.685,436.236h3.623c1.478,0,2.677-1.198,2.677-2.677v-21.576
					c0-1.478-1.198-2.677-2.677-2.677h-3.623c-1.478,0-2.677,1.198-2.677,2.677v21.576
					C288.008,435.037,289.206,436.236,290.685,436.236z"/>
				<path style="fill:#D1D1D1;" d="M267.345,436.236h3.623c1.478,0,2.677-1.198,2.677-2.677v-21.576
					c0-1.478-1.198-2.677-2.677-2.677h-3.623c-1.478,0-2.677,1.198-2.677,2.677v21.576
					C264.668,435.037,265.867,436.236,267.345,436.236z"/>
				<polygon style="fill:#EAEAEA;" points="273.645,415.44 280.826,412.897 288.008,415.44 288.008,428.157 280.826,425.614 
					273.645,428.157 				"/>
				<path style="fill:#D2D2D2;" d="M270.105,324.028l120.874-9.821c1.42-0.115,1.693,1.968,0.291,2.222L270.105,338.39V324.028z"/>
				<path style="fill:#D9D9D9;" d="M206.767,183.611l4.939,101.817h-12.567l4.939-101.817
					C204.169,181.725,206.676,181.725,206.767,183.611z"/>
				<path style="fill:#E0E0E0;" d="M592.704,336.913l-326.221,14.941c-0.012,0-0.024,0.006-0.031,0.016l-42.093,51.944
					c-0.026,0.032,6.211-7.629,6.259-7.65c-3.345,4.089-6.259,7.65-6.259,7.65c-0.026,0.032,0.001,0.081,0.042,0.069
					c3.664-1.04,85.777-24.277,134.523-32.28c38.541-6.328,134.585-19.29,198.609-27.786c1.588-0.211-0.997-0.049-6.859,0.428
					c16.275-1.867,30.797-3.597,42.231-5.1C594.326,338.959,594.136,336.848,592.704,336.913z"/>
				<g>
					<rect x="129.189" y="386.864" style="fill:#D1D1D1;" width="5.386" height="26.93"/>
					
						<rect x="127.395" y="392.247" transform="matrix(0.7071 -0.7071 0.7071 0.7071 -236.7381 214.7525)" style="fill:#D1D1D1;" width="26.93" height="1.795"/>
					<path style="fill:#D9D9D9;" d="M122.024,436.236H118.4c-1.478,0-2.677-1.198-2.677-2.677v-21.576
						c0-1.478,1.198-2.677,2.677-2.677h3.623c1.478,0,2.677,1.198,2.677,2.677v21.576
						C124.7,435.037,123.502,436.236,122.024,436.236z"/>
					<path style="fill:#D1D1D1;" d="M145.363,436.236h-3.623c-1.478,0-2.677-1.198-2.677-2.677v-21.576
						c0-1.478,1.198-2.677,2.677-2.677h3.623c1.478,0,2.677,1.198,2.677,2.677v21.576
						C148.04,435.037,146.841,436.236,145.363,436.236z"/>
					<polygon style="fill:#EAEAEA;" points="139.063,415.44 131.882,412.897 124.7,415.44 124.7,428.157 131.882,425.614 
						139.063,428.157 					"/>
				</g>
				<path style="fill:#D2D2D2;" d="M353.978,386.839c29.661,1.196,46.425-0.093,67.242,0c0,18.568-15.053,33.621-33.621,33.621
					S353.978,405.408,353.978,386.839z"/>
				<path style="fill:#EEEEEE;" d="M353.978,386.839c0-18.568,15.053-33.621,33.621-33.621s33.621,15.053,33.621,33.621
					c0,5.043-15.053,8.405-33.621,8.405S353.978,391.882,353.978,386.839z"/>
				<circle style="fill:#D4D4D4;" cx="387.599" cy="386.839" r="24.375"/>
				<circle style="fill:#B5B5B5;" cx="387.599" cy="386.839" r="5.884"/>
				<path style="fill:#D2D2D2;" d="M141.657,324.028l-120.874-9.821c-1.42-0.115-1.693,1.968-0.291,2.222l121.165,21.961V324.028z"
					/>
				<path style="fill:#E0E0E0;" d="M145.279,351.855l-326.221-14.941c-1.432-0.066-1.622,2.046-0.2,2.233
					c56.363,7.41,187.75,20.332,234.412,27.993c48.746,8.003,124.21,27.984,127.873,29.024c0.04,0.011,6.286,7.684,6.26,7.651
					L145.31,351.87C145.303,351.861,145.291,351.855,145.279,351.855z"/>
				<path style="fill:#E0E0E0;" d="M171.331,384.17c-43.088-17.055-330.593-42.143-317.101-40.352
					c64.024,8.496,160.069,21.458,198.609,27.786c48.746,8.003,130.859,31.24,134.523,32.28c0.04,0.011,0.068-0.037,0.042-0.069
					C187.403,403.815,171.331,384.171,171.331,384.17z"/>
				<path style="fill:#D2D2D2;" d="M57.784,386.839c-29.661,1.196-46.425-0.093-67.242,0c0,18.568,15.053,33.621,33.621,33.621
					S57.784,405.408,57.784,386.839z"/>
				<path style="fill:#F6F6F6;" d="M57.784,386.839c0-18.568-15.053-33.621-33.621-33.621s-33.621,15.053-33.621,33.621
					c0,5.043,15.053,8.405,33.621,8.405S57.784,391.882,57.784,386.839z"/>
				<circle style="fill:#C2C2C2;" cx="24.164" cy="386.839" r="24.375"/>
				<circle style="fill:#CCCCCC;" cx="24.164" cy="386.839" r="5.884"/>
				<path style="fill:#E9E9E9;" d="M134.507,340.186c0-39.166,31.75-70.915,70.915-70.915s70.915,31.75,70.915,70.915
					c0,3.041-0.191,6.037-0.563,8.976c-24.312,15.662-116.513,15.017-140.699,0.048
					C134.701,346.255,134.507,343.243,134.507,340.186z"/>
				<path style="fill:#D8D8D8;" d="M206.147,318.499c4.775-0.935,31.903-6.141,44.158-6.141l8.977,19.749l-6.284,6.284
					c0,0-3.591-4.488-17.056-4.488s-30.521,3.591-30.521,3.591V319.38C205.423,318.95,205.726,318.581,206.147,318.499z"/>
				<path style="fill:#D8D8D8;" d="M204.698,318.499c-4.775-0.935-31.903-6.141-44.158-6.141l-8.977,19.749l6.284,6.284
					c0,0,3.591-4.488,17.056-4.488s30.521,3.591,30.521,3.591V319.38C205.423,318.95,205.119,318.581,204.698,318.499z"/>
				<path style="fill:#EAEAEA;" d="M150.651,333.018l6.283,6.284c0.242,0.242,0.57,0.378,0.912,0.378
					c0.024,0,0.047-0.001,0.071-0.002c0.366-0.02,0.706-0.195,0.936-0.482c0.021-0.024,3.568-4.005,16.049-4.005
					c13.179,0,30.085,3.527,30.255,3.563c0.039,0.008,0.078,0.007,0.118,0.011c0.049,0.006,0.098,0.014,0.148,0.014
					c0.049,0,0.097-0.008,0.146-0.014c0.04-0.005,0.08-0.003,0.12-0.012c0.169-0.036,17.084-3.563,30.255-3.563
					c12.495,0,16.016,3.965,16.048,4.005c0.229,0.286,0.569,0.462,0.936,0.482c0.024,0.001,0.047,0.002,0.071,0.002
					c0.341,0,0.669-0.135,0.912-0.378l6.284-6.284c0.38-0.38,0.485-0.956,0.262-1.445l-8.977-19.749
					c-0.209-0.46-0.668-0.756-1.174-0.756c-12.3,0-39.149,5.135-44.407,6.165h-0.001c-0.168,0.033-0.325,0.091-0.476,0.16
					c-0.151-0.068-0.308-0.127-0.476-0.16h-0.001c-5.257-1.029-32.103-6.165-44.407-6.165c-0.506,0-0.965,0.296-1.174,0.756
					l-8.976,19.749C150.166,332.062,150.271,332.638,150.651,333.018z M206.712,319.702c2.928-0.571,10.782-2.068,19.396-3.43
					l3.6,16.559c-9.501,0.617-19.282,2.374-22.995,3.09v-16.219H206.712z M257.739,331.827l-4.241,4.242l-8.417-22.191
					c1.587-0.12,3.072-0.199,4.399-0.222L257.739,331.827z M235.943,332.613c-1.185,0-2.399,0.029-3.627,0.08l-3.656-16.817
					c4.7-0.714,9.496-1.358,13.749-1.768l7.977,21.032C247.656,333.882,243.129,332.613,235.943,332.613z M204.133,335.921
					c-3.714-0.716-13.494-2.474-22.995-3.09l3.6-16.56c8.614,1.363,16.468,2.86,19.396,3.431v16.219H204.133z M174.902,332.613
					c-7.185,0-11.713,1.27-14.444,2.527l7.978-21.032c4.253,0.41,9.049,1.053,13.748,1.768l-3.656,16.817
					C177.301,332.642,176.086,332.613,174.902,332.613z M153.107,331.827l8.259-18.172c1.328,0.023,2.812,0.103,4.399,0.222
					l-8.417,22.191L153.107,331.827z"/>
				<path style="fill:#F5F5F5;" d="M205.423,353.651c39.166,0,70.353-4.489,70.353-4.489c-4.412,34.928-34.228,61.939-70.353,61.939
					c-36.108,0-65.914-26.987-70.347-61.891C135.076,349.21,166.257,353.651,205.423,353.651z"/>
				<path style="fill:#F5F5F5;" d="M179.39,371.604c0-14.377,11.655-26.032,26.032-26.032s26.032,11.655,26.032,26.032
					s-11.655,26.032-26.032,26.032c-12.466,0-22.886-8.763-25.436-20.465C179.596,375.378,179.39,373.515,179.39,371.604z"/>
			</g>
		</g>
		<g>
			<defs>
				<rect id="SVGID_4_" x="79.618" y="56" width="640" height="373"/>
			</defs>
			<clipPath id="SVGID_5_">
				<use xlink:href="#SVGID_4_"  style="overflow:visible;"/>
			</clipPath>
			<g style="clip-path:url(#SVGID_5_);">
				<path style="fill:#C4C4C4;" d="M434.557,146.648l-5.027,6.837c-0.31,0.421-0.715,0.763-1.183,0.996l-6.299,3.144l-3.724-2.515
					l-1.946-2.143c0,0,4.444,1.826,8.239-0.638c2.524-1.639,4.988-3.765,6.355-5.005c0.713-0.646,1.673-0.943,2.626-0.81
					L434.557,146.648z"/>
				<path style="fill:#E0E0E0;" d="M466.544,165.332L477,145.225l-4.923-0.687c-1.027-0.143-2.069,0.123-2.902,0.74l-16.962,12.583
					c-2.382,1.767-5.429,2.372-8.305,1.646c-6.276-1.585-18.328-4.677-31.62-8.344c-25.325-6.987-54.796-15.103-59.466-10.738
					l-2.253,1.446c0,0-5.311,0.215-5.629,2.499c-0.319,2.284,0.041,6.159,35.879,13.932l-0.622,4.459c0,0,1.542,2.46,10.812,2.174
					l0.294-0.915l5.883,0.447l0.455-1.475l1.859,0.384c0,0-0.038,0.868,0.755,1.145c0.793,0.277,1.393,0.444,1.393,0.444
					l0.187,2.232l1.202,0.914l0.501-3.589l1.458,0.287l0.099,1.677l0.775,0.108l0.583-1.499c0,0,21.308,4.455,34.064,5.585
					c19.163,1.698,32.936-0.042,32.936-0.042l0.367-2.627l-1.812-0.496l1.979-0.698
					C473.987,166.818,471.742,165.244,466.544,165.332z"/>
				<circle style="fill:#C4C4C4;" cx="405.337" cy="167.934" r="2.032"/>
				<circle style="fill:#E0E0E0;" cx="359.33" cy="157.605" r="1.112"/>
				<polygon style="fill:#E0E0E0;" points="359.143,157.184 359.792,157.275 362.143,152.343 361.494,152.253 				"/>
				<polygon style="fill:#E0E0E0;" points="359.547,155.049 359.285,155.616 360.846,156.366 361.125,155.806 				"/>
				<polygon style="fill:#E0E0E0;" points="360.142,155.088 360.791,155.179 359.859,152.024 359.21,151.934 				"/>
				<circle style="fill:#E0E0E0;" cx="402.226" cy="168.775" r="2.032"/>
			</g>
		</g>
	</g>
	<g>
		<polygon style="fill:#FAFAFA;" points="719.618,219.95 719.618,279.92 382.819,56.84 383.378,56 472.078,56 		"/>
	</g>
	<g>
		<polygon style="fill:#FAFAFA;" points="719.618,302.42 346.818,56 310.558,56 719.618,326.39 		"/>
	</g>
	<g>
		<polygon style="fill:#FAFAFA;" points="446.178,429 391.808,429 79.618,222.45 79.618,186.48 		"/>
	</g>
	<g>
		<polygon style="fill:#FAFAFA;" points="358.469,429 322.149,429 79.618,268.94 79.618,244.97 		"/>
	</g>
	<rect x="279.118" y="50.301" style="fill:#FFFFFF;" width="21" height="384.398"/>
	<rect x="499.118" y="50.301" style="fill:#FFFFFF;" width="21" height="384.398"/>
	
		<radialGradient id="SVGID_6_" cx="492.2429" cy="89.1889" r="238.4447" gradientTransform="matrix(1.339 0 0 1.2858 -261.1463 257.0781)" gradientUnits="userSpaceOnUse">
		<stop  offset="0.0031" style="stop-color:#FFFFFF;stop-opacity:0"/>
		<stop  offset="0.8167" style="stop-color:#FFFFFF;stop-opacity:0.7344"/>
		<stop  offset="0.9506" style="stop-color:#FFFFFF;stop-opacity:0.8553"/>
		<stop  offset="1" style="stop-color:#FFFFFF"/>
	</radialGradient>
	<rect y="-0.25" style="fill:url(#SVGID_6_);" width="800" height="600"/>
	
		<linearGradient id="SVGID_7_" gradientUnits="userSpaceOnUse" x1="396.625" y1="1680.3665" x2="396.625" y2="1660.3665" gradientTransform="matrix(1 0 0 1 0 -1179.3665)">
		<stop  offset="0" style="stop-color:#FFFFFF"/>
		<stop  offset="1" style="stop-color:#E0E0E0"/>
	</linearGradient>
	<path style="opacity:0.2;fill:url(#SVGID_7_);enable-background:new    ;" d="M710.625,481L710.625,481
		c0,11.045-8.966,20-20.026,20H102.651c-11.06,0-20.026-8.954-20.026-20l0,0H710.625z"/>
</g>
<g>
	<path style="fill:#FFCCBC;" d="M403.078,219.167c0,0-12.635-0.686-14.039,13.723c-1.404,14.409-0.209,18.487,1.501,21.286
		c0.902,1.477,1.059,3.351,0.446,4.969c-0.733,1.933-6.411,2.488-6.411,2.488c-3.568,5.947,11.681,15.751,11.681,15.751
		l16.865-5.046l-4.734-10.262c-0.387-1.45,0.16-3.868,1.172-4.976c1.298-1.419,2.558-3.356,3.127-5.859
		c1.404-6.175,3.016-10.779,3.295-14.409C416.998,223.613,409.266,219.161,403.078,219.167z"/>
	<path style="fill:#64B5F6;" d="M401.475,271.847c0,0-1.349,1.555-3.97,2.379l-2.333-2.116l2.797-5.94L401.475,271.847z"/>
	<g>
		<path style="fill:#FFCCBC;" d="M373.909,439.703c0,15,2.999,26.125,2.999,31.672c0,1,0,3,0,3v2h8v-5c0-5.319,5-18.625,5-29.5"/>
		<path style="fill:#212121;" d="M373.654,483.562c-2.073,3.687-3.37,5.617-3.37,8.135c0,3.254,3.099,4.803,3.099,4.803
			s9.917,0,11.776-8.677c1.069-4.99,3.719-4.958,3.719-8.677c0-2.247-1.24-6.198-1.24-6.198s-1.24,1.24-6.198,1.24
			c-3.719,0-3.719-1.24-3.719-1.24S378.148,475.569,373.654,483.562z"/>
	</g>
	<g>
		<path style="fill:#FFCCBC;" d="M423.368,439.703c0,15-2.999,26.125-2.999,31.672c0,1,0,3,0,3v2h-8v-5c0-5.319-5-18.625-5-29.5"/>
		<path style="fill:#212121;" d="M424.755,483.562c2.073,3.687,3.37,5.617,3.37,8.135c0,3.254-3.099,4.803-3.099,4.803
			s-9.917,0-11.776-8.677c-1.069-4.99-3.719-4.958-3.719-8.677c0-2.247,1.24-6.198,1.24-6.198s1.24,1.24,6.198,1.24
			c3.719,0,3.719-1.24,3.719-1.24S420.261,475.569,424.755,483.562z"/>
	</g>
	<path style="fill:#0D47A1;" d="M426.241,353.987l-27.011,0.048h-0.155h-0.155l-27.011-0.048c0,0,0,37.871,1.546,60.707
		c-1.546,19.542,1.558,62.515,1.558,62.515s2.04,2.541,7.987,2.541s6.75-3.125,6.75-3.125s6.791-45.957,6.102-62.87
		c1.152-7.409,2.624-27.593,3.165-34.402c0.581,6.884,2.133,27.019,3.281,34.402c-0.69,16.913,5.952,63.37,5.952,63.37
		s0.928,2.625,6.875,2.625s8.011-2.541,8.011-2.541s3.104-42.973,1.558-62.515C426.241,391.858,426.241,353.987,426.241,353.987z"/>
	<path style="fill:#212121;" d="M403.078,219.167c0,0-12.635-0.686-14.039,13.723c-0.324,3.326-0.573,6.102-0.743,8.438
		c-0.237,3.247,1.633,2.125,2.282-1.049c0.996-4.871,2.384-11.759,5.011-10.967c2.568,0.775,11.901,2.164,14.867,1.883
		c3.667-0.347,2.265,6.451,3.124,10.569c0.42,2.014,1.483,3.324,1.582,2.655c0.439-2.952,0.654-5.439,0.819-7.586
		C416.998,223.613,409.266,219.161,403.078,219.167z"/>
	
		<ellipse transform="matrix(0.19 -0.9818 0.9818 0.19 93.4158 605.0148)" style="fill:#FFCCBC;" cx="413.37" cy="245.894" rx="4.163" ry="3.568"/>
	<ellipse style="fill:#FFCCBC;" cx="389.557" cy="243.544" rx="3.568" ry="4.163"/>
	<path style="fill:#424242;" d="M369.506,321.089l7.273,8.629l-7.273,13.541c0,0-7.445-7.082-9.23-9.973
		C358.268,330.032,360.648,321.089,369.506,321.089z"/>
	<g>
		<path style="fill:#424242;" d="M428.725,321.089l-7.273,8.629l7.273,13.541c0,0,7.445-7.082,9.23-9.973
			C439.963,330.032,437.583,321.089,428.725,321.089z"/>
		<path style="fill:#616161;" d="M433.875,273.905c-2.2-2.89-6.185-6.221-10.705-7.517c-4.865-1.392-14.783-4.312-14.783-4.312
			s-1.277,4.752-10.882,10.96c-3.776-3.235-12.93-11.403-12.93-11.403s-4.649,0.984-9.514,2.376
			c-4.52,1.297-8.504,4.627-10.705,7.517c-7.802,10.217-11.775,27.963-13.083,44.805c3.354,20.672,18.233,26.928,18.233,26.928
			s-14.273-17.02,0-22.17l1.986-15.451v49.955h27.031h28.215v-49.955l1.986,15.451c14.273,5.15,0,22.17,0,22.17
			s14.879-6.256,18.233-26.928C445.65,299.489,441.677,284.122,433.875,273.905z"/>
	</g>
	<rect x="368.982" y="300.845" style="fill:#B71C1C;" width="60.294" height="44.729"/>
	<rect x="372.55" y="304.413" style="fill:#FFFFFF;" width="53.158" height="37.593"/>
	<path style="fill:#FFCCBC;" d="M362.52,322.847c0.582-2.753,2.625-5.059,5.359-5.726c0.284-0.069,0.547-0.11,0.774-0.11
		c1.586,0,5.352,1.586,5.551,4.163c0.198,2.577,0.329,12.508-5.222,13.4v4.857C368.982,339.431,360.146,334.074,362.52,322.847z"/>
	<path style="fill:#FFCCBC;" d="M435.711,322.847c-0.582-2.753-2.625-5.059-5.359-5.726c-0.284-0.069-0.547-0.11-0.774-0.11
		c-1.586,0-5.352,1.586-5.551,4.163s-0.329,12.508,5.222,13.4v4.857C429.249,339.431,438.085,334.074,435.711,322.847z"/>
	<path style="fill:#90CAF9;" d="M404.235,263.309c-1.524,0.948-2.866,1.08-6.266,2.86c1.109,2.652,2.944,5.915,4.749,8.153
		c0,0,1.768-1.091,6.582-4.702c3.761-2.821,3.844-6.148,3.844-6.148s-2.393-1.254-4.679-4.044
		C408.466,259.43,408.695,260.534,404.235,263.309z"/>
	<path style="fill:#90CAF9;" d="M397.969,266.17c0,0-2.495,7.329-5.116,8.153c0,0-5.37-8.127-8.279-12.689
		c2.909-2.635,6.685-3.565,6.685-3.565C392.848,259.751,396.224,265.26,397.969,266.17z"/>
	<g>
		<rect x="388.257" y="313.617" style="fill:#B71C1C;" width="3.837" height="19.185"/>
		<rect x="398.489" y="313.617" style="fill:#B71C1C;" width="3.837" height="19.185"/>
		<rect x="406.163" y="320.012" style="fill:#B71C1C;" width="3.837" height="12.79"/>
		<rect x="406.163" y="313.617" style="fill:#B71C1C;" width="3.837" height="3.837"/>
		<rect x="390.815" y="321.291" style="fill:#B71C1C;" width="8.953" height="3.837"/>
	</g>
</g>
<g>
	<rect x="238.724" y="347.738" style="fill:#64B5F6;" width="43.45" height="23.795"/>
	<g>
		<path style="fill:#FFCCBC;" d="M235.72,439.453c0,15,2.999,27.125,2.999,32.672c0,1,0,3,0,3l-0.345,3.062l8.345-1.062v-6
			c0-5.319,5-18.625,5-29.5"/>
		<path style="fill:#5D4037;" d="M235.341,479.78c-3.184,2.046-2.912,1.315-5.363,3.815c-2.165,2.208-2.23,4.158-2.23,4.158
			s6.669,3.07,11.518-2.083c2.359-2.506,7.762-1.725,7.566-5.254c-0.138-2.488-0.114-5.208-0.114-5.208s-0.511,1.697-3.687,1.818
			c-2.563,0.098-4.415-0.994-4.415-0.994S238.498,477.752,235.341,479.78z"/>
	</g>
	<g>
		<path style="fill:#FFCCBC;" d="M284.542,439.375c0,15-2.179,24.771-2.917,31.667c-0.106,0.994-0.387,5.041-0.387,5.041
			l-1.655,6.668l-6.027-7.5l0.027-3.5c0-5.319-5-19.625-5-30.5"/>
		<path style="fill:#5D4037;" d="M284.042,481.458c1.962,2.547,3.281,3.554,4.126,5.29c0.961,1.974,0.724,3.635,0.724,3.635
			s-8.084,1.655-10.741-4.537c-1.41-3.285-5.439-3.289-5.439-5.859c0-1.552,0.845-4.737,0.845-4.737s1.48,1.232,5.018,1.232
			c2.653,0,2.664-0.399,2.664-0.399S281.175,477.738,284.042,481.458z"/>
	</g>
	<g>
		<path style="fill:#B71C1C;" d="M266.337,465.829c-2.712-18.281-6.126-88.776-6.126-88.776s-2.902,70.084-5.614,88.365
			l-22.681,0.082c0,0-0.562-96.234,7.871-128.054h41.325c8.433,31.821,8.222,128.383,8.222,128.383L266.337,465.829L266.337,465.829
			z"/>
		<rect x="238.724" y="318.456" style="fill:#DD3636;" width="43.45" height="30.283"/>
	</g>
	<path style="fill:#3E2723;" d="M275.317,246.217v17.273c0,0-2.973,7.15-14.867,7.15c-10.705,0-14.867-5.961-14.867-5.961v-18.462"
		/>
	<path style="fill:#FFCCBC;" d="M274.128,247.276c0,6.435-4.813,21.539-13.738,21.539c-9.515,0-13.618-15.104-13.618-21.539
		s6.124-11.652,13.678-11.652C268.004,235.624,274.128,240.841,274.128,247.276z"/>
	<path style="fill:#FFCCBC;" d="M271.993,276.731c-8.716-3.463-5.714-11.47-5.714-11.47h-11.835c0,0,2.737,9.295-5.537,11.47
		c0,0,4.782,20.63,12.138,20.63C268.4,297.361,271.993,276.731,271.993,276.731z"/>
	<path style="fill:#3E2723;" d="M259.855,231.944c-9.515,0-14.273,7.136-14.273,14.273c0,7.564,2.533,11.894,2.533,11.894
		c0-0.832,1.576-1.873,2.224-4.758c0,0-0.449-8.502,1.588-9.92c1.995-1.389,3.27,5.241,8.522,5.241c7.415,0,9.391,6.796,9.391,6.796
		l0.719-3.306c3.397,1.078,3.419,4.546,3.419,5.352c0,0,1.339-3.421,1.339-11.299C275.317,242.649,272.938,231.944,259.855,231.944z
		"/>
	<ellipse style="fill:#FFCCBC;" cx="250.34" cy="257.516" rx="3.568" ry="4.163"/>
	<path style="fill:#FFCCBC;" d="M319.378,322.173c0,0,6.221-3.804,7.179-2.428c0.794,1.14-1.343,2.387-2.012,3.056
		s10.306,4.328,9.811,7.08c-0.451,2.504-4.029,3.487-7.88,3.294c-3.609-0.181-8.15-0.799-9.953-1.637
		C315.234,330.938,319.378,322.173,319.378,322.173z"/>
	<path style="fill:#FFCCBC;" d="M201.269,322.173c0,0-6.221-3.804-7.179-2.428c-0.794,1.14,1.343,2.387,2.012,3.056
		s-10.306,4.328-9.811,7.08c0.451,2.504,4.029,3.487,7.88,3.294c3.609-0.181,8.15-0.799,9.953-1.637
		C205.413,330.938,201.269,322.173,201.269,322.173z"/>
	<path style="fill:#F5F5F5;" d="M271.985,276.731c-6.57,5.859-16.502,5.859-23.072,0l-0.002-0.002l-11.519,26.902l3.519,33.978
		h35.076l6.187-32.358l-10.187-28.521C271.987,276.729,271.987,276.729,271.985,276.731z"/>
	<ellipse style="fill:#FFCCBC;" cx="270.559" cy="256.327" rx="3.568" ry="4.163"/>
	<path style="fill:#5D4037;" d="M248.906,276.731c0,0-2.995,13.443-2.995,25.59c0,11.205,1.169,34.325,1.03,46.417h-14.324
		c-1.091,0-1.98-0.877-2.001-1.968c-0.638-32.796,2.18-30.711,2.18-30.711l-6.977,9.354c-3.613,2.786-9.757,3.434-15.687,4.98
		c-1.977,0.515-3.93,0.908-5.758,1.143l-2.855-9.365c0,0,2.786-1.174,5.45-2.728c4.463-2.603,7.602-3.859,10.964-7.436
		c6.922-8.873,7.327-15.748,14.903-25.68c2.141-2.807,6.196-5.509,10.395-7.303C247.665,277.133,248.906,276.731,248.906,276.731z"
		/>
	<path style="fill:#5D4037;" d="M271.993,276.731c0,0,2.995,15.633,2.995,26.72c0,9.284-2.284,33.195-2.021,45.287h14.317
		c1.09,0,1.979-0.875,2.001-1.965c0.65-31.414-1.329-30.903-1.329-30.903l7.123,9.544c3.613,2.786,9.757,3.434,15.687,4.98
		c1.977,0.515,3.93,0.908,5.758,1.143l2.855-9.365c0,0-2.979-1.12-5.694-2.886c-3.578-2.328-7.433-3.781-10.72-7.277
		c-6.922-8.873-7.327-15.748-14.903-25.68c-2.141-2.807-6.076-5.823-10.395-7.303C273.664,277.655,271.993,276.731,271.993,276.731z
		"/>
</g>
<g>
	<polygon style="fill:#FAD6B7;" points="511.739,474.773 521.608,474.773 521.608,460.731 510.925,460.731 	"/>
	<g>
		<path style="fill:#212121;" d="M507.632,480.487c-2.793,3.005-4.59,4.127-5.869,6.231c-1.454,2.394-1.35,4.532-1.35,4.532
			s10.074,3.061,14.184-4.49c2.181-4.007,7.3-3.534,7.604-6.798c0.184-1.972-0.593-7.182-0.593-7.182s-2.374,1.561-7.205,1.561
			c-2.137,0-2.753-1.094-2.753-1.094C511.641,473.248,511.709,476.101,507.632,480.487z"/>
	</g>
	<path style="fill:#F9A825;" d="M588.706,316.637c-4.888,1.594-12.988,2.295-18.174-0.809c-4.924-2.95-10.705-6.625-10.705-6.625
		c1.712-16.419-0.879-35.222-4.758-41.629c3.202,0.523,18.888,12.75,26.357,28.76c5.614,0.618,13.226,1.844,14.225,5.757
		C598.138,311.844,592.155,315.495,588.706,316.637z"/>
	<path style="fill:#F9A825;" d="M499.732,273.364c0,0-16.834,26.409-19.212,36.222l-8.326-1.784c0,0,7.731,5.501,5.352,10.407
		s-8.474,0-8.474,0s5.798,11.597,12.935,12.34c7.136,0.743,12.043-4.312,12.043-4.312s6.096,1.189,10.705-2.527
		C509.362,319.993,499.732,273.364,499.732,273.364z"/>
	<path style="fill:#E39922;" d="M480.641,309.114c-0.044,0.161-0.085,0.319-0.122,0.472l5.36,7.598
		C485.879,317.184,484.958,310.25,480.641,309.114z"/>
	<path style="fill:#FAD6B7;" d="M524.558,220.646c0,0,13.616-4.316,14.039,10.154c0.433,14.818-0.747,19.473-2.458,22.273
		c-0.902,1.477-1.432,6.341,1.086,8.094c1.696,1.181,10.566,9.799,10.566,9.799c3.568,5.947-16.3,6.418-16.3,6.418l-18.391-7.047
		c0,0,6.388-5.75,7.929-8.136c1.289-1.994-0.271-5.957-1.284-7.065c-1.298-1.419-2.082-2.348-3.606-5.984
		c-2.448-5.84-4.206-10.779-4.485-14.409C510.638,221.524,518.369,220.641,524.558,220.646z"/>
	<polygon style="fill:#FAD6B7;" points="547.902,474.773 538.033,474.773 538.033,460.731 548.717,460.731 	"/>
	<path style="fill:#616161;" d="M503.584,346.851l25.878-4.71l26.377,4.71c0,31.924,0.389,39.086-1.501,67.843
		c1.501,19.542-2.513,51.81-2.513,51.81s-2.853-1.641-8.627-1.641s-8.349,1.641-8.349,1.641s-2.927-35.836-2.257-52.75
		c-1.119-7.409-2.548-33.54-3.073-40.349c-0.564,6.884-0.882,32.966-1.997,40.349c0.67,16.913-2.257,52.75-2.257,52.75
		s-2.575-1.641-8.349-1.641s-8.627,1.641-8.627,1.641s-4.014-32.268-2.513-51.81C503.885,385.937,503.584,378.774,503.584,346.851z"
		/>
	<path style="fill:#3E2723;" d="M529.724,217.821c0,0,10.103-1.744,10.062,12.979c-0.009,3.342,0.068,6.492-0.446,8.438
		c-0.832,3.147-1.633,2.125-2.282-1.049c-0.996-4.871-1.195-11.759-3.821-10.967c-2.568,0.775-9.57,3.092-17.246,1.883
		c-3.639-0.573-1.076,6.451-1.934,10.569c-0.42,2.014-1.215,3.223-1.582,2.655c-0.91-1.41-2.168-5.768-2.559-7.885
		C506.852,217.882,518.081,212.507,529.724,217.821z"/>
	
		<ellipse transform="matrix(0.9818 -0.19 0.19 0.9818 -36.9364 102.3777)" style="fill:#FAD6B7;" cx="515.463" cy="243.823" rx="3.568" ry="4.163"/>
	<ellipse style="fill:#FAD6B7;" cx="536.889" cy="241.455" rx="3.568" ry="4.163"/>
	<g>
		<path style="fill:#212121;" d="M552.009,480.487c2.793,3.005,4.59,4.127,5.869,6.231c1.454,2.394,1.35,4.532,1.35,4.532
			s-10.074,3.061-14.184-4.49c-2.181-4.007-7.3-3.534-7.604-6.798c-0.184-1.972,0.593-7.182,0.593-7.182s2.374,1.561,7.205,1.561
			c2.137,0,2.753-1.094,2.753-1.094C548,473.248,547.932,476.101,552.009,480.487z"/>
	</g>
	<path style="fill:#424242;" d="M537.228,261.163c0,0-0.06,0.797-0.167,2.224c-0.892,11.43-5.007,63.205-7.006,69.223
		c0,0-0.19-0.619-0.511-1.748c-0.488-1.713-1.297-4.591-2.272-8.219c-4.603-17.341-12.798-51.917-7.077-59.589
		c0.238-0.345,0.523-0.63,0.833-0.856l0.036-1.606l-0.312-2.777c3.509,0.773,9.242,0.06,14.82-1.427l1.24,3.836L537.228,261.163z"/>
	<path style="fill:#FFC71C;" d="M561.109,306.112c-0.047,10.443-0.83,29.385-4.851,35.205v5.947l-52.678-0.416v-5.947
		c-4.06-1.836-6.078-17.77-6.672-23.514c-1.249-12.298-1.002-42.428,3.188-44.555c4.916-2.495,10.13-5.229,19.946-9.919
		c0.363-0.174,0.654-0.464,0.987-0.714c0,0,1.082,1.546,3.271,1.534l4.389,61.896c0,0,5.424-15.736,4.627-61.837
		c3.128-0.25,3.913-2.629,3.913-2.629s0.642,0.083,1.677,0.238c3.176,0.476,16.428,4.731,16.164,6.173
		C558.272,268.098,561.186,288.927,561.109,306.112z"/>
	<g>
		<path style="fill:#F9A825;" d="M538.906,261.401c-0.404,0.559-1.023,1.308-1.844,1.986c-0.714,0.583-1.57,1.106-2.545,1.38
			c0.345,24.668-2.533,45.554-4.258,58.09l-0.393,2.89l-0.321,5.114l-0.63,14.867l-2.367,0.012c0,0,0.626-11.038,0.94-20.149
			l-0.214-2.95l-4.092-57.876c-1.166-0.309-2.212-1.047-2.985-1.713c-0.059-0.06-0.107-0.095-0.155-0.143
			c0.333-0.226,0.654-0.464,0.987-0.714l0.036-1.606c0.714,0.749,2.117,1.998,3.223,1.951h1.118l3.651,51.453
			c1.665-12.941,3.414-30.08,3.069-50.192l-0.024-1.118l1.118-0.083c1.618-0.131,2.902-1.475,3.592-2.379l0.416,0.94
			C537.228,261.163,537.871,261.247,538.906,261.401z"/>
	</g>
	<g>
		<path style="fill:#F9A825;" d="M550.925,332.701c-8.399-4.04-8.496-17.436-8.496-18.004l2-0.001
			c0,0.127,0.099,12.709,7.363,16.202L550.925,332.701z"/>
	</g>
	<g>
		<path style="fill:#F9A825;" d="M504.799,333.106l-1.113-1.662c6.695-4.488,5.01-16.956,4.991-17.081l1.98-0.283
			C510.737,314.643,512.541,327.916,504.799,333.106z"/>
	</g>
	<polyline style="fill:#F9A825;" points="503.58,340.901 503.58,349.226 556.259,349.643 556.259,341.317 	"/>
	<path style="fill:#FAD6B7;" d="M475.979,308.613c2.233,2.863,3.021,4.554,2.558,7.22c-0.326,1.877-1.037,5.255-5.05,5.052
		c-2.563-0.13-5.734-0.715-8.743-1.9c-1.586-0.625-6.745-3.485-7.328-7.901c-0.337-2.548,0.074-8.083,3.5-8.083
		c2.016,0,4.499,4.817,8.395,4.077c1.418-0.269-1.369-3.474,0.189-4.232C471.25,301.994,473.396,305.301,475.979,308.613z"/>
	<path style="fill:#BDBDBD;" d="M525.265,466.504c0,0-8.886,3.296-16.976,0c-1.472-2.453-0.423-4.686-0.423-4.686
		s10.781,1.78,17.886,0.293C527.381,463.977,525.265,466.504,525.265,466.504z"/>
	<path style="fill:#BDBDBD;" d="M551.825,466.504c-9.792,2.998-16.976,0-16.976,0s-2.13-2.893-0.518-4.686
		c9.693,1.982,17.87,0.558,17.87,0.558S553.109,464.15,551.825,466.504z"/>
	<g>
		<g>
			<path style="fill:#43A047;" d="M589.801,277.042l1.39-0.397c-0.971-3.394-4.525-5.297-4.676-5.376l-0.674,1.279
				C585.872,272.564,589.002,274.25,589.801,277.042z"/>
		</g>
		<g>
			<path style="fill:#43A047;" d="M576.2,270.719c0,0,1.524-0.355,3.155-1.418c1.631-1.064,5.562-1.418,8.219,0.605
				c2.705,2.06,0.759,6.055-1.794,6.055c-2.562,0-3.483-1.91-3.838-3.186C581.588,271.499,580.844,270.365,576.2,270.719z"/>
		</g>
		<g>
			<path style="fill:#2E7D32;" d="M608.074,284.462c0,0-1.933-1.368-2.946-2.889c-1.763-2.647-7.859-3.363-11.312-1.012
				c-3.516,2.394-0.976,7.512,2.213,7.682c3.2,0.17,5.068-1.113,6.157-2.362C603.44,284.444,605.571,283.865,608.074,284.462z"/>
		</g>
		<g>
			<path style="fill:#2E7D32;" d="M588.845,287.648l-1.358-0.496c0.785-2.149,5.201-2.784,6.078-2.89l0.173,1.435
				C591.974,285.91,589.199,286.679,588.845,287.648z"/>
		</g>
		<g>
			<path style="fill:#388E3C;" d="M611.46,264.327c-1.367,0.389-2.875,1.062-4.248,1.781c-1.39,0.74-2.732,1.584-4.012,2.518
				c-2.549,1.883-4.856,4.113-6.845,6.604c-4.014,4.974-6.736,10.933-8.425,17.135c-1.577,6.28-2.937,12.696-3.847,19.112
				c-0.45,3.22-0.679,6.436-1.025,9.734c-0.306,3.314-1.104,6.639-2.145,9.784l-2.154-0.743c1.092-3.033,1.922-6.083,2.303-9.279
				c0.383-3.199,0.667-6.507,1.169-9.759c0.976-6.527,2.346-12.919,3.941-19.323c1.677-6.415,4.496-12.603,8.604-17.908
				c2.04-2.658,4.438-5.049,7.1-7.114c1.33-1.035,2.734-1.979,4.206-2.822c1.501-0.833,2.963-1.57,4.727-2.134L611.46,264.327z"/>
		</g>
		<g>
			<path style="fill:#43A047;" d="M601.689,250.346c-1.683,2.75-3.139,5.908-4.455,9.008c-1.298,3.136-2.486,6.328-3.565,9.559
				c-2.148,6.47-3.894,13.067-5.452,19.727c-1.553,6.667-3.049,13.342-4.438,20.052c-1.404,6.692-2.829,13.479-5.047,20.042
				l-2.154-0.743c1.145-3.198,2.144-6.436,3.01-9.725c0.851-3.294,1.584-6.634,2.333-9.975c1.49-6.687,2.942-13.394,4.532-20.064
				c1.557-6.681,3.245-13.363,5.346-19.922c1.027-3.288,2.167-6.545,3.426-9.764c1.272-3.238,2.562-6.382,4.357-9.539
				L601.689,250.346z"/>
		</g>
		<g>
			<path style="fill:#66BB6A;" d="M584.236,251.528c0.387,1.72,0.683,3.367,0.962,5.05c0.281,1.675,0.509,3.353,0.734,5.031
				c0.446,3.355,0.778,6.718,1.016,10.085c0.54,6.732,0.662,13.477,0.568,20.221c-0.101,6.747-0.67,13.492-1.547,20.186
				c-0.842,6.687-1.284,11.331-1.253,17.853h-2.584c0.065-3.46,1.211-14.809,1.696-18.119c0.498-3.308,0.868-6.627,1.131-9.955
				c0.283-3.326,0.422-6.663,0.501-10.001c0.012-1.67,0.066-3.339,0.02-5.01l-0.037-2.506l-0.084-2.505
				c-0.117-3.339-0.317-6.675-0.625-10c-0.312-3.325-0.717-6.641-1.233-9.938c-0.265-1.647-0.56-3.289-0.891-4.92
				c-0.323-1.624-0.692-3.276-1.123-4.823L584.236,251.528z"/>
		</g>
		<g>
			<path style="fill:#66BB6A;" d="M567.393,280.319c0,0,2.799-1.257,4.419-2.813c2.116-2.031,7.244-2.171,10.31,0.163
				c3.121,2.377,1.227,6.75-1.719,6.75c-2.956,0-4.419-2.35-5.361-3.554C573.958,279.48,572.091,279.359,567.393,280.319z"/>
		</g>
		<g>
			<path style="fill:#66BB6A;" d="M587.203,284.793l-1.446-0.032c0.027-1.212-2.432-2.704-3.628-3.237l0.588-1.32
				C583.183,280.411,587.259,282.3,587.203,284.793z"/>
		</g>
		<g>
			<g>
				<path style="fill:#FF8F00;" d="M582.22,242.533c-0.405-3.002-2.487-4.442-2.487-4.442s-1.622,1.972-1.222,4.942l0.807,5.984
					l3.709-0.5L582.22,242.533z"/>
			</g>
			<g>
				<path style="fill:#FF8F00;" d="M581.168,262.741c0.405,3.002,2.487,4.442,2.487,4.442s1.622-1.972,1.222-4.942l-0.807-5.984
					l-3.709,0.5L581.168,262.741z"/>
			</g>
			<g>
				<path style="fill:#FF8F00;" d="M574.921,245.121c-2.409-1.837-4.9-1.383-4.9-1.383s0.247,2.541,2.631,4.358l4.802,3.661
					l2.269-2.976L574.921,245.121z"/>
			</g>
			<g>
				<path style="fill:#FF8F00;" d="M588.467,260.153c2.409,1.837,4.9,1.383,4.9,1.383s-0.247-2.541-2.631-4.358l-4.802-3.661
					l-2.269,2.976L588.467,260.153z"/>
			</g>
			<g>
				<path style="fill:#FF8F00;" d="M574.178,259.41c-1.837,2.409-1.383,4.9-1.383,4.9s2.541-0.247,4.358-2.631l3.661-4.802
					l-2.976-2.269L574.178,259.41z"/>
			</g>
			<g>
				<path style="fill:#FF8F00;" d="M589.21,245.864c1.837-2.409,1.383-4.9,1.383-4.9s-2.541,0.247-4.358,2.631l-3.661,4.802
					l2.976,2.269L589.21,245.864z"/>
			</g>
			<g>
				<path style="fill:#FF8F00;" d="M571.59,252.111c-3.002,0.405-4.442,2.487-4.442,2.487s1.972,1.622,4.942,1.222l5.984-0.807
					l-0.5-3.709L571.59,252.111z"/>
			</g>
			<g>
				<path style="fill:#FF8F00;" d="M591.798,253.163c3.002-0.405,4.442-2.487,4.442-2.487s-1.972-1.622-4.942-1.222l-5.984,0.807
					l0.5,3.709L591.798,253.163z"/>
			</g>
			<g>
				<path style="fill:#FFB300;" d="M585.97,243.468c0.751-2.935-0.64-5.051-0.64-5.051s-2.243,1.22-2.986,4.123l-1.496,5.85
					l3.625,0.927L585.97,243.468z"/>
			</g>
			<g>
				<path style="fill:#FFB300;" d="M577.418,261.807c-0.75,2.935,0.64,5.051,0.64,5.051s2.243-1.22,2.986-4.123l1.496-5.85
					l-3.625-0.927L577.418,261.807z"/>
			</g>
			<g>
				<path style="fill:#FFB300;" d="M578.234,243.13c-1.545-2.606-4.024-3.119-4.024-3.119s-0.724,2.449,0.805,5.027l3.079,5.194
					l3.219-1.908L578.234,243.13z"/>
			</g>
			<g>
				<path style="fill:#FFB300;" d="M585.154,262.144c1.545,2.606,4.024,3.119,4.024,3.119s0.724-2.449-0.805-5.027l-3.079-5.194
					l-3.219,1.908L585.154,262.144z"/>
			</g>
			<g>
				<path style="fill:#FFB300;" d="M572.187,256.097c-2.606,1.545-3.119,4.024-3.119,4.024s2.449,0.724,5.027-0.805l5.194-3.079
					l-1.908-3.219L572.187,256.097z"/>
			</g>
			<g>
				<path style="fill:#FFB300;" d="M591.201,249.177c2.606-1.545,3.119-4.024,3.119-4.024s-2.449-0.724-5.027,0.805l-5.194,3.079
					l1.908,3.219L591.201,249.177z"/>
			</g>
			<g>
				<path style="fill:#FFB300;" d="M572.525,248.361c-2.935-0.751-5.051,0.64-5.051,0.64s1.22,2.243,4.123,2.986l5.85,1.496
					l0.927-3.626L572.525,248.361z"/>
			</g>
			<g>
				<path style="fill:#FFB300;" d="M590.864,256.913c2.935,0.751,5.051-0.64,5.051-0.64s-1.22-2.243-4.123-2.986l-5.85-1.496
					l-0.927,3.626L590.864,256.913z"/>
			</g>
			<g>
				<circle style="fill:#616161;" cx="581.694" cy="252.637" r="5.695"/>
			</g>
		</g>
		<g>
			<g>
				<path style="fill:#FF8F00;" d="M599.646,241.562c-0.405-3.002-2.487-4.442-2.487-4.442s-1.622,1.972-1.222,4.942l0.807,5.984
					l3.709-0.5L599.646,241.562z"/>
			</g>
			<g>
				<path style="fill:#FF8F00;" d="M598.594,261.77c0.405,3.002,2.487,4.442,2.487,4.442s1.622-1.972,1.222-4.942l-0.807-5.984
					l-3.709,0.5L598.594,261.77z"/>
			</g>
			<g>
				<path style="fill:#FF8F00;" d="M592.347,244.15c-2.409-1.837-4.9-1.383-4.9-1.383s0.247,2.541,2.631,4.358l4.802,3.661
					l2.269-2.976L592.347,244.15z"/>
			</g>
			<g>
				<path style="fill:#FF8F00;" d="M605.893,259.182c2.409,1.837,4.9,1.383,4.9,1.383s-0.247-2.541-2.631-4.358l-4.802-3.661
					l-2.269,2.976L605.893,259.182z"/>
			</g>
			<g>
				<path style="fill:#FF8F00;" d="M591.604,258.439c-1.837,2.409-1.382,4.9-1.382,4.9s2.541-0.247,4.358-2.631l3.661-4.802
					l-2.976-2.269L591.604,258.439z"/>
			</g>
			<g>
				<path style="fill:#FF8F00;" d="M606.636,244.893c1.837-2.409,1.383-4.9,1.383-4.9s-2.541,0.247-4.358,2.631L600,247.426
					l2.976,2.269L606.636,244.893z"/>
			</g>
			<g>
				<path style="fill:#FF8F00;" d="M589.016,251.14c-3.002,0.405-4.442,2.487-4.442,2.487s1.972,1.622,4.942,1.222l5.984-0.807
					l-0.5-3.709L589.016,251.14z"/>
			</g>
			<g>
				<path style="fill:#FF8F00;" d="M609.224,252.192c3.002-0.405,4.442-2.487,4.442-2.487s-1.972-1.622-4.942-1.222l-5.984,0.807
					l0.5,3.709L609.224,252.192z"/>
			</g>
			<g>
				<path style="fill:#FFB300;" d="M603.396,242.497c0.751-2.935-0.64-5.051-0.64-5.051s-2.243,1.22-2.986,4.123l-1.496,5.85
					l3.625,0.927L603.396,242.497z"/>
			</g>
			<g>
				<path style="fill:#FFB300;" d="M594.844,260.836c-0.75,2.935,0.64,5.051,0.64,5.051s2.243-1.22,2.986-4.123l1.496-5.85
					l-3.626-0.927L594.844,260.836z"/>
			</g>
			<g>
				<path style="fill:#FFB300;" d="M595.66,242.159c-1.545-2.606-4.024-3.119-4.024-3.119s-0.724,2.449,0.805,5.027l3.079,5.194
					l3.219-1.908L595.66,242.159z"/>
			</g>
			<g>
				<path style="fill:#FFB300;" d="M602.58,261.174c1.545,2.606,4.024,3.119,4.024,3.119s0.724-2.449-0.805-5.027l-3.079-5.194
					l-3.219,1.908L602.58,261.174z"/>
			</g>
			<g>
				<path style="fill:#FFB300;" d="M589.612,255.126c-2.606,1.545-3.119,4.024-3.119,4.024s2.449,0.724,5.027-0.805l5.194-3.079
					l-1.908-3.219L589.612,255.126z"/>
			</g>
			<g>
				<path style="fill:#FFB300;" d="M608.627,248.206c2.606-1.545,3.119-4.024,3.119-4.024s-2.449-0.724-5.027,0.805l-5.194,3.079
					l1.908,3.219L608.627,248.206z"/>
			</g>
			<g>
				<path style="fill:#FFB300;" d="M589.95,247.39c-2.935-0.751-5.051,0.64-5.051,0.64s1.22,2.243,4.123,2.986l5.85,1.496
					l0.927-3.626L589.95,247.39z"/>
			</g>
			<g>
				<path style="fill:#FFB300;" d="M608.289,255.942c2.935,0.751,5.051-0.64,5.051-0.64s-1.22-2.243-4.123-2.986l-5.85-1.496
					l-0.927,3.626L608.289,255.942z"/>
			</g>
			<g>
				<circle style="fill:#616161;" cx="599.12" cy="251.666" r="5.695"/>
			</g>
		</g>
		<g>
			<g>
				<path style="fill:#FF8F00;" d="M612.277,254.016c-0.405-3.002-2.487-4.442-2.487-4.442s-1.622,1.972-1.222,4.942l0.807,5.984
					l3.709-0.5L612.277,254.016z"/>
			</g>
			<g>
				<path style="fill:#FF8F00;" d="M611.226,274.224c0.405,3.002,2.487,4.442,2.487,4.442s1.622-1.972,1.222-4.942l-0.807-5.984
					l-3.709,0.5L611.226,274.224z"/>
			</g>
			<g>
				<path style="fill:#FF8F00;" d="M604.979,256.604c-2.409-1.837-4.9-1.383-4.9-1.383s0.247,2.541,2.631,4.358l4.802,3.661
					l2.269-2.976L604.979,256.604z"/>
			</g>
			<g>
				<path style="fill:#FF8F00;" d="M618.525,271.637c2.409,1.837,4.9,1.383,4.9,1.383s-0.247-2.541-2.631-4.358L615.992,265
					l-2.269,2.976L618.525,271.637z"/>
			</g>
			<g>
				<path style="fill:#FF8F00;" d="M604.236,270.893c-1.837,2.409-1.383,4.9-1.383,4.9s2.541-0.247,4.359-2.631l3.661-4.802
					l-2.976-2.269L604.236,270.893z"/>
			</g>
			<g>
				<path style="fill:#FF8F00;" d="M619.268,257.348c1.837-2.409,1.383-4.9,1.383-4.9s-2.541,0.247-4.358,2.631l-3.661,4.802
					l2.976,2.269L619.268,257.348z"/>
			</g>
			<g>
				<path style="fill:#FF8F00;" d="M601.648,263.595c-3.002,0.405-4.442,2.487-4.442,2.487s1.972,1.622,4.942,1.222l5.984-0.807
					l-0.5-3.709L601.648,263.595z"/>
			</g>
			<g>
				<path style="fill:#FF8F00;" d="M621.856,264.646c3.002-0.405,4.442-2.487,4.442-2.487s-1.972-1.622-4.942-1.222l-5.984,0.807
					l0.5,3.709L621.856,264.646z"/>
			</g>
			<g>
				<path style="fill:#FFB300;" d="M616.028,254.951c0.751-2.935-0.64-5.051-0.64-5.051s-2.243,1.22-2.986,4.123l-1.496,5.85
					l3.626,0.927L616.028,254.951z"/>
			</g>
			<g>
				<path style="fill:#FFB300;" d="M607.476,273.29c-0.751,2.935,0.64,5.051,0.64,5.051s2.243-1.22,2.986-4.123l1.496-5.85
					l-3.626-0.927L607.476,273.29z"/>
			</g>
			<g>
				<path style="fill:#FFB300;" d="M608.292,254.613c-1.545-2.606-4.024-3.119-4.024-3.119s-0.724,2.449,0.805,5.027l3.079,5.194
					l3.219-1.908L608.292,254.613z"/>
			</g>
			<g>
				<path style="fill:#FFB300;" d="M615.212,273.628c1.545,2.606,4.024,3.119,4.024,3.119s0.724-2.449-0.805-5.027l-3.079-5.194
					l-3.219,1.908L615.212,273.628z"/>
			</g>
			<g>
				<path style="fill:#FFB300;" d="M602.244,267.581c-2.606,1.545-3.119,4.024-3.119,4.024s2.449,0.724,5.027-0.805l5.194-3.079
					l-1.908-3.219L602.244,267.581z"/>
			</g>
			<g>
				<path style="fill:#FFB300;" d="M621.259,260.66c2.606-1.545,3.119-4.024,3.119-4.024s-2.449-0.724-5.027,0.805l-5.194,3.079
					l1.908,3.219L621.259,260.66z"/>
			</g>
			<g>
				<path style="fill:#FFB300;" d="M602.582,259.844c-2.935-0.751-5.051,0.64-5.051,0.64s1.22,2.243,4.123,2.986l5.85,1.496
					l0.927-3.626L602.582,259.844z"/>
			</g>
			<g>
				<path style="fill:#FFB300;" d="M620.921,268.396c2.935,0.751,5.051-0.64,5.051-0.64s-1.22-2.243-4.123-2.986l-5.85-1.496
					l-0.927,3.626L620.921,268.396z"/>
			</g>
			<g>
				<circle style="fill:#616161;" cx="611.752" cy="264.12" r="5.695"/>
			</g>
		</g>
	</g>
	<path style="fill:#FAD6B7;" d="M580.569,292.594c0.518-0.699,1.377-1.06,2.245-1.001c2.888,0.195,9.619,0.962,11.165,3.9
		c1.515,2.878,0.599,8.995-1.597,12.518c-0.955,1.531-2.828,2.218-4.563,1.722l-3.355-2.148c0,0-4.634-1.872-5.749-4.361
		C577.9,301.406,577.723,296.431,580.569,292.594z"/>
</g>
<g>
	<path style="fill:none;stroke:#B0BEC5;stroke-width:12;stroke-miterlimit:10;" d="M126.551,371.533c0,0,53.449,10,273.449,10
		c222,0,273.449-10,273.449-10"/>
	<g>
		<g>
			<rect x="120.448" y="356.218" style="fill:#90A4AE;" width="8.103" height="124.782"/>
		</g>
		<circle style="fill:#90A4AE;" cx="124.5" cy="350.816" r="6.752"/>
	</g>
	<g>
		<g>
			<rect x="671.449" y="356.218" style="fill:#90A4AE;" width="8.103" height="124.782"/>
		</g>
		<circle style="fill:#90A4AE;" cx="675.5" cy="350.816" r="6.752"/>
	</g>
</g>
</svg>
