<?xml version="1.0" encoding="iso-8859-1"?>
<!-- Generator: Adobe Illustrator 22.1.0, SVG Export Plug-In . SVG Version: 6.00 Build 0)  -->
<svg version="1.1" id="Layer_14" xmlns="http://www.w3.org/2000/svg" xmlns:xlink="http://www.w3.org/1999/xlink" x="0px" y="0px"
	 viewBox="0 0 800 600" style="enable-background:new 0 0 800 600;" xml:space="preserve">
<rect style="fill:#FFFFFF;" width="800" height="600"/>
<g>
	<rect style="fill:#FFFFFF;" width="800" height="600"/>
	
		<linearGradient id="SVGID_1_" gradientUnits="userSpaceOnUse" x1="6081.2241" y1="409.4" x2="6081.2241" y2="458.1" gradientTransform="matrix(-1 0 0 -1 6363.9419 600)">
		<stop  offset="0" style="stop-color:#FFFFFF"/>
		<stop  offset="1" style="stop-color:#EEEEEE"/>
	</linearGradient>
	<path style="fill:url(#SVGID_1_);" d="M130.072,184.973c0,3.108,2.519,5.627,5.614,5.627H429.75c3.095,0,5.614-2.519,5.614-5.627
		c0-3.095-2.519-5.614-5.614-5.614c-1.604,0-3.058,0.677-4.073,1.767c-1.328-5.84-6.554-10.189-12.783-10.189
		c-4.461,0-8.409,2.218-10.777,5.627c-2.369-3.409-6.304-5.627-10.765-5.627c-1.892,0-3.697,0.401-5.314,1.128
		c-2.782-6.191-9.01-10.502-16.229-10.502c-4.374,0-8.371,1.592-11.479,4.211c-3.421-3.735-8.334-6.078-13.798-6.078
		c-4.499,0-8.622,1.579-11.855,4.223c-4.136-12.783-16.129-22.019-30.29-22.019c-13.134,0-24.4,7.945-29.275,19.287
		c-4.599-4.95-11.179-8.046-18.485-8.046c-9.788,0-18.284,5.564-22.482,13.71c-4.186-8.146-12.682-13.71-22.47-13.71
		c-10.138,0-18.886,5.965-22.908,14.575c-2.168-0.94-4.549-1.466-7.056-1.466c-7.457,0-13.835,4.574-16.492,11.091
		c-2.619-2.256-6.015-3.597-9.737-3.597c-5.74,0-10.715,3.221-13.234,7.958c-1.015-1.416-2.669-2.343-4.562-2.343
		C132.591,179.359,130.072,181.878,130.072,184.973z"/>
	
		<linearGradient id="SVGID_2_" gradientUnits="userSpaceOnUse" x1="508.19" y1="152.753" x2="508.19" y2="237.183" gradientTransform="matrix(1 0 0 -1 0 600)">
		<stop  offset="0" style="stop-color:#FFFFFF"/>
		<stop  offset="0.5312" style="stop-color:#F9F9F9"/>
		<stop  offset="1" style="stop-color:#EEEEEE"/>
	</linearGradient>
	<path style="fill:url(#SVGID_2_);" d="M757.423,437.505c0,5.374-4.368,9.742-9.742,9.742c-0.861,0-476.205,0-478.982,0
		c-5.374,0-9.742-4.368-9.742-9.742s4.368-9.742,9.742-9.742c3.182,0,6.008,1.526,7.761,3.881
		c3.101-8.882,11.544-15.246,21.465-15.246c6.056,0,11.561,2.37,15.636,6.235c2.874-9.255,11.512-15.977,21.708-15.977
		c5.391,0,10.343,1.883,14.256,5.033c5.423-8.865,15.197-14.775,26.336-14.775c8.849,0,16.821,3.734,22.439,9.71
		c7.177-14.418,22.066-24.323,39.26-24.323c4.092,0,8.037,0.552,11.788,1.607c10.115-12.843,25.8-21.091,43.417-21.091
		c20.588,0,38.546,11.268,48.044,27.992c7.956-8.248,19.143-13.379,31.515-13.379c16.204,0,30.363,8.8,37.945,21.887
		c4.644-2.565,9.969-4.027,15.636-4.027c13.249,0,24.631,7.923,29.681,19.289c5.602-5.894,13.509-9.547,22.277-9.547
		c10.327,0,19.484,5.082,25.069,12.892c4.725-4.936,11.382-8.021,18.77-8.021c11.56,0,21.335,7.534,24.712,17.958
		c0.422-0.065,0.844-0.097,1.267-0.097C753.055,427.763,757.423,432.131,757.423,437.505z"/>
	
		<linearGradient id="SVGID_3_" gradientUnits="userSpaceOnUse" x1="258.324" y1="273.067" x2="258.324" y2="352.643" gradientTransform="matrix(1 0 0 -1 0 600)">
		<stop  offset="0" style="stop-color:#FFFFFF"/>
		<stop  offset="1" style="stop-color:#EEEEEE"/>
	</linearGradient>
	<path style="fill:url(#SVGID_3_);" d="M471.723,317.739c0,5.078-3.521,9.194-7.849,9.194h-411.1c-4.327,0-7.849-4.116-7.849-9.194
		c0-5.058,3.521-9.174,7.849-9.174c2.242,0,4.275,1.106,5.694,2.887c1.857-9.542,9.163-16.648,17.87-16.648
		c6.237,0,11.756,3.625,15.067,9.194c3.311-5.57,8.812-9.194,15.049-9.194c2.645,0,5.168,0.655,7.428,1.843
		c3.889-10.116,12.597-17.16,22.688-17.16c6.114,0,11.703,2.601,16.048,6.88c4.783-6.102,11.651-9.932,19.289-9.932
		c6.29,0,12.054,2.58,16.574,6.901c5.782-20.887,22.548-35.979,42.345-35.979c18.361,0,34.111,12.983,40.926,31.515
		c6.43-8.089,15.628-13.147,25.842-13.147c13.683,0,25.561,9.092,31.43,22.402c5.852-13.31,17.73-22.402,31.413-22.402
		c14.173,0,26.402,9.747,32.026,23.815c3.031-1.536,6.36-2.396,9.864-2.396c10.424,0,19.342,7.474,23.056,18.123
		c3.662-3.686,8.409-5.877,13.613-5.877c8.024,0,14.979,5.263,18.501,13.003c1.419-2.314,3.732-3.829,6.377-3.829
		C468.202,308.565,471.723,312.681,471.723,317.739z"/>
	<g>
		<g>
			<path style="fill:#FFCCBC;" d="M216.585,419.141l-40.727-16.9c0,0-10.123,3.635-13.296,9.708
				c-4.333,8.296-0.007,17.507-0.007,17.507s16.898,15.711,28.767,11.221c1.395-0.527,2.768-1.224,3.998-2.372
				c1.019-0.95,2.126-1.661,3.254-2.089c1.416-0.538,2.333-0.807,3.891-0.414c2.357,0.595,13.467,4.041,13.467,4.041
				L216.585,419.141z"/>
			<path style="fill:#D50000;" d="M203.511,413.713c0,0,6.301,13.837,2.591,23.131l4.329,1.308c4.16,0.329,11.702-5.14,0.92-19.642
				L203.511,413.713z"/>
			<path style="fill:#D50000;" d="M202.961,436.101c2.762-11.447-4.021-21.542-4.32-21.974l-2.619,1.814
				c0.066,0.096,6.506,9.623,3.772,19.852c-0.026,0.097,0.398,0.554,1.438,0.689C201.945,436.575,202.888,436.398,202.961,436.101z"
				/>
			<path style="fill:#E53935;" d="M159.311,432.438c-1.448-1.092-4.139-4.436-5.401-7.791c-1.316-3.503-2.117-7.482-1.032-12.51
				c1.219-5.653,4.563-11.078,8.343-14.661c1.752-1.66,4.242-3.206,7.138-4.314c4.141-1.585,9.11-2.274,13.936-1.123
				c10.131,2.416,15.09,7.983,18.983,18.222c-7.614-3.091-11.608-1.706-15.78,2.074c-3.166-0.652-7.143,0.144-11.006,3.702
				c0,0-3.271,2.103-7.409,9.254c-2.571,4.444-2.262,10.122-2.262,10.122S162.463,434.817,159.311,432.438z"/>
			<path style="fill:#D50000;" d="M201.348,410.446c0.708,1.861,2.458,7.587,0.344,11.019c-1.36,2.21-12.236-6.217-13.698-7.293
				c-0.451-4.894,1.426-10.271,4.461-11.425C196.737,401.12,200.782,408.957,201.348,410.446z"/>
			<path style="fill:#424242;" d="M191.353,395.924c0,0,0.15,3.219-0.944,8.748c-0.882,4.458-2.715,10.141-2.715,10.141l-7.41-2.03
				c0,0,1.82-4.74,2.843-10.455c0.71-3.969,0.962-9.82,0.962-9.82s1.472-1.316,3.977-0.375
				C190.509,393.049,191.189,395.028,191.353,395.924z"/>
			<path style="fill:#80DEEA;" d="M189.245,415.235c0,0,0.452,0.471,0.968,1.788c0.811,2.069,0.634,6.151-1.175,8.117
				c-1.258,1.368-2.861,2.163-4.486,2.771c-3.644,1.362-7.457,1.649-8.138,4.372c-0.749,2.993,1.698,4.468-0.058,6.845
				c-2.244,3.037-11.115,0.098-12.233-5.857c-0.964-5.132,3.414-12.135,7.603-16.081c1.588-1.495,3.829-2.899,6.236-3.816
				C181.915,411.869,186.36,411.856,189.245,415.235z"/>
		</g>
		<path style="fill:#B2EBF2;" d="M482.222,306.109c0.1,4.68,1.156,11.125-4.075,14.589c-13.573,8.989-38.213,13.773-38.213,13.773
			s-42.219,26.903-42.548,38.349c-0.33,11.434,31.354,10.032,52.278,23.198c18.478,11.627,23.823,27.633,23.823,27.633
			s-11.363,4.281-17.636-2.742c-10.936-12.242-28.365-12.078-43.323-5.226c-72.205,16.41-122.718,22.858-122.718,22.858
			c-54.763,5.323-83.706-1.693-83.706-1.693l10.104-5.771l-12.698-17.364c0,0,87.822-100.22,79.934-78.544
			c-7.888,21.677,31.324,42.29,31.324,42.29c12.337-7.527,50.161-20.446,60.405-21.951c10.254-1.519,49.26-43.634,71.189-55.078
			C461.335,292.616,481.874,289.27,482.222,306.109z"/>
		<path style="fill:#80DEEA;" d="M481.961,317.777c-6.366,5.752-17.762,10.091-27.083,12.902c-12.303,3.71-23.902,9.46-34.16,17.2
			c-11.195,8.448-23.157,18.869-23.332,24.941c-0.33,11.434,44.349,7.601,65.273,20.767c18.478,11.627,10.829,30.064,10.829,30.064
			s-11.363,4.281-17.636-2.742c-10.936-12.242-27.894-10.94-43.323-5.226c-70.563,26.136-122.718,22.858-122.718,22.858
			c-52.017,5.546-83.706-1.693-83.706-1.693l7.705-4.401l0,0c1.279-0.731,1.638-2.411,0.768-3.6l-2.312-3.161
			c0,0,65.878,7,121.193-17.465c15.669-6.93,30.616-18.205,43.706-29.444c45.693-39.232,68.482-70.132,100.909-70.839
			C483.302,307.824,485.841,314.272,481.961,317.777z"/>
		<g>
			<path style="fill:#424242;" d="M373.275,376.005c-0.298,0.272-26.406,24.294-54.195,35.739
				c-23.465,9.649-47.218,13.835-66.648,15.475c-17.606,1.485-31.664,0.883-38.786,0.35l-1.91-2.613
				c11.963,1.05,59.746,3.715,106.413-15.487c27.384-11.274,53.263-35.185,53.548-35.456L373.275,376.005z"/>
		</g>
		<path style="fill:#424242;" d="M440.114,305.611c-15.85,14.721-66.839,70.395-66.839,70.395l-84.007,14.786l24.468-25.576
			c3.487-2.128,9.011-4.686,15.373-7.296c16.144-6.623,37.945-7.999,45.293-9.079c10.254-1.519-5.827,5.028,17.242-3.897
			L440.114,305.611z"/>
		<path style="fill:#424242;" d="M208.955,421.158l-5.444-7.445c0,0,17.946-6.229,36.584-8.923l16.862,2.555l17.366-11.417
			c7.307-12.192,14.945-5.137,14.945-5.137c-7.888,21.677-29.655,29.515-29.655,29.515L208.955,421.158z"/>
		<path style="fill:#424242;" d="M289.811,438.541c-53.382,14.133-83.706-1.693-83.706-1.693l7.705-4.401
			C230.472,440.538,289.811,438.541,289.811,438.541z"/>
		
			<rect x="242.846" y="424.778" transform="matrix(0.092 -0.9958 0.9958 0.092 -192.5629 645.8351)" style="fill:#424242;" width="29.998" height="7.452"/>
		<circle style="fill:none;stroke:#E0E0E0;stroke-width:4;stroke-miterlimit:10;" cx="257.578" cy="413.615" r="7.528"/>
		<path style="fill:#B2EBF2;" d="M333.23,369.937c-10.248,1.513-46.692-11.51-34.061-55.033
			c6.429-22.155-67.22,48.128-59.073,89.887C297.982,393.037,333.23,369.937,333.23,369.937z"/>
		<path style="fill:#E53935;" d="M486.865,308.465c-0.577,4.789-3.479,8.752-8.686,12.212c-0.012,0.001-0.023,0.014-0.035,0.015
			c3.519-15.87-1.554-24.517-14.036-23.054c-8.757,1.026-23.3,13.124-29.681,19.05c-12.303,11.432-42.086,40.7-55.509,53.177
			c-19.443-11.085-44.578-10.531-49.809-11.946c0.048-0.016,19.182-9.216,45.032-14.656c10.144-2.135,52.999-40.744,76.054-49.708
			C476.596,283.291,488.809,292.343,486.865,308.465z"/>
		<path style="fill:#212121;" d="M282.956,309.929l6.03-4.549c2.696-2.034,4.775-4.755,6.11-7.858
			c1.412-3.283,4.26-7.139,9.715-6.134c8.795,1.619,15.384,18.239,2.69,20.942c-1.656,0.353-3.316,0.733-4.919,1.281
			c-9.137,3.123-10.789,6.053-10.789,6.053S280.996,321.895,282.956,309.929z"/>
		<path style="fill:#424242;" d="M203.512,413.716c0,0,14.283-39.412,29.033-58.228c14.751-18.815,46.281-43.362,50.411-45.56
			c0,0,4.857,10.071,8.836,9.736c0,0-31.626,30.72-32.669,32.966c-1.044,2.246-19.028,52.16-19.028,52.16
			S227.355,414.36,203.512,413.716z"/>
		<path style="fill:#E53935;" d="M449.495,387.956c35.061,10.206,23.993,35.695,23.993,35.695s-8.498,2.798-13.69,0.114
			C459.797,423.765,471.24,421.238,449.495,387.956z"/>
	</g>
	<g>
		<path style="fill:#9E9E9E;" d="M416.439,192.557l-4.562-12.694c-0.863-2.4-1.263-4.942-1.179-7.491l0.002-0.063l0,0
			c1.732,1.937,3.075,4.189,3.954,6.635l4.799,13.355L416.439,192.557z"/>
		<path style="fill:#BDBDBD;" d="M595.555,205.516l-8.893,12.909c0,0,13.188,1.923,24.158-1.827c0,0,14.818-8.309,18.666-12.868
			S602.511,201.779,595.555,205.516z"/>
		
			<ellipse transform="matrix(0.4826 -0.8759 0.8759 0.4826 34.2598 549.6324)" style="fill:#424242;" cx="482.316" cy="245.82" rx="7.28" ry="7.604"/>
		
			<ellipse transform="matrix(0.4826 -0.8759 0.8759 0.4826 36.2823 549.3733)" style="fill:#212121;" cx="483.108" cy="243.979" rx="3.019" ry="3.309"/>
		<path style="fill:#BDBDBD;" d="M490.479,218.032l1.826,0.782c1.237,0.53,1.736,2.019,1.068,3.188l-11.134,19.517
			c-0.389,0.681-0.246,1.559,0.369,2.046c0.01,0.008,0.021,0.017,0.032,0.025c0.743,0.573,1.831,0.319,2.317-0.484l13.229-21.847
			c0.643-1.056,1.575-1.906,2.686-2.449l4.044-1.979C504.917,216.829,499.964,215.753,490.479,218.032z"/>
		<path style="fill:#C6C6C6;" d="M466.302,221.12c-20.324,15.07-36.662,22.097-36.662,22.097l-3.541,5.618
			c0,0-26.821-1.421-30.306-1.56c-3.485-0.139-5.771-4.07-5.771-4.07l36.09-33.988L466.302,221.12z"/>
		<path style="fill:#9E9E9E;" d="M469.856,219.516c-20.324,15.07-40.217,23.7-40.217,23.7l-3.541,5.618c0,0-4.585-0.243-10.21-0.538
			c-1.719-0.09,0.935-1.91,3.756-3.909c10.957-7.765,39.826-27.032,39.826-27.032C465.228,217.412,469.856,219.516,469.856,219.516z
			"/>
		<path style="fill:#9E9E9E;" d="M429.639,243.216l-3.541,5.618c0,0-26.821-1.421-30.306-1.56c-3.485-0.139-5.771-4.07-5.771-4.07
			l1.938-1.826C391.959,241.378,394.58,247.051,429.639,243.216z"/>
		<path style="fill:#EEEEEE;" d="M473.289,165.934c0,0-11.947,6.329-17.745,16.046c0,0-14.225,0.443-21.886,1.743
			c-3.273,0.556-8.253,1.241-12.407,4.74c0,0-9.869,0.233-10.985,3.76c-0.599,1.896,4.748,6.426,8.448,7.308
			c0.65,8.193,13.631,19.781,44.855,20.082c5.757,0.056,19.024-0.558,25.525-1.074c34.406-2.733,137.428-13.147,137.428-13.147
			s15.892-4.601,15.961-6.343c0.07-1.743-1.478-11.055-1.478-11.055l8.195-39.117l-18.568-2.662l-23.809,36.747
			c0,0-29.762,2.301-43.089,3.863c0,0-24.702-2.034-28.187-2.174c0,0-10.637-8.977-20.423-13.033L473.289,165.934z"/>
		<path style="fill:#CECECE;" d="M629.137,209.486c0.194-0.004,0.292-0.004,0.293,0.001
			C629.318,209.497,629.226,209.495,629.137,209.486z"/>
		<path style="fill:#E0E0E0;" d="M642.485,198.836c0,0.08,0.003,0.148-0.001,0.213c-0.07,1.743-15.961,6.343-15.961,6.343
			s-99.499,10.061-135.588,13c-0.634,0.052-1.245,0.102-1.84,0.148c-6.499,0.515-19.767,1.13-25.525,1.074
			c-22.081-0.213-35.039-6.071-40.964-12.382c-2.448-2.607-0.198-6.854,3.341-6.336c17.07,2.502,70.073,6.787,216.476-2.06
			C642.445,198.836,642.467,198.835,642.485,198.836z"/>
		<path style="fill:#9E9E9E;" d="M478.009,168.355c0,0-2.328,5.841-3.512,13.648c-7.807-1.185-18.861,0.293-18.861,0.293
			c5.799-9.717,17.745-16.046,17.745-16.046L478.009,168.355z"/>
		<path style="fill:#E0E0E0;" d="M591.536,96.447l-35.88,50.577l-28.465,26.613c-4.099-2.258-11.975-1.7-11.975-1.7
			c-50.073-0.43-41.835-5.686-41.835-5.686l77.017-71.098L591.536,96.447z"/>
		<path style="fill:#E0E0E0;" d="M601.752,197.618l31.254-20.743c0,0,5.52-2.746,14.08-2.928c8.559-0.182,12.044-0.042,12.044-0.042
			l-13.01,16.755l-21.227,5.787C624.894,196.448,611.235,197.542,601.752,197.618z"/>
		<path style="fill:#9E9E9E;" d="M505.615,174.758l3.424,18.775c0.224,1.228-0.719,2.359-1.968,2.359h-23.988l-1.394-20.953
			c-0.097-1.301,0.951-2.402,2.255-2.369l19.58,0.494C504.525,173.09,505.383,173.785,505.615,174.758z"/>
		<path style="fill:#9E9E9E;" d="M518.993,180.89l-4.088-5.324c-0.851-1.108-0.716-2.682,0.31-3.629l0,0
			c9.786,4.056,20.423,13.033,20.423,13.033c-1.62,0.137-6.024-0.07-9.453-0.27C523.348,184.535,520.725,183.144,518.993,180.89z"/>
		<path style="fill:#BDBDBD;" d="M501.944,145.925l0.743,1.549c0.448,0.935,0.457,2.021,0.023,2.962l-21.869,47.528
			c0,0-2.105,4.628-4.447,6.454c0,0,3.499,4.154,8.713,0.348c0,0-1.98-2.872-0.851-4.921c1.012-1.836,18.623-40.29,22.272-48.26
			c0.418-0.914,1.129-1.655,2.018-2.122c0.92-0.484,2.058-1.128,2.571-1.602c0.906-0.836,1.505-2.732-3.346-3.624
			C502.429,143.255,501.484,144.335,501.944,145.925z"/>
		<path style="fill:#EEEEEE;" d="M510.589,213.465c0,0-4.252-2.788-8.49-1.561c0,0,0.889-3.583,10.851-4.517
			C522.912,206.452,510.589,213.465,510.589,213.465z"/>
		<path style="fill:#BDBDBD;" d="M456.724,211.836l-0.613-2.119c0,0-9.089,0.335-10.817,4.28c-1.728,3.945,2.691,5.329,2.691,5.329
			L456.724,211.836z"/>
		<path style="fill:#757575;" d="M456.724,211.836c0,0-3.638-0.669-7.193,0.934c-3.555,1.603-4.372,4.246-2.513,5.95
			c1.858,1.703,6.933,1.383,8.522,0.922c0.443-0.128,1.361-0.705,1.546-1.596C457.564,215.743,456.724,211.836,456.724,211.836z"/>
		
			<ellipse transform="matrix(0.1602 -0.9871 0.9871 0.1602 223.673 690.3821)" style="fill:#424242;" cx="517.56" cy="213.743" rx="8.272" ry="8.272"/>
		<circle style="fill:#BDBDBD;" cx="518.619" cy="213.437" r="3.309"/>
		<circle style="fill:#424242;" cx="449.072" cy="232.997" r="6.618"/>
		<path style="fill:#EEEEEE;" d="M448.071,217.127l-0.77,7.771l1.366,0.753l1.157,5.98l1.954-6.492l-1.966-1.083l0.949-6.599
			c0.11-0.763-0.416-1.496-1.182-1.583c-0.012-0.001-0.025-0.003-0.037-0.004C448.796,215.796,448.144,216.381,448.071,217.127z"/>
		<circle style="fill:#EEEEEE;" cx="449.825" cy="231.631" r="2.757"/>
		<path style="fill:#BDBDBD;" d="M591.536,96.447l-35.88,50.577l-28.465,26.613c-4.099-2.258-11.975-1.7-11.975-1.7
			c1.413,0.585,33.149-30.266,33.149-30.266l32.716-45.642L591.536,96.447z"/>
		<path style="fill:#BDBDBD;" d="M591.536,96.447c0,0-36.607-5.477-41.138-1.295C545.868,99.335,575.867,99.835,591.536,96.447z"/>
		<path style="fill:#9E9E9E;" d="M425.91,215.1L425.91,215.1l-0.074-0.072c-1.484-1.441-2.62-3.202-3.319-5.149l-4.888-13.602
			l2.969-0.384l4.625,12.871C425.952,210.791,426.187,212.963,425.91,215.1z"/>
	</g>
</g>
</svg>
