<?xml version="1.0" encoding="iso-8859-1"?>
<!-- Generator: Adobe Illustrator 22.1.0, SVG Export Plug-In . SVG Version: 6.00 Build 0)  -->
<svg version="1.1" id="Layer_14" xmlns="http://www.w3.org/2000/svg" xmlns:xlink="http://www.w3.org/1999/xlink" x="0px" y="0px"
	 viewBox="0 0 800 600" style="enable-background:new 0 0 800 600;" xml:space="preserve">
<rect style="fill:#FFFFFF;" width="800" height="600"/>
<radialGradient id="SVGID_1_" cx="913.4856" cy="9.2225" r="264.3566" gradientTransform="matrix(1.339 0 0 -1.0196 -823.1572 383.9632)" gradientUnits="userSpaceOnUse">
	<stop  offset="0" style="stop-color:#E0E0E0"/>
	<stop  offset="1" style="stop-color:#FFFFFF"/>
</radialGradient>
<rect y="102.059" style="fill:url(#SVGID_1_);" width="800" height="495"/>
<rect y="422.533" style="fill:#FFFFFF;" width="800" height="174.526"/>
<linearGradient id="SVGID_2_" gradientUnits="userSpaceOnUse" x1="375" y1="127.941" x2="375" y2="146.941" gradientTransform="matrix(1 0 0 -1 0 600)">
	<stop  offset="0" style="stop-color:#FFFFFF"/>
	<stop  offset="1" style="stop-color:#E0E0E0"/>
</linearGradient>
<path style="opacity:0.2;fill:url(#SVGID_2_);enable-background:new    ;" d="M468,453.059L468,453.059c0,10.493-8.966,19-20.027,19
	H302.027c-11.061,0-20.027-8.507-20.027-19H468z"/>
<linearGradient id="SVGID_3_" gradientUnits="userSpaceOnUse" x1="608.5" y1="145.629" x2="608.5" y2="164.629" gradientTransform="matrix(1 0 0 -1 0 600)">
	<stop  offset="0" style="stop-color:#FFFFFF"/>
	<stop  offset="1" style="stop-color:#E0E0E0"/>
</linearGradient>
<path style="opacity:0.2;fill:url(#SVGID_3_);enable-background:new    ;" d="M641.5,435.371L641.5,435.371
	c0,10.493-8.966,19-20.027,19h-25.946c-11.061,0-20.027-8.507-20.027-19H641.5z"/>
<g>
	<polygon style="fill:#E0E0E0;" points="140.422,437.011 148.177,446.059 207,437.011 196,429.256 	"/>
	<path style="fill:#FFFFFF;" d="M352.904,180.558c0,0-4.904,8.718-4.904,21.25s0,13.077,0,13.077l42.501-8.173
		c0,0-6.539-13.622-8.718-31.058l-17.436,1.09C364.346,176.744,356.718,177.289,352.904,180.558z"/>
	<path style="fill:#FFFFFF;" d="M324.753,333.906c0,0,4.196,9.08,14.355,16.418s10.601,7.657,10.601,7.657l18.26-39.239
		c0,0-14.871-2.676-30.282-11.119l-9.326,14.773C328.361,322.397,324.336,328.9,324.753,333.906z"/>
	<path style="fill:#FFFFFF;" d="M472.121,229.437c0,0,9.808,16.891,10.353,25.609c0,0,4.904-0.545,10.353-5.994
		S501,240.879,501,235.43s0-20.706,0-20.706s-6.539,5.994-11.443,8.718S472.121,229.437,472.121,229.437z"/>
	<path style="fill:#E0E0E0;" d="M434.76,434.966l29.424-7.083l20.161,10.353l-23.975,6.539c0,0-6.539,0-9.263-1.09
		C448.382,442.594,434.76,434.966,434.76,434.966z"/>
	<path style="fill:#E0E0E0;" d="M331.218,431.482l-27.804,11.953l-21.62-6.798l22.525-10.495c0,0,6.445-1.105,9.314-0.491
		C316.503,426.265,331.218,431.482,331.218,431.482z"/>
	<path style="fill:#E0E0E0;" d="M467.605,374.122l-16.891,16.346c7.628,3.269,17.981,3.814,19.071-6.539
		c1.09-10.353-9.263-20.161-9.263-20.161s7.083-11.443,10.353-16.891c3.269-5.449,1.09-10.353,1.09-10.353L467.605,374.122z"/>
	<path style="fill:#FFFFFF;" d="M472.509,336.525c0,0,8.173,10.353,9.263,18.526s0.545,7.083-1.635,11.987
		c-2.18,4.904-11.955,21.757-11.955,21.757s7.596-8.135-7.661-25.027L472.509,336.525z"/>
	<path style="fill:#FFFFFF;" d="M409.161,244.948L389,293.988c0,0,21.25,22.34,33.238,4.359c0,0-8.173,0-2.18-16.346
		c5.994-16.346,5.449-14.712,5.449-14.712L409.161,244.948z"/>
	<path style="fill:#FFFFFF;" d="M555.654,290.309c0,0-4.359,24.52-12.532,47.95c0,0-2.724,3.814-3.814,4.359
		c0,0,0-16.346-8.173-29.424l13.077-8.173C544.211,305.02,551.295,302.296,555.654,290.309z"/>
	<polygon style="fill:#E0E0E0;" points="530.275,427.059 519.658,440.011 554.368,442.518 561.718,427.059 	"/>
	<path style="fill:#FFFFFF;" d="M321.344,224.617l23.682,13.048c0,0-9.21,5.219-8.552,10.438c0.658,5.219,4.605,6.524,6.578,5.219
		c1.974-1.305,3.947-3.914,3.947-3.914s-5.263,8.481-11.183,12.396c-5.921,3.914-19.735,3.262-23.682,0
		C312.134,261.804,310.161,240.927,321.344,224.617z"/>
</g>
<g>
	<polygon style="fill:#BCAAA4;" points="627,435.059 590,435.059 582,382.059 635,382.059 	"/>
	<ellipse style="fill:#4E342E;" cx="608.5" cy="383.059" rx="28.5" ry="6"/>
	<ellipse style="fill:#424242;" cx="608.5" cy="386.683" rx="24.875" ry="4.375"/>
	<path style="fill:#CCBDB8;" d="M631.01,408.499l-0.83,5.49c-3.55,1.8-11.92,3.07-21.68,3.07s-18.13-1.27-21.68-3.07l-0.83-5.49
		c2.91,2.06,11.88,3.56,22.51,3.56S628.1,410.559,631.01,408.499z"/>
	<path style="fill:#CCBDB8;" d="M632.37,399.489l-0.82,5.43c-4.09,1.86-12.87,3.14-23.05,3.14s-18.96-1.28-23.05-3.14l-0.82-5.43
		c3.63,2.09,12.95,3.57,23.87,3.57S628.74,401.579,632.37,399.489z"/>
	<ellipse style="fill:#BCAAA4;" cx="608.5" cy="435.059" rx="18.5" ry="4"/>
	<g>
		<path style="fill:#558B2F;" d="M612.25,339.299c-0.28,5.71-0.62,11.24-0.98,16.45v0.04c-0.3,4.38-0.62,8.53-0.93,12.36
			c-0.19,2.38-0.38,4.63-0.57,6.74c-0.18,2.13-0.36,4.11-0.53,5.92c-0.02,0.24-0.05,0.48-0.07,0.71c-0.01,0.1-0.02,0.19-0.02,0.29
			c-0.04,0.32-0.07,0.63-0.09,0.94c-0.05,0.43-0.09,0.85-0.13,1.26c-0.07,0.73-0.14,1.43-0.2,2.08h-0.96
			c-0.02-0.23-0.03-0.47-0.05-0.71c-0.01-0.16-0.03-0.32-0.04-0.48v-0.03c-0.01-0.2-0.03-0.41-0.05-0.61
			c-0.14-1.72-0.31-3.45-0.53-5.19c-0.24-2.03-0.53-4.07-0.86-6.13c-2.3-14.2-6.51-29-10.67-44.74c-3.14-11.89-6.26-24.32-8.5-37.44
			c-6.14-35.86-6-52.97,5.02-55.39c0.92-0.21,1.92-0.31,2.99-0.31c7.78,0,15.61,11.07,17.66,54.66c0.15,3.19,0.25,6.47,0.31,9.81
			C613.29,312.509,612.9,326.359,612.25,339.299z"/>
		<path style="fill:#689F38;" d="M607.57,386.089h0.2h0.09h0.23h0.16h0.09h0.06h0.09h0.08h0.16h0.23h0.43l-0.06-1.02l-0.09-1.58
			l-0.04-0.83l-0.05-0.85l-0.01-0.1l-0.14-2.49v-0.08l-0.59-10.32c0-0.04-0.01-0.08-0.01-0.12c-0.45-6.35-0.84-12.71-1.33-19.06
			c-0.18-2.12-0.34-4.25-0.52-6.37c-0.33-4.27-0.67-8.53-1.09-12.79l-0.88-9.57l-1-9.56c-1.37-12.74-2.9-25.47-4.76-38.15
			c-0.94-6.34-1.92-12.67-3.03-18.98c-1.09-6.31-2.27-12.6-3.7-18.85c1.35,6.27,2.44,12.57,3.45,18.89
			c1.03,6.32,1.92,12.66,2.79,19.01c1.68,12.69,3.06,25.43,4.26,38.18l0.87,9.56l0.76,9.58c0.54,6.37,0.9,12.77,1.35,19.15
			c0.25,3.89,0.46,7.78,0.67,11.67c0.1,1.73,0.19,3.45,0.29,5.18c0,0.09,0,0.18,0.01,0.26c0.04,0.69,0.08,1.38,0.12,2.07l0.1,2.33
			c0.01,0.02,0.01,0.05,0.01,0.07l0.16,3.84l0.17,3.91l0.2,4.48l0.03,0.58v0.01l0.01,0.23l0.07,1.72L607.57,386.089L607.57,386.089z
			"/>
		<path style="fill:#689F38;" d="M643,281.589c-1.09,2.73-3.76,9.78-7.15,19.14c0,0.01,0,0.01,0,0.01
			c-5.87,16.23-13.91,39.4-19.64,59.04c-0.47,1.6-0.92,3.17-1.35,4.71c0,0,0,0,0,0.01c-1.81,6.44-3.32,12.38-4.33,17.4
			c0,0.01-0.01,0.01-0.01,0.02c-0.24,1.18-0.45,2.31-0.64,3.38c-0.03,0.16-0.05,0.33-0.08,0.49c-0.02,0.1-0.03,0.2-0.05,0.3h-1.66
			c-0.03-0.16-0.04-0.32-0.06-0.48c-0.01-0.06-0.02-0.12-0.03-0.19c-0.1-0.88-0.21-1.84-0.31-2.86c-0.22-2.07-0.44-4.41-0.63-6.99
			c-0.1-1.35-0.2-2.77-0.29-4.25c0-0.02,0-0.05-0.01-0.07c-0.08-1.41-0.16-2.88-0.22-4.4c-0.01-0.08-0.01-0.17-0.01-0.26
			c-0.07-1.43-0.12-2.91-0.16-4.44c0-0.01,0-0.02,0-0.02c-0.15-5.77-0.13-12.13,0.18-18.86c0.63-13.62,2.46-28.77,6.5-43.74
			c1.83-6.79,4.11-13.54,6.95-20.1c9.39-21.7,16-29.22,22-29.22c1.28,0,2.34,0.24,3.22,0.67
			C653.25,254.839,645.52,275.329,643,281.589z"/>
		<path style="fill:#7CB342;" d="M645.22,250.879c-6.22,10.23-11.29,21.12-15.73,32.22c-4.4,11.12-8.21,22.48-11.11,34.08
			c-2.92,11.58-5.32,23.31-6.68,35.17l-0.43,3.4v0.04l-0.13,1.01l-0.28,2.22l-0.16,2.23l-0.67,8.93c-0.02,0.22-0.04,0.43-0.06,0.65
			c-0.11,1.35-0.17,2.71-0.2,4.06c-0.03,1.34-0.05,2.68-0.08,4.02c-0.01,0.07-0.01,0.14-0.01,0.21l-0.03,1.39l-0.05,2.76l-0.03,1.15
			v0.37l-0.03,1.3h-1.97l0.04-1.19v-0.16l0.02-0.48l0.06-1.7l0.12-3.51c0.01-0.27,0.02-0.55,0.03-0.82c0.06-1.82,0.1-3.63,0.21-5.44
			c0.06-0.91,0.13-1.82,0.23-2.73l0.12-1.36l0.68-7.61l0.2-2.24l0.31-2.23l0.62-4.46c0.56-4.31,1.24-8.6,2.04-12.86
			c1.42-7.53,3.19-14.99,5.16-22.38c3.07-11.6,7.05-22.93,11.62-34.01C633.63,271.859,638.86,261.029,645.22,250.879z"/>
		<path style="fill:#7CB342;" d="M607.57,386.089h0.2h0.09h0.23h0.16h0.09h0.06h0.09h0.08h0.16h0.23h0.43h0.15h0.21h0.11H610
			c-0.04-0.27-0.08-0.53-0.12-0.79c-0.05-0.42-0.11-0.83-0.17-1.24c-0.04-0.27-0.08-0.53-0.11-0.79c-0.08-0.51-0.15-1.01-0.22-1.5
			c-0.04-0.26-0.08-0.52-0.11-0.77c-0.01-0.06-0.02-0.13-0.03-0.19c-0.08-0.54-0.16-1.07-0.24-1.59v-0.08
			c-0.33-2.25-0.64-4.36-0.95-6.35c-0.59-3.99-1.15-7.5-1.68-10.64c0-0.01,0-0.02,0-0.02c-0.05-0.24-0.09-0.48-0.13-0.72
			c-2.59-14.98-4.89-21.58-10.67-33.21c-1.57-3.17-3.4-6.71-5.57-10.9c-6.45-12.47-12-18.4-18-18.4c-0.73,0-1.31,0.18-1.77,0.51
			c-3.98,2.82,1.39,16.97,6.77,27.63c4.71,9.34,12.29,24.08,19.1,37.25c3.11,6.02,6.06,11.72,8.5,16.43
			c1.03,1.98,1.97,3.79,2.79,5.37h0.02L607.57,386.089L607.57,386.089z"/>
		<path style="fill:#9CCC65;" d="M647,320.549c-5.07,9.14-10.24,18.53-16.05,29.27c-1.29,2.37-2.61,4.82-3.98,7.36
			c-0.32,0.6-0.64,1.21-0.97,1.82c-4.34,8.1-9.07,17-14.36,27.09h-3.24c0.1-1.34,0.22-2.84,0.37-4.48c0.07-0.77,0.15-1.57,0.23-2.39
			v-0.08c0.26-2.53,0.58-5.32,0.97-8.31c0.12-0.88,0.24-1.77,0.37-2.68c2.39-16.92,7.18-39.06,16.66-55.18
			c2.87-4.88,5.91-9.03,8.85-12.23c0,0,0,0,0-0.01c4.21-4.6,8.2-7.24,11.15-7.24c1.54,0,2.77,0.26,3.75,0.74
			C658.68,298.049,649.67,315.729,647,320.549z"/>
		<path style="fill:#9CCC65;" d="M609.86,386.089h-2c-0.04-0.23-0.09-0.47-0.14-0.71c-0.04-0.16-0.07-0.32-0.11-0.48
			c-0.01-0.05-0.02-0.1-0.04-0.16c-0.01-0.06-0.02-0.11-0.04-0.17c-0.07-0.34-0.14-0.68-0.23-1.02c-1.44-6.28-3.3-12.49-5.39-18.61
			c-2.68-7.62-5.76-15.12-9.05-22.52c-3.33-7.38-6.91-14.65-10.68-21.83c-3.78-7.17-7.72-14.26-11.95-21.18
			c4.37,6.84,8.46,13.85,12.39,20.95c3.92,7.1,7.66,14.31,11.15,21.64c3.45,7.36,6.7,14.81,9.55,22.44c1.03,2.81,2.01,5.64,2.92,8.5
			c0.24,0.74,0.47,1.48,0.69,2.22c0.05,0.14,0.09,0.27,0.13,0.41c0.27,0.88,0.53,1.77,0.78,2.66c0.33,1.12,0.63,2.25,0.93,3.38
			c0.08,0.31,0.16,0.61,0.23,0.92c0.03,0.07,0.05,0.15,0.06,0.22c0.03,0.09,0.05,0.17,0.06,0.26c0.05,0.16,0.09,0.32,0.12,0.48
			c0.1,0.36,0.19,0.72,0.27,1.09c0.02,0.07,0.04,0.14,0.06,0.21c0.08,0.33,0.16,0.66,0.23,1
			C609.83,385.889,609.85,385.989,609.86,386.089z"/>
		<path style="fill:#AED581;" d="M650.75,294.229c-4.53,7.31-8.79,14.79-12.89,22.34c-4.11,7.56-8.02,15.22-11.62,23.02
			c-3.25,7.03-6.35,14.16-8.96,21.45c-0.29,0.78-0.56,1.56-0.83,2.35c-1.73,5.05-3.32,10.16-4.51,15.34
			c-0.01,0.01-0.01,0.02-0.01,0.03c-0.56,2.43-1.03,4.87-1.38,7.33h-1.98c0.11-0.7,0.23-1.39,0.36-2.08c0.06-0.34,0.13-0.67,0.19-1
			c0.03-0.12,0.05-0.24,0.08-0.35c0.05-0.3,0.11-0.6,0.18-0.89c0.08-0.42,0.18-0.84,0.27-1.26c1.07-4.73,2.49-9.35,4.07-13.9
			c0.43-1.25,0.87-2.49,1.32-3.73c0.38-1.04,0.77-2.07,1.17-3.1c2.71-7.03,5.84-13.87,9.13-20.62c3.76-7.75,7.83-15.35,12.08-22.83
			C641.68,308.849,646.08,301.449,650.75,294.229z"/>
		<path style="fill:#7CB342;" d="M629,364.909c-6.8,5.72-13.09,14.88-16.97,21.18h-3.54c0.14-1.12,0.31-2.32,0.51-3.56
			c0.05-0.27,0.09-0.54,0.14-0.82c0.01-0.06,0.02-0.12,0.03-0.19c0.04-0.17,0.07-0.34,0.1-0.52c0.13-0.69,0.27-1.38,0.42-2.09
			c0.88-4.18,2.18-8.56,4.03-12.3c0.35-0.73,0.73-1.44,1.14-2.11c0-0.01,0-0.01,0-0.01c0.36-0.61,0.74-1.19,1.14-1.74
			c0.42-0.59,0.85-1.16,1.28-1.71c4.6-5.88,9.52-9.53,13.67-11.22c1.87-0.77,3.59-1.14,5.05-1.14c1.06,0,1.81,0.27,2.27,0.77
			C640.43,351.709,636.41,358.679,629,364.909z"/>
		<path style="fill:#AED581;" d="M607.57,386.089h0.2h0.09h0.23h0.16c-0.08-0.16-0.15-0.31-0.22-0.48c-0.1-0.21-0.2-0.42-0.31-0.64
			c-0.01-0.03-0.03-0.06-0.04-0.1c-0.02-0.04-0.04-0.08-0.07-0.13c-0.02-0.05-0.05-0.11-0.08-0.17c-0.06-0.14-0.13-0.29-0.2-0.43
			v-0.01c-2.77-5.81-6.75-13.46-11.23-19.84c-0.36-0.53-0.73-1.04-1.1-1.54c-4-5.41-7.08-6.49-10-6.49c-1.08,0-1.87,0.29-2.39,0.81
			c-2.88,2.83,2,12.4,8.39,17.58c4.54,3.69,10.31,7.82,14.54,11.44h1.72h0.13h0.02L607.57,386.089L607.57,386.089z"/>
		<path style="fill:#9CCC65;" d="M638.27,349.449c-3.74,1.78-7.01,4.38-9.98,7.2c-0.79,0.76-1.55,1.54-2.29,2.35
			c-2.03,2.22-3.88,4.62-5.58,7.1l-1.66,2.59c-0.56,0.86-1.01,1.78-1.53,2.67c-1.04,1.77-1.86,3.65-2.74,5.49
			c-0.47,0.92-0.81,1.88-1.2,2.83l-1.13,2.86c-0.41,1.18-0.79,2.36-1.18,3.55h-2.02c0.13-0.34,0.25-0.68,0.37-1.02
			c0.07-0.17,0.13-0.33,0.18-0.49c0.03-0.06,0.05-0.11,0.06-0.16c0.05-0.12,0.09-0.24,0.14-0.36c0.26-0.72,0.53-1.43,0.81-2.14
			c0-0.01,0.01-0.01,0.01-0.02l1.27-2.86c0.04-0.09,0.08-0.18,0.13-0.28c0-0.01,0-0.02,0.01-0.03c0.38-0.85,0.73-1.71,1.19-2.52
			c0.98-1.85,1.89-3.72,3.02-5.48c0.56-0.88,1.05-1.8,1.66-2.65l1.79-2.56c2.22-2.98,4.66-5.81,7.37-8.34
			c0.32-0.3,0.65-0.6,0.98-0.89C631.07,353.559,634.46,351.079,638.27,349.449z"/>
		<path style="fill:#C5E1A5;" d="M607.57,386.089h0.2h0.09h0.23h0.16h0.09l-0.24-0.5c-0.03-0.06-0.06-0.12-0.1-0.17
			c-0.08-0.16-0.18-0.3-0.28-0.45c-0.01-0.02-0.03-0.04-0.04-0.07c-0.02-0.03-0.05-0.06-0.07-0.1c-0.01-0.02-0.02-0.04-0.04-0.06
			c-0.05-0.07-0.09-0.14-0.14-0.22c-0.03-0.05-0.06-0.1-0.09-0.15c-0.42-0.67-0.9-1.27-1.36-1.89c-0.45-0.6-0.91-1.18-1.38-1.76
			c-0.56-0.71-1.14-1.4-1.73-2.09c-2.13-2.52-4.34-4.95-6.57-7.37c-4.47-4.82-9.05-9.54-13.69-14.19c4.53,4.76,8.98,9.6,13.32,14.53
			c2.17,2.46,4.31,4.95,6.36,7.51c1.04,1.27,2.04,2.57,2.99,3.89c0.46,0.66,0.95,1.32,1.35,2.01c0.2,0.35,0.44,0.69,0.61,1.03
			l0.02,0.05h0.13h0.02L607.57,386.089L607.57,386.089z"/>
	</g>
	<path style="fill:#424242;" d="M615.688,384.731c0,1.405-1.811,4.316-7.188,4.316s-7.188-2.912-7.188-4.316
		s2.129-0.078,7.506-0.078S615.688,383.326,615.688,384.731z"/>
	<path style="fill:#8D6E63;" d="M637,391.059c0,3.314-12.76,6-28.5,6s-28.5-2.686-28.5-6v-8c0,3.314,12.76,6,28.5,6
		s28.5-2.686,28.5-6V391.059z"/>
</g>
<g>
	<polygon style="fill:#1976D2;" points="283,395.109 283,406.979 243,439.729 243,426.729 	"/>
	<polygon style="fill:#1976D2;" points="283,289.189 283,301.059 243,323.729 243,310.729 	"/>
	<polygon style="fill:#A1887F;" points="283,388.809 283,224.934 243,235.059 243,388.809 	"/>
	<polygon style="fill:#8D6E63;" points="283,425.653 283,373.059 243,390.059 243,467.059 	"/>
	<polygon style="fill:#6D4C41;" points="280,261.953 280,269.008 243,285.892 243,277.892 	"/>
	<polygon style="fill:#6D4C41;" points="280,297.963 280,305.059 243,326.892 243,318.729 	"/>
	<rect x="175" y="235.059" style="fill:#BCAAA4;" width="68" height="232"/>
	<rect x="175" y="459.059" style="fill:#CCBDB8;" width="68" height="8"/>
	<rect x="235" y="235.059" style="fill:#CCBDB8;" width="8" height="232"/>
	<rect x="175" y="235.059" style="fill:#CCBDB8;" width="8" height="232"/>
	<polygon style="fill:#D7CCC8;" points="171,235.892 171,243.591 247,243.591 247,235.693 	"/>
	<polygon style="fill:#BCAAA4;" points="171,235.892 228.596,224.233 285.226,224.233 247,235.693 	"/>
	<polygon style="fill:#5D4037;" points="245,362.481 280,337.787 280,372.059 245,392.87 	"/>
	<polygon style="fill:#BCAAA4;" points="247,243.591 247,462.885 243,467.059 243,243.591 	"/>
	<polygon style="fill:#BCAAA4;" points="283,224.34 283,425.653 280,428.758 280,225.233 	"/>
	<polygon style="fill:#BCAAA4;" points="243,467.059 243,459.059 283,418.675 283,425.653 	"/>
	<polygon style="fill:#D7CCC8;" points="285.226,231.154 247,243.591 247,235.693 285.226,224.233 	"/>
	<polygon style="fill:#6D4C41;" points="280,386.059 314.875,386.059 317,353.052 280,353.052 	"/>
	<polygon style="fill:#8D6E63;" points="253.136,356.741 258.364,353.052 311.054,353.052 307.084,356.741 	"/>
	<polygon style="fill:#6D4C41;" points="253.136,356.741 247,361.07 247,376.247 307.084,376.247 307.084,356.741 	"/>
	<g style="display:none;">
		<polygon style="display:inline;fill:#F5F5F5;" points="274.5,350.589 274.5,373.684 301.781,349.705 301.781,330.476 		"/>
		<polygon style="display:inline;fill:#E0E0E0;" points="279.521,330.464 301.781,330.476 274.5,350.589 249.831,350.589 		"/>
		<rect x="249.831" y="350.589" style="display:inline;fill:#FAFAFA;" width="24.669" height="5.97"/>
		<rect x="271.365" y="350.589" style="display:inline;fill:#E0E0E0;" width="3.135" height="5.97"/>
		<rect x="263.812" y="350.589" style="display:inline;fill:#E0E0E0;" width="3.971" height="5.97"/>
		<rect x="256.99" y="350.589" style="display:inline;fill:#E0E0E0;" width="3.135" height="5.97"/>
		<rect x="249.831" y="350.589" style="display:inline;fill:#E0E0E0;" width="3.135" height="5.97"/>
		<polygon style="display:inline;fill:#FAFAFA;" points="252.966,350.589 256.99,350.589 286.051,330.464 282.36,330.476 		"/>
		<polygon style="display:inline;fill:#FAFAFA;" points="260.125,350.589 288.596,330.476 292.105,330.476 262.165,351.739 		"/>
		<polygon style="display:inline;fill:#FAFAFA;" points="299.058,330.464 295.733,330.464 267.783,350.589 271.365,350.589 		"/>
	</g>
	<rect x="247" y="376.247" style="fill:#A1887F;" width="45.042" height="30.313"/>
	<polygon style="fill:#8D6E63;" points="247,376.247 247,372.059 293,372.059 289.084,376.247 	"/>
	<polygon style="fill:#BCAAA4;" points="295,368.897 317,349.861 317,384.349 295,406.56 	"/>
	<rect x="289.084" y="368.897" style="fill:#D7CCC8;" width="5.916" height="37.663"/>
	<polygon style="fill:#D7CCC8;" points="317,349.861 311.508,349.861 289.084,368.897 295,368.897 	"/>
</g>
<g>
	<path style="fill:#FFCCBC;" d="M308.603,316.278c-0.021-0.012-2.104-0.758-2.457-3.737s-1.812-10.061-9.896-14.983
		c-10.853-6.607-14.477-0.425-17.833,4.75c-1.413,2.179-6.101,5.181-5.63,9.153c0.824,6.951,12.717,21.653,18.597,20.956
		c2.979-0.353,5.638-3.435,9.588-4.062c3.059-0.485,4.027,3.702,4.027,3.702l19.57-8.514
		C324.57,323.544,310.719,317.505,308.603,316.278z"/>
	<path style="fill:#444B54;" d="M307.525,315.547c-0.575-0.557-1.199-1.494-1.379-3.006c-0.353-2.979-0.013-12.406-8.097-17.328
		c-10.853-6.607-19.767,1.026-23.123,6.201c-1.413,2.179-2.61,6.075-2.139,10.048c0.216,1.823,5.083,0.404,10.335-6.26
		c0,0,2.788-0.645,4.208,1.515c1.229,1.868,1.817,6.834,4.796,6.48c-0.236-1.986,1.28-6.194,4.259-6.547
		c4.965-0.589,5.672,5.37,7.371,11.21C303.756,317.86,307.73,315.747,307.525,315.547z"/>
	<path style="fill:#FFB300;" d="M367.9,376.879c-8.58,6.67-29.9,16.18-29.9,16.18s-10-18-23-32.5c-8.26-9.21-9.81-14.56-9.81-14.56
		c2.12-7.78,0.46-11.7-0.19-13.94c4.92-4,7.83-9.75,8.6-13.45c0,0,5.45,1.13,8.23,1.95c5.76,1.7,13.195,4.659,17.206,9.179
		c0.38,0.42,1.261,1.544,1.641,1.994C352.327,345.532,364.11,369.739,367.9,376.879z"/>
	<path style="fill:#212121;" d="M393.667,424.368l11.725-0.991c2.522-0.164,4.572,1.97,4.24,4.416
		c-0.712,5.247-2.462,9.337-2.866,16.469c-0.098,1.737-1.558,3.106-3.34,3.106h-7.589c0-2.521,2.734-4.438,3.861-5.122
		c0.299-0.181,0.478-0.514,0.473-0.864c-0.05-3.244-0.501-5.602-0.805-6.837c-0.134-0.546-0.687-0.871-1.23-0.726l-3.384,0.905
		L393.667,424.368z"/>
	<path style="fill:#01579B;" d="M352.665,425.75l42.329-1.924l2.016,12.121l-66.308,11.063c-2.27,0.353-4.375-1.257-4.624-3.546
		C325.119,434.66,333,413.059,339,395.059C345,397.059,352.665,425.75,352.665,425.75z"/>
	<path style="fill:#424242;" d="M411.667,430.368l11.725-0.991c2.522-0.164,4.572,1.97,4.24,4.416
		c-0.712,5.247-2.47,9.013-2.874,16.146c-0.098,1.737-1.558,3.106-3.34,3.106h-7.589c0-2.521,2.734-4.438,3.861-5.122
		c0.299-0.181,0.478-0.514,0.473-0.864c-0.05-3.244-0.493-5.279-0.796-6.513c-0.134-0.546-0.687-0.871-1.23-0.726l-3.384,0.905
		L411.667,430.368z"/>
	<path style="fill:#1A68A5;" d="M414,442.089l-66.08,10.92c-2.26,0.35-4.36-1.24-4.61-3.5c-0.96-8.69,0.17-24.28-2.5-45.87
		c-0.81-6.58-2.81-10.58-2.81-10.58s21.32-9.51,29.9-16.18c0.04,0.06,0.07,0.12,0.1,0.18c8,15,4.2,23.66,2.31,33.13
		c-3.62,18.07-4.52,21.83-4.52,21.83l46.2-1.9L414,442.089z"/>
	<path style="fill:#FFCCBC;" d="M294,354.059l-6.705,2.375L256,372.059h19h14l6.763-3.327
		C295.763,368.732,310.708,358.055,294,354.059z"/>
	<path style="fill:#FFB300;" d="M316,331.059c-5.918,0.986-16.63,13.872-20.188,17.312c-1.31,1.267-8.517,8.062-8.517,8.062
		s8.2-0.435,8.468,12.298c0,0,18.098-8.683,25.237-12.673c3.45-1.929,13.24-10.266,8-19C326,332.059,322,330.059,316,331.059z"/>
</g>
<path style="fill:#FFD54F;" d="M259.619,217.154L244,221.059l1.576,11.79l17.132-4.915c2.345-0.676,3.717-3.024,3.717-5.465
	c0-3.085-2.509-5.458-5.426-5.481C260.547,216.984,260.084,217.038,259.619,217.154z"/>
<path style="fill:#FFFFFF;" d="M244,232.059c2.761,0,5-2.239,5-5s-2.239-5-5-5h-39v10H244z"/>
<g>
	<path style="fill:#FFB300;" d="M244,233.059h-39c-0.553,0-1-0.448-1-1s0.447-1,1-1h39c2.206,0,4-1.794,4-4s-1.794-4-4-4h-39
		c-0.553,0-1-0.448-1-1s0.447-1,1-1h39c3.309,0,6,2.691,6,6S247.309,233.059,244,233.059z"/>
</g>
<polygon style="fill:#FFD54F;" points="205,221.059 245,221.059 261,216.988 223.319,216.988 "/>
<g>
	<path style="fill:#0470BA;" d="M261.32,207.792L251,210.059c2.757,0,5,2.243,5,5c0,1.932-2.113,4.002-3.721,4.834l11.193-2.982
		c2.08-0.525,3.538-2.397,3.538-4.542C267.01,209.375,264.243,207.15,261.32,207.792z"/>
</g>
<polygon style="fill:#0470BA;" points="251,210.059 209,210.059 221.316,207.681 262.25,207.681 "/>
<path style="fill:#FFFFFF;" d="M251,219.059c2.209,0,4-1.791,4-4s-1.791-4-4-4h-42v8H251z"/>
<g>
	<path style="fill:#1A68A5;" d="M251,220.059h-42c-0.553,0-1-0.448-1-1s0.447-1,1-1h42c1.654,0,3-1.346,3-3s-1.346-3-3-3h-42
		c-0.553,0-1-0.448-1-1s0.447-1,1-1h42c2.757,0,5,2.243,5,5S253.757,220.059,251,220.059z"/>
</g>
<path style="fill:#9CCC65;" d="M256.467,198.672L249,200.059c2.757,0,5,2.243,5,5s-3.741,4.839-3.741,4.839l8.145-1.856
	c2.177-0.496,3.722-2.432,3.722-4.665C262.125,200.384,259.409,198.126,256.467,198.672z"/>
<path style="fill:#FFFFFF;" d="M249,209.059c2.209,0,4-1.791,4-4s-1.791-4-4-4h-42v8H249z"/>
<g>
	<path style="fill:#689F38;" d="M249,210.059h-42c-0.553,0-1-0.448-1-1s0.447-1,1-1h42c1.654,0,3-1.346,3-3s-1.346-3-3-3h-42
		c-0.553,0-1-0.448-1-1s0.447-1,1-1h42c2.757,0,5,2.243,5,5S251.757,210.059,249,210.059z"/>
</g>
<polygon style="fill:#9CCC65;" points="249,200.059 207,200.059 215.99,198.59 257.5,198.59 "/>
</svg>
