<?xml version="1.0" encoding="iso-8859-1"?>
<!-- Generator: Adobe Illustrator 22.1.0, SVG Export Plug-In . SVG Version: 6.00 Build 0)  -->
<svg version="1.1" id="Layer_14" xmlns="http://www.w3.org/2000/svg" xmlns:xlink="http://www.w3.org/1999/xlink" x="0px" y="0px"
	 viewBox="0 0 800 600" style="enable-background:new 0 0 800 600;" xml:space="preserve">
<rect style="fill:#FFFFFF;" width="800" height="600"/>
<g>
	<g>
		
			<radialGradient id="SVGID_1_" cx="909.9799" cy="-1021.6954" r="238.4447" gradientTransform="matrix(1.339 0 0 1.2858 -820.4962 1685.7031)" gradientUnits="userSpaceOnUse">
			<stop  offset="0.0031" style="stop-color:#FFFFFF;stop-opacity:0"/>
			<stop  offset="0.9506" style="stop-color:#FFFFFF;stop-opacity:0.8553"/>
			<stop  offset="1" style="stop-color:#FFFFFF"/>
		</radialGradient>
		<rect style="fill:url(#SVGID_1_);" width="800" height="600"/>
		<rect style="fill:#FFFFFF;" width="800" height="600"/>
		<rect x="79.993" y="56" style="fill:#F5F5F5;" width="640" height="373"/>
		<polygon style="fill:#E8E8E8;" points="217.431,255.353 217.431,233.816 155.404,233.816 155.404,429 247.583,429 
			247.583,255.353 		"/>
		<polygon style="fill:#E8E8E8;" points="397.993,396 397.993,307 381.993,307 381.993,251 370.993,251 370.993,211 355.993,211 
			345.993,131 334.993,211 320.993,211 320.993,251 309.993,251 309.993,307 293.993,307 293.993,397 279.993,397 279.993,429 
			411.993,429 411.993,396 		"/>
		<g>
			<polygon style="fill:#E8E8E8;" points="589.993,300 589.993,253 555.108,239.041 520.993,253 520.993,300 506.993,300 
				506.993,429 603.993,429 603.993,300 			"/>
		</g>
		<g>
			<polygon style="fill:#FAFAFA;" points="719.993,219.95 719.993,279.92 383.194,56.84 383.753,56 472.453,56 			"/>
		</g>
		<g>
			<polygon style="fill:#FAFAFA;" points="719.993,302.42 347.193,56 310.933,56 719.993,326.39 			"/>
		</g>
		<g>
			<polygon style="fill:#FAFAFA;" points="446.553,429 392.183,429 79.993,222.45 79.993,186.48 			"/>
		</g>
		<g>
			<polygon style="fill:#FAFAFA;" points="358.844,429 322.524,429 79.993,268.94 79.993,244.97 			"/>
		</g>
		<rect x="279.493" y="50.301" style="fill:#FFFFFF;" width="21" height="384.398"/>
		<rect x="499.493" y="50.301" style="fill:#FFFFFF;" width="21" height="384.398"/>
		
			<radialGradient id="SVGID_2_" cx="909.6998" cy="-1021.6954" r="238.4447" gradientTransform="matrix(1.339 0 0 1.2858 -820.4962 1685.7031)" gradientUnits="userSpaceOnUse">
			<stop  offset="0.0031" style="stop-color:#FFFFFF;stop-opacity:0"/>
			<stop  offset="0.8167" style="stop-color:#FFFFFF;stop-opacity:0.7344"/>
			<stop  offset="0.9506" style="stop-color:#FFFFFF;stop-opacity:0.8553"/>
			<stop  offset="1" style="stop-color:#FFFFFF"/>
		</radialGradient>
		<rect x="-0.375" style="fill:url(#SVGID_2_);" width="800" height="600"/>
		<g>
			<path style="fill:#E0E0E0;" d="M564.547,381.151l-0.378-6.939c-0.19-3.5,2.691-6.394,6.192-6.219l111.111,5.48l-22.433,14.924
				l-50.738-1.903L564.547,381.151"/>
			<path style="fill:#BDBDBD;" d="M568.604,455.568l-4.224-77.638c-0.19-3.5,2.691-6.394,6.192-6.219l102.361,5.117L568.604,455.568
				z"/>
			<g>
				<path style="fill:#A8A7A7;" d="M688.197,481H566.151c-3.256,0-5.905-2.649-5.905-5.905v-27.559c0-3.256,2.649-5.905,5.905-5.905
					h116.14c3.08,0,5.615,2.368,5.882,5.381l5.929,28.084C694.103,478.351,691.454,481,688.197,481z M568.12,473.126h117.597
					l-5.062-23.622H568.12V473.126z"/>
			</g>
			<path style="fill:#E0E0E0;" d="M682.292,398.059l-40.854-13.514l23.405-43.689c3.769-7.036,11.105-11.428,19.087-11.428h11.811
				L682.292,398.059z"/>
			<path style="fill:#EEEEEE;" d="M544.801,387.514l-0.378-6.939c-0.19-3.5,2.691-6.394,6.192-6.219l111.111,5.48l-22.433,14.924
				l-50.738-1.903L544.801,387.514"/>
			<path style="fill:#BDBDBD;" d="M705.824,333.868l-14.157,109.717c-0.594,4.602-4.32,8.164-8.944,8.549L554.976,462.78
				c-3.317,0.276-6.206-2.241-6.387-5.564l-3.893-71.569c-0.19-3.5,2.691-6.394,6.192-6.219l102.361,5.117l23.405-43.689
				c3.769-7.036,11.104-11.428,19.087-11.428h6.179C704.294,329.427,706.128,331.513,705.824,333.868z"/>
		</g>
		<g>
			<path style="fill:#E0E0E0;" d="M235.453,381.151l0.378-6.939c0.19-3.5-2.691-6.394-6.192-6.219l-111.111,5.48l22.433,14.924
				l50.738-1.903L235.453,381.151"/>
			<path style="fill:#BDBDBD;" d="M231.396,455.568l4.223-77.638c0.19-3.5-2.691-6.394-6.192-6.219l-102.361,5.117L231.396,455.568z
				"/>
			<g>
				<path style="fill:#A8A7A7;" d="M105.897,475.095l5.929-28.084c0.267-3.012,2.803-5.381,5.882-5.381h116.14
					c3.256,0,5.905,2.649,5.905,5.905v27.559c0,3.256-2.649,5.905-5.905,5.905H111.803C108.546,481,105.897,478.351,105.897,475.095
					z M231.88,449.504H119.344l-5.062,23.622H231.88V449.504z"/>
			</g>
			<path style="fill:#E0E0E0;" d="M117.708,398.059l40.854-13.514l-23.405-43.689c-3.769-7.036-11.105-11.428-19.087-11.428h-11.81
				L117.708,398.059z"/>
			<path style="fill:#EEEEEE;" d="M255.199,387.514l0.378-6.939c0.19-3.5-2.691-6.394-6.192-6.219l-111.111,5.48l22.433,14.924
				l50.738-1.903L255.199,387.514"/>
			<path style="fill:#BDBDBD;" d="M94.176,333.868l14.157,109.717c0.594,4.602,4.32,8.164,8.944,8.549l127.747,10.646
				c3.317,0.276,6.206-2.241,6.387-5.564l3.893-71.569c0.19-3.5-2.691-6.394-6.192-6.219l-102.361,5.117l-23.405-43.689
				c-3.769-7.036-11.105-11.428-19.087-11.428H98.08C95.706,329.427,93.872,331.513,94.176,333.868z"/>
		</g>
		
			<linearGradient id="SVGID_3_" gradientUnits="userSpaceOnUse" x1="397" y1="430.3665" x2="397" y2="410.3665" gradientTransform="matrix(1 0 0 1 0 70.6335)">
			<stop  offset="0" style="stop-color:#FFFFFF"/>
			<stop  offset="1" style="stop-color:#E0E0E0"/>
		</linearGradient>
		<path style="opacity:0.2;fill:url(#SVGID_3_);enable-background:new    ;" d="M711,481L711,481c0,11.045-8.966,20-20.026,20
			H103.026C91.966,501,83,492.046,83,481l0,0H711z"/>
		<g>
			<path style="fill:#212121;" d="M295.973,482.389c-1.26-0.83-3.718-2.303-4.08-3.032c-0.693-1.397-0.06-3.858-0.06-6.69
				s0.02-4.71,0.02-4.71l10.647,0.21c0,0.606-0.155,2.409-0.155,4.33c0,2.5,2.817,5.761,5.196,7.545
				c1.28,0.96,4.292,4.25,3.688,8.729c0,0-3.944,0.38-7.222-0.933C300.667,486.5,295.973,482.389,295.973,482.389z"/>
			<path style="fill:#212121;" d="M461.935,478.941c-0.089,0.808-0.861,1.392-2.122,2.222c-0.667,0.432-2.732,1.961-4.904,3.463
				c-1.201,0.83-3.121,1.694-4.826,2.208c-5.25,1.583-7.083,0.542-7.083,0.542c-0.083-3,2.218-6.351,3.5-7.312
				c4.176-3.132,6.859-4.243,7.688-6.812c0.626-2.083,2.253-2.91,2.1-5.082l1.962-0.703l3,5.035
				C461.25,472.5,462.246,475.423,461.935,478.941z"/>
			<path style="fill:#FAD6B7;" d="M444.61,405.419c-1.818-7.06-0.536-11.174,0.428-18.401l3.747-28.098l-24.253-7.348
				c0,0,1.174,30.308,2.805,42.728c0.434,3.303,0.618,6.633,0.661,9.966c0.106,8.113,3.961,33.735,7.167,60.41
				c0.232,1.93,0.718,5.245-0.415,6.824c-1.55,2.161-5.063,2.96-9.754,4.167c-6.494,2.361-5.354,5.229-5.354,5.229
				s10.859-0.396,19.886-0.146c3.527,0.097,3.373-3.749,3.373-3.749l-0.351-7.343c-0.099-2.083,0.009-4.169,0.297-6.235
				C444.612,450.739,448.785,421.632,444.61,405.419z"/>
			<path style="fill:#212121;" d="M430.435,477.155c-2.66,0-0.538-2.967-5.147-1.738c-1.808,0.482-3.646,1.37-4.625,2.292
				c-1.849,1.742-1.537,3.342-1.537,3.342s12.681,0.008,20.375-0.05c3.378-0.026,3.281-0.951,3.326-2.084
				c0.075-1.916-0.039-4.312-0.039-4.312S432.744,477.155,430.435,477.155z"/>
			<path style="fill:#FFCCBC;" d="M353.239,310.685c0,0,8.363-1.371,11.498-2.939c3.134-1.567,4.114,0.979,4.898,1.469
				s10.971,0.882,10.579,3.428c-0.392,2.547-2.351,6.465-4.506,7.836s-22.536-3.333-22.536-3.333L353.239,310.685z"/>
			<path style="fill:#FFCCBC;" d="M372.614,309.725c-0.271,0-1.307,0.18-5.206,1.532c-2.197,0.766-0.597-1.848,0.958-3.324
				c0.563,0.484,0.935,1.07,1.273,1.284C369.887,309.376,371.092,309.522,372.614,309.725z"/>
			<path style="fill:#1A3463;" d="M321.58,245.429l11.251,14.968c0,0,12.479,37.207,6.623,97.473
				c-0.116,1.193-1.113,2.132-2.312,2.138c-2.166,0.01-4.9-0.366-6.133-1.831c-14.034-16.675-13.09-103.283-13.09-103.283
				L321.58,245.429z"/>
			<path style="fill:#E0E0E0;" d="M320.414,251.718c0,0,16.28,12.927,16.612,59.927c0.074,10.53-1.535,17.514-1.535,17.514
				s-7.776,3.548-13.097,0s-4.322-22.391-4.322-22.391l-14.293-56.108L320.414,251.718z"/>
			<path style="fill:#FBC02D;" d="M322.025,248.74l1.379,1.712c0.832,1.033,1.157,2.385,0.884,3.684l0,0
				c0,0,17.039,23.589,11.99,70.285c-0.065,0.602-0.786,4.739-0.786,4.739s-2.734-3.749-3.372-5.251
				c4.212-42.021-10.232-68.902-10.232-68.902l-1.865-0.827L322.025,248.74z"/>
			<path style="fill:#FFCCBC;" d="M331.285,237.496c-1.058,1.998-3.771,4.586-7.875,6.935c-0.842,0.482-1.218,2.663-1.384,4.309
				c-0.108,1.074-0.901,1.92-0.901,1.92H303.78c0,0,2.939-1.763,4.819-6.23c1.058-2.468,0.588-5.407-1.058-7.523
				c-2.116-2.821-4.819-7.523-4.819-18.337c0-12.342,8.933-16.456,16.456-16.456c10.579,0,15.633,7.17,15.633,20.687
				C334.811,227.505,333.87,232.442,331.285,237.496z"/>
			<path style="fill:#212121;" d="M300.724,218.572c0-12.342,7.288-18.572,18.454-18.572c5.405,0,11.224,2.022,15.259,4.954
				c3.445,2.504,2.861,7.815-1.017,9.575l-6.836,3.102c0,0-2.351,1.175-2.351,4.114c-0.118,1.998-1.528,2.468-2.351,2.939
				c-0.94-3.879-2.351-4.702-3.644-4.702c-0.705,0-1.528,0.118-2.233,0.705c-0.94,0.823-1.175,2.233-1.175,3.644
				c0,1.58,1.083,4.718,1.851,5.737c0.701,0.93,0.651,2.209-0.186,3.018c-2.603,2.516-9.582,6.499-9.582,6.499
				C307.737,234.628,300.724,232.716,300.724,218.572z"/>
			<polygon style="fill:#EEEEEE;" points="309.138,241.144 322.025,248.74 319.692,257.559 305.966,247.213 			"/>
			<path style="fill:#212121;" d="M336.717,474.624c-10.338-2.214-9.583-7.432-9.583-7.432l-9.119-0.349l-0.508,10.636
				c0,0-0.515,3.521,1.619,3.521h23.608c0,0,0.087-0.559-0.014-1.175C342.468,478.293,341.341,475.682,336.717,474.624z"/>
			<path style="fill:#1D3B70;" d="M336.694,338.471c0,0-0.665,30.563-0.665,68.438c0,26.414-4.136,65.309-4.136,65.309h-15.008
				c0,0-3.099-35.278-0.378-56.044c0,0-0.629-37.896-1.626-47.208C313.882,359.657,320.022,330.734,336.694,338.471z"/>
			<path style="fill:#1F4172;" d="M327.92,337.27c-0.66,26.61-8.09,60.06-10.75,71.04c-2.66,10.97-12.92,65.44-12.92,65.44
				s-0.512,2.544-5.25,2.875c-5.375,0.375-9.75-2.875-9.75-2.875c0-31.62,5.73-59.98,7.36-66.58c-1.14-26.1-0.8-52.49-0.8-52.49
				l13.95-23.95L327.92,337.27z"/>
			<path style="fill:#1D3B70;" d="M320.683,327.181c0,0,7.935,3.546,14.997,0.89c1.349,4.105,1.014,10.4,1.014,10.4
				s-11.738,3.164-20.618,0S320.683,327.181,320.683,327.181z"/>
			<path style="fill:#22477D;" d="M306.898,245.429c0,0-10.725,14.571-14.316,20.47c-7.337,12.056,2.505,39.452,2.739,50.248
				c0,17.48-1.906,43.165-1.906,43.165l37.242,2.62c2.069,0.168,3.866-1.405,3.969-3.479c0.493-9.975,2.519-33.323,3.068-49.819
				c0.28-8.419-7.907-30.432-12.804-39.333C318.403,257.51,306.898,245.429,306.898,245.429z"/>
			<path style="fill:#285394;" d="M306.898,245.429c0,0-1.822,2.543-4.176,5.856c2.299,2.704,4.588,6.273,4.588,6.273l6.686,0.507
				l-2.554,6.824c0,0,6.744,8.559,8.963,13.991c1.862,4.559,16.622,32.764,16.622,32.764c2.099-12.219-6.018-34.24-10.915-43.141
				C319.625,256.714,306.898,245.429,306.898,245.429z"/>
			<path style="fill:#254E8A;" d="M302.027,265.288c-4.499,1.828-9.289,8.457-2.385,19.278c4.459,6.989,11.861,20.958,18.47,29.156
				c5.726,7.103,33.697,6.357,39.829,6.39l-0.22-11.045l-24.32-7.556c0,0-3.557-9.058-10.706-23.107
				C316.831,266.879,310.081,262.015,302.027,265.288z"/>
			<path style="fill:#FAD6B7;" d="M386.512,316.484c0,0-4.239,3.967-10.09,3.445c2.553-3.149,3.786-7.319,3.786-7.319
				c0.202-1.69-4.305-2.423-7.504-2.873c-0.012-0.011-0.034-0.011-0.09-0.011c-0.271,0-1.307,0.18-5.206,1.532
				c-2.197,0.766-0.597-1.848,0.958-3.324c0.496-0.462,0.991-0.811,1.352-0.913c2.916-0.777,7.744,1.098,9.975,2.085
				c0.895,0.395,1.837,0.673,2.799,0.846l2.847,0.51L386.512,316.484z"/>
			<path style="fill:#FAD6B7;" d="M367.076,317.926c0,0-1.131,1.914-0.378,2.436c0.753,0.522,7.279,1.273,7.936,1.085
				c0.657-0.188,1.315-2.019,0.423-2.535C374.165,318.395,368.766,316.987,367.076,317.926z"/>
			<path style="fill:#FAD6B7;" d="M442.448,375.577c0,0,7.451,25.658,7.14,28.925c-2.845,15.349,4.369,59.984,4.094,63.916
				c-0.432,6.186-1.369,7.269-4.897,9.988c0.336-0.263,1.033-1.497,2.59-0.579c1.742,1.027,0.826,3.276,1.875,2.964
				c5.75-1.708,8.088-7.409,8-8.292c-0.441-4.416,8.261-50.076,3.392-68.892c2.728-15.127,2.728-24.471,2.728-24.471
				L442.448,375.577z"/>
			<path style="fill:#212121;" d="M450.534,204.217l-1.269,52.888h14.357c0,0,4.375-13.213,4.322-28.229
				c-0.035-9.933-1.567-26.788-11.072-26.788C451.976,202.087,450.534,204.217,450.534,204.217z"/>
			<ellipse style="fill:#FAD6B7;" cx="456.738" cy="230.474" rx="3.583" ry="4.38"/>
			<path style="fill:#FAD6B7;" d="M459.245,220.954c0,6.77-4.832,22.658-13.794,22.658c-9.554,0-13.673-15.888-13.673-22.658
				s6.149-12.258,13.734-12.258S459.245,214.184,459.245,220.954z"/>
			<g>
				<path style="fill:#FAD6B7;" d="M459.725,251.24c0,0-5.707,20.141-13.139,21.196c-7.433-1.055-13.139-21.196-13.139-21.196
					c8.957,0.677,6.834-12.493,6.834-12.493h12.612C452.891,238.748,449.701,247.499,459.725,251.24z"/>
			</g>
			<path style="fill:#212121;" d="M445.989,203.699c-9.554,0-14.33,7.507-14.33,15.014c0,7.957,1.97,12.512,1.97,12.512
				c0-1.751-2.591-11.369,2.442-13.763c8.834-3.946,13.833,13.012,24.25,13.012c0,0,1.194-3.473,1.194-11.761
				C461.515,214.959,459.126,203.699,445.989,203.699z"/>
			<path style="fill:#A31919;" d="M419.764,308.311c-1.215,2.607-7.555,6.388-13.589,8.198c-11.546,3.464-19.052,3.034-19.052,3.034
				l-1.784-9.083c0,0,20.286-8.467,21.435-8.568c0.819-3.957,1.672-6.518,3.206-14.3c3.228-16.369,4.877-27.449,10.375-30.091
				c4.701-2.259,14.22-6.265,14.22-6.265S425.992,294.95,419.764,308.311z"/>
			<path style="fill:#D32F2F;" d="M430.83,313.678c0,0-5.754,6.873-9.848,20.67c-0.585,12.798-0.195,48.131,5.672,71.068h38
				c2.639-18.374,6.226-40.724,5.8-52.767c-1.022-28.875-8.115-38.97-8.115-38.97H430.83V313.678z"/>
			<path style="fill:#F5F5F5;" d="M466.665,290.695c-0.045,12.05-9.698,22.977-9.698,22.977h-31.764c0,0,0.703-9.73,0.599-22.317
				c0.794-13.606-0.988-26.12-2.724-35.1c4.67-2.17,10.368-3.853,10.368-3.853c4.7-1.767,3.496-2.112,5.658-3.938
				c0,0,0.465,11.796,4.301,11.796c3.835,0,10.918-12.695,10.918-12.695c1.483,1.672,0.699,1.908,5.398,3.675
				c0,0,5.614,2.799,10.269,4.97C468.28,262.181,466.725,277.224,466.665,290.695z"/>
			<path style="fill:#B71C1C;" d="M439.105,248.467c-5.66,11.564-11.778,21.516-11.778,25.382c0,2.465,3.854,17.671,5.883,21.784
				c0.555,5.591-1.523,19.662-2.96,30.008c-0.958,6.895-4.97,12.987-10.922,16.595l0,0c0,0,3.793-23.885,3.478-33.712
				c-0.11-3.266-3.734-19.17-3.763-22.318c0.227-7.308,1.193-8.977,1.311-28.703C431.401,251.722,437.999,249.638,439.105,248.467z"
				/>
			<path style="fill:#D32F2F;" d="M439.105,248.467c-5.66,14.148-8.424,28.329-8.424,32.195c0,2.465,2.133,10.981,2.529,14.971
				c0,0-7.15-7.052-7.949-14.314c-0.725-6.59,0.057-19.247,0.057-19.247l6.459-4.967l-2.705-3.068
				C433.038,252.189,435.008,249.68,439.105,248.467z"/>
			<path style="fill:#424242;" d="M492.724,345.347h2.29c0.762,0,1.38,0.618,1.38,1.38v9.553h-3.67V345.347z"/>
			<path style="fill:#424242;" d="M474.971,345.347h2.29v10.933h-3.67v-9.553C473.591,345.965,474.209,345.347,474.971,345.347z"/>
			<rect x="472.455" y="352.239" style="fill:#78909C;" width="5.941" height="3.214"/>
			<rect x="491.589" y="352.239" style="fill:#78909C;" width="5.941" height="3.214"/>
			<path style="fill:#424242;" d="M474.921,345.347h20.143c0.735,0,1.33,0.595,1.33,1.33v2.207h-22.803v-2.207
				C473.591,345.943,474.186,345.347,474.921,345.347z"/>
			<path style="fill:#FAD6B7;" d="M480.269,341.484c0,0-1.356,6.385-0.417,9.705c0.735,2.598,6.324,0.227,8.721-0.928
				c0.698-0.336,1.166-1.007,1.231-1.779c0.176-2.067,0.228-6.232-1.835-8.501C485.152,336.883,480.269,341.484,480.269,341.484z"/>
			<path style="fill:#B71C1C;" d="M478.485,341.484c0,0-0.845-19.812-2.305-28.122c-1.103-6.277-5.771-17.641-8.567-27.903
				c-4.226-15.506-7.888-23.646-7.888-23.646s8.273-6.329,13.093-4.31c5.245,2.197,8.407,15.125,11.959,30.554
				c3.607,15.666,3.607,15.666,4.305,22.468c0.721,7.021,1.423,30.396,1.423,30.396L478.485,341.484z"/>
			<path style="fill:#B71C1C;" d="M465.941,308.004c4.174,17.551,6.356,34.568,6.356,34.568l-7.021-1.881
				c-9.091-2.436-15.827-10.087-17.108-19.411c-1.243-9.054-2.502-19.502-2.333-23.625c2.423-5.897,8.903-33.294,8.903-33.294
				s2.482-14.803,4.987-13.126c0,0,8.435,4.101,13.092,6.268c-4.32,5.038-4.115,17.83-4.935,29.304
				C467.874,289.801,466.219,301.224,465.941,308.004z"/>
			<path style="fill:#D32F2F;" d="M445.836,297.655c0.225-5.487,4.201-17.036,8.485-50.089c1.36,0.632,6.27,3.438,9.32,6.415
				l-6.208,1.611l6.208,4.968C463.641,260.56,459.725,273.694,445.836,297.655z"/>
			<path style="fill:#78909C;" d="M453.132,405.415h5.157v-50.699h-5.157c-2.209,0-4,1.791-4,4v42.699
				C449.132,403.625,450.923,405.415,453.132,405.415z"/>
			<path style="fill:#424242;" d="M449.132,361.406h9.889v-6.69h-6.961c-1.618,0-2.929,1.311-2.929,2.929L449.132,361.406
				L449.132,361.406z"/>
			<path style="fill:#90A4AE;" d="M459.834,405.417h-3.011c-1.713,0-3.101-1.388-3.101-3.101v-44.494
				c0-1.713,1.388-3.101,3.101-3.101h3.011c-2.03,0-3.667,1.638-3.667,3.667v43.361
				C456.167,403.779,457.805,405.417,459.834,405.417z"/>
			<path style="fill:#90A4AE;" d="M457.834,405.419h-3.009c-0.051,0-0.103,0-0.154-0.007h3.039
				C457.747,405.419,457.79,405.419,457.834,405.419z"/>
			<path style="fill:#78909C;" d="M467.808,354.72v50.692h-8.098c-1.97-0.059-3.544-1.677-3.544-3.661v-43.363
				c0-2.028,1.64-3.668,3.668-3.668L467.808,354.72L467.808,354.72z"/>
			<path style="fill:#424242;" d="M464.879,354.72v6.685h-8.713v-3.017c0-2.028,1.64-3.668,3.668-3.668H464.879z"/>
			<path style="fill:#B0BEC5;" d="M461.552,402.314l0.002-40.908l1.524-2.926c0-1.618,0.317-2.543,1.935-2.543l2.795-1.22h41.525
				c1.712,0,3.1,1.388,3.1,3.1v44.498c0,1.713-1.388,3.101-3.101,3.101h-44.679C462.94,405.415,461.552,404.027,461.552,402.314z"/>
			<path style="fill:#616161;" d="M461.552,361.406l0.002-3.763c0.001-1.617,1.312-2.927,2.929-2.927h3.286l0.04,6.69H461.552z"/>
			<path style="fill:#616161;" d="M512.433,361.406l-0.002-3.59c-0.001-1.712-1.389-3.099-3.101-3.099h-3.114l-0.04,6.69h6.257
				V361.406z"/>
			<rect x="464.664" y="357.816" style="fill:#CFD8DC;" width="44.658" height="44.499"/>
			<path style="fill:#ECEFF1;" d="M468.614,375.175L468.614,375.175c0-0.879,0.713-1.591,1.592-1.591h33.574
				c0.879,0,1.592,0.713,1.592,1.592l0,0c0,0.879-0.713,1.592-1.592,1.592h-33.574C469.327,376.768,468.614,376.055,468.614,375.175
				z"/>
			<path style="fill:#ECEFF1;" d="M468.614,384.955L468.614,384.955c0-0.879,0.713-1.591,1.592-1.591h33.574
				c0.879,0,1.592,0.713,1.592,1.592l0,0c0,0.879-0.713,1.592-1.592,1.592h-33.574C469.327,386.548,468.614,385.835,468.614,384.955
				z"/>
		</g>
	</g>
</g>
</svg>
