<svg xmlns="http://www.w3.org/2000/svg" viewBox="0 0 877.4 862.38"><title>loggedOut</title><g id="Layer_2" data-name="Layer 2"><g id="Layer_1-2" data-name="Layer 1"><path d="M752,179.79a6,6,0,0,0-.4-2.95,6.38,6.38,0,0,0-2.55-1,7.48,7.48,0,0,0-2.11-.46,11.07,11.07,0,0,0-2-.61,16,16,0,0,0-1.87.11c-.61-.06-1.23-.12-1.81-.13-.55.27-1,.57-1.54.87s-1,.52-1.47.77l-1.71-.15-1.31,1-1.65-.06-1.11,1.39-1.66-.28-1.19,1a14.46,14.46,0,0,1-1.58-.68l-.46.77-.62.78h-1.61c-.59-.19-1.21-.36-1.85-.51-.49.42-1,.86-1.42,1.31a16,16,0,0,0-1.74.53,11.39,11.39,0,0,0-2,.4,11.5,11.5,0,0,0-.78,2.11,13.51,13.51,0,0,0-1.39,1.2c-.52.35-1,.77-1.5,1.18-.19.62-.39,1.21-.52,1.81a17,17,0,0,0-1.33,1.39,15.79,15.79,0,0,0-.66,1.7,13.85,13.85,0,0,0,.58,1.94,16.25,16.25,0,0,0-1.54,1.57,16.76,16.76,0,0,0,.24,1.81c-.09.59-.09,1.19-.12,1.79.32.57.73,1.12,1.09,1.64-.25.62-.45,1.26-.66,1.94.45.51.91,1,1.37,1.45.12.58.21,1.17.36,1.76a16.9,16.9,0,0,0,.22,1.92c.47.44,1,.83,1.47,1.21.23.56.48,1.11.77,1.66.44.42.88.83,1.37,1.2s1.06.63,1.59.92,1,.65,1.53.93a14.77,14.77,0,0,0,1.57.86,15.31,15.31,0,0,0,1.51,1.11,14.91,14.91,0,0,0,1.84.45,11.65,11.65,0,0,0,1.89.36,12.21,12.21,0,0,0,2,.57,14.37,14.37,0,0,0,2-.46,12.6,12.6,0,0,0,1.55-1.46,13.57,13.57,0,0,0,1.66-.74,14,14,0,0,0,1.52-.95,13.37,13.37,0,0,0,1.76-.67c.43-.42.84-.85,1.23-1.29s.63-1,.91-1.51c.44-.38.88-.79,1.28-1.21,0-.68,0-1.34,0-2,.37-.41.71-.83,1.05-1.26l.39-1.58c.36-.41.71-.83,1.05-1.25l.32-1.54.32-1.51c.09-.35.51-.55.15-1.09-.06-.09.11-.36-.83-.76l-.3-.11h0l.18.07c1,.4,1.53.62,1.88.73.81.26.37-.08.37-.14l.18-.88.72-1.25,1.4-.91.33-1.58,1.34-1,.27-1.66c.52-.32,1-.67,1.56-1q.24-.81.45-1.66c.21-.54.4-1.09.58-1.67a16.07,16.07,0,0,0,.42-1.85,9.81,9.81,0,0,0,.45-2.11A8.35,8.35,0,0,0,752,179.79Z" style="fill:#96cdef;"/><path d="M772.34,180.86c0-.27-.06-.55-.09-.81l-.07-.5-.13-.93-.26-1.85c-.25-1.74,0-3.56-.83-5.22-.14-.27-.2-1.85-1.6-1.66a2.17,2.17,0,0,0-.43.11v-.05h0l.15,0a2.76,2.76,0,0,0,1.54-.61c.59-.59.05-1.38,0-1.7l-.76-4.78-.66-7.41,0-7.48-1-7.43q-.1-3.76-.3-7.54c-.46-2.48-1-5-1.52-7.42-.2-2.53-.44-5.06-.8-7.6a41.91,41.91,0,0,0-2.53-7.48c-1-2.43-2.25-4.69-3.43-6.88s-2.29-4.29-3.26-6.49a68.63,68.63,0,0,0-3.36-7l-1.13-1.59L750.55,87c-.86-1-1.62-2-2.54-2.92l-2.08-3.29c-.76-1.05-1.56-2.09-2.34-3.14s-2-1.64-3.05-2.45L739,74,737.34,73a60.06,60.06,0,0,0-6.55-4.12L727.42,67c-1.13-.63-2.34-1.09-3.51-1.65a32.16,32.16,0,0,0-3.67-1.27,30.53,30.53,0,0,0-3.75-1c-1.26-.3-2.5-.71-3.78-.92l-3.85-.64a59,59,0,0,0-7.78.31,62.63,62.63,0,0,0-7.64,1.14,60.2,60.2,0,0,0-7.61,1.44,61.7,61.7,0,0,0-7,3.23,62,62,0,0,0-7,3.33A53.89,53.89,0,0,0,666,76.08a47.52,47.52,0,0,0-5.86,5.14,75.94,75.94,0,0,0-4.21,6.41l-4.8,5.82c-1.06,2.21-2.21,4.55-3.23,6.88-1.37,2.13-2.66,4.31-3.88,6.54s-2.6,4.39-3.8,6.66q-1.14,3.67-2,7.37-1.24,3.59-2.31,7.23t-2.28,7.24q-.36,3.79-.6,7.57l-1.39,7.37c-.53,2.44-1,4.88-1.48,7.39-.14,1.26-.2,2.53-.26,3.79s-.16,2.53-.14,3.79l-.45,3.78-.3,3.8c0,2.54,0,5.08.16,7.61.39,2.52.9,5,1.45,7.49,0,2.54,0,5.11.21,7.66.52,2.49,1.21,4.94,1.88,7.39s1.23,4.93,2,7.35c1,2.36,2.11,4.65,3.22,6.92.73,2.43,1.48,4.87,2.38,7.27.63,1.11,1.32,2.19,2,3.25s1.35,2.13,2.13,3.21a25.32,25.32,0,0,0,4.86,6.49,12.64,12.64,0,0,0,3.74,2.57,10,10,0,0,0,4.83.81,15.51,15.51,0,0,0,7.73-4.09c2.14-1.58,4-3.26,5.87-4.68a14.7,14.7,0,0,1,5.46-3.26,56.6,56.6,0,0,1,7-1.7c2.39-.38,4.81-.63,7.26-.83s4.92-.27,7.4-.38,5,0,7.51,0l7.43-.43c2.51-.1,5-.24,7.59-.51a43.65,43.65,0,0,0,7.84-1.07,16.91,16.91,0,0,0,7.46-4.38,24.14,24.14,0,0,0,3.75-7.27c.55-1.12,1.08-2.23,1.65-3.28l2.33-4.84.59-1.24.3-.62a2.61,2.61,0,0,0-.66-.21c-1-.24-1.83-.47-2.79-.66a19.36,19.36,0,0,0-3-.25h-2c-2.46-.11-4.73-.36-6.15-1.34a7.57,7.57,0,0,1-3.53-4.19,6.71,6.71,0,0,1,.06-5.35,3.28,3.28,0,0,1,1.68-1.44,15,15,0,0,1,3-.67,49.37,49.37,0,0,1,7-1.85c2.42,0,4.85.08,7.28.28,2.42,0,4.9.12,7.45.12a52.54,52.54,0,0,0,7.77.34,35.3,35.3,0,0,0,7.73-1.84c.21-.09.88-.29,1.35-.52a4.33,4.33,0,0,0,1.3-.92A3.7,3.7,0,0,0,772.34,180.86Z" style="fill:#0b1b30;"/><g style="opacity:0.31;"><path d="M758.44,178.76c-.58-.32-.2-.1-.19-.09l.17.14,0,0-.53-.24.31.25-.46-.21.35.28-.63-.33.15.16v.07l0,.08-.17,0,.61.48-.77-.47.45.38.14.17-.26-.12,0,.05-.28-.14.28.29.18.21-.43-.27.28.3-.39-.25.51.5-.51-.35.29.32-.66-.5.7.69-.23-.13-.57-.44.42.46L757,180l-.41-.31.62.68-.11,0-.29-.21.21.29-.39-.31h-.09l.48.59-.72-.68.13.22a.33.33,0,0,1-.12-.08l.43.52-.5-.59.41.55-.15-.18-.3-.42.25.39-.17-.25.07.14.14.28.05.14v.06l-.09-.17-.05-.1v.07l0,0-.17-.44,0,.09.2.69s0,0,0-.05h-.12l-.26-.47-.12,0-.05.21-.24-.31.23.91-.24-.3v.29l-.32-.44,0,.2,0,.19s-.26-.38,0,.2a10.87,10.87,0,0,0,.62,1.24l.3.58.53,1,.42.79a1.81,1.81,0,0,0-.09-.23v-.06l-.07-.25.17.29.21.42-.1-.32.15.33-.09-.32v-.11l.07.12-.13-.58.15.39a3,3,0,0,0,.2.25l0-.39.3.46.1-.13.06-.21.37.52,0-.2-.08-.37-.11-.5.43.56.15,0-.34-.83.53.62-.28-.65.14,0H759l.4.3.17,0c-.13-.23-.27-.45-.42-.67a.57.57,0,0,0,0-.13l.76.69-.49-.65h.11l.58.47-.36-.5-.26-.38.76.63-.55-.66.48.34-.31-.42.59.43-.58-.65.45.29-.31-.4.59.4-.32-.4v-.12l.69.46,0-.1-.07-.17-.58-.58h.14l.57.33h.17l-.65-.61.59.32-.39-.39.29.1-.18-.23,0-.08.09,0,.48.21.12,0,0-.08-.55-.45.32.1.56.24,0-.13-.21-.23.35.1-.5-.39.2.08.16.06s.13.06-.09-.07l-2.08-1.17Z" style="fill:#0b1b30;"/></g><path d="M753.82,150a13.21,13.21,0,0,0,.14-1.8,10.83,10.83,0,0,0-.81-1.57,10.52,10.52,0,0,0-.77-1.51,14,14,0,0,0-.72-1.54,15.75,15.75,0,0,0-1.5-.9c-.23-.5-.49-1-.76-1.52l-1-1.35c-.48-.19-1-.37-1.44-.54l-.85-1.36-1.3-.73-1.37-.59-.92-1.36-1.61-.16-1.57-.17c-.3-.49-.62-1-.94-1.45l-1.32-.7-1.78.44c-.33-.5-.67-1-1-1.48-.56.1-1.13.22-1.68.34l-1.53-.47a10.35,10.35,0,0,0-1.56-.45l-1.62-.76a8.52,8.52,0,0,0-1.72-.08,16.94,16.94,0,0,0-1.56,1.15l-1.57.5a10,10,0,0,0-2-.66,11.92,11.92,0,0,0-1.12,1.65l-1.47.81a12.28,12.28,0,0,0-1.94.35,8.92,8.92,0,0,0-.69,1.78c-.22.56-.44,1.1-.61,1.65-.63.22-1.29.48-2,.79a10.26,10.26,0,0,0,.26,2,9.65,9.65,0,0,0-1.27,1.37c.07.63.15,1.23.25,1.81a17.65,17.65,0,0,0-1.09,1.64,8.18,8.18,0,0,0,1.15,1.69c-.18.57-.36,1.16-.51,1.78.35.51.71,1,1.07,1.46a9,9,0,0,0-.32,1.91q.65.66,1.3,1.24a15.31,15.31,0,0,0,1,1.32,19.7,19.7,0,0,0,0,2l1.21,1.31c.47.36,1,.69,1.42,1a14.18,14.18,0,0,0,2,.1,12.27,12.27,0,0,0,1.25,1,17.67,17.67,0,0,0,1,1.58c.46.29.92.61,1.39.87q1-.28,1.91-.6c.38.47.77.92,1.19,1.38.57-.08,1.14-.22,1.69-.36.46.25.93.52,1.41.73l1.56-.13,1.5.15c.5.09,1,.12,1.5.19.49.28,1,.55,1.49.8.51,0,1,.12,1.54.13l1.55-.07,1.44-1.14c.52.12,1,.17,1.58.26s1.13.39,1.72.57c.51-.15,1-.32,1.6-.54a15.52,15.52,0,0,0,1.5-1,14.43,14.43,0,0,0,1.81-.34,14.41,14.41,0,0,0,1-1.75,3.45,3.45,0,0,0,.6-.14l.45-.16c.11,0,.83-.12-1.63-2.76h0l.12.12.68.63c.42.37.59.43.65.38a3.85,3.85,0,0,0,.75-1,9.85,9.85,0,0,0,1-1.34,9.56,9.56,0,0,0,.59-1.56,12.19,12.19,0,0,0,.85-1.49,11,11,0,0,0,.76-1.65A10.45,10.45,0,0,0,753.82,150Z" style="fill:#96cdef;"/><path d="M744.82,147.88a5.24,5.24,0,0,0,1-.79,7.23,7.23,0,0,0-1-.48,2.28,2.28,0,0,0-.13-.63,7.62,7.62,0,0,0,.4-1,3.85,3.85,0,0,0-.89-.26c-.26-.08-.51-.15-.76-.2a7.84,7.84,0,0,0,.34-1.19,8.79,8.79,0,0,0-1.08.26,8.1,8.1,0,0,0-.11-.88q-.42.06-.8.15a9.74,9.74,0,0,0-.17-1,8.43,8.43,0,0,0-.92.62q-.16-.36-.35-.74a4.91,4.91,0,0,0-.7.36q-.18-.43-.42-.87a4.69,4.69,0,0,0-.66.45l-.58.06a7.27,7.27,0,0,0-.61-.9l-.64.11-.6.25a9.13,9.13,0,0,0-.38,1l-.59.06a5.34,5.34,0,0,0-.86-.38l-.68.19a6.34,6.34,0,0,0,0,1.17,7.73,7.73,0,0,0-1-.14,3.62,3.62,0,0,0,0,.88l-.64.31a4,4,0,0,0-.1.69l-.24.56-.29.54a6.77,6.77,0,0,0-.73.41c-.08.2-.17.39-.23.6s-.06.43-.08.65a7.32,7.32,0,0,0,.74.67,6,6,0,0,0-.33.63,6.58,6.58,0,0,0-.57.76c.08.22.17.44.27.66a6.4,6.4,0,0,0,.52.54,4.85,4.85,0,0,0-.07.77,8.68,8.68,0,0,0,.95.22l-.08.28-.05.23c0,.05-.25.49,2.18-1.31h0l-.1.07-.53.42c-.32.26-.41.36-.4.39s.18.21.27.32a2.56,2.56,0,0,0,.27.5,3.93,3.93,0,0,0,.44.33c.07.2.15.39.24.59a6.69,6.69,0,0,0,.23.71l.64.06a6.11,6.11,0,0,0,.38.59,3.9,3.9,0,0,0,.66-.05l.59.08a3.94,3.94,0,0,0,.55.26,7.64,7.64,0,0,0,.64-.47l.56.42a3.64,3.64,0,0,0,.63.26c.2-.14.39-.28.57-.43a8,8,0,0,0,.73.34,3.66,3.66,0,0,0,.59-.3l.52-.43a6.17,6.17,0,0,0,.86.16,4.46,4.46,0,0,0,.24-.81c.07-.26.12-.51.16-.75a5.77,5.77,0,0,0,.94.05l.47-.44a6.26,6.26,0,0,0-.39-1,10,10,0,0,0,1-.09,7,7,0,0,0-.39-.82l.28-.47a3.53,3.53,0,0,0,.27-.51q.32-.21.64-.47c.08-.2.17-.39.23-.6a8.19,8.19,0,0,0-.77-.7Z" style="fill:#0b1b30;"/><path d="M748.4,190.3c.15-.69,0-.24,0-.23l-.22.19-.24-.07-.11-.66-.34.36-.14-.58-.35.42-.1-.79-.3.18h-.26l-.27,0-.22-.21-.39.77-.1-1-.35.58-.28.19-.21-.32h-.25l-.21-.34-.3.39-.28.26-.2-.54-.29.4-.21-.49-.31.72-.2-.64-.28.43-.2-.85-.31,1-.24-.26-.22-.73-.28.62-.25-.15-.24-.5-.27.92-.25-.1-.25-.35-.25.35-.26-.48-.26-.06-.24.75-.28-1-.25.26-.26-.12-.22.67-.29-.73-.21.68-.27-.19-.29-.45-.22.47-.28-.24-.24.18-.22.32-.23.17-.24.09-.28-.22-.24.11h-.25l-.31-.36-.24.14-.15.68h-.25l-.25,0-.32-.39-.25.05-.21.23-.3-.22-.09.82-.3-.22c-.07.09-.13.19-.19.3l-.32-.28-.2.23a1.25,1.25,0,0,0-.2.25c0,.06-.17-.2-.12.24,0,.07-.06,0,.15.87l.1.39.18.69a3.19,3.19,0,0,0,.17.55c.07,0,.1-.07.16-.1a.53.53,0,0,0,.24,0l.19-.19.29.25.31.36.17-.28.29.27.18-.28.21-.1.25.1.14-.52.29.33.26.22.18-.35.29.42.21-.11.2-.2.29.49.17-.49.18-.43.3.63.23.07.15-.81.29.76.18-.65.23.06.23.1.25.47.23.09.19-.76.22-.09.26,1,.2-.79.23.07.23.73.22-.6.23-.44.22,1,.23-.84.21.59.24-.5.2.75.26-.85.2.55.25-.49.18.73.26-.48.23-.07.16.86.22,0,.23-.13.31-.81.21.13.15.7.2.18.34-.88.13.73.3-.53.18.34.27-.25.23,0,.21.09.13.58.2.14.22,0,.36-.69.15.39.09.68.24-.06.28-.26.13.42.37-.61,0,.24v.19s0,.15.07-.11.26-.93.65-2.49Z" style="fill:#0b1b30;"/><path d="M655.32,126.11A98.41,98.41,0,0,0,652.54,112a110,110,0,0,0-3.86-13.8l-1-2c-.58-1.21-1.44-2.79-2.32-4.34s-1.83-3.07-2.52-4.21-1.2-1.88-1.2-1.88c-.67-1.34-1.31-2.7-2-4L637.9,78.6c-.38-.74-2.46-4.71-5.9-2.18h0l-.06-.08.1-.18a6,6,0,0,0,.44-1.12,2.34,2.34,0,0,0-.45-2A73.82,73.82,0,0,0,625,64.94c-1.62-1.71-3.3-3.37-5.06-5s-3.62-3-5.45-4.47c-3.72-2.83-7.62-5.41-11.58-7.88-2-1.27-3.91-2.56-5.9-3.79s-4-2.43-6.06-3.53c-4.07-2.31-8.21-4.52-12.45-6.51-4.36-1.72-8.79-3.22-13.24-4.6-4.37-1.66-8.79-3.15-13.24-4.56-4.55-1.06-9.1-2-13.68-2.88s-9.09-1.83-13.73-2.52c-4.6-.86-9.23-1.48-13.88-2-4.68-.18-9.35-.16-14,0-2.32-.17-4.65-.26-7-.4l-7-.19-7,.11c-2.33.1-4.66.17-7,.31-4.63.6-9.24,1.3-13.82,2.14-4.64.42-9.28.95-13.91,1.64-2.29.48-4.56,1-6.83,1.55s-4.53,1.12-6.78,1.75c-4.5,1.26-9,2.71-13.36,4.26-4.52,1.2-9,2.57-13.47,4-4.23,2-8.42,4.12-12.51,6.37s-8.16,4.51-12.13,6.94c-4.27,1.87-8.48,3.88-12.66,5.95-4,2.34-8,4.78-11.91,7.26q-5.48,4.35-10.82,8.82c-4,2.25-8,4.67-12.05,7.1-1.8,1.49-3.47,3.15-5.21,4.71s-3.46,3.13-5.08,4.83l-5.32,4.54c-1.74,1.55-3.41,3.18-5.12,4.77l-2.56,2.39-2.44,2.52c-1.62,1.69-3.28,3.34-4.86,5.06-3.2,3.42-6.52,6.77-9.46,10.47s-5.45,7.7-8.09,11.63c-1,2.15-2,4.34-2.93,6.49-.46,1.09-1,2.13-1.4,3.26l-1.2,3.34-1.44,3.22-.72,1.61-.6,1.66L269.71,152c-1,2.15-1.78,4.38-2.68,6.6L265.72,162l-1,3.44c-.19,2.39-.51,4.76-.58,7.14l0,7.13a62.81,62.81,0,0,0-.25,7.07l0,3.54V192c0,.59.09,1.18.13,1.76.06,4.72-.07,9.5.46,14.27a104.65,104.65,0,0,0,4.32,13.64,95.51,95.51,0,0,0,6,12.92,82.89,82.89,0,0,0,6.14,13.07,70.57,70.57,0,0,0,10.63,9.87,74,74,0,0,0,11.08,9.28,77.6,77.6,0,0,0,13.34,5.41,83.79,83.79,0,0,0,13.53,4.87,99.08,99.08,0,0,0,14.34.28,104.76,104.76,0,0,0,14.25.31,95,95,0,0,0,13.87-3.26,117.75,117.75,0,0,0,13.83-3.32c4.32-1.95,8.49-4.09,12.57-6.32,4.18-2,8.29-4.15,12.38-6.25l12.91-5q6.15-3.09,12.3-6.06t12.33-5.76c4-2.14,8.1-4.09,12.27-5.92a128.09,128.09,0,0,1,13.09-3.41c2.23-.33,4.47-.55,6.7-.75s4.77-.43,7.1-.85A115.8,115.8,0,0,0,501.08,227q6.42-3.1,12.48-6.62,6.56-2.42,13-5.12l11.92-7.09c4.15-2,8.29-3.94,12.44-5.82,4-2.09,8.19-4.19,12.25-6.43s8.21-4.3,12.26-6.53l12.1-6.7,12.39-6.08c4.07-2.22,8-4.45,12-6.38a46.71,46.71,0,0,1,11.88-4.41c3.77-1.1,8.46-.85,13.54-2a17,17,0,0,0,10.76-5.45,17.12,17.12,0,0,0,2.48-3.3,28.67,28.67,0,0,0,3.07-7.21,68,68,0,0,0,1.62-7.16A80.46,80.46,0,0,0,655.32,126.11Z" style="fill:#e12729;"/><path d="M847.74,317.82a13.17,13.17,0,0,0-1-1.91,27.6,27.6,0,0,0-6.85-7.06,55.22,55.22,0,0,0-8-5.22,28.56,28.56,0,0,0-9.22-3.53,13.8,13.8,0,0,0-5.37.08,21.07,21.07,0,0,0-4.85,1.75c-5.77,3.25-10.35,7.54-15,11.49-5,3.64-9.72,7.68-14.73,10.75a36.29,36.29,0,0,1-7.62,4.12,21.19,21.19,0,0,1-8.25,1.54c-5.65-.45-10.88-3.24-15.78-6.59-2.54-1.55-5-3.28-7.58-5s-5-3.49-7.44-5.32a151.25,151.25,0,0,1-13.8-11.82,95.39,95.39,0,0,1-11.7-13.69c-3.39-5-6.36-10.3-9.45-15.66-3.35-5.22-6.91-10.36-10.66-15.31q-4.94-7.91-10.5-15.44c-2.27-2.59-4.69-4.47-6.5-6.58a10.75,10.75,0,0,1-2-3.16,9.82,9.82,0,0,1-.55-3.81c.06-2.64.93-6,.34-9.54a17.1,17.1,0,0,0-1.57-4.94c-.73-1.5-1.53-2.84-2.25-4.16-2.8-5.43-5.44-11-8.2-16.53s-5.84-11-9.23-16.24a58.87,58.87,0,0,0-12.28-14.68,48.09,48.09,0,0,0-8.24-5.12q-2.17-1.05-4.39-1.94l-2.21-.84c-.67-.27-1.35-.52-2-.81-5.34-2.39-10.19-6.12-15.37-9.59a64.91,64.91,0,0,0-8-5.13,43.58,43.58,0,0,0-9.06-3.49,63,63,0,0,0-19-.93,104.6,104.6,0,0,0-18.64,2.75c-3,.91-6,1.87-8.89,2.93l-4.38,1.6c-1.49.57-3,1.21-4.41,1.92-5.95,2.46-11.1,6.39-16,9.92a82.17,82.17,0,0,1-7.28,5.3,36.63,36.63,0,0,1-7.93,3.77c-5.75,1.55-11.8,2.1-18,2.9a86.69,86.69,0,0,0-18,5.86,80.9,80.9,0,0,0-16.71,8.73,79.23,79.23,0,0,0-7.64,5.63,57.31,57.31,0,0,0-6.94,6.69,57.39,57.39,0,0,0-5.13,8.18,41.66,41.66,0,0,0-3.52,9,25.53,25.53,0,0,0-1.16,9.9,17.87,17.87,0,0,0,3.92,9.55c1.51,1.82,1.36,1.46,1.28,1.82l-2.28,1.92a71,71,0,0,1-7.29,5.1,123.66,123.66,0,0,1-15.59,9.28c-5.58,2.52-11.3,4.92-16.87,7.65s-11.17,5.32-16.66,8.2c-5.38,3.1-10.68,6.35-15.81,9.86A166.33,166.33,0,0,0,340,282.6a32.89,32.89,0,0,0-3.58,3.45,14.68,14.68,0,0,0-2.86,4.65,10.85,10.85,0,0,0-.46,5.81,15.6,15.6,0,0,0,2,5,31,31,0,0,0,6.84,7.17l7.35,5.64q6.66,6.31,12.76,13.16c4.39,4.24,8.64,8.64,12.81,13.13S383,349.89,387,354.58l12.57,13.57q5.75,7.26,11.72,14.38c4.37,4.36,8.69,8.92,14,12.65a33.55,33.55,0,0,0,17.95,7.26,42.56,42.56,0,0,0,5.43.27h0a2.41,2.41,0,0,0,.44,0,51.24,51.24,0,0,0,13.36-2.19,83.4,83.4,0,0,0,16.94-8.64c5.68-3.32,10.2-7.74,14.74-11.88,2.21-2.14,4.39-4.24,6.65-6.19s4.71-3.72,7.15-5.53a171.76,171.76,0,0,1,15.17-10.12,115.8,115.8,0,0,1,16.33-7.9c5.66-2.11,11.55-3.84,17.45-5.48s11.94-3,17.92-4.61a172.49,172.49,0,0,0,17.66-6.11c5.77-2.35,11.4-4.93,17-7.68,2.82-1.33,5.58-2.66,8.39-4.12s5.43-3.17,8-4.38a15.69,15.69,0,0,1,5-1.71,6.43,6.43,0,0,1,1.24-.1h.47l.38.07,1.58.3a24.51,24.51,0,0,1,3.44,1l2.17.71c1.76,1.86,3.52,3.72,5.31,5.56q6.16,6.92,12.62,13.59c4.32,4.43,8.76,8.76,13.36,12.92s9.15,8.41,14,12.34c5,3.78,10.07,7.36,15.39,10.64A159.76,159.76,0,0,0,717.3,382a141.24,141.24,0,0,0,17.38,7.16,89.84,89.84,0,0,0,18.69,3,51,51,0,0,0,19-1.79,76.88,76.88,0,0,0,17.12-8A141.31,141.31,0,0,0,805.11,372c4.86-3.89,9.54-7.92,14.22-11.91s9.48-8,13.95-12.32c3.15-3.07,6.6-6,8.85-9.93.4-.56,2.82-3.92,1.61-4.61a1,1,0,0,0-.45-.13l.07-.11h0l.12.09a1.74,1.74,0,0,0,1.91,0c1.28-.82,1.9-3.14,2.17-4a17.79,17.79,0,0,0,.63-2,16.65,16.65,0,0,0,.57-4.64A13.61,13.61,0,0,0,847.74,317.82Z" style="fill:#0b1b30;"/><path d="M556.62,565.77a179.52,179.52,0,0,0-6.16-24.39q-4.51-11.74-10.07-23c-3.46-7.58-7.15-15.05-11-22.42-4.15-7.21-8.46-14.32-12.81-21.38-4-7.25-8.06-14.46-11.74-21.8a183.31,183.31,0,0,1-10.54-22.11c-1.06-2.74-2-5.53-2.85-8.33h0l-.1-.34a95.77,95.77,0,0,1-3.22-14.69c-.42-3.75,0-7.94-.5-12.43a20.62,20.62,0,0,0-.7-3.45,11.19,11.19,0,0,0-.66-1.71,8.74,8.74,0,0,0-.83-1.6,32.33,32.33,0,0,0-1.93-2.89c-.7-.88-1.44-1.71-2.2-2.5a60.1,60.1,0,0,0-4.72-4.42c-1.61-1.37-3.23-2.7-5-4a91.67,91.67,0,0,0-10.79-6.82c-7.58-3.79-15.42-6.65-23-9.82L428.2,353l-.29-.14c-4.08-2.1-8.12-4.25-12.08-6.5a185.42,185.42,0,0,1-21.29-12.16A113.69,113.69,0,0,1,376,318.32a94.72,94.72,0,0,1-7.52-9.55,114.07,114.07,0,0,0-7.31-10.33A22.94,22.94,0,0,0,350,291a15.84,15.84,0,0,0-7.12-.38,12.29,12.29,0,0,0-3.52,1.19,18.11,18.11,0,0,1-2.62,1l-2.94,1-.81.28a3.44,3.44,0,0,0-1.1.61l-1.33.92a60.75,60.75,0,0,0-5.06,4,73.26,73.26,0,0,0-8.79,9.33,149.29,149.29,0,0,0-13.06,21.57L298,341.64l-5.41,11.22q-5.65,11.1-11.07,22.3l-10,22.77q-5.38,11.2-10.9,22.29l-5.1,11.3c-1.77,3.73-3.5,7.48-5.31,11.19-4,7.21-8.15,14.36-12.56,21.32l-3.07,5.36-3.22,5.27c-2.11,3.54-4.39,7-6.68,10.39l-.45.61-.26-.34a23,23,0,0,0-3.5-3.37c-1,.94-2,1.82-2.94,2.85L216.43,486l-.81,1-.13.17L213.32,486q-11.42-5-22.93-9.74Q179.14,471,167.78,465.9q-11.27-5.29-22.65-10.36a24.32,24.32,0,0,0-6.68-1.81,11.28,11.28,0,0,0-3.9.35,14.6,14.6,0,0,0-3.4,1.43,39.39,39.39,0,0,0-5.34,3.86c-1.64,1.34-3.23,2.74-4.78,4.17a98,98,0,0,0-16.7,19,97,97,0,0,0-6.54,10.91,27.15,27.15,0,0,0-2.53,6.32,12.31,12.31,0,0,0,.58,7.63,22.56,22.56,0,0,0,4,5.73c1.46,1.61,2.92,3,4.37,4.55s2.92,3,4.43,4.42,3,2.93,4.52,4.32c5.84,6,12,11.54,18.41,16.92s12.92,10.56,19.75,15.36c7,4.61,14.08,9,21.44,12.9,7.21,4.19,14.6,8.08,22.17,11.63l5.76,2.46c1.91.82,3.85,1.64,5.94,2.34a25.14,25.14,0,0,0,6.69,1.36,17.88,17.88,0,0,0,3.55-.15,25.47,25.47,0,0,0,3.37-.71,48.44,48.44,0,0,0,11.51-6q5.24-3.42,10.33-7c7.1-4.35,14-9,20.84-13.81,3.25-2.54,6.55-5.29,9.65-7.78a89,89,0,0,1,10.08-6.64c3.57-2,7.25-3.86,10.92-5.87,1.84-1,3.66-2,5.5-3.16a59.41,59.41,0,0,0,5.31-3.72c6.58-5.49,12-11.74,18.18-17.05,3.18-2.42,6.69-4.63,10.14-6.87s7-4.39,10.5-6.56c6.78-4.74,13.62-9.46,20.3-14.45,1.72-1.21,3.4-2.32,5.15-3.7l4.79-3.94c3.11-2.48,6.34-4.11,9.57-3.17s6.13,3.5,8.51,6.52a114.71,114.71,0,0,1,6.65,10.16q7,10.33,14.42,20.36,7.11,10.24,14.68,20.16l3.9,4.87a55.89,55.89,0,0,0,4.41,4.72l8.74,8.79c2.9,2.93,5.77,5.88,8.54,8.9a89.38,89.38,0,0,1,7.7,9.32A15.49,15.49,0,0,1,461.9,575c.13.28.19.57-.07.73L460.33,577l-1.74,1.59q-1.72,1.61-3.36,3.3c-1.11,1.17-2.12,2.18-3.25,3.59a7.86,7.86,0,0,0-1.41,2.71,6.11,6.11,0,0,0,.06,3.33,13.42,13.42,0,0,0,4.18,5.85c1.63,1.46,3.31,2.72,4.87,4a20.75,20.75,0,0,1,4,4,3.54,3.54,0,0,1,.41,3.94,11.9,11.9,0,0,1-3.68,3.71c-1.56,1.07-3.37,2-5.24,3.1a19.46,19.46,0,0,0-5.29,4.37,25.28,25.28,0,0,0-3.52,5.77c-1.74,4.05-2.85,8-4.21,11.89l-3.94,11.78-8,23.52-8.39,23.39-7.85,23.56-7.25,23.77C404,752,401.5,759.95,399.34,768c-1.07,4-2.05,8.09-2.89,12.19-.4,2.07-.85,4-1.12,6.28a11.48,11.48,0,0,0,1.17,7.22c1.46,2.45,3.86,3.61,5.78,4.48s3.9,1.64,5.88,2.38a118.86,118.86,0,0,0,12.07,3.81,120.79,120.79,0,0,0,12.47,2.28c2.1.26,4.2.49,6.31.63a47.22,47.22,0,0,0,6.53.16,19.35,19.35,0,0,0,6.88-1.62,16.93,16.93,0,0,0,5.64-4.4c1.5-1.71,2.67-3.41,3.92-5.11s2.41-3.44,3.58-5.19a217.71,217.71,0,0,0,12.91-21.54c3.52-7.58,6.75-15.23,10-22.86,3.61-7.45,7.28-14.83,11.14-22.13,3.66-7.39,7.51-14.71,11.38-22L523.35,681q5.89-11,11.52-22.08t10.63-22.57c2.32-5.39,5.06-10.67,6.52-16.39.23-.93,2.18-5.83.84-6.27a.83.83,0,0,0-.48,0l.06-.16v0l.14.06a1.74,1.74,0,0,0,1.9-.8c1.12-1.49,1.54-4.46,1.83-5.5a15.92,15.92,0,0,0,.54-2.53l1-5.62c.33-2,.35-4.12.5-5.67l.18-2.58A116.75,116.75,0,0,0,556.62,565.77Z" style="fill:#0b1b30;"/><path d="M537.39,165.84a54.71,54.71,0,0,1,14.76,17.34" style="fill:#102b4c;"/><path d="M553.67,182.34c.56-.33.16-.16.14-.16l-.3-.08-.15-.29.33-.56-.51-.09.25-.52-.54-.06.4-.62-.35-.17-.21-.25-.23-.24-.05-.35-.79.11.52-.72-.64,0-.35-.16,0-.4-.2-.26,0-.42-.49-.06-.39-.12.16-.51-.49-.05.12-.49-.7.11.22-.57-.5,0,.35-.67-.86.25,0-.38.26-.61-.61.07-.12-.32.1-.5-.79.23-.15-.29v-.42l-.43-.06.07-.48-.19-.27-.66.15.34-.73-.37-.1-.16-.3-.6.11.18-.61-.59.11-.12-.34,0-.47h-.47l-.09-.36-.32-.14-.39-.07L543,169l-.26-.19-.11-.35-.28-.17-.22-.23-.05-.42-.29-.16-.55.13-.23-.23-.23-.22,0-.44-.25-.21-.33-.11-.12-.36-.6.21-.12-.35-.35-.07-.08-.41-.32-.12-.31-.12c-.07,0,0-.28-.24-.05,0,0-.06-.06-.5.52l-.2.27-.35.48c-.21.29-.26.38-.25.4s.17,0,.25.06l.25.18.32.09.12.35.06.41.34.07.1.37.35.06.26.16.17.28.45,0,.06.4.11.34.38,0V170l.26.17.3.13,0,.48.45,0h.42l-.12.56.17.26.62-.19-.2.63.54-.1.17.26.15.28-.06.48.14.28.62-.15.25.19-.37.75.64-.17.15.28-.24.62.55-.07h.46l-.42.75.71-.19-.18.54.51,0-.29.62.74-.19-.17.52h.51l-.29.61h.51l.23.21-.4.67.2.23.28.17.75-.16.09.31-.31.59.06.33.82-.19-.34.59h.57l-.06.41.37.12.17.25.12.29-.26.52.08.31.15.26.72-.08-.12.42-.36.56.22.22.38.13-.17.44.68,0-.14.18-.11.15s-.11.1.13,0,.8-.38,2.11-1.08Z" style="fill:#102b4c;"/><path d="M557,164.41a27.67,27.67,0,0,1,6.17,18.73" style="fill:#102b4c;"/><path d="M564.78,183.2c.59,0,.21,0,.19-.06l-.18-.2,0-.29.57-.28-.34-.3.51-.3-.43-.3.65-.31-.22-.3-.06-.3-.09-.3.12-.31-.75-.25.8-.36-.57-.25-.23-.27.21-.32-.06-.29.23-.33-.41-.24-.3-.25.39-.36-.41-.23.34-.36-.68-.17.46-.39-.44-.21.62-.44-.9-.09.13-.33.5-.43-.59-.15,0-.31.31-.4-.82-.06v-.3l.18-.36-.37-.19.27-.4-.06-.29-.67-.07.63-.55-.31-.2,0-.31-.6-.07.43-.5-.6-.06,0-.33.22-.42-.45-.12.06-.36-.25-.21-.35-.15-.23-.21-.18-.24,0-.35-.2-.22-.12-.27.12-.41-.22-.21-.59,0-.13-.26-.15-.25.12-.43-.17-.24-.28-.16V165l-.66.11v-.36l-.32-.12.06-.41-.28-.15-.28-.15c-.07,0,.1-.26-.23-.08-.05,0,0-.06-.64.43l-.27.23-.48.41a2,2,0,0,0-.36.34c0,.07.14.06.2.09l.15.22.27.13V166l-.09.39.3.1,0,.36.31.1.19.19.05.28.45,0-.11.38,0,.33.35.1-.18.41.19.19.24.16-.23.42.45.05.41.08-.34.47.06.26.68,0-.45.5.56,0,.05.26,0,.27-.25.39,0,.27.65,0,.16.22-.66.53.67,0,0,.27-.48.44.54.09.42.14-.7.5.74,0-.4.39.47.13-.53.41.76.07-.38.36.47.15-.54.39.46.16.12.24-.66.4.07.24.17.23.75.13-.06.27-.55.34-.1.27.82.15L561,179l.51.2-.25.28.27.24,0,.26,0,.26-.47.28-.08.26V181l.66.24-.31.26-.58.26.13.25.3.26-.3.25.59.28-.18.07-.14.06s-.12,0,.11.06.8.08,2.13.15Z" style="fill:#102b4c;"/><path d="M651.52,159.2a9.86,9.86,0,0,0-1.78-2.74,11,11,0,0,0-1.73-2.69,11.94,11.94,0,0,0-2.92-.87,22.28,22.28,0,0,0-2.21-1.73c-.9-.13-1.77-.21-2.63-.27l-2.16-1.55-2.69.57c-.79-.27-1.59-.53-2.42-.76a23.42,23.42,0,0,0-2.49-1.12c-.91.17-1.82.39-2.71.65a20.44,20.44,0,0,0-2.74.1,16.12,16.12,0,0,0-2.9.18,13.79,13.79,0,0,0-2.19,2.11,13.94,13.94,0,0,0-2.3,1.52,16.57,16.57,0,0,0-2.17,1.71,17,17,0,0,0-1.27,2.39,23.12,23.12,0,0,0-1.61,2.08q-.56,1.17-1,2.35a6.69,6.69,0,0,1-.19,1.29c-.14.39-.27.79-.37,1.2a27.7,27.7,0,0,1-2.42,1.8,21.93,21.93,0,0,0-1.06,2.3,7.65,7.65,0,0,0-1.14,2.32c.13.91.22,1.8.4,2.7l-1.77,2.2.62,2.68-.77,2.42c-.42.79-.77,1.59-1.16,2.39.14.87.31,1.72.49,2.58-.24.82-.48,1.64-.69,2.46,0,.84,0,1.68.11,2.51l.41,2.5.18,2.48.09,2.46-.43,2.47.21,2.45,0,2.45-.64,2.48.31,2.43,1.35,2.36a17.56,17.56,0,0,0,.34,2.9,11,11,0,0,0,.57,1.8,8.27,8.27,0,0,0,1,1.78,6.62,6.62,0,0,0,2.91,3.09,7.73,7.73,0,0,0,4.43,0c.82-.26,1-.38,1.51-.56l1.26-.56c.92-.11,1.85-.24,2.76-.43a30.24,30.24,0,0,0,1.78-2.52c.87-.23,1.72-.51,2.58-.81.67-.6,1.32-1.22,1.94-1.85.86-.31,1.73-.64,2.58-1,.62-.65,1.22-1.32,1.78-2s1.11-1.39,1.63-2.1c.35-.5,1.36-.5,1-1.62-.07-.18.43-.49-1.29-1.81l-.56-.4v0h0l.19.14a15.66,15.66,0,0,0,2,1.39c.91.46.56-.19.6-.29l.36-.8.34-.8c.48-.73.94-1.46,1.37-2.22.68-.62,1.34-1.27,2-2,.19-.9.35-1.79.47-2.69.55-.73,1.06-1.5,1.54-2.3,0-.93,0-1.85,0-2.76.51-.8,1-1.63,1.43-2.5,0-.93,0-1.84-.11-2.68l0-2.37c0-.75,0-1.44.12-2.09a9.28,9.28,0,0,1,.64-1.71,10.44,10.44,0,0,1-.25-2.21c.68-.42,1.36-.8,2.07-1.18a21,21,0,0,1,.61-2.31c.38-.68.78-1.39,1.22-2.08.59-.56,1.19-1.16,1.79-1.78s1-1.48,1.46-2.26a21.93,21.93,0,0,0,1.58-2.32,19.09,19.09,0,0,0,.44-2.88,14,14,0,0,0,.06-2.94A10.08,10.08,0,0,0,651.52,159.2Z" style="fill:#96cdef;"/><path d="M877.28,291.4a14,14,0,0,0-1.64-2.43c-.21-.9-.48-1.76-.76-2.58l-1.33-2-2.26-1.23q-.13-1.34-.3-2.67l-1.75-1.64-1.37-1.94-2.22-1.25c-.25-.83-.54-1.64-.84-2.47-.78-.39-1.55-.76-2.34-1.11-.5-.64-1-1.27-1.56-1.88s-1-1.41-1.46-2.11c-.79-.35-1.56-.7-2.37-1-.6-.59-1.24-1.13-1.89-1.69-.76-.38-1.56-.74-2.39-1.06a21.31,21.31,0,0,0-2.63-.62,15.45,15.45,0,0,0-2.73-.44,12.47,12.47,0,0,0-2.87,0,12.06,12.06,0,0,0-3,.3,13.9,13.9,0,0,0-2.53,1.38,17.23,17.23,0,0,0-2.2,1.58c-.8.43-1.55.9-2.27,1.39-.55.65-1.05,1.31-1.53,2-.28.82-.51,1.62-.73,2.42l-1.47,1.77-1.45,1.79-1.94,1.41-1.43,1.81-1.23,2-1.71,1.6-.43,2.62a19.24,19.24,0,0,0-1.65,1.91,18.65,18.65,0,0,0-.74,2.57,10.68,10.68,0,0,0-1.08,2.59,10.93,10.93,0,0,0,.23,2.66c.18.83.39,1.6.59,2.34.13.53-.1,1.06.44,1.54.09.08.07.53,1,.52l.29,0v0h-.24a16.69,16.69,0,0,0-2.49.17c-1.06.2-.37.48-.35.58s.3,1.63.34,1.62c.09.83.14,1.67.26,2.5-.17.87-.36,1.78-.45,2.69.44.78.83,1.56,1.34,2.29a24.29,24.29,0,0,0,.11,2.72,21.61,21.61,0,0,0,1.78,2.05,20.07,20.07,0,0,0,.35,2.9,23.38,23.38,0,0,0,1.91,2,27.2,27.2,0,0,0,1.92,2c.7.61,1.45,1.17,2.19,1.73s1.44,1.23,2.24,1.76a18.48,18.48,0,0,0,3.06,0,17.5,17.5,0,0,0,2.21,2.26,34.23,34.23,0,0,1,5.62-.68,16.88,16.88,0,0,0,2.7.28,17.6,17.6,0,0,0,2.63-.5,19.62,19.62,0,0,0,2.7-.26,19.94,19.94,0,0,0,2.2-1.57,22,22,0,0,0,2.08-1.52c.87-.15,1.75-.32,2.59-.55.59-.64,1.18-1.27,1.7-1.94.81-.28,1.64-.55,2.43-.88.39-.83.8-1.62,1.13-2.46.81-.28,1.67-.55,2.47-.87.42-.74.85-1.45,1.23-2.19.87-.26,1.77-.51,2.64-.8.14-1,.3-1.91.4-2.86l1.84-1.54,2.38-1.12.65-2.5c.54-.59,1.09-1.21,1.63-1.89a18.08,18.08,0,0,0,2.08-2,17.21,17.21,0,0,0-.25-3.3,10.26,10.26,0,0,0,.53-3A11.07,11.07,0,0,0,877.28,291.4Z" style="fill:#96cdef;"/><path d="M557.47,570c-.24-1.87-.34-3.77-.7-5.62l-1-5.58c-.43-1.84-1.11-3.61-1.66-5.41s-1.1-3.6-1.8-5.35c-1-3.63-1.88-7.29-3.06-10.87-1.35-3.51-2.91-6.93-4.44-10.35s-3.1-6.82-4.72-10.19-3.32-6.7-5.09-10-3.4-6.65-5.12-10c-2-3.13-4-6.28-6.15-9.36l-4.83-10.11L512.75,468q-2.91-4.73-5.74-9.5c-1.72-3.27-3.42-6.54-5-9.86s-3.3-6.56-4.79-9.91c-.72-1.69-1.36-3.4-2-5.11l-.92-2.58-.36-1-.44-1.27-.84-2.67-2.3-6.67-1.07-3.17-.52-1.55a11.28,11.28,0,0,0-.48-1.26L487,421.81c-.33,2-.63,4-1,5.68-.19.86-.39,1.68-.63,2.45-.1.37-.26.83-.35,1.08l-.22.6c-.64,1.7-1.34,3.39-2.07,5.08-1.69,3.28-3.47,6.6-5,10.15a37.62,37.62,0,0,0-2.14,11.53,34.06,34.06,0,0,0,1.1,11.76,55.45,55.45,0,0,0,5.26,10.3c1.67,3.41,3.57,6.69,5.54,9.89l6.82,8.85c1.93,3.18,3.85,6.36,5.71,9.55,2.36,2.85,4.7,5.72,7,8.66,1.91,3.15,3.74,6.35,5.46,9.58s3,6.68,4.35,10.08c1.72,3.21,3.3,6.51,4.74,9.87a99.58,99.58,0,0,1,3,10.47,65.85,65.85,0,0,1,1.24,10.66,40.79,40.79,0,0,1,.44,10.56c-.73,3.58-1.62,7.15-2.59,10.7s-2.19,7-3.38,10.53c-1,3.56-2,7.12-3,10.69l-3.92,10.41q-1.78,5.24-3.71,10.43-1.53,5.34-3.2,10.64-2.47,5-5.06,9.92-2,5.17-4.1,10.3l-4.63,10.09-4,10.37-5.45,9.72L479,702.73c-1.69,3.37-3.21,6.82-4.65,10.29s-2.91,6.93-4.24,10.42l-3,10.76c-1.22,3.5-2.45,7-3.73,10.44-1.13,3.51-2.35,7-3.64,10.39s-2.62,6.81-4.18,10.13a80.94,80.94,0,0,0-4.43,10.51c-1.17,3.67-2,7.88-.71,12.09a9.16,9.16,0,0,0,1.53,3.14,6.59,6.59,0,0,0,3.13,2.28,9.1,9.1,0,0,0,7-.81,15.14,15.14,0,0,0,4.83-4.2c1.18-1.49,2.3-3,3.39-4.58,2.19-3.1,4.19-6.3,6.06-9.57s3.85-6.47,5.64-9.77c1.62-3.38,3.15-6.78,4.66-10.18l3.94-10.43,4.74-10,4.85-10q2.68-4.86,5.45-9.67,2.55-4.92,5.19-9.79l5.18-9.84,5.69-9.58,4.5-10.24,5.56-9.68c1.64-3.34,3.26-6.69,4.84-10.06,1.82-3.25,3.62-6.52,5.36-9.83,1.54-3.4,3.05-6.81,4.48-10.26s2.83-6.91,4.16-10.4c.93-2.47,2.35-4.76,2.63-7.47,0-.44,1-2.61-.36-3.07a1.49,1.49,0,0,0-.45-.07l0-.08h0l.14.06a2,2,0,0,0,1.69-.06c.85-.55.81-2,.93-2.43l.94-3.6.34-1.32.18-1.18.18-1.15,1-5.6.5-5.66c.12-.94.29-1.88.35-2.83l.14-2.84c.07-1.89.23-3.8.21-5.7C558.61,577.49,558.3,573.71,557.47,570Z" style="fill:#102b4c;"/><path d="M403.86,454.59A16.16,16.16,0,0,0,405,446.9c-.16-1.78-.13-3.78-1.44-5.23-.19-.23-.82-1.76-2-1a2.4,2.4,0,0,0-.36.27l0,0h0l.14-.07a2.46,2.46,0,0,0,1.17-1.15c.26-.8-.59-1.35-.82-1.58a15.23,15.23,0,0,0-1.78-1.8,18.93,18.93,0,0,0-2-1.48,17.08,17.08,0,0,0-7-2.82,17.65,17.65,0,0,0-7.66-.06,25.4,25.4,0,0,0-6.6,3.47,46.56,46.56,0,0,0-6,4c-1.67,1.66-3.22,3.38-4.75,5.06-1.8,1.41-3.58,2.8-5.38,4-1.54,1.38-3.42,2.89-5.14,4.36L350,457.12l-5.26,4.4-5.36,4.27-4.71,5-5.77,3.78-4.78,4.89L319,484l-5.42,4.12-5.28,4.3-5.52,4-5.14,4.48-5.26,4.33-5.76,3.66-5.27,4.33-5.82,3.56-5.19,4.47-6,3.32L259,528.7l-6.16,3-5.19,4.58c-1.95,1.19-3.9,2.4-5.83,3.64s-4,2.26-6,3.45q-2.59,2.33-5.08,4.77c-1.81,1.44-3.59,2.91-5.34,4.46a64.79,64.79,0,0,0-5.29,4.74,44,44,0,0,0-3.52,6.32,30.1,30.1,0,0,0-3.12,6.54,23,23,0,0,0-1.47,7.34,20.61,20.61,0,0,0,2,7.29l.29.78.52,1.13L216,589.1c1.07-.15,2.16-.3,3.29-.5l1.19-.26,1-.25a40.91,40.91,0,0,0,6.61-3c1.95-1.37,3.74-2.8,5.56-4.21q3.17-1.4,6.33-2.86,2.81-2,5.58-4l5.71-3.83,5.15-4.59,5.94-3.53,5-4.77c1.84-1.35,3.67-2.77,5.45-4s3.79-2.27,5.76-3.29c1.8-1.3,3.66-2.54,5.56-3.77l6.13-3c2-1.13,4-2.27,6-3.48a68.23,68.23,0,0,0,5.78-4.05c1.87-1.43,3.65-2.94,5.37-4.49s3.41-3.1,5.08-4.67l5.18-4.42c1.65-1.54,3.31-3,5-4.47s3.49-2.66,5.37-4l5.84-3.49,5.59-3.87L344.7,502l5.74-3.7,5.72-3.76,6-3.44q2.82-2,5.61-4l5.41-4.19,5.71-3.82,4.85-5c1.87-1.33,3.73-2.68,5.56-4.07,1.7-1.55,3.38-3.12,5-4.74,1.82-1.43,3.63-2.81,5.42-4.47A22.48,22.48,0,0,0,403.86,454.59Z" style="fill:#102b4c;"/><path d="M424.67,465.73l.51-1.64,1.07-1.16,1.07-1.17,1.4-.85,1.06-1.16,1-1.28,1.29-.94c.18-.56.37-1.13.58-1.67l1.31-.92,1-1.26,1.39-.82.31-.34.58-.11.53-.64.52-.66.48,0a1.33,1.33,0,0,1,.35,0c.07,0,.32.26,0-1.47a.69.69,0,0,0,.06-.19c0-.09.28-.28-.16-.82l-.14-.15v0h0l0-.16a9.59,9.59,0,0,0-.51-1.68c-.32-.67-.45-.14-.52-.1s-1.08.6-1.08.6a16.2,16.2,0,0,0-1.58.63l-1.79.12L432,449.13l-1.72.25-1.19,1.23-1.82.09-1.29,1-1.38.87-1.36.9-1.49.69-.91,1.61h-1.93l-1,1.45-1.22,1.09-1.52.65-1.33.94-1.53.66-1.05,1.33-1.12,1.22-1.64.54-1,1.38-1.6.63-.73,1.68c-.57.17-1.13.37-1.7.57-.3.5-.61,1-.89,1.48l-1.85.5c-.14.65-.25,1.34-.37,2-.46.33-.9.69-1.34,1.07a19.16,19.16,0,0,0-1.73.84c-.17.63-.35,1.21-.47,1.86-.36.5-.75.95-1.08,1.5a11.16,11.16,0,0,0-1.32,1.61,9.7,9.7,0,0,0,.52,2.33,6.63,6.63,0,0,0,0,2.26,5.45,5.45,0,0,0,.22,1.21,4,4,0,0,0,.43,1.17c.3.29.6.56.91.81a7.28,7.28,0,0,0,1,.55,6.38,6.38,0,0,0,1.66,1.63,3.55,3.55,0,0,0,4.39-.26,10.63,10.63,0,0,0,2.28.56,11.48,11.48,0,0,0,1.79-1.15,13.09,13.09,0,0,0,1.76-1.08,14.73,14.73,0,0,0,.86-1.86c.61-.26,1.22-.55,1.8-.86.17-.64.3-1.26.42-1.86l1.11-1.27,1.3-1.08.43-1.59,1.1-1.15.73-1.4.63-1.48.79-1.37.88-1.31,1.16-1.1.88-1.31,1-1.22,1.31-1Z" style="fill:#102b4c;"/><path d="M450.41,470.81a4.88,4.88,0,0,0-.57-1.94,5.51,5.51,0,0,0,.51-1.74,5.42,5.42,0,0,0-1.16-1.23,6.47,6.47,0,0,0-.66-1.39,6.34,6.34,0,0,0-1.37-.72,5.71,5.71,0,0,0-1.39-.62,6.88,6.88,0,0,0-1.4-.33,7.66,7.66,0,0,0-1.46-.54,8.51,8.51,0,0,0-1.44.18,9.73,9.73,0,0,0-1.31.49,8.76,8.76,0,0,0-.79,1.3,9.79,9.79,0,0,0-1.25.45,12.26,12.26,0,0,0-1.39.35c-.27.33-.52.67-.75,1s-.33.76-.47,1.13a10,10,0,0,0-.93.72l0,1.29-.65.3-.53.91-.95.55-.5.95-.63.83-.79.71-.25,1.13-1,.6-.87.69-.32,1.07-1,.65c-.17.32-.31.66-.46,1s-.25.69-.35,1l-1,.73,0,1.23c0,.39,0,.79,0,1.18a3.34,3.34,0,0,0-.56.44,5.44,5.44,0,0,0-.64.77l-.54,1.82a3.11,3.11,0,0,0,.77,1.3,7.4,7.4,0,0,0-.6,1.93,5,5,0,0,0,1.15.73,3.42,3.42,0,0,0,.86,1,3.59,3.59,0,0,0,1.17.65h.06a5.09,5.09,0,0,0,1.24.59,4.78,4.78,0,0,0,1.37-.25,8.29,8.29,0,0,0,1.18-1.73,13.85,13.85,0,0,0,1.14-1.19,8.1,8.1,0,0,0,.93-.17l.51-.13h.37l.09-1.32.76-.67,1.28-.16.24-1.18.36-1.06,1.47,0,.05-1.36,1.16-.28.32-1.11,1.27-.17,0-1.37,1.12-.32.32-1.1,1.25-.18.32-1.1.64-.79,1.35-.09.68-.75.58-.84.07-1.35.8-.66a5.87,5.87,0,0,0,1.38-.5,6,6,0,0,0,1-1.37Z" style="fill:#102b4c;"/><path d="M470.57,589.66a117.67,117.67,0,0,1,26.61-9.11" style="fill:#102b4c;"/><path d="M496.81,578.91c-.16-.61-.12-.19-.13-.17l-.21.25-.39.06-.51-.47-.3.45-.5-.4-.29.5-.55-.6-.34.28-.38.12-.37.15-.42-.06-.19.85-.6-.77-.24.66-.33.3-.45-.16-.38.12-.46-.18-.27.49-.3.37-.51-.36-.27.49-.5-.32-.18.79-.55-.46-.25.52-.61-.65-.09,1-.45-.11-.58-.54-.19.7h-.42l-.52-.33-.1,1-.4,0-.48-.19-.26.45-.52-.31-.39.07-.13.81-.69-.76-.29.36-.41,0-.15.74-.62-.55-.14.74-.44-.06-.54-.3-.21.56-.46-.1-.31.29-.26.42-.31.27-.34.2-.46-.09-.33.22-.38.12-.52-.22-.32.24-.11.75-.38.12-.37.13-.54-.25-.36.16-.29.31-.48-.11,0,.89-.48-.11-.25.39-.53-.2-.29.31-.29.3c-.07.07-.32-.23-.18.27,0,.08-.09,0,.38,1l.22.45.4.79a2.68,2.68,0,0,0,.35.61c.1,0,.12-.19.19-.28l.34-.17.27-.33.47.11.52.21.23-.4.48.13.24-.4.32-.23.4,0,.15-.61.5.18.45.08.22-.45.53.27.32-.23.29-.3.55.33.17-.58.2-.52.6.47.38-.06.07-.87.64.58.13-.72.38-.07.39,0,.52.31.39,0,.1-.82.33-.21.69.78.1-.84.38-.06.59.54.17-.67.22-.53.67.78.1-.9.54.42.21-.58.58.56.11-.91.52.38.22-.57.57.55.22-.57.34-.19.59.66.35-.14.32-.25.14-.87h.4l.54.52.4,0,.14-.94.54.54.23-.62.44.18.3-.36.37-.11.38,0,.49.41h.39l.36-.11.21-.78.44.21.5.48.34-.19.3-.37.44.24.24-.68.16.17.12.13s.07.12.05-.13a22.67,22.67,0,0,0-.42-2.25Z" style="fill:#102b4c;"/><path d="M478.56,603.79a43.52,43.52,0,0,1,13.76-5.19" style="fill:#102b4c;"/><path d="M492,596.93c-.14-.62-.08-.2-.08-.18l-.09.24-.21,0-.32-.5-.13.42-.31-.42-.12.46-.35-.59-.16.25-.2.09-.19.12-.24-.09,0,.75-.41-.75-.07.58-.15.25-.27-.18-.2.08-.28-.2-.1.41-.13.3-.33-.36-.1.41-.32-.32v.67l-.36-.44-.08.43-.42-.6.07.88-.26-.13-.39-.5,0,.57-.24,0-.34-.31.06.8H485l-.3-.19-.09.35-.34-.29-.21,0,0,.65-.49-.65-.12.27h-.23v.58l-.42-.47,0,.58-.26-.07-.35-.26,0,.42-.28-.11-.14.2-.09.31-.14.19-.17.13-.28-.1-.16.15-.2.07-.33-.2-.15.17,0,.56-.2.06-.19.08-.34-.21-.18.11-.12.23-.29-.09.12.65-.29-.09a2.67,2.67,0,0,0-.08.28l-.31-.13-.11.24a2.25,2.25,0,0,0-.1.23c0,.06-.19-.12-.05.2,0,.05,0,0,.32.64l.17.28.3.49a2.43,2.43,0,0,0,.26.38c.07,0,.06-.09.1-.13l.19-.06.12-.19.3.12.33.2.08-.26.3.13.08-.27.15-.14H481v-.43l.32.18.27.1.06-.32.34.24.14-.15.12-.21.36.29v-.43l0-.39.4.4.21,0-.08-.66.44.49,0-.54.21,0H484l.33.28h.21l-.05-.63.16-.13.49.69-.05-.66h.21l.4.5v-.52l.06-.41.47.7-.06-.72.35.4,0-.46.39.52-.05-.74.33.37.05-.46.38.52.05-.46.17-.12.4.64.18-.08.15-.18,0-.74.22,0,.35.51.22.08,0-.81.35.54.06-.52.26.21.13-.29.19-.06h.2l.3.42.21,0,.19,0,0-.68.26.26.31.53.17-.12.13-.3.26.3.07-.62.1.19.08.15s0,.13,0-.12-.13-.85-.41-2.27Z" style="fill:#102b4c;"/><path d="M472.95,620.36l9.7-2.94" style="fill:#102b4c;"/><path d="M482.2,615.94c-.18-.55-.08-.18-.08-.16l0,.21-.14,0-.28-.46,0,.38-.26-.39,0,.41-.32-.56-.08.22-.12.07-.12.09-.18-.11.07.7-.37-.74,0,.54-.08.22-.21-.2-.13.05-.21-.22,0,.38-.06.28-.26-.39,0,.39-.25-.35.05.65-.29-.48,0,.41-.35-.66.12.88-.2-.18-.32-.57,0,.57-.17-.08-.26-.39.1.82-.16,0-.22-.26,0,.34L477,617l-.15,0,.06.68-.39-.8-.07.25-.17-.08,0,.61L476,617l0,.62-.19-.16-.26-.39,0,.43-.21-.21-.09.17-.05.3-.1.16L475,618l-.21-.2-.11.11h-.15l-.25-.34-.11.13,0,.64h-.29l-.26-.38-.14,0-.09.19-.22-.26.1.8-.22-.25-.07.26-.26-.38-.09.18-.09.17s-.17-.34,0,.18a5.93,5.93,0,0,0,.3,1.11l.16.52.28.91c.17.55.23.71.23.71s0-.16,0-.22l.12-.07.07-.24.22.23.25.34.05-.31.22.25.05-.3.11-.12.17.08v-.52l.24.3.21.2,0-.35.26.38.11-.13.08-.2.28.43v-.48l0-.42.31.55.15,0-.08-.76.34.65,0-.61.15,0,.16.05.26.38.16,0-.07-.7.11-.11.4.82-.07-.72.15,0,.32.59,0-.56,0-.42.39.8-.09-.77.28.46v-.47l.32.58-.09-.78.27.41V620l.32.56v-.47l.11-.11.35.67.12-.07.09-.18-.08-.74.16,0,.3.52.17.08-.1-.8.31.54v-.51l.21.21.06-.28.13-.06h.14l.27.4.16,0,.13-.05-.05-.64.22.23.29.47.11-.13.06-.29.22.25,0-.58.1.16.08.13s.05.11,0-.11-.21-.76-.59-2Z" style="fill:#102b4c;"/><path d="M729,319.28a5.22,5.22,0,0,0,.75-1.35,9.07,9.07,0,0,0,.75-3.83,17.32,17.32,0,0,0,.11-3.58l-.14-.39-.2-.67-.2-.68c0-.1,0-.24-.13-.32l-.29-.22-1.08-.79L728,307l-2-2.44-2.57-1.79-1.72-2.67-2.3-2.07-2.11-2.25c-.7-.75-1.38-1.52-2-2.3s-1.21-1.66-1.79-2.5c-.83-.65-1.65-1.32-2.46-2-.36-1-.7-2-1-3l-2.19-2.27-1.83-2.53-1.38-2.82-1.61-2.7-1.33-2.88-2-2.53-1.87-2.58-1.25-3-2.06-2.46-1.37-2.91-2.38-2.23-1.32-3-2.21-2.33L686,248.72l-2.71-1.94-1.76-2.66L680,241.19a33.93,33.93,0,0,0-2.7-2.09l-2.1-2.35a28.73,28.73,0,0,1-1.59-2.52c-.41-.27-.81-.54-1.18-.82a3.48,3.48,0,0,1-1.23-1.33l-.23-.61a6.1,6.1,0,0,1-.14-.78l-.12-.81a8.18,8.18,0,0,1,0-1.07l.23-6.61-.18.19c-.68.59-1,.67-1.15.67a.24.24,0,0,1-.2-.09.24.24,0,0,1-.05-.09s0,0,0,0l-.09.11-.18.21c-1,1.63-1.87,3-2.68,4.47a22.77,22.77,0,0,0-2.73,4,25.84,25.84,0,0,0-1.46,4,20.68,20.68,0,0,0,.18,3.55,28.23,28.23,0,0,0-1.08,3.4,32.7,32.7,0,0,0,.58,3.41q.21,1.7.59,3.38.79,1.56,1.71,3c.17,1.13.39,2.26.67,3.39q1.08,1.36,2.25,2.6.79,1.47,1.71,2.88c.54,1,1.13,2,1.76,2.91.86.73,1.75,1.41,2.63,2.07.72.83,1.45,1.65,2.2,2.43s1.7,1.34,2.56,2l2.67,1.77,2.55,1.86,2.46,1.93,2.19,2.23,2.39,2,2.26,2.14,1.92,2.48,2.26,2.12c.91.56,1.78,1.16,2.67,1.74.71.76,1.38,1.55,2.07,2.33s1.36,1.57,2,2.36,1.08,1.8,1.61,2.71,1.31,1.6,1.94,2.42,1.38,1.55,2,2.34,1.06,1.8,1.55,2.71c.86.66,1.73,1.31,2.57,2,.48.93,1,1.84,1.45,2.78.64.82,1.3,1.63,1.93,2.46l1.2,2.92,1.74,2.61a13.27,13.27,0,0,0,2.42,2.89,12.25,12.25,0,0,0,1.23,1.05,2.13,2.13,0,0,0,1.83.27c.21,0,1.35,0,1.09-1.38,0-.16-.06-.31-.09-.44h0v.15a3.13,3.13,0,0,0,.5,1.53c.52.59,1-.08,1.21-.2A5.27,5.27,0,0,0,729,319.28Z" style="fill:#102b4c;"/><path d="M440.45,235.07a27.71,27.71,0,0,0,5.23,2.11c1.59,1,3.22,1.77,4.83,2.57l4.89,1.06c1.71.31,3.41.66,5.13.9,1.78,0,3.55-.14,5.3-.27,1.68.36,3.38.59,5.07.88,1.67.51,3.34,1,5,1.5,1.71.2,3.43.42,5.15.56,1.75-.33,3.48-.73,5.19-1.13,1.7.39,3.41.69,5.13,1,1.71-.31,3.42-.59,5.12-.93,1.71.08,3.43.16,5.14.19,1.7-.23,3.39-.52,5.07-.8s3.39-.35,5.08-.53,3.39-.33,5.07-.55l2.57-.07a12.48,12.48,0,0,0,1.28-.09l1.23-.41a25.45,25.45,0,0,1,2.41-1.07l2.53-.29,5-.72q2.45-.72,4.88-1.5l5.06-.56,5.12-.29,5-1.09c1.63-.43,3.26-.91,4.88-1.37l5-.66,4.77-1.8,1.61-.09,1.27-.07c.3,0,1.92.15,1.2-3.15h0l.08.24c.18.47.35.94.52,1.3.36.78.65,1,.88.92,1.26-.22,2.47-.75,3.7-1.09l4.92-1.09,4.87-1.32,5-.55,5-.32,4.87-1.25,2.51-.17c.41,0,.83,0,1.37-.11a8.44,8.44,0,0,0,1.92-.42,6,6,0,0,0,3.23-3.34,7.31,7.31,0,0,0,.45-2.22,12,12,0,0,0-.05-1.6l-.48-5.21a35.69,35.69,0,0,0-.41-5.45,9.42,9.42,0,0,0-1.75-3.12,7.28,7.28,0,0,0-3-2.06,11.58,11.58,0,0,0-6.23-1.28,29.71,29.71,0,0,0-5.54,1l-4.6,2c-1.65.32-3.31.58-5,.82l-4.75,1.51-4.77,1.5c-1.67.2-3.35.3-5,.43-1.57.59-3.13,1.23-4.72,1.77L559,210.86c-1.69,0-3.4,0-5.09-.07-1.65.22-3.29.51-4.94.67l-4.79,1.82c-1.7-.13-3.4-.36-5.09-.53-1.62.48-3.24,1-4.88,1.39l-5,.24-5,.09c-1.67-.14-3.35-.3-5-.52l-5,0-5,1.05c-1.67,0-3.33,0-5,0l-4.92-1.66-5,.81c-1.66-.13-3.31-.33-5-.53-1.62-.52-3.24-1-4.85-1.57l-5,.24c-1.68,0-3.37,0-5.07-.05-1.6-.72-3.23-1.42-4.89-2.11-1.77.2-3.55.43-5.32.73a52.84,52.84,0,0,0-5.3-1,41,41,0,0,0-5.35,1.21,26.38,26.38,0,0,0-5.76.36,31.32,31.32,0,0,0-4.53,3.51,22.57,22.57,0,0,0-5.08,2.83,13.07,13.07,0,0,0-2.84,5.82,9.38,9.38,0,0,0-.15,7.33A12,12,0,0,0,440.45,235.07Z" style="fill:#102b4c;"/><path d="M506.28,172.49c0,.32.05.42.11.44a6.11,6.11,0,0,0,1,.17c.44.11.88.23,1.32.37l1.34.25,1.25.61c.41.23.81.49,1.2.75l1.35.23,1.19.75,1.35.26,1.3.44,1.22.65,1.45.06,1.13.91,1.16.83,1.4.22,1.09,1,1.32.47,1.36.36,1.07,1.15,1.52,0H532l1.06,1.3,1.32.59c.56-.17,1.11-.34,1.67-.54l1.1,1.39c.54-.13,1.07-.27,1.61-.43l1.36.46,1.36.47,1.27.95,1.39.42c.53-.23,1.07-.48,1.59-.73l1.43.13,1.23,1.55,1.56-.86,1.41.27,1.33,1.14,1.5-.67,1.47-.5,1.35,1.44,1.48-1.08,1.4.86,1.44-.66,1.41,1,1.42-1.19,1.43.74,1.4-.72,1.45,1,1.39-.75,1.41-.19a18.75,18.75,0,0,0,1.53,1.09l1.58-.21,1.45-.44c.44-.45.83-.93,1.24-1.4l1.43-.1,1.56.67,1.41-.06,1.12-1.52,1.54.7,1.21-1,1.42.19,1.27-.62,1.33-.23,1.34-.1,1.4.59,1.3,0c.43,0,.86-.09,1.27-.09l1.25-1.07c.44.14.83.35,1.24.51a9.19,9.19,0,0,1,1.11,1h1.11c.39-.1.71-.11,1.09-.17l.41.37.28.43a10.54,10.54,0,0,1,1.21-.45,3.5,3.5,0,0,0,.06.36l.06.23c0,.08-.11.47,2.49-2.18h0l.14-.14a15.59,15.59,0,0,0,1.41-1.6c.53-.76,0-.49-.1-.52l-.54-.33a3.24,3.24,0,0,0-.56-.28,6.19,6.19,0,0,0-1.56-.91l-.67-.77-.71-.65a13.82,13.82,0,0,0-1.81.15l-1.52-1a13.47,13.47,0,0,0-1.64.53c-.49-.36-1-.76-1.55-1.08l-1.53.35c-.52,0-1,.09-1.5.15l-1.48.22-1.49-.06c-.44.44-.87.87-1.29,1.32l-1.62-1.08-1.28,1.08-1.34.55-1.46-.14-1.38.29-1.45-.16-1.15.77-58.33-7.35-.16-.11-1.35-.41-1.41-.25-1.28-.65-1.59.32c-.43-.21-.87-.4-1.31-.59l-1.44-.13-1.32-.61-1.45-.07c-.48,0-1-.05-1.44-.06s-.64-.26-1,0c-.06,0-.35,0-.44.57,0,.07,0,.13,0,.19h0s0,.06,0,.09C506.29,172.16,506.28,172.34,506.28,172.49Z" style="fill:#102b4c;"/><path d="M645.13,300.92a4.85,4.85,0,0,0-2.12-1.58,5.74,5.74,0,0,0-1.41-.28c-.41,0-.8,0-1.12.07l-1,.23a15.66,15.66,0,0,0-3.75,1.74c-1.07.64-2.16,1.38-3,1.77a26.55,26.55,0,0,1-6.67,1.2,59.13,59.13,0,0,1-7,1l-7.28-.38-7.31.47c-2.46-.21-4.95-.4-7.48-.46a60.6,60.6,0,0,0-7.56,1.18,39.57,39.57,0,0,0-7.44,2.25,52.64,52.64,0,0,0-6.83,3.49c-2.19,1.23-4.31,2.52-6.39,3.81-1.9,1.55-3.78,3.06-5.71,4.49a43.73,43.73,0,0,1-6.64,2.32,27.57,27.57,0,0,1-6.33,2.35,37.48,37.48,0,0,1-6.91.47c-2.35-.2-4.71-.56-7.11-.94s-4.85-.61-7.34-.82a49,49,0,0,0-7.66-.45,33.2,33.2,0,0,0-7.64,1.75,22,22,0,0,0-7,3.84,18.92,18.92,0,0,0-5.51,6c-1.1,2.41-1.8,4.74-2.74,6.83a15.78,15.78,0,0,1-1.92,2.61,12.93,12.93,0,0,1-2.43,1.84,15.26,15.26,0,0,1-5.68,3.14,34.42,34.42,0,0,1-6.95,0l-7.32.34c-2.48-.26-5-.46-7.44-.62-2.45.45-4.88.94-7.3,1.46l-7.33.36-7.35-.06-7.2,1.2a67.4,67.4,0,0,0-7.52.7,26.66,26.66,0,0,0-7.78,2,17.18,17.18,0,0,0-5.72,6.05,18.25,18.25,0,0,0-3.16,7.39,22.27,22.27,0,0,0-.34,8,23.44,23.44,0,0,0,3.07,7.36,30.6,30.6,0,0,0,4.37,6.53,40.28,40.28,0,0,0,5.93,5,51.29,51.29,0,0,0,7,3.16,48.17,48.17,0,0,0,6.75,3.74,36.7,36.7,0,0,0,7.72,1.29l1,.13-.12,0,.24,0h0a44.15,44.15,0,0,0,6.67,0,51.22,51.22,0,0,0,7.43-1.94,68.57,68.57,0,0,0,7.46-1.55c2.29-1.1,4.48-2.33,6.63-3.61,2.28-1,4.5-2.11,6.7-3.25l1.2-.57,1.78-.85-.88-2.16q-.22-.55-.36-1a.39.39,0,0,1,.18,0l.06,0s.1-.06.21-.14l.32-.23c1.84-1.74,3.55-3.54,5.24-5.34l5.5-4.8c1.73-1.67,3.46-3.31,5.27-4.8s3.71-3.06,5.59-4.55,3.89-2.86,5.88-4.22,4-2.65,6.09-3.91,4.26-2.26,6.41-3.31,4.23-2.26,6.4-3.27,4.39-1.89,6.62-2.74c2.28-.69,4.61-1.31,6.95-1.89q3.42-1.15,6.9-2.18l6.82-2.64,7.08-1.84,7.09-1.92c2.41-.51,4.81-1,7.22-1.63,2.35-.75,4.7-1.54,7-2.4s4.6-1.91,6.84-2.92q3.47-1.28,6.9-2.65,3.16-2,6.26-4,3.38-1.46,6.73-3c2.11-1.19,4.32-2.56,6.32-3.9a42.43,42.43,0,0,1,6.4-2.8,41.38,41.38,0,0,1,6.66-2,23,23,0,0,0,7.4-3c1.58-1,3.66-2.17,4.12-4.62a4.43,4.43,0,0,0,.25-1.39c0-.62-.37-1.16-1.07-1.12a2.42,2.42,0,0,0-.45.06s0,0,0-.05h.15c.82,0,1.29-.24,1.53-.62.58-1-.33-1.9-.49-2.24A8,8,0,0,0,645.13,300.92Z" style="fill:#102b4c;"/><path d="M843.73,333.27a4.31,4.31,0,0,0-.39-.21v0h0l0-.15a5.8,5.8,0,0,0,.22-1.61c0-.7-.51-.38-.66-.4l-1.07-.26-1.09-.32c-1.08-.46-2.17-1-3.28-1.51-1-.7-2.09-1.41-3.24-2.07a22.84,22.84,0,0,0-4-.83,12.83,12.83,0,0,0-4.38-.7,14.35,14.35,0,0,0-4,1.66,22.49,22.49,0,0,0-3.9,1.44,36.6,36.6,0,0,0-3,2.6c-1,.85-1.89,1.72-2.78,2.59L809.63,336l-2.8,2.34-2.21,3c-1.1.59-2.23,1.15-3.35,1.71-.8.93-1.59,1.88-2.41,2.79l-2.69,2.46-3,2c-.95.75-1.94,1.45-2.91,2.17s-2.08,1.25-3.13,1.84c-.92.78-1.82,1.61-2.78,2.35l-2.91,2.18-3.37,1.4c-1,.74-2,1.39-3,2.09-1.13.45-2.27.85-3.42,1.22-1,.72-1.95,1.5-3,2.16l-3.56.83-3.23,1.63c-1.22.16-2.45.19-3.66.29-1,.69-2.11,1.28-3.2,1.88-1.19.2-2.36.43-3.56.52l-3.64-.09L744.23,372c-1.25.17-2.5.34-3.78.61a28.07,28.07,0,0,0-4,.68,19.32,19.32,0,0,0-3.3,2.7,12.86,12.86,0,0,0-3.17,2.88,11.41,11.41,0,0,0-1.25,1.83,7.94,7.94,0,0,0-.61,1.28,10.56,10.56,0,0,0-.45,1.56,18.81,18.81,0,0,0,0,2.56l3.53,1,3.51,1.67q1.78.6,3.58,1.13,1.91.14,3.81.22,1.69.93,3.43,1.81c1.22.2,2.54.27,3.82.38s2.52.54,3.81.62l3.87-.53a30.48,30.48,0,0,0,3.87.61,29.37,29.37,0,0,0,3.75-1.08l3.81-.44c1.28-.12,2.54-.33,3.83-.5l1.78-.74,1.71-.88c1.22-.36,2.47-.67,3.67-1.08l3.39-1.72c1.13-.59,2.15-1.34,3.21-2s2.18-1.24,3.21-2l3.16-2c1.11-.58,2.17-1.22,3.27-1.83s2-1.43,3-2.2l3-2.16,3.22-1.91q1.45-1.17,2.85-2.38l2.42-2.89,2.88-2.31,2.85-2.33,3.16-2,2.83-2.33,2.72-2.5,3.07-2.12,2.17-3.17,3-2.26q1.26-1.38,2.48-2.81,1.5-1.14,3-2.35,1.21-1.44,2.37-2.94t2.25-3c.49-.76,1.43-1.24,1.41-2.35C844.36,334.61,844.93,334,843.73,333.27Z" style="fill:#102b4c;"/><path d="M441,326.8a2.74,2.74,0,0,0,.24,2.43l.16.23a2.92,2.92,0,0,0,.35.38,5.13,5.13,0,0,0,.84.59l.28.17.41.26c.58,0,1.07,0,1.58,0l1.21,1,1.34.42,1.58-.66,1.05,1.6,1.42,0,1.31.48,1.54-.58,1.13,1.27,1.54-.6,1.29.56,1.22.91,1.48-.32,1.28.62,1.4.06.74-.06.42,0,.36-.05h1.4l1.38.1,1.32.51,1.39.08,1.36.23,1.3.7,1.39,0,1.48-.66,1.36.22,1.37.2c.46.24.82.49,1.35.72.54,0,1,.06,1.51.08l1.47-.19c.48.12,1,.24,1.47.33l1.43-1.07c.5.07,1,.14,1.53.16a16.14,16.14,0,0,0,1.51-.62,5.33,5.33,0,0,0,1.94-.3,3.86,3.86,0,0,0,1.68-2.57,3.18,3.18,0,0,0-.84-2.58c-.31-.34-.27-1-1-.87-.11,0-.28-.31-1.1.53l-.25.27h0l.14-.14A9.29,9.29,0,0,0,491.2,329c.44-.78-.21-.58-.31-.62a4.87,4.87,0,0,0-.79-.34,5,5,0,0,0-.74-.18,7.36,7.36,0,0,0-1.74-.46l-1.24-1-1.42.33-1.24-.88-1.44.37-1.18-1.16-1.38.06-1.34-.18-1.35-.16-1.29-.47-1.53.77-1.09-1.46-1.49.5h-1.39l-1.25-.65-1.33-.27-1.23-.7-1.44.22-1.41,0-1.16-1-1.45.21-1.21-.93-1.61.61q-.61-.56-1.28-1.1c-.53.1-1.06.21-1.58.34a18.94,18.94,0,0,0-1.46-1.24,20.36,20.36,0,0,0-1.63,1.28,14.93,14.93,0,0,0-1.63-.23,14.06,14.06,0,0,0-1.86-.64,13.7,13.7,0,0,0-1.43,1.3,13.21,13.21,0,0,0-1.67.52,11.32,11.32,0,0,0-1.92.41,10.77,10.77,0,0,0-.61,2.15,9.85,9.85,0,0,0-1.25,1.33l-.34.34-.17.18-.09.09,0,0C441.17,326.55,441.26,326.32,441,326.8Z" style="fill:#102b4c;"/><path d="M553.32,312.87c0,.85.15.34.2.33a4.32,4.32,0,0,0,.75-.14,8,8,0,0,0,1.33,0,4.77,4.77,0,0,0,1.85.32,4.84,4.84,0,0,0,1.46-1.62,4.33,4.33,0,0,0,1.72-1.65,4.46,4.46,0,0,0-.65-2.81,4.59,4.59,0,0,0-1.14-2.79,5.18,5.18,0,0,0-2.22-.56,8.08,8.08,0,0,0-1.54-.08c-.45,0-.86.08-1.24.13a8.4,8.4,0,0,1-.85-.17,11.56,11.56,0,0,1-.79,1c-.28-.41-.53-.79-.78-1.22l-.87.71-.87.16c-.26-.15-.52-.34-.78-.51s-.56-.09-.84-.15l-.73-.6-1,.28-1,.08-.63-.93c-.34.07-.68.15-1,.21l-.62-.9-1.21.54-.52-1.13-1.08.16-.39-1.4-1.41.81-.71-.72-.45-1.29-1.23.35-.85-.61c-.23-.35-.49-.71-.77-1.06-.51.25-1,.51-1.52.79a10,10,0,0,0-1.17-.42,9.76,9.76,0,0,0-1.65-.63,7.27,7.27,0,0,0-1.53.63,6.71,6.71,0,0,0-1.83-.08,7.65,7.65,0,0,0-1.48.82,5.91,5.91,0,0,0-.3,1.73,7,7,0,0,0-2,.71,5.79,5.79,0,0,0-.15,1.67,5.09,5.09,0,0,0-.23,1.62,5.65,5.65,0,0,0,1.31,1.37,5.37,5.37,0,0,0-.19,1.72,7.91,7.91,0,0,0,2,.67,7.31,7.31,0,0,0,1.18,1.12c.31.44,1,1,1.13,1.26l1.19-.15.81.72,1,.17,1.1,0,1,.15,1,.23.88.59,1,.15,1,.28.88.71,1,.06,1.15-.64c.32.08.65.13,1,.2l1,.16.93.64c.34,0,.67.06,1,.08l1-.14,1,.39,1-.92c.33.11.66.24,1,.34l1-.35c.33.13.67.26,1,.35l1-.28,1-.28c.23-.07.49.26.68-.26,0-.08.25,0,.15-1l0-.32h0l.72-.74h0l0,.19C553.37,311.9,553.33,312.51,553.32,312.87Z" style="fill:#102b4c;"/><path d="M337.49,296.25a119,119,0,0,0,21.16,20" style="fill:#102b4c;"/><path d="M359.63,314.86c.35-.53.07-.22,0-.21h-.33l-.31-.25,0-.69-.55.07,0-.63-.57.1.11-.78-.44-.08-.33-.21-.34-.2-.21-.37-.77.34.24-.93-.66.2-.43-.09-.14-.45-.32-.23-.12-.47-.55,0-.47-.05v-.61l-.55,0,0-.58-.74.25.08-.69-.57,0,.21-.83L351,308l-.14-.44.15-.75-.68.17-.21-.36,0-.6-.86.35-.23-.33-.07-.5-.51,0,0-.59-.24-.31-.76.22.33-.91-.44-.11-.2-.36-.71.15.2-.76L346,303l-.13-.42,0-.59h-.57l-.09-.46-.37-.19-.47-.1-.36-.2-.31-.25-.09-.45-.32-.24-.24-.32,0-.55-.33-.23-.72.12-.23-.32-.25-.31.05-.57-.26-.29-.38-.19,0-.48-.83.2,0-.48-.43-.15,0-.56-.36-.21-.35-.22c-.08-.05.13-.35-.32-.1-.07,0-.06-.08-.86.58l-.37.31-.64.55c-.39.34-.49.45-.48.47s.2.1.31.15l.28.3.4.19.05.49,0,.56.46.14,0,.5.46.14.32.26.17.39h.62V301l.08.47.5.1,0,.59.34.24.4.19-.08.63h.61l.57,0-.16.72.23.35.81-.22-.23.79.71-.12.24.34.21.36,0,.6.23.35.77-.2.34.23-.35.94.79-.23.25.33-.17.77.67-.11.57,0-.32.94.83-.29-.07.67.61-.06-.15.77.83-.31,0,.64.61-.07-.14.77.61-.08.36.21-.21.86.33.25.4.16.81-.32.24.34-.1.74.22.37.85-.39-.1.76.64-.14.13.48.48,0,.33.24.29.29v.64l.27.32.33.24.74-.29.13.5,0,.71.39.17.5,0,.12.51.69-.24,0,.24V318s0,.14.14,0a21.2,21.2,0,0,0,1.41-1.81Z" style="fill:#102b4c;"/><path d="M224,487.93a55.87,55.87,0,0,0-1.3,20.65" style="fill:#102b4c;"/><path d="M224.53,508.33c.7-.11.23-.08.21-.09l-.25-.15v-.28l.59-.34-.45-.23.51-.33-.49-.23.73-.34-.25-.25-.07-.27-.08-.27.16-.28-.84-.22,1-.33-.64-.24-.23-.26.29-.29,0-.27.31-.28-.44-.26-.3-.27.53-.28-.44-.27.48-.28-.76-.27.65-.27-.46-.28.87-.26-1-.29.27-.27.76-.25-.65-.29.16-.27.54-.25-.95-.32.12-.27.38-.25-.35-.3.53-.24.09-.27-.76-.34,1-.19-.23-.29.16-.26-.67-.34.81-.19-.67-.35.27-.25.55-.21-.44-.33.33-.23-.12-.29-.27-.31-.1-.29,0-.28.33-.23,0-.28.09-.26.5-.19-.06-.29-.66-.4.11-.26.09-.26.56-.17.07-.26-.12-.3.42-.19-.85-.47.41-.19-.2-.33.56-.15-.12-.31-.11-.31c0-.07.44,0-.15-.24-.1,0,0-.06-1.25-.39l-.59-.15-1-.25a8.38,8.38,0,0,0-.83-.17c-.06.06.11.18.15.27L222,488l.15.34-.4.21-.53.18.26.36-.41.21.26.36,0,.31-.2.26.52.4-.46.21-.34.24.32.36-.55.2.06.31.15.33-.61.2.49.38.42.36-.75.19-.13.28.82.41-.86.19.65.38-.11.28-.15.28-.54.24-.13.29.76.37.06.3-1.08.2.8.37-.1.29-.79.24.61.34.45.32-1,.24.87.34-.63.27.52.32-.78.27.9.33-.57.28.51.31-.75.28.52.3.09.3-.88.3,0,.3.17.3.88.28-.11.3-.7.31-.15.3,1,.26-.71.32.6.27-.3.31.32.28,0,.29,0,.3-.53.33-.07.31,0,.3.78.23-.32.33-.62.36.14.29.35.26-.34.34.7.22-.21.12-.17.1s-.15.06.13,0,1-.07,2.53-.27Z" style="fill:#102b4c;"/><path d="M673.2,233.59a18.46,18.46,0,0,0,0-3.26,17.67,17.67,0,0,0-1.25-3,15.2,15.2,0,0,0-1.89-2.59,24.82,24.82,0,0,0-2-2.23c-.64-.71-1.29-1.37-1.93-2l-1.53-2.16-1.78-1.77c-.55-.62-1.06-1.28-1.58-1.94s-.74-1.53-1.07-2.31c-.54-.63-1.09-1.26-1.59-1.92-.73-.51-1.48-1-2.18-1.59-.43-.73-.89-1.43-1.3-2.18l-1.25-2.21-.7-2.49-1.16-2.27c-.43-.74-.83-1.5-1.24-2.25l-.67-2.5c-.63-.67-1.21-1.38-1.82-2.08l-.6-2.54-1.16-2.35-.52-2.58-1.07-2.4-1-2.41c-.21-.58-.24-1.22-.9-1.65a2.82,2.82,0,0,0-.26-.28l.16-.06a4.86,4.86,0,0,0,1.67-.93c.62-.66-.17-.95-.3-1.08a5.5,5.5,0,0,0-1.15-1,6.52,6.52,0,0,0-1.28-.63,6.33,6.33,0,0,0-3.9-.48,7.2,7.2,0,0,0-2.1.29,10,10,0,0,0-2,.89,9.83,9.83,0,0,0-1.73,3.27,21.27,21.27,0,0,0-1.85,2.71c-.09,1-.1,2-.09,2.92-.55.83-1.07,1.69-1.58,2.56-.07.94-.08,1.88-.09,2.81s-.16,1.83-.22,2.74l-.1,2.72-.38,2.68,1.09,2.69-1.46,2.6.83,2.64.27,2.63-.48,2.61,0,2.62-.52,2.61.56,2.63.37,2.63-.83,2.62.6,2.67c-.24.89-.47,1.8-.68,2.71.39.9.79,1.8,1.21,2.69q-.39,1.39-.71,2.85c.32.91.68,1.81,1.06,2.7q-.38,1.5-.63,3.09c.74.83,1.51,1.61,2.3,2.34a28.72,28.72,0,0,0,.77,2.85,27.38,27.38,0,0,0,.51,3.17,26.67,26.67,0,0,0,2.57,1.9,23.78,23.78,0,0,0,1.91,2.37,20.3,20.3,0,0,0,2,2.6,18.06,18.06,0,0,0,3.45.38,15.51,15.51,0,0,0,2.88,1.23,16.94,16.94,0,0,0,3.08,1.07,17.88,17.88,0,0,0,3.16-.61,19.91,19.91,0,0,0,3.2.17,22.55,22.55,0,0,0,3-.91,23.58,23.58,0,0,0,2.17-2.35,21.14,21.14,0,0,0,3.32-.33,26.53,26.53,0,0,0,2.15-2.22,27.22,27.22,0,0,0,2.27-2,25.86,25.86,0,0,0,1.05-3,24.49,24.49,0,0,0,2.56-1.93,24.09,24.09,0,0,0,.37-3.17,22.24,22.24,0,0,0,1.27-2.76,19.76,19.76,0,0,0,1.32-2.94A19.51,19.51,0,0,0,673.2,233.59Z" style="fill:#e12729;"/><path d="M830.82,295.57c.67.06.26-.07.25-.11L831,295l.24-.52a1.06,1.06,0,0,1,.73,0,4.24,4.24,0,0,1-.6-.63c-.14-.22-.09-.25-.08,0v0h0v-.19h0v.08a2.17,2.17,0,0,1,0,.26,3.92,3.92,0,0,1-.11.4c0,.12,0,.1,0,.07l0-.05a2.72,2.72,0,0,0,0,.9,6.09,6.09,0,0,1,.64.15l.55.36.57.4.4.63c.38,0,.76-.05,1.15-.06l-.18,1.26,1,.15.75.46.39.84.65.61c.14.29.3.58.46.87.34.1.68.18,1,.26s.64.22,1,.31a10.11,10.11,0,0,0,.57,1c.37,0,.75.06,1.12.07a7.4,7.4,0,0,0,.83.83,8.62,8.62,0,0,0,1.23-.47,7.46,7.46,0,0,0,1,.77,8.48,8.48,0,0,0,1.1-.44,6.46,6.46,0,0,0,1.23.7,7.57,7.57,0,0,0,.86-1.29,5.77,5.77,0,0,0,1.14-.25,5.71,5.71,0,0,0,1.43-.13,6.67,6.67,0,0,0,.43-1.35,7,7,0,0,0,.79-.91,8,8,0,0,0,1-.9,7.13,7.13,0,0,0-.58-1.34,9.13,9.13,0,0,0,.24-1,9.3,9.3,0,0,0,.36-1.06,9.06,9.06,0,0,0-.47-1,9.2,9.2,0,0,0,.24-1.15c-.08-.34-.17-.68-.27-1a9.92,9.92,0,0,0-1.09-.6c.16-.43.29-.88.41-1.33q-.36-.37-.73-.69l-.42-.85c-.36-.12-.72-.22-1.08-.3l0-1.17c-.36-.08-.72-.15-1.06-.2l-.35-.75-.15-.94-.89-.34-.33-.81-.67-.53-.78-.44-.66-.54-.61-.58-.39-.78-.65-.56-.58-.62c-.11-.29-.21-.58-.34-.86l-.7-.52-1-.15-.62-.59c-.22-.19-.41-.39-.64-.57l-.44-.84c-.24-.18-.46-.36-.72-.52s-.57-.24-.85-.36a5.5,5.5,0,0,0-.66-.66l-1.14.15a5.24,5.24,0,0,0-.77-.55,9.29,9.29,0,0,0-1-.12c-.29-.16-.6-.32-.92-.46a4.32,4.32,0,0,0-1.06.11,3,3,0,0,0-1,.28c-.22.1-.57,0-.66.36,0,.06-.25.09.09.73l.16.29.3.52c.18.31.25.4.28.4s.25-.14.38-.21a1.25,1.25,0,0,1,.59,0,1.94,1.94,0,0,1,.63-.08l.59.38a5.56,5.56,0,0,1,.51.58,4.24,4.24,0,0,1,.69.14l.48.62a5,5,0,0,1,.71.25c.21.14.41.28.63.41s.35.39.52.58l.87.16c.13.25.24.53.35.79l.4.72c.26.1.5.23.76.35l.24.87.59.53.65.48.14.95.86.3.83.34v1.05l.44.68,1.13.11-.1,1.14,1,.23.45.7.44.73.14.93.41.65,1.07.12.5.56a10.42,10.42,0,0,1-.5,1.13c.34.05.68.12,1,.2q.12.32.21.63a5.74,5.74,0,0,1-.5.81,5.06,5.06,0,0,1,.72.39,5.17,5.17,0,0,1,.52.55,5.27,5.27,0,0,1-1,.56,5.14,5.14,0,0,1,.78.65,3.3,3.3,0,0,1-.7.35,3.53,3.53,0,0,1,.27.65,2.46,2.46,0,0,1-.84-.05,2.8,2.8,0,0,1,.32.89,2.42,2.42,0,0,1-.68-.2,2.18,2.18,0,0,1-.23.64,3.69,3.69,0,0,1-.66-.59,2.84,2.84,0,0,1-.45.55,4,4,0,0,1-.57.06,5.05,5.05,0,0,1-.41-1,3.92,3.92,0,0,1-.48-.11,3.32,3.32,0,0,1-.54-.05,6.68,6.68,0,0,1-.95.48c-.17-.15-.34-.3-.51-.47-.05-.33-.09-.66-.11-1l-.41-.56c-.39.09-.78.17-1.19.23l0-1.05-1-.14-.31-.81-.79-.4-.6-.6-.57-.66c-.08-.34-.16-.69-.26-1l-.65-.7c-.25-.2-.51-.41-.78-.6-.42,0-.84,0-1.26.09a4,4,0,0,0-.84-.87,3.37,3.37,0,0,0-1.81-1,4.28,4.28,0,0,0-2.19.85,4.16,4.16,0,0,0-1,1.53,7.73,7.73,0,0,0-.94,1.06,6.29,6.29,0,0,0,.33,1.32l-.26.28-.2.23c-.05.05-.51.34,2.44.77C830,295.48,830.54,295.54,830.82,295.57Z" style="fill:#102b4c;"/><path d="M842.69,283.72c.52.32.2.08.2.06l-.07-.22.17-.17.62.15-.16-.39.55.11-.22-.44.7.24,0-.31.1-.2.09-.21.27-.07-.46-.66.84.4-.31-.54,0-.31h.35l.14-.18.37,0-.15-.44,0-.35.51.17L846,280l.48.15-.34-.66.59.26-.14-.46.72.42-.5-.85.33,0,.63.36-.24-.6.26,0,.49.22-.4-.82.24-.08.39.11,0-.41.47.22.22-.09-.26-.71.75.61,0-.33.25,0-.2-.65.59.47-.18-.65.3.06.43.29-.05-.48.31.12.1-.23,0-.36.12-.22.16-.14.28.15.15-.15.19,0,.3.31.14-.15v-.68l.19,0,.18,0,.24.36.16,0,.15-.19a2.35,2.35,0,0,1,.17.24q.07-.37.17-.73a2.49,2.49,0,0,1,.16.25l.2-.22c0,.11.08.22.12.32l.2-.14.21-.1c.05,0,0,.25.17-.11,0-.06,0,0,.32-.76l.13-.36.22-.63a1.87,1.87,0,0,0,.14-.51c-.06-.06-.18,0-.26,0l-.29-.12-.33,0-.26-.34a4.68,4.68,0,0,0-.28-.42,2.71,2.71,0,0,0-.34.19l-.33-.31a2.86,2.86,0,0,0-.32.23l-.31.07-.33-.1q-.13.24-.23.49l-.37-.3-.37-.19-.21.37-.43-.34-.26.18-.22.26-.47-.36-.09.54-.09.49-.55-.46-.3.06.13.82-.63-.53.08.68-.27.09-.28.06-.49-.23-.28.08.2.75-.16.22-.79-.62.25.76-.25.1L846,274l.15.62.07.5-.81-.57.33.79-.57-.26.12.54-.67-.35.36.79-.54-.2.14.53-.67-.32.15.53-.13.24-.76-.39-.16.21-.08.3.4.74-.25.12-.66-.25-.28.1.48.78-.68-.24.24.55h-.39l0,.38-.15.21-.2.17-.56-.11-.23.16-.15.22.41.63-.42,0-.65-.14a1.28,1.28,0,0,0-.05.29l.12.41-.39.05.38.57-.2,0-.16,0s-.12,0,.07.11.67.49,1.82,1.23Z" style="fill:#102b4c;"/><path d="M848.67,295c.57.34.23.08.22.06l-.06-.26.2-.22.71.1-.19-.46.63.06-.23-.49.82.19,0-.36.12-.26.11-.27.32-.13-.56-.71,1,.34-.38-.6,0-.36.42,0,.15-.23.44,0-.2-.49-.08-.41.62.13-.19-.5.57.11-.45-.72.7.23-.2-.52.87.41-.65-.94h.39l.77.36-.33-.67.3-.07.58.23-.53-.93.26-.1.45.11-.07-.47.53.25.23-.1-.31-.81.84.71,0-.37.28,0-.2-.75.64.56-.17-.76.34.08.46.35,0-.55.35.16.14-.25.09-.4.17-.24.21-.15.33.19.2-.15.24,0,.35.38.19-.16.07-.76h.49l.3.48.22,0c.07-.06.13-.16.21-.23l.24.29c.06-.32.13-.62.21-.92l.24.3a3.49,3.49,0,0,1,.25-.27l.21.43c.08-.08.17-.17.26-.23l.27-.2c.07,0,.07.27.21-.21,0-.08.07,0,.24-1l.08-.44.13-.78a2.61,2.61,0,0,0,.07-.64c-.07-.08-.18,0-.27,0l-.33-.12a2,2,0,0,0-.35.09l-.32-.36-.34-.48-.36.26-.37-.38-.34.29a2.81,2.81,0,0,0-.35.09l-.37-.1-.26.62-.41-.35-.4-.22c-.09.14-.18.29-.26.44l-.47-.41-.31.19-.27.29-.52-.44-.15.63-.15.56-.6-.55-.36.06.07.94-.69-.62,0,.78-.33.09-.35.06-.57-.28-.35.09.17.88-.22.26-.93-.72.25.9-.32.13-.78-.43.16.73.07.59-1-.61.4.92-.69-.25.16.64-.81-.34.47.91-.65-.17.2.62-.81-.29.21.61-.13.31-.92-.35-.17.28-.06.36.53.82-.28.18-.78-.19-.32.16.63.84-.79-.19.32.61-.45.06.09.43-.15.27-.21.23-.64-.06-.24.21-.15.27.5.68-.45.07-.7-.09,0,.33.13.43-.43.08.43.62-.22,0-.17,0s-.13,0,.07.12.74.52,2,1.31Z" style="fill:#102b4c;"/><path d="M858.64,310c-.28-.61-.2-.18-.22-.15l-.33.34-.6.19-.83-.36-.3.61a6.35,6.35,0,0,1-.68-.32l-.21.61a3.75,3.75,0,0,1-.57-.64l-.18.28-.18.07-.14.05a.7.7,0,0,1-.07-.2,2.74,2.74,0,0,1-.47.74,4,4,0,0,1,.33-1,2.09,2.09,0,0,1-.55.39,1.49,1.49,0,0,1-.37,0,3.77,3.77,0,0,1,.06-.43l-.17-.25a3.18,3.18,0,0,1,.17-.42,3,3,0,0,1-.53-.14,3,3,0,0,1-.39-.26,3.67,3.67,0,0,1,.5-.42,4,4,0,0,1-.47-.29c.18-.12.34-.19.53-.3a5.61,5.61,0,0,1-.74-.48,6.59,6.59,0,0,1,.76-.25,5.28,5.28,0,0,1-.36-.52c.34,0,.68-.06,1-.07a10.21,10.21,0,0,1-.85-.82l.46-.29h.93c-.13-.24-.25-.5-.37-.76l.4-.32.75-.08c-.19-.33-.37-.67-.54-1l.4-.35.63-.18,0-.67.78-.08.41-.37-.3-1,1.2.28.13-.6.46-.32-.21-.9,1,.13-.21-.91.54-.25.76,0v-.74l.58-.18.22-.49.12-.6.25-.46.32-.38.55-.08.31-.35.39-.22.62.16.33-.31c0-.29,0-.58.07-.86a4.19,4.19,0,0,1,.43-.13l.41-.13a3.78,3.78,0,0,1,.5.36,3,3,0,0,1,.34-.09,3.39,3.39,0,0,1,.33-.24l.33.29a4.89,4.89,0,0,1,.47-.86l.34.33a3.2,3.2,0,0,1,.48-.15c.09.17.18.31.25.48a3.65,3.65,0,0,1,.47,0c.16,0,.32,0,.48.09s0,.36.38,0c.06,0,.1.07.67-.69l.26-.36.44-.63c.26-.39.32-.52.3-.54s-.32-.13-.47-.19-.36-.25-.54-.38a6.55,6.55,0,0,0-.65-.19c-.15-.2-.33-.38-.5-.57s-.36-.44-.55-.67a7.61,7.61,0,0,0-.78,0c-.23-.16-.47-.33-.72-.49a5,5,0,0,0-.78.24,7.15,7.15,0,0,0-.75.12c-.25,0-.51,0-.76,0a5.44,5.44,0,0,0-.55.7,7.28,7.28,0,0,0-.8-.19c-.26,0-.51,0-.76,0a7.43,7.43,0,0,0-.45.63l-.83-.13-.53.44c-.16.18-.31.36-.45.54l-.9-.07c-.06.28-.12.56-.16.84l-.15.77-1-.12-.51.37.23,1.06-1-.17.15.92-.44.38-.46.36-.78.08-.46.37.27,1-.3.49L853,297.4l.31,1-.44.38-1-.09.15.86,0,.75-1.25-.22.41,1.06-.89.11.12.84-1,.09c.16.36.33.71.51,1.06-.28.09-.56.18-.84.29.06.28.13.57.21.85-.34.09-.66.2-1,.33.09.29.19.58.29.86s-.08.47-.09.71a8.78,8.78,0,0,0-1.06.55c0,.26,0,.53-.06.79s.09.58.15.86a7.84,7.84,0,0,0,1,.74c0,.25,0,.51,0,.76a7.25,7.25,0,0,0-.5.95,6.92,6.92,0,0,0,.15.83,8.26,8.26,0,0,0,1.24.27,7.57,7.57,0,0,0-.21,1.07,7.74,7.74,0,0,0,1,.26,5.4,5.4,0,0,0,.35.81,5.93,5.93,0,0,0,.86.28,6.72,6.72,0,0,0,.75.41,6.46,6.46,0,0,0,.8.36,5,5,0,0,0,.81.74,6.14,6.14,0,0,0,1,.14,7.26,7.26,0,0,0,.92-.11,5.39,5.39,0,0,0,.62-.95c.27,0,.54.08.81.11l.9.35.53-.39.38-.56.61,0,.13-.86.21.12.15.1s.09.11,0-.15-.25-.88-.76-2.29C858.94,310.76,858.75,310.3,858.64,310Z" style="fill:#102b4c;"/><path d="M849.91,302.16c.11-.66,0-.25,0-.24a2.54,2.54,0,0,0-.28.14l-.37-.08-.28-.64-.43.36-.32-.55-.42.42-.33-.74-.4.2-.39,0-.39.07-.39-.16-.36.79-.42-.88-.34.61-.36.25-.4-.23-.37.07-.42-.24-.31.46-.32.34-.47-.4-.28.48-.48-.34-.17.78-.53-.47-.23.52-.62-.63,0,1-.43-.09-.61-.49-.11.71-.4,0-.55-.26.06,1-.36.11-.48-.09-.15.49-.55-.17-.35.17.09.79-.81-.49-.16.43-.36.15.09.71-.71-.25.11.7-.39.12-.56,0,0,.55-.42.11-.15.38-.05.45-.14.36-.19.32c-.13.05-.27.1-.39.16l-.16.34-.23.29-.47.13-.12.37.26.6-.21.3-.19.31-.47.16-.16.33,0,.4-.36.24.42.59-.34.25,0,.41-.4.23v.76c0,.09-.29.09,0,.28.05,0,0,.08.73.31l.36.1.63.17a1.84,1.84,0,0,0,.5.11c.05-.07,0-.18,0-.26l.09-.3,0-.34.32-.21.41-.16,0-.35.36-.17,0-.36.1-.3.25-.21-.19-.46.43-.11.35-.14,0-.39.5,0,.12-.28.08-.32.54,0-.12-.48-.08-.46.64.14.26-.16-.29-.68.7.26-.18-.6.27-.15.29-.13.51.13.29-.11-.19-.7.2-.24.79.56-.17-.74.29-.11.62.42,0-.61.05-.5.72.68-.12-.84.52.37.05-.57.56.52-.06-.87.47.36.11-.55.51.54.12-.55.26-.17.51.69.26-.11.24-.21.11-.85.32,0,.41.58.31.09.16-.91.38.62.24-.56.32.27.28-.29.3,0,.3,0,.3.52.29.09h.29l.33-.7.27.36.23.65.29-.06.32-.25.22.4.39-.58.05.22,0,.16s0,.13.09-.12.23-.88.54-2.34Z" style="fill:#102b4c;"/><path d="M616.29,167.13c.58.11.22,0,.21,0l-.09-.31.17-.39c.22-.08.46-.15.69-.21l-.21-.51c.2-.07.39-.14.6-.2l-.22-.54.78-.09v-.45l.14-.38.15-.38.34-.27c-.14-.25-.26-.49-.39-.75l.93.14c-.07-.22-.15-.44-.21-.66l.1-.45.46-.17.26-.33.48-.13c0-.19,0-.37,0-.56l.12-.48.62,0,.06-.56.59,0-.08-.77.67.16.11-.57.77.35-.15-1,.48-.05.68.31.09-.69.43-.11.57.18,0-.91.43-.11.5.09c.09-.15.19-.3.29-.44l.54.22.42-.11.22-.73.64.62.36-.32.44,0,.3-.63.55.48c.1-.21.21-.42.32-.61l.46.09.48.3.38-.41.46.14.42-.17.42-.28.44-.14.44-.07.45.17.44-.07.44,0,.43.31.45-.07.48-.46.45,0,.45,0,.41.33.45,0,.46-.07.42.23.54-.44.42.24.48-.07.39.32h.47l.47,0c.11,0,.16.23.34,0,0,0,.11,0,.28-.55l.07-.27.11-.48c.07-.29.07-.38,0-.39s-.25,0-.38,0l-.47-.14-.49,0-.43-.3-.42-.37-.51,0-.44-.32-.51.07-.49-.05-.47-.18-.52.26-.46-.33-.47-.25c-.17.06-.34.11-.51.18l-.48-.37-.5,0-.5.11-.5-.41-.49.36-.48.33-.53-.49-.51,0-.44.65-.56-.56-.43.55h-1l-.57-.29-.52,0-.36.69-.47.18-.71-.67-.3.76-.5.09-.69-.42-.31.64q-.17.25-.33.53l-.8-.57c-.06.29-.13.56-.17.86l-.68-.23-.26.61-.76-.32-.07.9-.69-.14-.2.64-.79-.24-.16.66-.37.36-.87-.26L619,156c-.11.14-.2.3-.3.45l.12.9-.44.28-.79-.06c-.15.1-.31.18-.46.29l.26.93-.81,0,.07.72-.54.24c0,.18-.07.38-.1.57l-.28.43c-.11.13-.22.26-.32.4l-.69.19-.35.41-.25.48.35.77-.49.35-.74.27c0,.18-.07.36-.11.54l.08.6a5.45,5.45,0,0,0-.43.43l.45.69L613,166l-.17.09s-.44.1,2.09.72Z" style="fill:#102b4c;"/><path d="M649.18,161.78c.19-.67,0-.26,0-.25l-.37.09-.46-.21c-.09-.28-.2-.51-.31-.76l-.6.3-.36-.66-.6.37-.35-.86-.55.15-.51,0h-.52l-.49-.24-.59.8-.43-1-.55.61-.51.22-.5-.31-.5,0-.51-.31-.49.46-.48.33-.54-.48-.46.49-.55-.41-.39.82-.59-.55-.41.54-.66-.73-.27,1.1-.54-.13-.67-.57-.31.76h-.52l-.64-.31-.17,1-.5.09-.59-.13-.32.52-.65-.23-.48.16-.12.89-.89-.62-.32.47-.5.14-.09.82-.81-.35-.06.82-.53.11-.68-.09-.14.66-.56.1-.29.44-.2.54-.28.43-.33.37-.54.15-.3.4-.37.33-.61.11-.25.45.16.8-.34.36-.32.37-.62.14-.29.41-.14.51-.5.26.36.82c-.16.09-.32.18-.47.28l0,.55-.51.27-.08.51-.08.51c0,.11-.3.11,0,.39.05,0,0,.12.69.46l.34.15.6.27c.37.16.49.19.51.18s.1-.2.11-.31l.22-.37.1-.44.47-.23c.19-.06.37-.11.57-.15,0-.15,0-.31,0-.47l.48-.19.05-.48.2-.38.37-.26-.1-.62.56-.1.47-.15.05-.52h.63l.23-.35c.06-.14.13-.26.19-.4l.65.07,0-.63,0-.59.75.21.37-.2-.16-.87.8.35,0-.76.39-.18.41-.15.61.17.4-.13,0-.84.33-.28.84.67,0-.87.41-.12.69.49.14-.7.22-.56.75.77.09-.93.59.43.24-.61.61.6.16-.95.54.43.29-.58.56.63.31-.57.4-.16.54.8.4-.09.39-.2.33-.89.43.08.46.68.41.14.4-.95.42.72.43-.56.4.34.43-.27.42,0,.41.1.34.61.39.15.4.06.54-.69.34.44.25.74h.42l.47-.21c.1.15.19.33.29.47l.61-.59.06.24,0,.18s0,.15.12-.1.37-.88.87-2.36C648.94,162.56,649.1,162.07,649.18,161.78Z" style="fill:#102b4c;"/><path d="M625.74,213.54c.61.3.27,0,.27,0l0-.47.38-.56,1-.3a4,4,0,0,0-.06-.77l.83-.4-.21-.81c.36-.11.73-.23,1.08-.36a5.89,5.89,0,0,0,0-.73l.13-.67.1-.67.37-.61-.81-.84,1.21-.44-.59-.77c0-.23-.08-.46-.15-.68l.42-.59.06-.64.45-.6c-.13-.23-.28-.46-.43-.68l-.3-.66.65-.58-.46-.66.58-.59-.84-.66.76-.58-.5-.64,1-.57-1.17-.65.32-.6.87-.58-.72-.63.19-.59.6-.57-1.06-.64.13-.59.42-.57-.38-.62.58-.54.11-.57-.8-.66,1.12-.46-.22-.59.2-.54-.65-.68c.3-.14.57-.29.87-.42l-.61-.68.34-.5.61-.42c-.13-.22-.24-.43-.34-.65l.43-.44v-.57l-.15-.63.07-.56.15-.53.46-.39a3.18,3.18,0,0,1,.15-.53l.3-.45.63-.25.16-.51c-.11-.29-.21-.54-.29-.82l.34-.39.34-.38c.23,0,.44,0,.66-.06s.21-.24.33-.34a5.07,5.07,0,0,1,.24-.45,4.52,4.52,0,0,1,.53,0,6.53,6.53,0,0,1,0-.94c.19,0,.37,0,.54,0a5.06,5.06,0,0,1,.33-.39c.18.09.35.14.49.22a2.25,2.25,0,0,1,.37-.27,2.63,2.63,0,0,1,.41-.2c.11,0,.16.28.32-.15,0-.07.11,0,.28-.88l.07-.41.1-.73c.05-.45,0-.58,0-.59a1.36,1.36,0,0,0-.61,0,5.87,5.87,0,0,0-.79,0,4.23,4.23,0,0,0-.75.22,4.85,4.85,0,0,0-.83-.12c-.29-.06-.58-.08-.89-.11-.21.19-.41.37-.59.56-.27,0-.56.06-.83.11a6.61,6.61,0,0,0-.47.64c-.19.16-.36.33-.53.51s-.42.25-.64.38c-.06.28-.09.58-.12.86-.25.08-.51.17-.76.27l-.65.4a5.71,5.71,0,0,0-.1.78l-.76.33-.26.64-.18.67c-.29.11-.53.24-.8.37l.19.83.15.78-.93.37-.29.61.61.89-1,.4a8.82,8.82,0,0,0,.49.81l-.22.61-.26.61-.67.54c-.09.21-.15.41-.22.62l.71.76v.64L625,188l.8.72-.15.62-.9.56c.2.23.4.46.61.68l.46.65-1.19.55.93.67-.73.58.56.64-.89.58,1,.65-.66.58.56.62-.88.57.57.63.07.6-1,.54v.59l.15.6.95.65-.18.58-.86.51L624,202l1,.68-.88.47.6.66c-.14.18-.3.34-.45.5l.24.61-.08.56-.16.54-.75.39-.24.49-.12.52c.23.25.47.52.67.77-.19.13-.37.26-.53.39l-.81.26v.56c.07.22.11.42.17.64l-.49.34.44.82-.24.06-.19,0c-.05,0-.47,0,2.12,1.45C625,213.18,625.48,213.41,625.74,213.54Z" style="fill:#102b4c;"/><path d="M301.19,185.75c.64,2,.89.65,1.08.58l1.39-.4a14.78,14.78,0,0,0,1.46-.41c1.55,0,3.15,0,4.82,0l5.13,2.07c1.81-.37,3.72-.78,5.62-1.25a45.19,45.19,0,0,0,6.15,1.16l1.51-.59,1.14-.56,2.36-1.09,5.39,1.58,5.05-1.38,5.17-.83,5.18-.91,5.29-.2,4.85-3.26,5.67,2.08,4.92-2.74,5.1-1.59,5.38-.11,5.21-1.12,5.43-.21,4.91-2.51,5-2.21q2.79.07,5.62.05c1.6-.95,3.2-1.9,4.77-2.89,1.86-.11,3.74-.24,5.63-.44,1.45-1.34,2.88-2.73,4.26-4.13q2.89-.14,5.84-.47c1.49-1.21,2.95-2.47,4.36-3.79a61.56,61.56,0,0,0,6.23-.77,65.09,65.09,0,0,0,2.93-6,46.43,46.43,0,0,0,4.89-3.35,35.31,35.31,0,0,0,5.71-3.4,36,36,0,0,0,1.66-6.63,29.88,29.88,0,0,0,2.48-6.09,31.15,31.15,0,0,0,2.22-6.55,32.21,32.21,0,0,0-3.34-6.18,37.73,37.73,0,0,0-1.3-5.88c-.17-1-.35-2-.6-2.94l-.36-1.46a4.51,4.51,0,0,0-.29-.86l-.4-1a20.14,20.14,0,0,0-5.34-4.71c-.62-.88-1.26-1.71-1.92-2.48s-1.32-1.55-2-2.29c-1.57-1.15-3.13-2.18-4.67-3.18-2-.31-3.86-.56-5.76-.78l-3.22-5L427,88.86c-1.4-.94-2.75-1.89-4-2.86-1.71-.31-3.39-.64-5-1.05a21.57,21.57,0,0,1-1.11-2.26,13.11,13.11,0,0,1-.8-2.19A22.62,22.62,0,0,1,412.2,79,4.64,4.64,0,0,1,412,76.5a6.47,6.47,0,0,1,1.79-1.6,3,3,0,0,1-.06-.7l.14-.83a7.17,7.17,0,0,1,.54-1.84,14.17,14.17,0,0,1,1.67-1.22,20.21,20.21,0,0,1,1.83-1.17l1.54-1.62L421.12,66a45.58,45.58,0,0,1,3.41-3.27c1.27-.94,2.63-1.77,4-2.61s2.87-1.45,4.36-2.09c1.61-.35,3.21-.69,4.84-.94,1.51-.61,3.07-1.14,4.63-1.67s3.22-.78,4.85-1.12c1.72,0,3.43.06,5.16.14,1.62-.44,3.27-.84,4.91-1.25,1.56-.94,3.14-1.88,4.74-2.8,1.71-.23,3.33-.42,5-.6s3.33-.39,5-.52l5.14.83,5.07-.36c1.69-.26,3.39-.52,5.1-.74,1.72.2,3.45.46,5.17.61q2.58-1.26,5.17-2.42l5.23.58,5.24-.82c1.76.26,3.51.51,5.29.7,1.76-.25,3.52-.45,5.27-.79l4.85-.87-1-6.42-.39.15c-1.18.36-2.47.3-3.41,1.64a1.69,1.69,0,0,0-.8,2.15,5.46,5.46,0,0,0,.26.76c.2.47.39,1,.58,1.33.41.82.72,1.05,1,1a14.42,14.42,0,0,0,3.91-.71l.4-.07-1-6.33-4.75,0c-1.71.08-3.43.28-5.15.41-1.73-.23-3.47-.52-5.19-.78l-5.21-1.18-5.22.52-5.26-1c-1.76.18-3.51.44-5.27.71l-5.3.28-5.36-.22c-1.76.58-3.51,1.15-5.24,1.81-1.81-.24-3.65-.45-5.49-.6s-3.71,0-5.49,0l-5.06,1.84-5.53-.38c-1.75.43-3.5.9-5.25,1.4s-3.46,1.2-5.18,1.84c-1.91,0-3.83,0-5.79.09-1.64,1-3.24,2.15-4.8,3.29s-3.12,2.26-4.61,3.45c-2,.25-4,.52-6,1-1.72.89-3.38,1.94-5,3-.55.92-1.09,1.81-1.6,2.72L410,60.36A25.26,25.26,0,0,0,407,61.58l-1.5.7c-.5.26-1,.59-1.49.89a24.3,24.3,0,0,0-1.21,3.3l-.48,1.71c-.14.59-.22,1.24-.31,1.84a15.62,15.62,0,0,0-1.48,7.46,17.43,17.43,0,0,0,2.15,7.34A30.6,30.6,0,0,0,405.93,91l1.13,1.16,1.14,1c.76.72,1.53,1.34,2.3,2a57.59,57.59,0,0,0,5.95,1.35c1.59.91,3.19,1.75,4.78,2.56l3.21,5.16,5.67.49c1.46.89,2.9,1.79,4.29,2.7a51.43,51.43,0,0,1,2.9,4.37c.78.19,1.58.37,2.31.58s1.48.42,2.18.66,1.19.59,1.84.9a16.11,16.11,0,0,1,1.44.94,15.63,15.63,0,0,0-.5,2.38,20.45,20.45,0,0,1-.61,2.55,30,30,0,0,1,3.46,3.48,18.7,18.7,0,0,1-1.41,4.2,18.23,18.23,0,0,1,1,4,16.16,16.16,0,0,1-3.36,2.84,18.06,18.06,0,0,1,.17,4.73,28.05,28.05,0,0,1-4.07,2.17,33.62,33.62,0,0,1-2.37,4.08,46.35,46.35,0,0,1-5.07.84c-1,1.26-2.11,2.49-3.27,3.71-1.37.84-2.78,1.65-4.22,2.44-1.85-.09-3.69-.24-5.52-.43-1.48.66-3,1.29-4.5,1.89s-3,1.42-4.5,2.1c-1.3,1.35-2.64,2.68-4,4q-2.48.56-5,1.07c-1.82-.24-3.63-.48-5.44-.77l-5,.73-4.37,3.88-5.45-1.1-4.72,2.67-5.23,0L366.11,168l-5.1.84-5.14.58-5.36-1-5.18.39-5.17.7-4.9,3-5.4-.3-2.84-.55-1.46-.25-1.07-.33a34.49,34.49,0,0,1-4.21.67c-1.5.36-3.09.66-4.78.93-1.67-.43-3.4-.88-5.23-1.31l-2.85,1c-1.43.51-2.89,1.09-2.89,1.09-.64-.18-1.28-.39-1.93-.51l-1.59-.27c-.36-.1-2.68-.94-.93,8.17A42.65,42.65,0,0,0,301.19,185.75Z" style="fill:#fff;"/><path d="M344.62,235.67c1.37.16.67-.49.69-.64l.39-2.33,1.28-3.36,2.46-2.95.31-3.68c.72-1,1.44-2,2.24-3l.4-3.67,2.74-2.77.86-3.5,1.21-3.36c.4-1.12.88-2.22,1.31-3.33l1.79-3.12-.08-4,3.24-2.44c.11-1.26.18-2.55.36-3.79l1.2-3.4,2.14-2.94,1.57-3.22,2.17-2.9c.27-1.21.64-2.36,1-3.55l1.23-3.42,2.67-2.62,1-3.57c.87-.88,1.69-1.78,2.61-2.63l.57-3.84,3-2.4,1.1-3.54,3.32-2.15c0-1.4.15-2.74.23-4.12l2.43-2.7,3.22-2.16.92-3.71c.76-.93,1.47-1.9,2.25-2.81l2.94-2.32.58-4,2.27-2.8,2.67-2.49c.49-1.12,1.06-2.2,1.6-3.3l3-2.24,2.31-2.75,1-3.78,3.75-1.59,1.91-3.08,2.5-2.59,1.26-3.64,3.42-1.81q.62-1.84,1.32-3.61l2.7-2.42,3.08-2.08,1.72-3.29L437.17,84l2.23-2.84,2-3,2.27-2.81,2.39-2.71c.94-.76,1.87-1.53,2.84-2.26l2.43-2.66L454,65.16l3.06-2,2.4-2.69c.56-1.15,1.18-2.24,1.77-3.36l2.66-2.44,2.62-2.48,3.11-1.95c.86-.84,1.71-1.7,2.59-2.51L474.64,45l3-2.09,1.79-3.42,3-2.1c.79-.92,1.62-1.8,2.45-2.69,1.05-.62,2.07-1.29,3.08-2l2.52-2.62q1.28-1.28,2.51-2.64c.58-.63,1.5-.86,1.73-1.91,0-.17.67-.61-.14-1.58a4.17,4.17,0,0,0-.41-.42c-.28-.25-.55-.51-.79-.69-.51-.4-.76-.43-.9-.34a27.51,27.51,0,0,0-2.09,1.84q-1.47,1.08-2.89,2.23l-2.67,2.47-3.13,1.95-3.21,1.86-2.49,2.69-3.11,2-2.47,2.7-2.68,2.47c-1,.74-1.91,1.51-2.87,2.27l-2.1,3.1-3.15,2-3,2.12c-.75,1-1.53,1.92-2.25,2.93l-3.2,2-2.5,2.67-2.38,2.78-3.31,1.86c-.67,1.05-1.29,2.15-1.92,3.24l-2,3.18-3.45,1.76-2.66,2.52-1.4,3.68-3.57,1.68L426.42,84l-2.56,2.61-2.62,2.56q-1.6,1-3.15,2.11L415.57,94l-1.21,3.76-2.22,2.9-3.93,1.51-1,3.88-2.37,2.79-3.44,2-1.29,3.62c-.51,1.14-1,2.28-1.49,3.45l-3.77,1.76-.76,4-3.13,2.26-1.31,3.56c-1.13.7-2.2,1.44-3.3,2.17l-.58,4-3,2.43-1.18,3.6c-1.08.75-2.21,1.47-3.25,2.26l-1,3.68-1.77,3.21L372.1,153l-1.87,3.17c-.57,1.09-1,2.24-1.55,3.35l-.29,4.06-2,3.08-3,2.52c-.68,1-1.41,2-2,3.08l0,4.16-2.94,2.62-.61,3.8-2.23,3c-.39,1.17-.68,2.39-1,3.58l-1.46,3.36-1.6,3.3L349,199c-.55,1.1-1.14,2.18-1.66,3.29L346,205.75l.09,4-2,3.16-2.59,3c-.4,1.16-.72,2.36-1,3.55l-.57,3.7-1.75,3.3.22,3.94-.74,1-.58.78c-.15.18-1.31,1.06,4.43,2.78A20.24,20.24,0,0,0,344.62,235.67Z" style="fill:#fff;"/><path d="M783.84,1.08c-.84-2-.5-.66-.54-.61L783,.82c-.17.14-.24.49-.25.46l-1.12.55c-.62-.34-1.26-.65-1.92-.94-.19.6-.38,1.15-.53,1.76q-.95-.32-2-.59c-.13.63-.23,1.27-.31,1.92q-1.17-.47-2.41-.86c-.23.47-.43,1-.62,1.47s-.63.71-.91,1.09l-.79,1.19a12.42,12.42,0,0,0-1.27.79q.49,1.3,1.07,2.5c-1-.15-2-.26-3-.31a21.06,21.06,0,0,0,.83,2.1l0,1.48c-.45.27-.83.58-1.25.9-.14.43-.31.85-.41,1.28q-.61.49-1.22,1a17.41,17.41,0,0,0,.81,1.6l.52,1.42q-.79.49-1.58,1c.33.49.66,1,1,1.41q-.68.56-1.35,1.18c.65.47,1.35.89,2,1.3-.56.4-1.14.82-1.68,1.26L768,27c-.71.46-1.42,1-2.07,1.45q1.46.47,2.89.84l-.44,1.19-1.61,1.4,1.88.7-.11,1c-.34.41-.68.8-1,1.18l2.53.49,0,.93c-.21.35-.44.68-.67,1l1,.74c-.35.31-.71.61-1.06.89a4.93,4.93,0,0,1-.06.73,19.56,19.56,0,0,1,1.84.76,18.31,18.31,0,0,1-2.28.47c.22.23.4.42.56.62a4.48,4.48,0,0,1-.32.42,8.28,8.28,0,0,1,1.31,1,6.31,6.31,0,0,1-1.65-.33,6.35,6.35,0,0,1,1.08,1.18l-.62.1a6.23,6.23,0,0,1-1-.45,3.24,3.24,0,0,1,.24,1.08l-.77-.2a4.55,4.55,0,0,1-.26.54,3.29,3.29,0,0,1-.34.83,6.67,6.67,0,0,1-.67.53l-.87.37a10.73,10.73,0,0,0-1.17-.24l-1.1.55-1.24.43c-.51-.08-1-.12-1.54-.16-.37.28-.71.59-1,.88-.15.62-.24,1.25-.32,1.85-.36.21-.67.47-1,.7s-.62.53-.93.8a12.14,12.14,0,0,0-1.47.3,6.77,6.77,0,0,0-.78,1c-.16.41-.3.83-.42,1.26a9.83,9.83,0,0,0-1.06.8c.23.64.46,1.24.72,1.82a9.79,9.79,0,0,0-.9.88c0,.44,0,.86,0,1.29a10.2,10.2,0,0,0-.92,1c0,.43,0,.84,0,1.26s.05.82.1,1.23-.53.52.22.86c.12.05,0,.29,1.57.38l.74,0,1.31,0c.8,0,1,0,1,0,.1-.2-.09-.42-.13-.64l.2-.8c0-.28,0-.57,0-.86a7.9,7.9,0,0,1,.79-.61,7.61,7.61,0,0,1,1-.43c0-.28,0-.56,0-.85a6.81,6.81,0,0,1,1-.33c0-.28.05-.56.1-.84a6.74,6.74,0,0,1,.43-.64l.75-.35a11.84,11.84,0,0,1-.12-1.22,7.88,7.88,0,0,1,1.1.08,7,7,0,0,1,.93,0c.08-.29.16-.62.27-.91a9.24,9.24,0,0,1,1.1.52l.55-.4.52-.53,1.06.9c.19-.37.39-.79.63-1.2l.81-1.13a13.79,13.79,0,0,0,1.58,1,13.79,13.79,0,0,0,1.41-.31,9.73,9.73,0,0,0,.53-2.19,19.58,19.58,0,0,0,2.08.72,12.4,12.4,0,0,0,.32-2c.39-.27.8-.51,1.18-.83l1.16-1a10,10,0,0,0,1.79-.71,10.83,10.83,0,0,0,1-1.34,14.86,14.86,0,0,0-1-2c.09-.46.12-.91.17-1.36a26.94,26.94,0,0,0,2.59-1,18.32,18.32,0,0,0-1.67-1.51l.23-1.25c.61-.44,1.2-.88,1.79-1.34-.49-.39-1-.77-1.48-1.12l-1.18-1L781,34.46q-1.11-.4-2.23-.75l1.32-1.32c-.47-.28-.95-.54-1.42-.78l1.73-1.37-2.36-.52c.41-.41.84-.81,1.28-1.18l-1.42-.67q.92-.56,1.86-1.05c-.47-.2-.91-.41-1.37-.64l-.25-.78c.79-.29,1.57-.55,2.36-.77a6.31,6.31,0,0,1-.06-.68l-.37-.7c-.76-.3-1.48-.63-2.21-1l.43-.71q1-.19,2-.28a4.79,4.79,0,0,1,.59-.5q-1.12-.65-2.23-1.44a19.09,19.09,0,0,1,2.11.07c-.39-.39-.82-.83-1.17-1.26q.57-.12,1.12-.2a8.77,8.77,0,0,1-.34-1l.35-.61.57-.45a14,14,0,0,1,1.63.52l.63-.24c.13-.15.3-.26.45-.4a21.16,21.16,0,0,1-.9-2.06q.62.18,1.19.39c.55.37,1.08.77,1.62,1.21l.36-.56a8.75,8.75,0,0,1,.14-1.08c.39.26.78.55,1.14.84l-.08-1-.05-1a5.77,5.77,0,0,0,.46.52l.31.31s.21.32,0-.51-.91-2.75-2.54-7.1C784.75,3.34,784.19,1.91,783.84,1.08Z" style="fill:#e12729;"/><path d="M146.31,458.84a25.67,25.67,0,0,0-1.34-5.76,27.54,27.54,0,0,0-1.83-5.55A21.26,21.26,0,0,0,141.6,445a19.27,19.27,0,0,0-1.76-2.32l-.84-1.2L138,440.4a20.73,20.73,0,0,0-2-2.15,32.89,32.89,0,0,0-5.18-2.76,24.69,24.69,0,0,0-5.65-1.73,21.42,21.42,0,0,0-2.75-1,23.78,23.78,0,0,0-2.83-.72,36.33,36.33,0,0,0-5.64.72,50.24,50.24,0,0,0-5.59.06c-1.74.74-3.4,1.57-5,2.44-1.81.21-3.63.49-5.44.85-1.6.89-3.16,1.82-4.68,2.82-1.81.38-3.63.88-5.41,1.42-1.29,1.37-2.51,2.77-3.67,4.17l-4.54,2.57c-1.63.65-3.25,1.29-4.86,1.88-1.21,1.19-2.43,2.36-3.69,3.46q-2.2,1.13-4.46,2.13c-1.6.49-3.22.95-4.85,1.38q-2,1.68-4.09,3.32L52.87,461l-5,1.44c-1.54.84-3.08,1.71-4.6,2.6-1.71.49-3.42,1-5.14,1.61-1.61.79-3.22,1.63-4.78,2.56-1.35,1.28-2.62,2.63-3.84,4-1.74.64-3.53,1.3-5.24,2.1-1.32,1.26-2.54,2.63-3.77,4s-2.65,2.49-3.88,3.83c-.95,1.59-1.76,3.26-2.57,4.88-1.38,1.21-2.77,2.44-4.08,3.77-.7,1.72-1.26,3.49-1.81,5.23l-1.4,2.31-1.3,2.38c-1,1.55-1.91,3.13-2.76,4.77-.39,1.8-.67,3.62-.91,5.44a44.65,44.65,0,0,0-1.58,5.4A41,41,0,0,0,0,523.09a32.07,32.07,0,0,0,1.09,5.77,22.26,22.26,0,0,0,2.24,5.6,16.85,16.85,0,0,0,3.86,4.83A17.33,17.33,0,0,0,12.31,543a22.3,22.3,0,0,0,5.91,1.3,30.82,30.82,0,0,0,5.77.12,41.83,41.83,0,0,0,5.69-.15c1.76-.52,3.54-1,5.25-1.58,1.61-.93,3.22-1.8,4.72-2.83,1.68-.6,3.32-1.27,4.93-2s3.19-1.5,4.78-2.26c1.68-.57,3.34-1.19,5-1.81l4.54-2.6,4.31-2.89,4.68-2.19,3.72-3.76,4.66-2.07c1.42-.89,2.83-1.87,4.29-2.7,1.61-.53,3.19-1.09,4.8-1.54.74-.37,1.48-.78,2.23-1.12a17.61,17.61,0,0,0,2.24-1.11c.74-.41,1.48-.82,2.19-1.13A15.6,15.6,0,0,1,94.2,512c1-.19,1.86.24,2.82-.13.12-.05.42.09.79-.08a9.16,9.16,0,0,0,2.3.65c1.12.11.74-.63.82-.82l.57-1.43c.35-.69.64-1.42.64-1.42a41.3,41.3,0,0,1,2.64-4c1.26-1.08,2.48-2.15,3.82-3.12.87-1.37,1.91-2.66,2.92-4,1.39-.93,2.79-1.84,4.23-2.7,1.08-1.27,2.25-2.5,3.41-3.74,1.57-.73,3.13-1.45,4.72-2.15l3.9-3.3,4.14-3.09,4.14-3.2c.74-.52,1.43-.94,2.21-1.55l2.38-2c.54-.93,1-1.86,1.52-2.77s.75-1.95,1.1-2.89a25.75,25.75,0,0,0,1.92-2.46,25.1,25.1,0,0,0,1.58-2.81A23.62,23.62,0,0,0,146.31,458.84Z" style="fill:#0b1b30;"/><path d="M833.23,24.36c-1.58-.77-.57-.25-.55-.21a2,2,0,0,1,.3.43,3.47,3.47,0,0,1-.42.19,7.51,7.51,0,0,1-1.4-1.17,3.49,3.49,0,0,1,.09,1.17,9.8,9.8,0,0,1-1.11-1.19,6.91,6.91,0,0,1-.29,1.39,19,19,0,0,1-1-1.91,5.68,5.68,0,0,1-.77.69c-.3.06-.64.11-1,.16l-1.15.18-1.28-.51-1.44,2.23c-.48-.88-1-1.75-1.58-2.61-.53.58-1.08,1.17-1.6,1.79-.54.26-1.08.49-1.59.78l-1.78-.52L815,25.7c-.62-.17-1.24-.25-1.88-.37A19.37,19.37,0,0,0,811.94,27c-.42.45-.83.88-1.2,1.36-.68-.22-1.39-.43-2.12-.61q-.47.93-.88,1.83c-.69-.12-1.38-.19-2.1-.25-.1.88-.14,1.77-.15,2.64-.77-.16-1.57-.31-2.36-.4-.16.69-.32,1.34-.42,2q-1.38-.32-2.84-.54c.27,1.08.6,2.14.95,3.16-.55.22-1,.5-1.58.78a23.26,23.26,0,0,0-2.64.14c.16.83.32,1.61.55,2.41l-1.19,1.24q-1,.41-2,.91a27.07,27.07,0,0,0,1.72,2.55l-.8,1.34-1.4,1.11c.16.57.34,1.13.53,1.68l-1.66.95-.51,1.23,1.66,1.81c-1,.13-1.94.26-2.89.33l.32,1.28c-.23.31-.45.57-.66.83.44.53.87,1.09,1.26,1.66a16.94,16.94,0,0,1-2.2-.09,18.37,18.37,0,0,1,1.08,1.73c-.32.16-.68.26-1,.41a7.43,7.43,0,0,1-1.34-.18,8.73,8.73,0,0,1,.39,1.41,4.4,4.4,0,0,1-.88-.11,5.34,5.34,0,0,1-.26.68,4.09,4.09,0,0,1-.27,1,4,4,0,0,1-.66.58,7.86,7.86,0,0,1-.92.33l-1.12-.47c-.38.11-.78.21-1.2.3l-1.35,0a17.08,17.08,0,0,0-1.53-.79c-.52.14-1.07.31-1.6.47-.48.57-.92,1.18-1.34,1.76-.51.07-1,.2-1.52.3s-1,.29-1.48.44c-.58-.12-1.18-.22-1.78-.3-.48.23-1,.45-1.43.7s-.83.71-1.22,1.08c-.51.14-1.06.25-1.57.43-.14.78-.26,1.53-.34,2.27a12.06,12.06,0,0,0-1.44.58c-.28.46-.53.93-.78,1.4a12.23,12.23,0,0,0-1.46.65c-.27.44-.51.91-.76,1.35s-.46.91-.69,1.36-.79.3-.35,1c.07.12-.21.3,1.13,1.18l.63.4,1.12.68c.69.4.91.49,1,.46.24-.19.23-.56.37-.83s.52-.59.8-.86.4-.69.64-1a10.84,10.84,0,0,1,1.27-.36,10.06,10.06,0,0,1,1.43-.06q.33-.46.7-.92a10.21,10.21,0,0,1,1.35,0c.24-.29.5-.58.76-.86s.63-.38.94-.58.77-.08,1.14-.11l.7-1.33c.45.17.88.32,1.31.53s.79.23,1.17.4c.3-.27.61-.56.93-.82.4.32.77.64,1.16,1l1.16-.18,1.3-.37q.7.63,1.51,1.26c.51-.38,1-.78,1.53-1.21s1-.78,1.54-1.21a13.41,13.41,0,0,0,2.25,1.17,16,16,0,0,0,2.06-.52,12.57,12.57,0,0,0,.76-2.66,19,19,0,0,0,2.75.49,12.55,12.55,0,0,0,.32-2.41c.49-.35.93-.73,1.38-1.12a13,13,0,0,0,1.29-1.19c.68-.23,1.37-.49,2-.77.38-.46.73-.93,1.08-1.4a24.39,24.39,0,0,0-1.15-2.34c.14-.52.27-1,.38-1.51,1-.15,2.09-.33,3.14-.51-.51-.71-1.05-1.38-1.6-2l.62-1.26,2.38-.69-1.22-1.68L803.66,50c1-.1,2-.16,3-.18-.63-.6-1.25-1.22-1.86-1.86a14.64,14.64,0,0,1,1.94-.27q-.43-.72-.84-1.52c.78,0,1.55.11,2.29.22a23.29,23.29,0,0,1-1.5-2.17,16.06,16.06,0,0,1,1.83.1,16.69,16.69,0,0,1-.43-1.69c.75.19,1.46.4,2.17.66q-.16-.82-.27-1.71c.19-.3.42-.56.63-.86a24.45,24.45,0,0,1,2.24,1.3,8.24,8.24,0,0,1,.7-.6c.18-.28.35-.6.55-.89q-.18-1.25-.26-2.58l1.09-.18a20.33,20.33,0,0,1,1.65,1.38,7.43,7.43,0,0,1,1,.07,26.12,26.12,0,0,1,.22-2.75c.51.55,1,1.09,1.41,1.65q.31-.85.7-1.72c.38.22.74.5,1.08.74a8.68,8.68,0,0,1,1-.87l1.15-.07,1.25.16c.43.5.87,1,1.34,1.51l1.5.26c.53,0,1.07,0,1.65-.09.53-.72,1-1.44,1.52-2.19a15.19,15.19,0,0,0,2,.61,15,15,0,0,0,2.43,1.13,19.79,19.79,0,0,0,1.91-1.16,19.4,19.4,0,0,0,1.53-1.89,11.48,11.48,0,0,0,2.41-.85s.16-.79.23-1.58a13.27,13.27,0,0,0,.06-1.54,7.76,7.76,0,0,0,.86-.35c.22-.11.46-.21.68-.34s1.57-.42-5.5-3.72Z" style="fill:#e12729;"/><path d="M840.56,64.17c.8-1.8.05-.77,0-.76l-.57,0h-.57a4.09,4.09,0,0,0-1.4-.79,23.25,23.25,0,0,0-1.17-2.26,14,14,0,0,0-2,.88,19.07,19.07,0,0,0-1.73-1.81,21.81,21.81,0,0,0-1.89,1.45,16,16,0,0,0-2.21-2A13.42,13.42,0,0,0,827.19,60l-1.76.74c-.57.28-1,.61-1.56.93a16.32,16.32,0,0,0-1.79.38A28.93,28.93,0,0,0,822,65q-1.41-.74-2.93-1.36A16.69,16.69,0,0,0,819,66l-.64,1.46-1.6.38q-.49.52-.92,1.05l-1.63.41.11,1.84c-.06.52-.11,1-.13,1.56l-2,.08.29,1.78-1.88.2,1.14,2.28c-.74,0-1.45-.13-2.17-.21l.49,1.63c-.9-.22-1.78-.45-2.66-.69.61.89,1.2,1.78,1.79,2.7l-1.26.35-2.34-.6.79,2-1,.5-1.8-.27q.67,1.33,1.3,2.69c-.32.2-.63.36-.92.52-.47,0-.94-.06-1.39-.1,0,.48,0,.94,0,1.42-.55-.17-1.08-.36-1.59-.55-.25.12-.53.22-.76.36.22.77.4,1.58.55,2.36a21,21,0,0,1-2.06-2c-.07.35-.14.68-.23,1a4.37,4.37,0,0,1-.66-.05,13.1,13.1,0,0,1,0,2,9.56,9.56,0,0,1-.88-1.9,9.7,9.7,0,0,1-.27,1.95,2.62,2.62,0,0,1-.44-.56,5.18,5.18,0,0,1-.12-1.28,4.4,4.4,0,0,1-.72,1.13l-.21-.81a3.33,3.33,0,0,1-.8.11,6.5,6.5,0,0,1-1.16.26c-.34-.07-.68-.13-1-.24l-1-.5c-.19-.4-.36-.79-.58-1.2l-1.19-.56c-.37-.27-.72-.54-1.13-.81a12.89,12.89,0,0,0-.83-1.59c-.54-.16-1.07-.34-1.64-.45a16,16,0,0,0-2.08.94,11.7,11.7,0,0,0-1.45-.46,13.71,13.71,0,0,0-1.48-.27,11.41,11.41,0,0,0-1.44-1.09c-.52,0-1,.07-1.55.11-.5.2-1,.39-1.46.6a15.58,15.58,0,0,0-1.54-.3c-.37.7-.71,1.37-1,2a12.33,12.33,0,0,0-1.45-.1c-.38.32-.74.66-1.08,1a12.53,12.53,0,0,0-1.51-.1c-.36.3-.7.64-1,1s-.66.65-1,1-.83-.13-.59.8c0,.15-.27.18.8,1.72l.51.71.91,1.23c.56.75.75.94.8.93.26-.06.33-.41.51-.6s.59-.3.9-.43.5-.47.77-.69a9.45,9.45,0,0,1,1.16.21,8.78,8.78,0,0,1,1.19.55c.24-.23.5-.43.76-.65a8.13,8.13,0,0,1,1,.58c.25-.21.51-.37.78-.57l.85-.12c.28.14.56.27.81.42.27-.3.59-.7.92-1a6.52,6.52,0,0,1,.64,1.05A4.76,4.76,0,0,1,781,93a7.55,7.55,0,0,1,.92-.42A10.43,10.43,0,0,1,782,94c.24.08.48.16.75.28s.63.14,1,.22v1.72c.5-.1,1-.15,1.59-.23l1.6-.07c0,.72,0,1.47,0,2.24.35.35.7.71,1.12,1.07a23.3,23.3,0,0,0,2.38-1,14.37,14.37,0,0,0,.72,2.65,13.12,13.12,0,0,0,2.24-1.07,13.31,13.31,0,0,0,1.7.54,12.29,12.29,0,0,0,1.77.42,16.9,16.9,0,0,0,2,1.26c.65,0,1.27,0,1.91,0a16.08,16.08,0,0,0,1-2.49c.47-.24.95-.48,1.37-.75.87.69,1.79,1.35,2.75,2a19.32,19.32,0,0,0,.24-2.72c.48-.17.91-.38,1.38-.57.84.35,1.65.63,2.52.92,0-.78,0-1.54,0-2.3s.14-1.27.16-1.9c1,.44,2,.85,3,1.24-.24-.94-.53-1.85-.85-2.74l2.17.33-.25-2,2.53.55q-.55-1.35-1.15-2.68l2.09.08L817.46,87l2.52.34-.47-1.95L820,84.2l2.84.42.51-.94.2-1.14-1.45-2.36.9-.64c.75.14,1.5.31,2.24.49l1-.46q-.75-1.24-1.45-2.55a22.16,22.16,0,0,1,2.18.76q-.3-.91-.56-1.86l1.28.11c0-.42.05-.82.1-1.2l.63-.55.74-.26a7.61,7.61,0,0,1,1.35,1.13,3.43,3.43,0,0,1,.59,0,2.72,2.72,0,0,0,.4-.16,13,13,0,0,1,0-2.27,4.53,4.53,0,0,1,.66,1,9.92,9.92,0,0,1,.4,1.91,3.94,3.94,0,0,1,.33-.29,3,3,0,0,1,.58-.87,8.82,8.82,0,0,1,.14,1.16,6.78,6.78,0,0,1,.59-.86c.35-.49.73-.93.73-.93l0,.56,0,.42c0,.05-.09.35.31-.33s1.32-2.33,3.32-6.16C839.59,66.21,840.22,64.92,840.56,64.17Z" style="fill:#e12729;"/><path d="M530.78,838.74a14.07,14.07,0,0,0-.13-6.24,12.89,12.89,0,0,0-5-4,16.66,16.66,0,0,0-5-3.24,22.51,22.51,0,0,0-2.87-.16l-2.4.06c-1.5-.59-3-1.18-4.44-1.84-1.6.15-3.22.25-4.85.33q-2.21-.92-4.36-1.93c-1.57-.18-3.14-.37-4.71-.63-1.39-.81-2.74-1.68-4.08-2.55-1.55-.3-3.09-.65-4.63-1-1.46-.58-2.91-1.16-4.34-1.8-1.24-1-2.45-2.12-3.62-3.21-1.38-.7-2.74-1.44-4.1-2.19s-2.66-1.43-4-2.23c-1.51-.52-3-1.08-4.58-1.67l-3.84-3c-1.14-1.22-2.34-2.44-3.6-3.64a49.67,49.67,0,0,0-4.5-2.72,34.14,34.14,0,0,0-5.46-.62,29.9,29.9,0,0,0-5-2.07,35,35,0,0,0-5.35.67c-1.71-.07-3.4-.05-5.06,0l-4.73,1c-1.56.2-3.09.37-4.6.45-.75,0-1.5,0-2.24,0l-1.1-.05-.88-.11a29.08,29.08,0,0,1-3.78-2c-1.42-.58-2.91-1.25-4.56-1.87a20.71,20.71,0,0,0-5.76-1.24,10.88,10.88,0,0,0-3.48.94,7,7,0,0,0-1.43.87A8.57,8.57,0,0,0,401,794a18.22,18.22,0,0,0-2.43,1.48l-1.13.82-1,.88a37.84,37.84,0,0,0-4.07,3.52c-1,1.45-1.86,2.92-2.68,4.41s-1.42,3.08-2,4.63c-.93,1.4-1.81,2.82-2.66,4.26,0,0-.31,1.23-.58,2.47l-.52,2.47-.87,1.34-.68,1.07c-.16.25-1.28,1.51,2.67,2.91h0v0l-.14,0a7,7,0,0,0-.82,0c-.52,0-.75.19-.85.4a15.35,15.35,0,0,0-1.15,3.67,30.55,30.55,0,0,0-.91,5,21,21,0,0,0,.37,5.2,17,17,0,0,0,4.33,10,17,17,0,0,0,4.86,2.79,24,24,0,0,0,5.05,1.93,41.19,41.19,0,0,0,5.14.26c1.66.08,3.29.09,4.88.13s3.16.27,4.74.45l4.81-.28,4.73,1,4.75.86,4.85.08,4.77,1.11c1.62.12,3.24.21,4.84.29l4.83.14,4.75,1.11,4.87-.29,4.86-.21,4.74,1.32,4.81.49L473,859l4.73,1.48,4.88-.55,4.81.47,4.8.52L497,862c1.61.16,3.24.32,4.9.43,1.67-.28,3.35-.62,5-1a49.14,49.14,0,0,0,5.05-.46,29.4,29.4,0,0,0,5.54.35,21.25,21.25,0,0,0,4.7-3.34l1.21-.75c.39-.27.74-.6,1.11-.9s.74-.61,1.09-.94l.95-1.09a13.43,13.43,0,0,0,2.08-2.08,14.89,14.89,0,0,0,1.75-2.38l.33-1.42.15-1.41a17.83,17.83,0,0,0,.17-2.75l0-2.66A21.29,21.29,0,0,0,530.78,838.74Z" style="fill:#0b1b30;"/><path d="M62.85,524.42c.63-.2.19-.13.17-.15l-.28-.21-.09-.42.45-.56-.5-.31.37-.54-.54-.3.56-.59-.32-.36-.16-.4-.18-.4,0-.45-.85-.22.73-.64-.67-.27-.31-.36.14-.48-.13-.41.17-.49-.48-.32-.37-.35.34-.54-.49-.31.3-.52-.76-.24.44-.56-.5-.31.62-.61-1-.18.11-.47.52-.58-.67-.27v-.45l.33-.53-.92-.2,0-.44.19-.49-.42-.33.31-.53-.06-.43-.76-.24.73-.64-.33-.36v-.44l-.69-.26.53-.59-.69-.26.08-.46.3-.52-.5-.31.12-.48-.25-.38-.37-.35-.23-.38-.16-.4.11-.47-.18-.4-.08-.42.24-.51-.2-.39-.67-.26-.07-.42-.09-.42.28-.52-.11-.41-.26-.38.15-.48-.81-.23.15-.48-.33-.36.23-.51-.25-.38a3.44,3.44,0,0,0-.26-.37c-.07-.09.21-.27-.25-.25-.07,0,0-.1-.92.13l-.41.12-.72.21c-.44.13-.56.19-.56.21s.13.19.19.29a2.63,2.63,0,0,0,.09.42l.27.37-.15.48-.26.51.34.35-.17.49.35.35.18.4v.45l.54.3-.21.5-.12.47.39.34-.29.52.19.39.26.38-.34.54.52.3.47.32-.47.57,0,.43.8.23-.57.59.66.27,0,.43v.44l-.31.53,0,.44.76.24.18.4-.77.65.79.23,0,.43-.53.59.63.28.5.31L55,511l.85.22-.41.55.55.3-.54.59.87.21-.37.54.55.3-.53.58.55.3.18.39-.64.61.14.41.25.38.85.22v.44l-.5.58,0,.45.93.2-.52.58.61.28-.17.49L58,520l.12.41.06.43-.38.55,0,.44.11.41.78.24-.21.5-.48.57.2.39.39.34-.23.5.72.25-.17.18-.13.15s-.12.09.13.06a21.8,21.8,0,0,0,2.32-.55Z" style="fill:#102b4c;"/><path d="M77.12,515.33c.56-.2.17-.13.15-.14L77,515l-.09-.37.4-.53-.45-.26.33-.51-.51-.24.5-.56-.31-.3-.16-.35-.18-.35,0-.41-.79-.15.65-.61-.62-.21-.3-.31.11-.44-.14-.36.13-.44-.46-.26-.35-.29.29-.5-.46-.26.25-.48-.71-.18.38-.52-.47-.25.54-.57-.92-.11.08-.43.45-.54-.62-.21v-.4l.28-.49-.84-.14,0-.39.15-.45-.4-.28.26-.48L73,501l-.7-.18.63-.6-.31-.3,0-.4-.63-.2.45-.54-.63-.2,0-.42.25-.48-.46-.26.09-.43-.24-.33-.34-.29-.22-.33-.16-.35.08-.43-.18-.35-.09-.37.19-.46-.19-.34-.61-.21-.08-.38-.1-.37.23-.47-.11-.37-.24-.32.12-.44L69,491l.12-.44-.3-.31.21-.47-.23-.33-.22-.33c-.05-.08.23-.26-.21-.22-.07,0,0-.1-.9.18l-.41.13-.71.24c-.43.15-.55.21-.55.23s.16.15.23.23l.13.36.27.32-.11.44-.2.46.32.3-.13.44.32.3.17.35v.4l.5.24-.17.46-.08.43.36.29-.23.48.18.34.25.32-.28.49.48.25.43.26-.39.53,0,.39.72.17-.48.55.6.21.06.38,0,.39-.26.48,0,.39.69.18.18.35-.67.61.72.17.05.38-.46.55.58.22.46.26-.66.61.78.16-.35.51.51.24-.47.55.8.15-.31.5.51.24-.46.55.51.24.18.34-.56.58.14.36.24.33.79.15,0,.39-.44.54v.4l.85.13-.45.55.57.22-.14.45.35.29.13.36.07.38-.33.51,0,.39.12.37.72.17-.17.46-.42.54c.06.11.13.23.21.34l.39.28-.18.46.67.19-.14.17-.11.14s-.11.08.13,0a19.88,19.88,0,0,0,2.07-.59Z" style="fill:#102b4c;"/><path d="M474.37,812.59c-.39-.53-.18-.15-.18-.13l-.06.29-.27.17-.59-.29,0,.51-.55-.22v.55l-.67-.36-.13.37-.23.23-.21.25-.35.08.21.8-.79-.48.1.65-.12.37h-.41l-.23.22h-.43v.5l-.07.41-.54-.14v.5l-.52-.1.21.71-.61-.19,0,.51-.74-.32.38.88-.38.06-.67-.23.16.63-.31.14-.53-.08.35.8-.28.17-.44,0v.45l-.52-.05-.26.2.26.68-.83-.33,0,.39-.29.17.22.62-.69-.18.23.62-.35.13-.52,0,.09.49-.38.1-.1.33v.41l-.1.32-.16.28-.37.11-.14.3-.21.24-.47,0-.12.31.27.59-.21.24-.2.25-.49,0-.18.26-.06.35-.39.12.39.65-.39.12v.38l-.47.08-.06.34-.07.33c0,.08-.34,0,0,.26.05,0-.05.06.76.56l.38.23.67.4a2.59,2.59,0,0,0,.54.29c.07,0,0-.19,0-.28l.15-.26,0-.35.37-.12.46-.06,0-.37.39-.1,0-.38.12-.28.27-.18-.17-.49.44-.06.36-.11,0-.41h.5l.12-.28.06-.33.54,0-.14-.49-.1-.46.63.12.24-.19-.34-.66.71.2-.23-.58.24-.19.27-.17.51,0,.26-.17-.28-.65.15-.27.85.36-.3-.67.25-.17.67.22-.17-.57-.07-.48.83.39-.32-.73.58.15-.1-.53.67.26-.32-.75.55.14-.09-.53.66.27-.08-.53.17-.26.73.37.2-.22.13-.3-.27-.76.29-.12.63.28.32-.08-.3-.83.64.3-.09-.58.41,0,.07-.39.23-.19.27-.14.54.22.29-.1.24-.17-.17-.73.44.09.59.31.18-.25.07-.41.44.12-.11-.68.19.12.15.09s.11.09,0-.14-.46-.76-1.28-2Z" style="fill:#102b4c;"/><path d="M493.16,820c-.41-.54-.18-.17-.18-.15a1.54,1.54,0,0,0,0,.25l-.21.15-.56-.31,0,.49-.51-.23.08.52-.64-.38-.07.34-.18.2-.16.22-.3.05.3.75-.78-.5.19.61-.05.33-.37,0-.18.19-.39,0,.08.47v.38l-.52-.16.1.46-.5-.12.32.67-.6-.22.12.47-.75-.34.52.83-.35,0-.68-.25.27.59-.27.11-.53-.1.5.75-.23.14h-.42l.1.41-.51-.07-.21.17.4.63-.89-.34,0,.35-.25.14.36.57-.73-.19.37.57-.31.1-.52,0,.21.45-.36.08v.3l.1.37,0,.29-.09.25-.34.1-.06.26-.16.21-.47,0,0,.27.42.52-.16.21-.14.22-.5,0-.12.23,0,.31-.38.11.58.57-.37.11.1.33-.48.07,0,.29,0,.29c0,.07-.38,0,.07.23.07,0,0,.05,1,.48l.47.19.83.34c.51.2.66.24.66.24s-.07-.16-.1-.23l.07-.22-.09-.29.35-.1.45,0-.14-.32.37-.08-.14-.32,0-.24.22-.15-.32-.43.42,0,.33-.09-.16-.35h.49l0-.24,0-.28.54.05-.27-.43-.22-.4.66.13.19-.15L487,831l.75.21-.37-.52.19-.15.22-.13.51.07.21-.13-.44-.6.07-.24.9.37-.45-.63.2-.14.69.24-.3-.53-.18-.44.87.4-.47-.68.57.18-.22-.49.68.28-.46-.71.53.16-.2-.49.65.29-.19-.49.1-.22.73.38.13-.19.05-.26-.39-.72.24-.09.61.3.26-.06-.42-.78.62.32-.19-.55.36.06v-.35l.17-.16.21-.11.51.24.23-.08.17-.15-.26-.69.38.11.56.35.13-.2v-.36l.41.17-.19-.65.18.12.13.08s.1.09,0-.14-.5-.76-1.37-2Z" style="fill:#102b4c;"/><path d="M101.58,507.24c.67-.47.2-.28.17-.3l-.36-.35a2,2,0,0,0-.26-.7,10.53,10.53,0,0,1,.38-1l-.77-.45a8.88,8.88,0,0,1,.36-.91l-.78-.49c.22-.33.42-.64.67-.95l-.44-.61-.23-.68-.2-.69.1-.74c-.39-.19-.73-.4-1.09-.61q.56-.43,1.12-.83a10.56,10.56,0,0,1-.81-.69l-.28-.74c.12-.25.22-.5.36-.74l0-.74.44-.71-.43-.79-.27-.8c.24-.22.51-.43.77-.64l-.39-.84c.24-.21.47-.42.73-.61l-.72-1,1-.53-.3-.89,1.23-.38c-.33-.38-.63-.75-.93-1.14l.58-.6c.37-.12.74-.24,1.13-.34l-.41-1,.48-.61.92-.37-.66-1.23c.16-.21.34-.4.5-.59l.77-.41c0-.3,0-.59.05-.89l.94-.28c.17-.19.33-.39.51-.57l-.28-1.19,1.42.15.25-.79.61-.49c0-.38-.07-.75-.09-1.13l1.19.06c0-.38,0-.76,0-1.14l.74-.36,1-.12.21-.93.79-.28.47-.65.37-.79c.16-.22.34-.42.51-.63l.58-.55.81-.24.58-.55.67-.44.92-.06.59-.55.26-1.07.7-.4.69-.42.92,0,.67-.45.59-.59.83-.16.31-1.14c.28,0,.57-.09.84-.15l.59-.64L124,464l.63-.56.64-.56c.15-.13.44,0,.44-.43,0-.07.18-.1-.16-.82l-.16-.33-.31-.57c-.19-.35-.28-.44-.32-.43a1.94,1.94,0,0,0-.56.31l-.8.27c-.25.13-.48.3-.71.46l-.91.07-1,0c-.22.18-.44.39-.65.58l-.93.07-.63.62-.73.45-.83.27-.47.88c-.32,0-.65,0-1,.05l-.89.19-.53.76-1,0-.67.55-.6.65h-1.08l-.37,1-.39.91-1.19-.1-.75.46,0,1.29-1.28-.14-.13,1.15-.7.53-.73.5c-.35.06-.7.13-1,.2l-.71.55c0,.43,0,.84.08,1.27l-.5.72-1.55-.15.21,1.31-.62.63c-.43,0-.85.11-1.28.17l.11,1.17c0,.34,0,.69,0,1.05l-1.54.1c.15.45.29.88.46,1.32l-1.08.43.14,1.09-1.23.41.62,1.27c-.34.17-.66.36-1,.56l.26,1.07c-.39.17-.8.34-1.17.53l.32,1.06-.17.88-1.26.59-.19.9c0,.31,0,.63,0,.94l.88,1.09c-.1.28-.21.57-.28.86l-1,.79-.29.9,1.11,1-.92.87c.22.31.48.62.71.92l-.37.92c.12.3.26.6.41.89l.1.9c0,.3,0,.61,0,.91l-.52,1,0,.95.24.92,1.12.66c-.06.33-.09.66-.13,1l-.45,1.16a8.32,8.32,0,0,0,.48.85l.74.72a10.31,10.31,0,0,0,0,1.07l.6.23.67.17,0,.36v.28c0,.07-.22.56,2.76-1.27C100.81,507.75,101.3,507.43,101.58,507.24Z" style="fill:#102b4c;"/><path d="M398.57,794.18c-.38.74-.07.29,0,.29l.37-.06.36.29c0,.32,0,.6,0,.91l.64-.25c0,.27.07.54.11.8l.67-.34,0,1,.54-.08.45.13.46.08.35.36.79-.77,0,1.24.69-.55.52-.12.32.47.44.11.32.49.58-.36.53-.21.27.71.56-.37.29.65.65-.75.26.81.55-.42.23,1,.68-1.08.38.36.29.89.57-.65.41.22.35.61.6-1,.42.16.39.43.49-.35.38.56.43.1.52-.78.34,1.08.46-.25.43.15.49-.69.39.81.48-.69.42.23.42.51.45-.47.43.29.44-.17.44-.31.43-.15.43-.06.43.25.43-.1.43,0,.44.38.43-.14.41-.68h.43l.43,0,.45.38.43,0,.42-.21.45.22.37-.79a4,4,0,0,0,.44.17l.4-.32.45.21c.14-.08.27-.17.41-.24l.41-.19c.1,0,.22.19.28-.19,0-.06.1,0,0-.76l0-.34-.09-.6c-.06-.36-.09-.47-.11-.48s-.21.05-.31.09h-.42l-.4.13-.44-.26c-.15-.12-.3-.25-.45-.4a3.11,3.11,0,0,0-.4.19l-.43-.28-.39.26-.41.08-.42-.12-.39.48-.43-.36-.42-.26-.4.32-.42-.47-.41.07-.4.17-.41-.53-.4.48-.41.42-.4-.7-.4-.1-.42.82-.39-.84-.43.64-.4-.1-.4-.14-.38-.54-.39-.15-.46.76-.41,0-.31-1.13-.48.8-.39-.14-.31-.86-.47.6-.46.43-.25-1.17-.53.87-.29-.73-.49.5-.25-.92-.56.9-.27-.7-.5.48-.22-.92-.51.47h-.41l-.15-1.07-.39-.06-.42.07-.64.85-.35-.24-.15-.9-.32-.29-.7.92-.11-.93-.59.51-.25-.49-.49.18-.37-.13-.34-.21-.11-.77-.31-.26-.35-.16-.73.67L403,791v-.89l-.39-.05-.52.17a5.53,5.53,0,0,0-.13-.56l-.77.61v-.48s0-.17-.15.1-.61.95-1.52,2.56Z" style="fill:#102b4c;"/></g></g></svg>