<?xml version="1.0" encoding="utf-8"?>
<!-- Generator: Adobe Illustrator 20.1.0, SVG Export Plug-In . SVG Version: 6.00 Build 0)  -->
<svg version="1.1" id="Capa_1" xmlns="http://www.w3.org/2000/svg" xmlns:xlink="http://www.w3.org/1999/xlink" x="0px" y="0px" width="800px" height="600px" viewBox="0 0 800 600" style="enable-background:new 0 0 800 600;" xml:space="preserve">

<path d="M419.9,407.9h-3.1C417.7,408,418.8,408,419.9,407.9z" style="fill:#67444C;"/>
<path d="M407.7,408.2c-0.5-0.2-1.1-0.3-1.7-0.4c-0.1,0-0.3,0.1-0.4,0.1L407.7,408.2z" style="fill:#67444C;"/>
<path d="M393.8,408c-0.2,0-0.3,0-0.5,0C393.4,408,393.6,408,393.8,408z" style="fill:#67444C;"/>
<path d="M420.2,407.9L420.2,407.9c-0.1,0-0.2,0-0.3,0H420.2z" style="fill:#67444C;"/>
<path d="M417,439.4c0.3,0,0.6-0.1,0.8-0.2L417,439.4z" style="fill:#D4D4EA;"/>
<path d="M429.2,438.3c-0.2,0.1-0.5,0.2-0.9,0.3C428.6,438.5,428.9,438.4,429.2,438.3z" style="fill:#D4D4EA;"/>
<polygon points="410.4,440.3 410.4,440.1 409.8,440.3 " style="fill:#D4D4EA;"/>
<path d="M534.2,479.6c0.4,0.4,0.9,0.9,1.5,0.7c-0.6-0.4-0.4-0.6-1.1-1c-0.1-0.4,0.2-0.6,0.4-0.6
	c-0.2-0.1,0.1-0.6-0.4-0.7c-0.4,0.5-0.4,1.1,0,1.7C534.5,479.7,534.3,479.6,534.2,479.6z" style="fill:#EA7B44;"/>
<path d="M535.1,484.7c0-0.1,0-0.3-0.1-0.4C535,484.4,535,484.5,535.1,484.7C535,484.6,535,484.6,535.1,484.7z" style="fill:#EA7B44;"/>
<path d="M532,468.2C532,468.3,532,468.3,532,468.2C532,468.3,532.1,468.3,532,468.2z" style="fill:#EA7B44;"/>
<path d="M534.9,484.8c0,0.1-0.1,0.2-0.1,0.3C534.9,485,534.9,484.9,534.9,484.8z" style="fill:#EA7B44;"/>
<path d="M534.8,484.6c0.1,0.1,0.2,0.2,0.2,0.3c0-0.1,0-0.1,0-0.2C534.9,484.6,534.8,484.5,534.8,484.6z" style="fill:#EA7B44;"/>
<path d="M459.5,489l-0.5-1C459.1,488.2,459.3,488.6,459.5,489z" style="fill:#EA7B44;"/>
<path d="M495.5,426.8l0.4,0.1C495.7,426.8,495.6,426.7,495.5,426.8z" style="fill:#EA7B44;"/>
<path d="M457.6,484.9c0.1-0.3,0.2-0.5,0.2-0.7c-0.1,0-0.1-0.1-0.2-0.1V484.9z" style="fill:#EA7B44;"/>
<path d="M490.4,427.3c0.1-0.1,0.2-0.2,0.3-0.3C490.6,427.1,490.5,427.2,490.4,427.3z" style="fill:#EA7B44;"/>
<path d="M498.4,428.3l-0.1,0.1l0.3,0.1C498.5,428.5,498.4,428.3,498.4,428.3z" style="fill:#EA7B44;"/>
<path d="M459.6,489.1L459.6,489.1c0,0,0-0.1-0.1-0.1L459.6,489.1z" style="fill:#EA7B44;"/>
<path d="M535.8,481.5v-0.2h-0.1L535.8,481.5z" style="fill:#EA7B44;"/>
<path d="M535.7,481.3l-0.1-0.2C535.7,481.2,535.7,481.2,535.7,481.3z" style="fill:#EA7B44;"/>
<path d="M535.5,480.7l0.1,0.4C535.7,480.9,535.7,480.8,535.5,480.7z" style="fill:#EA7B44;"/>
<path d="M533.8,487.4c0.2-0.3,0.8-0.6,0.8-1.1l-0.1-0.1C534.7,486.5,533.7,487,533.8,487.4z" style="fill:#EA7B44;"/>
<path d="M338.9,403.4c-0.1-0.2,0.1-0.3,0.1-0.4c-0.6,0.2-1.5,0.5-1.3,1.2c0.7-0.4,0.8-0.2,1.6-0.7
	c0.5,0.1,0.8,0.4,0.7,0.6c0.2-0.1,0.7,0.3,1.1-0.1C340.6,403.4,339.8,403.2,338.9,403.4z" style="fill:#EA7B44;"/>
<path d="M332.1,401.8c0.2,0.1,0.3,0.1,0.5,0.1C332.4,401.9,332.3,401.8,332.1,401.8L332.1,401.8z" style="fill:#EA7B44;"/>
<path d="M353.5,407.9C353.5,407.8,353.5,407.8,353.5,407.9C353.4,407.8,353.4,407.8,353.5,407.9z" style="fill:#EA7B44;"/>
<path d="M331.9,401.6c-0.1-0.1-0.3-0.2-0.4-0.2C331.6,401.5,331.8,401.5,331.9,401.6z" style="fill:#EA7B44;"/>
<path d="M379.7,410.2c-0.2-0.2-0.3-0.4-0.4-0.5C379.4,410.1,378.1,410.2,379.7,410.2z" style="fill:#EA7B44;"/>
<path d="M331.9,401.6c0.1,0.1,0.2,0.1,0.3,0.1c0.1-0.1,0.1-0.1,0.1-0.2C332.1,401.6,332,401.6,331.9,401.6z" style="fill:#EA7B44;"/>
<path d="M441.4,409c0.1,0,0.2,0,0.3-0.1L441.4,409z" style="fill:#EA7B44;"/>
<path d="M336.8,402.7l0.1,0.1C336.9,402.8,336.8,402.7,336.8,402.7z" style="fill:#EA7B44;"/>
<path d="M446.2,408.6c-0.1,0-0.2,0.1-0.3,0.1C446,408.7,446.1,408.7,446.2,408.6z" style="fill:#EA7B44;"/>
<polygon points="438.9,409.5 438.9,409.4 438.7,409.5 " style="fill:#EA7B44;"/>
<path d="M336.4,403.9C336.4,403.9,336.4,403.8,336.4,403.9l-0.2-0.1L336.4,403.9z" style="fill:#EA7B44;"/>
<path d="M336.4,403.8h0.3C336.6,403.8,336.5,403.8,336.4,403.8z" style="fill:#EA7B44;"/>
<path d="M336.7,403.9c0.2,0.1,0.4,0.2,0.6,0c0,0-0.1,0-0.3,0C336.8,403.9,336.7,403.9,336.7,403.9z" style="fill:#EA7B44;"/>
<g>
	<path d="M524.6,454.2c-0.1,0.2-0.1,0.4-0.3,0.6C524.7,454.4,525.3,455.3,524.6,454.2z" style="fill:#EA7B44;"/>
	<path d="M535.3,483c0-0.8,0-2-0.6-2.3l-0.2,0.4c0-0.3,0.5-0.1,0.6,0.1c0.3,0.7-0.3,0.9-0.5,0.9l-0.1-0.5
		c-0.6,0.2-0.6,0.6-0.5,1.1s0.3,1.2,0.1,1.6l-0.6-0.5c0.6-2.1,0.8-4.4,0.4-6.7V477c0.3,0,0.6,0,0.9,0c-0.1,0.1-0.1,0.2,0,0.3
		l0.7,0.2l-0.3-0.6l0,0c0.4-0.2,0.7-0.5,0.8-1.3c0,0-0.2-0.2-0.4-0.5c-0.2-0.2-0.4-0.5-0.4-0.5l0.3-0.5c0,0,0.1,0.2,0.2,0.4
		c0.1,0.2,0.2,0.5,0.2,0.5c0.3-0.7-0.2-0.9-0.6-1.1c0.2-0.2,0.3-0.4,0.3-0.6c0,0-0.3-0.2-0.6-0.3c-0.3-0.2-0.6-0.3-0.6-0.3
		c0.3-0.3,0.9,0.1,0.7-0.6c-0.6-0.3-0.5,0.8-1.1,0.2c0.1-0.7,0.5-0.7-0.2-1.1c0.2-0.2,0.4-0.2,0.6,0c-0.5-0.3-0.9-1.2-1.5-1.1
		c0-0.4-0.3-0.7-0.5-1c-0.3-0.3-0.4-0.6-0.1-0.9c-0.3,0-1.2-0.2-1.6-0.5c0.7-0.1,0.4-0.4-0.1-0.8c-0.4-0.4-1-0.8-0.6-1.2
		c-0.6,0.2-1.2-0.1-1.8-0.4c-0.2-0.1-0.3-0.1-0.5-0.2c-0.1-0.1-0.1,0-0.1,0h-0.1c-0.1,0-0.2,0-0.4,0.1c0.1,0,0.2-0.1,0.2-0.1
		c-0.1-0.1,0.1-0.3,0.2-0.5l-0.1,0.1c-0.8,0.4-0.9,0.2-1.3,0c0.4-0.3,0.6-0.2,0.9-0.2c0.2,0,0.4,0,0.8-0.1c-0.3,0.1-0.5,0.1-0.6,0
		s-0.3-0.2-0.5-0.2c0.1,0,0.2-0.2,0.3-0.2c0.1-0.1,0.1-0.1,0.1-0.2c0.1-0.1,0.2-0.1,0.5-0.3c-1-0.1-0.1-0.6-0.7-1.1
		c0.4-0.9,0.9-0.3,0.6-1.3c0.3-0.5,0.7,0.4,0.7,0.4c0-1.1-0.7-0.5-1.2-0.6c-0.4-1.2,0.5-0.6,0.8-1.1c-0.3-0.8-1.1-1.2-1.2-1.8
		c0.1-0.1,0.1-0.2,0.3-0.1c-0.4-0.3-0.6-0.9-0.9-1.5c-0.1-0.3-0.3-0.6-0.5-0.8c-0.2-0.2-0.4-0.4-0.7-0.6c0-0.1,0.1-0.2,0.1-0.2
		c-0.2,0.3-0.6,0.5-0.8,0.6c-0.2-0.4-0.8-0.4-0.5-0.8c0.2,0.2,0.3,0.1,0.5,0.2l-0.5-0.3c0.3-0.8,0.6,0.4,1,0.1
		c-0.4-0.4-0.8-0.6-1.2-0.9s-0.8-0.5-1-0.8c0.4-0.6,1.3,1.1,1.1,0c0,0,0.2,0.3,0.3,0.5c0.1,0.3,0.2,0.5,0.2,0.5
		c0.3-1.4,0.4,0.6,0.8-0.7c-0.4-0.7-0.8-1-1.2-1.3s-0.8-0.5-1.3-1.1c-0.5,0.1-0.3,0.5-0.8,0.6c-1.1-0.3-1.2-0.9-1.3-1.4
		s-0.2-1-1.1-0.9c-0.6,0.3-1,1-1.9,0.2l0.6-0.6c-1.4-0.5-1.1,0.8-2.4-0.1c0.3-0.2,1.1,0.1,1-0.1c-0.8-0.9-0.8,0.2-1.5,0.1v-0.7
		c-1.5-0.2-3.1,0.1-4.6,0.1c0.1-0.2,0.4-0.4,0.1-0.6c-1.9,0.1-3.8-0.6-4.9-1.6c0,0-0.2,0.1-0.4,0.2c-0.2,0.1-0.4,0.1-0.4,0.1
		c-0.1-0.1-0.1-0.3,0.1-0.4c-0.4-0.4-0.2,0.3-0.5,0.4c-0.3-0.1-0.2-0.5,0.1-0.6c-0.5,0-1.2-0.2-1.8-0.6c-0.6-0.5-1-1.1-0.9-1.7
		l0.2,0.1c-0.2-0.8-1.5-0.4-1.3-1.4l0.1,0.1c-0.4-1.9-1.2-4.2-0.5-5.9c-0.9-0.3,0.3-2.1-0.9-2.2c0.3-0.6,0.5-0.9,0.6-1.2
		c0-0.1,0.1-0.2,0.1-0.2c0-0.1,0.1-0.2,0.1-0.4c0.1-0.4,0.1-1-0.1-1.8c-0.3-0.8-1.2-0.8-1.8-1.4l0.4-0.4c0,0-0.4-0.1-0.7-0.2
		c-0.3-0.1-0.7-0.1-0.7-0.1s-0.1-1-0.2-1c0,0-0.2-0.1-0.4-0.1c-0.2-0.1-0.4-0.1-0.4-0.1c0.3,0.2,0.6,0.6,0.4,0.7
		c-0.6-0.2-1.3-0.5-2-0.8s-1.3-0.4-1.3-0.6c0,0-0.9,0.2-1.7,0.7c-0.8,0.5-1.3,1.2-1.3,1.2c-0.1-0.2,0.1-0.5,0.3-0.8
		c-0.4,0.5-0.5,0.4-0.6,0.4c-0.1-0.1-0.4-0.2-0.7,0.7c0.2-0.1,0.2,0.3,0.3,0.4c-0.2,0.1-0.4,0.3-0.6,0.5c-0.1,0.2-0.3,0.3-0.4,0.5
		c-0.2,0.4-0.5,0.9-0.6,1.3l-0.3-0.3c-0.8,1.4-1.2,3.1-1.9,4.8c0.4-0.5,1-0.1,0.9,0.4H486c0.3,0.5,0.4-0.4,0.6,0.4
		c-0.3,0.6-0.9,0.2-0.9-0.3c0,0,0,0.2,0,0.4c0,0.2,0,0.4,0,0.4c-0.2,0-0.2-0.2-0.4-0.4c0.3,0.5-1.1,1.1-0.6,1.8h-0.2
		c-0.6,1.7-0.6,2.6-0.9,4c0.5,0.2,0.3,0.7,0.6,1.2c-0.4,1-1.1,2.1-1.2,3.4c0.1,0.9,0.4,0.3,0.7,0.8c-0.5,0-0.6,1.3-0.9,0.6
		c-0.1,0.8-0.1,1.3-0.1,1.8c0,0.4,0,0.3,0.1,0.5c0.1,0.1,0.1,0.3,0.2,0.5c0.2,0.1,0.3,0,0.5,0.1c0.1,0.3-0.2,0.3-0.5,0.1v-0.1
		c0.1,0.2,0.2,0.5,0.1,0.6c-0.5-0.1-1.1-0.5-1.3-0.7h-0.1h-0.2c-0.1,0-0.3-0.1-0.4-0.1c-0.2,0-0.5-0.1-0.7-0.1
		c-0.5,0-0.9,0.1-1.3,0.4l0.1-0.1c0,0-0.5,0.2-0.9,0.4c-0.5,0.2-0.9,0.4-0.9,0.4c-0.9,0.1,0.5-0.5-0.2-0.7c-1,0.6-1.8,0.8-2.6,0.9
		c-0.8,0.2-1.6,0.4-2.3,1c-1-0.4-2.2,0.3-3.1,1.3c-0.5,0.5-0.9,1-1.4,1.5c-0.4,0.5-0.9,0.9-1.4,1.2l0.4,0.1c0,0.6-0.5,0.4-0.8,0.7
		c0.3,0.1,0.6-0.3,0.6,0.1c-0.9,1.7-1.7,3.7-2.1,5.8c-0.2,1.1-0.2,2.2-0.1,3.3v0.2c0,0.1,0,0,0,0.1l0,0c0,0,0,0-0.1,0.1
		c0,0-0.1,0-0.2,0H464c0,0,0.4,0.3,0.6,0.6c0.1,0.1,0.2,0.3,0.2,0.4s0,0.1-0.1,0.1c-0.2,0.1-0.4,0.1-0.6,0.1l0.1-0.8
		c-1.1,1.1-2.4,2.1-3.5,3.3c-1.1,1.2-2.1,2.7-2.3,4.3c-0.1-0.2-0.3-0.3-0.1-0.6c-0.4,0.2-0.6,0.9-0.6,1.4c0,0.6,0.1,1.1,0.3,1.1
		c-0.1,0.5-0.4,0.1-0.6,0.3c-0.2,0.3-0.1,0.8,0,1.2c0.1,0.4,0.2,0.7,0,0.9c-0.1,0.1-0.2-0.2-0.2-0.3c0.2,0.5,0,2.1,0.6,1.6
		c-0.2,1.2,0.6,2.1,0.5,3c0.4,0.2,0.4,0.7,0.5,1.1s0.3,0.8,0.7,0.7c-0.4,0.1-0.4,0.7-0.2,1.2c0.3,0.5,0.8,1.1,1.1,1.3
		c-0.4-0.1,0.1,0.7-0.4,0.7c0.5,0.7,1.1,1.2,1.4,0.8c0,1,0.8,1.4,1.3,1.7c0.6,0.3,1.1,0.6,1,1.4c2.2,1.2,4.2,1.9,6.1,2.5
		c-0.4,0.8-2.1-0.9-2.4,0c0.5,0.1,0.9,0.2,1.4,0.3c0.4,0.1,0.8,0.1,1.2,0.2c0.8,0.1,1.5,0.2,2.4,0.7c0.4,0.3-0.4,0.3-0.6,0.4
		c1.9,0.3,3.5,1.2,5.2,1.1c0,0.1-0.2,0.1-0.4,0.2c0.3,0,0.7,0.3,0.8-0.1h-0.3c-0.4-0.7,1.5-0.9,1.6-1.2c-0.8,1,1.5,0.6,0.4,1.9
		c0.2,0,0.5-0.2,0.5-0.5c0.3,0.1,0.4,0.3,0,0.6c0.6,0,0.8-0.1,1-0.2c0.1-0.1,0.2-0.1,0.3-0.1c0.2,0,0.4,0,0.8,0
		c0,0.2-0.3,0.3-0.5,0.5c0.3-0.1,0.6-0.2,0.9-0.3l0.2-0.1l0.1-0.1c0.1,0,0.1-0.1,0.2-0.1s0.2,0,0.3,0.1c-0.1,0.1-0.1,0.3-0.2,0.2
		h0.1h0.1h0.1c0.2,0,0.4,0.1,0.5,0.1c0.4,0,0.7,0,1,0c0.7,0,1.4,0.1,2.1,0.5c-0.7,0.7,0.5,0.4,0.4,1.2h0.9l-0.3-0.4
		c0.8,0.2,1.6-0.2,2.2,0.2l-0.6,0.2l1.5,0.2l-0.8-0.4c0.8-0.2,0.1-0.9,1.1-0.5c-0.2,0,0.8,0.2,1.1,0.6l0,0c0.4-0.2,0.8-0.4,1.4-0.1
		c0.1,0.3-0.2,0.8-0.2,1c0.5-0.6,1.8,0.1,2.4-0.5c-0.2,0.1-0.2,0.5-0.2,0.6l0.4-0.5c0.3,0.2,0.4,0.3,0.3,0.6c1.1,0.2-0.3-1,1-0.5
		c-0.1,0-0.1,0.1-0.3,0.2c1.3,0.3,2.5-0.2,3.7,0.1c0.3,0.8-1,0.2-0.7,0.8c1.7-0.1,3.6-0.9,5.2-0.7l-0.3-0.1c0.2-1.1,1.2,0.5,2.1-0.1
		c-0.2,0.1-0.2,0.6-0.2,0.5c1.1,0.1,2.3-0.4,4-0.9l-0.2,0.3c0.7,0.2,1.8-0.1,2.5-0.1c0.2-0.3,0.6-0.3,0.3-0.7
		c1.2,0.6,2.3,0.2,3.2-0.3c1-0.5,1.8-1,3-0.7c-0.2,0.1-0.5,0.4-0.3,0.4l1.5-0.8c-0.3-0.4-0.3-0.2-0.8-0.4c0.1-0.3,0.5-0.7,0.9-0.8
		c-0.6,0.6,0.3,0.7,0.7,0.8c-0.1-0.1-0.1-0.3-0.1-0.4c1.1,0.4-0.2-0.9,1.1-0.9v0.2c0.4-0.3,0.6-0.8,1-0.9c0.4,0.4-0.3,0.5-0.1,0.8
		c0.6-0.4,0.7-1.5,1.5-1.4c-0.2,0.3-0.5,0.5-0.7,0.8c0.9,0.2,0.9,0,1.4-0.2h-0.1l1.2-0.4h-0.4c-0.1-1.6,1.3-1.2,1.6-2.7
		c-0.3,1.4,0.2,0.5,0.5,1c0.3-0.1,0.8-0.2,0.8,0c0.1-0.8,1-0.4,1-1.5c0.2,0.1,0.4-0.4,0.7,0c0.4-0.7-0.4-0.1-0.5-0.3
		c0.1-0.6,0.7-1,1.3-1.5c0.3-0.2,0.6-0.5,0.8-0.8s0.4-0.7,0.4-1.2c0.4-1.3,0-1.9,0.1-2.9c0-0.1,0.1-0.2,0.1-0.3
		c0.3-0.1,0.4,0.6,0.4,0.6c0.5-0.5,0.7-1,0.7-1.7c0.1,0.2,0.3,0.1,0.6,0c0.1-0.5-0.6-0.5-0.1-1.1c0.2,0.2,0.5,0.4,0.6,0.7
		c0-0.7-0.2-1.4-0.3-2C535.1,482.1,535.2,482.7,535.3,483z M509.9,448c0.2,0,0.3,0,0.4,0C510.2,448,510.1,448,509.9,448L509.9,448z
		 M508.9,447.9c0,0.2-0.1,0.4-0.2,0.4c0.1-0.1-0.3-0.3-0.5-0.5C508.3,447.8,508.6,447.8,508.9,447.9z M516.5,499.2
		c-0.1-0.1-0.1-0.3-0.1-0.5c0.2,0,0.4-0.1,0.6-0.1C516.9,498.8,516.8,499,516.5,499.2z M531.5,489.3c0,0-0.2,0-0.5-0.1
		c0.1-0.2,0.3-0.4,0.4-0.6C531.5,488.7,531.5,488.9,531.5,489.3z M533.2,484.9c0.1-0.3,0.2-0.5,0.3-0.8c0,0.1,0.1,0.2,0.1,0.3
		c0.1,0.3,0.2,0.6,0.2,0.6C533.6,485,533.4,485,533.2,484.9z" style="fill:#EA7B44;"/>
	<path d="M521.1,498.4c0,0,0.1,0.1,0.2,0.1C521.3,498.4,521.2,498.4,521.1,498.4z" style="fill:#EA7B44;"/>
	<path d="M525.1,496.4l0.6-0.2C525.5,496.3,525.3,496.4,525.1,496.4z" style="fill:#EA7B44;"/>
	<path d="M528.1,494.6c0-0.1-0.1-0.2-0.1-0.2l0,0L528.1,494.6z" style="fill:#EA7B44;"/>
	<path d="M476.1,498.2H476C475.7,498.3,475.9,498.3,476.1,498.2z" style="fill:#EA7B44;"/>
	<path d="M491.7,500.3c-0.2,0.1-0.4,0.1-0.5,0.2C491.4,500.6,491.6,500.6,491.7,500.3z" style="fill:#EA7B44;"/>
	<path d="M491.1,500.5c-0.2-0.1-0.5-0.2-0.7-0.1C490.7,500.5,490.9,500.5,491.1,500.5z" style="fill:#EA7B44;"/>
	<polygon points="498.9,501.9 499.2,501.5 498.5,501.6 	" style="fill:#EA7B44;"/>
	<path d="M521.6,473.7c0.1,0.1,0,0.2,0,0.2c0.2-0.1,0.6-0.4,0.5-0.7c-0.3,0.3-0.4,0.1-0.7,0.5c-0.2,0-0.4-0.1-0.3-0.3
		c-0.1,0.1-0.3,0-0.4,0.2c0.2,0.1,0.3,0.2,0.5,0.2C521.2,473.8,521.4,473.8,521.6,473.7z" style="fill:#DC5D44;"/>
	<path d="M524.5,474.6c-0.1,0-0.1-0.1-0.2-0.1L524.5,474.6L524.5,474.6z" style="fill:#DC5D44;"/>
	<path d="M504.8,474.3c0.1,0.1,0.1,0.2,0.2,0.3C504.9,474.3,505.4,474.3,504.8,474.3z" style="fill:#DC5D44;"/>
	<path d="M524.6,474.7l-0.1-0.1c0,0-0.1,0-0.1,0.1C524.5,474.7,524.5,474.7,524.6,474.7z" style="fill:#DC5D44;"/>
	<path d="M483.5,482.2L483,482C483.1,482.1,483.3,482.1,483.5,482.2z" style="fill:#DC5D44;"/>
	<path d="M481.3,481.7c-0.1-0.1-0.2-0.2-0.3-0.3c0,0-0.1,0-0.1,0.1L481.3,481.7z" style="fill:#DC5D44;"/>
	<path d="M525.9,478.9c0.1-0.2,0.1-0.5,0.1-0.7c0-0.3-0.1-0.5-0.2-0.7c-0.2-0.4-0.4-0.6-0.6-0.8
		c-0.2-0.2-0.3-0.3-0.5-0.5l-0.1-0.1c0.1-0.2,0.4,0,0.4,0c-0.1-0.4-0.3-0.7-0.6-0.9c0.1,0,0.1-0.1,0.1-0.3c-0.2-0.2-0.4,0.1-0.6-0.3
		c0.1,0,0.3-0.1,0.5-0.1c-0.2-0.1-0.4-0.2-0.6-0.3c-0.2-0.1-0.4-0.1-0.6-0.2c0-0.2,0.3-0.1,0.5-0.1c-0.2-0.1-0.5-0.2-0.8-0.3
		c-0.3,0-0.5,0-0.6,0.1l0.2,0.2c-0.2,0,0-0.2,0.1-0.3c0.5-0.1,0.5,0.3,0.4,0.4l-0.3-0.1c0,0.3,0.2,0.4,0.5,0.5s0.6,0.2,0.8,0.4
		c0,0-0.1,0-0.2,0.1c-0.1,0-0.1,0-0.1,0c-0.9-0.8-2.1-1.3-3.6-1.1c0,0,0,0-0.1,0c0-0.2,0-0.3,0-0.5c0,0,0.1,0,0.2,0l0.1-0.3
		l-0.3,0.1l0,0c-0.1-0.2-0.3-0.3-0.6-0.4l-0.5,0.4l-0.2-0.2l0.5-0.1c-0.3-0.2-0.4,0-0.6,0.2c-0.1-0.1-0.2-0.2-0.3-0.2l-0.5,0.5
		c-0.1-0.2,0.2-0.4-0.2-0.4c-0.2,0.2,0.3,0.4-0.1,0.6c-0.3-0.2-0.2-0.3-0.5-0.1c-0.1-0.1,0-0.2,0.1-0.3c-0.3,0.2-0.7,0.2-0.8,0.4
		c-0.3-0.2-0.9,0.2-1-0.3c-0.1,0.1-0.4,0.4-0.7,0.5c0.4-0.6-1,0.1-0.9-0.5c-0.3,0.5-1.2,0.3-1.8,0.6l0.1-0.1c-0.3,0-0.5-0.1-0.7-0.2
		c0,0.4-0.5,0.5-0.8,0.8c-0.5-0.3,0.2-0.5,0.1-0.8c0,0.3-0.7,0.4-0.6,0.6c-0.3-0.2-0.3-0.1-0.5-0.4c0,0.5-0.3,0.1-0.6,0.4
		c-0.5-0.2-0.1-0.5-0.7-0.3c-0.3-0.1,0.2-0.3,0.2-0.3c-0.5,0-0.2,0.4-0.3,0.6c-0.6,0.1-0.3-0.3-0.5-0.4c-0.4,0.1-0.7,0.5-1,0.5
		c0-0.1-0.1-0.1,0-0.2c-0.4,0.3-1.2,0-1.7,0.4l-0.1-0.1c0.1,0.2,0.1,0.4,0.1,0.5c-0.2,0-0.4,0.2-0.5,0c0.1,0,0.2-0.1,0.2-0.2
		l-0.2,0.1c-0.2-0.3,0.3-0.1,0.3-0.4c-0.5,0.1-1.1,0.4-1.4,0.3c-0.1-0.3,0.9-0.1,0.4-0.4l0.6,0.1c-0.4-0.5,0.3,0,0-0.5
		c-0.7-0.1-0.8,0.2-1.6,0c-0.2,0.2,0,0.3-0.1,0.5c-1.1,0.3-0.8-0.9-1.6-0.5c-0.2,0.2-0.3,0.6-0.9,0.4l0.2-0.4
		c-0.7-0.1-0.4,0.5-1.2,0.2c0.1-0.1,0.6-0.1,0.5-0.1c-0.5-0.3-0.4,0.2-0.7,0.2l-0.1-0.3c-0.8,0-1.7,0.2-2.5,0.1
		c0.1-0.1,0.2-0.2,0-0.3c-1.1,0-2.3-0.3-3.3-0.7l-0.4,0.2c-0.1,0-0.1-0.2,0-0.2c-0.4-0.2,0,0.2-0.3,0.3c-0.2,0-0.3-0.2-0.1-0.3
		c-0.7,0.1-2.1,0.2-2.8-0.3l0.2-0.1c-0.6-0.2-0.8,0.5-1.3,0.1h0.1c-1.2-0.4-2.7-0.5-3.5-1.1c-0.3,0.4-1.2-0.5-1.4,0
		c-0.6-0.5-0.4-0.5-1.3-1c-0.3-0.1-0.5,0.2-0.8,0.2l0.1-0.3l-0.5,0.2l-0.1-0.4h-0.3c0.1,0.1,0.2,0.2,0.2,0.3c-0.5,0-1.1-0.6-1-0.7
		l-1.2-0.1c0.1-0.1,0.3-0.1,0.4-0.1c-0.7,0.1,0-0.3-0.6-0.3c0,0.1-0.1,0.2-0.1,0.2c-0.2-0.3-0.8-0.5-1.3-0.6l0.2-0.2
		c-0.8-0.4-1.8-0.5-2.6-0.9c0.3,0.2,0.1,0.5-0.2,0.5V468c-0.2,0.1,0.2,0.2-0.2,0.3c-0.3-0.2-0.1-0.4,0.2-0.5l-0.5-0.1
		c0-0.1,0.1-0.1,0.2-0.2c-0.2,0.1-0.6-0.6-1-0.4V467c-0.9-0.4-1.3-0.5-2.1-0.8c-0.1,0.2-0.4,0.1-0.7,0.2c-0.2-0.2-0.5-0.4-0.8-0.6
		s-0.5-0.4-1-0.5c-0.6-0.1-0.3,0.2-0.6,0.2c0.1-0.3-0.8-0.5-0.3-0.5c-0.6-0.1-0.9-0.1-1.3-0.1c-0.2,0-0.4,0.1-0.6,0.1
		c-0.2,0.1-0.5,0.2-0.8,0.3c0.2,0.1,0.3,0.1,0.3,0.2c-0.2,0.1-0.5,0.1-0.6-0.1v-0.1c-0.6,0.5-1.4,0.8-2.1,1.3
		c-0.4,0.2-0.6,0.6-0.9,0.9c-0.2,0.3-0.3,0.7-0.3,1v-0.1c0,0,0,0.3,0,0.7c0,0.3,0,0.6,0,0.6c-0.1,0.6-0.2-0.4-0.4,0.1
		c0.1,0.4,0.1,0.7,0.2,1c0,0.3,0.1,0.6,0.2,0.8c0.1,0.5,0.4,1,0.8,1.4c0,0.3,0.2,0.6,0.4,0.9c0.3,0.2,0.6,0.5,1,0.7
		c0.6,0.2,1.3,0.5,1.6,0.9v-0.2c0.3-0.1,0.2,0.2,0.4,0.3c0-0.1-0.2-0.3,0-0.3c1,0.4,1.9,0.9,2.9,1.4c0.9,0.5,1.9,1.1,2.8,1.6
		c0.7,0.3,0.7-0.7,1.5,0.1l-0.4,0.2c1.6,0.2,3,1.1,4.6,1.3c-0.1,0-0.1,0.1-0.3,0.1c0.2,0.3,1.1,0.4,1.2,0.2c0.2,0.1,0,0.2,0.1,0.3
		c0.3,0.2,0.9-0.1,1,0.2c0,0-0.1,0-0.2,0c0.2-0.1,0.9,0.3,0.8,0c0.5,0.3,1.1,0.2,1.5,0.5c0.4-0.2,0.9,0.4,1.1,0
		c-0.2,0.4,0.9,0.6,1.3,0.5c-0.2,0.1,0.3,0.2,0.1,0.4c0.4,0.1,0.8,0.1,0.8-0.1c0.6,0.7,1.6-0.1,1.9,0.7c1.3,0,2.4,0.1,3.5,0.2
		c-0.1,0.4-1.2-0.1-1.3,0.3c1.1,0,1.7-0.3,2.7,0c0.3,0.1-0.2,0.2-0.3,0.2c1.1,0,2,0.4,3,0.2c0,0-0.1,0.1-0.2,0.1
		c0.2,0,0.4,0.1,0.4-0.1h-0.2c-0.3-0.3,0.8-0.5,0.8-0.7c-0.4,0.5,0.9,0.3,0.3,0.9c0.1,0,0.3-0.1,0.3-0.2c0.2,0.1,0.2,0.1,0,0.3
		c0.7,0,0.5-0.3,1.1-0.2c0,0.1-0.1,0.1-0.2,0.2c0.3-0.2,0.6-0.3,1.1-0.2c0,0.1,0,0.1-0.1,0.1c0.9,0,1.5-0.4,2.4-0.1
		c-0.3,0.4,0.3,0.2,0.3,0.5l0.5-0.1l-0.2-0.2c0.4,0,0.9-0.2,1.2-0.1l-0.3,0.1h0.8l-0.5-0.2c0.5-0.2,0-0.5,0.6-0.3
		c-0.1,0,0.4,0,0.7,0.2l0,0c0.2-0.1,0.5-0.2,0.8-0.1c0.1,0.1-0.1,0.4,0,0.5c0.2-0.3,1-0.1,1.3-0.4c-0.1,0.1-0.1,0.3-0.1,0.3l0.2-0.3
		c0.2,0.1,0.2,0.1,0.2,0.3c0.6,0-0.2-0.5,0.5-0.3c-0.1,0,0,0.1-0.2,0.1c0.7,0.1,1.4-0.2,2.1-0.1c0.2,0.4-0.6,0.1-0.4,0.4
		c1-0.1,2-0.5,3-0.5h-0.2c0.1-0.5,0.7,0.2,1.2-0.1c-0.1,0-0.1,0.3-0.1,0.2c0.7,0,1.3-0.2,2.3-0.5l-0.1,0.1c0.4,0.1,1,0,1.4,0
		c0.1-0.1,0.3-0.2,0.2-0.3c1.4,0.6,2.4-0.7,3.6-0.2c-0.1,0-0.3,0.2-0.2,0.1c0,0,0.2-0.1,0.5-0.1c0.2-0.1,0.5-0.1,0.5-0.1
		c-0.1-0.2-0.1-0.1-0.4-0.3c0.1-0.2,0.4-0.3,0.6-0.3c-0.4,0.2,0.1,0.4,0.3,0.5c0-0.1,0-0.2,0-0.2c0.6,0.3,0-0.5,0.7-0.3v0.1
		c0.2-0.1,0.4-0.3,0.7-0.3c0.2,0.2-0.2,0.2-0.2,0.4c0.4-0.1,0.7-0.6,1.1-0.4c-0.1,0.1-0.4,0.1-0.5,0.2c0.4,0.2,0.5,0.2,0.7,0.2l0,0
		c0.1,0,0.4,0,0.4,0c-0.1,0-0.2,0-0.3,0c0.2,0,0.6-0.1,0.6-0.1h-0.2c0.2-0.4,0.4-0.5,0.7-0.6c0.2-0.2,0.6-0.2,0.7-0.7
		c-0.2,0.8,0.1,0.3,0.2,0.5c0.2-0.1,0.5-0.2,0.5-0.1c0.1-0.4,0.6-0.4,0.6-1c0.1,0,0.2-0.4,0.4-0.2c0.1-0.5-0.2,0.1-0.3,0
		c0-0.2,0-0.4,0.1-0.6C525.7,479.3,525.8,479.1,525.9,478.9z M524.3,475.3c0,0.1-0.1,0.2-0.2,0.2c-0.1-0.1-0.2-0.3-0.3-0.4
		C524,475.2,524.3,475.3,524.3,475.3z M496.3,474.2c0.1,0,0.2,0,0.3,0C496.5,474.2,496.4,474.2,496.3,474.2L496.3,474.2z
		 M495.7,474.2c0,0.1,0,0.2-0.1,0.2c0.1-0.1-0.2-0.1-0.3-0.2C495.4,474.1,495.6,474.2,495.7,474.2z M517.2,482.8c0-0.1,0-0.2,0-0.2
		c0.1,0,0.2,0,0.3,0C517.4,482.6,517.4,482.7,517.2,482.8z M525.2,478.1c0-0.1,0-0.3,0-0.4c0.1,0,0.2,0.1,0.3,0.2
		C525.4,477.9,525.3,478,525.2,478.1z" style="fill:#DC5D44;"/>
	<polygon points="481.5,470.6 481.4,470.7 481.5,470.7 	" style="fill:#DC5D44;"/>
	<path d="M524.4,481.6c0-0.1,0-0.1,0-0.1l0,0V481.6z" style="fill:#DC5D44;"/>
	<path d="M493.7,483.7C493.6,483.7,493.6,483.7,493.7,483.7C493.4,483.8,493.5,483.8,493.7,483.7z" style="fill:#DC5D44;"/>
	<path d="M502.8,483.8c-0.1,0-0.2,0.1-0.3,0.1C502.7,483.9,502.8,483.9,502.8,483.8z" style="fill:#DC5D44;"/>
	<path d="M483.5,482.2L483.5,482.2L483.5,482.2z" style="fill:#DC5D44;"/>
	<path d="M502.1,483.9c0.2,0.1,0.3,0.1,0.4,0C502.4,483.9,502.2,483.8,502.1,483.9z" style="fill:#DC5D44;"/>
	<path d="M522.7,473.4L522.7,473.4L522.7,473.4L522.7,473.4z" style="fill:#DC5D44;"/>
	<path d="M522.3,473.4h0.3C522.5,473.4,522.4,473.3,522.3,473.4z" style="fill:#DC5D44;"/>
	<path d="M525.2,475.4L525.2,475.4c0.1,0.1,0,0.7,0.3,0.8C525.4,476,525.4,475.6,525.2,475.4z" style="fill:#DC5D44;"/>
	<polygon points="507,484.2 507.2,484 506.8,484 	" style="fill:#DC5D44;"/>
	<path d="M505,453.2c-0.3,0.1-0.2,0-0.6,0.1c-0.1-0.1,0-0.2,0.1-0.3c-0.1,0,0-0.2-0.2-0.1c-0.1,0.3-0.1,0.4,0.2,0.4
		c0,0.1-0.1,0.1-0.2,0.1C504.4,453.5,504.8,453.4,505,453.2z" style="fill:#DC5D44;"/>
	<path d="M505.5,454.3l-0.1-0.1C505.5,454.3,505.5,454.3,505.5,454.3L505.5,454.3z" style="fill:#DC5D44;"/>
	<path d="M497.3,450c0,0.1,0.1,0.2,0.1,0.2C497.4,450,497.6,449.9,497.3,450z" style="fill:#DC5D44;"/>
	<path d="M505.5,454.4L505.5,454.4c-0.1-0.1-0.1,0-0.1,0C505.5,454.4,505.5,454.4,505.5,454.4z" style="fill:#DC5D44;"/>
	<path d="M487.1,459.6c0-0.1,0-0.2-0.1-0.2c0,0,0,0-0.1,0.1L487.1,459.6z" style="fill:#DC5D44;"/>
	<path d="M480.1,448.5c-0.1,0.3,0.1,0.2,0.1,0.4c-0.2-0.2-0.5,0.1-0.5-0.1c-0.3,0.4-0.4,0.5-0.5,1.1c0.1,0,0.2,0,0.3,0
		c0,0.1-0.2,0.2-0.3,0.1l0,0c0,0.4-0.3,0.6-0.6,1c-0.1,0.2-0.3,0.3-0.3,0.5c-0.1,0.2,0,0.4,0.1,0.5l0,0c0,0,0.1,0.2,0.1,0.3
		c0.1,0.1,0.1,0.3,0.1,0.3c0,0.3-0.2-0.2-0.3,0c0.2,0.3,0.2,0.6,0.2,0.8c0,0.2,0,0.5,0.3,0.7c-0.3,0.3-0.1,0.7,0.1,1
		c0.2,0.4,0.6,0.6,0.6,0.9l0.1-0.1c0.2,0,0,0.2,0.1,0.3c0.1-0.1,0-0.2,0.1-0.2c1.1,0.7,1.7,1.4,2.5,2c0.3,0.2,0.6-0.7,0.8-0.2
		l-0.3,0.2c0.8-0.1,1.4,0.6,2.2,0.6c-0.1,0.1-0.1,0.1-0.2,0.1c0.1,0.3,0.5,0.2,0.6,0c0.1,0.1,0,0.2,0,0.3c0.1,0.2,0.5-0.2,0.5,0.1
		l-0.1,0.1c0.1-0.1,0.4,0.2,0.4-0.1c0.2,0.2,0.5,0,0.7,0.3c0.2-0.3,0.4,0.3,0.6-0.1c-0.1,0.4,0.4,0.5,0.6,0.3
		c-0.1,0.1,0.1,0.2,0,0.3c0.2,0,0.4,0,0.4-0.2c0.2,0.6,0.8-0.3,0.8,0.4c0.6-0.1,1.2-0.2,1.7-0.2c-0.1,0.4-0.6,0-0.6,0.4
		c0.5-0.1,0.8-0.5,1.3-0.3c0.1,0.1-0.1,0.2-0.1,0.3c0.5-0.1,0.9,0.1,1.4-0.1l-0.1,0.1c0.1,0,0.2,0.1,0.2-0.1H493
		c-0.1-0.3,0.4-0.6,0.4-0.8c-0.2,0.6,0.4,0.2,0.1,0.9c0.1,0,0.1-0.1,0.1-0.3c0.1,0,0.1,0.1,0,0.3c0.3-0.1,0.2-0.3,0.5-0.3
		c0,0.1-0.1,0.1-0.1,0.3c0.1-0.2,0.3-0.4,0.5-0.3c0,0.1,0,0.1-0.1,0.1c0.4,0,0.7-0.5,1.1-0.4c-0.1,0.4,0.2,0.1,0.2,0.5l0.2-0.1
		l0.1-0.1c0.2,0,0.4-0.3,0.6-0.2l-0.1,0.2l0.4-0.1l-0.2-0.1c0.2-0.2-0.1-0.5,0.2-0.4c-0.1,0,0.2,0,0.3,0.2l0,0
		c0.1-0.1,0.2-0.3,0.3-0.2c0,0.1,0,0.4,0,0.5c0.1-0.3,0.4-0.1,0.5-0.4c0,0.1,0,0.3,0,0.3l0.1-0.3c0.1,0.1,0.1,0.1,0.1,0.3h0.1l0,0
		c0.1,0,0.2,0,0.4,0c0.1,0,0.1,0,0.2,0s0.2,0.1,0.3,0.2l-0.1-0.1c0.3-0.4,0.2,0.4,0.5,0.3c-0.1,0-0.2,0.2-0.2,0.2
		c0.3,0.2,0.7,0.2,1.3,0l-0.1,0.1c0.2,0.1,0.5,0.1,0.8,0.1c0.1-0.1,0.2-0.1,0.1-0.3c0.2,0.2,0.4,0.2,0.5,0.2c0.2,0,0.3-0.2,0.4-0.3
		c0.3-0.2,0.4-0.5,0.8-0.3c-0.1,0-0.1,0.2,0,0.2l0.4-0.4c-0.2-0.2-0.1-0.1-0.3-0.2c0-0.1,0-0.3,0.1-0.4c-0.1,0.3,0.2,0.3,0.4,0.3
		c-0.1,0-0.1-0.1-0.1-0.2c0.5,0.2-0.3-0.4,0.2-0.4l0.1,0.1c0.1-0.1,0-0.3,0.1-0.4c0.2,0.1,0,0.2,0.2,0.3c0.1-0.2-0.1-0.6,0.2-0.6
		c0,0.1-0.1,0.2-0.1,0.3c0.4,0.1,0.3,0,0.4-0.1l0,0l0.3-0.2H505c-0.5-0.6,0.2-0.5-0.1-1c0.3,0.5,0.2,0.2,0.5,0.3
		c0.1,0,0.2-0.1,0.3-0.1c-0.2-0.2,0.3-0.2,0-0.5c0.1,0,0.1-0.2,0.3-0.1c0-0.2-0.2,0-0.3-0.1c-0.1-0.2,0-0.4,0.1-0.5
		c0.1-0.2,0.2-0.4,0-0.7c-0.2-0.4-0.4-0.5-0.7-0.7c0,0,0,0,0-0.1c0.1-0.1,0.3,0.1,0.3,0.1c0.1-0.2,0-0.4-0.1-0.5
		c0.1,0,0.2,0,0.2-0.1c-0.1-0.1-0.3,0-0.3-0.2c0.1,0,0.3,0,0.4,0c-0.2-0.1-0.4-0.2-0.6-0.4c0.1-0.1,0.3,0,0.4,0
		c-0.2-0.2-0.4-0.4-0.6-0.4v0.2c0-0.1,0.2-0.1,0.3-0.1c0.3,0.1,0,0.3-0.1,0.3l-0.1-0.1c-0.5,0.4,0.3,0.4,0.3,0.7h-0.3
		c-0.2-0.5-0.5-1-0.9-1.5l0,0c0.1-0.1,0.3-0.2,0.4-0.3v0.1l0.3-0.2l-0.2-0.1l0,0c0.1-0.1,0.2-0.3,0.2-0.6h-0.4l0.1-0.2l0.2,0.2
		c0-0.3-0.1-0.2-0.3-0.2c0.1-0.1,0.1-0.2,0.1-0.3l-0.5,0.1c0.1-0.2,0.3-0.2,0.2-0.4c-0.2,0.1-0.2,0.4-0.4,0.4c0-0.3,0.1-0.4-0.1-0.3
		c0-0.1,0.1-0.2,0.2-0.2c-0.2,0-0.4-0.2-0.6,0c0-0.3-0.5-0.2-0.3-0.6c-0.1,0.1-0.4,0.2-0.5,0.2c0.4-0.4-0.5-0.2-0.2-0.7
		c-0.3,0.4-0.7,0-1.1,0.2l0.1-0.1c-0.2-0.1-0.2-0.2-0.3-0.3c-0.1,0.4-0.4,0.4-0.5,0.7c-0.2-0.4,0.2-0.4,0.1-0.8
		c0,0.3-0.4,0.3-0.4,0.6c-0.2-0.2-0.1-0.1-0.2-0.5c0,0.5-0.2,0.1-0.3,0.4c-0.2-0.2-0.1-0.5-0.3-0.3c-0.1-0.2,0.1-0.3,0.1-0.3
		c-0.3,0-0.1,0.4-0.2,0.6c-0.3,0.1-0.1-0.3-0.3-0.5c-0.2,0.1-0.3,0.4-0.5,0.4c0-0.1,0-0.1,0-0.2c-0.2,0.3-0.6,0.1-0.8,0.4v-0.1
		c0.1,0.2,0.1,0.4,0.1,0.5c-0.1,0-0.2,0.2-0.2,0c0.1,0,0.1-0.1,0.1-0.2l-0.1,0.1c-0.1-0.3,0.1-0.1,0.1-0.4c-0.2,0.1-0.4,0.4-0.6,0.4
		c-0.1-0.3,0.4-0.1,0.1-0.4l0.3,0.1c-0.2-0.5,0.2,0-0.1-0.5c-0.3-0.1-0.4,0.2-0.7,0.1c-0.1,0.2,0,0.3,0,0.5
		c-0.5,0.4-0.4-0.8-0.7-0.4c-0.1,0.2-0.1,0.7-0.3,0.4l0.1-0.4c-0.3,0-0.2,0.6-0.5,0.3c0.1-0.1,0.2-0.1,0.2-0.2
		c-0.2-0.3-0.1,0.2-0.3,0.2v-0.3c-0.3,0.1-0.7,0.3-1.1,0.3c0-0.1,0.1-0.2,0-0.3c-0.5,0.1-1-0.1-1.4-0.4L492,450c0,0-0.1-0.1,0-0.2
		c-0.2-0.1,0,0.2-0.1,0.3c-0.1,0-0.1-0.2,0-0.3c-0.3,0.2-1,0.4-1.2,0l0.1-0.1c-0.2-0.2-0.4,0.5-0.6,0.2h0.1
		c-0.5-0.3-1.2-0.2-1.4-0.8c-0.2,0.4-0.4-0.4-0.7,0.2c-0.2-0.4-0.1-0.4-0.4-0.8c-0.1-0.1-0.3,0.3-0.5,0.3l0.1-0.3l-0.3,0.2l0.1-0.4
		H487c0,0,0,0.2,0,0.3c-0.3,0-0.4-0.4-0.3-0.6h-0.6c0.1-0.1,0.2-0.1,0.3-0.1c-0.4,0.1,0.1-0.3-0.3-0.2c0,0.1-0.1,0.2-0.1,0.2
		c-0.1-0.2-0.4-0.4-0.7-0.4l0.1-0.2c-0.2-0.1-0.5-0.1-0.8-0.2c-0.1,0-0.3,0-0.4,0h-0.5c0.2,0.1,0.1,0.5,0,0.5l-0.1-0.3
		c-0.1,0.2,0.2,0.1,0,0.4c-0.2,0-0.2-0.4,0-0.5l-0.3,0.1c0-0.1,0-0.1,0-0.3c-0.1,0.2-0.5-0.3-0.6,0.1V447c-0.6,0.1-0.8,0.4-1.3,0.6
		c0.1,0.3-0.1,0.3-0.1,0.5C480.9,448.2,480.4,448.2,480.1,448.5z M498.3,459.4L498.3,459.4l-0.1-0.1
		C498.2,459.2,498.3,459.3,498.3,459.4z M498.2,459.5L498.2,459.5C498.3,459.6,498.3,459.6,498.2,459.5L498.2,459.5z M498.3,458.8
		L498.3,458.8L498.3,458.8L498.3,458.8L498.3,458.8z M502.3,459.8c0-0.1-0.1-0.1-0.1-0.2c0,0,0.1,0,0.1-0.1
		C502.4,459.7,502.4,459.8,502.3,459.8z M505.1,456c0,0-0.1,0-0.2,0c0-0.1,0-0.1,0-0.2C504.9,455.9,505,455.9,505.1,456z
		 M504.8,454.6c0.1,0,0.2,0.1,0.2,0.1c-0.1,0-0.2,0.1-0.3,0.1C504.7,454.7,504.7,454.7,504.8,454.6L504.8,454.6z M493.6,450.5h0.1
		H493.6L493.6,450.5z M493.3,450.5c0,0.1,0,0.2-0.1,0.2c0-0.1-0.1-0.1-0.1-0.2C493.2,450.5,493.3,450.5,493.3,450.5z" style="fill:#DC5D44;"/>
	<path d="M487.4,448.3l-0.1,0.1L487.4,448.3z" style="fill:#DC5D44;"/>
	<path d="M504.5,458.6l0.2-0.1C504.6,458.5,504.5,458.5,504.5,458.6z" style="fill:#DC5D44;"/>
	<path d="M505.1,457.8l-0.1-0.1l0,0L505.1,457.8z" style="fill:#DC5D44;"/>
	<path d="M492.9,460.3L492.9,460.3C492.8,460.4,492.8,460.4,492.9,460.3z" style="fill:#DC5D44;"/>
	<path d="M497.1,459.6c0,0.1-0.1,0.1-0.1,0.1S497.1,459.7,497.1,459.6z" style="fill:#DC5D44;"/>
	<path d="M488.1,459.9L488.1,459.9L488.1,459.9z" style="fill:#DC5D44;"/>
	<path d="M496.8,459.7c0.1,0.1,0.1,0,0.2,0C496.9,459.7,496.8,459.7,496.8,459.7z" style="fill:#DC5D44;"/>
	<path d="M505.2,453.4L505.2,453.4L505.2,453.4L505.2,453.4z" style="fill:#DC5D44;"/>
	<path d="M505,453.3l0.1,0.1C505.1,453.3,505.1,453.3,505,453.3z" style="fill:#DC5D44;"/>
	<path d="M505.7,455.2c0-0.1,0.2-0.3,0.1-0.4h-0.1C505.8,454.8,505.5,455.1,505.7,455.2z" style="fill:#DC5D44;"/>
</g>
<g>
	<path d="M354.3,138.3c0,1.2,0.4,2.5,1.2,3.5c0.7,1,1.7,1.8,2.8,2.3c0.5,0.3,1.1,0.5,1.7,0.6c0.3,0.1,0.6,0.1,0.9,0.1
		h0.8c0.1,0,0.2,0,0.3,0c0,0,0,0,0.1,0.1v0.1c0,0.1,0,0.2-0.1,0.2c0,0,0,0,0,0.1l0,0l0,0l-0.1-0.1l0,0l0,0l0.1,0.1
		c0.1,0.1,0.1,0.1,0.1,0.2c0.1,0.1,0.2,0.2,0.3,0.2c0.2,0.1,0.4,0.2,0.5,0.2c0.3,0.1,0.6,0,0.9,0c0.6-0.1,1-0.1,2,0.8l-1,0.3
		c1.1,0.3,2.3,0.4,3.5,0.3c1.2-0.1,2.4-0.5,3.4-1.3s1.7-1.9,2-3l0.1-0.4v-0.3l0.1-0.5c0-0.4,0.1-0.7,0.1-1.1
		c0.1,0.2,0.3,0.3,0.2,0.5c0.6-0.5,0.6-2.1,0.2-2.2c0.2-0.4,0.4,0,0.6-0.2c0.4-0.5-0.2-1.6,0.4-1.7c0.1,0,0.1,0.2,0.1,0.3
		c-0.1-0.4,0.6-1.7-0.1-1.5c0.6-0.9,0.4-1.9,1-2.6c-0.4-0.7,0.9-1.5,0.1-2c0.8,0.4,1.3-1.3,1.2-2.1c0.2,0.3,0.5-0.4,0.7,0
		c0.3-0.6,0.5-1.3,0-1.4c0.8-0.3,0.9-1,1.1-1.6s0.3-1.1,1.1-1c0.8-2,1.8-3.6,3.2-4.9c0.3,0.4-0.1,0.7-0.5,1c-0.3,0.3-0.6,0.7-0.3,1
		c0.9-1.4,1.3-2.7,2.9-3.4c0.4-0.1,0,0.5-0.1,0.7c1.3-1.2,3-1.5,4.3-2.4c0,0.1-0.1,0.2-0.2,0.3c0.3-0.1,0.7-0.1,0.6-0.5l-0.3,0.2
		c-0.7-0.4,0.8-1.6,0.8-1.9c-0.2,1.3,1.7-0.1,1.2,1.5c0.2-0.1,0.4-0.4,0.3-0.6c0.3,0,0.5,0.1,0.2,0.5c1.1-0.5,0.6-0.8,1.6-1
		c0,0.2-0.2,0.3-0.2,0.6c0.4-0.5,0.9-0.9,1.8-0.9c0,0.1,0.1,0.3-0.2,0.3c1.5-0.3,2.5-1.3,4.3-1c-0.5,0.9,0.6,0.3,0.7,1l0.9-0.3
		l-0.4-0.3c0.8,0,1.5-0.6,2.2-0.4l-0.6,0.3l1.5-0.2l-0.9-0.2c0.8-0.4-0.1-0.9,1-0.8c-0.2,0.1,0.8,0,1.3,0.4l0,0
		c0.4-0.2,0.8-0.5,1.4-0.3c0.2,0.2-0.1,0.8,0,1c0.4-0.6,1.9-0.2,2.4-0.8c-0.2,0.2-0.2,0.5-0.1,0.6l0.3-0.5c0.4,0.2,0.4,0.2,0.4,0.6
		c1.1,0.1-0.3-1,1-0.5c-0.1,0-0.1,0.1-0.3,0.2c1.3,0.3,2.6-0.2,3.8,0.2c0.3,0.8-1.1,0.1-0.7,0.7c1.7,0,3.7-0.4,5.3,0.3l-0.3-0.2
		c0.5-1,1.1,0.9,2,0.7c-0.2,0-0.5,0.4-0.4,0.4c0.9,0.6,2.1,0.6,3.7,1.4l-0.3,0.1c0.4,0.6,1.2,1.2,1.5,1.8c0.4,0,0.6,0.3,0.7-0.1
		c0,1.4,0.7,2,1.4,2.9c0.7,0.8,1.3,1.7,1,2.9c-0.1-0.2-0.4-0.5-0.4-0.3c0,0,0.2,0.4,0.4,0.8c0.2,0.4,0.4,0.8,0.4,0.8
		c0.4-0.3,0.2-0.3,0.4-0.7c0.3,0.1,0.7,0.5,0.8,1c-0.5-0.7-0.7,0.2-0.9,0.6c0.1-0.1,0.3,0,0.4-0.1c-0.6,1.1,1-0.1,0.7,1.3H430
		c0.2,0.4,0.6,0.8,0.7,1.3c-0.5,0.3-0.3-0.4-0.8-0.4c0.2,0.7,1.3,1.2,0.9,1.9c-0.2-0.3-0.3-0.7-0.5-1c-0.5,0.8-0.3,0.9-0.3,1.4v-0.1
		l-0.1,1.2l0.1-0.3c0.8,0.3,0.9,0.8,1.1,1.3c0.1,0.3,0.2,0.6,0.4,0.8c0.2,0.2,0.5,0.5,0.9,0.5c-0.4-0.1-0.6-0.1-0.7-0.1
		s-0.2,0-0.2,0.1s0.1,0.4-0.1,0.6c0.1,0.2,0.2,0.5,0.3,0.7c0.1,0.2,0.2,0.3,0,0.3c0.3,0,0.4,0.1,0.6,0.2c0.2,0.1,0.3,0.2,0.5,0.3
		s0.4,0.2,0.6,0.2c0.2,0.1,0.5,0,0.8-0.1c0,0.2,0.8,0.1,0.7,0.5c1.1-0.2-0.3-0.3-0.2-0.6c0.8-0.3,1.6-0.3,2.5-0.5
		c0.5-0.1,1-0.4,1.2-0.5c0.2-0.2,0.3-0.3,0.4-0.8v-0.1c0.3-0.1,0.6-0.2,1-0.3c0.2-0.1,0.4-0.1,0.7-0.2c0.2,0,0.4-0.1,0.6-0.1
		c0.1,0,0.2,0,0.4,0c0.2,0.3-0.5,0.6-0.5,0.6c0.8,0.3,1.6,0.2,2.2-0.3c-0.1,0.2,0.1,0.3,0.4,0.4c0.6-0.4,0.1-0.8,0.9-1.1
		c0,0.3,0.1,0.7-0.1,1c0.7-0.6,1-1.5,1.2-2.3c0.2,0,0.3,0.2,0.3,0.4s-0.1,0.5-0.1,0.7c0.3-0.5,0.5-1,0.6-1.5s0-1-0.2-1.2l-0.3,0.5
		c0.1-0.3,0.5,0,0.5,0.3c0.1,0.9-0.6,0.9-0.8,0.8c0,0,0-0.1,0.1-0.3c0-0.1,0.1-0.3,0.1-0.3c-0.6,0-0.8,0.4-1,1
		c-0.2,0.5-0.6,1.2-1.1,1.5c0,0,0-0.5,0-0.8c0.5-0.3,1-0.8,1.3-1.3c1.1-1.8,0.9-3.3,0.1-5.2V128c0.3-0.1,0.6-0.2,0.9-0.3
		c0,0.1,0,0.2,0,0.3c0,0,0.2,0,0.4,0c0.2,0,0.4,0,0.4,0s-0.1-0.1-0.2-0.3c-0.1-0.1-0.2-0.3-0.2-0.3l0,0c0.3-0.3,0.5-0.9-0.1-2
		c0,0-0.4-0.2-0.9-0.4c-0.4-0.1-0.8-0.2-0.8-0.2s-0.3-0.6-0.2-0.6l0,0c0,0,0,0,0.1,0c0.1,0.1,0.3,0.1,0.4,0.2
		c0.3,0.2,0.6,0.4,0.6,0.4c-0.2-0.4-0.5-0.6-0.8-0.7c-0.1,0-0.2,0-0.2,0c-0.1,0-0.1,0-0.1,0.1c-0.1,0-0.1,0.1-0.2,0.1
		c0.1-0.2,0.1-0.4,0.2-0.5c-0.1,0.1-0.2,0.2-0.3,0.3c-0.2,0.2-0.4,0.2-0.6,0.2c0.3-0.3,0.7-0.4,0.8-0.7c-0.2,0.1-0.4,0.2-0.5,0.3
		c-0.2,0.1-0.3,0.3-0.5,0.1c0.3-0.5,0.7-0.5,0.3-0.7c0.2-0.1,0.4-0.1,0.5,0c-0.1,0-0.1-0.1-0.2-0.1c-0.1-0.1-0.1-0.3-0.2-0.4
		c-0.1-0.3-0.3-0.5-0.5-0.6c0.4-0.6-0.5-1.7,0.4-1.8c-0.2-0.1-0.8-0.8-1-1.2c1.2,0.7-0.2-1.8,0.9-1.8c-1.1-0.5-0.8-2.2-1.6-3.4
		c0.1,0.1,0.3,0.2,0.2,0.3c0-0.4,0-0.6,0-0.9s0.1-0.4,0.1-0.7c-0.8,0.2-1.3-0.8-2-1.2c0.4-1.1,1,0.1,1.6-0.4
		c-0.6,0.3-1.2-1.2-1.5-0.7c0.2-0.8,0-0.6,0.4-1.2c-0.9,0.3-0.4-0.5-1.2-0.7c-0.1-1.1,0.7-0.7-0.2-1.5c0-0.6,0.8,0.1,0.8,0.1
		c-0.6-1-0.9-0.1-1.4,0c-0.9-1,0.1-0.8,0.1-1.4c-0.7-0.6-1.6-0.6-2-1.1c0.1-0.1,0-0.2,0.2-0.2c-0.5-0.1-1-0.6-1.5-1
		s-1.1-0.8-1.8-0.8c0-0.1,0-0.2,0-0.2c-0.1,0.4-0.3,0.7-0.4,0.9c-0.4-0.2-1,0-0.9-0.5c0.2,0.2,0.4,0,0.6-0.1l-0.5-0.1
		c0-0.8,0.7,0.1,1-0.3c-0.5-0.2-1-0.3-1.5-0.4s-1-0.2-1.3-0.4c0.1-0.7,1.7,0.5,1-0.4c0,0,0.2,0.2,0.5,0.4c0.2,0.2,0.4,0.4,0.4,0.4
		c-0.3-1.4,0.6,0.4,0.4-1c-0.6-0.5-1.1-0.6-1.6-0.7c-0.4-0.1-0.9-0.3-1.6-0.6c-0.5,0.2-0.1,0.6-0.5,0.8c-1.1-0.1-1.4-0.6-1.6-1
		c-0.2-0.5-0.4-0.9-1.3-0.7c-0.5,0.3-0.8,1.2-1.8,0.5l0.5-0.7c-1.4-0.4-1,0.9-2.4,0.2c0.3-0.3,1.2-0.1,1-0.2
		c-0.9-0.7-0.8,0.3-1.5,0.2l-0.1-0.7c-1.5-0.1-3.2,0.3-4.9,0.4c0.1-0.2,0.4-0.4,0-0.6c-2.1,0.3-4.5-0.1-6.5-0.5l-0.7,0.6
		c-0.2,0-0.3-0.3-0.1-0.4c-0.8-0.2,0,0.4-0.4,0.6c-0.4,0.1-0.6-0.3-0.3-0.5c-1.3,0.5-3.8,1.2-5.2,0.6l0.3-0.2
		c-1.1-0.2-1.2,1.2-2.2,0.7l0.2-0.1c-2.4-0.3-5.1,0.2-6.9-0.7c-0.3,0.8-2.4-0.3-2.6,0.8c-1.4-0.5-1-0.8-3.1-1c-0.5,0-0.7,0.8-1.4,1
		l-0.1-0.6c0,0-0.2,0.2-0.4,0.4c-0.2,0.2-0.4,0.4-0.4,0.4l-0.6-0.7l-0.6,0.2c0.3,0,0.6,0.2,0.6,0.4c-0.9,0.4-2.4,0-2.5-0.4
		c0,0-0.6,0.2-1.1,0.5s-1.1,0.5-1.1,0.5c0-0.2,0.2-0.3,0.4-0.5c-0.7,0.5-0.2-0.7-1.2,0.1c0.2,0.1,0,0.4,0,0.5
		c-0.7-0.2-2,0.2-2.8,0.7v-0.5c-1.7,0.5-3.4,1.7-5.2,2.8c0.7-0.2,1,0.5,0.5,0.9l-0.5-0.4c-0.1,0.5,0.6-0.1,0.3,0.7
		c-0.6,0.3-0.8-0.3-0.6-0.8l-0.6,0.7c-0.2-0.1,0-0.3-0.1-0.6c-0.1,0.5-1.7,0.5-1.7,1.3l-0.2-0.1c-1.6,1.3-2.1,2.1-3.1,3.3
		c0.4,0.4-0.1,0.8-0.1,1.4c-0.4,0.4-1,0.8-1.5,1.2c-0.5,0.4-1,0.9-1.4,1.5c-0.3,1,0.2,0.5,0.3,1.1c-0.5-0.2-1.2,1-1.1,0.2
		c-0.4,0.7-0.7,1.2-0.9,1.8c-0.2,0.5-0.5,1.2-0.8,2.2c0.3-0.1,0.5-0.3,0.6-0.1c-0.1,0.4-0.6,0.7-0.8,0.5v-0.1
		c-0.2,1.2-1.1,2.3-1.9,3.3c-0.8,1.1-1.5,2.1-1.4,3.2v-0.1l-0.1,2c-0.4,0.8-0.2-0.6-0.7-0.1c0.1,2.2-1.1,3.1-1.1,4.9
		c-0.9,0.4-1.2,1.5-1.4,2.7c-0.1,0.6-0.2,1.2-0.4,1.8c-0.2,0.6-0.4,0.9-0.8,1.7l0.4-0.1c0.2,0.7-0.3,0.8-0.4,1.4
		C354.1,138.6,354.1,137.9,354.3,138.3z M428.6,123.3c0.1-0.1,0.3-0.2,0.4-0.2c0.1,0.2,0.2,0.4,0.2,0.6
		C429.1,123.7,428.9,123.6,428.6,123.3z M438.7,135.9c0,0-0.1-0.1-0.2-0.1s-0.1-0.1-0.2-0.1c0.2-0.2,0.4-0.4,0.5-0.6
		C438.8,135.3,438.8,135.5,438.7,135.9z M443.6,135.4c-0.2,0.3-0.4,0.5-0.4,0.5c-0.2-0.1-0.3-0.3-0.3-0.5c0.3-0.1,0.6-0.2,0.8-0.3
		C443.7,135.2,443.7,135.3,443.6,135.4z M417.4,99.2c0.2,0,0.4,0,0.5,0C417.7,99.2,417.6,99.2,417.4,99.2L417.4,99.2z M416.2,99.3
		c0.1,0.2,0,0.4-0.2,0.4c0.1-0.1-0.4-0.2-0.6-0.4C415.6,99.2,415.9,99.2,416.2,99.3z" style="fill:#67444C;"/>
	<path d="M229.9,300.8c0-0.5,0.4-0.2,0.6-0.2c-1.1-1.1-2.5-2.6-3-1.3c0.7,0.6,1.1,1,1.4,1.4c0.4,0.4,0.8,0.8,1.7,1.2
		c0.8,1,1.1,2.1,0.7,2.1c0.5,0.2,1.2,1.8,2.2,1.8C232.8,304.1,231.5,302.5,229.9,300.8z" style="fill:#D4D4EA;"/>
	<path d="M234.2,284.7c-0.4,0.1-0.7,0.2-1.1,0.4c0.4-0.1,0.7-0.1,1-0.2C234.1,284.8,234.2,284.8,234.2,284.7z" style="fill:#D4D4EA;"/>
	<path d="M262.3,320c0,0,0-0.1,0.1-0.1C262.2,319.9,262.1,319.9,262.3,320z" style="fill:#D4D4EA;"/>
	<path d="M234.9,284.8c0.3,0,0.7-0.1,1.1-0.1C235.4,284.7,235.1,284.7,234.9,284.8z" style="fill:#D4D4EA;"/>
	<path d="M292.7,376.4c0-0.5,0.1-0.9,0.3-1.2C292.6,375.7,291.1,372.8,292.7,376.4z" style="fill:#D4D4EA;"/>
	<path d="M234.2,285.2c0.1-0.2,0.3-0.4,0.6-0.4c-0.3,0-0.5,0.1-0.7,0.1C234.1,285,234.1,285.1,234.2,285.2z" style="fill:#D4D4EA;"/>
	<path d="M534.1,259.3c-1-0.2-2.3-0.3-3.5-0.3c0,0,0.9,0.1,1.8,0.2C533.2,259.2,534.1,259.3,534.1,259.3z" style="fill:#D4D4EA;"/>
	<path d="M544.7,260c0.6,0.4,1.3,0.6,1.9,0.8c0.2-0.1,0.3-0.1,0.4-0.2L544.7,260z" style="fill:#D4D4EA;"/>
	<path d="M228.2,295.1c0,0,0,0.2,0,0.4C228.3,295.5,228.3,295.3,228.2,295.1z" style="fill:#D4D4EA;"/>
	<path d="M574.1,269.5c0.5,0.6,0.8,0.5,1.1,1.6c0-0.7-0.2-1.6-0.6-2.5c-0.2-0.5-0.4-0.9-0.7-1.4l-0.4-0.7
		c-0.2-0.3-0.4-0.5-0.5-0.8l-0.2-0.2c-0.1-0.1-0.3-0.4-0.5-0.5c-0.3-0.3-0.6-0.5-0.9-0.8c-0.6-0.4-1.3-0.7-1.9-0.9
		c-1.2-0.3-1.9-0.2-1.9,0c-1.4-0.1-1.6-0.1-1.6-0.3v-0.1l1.5,0.1c-0.4-0.2-1-0.4-1.6-0.6c-0.8-0.1-0.8-0.1-1.2-0.1
		c-0.6,0-1.1,0-1.7,0c-1.1,0-2.1,0-2.5-0.4c-0.1-0.1,0.2-0.1,0.5-0.1c-1.7,0-5.5-0.8-4.5,0.1c-3.6-0.8-7-0.5-9.8-1.2
		c-2,0.8-6.1-1-6.8,0.3c0.4-1.3-6.2-1.6-8.6-1c0.8-0.4-2-0.5-1-1c-2.6-0.1-5,0-4.6,0.7c-4.7-1.8-9.7,1-12.3-1.1
		c-7.8,0.6-14.9,1.1-21.8,1.6c0.2-1.4,7.7-0.2,7.4-1.7c-6.6,0.6-10.4,1.9-16.9,1.8c-1.7-0.1,0.9-0.6,1.5-0.9
		c-6.6,0.8-12.7,0.4-18.5,1.5c0-0.1,0.6-0.3,1.2-0.4c-1.1,0.1-2.7,0-2.5,0.6l1.1-0.2c1.9,0.8-4.4,2.1-4.6,2.6c1.8-1.9-5.8,0-2.8-2.5
		c-0.7,0.2-1.7,0.5-1.5,0.9c-1.1,0-1.5-0.3-0.4-0.8c-4.1,0.6-2.6,1.2-6.3,1.5c0-0.3,0.7-0.5,1.1-0.9c-1.8,0.7-3.7,1.4-6.9,1.5
		c0.1-0.2-0.1-0.3,0.4-0.4c-5.2,0.6-8.9,2.3-14.7,2.3c1.6-1.5-2.1-0.2-2.5-1.3l-3.1,0.6l1.3,0.4c-2.8,0.2-5.2,1.3-7.6,1.2l2-0.7
		L414,266l3,0.1c-2.8,0.9,0.4,1.4-3.3,1.4c0.7-0.2-2.8,0.3-4.3-0.2l0,0c-1.3,0.5-2.7,1-4.8,0.9c-0.6-0.3,0.3-1.3-0.1-1.5
		c-1.3,1.1-6.5,0.9-8.1,2.1c0.5-0.3,0.5-0.9,0.3-1l-1.1,0.9c-1.3-0.1-1.5-0.2-1.4-0.7c-3.9,0.3,1.4,1.3-3.3,1.2
		c0.4-0.1,0.2-0.2,0.9-0.4c-4.7,0.2-8.9,1.4-13.1,1.5c-1.4-1,3.7-0.7,2.1-1.5c-6.1,0.9-12.5,2.7-18.5,3.1h1.1
		c-0.6,1.7-4.5-0.3-7.4,0.8c0.7-0.2,0.9-1,0.7-0.8c-4.1,0.2-8.2,1.3-14.3,2.5l0.7-0.5c-2.4-0.1-6.3,0.5-8.9,0.6
		c-0.7,0.5-2.2,0.6-1.2,1.1c-8.2-1.4-15,2.9-22.3,1.7c0.8-0.1,2-0.6,1.3-0.5l-6,1c0.5,0.6,0.8,0.3,2.2,0.7c-0.7,0.5-2.4,1-3.9,1.1
		c2.7-0.7-0.1-1.1-1.3-1.4c0.2,0.2-0.2,0.5,0,0.7c-3.3-0.9-0.4,1.4-4.8,1.1l0.2-0.4c-1.6,0.4-3,1-4.8,1.1c-0.8-0.7,1.7-0.6,1.7-1.2
		c-2.4,0.3-4.6,2-6.9,1.5c1-0.3,2.5-0.5,3.5-0.8c-2.5-0.7-2.7-0.4-4.5-0.4h0.2h-4.2l1.1,0.1c-2.8,2.4-6.2,1-10.1,2.8
		c3.8-1.7,0.6-0.8,0.8-1.8c-1.1-0.1-2.7-0.3-2.3-0.6c-1.9,0.9-3.3-0.2-5.9,1.1c-0.2-0.3-2.1,0.2-1.7-0.6c-2.5,0.5,0.6,0.4,0.5,0.8
		c-3.8,1.4-9.2-0.2-14.7,1.7c-4.4,1-5.4,2-8.9,2.9c-0.4,0-0.9,0.1-1.3,0.1c-0.8-0.4,1.4-1.1,1.4-1.1c-2.5-0.2-4.3,0.1-6.6,0.7
		c0.4-0.3-0.1-0.5-0.8-0.7c-0.9,0.1-1.2,0.4-1.6,0.7c-0.2,0.1-0.4,0.2-0.8,0.3c-0.4,0.1-0.9,0.1-1.6,0.3c0.3-0.5,0.8-1.2,2.1-1.6
		c-1.6,0.2-3,0.9-4,2.1c-0.5,0.6-0.8,1.2-1,2c-0.1,0.7-0.2,1.5-0.3,2.1c-0.3,0.3-0.5-0.1-0.5-0.8c0-0.7,0.1-1.8,0.2-2.3
		c-0.2,0.4-0.4,0.9-0.4,1.4c-0.1,0.5-0.2,1.1-0.3,1.5c0,0.5,0,0.9-0.1,1.3c0,0.4,0,0.8,0.1,1.3c0.2,1.6,0.7,2.9,1.2,3.2
		c0,0,0-0.4,0-0.9c0-0.2,0-0.3,0-0.4c-0.1,0.3-0.7,0-0.8-0.6c-0.4-1.2-0.3-2.1,0-2.7s0.6-0.8,0.8-0.9c0,0,0,0.4,0,0.9
		c0,0.4,0,0.9,0,0.9c0.4-0.4,0.7-1,0.9-1.7c0.1-0.4,0.2-0.8,0.2-1.2c0-0.4,0.2-0.9,0.4-1.3c0.4-0.9,1.2-1.6,2.2-2
		c0.5-0.2,1-0.3,1.5-0.4c0.4-0.1,0.9-0.2,1.3-0.2l-1,1.1c-0.3,0-0.6,0.1-0.8,0.1c-1.5,0.2-3,1-3.4,2.6c-1.8,6.7,1.4,12.8,6.7,16.9
		c0.1,0.1,0.2,0.1,0.3,0.2c-0.4,0.3-0.9,0.5-1.2,0.8c-0.1-0.2-0.3-0.4-0.7-0.7c0,0-0.3,0-0.7,0.1c-0.3,0-0.7,0-0.7,0
		s0.4,0.3,0.9,0.6c0.5,0.3,0.9,0.6,0.9,0.6l0,0c0,0.3,0,0.7,0.3,1.1c0.3,0.6,1,1.4,2.2,2.3c0,0,1,0.3,2,0.5c0.5,0.1,1,0.2,1.4,0.3
		c0.4,0.1,0.6,0.1,0.6,0.1s0.2,0.3,0.5,0.5c0.2,0.3,0.5,0.5,0.5,0.5s-0.2-0.1-0.5-0.2s-0.7-0.2-1.1-0.4c-0.4-0.2-0.8-0.3-1.1-0.4
		s-0.5-0.2-0.5-0.2c1.5,1.4,2.9,1.2,4.3,1.2c0.2,0.4,0.7,0.8,1.4,1.2c0,0,1-0.1,2-0.2s1.9-0.3,1.9-0.3c0.3,0.6-1.8,0.7,0.5,1.5
		c1.8-0.3-1.3-1.5,1.5-1.4c1.6,0.9,1,1.4,3,1.2c0.2,0.4-0.3,0.5-1,0.6c1.8-0.1,4.5,0.7,5.4,0.3c0.3,0.3,0.8,0.6,1.3,0.8
		c0.3,0.1,0.5,0.2,0.8,0.4c0.3,0.1,0.5,0.3,0.8,0.4c0.5,0.2,0.9,0.5,1.2,0.7c0.2,0.3,0.3,0.6,0.1,0.8c0.3,0,1,0.1,1.8,0.4
		c0.4,0.1,0.8,0.3,1.2,0.5c0.4,0.2,0.7,0.4,1,0.7c-0.8-0.1-0.9,0-0.7,0.4c0.2,0.3,0.8,0.8,1.3,1.4s1.2,1.2,1.5,1.8
		c0.3,0.6,0.4,1-0.1,1.1c0.6,0.2,1.2,0.5,1.8,1.1c0.6,0.6,1.2,1.4,1.8,2.2c0.6,0.9,1.2,1.8,1.7,2.7c0.5,0.9,1.1,1.8,1.7,2.6
		c-0.2-0.1-0.6-0.4-0.7-0.7c0.8,2,0.7,2.7,1,4c1.2-0.2,2.8,2.7,4.1,4.2c0,2.9-1.9-1-2.6,0.2c0.8-0.5,2.6,3.9,3,2.8
		c0.1,2.2,0.3,1.8-0.2,3.1c1.5-0.2,0.9,1.7,2.4,3c0.5,3.1-1,1.3,0.7,4.2c0.1,0.8-0.3,0.6-0.6,0.2c-0.4-0.4-0.8-1.1-0.8-1.1
		c1.3,3.2,1.6,1,2.5,1.4c1.9,3.6,0,2,0,3.5c1.3,2.2,3,3.5,3.7,5.3c-0.1,0.2,0,0.6-0.4,0.3c1.9,2.1,3.2,7.2,5.4,9.6
		c0,0.2,0,0.4-0.1,0.5c0.3-0.7,0.8-1,1.2-1c0.6,1.4,1.8,2.3,1.3,3.1c-0.3-0.9-0.6-0.8-1-1.1l0.9,1.3c-0.4,1.7-1.2-1.8-1.9-1.5
		c1.5,2.7,3.7,5.6,4.4,7.9c-0.7,0.9-2.5-4.9-2.1-1.7l-1.1-3.5c-0.4,3.2-0.8-2.1-1.3,1c1.6,4.5,2.6,4.7,4.2,9.2
		c0.9,0.8,0.6-0.7,1.6,0.1c3.6,5.8-0.2,5.9,3,10c1.1,0.9,2.5,0.9,3.3,4.4l-1.5-0.7c1.7,4.3,2.6,1.8,3.8,6.5
		c-0.8-0.6-1.8-3.2-1.6-2.5c0.4,3.2,1.5,1.8,2.4,4l-0.8,0.8c1.9,4.4,4.3,9.5,7.2,14.5c-0.4-0.1-1.2-0.9-0.8,0.5
		c1,1.6,2.1,3.2,3.3,4.9c0.3,0.4,0.6,0.8,1,1.2l0.5,0.6c0.2,0.2,0.4,0.4,0.6,0.6c0.4,0.4,0.8,0.8,1.2,1.2c0.4,0.4,0.9,0.7,1.3,1
		c3.7,2.6,7.9,3.7,11.4,4.4c0,0,0.7-0.1,1.4-0.3c0.7-0.2,1.4-0.3,1.4-0.3c0.6,0.1,1.1,0.5,0.4,0.6c2.6,0.5,0.2-0.5,1.5-0.8
		c1.5,0,1.9,0.6,1,0.8c0.6-0.1,1.2-0.1,1.9-0.2c0.7-0.1,1.4-0.1,2.1-0.1c1.5-0.1,3.2-0.1,4.8-0.1c3.3,0,6.7,0.2,9.1,0.8l-1,0.2
		c3.8,0.5,4.3-1.7,7.8-0.7l-0.7,0.1c8.2,0.6,17.3-0.3,23.6,0.9c1.2-1.3,8.2,0.3,8.6-1.5c4.7,0.6,3.4,1.1,10,1.2
		c1.8,0,2.6-1.3,4.7-1.6l0.1,0.9l2.9-1.2l1.7,1l2-0.4c-0.8,0-1.8-0.2-1.7-0.5c3.1-0.7,7.8-0.1,7.9,0.3c0,0,1.9-0.4,3.7-0.8
		c0.9-0.2,1.9-0.4,2.6-0.6s1.2-0.3,1.2-0.3c-0.1,0.3-0.7,0.5-1.5,0.7c2.5-0.7,0.3,1.1,3.6-0.2c-0.5-0.1,0.2-0.6,0.3-0.8
		c1,0.2,2.5,0.1,4.1-0.1c1.7-0.2,3.5-0.5,5-0.9l-0.5,0.7c5.6-0.7,11.6-2.2,17.9-3.4c-2.3,0.1-2-1-0.2-1.5l0.9,0.8
		c1.1-0.8-2,0,0.3-1.2c2.4-0.4,1.8,0.7,0.5,1.3c0,0,0.7-0.2,1.4-0.5c0.7-0.3,1.4-0.5,1.4-0.5c0.2,0.2-0.4,0.6-0.5,1
		c0.5-0.4,1.8-0.5,3.2-0.7c1.4-0.2,2.8-0.5,3.5-1.3l0.3,0.2c3.2-1.1,5.5-2.3,7.5-3.5s3.9-2.6,6-4.4c-0.5-0.7,1.3-2,2-3.6
		c3-2.6,6.2-5.8,8.7-9.8c1.4-3-0.1-1.2,0.2-2.7c0.8,0.2,3-3.8,2.3-1.5c2.6-4.8,3.4-6.1,6.1-12.5c-0.6,0.5-1.2,1.2-1.2,0.7
		c0.5-1.2,1.6-2.3,1.9-2l-0.1,0.3c2.7-7.3,10.2-14.8,11.5-21l-0.1,0.3l2-6.1c1.4-2.6-0.2,1.8,1.1,0.1c1.8-6.7,4.8-9.7,6.3-15.3
		c3.8-3.1,6.2-14.3,9.9-19.1l-0.6,0.1c0.1-1.6,1-1.6,1.6-2.6c-0.4,0-1.1,1.3-1,0.3c1.2-3,2.3-6.1,3.6-9.1c1.3-3.1,2.7-6.1,4.1-9.2
		c0.7-1.5,1.4-2.8,2.1-3.9c0.7-1,1.5-1.8,2.3-2.2c0.4-0.3,0.9-0.4,1.4-0.6l0.8-0.2l1.2-0.3c1.6-0.4,3.2-0.8,4.9-1.3
		c2.4-0.7,2.9-1.7,3.6-2.5c0.6-0.9,1.4-1.5,4.7-2.6c0,0-0.3,0.5-0.6,0.9s-0.6,0.9-0.6,0.9c2.3-1.5,4.7-3.2,6.7-5.3
		c2-2.1,3.9-4.4,5.2-7.1c0.7-1.3,1.1-2.7,1.6-4.2c0.3-1.4,0.6-2.9,0.6-4.4C576.2,275.2,575.5,272.1,574.1,269.5z M319.8,277.5
		c0.1,0.2,0.2,0.5,0.2,0.7c-0.7,0.1-1.5,0.2-2.2,0.2C317.8,278.1,318.4,277.8,319.8,277.5z M253.8,284.5l1,0.6
		c-0.9,0.1-1.7,0.2-2.6,0.3C252.4,285.2,252.8,284.9,253.8,284.5z M234.1,287.3l2.5-1.1c0.4,0.2,0.8,0.4,0.7,0.7
		C236.2,287.1,235.2,287.2,234.1,287.3z M315.2,425.8c-0.4-0.6-0.6-1.2-0.8-1.5C314.6,424.7,314.8,425.1,315.2,425.8L315.2,425.8z
		 M318.3,430.6c-0.3-0.4-0.7-0.9-1-1.3c0.1-0.4,0.5-0.3,0.9,0.3c-0.4-0.2,0.4,1.2,1,2.2C318.9,431.4,318.6,431,318.3,430.6z" style="fill:#D4D4EA;"/>
	<path d="M443.7,262.7c0.1,0,0.2,0,0.3,0C443.9,262.7,443.8,262.7,443.7,262.7z" style="fill:#D4D4EA;"/>
	<path d="M561.3,261.8c-0.1,0-0.3,0-0.4,0C561,261.8,561.2,261.8,561.3,261.8z" style="fill:#D4D4EA;"/>
	<path d="M303.1,278.3c-0.1-0.1-0.2-0.1-0.5-0.2C302.6,278.2,302.8,278.3,303.1,278.3z" style="fill:#D4D4EA;"/>
	<path d="M287.5,279.8l-2.2-0.1C286.2,279.8,286.9,279.8,287.5,279.8z" style="fill:#D4D4EA;"/>
	<path d="M275.5,280.6c-0.1,0.2-0.2,0.3-0.2,0.4l0,0L275.5,280.6z" style="fill:#D4D4EA;"/>
	<path d="M466.1,260.4c0.2,0,0.3,0,0.5-0.1C467.7,260.1,466.9,260.2,466.1,260.4z" style="fill:#D4D4EA;"/>
	<path d="M409.4,267.3c0.6-0.2,1.2-0.4,1.8-0.6C410.2,266.7,409.4,266.8,409.4,267.3z" style="fill:#D4D4EA;"/>
	<path d="M530.2,258.9L530.2,258.9c0.1,0,0.3,0,0.4,0H530.2z" style="fill:#D4D4EA;"/>
	<path d="M411.2,266.7c0.8,0,1.8,0,2.6-0.2C412.8,266.4,412,266.5,411.2,266.7z" style="fill:#D4D4EA;"/>
	<path d="M226.3,294.7v0.7c0.1,0,0.1,0,0.1,0.1c0,0-0.1-0.2-0.1-0.4C226.4,294.9,226.3,294.7,226.3,294.7z" style="fill:#D4D4EA;"/>
	<path d="M226.7,296.2c0-0.3-0.1-0.6-0.2-0.7L226.7,296.2z" style="fill:#D4D4EA;"/>
	<path d="M227.2,297.7l-0.5-1.5C226.8,296.7,226.9,297.4,227.2,297.7z" style="fill:#D4D4EA;"/>
	<path d="M239.4,284.5l0.1-0.3C239.5,284.2,239.4,284.3,239.4,284.5z" style="fill:#D4D4EA;"/>
	<path d="M244.2,283.9c-1.2,0.1-3-0.3-4.5,0l-0.1,0.3C240.3,283.6,243.2,284.5,244.2,283.9z" style="fill:#D4D4EA;"/>
	<polygon points="383,268.8 382.3,269.5 384.7,269.1 	" style="fill:#D4D4EA;"/>
	<path d="M574.9,262.6c0,0.5-0.4,0.2-0.6,0.2c1.2,1.1,2.5,2.7,3,1.3c-0.8-0.6-1.1-1.1-1.5-1.5s-0.8-0.8-1.7-1.2
		c-0.8-1-1.1-2.1-0.7-2.1c-0.5-0.2-1.2-1.8-2.2-1.8C571.9,259.3,573.2,260.9,574.9,262.6z" style="fill:#B2D479;"/>
	<path d="M570.3,278.7c0.4-0.1,0.8-0.2,1.1-0.4c-0.4,0.1-0.7,0.2-1,0.2C570.3,278.6,570.3,278.6,570.3,278.7z" style="fill:#B2D479;"/>
	<path d="M541.8,243.5c0,0,0,0.1-0.1,0.1C541.9,243.6,542,243.6,541.8,243.5z" style="fill:#B2D479;"/>
	<path d="M569.6,278.7c-0.4,0-0.7,0.1-1.1,0.1C569,278.8,569.4,278.7,569.6,278.7z" style="fill:#B2D479;"/>
	<path d="M510.5,186.5c0,0.5-0.1,0.9-0.3,1.3C510.6,187.2,512.1,190.1,510.5,186.5z" style="fill:#B2D479;"/>
	<path d="M570.2,278.2c-0.1,0.2-0.3,0.3-0.6,0.4c0.3,0,0.5-0.1,0.7-0.1C570.4,278.4,570.4,278.3,570.2,278.2z" style="fill:#B2D479;"/>
	<path d="M269.6,304.6l-3.6-0.3C267,304.4,268.3,304.5,269.6,304.6z" style="fill:#B2D479;"/>
	<path d="M383.3,124c-0.3,0-0.6,0.1-0.8,0.2L383.3,124z" style="fill:#B2D479;"/>
	<path d="M255.3,303.6c-0.6-0.4-1.3-0.6-2-0.8c-0.2,0.1-0.3,0.1-0.4,0.2L255.3,303.6z" style="fill:#B2D479;"/>
	<path d="M357.7,300.6c-0.1,0-0.2,0-0.3,0C357.5,300.6,357.6,300.6,357.7,300.6z" style="fill:#B2D479;"/>
	<path d="M576.6,266.6c0,0,0,0.4,0,0.9c0,0.2,0,0.3,0,0.4c0.1-0.3,0.7,0,0.8,0.6c0.4,1.2,0.3,2.1,0,2.7
		s-0.6,0.8-0.8,0.9c0,0,0-0.4,0-0.9c0-0.2,0-0.4,0-0.6s0-0.3,0-0.3c-0.4,0.4-0.7,1-0.9,1.8c-0.3,0.7-0.2,1.7-0.7,2.5
		c-0.5,0.9-1.4,1.6-2.4,1.9c-0.3,0.1-0.5,0.2-0.8,0.2c-0.2,0.1-0.5,0.1-0.7,0.2c-0.4,0.1-0.9,0.2-1.3,0.2l1-1.1
		c0.4,0,0.7-0.1,1.1-0.1c1.6-0.2,3-1,3.4-2.6c1.8-6.7-1.4-12.8-6.9-16.9c-0.1-0.1-0.2-0.1-0.3-0.2c0.4-0.3,0.9-0.5,1.2-0.8
		c0.1,0.2,0.3,0.4,0.7,0.7c0,0,0.3,0,0.7-0.1c0.3,0,0.7,0,0.7,0s-0.4-0.3-0.9-0.6s-0.9-0.6-0.9-0.6l0,0c0-0.3-0.1-0.7-0.3-1.1
		c-0.4-0.6-1-1.4-2.3-2.3c0,0-1-0.3-2-0.5c-0.5-0.1-1-0.2-1.4-0.2c-0.4-0.1-0.6-0.1-0.6-0.1s-0.2-0.3-0.5-0.5
		c-0.3-0.3-0.5-0.5-0.5-0.5s0.2,0.1,0.5,0.2c0.3,0.1,0.7,0.2,1.1,0.4c0.4,0.1,0.8,0.3,1.1,0.4c0.3,0.1,0.5,0.2,0.5,0.2
		c-1.6-1.4-3-1.2-4.3-1.2c-0.2-0.4-0.7-0.8-1.4-1.2c0,0-1,0.1-2,0.2c-1,0.1-1.9,0.3-1.9,0.3c-0.3-0.6,1.8-0.7-0.5-1.5
		c-1.8,0.3,1.4,1.5-1.5,1.4c-1.6-0.9-1-1.4-3.1-1.2c-0.2-0.4,0.2-0.5,1.1-0.6c-1.8,0.1-4.6-0.7-5.5-0.3c-0.7-0.6-2-0.9-3-1.5
		c-0.5-0.2-1-0.5-1.2-0.7c-0.3-0.2-0.3-0.5-0.1-0.8c-0.3,0-1-0.1-1.8-0.4c-0.2-0.1-0.4-0.1-0.6-0.2l-0.6-0.3
		c-0.4-0.2-0.8-0.4-1.1-0.7c0.8,0.1,0.9,0,0.7-0.4c-0.2-0.3-0.8-0.8-1.4-1.4c-0.6-0.6-1.2-1.2-1.5-1.8s-0.4-1,0.1-1.1
		c-0.6-0.2-1.2-0.5-1.8-1.1s-1.2-1.4-1.8-2.2c-0.6-0.9-1.2-1.8-1.8-2.7s-1.2-1.8-1.8-2.6c0.2,0.1,0.6,0.4,0.7,0.7
		c-0.9-2-0.8-2.7-1.1-4.1c-1.2,0.3-2.8-2.8-4.2-4.2c0-2.9,1.9,1,2.6-0.2c-0.8,0.5-2.7-4-3.1-2.8c-0.1-2.2-0.4-1.8,0.1-3.2
		c-1.5,0.2-1-1.7-2.5-3c-0.5-3.1,1-1.3-0.8-4.2c-0.1-0.8,0.2-0.6,0.6-0.2c0.4,0.4,0.8,1.1,0.8,1.1c-1.4-3.2-1.6-1-2.5-1.5
		c-1.9-3.6,0-2.1-0.1-3.5c-1.3-2.2-3-3.6-3.7-5.3c0.1-0.2,0-0.6,0.4-0.3c-1.9-2.1-3.3-7.3-5.5-9.7c0-0.3,0-0.4,0.1-0.5
		c-0.3,0.7-0.8,1-1.2,1.1c-0.6-1.4-1.8-2.3-1.4-3.1c0.4,0.9,0.7,0.8,1,1.1l-0.9-1.3c0.4-1.7,1.2,1.9,1.9,1.5c-1.6-2.7-3.8-5.7-4.5-8
		c0.7-0.9,2.6,5,2.1,1.7l1.1,3.5c0.3-3.2,0.8,2.1,1.3-1c-1.7-4.6-2.7-4.8-4.4-9.3c-1-0.8-0.6,0.7-1.6-0.1c-3.7-5.9,0.1-6-3.1-10.1
		c-1.2-0.9-2.5-0.9-3.4-4.4l1.6,0.7c-1.8-4.3-2.6-1.8-3.9-6.6c0.7,0.6,1.8,3.2,1.7,2.5c-0.5-3.3-1.5-1.8-2.4-4l0.8-0.8
		c-2-4.5-4.4-9.6-7.5-14.7c0.4,0.1,1.2,0.9,0.8-0.5c-1.1-1.6-2.3-3.2-3.7-4.8c-0.7-0.8-1.5-1.6-2.4-2.3s-1.8-1.4-2.8-1.9
		c-3.9-2.3-8.1-3.1-11.6-3.8c0,0-0.7,0.2-1.4,0.3c-0.7,0.2-1.4,0.4-1.4,0.4c-0.6,0-1.1-0.5-0.4-0.6c-2.6-0.5-0.2,0.5-1.5,0.8
		c-1.5,0-1.9-0.6-1-0.8c-2.2,0.2-5.7,0.4-9,0.4c-3.4,0-6.8-0.2-9.2-0.7l1-0.2c-3.8-0.5-4.4,1.7-7.9,0.7l0.7-0.1
		c-8.3-0.6-17.5,0.3-23.9-0.8c-1.2,1.3-8.3-0.3-8.7,1.5c-4.8-0.6-3.4-1.1-10.2-1.2c-1.8,0-2.6,1.3-4.8,1.6l-0.1-0.9l-2.9,1.2l-1.7-1
		l-2,0.4c0.8,0,1.8,0.2,1.7,0.5c-3.2,0.7-7.9,0.1-8.1-0.3c0,0-1.9,0.4-3.8,0.8s-3.8,0.8-3.8,0.8c0.1-0.3,0.7-0.5,1.4-0.7
		c-2.5,0.7-0.3-1.1-3.6,0.2c0.5,0.1-0.2,0.6-0.3,0.8c-1.9-0.3-6.2,0.3-9.2,1l0.5-0.7c-2.8,0.3-5.8,0.9-8.8,1.5
		c-3,0.6-6.1,1.3-9.3,1.9c2.3-0.2,2,1,0.2,1.5l-0.9-0.8c-1.1,0.8,2,0-0.3,1.2c-2.4,0.4-1.8-0.7-0.5-1.3c0,0-0.7,0.2-1.4,0.5
		c-0.7,0.3-1.4,0.5-1.4,0.5c-0.2-0.2,0.4-0.6,0.5-1c-0.5,0.4-1.9,0.5-3.2,0.7c-1.4,0.2-2.9,0.5-3.6,1.3l-0.3-0.2
		c-3.2,1.1-5.5,2.3-7.6,3.5c-2,1.3-3.9,2.6-6.1,4.5c0.4,0.7-1.3,2-2,3.7c-3,2.7-6.3,5.8-8.8,9.9c-1.4,3,0.1,1.2-0.3,2.7
		c-0.8-0.2-3.1,3.8-2.3,1.5c-2.7,4.8-3.5,6.2-6.3,12.6c0.6-0.5,1.2-1.2,1.2-0.7c-0.5,1.2-1.7,2.4-1.9,2l0.1-0.3
		c-2.8,7.4-10.5,14.9-11.8,21.3l0.1-0.3l-2.1,6.2c-1.4,2.6,0.3-1.9-1.1-0.1c-1,3.4-2.2,5.9-3.4,8.2c-1.2,2.3-2.3,4.5-3.1,7.3
		c-3.9,3.1-6.4,14.4-10.2,19.3l0.6-0.1c-0.2,1.6-1.1,1.6-1.6,2.6c0.4,0,1.1-1.3,1-0.4c-1.1,3.1-2.4,6.2-3.7,9.3
		c-0.7,1.5-1.4,3.1-2.1,4.6s-1.4,3.2-2.1,4.5c-0.7,1.4-1.4,2.6-2.2,3.5s-1.6,1.4-2.6,1.8c-0.3,0.1-0.5,0.2-0.8,0.3l-1,0.2l-2.5,0.6
		c-1.7,0.4-3.4,0.9-5.1,1.4c-2.5,0.8-3,1.8-3.6,2.7c-0.3,0.5-0.7,0.9-1.4,1.3c-0.7,0.5-1.7,0.9-3.3,1.6c0,0,0.3-0.5,0.6-0.9
		c0.3-0.5,0.6-0.9,0.6-0.9c-2.3,1.7-4.6,3.5-6.6,5.7s-3.7,4.8-4.7,7.6c-1.1,2.8-1.6,5.9-1.5,8.9c0.2,3,1.2,6.1,3,8.5
		c-0.6-0.5-0.8-0.4-1.3-1.4c0.1,0.6,0.3,1.3,0.8,2.1c0.1,0.2,0.2,0.4,0.3,0.6l0.2,0.3v0.1l0,0l0.1,0.2l0.1,0.1
		c0.1,0.1,0.1,0.1,0.3,0.3c0.2,0.2,0.3,0.4,0.5,0.5c0.3,0.3,0.6,0.5,0.9,0.8c1.4,1,3,1.3,4.2,1.2c0.8,0,1.4-0.2,1.9-0.4
		c0.2,0.1,0.3,0.1,0.2,0.2c0,0.2-0.1,0.3,0.4,0.6c2,0.7,5.2-0.2,6.2,0.6c0.1,0.1-0.2,0.1-0.6,0.2c1.7,0,5.7,0.8,4.6-0.1
		c1.8,0.4,3.6,0.5,5.2,0.6c1.7,0.1,3.2,0.1,4.7,0.5c1-0.4,2.5-0.1,3.9,0.1s2.6,0.3,3-0.4c-0.4,1.3,6.3,1.6,8.7,1
		c-0.8,0.4,2,0.5,1.1,1c2.6,0.1,5.1,0,4.6-0.7c2.4,0.9,4.9,0.6,7,0.5c2.2-0.2,4.1-0.4,5.5,0.7c7.8-0.6,15.1-1.1,22.1-1.7
		c-0.2,1.4-7.8,0.3-7.5,1.7c3.3-0.3,6-0.8,8.6-1.2c2.6-0.4,5.2-0.7,8.5-0.6c1.7,0.1-0.9,0.6-1.5,0.9c3.3-0.4,6.5-0.5,9.7-0.7
		c3.1-0.1,6.2-0.3,9.1-0.9c0,0.1-0.6,0.3-1.2,0.4c1.2-0.1,2.7,0,2.6-0.6l-1.1,0.2c-1.9-0.8,4.5-2.1,4.7-2.6c-1.9,1.9,5.9,0,2.9,2.5
		c0.8-0.2,1.7-0.5,1.5-0.9c1.1,0,1.5,0.3,0.4,0.8c4.2-0.6,2.6-1.2,6.4-1.5c0,0.3-0.7,0.5-1.1,0.9c1.9-0.7,3.7-1.4,7-1.5
		c-0.1,0.2,0.1,0.3-0.4,0.4c5.3-0.6,9-2.3,14.9-2.3c-1.6,1.5,2.1,0.2,2.5,1.3l3.2-0.6l-1.3-0.4c2.8-0.2,5.2-1.3,7.7-1.2l-2.1,0.7
		l5.3-0.7l-3-0.1c2.8-0.8-0.4-1.4,3.3-1.4c-0.8,0.2,2.8-0.3,4.4,0.2l0,0c1.4-0.5,2.8-1,4.9-0.9c0.6,0.3-0.3,1.3,0.1,1.5
		c1.3-1.1,6.6-0.9,8.2-2.1c-0.6,0.3-0.5,0.9-0.3,1l1.1-0.9c1.3,0.1,1.5,0.2,1.4,0.7c3.9-0.3-1.4-1.3,3.3-1.2
		c-0.4,0.1-0.2,0.2-0.9,0.4c4.7-0.2,9-1.4,13.3-1.5c1.4,1-3.7,0.7-2.2,1.5c6.2-0.9,12.7-2.7,18.7-3.1h-1.1c0.7-1.7,4.6,0.3,7.5-0.8
		c-0.7,0.2-0.9,1-0.7,0.8c4.1-0.2,8.4-1.3,14.5-2.5l-0.7,0.5c2.5,0.1,6.4-0.5,9-0.6c0.7-0.5,2.2-0.6,1.3-1.1
		c8.3,1.5,15.3-2.9,22.6-1.7c-0.9,0.1-2,0.6-1.3,0.5l6.1-1c-0.6-0.6-0.8-0.3-2.2-0.7c0.7-0.5,2.4-1,3.9-1.1
		c-2.7,0.7,0.1,1.1,1.4,1.4c-0.2-0.2,0.2-0.5,0-0.7c3.3,0.9,0.4-1.4,4.8-1.1l-0.2,0.4c1.6-0.4,3.1-1,4.8-1.1
		c0.8,0.7-1.7,0.6-1.7,1.2c2.5-0.3,4.7-2,7-1.5c-1,0.3-2.5,0.5-3.6,0.8c2.5,0.7,2.8,0.4,4.6,0.4H516h4.2l-1.1-0.1
		c2.9-2.4,6.2-1,10.3-2.8c-3.9,1.7-0.6,0.8-0.8,1.8c1.1,0.1,2.7,0.3,2.3,0.6c1.9-0.9,3.3,0.2,6-1.1c0.2,0.3,2.1-0.2,1.7,0.6
		c2.5-0.5-0.7-0.4-0.5-0.8c3.8-1.4,9.4,0.2,14.9-1.7c4.4-1,5.5-2,9.1-2.9c0.5,0,0.9-0.1,1.4-0.1c0.8,0.4-1.5,1.1-1.5,1.1
		c2.5,0.2,4.4-0.1,6.7-0.7c-0.4,0.3,0.1,0.5,0.8,0.7c0.9-0.1,1.2-0.4,1.6-0.7c0.2-0.1,0.4-0.2,0.8-0.3c0.4-0.1,0.9-0.1,1.6-0.3
		c-0.2,0.2-0.4,0.5-0.7,0.8c-0.2,0.1-0.4,0.3-0.6,0.4c-0.2,0.1-0.6,0.3-0.7,0.4h0.2l0.3-0.1c0.2,0,0.4-0.1,0.6-0.1
		c0.4-0.1,0.8-0.2,1.1-0.4c0.7-0.3,1.3-0.8,1.8-1.3s0.9-1.2,1.1-1.9c0.1-0.3,0.1-0.7,0.2-1.1c0-0.4,0.1-0.7,0.1-1.1
		c0.3-0.3,0.5,0.1,0.4,0.9c0,0.4,0,0.8-0.1,1.2c-0.1,0.4-0.2,0.8-0.3,1.1c0.5-0.8,0.6-1.9,0.8-3c0-0.5,0.1-0.9,0.1-1.4
		c0-0.4,0-0.9-0.1-1.3C577.6,268.3,577.1,267,576.6,266.6z M487.1,136.5c0.4,0.6,0.7,1.2,0.9,1.5
		C487.8,137.7,487.6,137.2,487.1,136.5L487.1,136.5z M484.8,133.1c-0.1,0.4-0.5,0.3-0.9-0.2c0.4,0.2-0.5-1.2-1.2-2.2
		C483.4,131.4,484.1,132.2,484.8,133.1z M231.1,299.8c0.1,0,0.1,0,0.1-0.1c0.1,0,0.1,0.1,0.2,0.1H231.1z M483.5,285.9
		c-0.1-0.2-0.2-0.5-0.2-0.7c0.7-0.1,1.5-0.2,2.2-0.2C485.4,285.3,484.9,285.6,483.5,285.9z M550.4,278.9l-1-0.6
		c0.9-0.1,1.8-0.2,2.7-0.3C551.9,278.3,551.4,278.5,550.4,278.9z M567.9,277.2c-0.5-0.2-0.8-0.4-0.7-0.7c1.1-0.1,2.1-0.2,3.2-0.3
		L567.9,277.2z" style="fill:#B2D479;"/>
	<path d="M238.4,301.8c0.1,0,0.3,0,0.4,0C238.6,301.8,238.5,301.8,238.4,301.8z" style="fill:#B2D479;"/>
	<path d="M576.6,268.4c0,0,0-0.2,0-0.4C576.5,268.1,576.5,268.2,576.6,268.4z" style="fill:#B2D479;"/>
	<path d="M370.8,125.2c0.3-0.1,0.6-0.2,0.9-0.3C371.4,125,371.1,125.1,370.8,125.2z" style="fill:#B2D479;"/>
	<polygon points="389.9,123.1 389.9,123.4 390.5,123.1 	" style="fill:#B2D479;"/>
	<path d="M500.4,285.1c0.1,0.1,0.2,0.1,0.5,0.2C500.8,285.2,500.6,285.1,500.4,285.1z" style="fill:#B2D479;"/>
	<path d="M516.2,283.6l2.3,0.1C517.5,283.6,516.8,283.6,516.2,283.6z" style="fill:#B2D479;"/>
	<path d="M528.4,282.8c0.1-0.2,0.2-0.3,0.2-0.4l0,0L528.4,282.8z" style="fill:#B2D479;"/>
	<path d="M334.9,302.9c-0.2,0-0.3,0-0.5,0.1C333.4,303.2,334.1,303.1,334.9,302.9z" style="fill:#B2D479;"/>
	<path d="M392.5,296c-0.6,0.2-1.2,0.4-1.8,0.6C391.7,296.6,392.5,296.5,392.5,296z" style="fill:#B2D479;"/>
	<path d="M270,304.6L270,304.6c-0.1,0-0.3,0-0.4,0H270z" style="fill:#B2D479;"/>
	<path d="M390.7,296.6c-0.8,0-1.8,0-2.7,0.2C389,296.9,389.9,296.8,390.7,296.6z" style="fill:#B2D479;"/>
	<path d="M578.5,268.2c-0.1,0-0.1,0-0.1-0.1l0.1,0.8c0,0,0-0.2,0-0.4C578.5,268.4,578.5,268.2,578.5,268.2z" style="fill:#B2D479;"/>
	<path d="M578.3,268.1l-0.2-0.8C578.2,267.7,578.2,268,578.3,268.1z" style="fill:#B2D479;"/>
	<path d="M577.9,266.6c0.1,0.4,0.2,0.8,0.2,0.8c0-0.6-0.2-1.2-0.5-1.5C577.6,265.8,577.7,266.2,577.9,266.6z" style="fill:#B2D479;"/>
	<path d="M565,278.9l-0.2,0.3C565,279.2,565,279.1,565,278.9z" style="fill:#B2D479;"/>
	<path d="M560.1,279.5c1.2-0.1,3,0.3,4.6,0l0.1-0.3C564.1,279.8,561.2,278.9,560.1,279.5z" style="fill:#B2D479;"/>
	<polygon points="419.3,294.6 420,293.8 417.6,294.3 	" style="fill:#B2D479;"/>
	<path d="M446.4,130.5c-0.1-0.4,0.1-0.7,0.3-0.7c-0.2-0.1,0-0.7-0.5-0.7c-0.3,0.7-0.2,1.2,0.3,1.9c-0.1,0.2-0.3,0-0.4,0
		c0.4,0.4,0.8,1.1,1.5,0.8C447,131.2,447.2,131,446.4,130.5z" style="fill:#67444C;"/>
	<path d="M444.5,136.6c0.1-0.1,0.2-0.2,0.3-0.4C444.7,136.3,444.6,136.4,444.5,136.6L444.5,136.6z" style="fill:#67444C;"/>
	<path d="M443.8,121.2C443.7,121.2,443.7,121.2,443.8,121.2C443.7,121.3,443.8,121.3,443.8,121.2z" style="fill:#67444C;"/>
	<path d="M444.2,136.7c-0.1,0.1-0.3,0.1-0.4,0.2C444,136.8,444.1,136.8,444.2,136.7z" style="fill:#67444C;"/>
	<path d="M433.9,103.1c0.1-0.4,1.1,0.1,0-0.6C434,102.7,434,102.9,433.9,103.1z" style="fill:#67444C;"/>
	<path d="M444.3,136.4c0,0.1,0,0.3-0.1,0.3c0.1,0,0.2-0.1,0.3-0.2C444.5,136.4,444.4,136.4,444.3,136.4z" style="fill:#67444C;"/>
	<path d="M378.5,129.7l-0.5,0.8C378.2,130.3,378.4,130,378.5,129.7z" style="fill:#67444C;"/>
	<path d="M386.3,99.1c-0.1,0-0.2,0-0.2,0.1L386.3,99.1z" style="fill:#67444C;"/>
	<path d="M377,133.2c-0.2,0.1-0.4,0.2-0.6,0.4c0,0.1,0,0.1,0.1,0.2L377,133.2z" style="fill:#67444C;"/>
	<path d="M382.5,99.7c0.1,0,0.1-0.1,0.2-0.2C382.7,99.6,382.6,99.7,382.5,99.7z" style="fill:#67444C;"/>
	<polygon points="388.3,98.7 388.3,98.8 388.5,98.7 	" style="fill:#67444C;"/>
	<path d="M429.6,128c0,0-0.1,0.1-0.1,0.2C429.5,128.1,429.6,128.1,429.6,128z" style="fill:#67444C;"/>
	<path d="M430.5,132.5l-0.1,0.7C430.4,132.8,430.5,132.6,430.5,132.5z" style="fill:#67444C;"/>
	<path d="M431.5,136.5c0.1,0,0.2,0,0.2-0.1l0,0L431.5,136.5z" style="fill:#67444C;"/>
	<path d="M390.1,117.9c0,0-0.1,0-0.1,0.1C389.8,118.2,389.9,118.1,390.1,117.9z" style="fill:#67444C;"/>
	<path d="M406.1,114.6c-0.2,0.1-0.3,0.2-0.5,0.3C405.8,114.9,406.1,114.9,406.1,114.6z" style="fill:#67444C;"/>
	<path d="M378.6,129.6L378.6,129.6L378.6,129.6L378.6,129.6z" style="fill:#67444C;"/>
	<path d="M404.7,114.9c0.3,0.1,0.5,0.1,0.8,0C405.3,114.9,405,114.8,404.7,114.9z" style="fill:#67444C;"/>
	<path d="M447.4,133.2L447.4,133.2l-0.1,0.2L447.4,133.2z" style="fill:#67444C;"/>
	<path d="M447.4,133.1v-0.3C447.3,133,447.3,133.1,447.4,133.1z" style="fill:#67444C;"/>
	<path d="M447.4,132.3c0,0,0,0.1,0,0.3c0,0.1,0,0.3,0,0.3C447.4,132.7,447.5,132.5,447.4,132.3z" style="fill:#67444C;"/>
	<path d="M440.5,137c0.4,0.2,1.2,0.6,1.9,0.4v-0.2c-0.1,0.2-0.5,0.1-0.9-0.1C441.1,137.1,440.7,136.9,440.5,137z" style="fill:#67444C;"/>
	<path d="M413.2,115.2l0.4,0.4l0.3-0.4c0,0-0.2,0-0.4,0C413.4,115.2,413.2,115.2,413.2,115.2z" style="fill:#67444C;"/>
	<path d="M476.8,173.9c-0.2-0.4,0.1-1.7-0.4-2.3c-0.5,1.4-0.4,3.2,0.1,5.1c-0.1,0.4-0.3,0-0.4-0.1
		c0.4,1.3,1,2.7,1.6,1.9c-0.7-1.2-0.4-1.6-1.2-2.9C476.3,174.5,476.5,173.7,476.8,173.9z" style="fill:#67444C;"/>
	<path d="M478.1,191.3c0-0.4-0.1-0.7-0.2-1c0,0.3,0.1,0.6,0.1,0.9L478.1,191.3z" style="fill:#67444C;"/>
	<path d="M451.6,162.6C451.6,162.7,451.6,162.7,451.6,162.6C451.8,162.7,451.8,162.6,451.6,162.6z" style="fill:#67444C;"/>
	<path d="M478.1,191.9c0,0.3,0,0.6,0,0.9C478.1,192.4,478.1,192.1,478.1,191.9z" style="fill:#67444C;"/>
	<path d="M393.9,170.5c0.4,0.1,0.7,0.3,0.9,0.4C394.5,170.6,397.2,170.1,393.9,170.5z" style="fill:#67444C;"/>
	<path d="M477.8,191.3c0.1,0.1,0.2,0.3,0.3,0.6c0-0.2,0-0.4,0-0.6C477.9,191.2,477.8,191.2,477.8,191.3z" style="fill:#67444C;"/>
	<path d="M319.6,233.3c0,0.3,0,0.5,0.1,0.7L319.6,233.3z" style="fill:#67444C;"/>
	<path d="M475.8,373.1c0,0.1,0,0.2,0,0.3C475.9,373.3,475.9,373.2,475.8,373.1z" style="fill:#67444C;"/>
	<path d="M319.7,243.5c0-0.1-0.1-0.3-0.1-0.4C319.7,243.2,319.7,243.3,319.7,243.5z" style="fill:#67444C;"/>
	<path d="M319.8,243.7c0-0.1,0-0.1,0-0.2C319.8,243.5,319.8,243.6,319.8,243.7z" style="fill:#67444C;"/>
	<path d="M478.5,219.8c0.2-0.1,0-1.8,0.5-1.4c-0.2-2.2-0.3,0.5-0.6,0.3c-0.7-3.4,0.7-7.9-0.3-12.8c-0.4-3.9-1-4.8-1.5-8
		c0-0.4,0-0.7,0-1.1c0.3-0.7,0.7,1.3,0.7,1.3c0.2-2.1,0.1-3.7-0.1-5.7c0.2,0.4,0.3,0,0.5-0.6c-0.1-1.6-0.7-1-0.5-3.2
		c0.2,0.4,0.6,0.8,0.8,1.6c-0.2-1.9-0.6-3.7-0.9-5.7c0.3-0.5,0.6,1.2,0.8,1.8c-0.2-2.2-0.5-5.7-1.1-6.3l-0.1,1.1
		c0.1-0.3,0.4,0,0.5,0.5c0.5,1.9-0.1,2.7-0.3,2.8l-0.2-1.4c-1.1,1.5,0.4,5.6,0.4,8.4l-0.7-0.9c-0.2-7.1-0.4-14.2-0.7-21.3
		c0-0.1,0-0.2,0-0.3c0.3,0.1,0.6,0.3,0.9,0.4c0,0.2-0.1,0.4,0,0.8l0.7,0.7l-0.2-1.7l0,0c0.2-0.1,0.3-0.5,0.4-1.1
		c0-0.4,0-0.9-0.2-1.5s-0.6-1.3-1.3-1.9c0,0-0.3-0.2-0.7-0.4c-0.4-0.2-1-0.4-1.5-0.4c-0.3,0-0.5-0.1-0.8-0.1c-0.1,0-0.2,0-0.4,0
		c-0.1,0-0.2,0-0.2,0c-0.3,0-0.5,0-0.5,0l-1-0.5c0,0,0.7,0.1,1.3,0.1c0.2,0,0.3,0,0.5,0s0.4,0.1,0.6,0.1c0.3,0.1,0.6,0.1,0.6,0.1
		c-0.5-0.3-1-0.4-1.4-0.5c-0.3-0.1-0.6-0.1-0.9-0.1c-0.6,0-1.1,0.1-1.6,0.2c-0.2-0.3-0.7-0.5-1.3-0.6c0,0-0.8,0.1-1.6,0.3
		c-0.8,0.2-1.6,0.4-1.6,0.4c-0.4-0.4,1.4-0.6-0.6-1c-1.5,0.3,1.3,0.9-1.1,1c-1.5-0.5-1-0.8-2.8-0.5c-0.2-0.2,0.1-0.4,0.8-0.5
		c-1.6,0.3-4.2,0.1-5,0.6c-0.8-0.2-2.1-0.2-3.2-0.2s-2,0-1.9-0.4c-0.5,0.2-2.7,0.8-4.1,1c2.5-1.3-5.3,0.4-4.8-0.8
		c-1.8,1.1-6.9,1.2-10.2,2.2c0.2-0.1,0.5-0.3,0.8-0.3c-1.9,0.2-2.5,0-3.8,0c-0.1,0.8-3.1,1.4-4.6,2.2c-2.4-0.4,1.3-1.1,0.4-1.7
		c0.2,0.6-3.9,1.3-3.1,1.7c-1.8-0.2-1.6,0-2.6-0.5c-0.2,1-1.6,0.4-3,1.3c-2.6-0.1-0.8-0.8-3.6-0.1c-1.4-0.1,1.1-0.8,1.1-0.8
		c-2.9,0.4-1.2,0.9-1.8,1.4c-3.4,0.7-1.7-0.3-2.9-0.5c-2.1,0.5-3.6,1.4-5.2,1.6c-0.1-0.1-0.4-0.1-0.1-0.3c-2.2,0.9-6.7,0.9-9.2,1.9
		c-0.2,0-0.3-0.1-0.4-0.1c0.5,0.3,0.6,0.7,0.5,1c-1.3,0.2-2.3,0.7-2.9,0.3c0.8-0.1,0.8-0.3,1.2-0.4l-1.3,0.3
		c-1.3-0.6,1.8-0.4,1.8-0.9c-1.3,0.2-2.7,0.6-4,0.8s-2.6,0.4-3.6,0.4c-0.5-0.6,4.7-0.5,2-1c0,0,0.8,0,1.6,0c0.8,0,1.6,0,1.6,0
		c-2.5-0.9,1.9-0.1-0.4-1c-2,0.1-3.2,0.2-4.3,0.4c-1.1,0.2-2.3,0.3-4.3,0.3c-0.9,0.4,0.3,0.5-0.6,1c-5.8,0.9-4.6-1.6-8.9-0.6
		c-1.1,0.5-1.5,1.3-4.6,0.8l1.1-0.7c-4-0.2-2.3,1-6.4,0.4c0.8-0.3,3.1-0.1,2.5-0.2c-2.7-0.7-1.9,0.4-4,0.2l-0.4-0.7
		c-4.2-0.1-8.9-0.1-13.6-0.6c0.3-0.2,1.1-0.3,0-0.6c-5.9-0.4-12.4-2-17.9-3.7l-2.2,0.1c-0.5-0.1-0.9-0.5-0.3-0.5
		c-0.3-0.1-0.5-0.1-0.6-0.2c-0.3-0.1-0.4-0.1-0.5-0.1c-0.2,0-0.2,0.1-0.1,0.1c0.2,0.2,0.5,0.4-0.3,0.4c-1-0.1-1.6,0-1.9,0
		s-0.2-0.3,0.5-0.4c-0.8,0.2-1.7,0.6-2.5,1.2c-0.8,0.6-1.4,1.5-1.7,2.4c-0.2,0.5-0.3,1-0.4,1.5c0,0.2,0,0.5-0.1,0.7v0.5
		c0,0.7-0.1,1.4-0.1,2.1c-0.2,2.8-0.6,5.7-1.1,7.7l-0.1-0.8c-0.3,1.6-0.1,2.6,0.1,3.5c0,0.2,0.1,0.5,0.1,0.8c0,0.4,0.1,0.6,0.1,0.8
		c0.1,0.5,0.1,1.1,0,1.9l-0.1-0.6c0,7,0.8,14.8,0.1,20.2c0.9,1-0.1,7,1.1,7.4c-0.4,4-0.7,2.9-0.9,8.6c0,1.5,0.8,2.2,1,4.1l-0.6,0.1
		l0.7,2.5l-0.7,1.4l0.2,1.7c0-0.7,0.2-1.5,0.4-1.4c0.4,2.7-0.2,6.7-0.5,6.8l0.8,6.5c-0.2-0.1-0.3-0.7-0.4-1.4
		c0.4,2.4-0.7,0.2-0.1,3.2c0.1-0.4,0.4,0.2,0.5,0.3c-0.3,1.6-0.2,5.2,0.1,7.8l-0.4-0.5c0.1,4.8,0.6,10.1,0.8,15.5
		c0.1-1.9,0.9-1.5,1,0.1l-0.6,0.7c0.4,1,0.2-1.7,0.8,0.4c0,2-0.7,1.4-0.9,0.2l0.3,2.4c-0.2,0.2-0.3-0.4-0.6-0.6
		c0.4,1-0.5,4.3,0.3,5.7l-0.2,0.1c0.2,5.4,0.5,7.8,0.7,12.2c0.6,0.1,0.5,1.8,1,3.1c-0.1,3.2-0.4,6.8-0.2,10.7c0.4,2.7,0.5,0.8,0.9,2
		c-0.5,0.2-0.3,4.1-0.8,2.1c0.3,4.7,0.3,6,0.9,11.8c0.2-0.6,0.3-1.4,0.4-1c0.1,1.1-0.1,2.4-0.4,2.3l-0.1-0.3
		c1,6.6-0.9,15.3,0.3,20.6l-0.1-0.3l0.8,5.4c0,2.5-0.4-1.5-0.7,0.4c1.1,5.9,0.2,9.3,1,14.2c-0.7,2-0.5,5.1-0.5,8.6
		c0.1,3.5,0.3,7.3,0.1,10l0.3-0.3c0.5,1.3-0.1,1.7,0,2.7c0.2-0.2,0.1-1.5,0.4-0.7c0.5,2.9,1.1,5.8,2.3,8.8c0.6,1.5,1.5,3,2.5,4.3
		c1.1,1.3,2.3,2.5,3.7,3.4c2.8,1.9,5.9,3,8.9,3.7c1.5,0.4,2.9,0.6,4.4,0.9c1.4,0.3,2.8,0.5,4.3,0.8c4.2,0.7,2.6-1.5,7.7,0L357,405
		c8.5,0.3,17.2,2,25.6,1.8c-0.5,0.1-0.5,0.3-1.3,0.3c1.7,0.6,6.5,0.4,6.5,0c1.3,0.1,0.3,0.4,1.1,0.6c1.7,0.4,4.4-0.4,5.3,0.1
		c0.1,0.1-0.1,0.1-0.4,0.1c1.5-0.1,4.8,0.2,3.8-0.3c3.1,0.4,6-0.1,8.4,0.2c1.6-0.6,5.3,0.3,5.8-0.6c-0.2,0.9,5.5,0.6,7.4,0.1
		c-0.6,0.3,1.7,0.2,1,0.6c2.2-0.1,4.3-0.4,3.9-0.8c2.1,0.4,4.2,0.1,6-0.2c1.8-0.3,3.4-0.6,4.7,0c3.3-0.5,6.5-1.1,9.6-1.6
		c3.1-0.6,6.1-1,9-1.6c-0.1,1-6.6,1-6.2,1.9c2.8-0.5,5-1.1,7.2-1.7c1.1-0.3,2.2-0.5,3.4-0.8c1.1-0.2,2.5-0.5,4-0.9s-0.7,0.7-1.2,0.9
		c3-0.9,5.8-2.1,8.2-4.1c2.3-1.9,4.1-4.5,4.8-7.2c0.1,0,0,0.6-0.2,1.2c0.5-1,1.1-2.4,0.6-2.4l-0.2,1c-0.6,0.7-0.4-0.4-0.4-1.7
		c0.1-1.3,0.1-2.7,0-2.9c0.4,1,0.7-0.3,1-1.4s0.6-2.1,1.1-0.6c0-0.7-0.1-1.5-0.3-1.4c0.2-1,0.4-1.3,0.6-0.2c0.1-1.8,0-2.4-0.1-3
		s-0.2-1.1,0-2.7c0.2,0,0.2,0.7,0.4,1c-0.3-1.7-0.6-3.4-0.3-6.1c0.1,0.1,0.2,0,0.3,0.4c0-2.2-0.2-4.1-0.3-6.1
		c-0.1-2-0.2-4.1,0.1-6.7c0.8,1.6,0.3-1.7,1.1-2l-0.1-2.8l-0.4,1.1c0.1-2.4-0.4-4.6,0-6.6l0.2,1.8v-4.5l-0.4,2.5
		c-0.3-2.5-1,0.2-0.6-3c0.1,0.7,0.1-2.4,0.6-3.6l0,0c-0.2-1.2-0.4-2.4-0.1-4.2c0.3-0.5,0.8,0.4,1,0.1c-0.6-1.2,0-5.7-0.6-7.2
		c0.1,0.5,0.5,0.5,0.6,0.4l-0.5-1c0.2-1.1,0.3-1.3,0.6-1.1c0.2-3.4-1,1-0.4-2.9c0,0.3,0.1,0.2,0.2,0.8c0.4-4,0-7.7,0.4-11.4
		c0.8-1.1,0.1,3.2,0.7,2c0.1-5.3-0.5-11-0.1-16.1l-0.1,1c-1-0.7,0.6-3.8,0.2-6.4c0.1,0.6,0.6,0.8,0.5,0.7c0.3-3.5-0.1-7.2-0.4-12.5
		l0.3,0.7c0.3-2.1,0.2-5.5,0.4-7.7c-0.3-0.7-0.2-1.9-0.6-1.2c1.6-6.9-0.7-13.2,0.6-19.3c0,0.7,0.2,1.7,0.2,1.2l-0.2-5.2
		c-0.5,0.4-0.3,0.7-0.6,1.8c-0.3-0.7-0.5-2.1-0.5-3.4c0.3,2.3,0.7,0,1-1c-0.1,0.2-0.3-0.2-0.4-0.1c0.8-2.7-0.9-0.5-0.4-4.2l0.2,0.2
		c-0.1-1.4-0.5-2.7-0.4-4.2c0.5-0.6,0.3,1.5,0.7,1.6c0-2.1-1-4.2-0.5-6.1c0.2,0.9,0.2,2.2,0.3,3.1c0.6-2.1,0.5-2.3,0.5-3.9v0.2
		l0.3-3.6l-0.2,0.9c-1.4-2.6-0.3-5.4-1.3-8.9c0.9,3.4,0.5,0.6,1.1,0.8c0.2-0.9,0.3-2.3,0.5-1.9C478.4,223.3,479.2,222.2,478.5,219.8
		z M477,193.3c-0.1,0.4-0.3,0.7-0.5,0.5c0-0.9,0-1.9-0.1-2.8L477,193.3z M347.7,170.6c0.6,0.1,1.1,0.1,1.4,0.2
		C348.8,170.8,348.4,170.7,347.7,170.6C347.7,170.7,347.7,170.6,347.7,170.6z M344.5,170.3c0.2,0.2-0.1,0.4-0.6,0.3
		c0.3-0.1-1-0.4-1.8-0.7C342.8,170,343.6,170.1,344.5,170.3z M477.7,265.4c-0.1,0.1-0.3,0.1-0.5,0.1c0-0.6,0-1.3,0-1.9
		C477.5,263.7,477.6,264.2,477.7,265.4z M476.8,209c0-0.8,0-1.5,0-2.3c0.1,0.2,0.3,0.6,0.5,1.5L476.8,209z" style="fill:#67444C;"/>
	<path d="M476.7,181.2c0,0.1,0,0.2,0,0.3V181.2z" style="fill:#67444C;"/>
	<polygon points="319.1,227.6 319.3,227.6 319.1,227.1 	" style="fill:#67444C;"/>
	<path d="M478.4,251.1c0-0.1,0.1-0.2,0.1-0.4C478.5,250.7,478.4,250.8,478.4,251.1z" style="fill:#67444C;"/>
	<path d="M478.5,237.5l0.2-1.9C478.5,236.4,478.5,237,478.5,237.5z" style="fill:#67444C;"/>
	<path d="M478.6,227.1c-0.1-0.1-0.2-0.2-0.2-0.2l0,0L478.6,227.1z" style="fill:#67444C;"/>
	<path d="M473.2,393c-0.1,0.1-0.1,0.3-0.2,0.4C472.7,394.5,473,393.8,473.2,393z" style="fill:#67444C;"/>
	<path d="M476,343.3c0.1,0.5,0.2,1,0.2,1.6C476.3,344,476.3,343.3,476,343.3z" style="fill:#67444C;"/>
	<path d="M476.2,344.9c-0.1,0.7-0.2,1.6-0.1,2.3C476.3,346.3,476.3,345.6,476.2,344.9z" style="fill:#67444C;"/>
	<path d="M477.9,181.5C477.9,181.5,477.8,181.5,477.9,181.5v0.5V181.5z" style="fill:#67444C;"/>
	<path d="M477.7,180.9c0,0.3,0,0.5,0.1,0.6L477.7,180.9z" style="fill:#67444C;"/>
	<path d="M477.7,180.9c0-0.4,0-0.9-0.2-1.2L477.7,180.9z" style="fill:#67444C;"/>
	<path d="M478.2,195.9c0-0.1-0.1-0.1-0.2-0.2L478.2,195.9z" style="fill:#67444C;"/>
	<path d="M478.2,200c0-1,0.4-2.5,0.2-3.9l-0.2-0.1C478.6,196.6,477.8,199,478.2,200z" style="fill:#67444C;"/>
	<polygon points="477.3,322 477.7,320.6 477.3,319.9 	" style="fill:#67444C;"/>
	<path d="M416.6,366.2c-0.4,0-0.9-0.1-1.5,0c0,0,0.4,0,0.7,0C416.2,366.2,416.6,366.2,416.6,366.2z" style="fill:#EA7B44;"/>
	<path d="M420.9,366.1c0.3,0.2,0.5,0.4,0.8,0.5c0.1,0,0.1-0.1,0.2-0.1L420.9,366.1z" style="fill:#EA7B44;"/>
	<path d="M457.9,406l0.4,0.6c0.4-0.5-0.8-0.1,0-0.8c1-0.2,0.8,0.6,0.3,0.9c0,0,0.3-0.1,0.6-0.3c0.3-0.1,0.6-0.3,0.6-0.3
		c0.1,0.2-0.1,0.4-0.1,0.6c0.2-0.3,0.7-0.3,1.3-0.3c0.6-0.1,1.2-0.2,1.4-0.7l0.1,0.2c1.3-0.6,2.2-1.1,3-1.7c0.4-0.3,0.8-0.6,1.1-0.9
		c0.4-0.3,0.8-0.7,1.2-1.1c-0.3-0.4,0.4-1,0.5-1.8c1.2-1.1,2.6-2.4,3.4-4.3c0.3-1.4-0.3-0.6-0.4-1.2c0.3,0,0.6-0.4,0.8-0.7
		c0.2-0.3,0.3-0.5,0.4,0c0.3-1.2,0.4-1.8,0.5-2.6c0.1-0.8,0.2-1.6,0.2-3c-0.3,0.3-0.4,0.6-0.5,0.4c0-0.5,0.4-1.1,0.6-1v0.1
		c-0.3-3.1,2.2-6.9,1.2-9.4v0.1l-0.5-2.5c0.1-1.1,0.4,0.7,0.7-0.1c-0.1-0.2-0.1-0.4-0.1-0.6s-0.1-0.3-0.1-0.7c0-0.6-0.1-1.2-0.1-1.7
		c0-1.1,0.1-2.1,0.2-3.2c-1.2-0.2-2.5-0.3-4-0.2c-0.3-0.2-0.7-0.4-1.2-0.5c-0.1,0-0.3-0.1-0.4-0.1s-0.2,0-0.3-0.1
		c-0.2,0-0.3-0.1-0.5-0.1c-0.7-0.1-1.6,0-2.4,0.1c-1.7,0.2-3.4,0.6-4.6,0.3l0.2,0.3c-0.5,0.4-0.7-0.1-1.2-0.1
		c0.1,0.3,0.7,0.2,0.4,0.5c-4.9,1.2-10.2,1.2-14.7,0.5c-1.6-0.3-1.2,1.8-3.2,0.6c0,0,0.2-0.1,0.4-0.3c0.2-0.1,0.4-0.3,0.4-0.3
		c-3.7,0.2-7.3-1.7-11.1-2c0.3-0.1,0.3-0.3,0.7-0.2c-0.6-0.7-2.9-0.7-3-0.4c-0.6-0.2-0.1-0.4-0.4-0.7c-0.7-0.5-2.1,0.2-2.5-0.4
		c-0.1-0.1,0.3-0.1,0.4-0.1c-0.6,0.1-2.5-0.5-2,0.1c-1.4-0.5-2.8-0.1-3.9-0.5c-0.8,0.5-2.5-0.4-2.8,0.5c0.1-0.9-2.6-0.7-3.5-0.2
		c0.3-0.3-0.8-0.2-0.5-0.6c-1.1,0.1-2,0.4-1.8,0.8c-1-0.4-2-0.1-2.8,0.2c-0.8,0.3-1.5,0.6-2.2,0c-2.9,1.1-5.5,2-8.1,3
		c-0.1-0.9,2.9-0.9,2.5-1.7c-2.4,1-3.6,2.2-6.1,2.6c-0.7,0.1,0.2-0.5,0.4-0.7c-2.4,1.1-4.7,1.3-6.8,2.3c0-0.1,0.2-0.2,0.4-0.4
		c-0.4,0.1-1,0.1-0.9,0.5l0.4-0.2c0.8,0.4-1.4,1.6-1.4,2c0.4-1.3-2.2,0.2-1.4-1.5c-0.3,0.1-0.6,0.4-0.4,0.7c-0.4,0-0.6-0.1-0.3-0.5
		c-1.5,0.6-0.8,0.9-2.2,1.1c0-0.2,0.2-0.3,0.3-0.6c-0.6,0.5-1.2,1.1-2.4,1.1c0.1-0.1-0.1-0.3,0.2-0.3c-1,0.2-1.8,0.5-2.7,0.8
		c-0.9,0.3-1.8,0.5-2.9,0.4c0.6-0.9-0.8-0.3-0.9-1l-1.2,0.3l0.5,0.3c-1.1,0-2,0.5-2.9,0.3l0.8-0.3c0,0-0.5,0-1,0.1c-0.5,0-1,0-1,0
		s0.3,0.1,0.6,0.2c0.3,0.1,0.6,0.1,0.6,0.1c-1.1,0.4,0.1,1-1.3,0.7c0.3-0.1-1.1-0.1-1.6-0.5l0,0c-0.5,0.2-1.1,0.4-1.9,0.2
		c-0.2-0.3,0.2-0.8,0.1-1c-0.6,0.6-2.5,0-3.2,0.6c0.2-0.1,0.3-0.5,0.2-0.6l-0.5,0.5c-0.5-0.2-0.6-0.3-0.4-0.6
		c-1.5-0.2,0.4,1-1.4,0.4c0.1,0,0.1-0.1,0.4-0.2c-1.8-0.4-3.5,0-5.1-0.4c-0.4-0.8,1.5-0.1,1-0.7c-2.4-0.1-5,0.5-7.3,0.2l0.4,0.1
		c-0.4,1-1.7-0.6-2.9-0.2c0.3-0.1,0.4-0.6,0.3-0.5c-0.8-0.1-1.6-0.1-2.6,0.1c-0.9,0.1-2,0.3-3.2,0.5l0.3-0.3c-1-0.2-2.5,0-3.5-0.1
		c-0.3,0.3-0.9,0.3-0.5,0.7c-1.7-0.6-3.2-0.2-4.6,0.3s-2.7,1.1-4.2,0.9c0.3-0.1,0.7-0.4,0.5-0.4c0,0-0.6,0.2-1.1,0.5
		c-0.6,0.2-1.1,0.5-1.1,0.5c0.3,0.4,0.4,0.2,1,0.4c-0.2,0.3-0.8,0.8-1.3,0.9c0.9-0.6-0.2-0.7-0.8-0.8c0.1,0.1,0,0.3,0.1,0.4
		c-0.7-0.2-0.7,0.1-0.7,0.4s0,0.6-1,0.7v-0.2c-0.5,0.3-0.8,0.7-1.4,1c0,0.1,0,0.2,0,0.2c-0.3,0-0.3-0.2-0.4-0.5
		c0.2-0.1,0.4-0.3,0.2-0.4c-0.2,0.1-0.3,0.2-0.5,0.3c0.1,0.6,0.4,1.1,0.5,1.6s0.2,0.8,0,1.2c-0.2-0.4-0.2-1.1-0.4-1.7
		c-0.6,0.9-0.4,1.4-0.5,2.1v-0.1l-0.2,1.7l0.1-0.4c1.5,1.1,0.5,2.4,1.6,3.9c-1.1-1.4-0.5-0.2-1.1-0.2c-0.1,0.4-0.2,1.1-0.4,1
		c0.6,0.7-0.1,1.4,0.8,2.3c-0.2,0.1,0.2,0.8-0.3,0.8c0.4,1,0.3-0.3,0.5-0.3c0.5,0.7,0.6,1.6,0.8,2.6c0.1,0.5,0.3,1.1,0.5,1.6
		c0.3,0.5,0.6,1,1.1,1.4c1.3,1.4,2.1,1.4,3.3,2.1c0.1,0.1,0.3,0.2,0.4,0.4c0,0.2-0.2,0.2-0.4,0.2c-0.2,0-0.5-0.2-0.5-0.2
		c0.5,0.9,1.2,1.4,2.1,1.7c-0.3,0-0.2,0.3-0.1,0.6c0.7,0.4,0.8-0.3,1.5,0.4c-0.2,0.1-0.6,0.3-1,0.3c0.9,0.3,1.8,0.4,2.8,0.6
		c0.1,0.4-0.7,0.3-1.1,0.3c1,0.3,2.6,0.7,3.1,0.3l-0.4-0.3c0.1,0.2-0.2,0.4-0.4,0.4c-1,0.1-1.1-0.6-1.1-0.8l0.6,0.1
		c-0.1-0.7-0.7-0.8-1.4-1c-0.7-0.1-1.6-0.3-2.1-0.6c0,0,0.2-0.1,0.4-0.2c0.1-0.1,0.2-0.1,0.3-0.1c2.6,1.6,5.7,2.5,9,3h0.1
		c-0.1,0.3-0.3,0.6-0.3,0.9c-0.1-0.1-0.2-0.1-0.4-0.1l-0.5,0.6h0.8l0,0c0.1,0.4,0.4,0.8,1.2,1.2l1.5-0.3l0.4,0.5l-1.2-0.2
		c0.6,0.5,1.1,0.2,1.6,0c0.1,0.3,0.2,0.5,0.5,0.6l1.5-0.7c0.1,0.4-0.7,0.6,0.2,1c0.7-0.3-0.5-0.9,0.6-1c0.6,0.5,0.4,0.8,1.2,0.6
		c0.1,0.3-0.1,0.4-0.4,0.4c0.7-0.2,1.8,0.1,2.3-0.3c0.6,0.6,2.3,0.2,2.2,1c0.2-0.2,1.3-0.5,1.9-0.5c-1.3,0.9,2.4,0.4,1.9,1.4
		c1-0.8,3.2,0,4.7-0.4c-0.1,0.1-0.3,0.2-0.4,0.1c0.8,0.2,1.1,0.5,1.6,0.7c0.2-0.8,1.6-0.8,2.3-1.2c1,0.9-0.7,0.9-0.5,1.6
		c0-0.6,1.9-0.4,1.6-1c0.8,0.5,0.7,0.3,1,1c0.2-1,0.8-0.1,1.5-0.6c1.1,0.6,0.2,1,1.5,0.8c0.6,0.3-0.6,0.6-0.6,0.6
		c1.3,0.1,0.7-0.7,1-1.1c1.6-0.1,0.7,0.6,1.2,1c1-0.1,1.8-0.7,2.5-0.6c0,0.1,0.2,0.2,0,0.3c1.1-0.5,3.1,0.2,4.3-0.4
		c0.1,0.1,0.1,0.1,0.1,0.2c-0.2-0.4-0.2-0.8-0.1-1c0.6,0,1.1-0.4,1.3,0.1c-0.4,0-0.4,0.2-0.6,0.3l0.6-0.2c0.5,0.7-0.9,0.2-0.9,0.7
		c1.2-0.2,2.6-0.6,3.5-0.4c0.2,0.7-2.2,0.1-1,0.8l-1.4-0.3c1,1.1-0.9-0.1,0.1,1.1c1.9,0.3,2.1-0.2,4,0.1c0.4-0.4-0.1-0.6,0.3-0.9
		c2.7-0.6,2,1.8,4,1c0.5-0.4,0.8-1.3,2.1-0.8l-0.5,0.7c1.8,0.2,1.1-1.1,3-0.5c-0.3,0.3-1.4,0.2-1.2,0.3c1.2,0.6,0.9-0.4,1.8-0.4
		l0.2,0.7c1.9-0.1,4.1-0.5,6.2-0.6c-0.1,0.2-0.5,0.4,0,0.6c2.7-0.3,5.8,0.1,8.4,0.5l1-0.6c0.2,0,0.4,0.3,0.2,0.4
		c1,0.2,0-0.4,0.5-0.6c0.6-0.1,0.8,0.3,0.4,0.5c1.8-0.5,5.1-1.2,7-0.7l-0.4,0.2c1.5,0.2,1.6-1.3,3-0.8l-0.3,0.1
		c3.2,0.1,6.7-0.6,9.2,0c0.4-0.9,3.2,0.1,3.3-1.1c1.9,0.4,1.4,0.7,4,0.8c0.7,0,0.9-0.8,1.8-1l0.1,0.6l1.1-0.8l0.7,0.7l0.8-0.2
		c-0.3,0-0.7-0.2-0.7-0.4c1.2-0.4,3.1,0.1,3.1,0.4l2.8-0.9c0,0.2-0.3,0.3-0.6,0.5c1-0.5,0.2,0.7,1.4,0c-0.2-0.1,0.1-0.4,0.1-0.5
		c0.8,0.3,2.4,0.1,3.6-0.3l-0.2,0.5c1.1-0.1,2.2-0.3,3.4-0.6c1.2-0.2,2.4-0.5,3.7-0.7C457.1,406.9,457.2,406.2,457.9,406z
		 M334.3,375.9c0.1,0.1,0.1,0.3,0.1,0.5c-0.3,0.1-0.6,0.1-0.8,0.2C333.6,376.4,333.7,376.2,334.3,375.9z M327.4,395.1
		c0,0,0.1-0.2,0.3-0.5c0.2,0.3,0.3,0.6,0.5,0.9C328,395.5,327.8,395.4,327.4,395.1z M332.7,400.4c-0.4,0-0.7-0.1-0.7-0.1
		c-0.1-0.2,0-0.5,0.1-0.6c0.3,0.2,0.7,0.5,1,0.7C333,400.4,332.8,400.4,332.7,400.4z M400.8,410.2c-0.3,0-0.5,0-0.6,0
		C400.3,410.2,400.5,410.2,400.8,410.2L400.8,410.2z M402.3,410.2c-0.1-0.2,0-0.4,0.3-0.4c-0.1,0.1,0.5,0.2,0.8,0.4
		C403.1,410.2,402.7,410.2,402.3,410.2z" style="fill:#EA7B44;"/>
	<path d="M327.8,377.2c0,0-0.1-0.1-0.2-0.1C327.6,377.1,327.7,377.1,327.8,377.2z" style="fill:#EA7B44;"/>
	<path d="M323.8,382.2l-0.1,0.9C323.8,382.7,323.8,382.4,323.8,382.2z" style="fill:#EA7B44;"/>
	<path d="M324,387c0.1,0,0.2,0.1,0.3,0.1l0,0L324,387z" style="fill:#EA7B44;"/>
	<path d="M390.6,372.4c0.1,0,0.1,0,0.2-0.1C391.1,372.1,390.9,372.2,390.6,372.4z" style="fill:#EA7B44;"/>
	<path d="M369.3,376c0.2-0.1,0.5-0.2,0.7-0.2C369.6,375.7,369.3,375.7,369.3,376z" style="fill:#EA7B44;"/>
	<path d="M415,366.2L415,366.2c0.1,0,0.1,0,0.2,0H415z" style="fill:#EA7B44;"/>
	<path d="M371,375.9c-0.4-0.1-0.7-0.1-1-0.1C370.3,375.9,370.7,375.9,371,375.9z" style="fill:#EA7B44;"/>
	<path d="M328.8,398.9c0.3,0.4,0.6,1.2,1.2,1.6l0.2-0.1C329.7,400.4,329.4,399.1,328.8,398.9z" style="fill:#EA7B44;"/>
	<polygon points="359.2,374.4 358.8,374.9 359.8,374.8 	" style="fill:#EA7B44;"/>
	<path d="M477.5,186.6c0.3,0.1,0.6,0.2,0.8,0.3c0.2,0.1,0.4,0,0.4-0.2c-0.7-0.2-0.7-0.5-1.5-0.4
		c-0.5-0.2-0.8-0.4-0.7-0.5c-0.2,0-0.8-0.2-1.1-0.1c0.7,0.3,1.4,0.5,2.3,0.8C477.8,186.6,477.6,186.6,477.5,186.6z" style="fill:#DC5D44;"/>
	<path d="M479.4,192.9c0.1-0.2,0.2-0.3,0.2-0.5C479.5,192.6,479.5,192.7,479.4,192.9L479.4,192.9z" style="fill:#DC5D44;"/>
	<path d="M462.8,186.8C462.8,186.8,462.9,186.8,462.8,186.8C462.9,186.8,462.9,186.8,462.8,186.8z" style="fill:#DC5D44;"/>
	<path d="M479.2,193.2c-0.1,0.1-0.2,0.2-0.4,0.4C479,193.4,479.1,193.2,479.2,193.2z" style="fill:#DC5D44;"/>
	<path d="M437.4,190.7c0.2,0.1,0.3,0.1,0.4,0.2C437.6,190.7,438.9,190.5,437.4,190.7z" style="fill:#DC5D44;"/>
	<path d="M479.3,192.8c0,0.1,0,0.2-0.1,0.3c0.1-0.1,0.1-0.2,0.2-0.3H479.3z" style="fill:#DC5D44;"/>
	<path d="M365.8,204.6l-1.4-0.1C364.8,204.6,365.3,204.6,365.8,204.6z" style="fill:#DC5D44;"/>
	<path d="M360.4,204.5c-0.2-0.1-0.5-0.2-0.8-0.2c-0.1,0-0.1,0-0.2,0.1L360.4,204.5z" style="fill:#DC5D44;"/>
	<path d="M372.4,194.1c0.1,0,0.2,0,0.3-0.1C372.6,194,372.5,194.1,372.4,194.1z" style="fill:#DC5D44;"/>
	<path d="M460.1,197.4c1-0.9,2.3-0.5,3.8-1.2c-1.4,0.7-0.2,0.3-0.3,0.6c0.4,0,1,0,0.9,0.1c0.7-0.4,1.3,0,2.2-0.5
		c0.1,0.1,0.8-0.1,0.7,0.1c0.9-0.3-0.3-0.1-0.2-0.3c1.4-0.6,3.5-0.3,5.6-1.1c1.6-0.5,2-0.8,3.3-1.3c0.1,0,0.2,0,0.4-0.1
		c0.1,0,0.1,0,0.1,0c0.1,0,0.1,0.1-0.1,0.2c-0.2,0.1-0.4,0.2-0.4,0.2c0.5,0,0.9-0.1,1.3-0.3s0.8-0.4,1.1-0.8c-0.1,0.2,0.1,0.1,0.4,0
		c0.3-0.3,0.2-0.5,0.3-0.7c0-0.2,0.1-0.4,0.3-0.8c0,0.2,0.1,0.5,0,0.9c0.4-1,0.3-2,0.1-2.9c0.1-0.1,0.2,0,0.2,0.2
		c0.1,0.2,0.1,0.5,0.2,0.7c0-0.6-0.2-1.3-0.5-1.9c-0.1-0.3-0.3-0.5-0.4-0.7c-0.2-0.2-0.3-0.3-0.4-0.3l0.2,0.6
		c-0.2-0.3,0.1-0.3,0.3,0c0.6,0.8,0.3,1.3,0.2,1.4l-0.2-0.6c-0.2,0.4,0,1,0.1,1.7c0,0.7-0.1,1.6-0.6,2.1c0,0,0-0.4,0-0.6
		c1.5-2.5-0.7-6.9-4.5-6.1h-0.1c0-0.2,0.1-0.3,0.1-0.5c0.1,0,0.2,0,0.4,0c0,0,0.1-0.1,0.2-0.2c0.1-0.1,0.2-0.2,0.2-0.2l-0.9,0.2l0,0
		c-0.2-0.2-0.5-0.3-1.4-0.3l-1.3,0.5l-0.5-0.1l1.1-0.2c-0.7-0.1-1.1,0.2-1.5,0.4c-0.1-0.1-0.3-0.1-0.6-0.1l-1.2,0.7
		c-0.2-0.1,0.5-0.5-0.4-0.4c-0.6,0.3,0.7,0.3-0.3,0.6c-0.7-0.1-0.5-0.3-1.2,0c-0.1-0.1,0-0.2,0.3-0.3c-0.6,0.3-1.8,0.4-2.1,0.7
		c-0.7-0.1-2.3,0.5-2.3,0c-0.2,0.1-1.1,0.5-1.7,0.7c1-0.7-2.3,0.4-2.1-0.3c-0.8,0.6-3,0.7-4.4,1.2c0.1,0,0.2-0.1,0.4-0.1
		c-0.8,0.1-1.1,0-1.7,0c0,0.4-1.3,0.7-2,1c-1.1-0.2,0.6-0.5,0.2-0.9c0.1,0.3-1.7,0.6-1.3,0.8c-0.8-0.1-0.7,0-1.1-0.3
		c-0.1,0.5-0.7,0.2-1.3,0.6c-1.2-0.1-0.4-0.4-1.6-0.1c-0.6-0.1,0.5-0.4,0.5-0.4c-1.3,0.2-0.5,0.4-0.8,0.7c-1.5,0.3-0.7-0.2-1.3-0.3
		c-0.9,0.2-1.6,0.6-2.3,0.7c-0.1-0.1-0.2-0.1,0-0.2c-1,0.4-3,0.4-4.1,0.9c-0.1,0-0.1,0-0.2-0.1c0.2,0.2,0.3,0.3,0.2,0.5
		c-0.6,0.1-1,0.4-1.3,0.2c0.4,0,0.4-0.1,0.5-0.2l-0.6,0.2c-0.6-0.3,0.8-0.2,0.8-0.5c-1.2,0.3-2.5,0.7-3.4,0.7
		c-0.2-0.3,2.1-0.3,0.9-0.5h1.4c-1.1-0.4,0.8-0.1-0.2-0.5c-1.8,0.1-2,0.4-3.9,0.5c-0.4,0.2,0.2,0.3-0.2,0.5c-2.6,0.6-2.1-0.6-4,0
		c-0.5,0.3-0.6,0.7-2,0.6l0.4-0.4c-1.8,0.1-1,0.6-2.8,0.5c0.3-0.2,1.4-0.2,1.1-0.3c-1.2-0.2-0.8,0.3-1.8,0.4l-0.2-0.3
		c-1.9,0.2-3.9,0.7-6,0.9c0.1-0.1,0.5-0.2,0-0.3c-2.6,0.4-5.6,0.3-8.2,0.3l-1,0.4c-0.2,0-0.4-0.1-0.2-0.2c-1-0.1,0,0.2-0.5,0.3
		c-0.6,0-0.8-0.1-0.4-0.2c-1.7,0.3-5,0.8-6.8,0.6l0.4-0.1c-1.4,0-1.6,0.7-2.9,0.5l0.3-0.1c-3.1,0-6.6,0.3-9,0
		c-0.4,0.4-3.1-0.2-3.3,0.4c-1.8-0.3-1.3-0.4-3.8-0.6c-0.7,0-1,0.4-1.8,0.4v-0.3l-1.1,0.3l-0.6-0.4l-0.8,0.1c0.3,0,0.7,0.1,0.6,0.2
		c-1.2,0.1-3-0.2-3-0.4l-2.9,0.2c0-0.1,0.3-0.1,0.6-0.2c-1.1,0.2-0.1-0.4-1.4-0.1c0.2,0.1-0.1,0.2-0.1,0.2c-0.7-0.2-2.3-0.2-3.5-0.2
		l0.2-0.2c-2.1-0.1-4.5,0-6.9-0.1c0.9,0.1,0.6,0.5-0.1,0.5l-0.3-0.3c-0.5,0.2,0.7,0.1-0.2,0.4c-0.9-0.1-0.6-0.4-0.1-0.5l-1.1,0.1
		c-0.1-0.1,0.2-0.1,0.3-0.3c-0.5,0.2-1.9-0.4-2.5-0.1l-0.1-0.1c-2.4-0.1-3.5-0.1-5.4-0.1c-0.1,0.3-0.8,0.2-1.4,0.4
		c-1.4-0.2-3-0.5-4.7-0.6c-1.2,0.1-0.4,0.2-0.9,0.3c-0.1-0.3-1.8-0.4-0.9-0.5c-2.1-0.1-2.6-0.1-5.3-0.1c0.3,0.1,0.6,0.2,0.4,0.3
		c-0.5,0-1.1-0.2-1-0.3h0.1c-3,0.1-6.7-1.3-9.1-1h0.1h-2.4c-1.1-0.2,0.7-0.1-0.1-0.4c-1.3,0.1-2.4,0-3.3-0.2
		c-0.5-0.1-0.9-0.2-1.6-0.2c-0.3,0-0.6,0-1,0.1c-0.3,0.1-0.7,0.2-1,0.4c-0.3,0-0.7,0.1-1,0.4c-0.2,0.1-0.4,0.2-0.5,0.4
		s-0.3,0.3-0.4,0.5c-0.5,0.8-0.9,1.8-0.9,2.8s0.2,2,0.7,2.9c0.4,0.9,1,1.6,1.5,2.1v-0.2c0.4,0.2,0.5,0.3,0.7,0.5
		c0.2,0.1,0.3,0.3,0.6,0.4c0-0.2-0.7-0.5-0.2-0.4c0.4,0.1,0.7,0.3,1.1,0.4c0.4,0.1,0.8,0.2,1.1,0.2c0.6,0.1,1.3,0.1,1.9,0.2
		c1.3,0.1,2.5,0.3,3.8,0.5l3.8,0.6c1.3,0.2,2.5,0.3,3.8,0.5c1.8,0.2,1.1-0.8,3.4-0.2l-0.7,0.3c3.8,0,7.6,0.5,11.3,0.5
		c-0.2,0.1-0.2,0.2-0.6,0.1c0.8,0.3,2.9,0.2,2.9,0c0.6,0,0.1,0.2,0.5,0.3c0.8,0.2,2-0.2,2.4,0c0.1,0-0.2,0.1-0.4,0.1
		c0.5-0.1,2.4,0.1,1.9-0.2c1.4,0.2,2.6,0,3.7,0.2c0.7-0.3,2.4,0.2,2.6-0.2c-0.1,0.4,2.4,0.4,3.3,0.2c-0.3,0.1,0.8,0.2,0.4,0.3
		c1,0,1.9,0,1.7-0.3c1.8,0.6,3.7-0.4,4.7,0.3c3-0.2,5.7-0.4,8.3-0.5c-0.1,0.5-2.9,0-2.8,0.5c2.5-0.2,4-0.6,6.5-0.5
		c0.6,0.1-0.4,0.2-0.6,0.3c2.5-0.2,4.9,0,7.1-0.3c0,0-0.2,0.1-0.5,0.1c0.4,0,1,0,1-0.2l-0.4,0.1c-0.7-0.3,1.7-0.7,1.8-0.8
		c-0.7,0.6,2.2,0.1,1,0.9c0.3,0,0.6-0.2,0.6-0.3c0.4,0,0.6,0.1,0.1,0.3c1.6-0.2,1-0.4,2.4-0.4c0,0.1-0.3,0.1-0.4,0.3
		c0.7-0.2,1.4-0.4,2.6-0.4c-0.1,0.1,0.1,0.1-0.3,0.1c2.1-0.1,3.5-0.7,5.8-0.6c-0.6,0.5,0.8,0.1,0.9,0.5l1.2-0.2l-0.5-0.2
		c1.1-0.1,2-0.4,2.9-0.3l-0.8,0.2l2-0.2l-1.1-0.1c1.1-0.3-0.1-0.5,1.3-0.5c-0.3,0.1,1.1-0.1,1.6,0.1l0,0c0.5-0.2,1.1-0.3,1.9-0.3
		c0.2,0.1-0.1,0.4,0,0.5c0.5-0.3,2.5-0.3,3.1-0.6c-0.2,0.1-0.2,0.3-0.1,0.3l0.4-0.3c0.5,0,0.6,0.1,0.5,0.2c1.5-0.1-0.5-0.4,1.3-0.4
		c-0.1,0-0.1,0.1-0.4,0.1c1.8-0.1,3.4-0.5,5.1-0.5c0.5,0.3-1.4,0.2-0.8,0.5c2.3-0.3,4.8-0.9,7.1-1h-0.4c0.3-0.6,1.7,0.1,2.8-0.3
		c-0.3,0.1-0.3,0.3-0.3,0.3c1.6-0.1,3.2-0.5,5.5-0.9l-0.3,0.2c0.9,0,2.4-0.2,3.4-0.3c0.3-0.2,0.8-0.2,0.5-0.4
		c3.1,0.4,5.8-1.1,8.5-0.9c-0.3,0-0.8,0.2-0.5,0.2l2.3-0.5c-0.2-0.2-0.3-0.1-0.8-0.2c0.3-0.2,0.9-0.4,1.5-0.5
		c-1,0.3,0.1,0.4,0.5,0.4c-0.1-0.1,0.1-0.2,0-0.2c1.3,0.2,0.1-0.5,1.8-0.5l-0.1,0.1c0.6-0.2,1.1-0.4,1.8-0.5
		c0.3,0.2-0.6,0.2-0.6,0.4c0.9-0.1,1.8-0.8,2.6-0.7c-0.4,0.1-0.9,0.2-1.3,0.4c1,0.2,1.1,0.1,1.7,0h-0.1l1.6-0.1L460.1,197.4z
		 M471.8,194.9l-0.4-0.2c0.3-0.1,0.7-0.1,1-0.2C472.3,194.6,472.2,194.7,471.8,194.9z M478.8,192.3c0,0.1-0.1,0.2-0.1,0.4
		c-0.2,0.3-0.4,0.6-0.4,0.6c-0.1,0.1-0.3,0-0.3,0l0,0C478.3,192.9,478.6,192.6,478.8,192.3z M417.4,193.1c-0.1,0-0.3,0-0.6,0.1l0,0
		C417,193.1,417.3,193.1,417.4,193.1z M415.4,193.3c0.1,0.1,0,0.2-0.2,0.2c0.1-0.1-0.5-0.1-0.8-0.1
		C414.6,193.3,415,193.3,415.4,193.3z M446.7,199c0-0.1-0.1-0.1-0.1-0.2c0.3,0,0.6-0.1,0.8-0.1C447.4,198.7,447.2,198.8,446.7,199z" style="fill:#DC5D44;"/>
	<polygon points="379.5,194.1 379.5,194.2 379.7,194.1 	" style="fill:#DC5D44;"/>
	<path d="M453,198.3c0,0,0.1,0,0.2,0C453.2,198.4,453.1,198.4,453,198.3z" style="fill:#DC5D44;"/>
	<path d="M459,197.5h0.9C459.5,197.5,459.2,197.5,459,197.5z" style="fill:#DC5D44;"/>
	<path d="M463.6,196.9c0-0.1,0.1-0.1,0.1-0.1l0,0L463.6,196.9z" style="fill:#DC5D44;"/>
	<path d="M390.4,204.3c-0.1,0-0.1,0-0.2,0C389.8,204.4,390.1,204.4,390.4,204.3z" style="fill:#DC5D44;"/>
	<path d="M412.3,202.6c-0.2,0.1-0.5,0.1-0.7,0.2C412,202.8,412.3,202.8,412.3,202.6z" style="fill:#DC5D44;"/>
	<path d="M366,204.6L366,204.6h-0.1H366z" style="fill:#DC5D44;"/>
	<path d="M411.6,202.8c-0.3,0-0.7,0-1,0.1C411,202.9,411.3,202.9,411.6,202.8z" style="fill:#DC5D44;"/>
	<path d="M479.7,187.9C479.7,187.9,479.6,187.9,479.7,187.9c-0.1,0,0.1,0.2,0.1,0.2
		C479.8,188.1,479.7,187.9,479.7,187.9z" style="fill:#DC5D44;"/>
	<path d="M479.5,187.6c0.1,0.1,0.1,0.2,0.2,0.2L479.5,187.6z" style="fill:#DC5D44;"/>
	<path d="M479.5,187.6c-0.1-0.2-0.2-0.4-0.4-0.5C479.1,187.2,479.5,187.6,479.5,187.6z" style="fill:#DC5D44;"/>
	<path d="M476.3,194.7c0.2,0,0.3,0,0.5,0s0.4-0.1,0.5-0.2v-0.1c-0.1,0.1-0.6,0.2-0.9,0.2c-0.4,0-0.7,0-0.9,0.1
		C475.7,194.7,476,194.7,476.3,194.7z" style="fill:#DC5D44;"/>
	<polygon points="422.4,202.3 422.7,202 421.8,202.2 	" style="fill:#DC5D44;"/>
	<path d="M466.1,189.2c-0.2-0.3,0.1-1.5-0.3-2c-0.5,1.2-0.4,2.8,0.1,4.4c-0.1,0.4-0.3,0-0.4-0.1c0.4,1.1,1,2.3,1.5,1.6
		c-0.7-1.1-0.4-1.3-1.2-2.5C465.6,189.8,465.9,189.1,466.1,189.2z" style="fill:#D4D4EA;"/>
	<path d="M467.4,204.2c0-0.3-0.1-0.6-0.2-0.8c0,0.3,0.1,0.5,0.1,0.8H467.4z" style="fill:#D4D4EA;"/>
	<path d="M444.3,179.2C444.3,179.2,444.3,179.3,444.3,179.2C444.4,179.2,444.5,179.2,444.3,179.2z" style="fill:#D4D4EA;"/>
	<path d="M467.3,204.7c0,0.3,0,0.5,0,0.8C467.4,205.2,467.4,204.9,467.3,204.7z" style="fill:#D4D4EA;"/>
	<path d="M394.5,186c0.4,0.1,0.6,0.3,0.8,0.4C395,186.1,397.4,185.7,394.5,186z" style="fill:#D4D4EA;"/>
	<path d="M467.1,204.3c0.1,0.1,0.2,0.2,0.3,0.5c0-0.2,0-0.4,0-0.5C467.2,204.2,467.1,204.1,467.1,204.3z" style="fill:#D4D4EA;"/>
	<path d="M417,391.4h-2.6C415.1,391.4,416,391.4,417,391.4z" style="fill:#D4D4EA;"/>
	<path d="M330.2,240.4c0,0.2,0,0.4,0.1,0.6L330.2,240.4z" style="fill:#D4D4EA;"/>
	<path d="M406.5,391.6c-0.5-0.2-1-0.3-1.5-0.4c-0.1,0-0.2,0.1-0.3,0.1L406.5,391.6z" style="fill:#D4D4EA;"/>
	<path d="M394.4,391.4c-0.2,0-0.3,0-0.4,0C394.1,391.4,394.3,391.4,394.4,391.4z" style="fill:#D4D4EA;"/>
	<path d="M466,195.6c0,0.1,0,0.2,0,0.3V195.6z" style="fill:#D4D4EA;"/>
	<path d="M330.3,249.4c0-0.1,0-0.1,0-0.2C330.3,249.3,330.3,249.4,330.3,249.4z" style="fill:#D4D4EA;"/>
	<path d="M465.4,361c0,0.1,0,0.2,0,0.3C465.4,361.1,465.4,361.1,465.4,361z" style="fill:#D4D4EA;"/>
	<path d="M467.7,228.9c0.2-0.1,0-1.6,0.5-1.2c-0.2-1.9-0.3,0.5-0.6,0.3c-0.7-2.9,0.7-6.8-0.3-11c-0.4-3.3-1-4.1-1.4-6.9
		c0-0.3,0-0.6,0-0.9c0.3-0.6,0.7,1.1,0.7,1.1c0.2-1.8,0.2-3.2-0.1-4.9c0.2,0.3,0.3,0,0.5-0.5c-0.1-1.4-0.7-0.9-0.5-2.7
		c0.2,0.3,0.6,0.7,0.8,1.4c-0.2-1.6-0.6-3.2-0.9-4.9c0.3-0.5,0.5,1,0.8,1.6c-0.2-1.9-0.5-4.9-1-5.4l-0.1,0.9c0.1-0.2,0.4,0,0.5,0.4
		c0.5,1.6-0.1,2.3-0.3,2.4l-0.2-1.2c-1.1,1.3,0.3,4.8,0.3,7.2l-0.7-0.8c-0.2-6.1-0.4-12.2-0.6-18.4c0-0.1,0-0.2,0-0.2
		c0.3,0.1,0.6,0.3,0.9,0.3c-0.1,0.2-0.1,0.4,0,0.7l0.7,0.6l-0.2-1.5l0,0c0.2-0.1,0.3-0.4,0.4-1c0-0.3,0-0.8-0.2-1.4
		c-0.2-0.5-0.6-1.2-1.2-1.8c0,0-0.3-0.2-0.6-0.3c-0.4-0.2-0.9-0.3-1.4-0.4c-0.2,0-0.5-0.1-0.7-0.1c-0.1,0-0.2,0-0.3,0
		c-0.1,0-0.1,0-0.2,0c-0.3,0-0.4,0-0.4,0l-0.8-0.5c0,0,0.6,0,1.1,0.1c0.2,0,0.3,0,0.4,0c0.2,0,0.4,0,0.5,0.1
		c0.3,0.1,0.5,0.1,0.5,0.1c-0.4-0.2-0.9-0.4-1.2-0.4c-0.3,0-0.5-0.1-0.8,0c-0.5,0-0.9,0.1-1.4,0.2c-0.2-0.3-0.6-0.5-1.1-0.6
		c0,0-0.7,0.1-1.4,0.3c-0.7,0.2-1.4,0.4-1.4,0.4c-0.3-0.4,1.2-0.7-0.5-1c-1.3,0.3,1.2,0.9-0.9,1c-1.3-0.5-0.9-0.8-2.4-0.5
		c-0.2-0.2,0.1-0.4,0.7-0.5c-1.4,0.3-3.6,0.1-4.3,0.6c-0.7-0.2-1.8-0.2-2.8-0.2s-1.7,0-1.7-0.4c-0.4,0.2-2.3,0.8-3.6,1
		c2.2-1.2-4.6,0.3-4.1-0.8c-1.6,1.1-6,1.1-8.8,2c0.2-0.1,0.5-0.3,0.7-0.3c-1.7,0.2-2.2-0.1-3.3-0.1c-0.1,0.8-2.6,1.4-3.9,2.1
		c-2.1-0.4,1.1-1.1,0.3-1.7c0.2,0.6-3.4,1.2-2.6,1.6c-1.6-0.2-1.3,0-2.2-0.5c-0.1,1-1.4,0.4-2.6,1.2c-2.3-0.1-0.7-0.8-3.1-0.1
		c-1.2-0.1,0.9-0.8,0.9-0.8c-2.5,0.4-1,0.9-1.5,1.4c-2.9,0.7-1.4-0.3-2.5-0.5c-1.8,0.5-3.1,1.4-4.5,1.5c-0.1-0.1-0.4-0.1-0.1-0.3
		c-1.9,0.9-5.7,0.8-7.9,1.8c-0.2,0-0.3-0.1-0.3-0.1c0.4,0.3,0.5,0.7,0.5,1c-1.1,0.1-2,0.7-2.5,0.2c0.7,0,0.7-0.2,1-0.4l-1.1,0.3
		c-1.1-0.6,1.6-0.4,1.5-0.9c-1.1,0.2-2.3,0.5-3.5,0.8c-1.1,0.2-2.2,0.4-3.1,0.4c-0.4-0.7,4-0.5,1.7-0.9c0,0,0.7,0,1.3,0
		c0.7,0,1.3,0,1.3,0c-2.1-0.9,1.6-0.1-0.3-1c-3.5,0.1-3.9,0.7-7.4,0.6c-0.8,0.4,0.3,0.5-0.5,1c-5,0.8-4-1.6-7.6-0.7
		c-0.9,0.5-1.3,1.3-4,0.8l0.9-0.7c-3.4-0.1-2,1-5.5,0.4c0.7-0.3,2.7-0.1,2.2-0.2c-2.3-0.7-1.7,0.4-3.4,0.3l-0.3-0.7
		c-3.6-0.1-7.7,0-11.7-0.4c0.2-0.2,1-0.3,0.1-0.6c-5.1-0.3-10.7-1.7-15.4-3.2l-2,0.1c-0.4-0.1-0.8-0.4-0.3-0.4
		c-0.2-0.1-0.4-0.1-0.6-0.2c-0.2,0-0.4-0.1-0.5-0.1c-0.2,0-0.2,0.1-0.1,0.2c0.2,0.2,0.5,0.4-0.3,0.5c-0.9,0-1.5,0-1.7,0
		s-0.2-0.2,0.4-0.4c-1.4,0.3-3,1.5-3.7,3.2c-0.2,0.4-0.3,0.9-0.4,1.4c0,0.2-0.1,0.5-0.1,0.7v0.4c0,0.6,0,1.2-0.1,1.8
		c-0.1,2.4-0.5,4.9-1,6.6l-0.1-0.7c-0.3,1.4-0.1,2.2,0.1,3c0,0.2,0.1,0.4,0.1,0.7s0.1,0.5,0.1,0.7c0.1,0.4,0.1,0.9,0,1.6l-0.1-0.5
		c0,6.1,0.7,12.8,0,17.4c0.9,0.8-0.2,6,1,6.4c-0.5,3.5-0.7,2.5-0.9,7.4c0,1.3,0.8,1.9,1,3.5l-0.6,0.1l0.7,2.2l-0.7,1.2l0.2,1.5
		c0-0.6,0.2-1.3,0.4-1.2c0.4,2.3-0.2,5.8-0.5,5.8l0.7,5.6c-0.2-0.1-0.3-0.6-0.4-1.2c0.4,2.1-0.7,0.2-0.1,2.7
		c0.1-0.4,0.4,0.2,0.5,0.2c-0.3,1.4-0.2,4.5,0,6.8l-0.4-0.4c0,4.1,0.5,8.7,0.7,13.4c0.1-1.7,0.9-1.3,1,0l-0.6,0.6
		c0.4,0.9,0.2-1.4,0.8,0.4c0,1.7-0.7,1.2-0.9,0.2l0.3,2.1c-0.2,0.1-0.3-0.4-0.6-0.5c0.4,0.9-0.5,3.7,0.2,4.9l-0.2,0.1
		c0.2,4.6,0.5,6.7,0.6,10.5c0.6,0.1,0.5,1.5,1,2.6c-0.1,2.8-0.4,5.9-0.2,9.2c0.4,2.3,0.5,0.7,0.9,1.7c-0.5,0.2-0.3,3.5-0.8,1.8
		c0.2,4,0.3,5.1,0.9,10.2c0.2-0.6,0.3-1.2,0.4-0.9c0.1,0.9-0.1,2.1-0.4,2l-0.1-0.2c1,5.7-1,13.2,0.2,17.7l-0.1-0.3l0.7,4.7
		c0,2.2-0.4-1.3-0.7,0.3c1,5.1,0.2,8,0.9,12.2c-0.7,1.7-0.6,4.4-0.5,7.4s0.3,6.3,0,8.6l0.3-0.3c0.5,1.2-0.1,1.5,0,2.4
		c0.3-0.2,0.1-1.3,0.4-0.6c0.4,2.5,0.9,5.1,2,7.7c0.5,1.3,1.3,2.6,2.2,3.8c0.9,1.2,2,2.2,3.3,3c2.4,1.7,5.1,2.7,7.8,3.3
		c1.3,0.3,2.5,0.5,3.8,0.8c1.2,0.2,2.5,0.5,3.7,0.7c3.6,0.6,2.3-1.5,6.7-0.1l-1.4,0.5c7.3,0.2,14.9,1.7,22.1,1.5
		c-0.4,0.1-0.5,0.3-1.2,0.3c1.5,0.6,5.6,0.4,5.6,0c1.1,0.1,0.2,0.4,0.9,0.6c1.5,0.3,3.8-0.4,4.6,0.1c0.1,0.1-0.1,0.1-0.3,0.1
		c1.3-0.1,4.1,0.2,3.3-0.4c2.7,0.3,5.1-0.2,7.3,0.2c1.4-0.6,4.6,0.3,5-0.6c-0.2,0.9,4.7,0.7,6.4,0.1c-0.6,0.3,1.5,0.2,0.8,0.6
		c1.9-0.1,3.7-0.3,3.3-0.8c1.8,0.4,3.6,0.1,5.2-0.2c1.6-0.3,3-0.6,4,0c2.9-0.4,5.6-1,8.3-1.4c2.7-0.5,5.2-0.9,7.8-1.5
		c0,1-5.7,0.9-5.3,1.8c2.4-0.5,4.3-1,6.2-1.5c0.9-0.3,1.9-0.5,2.9-0.7s2.2-0.4,3.5-0.7c1.4-0.3-0.6,0.6-1.1,0.8
		c2.6-0.8,5.1-1.9,7.2-3.6s3.6-4,4.2-6.4c0.1,0,0,0.6-0.2,1.1c0.4-0.9,0.9-2.1,0.5-2.1l-0.2,0.9c-0.6,0.6-0.5-0.4-0.4-1.5
		s0-2.4-0.1-2.5c0.4,0.8,0.7-0.2,1-1.2s0.6-1.8,1.1-0.5c0-0.6-0.1-1.3-0.4-1.2c0.2-0.8,0.4-1.1,0.6-0.2c0.1-1.6,0-2.1-0.1-2.6
		s-0.2-0.9-0.1-2.3c0.2,0,0.2,0.6,0.5,0.9c-0.3-1.5-0.6-2.9-0.4-5.2c0.1,0.1,0.2,0,0.3,0.3c0-3.9-0.8-6.7-0.3-11
		c0.8,1.3,0.3-1.5,1.1-1.7l-0.1-2.4l-0.4,0.9c0.1-2.1-0.4-3.9-0.1-5.7l0.2,1.6V339l-0.4,2.2c-0.3-2.1-1,0.2-0.6-2.6
		c0.1,0.6,0.1-2.1,0.6-3.1l0,0c-0.2-1-0.4-2.1-0.2-3.6c0.3-0.4,0.8,0.4,1,0.1c-0.6-1,0-4.9-0.6-6.2c0.1,0.4,0.5,0.5,0.6,0.3
		l-0.5-0.9c0.2-1,0.3-1.1,0.6-0.9c0.2-2.9-1,0.9-0.4-2.5c0,0.3,0.1,0.1,0.2,0.7c0.3-3.4-0.1-6.7,0.3-9.8c0.8-0.9,0.1,2.8,0.8,1.7
		c0-4.6-0.5-9.5-0.2-13.9l-0.1,0.8c-1-0.6,0.6-3.3,0.1-5.5c0.1,0.5,0.6,0.7,0.5,0.6c0.2-3-0.1-6.2-0.4-10.8l0.3,0.6
		c0.3-1.8,0.2-4.7,0.4-6.6c-0.3-0.6-0.2-1.7-0.6-1c1.6-5.9-0.7-11.4,0.6-16.6c0,0.6,0.2,1.5,0.2,1l-0.2-4.5
		c-0.5,0.4-0.3,0.6-0.6,1.5c-0.3-0.6-0.5-1.8-0.5-3c0.3,2,0.7,0,1-0.9c-0.1,0.1-0.3-0.2-0.4-0.1c0.8-2.4-0.9-0.4-0.4-3.6l0.2,0.2
		c-0.1-1.2-0.4-2.3-0.4-3.6c0.5-0.5,0.3,1.3,0.7,1.4c0-1.8-1-3.6-0.5-5.2c0.2,0.8,0.2,1.9,0.3,2.7c0.6-1.8,0.5-2,0.5-3.3v0.1
		l0.3-3.1l-0.2,0.8c-1.4-2.3-0.3-4.6-1.2-7.7c0.9,3,0.5,0.5,1.1,0.7c0.2-0.8,0.3-2,0.5-1.6C467.6,231.9,468.4,230.9,467.7,228.9z
		 M466.3,206c-0.1,0.3-0.3,0.6-0.5,0.5c0-0.8,0-1.6-0.1-2.4L466.3,206z M354.8,186.3c0.5,0.1,0.9,0.1,1.2,0.1
		C355.7,186.4,355.4,186.3,354.8,186.3L354.8,186.3z M352,185.9c0.1,0.2-0.1,0.4-0.6,0.3c0.3-0.1-0.8-0.4-1.5-0.7
		C350.5,185.7,351.3,185.8,352,185.9z M466.9,268.2c-0.1,0.1-0.3,0.1-0.5,0.1c0-0.5,0-1.1,0-1.6
		C466.6,266.7,466.8,267.1,466.9,268.2z M466.1,219.5c0-0.7,0-1.3,0-2c0.1,0.1,0.3,0.5,0.5,1.3L466.1,219.5z" style="fill:#D4D4EA;"/>
	<path d="M330.3,249.2c0-0.1-0.1-0.2-0.1-0.4C330.2,249,330.3,249.1,330.3,249.2z" style="fill:#D4D4EA;"/>
	<polygon points="329.8,235.6 329.9,235.6 329.8,235.2 	" style="fill:#D4D4EA;"/>
	<path d="M467.5,255.8c0-0.1,0.1-0.2,0.1-0.4C467.6,255.4,467.6,255.6,467.5,255.8z" style="fill:#D4D4EA;"/>
	<path d="M467.6,244.1l0.2-1.7C467.7,243.2,467.6,243.7,467.6,244.1z" style="fill:#D4D4EA;"/>
	<path d="M467.8,235.1c-0.1-0.1-0.2-0.1-0.2-0.2l0,0L467.8,235.1z" style="fill:#D4D4EA;"/>
	<path d="M463.2,378.3c-0.1,0.1-0.1,0.3-0.1,0.4C462.7,379.5,463,379,463.2,378.3z" style="fill:#D4D4EA;"/>
	<path d="M465.5,335.3c0.1,0.5,0.2,0.9,0.2,1.4C465.7,335.9,465.8,335.3,465.5,335.3z" style="fill:#D4D4EA;"/>
	<path d="M417.3,391.4L417.3,391.4c-0.1,0-0.2,0-0.3,0H417.3z" style="fill:#D4D4EA;"/>
	<path d="M465.6,338.6c0.1-0.8,0.1-1.4,0.1-2C465.6,337.3,465.5,338,465.6,338.6z" style="fill:#D4D4EA;"/>
	<path d="M467.2,195.8C467.2,195.8,467.1,195.8,467.2,195.8v0.4V195.8z" style="fill:#D4D4EA;"/>
	<path d="M467,195.3c0,0.2,0,0.4,0.1,0.5L467,195.3z" style="fill:#D4D4EA;"/>
	<path d="M467,195.3c0-0.3,0-0.8-0.2-1L467,195.3z" style="fill:#D4D4EA;"/>
	<path d="M467.4,211.7c0-0.9,0.4-2.2,0.2-3.4l-0.2-0.1C467.8,208.8,467.1,210.9,467.4,211.7z" style="fill:#D4D4EA;"/>
	<polygon points="466.7,316.9 467,315.7 466.6,315.1 	" style="fill:#D4D4EA;"/>
	<path d="M415.3,373.6c-0.2-0.3-0.4-0.5-0.5-0.7s-0.1-0.3-0.1-0.3c-0.2-0.1-0.9-0.8-1.3-0.7c0.7,0.6,1.5,1.2,2.2,2.2
		c0,0.3-0.1,0.1-0.2,0c0.1,0.2,0.2,0.3,0.4,0.5c0.1,0.2,0.2,0.3,0.3,0.4c0.2,0.2,0.4,0.3,0.4,0c-0.3-0.4-0.4-0.6-0.5-0.8
		C415.9,374.1,415.7,373.9,415.3,373.6z" style="fill:#FFFFFF;"/>
	<path d="M411.4,380.8c0.2,0,0.4,0,0.6,0C411.8,380.7,411.7,380.7,411.4,380.8C411.5,380.7,411.4,380.7,411.4,380.8z" style="fill:#FFFFFF;"/>
	<path d="M396.9,369.5L396.9,369.5C397,369.5,397,369.5,396.9,369.5z" style="fill:#FFFFFF;"/>
	<path d="M411.1,380.7c-0.2,0-0.4,0-0.5,0C410.8,380.7,411,380.7,411.1,380.7z" style="fill:#FFFFFF;"/>
	<path d="M362.9,366.7c0.2,0.1,0.4,0.2,0.5,0.3C363.3,366.8,364.9,366.9,362.9,366.7z" style="fill:#FFFFFF;"/>
	<path d="M411.4,380.6c-0.1,0.1-0.2,0.1-0.3,0.1c0.1,0,0.3,0,0.4,0C411.5,380.7,411.5,380.6,411.4,380.6z" style="fill:#FFFFFF;"/>
	<path d="M343,285.2v-1.8C343,283.9,343,284.6,343,285.2z" style="fill:#FFFFFF;"/>
	<path d="M353.6,294.1c0-0.2,0-0.3,0-0.4V294.1z" style="fill:#FFFFFF;"/>
	<path d="M343,278.1c0.1-0.3,0.2-0.7,0.2-1c0-0.1,0-0.2-0.1-0.2L343,278.1z" style="fill:#FFFFFF;"/>
	<path d="M343,270c0-0.1,0-0.2,0-0.2S343,269.9,343,270z" style="fill:#FFFFFF;"/>
	<path d="M343.6,329.1c0-0.1,0-0.1,0-0.2C343.6,329,343.6,329.1,343.6,329.1z" style="fill:#FFFFFF;"/>
	<path d="M353.7,288c0,0.1,0,0.2,0.1,0.4C353.7,288.2,353.7,288.1,353.7,288z" style="fill:#FFFFFF;"/>
	<path d="M416,377.2c0,0,0-0.1,0.1-0.2C416.1,377,416,377.1,416,377.2z" style="fill:#FFFFFF;"/>
	<path d="M416.1,376.9c0.1-0.1,0.2,0.1,0.2,0.4c0,0.6-0.3,1.1-0.5,1.3c-0.2,0.2-0.4,0.3-0.5,0.3c0,0,0.1-0.2,0.2-0.4
		c0.1-0.2,0.2-0.4,0.2-0.4c-0.4,0.3-0.8,1-1.6,1.5c-0.8,0.5-2,0.7-2.8,0.6l0.6-0.3h0.1c5.1,0.4,5.1-7.6,0-8c-0.1,0-0.1,0-0.2,0
		c0.1-0.1,0.2-0.3,0.3-0.4c0.1,0,0.3,0.1,0.5,0.1c0,0,0.1-0.1,0.3-0.1c0.1-0.1,0.3-0.1,0.3-0.1l-1.1-0.1l0,0
		c-0.1-0.2-0.6-0.4-1.8-0.7l-1.8,0.1l-0.6-0.3l1.5,0.1c-0.8-0.3-1.4-0.1-2-0.1c-0.1-0.1-0.4-0.2-0.7-0.3l-1.8,0.3
		c-0.2-0.2,0.8-0.3-0.4-0.5c-0.8,0.1,0.8,0.5-0.6,0.5c-0.8-0.3-0.6-0.4-1.6-0.3c-0.1-0.1,0.1-0.2,0.5-0.2c-0.9,0.1-2.4-0.1-2.9,0.1
		c-0.9-0.3-3.1-0.2-2.9-0.6c-0.3,0.1-1.6,0.2-2.4,0.2c1.6-0.4-3.1-0.3-2.7-0.8c-1.2,0.4-4.1-0.1-6.1,0c0.1,0,0.3-0.1,0.5-0.1
		c-1.1-0.1-1.4-0.3-2.1-0.4c-0.2,0.4-1.9,0.3-2.9,0.5c-1.3-0.5,0.9-0.4,0.5-0.8c0,0.3-2.4,0.1-2,0.4c-1-0.3-0.9-0.2-1.4-0.6
		c-0.2,0.5-1,0-1.9,0.2c-1.5-0.4-0.4-0.5-2-0.5c-0.8-0.2,0.7-0.3,0.7-0.3c-1.7-0.2-0.8,0.3-1.2,0.5c-2-0.1-0.9-0.4-1.6-0.6
		c-1.3,0-2.3,0.2-3.2,0.1c-0.1-0.1-0.2-0.1,0-0.2c-1.4,0.2-4-0.4-5.5-0.2c-0.1,0-0.2-0.1-0.2-0.1c0.2,0.2,0.2,0.4,0.2,0.5
		c-0.8-0.1-1.4,0.1-1.7-0.2c0.5,0.1,0.5,0,0.7-0.1h-0.8c-0.7-0.4,1.1,0,1.1-0.3c-1.6,0-3.4,0-4.5-0.4c-0.1-0.2,0.6,0,1.1,0
		c0.5,0.1,0.9,0.1,0.1-0.2c0,0,0.4,0.1,0.9,0.2c0.4,0.1,0.9,0.2,0.9,0.2c-1.3-0.7,1.1,0.2-0.1-0.6c-1.1-0.2-1.8-0.3-2.4-0.4
		s-1.2-0.2-2.1-0.7c-0.5-0.1,0,0.3-0.5,0.2c-1.3-0.7-1.4-1.5-1.5-2s0-0.9-0.6-1.9c-0.4-0.5-0.9-0.7-0.9-2.4l0.5,0.5
		c-0.1-1.1-0.3-1.4-0.4-1.8c-0.1-0.3-0.2-0.7-0.1-1.9c0.1,0.4,0.2,1.8,0.2,1.5c0.2-1.6-0.3-1.1-0.3-2.3l0.3-0.3c0-2.5-0.3-5.3-0.4-8
		c0.1,0.2,0.2,0.6,0.3,0c-0.2-3.5,0-7.5,0.2-10.9l-0.3-1.3c0-0.3,0.1-0.6,0.2-0.2c0.1-1.3-0.2-0.1-0.3-0.7c0-0.7,0.2-1,0.3-0.5
		c-0.3-2.3-0.5-6.6-0.2-9.1l0.1,0.5c0.1-1.9-0.6-2.2-0.3-3.9l0.1,0.3c0.1-4.1-0.1-8.7,0.3-11.9c-0.4-0.6,0.2-4.1-0.4-4.4
		c0.3-2.4,0.4-1.7,0.6-5c0-0.9-0.4-1.3-0.4-2.4h0.3l-0.3-1.5l0.4-0.8l-0.1-1c0,0.4-0.1,0.9-0.2,0.8c-0.1-1.6,0.2-3.9,0.4-4l-0.3-3.8
		c0.1,0.1,0.1,0.4,0.2,0.8c-0.2-1.4,0.4-0.1,0.1-1.8c-0.1,0.2-0.2-0.1-0.2-0.2c0.2-0.9,0.2-3,0.1-4.6l0.2,0.3c0.1-2.8-0.1-6-0.1-9.1
		c-0.1,1.1-0.5,0.9-0.5-0.1l0.3-0.4c-0.2-0.6-0.1,1-0.4-0.3c0-1.2,0.4-0.8,0.5-0.1l-0.1-1.4c0.1-0.1,0.1,0.3,0.3,0.3
		c-0.2-0.6,0.3-2.5,0-3.3l0.1-0.1c0-3.2-0.1-4.6-0.1-7.2c-0.3-0.1-0.2-1.1-0.4-1.8c0.1-1.9,0.3-4,0.3-6.3c-0.1-1.6-0.2-0.5-0.4-1.2
		c0.3-0.1,0.2-2.4,0.4-1.2c0-2.7-0.1-3.5-0.3-7c-0.1,0.4-0.2,0.8-0.2,0.6c0-0.6,0.1-1.4,0.2-1.3v0.2c-0.4-3.9,0.7-9,0.2-12.1v0.2
		l-0.3-3.2c0-1.5,0.2,0.9,0.4-0.2c-0.2-1.7-0.2-3.1-0.2-4.4c0-0.3,0-0.7,0-1.1c0-0.4-0.1-0.8-0.3-1.2c-0.1-0.4-0.4-0.8-0.6-1.1
		c-0.3-0.3-0.6-0.7-1-0.9c-0.4-0.6-1.4-1.1-2.5-1.3s-2.5,0.1-3.7,0.8c-1.2,0.8-2,2.2-2.2,3.4c0,0.3-0.1,0.6-0.1,0.9
		c0,0.2,0,0.5,0,0.7c0,0.4-0.1,0.9-0.1,1.2l0.2-0.2c0.2,0.8-0.1,0.9-0.1,1.5c0.1-0.1,0.2-0.8,0.3-0.4c0.2,6.5-0.3,13.5-0.4,20.2
		c0,2.5,0.9,1.4,0.5,4.5l-0.3-0.9c0.4,4.9,0,10.1,0.3,15c-0.1-0.3-0.2-0.3-0.2-0.8c-0.2,1,0,3.8,0.2,3.8c0,0.8-0.2,0.2-0.3,0.6
		c-0.1,1,0.3,2.6,0.1,3.1c0,0.1-0.1-0.1-0.1-0.3c0.1,0.9,0,2.8,0.2,2.2c-0.1,1.8,0.1,3.5,0,4.9c0.3,0.9-0.1,3.1,0.3,3.4
		c-0.5-0.1-0.4,3.2-0.1,4.3c-0.1-0.4-0.1,1-0.3,0.5c0,1.3,0.1,2.5,0.3,2.3c-0.5,2.4,0.4,4.9-0.3,6.2c0.2,3.9,0.4,7.5,0.5,11
		c-0.5-0.1,0-3.9-0.5-3.7c0.2,3.3,0.6,5.2,0.5,8.5c-0.1,0.9-0.2-0.5-0.3-0.8c0.2,3.3,0,6.4,0.2,9.4c0,0-0.1-0.3-0.1-0.6
		c0,0.6-0.1,1.4,0.1,1.3l-0.1-0.6c0.3-0.9,0.6,2.3,0.8,2.4c-0.6-1-0.1,2.9-0.9,1.3c0,0.4,0.1,0.9,0.3,0.8c0,0.6-0.1,0.7-0.3,0.2
		c0.1,2.1,0.3,1.3,0.3,3.2c-0.1,0-0.1-0.4-0.3-0.6c0.2,1,0.4,1.9,0.3,3.5c-0.1-0.1-0.1,0-0.1-0.2c0.1,2.6,0.5,4.6,0.3,7.5
		c-0.4-0.9-0.1,1-0.5,1.2l0.1,1.6l0.2-0.6c0,1.4,0.2,2.7,0,3.9l-0.1-1.1v2.7l0.2-1.5c0.1,1.4,0.5-0.1,0.3,1.7c0-0.4-0.1,1.4-0.3,2.1
		l0,0c0.1,0.7,0.2,1.4,0.1,2.5c-0.1,0.3-0.4-0.2-0.5-0.1c0.3,0.7,0,3.3,0.4,4.2c-0.1-0.3-0.3-0.3-0.3-0.2l0.3,0.6
		c-0.1,0.7-0.1,0.8-0.3,0.7c0,2,0.4-0.7,0.4,1.7c0-0.2-0.1-0.1-0.1-0.5c0,2.4,0.5,4.6,0.9,6.7c-0.2,0.7-0.5-1.9-0.6-1.1
		c0.6,3.1,2.1,6.3,3.8,8.9l-0.3-0.5c0.3,0,0.6,0.5,1,1.2c0.2,0.3,0.4,0.6,0.7,1c0.3,0.3,0.6,0.6,0.9,0.8c-0.3-0.2-0.6-0.1-0.5-0.1
		c1.6,1.5,3.7,2.6,6.9,3.1h-0.4c1.2,0.4,3.2,0.7,4.5,1c0.4-0.1,1.2,0.1,0.7-0.2c4,1.3,7.8,0.3,11.3,1.2c-0.4,0-1,0.1-0.7,0.1h3.1
		c-0.2-0.2-0.4-0.2-1-0.4c0.4-0.1,1.3-0.2,2-0.1c-1.4,0.1,0,0.4,0.6,0.5c-0.1-0.1,0.1-0.1,0.1-0.2c1.6,0.5,0.3-0.5,2.5-0.1l-0.1,0.1
		c0.8,0,1.6-0.1,2.5,0c0.3,0.3-0.9,0.1-0.9,0.3c1.2,0.1,2.5-0.3,3.6,0c-0.5,0-1.3,0-1.8,0c1.2,0.4,1.3,0.3,2.2,0.5H385l2.1,0.3
		l-0.5-0.1c1.6-0.6,3.2,0.1,5.3-0.1c-2.1,0.3-0.4,0.2-0.5,0.5c0.5,0.1,1.3,0.3,1.1,0.4c1-0.2,1.6,0.3,3,0.1c0.1,0.1,1.1,0.1,0.8,0.3
		c1.3,0-0.3-0.2-0.2-0.3c2-0.2,4.6,0.8,7.5,0.6c2.3,0,2.9-0.2,4.7-0.2c0.2,0,0.4,0,0.6,0.1c0.4,0.2-0.8,0.2-0.8,0.2
		c1.2,0.2,2.2,0.3,3.3,0.3c-0.2,0.1,0,0.2,0.3,0.3c0.9,0,0.6-0.2,2-0.2c-0.2,0.1-0.5,0.3-1,0.4c0.3,0,0.6-0.1,1-0.1
		c0.3-0.1,0.6-0.2,0.9-0.3c0.3-0.2,0.6-0.3,0.8-0.6c0.2-0.2,0.5-0.4,0.6-0.7c0.2-0.1,0.1,0.1,0,0.4c-0.2,0.2-0.5,0.6-0.7,0.7
		c0.7-0.4,1.3-1.3,1.5-2.1c0.2-0.8,0.1-1.5,0-1.7C416.2,376.3,416.1,376.7,416.1,376.9z M353.2,346.9c0,0.3,0,0.6,0,0.8
		C353.2,347.5,353.2,347.3,353.2,346.9L353.2,346.9z M353.2,343.5c0,0.4,0,0.9,0,1.4c-0.1,0.1-0.2,0-0.2-0.3
		C353.1,344.8,353.1,344,353.2,343.5z M368.1,376.9c0-0.1-0.1-0.2,0-0.2c0.4,0,0.7,0.1,1.1,0.1C369.1,376.8,368.8,376.9,368.1,376.9
		z M401.6,379.3l-0.4-0.3c0.4,0,0.9,0.1,1.3,0.1C402.4,379.2,402.1,379.3,401.6,379.3z M410.3,380.1c-0.2-0.1-0.4-0.2-0.3-0.3
		c0.5,0,1.1,0.1,1.6,0.1L410.3,380.1z" style="fill:#FFFFFF;"/>
	<polygon points="353.7,297.4 353.6,297.4 353.7,297.7 	" style="fill:#FFFFFF;"/>
	<path d="M376.5,377.7c0,0,0.1,0.1,0.2,0.1C376.7,377.7,376.6,377.7,376.5,377.7z" style="fill:#FFFFFF;"/>
	<path d="M384.4,378.3l1.1,0.2C385,378.4,384.7,378.3,384.4,378.3z" style="fill:#FFFFFF;"/>
	<path d="M390.5,378.9c0.1,0,0.1-0.1,0.1-0.1l0,0L390.5,378.9z" style="fill:#FFFFFF;"/>
	<path d="M343.4,317.7c0-0.1,0-0.2,0-0.2C343.3,316.9,343.3,317.3,343.4,317.7z" style="fill:#FFFFFF;"/>
	<path d="M343.7,346.6c0-0.3-0.1-0.6-0.1-0.9C343.6,346.2,343.6,346.6,343.7,346.6z" style="fill:#FFFFFF;"/>
	<path d="M343,285.4L343,285.4c0-0.1,0-0.1,0-0.2V285.4z" style="fill:#FFFFFF;"/>
	<path d="M343.6,345.7c0-0.4,0.1-0.9,0.1-1.3C343.6,344.9,343.6,345.3,343.6,345.7z" style="fill:#FFFFFF;"/>
	<path d="M416.5,377.6l0.1-0.3l0,0L416.5,377.6z" style="fill:#FFFFFF;"/>
	<path d="M416.6,376.8c0,0.2,0,0.3,0,0.4C416.6,377.2,416.6,376.8,416.6,376.8z" style="fill:#FFFFFF;"/>
	<path d="M416.6,376c0,0,0.1,0.2,0,0.4c0,0.2,0,0.4,0,0.4C416.6,376.5,416.7,376.2,416.6,376z" style="fill:#FFFFFF;"/>
	<path d="M406.4,380.3c0.6,0.1,1.4,0.3,2.3,0.3l0.1-0.1C408.3,380.7,406.9,380.1,406.4,380.3z" style="fill:#FFFFFF;"/>
	<path d="M343.9,359.9c-0.1-0.3-0.1-0.6-0.1-0.6s0,0.2,0,0.4c0,0.2,0,0.4,0,0.4l0.3,0.4
		C344.1,360.5,344,360.2,343.9,359.9z" style="fill:#FFFFFF;"/>
</g>
</svg>
