<?xml version="1.0" encoding="utf-8"?>
<!-- Generator: Adobe Illustrator 21.0.0, SVG Export Plug-In . SVG Version: 6.00 Build 0)  -->
<svg version="1.1" xmlns="http://www.w3.org/2000/svg" xmlns:xlink="http://www.w3.org/1999/xlink" x="0px" y="0px" viewBox="0 0 3237.8 3681.3" style="enable-background:new 0 0 3237.8 3681.3;" xml:space="preserve">

<path d="M1140.1,2908.7c101.7,92.6,215.6,177.9,348.5,213.3c215.8,57.5,449-27.6,624.2-166.2
	c134.9-106.7,250.6-263.7,235.7-434.9c-11.7-134-100.6-248.3-197-342.2c-291-283.3-686.9-456.3-1092.5-477.3
	c-107.4-5.6-225.9,3.3-304,77.3c-93.3,88.4-94.4,236-71.7,362.5C740.9,2462.7,901.8,2691.9,1140.1,2908.7z" style="fill:#E5E5E5;"/>
<path d="M1796.5,2758c-20,4.2-40.3,7.1-60.9,8.6c-180.4,12.9-356.1-87.9-467.7-230.2
	c-123.9-157.9-169.1-352.4-208-544.9c-2.2-10.8-4.3-21.7-5.5-32.7c-1.1-10.4-4.2-18.7-13.3-25.3c-69.2-50.2-57-175.7-56.9-251.6
	c0-23.8,0-47.9,5.6-71.1c9-37.5,33.5-50.7,56.1-77.7c2.3-2.7,2.3-7.7,2.7-11.6c18.6-197.6,28.7-420.9,166.3-577.9
	c118.8-135.7,310.4-186.3,490.7-184.7c190.2,1.7,393.2,63.4,505.1,217.2c86.9,119.3,112.3,278.3,127.9,421.8
	c4.4,40.8,9.1,81.8,10.9,122.9c0.3,6.5,0.9,12.3,7.1,16.6c41.8,28.7,55.4,70,57.1,118.9c2.1,59.9-0.6,119.9-8.1,179.3
	c-5.5,43.6-18.6,72.5-52.3,100.8c-6.2,5.2-8.1,12-9.4,19.2c-1,5.8-2.1,11.5-3.1,17.3c-31.8,179.9-76.4,362.7-178.1,517.4
	C2077.6,2619.8,1946.6,2726.2,1796.5,2758z" style="fill:#FFA1AF;"/>
<g>
	<path d="M1504.6,2225.9c5.7-9.2,14.3-11.2,23.1-13c10-2,20-4.3,30.1-6.1c4.1-0.8,8.4-0.6,12.6-0.9
		c11.5-0.8,23.1-1.5,34.6-2.2c1.9-0.1,3.9,0,5.8,0.3c7.4,1.5,14.8,3.3,22.3,4.6c12.5,2.1,25.1,3.8,37.7,5.8
		c25.7,4.1,50.9-1.2,76.3-3.8c12.7-1.3,25.3-2.6,38-3.6c5.9-0.5,11.7,0.5,16.7,4.4c1,0.8,2.7,1.1,4,1.2c14.3,0.5,28.6,1,43,1.4
		c9.5,0.3,19-0.1,28.4,0.7c8.7,0.7,17.6,1.5,23.9,9.3c0.9,1.1,4.1,0.8,6.1,0.6c3.3-0.4,6.6-1.6,10-1.7c4-0.1,6.9,2,8.9,5.7
		c2.9,5.5,6.5,10.5,9.3,16c0.7,1.3-0.2,4.3-1.4,5.5c-8.9,9.3-18.3,18.2-27.2,27.5c-20.3,21-44.5,36.1-71.5,46.8
		c-3.7,1.5-8.2,0.9-12.4,1.2c-1.3,0.1-2.6-0.3-3.8,0c-17.7,5.1-35.8,7.6-54,8c-17.4,0.4-34.8-0.9-52.3-0.7
		c-11.6,0.1-23.1,1.4-34.6,2.4c-14.4,1.3-28.7,0.7-42.9-1.7c-1.6-0.3-3-1.3-4.6-1.6c-2.6-0.5-5.2-0.9-7.8-1.1
		c-7.8-0.7-15.7-0.5-23.2-2.1c-10-2.1-19.7-5.5-29.5-8.2c-1.2-0.3-2.8-0.9-3.6-0.4c-4.6,2.9-8.9,1.2-13-0.9
		c-29.5-14.7-57.4-31.8-81.9-54.1c-4.5-4-9.4-7.6-13.9-11.6c-1.1-0.9-1.6-2.6-2.3-3.9c1.1-0.5,2.4-0.9,3.4-1.7
		c1.9-1.4,4.1-2.6,5.4-4.5c4-5.7,7.7-11.8,11.6-17.6c0.9-1.3,2.3-3.1,3.4-3.1C1487.5,2222.9,1496.5,2217.7,1504.6,2225.9z" style="fill:#F28CA0;"/>
</g>
<g>
	<path d="M1935.4,2249c-17.3-10-36.5-14.5-55.1-20.5c-19.7-6.4-39.6-7-60-6.4c-16.8,0.4-33.2,2.7-49.4,6.8
		c-24.5,6.2-49.6,5.2-74.5,5.7c-30.4,0.6-60-4.3-89.8-9.7c-27.8-5-56.4-6.3-84.4,2.4c-19.8,6.1-40.1,10.8-58.1,21.5
		c-0.4,0.2-0.9,0.2-1.8,0.3c0.3-1,0.5-1.8,0.8-2.4c10.4-22.2,24.5-41,44.7-55.9c17.2-12.6,34.2-25.2,53.9-33.5
		c20.4-8.7,40.9-17.5,63.7-17.7c13.9-0.1,25.8,4.7,36,14c22.8,20.9,52.6,21.1,75,0.1c16.3-15.2,35.8-17.1,55.9-11.9
		c33.9,8.9,65.9,22.1,92.8,45.5c9.6,8.3,20.1,15.8,28.8,25C1923.7,2222.7,1929.8,2235.7,1935.4,2249z" style="fill:#E27991;"/>
</g>
<g>
	<g>
		<path d="M1690.7,759.2c16,0.4,32,0.6,47.9,1.4c159.5,8.5,320.9,49.1,433.3,170.5c67.5,72.9,109.2,166.6,133.8,262.8
			c25.5,99.7,35.1,203.6,42.8,305.9c0.7,9.9,2,19.7,3.1,29.5c0.1,1.1,0.3,2.5,1,3.2c5.3,4.8,10.6,9.6,16,14.3
			c3.8,3.3,7.7,6.4,12.1,10.1c-25.4,21-49.9,41.3-75.1,62.1c-0.7-6.5-1.5-12.1-2-17.8c-0.8-8.8-1.5-17.5-2.3-26.3
			c-6-72.5-3.4-145.7-14.6-217.7c-10.7-68.2-36.1-137-87.2-183.4c-59.9-54.4-144.6-69.7-224.5-82.7c-23.1-3.8-284.2-46.4-284.2-36.8
			C1690.7,955.9,1690.7,857.6,1690.7,759.2z" style="fill:#B45116;"/>
	</g>
</g>
<path d="M1711.4,759.4c0,8.7-0.1,16.8,0,24.9c2.4,199.3,4.5,399.3-0.1,598.5c-1,43.1-32.3,75.7-52.3,110.8
	c-5.4,9.5,6.1,31.9,9.3,41.6c11,33.5,13.5,68.9,14,104c0.5,34.5,1.9,68.8-4.1,103c-7.3,41.8-24.3,82.7-53.7,113.3
	c-42.6,44.3-104.8,63.3-163.9,72.5c-16.7,2.6-33.7,3-50.6,4.2c-3,0.2-4.8,1.2-6.7,3.7c-5.8,7.6-12.2,14.8-18.3,22.3
	c-53.6,65.2-147.2,63.4-223.4,73.5c-10.8,1.4-21.5,2.9-33.1,4.4c2.6,7.7,4.9,14.4,7,21.2c30.8,101.6,59.8,203,112.2,296.1
	c55,97.6,134.7,179.6,235.1,230.3c4.3,2.2,8.9,4.5,13.6,5.2c2.9,0.4,6.8-1.3,9.3-3.3c7.1-5.8,15.3-8.9,23.9-11.8
	c9.8-3.3,18.9-8.6,28.4-12.9c4.7-2.2,9.4-4.6,14.3-6.1c3.4-1,3.9-2.3,3.1-5.5c-6-23.2-12.2-46.4-17.3-69.8
	c-1.4-6.2,0.7-13.1,1.1-19.8c0.5-7.5,3.4-12.9,10.5-16.7c6.1-3.3,11.3-6.7,18.9-6.5c20.7,0.6,41.5,0.2,62.2,0.2
	c21.5,0.1,43.1,0.3,64.6,0.3c20.1,0,40.1-0.2,60.2-0.2c21.4,0,42.8,0.5,64.1,0c7.3-0.2,13.1,1.2,17.6,7c0.5,0.6,1.2,1.3,2,1.4
	c6.3,1.1,7.3,5.9,7.9,11.1c0.3,2.7,1,5.5,1.7,8.1c1.9,7.1,1.5,13.8-1,21c-3.2,9.3-4.4,19.3-6.5,29c-2.1,9.7-4.3,19.4-6.4,29.1
	c-0.2,1.1-0.5,2.2-0.9,3.9c6.4,2.2,12.6,4.4,18.9,6.5c1.5,0.5,3.3,0.5,4.7,1.3c13.3,7.2,27.4,12.9,38.5,23.7c0.5,0.4,1,0.8,2,1.7
	c5.4-4,10.9-8.1,16.3-12.1c79.7-59.4,156.8-125.2,214.7-206.7c70.6-99.3,109.5-218.3,129.2-338.6c11.5-70.7,16.7-142.3,19.3-213.8
	c2.2-60.4,11.8-128.3,4.8-188.1c-1.7-14.2,6.5-45.8,16.3-56.2c6.9-7.3,14.5-14,22.1-20.7c2.5-2.2,3.3-4.1,3.3-7.4
	c0-8.9,0.6-17.8,1.2-26.7c0.1-1.8,1.3-3.6,3-5.4c0.4,1.9,1,3.8,1.1,5.7c0.2,3.6,0,7.2,0,10.8c0.1,6,1,11.2,6.7,15.2
	c7.2,5,14.2,10.5,20.2,16.9c29.5,31.1,36.9,65.1,37.7,107.3c1.5,72.1,7.6,169.7-24.6,235.9c-4.6,9.5-9.5,18.1-18.3,24.2
	c-1.7,1.2-3,3-4.5,4.5c-3.2,3.2-6,7.1-9.8,9.4c-9,5.5-12,13.6-12.4,23.4c-0.1,1.3-0.2,2.6-0.4,3.9
	c-53.9,267.6-123.7,535.1-353.6,707.2c-33.6,25.2-69.4,47.7-107.9,64.4c-129.8,56.3-284.4,41.1-409.9-24.4s-222.9-177.2-287.8-303
	c-75.8-146.9-92.9-303.9-134.2-460.5c-0.9-3.3-3.9-6.3-6.5-8.8c-9.1-9-19.3-17.2-27.5-27c-4.6-5.6-7.1-13.5-9-20.7
	c-21.5-81.1-29.7-164.4-22.6-248.3c2.9-34.2,12.8-64.5,38.3-88.6c5.5-5.2,11.3-10.4,17.6-14.7c6.2-4.2,6.8-10.2,7.3-16.6
	c8.2-108,17.3-218,43.2-323.3c22-89.4,58.4-176.7,117.5-247.3c123.4-147.5,313.9-188.7,497.1-191
	C1707.8,759.4,1709.4,759.4,1711.4,759.4z" style="fill:#0185D0;"/>
<g>
	<g>
		<path d="M1398.6,1792.4c-80.5-1.1-145-67.7-143.9-148.6c1.1-81.1,67.5-145.5,149.1-144.4
			c80.9,1.1,145.2,67.9,143.8,149.5C1546.3,1729.5,1479.7,1793.5,1398.6,1792.4z" style="fill:#F1592B;"/>
	</g>
</g>
<g>
	<path d="M1564.6,1397.3c-6.8,0-10-5.6-14.4-9.1c-2.7-2.2-9-4-12.6-3.8c-0.9,0-2-0.6-2.9-1.1c-3.7-2.5-7.4-4.1-12.2-3
		c-5,1.1-3-4.3-5.8-6.5c-0.8,1.4-1.7,3-2.8,4.9c-1.3-1.9-2.7-3.8-4.5-6.3c-0.8,5-3.1,4.1-5.9,2.2c-1.3-0.9-3-2.2-4.3-1.9
		c-6.3,1.2-9-1-7.7-7.4c0.5-2.6,1.2-4.6-1.2-6.5c-0.5-0.4-0.7-1.9-0.4-2.6c2.3-4.9-0.2-9.5-0.6-14.3c-0.5-5.6-1-11.2-1.2-16.9
		c-0.1-3.3,0.6-6.7,0.3-10c-0.5-5.7-1.2-11.4,1.5-16.8c0.3-0.6,0.3-1.6,0.1-2.3c-1.1-5.2-2.7-10.4-3.4-15.7
		c-0.4-2.6,0.2-5.7,1.4-7.9c2.1-3.8,1.5-6.5-1-9.9c-1.3-1.7-3.2-4,0-7.1c1.8-1.8,0.9-6.4,1.2-9.8c0.1-1.1,0-2.2,0.2-3.2
		c0.2-0.9,1.1-1.7,1.1-2.6c0.1-3.3-0.1-6.7,0.1-10c0.2-3.3,1-6.5,1.3-9.8c0.3-3.2,0.4-6.4,0.6-9.6c0.1-1.5,0.1-3,0.2-4.5
		c0.1-1.4,0.2-2.8,0.3-5.1c-4.4-4.4,0.4-10.7-0.7-16.6c-1.1-5.8-1.5-11.8,1-16.9c-0.8-5.8-2.2-11.4-2-16.9
		c0.2-5.4,1.4-10.7-1.9-16.1c1.4-0.4,2.6-0.7,3.8-1c-0.2-0.4-0.3-0.9-0.5-1.2c-2.4-4.3-4-8.8-2.4-13.8c2-6.6,1.5-13.1,0.3-19.8
		c-0.7-4.2-0.7-9,0.8-12.8c1.6-4.2-1.7-7.4-0.4-11.3c0.6-1.9-0.7-4.4-0.7-6.6c0.1-7.2,0.5-14.5,0.8-21.7c0.1-2.4,0.3-4.7,0.4-7.1
		c0.2-2.7,0.4-5.3,0.6-8c0-0.5,0.2-1.1,0-1.4c-3.2-4.1-0.7-7.3,2.5-10.8c-1.6-0.1-2.5-0.2-3.5-0.3c2-6.9,3.3-13.5,1.6-20.9
		c-1.7-7.2-0.7-14.7,1-22.1c1.1-4.6,0.2-9.9-0.9-14.6c-1.1-4.8-0.5-9,0.8-13.6c0.5-2-0.7-4.5-1.1-6.8c0.4-1.6,1.2-3.6,1.5-5.6
		c0.5-4.2,2.7-9.7,0.8-12.3c-3.7-5.3,0.9-10.7-1.8-15.5c-0.5-0.9,0.2-2.5,0.3-3.8c0.3-4,1.3-7.8,0.2-12.1c-0.8-3.1,0.5-6.6,0.5-10
		c0-4.9-0.5-9.9-0.5-14.8c0-3.6,0.6-7.3,0.7-10.9c0.1-3-0.1-6-0.1-9c-0.1-11.2-0.4-22.4,0-33.6c0.2-4.8,2-9.5,3.2-14.6
		c-5.7-1.9,2.1-4.2,1.2-6.1c-0.3-0.7-0.3-0.8-0.4-0.9c-0.7,0.7-1.4,1.3-2.1,2c-0.3-0.1-0.6-0.1-0.9-0.2c1.4-4.7,2.9-9.5,4.5-14.7
		c3.5-0.5,7.7-1.1,12.3-1.8c-0.3,4-1.5,8.4-0.9,12.6c0.8,5.9,2.1,11.6,2.2,17.8c0.1,3.1-0.7,5.8-0.9,8.7c0,0.5-0.4,1-0.3,1.4
		c0.5,4.2,1.2,8.4,1.4,12.7c0.2,3.6,0.2,7.2-0.3,10.7c-1.3,10.6,0.6,21.2-0.3,31.6c-0.5,5.2,1.1,10.8-2.2,16.1
		c-1.9,3-1.5,7.5-2.2,11.3c-0.1,0.8-0.1,2-0.6,2.2c-5.2,2.6-2.5,7.4-2.7,11c-0.6,7.1-0.1,14.2-0.1,21.4c0,4.2-0.1,8.3,1.1,12.5
		c0.4,1.5-1.3,3.4-0.7,6c1.4,6-3.1,12.5,0.7,18.8c0.2,0.3-0.6,1.1-0.6,1.6c0,6.7,0,13.4,0.3,20.1c-0.9,2.6-5.8,4.2-1.9,8.3
		c-3.6,3.5,0.9,8.2-0.9,11c-2.8,4.3-0.8,7.6,0,11.6c-1.3,0.7-2.6,1.5-3.9,2.2c1.7,4.5,5.3,8.5,2.5,13.8c3.2,1.4,4.4,3.4,0.9,6.3
		c-0.6,0.5-0.6,2-0.6,3.1c0.8,12.5,1.6,25,2.4,37.5c0.1,1.3-0.3,3,0.3,3.8c2.2,2.7,0.6,4.6-0.3,7.1c-0.8,2.1-0.3,5.2,0.7,7.3
		c2.1,4.5-0.2,9,0.5,13.5c0.1,0.9-0.2,1.9-0.1,2.9c0.2,5.3,0.1,10.6,0.9,15.8c0.6,4.4-0.1,8.3-1.6,12.4c-0.8,2.3,0.5,5.4,0.7,8.1
		c0.2,2.3,0.9,4.8,0.3,6.9c-1.4,4.4,1.1,9.3-2,13.5c-0.6,0.8,0,2.8,0.6,3.9c1.2,2.3,2.3,4.2-0.5,6.3c-0.6,0.4,0.5,2.7,0.3,4.1
		c-0.5,3.3-3.2,6.3-1.3,9.9c-5.7,3.3-1.2,8.1-1.6,12.1c-0.5,4.2,0.5,8.6,0.6,12.9c0.1,2.7-0.3,5.4-0.3,8.1c-0.1,3.6,0,7.2,0,11.3
		c6.6-1.1,6.6,2.6,7.1,6.5c0.5-2.2,1-4.3,1.5-6.5c2.6,1.4,5,2.8,8,4.4c-1.6,0.3-3,0.6-4.5,1c1.1,3,2.4,3.8,5.5,2
		c2.1-1.2,5-1.2,7.5-1.1c5.9,0.2,11.7,0.8,17.6,1.3c3.7,0.3,4.4-2.9,4.5-5.1c0.3-9.7,0-19.4,0-29.2c0-5.5,0.4-10.9,0.4-16.4
		c0-10.6-0.1-21.3,0-31.9c0-2.6,1-5.1,1.3-7.7c0.2-1.9,0-3.8,0-6.5c2.2-1.7,3.1-4.2,1.8-8.2c-1.1-3.8,2.4-5.6,6-6.8
		c-1,2.8-3.8,6.1,2.2,5.3c0.8-0.1,1.8,1.4,3.5,2.8c-3,0.6-4.7,0.9-6.5,1.3c3.3,2.5,5.2,11.1,4.6,15.2c-0.6,4.2,0.1,8.5,0.2,12.8
		c0.1,5.8,1.4,11.4-0.1,17.3c-0.9,3.5,0.4,7.5,0.6,11.3c0.2,5.7,0.2,11.5,0.3,17.2c0.1,6.4,0.2,12.8,0.5,19.2
		c0.1,2.2,0.8,4.3,1.4,7.1c4.5-2.2,9.4,2.4,13.7-2c0.3-0.3,2.2,0.9,3.3,1.2c1.1,0.4,2.3,0.9,3.4,0.8c2.7-0.3,4.7-4,8-1.5
		c0.4-0.6,0.9-1.1,1.3-1.7c0.6,1.1,1.1,2.1,1.4,2.8c2.1,0.8,9-4.9,8.9-7c-0.4-7.6-1-15.2-1.1-22.8c0-3.6,1-7.3,1-11.1
		c0.4-1.6,2.8-1.2,1.9-5.4c-1-4.5-5.6-11.1,0.5-16.3c0.6-0.5,0.1-2.9-0.5-4.1c-1.7-3.3-0.9-5.4,3-6.5c-0.1-0.4-0.2-0.8-0.3-1.2
		c-1.3-0.1-2.6-0.3-4.6-0.5c1.2-3.2,2.4-6.4,3.6-9.6c0.3,0.1,0.7,0.2,1,0.3c-0.1-0.4-0.3-0.9-0.3-1.3c-0.6-5.1-1.3-10.1-1.6-15.2
		c0-0.8,1.9-1.7,3-2.5c1.1-0.8,2.2-1.5,3.3-2.3l-0.1,0.1c4.6,4.6,3.3,10.5,2.6,15.7c-1.2,9.3-1,18.2,0.7,27.4c0.6,3.1,0.8,6.5,0,9.4
		c-1.2,4.4,3.5,8.9-0.5,13.1c-0.2,0.3,0.5,1.4,0.7,2.1c0.5,2.2,2.1,5,1.3,6.6c-2,3.9-0.2,7.2,0.9,10.4c1.4,3.9,1.3,7.3-0.1,11.1
		c-0.8,2.2-0.1,4.8-0.1,8.2c1-1.5,1.5-2.4,1.4-2.2c2.5-0.2,4.1-0.5,5.6-0.5c7.9,0.4,15.9,2.2,23.5,1.1c5.2-0.8,9.7-0.7,15.3,1.2
		c-0.3-3.1-0.7-5.5-0.7-7.9c-0.1-4.7,0-9.4-0.1-14.1c0-3.1-0.3-6.2-0.3-9.3c-0.1-6-0.1-11.9-0.3-17.9c-0.1-2.1-0.6-4.3-0.9-6.4
		c-0.1-0.7-0.6-1.8-0.3-2.1c3.6-3.1,1.5-6.9,1.5-10.5c0-5.9,0.2-11.9,0.4-17.8c0.1-3.3,0-6.8,0.9-9.9c0.7-2.6,2.8-4.8,3.8-7.8
		c-1.3,0.8-2.5,1.6-3.8,2.3c2.1-4.3,4.3-8.7,6.8-13.8c1.1,8.4,2,16.1,3,23.9c0.6,4.5,1.4,9,1.6,13.6c0.2,4.9-0.4,9.9-0.3,14.8
		c0,2,0.9,3.9,1.6,6.6c-0.8,18.4,1.8,37.6,2.9,57.1c5.7-0.3,10.6-0.9,15.3-0.6c4.9,0.3,9.8,1.5,14.6,2.6c2.4,0.6,3.4,8,1.6,11.4
		c-0.6,1.1-1.6,2.1-2.3,3c-13.7-4.1-27.7-3.7-40.6-4.3c-2.6-0.4-4.4-0.8-6.2-1c-2.5-0.3-5.1-0.5-7.6-0.5c-3.6,0.1-7.2,0.5-10.8,0.7
		c-1.4,0.1-3.2,0.5-4.3-0.2c-6.6-3.7-13.7-1.8-20.5-1.4c-1.3,0.1-3,3-3.4,4.8c-0.8,3.7-2.8,6.1-6.3,5.9c-4.1-0.2-4.4-4.4-5.4-7.4
		c-0.5-1.3-0.8-2.6-1.6-3.8c0.9,6.3-3.1,9.1-10,7.9c-3.5-0.6-7.2,0.3-10.8,0.5c-1,0.1-2.2,0.5-2.9,0.1c-4.5-2.5-8.9,0.4-13.3-0.3
		c-1.8-0.3-3.6-0.9-6-1.5c-2.7,3.7-5.5,2.4-6.8,0c-5.7-0.3-10.2-0.6-14.6-0.9c-2.9-0.2-5.8-0.4-8.6-0.7c-2.8-0.4-5.5-1.1-8.3-1.4
		c-6-0.7-11.9-1.8-17.9-1.7c-1.7,0-3.9,2.9-5,5c-0.5,0.9,0.9,3.4,2,4.4c3.5,2.8,3.7,6,0,9c-0.6-2-1.2-4-2.1-7
		c-3.8,6-3.4,6.7,2.2,6.9c1,1.8,2,3.6,3.6,6.4c-1.4,1.2-3.8,3.2-6.2,5.2c0.1,0.2,0.1,0.5,0.2,0.7c1.6-0.4,3.2-0.8,4.2-1.1
		c0,9.3,0,18.5,0,27.9c-1.4-0.4-2.8-0.9-4.7-1.5c0.4,1.8,0.6,3.1,1,4.8c1,0,2.2,0,3.4,0c-1.1,2-2,3.8-3.1,6c1.9,0.5,3.1,0.8,4.4,1.1
		c0,0.2-0.1,0.4-0.1,0.7c-1.6,0-3.2,0-4,0c-0.5,2.9-2,5.7-1.2,7.4c2.6,5-1,9-1.1,13.4c-0.1,2.9,2.8,5.9,4.4,8.7
		c0.6,1,1.5,1.7,2.5,2.9c0.4-0.9,0.7-1.8,0.9-2.2c4.8,0.5,9.4,0.9,14,1.4c0.6,0.1,1.4,0.3,1.7,0.7c3.3,4.9,7.6,4.5,12.5,2.2
		c0.4,1.3,0.7,2.5,1.1,4c5.3-4.2,7.5-0.1,10.2,3.6c1-0.5,2.1-1,3.8-1.8c-0.9,1.6-1.4,2.5-1.8,3.1c4.2,2,10.3-0.7,13.1,4.7
		c1.4,0.8,2.9,1.3,3.9,2.3c3.6,3.6,7.1,7.3,12.2,9.1c2.8,1,4.9,3.9,7.6,5.5c1.3,0.8,3.3,0.6,5.6,0.9c0.2,0.8,0.7,2.2,1.2,3.9
		c1.3-0.7,2.6-1.4,5.1-2.8c-0.5,2.9-0.8,4.8-1.2,7.4c1.4-0.4,2.5-0.7,4.6-1.4c-1.1,2.8-2,5-2.8,7.3c0.4,0.2,0.9,0.4,1.3,0.6
		c2-1.7,3.9-3.4,6.8-5.9c1.6,4.1,3,7.7,4.4,11.4c-1.1-0.1-2.3-0.2-3.4-0.4c0.3,1.1,0.5,2.3,0.9,3.4c0.6,1.5,1.5,2.9,2.2,4.2
		c1.5,0.2,3.2,0.4,4.8,0.6c-0.7,2.1,2.8,9,5.5,9.4c1.3,0.2,3-2.4,4.4-3.6c0.5,1.6,1.1,3.5,1.8,5.6c-0.7,0.1-1.9,0.2-3.3,0.4
		c0,1.2,0,2.5,0,3.8c3.1,0.6,7,0,5.5,5.5c-0.3,1.3,1.5,4.1,3,4.8c4,1.9,5.5,4.7,6,9.1c0.4,2.9,3,5.5,4.6,8.2c2.4,4.5,4.8,8.9,7,13.5
		c1.3,2.7,2.6,5.5,3.1,8.4c1,5.6,4.2,8.8,9.9,9.9c-0.7,2.5-1.3,4.5-1.8,6.6c1.5-0.1,3-0.3,4.2-0.4c0.5,2.6,0.9,4.9,1.3,7.5
		c-1.6-1.2-3.2-2.4-4.7-3.5c0.7,5,1.4,5.6,7.7,5.9c1,5.1,2,10.3,3,15.3c0.3,1.4,0.5,3.4,1.5,4c4.2,2.8,2,7.3,3.3,10.9
		c2.2,6,1.6,12.9,5.3,18.5c0.4,0.7,0,1.9,0.1,2.8c0.1,3-0.3,6.2,0.6,8.9c3.1,9.8,3.9,19.8,4,29.9c0.1,3.9,1.6,7.8,2.4,11.8
		c0.3,1.4,0.3,2.8,0.3,4.2c0.1,2.8-1.9,6,1.7,8.3c0.6,0.4,0.3,2.2,0.3,3.3c-0.1,8.2-0.2,16.4-0.3,24.6c0,1.7-0.7,3.4-0.7,5.2
		c-0.1,1.8,0.2,3.6,1.2,5.4c-1.1,2-2.2,4-4.1,7.3c2.4-1,3.3-1.4,5.1-2.2c-1.3,3.5-2.5,6.1-3.1,8.8c-0.5,2.3,0.1,4.8-0.3,7.1
		c-0.6,3.7-2,7.2-2.6,10.9c-0.6,3.7-0.3,7.5-0.8,11.1c-0.5,3.1-1.5,6.2-2.3,9.3c0,0.1-0.3,0.2-0.3,0.4c-0.8,7.7-1.7,15.3-2.6,23.5
		c-2.4,0.9-1.4,4.1-1.6,6.8c0,0.9,0.4,1.9,0.2,2.8c-2.6,8.8-4.9,17.7-8,26.4c-2,5.5-5.2,10.6-8,16.1c0.5,0.7,1.8,1.7,1.9,2.8
		c0,1.2-0.6,3.7-3,1.5c-0.1-0.1-0.9,0.4-1.1,0.7c-1.4,2.9-3.9,5.8-3.9,8.7c0,4.4-1.5,7.3-4.3,10.4c-1.6,1.7-1.8,4.7-3.1,6.8
		c-2.4,3.9-5.2,7.5-7.9,11.3c-0.9,1.3-1.8,2.5-2.9,3.6c-2.5,3.3-5.1,6.7-7.6,10c0.2,0.2,0.5,0.4,0.7,0.6c-2.3,2.8-4.6,5.5-6.9,8.3
		c-0.2-0.2-0.4-0.4-0.6-0.5c-0.4,1.5-0.8,2.9-1.2,4.4c-0.3,0-0.7,0-1,0c-0.5-1.4-1-2.8-1.4-4c-2.7,0.6-5.2,1.1-6.4,1.4
		c-2.4,2.7-3.8,5-5.9,6.5c-2.9,2.1-3.5,3.9,0,6.1c-3.7,0.9-6.9,1.6-11.2,2.7c6.2,5.9-1.1,7.2-1.7,10.8c-1.9-1.1-3.5-2.1-5.6-3.4
		c0.9,8.2-0.3,9.6-5.7,7.6c0.9-1.1,1.7-2.2,2.6-3.3c-0.1-0.2-0.3-0.4-0.4-0.6c-5.7,3.3-11.4,6.5-18.6,10.6c-1.5,1.9-1.3,7.4-6.9,9.4
		c-6.8,2.4-13.2,5.6-19.9,8.1c-2.1,0.8-4.6,0.7-6.7,1.6c-1.5,0.5-2.9,1-4.4,1.5c-4.2,1.4-8.3,3-12.5,4.3c-2.8,0.9-5.7,1.3-8.5,2
		c-4.5,1.2-9,2.5-14.3,4.1c-3.3-4.4-8.2,0.3-12.8,0.8c-5.6,0.6-11.2,1.9-16.8,2.9c-4,0.8-7.9,1.9-11.9,2.5c-2.3,0.4-5.4,1.2-4.9-3.6
		c-2.8,5.2-10.9,5.7-17.2,1.8c0.4,1.4,0.7,2.2,1.1,3.8c-1.9-0.9-3.8-1.7-5.5-2.5c-2,0.4-4.2,1.5-6.1,1.3c-6.2-0.8-6.3-0.9-7.8,3.6
		c-4.4,0.5-8.5,0.5-12.2,1.5c-4.4,1.2-7.5,0.6-8.8-3.5c-1.7,0.4-3.2,1.3-4.6,1.1c-9.3-1-18.5-2-27.7-3.6c-3.2-0.6-6.1-2.7-9.1-4.3
		c-6.8-3.5-14.1-0.4-16.1,6.9c-0.1,0.4-0.7,0.6-1.6,1.3c0.1-2,0.2-3.5,0.2-5.1c-0.2-0.1-0.4-0.2-0.6-0.2c-0.5,1-1,2-1.5,3
		c-8.2-3.7-16.4-7.3-24.8-11.1c0.2-0.4-0.2,0.4-0.6,1.2c-1.3-1.1-2.5-2.1-4.6-3.9c-0.4,3.1-0.7,5.3-1,7.5c-3.3-0.8-6.9-1.6-10.8-2.5
		c0,0,0.3-1.3,0.9-3.3c-7,2.9-11.3-2.9-16.9-4.3c-0.5-6.4-7.3-4.4-10.7-7.1c-3.1-2.5-5-6.2-8.4-8.2c-2.3-1.3-5.2-1.8-7.8-2.7
		c-0.9-0.3-2-0.5-2.6-1.1c-2.4-2.1-5-4.1-6.7-6.7c-3.2-4.7-7.4-7.2-12.8-8.3c-1.2-0.3-2.1-1.9-3.2-2.8c-4-3.1-6.7-8.9-13.4-7.1
		c-0.5,0.1-1.2-0.4-1.7-0.8c-5.7-5.3-11.4-10.6-17.3-16.1c-0.6,0.2-2.6,1.1-2.9,0.7c-1-1.4-2.2-3.3-1.9-4.7c1-5.1-2-5.1-5.9-5.6
		c0.2,0.4-0.1,0.1-0.1-0.1c1.3-6-3.9-8.6-6.5-12.5c-2.4-3.5-6.3-6.3-5.7-11.4c0.1-0.6-0.3-1.4-0.7-1.7c-6.9-4.4-10.3-11.3-12.9-18.6
		c-0.4-1.2-1.8-2.1-3-3.3c0.5-0.8,1-1.8,1.5-2.8c-4.4-2.9-8.4-6.1-6.8-12.3c0.1-0.6-0.4-1.4-0.7-2c-2.5-4.3-5.2-8.5-7.7-12.8
		c-1.1-1.9-1.6-4.1-2.4-6.2c-1-2.7-2-5.5-3-8.2c-1.2-3.1-2.5-6.1-3.1-7.7c1.6-3,2.5-4.7,3.3-6.2c-2-1.7-3.5-3-5-4.2
		c-0.1,0.6-0.3,1.7-0.5,2.9c-0.2-4.7-1.1-9.9,5-12.4c-2.2,0-4.5,0-6.7,0c-0.1-0.3-0.2-0.7-0.3-1c1.5-0.9,3.1-1.8,5.7-3.4
		c-2.6-0.4-4.3-0.6-5.6-0.8c-0.6-3.6-1.2-7.2-1.8-10.9c0.3-0.2,0.7-0.4,1-0.6c1.5,1.6,3.1,3.3,4.5,4.9c1.2-8.9-1.8-19.9-5.8-20.3
		c0.7,2.5,1.4,4.8,2.3,7.8c-7.8-2-3-7.6-4.8-10.9c2.1-1.4,6.9,0.8,5.5-3.8c-2.4-0.6-4.8-0.6-6-1.7c-2.9-2.7,1.5-2.8,1.4-4.4
		c-0.2-2.6-0.4-5.1-0.5-7.7c-0.2-3.3,0.6-6.9-0.6-9.6c-1-2.1-0.9-1.5,0.8-2.5c1.1-0.6,0.9-3.5,1.2-5.3c0.2-1.2-0.3-3.1,0.4-3.6
		c4-2.9,1.7-4.7-1.5-6.5c0.7-0.2,1.3-0.3,2-0.5c-0.6-2.5-1.1-5-1.6-7.5c-0.2-0.8-0.2-1.8-0.1-2.6c0.6-5.9,1.1-11.7,1.8-17.6
		c0.5-3.9,1.5-7.7,2-11.5c0.7-5.6,1-11.2,2-16.7c0.6-3.4,2.3-6.5,3-9.9c0.4-1.7-0.5-3.7-0.8-5.8c4.5-0.9,4.8-3.8,3.4-7.8
		c-0.4-1.2,0.1-2.9,0.3-4.3c0.8-3.6,1.4-7.3,2.6-10.8c0.5-1.5,2.3-2.7,3.5-3.9c-0.9-0.8-0.7-1.3,0.7-2.9c0.5-0.6,0.5-1.9,0.2-2.7
		c-1.9-4.2,0.3-5.7,4.1-6.5c-0.8-9.6,1.5-18.6,5.6-27.4c2.1-4.5,3.1-9.4,4.8-14.1c0.3-0.9,1.9-1.5,3-1.8c1.2-0.4,2.5-0.4,3.9-0.5
		c-0.8-2.6-1.8-4.7,2-5.6c1.5-0.4,3.7-3.2,3.5-4.6c-0.4-2.8,1.9-4.3,2.1-6.2c0.6-5.4,5.1-7.8,7.3-11.9c0.5-1,1.5-2.3,1.2-3.1
		c-2-5.5,1.5-5.6,5.2-5.6c0.6-1.4,0.8-3.2,1.9-3.9c4.5-3.5,2.7-5-1.5-6.1c-0.4-0.1-0.7-0.6-1.2-1.1c3-6.4,7-11.7,13.8-14.7
		c1.2-0.5,1.2-3.4,2.4-4.4c2.7-2.3,5.9-4.2,8.8-6.3c3.4-2.5,6.7-5,10-7.5c2.2-1.6,4.4-3.2,6.7-4.7c6.7-4.4,14.1-8,20-13.3
		c2.6-2.3,3.6-4.2,7.3-1.3c-0.4-2.4-0.7-3.9-0.9-5.4c0.4-0.4,0.9-0.7,1.3-1.1c0.2,1.5,0.5,3,0.7,4.5c0.6-0.3,1.2-0.6,1.8-0.9
		c1.3-5.6,4.7-8.8,10.2-9.4c0.1,0,0.4,0,0.4,0c0.1-5.7,3.9-6.3,8.5-7.4c4.2-1,7.8-4,11.7-6.1c2.7-1.5,5.3-3.2,8.1-4.4
		c1.3-0.6,3.1-0.3,4.6-0.3c3,0,5.9,0,8.7,0c0-5.6,0-10,0-14.4c0.1,0,0.2,0,0.3-0.1c0-1.9-0.1-3.7,0-5.6c0.6-5.8,1.3-11.6,1.8-17.4
		c0.6-5.7,1.3-11.4,1.4-17.1c0.1-3.8-0.7-7.6-1-11.4c-0.2-2.2-0.3-4.4-0.3-6.6c0.1-4.8,0.3-9.6,0.3-14.4c0.1-4.1,0-8.2,0-13.4
		c-4.4-0.3-9.1-0.6-13.8-0.8c-4.6-0.3-9.1-0.6-13.7-0.7c-0.7,0-1.3,0.8-2,0.8c-1.5-0.1-3-0.5-4.3-1.4c-2.8,0.9-5.6,2.6-8.4,2.5
		c-3.5-0.1-7.1-1.6-10.9-2.6c-0.4,1.6-0.7,2.8-1,4c-0.3,0-0.6,0-0.9-0.1c-5.6-2.7-11.2-1.9-17-0.7c-1.7,0.4-3.9,0.8-5.2,0
		c-3-1.9-5.8-1.4-8.9-0.5c-3.9,1.1-7.6,1.7-11.7-0.7c-1.9-1.1-5.1,0-7.7,0c-2,0-4.6,0.9-4.6-2.7c0-0.2-1.3-0.7-1.6-0.4
		c-2.5,1.5-4.9,3.1-7.4,4.8c-1.6-2.5-3.1-4.8-4.5-7c-0.3,0.1-0.6,0.2-0.9,0.3c0.2,1.4,0.4,2.9,0.8,5.5c-8-1.1-16.1-2.2-23.8-3.3
		c0.1,0.1,0.6,0.8,1.2,1.5c-0.5,0.2-1,0.4-1,0.3c-2.3-3-5.3-2.4-8.3-1.4c-2.3,0.7-3.7,0.5-6.1-0.2c-1.3-0.4-3.3-0.3-4.1,0.4
		c-3.8,3.6-6.3,1.4-8.8-1.6c-0.7-0.8-1.7-1.5-2.9-2.5c-0.5,1.5-1,2.9-2.1,5.9c-1.1-3.1-1.8-5-2.9-8.2c-0.8,2.9-1.3,4.9-1.8,6.8
		c-5.4-2.3-10.7-6.2-17.4-2.4c0.5,0.9,1.2,2,2.4,4c-2.2-0.6-3.4-0.9-4.7-1.3c2-5.4,1.8-6.1-3.3-6.9c-4.1-0.7-8.3-1.2-12.4-1.5
		c-1.3-0.1-2.6,0.4-5.1,0.9c0.4-4.9,0.9-9.8,1.3-14.8c22.4,3.8,44.4,3.1,65.4,9.1c1.7,0.8,3.4,1.6,5.1,2.4c0.4-1.1,0.8-2.3,1.4-4
		c-0.5,0.3-0.1,0,0,0c2.9,1.9,5.7,3.8,9.6,2c0.6-0.3,2.7,2.7,4.1,4.2c0.4-0.9,1-2.3,1.8-4.1c4.3,4.4,6.8,1.7,9.1-2.4
		c0.4,0.2,0.7,0.4,1.1,0.6c-0.4,1.6-0.8,3.2-1.3,5.1c3.6-1,6.2-8.1,9.7-2.9c3-0.5,5.1-1.2,7.1-1c4.5,0.4,9.5,2.9,13.3,1.7
		c4.5-1.4,8.8,1.9,12.9-0.9c1.2-0.8,3.6,0.5,5.2,0.2c5.5-1.1,10.9-2.4,16.7-3.7c0,0.4-0.1,1.1-0.1,1c8.3,0,16.6-0.1,24.9,0
		c6.4,0.1,12.8,0.3,19,0.5c6.6-3.5,12.7,1.7,18.6,1.5c0-5.2-0.1-10.6,0-16c0.2-5.2,1.7-10.7,0.8-15.7c-1.6-8.6,1.6-17.1-0.1-25.4
		c-1.6-7.6,0-14.7,0.8-22.1c0.2-1.4-1.1-3-1.2-4.5c-0.1-1.5,0.8-3,0.7-4.5c-0.2-2.7,0-5.8-1.3-7.8c-1.5-2.3-0.8-3.9-0.4-6
		c0.4-1.9,0.2-3.8,0.5-5.7c0.3-2.3,0.9-4.6,1.5-7.2c-0.4-0.1-1.8-0.2-3.6-0.4c2.9-4.9,5.5-9.3,8.5-14.3c-2.3,1.7-4.4,3.2-6.5,4.8
		c-0.3-0.1-0.7-0.2-1-0.3c0.8-2,1.1-4.6,2.5-6c2.1-2,1.2-2.9-0.1-4.7c-1.1-1.5-1.1-3.7-1.7-5.5c1.7,0.1,3.3,0.3,3.9,0.3
		c0-5.6,0-11.8,0-16.7c2.3-7.7,2.8-14.1-1.3-20.6c1.4-0.3,2.4-0.6,3.6-0.8c0.4-3.1-4.8-6.8,1.8-9.1c-1.6-0.4-2.4-0.6-3.8-1
		c0-13.5,0-27.1,0-41.8c0.5,0.4,0-0.1-0.7-0.5c-0.5-0.3-1.2-0.4-1.7-0.5c1.1-3.5,2.1-6.7,2.7-8.7c-0.4-4.6-0.8-8.1-1-11.6
		c-0.4-8.1-1.1-16.2-0.9-24.3c0.2-6.6,1-13.2-0.1-19.9c-0.4-2.1,1.7-4.4,1.9-6.7c0.5-7.6,1.5-15.3,0.5-22.8
		c-0.8-5.9,1.4-10.9,1.6-16.4c0.1-1.5-1.5-3.2-1.9-4.7c0.4-11.4,4-22.7,1.7-34.5c0.6-1.4,2.4-3.4,2-4.8c-1.9-6.2,3-8,7.1-12
		c-1.1,3.7-1.9,6.1-2.6,8.4c5.1,13.7,3.7,28.1,3.4,42.9c3.4,0.2,3.9,2,1.8,5.3c-0.9,1.5-1,3.7-0.9,5.6c0.1,9.2,0.6,18.4,0.5,27.5
		c0,6.8-0.9,13.6-0.9,20.4c-0.1,5.1,0.8,10.3,0.8,15.4c0,6.5-1.3,13.2-0.3,19.6c0.8,5,0.1,8.5-2.4,12.7c-1.1,1.9,0.9,5.8,1.5,8.7
		c0.1,0.7,0.5,1.7,0.2,2.1c-3.7,4.7-0.1,10-1.3,14.6c-1.3,4.9-0.7,9.1,1.9,14.3c-1.8-0.7-2.4-1-3.7-1.5c1.4,2.7-2.6,6.6,2.9,7.8
		c0.5,0.1,0.4,3.2,0.4,4.9c0.2,6.4,0.3,12.9,0.4,20.3c0.3,1.1,1.8,3.4,1.6,5.7c-0.2,2.9,1.3,6.1-1,8.7c-0.2,0.2-0.2,0.7-0.1,0.9
		c3.5,4.7,0.6,9.7,0.7,14.6c0,4.6,0.6,9.1,1.2,13.7c0.1,0.5,1.5,0.8,2.9,1.6c-2,0.3-3.4,0.4-5.2,0.7c2.9,3,5.1,5.4,2.2,9.6
		c-1.1,1.7,0.5,5.2,0.9,8.3c-3.7,1.8-4,5.8-1.2,8.3c0.4,4.2,0.9,7.4,0.8,10.5c-0.1,2.2-1,4.4-1.5,6.6c-0.2,1-0.6,2.1-0.5,3.1
		c0.4,5.3,0.9,10.6,1.3,15.8c0,0.2,0.1,0.4,0,0.5c-4.8,3.2-0.4,7.4-1.1,11c-0.5,2.7-1.1,5.3-1.4,8c-0.1,1.5,0.3,3-0.5,4.2
		c-0.3,1.2-0.9,2.3-0.9,3.5c0.1,4.7,0.4,9.4,0.5,14.2c0,1.6-0.5,3.3-0.5,5c0,2.5,0.3,5,0.2,7.6c-0.2,6.2-2.5,13.3-0.3,18.4
		c2.4,5.5-2.4,10.9,1.7,15.7c0.5,0.6-1.7,3.1-1.9,4.7c-0.2,2.5,0.5,5.1,0.5,7.7c0,2.1,0,4.4-0.8,6.3c-1.6,3.6-1.5,6.9-0.7,10.8
		c1,4.6,0.9,9.5,0.4,14.2c-0.5,4.8-1.9,9.1,0,14.4c1.4,4.1-1.1,9.7,1.5,14.5c0.4,0.7-1.4,2.5-2.4,4.2c1,0.7,2.2,1.5,3.8,2.5
		c-3.2,2.8-0.4,10.5-6.6,9.5c-2.6,1.6-4.1,2.4-5.6,3.3c-0.5,0.3-1.1,0.8-1.3,1.3c-1.7,3.7-5,4.2-8.1,3.1c-3.3-1.1-5-0.4-6.8,2.5
		c-0.9,1.4-3.1,2.2-4.9,2.8c-3,1.1-7,0.9-5,6.2c0.4,1-2.1,3.1-3.4,4.6c-1.7,1.9-3.5,3.8-5.7,5.4c1.2-2.5,2.4-5,4.1-8.5
		c-1.8,0.7-3.5,0.9-3.8,1.6c-2,4.9-7.1,3.7-10.5,5.7c-3.9,2.3-8.4,3.4-11.7,7.2c-2.6,2.9-6.6,4.6-10,6.8c-2.9,1.8-6.4,3.1-8.7,5.6
		c-1.1,1.2-1.3,3.4-3.5,4.1c-0.9,0.3-1.7,1.1-3.6,2.2c-0.5,2.1-5.6,1.8-6.4,6.5c-0.5,3-5,5.3-7.8,7.9c-0.8-1.9-1.5-3.6-2.2-5.3
		c-0.5,0.1-0.9,0.3-1.4,0.4c0.7,2.3,1.3,4.7,2.3,8.1c-1.8,0.6-4.2,1.3-6.9,2.2c-0.4,2.4-0.9,5.8-1.4,9.6c-0.9-1.7-1.6-2.9-2.6-4.5
		c-1.2,1.6-2.1,2.8-3.1,4.2c1.1,0.8,2.1,1.6,3.1,2.4c-0.1,0.2-0.2,0.5-0.4,0.7c-1-0.2-2-0.3-2.1-0.3c-4.1,4.6-7.9,8.9-11.9,13.5
		c1.4,2,1.3,3.5-2.2,5.3c-2.5,1.2-7.2,1.5-6.6,7c0.2,2.1-3,4.6-3.8,7.6c-1.1,0.2-2.1,0.3-2.5,0.4c-2,5.1-3.8,9.8-5.9,15.1
		c4.4,4.9-2.7,4.7-4.6,7.1c2.7,4.6,2,8.2-2.4,12.9c-0.5,0.5-0.8,1.5-0.8,2.2c-0.4,5.3-0.6,10.5-3.9,15.2c-0.8,1.2-0.7,3-1.1,4.5
		c-1.5,4.9-2,10.6-4.9,14.6c-3.2,4.4-1.1,9.4-3.7,13.6c-0.5,0.8,0.5,2.5,0.8,3.8c-2.9,2.8-6,24.3-3.6,26.8c-1.2,1.3-2.4,2.6-3.9,4.1
		c0.8,1.1,1.6,2.2,2.9,4c-1.7,0.8-3.2,1.5-5.8,2.7c0.6-4.1,1-6.7,1.5-10.4c-0.3-0.2-1.8-0.8-3.3-1.4c-0.5,1.6-1.1,3.2-1.4,4.9
		c-0.5,2.7-1.2,5.5-1.2,8.2c0,2.8,0.7,5.6,1.1,8.6c-1,0.6-2.2,1.4-3.4,2.1c6.5,5.1,0.5,10.6,1.9,15.5c0.5,1.3,1.7,2.9,1.3,3.8
		c-4,10.3-2.6,20.7-1.6,31.2c0.4,4.6-1.8,9.5,1.3,13.9c0.3,0.4-1,1.9-1.3,2.9c-0.3,1.2-0.8,3.2-0.3,3.5c4.6,3,2,8.3,4,12.1
		c0.5,1-0.8,2.9-1.4,4.5c2.9,3.5,5.6,7,3.8,12.5c-0.7,2.2,1.1,5.3,2.1,7.8c2.5,6.2,5.4,12.2,8,18.4c1.4,3.2,2.8,6.4,3.6,9.7
		c0.3,1.2-0.9,2.8-1.4,4.4c0.5,0,1.8-0.1,2.7-0.1c3.9,10.1,13.4,17.9,12.1,28.4c2.7,3.3,5.3,5.4,6.5,8.1c2.8,6.3,7,12.1,7.5,19.3
		c0,0.6,1.5,1.1,3.4,2.4c0.7,2,0.7,6.4,5.7,7.4c0.5,0.1,1,0.8,1.3,1.4c1.8,3.9,3.6,5.9,6.8,7.9c1.1,0.7,1.9,2.1,2.8,3.2
		c0.9,1.1,1.9,2.1,2.9,3.1c0.1,0.1,0.4,0,0.5,0.1c2.5,6.1,8.9,8.1,12.9,12.5c1.5,1.7,1.6,4.6,3,6.5c2.2,3,5,5.7,7.6,8.5
		c1.1-0.3,2.6-0.6,2.7-0.7c5.4,5,10,9.2,14.7,13.5c0.2-0.4,0.3-0.8,0.5-1.3c3.5,0,7,0,10.6,0c0.2,4,1.4,6.8,4.9,8.9
		c5.5,3.3,11.1,6.4,17,9.1c0.4,0.2,0.7,0.6,1.1,1c2.4,2.9,4.9,5.7,9.3,5c2,5.3,8.6,2.8,11.8,6.8c1.4,1.7,5.5,1.3,8.4,1.8
		c3.2,0.5,6.3,1,9.6,1.5c-0.2,1.8,0.8,3.3,4.5,2.5c2.5-0.6,5.6-2,6.9,2c0.1,0.2,0.6,0.4,0.9,0.4c5.9-0.7,12.5,3,17.7-1.2
		c3.7-3,8.1-1.5,9.4-0.2c4.7,4.6,10.3,2.2,15.3,2.9c8.1,1.1,16.4,0.9,24.6,1.1c3.2,0.1,6.4-0.4,9.7-0.5c6.5-0.1,13.1-0.3,19.6-0.1
		c6.9,0.1,13.2-1.3,19.7-3.7c3.4-1.3,7.6,0.2,11.4-0.1c6.1-0.6,12.2-1.7,18.2-2.5c5.3-0.8,10.7-1.3,16-2.4
		c5.1-1.1,10.1-2.9,15.2-4.3c2.4-0.6,4.9-0.8,7.1-1.6c3.5-1.3,7.1-2.4,10.6-3.8c4-1.6,8-3.4,12-5.1c1.2-0.5,2.3-1.6,3.4-1.6
		c9-0.1,14.7-6.9,22-10.4c0.9-0.4,1.7-1,2.6-1.3c8.7-3.1,17.2-6.6,23.4-13.9c0.4-0.4,1.1-0.6,1.7-0.8c10.1-3.3,17.6-10.8,23.4-19.6
		c1.9-2.9,4.7-7.1,9.2-8.3c0.4-0.1,0.8-0.5,1-0.9c2.4-4.6,4.8-9.2,7.5-14.1c0.6,0.4,1.1,0.9,1.3,1c2.3-2.2,5-4.4,6.9-7
		c1.6-2.1,2-5,3.3-7.3c2.2-3.9,4.7-7.7,7.3-11.4c1.3-1.9,3.7-3.1,4.6-5.1c1.4-2.9,1.8-6.2,2.7-9.4c0.6-0.6,1.7-1.3,2.2-2.3
		c2-3.6,4.3-7.1,5.6-11c1.1-3.1,4.8-6,1.6-10.3c-0.8-1.1,2-4.4,1.9-6.7c-0.3-6.2,5.9-11.6,4.4-16.4c-2.1-6.7,1.9-11.5,2-17.2
		c0.1-5.7,0.1-11.6,1.7-17c1.1-4,2.1-7.3,0.5-11.3c-0.2-0.5,3.1-2.3,4.8-3.5c-0.6-0.3-1.3-0.5-1.9-0.8c-0.4-2.6-0.3-5.4-1.3-7.7
		c-1.3-3.1-1.8-5.5,1.6-7.4c0.5-0.3,0.7-2,0.3-2.6c-2.3-3.5-0.2-6.7-0.1-10.1c0.1-1.9-1.4-3.8-2.1-5.8c-0.5,0.2-1,0.3-1.4,0.5
		c-0.3-4.9-0.9-9.8-1-14.7c-0.1-7.2,0.2-14.3,0.1-21.5c0-2.8-0.8-5.6-1.2-8.3c-0.2-1.1-0.7-2.5-0.2-3.3c1.8-3.3,2.1-6.3,0.3-9.7
		c-0.4-0.8,0.7-2.3,1-3.5c0.8-2.8,1.9-5.8-1.3-6.8c-0.4-2.4-0.6-4.2-0.9-6.1c-0.2-1-0.9-2.2-0.5-2.8c2.8-5.2-2-9.5-1.5-14.5
		c0.1-0.9-0.4-1.8-0.5-2.8c-1.9-10.3-3.6-20.6-5.9-30.8c-1.3-5.6-3.6-11-5.9-16.3c-0.6-1.3-2.8-1.9-4.9-3.2c1.9-0.9,3.1-1.5,4.4-2
		c0-0.3,0-0.7-0.2-0.9c-9.7-6.2-13.5-15.8-15.5-26.5c-0.4-2.2-2.6-3.9-3.6-6.1c-2.4-5.3-4.2-11-7-16.1c-4.1-7.4-8.8-14.5-13.3-21.6
		c-0.5-0.8-2-1.1-3.4-1.8c0.3-4.5-1.9-7.3-6.5-9.6c-3.9-1.9-6.9-5.9-10.1-9.1c-0.3-0.3,0.6-1.7,1.2-3.4c-1.8,0.9-3,1.5-4.1,2
		c0.1-1.4,0.2-3.1,0.3-5.3c-2.5,1.1-4.2,1.9-5.9,2.6c0.1,0.1,0.2,0.1,0.3,0.2c1.2-0.8,2.4-1.6,3.7-2.4c-0.6-0.5-1.1-1.1-1.7-1.6
		c-1.8-0.1-3.7-0.3-6.1-0.4c1.7-1,2.8-1.6,3.9-2.3c-1.1-0.4-2.3-0.7-3.4-1.1c-2.5-1-5-2-7-2.8c0.8-3,1.6-6,2.6-9.4
		c-3.7-0.6-6.2-1-8.6-1.3C1567.5,1399.6,1566.1,1398.4,1564.6,1397.3z M1130.3,1739.9c0.9,4.6,1.6,8.3,2.3,12
		c2.3-0.8,4.6-1.7,8.4-3.1C1137.2,1745.6,1134,1743,1130.3,1739.9z M1140.2,1755.8c-1.3,0.3-3.1,0.7-4.9,1.1
		c-0.1,0.4-0.2,0.8-0.3,1.3c2.3,0.5,4.5,1,8,1.7C1141.4,1757.6,1140.9,1756.9,1140.2,1755.8z" style="fill:#FFFFFF;"/>
	<path d="M1410.1,953.9c2.7,5.5,1.6,11.3,0.9,17c-0.5,3.9,2.2,7.8-1.2,12c-1.4,1.7,2.1,6.8,1.2,9.7
		c-1.6,5.6,3.6,11.4-1.2,16.8c-0.9,1,0.6,3.9,0.6,6c0,8.6-0.3,17.3-0.2,25.9c0,1.6,1.2,3.2,1.2,4.8c-0.2,5.6-1.2,11.2-1,16.8
		c0.2,3.4,1.5,6.6-2.5,8.6c4.4,2.5,3.6,6.7,3.4,10.6c-0.3,5.9-0.8,11.9-1.3,18.1c-1.1-0.1-2.2-0.2-3.4-0.3c7.4,4.3,2.7,9.9,2.2,15
		c-0.2,1.8,1.1,3.8,1.3,5.7c0.3,3.3,0.8,6.7,0.3,9.9c-0.9,5.6,1.6,11.4,0.4,16.4c-1,4.2,0,6.7,1.4,9.9c-2.5,3.8-2.6,34.2,0,39.8
		c-1.1,0.5-2.2,1.1-3.7,1.8c3.5,1,5.7,2.3,2.2,5.8c-0.5,0.5,0.8,2.9,1.5,5.2c-1.7,1.7-3.4,4.2,1.3,6.4c0.5,0.2,0.1,2.7-0.1,4.1
		c-0.2,1.1-1.2,2.9-1,3c6.2,3.6,0.1,7.9,0.7,11.8c0.3,1.6,0.3,3.3,0.4,4.9c0.3,4,0.1,8,0.9,11.9c0.8,3.5-2.8,7.1,0.3,10.4
		c0.2,0.2,0.3,1,0,1.3c-2.3,3-1.9,5.9,0,9c0.7,1.2,0.2,3,0.3,4.5c-1.4,0.7-3,1.4-4.6,2.1c0.1,0.3,0.2,0.6,0.3,0.9
		c0.9-0.1,1.8-0.3,2.4-0.4c0.3,6,0.9,12,0.7,18c-0.1,3.3-1.8,6.5-2.8,10c0.7,0.3,2.3,1.1,4.9,2.3c-2.9,0.9-4.9,1.5-5.8,1.8
		c-1.8,4.2-3.3,7.6-4.8,11c0.2,0,0.4,0.1,0.6,0.1c2.6-3,5.2-6,7.9-9c0.4,0.2,0.9,0.5,1.3,0.7c-1.8,4-3.6,8-5.5,12.3
		c-1.1,0-2.8,0-6.4,0c2.6,2.7,4.4,4.4,6.8,6.8c-0.2,0.7-0.7,2.4-1.6,5.8c-1.4-3-2.3-4.8-3.1-6.6c-0.3-0.1-0.6-0.1-0.8-0.2
		c0,2.6-0.1,5.1,0,7.7c0.3,5.6,0.9,11.1,1.1,16.7c0,1.1-1.5,2.3-2.1,3.5c-0.3,0.7-0.5,1.8-0.2,2.5c3.9,8,0.8,16.6,2.4,24.8
		c0.2,0.9-0.6,2.1-1.3,4.1c2.4-1.6,4-2.7,5.8-3.9c2,4.3-2.1,6.7-3.1,9.8c5.4,4,6.6,23.4,0.9,28.1c1.6,1.3,3,2.5,4.9,4.1
		c-1,4.7-2.4,10-3.2,15.5c-0.1,0.6,3.8,2.9,4.4,2.4c3.4-2.4,5.5,0.6,8.2,1.1c5.6,0.9,11.3,1.4,16.9,2.1c0.8,0.1,1.6-0.2,2.4-0.1
		c5.5,0.6,11,1.3,16.6,1.8c1.6,0.1,3.6,0.2,4.7-0.6c4.9-4,9.4-1,15,0.2c-2.4,2.6-4.2,4.7-6.2,7c3.8,1.7,7,3,10.3,4.5
		c2.6,1.2,5.2,2.5,8.2,4c0.2-0.2,1-0.9,1.8-1.6c2.3,0.6,4,5,7.1-0.4c0.8,3.2,1.4,5.3,2,7.9c1.1-1,2-1.8,3.2-2.8
		c1.5,1.8,2.9,3.4,4.3,5.2c2.4-3.2,2.5-2.7,4.8-0.5c2.6,2.6,3.6,6.9,8.5,7.4c5.3,0.6,9.2,4.5,13.1,7.7c5.8,4.7,11.7,9.6,16.2,15.4
		c2.7,3.5,6.5,5.3,9.2,8.6c3.5,4.2,7.2,8.2,10.8,12.3c1.1,1.3,2.1,2.6,3.2,3.8c-0.3,0.2-0.8,0.5-1.4,0.9c1.2,1.3,2.3,2.8,3.6,4
		c4.2,3.7,4.2,3.6,0.1,8.8c-0.3-0.9-0.3-1.7-0.6-2.1c-0.6-0.7-1.4-1.3-2.2-1.9c-0.7,0.9-2.2,2.1-2,2.7c1.9,5.1,4.2,10,6.2,15.1
		c0.7,1.7,1.4,3.5,1.9,5.3c1,3.7,3.3,4.8,6.5,3.4c1.7,3,5.2,6.6,4.5,8.4c-1.7,4,2,5.3,2.4,8.1c0.5,3.7,1.4,7.3,2.4,10.9
		c0.5,2,1.6,3.8,2.5,5.6c-0.3,1.2-1,2.6-0.8,3.8c0.7,4.3,2.7,8.6,2.3,12.7c-0.8,7.5,0.9,14.8,0.1,22.4c-1.1,11.3-1.2,22.7-1.3,34.1
		c-0.1,8.8-3.1,17-4.4,25.6c-0.6,3.9-0.5,7.8-4.6,10c-0.4,0.2,0.1,1.7-0.1,2.5c-0.4,1.5-0.8,3.1-1.4,4.5c-0.5,1.1-1.4,2-2.7,3.9
		c0.3,0.1-0.9-0.3-0.7-0.2c-0.5,1.7-0.9,3.1-1.2,4.6c-1.6,6.9-3.7,13.5-9.2,18.7c-3.2,3.1-6,7-8,11.1c-1.2,2.4-1.2,5.2-3.9,6.7
		c-1.1,0.6-2,1.5-3.3,2.5c0.2,0.6,0.6,1.7,1.2,3.5c-3.7-1.1-5.7,0.2-6,3.3c-0.5,5-5.6,5.2-7.9,8.1c-3.2,4-5.7,8.6-8.5,12.9
		c-0.4,0.6-0.9,2-1,2c-5.2-1.5-4.6,4.8-7.4,5.6c-5.7,1.7-8.3,7.3-14.1,9.2c-5.5,1.8-10.1,6.8-15.5,10.6c9,0.8,12.8-7.1,19.5-9.6
		c2.9-1.1,5.2-4,7.8-6c2.6-2.1,7.1-1.3,10.4,2.1c-1.5,0.8-2.8,1.5-3.6,2c-0.2,1.9-0.2,4.5-0.6,4.6c-2,0.3-4.1-0.1-5.1-0.2
		c-1.4,3.7-2.9,7.4-4.8,12.2c-1.2-2-1.7-2.9-2.6-4.4c-0.2,2.1-0.3,3.4-0.4,4.1c-2.5,1.2-4.6,2.5-6.8,3.3c-4.9,1.6-10.1,2.4-14.8,4.4
		c-6.7,2.7-12.8,6.2-20.6,5.7c-1.9-0.1-6.2,0.6-9,3.2c-1.8,1.7-6.6,2.5-8.4,1.3c-5-3.4-6.1,2.9-9.5,2.9c-1.1,0-3,0.6-3,0.4
		c-1.6-4.2-6.1-3.1-8.2-4.6c-2.1,0.8-3.6,1.4-5.2,1.9c-1.1,0.4-2.3,0.4-3.2,1.1c-1.8,1.3-3.3,2.3-5.5,0.4c-0.6-0.5-2.9,0.9-4.8,1.5
		c-0.5-0.7-1.3-1.6-2.4-2.9c-1,1.2-1.9,2.2-2.8,3.2c-0.1-0.4-0.2-0.9-0.2-1.3c-3.4,0.5-6.7,1.5-10.1,1.5c-4.3-0.1-7.1,2.5-10.6,4.1
		c-1.2,0.6-3.2-0.8-4.7-2c-1.4-0.2-3.7,3.2-4.3-1.6c0.1,1.2,0.1,2.3,0.2,3.4c-4.1,1.9-6.4-6.5-10.9-1.5c-0.5-1.6-0.9-3.1-1.7-5.8
		c-0.7,2.4-1,3.5-1.3,4.6c-0.5,0-1,0.1-1.2-0.1c-2.8-3-5.9-4.2-10.2-4.6c-4.6-0.4-8.9-3.4-13.4-4.7c-2.7-0.8-5.8-0.1-8.6-0.5
		c-3.7-0.6-7.4-1.6-11.1-2.5c-2.3-0.5-4.5-1.1-6.7-1.6c-0.1,0.2-0.7,1.3-1.2,2.3c-0.7-0.2-1.3-0.4-2-0.6c1.5-4.9-1.6-4.9-4.5-5.3
		c-0.3,1-0.6,2-0.9,3.1c-0.5,0.1-0.9,0.1-1.4,0.2c-0.4-1.9-0.8-3.9-1.2-6.2c-1.2,1.3-2.2,2.4-3.1,3.4c-2.6-1.6-5.1-3.1-7.7-4.5
		c-0.2-0.1-1.2,1.5-1.9,2.4c-2.3-1.9-5.7-3.3-2.9-7.3c-3.3-1.4-6.5-2.9-9.8-4.2c-0.3-0.1-1.3,1.5-1.6,1.4c-3.6-1.4-7.4-2.6-10.7-4.6
		c-4.7-2.7-9.2-5.8-13.4-9.3c-1.6-1.3-2.1-4-3.2-6c-0.4-0.8-0.8-1.7-1.4-2.3c-3.5-3.6-7-7.2-10.2-10.4c-2.4,0.8-5.2,1.6-8.3,2.6
		c-2-4.4-4.2-8.8-6-13.3c-3.3-8.5-6.2-17-9.5-25.5c-0.4-1-1.8-1.5-2.5-2.5c-0.8-1.2-1.4-2.5-1.9-3.9c-0.9-2.3-1.6-4.6-2.3-7
		c-0.6-1.9-1-3.8-1.4-5.7c-1-4.3-2-8.6-3.1-12.9c-1.7-6.6-3.6-13.2-5.2-19.9c-0.7-2.8-0.7-5.8-0.5-8.8c-1.2-2.3-5.9-4-0.6-7.3
		c-1.3-0.8-2.3-1.5-2.3-1.5c-0.5-4.7-0.9-8.4-1.2-12.3c0.4,0.1,1.2,0.2,1.3,0.3c0.4-2.7,0.8-5.1,1.3-7.7c-1.5-0.5-2.8-1-5.1-1.8
		c5-2.3-1.9-9.6,7.4-10.4c-2.7-1.6-4.4-2.6-5.7-3.4c3.2-7.8,4-10,1-15.6c0.9-1,1.5-1.8,2.2-2.5c0.9-0.8,2-1.5,1.9-2.4
		c0.5-3.8,0.8-7.6,1.5-11.4c0.3-1.7,1.9-3.3,1.8-4.8c-0.4-4.8,1-8.8,3.9-12.6c0.7-0.9-0.1-2.9,0.1-4.4c0.6-3.2,0.3-7.8,2.3-9.2
		c4.1-2.8-0.4-9.1,5.2-10.5c0.3-0.1,0.6-1.4,0.5-2.2c-0.8-5.4,1.9-9.1,5.2-13c2-2.4,2.9-5.7,4.7-9.6c4.8,0,4.5-4,2.5-8.9
		c2,1.8,3.3,3,4.5,4c1.3-3.1,2.2-5.5,3.6-8.7c-1.1-0.1-2.5-0.2-4.6-0.5c0,0-0.6-0.9-1.1-1.7c-2.3,3.4-4.5,6.5-6.8,9.9
		c0.9,0.4,1.8,0.8,1.8,0.9c-2.6,2.6-5.4,5.4-8.4,8.3c0.8,1.3,1.6,2.7,2.8,4.8c-1.9,0.5-3.4,0.9-4.9,1.3c-0.2,0-0.4,0-0.6,0
		c-3.8-6.8,1.8-9.1,5.4-11.7c-0.1-1.9-0.8-3.9-0.2-4.9c1.6-2.6,3.4-5,4.8-7.8c0.9-1.9,2.7-3.3,2.9-5.8c0.1-0.8,0.9-1.8,1.7-2.1
		c4.2-2,4.2-1.9,2.7-6.4c3.9-0.2,5.9-6.7,10.3-2.9c3.6-3.2,7-6.3,10.4-9.4c-0.3-0.3-0.5-0.7-0.8-1c-1.6,1-3.3,2.1-4.9,3.1
		c-1.8-4.3-1.1-5.1,2.9-6.3c2.3-0.7,4.1-3.2,6.4-5.1c0.1,0.1,0.8,0.8,1.6,1.7c3.6-3.9,7.2-7.7,10.9-11.7c8.7,1.8,12.3,0.6,11.6-4.3
		c6.8-1.4,8.1-2.8,10-9.5c0,1.9,0,3.9,0,5.8c3-1.7,6-3.4,8.9-5.1c-0.2-1.2-0.4-2.6-0.6-4c2.7,0.6,5.4,1.2,8.4,1.9
		c1.9-1.4,4.3-3.1,6.7-4.8c0.1,0.4,0.1,0.9,0.2,1.3c2.2,0.4,4.5,0.9,6.8,1.3c0.1-2.2,0.2-4.7,0.3-6.7c4.4-0.8,8.1-1.4,11.9-2.1
		c0-0.1-0.1-0.2-0.1-0.3c4-0.5,8.2-0.3,11.9-1.7c4.6-1.8,8.5-5.8,14-2.5c0.4,0.3,1.6-0.5,2.3-0.9c0.5-0.3,0.8-1.3,1.3-1.4
		c3.4-0.5,6.7-0.7,10.1-1.1c0-0.5,0-1,0.1-1.5c0.9,0.9,1.7,1.8,2,2.1c6.2-0.8,11.9-1.6,17-2.3c0.9-6.2,2-12.4,2.7-18.7
		c0.2-1.6-0.8-3.4-1.6-4.9c-1.9-3.5-0.5-6,2.6-8.5c-7.6-2.4-1.8-7.2-2.1-10.9c-0.3-5.3,1.6-10.6-0.5-15.9c-0.7-1.7,0.2-4,0.1-6
		c-0.1-1.5-0.5-3-1-5.1c-0.2,0.1,0.8-0.5,2.1-1.2c-1.1-1.2-2-2.2-2.9-3.3c0.1-0.2,0.1-0.7,0.4-0.8c5.3-3.4,2-8.4,2.3-12.6
		c0.3-5.1,0.3-10.2,0.4-15.3c0-0.6,0-1.3-0.3-1.7c-5.2-6,2.2-11.6,0.6-17.4c-0.1-0.2,1.1-0.7,1.1-0.7c-1.1-2.6-3.1-5-2.8-7.2
		c0.2-2.1,2.7-4,4.1-5.9c-0.5-1.9-1.3-4.5-2.1-7.6c2.1,0.5,3.1,0.8,4.1,1c0-0.9-0.2-1.9,0.1-2.7c0.3-1,1.1-1.9,1.9-3.4
		c-1.9-2.9-4.6-6.3-1.4-10.8c0.4-0.6-1-2.3-1-3.5c0.1-5.2,0.5-10.4,1.2-15.4c-0.3-2.2-0.8-4.4-1-6.6c-0.3-3.2-0.6-6.4-0.4-9.6
		c0.1-2.2,1-4.5,1.6-6.7c0.1-0.3,0.5-0.7,0.4-1c-0.6-6.8-1.3-13.6-1.8-20.4c-0.2-3.2-0.3-6.5-0.1-9.8c0.1-1.1,1-2.2,1.6-3.3
		c0.4-0.7,1.3-1.5,1.2-2.1c-2.4-13.6,0-27.2,0.3-40.8c0.1-2.9-1.3-5.8-1.6-8.8c-0.2-1.9,0.2-3.9,0.4-6.2c-3.3-0.1-2.2-2-2.3-4.5
		c-0.4-8.8-1.9-17.5-2.8-26.3c-0.2-2,0.7-4.1,1.3-7c0.3,0.2-0.4-0.3-1.1-0.9c4.5-5.3,0.5-10.8,0.6-16.2c1,0.1,2,0.2,3.3,0.3
		c-0.3-2-0.1-4.2-1.1-5.4c-2.4-3-4.8-5.7-1.1-9.3c0.4-0.4,0.9-1.4,0.7-1.6c-3.5-4.7-0.6-9.8-1.1-14.7c-0.1-1.2-1.1-2.2-1.4-2.7
		c1-3,1.9-5.7,2.9-8.7c-1.4,0-2.2,0-4.3,0c2.2-1.5,3.5-2.4,3.8-2.6c-0.3-1.6-0.3-2.8-0.7-3.9c-0.9-2.6,2.4-5.2-0.1-7.9
		c-0.4-0.5,0.5-2.6,1.2-3.7c2-3,1.7-7.1-0.5-8.9c0.6-7.1,1.4-13.8,1.7-20.5c0.3-5.8-2.3-11.6,1-17.4c0.5-0.9-1.6-3.3-2.9-5.7
		c1.4,0.5,2.3,0.9,3.1,1.2c0.4-0.3,0.8-0.5,1.1-0.8c-0.9-1.6-1.8-3.1-3.1-5.3c0.1-0.1,0.9-0.8,1.8-1.7c-0.9-4.2-0.9-4.2,1.9-4.4
		c-1-1.5-2-3-3.2-4.8c1.7-0.9,3-1.6,3.6-1.8c-1.8-2.9-3.6-5.6-5.3-8.4c0.5-0.4,0.9-0.9,1.4-1.3c1.5,1,3,2,4.8,3.2
		C1407.6,959.6,1404.2,954.3,1410.1,953.9C1410.1,953.8,1410.1,953.9,1410.1,953.9z M1229.8,1580.6c0,1.8,2.2,5.8-3,7.9
		c-0.4,0.1-0.8,0.6-0.9,1c-1,4.8-2,9.7-3.1,14.5c-0.1,0.5-1.7,0.6-2.1,0.7c-2.1,7.3-4.1,14.5-6.4,22.4c0,1,0.2,2.9,0,4.7
		c-0.7,4.4-2,8.7-2.4,13c-0.2,2.4,0.9,4.8,1.2,7.3c0.3,1.8,0.3,3.7,0.4,5.5c0.4,5,0.7,10.1,1.1,15.1c0.1,0.9,1.2,2.3,0.9,2.6
		c-4.3,4.7,4.6,9.2,0.2,13.7c4.5,1.4,1,3.9,0.8,6c0,0.3,0.3,0.5,0.6,1.1c0.6-0.5,1.1-1,1.8-1.7c0.1,1.1,0.3,2,0.3,2.9
		c-0.6,7.5,2.4,14.3,3.9,21.4c0.8,3.7,6.1,6.8,2,11.4c-0.1,0.1,0.6,1,0.9,1.6c0.6,1.2,2.1,2.6,1.8,3.5c-1.9,5.4,2.5,8.1,4.8,11.6
		c1.7,2.4,4.2,4.2,6.5,6.3c1.5,2.9,2.7,6.3,4.7,9.3c2.7,4,5.9,7.7,9,11.5c0.3,0.4,0.7,0.9,1.1,0.9c6.4,0.2,7.4,6.2,11.2,8.8
		c6.8,4.2,13.6,8.3,20.4,12.5c0.2-0.4,0.5-0.7,0.7-1.1c0,0.9,0,1.8,0,1.4c10.3,1.5,18.2,7.9,27.4,10.9c9.6,3,18.8,7.3,28.4,11.1
		c-1,1.3-1.8,2.4-3.3,4.5c2.5-0.7,3.7-1,5.1-1.4c0.9,1.5,1.7,2.9,2.3,3.9c3.4-0.3,7.7-2,9.3-0.6c3.5,3.2,4.3,0.5,6.2-1.2
		c0.5-0.4,1.4-0.3,2.8-0.5c-0.8,1.3-1.3,2-2,3.1c7.3,0.8,14.4,1.5,21.3,2.2c0.2,1.2,0.3,2.1,0.6,3.9c3.2-4.4,6.3-6.8,10.5-2.4
		c0.3,0.3,1,0,1.5,0c3.8-0.2,7.6-0.5,11.4-0.6c2,0,4.1,0.5,6.5,0.9c0.1,0.3,0.4,1.3,0.6,2.1c6.3-0.4,12.4-0.8,17.4-1.2
		c6-3.8,10.6-8.5,18.1-4.5c-0.7-1.8-1.1-2.9-1.5-3.8c2.8-1.6,5.2-3,7.6-4.4c0.3,0.4,0.7,0.7,1,1.1c-1.3,2.5-2.7,5-4,7.4
		c-0.3,0.6-0.8,1.5-0.6,1.8c0.4,0.5,1.3,0.9,1.9,0.9c1.5,0,2.9-0.2,4.8-0.4c0.2-0.6,0.6-1.8,1.1-3c2.6,2.4,3.7,2.5,8.1-0.1
		c7.5-4.5,15-9.1,22.3-14c1.8-1.3,2.7-4,4-6.2c3.4-2.3,7.2-5,11.2-7.7c2-1.3,4.1-2.6,6.2-3.7c0.9-0.5,2.3-0.2,2.9-0.9
		c3.6-3.4,7-7,10.4-10.5c3.5-3.5,6.9-7.2,10.6-10.6c0.8-0.8,2.5-0.7,3.4-1c-1.5-4.3,2.7-6.7,3.1-10.2c1.3,0.1,2.3,0.3,4.1,0.4
		c-0.8-2.6-1.5-4.5-2.3-7.1c2.9-2.8,6.1-5.8,9.2-8.9c0.4-0.4,0.3-1.3,0.5-1.8c1.9-3.6,3.5-7.4,5.8-10.6c1.8-2.5,5.3-9.8,4.8-12.6
		c-0.1-0.3-0.6-0.6-1.2-1.1c-0.8,1-1.5,1.9-2.6,3.5c0.7-7.6,8.4-6,11.8-10.3c-1.9-0.3-3-0.5-4.1-0.6c0.8-1.7,1.9-2.4,3-3.1
		c0.8-0.5,2.3-0.7,2.5-1.3c1.3-5,2.4-10.1,4.5-14.9c1.9-4.3-0.5-10,3.9-13.8c0.3-0.2,0.4-0.9,0.3-1.3c-1-5.9,0.7-11.6,1.5-17.4
		c0.9-6.6,2.6-13.2,3.6-19.8c0.4-2.8,0.3-5.8-0.1-8.7c-0.3-2-2.3-4.3-1.9-5.9c1.9-6.3-0.5-11.5-2.8-16.9c-1.8-4.4-3.1-9-4.2-13.6
		c-1.2-4.7-0.5-9.7-3.1-14.3c-1.9-3.3-2.2-7.4-3.7-11c-2.8-7-6-13.9-8.9-20.9c-0.8-2-1.1-4.2-2-7.6c-2.8-4.1-6.5-9.5-10.2-14.9
		c0.4-0.1,0.8-0.2,1.1-0.4c-0.4-0.9-0.5-2-1.1-2.7c-2-2.5-5.4-4.7-5.8-7.3c-0.6-4.1-2.8-5.3-5.8-6.5c-1.5-0.6-3-1.2-4.4-2
		c-3.9-2.2-7.7-4.4-11.5-6.6c-6.4-3.6-13.8-5.7-18.4-12.1c-0.2-0.3-0.8-0.4-1.2-0.6c-0.6,1-1.2,1.9-2,3c-3.2-3.4-4.1-9.5-8.9-7.5
		c-4.8-2.7-8.6-4.9-12.4-7.1c-1.2-0.7-2.4-1.5-4.7-3c-3.4,1.4-6.2-2.3-9.5-5c-0.8-0.7-1.9-1-2.9-1.4c-4.2-1.6-9.5-2.1-12.3-5
		c-2.7-2.8-3.2-2.2-4.9-1c-1.9-0.8-3.8-1.2-5.7-1.2c-4.7,0-10.7,2.1-14,0c-5-3.3-5.7,0.7-7.9,2.2c-3.1-2-6.2-4-9.3-6.1
		c-0.3,0.4-0.6,0.8-0.8,1.3c0.8,0.7,1.6,1.4,2.4,2.1c-2.6,3.7-4.6,0.1-6.7,0.1c-6.2-0.2-12.6-0.9-18.3,2.1c-3.4,1.8-5.5,1.6-6.1-2.6
		c-2.9,2.3-5.2,5.5-8.1,6.3c-3.2,0.9-6.9-0.5-10.5-0.9c0.4,0.8,0.7,1.6,0.8,1.9c-12.4,2.2-24.8,4.5-37,6.7c0.8,2.3-0.6,4.5-3.7,3.6
		c-4.8-1.5-5.8,2.2-8,4.3c-1.6-1.1-3.2-2.1-4.9-3.3c-0.7,2-1.1,3.3-1.2,3.4c-3.7,0.5-6.7,0.8-9.5,1.2c0.3,1.6,0.6,3.1,1,5.1
		c-2-0.8-3.3-1.3-3.3-1.3c-2.4,1.7-4,3.1-5.7,4c-3.2,1.6-6.8,2.6-9.7,4.6c-6.1,4.3-12.2,8.8-17.8,13.7c-2.6,2.3-5.9,6-5.6,8.7
		c0.6,6-4.4,8.6-5.9,13.2c-1.7,5.2-4.8,10-7.4,15.1c-0.5,0-1.5-0.2-1.8-0.2c0.2,1.9,1,4.4,0.4,4.9c-4.8,3.7-3.2,9.5-5,14.1
		C1235.4,1569.6,1232.9,1574.2,1229.8,1580.6z M1391.2,1835.9c-0.8-1.3-1.7-2.6-2.5-4c-2.5,7.1-6.1,2.5-9.8,2.5
		c1.3,2.5,2.5,4.6,4.1,7.6C1385.9,1839.8,1388.5,1837.8,1391.2,1835.9z" style="fill:#FFFFFF;"/>
	<path d="M1548.5,2733.7c1-1.9,1.9-3.8,3-5.8c7.7-0.8,7.7-0.8,6.2-9.8c1.6,0.6,3.1,1.1,4.7,1.6
		c2.9-4.8,5.7-9.6,8.5-14.3c0.3,0.4,1.1,1.4,2.3,2.9c0.5-1.2,1.3-2.1,1.1-2.8c-0.5-1.7,0-2.4,1.1-4.1c3.9-5.7,7.4-11.6,12.3-16.5
		c3.9-3.9,6.6-9,10.6-12.8c2.8-2.6,4.2-5.2,5.5-8.6c1.1-3,4.5-5.2,6.9-7.8c1.7-1.9,3.6-3.6,5-5.7c3.3-5.1,6.1-10.5,9.5-15.6
		c1.1-1.7,3.3-2.5,4.9-3.9c0.8-0.7,1.6-1.8,1.9-2.8c0.2-0.7-0.3-1.7-0.4-2.5c0.9,0.3,1.9,0.6,3,0.9c4.7-3.7,2.8-9.5,2.9-14.9
		c3,1.8,1.9,7.8,6.7,4.5c1.1-0.7,1.8-2.5,2-3.9c0.6-3.3,0.7-6.6,1.7-9.9c-2-5.5-0.8-8,5.8-11.4c0.3,1.5,0.5,3.1,0.8,4.7
		c0.5,0,1.1,0,1.6,0c0.2-1.4,0.2-2.8,0.5-4.2c0.3-1.4,0.7-2.7,1-4.1c1.8,1.6,3.7,3.1,6.4,5.5c-0.5-2.8-1-5.3-1.5-8.5
		c-2.3,1.4-3.5,2.2-4.8,2.9c1.3-5.3,4-9.6,8.9-12.3c0.6-0.3,1.5-0.7,1.5-1.1c0.9-5.1,5.1-7.4,8.3-10.7c3.5-3.5,6.5-7.6,9.3-11.7
		c0.9-1.2,0.5-3.3,1.6-4.1c3.8-3.2,7.6-6.4,11.4-9.6c0.2,0.4,0.3,0.7,0.5,1.1c1.7-0.7,3.3-1.4,5.6-2.3c1.4,1.9,3.6,4.9,5.9,7.9
		c1.3,4.4,9,14.3,12.2,13.7c2.3,5.5,4.6,11.1,7,16.9c1-1.6,1.8-3.1,3-5.1c2.9,4,5.6,7.7,8.1,11.5c0.9,1.4,1.4,3.1,2.2,4.9
		c2.4,2.5,5.6,5.3,8.2,8.5c4.4,5.4,8.5,11,12.7,16.6c2.1,2.9,4.1,5.9,6.2,8.8c0.8,1,1.9,1.8,3,2.9c-0.7,1.3-1.4,2.7-2.2,4.2
		c1.9,1,3.6,1.9,5.6,2.9c-1.4,4.6,0.2,7.5,4.5,9.1c1,0.4,2.2,1.7,2.3,2.6c0.4,5.7,3.1,9.8,7.8,12.8c0.9,0.6,1.6,1.6,2,2.6
		c2.8,7.2,6.9,13.5,12.5,18.8c0.4,0.3,0.9,0.7,0.9,1.1c0,5.6,4.8,7.5,8,10.6c0.1,0.1,0.4,0.2,0.4,0.3c0.5,6.4,6,9.8,8.9,14.8
		c0.8,1.4,1.9,2.5,2.9,3.8c1.2,1.6,2.4,3.2,4.2,5.5c4.4-0.2,5,5.3,7.8,8.2c1.2,1.3,2.3,2.7,4,4.8c-1.9,4,1.3,6,6.3,7
		c-1.3,1.4-2.2,2.5-3.2,3.5c0.5,1.2,1,2.3,1.5,3.5c0.9,2.1,1.7,4.2,2.6,6.4c-3.9,1.4-7.7,3.6-11.6,3.9c-1.4,0.1-3.8-3.9-4.7-6.3
		c-1.1-3.1-2-5.2-6.8-3.3c1.4-1.7,2-2.5,3.6-4.3c-2.9,0-4.7,0-6.6,0c0.1,1.4,0.1,2.7,0.2,5c-1.1-0.8-2.7-1.7-2.6-1.9
		c1.7-4-3-6.1-2.9-9.8c0.1-1.5-1.4-3.2-2.4-5c0.8-0.4,2-1,3.7-1.8c-0.7-0.3-1.1-0.7-1.5-0.7c-7.1-0.6-9.8-7.3-10.8-11.7
		c-0.9-4.1-5.1-7.5-3.5-12.2c0.1-0.4-0.2-1.4-0.6-1.5c-3.9-1.4-5.1-5-6.9-8.2c-3.2-5.6-7.3-10.9-9.4-16.9c-1.2-3.4-3.2-4.6-5.5-6.7
		c-3-2.7-4.6-6.8-7.1-10c-3.5-4.7-7.3-9.1-10.8-13.7c-3.9-5.3-7.7-10.6-11.4-16.1c-3.4-5.1-6.3-10.6-9.6-15.7
		c-3.2-4.9-6.4-9.6-10-14.2c-8-10.3-14.8-21.6-22.1-32.4c-1.5-2.2-5.2-2.9-4.2-6.7c0-0.1-2.3-0.9-3.7-1.4c-1.5,2.5-1.7,4.6-4.7,6.4
		c-3.9,2.3-5.8,8-8.5,12.3c-0.4,0.6-0.5,1.4-0.9,2c-3,4.4-5.9,8.9-9,13.2c-0.6,0.9-1.6,1.5-2.5,2.1c-2.1,1.3-5.3,0.8-4.9,5.5
		c0.2,2.6-3.9,5.5-6,8.3c-1.9,2.5-3.7,5.1-5.7,7.5c-3,3.6-6.1,7-9.7,11.1c0.7,1.5,2.8,4.3-2.6,5.5c-1.3,0.3-1.7,4.1-2.7,6.2
		c-0.5,1.1-1.4,1.9-2.1,2.8c-1.6,1.8-3.3,3.4-4.8,5.3c-3.1,4.1-6,8.3-9.4,12.9c0.1,0.2,0.7,1.5,1.6,3.5c-1.5-0.7-2.4-1.1-2.3-1
		c-1.8,2.3-3.5,4.3-4.9,6.4c-1.1,1.7-1.7,3.8-2.9,5.4c-3.3,4.6-7.2,8.9-10.2,13.7c-1.3,2.1-1.3,5.1-1.9,8.2c-0.6-1.2-1-2.1-1.5-3.1
		c-1.9,4.1-2.1,9.9-9.5,7.8c-0.1,1.7-0.2,3-0.3,5.2c1.4-0.9,2.2-1.5,4.2-2.8c-1.2,3.4-2.1,5.9-3,8.4c-0.3,0-0.6,0-0.8-0.1
		c0-1.1,0-2.3,0-3.2c-1.7,0.7-3.2,1.4-5,2.2c-0.7,9.7-2.4,11.6-9.1,8.6c1.1,2.2,2.1,4.5,3.6,7.7c-0.8,0.6-2.4,1.9-4,3.1
		c-0.9-1.3-1.9-2.6-3.1-4.4c-0.1,0-1,0.3-2.4,0.7c1.1,1.7,2.3,2.9,2.9,4.4c0.6,1.6,1.6,4.3,1,4.9c-5.7,5.8-10.3,12.3-14.3,19.3
		c-0.5,0.9-1.9,1.4-2.3,1.6c-1.8-2.8-3.2-5.2-4.7-7.6c-1.2,1-2.5,2-4.4,3.5c-1.2-0.2-3.4-0.5-7.3-1c2.6-3.1,4.5-5.3,5.9-6.9
		C1551.8,2740.1,1554.3,2731,1548.5,2733.7L1548.5,2733.7z" style="fill:#FFFFFF;"/>
	<path d="M1038.3,1674.4c1.2-1.4,2.4-2.3,2.4-3c-0.2-6.6-0.8-13.2-1-19.8c-0.1-2.1,0.7-4.2,1-5.9
		c0.1-7.7,0.3-15.1,0.4-22.5c0-2.1-0.5-4.2-0.6-6.4c-0.2-3.5-0.2-7-0.3-10.6c-0.1-1.9-0.3-3.7-0.3-5.6c0.1-9.2-0.6-18.5,0.7-27.6
		c0.9-6.5,0.2-12.7,0.1-19c0-3.8,2.6-8,1.6-11.3c-1.7-5.3,0.9-7.5,4.1-10.3c0.7-0.6,0.6-2.2,0.8-3.4c0.4-2.5,0.7-5.1,1.1-8.4
		c1.2,1.1,2.3,1.5,2.4,2.1c0.5,3.8,1.1,7.5,1.1,11.3c0,3.2-0.9,6.4-1.5,9.6c-0.1,0.7-0.7,1.7-0.4,2.1c3.9,5.4-0.6,11.4,1,16.9
		c0.3,0.9-0.5,2.2-0.8,3.4c0.8-0.1,1.7-0.2,2.9-0.4c-0.3,0.5-0.4,0.9-0.6,1.3c-2.5,5.2-1.4,10.9-1.5,16.3c0,3.1,1.1,5.8-1,9.2
		c-1.3,2.1-0.1,6,0.7,8.9c1.5,5.4,0.9,10.5-0.3,15.9c-0.9,4.3-1.5,9.1-0.5,13.2c1.1,4.2,1.7,7.6,0.1,10.8c-0.3,2-0.6,4-0.7,6
		c-0.1,3.4,0,6.8-0.1,10.1c-0.1,3.2-0.5,6.5-0.6,9.7c-0.2,9.3-0.4,18.7-0.5,28c-0.1,6-0.2,11.9-0.1,17.9c0,4.6,0.6,9.2,0.5,13.7
		c-0.3,7.6-2.5,15.6-1,22.8c1.5,7.3-1.2,14.4,0.8,21.5c0,0.1-0.2,0.2-0.6,0.7c-1-0.6-2.1-1.3-3.6-2.2c-0.6,1.7-1.1,3.3-1.3,4
		c2.4,1.8,4.2,3.1,6,4.5c-3.4,1.5,4.6,6.6-2.2,6.8c1.5,1.8,2.9,3.5,4.1,5c-2.1,2.8-3.7,5.1-5.4,7.4c8.6,5.1,9.2,7.2,3.9,11.6
		c5.9,1.9,3.1,7.6,5.3,11.3c-2.8,1.7-3.6,3.4-2.3,6.7c1.2,3,0.3,6.8,0.5,10.2c0.1,2.8,0.6,5.5,0.8,8.3c0.1,1.1-0.4,2.2-1.5,2.9
		c1.3,2.8,2.6,5.6,3.4,7.5c-1.4,2.1-3.2,3.6-3.1,5c0.1,1.3,2.1,2.4,3.6,4c-1.9,1.9-3.8,4.6,0.2,7.6c0.6,0.5-0.8,3.1-0.6,4.6
		c0.7,5.1,2,10.2,2.4,15.4c0.3,3.3-0.9,6.6-1,9.9c-0.1,3.3,0.3,6.7,0.4,10.3c-0.3,0.1-1.3,0.5-2.9,1.2c1.4,1.7,2.6,3.1,3.6,4.6
		c0.4,0.6,0.4,1.5,0.4,2.2c-0.1,2.4-0.2,4.8-0.3,7.4c0.2,0-0.8-0.1-1-0.2c0.5,5.6-0.5,11.9,1.8,16.8c2.7,6-2.8,11,0.4,16.1
		c0.6-0.4,1.5-1,3.5-2.5c-1,3.7-1.7,6.1-2.4,8.5c-0.2-0.1-0.4-0.2-0.5-0.3c0.6,8.6,1.1,17.1,1.7,25.7c-0.6,0.1-1.2,0.1-1.8,0.2
		c-5.2-19-3.1-39.9-15.1-58.3c2.2,0.5,3,0.7,4,0.9c0.1-0.8,0.5-2.3,0.2-2.5c-4.5-3-3.3-7.7-3.5-12c-0.1-1.6-0.1-3.8,0.8-4.9
		c2.8-3.5-0.3-2.6-1.7-2.9c0-6.4,0-12.8,0-19.1c-0.7-1.4-1.5-3.1-2.4-4.7c0.7-0.3,1.4-0.6,2-0.8c-0.9-5.9-1.9-12-2.9-18.3
		c1.1-0.2,2.3-0.4,3.6-0.6c-0.1-0.7,0-1-0.2-1.2c-2.9-3.1-2.9-6.9-3.1-10.8c-0.2-4-0.3-8.1-1.4-11.9c-1.4-4.9-1.4-7.8,2.1-11.8
		c-1.3-1.3-2.5-2.7-3.9-4.1c-1.5-1.4-3.2-2.2-1-5c1.2-1.6-0.2-5-0.1-7.6c0.2-5.1,0.8-9.9-0.6-15.1c-1.1-4.2,0.1-9.1,0.3-13.7
		c0.1-3.2,1.5-5.9,0.2-9.6c-1.4-3.8-0.2-8.5-0.1-12.9c0.2-6.7,0.4-13.4,0.5-20.1c0.1-4.7-0.5-9.5,0.1-14c0.9-6.2,0.1-12.1-0.2-18.2
		c-0.2-4.3,2-8.7,2.5-13.1c0.8-6.7,1.4-13.5,1.4-20.3C1041.2,1677.8,1039.1,1675.8,1038.3,1674.4z" style="fill:#FFFFFF;"/>
	<path d="M2348.6,1519.1c0.8,3.5,1.1,7.2,2.5,10.4c1.2,3,3.5,5.5,5.3,8.2c0.5-0.2,1-0.3,1.5-0.5c-0.8,1.7-1.5,3.3-2.3,5
		c0.4,0.1,0.9,0.1,1.3,0.2c0.1,2,0.2,3.9,0.2,5.9c0.1,3.9,1.3,8.2,0.1,11.7c-1.3,3.9,4.2,7.2,0.1,10.8c-0.1,0.1,1.3,1.9,2,3
		c0.7,1,1.9,2.9,1.8,3c-4.4,3.9-2.2,9.1-2.6,13.7c-0.2,2.6-1.2,5.5,1.5,8.2c1,1-1.2,4.8-1.2,7.3c0.1,5.8,0.6,11.6,0.9,17.4
		c0.2,3.8,0.7,7.5,0.5,11.3c-0.3,4.3-2.8,9.1-1.4,12.6c2.5,6.5-1.7,11.9-1.2,17.8c0.3,3.3,0.8,6.6,1.1,9.9c0.3,3,0.9,6.1,0.6,9.1
		c-0.5,5.4-1.6,10.8-2.5,16.3c-0.6,0-1.4,0-2.3,0c0.3,2.2,0.6,4.2,1,6.4c0.7,0.1,1.7,0.3,3.2,0.5c-5.9,4.2-6.1,8.3-2.9,15
		c1.2,2.5,0.2,6.4-0.7,9.4c-1.1,3.9,0,10.2,2.4,11.6c-0.3,6.1-0.6,11.9-0.8,17.8c-0.2,9.6-0.2,19.2-0.5,28.8
		c-0.2,6.7-0.6,13.3-0.8,20c0,0.6,0.2,1.3,0.5,1.8c1.8,2.6,2.3,4.6-3.4,4.6c2.1,1.3,2.9,1.7,3.8,2.3c-0.7,0.5-1.3,1-2.3,1.7
		c1.3,0.4,2.3,0.7,3.4,1.1c-1.7,3.9-3.2,7.5-5.1,11.8c3.3,3.1,1.8,7.3,0.2,12c-1.3,4.1-1.1,8.8-1.1,13.2c0,5.1-1.2,10.3,1.5,15.1
		c0.2,0.4,0.3,1,0.1,1.4c-3,7.5,0.1,15.1-0.6,22.7c-0.5,5-0.6,10.1-0.8,15.2c-0.2,5.6-0.6,11.3-0.3,16.9c0.4,5.3-1.3,9.4-4.4,13.6
		c-1.7,2.4-2.1,5.9-2.7,9c-1.4,7.5-2.6,15.1-3.9,22.6c-0.1,0.5-0.8,0.8-1.9,1.8c1-10.7,1.9-20.7,2.7-30.6c-0.5-0.1-1-0.3-1.5-0.4
		c0.9-0.2,1.9-0.5,3.5-0.9c-1-1-1.6-1.5-1.2-1.2c0-5.1-0.6-9.6,0.1-13.8c1.3-7.7-0.3-15.5,1.5-23.3c0.5-2,0.6-5.1,0.4-7.6
		c-0.2-2.9-1.1-5.9,2-7.9c0.4-0.3,0.6-1.5,0.4-1.8c-3.6-4.4,1.2-9.8-2.8-14.4c2.5,0.1,3.9,0.2,4.8,0.3c-1.1-3.1-2.2-6.3-3.3-9.4
		c-0.7-2.1-1.3-3.7,0.6-6.1c1.2-1.5-0.1-5.1-0.4-7.8c-0.1-0.7-1.3-1.6-1.1-2c2.5-6.2,0.6-12.5,0.9-18.7c0.1-1.4,1.6-2.7,2.5-4.1
		c-3.8-3.4-1.2-7.3-0.7-11c0.3-2.3,2.2-4.5-1-6.4c-0.5-0.3,0.3-2.7,0.6-5.3c0-0.8-0.3-2.7-0.2-4.7c0.2-4.5,0.4-9.1,0.8-13.6
		c0.3-3.5,1-7,1.6-10.8c-0.3,0-1.1,0-2.4,0c0-16.1,0-32.1,0-48.2c-0.5,0-0.9,0-1.4,0c1.8-3.6,1.8-6.7-0.3-10.6c-1-1.9,1-5.6,1.9-8.4
		c0.2-0.8,1.9-1,2.2-1.8c0.5-1.3,0.4-2.9,0.6-4.3c-1.2,0.4-2.4,0.8-5.1,1.8c1.6-2.6,2.7-4.2,4.4-6.9c-0.5-3.1-1.1-7.9-1.9-13.3
		c0.9-0.5,2.3-1.4,3.4-2c0.1-1.7,0.2-3.4,0.3-5.5c-3.2-0.7-3.9-2.8-2.7-6.5c0.9-3,0.1-6.5,0.3-9.8c0.1-2.8,1.1-5.6,0.8-8.4
		c-0.3-2.2-1.9-4.3-3-6.5c1.3-0.5,2.6-1,4.3-1.7c-2.4-1.7-5.3-3.3-1.6-4.6c-1-3-1.9-5.8-3-9.1c0.8-0.2,1.9-0.4,3.6-0.8
		c-4.3-5.6,0.5-11.1,1.2-17.3c-1.5,0.6-2.2,1-2.5,1.1c0-5.8,0-11.8,0-18.3c-3.6-2.1-6-7.5-4.4-11.6c0.4-0.9,2.5-1.4,2.5-2.2
		c0-2.4-0.6-4.8-0.9-7.1c-0.5-0.2-1-0.4-1.6-0.6c1.7-0.8,3.4-1.6,5.4-2.6c-4.3-1.6-6.1-3.9-3.4-8.4c1-1.6,0-4.4-0.1-6.7
		c-0.2-2.6-0.5-5.2-0.8-8.5c1.6,0.6,2.5,1,4.4,1.7c-1.3-6.1-2.4-11.6-3.6-17.3c1.1,0.2,2,0.4,2.9,0.6c1.4-3.2-0.8-8.2-4.5-9.1
		C2345.7,1521.5,2347.2,1520.4,2348.6,1519.1L2348.6,1519.1z" style="fill:#FFFFFF;"/>
	<path d="M1410.1,953.9C1410.1,953.9,1410.1,953.8,1410.1,953.9c-0.4-1.6-0.7-3.2-1.3-5.2c-1,1.2-1.7,1.9-2.9,3.2
		c-0.1-2.1-0.2-3.6-0.3-5.2c-0.5,0-1.1-0.1-1.6-0.1c-0.4,2.3-0.8,4.6-1.3,7.9c-0.1,0-1.4,0.9-3.2,2.1c1-5.4,1.9-10.2,2.8-15.1
		c2.3-0.8,5.8,4.8,8-1.2c-4.4-2.2-10.1-3.2-9.1-10.7c2.7,1.8,4.8,3.2,6.8,4.6c0.3-0.4,0.6-0.8,0.9-1.2c-2.6-2.5-5.2-4.9-8-7.6
		c2-1.8,4.1-3.8,6.5-6c-0.9-0.6-2.6-1.7-4.3-2.8c1-1.7,2.2-3.5,3.5-5.7c-4.7-1-5.2-4.5-4.1-7.1c1.3-2.8-1.3-6.5,2.3-8.4
		c0.2-0.1,0.2-1.1-0.1-1.4c-4.6-5.9-1.5-11.9-0.2-17.8c0.7-3.3-0.6-4.8-6.2-5.7c2.3-2.6-0.4-6.9,3.7-8.7c-1-1.8-2.1-3.5-3.1-5.3
		c0.4,0.1,0.7,0.3,1.1,0.4c0.3-2.2,0.6-4.4,1-6.6c0.3-1.3,1-2.6,1.6-4c-0.2-0.1-1.1-0.5-1.6-0.8c0.6-3,1.4-5.9,1.5-8.8
		c0.1-2.6-2-5.8-1-7.7c3.1-6.2-1-12.4,1.2-18.7c1.3-3.8,4-3.1,6.1-4c0.4-0.2,2.4,2.3,2.9,3.7c2.6,8,1.7,16.7,5.8,24.5
		c1.4,2.7-0.1,6.9-0.1,10.5c0,4.6,0,9.3,0.2,13.9c0.1,2.7,0.5,5.4,0.8,8.6c-2.7,7.2,1.6,16.6-5.7,23.3c2.1,0.8,3.2,1.2,3.9,1.5
		c-0.6,2-0.6,4.3-1.8,5.5c-2,2-2.3,3.8-1.7,6.4c0.4,1.8,0.3,4.2-0.6,5.7c-3,5.2,0.6,9,1.9,13.9c-0.5,0.5-1.5,1.4-2.5,2.3
		c0.5,0,0.9,0,1.4,0.1c-0.1,2.7-0.4,5.5-0.4,8.2c-0.1,5.2,0,10.4,0,15.6c0.5,0.1,0.9,0.3,1.4,0.4
		C1413,951.6,1411.5,952.8,1410.1,953.9z" style="fill:#FFFFFF;"/>
	<path d="M1217.7,1553.4c0.2,0,0.4,0,0.6,0c-0.2,1.8,0.3,4.1-0.6,5.3c-2.5,3.2-4.8,6.2-4.1,10.6c0.2,1-0.5,2.1-0.9,3.4
		c-2.2-0.3-4.4-0.6-6.6-1l0.1,0.1c1.3-0.9,2.6-1.8,2.7-1.9c0.9-3.7,1.4-6.3,2.2-8.9c0.8-2.4,1.8-4.8,3.1-6.9
		C1214.6,1553.4,1216.5,1553.6,1217.7,1553.4z" style="fill:#FFFFFF;"/>
	<path d="M1200.1,1602.4c-0.7-0.4-1.3-0.8-2-1.3c2.9-1.3,1-3.6,0.7-5.2c-1.7-7.3,5.2-6.4,8-9.3c0.5,0.2,1,0.4,1.4,0.6
		c-2,5-3.9,10.1-5.9,15.1C1201.6,1602.4,1200.9,1602.4,1200.1,1602.4z" style="fill:#FFFFFF;"/>
	<path d="M1344.5,1917.3c-2.4,1.8-4.6,3.4-7.4,5.5c0-2,0-3.2,0-4.4c-2.1,0.8-4,1.5-6.7,2.5c0.8-4.4,0.1-7.9,6.1-5.7
		C1338.8,1916,1341.9,1916.5,1344.5,1917.3z" style="fill:#FFFFFF;"/>
	<path d="M1206,1571.7c2.6,2,4.1,7.8,2.9,10.6c-1,2.5-2.3,3.6-5.1,1.9c0-2.9,0-5.9,0-9.3c0.5-0.6,1.4-1.9,2.4-3.1
		C1206.1,1571.8,1206,1571.7,1206,1571.7z" style="fill:#FFFFFF;"/>
	<path d="M1850.3,2745.3c-0.9-2.1-1.7-4.2-2.6-6.4c1.4-0.9,2.7-1.9,4.7-3.3c1.1,2.3,2.2,4.7,3.6,7.6
		C1853.9,2744,1852.1,2744.6,1850.3,2745.3z" style="fill:#FFFFFF;"/>
	<path d="M1200.1,1602.4c0.8,0,1.5,0,2.3,0c-0.2,3.7,0,7.5-0.9,11c-0.3,1.3-3.3,1.8-5.6,1.8c1.1-1,2.2-2,3.7-3.2
		C1196.2,1608.6,1197.4,1605.4,1200.1,1602.4z" style="fill:#FFFFFF;"/>
	<path d="M1564.6,1397.3c1.5,1.1,2.9,2.3,4.4,3.4c-1.5,1.6-3,3.1-5,5.2C1563.5,1402.5,1560.3,1399.7,1564.6,1397.3z" style="fill:#FFFFFF;"/>
	<path d="M1548.4,2733.6c1.8,3.2,1.5,5.6-2.2,7.2c-0.8,0.4-1.2,1.7-2.3,3.4c-0.7-0.8-1.3-1.7-1.8-2.3
		c1.8-2,3.2-3.7,4.9-5.5c-0.8-0.9-1.6-1.9-3.5-4.1C1546.1,2733,1547.3,2733.3,1548.4,2733.6
		C1548.5,2733.7,1548.4,2733.6,1548.4,2733.6z" style="fill:#FFFFFF;"/>
	<path d="M1328.7,1913.6c-1.8,3.7-8.9,3.2-14.5-1.2C1319,1912.7,1323.7,1913.1,1328.7,1913.6z" style="fill:#FFFFFF;"/>
	<path d="M1613.4,1146.3c-1.9-0.2-3.8-0.5-5.8-0.7c0-2.8,0-5.2,0-7.6c1.4,1.8,6.4,1.1,3.7,5.4
		C1611,1143.7,1612.6,1145.3,1613.4,1146.3C1613.3,1146.3,1613.4,1146.3,1613.4,1146.3z" style="fill:#FFFFFF;"/>
	<path d="M1132.4,1613.3c4.2,0,4.2,3.4,5,6.2c-0.4,0.4-0.8,0.7-1.3,1.1c-1.7-2-3.4-4-5.1-6
		C1131.5,1614.1,1132,1613.7,1132.4,1613.3z" style="fill:#FFFFFF;"/>
	<path d="M2348.7,1519.2c-0.9-1.6-2.2-3.2-2.6-4.9c-0.2-1.4,0.8-2.9,1.2-4.4c0.7,0.1,1.5,0.3,2.2,0.4
		C2349.2,1513.2,2348.9,1516.2,2348.7,1519.2C2348.6,1519.1,2348.7,1519.2,2348.7,1519.2z" style="fill:#FFFFFF;"/>
	<path d="M1460.9,1823.1c0.8-2.8,1.5-5.4,2.3-8.2C1466.8,1819.2,1466.4,1820.8,1460.9,1823.1z" style="fill:#FFFFFF;"/>
</g>
<g>
	<g>
		<path d="M1906.6,997.2l0.8,0.2c13.7,3.1,22.3,16.7,19.2,30.4s-16.7,22.3-30.4,19.2l-0.8-0.2
			c-13.7-3.1-22.3-16.7-19.2-30.4C1879.3,1002.7,1892.9,994.1,1906.6,997.2z" style="fill:#FFDA54;"/>
		<path d="M2005.1,1019.4l0.8,0.2c13.7,3.1,22.3,16.7,19.2,30.4s-16.7,22.3-30.4,19.2l-0.8-0.2
			c-13.7-3.1-22.3-16.7-19.2-30.4S1991.4,1016.3,2005.1,1019.4z" style="fill:#FFDA54;"/>
		<path d="M2103.5,1041.6l0.8,0.2c13.7,3.1,22.3,16.7,19.2,30.4c-3.1,13.7-16.7,22.3-30.4,19.2l-0.8-0.2
			c-13.7-3.1-22.3-16.7-19.2-30.4C2076.1,1047.1,2089.8,1038.5,2103.5,1041.6z" style="fill:#FFDA54;"/>
		<path d="M2201.9,1063.8l0.8,0.2c13.7,3.1,22.3,16.7,19.2,30.4c-3.1,13.7-16.7,22.3-30.4,19.2l-0.8-0.2
			c-13.7-3.1-22.3-16.7-19.2-30.4C2174.6,1069.3,2188.2,1060.7,2201.9,1063.8z" style="fill:#FFDA54;"/>
		<path d="M2300.3,1086l0.8,0.2c13.7,3.1,22.3,16.7,19.2,30.4c-3.1,13.7-16.7,22.3-30.4,19.2l-0.8-0.2
			c-13.7-3.1-22.3-16.7-19.2-30.4C2273,1091.5,2286.6,1082.9,2300.3,1086z" style="fill:#FFDA54;"/>
		<path d="M2398.7,1108.2l0.8,0.2c13.7,3.1,22.3,16.7,19.2,30.4c-3.1,13.7-16.7,22.3-30.4,19.2l-0.8-0.2
			c-13.7-3.1-22.3-16.7-19.2-30.4C2371.4,1113.7,2385,1105.1,2398.7,1108.2z" style="fill:#FFDA54;"/>
		<path d="M1928.1,902.1l0.8,0.2c13.7,3.1,22.3,16.7,19.2,30.4c-3.1,13.7-16.7,22.3-30.4,19.2l-0.8-0.2
			c-13.7-3.1-22.3-16.7-19.2-30.4S1914.4,899,1928.1,902.1z" style="fill:#FFDA54;"/>
		<path d="M2026.5,924.3l0.8,0.2c13.7,3.1,22.3,16.7,19.2,30.4s-16.7,22.3-30.4,19.2l-0.8-0.2
			c-13.7-3.1-22.3-16.7-19.2-30.4S2012.8,921.2,2026.5,924.3z" style="fill:#FFDA54;"/>
		<path d="M2124.9,946.5l0.8,0.2c13.7,3.1,22.3,16.7,19.2,30.4c-3.1,13.7-16.7,22.3-30.4,19.2l-0.8-0.2
			c-13.7-3.1-22.3-16.7-19.2-30.4C2097.6,952,2111.2,943.4,2124.9,946.5z" style="fill:#FFDA54;"/>
		<path d="M2223.3,968.7l0.8,0.2c13.7,3.1,22.3,16.7,19.2,30.4c-3.1,13.7-16.7,22.3-30.4,19.2l-0.8-0.2
			c-13.7-3.1-22.3-16.7-19.2-30.4C2196,974.2,2209.6,965.6,2223.3,968.7z" style="fill:#FFDA54;"/>
		<path d="M2321.7,990.9l0.8,0.2c13.7,3.1,22.3,16.7,19.2,30.4c-3.1,13.7-16.7,22.3-30.4,19.2l-0.8-0.2
			c-13.7-3.1-22.3-16.7-19.2-30.4C2294.4,996.4,2308,987.8,2321.7,990.9z" style="fill:#FFDA54;"/>
		<path d="M2420.1,1013.1l0.8,0.2c13.7,3.1,22.3,16.7,19.2,30.4c-3.1,13.7-16.7,22.3-30.4,19.2l-0.8-0.2
			c-13.7-3.1-22.3-16.7-19.2-30.4C2392.8,1018.6,2406.4,1010,2420.1,1013.1z" style="fill:#FFDA54;"/>
		<path d="M1949.5,807l0.8,0.2c13.7,3.1,22.3,16.7,19.2,30.4s-16.7,22.3-30.4,19.2l-0.8-0.2
			c-13.7-3.1-22.3-16.7-19.2-30.4S1935.8,803.9,1949.5,807z" style="fill:#FFDA54;"/>
		<path d="M2048,829.2l0.8,0.2c13.7,3.1,22.3,16.7,19.2,30.4c-3.1,13.7-16.7,22.3-30.4,19.2l-0.8-0.2
			c-13.7-3.1-22.3-16.7-19.2-30.4C2020.6,834.7,2034.3,826.1,2048,829.2z" style="fill:#FFDA54;"/>
		<path d="M2146.4,851.4l0.8,0.2c13.7,3.1,22.3,16.7,19.2,30.4c-3.1,13.7-16.7,22.3-30.4,19.2l-0.8-0.2
			c-13.7-3.1-22.3-16.7-19.2-30.4C2119.1,856.9,2132.7,848.3,2146.4,851.4z" style="fill:#FFDA54;"/>
		<path d="M2244.8,873.6l0.8,0.2c13.7,3.1,22.3,16.7,19.2,30.4c-3.1,13.7-16.7,22.3-30.4,19.2l-0.8-0.2
			c-13.7-3.1-22.3-16.7-19.2-30.4C2217.5,879.1,2231.1,870.5,2244.8,873.6z" style="fill:#FFDA54;"/>
		<path d="M2343.2,895.8l0.8,0.2c13.7,3.1,22.3,16.7,19.2,30.4c-3.1,13.7-16.7,22.3-30.4,19.2l-0.8-0.2
			c-13.7-3.1-22.3-16.7-19.2-30.4S2329.5,892.7,2343.2,895.8z" style="fill:#FFDA54;"/>
		<path d="M2441.6,918l0.8,0.2c13.7,3.1,22.3,16.7,19.2,30.4c-3.1,13.7-16.7,22.3-30.4,19.2l-0.8-0.2
			c-13.7-3.1-22.3-16.7-19.2-30.4C2414.3,923.5,2427.9,914.9,2441.6,918z" style="fill:#FFDA54;"/>
		<path d="M1863.7,1187.4l0.8,0.2c13.7,3.1,22.3,16.7,19.2,30.4c-3.1,13.7-16.7,22.3-30.4,19.2l-0.8-0.2
			c-13.7-3.1-22.3-16.7-19.2-30.4S1850,1184.3,1863.7,1187.4z" style="fill:#FFDA54;"/>
		<path d="M1962.1,1209.6l0.8,0.2c13.7,3.1,22.3,16.7,19.2,30.4s-16.7,22.3-30.4,19.2l-0.8-0.2
			c-13.7-3.1-22.3-16.7-19.2-30.4C1934.8,1215.1,1948.4,1206.5,1962.1,1209.6z" style="fill:#FFDA54;"/>
		<path d="M2060.6,1231.8l0.8,0.2c13.7,3.1,22.3,16.7,19.2,30.4c-3.1,13.7-16.7,22.3-30.4,19.2l-0.8-0.2
			c-13.7-3.1-22.3-16.7-19.2-30.4S2046.9,1228.7,2060.6,1231.8z" style="fill:#FFDA54;"/>
		<path d="M2159,1254l0.8,0.2c13.7,3.1,22.3,16.7,19.2,30.4c-3.1,13.7-16.7,22.3-30.4,19.2l-0.8-0.2
			c-13.7-3.1-22.3-16.7-19.2-30.4C2131.6,1259.5,2145.3,1250.9,2159,1254z" style="fill:#FFDA54;"/>
		<path d="M2257.4,1276.2l0.8,0.2c13.7,3.1,22.3,16.7,19.2,30.4c-3.1,13.7-16.7,22.3-30.4,19.2l-0.8-0.2
			c-13.7-3.1-22.3-16.7-19.2-30.4C2230.1,1281.7,2243.7,1273.1,2257.4,1276.2z" style="fill:#FFDA54;"/>
		<path d="M2355.8,1298.4l0.8,0.2c13.7,3.1,22.3,16.7,19.2,30.4c-3.1,13.7-16.7,22.3-30.4,19.2l-0.8-0.2
			c-13.7-3.1-22.3-16.7-19.2-30.4C2328.5,1303.9,2342.1,1295.3,2355.8,1298.4z" style="fill:#FFDA54;"/>
		<path d="M1885.2,1092.3l0.8,0.2c13.7,3.1,22.3,16.7,19.2,30.4s-16.7,22.3-30.4,19.2l-0.8-0.2
			c-13.7-3.1-22.3-16.7-19.2-30.4C1857.9,1097.8,1871.5,1089.2,1885.2,1092.3z" style="fill:#FFDA54;"/>
		<path d="M1983.6,1114.5l0.8,0.2c13.7,3.1,22.3,16.7,19.2,30.4s-16.7,22.3-30.4,19.2l-0.8-0.2
			c-13.7-3.1-22.3-16.7-19.2-30.4S1969.9,1111.4,1983.6,1114.5z" style="fill:#FFDA54;"/>
		<path d="M2082,1136.7l0.8,0.2c13.7,3.1,22.3,16.7,19.2,30.4c-3.1,13.7-16.7,22.3-30.4,19.2l-0.8-0.2
			c-13.7-3.1-22.3-16.7-19.2-30.4C2054.7,1142.2,2068.3,1133.6,2082,1136.7z" style="fill:#FFDA54;"/>
		<path d="M2180.4,1158.9l0.8,0.2c13.7,3.1,22.3,16.7,19.2,30.4c-3.1,13.7-16.7,22.3-30.4,19.2l-0.8-0.2
			c-13.7-3.1-22.3-16.7-19.2-30.4C2153.1,1164.4,2166.7,1155.8,2180.4,1158.9z" style="fill:#FFDA54;"/>
		<path d="M2278.8,1181.1l0.8,0.2c13.7,3.1,22.3,16.7,19.2,30.4c-3.1,13.7-16.7,22.3-30.4,19.2l-0.8-0.2
			c-13.7-3.1-22.3-16.7-19.2-30.4C2251.5,1186.6,2265.1,1178,2278.8,1181.1z" style="fill:#FFDA54;"/>
		<path d="M2377.2,1203.3l0.8,0.2c13.7,3.1,22.3,16.7,19.2,30.4c-3.1,13.7-16.7,22.3-30.4,19.2l-0.8-0.2
			c-13.7-3.1-22.3-16.7-19.2-30.4C2349.9,1208.8,2363.5,1200.2,2377.2,1203.3z" style="fill:#FFDA54;"/>
		<path d="M1992.5,616.8l0.8,0.2c13.7,3.1,22.3,16.7,19.2,30.4s-16.7,22.3-30.4,19.2l-0.8-0.2
			c-13.7-3.1-22.3-16.7-19.2-30.4S1978.8,613.7,1992.5,616.8z" style="fill:#FFDA54;"/>
		<path d="M2090.9,639l0.8,0.2c13.7,3.1,22.3,16.7,19.2,30.4c-3.1,13.7-16.7,22.3-30.4,19.2l-0.8-0.2
			c-13.7-3.1-22.3-16.7-19.2-30.4C2063.5,644.5,2077.2,635.9,2090.9,639z" style="fill:#FFDA54;"/>
		<path d="M2189.3,661.2l0.8,0.2c13.7,3.1,22.3,16.7,19.2,30.4c-3.1,13.7-16.7,22.3-30.4,19.2l-0.8-0.2
			c-13.7-3.1-22.3-16.7-19.2-30.4C2162,666.7,2175.6,658.1,2189.3,661.2z" style="fill:#FFDA54;"/>
		<path d="M2287.7,683.4l0.8,0.2c13.7,3.1,22.3,16.7,19.2,30.4c-3.1,13.7-16.7,22.3-30.4,19.2l-0.8-0.2
			c-13.7-3.1-22.3-16.7-19.2-30.4C2260.4,688.9,2274,680.3,2287.7,683.4z" style="fill:#FFDA54;"/>
		<path d="M2386.1,705.6l0.8,0.2c13.7,3.1,22.3,16.7,19.2,30.4c-3.1,13.7-16.7,22.3-30.4,19.2l-0.8-0.2
			c-13.7-3.1-22.3-16.7-19.2-30.4C2358.8,711.1,2372.4,702.5,2386.1,705.6z" style="fill:#FFDA54;"/>
		<path d="M2484.5,727.8l0.8,0.2c13.7,3.1,22.3,16.7,19.2,30.4c-3.1,13.7-16.7,22.3-30.4,19.2l-0.8-0.2
			c-13.7-3.1-22.3-16.7-19.2-30.4C2457.2,733.3,2470.8,724.7,2484.5,727.8z" style="fill:#FFDA54;"/>
		<path d="M1949.5,807l0.8,0.2c13.7,3.1,22.3,16.7,19.2,30.4s-16.7,22.3-30.4,19.2l-0.8-0.2
			c-13.7-3.1-22.3-16.7-19.2-30.4S1935.8,803.9,1949.5,807z" style="fill:#FFDA54;"/>
		<path d="M2048,829.2l0.8,0.2c13.7,3.1,22.3,16.7,19.2,30.4c-3.1,13.7-16.7,22.3-30.4,19.2l-0.8-0.2
			c-13.7-3.1-22.3-16.7-19.2-30.4C2020.6,834.7,2034.3,826.1,2048,829.2z" style="fill:#FFDA54;"/>
		<path d="M2146.4,851.4l0.8,0.2c13.7,3.1,22.3,16.7,19.2,30.4c-3.1,13.7-16.7,22.3-30.4,19.2l-0.8-0.2
			c-13.7-3.1-22.3-16.7-19.2-30.4C2119.1,856.9,2132.7,848.3,2146.4,851.4z" style="fill:#FFDA54;"/>
		<path d="M2244.8,873.6l0.8,0.2c13.7,3.1,22.3,16.7,19.2,30.4c-3.1,13.7-16.7,22.3-30.4,19.2l-0.8-0.2
			c-13.7-3.1-22.3-16.7-19.2-30.4C2217.5,879.1,2231.1,870.5,2244.8,873.6z" style="fill:#FFDA54;"/>
		<path d="M2343.2,895.8l0.8,0.2c13.7,3.1,22.3,16.7,19.2,30.4c-3.1,13.7-16.7,22.3-30.4,19.2l-0.8-0.2
			c-13.7-3.1-22.3-16.7-19.2-30.4S2329.5,892.7,2343.2,895.8z" style="fill:#FFDA54;"/>
		<path d="M2441.6,918l0.8,0.2c13.7,3.1,22.3,16.7,19.2,30.4c-3.1,13.7-16.7,22.3-30.4,19.2l-0.8-0.2
			c-13.7-3.1-22.3-16.7-19.2-30.4C2414.3,923.5,2427.9,914.9,2441.6,918z" style="fill:#FFDA54;"/>
		<path d="M1971,711.9l0.8,0.2c13.7,3.1,22.3,16.7,19.2,30.4c-3.1,13.7-16.7,22.3-30.4,19.2l-0.8-0.2
			c-13.7-3.1-22.3-16.7-19.2-30.4C1943.7,717.4,1957.3,708.8,1971,711.9z" style="fill:#FFDA54;"/>
		<path d="M2069.4,734.1l0.8,0.2c13.7,3.1,22.3,16.7,19.2,30.4c-3.1,13.7-16.7,22.3-30.4,19.2l-0.8-0.2
			c-13.7-3.1-22.3-16.7-19.2-30.4S2055.7,731,2069.4,734.1z" style="fill:#FFDA54;"/>
		<path d="M2167.8,756.3l0.8,0.2c13.7,3.1,22.3,16.7,19.2,30.4c-3.1,13.7-16.7,22.3-30.4,19.2l-0.8-0.2
			c-13.7-3.1-22.3-16.7-19.2-30.4C2140.5,761.8,2154.1,753.2,2167.8,756.3z" style="fill:#FFDA54;"/>
		<path d="M2266.2,778.5l0.8,0.2c13.7,3.1,22.3,16.7,19.2,30.4c-3.1,13.7-16.7,22.3-30.4,19.2l-0.8-0.2
			c-13.7-3.1-22.3-16.7-19.2-30.4C2238.9,784,2252.5,775.4,2266.2,778.5z" style="fill:#FFDA54;"/>
		<path d="M2364.6,800.7l0.8,0.2c13.7,3.1,22.3,16.7,19.2,30.4c-3.1,13.7-16.7,22.3-30.4,19.2l-0.8-0.2
			c-13.7-3.1-22.3-16.7-19.2-30.4C2337.3,806.2,2350.9,797.6,2364.6,800.7z" style="fill:#FFDA54;"/>
		<path d="M2463,822.9l0.8,0.2c13.7,3.1,22.3,16.7,19.2,30.4c-3.1,13.7-16.7,22.3-30.4,19.2l-0.8-0.2
			c-13.7-3.1-22.3-16.7-19.2-30.4C2435.7,828.4,2449.3,819.8,2463,822.9z" style="fill:#FFDA54;"/>
		<path d="M2013.9,521.7l0.8,0.2c13.7,3.1,22.3,16.7,19.2,30.4s-16.7,22.3-30.4,19.2l-0.8-0.2
			c-13.7-3.1-22.3-16.7-19.2-30.4C1986.6,527.2,2000.2,518.6,2013.9,521.7z" style="fill:#FFDA54;"/>
		<path d="M2112.3,543.9l0.8,0.2c13.7,3.1,22.3,16.7,19.2,30.4c-3.1,13.7-16.7,22.3-30.4,19.2l-0.8-0.2
			c-13.7-3.1-22.3-16.7-19.2-30.4C2085,549.4,2098.6,540.8,2112.3,543.9z" style="fill:#FFDA54;"/>
		<path d="M2210.7,566.1l0.8,0.2c13.7,3.1,22.3,16.7,19.2,30.4c-3.1,13.7-16.7,22.3-30.4,19.2l-0.8-0.2
			c-13.7-3.1-22.3-16.7-19.2-30.4C2183.4,571.6,2197,563,2210.7,566.1z" style="fill:#FFDA54;"/>
		<path d="M2309.1,588.3l0.8,0.2c13.7,3.1,22.3,16.7,19.2,30.4c-3.1,13.7-16.7,22.3-30.4,19.2l-0.8-0.2
			c-13.7-3.1-22.3-16.7-19.2-30.4C2281.8,593.8,2295.4,585.2,2309.1,588.3z" style="fill:#FFDA54;"/>
		<path d="M2407.5,610.5l0.8,0.2c13.7,3.1,22.3,16.7,19.2,30.4c-3.1,13.7-16.7,22.3-30.4,19.2l-0.8-0.2
			c-13.7-3.1-22.3-16.7-19.2-30.4C2380.2,616,2393.8,607.4,2407.5,610.5z" style="fill:#FFDA54;"/>
		<path d="M2505.9,632.7l0.8,0.2c13.7,3.1,22.3,16.7,19.2,30.4c-3.1,13.7-16.7,22.3-30.4,19.2l-0.8-0.2
			c-13.7-3.1-22.3-16.7-19.2-30.4C2478.6,638.2,2492.2,629.6,2505.9,632.7z" style="fill:#FFDA54;"/>
	</g>
</g>
</svg>
