<?xml version="1.0" encoding="utf-8"?>
<!-- Generator: Adobe Illustrator 21.0.0, SVG Export Plug-In . SVG Version: 6.00 Build 0)  -->
<svg version="1.1" xmlns="http://www.w3.org/2000/svg" xmlns:xlink="http://www.w3.org/1999/xlink" x="0px" y="0px" viewBox="0 0 2488.1 2986" style="enable-background:new 0 0 2488.1 2986;" xml:space="preserve">

<g>
	<g>
		<path d="M1073,2187.8l-0.8-0.1c-13.9-1.7-23.9-14.4-22.1-28.3s14.4-23.9,28.3-22.1l0.8,0.1
			c13.9,1.7,23.9,14.4,22.1,28.3C1099.6,2179.6,1087,2189.5,1073,2187.8z" style="fill:#FFC52D;"/>
		<path d="M972.9,2175.5l-0.8-0.1c-13.9-1.7-23.9-14.4-22.1-28.3c1.7-13.9,14.4-23.9,28.3-22.1l0.8,0.1
			c13.9,1.7,23.9,14.4,22.1,28.3S986.8,2177.2,972.9,2175.5z" style="fill:#FFC52D;"/>
		<path d="M872.8,2163.2l-0.8-0.1c-13.9-1.7-23.9-14.4-22.1-28.3s14.4-23.9,28.3-22.1l0.8,0.1
			c13.9,1.7,23.9,14.4,22.1,28.3S886.7,2165,872.8,2163.2z" style="fill:#FFC52D;"/>
		<path d="M772.6,2150.9l-0.8-0.1c-13.9-1.7-23.9-14.4-22.1-28.3s14.4-23.9,28.3-22.1l0.8,0.1
			c13.9,1.7,23.9,14.4,22.1,28.3C799.3,2142.7,786.6,2152.7,772.6,2150.9z" style="fill:#FFC52D;"/>
		<path d="M672.5,2138.7l-0.8-0.1c-13.9-1.7-23.9-14.4-22.1-28.3s14.4-23.9,28.3-22.1l0.8,0.1
			c13.9,1.7,23.9,14.4,22.1,28.3S686.4,2140.4,672.5,2138.7z" style="fill:#FFC52D;"/>
		<path d="M1061.1,2284.6l-0.8-0.1c-13.9-1.7-23.9-14.4-22.1-28.3s14.4-23.9,28.3-22.1l0.8,0.1
			c13.9,1.7,23.9,14.4,22.1,28.3C1087.8,2276.4,1075.1,2286.3,1061.1,2284.6z" style="fill:#FFC52D;"/>
		<path d="M961,2272.3l-0.8-0.1c-13.9-1.7-23.9-14.4-22.1-28.3s14.4-23.9,28.3-22.1l0.8,0.1
			c13.9,1.7,23.9,14.4,22.1,28.3C987.6,2264.1,974.9,2274,961,2272.3z" style="fill:#FFC52D;"/>
		<path d="M860.9,2260l-0.8-0.1c-13.9-1.7-23.9-14.4-22.1-28.3s14.4-23.9,28.3-22.1l0.8,0.1
			c13.9,1.7,23.9,14.4,22.1,28.3S874.8,2261.7,860.9,2260z" style="fill:#FFC52D;"/>
		<path d="M760.7,2247.7l-0.8-0.1c-13.9-1.7-23.9-14.4-22.1-28.3s14.4-23.9,28.3-22.1l0.8,0.1
			c13.9,1.7,23.9,14.4,22.1,28.3S774.7,2249.4,760.7,2247.7z" style="fill:#FFC52D;"/>
		<path d="M660.6,2235.4l-0.8-0.1c-13.9-1.7-23.9-14.4-22.1-28.3c1.7-13.9,14.4-23.9,28.3-22.1l0.8,0.1
			c13.9,1.7,23.9,14.4,22.1,28.3S674.6,2237.1,660.6,2235.4z" style="fill:#FFC52D;"/>
		<path d="M1049.3,2381.4l-0.8-0.1c-13.9-1.7-23.9-14.4-22.1-28.3s14.4-23.9,28.3-22.1l0.8,0.1
			c13.9,1.7,23.9,14.4,22.1,28.3C1075.9,2373.2,1063.2,2383.1,1049.3,2381.4z" style="fill:#FFC52D;"/>
		<path d="M949.1,2369.1l-0.8-0.1c-13.9-1.7-23.9-14.4-22.1-28.3c1.7-13.9,14.4-23.9,28.3-22.1l0.8,0.1
			c13.9,1.7,23.9,14.4,22.1,28.3S963.1,2370.8,949.1,2369.1z" style="fill:#FFC52D;"/>
		<path d="M849,2356.8l-0.8-0.1c-13.9-1.7-23.9-14.4-22.1-28.3c1.7-13.9,14.4-23.9,28.3-22.1l0.8,0.1
			c13.9,1.7,23.9,14.4,22.1,28.3S862.9,2358.5,849,2356.8z" style="fill:#FFC52D;"/>
		<path d="M748.9,2344.5l-0.8-0.1c-13.9-1.7-23.9-14.4-22.1-28.3s14.4-23.9,28.3-22.1l0.8,0.1
			c13.9,1.7,23.9,14.4,22.1,28.3C775.5,2336.3,762.8,2346.2,748.9,2344.5z" style="fill:#FFC52D;"/>
		<path d="M648.7,2332.2l-0.8-0.1c-13.9-1.7-23.9-14.4-22.1-28.3s14.4-23.9,28.3-22.1l0.8,0.1
			c13.9,1.7,23.9,14.4,22.1,28.3C675.4,2324,662.7,2333.9,648.7,2332.2z" style="fill:#FFC52D;"/>
		<path d="M1096.8,1994.3l-0.8-0.1c-13.9-1.7-23.9-14.4-22.1-28.3s14.4-23.9,28.3-22.1l0.8,0.1
			c13.9,1.7,23.9,14.4,22.1,28.3C1123.4,1986.1,1110.7,1996,1096.8,1994.3z" style="fill:#FFC52D;"/>
		<path d="M996.6,1982l-0.8-0.1c-13.9-1.7-23.9-14.4-22.1-28.3c1.7-13.9,14.4-23.9,28.3-22.1l0.8,0.1
			c13.9,1.7,23.9,14.4,22.1,28.3C1023.3,1973.8,1010.6,1983.7,996.6,1982z" style="fill:#FFC52D;"/>
		<path d="M896.5,1969.7l-0.8-0.1c-13.9-1.7-23.9-14.4-22.1-28.3c1.7-13.9,14.4-23.9,28.3-22.1l0.8,0.1
			c13.9,1.7,23.9,14.4,22.1,28.3S910.5,1971.4,896.5,1969.7z" style="fill:#FFC52D;"/>
		<path d="M796.4,1957.4l-0.8-0.1c-13.9-1.7-23.9-14.4-22.1-28.3s14.4-23.9,28.3-22.1l0.8,0.1
			c13.9,1.7,23.9,14.4,22.1,28.3C823,1949.2,810.3,1959.1,796.4,1957.4z" style="fill:#FFC52D;"/>
		<path d="M696.3,1945.1l-0.8-0.1c-13.9-1.7-23.9-14.4-22.1-28.3c1.7-13.9,14.4-23.9,28.3-22.1l0.8,0.1
			c13.9,1.7,23.9,14.4,22.1,28.3C722.9,1936.9,710.2,1946.8,696.3,1945.1z" style="fill:#FFC52D;"/>
		<path d="M1084.9,2091.1l-0.8-0.1c-13.9-1.7-23.9-14.4-22.1-28.3s14.4-23.9,28.3-22.1l0.8,0.1
			c13.9,1.7,23.9,14.4,22.1,28.3C1111.5,2082.9,1098.8,2092.8,1084.9,2091.1z" style="fill:#FFC52D;"/>
		<path d="M984.8,2078.8l-0.8-0.1c-13.9-1.7-23.9-14.4-22.1-28.3s14.4-23.9,28.3-22.1l0.8,0.1
			c13.9,1.7,23.9,14.4,22.1,28.3C1011.4,2070.6,998.7,2080.5,984.8,2078.8z" style="fill:#FFC52D;"/>
		<path d="M884.6,2066.5l-0.8-0.1c-13.9-1.7-23.9-14.4-22.1-28.3c1.7-13.9,14.4-23.9,28.3-22.1l0.8,0.1
			c13.9,1.7,23.9,14.4,22.1,28.3S898.6,2068.2,884.6,2066.5z" style="fill:#FFC52D;"/>
		<path d="M784.5,2054.2l-0.8-0.1c-13.9-1.7-23.9-14.4-22.1-28.3s14.4-23.9,28.3-22.1l0.8,0.1
			c13.9,1.7,23.9,14.4,22.1,28.3S798.5,2055.9,784.5,2054.2z" style="fill:#FFC52D;"/>
		<path d="M684.4,2041.9l-0.8-0.1c-13.9-1.7-23.9-14.4-22.1-28.3c1.7-13.9,14.4-23.9,28.3-22.1l0.8,0.1
			c13.9,1.7,23.9,14.4,22.1,28.3C711,2033.7,698.3,2043.6,684.4,2041.9z" style="fill:#FFC52D;"/>
		<path d="M1120.5,1800.8l-0.8-0.1c-13.9-1.7-23.9-14.4-22.1-28.3s14.4-23.9,28.3-22.1l0.8,0.1
			c13.9,1.7,23.9,14.4,22.1,28.3C1147.2,1792.6,1134.5,1802.5,1120.5,1800.8z" style="fill:#FFC52D;"/>
		<path d="M1020.4,1788.5l-0.8-0.1c-13.9-1.7-23.9-14.4-22.1-28.3c1.7-13.9,14.4-23.9,28.3-22.1l0.8,0.1
			c13.9,1.7,23.9,14.4,22.1,28.3S1034.4,1790.2,1020.4,1788.5z" style="fill:#FFC52D;"/>
		<path d="M920.3,1776.2l-0.8-0.1c-13.9-1.7-23.9-14.4-22.1-28.3c1.7-13.9,14.4-23.9,28.3-22.1l0.8,0.1
			c13.9,1.7,23.9,14.4,22.1,28.3S934.2,1777.9,920.3,1776.2z" style="fill:#FFC52D;"/>
		<path d="M820.2,1763.9l-0.8-0.1c-13.9-1.7-23.9-14.4-22.1-28.3c1.7-13.9,14.4-23.9,28.3-22.1l0.8,0.1
			c13.9,1.7,23.9,14.4,22.1,28.3C846.8,1755.7,834.1,1765.6,820.2,1763.9z" style="fill:#FFC52D;"/>
		<path d="M720,1751.6l-0.8-0.1c-13.9-1.7-23.9-14.4-22.1-28.3c1.7-13.9,14.4-23.9,28.3-22.1l0.8,0.1
			c13.9,1.7,23.9,14.4,22.1,28.3S734,1753.3,720,1751.6z" style="fill:#FFC52D;"/>
		<path d="M1108.7,1897.5l-0.8-0.1c-13.9-1.7-23.9-14.4-22.1-28.3s14.4-23.9,28.3-22.1l0.8,0.1
			c13.9,1.7,23.9,14.4,22.1,28.3C1135.3,1889.3,1122.6,1899.3,1108.7,1897.5z" style="fill:#FFC52D;"/>
		<path d="M1008.5,1885.2l-0.8-0.1c-13.9-1.7-23.9-14.4-22.1-28.3c1.7-13.9,14.4-23.9,28.3-22.1l0.8,0.1
			c13.9,1.7,23.9,14.4,22.1,28.3C1035.2,1877,1022.5,1887,1008.5,1885.2z" style="fill:#FFC52D;"/>
		<path d="M908.4,1873l-0.8-0.1c-13.9-1.7-23.9-14.4-22.1-28.3c1.7-13.9,14.4-23.9,28.3-22.1l0.8,0.1
			c13.9,1.7,23.9,14.4,22.1,28.3S922.3,1874.7,908.4,1873z" style="fill:#FFC52D;"/>
		<path d="M808.3,1860.7l-0.8-0.1c-13.9-1.7-23.9-14.4-22.1-28.3s14.4-23.9,28.3-22.1l0.8,0.1
			c13.9,1.7,23.9,14.4,22.1,28.3C834.9,1852.5,822.2,1862.4,808.3,1860.7z" style="fill:#FFC52D;"/>
		<path d="M708.1,1848.4l-0.8-0.1c-13.9-1.7-23.9-14.4-22.1-28.3c1.7-13.9,14.4-23.9,28.3-22.1l0.8,0.1
			c13.9,1.7,23.9,14.4,22.1,28.3C734.8,1840.2,722.1,1850.1,708.1,1848.4z" style="fill:#FFC52D;"/>
		<path d="M1049.3,2381.4l-0.8-0.1c-13.9-1.7-23.9-14.4-22.1-28.3s14.4-23.9,28.3-22.1l0.8,0.1
			c13.9,1.7,23.9,14.4,22.1,28.3C1075.9,2373.2,1063.2,2383.1,1049.3,2381.4z" style="fill:#FFC52D;"/>
		<path d="M949.1,2369.1l-0.8-0.1c-13.9-1.7-23.9-14.4-22.1-28.3c1.7-13.9,14.4-23.9,28.3-22.1l0.8,0.1
			c13.9,1.7,23.9,14.4,22.1,28.3S963.1,2370.8,949.1,2369.1z" style="fill:#FFC52D;"/>
		<path d="M849,2356.8l-0.8-0.1c-13.9-1.7-23.9-14.4-22.1-28.3c1.7-13.9,14.4-23.9,28.3-22.1l0.8,0.1
			c13.9,1.7,23.9,14.4,22.1,28.3S862.9,2358.5,849,2356.8z" style="fill:#FFC52D;"/>
		<path d="M748.9,2344.5l-0.8-0.1c-13.9-1.7-23.9-14.4-22.1-28.3s14.4-23.9,28.3-22.1l0.8,0.1
			c13.9,1.7,23.9,14.4,22.1,28.3C775.5,2336.3,762.8,2346.2,748.9,2344.5z" style="fill:#FFC52D;"/>
		<path d="M648.7,2332.2l-0.8-0.1c-13.9-1.7-23.9-14.4-22.1-28.3s14.4-23.9,28.3-22.1l0.8,0.1
			c13.9,1.7,23.9,14.4,22.1,28.3C675.4,2324,662.7,2333.9,648.7,2332.2z" style="fill:#FFC52D;"/>
	</g>
	<path d="M1537.8,353.1c135.3-19.8,293.1-5.5,377.8,103.6c51.2,66,64.9,154.9,60.8,238.8
		c-8.6,175.8-89.3,344.5-210.7,469.9c-121.5,125.5-281.7,208.9-450.3,249.4c-101.3,24.3-205.4,33.8-309.1,43
		c-131.9,11.7-269.1,22.5-392.9-25.4c-45.5-17.6-89.4-44.1-117.7-84.3c-25.3-36-36.3-80.3-42.9-124.1
		c-36-237.9,72.7-409.6,263.9-521.5C972.1,553,1241.9,396.5,1537.8,353.1z" style="fill:#E5E5E5;"/>
	<g>
		<g>
			<path d="M1326.4,2192.4c8.2,0,16.5,0,24.7,0c1.8,0.4,3.6,1,5.4,1c21.2,0.1,42.4-0.8,63.5,0.4
				c12.4,0.7,24.8,0.7,37.2,0.8c3.3,0,6.6-0.2,9.8,0.1c7.4,0.6,14.7,1.5,22.1,2c4.5,0.3,9-0.1,13.5,0.2c6.7,0.5,13.3,1.5,20,2
				c7.8,0.6,15.7,0.6,23.5,1.2c5.8,0.4,11.5,1.4,17.3,2.1c6.8,0.7,13.7,1.1,20.5,2c13.1,1.7,26.1,3.6,39.2,5.5
				c10.4,1.5,20.9,2.6,31.2,5c19.6,4.4,38.9,9.6,58.4,14.3c7.6,1.8,15.5,2.7,23.1,4.9c7.3,2.1,14.2,5.4,21.4,7.9
				c9.5,3.2,19.3,5.6,28.7,9.2c9.5,3.6,18.5,8.4,28,12.2c15.5,6.2,28.9,15.7,42.7,24.7c9.2,6.1,18.5,12,27.7,18.1
				c10.9,7.2,22.4,13.8,32.5,22.1c9.8,8.1,18.5,17.6,26.9,27.1c5.4,6.1,9.3,13.4,13.9,20.2c7.2-4,5.9-11.3,5.9-17.9
				c0-2.6-2.4-5.1-2.5-7.7c-0.1-7.2,0.6-14.3,0.7-21.5c0.1-5.1,2.5-6.6,7.6-5.2c1,6.5,2.9,13,3,19.5c0.3,23.6,0.1,47.3-0.1,70.9
				c-0.1,12.7-1.6,25.4-6.5,37.1c-4,9.7-9.9,18.6-15.2,27.7c-7.9,13.3-17.4,25.3-28.5,36c-6.1,5.9-12.5,11.5-19.1,16.9
				c-6.7,5.4-13.6,10.8-20.9,15.4c-6.6,4.2-13.6,7.8-20.7,11.1c-10.2,4.8-20.5,9.4-30.9,13.6c-8,3.2-16.4,5.5-24.4,8.6
				c-14.8,5.7-29.4,12.2-44.4,17.5c-9.8,3.5-20,5.9-30.1,8.3c-10.2,2.3-20.6,4-30.9,5.9c-5.9,1.1-11.7,2.1-17.5,3.4
				c-6.9,1.6-13.7,3.8-20.7,5.1c-12.5,2.2-25,3.9-37.5,5.7c-17.2,2.5-34.4,5.1-51.7,7.2c-9.1,1.1-18.4,1.3-27.5,2.3
				c-15.4,1.6-30.8,4-46.2,5.2c-14.2,1-28.5,0.8-42.8,1.3c-6.2,0.2-12.4,0.9-18.6,1c-7,0-13.9-0.8-20.9-0.7
				c-19.3,0.4-38.7,1.7-58,1.5c-21.5-0.3-42.9-2-64.4-3.1c-10.9-0.6-21.8-0.8-32.7-2.1c-12.7-1.5-25.3-4-37.9-6.3
				c-18.6-3.3-37.1-6.7-55.7-10.1c-9.3-1.7-18.6-3.3-27.9-5c-6.4-1.1-12.8-2-19.1-3.6c-7.8-2.1-15.4-5.1-23.2-7.2
				c-11.6-3.2-23.4-6.2-35.1-8.9c-4.8-1.1-9.9-0.9-14.6-2.1c-9.1-2.4-18-5.5-26.9-8.2c-7.5-2.3-15.4-3.7-22.5-6.9
				c-10.5-4.6-20.5-10.4-30.7-15.7c-9.3-4.8-18.9-9.1-27.8-14.5c-11.3-6.8-22.2-14.5-33.1-21.9c-7.2-4.9-14.9-9.4-21.2-15.3
				c-9.3-8.7-18-18.1-26.3-27.8c-8.8-10.3-16.3-21.5-20.6-34.8c-4-12.4-6.1-24.8-6-37.9c0.2-20.2-0.4-40.5-0.6-60.7
				c-0.1-5.2,1.8-9.8,5.4-15.6c1,3.2,1.8,4.7,2,6.3c0.6,5.7,0.9,11.4,1.4,17.1c0.1,1.2,0,2.7,0.5,3.7c1.5,2.5,3.4,4.8,4.5,6.4
				c3.7-6.2,8.1-13.2,12.2-20.5c5.3-9.4,13.9-15.8,21.3-23.2c4.4-4.4,9.7-7.8,14.8-11.4c3.6-2.6,7.6-4.5,11.1-7.2
				c4.8-3.7,9-8.3,14.1-11.6c11.6-7.8,23.5-15.3,35.4-22.6c4.4-2.7,9.5-4.2,14-6.7c8.9-4.9,17.4-10.9,26.6-15.1
				c9.4-4.3,19.4-7.5,29.3-10.5c11.5-3.5,23.1-6.5,34.8-9.1c13.2-2.9,26.5-4.8,39.8-7.5c9.1-1.9,18-4.7,27-6.5
				c15.6-3.2,31.3-6.2,47-8.8c13.4-2.2,26.8-3.7,40.3-5.2c7.6-0.9,15.2-1,22.8-1.7c16.3-1.5,32.7-3.3,49-4.8
				c9.9-0.9,19.8-1.4,29.7-2.3C1319.4,2194.1,1322.9,2193.1,1326.4,2192.4z" style="fill:#004901;"/>
		</g>
	</g>
	<g>
		<g>
			<path d="M1479,2568.6c-8.2,0-16.5,0-24.7,0c-1.8-0.4-3.6-1-5.4-1c-17.5-0.1-35.1,0-52.6-0.1c-4.3,0-8.6,0.1-13-0.1
				c-7.2-0.3-14.3-0.8-21.5-1c-7.8-0.2-15.6,0.2-23.3-0.1c-7.6-0.3-15.1-1.4-22.7-2c-4.3-0.3-8.7,0.1-13-0.2c-7-0.5-14-1.5-21.1-2
				c-7.6-0.6-15.3-0.5-22.9-1.2c-7.5-0.7-15-2.2-22.5-3.1c-16.3-1.9-32.6-3.4-48.8-5.5c-11.8-1.5-23.7-3-35.4-5.5
				c-13.4-2.8-26.7-6.8-40-10.1c-16.4-4.1-32.8-8.1-49.1-12.3c-6.7-1.7-13.3-3.8-19.8-6.2c-14.7-5.5-29.5-10.9-43.9-17.1
				c-10.3-4.4-20.6-9.2-30.1-15.1c-20.3-12.5-40.2-25.8-60.1-39c-8.2-5.4-16.3-11.2-23.9-17.4c-4.5-3.6-7.9-8.6-12.3-12.5
				c-20.1-17.9-31.6-40.6-37.8-66.4c-0.4-1.6-1.4-3.1-2.1-4.6c0-1.4,0-2.9,0-4.3c0.4-1.3,0.8-2.5,1.1-3.8c2-9.5,2.9-19.5,6.3-28.4
				c3.6-9.4,9.5-18,14.7-26.8c8.1-13.6,17.9-25.9,29.3-36.8c5.5-5.3,11.2-10.3,17.2-15c7.9-6.2,15.8-12.5,24.4-17.7
				c11-6.6,22.4-12.5,34-18c7.3-3.5,15.4-5.5,23-8.3c6.1-2.3,12.2-4.8,18.3-7.3c6.1-2.5,12-5.4,18.2-7.6c10-3.5,20.1-6.6,30.1-9.9
				c6.8-2.2,13.4-4.7,20.4-6.2c12.5-2.8,25.1-4.8,37.6-7.4c6.3-1.3,12.4-3.2,18.7-4.5c7-1.4,14.2-2.4,21.3-3.6
				c14.2-2.4,28.3-5,42.5-7.2c9.7-1.5,19.6-2.4,29.4-3.5c11.5-1.4,23.1-2.9,34.6-4c10.4-1,20.9-1.4,31.3-2.3
				c15.7-1.3,31.3-3.1,47-4.1c8.6-0.6,17.2,0,25.8-0.1c3.5-0.1,7-0.8,10.5-0.8c6.7-0.1,13.5,0.4,20.2,0.3c10.6-0.2,21.3-1,31.9-1.2
				c6-0.1,12.1,1.3,17.8,0.4c18.9-2.9,37.7-2.3,56.6-0.8c12.2,1,24.5,1.7,36.7,3.4c16.5,2.3,32.8,6.2,49.3,8.2
				c16.9,2,33.4,5.4,49.9,9.6c11.3,2.9,23.2,3.8,34.8,5.7c6,1,12.1,1.9,18,3.5c7.1,2,14,4.9,21.1,6.9c9.9,2.8,20,5.4,30,7.8
				c9.7,2.2,19.6,3.3,29.1,6.1c18.5,5.5,37.3,9.9,54.7,18.7c10.3,5.2,21,9.9,31.1,15.5c13.1,7.3,26,15.1,38.6,23.2
				c9,5.8,17.7,12.2,26.1,18.9c5.1,4.1,9.1,9.7,14.2,13.8c9.8,7.7,21.1,13.8,27.4,25.2c4.3,7.7,9.6,15.3,11.8,23.6
				c2.5,9.3,1.9,19.3,2.7,29.1c0.1,0.8,1.3,1.5,2,2.2c0,1.4,0,2.9,0,4.3c-0.7,1.3-1.8,2.5-1.9,3.8c-0.4,4.4,0.3,9.2-0.9,13.3
				c-3.1,10.2-4.8,20.9-11,30.2c-4.8,7.2-8.6,15-12.6,22.7c-4.9,9.3-13.5,15.2-20.6,22.4c-4.5,4.5-10,8-15.2,11.8
				c-3.3,2.4-7.4,3.8-10.2,6.5c-10.7,10.6-23.3,18.6-35.8,26.5c-8.8,5.6-18.6,9.5-27.7,14.5c-9.1,5-17.6,11.1-27,15.5
				c-9.4,4.3-19.4,7.5-29.3,10.4c-11.6,3.5-23.4,6.7-35.3,9.3c-13.2,2.9-26.5,4.8-39.7,7.5c-9.1,1.9-18,4.7-27,6.5
				c-15.6,3.2-31.3,6.2-47,8.8c-13.3,2.2-26.8,3.7-40.2,5.2c-7.6,0.9-15.2,1-22.8,1.7c-16.3,1.5-32.7,3.3-49,4.7
				c-9.9,0.9-19.8,1.4-29.6,2.3C1486,2566.9,1482.6,2567.9,1479,2568.6z" style="fill:#009B4D;"/>
		</g>
	</g>
	<g>
		<path d="M945.3,2272.7c8.4,1.2,16.8,2.3,25.2,3.7c119.6,19.8,239.2,39.7,358.9,59.3c33.1,5.4,66.3,9.8,99.4,14.7
			c6,0.9,12,1.5,18,2.4c9.1,1.3,16.8-2,23-8c27.8-27.2,55.2-54.7,82.9-82c29.6-29.2,59.3-58.2,89-87.3c4.8-4.8,5.6-4.8,10.6-0.4
			c68,60.2,136,120.4,203.9,180.8c1.7,1.5,3,4.9,2.7,7.2c-0.5,3.1-1.2,6.3-6.3,7.1c-62.9,9-125.7,18.4-188.6,27.8
			c-28.3,4.2-56.6,8.5-84.9,12.7c-21.4,3.2-42.8,6.4-64.2,9.6c-83.4,12.3-166.8,24.5-250.1,36.9c-27.6,4.1-55.2,8.4-82.8,12.3
			c-7.3,1.1-14.3-0.7-20-5.7c-71.1-62.1-142.2-124.2-213.4-186.3c-1.3-1.1-2.6-2.3-3.8-3.4C944.9,2273.5,945.1,2273.1,945.3,2272.7z
			" style="fill:#FFFFFF;"/>
		<path d="M1633,2168.9c-6.1,6-11.4,11.2-16.7,16.4c-49.7,48.8-99.5,97.5-149,146.5c-7.5,7.5-15.2,11.2-26.2,9.5
			c-76.2-12.4-152.4-24.1-228.6-36.4c-74.4-12-148.8-24.5-223.2-36.6c-13.8-2.3-27.6-4.1-42.5-6.2c1.8-0.7,2.6-1.1,3.4-1.2
			c92.8-13.1,185.6-26.8,278.5-39.2C1362.9,2203.5,1497.4,2186.5,1633,2168.9z" style="fill:#FFFFFF;"/>
	</g>
	<g>
		<path d="M1134,1225.9c-8.3-2.2-16.5-4.3-24.8-6.7c-15.6-4.5-31.2-9.2-46.8-13.8c-1.7-0.5-3.3-1.1-6.5-2.2
			c26.5-8.5,51.5-16.5,76.9-24.6c0.4,2.4,0.8,4.4,1.2,6.5C1134,1198.7,1134,1212.3,1134,1225.9z"/>
	</g>
	<g>
		<path d="M1446.6,1823.7c0,29.5,0,59.1,0,88.6c0,2,0.1,4-0.3,5.9c-0.9,4.2-3.8,6.6-8.1,6.4c-4.1-0.1-6.6-2.6-7.4-6.6
			c-0.4-2.1-0.3-4.3-0.3-6.4c-0.1-60-0.1-119.9-0.1-179.9c0-6.1,3.1-10,8-10.1c5.1-0.1,8.4,4,8.4,10.3c0,30.6,0,61.2,0,91.8
			C1446.7,1823.7,1446.6,1823.7,1446.6,1823.7z"/>
		<path d="M1379.1,1814.8c0,30.1,0,60.2,0,90.2c0,6.5-3.1,10.4-8.3,10.3c-5-0.1-8-3.9-8-10c0-59.6,0.1-119.2,0.1-178.9
			c0-8.3,2.5-12.2,7.9-12.3c5.5-0.1,8.1,3.9,8.1,12.6c0,29.4,0,58.7,0,88.1C1379,1814.8,1379.1,1814.8,1379.1,1814.8z"/>
	</g>
	<g>
		<g>
			<path d="M1208.9,1871.9c0.7,0.1,2.3,0.1,3.9,0.4c13.8,3.1,27.5,6.6,41.3,9.4c15.1,3.1,30.2,5.5,45.4,8.1
				c15.5,2.7,31,5.2,46.5,7.8c16,2.8,32,5.6,48,8.5c15.1,2.7,30.2,5.7,45.4,8.2c15.2,2.6,30.4,4.6,45.5,7.2
				c16.5,2.8,33,6.1,49.5,9.2c9.1,1.7,18.3,3.4,27.4,5.1c11.2,2.1,22.5,4.2,33.7,6.3c7.4,1.3,14.8,2.6,22.2,3.6
				c16.3,2.1,26.8,15.8,23.9,31.6c-2.8,15.2-17.7,24.3-33.3,20.9c-11-2.4-22.1-3.9-33.2-5.9c-11.1-2-22.1-4.2-33.2-6.1
				c-25-4.4-50-8.5-74.9-12.9c-15.5-2.7-30.9-5.7-46.4-8.5c-10.4-1.9-20.8-3.5-31.2-5.4c-15.3-2.7-30.6-5.6-45.9-8.3
				c-10.7-1.9-21.5-3.7-32.3-5.4c-11.1-1.8-22.3-3.4-33.3-5.4c-16-2.9-32-6.1-47.9-9.3c-10-2-20-4.1-29.8-6.7
				c-13.3-3.6-21-16-19-29.8C1183.1,1881.4,1194.6,1871.7,1208.9,1871.9z" style="fill:#009B4D;"/>
		</g>
	</g>
	<g>
		<path d="M1494.1,1757c-15.8,0-31.5,0-47.3,0c-1.6-0.4-3.2-0.9-4.9-1c-8.5-0.5-17.1-0.2-25.6-1.2
			c-20.8-2.5-41.5-5.5-62.2-8.5c-17.8-2.6-35.8-3.6-53.2-9.4c-13.9-4.6-27.4-9.4-39.7-17.4c-13.5-8.7-27.1-17.4-40.2-26.6
			c-8.3-5.8-16.1-12.2-23.7-18.9c-7.4-6.4-14.3-13.3-21.3-20.2c-5.6-5.5-11.9-10.5-16-17c-8.3-13.1-15.9-26.8-22.8-40.7
			c-4.7-9.5-8.4-19.5-11.4-29.7c-4-13.7-7.9-27.6-10.1-41.7c-3-19.3-4.5-38.8-6.6-58.3c-0.6-5.7-1.4-11.3-2.1-17
			c0-24.7,0-49.5,0-74.2c0.4-0.9,1-1.8,1-2.7c0.8-24.9,1.5-49.9,2.2-74.8c0.4-15.5,0.8-31.1,1.1-46.6c0.2-10.4-0.1-20.9,0.1-31.3
			c0.1-8.4,0.8-16.7,1-25c0.4-16.1,3.6-31.3,13.6-44.3c3.1-4.1,6.6-8,10-11.8c6.4-7.2,14.5-11.1,23.9-12.8c3.5-0.6,7-1.4,10.5-2.1
			c5.7,0,11.5,0,17.2,0c4.7,1.8,9.2,3.8,14,5.4c21.4,7.2,32.7,22.9,36.4,44.4c3.7,21.9,6.5,43.9,9.9,65.8
			c3.5,23.2,17.5,40.7,34.5,54.6c13.5,11,30.5,17.6,45.9,26.3c15.5,8.8,30.9,17.7,46.3,26.6c3.4,2,6.3,5,9.7,6.8
			c7.5,3.9,15.5,6.9,22.9,11.2c15.3,8.9,30.3,18.3,45.3,27.6c10.1,6.3,19.9,13.1,30.2,19.1c14.8,8.7,29.9,16.9,45,25.2
			c13.8,7.6,27.7,15.1,41.7,22.3c12.3,6.3,25,12,37.4,18.3c11.4,5.8,22.7,11.7,33.7,18.2c21.4,12.8,44.1,22.8,66.5,33.5
			c13.7,6.5,27,13.7,40.5,20.3c13.6,6.6,27.4,12.9,41.1,19.4c9,4.2,18.3,8,27,12.8c14.5,7.9,28.6,16.6,42.8,24.9c0,0.7,0,1.4,0,2.2
			c-6.7,8.3-10.7,18.6-20,25c-4,2.8-6.9,7.2-10.7,10.3c-14.9,11.7-32,19.7-48.8,28.2c-6.9,3.5-14,6.7-21.1,10
			c-9.8,4.6-19.6,9.3-29.5,13.7c-8,3.5-16.2,6.7-24.2,10c-11.2,4.7-22.2,10-33.7,13.9c-16.6,5.7-33.5,11-50.5,15.6
			c-14.3,3.9-29.2,5.6-43.4,9.8c-21.1,6.3-43,6.6-64.5,9.8C1506.2,1755.7,1500.1,1756.3,1494.1,1757z" style="fill:#0185D0;"/>
	</g>
	<path d="M1176.7,1254.4c1.2,2.5,2.1,4.1,2.8,5.8c3.7,9.3,7,18.7,11,27.9c4.2,9.6,6.2,19.4,3.6,29.8
		c-2.2,8.8-9,15.3-16.4,15.4c-10.8,0.2-17.1-4.2-19.4-14.7c-1.2-5.4-1.9-11.8-0.2-16.8C1163.5,1286.1,1170.1,1270.9,1176.7,1254.4z" style="fill:#FFFFFF;"/>
	<g>
		<path d="M1270.6,1281.8c7.7,13.1,20.3,17.8,31.5,24.3c14.7,8.4,29.6,16.7,44.3,25.2c15.6,9,30.6,19.1,46.7,27.1
			c16,8,31.3,17.2,46.4,26.6c14.1,8.8,28.3,17.5,42.6,26.2c8.5,5.1,17,10.2,25.7,14.9c14.5,8,29.1,15.9,43.9,23.4
			c17.3,8.8,35,16.7,52.3,25.6c10.5,5.4,20.4,12,30.7,17.7c11.2,6.2,22.4,12.3,33.9,18c15.6,7.7,31.6,14.7,47.2,22.4
			c11.4,5.7,22.3,12.5,33.8,18.2c9.7,4.8,19.7,8.8,29.6,13.2c4.5,2,9,3.9,14.8,6.4c-9.3,5.9-17.8,11.3-26.4,16.6
			c-9.3,5.7-18.5,11.6-28,16.9c-9.3,5.2-19.2,9.5-28.5,14.9c-24.1,13.9-50.9,20.4-77.1,28.9c-19.6,6.4-40,9.3-60,13.6
			c-19.8,4.2-39.6,5.3-59.6,4.2c-24-1.3-48.1-2.4-72-5.2c-19.7-2.3-38.5-9.2-56.5-17.8c-14.8-7-30.2-13.2-44.5-21.1
			c-11-6.1-21.3-13.8-30.9-22c-17.8-15.2-30.8-34.7-44.9-53.1c-7.1-9.3-14.1-19-19.6-29.3c-5.1-9.5-8.5-20-12.2-30.3
			c-6.5-17.8-8.7-36.5-9.1-55.3c-0.6-24.2,1.4-48.3,8.7-71.5c6-19.3,14.4-37.7,24.7-55.1C1262.4,1298,1266,1290.5,1270.6,1281.8z" style="fill:#F1592B;"/>
	</g>
	<g>
		<g>
			<path d="M1794.1,1571.3c-13.2,7.8-25.2,15.2-37.4,22.2c-17.5,10.1-34.8,20.4-52.7,29.8c-9.3,4.9-19.3,8.6-29.3,11.9
				c-16.3,5.4-32.6,10.7-49.3,14.9c-15,3.8-30.5,6.2-45.8,9c-9.5,1.7-19.1,2.8-28.5,4.7c-16.2,3.2-32.4,2.2-48.7,1.6
				c-14.1-0.6-28.3-1.2-42.3-2.7c-12-1.3-24.2-2.9-35.9-5.8c-24.9-6.2-48-17.3-71-28.5c-18.2-8.8-35.4-19.6-49.6-34.3
				c-7.2-7.4-13.5-15.7-20-23.8c-6.8-8.5-13.9-16.8-20-25.9c-7.6-11.2-14.3-23-21.2-34.6c-1.9-3.1-3.1-6.6-3.7-10.4
				c6.2,5.9,12.1,12.1,18.6,17.6c19.5,16.8,39,33.6,61.6,46.4c9.5,5.4,19.2,10.4,29.3,14.5c14,5.7,28.2,11.8,42.9,15
				c16.7,3.6,34,5,51.1,5.8c19.6,0.9,39.5,1.7,59-0.3c20.9-2.1,41.8-6.5,62.1-11.9c11.7-3.1,22.7-9.5,33.4-15.7
				c18.7-10.8,37.1-22.3,55.2-34.1c8-5.2,15.4-11.6,22.5-18.1c3.1-2.8,5.6-2.5,8.5-1.1c10.3,4.8,20.6,9.6,30.8,14.6
				c9.7,4.8,19.1,10,28.8,14.7c12.4,6,25,11.7,37.6,17.6C1784.4,1566.6,1788.5,1568.6,1794.1,1571.3z" style="fill:#FFC52D;"/>
		</g>
	</g>
	<g>
		<g>
			<path d="M1211.3,1185.5c-1.9,23.7-12.9,39.4-34.4,39.6c-19.2,0.2-37.3-18.1-37.1-36.8c0.3-19.1,18.1-36.2,37.7-36.1
				C1196.3,1152.4,1211.4,1167.3,1211.3,1185.5z" style="fill:#FFDA54;"/>
		</g>
	</g>
	<circle cx="1176.4" cy="1187.4" r="9.9"/>
	<g>
		<path d="M871.4,1172.2c-1.8-1.6,1-6.2-3.7-6c0-1-0.1-2.1,0.1-3.1c1.6-7.1,3.1-14.3,5.1-21.4c1.8-6.8,4.2-13.4,6.1-20.1
			c0.4-1.3-0.1-2.8-0.1-4.1c0-1.5-0.5-3.8,0.3-4.5c3.6-3.1,2.9-7.1,3.1-10.9c0.1-0.9,0.2-1.7,0.5-2.6c1.2-3.4,2.5-6.8,3.8-10.1
			c-0.4-0.2-0.8-0.3-1.2-0.5c1.5-0.4,3-0.9,4.5-1.3c0.2,0,0.3-0.2-0.8-0.7c1.6-5.7,3-11.4,4.8-17c1.6-5.3,3.4-10.6,5.4-15.8
			c0.6-1.5,2.3-2.7,2.9-4.2c0.7-2,0.6-4.3,1-6.9c-0.1,0,0.9,0.3,1.8,0.5c5.2-8.7,5.8-19.6,12.7-28.2c0.1-0.7-0.1-2.4,0.4-3.8
			c1.5-3.8,3.5-7.4,5.1-11.1c1.7-3.8,3.1-7.6,4.7-11.4c1.7-4.1,3.2-8.3,5.5-12.1c1.8-3,1.4-7.8,4.8-9.7c0.6,0.3,1.2,0.7,1.7,1
			c0.9-3.6,1.8-7.3,2.8-11.2c0.6,0.1,2.2,0.4,3.6,0.6c2.1-6.7,4.1-13.5,6.2-20.3c0.8,0.5,1.5,1,2.4,1.5c1.1-4.4,2.1-8.4,3.3-13
			c1.4-0.1,3.5-0.3,4.6-0.4c-0.2-3.1-0.6-5.5-0.4-7.8c0.1-0.5,2.1-0.9,3.3-1.3c0.3-0.1,0.8-0.2,0.9-0.5c1.3-2.9,2.5-5.9,4.2-9.8
			c0.6-0.3,4.7,1.5,2.6-3.5c-0.6-1.4,1.8-5.9,2.9-6c7.2-0.2,7-6.9,10.2-10.6c0.7-0.9,1.5-1.8,2.3-2.6c1.9-1.9,3.7-3.3,3.8-6.9
			c0.1-3.8,2.7-7.9,5.1-11.1c6.6-8.7,13.8-16.9,20.8-25.3c0.1-0.1,0.2-0.3,0.4-0.4c2.9-3,6.2-5.8,8.7-9.1c2.1-2.8,3.9-5.1,7.8-5.7
			c1.6-0.2,2.8-3.3,4.1-5.1c0.6-0.8,0.9-1.9,1.6-2.5c3.6-3.3,7.4-6.5,11.1-9.8c3-2.7,5.9-5.5,8.8-8.2c4-3.7,7.9-7.5,11.9-11.2
			c0.4-0.4,0.9-0.6,1.4-0.8c11.3-4.3,19.4-13,28.5-20.4c1-0.8,3-0.5,4.6-0.7c5-4.3,8.4-11.4,17.1-11.2c1.1,0,2.6-2.2,3.2-3.6
			c0.8-1.9,0.8-4.2,1.4-7.6c1.8,3.2,2.9,5.1,3.9,7c1.4-0.5,3.3-1.8,4.1-1.3c4.5,2.7,8.4-1.4,12.7-1c1,0.1,2-2.4,3.4-2.8
			c3.1-1,5.2-3.8,9.2-4c3-0.2,5.9-4.4,8.5-7.1c2.3-2.4,4-4,8-3.5c2.8,0.4,5.9-2.4,9-3.4c6-2,12.6-3,18.1-5.8
			c6.7-3.4,14.4-3.4,20.6-7.1c7.1-4.2,15.3-4.4,22.5-5.4c14.8-2.1,28.9-7.3,43.9-8.2c4.8-0.3,9.6-2.4,14.4-3.7
			c3.5-0.9,6.4-0.1,7.3,0.9c8.5-1,16.1-1.8,23.7-2.7c0.3,0,0.7,0.4,1,0.4c6.5-1.4,13-3.1,19.5-4.3c2.4-0.4,5,0.3,8.7,0.5
			c3.8-4.6,24.6-6.6,29.7-1.9c2.4-0.9,4.7-1.8,7.5-2.9c-0.8-2.7,2.5-7.7-4.1-8.6c-0.2,0-0.7-0.6-0.6-0.8c1.5-7.8-5.9-13.7-4.2-21.7
			c-1.9-0.2-3.3-0.3-4.8-0.5c0.3-1.8,2.7-4.8-1.4-4.1c-0.2-2.4-0.2-4.3-0.6-6.2c-0.6-2.8-5.2-4.5-2.4-8.3
			c-6.9-6.7-5.3-17.2-11.6-24.5c-2.5-3-4-9.5-2.5-12.8c2.5-5.5-0.5-9.3-1-13.8c-0.5-5.1,0-10.5-5.2-13.9c-0.3-0.2-0.3-1.1-0.1-1.5
			c4-6.5-2.2-14.4,2.9-20.8c0.3-0.4-0.4-1.7-0.8-2.5c-1.2-2.4-2.9-4.9,2.2-5c-0.8-1.5-1.4-2.6-2.1-3.8c1.4-0.5,2.7-1,3.9-1.4
			c-0.5-0.2-1-0.5-1.5-0.7c0.7-2.8,1-5.8,2.1-8.4c1-2.5,2.9-4.6,4.4-6.9c-0.4-0.4-0.8-0.8-1.2-1.1c1.4-0.5,2.9-1.1,3.9-1.4
			c-1-1.8-1.9-3.6-2.8-5.4c4.2,1.5,5.6-0.5,7.1-9.5c2.2-0.8,7.2,2.4,5.8-4.2c-0.2-0.9,3.7-2.6,6.1-3.8c3.8-2.1,7.5-4.6,11.5-6.3
			c5.8-2.4,11.8-4.5,17.9-6.2c3.6-1,7.4-1.1,11.1-1c3.6,0.1,8.3-2,10.1,3.6c0.1,0.3,1,0.3,1.5,0.3c4.1,0.7,7.9,1.3,10.8,5.1
			c1.2,1.5,5.5,0.4,7.1,1.9c3.3,2.9,5.6,6.8,8.4,10.3c0.6,0.7,1.1,1.5,1.8,2.2c2.5,2.3,5.7,4.2,3.8,8.6c-0.4,1-0.1,3.3,0.5,3.5
			c4.9,2,0.6,2.9,0.4,3.2c1.1,3.9,2.4,7,2.8,10.2c1.5,12.2,1.4,24.8,4.4,36.7c1.5,6.2-0.7,12,1.2,17.9c0.7,2.3-1.3,5.5-2.4,9.8
			c1.1,2.3-0.7,5.3-4.1,7.8c-2.9,2.2-4.2,4.7-1.8,7c-2.6,4.4-5.2,8.5-7.5,12.7c-3.8,6.9-7.8,13.8-10.8,21
			c-4.2,10-10.9,18.7-15.5,28.4c-2.8,5.9-5.1,11.9-9.3,17c-0.4,0.5-0.1,1.6-0.1,2.3c5.4-1.9,10.5-4.1,15.7-5.5
			c2-0.6,4.5,0.4,6.8,0.6c2.2,0.2,4.4,0.2,6.7,0.7c5.1,0.4,10.9-0.5,15.3,1.6c5.8,2.7,11.2,0.9,16.7,1.4c5.7,0.6,11.4,1.1,16.6,1.7
			c-3.8,3.1,0.1,3.7,2.4,5c0.8-1.8,1.5-3.5,2.6-6c1.4,2.5,2.3,4.1,3.5,6.3c1.9-1.4,3.5-2.6,5.2-3.7c3.7,1.9,6.6,5.7,12.3,4.2
			c2.5-0.7,5.9,2.3,9,3.4c3.7,1.3,7.5,3.4,10.7,0.1c1.3,0.8,2.5,2.3,3.7,2.2c3-0.2,5.9-1,5.8,4.7c1.9-5.4,4.2-4.9,7.8-3.4
			c3.3,1.4,7.4,2.1,10.9,1.5c4-0.7,5.3,0.1,4.4,5c3.2-4,5.4-6.2,9.2-1.7c1.4,1.7,5.7,0.9,8.6,1.6c2.9,0.7,5.6,1.8,9.4,3
			c0.2-0.3,0.8-1.7,1.4-2.9c3.2,1.6,6.4,3.2,10.2,5.2c5-4.4,10.3,1,15.4,2.6c2.9,1,5.8-1.2,8.4,1.3c1.2,1.2,3.6,1.4,5.5,1.8
			c2.3,0.4,4.6,0.6,6.9,0.9c0.6,1.8,1.3,3.8,2.3,6.5c-0.4,0.5-1.4,1.7-2.7,3.2c1.2,0.6,2.2,1.4,3.3,1.7c5.3,1,10.8,3,15.6,3.2
			c5.4,0.3,5.5,0.5,3.7,4.7c0.2,0.3,0.4,0.7,0.6,0.7c7.3,0.3,10.9,6.8,16.7,9.7c2.5,1.3,5.3,2.1,7.9,3.3c0.8,0.4,1.4,1.2,2,1.8
			c0.7,0.7,1.3,2.1,2.1,2.2c3.7,0.6,7.5,0.5,11.1,1.3c2.3,0.6,4.3,2.4,7.3,4.2c0.1,2.5,1.5,5.3,6.7,3.4c-0.1,0.5-0.1,1.1-0.2,1.6
			c-2.1,1.1-4.2,2.2-6.5,3.4c0,5.7,5.4,4.1,9.1,5.6c-0.2,1.6-0.4,3.2-0.7,5.4c5.8-3.5,9.7-1.5,13.6,3.5c2.2,2.8,6.1,4.2,9.4,5.6
			c1.4,1.7,2.4,4,4.1,5.1c5.6,3.6,11.4,6.9,17.1,10.2c0.5,0.3,1,0.6,1.2,1c3.1,6.7,10.3,8.9,15.1,13.7c4.3,4.3,9.3,7.9,13.3,12.4
			c1.5,1.6,1.1,4.9,1.6,7.9c1,1.1,2.8,2.9,4.6,5c0.4-0.3,1.2-0.9,2.2-1.8c1.6,2.3,3.4,4.4,4.6,6.9c1.2,2.5,1.9,5.2,2.6,7.2
			c3,0.5,5.2,1,7.4,1.4c-0.1,0.4-0.2,0.9-0.3,1.3c-1.1-0.2-2.3-0.5-4.7-1c4.5,3.8,3.6,9.7,9.1,12c4.8,2,4.6,8.3,7.9,11.8
			c1,1.1,2.1,2.3,3.1,3.3c-0.3,0.3-1.2,1.3-2,2.3c0.7,0.6,1.9,1.7,2,1.6c1.3-1.1,2.4-2.4,3-3c2.1,5.7,4.6,12.3,7.3,19.3
			c1.4-0.6,2.7-1.1,5.7-2.3c-1.7,3.4-2.7,5.4-4.1,8.3c1.8-0.5,2.8-0.8,3.2-0.9c2.1,1.7,3.9,3.2,6.3,5.2c-2.5,7.2,5.1,11,8,16.9
			c1.8,3.6,5.7,6.5,6.5,10.2c1.2,5.4,1,10.9,8.1,12.2c-0.3,1.3-0.6,2.7-1,4.4c1.8,0.4,3.3,0.7,4.3,0.9c0.6,2.8,1.1,5.2,1.6,7.7
			c-0.4,0.1-1.2,0.4-1.2,0.4c3.5,5.4,8.1,10.2,10.1,16c1.9,5.6,6,10.5,7,16.7c1.5,2.5,3.2,5.4,4.8,8.2c-1.8,1.5-2.9,2.4-3.9,3.4
			c1.3,1.3,2.4,3.2,3.9,3.8c4,1.6,4.8,5.4,4.4,8.4c-1.2,8.2,2.3,15.1,5,22.3c1.4,3.8,2.9,7.7,4.7,11.4c1.6,3.4,3.9,6.5,5.4,9.9
			c1.5,3.5,1.8,7.6,3.6,10.9c2.5,4.6-1.7,8.9,0.6,14.2c1.4-0.9,2.5-1.5,3.1-1.8c-0.5,1.4-2.3,3.9-2.3,6.5c-0.1,3.2,0.9,6.6,1.9,9.8
			c2.2,6.4,2.2,7.9-1.2,13.7c2.6,1.9,3.8,3.8,2.5,7.5c-0.9,2.5,0.2,5.8,0.5,8.7c0.7,5.6,1.6,11.2,2.2,16.8
			c0.9,8.9,1.6,17.8,2.3,26.7c0.5,6.1,0.6,12.3,1.1,18.4c0.5,4.9,1.7,9.7,2,14.6c0.4,7.1,0.4,14.2,0.5,21.3c0,7.5-0.2,15.1-0.1,22.6
			c0,1.9,1.1,3.8,2,7c-2.5,4-0.3,9.3,0.9,14.7c0.6,2.5,0.2,5.2,0.4,7.8c0.6,10.1,1.1,20.2,1.9,30.3c0.4,5.2,1.4,10.3,1.7,15.5
			c0.1,1.6-1.5,3.2-1.7,4.9c-0.2,1.8,0.4,3.7,0.6,5.5c0.7-0.3,1.5-0.5,1.3-0.5c0.3,3.6,0.6,7.5,0.9,11.3c0.3,4.3,0.7,8.6,1,12.9
			c0.1,0.9-0.3,2,0.2,2.5c3.9,4.3,1.2,6.6-2.8,8.8c3.1,3.3,6.4,5.9,3.9,11.6c-1.3,3,0.4,8.1,2,11.6c2,4.4-0.2,5.4-3.7,6.6
			c3.3,1.1,6.6,1.7,4.7,6.6c-0.8,2,0.3,4.7,0.6,7c0.8,5.7,2,11.4,2.3,17.2c0.1,1.9-2.2,3.9-3.8,6.4c1.7,0.5,2.8,0.8,4.2,1.2
			c-0.8,6.3-2,12.5-2.2,18.8c-0.1,3.8,1.8,7.6,2.5,11.4c0.3,1.8,0.7,4.1-0.1,5.5c-2.3,3.8-0.5,6.3,1.3,9.6c1.7,3.1,0.5,6.3-4.4,6.1
			c2.9,2.7,3.8,4.5,3.4,8.8c-0.4,4.2-4.9,9.1-0.4,14.1c1.3,1.5-0.6,5.7-0.4,8.5c0.3,3.5,1.8,7,1.7,10.5c-0.1,3.5-1.5,6.9-2.6,11.7
			c5.9,4.4-0.3,11.9,1.1,18.7c1.4,6.9,1.1,14.2,2.1,21.2c0.3,2.4,1.8,4.3-0.9,6.5c-0.7,0.5,0.5,3.4,0.7,4.2
			c-0.1,4.1-0.3,7.3-0.3,10.6c0,5.9,0.8,11.9-0.1,17.6c-0.6,3.3,0.9,5.3,1.3,7.9c0.7,4.1-0.6,8.5-0.7,12.8c-0.2,4.5,1.6,10-0.3,13.4
			c-3.3,5.8,1.4,11.3-1.3,17c-1.5,3.2,0.6,8.2,1.1,12.4c0.1,1.2,0.4,2.4,0.3,3.7c-0.2,9.9-0.4,19.8-0.7,29.7
			c-0.1,1.7-0.8,3.4-0.8,5.2c0,1.3,0.8,2.6,0.9,3.9c0.1,2,0,4.1-0.3,6.1c-0.5,4.1-1.4,8.2-1.8,12.3c-0.4,4.4-0.5,8.8-0.6,13.2
			c-0.2,10.8-0.3,21.7-0.3,32.5c0,4,0.9,8,0.8,11.9c-0.2,7.1-1.1,14.1-1.2,21.2c-0.1,2.9,1.5,5.8,1.6,8.8c0.1,9.6-0.4,19.2-0.3,28.7
			c0,3.3,1,6.6,1.8,11.3c2.1-4.6,3.6-7.7,5.3-11.4c0.6,4.5,1.1,8.7,1.6,12.8c0.5,0.1,1,0.2,1.5,0.2c-1,1.2-2.3,3.5-3,3.3
			c-3.9-0.8-4.3,1.7-4.1,4.1c0.1,1.8,1.5,3.6,2.7,6.2c-2.1,1.4-2.2,4,1.1,6.7c-1.7,0.3-2.8,0.6-4.3,0.9c3.3,2.8,4.8,4.7,3.3,9.8
			c-1.6,5.3,1,11.9,1.4,18c0.2,2.4,2.2,5.5-1.9,6.9c-0.4,0.1-0.6,2.4-0.2,2.8c3.8,3.8,2.5,8.3,2.2,12.9c-0.6,9.5-0.5,19.1-1,28.6
			c-0.1,1.7-1.3,3.4-1.8,4.5c0.7,3.1,1.4,6.1,2.1,9.4c-1.2,0.7-2.5,1.6-4.1,2.6c3,4.3,5.3,8.3,3.5,14.4c-1.3,4.6,0.7,10.1,0.8,15.2
			c0.1,5-0.6,10.1-0.4,15.1c0.4,10.4-0.9,20.7-0.9,31c0,5.8-0.8,12,0.1,17.7c1.8,11.7,0.9,23.4,1.8,35.1c0.5,6.9,2.2,13.8,2.2,20.7
			c0,4.5-2.2,8.9-3.4,13.8c3.1,3.1,2.9,6.1-1.6,8c6.6,4,3.9,10.4,4.1,15.8c0.2,5.1-1.2,10.2-1.7,15.4c-0.7,6.9-1.6,13.9-2,20.9
			c-0.2,3.3,0.8,6.7,0.8,10c0,1.9-1.1,3.8-1.9,6.1c0.6,0.5,1.8,1.5,3.1,2.5c-0.5,0.1-1.1,0.1-1.6,0.2c-0.3,3.8-0.4,7.6-0.9,11.3
			c-0.4,2.8-1.4,5.5-1.8,8.3c-0.2,1.3,1,2.9,0.7,4.2c-1.8,6.9-0.1,13.8,0,20.7c0,1.4-1.1,2.9-1.6,3.8c-0.6,9.4-1.1,18.5-1.7,28.4
			c1.3-0.7,1.9-1.1,2.6-1.5c-0.2,2.3-0.5,4.7-0.7,7c-0.5,6.3-1,12.6-1.2,18.9c-0.1,2.8-8.6,16.9-11.2,17.5c-1.4,0.3-3.1-0.3-4.5-0.5
			c0-8-0.3-16,0.1-23.9c0.4-9.3,1.8-18.5,2.2-27.8c0.3-7.6-0.9-15.2-0.3-22.8c0.7-8.7-0.6-17.6,2.7-26c0.5-1.2-0.5-3-0.9-5
			c0.4-0.9,2.2-3.1,1.8-4.6c-1.4-5.1,4.6-11.1-0.9-14.3c0.2-3.2,0.4-5.5,0.6-7.7c0.6-7.2,1.2-14.4,1.7-21.7c0.1-1.5,0.4-3.4-0.3-4.5
			c-2.2-3.5-0.2-4.1,2.2-3.9c-0.8-1.9-2.1-3.7-2.1-5.4c0-5,0.2-10.2,0.9-15.1c1.5-10.2,0.3-20.5,2.7-30.8c1.8-7.7-1.1-16.5-2-24.8
			c-0.1-0.5-1.1-1-1.8-1.5c-0.6,1.2-1.2,2.5-1.7,3.7c-3.4-2.3-2.4-5.9,2.9-8.8c-1.9-1.7,0.6-6.2-4.4-6c-0.1,0-0.6-1.1-0.5-1.4
			c2.6-4.7-1.3-9-0.9-13.7c0.3-4.1-1-8.3,3.8-11.3c0.9-0.5-1.2-6-2.2-9.2c-0.3-0.8-1.7-1.2-2.6-1.8c1-0.9,2.1-1.8,3.1-2.6
			c-3.9-3.4-3.7-5,0.9-8.1c-1-2.3-2-4.4-3-6.5c2-0.7,3.9-1.5,6.1-2.3c-1.4-2.1-2.8-4.2-4.1-6.2c0.5,0,0.9,0,1.4,0
			c0.3-3.5,0.7-7,0.7-10.5c0-0.3-2.3-0.7-4.2-1.2c1.7-1.4,3.1-2.6,5-4.2c-1.5-1.4-3-2.7-4.4-4c2.1-6.3,5.2-12.1,3.2-19.8
			c-1.9-7.3-0.8-15.4-1.5-23.1c-0.5-5.5-1.8-11-2.4-16.5c-0.2-1.8,1.4-3.7,1.3-5.6c-0.6-8.2-1.7-16.3-2.2-24.5
			c-0.3-3.8,0.6-7.8,0.5-11.6c-0.2-7.5-1.4-15.1-0.8-22.6c1-11.4,0.2-22.6-0.2-34c-0.3-7.5,2-15,2.3-22.6c0.2-4.1-1.7-8.3-1.9-12.5
			c-0.3-5.6,0.1-11.3,0.2-17c0.1-3.6,0.2-7.2,0.1-10.8c-0.1-7-0.3-13.9-0.5-20.9c-0.2-9.3-0.5-18.5-0.4-27.8
			c0.1-7.5,0.8-15,0.9-22.5c0.1-2.4-0.8-4.9-1.1-7.3c-0.1-1.1-0.3-2.2,0-3.2c2.4-7.2,2.1-14.3,0.5-21.7c-0.7-3.2,0.7-6.9,0.6-10.3
			c-0.1-4-1.1-7.9-1.2-11.9c-0.2-6-0.1-12.1-0.1-17.8c0,0,0.8,0.5,1.7,1c0-0.7,0.1-1.3-0.1-1.5c-2.4-2.8-3.3-5.6-1.5-9.3
			c0.8-1.6,0.6-4.4-0.3-6c-1.5-2.8-3.8-5-1.6-8.4c-5.3-4.4,1.2-10.6-2.3-15.3c-0.5-0.7-0.1-2.9,0.6-3.5c2.5-2.2,2.1-3.8-0.5-5.4
			c-0.5-0.3-0.9-1.3-0.7-1.8c2.2-7.5-2.2-15.8,2.6-23.1c2.3-3.4,3.7-6.7-2.5-7.3c-0.3,0-0.4-0.9-0.6-1.3c1.2,0,2.4,0,3.6,0
			c-6.9-4.7,1.9-8.9,0-13.1c-0.7-1.5-1.1-3.1-2.2-4.4c1.3-6.6,2-13.3-1.3-20.1c-1-2.2-1.5-5.2-0.8-7.5c1.4-4.7,0.2-9.1,0.1-13.7
			c-0.1-3.2,2.7-6.5,4.5-10.3c-2-0.2-3.2-0.4-3.7-0.4c0-8.3,0-16.5,0-25.4c0.4,0.1-0.6-0.1-1.6-0.3c0-5.7,0-11.4,0-18.3
			c-3.6-2.2,0.9-4.8,2.1-7.5c-0.9-1.3-1.8-2.6-2.9-4.2c2.1-0.3,3.7-0.5,6.5-0.9c-2.1-2.5-3.7-4.5-5.4-6.6c-0.2-1.8,5.5-4.4,0.1-6.4
			c0-3.9,0.1-7.9,0-11.9c-0.2-9.2-0.5-18.4-0.8-27.5c-0.2-5.7-0.7-11.5-0.9-17.2c-0.2-7.5,0-14.9-0.4-22.4c-0.3-7-2.5-14.2-1.3-20.9
			c1.1-6-4-11.6,0-17.4c0.4-0.5-1.2-2.2-1.3-3.4c-0.6-8.2-1.5-16.4-1.5-24.6c0-6.3-1.2-12.3-2-18.5c-1.3-10.5-1.5-21.1-2.4-31.6
			c-0.3-3.4-1.7-6.7-1.7-10.1c0-4.7,0.8-9.5,1.3-14.2c0-0.3,0-0.7-0.1-1c-2.3-8.1-2.3-16.3-2.2-24.6c0.1-5.1-1.6-10.2-2.3-15.3
			c-0.1-1.1,0.6-2.2,0.8-3.3c0.2-1.3,0.6-2.7,0.4-3.9c-0.6-3-2-5.8-2.2-8.8c-0.7-7.6-1.1-15.3-1.3-23c0-1.9,1.1-3.8,1.9-6.1
			c-4.7-4.7-5.5-12.6-1.4-13.8c-1.1-6.4-8.8-10.4-6.2-18.2c-5.3-5-1.1-13.4-6.8-18.3c-0.6-0.5-0.6-1.6-0.8-2.3c1.5-1,2.9-2,4.3-2.9
			c-0.1-0.5-0.2-0.9-0.3-1.4c-1.7-0.1-3.4-0.2-5.4-0.3c2.2-6.4,0.7-11.6-4.1-16.6c-2.5-2.6-2.8-7.2-4.2-11.2
			c1.3-0.2,2.2-0.3,3.5-0.5c-2.4-3.2-4.5-6.1-7.2-9.7c0.3-0.7,0.9-2.3,1.5-4c-4.6-2.1-13-25.6-11.3-31.4c-4.7,0-8.3-5-6.9-10
			c1-3.6,1-6.5-2-9.1c-1-0.8-1.6-2.3-1.9-3.6c-1.2-5.5-3.3-10.3-7-14.6c-1.6-1.9-1.3-5.5-1.9-8.7c-6-5.6-13.1-10.8-15.4-20.3
			c-1.2-4.9-4.6-9.2-6.9-13.9c-0.7-1.5-2.8-3.2-0.2-5.1c0.2-0.2-0.5-2.3-0.7-2.3c-3.9,0.3-3-2.2-3.6-4.7c-1.4-5.9-6.1-9.5-11.2-12.5
			c-1.9-1.1-3.6-2.8-5.5-4.3c1.6-1.2,3.1-2,3-2.2c-1.6-4.6-2.1-9.6-6.5-12.8c-1.2-0.9-1.3-3-2.2-4.5c-1.9-3.3-3.9-6.5-5.8-9.8
			c-0.3,0.4-0.5,0.8-0.8,1.2c-3.1-2-7-3.4-9.2-6.1c-4.2-5-9.5-8.6-13.8-13.1c-3.1-3.3-8.9-3.6-10-9.5c-0.2-1.2-5.7-2.4-6.9-5.9
			c-0.2-0.6-0.3-1.3-0.3-1.5c-8,0.6-9.2-8.5-15.1-9.8c-0.1-2.2,5.7-3.1-1-5.2c2.6-0.3,3.7-0.4,4.8-0.5c-5.9,0.3-3.9-2.6-2.1-5.1
			c-3.5-1.5-7.3-2.4-10.1-4.5c-5.7-4.3-10.9-9.3-16.4-13.9c-3.7-3-7.6-5.7-11.3-8.7c-9.5-7.4-18.8-15.1-28.5-22.2
			c-3.2-2.3-7.7-2.8-11.3-4.7c-4-2.1-7.6-5.3-11.5-7.5c-6.7-3.7-13.5-7.2-20.4-10.5c-1.2-0.6-3.1,0-4,0.1c-2.1-2-4.3-4.1-6.4-6.1
			c-0.4,0.4-0.7,0.7-1.1,1.1c0.5,0.6,0.9,1.3,1.8,2.5c-1.4,0-2.7,0.4-3.4-0.1c-3-2.1-5.8-4.3-9.2-6c-5.5-2.8-10.7-4.8-16.9-5.6
			c-3-0.4-5.8-3.3-8.9-5.3c-3.8,2-10.1,0.1-11.8-4.3c-1.8,0.7-3.5,1.3-5.3,2c-0.5-4.8-1.6-5.1-8.3-2.4c-0.6-1.3-1.3-2.6-1.9-4
			c-0.5,0.2-0.9,0.3-1.4,0.5c0.2,1.2,0.4,2.4,1,5.3c-2.5-2.5-3.8-4.5-5.5-5.3c-1.4-0.7-3.4-0.1-5.7-0.1c-0.3-1-0.8-2.9-1.2-4.6
			c-2.6,0.4-4.8,0.8-7.1,1.2c0.6,0.7,1.5,1.8,2.4,2.8c-4.6-4.2-15.2-0.4-14.9-11.8c-1.3,2.2-2.1,3.7-3.6,6.1c-2.3-1.7-4.6-3.3-6.8-5
			c0.7-0.8,1.3-1.6,2.1-2.5c-1-0.7-2.1-1.5-3.2-2.4c-2.2,5.8-10.1,8.7-16.2,6.3c-5-2-10.2-1.8-15,0.7c0-0.5,0-1,0.1-1.5
			c-5.6,0-11.3-0.1-16.9,0.1c-2.9,0.1-6,2.5-8-1.7c-0.2-0.4-1.7-0.6-2.3-0.3c-4.4,2.1-8.6,3-12.2-2.5c-0.2,0.7-0.4,1.4-0.6,2.1
			c2.6,1.7,4.9,3.9,7.7,5c6.8,2.5,12.4,7.6,19.8,9c3.3,0.6,6.7,1.9,8.8,5.6c2.3,4,6.4,4.7,9.2,4.1c9.3,4.1,17.6,7.7,25,11
			c1.7,3.8,3.1,6.9,4.5,10c0.4-0.6,0.7-1.1,1.1-1.7c2.5,0.8,5.1,1.4,7.5,2.5c1,0.4,1.5,1.9,2.4,2.7c7.9,7.1,17.1,12.5,25.2,19.2
			c2.4,2,4.3,5.1,5.6,8.1c1.3,3.1,0.8,3.2,3.6,1.4c0.5-0.4,1.8-0.4,2.2-0.1c3,2.6,7.2,4.9,8.5,8.2c1,2.7,2,2.7,3.9,3.1
			c4.1,0.8,6.8,2.7,8.8,6.9c1.3,2.8,5.5,4.2,8.5,6.3c1-1,2.1-2,3.3-3.1c1.7,1.8,3.2,3.4,4.7,5c-1,2.2-2,4.4-3.2,6.8
			c1.6,1.2,3.2,2.3,5,3.6c0.3-1.6,0.6-3.1,1.1-5.1c7.4,1.8,4.5,9.8,8.2,12.7c1.5-0.7,3-1.3,2.9-1.3c2.4,4,4.6,7.1,6.2,10.4
			c1.8,3.7,3,7.7,4.6,11.5c0.5,1.2,1.3,2.3,2.2,3.2c0.4,0.4,1.4,0.2,2.1,0.3c-0.7,4.9,5.3,3.9,6.6,7.7c0.9,2.8,5.1,2.9,6.9,6.7
			c3.4,7.1,9.2,13,14,19.5c2.1,2.8,3.8,5.8,6.1,8.4c2,2.3,5.1,3.7,6.6,6.1c1.6,2.7,1.7,6.1,2.7,9.8c1.2-1.7,2-2.9,3.3-4.7
			c1.2,3.9,2.2,7,3.4,10.6c1.1-0.6,2.1-1.1,4.1-2.2c1,3.6,1.8,6.7,2.7,9.9c-0.5,0.1-1,0.3-1.5,0.4c1.1,0.8,2.3,1.6,3.6,2.6
			c0.3-0.9,0.6-1.7,0.4-1.2c2.2,2.2,5.7,4.3,6.7,7.2c1.4,4.3,1,9.1,1.5,16c1.6,2.7,4.7,7.7,7.6,12.7c1.5,2.6,2.9,5.2,3.9,8
			c0.6,1.8,0.4,3.8,0.7,6.9c4.6,4,7.1,10.1,4.7,15.2c1.8-1.5,2.9-2.5,4.1-3.5c1.6,9.7,1.7,19.4,11.6,26.4c-2.7,0.2-3.8,0.2-5,0.3
			c2.4,6.1,4.6,11.9,6.8,17.6c0.5-0.2,1-0.4,1.5-0.6c-1.1,4.4-0.6,8.2,1.9,12.2c2,3.3,2,7.8,3.8,11.3c1.7,3.2,0.5,7.3,4.8,10.1
			c2.3,1.5,1.5,7.7,2.2,11.7c0.3,1.4,0.6,3,1.4,4.2c1.9,3,5.6,5.5,1.2,9.4c1.7,2.6,7,3.9,2.8,8.5c1.6,0.7,2.9,1.2,4.2,1.8
			c-0.5,0.2-1.1,0.4-1.6,0.6c1.2,4.1,2.5,8.2,3.5,12.3c0.8,3,1.2,6.2,1.7,9.3c1.4,7.7,3,15.4,4.1,23.1c1.3,8.7,2.1,17.5,3.1,26.2
			c0,0.3-0.1,0.8,0,1c4.8,4.7,0.7,9-0.7,13.8c2.1-0.1,3.9-0.3,5.7-0.4c0.1,0.4,0.2,0.7,0.2,1.1c-1.2,0.5-2.3,0.9-3.4,1.3
			c2,5,4.5,9.9,6.1,15c3.3,11.4,2.9,23.1,3.3,34.8c0.2,7.5,1.9,15,3.6,22.3c0.7,3.1-2.5,5.4-0.1,9.1c1.9,3,0.4,8.1,0.8,12.3
			c0.2,2.6,1.6,5.1,1.8,7.8c0.4,4.3,0.4,8.7,0.5,13.1c0.3,10.9,0.9,21.8,0.8,32.8c-0.1,8.9,1.6,17.6,0.9,26.7
			c-0.7,9.5,2.1,19.3,1.6,28.9c-0.3,4.7,2.8,9.8-0.9,14.4c-0.6,0.7,0.3,2.6,0.8,5.4c0.8-2.2,1.1-2.9,1.4-3.7
			c0.2,0.2,0.5,0.5,0.4,0.6c-2,11.6-1.5,23.1,0.8,34.7c0.2,0.8-0.4,2-0.9,2.8c-1.6,2.4-2.3,4.2-0.1,7.1c1.2,1.6,0.2,5,0,7.6
			c-0.5,8.5-1.7,16.9-1.5,25.4c0.1,5.6,3.2,11.2-0.6,16.6c3.7,12.3,1.1,25.1,2.9,37.5c0.7,4.7,1.3,9.3,1.7,14
			c0.1,0.9-1.1,1.9-1.9,3.2c1.2,1,2.6,2.1,3.8,3c0,6.5,0,12.9,0,19.4c0,7.6,0,15.1,0.3,22.7c0.1,3.3,1.5,6.5,1.8,9.8
			c0.2,2.1-0.5,4.3-2.1,6.5c0.3,3.3,0.7,6.5,1.2,11.1c-2.2,2.2-1.1,6.2-0.1,10.5c0.7,2.9-0.3,6.1-0.5,9.2c-0.3,4.3-0.5,8.6-0.7,13
			c0,0.7,0.4,1.4,0.3,2.1c-1.5,11.3-0.8,22.6-1.1,33.9c-0.2,7.7-1.3,15.4-1.7,23.1c-0.2,3.5,0.5,7,0.6,10.5c0,2.4-0.6,4.9-0.7,7.3
			c-0.1,1.9,0.4,3.8,0.5,5.8c0.1,2.9,0.3,5.8,0.2,8.7c-0.3,7.6-0.8,15.1-1.3,22.7c-0.4,5.3-1.3,10.5-1.4,15.8
			c-0.1,4.9,0.6,9.8,0.8,14.7c0.4,9,2.1,18.2,0.5,26.8c-1.9,10.3-1.2,20.1,0.5,30.1c0.1,0.8,0.6,2.1,0.3,2.4
			c-4.1,3.8-1.2,7.9-0.6,11.8c0.1,0.7,0.5,1.5,0.3,2.1c-1.7,6.6-0.3,12.9,0.7,19.4c0.7,5.1-0.7,10.4-0.7,15.6c0.1,7,0.7,14,1,21
			c0.2,4.3-0.1,8.7,0,13c0.2,5.9,0.9,11.8,0.8,17.7c0,6.4-0.9,12.7-1,19.1c-0.1,4.6,0.9,9.3,0.7,13.9c-0.3,6.1,1.6,12.6,0.9,18
			c-1.5,10.5,1,20.8-0.6,31.2c-1.3,8.3,0.6,17.1,0.8,25.7c0.3,10.2,0.5,20.3,0.5,30.5c0,3.7-1.2,7.4-1.4,11.1
			c-0.1,3.8,0.7,7.5,0.6,11.3c-0.2,8-1,16-0.9,23.9c0.1,7.5,1.4,15,1.6,22.6c0.2,6.8-0.6,13.7-0.8,20.5c-0.2,4.4-0.3,8.7-0.2,13.1
			c0.2,8.3,1.4,16.7,0.9,25c-0.6,9,0,17.9,0.1,26.8c0.2,15.8,0.1,31.5-0.1,47.3c0,4-0.7,8-1.1,11.9c-0.1,0.7-0.6,1.6-0.3,2.1
			c3.4,5.9,0.4,12.1,0.8,18.2c0.4,6.3,1.6,12.7,0.6,18.7c-1.2,7.4,2.8,15.1-2,22c3.5,3.7,0.1,7.8,0.7,11.6c0.1,0.5,0.3,1.1,0.1,1.6
			c-3.9,10.4,1.7,21.1-1.3,31.9c-2,7.1,0.3,15.4,0.3,23.2c0,5.6-0.7,11.1-0.9,16.7c-0.2,3.6,0,7.2-0.1,10.8
			c-0.1,3.5,0.4,6.7-0.8,10.5c-1.5,4.8,0.8,10.7,1.5,16.3c-3.8,1.9-7.8,3.8-11.4,5.6c-0.8-1.7-1.7-2.9-2-4.2c-0.3-1.5,0-3.1,0.1-4.7
			c0.1-0.8,1-1.9,0.7-2.3c-4.6-6.4,1.2-13.8-2.1-20.3c-0.2-0.3,1-1.3,1.4-2c0.4-0.7,1.1-1.9,0.8-2.3c-3.6-5.1-0.8-10.7-1.5-16
			c-0.2-1.5,0-3.1,0.6-4.8c-3.2-5.9-1.5-11.8,0.7-17.4c-0.6-0.2-2-0.8-2-0.8c3.2-9.6,0.1-19.1-0.2-29.3c1.1,1.3,1.9,2.2,2.7,3.1
			c0.6-2.4,3.1-5.3-1.8-6.1c-0.3-0.1-0.5-3.3-0.1-5c0.2-0.8,1.8-1.2,2.3-2.6c-1.7,0.7-3.4,1.3-4,1.6c1-4.2,1.9-8.3,3-12.7
			c1.2,0.7,2.9,1.6,4.6,2.6c-4-5.9-5.1-12-2.3-19c-0.6,0-1.2,0.1-1.8,0.1c-0.6,0.7-1.1,1.7-1.9,2c-0.6,0.2-1.5-0.3-2.3-0.6
			c0.2-0.7,0.2-1.8,0.6-1.9c5.1-1.7,5.5-5.5,4.9-10.1c-0.2-1.5,1-3.2,0.8-4.7c-0.4-2.5-1.2-4.9-2.3-7.2c-1.4-3.1-2-5.8,0.3-8.9
			c1-1.3,1.3-3.4,1.3-5.2c0-7.6-0.4-15.2-0.2-22.7c0.2-7.3,0.4-14.7,1.4-21.9c1.2-8.3-1.8-16.3-1-24.5c0.6-5.8,1.3-11.6,1.5-17.4
			c0.1-2.9-0.8-5.9-0.9-8.7c0-3.3,0-6.7,0-10c0-4.7,0.4-9.5,0-14.1c-0.7-7.4,2.2-14.8-0.6-22.3c-0.8-2.2,0.8-5.2,0.8-7.9
			c0-3.9-0.6-7.9-0.8-11.8c0-0.9,0.6-1.9,1-3.2c-1.6-2.8-3.9-6-5.5-9.6c-2.8-6.2-2-13-2.2-19.5c-0.2-6.4,0.4-12.8,0.5-19.2
			c0-1.1-1.4-2.1-1.4-2.2c0.3-3.3,0.5-5.7,0.8-8.2c0.2-2.1,0.6-4.2,0.7-6.4c0-1.1-0.4-2.3-1-3.2c-3.3-4.6-3.2-8.5,4.3-11.2
			c-3.3-0.9-4.7-1.3-6.5-1.9c3.4-8.7,0.2-17.1-0.1-25.7c-0.4-10.6,0.6-21.2,1-31.9c0-0.5-0.1-1.2,0.1-1.5c5.4-4.8-0.6-3.6-2.4-5.7
			c-0.6-4.2,4.5-8.7,1.7-14.5c-0.5-1.1,1.7-3.6,2.9-5.9c-1.3,0.3-2.3,0.4-3.5,0.7c0-2.8-0.1-5.5,0-8.2c0.2-8.3,0.5-16.7,0.9-25
			c0.2-3.3,1.9-7.2,0.8-9.8c-2.3-5.1-0.4-7.8,4.3-10.4c-1.6-0.7-2.5-1-3.2-1.5c-1.2-0.8-3.2-1.7-3.2-2.6c-0.1-3.6,0.4-7.2,0.8-10.8
			c0.4-3.9,1-7.8,1.5-11.6c0.3-2.4,0.7-4.9,1.2-7.6c-0.4,0-1.7-0.2-2.9-0.3c0.7-7.4,1.5-15.2,2.3-23.4c0.6,0.1,1.8,0.4,3.3,0.7
			c0-1.6,0-2.9,0-4.6c-1-0.4-2.3-1-3.7-1.5c0.6-1.2,1.1-2.3,1.6-3.2c0-2.4,0-4.6,0-6.9c0-1.4,0.9-3.4,0.2-4
			c-6.4-6.6-0.8-13.5-0.5-20.2c0.1-4,2.1-8-0.6-11.9c-0.1-0.1-0.1-0.4,0-0.5c4.4-8.3-0.9-16.6-0.1-25c0.9-9.6,0.5-19.2,0.7-28.9
			c0.1-10.3,0.4-20.6,0.3-30.8c-0.1-6-1.3-11.9-1.5-17.9c-0.1-2.4,1.4-4.8,1.4-7.2c-0.1-8.6-0.8-17.3-0.6-25.9
			c0.1-6.4,1.1-12.8,1.6-19.3c0.2-2.4,0.7-5-0.1-7c-1-2.8,4.2-5.3-0.1-7.8c1.4-7.2-2.4-15.4,2.8-20.4c-0.6-5-2.2-9.1-1.3-12.6
			c1.8-7,2.2-13.7-0.4-20.5c-0.3-0.8,0.2-2.3,0.8-3c3-3,2.5-6-0.4-9.9c1.8,0.5,2.8,0.7,2.7,0.7c-0.4-3.8-2.5-8.6-1-11.2
			c4-6.6-1.2-12.6,0.2-19.1c1.1-5.5-2.8-11.7-3.5-17.8c-0.7-6.5-0.2-13.1-0.4-19.6c-0.1-2.1-1-4.1-1.1-6.2c0-2.5,0.8-4.9,0.8-7.4
			c-0.1-6.6-0.3-13.2-0.8-19.8c-0.2-2.5-1.1-5-1.7-7.4c-0.2-0.6-0.8-1.6-0.6-1.8c5.5-6.3-0.7-12.8,0.4-19.3c0.9-5.3-1.7-11.5,0-16.4
			c1.8-5.1-1.2-9.7,0.7-14.4c0.4-1-0.5-2.6-1-3.8c-0.4-1.1-1.6-2-1.6-3.1c-0.3-6.1-0.4-12.2-0.4-18.3c0-1.5,1-2.9,1.2-3.6
			c-0.7-2.3-1.7-4.2-1.7-6.2c-0.2-5.5-1.9-10.7,0.1-16.5c1.2-3.3-1.1-7.8-1.4-11.7c-0.5-5.6-0.8-11.2-0.9-16.8
			c-0.1-5.3,0.2-10.7,0-16c-0.2-5.5-0.6-11.1-1-16.6c-0.3-4.6-0.7-9.2-0.9-13.9c-0.1-1.9-0.2-3.7-0.4-5.6c0-0.3-0.1-0.7,0-1
			c3.5-9.8-3.2-19.5-0.4-29.3c0.7-2.4,1-5,1.5-7.9c-0.8-0.4-2-1-3-1.5c0.4-2.9,0.7-5.5,1.1-8.2c0.1-0.8,0.3-1.7,0.2-2.5
			c-0.8-6.4-0.5-13.3-2.9-19c-2.1-5.1,0.9-11.4-4.2-15.5c-0.5-0.4-0.9-1.9-0.6-2.3c2.2-3.3,1.6-5.7-1.7-7.9
			c-0.6-0.4-0.3-2.2-0.3-3.4c0-5.1,0-10.1,0-15.2c-1.1,0.8-2.2,1.6-3.4,2.5c-0.5-0.3-0.9-0.5-1.4-0.8c0.9-2.1,1.8-4.2,2.7-6.5
			c-0.7,0.2-1.6,0.5-2.2,0.6c-1.2-6.8-2.5-13.6-3.8-20.4c0.5-2.2,4.7-4.9-2-6.5c-1.7-0.4-2.9-12-1.6-13.4c0.3-0.4,1.4-0.1,2.3-0.1
			c-1.4-2.6-4-5.3-3.6-7.5c0.5-2.7-7.2-4.4-2.3-6.1c0-5-0.2-9,0.1-12.9c0.2-3.3-1.2-3.5-3.2-2.7c-1.2-8.1-2.4-16.2-3.6-24.5
			c-1.2-0.1-2.4-0.2-3.4-0.3c0-3.8,0-7.5,0-11.5c-1.1-2.5-2.3-5.4-4-9.1c1.7-2.4,2.9-5.5-3.2-5.5c1.5-2.9,5.4-6-1.1-7.3
			c-0.2,0,0.4-4.7,0.5-4.7c5.1,0.2,2.9-4.4,4.2-7.3c-1.7,0.5-3.3,0.9-4.9,1.4c-1.7-0.8,1.7-5.7-3.2-3.9c0-1.2-0.2-2.4,0.1-3.5
			c1-3.6,2.1-7.1,3.4-11.3c-3.2,0.4-5.4,0.6-7.7,0.9c0-1.8,0-3.6,0-5.2c1.3,0.4,2.8,0.8,4.4,1.3c-2-3.1-4.3-5.6-5.4-8.5
			c-0.8-2.2-0.2-5-0.2-7.5c0-4.8-2.6-6.5-7.2-6.1c-0.9-5-1.9-9.8-2.6-14.6c-0.2-1.4,0.6-2.9,0.3-4.2c-0.3-1.2-1.4-2.2-3-4.4
			c-1.1-3.4-2.6-8-4.2-12.9c0.4-0.1,1.4-0.5,1.6-0.6c-3.6-7.4-7.2-14.7-11.1-22.7c-2.2,0.1-4.5-0.6-5.2-5.3c-0.5-3.3-4-6.1-5.9-9.2
			c-0.6-1-1.1-2.4-0.9-3.5c0.8-5.4-3-8.2-6.1-11.4c-0.5-0.5-1.7-0.9-1.6-1.2c0.6-6.7-5.3-6.9-9.1-8.1c-3-1-3.2-2.9-2.6-4.4
			c1.1-2.9,0.4-3.6-2.3-4.2c-2.6-0.6-3.5-2.8-5-5.1c-4.6-7.1-7.1-16.3-16-20.1c-1.3-0.5-2.1-2.3-2.9-3.5c-1.7-2.4-3.2-4.9-4.8-7.2
			c-2.5-3.6-4.5-8-7.8-10.6c-3.4-2.6-3.3-7.8-8.2-9.3c-2.8-0.9-4.8-4.4-7.3-6.7c-4.4-4.1-9.1-8-13.1-12.5c-3.3-3.6-5.8-8-8.7-12
			c-0.2,0.3-0.8,1.4-2,3.3c-2.5-5.1-4.8-9.7-7.2-14.6c-0.6,1-1.3,2-1.9,3.1c-0.3-0.1-0.8,0-1-0.2c-4.8-5.2-9.5-10.5-14.3-15.8
			c-0.5-0.6-1.2-1.5-1.9-1.5c-6,0-6.8-0.8-6.2-6.1c-2.2-1.3-6.8-0.6-4.4-5.5c-1.7-0.8-3.2-1.9-5-2.3c-4.2-0.9-7.2-2.7-6.9-7.9
			c-1.1,0.9-2,1.6-3.9,3.1c0.4-2.5,0.6-3.9,0.5-3.7c-4.1-1.9-7.5-3.6-11-5.1c-1-0.5-2.5-0.1-3.4-0.7c-1.5-1.1-2.6-2.7-4-4
			c-0.9-0.8-2.1-1.7-3.2-1.8c-3.1-0.3-4.9-1.5-6.5-4.4c-0.9-1.7-3.8-2.7-6-3.1c-5.8-1.2-10.9-4-16.2-6.5c-0.5-0.2-1.1-1-1.2-0.9
			c-4.8,3.6-7.1-1.4-10.4-3c-2.9-1.4-6.1-2-9-3.4c-2-0.9-3.7-2.4-6.3-4.2c-3.3,1.4-5.1-1.1-6.1-4.6c-1.1,0.9-2.5,3-3.6,2.8
			c-1.4-0.2-2.8-2-3.6-3.4c-2.7-4.9-2.6-5-9.7-4.8c-0.5-1.8-1.1-3.7-1.7-5.7c-1.6,1-2.6,2.2-3.8,2.4c-3.5,0.4-3.4,0.2-1.9,3.4
			c1,2.2,1.4,4.8,2.5,6.9c0.9,1.7,2.6,2.9,4.6,5.1c0,0.3-0.3,1.9-0.5,3.4c4.7,3.1,4.8,3.7,1.8,6.9c2.9,3.5,5.8,7,8.6,10.6
			c0.3,0.4,0.7,1.4,0.4,1.7c-3,4.5,2,2.5,3,3.9c-0.1,1-0.7,2.3-0.3,3.2c3,6.6,6.3,13.1,9.4,19.6c1,2.2,2,4.5,2.5,6.9
			c0.8,4,0.8,8.3,4.8,10.8c0.2,0.1,0.2,1.2-0.1,1.5c-3.6,4.2-0.1,5.4,3.4,6.9c-1.2,7.8,1,15,6.6,21.3c-1.1,0.1-1.9,0.2-2.7,0.3
			c2.5,4.8,7.7,8.7,4.4,15.1c0.4,0.4,0.8,0.8,1.2,1.3c0.6-1.4,1.1-2.7,2-4.8c2,7.9,4.1,14.8,5.4,21.8c0.4,2-1.6,4.5-2.4,6.6
			c4.2,0.1,5.8,2.6,4.9,7c-0.1,0.5-0.2,1.3,0.1,1.6c5,5,3.4,12.2,6,18.2c2.4,5.3,2.5,11.6,3.6,17.5c1.3,7.3,2.1,14.6,3.6,21.8
			c0.9,4.3,2.9,8.5,4.2,12.7c0.6,1.9,0.6,4,1,5.9c0.5,2.2,1.1,4.3,1.8,7.1c0.1-0.1-0.7,0.5-0.6,0.5c0.5,4,0.9,7.4,1.5,10.8
			c1.2,6.9,2.6,13.8,4,20.8c0.1,0.3,0.4,0.7,0.4,1c-1,9.3,2.6,17.9,3.4,26.9c0.6,6.7,1.3,13.2,3.2,19.8c1.2,4-0.4,8.9-0.7,13.7
			c1.5,1.6,5.5,2.9,2.1,6.9c-0.5,0.6,0.3,2.3,0.6,3.5c0.4,1.4,1.6,2.9,1.4,4.2c-0.9,6.3,1.2,12.4,0.6,18.8
			c-0.7,7.1,1.2,14.5,1.3,21.8c0.1,3.8-1,7.7-1.7,11.9c1-0.2,1.8-0.3,2.9-0.5c0.2,1.2,1.1,3,0.5,4c-3,4.7-0.5,9.3-0.3,13.9
			c0.3,9.9,0,19.8,0.4,29.7c0.3,6.1,1.8,12.1,2.1,18.2c0.3,6.7-0.1,13.5-0.3,20.2c-0.2,7.1,0.9,14-0.3,21.2
			c-1.3,8.3,0.9,17.1,1,25.7c0.1,4.1-1.5,8.1-1.5,12.2c0,5.2,1.1,10.5,1.4,15.7c0.1,3-0.7,6-0.8,9.1c-0.1,3.9,0.1,7.8,0.3,11.7
			c0.2,6.2,0.4,12.3,0.8,18.5c0.1,2.1,0,5,1.2,6.1c4.2,3.7,2.1,5.1-2.2,6.5c1.7,1.2,3.1,2.1,3.7,2.5c-1.2,6.4-2.2,11.6-3.3,17.1
			c1.2-0.5,2.1-0.9,3.4-1.5c-0.5,1.5-0.9,2.6-1.2,3.7c-0.7,2.2-4,4.4,0.1,6.5c0.1,0.1-0.3,1-0.4,1.6c-0.9,3.4-3.1,6.9,0.7,10.2
			c0.5,0.4-0.4,2.3-0.5,3.5c-0.2,8-0.4,16-0.5,24c0,0.6,1.3,1.3,2.3,2.3c-4.9,3.9,1.1,7.5,1,11.6c-0.1,4.7-0.2,9.5,0,14.2
			c-0.3,4.3-0.7,8.6-0.8,12.9c-0.1,4.6,0,9.3,0.1,13.9c0.1,2.6,0.4,5.2,0.4,7.7c0,7.5-0.2,15-0.2,22.5c0,3.5,0.2,7,0.3,10.4
			c0.1,2.9,0.3,5.7,0.1,8.6c-0.4,6.6-1.4,13.3-1.3,19.9c0.1,10,1,20,1.4,30c0.1,2.4-1,4.8-1.1,7.2c-0.3,6-0.3,12.1-0.4,18.1
			c-0.1,7.4-0.1,14.8-0.2,22.2c-0.1,11.9-0.2,23.8-0.5,35.7c-0.1,2.6-1.6,5.1-1.8,7.6c-0.2,2.9,0.2,6,0.5,8.9
			c0.1,0.9,0.8,1.8,0.7,2.7c-0.4,4.1-2.7,8,0.7,12.1c0.7,0.9-1.2,3.6-1.1,5.4c0.2,4.9,1,9.8,1.2,14.7c0.2,4.9,0,9.9,0,14.9
			c0,0.2-0.3,0.4-0.2,0.4c5.8,6.4-0.4,11.2-2.5,16.3c-1.7,4.1-1.3,6.8,0.8,8.1c0.8,3.9,1.4,6.4,1.9,8.9c0.1,0.8,0,1.6,0,2.4
			c0,3.4,0,6.8-0.5,10.4c0.2,3,0.5,6,0.8,10.2c-0.2,0.1-1.5,1-2.4,1.5c1.4,3.7,2.5,6.7,4.1,10.9c-2.4-1.1-3.4-1.5-5-2.2
			c-0.2,3.9-0.3,7.4-0.5,11.4c3.9,0.5,3.8,3.5,4.3,7.5c1.3,8.9-0.2,17.5-0.6,26.2c-0.2,4.6-0.6,9.2-0.6,13.8c0,1.4,0.8,2.8,1.7,5.4
			c-1,7.7-2.6,16.9-3.2,26.2c-0.4,5.9,0.5,11.8,0.8,17.7c0,0.9,0.2,1.9-0.1,2.6c-2.8,7.1-0.7,14.2-0.4,21.3
			c0.1,4.2-1.8,8.4-1.9,12.6c-0.1,5.5,0.9,11.1,1,16.6c0.1,3.8-0.8,7.5-0.8,11.3c0,4.4,1,8.9,0.7,13.2c-0.3,2.8-2.3,5.5-3.4,8.3
			c-0.5,1.2-0.9,2.9-0.5,4c3,6.7,2.7,13.4,1.3,20.5c-0.6,2.7,0.6,5.8,0.8,8.7c0.3,4,0.9,8.1,0.8,12.1c-0.5,13.1-1.4,26.2-1.8,39.3
			c-0.2,5.8,0.7,11.6,1,17.4c0,0.7-1.3,1.5-0.5,2.2c0.2,2.6,0.4,5.3,0.7,7.9c0.8,6.5-4.1,12.8-0.9,19.5c0.4,0.9-0.9,2.6-1.4,3.9
			c0.8,0.6,2.4,1.2,2.3,1.7c-0.4,5-1.1,10-1.6,15.1c-0.2,1.7,0.1,3.4,0.1,5.1c-0.2,5,1,9.8,0,15c-1.1,5.4,1.4,11.4,0,17.3
			c-1.7,7,1.4,13.9,0.6,20.8c-0.6,4.9-2.6,9.5,0,14.3c-4.6,4.5-0.7,9.4-0.6,14.1c0,0.2-0.1,0.3-0.1,0.5c-0.7,5.6-1.3,11.1-2,16.7
			c-0.1,0.8-0.8,1.9-0.5,2.5c4.1,8.6-0.1,17.6,1.4,26.2c0.6,3.3,1.3,6.6,1.2,9.9c-0.1,2.7-1.9,5.4-2,8.2c-0.5,9.6-0.7,19.2-0.7,28.8
			c0,5.7,3.7,11.4,0.1,17.2c3.8,3.4-0.3,7.4,0.5,10.4c1.8,6.9,0.9,13.7,0.8,20.5c-0.2,13.8-0.4,27.6-0.7,41.5
			c-0.2,9.1-0.9,18.3-0.9,27.4c0,9.2,1.4,18.4,0.5,27.5c-1,9.6,0.1,18.9,0.2,28.4c0.1,10.4-0.8,20.9-1.2,31.3
			c-0.1,1.9,0.7,3.7,1.1,5.6c0.4,1.5,1.3,3,1.2,4.4c-0.6,8.7-0.7,17.3,1.2,26c0.6,3-0.9,6.4-1.6,10.8c0.1,1.2,0.3,3.9,0.6,6.6
			c1,9.2,1,9.2-8.3,9.2c-1.8,0-3.6,0-6.6,0c0-8.8,0.1-17.5,0-26.1c0-2.8-0.8-5.6-0.9-8.4c-0.3-7.4-0.8-14.8-0.7-22.1
			c0.1-4.7,1.1-9.4,1.4-14.1c0.2-2.4-0.4-4.9-0.5-7.3c-0.2-5.2-1.4-10.7-0.1-15.5c1.3-5.2-1.3-9.5-1-14.3c0.2-2.5,0.9-5,1.2-6.7
			c-0.6-2.1-1.8-4.1-1.3-5.5c1.4-4.7,2.8-9.2,1.4-14.4c-0.7-2.4,1-5.5,0.7-8.1c-1.5-11.3-0.9-22.6-0.8-33.9c0-8.6-1.1-17.1-1.2-25.7
			c-0.1-8.6,0.6-17.3,0.5-25.9c-0.1-7.9-0.8-15.8-1.3-23.7c0-0.7-0.5-1.5-0.2-2c2.6-4.2,2.1-8.6,2-13.3c-0.2-7.7,1.2-15.4,1.7-23.1
			c0.1-2-0.6-4.1-0.6-6.2c0-3.4,0.2-6.8,1.1-10.2c-1.5-3.1-2.6-5.4,0.5-9.4c1.9-2.5-0.6-8-0.8-12.2c-0.2-4.3,0-8.6,0-13.1
			c0.1,0-1.8-0.2-1.8-0.5c-0.1-4.4,0-8.7,0-13.1c0-0.7-0.7-1.3-0.8-2c-0.2-1.4-0.2-2.9-0.2-4.4c0-3.7,0.2-7.4,0.2-11.1
			c0-7.9-0.1-15.9-0.2-23.8c-0.1-5.8-0.3-11.5-0.3-17.3c-0.1-9.5-0.3-19.1,0-28.6c0.4-12.2,1-24.4,1.8-36.5
			c0.3-4.7,1.9-9.3,2.2-14.1c0.4-4.7-0.2-9.4,0-14.1c0.1-2,0.9-4.2,1.8-6.1c0.7-1.6,3.7-3.2-0.7-3.7c-0.2,0-0.4-0.8-0.4-1.2
			c0.7-4.2,1.7-8.3,2-12.5c0.2-3-0.7-6-1.1-9c-0.7-4.6-2.2-9.2-2.1-13.7c0.1-4,0.6-7.7-1-11.7c-3.1-7.6-0.1-15.8-0.8-23.6
			c-1-11.2,2.4-22.5-1-33.7c-0.9-3,0.5-6.7,0.6-10c0.3-9.8,0.6-19.7,0.7-29.5c0-3-0.7-6-0.5-8.9c0.2-5.3,0.7-10.6-1.1-15.8
			c-0.3-0.9,1.4-2.6,2.3-3.8c0.9-1.3,2.1-2.4,2.3-4.4c-1.3,0.4-2.7,0.9-4.4,1.4c-0.2-1.2-0.7-2.3-0.6-3.2c0.7-5.8,1.6-11.6,2.4-17.4
			c0.1-1,0.7-2.4,0.2-3c-2.5-3.7-2-7.2-0.6-11.3c0.7-2.2,2.7-5.2-0.6-7.8c-0.7-0.6-0.1-3.1,0-4.7c0.5-7.5,0.9-15,1.4-22.4
			c0.3-4.9,0.8-9.8,1.3-14.6c0.2-2.4-2.8-5.8,3-6.1c-2-2.6-6.3-4-1.8-6.8c-3.8-5,0.4-9,1.5-13.5c0.2-0.8-1.6-2.2-2.7-3.6
			c0.9-0.4,1.9-0.9,2.2-1.1c0.4-5.1,0.8-9.8,1.2-14.8c-0.8,0.1-2,0.2-3.2,0.3c-0.1-0.2-0.1-0.5-0.2-0.7c1.6-0.7,3.3-1.3,4.8-2.1
			c0.9-0.5,2.3-1.5,2.2-1.9c-0.7-3.1-2.3-6-2.6-9.1c-0.3-2.8,0.5-5.8,0.9-9.5c-2.2-1-0.9-3.2-0.6-6.4c0.7-9.1-0.1-18.3-0.5-27.4
			c-0.5-11.4-1.2-22.9-1.6-34.3c-0.2-7,0.8-14.1-0.1-21c-1.3-10.4,0.3-20.7-0.7-31.1c-0.8-8.5-1.2-17.1-1.4-25.7
			c-0.1-2.9,1-5.8,1.5-8.7c0.2-1.1,0-2.3,0-3.4c-0.2-11.5-0.7-23-0.5-34.5c0.1-3.7,2.8-7.4-0.2-11c4.4-4.1-0.5-7.8-0.4-11.6
			c0.1-4.2,2.3-8.4,2.4-12.6c0.3-12.3-0.1-24.6-0.1-36.9c0-1.6,1.2-3.3,1.4-4.9c0.8-8.7-0.3-17.7,3.2-26.6c-0.9-0.2-1.8-0.3-3.1-0.5
			c2.2-3.7-3.8-9.4,3.7-12c-1.8-2.5-6.9-4.3-1.3-7.7c0.5-0.3,0.3-2.4,0-3.5c-1.7-8-0.7-15.9-0.6-23.9c0.1-5.5-0.8-10.9-0.9-16.4
			c0-1.6,0.9-3.3,1.3-4.4c-0.8-2.8-2.2-5.4-2.3-8c-0.3-8.7,0.1-17.5-0.3-26.2c-0.6-13.5-2-27-2.4-40.6c-0.3-9.3,0.6-18.7,0.6-28.1
			c0-6.5-1-12.9-1-19.4c0-4.7,1.1-9.4,1.3-14.1c0.1-2.4-0.8-4.7-1.2-7.1c-0.8-4.4-3-9.2-1.8-13c1.8-5.7,0.1-10.5-0.3-15.8
			c-0.2-3.3-0.7-13-1.6-15.9c-0.6-2.3-0.2-4.8-0.2-7.3c-0.1-2.1-0.2-4.2-0.2-6.4c-0.4-9.7-0.9-19.4-1.3-29.9
			c0.2,0.1-0.9-0.3-1.7-0.6c0.6-8.7,1.2-17,1.8-25.6c-3.3-2.9-3.9-4,2.2-11.3c-2.4,0.3-3.8,0.5-4,0.6c-0.7-4.7-1.6-9.7-1.9-14.6
			c-0.3-4.2,0.1-8.4,0.3-12.6c0-1.4,0.5-2.9,0.2-4.2c-2.3-9.4-2.1-19-3-28.6c-0.7-8.1-2.5-16-3.7-24c-1.2-7.8-2.5-15.6-3.6-23.5
			c-0.1-0.9,0.5-1.9,0.7-2.9c0.2-1.2,0.8-3,0.3-3.4c-4.3-3.3-2-8.2-3.3-11.8c-2.7-7.6-2.7-15.5-5.4-23c-1.2-3.3,0-7.4-0.8-10.9
			c-1-4.5-2.9-8.9-4.4-13.3c-2.3-6.5-4.3-12.9-1.1-18.8c-2.8-8.2-12.7-12.9-9-23.4c0.4-1.1-2-3-2.4-4.8c-1.7-5.9-5-11.3-5-17.8
			c0-2.2-2.3-4.4-3.9-7.2c4.1-6.2-4-9.5-5.1-15c-0.6-3-3.1-5.6-4.3-8.5c-4.4-11.3-8.3-22.8-13-34c-1.7-4.2-4.8-7.7-2.8-12.6
			c-4.5-0.2-5-3.8-6.3-6.6c-3.6-7.5-7.2-14.9-10.6-22.5c-1.4-3.2-2.2-6.6-3.4-9.9c-0.8-2.1-1.8-4.1-2.8-6.4
			c-1.9-5-3.7-10.1-6.1-14.9c-0.2-0.5-4.7,0.8-6.9,1.8c-1.6,0.7-2.7,2.4-4.7,4.4c0.5,1.4,1.5,3.8,2.4,6.2c-0.4-0.2-0.9-0.3-1.3-0.5
			c-2.5,6.2-4.9,12.4-7.4,18.6c-0.5,1.3-1,2.8-2,3.7c-2.1,2-5,3.3-3.7,7.3c0.4,1.1-0.6,3.6-1.6,4.1c-6.8,3.3-6,10.2-7.9,15.7
			c-0.7,2.1-1.9,4.1-2.7,6.2c-1.5,3.9-2.3,8.1-4.3,11.8c-3.3,6.1-4.7,12.7-6.5,19.3c-1.4,5-4.3,9.7-6.1,14.6
			c-1.8,4.9-2.7,10.1-4.4,15.1c-2,5.7-4.5,11.2-6.5,16.9c-0.7,1.9-0.2,4.1-0.6,6.1c-1.1,5.3-2.1,10.6-3.7,15.8
			c-0.9,3.2-4.2,6.3-3.9,9.1c0.6,6.4-3.8,10.7-4.9,16.4c-1.6,8.1-4.4,16-6.5,24.1c-1.4,5.5-3.6,11.1-3.4,16.5
			c0.3,9.1-5.5,16.2-6.3,24.9c-0.7,7.8-3.6,15.5-5,23.3c-1.5,8.4-2,17-3.5,25.5c-1.2,6.5-3.8,12.7-5.1,19.1c-1,5-1.1,10.3-1.6,15.5
			c-0.6,5.3-1.1,10.5-1.9,15.7c-0.7,4.4-3.5,8.3-1.7,13.2c0.6,1.6-1,4-1.7,6.2c2.7,1.7,2.9,5.2,0.2,8.4c-0.6,0.7-1.4,1.5-1.4,2.3
			c-0.8,7.6-1.8,15.1-2.3,22.7c-1,16.4-1.2,32.8-2.6,49.2c-0.8,9.1-4.9,18.1-4.4,27.1c0.6,11.3-4.2,22.1-1.3,33.7
			c1.4,5.5-1.1,12-1.9,18.1c-0.1,0.4-1,0.7-1.4,1.1c-2.3,2.1-2.2,2.2,0.9,3.2c-1.1,8.4-3.6,16.7-3,24.9c0.7,9.7-1.8,19-1.7,28.4
			c0,4-1.6,8.5,0.9,12.6c0.8,1.3-0.7,4-0.9,6.1c-0.7,10.8-1.3,21.6-1.8,32.4c-0.2,3.7,1.2,8-0.2,10.9c-4.1,8.2-0.7,16.3-1.2,24.4
			c-0.4,6.1-1,12.3-0.6,18.4c0.2,3.9,2.1,7.6,3.2,11.4c0.3,1.1,0.9,2.4,0.7,3.4c-1,3.9-2.3,7.7-2.9,11.4c0.1,2.8,0,5.7,0.5,8.5
			c0.6,4.2,1.7,8.3,2.5,12.4c0.1,0.3,0.3,0.7,0.3,1c0.2,9.6,0.5,19.3,0.5,28.9c-0.1,14.7-0.5,29.4-0.5,44.1c0,8.4,0.4,16.9,0.8,25.3
			c0.1,1.6,0.8,3.2,1.3,5.3c-0.9,0.8-2.2,2-4,3.5c6.8,2.2,4.4,7.9,3,11.5c-1.6,4-0.9,6.1,3.1,8.3c-8,5.7-0.8,12.6-2.5,18.8
			c-0.4,1.4,0.8,3.1,0.7,4.7c-0.2,5.5-0.8,11-0.9,16.5c0,1,1.6,2.1,1.3,2.9c0,4.1,0.2,8.3,0,12.4c-0.2,3.3-0.8,6.6-1.9,9.8
			c4.4,7.9,2,16.4,2.2,24.8c-0.5,0-1.1,0.1-1.6,0.1c0.1-2,0.3-3.9,0.4-5.9c-0.4,0-0.9-0.1-1.3-0.1c-0.3,2.3-0.6,4.6-0.9,7.3
			c1.5,0.1,2.8,0.2,3.7,0.3c-0.4,2.8-1.2,5.4-1.1,7.9c0.1,2.4,1,4.9,2.5,7.1c-1.1,2.5-2.3,5-3.5,7.8c1.5,0.3,2.7,0.6,3.8,0.8
			c-1,5.5-2.6,10.5-2.8,15.5c-0.2,6.7,1,13.5,1.1,20.3c0,2.4-1.2,4.9-1.8,7.4c-0.5-0.1-1-0.3-1.6-0.4c1.2,1.3,2.3,2.7,3.5,4
			c-0.2,0.3-0.4,0.6-0.6,0.9c-1.1-0.3-2.3-0.6-4.1-1.1c0.7,4.3,2,8.2,2,12.2c0,7.1-0.8,14.1-0.9,21.2c0,2.7,1.4,5.4,1.5,8.1
			c0.2,4-2.1,7.9,1.1,12.2c1.6,2.1-0.4,6.7-0.4,10.1c0.1,5.5,0.6,11,0.7,16.5c0,5.2-0.4,10.5-0.6,15.7c-0.2,7.7-0.3,15.4-0.5,23
			c0,1.2,0,2.3,0.1,3.5c0.4,5.3,3.2,10.2,1.7,16.1c-0.8,3.4,1.6,7.7,2.6,12c-2.1-1-3.7-1.7-5.2-2.5c3,5.6,3.1,10.7-0.8,16.8
			c2.5-0.8,3.9-1.2,7.1-2.1c-1.6,2.8-2.4,4.4-3.4,5.9c-0.9,1.2-2.1,2.2-3.2,3.2c1.4,0.8,2.7,1.7,4.1,2.5c-0.3,5.3-0.7,11-1.1,17
			c-0.6,0.1-1.8,0.4-3.5,0.8c3.6,5.9,8.1,11.6,1.2,17.4c1.4,3.1,3.4,6.1,4.1,9.4c0.5,2.4-0.7,5.1-1,7.6c-0.9,6.8,1.1,14-2.4,20.5
			c-1,1.8-3.3,3-4.8,4.2c0.7,1.6,2.1,3.2,1.8,4.6c-1.5,8.2,1,16.1,1.1,24.1c0.1,5.6-0.3,11.2-0.4,16.9c-0.1,10.2,0,20.4-0.1,30.5
			c-0.1,9.4-0.3,18.8-0.2,28.2c0.1,4.5,0.9,9,1.1,13.6c0.2,5.5,0.3,10.9,1.3,16.4c0.6,3.5-0.4,8.5-0.3,12.9c0.2,5.3,0.4,10.6,0,15.9
			c-0.3,3.3-1.6,6.5-2.7,10.4c4.1,1.7,3.7,5.1,1.1,9.1c-0.4,0.7-0.5,1.7-0.4,2.6c2,14.2,1,28.4-0.7,42.6c-0.7,6.2,0.5,12.7,0.6,19.1
			c0.1,11.5,0.2,23,0.1,34.5c0,10.5-0.9,21.1-0.2,31.5c0.5,7.8,0.5,15.3-1.1,23.1c-1,4.6,1.1,9.8,1.5,14.7
			c0.5,6.9,0.7,13.8,0.9,20.7c0.3,8.7,0.7,17.4,0.6,26.1c0,4.5-1.2,9.1-1.4,13.6c-0.2,4.5,0.2,9.1,0.3,13.6
			c0.2,6.5-0.5,13.2,0.6,19.5c2.3,12.5-3.1,24.5-0.6,37.2c1.7,8.4-0.4,17.5-0.4,26.3c0,13.1,0.7,26.2,0.6,39.4
			c-0.1,6.4-1.5,12.9-2.3,19.1c-4.3,0-7.3,0-11.3,0c0.4-5.7,0.8-11.2,1-16.8c0.2-5.8,0-11.6,0-17.4c-0.1-10.2,0-20.5-0.3-30.7
			c-0.1-3.7-1.3-7.3-1.6-11c-0.5-5.7,1.1-11.2-0.9-17.1c-1.7-5,0.1-11.1,0.1-16.8c0-7.3-0.3-14.6-0.5-21.9
			c-0.2-6.9-1.5-13.8-0.6-20.5c1.8-13.8,0.9-27.4,0.2-41.1c-0.3-5,0.7-10.1,1-15.2c0.1-1.7-0.1-3.4,0-5.1c0.3-5.5,0.9-11,0.9-16.5
			c0-1.6-1.4-3.2-2-4.5c0.5-3.7,1.4-7.6,1.6-11.4c0.1-3.3-1.6-6.8-0.8-9.8c1.9-7,0.8-14.1,1-21.1c0.1-4.2,1-8.4,1-12.7
			c0-6.8-0.1-13.8-0.3-20.7c-0.2-6.3-0.8-12.6-0.8-18.9c-0.1-9.5-0.9-19.2,0.5-28.6c1.2-8.5-1-16.4-1.3-24.5
			c-0.2-4.2,1.1-8.5,1.2-12.7c0.1-5.6-0.2-11.3-0.4-16.9c-0.2-5.1-0.9-10.2-0.4-15.2c1.3-12.7,1.1-25.3,0.6-38
			c-0.3-8.2,0.8-16.5,1.3-24.7c0-0.4,0.1-0.7,0.1-1.1c0.1-9.4,1-18.9-0.1-28.1c-1.1-10-0.2-19.9-0.2-29.9c0-5.8-1.4-11.6-2.1-17.4
			c-0.1-0.5-0.4-1.3-0.2-1.6c4.2-5.4-0.3-11.2,0.7-17c1.1-6.8-1.1-14.2-1.3-21.3c-0.2-5.7,0.6-11.5,0.8-17.2c0.1-3.8-0.1-7.5,0-11.3
			c0.1-3.6,0.9-7.2,0.8-10.9c-0.1-7.2-0.6-14.3-0.8-21.5c-0.1-4.1-0.3-8.2,0-12.3c0.5-6.4,1.6-12.7,2-19.1
			c0.4-7.6,0.2-15.2,0.3-22.8c0-1.9,0.1-3.9,0.2-5.8c0.4-7.5,0.8-14.9,1-22.4c0-1.7-0.8-3.4-0.2-4.9c0.4-1.5,0.9-3,1-4.5
			c0.4-4.8,0.8-9.6,0.7-14.4c0-1.9-1.4-3.8-1.5-5.9c-0.9-3.2-1.9-6.4-2.8-9.5c-0.1-0.3-0.5-0.7-0.4-1c3.6-8.8-5.8-17.8,0.2-27
			c-0.7,0.4-1.5,0.7-1.5,0.7c-0.3-5.6-1-11.6-0.7-17.5c0.2-5.1,1.5-10.2,2.4-16.1c-2.7-1.9-3.7-4.9-2-9.6c1-3.1-0.9-7.1-1.3-10.7
			c-0.3-3.1-0.5-6.3-0.5-9.4c0-6.9,0-13.8,0.3-20.6c0.1-1.5,1.2-2.8,1.6-4.3c0.4-1.5,1.3-3.8,0.7-4.5c-4.8-4.9,0.4-10.8-2-15.9
			c-0.7-1.6-0.5-3.6-0.6-5.4c-0.1-4-0.2-8.1,0-12.1c0.1-1.5,1.3-2.9,2.2-4.8c-0.6-0.6-1.7-1.6-1.9-1.7c0-3.3,0-5.4,0-7.5
			c0.1-6.9,0.2-13.9,0.3-20.8c0-7.2,0-14.4,0-21.7c0.7,0.4,1.4,0.8,2.1,1.3c0-0.4,0.2-0.9,0-1c-4.9-5.1-0.4-10.7-0.7-16
			c0-0.8,0.8-2,0.5-2.4c-3.8-5.1-1.3-10.3-0.6-15.5c0.4-3.4,0.6-7.1-0.2-10.4c-1.1-4.3-1-8,1.8-11.5c0.5-0.6,0.4-2,0.2-2.9
			c-0.6-3.4-2.3-6.9-1.8-10c2-11.8,0.9-23.5,0.3-35.3c-0.4-8.5,0.5-17,0.8-25.5c0-0.3,0.4-0.8,0.3-1c-3.1-6.9,0-14.1-1.2-21.2
			c-0.9-5.1-0.1-10.4-0.4-15.6c-0.4-6.4-1.1-12.9-1.5-19.3c-0.2-3.2,0.2-6.5,0.3-9.8c0.2-7.4,0.1-14.8,0.6-22.2
			c0.3-4.6,1.7-9.2,2.2-13.8c0.3-2.5,0.1-5.2-0.5-7.7c-2.3-9.5-1.1-18.8,1.2-28.2c0.4-1.7-0.1-3.5-0.1-5.3
			c0.4-8.2,0.9-16.5,1.3-24.7c0.1-1.7,0-3.5,0.2-5.2c0.8-7.9,1.7-15.8,2.6-23.7c0.8-8,1.4-16,2.5-24c0.6-4.5,2.2-8.8,3.5-13.8
			c-1.5,0.1-2.8,0.2-3.1,0.3c1.2-4.7,2.4-9.4,3.4-14.2c1.5-6.7-0.6-14.1,3.9-20.4c1.2-1.6,0.4-4.6,0.6-6.9
			c0.7-8.8,1.3-17.7,2.2-26.5c0.5-5.1,1.5-10.1,2.4-15.1c0.2-0.8,1-1.6,0.2-2c-0.8-5.1-1.7-10.2-2.6-15.8c4-3,3.8-8.5,2.7-12.9
			c-1.4-5.2,0.6-9.7,0.7-14.5c0.2-6.3,0.7-12.7,1.4-19c0.2-2.3,1.4-4.4,2.2-6.8c0,0-0.9,0.1-3.1,0.4c2.4-2.9,4.1-5,5.9-7.2
			c-1-0.4-2.8-1.2-3.6-1.6c1.9-6.9,3.7-13.3,5.7-20.1c-0.8-0.5-2.2-1.4-4.1-2.6c1.8-3,3.6-5.9,5.7-9.1c-2.2-2.4-2.2-4.9,0.4-8.1
			c1.4-1.8,0.7-5.2,1-7.9c0.5-4,0.8-8.1,1.8-12.1c1.9-7.6,0.8-16.3,7-22.6c0.4-0.4,0.6-1.4,0.3-2c-3.5-9.1,3.2-16.9,3.5-25.6
			c0-1.5,1.8-3.2,3.2-4.2c1.8-1.3,0.7-2.6,1-4c0.8-4.7,2.3-9.2,3.5-13.8c0.5-1.9,0.8-3.9,1.4-6.6c0.5,0,2-0.2,4-0.4
			c-1.2-1-2.1-1.7-2.9-2.3c0.8-2.6,1.6-5.3,2.5-8.4c0.7,0.2,1.7,0.4,1.6,0.4c0.5-3,1.8-6.1,1.1-8.6c-1.4-6,6.5-10.5,1.7-16.6
			c2-0.2,3.6-0.3,3.7-0.3c0.5-3.3,0.7-6,1.4-8.5c0.8-2.7,3.3-5.1,1.4-8.3c-0.2-0.3-0.2-1.2,0-1.3c5.1-3.1,2.6-8.6,4.1-12.8
			c0.9-2.5,2.1-4.9,2.8-6.5c1.9-6.6,3.6-12.4,5.2-18.3c0.6,0,1.2,0.1,1.8,0.1c-1-0.8-2.1-1.5-3.3-2.4c0.5-0.4,0.8-0.8,1.1-1
			c0.9-0.6,2.5-1.1,2.7-1.9c0.8-3.2,0.9-6.6,1.8-9.9c0.3-1.4,2-2.4,2.6-3.7c3.8-7.6,6.7-16,11.7-22.7c2.5-3.4,2.2-6.4,3.4-9.5
			c0.9-2.3,3.5-4,5.9-5.6c0.1-3.5,0-7.4,5.2-8.5c-0.7-1.8-1.2-3.3-1.7-4.6c4.9-7,9.6-13.8,15.1-21.5c-2.7,0-3.7,0-5.1,0
			c0.3,1.2,0.6,2.2,0.8,2.9c-7.7,2.5-15.2,4.7-22.5,7.4c-3.5,1.3-6.5,4.2-10.1,5.2c-7.3,2.2-12.1,8.3-20.4,10
			c-9.1,1.8-17.7,8.1-25.6,13.7c-2.7,1.9-4.9,4.2-8.4,5.5c-2.8,1-4.8,4.2-7.4,6.3c-2.6,2.1-5.4,3.9-8.5,6c-0.1-0.2,0.6,0.8,1,1.4
			c-8.4,4-16.9,7.9-25.7,12.1c0.7,3.7-1.4,5.5-5.3,6.3c-1.4,0.3-2.3,2.4-3.5,3.6c-1.8,1.6-3.7,3-6.1,4c-1.7,3.9-9.3,10.2-13.4,10
			c-1.5,6.6-7.1,9.4-11.9,13c-1.1,0.8-1.7,2.3-2.8,3.2c-5.3,4.1-6,12.5-13.8,14.6c-1.6,0.4-2.5,3.5-4.1,6c-3.9-0.3-6.2,2.7-8.4,6.7
			c-3,5.5-5.8,12-10.6,15.5c-6.4,4.6-7.7,12.6-13.8,17.1c-1.5,1.1-2,3.6-3.2,5.3c-1.1,1.5-2.6,2.7-4.3,3.7
			c-2.6,6.5-4.4,13.4-10.2,18.3c-0.9,0.8-1.1,2.4-1.8,3.6c-1.3,2.1-2.9,4.1-4.2,6.3c-0.6,1-0.9,2.2-1,3.4c-0.1,2.5-6.4,9.9-8.1,11.4
			c-1.8,1.7-2.5,4.7-3.7,7.1c-1.2,2.3-2.7,4.5-3.9,6.9c-2.6,5.3-5.1,10.7-7.5,16.1c-0.2,0.5,0.6,1.6,1,2.7c-3.4,1.8-8.2,2.5-6.5,8.3
			c0.3,1.1-1.9,2.9-2.8,4.5c-2.5,4.4-4.6,9-7.3,13.2c-1.6,2.5-4.7,4.2-5.8,6.8c-1.7,4.1-2,8.8-3.3,13.1c-1.3,4.5-3.1,8.9-4.6,13.3
			c-1.4,4.2-2.4,8.5-4.1,12.6c-2.8,6.5-3.8,14.2-11,18c-0.3,0.2-0.8,0.6-0.8,0.7c1.5,4.7-1.6,7.8-3.8,11.3c-1.8,2.8-1.8,5.8-0.1,8.9
			c0.3,0.6-1.6,2.3-3.1,4.4c-0.3-2.5-0.4-3.8-0.7-5.7c-2.7,4.9-5.3,9.4-8.6,15.3c2.4-1.2,3.4-1.7,4.6-2.3c0,1.2,0,2.3,0,3.1
			c-2.5,0.5-4.6,1-8,1.8c6.2,4.2,5.1,8.3,2.1,12.7c-2.1,3.2-6,7.3-5.3,9.9c1.3,4.9-2.7,7.8-2.2,12c0.3,2.3,0,4.9-0.8,7.1
			c-0.5,1.4-2.3,2.4-3.2,3.2c-0.8,2.6-1.6,5.2-2.6,8.3c0.9-0.2,2-0.4,3-0.6c0,0.3,0.3,0.8,0.1,1c-2.6,2.2-5.3,4.2-2.2,8
			c0.2,0.2,0.1,0.7,0,1c-2.1,6.2-4.3,12.3-6.1,18.5c-0.5,1.9,0.5,4.1,0.5,6.2c-0.1,5.2-3.1,10.1-1.7,15.6c0.3,1.2-2.2,3.1-3.6,5
			c3.1,3,0.4,5.4-2,7.6c0.6,2.4,1.9,4.8,1.7,7c-0.7,7.9-1.8,15.7-3.1,23.5c-0.6,3.6-2.3,7-3.6,10.9c0.2,0.1,1.3,0.5,1.4,0.5
			c-0.4,5.3-0.8,10.1-1.1,15c-0.1,0-0.1-0.1-0.2-0.1c-0.4,2.3-0.8,4.7-1.2,7c-0.1,0.8,0.3,2.2,0,2.3c-3.4,1.6-1.5,3.6-0.9,5.8
			c0.4,1.4-0.3,3-0.6,5.1c-0.2,3-0.6,6.5-0.6,10.1c0,2,1,4.1,0.8,6.1c-0.4,4.7-1.7,9.1-0.6,14.1c0.7,3-0.3,7.6-2.3,9.6
			c-4,4-0.6,7.2-0.2,10.7c0.1,1.2,0.9,2.4,0.8,3.5c-0.9,12.4-2.1,24.7-2.7,37.1c-0.3,5.6,0.6,11.3,0.5,16.9
			c-0.1,6.5-0.7,13.1-1.3,19.6c-0.2,2.6-1.1,5.2-1.8,8.9c3.8,6.5,3.1,17.7-0.9,24.5c-0.4,2.4-1.1,4.8-1.2,7.3
			c-0.1,1.9,0.6,3.8,0.6,5.8c0,3.2-0.4,6.4-0.4,9.6c0,3.8,0.6,7.7,0.4,11.5c-0.4,6.6-1.8,13.2-1.9,19.9c-0.1,6.4,0.9,12.8,1.3,19.2
			c0.2,3,0,5.9,0,9.2c-0.4,0.7-2,2.1-1.9,3.5c0.4,9.8,1.1,19.5,1.7,29.2c0.3,4.9,1.4,10,0.4,14.6c-2.2,11-0.5,21.9-0.4,32.8
			c0.1,5.5,0.3,11.1,0.1,16.6c-0.5,13.4-0.6,26.8-2.2,40.1c-1.6,13.1-0.5,26.2-2.4,39.2c-0.9,6,0,11.5,0.3,17.3
			c0.3,6.8-0.5,13.7-1.1,20.5c-0.9,9.8-2.1,19.6-3.2,29.4c0,0.3,0,0.8,0.2,1c3.6,4.4,1.4,9.7,1.9,14.5c0.4,4.6-1.5,9.9,0.1,13.9
			c3,7.7,1,15.6,2.5,23.3c1.3,6.7,2.6,13.8-3.1,19.5c-0.6,0.6-1.3,1.8-1.1,2.4c1.4,3.7,0.4,7.3,0.2,10.9c-0.2,3.9,1.2,8.7,1.9,13.1
			c0.6,3.3,0.4,6.7,0.1,10c-0.2,2.5-2.1,5.1,1.5,6.9c0.4,0.2,0,3.1-0.7,4.4c-0.6,1.1-2,1.7-3.4,2.7c1.6,1.4,2.7,2.5,4.2,3.8
			c-3.7,2.6-4.7,5.6-4,10.2c0.7,4.8-0.7,9.9-0.7,14.9c0.1,8.2,1.4,16.5,0.7,24.7c-1,10.8,1.2,21.6-0.4,32.2
			c-0.7,4.9,0.5,9.2,0.7,13.7c0.2,6.8-0.6,13.6-0.6,20.3c0.1,9.4,0.6,18.9,0.7,28.3c0,1.5-0.8,3-1,4.5c-0.6,5.3-0.5,10.4,0.9,15.7
			c1.1,4.4-0.6,9.6-0.7,14.4c-0.2,8.3-0.2,16.6-0.3,24.8c0,1,0.3,2.5-0.3,3.1c-2.7,2.8-1,3.9,2.7,4.7c-2.3,1.9-3.8,3.2-6,5.1
			c6.6,3,5.8,7.8,4.6,13.5c-1.2,5.7-0.9,11.8-1.2,17.7l2.6,11.5c-0.4,2.3-0.7,4.7-1.1,7c-0.2,1.2-1.2,2.7-0.8,3.5
			c3.5,5.9,2.1,12,1.6,18.3c-0.2,2.7,1,5.5,1.4,7.7c-1.7,0.7-3.3,1.5-4.3,1.9c2,2.5,4,4.1,4.4,6c0.7,2.8,2.8,6.6-2.6,8.1
			c2.1,3,4.7,6,0.1,8.8c-0.4,0.3-0.8,1.4-0.6,1.9c1.1,2.7,1.2,4.5-1.5,7c-1.4,1.4-0.4,5.5-0.2,8.4c0.2,2,1.3,4,1.5,6
			c0.4,5.8,0.7,11.6,0.7,17.4c0,6.4-0.7,12.8-0.7,19.3c-0.1,8,0.4,16,0.3,24c0,7.2-0.4,14.5-0.7,21.7c-0.3,7.5-0.8,15.1-1.1,22.6
			c-0.3,8.5-0.7,16.9-0.8,25.4c0,3.7,0.8,7.4,0.8,11.1c0.1,7.4-0.5,14.8-0.2,22.2c0.3,7.4,1.6,14.7,2,22c0.2,3.2-0.2,6.6-1.1,9.8
			c-2.2,7.6-0.3,15,0.2,22.6c0.5,7.2-0.3,14.5-0.4,21.8c-0.1,4.8,0.4,9.6-0.1,14.4c-0.3,2.9-0.7,6.7-5.4,6.6
			c-4.7-0.1-4.7-3.7-5.3-6.8c-1-4.5-2.4-9-2.6-13.5c-0.5-16.5-0.4-33.1-0.7-49.7c-0.1-5.9-0.7-11.8-0.8-17.7
			c-0.2-7.9,0-15.8-0.1-23.7c-0.1-5.7-0.9-11.4-0.8-17c0.1-5.7,1.1-11.3,1.4-16.9c0.1-1.5-0.8-3-0.8-4.5c0.2-6.3,0.9-12.6,0.8-18.9
			c-0.1-7.5-1-15-1.5-22.4c0.9-2.7,2.6-5.5,2.8-8.5c0.3-4.6-0.5-9.2-0.5-13.9c0-1.3,1.3-2.5,1.4-3.8c0.7-4.1,1.4-8.2,2.1-12.6
			c-1,0.1-2.2,0.2-4,0.3c1-2,1.6-3.8,2.7-5.1c2.8-3.3,1.6-6.4-0.2-9.6c-0.3-0.5-0.8-1.3-0.6-1.4c4-4.6-0.7-9.7,0.9-14.6
			c0.7-2-0.1-4.6-0.6-6.9c-0.4-1.8-2.4-4.2-1.8-5.3c2.9-5.4-1.4-10.4-0.2-15.6c2.4-10.5-0.8-21-0.2-31.4c0.4-7.7-2-15.3,0.3-23.1
			c1.4-4.7,0.6-10.3-0.1-15.3c-0.9-6.1-1.1-11.9,2.5-17.6c-1.4,0-2.2,0-3.3,0c0.2-4,0.3-7.7,0.7-11.4c0.8-7.7,2.2-15.5,2.4-23.2
			c0.2-9.1-0.7-18.1-0.9-27.2c-0.2-8.8-0.1-17.6-0.1-26.4c0-3.6-0.3-7.2-0.3-10.8c0.1-6.2,0.5-12.5,0.3-18.7
			c-0.2-7.3-1-14.5-1.5-21.8c-0.1-0.7-0.8-1.5-0.6-2c4-7.8,0.1-16,1.4-24.1c1-6.2,0-12.6,0.5-18.9c0.5-6,1.9-11.9,2.5-17.8
			c0.4-3.8-0.3-7.7-0.1-11.5c0.1-2,1-3.9,1.9-7.1c-2.9-2.9-3.5-7.2-0.6-12.4c1.1-2.1,0.3-5.8-0.7-8.4c-2-5.4-1-9.6,3.3-13.8
			c-1.4,0.1-2.7,0.2-4.4,0.3c0.7-6.3,1.5-12.5,2.1-18.8c0.3-2.7,0.1-5.5,0.1-8.3c0-2.5,0.1-5.1-0.1-7.6c-0.3-5.7-0.9-11.3-1.2-17
			c-0.4-9.1,0.1-18.3-1.2-27.2c-1.1-7.7-0.6-15.2-0.7-22.8c-0.3-13.3-0.8-26.6-1-39.9c-0.2-14.1-0.4-28.3,0-42.4
			c0.2-7.9,2.1-15.7,2.6-23.6c0.3-4.8-0.8-9.6-0.7-14.4c0.1-4.5,0.8-8.9,1.3-13.4c0.9-8.8,2-17.7,2.9-26.5c1.2-12,2.5-24.1,3.4-36.1
			c0.4-4.5-0.1-9.1,0-13.7c0-1.7,0.6-3.5,1-5.2c0.2-1.2,0.6-2.4,0.6-3.5c0.1-4.5,0.2-9.1,0.2-13.6c0-6.8,0.5-13.6-2.7-20
			c-0.5-1-0.3-2.5-0.1-3.7c1.8-13.4,2.1-26.8,1-40.3c-0.5-7,1.4-14.1,1.9-21.2c0.3-4.2-0.1-8.5-0.1-12.7c0-5.7,0.3-11.4,0.1-17.1
			c0-1.3-1.3-2.7-0.8-3.9c0.3-4,0.6-8,1-11.9c0.4-4.1,1-8.2,1.2-12.3c0.1-3.6-0.4-7.2-0.4-10.8c-0.1-8.1-0.1-16.2,0-24.3
			c0-4,0-8,0.4-11.9c0.2-1.5,1.8-2.8,1.5-4.3c0.3-5.3,0.3-10.6,1-15.8c0.9-7.1,3.6-14.2,3.4-21.1c-0.4-9.8,3.2-19.1,1.8-29.2
			c1.5,0.2,2.6,0.3,3.3,0.4c0-31.1,4.8-61.6,7.6-92.3c0.5,0,0.9,0.1,1.4,0.1c0-2.7-0.5-5.5,0.1-8c1.6-7.2,5.4-14.5,4.8-21.5
			c-0.6-6.3,4.3-10.5,3.4-16.4c-0.2-1.5,3.8-3.6,5-4.7c-0.2-2.4-0.7-4.6-0.4-6.6c1.1-6.1,1.3-12.9,4.1-18.1
			c2.3-4.3,1.6-9.4,5.8-13.5c2.7-2.7,1.7-9.2,3.2-13.3c1.4-1.4,3.1-2.6,4.1-4.3c0.4-0.6-1.1-2.2-1.9-3.9c3.2-4.3,6.4-9.6,6.8-16.3
			c3.6-0.2,0.3-9.7,6.6-6.8c0.9-4.6,1.7-8.8,2.5-13.1c0.3,0.2,0.6,0.4,0.9,0.5c1.5-2.6,3.4-5.1,4.3-7.9c2.2-6.5,4.8-13,5.9-19.7
			c1.2-7.5,7.2-12,10.1-18.3c0.2-0.5,1-0.9,1-1.2c-1-4.7,1.6-7.8,4.3-11.2c0.4-0.5-1.4-3.2-1.1-3.4c4.6-3.2,2.4-9.9,6.7-13
			c3.7-2.7,4-6,3.3-10.1c-0.7-4.4,2.9-7.6,8.7-8c-0.8-2.1-3.8-3.7,0.3-6.4c4.6-3.1,7.7-8.5,12-13.5c-1.9-0.2-3.1-0.3-4.5-0.5
			c1.4-3.8,2.8-8,4.5-12c1.7-4.1,7.4-6.1,5.8-12c-0.2-0.8,1.4-2.7,2.5-3.1c3.8-1.5,2.8-3.8,1.5-6.4c1,1,2,2,3,3
			c1.1-2.7,1.7-5.8,3.3-8.2c5-7,9.9-14.2,15.9-20.3c4.3-4.4,5.8-11.7,13.2-13.2c1.2-0.2,1.6-3.2,2.8-4.4c1.7-1.9,4.1-3.3,5.8-5.2
			c1-1.2,1.4-3,2-4.3c1.8-1.6,4.3-2.9,5.4-4.9c3.6-6.6,7.1-12.9,14.1-16.7c1.9-1,2.6-4,4.2-5.8c1.1-1.2,2.8-1.8,5.5-3.5
			c1.7-4.7,7.8-7.2,12.6-11.2c4.6-3.7,8.6-8.1,13.3-12.6c-1.2-0.2-2-0.4-3-0.5c0.5-0.4,0.9-1.1,1.3-1.1c4.8,0.3,7.4-2.7,10.3-5.9
			c3-3.3,7.1-5.6,10.6-8.4c7.2-5.8,14.1-12.2,21.7-17.5c6.2-4.4,13.3-7.7,19.9-11.6c1.6-1,2.9-2.4,5.2-2.8c1.5-1.1,2.8-2.3,4.4-3.2
			c5.5-3,11.7-5.2,16.4-9.1c4.6-3.9,10-5.9,15-8.8c3.9-2.3,7.5-5.2,11.6-7.4c1.1-0.6,3.1,0.7,5.6,1.3c-0.9-1.7-1.4-2.8-1.7-3.4
			c2.9-1,6-2.1,9.6-3.3c-0.5-0.6,0,0,0.8,1c1.8-7.9,9.2-5.5,12.4-4.7c5.7,1.3,6.3-2.7,9.4-4.5c-4.1-2.2-7.5-5.4-11.8-1.3
			c-0.3,0.3-1.8-0.3-2.3-0.8c-2.8-3.5-6.3-2.3-9.3-1c-2.8,1.2-5.2,3.4-8.2,5.4c-0.4-0.5-1.6-2-3.9-5.1c-0.3,4.6-0.5,7.5-0.6,9.2
			c-6,1.5-11.4,2.7-17.1,4.1c1-1.3,1.8-2.2,2.5-3.2c-4.4,0.9-8.1,1.6-11.8,2.4c-0.2,0-0.4,0-0.5-0.1c-4.2-4.3-7.3-5-9.5,2.1
			c-0.4,1.2-5.2,1.7-7.8,1.4c-5.2-0.7-9.7,1.6-14.6,2.1c-2.7,0.3-7.3,1-7.7,0.1c-1.6-3.6-2.9,0.1-4.1-0.2c-0.4-0.1-1.1,1.4-1.8,2
			c-1.2,0.9-2.5,2.2-3.9,2.4c-4.3,0.6-8.7,0.3-12.9,1.1c-6.7,1.3-13.4,3.3-20.3,5c-0.1-0.7-0.3-2.3-0.3-2.7
			c-3.5,0.4-6.7,0.7-9.9,1.1c-0.7,0.1-1.7,0-2,0.4c-4,5.2-10.7,3.8-15.8,6.5c-0.5,0.2-1.3,0-1.5,0.3c-3.8,5.9-11.4,3.9-16.5,8
			c-5,4-11.7,7.2-17.9,7.8c-3.8,0.4-7,2.2-10.8,2.5c-3.2,0.3-6.2,3.1-9.3,4.7c-6.9,3.4-13.8,6.6-20.7,10c-2.7,1.3-5.3,2.6-7.9,4.1
			c-3.1,1.7-5.9,3.9-9.1,5.3c-4.8,2.1-9.8,3.6-14.7,5.5c-5.4,2-11.7,3-15.7,6.6c-3.9,3.5-9,4.1-13,8.4c-4.7,5.2-9.8,11.1-16.6,14.5
			c-0.7,0.4-1.2,1.1-1.8,1.7c-3,3-5.1,6.1-10,7.6c-5.1,1.6-9.7,7-12.9,11.8c-2.5,3.8-5.7,5.8-9.4,7.2c-3.8,1.5-5.3,3.9-5.2,7.7
			c-8.6,0.4-8,11.1-13.3,12.7c-2.2,4.2-3.7,7.3-5.4,10.3c-1.6,2.7-3.5,5.1-5.3,7.7c-0.3,0.4-0.7,1.1-1,1.1
			c-8.3-0.5-5.9,10.2-12.3,11.6c0.4,1,0.7,1.9,0.7,1.9c-6.2,9.7-12.1,19.1-18.2,28.7c-0.1-0.1,1.2,1.5,0.8,2.2
			c-3.6,6.7-7.6,13.2-11.1,19.9c-1.9,3.5-3.1,7.4-4.8,11.1c-1.2,2.4-2.8,4.6-4.3,6.9c-2.1,3.2-4.7,6.2-6.4,9.7
			c-2.2,4.6-3.7,9.5-5.6,14.3c-2.3,5.8-4.4,11.6-6.9,17.3c-2.6,5.9-5.7,11.5-8.2,17.5c-3.1,7.3-4.6,15.5-8.9,21.8
			c-3.5,5.1-5.2,10.6-7.4,16c-2.1,4.9-3.4,10.2-5,15.3c-0.2,0.7-0.3,1.4-0.6,2.1c-4.7,12.1-6.2,25.3-11.1,37.1
			c-2.7,6.5-2.7,13-4.9,19.2c-0.6,1.7-2.3,2.9-4.1,4.9c3.5,4,1.2,9.1-1.2,14.3c-0.7,1.5-1.1,3.8-0.4,5.2c2.3,4.4-0.9,7.9-1.4,11.8
			c-0.5,3.6-1.2,7.2-2.2,10.7c-2.2,8.1-4.5,16.3-7,24.3c-1.6,5.1-3.9,9.7-3.6,15.5c0.2,5-2.3,10.1-3.7,15.2c-0.2,0.7-0.2,1.3-0.3,2
			c-0.9,7.8-1.6,15.7-2.8,23.5c-0.4,3-2.4,5.8-2.8,8.8c-0.6,4.2-0.4,8.4-0.7,12.7c-0.1,1.2-0.7,2.5-1.2,3.6
			c-0.5,1.3-1.6,2.5-1.7,3.7c-0.9,9.3-0.5,18.9-2.9,27.7c-1.5,5.4-1,10.4-1.3,15.6c-0.2,2.9-2.6,5.6-2.7,8.4
			c-0.3,5.2,0.7,10.5,0.5,15.7c-0.1,2.9-1.9,5.7-2,8.7c-0.4,8.5-0.5,17.1-0.5,25.6c0,1.5,0.7,3,1,4.6c-3.9,4.1-4.7,14.1-1.1,18.5
			c-0.8,1.1-2.6,2.4-2.5,3.3c2.8,15.9-2.4,31.9,0,48.9c-0.2,0.2-1.2,1.4-1.7,1.9c0,19,0,37.4,0,57.2c3,3.7-0.2,9.4,0.2,14.9
			c0.1,0.9-0.5,1.7-0.5,2.6c0.1,8.1,0.2,16.3,0.6,24.4c0.2,3.3,1.4,6.6,2.1,9.9c0.5-0.1,1.1-0.1,1.6-0.2c-1.1,1.3-2.2,2.7-3.7,4.5
			c1.5,0.8,2.9,1.5,4.9,2.6c-4.3,0.2-7.6,0.9-3.5,5.4c0.4,0.5-0.3,1.9-0.2,2.9c0.4,2.5,0.9,5.1,1.6,8.5c0.4-0.2-0.5,0.3-0.1,0.1
			c0,9.8,0,19,0,28.1c0,3.4,0.7,7.3-0.6,10.2c-2.2,5-0.1,9.9-0.9,14.8c-0.9,5.2,0.2,10.7,0.4,16.1c0,0.3,0.5,0.8,0.4,0.9
			c-3.4,4.6,1.5,10.7-2.7,15.2c-0.2,0.2,1.4,2.2,2.5,4c-0.7,2.7-4.1,5.8-0.5,10.3c1.5,1.8-0.7,6.4-1,9.7c-0.6,7.5-1.1,15-1.4,22.6
			c-0.2,7.5,0,15,0,21.7c0.1-0.2,0.6-1.3,1.1-2.5c0.3,0.1,0.5,0.1,0.8,0.2c-0.4,2.8-0.4,5.7-1.2,8.4c-3.7,12.4,0.3,25-1.3,37.5
			c-0.9,7,0.6,14.1-3,21.2c-1.4,2.7-2.5,8.9,1,13.1c0.3,0.4,0.1,1.4-0.2,2c-3.3,7.3-1.3,15.1-1.2,22.5c0.1,6.8-0.1,13.1-2.4,19.4
			c-1.6,4.5-2.4,9.2-3.5,13.8c5.5,2-3.6,8.3,1.6,9.5c0.7,7,1.4,13.3,2.1,19.6c-0.5,2.6-1.5,5.1-0.3,9.2c1.8,6.5,1.9,13.5,2.4,20.3
			c0.1,1-1.6,2-1.5,2c0.4,3.4,0.6,5.8,1,8.2c0.2,1.5,0.6,2.9,0.9,4.4c0.1,0.6,0.6,1.6,0.4,1.8c-4,3.3,0.4,7.1-0.6,10.6
			c-0.5,2-0.5,4.1-0.7,6.9c0.2,0.1,1.4,0.5,2.2,0.8c0,8.6,0,17,0,25.4c-1.5,0.5-3,1.1-4.5,1.6c-0.1,0.4-0.1,0.9-0.2,1.3
			c1.8,0.6,3.6,1.1,4.3,1.4c0,6.5,0.1,13.3,0,20.2c-0.1,5.4-0.5,10.8-0.4,16.2c0.1,4.7,1.4,9.4,1,14c-0.4,3.9-0.2,7.8-0.4,11.7
			c-0.2,5,1.5,10.7-0.4,14.8c-2.2,4.7,3.2,9.7-1.6,13.6c-0.5,0.4-0.3,1.7-0.3,2.6c0.1,6.5,0.1,13.1,0.3,19.6
			c0.1,4.3,1.3,8.8,0.4,12.9c-1.1,5.2,2.6,10.1-0.4,15.4c-1.3,2.3-0.8,6.1-0.2,9c2.3,12.3-2.5,24.8,1.3,37.1
			c0.9,2.9-1.2,6.5-1.2,9.9c0,3.3,1.1,6.6,1.4,10c0.2,2.5-0.1,5.1-0.1,7.6c0,4.8,0,9.5,0,14.3c0,4.8,0,9.6,0,14.4
			c0.1,3.2,0.3,6.3,0.4,9.5c0,0.4,0.2,1.1,0,1.3c-5.6,4.6-2.6,11.2-2.5,16.3c0.1,5.5-0.6,7.8-6.4,7.9c0.1,0.5,0.2,1,0.3,1.5
			c1.9,0.3,3.7,0.6,7,1.2c-0.8,2.4-1.3,5.3-2.8,7.4c-0.8,1-3.7,0.4-5.8,0.6c0.2,5.1,0.5,11.3,0.8,17.5c-0.1,0-0.3-0.1-0.4-0.1
			c0.7,2.7,1.6,5.4,2,8.2c0.8,6.4,1.5,12.8,2,19.2c0.3,4.5,0.2,9.1,0.4,13.7c0.1,1.8,1,3.6,0.8,5.3c-0.2,1.9-1.4,3.6-1.9,4.8
			c-2.5-1.3-4-1.9-5.3-2.8c-0.8-0.5-1.6-1.4-1.8-2.2c-1.1-5.6-2-11.3-3-17c0-0.2,0.1-0.5,0-0.5c-5.5-4.3-0.6-10.4-2.4-14.8
			c-1.7-4-2.6-6.9-0.2-10.6c0.2-0.3-1-1.3-1.2-2.1c-0.6-2.8-1.1-5.7-1-8.6c-1.4-1.6-5-2.9-0.1-5.3c-2.2-2-6-3.1-2.6-7.3
			c1-1.2,1.1-4.4,0.2-5.6c-3.7-4.9,0.2-5.6,3.3-7c0.6-0.3,1.1-0.9,0.5-0.4c-0.4-5.9-0.5-11-1.2-16c-0.9-6.4,4.7-12.9-0.2-19.3
			c-0.4-0.6-0.4-2,0-2.6c3.7-5.1,1.2-10.2,0.1-15.3c-0.1-0.6,0.2-1.6,0.6-1.8c3.3-1.5,1.1-3.6,0.8-5.6c-0.3-2.2-0.6-4.4-0.8-6.6
			c-0.1-1.3-0.4-2.6-0.3-3.9c0.4-4.2,0.7-8.5,1.5-12.7c0.5-2.6,2.6-4.4-0.6-7.3c-2.7-2.5,0.2-22.4,2.3-24.6c-0.7-1-2-2-1.8-2.8
			c1.2-8.2-1-16.3-0.4-24.7c0.5-6.7,0.5-14.1,0.5-21c0-6-1.9-13.7,3.8-19.1c0.4-0.4,0.6-1.9,0.4-1.9c-4-1.9-1.8-5.6-2.4-8.4
			c-0.4-2-2.4-4.9,1.9-5.4c-0.4-1-0.8-2-1.1-3c1.8-1.2,3.6-2.4,6.7-4.4c-3.1-0.8-4.6-1.1-6.2-1.5c-0.4-0.4-0.8-0.7-1.2-1.1
			c2.1-0.7,4.1-1.4,6.2-2.1c-7.5-4.3-7.8-4.1-8.7,1.4c-2.5-3.5-2.1-6.8,0.8-8c7.6-3,7.6-3,4.8-10.3c-0.2-0.5-0.2-1-0.5-2.3
			c-1.1,3.8-2,6.7-2.9,9.6c-0.6,0-1.2,0.1-1.8,0.1c-0.4-1.9-1.1-3.8-1.3-5.7c-0.4-4.1-0.7-8.2-0.6-12.3c0.1-2.6,1-5.1,1.7-8.6
			c-0.2-2-0.5-5.2-0.8-8.9c-6.8-1.5-4.3-8.3-4.8-12.8c-0.4-4.6,2.2-9.4,3.3-13.4c0.2-3.3,0.3-6,0.4-8.7c0-0.7,0.1-1.6-0.3-2.1
			c-3.7-5.4-0.9-5.9,5.1-4.1c-2.1-2.7-3.4-4.3-4.9-6.1c0.6-0.5,1.3-1.2,1.1-0.9c-0.2-2.3-0.5-3.8-0.4-5.2c0.5-6.3,1-12.6,1.8-18.8
			c0.3-2.5,1.2-4.9,2-8.3c-0.2-0.3-2-1.9-1.8-3.1c0.6-3.4,2-6.6,3.2-10.2c-5.6-2.8,1-7,0.3-11.1c-1.3-6.8-0.7-14-0.8-21
			c0-5.2,0.6-10.5,0.1-15.6c-0.3-3.5-2.4-6.9,1.6-8.2c-0.9-2.7-2.3-5.1-2.6-7.7c-0.6-5.8-0.7-11.6-1-17.4c0-0.3-0.4-0.8-0.3-1
			c3.1-3.8,0-8.3,1.1-11.8c1.8-5.7,0.6-11.2,0.7-16.8c0.1-6.3-0.8-12.6-0.9-19c-0.1-3.8,0.5-7.6,0.6-11.4
			c0.1-11.8,0.1-23.6,0.3-35.3c0-1.9,0.6-3.7,0.5-5.6c-0.1-2.9-0.6-5.7-0.7-8.6c0-3.3,0.4-6.7,0.4-10c-0.1-5.6-1-11.2-0.6-16.8
			c0.3-4.2,2.1-8.3,2.9-12.5c1-4.7,2.4-8.9,1.4-14.3c-1.5-8.4-0.1-17.2,0.1-25.9c0-1.2-0.4-2.5-0.6-3.7c-0.2-1.1-0.7-2.5-0.3-3.3
			c2.4-4.5,4.4-8.8-0.4-13c-0.4-0.3-0.3-1.3-0.2-2c0.7-12.4,2.3-24.8,1.7-37.1c-0.4-7.8,2.2-15.5,1.1-22.9
			c-1.2-8.2,1.7-15.5,2.7-23.2c0.4-2.8,0.1-5.7,0.2-8.6c0.2-7.3,0.3-14.7,0.5-22c0.2-5.6,1.9-11.5,0.5-16.6
			c-2-7.4,1.5-14.3,0.4-21.4c-0.5-2.9-0.5-5.9-1.5-8.8c-0.6-3.3-1.3-6.6-1.9-9.8c0.4,0,0.8,0,1.2,0c0.4-2.1,1.1-4.3,1.1-6.4
			c-0.2-9.7-0.7-19.4-0.8-29.1c-0.1-3.7,0.3-7.4,0.6-11.4c0.2,0-0.9,0.2-2,0.4c0-0.2-0.1-0.7,0-0.9c4.6-4.8,3.4-10.7,2.8-16.4
			c-0.8-7.4,0.2-14.6,1.8-21.9c1.3-6.1,0.4-12.6,0.7-18.9c0.2-5,0.8-10.1,1-15.1c0.5-10.3,0.6-20.7,1.3-31c0.4-6,1.6-12,2.3-18
			c0.6-5.3,0.8-10.6,1.6-15.9c0.2-1.8,1.1-3.9,2.5-5c3-2.6,1.3-4.2-1.2-5.8c1.1-1.5,1.9-2.8,3.1-4.4c-0.8-0.5-1.6-0.9-2.8-1.6
			c1-1.1,2-2.2,2-2.2c0-3.5-0.1-5.9,0-8.3c0.1-1.3,0.5-2.6,0.7-4c0.1-1.3-1.5-3.8,1.9-2.6c0.1,0,1.1-1.7,0.8-2.2
			c-3.8-8,1.9-14.8,2.7-22.2c0.5-5,3.2-9.7,0.9-15c-0.5-1.1,1.6-4.3,3.3-5.2c3.7-2,0.2-4.9,0.1-4.9c-4.8-1.5-1.1-3.9-0.6-5.7
			c1.1-3.6,2.4-7.2,3.8-10.7c0.8-2.2,1.9-4.2,2.9-6.3C867.8,1176.6,869.6,1174.4,871.4,1172.2z M1465.8,519.7c-4.1,1-6.4-0.5-9-3.8
			c-4-4.9-6.5-11.2-12.7-14.4c-6.8-3.5-13.3-6.7-20.9-2.6c-4.7,2.5-9.3,5.6-14.3,7.2c-3.5,1.1-4,4.7-6.4,5.7
			c-4.2,1.8-4.4,4.4-3.9,7.7c-2.7,4.2-5.3,8.4-6.7,13.1c-1.4,4.7-1.7,9.8-2.6,15.4c0,0,1,0.6,1.9,1.2c-4.3,5.4,2.5,13.8-4,16.9
			c1,5.7,3.4,11,2.3,15.3c-1.3,5-0.3,9.5-0.4,14.2c0,1.6,1.7,3.5,1.3,4.8c-1.8,5.5,0.1,9.9,2.8,14.4c1.1,1.8,2.3,3.6,3,5.6
			c1.3,3.9,1.7,8.2,3.4,12c2.3,5,5.9,9.5,8.2,14.5c2.1,4.7,6.8,7.1,8.8,12.3c2.2,5.8,7.5,10.4,11,14.9c6-11,11.8-21.5,18.2-33.3
			c1,2.6,1.4,3.5,1.9,4.8c5.2-8.2,10.2-16,6-25.1c3.4-1.2,5.7-2.1,8.1-3c-0.1-0.4-0.3-0.7-0.4-1.1c-1.1,0.1-2.2,0.3-3.3,0.4
			c4.4-1.4,5-4.1,2.7-7.6c6.8-4.2,10.4-17.9,5.7-21.2c1.8-0.8,3.5-1.6,5.8-2.7c-1.3-1.7-2.2-3-3-4.1c1-0.7,2.3-1.5,3.5-2.3
			c-0.2-0.3-0.3-0.6-0.5-1c-1.7,0.5-3.4,0.9-4.9,1.3c0.5-7,0.9-13.8,1.3-20.1c0.1,0,1.3,0.6,2.6,1.1c-1.3-2.7-3.4-5.1-2.9-6.8
			c0.5-2,3.3-3.5,6.2-6.2c-4.4,0.7-7.9,1.6-6.9-3.5c0.8-3.9,2.5-8-1.5-11.5c-0.5-0.5,0.2-2.4,0.3-3.6c-0.4,0.2-0.7,0.5-1.1,0.7
			c-1.3-2.1-2.5-4.2-4.4-7.4c3,0.8,4.4,1.2,6.4,1.8C1466.6,522.2,1466.2,521.1,1465.8,519.7z"/>
		<path d="M871.4,1172.2c-1.8,2.2-3.6,4.4-5.4,6.6c-0.5,0.2-1.3,0.7-1.4,0.5c-2.3-2.6-1.2-4.8,0.8-7
			C867.5,1170.1,869.3,1168.3,871.4,1172.2z"/>
		<path d="M1135.9,744.6c2.2-2.3,4.4-4.6,7.7-8c0.5,2.6,1.3,4.3,0.8,4.9c-1.8,2.1-4.1,3.7-6.2,5.6
			C1137.4,746.2,1136.6,745.4,1135.9,744.6z"/>
	</g>
</g>
<g id="COLORS" style="display:none;">
	<rect x="-2311.9" y="3137.5" width="216.2" height="216.2" style="display:inline;fill:#0185D0;"/>
	<rect x="-2095.7" y="3137.5" width="216.2" height="216.2" style="display:inline;fill:#B3D8DD;"/>
	<rect x="-2311.9" y="3365.5" width="216.2" height="216.2" style="display:inline;fill:#0070CC;"/>
	<rect x="-2095.7" y="3365.5" width="216.2" height="216.2" style="display:inline;fill:#00A1C6;"/>
	<rect x="-1879.6" y="3137.5" width="216.2" height="216.2" style="display:inline;fill:#D3E9EF;"/>
	<rect x="-2311.9" y="1840.4" width="216.2" height="216.2" style="display:inline;fill:#F26981;"/>
	<rect x="-2311.9" y="2056.6" width="216.2" height="216.2" style="display:inline;fill:#9EA09E;"/>
	<rect x="-2537.4" y="2056.6" width="216.2" height="216.2" style="display:inline;fill:#333333;"/>
	<rect x="-2537.4" y="2272.8" width="216.2" height="216.2" style="display:inline;fill:#D48F00;"/>
	<rect x="-2311.9" y="2272.8" width="216.2" height="216.2" style="display:inline;fill:#F4B321;"/>
	<rect x="-2311.9" y="2489" width="216.2" height="216.2" style="display:inline;fill:#003501;"/>
	<rect x="-2311.9" y="2921.3" width="216.2" height="216.2" style="display:inline;fill:#9B1F0F;"/>
	<rect x="-1879.6" y="2056.6" width="216.2" height="216.2" style="display:inline;fill:#E5E5E5;"/>
	<rect x="-1879.6" y="2272.8" width="216.2" height="216.2" style="display:inline;fill:#FFDA54;"/>
	<rect x="-1879.6" y="2489" width="216.2" height="216.2" style="display:inline;fill:#009B4D;"/>
	<rect x="-2311.9" y="2705.1" width="216.2" height="216.2" style="display:inline;fill:#B45116;"/>
	<rect x="-1879.6" y="2921.3" width="216.2" height="216.2" style="display:inline;fill:#F1592B;"/>
	<rect x="-2095.7" y="1840.4" width="216.2" height="216.2" style="display:inline;fill:#FEAEB6;"/>
	<rect x="-2095.7" y="2056.6" width="216.2" height="216.2" style="display:inline;fill:#DDDDDD;"/>
	<rect x="-2095.7" y="2272.8" width="216.2" height="216.2" style="display:inline;fill:#FFC52D;"/>
	<rect x="-2095.7" y="2489" width="216.2" height="216.2" style="display:inline;fill:#004901;"/>
	<rect x="-2095.7" y="2705.1" width="216.2" height="216.2" style="display:inline;fill:#D46400;"/>
	<rect x="-2095.7" y="2921.3" width="216.2" height="216.2" style="display:inline;fill:#A55C54;"/>
	<rect x="-2319.5" y="1565.7" width="245" height="286.5" style="display:inline;fill:#FFA1AF;"/>
	<g style="display:inline;">
		<path d="M2877,6217.8c-0.2-0.9-0.4-1.8-0.7-2.7c-0.5-1.4-1.6-2.9-1.4-4.2c0.1-0.7,2.3-1.2,3.8-1.9
			c-0.6-1.9-1.5-4.2-2.2-6.6c-1-3.3-1.8-6.7-2.7-10c-0.1-0.5-0.3-1.2-0.7-1.4c-1.7-0.9-1.9-2-1.4-3.9c0.5-1.8-0.1-3.3-2.5-3.6
			c-1-0.1-1.8-1.1-3-1.9c1.2-0.6,2-1,2.7-1.3c-0.1-0.2-0.2-0.5-0.3-0.7c-0.7,0.1-1.4,0.2-1.7,0.2c-2.3-5.9-4.2-11.7-7.1-17
			c-0.8-1.4-1.2-2.7-1.7-4.1c-0.5-1.5-1.6-3.4-2.9-3.8c-2.9-0.9-2.8-2.3-1.9-3.9c-1-1.7-1.6-3-2.5-4.2c-2-2.8-4.3-5.3-6.2-8.2
			c-0.9-1.3-1-3-1.4-4.3c-1.7-2.7-3.5-5.3-5-8c-0.8-1.5-0.8-3.5-1.5-5.1c-0.5-1.1-1.6-1.9-2.3-2.8c-2.3-3.1-3-7.1-4.9-10.4
			c-2.2-3.9-5-7.4-7.5-11.2c-0.8-1.2-1.6-2.5-2.7-4.2c0-0.6,0-1.9-0.3-3.2c-0.1-0.4-1.1-1-1.6-0.9c-1.8,0.1-3.7,0.6-5.5,0.8
			c-0.6,0.1-1.7-0.1-1.8-0.3c-0.5-2.5-4.6-2.3-4.1-5.5c0.1-0.4-0.5-1.1-0.8-1.2c-3.2-0.8-4-3.6-5.4-6c-0.9-1.5-2.3-2.7-3.4-4.1
			c-2.5-3.2-5-6.4-7.6-9.6c-0.3-0.3-0.6-0.6-1-0.8c-2.1-1.1-4-1.9-5.3-4.5c-1.5-3-4.9-4.9-7.4-7.4c-2.9-3-5.7-6.1-8.7-9.1
			c-0.6-0.6-1.8-0.6-3-0.9c-0.3-1.6-0.8-3.5-1.2-5.6c-0.2,0.1-1.2,0.3-2.4,0.6c-0.1-1-0.1-1.8-0.2-2.6c-3.7-0.3-4.9-3.5-6.8-5.8
			c-0.4-0.5-1-1.5-1.4-1.5c-5.5,0.3-7.5-4.7-11.1-7.4c-0.3-0.2,0.1-1.3,0.2-1.6c-2.3-0.1-4.5-0.3-7.3-0.4c1-2.8,1.8-5.1,2.9-8.3
			c0.7,1.7,1.2,2.7,1.9,4.5c0.7-1.4,1.1-2.3,1.8-3.7c0.7,1.2,1.4,2.4,2.3,3.8c1.9,0.6,5,0.1,4.4,4.4c-0.2,1.4,2,3.4,3.5,4.7
			c3,2.7,6,5.5,10.8,5.4c-0.8,0.4-1.6,0.8-2.5,1.3c2,3.3,2.6,0,4.1-1.3c1.3,2,2.5,3.9,3.7,5.8c0.9-1,1.8-2.2,3.2-3.8
			c0.7,1.7,1.1,2.7,1.4,3.6c3.1-0.6,13.2,4.1,14.8,6.8c3.4-1.2,4.6-0.2,5.9,5.5c0.9-1.1,1.6-1.9,2.1-2.5c1.6,1.4,3.4,2.9,5.2,4.4
			c-0.1,0.2-0.3,0.8-0.6,1.4c1.1,0.1,2.1,0.2,3.3,0.3c0.3,1.8,0.2,4.3,3.8,3.8c0.9-0.1,2.2,1.2,3,2.2c2.5,3.3,7.2,4.2,8.5,8.8
			c0.6,2,2.7,3.5,4.4,5.5c4.3-0.6,4.5-0.5,4,4c1,0,1.9,0,2.1,0c1.4,2.1,2.7,3.8,3.8,5.6c0.7,1.2,1.3,2.5,1.4,3.8
			c0.2,2.6,1.4,1.8,2.9,1c2.2,6.3,4.5,12.6,6.9,19.4c0.8-2.1,1.3-3.5,1.9-5c0.4,0.2,0.8,0.4,1.2,0.5c-0.5,0.9-1.5,2-1.3,2.7
			c0.5,1.8,1.3,3.5,2.4,5c0.5,0.7,1.7,0.8,2.6,1.1c0.3-0.9,0.7-1.7,1-2.7c-4.8-1.3-4.7-1.3-3.3-5.5c0.3-1,0.7-2.1,0.6-3.1
			c0-0.9-0.6-1.7-1.2-3.1c4.2,1.3,1.8,4.6,2.9,6.1c1.1,0.1,2.2-0.1,2.7,0.3c1.1,0.9,2.7,2.1,2.8,3.3c0.1,2-0.3,3.4,2.6,3.1
			c0.6-0.1,1.5,1.3,2.2,2.2c1.3,1.7,2.8,3.3,3.8,5.1c1.3,2.4,4.9,3.7,3.8,7.1c0.9,0.5,2.2,0.8,2.4,1.5c1.2,4.8,5,7.9,7.3,12
			c1,1.7,1.6,3.5,2.7,5.1c0.5,0.9,1.6,1.4,2.1,1.9c0.4,1.7,0.4,3.4,1.2,4.7c1,1.6,2.7,2.7,3.8,4.2c0.8,1.2,1,2.7,1.5,4.1
			c0.7,1.7,1.5,3.4,2.1,5.2c0.7,1.9,1.1,3.9,1.4,5.1c2.1,2.7,3.7,4.8,5.8,7.5c-0.6,2.5,0.8,5.3,3.6,6c-1.2,3.4-0.3,5.2,3.7,6.7
			c-1.1,0-1.6,0-2.4,0c0.3,1.6,0.4,3.1,0.9,4.5c0.2,0.7,0.8,1.6,1.4,1.8c3.2,1.5,3.4,1.9,0.8,4.8c1,0.4,1.9,0.8,3,1.3
			c-0.9,3.2-0.3,5.8,3.4,7.1c0.6,0.2,0.6,1.9,0.8,3c0.1,0.3-0.2,0.8,0,1c1,2.2,2.1,4.4,3.2,6.5c1.1,2.2,2.2,4.4,3.4,6.8
			c0.3-0.1,0.9-0.5,1.6-0.9c1.3,4.2,2.5,8.4,3.9,12.9c3.6,0.5,2.8,4.2,3.7,7c0.5,1.5,0.6,3.5,1.6,4.3c2.4,2,1.4,3.7,0.3,5.6
			c-0.5,0.9-1.1,1.7-1.6,2.6c0.2,0.2,0.5,0.4,0.7,0.6c0-0.8,0.1-1.7,0.1-2.5c0.6,0.4,1.2,0.8,1.7,1.2c-0.4,2.4,0.6,5-1.6,7.4
			c-0.7,0.7,0.1,2.9,0.4,4.4c1,4.3,3.8,8,4,12.6c0.2,3.4,1.7,6.8,2.6,10.2c0.2,1-0.1,2.1,0.2,3.1c1.2,3.8,2.5,7.7,3.8,11.5
			c0.3,1,0.9,1.9,1.3,2.9c0.3-0.3,0.6-0.6,0.9-1c-0.5,3.5-1,7-1.5,10.8c0.7-0.2,1.2-0.4,2-0.7c0.8,2.1,1.9,4.2-0.3,6.3
			c-0.8,0.8-1.6,1.7-2.4,2.5c-0.2-0.2-0.5-0.4-0.7-0.7c0.4-0.4,0.8-0.8,1.3-1.2c-0.1-0.3-0.3-0.6-0.4-0.9c-1.3,0.5-2.7,0.9-4,1.4
			c-1,0.3-2.4,1.4-2.8,1.1c-2.3-1.9-3.8-0.2-5.7,0.6c-2.5,1.1-5,2.1-8.1,1c-2.8-0.9-6-0.5-9-0.7c-1.2-0.1-2.3-0.5-3.4-0.7
			c-1.2-0.1-2.5-0.4-3.5,0c-2.9,1-7.2,0-9-2.3c-0.2-0.2-0.2-0.8-0.3-0.9c-6-1.7-3.8-6.3-3.7-10.2c0-1.5-1.4-3.1-1.4-4.6
			c0-1.8,0.9-3.7,1.1-5.5c0.1-0.9-0.2-2-0.4-2.9c0-0.1-0.8,0-1.2,0c0.1,0.9,0.1,1.9,0.2,2.8c-0.2,0.1-0.5,0.2-0.7,0.2
			c-0.3-0.9-0.8-1.8-0.8-2.7c0.1-3.1,0.9-3.5,3.7-2.4c0.3,0.1,1,0.1,1.1-0.1c0.2-0.4,0.3-1,0.2-1.3c-1-2-2-4-4.9-1.2
			c0.2-2.5,5.3-4.4,0.5-6.4c0.3-1.4,0.6-2.9,0.9-4.3c-0.3,0.2-0.6,0.3-0.9,0.5c0.9,1,1.8,1.9,2.8,2.9c0.2-0.3,0.5-0.6,0.7-1
			c1.2-0.7,2.3-1.4,4-2.5c-1.3-0.4-2.7-0.8-4.8-1.5c-1.4-1.3,1.9-6.3-3.5-6.3c0.8-0.2,1.7-0.4,2-0.4c-0.2-2.5-0.3-4.6-0.5-6.8
			c0-0.6,0.1-1.5-0.2-1.7c-3-1.6-2.1-4-1.5-6.4c0.2-0.9-0.4-2.9-0.8-2.9c-3.5-0.2-1-3.3-2.3-4.4c2.2-2.4-0.2-3.4-1.4-4.7
			c-0.3-0.3-0.6-0.5-1.2-1c2.7-1.9,2.3-3.4-0.5-4.7c-0.5-0.2-1.1-0.7-1.1-1.1c-0.4-3-0.3-6-2.2-8.7c-0.5-0.6,0.7-2.4,1-3.7
			c0.3-1.2,1-2.6,0.7-3.4c-0.4-0.9-1.9-1.2-3.2-1.9c0-0.2,0.1-0.7,0.2-1.3c0-0.1,0.2-0.2,0.2-0.2
			C2876.8,6217.5,2876.9,6217.6,2877,6217.8c1.2,0.1,2.3,0.1,3.5,0.2c0-1.1-0.1-2.2-0.1-3.2c0-0.8,0.1-1.7,0-2.5
			c-0.1-0.8-0.4-1.5-0.7-2.4c-3.2,2.5-1.3,4.8-0.4,7C2878.4,6217.3,2877.7,6217.5,2877,6217.8z M2773.9,6035.8
			c-0.3-1.2-0.6-2.3-0.9-3.5c-1.2,0.1-2.4,0.3-3.5,0.4c-0.1,0.3-0.2,0.6-0.3,0.9C2770.8,6034.3,2772.4,6035,2773.9,6035.8
			c0.2,0.6,0.2,1.5,0.6,1.9c2.1,2,4.3,4,6.6,5.8c2.4,1.9,4.1,1.2,5-1.9c-3.3,1.7-7,0.3-7.9-3.4
			C2777.5,6035.4,2776.1,6035.2,2773.9,6035.8z M2906.2,6277.7c-1.2,0.6-2.2,0.8-2.7,1.4c-1.7,2-2.6,4.3-0.7,6.8
			c-0.9,0.7-1.6,1.3-2.4,1.9c0.3-0.1,0.7-0.2,1-0.3c1.1,1.5,2.2,2.9,3.2,4.4c1,1.6,1.9,3.3,3.1,5.3c0.4-2.2,0.7-3.8,1-5.6
			C2904.8,6289.6,2904.4,6285,2906.2,6277.7z M2895.6,6249.2c-2.9-3.3-1.1-9.1-6-11c-1.2,0.9-2.2,1.7-2.5,1.9
			c1.2,3.2,2.4,6.1,3.5,8.9C2891.4,6248.3,2891.5,6248.3,2895.6,6249.2z M2893.4,6285.9c-0.1,0.3-0.3,0.7-0.2,0.9
			c1,2,1.9,3.9,0.7,6.2c-0.2,0.3,1,1.7,1.8,2.1c0.5,0.2,1.8-0.3,2.1-0.8c0.3-0.6,0-1.7-0.3-2.4c-0.3-0.7-1.1-1.3-1.6-1.9
			C2898.3,6286.8,2898.3,6286.8,2893.4,6285.9z M2873.2,6168.8c1.3-3.1,2.4-5.9,3.5-8.7c-0.3-0.1-0.6-0.3-0.9-0.4
			c-1.9,0.9-3.7,1.8-5.6,2.6C2875,6163,2870.6,6167.3,2873.2,6168.8z M2894,6259.2c-1.5,5.1,3,7.5,3,9.5
			C2895.7,6267.1,2897.5,6262.7,2894,6259.2z M2878.3,6168.1c-0.3,0.1-0.7,0.2-1,0.4c-0.3,2.5,1.4,4.5,2.8,6.4c0.5,0.7,1.9,0.7,3,1
			C2881.2,6172.9,2879.8,6170.5,2878.3,6168.1z M2815.8,6077.2c0-0.3,0-0.5-0.1-0.8c0.8,0.1,1.6,0.1,2.2,0.4c0.9,0.5,1.7,1.3,2.5,2
			c0.4-0.4,0.7-0.8,1.1-1.3c-1.3-1-2.5-2.4-3.9-2.9c-0.8-0.2-3,1.2-3,1.8c0.1,1.2,1.2,2.4,1.9,3.6c0.4-0.3,0.8-0.6,1.2-0.9
			C2817.1,6078.5,2816.4,6077.8,2815.8,6077.2z M2796.6,6060.5c-0.4,0.5-0.9,0.9-1.3,1.4c1.9,1.8,3.9,3.5,5.8,5.3
			c0.3-0.3,0.6-0.6,1-1C2800.3,6064.2,2798.4,6062.4,2796.6,6060.5z M2905.5,6301.3c0.3-0.1,0.5-0.3,0.8-0.4
			c-0.7-1.7-1.2-3.6-2.2-5.2c-0.2-0.3-1.9,0.3-2.8,0.5C2903,6298.1,2904.2,6299.7,2905.5,6301.3z M2813.3,6085.6
			c-0.8-1.9-1.6-3.6-2.5-5.9c-0.4,0.7-1.4,1.8-1.2,2.2C2810.5,6083.3,2809.6,6086.5,2813.3,6085.6z M2870.5,6152.5
			c-0.4,0.2-0.7,0.4-1.1,0.6c1.3,2.3,2.6,4.5,3.9,6.8c0.4-0.3,0.9-0.5,1.3-0.8C2873.3,6156.9,2871.9,6154.7,2870.5,6152.5z
			 M2812.1,6071.2c-0.3-0.1-0.6-0.2-0.9-0.3c-0.4,1.2-0.9,2.3-1.3,3.5c1.1,0.2,2.2,0.3,3.9,0.6
			C2812.9,6073.1,2812.5,6072.2,2812.1,6071.2z M2882.9,6224.4c-0.4,0-0.7,0-1.1,0c-0.2,0.9-0.9,2.3-0.6,2.7c0.7,0.8,2,1,3,1.5
			c0.1-0.2,0.3-0.4,0.4-0.6C2884.1,6226.7,2883.5,6225.5,2882.9,6224.4z M2818.5,6079.5c0.8,1.1,1.7,2.2,2.8,3.8
			c0.7-1.4,1.3-2.6,1.9-3.8C2821.3,6079.5,2820,6079.5,2818.5,6079.5z" style="fill:#FFFFFF;"/>
		<path d="M2716.4,6003.2c1.9-2,3.4-3.6,5.2-5.5c0.9,2.5,1.1,4.7,2.4,5.7c0.8,0.7,3.1-0.5,4.8-0.8
			c0.7,1.5,1.2,2.7,1.7,3.7c1.4-0.4,2.8-0.7,4.3-1.2c-0.5,2.4-0.8,3.9-1.2,5.7c-0.6,0.1-1.4,0.3-2,0.5c-0.2-3.9-5.3-1.6-5.9-4.7
			c-2.2,1.2-4.3,2.4-5.9-0.9C2719.4,6004.7,2718,6004.3,2716.4,6003.2z" style="fill:#FFFFFF;"/>
		<path d="M2717.9,5999.6c-1.8-0.4-3.2-0.6-4.5-0.9c-0.3,0.3-0.5,0.6-0.8,0.8c0.8,1.1,1.6,2.2,2.4,3.4
			c0.4-0.3,0.9-0.5,1.3-0.8c-1.6,0.3-3.2,0.5-4.5,0.7c-0.2-1.2-0.3-2.3-0.5-3.3c-1,0.3-2,0.6-3.1,1c-1.2-1.5-0.5-5.5,1.5-6.4
			c0.4-0.2,1.3,0,1.4,0.2c1.1,2.6,3.8,2.5,5.9,3.5C2717.5,5998.2,2717.7,5999.2,2717.9,5999.6z" style="fill:#FFFFFF;"/>
		<path d="M2695.6,5993.5c0.7-1.4,1.3-2.8,2-4.3c4.4-0.1,1,3.3,2,5c0.9-0.6,1.8-1.2,2.8-1.8c0.1,0.9,0.2,1.8,0.3,2.9
			c1.1,0,2,0,3.1,0c-0.2,1-0.3,2-0.4,2.8C2701.6,5998.3,2699.4,5997.2,2695.6,5993.5z" style="fill:#FFFFFF;"/>
		<path d="M2682.8,5987.3c-1.7-1-3.2-1.9-4.7-2.8C2680.2,5983.1,2682.4,5984.3,2682.8,5987.3z" style="fill:#FFFFFF;"/>
	</g>
	<g style="display:inline;">
		<circle cx="5016.7" cy="6637" r="783.2" style="fill:none;stroke:#000000;stroke-width:50;stroke-linecap:round;stroke-linejoin:round;stroke-dasharray:0,136.71;"/>
	</g>
</g>
</svg>
