<?xml version="1.0" encoding="utf-8"?>
<!-- Generator: Adobe Illustrator 21.0.0, SVG Export Plug-In . SVG Version: 6.00 Build 0)  -->
<svg version="1.1" xmlns="http://www.w3.org/2000/svg" xmlns:xlink="http://www.w3.org/1999/xlink" x="0px" y="0px" viewBox="0 0 2661.5 3116.8" style="enable-background:new 0 0 2661.5 3116.8;" xml:space="preserve">

<g>
	<path d="M1585.1,1624.7c95.4-17,206.6-4.8,266.3,89c36.1,56.7,45.8,133,42.9,205.1c-6.1,151-62.9,295.9-148.6,403.6
		c-85.6,107.8-198.6,179.4-317.4,214.2c-71.4,20.9-144.8,29-217.9,36.9c-93,10.1-189.7,19.3-276.9-21.8
		c-32.1-15.1-63-37.8-82.9-72.4c-17.8-30.9-25.6-69-30.2-106.6c-25.4-204.3,51.2-351.8,186-448
		C1186.3,1796.3,1376.5,1661.9,1585.1,1624.7z" style="fill:#009B4D;"/>
	<g>
		<path d="M871.1,1380.7c2.8,0,5.7,0,8.5,0c6.8,0.1,13.6,0.2,20.4,0.1c1.9,0,3.9-0.8,5.8-1.5c4.4-1.7,8.8-3.6,13.2-5.3
			c0.9-0.3,2-0.5,2.9-0.2c13.3,4.3,27.6,5.3,40.3,11.8c25.5,13.1,50.9,26.6,76.4,39.7c19.7,10.1,37.7,22.8,56,35
			c4.6,3,9.4,5.6,14,8.6c25,16.4,48.8,34.2,70.9,54.2c8.3,7.5,16.5,15.2,24.7,22.9c0.9,0.8,1.9,1.5,2.9,2.1c3.4,2.1,7.1,1.5,9.2-1.6
			c2-2.9,1.2-6.4-1.7-8.9c-6.5-5.7-13.2-11.2-19.4-17.1c-17.1-16.5-35.2-31.6-54.8-45c-8.4-5.7-16.4-11.9-24.9-17.4
			c-19.1-12.4-38-25.1-57.6-36.6c-27.3-16-55.2-31-83.9-44.4c-4.7-2.2-9.4-4.6-14-7.6c4.1,0,8.3-0.3,12.4,0.1
			c7,0.6,13.9,1.5,20.9,2.4c9.4,1.3,18.7,2.8,27.8,5.6c10.4,3.1,21.2,4.8,31.7,7.6c6.8,1.8,13.4,4.6,20.1,7.1
			c3.9,1.4,7.9,2.9,11.7,4.6c3,1.3,5.7,2.9,8.7,4.3c10.2,4.8,20.9,8.9,30.7,14.4c8.8,5,17.9,9.6,25.6,16.8
			c6.8,6.4,14.9,11.4,21.9,17.6c7.2,6.3,13.9,13.2,20.7,19.9c5,5,10.1,10,14.8,15.3c6.3,7.1,12.6,14.2,18.2,21.8
			c2.7,3.6,3.8,8.3,5.7,12.8c-1.1,0.3-1.6,0.4-2.1,0.5c-3.6,0.9-5.5,3.1-5.5,6.2c0,3.1,1.9,5.8,5.2,6.6c14.7,3.5,29.5,5.7,44.6,4.8
			c10.5-0.6,21-2.5,31.5-3.9c4.8-0.7,7.1-3.6,6.5-7.6c-0.6-3.7-3.7-5.6-8.4-5c-9.4,1.2-18.8,3.1-28.2,3.5
			c-8.9,0.4-17.9-0.7-26.8-1.4c-1-0.1-2.2-1.6-2.7-2.7c-2.9-7.1-5.8-14.2-8.5-21.4c-1.5-3.9-2.4-8-3.8-11.9
			c-3.3-9.1-5.9-18.7-10.4-27.1c-5.3-9.8-12.5-18.2-22.5-24.4c-6.9-4.3-12.2-10.5-13.9-20c-1.7-9.4,1.6-16.3,6.2-23.2
			c2.3-3.4,6.2-6,9.6-8.5c8.8-6.3,18.5-8.4,29.3-7.4c10,1,18.6,5.5,27.3,9.6c9.1,4.3,18.1,9.1,26.6,14.5c4.1,2.5,7.2,6.8,10.5,10.4
			c4.8,5.1,9.5,10.3,13.9,15.7c2.9,3.6,5.6,7.4,7.8,11.5c4,7.4,7.3,15.1,11.2,22.6c3,5.7,6.5,11.1,9.9,16.7
			c3.5,5.7,7.3,11.2,10.5,17.1c4.2,7.7,9.5,14.5,15.4,21c2.9,3.2,5.7,6.5,8.2,10c3.5,5,8,8.4,13.6,11c5.8,2.7,11.1,6.6,16.7,9.8
			c12.4,7,25.1,13.4,39.4,15.7c7.6,1.2,15.2,2.9,22.9,3.9c4,0.5,8.2,0.2,12.3,0.2c1.4,0,2.8,0,4.3,0.8c-1,0.4-2,1-3,1.3
			c-16.4,4.6-32.8,9.4-49.3,13.5c-12.8,3.2-25.7,5.9-38.7,7.8c-19,2.8-38.1,3.4-57.2,1.2c-4.1-0.5-8.2-0.4-12.3-0.6
			c-3.9-0.1-6.7,2.1-7.1,5.6c-0.4,3.7,1.9,6.8,6,7c18.7,0.8,37.4,3,56.3,1.2c34.9-3.4,68.8-11.6,102-22.2
			c15.2-4.8,29.9-11.3,43.3-20.2c8.8-5.8,17.5-11.8,25.9-18.2c4.8-3.7,9-8.3,13.2-12.8c4.3-4.5,8.7-9.1,12.5-14
			c5.3-7,10.5-14.2,15.2-21.6c6.3-9.9,11.6-20.4,18.2-30.1c8.7-12.7,18.4-24.7,29.6-35.4c4.6-4.5,8.6-9.6,13-14.3
			c5.3-5.7,11.4-10.6,18.2-14.3c7.1-3.8,14.4-7.4,21.8-10.6c3.7-1.6,7.9-2.2,11.8-3.3c4.4-1.2,8.7-2.5,13.1-3.6
			c3.5-0.9,7.2-1.3,10.7-2.2c12.1-3.3,24.6-2.6,36.9-3.5c6.1-0.4,12.2-1.5,18.3-1.6c10.3-0.1,20.7,0.1,31,0.6c5,0.2,10.1,1,15,1.9
			c3.6,0.7,7,2,10.5,3.2c7.5,2.6,14.6,6.3,19.8,12.3c5.1,6,9.2,12.5,9.5,21.3c0.4,10.1-2.6,18.3-9.6,24.9c-3.1,2.9-7.7,4.3-11.6,6.2
			c-11.2,5.4-22.3,10.8-33.6,16c-4.4,2-9.1,3.2-13.6,5c-2.3,0.9-4.6,2-6.7,3.2c-15.8,8.9-29.5,20.7-42.5,33.2
			c-3.2,3.1-6.7,5.8-10.1,8.6c-0.4,0.3-0.9,0.6-1.2,1c-9.4,11.2-18.9,22.2-21.6,37.3c-1.9,10.8-5.1,21.4-6.9,32.2
			c-1.4,8.4-1.7,16.9-2.3,25.4c-0.5,6.6-1,13.1-1,19.7c0.1,15.6,0.1,31.3,0.9,46.9c0.4,7.8,3.8,15.2,7.1,22.4
			c6.3,13.7,12.4,27.5,18,41.5c3.8,9.5,6.7,19.3,9.5,29.1c1.1,3.8,1.1,7.9,1.1,11.9c0,9.1,0.3,18.2-0.6,27.1c-1,9.5-3.5,18.8-5,28.3
			c-0.9,5.6-1.5,11.4-1.6,17c-0.2,12-0.3,23.9,0.1,35.9c0.3,8.9,0.8,17.9,2.1,26.7c0.8,5.4,3.3,10.5,4.8,15.7
			c2.1,7.1,3.9,14.3,6.1,21.4c1.9,6,4.3,11.9,6.6,18.1c-2.4,1.2-4.5,2.2-6.5,3.4c-11.8,7-23.5,14.1-35.4,20.9
			c-6.5,3.7-13.3,7.1-20.1,10.3c-6.2,2.9-12.6,5.5-19.1,8c-6.8,2.6-13.8,4.9-20.7,7.3c-8.5,2.9-17.2,5.6-25,10.3
			c-4.9,2.9-10.4,4.8-15.4,7.4c-13.3,7-26.5,14-39.6,21.3c-3.2,1.8-5.7,2-8.6,0c-7-4.9-14-9.6-21-14.5c-5.6-4-11.3-8-16.8-12.1
			c-8-5.9-15.8-11.9-23.8-17.8c-7.1-5.3-14.3-10.4-21.3-15.8c-6.1-4.6-12.1-9.4-18-14.2c-4.9-4-9.8-8.1-14.5-12.4
			c-5.3-4.9-10.4-10-15.7-14.9c-6.7-6.4-13.5-12.6-20.3-19c-5-4.7-9.9-9.6-14.9-14.4c-8.8-8.6-17.6-17.1-26.3-25.8
			c-4.7-4.6-9-9.6-13.7-14.2c-6.4-6.3-12.8-12.5-19.4-18.5c-7-6.3-14.1-12.4-21.5-18.2c-9.6-7.5-19.4-14.7-29.2-22
			c-7.8-5.8-15.7-11.3-23.6-17c-7.5-5.4-15.1-10.7-22.6-16.1c-7.3-5.2-14.5-10.5-21.6-15.9c-6.1-4.6-12.3-9-18.3-13.9
			c-4.8-3.9-9.2-8.4-13.9-12.6c-5.6-4.9-11.4-9.6-16.8-14.6c-5.1-4.7-10-9.8-14.9-14.8c-6.6-6.7-13.3-13.5-19.8-20.4
			c-4.6-4.8-9-9.9-13.5-14.8c-6.5-7.1-12.9-14.2-19.3-21.3c-6.6-7.2-13-14.7-19.9-21.6c-8-8-16.2-15.7-24.6-23.3
			c-6.7-6.1-13.7-11.8-20.7-17.5c-8.7-7.1-17.8-13.5-28.1-18.3c-7.1-3.3-13.5-8-20.1-12.2c-7.2-4.6-14.1-9.5-21.4-14
			c-8.3-5.2-16.8-10.1-25.3-15.1c-6.4-3.7-13.2-6.9-19.4-10.9c-16.3-10.4-32.4-21.1-48.5-31.7c-24.9-16.4-50.4-31.8-77.7-44
			c-12.7-5.6-25.7-10.7-38.5-16.1c-2-0.8-3.9-1.8-5.9-2.7c-9.8-4.9-15.4-16.5-13.1-27.3c0.3-1.2,1.1-2.3,1.9-3.3
			c6.7-8.6,14.7-15.5,25.6-17.9c10-2.2,19.9-4.7,30.1-5.8c12-1.3,24.1-1.3,36.1-1.7c2.3-0.1,4.8,0.4,6.9,1.3
			c11.6,4.8,23.1,9.7,34.6,14.7c13.1,5.7,26.1,11.4,39.1,17.2c9.6,4.3,18.9,9,28.6,12.9c19.4,8,38.5,16.6,56.8,26.8
			c9,5.1,17.8,10.6,26.7,15.8c3.8,2.3,7.7,4.3,11.5,6.7c7.3,4.6,14.7,9.1,21.8,14c14.6,10.2,29.2,20.5,43.4,31.2
			c8.2,6.2,15.6,13.2,23.5,19.8c6.4,5.4,13,10.7,19.4,16.2c5.3,4.5,10.4,9,15.5,13.7c3.3,3.1,6.9,3.7,9.8,1.2
			c2.9-2.6,3.1-6.8-0.4-10c-8.2-7.4-16.6-14.4-25-21.6c-2.4-2-5-3.8-7.3-5.9c-17-16-35.6-30.1-54.9-43.3
			c-8.9-6.1-17.6-12.5-26.4-18.8c-0.9-0.6-1.7-1.3-2.7-1.8c-17.8-10.4-35.6-20.8-53.5-31c-8.3-4.7-16.8-9-25.4-13
			c-11.8-5.4-23.8-10.3-35.7-15.4c-3.6-1.6-6.9-3.6-10.5-5.1c-18.3-8.1-36.6-16-54.8-24.1c-1-0.5-2.1-1-3.1-1.5
			C871,1381.2,871.1,1380.9,871.1,1380.7z M1712.7,1460.2c-5.1,0-8.1,3.2-7.7,7c0.3,3,2.3,4.8,5,5.7c10.4,3.7,19.8,9,26.2,18.5
			c0.4,0.5,0.8,1,1.3,1.4c2.8,2.6,6.5,2.8,9,0.5c2.6-2.3,2.8-6.1,0.4-9c-6.5-8-13.2-15.7-23.3-19.4
			C1719.7,1463.3,1715.6,1461.4,1712.7,1460.2z M1709.7,1484.9c-3.3,0-6,2-6.6,5.1c-0.6,3.1,1,6,4,7.3c2.7,1.1,5.3,2.2,7.9,3.4
			c3,1.3,6.3,0.6,8.1-1.9c1.8-2.5,1.7-6.1-0.7-8.2C1718.8,1487.2,1714.7,1485.1,1709.7,1484.9z" style="fill:#FFA1AF;"/>
	</g>
	<g>
		<g>
			<path d="M1518.1,2181.6c-8.2-19.4-16.4-38.7-24.6-58.1c-6.8-16.1-13.6-32.2-20.3-48.3c-1.8-4.3-1.3-5.9,2.9-8.1
				c1.5-0.8,3.2-1.4,4.7-2.1c104.5-45.5,209.1-91,313.6-136.5c1.1-0.5,2.2-0.9,3.5-1.5c17.5,37.1,34.9,74.1,52.5,111.3
				c-1.8,0.8-3.4,1.6-5.1,2.3c-107.6,46.3-215.2,92.6-322.8,138.9c-1.3,0.5-2.5,1.3-3.7,1.9
				C1518.6,2181.6,1518.4,2181.6,1518.1,2181.6z" style="fill:#FFFFFF;"/>
		</g>
	</g>
	<g>
		<path d="M2151.7,2486.1c-162.4,71.8-324.5,143.4-486.8,215.1c-80.4-183.4-160.6-366.5-241-549.9
			c1.2-0.5,2.2-1,3.3-1.5c145.9-60.8,291.7-121.5,437.6-182.2c4-1.6,6.1-0.9,8.2,2.8c92.5,171,184.9,342.1,277.4,513.1
			C2150.7,2484.2,2151.1,2485,2151.7,2486.1z" style="fill:#333333;"/>
	</g>
	<g>
		<path d="M1321.6,539.6c-18,0-35.8,0-53.6,0c0-35.8,0-71.7,0-107.6c17.9,0,35.8,0,53.6,0
			C1321.6,467.9,1321.6,503.8,1321.6,539.6z" style="fill:#0070CC;"/>
	</g>
	<g>
		<path d="M1282.2,395.7c8.4,0,16.9,0,25.3,0c0.9,0.2,1.9,0.4,2.8,0.5c8.9,0.9,17.8,1.5,26.6,2.8
			c13,1.9,25.8,5.1,37.7,10.9c6.8,3.3,12.8,7.5,15.8,14.9c0,1.7,0,3.5,0,5.2c-1.8,4.4-4.7,8-8.6,10.6c-2.8,1.8-5.6,3.6-8.7,5
			c-14.4,6.8-29.8,9.7-45.5,11.6c-6.5,0.8-13,1.3-19.6,2c-8.9,0-17.7,0-26.6,0c-0.8-0.2-1.7-0.4-2.5-0.5c-8.8-0.9-17.6-1.5-26.3-2.8
			c-13.3-1.9-26.2-5.2-38.3-11.2c-6.5-3.3-12.3-7.5-15.2-14.6c0-1.7,0-3.5,0-5.2c1.8-4.4,4.7-8,8.6-10.6c2.8-1.8,5.6-3.6,8.6-5
			c14.4-6.8,29.8-9.7,45.5-11.6C1268.7,396.8,1275.4,396.4,1282.2,395.7z" style="fill:#00A1C6;"/>
	</g>
	<g>
		<path d="M2044.5,1304.5c0,14.5,0,28.9,0,43.4c-499.8,0-999.6,0-1499.4,0c0-14.5,0-29,0-43.4c0.2-1.5,0.5-3,0.5-4.5
			c1.3-46.1,6.2-91.7,14.6-137c12.6-67.9,32.6-133.6,60.8-196.7c51.6-115.4,124.5-214.8,221.6-296C919.6,606,1006,559,1102.3,530.8
			c50-14.7,101-23.4,153.1-26.3c6.1-0.3,12.2-0.8,18.4-1.2c14,0,28.1,0,42.1,0c1.2,0.2,2.3,0.5,3.5,0.5c29.5,0.9,58.8,3.9,87.9,8.7
			c49.5,8.2,97.7,21.6,144.2,40.5c115.8,46.8,212.8,119.4,293.1,214.6c71.5,84.7,123.2,180.4,157.2,285.7
			c15.1,46.8,26.1,94.6,33.2,143.2c4.1,28.1,6.9,56.3,8.3,84.7C2043.6,1289.1,2044.1,1296.8,2044.5,1304.5z" style="fill:#B3D8DD;"/>
	</g>
	<path d="M2109.2,1386.9c-541.5,0-1082.9,0-1624.3,0c0-24.4,0-48.8,0-73.2c541.4,0,1082.8,0,1624.3,0
		C2109.2,1338,2109.2,1362.5,2109.2,1386.9z" style="fill:#00A1C6;"/>
	<g>
		<g>
			<g>
				<path d="M1731.1,1004.9l-0.2-0.8c-3.8-13.5,4.1-27.6,17.6-31.3c13.5-3.8,27.6,4.1,31.3,17.6l0.2,0.8
					c3.8,13.5-4.1,27.6-17.6,31.3C1749,1026.4,1734.9,1018.5,1731.1,1004.9z" style="fill:#F1592B;"/>
			</g>
			<g>
				<path d="M1704,907.8l-0.2-0.8c-3.8-13.5,4.1-27.6,17.6-31.3c13.5-3.8,27.6,4.1,31.3,17.6l0.2,0.8
					c3.8,13.5-4.1,27.6-17.6,31.3C1721.8,929.2,1707.8,921.3,1704,907.8z" style="fill:#F1592B;"/>
			</g>
			<g>
				<path d="M1676.8,810.6l-0.2-0.8c-3.8-13.5,4.1-27.6,17.6-31.3c13.5-3.8,27.6,4.1,31.3,17.6l0.2,0.8
					c3.8,13.5-4.1,27.6-17.6,31.3C1694.6,832.1,1680.6,824.2,1676.8,810.6z" style="fill:#F1592B;"/>
			</g>
			<g>
				<path d="M1637.3,1031.2l-0.2-0.8c-3.8-13.5,4.1-27.6,17.6-31.3c13.5-3.8,27.6,4.1,31.3,17.6l0.2,0.8
					c3.8,13.5-4.1,27.6-17.6,31.3C1655.1,1052.6,1641,1044.7,1637.3,1031.2z" style="fill:#F1592B;"/>
			</g>
			<g>
				<path d="M1610.1,934l-0.2-0.8c-3.8-13.5,4.1-27.6,17.6-31.3c13.5-3.8,27.6,4.1,31.3,17.6l0.2,0.8
					c3.8,13.5-4.1,27.6-17.6,31.3C1627.9,955.5,1613.9,947.6,1610.1,934z" style="fill:#F1592B;"/>
			</g>
			<g>
				<path d="M1582.9,836.9l-0.2-0.8c-3.8-13.5,4.1-27.6,17.6-31.3c13.5-3.8,27.6,4.1,31.3,17.6l0.2,0.8
					c3.8,13.5-4.1,27.6-17.6,31.3C1600.7,858.3,1586.7,850.4,1582.9,836.9z" style="fill:#F1592B;"/>
			</g>
			<g>
				<path d="M1543.4,1057.5l-0.2-0.8c-3.8-13.5,4.1-27.6,17.6-31.3c13.5-3.8,27.6,4.1,31.3,17.6l0.2,0.8
					c3.8,13.5-4.1,27.6-17.6,31.3C1561.2,1078.9,1547.2,1071,1543.4,1057.5z" style="fill:#F1592B;"/>
			</g>
			<g>
				<path d="M1516.2,960.3l-0.2-0.8c-3.8-13.5,4.1-27.6,17.6-31.3c13.5-3.8,27.6,4.1,31.3,17.6l0.2,0.8
					c3.8,13.5-4.1,27.6-17.6,31.3C1534,981.7,1520,973.8,1516.2,960.3z" style="fill:#F1592B;"/>
			</g>
			<g>
				<path d="M1489,863.2l-0.2-0.8c-3.8-13.5,4.1-27.6,17.6-31.3c13.5-3.8,27.6,4.1,31.3,17.6l0.2,0.8
					c3.8,13.5-4.1,27.6-17.6,31.3C1506.8,884.6,1492.8,876.7,1489,863.2z" style="fill:#F1592B;"/>
			</g>
			<g>
				<path d="M1918.9,952.4l-0.2-0.8c-3.8-13.5,4.1-27.6,17.6-31.3c13.5-3.8,27.6,4.1,31.3,17.6l0.2,0.8
					c3.8,13.5-4.1,27.6-17.6,31.3C1936.7,973.8,1922.7,965.9,1918.9,952.4z" style="fill:#F1592B;"/>
			</g>
			<g>
				<path d="M1891.7,855.3l-0.2-0.8c-3.8-13.5,4.1-27.6,17.6-31.3c13.5-3.8,27.6,4.1,31.3,17.6l0.2,0.8
					c3.8,13.5-4.1,27.6-17.6,31.3C1909.6,876.7,1895.5,868.8,1891.7,855.3z" style="fill:#F1592B;"/>
			</g>
			<g>
				<path d="M1864.6,758.1l-0.2-0.8c-3.8-13.5,4.1-27.6,17.6-31.3c13.5-3.8,27.6,4.1,31.3,17.6l0.2,0.8
					c3.8,13.5-4.1,27.6-17.6,31.3C1882.4,779.5,1868.4,771.6,1864.6,758.1z" style="fill:#F1592B;"/>
			</g>
			<g>
				<path d="M1825,978.7l-0.2-0.8c-3.8-13.5,4.1-27.6,17.6-31.3c13.5-3.8,27.6,4.1,31.3,17.6l0.2,0.8
					c3.8,13.5-4.1,27.6-17.6,31.3C1842.9,1000.1,1828.8,992.2,1825,978.7z" style="fill:#F1592B;"/>
			</g>
			<g>
				<path d="M1797.9,881.5l-0.2-0.8c-3.8-13.5,4.1-27.6,17.6-31.3c13.5-3.8,27.6,4.1,31.3,17.6l0.2,0.8
					c3.8,13.5-4.1,27.6-17.6,31.3C1815.7,902.9,1801.6,895,1797.9,881.5z" style="fill:#F1592B;"/>
			</g>
			<g>
				<path d="M1770.7,784.4l-0.2-0.8c-3.8-13.5,4.1-27.6,17.6-31.3c13.5-3.8,27.6,4.1,31.3,17.6l0.2,0.8
					c3.8,13.5-4.1,27.6-17.6,31.3C1788.5,805.8,1774.5,797.9,1770.7,784.4z" style="fill:#F1592B;"/>
			</g>
			<g>
				<path d="M2106.7,899.9l-0.2-0.8c-3.8-13.5,4.1-27.6,17.6-31.3c13.5-3.8,27.6,4.1,31.3,17.6l0.2,0.8
					c3.8,13.5-4.1,27.6-17.6,31.3C2124.5,921.3,2110.5,913.4,2106.7,899.9z" style="fill:#F1592B;"/>
			</g>
			<g>
				<path d="M2079.5,802.7l-0.2-0.8c-3.8-13.5,4.1-27.6,17.6-31.3c13.5-3.8,27.6,4.1,31.3,17.6l0.2,0.8
					c3.8,13.5-4.1,27.6-17.6,31.3S2083.3,816.3,2079.5,802.7z" style="fill:#F1592B;"/>
			</g>
			<g>
				<path d="M2052.3,705.6l-0.2-0.8c-3.8-13.5,4.1-27.6,17.6-31.3c13.5-3.8,27.6,4.1,31.3,17.6l0.2,0.8
					c3.8,13.5-4.1,27.6-17.6,31.3C2070.2,727,2056.1,719.1,2052.3,705.6z" style="fill:#F1592B;"/>
			</g>
			<g>
				<path d="M2012.8,926.1l-0.2-0.8c-3.8-13.5,4.1-27.6,17.6-31.3c13.5-3.8,27.6,4.1,31.3,17.6l0.2,0.8
					c3.8,13.5-4.1,27.6-17.6,31.3C2030.6,947.6,2016.6,939.7,2012.8,926.1z" style="fill:#F1592B;"/>
			</g>
			<g>
				<path d="M1985.6,829l-0.2-0.8c-3.8-13.5,4.1-27.6,17.6-31.3c13.5-3.8,27.6,4.1,31.3,17.6l0.2,0.8
					c3.8,13.5-4.1,27.6-17.6,31.3C2003.4,850.4,1989.4,842.5,1985.6,829z" style="fill:#F1592B;"/>
			</g>
			<g>
				<path d="M1958.5,731.8l-0.2-0.8c-3.8-13.5,4.1-27.6,17.6-31.3c13.5-3.8,27.6,4.1,31.3,17.6l0.2,0.8
					c3.8,13.5-4.1,27.6-17.6,31.3C1976.3,753.3,1962.2,745.4,1958.5,731.8z" style="fill:#F1592B;"/>
			</g>
		</g>
	</g>
	<g>
		<path d="M717.6,1207.3c0,0.5-0.1,1.5-0.1,1.5c3.8,0.7,1.4,3.5,1.7,5.3c0.3,1.6,0.5,3.2,0.6,4.9
			c0.1,4.7-0.4,9.2-2.5,13.5c-0.3,0.7,0.2,2,0.6,2.9c1.1,2.5,0.2,4.5-2.4,5.3c-3.5,1.1-6.9,2.4-10.4,3.4c-0.7,0.2-1.6,0.8-2.7-0.7
			c-1.2-1.7-4.1-2.3-6.4-0.4c-0.7-0.7-1.4-1.3-2.1-1.9c-1.1,1.3-2,2.4-3.2,3.9c-1.4-3.7-4.5-2.5-6-1.6c-2.5,1.4-4.9,0.3-7.2,0.6
			c-1.5,0.2-3.1-0.2-4.7-0.1c-2.3,0-4.5-3.6-6.7,0.6c-0.1,0.3-1,0.5-1.2,0.3c-3-2.7-6,0-9-0.1c-1.8,0-3.6-0.7-5.4-1.1
			c-2.5-0.5-2.6-0.4-3.5,2.2c-3.5-0.5-7.1-1.1-11.6-1.8c0.2-5.5,0.5-11.9,0.8-18.5c-0.2,0-0.8-0.1-0.9-0.2c0.3-2.2,0.3-4.3,0.9-6.2
			c0.9-3,2.1-5.8,3.3-8.7c0.5-1.2,1.8-2.8-1.7-2.9c0.9-0.6,2.1-1,2.5-1.9c1-1.8,1.9-3.7,2.2-5.6c0.3-2.2-0.1-4.6-0.2-6.9
			c0-0.4,0-1,0.2-1.2c4.2-4.2,3-9.3,2.4-14.3c0-0.4,0.1-0.9,0.3-1.3c0.2-0.3,1-0.7,0.9-0.8c-1.6-3.6,3.3-5.7,2.2-8.6
			c-0.9-2.5,0.6-3.6,1.4-5.2c-0.5-0.5-1-0.9-1.2-1.1c0.8-1.4,1.7-2.5,2.2-3.7c0.3-0.6,0-1.5,0-2.2c0-0.8-0.3-2,0.1-2.4
			c0.9-0.9,2-0.9,2.1,0.9c0,0.1,0.9,0.1,1.1,0.1c-0.9-2-2.2-3.9-2.6-6c-0.2-0.8,1.3-2.7,2.1-2.8c2.2-0.3,2.8-1.6,3.3-3.3
			c1.4-4.6,2.9-9.2,4.2-13.9c0.2-0.7-0.5-1.7-0.7-2.5c-0.3,0.1-0.6,0.1-0.9,0.2c1.4-3.6,2.7-7.1,4.1-10.6c0-0.1,0.2-0.2,0.2-0.3
			c-0.6-3.4,0.2-6.4,2.5-9c-2.5-4.7,1.7-8.4,2.5-12.5c0.9-4.8,3.9-9.3,6-13.9c0.4-1,0.6-2.1,1.1-3c0.5-0.8,1.2-1.5,2.4-3
			c0.6-2.6,0.5-7,2.6-9.7c3.6-4.8,2.6-11.4,7.4-15.6c0.5-0.5-0.3-2.5-0.6-4c1-1.4,2.2-3.2,3.7-5.3c0.1,0,0.7,0.2,1.3,0.4
			c0.5-1.7,0.9-3.2,1.3-4.7c0.3,0,0.7,0.1,1,0.1c-0.4-0.6-0.8-1.2-1-1.5c2.7-2.8,4.4-5.9,5.2-9.6c0.2-1.3,0.4-2.6,0.7-3.9
			c0.1-0.3,0.3-0.8,0.6-0.9c1.8-0.9,2.5-2.3,2.6-4.3c0-0.5,1.3-1,1.6-1.3c0.8-2.3,1.6-4.5,2.4-6.8c-0.4-0.2-1.1-0.5-2.3-1
			c1.1-0.5,1.7-0.8,2.3-1.1c-0.4-0.5-0.7-0.9-0.8-1.1c1.7-1.1,3.2-2.1,4.9-3.2c-1.5-2.2-2.1-4,0.6-5.1c-1.1-3.7,4.2-4.1,3.9-7.4
			c0,0,0.7-0.1,1.4-0.2c-1-0.8-1.7-1.3-2.3-1.7c1.6-3.4,3.1-6.7,4.7-10c0.9,0.6,2.2,2.1,2.5-0.9c0.1-0.8,1-1.5,1.6-2.2
			c1.9-2.4,1.2-4.9-0.3-7.4c1.3-0.6,2.2-1.1,3.1-1.5c-0.1-1.1-0.1-2.2-0.2-3.2c0.3,0.2,0.5,0.3,0.8,0.5c2.2-3.1,4.5-6.3,6.9-9.6
			c-0.3-0.5-0.7-1.2-1.1-1.8c0.1-0.2,0.3-0.3,0.4-0.5c1.1,0.5,2.2,1,4,1.8c-0.8-1.9-1.4-3.3-2-4.7c1.8-1.5,4.8-2.7,2.7-6.1
			c4.1-1.1,4.6-1.9,4.1-6.9c3.2-1.1,4.4-0.6,2.8-5.6c1.6,0.2,2.8,0.4,4.5,0.7c0.1-1,0.1-2.3,0.2-3.6c0.3,0.2,0.6,0.4,1.2,0.8
			c0.4-1.5,0.6-2.8,1.2-4.1c0.5-1.2,1.2-2.2,1.9-3.3c1.1-1.9,2.8-3.8,3.3-5.9c0.6-3,1.7-4.6,5.1-4.9c-0.1-5,5.2-4.7,6.7-7.9
			c0.7-1.8,1.5-3.6,2.2-5.4c0.2-0.7,0-1.6,0-2.8c0.4,0.2,1.5,0.5,1.5,0.7c-0.1,1.6-0.3,3.3-0.7,4.9c-0.2,1-0.6,2-0.2,3.1
			c5.5-8.6,10.9-17.2,16.4-25.8c-0.7-1-1.4-2-2.2-3.1c0.2-0.2,0.4-0.3,0.6-0.5c0.5,0.5,0.9,1,1.4,1.6c4.7-2.4,6.4-6.3,6.3-10
			c1.5-1.9,2.5-3.2,4-5c-1.6-0.2-2.2-0.2-3.2-0.3c2.4-1.6,5.7-1.6,5.5-5.2c0,0,0.6,0,0.8-0.2c1.8-1.4,4.2-2.3,2.9-5.7
			c-0.4-1,1.5-3,2.4-4.7c0.9,1.3,1.5,2.1,2,3c0.3,0,0.7,0.1,1,0.1c0.3-1.7,0.5-3.4,0.8-5.4c0.5,0.6,0.9,1.2,1.4,1.9
			c1.5-1.2,1.5-4.7,4.4-3.2c1.4-3.1,2.8-6.1,4.5-9.9c0.2,1.4,0.3,1.9,0.5,2.8c2.6-2.7,5.2-5.1,2.7-9.3c0.4-0.1,0.8-0.2,1.2-0.3
			c0.6,0.9,1.3,1.9,2.3,3.4c0.7-0.9,1.2-1.9,2-2.7c1.3-1.3,2.7-2.6,4-3.8c0.8-0.8,1.9-1.3,2.5-2.2c1.3-2.1,2.2-4.5,3.6-6.4
			c1.3-1.8,3.6-2.8,4.2-5.2c0-0.1,1.3,0.1,1.8,0.2c5.2-5.6,10.3-11.1,15.5-16.8c0.4,0.2,1.1,0.4,1.7,0.7c1.2-1.8,2.3-3.4,3.5-5.2
			c1,1.1,1.9,2.2,3.4,4c-0.4-2.9-0.7-4.8-1-6.8c0.3,0.1,0.6,0.3,0.9,0.4c0.8-1,1.6-2,2.5-2.8c0.6-0.5,1.2-1.1,2-1.3
			c1.9-0.6,3.5-0.9,3.3-3.7c-0.1-1.6,1.6-3.2,3.7-2.4c2,0.8,3.8,0.5,4.9-1.1c1.8-2.6,5.4-4.6,3.7-9.3c1.8,0.2,3.4,0.3,5.4,0.5
			c0.2-0.3,1-1.2,0.9-1.9c-0.6-2.5,0.4-2.9,2.7-3.1c0.8-0.1,1.4-1.9,2.4-3.4c1.3,0,3.6,0.1,4.4-2.8c0.1-0.4,1.8-0.5,2.9-0.7
			c-0.1-0.4-0.2-1.3-0.4-2.5c3.4,0.4,3.2-1.9,3.1-4c2.6-0.6,5.5-0.5,5.7-4.1c3,0.8,3.8-1.8,5.4-3.1c0.7-0.6,1.4-1.2,2.1-1.8
			c0.4,0.8,0.8,1.6,1.2,2.4c0.2,0,0.4,0.1,0.6,0.1c0.1-1.5,0.2-2.9,0.3-4.4c-0.3-0.2-0.5-0.4-0.8-0.6c3.1-1.6,6.3-3.1,9.4-4.8
			c0.9-0.5,1.4-1.8,2.1-2.7c0.8-1,1.6-1.9,2.6-3.1c0.6,1,1,1.7,1.4,2.5c0.4-0.2,0.8-0.2,0.9-0.4c0.7-0.8,1.5-1.6,1.9-2.5
			c0.9-2.1,1.6-4.1,4.6-3.9c0.6,0,1.3-0.6,1.9-1c-0.8-0.9-1.5-1.6-2.1-2.4c0.3-0.2,0.5-0.3,0.8-0.5c0.1,0.1,0.2,0.1,0.3,0.2
			c-0.1,0.1-0.1,0.1-0.2,0.2c-0.2,0.2-0.4,0.4-0.3,1c1.1-0.6,2.2-1.1,3.5-1.8c0.2,0.6,0.5,1.1,0.7,1.8c1.1-1.7,2.1-3.1,3-4.6
			c0.2,0.2,0.4,0.5,0.5,0.7c2.6-1.9,5.1-3.7,7.8-5.7c0.1-4,5.4-8.8,8.5-7.3c0-4.2,2-7,6-8.6c0.5,0.9,0.9,1.7,1.6,2.9
			c0.1-2.7,0.7-4.5,4.1-3.8c-2.2-3.2,0.1-4.5,2-6c0.5-0.4,1.2-0.7,1.3-1.2c0.5-1.5,0.9-3,3.1-2.1c0.3,0.1,1.1-1,1.8-1.7
			c0.5,0.7,0.9,1.3,1.4,2.1c1.8-2.4,3.2-4.7,5.1-6.7c2.2-2.2,4.8-4,7.1-5.9c1.2,0.4,2.5,0.8,4.3,1.4c-1.5-3.1,0.3-5.6,3-5.7
			c0.5-0.9,0.9-2.1,1.4-2.2c4.3-0.9,6.9-4.4,10.4-6.5c2-1.3,4.4-1.9,6.6-3c1-0.5,1.8-1.6,2.7-2.4c2.4-1.9,4.5-4.6,7.2-5.4
			c2.4-0.8,3.9-2.8,6.2-3.4c0.8-0.2,1.5-0.7,2.1-1.2c3.7-2.6,7.2-5.5,11.1-7.9c2.6-1.6,5.8-2.4,8.6-3.9c1.5-0.8,2.5-2.5,3.8-3.8
			c0.3-0.3,0.5-0.7,0.8-0.7c4.4,0,7-3.9,10.9-4.9c3-0.8,5.9-1.9,8.8-3c1.1-0.4,2.3-0.8,3.1-1.5c2.3-2,4.9-2.9,7.8-3.5
			c0.5-0.1,0.9-1.5,1.3-1.5c2.7,0.2,5.4,0.5,8.2,0.9c0.1,0,0.1,0.7,0.1,1c2.8-2.8,5.4-5.6,8-8.3c1.5,1.5,2.4,2.4,3.5,3.6
			c0.6-2.8,1-4.9,1.5-7c0.3,0.1,0.5,0.1,0.8,0.2c-0.3,1.1-0.6,2.2-0.9,3.3c0.3,0.1,0.6,0.2,0.9,0.3c0.7-1.5,1.5-3,2.2-4.5
			c-0.3-0.3-0.7-0.6-1-0.9c2.3-0.8,4.8-1.3,6.9-2.5c1.2-0.6,1.7-2.4,2.6-3.9c2.5,2.1,3.8,1,4.4-2.1c0.2-1,1.1-1.9,2.1-2.6
			c0.2,2.3,0,4.1,2.7,2.4c1.6-1,3.3-1.9,4.7-3.1c2.1-1.8,4.2-2.5,7-2.7c2.1-0.1,4.2-1.6,6.2-2.7c2.8-1.4,5.4-3,8.5-4.8
			c0.3,0.9,0.7,1.9,1.2,3.3c2.9-7.2,10.7-4.5,16-8.2c0.7,0.9,2.4,2.5,2.1,3c-0.8,1.6-2.2,3.1-3.8,4c-5.3,2.9-10.8,5.6-16.3,8.3
			c-1,0.5-2.3,0.2-3.5,0.3c-1.1,0.7-2.3,1.5-3.5,2.4c-0.4,0.3-0.6,0.6-1,0.9c-0.6,0.5-1.6,1.4-1.9,1.2c-1.5-0.9-2-0.6-3,0.9
			c-0.6,0.9-2.4,1-4,1.5c-0.6,2.4-5.8,5.7-9.8,5.8c-0.2,0.7-0.5,1.5-0.7,2.2c-0.5-0.3-1.1-0.6-1.6-0.9c-0.6-0.4-1.2-0.8-1.7-1.1
			c-0.3,0.8-0.9,1.6-0.7,2.3c0.6,1.9,0.6,2.2-1.7,1.8c-1.8-0.4-4,0.7-6.2,1.3c0,0.2,0.1,0.9,0.3,2.1c-2.6-1.7-3.9-0.5-4.9,1.4
			c-0.3,0.6-1,1.3-1.6,1.5c-3.2,1.3-6.3,2.6-8.9,5.2c-0.7,0.7-1.8,1.1-2.7,1.6c-1.8,1.1-3.7,2.1-6,3.5c0,0-0.7-0.5-1.5-1.1
			c-1.8,2-3.5,3.9-5.3,6c0.4,0.6,0.9,1.2,1.4,1.9c-2.2-0.5-4.3-0.9-6.7-1.4c-0.1,0.5-0.4,1.2-0.4,1.9c0.1,2.5-0.7,3.4-3.3,2.6
			c-0.8-0.2-1.9,0.5-2.8,0.9c-1.3,0.5-2.5,0.9-4.1,1.5c0.2,0.7,0.5,1.6,0.7,2.1c-2,1.4-3.9,2.8-5.9,4.3c-0.5,0.4-1.1,1.2-1.4,1.1
			c-3.1-1-3.7,1.7-5.2,3.2c-2.3,2.1-5,3.8-7.5,5.7c-1.4,1.1-2.7,2.2-4.1,3.4c-1.3,1.1-2.5,2.3-4.3,3.9c-0.6-1.9-0.9-2.9-1.3-4.2
			c-1.1,1.2-2.2,2.4-3.7,4.1c1.2-0.3,2-0.5,3-0.7c1.5,2.8-1,3.9-2.6,4.6c-1.4,0.4-2.9,0.5-4,1.2c-0.5,0.3-0.5,1.7-0.7,2.8
			c-2.4-1.5-1.3,5-5.4,2.3c1.4,0.2,2,0.3,3.1,0.4c-0.3-1.6-0.6-2.9-0.9-4.5c-1.7,1.1-3.1,2.5-4-0.7c-0.2,0.2-0.5,0.5-0.7,0.7
			c0.6,2.4,1.2,4.7,1.8,7.2c-0.6,0-1.2,0-1.8,0c-0.5-0.2-1-0.4-1.5-0.6c0-0.8-0.1-1.7-0.1-2.5c0-0.7,0-1.3,0-2
			c-0.7,0.2-1.6,0.2-1.9,0.6c-0.7,1-1.1,2.1-1.6,3.2l0.1-0.1c-0.5,0.1-1.6,0.4-1.6,0.4c0.5,3-2.4,3.1-3.8,4.4
			c-2.4,2.2-6.4,2.4-7.1,6.8c-0.2,1.5-2.7,3.5-4.2,3.6c-3.8,0.3-5.1,3.4-7.5,5.2c-0.4,0.3-1,0.9-1.1,0.8c-2.3-1.6-3.5,0.6-4.4,1.7
			c-1.4,1.8-3.1,3.4-4.5,5.2c-0.8,1-3.3,0.6-5.4,0.9c0.1,0.7,0.3,2.4,0.4,4c-1.9,1.8-3.8,3.8-6,5.5c-1.9,1.6-4,2.9-6.2,4.5
			c0.8,2.7-1.7,3.5-3.7,4.7c-2.5,1.6-5.9,2.2-6.5,5.9c-0.9-0.1-1.7-0.1-2.5-0.2c0.2,2.2,0.1,1.8-2.2,2.8c-1.3,0.6-1.7,2.7-2.8,4
			c-2.9,3.3-6,6.6-9,9.9c-0.5,0.6-1.1,1.3-1.4,2c-0.6,1.4-0.8,3.2-3.1,2.6c-0.2-0.1-0.6,0.3-0.8,0.5c-2.7,3.3-5.5,6.7-8.1,10.1
			c-2.3,3-4.5,6.2-6.8,9.3c-0.4,0.5-1.5,0.5-2.4,0.8c0,3-3.6,6.8-6.7,6.6c-1.3,2.4-2.3,5.1-4.1,7.2c-1,1.2-3.1,1.4-5.2,2.3
			c1,0.3,1.5,0.5,2.2,0.7c-1.5,1.3-2.9,2.5-4.4,3.7c-1.6,1.3-3.4,2.4-4.7,3.9c-3.7,4.2-7.3,8.5-10.8,12.8c-1.2,1.5-2.4,3.2-3.3,4.9
			c-0.9,1.8-1.3,3.8-3.7,4.2c-0.2,0-0.5,0.4-0.6,0.7c-0.3,4.4-3.6,6.9-6.1,9.9c-0.7,0.8-0.7,2-1.3,2.9c-1.1,1.6-2.3,3.2-3.5,4.8
			c-0.9,1.2-1.6,2.5-2.5,3.7c-1.2,1.7-2.6,3.3-3.8,5.1c-1.5,2.2-2.8,4.4-4.2,6.8c-1-0.1-2.2-0.1-3-0.2c0.3,1.5,1.3,3.4,0.7,4.6
			c-0.6,1.3-3.1,1.6-3.9,2.9c-1.4,2.1-4.7,3.4-3.8,6.8c0.1,0.3,0,0.7-0.2,0.9c-2.6,3.7-5.2,7.4-7.7,11.2c-0.9,1.4-1.2,3-2,5.1
			c-0.2-0.8-0.4-1.9-0.6-2.9c-0.6,0.5-1.1,0.9-1.7,1.4c0.5,1.1,1.1,2.2,2,4.2c-1.5,0.6-3.5,0.8-4.7,1.9c-1.1,0.9-1.3,2.8-1.5,4.5
			c-6.2,2.6-6.4,10.8-12.2,14.2c0.1,0.8,0.2,1.9,0.3,3c-1.1,0.4-2.2,0.7-3.3,1.1c0.3,0.3,0.5,0.5,0.8,0.8c-0.6,1-1,2.4-2,3
			c-2.1,1.4-2.5,3.8-3.8,5.4c-2.4,3-3.5,6.5-5.7,9.5c-0.6,0.8-2.6,0.6-3.2,0.7c-1.3,4.5-2.6,8.7-3.9,13.1c-0.6-0.4-1.1-0.8-1.7-1.1
			c-0.1,0.2-0.2,0.4-0.2,0.5c0.9,1.5,1.5,2.8-1.1,3.1c-0.4,0.1-0.8,1-1.1,1.6c-1,1.7-2,3.4-3.1,5.2c2.4,3.8-3.6,6.2-0.9,10.2
			c-0.4,0-0.9,0-1.3-0.1c-0.5-0.7-1-1.5-1.2-1.8c-0.9,2.7-1.7,5.6-2.7,8.4c-1.1,3.1-2.2,6.2-3.5,9.2c-0.8,1.7-1.9,3.3-2.8,5
			c-0.6,1.1-1.5,2.2-1.6,3.4c-0.4,3.7-1.8,7.1-4.5,8.4c0.5,8-5.1,13.2-8.1,19.8c0.8-0.2,1.3-0.3,2.5-0.5c-0.7,0.7-1,1-1.2,1.4
			c-2.3,4.1-4.5,8.4-7,12.4c-1.9,3.1-2.3,7.2-5.9,9.4c-0.9,0.6-1.4,3-1.1,4.4c0.6,3.5-2.5,5.8-2.5,8.6c0,3.7-4.3,5.9-2.8,9.9
			c0.2,0.6-1.6,1.9-2.2,2.5c0.1,0.7,0.4,1.9,0.2,2c-4.4,2.3-2.7,6.4-3.1,10c-0.6,0-1.2,0-0.8,0c-1.3,5-2.6,9.7-3.8,14.2
			c-0.6,0.5-1.7,0.9-1.9,1.7c-1.3,3.6-2.5,7.2-3.4,10.8c-0.5,2-0.1,4.2-0.4,6.3c-0.2,1-1.2,1.8-2,2.8c-0.7,3.5-1.5,7.3-2.2,11.2
			c-0.9,0.1-1.7,0.3-2.5,0.3c-2.1,0.2-1.5,1.5-1,2.6c0.6,1.3,1.4,2.6,2.7,4.8c-4.2-1.7-5.6,0.5-7,2.7c2.6,3-2.7,7.7,2.7,10.3
			c-2.9-0.2-4.9,0-5.5,2.8c-0.2,0.2-0.4,0.5-0.5,0.7c-0.3,1.2-0.7,2.4-1,3.6c-0.3,1.2-0.4,2.4-0.7,3.6c-0.2,0.9-0.6,1.7-1.2,3.2
			c0.1,0.1,0.7,1,1.6,2.2c-0.9,0.6-2,1.4-3.3,2.2c1.3,1.2,3.7,2.3,1.6,4.9c0.8-0.3,1.6-0.5,2.5-0.8c0.8,5.2-1,9.6-5.1,13.8
			c1.9,0,2.8,0,3.7,0c0.3,0.2,0.6,0.5,0.8,0.7c-4.7,0.9-5.1,4-4.9,7.5c0,0.6-1.3,1.4-2.6,2.6c1.7-0.4,2.8-0.6,3.8-0.9
			c0.1,0.3,0.2,0.5,0.3,0.8c-1.1,0.3-2.2,0.7-3.6,1.1c3.2,1.7,1.4,4.1,0.3,5.3c-2.6,2.8-1.3,6-1.4,8.9c-0.2,3.4-0.2,4-3.9,3.2
			c0.6,0.8,1.1,1.3,1,1.2c-1,2.4-1.9,4.5-2.7,6.5C718,1204.4,717.8,1205.8,717.6,1207.3z M716.3,1129.1c-4.8-0.5-7.4,1.3-6.3,4.4
			c0.9-0.6,1.8-1.2,2.6-1.8c0.7,1.1,1.2,2,2.3,3.8C715.5,1132.7,715.9,1130.9,716.3,1129.1z M719.5,1113.8c-0.1-0.2-0.2-0.3-0.4-0.5
			c-1.2,1.1-2.4,2.1-3.5,3.3c-0.8,1-2.8,1.9-1.3,3.6c0.7,0.8,2,1.1,2.8,1.6C718.1,1118.7,718.8,1116.3,719.5,1113.8z M747.8,974.6
			c-0.3-0.3-0.5-0.6-0.8-0.9c-6.7,2.6-7.3,4.1-3.5,9.2c0.3-0.1,0.6-0.1,0.9-0.2c-0.4-1.7-0.7-3.4-1-4.6
			C744.9,976.9,746.4,975.7,747.8,974.6z M754.4,1042.7c-0.8,0.6-1.6,0.9-1.9,1.4c-1.2,2.6-2.4,5.2-3.2,7.9
			c-0.2,0.7,0.6,1.7,0.9,2.8C751.7,1050.5,752.9,1046.9,754.4,1042.7z M1051,652.2c-1.3,0.9-2.5,1.7-3.7,2.5
			c0.2,0.3,0.3,0.5,0.5,0.8c2.1-1,4.1-2,6.6-3.1c-1.3-1.6-2.4-2.8-3.9-4.6C1050.7,650,1050.9,651.1,1051,652.2z M1025.6,668.5
			c-1.8-1-2.8-1.5-3.8-2c-0.8,1.9-4.6,1.1-4,4.2C1020.2,670,1022.4,669.4,1025.6,668.5z M889.4,773.6c0.1,1.3,0,2.3,0.3,3.2
			c0.3,0.7,1,1.3,1.6,1.8c0.1,0.1,1.2-0.5,1.1-0.7c-0.1-0.7-0.5-1.3-0.8-1.9c-0.1-0.3-0.3-0.5-0.5-0.8c0.7-0.7,1.3-1.4,2.2-2.4
			C891.8,773.1,890.5,773.4,889.4,773.6z M668.3,1233.2c0.3,0.1,0.6,0.3,0.9,0.4c2.9-2,3.1-3.2,1.2-7.1c-0.3,0-0.6,0-0.9,0
			c0.1,1.2,0.1,2.5,0.2,3.7C669.3,1231.1,668.8,1232.1,668.3,1233.2z M1010.3,675.9c1.1,0.4,1.8,0.9,2,0.7c1.5-1.2,2.9-2.4,4.2-3.8
			c0.3-0.3,0.1-1.1,0.1-1.6c-0.2-0.2-0.5-0.3-0.7-0.5C1014.1,672.3,1012.4,673.9,1010.3,675.9z M670.7,1236.1c-1.6,2-3,3.7-4.4,5.5
			C671.2,1240.8,671.2,1240.8,670.7,1236.1z M805.6,882.6c2-1.5,3.3-2.6,4.6-3.6c-0.1-0.3-0.1-0.5-0.2-0.8c-1.6,0.4-3.3,0.8-4.8,1.5
			C805,879.7,805.5,881.5,805.6,882.6z M761.5,1028.8c-3.2-0.1-4.6,1.4-4,4.2C758.8,1031.6,760.1,1030.3,761.5,1028.8z" style="fill:#FFFFFF;"/>
		<path d="M1042.1,664.1c0.5,0.2,1,0.4,1.5,0.6c-1.2,1.1-2.5,2.3-4.5,4.1c-0.2-2.3-0.4-3.8-0.6-5.4l-0.1,0.1
			C1039.6,663.7,1040.8,663.9,1042.1,664.1z" style="fill:#FFFFFF;"/>
		<path d="M717.6,1207.3c0.2-1.5,0.4-2.9,0.6-4.4c1.3,0.4,2.6,0.7,3.9,1.1c0,0.4,0,0.9-0.1,1.3
			C720.5,1206,719.1,1206.7,717.6,1207.3z" style="fill:#FFFFFF;"/>
		<path d="M733.1,1133.3c0.2-0.2,0.4-0.5,0.5-0.7c2.3,0.1,3.7,0.7,2.6,3.5c-0.3,0.8,0.1,1.9,0.1,2.8c-0.3,0-0.6,0-0.9,0
			c0-1.2,0-2.5,0-3.9C734.8,1134.5,734,1133.9,733.1,1133.3z" style="fill:#FFFFFF;"/>
	</g>
</g>
<g id="COLORS" style="display:none;">
	<rect x="-2174.3" y="2843.1" width="216.2" height="216.2" style="display:inline;fill:#0185D0;"/>
	<rect x="-1958.1" y="2843.1" width="216.2" height="216.2" style="display:inline;fill:#B3D8DD;"/>
	<rect x="-2174.3" y="3071.1" width="216.2" height="216.2" style="display:inline;fill:#0070CC;"/>
	<rect x="-1958.1" y="3071.1" width="216.2" height="216.2" style="display:inline;fill:#00A1C6;"/>
	<rect x="-1742" y="2843.1" width="216.2" height="216.2" style="display:inline;fill:#D3E9EF;"/>
	<rect x="-2174.3" y="1546" width="216.2" height="216.2" style="display:inline;fill:#F26981;"/>
	<rect x="-2174.3" y="1762.2" width="216.2" height="216.2" style="display:inline;fill:#9EA09E;"/>
	<rect x="-2399.8" y="1762.2" width="216.2" height="216.2" style="display:inline;fill:#333333;"/>
	<rect x="-2399.8" y="1978.4" width="216.2" height="216.2" style="display:inline;fill:#D48F00;"/>
	<rect x="-2174.3" y="1978.4" width="216.2" height="216.2" style="display:inline;fill:#F4B321;"/>
	<rect x="-2174.3" y="2194.6" width="216.2" height="216.2" style="display:inline;fill:#003501;"/>
	<rect x="-2174.3" y="2626.9" width="216.2" height="216.2" style="display:inline;fill:#9B1F0F;"/>
	<rect x="-1742" y="1762.2" width="216.2" height="216.2" style="display:inline;fill:#E5E5E5;"/>
	<rect x="-1742" y="1978.4" width="216.2" height="216.2" style="display:inline;fill:#FFDA54;"/>
	<rect x="-1742" y="2194.6" width="216.2" height="216.2" style="display:inline;fill:#009B4D;"/>
	<rect x="-2174.3" y="2410.7" width="216.2" height="216.2" style="display:inline;fill:#B45116;"/>
	<rect x="-1742" y="2626.9" width="216.2" height="216.2" style="display:inline;fill:#F1592B;"/>
	<rect x="-1958.1" y="1546" width="216.2" height="216.2" style="display:inline;fill:#FEAEB6;"/>
	<rect x="-1958.1" y="1762.2" width="216.2" height="216.2" style="display:inline;fill:#DDDDDD;"/>
	<rect x="-1958.1" y="1978.4" width="216.2" height="216.2" style="display:inline;fill:#FFC52D;"/>
	<rect x="-1958.1" y="2194.6" width="216.2" height="216.2" style="display:inline;fill:#004901;"/>
	<rect x="-1958.1" y="2410.7" width="216.2" height="216.2" style="display:inline;fill:#D46400;"/>
	<rect x="-1958.1" y="2626.9" width="216.2" height="216.2" style="display:inline;fill:#A55C54;"/>
	<rect x="-2181.9" y="1271.3" width="245" height="286.5" style="display:inline;fill:#FFA1AF;"/>
	<g style="display:inline;">
		<path d="M3014.6,5923.4c-0.2-0.9-0.4-1.8-0.7-2.7c-0.5-1.4-1.6-2.9-1.4-4.2c0.1-0.7,2.3-1.2,3.8-1.9
			c-0.6-1.9-1.5-4.2-2.2-6.6c-1-3.3-1.8-6.7-2.7-10c-0.1-0.5-0.3-1.2-0.7-1.4c-1.7-0.9-1.9-2-1.4-3.9c0.5-1.8-0.1-3.3-2.5-3.6
			c-1-0.1-1.8-1.1-3-1.9c1.2-0.6,2-1,2.7-1.3c-0.1-0.2-0.2-0.5-0.3-0.7c-0.7,0.1-1.4,0.2-1.7,0.2c-2.3-5.9-4.2-11.7-7.1-17
			c-0.8-1.4-1.2-2.7-1.7-4.1c-0.5-1.5-1.6-3.4-2.9-3.8c-2.9-0.9-2.8-2.3-1.9-3.9c-1-1.7-1.6-3-2.5-4.2c-2-2.8-4.3-5.3-6.2-8.2
			c-0.9-1.3-1-3-1.4-4.3c-1.7-2.7-3.5-5.3-5-8c-0.8-1.5-0.8-3.5-1.5-5.1c-0.5-1.1-1.6-1.9-2.3-2.8c-2.3-3.1-3-7.1-4.9-10.4
			c-2.2-3.9-5-7.4-7.5-11.2c-0.8-1.2-1.6-2.5-2.7-4.2c0-0.6,0-1.9-0.3-3.2c-0.1-0.4-1.1-1-1.6-0.9c-1.8,0.1-3.7,0.6-5.5,0.8
			c-0.6,0.1-1.7-0.1-1.8-0.3c-0.5-2.5-4.6-2.3-4.1-5.5c0.1-0.4-0.5-1.1-0.8-1.2c-3.2-0.8-4-3.6-5.4-6c-0.9-1.5-2.3-2.7-3.4-4.1
			c-2.5-3.2-5-6.4-7.6-9.6c-0.3-0.3-0.6-0.6-1-0.8c-2.1-1.1-4-1.9-5.3-4.5c-1.5-3-4.9-4.9-7.4-7.4c-2.9-3-5.7-6.1-8.7-9.1
			c-0.6-0.6-1.8-0.6-3-0.9c-0.3-1.6-0.8-3.5-1.2-5.6c-0.2,0.1-1.2,0.3-2.4,0.6c-0.1-1-0.1-1.8-0.2-2.6c-3.7-0.3-4.9-3.5-6.8-5.8
			c-0.4-0.5-1-1.5-1.4-1.5c-5.5,0.3-7.5-4.7-11.1-7.4c-0.3-0.2,0.1-1.3,0.2-1.6c-2.3-0.1-4.5-0.3-7.3-0.4c1-2.8,1.8-5.1,2.9-8.3
			c0.7,1.7,1.2,2.7,1.9,4.5c0.7-1.4,1.1-2.3,1.8-3.7c0.7,1.2,1.4,2.4,2.3,3.8c1.9,0.6,5,0.1,4.4,4.4c-0.2,1.4,2,3.4,3.5,4.7
			c3,2.7,6,5.5,10.8,5.4c-0.8,0.4-1.6,0.8-2.5,1.3c2,3.3,2.6,0,4.1-1.3c1.3,2,2.5,3.9,3.7,5.8c0.9-1,1.8-2.2,3.2-3.8
			c0.7,1.7,1.1,2.7,1.4,3.6c3.1-0.6,13.2,4.1,14.8,6.8c3.4-1.2,4.6-0.2,5.9,5.5c0.9-1.1,1.6-1.9,2.1-2.5c1.6,1.4,3.4,2.9,5.2,4.4
			c-0.1,0.2-0.3,0.8-0.6,1.4c1.1,0.1,2.1,0.2,3.3,0.3c0.3,1.8,0.2,4.3,3.8,3.8c0.9-0.1,2.2,1.2,3,2.2c2.5,3.3,7.2,4.2,8.5,8.8
			c0.6,2,2.7,3.5,4.4,5.5c4.3-0.6,4.5-0.5,4,4c1,0,1.9,0,2.1,0c1.4,2.1,2.7,3.8,3.8,5.6c0.7,1.2,1.3,2.5,1.4,3.8
			c0.2,2.6,1.4,1.8,2.9,1c2.2,6.3,4.5,12.6,6.9,19.4c0.8-2.1,1.3-3.5,1.9-5c0.4,0.2,0.8,0.4,1.2,0.5c-0.5,0.9-1.5,2-1.3,2.7
			c0.5,1.8,1.3,3.5,2.4,5c0.5,0.7,1.7,0.8,2.6,1.1c0.3-0.9,0.7-1.7,1-2.7c-4.8-1.3-4.7-1.3-3.3-5.5c0.3-1,0.7-2.1,0.6-3.1
			c0-0.9-0.6-1.7-1.2-3.1c4.2,1.3,1.8,4.6,2.9,6.1c1.1,0.1,2.2-0.1,2.7,0.3c1.1,0.9,2.7,2.1,2.8,3.3c0.1,2-0.3,3.4,2.6,3.1
			c0.6-0.1,1.5,1.3,2.2,2.2c1.3,1.7,2.8,3.3,3.8,5.1c1.3,2.4,4.9,3.7,3.8,7.1c0.9,0.5,2.2,0.8,2.4,1.5c1.2,4.8,5,7.9,7.3,12
			c1,1.7,1.6,3.5,2.7,5.1c0.5,0.9,1.6,1.4,2.1,1.9c0.4,1.7,0.4,3.4,1.2,4.7c1,1.6,2.7,2.7,3.8,4.2c0.8,1.2,1,2.7,1.5,4.1
			c0.7,1.7,1.5,3.4,2.1,5.2c0.7,1.9,1.1,3.9,1.4,5.1c2.1,2.7,3.7,4.8,5.8,7.5c-0.6,2.5,0.8,5.3,3.6,6c-1.2,3.4-0.3,5.2,3.7,6.7
			c-1.1,0-1.6,0-2.4,0c0.3,1.6,0.4,3.1,0.9,4.5c0.2,0.7,0.8,1.6,1.4,1.8c3.2,1.5,3.4,1.9,0.8,4.8c1,0.4,1.9,0.8,3,1.3
			c-0.9,3.2-0.3,5.8,3.4,7.1c0.6,0.2,0.6,1.9,0.8,3c0.1,0.3-0.2,0.8,0,1c1,2.2,2.1,4.4,3.2,6.5c1.1,2.2,2.2,4.4,3.4,6.8
			c0.3-0.1,0.9-0.5,1.6-0.9c1.3,4.2,2.5,8.4,3.9,12.9c3.6,0.5,2.8,4.2,3.7,7c0.5,1.5,0.6,3.5,1.6,4.3c2.4,2,1.4,3.7,0.3,5.6
			c-0.5,0.9-1.1,1.7-1.6,2.6c0.2,0.2,0.5,0.4,0.7,0.6c0-0.8,0.1-1.7,0.1-2.5c0.6,0.4,1.2,0.8,1.7,1.2c-0.4,2.4,0.6,5-1.6,7.4
			c-0.7,0.7,0.1,2.9,0.4,4.4c1,4.3,3.8,8,4,12.6c0.2,3.4,1.7,6.8,2.6,10.2c0.2,1-0.1,2.1,0.2,3.1c1.2,3.8,2.5,7.7,3.8,11.5
			c0.3,1,0.9,1.9,1.3,2.9c0.3-0.3,0.6-0.6,0.9-1c-0.5,3.5-1,7-1.5,10.8c0.7-0.2,1.2-0.4,2-0.7c0.8,2.1,1.9,4.2-0.3,6.3
			c-0.8,0.8-1.6,1.7-2.4,2.5c-0.2-0.2-0.5-0.4-0.7-0.7c0.4-0.4,0.8-0.8,1.3-1.2c-0.1-0.3-0.3-0.6-0.4-0.9c-1.3,0.5-2.7,0.9-4,1.4
			c-1,0.3-2.4,1.4-2.8,1.1c-2.3-1.9-3.8-0.2-5.7,0.6c-2.5,1.1-5,2.1-8.1,1c-2.8-0.9-6-0.5-9-0.7c-1.2-0.1-2.3-0.5-3.4-0.7
			c-1.2-0.1-2.5-0.4-3.5,0c-2.9,1-7.2,0-9-2.3c-0.2-0.2-0.2-0.8-0.3-0.9c-6-1.7-3.8-6.3-3.7-10.2c0-1.5-1.4-3.1-1.4-4.6
			c0-1.8,0.9-3.7,1.1-5.5c0.1-0.9-0.2-2-0.4-2.9c0-0.1-0.8,0-1.2,0c0.1,0.9,0.1,1.9,0.2,2.8c-0.2,0.1-0.5,0.2-0.7,0.2
			c-0.3-0.9-0.8-1.8-0.8-2.7c0.1-3.1,0.9-3.5,3.7-2.4c0.3,0.1,1,0.1,1.1-0.1c0.2-0.4,0.3-1,0.2-1.3c-1-2-2-4-4.9-1.2
			c0.2-2.5,5.3-4.4,0.5-6.4c0.3-1.4,0.6-2.9,0.9-4.3c-0.3,0.2-0.6,0.3-0.9,0.5c0.9,1,1.8,1.9,2.8,2.9c0.2-0.3,0.5-0.6,0.7-1
			c1.2-0.7,2.3-1.4,4-2.5c-1.3-0.4-2.7-0.8-4.8-1.5c-1.4-1.3,1.9-6.3-3.5-6.3c0.8-0.2,1.7-0.4,2-0.4c-0.2-2.5-0.3-4.6-0.5-6.8
			c0-0.6,0.1-1.5-0.2-1.7c-3-1.6-2.1-4-1.5-6.4c0.2-0.9-0.4-2.9-0.8-2.9c-3.5-0.2-1-3.3-2.3-4.4c2.2-2.4-0.2-3.4-1.4-4.7
			c-0.3-0.3-0.6-0.5-1.2-1c2.7-1.9,2.3-3.4-0.5-4.7c-0.5-0.2-1.1-0.7-1.1-1.1c-0.4-3-0.3-6-2.2-8.7c-0.5-0.6,0.7-2.4,1-3.7
			c0.3-1.2,1-2.6,0.7-3.4c-0.4-0.9-1.9-1.2-3.2-1.9c0-0.2,0.1-0.7,0.2-1.3c0-0.1,0.2-0.2,0.2-0.2
			C3014.4,5923.1,3014.5,5923.2,3014.6,5923.4c1.2,0.1,2.3,0.1,3.5,0.2c0-1.1-0.1-2.2-0.1-3.2c0-0.8,0.1-1.7,0-2.5
			c-0.1-0.8-0.4-1.5-0.7-2.4c-3.2,2.5-1.3,4.8-0.4,7C3016,5922.9,3015.3,5923.1,3014.6,5923.4z M2911.5,5741.4
			c-0.3-1.2-0.6-2.3-0.9-3.5c-1.2,0.1-2.4,0.3-3.5,0.4c-0.1,0.3-0.2,0.6-0.3,0.9C2908.4,5739.9,2910,5740.6,2911.5,5741.4
			c0.2,0.6,0.2,1.5,0.6,1.9c2.1,2,4.3,4,6.6,5.8c2.4,1.9,4.1,1.2,5-1.9c-3.3,1.7-7,0.3-7.9-3.4
			C2915.1,5741,2913.7,5740.8,2911.5,5741.4z M3043.8,5983.3c-1.2,0.6-2.2,0.8-2.7,1.4c-1.7,2-2.6,4.3-0.7,6.8
			c-0.9,0.7-1.6,1.3-2.4,1.9c0.3-0.1,0.7-0.2,1-0.3c1.1,1.5,2.2,2.9,3.2,4.4c1,1.6,1.9,3.3,3.1,5.3c0.4-2.2,0.7-3.8,1-5.6
			C3042.4,5995.2,3042,5990.6,3043.8,5983.3z M3033.2,5954.8c-2.9-3.3-1.1-9.1-6-11c-1.2,0.9-2.2,1.7-2.5,1.9
			c1.2,3.2,2.4,6.1,3.5,8.9C3029,5953.9,3029.1,5953.9,3033.2,5954.8z M3031,5991.5c-0.1,0.3-0.3,0.7-0.2,0.9c1,2,1.9,3.9,0.7,6.2
			c-0.2,0.3,1,1.7,1.8,2.1c0.5,0.2,1.8-0.3,2.1-0.8c0.3-0.6,0-1.7-0.3-2.4c-0.3-0.7-1.1-1.3-1.6-1.9
			C3035.9,5992.4,3035.9,5992.4,3031,5991.5z M3010.8,5874.4c1.3-3.1,2.4-5.9,3.5-8.7c-0.3-0.1-0.6-0.3-0.9-0.4
			c-1.9,0.9-3.7,1.8-5.6,2.6C3012.6,5868.6,3008.2,5872.9,3010.8,5874.4z M3031.6,5964.8c-1.5,5.1,3,7.5,3,9.5
			C3033.3,5972.7,3035.1,5968.3,3031.6,5964.8z M3015.9,5873.7c-0.3,0.1-0.7,0.2-1,0.4c-0.3,2.5,1.4,4.5,2.8,6.4
			c0.5,0.7,1.9,0.7,3,1C3018.8,5878.5,3017.4,5876.1,3015.9,5873.7z M2953.4,5782.8c0-0.3,0-0.5-0.1-0.8c0.8,0.1,1.6,0.1,2.2,0.4
			c0.9,0.5,1.7,1.3,2.5,2c0.4-0.4,0.7-0.8,1.1-1.3c-1.3-1-2.5-2.4-3.9-2.9c-0.8-0.2-3,1.2-3,1.8c0.1,1.2,1.2,2.4,1.9,3.6
			c0.4-0.3,0.8-0.6,1.2-0.9C2954.7,5784.1,2954,5783.4,2953.4,5782.8z M2934.2,5766.1c-0.4,0.5-0.9,0.9-1.3,1.4
			c1.9,1.8,3.9,3.5,5.8,5.3c0.3-0.3,0.6-0.6,1-1C2937.9,5769.8,2936,5768,2934.2,5766.1z M3043.1,6006.9c0.3-0.1,0.5-0.3,0.8-0.4
			c-0.7-1.7-1.2-3.6-2.2-5.2c-0.2-0.3-1.9,0.3-2.8,0.5C3040.6,6003.7,3041.8,6005.3,3043.1,6006.9z M2950.9,5791.2
			c-0.8-1.9-1.6-3.6-2.5-5.9c-0.4,0.7-1.4,1.8-1.2,2.2C2948.1,5788.9,2947.2,5792.1,2950.9,5791.2z M3008.1,5858.1
			c-0.4,0.2-0.7,0.4-1.1,0.6c1.3,2.3,2.6,4.5,3.9,6.8c0.4-0.3,0.9-0.5,1.3-0.8C3010.9,5862.5,3009.5,5860.3,3008.1,5858.1z
			 M2949.7,5776.8c-0.3-0.1-0.6-0.2-0.9-0.3c-0.4,1.2-0.9,2.3-1.3,3.5c1.1,0.2,2.2,0.3,3.9,0.6
			C2950.5,5778.7,2950.1,5777.8,2949.7,5776.8z M3020.5,5930c-0.4,0-0.7,0-1.1,0c-0.2,0.9-0.9,2.3-0.6,2.7c0.7,0.8,2,1,3,1.5
			c0.1-0.2,0.3-0.4,0.4-0.6C3021.7,5932.3,3021.1,5931.1,3020.5,5930z M2956.1,5785.1c0.8,1.1,1.7,2.2,2.8,3.8
			c0.7-1.4,1.3-2.6,1.9-3.8C2958.9,5785.1,2957.6,5785.1,2956.1,5785.1z" style="fill:#FFFFFF;"/>
		<path d="M2854,5708.8c1.9-2,3.4-3.6,5.2-5.5c0.9,2.5,1.1,4.7,2.4,5.7c0.8,0.7,3.1-0.5,4.8-0.8
			c0.7,1.5,1.2,2.7,1.7,3.7c1.4-0.4,2.8-0.7,4.3-1.2c-0.5,2.4-0.8,3.9-1.2,5.7c-0.6,0.1-1.4,0.3-2,0.5c-0.2-3.9-5.3-1.6-5.9-4.7
			c-2.2,1.2-4.3,2.4-5.9-0.9C2857,5710.3,2855.6,5709.9,2854,5708.8z" style="fill:#FFFFFF;"/>
		<path d="M2855.5,5705.2c-1.8-0.4-3.2-0.6-4.5-0.9c-0.3,0.3-0.5,0.6-0.8,0.8c0.8,1.1,1.6,2.2,2.4,3.4
			c0.4-0.3,0.9-0.5,1.3-0.8c-1.6,0.3-3.2,0.5-4.5,0.7c-0.2-1.2-0.3-2.3-0.5-3.3c-1,0.3-2,0.6-3.1,1c-1.2-1.5-0.5-5.5,1.5-6.4
			c0.4-0.2,1.3,0,1.4,0.2c1.1,2.6,3.8,2.5,5.9,3.5C2855.1,5703.8,2855.3,5704.7,2855.5,5705.2z" style="fill:#FFFFFF;"/>
		<path d="M2833.2,5699.1c0.7-1.4,1.3-2.8,2-4.3c4.4-0.1,1,3.3,2,5c0.9-0.6,1.8-1.2,2.8-1.8c0.1,0.9,0.2,1.8,0.3,2.9
			c1.1,0,2,0,3.1,0c-0.2,1-0.3,2-0.4,2.8C2839.2,5703.9,2837,5702.8,2833.2,5699.1z" style="fill:#FFFFFF;"/>
		<path d="M2820.4,5692.9c-1.7-1-3.2-1.9-4.7-2.8C2817.8,5688.7,2820,5689.8,2820.4,5692.9z" style="fill:#FFFFFF;"/>
	</g>
	<g style="display:inline;">
		<circle cx="5154.3" cy="6342.6" r="783.2" style="fill:none;stroke:#000000;stroke-width:50;stroke-linecap:round;stroke-linejoin:round;stroke-dasharray:0,136.71;"/>
	</g>
</g>
</svg>
