<?xml version="1.0" encoding="iso-8859-1"?>
<!-- Generator: Adobe Illustrator 23.0.2, SVG Export Plug-In . SVG Version: 6.00 Build 0)  -->
<svg version="1.1" id="illustration" xmlns="http://www.w3.org/2000/svg" xmlns:xlink="http://www.w3.org/1999/xlink" x="0px"
	 y="0px" viewBox="0 0 1080 720" style="enable-background:new 0 0 1080 720;" xml:space="preserve">
<title>message sent</title>
<g id="message">
	
		<linearGradient id="bottom_1_" gradientUnits="userSpaceOnUse" x1="382.3044" y1="316.4165" x2="377.9178" y2="437.0476" gradientTransform="matrix(1 0 0 -1 0 722)">
		<stop  offset="0.0898" style="stop-color:#EEEEEE"/>
		<stop  offset="0.8178" style="stop-color:#D6D7D8"/>
	</linearGradient>
	<rect id="bottom" x="319.115" y="297.124" style="fill:url(#bottom_1_);" width="121.952" height="95.182"/>
	<polygon id="top" style="fill:#EEEEEE;" points="319.115,297.124 380.091,344.715 441.067,297.124 	"/>
</g>
<g id="bike">
	
		<linearGradient id="L_shoe_1_" gradientUnits="userSpaceOnUse" x1="343.789" y1="211.2214" x2="481.5309" y2="154.2881" gradientTransform="matrix(1 0 0 -1 0 722)">
		<stop  offset="0" style="stop-color:#A1C3FC"/>
		<stop  offset="0.6955" style="stop-color:#81AEF2"/>
		<stop  offset="1" style="stop-color:#78A9EF"/>
	</linearGradient>
	<path id="L_shoe" style="fill:url(#L_shoe_1_);" d="M469.269,541.471l-18.353,51.195l129.564,0.004c0,0-6.643-12.814-28.79-22.305
		s-42.647-28.889-42.647-28.889L469.269,541.471"/>
	
		<linearGradient id="L_trousers_1_" gradientUnits="userSpaceOnUse" x1="337.2535" y1="200.4929" x2="485.5289" y2="304.1343" gradientTransform="matrix(1 0 0 -1 0 722)">
		<stop  offset="0.1291" style="stop-color:#428DFC"/>
		<stop  offset="0.9987" style="stop-color:#1D72D8"/>
	</linearGradient>
	<path id="L_trousers" style="fill:url(#L_trousers_1_);" d="M464.433,280.082c0,0-1.978,34.285,31.648,84.393
		s3.297,73.844-4.615,89.009s-6.736,8.84-13.329,19.39s-25.979,28.221-16.59,57.472l78.05,2.257c0,0,33.625-118.019,31.648-143.073
		s-32.307-83.734-32.307-83.734L464.433,280.082"/>
	<path id="back_wheel" style="fill:#23286B;" d="M383.998,636.481c-63.286,0-114.59-51.304-114.59-114.59
		s51.304-114.59,114.59-114.59s114.59,51.304,114.59,114.59C498.516,585.148,447.254,636.41,383.998,636.481z M383.998,414.302
		c-59.42,0-107.59,48.17-107.59,107.59s48.17,107.59,107.59,107.59s107.59-48.17,107.59-107.59
		C491.52,462.499,443.39,414.369,383.998,414.302z"/>
	
		<linearGradient id="back_1_" gradientUnits="userSpaceOnUse" x1="265.0885" y1="264.7584" x2="513.2759" y2="264.7584" gradientTransform="matrix(1 0 0 -1 0 722)">
		<stop  offset="0" style="stop-color:#A1C3FC"/>
		<stop  offset="0.6955" style="stop-color:#81AEF2"/>
		<stop  offset="1" style="stop-color:#78A9EF"/>
	</linearGradient>
	<path id="back" style="fill:url(#back_1_);" d="M383.997,392.613c-51.781,0.054-98.549,30.954-118.909,78.564h8.645
		c28.004-60.902,100.076-87.571,160.978-59.567c43.065,19.802,70.662,62.862,70.666,110.261h7.897
		C513.184,450.513,455.354,392.693,383.997,392.613z"/>
	
		<linearGradient id="front_1_" gradientUnits="userSpaceOnUse" x1="678.6076" y1="289.9487" x2="843.0082" y2="289.9487" gradientTransform="matrix(1 0 0 -1 0 722)">
		<stop  offset="0" style="stop-color:#A1C3FC"/>
		<stop  offset="0.6955" style="stop-color:#81AEF2"/>
		<stop  offset="1" style="stop-color:#78A9EF"/>
	</linearGradient>
	<path id="front" style="fill:url(#front_1_);" d="M723.948,400.51c47.525,0.046,90.664,27.787,110.424,71.009h8.635
		c-26.989-63.825-99.513-95.007-164.401-70.683c0.904,2.474,1.864,4.922,2.838,7.361
		C695.036,403.102,709.434,400.498,723.948,400.51z"/>
	<path id="front_wheel" style="fill:#23286B;" d="M723.948,636.481c-63.286,0-114.59-51.304-114.59-114.59
		s51.304-114.59,114.59-114.59s114.59,51.304,114.59,114.59C838.467,585.148,787.205,636.41,723.948,636.481z M723.948,414.302
		c-59.42,0-107.59,48.17-107.59,107.59s48.17,107.59,107.59,107.59s107.59-48.17,107.59-107.59
		C831.471,462.499,783.341,414.369,723.948,414.302z"/>
	
		<linearGradient id="gearbox_1_" gradientUnits="userSpaceOnUse" x1="368.6978" y1="189.4824" x2="558.5035" y2="189.4824" gradientTransform="matrix(1 0 0 -1 0 722)">
		<stop  offset="0" style="stop-color:#23286B"/>
		<stop  offset="1" style="stop-color:#151A4F"/>
	</linearGradient>
	<path id="gearbox" style="fill:url(#gearbox_1_);" d="M528.765,502.156l0.001-0.016H389.952
		c-11.737-0.001-21.252,9.512-21.254,21.249c-0.001,10.946,8.312,20.102,19.207,21.155l135.449,17.976
		c0.442,0.07,0.889,0.127,1.337,0.177l0.14,0.019l0-0.001c1.095,0.119,2.195,0.18,3.296,0.181
		c16.775,0.002,30.375-13.594,30.378-30.369C558.506,515.998,545.29,502.501,528.765,502.156z"/>
	
		<linearGradient id="_2_1_" gradientUnits="userSpaceOnUse" x1="648.016" y1="296.285" x2="727.038" y2="296.285" gradientTransform="matrix(1 0 0 -1 0 722)">
		<stop  offset="0" style="stop-color:#A1C3FC"/>
		<stop  offset="0.6955" style="stop-color:#81AEF2"/>
		<stop  offset="1" style="stop-color:#78A9EF"/>
	</linearGradient>
	<polygon id="_2" style="fill:url(#_2_1_);" points="721.438,522.055 648.016,329.375 654.264,329.407 727.038,519.9 	"/>
	
		<linearGradient id="_1_1_" gradientUnits="userSpaceOnUse" x1="462.2534" y1="292.2729" x2="536.1895" y2="292.2729" gradientTransform="matrix(1 0 0 -1 1.443227e-05 722)">
		<stop  offset="0" style="stop-color:#A1C3FC"/>
		<stop  offset="0.6955" style="stop-color:#81AEF2"/>
		<stop  offset="1" style="stop-color:#78A9EF"/>
	</linearGradient>
	<polygon id="_1" style="fill:url(#_1_1_);" points="462.253,342.016 467.853,339.861 536.19,517.438 530.59,519.593 	"/>
	
		<linearGradient id="finger_1_" gradientUnits="userSpaceOnUse" x1="692.8205" y1="383.2659" x2="694.7994" y2="370.1833" gradientTransform="matrix(1 0 0 -1 0 722)">
		<stop  offset="0" style="stop-color:#FFBEB6"/>
		<stop  offset="0.2982" style="stop-color:#FBB5AE"/>
		<stop  offset="1" style="stop-color:#F2A19C"/>
	</linearGradient>
	<path id="finger" style="fill:url(#finger_1_);" d="M687.076,347.412c0,0,7.218-6.322,10.052-6.837s3.091-1.03,3.091,1.03
		s-1.862,1.546-0.802,3.477S687.076,347.412,687.076,347.412z"/>
	
		<linearGradient id="handle_1_" gradientUnits="userSpaceOnUse" x1="648.02" y1="366.355" x2="708.0564" y2="366.355" gradientTransform="matrix(1 0 0 -1 0 722)">
		<stop  offset="0" style="stop-color:#A1C3FC"/>
		<stop  offset="0.6955" style="stop-color:#81AEF2"/>
		<stop  offset="1" style="stop-color:#78A9EF"/>
	</linearGradient>
	<path id="handle" style="fill:url(#handle_1_);" d="M684.52,381.92l-1.63-5.78c3.816-1.207,7.422-2.999,10.69-5.31
		c6.38-4.61,9.18-10.28,8.33-16.83c-0.72-5.6-4.82-18.63-27.28-18.63H650.3l-2.28-6h26.61c3.95,0,11.63,0.51,18.69,3.88
		c8.056,3.599,13.593,11.208,14.54,19.98C710.04,370.1,693.55,379.37,684.52,381.92z"/>
	
		<linearGradient id="frame_1_" gradientUnits="userSpaceOnUse" x1="560.5148" y1="479.7769" x2="583.0256" y2="301.5279" gradientTransform="matrix(1 0 0 -1 0 722)">
		<stop  offset="0" style="stop-color:#A1C3FC"/>
		<stop  offset="0.6955" style="stop-color:#81AEF2"/>
		<stop  offset="1" style="stop-color:#78A9EF"/>
	</linearGradient>
	<polygon id="frame" style="fill:url(#frame_1_);" points="672.747,394.432 536.67,538.62 532.3,534.5 666.42,392.37 488,392.22 
		485.69,386.22 669.69,386.374 	"/>
	
		<linearGradient id="seat_1_" gradientUnits="userSpaceOnUse" x1="440.8614" y1="397.8727" x2="476.8644" y2="376.0348" gradientTransform="matrix(1 0 0 -1 0 722)">
		<stop  offset="0" style="stop-color:#23286B"/>
		<stop  offset="1" style="stop-color:#151A4F"/>
	</linearGradient>
	<path id="seat" style="fill:url(#seat_1_);" d="M490.241,347.783h-47.964c0,0-2.231-17.091,16.732-17.091
		s28.444-1.103,28.444-1.103L490.241,347.783"/>
	<circle id="small_detail" style="fill:#23286B;" cx="723.162" cy="518.178" r="10.805"/>
	<path id="detail" style="fill:#23286B;" d="M723.162,541.416c-12.834,0-23.238-10.404-23.238-23.238
		c0-12.834,10.404-23.238,23.238-23.238s23.238,10.404,23.238,23.238C746.385,531.006,735.99,541.402,723.162,541.416z
		 M723.162,499.94c-10.073,0-18.238,8.166-18.238,18.238c0,10.073,8.166,18.238,18.238,18.238c10.073,0,18.238-8.166,18.238-18.238
		C741.388,508.11,733.23,499.951,723.162,499.94L723.162,499.94z"/>
</g>
<g id="man">
	<path id="L_shoe-2" style="fill:#A1C3FC;" d="M518.007,525.345l-18.353,51.195l129.564,0.004c0,0-6.643-12.814-28.79-22.305
		s-42.646-28.889-42.646-28.889L518.007,525.345"/>
	<path id="R_trousers" style="fill:#428DFC;" d="M471.411,275.467c0,0-25.054,48.131,16.483,75.822s85.053,44.175,60.658,61.976
		s-33.625,32.966-33.625,51.427s-10.704,15.862-21.254,25.092s-14.936,24.067-10.98,35.935l75.09-0.37
		c0,0,75.163-102.854,78.46-118.019s12.527-21.758-28.351-52.746s-79.119-65.932-79.119-65.932L471.411,275.467z"/>
	<path id="texture" style="opacity:0.86;fill:#FFFFFF;enable-background:new    ;" d="M482.725,315.41
		c0.036,0.091,0.139,0.136,0.23,0.101c0,0,0,0,0,0c0.087-0.037,0.128-0.137,0.091-0.224c-0.001-0.002-0.002-0.004-0.002-0.005
		c-0.036-0.091-0.139-0.136-0.23-0.101c0,0,0,0,0,0C482.729,315.222,482.69,315.322,482.725,315.41z M486.656,313.794
		c0.036,0.092,0.139,0.137,0.231,0.101s0.137-0.139,0.101-0.231c-0.036-0.092-0.139-0.137-0.231-0.101c0,0,0,0,0,0
		C486.668,313.602,486.624,313.703,486.656,313.794z M490.599,312.177c0.029,0.087,0.123,0.134,0.21,0.106
		c0.003-0.001,0.006-0.002,0.009-0.003c0.092-0.034,0.139-0.136,0.105-0.229c-0.034-0.092-0.136-0.139-0.229-0.105
		c-0.002,0.001-0.005,0.002-0.007,0.003c-0.085,0.03-0.128,0.124-0.098,0.208C490.592,312.163,490.596,312.17,490.599,312.177
		L490.599,312.177z M494.53,310.561c0.036,0.091,0.139,0.136,0.23,0.101c0,0,0,0,0,0c0.089-0.042,0.127-0.148,0.085-0.238
		c-0.038-0.081-0.13-0.121-0.215-0.094C494.539,310.366,494.494,310.469,494.53,310.561
		C494.53,310.561,494.53,310.561,494.53,310.561L494.53,310.561z M495.443,328.21c0.088,0.038,0.19-0.003,0.228-0.092
		c0.038-0.088-0.003-0.19-0.092-0.228c-0.088-0.038-0.191,0.003-0.228,0.092c0,0,0,0,0,0
		C495.314,328.07,495.355,328.172,495.443,328.21C495.443,328.209,495.443,328.209,495.443,328.21L495.443,328.21z M497.08,324.286
		c0.092,0.036,0.196-0.005,0.24-0.093c0.033-0.091-0.013-0.192-0.104-0.226c-0.081-0.041-0.18-0.008-0.22,0.073
		c-0.003,0.006-0.006,0.012-0.008,0.018C496.951,324.146,496.992,324.248,497.08,324.286
		C497.08,324.286,497.08,324.286,497.08,324.286L497.08,324.286z M498.729,320.361c0.088,0.038,0.19-0.003,0.228-0.092c0,0,0,0,0,0
		c0.036-0.092-0.005-0.196-0.093-0.24c-0.095-0.031-0.197,0.014-0.238,0.105C498.592,320.225,498.638,320.326,498.729,320.361
		L498.729,320.361z M500.365,316.437c0.088,0.038,0.19-0.003,0.228-0.092c0,0,0,0,0,0c0.037-0.092-0.004-0.197-0.093-0.24
		c-0.088-0.038-0.19,0.003-0.228,0.091c0,0,0,0,0,0C500.235,316.289,500.276,316.394,500.365,316.437L500.365,316.437z
		 M513.26,328.164c0.036,0.091,0.139,0.137,0.231,0.101c0,0,0,0,0,0c0.085-0.03,0.128-0.124,0.098-0.208
		c-0.003-0.007-0.006-0.014-0.009-0.021c-0.032-0.088-0.13-0.134-0.219-0.102C513.27,327.97,513.224,328.073,513.26,328.164
		C513.26,328.164,513.26,328.164,513.26,328.164L513.26,328.164z M489.324,321.325c0.066,0.067,0.174,0.069,0.241,0.003
		c0.067-0.066,0.069-0.174,0.003-0.241c-0.066-0.067-0.174-0.069-0.241-0.003c-0.067,0.059-0.074,0.162-0.015,0.229
		C489.316,321.317,489.32,321.321,489.324,321.325L489.324,321.325z M492.342,318.33c0.051,0.054,0.134,0.063,0.196,0.021
		l0.012-0.002c0.013,0,0.026-0.006,0.034-0.017c0.041-0.039,0.06-0.096,0.051-0.152c-0.006-0.038-0.024-0.073-0.05-0.101
		c-0.066-0.067-0.174-0.068-0.241-0.003c-0.07,0.066-0.074,0.176-0.008,0.246C492.337,318.326,492.34,318.328,492.342,318.33z
		 M495.36,315.335c0.069,0.063,0.176,0.059,0.24-0.009c0.067-0.066,0.069-0.174,0.003-0.241c-0.066-0.067-0.174-0.069-0.241-0.003
		c-0.07,0.066-0.074,0.176-0.008,0.246C495.355,315.331,495.357,315.333,495.36,315.335L495.36,315.335z M498.376,312.329
		c0.059,0.067,0.162,0.074,0.229,0.015c0.004-0.004,0.008-0.008,0.012-0.012c0.07-0.066,0.074-0.176,0.008-0.246
		c-0.002-0.002-0.004-0.005-0.007-0.007c-0.066-0.067-0.173-0.068-0.241-0.003c-0.07,0.067-0.073,0.178-0.006,0.248
		C498.373,312.326,498.374,312.327,498.376,312.329L498.376,312.329z M504.235,327.607c0.006,0.097,0.084,0.174,0.181,0.18
		c0.1,0,0.18-0.082,0.18-0.181c0-0.1-0.082-0.18-0.181-0.18C504.318,327.432,504.241,327.51,504.235,327.607L504.235,327.607z
		 M504.249,323.354c0.003,0.096,0.084,0.171,0.18,0.168c0,0,0,0,0,0c0.093,0.007,0.174-0.062,0.181-0.155
		c0-0.005,0.001-0.01,0-0.015c-0.003-0.099-0.083-0.178-0.181-0.18C504.332,323.179,504.254,323.257,504.249,323.354
		L504.249,323.354z M472.262,329.262c0.118,0.139,0.326,0.156,0.465,0.039c0.003-0.003,0.006-0.005,0.009-0.008
		c0.136-0.118,0.152-0.324,0.034-0.46c-0.001-0.001-0.001-0.001-0.002-0.002c-0.118-0.139-0.326-0.156-0.465-0.039
		c-0.003,0.003-0.006,0.005-0.009,0.008c-0.136,0.118-0.152,0.323-0.034,0.46C472.261,329.261,472.262,329.261,472.262,329.262z
		 M478.347,323.976c0.122,0.14,0.334,0.155,0.474,0.033c0.14-0.122,0.155-0.334,0.033-0.474c-0.001-0.001-0.001-0.001-0.002-0.002
		c-0.118-0.136-0.324-0.152-0.46-0.034c-0.001,0.001-0.001,0.001-0.002,0.002C478.251,323.622,478.232,323.832,478.347,323.976z
		 M484.443,318.689c0.122,0.139,0.335,0.153,0.474,0.031c0.139-0.122,0.153-0.335,0.031-0.474c-0.122-0.139-0.335-0.153-0.474-0.031
		c-0.139,0.118-0.156,0.326-0.039,0.465C484.438,318.683,484.441,318.686,484.443,318.689L484.443,318.689z M490.528,313.403
		c0.093,0.097,0.235,0.129,0.361,0.083c0.042-0.005,0.082-0.023,0.113-0.052c0.05-0.044,0.084-0.104,0.097-0.17l0.012-0.002
		c0.027-0.107-0.002-0.222-0.078-0.302c-0.118-0.139-0.326-0.156-0.465-0.039c-0.003,0.003-0.006,0.005-0.009,0.008
		C490.422,313.052,490.408,313.263,490.528,313.403L490.528,313.403z M496.471,349.467c-0.009,0.184,0.13,0.341,0.314,0.354
		c0.176,0.019,0.335-0.108,0.354-0.284c0.001-0.006,0.001-0.012,0.001-0.018c0.009-0.184-0.13-0.341-0.314-0.354
		C496.645,349.15,496.486,349.285,496.471,349.467C496.471,349.467,496.471,349.467,496.471,349.467L496.471,349.467z
		 M497.032,341.429c-0.012,0.184,0.128,0.343,0.313,0.355s0.343-0.128,0.355-0.313c0-0.001,0-0.002,0-0.002
		c0.015-0.181-0.12-0.341-0.302-0.356c0,0,0,0,0,0C497.212,341.108,497.053,341.245,497.032,341.429L497.032,341.429z
		 M497.604,333.378c-0.014,0.181,0.121,0.339,0.302,0.353c0.004,0,0.008,0.001,0.012,0.001c0.176,0.019,0.335-0.108,0.354-0.284
		c0.001-0.006,0.001-0.012,0.001-0.018c0.006-0.185-0.131-0.345-0.316-0.366C497.774,333.055,497.616,333.194,497.604,333.378
		L497.604,333.378z M498.165,325.34c-0.01,0.184,0.131,0.342,0.315,0.353c0.183,0.01,0.341-0.129,0.353-0.313
		c0.015-0.181-0.12-0.341-0.302-0.356c0,0,0,0-0.001,0c-0.184-0.017-0.347,0.118-0.365,0.302
		C498.166,325.331,498.166,325.335,498.165,325.34L498.165,325.34z M498.737,317.288c-0.015,0.181,0.119,0.34,0.3,0.355
		c0.181,0.015,0.34-0.119,0.355-0.3c0-0.005,0.001-0.009,0.001-0.014c0.017-0.179-0.115-0.338-0.295-0.355
		c-0.002,0-0.005,0-0.007-0.001C498.907,316.965,498.75,317.105,498.737,317.288L498.737,317.288z M468.581,315.368
		c0.061,0.175,0.251,0.267,0.426,0.206c0.174-0.061,0.267-0.251,0.206-0.426c-0.062-0.173-0.252-0.265-0.426-0.206
		c-0.173,0.059-0.267,0.247-0.208,0.42C468.58,315.364,468.58,315.366,468.581,315.368L468.581,315.368z M476.235,312.804
		c0.051,0.174,0.233,0.273,0.407,0.222s0.273-0.233,0.222-0.407c-0.002-0.007-0.005-0.015-0.007-0.022
		c-0.058-0.171-0.244-0.263-0.415-0.205C476.271,312.45,476.179,312.633,476.235,312.804z M483.878,310.253
		c0.059,0.173,0.247,0.267,0.42,0.208c0.002-0.001,0.004-0.001,0.006-0.002c0.171-0.056,0.264-0.239,0.209-0.41
		c0-0.001-0.001-0.002-0.001-0.004c-0.052-0.175-0.236-0.275-0.411-0.223c-0.005,0.002-0.011,0.003-0.016,0.005
		C483.911,309.889,483.819,310.078,483.878,310.253L483.878,310.253z M481.145,341.581c0.166,0.076,0.363,0.004,0.439-0.163
		c0.076-0.166,0.004-0.363-0.163-0.439c-0.163-0.075-0.355-0.007-0.435,0.154C480.909,341.301,480.979,341.499,481.145,341.581
		L481.145,341.581z M484.746,334.363c0.166,0.076,0.363,0.004,0.439-0.163c0.076-0.166,0.004-0.363-0.163-0.439
		c-0.163-0.075-0.355-0.007-0.435,0.154C484.51,334.082,484.581,334.281,484.746,334.363L484.746,334.363z M488.349,327.156
		c0.17,0.079,0.372,0.006,0.451-0.164c0.076-0.164,0.011-0.359-0.15-0.443c-0.166-0.087-0.371-0.024-0.458,0.142
		c-0.087,0.166-0.024,0.371,0.142,0.458C488.339,327.151,488.344,327.154,488.349,327.156z M491.949,319.926
		c0.161,0.085,0.36,0.023,0.445-0.138c0.002-0.003,0.003-0.006,0.005-0.009c0.085-0.162,0.022-0.362-0.14-0.446
		c-0.162-0.085-0.362-0.022-0.446,0.14c-0.003,0.005-0.005,0.01-0.007,0.015c-0.083,0.153-0.027,0.345,0.126,0.428
		C491.936,319.92,491.942,319.923,491.949,319.926L491.949,319.926z M495.552,312.72c0.168,0.076,0.365,0.006,0.448-0.158
		c0.076-0.166,0.002-0.363-0.164-0.438c-0.16-0.073-0.348-0.008-0.43,0.147c-0.084,0.162-0.021,0.362,0.141,0.446
		C495.548,312.718,495.55,312.719,495.552,312.72L495.552,312.72z M511.741,343.813c0.062,0.173,0.252,0.265,0.426,0.206
		c0.171-0.056,0.265-0.239,0.209-0.41c0-0.001-0.001-0.002-0.001-0.004c-0.045-0.171-0.22-0.272-0.391-0.227
		c-0.008,0.002-0.016,0.005-0.025,0.008C511.787,343.451,511.692,343.636,511.741,343.813L511.741,343.813z M509.188,336.158
		c0.065,0.172,0.25,0.267,0.428,0.218c0.173-0.062,0.265-0.252,0.206-0.426c-0.059-0.173-0.247-0.267-0.42-0.208
		c-0.002,0.001-0.004,0.001-0.006,0.002c-0.171,0.056-0.265,0.239-0.209,0.41C509.188,336.156,509.188,336.157,509.188,336.158
		L509.188,336.158z M506.637,328.515c0.052,0.169,0.23,0.264,0.399,0.213c0.005-0.002,0.01-0.003,0.015-0.005
		c0.175-0.052,0.275-0.236,0.223-0.411c-0.002-0.005-0.003-0.011-0.005-0.016c-0.06-0.175-0.25-0.268-0.425-0.208
		s-0.268,0.25-0.208,0.425C506.636,328.513,506.637,328.514,506.637,328.515L506.637,328.515z M504.073,320.861
		c0.062,0.173,0.252,0.265,0.426,0.206c0.169-0.052,0.264-0.23,0.213-0.399c-0.002-0.005-0.003-0.01-0.005-0.015
		c-0.056-0.174-0.241-0.271-0.416-0.219C504.115,320.495,504.018,320.684,504.073,320.861L504.073,320.861z M463.984,311.477
		c0.048-0.064,0.068-0.145,0.053-0.224c-0.014-0.047-0.041-0.089-0.077-0.122C463.975,311.237,463.98,311.357,463.984,311.477
		L463.984,311.477z M470.468,309.772c0.034,0.155,0.188,0.253,0.343,0.219c0.004-0.001,0.008-0.002,0.012-0.003
		c0.158-0.038,0.254-0.197,0.216-0.355s-0.197-0.254-0.355-0.216c-0.155,0.034-0.253,0.188-0.219,0.343
		C470.466,309.764,470.467,309.768,470.468,309.772L470.468,309.772z M477.481,308.151c0.029,0.152,0.176,0.251,0.328,0.222
		c0.009-0.002,0.018-0.004,0.027-0.007c0.158-0.038,0.254-0.197,0.216-0.355c-0.038-0.158-0.197-0.254-0.355-0.216
		S477.443,307.994,477.481,308.151C477.481,308.151,477.481,308.151,477.481,308.151z M474.163,337.862
		c0.139,0.086,0.321,0.045,0.409-0.093c0.087-0.138,0.046-0.321-0.093-0.409s-0.321-0.046-0.409,0.093
		C473.985,337.593,474.027,337.774,474.163,337.862z M477.979,331.759c0.139,0.085,0.32,0.044,0.409-0.093
		c0.091-0.136,0.055-0.32-0.08-0.411s-0.32-0.055-0.411,0.08c-0.003,0.005-0.006,0.01-0.009,0.015
		c-0.088,0.134-0.052,0.313,0.082,0.402C477.971,331.754,477.975,331.756,477.979,331.759L477.979,331.759z M481.674,325.479
		c0.012,0.074,0.056,0.138,0.121,0.176c0.139,0.085,0.32,0.044,0.409-0.093c0.09-0.141,0.049-0.328-0.092-0.419
		c-0.001-0.001-0.002-0.001-0.003-0.002c-0.084-0.053-0.189-0.061-0.28-0.021l-0.012,0.002c-0.052,0.021-0.094,0.061-0.117,0.112
		C481.65,325.306,481.64,325.398,481.674,325.479L481.674,325.479z M485.61,319.551c0.142,0.086,0.327,0.041,0.413-0.101
		c0.086-0.141,0.042-0.325-0.099-0.412c-0.139-0.086-0.321-0.045-0.409,0.093c-0.09,0.141-0.049,0.329,0.092,0.419
		C485.609,319.55,485.61,319.55,485.61,319.551L485.61,319.551z M489.426,313.447c0.144,0.083,0.328,0.034,0.411-0.11
		c0.08-0.139,0.038-0.316-0.097-0.404c-0.14-0.09-0.326-0.05-0.416,0.089c-0.09,0.14-0.05,0.326,0.089,0.416
		C489.418,313.442,489.422,313.444,489.426,313.447z M503.911,342.669c0.043,0.161,0.205,0.26,0.368,0.226
		c0.155-0.034,0.253-0.188,0.219-0.343c-0.001-0.004-0.002-0.008-0.003-0.012c-0.034-0.16-0.191-0.263-0.351-0.229
		c-0.002,0-0.004,0.001-0.005,0.001C503.982,342.354,503.882,342.509,503.911,342.669L503.911,342.669z M502.304,335.666
		c0.039,0.157,0.198,0.253,0.355,0.216c0.155-0.034,0.253-0.188,0.219-0.343c-0.001-0.004-0.002-0.008-0.003-0.012
		c-0.034-0.16-0.191-0.263-0.351-0.229c-0.002,0-0.004,0.001-0.005,0.001C502.359,335.344,502.265,335.506,502.304,335.666
		L502.304,335.666z M500.681,328.641c0.034,0.16,0.191,0.263,0.351,0.229c0.002,0,0.004-0.001,0.005-0.001
		c0.152-0.029,0.252-0.176,0.223-0.328c-0.002-0.009-0.004-0.018-0.007-0.027c-0.034-0.16-0.191-0.263-0.351-0.229
		c-0.002,0-0.004,0.001-0.005,0.001C500.742,328.327,500.647,328.484,500.681,328.641L500.681,328.641z M499.062,321.639
		c0.042,0.16,0.206,0.255,0.366,0.213c0.155-0.041,0.251-0.197,0.216-0.354c-0.041-0.158-0.197-0.257-0.357-0.228
		C499.127,321.314,499.028,321.476,499.062,321.639L499.062,321.639z M497.44,314.614c0.036,0.161,0.195,0.263,0.357,0.228
		c0.161-0.036,0.263-0.195,0.228-0.357l0,0c-0.043-0.161-0.205-0.26-0.368-0.226C497.503,314.305,497.41,314.458,497.44,314.614
		L497.44,314.614z M471.153,320.636c0.093,0.132,0.275,0.164,0.407,0.071c0.004-0.003,0.007-0.005,0.011-0.008
		c0.129-0.087,0.162-0.263,0.075-0.392c-0.003-0.005-0.007-0.01-0.011-0.015c-0.091-0.136-0.275-0.172-0.411-0.08
		c-0.003,0.002-0.006,0.004-0.009,0.006C471.086,320.319,471.058,320.503,471.153,320.636L471.153,320.636z M477.017,316.453
		c0.092,0.132,0.274,0.166,0.408,0.076c0.136-0.096,0.169-0.283,0.074-0.42c-0.099-0.131-0.282-0.163-0.42-0.074
		c-0.133,0.098-0.161,0.284-0.063,0.417C477.016,316.452,477.016,316.453,477.017,316.453L477.017,316.453z M482.869,312.271
		c0.096,0.136,0.283,0.169,0.42,0.074c0.131-0.099,0.163-0.282,0.074-0.42c-0.098-0.133-0.284-0.161-0.417-0.063
		c0,0-0.001,0.001-0.001,0.001c-0.133,0.086-0.17,0.263-0.084,0.396C482.863,312.263,482.866,312.267,482.869,312.271
		L482.869,312.271z M488.476,339.386c-0.022,0.162,0.09,0.313,0.252,0.339c0.16,0.027,0.312-0.08,0.34-0.24
		c0.024-0.163-0.081-0.316-0.241-0.352C488.66,339.108,488.504,339.22,488.476,339.386L488.476,339.386z M489.673,332.284
		c-0.032,0.154,0.068,0.305,0.222,0.337c0.006,0.001,0.012,0.002,0.018,0.003c0.16,0.027,0.312-0.08,0.34-0.24
		c0.024-0.163-0.081-0.316-0.241-0.352C489.849,332.01,489.698,332.122,489.673,332.284L489.673,332.284z M490.858,325.183
		c-0.028,0.16,0.079,0.313,0.239,0.341c0.16,0.028,0.313-0.079,0.341-0.239c0-0.001,0-0.001,0-0.002
		c0.027-0.16-0.08-0.312-0.241-0.34C491.037,324.917,490.886,325.024,490.858,325.183z M492.043,318.082
		c-0.028,0.16,0.08,0.312,0.24,0.34c0.092,0.019,0.187-0.008,0.255-0.071l0.012-0.002c0.044-0.047,0.073-0.105,0.085-0.168
		c0.022-0.162-0.09-0.313-0.252-0.339C492.223,317.815,492.071,317.923,492.043,318.082L492.043,318.082z M493.228,310.982
		c-0.025,0.166,0.088,0.322,0.253,0.35c0.162,0.022,0.313-0.09,0.339-0.252c0.004-0.04,0.003-0.08-0.005-0.12
		c-0.054-0.036-0.092-0.091-0.106-0.154c-0.039-0.036-0.089-0.059-0.141-0.065C493.408,310.715,493.256,310.822,493.228,310.982
		L493.228,310.982z M515.426,333.633c0.087,0.129,0.263,0.162,0.391,0.075c0.005-0.003,0.01-0.007,0.015-0.011
		c0.136-0.091,0.172-0.275,0.08-0.411c-0.002-0.003-0.004-0.006-0.006-0.009c-0.1-0.129-0.284-0.157-0.418-0.063
		c-0.132,0.093-0.164,0.275-0.071,0.407C515.421,333.626,515.424,333.629,515.426,333.633L515.426,333.633z M511.243,327.769
		c0.097,0.134,0.283,0.167,0.42,0.074c0.133-0.1,0.16-0.289,0.06-0.422c-0.095-0.126-0.272-0.158-0.405-0.072
		c-0.135,0.089-0.173,0.27-0.084,0.405C511.236,327.76,511.239,327.764,511.243,327.769L511.243,327.769z M474.632,320.022
		c0.072,0.066,0.185,0.062,0.251-0.011s0.062-0.185-0.011-0.251s-0.185-0.062-0.251,0.011l0,0
		C474.558,319.844,474.563,319.955,474.632,320.022L474.632,320.022z M477.527,316.924c0.072,0.067,0.185,0.062,0.251-0.011
		c0.067-0.072,0.062-0.185-0.011-0.251c-0.072-0.067-0.185-0.062-0.252,0.011c0,0,0,0,0,0
		C477.454,316.746,477.459,316.856,477.527,316.924L477.527,316.924z M480.433,313.812c0.069,0.063,0.176,0.059,0.24-0.009
		c0.067-0.061,0.072-0.165,0.011-0.232c-0.007-0.007-0.014-0.014-0.021-0.02c-0.069-0.063-0.176-0.059-0.24,0.009
		c-0.067,0.062-0.071,0.167-0.008,0.234C480.419,313.801,480.426,313.807,480.433,313.812L480.433,313.812z M483.328,310.714
		c0.069,0.063,0.176,0.059,0.24-0.009c0.07-0.067,0.073-0.178,0.006-0.248c-0.002-0.002-0.003-0.003-0.005-0.005
		c-0.074-0.062-0.183-0.058-0.251,0.011C483.253,310.536,483.258,310.646,483.328,310.714L483.328,310.714z M491.319,326.167
		c0.003,0.096,0.084,0.171,0.18,0.168s0.171-0.084,0.168-0.18c-0.003-0.096-0.084-0.171-0.18-0.168l0,0
		C491.391,325.99,491.316,326.071,491.319,326.167C491.319,326.167,491.319,326.167,491.319,326.167L491.319,326.167z
		 M491.165,321.925c0.009,0.098,0.094,0.171,0.192,0.166c0.096-0.003,0.171-0.084,0.168-0.179c0,0,0,0,0,0
		c0-0.092-0.074-0.168-0.167-0.168c-0.004,0-0.009,0-0.013,0c-0.099-0.001-0.179,0.079-0.18,0.177
		C491.165,321.922,491.165,321.924,491.165,321.925L491.165,321.925z M491.024,317.682c0.003,0.096,0.084,0.171,0.18,0.168
		s0.171-0.084,0.168-0.18l0,0c0.001-0.092-0.074-0.168-0.166-0.168c-0.004,0-0.009,0-0.013,0
		C491.096,317.505,491.021,317.585,491.024,317.682C491.024,317.681,491.024,317.681,491.024,317.682L491.024,317.682z
		 M490.882,313.438l0.007,0.047c0.028,0.071,0.097,0.119,0.173,0.121c0.096-0.003,0.171-0.084,0.168-0.18c0,0,0,0,0,0
		c-0.004-0.073-0.05-0.138-0.119-0.164l-0.012,0.002c-0.015-0.007-0.032-0.009-0.049-0.005c-0.092,0-0.168,0.074-0.168,0.167
		C490.882,313.429,490.882,313.434,490.882,313.438L490.882,313.438z M471.195,311.37c0.041,0.085,0.141,0.124,0.229,0.089
		c0.087-0.045,0.125-0.15,0.087-0.241c-0.037-0.087-0.137-0.128-0.223-0.091c-0.002,0.001-0.004,0.002-0.006,0.002
		C471.195,311.174,471.157,311.279,471.195,311.37L471.195,311.37z M475.057,309.607c0.04,0.087,0.141,0.126,0.229,0.089
		c0.086-0.034,0.128-0.13,0.094-0.216c-0.002-0.004-0.004-0.009-0.006-0.013c-0.03-0.084-0.123-0.128-0.208-0.098
		c-0.007,0.003-0.014,0.006-0.021,0.009c-0.087,0.037-0.128,0.137-0.091,0.224C475.056,309.603,475.057,309.605,475.057,309.607
		L475.057,309.607z M478.92,307.844c0.034,0.086,0.13,0.128,0.216,0.094c0.004-0.002,0.009-0.004,0.013-0.006
		c0.085-0.03,0.128-0.124,0.098-0.208c-0.003-0.007-0.006-0.014-0.009-0.021c-0.037-0.087-0.137-0.128-0.224-0.091
		c-0.002,0.001-0.004,0.002-0.005,0.002C478.922,307.654,478.883,307.756,478.92,307.844L478.92,307.844z M483.076,322.647
		c0.091,0.027,0.188-0.017,0.227-0.104c0.036-0.088-0.007-0.188-0.094-0.223c-0.003-0.001-0.006-0.002-0.009-0.003
		c-0.085-0.037-0.184,0.003-0.221,0.088c-0.002,0.005-0.004,0.01-0.006,0.016C482.94,322.512,482.986,322.613,483.076,322.647
		L483.076,322.647z M484.573,318.671c0.091,0.027,0.188-0.017,0.227-0.104c0.031-0.091-0.015-0.19-0.104-0.227
		c-0.084-0.039-0.184-0.003-0.224,0.081c-0.002,0.003-0.003,0.007-0.005,0.011c-0.039,0.091,0.003,0.195,0.094,0.234
		C484.566,318.668,484.569,318.669,484.573,318.671L484.573,318.671z M486.057,314.684c0.085,0.037,0.184-0.003,0.221-0.088
		c0.002-0.005,0.004-0.01,0.006-0.016c0.033-0.091-0.013-0.192-0.104-0.226c-0.091-0.027-0.188,0.017-0.227,0.104
		c-0.036,0.088,0.007,0.187,0.094,0.223C486.05,314.682,486.054,314.683,486.057,314.684L486.057,314.684z M487.542,310.709
		c0.085,0.037,0.184-0.003,0.221-0.088c0.002-0.005,0.004-0.01,0.006-0.016c0.033-0.091-0.013-0.192-0.104-0.226
		c-0.091-0.027-0.188,0.017-0.227,0.104C487.405,310.574,487.451,310.675,487.542,310.709L487.542,310.709z M499.225,322.122
		c0.039,0.088,0.141,0.127,0.229,0.089s0.127-0.141,0.089-0.229c-0.03-0.085-0.123-0.128-0.208-0.098
		c-0.007,0.003-0.014,0.006-0.021,0.009c-0.087,0.037-0.128,0.137-0.091,0.224C499.224,322.119,499.224,322.12,499.225,322.122
		L499.225,322.122z M497.462,318.26c0.043,0.09,0.15,0.128,0.241,0.087c0.084-0.041,0.119-0.142,0.078-0.226
		c0,0,0-0.001-0.001-0.001c-0.03-0.085-0.124-0.128-0.208-0.098c-0.007,0.003-0.014,0.006-0.021,0.009
		c-0.087,0.037-0.128,0.137-0.091,0.224C497.461,318.256,497.462,318.258,497.462,318.26L497.462,318.26z M495.699,314.397
		c0.042,0.091,0.149,0.131,0.24,0.089c0.091-0.042,0.131-0.149,0.089-0.24c0-0.001-0.001-0.002-0.001-0.003
		c-0.048-0.088-0.159-0.12-0.247-0.071C495.701,314.216,495.666,314.312,495.699,314.397z M493.948,310.533
		c0.036,0.087,0.137,0.128,0.223,0.091c0.002-0.001,0.004-0.002,0.006-0.002c0.056-0.029,0.093-0.084,0.1-0.146
		c0.008-0.032,0.003-0.066-0.013-0.095c-0.041-0.085-0.141-0.124-0.229-0.089c-0.037,0.018-0.066,0.047-0.085,0.084l0.002,0.012
		C493.922,310.431,493.92,310.488,493.948,310.533L493.948,310.533z M464.573,306.337c0.025,0.106,0.131,0.172,0.237,0.148
		c0.108-0.025,0.178-0.13,0.16-0.239c-0.028-0.109-0.139-0.174-0.248-0.146c0,0-0.001,0-0.001,0
		c-0.104,0.021-0.171,0.123-0.15,0.227C464.572,306.33,464.572,306.334,464.573,306.337L464.573,306.337z M471.602,324.235
		c0.089,0.058,0.207,0.033,0.265-0.056c0.001-0.002,0.002-0.003,0.003-0.005c0.061-0.089,0.039-0.211-0.05-0.272
		c-0.004-0.003-0.008-0.006-0.013-0.008c-0.089-0.058-0.207-0.033-0.265,0.056c-0.001,0.002-0.002,0.003-0.003,0.005
		C471.481,324.05,471.509,324.174,471.602,324.235L471.602,324.235z M474.205,320.154c0.095,0.059,0.221,0.03,0.28-0.065
		c0.059-0.094,0.031-0.218-0.062-0.278c-0.089-0.058-0.207-0.033-0.265,0.056c-0.001,0.002-0.002,0.003-0.003,0.005
		c-0.065,0.086-0.048,0.208,0.038,0.273C474.196,320.148,474.201,320.151,474.205,320.154L474.205,320.154z M476.819,316.071
		c0.085,0.048,0.192,0.034,0.26-0.036c0.01-0.013,0.022-0.015,0.02-0.027c0.06-0.095,0.032-0.22-0.063-0.28
		c-0.095-0.06-0.22-0.032-0.28,0.063C476.696,315.885,476.724,316.011,476.819,316.071L476.819,316.071z M479.433,311.988
		c0.095,0.06,0.22,0.032,0.28-0.063c0.06-0.095,0.032-0.22-0.063-0.28l0,0c-0.058-0.039-0.133-0.043-0.194-0.009
		c-0.024,0.003-0.034,0.017-0.046,0.018l-0.041,0.054C479.312,311.803,479.34,311.927,479.433,311.988L479.433,311.988z
		 M491.602,327.693c0.017,0.102,0.113,0.17,0.214,0.153c0.008-0.001,0.015-0.003,0.023-0.005c0.106-0.025,0.172-0.131,0.148-0.237
		c-0.029-0.105-0.131-0.174-0.239-0.16c-0.109,0.028-0.174,0.139-0.146,0.248C491.602,327.693,491.602,327.693,491.602,327.693
		L491.602,327.693z M490.55,322.962c0.028,0.109,0.139,0.174,0.248,0.147c0,0,0.001,0,0.001,0c0.106-0.025,0.172-0.131,0.148-0.237
		c-0.029-0.105-0.131-0.174-0.239-0.16C490.599,322.742,490.531,322.85,490.55,322.962L490.55,322.962z M489.52,318.215
		c0.012,0.103,0.105,0.178,0.209,0.166c0.01-0.001,0.02-0.003,0.03-0.006c0.106-0.025,0.172-0.131,0.148-0.237
		c-0.029-0.105-0.131-0.174-0.239-0.16C489.562,318.003,489.496,318.109,489.52,318.215L489.52,318.215z M488.479,313.482
		c0.012,0.103,0.105,0.177,0.209,0.166c0.01-0.001,0.02-0.003,0.03-0.006c0.106-0.025,0.172-0.131,0.148-0.237
		c-0.025-0.108-0.129-0.178-0.239-0.16C488.521,313.27,488.456,313.375,488.479,313.482L488.479,313.482z M466.079,315.305
		c0.059,0.094,0.183,0.122,0.277,0.062c0.003-0.002,0.006-0.004,0.008-0.005c0.086-0.069,0.105-0.191,0.045-0.283
		c-0.063-0.09-0.188-0.112-0.278-0.049c-0.002,0.001-0.004,0.003-0.005,0.004C466.039,315.096,466.018,315.217,466.079,315.305
		L466.079,315.305z M470.056,312.539c0.062,0.087,0.183,0.108,0.271,0.047c0.094-0.059,0.122-0.183,0.062-0.277
		c-0.002-0.003-0.004-0.006-0.006-0.008c-0.066-0.09-0.193-0.11-0.283-0.044C470.011,312.322,469.991,312.448,470.056,312.539
		L470.056,312.539z M474.031,309.761c0.055,0.087,0.17,0.112,0.257,0.057c0.005-0.003,0.01-0.007,0.014-0.01
		c0.09-0.054,0.12-0.171,0.066-0.262c-0.002-0.004-0.005-0.008-0.007-0.011c-0.059-0.094-0.182-0.122-0.276-0.063
		c-0.094,0.059-0.122,0.182-0.063,0.276C474.025,309.752,474.028,309.756,474.031,309.761L474.031,309.761z M481.674,325.479
		c0.023,0.017,0.05,0.03,0.077,0.037c0.107,0.02,0.209-0.051,0.229-0.158c0-0.002,0.001-0.005,0.001-0.007
		c0.017-0.105-0.049-0.206-0.153-0.232l-0.012,0.002c-0.107-0.02-0.209,0.051-0.229,0.157c0,0.002-0.001,0.005-0.001,0.007
		C481.572,325.362,481.607,325.44,481.674,325.479L481.674,325.479z M482.443,320.507c-0.022,0.105,0.045,0.209,0.15,0.231
		c0.001,0,0.002,0,0.003,0.001c0.109,0.019,0.215-0.047,0.244-0.154c0.014-0.111-0.057-0.215-0.166-0.242
		C482.564,320.325,482.462,320.398,482.443,320.507L482.443,320.507z M483.289,315.741c-0.018,0.109,0.055,0.212,0.164,0.23
		c0.109,0.018,0.212-0.055,0.23-0.164s-0.055-0.212-0.164-0.23c0,0,0,0,0,0c-0.107-0.02-0.209,0.051-0.229,0.158
		C483.29,315.737,483.289,315.739,483.289,315.741L483.289,315.741z M484.133,310.964c-0.018,0.109,0.056,0.212,0.164,0.23
		c0.099,0.026,0.201-0.033,0.228-0.132c0.002-0.007,0.003-0.013,0.004-0.02c0.022-0.105-0.045-0.209-0.15-0.231
		c-0.001,0-0.002,0-0.003-0.001c-0.109-0.025-0.218,0.044-0.243,0.153C484.133,310.963,484.133,310.964,484.133,310.964
		L484.133,310.964z M499.767,321.602c0.063,0.09,0.187,0.112,0.278,0.049c0.002-0.001,0.004-0.003,0.006-0.004
		c0.087-0.062,0.108-0.183,0.047-0.271c-0.054-0.09-0.171-0.12-0.262-0.066c-0.004,0.002-0.008,0.005-0.011,0.007
		C499.731,321.38,499.706,321.507,499.767,321.602L499.767,321.602z M497.001,317.625c0.055,0.087,0.171,0.112,0.257,0.057
		c0.005-0.003,0.01-0.006,0.014-0.01c0.09-0.054,0.12-0.171,0.066-0.261c-0.002-0.004-0.005-0.008-0.007-0.012
		c-0.064-0.094-0.19-0.119-0.285-0.057C496.956,317.407,496.935,317.534,497.001,317.625
		C497.001,317.625,497.001,317.625,497.001,317.625L497.001,317.625z M494.223,313.65c0.063,0.091,0.188,0.113,0.279,0.049
		c0.089-0.062,0.112-0.185,0.051-0.276c-0.059-0.094-0.183-0.122-0.276-0.063c-0.003,0.002-0.006,0.004-0.008,0.006
		C494.183,313.436,494.163,313.558,494.223,313.65L494.223,313.65z M464.378,312.843c0.118,0.151,0.336,0.178,0.487,0.06
		c0.146-0.114,0.177-0.323,0.07-0.474c-0.112-0.152-0.326-0.187-0.48-0.078C464.302,312.469,464.269,312.685,464.378,312.843
		L464.378,312.843z M471.093,307.939c0.111,0.154,0.326,0.189,0.48,0.078c0.154-0.111,0.189-0.326,0.078-0.48l0,0
		c-0.112-0.152-0.326-0.187-0.48-0.078C471.021,307.573,470.987,307.784,471.093,307.939L471.093,307.939z M475.312,337.294
		c-0.031,0.187,0.096,0.364,0.283,0.394c0.187,0.031,0.364-0.096,0.394-0.283c0.031-0.187-0.096-0.364-0.283-0.394
		C475.52,336.981,475.344,337.107,475.312,337.294L475.312,337.294z M476.597,329.084c-0.024,0.189,0.107,0.364,0.295,0.393
		c0.187,0.023,0.358-0.11,0.381-0.297s-0.11-0.358-0.297-0.381C476.794,328.775,476.626,328.902,476.597,329.084z M477.893,320.872
		c-0.031,0.187,0.096,0.364,0.283,0.394s0.364-0.096,0.394-0.283s-0.096-0.364-0.283-0.394S477.924,320.685,477.893,320.872
		L477.893,320.872z M479.177,312.661c-0.024,0.189,0.107,0.364,0.295,0.393c0.187,0.025,0.359-0.106,0.384-0.293
		c0.025-0.184-0.102-0.354-0.285-0.383C479.385,312.348,479.209,312.475,479.177,312.661L479.177,312.661z M508.092,337.55
		c0.118,0.152,0.334,0.185,0.492,0.076c0.151-0.118,0.178-0.336,0.06-0.487c-0.114-0.146-0.323-0.177-0.474-0.07
		C508.02,337.183,507.986,337.395,508.092,337.55L508.092,337.55z M503.201,330.833c0.113,0.15,0.325,0.185,0.48,0.078
		c0.155-0.11,0.191-0.325,0.08-0.48s-0.325-0.191-0.48-0.08c-0.001,0.001-0.002,0.001-0.003,0.002
		C503.127,330.465,503.092,330.678,503.201,330.833L503.201,330.833z M498.309,324.116c0.112,0.152,0.326,0.187,0.48,0.078
		c0.152-0.118,0.185-0.334,0.076-0.492c-0.118-0.151-0.336-0.178-0.487-0.06C498.232,323.756,498.202,323.964,498.309,324.116
		L498.309,324.116z M493.417,317.398c0.112,0.152,0.326,0.187,0.48,0.078c0.15-0.119,0.184-0.333,0.076-0.492
		c-0.111-0.15-0.322-0.182-0.472-0.072c-0.002,0.002-0.005,0.004-0.007,0.005c-0.152,0.099-0.195,0.303-0.096,0.456
		C493.405,317.382,493.411,317.391,493.417,317.398L493.417,317.398z M488.514,310.683c0.118,0.151,0.336,0.178,0.487,0.06
		c0.146-0.114,0.177-0.323,0.07-0.475c-0.112-0.152-0.326-0.187-0.48-0.078C488.438,310.309,488.405,310.525,488.514,310.683
		L488.514,310.683z M467.801,322.088c0.164,0.1,0.378,0.049,0.478-0.114s0.049-0.378-0.114-0.478
		c-0.164-0.1-0.377-0.049-0.478,0.114C467.591,321.774,467.641,321.985,467.801,322.088z M472.129,314.986
		c0.157,0.105,0.369,0.063,0.474-0.094c0.002-0.003,0.004-0.006,0.005-0.008c0.097-0.164,0.046-0.375-0.114-0.478
		c-0.161-0.101-0.373-0.053-0.474,0.108c-0.001,0.002-0.002,0.004-0.004,0.006C471.919,314.68,471.97,314.888,472.129,314.986
		L472.129,314.986z M476.47,307.894c0.161,0.101,0.374,0.052,0.475-0.11c0.001-0.002,0.002-0.003,0.003-0.005
		c0.091-0.152,0.043-0.35-0.109-0.443c-0.002-0.012-0.002-0.012-0.015-0.022c-0.148-0.093-0.343-0.056-0.446,0.086l-0.02,0.027
		c-0.099,0.153-0.056,0.357,0.097,0.456C476.46,307.888,476.465,307.891,476.47,307.894L476.47,307.894z M490.361,341.257
		c0.054,0.181,0.236,0.291,0.421,0.255c0.181-0.051,0.289-0.237,0.243-0.419c-0.04-0.182-0.22-0.298-0.402-0.258
		c-0.002,0-0.004,0.001-0.007,0.002C490.429,340.882,490.315,341.07,490.361,341.257
		C490.361,341.256,490.361,341.257,490.361,341.257z M488.41,333.169c0.046,0.186,0.233,0.301,0.42,0.255c0,0,0.001,0,0.001,0
		c0.18-0.045,0.29-0.227,0.245-0.407c0,0,0,0,0,0c-0.042-0.184-0.226-0.298-0.409-0.256
		C488.483,332.803,488.369,332.986,488.41,333.169z M486.462,325.093c0.04,0.182,0.22,0.298,0.402,0.258
		c0.002,0,0.005-0.001,0.007-0.002c0.188-0.04,0.308-0.224,0.268-0.411c-0.04-0.188-0.224-0.308-0.411-0.268
		c-0.188,0.04-0.308,0.224-0.268,0.411C486.46,325.085,486.461,325.089,486.462,325.093z M484.513,317.017
		c0.049,0.182,0.236,0.291,0.419,0.242c0.178-0.047,0.286-0.227,0.245-0.406c-0.043-0.183-0.225-0.297-0.409-0.257
		C484.582,316.642,484.467,316.83,484.513,317.017C484.513,317.017,484.513,317.017,484.513,317.017L484.513,317.017z
		 M465.124,316.666c0.16,0.097,0.368,0.058,0.481-0.091c0.1-0.162,0.055-0.373-0.102-0.48c-0.147-0.106-0.352-0.073-0.459,0.074
		c-0.004,0.005-0.007,0.01-0.011,0.016c-0.108,0.155-0.07,0.369,0.085,0.477C465.12,316.663,465.122,316.664,465.124,316.666
		L465.124,316.666z M469.736,309.789c0.161,0.1,0.373,0.055,0.48-0.102c0.1-0.157,0.055-0.366-0.101-0.468
		c-0.147-0.106-0.352-0.074-0.458,0.073c-0.004,0.005-0.008,0.011-0.011,0.016c-0.108,0.155-0.071,0.369,0.084,0.477
		C469.732,309.786,469.734,309.788,469.736,309.789L469.736,309.789z M485.323,343.929c0.042,0.183,0.225,0.298,0.408,0.256
		c0.183-0.042,0.298-0.225,0.256-0.408c-0.041-0.179-0.216-0.293-0.396-0.259C485.404,343.558,485.284,343.742,485.323,343.929z
		 M483.717,335.806c0.039,0.187,0.223,0.307,0.41,0.268c0.181-0.041,0.299-0.215,0.27-0.399c-0.043-0.187-0.222-0.309-0.412-0.28
		C483.801,335.439,483.683,335.619,483.717,335.806z M482.111,327.682c0.039,0.187,0.223,0.307,0.41,0.268
		c0.185-0.036,0.306-0.214,0.27-0.399c-0.036-0.185-0.214-0.306-0.399-0.27C482.207,327.319,482.083,327.495,482.111,327.682
		L482.111,327.682z M480.517,319.557c0.029,0.18,0.197,0.303,0.377,0.274c0.007-0.001,0.014-0.003,0.021-0.004
		c0.184-0.037,0.304-0.214,0.27-0.399c-0.034-0.185-0.212-0.307-0.397-0.273s-0.307,0.212-0.273,0.397
		C480.517,319.554,480.517,319.556,480.517,319.557L480.517,319.557z M478.911,311.434c0.033,0.183,0.208,0.304,0.391,0.271
		c0.003,0,0.005-0.001,0.008-0.002c0.038-0.006,0.073-0.024,0.101-0.05c0.012-0.002,0.022-0.015,0.046-0.018
		c0.103-0.076,0.151-0.205,0.123-0.33c-0.036-0.185-0.214-0.306-0.399-0.27C478.997,311.071,478.876,311.249,478.911,311.434
		L478.911,311.434L478.911,311.434z M500.72,315.605c0.161,0.1,0.373,0.055,0.48-0.102c0.1-0.157,0.055-0.366-0.101-0.468
		c-0.147-0.106-0.352-0.073-0.459,0.074c-0.004,0.005-0.007,0.01-0.011,0.016c-0.108,0.155-0.071,0.369,0.084,0.477
		C500.716,315.602,500.718,315.604,500.72,315.605L500.72,315.605z M493.709,310.807c0.014,0.063,0.052,0.118,0.106,0.154
		c0.002,0.012,0.015,0.022,0.029,0.032c0.152,0.109,0.364,0.074,0.473-0.078c0.097-0.136,0.081-0.323-0.039-0.439
		c-0.012-0.023-0.032-0.042-0.055-0.053c-0.08-0.052-0.178-0.069-0.271-0.047l0.002,0.012c-0.082,0.01-0.155,0.055-0.2,0.124
		C493.692,310.598,493.676,310.707,493.709,310.807L493.709,310.807z M469.723,331.191c-0.035,0.183,0.085,0.36,0.269,0.395
		c0.001,0,0.002,0,0.003,0.001c0.185,0.04,0.368-0.077,0.409-0.261c0.035-0.188-0.087-0.369-0.273-0.408
		C469.944,330.886,469.765,331.006,469.723,331.191L469.723,331.191z M471.356,323.065c-0.04,0.184,0.077,0.366,0.262,0.406
		c0.184,0.04,0.366-0.077,0.406-0.262c0.001-0.003,0.001-0.005,0.002-0.008c0.032-0.187-0.088-0.366-0.273-0.408
		c-0.183-0.035-0.36,0.085-0.395,0.269C471.357,323.063,471.357,323.064,471.356,323.065L471.356,323.065z M472.979,314.952
		c-0.031,0.189,0.097,0.368,0.286,0.399c0.181,0.03,0.354-0.086,0.395-0.265c0.037-0.188-0.085-0.371-0.273-0.408
		C473.199,314.642,473.017,314.764,472.979,314.952z M499.284,333.687c0.109,0.157,0.324,0.197,0.482,0.09
		c0.155-0.105,0.196-0.315,0.091-0.47c-0.096-0.158-0.302-0.207-0.459-0.111c-0.004,0.003-0.008,0.005-0.013,0.008
		c-0.161,0.101-0.209,0.314-0.108,0.474C499.28,333.681,499.282,333.684,499.284,333.687L499.284,333.687z M494.694,326.796
		c0.109,0.157,0.324,0.197,0.482,0.09c0.155-0.105,0.196-0.315,0.091-0.47c-0.096-0.158-0.302-0.207-0.459-0.111
		c-0.004,0.003-0.008,0.005-0.013,0.008c-0.161,0.101-0.209,0.314-0.108,0.474C494.69,326.79,494.692,326.793,494.694,326.796
		L494.694,326.796z M490.103,319.904c0.109,0.157,0.324,0.197,0.482,0.09c0.155-0.105,0.196-0.315,0.091-0.47
		c-0.104-0.159-0.317-0.205-0.476-0.101c-0.159,0.104-0.205,0.317-0.101,0.476C490.101,319.901,490.102,319.903,490.103,319.904
		L490.103,319.904z M485.512,313.013c0.11,0.155,0.323,0.195,0.482,0.09c0.155-0.105,0.196-0.315,0.091-0.47
		c-0.106-0.153-0.312-0.198-0.472-0.103c-0.161,0.104-0.208,0.319-0.104,0.48C485.511,313.011,485.512,313.012,485.512,313.013
		L485.512,313.013z M466.322,312.706c0.134,0.056,0.287-0.007,0.342-0.141c0.056-0.134-0.007-0.287-0.141-0.342
		c-0.001-0.001-0.002-0.001-0.004-0.002c-0.129-0.052-0.276,0.01-0.328,0.139c0,0.001-0.001,0.002-0.001,0.003
		C466.135,312.495,466.193,312.646,466.322,312.706L466.322,312.706z M468.65,306.905c0.129,0.052,0.276-0.01,0.328-0.139
		c0-0.001,0.001-0.002,0.001-0.003c0.056-0.132-0.006-0.283-0.137-0.339c-0.002-0.001-0.004-0.002-0.006-0.003
		c-0.128-0.05-0.273,0.013-0.323,0.141c-0.002,0.004-0.003,0.009-0.005,0.013c-0.055,0.124,0.002,0.269,0.126,0.323
		C468.639,306.901,468.645,306.903,468.65,306.905L468.65,306.905z M485.501,329.634c0.058,0.131,0.211,0.19,0.341,0.133
		c0.127-0.056,0.187-0.202,0.137-0.331c-0.048-0.128-0.191-0.192-0.319-0.144c-0.008,0.003-0.016,0.007-0.024,0.011
		C485.509,329.358,485.449,329.505,485.501,329.634L485.501,329.634z M483.046,323.904c0.058,0.132,0.212,0.191,0.344,0.133
		s0.191-0.212,0.133-0.344c-0.055-0.13-0.205-0.192-0.335-0.137c-0.003,0.001-0.006,0.002-0.008,0.004
		C483.049,323.62,482.99,323.772,483.046,323.904L483.046,323.904z M480.589,318.162c0.058,0.132,0.212,0.191,0.344,0.133
		s0.191-0.212,0.133-0.344s-0.212-0.191-0.344-0.133l0,0C480.593,317.879,480.534,318.031,480.589,318.162L480.589,318.162z
		 M478.133,312.421c0.051,0.128,0.196,0.189,0.324,0.138c0.003-0.001,0.005-0.002,0.008-0.003c0.132-0.051,0.198-0.199,0.147-0.331
		c0-0.001-0.001-0.002-0.001-0.002c-0.057-0.134-0.21-0.198-0.345-0.145c-0.13,0.055-0.192,0.205-0.137,0.335
		C478.13,312.415,478.131,312.418,478.133,312.421L478.133,312.421z M472.263,329.009c0.005,0.142,0.122,0.254,0.264,0.253
		c0.14-0.01,0.249-0.124,0.253-0.264c-0.002-0.142-0.119-0.255-0.261-0.253c-0.001,0-0.002,0-0.002,0
		c-0.138-0.002-0.251,0.108-0.253,0.245C472.263,328.997,472.263,329.003,472.263,329.009z M472.181,322.758
		c0.006,0.144,0.121,0.259,0.265,0.264c0.142-0.002,0.255-0.119,0.253-0.261c0-0.001,0-0.002,0-0.002
		c0.003-0.137-0.105-0.251-0.243-0.254c-0.003,0-0.006,0-0.009,0c-0.142-0.005-0.261,0.107-0.266,0.25
		C472.181,322.755,472.181,322.757,472.181,322.758L472.181,322.758z M472.112,316.518c-0.002,0.138,0.108,0.251,0.245,0.253
		c0.006,0,0.012,0,0.019,0c0.136,0.004,0.25-0.103,0.254-0.239c0-0.004,0-0.009,0-0.013c-0.006-0.144-0.121-0.259-0.265-0.264
		c-0.142,0.002-0.255,0.119-0.253,0.261C472.112,316.516,472.112,316.517,472.112,316.518L472.112,316.518z M472.031,310.279
		c0.002,0.142,0.119,0.255,0.261,0.253c0.001,0,0.002,0,0.003,0c0.138,0.002,0.251-0.108,0.253-0.245c0-0.006,0-0.013,0-0.019
		c0.001-0.139-0.111-0.253-0.251-0.254c0,0-0.001,0-0.001,0C472.152,310.019,472.037,310.135,472.031,310.279L472.031,310.279z
		 M494.374,319.964c0.097,0.099,0.256,0.101,0.355,0.004c0.002-0.002,0.004-0.004,0.006-0.006c0.102-0.096,0.107-0.257,0.011-0.359
		c-0.005-0.005-0.009-0.01-0.014-0.014c-0.107-0.095-0.271-0.086-0.366,0.021C494.275,319.711,494.279,319.866,494.374,319.964
		L494.374,319.964z M489.906,315.608c0.108,0.098,0.274,0.091,0.373-0.017c0.093-0.102,0.092-0.259-0.003-0.36
		c-0.104-0.102-0.271-0.1-0.373,0.003C489.801,315.339,489.802,315.506,489.906,315.608z M485.448,311.24
		c0.097,0.099,0.256,0.101,0.355,0.004c0.002-0.002,0.004-0.004,0.006-0.006c0.096-0.102,0.095-0.26-0.002-0.361
		c-0.097-0.102-0.258-0.106-0.361-0.009c-0.004,0.004-0.008,0.008-0.012,0.013c-0.096,0.099-0.093,0.257,0.006,0.353
		C485.443,311.235,485.445,311.238,485.448,311.24L485.448,311.24z M470.695,315.244c0.012,0.078,0.083,0.132,0.161,0.122
		c0.078-0.011,0.133-0.083,0.122-0.162s-0.083-0.133-0.162-0.122c-0.004,0.001-0.008,0.001-0.012,0.002
		C470.733,315.101,470.685,315.17,470.695,315.244L470.695,315.244z M470.111,311.893c0.012,0.074,0.082,0.123,0.156,0.111
		c0.001,0,0.003,0,0.004-0.001c0.07-0.007,0.121-0.07,0.114-0.141c-0.001-0.006-0.002-0.013-0.003-0.019
		c-0.007-0.076-0.075-0.131-0.151-0.124c-0.004,0-0.007,0.001-0.011,0.001C470.146,311.744,470.1,311.817,470.111,311.893z
		 M469.525,308.53c0.008,0.076,0.075,0.131,0.151,0.124c0.004,0,0.007-0.001,0.011-0.001c0.077-0.018,0.125-0.094,0.109-0.172
		c-0.014-0.075-0.085-0.124-0.16-0.11S469.512,308.455,469.525,308.53L469.525,308.53z M464.388,309.867
		c-0.015,0.075,0.033,0.149,0.107,0.166c0.078,0.014,0.155-0.033,0.178-0.109c0.015-0.075-0.033-0.149-0.107-0.166
		C464.487,309.746,464.412,309.792,464.388,309.867L464.388,309.867z M465.131,306.537c-0.015,0.075,0.033,0.149,0.107,0.166
		c0.074,0.022,0.152-0.02,0.174-0.094c0.001-0.005,0.003-0.01,0.004-0.015c0.015-0.075-0.033-0.149-0.107-0.166
		C465.231,306.416,465.156,306.462,465.131,306.537L465.131,306.537z M476.537,311.16c0.039,0.064,0.123,0.085,0.187,0.046
		c0.067-0.042,0.087-0.131,0.045-0.198c0,0,0,0,0-0.001c-0.037-0.064-0.119-0.086-0.183-0.049c-0.001,0.001-0.003,0.001-0.004,0.002
		C476.514,311.004,476.494,311.092,476.537,311.16C476.537,311.16,476.537,311.16,476.537,311.16z M474.706,308.283
		c0.042,0.067,0.131,0.087,0.198,0.045c0,0,0.001,0,0.001-0.001c0.067-0.042,0.088-0.131,0.046-0.199s-0.131-0.088-0.199-0.046
		c0,0-0.001,0-0.001,0.001C474.683,308.126,474.663,308.215,474.706,308.283C474.705,308.282,474.706,308.282,474.706,308.283
		L474.706,308.283z M474.685,320.75c0.071,0.107,0.215,0.135,0.322,0.064c0,0,0,0,0,0c0.102-0.059,0.137-0.189,0.078-0.291
		c-0.004-0.007-0.008-0.013-0.013-0.019c-0.058-0.106-0.19-0.145-0.296-0.087c-0.005,0.003-0.011,0.006-0.016,0.01
		c-0.109,0.062-0.146,0.201-0.084,0.31C474.679,320.741,474.682,320.745,474.685,320.75L474.685,320.75z M471.686,315.962
		c0.058,0.106,0.19,0.145,0.296,0.087c0.005-0.003,0.011-0.006,0.016-0.01c0.109-0.062,0.147-0.201,0.084-0.31
		c-0.003-0.005-0.005-0.009-0.008-0.014c-0.069-0.109-0.213-0.143-0.324-0.076c-0.106,0.066-0.137,0.206-0.071,0.311
		C471.681,315.955,471.684,315.959,471.686,315.962L471.686,315.962z M468.677,311.188c0.07,0.107,0.213,0.141,0.324,0.076
		c0.109-0.065,0.145-0.207,0.08-0.316c-0.001-0.003-0.003-0.005-0.005-0.008c-0.069-0.109-0.213-0.143-0.324-0.076
		C468.645,310.935,468.612,311.078,468.677,311.188L468.677,311.188z M465.68,306.413c0.074,0.103,0.212,0.135,0.324,0.076
		c0.106-0.072,0.139-0.212,0.076-0.324c-0.065-0.109-0.207-0.145-0.316-0.08c-0.003,0.001-0.005,0.003-0.007,0.005
		C465.646,306.158,465.612,306.302,465.68,306.413L465.68,306.413z M481.066,310.822c0.102,0.076,0.247,0.054,0.323-0.048
		c0.002-0.003,0.005-0.006,0.007-0.01c0.072-0.106,0.044-0.251-0.062-0.322c-0.101-0.068-0.237-0.047-0.313,0.049
		C480.945,310.596,480.965,310.742,481.066,310.822L481.066,310.822z"/>
	
		<linearGradient id="sweater_1_" gradientUnits="userSpaceOnUse" x1="508.5245" y1="498.5613" x2="509.9662" y2="366.4063" gradientTransform="matrix(1 0 0 -1 0 722)">
		<stop  offset="0" style="stop-color:#23286B"/>
		<stop  offset="1" style="stop-color:#151A4F"/>
	</linearGradient>
	<path id="sweater" style="fill:url(#sweater_1_);" d="M572.392,193.374c0,0-22.349-1.583-48.083,8.905
		s-27.683,19.794-42.287,26.374s-52.334,16.155-51.031,58.162c0,0,21.466,27.533,102.222,23.786l53.376-103.381
		C586.588,207.219,576.183,205.604,572.392,193.374z"/>
	
		<linearGradient id="R_hand_1_" gradientUnits="userSpaceOnUse" x1="676.5596" y1="361.4928" x2="620.4641" y2="393.1597" gradientTransform="matrix(1 0 0 -1 0 722)">
		<stop  offset="0" style="stop-color:#FFBEB6"/>
		<stop  offset="1" style="stop-color:#F2A19C"/>
	</linearGradient>
	<path id="R_hand" style="fill:url(#R_hand_1_);" d="M700.01,372.61c-10.84,2.05-10.25-2.93-19.33-3.51
		c-5.22-0.34-45.57-3.61-62.75-5.98l8.9-35.72c6.43,3.22,29.91,16.32,35.11,17.68c15.85,4.15,20.44,5.81,23.45,3.4
		c1.895-1.424,4.149-2.293,6.51-2.51l7.52-0.89c6.45-3.22,7.33-5.27,9.96,0C712.02,350.35,710.85,370.56,700.01,372.61z"/>
	<path id="R_sleeve" style="fill:#23286B;" d="M588.409,205.034c0,0-10.872,35.364-9.15,59.345s4.582,32.12,22.174,42.997
		c13.731,8.49,26.539,15.45,26.539,15.45l-16.826,67.481c0,0-23.717-3.449-34.492-20.498c-12.118-19.174-22.254-19.997-33.073-23.37
		s-32.951-17.1-27.566-53.407s19.119-62.6,53.958-99.75l0,0"/>
	
		<linearGradient id="neck_1_" gradientUnits="userSpaceOnUse" x1="569.7415" y1="512.6362" x2="591.7658" y2="536.4225" gradientTransform="matrix(1 0 0 -1 0 722)">
		<stop  offset="0" style="stop-color:#FFBEB6"/>
		<stop  offset="1" style="stop-color:#F2A19C"/>
	</linearGradient>
	<path id="neck" style="fill:url(#neck_1_);" d="M599.07,190.17c-2.83,3.62-8.91,11.54-10.66,14.86c0,0-11.23,5.68-18.43-11.75
		c0-0.13,8.94-3.9,13.3-7.52C588.159,188.363,593.548,189.869,599.07,190.17z"/>
	<path id="face" style="fill:#FFBEB6;" d="M625.57,172.33c-0.58,0.155-1.061,0.559-1.315,1.102
		c-2.224,4.702-14.043,25.888-41.164,12.238c0,0-0.12-0.05-0.34-0.16l0.006,0.002c1.045,0.288,2.132-0.29,2.478-1.317
		c0.384-1.173,0.265-3.285-1.364-7.085c-3.73-8.71,1.09-13.69,4.04-12.29c2.96,1.4,5.45,13.37,9.64,7.62
		c2.876-3.937,2.69-9.561,4.146-12.654c0.27-0.546,0.771-0.941,1.365-1.076L622,154.08c0.108,0.395,0.194,0.796,0.259,1.201
		c0.021,0.138,0.057,0.274,0.107,0.405c0.482,1.225,3.204,7.865,6.394,9.995C632.099,167.903,630.705,171.002,625.57,172.33z"/>
	<path id="hair" style="fill:#23286B;" d="M569.56,166.88l32.64-7.96c-2.03,2.79-1.48,9.18-4.65,13.52
		c-4.19,5.75-6.68-6.22-9.64-7.62c-2.95-1.4-7.77,3.58-4.04,12.29c3.73,8.7-0.46,8.55-0.46,8.55
		C574.05,184.03,570.35,170.34,569.56,166.88z"/>
	<path id="mouth" style="fill:#1C2868;" d="M623.145,180.371c-1.395,2.098-4.226,2.668-6.324,1.273
		c-0.76-0.505-1.35-1.226-1.696-2.071c-0.268-0.641,0.683-1.178,0.954-0.529c0.659,1.801,2.653,2.728,4.454,2.069
		c0.679-0.248,1.264-0.703,1.673-1.299C622.61,179.245,623.552,179.797,623.145,180.371L623.145,180.371z"/>
	<path id="cap_bottom" style="fill:#F1B505;" d="M651.074,146.992l-81.84,19.965l0,0l-0.738-3.025l0,0l79.938-19.501
		c1.05-0.256,2.11,0.388,2.366,1.438c0,0,0,0,0,0L651.074,146.992L651.074,146.992z"/>
	
		<linearGradient id="cap_top_1_" gradientUnits="userSpaceOnUse" x1="616.3049" y1="591.2212" x2="543.9236" y2="537.8753" gradientTransform="matrix(1 0 0 -1 -1.631821e-05 722.0001)">
		<stop  offset="0" style="stop-color:#F1B505"/>
		<stop  offset="1" style="stop-color:#D69B09"/>
	</linearGradient>
	<path id="cap_top" style="fill:url(#cap_top_1_);" d="M621.599,150.961l-53.113,12.957l0,0l-1.467-6.014
		c-2.552-10.459,3.859-21.006,14.318-23.558l14.449-3.525c10.895-2.658,21.881,4.02,24.539,14.914L621.599,150.961L621.599,150.961z
		"/>
</g>
</svg>
