<?xml version="1.0" encoding="utf-8"?>
<!-- Generator: Adobe Illustrator 23.0.2, SVG Export Plug-In . SVG Version: 6.00 Build 0)  -->
<svg version="1.1" id="illustration" xmlns="http://www.w3.org/2000/svg" xmlns:xlink="http://www.w3.org/1999/xlink" x="0px" y="0px" viewBox="0 0 900 600" style="enable-background:new 0 0 900 600;" xml:space="preserve">

<g id="test_tube">
	
		<linearGradient id="test_tube-2_1_" gradientUnits="userSpaceOnUse" x1="554.975" y1="122.7173" x2="545.3271" y2="409.2602" gradientTransform="matrix(1 0 0 -1 0 602)">
		<stop offset="0" style="stop-color:#A1C3FC"/>
		<stop offset="0.6955" style="stop-color:#81AEF2"/>
		<stop offset="1" style="stop-color:#78A9EF"/>
	</linearGradient>
	<path id="test_tube-2" d="M684.8,525H428.3l40.3-81.5l23.8-48.1l15-30.3l9.9-20.1c13.1-29.1,12.2-43.1,12.2-43.1V253
		h54.2l0,49c0,0-1,13.8,12.2,43l9.9,20.1l4.9,9.9l10.1,20.4l18.7,37.8L684.8,525z" style="opacity:0.19;fill:url(#test_tube-2_1_);enable-background:new    ;"/>
	
		<linearGradient id="liquid_1_" gradientUnits="userSpaceOnUse" x1="542.3849" y1="154.4128" x2="586.1191" y2="-85.2504" gradientTransform="matrix(1 0 0 -1 0 602)">
		<stop offset="0.1291" style="stop-color:#428DFC"/>
		<stop offset="0.9987" style="stop-color:#1D72D8"/>
	</linearGradient>
	<path id="liquid" d="M684.8,525H428.3l40.3-81.5c4.8,4.7,21,18.1,44.6,15.6c28.5-2.9,38.2-29.4,41.9-49.5
		c3.7-19.8,29-41.5,55.4-34.6l10.1,20.4l18.7,37.8L684.8,525z" style="fill:url(#liquid_1_);"/>
	
		<linearGradient id="_1_1_" gradientUnits="userSpaceOnUse" x1="527.1436" y1="243.2881" x2="578.148" y2="243.2881" gradientTransform="matrix(1 0 0 -1 0 602)">
		<stop offset="0.1291" style="stop-color:#428DFC"/>
		<stop offset="0.9987" style="stop-color:#1D72D8"/>
	</linearGradient>
	<circle id="_1" cx="552.6" cy="358.7" r="24" style="fill:none;stroke:url(#_1_1_);stroke-width:3;stroke-miterlimit:10;"/>
	
		<linearGradient id="_2_1_" gradientUnits="userSpaceOnUse" x1="534.0874" y1="295.0042" x2="564.7706" y2="295.0042" gradientTransform="matrix(1 0 0 -1 0 602)">
		<stop offset="0.1291" style="stop-color:#428DFC"/>
		<stop offset="0.9987" style="stop-color:#1D72D8"/>
	</linearGradient>
	<circle id="_2" cx="549.4" cy="307" r="15.3" style="fill:url(#_2_1_);"/>
	
		<linearGradient id="_3_1_" gradientUnits="userSpaceOnUse" x1="534.5721" y1="362.271" x2="552.9035" y2="362.271" gradientTransform="matrix(1 0 0 -1 0 602)">
		<stop offset="0" style="stop-color:#A1C3FC"/>
		<stop offset="0.6955" style="stop-color:#81AEF2"/>
		<stop offset="1" style="stop-color:#78A9EF"/>
	</linearGradient>
	<circle id="_3" cx="543.7" cy="239.7" r="8.2" style="fill:none;stroke:url(#_3_1_);stroke-width:2;stroke-miterlimit:10;"/>
	
		<linearGradient id="_4_1_" gradientUnits="userSpaceOnUse" x1="550.4086" y1="381.4484" x2="564.9523" y2="381.4484" gradientTransform="matrix(1 0 0 -1 0 602)">
		<stop offset="0" style="stop-color:#A1C3FC"/>
		<stop offset="0.6955" style="stop-color:#81AEF2"/>
		<stop offset="1" style="stop-color:#78A9EF"/>
	</linearGradient>
	<circle id="_4" cx="557.7" cy="220.6" r="6.3" style="fill:none;stroke:url(#_4_1_);stroke-width:2;stroke-miterlimit:10;"/>
	
		<linearGradient id="_5_1_" gradientUnits="userSpaceOnUse" x1="523.7145" y1="404.606" x2="533.1179" y2="404.606" gradientTransform="matrix(1 0 0 -1 0 602)">
		<stop offset="0" style="stop-color:#A1C3FC"/>
		<stop offset="0.6955" style="stop-color:#81AEF2"/>
		<stop offset="1" style="stop-color:#78A9EF"/>
	</linearGradient>
	<circle id="_5" cx="528.4" cy="197.4" r="4.7" style="fill:url(#_5_1_);"/>
</g>
<g id="woman">
	
		<linearGradient id="L_hand_1_" gradientUnits="userSpaceOnUse" x1="385.4211" y1="404.2468" x2="383.6852" y2="327.4312" gradientTransform="matrix(1 0 0 -1 0 602)">
		<stop offset="0" style="stop-color:#FFBEB6"/>
		<stop offset="1" style="stop-color:#F2A19C"/>
	</linearGradient>
	<path id="L_hand" d="M397.6,215.7c-6.9,4-19,16.7-22.7,20c-3.1,2.5-6.3,4.7-9.8,6.6l-2.5-19.5c0,0,22.1-7.7,22.5-10.4
		c0.4-2.7,1.3-7.5,0.2-12.7s0.6-7.1,2.3-4.6s1.7,9.6,5.6,6.1c3.9-3.5,6-8.8,7.3-10.4c1.3-1.5,4.8-2.9,6.7,5.8
		C409.1,205.4,404.5,211.7,397.6,215.7z" style="fill:url(#L_hand_1_);"/>
	
		<linearGradient id="doc_1_" gradientUnits="userSpaceOnUse" x1="422.0478" y1="430.2423" x2="369.1014" y2="358.6345" gradientTransform="matrix(1 0 0 -1 0 602)">
		<stop offset="0" style="stop-color:#A1C3FC"/>
		<stop offset="0.6955" style="stop-color:#81AEF2"/>
		<stop offset="1" style="stop-color:#78A9EF"/>
	</linearGradient>
	<polygon id="doc" points="408.4,216.1 365.3,216.1 401.5,173.7 444.5,173.7 	" style="fill:url(#doc_1_);"/>
	
		<linearGradient id="R_hand_1_" gradientUnits="userSpaceOnUse" x1="425.5119" y1="404.4403" x2="357.376" y2="337.6063" gradientTransform="matrix(1 -8.175381e-03 -8.175381e-03 -1 3.2435 604.0849)">
		<stop offset="0" style="stop-color:#FFBEB6"/>
		<stop offset="1" style="stop-color:#F2A19C"/>
	</linearGradient>
	<path id="R_hand" d="M418.6,220c-8,7-13,10.7-19.5,18c-5.7,6.5-18.8,20.5-21.7,23.6l-5-26.1c0,0,22.9-5.2,25.2-11.6
		c2.2-6.4,4.5-19.5,5.6-22.9c1.1-3.5,4.6,0.4,4.5,3.2c-0.2,2.9-1.4,14.2,3.9,7.7s12.6-15,12.6-15S426.7,213,418.6,220z" style="fill:url(#R_hand_1_);"/>
	
		<linearGradient id="L_shoe_1_" gradientUnits="userSpaceOnUse" x1="411.9527" y1="57.1738" x2="302.3174" y2="101.5046" gradientTransform="matrix(1 0 0 -1 0 602)">
		<stop offset="0" style="stop-color:#A1C3FC"/>
		<stop offset="0.6955" style="stop-color:#81AEF2"/>
		<stop offset="1" style="stop-color:#78A9EF"/>
	</linearGradient>
	<path id="L_shoe" d="M317.1,493.2L305.7,525l80.4,0c0,0-4.1-8-17.9-13.8s-26.6-17.9-26.6-17.9H317.1" style="fill:url(#L_shoe_1_);"/>
	
		<linearGradient id="R_shoe_1_" gradientUnits="userSpaceOnUse" x1="294.2015" y1="74.5225" x2="170.2659" y2="124.5734" gradientTransform="matrix(1 0 0 -1 0 602)">
		<stop offset="0" style="stop-color:#A1C3FC"/>
		<stop offset="0.6955" style="stop-color:#81AEF2"/>
		<stop offset="1" style="stop-color:#78A9EF"/>
	</linearGradient>
	<path id="R_shoe" d="M241.7,493.2L230.3,525l80.4,0c0,0-4.1-8-17.9-13.8s-25.6-17.9-25.6-17.9L241.7,493.2" style="fill:url(#R_shoe_1_);"/>
	
		<linearGradient id="L_leg_1_" gradientUnits="userSpaceOnUse" x1="374.4644" y1="127.2482" x2="301.7307" y2="218.9185" gradientTransform="matrix(1 0 0 -1 0 602)">
		<stop offset="0" style="stop-color:#23286B"/>
		<stop offset="1" style="stop-color:#151A4F"/>
	</linearGradient>
	<path id="L_leg" d="M260.7,288.4c0,0-2.2,17,9.4,37.6s15.2,49.2,15.7,78.8s2.2,34.5,7.6,45.2s6.8,17.7,4.5,25.3
		s4.4,18,4.4,18h39.4c0,0-10.3-110-13.8-127s-19.7-84.6-19.7-84.6L260.7,288.4" style="fill:url(#L_leg_1_);"/>
	<path id="R_leg" d="M310.8,344.5c-2.3-28.3-5.1-57.7-5.1-57.7l-45.3-2.8c0,0-3.4,14.7,1.1,41.9
		c4.5,27.2,2.9,42-2.8,50.4c-7.5,11-9.7,17.9-12,36.6c-2.3,18.7-3.3,21.7-11.8,37.5c-8.3,15.4-8.5,27.1-3.3,42.8h35.5
		c4.6-10.9,36.5-87.6,39.6-103.4C310.2,372.9,313.1,372.9,310.8,344.5z" style="fill:#23286B;"/>
	<path id="texture" d="M277.3,360c0-0.1-0.1-0.1-0.2-0.1s-0.1,0.1-0.1,0.2s0.1,0.1,0.2,0.1c0,0,0,0,0,0
		C277.3,360.2,277.3,360.1,277.3,360C277.3,360,277.3,360,277.3,360z M275.7,356.1c0-0.1-0.1-0.1-0.2-0.1c0,0,0,0,0,0
		c-0.1,0-0.1,0.1-0.1,0.2c0,0.1,0.1,0.1,0.2,0.1C275.7,356.3,275.7,356.2,275.7,356.1C275.7,356.1,275.7,356.1,275.7,356.1z
		 M283.3,353.1c-0.1-0.1-0.2-0.1-0.2,0c-0.1,0.1-0.1,0.2,0,0.2c0.1,0.1,0.2,0.1,0.2,0c0,0,0,0,0,0
		C283.4,353.3,283.4,353.2,283.3,353.1C283.3,353.1,283.3,353.1,283.3,353.1L283.3,353.1z M268.2,359.5c-0.1,0-0.2,0.1-0.2,0.2
		c0,0.1,0.1,0.2,0.2,0.2s0.2-0.1,0.2-0.2C268.4,359.5,268.3,359.5,268.2,359.5z M268.2,355.2c-0.1,0-0.2,0.1-0.2,0.2
		c0,0.1,0.1,0.2,0.2,0.2c0,0,0,0,0,0c0.1,0,0.2-0.1,0.2-0.2c0,0,0,0,0,0C268.4,355.3,268.3,355.2,268.2,355.2L268.2,355.2z
		 M300.4,360.8c-0.1-0.1-0.3-0.1-0.5,0c0,0,0,0,0,0c-0.1,0.1-0.1,0.3,0,0.5c0,0,0,0,0,0c0.1,0.1,0.3,0.1,0.5,0c0,0,0,0,0,0
		C300.5,361.2,300.5,360.9,300.4,360.8C300.4,360.8,300.4,360.8,300.4,360.8L300.4,360.8z M294.3,355.5c-0.1-0.1-0.3-0.1-0.5,0
		c0,0,0,0,0,0c-0.1,0.1-0.1,0.4,0,0.5c0.1,0.1,0.4,0.1,0.5,0c0,0,0,0,0,0C294.4,355.9,294.4,355.7,294.3,355.5L294.3,355.5z
		 M275.8,381.2c-0.2,0-0.3,0.2-0.3,0.4c0,0.2,0.2,0.3,0.3,0.3c0,0,0,0,0,0c0.2,0,0.3-0.2,0.3-0.4C276.2,381.3,276,381.2,275.8,381.2
		C275.8,381.2,275.8,381.2,275.8,381.2z M275.3,373.1c-0.2,0-0.3,0.2-0.3,0.4c0,0,0,0,0,0c0,0.2,0.2,0.3,0.4,0.3s0.3-0.2,0.3-0.4
		c0,0,0,0,0,0C275.6,373.3,275.4,373.1,275.3,373.1L275.3,373.1z M274.7,365.1c-0.2,0-0.3,0.2-0.3,0.4c0,0.2,0.2,0.3,0.3,0.3
		c0,0,0,0,0,0c0.2,0,0.3-0.2,0.3-0.3c0,0,0,0,0,0C275,365.2,274.9,365.1,274.7,365.1L274.7,365.1z M274.1,357.1
		c-0.2,0-0.3,0.2-0.3,0.4c0,0,0,0,0,0c0,0.2,0.2,0.3,0.4,0.3s0.3-0.2,0.3-0.4C274.5,357.2,274.3,357,274.1,357.1
		C274.1,357.1,274.1,357.1,274.1,357.1z M291.7,373.2c-0.1-0.2-0.3-0.2-0.5-0.2c-0.2,0.1-0.2,0.3-0.2,0.5c0.1,0.2,0.3,0.2,0.5,0.2
		c0,0,0,0,0,0C291.7,373.5,291.7,373.3,291.7,373.2z M288.1,365.9c-0.1-0.2-0.3-0.2-0.5-0.2s-0.2,0.3-0.2,0.5
		c0.1,0.2,0.3,0.2,0.5,0.2c0,0,0,0,0,0C288.1,366.3,288.1,366.1,288.1,365.9z M284.5,358.7c-0.1-0.2-0.3-0.2-0.5-0.1
		c-0.2,0.1-0.2,0.3-0.1,0.5c0.1,0.2,0.3,0.2,0.4,0.1C284.5,359.1,284.5,358.9,284.5,358.7L284.5,358.7z M260.7,375.4
		c-0.2-0.1-0.3,0-0.4,0.2c0,0,0,0,0,0c-0.1,0.2,0,0.4,0.2,0.4c0,0,0,0,0,0c0.2,0.1,0.4,0,0.4-0.2C261,375.7,260.9,375.5,260.7,375.4
		L260.7,375.4z M263.3,367.8c-0.2-0.1-0.4,0-0.4,0.2c0,0,0,0,0,0c-0.1,0.2,0,0.4,0.2,0.4c0.2,0,0.4,0,0.4-0.2
		C263.5,368,263.4,367.8,263.3,367.8C263.3,367.8,263.3,367.8,263.3,367.8L263.3,367.8z M265.8,360.1c-0.2-0.1-0.4,0-0.4,0.2
		c-0.1,0.2,0,0.4,0.2,0.4c0,0,0,0,0,0c0.2,0.1,0.3,0,0.4-0.2c0,0,0,0,0,0C266.1,360.4,266,360.2,265.8,360.1L265.8,360.1z
		 M268.4,352.5c-0.2-0.1-0.4,0-0.4,0.2c-0.1,0.2,0,0.3,0.2,0.4c0,0,0,0,0,0c0.2,0.1,0.4,0,0.4-0.2
		C268.6,352.7,268.5,352.5,268.4,352.5L268.4,352.5z M298.6,369.5c-0.1-0.1-0.3-0.2-0.4-0.1s-0.2,0.3-0.1,0.4s0.3,0.2,0.4,0.1
		S298.7,369.6,298.6,369.5z M294.8,363.4c-0.1-0.1-0.3-0.2-0.4-0.1c-0.1,0.1-0.2,0.3-0.1,0.4c0.1,0.1,0.3,0.2,0.4,0.1c0,0,0,0,0,0
		C294.8,363.7,294.9,363.5,294.8,363.4C294.8,363.4,294.8,363.4,294.8,363.4L294.8,363.4z M291,357.3c0-0.1-0.1-0.1-0.1-0.1l0,0
		c-0.1,0-0.2,0-0.3,0c-0.1,0.1-0.2,0.3-0.1,0.4c0,0,0,0,0,0c0.1,0.1,0.3,0.2,0.4,0.1c0.1,0,0.1-0.1,0.1-0.2
		C291,357.4,291,357.3,291,357.3L291,357.3z M268.5,374.3c-0.2,0-0.3,0.1-0.4,0.2c0,0,0,0,0,0c0,0.2,0,0.3,0.2,0.4c0,0,0,0,0,0
		c0.2,0,0.3-0.1,0.4-0.2C268.8,374.5,268.7,374.4,268.5,374.3z M270.1,367.3c-0.2,0-0.3,0.1-0.4,0.2c0,0,0,0,0,0
		c0,0.2,0.1,0.3,0.2,0.4c0,0,0,0,0,0c0.2,0,0.3-0.1,0.4-0.2C270.4,367.5,270.3,367.4,270.1,367.3z M271.8,360.3
		c-0.2,0-0.3,0.1-0.4,0.2c0,0,0,0,0,0c0,0.1,0,0.3,0.2,0.3c0,0,0,0,0,0c0.2,0,0.3-0.1,0.4-0.2c0,0,0,0,0,0
		C272,360.5,271.9,360.4,271.8,360.3z M273.4,353.3c-0.2,0-0.3,0.1-0.4,0.2c0,0.2,0.1,0.3,0.2,0.4c0.2,0,0.3-0.1,0.4-0.2
		C273.6,353.5,273.5,353.3,273.4,353.3L273.4,353.3z M301.4,352.2c-0.1-0.1-0.3-0.1-0.4,0.1c0,0,0,0,0,0c-0.1,0.1-0.1,0.3,0,0.4
		c0,0,0,0,0,0c0.1,0.1,0.3,0.1,0.4-0.1c0,0,0,0,0,0C301.6,352.5,301.6,352.3,301.4,352.2L301.4,352.2z M283.8,371.2
		c-0.2,0-0.3,0.2-0.2,0.4c0,0.2,0.2,0.3,0.3,0.2c0.2,0,0.3-0.2,0.3-0.3C284.2,371.2,284,371.1,283.8,371.2z M282.6,364.1
		c-0.2,0-0.3,0.2-0.2,0.4c0,0.2,0.2,0.3,0.3,0.2c0.2,0,0.3-0.2,0.2-0.3c0,0,0,0,0,0C283,364.2,282.8,364,282.6,364.1z M281.5,357
		c-0.2,0-0.3,0.2-0.2,0.3c0,0,0,0,0,0c0,0.2,0.2,0.3,0.3,0.2c0.2,0,0.3-0.2,0.2-0.3c0,0,0,0,0,0C281.8,357.1,281.6,356.9,281.5,357
		C281.5,357,281.5,357,281.5,357z M281.2,358c-0.1,0-0.2,0.1-0.2,0.2s0.1,0.2,0.2,0.2c0.1,0,0.2-0.1,0.2-0.2l0,0
		C281.3,358.1,281.3,358,281.2,358C281.2,358,281.2,358,281.2,358L281.2,358z M281.3,353.8c-0.1,0-0.2,0.1-0.2,0.2c0,0,0,0,0,0
		c0,0.1,0.1,0.2,0.2,0.2c0,0,0,0,0,0c0.1,0,0.2-0.1,0.2-0.2C281.5,353.9,281.4,353.8,281.3,353.8
		C281.3,353.8,281.3,353.8,281.3,353.8L281.3,353.8z M289.7,354.4c0-0.1-0.1-0.1-0.2-0.1c0,0,0,0,0,0c-0.1,0-0.1,0.1-0.1,0.2
		c0,0,0,0,0,0c0,0.1,0.1,0.1,0.2,0.1C289.7,354.6,289.7,354.5,289.7,354.4L289.7,354.4z M273.3,353.9c-0.1,0-0.2,0-0.2,0.1
		c0,0,0,0,0,0c0,0.1,0,0.2,0.1,0.2c0.1,0,0.2,0,0.2-0.1C273.5,354.1,273.4,354,273.3,353.9z M301.1,356c-0.1-0.1-0.2-0.1-0.3-0.1
		c0,0,0,0,0,0c-0.1,0.1-0.1,0.2-0.1,0.3c0,0,0,0,0,0c0.1,0.1,0.2,0.1,0.3,0.1c0,0,0,0,0,0C301.1,356.2,301.2,356.1,301.1,356
		L301.1,356z M280.9,359.5c-0.1,0-0.2,0.1-0.2,0.2c0,0.1,0,0.2,0.1,0.2c0.1,0,0.2,0,0.2-0.1c0,0,0,0,0,0
		C281.1,359.6,281,359.5,280.9,359.5C280.9,359.5,280.9,359.5,280.9,359.5z M282,354.7c-0.1,0-0.2,0.1-0.2,0.2c0,0.1,0,0.2,0.1,0.2
		c0.1,0,0.2,0,0.2-0.1c0,0,0,0,0,0C282.1,354.9,282.1,354.8,282,354.7z M291.1,357.3c0-0.1-0.1-0.2-0.2-0.2c0,0,0,0,0,0l0,0
		c-0.1,0-0.2,0.1-0.2,0.2c0,0.1,0.1,0.2,0.2,0.2c0,0,0,0,0,0c0,0,0.1,0,0.1,0C291.1,357.5,291.1,357.4,291.1,357.3z M272.8,353.3
		c-0.1-0.1-0.2,0-0.3,0c0,0,0,0,0,0c-0.1,0.1,0,0.2,0,0.3c0.1,0.1,0.2,0,0.3,0c0,0,0,0,0,0C273,353.5,272.9,353.4,272.8,353.3z
		 M298.2,377.3c-0.2,0-0.3,0.2-0.3,0.4c0,0.2,0.2,0.3,0.4,0.3c0.2,0,0.3-0.2,0.3-0.4C298.6,377.3,298.4,377.2,298.2,377.3
		L298.2,377.3z M297,369c-0.2,0-0.3,0.2-0.3,0.4s0.2,0.3,0.4,0.3c0.2,0,0.3-0.2,0.3-0.4C297.3,369.1,297.1,369,297,369L297,369z
		 M295.7,360.8c-0.2,0-0.3,0.2-0.3,0.4c0,0.2,0.2,0.3,0.4,0.3c0,0,0,0,0,0c0.2,0,0.3-0.2,0.3-0.4C296,360.9,295.9,360.8,295.7,360.8
		L295.7,360.8z M264.5,369.1c-0.2-0.1-0.4-0.1-0.5,0.1c-0.1,0.2-0.1,0.4,0.1,0.5c0.2,0.1,0.4,0.1,0.5-0.1
		C264.7,369.4,264.6,369.2,264.5,369.1z M269.4,362.4c-0.2-0.1-0.4-0.1-0.5,0.1c-0.1,0.2-0.1,0.4,0.1,0.5c0,0,0,0,0,0
		c0.2,0.1,0.4,0.1,0.5-0.1C269.6,362.7,269.5,362.5,269.4,362.4C269.4,362.4,269.4,362.4,269.4,362.4z M274.3,355.7
		c-0.1-0.1-0.4-0.1-0.5,0.1c0,0,0,0,0,0c-0.1,0.2-0.1,0.4,0.1,0.5c0.2,0.1,0.4,0.1,0.5-0.1C274.5,356,274.4,355.8,274.3,355.7
		C274.3,355.7,274.3,355.7,274.3,355.7L274.3,355.7z M305,353.6c-0.1-0.2-0.3-0.2-0.5-0.1c-0.2,0.1-0.2,0.3-0.1,0.5
		c0.1,0.2,0.3,0.2,0.5,0.1C305,354,305.1,353.8,305,353.6L305,353.6z M282,372.9c-0.2,0-0.4,0.1-0.4,0.2c0,0,0,0,0,0
		c0,0.2,0.1,0.4,0.2,0.4c0.2,0,0.4-0.1,0.4-0.3C282.3,373.1,282.2,372.9,282,372.9C282,372.9,282,372.9,282,372.9z M284,364.8
		c-0.2,0-0.4,0.1-0.4,0.2c0,0,0,0,0,0c0,0.2,0.1,0.4,0.2,0.4c0,0,0,0,0,0c0.2,0,0.4-0.1,0.4-0.3c0,0,0,0,0,0
		C284.3,365,284.2,364.8,284,364.8C284,364.8,284,364.8,284,364.8L284,364.8z M285.9,356.7c-0.2,0-0.4,0.1-0.4,0.3
		c0,0.2,0.1,0.4,0.3,0.4c0.2,0,0.4-0.1,0.4-0.2c0,0,0,0,0,0C286.2,356.9,286.1,356.7,285.9,356.7
		C285.9,356.7,285.9,356.7,285.9,356.7L285.9,356.7z M287.1,375.5c-0.2,0-0.4,0.1-0.4,0.3c0,0.2,0.1,0.4,0.3,0.4
		c0.2,0,0.4-0.1,0.4-0.3C287.4,375.8,287.3,375.6,287.1,375.5C287.1,375.5,287.1,375.5,287.1,375.5L287.1,375.5z M288.7,367.4
		c-0.2,0-0.4,0.1-0.4,0.3c0,0.2,0.1,0.4,0.3,0.4c0.2,0,0.4-0.1,0.4-0.3C289,367.6,288.9,367.5,288.7,367.4z M290.3,359.3
		c-0.2,0-0.4,0.1-0.4,0.3c0,0.2,0.1,0.4,0.3,0.4l0,0c0.2,0,0.4-0.1,0.4-0.3C290.6,359.5,290.5,359.3,290.3,359.3z M302.5,362.9
		c-0.2,0-0.3,0.2-0.3,0.4c0,0.2,0.2,0.3,0.4,0.3c0.2,0,0.3-0.2,0.3-0.4c0,0,0,0,0,0C302.9,363,302.7,362.9,302.5,362.9z
		 M300.9,354.8c-0.2,0-0.3,0.2-0.3,0.4c0,0.2,0.2,0.3,0.4,0.3c0.2,0,0.3-0.2,0.3-0.4c0,0,0,0,0,0
		C301.3,354.9,301.1,354.8,300.9,354.8C300.9,354.8,300.9,354.8,300.9,354.8z M273.3,365.2c-0.2-0.1-0.4-0.1-0.5,0.1c0,0,0,0,0,0
		c-0.1,0.2-0.1,0.4,0.1,0.5c0.2,0.1,0.4,0.1,0.5-0.1C273.5,365.6,273.4,365.3,273.3,365.2C273.3,365.2,273.3,365.2,273.3,365.2
		L273.3,365.2z M277.9,358.3c-0.2-0.1-0.4-0.1-0.5,0.1c0,0,0,0,0,0c-0.1,0.2-0.1,0.4,0.1,0.5c0.2,0.1,0.4,0.1,0.5-0.1
		C278.1,358.7,278,358.5,277.9,358.3C277.9,358.3,277.9,358.3,277.9,358.3L277.9,358.3z M287,361.3c-0.1-0.1-0.3,0-0.3,0.1
		c0,0,0,0,0,0c-0.1,0.1,0,0.3,0.1,0.3s0.3,0,0.3-0.1C287.2,361.5,287.2,361.4,287,361.3z M289.5,355.6c-0.1-0.1-0.3,0-0.3,0.1
		c0,0,0,0,0,0c-0.1,0.1,0,0.3,0.1,0.3c0.1,0.1,0.3,0,0.3-0.1C289.7,355.8,289.6,355.6,289.5,355.6
		C289.5,355.6,289.5,355.6,289.5,355.6z M300.1,360.8c-0.1,0-0.3,0.1-0.3,0.3c0,0,0,0,0,0c0,0.1,0.1,0.3,0.3,0.3
		c0.1,0,0.3-0.1,0.3-0.3C300.4,360.9,300.3,360.8,300.1,360.8C300.2,360.8,300.1,360.8,300.1,360.8z M300.2,354.5
		c-0.1,0-0.2,0.1-0.3,0.2c0,0,0,0,0,0c0,0.1,0.1,0.3,0.3,0.3c0,0,0,0,0,0c0.1,0,0.3-0.1,0.3-0.3
		C300.5,354.6,300.4,354.5,300.2,354.5C300.2,354.5,300.2,354.5,300.2,354.5z" style="opacity:0.86;fill:#FFFFFF;enable-background:new    ;"/>
	
		<linearGradient id="_1-2_1_" gradientUnits="userSpaceOnUse" x1="405.0463" y1="427.6223" x2="416.8827" y2="427.6223" gradientTransform="matrix(1 0 0 -1 0 602)">
		<stop offset="0.1291" style="stop-color:#428DFC"/>
		<stop offset="0.9987" style="stop-color:#1D72D8"/>
	</linearGradient>
	<path id="_1-2" d="M410.4,180c-0.4,0-0.9-0.1-1.3-0.2c-1.2-0.4-2.2-1.4-2.7-2.7c-0.5-1.4-0.5-2.9,0-4.3
		c0.7-2.3,2.7-3.9,5.1-4.1c0.5,0,0.9,0.1,1.3,0.2c1.9,0.8,3.2,2.7,3.1,4.8h1c0.1-2.5-1.4-4.8-3.7-5.7c-3-1-6.5,1-7.7,4.5
		c-0.6,1.6-0.6,3.4,0.1,5c0.6,1.5,1.8,2.7,3.3,3.2c0.5,0.2,1.1,0.3,1.6,0.3L410.4,180z" style="fill:url(#_1-2_1_);"/>
	
		<linearGradient id="_2-2_1_" gradientUnits="userSpaceOnUse" x1="420.6058" y1="427.6223" x2="432.4422" y2="427.6223" gradientTransform="matrix(1 0 0 -1 0 602)">
		<stop offset="0.1291" style="stop-color:#428DFC"/>
		<stop offset="0.9987" style="stop-color:#1D72D8"/>
	</linearGradient>
	<path id="_2-2" d="M426,180c-0.4,0-0.9-0.1-1.3-0.2c-1.2-0.4-2.2-1.4-2.7-2.7c-0.5-1.4-0.5-2.9,0-4.3
		c0.7-2.3,2.7-3.9,5.1-4.1c0.5,0,0.9,0.1,1.3,0.2c1.9,0.8,3.2,2.7,3.1,4.8h1c0.1-2.5-1.4-4.8-3.7-5.7c-3-1-6.5,1-7.7,4.5
		c-0.6,1.6-0.6,3.4,0.1,5c0.6,1.5,1.8,2.7,3.3,3.2c0.5,0.2,1.1,0.3,1.6,0.3V180z" style="fill:url(#_2-2_1_);"/>
	
		<linearGradient id="L_sleeve_1_" gradientUnits="userSpaceOnUse" x1="394.1734" y1="476.0932" x2="343.7002" y2="394.1933" gradientTransform="matrix(1 0 0 -1 0 602)">
		<stop offset="8.983001e-02" style="stop-color:#EEEEEE"/>
		<stop offset="0.8178" style="stop-color:#D6D7D8"/>
	</linearGradient>
	<path id="L_sleeve" d="M369,272.9c0,0-10.4,6.1-20.9-0.6c-7.4-4.8-13.9-0.3-21.4,1.7c-3.2,1-6.6,1.1-10,0.5
		c-12.3-2.8-27-5.8-28.9-32.9c-1-17.2-0.6-34.4,1.1-51.5c1.3-1.2,2.6-2.4,3.9-3.6c0,0,0,0,0,0c6.6-4.9,19.7-14.6,22.5-16.2
		c0,0,0.1,0,0.1-0.1c0.1,0,0.2-0.1,0.2-0.1l10.9,10.1h0c0,0-11.2,27.1-2.2,38.4c0.8,1,1.8,1.9,3,2.7c14.1,8.9,35,1.5,35,1.5
		L369,272.9z" style="fill:url(#L_sleeve_1_);"/>
	
		<linearGradient id="laboratory_gown_1_" gradientUnits="userSpaceOnUse" x1="268.8666" y1="366.638" x2="326.0061" y2="255.2161" gradientTransform="matrix(1 0 0 -1 0 602)">
		<stop offset="8.983001e-02" style="stop-color:#EEEEEE"/>
		<stop offset="0.8178" style="stop-color:#D6D7D8"/>
	</linearGradient>
	<path id="laboratory_gown" d="M333.7,343c-43.9,22.3-95.8,0-95.8,0c-6.4-81.6,26.2-128.9,51.2-152.9
		c1.6-1.6,3.3-3.1,4.8-4.4c0,0,0,0,0,0c5.3-4.7,11-8.9,17-12.7c0.2-0.1,0.4-0.2,0.6-0.4c1-0.6,1.9-1.1,2.6-1.5l0.1-0.1
		c0.6-0.3,1-0.6,1.3-0.7c0,0,0.1,0,0.1-0.1c0.1,0,0.2-0.1,0.2-0.1c6.6,10,10.7,10.1,10.9,10.1h0c0,0,0,0.1,0,0.1c0,0,0,0.1,0,0.1
		c-1.5,12.7-2.3,25.5-2.2,38.2c0,18,0.9,37.4,2.2,55.3c0.4,4.9,0.7,9.7,1.1,14.4C330.5,319.3,333.7,343,333.7,343z" style="fill:url(#laboratory_gown_1_);"/>
	
		<linearGradient id="R_sleeve_1_" gradientUnits="userSpaceOnUse" x1="363.6653" y1="314.4657" x2="598.61" y2="65.3946" gradientTransform="matrix(1 0 0 -1 0 602)">
		<stop offset="8.983001e-02" style="stop-color:#EEEEEE"/>
		<stop offset="0.8178" style="stop-color:#D6D7D8"/>
	</linearGradient>
	<path id="R_sleeve" d="M381.8,286.6c0,0-6,8.9-24.2,3.7c-15.7-4.4-20.3-5.4-29.6-2c-1.5,0.5-3.1,1.2-4.9,2
		c-13,5.6-30.8-1.9-36.4-23.8c-5.2-20.4,1.5-69.8,2.4-76.4c1.6-1.6,3.3-3.1,4.8-4.4c0,0,0,0,0,0c5.3-4.7,11-8.9,17-12.7
		c0.2-0.1,0.4-0.2,0.6-0.4c1-0.6,1.8-1.1,2.6-1.5l0.1-0.1c0.5-0.3,0.9-0.5,1.3-0.7c0,0,0.1,0,0.1-0.1c0.1,0,0.2-0.1,0.2-0.1
		l10.9,10.1h0c0,0,0,0.1,0,0.1c0,0,0,0.1,0,0.1c-0.2,2.8-2.7,34.6-0.5,48.4c2.3,14.5,5.9,12.5,17.2,11.7c9.8-0.9,19.4-2.6,28.9-5.1
		L381.8,286.6z" style="fill:url(#R_sleeve_1_);"/>
	
		<linearGradient id="neck_1_" gradientUnits="userSpaceOnUse" x1="12.6351" y1="406.3716" x2="-0.5875" y2="430.2848" gradientTransform="matrix(-1 0 0 -1 322.9521 602)">
		<stop offset="0" style="stop-color:#FFBEB6"/>
		<stop offset="1" style="stop-color:#F2A19C"/>
	</linearGradient>
	<path id="neck" d="M334,168.1c-2.9,3.7-5.3,7.8-7.2,12.1c0,0-7,1.2-10.9-10.1l9.4-12.2L334,168.1" style="fill:url(#neck_1_);"/>
	<path id="face" d="M355.8,150.5c0,0.1,0,0.2,0,0.2c0,0,0,0,0,0c-0.1,0.4-0.2,0.9-0.3,1.3c-1.1,4.8,1,9.6,0.5,10.9
		s-3.3,1.2-4.5,0.9s-4.8,5.1-10.9,6.7c-5.7,1.6-12.4-1.3-16-5.5c1.8-10.5,5.1-14.6,16.3-15.6c12.2-1,14.2-8.1,14.2-8.1
		C356,144.4,356.3,147.4,355.8,150.5z" style="fill:#FFBEB6;"/>
	<path id="hair" d="M307,139.3c4.1-3.9,7.4-9.6,8.8-11.6c1.9-2.8,11.7-9.9,23.2-5.4s24.3,13.6,16.9,28.5
		c0.5-3.1,0.2-6.3-0.7-9.3c0,0-2,7.1-14.2,8.1c-1.3,0.1-2.5,0.3-3.8,0.5c-7.1,4-12.2,10.1-9.2,19.7c0.2,0.6-0.7,0.8-0.9,0.2
		c-2.8-8.9,1.2-15,7.3-19.2c-6.8,2.2-8.8,7.3-10.2,17.5c0,0-18.7-2.7-30.4-18.3c1.9-3.3,4.9-5.8,8.4-7.2c1.3-0.6,2.5-1.3,3.5-2.2
		c-5.4,1.7-11.1,2.9-12.8,8.8c-0.1,0.2-0.3,0.4-0.6,0.3c-0.2-0.1-0.4-0.3-0.3-0.5C294,142.2,301.1,141.4,307,139.3z" style="fill:#E94A47;"/>
	<path id="eyeglasses" d="M362.2,156.6c1.9-2.8,2.1-6.3,0.4-7.9l0,0c-1.7-1.6-4.5-0.6-6.4,2.1c-0.2,0.3-0.4,0.7-0.6,1
		c-1.2-0.7-2.7-0.4-4,0.2c0-0.2,0.1-0.4,0.1-0.6c0.2-1.5-0.3-3-1.3-4.1c-1.9-1.8-5.3-0.7-7.4,2.5c-1,1.5-1.6,3.2-1.8,5
		c-0.1,1.2,0.2,2.4,0.8,3.4c0.2,0.2,0.3,0.5,0.5,0.7c1,0.9,2.4,1.2,3.7,0.6c1.6-0.6,2.9-1.7,3.8-3.1c0.7-1.1,1.2-2.2,1.5-3.5
		c1.2-0.5,2.7-1,3.8-0.3c0,0.1,0,0.1-0.1,0.2c0,0.1,0,0.2,0,0.2c0,0,0,0,0,0c0,0,0,0,0,0c-0.2,1.1-0.2,2.2,0,3.3
		c0.1,0.5,0.3,0.9,0.4,1.4c0,0.1,0.1,0.2,0.1,0.3c0,0.1,0.1,0.3,0.1,0.4c0,0,0.1,0.1,0.1,0.1C357.4,160.3,360.3,159.3,362.2,156.6z
		 M349.3,155.9c-0.8,1.3-2,2.2-3.3,2.8c-1,0.4-2.2,0.2-3-0.5c-0.8-0.9-1.2-2.2-1.1-3.4c0.1-1.6,0.7-3.1,1.6-4.5
		c1.9-2.8,4.8-3.8,6.4-2.3c0.2,0.2,0.3,0.3,0.4,0.5c0.5,0.9,0.7,1.9,0.6,2.9C350.8,153,350.2,154.6,349.3,155.9z M356.2,158
		c-1.4-1.3-1.2-4.3,0.4-6.6c1.6-2.4,4-3.2,5.4-1.9c1.4,1.3,1.2,4.3-0.4,6.6C360,158.4,357.6,159.3,356.2,158L356.2,158z" style="fill:#23286B;"/>
</g>
</svg>
