<?xml version="1.0" encoding="iso-8859-1"?>
<!-- Generator: Adobe Illustrator 23.0.2, SVG Export Plug-In . SVG Version: 6.00 Build 0)  -->
<svg version="1.1" id="illustration" xmlns="http://www.w3.org/2000/svg" xmlns:xlink="http://www.w3.org/1999/xlink" x="0px"
	 y="0px" viewBox="0 0 1080 720" style="enable-background:new 0 0 1080 720;" xml:space="preserve">
<title>sign up</title>
<g id="key">
	
		<linearGradient id="L_trousers_1_" gradientUnits="userSpaceOnUse" x1="516.85" y1="219.0587" x2="689.4229" y2="291.2256" gradientTransform="matrix(-1 0 0 -1 1294.41 722)">
		<stop  offset="0" style="stop-color:#A1C3FC"/>
		<stop  offset="0.6955" style="stop-color:#81AEF2"/>
		<stop  offset="1" style="stop-color:#78A9EF"/>
	</linearGradient>
	<path id="L_trousers" style="fill:url(#L_trousers_1_);" d="M588.823,332.713c11.322,53.063,9.411,45.067,15.25,91.654
		c4.628,36.93,2.041,21.443,3.786,60.515c1.745,39.085-2.789,80.286,20.745,104.948l31.853,0.025c0,0-0.973-101.134-1.507-134.82
		c-0.439-29.238-3.228-63.468-5.305-85c-0.119-1.229-0.273-2.459-0.475-3.688c-2.516-15.259-3.204-20.531-4.427-29.364
		c-0.131-0.887-5.663-38.725-5.782-39.51c-8.835,0.914-11.881,0-22.544,0.914c-20.085,1.722-18.279,0.305-28.747-1.528
		c-0.88-0.263-1.734-0.606-2.552-1.027c-1.578-0.614-3.106-1.352-4.569-2.205C584.325,303.691,585.369,316.529,588.823,332.713z"/>
	
		<linearGradient id="R_trousers_1_" gradientUnits="userSpaceOnUse" x1="679.8386" y1="322.0307" x2="653.8499" y2="541.8517" gradientTransform="matrix(-1 0 0 -1 1294.41 722)">
		<stop  offset="0" style="stop-color:#A1C3FC"/>
		<stop  offset="0.6955" style="stop-color:#81AEF2"/>
		<stop  offset="1" style="stop-color:#78A9EF"/>
	</linearGradient>
	<path id="R_trousers" style="fill:url(#R_trousers_1_);" d="M565.07,589.629h33.308c0,0,56.424-132.919,58.981-159.951
		c2.533-27.02,0.502-59.235-3.059-85.761c-0.432-3.206-7.552-44.385-8.042-47.477c-8.864,0.341-10.785,0.341-22.502,0.341
		c-18.069,0-18.41,0-28.695-0.148c-5.172-0.025-10.029-0.33-14.488-0.798c0.07,13.408-1.423,47.874,6.166,70.902
		c20.361,61.846,5.684,64.743-3.656,82.259c-8.55,16.034-7.357,10.469-10.968,41.13c-2.075,17.624-5.968,15.512-10.054,38.388
		C558,551.375,565.07,589.629,565.07,589.629z"/>
	
		<linearGradient id="L_trousers-2_1_" gradientUnits="userSpaceOnUse" x1="539.8618" y1="179.3941" x2="465.3819" y2="266.7648" gradientTransform="matrix(1 0 0 -1 0 722)">
		<stop  offset="0" style="stop-color:#23286B"/>
		<stop  offset="1" style="stop-color:#151A4F"/>
	</linearGradient>
	<path id="L_trousers-2" style="fill:url(#L_trousers-2_1_);" d="M484.402,435.468c-0.389-23.852-7.886-48.021-12.212-67.762
		c0,0-17.396-73.031-16.388-75.384s-20.843,0.672-20.843,0.672l-21.817,8.014l0,0l-5.083,9.481l0,0
		c-2.598,12.796-3.201,28.68,1.043,47.295c12.233,53.688,13.184,46.15,11.302,83.82c-1.892,37.671,4.234,24.957,6.117,64.509
		c1.882,39.563-0.532,59.088,24.895,84.055l41.536-0.307C492.952,589.863,484.955,469.559,484.402,435.468z"/>
	<path id="R_trousers-2" style="fill:#23286B;" d="M450.212,381.506l-6.182-88.701l-51.095-1.64c0,0-3.663,3.975-9.181,19.016
		c-5.686-0.756,3.974,0.879,0,0c-6.391,23.811-5.578,48.982,2.336,72.332c19.517,58.573,6.105,55.798-0.22,73.523
		c-6.359,17.713-9.758,28.546-8.313,45.288c1.468,16.753-5.839,12.313-9.758,33.958c-3.896,21.667,1.075,54.862,1.075,54.862
		l42.579-0.279c0,0,37.361-117.584,39.8-143.182C453.183,426.331,452.351,402.884,450.212,381.506z"/>
	<path id="R_sleeve" style="fill:#A1C3FC;" d="M411.796,174.553c0,0,5.479,29.637,18.278,53.1
		c10.363,18.999,6.826,14.078,25.17,30.716c10.764,9.763,27.73,23.464,27.73,23.464l-35.39,24.582l-10.275,6.752
		c-11.471-16.89-20.614-17.33-30.447-20.044s-30.151-14.406-26.383-47.229s-18.066-37.403,12.175-71.858l0,0"/>
	
		<linearGradient id="sweater_1_" gradientUnits="userSpaceOnUse" x1="414.4412" y1="520.0846" x2="417.2849" y2="382.8763" gradientTransform="matrix(1 0 0 -1 0 722)">
		<stop  offset="0" style="stop-color:#A1C3FC"/>
		<stop  offset="0.6955" style="stop-color:#81AEF2"/>
		<stop  offset="1" style="stop-color:#78A9EF"/>
	</linearGradient>
	<path id="sweater" style="fill:url(#sweater_1_);" d="M411.796,174.553c0,0,26.543,96.716,61.356,140.06
		c0,0-78.06,14.069-105.744-2.269c0,0-29.384-58.32,25.246-138.308l0,0L411.796,174.553"/>
	<path id="texture" style="opacity:0.86;fill:#FFFFFF;enable-background:new    ;" d="M592.219,352.142
		c-0.038-0.088-0.14-0.129-0.228-0.092c-0.088,0.038-0.13,0.14-0.092,0.228c0.038,0.088,0.14,0.129,0.228,0.092c0,0,0,0,0,0
		C592.216,352.332,592.257,352.23,592.219,352.142C592.219,352.142,592.219,352.142,592.219,352.142z M590.583,348.218
		c-0.03-0.085-0.124-0.13-0.21-0.1c-0.006,0.002-0.012,0.005-0.018,0.008c-0.091,0.035-0.137,0.135-0.104,0.226
		c0.044,0.089,0.148,0.129,0.24,0.093C590.579,348.408,590.62,348.306,590.583,348.218
		C590.583,348.218,590.583,348.218,590.583,348.218L590.583,348.218z M590.745,373.325c-0.184,0.013-0.323,0.17-0.314,0.354
		c0.009,0.177,0.16,0.313,0.337,0.304c0.006,0,0.012-0.001,0.018-0.001c0.184-0.013,0.323-0.17,0.314-0.354
		C591.086,373.446,590.927,373.311,590.745,373.325C590.745,373.325,590.745,373.325,590.745,373.325L590.745,373.325z
		 M590.173,365.274c-0.182,0.015-0.317,0.174-0.302,0.355c0,0,0,0,0,0c0.011,0.184,0.17,0.325,0.354,0.314
		c0.184-0.011,0.325-0.17,0.314-0.354C590.518,365.405,590.359,365.268,590.173,365.274L590.173,365.274z M589.613,357.224
		c-0.184,0.021-0.322,0.18-0.316,0.366c0.009,0.177,0.16,0.313,0.337,0.304c0.006,0,0.012-0.001,0.018-0.001
		c0.181-0.008,0.322-0.161,0.315-0.342c0-0.004,0-0.008-0.001-0.012C589.954,357.354,589.797,357.215,589.613,357.224
		L589.613,357.224z M589.04,349.185c-0.182,0.015-0.317,0.174-0.302,0.355c0,0,0,0,0,0.001c0.012,0.184,0.172,0.324,0.356,0.311
		c0.184-0.012,0.324-0.172,0.311-0.356c-0.013-0.184-0.172-0.324-0.356-0.311C589.046,349.184,589.043,349.184,589.04,349.185z
		 M606.585,365.293c-0.079-0.17-0.281-0.243-0.451-0.164c-0.17,0.079-0.243,0.281-0.164,0.451c0.079,0.17,0.281,0.243,0.451,0.164
		c0.002-0.001,0.004-0.002,0.006-0.003C606.592,365.659,606.662,365.461,606.585,365.293L606.585,365.293z M602.983,358.075
		c-0.079-0.17-0.281-0.243-0.451-0.164s-0.244,0.281-0.164,0.451s0.281,0.243,0.451,0.164c0.002-0.001,0.004-0.002,0.006-0.003
		C602.99,358.441,603.061,358.243,602.983,358.075L602.983,358.075z M599.382,350.857c-0.091-0.163-0.292-0.228-0.461-0.148
		c-0.166,0.087-0.229,0.292-0.142,0.458c0.084,0.16,0.279,0.226,0.443,0.15C599.388,351.229,599.457,351.028,599.382,350.857
		L599.382,350.857z M609.685,355.51c-0.087-0.138-0.27-0.18-0.409-0.093c-0.138,0.087-0.18,0.27-0.093,0.409
		c0.087,0.138,0.27,0.18,0.409,0.093l0,0c0.137-0.082,0.182-0.26,0.1-0.398C609.69,355.517,609.687,355.514,609.685,355.51
		L609.685,355.51z M605.871,349.394c-0.023-0.052-0.065-0.092-0.117-0.112l-0.012-0.002c-0.091-0.04-0.196-0.032-0.28,0.021
		c-0.142,0.089-0.185,0.276-0.096,0.418c0.001,0.001,0.001,0.002,0.002,0.003c0.088,0.137,0.27,0.178,0.409,0.093
		c0.065-0.038,0.109-0.102,0.121-0.176C605.931,349.558,605.921,349.466,605.871,349.394L605.871,349.394z M586.674,352.446
		c-0.16-0.037-0.319,0.063-0.356,0.222c0,0.002-0.001,0.004-0.001,0.005c-0.044,0.148,0.04,0.304,0.189,0.348
		c0.009,0.003,0.018,0.005,0.027,0.007c0.159,0.037,0.319-0.063,0.355-0.222c0-0.002,0.001-0.004,0.001-0.005
		C586.924,352.644,586.829,352.488,586.674,352.446L586.674,352.446z M598.745,363.293c-0.16,0.036-0.266,0.189-0.241,0.352
		c0.028,0.16,0.18,0.267,0.34,0.24c0.162-0.026,0.274-0.176,0.252-0.339C599.067,363.381,598.911,363.268,598.745,363.293
		L598.745,363.293z M597.56,356.192c-0.16,0.036-0.266,0.189-0.241,0.352c0.028,0.16,0.18,0.267,0.34,0.24
		c0.156-0.022,0.265-0.166,0.243-0.323c-0.001-0.006-0.002-0.012-0.003-0.018C597.873,356.282,597.722,356.17,597.56,356.192
		L597.56,356.192z M596.373,349.104c-0.156,0.022-0.265,0.166-0.243,0.323c0.001,0.006,0.002,0.012,0.003,0.018
		c0.028,0.16,0.18,0.267,0.34,0.24c0.16-0.028,0.267-0.18,0.24-0.34c-0.022-0.156-0.166-0.265-0.322-0.243
		C596.385,349.101,596.379,349.102,596.373,349.104L596.373,349.104z M596.084,350.147c-0.096-0.003-0.177,0.072-0.18,0.168
		s0.072,0.176,0.168,0.18c0.096,0.003,0.177-0.072,0.18-0.168l0,0C596.255,350.231,596.18,350.151,596.084,350.147L596.084,350.147z
		 M595.822,351.604c-0.108-0.014-0.21,0.054-0.239,0.16c-0.024,0.106,0.042,0.212,0.148,0.237c0.099,0.03,0.202-0.026,0.232-0.125
		c0.002-0.007,0.004-0.015,0.005-0.023c0.029-0.109-0.036-0.22-0.145-0.249C595.823,351.605,595.823,351.605,595.822,351.604
		L595.822,351.604z M605.984,349.446c-0.016-0.107-0.116-0.181-0.223-0.165c-0.002,0-0.005,0.001-0.007,0.001l-0.012-0.002
		c-0.103,0.026-0.17,0.127-0.153,0.232c0.016,0.107,0.116,0.181,0.223,0.165c0.002,0,0.005-0.001,0.007-0.001
		c0.028-0.008,0.054-0.021,0.077-0.037C605.964,349.6,605.999,349.522,605.984,349.446L605.984,349.446z M613.16,369.383
		c-0.189,0.029-0.32,0.203-0.295,0.393c0.031,0.187,0.207,0.313,0.394,0.283c0.187-0.031,0.317-0.204,0.295-0.393
		C613.523,369.479,613.347,369.353,613.16,369.383L613.16,369.383z M611.864,361.171c-0.187,0.031-0.314,0.207-0.283,0.394
		c0.031,0.187,0.207,0.314,0.394,0.283c0.187-0.031,0.314-0.207,0.283-0.394C612.227,361.267,612.051,361.141,611.864,361.171
		L611.864,361.171z M584.292,354.513c-0.154-0.112-0.369-0.078-0.481,0.076c-0.112,0.154-0.078,0.369,0.076,0.481
		c0.001,0.001,0.002,0.001,0.003,0.002c0.154,0.112,0.369,0.078,0.481-0.076c0.112-0.154,0.078-0.369-0.076-0.481
		C584.294,354.514,584.293,354.513,584.292,354.513z M589.184,347.796c-0.147-0.114-0.359-0.088-0.473,0.059
		c-0.002,0.002-0.004,0.005-0.005,0.007c-0.109,0.158-0.076,0.374,0.076,0.492c0.155,0.109,0.368,0.074,0.48-0.078
		c0.112-0.15,0.081-0.362-0.068-0.474C589.19,347.8,589.187,347.798,589.184,347.796L589.184,347.796z M596.955,364.996
		c-0.181-0.043-0.364,0.068-0.407,0.25c-0.001,0.002-0.001,0.004-0.002,0.007c-0.046,0.182,0.062,0.368,0.243,0.419
		c0.185,0.036,0.367-0.074,0.421-0.255C597.256,365.231,597.142,365.042,596.955,364.996
		C596.956,364.996,596.956,364.996,596.955,364.996L596.955,364.996z M598.904,356.92c-0.176-0.047-0.357,0.058-0.404,0.235
		c-0.002,0.007-0.004,0.014-0.005,0.022c-0.045,0.18,0.064,0.362,0.244,0.407c0,0,0,0,0,0c0.186,0.046,0.375-0.068,0.42-0.254
		c0,0,0-0.001,0-0.001c0.047-0.176-0.058-0.357-0.234-0.404C598.919,356.923,598.911,356.922,598.904,356.92L598.904,356.92z
		 M600.854,348.833c-0.188-0.039-0.372,0.081-0.411,0.269c-0.038,0.183,0.075,0.364,0.257,0.409c0.181,0.043,0.364-0.068,0.407-0.25
		c0.001-0.002,0.001-0.004,0.002-0.007C601.155,349.067,601.041,348.879,600.854,348.833
		C600.855,348.833,600.855,348.833,600.854,348.833L600.854,348.833z M601.979,367.679c-0.187-0.039-0.371,0.081-0.41,0.268
		s0.081,0.371,0.268,0.41c0.187,0.039,0.37-0.081,0.41-0.268C602.287,367.902,602.167,367.718,601.979,367.679
		C601.98,367.679,601.98,367.679,601.979,367.679L601.979,367.679z M603.585,359.555c-0.19-0.029-0.37,0.093-0.412,0.28
		c-0.029,0.183,0.089,0.358,0.27,0.399c0.187,0.039,0.371-0.081,0.41-0.268C603.888,359.779,603.77,359.599,603.585,359.555
		L603.585,359.555z M605.178,351.442c-0.185-0.036-0.363,0.084-0.4,0.268c-0.036,0.184,0.084,0.363,0.268,0.4
		c0.001,0,0.002,0,0.003,0c0.187,0.039,0.371-0.081,0.41-0.268C605.488,351.655,605.364,351.479,605.178,351.442L605.178,351.442z
		 M588.185,357.364c-0.153-0.103-0.361-0.062-0.464,0.091c-0.003,0.004-0.005,0.008-0.008,0.013
		c-0.104,0.155-0.063,0.366,0.091,0.47c0.158,0.107,0.373,0.067,0.482-0.09c0.106-0.157,0.065-0.371-0.092-0.478
		C588.191,357.368,588.188,357.366,588.185,357.364L588.185,357.364z M592.775,350.472c-0.153-0.103-0.361-0.062-0.464,0.091
		c-0.003,0.004-0.005,0.008-0.008,0.013c-0.104,0.155-0.063,0.366,0.091,0.47c0.158,0.107,0.373,0.067,0.482-0.09
		c0.107-0.157,0.065-0.371-0.092-0.478C592.782,350.476,592.779,350.474,592.775,350.472L592.775,350.472z M601.936,353.462
		c-0.122-0.062-0.271-0.013-0.333,0.109c-0.004,0.008-0.008,0.016-0.011,0.024c-0.057,0.131,0.003,0.284,0.134,0.341
		c0.131,0.057,0.284-0.003,0.341-0.134C602.124,353.672,602.065,353.52,601.936,353.462z M604.392,347.721
		c-0.128-0.059-0.28-0.004-0.34,0.125c-0.001,0.003-0.003,0.006-0.004,0.008c-0.058,0.132,0.001,0.285,0.133,0.344
		c0.132,0.058,0.285-0.001,0.344-0.133C604.583,347.933,604.524,347.779,604.392,347.721L604.392,347.721z"/>
	<path id="texture-2" style="opacity:0.86;fill:#FFFFFF;enable-background:new    ;" d="M389.577,347.528
		c-0.053-0.124-0.196-0.182-0.32-0.129c-0.124,0.053-0.182,0.196-0.129,0.32c0.053,0.124,0.196,0.182,0.32,0.129c0,0,0,0,0,0
		C389.572,347.796,389.63,347.652,389.577,347.528C389.577,347.529,389.577,347.528,389.577,347.528z M421.921,348.677
		c-0.189-0.172-0.482-0.158-0.654,0.031c-0.004,0.004-0.007,0.008-0.011,0.013c-0.167,0.19-0.148,0.479,0.043,0.646
		c0.001,0.001,0.002,0.002,0.003,0.003c0.189,0.172,0.482,0.158,0.654-0.031c0.004-0.004,0.007-0.008,0.011-0.013
		c0.167-0.19,0.148-0.479-0.042-0.646C421.923,348.678,421.922,348.678,421.921,348.677z M387.508,377.245
		c-0.258,0.018-0.454,0.239-0.44,0.497c0.013,0.248,0.225,0.439,0.474,0.426c0.008,0,0.017-0.001,0.025-0.002
		c0.258-0.018,0.454-0.239,0.44-0.497C387.986,377.414,387.763,377.225,387.508,377.245
		C387.509,377.245,387.508,377.245,387.508,377.245L387.508,377.245z M386.706,365.951c-0.255,0.021-0.444,0.244-0.424,0.498
		c0,0,0,0,0,0.001c0.016,0.259,0.238,0.456,0.497,0.44c0.259-0.015,0.456-0.238,0.44-0.497
		C387.19,366.135,386.966,365.942,386.706,365.951L386.706,365.951z M385.921,354.658c-0.259,0.03-0.451,0.253-0.443,0.513
		c0.013,0.248,0.225,0.439,0.474,0.426c0.008,0,0.017-0.001,0.025-0.002c0.254-0.011,0.452-0.226,0.441-0.48
		c0-0.006-0.001-0.011-0.001-0.017C386.4,354.841,386.179,354.645,385.921,354.658L385.921,354.658z M409.728,365.978
		c-0.111-0.238-0.394-0.342-0.632-0.231s-0.342,0.394-0.231,0.632s0.394,0.342,0.632,0.231c0.003-0.001,0.006-0.003,0.009-0.004
		C409.738,366.491,409.837,366.213,409.728,365.978L409.728,365.978z M404.676,355.852c-0.111-0.238-0.394-0.342-0.632-0.231
		c-0.238,0.111-0.342,0.394-0.231,0.632c0.111,0.238,0.394,0.342,0.632,0.231c0.003-0.001,0.006-0.003,0.009-0.004
		C404.686,356.365,404.785,356.087,404.676,355.852L404.676,355.852z M419.43,360.816c-0.122-0.194-0.379-0.252-0.573-0.13
		c-0.194,0.122-0.252,0.379-0.13,0.573s0.379,0.252,0.573,0.13C419.494,361.267,419.553,361.011,419.43,360.816z M414.077,352.254
		c-0.122-0.194-0.379-0.252-0.573-0.13c-0.194,0.122-0.252,0.379-0.13,0.573c0.122,0.194,0.379,0.252,0.573,0.13l0,0
		c0.193-0.116,0.255-0.365,0.14-0.558C414.084,352.264,414.081,352.259,414.077,352.254L414.077,352.254z M398.73,363.172
		c-0.225,0.05-0.373,0.266-0.339,0.494c0.039,0.224,0.253,0.375,0.477,0.336c0.227-0.036,0.384-0.247,0.353-0.475
		C399.182,363.295,398.964,363.137,398.73,363.172z M397.068,353.211c-0.225,0.05-0.373,0.266-0.339,0.494
		c0.039,0.224,0.253,0.375,0.477,0.336c0.219-0.031,0.372-0.233,0.341-0.452c-0.001-0.008-0.003-0.016-0.004-0.025
		C397.507,353.337,397.296,353.18,397.068,353.211L397.068,353.211z M418.952,371.714c-0.265,0.041-0.448,0.285-0.414,0.551
		c0.044,0.262,0.291,0.439,0.553,0.398c0.263-0.044,0.445-0.286,0.414-0.551C419.462,371.85,419.215,371.672,418.952,371.714
		L418.952,371.714z M417.134,360.194c-0.263,0.043-0.44,0.291-0.397,0.553c0.043,0.263,0.291,0.44,0.553,0.397
		c0.262-0.043,0.44-0.291,0.397-0.553C417.643,360.33,417.397,360.153,417.134,360.194z M415.333,348.677
		c-0.263,0.033-0.449,0.272-0.416,0.535c0.033,0.263,0.272,0.449,0.535,0.416c0.007-0.001,0.014-0.002,0.02-0.003
		c0.265-0.041,0.448-0.285,0.414-0.551C415.842,348.813,415.595,348.635,415.333,348.677z M396.22,365.561
		c-0.255-0.061-0.51,0.096-0.571,0.351c-0.001,0.003-0.001,0.006-0.002,0.009c-0.064,0.256,0.087,0.517,0.341,0.588
		c0.259,0.051,0.515-0.104,0.59-0.358c0.064-0.261-0.095-0.525-0.357-0.59C396.221,365.561,396.221,365.561,396.22,365.561z
		 M398.954,354.232c-0.247-0.066-0.501,0.082-0.566,0.329c-0.003,0.01-0.005,0.02-0.007,0.031c-0.063,0.252,0.09,0.508,0.343,0.571
		c0,0,0,0,0.001,0c0.261,0.064,0.525-0.095,0.59-0.357c0,0,0-0.001,0-0.001c0.066-0.247-0.082-0.501-0.329-0.566
		C398.975,354.236,398.964,354.234,398.954,354.232z M403.268,369.324c-0.263-0.055-0.52,0.114-0.575,0.377
		c-0.055,0.263,0.114,0.52,0.377,0.575c0.262,0.055,0.52-0.113,0.575-0.376C403.7,369.637,403.531,369.379,403.268,369.324
		C403.268,369.324,403.268,369.324,403.268,369.324L403.268,369.324z M405.521,357.928c-0.266-0.041-0.518,0.131-0.578,0.393
		c-0.041,0.257,0.125,0.502,0.379,0.559c0.263,0.055,0.52-0.114,0.576-0.376C405.945,358.243,405.78,357.989,405.521,357.928
		L405.521,357.928z M424.956,351.648c-0.262,0.055-0.432,0.309-0.383,0.572c0.058,0.259,0.315,0.423,0.574,0.367
		c0.258-0.047,0.429-0.294,0.382-0.551c0-0.001,0-0.003-0.001-0.004C425.47,351.771,425.219,351.603,424.956,351.648
		L424.956,351.648z M383.917,354.854c-0.215-0.145-0.506-0.087-0.651,0.127c-0.004,0.006-0.008,0.012-0.011,0.018
		c-0.146,0.218-0.089,0.513,0.128,0.66c0.222,0.15,0.523,0.094,0.676-0.126c0.149-0.221,0.091-0.521-0.13-0.67
		C383.926,354.86,383.922,354.857,383.917,354.854z M403.207,349.381c-0.171-0.087-0.38-0.018-0.467,0.153
		c-0.006,0.011-0.011,0.022-0.015,0.034c-0.08,0.184,0.004,0.398,0.188,0.478c0.184,0.08,0.398-0.004,0.478-0.188
		C403.471,349.675,403.388,349.462,403.207,349.381z M421.611,348.6c-0.199-0.005-0.365,0.152-0.37,0.351c0,0.001,0,0.002,0,0.003
		c0.005,0.196,0.158,0.356,0.354,0.37c0.199,0.002,0.363-0.155,0.37-0.354c0.011-0.193-0.136-0.358-0.328-0.369
		C421.628,348.6,421.62,348.6,421.611,348.6L421.611,348.6z"/>
	
		<linearGradient id="L_hand_1_" gradientUnits="userSpaceOnUse" x1="656.4437" y1="500.2392" x2="717.8232" y2="464.7809" gradientTransform="matrix(1 0 0 -1 0 722)">
		<stop  offset="0" style="stop-color:#23286B"/>
		<stop  offset="0.0713" style="stop-color:#222768"/>
		<stop  offset="0.6731" style="stop-color:#181D55"/>
		<stop  offset="1" style="stop-color:#151A4F"/>
	</linearGradient>
	<path id="L_hand" style="fill:url(#L_hand_1_);" d="M666.43,197.81c0,0,3.995,1.548,28.29,37.93c4.526,6.778,0.09,0.51,0.09,0.51
		l-26.74,21.95c0,0-22.555-31.133-24.16-43.09l0,0C643.91,215.11,659.067,199.996,666.43,197.81"/>
	
		<linearGradient id="sweater-2_1_" gradientUnits="userSpaceOnUse" x1="628.3109" y1="527.9061" x2="628.3109" y2="383.6136" gradientTransform="matrix(1 0 0 -1 0 722)">
		<stop  offset="0" style="stop-color:#23286B"/>
		<stop  offset="0.5746" style="stop-color:#191E58"/>
		<stop  offset="1" style="stop-color:#151A4F"/>
	</linearGradient>
	<path id="sweater-2" style="fill:url(#sweater-2_1_);" d="M637.097,187.504c0,0,17.688,69.565,50.368,105.968
		c0,0-55.845,38.057-118.309-3.723c0,0,31.057-93.649,32.68-101.762C602.25,185.918,637.097,187.504,637.097,187.504"/>
	
		<linearGradient id="_2_bottom_1_" gradientUnits="userSpaceOnUse" x1="308.213" y1="385.2054" x2="308.213" y2="277.8542" gradientTransform="matrix(1 0 0 -1 0 722)">
		<stop  offset="0" style="stop-color:#F1B505"/>
		<stop  offset="1" style="stop-color:#D89C05"/>
	</linearGradient>
	<rect id="_2_bottom" x="294.051" y="340.781" style="fill:url(#_2_bottom_1_);" width="28.323" height="94.251"/>
	
		<linearGradient id="_1_bottom_1_" gradientUnits="userSpaceOnUse" x1="355.0284" y1="418.5572" x2="355.0284" y2="303.9103" gradientTransform="matrix(1 0 0 -1 0 722)">
		<stop  offset="0" style="stop-color:#F1B505"/>
		<stop  offset="1" style="stop-color:#D89C05"/>
	</linearGradient>
	<rect id="_1_bottom" x="340.867" y="308.066" style="fill:url(#_1_bottom_1_);" width="28.323" height="94.251"/>
	
		<linearGradient id="middle_part_1_" gradientUnits="userSpaceOnUse" x1="294.1086" y1="399.9063" x2="628.9808" y2="399.9063" gradientTransform="matrix(1 0 0 -1 0 722)">
		<stop  offset="0" style="stop-color:#F1B505"/>
		<stop  offset="1" style="stop-color:#D89C05"/>
	</linearGradient>
	<rect id="middle_part" x="294.109" y="297.125" style="fill:url(#middle_part_1_);" width="334.872" height="49.937"/>
	
		<linearGradient id="top_1_" gradientUnits="userSpaceOnUse" x1="602.9453" y1="411.3962" x2="866.9736" y2="411.3962" gradientTransform="matrix(1 0 0 -1 0 722)">
		<stop  offset="0" style="stop-color:#F1B505"/>
		<stop  offset="1" style="stop-color:#D89C05"/>
	</linearGradient>
	<path id="top" style="fill:url(#top_1_);" d="M734.959,442.618c-72.793,0-132.014-59.222-132.014-132.014
		c0-72.793,59.221-132.015,132.014-132.015s132.015,59.222,132.015,132.015C866.974,383.396,807.752,442.618,734.959,442.618z
		 M734.959,225.589c-46.952,0-85.014,38.062-85.014,85.015c0,46.952,38.062,85.014,85.015,85.014
		c46.952,0,85.014-38.062,85.014-85.014C819.921,263.674,781.889,225.642,734.959,225.589z"/>
</g>
<g id="woman">
	
		<linearGradient id="L_shoe_1_" gradientUnits="userSpaceOnUse" x1="717.41" y1="92.242" x2="639.532" y2="111.4448" gradientTransform="matrix(1 0 0 -1 0 722)">
		<stop  offset="0" style="stop-color:#23286B"/>
		<stop  offset="0.5746" style="stop-color:#191E58"/>
		<stop  offset="1" style="stop-color:#151A4F"/>
	</linearGradient>
	<path id="L_shoe" style="fill:url(#L_shoe_1_);" d="M628.364,589.801l-14.377,40.106l101.499,0.003c0,0-5.204-10.038-22.553-17.474
		s-33.543-22.635-33.543-22.635H628.364"/>
	<path id="R_shoe" style="fill:#23286B;" d="M565.885,589.424l-14.377,40.106l101.499,0.003c0,0-5.204-10.038-22.553-17.474
		s-33.543-22.635-33.543-22.635H565.885"/>
	
		<linearGradient id="L_shoulder_1_" gradientUnits="userSpaceOnUse" x1="649.025" y1="529.5217" x2="649.025" y2="475.9202" gradientTransform="matrix(1 0 0 -1 0 722)">
		<stop  offset="0" style="stop-color:#23286B"/>
		<stop  offset="0.5746" style="stop-color:#191E58"/>
		<stop  offset="1" style="stop-color:#151A4F"/>
	</linearGradient>
	<path id="L_shoulder" style="fill:url(#L_shoulder_1_);" d="M666.43,197.81c-8.104,4.944-15.654,10.744-22.52,17.3l-12.29-24.23
		l5.48-3.38C637.1,187.5,652.01,186.03,666.43,197.81z"/>
	
		<linearGradient id="neck_1_" gradientUnits="userSpaceOnUse" x1="620.2757" y1="540.7054" x2="637.0972" y2="540.7054" gradientTransform="matrix(1 0 0 -1 0 722)">
		<stop  offset="0" style="stop-color:#FFBEB6"/>
		<stop  offset="1" style="stop-color:#F2A19C"/>
	</linearGradient>
	<path id="neck" style="fill:url(#neck_1_);" d="M634.659,172.633c0,0-0.244,11.702,2.438,14.871c0,0-5.363,8.289-16.821,1.463
		l0.975-18.04L634.659,172.633z"/>
	
		<linearGradient id="R_hand_1_" gradientUnits="userSpaceOnUse" x1="651.2963" y1="449.8972" x2="580.3329" y2="469.0764" gradientTransform="matrix(0.9615 0.2749 0.2749 -0.9615 -101.7493 569.5438)">
		<stop  offset="0" style="stop-color:#FFBEB6"/>
		<stop  offset="1" style="stop-color:#F2A19C"/>
	</linearGradient>
	<path id="R_hand" style="fill:url(#R_hand_1_);" d="M600.441,281.657c0,0,12.755,10.06,21.351,14.597
		c7.843,4.14,11.738,5.535,14.931,1.376c2.887-3.916,5.407-8.089,7.528-12.467c0.881-2.018,4.016-2.343,3.731,2.731
		s-6.928,8.476-3.896,10.823s12.944,2.104,20.296,1.138s11.378-1.257,5.656,8.336s-13.088,15.554-34.498,8.574
		s-35.949-4.337-43.184-3.084L600.441,281.657z"/>
	<path id="R_sleeve-2" style="fill:#23286B;" d="M601.978,199.863c0,0-10.282,28.1-10.832,47.386s2.922,22.74,18.281,29.031
		s18.948,6.682,18.948,6.682l-19.023,60.247c0,0-17.19,2.072-28.747-11.99s-16.164-17.752-24.531-21.314
		s-24.937-16.298-17.723-44.854s19.466-49.636,50.265-76.502l0,0"/>
	<path id="face" style="fill:#FFBEB6;" d="M648.175,144.197c0.017,0.128,0.027,0.223,0.037,0.279
		c0.008,0.018,0.012,0.037,0.01,0.057c0.069,0.511,0.121,1.033,0.16,1.576c0.421,5.836,4.394,10.546,4.302,12.142
		s-3.268,2.498-4.768,2.56s-1.134,6.465-7.436,10.432c-5.914,3.723-17.002,3.677-22.474,0.251
		c-1.545-12.529-11.728-39.587,0.579-44.51c13.432-5.378,25.646,7.303,25.646,7.303C646.27,137.254,647.618,140.64,648.175,144.197z
		"/>
	<path id="eye" style="fill:#1C2868;" d="M644.069,149.452c1.417,2.015,4.199,2.499,6.214,1.082c0.73-0.513,1.289-1.233,1.605-2.067
		c0.245-0.633-0.698-1.134-0.946-0.493c-0.598,1.778-2.523,2.734-4.301,2.137c-0.67-0.225-1.254-0.654-1.668-1.227
		C644.563,148.337,643.657,148.901,644.069,149.452z"/>
	
		<linearGradient id="hair_1_" gradientUnits="userSpaceOnUse" x1="572.2875" y1="560.8251" x2="648.3732" y2="560.8251" gradientTransform="matrix(1 0 0 -1 0 722)">
		<stop  offset="0.1291" style="stop-color:#428DFC"/>
		<stop  offset="0.9987" style="stop-color:#1D72D8"/>
	</linearGradient>
	<path id="hair" style="fill:url(#hair_1_);" d="M646.745,135.454c-2.555-3.362-10.625-8.339-15.333-9.953
		c-0.262-0.116-0.547-0.175-0.834-0.17c-4.299-1.641-8.973-2.043-13.49-1.16c-13.34,2.722-25.881,17.35-22.464,31.799
		c0.796,4.925-0.211,9.972-2.835,14.214c-2.676,4.246-6.907,6.66-10.901,9.497c-4.84,3.437-9.192,7.821-8.534,14.199
		c0.049,0.475,0.8,0.48,0.75,0c-1.186-11.505,12.777-14.382,18.436-22.008c2.586-3.514,4.009-7.748,4.071-12.111
		c2.732,12.858-5.816,17.191-10.737,20.996c-7.795,6.026-8.124,13.446-8.124,13.446c30.254,9.805,48.743,0.28,48.743,0.28
		s8.124-9.805,1.681-23.531s-5.603-15.127,4.762-24.091c0.15-0.13,0.287-0.247,0.433-0.373c-3.976,4.59-7.359,9.898-6.411,16.206
		c0.702,4.672,3.508,8.721,4.481,13.335c1.231,6.229,0.223,12.693-2.845,18.252c-0.226,0.426,0.421,0.805,0.648,0.379
		c3.572-6.454,4.403-14.072,2.308-21.145c-1.539-4.994-4.489-9.295-3.83-14.744c0.75-6.198,5.368-11.244,9.49-15.567l0,0
		c3.867-3.301,5.507-4.804,5.878-6.617c0.704,0.612,5.244,2.555,5.997,7.075C648.084,143.663,649.3,138.817,646.745,135.454z"/>
	
		<linearGradient id="L_sleeve_1_" gradientUnits="userSpaceOnUse" x1="703.9918" y1="449.9254" x2="702.8038" y2="505.4631" gradientTransform="matrix(1 0 0 -1 0 722)">
		<stop  offset="0" style="stop-color:#23286B"/>
		<stop  offset="0.0713" style="stop-color:#222768"/>
		<stop  offset="0.6731" style="stop-color:#181D55"/>
		<stop  offset="1" style="stop-color:#151A4F"/>
	</linearGradient>
	<path id="L_sleeve" style="fill:url(#L_sleeve_1_);" d="M738.79,247.83c-0.04,0.54-0.09,1.08-0.15,1.62
		c-0.04,0.43-0.09,0.85-0.15,1.28c-0.04,0.36-0.09,0.71-0.15,1.06c-0.06,0.4-0.12,0.8-0.2,1.19c-0.05,0.34-0.11,0.67-0.18,1
		c-0.04,0.23-0.09,0.45-0.14,0.67c-0.06,0.31-0.13,0.62-0.21,0.92c-0.012,0.081-0.029,0.161-0.05,0.24
		c-0.03,0.12-0.06,0.25-0.1,0.37c-0.06,0.28-0.14,0.57-0.22,0.85c-0.02,0.1-0.05,0.2-0.08,0.31c-0.11,0.4-0.23,0.8-0.36,1.2
		c-0.18,0.6-0.39,1.19-0.61,1.77c-0.1,0.28-0.21,0.56-0.33,0.84c0.001,0.014-0.002,0.028-0.01,0.04c-0.17,0.42-0.34,0.83-0.53,1.24
		c-0.36,0.81-0.76,1.601-1.2,2.37c-0.23,0.42-0.48,0.84-0.73,1.24c-3.273,4.618-7.743,8.255-12.93,10.52
		c-0.11,0.05-0.22,0.09-0.33,0.13c-1.396,0.566-2.838,1.011-4.31,1.33c-0.21,0.06-0.43,0.11-0.64,0.15
		c-0.2,0.05-0.41,0.09-0.62,0.13c-0.872,0.175-1.754,0.302-2.64,0.38c-3.66,0.317-7.344,0.25-10.99-0.2l-0.3-0.03
		c-1.427-0.159-2.839-0.436-4.22-0.83c-1.605-0.454-3.178-1.012-4.71-1.67c-3.761-1.65-7.357-3.652-10.74-5.98
		c-2.237-1.423-4.36-3.018-6.35-4.77c-0.05-0.04-0.08-0.08-0.11-0.09c-0.01-0.02-0.03-0.03-0.04-0.04l-0.01-0.01
		c-0.015-0.016-0.031-0.029-0.05-0.04c0.008-0.001,0.015-0.005,0.02-0.01c-0.72-0.76-3.47-3.65-6.35-6.81
		c0.43-0.55,0.87-1.1,1.32-1.64c7.02-8.51,15.622-15.58,25.33-20.82c-0.181-1.111-0.455-2.205-0.82-3.27
		c-0.246-0.729-0.533-1.443-0.86-2.14c-0.518-1.09-1.116-2.139-1.79-3.14c-5.46-8.07-1.45-14.68-1.13-15.18
		c0.005-0.011,0.012-0.021,0.02-0.03l42.68-5.74l-0.08,0.21l0.15-0.02c0.48,1.36,3.35,9.98,5.41,26.18
		C738.977,237.654,739.141,242.753,738.79,247.83z"/>
	
		<linearGradient id="L_hand-2_1_" gradientUnits="userSpaceOnUse" x1="706.5581" y1="530.0524" x2="701.8796" y2="550.1033" gradientTransform="matrix(1 0 0 -1 0 722)">
		<stop  offset="0" style="stop-color:#FFBEB6"/>
		<stop  offset="1" style="stop-color:#F2A19C"/>
	</linearGradient>
	<path id="L_hand-2" style="fill:url(#L_hand-2_1_);" d="M715.79,207.9c0.06,0.18,0.14,0.37,0.24,0.6l-16.51,2.22
		c-6.81-19.6-11.49-19.69-10.87-24.13c0.104-1.55,0.989-2.94,2.35-3.69c4.71-1.93,5.13-3.2,15.79-4.64c1.8-0.25,4.02-0.01,4.73,1.95
		c0.596,1.359,1.267,2.685,2.01,3.97c1.18,2.14,1.58-1.46,2.87-4.29c1.22-0.906,2.827-1.104,4.23-0.52
		c0.19,3.85-1.48,10.25-5.24,12.85C710.04,195.93,713.29,201.09,715.79,207.9z"/>
	
		<linearGradient id="L_sleeve-2_1_" gradientUnits="userSpaceOnUse" x1="713.5067" y1="496.8718" x2="711.4661" y2="552.7352" gradientTransform="matrix(1 0 0 -1 0 722)">
		<stop  offset="0" style="stop-color:#23286B"/>
		<stop  offset="0.5746" style="stop-color:#191E58"/>
		<stop  offset="1" style="stop-color:#151A4F"/>
	</linearGradient>
	<path id="L_sleeve-2" style="fill:url(#L_sleeve-2_1_);" d="M738.3,232.61c-2.06-16.2-4.93-24.82-5.41-26.18
		c-0.05-0.13-0.07-0.19-0.07-0.19l-42.68,5.74c-0.008,0.009-0.015,0.019-0.02,0.03c-0.32,0.5-4.33,7.11,1.13,15.18
		c1.769,2.567,2.96,5.488,3.49,8.56l-0.02-0.01c0,0,0.02,0.1,0.06,0.28c0.01,0.07,0.02,0.14,0.03,0.23
		c1.061,7.081,0.462,14.311-1.75,21.12c-0.11,0.33-0.21,0.67-0.29,1.01c-0.021,0.076-0.037,0.157-0.057,0.233
		c-1.018,4-1.44,8.128-1.253,12.251c0,0.025,0,0.051,0,0.076c-0.01,0.039-0.01,0.081,0,0.12c0.02,1.79,0.11,3.46,0.24,4.89
		c1.532,0.659,3.105,1.216,4.71,1.67c1.381,0.394,2.793,0.671,4.22,0.83l0.3,0.03c3.646,0.45,7.33,0.517,10.99,0.2
		c0.886-0.078,1.768-0.205,2.64-0.38c0.21-0.04,0.42-0.08,0.62-0.13c0.21-0.04,0.43-0.09,0.64-0.15
		c1.472-0.319,2.914-0.764,4.31-1.33c0.11-0.04,0.22-0.08,0.33-0.13c5.374-1.947,9.931-5.655,12.93-10.52
		c0.25-0.4,0.5-0.82,0.73-1.24c0.21-0.368,0.411-0.741,0.602-1.118l0.011-0.02c0.206-0.406,0.402-0.816,0.587-1.232
		c0.178-0.384,0.337-0.769,0.496-1.161c0.051-0.125,0.096-0.253,0.146-0.379c0.079-0.193,0.159-0.387,0.228-0.58
		c0.187-0.493,0.358-0.997,0.519-1.505c0.046-0.143,0.096-0.285,0.14-0.429c0.11-0.346,0.216-0.691,0.311-1.037
		c0.03-0.11,0.06-0.21,0.08-0.31c0.08-0.28,0.16-0.57,0.22-0.85c0.04-0.12,0.07-0.25,0.1-0.37
		C739.32,248.53,739.29,240.36,738.3,232.61z"/>
</g>
<g id="man">
	
		<linearGradient id="R_shoe-2_1_" gradientUnits="userSpaceOnUse" x1="511.8374" y1="111.8493" x2="350.7474" y2="112.9161" gradientTransform="matrix(1 0 0 -1 0 722)">
		<stop  offset="0.1291" style="stop-color:#428DFC"/>
		<stop  offset="0.9987" style="stop-color:#1D72D8"/>
	</linearGradient>
	<path id="R_shoe-2" style="fill:url(#R_shoe-2_1_);" d="M458.691,589.801l-14.377,40.106l101.499,0.003
		c0,0-5.204-10.038-22.553-17.474s-33.543-22.635-33.543-22.635H458.691"/>
	<path id="L_shoe-2" style="fill:#428DFC;" d="M368.877,590.143L354.5,630.249l101.499,0.003c0,0-5.204-10.038-22.553-17.474
		s-33.543-22.635-33.543-22.635H368.877"/>
	
		<linearGradient id="L_hand-3_1_" gradientUnits="userSpaceOnUse" x1="500.0471" y1="375.2603" x2="487.7771" y2="427.8458" gradientTransform="matrix(1 0 0 -1 0 722)">
		<stop  offset="0" style="stop-color:#FFBEB6"/>
		<stop  offset="1" style="stop-color:#F2A19C"/>
	</linearGradient>
	<path id="L_hand-3" style="fill:url(#L_hand-3_1_);" d="M514.26,314.44c9.81,8.71,13.8,30.86,9.81,36.31
		c-4,5.44-17.07,14.88-23.24,13.07c-6.17-1.82,7.99-14.89,5.81-19.24c-2.18-4.36-6.54,9.8-9.44,10.53
		c-2.91,0.72-4.72-3.27-1.45-10.17c3.26-6.9,10.16-18.52,3.63-23.96c-3.63-3.02-29.611-13.516-38.224-23.879l19.479-13.728"/>
	
		<linearGradient id="R_hand-2_1_" gradientUnits="userSpaceOnUse" x1="453.3302" y1="365.1093" x2="376.2177" y2="431.0833" gradientTransform="matrix(1 0 0 -1 0 722)">
		<stop  offset="0" style="stop-color:#FFBEB6"/>
		<stop  offset="1" style="stop-color:#F2A19C"/>
	</linearGradient>
	<path id="R_hand-2" style="fill:url(#R_hand-2_1_);" d="M395.072,301.772c0,0,17.065,22.511,27.957,29.046
		s15.249,6.898,20.332,4.72s18.154-10.529,19.606-9.44s-0.363,5.809-4.357,7.988s-9.803,8.714,2.905,11.619
		s17.065,3.268,17.065,5.083s-2.542,9.803-13.797,15.612s-18.154-3.268-23.963-7.988s-12.708-13.071-18.154-13.071
		s-38.123-10.892-47.563-16.339l0,0L395.072,301.772"/>
	<path id="R_sleeve-3" style="fill:#A1C3FC;" d="M405.884,188.272c0,0-16.697,29.116-20.963,50.334s-3.74,28.964,8.909,42.626
		c9.873,10.663,19.312,19.777,19.312,19.777l-30.803,54.498c0,0-19.746-8.688-24.998-26.066
		c-5.907-19.544-14.503-22.692-23.078-28.217s-24.478-22.748-11.086-52.951s30.935-51.184,70.081-75.044l0,0"/>
	
		<linearGradient id="neck-2_1_" gradientUnits="userSpaceOnUse" x1="311.8998" y1="474.4484" x2="295.5884" y2="478.9481" gradientTransform="matrix(-0.213 0.9771 -0.9771 -0.213 932.8759 -29.4389)">
		<stop  offset="0" style="stop-color:#FFBEB6"/>
		<stop  offset="1" style="stop-color:#F29B94"/>
	</linearGradient>
	<path id="neck-2" style="fill:url(#neck-2_1_);" d="M411.796,174.553c-0.941-8.154,0.092-11.517,0.57-13.873
		c-0.58-0.079-4.181-0.092-4.739-0.214c-1.503-0.213-2.979-0.59-4.4-1.124l-3.611-2.065c1.013-0.591,1.021-0.793,1.157-1.36
		c0.51-2.122-1.009-2.824-3.038-3.601c0.554,7.431-5.081,21.72-5.081,21.72C407.067,180.188,411.796,174.553,411.796,174.553z"/>
	<path id="face-2" style="fill:#FFBEB6;" d="M423.429,157.678c5.91-4.756,7.286-12.435,8.794-12.668
		c1.511-0.244,4.609-1.528,4.523-3.159c-0.1-1.622-4.671-5.916-5.795-11.775c-0.096-0.546-0.211-1.061-0.337-1.579
		c-0.006-0.025-0.004-0.037-0.024-0.053l-0.071-0.278c-0.093-0.343-0.263-0.929-0.53-1.68c-3.294,3.057-6.71,4.641-8.681,4.26
		c-5.583-1.074-5.215,2.28-8.85,7.555c-3.648,5.285-8.531,4.34-15.318,4.676c-6.789,0.348-5.146,6.786-2.065,8.27
		c3.078,1.495,5.236,1.947,4.511,4.942c-0.062,0.611-0.252,1.203-0.556,1.737l0.801,0.344c0.254,0.109,0.512,0.205,0.775,0.289
		l3.663,1.164C410.855,161.779,417.893,162.145,423.429,157.678z"/>
	
		<linearGradient id="cap_bottom_1_" gradientUnits="userSpaceOnUse" x1="391.754" y1="581.6957" x2="391.924" y2="564.1785" gradientTransform="matrix(1 0 0 -1 0 722)">
		<stop  offset="0.1291" style="stop-color:#428DFC"/>
		<stop  offset="0.9987" style="stop-color:#1D72D8"/>
	</linearGradient>
	<path id="cap_bottom" style="fill:url(#cap_bottom_1_);" d="M355.158,161.157l72.627-41.931l0,0l1.586,2.747l0,0l-74.322,42.91l0,0
		l-0.607-1.052C353.901,162.895,354.221,161.698,355.158,161.157z"/>
	
		<linearGradient id="cap_top_1_" gradientUnits="userSpaceOnUse" x1="408.6623" y1="606.2621" x2="372.0972" y2="587.0443" gradientTransform="matrix(1 0 0 -1 0 722)">
		<stop  offset="0" style="stop-color:#428DFC"/>
		<stop  offset="0.9979" style="stop-color:#2176DB"/>
	</linearGradient>
	<path id="cap_top" style="fill:url(#cap_top_1_);" d="M374.67,119.659l40.03-23.111l0,0l13.083,22.66l0,0l-48.235,27.848l0,0
		l-8.346-14.456C368.586,128.069,370.139,122.275,374.67,119.659L374.67,119.659z"/>
	<path id="texture-3" style="opacity:0.86;fill:#FFFFFF;enable-background:new    ;" d="M383.404,127.32
		c0.036,0.091,0.139,0.137,0.231,0.101c0,0,0,0,0,0c0.085-0.03,0.128-0.124,0.098-0.208c-0.003-0.007-0.006-0.014-0.009-0.021
		c-0.032-0.088-0.13-0.134-0.219-0.102C383.414,127.125,383.368,127.229,383.404,127.32
		C383.404,127.32,383.404,127.32,383.404,127.32z M374.379,126.763c0.006,0.097,0.084,0.174,0.181,0.18c0.1,0,0.18-0.082,0.18-0.181
		s-0.082-0.18-0.181-0.18l0,0C374.462,126.588,374.385,126.666,374.379,126.763z M374.393,122.51
		c0.003,0.096,0.084,0.171,0.179,0.168c0,0,0,0,0,0c0.093,0.007,0.174-0.062,0.181-0.155c0-0.005,0.001-0.01,0-0.015
		c-0.003-0.099-0.083-0.178-0.181-0.18C374.476,122.335,374.399,122.413,374.393,122.51L374.393,122.51z M381.885,142.969
		c0.062,0.173,0.252,0.265,0.426,0.206c0.171-0.056,0.265-0.239,0.209-0.41c0-0.001-0.001-0.002-0.001-0.004
		c-0.045-0.171-0.22-0.272-0.391-0.227c-0.008,0.002-0.016,0.005-0.025,0.008C381.931,142.606,381.836,142.792,381.885,142.969
		L381.885,142.969z M379.332,135.314c0.065,0.172,0.25,0.267,0.428,0.218c0.173-0.062,0.265-0.252,0.206-0.426
		c-0.059-0.173-0.247-0.267-0.42-0.208c-0.002,0.001-0.004,0.001-0.006,0.002c-0.171,0.056-0.265,0.239-0.209,0.41
		C379.332,135.312,379.332,135.313,379.332,135.314L379.332,135.314z M376.781,127.671c0.052,0.169,0.23,0.264,0.399,0.213
		c0.005-0.002,0.01-0.003,0.015-0.005c0.175-0.052,0.275-0.236,0.223-0.411c-0.002-0.005-0.003-0.011-0.005-0.016
		c-0.06-0.175-0.25-0.268-0.425-0.208c-0.175,0.06-0.268,0.25-0.208,0.425C376.78,127.668,376.781,127.67,376.781,127.671
		L376.781,127.671z M374.217,120.017c0.062,0.173,0.252,0.265,0.426,0.206c0.169-0.052,0.264-0.23,0.213-0.399
		c-0.002-0.005-0.003-0.01-0.005-0.015c-0.056-0.174-0.241-0.271-0.416-0.219C374.259,119.651,374.163,119.839,374.217,120.017
		L374.217,120.017z M372.448,134.822c0.039,0.157,0.198,0.253,0.355,0.216c0.155-0.034,0.253-0.188,0.219-0.343
		c-0.001-0.004-0.002-0.008-0.003-0.012c-0.034-0.16-0.191-0.263-0.351-0.229c-0.002,0-0.004,0.001-0.005,0.001
		C372.503,134.499,372.409,134.662,372.448,134.822z M370.825,127.797c0.034,0.16,0.191,0.263,0.351,0.229
		c0.002,0,0.004-0.001,0.005-0.001c0.152-0.029,0.252-0.176,0.223-0.328c-0.002-0.009-0.004-0.018-0.007-0.027
		c-0.034-0.16-0.191-0.263-0.351-0.229c-0.002,0-0.004,0.001-0.005,0.001C370.886,127.483,370.791,127.64,370.825,127.797
		L370.825,127.797z M385.57,132.789c0.087,0.129,0.263,0.162,0.391,0.075c0.005-0.003,0.01-0.007,0.015-0.011
		c0.136-0.091,0.172-0.275,0.08-0.411c-0.002-0.003-0.004-0.006-0.006-0.009c-0.1-0.129-0.284-0.157-0.418-0.063
		c-0.132,0.093-0.164,0.275-0.071,0.407C385.565,132.782,385.568,132.785,385.57,132.789L385.57,132.789z M381.387,126.925
		c0.097,0.134,0.283,0.167,0.42,0.074c0.133-0.1,0.16-0.289,0.059-0.422c-0.095-0.126-0.272-0.158-0.405-0.072
		c-0.135,0.089-0.173,0.27-0.084,0.405C381.38,126.916,381.383,126.92,381.387,126.925L381.387,126.925z M378.236,136.706
		c0.118,0.152,0.334,0.185,0.492,0.076c0.151-0.118,0.178-0.336,0.06-0.487c-0.114-0.146-0.323-0.177-0.474-0.07
		C378.164,136.339,378.13,136.551,378.236,136.706L378.236,136.706z M373.345,129.989c0.113,0.15,0.325,0.185,0.48,0.078
		c0.154-0.111,0.189-0.326,0.078-0.48c-0.111-0.154-0.326-0.189-0.48-0.078C373.271,129.621,373.236,129.834,373.345,129.989
		L373.345,129.989z"/>
	<path id="mouth" style="fill:#1C2868;" d="M423.273,150.92c0.564,2.398,2.965,3.885,5.363,3.321c0.868-0.204,1.655-0.664,2.26-1.32
		c0.464-0.496-0.225-1.313-0.694-0.81c-1.217,1.427-3.361,1.596-4.788,0.379c-0.538-0.459-0.919-1.075-1.091-1.761
		C424.147,150.071,423.096,150.256,423.273,150.92z"/>
	<path id="hair-2" style="fill:#23286B;" d="M441.98,112.532c-0.163-0.451-0.888-0.256-0.723,0.199
		c2.882,7.981-2.253,13.546-8.886,15.927c4.091-1.706,7.872-4.482,8.653-8.452c1.407-7.152-5.276-13.131-8.793-5.628
		s-2.86,7.394-4.455,8.207s-47.365,27.317-47.365,27.317s1.434,4.818,8.37,7.828s10.25-0.004,10.25-0.004s3.186-4.073-2.793-6.535
		s-4.103-9.848,2.697-8.324s13.483-1.641,15.359-6.8s3.869-5.393,9.028-5.51c0.297-0.007,0.615-0.025,0.948-0.053
		c5.187,0.279,10.645-0.877,14.451-4.636C442.355,122.579,443.628,117.294,441.98,112.532z"/>
</g>
</svg>
