<?xml version="1.0" encoding="iso-8859-1"?>
<!-- Generator: Adobe Illustrator 23.0.2, SVG Export Plug-In . SVG Version: 6.00 Build 0)  -->
<svg version="1.1" id="illustration" xmlns="http://www.w3.org/2000/svg" xmlns:xlink="http://www.w3.org/1999/xlink" x="0px"
	 y="0px" viewBox="0 0 1080 720" style="enable-background:new 0 0 1080 720;" xml:space="preserve">
<title>log out</title>
<g id="dog">
	
		<linearGradient id="door_1_" gradientUnits="userSpaceOnUse" x1="615.1896" y1="355.7535" x2="631.3781" y2="-162.2785" gradientTransform="matrix(1 0 0 -1 0 722)">
		<stop  offset="0.0898" style="stop-color:#EEEEEE"/>
		<stop  offset="0.8178" style="stop-color:#D6D7D8"/>
	</linearGradient>
	<rect id="door" x="516.56" y="124.76" style="fill:url(#door_1_);" width="197.9" height="503.48"/>
	
		<linearGradient id="back_leg_1_" gradientUnits="userSpaceOnUse" x1="691.5107" y1="114.2084" x2="650.4717" y2="162.2032" gradientTransform="matrix(1 0 0 -1 0 722)">
		<stop  offset="0" style="stop-color:#A1C3FC"/>
		<stop  offset="0.6955" style="stop-color:#81AEF2"/>
		<stop  offset="1" style="stop-color:#78A9EF"/>
	</linearGradient>
	<path id="back_leg" style="fill:url(#back_leg_1_);" d="M677.917,627.473l-19.797,0.337c0,0-8.56-1.71-9.42-13.69
		c-0.8-11.33,0.3-33.01,4.41-43.64c6.1-4.54,12.03-10.21,15.7-17.54c8.56-17.12,11.55-15.4,19.68-9.41c0.87,0.64,1.82,1.3,2.83,1.96
		c-0.67,3.45-3.62,14.43-15.66,25.42c-14.55,13.26-19.084,43.364-8.463,45.842C674.189,618.384,679.316,618.384,677.917,627.473z"/>
	<path id="body" style="fill:#A1C3FC;" d="M714.46,495.75v60.93c-4.39-0.81-15.43-6.12-23.14-11.19c-0.13-0.09-0.25-0.17-0.38-0.25
		c-0.29-0.19-0.57-0.38-0.85-0.58c-0.56-0.38-1.09-0.76-1.6-1.13c-3.57-2.63-6.15-4.43-8.64-4.19
		c-0.021-0.002-0.041,0.002-0.06,0.01c-0.087,0.008-0.174,0.022-0.26,0.04c-0.321,0.054-0.637,0.141-0.94,0.26
		c-0.134,0.048-0.264,0.105-0.39,0.17c-0.01,0-0.01,0.01-0.02,0.01l-0.06,0.03c-0.13,0.07-0.26,0.14-0.39,0.22
		c-0.15,0.09-0.29,0.18-0.44,0.29c-0.15,0.1-0.29,0.21-0.44,0.33c-0.229,0.179-0.446,0.373-0.65,0.58
		c-0.11,0.11-0.22,0.22-0.33,0.33c-0.12,0.12-0.23,0.24-0.34,0.36s-0.23,0.25-0.34,0.39c-0.09,0.1-0.17,0.2-0.26,0.31
		c-0.08,0.11-0.17,0.21-0.26,0.33c-0.09,0.11-0.17,0.22-0.26,0.34l-0.27,0.36c-0.36,0.49-0.73,1.03-1.11,1.62
		c-0.38,0.59-0.77,1.23-1.17,1.92c-0.27,0.46-0.54,0.94-0.82,1.45c-0.18,0.31-0.36,0.64-0.54,0.97c-0.25,0.47-0.51,0.96-0.77,1.47
		c-0.3,0.58-0.61,1.18-0.92,1.81c-0.19,0.37-0.38,0.74-0.58,1.1c-0.07,0.13-0.14,0.27-0.22,0.4c-0.22,0.4-0.45,0.81-0.7,1.2
		c-0.22,0.37-0.45,0.73-0.69,1.09c-0.21,0.34-0.44,0.67-0.67,1c-0.01,0.01-0.01,0.02-0.02,0.03s-0.02,0.03-0.03,0.04
		c-0.21,0.31-0.43,0.6-0.65,0.9c-0.4,0.55-0.83,1.1-1.26,1.63v0.01c-0.27,0.32-0.53,0.64-0.8,0.95
		c-0.031,0.039-0.064,0.076-0.1,0.11c-0.4,0.46-0.8,0.92-1.22,1.36c-0.35,0.38-0.71,0.75-1.07,1.11c-0.24,0.25-0.49,0.5-0.75,0.74
		c-0.27,0.27-0.55,0.54-0.83,0.8c-0.03,0.02-0.05,0.05-0.08,0.07c-0.18,0.17-0.36,0.33-0.54,0.5c-0.2,0.19-0.42,0.38-0.63,0.56
		c-0.24,0.22-0.48,0.43-0.73,0.64c-0.06,0.06-0.12,0.11-0.18,0.16s-0.13,0.11-0.19,0.16l-0.36,0.3c-0.36,0.3-0.71,0.59-1.07,0.88
		c-0.77,0.62-1.55,1.22-2.33,1.8c-8.14,6.06-16.57,10.08-20.24,13.26c-6.41,5.56-6.23,35.11,7.99,35.11c9.32,0,4.85,9.39,4.85,9.39
		h-22.25c0,0-3.42-3.43-8.13-24.39c-4.7-20.96,5.56-42.78,13.27-52.2c7.7-9.41,3.85-32.51,3.85-32.51
		c-49.2-0.43-47.49-35.08-47.49-35.08s2.56,6.42,22.67,15.83c8.33,3.9,18.43,3.24,28.46,1.08c0.49-0.1,0.98-0.21,1.46-0.32
		c13.68-3.15,27.07-8.83,35.54-9.32c8.78-0.5,21.53,1.12,30.57,2.53c0.66,0.11,1.31,0.21,1.93,0.31
		C710.41,494.96,713.84,495.63,714.46,495.75z"/>
	
		<linearGradient id="hand_1_" gradientUnits="userSpaceOnUse" x1="548.38" y1="299.46" x2="559.9709" y2="299.46" gradientTransform="matrix(1 0 0 -1 0 722)">
		<stop  offset="0" style="stop-color:#FFBEB6"/>
		<stop  offset="1" style="stop-color:#F2A19C"/>
	</linearGradient>
	<path id="hand" style="fill:url(#hand_1_);" d="M559.53,426.77c-4.439-1.714-8.304-4.646-11.15-8.46
		c1.902,0.021,3.792,0.297,5.62,0.82C562.29,421.08,559.53,426.77,559.53,426.77z"/>
	<path id="leash" style="fill:#23286B;" d="M705.59,494.17c-3.891-4.721-8.663-8.64-14.05-11.54c-15.14-7.9-32.74-5.84-49.17-6.42
		c-8.63-0.31-17.42-1.32-25.45-4.66c-6.12-2.55-13.74-7.6-16.6-14.22c0.65-0.01,1.3-0.04,1.95-0.08c3.98-0.25,8.32-1.05,11.07-4.21
		c2.33-2.69,2.99-6.51,0.68-9.42c-5.48-6.94-14.79-1.43-15.98,5.93c-0.346,2.176-0.174,4.403,0.5,6.5c-0.14,0-0.27-0.01-0.41-0.01
		c-21.523-0.68-39.716-16.154-43.84-37.29c-1.19-6.28-0.84-13.84,4.88-17.86c3.53-2.47,8.73-3.11,11.54,0.9
		c2.022,2.747,1.638,6.579-0.89,8.87c-0.61,0.52,0.28,1.4,0.89,0.88c5.28-4.45,1.76-13.2-4.79-13.89
		c-10.45-1.09-14.23,10.78-13.23,19.04c2.79,22.81,23.72,40.41,46.32,40.65c2.57,6.27,9.02,11.3,14.69,14.13
		c9.96,4.97,21.47,5.93,32.43,6.08c15.48,0.21,32.29-1.11,46.22,6.95c4.246,2.496,8.064,5.656,11.31,9.36
		c4.147,4.781,7.768,9.994,10.8,15.55v-2.5C711.881,502.413,708.913,498.15,705.59,494.17z M599.33,449.81
		c0.46-2.78,1.97-5.78,4.57-7.19c3.48-1.9,9-0.47,10.15,3.68c1.36,4.87-3.8,8.21-7.6,9.15c-2.168,0.487-4.389,0.699-6.61,0.63
		C599.161,454.063,598.986,451.91,599.33,449.81z"/>
</g>
<g id="man">
	
		<linearGradient id="L_shoe_1_" gradientUnits="userSpaceOnUse" x1="401.7381" y1="110.9169" x2="489.5251" y2="110.9169" gradientTransform="matrix(1 0 0 -1 0 722)">
		<stop  offset="0" style="stop-color:#F1B505"/>
		<stop  offset="1" style="stop-color:#D89C05"/>
	</linearGradient>
	<path id="L_shoe" style="fill:url(#L_shoe_1_);" d="M414.045,593.93l-12.307,34.304l87.787,0.003c0,0-4.501-8.682-19.507-15.113
		s-27.006-19.107-27.006-19.107L414.045,593.93"/>
	
		<linearGradient id="R_shoe_1_" gradientUnits="userSpaceOnUse" x1="282.4779" y1="67.2959" x2="392.3466" y2="-34.1214" gradientTransform="matrix(-1 0 0 -1 766.2393 722)">
		<stop  offset="0" style="stop-color:#F1B505"/>
		<stop  offset="1" style="stop-color:#D89C05"/>
	</linearGradient>
	<path id="R_shoe" style="fill:url(#R_shoe_1_);" d="M493.378,593.753l-12.316,34.481l87.787,0.003c0,0-4.501-8.682-19.507-15.113
		s-28.938-19.614-28.938-19.614L493.378,593.753"/>
	<path id="hand-2" style="fill:#FFBEB6;" d="M516.763,383.032c0,0,20.651,20.326,28.943,21.789s9.756-1.951,18.049,1.463
		s8.618,9.594,8.618,9.594s-2.927,12.683-12.846,10.894c0,0,2.764-5.691-5.529-7.642s-2.439,0.813-17.399-3.252
		s-29.757-9.594-29.757-9.594"/>
	
		<linearGradient id="L_trousers_1_" gradientUnits="userSpaceOnUse" x1="105.1754" y1="307.3731" x2="-22.7602" y2="228.0207" gradientTransform="matrix(-0.9999 -0.0023 -0.0023 -0.9635 442.41 716.9712)">
		<stop  offset="0.1291" style="stop-color:#428DFC"/>
		<stop  offset="0.9987" style="stop-color:#1D72D8"/>
	</linearGradient>
	<path id="L_trousers" style="fill:url(#L_trousers_1_);" d="M443.012,594.016c7.392-12.615,39.679-83.817,42.953-100.752
		c2.85-14.787,3.382-31.972,2.624-47.707l-0.72-65.156l-45.916-3.645l0,0c-2.231,2.934-4.301,18.164,4.235,66.328
		c6.611,37.301-8.517,40.315-15.18,52.973c-6.693,12.648-7.791,18.291-10.157,30.445c-2.695,13.843-10.791,18.011-13.796,31.893
		c-3.308,15.279-0.612,30.402,0.524,35.571L443.012,594.016z"/>
	
		<linearGradient id="R_trousers_1_" gradientUnits="userSpaceOnUse" x1="39.6267" y1="225.5897" x2="-83.3931" y2="149.2863" gradientTransform="matrix(-0.909 0.4164 -0.4053 -0.8741 538.5005 655.3596)">
		<stop  offset="0.1291" style="stop-color:#428DFC"/>
		<stop  offset="0.9987" style="stop-color:#1D72D8"/>
	</linearGradient>
	<path id="R_trousers" style="fill:url(#R_trousers_1_);" d="M434.923,383.578c-0.798,3.598-6.461,32.445,24.916,66.88
		c20.795,22.822,11.449,31.405,11.147,51.276c-0.173,11.394,3.182,17.476,6.12,29.504c3.346,13.7-6.12,15.455-3.147,34.405
		c2.987,19.04,10.032,28.239,10.032,28.239l36.413-0.372c0,0,6.378-88.612,1.858-107.01c-3.6-14.623-12.791-45.477-20.064-59.45
		l-25.377-56.551L434.923,383.578"/>
	<path id="texture" style="opacity:0.86;fill:#FFFFFF;enable-background:new    ;" d="M463.784,402.839
		c0.088,0.038,0.19-0.003,0.228-0.092c0.038-0.088-0.003-0.19-0.092-0.228c-0.088-0.038-0.191,0.003-0.228,0.092c0,0,0,0,0,0
		C463.655,402.699,463.696,402.801,463.784,402.839C463.784,402.839,463.784,402.839,463.784,402.839z M465.421,398.915
		c0.092,0.036,0.196-0.005,0.24-0.093c0.033-0.091-0.013-0.192-0.104-0.226c-0.081-0.041-0.18-0.008-0.22,0.073
		c-0.003,0.006-0.006,0.012-0.008,0.018C465.292,398.775,465.332,398.877,465.421,398.915
		C465.421,398.915,465.421,398.915,465.421,398.915L465.421,398.915z M467.069,394.99c0.088,0.038,0.19-0.003,0.228-0.092
		c0,0,0,0,0,0c0.036-0.092-0.005-0.196-0.093-0.24c-0.095-0.031-0.197,0.014-0.238,0.105
		C466.933,394.855,466.979,394.955,467.069,394.99L467.069,394.99z M481.601,402.794c0.036,0.091,0.139,0.137,0.231,0.101
		c0,0,0,0,0,0c0.085-0.03,0.128-0.124,0.098-0.208c-0.003-0.007-0.006-0.014-0.009-0.021c-0.032-0.088-0.13-0.134-0.219-0.102
		C481.61,402.599,481.565,402.702,481.601,402.794C481.601,402.794,481.601,402.794,481.601,402.794L481.601,402.794z
		 M457.665,395.954c0.066,0.067,0.174,0.069,0.241,0.003c0.067-0.066,0.069-0.174,0.003-0.241c-0.066-0.067-0.174-0.069-0.241-0.003
		c-0.067,0.059-0.074,0.162-0.015,0.229C457.657,395.946,457.661,395.95,457.665,395.954L457.665,395.954z M472.576,402.236
		c0.006,0.097,0.084,0.174,0.181,0.18c0.1,0,0.18-0.082,0.18-0.181c0-0.1-0.082-0.18-0.181-0.18l0,0
		C472.659,402.061,472.582,402.139,472.576,402.236L472.576,402.236z M472.59,397.983c0.003,0.096,0.084,0.171,0.18,0.168
		c0,0,0,0,0,0c0.093,0.007,0.174-0.062,0.181-0.155c0-0.005,0.001-0.01,0-0.015c-0.003-0.099-0.083-0.178-0.181-0.18
		C472.673,397.808,472.595,397.886,472.59,397.983L472.59,397.983z M440.603,403.891c0.118,0.139,0.326,0.156,0.465,0.039
		c0.003-0.003,0.006-0.005,0.009-0.008c0.136-0.118,0.152-0.324,0.034-0.46c-0.001-0.001-0.001-0.001-0.002-0.002
		c-0.118-0.139-0.326-0.156-0.465-0.039c-0.003,0.003-0.006,0.005-0.009,0.008c-0.136,0.118-0.152,0.323-0.034,0.46
		C440.602,403.89,440.602,403.891,440.603,403.891L440.603,403.891z M446.688,398.606c0.122,0.14,0.334,0.155,0.474,0.033
		c0.14-0.122,0.155-0.334,0.033-0.474c-0.001-0.001-0.001-0.001-0.002-0.002c-0.118-0.136-0.324-0.152-0.46-0.034
		c-0.001,0.001-0.001,0.001-0.002,0.002C446.591,398.252,446.573,398.461,446.688,398.606L446.688,398.606z M464.812,424.097
		c-0.009,0.184,0.13,0.341,0.314,0.354c0.176,0.019,0.335-0.108,0.354-0.284c0.001-0.006,0.001-0.012,0.001-0.018
		c0.009-0.184-0.13-0.341-0.314-0.354C464.986,423.78,464.826,423.915,464.812,424.097
		C464.812,424.096,464.812,424.097,464.812,424.097L464.812,424.097z M465.373,416.059c-0.012,0.184,0.128,0.343,0.313,0.355
		s0.343-0.128,0.355-0.313c0-0.001,0-0.002,0-0.002c0.015-0.181-0.12-0.341-0.302-0.356c0,0,0,0,0,0
		C465.553,415.737,465.394,415.874,465.373,416.059L465.373,416.059z M465.945,408.007c-0.014,0.181,0.121,0.339,0.302,0.353
		c0.004,0,0.008,0.001,0.012,0.001c0.176,0.019,0.335-0.108,0.354-0.284c0.001-0.006,0.001-0.012,0.001-0.018
		c0.006-0.185-0.131-0.345-0.316-0.366C466.115,407.684,465.957,407.824,465.945,408.007L465.945,408.007z M466.506,399.969
		c-0.01,0.184,0.131,0.342,0.315,0.353c0.183,0.01,0.341-0.129,0.353-0.313c0.015-0.181-0.12-0.341-0.302-0.356c0,0,0,0-0.001,0
		c-0.184-0.017-0.347,0.118-0.365,0.302C466.507,399.96,466.506,399.965,466.506,399.969L466.506,399.969z M449.485,416.21
		c0.166,0.076,0.363,0.004,0.439-0.163c0.076-0.166,0.004-0.363-0.163-0.439c-0.163-0.075-0.355-0.007-0.435,0.154
		C449.25,415.93,449.32,416.129,449.485,416.21L449.485,416.21z M453.087,408.992c0.166,0.076,0.363,0.004,0.439-0.163
		c0.076-0.166,0.004-0.363-0.163-0.439c-0.163-0.075-0.355-0.007-0.435,0.154C452.851,408.712,452.921,408.91,453.087,408.992
		L453.087,408.992z M456.69,401.785c0.17,0.079,0.372,0.006,0.451-0.164c0.076-0.164,0.011-0.359-0.15-0.443
		c-0.166-0.087-0.371-0.024-0.458,0.142c-0.087,0.166-0.024,0.371,0.142,0.458C456.68,401.781,456.685,401.783,456.69,401.785z
		 M460.289,394.555c0.161,0.085,0.36,0.023,0.445-0.138c0.002-0.003,0.003-0.006,0.005-0.009c0.085-0.162,0.022-0.362-0.14-0.446
		c-0.162-0.085-0.362-0.022-0.446,0.14c-0.003,0.005-0.005,0.01-0.007,0.015c-0.083,0.153-0.027,0.345,0.126,0.428
		C460.277,394.549,460.283,394.552,460.289,394.555L460.289,394.555z M480.082,418.443c0.062,0.173,0.252,0.265,0.426,0.206
		c0.171-0.056,0.265-0.239,0.209-0.41c0-0.001-0.001-0.002-0.001-0.004c-0.045-0.171-0.22-0.272-0.391-0.227
		c-0.008,0.002-0.016,0.005-0.025,0.008C480.128,418.08,480.033,418.265,480.082,418.443L480.082,418.443z M477.529,410.788
		c0.065,0.172,0.25,0.267,0.428,0.218c0.173-0.062,0.265-0.252,0.206-0.426c-0.059-0.173-0.247-0.267-0.42-0.208
		c-0.002,0.001-0.004,0.001-0.006,0.002c-0.171,0.056-0.265,0.239-0.209,0.41C477.528,410.785,477.529,410.786,477.529,410.788z
		 M474.978,403.144c0.052,0.169,0.23,0.264,0.399,0.213c0.005-0.002,0.01-0.003,0.015-0.005c0.175-0.052,0.275-0.236,0.223-0.411
		c-0.002-0.005-0.003-0.011-0.005-0.016c-0.06-0.175-0.25-0.268-0.425-0.208s-0.268,0.25-0.208,0.425
		C474.977,403.142,474.978,403.143,474.978,403.144L474.978,403.144z M472.414,395.491c0.062,0.173,0.252,0.265,0.426,0.206
		c0.169-0.052,0.264-0.23,0.213-0.399c-0.002-0.005-0.003-0.01-0.005-0.015c-0.056-0.174-0.241-0.271-0.416-0.219
		C472.456,395.124,472.359,395.313,472.414,395.491L472.414,395.491z M442.504,412.492c0.139,0.086,0.321,0.045,0.409-0.093
		c0.087-0.138,0.046-0.321-0.093-0.409s-0.321-0.046-0.409,0.093l0,0C442.326,412.222,442.367,412.403,442.504,412.492
		L442.504,412.492z M446.32,406.388c0.139,0.085,0.32,0.044,0.409-0.093c0.091-0.136,0.055-0.32-0.08-0.411s-0.32-0.055-0.411,0.08
		c-0.003,0.005-0.006,0.01-0.009,0.015c-0.088,0.134-0.052,0.313,0.082,0.402C446.312,406.383,446.316,406.386,446.32,406.388
		L446.32,406.388z M450.015,400.108c0.012,0.074,0.056,0.138,0.121,0.176c0.139,0.085,0.32,0.044,0.409-0.093
		c0.09-0.141,0.049-0.328-0.092-0.419c-0.001-0.001-0.002-0.001-0.003-0.002c-0.084-0.053-0.189-0.061-0.28-0.021l-0.012,0.002
		c-0.052,0.021-0.094,0.061-0.117,0.112C449.991,399.935,449.981,400.027,450.015,400.108L450.015,400.108z M453.951,394.18
		c0.142,0.086,0.327,0.041,0.413-0.101c0.086-0.141,0.042-0.325-0.099-0.412c-0.139-0.086-0.321-0.045-0.409,0.093
		c-0.09,0.141-0.049,0.329,0.092,0.419C453.95,394.179,453.95,394.18,453.951,394.18L453.951,394.18z M472.252,417.298
		c0.043,0.161,0.205,0.26,0.368,0.226c0.155-0.034,0.253-0.188,0.219-0.343c-0.001-0.004-0.002-0.008-0.003-0.012
		c-0.034-0.16-0.191-0.263-0.351-0.229c-0.002,0-0.004,0.001-0.005,0.001C472.323,416.983,472.223,417.138,472.252,417.298
		L472.252,417.298z M470.645,410.295c0.039,0.157,0.198,0.253,0.355,0.216c0.155-0.034,0.253-0.188,0.219-0.343
		c-0.001-0.004-0.002-0.008-0.003-0.012c-0.034-0.16-0.191-0.263-0.351-0.229c-0.002,0-0.004,0.001-0.005,0.001
		C470.7,409.973,470.606,410.135,470.645,410.295L470.645,410.295z M469.022,403.27c0.034,0.16,0.191,0.263,0.351,0.229
		c0.002,0,0.004-0.001,0.005-0.001c0.152-0.029,0.252-0.176,0.223-0.328c-0.002-0.009-0.004-0.018-0.007-0.027
		c-0.034-0.16-0.191-0.263-0.351-0.229c-0.002,0-0.004,0.001-0.005,0.001C469.083,402.957,468.988,403.113,469.022,403.27z
		 M467.403,396.268c0.042,0.16,0.206,0.255,0.366,0.213c0.155-0.041,0.251-0.197,0.216-0.354c-0.041-0.158-0.197-0.257-0.357-0.228
		C467.468,395.943,467.369,396.105,467.403,396.268L467.403,396.268z M439.494,395.266c0.093,0.132,0.275,0.164,0.407,0.071
		c0.004-0.003,0.007-0.005,0.011-0.008c0.129-0.087,0.162-0.263,0.075-0.392c-0.003-0.005-0.007-0.01-0.011-0.015
		c-0.091-0.136-0.275-0.172-0.411-0.08c-0.003,0.002-0.006,0.004-0.009,0.006C439.427,394.948,439.399,395.132,439.494,395.266
		L439.494,395.266z M456.817,414.015c-0.022,0.162,0.09,0.313,0.252,0.339c0.16,0.027,0.312-0.08,0.34-0.24
		c0.024-0.163-0.081-0.316-0.241-0.352C457.001,413.737,456.845,413.85,456.817,414.015L456.817,414.015z M458.014,406.913
		c-0.032,0.154,0.068,0.305,0.222,0.337c0.006,0.001,0.012,0.002,0.018,0.003c0.16,0.027,0.312-0.08,0.34-0.24
		c0.024-0.163-0.081-0.316-0.241-0.352C458.19,406.639,458.039,406.751,458.014,406.913L458.014,406.913z M459.199,399.812
		c-0.028,0.16,0.079,0.313,0.239,0.341c0.16,0.028,0.313-0.079,0.341-0.239c0-0.001,0-0.001,0-0.002
		c0.027-0.16-0.08-0.312-0.241-0.34C459.378,399.546,459.227,399.653,459.199,399.812z M483.767,408.262
		c0.087,0.129,0.263,0.162,0.391,0.075c0.005-0.003,0.01-0.007,0.015-0.011c0.136-0.091,0.172-0.275,0.081-0.411
		c-0.002-0.003-0.004-0.006-0.006-0.009c-0.1-0.129-0.284-0.157-0.418-0.063c-0.132,0.093-0.164,0.275-0.071,0.407
		C483.762,408.255,483.764,408.259,483.767,408.262L483.767,408.262z M479.584,402.398c0.097,0.134,0.283,0.167,0.42,0.074
		c0.133-0.1,0.16-0.289,0.06-0.422c-0.095-0.126-0.272-0.158-0.405-0.072c-0.135,0.089-0.173,0.27-0.084,0.405
		C479.577,402.389,479.58,402.394,479.584,402.398L479.584,402.398z M442.973,394.652c0.072,0.066,0.185,0.062,0.251-0.011
		s0.062-0.185-0.011-0.251s-0.185-0.062-0.251,0.011l0,0C442.899,394.474,442.904,394.584,442.973,394.652L442.973,394.652z
		 M459.66,400.796c0.003,0.096,0.084,0.171,0.18,0.168s0.171-0.084,0.168-0.18c-0.003-0.096-0.084-0.171-0.18-0.168l0,0
		C459.732,400.62,459.657,400.7,459.66,400.796C459.66,400.796,459.66,400.796,459.66,400.796L459.66,400.796z M459.506,396.554
		c0.009,0.098,0.094,0.171,0.192,0.166c0.096-0.003,0.171-0.084,0.168-0.179c0,0,0,0,0,0c0-0.092-0.074-0.168-0.167-0.168
		c-0.004,0-0.009,0-0.013,0c-0.099-0.001-0.179,0.079-0.18,0.177C459.506,396.552,459.506,396.553,459.506,396.554L459.506,396.554z
		 M451.417,397.277c0.091,0.027,0.188-0.017,0.227-0.104c0.036-0.088-0.007-0.188-0.094-0.223c-0.003-0.001-0.006-0.002-0.009-0.003
		c-0.085-0.037-0.184,0.003-0.221,0.088c-0.002,0.005-0.004,0.01-0.006,0.016C451.28,397.141,451.327,397.242,451.417,397.277
		L451.417,397.277z M467.566,396.752c0.039,0.088,0.141,0.127,0.229,0.089s0.127-0.141,0.089-0.229
		c-0.03-0.085-0.123-0.128-0.208-0.098c-0.007,0.003-0.014,0.006-0.021,0.009c-0.087,0.037-0.128,0.137-0.091,0.224
		C467.565,396.748,467.565,396.75,467.566,396.752L467.566,396.752z M439.943,398.864c0.089,0.058,0.207,0.033,0.265-0.056
		c0.001-0.002,0.002-0.003,0.003-0.005c0.061-0.089,0.039-0.211-0.05-0.272c-0.004-0.003-0.008-0.006-0.013-0.008
		c-0.089-0.058-0.207-0.033-0.265,0.056c-0.001,0.002-0.002,0.003-0.003,0.005C439.822,398.679,439.85,398.804,439.943,398.864
		L439.943,398.864z M442.546,394.783c0.094,0.061,0.22,0.034,0.281-0.061c0.061-0.094,0.034-0.22-0.061-0.281
		c-0.001-0.001-0.002-0.001-0.003-0.002c-0.089-0.058-0.207-0.033-0.265,0.056c-0.001,0.002-0.002,0.003-0.003,0.005
		c-0.065,0.086-0.048,0.208,0.038,0.273C442.537,394.777,442.542,394.78,442.546,394.783L442.546,394.783z M459.943,402.323
		c0.017,0.102,0.113,0.17,0.214,0.153c0.008-0.001,0.015-0.003,0.023-0.005c0.106-0.025,0.172-0.131,0.148-0.237
		c-0.029-0.105-0.131-0.174-0.239-0.16c-0.109,0.028-0.174,0.139-0.147,0.248C459.943,402.322,459.943,402.322,459.943,402.323
		L459.943,402.323z M458.891,397.591c0.028,0.109,0.139,0.174,0.248,0.147c0,0,0.001,0,0.001,0c0.106-0.025,0.172-0.131,0.148-0.237
		c-0.029-0.105-0.131-0.174-0.239-0.16C458.94,397.371,458.872,397.479,458.891,397.591L458.891,397.591z M450.015,400.108
		c0.023,0.017,0.05,0.03,0.077,0.037c0.107,0.02,0.209-0.051,0.229-0.158c0-0.002,0.001-0.005,0.001-0.007
		c0.017-0.105-0.049-0.206-0.153-0.232l-0.012,0.002c-0.107-0.02-0.209,0.051-0.229,0.157c0,0.002-0.001,0.005-0.001,0.007
		C449.913,399.992,449.948,400.069,450.015,400.108L450.015,400.108z M450.784,395.136c-0.022,0.105,0.045,0.209,0.15,0.231
		c0.001,0,0.002,0,0.003,0.001c0.109,0.019,0.215-0.047,0.244-0.154c0.014-0.111-0.057-0.215-0.166-0.242
		C450.905,394.954,450.802,395.028,450.784,395.136L450.784,395.136z M468.108,396.231c0.063,0.09,0.187,0.112,0.278,0.049
		c0.002-0.001,0.004-0.003,0.006-0.004c0.087-0.062,0.108-0.183,0.047-0.271c-0.054-0.09-0.171-0.12-0.262-0.066
		c-0.004,0.002-0.008,0.005-0.011,0.007C468.072,396.01,468.046,396.136,468.108,396.231L468.108,396.231z M442.357,420.135
		c-0.022,0.189,0.108,0.361,0.295,0.393c0.187,0.03,0.363-0.097,0.394-0.283c0.024-0.189-0.107-0.364-0.295-0.393
		C442.565,419.822,442.389,419.948,442.357,420.135L442.357,420.135z M443.654,411.923c-0.031,0.187,0.096,0.364,0.283,0.394
		c0.187,0.031,0.364-0.096,0.394-0.283c0.031-0.187-0.096-0.364-0.283-0.394C443.861,411.61,443.685,411.737,443.654,411.923
		L443.654,411.923z M444.938,403.713c-0.024,0.189,0.107,0.364,0.295,0.393c0.187,0.023,0.358-0.11,0.381-0.297
		s-0.11-0.358-0.297-0.381C445.135,403.405,444.967,403.531,444.938,403.713z M446.234,395.501
		c-0.031,0.187,0.096,0.364,0.283,0.394s0.364-0.096,0.394-0.283s-0.096-0.364-0.283-0.394S446.265,395.314,446.234,395.501
		L446.234,395.501z M476.433,412.18c0.118,0.152,0.334,0.185,0.492,0.076c0.151-0.118,0.178-0.336,0.06-0.487
		c-0.114-0.146-0.323-0.177-0.474-0.07C476.361,411.813,476.327,412.024,476.433,412.18L476.433,412.18z M471.542,405.462
		c0.113,0.15,0.325,0.185,0.48,0.078c0.155-0.11,0.191-0.325,0.08-0.48s-0.325-0.191-0.48-0.08
		c-0.001,0.001-0.002,0.001-0.003,0.002C471.468,405.094,471.433,405.308,471.542,405.462L471.542,405.462z M466.65,398.745
		c0.112,0.152,0.326,0.187,0.48,0.078c0.152-0.118,0.185-0.334,0.076-0.492c-0.118-0.151-0.336-0.178-0.487-0.06
		C466.573,398.385,466.543,398.594,466.65,398.745L466.65,398.745z M436.142,396.717c0.164,0.1,0.378,0.049,0.478-0.114
		s0.049-0.378-0.114-0.478c-0.164-0.1-0.377-0.049-0.478,0.114C435.931,396.403,435.982,396.614,436.142,396.717L436.142,396.717z
		 M458.702,415.886c0.054,0.181,0.236,0.291,0.421,0.255c0.181-0.051,0.289-0.237,0.243-0.419c-0.04-0.182-0.22-0.298-0.402-0.258
		c-0.002,0-0.004,0.001-0.007,0.002C458.77,415.511,458.656,415.699,458.702,415.886
		C458.701,415.886,458.701,415.886,458.702,415.886L458.702,415.886z M456.751,407.798c0.046,0.186,0.233,0.301,0.42,0.255
		c0,0,0.001,0,0.001,0c0.18-0.045,0.29-0.227,0.245-0.407c0,0,0,0,0,0c-0.042-0.184-0.224-0.299-0.408-0.257
		c-0.184,0.042-0.299,0.224-0.257,0.408C456.751,407.797,456.751,407.798,456.751,407.798z M454.803,399.722
		c0.04,0.182,0.22,0.298,0.402,0.258c0.002,0,0.005-0.001,0.007-0.002c0.188-0.04,0.308-0.224,0.268-0.411
		c-0.04-0.188-0.224-0.308-0.411-0.268c-0.188,0.04-0.308,0.224-0.268,0.411C454.801,399.715,454.802,399.718,454.803,399.722z
		 M433.465,391.295c0.16,0.097,0.368,0.058,0.481-0.091c0.1-0.162,0.055-0.373-0.102-0.48c-0.147-0.106-0.352-0.073-0.459,0.074
		c-0.004,0.005-0.007,0.01-0.011,0.016c-0.108,0.155-0.071,0.369,0.085,0.477C433.46,391.292,433.463,391.294,433.465,391.295
		L433.465,391.295z M453.664,418.558c0.042,0.183,0.225,0.298,0.408,0.256c0.183-0.042,0.298-0.225,0.256-0.408
		c-0.041-0.179-0.216-0.293-0.396-0.259C453.745,418.187,453.625,418.371,453.664,418.558L453.664,418.558z M452.058,410.435
		c0.039,0.187,0.223,0.307,0.41,0.268c0.181-0.041,0.299-0.215,0.27-0.399c-0.043-0.187-0.222-0.309-0.412-0.28
		C452.142,410.068,452.024,410.248,452.058,410.435L452.058,410.435z M450.452,402.311c0.039,0.187,0.223,0.307,0.41,0.268
		c0.185-0.036,0.306-0.214,0.27-0.399c-0.036-0.185-0.214-0.306-0.399-0.27C450.548,401.948,450.424,402.124,450.452,402.311
		L450.452,402.311z M448.858,394.186c0.029,0.18,0.197,0.303,0.377,0.274c0.007-0.001,0.014-0.003,0.021-0.004
		c0.184-0.037,0.304-0.214,0.27-0.399c-0.034-0.185-0.212-0.307-0.397-0.273s-0.307,0.212-0.273,0.397
		C448.857,394.183,448.858,394.185,448.858,394.186L448.858,394.186z M438.064,405.82c-0.035,0.183,0.085,0.36,0.269,0.395
		c0.001,0,0.002,0,0.003,0.001c0.185,0.04,0.368-0.077,0.409-0.261c0.035-0.188-0.087-0.369-0.273-0.408
		C438.285,405.515,438.105,405.635,438.064,405.82L438.064,405.82z M439.697,397.694c-0.04,0.184,0.077,0.366,0.262,0.406
		c0.184,0.04,0.366-0.077,0.406-0.262c0.001-0.003,0.001-0.005,0.002-0.008c0.032-0.187-0.088-0.366-0.273-0.408
		c-0.183-0.035-0.36,0.085-0.395,0.269C439.698,397.692,439.697,397.693,439.697,397.694L439.697,397.694z M467.625,408.316
		c0.109,0.157,0.324,0.197,0.482,0.09c0.155-0.105,0.196-0.315,0.091-0.47c-0.096-0.158-0.302-0.207-0.459-0.111
		c-0.004,0.003-0.008,0.005-0.013,0.008c-0.161,0.101-0.209,0.314-0.108,0.474C467.621,408.31,467.623,408.314,467.625,408.316
		L467.625,408.316z M463.035,401.425c0.109,0.157,0.324,0.197,0.482,0.09c0.155-0.105,0.196-0.315,0.091-0.47
		c-0.096-0.158-0.302-0.207-0.459-0.111c-0.004,0.003-0.008,0.005-0.013,0.008c-0.161,0.101-0.209,0.314-0.108,0.474
		C463.031,401.419,463.033,401.422,463.035,401.425L463.035,401.425z M458.444,394.534c0.109,0.157,0.324,0.197,0.482,0.09
		c0.155-0.105,0.196-0.315,0.091-0.47c-0.104-0.159-0.317-0.205-0.476-0.101c-0.159,0.104-0.205,0.317-0.101,0.476
		C458.442,394.53,458.443,394.532,458.444,394.534L458.444,394.534z M453.841,404.263c0.058,0.131,0.211,0.19,0.341,0.133
		c0.127-0.056,0.187-0.202,0.137-0.331c-0.048-0.128-0.191-0.192-0.319-0.144c-0.008,0.003-0.016,0.007-0.024,0.011
		C453.849,403.988,453.79,404.134,453.841,404.263L453.841,404.263z M451.386,398.533c0.058,0.132,0.212,0.191,0.344,0.133
		s0.191-0.212,0.133-0.344c-0.055-0.13-0.205-0.192-0.335-0.137c-0.003,0.001-0.006,0.002-0.008,0.004
		C451.39,398.25,451.331,398.402,451.386,398.533L451.386,398.533z M440.604,403.638c0.005,0.142,0.122,0.254,0.264,0.253
		c0.14-0.01,0.249-0.124,0.253-0.264c-0.002-0.142-0.119-0.255-0.261-0.253c-0.001,0-0.002,0-0.002,0
		c-0.138-0.002-0.251,0.108-0.253,0.245C440.604,403.626,440.604,403.632,440.604,403.638L440.604,403.638z M440.522,397.387
		c0.006,0.144,0.121,0.259,0.265,0.264c0.142-0.002,0.255-0.119,0.253-0.261c0-0.001,0-0.002,0-0.002
		c0.003-0.137-0.105-0.251-0.243-0.254c-0.003,0-0.006,0-0.009,0c-0.142-0.005-0.261,0.107-0.266,0.25
		C440.522,397.385,440.522,397.386,440.522,397.387L440.522,397.387z M462.715,394.593c0.097,0.099,0.256,0.101,0.355,0.004
		c0.002-0.002,0.004-0.004,0.006-0.006c0.102-0.096,0.107-0.257,0.011-0.359c-0.005-0.005-0.009-0.01-0.014-0.014
		c-0.107-0.095-0.271-0.086-0.366,0.021C462.616,394.341,462.62,394.496,462.715,394.593L462.715,394.593z M443.026,395.379
		c0.071,0.107,0.215,0.135,0.322,0.064c0,0,0,0,0,0c0.102-0.059,0.137-0.189,0.078-0.291c-0.004-0.007-0.008-0.013-0.013-0.019
		c-0.058-0.106-0.19-0.145-0.296-0.087c-0.005,0.003-0.011,0.006-0.016,0.01c-0.109,0.062-0.147,0.201-0.084,0.31
		C443.02,395.37,443.023,395.375,443.026,395.379L443.026,395.379z"/>
	
		<linearGradient id="sweater_1_" gradientUnits="userSpaceOnUse" x1="451.0173" y1="413.6999" x2="461.9155" y2="273.0453" gradientTransform="matrix(1 0 0 -1 0 722)">
		<stop  offset="0" style="stop-color:#23286B"/>
		<stop  offset="1" style="stop-color:#151A4F"/>
	</linearGradient>
	<path id="sweater" style="fill:url(#sweater_1_);" d="M491.06,335.4c0,0.22,0.01,0.44,0.01,0.66l-9.52,57.38
		c-2.7,0.2-5.317,0.343-7.85,0.43c-48.49,1.62-65.36-17.3-65.36-17.3c-4.17-38.69,20.65-43.79,27.07-52.05
		c8.65-11.12,11.27-17.67,26.36-27.59c15.1-9.92,25.95-12.01,25.95-12.01c5.61,11.31,10.24,9.65,10.24,9.65
		S490.79,319.05,491.06,335.4z"/>
	<path id="R_sleeve" style="fill:#23286B;" d="M521.96,376.93L508,422.13c0,0-15.98-3.23-22.66-15.21
		c-4.01-7.21-7.84-10.83-11.64-13.05c-3.31-1.94-6.59-2.81-9.95-4.07c-7.22-2.7-21.74-12.85-16.72-37.31
		c5.02-24.45,15.64-43.65,40.69-67.57l10.24,9.65c0,0-7.17,24.48-6.9,40.83c0,0.22,0.01,0.44,0.01,0.66
		c0.31,15.85,2.06,21.44,13.44,29.38C513.52,371.72,521.96,376.93,521.96,376.93z"/>
	
		<linearGradient id="neck_1_" gradientUnits="userSpaceOnUse" x1="485.2974" y1="419.3682" x2="494.7604" y2="436.1698" gradientTransform="matrix(1 0 0 -1 0 722)">
		<stop  offset="0" style="stop-color:#FFBEB6"/>
		<stop  offset="1" style="stop-color:#F2A19C"/>
	</linearGradient>
	<path id="neck" style="fill:url(#neck_1_);" d="M501.65,283.62l-0.03,0.06c-1.469,3.541-2.692,7.18-3.66,10.89
		c0,0-11.12,3.82-10.24-9.65c0.947-1.42,1.64-2.993,2.05-4.65c1.358,0.611,2.75,1.142,4.17,1.59c1.46,0.552,2.957,1,4.48,1.34
		c0.164,0.046,0.331,0.083,0.5,0.11c0.241,0.057,0.484,0.1,0.73,0.13c0.032,0.011,0.066,0.017,0.1,0.02
		C500.379,283.556,501.014,283.609,501.65,283.62z"/>
	<path id="face" style="fill:#FFBEB6;" d="M516.325,279.916c0,0-7.845,14.601-26.543,0.362c0.035,0.011-0.032-0.023,0,0
		c0,0,3.119-4.428-0.162-7.053c-3.266-2.633-5.555-6.453-1.962-9.185s4.348,2.121,8.393,1.394c4.061-0.735,8.609-5.782,8.609-5.782
		s8.008,5.839,16.902,5.529c-0.131,1.378-0.588,6.871,0.421,9.984C523.148,278.737,521.159,280.379,516.325,279.916z"/>
	<path id="mouth" style="fill:#1C2868;" d="M515.127,284.183c-1.697,1.405-4.211,1.168-5.615-0.529
		c-0.509-0.614-0.821-1.367-0.898-2.161c-0.063-0.604,0.869-0.814,0.932-0.202c0.097,1.674,1.533,2.953,3.207,2.856
		c0.631-0.037,1.235-0.269,1.728-0.666C514.963,283.106,515.612,283.805,515.127,284.183L515.127,284.183z"/>
	<path id="hair" style="fill:#23286B;" d="M540.699,252.134c-2.666,8.818-11.375,14.364-20.493,13.052
		c7.035,0.238,14.871-3.066,19.853-16.073l-64.655-5.571c0,0-3.961,9.969-0.329,19.77c3.161,8.529,12.039,15.259,14.707,16.966
		c0,0,3.118-4.426-0.157-7.056s-5.565-6.45-1.971-9.184s4.35,2.125,8.404,1.392s8.607-5.782,8.607-5.782
		c2.841,1.942,5.96,3.442,9.25,4.451c10.557,5.414,23.632,0.582,27.67-11.698c0.065-0.247-0.082-0.5-0.33-0.566
		C541.02,251.773,540.777,251.904,540.699,252.134z"/>
	
		<linearGradient id="finger_1_" gradientUnits="userSpaceOnUse" x1="572.6392" y1="315.9158" x2="553.6592" y2="314.9263" gradientTransform="matrix(1 0 0 -1 0 722)">
		<stop  offset="0" style="stop-color:#FFBEB6"/>
		<stop  offset="1" style="stop-color:#F2A19C"/>
	</linearGradient>
	<path id="finger" style="fill:url(#finger_1_);" d="M568.27,408.37c-0.18,0.06-0.34,0.12-0.5,0.18
		c-1.232-0.929-2.58-1.692-4.01-2.27c-1.328-0.566-2.708-1.001-4.12-1.3c1.14,0.03,8.07,0.13,9.93-0.81
		C571.6,403.16,572.32,406.92,568.27,408.37z"/>
</g>
</svg>
