<?xml version="1.0" encoding="utf-8"?>
<!-- Generator: Adobe Illustrator 23.0.2, SVG Export Plug-In . SVG Version: 6.00 Build 0)  -->
<svg version="1.1" id="sign_in_form" xmlns="http://www.w3.org/2000/svg" xmlns:xlink="http://www.w3.org/1999/xlink" x="0px" y="0px" viewBox="0 0 800 776.3" style="enable-background:new 0 0 800 776.3;" xml:space="preserve">

<g>
	<g>
		<polygon points="249.8,372.1 173.5,247 182.8,241.3 248.6,349.1 292.4,255.8 385.5,278.3 382.9,288.8 298.5,268.5 		
			" style="fill:#FDB813;"/>
		<circle cx="295.4" cy="262.1" r="18.5" style="fill:#00ACDC;"/>
		<circle cx="250" cy="360.6" r="18.5" style="fill:#00ACDC;"/>
		<circle cx="295.4" cy="262.1" r="5.6" style="fill:#10294C;"/>
		<path d="M255.6,360.6c0,3.1-2.5,5.6-5.5,5.6c-3.1,0-5.6-2.5-5.6-5.5c0-3.1,2.5-5.6,5.5-5.6c0,0,0,0,0,0
			C253.1,355,255.6,357.5,255.6,360.6z" style="fill:#10294C;"/>
	</g>
	<g>
		<polygon points="256.8,661.3 128.4,525.3 136.3,517.9 251.9,640.2 309.5,455.3 411.3,416.4 415.2,426.6 318.3,463.6 
					" style="fill:#FDB813;"/>
		<circle cx="315.1" cy="459.9" r="18.5" style="fill:#00ACDC;"/>
		<circle cx="252.6" cy="647.4" r="18.5" style="fill:#00ACDC;"/>
		<path d="M258.2,647.4c0,3.1-2.5,5.6-5.6,5.6c-3.1,0-5.6-2.5-5.6-5.6c0-3.1,2.5-5.6,5.6-5.6c0,0,0,0,0,0
			C255.7,641.8,258.2,644.3,258.2,647.4C258.2,647.3,258.2,647.4,258.2,647.4z" style="fill:#10294C;"/>
		<path d="M320.7,459.9c0,3.1-2.5,5.6-5.6,5.6c-3.1,0-5.6-2.5-5.6-5.6c0-3.1,2.5-5.6,5.6-5.6c0,0,0,0,0,0
			C318.2,454.3,320.7,456.8,320.7,459.9z" style="fill:#10294C;"/>
	</g>
	<g>
		<path d="M247.6,501c-0.5-1.4-1.9-2.8-4.7-4.3c-22.9-11.6-46.7-21.3-71.2-29c-26.5-8.3-45.1-12.8-56.3-15.2l-0.3-0.1
			l-1.4-0.3c-8-1.7-16.2-1.3-24,1.1c-9.7,3.3-24.9,9.7-45.5,22.2C25,487,13.4,495.7,6.7,501.5c-0.4,0.4-0.8,0.8-1.1,1.1
			c-7.2,6.8-7.6,29.7,0,34.1l0,0c1.3,1.1,2.6,2,4.1,2.7c10.8,5.4,29.7,14,58,23.9c21.4,7.6,43.2,13.8,65.3,18.6
			c9.5,1.8,19.3,0.8,28.3-2.7c16.4-6.5,32.2-14.3,47.3-23.2c19-11.4,30.3-20.5,36.3-25.9c1.1-1,2-2.2,2.6-3.6
			C252.2,517.1,250.5,506.4,247.6,501z" style="fill:#00ACDC;"/>
		<path d="M8.4,513.3c2.1,1.3,4.6,2.4,7.1,3.6c2.4,1.2,4.9,2.3,7.4,3.4c4.9,2.2,10,4.3,15,6.4c10,4.1,20.2,8,30.4,11.6
			c5.1,1.8,10.2,3.6,15.4,5.3s10.3,3.4,15.5,4.9c10.4,3.2,20.8,6,31.3,8.5l2,0.5c0.6,0.1,1.3,0.3,1.9,0.4c1.2,0.2,2.5,0.4,3.7,0.5
			c2.5,0.3,5,0.3,7.6,0.1c5.1-0.4,10.1-1.5,14.8-3.5c10-4.1,19.8-8.7,29.3-13.7c9.6-5,18.9-10.5,28-16.4c9.1-5.8,17.8-12.3,26-19.3
			l0,0c0.6-0.6,1.6-0.5,2.2,0.1c0,0,0,0,0,0c0.5,0.6,0.5,1.5-0.1,2.1c-3.9,3.9-8,7.6-12.3,11.1c-4.2,3.5-8.6,6.8-13.1,10.1
			c-8.9,6.5-18.2,12.4-27.8,17.8c-9.6,5.4-19.5,10.3-29.6,14.7c-5.4,2.3-11.1,3.7-16.9,4.2c-2.9,0.2-5.9,0.2-8.8-0.1
			c-1.5-0.1-2.9-0.3-4.4-0.6c-0.8-0.1-1.4-0.3-2.1-0.4l-2-0.5c-10.7-2.5-21.3-5.4-31.8-8.7c-10.5-3.2-20.9-6.9-31.1-10.8
			c-10.2-4-20.4-8.2-30.4-12.7c-5-2.3-9.9-4.7-14.8-7.2c-2.5-1.3-4.9-2.5-7.3-3.8c-2.5-1.3-4.9-2.8-7.3-4.3c-0.8-0.6-1-1.8-0.4-2.7
			c0.6-0.8,1.6-1,2.5-0.5L8.4,513.3z" style="fill:#10294C;"/>
		<path d="M223.3,499.3c-12.6-6.3-25.5-12-38.7-17l-94,54c5.4,1.8,10.8,3.4,15.8,4.9l67.6-39.6l3.4,5.9l-61.9,36.3
			c8.3,2.3,15.3,4.1,20,5.1c7.6,1.4,15.5,0.7,22.6-2.2c13.1-5.2,25.8-11.4,37.9-18.6c15.2-9.1,24.2-16.3,29.1-20.7
			C227.6,505,228.9,502.3,223.3,499.3z" style="fill:#10294C;"/>
		<path d="M165.5,475.5l-94.2,54.1c2.5,0.9,5.1,1.8,7.7,2.8c3.9,1.4,7.8,2.7,11.6,3.9l94-54
			C178.5,479.9,172.1,477.6,165.5,475.5z" style="fill:#F04E23;"/>
		<path d="M174,501.6l-67.6,39.6c3.2,0.9,6.2,1.8,9.1,2.6l61.9-36.3L174,501.6z" style="fill:#F04E23;"/>
		<path d="M162.1,474.4c-21.2-6.6-39.4-11.9-48.4-13.8l-0.3,0l-1.1-0.2c-6.4-1.3-13-1-19.2,0.9
			c-7.7,2.6-20,7.8-36.4,17.7c-15.3,9.3-24.5,16.2-29.9,20.8c-4.5,4.2-4.8,8,2.4,11.8c13.7,6.8,27.7,12.8,42.1,18.1l94.2-54.1
			C164.4,475.1,163.3,474.7,162.1,474.4z" style="fill:#10294C;"/>
		<path d="M166.1,532.8c10.6-3.6,8.9-15.3,17.1-16c8.2-0.7,11.5-14.5-13.6-19.8c-25.2-5.2-60.5,4-75.5,0
			S64.4,511,79.2,514c14.8,3.1,22.2,19.2,37.7,17.7C157.3,527.8,157.7,535.6,166.1,532.8z" style="fill:#FFFFFF;"/>
		<path d="M203.6,509c-9.4-4.1-3.6-8.7,3.8-7.1C214.9,503.6,212.7,513,203.6,509z" style="fill:#FFFFFF;"/>
		<path d="M74.2,502.4C41,488.7,25,460.5,48.1,442.2s53.9-20.8,67.3-3.2c9.3,12.2,34.9,25.3,58.1,26.9
			C247.2,470.9,176.1,542.3,74.2,502.4z" style="fill:#F04E23;"/>
		<path d="M92.2,451.9c1.3,1.2,2.9,2.4,4.4,3.6s3.1,2.3,4.7,3.3c6.4,4.3,13.2,7.9,20.3,10.7c3.5,1.5,7.2,2.7,10.8,3.8
			c3.7,1.1,7.4,2,11.2,2.8c0.9,0.2,1.9,0.4,2.8,0.5c1,0.2,1.9,0.3,2.8,0.5c1.9,0.2,3.8,0.6,5.7,0.8c7.8,0.8,15.6,1.2,23.4,1.1l0,0
			c0.9,0,1.6,0.6,1.6,1.5c0,0.8-0.5,1.4-1.3,1.6c-16,3.3-32.6,2.7-48.4-1.8c-3.9-1.1-7.8-2.5-11.6-4.2c-3.8-1.6-7.4-3.5-10.9-5.7
			c-3.5-2.1-6.8-4.5-10-7.2c-1.5-1.3-3.1-2.7-4.5-4.2c-1.5-1.5-2.9-3.1-4.1-4.7c-0.6-0.8-0.4-2,0.4-2.7
			C90.5,451.2,91.5,451.2,92.2,451.9L92.2,451.9z" style="fill:#10294C;"/>
		<path d="M136.9,499c-1.2,0.8-2.8,1-4.2,0.5c-0.6-0.2-1.2-0.6-1.7-1.1c-0.6-0.6-1.1-1.3-1.3-2.1c-0.4-1,0-2.2,0.9-2.8
			l0.1-0.1c0.7-0.5,1.5-0.8,2.3-0.9c0.6-0.1,1.3-0.1,1.9,0.1c0.6,0.1,1.2,0.4,1.6,0.8c0.6,0.5,1.1,1.2,1.4,1.9l0.1,0.1
			C138.5,496.8,138,498.2,136.9,499z" style="fill:#10294C;"/>
		<path d="M125.6,488.4c-0.7,0.5-1.4,0.7-2.2,0.8c-0.7,0-1.3-0.1-2-0.3c-0.6-0.2-1.2-0.6-1.7-1.1
			c-0.6-0.6-1-1.3-1.3-2.1c-0.4-1.1,0-2.2,1-2.8l0.1-0.1c0.7-0.5,1.5-0.8,2.3-0.9c0.6-0.1,1.3-0.1,1.9,0.1c0.6,0.1,1.2,0.4,1.6,0.8
			c0.6,0.5,1.1,1.2,1.4,1.9l0.1,0.1C127.1,486.2,126.7,487.6,125.6,488.4z" style="fill:#10294C;"/>
		<path d="M110.2,496.6c-0.7,0.5-1.4,0.7-2.2,0.8c-0.7,0-1.3-0.1-2-0.3c-0.6-0.2-1.2-0.6-1.7-1.1
			c-0.6-0.6-1.1-1.3-1.3-2.1c-0.4-1,0-2.2,0.9-2.8l0.1-0.1c0.7-0.5,1.5-0.8,2.3-0.9c0.6-0.1,1.3-0.1,1.9,0.1
			c0.6,0.1,1.2,0.4,1.6,0.8c0.6,0.5,1.1,1.2,1.4,1.9l0.1,0.1C111.8,494.3,111.4,495.8,110.2,496.6z" style="fill:#10294C;"/>
		<path d="M164.2,470.2c-0.5,0.6-1.2,1-2,1.3c-0.6,0.2-1.3,0.3-2,0.2c-0.7-0.1-1.3-0.3-1.9-0.6c-0.7-0.4-1.3-1-1.8-1.7
			c-0.6-0.9-0.5-2.2,0.3-3l0.1-0.1c0.6-0.6,1.2-1.1,2-1.4c0.6-0.2,1.2-0.4,1.8-0.4c0.6,0,1.3,0.2,1.8,0.4c0.7,0.4,1.3,0.9,1.8,1.6
			l0.1,0.1C165.2,467.7,165.1,469.2,164.2,470.2z" style="fill:#10294C;"/>
		<path d="M146.1,471.6c-0.6,0.5-1.4,0.9-2.2,1c-0.7,0.1-1.3,0.1-2-0.1c-1.5-0.4-2.7-1.5-3.3-2.9
			c-0.5-1-0.2-2.2,0.7-2.9l0.1-0.1c0.6-0.5,1.4-0.9,2.2-1.1c0.6-0.2,1.3-0.2,1.9-0.1c0.6,0.1,1.2,0.3,1.7,0.7
			c0.7,0.5,1.2,1.1,1.5,1.8l0.1,0.1C147.5,469.2,147.2,470.7,146.1,471.6z" style="fill:#10294C;"/>
	</g>
	<g>
		<g>
			<path d="M532.9,589.2l-87.2-29.8c-1.4,1.8-2.8,3.8-4.3,5.8l88.2,30.2C530.8,593.2,531.9,591.1,532.9,589.2z" style="fill:#F04E23;"/>
			<path d="M529.7,595.3l-88.2-30.2c-2.6,3.5-5.2,7.1-7.7,10.7l89.8,30.7C525.6,602.8,527.7,599,529.7,595.3z" style="fill:#10294C;"/>
			<path d="M541.5,572.2c-6.2-2-12.7-4.1-19.5-6.4c-25.4-8.4-46.6-15.9-64.1-22.6c-1.7,2.2-6.5,8.4-12.2,16l87.2,29.8
				C537.1,581.2,540.3,574.6,541.5,572.2z" style="fill:#10294C;"/>
			<path d="M519.3,613.7c1.4-2.3,2.8-4.8,4.2-7.3l-89.8-30.7c-3.1,4.3-5.9,8.5-8.2,12.2l90.5,31
				C517,617.3,518.1,615.6,519.3,613.7z" style="fill:#F04E23;"/>
			<path d="M489.9,643.2l1.3-0.8l0,0c0.1-0.1,0.2-0.1,0.3-0.2l2.1-1.2c3.9-2.2,7.5-4.9,10.9-7.9
				c2.5-2.2,4.7-4.6,6.7-7.3c1.4-2,3-4.2,4.7-7l-90.5-31l-0.3,0.5c-4.5,7.2-8.7,14.5-12,20.6c-5.6,10.2,0.8,18.8,8.1,22
				c4.6,2.1,10.3,4.5,17,7.1c9.9,3.7,20.1,6.6,30.5,8.7C476,648.3,483.5,647,489.9,643.2z" style="fill:#10294C;"/>
		</g>
		<path d="M796.2,176.4c-2.1-27.3-14.2-49.5-40-62.2c-10.6-4.7-24.3-10.4-41.8-17.1c0,0-48.6-146.1-213.1-79.9
			c-15.1,6.1-27.1,23.3-34.8,45.7c-40.7,20.3-73.4,49.2-85.4,66.2c0,0-0.1,0.1-0.1,0.1c-0.8,1-1.5,2.1-2.1,3.3
			c-0.2,0.3-0.4,0.7-0.6,1l0,0c-2,4.1-3.3,8.5-3.6,13.1c-1.9,31.4-4.1,82.5-4.1,154.6c0,75.7,2.4,132.1,4.4,166.2
			c1.8,25.9,5.1,40.4,27.8,52.4c2.4,1.2,5.1,2.5,8,3.8c0.6,0.3,1.1,0.5,1.7,0.8c8.9,4.1,20,8.9,33.7,14.3
			c-0.4,0.5-14.8,16.4-30.3,41.1c-6.7,10.7-13,21.7-17.9,30.8c-8.3,15.2,1.2,28,12.1,32.8c6.9,3.2,15.4,6.8,25.4,10.6
			c12.8,4.8,26,8.7,39.4,11.7c2.2,0.5,4.2,0.9,6.1,1.3c13.7,2.4,23.5-1,31.5-5.4l2-1.1l0,0l0.5-0.3l3.2-1.8
			c5.8-3.4,11.3-7.3,16.3-11.7c3.7-3.3,7.1-6.9,10.1-10.9c3.3-4.6,7.3-10.6,11.9-18.2c16.4-27.1,17.7-35.1,17.7-35.1
			c25.9,7.8,44.9,12.9,58.8,16.2c4.7,0.9,9.5,1.2,14.3,1v0.1c54.9-1,123.6-58.1,140.3-81.8c2-2.3,3.6-4.9,4.6-7.7l0,0
			c1.8-4.8,2.6-10.5,3.1-16.2c2.3-31.8,4.8-86.5,4.8-171.1C800,251.5,798.2,205.3,796.2,176.4z M532.9,589.2c-1,2-2.1,4-3.2,6.1
			c-2,3.6-4.1,7.5-6.2,11.2c-1.4,2.5-2.8,4.9-4.2,7.3c-1.1,1.9-2.2,3.6-3.2,5.2c-1.8,2.7-3.3,5-4.7,7c-2,2.6-4.3,5.1-6.7,7.3
			c-3.4,3-7,5.6-10.9,7.9l-2.1,1.2c-0.1,0.1-0.2,0.1-0.3,0.2l0,0l-1.3,0.8c-6.4,3.8-13.9,5.1-21.1,3.6c-10.4-2.1-20.6-5-30.5-8.7
			c-6.7-2.6-12.4-5-17-7.1c-7.3-3.2-13.7-11.8-8.1-22c3.3-6.1,7.5-13.4,12-20.6l0.3-0.5c2.3-3.6,5.2-7.8,8.2-12.2
			c2.5-3.5,5.1-7.2,7.7-10.7c1.5-2,2.9-3.9,4.3-5.8c5.7-7.6,10.6-13.9,12.2-16c17.5,6.7,38.6,14.2,64.1,22.6
			c6.8,2.2,13.3,4.4,19.5,6.4C540.3,574.6,537.1,581.2,532.9,589.2L532.9,589.2z M643,536.1c-1.2,15-5.1,29.1-31.5,24.5
			c-18-4.3-46.5-12.2-90.9-26.8c-43.8-14.5-72-25.8-89.8-34c-0.4-0.2-0.9-0.4-1.4-0.6c-2.4-1.1-4.5-2.1-6.5-3.1
			c-18.6-9.9-21.4-21.8-22.8-43c-1.7-28-3.6-80.3-3.6-142.3c0-59.1,1.8-108.9,3.4-134.6c1.7-21.3,22.1-28.7,42.9-22.9
			c17.9,4.8,43.2,12.3,79,24.1c43.6,14.4,71.6,25.4,89.4,33.4c21.2,10.5,31.1,28.6,32.8,51c1.6,23.7,3.1,69.5,3.1,127.9
			C647,459,644.8,510,643,536.1z" style="fill:#00ACDC;"/>
		<path d="M570,580.4c-2.1-0.8-4.3-1.6-6.5-2.3s-4.3-1.5-6.5-2.2c-1.2-0.4-2.5,0.2-3,1.3l-0.1,0.3
			c-0.6,1.4-1.4,3-2.2,4.5s-1.5,3-2.3,4.5c-1.6,3-3.2,6-4.8,8.9l-4.9,8.8l-5,8.8l-5.1,8.8c-1.7,2.9-3.4,5.8-5.2,8.7
			c-3.5,5.8-7.1,11.5-10.6,17.4c-0.5,0.9-0.2,2.1,0.7,2.6c0.8,0.5,1.8,0.3,2.4-0.4c4.6-5.2,8.8-10.6,12.8-16.2
			c4-5.6,7.7-11.4,11.2-17.3c1.7-3,3.5-5.9,5.1-9c1.6-3,3.3-6.1,4.7-9.2c1.5-3.1,3-6.2,4.3-9.4c0.7-1.6,1.3-3.2,2-4.8
			c0.4-1,0.7-1.9,1.1-2.9l4.3,0.8c2.3,0.4,4.5,0.8,6.8,1.2c0.8,0.1,1.6-0.5,1.7-1.3C571.1,581.3,570.7,580.7,570,580.4L570,580.4z" style="fill:#10294C;"/>
		<path d="M511.3,37.2c-13.3,0-24.5,20.3-24.5,44.4s11.2,44.4,24.5,44.4c13.3,0,24.5-20.3,24.5-44.4
			S524.6,37.2,511.3,37.2z" style="fill:#F04E23;"/>
		<path d="M511.3,29.9c-17.8,0-31.7,22.7-31.7,51.6s13.9,51.6,31.7,51.6c17.8,0,31.8-22.7,31.8-51.6
			S529.1,29.9,511.3,29.9z M511.3,125.9c-13.3,0-24.5-20.3-24.5-44.4s11.2-44.4,24.5-44.4c13.3,0,24.5,20.3,24.5,44.4
			S524.6,125.9,511.3,125.9z" style="fill:#10294C;"/>
		<path d="M518.9,77.9c-11.8-10.8-30-11.9-40.3-11.5c-1.3,2.7-2.2,5.7-2.7,8.7c-0.4,2.8-0.4,5.7-0.1,8.5
			c0.5,3.8,1.7,7.5,3.6,10.8c1.4,2.5,3.1,4.7,5.1,6.7C510.7,94.6,518.9,77.9,518.9,77.9z M479.1,83.2c-0.8-6.1,1.5-11.4,5.1-11.9
			s7.1,4.1,7.9,10.2c0.8,6.1-1.5,11.4-5.1,11.9S479.9,89.4,479.1,83.2z" style="fill:#FFFFFF;"/>
		<path d="M487,93.5c3.6-0.5,5.8-5.8,5.1-11.9c-0.8-6.1-4.3-10.7-7.9-10.2s-5.8,5.8-5.1,11.9
			C479.9,89.3,483.4,93.9,487,93.5z" style="fill:#F04E23;"/>
		<path d="M525.8,79.9c0-0.5-0.1-1-0.1-1.5c-0.1-0.5-0.1-1-0.2-1.5c-0.1-0.5-0.1-1-0.2-1.5c-0.1-0.5-0.2-1-0.3-1.4
			c-3.1-16.6-13.8-28.5-29.8-26.4c-11.2,1.5-20.2,9.2-24.3,19.5c-1,2.7,1.5,5.7,5.1,8c0.4-3,1.3-5.9,2.7-8.7
			c8.5-0.3,22.3,0.3,33.5,6.7c3.7,2.4,4.4,8.5,0.9,12.5l-1,1c-0.2,0.2-0.3,0.3-0.4,0.4c-5.3,5-13.9,10.9-27,14.1
			c-2-2-3.7-4.2-5.1-6.7c-2.5,3.6-4.2,6.8-2.7,8.2c6.6,7.9,16.8,11.9,27.1,10.6C520,111,527.1,96.7,525.8,79.9z" style="fill:#10294C;"/>
		<path d="M611.1,210.7c-17.7-7.9-45.7-19-89.4-33.4c-35.8-11.8-61.1-19.3-79-24.1c-20.8-5.8-41.2,1.5-42.9,22.9
			c-1.6,25.7-3.4,75.5-3.4,134.6c0,62,2,114.4,3.6,142.3c1.4,21.2,4.2,33.1,22.8,43c2,1,4.2,2,6.5,3.1c0.5,0.2,0.9,0.4,1.4,0.6
			c17.8,8.2,46,19.5,89.8,34c44.4,14.6,72.9,22.6,90.9,26.8c26.4,4.5,30.3-9.5,31.5-24.5c1.9-26.1,4-77,4-146.4
			c0-58.5-1.5-104.2-3.1-127.9C642.1,239.3,632.2,221.2,611.1,210.7z" style="fill:#10294C;"/>
		<path d="M665.2,587.2c1.4-2.9,2.4-6,2.9-9.3c0.6-3.3,1-6.6,1.1-10c0.4-6.8,0.8-13.7,1.1-20.6
			c0.6-13.7,1.1-27.4,1.4-41.2c0.8-27.5,1.1-54.9,1.1-82.4v-20.6l-0.1-20.6c-0.1-13.7-0.3-27.5-0.5-41.2
			c-0.5-27.5-1.3-54.9-2.9-82.3l-0.3-5.1l-0.2-2.6l-0.2-2.5l-0.3-2.5L668,244c-0.1-0.8-0.2-1.6-0.4-2.5l-0.5-2.4
			c-1.3-6.4-3.5-12.7-6.4-18.5c-3-5.8-6.9-11.1-11.5-15.7c-4.7-4.6-10-8.5-15.7-11.6l-2.1-1.2c-0.7-0.4-1.5-0.7-2.3-1l-4.7-2.1
			c-3.1-1.4-6.3-2.7-9.4-4c-6.3-2.6-12.7-5.2-19.1-7.7c-12.8-5-25.6-9.8-38.6-14.4c-25.8-9.3-51.9-18-78.1-26.3
			c-13.1-4.2-26.2-8.3-39.4-12.2l-9.9-2.9l-4.9-1.4c-1.6-0.4-3.3-0.8-4.9-1.1c-6.6-1.3-13.3-1.3-19.8,0l0,0
			c-0.8,0.2-1.7-0.3-1.8-1.2c-0.2-0.8,0.3-1.7,1.2-1.8c6.9-1.6,14.1-1.8,21.1-0.7c1.8,0.3,3.5,0.6,5.2,1l5,1.3l10,2.7
			c13.3,3.6,26.5,7.4,39.7,11.4c13.2,3.9,26.3,8.1,39.4,12.3c13.1,4.2,26.2,8.5,39.2,13c13,4.5,26,9.1,38.9,14.1
			c6.4,2.5,12.9,5,19.3,7.6c3.2,1.3,6.4,2.6,9.6,4l4.8,2.1c0.8,0.4,1.6,0.7,2.4,1.1l2.4,1.3c6.4,3.4,12.3,7.7,17.4,12.7
			c5.2,5.1,9.5,10.9,12.9,17.3c3.3,6.4,5.7,13.2,7.2,20.3l0.5,2.6c0.2,0.9,0.3,1.8,0.4,2.6l0.4,2.6l0.3,2.7l0.3,2.7l0.2,2.6l0.3,5.2
			c1.6,27.5,2.4,55.1,2.8,82.6c0.2,13.8,0.3,27.5,0.3,41.3c0,13.8,0,27.5-0.2,41.3c-0.3,27.5-1,55.1-2.1,82.6
			c-0.6,13.8-1.3,27.5-2.2,41.3c-0.5,6.9-0.9,13.7-1.5,20.6c-0.3,3.5-0.8,7-1.5,10.5c-0.7,3.6-1.9,7-3.6,10.2
			c-0.5,0.9-1.7,1.2-2.6,0.7C665.1,589.2,664.7,588.1,665.2,587.2L665.2,587.2z" style="fill:#10294C;"/>
		<path d="M527.3,13.9c6.8,1.9,13.1,5.3,18.5,9.9c5.3,4.5,9.9,9.7,13.9,15.4c3.9,5.7,7.4,11.6,10.3,17.8
			c2.9,6.2,5.5,12.5,7.7,19c4.3,12.9,7.6,26.1,9.7,39.5c2.2,13.3,3.2,26.8,3.1,40.4c0,0.9-0.7,1.5-1.6,1.5c-0.8,0-1.4-0.6-1.5-1.4
			l0,0c-1.5-13.3-3.5-26.4-6.2-39.4c-1.4-6.5-2.9-12.9-4.6-19.3c-1.7-6.4-3.6-12.7-5.8-18.9c-2.1-6.2-4.6-12.3-7.3-18.3
			c-2.7-5.9-5.8-11.7-9.3-17.2c-3.5-5.4-7.5-10.5-12.1-15c-0.6-0.6-1.2-1.1-1.8-1.6l-1.8-1.6l-1.9-1.4l-1-0.7l-1-0.6l-2-1.3
			l-2.1-1.1l-1-0.6l-1.1-0.5l-2.2-1h-0.1c-1-0.3-1.5-1.4-1.2-2.4C525.1,14.1,526.2,13.6,527.3,13.9L527.3,13.9z" style="fill:#10294C;"/>
		<path d="M452.9,118.4c-0.6-3.9-0.8-7.8-0.7-11.7c0.1-3.9,0.4-7.8,1-11.6c0.6-3.9,1.4-7.7,2.5-11.4
			c1.1-3.8,2.5-7.4,4.2-11c0.4-0.8,1.3-1.1,2.1-0.7c0.6,0.3,0.9,0.9,0.9,1.5l0,0c-0.2,3.9-0.7,7.6-1.1,11.4
			c-0.4,3.8-0.9,7.5-1.4,11.2s-1,7.5-1.6,11.2c-0.6,3.7-1.2,7.5-2.1,11.3l0,0c-0.2,1-1.3,1.7-2.3,1.5
			C453.6,119.8,453,119.2,452.9,118.4z" style="fill:#10294C;"/>
		<path d="M482.7,87.1l-283.6,67.2c-11.1,2.4-22.1-4.7-24.5-15.8c-2.3-10.8,4.3-21.6,15-24.3c0.8-0.2,1.6-0.3,2.4-0.4
			l289.5-33.4c1.9-0.2,3.6,1.1,3.8,3C485.4,85,484.3,86.6,482.7,87.1L482.7,87.1z" style="fill:#F04E23;"/>
		<path d="M705.5,102.4c-0.4-0.8-1.3-1.1-2.1-0.7c-6.6,3.1-13.1,6.4-19.6,9.8c0-1.6,0-3.3,0-4.9
			c-0.1-3.1-0.2-6.2-0.4-9.3c-0.2-3.1-0.5-6.2-0.9-9.3c-0.4-3.1-1-6.3-1.8-9.3l0,0c-0.5-1.7-2.2-2.8-4-2.3h-0.1l0,0
			c-0.2,0.1-0.4,0.1-0.6,0.2l-0.1,0.1l-9.2,5l-9.1,5.1c-3,1.7-6,3.5-9.1,5.2c-3.1,1.7-6,3.5-9,5.3c-0.2,0.1-0.5,0.3-0.7,0.5
			l-0.1,0.1l0,0c-1,0.9-1.3,2.3-0.9,3.6c0.5,2.8,1,5.6,1.5,8.5c0.5,3,1,6,1.5,9.1c0.5,3,0.9,6.1,1.3,9.1l0.8,5.7l-6.4,3.7
			c-4.3,2.6-8.7,5.1-13,7.8c-8.6,5.2-17.3,10.6-25.6,16.3c-0.9,0.6-1.2,1.7-0.6,2.6c0.5,0.8,1.6,1.1,2.5,0.7c9.2-4.3,18.2-9,27-13.8
			c4.5-2.4,8.9-4.9,13.3-7.3l13.2-7.5c8.7-5.1,17.4-10.2,26-15.5c8.6-5.3,17.2-10.7,25.5-16.4C705.6,103.8,705.8,103.1,705.5,102.4z
			 M676.4,115.4c-8.9,4.7-17.8,9.6-26.6,14.6l-2.4,1.4c0-1.2,0-2.4,0-3.6c-0.1-3.1-0.2-6.3-0.5-9.4c-0.2-3.1-0.5-6.2-0.9-9.4
			c-0.3-2.3-0.6-4.5-0.9-6.8c2.4-1.3,4.7-2.6,7-3.9c3-1.7,6.1-3.4,9.1-5.2l9-5.3l5.3-3.2c0.4,1.4,0.7,2.9,1,4.4
			c0.6,2.9,1.1,5.9,1.6,8.9c0.5,3,0.9,6,1.3,9l0.9,6.4C679,114,677.7,114.7,676.4,115.4z" style="fill:#10294C;"/>
		<path d="M283.9,88.2c5.4-1,10.9-1.7,16.3-2.3c2.7-0.3,5.4-0.5,8.2-0.8l8.2-0.7c5.5-0.4,11-0.7,16.5-0.9
			s11-0.3,16.5-0.1c0.6,0,1.1,0.6,1.1,1.2c0,0.6-0.4,1-1,1.1c-5.4,1-10.9,1.8-16.3,2.4c-5.4,0.7-11,1.2-16.4,1.6l-8.2,0.6
			c-2.7,0.1-5.4,0.3-8.2,0.4c-5.5,0.2-11,0.4-16.5,0.2c-0.8,0-1.4-0.7-1.4-1.4C282.6,88.9,283.1,88.3,283.9,88.2L283.9,88.2z" style="fill:#F04E23;"/>
		<path d="M372.9,82.2c2-0.7,4.1-1.2,6.2-1.5c2.1-0.3,4.1-0.6,6.2-0.7c2.1-0.1,4.2-0.2,6.3-0.1c2.1,0.1,4.3,0.3,6.4,0.7
			c0.7,0.1,1.1,0.8,0.9,1.4c-0.1,0.4-0.4,0.7-0.7,0.9c-2,0.7-4.1,1.3-6.2,1.7c-4.1,0.8-8.3,1.2-12.5,1.1c-2.1,0-4.3-0.2-6.4-0.6
			c-0.8-0.2-1.3-1-1.2-1.8C372,82.8,372.4,82.4,372.9,82.2L372.9,82.2z" style="fill:#F04E23;"/>
		<path d="M243.3,154.8c7.3-2.5,14.6-4.8,21.9-7c3.6-1.1,7.4-2.1,11.1-3.2l11.1-3c7.4-1.9,14.8-3.8,22.3-5.6
			c7.5-1.7,14.9-3.4,22.5-4.8c0.6-0.1,1.2,0.3,1.3,1c0.1,0.5-0.2,1.1-0.7,1.3c-7.3,2.6-14.5,4.9-21.9,7.1
			c-7.4,2.2-14.7,4.3-22.1,6.4l-11.2,2.9c-3.7,0.9-7.4,1.9-11.2,2.8c-7.5,1.8-14.9,3.5-22.5,4.9c-0.8,0.1-1.5-0.5-1.5-1.3
			C242.4,155.6,242.8,155.1,243.3,154.8L243.3,154.8z" style="fill:#F04E23;"/>
		<path d="M230.3,131.9c1.9-0.8,3.9-1.5,6-1.9c2-0.5,4.1-0.8,6.1-1.1c2.1-0.3,4.1-0.4,6.2-0.5c2.1-0.1,4.2,0,6.4,0.3
			c0.7,0.1,1.1,0.7,1,1.4c-0.1,0.4-0.3,0.8-0.7,0.9c-1.9,0.8-3.9,1.5-6,2.1c-2,0.5-4.1,0.9-6.1,1.3c-2,0.3-4.1,0.5-6.2,0.7
			c-2.1,0.1-4.2,0.1-6.3-0.2c-0.8-0.1-1.4-0.9-1.3-1.7c0,0,0,0,0,0C229.6,132.6,229.9,132.1,230.3,131.9z" style="fill:#FFFFFF;"/>
		<path d="M255.2,117.4c4.8-1.2,9.6-2.2,14.4-3c2.4-0.5,4.8-0.8,7.3-1.2l7.3-1c4.8-0.6,9.7-1.2,14.5-1.6
			s9.8-0.8,14.7-0.8c0.6,0,1.2,0.5,1.2,1.1c0,0,0,0,0,0c0,0.5-0.3,1-0.9,1.1c-4.8,1.3-9.6,2.3-14.4,3.2c-4.8,0.9-9.6,1.7-14.5,2.4
			l-7.3,1c-2.4,0.3-4.8,0.6-7.3,0.8c-4.9,0.5-9.7,0.9-14.7,0.9c-0.8,0-1.4-0.6-1.4-1.4C254.1,118.1,254.6,117.5,255.2,117.4
			L255.2,117.4z" style="fill:#FFFFFF;"/>
		<g>
			<path d="M509.9,204.5L509.9,204.5c-7.5-3.3-19.2-8-37.6-14c-15-5-25.7-8.2-33.2-10.2c-8.8-2.4-17.3,0.7-18.1,9.6
				c-0.7,10.8-1.4,16.5-1.4,41.4c0,26.1,0.8,29.8,1.5,41.6c0.6,8.9,1.8,13.9,9.6,18.1l2.7,1.3c0.2,0.1,0.4,0.2,0.6,0.3
				c7.5,3.4,19.3,8.2,37.8,14.3c18.7,6.2,30.7,9.5,38.2,11.3c11.1,1.9,12.8-4,13.3-10.3c0.8-11,1.7-14.1,1.7-43.3
				c0-24.6-0.6-28.6-1.3-38.6C522.9,216.6,518.8,208.9,509.9,204.5z" style="fill:#FDB813;"/>
			<g>
				<path d="M439.4,330c2,0,4,0.2,6,0.6c1.9,0.4,3.8,1,5.6,1.7c1.8,0.7,3.6,1.5,5.3,2.5c1.8,1,3.5,2.1,5,3.5
					c0.7,0.6,0.7,1.7,0.1,2.3c0,0,0,0,0,0c-0.3,0.3-0.7,0.5-1.2,0.5c-2,0.1-4.1-0.1-6.1-0.5c-1.9-0.4-3.8-0.9-5.7-1.5
					c-1.9-0.6-3.7-1.4-5.4-2.3c-1.8-0.9-3.5-2-5-3.3c-0.8-0.8-0.9-2-0.2-2.9C438.3,330.2,438.8,330,439.4,330L439.4,330z" style="fill:#FDB813;"/>
				<path d="M442.9,349.4c1.4-0.2,2.9-0.2,4.3,0.1c1.4,0.2,2.7,0.6,4,1.1c1.3,0.5,2.5,1.1,3.7,1.9
					c1.3,0.8,2.4,1.7,3.3,2.9c0.6,0.8,0.5,1.9-0.2,2.5c-0.2,0.2-0.5,0.3-0.8,0.4c-1.5,0.3-2.9,0.3-4.4,0.1c-1.4-0.2-2.7-0.5-4-0.9
					c-1.3-0.4-2.6-1-3.8-1.7c-1.3-0.7-2.4-1.6-3.4-2.7c-0.8-0.9-0.7-2.3,0.2-3.1C442.2,349.6,442.5,349.4,442.9,349.4L442.9,349.4z" style="fill:#00ACDC;"/>
				<path d="M443.7,452.6c1.4-0.2,2.8-0.2,4.2,0c1.3,0.2,2.6,0.6,3.8,1.1c1.2,0.5,2.4,1.1,3.6,1.8
					c1.2,0.8,2.3,1.7,3.2,2.8c0.6,0.8,0.5,1.9-0.3,2.5c-0.2,0.2-0.5,0.3-0.8,0.4c-1.4,0.3-2.8,0.3-4.3,0.1c-1.3-0.2-2.6-0.4-3.9-0.9
					c-1.3-0.4-2.5-1-3.6-1.6c-1.2-0.7-2.3-1.6-3.3-2.7c-0.8-0.9-0.7-2.3,0.2-3.1C442.9,452.8,443.3,452.6,443.7,452.6L443.7,452.6z" style="fill:#FDB813;"/>
				<path d="M441.1,468.2c1.9-0.1,3.8,0.1,5.7,0.5c1.8,0.4,3.6,0.9,5.3,1.6c1.7,0.7,3.4,1.5,5.1,2.4
					c1.7,0.9,3.3,2.1,4.7,3.4c0.7,0.6,0.7,1.7,0.1,2.4c-0.3,0.3-0.7,0.5-1.1,0.5c-1.9,0.1-3.9,0-5.8-0.4c-1.8-0.3-3.7-0.8-5.4-1.4
					c-1.8-0.6-3.5-1.3-5.1-2.2c-1.7-0.9-3.3-1.9-4.7-3.2c-0.9-0.7-1-2-0.2-2.9C439.9,468.4,440.5,468.2,441.1,468.2L441.1,468.2z" style="fill:#F04E23;"/>
				<path d="M442.3,391.9c1.6-0.2,3.2-0.1,4.8,0.2c1.5,0.3,3,0.7,4.4,1.3c1.4,0.5,2.8,1.2,4.1,2c1.4,0.8,2.7,1.8,3.8,3
					c0.6,0.7,0.6,1.8-0.1,2.5c-0.3,0.2-0.6,0.4-0.9,0.4c-1.6,0.2-3.2,0.2-4.8-0.1c-1.5-0.2-3-0.6-4.5-1.1c-1.5-0.5-2.9-1.1-4.2-1.8
					c-1.4-0.8-2.7-1.7-3.8-2.9c-0.8-0.9-0.8-2.2,0.1-3c0,0,0,0,0,0C441.4,392.2,441.8,391.9,442.3,391.9z" style="fill:#F04E23;"/>
				<path d="M442.4,409.7c1.6-0.2,3.1-0.1,4.7,0.2c1.5,0.3,2.9,0.7,4.3,1.2c1.4,0.5,2.8,1.2,4,2c1.3,0.8,2.6,1.8,3.6,3
					c0.6,0.7,0.6,1.8-0.1,2.5c0,0,0,0,0,0c-0.3,0.2-0.6,0.4-0.9,0.4c-1.6,0.2-3.2,0.2-4.7,0c-1.5-0.2-3-0.6-4.4-1
					c-1.4-0.5-2.8-1.1-4.1-1.8c-1.4-0.7-2.6-1.7-3.7-2.8c-0.8-0.9-0.7-2.2,0.1-3C441.5,409.9,441.9,409.8,442.4,409.7z" style="fill:#00ACDC;"/>
				<path d="M431.6,348.6c1.1,5.7,3,11.1,5.7,16.2c0.8,1.3,1.5,2.6,2.4,3.9l0.2-0.1c1.5-0.6,2.9-1,4.2-1.3
					c0.7-0.2,1.3-0.3,1.8-0.5c-2.4-3.2-4.4-6.6-6-10.3c-1.3-3.1-2.3-6.2-3-9.4c-0.9-3.8-1.6-7.7-2-11.7c-0.4-3.4-0.7-9.4-0.9-12.8
					c-0.1-1.2,0.1-2.6-0.6-3.6c-0.6-0.8-1.8-1.6-2.8-1c-1,0.7-0.7,2.2-0.7,3.2c0,1.4-0.1,2.7-0.1,4.1
					C429.9,332.3,430.2,341.8,431.6,348.6z" style="fill:#FDB813;"/>
				<path d="M449.1,440.2c1.7-0.7,3.4-1.3,5.1-1.7c2-0.5,4-1.3,5.9-2.2c1.3-0.7,2.5-1.6,3.6-2.6
					c2.4-2.1,4.2-4.8,5.4-7.7c2.1-4.8,2.7-10.4,2.5-15.6c-0.1-4.2-0.7-8.4-1.8-12.5c-1.7-6.1-4.8-11.8-9-16.7
					c-0.3,0.2-0.5,0.3-0.8,0.5c-1.1,0.7-2.3,1.3-3.5,1.8c-0.8,0.3-1.5,0.6-2.2,0.8c0.8,0.8,1.5,1.6,2.2,2.5
					c2.9,3.6,5.1,7.7,6.2,12.2c1.2,4.9,1.6,9.9,1.1,14.9c-0.3,2.4-0.8,4.8-1.7,7.1c-1.4,3.3-3.8,6.1-7,7.9c-0.4,0.3-0.9,0.5-1.4,0.7
					l-0.1,0l0,0l0,0l0,0c-0.6,0.3-1.3,0.6-2,0.8c-0.4,0.2-0.7,0.3-1.1,0.4c-1.2,0.5-2.4,0.9-3.6,1.4c-2.2,0.8-4.2,2-6,3.6
					c-4.7,4.4-7.3,10.8-8.5,17.1c-1,5.4-1.6,10.9-1.6,16.3c0,2,0.1,4,0.2,6c0,0.5,0,1.1,0.2,1.6c0.3,0.9,1.5,2,2.4,1.3
					c1-0.6,0.7-2.8,0.7-3.7c0.3-5,1-10,2-14.9c0.7-2.9,1.6-5.8,2.7-8.6c1.3-3.2,3.3-6.5,6-8.7c1.1-0.9,2.3-1.7,3.6-2.2L449.1,440.2z
					" style="fill:#FDB813;"/>
				<path d="M441.3,429.4c1.2-0.7,2.5-1.4,3.8-1.9l1.1-0.4c-1.3-1.4-2.5-2.9-3.6-4.4c-2.2-3.1-4-6.6-5.1-10.3
					c-1.4-5-1.9-10.2-1.4-15.4c0.2-2.8,0.8-5.6,2.1-8.2c2.1-4.2,6-6.8,10.4-8.2l0.2-0.1l0.5-0.1l0.2-0.1l0.4-0.1
					c1.6-0.4,3.3-1,4.8-1.6c1.8-0.8,3.4-1.8,5-3c3.1-2.7,5.4-6.2,6.8-10c2.8-7.1,3.6-15,3.6-22.5c0-1.1,0-2.2,0-3.4
					c0-1.3-0.1-2.6-0.1-3.9c-0.1-1.3,0.1-2.7-0.7-3.8c-0.5-0.8-1.5-1.2-2.4-1c-1.2,0.5-0.9,2.3-1,3.3c-0.1,1.9-0.2,3.9-0.4,5.8
					c-0.6,7.2-1.7,14.6-4.8,21.2c-1.4,3.3-3.7,6-6.6,8c-0.4,0.2-0.7,0.4-1.1,0.6l0,0c-2.3,1.2-4.7,2.1-7.3,2.6
					c-0.8,0.2-1.6,0.4-2.4,0.7l0.1,0.1c-0.1,0-0.1-0.1-0.2-0.1c-1,0.3-2,0.7-2.9,1.2c-0.6,0.3-1.1,0.6-1.6,0.9h-0.1
					c-0.6,0.4-1.1,0.8-1.7,1.2c-2.1,1.7-3.8,3.8-5,6.1c-2.7,5.1-3,15.1-3.1,15.7c-0.2,4.5,0.4,8.9,1.6,13.2c2,6.8,5.4,13.1,10,18.4
					C440.6,429.9,441,429.6,441.3,429.4z" style="fill:#FDB813;"/>
				<path d="M470.2,474.2c-0.6-5.6-1.6-11.2-3.2-16.7c-1.5-5.3-3.8-10.5-6.7-15.2c-1.5,0.6-3,1-4.5,1.4l-1.2,0.3
					c0.7,0.9,1.3,1.8,1.8,2.7c6,9.9,9.1,21.4,10.2,32.9c0.2,1.5,0.3,5.4,0.4,6.9c0.1,1.2-0.1,2.7,0.4,3.8c0.3,0.8,1.3,1.7,2.3,1.3
					c1.1-0.5,0.8-2.4,0.8-3.3C470.6,483.6,470.5,478.9,470.2,474.2z" style="fill:#FDB813;"/>
			</g>
			<g>
				<polygon points="583.6,322.6 541.7,308.2 541.7,315.4 583.6,329.8 				" style="fill:#00ACDC;"/>
				<polygon points="562.2,234.7 541.7,227.7 541.7,234.9 562.2,242 				" style="fill:#00ACDC;"/>
				<polygon points="570.8,237.7 570.8,244.9 623,262.8 623,255.5 				" style="fill:#00ACDC;"/>
				<polygon points="599.9,267.7 541.7,247.8 541.7,255.1 599.9,275 				" style="fill:#00ACDC;"/>
				<polygon points="608.5,270.7 608.5,277.9 623,282.9 623,275.7 				" style="fill:#00ACDC;"/>
				<polygon points="553.7,292.2 541.7,288.1 541.7,295.3 553.7,299.4 				" style="fill:#00ACDC;"/>
				<polygon points="576.8,279.9 541.7,267.9 541.7,275.2 576.8,287.2 				" style="fill:#00ACDC;"/>
				<polygon points="585.3,282.9 585.3,290.1 608.5,298 608.5,290.8 				" style="fill:#00ACDC;"/>
				<polygon points="595.6,306.5 562.2,295.1 562.2,302.3 595.6,313.7 				" style="fill:#00ACDC;"/>
				<polygon points="604.2,309.4 604.2,316.7 623,323.1 623,315.9 				" style="fill:#00ACDC;"/>
			</g>
			<g>
				<path d="M566,372.9c0.3,0.1,0.6,0.1,0.8,0.1c0.8,0,1.5-0.3,2-0.9c3-3.5,6.9-6.1,11.4-7.4c0.7-0.2,1.3-0.8,1.7-1.5
					c0.5-1.1,0.4-2.3-0.1-3.4c-0.5-1.3-1.6-2.4-3-2.8c-0.5-0.2-1.1-0.2-1.6,0c-5.4,1.6-10.1,4.7-13.8,9c-1.2,1.4-1,3.7,0.5,5.4
					C564.5,372.1,565.2,372.6,566,372.9z" style="fill:#F04E23;"/>
				<path d="M576.7,374.5c-0.3,1.1-0.2,2.4,0.4,3.4c0.6,1.1,1.5,1.9,2.7,2.3c0.3,0.1,0.6,0.1,0.8,0.1
					c0.4,0,0.8-0.1,1.2-0.3c2.1-1,4.3-1.6,6.7-1.8c0.8-0.1,1.5-0.5,1.9-1.1c0.6-0.9,0.7-2.1,0.4-3.2c-0.4-1.6-1.6-2.8-3.1-3.3
					c-0.3-0.1-0.7-0.1-1.1-0.1c-3,0.2-5.9,1-8.6,2.3C577.5,373.2,577,373.8,576.7,374.5z" style="fill:#F04E23;"/>
				<path d="M628.4,380.8c-0.4-0.5-0.8-1-1.2-1.5c-0.9-1.2-1.8-2.4-2.9-3.6c-6.8-7.9-14.5-13.4-23-16.6
					c-1.1-0.4-2.3-0.8-3.5-1.1c-1.7-0.5-3.5-0.8-5.2-1.1c-0.9-0.1-1.8,0.2-2.4,0.9c-0.6,0.8-0.9,1.8-0.7,2.8
					c0.2,1.9,1.5,3.5,3.3,4.1c0.1,0,0.3,0.1,0.4,0.1c1.5,0.2,2.9,0.5,4.4,0.9c0.9,0.3,1.9,0.6,2.9,0.9c7.3,2.7,13.7,7.3,19.5,14
					c0.8,0.9,1.5,1.9,2.4,3c0.4,0.6,0.9,1.1,1.3,1.7c0.6,0.7,1.3,1.3,2.2,1.6c0.3,0.1,0.6,0.1,0.8,0.1c0.7,0,1.4-0.3,1.9-0.8
					C629.9,384.9,629.8,382.6,628.4,380.8z" style="fill:#F04E23;"/>
				<path d="M626.2,414.7c0-0.4,0-0.7,0-1.1c-0.1-5.3-1.2-10.5-3.2-15.4c-2-5-4.7-9.6-8.1-13.7
					c-3.3-3.9-7.2-7.2-11.7-9.7c-0.5-0.3-0.9-0.5-1.4-0.7c-0.2-0.1-0.4-0.2-0.6-0.2c-0.3-0.1-0.5-0.1-0.8-0.1
					c-1.4,0-2.6,1.1-2.7,2.6c-0.2,2,0.9,4,2.7,4.9c0.3,0.2,0.6,0.3,0.9,0.5c3.5,1.9,6.6,4.5,9.2,7.5c2.7,3.3,4.9,6.9,6.4,10.9
					c1.5,3.8,2.4,7.9,2.5,12.1c0,0.2,0,0.4,0,0.7l0.1,3.6c0,0.7,0,1.4,0.1,2c0.1,2,1.4,3.8,3.3,4.4c0.3,0.1,0.5,0.1,0.8,0.1
					c0.7,0,1.4-0.3,1.9-0.8c0.6-0.7,0.9-1.5,0.8-2.4c0-0.6,0-1.3-0.1-1.9L626.2,414.7z" style="fill:#F04E23;"/>
				<path d="M598.2,411.5c0-0.8,0-1.5-0.1-2.3l-0.1-2.2c0-1.9-1.3-3.6-3.1-4.2c-0.9-0.3-1.9,0-2.6,0.6
					c-0.6,0.6-0.9,1.4-0.8,2.2v0.3c0,0.6,0,1.3,0,1.9c0,0.7,0,1.5,0.1,2.2c0,1.4,0.1,3.3,0,4.7c-0.2,5.6-1.5,10-4.1,13.4
					c-1.4,1.8-2.9,3.5-4.5,5c-0.7,0.7-1.5,1.5-2.2,2.3l-0.5,0.5c-0.4,0.4-0.8,0.7-1.1,1.1c-1.1,1.3-0.9,3.5,0.5,5
					c0.5,0.6,1.2,1.1,1.9,1.3c0.3,0.1,0.5,0.1,0.8,0.1c0.7,0,1.4-0.3,1.9-0.9c0.2-0.3,0.4-0.5,0.7-0.7c0.2-0.2,0.5-0.5,0.7-0.8
					c0.7-0.7,1.4-1.4,2.1-2.1c1.8-1.8,3.5-3.6,5-5.6c3.3-4.3,5-10,5.2-17C598.3,415,598.2,413.1,598.2,411.5z" style="fill:#F04E23;"/>
				<path d="M572.9,404.4v-0.2c0-0.8-0.1-1.5-0.1-2.3l-0.1-3.3c-0.1-4.8,0.7-8.8,2.6-11.9c0.9-1.6,0.4-3.9-1.2-5.3
					c-0.5-0.4-1-0.8-1.7-1c-1.2-0.4-2.5,0.1-3.1,1.2c-2.4,4.2-3.5,9.4-3.4,15.6c0,1.1,0,2.1,0.1,3.2c0,0.8,0,1.6,0.1,2.3v0.1
					c0,0.5,0,0.9-0.2,1.4c-0.1,0.3-0.3,0.7-0.6,0.9l-0.6,0.6c-0.2,0.2-0.4,0.4-0.6,0.6c-1.4,1.1-1.5,3.4-0.2,5.3
					c0.6,0.9,1.4,1.5,2.4,1.8c0.3,0.1,0.5,0.1,0.8,0.1c0.6,0,1.2-0.2,1.7-0.6c0.4-0.4,0.8-0.7,1.2-1.2l0.3-0.3c0.9-0.9,1.6-2,2-3.2
					C572.8,407.2,573,405.8,572.9,404.4z" style="fill:#F04E23;"/>
				<path d="M611.9,409.2c-0.1-2.5-0.7-5-1.6-7.3c-1.3-3.5-3.4-6.7-6-9.4c-2.4-2.6-5.5-4.5-8.9-5.5l-0.7-0.2
					c-4.4-1-8.5-0.1-11.4,2.6c-2.9,2.7-4.4,6.9-4.4,11.8c0,0.8,0,1.7,0,2.5c0,1.7,0.1,3.4,0,4.9c0,1.5-0.3,3-0.8,4.5
					c-0.5,1.3-1.2,2.5-2.1,3.5c-1,1.1-2,2.1-3.1,3.3l-0.8,0.8c-1.2,1.2-1.1,3.5,0.2,5.1c0.5,0.7,1.3,1.2,2.1,1.5
					c0.9,0.3,1.9,0,2.6-0.6l0.7-0.7c1.1-1.1,2.3-2.3,3.4-3.5c1.4-1.6,2.5-3.4,3.2-5.3c0.8-2.2,1.2-4.4,1.2-6.7c0.1-1.8,0-3.6,0-5.3
					c0-0.8,0-1.6,0-2.4c0-3.1,0.9-5.6,2.6-7.1c1.7-1.6,3.9-2.1,6.7-1.4l0.4,0.1c2.8,0.9,5.2,2.7,6.9,5.1c0.9,1.3,1.7,2.7,2.3,4.1
					c0.6,1.4,0.9,2.9,1,4.4c0.1,1.4,0.1,2.7,0.1,4.1c0,1.4,0,2.7,0,4.1c0,7.8-1.5,14.5-4.8,20.4c-1.6,2.9-3.7,5.5-6.1,7.8
					c-1.2,1.2-1.2,3.4,0.1,5.1c0.5,0.7,1.3,1.3,2.2,1.5c0.3,0.1,0.5,0.1,0.8,0.1c0.7,0,1.3-0.2,1.8-0.7c2.8-2.7,5.2-5.7,7.1-9.1
					c3.8-6.8,5.6-14.8,5.6-23.7c0-1.4,0-2.8-0.1-4.3C612,412.1,612,410.7,611.9,409.2z" style="fill:#F04E23;"/>
			</g>
			<g>
				<path d="M547.1,465.8c1.8,21.1-9.5,39.3-25.2,40.6c-15.7,1.3-29.8-14.7-31.6-35.9c-1.8-21.1,9.5-39.3,25.2-40.6
					S545.3,444.6,547.1,465.8z" style="fill:#FFFFFF;"/>
				<path d="M534.3,466.8c1,12.2-5.4,22.8-14.5,23.5c-9.1,0.8-17.3-8.5-18.3-20.7c-1-12.2,5.4-22.8,14.5-23.5
					C525.1,445.3,533.3,454.6,534.3,466.8z" style="fill:#FDB813;"/>
				<path d="M524.1,466.7c0.4,5.3-2.4,9.9-6.4,10.2c-4,0.3-7.5-3.7-8-9.1s2.4-9.9,6.4-10.3
					C520.1,457.3,523.7,461.4,524.1,466.7z" style="fill:#10294C;"/>
			</g>
			<g>
				<path d="M486.6,242.9c1.1,13.2-5.6,22.8-15.7,19.6s-18.7-13.8-19.8-27s-1.9-30.2,15.7-24.3
					C484.5,217.1,485.5,229.7,486.6,242.9z" style="fill:#10294C;"/>
				<path d="M471.7,302.6c15.8,5.2,27.2,8.6,35.4,10.7c-2.1-23-6.2-44.2-37.2-54.6c-27.5-9.2-31.6,10.6-31,31.9
					C446.7,293.9,457.4,297.9,471.7,302.6z" style="fill:#10294C;"/>
				<path d="M462.5,244.5c1-0.2,2.1-0.2,3.1,0c1,0.2,1.9,0.4,2.8,0.8c0.9,0.4,1.8,0.8,2.6,1.4c0.9,0.6,1.6,1.3,2.3,2.1
					c0.5,0.6,0.3,1.5-0.3,1.9c0,0,0,0,0,0c-0.2,0.1-0.3,0.2-0.5,0.2c-1,0.2-2.1,0.2-3.1,0.1c-1-0.1-1.9-0.3-2.8-0.7
					c-0.9-0.3-1.8-0.7-2.6-1.2c-0.9-0.5-1.7-1.2-2.3-2c-0.6-0.7-0.5-1.8,0.3-2.3C462,244.6,462.2,244.5,462.5,244.5L462.5,244.5z" style="fill:#FDB813;"/>
				<path d="M462,229.3c0.5,0.4,0.8,0.8,1.1,1.4c0.2,0.4,0.3,0.9,0.2,1.4c0,0.5-0.2,0.9-0.4,1.4c-0.3,0.5-0.7,1-1.2,1.4
					c-0.7,0.5-1.6,0.5-2.3,0c-0.5-0.4-0.9-0.8-1.2-1.4c-0.2-0.4-0.4-0.9-0.4-1.4c0-0.5,0-0.9,0.2-1.4c0.2-0.5,0.6-1,1.1-1.4
					C460,228.6,461.2,228.6,462,229.3z" style="fill:#FDB813;"/>
				<path d="M477.4,234.7c0.5,0.3,0.8,0.8,1.1,1.4c0.2,0.4,0.3,0.9,0.2,1.4c0,0.5-0.2,0.9-0.4,1.4
					c-0.3,0.5-0.7,1-1.2,1.4c-0.7,0.5-1.6,0.5-2.3,0c-0.5-0.4-0.9-0.8-1.2-1.4c-0.2-0.4-0.3-0.9-0.4-1.4c0-0.5,0-0.9,0.2-1.4
					c0.2-0.5,0.6-1,1.1-1.4C475.4,234.1,476.5,234.1,477.4,234.7z" style="fill:#FDB813;"/>
				<path d="M450.6,231.2c-0.3,4.1-6.4-12.5,0-22.5c4.8-7.7,11.4-9.7,14.8-8.8c9.1,2.5,5.1,8.3,12.4,10.9
					c7.3,2.6,18.4,20.6,8.8,32.1c0,0,0.1-14.5-7.6-20.1c-4.2-3-9.6,5.1-18.9,0.3C451.8,218.8,451.1,224.1,450.6,231.2z" style="fill:#FFFFFF;"/>
				<path d="M470.9,267.4l0.8,23.1c0.1,2-1.5,3.7-3.5,3.8c-2,0.1-3.7-1.5-3.8-3.5l0,0c0-0.1,0-0.2,0-0.3l0.8-23.1
					c0.1-1.6,1.4-2.8,3-2.7C469.7,264.8,470.8,266,470.9,267.4z" style="fill:#F04E23;"/>
			</g>
			<polygon points="537.6,381.2 537.6,385.4 525.6,387.7 525.6,384.6 522.5,383.6 533.4,356.5 537.6,357.8 537.6,347.4 
				528.2,344.3 528.2,348.2 501.6,350.6 501.6,347.7 487.9,342.7 487.9,359.7 501.6,364.6 501.6,356.1 528.2,353.7 528.2,354.8 
				528.2,354.8 517.4,381.8 505.9,377.9 505.9,400.8 525.6,407.5 525.6,393.2 537.6,391 537.6,391.6 547,394.7 547,384.2 			" style="fill:#00ACDC;"/>
			<g>
				<path d="M614.1,476.2L614.1,476.2c-3.6-1.6-9.3-3.9-18.2-6.8c-7.3-2.4-12.5-3.9-16.1-4.9c-4.2-1.2-8.4,0.3-8.7,4.7
					c-0.3,5.2-0.7,9.9-0.7,21.9c-0.1,6.3,0.2,12.6,0.7,18.8c0.3,4.3,0.9,6.7,4.6,8.8l1.3,0.6c0.1,0,0.2,0.1,0.3,0.1
					c6,2.6,12.1,4.9,18.3,6.9c9.1,3,14.9,4.6,18.5,5.4c5.4,0.9,6.2-1.9,6.4-5c0.4-5.3,0.8-5.5,0.8-19.7c0-11.9-0.3-15.7-0.6-20.6
					C620.4,482,618.4,478.3,614.1,476.2z" style="fill:#FDB813;"/>
				<path d="M592,518.1c-1.1,0-2.2-0.5-2.9-1.4L577.7,502c-1.2-1.6-1-3.9,0.6-5.1c1.6-1.2,3.9-1,5.1,0.6l8.2,10.6
					l15.4-24.4c1-1.7,3.2-2.3,5-1.3c1.7,1,2.3,3.2,1.3,5c0,0.1-0.1,0.1-0.1,0.2l-18.2,28.7c-0.6,1-1.7,1.6-2.9,1.7H592z" style="fill:#10294C;"/>
			</g>
		</g>
	</g>
	<g>
		<path d="M221.4,189l-32.2-35.6c-4.5-4.9-12.1-5.3-17-0.9c-4.9,4.5-5.3,12.1-0.9,17l32.2,35.6c0.2,0.2,0.4,0.4,0.6,0.7
			l-23,33.3c-2.2,3.1-1.4,7.4,1.8,9.6c3.1,2.2,7.4,1.4,9.6-1.8l28.7-41.7C225.5,200.8,225.6,193.7,221.4,189z" style="fill:#10294C;"/>
		<path d="M170.5,146l13.1-6.9l-14.9-2c-0.7-5.3-0.6-10.7,0.2-16c6.7-0.2,13.5,0.4,20.1,1.6c3.8,0.6,7.5,1.5,11.2,2.5
			c-2.8-3.1-6.1-5.8-9.6-8.1c-5.6-3.6-11.7-6.4-18-8.5c1.9-4.2,4.6-8,7.9-11.2c-5.9-1.7-12.1-2.2-18.2-1.4c0,0.1,0,0.1,0.1,0.2
			c0.4,1.9-0.7,3.7-2.6,4.1c-19.1,3.1-28.3,20.6-24.2,45.5c4.1,24.7,17.7,36.9,37.2,33.7c1.8-0.3,3.5,1,3.8,2.8c0,0,0,0.1,0,0.1
			c0,0.1,0,0.1,0,0.2c6.1-1.2,11.8-3.6,16.9-7.1C183.2,171,174.5,160.1,170.5,146z" style="fill:#FFFFFF;"/>
		<path d="M172.8,179.7c-19.6,3.2-33.2-9.1-37.2-33.7c-4.1-24.9,5.2-42.4,24.2-45.5c1.9-0.4,3-2.3,2.6-4.1
			c0-0.1,0-0.1-0.1-0.2c-0.1-0.6-0.4-1.2-0.8-1.6l0,0c-0.1-0.2-0.3-0.3-0.5-0.5l-0.1,0c-6.3-4.9-25.1-5.1-39.7,12.5
			c-2.2,2.5-4,5.1-5.6,8c0,0,0,0.1-0.1,0.1c-0.1,0.3-10.5,16.3-19,18.4l0,0c-3.7,0.6-7.3,1.8-10.6,3.7c-4,2.1-7.6,5-10.4,8.5
			c-3,3.8-4.9,8.3-5.5,13.1c-0.5,4.5,0.1,9.1,2,13.3l0.4,0.9l0.4,0.8c0.3,0.5,0.6,1,0.9,1.4c0.6,0.9,1.2,1.8,1.9,2.6
			c1.2,1.5,2.6,2.8,4.1,4c2.7,2.3,5.3,3.8,7.5,5.4c1.8,1.1,3.3,2.5,4.7,4c0.4,0.5,0.7,1.2,0.9,1.8c0.2,0.7,0.3,1.3,0.2,2
			c-0.1,1.4-0.5,2.8-1.1,4c-0.4,0.9-0.9,1.8-1.4,2.7l-0.6,0.9l0,0.1c-0.7,1-0.4,2.4,0.7,3.1c0.9,0.6,2.1,0.4,2.8-0.3
			c0,0,0.3-0.3,0.9-0.9c0.8-0.9,1.6-1.8,2.4-2.7c1.3-1.6,2.3-3.4,3-5.3c1-3,1-6.2-0.2-9.1c-1.3-2.9-3.1-5.6-5.3-7.9
			c-2-2.3-4-4.4-5.4-6.5c-0.7-1-1.3-2-1.8-3.1c-0.2-0.5-0.4-1-0.6-1.4c-0.1-0.2-0.1-0.5-0.2-0.7l-0.1-0.3V167
			c-0.4-1.9-0.3-3.9,0.3-5.7c0.6-1.6,1.6-3,2.9-4.1c1.4-1.1,3-2,4.8-2.5c1.3-0.4,2.7-0.6,4.1-0.7h0.6h0.2c7.6,0,15.2,9.4,18.9,15.6
			c0,0,0,0.1,0.1,0.1c2.5,4.2,5.7,8,9.3,11.3l-0.7-0.1c22,19.3,43.9,12.4,49.3,4.9c0-0.1,0.1-0.2,0.1-0.2c0,0,0.1-0.4,0.2-0.4
			s0.2-0.5,0.3-0.7v-0.1l0,0c0.2,0,0.3-0.9,0.2-1.6c0-0.1,0-0.1,0-0.2c-0.2-1.8-1.8-3.2-3.6-3C173,179.6,172.9,179.6,172.8,179.7z" style="fill:#F04E23;"/>
		<path d="M211.5,132.5c-1.6-9.8-6.5-18.8-13.9-25.4l-0.2,0.2c-3.1,2.7-5.4,6.1-6.8,9.9c3.5,2.3,6.8,5,9.6,8.1
			c-3.7-1-7.4-1.9-11.2-2.5c-0.8,4.4-0.9,9-0.1,13.5c2,12.2,9.2,21.7,17.6,24.8l0,0C211.4,152.3,213.1,142.3,211.5,132.5z" style="fill:#10294C;"/>
		<path d="M188.9,136.2c-0.8-4.5-0.7-9,0.1-13.5c-6.6-1.2-13.4-1.7-20.1-1.6c-0.8,5.3-0.9,10.7-0.2,16l14.9,2l-13.1,6.9
			c4,14.1,12.7,25,22.9,29.6c5.4-3.8,9.9-8.8,13.1-14.6l0,0C198.1,157.9,190.9,148.4,188.9,136.2z" style="fill:#FDB813;"/>
		<path d="M172.6,108.6c6.3,2.1,12.4,5,18,8.5c1.4-3.8,3.7-7.2,6.8-9.9l0.2-0.2c-4.9-4.4-10.8-7.7-17.1-9.6
			C177.2,100.6,174.5,104.4,172.6,108.6z" style="fill:#FDB813;"/>
		<path d="M172.8,239.3l-35.9-20.7c0.1-0.3,0.2-0.6,0.3-0.9l13.3-46.1c1.7-6.4-2.2-13-8.6-14.7
			c-6.2-1.6-12.6,1.9-14.5,8L114.1,211c-1.8,6.2,1.6,12.7,7.7,14.7l44.2,25.5c0.6,0.4,1.4,0.6,2.1,0.8c3.7,0.8,7.4-1.6,8.1-5.3
			C176.8,243.8,175.5,240.8,172.8,239.3L172.8,239.3z" style="fill:#10294C;"/>
		<path d="M106.3,140.8c0.6,0.9,1.1,2,1.4,3.1c0.3,1,0.6,2,0.8,3c0.2,1,0.3,2.1,0.4,3.1c0.1,1.2,0.1,2.4-0.1,3.6v0.2
			c-0.1,1-1,1.7-2,1.6c-0.2,0-0.4-0.1-0.6-0.2c-1.2-0.7-2.3-1.7-3.1-2.9c-0.8-1.1-1.3-2.4-1.7-3.7c-0.4-1.3-0.5-2.7-0.3-4
			c0.1-1.4,0.6-2.8,1.4-4.1c0.6-1,1.9-1.2,2.8-0.6c0,0,0,0,0,0c0.2,0.1,0.4,0.3,0.6,0.5L106.3,140.8z" style="fill:#10294C;"/>
		<circle cx="178.1" cy="244.2" r="18.5" style="fill:#00ACDC;"/>
		<circle cx="178.1" cy="244.2" r="5.6" style="fill:#10294C;"/>
	</g>
	<g>
		<path d="M723.2,329.4v-14.5c0-23.5,15.9-39.1,26.2-39.1c2.2-0.1,4.4,0.9,5.8,2.6c1.8,2.4,3.1,6.3,3.1,11.3v19.2
			l8.6-5.6v-13.6c0-7.2-1.4-12.9-4.5-16.9c-3-4-7.7-6.3-12.7-6.2c-8,0-16.8,5.2-23.6,13.9c-7.4,9.4-11.3,21.7-11.3,34.5V335
			L723.2,329.4z" style="fill:#10294C;"/>
		<path d="M767,311.8l-53.2,31.8c-7,4.2-9.5,7.8-9.5,18.2v2.7c0.9-0.9,2.8-1.7,4.3-2.6c3.9-2.2,8-4.2,12.2-5.9
			c1.7-0.7,3.2-1.2,4.2-1.6c1.1-0.3,1.7-0.5,1.7-0.5c0.9-0.2,1.8,0.3,2,1.2c0.1,0.6,0,1.1-0.4,1.5c0,0-0.5,0.5-1.3,1.2
			c-0.8,0.7-2,1.8-3.5,2.9c-3.6,2.8-7.3,5.3-11.2,7.6c-2.7,1.6-5.4,3.1-8,4.3v14c0.9-0.9,2.8-1.7,4.3-2.6c3.9-2.2,8-4.2,12.2-5.9
			c1.7-0.7,3.2-1.2,4.2-1.6c1.1-0.3,1.7-0.5,1.7-0.5c0.9-0.2,1.8,0.3,2,1.2c0.1,0.6,0,1.1-0.4,1.6c0,0-0.5,0.5-1.3,1.2
			c-0.8,0.7-2,1.7-3.5,2.9c-3.6,2.8-7.3,5.3-11.2,7.6c-2.7,1.6-5.4,3.1-8,4.3v14c0.9-0.9,2.8-1.7,4.3-2.6c3.9-2.2,8-4.2,12.2-5.9
			c1.7-0.7,3.2-1.2,4.2-1.6c1.1-0.3,1.7-0.5,1.7-0.5c0.9-0.2,1.8,0.3,2,1.2c0.1,0.6,0,1.1-0.4,1.6c0,0-0.5,0.5-1.3,1.2
			c-0.8,0.7-2,1.7-3.5,2.9c-3.6,2.8-7.3,5.3-11.2,7.6c-2.7,1.6-5.4,3.1-8,4.3v7.4c0,7.9,3.1,9.5,11.1,4.7l55.3-33.1
			c5.8-4.4,6.4-8.6,6.4-15v-62.3C777.1,313.6,774.7,307.2,767,311.8z" style="fill:#10294C;"/>
	</g>
	<g>
		<path d="M716.7,546.5c0,9.2-4.8,16.7-10.8,16.7c-6,0-10.8-7.5-10.8-16.7c0-9.2,4.8-16.7,10.8-16.7
			C711.9,529.8,716.7,537.2,716.7,546.5z" style="fill:#10294C;"/>
		<path d="M616.9,763c-0.3,0-0.5,0-0.8-0.1l-194.8-29.7c-3-0.5-5-3.2-4.6-6.2c0.5-3,3.2-5,6.2-4.6l0,0l192.5,29.4
			L763,645.9L702.8,549c-1.6-2.6-0.8-5.9,1.8-7.5c2.6-1.6,5.9-0.8,7.5,1.8L775,644.5c1.5,2.4,0.9,5.6-1.5,7.3L620,761.9
			C619.1,762.6,618,763,616.9,763z" style="fill:#FDB813;"/>
		<circle cx="617.3" cy="757.8" r="18.5" style="fill:#00ACDC;"/>
		<circle cx="764.5" cy="648.2" r="18.5" style="fill:#00ACDC;"/>
		<path d="M622.8,757.8c0,3.1-2.5,5.5-5.6,5.5c-3.1,0-5.5-2.5-5.5-5.6c0-3.1,2.5-5.5,5.5-5.5
			C620.3,752.2,622.8,754.7,622.8,757.8C622.8,757.8,622.8,757.8,622.8,757.8z" style="fill:#10294C;"/>
		<path d="M770.1,648.2c0,3.1-2.5,5.6-5.6,5.6c-3.1,0-5.6-2.5-5.6-5.6c0-3.1,2.5-5.6,5.6-5.6l0,0
			C767.6,642.6,770.1,645.1,770.1,648.2z" style="fill:#10294C;"/>
	</g>
	<g>
		<path d="M458,543.4c-1.7,2.2-6.5,8.4-12.2,16c-1.4,1.8-2.8,3.8-4.3,5.8c-2.6,3.5-5.2,7.1-7.7,10.7
			c-3.1,4.3-5.9,8.5-8.2,12.2l-0.3,0.5c-4.5,7.2-8.7,14.5-12,20.6c-5.6,10.2,0.8,18.8,8.1,22c4.6,2.1,10.3,4.5,17,7.1
			c9.9,3.7,20.1,6.6,30.5,8.7c7.2,1.4,14.8,0.1,21.1-3.6l1.3-0.8l0,0c0.1-0.1,0.2-0.1,0.3-0.2l2.1-1.2c3.9-2.2,7.5-4.9,10.9-7.9
			c2.5-2.2,4.7-4.6,6.7-7.3c1.4-2,3-4.2,4.7-7c1-1.6,2.1-3.3,3.2-5.2c1.4-2.3,2.8-4.8,4.2-7.3c2.1-3.7,4.2-7.5,6.2-11.2
			c1.1-2.1,2.2-4.2,3.2-6.1c4.2-8,7.4-14.5,8.6-16.9c-6.2-2-12.7-4.1-19.5-6.4C496.6,557.5,475.4,550,458,543.4z" style="fill:none;"/>
		<path d="M411.7,716.9l-28.3-29.8c0.4-0.5,0.7-1,1-1.5l23.2-42c3.1-5.9,0.8-13.2-5.1-16.2c-5.7-3-12.7-0.9-15.9,4.6
			l-23.2,42c-2.9,5.2-1.5,11.6,3.1,15.3l35.3,37.2c2.6,2.8,7,2.9,9.7,0.3C414.2,724.1,414.3,719.7,411.7,716.9L411.7,716.9
			L411.7,716.9z" style="fill:#10294C;"/>
		<g id="_Groupe_">
			<path d="M388.1,645c15.4-8.6,68.5,32.1,56.4,46.9l-0.3,0.4l0,0c-16.1,17.3-75.6-32.5-57-46.8l0.1-0.1
				C387.5,645.3,387.8,645.2,388.1,645z" style="fill:#FDB813;"/>
			<path d="M475.2,570.8c13.9,5.7,21.4,20.1,18.4,29.5c-3,9.8-6.7,19.5-10.9,28.9c-4.7,10.7-10,21.2-16,31.3
				c-5.9,10.3-12.6,20-20.2,29.1c-0.7,0.8-1.4,1.6-2.1,2.4c12.1-14.8-41-55.5-56.4-46.9c7.3-4.7,13.8-10.8,19.8-17.1
				c8.1-8.4,15.7-17.3,23-26.5c3.4-4.3,6.8-8.7,10.1-13.1c1.6-2.1,3.1-4.1,4.6-6.2c0.6-0.8,1.3-1.6,1.8-2.4
				C451.9,573.1,463.8,566.2,475.2,570.8z" style="fill:#FDB813;"/>
		</g>
		<path d="M397,651c10-7.3,48.3,22.8,38.7,32.8C424.5,695.6,384,660.6,397,651z" style="fill:#F04E23;"/>
		<path d="M474.5,602c-3.1,6.3-9.7,5.6-16.8,2.2c-7-3.4-11.7-8.2-8.7-14.5c3.1-6.3,12.2-10.7,19.2-7.3
			C475.4,585.8,477.6,595.7,474.5,602z" style="fill:#F04E23;"/>
		<path d="M407.8,662.4c3.8-2.8,18.5,8.7,14.8,12.6C418.3,679.4,402.8,666,407.8,662.4z" style="fill:#FFFFFF;"/>
		<path d="M423.7,621c1.6,0,3.2,0.2,4.8,0.6c1.5,0.4,3.1,0.8,4.5,1.4c3,1.1,5.8,2.7,8.3,4.5c2.6,1.9,4.9,4.2,6.8,6.9
			c0.4,0.7,0.9,1.4,1.3,2.1c0.4,0.7,0.7,1.5,1.1,2.2l0.5,1.1c0.1,0.4,0.3,0.8,0.4,1.2c0.2,0.8,0.4,1.6,0.6,2.3
			c0.2,0.8-0.4,1.6-1.2,1.8c-0.5,0.1-1.1-0.1-1.5-0.5l-0.1-0.1c-1.8-2.1-3.7-4.1-5.8-6c-2-1.8-4.1-3.5-6.4-5.1
			c-2.2-1.5-4.5-3-6.9-4.5c-2.4-1.4-4.9-2.8-7.3-4.3l-0.1-0.1c-0.9-0.5-1.2-1.7-0.7-2.7C422.4,621.2,423,620.9,423.7,621L423.7,621z
			" style="fill:#F04E23;"/>
		<path d="M439.9,613c1.1-0.5,2.3-0.7,3.5-0.5c1.1,0.2,2.2,0.6,3.1,1.2c1,0.6,1.8,1.5,2.4,2.5c0.7,1.1,1,2.4,0.8,3.6
			c-0.1,1-1.1,1.8-2.1,1.6h-0.1l-0.5-0.1c-1.1-0.2-1.8-0.4-2.5-0.6c-0.6-0.2-1.2-0.4-1.8-0.7c-0.6-0.3-1.2-0.7-1.7-1.2
			c-0.7-0.5-1.2-1.2-1.7-2l-0.4-0.8c-0.6-1-0.2-2.3,0.8-2.9c0,0,0,0,0,0L439.9,613z" style="fill:#F04E23;"/>
		<path d="M481.4,686L461,642.5c-2.9-6-10.2-8.4-16.1-5.5c-5.8,2.9-8.3,9.8-5.7,15.7l20.4,43.5c0.1,0.3,0.3,0.6,0.4,0.8
			l-32.2,26.1c-3,2.4-3.5,6.7-1.1,9.7c1.9,2.3,5,3.2,7.8,2.1c0.7-0.3,1.4-0.6,1.9-1.1l39.6-32.1C481.8,698.8,484.2,691.8,481.4,686z
			" style="fill:#10294C;"/>
		<circle cx="422.1" cy="727.8" r="18.5" style="fill:#00ACDC;"/>
		<path d="M427.7,727.8c0,3.1-2.5,5.6-5.6,5.6s-5.6-2.5-5.6-5.6c0-3.1,2.5-5.6,5.6-5.6c0,0,0,0,0,0
			C425.2,722.3,427.7,724.7,427.7,727.8C427.7,727.8,427.7,727.8,427.7,727.8z" style="fill:#10294C;"/>
	</g>
</g>
</svg>
