<?xml version="1.0" encoding="utf-8"?>
<!-- Generator: Adobe Illustrator 23.0.2, SVG Export Plug-In . SVG Version: 6.00 Build 0)  -->
<svg version="1.1" id="upgrade" xmlns="http://www.w3.org/2000/svg" xmlns:xlink="http://www.w3.org/1999/xlink" x="0px" y="0px" viewBox="0 0 800 836" style="enable-background:new 0 0 800 836;" xml:space="preserve">

<g>
	<g>
		<path d="M385.7,836c135.6,0,247.2-10.9,260.8-23.5l0,0v0c0,0,0.1,0,0.1-0.1c50.6-52.9,80.1-132,89.1-158.6
			c1.1-3.5-0.7-7.2-4.2-8.4c-0.8-0.3-1.6-0.4-2.5-0.3c-12.2,0.9-24.3,2.5-36.3,4.8c-3.6,0.6-7.1-1.8-7.7-5.4c-0.3-1.5,0-3.1,0.8-4.5
			C711.8,595,724,547.1,728,528.2c0.8-3.6-1.5-7.1-5.1-7.9c-0.6-0.1-1.2-0.2-1.8-0.1c-6.5,0.4-12.9,1.2-19.3,2.4
			c-3.6,0.7-7.1-1.7-7.8-5.3c-0.3-1.3-0.1-2.6,0.4-3.9c10.7-24.7,15.6-52.5,17.4-65.9c0.5-3.6-2.1-7-5.7-7.4c-0.5-0.1-0.9-0.1-1.4,0
			c-17,1.5-33.8,4.8-50.2,9.6c-3.5,1-7.2-1-8.2-4.5c-0.4-1.4-0.3-2.9,0.2-4.2c16.7-42.6,21.7-84.1,23.2-100.3
			c0.3-3.7-2.4-6.9-6.1-7.1c-0.2,0-0.4,0-0.6,0c-6.9,0.1-13.8,0.9-20.6,2.2c-3.6,0.7-7.1-1.7-7.8-5.3c-0.2-1-0.2-1.9,0.1-2.9
			c8.8-34.6,10.8-69,11.3-84.5c0.1-3.7-2.8-6.7-6.5-6.8c-0.6,0-1.1,0-1.7,0.2c-12.8,3.1-40.1,8.9-71.2,23.2
			c-5.1,2.4-9.7-0.6-8.3-6.1c5.2-19.6,6.8-39.6,7.2-50.2c0.1-3.7-2.7-6.7-6.4-6.9c-0.4,0-0.8,0-1.2,0.1c-9.1,1.3-18.1,3.7-26.6,7
			c-3.4,1.4-7.2-0.3-8.6-3.6c-0.3-0.7-0.5-1.5-0.5-2.4c-0.6-29.3-5.8-58.4-8.4-71.6c-0.7-3.6-4.2-5.9-7.8-5.2
			c-0.3,0.1-0.6,0.2-0.9,0.3c-19.9,7.6-38.9,17.4-56.6,29.3c-3.1,2-7.2,1.2-9.2-1.9c-0.2-0.3-0.4-0.7-0.6-1
			c-17.1-40.2-39.3-63.6-48.6-72.4c-2.5-2.4-6.5-2.4-9,0c-9.4,8.7-31.5,32.2-48.6,72.4c-1.4,3.4-5.4,4.9-8.7,3.5
			c-0.4-0.2-0.7-0.3-1-0.6C305,138.8,286,129,266.1,121.4c-3.4-1.2-7.2,0.5-8.5,4c-0.1,0.3-0.2,0.6-0.3,0.9
			c-2.7,13.2-7.9,42.3-8.4,71.6c-0.1,3.6-3.1,6.5-6.7,6.5c-0.8,0-1.6-0.2-2.3-0.5c-8.6-3.4-17.5-5.7-26.6-7c-3.6-0.5-7,2-7.5,5.7
			c-0.1,0.4-0.1,0.8-0.1,1.2c0.5,10.6,2,30.6,7.2,50.2c0.9,3.5-1.2,7.2-4.7,8.1c-1.5,0.4-3,0.3-4.4-0.4
			c-22.6-10.5-46.2-18.8-70.4-24.9c-3.6-0.8-7.1,1.4-8,4.9c-0.1,0.6-0.2,1.1-0.2,1.7c0.5,15.5,2.5,49.9,11.3,84.5
			c0.9,3.6-1.2,7.2-4.8,8.1c-0.9,0.2-1.9,0.3-2.9,0.1c-6.8-1.3-13.7-2.1-20.6-2.2c-3.6-0.1-6.6,2.8-6.7,6.4c0,0.2,0,0.5,0,0.7
			c1.4,16.2,6.5,57.7,23.2,100.3c1.3,3.4-0.4,7.3-3.8,8.6c-1.3,0.5-2.8,0.6-4.2,0.2c-16.4-4.9-33.2-8.1-50.2-9.6
			c-3.6-0.3-6.9,2.4-7.2,6c0,0.5,0,0.9,0,1.4c1.8,13.4,6.6,41.2,17.4,65.9c1.4,3.4-0.1,7.3-3.5,8.7c-1.2,0.5-2.6,0.7-3.9,0.4
			c-6.4-1.2-12.8-2.1-19.3-2.5c-3.7-0.2-6.8,2.6-7,6.2c0,0.6,0,1.2,0.1,1.8c4.1,18.9,16.3,66.8,42.3,111.9c1.8,3.2,0.7,7.2-2.5,9
			c-1.3,0.8-2.9,1-4.5,0.8c-12-2.3-24.1-3.9-36.3-4.8c-3.7-0.2-6.8,2.5-7,6.2c-0.1,0.8,0.1,1.7,0.3,2.5
			c9,26.6,38.5,105.7,89.1,158.6c0,0,0.1,0,0.1,0.1s0,0,0,0l0,0C138.5,825.1,250,836,385.7,836z" style="fill:#FDB813;"/>
		<path d="M129.5,107.4c-2.5-0.7-5-1.2-7.6-1.4c-1.6-0.2-3.1-0.3-4.7-0.4c0-1.6-0.1-3.2-0.3-4.8
			c-0.2-2.6-0.6-5.1-1.3-7.6c-0.3-1-1.3-1.5-2.2-1.3c-0.6,0.2-1.1,0.6-1.3,1.3c-0.7,2.5-1.1,5-1.3,7.5c-0.1,1.6-0.2,3.2-0.3,4.7
			c-1.3,0-2.6,0.1-3.9,0.2c-2.6,0.2-5.1,0.6-7.6,1.3c-1,0.3-1.5,1.3-1.3,2.2c0.2,0.6,0.6,1.1,1.3,1.3c2.5,0.7,5,1.1,7.6,1.3
			c1.3,0.1,2.7,0.2,4,0.2c0.1,1.3,0.2,2.6,0.3,3.9c0.3,2.6,0.7,5.1,1.4,7.6c0.1,0.5,0.5,0.8,1,1c0.8,0.2,1.6-0.2,1.8-1
			c0.7-2.5,1.2-5,1.4-7.6c0.1-1.3,0.3-2.6,0.3-3.9c1.6-0.1,3.2-0.2,4.8-0.4c2.6-0.3,5.1-0.7,7.6-1.4c0.8-0.2,1.2-1.1,1-1.8
			C130.4,107.9,130,107.5,129.5,107.4L129.5,107.4z" style="fill:#FDB813;"/>
		<path d="M551.3,31.6c0.2,0.8,1.1,1.2,1.8,1c0.5-0.1,0.8-0.5,1-1c0.7-2.5,1.2-5,1.4-7.6c0.1-1.3,0.2-2.6,0.3-3.9
			c1.6-0.1,3.2-0.2,4.8-0.4c2.6-0.3,5.1-0.7,7.6-1.4c0.5-0.1,0.9-0.5,1-1c0.2-0.8-0.2-1.6-1-1.8c0,0,0,0,0,0c-2.5-0.7-5-1.2-7.6-1.4
			c-1.6-0.2-3.1-0.3-4.7-0.4c0-1.6-0.1-3.2-0.3-4.8c-0.2-2.6-0.6-5.1-1.3-7.6c-0.3-1-1.3-1.5-2.2-1.2c-0.6,0.2-1.1,0.6-1.2,1.2
			c-0.7,2.5-1.1,5-1.3,7.6c-0.1,1.6-0.2,3.1-0.3,4.7c-1.3,0-2.6,0.1-3.9,0.2c-2.6,0.2-5.1,0.6-7.6,1.3c-1,0.3-1.5,1.3-1.3,2.2
			c0.2,0.6,0.6,1.1,1.3,1.3c2.5,0.7,5,1.1,7.6,1.3c1.3,0.1,2.7,0.2,4,0.2c0.1,1.3,0.2,2.6,0.3,3.9C550.2,26.6,550.7,29.1,551.3,31.6
			z" style="fill:#FDB813;"/>
		<path d="M31.8,595c-2.5-0.7-5-1.2-7.6-1.4c-1.6-0.2-3.1-0.3-4.7-0.4c0-1.6-0.1-3.2-0.3-4.8c-0.2-2.6-0.6-5.1-1.3-7.6
			c-0.3-1-1.3-1.5-2.2-1.3c-0.6,0.2-1.1,0.6-1.3,1.3c-0.7,2.5-1.1,5-1.3,7.6c-0.1,1.6-0.2,3.2-0.3,4.7c-1.3,0-2.6,0.1-3.9,0.2
			c-2.6,0.2-5.1,0.6-7.6,1.3c-1,0.3-1.5,1.3-1.2,2.2c0.2,0.6,0.6,1.1,1.2,1.2c2.5,0.7,5,1.1,7.6,1.3c1.3,0.1,2.7,0.2,4,0.2
			c0.1,1.3,0.2,2.6,0.3,3.9c0.3,2.6,0.7,5.1,1.4,7.6c0.2,0.8,1,1.2,1.8,1c0.5-0.1,0.9-0.5,1-1c0.7-2.5,1.2-5,1.4-7.6
			c0.1-1.3,0.3-2.6,0.3-3.9c1.6-0.1,3.2-0.2,4.8-0.4c2.6-0.3,5.1-0.7,7.6-1.4c0.5-0.1,0.9-0.5,1-1C33.1,596.1,32.6,595.3,31.8,595z" style="fill:#FDB813;"/>
		<path d="M770.5,694.4c-2.5-0.7-5-1.2-7.6-1.4c-1.6-0.2-3.1-0.3-4.7-0.4c0-1.6-0.1-3.2-0.3-4.8
			c-0.2-2.6-0.6-5.1-1.3-7.6c-0.3-1-1.3-1.5-2.2-1.3c-0.6,0.2-1.1,0.6-1.3,1.3c-0.7,2.5-1.1,5-1.3,7.6c-0.1,1.6-0.2,3.1-0.3,4.7
			c-1.3,0-2.6,0.1-3.9,0.2c-2.6,0.2-5.1,0.6-7.6,1.3c-1,0.3-1.5,1.3-1.2,2.2c0.2,0.6,0.6,1.1,1.2,1.2c2.5,0.7,5,1.1,7.6,1.3
			c1.3,0.1,2.7,0.2,4,0.2c0.1,1.3,0.2,2.6,0.3,3.9c0.3,2.6,0.7,5.1,1.4,7.6c0.2,0.8,1,1.2,1.8,1c0.5-0.1,0.9-0.5,1-1
			c0.7-2.5,1.2-5,1.4-7.6c0.1-1.3,0.3-2.6,0.3-3.9c1.6-0.1,3.2-0.2,4.8-0.4c2.6-0.3,5.1-0.7,7.6-1.4c0.5-0.1,0.9-0.5,1-1
			C771.7,695.5,771.2,694.6,770.5,694.4z" style="fill:#FDB813;"/>
		<path d="M186.2,183.4c-2.9-1-5.9-1.7-9-2.2c-1.5-0.2-3-0.4-4.6-0.5c-0.1-1.6-0.2-3.1-0.4-4.7c-0.3-3.1-1-6.1-1.9-9
			c-0.3-0.8-0.9-1.4-1.7-1.7c-1.4-0.5-3,0.2-3.5,1.7c-1,2.9-1.6,5.9-1.9,9c-0.2,1.5-0.3,3.1-0.4,4.6c-1.2,0.1-2.4,0.2-3.6,0.3
			c-3.1,0.3-6.1,1-9,1.9c-1.4,0.5-2.2,2.1-1.7,3.5c0.3,0.8,0.9,1.4,1.7,1.7c2.9,1,5.9,1.6,9,1.9c1.3,0.1,2.5,0.2,3.8,0.3
			c0.1,1.2,0.2,2.4,0.4,3.6c0.4,3.1,1.1,6.1,2.2,9c0.2,0.6,0.7,1.1,1.3,1.3c1.2,0.4,2.4-0.2,2.9-1.3c0,0,0,0,0,0
			c1-2.9,1.8-5.9,2.2-9c0.2-1.2,0.3-2.5,0.4-3.7c1.6-0.1,3.2-0.3,4.8-0.5c3.1-0.4,6.1-1.1,9-2.2c1.2-0.4,1.8-1.7,1.3-2.9
			C187.4,184.1,186.9,183.6,186.2,183.4L186.2,183.4z" style="fill:#FDB813;"/>
		<path d="M304.2,60.3c-2.9-1-5.9-1.8-9-2.2c-1.5-0.2-3-0.4-4.6-0.5c-0.1-1.6-0.2-3.1-0.4-4.7c-0.3-3.1-1-6.1-1.9-9
			c-0.3-0.8-0.9-1.4-1.7-1.7c-1.4-0.5-3,0.2-3.5,1.7c-1,2.9-1.6,5.9-1.9,9c-0.2,1.5-0.3,3.1-0.4,4.6c-1.2,0.1-2.4,0.2-3.6,0.3
			c-3.1,0.3-6.1,1-9,1.9c-1.4,0.5-2.2,2.1-1.7,3.5c0.3,0.8,0.9,1.4,1.7,1.7c2.9,1,5.9,1.6,9,1.9c1.3,0.1,2.5,0.2,3.8,0.3
			c0.1,1.2,0.2,2.4,0.4,3.6c0.4,3.1,1.1,6.1,2.2,9c0.4,1.2,1.7,1.8,2.9,1.3c0.6-0.2,1.1-0.7,1.3-1.3c1-2.9,1.8-5.9,2.2-9
			c0.2-1.2,0.3-2.5,0.4-3.7c1.6-0.1,3.2-0.3,4.8-0.5c3.1-0.4,6.1-1.1,9-2.2c1.2-0.4,1.8-1.7,1.3-2.9C305.2,61,304.8,60.5,304.2,60.3
			L304.2,60.3z" style="fill:#FDB813;"/>
		<path d="M798.5,486.6c-2.9-1-5.9-1.8-9-2.2c-1.5-0.2-3-0.4-4.6-0.5c-0.1-1.6-0.2-3.1-0.4-4.7c-0.3-3.1-1-6.1-1.9-9
			c-0.5-1.4-2.1-2.2-3.5-1.7c-0.8,0.3-1.4,0.9-1.7,1.7c-1,2.9-1.6,5.9-1.9,9c-0.2,1.5-0.3,3.1-0.4,4.6c-1.2,0.1-2.4,0.2-3.6,0.3
			c-3.1,0.3-6.1,1-9,1.9c-0.8,0.3-1.4,0.9-1.7,1.7c-0.5,1.4,0.2,3,1.7,3.5c2.9,1,5.9,1.6,9,1.9c1.3,0.1,2.5,0.2,3.8,0.3
			c0.1,1.2,0.2,2.4,0.4,3.6c0.4,3.1,1.1,6.1,2.2,9c0.2,0.6,0.7,1.1,1.3,1.3c1.2,0.4,2.5-0.2,2.9-1.3c0,0,0,0,0,0
			c1-2.9,1.8-5.9,2.2-9c0.2-1.2,0.3-2.5,0.4-3.7c1.6-0.1,3.2-0.3,4.8-0.5c3.1-0.4,6.1-1.1,9-2.2c0.6-0.2,1.1-0.7,1.3-1.3
			C800.3,488.3,799.7,487,798.5,486.6z" style="fill:#FDB813;"/>
		<path d="M43.1,261.7c0.8-0.3,1.2-1.2,0.8-2c-0.2-0.4-0.5-0.7-0.8-0.8c-1.8-0.7-3.7-1.2-5.6-1.4
			c-0.9-0.1-1.8-0.2-2.7-0.3c0-0.9-0.1-1.8-0.2-2.8c-0.2-1.9-0.6-3.8-1.3-5.6c-0.4-1-1.4-1.5-2.4-1.1c-0.5,0.2-0.9,0.6-1.1,1.1
			c-0.7,1.8-1.1,3.7-1.3,5.6c-0.1,0.9-0.2,1.8-0.2,2.7c-0.7,0-1.4,0.1-2,0.2c-1.9,0.2-3.8,0.6-5.6,1.3c-1,0.4-1.5,1.4-1.1,2.4
			c0.2,0.5,0.6,0.9,1.1,1.1c1.8,0.6,3.7,1.1,5.6,1.3c0.7,0.1,1.5,0.1,2.2,0.2c0.1,0.7,0.1,1.4,0.3,2.1c0.3,1.9,0.8,3.8,1.4,5.6
			c0.2,0.4,0.5,0.7,0.8,0.8c0.8,0.3,1.6-0.1,2-0.8c0.7-1.8,1.2-3.7,1.4-5.6c0.1-0.7,0.2-1.4,0.3-2.1c0.9-0.1,1.9-0.2,2.8-0.3
			C39.3,262.9,41.2,262.4,43.1,261.7z" style="fill:#FDB813;"/>
		<path d="M691.9,110.4c1.8,0.7,3.7,1.1,5.6,1.3c0.7,0.1,1.5,0.1,2.2,0.2c0.1,0.7,0.1,1.4,0.3,2.1
			c0.3,1.9,0.8,3.8,1.4,5.6c0.3,0.8,1.2,1.1,2,0.8c0.4-0.2,0.7-0.5,0.8-0.8c0.7-1.8,1.2-3.7,1.4-5.6c0.1-0.7,0.2-1.4,0.3-2.1
			c0.9-0.1,1.9-0.2,2.8-0.3c1.9-0.3,3.8-0.8,5.6-1.4c0.8-0.3,1.2-1.2,0.9-2c-0.2-0.4-0.5-0.7-0.9-0.9c-1.8-0.7-3.7-1.2-5.6-1.4
			c-0.9-0.1-1.8-0.2-2.7-0.3c0-0.9-0.1-1.8-0.2-2.8c-0.2-1.9-0.6-3.8-1.3-5.6c-0.2-0.5-0.6-0.9-1.1-1.1c-1-0.4-2,0.1-2.4,1.1
			c0,0,0,0,0,0c-0.7,1.8-1.1,3.7-1.3,5.6c-0.1,0.9-0.2,1.8-0.2,2.7c-0.7,0-1.4,0.1-2,0.2c-1.9,0.2-3.8,0.6-5.6,1.3
			c-0.5,0.2-0.9,0.6-1.1,1.1C690.4,109,690.9,110.1,691.9,110.4C691.9,110.4,691.9,110.4,691.9,110.4z" style="fill:#FDB813;"/>
		<path d="M747.4,561c1.8,0.7,3.7,1.1,5.6,1.3c0.7,0.1,1.5,0.1,2.2,0.2c0.1,0.7,0.1,1.4,0.2,2.1
			c0.3,1.9,0.8,3.8,1.4,5.6c0.3,0.8,1.2,1.1,2,0.8c0.4-0.2,0.7-0.5,0.8-0.8c0.7-1.8,1.2-3.7,1.4-5.6c0.1-0.7,0.2-1.4,0.3-2.1
			c0.9-0.1,1.9-0.2,2.8-0.3c1.9-0.3,3.8-0.8,5.6-1.4c0.4-0.2,0.7-0.5,0.8-0.8c0.3-0.8-0.1-1.6-0.8-2c-1.8-0.7-3.7-1.2-5.6-1.4
			c-0.9-0.1-1.8-0.2-2.7-0.3c0-0.9-0.1-1.8-0.2-2.8c-0.2-1.9-0.6-3.8-1.3-5.6c-0.4-1-1.4-1.4-2.4-1.1c-0.5,0.2-0.9,0.6-1.1,1.1
			c-0.7,1.8-1.1,3.7-1.3,5.6c-0.1,0.9-0.2,1.8-0.2,2.7c-0.7,0-1.4,0.1-2,0.2c-1.9,0.2-3.8,0.6-5.6,1.3c-1,0.4-1.4,1.4-1.1,2.4
			C746.6,560.5,746.9,560.8,747.4,561L747.4,561z" style="fill:#FDB813;"/>
		<path d="M473.4,96.3c-1.8-0.7-3.7-1.2-5.6-1.4c-0.9-0.1-1.8-0.2-2.7-0.3c0-0.9-0.1-1.8-0.2-2.8
			c-0.2-1.9-0.6-3.8-1.3-5.6c-0.4-1-1.4-1.4-2.4-1.1c-0.5,0.2-0.9,0.6-1.1,1.1c-0.7,1.8-1.1,3.7-1.3,5.6c-0.1,0.9-0.2,1.8-0.2,2.7
			c-0.7,0-1.4,0.1-2,0.2c-1.9,0.2-3.8,0.6-5.6,1.3c-1,0.4-1.4,1.4-1.1,2.4c0.2,0.5,0.6,0.9,1.1,1.1c1.8,0.7,3.7,1.1,5.6,1.3
			c0.7,0.1,1.5,0.1,2.2,0.2c0.1,0.7,0.1,1.4,0.2,2.1c0.3,1.9,0.8,3.8,1.4,5.6c0.3,0.8,1.2,1.1,2,0.8c0.4-0.2,0.7-0.5,0.8-0.8
			c0.7-1.8,1.2-3.7,1.4-5.6c0.1-0.7,0.2-1.4,0.3-2.1c0.9-0.1,1.9-0.2,2.8-0.3c1.9-0.3,3.8-0.8,5.6-1.4c0.4-0.2,0.7-0.5,0.8-0.8
			C474.6,97.5,474.2,96.6,473.4,96.3C473.5,96.3,473.4,96.3,473.4,96.3z" style="fill:#FDB813;"/>
		<path d="M75.9,394c-2.9-1-5.9-1.8-9-2.2c-1.5-0.2-3-0.4-4.6-0.5c-0.1-1.6-0.2-3.1-0.4-4.7c-0.3-3-1-6-2-8.9
			c-0.5-1.4-2.1-2.2-3.5-1.7c-0.8,0.3-1.4,0.9-1.7,1.7c-1,2.9-1.6,5.9-1.9,9c-0.2,1.6-0.3,3.1-0.4,4.6c-1.2,0.1-2.4,0.2-3.6,0.3
			c-3.1,0.3-6.1,1-9,1.9c-1.4,0.5-2.2,2.1-1.7,3.5c0.3,0.8,0.9,1.4,1.7,1.7c2.9,1,5.9,1.6,9,1.9c1.3,0.1,2.5,0.2,3.8,0.3
			c0.1,1.2,0.2,2.4,0.4,3.6c0.4,3.1,1.1,6.1,2.2,9c0.4,1.2,1.7,1.8,2.9,1.3c0.6-0.2,1.1-0.7,1.3-1.3c1-2.9,1.8-6,2.2-9
			c0.2-1.2,0.3-2.5,0.4-3.7c1.6-0.1,3.2-0.3,4.8-0.5c3.1-0.4,6.1-1.1,9-2.2c1.2-0.4,1.8-1.7,1.3-2.9C77,394.7,76.5,394.2,75.9,394
			L75.9,394z" style="fill:#FDB813;"/>
		<path d="M727.8,283.6c-2.9-1-5.9-1.8-9-2.2c-1.5-0.2-3-0.4-4.6-0.5c-0.1-1.6-0.2-3.1-0.4-4.7c-0.3-3.1-1-6.1-1.9-9
			c-0.5-1.4-2.1-2.2-3.5-1.7c-0.8,0.3-1.4,0.9-1.7,1.7c-1,2.9-1.6,5.9-1.9,9c-0.2,1.5-0.3,3.1-0.4,4.6c-1.2,0.1-2.4,0.2-3.6,0.3
			c-3.1,0.3-6.1,1-9,2c-0.8,0.3-1.4,0.9-1.7,1.7c-0.5,1.4,0.2,3,1.7,3.5c2.9,1,5.9,1.6,9,1.9c1.3,0.1,2.5,0.2,3.8,0.3
			c0.1,1.2,0.2,2.4,0.4,3.6c0.4,3.1,1.1,6.1,2.2,9c0.4,1.2,1.7,1.8,2.9,1.3c0.6-0.2,1.1-0.7,1.3-1.3c1-2.9,1.8-5.9,2.2-9
			c0.2-1.2,0.3-2.5,0.4-3.7c1.6-0.1,3.2-0.3,4.8-0.5c3.1-0.4,6.1-1.1,9-2.2c1.2-0.4,1.8-1.7,1.3-2.9
			C728.9,284.3,728.4,283.9,727.8,283.6L727.8,283.6z" style="fill:#FDB813;"/>
		<path d="M588.8,139.6c-2.9-1-5.9-1.8-9-2.2c-1.5-0.2-3-0.4-4.6-0.5c-0.1-1.6-0.2-3.1-0.4-4.7c-0.3-3.1-1-6.1-1.9-9
			c-0.5-1.4-2.1-2.2-3.5-1.7c-0.8,0.3-1.4,0.9-1.7,1.7c-1,2.9-1.6,6-1.9,9c-0.2,1.5-0.3,3.1-0.4,4.6c-1.2,0.1-2.4,0.2-3.6,0.3
			c-3.1,0.3-6.1,1-9,1.9c-0.8,0.3-1.4,0.9-1.7,1.7c-0.5,1.4,0.2,3,1.7,3.5c2.9,1,5.9,1.6,9,1.9c1.3,0.1,2.5,0.2,3.8,0.3
			c0.1,1.2,0.2,2.4,0.4,3.6c0.4,3.1,1.1,6.1,2.2,9c0.4,1.2,1.7,1.8,2.9,1.3c0.6-0.2,1.1-0.7,1.3-1.3c1-2.9,1.8-5.9,2.2-9
			c0.2-1.2,0.3-2.5,0.4-3.7c1.6-0.1,3.2-0.3,4.8-0.5c3.1-0.4,6.1-1.1,9-2.2c1.2-0.4,1.8-1.7,1.3-2.9
			C589.9,140.3,589.4,139.9,588.8,139.6L588.8,139.6z" style="fill:#FDB813;"/>
		<path d="M679.5,585.8c-2.5-0.7-5-1.2-7.6-1.4c-1.6-0.2-3.1-0.3-4.7-0.4c0-1.6-0.1-3.2-0.3-4.8
			c-0.2-2.6-0.6-5.1-1.3-7.6c-0.3-1-1.3-1.5-2.2-1.3c-0.6,0.2-1.1,0.6-1.3,1.3c-0.7,2.5-1.1,5-1.3,7.6c-0.1,1.6-0.2,3.1-0.3,4.7
			c-1.3,0-2.6,0.1-3.9,0.2c-2.6,0.2-5.1,0.6-7.6,1.3c-1,0.3-1.5,1.3-1.3,2.2c0.2,0.6,0.6,1.1,1.3,1.3c2.5,0.7,5,1.1,7.6,1.3
			c1.3,0.1,2.7,0.2,4,0.2c0.1,1.3,0.2,2.6,0.3,3.9c0.3,2.6,0.7,5.1,1.4,7.6c0.1,0.5,0.5,0.8,1,1c0.8,0.2,1.6-0.2,1.8-1
			c0.7-2.5,1.2-5,1.5-7.6c0.1-1.3,0.3-2.6,0.3-3.9c1.6-0.1,3.2-0.2,4.8-0.4c2.6-0.3,5.1-0.7,7.6-1.4c0.8-0.2,1.2-1.1,1-1.8
			C680.4,586.3,680,585.9,679.5,585.8L679.5,585.8z" style="fill:#FFFFFF;"/>
		<path d="M133.7,564.7c-2.5-0.7-5-1.2-7.6-1.4c-1.6-0.2-3.1-0.3-4.7-0.4c0-1.6-0.1-3.2-0.3-4.8
			c-0.2-2.6-0.6-5.1-1.3-7.6c-0.3-1-1.3-1.5-2.2-1.3c-0.6,0.2-1.1,0.6-1.3,1.3c-0.7,2.5-1.1,5-1.3,7.6c-0.1,1.6-0.2,3.2-0.3,4.7
			c-1.3,0-2.6,0.1-3.9,0.2c-2.6,0.2-5.1,0.6-7.6,1.3c-1,0.3-1.5,1.3-1.3,2.2c0.2,0.6,0.6,1.1,1.3,1.3c2.5,0.6,5,1.1,7.6,1.3
			c1.3,0.1,2.7,0.2,4,0.2c0.1,1.3,0.2,2.6,0.3,3.9c0.3,2.6,0.7,5.1,1.4,7.6c0.1,0.5,0.5,0.8,1,1c0.8,0.2,1.6-0.2,1.8-1
			c0.7-2.5,1.2-5,1.4-7.6c0.1-1.3,0.3-2.6,0.3-3.9c1.6-0.1,3.2-0.2,4.8-0.4c2.6-0.3,5.1-0.7,7.6-1.4c0.8-0.2,1.2-1.1,1-1.8
			C134.6,565.2,134.2,564.8,133.7,564.7L133.7,564.7z" style="fill:#FFFFFF;"/>
		<path d="M191,390.4c-2.5-0.7-5-1.2-7.6-1.4c-1.6-0.2-3.1-0.3-4.7-0.4c0-1.6-0.1-3.2-0.3-4.8c-0.2-2.6-0.6-5.1-1.3-7.6
			c-0.2-0.6-0.7-1.1-1.3-1.3c-1-0.3-1.9,0.3-2.2,1.2c0,0,0,0,0,0c-0.7,2.5-1.1,5-1.3,7.6c-0.1,1.6-0.2,3.1-0.3,4.7
			c-1.3,0-2.6,0.1-3.9,0.2c-2.6,0.2-5.1,0.6-7.6,1.3c-1,0.3-1.5,1.3-1.3,2.2c0.2,0.6,0.6,1.1,1.3,1.3c2.5,0.7,5,1.1,7.6,1.3
			c1.3,0.1,2.7,0.2,4,0.2c0.1,1.3,0.2,2.6,0.3,3.9c0.3,2.6,0.7,5.1,1.4,7.6c0.1,0.5,0.5,0.9,1,1c0.8,0.2,1.6-0.2,1.8-1c0,0,0,0,0,0
			c0.7-2.5,1.2-5,1.4-7.6c0.1-1.3,0.3-2.6,0.3-3.9c1.6-0.1,3.2-0.2,4.8-0.4c2.6-0.3,5.1-0.7,7.6-1.4c0.8-0.2,1.2-1,1-1.8
			C191.9,390.9,191.5,390.5,191,390.4L191,390.4z" style="fill:#FFFFFF;"/>
		<path d="M494.2,188.2c-2.5-0.7-5-1.2-7.6-1.4c-1.6-0.2-3.1-0.3-4.7-0.4c0-1.6-0.1-3.2-0.3-4.8
			c-0.2-2.6-0.6-5.1-1.3-7.6c-0.3-1-1.3-1.5-2.2-1.2c-0.6,0.2-1.1,0.6-1.2,1.2c-0.7,2.5-1.1,5-1.3,7.6c-0.1,1.6-0.2,3.1-0.3,4.7
			c-1.3,0-2.6,0.1-3.9,0.2c-2.6,0.2-5.1,0.6-7.6,1.3c-1,0.3-1.5,1.3-1.2,2.2c0.2,0.6,0.6,1.1,1.2,1.2c2.5,0.7,5,1.1,7.6,1.3
			c1.3,0.1,2.7,0.2,4,0.2c0.1,1.3,0.2,2.6,0.3,3.9c0.3,2.6,0.8,5.1,1.4,7.6c0.2,0.8,1.1,1.2,1.8,1c0.5-0.1,0.8-0.5,1-1
			c0.7-2.5,1.2-5,1.4-7.6c0.1-1.3,0.2-2.6,0.3-3.9c1.6-0.1,3.2-0.2,4.8-0.4c2.6-0.3,5.1-0.8,7.6-1.4c0.8-0.2,1.2-1.1,1-1.8
			C495.1,188.8,494.7,188.4,494.2,188.2L494.2,188.2z" style="fill:#FFFFFF;"/>
		<path d="M601.5,654.7c-1.8-0.7-3.7-1.2-5.6-1.4c-0.9-0.1-1.8-0.2-2.7-0.3c0-0.9-0.1-1.8-0.2-2.8
			c-0.2-1.9-0.6-3.8-1.3-5.6c-0.4-1-1.4-1.5-2.4-1.1c-0.5,0.2-0.9,0.6-1.1,1.1c-0.7,1.8-1.1,3.7-1.3,5.6c-0.1,0.9-0.2,1.8-0.2,2.7
			c-0.7,0-1.4,0.1-2,0.2c-1.9,0.2-3.8,0.6-5.6,1.3c-1,0.4-1.5,1.4-1.1,2.4c0.2,0.5,0.6,0.9,1.1,1.1c1.8,0.6,3.7,1.1,5.6,1.3
			c0.7,0.1,1.5,0.1,2.2,0.2c0.1,0.7,0.1,1.4,0.3,2.1c0.3,1.9,0.8,3.8,1.4,5.6c0.3,0.8,1.2,1.2,2,0.8c0.4-0.2,0.7-0.5,0.8-0.8
			c0.7-1.8,1.2-3.7,1.4-5.6c0.1-0.7,0.2-1.4,0.3-2.1c0.9-0.1,1.9-0.2,2.8-0.3c1.9-0.3,3.8-0.8,5.6-1.4c0.8-0.3,1.2-1.2,0.8-2
			C602.2,655.2,601.8,654.9,601.5,654.7L601.5,654.7z" style="fill:#FFFFFF;"/>
		<path d="M163.5,714.5c-1.8-0.7-3.7-1.2-5.6-1.4c-0.9-0.1-1.8-0.2-2.7-0.3c0-0.9-0.1-1.8-0.2-2.8
			c-0.2-1.9-0.6-3.8-1.3-5.6c-0.4-1-1.4-1.4-2.4-1.1c-0.5,0.2-0.9,0.6-1.1,1.1c-0.7,1.8-1.1,3.7-1.3,5.6c-0.1,0.9-0.2,1.8-0.2,2.7
			c-0.7,0-1.4,0.1-2,0.2c-1.9,0.2-3.8,0.6-5.6,1.3c-1,0.4-1.5,1.4-1.1,2.4c0.2,0.5,0.6,0.9,1.1,1.1c1.8,0.6,3.7,1.1,5.6,1.3
			c0.7,0.1,1.5,0.1,2.2,0.2c0.1,0.7,0.1,1.4,0.3,2.1c0.3,1.9,0.8,3.8,1.4,5.6c0.3,0.8,1.2,1.2,2,0.8c0.4-0.2,0.7-0.5,0.8-0.8
			c0.7-1.8,1.2-3.7,1.4-5.6c0.1-0.7,0.2-1.4,0.3-2.1c0.9-0.1,1.9-0.2,2.8-0.3c1.9-0.3,3.8-0.8,5.6-1.4c0.8-0.3,1.2-1.2,0.9-2
			C164.2,715,163.9,714.7,163.5,714.5L163.5,714.5z" style="fill:#FFFFFF;"/>
		<path d="M601.7,400.2c1.8,0.7,3.7,1.1,5.6,1.3c0.7,0.1,1.5,0.1,2.2,0.2c0.1,0.7,0.1,1.4,0.2,2.1
			c0.3,1.9,0.8,3.8,1.4,5.6c0.3,0.8,1.2,1.2,2,0.9c0.4-0.2,0.7-0.5,0.9-0.9c0.7-1.8,1.2-3.7,1.4-5.6c0.1-0.7,0.2-1.4,0.3-2.1
			c0.9-0.1,1.9-0.2,2.8-0.3c1.9-0.3,3.8-0.8,5.6-1.4c0.8-0.3,1.2-1.2,0.9-2c-0.2-0.4-0.5-0.7-0.9-0.9c-1.8-0.7-3.7-1.2-5.6-1.4
			c-0.9-0.1-1.8-0.2-2.7-0.3c0-0.9-0.1-1.8-0.2-2.8c-0.2-1.9-0.6-3.8-1.3-5.6c-0.4-1-1.4-1.4-2.4-1.1c-0.5,0.2-0.9,0.6-1.1,1.1
			c-0.7,1.8-1.1,3.7-1.3,5.6c-0.1,0.9-0.2,1.8-0.2,2.7c-0.7,0-1.4,0.1-2,0.2c-1.9,0.2-3.8,0.7-5.6,1.3c-0.5,0.2-0.9,0.6-1.1,1.1
			C600.3,398.7,600.8,399.8,601.7,400.2z" style="fill:#FFFFFF;"/>
		<path d="M642.8,727.5c-2.9-1-5.9-1.7-9-2.2c-1.5-0.2-3-0.4-4.6-0.5c-0.1-1.6-0.2-3.1-0.4-4.7c-0.3-3.1-1-6.1-1.9-9
			c-0.5-1.4-2.1-2.2-3.6-1.7c-0.8,0.3-1.4,0.9-1.7,1.7c-1,2.9-1.6,5.9-1.9,9c-0.2,1.5-0.3,3.1-0.4,4.6c-1.2,0.1-2.4,0.2-3.6,0.3
			c-3.1,0.3-6.1,1-9,1.9c-1.4,0.5-2.2,2.1-1.7,3.5c0.3,0.8,0.9,1.4,1.7,1.7c2.9,1,5.9,1.6,9,1.9c1.3,0.1,2.5,0.2,3.8,0.3
			c0.1,1.2,0.2,2.4,0.4,3.6c0.4,3.1,1.1,6.1,2.2,9c0.4,1.2,1.7,1.8,2.9,1.3c0.6-0.2,1.1-0.7,1.3-1.3c1-2.9,1.8-5.9,2.2-9
			c0.2-1.2,0.3-2.5,0.4-3.7c1.6-0.1,3.2-0.3,4.8-0.5c3.1-0.4,6.1-1.1,9-2.1c1.2-0.4,1.8-1.7,1.3-2.9
			C643.9,728.2,643.4,727.7,642.8,727.5L642.8,727.5z" style="fill:#FFFFFF;"/>
		<path d="M238.5,335c-2.9-1-5.9-1.8-9-2.2c-1.5-0.2-3-0.4-4.6-0.5c-0.1-1.6-0.2-3.1-0.4-4.7c-0.3-3.1-1-6.1-1.9-9
			c-0.5-1.4-2.1-2.2-3.5-1.7c-0.8,0.3-1.4,0.9-1.7,1.7c-1,2.9-1.6,5.9-1.9,9c-0.2,1.6-0.3,3.1-0.4,4.6c-1.2,0.1-2.4,0.2-3.6,0.3
			c-3.1,0.3-6.1,1-9,2c-1.4,0.5-2.2,2.1-1.7,3.5c0.3,0.8,0.9,1.4,1.7,1.7c2.9,1,5.9,1.6,9,1.9c1.3,0.1,2.5,0.2,3.8,0.3
			c0.1,1.2,0.2,2.4,0.4,3.6c0.4,3.1,1.1,6.1,2.2,9c0.4,1.2,1.7,1.8,2.9,1.3c0.6-0.2,1.1-0.7,1.3-1.3c1-2.9,1.8-5.9,2.2-9
			c0.2-1.2,0.3-2.5,0.4-3.7c1.6-0.1,3.2-0.3,4.8-0.5c3.1-0.4,6.1-1.1,9-2.2c0.6-0.2,1.1-0.7,1.3-1.3
			C240.2,336.8,239.7,335.5,238.5,335C238.5,335,238.5,335,238.5,335z" style="fill:#FFFFFF;"/>
	</g>
	<g>
		<path d="M555.8,247.2c-7.6-6-13.9-10.5-21.1-1.4c-2.5,3.2-3.4,5.9-3.2,8.3c-2.4,0.3-4.9,1.8-7.5,5.1
			c-2.8,3.6-3.6,6.6-3.1,9.2c-2.2,0.5-4.5,2-6.8,5c-2.5,3.2-3.4,5.9-3.2,8.3c-2.4,0.3-4.9,1.8-7.5,5.1c-7.2,9.1-1.3,14.2,6.2,20.2
			c7.5,6,14.1,10.2,21.1,1.4c2.5-3.2,3.4-5.9,3.1-8.4c2.5-0.3,5-1.7,7.6-5c2.8-3.6,3.6-6.6,3-9.3c2.3-0.4,4.6-1.9,6.9-4.9
			c2.5-3.2,3.4-5.9,3.1-8.4c2.5-0.3,5-1.7,7.6-5C569,258.6,563.4,253.2,555.8,247.2z" style="fill:#10294C;"/>
		<path d="M514.7,281.5c2.1-0.8,4.3-1.2,6.5-1.4c2.2-0.2,4.4-0.2,6.6,0c2.2,0.2,4.4,0.6,6.5,1.2
			c2.2,0.6,4.2,1.5,6.2,2.6c0.5,0.3,0.7,1,0.4,1.5c-0.2,0.3-0.6,0.5-1,0.5l0,0c-2.2-0.1-4.2-0.3-6.3-0.4s-4.1-0.3-6.2-0.5l-6.2-0.4
			c-2.1-0.1-4.1-0.3-6.2-0.6H515c-0.7-0.1-1.2-0.8-1.1-1.5C514,282.1,514.3,281.7,514.7,281.5L514.7,281.5z" style="fill:#F04E23;"/>
		<path d="M525.4,267.2c2.1-0.8,4.3-1.2,6.5-1.4c2.2-0.2,4.4-0.2,6.6,0c2.2,0.2,4.4,0.6,6.5,1.2
			c2.2,0.6,4.2,1.5,6.2,2.6c0.5,0.3,0.7,1,0.4,1.5c-0.2,0.3-0.6,0.5-1,0.5h0c-2.2-0.1-4.2-0.3-6.3-0.4c-2.1-0.1-4.1-0.3-6.2-0.4
			l-6.2-0.4c-2.1-0.1-4.1-0.3-6.2-0.6h-0.1c-0.7-0.1-1.2-0.8-1.1-1.5C524.6,267.8,524.9,267.4,525.4,267.2L525.4,267.2z" style="fill:#F04E23;"/>
		<path d="M536.1,253c2.1-0.8,4.3-1.2,6.5-1.4c2.2-0.2,4.4-0.2,6.6,0c2.2,0.2,4.4,0.6,6.5,1.2c2.2,0.6,4.2,1.5,6.2,2.6
			c0.5,0.3,0.7,1,0.4,1.5c-0.2,0.3-0.6,0.5-1,0.5h-0.1c-2.2-0.1-4.2-0.3-6.3-0.4c-2.1-0.1-4.1-0.3-6.2-0.4l-6.2-0.4
			c-2.1-0.1-4.1-0.3-6.2-0.5h-0.1c-0.7-0.1-1.2-0.8-1.1-1.5C535.3,253.6,535.6,253.2,536.1,253L536.1,253z" style="fill:#F04E23;"/>
		<path d="M504.9,296.6c2.1-0.8,4.3-1.2,6.5-1.4c2.2-0.2,4.4-0.2,6.6,0c2.2,0.2,4.4,0.6,6.5,1.2
			c2.2,0.6,4.2,1.5,6.2,2.6c0.5,0.3,0.7,1,0.4,1.5c-0.2,0.3-0.6,0.5-1,0.5h-0.1c-2.2-0.1-4.2-0.3-6.3-0.4c-2.1-0.1-4.1-0.3-6.2-0.4
			l-6.2-0.4c-2.1-0.1-4.1-0.3-6.2-0.5h-0.1c-0.7-0.1-1.2-0.8-1.1-1.5C504.1,297.2,504.4,296.8,504.9,296.6L504.9,296.6z" style="fill:#F04E23;"/>
		<path d="M276.3,695.6c-9,11.4-64.2,27-72,20.7c-7.8-6.3-8-63.8,0-74.5l259.5-347.5l72,53.8
			C535.8,348.1,285.4,684.2,276.3,695.6z" style="fill:#10294C;"/>
		<path d="M516.2,354.1c-8,0.4-15.9,1.2-23.8,2.1c-6.8,0.8-13.6,1.7-20.4,2.6c-1.1-6.8-2.2-13.6-3.5-20.3
			c-1.5-7.8-3-15.6-4.9-23.4c-0.2-0.8-1-1.2-1.7-1c-0.6,0.2-1.1,0.8-1,1.4c0.4,8,1.2,15.9,2.1,23.8c0.7,6.8,1.7,13.6,2.6,20.4
			l-8.6,1.3c-3.9,0.7-7.9,1.3-11.8,2c-7.8,1.4-15.7,2.9-23.4,4.8c-0.9,0.2-1.5,1.2-1.3,2.1c0.2,0.8,0.9,1.3,1.8,1.3
			c8-0.5,15.9-1.3,23.8-2.2c4-0.4,7.9-1,11.9-1.5l8.5-1.3l1.3,8.5c0.7,3.9,1.3,7.9,2,11.8c1.4,7.8,2.9,15.7,4.8,23.4
			c0.2,0.9,1.2,1.5,2.1,1.3c0.8-0.2,1.3-0.9,1.3-1.8c-0.5-8-1.3-15.9-2.2-23.8c-0.4-4-1-7.9-1.5-11.8l-1.3-8.6
			c6.8-1.1,13.5-2.2,20.3-3.5c7.8-1.5,15.6-3,23.4-4.9c0.8-0.2,1.2-1,1-1.7C517.4,354.5,516.9,354.1,516.2,354.1L516.2,354.1z" style="fill:#FDB813;"/>
		<path d="M307.8,633.8c-8,0.4-15.9,1.2-23.8,2.1c-6.8,0.7-13.6,1.7-20.4,2.6c-1.1-6.8-2.2-13.6-3.5-20.3
			c-1.5-7.8-3-15.6-4.9-23.4c-0.2-0.8-0.9-1.2-1.7-1c-0.7,0.2-1.1,0.8-1.1,1.5c0.4,8,1.2,15.9,2.1,23.8c0.7,6.8,1.7,13.6,2.6,20.4
			l-8.6,1.3c-3.9,0.7-7.9,1.3-11.8,2c-7.8,1.4-15.7,2.9-23.4,4.8c-0.9,0.2-1.5,1.2-1.3,2.1c0.2,0.8,0.9,1.3,1.8,1.3
			c8-0.5,15.9-1.3,23.8-2.2c4-0.4,7.9-1,11.8-1.5l8.6-1.2l1.3,8.6c0.7,3.9,1.3,7.9,2,11.8c1.4,7.8,2.9,15.7,4.8,23.4
			c0.2,0.9,1.2,1.5,2.1,1.3c0.8-0.2,1.3-0.9,1.3-1.8c-0.5-8-1.3-15.9-2.2-23.8c-0.4-4-1-7.9-1.5-11.8l-1.3-8.6
			c6.8-1.1,13.5-2.2,20.3-3.5c7.8-1.5,15.7-3,23.4-4.9c0.8-0.2,1.2-1,1-1.7C309.1,634.2,308.5,633.8,307.8,633.8L307.8,633.8z" style="fill:#FDB813;"/>
		<path d="M431,261.9c1,0.3,2,0.5,2.9,0.8s1.9,0.5,2.8,0.8c1.9,0.6,3.7,1.2,5.5,1.8c3.6,1.3,7.2,2.6,10.8,4.1
			c7.1,2.9,14.1,6.2,20.8,9.8c13.6,7.2,26.6,15.4,38.8,24.6c12.3,9.2,23.9,19.5,34.5,30.6c5.3,5.6,10.3,11.4,15.1,17.5
			c1.2,1.5,2.4,3,3.5,4.6s2.3,3.1,3.3,4.7c1.1,1.6,2.1,3.2,3.2,4.9l1.5,2.5c0.5,0.8,1,1.7,1.5,2.6c1.4,2.6,0.5,5.8-2.1,7.3
			c-1.9,1-4.3,0.8-5.9-0.5l-0.2-0.2l-17.1-13.9c-5.7-4.6-11.4-9.2-17.2-13.7c-11.5-9-23.1-17.8-34.8-26.3s-23.8-16.8-35.8-25.1
			l-18.2-12.4l-9.1-6.2l-4.6-3.1l-2.2-1.6c-0.7-0.5-1.5-1.1-2.2-1.6l-0.4-0.3c-2.9-2.2-3.4-6.4-1.2-9.3
			C425.9,262.3,428.5,261.4,431,261.9L431,261.9z" style="fill:#F04E23;"/>
		<path d="M483.4,527.4c0.4-1.3,0.8-2.6,1.2-4c0.4-1.3,0.7-2.7,1.1-4.1c0.7-2.7,1.3-5.4,1.9-8.2
			c1.2-5.5,2.1-11,2.8-16.6c0.7-5.6,1.3-11.1,1.7-16.7c0.4-5.6,0.6-11.2,0.5-16.8V459v-2.1c0-1.4,0-2.8-0.1-4.2
			c-0.1-2.8-0.3-5.6-0.5-8.4c-0.2-2.8-0.4-5.6-0.7-8.4c-0.1-1.4-0.3-2.8-0.5-4.1s-0.3-2.8-0.5-4.1c-1.6-11.2-3.7-22.2-6.4-33.2l0,0
			c-0.2-0.8,0.3-1.5,1.1-1.7c0.7-0.2,1.4,0.2,1.6,0.9c4.1,10.7,7.3,21.8,9.4,33.1c2.1,11.3,3.2,22.8,3.4,34.4
			c0.1,11.5-0.8,23.1-2.7,34.4c-1,5.7-2.3,11.3-3.8,16.9c-1.5,5.6-3.5,11.1-5.9,16.3c-0.4,0.9-1.5,1.2-2.3,0.8
			c-0.8-0.4-1.2-1.3-0.9-2.1L483.4,527.4z" style="fill:#10294C;"/>
		<g id="_Groupe_">
			<path d="M535,612.4c-2-5.6-11.5-29.4-37.4-39.9c-0.9-0.4-1.9-0.8-2.9-1.1c-12.3,13.4-21.7,24.7-26.6,35.5
				c-1.1,2.5-2,5-2.7,7.7l0,0c-0.3,1.7-0.6,3.3-0.8,5c-0.1,1.5-0.2,2.9-0.1,4.4c0.1,2,0.3,3.9,0.8,5.8c0.6,2.7,1.5,5.3,2.7,7.9
				c0.8,1.8,1.8,3.5,2.8,5.1c16.3,24.7,53.5,14,49.1-20.5c2.8-1.6,5.4-3.2,8-5C530.4,615.7,532.7,614.1,535,612.4z" style="fill:#FFFFFF;"/>
			<path d="M504.6,562.6c-0.4-0.2-0.9-0.3-1.3-0.4c-3,3.2-5.8,6.2-8.5,9.2c1,0.3,1.9,0.7,2.9,1.1
				c25.8,10.6,35.4,34.3,37.4,39.9c1.6-1.2,3.2-2.4,4.8-3.7c1.8-1.5,3.6-3,5.4-4.5C545.1,603.6,535.5,573.4,504.6,562.6z" style="fill:#10294C;"/>
			<path d="M589.2,533.4c-0.8-3.8-1.6-7.6-2.3-11.5c-1.2-5.7-2.9-11.3-5-16.7c-3.8-9.6-8.3-19-13.6-28
				c-4.7-8.2-9.4-16.3-14.5-24.2c-4.5-7-9.1-13.9-14.1-20.6c-2.5-3.6-5.5-6.9-8.7-9.9c-11.6-10.1-27.7-18-46.5-23.8
				c-0.8-0.3-1.6-0.5-2.4-0.7c-0.6,1.9-1.1,3.8-1.6,5.6c-14.1,51.9-6.2,93.9-0.8,113.1c1.7,2.1,3.5,4.1,5.3,6.1c2.8,3,5.6,6,8.6,8.8
				c6.8,6.5,13.8,12.7,22.2,17.1c-4.3,4.7-8.4,9.1-12.3,13.3c0.5,0.1,0.9,0.3,1.3,0.4c30.8,10.8,40.4,41,40.6,41.6
				c4.7-4,9.3-8.3,13.7-12.7c4.7-4.8,9.3-9.6,13.5-14.8c5-6.2,10.1-12.6,13.7-19.8C589.8,549.6,590.9,541.3,589.2,533.4z" style="fill:#F04E23;"/>
			<path d="M479.6,516.8c1.7,2.1,3.5,4.1,5.3,6.1c-0.8,2.5-1.4,4.1-1.7,4.8C481.8,524.1,480.6,520.5,479.6,516.8z" style="fill:#10294C;"/>
			<path d="M483.2,394.5c0.5,1.4,0.9,2.9,1.3,4.3c-0.8-0.3-1.6-0.5-2.4-0.7C482.4,396.9,482.8,395.7,483.2,394.5z" style="fill:#10294C;"/>
			<path d="M478.6,719c0,0.1,0,0.2,0,0.3C478.7,719.2,478.6,719.1,478.6,719z" style="fill:#F04E23;"/>
			<path d="M474.8,715.3c0,0.1,0,0.2,0,0.3v0.1V715.3z" style="fill:#F04E23;"/>
			<path d="M474.8,715.3v0.4c-0.2,4.5-14.3,10-32.4,12.5c-17.9,2.5-33.4,1-35.1-3.1c0,0,0-0.1,0-0.1
				c-1-4.4-2-8.8-2.9-13.3c-1.3-6.4-2.6-12.8-3.9-19.2c5.9,2.9,20.3,3.5,36.9,1.3c16-2.2,29.5-6.5,34.7-10.7
				C473.2,693.8,474.1,704.5,474.8,715.3z" style="fill:#F04E23;"/>
			<path d="M466.7,607.5c0.5-0.2,1.1-0.4,1.5-0.6c-1.1,2.5-2,5-2.7,7.7C466,612.2,466.3,609.8,466.7,607.5z" style="fill:#FFFFFF;"/>
			<path d="M466.7,607.5c-0.4,2.3-0.8,4.7-1.2,7.1l0,0c-0.4,1.6-0.7,3.3-0.8,5c-0.1,1.5-0.2,2.9-0.1,4.4
				c-14.1,4.3-44.8,7.3-80.5,7.3c-38.1,0-70.6-3.4-83.1-8.2c0-2.7-0.3-5.4-0.9-8c-0.4-2.9-0.8-5.8-1.3-8.7
				c10.6,5.3,44.8,9.1,85.3,9.1C421.7,615.5,453.8,612.1,466.7,607.5z" style="fill:#10294C;"/>
			<path d="M465.6,614.6c-0.3,1.7-0.6,3.3-0.8,5C464.9,617.9,465.2,616.2,465.6,614.6z" style="fill:#FFFFFF;"/>
			<path d="M458.3,242.8c0.1,6-0.9,12-3,17.6c-3.2,8.7-9.1,16.1-16.7,21.3c-2.6,1.7-5.4,3.1-8.3,4.2
				c-0.8-11.6-2.5-21.8-5.5-28.8c0,0,0-0.1,0-0.1c-0.2-0.5-0.4-1.1-0.6-1.6c0.5-0.3,1.1-0.6,1.6-0.8c6.3-3.6,11.5-9,15-15.4l4.1,2.8
				l4.3-1l6.3,3.9L458.3,242.8z" style="fill:#FFFFFF;"/>
			<path d="M458.3,242.8l-2.9,2.2l-6.3-3.9l-4.3,1l-4.1-2.8c0.6-0.9,1.1-1.9,1.6-2.8l4.9-2.3l5,2.5l3.1-2.1
				c0,0,1.5,2.1,2.7,4.1C458.2,240,458.3,241.4,458.3,242.8z" style="fill:#10294C;"/>
			<path d="M424.9,257.1c3,7,4.7,17.2,5.5,28.8c-1.4,0.5-2.9,1-4.4,1.4c-4,1.1-8.3,1.5-12.4,1
				c-5.6-0.9-8.6-5.4-9.8-10.9c-1.3-6.1,0.4-12.5,6-15.3c0-0.2,1.9-0.8,2.1-0.8c0.8-0.3,1.6-0.8,2.4-1.1c1.9-0.8,3.8-1.8,5.8-2.6
				c1.4-0.7,2.8-1.4,4.2-2.1C424.4,255.9,424.6,256.5,424.9,257.1C424.9,257,424.9,257,424.9,257.1z" style="fill:#FFFFFF;"/>
			<ellipse cx="369.8" cy="290.5" rx="9.9" ry="17.1" style="fill:none;"/>
			<path d="M430.4,285.9c-1.4,0.5-2.9,1-4.4,1.4c-4,1.1-8.3,1.5-12.4,1c-5.6-0.9-8.6-5.4-9.8-10.9
				c-1.3-6.1,0.4-12.5,6-15.3c0-0.2,1.9-0.8,2.1-0.8c0.8-0.3,1.6-0.8,2.4-1.1c1.9-0.8,3.8-1.8,5.8-2.6c1.4-0.7,2.8-1.4,4.2-2.1
				c-4.9-11.6-14.1-21.4-25.8-27.8c-3.5-1.9-7.2-3.5-10.9-4.7l0,0c-39.9-10.2-42.9,53.6-41.9,85c0.3,9.7,0.9,16.4,1,16.7
				c0-0.5,0.2-12.5,22-12.5c29,0,26.3,44.9,26.3,64.8c8.7,1.3,17.4,1.8,26.2,1.3c1.9-0.1,3.9-0.3,5.8-0.5
				C426.8,377.7,433.2,324,430.4,285.9z" style="fill:#00ACDC;"/>
			<path d="M420.6,802.5l-1.7-0.3c0.8,3.5,1.8,7,2.7,10.3c35.6,7,86,2,86,2c1.1-3.3,1.8-6.8,2.1-10.3
				C500.3,805,454.4,808.5,420.6,802.5z" style="fill:#10294C;"/>
			<path d="M509.9,799.3c-0.4-7.9-24-23.3-32.7-27.4c0,0,1.6-20.7,1.7-39.7c-0.9,0.8-1.9,1.4-3,2
				c-6.2,3.5-17.7,6.8-31.1,8.7c-13.8,1.9-26.3,1.7-33.3-0.1l0,0c-1.6-0.3-3.1-1-4.4-1.9c2.2,14.3,6.4,39,11.9,61.3l1.7,0.3
				c33.8,6,79.8,2.6,89.2,1.7C510,802.6,510,800.9,509.9,799.3z" style="fill:#FFFFFF;"/>
			<path d="M411.4,742.2c0,0.2,0.1,0.4,0.1,0.6l0,0C411.4,742.6,411.4,742.4,411.4,742.2z" style="fill:#FFFFFF;"/>
			<path d="M478.7,719.3c0-0.1,0-0.2,0-0.3c0,0,0-0.1,0-0.1c-0.2-1.3-1.7-2.5-3.8-3.3v0.1c-0.2,4.5-14.3,10-32.4,12.5
				c-17.9,2.5-33.4,1-35.1-3.1l0,0c-1.7,1.3-2.3,2.6-2.1,3.9c0,0,0.6,4.6,1.8,12c1.4,0.9,2.9,1.5,4.4,1.9c0-0.2-0.1-0.4-0.1-0.6
				c0,0.2,0.1,0.4,0.1,0.6c7,1.8,19.5,2,33.3,0.1c13.5-1.8,24.9-5.2,31.1-8.7c1.1-0.6,2.1-1.3,3-2
				C478.9,727.7,478.9,723.3,478.7,719.3z" style="fill:#10294C;"/>
			<path d="M407.3,724.9c0,0.1,0,0.1,0,0.1l0,0C407.4,725,407.4,724.9,407.3,724.9z" style="fill:#F04E23;"/>
			<path d="M320.8,347c0,0-0.1-9.1,1-12.4c22.8,2.3,54.4,0,54.4,0s6.2,24.5-19.8,26.3c-14.3,0.9-28.6,0.2-42.8-2
				c-0.5-4.2-0.5-8.5,0-12.7C313.7,346.1,316.4,346.6,320.8,347z" style="fill:#FFFFFF;"/>
			<path d="M290.1,715.6L290.1,715.6c0.7-11,1.6-22,2.7-33c4.8,4.4,18.6,8.9,35.3,11.2c15.9,2.2,29.9,1.7,36.2-0.9
				c-1.2,6.3-2.5,12.6-3.8,18.9c-0.9,4.4-1.9,8.8-2.9,13.2l0,0c-0.4,1-1.1,1.7-2.1,2.1c-5,2.6-17.9,3.3-32.7,1.2
				C304.4,725.7,290.1,720.1,290.1,715.6z" style="fill:#F04E23;"/>
			<path d="M344.5,802.7l-0.8,0.1c-34.5,5.6-80.7,2-88.5,1.3c0.3,3.5,1,7,2.1,10.3c0,0,50.5,5,86-2
				c0.9-3.3,1.8-6.6,2.6-10C345.6,802.6,345.1,802.7,344.5,802.7z" style="fill:#10294C;"/>
			<path d="M346.1,222.1c-16.7,4.9-30.3,15.9-37.5,30.1c0,0,0,0,0,0.1c0,0.1-0.1,0.2-0.2,0.3
				c-4.5,8.4-6.7,20.3-7.3,31.7c-0.8,16.8,1.9,32.3,6.6,33c0.2,0,0.4,0.1,0.6,0.1c0,0,2.7-5.5,10.2-5.5c6.7,0,8.8,5.7,9.7,9.6
				c-0.2-2.9-0.5-7.6-0.6-13.6C327.2,284.4,329,242.5,346.1,222.1z" style="fill:#00ACDC;"/>
			<path d="M394.7,376.9c0-19.9,2.8-64.8-26.3-64.8c-21.8,0-22,11.9-22,12.5l0,0c0,0-6.1,3.1-17.8,0.1
				c-0.1-1.1-0.2-2.2-0.5-3.3l0,0c-0.9-3.9-3.3-9.7-10-9.7c-7.5,0-10.1,5.6-10.1,5.6c-0.1,0-0.3,0-0.4,0v14.8
				c4.6,1.3,9.3,2.1,14.1,2.5c22.8,2.3,54.4,0,54.4,0s6.2,24.5-19.8,26.3c-14.3,0.9-28.7,0.2-42.8-2c-3.5-0.5-5.5-1-5.5-1
				s1.2,12.9,7.9,24.7c0,0,1.2,1,5.7,2c0,1.3,0.1,2.6,0.1,3.9c0,0.6,0,1.2,0.1,1.8l0,0c0,0.8,0,1.5,0.1,2.3c0.1,1.7,0.2,3.5,0.3,5.2
				c9.4,3.6,27.8,6,48.9,6c3.4,0,6.6-0.1,9.9-0.2l3.2-0.1c15.4-0.8,28.3-2.9,35.7-5.7c0.2-3,0.3-6,0.5-9c0-0.6,0-1.2,0.1-1.8l0,0
				v-0.7c0.1-3,0.2-5.2,0.3-8.2C412.2,378.7,403.4,378.2,394.7,376.9z" style="fill:#F04E23;"/>
			<path d="M441.5,392.1c-0.8-1.2-1.9-2.2-3.1-3.1c-0.9-0.6-1.8-1.2-2.8-1.7c-4.6-0.3-9.6-0.6-15-0.9v0.7l0,0
				c0,0.6-0.1,1.2-0.1,1.8c-0.1,3-0.3,6-0.5,9c-7.4,2.8-20.3,4.9-35.7,5.7l-3.2,0.1c-3.2,0.1-6.5,0.2-9.9,0.2
				c-21.1,0-39.5-2.4-48.9-6c-0.1-1.7-0.2-3.4-0.3-5.2c0-0.8-0.1-1.5-0.1-2.3l0,0c0-0.6,0-1.2-0.1-1.8l0,0
				c-7.6,0.8-14.5,1.7-20.6,2.6c-0.8,1-1.4,2.1-1.6,3.4c-0.1,0.4-0.2,0.9-0.2,1.3c0,1.2,0.4,2.3,1.2,3.2
				c6.1,8.2,35.4,14.5,70.6,14.5h0.5c7.5,0,14.7-0.3,21.4-0.8c28.9-2.3,49.8-9,49.8-16.9C442.9,394.5,442.4,393.2,441.5,392.1z" style="fill:#10294C;"/>
			<path d="M308.4,252.5L308.4,252.5c-4.4,8.4-6.6,20.4-7.2,31.7c-1.1-0.7-2.3-1.4-3.3-2.2
				c-7.6-5.4-12.7-13.2-15.7-21.9c-2.9-8.9-3.1-18.5-0.4-27.5c1-3.8,2.6-7.3,4.7-10.6c1-1.4,2.9-1.8,4.4-0.9
				c1.3,0.8,1.7,2.4,2.1,3.8c2.7,8.5,6,17.1,11.9,24C305.9,250.2,307.1,251.4,308.4,252.5z" style="fill:#FFFFFF;"/>
			<path d="M299.8,628.9l0.5,0.1c-0.4,2-1,3.9-1.7,5.7C299.3,631.5,299.7,628.9,299.8,628.9z" style="fill:#FFFFFF;"/>
			<path d="M361.2,434.6c0-0.1,0-0.1,0.1-0.2L361.2,434.6z" style="fill:none;"/>
			<path d="M479.6,516.8c-5.4-19.2-13.2-61.2,0.8-113.1c0.5-1.9,1-3.7,1.6-5.6c0.4-1.2,0.7-2.4,1.1-3.6
				c0-0.1,0.1-0.3,0.1-0.5c0,0-13.7-4.2-47.7-6.7c1,0.5,1.9,1,2.8,1.7c1.2,0.8,2.2,1.9,3.1,3.1c0.9,1.1,1.4,2.4,1.5,3.8
				c0,7.9-20.9,14.6-49.8,16.9c-6.8,0.5-14,0.8-21.4,0.8h-0.5c-35.2,0-64.5-6.3-70.6-14.5c-0.7-0.9-1.1-2-1.2-3.2
				c0-0.4,0.1-0.9,0.2-1.3c0.2-1.2,0.8-2.4,1.6-3.4c-30,4.7-42.7,10.6-42.7,10.6c-0.7,2.3-1.4,4.6-2,6.8c-0.4,1.3-0.7,2.6-1,3.9
				c-17.4,70.3,20.2,115.7,20.2,115.7l0,0c0.2,0.1,4.6,2.3,15.5,3.2c0,0,2.5,38.9,7.6,74.9c10.6,5.3,44.8,9.1,85.3,9.1
				c37.6,0,69.7-3.3,82.6-8c4.9-30.8,7.6-58.9,9-76.3c6.2-0.8,7.6-3.2,7.6-3.2l-0.1-0.3C481.8,524.1,480.6,520.5,479.6,516.8z" style="fill:#00ACDC;"/>
			<path d="M474.5,679.1c0,0-1.8-27.1-3.7-36.4c-1.1-1.6-2-3.4-2.8-5.1c-1.2-2.5-2.1-5.2-2.7-7.9
				c-0.4-1.9-0.7-3.8-0.8-5.8c-14.1,4.3-44.8,7.3-80.5,7.3c-38.1,0-70.6-3.4-83.1-8.2c0,2-0.2,4-0.6,6c-0.4,2-1,3.9-1.7,5.7
				c-0.3,0.9-0.7,1.9-1.2,2.8c-0.9,2-2,3.9-3.2,5.8c-1.6,7.2-3.4,35.7-3.4,35.7c-0.1,1.1,0.5,2.3,1.8,3.5
				c4.8,4.4,18.6,8.9,35.3,11.2c15.9,2.2,29.9,1.7,36.2-0.9c2.1-0.8,3.3-1.9,3.5-3.2c0,0,2.6-13.2,3.3-21.4
				c7.6,0.4,15.3,0.3,22.9-0.5c0.4,4.8,3.9,22,3.9,22c0.2,1.1,1.1,2.1,2.8,2.9c5.9,2.9,20.3,3.5,36.9,1.3c16-2.2,29.5-6.5,34.7-10.7
				C473.9,681.7,474.7,680.4,474.5,679.1z" style="fill:#00ACDC;"/>
			<path d="M295.5,603.1c0.2,0.5,0.5,0.9,0.7,1.4C295.8,604.1,295.6,603.6,295.5,603.1z" style="fill:#FFFFFF;"/>
			<path d="M353.7,742.7l-0.3,0.1c-0.3,0.1-0.7,0.2-1,0.3c-6.8,1.6-18.3,1.7-31.1-0.1c-14.6-2-26.8-5.8-32.3-9.6
				c-1.2-0.7-2.1-1.7-2.8-2.9c0,19.4,1.7,41.4,1.7,41.4c-8.6,4.1-32.3,19.5-32.7,27.4c-0.1,1.7,0,3.3,0.1,5c7.8,0.7,54,4.3,88.5-1.3
				l0.8-0.1c0.5-0.1,1-0.2,1.6-0.3c5.6-22.6,9.9-47.8,12.1-62.1C356.9,741.6,355.4,742.4,353.7,742.7z" style="fill:#FFFFFF;"/>
			<path d="M300.1,615c-0.9-3.6-2.2-7.2-3.9-10.5c-0.4-0.4-0.6-0.9-0.7-1.4c-5.3-9.8-14-20.1-25.1-32.1
				c-1,0.3-1.9,0.7-2.8,1c-25.6,9.9-35.6,32.8-38.1,39.6c2.6,2,5.3,3.8,8.1,5.7c2.6,1.7,5.3,3.4,8,5c-4.4,34.3,32.2,45.1,48.7,21.1
				c1.2-1.8,2.3-3.7,3.2-5.8c0.4-1,0.8-1.9,1.2-2.8c0.5-3.3,1-5.8,1.1-5.8l0.5,0.1c0.4-2,0.6-4,0.6-6
				C301,620.4,300.7,617.7,300.1,615z" style="fill:#FFFFFF;"/>
			<path d="M262,561.8c-0.4,0.1-0.9,0.3-1.3,0.4c-31.9,10.6-40.8,41.6-40.8,41.6c1.9,1.7,3.9,3.3,5.9,4.9
				c1.2,1,2.5,2,3.8,2.9c2.5-6.8,12.5-29.6,38.1-39.6c0.9-0.4,1.9-0.7,2.8-1C267.8,568,264.9,565,262,561.8z" style="fill:#10294C;"/>
			<path d="M275.7,528.2L275.7,528.2c0,0-37.6-45.4-20.2-115.7c0.3-1.3,0.6-2.6,1-3.9c-8.8,4.1-16.2,8.8-22,14
				c-3.3,3-6.2,6.3-8.7,9.9c-5,6.6-9.7,13.5-14.1,20.6c-5,7.9-9.8,16-14.5,24.2c-5.2,9-9.8,18.3-13.6,28c-2.1,5.4-3.8,11-5,16.7
				c-0.8,3.8-1.6,7.6-2.3,11.5c-1.6,8-0.5,16.2,3.1,23.5c3.6,7.2,8.7,13.6,13.7,19.8c4.2,5.2,8.8,10.1,13.5,14.8
				c4.2,4.3,8.6,8.4,13.2,12.3c6.8,5.9,8.9-31,40.8-41.6c0.4-0.1,0.8-0.3,1.3-0.4c-3.8-4.1-7.8-8.4-12-12.9
				c8.3-4.4,15.4-10.6,22.2-17.1C273.3,530.6,274.5,529.4,275.7,528.2z" style="fill:#F04E23;"/>
			<ellipse cx="369.8" cy="290.5" rx="9.9" ry="17.1" style="fill:#FFFFFF;"/>
			<ellipse cx="315" cy="290.5" rx="9.9" ry="17.1" style="fill:#FFFFFF;"/>
		</g>
		<path d="M317.4,345.3c4.1,0,8.3,0.1,12.4,0.3l12.3,0.4c4.1,0.1,8.2,0.2,12.3,0.3c4.1,0.1,8.2,0,12.3-0.1l0,0
			c0.6,0,1.1,0.5,1.1,1.1c0,0.5-0.3,0.9-0.7,1c-4.1,1.1-8.2,1.9-12.4,2.2c-4.2,0.4-8.4,0.5-12.6,0.4c-2.1-0.1-4.2-0.1-6.3-0.3
			c-2.1-0.2-4.1-0.3-6.3-0.6c-4.2-0.5-8.3-1.2-12.4-2.2c-0.7-0.2-1.1-0.9-0.9-1.6C316.3,345.7,316.8,345.3,317.4,345.3L317.4,345.3z
			" style="fill:#10294C;"/>
		<path d="M368.2,390.3c-3.5,1-7.1,1.6-10.7,1.9c-3.6,0.3-7.2,0.4-10.8,0.2c-3.6-0.2-7.2-0.6-10.7-1.2
			c-3.6-0.6-7.1-1.6-10.5-2.9c-0.7-0.3-1.1-1.1-0.8-1.9c0.2-0.5,0.7-0.9,1.3-0.9l0,0c3.6-0.1,7.1-0.1,10.6,0
			c3.5,0.1,6.9,0.2,10.4,0.3s6.9,0.2,10.4,0.4c3.5,0.1,6.9,0.3,10.5,0.7l0,0c1,0.1,1.7,1,1.6,2C369.4,389.6,368.9,390.1,368.2,390.3
			L368.2,390.3z" style="fill:#10294C;"/>
		<path d="M274.4,529.3c-3.4-3.9-6.5-8.1-9.1-12.6c-2.6-4.4-5-9.1-7-13.8c-4.1-9.5-7-19.5-8.6-29.8
			c-0.8-5.1-1.4-10.3-1.6-15.4c-0.1-2.6-0.1-5.2-0.1-7.8c0-1.3,0.1-2.6,0.1-3.9s0.1-2.6,0.2-3.9c0.8-10.3,2.8-20.4,5.9-30.2
			c0.2-0.7,1-1.2,1.7-1c0.7,0.2,1.1,0.9,1,1.6l0,0c-1.7,9.8-2.7,19.8-3,29.7c-0.1,1.2,0,2.5,0,3.7s0,2.5,0,3.7
			c0.1,2.5,0.1,5,0.4,7.5s0.4,4.9,0.7,7.4s0.6,4.9,1.1,7.3c0.5,2.4,0.9,4.9,1.4,7.3l0.8,3.6c0.3,1.2,0.6,2.4,0.9,3.6
			c1.3,4.8,2.8,9.5,4.5,14.1c1.7,4.6,3.7,9.2,5.9,13.6c1.1,2.2,2.3,4.4,3.5,6.6c0.6,1.1,1.2,2.1,1.9,3.2c0.6,1.1,1.3,2.1,2,3.1
			l0.1,0.1c0.5,0.8,0.3,1.9-0.5,2.4C275.9,530.1,274.9,529.9,274.4,529.3L274.4,529.3z" style="fill:#10294C;"/>
		<path d="M481.7,528.7c-2.4-5.3-4.4-10.7-5.9-16.3c-1.6-5.6-2.8-11.2-3.8-16.9c-2-11.4-2.9-22.9-2.7-34.4
			c0.1-11.5,1.2-23,3.4-34.4c2.1-11.3,5.2-22.4,9.3-33.1c0.3-0.7,1.1-1,1.9-0.7c0.6,0.3,1,0.9,0.8,1.6l0,0
			c-2.7,10.9-4.9,22-6.4,33.2c-0.2,1.4-0.3,2.8-0.5,4.1s-0.4,2.8-0.5,4.1c-0.3,2.8-0.6,5.6-0.7,8.4c-0.2,2.8-0.3,5.6-0.5,8.4
			c-0.1,1.4-0.1,2.8-0.1,4.2l0,2.1v2.1c-0.1,5.6,0.1,11.2,0.5,16.8c0.3,5.6,0.9,11.1,1.7,16.7c0.7,5.6,1.7,11.1,2.8,16.6
			c0.6,2.8,1.2,5.5,1.9,8.2c0.3,1.3,0.7,2.7,1.1,4.1c0.4,1.3,0.8,2.7,1.2,4v0.1c0.3,0.9-0.2,1.9-1.1,2.2
			C483,529.9,482.1,529.5,481.7,528.7L481.7,528.7z" style="fill:#10294C;"/>
		<path d="M461.7,533c-0.1-0.8-0.8-1.3-1.5-1.2c0,0,0,0,0,0l0,0l-5.4,0.6c-1.8,0.2-3.6,0.5-5.4,0.6
			c-3.6,0.3-7.3,0.7-10.9,1c-7.3,0.6-14.5,0.9-21.8,1.2l-5.5,0.1h-5.5c-3.6,0-7.3,0-10.9-0.1s-7.3-0.3-10.9-0.5
			c-3.1-0.2-6.2-0.4-9.1-0.7l-4.8-7.9l-5.6-9.3l0,0c-1-1.6-3-2.1-4.6-1.1c-0.5,0.3-1,0.8-1.2,1.4l-4.4,9.1l-3.6,7.5
			c-4.5,0.2-8.9,0.3-13.4,0.5l-7.6,0.1c-2.5,0-5.1,0-7.6,0l-3.8-0.1l-3.8-0.1c-1.3,0-2.5-0.1-3.8-0.2s-2.5-0.1-3.8-0.2
			c-2.5-0.2-5-0.4-7.5-0.7c-1.2-0.2-2.5-0.3-3.7-0.5c-0.6-0.1-1.2-0.2-1.8-0.3s-1.2-0.3-1.7-0.4l-0.1,0c-0.9-0.3-1.9,0.2-2.2,1.1
			c-0.3,0.9,0.2,1.9,1.1,2.2c0.8,0.3,1.4,0.5,2,0.7c0.7,0.2,1.3,0.4,1.9,0.5c1.3,0.3,2.6,0.6,3.9,0.8c1.3,0.2,2.6,0.5,3.9,0.7
			c1.3,0.2,2.6,0.4,3.9,0.6c5.2,0.7,10.3,1.1,15.5,1.4c2.6,0.2,5.2,0.2,7.8,0.3l7.8,0.1h7.8l7.8-0.2c1.1,0,2.2-0.7,2.7-1.7v-0.1
			l4.5-9.1l1.8-3.7l2.5,4.1l5.7,9.3v0.1c0.5,0.8,1.4,1.4,2.4,1.5c3.8,0.4,7.5,0.6,11.2,0.8s7.4,0.2,11.1,0.2
			c7.4,0,14.8-0.2,22.2-0.7c3.7-0.2,7.4-0.5,11-0.9c3.7-0.4,7.3-0.8,11-1.3c7.3-1,14.6-2.3,21.8-3.8
			C461.3,534.5,461.8,533.8,461.7,533z" style="fill:#10294C;"/>
		<path d="M293.9,681.3c2.5,1.5,5.1,2.6,7.8,3.4c2.8,0.9,5.7,1.7,8.6,2.4c5.8,1.4,11.8,2.4,17.7,3.3s12,1.5,18,1.9
			c3,0.1,6,0.3,9,0.2c2.9,0,5.8-0.3,8.7-0.9h0.1c0.8-0.2,1.5,0.3,1.7,1c0.1,0.6-0.1,1.3-0.7,1.6c-2.9,1.4-6.1,2.4-9.3,2.9
			c-3.1,0.5-6.3,0.8-9.5,0.9c-6.3,0.2-12.6-0.1-18.8-1c-6.2-0.8-12.4-2.2-18.4-4.1c-3-0.9-6-2.1-8.9-3.5c-2.9-1.4-5.8-3-8.2-5.6
			c-0.7-0.7-0.6-1.8,0.1-2.5c0.6-0.6,1.5-0.6,2.1-0.2L293.9,681.3z" style="fill:#10294C;"/>
		<path d="M401.3,690.9c2.8,0.7,5.6,1.1,8.5,1.2c2.9,0.1,5.9,0.1,8.9,0c6-0.2,12-0.8,17.9-1.6c6-0.7,11.9-1.7,17.8-3
			c2.9-0.7,5.8-1.4,8.7-2.2c2.8-0.8,5.5-1.9,8.1-3.2l0.1,0c0.7-0.4,1.5-0.2,1.9,0.5c0.3,0.6,0.2,1.3-0.3,1.8
			c-2.4,2.2-5.2,3.9-8.2,5.3c-2.9,1.3-5.8,2.5-8.9,3.4c-6,1.9-12.1,3.3-18.4,4.1c-6.2,0.9-12.5,1.3-18.8,1.1
			c-3.2-0.1-6.4-0.4-9.5-0.9c-3.1-0.6-6.3-1.3-9.4-3.1c-0.8-0.5-1.1-1.6-0.6-2.4c0.4-0.7,1.2-1,2-0.8L401.3,690.9z" style="fill:#10294C;"/>
		<path d="M371,669.6c-1.6,0.6-3.3,1-5,1.2c-1.6,0.1-3.3,0.1-4.9-0.1c-1.6-0.2-3.3-0.5-4.8-1c-1.6-0.5-3.2-1.2-4.6-2.1
			c-0.7-0.5-0.9-1.4-0.4-2.1c0.2-0.3,0.5-0.5,0.8-0.6l0,0c1.6-0.5,3.2-0.7,4.9-0.8c1.6-0.1,3.2-0.1,4.7,0c1.6,0.1,3.1,0.3,4.7,0.6
			c1.6,0.3,3.1,0.8,4.6,1.4h0.1c0.9,0.4,1.4,1.5,0.9,2.5C371.7,669,371.4,669.3,371,669.6L371,669.6z" style="fill:#10294C;"/>
		<path d="M278.2,631.3c0.7,0.8,1.1,1.7,1.4,2.7c0.2,0.9,0.3,1.8,0.2,2.8c-0.1,0.9-0.3,1.8-0.6,2.7
			c-0.4,1-0.9,1.8-1.7,2.6c-0.7,0.7-1.9,0.7-2.6,0c0,0,0,0,0,0c-0.1-0.1-0.1-0.1-0.2-0.2v0c-0.6-0.8-1-1.7-1.2-2.7
			c-0.2-0.8-0.3-1.7-0.3-2.6c0-0.8,0.1-1.7,0.3-2.5c0.2-0.9,0.7-1.8,1.2-2.5l0.2-0.2c0.7-0.9,2.1-1.1,3-0.3c0,0,0,0,0,0
			C278,631.1,278.1,631.2,278.2,631.3z" style="fill:#10294C;"/>
		<path d="M294.2,622.4c0.7,0.8,1.1,1.7,1.4,2.7c0.2,0.9,0.3,1.8,0.2,2.8c-0.1,0.9-0.3,1.8-0.6,2.7
			c-0.4,1-0.9,1.8-1.7,2.6c-0.7,0.7-1.9,0.7-2.6,0c-0.1-0.1-0.1-0.1-0.2-0.2v0c-0.6-0.8-1-1.7-1.2-2.7c-0.2-0.8-0.3-1.7-0.3-2.6
			c0-0.9,0.1-1.7,0.3-2.5c0.2-0.9,0.7-1.8,1.2-2.5l0.1-0.2c0.7-0.9,2.1-1.1,3-0.3C294,622.2,294.1,622.3,294.2,622.4z" style="fill:#10294C;"/>
		<path d="M492.5,631.5c0.6,0.8,1,1.6,1.2,2.5c0.2,0.8,0.3,1.6,0.3,2.5c0,0.9-0.1,1.7-0.3,2.6c-0.2,1-0.7,1.9-1.2,2.7
			l0,0c-0.6,0.8-1.7,1-2.5,0.4c-0.1-0.1-0.2-0.1-0.2-0.2c-0.7-0.7-1.3-1.6-1.7-2.6c-0.3-0.9-0.5-1.8-0.6-2.7c-0.1-0.9,0-1.9,0.2-2.8
			c0.2-1,0.7-1.9,1.4-2.7c0.7-0.9,2.1-1,3-0.3c0.1,0.1,0.2,0.2,0.3,0.3L492.5,631.5z" style="fill:#10294C;"/>
		<path d="M476.5,622.6c0.6,0.7,1,1.6,1.2,2.5c0.2,0.8,0.3,1.7,0.3,2.5c0,0.9-0.1,1.7-0.3,2.6c-0.2,1-0.7,1.9-1.2,2.7
			l0,0c-0.6,0.8-1.7,1-2.5,0.5c0,0,0,0,0,0c-0.1-0.1-0.2-0.1-0.2-0.2c-0.7-0.7-1.3-1.6-1.7-2.6c-0.3-0.9-0.5-1.8-0.6-2.7
			c-0.1-0.9,0-1.9,0.2-2.8c0.2-1,0.7-1.9,1.4-2.7c0.7-0.9,2.1-1.1,3-0.3c0,0,0,0,0,0c0.1,0.1,0.2,0.2,0.3,0.3L476.5,622.6z" style="fill:#10294C;"/>
		<path d="M370.5,308.5c-1,0.1-2.1,0.1-3.1,0c-1.1-0.2-2.2-0.6-3.2-1.2c-1.9-1.3-3.3-3.1-4-5.2
			c-0.7-1.9-1.2-3.8-1.5-5.8c-0.1-1-0.2-1.9-0.3-2.9c-0.1-1,0-1.9-0.1-2.9s0-1.9,0.1-2.9c0.1-1,0.1-1.9,0.3-2.9
			c0.2-2,0.8-3.9,1.5-5.8c0.8-2.1,2.2-3.9,4-5.1c0.9-0.6,2-1,3.1-1.1c1-0.1,2.1-0.1,3.1,0c0.6,0.1,1,0.6,0.9,1.2c0,0,0,0,0,0
			c-0.1,0.4-0.4,0.8-0.8,0.9h-0.1c-0.8,0.1-1.6,0.4-2.4,0.6c-0.7,0.3-1.3,0.7-1.8,1.2c-1,1.1-1.7,2.4-2.1,3.8
			c-0.4,1.6-0.7,3.2-0.8,4.9c-0.1,1.7-0.2,3.4-0.2,5.2s0.1,3.5,0.2,5.2c0.1,1.6,0.4,3.3,0.8,4.8l0.2,0.6l0.2,0.5
			c0.1,0.2,0.1,0.4,0.2,0.5c0.1,0.2,0.2,0.3,0.2,0.5c0.2,0.3,0.3,0.6,0.5,0.9c0.1,0.1,0.2,0.3,0.3,0.4c0.1,0.1,0.2,0.3,0.3,0.4
			c0.5,0.5,1.1,0.8,1.7,1.1c0.7,0.3,1.5,0.5,2.3,0.6h0.1c0.7,0.2,1.2,0.9,1,1.6C371.5,308,371.1,308.4,370.5,308.5L370.5,308.5z" style="fill:#10294C;"/>
		<path d="M316.2,308.7c-1,0.1-2.1,0.1-3.2,0c-1.1-0.2-2.2-0.6-3.2-1.2c-1.9-1.3-3.3-3.1-4.1-5.3
			c-0.7-1.9-1.2-3.9-1.5-5.9c-0.2-1-0.2-1.9-0.3-2.9s0-1.9-0.1-2.9s0-1.9,0.1-2.9c0.1-1,0.1-1.9,0.3-2.9c0.2-2,0.8-4,1.5-5.9
			c0.8-2.1,2.2-3.9,4.1-5.2c1-0.6,2-1,3.1-1.2c1-0.1,2.1-0.1,3.1,0c0.6,0.1,1,0.6,0.9,1.2c0,0,0,0,0,0c-0.1,0.4-0.4,0.8-0.8,0.9
			h-0.1c-0.8,0.1-1.6,0.4-2.4,0.6c-0.7,0.3-1.3,0.7-1.8,1.2c-1,1.1-1.7,2.4-2.1,3.8c-0.4,1.6-0.7,3.3-0.8,5
			c-0.1,1.7-0.2,3.5-0.2,5.3s0.1,3.5,0.2,5.2c0.1,1.7,0.4,3.3,0.8,4.9l0.2,0.6l0.2,0.5c0.1,0.2,0.1,0.4,0.2,0.5l0.2,0.5
			c0.2,0.3,0.3,0.6,0.5,0.9c0.1,0.1,0.2,0.2,0.3,0.4c0.1,0.1,0.2,0.3,0.4,0.4c0.5,0.5,1.1,0.9,1.8,1.1c0.8,0.3,1.5,0.5,2.3,0.6h0.1
			c0.7,0.1,1.2,0.8,1.1,1.5C317.3,308.2,316.8,308.6,316.2,308.7L316.2,308.7z" style="fill:#10294C;"/>
		<path d="M405,559.6L405,559.6c-3.5,0.2-6.9,0.7-10.3,1l-5.1,0.5c-0.8,0.1-1.7,0.2-2.5,0.3l-2.5,0.2
			c-1.7,0.1-3.4,0.2-5.1,0.4c-1.7,0.2-3.4,0.1-5.1,0.2c-2.9,0.2-5.8,0.2-8.7,0.3c0-0.5,0-1,0-1.5c-0.1-5.2-0.3-10.5-0.7-15.7l0,0
			c-0.1-1-0.9-1.7-1.8-1.6c-0.8,0-1.5,0.6-1.6,1.4c-1,5.2-1.6,10.5-1.9,15.9c0,0.5-0.1,1.1-0.1,1.7c-1.8,0-3.6,0-5.4-0.1l-2.5,0
			l-2.5-0.1c-1.7-0.1-3.4-0.2-5-0.3c-1.7-0.1-3.4-0.2-5-0.4l-2.5-0.2l-2.5-0.3c-3.3-0.4-6.7-0.9-9.9-1.5H324c-0.9-0.2-1.9,0.4-2,1.4
			c-0.2,0.8,0.3,1.6,1,1.9c3.3,1.3,6.7,2.4,10.1,3.2l2.6,0.6l2.6,0.5c1.7,0.4,3.5,0.6,5.2,0.8c0.8,0.1,1.7,0.3,2.6,0.4l2.6,0.3
			l2.6,0.2l2.6,0.2c1.8,0.1,3.6,0.2,5.4,0.2c-0.1,2.5-0.1,5.1-0.1,7.7c0,2.8,0.1,5.5,0.2,8.2c-3.5,0-7-0.2-10.5-0.3
			c-1.2-0.1-2.4-0.1-3.6-0.2s-2.4-0.2-3.6-0.3c-2.4-0.2-4.8-0.5-7.1-0.8h-0.1c-1-0.1-1.8,0.6-2,1.5c-0.1,0.8,0.3,1.5,1,1.8
			c2.4,1.1,4.8,1.9,7.3,2.6c2.5,0.7,4.9,1.2,7.5,1.5c3.8,0.6,7.6,0.9,11.5,0.9c0,0.3,0,0.7,0.1,1c0.4,5.3,1,10.6,2,15.8
			c0.1,0.8,0.9,1.3,1.6,1.2c0.6-0.1,1.1-0.6,1.2-1.3l0,0c0.5-5.3,0.7-10.6,0.9-15.8c0-0.3,0-0.6,0-1c1.8-0.1,3.6-0.2,5.4-0.4
			c1.3-0.1,2.5-0.2,3.8-0.4c1.3-0.2,2.5-0.4,3.7-0.6l1.9-0.3c0.6-0.1,1.2-0.3,1.8-0.4l3.7-0.9c2.4-0.7,4.8-1.4,7.2-2.3
			c0.7-0.2,1.1-1,0.9-1.8c-0.2-0.6-0.8-1-1.4-1h-0.1c-2.5,0.1-4.9,0.3-7.4,0.5l-3.6,0.2c-0.6,0-1.2,0.1-1.8,0.1l-1.8,0.1
			c-1.2,0.1-2.4,0.1-3.6,0.2l-3.6,0.1c-1.6,0.1-3.2,0.1-4.8,0.1c0-2.7,0.1-5.5,0.1-8.2c0-2.6,0-5.1,0-7.7l3.8-0.2
			c1.7-0.1,3.5-0.2,5.2-0.4s3.5-0.3,5.2-0.5c1.7-0.2,3.5-0.5,5.2-0.8l2.6-0.4c0.8-0.2,1.7-0.3,2.6-0.5l5.1-1.1
			c3.4-0.8,6.7-1.8,10-2.8c0.7-0.2,1.2-1,0.9-1.8C406.2,560,405.6,559.5,405,559.6L405,559.6z" style="fill:#10294C;"/>
		<path d="M238.6,618.5c1.7,0.4,3.4,0.9,5,1.6c1.6,0.7,3.1,1.4,4.6,2.3c1.5,0.9,2.9,1.8,4.3,2.8c1.4,1,2.8,2.2,4,3.5
			l0,0c0.6,0.6,0.5,1.6-0.1,2.1c0,0,0,0,0,0c-0.3,0.3-0.7,0.4-1.1,0.4c-1.8-0.1-3.7-0.4-5.4-1c-1.7-0.5-3.4-1.2-5-2.1
			c-1.6-0.8-3.1-1.8-4.5-2.9c-1.5-1.1-2.8-2.4-3.8-3.9c-0.6-0.8-0.4-2,0.4-2.6c0,0,0,0,0,0c0.4-0.3,0.9-0.4,1.4-0.3L238.6,618.5z" style="fill:#10294C;"/>
		<path d="M239.5,534.8c1.4,0.2,2.8,0.7,4.1,1.5c1.2,0.7,2.3,1.5,3.3,2.5c1,1,1.9,2.1,2.7,3.3c0.8,1.3,1.3,2.7,1.5,4.3
			c0.1,0.9-0.5,1.6-1.4,1.7c-0.3,0-0.6,0-0.8-0.1l-0.1-0.1c-1.2-0.6-2.3-1.2-3.4-2c-1-0.7-2-1.5-3-2.3c-1-0.8-1.9-1.7-2.7-2.7
			c-0.9-1-1.7-2.1-2.3-3.3l-0.1-0.1c-0.5-1,0-2.1,0.9-2.6C238.7,534.8,239.1,534.7,239.5,534.8z" style="fill:#10294C;"/>
		<path d="M527.9,537.6c-0.6,1.2-1.4,2.3-2.3,3.3c-0.8,1-1.7,1.8-2.7,2.7c-0.9,0.8-1.9,1.6-3,2.3
			c-1.1,0.7-2.2,1.4-3.4,2l-0.1,0.1c-0.8,0.4-1.7,0-2.1-0.8c-0.1-0.3-0.2-0.6-0.1-0.8c0.2-1.5,0.7-3,1.5-4.3
			c0.8-1.2,1.7-2.3,2.7-3.3c1-1,2.1-1.8,3.3-2.5c1.3-0.7,2.6-1.2,4.1-1.5c1.1-0.2,2,0.6,2.2,1.6c0.1,0.4,0,0.8-0.2,1.1L527.9,537.6z
			" style="fill:#10294C;"/>
		<path d="M524.9,621.4c-1.1,1.5-2.4,2.8-3.8,3.9c-1.4,1.1-2.9,2.1-4.5,2.9c-1.6,0.8-3.3,1.5-5,2.1
			c-1.8,0.6-3.6,0.9-5.4,1c-0.8,0-1.5-0.6-1.6-1.5c0-0.4,0.1-0.8,0.4-1.1l0,0c1.2-1.3,2.6-2.5,4-3.5c1.4-1,2.8-1.9,4.3-2.8
			c1.5-0.9,3-1.6,4.6-2.3c1.6-0.7,3.3-1.2,5-1.6h0.1c1-0.2,2,0.5,2.2,1.5c0,0,0,0,0,0C525.2,620.5,525.2,620.9,524.9,621.4z" style="fill:#10294C;"/>
		<path d="M243.6,703.1c-3.3-1.6-6.5-3.5-9.6-5.5c-3.1-2-6.1-4.1-9-6.3c-2.9-2.2-5.8-4.5-8.5-6.9c-2.8-2.4-5.5-5-8-7.7
			c-0.5-0.6-0.5-1.5,0.1-2c0.4-0.4,1-0.5,1.5-0.2c3.3,1.6,6.6,3.4,9.7,5.4c3.1,1.9,6.1,4,9.1,6.2s5.9,4.4,8.7,6.8
			c2.8,2.4,5.5,4.9,8.1,7.6c0.7,0.7,0.6,1.8-0.1,2.5C245,703.3,244.2,703.4,243.6,703.1L243.6,703.1z" style="fill:#FDB813;"/>
		<path d="M576.3,257.3c-6.1,8-13.7,1.7-23.8-6s-18.9-14-12.8-22c6.1-8,32.4-17.7,39.4-12.7
			C586.1,221.5,582.4,249.3,576.3,257.3z" style="fill:#F04E23;"/>
		<path d="M431.1,378.7c-0.1-1-1-1.6-1.9-1.5c0,0,0,0,0,0l0,0c-2.8,0.3-5.6,0.4-8.5,0.5c-2.8,0.1-5.7,0-8.6,0
			c-2.9,0-5.7-0.2-8.6-0.3c-1.9-0.1-3.9-0.2-5.9-0.3c0.1-3.4,0.2-6.9,0.3-10.4c0-4.4-0.1-8.8-0.4-13.2c-0.3-4.5-0.9-8.9-1.8-13.3
			c-0.9-4.5-2.3-8.9-4.3-13c-2-4.4-5.1-8.2-9-11.1c-4.1-2.8-8.9-4.3-13.8-4.1c-1.2,0-2.3,0.1-3.4,0.2c-1.1,0.1-2.3,0.2-3.4,0.4
			c-2.3,0.3-4.5,0.9-6.6,1.7c-2.2,0.8-4.3,1.9-6.2,3.2c-1,0.7-1.9,1.5-2.7,2.4c0,0-0.1,0.1-0.1,0.1c-0.2-2.9-0.4-7-0.6-11.9
			c-0.9-31.4,2-95.2,41.9-85l0,0c3.8,1.2,7.4,2.8,10.9,4.7c-1.6-9.9-16.5-15.7-20.4-16.5c-14.2-2.5-24.5,2.2-31.9,11
			c-17.1,20.4-18.9,62.3-18.5,85.7c0.1,2.7,0.1,5.1,0.2,7.2c-1.7-1.6-3.9-2.7-6.2-3.1c-0.6-0.1-1.3-0.2-1.9-0.2c-0.6,0-1.3,0-1.9,0
			c-1.3,0.1-2.5,0.4-3.7,0.8c-1.2,0.4-2.3,1-3.3,1.8c-1.1,0.8-1.9,1.8-2.5,3c-0.3,0.7,0,1.6,0.7,1.9c0.3,0.2,0.7,0.2,1.1,0l0.3-0.1
			c1.6-0.6,3.3-0.9,5.1-1c0.8-0.1,1.7-0.1,2.5,0c0.4,0,0.8,0.1,1.2,0.1c0.4,0,0.8,0.1,1.2,0.2c1.5,0.3,2.9,0.9,4.1,1.7
			c1.4,1,2.6,2.2,3.5,3.6l0.1,0.1c0.2,0.2,0.3,0.4,0.6,0.5c0,0.2,0,0.3,0,0.3c11.6,3,17.8-0.1,17.8-0.1l0,0c0,0,0-0.2,0-0.3
			c0.1-0.1,0.1-0.1,0.2-0.2l0,0c0.5-0.8,1.1-1.5,1.8-2.1c0.7-0.6,1.5-1.2,2.4-1.7c1.7-1,3.6-1.7,5.5-2.2c2-0.5,4-0.8,6-1
			c1-0.1,2-0.1,3.1-0.2s2.1,0,3.1,0.1c3.8,0.1,7.4,1.4,10.4,3.7c3,2.4,5.3,5.6,6.7,9.1c1.6,3.7,2.9,7.6,3.6,11.6
			c0.8,4.1,1.4,8.3,1.7,12.4c0.4,4.2,0.6,8.5,0.7,12.7c0.1,4.3,0.2,8.6,0.3,12.9v0.2c0,1.4,1.2,2.6,2.6,2.6c3,0.1,5.8,0.1,8.8,0.1
			s5.8,0,8.8-0.1c3-0.1,5.8-0.3,8.8-0.5c3-0.2,5.9-0.7,8.8-1.2C430.6,380.4,431.2,379.6,431.1,378.7z" style="fill:#10294C;"/>
		<path d="M289.1,583.8c-5.5,0-9.9-4.5-9.9-10c0-1.7,0.4-3.4,1.3-4.9c36.5-64.7,80.2-113,110.4-142.1
			c32.9-31.7,57-47.9,58-48.6c4.6-3,10.8-1.7,13.8,2.9c3,4.5,1.8,10.6-2.7,13.7c-0.3,0.2-24,16.2-55.6,46.7
			c-29.2,28.2-71.4,74.8-106.5,137.2C296.1,581.9,292.7,583.8,289.1,583.8z" style="fill:#10294C;"/>
		<path d="M455.4,388l-2.6,2l0,0c-0.8,0.7-1.9,0.6-2.6-0.2c-0.7-0.8-0.6-1.9,0.2-2.6c0.1,0,0.1-0.1,0.2-0.1l0.1-0.1
			l2.8-1.8c0.8-0.5,1.9-0.3,2.4,0.6C456.4,386.4,456.2,387.4,455.4,388L455.4,388z" style="fill:#FDB813;"/>
		<path d="M438.1,401.7l-4.8,4l0,0c-1.1,0.9-2.6,0.8-3.5-0.3c-0.9-1.1-0.8-2.6,0.3-3.5l0.1-0.1l5-3.8
			c1-0.8,2.5-0.6,3.3,0.4C439.3,399.4,439.1,400.8,438.1,401.7L438.1,401.7z" style="fill:#FDB813;"/>
		<path d="M419.3,418.1l-4.6,4.2l0,0c-1.1,1.1-3,1.1-4.1,0c-1.1-1.1-1.1-3,0-4.1c0,0,0.1-0.1,0.2-0.1l0.1,0l4.8-4.1
			c1.2-1,3-0.8,4,0.4C420.5,415.3,420.4,417,419.3,418.1L419.3,418.1z" style="fill:#FDB813;"/>
		<path d="M401.1,435.2l-4.5,4.4l0,0c-1.2,1.2-3.3,1.2-4.5,0c-1.2-1.2-1.2-3.3,0-4.5l0,0l0,0l4.6-4.4
			c1.2-1.2,3.2-1.2,4.4,0.1C402.4,432,402.3,434,401.1,435.2L401.1,435.2z" style="fill:#FDB813;"/>
		<path d="M383.5,452.9l-4.3,4.5l0,0c-1.4,1.2-3.5,1-4.7-0.4c-1-1.2-1-2.9-0.1-4.1l0,0l4.4-4.6c1.4-1.1,3.5-0.9,4.7,0.5
			C384.3,450.1,384.4,451.7,383.5,452.9L383.5,452.9z" style="fill:#FDB813;"/>
		<path d="M366.5,471.3l-4.1,4.7l0,0c-1.3,1.3-3.4,1.2-4.7-0.1c-1.1-1.2-1.2-3-0.3-4.3l4.1-4.8c1.1-1.4,3.2-1.7,4.7-0.6
			c1.4,1.1,1.7,3.2,0.6,4.7C366.7,471.1,366.6,471.2,366.5,471.3L366.5,471.3L366.5,471.3z" style="fill:#FDB813;"/>
		<path d="M350.3,490.3l-4,4.8l0,0c-1.1,1.4-3.1,1.6-4.5,0.5s-1.6-3.1-0.5-4.5l3.9-4.9c1.1-1.4,3.1-1.6,4.5-0.5
			C351.2,486.8,351.4,488.8,350.3,490.3L350.3,490.3L350.3,490.3z" style="fill:#FDB813;"/>
		<path d="M334.7,509.8l-3.8,5l0,0c-1,1.3-2.9,1.5-4.2,0.4c-1.2-1-1.5-2.7-0.6-4l3.7-5.1c1-1.3,2.9-1.5,4.3-0.5
			C335.3,506.7,335.6,508.4,334.7,509.8L334.7,509.8L334.7,509.8z" style="fill:#FDB813;"/>
		<path d="M319.8,529.9l-3.6,5.1l0,0c-0.8,1.2-2.4,1.5-3.6,0.7c-1.2-0.8-1.5-2.4-0.7-3.6l3.5-5.2
			c0.8-1.2,2.5-1.6,3.7-0.8C320.3,526.9,320.7,528.6,319.8,529.9L319.8,529.9L319.8,529.9z" style="fill:#FDB813;"/>
		<path d="M305.6,550.5l-3.4,5.2l0,0c-0.6,0.9-1.9,1.2-2.8,0.5c-0.9-0.6-1.2-1.8-0.6-2.7l3.2-5.4c0.7-1,2-1.3,3.1-0.6
			c1,0.6,1.3,1.9,0.7,2.9L305.6,550.5L305.6,550.5z" style="fill:#FDB813;"/>
		<path d="M292.1,571.7l-1.7,2.8l0,0c-0.4,0.6-1.3,0.8-2,0.4c-0.6-0.4-0.8-1.1-0.5-1.8l1.5-3c0.5-0.7,1.5-0.8,2.1-0.3
			C292.1,570.3,292.3,571,292.1,571.7L292.1,571.7L292.1,571.7z" style="fill:#FDB813;"/>
		<path d="M415.2,473c-3.6,4.1-6.8,8.7-9.3,13.5c-2.4,4.5-4.5,9.2-6.1,14.1c2.5,0.8,7.3,1.9,15.6,1.9
			c8.1,0,12.9-1,15.4-1.8c-1.7-4.6-3.7-9-5.9-13.4C422.1,482.3,418.9,477.5,415.2,473z M421.4,495.7c-0.2,0.1-1.7,1.1-6,1.1
			c-4.3,0-5.9-1-6-1.1c-0.3-0.2-0.5-0.6-0.4-1c0.5-1.8,1.2-3.5,2.1-5.1c0.9-1.9,2.2-3.5,3.7-5c0.4-0.4,1-0.3,1.4,0.1
			c1.4,1.6,2.6,3.3,3.6,5.1c0.8,1.5,1.5,3.2,2,4.8C421.9,495,421.7,495.4,421.4,495.7L421.4,495.7z" style="fill:#FDB813;"/>
		<path d="M438.1,501.5c-2-5.9-4.5-11.6-7.4-17.2c-3.6-6.6-7.9-12.8-12.9-18.4c-1.2-1.3-3.3-1.4-4.6-0.2
			c-0.3,0.2-7.1,6.3-13.2,17.8c-6.1,11.5-7.4,18.1-7.5,18.4c-0.2,1.3,0.3,2.6,1.3,3.3c0.6,0.4,6.1,3.9,21.5,3.9s20.9-3.5,21.5-3.9
			C438,504.4,438.5,502.9,438.1,501.5z M415.4,502.6c-8.3,0-13.1-1.1-15.6-1.9c1.6-4.9,3.7-9.6,6.1-14.1c2.5-4.9,5.7-9.4,9.3-13.5
			c3.7,4.4,6.9,9.2,9.6,14.3c2.2,4.3,4.2,8.8,5.9,13.4C428.3,501.5,423.4,502.6,415.4,502.6z" style="fill:#10294C;"/>
		<path d="M419.7,489.8c-1-1.8-2.2-3.6-3.6-5.1c-0.4-0.4-1-0.4-1.4-0.1c-1.5,1.4-2.7,3.1-3.7,5
			c-0.9,1.6-1.6,3.3-2.1,5.1c-0.1,0.4,0.1,0.8,0.4,1c0.2,0.1,1.7,1.1,6,1.1c4.3,0,5.8-1,6-1.1c0.4-0.3,0.5-0.7,0.4-1.1
			C421.2,492.9,420.5,491.3,419.7,489.8z" style="fill:#10294C;"/>
		<path d="M372.7,291.9L372.7,291.9c0.4-0.5,0.7-1.1,0.9-1.7c0.2-0.6,0.3-1.3,0.3-2c-0.1-0.9-0.4-1.9-0.9-2.7
			c-0.2-0.2-0.3-0.4-0.5-0.7l0,0l-0.1,0l-0.1-0.1l0,0c-0.4-0.4-0.5-1-0.2-1.5l0,0c0.5-0.8,0.8-1.8,0.6-2.8c0-0.7-0.7-1.2-1.3-1.2
			c0,0,0,0-0.1,0v-0.1c-1,0-2.1,1.1-3.3,2.9l-0.1,0.1c0,0,0,0,0,0.1c0,0,0,0.1,0,0.1c-0.9,1.5-0.8,3.4,0.2,4.9
			c0.4,0.6,0.4,1.5,0,2.1c-0.1,0.1-0.1,0.2-0.1,0.3c-0.3,0.5-0.6,1-0.7,1.6c-0.1,0.6-0.1,1.3,0,1.9c0.2,0.9,0.5,1.7,1.1,2.4
			c0,0.1,0.1,0.2,0.1,0.3c0.4,0.4,1.2,1,0.6,2.1c-0.1,0.1-0.1,0.3-0.2,0.4c-0.1,0.1-0.2,0.3-0.2,0.4c-0.3,0.7-0.3,1.5,0,2.2
			c0.1,0.3,0.5,0.6,0.8,0.6c0.1,0,0.1,0,0.2,0c1,0,3.5-2,4-4.7v-0.2c0.1-1.2-0.2-2.4-0.8-3.4C372.5,292.9,372.4,292.4,372.7,291.9z" style="fill:#F04E23;"/>
		<path d="M318.3,291.9L318.3,291.9c0.4-0.5,0.7-1.1,0.9-1.7c0.2-0.6,0.3-1.3,0.3-2c-0.1-1-0.4-1.9-0.9-2.7
			c-0.2-0.2-0.3-0.4-0.5-0.7l0,0l-0.1,0l-0.1-0.1l0,0c-0.4-0.4-0.5-1-0.2-1.5l0,0c0.5-0.8,0.8-1.8,0.6-2.8c0-0.7-0.7-1.2-1.3-1.2
			c0,0,0,0-0.1,0v-0.1c-1,0-2.1,1.1-3.3,2.9c0,0,0,0.1-0.1,0.1c0,0,0,0.1,0,0.1l0,0.1c-0.9,1.5-0.8,3.4,0.2,4.9
			c0.4,0.6,0.4,1.5,0,2.1c-0.1,0.1-0.1,0.2-0.1,0.3c-0.3,0.5-0.6,1-0.7,1.6c-0.1,0.6-0.1,1.3,0,1.9c0.2,0.9,0.5,1.7,1.1,2.4
			c0,0.1,0.1,0.2,0.1,0.3c0.4,0.4,1.2,1,0.6,2.1c-0.1,0.1-0.1,0.3-0.2,0.4c-0.1,0.1-0.2,0.3-0.2,0.4c-0.3,0.7-0.3,1.5,0,2.2
			c0.1,0.3,0.5,0.6,0.8,0.6c0.1,0,0.1,0,0.2,0c1,0,3.5-2,4-4.7v-0.2c0.1-1.2-0.2-2.4-0.8-3.4C318.1,292.8,318.1,292.3,318.3,291.9z" style="fill:#F04E23;"/>
		<path d="M511.7,464c-3-0.9-6-1.6-9-2.1c-0.4-0.1-0.9,0.2-1,0.6c-0.1,0.4,0.1,0.7,0.4,0.9c2.4,1.7,4.8,3.2,7.4,4.6
			C509.9,466.6,510.7,465.2,511.7,464z" style="fill:#10294C;"/>
		<path d="M559.2,485.1c-2.2-1.4-4.4-2.6-6.7-3.9c-0.6-0.3-1.3-0.7-1.9-1c-0.5,1.5-1,2.9-1.5,4.2l1.9,0.6
			c2.5,0.7,5,1.4,7.5,1.9c0.4,0.1,0.8-0.1,1.1-0.4C559.8,486.1,559.7,485.4,559.2,485.1C559.2,485.1,559.2,485.1,559.2,485.1z" style="fill:#10294C;"/>
		<path d="M547,467.3c-1.1-5.4-5.4-8.1-9.2-8.1c-4.4,0-8.3,3.4-6.7,10.1c-2.5-3.7-5.8-5.2-8.8-5.2
			c-6.4,0-11.7,6.8-6.5,14.6c7.6,11.5,24.8,11.8,24.8,11.8S549,477.1,547,467.3z" style="fill:#10294C;"/>
		<path d="M357.5,725c0-0.1,0-0.1,0-0.2l0,0c-0.4,1-1.1,1.7-2.1,2.1c-5,2.6-17.9,3.3-32.7,1.2
			c-18.2-2.5-32.6-8.1-32.6-12.6l0,0c0,0,0,0.1,0,0.1l0,0c-2.1,0.8-3.4,1.9-3.5,3.2c0,0,0,0.1,0,0.1c0,0.1,0,0.2,0,0.3
			c-0.2,3.5-0.2,7.2-0.2,11.1c0.6,1.2,1.6,2.2,2.8,2.9c5.4,3.8,17.7,7.6,32.3,9.6c12.8,1.7,24.2,1.7,31.1,0.1c0.4-0.1,0.7-0.2,1-0.3
			l0.3-0.1c1.7-0.4,3.2-1.2,4.5-2.3c1-6.6,1.6-10.8,1.7-11.5c0,0,0,0,0-0.1C360.1,727.7,359.2,726.3,357.5,725z" style="fill:#10294C;"/>
		<path d="M481.9,752c-2,2.2-4.4,4-7.1,5.3c-2.6,1.3-5.4,2.3-8.3,2.9c-2.9,0.6-5.8,0.8-8.8,0.6
			c-2.9-0.2-5.8-0.8-8.5-1.9c-0.7-0.3-1.1-1.1-0.8-1.9c0.2-0.5,0.6-0.8,1.1-0.9h0.2c1.4-0.3,2.7-0.3,4-0.5c1.3-0.2,2.6-0.3,3.9-0.5
			c2.6-0.3,5.1-0.8,7.5-1.4c2.5-0.6,4.9-1.3,7.4-2c1.2-0.4,2.5-0.8,3.7-1.2s2.5-0.9,3.7-1.3l0.2-0.1c0.9-0.3,1.9,0.2,2.2,1.1
			c0,0,0,0,0,0C482.4,750.9,482.3,751.5,481.9,752z" style="fill:#10294C;"/>
		<path d="M482.9,769.6c-0.2,0.4-0.4,0.6-0.6,0.8s-0.4,0.5-0.6,0.7c-0.4,0.4-0.9,0.9-1.3,1.2c-0.9,0.8-1.9,1.4-3,2
			c-2.1,1.1-4.3,1.8-6.5,2.3c-0.6,0.1-1.1,0.2-1.7,0.3c-0.5,0.1-1.1,0.1-1.7,0.1c-1.1,0.1-2.3,0.1-3.4,0c-1.1-0.1-2.2-0.2-3.3-0.4
			c-1.1-0.2-2.2-0.6-3.2-1c-0.8-0.3-1.1-1.2-0.8-1.9c0.2-0.4,0.5-0.7,0.9-0.8l0.1,0c1-0.3,2-0.6,3.1-0.8c1-0.3,2-0.4,3-0.7
			c1-0.2,2-0.4,2.9-0.6c0.5-0.1,1-0.2,1.4-0.3l1.4-0.3c1.9-0.4,3.7-0.9,5.6-1.4c0.9-0.3,1.8-0.5,2.7-0.8c0.5-0.1,0.9-0.3,1.4-0.4
			l0.7-0.2c0.2-0.1,0.4-0.1,0.6-0.2h1.1c0.9,0,1.6,0.7,1.6,1.6c0,0,0,0,0,0C483.3,769,483.1,769.4,482.9,769.6z" style="fill:#10294C;"/>
		<path d="M285.7,749.2c1.2,0.4,2.4,0.8,3.7,1.3c1.2,0.4,2.5,0.8,3.7,1.2c2.5,0.8,4.9,1.5,7.4,2c2.5,0.6,5,1.1,7.5,1.4
			c1.3,0.2,2.6,0.3,3.9,0.5c1.3,0.2,2.6,0.2,4,0.5h0.2c0.8,0.2,1.3,0.9,1.1,1.7c-0.1,0.5-0.4,0.9-0.9,1.1c-2.7,1.1-5.6,1.7-8.5,1.9
			c-2.9,0.2-5.9,0-8.8-0.6c-2.9-0.6-5.7-1.5-8.3-2.9c-2.7-1.3-5.1-3.1-7.1-5.3c-0.6-0.7-0.6-1.9,0.2-2.5c0.5-0.4,1.1-0.5,1.7-0.4
			L285.7,749.2z" style="fill:#10294C;"/>
		<path d="M285,767.1c0.2,0,0.4,0.1,0.6,0.2l0.7,0.2c0.5,0.1,0.9,0.3,1.4,0.4c0.9,0.3,1.8,0.5,2.7,0.8
			c1.8,0.5,3.7,1,5.6,1.4l1.4,0.3c0.5,0.1,1,0.2,1.4,0.3c1,0.2,1.9,0.4,2.9,0.6c1,0.2,2,0.4,3,0.7c1,0.2,2.1,0.5,3.1,0.8h0.1
			c0.8,0.3,1.2,1.1,0.9,1.9c-0.1,0.4-0.5,0.7-0.8,0.9c-1.1,0.4-2.1,0.7-3.2,1c-1.1,0.2-2.2,0.4-3.3,0.4c-1.1,0.1-2.3,0.1-3.4,0
			c-0.6,0-1.1-0.1-1.7-0.1c-0.5-0.1-1.1-0.2-1.7-0.3c-2.3-0.4-4.5-1.2-6.5-2.3c-1-0.6-2-1.2-3-2c-0.5-0.4-0.9-0.8-1.3-1.2
			c-0.2-0.2-0.4-0.4-0.6-0.7s-0.4-0.5-0.6-0.8c-0.5-0.7-0.3-1.7,0.4-2.2c0.3-0.2,0.6-0.3,0.9-0.3L285,767.1z" style="fill:#10294C;"/>
	</g>
</g>
</svg>
