<?xml version="1.0" encoding="utf-8"?>
<!-- Generator: Adobe Illustrator 22.0.1, SVG Export Plug-In . SVG Version: 6.00 Build 0)  -->
<svg version="1.1" id="Layer_1" xmlns="http://www.w3.org/2000/svg" xmlns:xlink="http://www.w3.org/1999/xlink" x="0px" y="0px" viewBox="0 0 600 600" style="enable-background:new 0 0 600 600;" xml:space="preserve">

<g id="Layer_5">
	<g style="display:none;">
		<g style="display:inline;">
			<defs>
				<polygon id="SVGID_1_" points="100,88.7 229.1,37.7 444.3,18.6 523.9,95.1 517.6,335.9 538.3,437.9 431.5,549.4 321.5,578.2 
					120.7,581.3 61.7,442.6 				"/>
			</defs>
			<clipPath id="SVGID_2_">
				<use xlink:href="#SVGID_1_" style="overflow:visible;"/>
			</clipPath>
			<g style="opacity:0.2077;clip-path:url(#SVGID_2_);">
				
					<image style="overflow:visible;enable-background:new    ;" width="3200" height="3200" xlink:href="../png/The List Is Empty.PNG" transform="matrix(0.2005 0 0 0.2005 -30.8883 -16.9796)">
				</image>
			</g>
		</g>
	</g>
	<g id="XMLID_2_">
		<g>
			<g>
				<path d="M485.6,125.5c10.4,35,7.5,72.9-2.5,108c-10.1,35.1-26.9,70.5-45,102.2l-0.1,0.2c-1.4-0.6-2.8-1.2-4.2-1.8
					c-4.2-1.8-8.4-3.4-12.8-4.9c23.5-40.1,44.2-85.2,51-131.2c6.9-45.8,11.9-93.4-24.7-133.7C465.5,80.4,478.7,102.2,485.6,125.5z" style="fill:#205B9B;"/>
			</g>
			<g>
				<path d="M483.8,378.4c7,16.6,6,35.9-0.8,52.6c-2,4.9-4.4,9.7-7.1,14.4l-0.1-0.1c8.9-14.6,6.4-33.9-1.9-49.2
					c-2.9-5.2-6.4-10-10.5-14.4c1.5-11.6,0.4-23.5-5.1-33.9l0.1-0.1C469.4,355.9,478.6,365.9,483.8,378.4z" style="fill:#205B9B;"/>
			</g>
			<g>
				<path d="M475.9,445.4l0.1,0.1c-6.7,11.5-15.5,22.2-25.7,29.8c-27,20.2-68.9,26.4-102.2,21.3
					c4.1-4.6,8-9.3,11.7-14.1l0.1,0.1c20.4-0.4,40.1-8.9,56-21.6c15.9-12.8,28.1-29.6,37.6-47.7c4.7-9,8.6-20,10-31.3
					c4.1,4.3,7.6,9.1,10.5,14.4C482.2,411.4,484.7,430.8,475.9,445.4z" style="fill:#205B9B;"/>
			</g>
			<g>
				<path d="M447.4,64.3C484,104.6,479,152.2,472.1,198c-6.9,45.9-27.6,91.1-51,131.2c-12.1-4.2-24.5-7.6-36.7-11.5
					l0.2-0.6c29.9-41.7,40.4-96.7,28-146.5c-1.7-7-3.9-14-6.8-20.6c0.1-19.7-1.6-49.7-26.2-68.1C332.2,46.4,280,69.4,257.7,91
					c6.2-7.2,13.4-14.1,21.6-20.7c41.6-33.4,94.1-42.9,137.5-25.2C428.1,49.7,438.4,56.3,447.4,64.3z" style="fill:#88AEBA;"/>
			</g>
			<g>
				<path d="M421.1,329.2c4.3,1.5,8.6,3.1,12.8,4.9c1.4,0.6,2.8,1.2,4.2,1.8c7.1,3.3,14.1,7.2,20.4,11.9l-0.1,0.1
					c5.5,10.3,6.6,22.3,5.1,33.9c-8.5-9.1-19.2-16.2-30.5-21.7c-16.6-8.2-34.5-13.3-51.8-19.8s-34.4-14.6-47.6-27.6
					c-17.4-17.1-26.6-34.4-22.7-69.1c-0.5,9.9,1.3,19.8,5.3,27.4c10.7,20.2,31.4,33.1,52.7,41.4c5.1,2,10.2,3.7,15.4,5.4
					C396.6,321.8,409,325,421.1,329.2z" style="fill:#6592B0;"/>
			</g>
			<g>
				<path d="M300.8,240.1c-7.7,1.8-15.5,4.2-23.1,7.1c-5.3-34.5,0.2-70.8,17.2-101.2c20.8,5.3,40.6,14.4,58.1,26.8
					c15.8,11.2,30.2,25.5,37.2,43.6c-3.5,6.7-7.5,13.2-12,19.3H378c1.2-5.6,0.9-11.5-1-16.6c-3.3-9.1-11.2-16.4-20.6-19
					c-8.2-2.3-17.3-0.8-24.5,3.7c-13.3,7.5-20.2,23.8-21,39.9c-3.9,34.8,5.2,52,22.7,69.1c13.2,13,30.3,21.1,47.6,27.6
					c17.3,6.5,35.2,11.6,51.8,19.8c11.2,5.5,22,12.6,30.5,21.7c-1.4,11.3-5.4,22.4-10,31.3c-9.4,18.1-21.7,34.9-37.6,47.7
					c-15.9,12.8-35.6,21.2-56,21.6l-0.1-0.1c-3.7,4.9-7.6,9.6-11.7,14.1c-0.1,0-0.2,0-0.3,0c-19.2-4.5-39.1-11.9-56.9-21.4v-0.1
					c40.9-15.3,82.6-51,97.5-89.7c-27.4-13.3-52.3-30.1-67.5-56.5s-22.2-57.4-19.8-87.8L300.8,240.1z" style="fill:#205B9B;"/>
			</g>
			<g>
				<path d="M380,287.6c23.6-24.5,29.4-50.6,22-77c-1.1-3.8-2.5-7.6-4.2-11.3c4.9-13.3,7.7-27.2,7.9-41.3
					c0-2.4,0.1-5.1,0.1-8c2.8,6.7,5,13.7,6.8,20.6c12.4,49.8,1.9,104.8-28,146.5l-0.2,0.6c-5.2-1.7-10.3-3.4-15.4-5.4
					c-21.3-8.3-42.1-21.2-52.7-41.4c-4-7.6-5.8-17.5-5.3-27.4c0.8-16.1,7.7-32.5,21-39.9c-1,0.6-2,1.3-2.9,2
					c-11.1,9.5-12.6,22.3-8.2,33.3s16.1,18.5,27.9,18.2v0.1c-2.4,1.4-4.5,3.2-6.2,5.4c-10.6,14.5,2.9,32.6,18.8,33.7
					c7,0.5,14.4-2.8,18.1-8.7L380,287.6z" style="fill:#FE564F;"/>
			</g>
			<g>
				<path d="M379.6,81.8c24.5,18.4,26.3,48.4,26.2,68.1c-4.4-10.3-10.2-19.9-18.3-27.6c-18.7-17.9-55.1-21.4-80.8,6.8
					c-13.2-2.8-26.7-3.8-40.2-3.3c-12,0.5-23.7,2.4-35,5.6c6.7-14.1,15-27.7,26.1-40.5C280,69.4,332.3,46.3,379.6,81.8z" style="fill:#4377A5;"/>
			</g>
			<g>
				<path d="M402,210.6c7.4,26.4,1.7,52.5-22,77l-0.5-0.1c0.2-0.4,0.4-0.8,0.6-1.1c1.9-3.7,2.3-8.1,1.6-12.3
					c-0.1-0.7-0.2-1.3-0.4-2l0,0c14.7-13.4,16.1-35.7,9.4-54.4c-0.2-0.5-0.4-1-0.6-1.5c2.9-5.5,5.4-11.1,7.5-16.9
					C399.5,203.1,400.9,206.9,402,210.6z" style="fill:#6592B0;"/>
			</g>
			<g>
				<path d="M372.8,247.8v-0.3c2.6-3.4,4.3-7.6,5.2-11.9h0.2c4.5-6.1,8.5-12.6,12-19.3c0.2,0.5,0.4,1,0.6,1.5
					c6.8,18.7,5.3,41-9.4,54.4l0,0c-2-7.7-7.9-14.4-15.5-16.8c-2.8-0.9-5.8-1.1-8.8-0.8v-0.1c3.6-4,8.9-6.4,14.3-6.6
					C371.9,247.8,372.4,247.8,372.8,247.8z" style="fill:#205B9B;"/>
			</g>
			<g>
				<path d="M397.8,199.3c-2.1,5.8-4.6,11.5-7.5,16.9c-7-18-21.4-32.4-37.2-43.6c-17.5-12.4-37.3-21.5-58.1-26.8
					c0.6-1.2,1.3-2.3,2-3.5c3-5.1,6.3-9.5,9.9-13.4c13.7,2.9,26.9,7.7,39,14.7C366.2,155.5,387.4,176.8,397.8,199.3z" style="fill:#88AEBA;"/>
			</g>
			<g>
				<path d="M381.8,274.1c0.7,4.1,0.3,8.5-1.6,12.3c-0.2,0.4-0.4,0.8-0.6,1.1c-3.7,5.9-11.1,9.2-18.1,8.7
					c-15.8-1.1-29.4-19.2-18.8-33.7c1.6-2.2,3.8-4.1,6.2-5.4c2.5-1.4,5.4-2.3,8.2-2.7c2.9-0.3,6-0.1,8.8,0.8
					c7.6,2.4,13.5,9.1,15.5,16.8C381.6,272.9,381.7,273.5,381.8,274.1z M363.1,276.9c0-4.2-3.4-7.7-7.7-7.7c-4.2,0-7.7,3.4-7.7,7.7
					c0,4.2,3.4,7.7,7.7,7.7C359.6,284.5,363.1,281,363.1,276.9z" style="fill:#FEE3E8;"/>
			</g>
			<g>
				<path d="M355.4,269.1c4.2,0,7.7,3.4,7.7,7.7c0,4.2-3.4,7.7-7.7,7.7c-4.2,0-7.7-3.4-7.7-7.7S351.2,269.1,355.4,269.1
					z M358.4,277.1c0-2.4-2-4.4-4.4-4.4s-4.4,2-4.4,4.4s2,4.4,4.4,4.4S358.4,279.5,358.4,277.1z" style="fill:#88AEBA;"/>
			</g>
			<g>
				<path d="M354,272.6c2.4,0,4.4,2,4.4,4.4s-2,4.4-4.4,4.4s-4.4-2-4.4-4.4S351.6,272.6,354,272.6z M356,277.4
					c0-1.2-1-2.1-2.1-2.1c-1.2,0-2.1,1-2.1,2.1c0,1.2,0.9,2.1,2.1,2.1C355.1,279.4,356,278.4,356,277.4z" style="fill:#020201;"/>
			</g>
			<g>
				<circle cx="353.9" cy="277.4" r="2.1" style="fill:#205B9B;"/>
			</g>
			<g>
				<path d="M320.8,328.9c15.2,26.4,40.1,43.2,67.5,56.5c-14.9,38.7-56.6,74.5-97.5,89.7v0.1l0,0
					c-20.1-10.9-38.6-25.2-54.1-41.4c-29.5-30.7-51.8-71-60-112.7c4.1-5.3,8.7-10.6,13.7-15.7l0,0c1.6,7.2,4.3,14.8,8.5,20.9
					c1.6,2.3,3.3,4.6,5.8,6c2.4,1.4,5.2,1.4,7.7,0v-0.1c1.3,0.8,2.8,1.2,4.2,1.1c3.9-0.2,6.9-4,7.5-7.9s-0.5-7.8-1.5-11.6
					c-2.4-8.7-4.5-17.6-4-26.6c0.2-2.6,0.5-5.2,1.1-7.7c7-5.2,14.4-10.2,22-14.7l0,0c2.2,10.3,5.1,19.4,12,27.3
					c2,2.3,5.8,4.4,8.6,5.4c2.8,1,6.8-0.2,8.5-2.7c3.5,1.6,7.7,1.7,10.8-0.5c3.3-2.3,4.8-6.6,4.6-10.7c-0.1-4-1.5-7.9-2.7-11.8
					c-0.2-0.6-0.4-1.2-0.6-1.8c-2.3-7.4-4-15.1-5.2-22.8c7.6-2.9,15.4-5.3,23.1-7.1l0.2,0.9C298.7,271.4,305.7,302.4,320.8,328.9z
					 M294.9,339.9c0-2.2-1.8-4-4-4s-4,1.8-4,4s1.8,4,4,4C293.1,343.9,294.9,342.1,294.9,339.9z M250.1,426.4
					c4.4-0.8,7.2-5.7,7.2-10.2c-0.1-4.5-2.2-8.7-4.3-12.8c-2-3.8-3.9-7.6-5.9-11.4c-0.9,4.6-3,9.2-4.9,13.5c-1.8,4.3-3.2,9-2.2,13.5
					C241,423.4,244.5,426.9,250.1,426.4z M251.9,369c0-2.3-1.9-4.2-4.2-4.2c-2.3,0-4.2,1.9-4.2,4.2c0,2.3,1.9,4.2,4.2,4.2
					C250.1,373.2,251.9,371.4,251.9,369z" style="fill:#FFD14A;"/>
			</g>
			<g>
				<path d="M185.3,287.9c-0.3-2.1-0.8-4.1-0.9-6.2c-0.5-7.6,3.2-14.9,8.3-20.5c2.8-3.1,6.1-5.7,9.5-8.1
					c-1.7,1.8-7.2,8.4-10,21.4c-3.4,15.4,0.3,27.6,0.5,28.3l0,0c-0.8,0.8-1.7,1.7-2.5,2.5c-5,5.1-9.5,10.4-13.7,15.7
					c8.1,41.8,30.5,82,60,112.7c15.5,16.2,34,30.5,54.1,41.4l0,0c17.8,9.5,37.7,16.9,56.9,21.4c0.1,0,0.2,0,0.3,0
					c-5.6,6.3-11.6,12.4-17.9,18c-11.3,10.2-23.9,19.1-37.3,26.3c-34,13.2-73.9,11.4-105.4-6.8c-31.7-18.3-53.6-53.4-53.8-90
					c0-2.7,0.1-5.4,0.3-8c9.4-20.5,26-37.7,46.2-47.7l0.4-0.1c-2.9-8.8-6-17.5-9.2-26.1c-14.4-38.8-31.4-76.6-50.9-113
					c-0.7-1.4-1.5-2.7-2.2-4.1v-0.1c-1.5-3.2-2.9-6.6-4.2-10c6.8-18.6,17.9-35.6,31.9-49.7c18.2-18.5,41.4-32.3,66.5-39.1
					c4.7-1.3,9.4-2.3,14.2-3.1c-6.1,14.8-10.9,30.1-15.7,45.8c-6.8-4.9-15-7.8-23.4-8.4c-2.5-0.2-5.1-0.1-7.3,1s-3.9,3.6-3.5,6
					c0.5,2.4,2.7,4,4.8,5.3c1.5,0.9,2.9,1.9,4.4,2.8c6.9,4.3,13.8,8.7,20.7,13c-6.6-1.3-12.8-1.5-18.6-0.8
					c-9.1,1.1-17.3,4.5-24.8,9.3c-2.6,1.7-5.1,3.6-6.9,6.1s-2.9,5.7-2.3,8.7c0.6,3,3,5.8,6,6.2c3.1,0.4,5.9-1.3,8.5-3
					c0.2-0.1,0.4-0.3,0.6-0.4c4.9-3.2,10.2-5.8,15.9-7c5.7-1.3,11.8-1.1,17.2,1c-2.7,0.6-5.2,1.4-7.7,2.5
					c-11.2,4.7-20.2,13.7-25.8,24.1c-6.9,12.6-7.2,29.2,1.2,40.8c1.3,1.8,2.8,3.5,4.7,4.5c1.9,1.1,4.3,1.5,6.3,0.8
					c3.3-1.2,4.9-5.2,4.9-8.8C185.8,290.9,185.6,289.4,185.3,287.9z M183.3,396.4l-0.1,0.1c-8.1,9.8-14.2,21.2-18,33.4l0,0
					c-5.4,14.5-7.7,30-6.9,45.4c0.5,8.4,2.2,17.4,8.4,23.2c7.9,7.4,22.1,6.1,28.6-2.5c4.4-5.8,5.2-13.4,5.3-20.7
					c0.2-16-2.5-32.1-7.8-47.2c-1.2-5.1-2.7-10.2-4.2-15.2C186.8,407.5,185.1,401.9,183.3,396.4z" style="fill:#4377A5;"/>
			</g>
			<g>
				<path d="M306.7,129.1c-3.5,3.9-6.8,8.3-9.9,13.4c-0.7,1.1-1.4,2.3-2,3.5c-22.3-5.7-45.7-6.9-68.4-3.1
					c1.6-3.9,3.3-7.7,5-11.4c11.3-3.2,23-5.1,35-5.6C280,125.3,293.6,126.3,306.7,129.1z" style="fill:#205B9B;"/>
			</g>
			<g>
				<path d="M290.9,335.9c2.2,0,4,1.8,4,4s-1.8,4-4,4s-4-1.8-4-4S288.7,335.9,290.9,335.9z"/>
			</g>
			<g>
				<path d="M292.9,540.8c-15.1,8.1-31.3,13.9-48.3,16.6c-31.9,5.1-68.7-2-94.5-21.5c-5.4-4.1-10.3-8.8-14.6-13.8
					l0.2-0.2c-11.9-23.3-14-51.3-5.8-76.1c1.1-3.3,2.4-6.6,3.9-9.8c-0.2,2.7-0.3,5.3-0.3,8c0.2,36.6,22.2,71.7,53.8,90
					C219,552.2,258.9,554.1,292.9,540.8z" style="fill:#205B9B;"/>
			</g>
			<g>
				<path d="M270.7,294.8c-0.9-0.4-1.7-0.9-2.5-1.4c-3.9-2.8-6.4-7-8.4-11.3c-3.5-7.2-6.2-15.1-8-23
					c2.1,4.5,4.2,9.1,7.4,12.9c3.3,3.8,7.9,6.7,12.9,6.7s10.1-3.6,10.8-8.5l0,0c0.2,0.6,0.4,1.2,0.6,1.8c1.2,3.9,2.6,7.7,2.7,11.8
					c0.1,4-1.3,8.4-4.6,10.7C278.4,296.4,274.2,296.4,270.7,294.8z" style="fill:#FE564F;"/>
			</g>
			<g>
				<path d="M282.9,270L282.9,270c-0.7,5-5.8,8.5-10.8,8.5s-9.7-2.9-12.9-6.7c-3.2-3.8-5.4-8.3-7.4-12.9l0,0
					c8.4-4.5,17.1-8.5,25.9-11.8C278.9,254.9,280.6,262.5,282.9,270z" style="fill:#FD736B;"/>
			</g>
			<g>
				<path d="M202.3,253L202.3,253c-3.5,2.4-6.7,5.1-9.6,8.2c-5.1,5.6-8.8,12.9-8.3,20.5c0.1,2.1,0.6,4.1,0.9,6.2
					c-8.3-0.9-13.1-10-13.9-17.7c-0.7-7.7,1.3-15.5,5.8-21.9s8.7-11.9,17.2-17.3l0,0c2.5-1,5-1.9,7.7-2.5c-5.4-2.1-11.5-2.2-17.2-1
					c-5.7,1.3-11,3.9-15.9,7c-0.2,0.1-0.4,0.3-0.6,0.4l-0.2-0.3c-1.4-6.4,0.2-13.3,4.4-18.4c3.9-4.7,8.6-7.9,15.3-8.7l0,0
					c5.8-0.7,12-0.5,18.6,0.8c-6.9-4.3-13.8-8.7-20.7-13l0,0c-4.3-4.2-0.6-8.7,2.4-9.8c3.5-1.3,7.7-1.2,10.9-0.8
					c3.5,0.4,8.4,2.3,11.6,4c4.9-15.7,9.7-31,15.7-45.8c22.6-3.9,46-2.6,68.4,3.1c-17,30.4-22.5,66.7-17.2,101.2
					c-8.8,3.3-17.5,7.3-25.9,11.8c-1-4.1-1.7-8.3-2.1-12.4c-2.7,0.9-5.3,2-7.8,3.4c-5.4,3-10.2,7.1-14,12
					c-3.9,5.1-6.7,11.1-8.2,17.3c-7.7,5.7-14.9,11.8-21.6,18.2c-0.1,0.1-0.3,0.3-0.4,0.4c-0.6-4.1-0.9-8.2-0.8-12.4
					c0.3-13.5,4.7-27.1,13.1-37.6C207.4,249.6,204.8,251.2,202.3,253z" style="fill:#88AEBA;"/>
			</g>
			<g>
				<path d="M268.2,293.4c0.8,0.6,1.6,1,2.5,1.4c-1.7,2.4-5.7,3.6-8.5,2.7c-2.8-1-6.6-3.1-8.6-5.4
					c-6.9-7.9-9.7-17-12-27.3l0,0c1-0.6,1.9-1.1,2.9-1.7c2.4-1.4,4.8-2.7,7.2-4l0,0c1.8,8,4.5,15.9,8,23
					C261.9,286.4,264.4,290.6,268.2,293.4z" style="fill:#FE9B19;"/>
			</g>
			<g>
				<path d="M257.2,416c0,4.5-2.7,9.4-7.2,10.2c-5.6,0.6-9.1-2.9-10.1-7.4s0.4-9.2,2.2-13.5s4-8.9,4.9-13.5
					c2,3.8,3.9,7.6,5.9,11.4C255.1,407.4,257.2,411.5,257.2,416z" style="fill:#88AEBA;"/>
			</g>
			<g>
				<path d="M251.7,259c-2.4,1.3-4.8,2.6-7.2,4l0,0c-1.1-4.3-2.2-11-2.7-12.9V250c2.5-1.4,5.1-2.5,7.8-3.4
					C250.1,250.8,250.8,254.9,251.7,259z" style="fill:#205B9B;"/>
			</g>
			<g>
				<circle cx="247.7" cy="369" r="4.2"/>
			</g>
			<g>
				<path d="M244.5,262.9L244.5,262.9c-1,0.6-1.9,1.2-2.9,1.7c-7.6,4.5-15,9.5-22,14.7c1.5-6.3,4.3-12.2,8.2-17.3
					c3.8-4.9,8.6-9,14-12v0.1C242.3,252,243.4,258.6,244.5,262.9z" style="fill:#4377A5;"/>
			</g>
			<g>
				<path d="M231.6,131.4c-1.8,3.8-3.5,7.6-5,11.4c-4.8,0.8-9.5,1.9-14.2,3.1c-25.1,6.8-48.3,20.6-66.5,39.1l-0.1-0.1
					C169.6,160,199,140.6,231.6,131.4z" style="fill:#88AEBA;"/>
			</g>
			<g>
				<path d="M222.5,313.6c1.1,3.8,2.2,7.7,1.5,11.6c-0.6,3.9-3.6,7.7-7.5,7.9c-1.5,0.1-2.9-0.4-4.2-1.1
					c-0.7-0.4-1.4-1-2-1.6c-1.7-1.6-2.8-3.7-3.9-5.8c-4.3-8.4-7.3-17.4-8.7-26.8c0.1-0.1,0.3-0.3,0.4-0.4c0.4,1.7,1,3.3,1.7,4.9
					c1.9,4.4,5.1,8.3,9.4,10.5S218.3,315.9,222.5,313.6z" style="fill:#FE564F;"/>
			</g>
			<g>
				<path d="M220.8,79.2c0.4,2.6,0.4,5.3-0.3,7.9c-1.3,5.1-3.4,9.4-6.6,13.7c-2.5,3.4-5.8,2.7-6-0.9
					c0-5.2-2.7-8.4-6.6-11.7c-3.9-3.3-8.7-5.6-13.1-8.1c-4.5-2.5-8.9-5.6-11.6-9.9c-2-3.1-2.9-7.5-0.7-10.4
					c2.4-3.3,7.8-3.3,11.2-0.9c3.4,2.4,5.2,6.4,6.5,10.3c0.1-1.9,0.4-3.8,1.1-5.6c0.8-1.7,2.1-3.3,3.8-4c2-0.8,4.3-0.4,6.1,0.7
					c1.8,1.1,3.2,2.9,4.2,4.8c2,3.9,2.6,8.5,1.6,12.8C213.4,70.1,219.7,72.7,220.8,79.2z" style="fill:#E54438;"/>
			</g>
			<g>
				<path d="M219.6,279.4c-0.6,2.5-1,5.1-1.1,7.7c-0.5,9,1.6,17.9,4,26.6c-4.2,2.3-9.2,1.6-13.4-0.6s-7.4-6.1-9.4-10.5
					c-0.7-1.6-1.2-3.2-1.7-4.9C204.7,291.2,212,285.1,219.6,279.4z" style="fill:#FD736B;"/>
			</g>
			<g>
				<path d="M192.8,302.8L192.8,302.8c1.6-1.6,3.2-3.2,4.8-4.7c1.4,9.3,4.4,18.4,8.7,26.8c1.1,2.1,2.2,4.2,3.9,5.8
					c0.6,0.6,1.3,1.1,2,1.6v0.1c-2.4,1.4-5.2,1.4-7.7,0c-2.4-1.4-4.2-3.7-5.8-6c-4.1-6.1-6.8-13.7-8.5-20.9l0,0
					C191.1,304.4,191.9,303.5,192.8,302.8z" style="fill:#FE9B19;"/>
			</g>
			<g>
				<path d="M210.8,188.8c-3.2-1.7-8.1-3.5-11.6-4c-3.2-0.4-7.4-0.5-10.9,0.8c-3,1.1-6.7,5.6-2.4,9.8l0,0
					c-1.5-0.9-3-1.8-4.4-2.8c-2.1-1.3-4.4-2.9-4.8-5.3c-0.5-2.4,1.3-4.9,3.5-6s4.8-1.2,7.3-1C195.8,180.8,204,183.8,210.8,188.8z" style="fill:#FE564F;"/>
			</g>
			<g>
				<path d="M202.3,253c2.5-1.8,5.1-3.4,7.6-5c-8.5,10.5-12.8,24.1-13.1,37.6c-0.1,4.1,0.2,8.3,0.8,12.4
					c-1.6,1.6-3.2,3.1-4.8,4.7c-0.2-0.6-3.9-12.9-0.5-28.3C195.1,261.4,200.6,254.9,202.3,253L202.3,253z" style="fill:#205B9B;"/>
			</g>
			<g>
				<path d="M192.7,428.2c5.3,15.1,8,31.1,7.8,47.2c-0.1,7.2-0.9,14.9-5.3,20.7c-6.5,8.6-20.7,9.8-28.6,2.5
					c-6.2-5.8-7.9-14.8-8.4-23.2c-0.9-15.4,1.5-31,6.9-45.4c-2.8,8.8-4.4,18-4.6,27.3c-0.3,10.5,3.5,23.6,13.8,25
					c9,1.2,16.2-7.6,18.8-16.3C196.9,453.9,195.6,440.9,192.7,428.2z" style="fill:#6592B0;"/>
			</g>
			<g>
				<path d="M194.4,230.9L194.4,230.9c-8.5,5.3-12.7,10.9-17.2,17.3c-4.5,6.4-6.5,14.2-5.8,21.9
					c0.7,7.7,5.6,16.8,13.9,17.7c0.2,1.5,0.4,3,0.4,4.5c0,3.6-1.6,7.5-4.9,8.8c-2.1,0.8-4.4,0.3-6.3-0.8c-1.9-1.1-3.4-2.8-4.7-4.5
					c-8.4-11.6-8.1-28.2-1.2-40.8C174.3,244.6,183.2,235.6,194.4,230.9z" style="fill:#FE564F;"/>
			</g>
			<g>
				<path d="M192.7,428.2c2.9,12.6,4.2,25.5,0.5,37.8c-2.7,8.6-9.9,17.5-18.8,16.3c-10.4-1.4-14.1-14.6-13.8-25
					c0.2-9.3,1.8-18.5,4.6-27.3l0,0c3.8-12.1,9.9-23.5,18-33.4l0.1-0.1c1.8,5.5,3.5,11,5.2,16.6C190,418,191.5,423.1,192.7,428.2z" style="fill:#D9978F;"/>
			</g>
			<g>
				<path d="M187.9,207.6L187.9,207.6c-6.7,0.8-11.4,4-15.3,8.7c-4.2,5-5.8,12-4.4,18.4l0.2,0.3c-2.6,1.7-5.5,3.5-8.5,3
					c-3.1-0.4-5.5-3.2-6-6.2c-0.6-3,0.5-6.2,2.3-8.7s4.3-4.4,6.9-6.1C170.6,212.1,178.8,208.8,187.9,207.6z" style="fill:#FE564F;"/>
			</g>
			<g>
				<path d="M170.6,93c12.1,0,21.9,9.8,21.9,21.9s-9.8,21.9-21.9,21.9c-10,0-18.5-6.7-21.1-15.9
					c-0.5-1.9-0.8-3.9-0.8-6c0-10.8,7.9-19.8,18.2-21.6C168.1,93.1,169.3,93,170.6,93z M182,125.4c0-3-2.4-5.4-5.4-5.4
					s-5.4,2.4-5.4,5.4s2.4,5.4,5.4,5.4C179.6,130.8,182,128.4,182,125.4z M166.8,109.1c5.1-2.9,8.1-7.4,6.6-9.9
					c-1.4-2.5-6.8-2.2-11.9,0.8c-5.1,2.9-8.1,7.4-6.6,9.9C156.4,112.4,161.7,112,166.8,109.1z" style="fill:#F8BABA;"/>
			</g>
			<g>
				<path d="M176.6,120c3,0,5.4,2.4,5.4,5.4s-2.4,5.4-5.4,5.4s-5.4-2.4-5.4-5.4C171.2,122.4,173.6,120,176.6,120z" style="fill:#FE564F;"/>
			</g>
			<g>
				<path d="M180.5,388.1l-0.4,0.1c-20.2,10-36.8,27.2-46.2,47.7c1.5-19.7,8.7-38.9,19.1-55.8l-0.1-0.1
					c0.5-0.6,1.1-1.2,1.6-1.7c5.1-5.5,10.4-10.9,15.7-16l1-0.4C174.5,370.8,177.6,379.4,180.5,388.1z" style="fill:#88AEBA;"/>
			</g>
			<g>
				<path d="M173.4,99.2c1.4,2.5-1.5,6.9-6.6,9.9c-5.1,2.9-10.4,3.3-11.9,0.8c-1.4-2.5,1.5-6.9,6.6-9.9
					C166.6,97.1,171.9,96.7,173.4,99.2z" style="fill:#FEE3E8;"/>
			</g>
			<g>
				<path d="M118.2,244.9c0.7,1.4,1.5,2.8,2.2,4.1c19.5,36.4,36.5,74.2,50.9,113l-1,0.4c-5.3,5.2-10.6,10.5-15.7,16
					l-0.2-0.2c-39-30.2-56.7-86.3-43.5-133.8c0.8-2.9,1.7-5.7,2.7-8.5C115,238.9,116.6,241.9,118.2,244.9
					C118.2,244.8,118.2,244.8,118.2,244.9z" style="fill:#D9978F;"/>
			</g>
			<g>
				<path d="M166.8,93.2L166.8,93.2c-10.3,1.8-18.2,10.8-18.2,21.7c0,2.1,0.3,4.1,0.8,6l-0.2,0.1
					c-8.5,1.9-15.8,7.9-18.9,16c-3.1,8.1-3.5,16.6-0.4,24.7c3,8.1,9.4,17.5,15.8,23.3l0.1,0.1c-14,14.2-25.1,31.1-31.9,49.7
					c-9.5-24.4-14.6-51.4-11.1-74.1c4.1-25.9,13.9-51.1,44.8-63.7C153.7,95.3,160.1,94,166.8,93.2z" style="fill:#88AEBA;"/>
			</g>
			<g>
				<path d="M152.9,380.1L152.9,380.1c-10.3,17-17.6,36.1-19,55.9c-1.5,3.2-2.8,6.5-3.9,9.8
					c-8.2,24.8-6.1,52.8,5.8,76.1l-0.2,0.2c-16.2-19.2-24.1-44.8-21.1-70.1C117.6,424.4,133.9,401,152.9,380.1z" style="fill:#4377A5;"/>
			</g>
			<g>
				<path d="M109.4,120.4c8.6-11.1,22.1-18.8,38.2-23.3c-30.9,12.6-40.7,37.8-44.8,63.7c-3.6,22.7,1.6,49.8,11.1,74.1
					c-0.1,0.4-0.3,0.8-0.4,1.1c-9.1-17.9-17.1-36.3-19.5-56.2C91.1,154.2,97.5,135.6,109.4,120.4z" style="fill:#4377A5;"/>
			</g>
			<g>
				<path d="M82.2,329.9c-1.4-2.2-2.7-4.4-3.3-6.9c-0.6-2.6-0.1-5.5,1.8-7.4c3.1-2.9,8.4-1.5,11.2,1.7
					c2.8,3.2,3.7,7.5,4.8,11.5c4.7,16.9,13.4,31.5,26.4,43.2c1.4,1.3,3.6,3.7,4.6,5.4c2,3.3,0.4,7.1-6.2,5.9
					c-4.8-0.9-8.9-3.7-10-9.3c-3.9-0.1-7.8-0.3-11.4-1.6c-3.6-1.3-7-3.9-8.3-7.5c-1.2-3.5,0.1-7.9,3.3-9.6l-0.2-0.2
					c-4.2-1.8-8.6-3.7-12.1-6.6c-3.6-2.9-6.3-7.2-6.4-11.8c0-1.8,0.4-3.7,1.5-5.1C78.9,330.4,80.6,329.6,82.2,329.9z" style="fill:#F36B3D;"/>
			</g>
		</g>
		<g>
			<g>
				<path d="M206.6,209.2c-0.1,0-0.3,0-0.4-0.1c-3.4-2.1-6.9-4.3-10.3-6.5c-3.5-2.2-6.9-4.4-10.4-6.5c-1.5-0.9-3-1.8-4.4-2.8
					c-2.2-1.4-4.7-3.1-5.1-5.8c-0.6-2.8,1.6-5.6,3.9-6.8c2-1,4.4-1.3,7.7-1.1c8.4,0.6,16.8,3.6,23.8,8.5c0.3,0.2,0.4,0.7,0.2,1
					c-0.2,0.3-0.7,0.4-1,0.2c-6.7-4.7-14.9-7.7-23-8.3c-3-0.2-5.2,0.1-6.9,0.9c-1.9,0.9-3.5,3.1-3.1,5.2c0.4,2.1,2.5,3.6,4.5,4.8
					c1.4,1,2.9,1.9,4.4,2.8c3.5,2.2,6.9,4.4,10.4,6.5c3.4,2.2,6.9,4.3,10.3,6.5c0.4,0.2,0.5,0.7,0.2,1
					C207.1,209.1,206.8,209.2,206.6,209.2z"/>
			</g>
			<g>
				<path d="M160.9,238.7c-0.4,0-0.8,0-1.1-0.1c-3.2-0.4-6-3.3-6.6-6.8c-0.6-2.9,0.3-6.3,2.4-9.3c2-2.7,4.7-4.7,7.1-6.3
					c8.3-5.3,16.5-8.4,25.1-9.4c6.1-0.7,12.4-0.5,18.8,0.8c0.4,0.1,0.7,0.5,0.6,0.9c-0.1,0.4-0.5,0.7-0.9,0.6
					c-6.3-1.2-12.5-1.5-18.4-0.8c-8.4,1-16.4,4-24.5,9.2c-2.3,1.5-4.9,3.4-6.7,5.9c-1.9,2.6-2.7,5.6-2.2,8.1
					c0.5,2.9,2.8,5.3,5.4,5.6c2.6,0.4,5.2-1,8-2.9c0.1-0.1,0.2-0.1,0.3-0.2c0.1-0.1,0.3-0.2,0.4-0.3c5.6-3.6,10.9-5.9,16.1-7.1
					c6.4-1.3,12.5-1,17.6,1c0.4,0.2,0.6,0.6,0.4,1c-0.2,0.4-0.6,0.6-1,0.4c-4.9-1.9-10.7-2.2-16.8-1c-5,1.1-10.1,3.4-15.7,6.9
					c-0.1,0.1-0.2,0.1-0.3,0.2c-0.1,0.1-0.3,0.2-0.4,0.3C166.7,236.9,163.9,238.7,160.9,238.7z"/>
			</g>
			<g>
				<path d="M202.3,253.8c-0.2,0-0.5-0.1-0.6-0.3c-0.2-0.3-0.2-0.8,0.2-1c2-1.5,4.1-2.8,6.2-4.1l1.5-0.9c0.3-0.2,0.7-0.4,0.9-0.5
					c0.4-0.2,0.8,0,1,0.3c0.2,0.4,0,0.8-0.3,1c-0.2,0.1-0.4,0.3-0.7,0.4l-1.5,1c-2,1.3-4.1,2.6-6.1,4
					C202.6,253.8,202.5,253.8,202.3,253.8z"/>
			</g>
			<g>
				<path d="M178.6,302.3c-1.5,0-3.1-0.4-4.5-1.3c-2.2-1.1-3.8-3.1-4.9-4.7c-8.2-11.3-8.7-28-1.2-41.6c6-11.2,15.3-19.9,26.2-24.4
					c2.5-1.1,5-1.9,7.8-2.5c0.4-0.1,0.8,0.2,0.9,0.6c0.1,0.4-0.2,0.8-0.6,0.9c-2.7,0.6-5.2,1.4-7.6,2.5
					c-10.5,4.4-19.6,12.9-25.4,23.8c-7.2,13.1-6.7,29.2,1.1,40c1.6,2.2,2.9,3.5,4.4,4.3c1.8,1.1,4,1.3,5.7,0.8c3-1.1,4.4-5,4.4-8.1
					c0-1.5-0.2-3-0.4-4.4c-0.1-0.7-0.2-1.4-0.3-2.1c-0.2-1.3-0.5-2.7-0.6-4.2c-0.5-7,2.6-14.5,8.5-21c2.4-2.7,5.4-5.2,9.6-8.2
					c0.3-0.2,0.8-0.2,1,0.2c0.2,0.3,0.2,0.8-0.2,1c-4.1,2.9-7,5.4-9.4,8c-5.7,6.2-8.5,13.3-8.1,19.9c0.1,1.3,0.3,2.6,0.5,4
					c0.1,0.7,0.3,1.4,0.4,2.2c0.2,1.5,0.4,3.1,0.4,4.6c0,3.8-1.7,8.1-5.4,9.5C180.3,302.1,179.5,302.3,178.6,302.3z"/>
			</g>
			<g>
				<path d="M168.2,234.8c-0.1,0-0.1,0-0.1-0.1c-1.4-6.5,0.2-13.4,4.4-18.5c4.3-5.2,9.2-8,15.4-8.7c0.4-0.1,0.9-0.1,1.4-0.1
					c0.1,0,0.1,0.1,0.1,0.1s-0.1,0.1-0.1,0.1c-0.5,0-1,0-1.4,0.1c-6.1,0.7-10.9,3.5-15.2,8.7c-4.1,5-5.8,11.9-4.4,18.3
					C168.3,234.7,168.3,234.8,168.2,234.8C168.2,234.8,168.2,234.8,168.2,234.8z"/>
			</g>
			<g>
				<path d="M185.9,195.5C185.9,195.5,185.8,195.5,185.9,195.5c-2.1-2-2.2-4-2-5.2c0.5-2.3,2.5-4.1,4.3-4.8c3.6-1.3,8-1.2,11-0.8
					c3.6,0.4,8.5,2.4,11.6,4c0.1,0,0.1,0.1,0.1,0.2c0,0.1-0.1,0.1-0.2,0.1c-3.1-1.6-8-3.6-11.6-4c-3-0.4-7.3-0.5-10.8,0.8
					c-1.7,0.6-3.7,2.4-4.2,4.6c-0.4,1.7,0.3,3.5,1.8,5C186,195.3,186,195.4,185.9,195.5C186,195.5,185.9,195.5,185.9,195.5z"/>
			</g>
			<g>
				<path d="M216,334.1c-1.4,0-2.9-0.4-4.2-1.2c-0.8-0.5-1.5-1.1-2.1-1.7c-1.8-1.7-2.9-3.9-4-6c-4.4-8.6-7.4-17.7-8.8-27
					c-0.6-4.3-0.9-8.5-0.8-12.5c0.3-14.2,5.1-27.8,13.4-38.2c0.3-0.3,0.7-0.4,1.1-0.1c0.3,0.3,0.4,0.7,0.1,1.1
					c-8.1,10.1-12.7,23.3-13,37.2c-0.1,3.9,0.2,8,0.8,12.3c1.4,9.1,4.3,18.1,8.6,26.6c1.1,2.1,2.1,4.1,3.7,5.6
					c0.6,0.6,1.2,1,1.9,1.5c1.1,0.7,2.5,1,3.7,1c3.6-0.2,6.3-3.8,6.8-7.3c0.6-3.6-0.4-7.3-1.4-10.8l-0.1-0.5c-2.2-8-4.5-17.4-4-26.8
					c0.2-3.2,0.6-5.6,1.1-7.8c1.5-6.4,4.3-12.4,8.3-17.6c3.8-4.9,8.7-9.2,14.2-12.2c2.4-1.4,5-2.5,7.9-3.5c0.4-0.1,0.8,0.1,0.9,0.5
					c0.1,0.4-0.1,0.8-0.5,0.9c-2.8,0.9-5.3,2-7.7,3.3c-5.3,2.9-10.1,7-13.8,11.8c-3.9,5.1-6.6,10.8-8.1,17c-0.5,2.1-0.8,4.5-1.1,7.6
					c-0.5,9.2,1.8,18.4,4,26.3l0.1,0.5c1,3.7,2,7.5,1.4,11.4c-0.6,4-3.7,8.3-8.2,8.5C216.3,334.1,216.1,334.1,216,334.1z"/>
			</g>
			<g>
				<path d="M185.4,288h-0.1c-8.1-0.9-13.3-9.8-14-17.8c-0.7-7.8,1.4-15.6,5.8-22c4.7-6.6,8.9-12.1,17.2-17.3c0.1,0,0.1,0,0.2,0
					c0,0.1,0,0.1,0,0.2c-8.3,5.2-12.5,10.6-17.2,17.3c-4.4,6.3-6.5,14.1-5.8,21.8c0.7,7.9,5.8,16.7,13.8,17.6l0.1,0
					c0.1,0,0.1,0.1,0.1,0.1S185.5,288,185.4,288z"/>
			</g>
			<g>
				<path d="M216.8,315.2c-2.5,0-5.1-0.7-7.7-2c-4.1-2.1-7.4-5.8-9.5-10.6c-0.8-1.9-1.4-3.4-1.7-4.9c-0.7-3-1.1-6-1.2-9.1
					c0-0.1,0.1-0.1,0.1-0.1c0.1,0,0.1,0.1,0.1,0.1c0.1,3.1,0.5,6.1,1.2,9.1c0.4,1.5,0.9,3,1.7,4.9c2,4.7,5.3,8.4,9.3,10.4
					c4.8,2.5,9.5,2.7,13.3,0.6c0.1,0,0.1,0,0.2,0c0,0.1,0,0.1,0,0.2C220.8,314.7,218.9,315.2,216.8,315.2z"/>
			</g>
			<g>
				<path d="M438,336.6c-0.1,0-0.3,0-0.4-0.1c-0.4-0.2-0.5-0.7-0.3-1c20.8-36.5,35.9-70.8,44.9-102c11-38.7,11.9-75.9,2.5-107.6
					c-7-23.6-20.5-45.2-38-60.9c-9.1-8.2-19.4-14.7-30.4-19.2c-43.2-17.6-95.6-8-136.7,25.1c-8.1,6.5-15.4,13.5-21.5,20.6
					c-10.2,11.7-18.7,24.9-26,40.3c-2.1,4.5-3.6,8-5,11.4c-6.1,15-11,30.6-15.7,45.7c-0.1,0.4-0.5,0.6-0.9,0.5
					c-0.4-0.1-0.6-0.5-0.5-0.9c4.7-15.1,9.6-30.8,15.7-45.9c1.4-3.4,2.9-6.9,5-11.4c7.4-15.6,16-28.9,26.2-40.7
					c6.2-7.2,13.5-14.2,21.7-20.8c41.6-33.4,94.6-43.1,138.3-25.3c11.2,4.5,21.5,11.1,30.8,19.4c17.7,15.8,31.4,37.7,38.4,61.5
					c9.5,31.9,8.6,69.4-2.5,108.4c-9,31.3-24.2,65.8-45.1,102.4C438.5,336.5,438.3,336.6,438,336.6z"/>
			</g>
			<g>
				<path d="M421.1,329.5C421.1,329.5,421.1,329.5,421.1,329.5c-0.1-0.1-0.1-0.1-0.1-0.2c28.3-48.6,45-91.5,51-131.2
					c3.4-22.3,6.4-46.1,4-68.9c-2.8-25.4-12.1-46.5-28.6-64.7c0,0,0-0.1,0-0.1c0,0-0.1-0.1-0.2-0.2l0.2-0.2l-0.1,0.1l0.1-0.1
					c0.1,0.1,0.2,0.2,0.2,0.3c16.5,18.2,25.9,39.4,28.7,64.8c2.5,22.9-0.6,46.6-4,68.9c-6,39.7-22.7,82.6-51,131.2
					C421.2,329.5,421.1,329.5,421.1,329.5z"/>
			</g>
			<g>
				<path d="M384.5,317.7c-0.2,0-0.3,0-0.4-0.1c-0.3-0.2-0.4-0.7-0.2-1c29.8-41.6,40.3-96.2,27.9-145.9c-2-7.7-4.2-14.4-6.8-20.5
					c-4.8-11.2-10.9-20.4-18.1-27.3c-9.6-9.2-23.3-14.2-37.7-13.7c-11.1,0.4-27.4,4.2-42.1,20.4c-3.7,4-6.9,8.4-9.8,13.3
					c-0.2,0.3-0.4,0.6-0.6,1c-0.5,0.8-1,1.6-1.4,2.5c-16.5,29.5-22.6,65.3-17.1,100.8c1.3,8,3,15.7,5.2,22.7l1.1,3.3
					c1.1,3.4,2.2,6.9,2.3,10.5c0.2,4.7-1.7,9.1-4.9,11.3c-3.1,2.2-7.5,2.4-11.5,0.6c-1-0.4-1.8-0.9-2.6-1.5c-4.1-3-6.7-7.5-8.6-11.6
					c-3.4-6.9-6.2-15-8.1-23.2c-0.1-0.4,0.2-0.8,0.6-0.9c0.4-0.1,0.8,0.2,0.9,0.6c1.8,8.1,4.6,16,7.9,22.8c1.9,3.9,4.3,8.2,8.2,11
					c0.7,0.5,1.5,0.9,2.4,1.3c3.6,1.6,7.4,1.5,10.1-0.4c2.9-2,4.5-5.8,4.3-10.1c-0.1-3.4-1.2-6.8-2.2-10.1l-1.1-3.3
					c-2.2-7.1-4-14.8-5.2-22.9c-5.5-35.8,0.6-71.9,17.3-101.7c0.4-0.9,0.9-1.7,1.4-2.6c0.2-0.3,0.4-0.6,0.6-0.9
					c2.9-5,6.2-9.4,10-13.5c11.7-12.9,27-20.4,43.1-20.9c14.7-0.5,28.9,4.6,38.7,14.1c7.4,7.1,13.6,16.5,18.5,27.8
					c2.6,6.2,4.8,12.9,6.8,20.7c12.5,50.2,2,105.2-28.1,147.1C385,317.6,384.7,317.7,384.5,317.7z"/>
			</g>
			<g>
				<path d="M251.8,259.8c-0.3,0-0.6-0.2-0.7-0.6c-1-4.3-1.7-8.4-2.1-12.5c0-0.4,0.3-0.8,0.7-0.8c0.4,0,0.8,0.3,0.8,0.7
					c0.4,4,1.1,8.1,2.1,12.3c0.1,0.4-0.2,0.8-0.6,0.9C251.9,259.8,251.9,259.8,251.8,259.8z"/>
			</g>
			<g>
				<path d="M378.3,235.7C378.3,235.7,378.2,235.7,378.3,235.7c-0.1-0.1-0.1-0.1-0.1-0.2c4.4-5.9,8.4-12.4,12-19.3
					c2.8-5.2,5.3-10.9,7.5-16.9c5-13.6,7.7-27.5,7.9-41.3c0-1.1,0-2.3,0-3.6c0-1.4,0.1-2.9,0.1-4.4c0.1-22.4-2.8-50.4-26.2-68
					c-11.1-8.3-23.2-13.9-35.9-16.6c-11.1-2.3-22.7-2.4-34.4-0.3c-19.1,3.5-38.3,13.2-51.5,25.9c-0.6,0.5-1.2,1.1-1.7,1.7
					c-0.3,0.3-0.5,0.6-0.8,0.8c0,0-0.1,0-0.2,0s0-0.1,0-0.2c0.3-0.3,0.5-0.5,0.8-0.8c0.5-0.6,1.1-1.2,1.7-1.7
					c13.2-12.7,32.4-22.5,51.6-26c11.7-2.2,23.3-2.1,34.5,0.3c12.7,2.7,24.8,8.3,36,16.6c23.5,17.6,26.4,45.7,26.2,68.2
					c0,1.5,0,3-0.1,4.4c0,1.3,0,2.5,0,3.6c-0.2,13.8-2.9,27.7-7.9,41.3c-2.2,6-4.7,11.7-7.5,16.9c-3.6,6.9-7.6,13.4-12,19.3
					C378.4,235.7,378.3,235.7,378.3,235.7z"/>
			</g>
			<g>
				<path d="M362.8,297.4c-0.5,0-1,0-1.5-0.1c-9-0.6-17.6-6.6-21.5-14.9c-3.2-7-2.6-14.2,2-20.4c1.7-2.3,4-4.3,6.5-5.7
					c2.5-1.4,5.4-2.4,8.5-2.8c3.3-0.3,6.5-0.1,9.2,0.8c7.7,2.4,14,9.3,16.2,17.5c0.2,0.8,0.3,1.4,0.4,2.1c0.8,4.5,0.2,9.1-1.7,12.8
					c-0.1,0.5-0.4,1-0.7,1.4C376.8,293.8,369.9,297.4,362.8,297.4z M359.5,255.4c-0.8,0-1.6,0-2.4,0.1c-2.8,0.4-5.5,1.3-7.8,2.6
					c-2.3,1.2-4.4,3.1-5.9,5.1c-4.1,5.6-4.7,12.1-1.8,18.4c3.6,7.6,11.5,13.2,19.8,13.7c6.9,0.5,13.8-2.8,17.2-8.2c0,0,0,0,0-0.1
					c0.2-0.3,0.4-0.6,0.4-0.8c0-0.1,0-0.1,0.1-0.2c1.7-3.4,2.2-7.5,1.5-11.7c-0.1-0.7-0.2-1.3-0.4-1.9c-2-7.6-7.8-13.9-14.8-16.1
					C363.7,255.7,361.6,255.4,359.5,255.4z"/>
			</g>
			<g>
				<path d="M357.1,255.1c-0.2,0-0.4-0.1-0.5-0.2c-0.3-0.3-0.3-0.8-0.1-1.1c3.7-4.1,9.1-6.6,14.8-6.8l1.4,0
					c5.1,0.2,10.2,2.4,13.8,5.9c0.3,0.3,0.3,0.8,0,1.1c-0.3,0.3-0.8,0.3-1.1,0c-3.4-3.3-8.1-5.3-12.8-5.5l-1.4,0
					c-5.2,0.2-10.3,2.6-13.7,6.4C357.5,255,357.3,255.1,357.1,255.1z"/>
			</g>
			<g>
				<path d="M372.9,248.3c-0.2,0-0.3,0-0.4-0.1c-0.3-0.2-0.4-0.7-0.2-1c2.4-3.2,4.2-7.4,5.1-11.6c1.2-5.6,0.8-11.3-1-16.2
					c-3.2-8.9-10.9-16-20.1-18.5c-7.8-2.2-16.8-0.8-23.9,3.6c-0.9,0.6-1.9,1.2-2.8,2c-0.3,0.3-0.8,0.2-1.1-0.1
					c-0.3-0.3-0.2-0.8,0.1-1.1c1-0.8,2-1.5,3-2.1c7.5-4.7,16.9-6.1,25.1-3.8c9.6,2.7,17.7,10.1,21.1,19.5c1.9,5.1,2.3,11.2,1,17
					c-0.9,4.5-2.8,8.8-5.3,12.2C373.4,248.2,373.1,248.3,372.9,248.3z"/>
			</g>
			<g>
				<path d="M371.5,499.2c-7.9,0-15.7-0.6-23.5-1.8h-0.2c-0.4,0-0.8-0.3-0.8-0.8s0.3-0.8,0.8-0.8h0.3c0,0,0.1,0,0.1,0
					c30.3,4.6,73.5-0.1,101.6-21.2c9.6-7.1,18.4-17.3,25.5-29.6c2.8-4.8,5.2-9.7,7.1-14.3c7.1-17.4,7.4-36.4,0.8-52
					c-4.7-11.4-13.2-21.6-25.2-30.3c-5.8-4.3-12.4-8.2-20.3-11.8l-4.2-1.8c-3.7-1.6-7.8-3.1-12.8-4.9c-7.4-2.6-15.1-4.9-22.5-7.1
					c-4.7-1.4-9.5-2.9-14.2-4.4c-5-1.6-10.2-3.4-15.4-5.4c-25.9-10.1-43.8-24.1-53.1-41.7c-4-7.6-5.9-17.5-5.4-27.8
					c0.9-18,9.1-33.5,21.3-40.5c0.3-0.2,0.5-0.4,0.7-0.5c0.4-0.2,0.8,0,1,0.3c0.2,0.4,0,0.8-0.3,1l0,0c-0.2,0.1-0.3,0.1-0.4,0.3
					c0,0-0.1,0.1-0.2,0.1c-11.8,6.7-19.7,21.7-20.6,39.3c-0.5,10.1,1.3,19.7,5.2,27c9.2,17.3,26.8,31.1,52.3,41.1
					c5.2,2,10.4,3.8,15.4,5.4c4.7,1.5,9.5,3,14.2,4.4c7.4,2.2,15.1,4.6,22.5,7.1c5,1.8,9.1,3.3,12.8,4.9l4.2,1.8
					c8,3.7,14.7,7.6,20.6,12c12.2,8.8,20.8,19.2,25.6,30.9c6.7,16,6.5,35.4-0.8,53.2c-1.9,4.7-4.3,9.6-7.1,14.5
					c-7.2,12.4-16.2,22.8-25.9,30C430.9,490.8,401.5,499.2,371.5,499.2z"/>
			</g>
			<g>
				<path d="M380,288.4c-0.2,0-0.4-0.1-0.5-0.2c-0.3-0.3-0.3-0.8,0-1.1c22.2-23,29.6-48.6,21.8-76.3c-1.1-3.7-2.5-7.5-4.2-11.2
					c-9.7-21-30-42.7-51.7-55.2c-11.6-6.7-24.6-11.6-38.8-14.6c-12.7-2.7-26.2-3.8-40-3.3c-11.8,0.5-23.5,2.4-34.8,5.6
					c-30.9,8.6-60.4,27.1-85.5,53.4c-0.3,0.3-0.8,0.3-1.1,0c-0.3-0.3-0.3-0.8,0-1.1c25.2-26.5,55-45.1,86.1-53.8
					c11.4-3.2,23.3-5.1,35.2-5.6c14-0.5,27.6,0.6,40.4,3.3c14.3,3,27.5,8,39.2,14.8c22,12.6,42.5,34.5,52.3,55.8
					c1.7,3.8,3.1,7.6,4.2,11.4c7.9,28.2,0.4,54.4-22.2,77.7C380.4,288.3,380.2,288.4,380,288.4z"/>
			</g>
			<g>
				<path d="M145.8,185.8c-0.2,0-0.4-0.1-0.5-0.2c-6.5-5.9-13-15.4-16-23.6c-3-8-2.9-16.7,0.4-25.2c3.3-8.3,10.7-14.6,19.4-16.5
					c0.4-0.1,0.8,0.2,0.9,0.6s-0.2,0.8-0.6,0.9c-8.2,1.8-15.3,7.7-18.4,15.5c-3.2,8.2-3.3,16.5-0.4,24.2c3,8,9.2,17.2,15.6,23
					c0.3,0.3,0.3,0.8,0.1,1.1C146.2,185.7,146,185.8,145.8,185.8z"/>
			</g>
			<g>
				<path d="M208,100.2c-0.2,0-0.4-0.2-0.4-0.4c0-4.9-2.5-8-6.5-11.4c-3-2.6-6.6-4.5-10.1-6.4c-1-0.5-2-1.1-2.9-1.6
					c-3.6-2-8.7-5.2-11.7-10c-2-3.2-3-7.7-0.7-10.8c2.6-3.6,8.3-3.4,11.7-1c3.6,2.6,5.5,7,6.6,10.5c0.1,0.2,0,0.4-0.2,0.5
					c-0.2,0.1-0.4,0-0.5-0.2c-1.1-3.4-2.9-7.7-6.4-10.1c-3.1-2.2-8.4-2.3-10.7,0.8c-2.1,2.8-1.2,7,0.7,10c2.9,4.7,8,7.8,11.5,9.8
					c1,0.5,1.9,1.1,2.9,1.6c3.5,1.9,7.2,3.9,10.2,6.5c4.2,3.5,6.7,6.7,6.7,12C208.4,100.1,208.2,100.2,208,100.2z"/>
			</g>
			<g>
				<path d="M210.4,78.2C210.4,78.2,210.3,78.2,210.4,78.2c-0.3-0.1-0.4-0.3-0.4-0.5c1-4.2,0.4-8.7-1.6-12.5
					c-0.8-1.5-2.1-3.4-4.1-4.7c-1.8-1.1-4-1.4-5.8-0.7c-1.9,0.8-3.1,2.7-3.6,3.8c-0.6,1.5-1,3.3-1.1,5.5c0,0.2-0.2,0.4-0.4,0.4
					c-0.2,0-0.4-0.2-0.4-0.4c0.1-2.2,0.5-4.1,1.1-5.7c0.6-1.2,1.8-3.3,4-4.2c2-0.8,4.4-0.5,6.4,0.7c2.1,1.3,3.5,3.4,4.3,4.9
					c2.1,4,2.7,8.7,1.6,13.1C210.7,78.1,210.6,78.2,210.4,78.2z"/>
			</g>
			<g>
				<path d="M210.5,103.4c-0.3,0-0.5,0-0.8-0.1c-1.2-0.4-2-1.6-2.1-3.4c0-0.2,0.1-0.4,0.4-0.4c0.2,0,0.4,0.1,0.4,0.4
					c0.1,1.4,0.7,2.4,1.6,2.7c1.1,0.3,2.6-0.4,3.7-2c3.2-4.3,5.3-8.6,6.5-13.6c0.6-2.3,0.7-4.9,0.3-7.8c-0.5-3.2-2.5-5.6-4.7-5.8
					c-2-0.2-3.8,1.4-5,4.5c-0.1,0.2-0.3,0.3-0.5,0.2c-0.2-0.1-0.3-0.3-0.2-0.5c1.3-3.4,3.4-5.2,5.7-5c2.6,0.2,4.8,2.9,5.4,6.4
					c0.4,2.9,0.3,5.6-0.3,8.1c-1.3,5.1-3.4,9.5-6.7,13.8C213.2,102.6,211.8,103.4,210.5,103.4z"/>
			</g>
			<g>
				<path d="M118.2,245.6c-0.3,0-0.5-0.1-0.7-0.4c-1.2-2.2-2.4-4.4-3.5-6.6l-1.1-2.2c-8.7-17.1-17.1-35.8-19.6-56.5
					c-2.8-23.9,2.1-42.9,15.5-60c8.3-10.7,21.6-18.8,38.6-23.6c6.3-1.8,12.8-3,19.3-3.8c0.4,0,0.8,0.2,0.8,0.7
					c0,0.4-0.2,0.8-0.7,0.8c-6.4,0.8-12.8,2-19.1,3.8c-16.7,4.7-29.7,12.6-37.8,23c-13.1,16.7-17.9,35.4-15.1,58.9
					c2.5,20.4,10.8,39,19.4,55.9l1.1,2.2c1.1,2.2,2.3,4.4,3.5,6.6c0.2,0.4,0.1,0.8-0.3,1C118.4,245.6,118.3,245.6,118.2,245.6z"/>
			</g>
			<g>
				<path d="M175.9,483.1c-0.6,0-1.1,0-1.7-0.1c-10.4-1.4-14.8-14.3-14.5-25.8c0.2-9.2,1.8-18.5,4.6-27.5c0.1-0.4,0.5-0.6,0.9-0.5
					c0.4,0.1,0.6,0.5,0.5,0.9c-2.8,8.9-4.4,18-4.6,27.1c-0.3,10.8,3.7,23,13.2,24.2c8.4,1.1,15.4-7.1,18-15.8
					c3.2-10.4,3.1-22.3-0.5-37.4c-1.2-5.1-2.7-10.3-4.2-15.2l-1-3.1c-1.4-4.4-2.8-9-4.2-13.5c-0.4-1.4-0.9-2.8-1.3-4.1
					c-0.5-1.4-0.9-2.8-1.4-4.2c-2.7-8.1-5.7-16.6-9.2-26.1c-14.4-38.8-31.5-76.8-50.9-112.9c-0.4-0.7-0.7-1.4-1.1-2
					c-0.4-0.7-0.8-1.4-1.1-2.1c-0.2-0.4,0-0.8,0.3-1c0.4-0.2,0.8,0,1,0.3c0.3,0.7,0.7,1.4,1.1,2c0.4,0.7,0.8,1.4,1.1,2.1
					c19.4,36.1,36.5,74.2,50.9,113.1c3.5,9.5,6.5,18,9.2,26.1c0.5,1.4,0.9,2.8,1.4,4.2c0.4,1.4,0.9,2.7,1.3,4.1
					c1.5,4.5,2.9,9,4.2,13.5l1,3.1c1.5,4.9,3,10.1,4.2,15.2c3.6,15.4,3.8,27.6,0.5,38.2C191.2,474.9,184.4,483.1,175.9,483.1z"/>
			</g>
			<g>
				<path d="M165.1,430.7c-0.1,0-0.1,0-0.2,0c-0.4-0.1-0.6-0.5-0.5-0.9c3.9-12.5,10-23.8,18.1-33.7c0.3-0.3,0.7-0.4,1.1-0.1
					c0.3,0.3,0.4,0.7,0.1,1.1c-8,9.7-14,20.9-17.9,33.1C165.7,430.5,165.4,430.7,165.1,430.7z"/>
			</g>
			<g>
				<path d="M224,559.7c-27.4,0-54.6-8.3-74.4-23.3c-5.3-3.9-10.2-8.6-14.7-13.9c-16.4-19.5-24.2-45.2-21.3-70.7
					c2.7-23.5,15-46.5,38.7-72.2c0.2-0.3,0.5-0.6,0.8-0.9c0.3-0.3,0.5-0.5,0.8-0.8c5.4-5.9,11-11.4,15.8-16.1c0.3-0.3,0.8-0.3,1.1,0
					c0.3,0.3,0.3,0.8,0,1.1c-4.7,4.6-10.3,10.2-15.7,16c-0.2,0.3-0.5,0.6-0.8,0.9c-0.3,0.3-0.5,0.5-0.8,0.8
					c-23.5,25.6-35.6,48.2-38.3,71.4c-2.9,25,4.8,50.4,20.9,69.5c4.4,5.2,9.3,9.8,14.5,13.7c24.5,18.5,60.5,26.7,93.9,21.4
					c16.2-2.6,32.3-8.1,48.1-16.5c13.3-7.2,25.8-16,37.1-26.2c6-5.4,11.8-11.3,17.8-17.9c4.1-4.6,8-9.3,11.7-14.1
					c10.2-13.2,19.6-27.8,28.7-44.6c0.2-0.4,0.7-0.5,1-0.3c0.4,0.2,0.5,0.7,0.3,1c-9.2,16.9-18.7,31.6-28.9,44.8
					c-3.7,4.8-7.6,9.5-11.7,14.1c-6.1,6.7-11.9,12.6-18,18.1c-11.4,10.3-24,19.2-37.4,26.4c-15.9,8.5-32.2,14.1-48.5,16.7
					C237.9,559.2,230.9,559.7,224,559.7z"/>
			</g>
			<g>
				<path d="M347.8,496.6C347.8,496.6,347.8,496.6,347.8,496.6c-20-4.7-39.7-12.1-57.1-21.4c-0.1,0-0.1-0.1-0.1-0.2
					c0-0.1,0.1-0.1,0.2-0.1c17.3,9.3,37,16.7,57,21.4c0.1,0,0.1,0.1,0.1,0.2C347.9,496.5,347.9,496.6,347.8,496.6z"/>
			</g>
			<g>
				<path d="M290.8,476.3c-0.2,0-0.4,0-0.6-0.2c-19.8-10.7-38.6-25.1-54.4-41.6c-31-32.2-52.4-72.5-60.3-113.3
					c-0.1-0.7,0.3-1.3,1-1.5c0.7-0.1,1.3,0.3,1.5,1c7.8,40.4,29,80.2,59.7,112.1c15.6,16.3,34.2,30.5,53.8,41.2
					c0.6,0.3,0.8,1.1,0.5,1.7C291.7,476.1,291.2,476.3,290.8,476.3z"/>
			</g>
			<g>
				<path d="M192.8,304c-0.3,0-0.6-0.1-0.9-0.4c-0.5-0.5-0.5-1.3,0-1.8c0.8-0.8,1.6-1.6,2.4-2.4c0.8-0.8,1.6-1.5,2.4-2.3l0.4-0.4
					c6.5-6.1,13.8-12.3,21.7-18.3c7.4-5.5,14.9-10.5,22.1-14.8c0.5-0.3,1-0.6,1.5-0.9c0.5-0.3,0.9-0.5,1.4-0.8
					c2.4-1.4,4.9-2.7,7.2-4c8.7-4.7,17.5-8.6,26.1-11.9c7.7-2.9,15.5-5.3,23.2-7.1c0.1-0.1,0.4-0.1,0.6-0.1c0.7,0,1.2,0.6,1.2,1.2
					c0,0.6-0.4,1.1-0.9,1.2c-0.1,0-0.2,0.1-0.4,0.1c-7.6,1.8-15.3,4.2-22.9,7c-8.5,3.2-17.2,7.1-25.8,11.7c-2.4,1.3-4.8,2.6-7.2,4
					c-0.5,0.3-1,0.6-1.5,0.9c-0.5,0.3-0.9,0.5-1.4,0.8c-7.2,4.3-14.6,9.2-21.9,14.6c-7.9,6-15.1,12.1-21.5,18.1l-0.4,0.4
					c-0.8,0.8-1.6,1.6-2.4,2.4c-0.8,0.8-1.6,1.5-2.4,2.3C193.4,303.9,193.1,304,192.8,304z M301,241.3
					C301,241.3,301,241.3,301,241.3C301,241.3,301,241.3,301,241.3z M300.7,238.9C300.7,238.9,300.7,238.9,300.7,238.9
					C300.7,238.9,300.7,238.9,300.7,238.9z"/>
			</g>
			<g>
				<path d="M176.7,322.2c-0.3,0-0.5-0.1-0.8-0.3c-0.5-0.4-0.6-1.2-0.2-1.8c4.2-5.5,8.9-10.8,13.8-15.8c0.8-0.9,1.6-1.7,2.6-2.6
					c0.5-0.5,1.3-0.4,1.8,0.1c0.5,0.5,0.4,1.3-0.1,1.8c-0.9,0.8-1.6,1.5-2.4,2.4c-4.9,5-9.5,10.2-13.6,15.6
					C177.4,322,177.1,322.2,176.7,322.2z"/>
			</g>
			<g>
				<path d="M388.3,386.6c-0.2,0-0.4,0-0.5-0.1c-33.8-16.4-54.8-34-68-57c-15.3-26.5-22.4-58-20-88.5c0.1-0.7,0.6-1.2,1.3-1.1
					c0.7,0.1,1.2,0.7,1.1,1.3c-2.4,30,4.6,61,19.6,87.1c13,22.6,33.6,39.8,67,56c0.6,0.3,0.9,1,0.6,1.7
					C389.2,386.3,388.8,386.6,388.3,386.6z"/>
			</g>
			<g>
				<path d="M290.8,476.3c-0.5,0-1-0.3-1.2-0.8c-0.2-0.6,0.1-1.4,0.7-1.6c43-16.1,82.8-52.7,96.8-89c0.2-0.6,1-1,1.6-0.7
					c0.6,0.2,1,1,0.7,1.6c-14.2,36.9-54.6,74.1-98.2,90.4C291.1,476.3,290.9,476.3,290.8,476.3z"/>
			</g>
			<g>
				<path d="M179.5,503.5c-5,0-9.6-1.7-13-4.9c-6.7-6.3-8-16.3-8.4-23.3c-0.8-15.4,1.6-31.2,6.9-45.5c0.2-0.5,0.4-1.1,0.6-1.6
					c0.5-1.2,0.9-2.5,1.5-3.7c0-0.1,0.1-0.1,0.2-0.1c0.1,0,0.1,0.1,0.1,0.2c-0.6,1.2-1,2.4-1.5,3.7c-0.2,0.5-0.4,1.1-0.6,1.6
					c-5.3,14.3-7.7,29.9-6.9,45.3c0.9,14.5,5.2,20.1,8.4,23.1c3.7,3.5,9.1,5.2,14.7,4.7c5.6-0.5,10.7-3.1,13.8-7.2
					c4.5-5.9,5.2-13.7,5.3-20.6c0.2-15.8-2.5-32.1-7.8-47.2l-0.3-0.9c0-0.1,0-0.1,0.1-0.2c0.1,0,0.1,0,0.2,0.1l0.3,0.9
					c5.3,15.1,8,31.4,7.8,47.2c-0.1,6.9-0.8,14.8-5.3,20.8c-3.1,4.2-8.2,6.8-13.9,7.3C180.7,503.5,180.1,503.5,179.5,503.5z"/>
			</g>
			<g>
				<path d="M135.8,522.1c0,0-0.1,0-0.1-0.1c-5.8-11.4-9.5-24.4-10.5-37.5c-1-13.1,0.6-26.5,4.6-38.7c1.1-3.4,2.4-6.7,3.9-9.8
					c4.7-10.2,11.1-19.6,19.1-27.8c8-8.3,17.1-15,27.2-19.9c0.1,0,0.1,0,0.2,0.1c0,0.1,0,0.1-0.1,0.2c-10,5-19.1,11.7-27.1,19.9
					c-7.9,8.2-14.3,17.5-19,27.8c-1.5,3.1-2.8,6.4-3.9,9.8c-4,12.2-5.6,25.5-4.6,38.6c1,13.1,4.6,26,10.4,37.4
					C135.9,522,135.9,522,135.8,522.1C135.8,522.1,135.8,522.1,135.8,522.1z"/>
			</g>
			<g>
				<path d="M246.6,549.6c-2.5,0-5-0.1-7.5-0.2c-18.6-1.1-36.5-6.4-51.8-15.2c-15.7-9.1-29.1-22.3-38.7-38.2
					c-9.8-16.2-15-34.1-15.1-51.9c0-2.7,0.1-5.3,0.3-8c1.4-18.5,8-37.8,19.1-55.9c0-0.1,0.1-0.1,0.2,0s0.1,0.1,0,0.2
					c-11.1,18-17.7,37.3-19.1,55.7c-0.2,2.7-0.3,5.3-0.3,8c0.1,17.7,5.3,35.6,15.1,51.8c9.6,15.8,23,29,38.6,38.1
					c15.3,8.8,33.1,14.1,51.7,15.2c18.2,1.1,36.7-1.8,53.6-8.4c0.1,0,0.2-0.1,0.3-0.1c0.1,0,0.1,0,0.2-0.1c0.1,0,0.1,0,0.2,0.1
					c0,0.1,0,0.1-0.1,0.2c-0.1,0.1-0.2,0.1-0.3,0.1c-0.1,0-0.1,0-0.2,0.1C278.2,546.6,262.4,549.6,246.6,549.6z"/>
			</g>
			<g>
				<path d="M359.8,482.6c-0.1,0-0.1-0.1-0.1-0.1c0-0.1,0.1-0.1,0.1-0.1c19.1-0.4,39-8,55.9-21.6c14.4-11.6,27.1-27.6,37.6-47.7
					c5.2-9.9,8.7-21,10-31.3c1.7-12.9,0-24.3-5.1-33.8c0-0.1,0-0.1,0.1-0.2c0.1,0,0.1,0,0.2,0.1c5.1,9.6,6.8,21,5.1,34
					c-1.3,10.3-4.8,21.4-10,31.3c-10.5,20-23.2,36.1-37.6,47.7C398.9,474.5,379,482.2,359.8,482.6
					C359.8,482.6,359.8,482.6,359.8,482.6z"/>
			</g>
			<g>
				<path d="M474.2,448.3C474.2,448.3,474.2,448.3,474.2,448.3c-0.1-0.1-0.1-0.1-0.1-0.2l1.8-2.7c9.6-15.8,5.3-35.7-1.9-49.1
					c-2.9-5.3-6.4-10.1-10.5-14.4c-7.7-8.2-17.9-15.5-30.5-21.7c-11.4-5.6-23.7-9.9-35.5-14c-5.4-1.9-10.9-3.8-16.3-5.8
					c-28.1-10.5-40.2-20.3-47.6-27.6c-9.8-9.6-15.8-18.2-19.4-28c-4.2-11.3-5.2-24.4-3.3-41.2c0-0.4,0-0.9,0.1-1.3
					c0-0.1,0.1-0.1,0.2-0.1c0.1,0,0.1,0.1,0.1,0.2c-0.1,0.4-0.1,0.9-0.1,1.3c-1.9,16.8-0.8,29.9,3.3,41.1
					c3.6,9.7,9.5,18.3,19.3,27.9c14.1,13.9,32.8,22,47.6,27.6c5.4,2,10.9,3.9,16.3,5.8c11.8,4.1,24.1,8.4,35.5,14
					c12.6,6.2,22.8,13.5,30.5,21.7c4.1,4.3,7.6,9.1,10.5,14.4c7.3,13.4,11.6,33.4,1.9,49.3l-1.8,2.7
					C474.3,448.3,474.2,448.3,474.2,448.3z"/>
			</g>
			<g>
				<path d="M361.7,304.7c-0.5,0-1-0.4-1-1c-0.1-1.2-0.1-2.3-0.1-3.5c0-1.1,0-2.3-0.1-3.4c0-0.6,0.4-1,1-1c0.6,0,1,0.4,1,1
					c0,1.2,0.1,2.3,0.1,3.5c0,1.1,0,2.3,0.1,3.4C362.7,304.2,362.3,304.6,361.7,304.7C361.7,304.7,361.7,304.7,361.7,304.7z"/>
			</g>
			<g>
				<path d="M376.7,304.8c-0.4,0-0.7-0.2-0.9-0.6c-0.6-1.2-1.4-2.9-2.3-4.6c-0.8-1.7-1.6-3.4-2.2-4.6c-0.2-0.5,0-1.1,0.4-1.3
					c0.5-0.2,1.1,0,1.3,0.4c0.6,1.2,1.4,2.9,2.3,4.6c0.8,1.7,1.6,3.4,2.2,4.6c0.2,0.5,0,1.1-0.4,1.3
					C377,304.7,376.9,304.8,376.7,304.8z"/>
			</g>
			<g>
				<path d="M387.6,294.4c-0.2,0-0.5-0.1-0.6-0.2c-0.9-0.7-2.2-1.7-3.5-2.6c-1.5-1.1-3.1-2.2-4.1-3.1c-0.4-0.4-0.5-1-0.1-1.4
					c0.4-0.4,1-0.4,1.4-0.1c0.9,0.8,2.5,1.9,4,3c1.4,1,2.7,1.9,3.6,2.7c0.4,0.4,0.5,1,0.1,1.4C388.2,294.2,387.9,294.4,387.6,294.4z
					"/>
			</g>
			<g>
				<path d="M285.8,418.3c-0.5,0-1-0.3-1.3-0.7c-3.8-6.4-8.6-14.4-9.6-23.1c-1.4-11.3,4.5-19.6,10.5-22.4c7-3.4,15.2-1,20.5,2.4
					c5.7,3.7,9.9,9,14,14.2l0.2,0.3c0.5,0.7,0.4,1.6-0.2,2.1c-0.7,0.5-1.6,0.4-2.1-0.2l-0.2-0.3c-3.9-5-8-10.2-13.3-13.6
					c-4.6-2.9-11.6-5.1-17.5-2.2c-7,3.3-9.7,12.2-8.9,19.4c0.9,8.1,5.5,15.7,9.2,21.9c0.4,0.7,0.2,1.6-0.5,2.1
					C286.3,418.3,286.1,418.3,285.8,418.3z"/>
			</g>
			<g>
				<path d="M272.1,278.8c-4.5,0-9.3-2.5-13-6.7c-3.1-3.7-5.2-8.2-7.2-12.5l-0.2-0.4l-0.1-0.1c0,0,0-0.1,0-0.2s0.1,0,0.2,0l0.1,0.1
					c0,0,0,0,0,0l0.2,0.4c2,4.3,4.1,8.8,7.2,12.5c3.7,4.2,8.3,6.7,12.8,6.7c5.2,0,10-3.8,10.7-8.4c0-0.1,0.1-0.1,0.1-0.1
					c0.1,0,0.1,0.1,0.1,0.1C282.3,274.9,277.4,278.8,272.1,278.8z"/>
			</g>
			<g>
				<path d="M118.7,246.1c0,0-0.1,0-0.1-0.1c-0.1-0.2-0.2-0.4-0.3-0.6c-0.1-0.2-0.1-0.3-0.2-0.5c0,0,0,0,0-0.1v-0.1
					c-1.4-2.9-2.7-6.2-4.2-10c-10.4-26.7-14.4-53.1-11.1-74.2c2.4-15.4,6.4-27.1,12.4-36.9c7.5-12.3,18.2-21.1,32.5-26.9
					c0.2-0.1,0.4-0.2,0.6-0.3c0.2-0.1,0.4-0.1,0.6-0.2c0.1,0,0.1,0,0.2,0.1s0,0.1-0.1,0.2c-0.2,0.1-0.4,0.2-0.6,0.3
					c-0.2,0.1-0.4,0.1-0.6,0.2c-32.8,13.4-41.2,41-44.7,63.6c-3.2,21,0.7,47.3,11.1,74c1.4,3.8,2.8,7.1,4.2,10c0,0,0,0,0,0.1v0.1
					c0.1,0.2,0.1,0.3,0.2,0.5c0.1,0.2,0.2,0.4,0.3,0.6C118.8,245.9,118.8,246,118.7,246.1C118.7,246.1,118.7,246.1,118.7,246.1z"/>
			</g>
			<g>
				<path d="M143.6,139.1c-0.3,0-0.5-0.1-0.7-0.3c-0.4-0.4-0.4-1,0-1.4c1.5-1.4,3.2-3.1,4.8-4.8c1.7-1.7,3.4-3.4,4.9-4.8
					c0.4-0.4,1-0.4,1.4,0c0.4,0.4,0.4,1,0,1.4c-1.5,1.4-3.2,3.1-4.8,4.8c-1.7,1.7-3.4,3.4-4.9,4.8
					C144.1,139.1,143.9,139.1,143.6,139.1z"/>
			</g>
			<g>
				<path d="M158.6,151.9c-0.1,0-0.2,0-0.4-0.1c-0.5-0.2-0.8-0.8-0.6-1.3l0.4-1c1.1-2.7,3.9-9.9,5.1-13.9c0.2-0.5,0.7-0.8,1.2-0.7
					c0.5,0.2,0.8,0.7,0.7,1.2c-1.2,4-4.1,11.3-5.2,14l-0.4,1C159.4,151.6,159,151.9,158.6,151.9z"/>
			</g>
			<g>
				<path d="M180.6,147.1c-0.4,0-0.8-0.3-0.9-0.7c-0.5-1.5-1.1-3.3-1.7-5c-0.6-1.8-1.2-3.6-1.7-5.1c-0.2-0.5,0.1-1.1,0.6-1.3
					c0.5-0.2,1.1,0.1,1.3,0.6c0.5,1.5,1.1,3.3,1.7,5c0.6,1.8,1.2,3.6,1.7,5.1c0.2,0.5-0.1,1.1-0.6,1.3
					C180.8,147,180.7,147.1,180.6,147.1z"/>
			</g>
			<g>
				<path d="M199.5,135.6c-0.3,0-0.5-0.1-0.7-0.3c-0.1-0.1-6.2-6.1-9.7-8.4c-0.5-0.3-0.6-0.9-0.3-1.4c0.3-0.5,0.9-0.6,1.4-0.3
					c3.6,2.4,9.7,8.4,9.9,8.6c0.4,0.4,0.4,1,0,1.4C200,135.6,199.8,135.6,199.5,135.6z"/>
			</g>
			<g>
				<path d="M123.8,384c-0.7,0-1.5-0.1-2.4-0.2c-5.6-1.1-9.3-4.5-10.3-9.6c0-0.2,0.1-0.4,0.3-0.4c0.2,0,0.4,0.1,0.4,0.3
					c1.2,6.2,5.9,8.3,9.7,9c3,0.5,5.1,0.1,6.1-1.3c0.7-1.1,0.6-2.6-0.3-4c-0.9-1.6-3-3.9-4.5-5.3c-12.8-11.5-21.7-26.1-26.5-43.4
					c-0.1-0.5-0.2-0.9-0.4-1.4c-0.9-3.5-1.9-7.2-4.4-10c-1.6-1.8-4-3-6.3-3.1c-1.7-0.1-3.2,0.4-4.3,1.5c-1.7,1.7-2.3,4.4-1.7,7
					c0.6,2.5,1.9,4.7,3.3,6.8c0,0,0,0.1,0,0.1c0.1,0.1,0.1,0.2,0.1,0.3c0,0.2-0.2,0.4-0.4,0.4c-0.2,0-0.3-0.1-0.4-0.3
					c0,0-0.1-0.1-0.1-0.2c-1.3-2.1-2.7-4.4-3.3-7c-0.7-2.9,0.1-5.9,1.9-7.8c1.3-1.2,3-1.8,4.9-1.7c2.5,0.1,5.1,1.4,6.9,3.4
					c2.5,2.9,3.5,6.7,4.5,10.3c0.1,0.5,0.2,0.9,0.4,1.4c4.8,17.1,13.6,31.6,26.3,43c1.5,1.4,3.7,3.8,4.7,5.5
					c1.1,1.7,1.1,3.6,0.2,4.9C127.8,382.9,126.5,384,123.8,384z M82.6,329.9L82.6,329.9L82.6,329.9z"/>
			</g>
			<g>
				<path d="M94.8,355.5c0,0-0.1,0-0.1,0c-4.6-2-8.7-3.8-12.2-6.7c-4-3.3-6.4-7.8-6.5-12.1c0-1.5,0.3-3.7,1.6-5.3
					c1.3-1.4,3.2-2.1,4.8-1.8c0,0,0.1,0,0.2,0.1c0,0,0.1,0,0.1,0c0.2,0,0.4,0.2,0.4,0.4s-0.2,0.4-0.4,0.4c-0.1,0-0.2,0-0.3-0.1
					c0,0-0.1,0-0.1,0c-1.4-0.3-3,0.4-4.1,1.6c-1.2,1.5-1.4,3.5-1.4,4.8c0.1,4,2.4,8.3,6.3,11.5c3.4,2.8,7.5,4.6,12,6.5
					c0.2,0.1,0.3,0.3,0.2,0.5C95.1,355.4,94.9,355.5,94.8,355.5z"/>
			</g>
			<g>
				<path d="M111.4,374.3C111.4,374.3,111.4,374.3,111.4,374.3l-1,0c-3.5-0.2-7.2-0.4-10.6-1.6c-4.1-1.3-7.4-4.3-8.5-7.7
					c-1.3-3.8,0.2-8.3,3.5-10c0.1-0.1,0.2-0.1,0.3-0.1c0.1,0,0.1,0,0.2-0.1c0.2-0.1,0.4,0,0.5,0.2c0.1,0.2,0,0.4-0.2,0.5
					c-0.1,0.1-0.2,0.1-0.3,0.1c-0.1,0-0.1,0-0.2,0.1c-2.9,1.5-4.3,5.6-3.1,9.1c1.1,3.2,4.2,6,8.1,7.3c3.3,1.2,6.9,1.4,10.4,1.5l1,0
					c0.2,0,0.4,0.2,0.4,0.4C111.8,374.2,111.6,374.3,111.4,374.3z"/>
			</g>
			<g>
				<path d="M170.7,137.9c-10.2,0-19.3-6.8-22.1-16.6c-0.6-2.1-0.8-4.2-0.8-6.3c-0.1-11.2,7.9-20.7,18.9-22.6c0,0,0,0,0,0
					c1.2-0.2,2.6-0.3,4-0.3c12.6,0,22.9,10.3,22.9,22.9C193.6,127.6,183.3,137.9,170.7,137.9z M167.1,94.3
					c-10.1,1.7-17.4,10.4-17.3,20.6c0,1.9,0.3,3.8,0.8,5.8c2.5,8.9,10.8,15.2,20.1,15.2c11.5,0,20.9-9.4,20.9-20.9
					S182.2,94,170.7,94C169.4,94,168.2,94.1,167.1,94.3z"/>
			</g>
			<g>
				<path d="M176.6,131.9c-3.5,0-6.4-2.9-6.4-6.4c0-3.5,2.9-6.4,6.4-6.4s6.4,2.9,6.4,6.4C183,129,180.1,131.9,176.6,131.9z
					 M176.6,121c-2.5,0-4.4,1.9-4.4,4.4s1.9,4.4,4.4,4.4s4.4-1.9,4.4-4.4S179.1,121,176.6,121z"/>
			</g>
			<g>
				<path d="M354,281.7c-2.5,0-4.5-2.1-4.5-4.5s2.1-4.5,4.5-4.5c1.2,0,2.3,0.4,3.1,1.2c0.9,0.9,1.4,2.1,1.4,3.3
					C358.5,279.6,356.5,281.7,354,281.7z M354.2,272.9c-0.1,0-0.1,0-0.2,0c-2.3,0-4.3,2-4.3,4.3s2,4.3,4.3,4.3s4.3-2,4.3-4.3
					c0-1.2-0.5-2.3-1.3-3.1C356.2,273.3,355.2,272.9,354.2,272.9z"/>
			</g>
			<g>
				<path d="M353.9,279.6c-1.2,0-2.2-1-2.2-2.2s1-2.2,2.2-2.2c1.2,0,2.2,1,2.2,2.2S355.1,279.6,353.9,279.6z M353.9,275.4
					c-1.1,0-2,0.9-2,2s0.9,2,2,2s2-0.9,2-2S355,275.4,353.9,275.4z"/>
			</g>
		</g>
	</g>
</g>
</svg>
