<?xml version="1.0" encoding="utf-8"?>
<!-- Generator: Adobe Illustrator 22.0.1, SVG Export Plug-In . SVG Version: 6.00 Build 0)  -->
<svg version="1.1" id="Layer_5" xmlns="http://www.w3.org/2000/svg" xmlns:xlink="http://www.w3.org/1999/xlink" x="0px" y="0px" viewBox="0 0 600 600" style="enable-background:new 0 0 600 600;" xml:space="preserve">

<g>
	<g id="XMLID_1_">
		<g>
			<path d="M510.3,104.5c4.9,1.9,5.5,8.5,5.2,13.7c-0.4,5.1-0.8,10.1-1.3,15l-0.1,0c-2,17.2-14.1,38.4-29.8,46.1
				c0.1-6.4-0.1-12.8-0.6-19.2l0.1,0c5.4-2.9,7.1-9.6,8.2-15.6c1.7-8.7,3.4-17.3,5.1-26c0.7-3.6,1.5-7.4,3.6-10.3
				C502.8,105.2,506.8,103.2,510.3,104.5z" style="fill:#62B57F;"/>
			<path d="M514,133.2l0.1,0c-7,67.7-28.6,121.1-64.2,167.2c22.1-36,33.8-79,34.2-121.1
				C499.9,171.6,512,150.4,514,133.2z" style="fill:#008211;"/>
			<path d="M483.7,160.1c0.5,6.4,0.6,12.8,0.6,19.2c-0.4,0.2-0.8,0.4-1.2,0.6c-16.3,7.3-34.5,4.9-51-1.7
				c-0.2-0.1-0.5-0.1-0.7-0.2l0.1-0.2c-4.3-22.3-6-45.1-4.9-67.8c0.2-4.2,0.5-8.5,2.5-12.1c2-3.6,6.2-6.4,10.3-5.4
				c5.7,1.4,7.5,8.4,8.3,14.2c2.3,16.7,4.5,33.3,6.8,50c0.2,1.2,0.4,2.5,1.1,3.5c0.8,1,2.3,1.5,3.3,0.8c0.9-0.7,1-2,1-3.1
				c0-16.2-0.1-32.4-0.1-48.7c0-3.5,0-7.1,0.7-10.5l0.5,0.1c4-0.4,7.9,2.1,10.3,5.4c2.4,3.3,3.4,7.3,4.5,11.2
				C480,129.6,482.6,144.7,483.7,160.1z" style="fill:#008211;"/>
			<path d="M433.8,218.6c-1.7-1.8-3.6-3.4-5.5-4.8c-0.9-0.6-1.7-1.3-2.6-1.9c-0.5-0.4-1.1-0.8-1.6-1.1l0.3-0.4
				c-11.2-19.1-25.9-36.1-43.4-49.5l-0.5,0c0-0.3,0-0.5,0-0.8c0-2.1,0.2-4.2,1-6.2c1.3-3.2,4.2-6,7.6-6.4
				c6.3-0.7,12.8,7.5,16.6,12.7c6.8,9.3,14.7,14.8,25.7,17.8c0.2,0.1,0.5,0.1,0.7,0.2c16.5,6.5,34.6,8.9,51,1.7
				c0.4-0.2,0.8-0.4,1.2-0.6c-0.5,42.2-12.2,85.1-34.2,121.1c-0.2,0.2-0.4,0.5-0.5,0.7c-0.1-6.3-0.5-13.4-1.2-19.7
				c-2.2-19.5-7.7-38.6-16-56.3l-0.2-0.1c0-0.2,0.1-0.4,0.1-0.5c0.5-1.9,1-3.8,1.5-5.8L433.8,218.6z" style="fill:#62B57F;"/>
			<path d="M482.3,101.9c0.5,19.4,1,38.8,1.5,58.2l-0.1,0c-1.1-15.4-3.7-30.5-7.9-44.9c-1.1-3.9-2.2-7.9-4.5-11.2
				c-2.4-3.3-6.3-5.7-10.3-5.4l-0.5-0.1c0.4-2.1,1.1-4.1,2.2-5.9c2.8-4.9,9.4-8,14.3-5.1C481.5,90.2,482.2,96.5,482.3,101.9z" style="fill:#62B57F;"/>
			<path d="M477.5,402.2c1.9,4.2-0.4,9.2-3.6,12.6c-3.2,3.4-7.2,5.8-10.1,9.5c-2.8,3.7-4,9.3-1,12.7
				c1.8,2.1,4.8,2.9,6.5,5.1c2.7,3.4,1,8.9-2.5,11.5c-3.5,2.7-7,1.3-11.4,1.6c-3.3,0.3-7.7,1.4-7.8,4.8c-0.1,1.7,0.8,3.3,1.7,4.8
				c3.5,6.1,1.5,11.6-6.1,13.1c-5.2,1-19.6-3.7-15.9,2.8c4.9,8.3-1.1,17.6-15.9,13.1c-11.7-3.6-6.3,5.3-16.8,6.5
				c-3.6,0.4-10.4,0.9-12.8-2.6c-3.4-5,3.8-7,7.5-9.6c9-6.3,16.7-14.1,24.4-21.9c16.8-16.9,28.1-37.8,38.5-55.1
				c2.9-4.7,5.9-9.7,10.8-12.3C468,396.2,475.2,397.2,477.5,402.2z" style="fill:#F6B855;"/>
			<path d="M401,253.9c2.4-15.9,1.5-27.8-5.2-39.3c-0.1-0.3-0.3-0.7-0.6-1c-0.1-0.2-0.3-0.4-0.4-0.5c0,0,0,0,0,0
				c-1-1.3-2.2-2.3-3.6-3.2c-1.7-1.1-3.4-2-5.2-2.8c-7.5-3.4-16-4.6-24.4-5.1c-13.9-0.8-27.8,0.3-41.6,1.4
				c-22.6,1.8-71.1,6.1-66.7,8.9l0,0c-1.4,0.9,1.2,1.5,13.4-0.3c-1.5,1.3-2.9,2.7-3.9,4.5c-8.2,14.2-13.1,32.6-14,47.5
				c11.7-13,24.5-24.4,38.8-34.4c-0.7,13.6,1.1,27.4,5.1,40.4c7.3-14.4,15.6-27.7,25.6-40.4c4.1,13.2,8.2,26.4,12.4,39.6
				c6.8-13.6,13.8-27.1,21.1-40.6c3.1,12.4,7.1,24.9,11.2,37c4.6-13.9,11.6-27.8,17.4-39.4C387.2,235,395,244.4,401,253.9z
				 M186.9,326.5c-0.9,16.8,5.4,34.2,19,43.7c3.7,2.6,8,4.6,12.5,4.9c4.5,0.2,9.3-1.6,11.9-5.4c4.1-6,1.1-14.5-4.3-19.4
				c-5.4-4.9-12.5-7.2-19-10.3c-7.3-3.5-13.9-8.1-19.8-13.5L186.9,326.5z M187,325.8c0.2-2.8,0.5-5.5,1.1-8.2
				c3-14.2,10.7-27.2,20.3-38.5l0.1,0.1c0.7,2.5,1.6,5.4,3.1,7.4c1.5,2,4.2,3.5,6.6,2.9c2.7-0.7,4.4-3.6,4.6-6.3
				c0.2-2.8-0.7-5.5-1.6-8.2c-0.8-2.4-1.5-4.8-2.2-7.2c-6.5-22.6-8.8-46.9-2-69.2c0.5-1.7,1.1-3.3,1.6-4.9c1.2-3.2,2.3-7.4-0.3-9.6
				c-2.5-2.1-6.3-0.5-8.7,1.6c-5.6,4.6-9.2,11.5-9.8,18.7c-13.5,6.2-25.7,14.9-36.3,25.3l-0.4-0.4c3.7-12.3,9.6-24,17.1-34.4
				c16.5-22.7,39.5-40.9,65.9-50.5c26.4-9.6,47.6-11.7,80.7-10.2v0c3,0.8,6,1.7,8.9,2.7h0c2.7,0.9,5.4,1.9,8,2.9
				c15.8,10,30.2,22.4,41.8,37c1.9,3.3,4.2,6.3,6.7,9.2c3.5,5.2,6.6,10.7,9.3,16.4c12.3,26.1,14.9,57.4,3.9,84.1l0,0
				c11.6-19.1,20.6-39.9,26.5-61.4l0.2,0.1c8.3,17.8,13.8,36.9,16,56.3c0.7,6.3,1.1,13.4,1.2,19.7c-0.1,0.1-0.2,0.2-0.2,0.3l0.2,0.2
				c0,10.3-0.4,20.7-1.5,31.1l-0.9-0.1c-10.6,35.4-34.1,65.6-64.7,86.2c-30.6,20.6-67.6,31.3-104.5,32.2
				c-38.9,1-79.4-9.4-108.5-35.3c-29.1-25.9-42.9-71.9-32.4-110.3l-0.1,0c2.2-8.1,5.2-16.4,8.7-24.6c3.8-8.9,8.2-17.7,13.3-26.1
				c-0.3,6.5,0,13.1,1,19.6c3,19.4,12.6,37.9,26.7,51.4L187,325.8z M354.8,175.2c1.1-0.6,2-1.8,1.7-3.1c-0.2-1.4-1.7-2.2-3-2.5
				c-3.2-0.9-6.7-0.4-9.5,1.4c0.4-2.9-2.7-5.2-5.4-5c-2.7,0.2-5.2,1.8-7.2,4.3c-0.7-2.6-3.2-4.6-5.9-4.9c-2.7-0.2-5.5,1.4-6.6,3.8
				c0.3-2-0.9-4.1-2.7-5c-1.8-0.9-4-0.9-5.9-0.2c-1.9,0.7-3.6,1.9-5.1,3.2l-0.2-0.2c1-2.5-0.4-5.5-2.8-6.7c-2.4-1.2-5.3-0.9-7.7,0.3
				c-2.4,1.2-4.2,3.2-5.9,5.4c-1.8,2.4-3.5,5.5-2.4,8.3c0.7,1.8,2.5,3.1,4.3,3.7s3.9,0.6,5.8,0.6c18.3,0,36.5-1.4,54.8-2.7
				C352.4,175.9,353.7,175.8,354.8,175.2z" style="fill:#2D9759;"/>
			<path d="M447,332.6l0.9,0.1c-3.6,36.4-14.6,72.5-36.9,101c-22.9,29.1-51.1,52.6-86.9,61.9
				c-61.5,16-127.9-4.1-168.8-55c-0.9-1.1-1.8-2.3-2.7-3.5c-23.9-36-27.4-82.3-17.5-124.5c0.6-2.3,1.2-4.7,1.8-7.1l0.1,0
				c-10.4,38.4,3.4,84.4,32.4,110.3c29.1,25.9,69.5,36.3,108.5,35.3c36.9-0.9,73.9-11.6,104.5-32.2C413,398.2,436.5,368,447,332.6z" style="fill:#008211;"/>
			<path d="M433.8,218.6l-0.2,0.2c-0.5,1.9-1,3.9-1.5,5.8l-0.2-0.1c-2-4.2-4.1-8.3-6.4-12.3l0.2-0.3
				c0.9,0.6,1.7,1.3,2.6,1.9C430.2,215.2,432.1,216.8,433.8,218.6z" style="fill:#010100;"/>
			<path d="M432.1,224.5c0,0.2-0.1,0.4-0.1,0.5c-5.9,21.6-14.9,42.3-26.5,61.4l0,0c11.1-26.7,8.4-57.9-3.9-84.1
				c-2.7-5.7-5.8-11.2-9.3-16.4c2.3,2.6,4.8,4.9,7.4,7.2c7.6,6.5,16.2,11.8,24.4,17.6c0.5,0.4,1.1,0.8,1.6,1.1l-0.2,0.3
				c2.3,4,4.4,8.1,6.4,12.3L432.1,224.5z" style="fill:#008211;"/>
			<path d="M424.4,210.3l-0.3,0.4c-8.2-5.8-16.8-11.1-24.4-17.6c-2.6-2.2-5.1-4.6-7.4-7.2c-2.1-3.2-4.3-6.2-6.7-9.2
				c-2.3-3.9-3.9-8.1-4.7-12.6c-0.2-1.1-0.3-2.2-0.4-3.3l0.5,0C398.5,174.2,413.2,191.2,424.4,210.3z" style="fill:#008211;"/>
			<path d="M395.7,214.7c6.8,11.4,7.6,23.4,5.2,39.3c-6-9.6-13.7-19-20.7-27.6c-5.8,11.6-12.8,25.4-17.4,39.4
				c-4.1-12.1-8.1-24.6-11.2-37c-7.2,13.4-14.2,26.9-21.1,40.6c-4.1-13.2-8.2-26.4-12.4-39.6V227c24-0.6,48-1.7,71.6-5.6
				c2-0.3,4.3-0.8,5.4-2.5c0.8-1.1,1-2.5,0.6-3.9C395.8,214.9,395.8,214.8,395.7,214.7z" style="fill:#86AEBA;"/>
			<path d="M395.8,215c0.5,1.4,0.2,2.7-0.6,3.9c-1.1,1.7-3.4,2.2-5.4,2.5c-23.7,3.8-47.6,5-71.6,5.6
				c-5.9,0.1-11.8,0.3-17.7,0.4c-4.4,0.1-8.7,0.2-13,0.2c-4.7,0.1-9.5,0.2-14.2,0.3c-4,0.1-8.8-0.2-10.9-3.7c-1.4-2.3-1-5.4,0.4-7.8
				c1-1.7,2.4-3.1,3.9-4.5c0.6-0.1,1.2-0.2,1.8-0.3c28-4.2,56.1-6.3,84.4-7.2c2-0.1,4.1-0.1,6.2-0.1c-1.6,3.1-0.3,6.8,2,8.4
				c2.3,1.7,5.8,1.7,8.1,0c2.2-1.6,3.8-4.8,2.5-7.8c4.9,0.5,9.8,1.2,14.1,2.3l0.1-0.2c1.8,0.8,3.5,1.8,5.2,2.8
				c1.4,0.9,2.6,1.9,3.6,3.2c0,0,0,0,0,0c0.3,0.5,0.6,1,0.9,1.6C395.8,214.8,395.8,214.9,395.8,215z" style="fill:#F6B855;"/>
			<path d="M395.7,214.7c-0.3-0.5-0.6-1-0.9-1.6c0.1,0.2,0.3,0.4,0.4,0.5C395.4,214,395.6,214.3,395.7,214.7z" style="fill:#F6B855;"/>
			<path d="M395.2,70.9c0.5,8.1-2,17.2-4.1,25.1c-0.8,2.9-1.6,5.8-2.6,8.6l-0.4-0.1c4.3-12.8,1.8-28.6-6.5-39.2
				c-1.9-2.5-4.1-4.7-6.5-6.6c-0.1-7.1-0.8-14.2-2.4-21.2l0-0.1c4.9,2.3,9.5,5.9,13.4,10.9C392.3,55.8,394.7,62.8,395.2,70.9z" style="fill:#FF736B;"/>
			<path d="M381.6,65.1c8.2,10.7,10.8,26.5,6.5,39.2l0.4,0.1c-5.5,16.2-13.8,30.7-25.1,43.9l-0.5-0.5
				c-2.1-8.2-6.7-15.7-12.8-21.6c3.1-3.2,6-6.7,8.3-10.3c11.1-17,16.9-37.3,16.8-57.6C377.5,60.5,379.7,62.7,381.6,65.1z" style="fill:#E64337;"/>
			<path d="M266.7,211.9c-12.2,1.8-14.8,1.2-13.4,0.3l0,0c-4.4-2.8,44.1-7.1,66.7-8.9c13.8-1.1,27.7-2.2,41.6-1.4
				c8.3,0.5,16.8,1.7,24.4,5.1l-0.1,0.2c-4.4-1.1-9.2-1.9-14.1-2.3c-1.3-0.1-2.7-0.2-4-0.3c-0.6-0.8-1.5-1.2-2.5-1.2
				c-0.9,0-1.7,0.4-2.3,1c-1.2,0-2.5-0.1-3.7-0.1c-2.1,0-4.2,0-6.2,0.1c-28.3,0.9-56.4,3-84.4,7.2
				C267.9,211.8,267.3,211.8,266.7,211.9z" style="fill:#010100;"/>
			<path d="M380.9,164.2c0.8,4.5,2.5,8.7,4.7,12.6c-11.6-14.6-26-27-41.8-37c6.6,2.6,13,5.6,19.2,9.1
				c1.1,0.6,2.2,1.3,3.4,1.9c4.7,2.8,9.3,5.9,13.7,9.2l0.4,0c0,0.3,0,0.5,0,0.8C380.6,162,380.7,163.1,380.9,164.2z" style="fill:#62B57F;"/>
			<path d="M375.1,58.5c0.2,20.3-5.6,40.6-16.8,57.6c-2.3,3.5-5.2,7.1-8.3,10.3c-3.6-3.5-7.8-6.3-12.4-8.4
				c-12.3-5.6-26.8-6.3-39.3,1.6l-0.1-0.1c2.8-4.8,4.8-10.3,6.1-15.6c2.3-9.2,3.4-20.1,5.9-29.2c0.3-1,0.6-2.1,0.9-3.1l0.2,0.1
				c9-16,21.3-21.4,34.8-22.4C356.6,48.6,367.1,52,375.1,58.5z" style="fill:#FF564F;"/>
			<path d="M372.8,37.4c1.5,7,2.3,14.1,2.4,21.2c-8.1-6.5-18.6-9.9-28.9-9.2c-13.4,1-25.8,6.3-34.8,22.4l-0.2-0.1
				c5.5-17.7,15.1-27.6,29.5-34C351.1,33.1,362.6,32.4,372.8,37.4L372.8,37.4z" style="fill:#FF736B;"/>
			<path d="M371.7,205c1.3,3.1-0.3,6.2-2.5,7.8c-2.3,1.7-5.7,1.7-8.1,0c-2.2-1.7-3.6-5.3-2-8.4c1.2,0,2.5,0,3.7,0.1
				c-0.6,0.6-1,1.5-1,2.5c0,2,1.5,3.5,3.3,3.5c1.9,0,3.4-1.6,3.4-3.5c0-0.9-0.3-1.7-0.8-2.3C369,204.7,370.4,204.8,371.7,205z" style="fill:#86AEBA;"/>
			<path d="M367.7,204.7c0.5,0.6,0.8,1.4,0.8,2.3c0,2-1.5,3.5-3.4,3.5c-1.8,0-3.3-1.6-3.3-3.5c0-1,0.4-1.9,1-2.5
				C364.4,204.5,366.1,204.6,367.7,204.7z"/>
			<path d="M365.2,203.4c1,0,1.9,0.5,2.5,1.2c-1.6-0.1-3.3-0.2-4.9-0.2C363.4,203.8,364.2,203.4,365.2,203.4z"/>
			<path d="M343.8,139.8c-2.6-1-5.3-2-8-2.9c3.8-1.2,9.2-5.3,14.2-10.5c6.1,5.9,10.7,13.4,12.8,21.6l0.5,0.5
				c-0.1,0.1-0.2,0.2-0.3,0.3l-0.1,0.2C356.9,145.4,350.4,142.4,343.8,139.8z" style="fill:#DB968E;"/>
			<path d="M344.1,171c2.8-1.8,6.3-2.3,9.5-1.4c1.3,0.4,2.7,1.2,3,2.5c0.2,1.2-0.6,2.5-1.7,3.1
				c-1.1,0.6-2.4,0.7-3.6,0.8c-18.2,1.3-36.5,2.7-54.8,2.7c-2,0-4,0-5.8-0.6s-3.6-1.9-4.3-3.7c-1.1-2.8,0.6-5.9,2.4-8.3
				c1.6-2.1,3.5-4.1,5.9-5.4c2.4-1.2,5.3-1.6,7.7-0.3c2.4,1.2,3.8,4.3,2.8,6.7l0.2,0.2c1.6-1.3,3.2-2.5,5.1-3.2
				c1.9-0.7,4.1-0.7,5.9,0.2c1.8,0.9,3.1,3,2.7,5c1.1-2.5,3.9-4.1,6.6-3.8c2.7,0.2,5.2,2.3,5.9,4.9c1.9-2.5,4.4-4.1,7.2-4.3
				C341.4,165.8,344.5,168.1,344.1,171z" style="fill:#DB968E;"/>
			<path d="M350.1,126.4c-5,5.2-10.4,9.3-14.2,10.5h0c-2.9-1-5.9-1.9-8.9-2.7c-11.8-3.2-24-5-36.2-5.4v0
				c3-2.6,5.5-5.8,7.6-9.3l0.1,0.1c12.5-7.9,27-7.2,39.3-1.6C342.3,120,346.5,122.9,350.1,126.4z" style="fill:#E64337;"/>
			<path d="M220.2,143.7c21.8-10.8,46.2-15.7,70.5-14.9c12.2,0.4,24.4,2.2,36.2,5.4v0c-33.2-1.4-54.4,0.7-80.7,10.2
				c-26.4,9.6-49.4,27.8-65.9,50.5c-7.6,10.4-13.4,22.1-17.1,34.4l0.4,0.4c-0.7,0.7-1.4,1.3-2,2c-6,6.2-11.5,13-16.3,20.2l-0.1-0.1
				c0.3-2.6,0.6-5.1,1.1-7.7c1.7-10.3,4.7-20.5,8.8-30.2c7-16.6,17.2-31.9,30-44.8c4.7-4.7,9.7-9.1,15-13.1c4.5-3.3,9.1-6.4,14-9.1
				C216.1,145.9,218.1,144.8,220.2,143.7z" style="fill:#62B57F;"/>
			<path d="M318.2,227v2.7c-10,12.6-18.3,26-25.6,40.4c-4-13.1-5.7-26.8-5.1-40.4l0-1.9c4.3-0.1,8.7-0.2,13-0.2
				C306.4,227.2,312.3,227.1,318.2,227z" style="fill:#86AEBA;"/>
			<path d="M287.5,227.6l0,1.9c-14.3,10-27.1,21.4-38.8,34.4c1-15,5.8-33.4,14-47.5c-1.4,2.4-1.8,5.5-0.4,7.8
				c2.1,3.5,6.9,3.8,10.9,3.7C278,227.8,282.7,227.7,287.5,227.6z" style="fill:#86AEBA;"/>
			<path d="M226.1,350.3c5.3,4.9,8.3,13.4,4.3,19.4c-2.5,3.8-7.3,5.6-11.9,5.4c-4.5-0.2-8.8-2.2-12.5-4.9
				c-13.6-9.6-19.9-27-19-43.7l0.4,0c5.9,5.5,12.5,10.1,19.8,13.5C213.6,343.2,220.8,345.5,226.1,350.3z" style="fill:#334A5A;"/>
			<path d="M221.3,275c0.9,2.6,1.8,5.4,1.6,8.2c-0.2,2.8-1.9,5.7-4.6,6.3c-2.5,0.6-5.1-0.9-6.6-2.9
				c-1.5-2-2.5-5-3.1-7.4l-0.1-0.1c3.4-4,7-7.7,10.6-11.3l0.1,0C219.8,270.2,220.5,272.6,221.3,275z" style="fill:#334A5A;"/>
			<path d="M216.1,136c2.6,1.5,3.5,4.8,4.1,7.8c-2.1,1-4.2,2.1-6.2,3.3c-4.9,2.7-9.5,5.8-14,9.1
				c0.3-4.8,1.6-9.5,3.8-13.7c1.2-2.3,2.7-4.5,4.9-5.9C210.9,135.1,213.9,134.6,216.1,136z" style="fill:#62B57F;"/>
			<path d="M219.1,267.8L219.1,267.8c-3.7,3.5-7.3,7.3-10.7,11.3c-9.6,11.3-17.3,24.3-20.3,38.5
				c-0.6,2.7-0.9,5.5-1.1,8.2l-0.4,0c-14.1-13.5-23.7-32-26.7-51.4c-1-6.5-1.3-13.1-1-19.6c14.6-24.3,34.3-45.6,57.4-56.4l0.9,0.3
				C210.4,220.9,212.6,245.2,219.1,267.8z" style="fill:#FF564F;"/>
			<path d="M218.5,184.1c2.6,2.2,1.5,6.4,0.3,9.6c-0.6,1.6-1.2,3.3-1.6,4.9l-0.9-0.3c-5.6,1.6-11.1,3.7-16.3,6.1
				c0.7-7.2,4.3-14.1,9.8-18.7C212.2,183.6,216,182,218.5,184.1z" style="fill:#334A5A;"/>
			<path d="M199.9,204.4c5.3-2.4,10.7-4.5,16.3-6.1c-23.2,10.8-42.9,32.1-57.4,56.4c0.4-7.5,1.6-15,3.5-22.2l-0.8-0.8
				c0.7-0.7,1.3-1.4,2-2C174.2,219.3,186.4,210.6,199.9,204.4z" style="fill:#FF736B;"/>
			<path d="M184.9,169.1l0.1,0.1c-12.7,12.8-23,28.1-30,44.8l-0.4-0.2c-7-18.5-7.9-39.2-2.7-58.2
				c1-3.7,2.3-7.3,3.7-10.9c0.9,9.1,2.3,18.2,4.3,27c0-13,0-26.2,1.7-39c5.7-9.6,13.2-18.2,22.1-25.3l0.2,0c0.4,2,0.3,4.2,0.2,6.3
				C183.4,132.1,180.6,151.5,184.9,169.1z" style="fill:#2D9759;"/>
			<path d="M183.9,107.5l-0.2,0c-8.9,7.1-16.3,15.6-22.1,25.3c1-7.7,2.7-15.3,5.3-22.6c0.9-2.6,2-5.2,3.9-7.2
				c1.9-2,4.8-3.3,7.4-2.6c2.6,0.7,4.4,3,5.2,5.5C183.7,106.4,183.8,106.9,183.9,107.5z" style="fill:#62B57F;"/>
			<path d="M161.6,231.8l0.8,0.8c-2,7.3-3.2,14.7-3.5,22.2c-5.1,8.5-9.5,17.3-13.3,26.1c-1.3-9.5-1.4-19.2-0.4-28.7l0,0
				c0.1-0.1,0.1-0.2,0.2-0.2C150.1,244.7,155.6,238,161.6,231.8z" style="fill:#DB968E;"/>
			<path d="M151.1,106c3.8,2.1,4.1,7.2,3.9,11.6c-15.8,16.6-23,40.9-19.4,63.6c-5.1-21-4.5-43.3,1.6-64
				c1-3.3,2.1-6.7,4.5-9.1C144.1,105.5,148.1,104.3,151.1,106z" style="fill:#62B57F;"/>
			<path d="M155,117.6c0,0.2,0,0.5,0,0.7c-0.4,8.8-0.2,17.6,0.6,26.5c-1.5,3.5-2.7,7.2-3.7,10.9
				c-5.3,19-4.3,39.7,2.7,58.2l0.4,0.2c-4.1,9.7-7.1,19.9-8.8,30.2l-0.2,0c-24-29.6-32.3-75.3-18.1-108.4
				c0.7,15.5,2.9,31.4,7.8,45.4C132,158.5,139.2,134.2,155,117.6z" style="fill:#008211;"/>
			<path d="M146,244.2l0.2,0c-0.4,2.5-0.8,5.1-1.1,7.7l0.1,0.1c-0.1,0.1-0.1,0.2-0.2,0.2c-1.8,2.7-3.5,5.4-5.1,8.2
				l-0.2-0.1c-22-30.1-34.1-67.3-34.2-104.6c0-10.9,1.1-22.2,6.3-31.8c1.1-2,2.4-4,4.3-5.3c1.9-1.3,4.3-2,6.5-1.2
				c4.2,1.6,4.9,7.2,5,11.7c0,2.2,0.1,4.5,0.2,6.7C113.7,168.9,122,214.6,146,244.2z" style="fill:#2D9759;"/>
			<path d="M145.1,252.2L145.1,252.2c-0.9,9.5-0.9,19.1,0.4,28.7c-3.5,8.2-6.4,16.5-8.7,24.6c-0.7,2.4-1.3,4.7-1.8,7.1
				c-9.9,42.2-6.4,88.5,17.5,124.5c-28.2-37.5-38.2-90.1-28.4-135.9c3.1-14.3,8.5-28.1,15.8-40.9
				C141.6,257.6,143.3,254.9,145.1,252.2z" style="fill:#E64337;"/>
			<path d="M97.7,309.9c-2-5.8-1.4-12.5,1.6-17.9c1.3-2.4,3.5-4.8,6.2-5c3.4-0.2,6.1,3,6.6,6.4c0.5,3.3-0.5,6.6-1.4,9.9
				c-5.8,20.1-7,41.5-3.4,62.2c0.6,3.7,1.4,7.4,1.1,11.1c-0.4,3.7-2.1,7.5-5.3,9.4c-3.4,1.9-7.9,1.3-11-1.2
				c-3.1-2.5-4.7-6.4-4.9-10.3c-0.2-3.9,1-7.8,2.8-11.3l-0.1-0.1c-5.7-2.5-9.8-8.4-10.3-14.6c-0.5-6.2,2.7-12.6,7.9-16l0.2-0.2
				c-3.3-3.8-4.2-9.5-2.3-14.2c2-4.8,6.9-8.1,12.1-8.3L97.7,309.9z" style="fill:#F6B855;"/>
		</g>
		<g>
			<path d="M449.4,301.6c0,10.3-0.4,20.7-1.5,31.1c-3.6,36.4-14.6,72.5-36.9,101c-22.9,29.1-51.1,52.6-86.9,61.9
				c-61.5,16-127.9-4.1-168.8-55c-0.9-1.1-1.8-2.3-2.7-3.5c-28.2-37.5-38.2-90.1-28.4-135.9c3.1-14.3,8.5-28.1,15.8-40.9
				c1.6-2.8,3.3-5.5,5.1-8.2c0.1-0.1,0.1-0.2,0.2-0.2c4.8-7.2,10.3-14,16.3-20.2c0.7-0.7,1.3-1.4,2-2c10.6-10.4,22.8-19.1,36.3-25.3
				c5.3-2.4,10.7-4.5,16.3-6.1" style="fill:none;stroke:#000000;stroke-width:1.5;stroke-linecap:round;stroke-linejoin:round;stroke-miterlimit:10;"/>
			<path d="M432.2,225.1c8.3,17.8,13.8,36.9,16,56.3c0.7,6.3,1.1,13.4,1.2,19.7c0,0.1,0,0.1,0,0.2" style="fill:none;stroke:#000000;stroke-width:0.25;stroke-linecap:round;stroke-linejoin:round;stroke-miterlimit:10;"/>
			<path d="M425.5,212.2c2.3,4,4.4,8.1,6.4,12.3" style="fill:none;stroke:#000000;stroke-width:0.25;stroke-linecap:round;stroke-linejoin:round;stroke-miterlimit:10;"/>
			<path d="M381,160.8c17.5,13.4,32.2,30.4,43.4,49.5" style="fill:none;stroke:#000000;stroke-width:0.25;stroke-linecap:round;stroke-linejoin:round;stroke-miterlimit:10;"/>
			<path d="M335.8,136.9c2.7,0.9,5.4,1.9,8,2.9c6.6,2.6,13,5.6,19.2,9.1c1.1,0.6,2.2,1.3,3.4,1.9
				c4.7,2.8,9.3,5.9,13.7,9.2" style="fill:none;stroke:#000000;stroke-width:1.5;stroke-linecap:round;stroke-linejoin:round;stroke-miterlimit:10;"/>
			<path d="M145.1,251.9c0.3-2.6,0.6-5.1,1.1-7.7c1.7-10.3,4.7-20.5,8.8-30.2c7-16.6,17.2-31.9,30-44.8
				c4.7-4.7,9.7-9.1,15-13.1c4.5-3.3,9.1-6.4,14-9.1c2-1.2,4.1-2.2,6.2-3.3c21.8-10.8,46.2-15.7,70.5-14.9
				c12.2,0.4,24.4,2.2,36.2,5.4c3,0.8,6,1.7,8.9,2.7" style="fill:none;stroke:#000000;stroke-width:1.5;stroke-linecap:round;stroke-linejoin:round;stroke-miterlimit:10;"/>
			<path d="M145.5,280.9c-1.3-9.5-1.4-19.2-0.4-28.7" style="fill:none;stroke:#000000;stroke-width:0.25;stroke-linecap:round;stroke-linejoin:round;stroke-miterlimit:10;"/>
			<path d="M163.2,229.4c3.7-12.3,9.6-24,17.1-34.4c16.5-22.7,39.5-40.9,65.9-50.5c26.4-9.6,47.6-11.7,80.7-10.2" style="fill:none;stroke:#000000;stroke-width:0.25;stroke-linecap:round;stroke-linejoin:round;stroke-miterlimit:10;"/>
			<path d="M186.5,325.8c-14.1-13.5-23.7-32-26.7-51.4c-1-6.5-1.3-13.1-1-19.6c0.4-7.5,1.6-15,3.5-22.2" style="fill:none;stroke:#000000;stroke-width:0.25;stroke-linecap:round;stroke-linejoin:round;stroke-miterlimit:10;"/>
			<path d="M219,267.8c-3.7,3.5-7.3,7.3-10.6,11.3c-9.6,11.3-17.3,24.3-20.3,38.5c-0.6,2.7-0.9,5.5-1.1,8.2
				c0,0.1,0,0.3,0,0.5c0,0.1,0,0.1,0,0.2c-0.9,16.8,5.4,34.2,19,43.7c3.7,2.6,8,4.6,12.5,4.9c4.5,0.2,9.3-1.6,11.9-5.4
				c4.1-6,1.1-14.5-4.3-19.4c-5.4-4.9-12.5-7.2-19-10.3c-7.3-3.5-13.9-8.1-19.8-13.5" style="fill:none;stroke:#000000;stroke-width:1.5;stroke-linecap:round;stroke-linejoin:round;stroke-miterlimit:10;"/>
			<path d="M199.9,204.6c0-0.1,0-0.1,0-0.2c0.7-7.2,4.3-14.1,9.8-18.7c2.5-2.1,6.2-3.7,8.7-1.6
				c2.6,2.2,1.5,6.4,0.3,9.6c-0.6,1.6-1.2,3.3-1.6,4.9c-6.8,22.3-4.5,46.6,2,69.2c0.7,2.4,1.4,4.8,2.2,7.2c0.9,2.6,1.8,5.4,1.6,8.2
				c-0.2,2.8-1.9,5.7-4.6,6.3c-2.5,0.6-5.1-0.9-6.6-2.9c-1.5-2-2.5-5-3.1-7.4" style="fill:none;stroke:#000000;stroke-width:1.5;stroke-linecap:round;stroke-linejoin:round;stroke-miterlimit:10;"/>
			<path d="M209.1,173.9c4-4.1,10.4-5.6,15.8-3.7c5.4,1.8,9.6,6.9,10.3,12.6" style="fill:none;stroke:#000000;stroke-width:1.5;stroke-linecap:round;stroke-linejoin:round;stroke-miterlimit:10;"/>
			<path d="M213.9,300.9c4.4,3.7,11.2,4.1,16,1c4.8-3.1,7.2-9.5,5.6-15" style="fill:none;stroke:#000000;stroke-width:1.5;stroke-linecap:round;stroke-linejoin:round;stroke-miterlimit:10;"/>
			<path d="M305,167.1c1-2.5-0.4-5.5-2.8-6.7c-2.4-1.2-5.3-0.9-7.7,0.3c-2.4,1.2-4.2,3.2-5.9,5.4
				c-1.8,2.4-3.5,5.5-2.4,8.3c0.7,1.8,2.5,3.1,4.3,3.7s3.9,0.6,5.8,0.6c18.3,0,36.5-1.4,54.8-2.7c1.2-0.1,2.5-0.2,3.6-0.8
				c1.1-0.6,2-1.8,1.7-3.1c-0.2-1.4-1.7-2.2-3-2.5c-3.2-0.9-6.7-0.4-9.5,1.4" style="fill:none;stroke:#000000;stroke-width:0.75;stroke-linecap:round;stroke-linejoin:round;stroke-miterlimit:10;"/>
			<path d="M344.1,171.1C344.1,171.1,344.1,171.1,344.1,171.1" style="fill:none;stroke:#000000;stroke-width:0.75;stroke-linecap:round;stroke-linejoin:round;stroke-miterlimit:10;"/>
			<path d="M331.5,170.3c1.9-2.5,4.4-4.1,7.2-4.3c2.7-0.2,5.9,2.1,5.4,5c0,0,0,0,0,0" style="fill:none;stroke:#000000;stroke-width:0.75;stroke-linecap:round;stroke-linejoin:round;stroke-miterlimit:10;"/>
			<path d="M331.5,170.3c-0.7-2.6-3.2-4.6-5.9-4.9c-2.7-0.2-5.5,1.4-6.6,3.8c0.3-2-0.9-4.1-2.7-5
				c-1.8-0.9-4-0.9-5.9-0.2c-1.9,0.7-3.6,1.9-5.1,3.2" style="fill:none;stroke:#000000;stroke-width:0.75;stroke-linecap:round;stroke-linejoin:round;stroke-miterlimit:10;"/>
			<path d="M255.7,211.3c-1.1,0.3-1.9,0.6-2.4,0.9c-1.4,0.9,1.2,1.5,13.4-0.3c0.6-0.1,1.2-0.2,1.8-0.3
				c28-4.2,56.1-6.3,84.4-7.2c2-0.1,4.1-0.1,6.2-0.1c1.2,0,2.5,0,3.7,0.1c1.6,0.1,3.2,0.1,4.9,0.2c1.3,0.1,2.7,0.2,4,0.3
				c4.9,0.5,9.8,1.2,14.1,2.3" style="fill:none;stroke:#000000;stroke-width:0.25;stroke-linecap:round;stroke-linejoin:round;stroke-miterlimit:10;"/>
			<path d="M359.2,204.2c0,0.1-0.1,0.1-0.1,0.2c-1.6,3.1-0.3,6.8,2,8.4c2.3,1.7,5.8,1.7,8.1,0c2.2-1.6,3.8-4.8,2.5-7.8
				c-0.1-0.1-0.1-0.3-0.2-0.4" style="fill:none;stroke:#000000;stroke-linecap:round;stroke-linejoin:round;stroke-miterlimit:10;"/>
			<path d="M290.8,128.9c3-2.6,5.5-5.8,7.6-9.3c2.8-4.8,4.8-10.3,6.1-15.6c2.3-9.2,3.4-20.1,5.9-29.2
				c0.3-1,0.6-2.1,0.9-3.1c5.5-17.7,15.1-27.6,29.5-34c10.3-4.5,21.9-5.2,32-0.4c4.9,2.3,9.5,5.9,13.4,10.9c6,7.6,8.5,14.5,9,22.7
				s-2,17.2-4.1,25.1c-0.8,2.9-1.6,5.8-2.6,8.6c-5.5,16.2-13.8,30.7-25.1,43.9c-0.1,0.1-0.2,0.2-0.3,0.3" style="fill:none;stroke:#000000;stroke-linecap:round;stroke-linejoin:round;stroke-miterlimit:10;"/>
			<path d="M311.5,71.7c9-16,21.3-21.4,34.8-22.4c10.3-0.7,20.8,2.7,28.9,9.2c2.4,1.9,4.6,4.2,6.5,6.6
				c8.2,10.7,10.8,26.5,6.5,39.2" style="fill:none;stroke:#000000;stroke-width:0.5;stroke-linecap:round;stroke-linejoin:round;stroke-miterlimit:10;"/>
			<path d="M335.8,136.9c3.8-1.2,9.2-5.3,14.2-10.5c3.1-3.2,6-6.7,8.3-10.3c11.1-17,16.9-37.3,16.8-57.6
				c-0.1-7.1-0.8-14.2-2.4-21.2" style="fill:none;stroke:#000000;stroke-width:0.25;stroke-linecap:round;stroke-linejoin:round;stroke-miterlimit:10;"/>
			<line x1="335.8" y1="136.9" x2="335.8" y2="136.9" style="fill:none;stroke:#000000;stroke-width:1.5;stroke-linecap:round;stroke-linejoin:round;stroke-miterlimit:10;"/>
			<path d="M139.8,260.2c-22-30.1-34.1-67.3-34.2-104.6c0-10.9,1.1-22.2,6.3-31.8c1.1-2,2.4-4,4.3-5.3
				c1.9-1.3,4.3-2,6.5-1.2c4.2,1.6,4.9,7.2,5,11.7c0,2.2,0.1,4.5,0.2,6.7c0.7,15.5,2.9,31.4,7.8,45.4" style="fill:none;stroke:#000000;stroke-width:1.5;stroke-linecap:round;stroke-linejoin:round;stroke-miterlimit:10;"/>
			<path d="M135.6,181.2c-5.1-21-4.5-43.3,1.6-64c1-3.3,2.1-6.7,4.5-9.1c2.4-2.5,6.4-3.7,9.4-2
				c3.8,2.1,4.1,7.2,3.9,11.6c0,0.2,0,0.5,0,0.7c-0.4,8.8-0.2,17.6,0.6,26.5c0.9,9.1,2.3,18.2,4.3,27" style="fill:none;stroke:#000000;stroke-width:1.5;stroke-linecap:round;stroke-linejoin:round;stroke-miterlimit:10;"/>
			<path d="M160,171.8c0-13,0-26.2,1.7-39c1-7.7,2.7-15.3,5.3-22.6c0.9-2.6,2-5.2,3.9-7.2c1.9-2,4.8-3.3,7.4-2.6
				c2.6,0.7,4.4,3,5.2,5.5c0.2,0.5,0.3,1.1,0.4,1.6c0.4,2,0.3,4.2,0.2,6.3c-0.7,18.3-3.6,37.7,0.8,55.4" style="fill:none;stroke:#000000;stroke-width:1.5;stroke-linecap:round;stroke-linejoin:round;stroke-miterlimit:10;"/>
			<path d="M200,156.4c0-0.1,0-0.1,0-0.2c0.3-4.8,1.6-9.5,3.8-13.7c1.2-2.3,2.7-4.5,4.9-5.9c2.2-1.4,5.1-1.8,7.4-0.5
				c2.6,1.5,3.5,4.8,4.1,7.8c0,0,0,0,0,0" style="fill:none;stroke:#000000;stroke-width:1.5;stroke-linecap:round;stroke-linejoin:round;stroke-miterlimit:10;"/>
			<path d="M154.6,213.8c-7-18.5-7.9-39.2-2.7-58.2c1-3.7,2.3-7.3,3.7-10.9c1.7-4.2,3.7-8.2,6-12
				c5.7-9.6,13.2-18.2,22.1-25.3" style="fill:none;stroke:#000000;stroke-width:0.25;stroke-linecap:round;stroke-linejoin:round;stroke-miterlimit:10;"/>
			<path d="M135.6,181.2c-3.6-22.6,3.6-47,19.4-63.6" style="fill:none;stroke:#000000;stroke-width:0.25;stroke-linecap:round;stroke-linejoin:round;stroke-miterlimit:10;"/>
			<path d="M146,244.2c-24-29.6-32.3-75.3-18.1-108.4c0,0,0.1-0.1,0.1-0.2" style="fill:none;stroke:#000000;stroke-width:0.25;stroke-linecap:round;stroke-linejoin:round;stroke-miterlimit:10;"/>
			<path d="M97.8,310.1c0-0.1-0.1-0.2-0.1-0.3c-2-5.8-1.4-12.5,1.6-17.9c1.3-2.4,3.5-4.8,6.2-5c3.4-0.2,6.1,3,6.6,6.4
				c0.5,3.3-0.5,6.6-1.4,9.9c-5.8,20.1-7,41.5-3.4,62.2c0.6,3.7,1.4,7.4,1.1,11.1c-0.4,3.7-2.1,7.5-5.3,9.4c-3.4,1.9-7.9,1.3-11-1.2
				c-3.1-2.5-4.7-6.4-4.9-10.3c-0.2-3.9,1-7.8,2.8-11.3" style="fill:none;stroke:#000000;stroke-linecap:round;stroke-linejoin:round;stroke-miterlimit:10;"/>
			<path d="M89.8,363.1c-5.7-2.5-9.8-8.4-10.3-14.6c-0.5-6.2,2.7-12.6,7.9-16" style="fill:none;stroke:#000000;stroke-linecap:round;stroke-linejoin:round;stroke-miterlimit:10;"/>
			<path d="M87.9,332.6c-0.1-0.1-0.2-0.2-0.2-0.2c-3.3-3.8-4.2-9.5-2.3-14.2c2-4.8,6.9-8.1,12.1-8.3" style="fill:none;stroke:#000000;stroke-linecap:round;stroke-linejoin:round;stroke-miterlimit:10;"/>
			<path d="M154.3,439.6c-0.6-0.8-1.1-1.7-1.7-2.5c-23.9-36-27.4-82.3-17.5-124.5c0.6-2.3,1.2-4.7,1.8-7.1
				c2.2-8.1,5.2-16.4,8.7-24.6c3.8-8.9,8.2-17.7,13.3-26.1c14.6-24.3,34.3-45.6,57.4-56.4" style="fill:none;stroke:#000000;stroke-width:0.25;stroke-linecap:round;stroke-linejoin:round;stroke-miterlimit:10;"/>
			<path d="M230.9,388.1c15.6-4.6,25.5-21.2,26.5-37.4c0.9-16.3-5.4-32.1-13.5-46.3" style="fill:none;stroke:#000000;stroke-width:1.5;stroke-linecap:round;stroke-linejoin:round;stroke-miterlimit:10;"/>
			<path d="M298.4,119.6c12.5-7.9,27-7.2,39.3-1.6c4.6,2.1,8.8,5,12.4,8.4c6.1,5.9,10.7,13.4,12.8,21.6" style="fill:none;stroke:#000000;stroke-width:0.25;stroke-linecap:round;stroke-linejoin:round;stroke-miterlimit:10;"/>
			<path d="M382.2,318.5c8.6-10,16.4-20.7,23.3-32c11.6-19.1,20.6-39.9,26.5-61.4c0-0.2,0.1-0.4,0.1-0.5
				c0.5-1.9,1-3.8,1.5-5.8" style="fill:none;stroke:#000000;stroke-width:1.5;stroke-linecap:round;stroke-linejoin:round;stroke-miterlimit:10;"/>
			<path d="M409.6,344.6c14.7-13.8,27.9-28.1,39.6-43.2c0.1-0.1,0.2-0.2,0.2-0.3c0.2-0.2,0.3-0.5,0.5-0.7
				c35.5-46.1,57.1-99.5,64.2-167.2c0.5-4.9,1-9.9,1.3-15" style="fill:none;stroke:#000000;stroke-width:1.5;stroke-linecap:round;stroke-linejoin:round;stroke-miterlimit:10;"/>
			<path d="M438.6,227.2c-0.6-3.3-2.4-6.2-4.8-8.6c-1.7-1.8-3.6-3.4-5.5-4.8c-0.9-0.6-1.7-1.3-2.6-1.9
				c-0.5-0.4-1.1-0.8-1.6-1.1c-8.2-5.8-16.8-11.1-24.4-17.6c-2.6-2.2-5.1-4.6-7.4-7.2c-2.5-2.9-4.8-5.9-6.7-9.2
				c-2.3-3.9-3.9-8.1-4.7-12.6c-0.2-1.1-0.3-2.2-0.4-3.3c0-0.3,0-0.5,0-0.8c0-2.1,0.2-4.2,1-6.2c1.3-3.2,4.2-6,7.6-6.4
				c6.3-0.7,12.8,7.5,16.6,12.7c6.8,9.3,14.7,14.8,25.7,17.8c0.2,0.1,0.5,0.1,0.7,0.2" style="fill:none;stroke:#000000;stroke-width:1.5;stroke-linecap:round;stroke-linejoin:round;stroke-miterlimit:10;"/>
			<path d="M343.5,139.6c0.1,0.1,0.2,0.1,0.3,0.2c15.8,10,30.2,22.4,41.8,37c2.4,3,4.6,6,6.7,9.2
				c3.5,5.2,6.6,10.7,9.3,16.4c12.3,26.1,14.9,57.4,3.9,84.1" style="fill:none;stroke:#000000;stroke-width:0.25;stroke-linecap:round;stroke-linejoin:round;stroke-miterlimit:10;"/>
			<path d="M431.5,177.7c-4.3-22.3-6-45.1-4.9-67.8c0.2-4.2,0.5-8.5,2.5-12.1c2-3.6,6.2-6.4,10.3-5.4
				c5.7,1.4,7.5,8.4,8.3,14.2c2.3,16.7,4.5,33.3,6.8,50c0.2,1.2,0.4,2.5,1.1,3.5c0.8,1,2.3,1.5,3.3,0.8c0.9-0.7,1-2,1-3.1
				c0-16.2-0.1-32.4-0.1-48.7c0-3.5,0-7.1,0.7-10.5c0.4-2.1,1.1-4.1,2.2-5.9c2.8-4.9,9.4-8,14.3-5.1c4.6,2.8,5.2,9,5.4,14.4
				c0.5,19.4,1,38.8,1.5,58.2c5.4-2.9,7.1-9.6,8.2-15.6c1.7-8.7,3.4-17.3,5.1-26c0.7-3.6,1.5-7.4,3.6-10.3c2.2-3,6.2-5,9.6-3.6
				c4.9,1.9,5.5,8.5,5.2,13.7" style="fill:none;stroke:#000000;stroke-width:1.5;stroke-linecap:round;stroke-linejoin:round;stroke-miterlimit:10;"/>
			<path d="M432.1,178.2c16.5,6.5,34.6,8.9,51,1.7c0.4-0.2,0.8-0.4,1.2-0.6c15.6-7.7,27.8-28.9,29.8-46.1" style="fill:none;stroke:#000000;stroke-width:0.25;stroke-linecap:round;stroke-linejoin:round;stroke-miterlimit:10;"/>
			<path d="M460.9,98.6c4-0.4,7.9,2.1,10.3,5.4c2.4,3.3,3.4,7.3,4.5,11.2c4.2,14.4,6.8,29.6,7.9,44.9
				c0.5,6.4,0.6,12.8,0.6,19.2c-0.5,42.2-12.2,85.1-34.2,121.1c-0.2,0.3-0.4,0.6-0.5,0.9" style="fill:none;stroke:#000000;stroke-width:0.5;stroke-linecap:round;stroke-linejoin:round;stroke-miterlimit:10;"/>
			<path d="M137,305.5c-10.4,38.4,3.4,84.4,32.4,110.3c29.1,25.9,69.5,36.3,108.5,35.3c36.9-0.9,73.9-11.6,104.5-32.2
				c30.6-20.6,54.1-50.9,64.7-86.2" style="fill:none;stroke:#000000;stroke-width:0.25;stroke-linecap:round;stroke-linejoin:round;stroke-miterlimit:10;"/>
			<path d="M452.2,411c2.9-4.7,5.9-9.7,10.8-12.3c4.9-2.6,12.1-1.6,14.4,3.5c1.9,4.2-0.4,9.2-3.6,12.6
				c-3.2,3.4-7.2,5.8-10.1,9.5c-2.8,3.7-4,9.3-1,12.7c1.8,2.1,4.8,2.9,6.5,5.1c2.7,3.4,1,8.9-2.5,11.5c-3.5,2.7-7,1.3-11.4,1.6
				c-3.3,0.3-7.7,1.4-7.8,4.8c-0.1,1.7,0.8,3.3,1.7,4.8c3.5,6.1,1.5,11.6-6.1,13.1c-5.2,1-19.6-3.7-15.9,2.8
				c4.9,8.3-1.1,17.6-15.9,13.1c-11.7-3.6-6.3,5.3-16.8,6.5c-3.6,0.4-10.4,0.9-12.8-2.6c-3.4-5,3.8-7,7.5-9.6
				c9-6.3,16.7-14.1,24.4-21.9C430.5,449.3,441.8,428.4,452.2,411z" style="fill:none;stroke:#000000;stroke-linecap:round;stroke-linejoin:round;stroke-miterlimit:10;"/>
			<path d="M318.2,227c-5.9,0.1-11.8,0.3-17.7,0.4c-4.4,0.1-8.7,0.2-13,0.2c-4.7,0.1-9.5,0.2-14.2,0.3
				c-4,0.1-8.8-0.2-10.9-3.7c-1.4-2.3-1-5.4,0.4-7.8c1-1.7,2.4-3.1,3.9-4.5c0.6-0.5,1.1-1,1.7-1.4" style="fill:none;stroke:#000000;stroke-linecap:round;stroke-linejoin:round;stroke-miterlimit:10;"/>
			<path d="M253.3,212.2c-4.4-2.8,44.1-7.1,66.7-8.9c13.8-1.1,27.7-2.2,41.6-1.4c8.3,0.5,16.8,1.7,24.4,5.1
				c1.8,0.8,3.5,1.8,5.2,2.8c1.4,0.9,2.6,1.9,3.6,3.2c0,0,0,0,0,0c0.1,0.2,0.3,0.4,0.4,0.5c0.2,0.3,0.4,0.7,0.6,1" style="fill:none;stroke:#000000;stroke-linecap:round;stroke-linejoin:round;stroke-miterlimit:10;"/>
		</g>
	</g>
	<path d="M448.6,543.4c-49.1-1.8-98.2-2.6-147.3-1.3c-24.3,0.7-48.7,1.6-73,3c-6.1,0.4-12.2,0.7-18.4,1
		c-15.4-0.1-30.9-1-46.3-0.4c-18.4,0.8-12.4,7.4-6.8,8c1,0.1,24,3.5,25.6,3.5c48.9,0.7,79-1.2,127.9-0.9c24,0.1,48,0.3,71.9,0.4
		c22.9,0,45.7-0.4,68-4.5C457.1,550.9,455.3,543.7,448.6,543.4z" style="fill:#BDB89B;"/>
	<g>
		<path d="M338,65.4c0.8-2.1-2.4-3.5-3.5-1.6c-1.9,3.2-4.6,8.6-6.1,11.8c-2.6,5.6-3.8,6.6-6.7,9.6
			c-0.5,0.6-3.1,2.7-3.6,2.1c-0.6-0.7,1.1-6.1,1.4-7.1c1-4.3,3.8-7.7,5.4-11.8c1.7-4.4-2.2-5.7-3.5-3.2c-1.7,3.4-3.7,6.8-5.1,10.4
			c-1.2,3.3-2.3,6.7-3,10.1c-0.8,3.8-0.1,8.5,4.9,8c0.8-0.1,4.7-1.8,5.5-2.2c-2.5,8.9-7.1,14.8-5.5,16.2c1.7,1.6,3.2,1.9,4.9,0.4
			c2.6-2.3,3.4-5.3,4.6-8.6c1.4-3.7,2.7-7.4,3.8-11.2C333.9,80.7,336.6,73.1,338,65.4z" style="fill:#FF9A1A;"/>
		<path d="M363.1,67.8c-1-3.4-4.4-5.2-7.7-5.1c-9.9,0.4-13.7,14.5-16.8,21.9c-2.4,5.7-4.7,11.5-6.8,17.4
			c-1.5,4.4-2.1,8.8,3,10.7c1.1,0.4,4.1-0.1,7.1-2.6c6.6-5.6,12.3-18.5,17.5-29.9C361.1,76.6,364.3,71.8,363.1,67.8z M358.3,71
			c-0.3,3.1-3.4,7.6-4.9,10.4c-1.6,3.1-3.2,6.2-4.9,9.3c-3,5.4-6,10.8-9.6,15.9c-0.9,1-2.2,0.1-1.9-0.8c0.2-0.6,6.1-17.4,7.1-19.5
			c1.5-3.4,2.6-7,4.1-10.4c0.7-1.7,1.5-3.5,2.6-5C352.4,68.5,358.9,64.8,358.3,71z" style="fill:#FF9A1A;"/>
		<path d="M383.1,80.2c-2.9,5.2-5.9,10.3-8.9,15.4c-2.9,3.3-10.4,12.5-11.8,8.2c-1.6-5.2,5.1-22.1,10.5-32.3
			c1.1-2-1.5-5.5-4.2-1.7c-8.3,11.6-11.8,20.7-12.2,35.5c-0.2,5.6,3.8,8,5.9,6.8c1.2-0.8,2.4-1.6,3.5-2.4c-2.9,4.9-5.7,9.9-8.4,14.9
			c-2.2,4,3.8,7.7,6,3.7c6.2-11.4,11.8-23.1,17.6-34.8c2.3-3.6,4.3-7.5,5.9-11.5C387.9,79.7,384.3,78.1,383.1,80.2z" style="fill:#FF9A1A;"/>
	</g>
	<path d="M318.2,227c0,0,71.9-1,77.1-8.1c5-6.8-10.7-12.7-15.2-13.5" style="fill:none;stroke:#000000;stroke-linecap:round;stroke-linejoin:round;stroke-miterlimit:10;"/>
</g>
</svg>
