<?xml version="1.0" encoding="utf-8"?>
<!-- Generator: Adobe Illustrator 22.0.1, SVG Export Plug-In . SVG Version: 6.00 Build 0)  -->
<svg version="1.1" id="Layer_5" xmlns="http://www.w3.org/2000/svg" xmlns:xlink="http://www.w3.org/1999/xlink" x="0px" y="0px" viewBox="0 0 600 600" style="enable-background:new 0 0 600 600;" xml:space="preserve">

<g>
	<g>
		<rect x="-29" y="-118" width="1" height="1.9"/>
	</g>
	<g id="XMLID_2_">
		<g>
			<g>
				<path d="M480.8,259.9c6.1-7.1,14.6-13.1,22.1-18.6c1,6.5,1.4,13.7,1.1,20.3c0,0,0,0-0.1,0
					C496.2,260.8,488.6,260,480.8,259.9z" style="fill:#F9BABA;"/>
			</g>
			<g>
				<path d="M511.5,271.1c-10.1,2.4-18.5,4.1-28.6,6.6c6.9-5.1,14.1-10.9,21.1-16c0,0,0,0,0.1,0c4.3-1.6,9.9-4,14.1-5.7
					C516.2,260.5,513.5,266.6,511.5,271.1z" style="fill:#FF564F;"/>
			</g>
			<g>
				<path d="M518.1,256c-4.3,1.6-9.8,4-14.1,5.7c0.3-6.6-0.1-13.8-1.1-20.3C508.4,245.7,513.5,250.6,518.1,256z" style="fill:#E64337;"/>
			</g>
			<g>
				<path d="M482.9,277.7c-0.1-0.6-1.8-12.3-2.1-17.8c7.8,0.1,15.4,0.9,23.2,1.8C497,266.8,489.8,272.6,482.9,277.7z" style="fill:#FF736B;"/>
			</g>
			<g>
				<path d="M545.7,474.1c2.4-4.9,4.6-11,7-15.9c0.9,4.6,1.8,9.1,2.3,13.9C552.9,472.5,548.5,473.8,545.7,474.1z" style="fill:#FFD249;"/>
			</g>
			<g>
				<path d="M92.2,462.8c0.5-2.5,1.1-5,1.8-7.5l0.1,0c1.2,1.5,2.8,2.5,4.8,3c4.9,1.2,10-2.1,11.2-7.3
					c1.2-5.2-1.8-10.4-6.7-11.5c-0.9-0.2-1.8-0.3-2.6-0.2c1.4-2.6,3-5.1,4.8-7.6c1-1.5,2.1-2.9,3.2-4.2l0.2-0.2
					c19.4,21.5,44.4,37.9,72,46.2l-0.2,0.5c-23.8,8.6-49.7,10.6-73.8,3.4c-5.5-1.6-10.9-3.8-15.9-6.6
					C91.3,468.1,91.7,465.4,92.2,462.8z" style="fill:#BDB89B;"/>
			</g>
			<g>
				<path d="M105.2,431.4c-8-1.9-17.1,2.9-20,10.5c-2.9,7.4,0.3,16.7,7.1,20.9c-0.5,2.6-0.9,5.3-1.1,8
					c-3.8-2.1-7.3-4.6-10.5-7.5c-7.4-6.8-12.9-16.1-13.6-26.1c-1.2-14.9,6.2-30.6,19.1-42.4l0.1,0c6.2,11.7,14,22.7,22.9,32.5
					l-0.2,0.2c-1.1,1.4-2.2,2.8-3.2,4.2L105.2,431.4z M89.7,426.6c0-1.3-1.2-2.4-2.4-2.6c-1.3-0.2-2.6,0.2-3.7,0.9
					c-2.8,1.5-4.9,3.9-6.7,6.5c-1.8,2.6-1.2,6.8,2.5,4.1c2.7-1.9,5.3-3.9,8-5.8C88.5,428.9,89.7,427.9,89.7,426.6z" style="fill:#334A5A;"/>
			</g>
			<g>
				<path d="M105.5,431.7c-1.7,2.4-3.3,5-4.8,7.6c-4,0.2-7.6,3.2-8.6,7.5c-0.8,3.2,0.1,6.3,1.9,8.5l-0.1,0
					c-0.7,2.4-1.3,4.9-1.8,7.5c-6.8-4.2-9.9-13.4-7.1-20.9c3-7.7,12-12.4,20-10.5L105.5,431.7z" style="fill:#F6B855;"/>
			</g>
			<g>
				<path d="M360,387.1c14.5,10.1,19.3,30.3,15.4,47.5c-4,17.4-15.3,32.1-27.7,44.9c-23.9,24.5-53.2,43.9-85.7,54.6
					c-11.2,3.7-22.7,6.3-34.4,7.9l0,0c-9.1-9.4-9.5-25.9-5.5-37.7c4-11.6,14.8-22,26.2-26.4c38.8-6.3,74.2-28.7,97.2-72
					C350.9,400,355.8,393.8,360,387.1z" style="fill:#BDB89B;"/>
			</g>
			<g>
				<path d="M115.7,515.3c-12.9-11-23.4-23.6-24.6-44.4c0-0.1,0-0.1,0-0.2c5,2.8,10.4,4.9,15.9,6.6
					c24.1,7.2,50,5.2,73.8-3.4l0.2-0.5c0.4,0.1,0.8,0.2,1.2,0.4c2.7,0.8,5.4,1.5,8.1,2.1c-9,7.7-16.4,20.7-17.6,32.5
					c-1.2,11.8,2.8,25.2,11.1,33.7l0,0.1c-7.8-0.9-15.5-2.4-23-4.4C144.5,533.4,128.6,526.3,115.7,515.3z" style="fill:#E64337;"/>
			</g>
			<g>
				<path d="M248.6,477.6c-16.5-1.9-32.4-6.4-47.4-13c5.4-3,10.5-6.3,15.5-10c7.4-5.5,14.3-11.5,20.7-18.1
					c23.2,5.7,48.3,4.1,70.4-5c14.2-5.9,27-14.8,37.6-25.8c-23,43.3-58.4,65.7-97.2,72C248.4,477.7,248.5,477.7,248.6,477.6z" style="fill:#E64337;"/>
			</g>
			<g>
				<path d="M514.2,488.9c-0.6,4.5-1.2,8.9-1.8,13.3l-0.1,0c-5.9,2.6-12.5,5.1-17.3,7c1-3.2,2.1-6.2,3.2-9.4
					C498,499.9,508.7,492.8,514.2,488.9z" style="fill:#82CABE;"/>
			</g>
			<g>
				<path d="M182.2,473.8c-0.4-0.1-0.8-0.2-1.2-0.4c-27.5-8.3-52.6-24.7-72-46.2c-8.9-9.9-16.6-20.8-22.9-32.5
					c-2.1-3.9-4-7.9-5.7-11.9c-21.6-50.5-16.5-110.9,10.4-158.9c19.4-34.6,49-62.5,81.5-85.2c15.2-10.6,31.1-20.2,47.5-28.7l0,0
					c4.9-2.5,13.2-4.1,17.5-1.7c2.8,1.5,3.2,5.1,1.6,7.7c-1.1,1.7-3.2,3.2-5.2,4.3c0,0,0,0,0,0c-7.7,3.9-15.6,8.1-24.3,13.5
					c-33.3,22.1-45.1,37.3-64,59.7s-34.7,48.1-42.4,76.4c-2.2,7.9-3.6,16-4.4,24.2c-2.3,23.5,0.8,47.5,8.6,69.8
					c5.2,14.9,12.6,29.1,21.8,41.9c18.4,25.4,43.5,45.9,72.1,58.6c-6.1,3.4-12.4,6.3-18.9,8.8L182.2,473.8z" style="fill:#F46A3D;"/>
			</g>
			<g>
				<path d="M514.2,488.9c-5.5,4-16.2,11.1-16,10.9c-1.1-6.6-1.8-13.2-2.1-19.8l0,0c6-1.2,12.2-1.6,18.3-1.2
					C514.4,481.9,514.4,486.3,514.2,488.9z" style="fill:#CDE8E3;"/>
			</g>
			<g>
				<path d="M512.5,502.2c0.6-4.4,1.2-8.9,1.8-13.3c0.2-2.5,0.2-7,0.2-10.2c-6.1-0.4-12.3,0.1-18.3,1.2l0,0
					c-4.2,6.5-7.4,11.2-11.6,17.2c3.4,4,6.5,8.6,10.5,12c4.8-1.9,11.3-4.4,17.3-7L512.5,502.2z M561.2,427.4
					c10.1,9.7,12.1,25.6,8.2,39c-3.9,13.4-12.9,24.7-22.5,34.9c-8.4,8.9-17.5,17.4-28.3,23.1c-10.8,5.7-23.6,8.5-35.4,5.6l-0.1,0
					c-0.3-5.8-0.6-11.6-0.9-17.4c-4-0.1-9.5,0.1-13.4,1.2c-0.1,2.8-0.3,5.7-0.4,8.6h-0.1c-5.1-4.3-8.8-10-10.2-16.5
					c-1.7-8,0.1-16.3,2.8-24c4.6-13.2,12.5-25.7,21.8-36.1c4.8,4.2,9.8,8.2,15,11.8c6.1-3.7,11.8-7.9,17-12.8
					c-2.8-5.9-5.5-11.6-8.2-17.4l0.1,0c8.6-6.2,18.9-9,28.4-9.4C544.4,417.8,554.3,420.8,561.2,427.4z M555,472.2
					c-0.5-4.8-1.5-9.3-2.3-13.9c-4.6-0.4-9.6,0.3-14.1,1c0.7,1.8,4.5,10.4,7.1,14.9C548.5,473.8,552.9,472.5,555,472.2z
					 M506.4,465.6c3.9,0.5,7.2,0.6,11.6,0.3c-2.9-3.4-5.6-6.5-8.5-9.9C507.7,458.9,506.6,462.2,506.4,465.6z" style="fill:#010100;"/>
			</g>
			<g>
				<path d="M538.6,459.3c4.5-0.7,9.5-1.4,14.1-1c-2.4,4.9-4.6,11-7,15.9C543.1,469.7,539.3,461.1,538.6,459.3z" style="fill:#FF9B19;"/>
			</g>
			<g>
				<path d="M518,465.9c-4.4,0.3-7.7,0.1-11.6-0.3c0.3-3.4,1.3-6.7,3.1-9.6C512.4,459.4,515.1,462.5,518,465.9z" style="fill:#F9BABA;"/>
			</g>
			<g>
				<path d="M482.7,446c-3.1-2.7-6.1-5.6-9-8.6c0.1-0.1,0.2-0.3,0.3-0.5c7.1,0.8,14.1,1.6,21.2,2.5
					c2.4-6.9,4.7-13.9,7.1-20.8c1.4,3,2.8,5.9,4.2,8.9c2.7,5.8,5.4,11.5,8.2,17.4c-5.2,4.9-10.9,9.1-17,12.8
					C492.5,454.1,487.5,450.2,482.7,446z" style="fill:#CDE8E3;"/>
			</g>
			<g>
				<path d="M502.3,418.7c-2.4,6.9-4.7,13.9-7.1,20.8c-7.1-0.8-14.1-1.7-21.2-2.5c2.8-3.8,5.6-7.7,8.4-11.5
					C489.1,422.9,495.5,421.2,502.3,418.7z" style="fill:#82CABE;"/>
			</g>
			<g>
				<path d="M496.1,480c0.3,6.6,1.1,13.2,2.1,19.8c-1,3.2-2.1,6.2-3.2,9.4c-4-3.4-7.2-8-10.5-12
					C488.7,491.2,491.9,486.5,496.1,480z" style="fill:#82CABE;"/>
			</g>
			<g>
				<path d="M483.1,530.1c0.1,1.6,0.2,3.2,0.2,4.8c-3.6-6.5-11.8-17.1-14.5-21.1c3.9-1.1,9.4-1.2,13.4-1.2
					C482.5,518.5,482.8,524.3,483.1,530.1z" style="fill:#FF564F;"/>
			</g>
			<g>
				<path d="M475.7,73.1c5.1,17.7,7.9,36.4,11.8,53.8c-9.5-5.1-18.9-10.5-28.5-15.9c-9.7-5.5-19.5-11.1-29.6-16.7
					C445.3,88.4,460.8,80.9,475.7,73.1z" style="fill:#CDE8E3;"/>
			</g>
			<g>
				<path d="M483.4,535c-5,1.7-10.9,3.4-15.7,4.5c0.3-5.4,0.5-11.2,0.8-16.9c0.1-2.9,0.3-5.8,0.4-8.6
					C471.6,517.8,479.7,528.4,483.4,535z" style="fill:#E64337;"/>
			</g>
			<g>
				<path d="M487.5,126.9c-18.1,3.3-34.7,8.6-52.8,11.9c8.7-7.9,16.2-19.3,24.3-27.8l0-0.1
					C468.6,116.5,478.1,121.8,487.5,126.9z" style="fill:#F9BABA;"/>
			</g>
			<g>
				<path d="M434.7,138.9c18.1-3.3,34.7-8.6,52.8-11.9c-30.9,20.2-62.9,38.1-98.4,48.9
					C403.4,163.4,420.4,151.2,434.7,138.9z" style="fill:#82CABE;"/>
			</g>
			<g>
				<path d="M459,111L459,111c-8.2,8.6-15.6,20-24.3,27.8c-1.6-14.2-3.7-30.4-5.2-44.6C439.5,99.9,449.3,105.5,459,111
					z" style="fill:#CDE8E3;"/>
			</g>
			<g>
				<path d="M475.7,73.1c-15,7.8-30.4,15.3-46.2,21.2c-5.3-14.8-10.2-29.9-17.9-43.6C434,54.7,455.5,62.5,475.7,73.1z" style="fill:#82CABE;"/>
			</g>
			<g>
				<path d="M447.2,355.5c2.4,16.4,5.4,33.3,6.7,49.9c-3.4,0-6.3,0-9.2-0.1c-1.7-8.8-4-18-5.7-26.8
					C441,370.6,443.9,362.8,447.2,355.5z" style="fill:#86AEBA;"/>
			</g>
			<g>
				<path d="M444.7,405.2c-3.7-0.1-7.4-0.2-11.7-0.7c-6.5-15.5-11.8-31.5-16-47.8c0-0.2,0-0.5,0-0.7
					c7.9,6.9,15.3,14.4,22.1,22.5C440.8,387.2,443,396.4,444.7,405.2z" style="fill:#334A5A;"/>
			</g>
			<g>
				<path d="M447.2,355.5c-3.4,7.3-6.2,15.1-8.1,22.9c-6.8-8-14.1-15.5-22.1-22.5c-0.1-11.2-0.1-22.4-0.2-33.6l0.1,0
					C426,334.3,436.4,345,447.2,355.5z" style="fill:#86AEBA;"/>
			</g>
			<g>
				<path d="M429.5,94.3c1.6,14.2,3.7,30.4,5.2,44.6c-14.3,12.4-31.4,24.6-45.6,37c-0.4-16.9,0.2-36-0.2-53
					c0,0,0-0.1,0-0.1l0.3,0.1C403.3,115,417.1,104.6,429.5,94.3z" style="fill:#86AEBA;"/>
			</g>
			<g>
				<path d="M411.6,50.7c7.7,13.8,12.6,28.8,17.9,43.6c-10.1-2.5-20.4-4.8-30.9-6.8c-10.8-2.1-21.7-4-32.3-5.6
					C380.3,70,395.5,59.5,411.6,50.7z" style="fill:#F9BABA;"/>
			</g>
			<g>
				<path d="M412.8,500.5c-10.9,0-24.7-0.5-35.6-0.4l0,0c5.6-6.5,11.3-13,16.9-19.5
					C400.9,487.5,407.5,493.1,412.8,500.5z" style="fill:#CDE8E3;"/>
			</g>
			<g>
				<path d="M377.3,500.1c10.9,0,24.7,0.5,35.6,0.4c-13.5,6.9-26.3,13.3-40.2,19.5C373.7,513.8,375.7,506.2,377.3,500.1
					z" style="fill:#82CABE;"/>
			</g>
			<g>
				<path d="M429.5,94.3c-12.4,10.3-26.2,20.7-40.3,28.5l-0.3-0.1c2.9-10.2,6.8-25.1,9.7-35.2l0-0.1
					C409,89.5,419.4,91.8,429.5,94.3z" style="fill:#CDE8E3;"/>
			</g>
			<g>
				<path d="M398.6,87.5L398.6,87.5c-2.9,10.2-6.8,25.1-9.7,35.3c0,0,0,0.1,0,0.1c-8.2-13.2-14.8-27.6-22.6-41.1
					C376.9,83.5,387.8,85.3,398.6,87.5z" style="fill:#CDE8E3;"/>
			</g>
			<g>
				<path d="M388.9,122.9c0.4,16.9-0.2,36,0.2,53c-11.8-30.1-19.5-61.8-22.8-94C374.1,95.3,380.7,109.6,388.9,122.9z" style="fill:#82CABE;"/>
			</g>
			<g>
				<path d="M308.4,399c1.2-1.7,1.6-4.2,0.5-5.9c-1.5-2.2-4.7-2.4-7.3-2.1c-5.9,0.8-14.3,3.2-17.7,8.5
					c-1.1,1.7-1.5,3.9-0.6,5.7c0.9,1.7,2.8,2.6,4.7,2.8c0.3,0,0.5,0,0.8,0c1.6,0,3.2-0.5,4.7-1c3.4-1.1,6.8-2.5,10-4.2
					C305.3,401.8,307.2,400.7,308.4,399z M345.5,405.8c-10.6,11-23.5,20-37.6,25.8c-22.1,9.1-47.2,10.7-70.4,5
					c20.5-20.8,35.9-46.5,46.7-73.9l0-0.4c5.1,0.5,10.9-0.8,12.7-5.5c1-2.6,0.3-5.3-1.3-7.6c-0.5-0.7-1.1-1.4-1.8-2.1
					c-1.3-1.2-2.8-2.3-4.4-3.1l0.1-0.3c6.9-19,3.9-42.6-9.4-58.2c-13.3-15.7-33.8-23.9-54.3-26.1c-20.5-2.2-42.5,1.2-62.6,5.3
					l-0.2-0.1c9.1-20.9,22.7-39.8,38.9-56.1l0.1,0.1c29.8-1.3,60.2,1,88.4,10.8c28.2,9.9,54.2,27.9,69.8,53.4
					c16.6,26.9,20.4,61.3,10.4,91.3c-2.6,8-6.3,15.6-10.7,22.7C355.8,393.8,350.9,400,345.5,405.8z M340.6,344.9
					c9.5-18.6,6.5-41.1-5.4-60.7c-13.8-22.6-30.5-32.7-51.1-39.4c-34.4-11.2-54.8-12-85.1-7.2c32.7,0.4,52.6,5.5,69.9,12.4
					c17.4,7,33.4,19.3,40.7,36.5c2,4.7,3.3,9.6,4.1,14.7c1.1,7.8,0.9,15.8-0.2,23.7c-0.8,5.3-2,10.7-1.4,16.1
					c0.6,5.4,3.3,10.9,8.3,13.1C327.7,357.1,337,352,340.6,344.9z" style="fill:#BDB89B;"/>
			</g>
			<g>
				<path d="M335.2,284.2c11.9,19.6,14.9,42.1,5.4,60.7c1.9-4.5,0.9-8.3-1.1-10.3c-2-2-5-2.9-7.8-2.8
					c-2.8,0.1-5.6,1-8.2,2.2c2.7-1.3,5.3-2.4,7.6-4.3c2.3-1.9,4.2-4.4,4.8-7.3c0.6-2.9-0.4-6.2-2.9-7.9c-2.9-2-7.4-1.4-10.7,0
					c3.3-1.6,5.9-4.6,6.5-8.2c0.7-3.9-1.2-8.2-4.8-9.8c-3.6-1.6-9.2,1-10.5,4.7c-0.7-5-2.1-10-4.1-14.7
					c-7.4-17.2-23.4-29.5-40.7-36.5c-17.3-7-37.2-12-69.9-12.4c30.3-4.7,50.7-3.9,85.1,7.2C304.7,251.5,321.5,261.6,335.2,284.2z" style="fill:#82CABE;"/>
			</g>
			<g>
				<path d="M322.4,314.5c-0.3,0.1-0.5,0.2-0.8,0.3C321.9,314.7,322.1,314.6,322.4,314.5z M322.4,314.4
					c3.3-1.4,7.8-2,10.7,0c2.5,1.7,3.5,5,2.9,7.9c-0.6,2.9-2.5,5.4-4.8,7.3c-2.3,1.9-4.9,3-7.6,4.3c2.6-1.1,5.3-2.1,8.2-2.2
					c2.8-0.1,5.8,0.8,7.8,2.8c2,2,3,5.9,1.1,10.3c-3.7,7.2-12.9,12.3-20.3,9.1c-5-2.1-7.7-7.7-8.3-13.1c-0.6-5.4,0.6-10.8,1.4-16.1
					c1.1-7.8,1.4-15.9,0.2-23.7c1.3-3.7,6.9-6.3,10.5-4.7c3.6,1.6,5.5,5.9,4.8,9.8C328.3,309.8,325.7,312.8,322.4,314.4z" style="fill:#F6B855;"/>
			</g>
			<g>
				<path d="M280.7,135.4c6.5-2.2,13-4,19.7-5.3c19.7-3.8,20.2,10.2,11.4,12.8c-8.2,3.1-16.4,6.3-24.5,9.9l0-0.1
					c6-3.8,6.3-8.5,4.6-11.5c-1.7-3-5.1-4.7-8.5-5.1c-2.8-0.3-7.3,0.9-10.8,2.2C275.4,137.3,278,136.3,280.7,135.4z" style="fill:#334A5A;"/>
			</g>
			<g>
				<path d="M308.9,393.1c1.1,1.8,0.7,4.2-0.5,5.9c-1.2,1.7-3.1,2.8-4.9,3.8c-3.2,1.7-6.6,3.1-10,4.2
					c-1.5,0.5-3.1,0.9-4.7,1c-0.3,0-0.5,0-0.8,0c-1.9-0.2-3.8-1.1-4.7-2.8c-0.9-1.8-0.5-4,0.6-5.7c3.5-5.3,11.8-7.7,17.7-8.5
					C304.2,390.7,307.4,390.9,308.9,393.1z M301.5,399.5c1.2-0.5,1.9-2,1.5-3.3c-0.1-0.1-0.2-0.2-0.3-0.3l0.2,0.2
					c-0.5-1.2-2.1-1.8-3.4-1.3c-1.2,0.5-1.9,2.1-1.4,3.3C298.7,399.4,300.2,400,301.5,399.5z" style="fill:#FFE6E7;"/>
			</g>
			<g>
				<path d="M303,396.2c0.5,1.2-0.2,2.8-1.5,3.3c-1.2,0.5-2.8-0.2-3.3-1.4c-0.5-1.2,0.1-2.8,1.4-3.3c1.2-0.5,2.8,0.1,3.4,1.3
					l-0.2-0.2C302.8,396,302.9,396.1,303,396.2z"/>
			</g>
			<g>
				<path d="M295.5,349.3c1.6,2.3,2.3,5,1.3,7.6c-1.7,4.7-7.6,6-12.7,5.5c-0.5,0-1-0.1-1.5-0.2
					c-5.4-1-10.9-3.2-16.2-1.7c-4.5,1.4-7.6,5.1-11.1,8.2c-3.5,3.1-8.3,5.6-12.6,3.9c-5.3-2.2-6.8-9.8-12.2-11.8
					c-7-2.5-13.5,6.3-20.9,5.9c-7.8-0.4-11.8-10.3-19.3-12.3c-3.2-0.9-6.5-0.2-9.8-0.4c-1.9-0.2-3.3-0.6-4.4-1.2l0.1-0.2
					c0.6-6.5,5.9-9.3,10.2-8.2c4.3,1,7.7,4.2,11,7.2c3.3,3,7,5.9,11.4,6.3c5.1,0.4,9.8-2.7,14.1-5.5c4.4-2.7,9.6-5.3,14.5-3.5
					c5.6,2,9.4,9.4,15.3,8.4c3.8-0.7,6.1-4.7,9.6-6.4c3.5-1.7,7.7-0.7,11.3,0.8c3.6,1.5,7.1,3.5,11,3.8
					C288.6,355.7,294.6,353.1,295.5,349.3L295.5,349.3z" style="fill:#FF9B19;"/>
			</g>
			<g>
				<path d="M295.5,349.3L295.5,349.3c-0.9,3.8-7,6.4-10.8,6.1c-3.9-0.3-7.4-2.3-11-3.8c-3.6-1.5-7.8-2.5-11.3-0.8
					c-3.5,1.6-5.8,5.7-9.6,6.4c-5.9,1-9.7-6.4-15.3-8.4c-4.9-1.7-10.1,0.8-14.5,3.5c-4.4,2.7-9,5.9-14.1,5.5
					c-4.4-0.4-8.1-3.3-11.4-6.3c-3.3-3-6.7-6.2-11-7.2c-4.3-1-9.6,1.7-10.2,8.2l-0.1,0.2c-1.6-1-2.4-2.5-2.5-4.2c0,0,0,0,0,0
					c3.5-8.6,13.2-11.7,20.6-8.5c5.2,2.2,9.1,7.4,14.8,8.4c9.9,1.9,19.2-9.7,28.9-6.8c4.7,1.4,8.1,5.9,12.9,6.7
					c6.1,1,11.6-4.2,17.8-4.1c4.4,0,8.3,2.8,12.4,4.5c4.1,1.8,9.5,2.3,12.3-1.2l0.4-0.3C294.4,347.9,295,348.5,295.5,349.3z" style="fill:#F46A3D;"/>
			</g>
			<g>
				<path d="M293.8,347.2l-0.4,0.3c-2.8,3.5-8.2,2.9-12.3,1.2c-4.1-1.8-7.9-4.5-12.4-4.5c-6.2,0-11.7,5.2-17.8,4.1
					c-4.8-0.8-8.2-5.3-12.9-6.7c-9.7-2.9-19,8.8-28.9,6.8c-5.6-1.1-9.5-6.2-14.8-8.4c-7.4-3.2-17.1-0.1-20.6,8.5c0,0,0,0,0,0
					c-0.1-2.3,0.9-5.1,2.7-7.6c3.6-5.1,9.7-8.6,16-8.5c5,0.1,10.2,2.1,14.9,0.4c4.2-1.5,7.4-5.6,11.8-6c6.6-0.6,11,7.3,17.5,8.3
					c8.3,1.3,15.3-9,23.6-7.3c5.4,1.1,8.5,6.9,13,10.1c4.6,3.3,10.5,3.8,15.6,6.1c0.2,0.1,0.3,0.1,0.5,0.2
					C290.9,344.9,292.5,346,293.8,347.2z" style="fill:#F46A3D;"/>
			</g>
			<g>
				<path d="M254.8,127.5C254.8,127.5,254.8,127.5,254.8,127.5c8.8-2.7,15-1,16.6,3c1.6,3.9,0.9,7.2-5.1,10.5l0,0.1
					c1.9-0.8,3.8-1.6,5.7-2.4c0.2-0.1,0.5-0.2,0.7-0.3c3.5-1.3,7.9-2.5,10.8-2.2c3.4,0.4,6.8,2.1,8.5,5.1c1.7,3,1.4,7.8-4.6,11.5
					l0,0.1c-16,7-31.5,15.1-46.2,24.6v0c7.7,2.3,15.1,5.7,21.9,10c2.9,1.8,5.9,4.5,5.5,7.9c-0.3,2.8-3.3,5.4-10.6,5.6
					c-7,0.2-28.9-3.9-41.8-4.9l-0.1,0c-4.9,4.1-9.5,8.4-14,12.9c-16.2,16.2-29.8,35.1-38.9,56.1c-1.4,3.2-2.6,6.4-3.8,9.6
					c-9,25.1-11.1,53-4.7,78.7c1.9,7.8,4.6,15.4,8.1,22.6c11.1,23,30.2,42,53.2,53.1c6.9,3.3,14.2,5.9,21.7,7.8
					c-6.4,6.5-13.3,12.6-20.7,18.1c-4.9,3.6-10.1,7-15.5,10c-28.7-12.7-53.8-33.2-72.1-58.6c-9.3-12.8-16.6-27-21.8-41.9l0,0
					c0,0,31.1-10.7,27.9-18.5c-3.1-7.7-21.3-3.1-21.9-3c0.7-0.5,19.6-14.1,17.6-24.2c-2.1-10.3-22.2,2.6-22.2,2.6
					s19.2-29.9,13.7-42.7c-5.6-12.9-23.6,16.1-23.6,16.1l-0.1,0c0.8-8.2,2.3-16.2,4.4-24.2c7.7-28.3,23.5-54,42.4-76.4
					s30.7-37.7,64-59.7c8.7-5.4,16.6-9.6,24.3-13.5c0,0,0,0,0,0c2.2-1.1,4.4-2.2,6.7-3.3l0.1,0.1c5.2-2.4,11.5-1.9,13.8,0.7
					C256.6,120.5,256.8,124.7,254.8,127.5z" style="fill:#FF564F;"/>
			</g>
			<g>
				<path d="M272.1,138.6c-1.9,0.8-3.8,1.6-5.7,2.4l0-0.1c5.9-3.3,6.7-6.6,5.1-10.5c-1.6-4-7.8-5.6-16.7-2.9
					c0,0,0,0,0.1-0.1c4-1.7,8-3.3,12-4.8c1.9-0.7,3.7-1.4,5.6-2.1c2.9-1,6-2,9-1.8c3.1,0.2,6.3,1.9,7.4,4.8c1,2.6,0,5.7-1.9,7.8
					c-1.4,1.6-3.9,3-6.2,4.1c-2.7,0.9-5.3,1.9-7.9,2.9C272.5,138.4,272.3,138.5,272.1,138.6z" style="fill:#FF736B;"/>
			</g>
			<g>
				<path d="M284.2,362.3l0,0.4c-10.8,27.5-26.2,53.1-46.7,73.9c-7.5-1.8-14.7-4.4-21.7-7.8
					c-23-11.1-42.1-30.1-53.2-53.1c-3.5-7.2-6.2-14.8-8.1-22.6l0.1,0c5.5-2.9,12.8-4.3,19.1-4.6c0.1,1.7,0.8,3.2,2.5,4.2
					c1.1,0.7,2.5,1.1,4.4,1.2c3.3,0.2,6.6-0.4,9.8,0.4c7.5,2,11.5,11.9,19.3,12.3c7.4,0.4,13.9-8.5,20.9-5.9
					c5.4,2,6.9,9.6,12.2,11.8c4.3,1.8,9.1-0.8,12.6-3.9c3.5-3.1,6.6-6.9,11.1-8.2c5.2-1.6,10.8,0.6,16.2,1.7
					C283.1,362.2,283.6,362.3,284.2,362.3z" style="fill:#BDB89B;"/>
			</g>
			<g>
				<path d="M246.9,113.9L246.9,113.9c1.2-0.6,2.3-1.2,3.5-1.8c3.6-1.8,7.1-3.8,11.1-4.1c4-0.3,8.4,1.3,10,4.9
					c1.7,3.6-0.1,7.8-4.8,9.5l0,0.1c-4,1.5-8,3.1-12,4.8c2-2.8,1.8-7-0.5-9.5c-2.3-2.6-8.6-3.2-13.8-0.7l-0.1-0.1
					C242.6,116,244.7,114.9,246.9,113.9z" style="fill:#FF736B;"/>
			</g>
			<g>
				<path d="M190.3,475.9c-2.7-0.6-5.4-1.3-8.1-2.1l0.1-0.4c6.5-2.5,12.8-5.4,18.9-8.8c15,6.6,30.9,11.1,47.4,13
					c-0.1,0-0.2,0.1-0.3,0.1c-14,2.3-28.4,2.5-42.9,0.8C200.3,477.9,195.3,477,190.3,475.9z" style="fill:#FF564F;"/>
			</g>
			<g>
				<path d="M248,571.4c1.7,3.4,0.9,8.1-2.4,10c-5.6,3.1-13.5-3.3-18.7,0.5c-1.6,1.2-2.5,3.2-3.8,4.7
					c-3,3.5-8.6,4.3-12.5,1.9c-3.1-1.9-5.2-5.6-8.8-6.3c-3.7-0.8-7.2,2-10.9,2.6c-3.5,0.5-7.2-1.1-9.2-4c-1.8-2.7-2.4-6.4-5-8.3
					c-3.3-2.4-7.9-0.8-12-1.3c-6.6-0.8-15.4-14.8-4.9-14.9c1.9,0,3.7,0.6,5.5,1.1c20.2,6,41.3,8.6,62.4,7.5
					c3.8-0.2,7.6-0.5,11.3,0.3C242.6,565.9,246.2,568,248,571.4z" style="fill:#2D9759;"/>
			</g>
			<g>
				<path d="M245.8,101.9c5.2,2.4,5.6,9.3,1.1,12h0c-2.2,1.1-4.3,2.1-6.4,3.2c-2.2,1.1-4.4,2.2-6.7,3.3
					c2-1.2,4.1-2.7,5.2-4.3c1.7-2.6,1.2-6.2-1.6-7.7c-4.3-2.4-12.7-0.8-17.5,1.7l0,0c3.9-2,7.8-3.9,11.8-5.8
					C236.1,102.1,241.7,100,245.8,101.9z" style="fill:#FF736B;"/>
			</g>
			<g>
				<path d="M248.3,477.8c-11.5,4.4-22.2,14.8-26.2,26.4c-4,11.7-3.6,28.3,5.5,37.7l0,0c-9.4,1.2-18.9,1.7-28.4,1.5
					l0-0.3c-16.9-16.4-18.3-44.2,6.2-64.5C219.9,480.2,234.3,480,248.3,477.8z" style="fill:#F46A3D;"/>
			</g>
			<g>
				<path d="M199.1,543l0,0.3c-5.1-0.2-10.2-0.5-15.3-1.1l0-0.1c-8.4-8.5-12.3-21.9-11.1-33.7
					c1.2-11.8,8.6-24.8,17.6-32.5c5,1.1,10,2,15.1,2.6C180.9,498.8,182.2,526.7,199.1,543z" style="fill:#FF9B19;"/>
			</g>
			<g>
				<path d="M113.3,342.5c0.6-0.2,18.7-4.7,21.9,3c3.2,7.8-27.9,18.5-27.9,18.5l0,0c-7.8-22.3-11-46.3-8.6-69.8l0.1,0
					c0,0,18-29,23.6-16.1c5.6,12.9-13.7,42.7-13.7,42.7s20.1-12.9,22.2-2.6C132.9,328.4,114,342,113.3,342.5z" style="fill:#E64337;"/>
			</g>
			<g>
				<path d="M100.7,439.2c0.8-0.1,1.7,0,2.6,0.2c4.9,1.2,7.9,6.3,6.7,11.5c-1.2,5.2-6.2,8.5-11.2,7.3
					c-2-0.5-3.6-1.5-4.8-3c-1.9-2.2-2.7-5.4-1.9-8.5C93.2,442.5,96.7,439.5,100.7,439.2z M104.2,448.3c1.2-1.4,1.2-3.4,0.1-4.3
					c-1.1-0.9-3-0.5-4.2,1c-1.2,1.5-1.2,3.4-0.1,4.3C101.2,450.1,103,449.7,104.2,448.3z" style="fill:#CDE8E3;"/>
			</g>
			<g>
				<path d="M104.2,444c1.1,0.9,1.1,2.8-0.1,4.3c-1.2,1.5-3,1.9-4.2,1c-1.1-0.9-1.1-2.8,0.1-4.3C101.2,443.5,103.1,443.1,104.2,444z
					"/>
			</g>
			<g>
				<path d="M87.3,424c1.3,0.2,2.5,1.3,2.4,2.6c0,1.3-1.2,2.3-2.3,3.1c-2.7,1.9-5.3,3.9-8,5.8
					c-3.7,2.7-4.4-1.5-2.5-4.1c1.8-2.5,4-5,6.7-6.5C84.7,424.2,86,423.8,87.3,424z" style="fill:#2D9759;"/>
			</g>
		</g>
		<g>
			<g>
				<path d="M265.1,440.7c-9.3,0-18.7-1.1-27.8-3.4c-7.6-1.9-14.9-4.5-21.8-7.8c-23.3-11.2-42.3-30.2-53.5-53.4
					c-3.5-7.1-6.2-14.8-8.2-22.7c-6.2-25.1-4.5-53.2,4.7-79.2c1.1-3.2,2.4-6.3,3.8-9.7c8.8-20.2,21.9-39.1,39.1-56.3
					c4.4-4.4,9.1-8.7,14.1-12.9c0.3-0.3,0.8-0.2,1.1,0.1c0.3,0.3,0.2,0.8-0.1,1.1c-4.4,3.7-8.7,7.6-12.7,11.6
					c33.8-1.3,62.3,2.3,87,10.9c30.6,10.7,55.5,29.8,70.2,53.7c16.7,27.1,20.6,61.5,10.5,91.9c-2.6,7.9-6.3,15.6-10.8,22.9
					c-4.2,6.7-9.1,13.1-14.6,18.8c-10.8,11.2-23.9,20.2-37.9,26C294.6,437.9,279.9,440.7,265.1,440.7z M202.1,209.6
					c-16.9,17-29.8,35.6-38.4,55.5c-1.4,3.3-2.7,6.5-3.8,9.6c-9.2,25.6-10.8,53.4-4.7,78.3c1.9,7.8,4.6,15.4,8.1,22.4
					c11.1,22.9,29.9,41.7,52.8,52.7c6.8,3.3,14,5.9,21.5,7.7c23.4,5.8,48.3,4,70-5c13.8-5.7,26.7-14.6,37.4-25.6
					c5.5-5.7,10.3-11.9,14.4-18.6c4.4-7.1,8-14.7,10.6-22.5c10-30,6.1-63.9-10.3-90.7c-14.5-23.6-39.2-42.5-69.4-53.1
					C265.3,211.7,236.4,208.1,202.1,209.6z"/>
			</g>
			<g>
				<path d="M241.1,178.1c-0.2,0-0.5-0.1-0.6-0.3c-0.2-0.3-0.1-0.8,0.2-1c14-9.1,29.2-17.1,46.3-24.7c7.7-3.4,15.7-6.6,24.5-9.9
					c0.4-0.1,0.8,0.1,1,0.4c0.1,0.4-0.1,0.8-0.4,1c-8.8,3.3-16.8,6.5-24.4,9.9c-17.1,7.5-32.2,15.5-46.1,24.6
					C241.4,178.1,241.3,178.1,241.1,178.1z"/>
			</g>
			<g>
				<path d="M289.5,344.6c-0.1,0-0.2,0-0.3,0c-0.4-0.1-0.6-0.6-0.4-1c7.1-19.5,3.4-42.6-9.3-57.5c-12.1-14.2-31.2-23.4-53.8-25.9
					c-20.8-2.2-43.2,1.4-62.4,5.3c-0.4,0.1-0.8-0.2-0.9-0.6c-0.1-0.4,0.2-0.8,0.6-0.9c19.3-3.9,41.9-7.6,62.9-5.3
					c23,2.5,42.4,11.8,54.8,26.4c13,15.3,16.8,39,9.5,59C290.1,344.5,289.8,344.6,289.5,344.6z"/>
			</g>
			<g>
				<path d="M311.8,143.6c-0.3,0-0.6-0.2-0.7-0.5c-0.1-0.4,0.1-0.8,0.5-0.9c3.4-1,5.5-4.1,4.8-7c-0.8-3.3-5.4-6.4-15.8-4.4
					c-6.4,1.2-12.8,3-19.6,5.3c-2.6,0.9-5.3,1.9-7.9,2.9c-0.4,0.2-0.8,0-1-0.4s0-0.8,0.4-1c2.6-1.1,5.3-2,8-3
					c6.9-2.4,13.4-4.1,19.8-5.4c11.4-2.2,16.6,1.4,17.6,5.5c0.9,3.7-1.6,7.6-5.8,8.8C312,143.6,311.9,143.6,311.8,143.6z"/>
			</g>
			<g>
				<path d="M238.1,155.6c-0.3,0-0.5-0.1-0.7-0.4c-0.2-0.4-0.1-0.8,0.3-1c8.2-4.4,18-9.5,28.3-13.9c1.8-0.8,3.6-1.6,5.7-2.4
					c0.4-0.2,0.8,0,1,0.4c0.2,0.4,0,0.8-0.4,1c-2.1,0.8-3.9,1.6-5.7,2.4c-10.2,4.4-20,9.5-28.2,13.9
					C238.4,155.6,238.3,155.6,238.1,155.6z"/>
			</g>
			<g>
				<path d="M222.6,144.3c-0.3,0-0.5-0.1-0.7-0.4c-0.2-0.4-0.1-0.8,0.3-1c10.3-6,21.2-11.4,32.3-16.1c3.9-1.7,8-3.3,12-4.9
					c1.9-0.7,3.7-1.4,5.6-2.1c3.1-1.1,6.2-2.1,9.3-1.9c3.1,0.2,6.8,1.9,8,5.3c1,2.7,0.2,6-2,8.5c-1.3,1.4-3.4,2.9-6.4,4.3
					c-0.7,0.3-1.3,0.6-1.9,0.8c-0.4,0.2-0.8,0-1-0.4c-0.2-0.4,0-0.8,0.4-1c0.6-0.2,1.2-0.5,1.8-0.8c2.8-1.3,4.8-2.6,5.9-3.9
					c1.9-2.1,2.5-4.9,1.8-7c-1-2.7-4.1-4.1-6.7-4.3c-2.9-0.2-5.7,0.7-8.7,1.8c-1.9,0.7-3.7,1.4-5.6,2.1c-4,1.5-8.1,3.2-11.9,4.8
					c-11,4.7-21.8,10.1-32.1,16C222.8,144.3,222.7,144.3,222.6,144.3z"/>
			</g>
			<g>
				<path d="M266.7,123.3c-0.3,0-0.6-0.2-0.7-0.5c-0.1-0.4,0.1-0.8,0.4-1c2.2-0.8,3.7-2.2,4.5-4c0.6-1.5,0.6-3.1-0.1-4.6
					c-1.6-3.5-5.9-4.8-9.3-4.5c-3.4,0.3-6.6,1.9-9.7,3.5l-1.1,0.5c-1.2,0.6-2.4,1.2-3.5,1.8c-0.4,0.2-0.8,0-1-0.3s0-0.8,0.3-1
					c1.2-0.6,2.3-1.2,3.5-1.7l1.1-0.5c3.2-1.6,6.6-3.3,10.3-3.6c3.8-0.3,8.8,1.2,10.8,5.4c0.9,1.9,0.9,3.9,0.1,5.8
					c-0.9,2.2-2.8,3.9-5.3,4.8C266.9,123.3,266.8,123.3,266.7,123.3z"/>
			</g>
			<g>
				<path d="M233.8,121.1c-0.3,0-0.5-0.2-0.7-0.4c-0.2-0.4,0-0.8,0.3-1c2.2-1.1,4.5-2.2,6.7-3.3l6.4-3.2c0.4-0.2,0.8,0,1,0.3
					c0.2,0.4,0,0.8-0.3,1l-6.4,3.2c-2.2,1.1-4.4,2.2-6.7,3.3C234,121.1,233.9,121.1,233.8,121.1z"/>
			</g>
			<g>
				<path d="M209.5,134.7c-0.3,0-0.5-0.1-0.6-0.4c-0.2-0.4-0.1-0.8,0.2-1c9.4-5.9,18-10.3,24.3-13.6c0.4-0.2,0.8,0,1,0.3
					c0.2,0.4,0,0.8-0.3,1c-6.3,3.2-14.8,7.6-24.2,13.5C209.8,134.6,209.6,134.7,209.5,134.7z"/>
			</g>
			<g>
				<path d="M224.4,480.4c-6.3,0-12.6-0.4-19.1-1.1c-5-0.6-10.2-1.5-15.2-2.6c-2.8-0.7-5.6-1.4-8.1-2.1c-0.4-0.1-0.8-0.2-1.3-0.4
					c-27.3-8.2-52.4-24.3-72.3-46.4c-9-10-16.7-21-23-32.7c-2.1-3.9-4-7.9-5.7-12c-21.1-49.4-17.1-110.5,10.4-159.5
					c17.4-31,44.9-59.7,81.8-85.5c15.1-10.6,31.2-20.2,47.6-28.7c4.1-2.1,8-4,11.8-5.8c4.2-2,10.3-4.4,14.7-2.3
					c2.7,1.3,4.5,3.8,4.6,6.7c0.2,2.7-1.1,5.2-3.4,6.6c0,0-0.1,0-0.1,0.1c-0.1,0.1-0.2,0.1-0.4,0.2c-0.4,0.2-0.8,0.1-1-0.3
					c-0.2-0.4-0.1-0.8,0.3-1c0.1-0.1,0.3-0.2,0.4-0.2c0,0,0,0,0.1,0c1.8-1.1,2.8-3.1,2.7-5.2c-0.1-2.3-1.5-4.4-3.8-5.4
					c-3.9-1.8-9.5,0.5-13.4,2.3c-3.8,1.8-7.7,3.7-11.8,5.8c-16.4,8.5-32.4,18.1-47.4,28.6c-36.7,25.6-64,54.2-81.3,85
					c-27.3,48.6-31.3,109.3-10.4,158.2c1.7,4,3.6,8,5.7,11.8c6.2,11.6,13.8,22.5,22.8,32.4c19.8,21.9,44.6,37.8,71.6,46
					c0.4,0.1,0.8,0.2,1.2,0.4c2.6,0.8,5.3,1.5,8.1,2.1c5,1.1,10,2,15,2.6c14.6,1.7,29,1.5,42.7-0.8c41.9-6.8,75.3-31.6,96.6-71.6
					l0.3-0.5c0.2-0.4,0.6-0.5,1-0.3c0.4,0.2,0.5,0.6,0.3,1l-0.3,0.5c-21.5,40.5-55.3,65.5-97.7,72.4
					C240.6,479.8,232.6,480.4,224.4,480.4z"/>
			</g>
			<g>
				<path d="M230.5,122.2c0,0-0.1,0-0.1-0.1c0-0.1,0-0.1,0.1-0.2c1.2-0.6,2.3-1.2,3.3-1.7c0.1,0,0.1,0,0.2,0c0,0.1,0,0.1,0,0.2
					C232.8,121.1,231.8,121.6,230.5,122.2C230.5,122.2,230.5,122.2,230.5,122.2z"/>
			</g>
			<g>
				<path d="M233.8,121.1c-0.4,0-0.8-0.3-0.8-0.8c0-0.3,0.2-0.5,0.4-0.7c0.3-0.1,0.6-0.1,0.9,0.1c0.3,0.3,0.3,0.8,0,1.1
					C234.2,121,234,121.1,233.8,121.1z"/>
			</g>
			<g>
				<path d="M233.8,120.5c0,0-0.1,0-0.1-0.1c0-0.1,0-0.1,0-0.2c2.6-1.5,4.3-2.9,5.2-4.3c0.9-1.4,1.2-3.1,0.8-4.6
					c-0.3-1.3-1.1-2.3-2.3-3c-4.1-2.2-12.3-0.9-17.4,1.7c-0.1,0-0.1,0-0.2-0.1c0-0.1,0-0.1,0.1-0.2c5.2-2.6,13.5-4,17.6-1.7
					c1.2,0.7,2.1,1.8,2.4,3.1c0.4,1.6,0.1,3.3-0.8,4.8C238.2,117.5,236.4,119,233.8,120.5C233.8,120.5,233.8,120.5,233.8,120.5z"/>
			</g>
			<g>
				<path d="M254.7,127.7C254.7,127.7,254.7,127.6,254.7,127.7c-0.1-0.1-0.1-0.2-0.1-0.2c0,0,0,0,0-0.1c2-2.7,1.8-6.8-0.5-9.4
					c-2.4-2.7-8.8-3-13.7-0.7c-0.1,0-0.1,0-0.2-0.1c0-0.1,0-0.1,0.1-0.2c5.1-2.4,11.5-2,14,0.8c2.3,2.6,2.5,6.9,0.5,9.7
					C254.9,127.6,254.8,127.6,254.7,127.7C254.8,127.6,254.8,127.7,254.7,127.7z"/>
			</g>
			<g>
				<path d="M266.3,141c0,0-0.1,0-0.1-0.1c0-0.1,0-0.1,0-0.2c5.3-2.9,6.8-6,5-10.3c-1.7-4.2-8.4-5.3-16.5-2.8c-0.1,0-0.1,0-0.2-0.1
					c0-0.1,0-0.1,0.1-0.2c8.3-2.6,15-1.4,16.8,3C273.4,134.8,271.8,138,266.3,141C266.4,141,266.4,141,266.3,141z"/>
			</g>
			<g>
				<path d="M287.4,152.8c0,0-0.1,0-0.1-0.1c0-0.1,0-0.1,0-0.2c6-3.7,6.2-8.5,4.6-11.4c-1.5-2.7-4.7-4.6-8.4-5
					c-2.3-0.3-6.3,0.6-10.7,2.2c-0.2,0.1-0.5,0.2-0.7,0.3c-0.5,0.2-0.9,0.4-1.3,0.5c-0.1,0-0.1,0-0.2-0.1c0-0.1,0-0.1,0.1-0.2
					c0.4-0.2,0.8-0.3,1.3-0.5c0.2-0.1,0.5-0.2,0.7-0.3c2.1-0.8,7.4-2.6,10.8-2.2c3.8,0.4,7,2.3,8.6,5.1
					C293.8,144.1,293.6,149,287.4,152.8C287.4,152.8,287.4,152.8,287.4,152.8z"/>
			</g>
			<g>
				<path d="M257.4,201.6c-4,0-12-1.1-20.4-2.3c-7.4-1.1-15.1-2.2-21-2.6c-0.4,0-0.7-0.4-0.7-0.8s0.4-0.7,0.8-0.7
					c5.9,0.5,13.7,1.6,21.1,2.6c8.7,1.2,16.9,2.4,20.6,2.3c5.8-0.1,9.6-2,9.9-4.9c0.3-2.4-1.5-4.8-5.2-7.1c-6.7-4.3-14-7.6-21.7-9.9
					c0,0-0.1,0-0.1,0c-0.4-0.1-0.6-0.6-0.5-0.9c0.1-0.4,0.6-0.6,0.9-0.5c7.9,2.4,15.3,5.7,22.1,10.1c4.3,2.7,6.2,5.6,5.9,8.6
					c-0.7,5.6-8.9,6.2-11.4,6.3C257.8,201.6,257.6,201.6,257.4,201.6z"/>
			</g>
			<g>
				<path d="M248.6,477.7C248.6,477.7,248.6,477.7,248.6,477.7c-16.2-1.9-32.1-6.3-47.4-13c-28.7-12.7-53.6-33-72.2-58.7
					c-9.2-12.8-16.6-26.9-21.9-42c-7.9-22.6-10.9-46.7-8.6-69.9c0.8-8.2,2.3-16.4,4.4-24.2c6.9-25.5,21.2-51.3,42.5-76.5
					c1.2-1.5,2.5-2.9,3.7-4.4c17-20.2,29.2-34.8,60.3-55.4c0.1,0,0.1,0,0.2,0c0,0.1,0,0.1,0,0.2c-31.1,20.6-43.3,35.2-60.3,55.3
					c-1.2,1.4-2.4,2.9-3.7,4.4c-21.2,25.2-35.5,50.9-42.4,76.4c-2.1,7.8-3.6,16-4.4,24.2c-2.3,23.1,0.7,47.2,8.6,69.8
					c5.3,15.1,12.6,29.2,21.8,41.9c18.5,25.7,43.5,45.9,72.1,58.6c15.3,6.7,31.2,11.1,47.3,13c0.1,0,0.1,0.1,0.1,0.1
					C248.7,477.7,248.7,477.7,248.6,477.7z"/>
			</g>
			<g>
				<path d="M182.3,473.5c-0.1,0-0.1,0-0.1-0.1c0-0.1,0-0.1,0.1-0.2c6.4-2.4,12.8-5.4,18.9-8.8c5.3-3,10.5-6.3,15.4-10
					c7.3-5.4,14.2-11.5,20.7-18c19.5-19.8,35.2-44.7,46.7-73.9c0-0.1,0.1-0.1,0.2-0.1c0.1,0,0.1,0.1,0.1,0.2
					c-11.5,29.2-27.2,54.1-46.7,74c-6.5,6.6-13.4,12.7-20.7,18.1c-4.9,3.7-10.1,7-15.5,10C195.2,468.1,188.8,471.1,182.3,473.5
					C182.3,473.5,182.3,473.5,182.3,473.5z"/>
			</g>
			<g>
				<path d="M137.8,482.6c-10.6,0-21-1.5-31-4.5c-6-1.8-11.4-4-16.1-6.7c-3.9-2.2-7.5-4.7-10.7-7.6c-8.1-7.3-13.1-17-13.9-26.6
					c-1.1-14.8,6.1-30.9,19.3-43c0.3-0.3,0.8-0.3,1.1,0c0.3,0.3,0.3,0.8,0,1.1c-12.9,11.9-19.9,27.5-18.8,41.8
					c0.7,9.2,5.6,18.5,13.4,25.6c3.1,2.8,6.5,5.2,10.4,7.4c4.6,2.6,9.9,4.8,15.8,6.5c22.9,6.9,48.3,5.7,73.3-3.4
					c0.4-0.1,0.8,0.1,1,0.4c0.1,0.4-0.1,0.8-0.4,1C166.6,479.9,152,482.6,137.8,482.6z"/>
			</g>
			<g>
				<path d="M154.6,353.9c-0.3,0-0.5-0.1-0.7-0.4c-0.2-0.4-0.1-0.8,0.3-1c6.7-3.5,15-4.5,19.4-4.7l0.1,0.7v0.8
					c-4.3,0.2-12.4,1.2-18.8,4.5C154.8,353.9,154.7,353.9,154.6,353.9z"/>
			</g>
			<g>
				<path d="M245.7,374.1c-1.2,0-2.3-0.2-3.4-0.7c-2.9-1.2-4.7-3.7-6.4-6.2c-1.7-2.4-3.3-4.7-5.7-5.6c-3.4-1.2-6.8,0.6-10.4,2.6
					c-3.2,1.8-6.6,3.6-10.2,3.4c-4.5-0.2-7.8-3.4-11-6.5c-2.6-2.5-5.2-5-8.5-5.9c-1.8-0.5-3.7-0.4-5.8-0.4c-1.3,0-2.6,0.1-3.8,0
					c-2-0.2-3.6-0.6-4.8-1.4c-1.8-1.1-2.8-2.8-2.9-5c-0.1-2.4,0.9-5.4,2.9-8.3c3.9-5.6,10.4-9,16.8-8.9c1.8,0,3.6,0.3,5.4,0.5
					c3.3,0.5,6.3,0.9,9.2-0.1c1.7-0.6,3.2-1.6,4.7-2.7c2.2-1.5,4.5-3.1,7.3-3.4c4-0.3,7.1,2,10.2,4.3c2.5,1.8,4.9,3.6,7.6,4
					c3.8,0.6,7.3-1.4,11-3.6c4-2.3,8.1-4.6,12.6-3.7c3.8,0.8,6.4,3.5,9,6.2c1.4,1.4,2.8,2.9,4.4,4c2.7,1.9,5.9,2.9,9.2,3.9
					c2,0.6,4.2,1.2,6.2,2.1c0.2,0.1,0.4,0.2,0.5,0.2c1.7,0.8,3.3,2,4.7,3.2c0.7,0.7,1.3,1.4,1.9,2.2c1.9,2.8,2.4,5.8,1.4,8.5
					c-2,5.4-8.6,6.6-13.7,6.1c-0.5,0-1-0.1-1.6-0.2c-1.3-0.2-2.7-0.6-4-0.9c-4.1-1-8-1.9-11.7-0.8c-3.3,1-5.8,3.4-8.4,5.9
					c-0.8,0.7-1.5,1.4-2.3,2.1C252.5,372.5,248.9,374.1,245.7,374.1z M227.9,359.3c1,0,2,0.2,3,0.5c3,1.1,4.9,3.7,6.7,6.3
					c1.6,2.3,3.2,4.5,5.5,5.5c4.5,1.9,9.6-1.9,11.6-3.7c0.7-0.7,1.5-1.4,2.2-2.1c2.7-2.6,5.5-5.3,9.2-6.4c4.2-1.3,8.6-0.2,12.8,0.8
					c1.3,0.3,2.6,0.6,3.9,0.9c0.5,0.1,1,0.2,1.5,0.2c4.4,0.5,10-0.5,11.6-4.8c1-2.6-0.1-5.1-1.2-6.7c-0.5-0.7-1-1.3-1.6-1.9
					c-1.2-1.1-2.6-2.1-4.1-2.9c-0.1-0.1-0.3-0.1-0.5-0.2c-1.9-0.8-4-1.4-5.9-2c-3.4-1-6.9-2-9.8-4.2c-1.7-1.2-3.2-2.8-4.6-4.3
					c-2.5-2.6-4.8-5-8-5.6c-3.8-0.8-7.4,1.3-11.2,3.5c-3.9,2.2-7.9,4.5-12.3,3.8c-3.2-0.5-5.9-2.5-8.5-4.4c-2.9-2.1-5.6-4.2-8.8-3.9
					c-2.3,0.2-4.3,1.6-6.3,3c-1.6,1.1-3.3,2.3-5.2,3c-3.3,1.2-6.8,0.7-10.1,0.2c-1.7-0.2-3.5-0.5-5.2-0.5
					c-5.7-0.1-11.7,3.1-15.2,8.1c-1.7,2.5-2.7,5-2.6,7c0.1,1.5,0.7,2.6,2,3.4c0,0,0,0,0,0c1,0.6,2.3,1,3.9,1.1
					c1.2,0.1,2.4,0.1,3.6,0c2.1-0.1,4.2-0.1,6.3,0.4c3.7,1,6.6,3.7,9.3,6.4c3.1,2.9,6,5.7,9.8,5.9c3.1,0.2,6.2-1.5,9.2-3.1
					C221.8,360.9,224.8,359.3,227.9,359.3z"/>
			</g>
			<g>
				<path d="M209.9,357.9c-0.3,0-0.6,0-1,0c-4.5-0.4-8.3-3.5-11.5-6.3l-0.5-0.4c-3.2-2.8-6.4-5.8-10.5-6.7c-2.2-0.5-4.5-0.1-6.4,1.3
					c-2.1,1.5-3.4,3.9-3.7,6.8c0,0.1-0.1,0.1-0.1,0.1c-0.1,0-0.1-0.1-0.1-0.1c0.3-3,1.6-5.5,3.8-7c1.9-1.4,4.3-1.9,6.6-1.3
					c4.1,1,7.4,3.9,10.6,6.8l0.5,0.4c3.2,2.8,6.9,5.9,11.4,6.3c4.8,0.4,9.1-2.3,13.3-5l0.8-0.5c4.1-2.6,9.5-5.4,14.6-3.5
					c2.3,0.8,4.3,2.5,6.2,4.2c2.9,2.5,5.6,4.8,9,4.2c2.2-0.4,3.8-1.8,5.5-3.4c1.2-1.1,2.5-2.3,4-3c3-1.4,6.7-1.1,11.4,0.8
					c0.8,0.3,1.6,0.7,2.4,1c2.7,1.2,5.5,2.5,8.5,2.7c3.6,0.3,9.8-2.1,10.6-6c0-0.1,0.1-0.1,0.1-0.1c0.1,0,0.1,0.1,0.1,0.1
					c-0.8,4-7.1,6.5-10.9,6.2c-3-0.3-5.9-1.5-8.6-2.7c-0.8-0.4-1.6-0.7-2.4-1c-4.6-1.9-8.3-2.2-11.2-0.8c-1.5,0.7-2.8,1.8-4,2.9
					c-1.7,1.5-3.4,3.1-5.7,3.5c-3.6,0.6-6.3-1.7-9.2-4.2c-1.9-1.6-3.9-3.3-6.1-4.2c-4.9-1.8-10.3,0.9-14.4,3.5l-0.8,0.5
					C218.4,355.4,214.4,357.9,209.9,357.9z"/>
			</g>
			<g>
				<path d="M77.3,436.7c-0.6,0-1-0.2-1.2-0.5c-1-1-0.8-3.4,0.4-5.1l0,0c1.6-2.2,3.8-4.9,6.8-6.6c1.5-0.8,2.8-1.1,3.9-0.9
					c1.4,0.2,2.8,1.4,2.7,3c0,1.4-1.2,2.5-2.4,3.4l-8,5.8C78.7,436.5,77.9,436.7,77.3,436.7z M77.2,431.5c-1.1,1.5-1.2,3.5-0.5,4.1
					c0.5,0.5,1.4,0.3,2.5-0.5l8-5.8c1.1-0.8,2.1-1.7,2.1-2.8c0-1.1-1.1-2-2.1-2.2c-1-0.2-2.1,0.1-3.4,0.8
					C80.8,426.8,78.7,429.4,77.2,431.5z"/>
			</g>
			<g>
				<path d="M100.7,439.4C100.7,439.4,100.6,439.4,100.7,439.4c-0.1-0.1-0.1-0.2-0.1-0.2c0,0,0,0,0,0c1.4-2.6,3-5.1,4.8-7.6
					c1-1.4,2.1-2.8,3.2-4.2c0-0.1,0.1-0.1,0.2,0c0.1,0,0.1,0.1,0,0.2c-1.2,1.4-2.2,2.8-3.2,4.2c-1.8,2.4-3.4,5-4.8,7.6c0,0,0,0,0,0
					C100.8,439.3,100.8,439.3,100.7,439.4C100.8,439.4,100.7,439.4,100.7,439.4z"/>
			</g>
			<g>
				<path d="M91.1,471.1c-0.1,0-0.1-0.1-0.1-0.1c0-0.1,0-0.1,0-0.2c0.2-2.6,0.6-5.3,1.1-8c0.5-2.4,1.1-4.9,1.8-7.5
					c0-0.1,0.1-0.1,0.2-0.1c0.1,0,0.1,0.1,0.1,0.2c-0.7,2.5-1.3,5-1.8,7.4c-0.5,2.6-0.9,5.3-1.1,8c0,0.1,0,0.1,0,0.2
					C91.2,471,91.1,471.1,91.1,471.1z"/>
			</g>
			<g>
				<path d="M287.3,350.2c-2.2,0-4.4-0.6-6.3-1.4c-1.1-0.5-2.2-1-3.2-1.5c-2.9-1.5-5.9-3-9.1-3c0,0-0.1,0-0.1,0
					c-2.8,0-5.5,1.1-8.1,2.2c-3.1,1.3-6.3,2.6-9.6,2c-2.6-0.4-4.8-2-7-3.5c-1.8-1.3-3.8-2.6-5.9-3.2c-4.9-1.5-9.9,0.9-14.7,3.2
					c-4.6,2.2-9.3,4.5-14.2,3.6c-3.3-0.6-6-2.7-8.7-4.6c-1.9-1.4-3.9-2.9-6.1-3.8c-3.7-1.6-8.1-1.6-12,0c-3.9,1.6-6.9,4.6-8.5,8.5
					c0,0.1-0.1,0.1-0.2,0.1c-0.1,0-0.1-0.1-0.1-0.2c1.6-3.9,4.7-7,8.6-8.6c4-1.6,8.4-1.6,12.2,0c2.2,1,4.2,2.4,6.2,3.9
					c2.6,1.9,5.3,3.9,8.6,4.6c4.8,0.9,9.5-1.3,14.1-3.5c4.8-2.3,9.8-4.7,14.9-3.3c2.2,0.6,4.1,2,6,3.3c2.1,1.5,4.3,3,6.9,3.4
					c3.2,0.6,6.3-0.7,9.5-2c2.6-1.1,5.4-2.2,8.2-2.2c0,0,0.1,0,0.1,0c3.3,0,6.3,1.5,9.2,3c1,0.5,2.1,1.1,3.2,1.5
					c3.8,1.7,9.3,2.4,12.1-1.1c0-0.1,0.1-0.1,0.2,0c0.1,0,0.1,0.1,0,0.2C291.9,349.5,289.7,350.2,287.3,350.2z"/>
			</g>
			<g>
				<path d="M288.7,409c-0.3,0-0.6,0-0.9,0c-2.4-0.2-4.5-1.5-5.5-3.3c-1-2-0.8-4.5,0.6-6.7c4.3-6.7,15.2-8.5,18.5-8.9
					c4-0.5,6.8,0.4,8.3,2.6c1.5,2.3,0.8,5.2-0.5,7c0,0,0,0,0,0c-1.3,1.9-3.3,3.1-5.3,4.1c-3.3,1.7-6.7,3.1-10.2,4.3
					C292.3,408.4,290.5,408.9,288.7,409C288.7,409,288.7,409,288.7,409z M303.5,391.9c-0.7,0-1.3,0.1-1.8,0.1c-6.2,0.8-14,3.3-17,8
					c-1,1.5-1.2,3.4-0.5,4.7c0.8,1.5,2.5,2.1,3.9,2.2c0.2,0,0.5,0,0.7,0c1.5,0,3.1-0.5,4.4-0.9c3.4-1.1,6.7-2.5,9.8-4.1
					c1.7-0.9,3.5-2,4.6-3.5c0.9-1.3,1.4-3.3,0.5-4.8C307.1,392.2,305.2,391.9,303.5,391.9z M308.4,399L308.4,399L308.4,399z"/>
			</g>
			<g>
				<path d="M289.4,413.2c-0.5,0-0.9-0.3-1-0.8c-0.1-0.6-0.3-1.4-0.4-2.2c-0.1-0.7-0.2-1.5-0.3-2c-0.1-0.5,0.2-1.1,0.8-1.2
					c0.5-0.1,1.1,0.2,1.2,0.8c0.1,0.6,0.3,1.4,0.4,2.2c0.1,0.7,0.2,1.5,0.3,2c0.1,0.5-0.2,1.1-0.8,1.2
					C289.5,413.2,289.5,413.2,289.4,413.2z"/>
			</g>
			<g>
				<path d="M297.5,411.5c-0.4,0-0.8-0.2-0.9-0.6c-0.3-0.6-0.6-1.4-0.8-2.1c-0.3-0.7-0.6-1.4-0.8-2.1c-0.2-0.5,0-1.1,0.5-1.3
					s1.1,0,1.3,0.5c0.3,0.6,0.6,1.4,0.8,2.1c0.3,0.7,0.6,1.4,0.8,2.1c0.2,0.5,0,1.1-0.5,1.3C297.7,411.5,297.6,411.5,297.5,411.5z"/>
			</g>
			<g>
				<path d="M305,408.7c-0.4,0-0.7-0.2-0.9-0.5l-2.4-4.4c-0.3-0.5-0.1-1.1,0.4-1.4c0.5-0.3,1.1-0.1,1.4,0.4l2.4,4.4
					c0.3,0.5,0.1,1.1-0.4,1.4C305.4,408.7,305.2,408.7,305,408.7z"/>
			</g>
			<g>
				<path d="M312,403.9c-0.3,0-0.5-0.1-0.7-0.3c-0.6-0.6-1.1-1.2-1.7-1.8c-0.7-0.7-1.3-1.4-2-2.1c-0.4-0.4-0.3-1,0.1-1.4
					c0.4-0.4,1-0.3,1.4,0.1c0.6,0.7,1.3,1.4,1.9,2.1c0.6,0.6,1.1,1.2,1.7,1.8c0.4,0.4,0.3,1-0.1,1.4
					C312.5,403.8,312.3,403.9,312,403.9z"/>
			</g>
			<g>
				<path d="M227.5,542.1c-0.1,0-0.1,0-0.2-0.1c-4.2-4.4-6.9-10.6-7.7-18.1c-0.7-6.6,0-13.6,2.2-19.8c3.9-11.3,14.5-22,26.4-26.6
					l0.3-0.1c0.1,0,0.3,0,0.3,0.2c0,0.1,0,0.3-0.1,0.3l-0.3,0.1c-11.8,4.6-22.3,15.1-26.1,26.3c-5.5,16.1-1,30.7,5.4,37.4
					c0.1,0.1,0.1,0.3,0,0.4C227.7,542.1,227.6,542.1,227.5,542.1z"/>
			</g>
			<g>
				<path d="M204.3,544.2c-1.7,0-3.5,0-5.2-0.1c-5.2-0.2-10.3-0.5-15.3-1.1c-7.8-0.9-15.6-2.4-23.1-4.4
					c-18.2-4.9-33.5-12.5-45.4-22.6c-11.6-9.8-23.6-22.8-24.9-44.9c0-0.4,0.3-0.8,0.7-0.8c0.4,0,0.8,0.3,0.8,0.7
					c1.3,21.5,12.5,33.8,24.4,43.8c11.7,10,26.8,17.5,44.8,22.3c7.5,2,15.2,3.5,22.9,4.4c5,0.6,10.1,1,15.2,1.1
					c9.4,0.3,18.9-0.2,28.3-1.4c11.5-1.5,23.1-4.1,34.3-7.8c31.3-10.3,60.8-29.2,85.4-54.5c15.4-15.9,24.2-30,27.5-44.5
					c4.2-18.3-2-37.5-15.1-46.7c-0.2-0.1-0.2-0.2-0.3-0.2c-0.3-0.2-0.4-0.7-0.2-1s0.7-0.4,1-0.2c0.1,0.1,0.2,0.1,0.3,0.2
					c13.6,9.5,20.1,29.4,15.8,48.3c-3.4,14.8-12.2,29.2-27.9,45.2c-24.8,25.5-54.5,44.4-86,54.8c-11.3,3.7-22.9,6.4-34.5,7.9
					C219.9,543.7,212.1,544.2,204.3,544.2z"/>
			</g>
			<g>
				<path d="M199.1,543.2C199.1,543.2,199.1,543.1,199.1,543.2c-8.6-8.3-13-19.1-12.6-30.4c0.5-12.6,7.2-24.7,18.7-34.3
					c0.1,0,0.1,0,0.2,0c0,0.1,0,0.1,0,0.2c-11.5,9.5-18.2,21.6-18.6,34.1c-0.4,11.3,4,22,12.4,30.2
					C199.3,543,199.3,543.1,199.1,543.2C199.2,543.1,199.2,543.2,199.1,543.2z"/>
			</g>
			<g>
				<path d="M183.9,542.3C183.8,542.3,183.8,542.2,183.9,542.3c-8.1-8.2-12.5-21.5-11.3-33.8c1.2-11.5,8.2-24.6,17.6-32.6
					c0.1,0,0.1-0.1,0.2,0c0,0,0.1,0.1,0,0.2l-0.1-0.1l0.1,0.1c0,0,0,0,0,0c-9.3,8-16.4,21-17.5,32.4c-1.2,12.3,3.1,25.5,11.1,33.6
					C184,542.1,184,542.2,183.9,542.3C183.9,542.2,183.9,542.3,183.9,542.3z"/>
			</g>
			<g>
				<path d="M325.1,355.3c-1.7,0-3.3-0.3-4.9-1c-5.5-2.4-8-8.5-8.5-13.4c-0.5-4.4,0.3-8.9,0.9-13.2c0.2-1,0.3-2,0.5-3
					c1.2-8.3,1.3-16.3,0.2-23.6c-0.8-5.2-2.1-10.1-4-14.6c-6.7-15.6-21.1-28.4-40.5-36.2c-14.7-5.9-34.4-12-69.8-12.4
					c-0.2,0-0.4-0.2-0.4-0.3s0.1-0.4,0.3-0.4c28.2-4.4,49.2-4.5,85.3,7.3c24.1,7.8,39,19.3,51.3,39.5c12.6,20.7,14.6,43,5.4,61
					C338.1,350.6,331.6,355.3,325.1,355.3z M203.4,237.3c32.7,0.9,51.5,6.7,65.6,12.4c19.7,7.9,34.2,20.9,40.9,36.7
					c1.9,4.5,3.3,9.5,4.1,14.8c1.1,7.4,1,15.4-0.2,23.8c-0.1,1-0.3,2-0.5,3c-0.7,4.3-1.4,8.7-0.9,13c0.5,4.7,2.9,10.5,8.1,12.7
					c7.4,3.2,16.4-2.1,19.8-8.9c9.1-17.8,7.1-39.8-5.4-60.3c-12.2-20.1-27-31.4-50.9-39.2C249.9,234.1,229.4,233.6,203.4,237.3z"/>
			</g>
			<g>
				<path d="M215.5,590.3c-1.9,0-3.7-0.5-5.3-1.4c-1.2-0.8-2.3-1.8-3.4-2.8c-1.7-1.6-3.2-3-5.3-3.5c-2.1-0.4-4.2,0.4-6.3,1.2
					c-1.4,0.6-2.9,1.1-4.4,1.4c-3.7,0.6-7.6-1.1-9.7-4.2c-0.7-1.1-1.3-2.3-1.8-3.4c-0.8-1.9-1.6-3.6-3.1-4.7c-2-1.5-4.6-1.3-7.4-1.2
					c-1.5,0.1-3,0.2-4.4,0c-4.6-0.6-10.5-7.4-10.2-11.9c0.1-1.5,0.9-3.9,5.4-4c1.9,0,3.8,0.5,5.6,1.1l0.1,0
					c20.2,6.1,41.1,8.6,62.2,7.5l1-0.1c3.4-0.2,7-0.4,10.4,0.3c4.4,0.9,7.8,3.3,9.4,6.5c1.7,3.4,1.1,8.6-2.6,10.7
					c-2.9,1.6-6.3,0.9-9.6,0.1c-3.4-0.8-6.6-1.5-9.1,0.4c-1,0.7-1.7,1.7-2.4,2.8c-0.4,0.6-0.9,1.3-1.4,1.9
					C221.4,589.1,218.4,590.3,215.5,590.3z M200.4,581.6c0.5,0,0.9,0,1.4,0.1c2.3,0.5,4.1,2.1,5.8,3.7c1,1,2,1.9,3.2,2.7
					c3.7,2.3,9,1.5,11.9-1.8c0.5-0.5,0.9-1.2,1.3-1.8c0.7-1.1,1.5-2.2,2.6-3c2.9-2.1,6.4-1.3,9.9-0.5c3.1,0.7,6.3,1.4,8.8,0
					c3.2-1.8,3.8-6.4,2.2-9.3c-1.5-2.9-4.7-5.1-8.7-5.9c-3.3-0.7-6.8-0.5-10.2-0.3l-1,0.1c-21.2,1.1-42.2-1.4-62.5-7.5l-0.1,0
					c-1.7-0.5-3.5-1-5.2-1c0,0,0,0,0,0c-2.8,0-4.3,1.1-4.4,3.1c-0.2,4.1,5.2,10.4,9.3,10.9c0,0,0,0,0,0c1.4,0.2,2.8,0.1,4.3,0
					c2.8-0.2,5.7-0.3,8,1.4c1.7,1.3,2.6,3.2,3.4,5.1c0.5,1.1,1,2.3,1.7,3.3c1.9,2.8,5.4,4.3,8.7,3.8c1.4-0.2,2.8-0.8,4.2-1.3
					C196.6,582.3,198.5,581.6,200.4,581.6z"/>
			</g>
			<g>
				<path d="M343.3,67.9c-0.3,0-0.5-0.1-0.8-0.2c-9.6-6.5-22.1-8.6-33.3-5.7c-0.7,0.2-1.5-0.2-1.7-1c-0.2-0.7,0.2-1.5,1-1.7
					c12-3.1,25.2-0.9,35.5,6.1c0.6,0.4,0.8,1.3,0.4,1.9C344.2,67.7,343.7,67.9,343.3,67.9z"/>
			</g>
			<g>
				<path d="M354.5,46.1c-0.2,0-0.4-0.1-0.6-0.2c-26.9-14-60.8-15.1-88.5-2.9c-0.7,0.3-1.5,0-1.8-0.7c-0.3-0.7,0-1.5,0.7-1.8
					c28.9-12.7,62.9-11.6,90.9,3c0.7,0.4,0.9,1.2,0.6,1.9C355.4,45.9,355,46.1,354.5,46.1z"/>
			</g>
			<g>
				<path d="M366.3,82.8c-0.3,0-0.6-0.1-0.8-0.4c-0.4-0.4-0.3-1.1,0.1-1.4c14.1-11.9,29.3-22.4,45.4-31.3c0.5-0.3,1.1-0.1,1.4,0.4
					s0.1,1.1-0.4,1.4c-16,8.8-31.1,19.2-45.1,31C366.8,82.7,366.5,82.8,366.3,82.8z"/>
			</g>
			<g>
				<path d="M475.7,74.1c-0.2,0-0.3,0-0.5-0.1c-20.7-11-42.2-18.5-63.9-22.4c-0.5-0.1-0.9-0.6-0.8-1.2c0.1-0.5,0.6-0.9,1.2-0.8
					c21.9,3.9,43.6,11.5,64.5,22.6c0.5,0.3,0.7,0.9,0.4,1.4C476.4,73.9,476.1,74.1,475.7,74.1z"/>
			</g>
			<g>
				<path d="M487.5,127.9c-0.5,0-0.9-0.3-1-0.8c-1.3-6-2.6-12.4-3.8-18.5c-2.3-11.7-4.7-23.7-8-35.3c-0.2-0.5,0.2-1.1,0.7-1.2
					c0.5-0.2,1.1,0.2,1.2,0.7c3.3,11.6,5.7,23.7,8,35.4c1.2,6.1,2.4,12.4,3.8,18.4c0.1,0.5-0.2,1.1-0.8,1.2
					C487.7,127.9,487.6,127.9,487.5,127.9z"/>
			</g>
			<g>
				<path d="M389.1,176.8c-0.4,0-0.8-0.2-0.9-0.6c-11.8-30.2-19.5-61.9-22.9-94.3c-0.1-0.5,0.3-1,0.9-1.1c0.5-0.1,1,0.3,1.1,0.9
					c3.3,32.2,11,63.8,22.7,93.7c0.2,0.5-0.1,1.1-0.6,1.3C389.3,176.8,389.2,176.8,389.1,176.8z"/>
			</g>
			<g>
				<path d="M389.1,176.8c-0.4,0-0.8-0.3-1-0.7c-0.2-0.5,0.1-1.1,0.7-1.2c38.9-11.8,72.9-32.3,98.2-48.8c0.5-0.3,1.1-0.2,1.4,0.3
					c0.3,0.5,0.2,1.1-0.3,1.4c-25.4,16.6-59.5,37.1-98.7,49C389.3,176.8,389.2,176.8,389.1,176.8z"/>
			</g>
			<g>
				<path d="M429.5,94.7C429.5,94.7,429.4,94.7,429.5,94.7c-9.6-2.4-20-4.7-30.9-6.8c-10.4-2-21.3-3.9-32.3-5.6
					c-0.2,0-0.3-0.2-0.3-0.4c0-0.2,0.2-0.3,0.4-0.3c11.1,1.7,22,3.6,32.3,5.6c10.9,2.1,21.3,4.4,30.9,6.8c0.2,0.1,0.3,0.3,0.3,0.5
					C429.8,94.6,429.7,94.7,429.5,94.7z"/>
			</g>
			<g>
				<path d="M487.5,127.3c-0.1,0-0.1,0-0.2,0c-10-5.4-20-11.1-28.5-15.9l-5.5-3.1c-7.8-4.5-16-9.1-24.1-13.6
					c-0.2-0.1-0.2-0.3-0.1-0.5c0.1-0.2,0.3-0.2,0.5-0.1c8.1,4.5,16.3,9.2,24.1,13.6l5.5,3.1c8.5,4.8,18.5,10.5,28.5,15.9
					c0.2,0.1,0.2,0.3,0.2,0.5C487.8,127.2,487.7,127.3,487.5,127.3z"/>
			</g>
			<g>
				<path d="M429.5,94.4c-0.1,0-0.1,0-0.1-0.1c0-0.1,0-0.1,0.1-0.2c13.6-5.1,27.9-11.6,46.2-21.1c0.1,0,0.1,0,0.2,0.1
					c0,0.1,0,0.1-0.1,0.2C457.4,82.8,443.1,89.3,429.5,94.4C429.5,94.4,429.5,94.4,429.5,94.4z"/>
			</g>
			<g>
				<path d="M429.5,94.4c-0.1,0-0.1,0-0.1-0.1c-0.6-1.8-1.3-3.6-1.9-5.4c-4.5-12.8-9.2-26.1-16-38.2c0-0.1,0-0.1,0-0.2
					c0.1,0,0.1,0,0.2,0c6.8,12.1,11.5,25.4,16,38.2c0.6,1.8,1.3,3.6,1.9,5.4C429.6,94.3,429.6,94.4,429.5,94.4
					C429.5,94.4,429.5,94.4,429.5,94.4z"/>
			</g>
			<g>
				<path d="M388.9,123c0,0-0.1,0-0.1-0.1c-4.7-7.5-8.9-15.5-12.9-23.2c-3.1-5.9-6.3-12-9.7-17.8c0-0.1,0-0.1,0-0.2
					c0.1,0,0.1,0,0.2,0c3.4,5.8,6.6,11.9,9.7,17.8c4.1,7.7,8.3,15.7,12.9,23.2C389.1,122.9,389,122.9,388.9,123
					C389,123,388.9,123,388.9,123z"/>
			</g>
			<g>
				<path d="M389.2,122.9c0,0-0.1,0-0.1-0.1c0-0.1,0-0.1,0-0.2c12.1-6.7,24.9-15.8,40.2-28.5c0.1,0,0.1,0,0.2,0c0,0.1,0,0.1,0,0.2
					C414.2,107.1,401.4,116.2,389.2,122.9C389.3,122.9,389.3,122.9,389.2,122.9z"/>
			</g>
			<g>
				<path d="M434.7,139c-0.1,0-0.1,0-0.1-0.1c-0.8-7.1-1.7-14.8-2.6-22.3c-0.9-7.5-1.8-15.2-2.6-22.3c0-0.1,0-0.1,0.1-0.1
					c0.1,0,0.1,0,0.1,0.1c0.8,7.1,1.7,14.8,2.6,22.3c0.9,7.5,1.8,15.2,2.6,22.3C434.8,138.9,434.8,139,434.7,139
					C434.7,139,434.7,139,434.7,139z"/>
			</g>
			<g>
				<path d="M434.7,139c-0.1,0-0.1,0-0.1-0.1c0-0.1,0-0.1,0.1-0.1c9.1-1.6,17.9-3.8,26.4-6c8.5-2.1,17.4-4.3,26.4-6
					c0.1,0,0.1,0,0.1,0.1c0,0.1,0,0.1-0.1,0.1c-9.1,1.6-17.9,3.8-26.4,6C452.6,135.1,443.8,137.3,434.7,139
					C434.7,139,434.7,139,434.7,139z"/>
			</g>
			<g>
				<path d="M434.7,139C434.7,139,434.6,139,434.7,139c-0.1-0.1-0.1-0.2-0.1-0.2c5-4.5,9.7-10.3,14.2-15.9
					c3.3-4.1,6.7-8.3,10.1-11.9c0,0,0.1-0.1,0.2,0c0,0,0.1,0.1,0,0.2c-3.4,3.6-6.8,7.8-10.1,11.9C444.5,128.6,439.8,134.4,434.7,139
					C434.8,139,434.7,139,434.7,139z"/>
			</g>
			<g>
				<path d="M389.1,176C389.1,176,389,175.9,389.1,176c-0.1-0.1-0.1-0.2-0.1-0.2c7.2-6.2,15.2-12.5,22.9-18.6
					c7.7-6,15.6-12.3,22.7-18.4c0.1,0,0.1,0,0.2,0c0,0.1,0,0.1,0,0.2c-7.1,6.2-15.1,12.4-22.7,18.4
					C404.3,163.4,396.3,169.7,389.1,176C389.2,175.9,389.1,176,389.1,176z"/>
			</g>
			<g>
				<path d="M389.1,176c-0.1,0-0.1-0.1-0.1-0.1c-0.2-8.5-0.2-17.7-0.1-26.6c0.1-8.8,0.1-17.9-0.1-26.3c0-0.1,0.1-0.1,0.1-0.1
					c0,0,0,0,0,0c0.1,0,0.1,0.1,0.1,0.1c0.2,8.4,0.1,17.5,0.1,26.4c-0.1,8.9-0.1,18.1,0.1,26.6C389.2,175.9,389.2,176,389.1,176
					C389.1,176,389.1,176,389.1,176z"/>
			</g>
			<g>
				<path d="M389,122.9l-0.2,0c0-0.1,0-0.1,0-0.2c1.4-5,3.1-11.3,4.8-17.4c1.7-6.2,3.4-12.7,4.9-17.8c0-0.1,0.1-0.1,0.2-0.1
					c0.1,0,0.1,0.1,0.1,0.2c-1.5,5.1-3.2,11.6-4.9,17.8c-1.6,6.1-3.3,12.4-4.8,17.4C389.1,122.8,389.1,122.9,389,122.9z"/>
			</g>
			<g>
				<path d="M565.1,275.6c-0.6,0-1.2-0.4-1.3-1.1c-4.8-23.1-11.8-37.4-23-55.7c-8.1-13.3-22.3-31-43.8-39.6c-0.7-0.3-1-1.1-0.8-1.8
					c0.3-0.7,1.1-1,1.8-0.8c22.1,8.9,36.7,27,45.1,40.7c11.3,18.6,18.4,33.1,23.4,56.6c0.2,0.7-0.3,1.5-1.1,1.6
					C565.3,275.6,565.2,275.6,565.1,275.6z"/>
			</g>
			<g>
				<path d="M479.2,238.8c-0.6,0-1.1-0.2-1.5-0.7l-7.1-8.3c-0.7-0.8-0.6-2.1,0.2-2.8c0.8-0.7,2.1-0.6,2.8,0.2l7.1,8.3
					c0.7,0.8,0.6,2.1-0.2,2.8C480.1,238.6,479.7,238.8,479.2,238.8z" style="fill:#FF564F;"/>
			</g>
			<g>
				<path d="M508.2,231.8c-0.1,0-0.3,0-0.4,0c-1.1-0.2-1.8-1.3-1.5-2.4l1.7-7.9c0.2-1.1,1.3-1.8,2.4-1.5
					c1.1,0.2,1.8,1.3,1.5,2.4l-1.7,7.9C510,231.2,509.1,231.8,508.2,231.8z" style="fill:#FF564F;"/>
			</g>
			<g>
				<path d="M530.8,252.3c-0.9,0-1.7-0.6-1.9-1.4c-0.3-1.1,0.3-2.2,1.3-2.5l8.3-2.5c1.1-0.3,2.2,0.3,2.5,1.3
					c0.3,1.1-0.3,2.2-1.3,2.5l-8.3,2.5C531.2,252.3,531,252.3,530.8,252.3z" style="fill:#FF564F;"/>
			</g>
			<g>
				<path d="M525.5,289.6c-0.6,0-1.2-0.3-1.6-0.8l-6-8.5c-0.6-0.9-0.4-2.2,0.5-2.8c0.9-0.6,2.2-0.4,2.8,0.5l6,8.5
					c0.6,0.9,0.4,2.2-0.5,2.8C526.3,289.5,525.9,289.6,525.5,289.6z" style="fill:#FF564F;"/>
			</g>
			<g>
				<path d="M495.7,302.4c-1.1,0-2-0.9-2-2v-9.6c0-1.1,0.9-2,2-2s2,0.9,2,2v9.6C497.7,301.5,496.8,302.4,495.7,302.4z" style="fill:#FF564F;"/>
			</g>
			<g>
				<path d="M457.1,280.4c-0.9,0-1.8-0.6-2-1.6c-0.2-1.1,0.5-2.1,1.5-2.4c1.9-0.4,4-0.9,6-1.4c1.8-0.4,3.5-0.8,4.8-1.1
					c1.1-0.2,2.1,0.5,2.4,1.6c0.2,1.1-0.5,2.1-1.6,2.4c-1.2,0.3-2.9,0.7-4.7,1.1c-2.1,0.5-4.2,1-6.1,1.4
					C457.4,280.4,457.2,280.4,457.1,280.4z" style="fill:#FF564F;"/>
			</g>
			<g>
				<path d="M482.9,278.2c-0.3,0-0.5-0.2-0.5-0.5v0c0-0.3,0.2-0.5,0.5-0.5s0.5,0.2,0.5,0.5S483.2,278.2,482.9,278.2z"/>
			</g>
			<g>
				<path d="M482.9,278.2c-0.2,0-0.5-0.2-0.5-0.4c-0.2-1.4-1.8-12.6-2.1-17.9c0-0.3,0.2-0.5,0.5-0.5c0.3,0,0.5,0.2,0.5,0.5
					c0.3,5.2,1.9,16.4,2.1,17.8C483.4,277.9,483.2,278.2,482.9,278.2C483,278.2,482.9,278.2,482.9,278.2z"/>
			</g>
			<g>
				<path d="M480.8,260.4c-0.1,0-0.2,0-0.3-0.1c-0.2-0.2-0.2-0.5,0-0.7c5.9-6.8,14-12.7,21.2-17.9l1-0.7c0.2-0.2,0.5-0.1,0.7,0.1
					c0.2,0.2,0.1,0.5-0.1,0.7l-1,0.7c-7.1,5.2-15.2,11.1-21,17.8C481.1,260.3,480.9,260.4,480.8,260.4z"/>
			</g>
			<g>
				<path d="M518.1,256.5c-0.1,0-0.3-0.1-0.4-0.2c-4.6-5.3-9.7-10.2-15.2-14.6c-0.2-0.2-0.3-0.5-0.1-0.7c0.2-0.2,0.5-0.3,0.7-0.1
					c5.6,4.4,10.7,9.3,15.3,14.7c0.2,0.2,0.2,0.5-0.1,0.7C518.4,256.4,518.3,256.5,518.1,256.5z"/>
			</g>
			<g>
				<path d="M511.5,271.6c-0.1,0-0.1,0-0.2,0c-0.3-0.1-0.4-0.4-0.3-0.7c1-2.2,2.1-4.8,3.2-7.4c1.2-2.7,2.4-5.4,3.4-7.8
					c0.1-0.3,0.4-0.4,0.7-0.3c0.3,0.1,0.4,0.4,0.3,0.7c-1,2.3-2.2,5.1-3.4,7.8c-1.1,2.6-2.3,5.2-3.2,7.4
					C511.9,271.5,511.7,271.6,511.5,271.6z"/>
			</g>
			<g>
				<path d="M482.9,278.2c-0.2,0-0.4-0.2-0.5-0.4c-0.1-0.3,0.1-0.5,0.4-0.6c5.1-1.2,9.8-2.3,14.4-3.3c4.5-1,9.2-2.1,14.2-3.3
					c0.3-0.1,0.5,0.1,0.6,0.4c0.1,0.3-0.1,0.5-0.4,0.6c-5,1.2-9.7,2.3-14.3,3.3c-4.6,1-9.3,2.1-14.4,3.3
					C483,278.2,482.9,278.2,482.9,278.2z"/>
			</g>
			<g>
				<path d="M482.9,277.8c0,0-0.1,0-0.1-0.1c0-0.1,0-0.1,0-0.2c3.5-2.6,7-5.3,10.5-8c3.5-2.7,7.1-5.5,10.5-8c0.1,0,0.1,0,0.2,0
					c0,0.1,0,0.1,0,0.2c-3.5,2.6-7.1,5.3-10.5,8C490,272.5,486.4,275.2,482.9,277.8C483,277.8,482.9,277.8,482.9,277.8z"/>
			</g>
			<g>
				<path d="M504,261.8C503.9,261.8,503.9,261.8,504,261.8c-7.8-0.9-15.5-1.6-23.2-1.8c-0.1,0-0.1-0.1-0.1-0.1
					c0-0.1,0.1-0.1,0.1-0.1c0,0,0,0,0,0c7.7,0.1,15.4,0.9,23.2,1.8c0.1,0,0.1,0.1,0.1,0.1C504.1,261.7,504,261.8,504,261.8z"/>
			</g>
			<g>
				<path d="M504,261.9c-0.1,0-0.1-0.1-0.1-0.1v-0.1c0.3-6.6-0.1-13.8-1.1-20.3c0-0.1,0-0.1,0.1-0.1c0.1,0,0.1,0,0.1,0.1
					c1,6.5,1.4,13.8,1.1,20.3v0.1C504.1,261.8,504.1,261.9,504,261.9z"/>
			</g>
			<g>
				<path d="M504,261.8c0,0-0.1,0-0.1-0.1c0-0.1,0-0.1,0-0.2l0,0c0,0,0,0,0,0c2.1-0.8,4.6-1.8,7-2.8c2.4-1,4.9-2,7.1-2.8
					c0.1,0,0.1,0,0.2,0.1c0,0.1,0,0.1-0.1,0.2c-2.1,0.8-4.7,1.8-7.1,2.8C508.7,259.9,506.2,260.9,504,261.8L504,261.8
					C504,261.8,504,261.8,504,261.8z"/>
			</g>
			<g>
				<path d="M548.8,394.3c-0.1,0-0.2,0-0.3,0c-0.7-0.2-1.2-0.9-1.1-1.6c5-23.1,3.4-48.1-4.5-70.3c-0.3-0.7,0.1-1.5,0.8-1.8
					c0.7-0.3,1.5,0.1,1.8,0.8c8.2,23.1,9.8,47.9,4.6,71.8C550,393.8,549.4,394.3,548.8,394.3z"/>
			</g>
			<g>
				<path d="M417,357.2c-0.3,0-0.5-0.2-0.5-0.5c0-0.3,0-0.6,0-0.8c-0.1-11.2-0.1-22.4-0.2-33.7c0-0.3,0.2-0.5,0.5-0.5c0,0,0,0,0,0
					c0.3,0,0.5,0.2,0.5,0.5c0.1,11.2,0.2,22.4,0.2,33.6c0,0.2,0,0.5,0,0.7C417.5,357,417.3,357.2,417,357.2z"/>
			</g>
			<g>
				<path d="M447.2,356c-0.1,0-0.3,0-0.3-0.1c-10.2-9.9-20.9-20.7-30.4-33.2c-0.2-0.2-0.1-0.5,0.1-0.7c0.2-0.2,0.5-0.1,0.7,0.1
					c9.5,12.4,20.1,23.3,30.3,33.1c0.2,0.2,0.2,0.5,0,0.7C447.5,355.9,447.3,356,447.2,356z"/>
			</g>
			<g>
				<path d="M433.1,405c-0.2,0-0.4-0.1-0.5-0.3c-6.5-15.5-11.9-31.6-16.1-47.9l-0.1-0.3c-0.1-0.3,0.1-0.5,0.4-0.6
					c0.3-0.1,0.5,0.1,0.6,0.4l0.1,0.3c4.2,16.2,9.6,32.3,16,47.8c0.1,0.3,0,0.5-0.3,0.7C433.2,405,433.1,405,433.1,405z"/>
			</g>
			<g>
				<path d="M439.1,378.7c-0.1,0-0.1,0-0.2-0.1c-6.7-8-14.1-15.5-22-22.4c-0.1-0.1-0.1-0.1-0.1-0.1c-0.1-0.1-0.1-0.3,0-0.4
					s0.3-0.1,0.4,0l-0.2,0.2l0.2-0.2c0,0,0.1,0.1,0.1,0.1c7.8,6.8,15.1,14.2,21.7,22.1c1.8-7.1,4.5-14.7,8-22.5
					c0.1-0.1,0.2-0.2,0.3-0.1c0.1,0.1,0.2,0.2,0.1,0.3c-3.6,8-6.4,15.7-8.1,22.9C439.3,378.6,439.2,378.6,439.1,378.7
					C439.1,378.7,439.1,378.7,439.1,378.7z"/>
			</g>
			<g>
				<path d="M444.7,405.5c0,0-0.1,0-0.1-0.1c0,0,0,0,0-0.1c0,0,0,0,0,0c-0.8-4.3-1.8-8.9-2.8-13.3c-1-4.5-2-9.1-2.9-13.6
					c0-0.1,0-0.1,0.1-0.1c0.1,0,0.1,0,0.1,0.1c0.9,4.4,1.9,9.1,2.9,13.6c1,4.4,2,8.9,2.8,13.3c0,0,0,0,0,0.1
					C444.9,405.3,444.9,405.4,444.7,405.5C444.8,405.4,444.8,405.5,444.7,405.5z"/>
			</g>
			<g>
				<path d="M453.9,405.8c-0.3,0-0.5-0.2-0.5-0.5c-1-12.5-2.9-25.3-4.8-37.7c-0.6-4.1-1.2-8.1-1.8-12.1c0-0.3,0.1-0.5,0.4-0.6
					c0.3,0,0.5,0.1,0.6,0.4c0.6,4,1.2,8.1,1.8,12.1c1.9,12.4,3.9,25.2,4.9,37.8C454.4,405.6,454.2,405.8,453.9,405.8
					C453.9,405.8,453.9,405.8,453.9,405.8z"/>
			</g>
			<g>
				<path d="M453.9,405.8C453.9,405.8,453.9,405.8,453.9,405.8c-1.6,0-3.1,0-4.6,0c-1.6,0-3.1,0-4.6-0.1c-3.4-0.1-7.1-0.2-11.7-0.7
					c-0.3,0-0.5-0.3-0.4-0.6s0.3-0.5,0.6-0.4c4.5,0.5,8.2,0.6,11.6,0.7c1.5,0,3,0,4.6,0.1c1.5,0,3,0,4.6,0c0.3,0,0.5,0.2,0.5,0.5
					C454.4,405.6,454.2,405.8,453.9,405.8z"/>
			</g>
			<g>
				<path d="M401.5,395.7c-0.7,0-1.3-0.3-1.7-1c-0.6-0.9-0.3-2.2,0.7-2.7l7.5-4.6c0.9-0.6,2.2-0.3,2.7,0.7
					c0.6,0.9,0.3,2.2-0.7,2.7l-7.5,4.6C402.2,395.6,401.8,395.7,401.5,395.7z" style="fill:#86AEBA;"/>
			</g>
			<g>
				<path d="M400.7,353.8c-0.2,0-0.3,0-0.5-0.1l-10.4-2.8c-1.1-0.3-1.7-1.4-1.4-2.5c0.3-1.1,1.4-1.7,2.5-1.4l10.4,2.8
					c1.1,0.3,1.7,1.4,1.4,2.5C402.4,353.2,401.6,353.8,400.7,353.8z" style="fill:#86AEBA;"/>
			</g>
			<g>
				<path d="M401.9,318.5c-0.8,0-1.5-0.4-1.8-1.2c-1.4-3.2-2.8-6.3-4.2-9.5l-0.4-0.9c-0.4-1,0-2.2,1-2.6
					c1-0.4,2.2,0,2.6,1l0.4,0.9c1.4,3.2,2.8,6.3,4.2,9.5c0.4,1,0,2.2-1,2.6C402.5,318.5,402.2,318.5,401.9,318.5z" style="fill:#86AEBA;"/>
			</g>
			<g>
				<path d="M443.8,332.6c-0.3,0-0.6-0.1-0.9-0.2c-1-0.5-1.4-1.7-0.9-2.7c0.9-1.9,1.9-3.7,2.8-5.6l1.3-2.7
					c0.5-1,1.7-1.4,2.7-0.9c1,0.5,1.4,1.7,0.9,2.7l-1.3,2.7c-0.9,1.9-1.9,3.7-2.8,5.6C445.2,332.2,444.5,332.6,443.8,332.6z" style="fill:#86AEBA;"/>
			</g>
			<g>
				<path d="M460.9,362.1c-1.1,0-2-0.8-2-1.9c0-1.1,0.8-2,1.9-2.1l10-0.4c1.1,0,2,0.8,2.1,1.9c0,1.1-0.8,2-1.9,2.1
					L460.9,362.1C460.9,362.1,460.9,362.1,460.9,362.1z" style="fill:#86AEBA;"/>
			</g>
			<g>
				<path d="M473.4,401.5c-0.3,0-0.5,0-0.8-0.1c-2.4-1-4.7-1.9-7.1-2.9l-2.1-0.8c-1-0.4-1.5-1.6-1.1-2.6
					c0.4-1,1.6-1.5,2.6-1.1l2.1,0.8c2.4,1,4.7,1.9,7.1,2.9c1,0.4,1.5,1.6,1.1,2.6C474.9,401,474.2,401.5,473.4,401.5z" style="fill:#86AEBA;"/>
			</g>
			<g>
				<path d="M445.1,435.2c-1.1,0-2-0.8-2-1.9c-0.1-3.6-0.3-7.2-0.4-10.8c0-1.1,0.8-2,1.9-2.1c1.1,0,2,0.8,2.1,1.9
					c0.1,3.6,0.3,7.2,0.4,10.8C447.1,434.2,446.3,435.1,445.1,435.2C445.2,435.2,445.1,435.2,445.1,435.2z" style="fill:#86AEBA;"/>
			</g>
			<g>
				<path d="M473.7,437.8c-0.1,0-0.2,0-0.2-0.1c-0.2-0.1-0.2-0.4-0.1-0.5l0.3-0.5c2.1-3,4.3-5.9,6.4-8.9l1.9-2.6
					c0.1-0.2,0.4-0.2,0.5-0.1c0.2,0.1,0.2,0.4,0.1,0.5l-1.9,2.6c-2.1,3-4.3,5.9-6.4,8.9l-0.3,0.5
					C473.9,437.7,473.8,437.8,473.7,437.8z"/>
			</g>
			<g>
				<path d="M482.4,425.8c-0.2,0-0.3-0.1-0.4-0.2c-0.1-0.2,0-0.4,0.2-0.5c3.4-1.2,6.7-2.3,9.9-3.4c3.3-1.1,6.6-2.1,10-3.4
					c0.2-0.1,0.4,0,0.5,0.2c0.1,0.2,0,0.4-0.2,0.5c-3.4,1.3-6.8,2.4-10,3.4c-3.2,1-6.5,2.1-9.9,3.3
					C482.4,425.8,482.4,425.8,482.4,425.8z"/>
			</g>
			<g>
				<path d="M495.2,439.5C495.2,439.5,495.2,439.5,495.2,439.5c-0.1,0-0.1-0.1-0.1-0.2c1.2-3.4,2.4-6.9,3.5-10.3
					c1.2-3.4,2.4-7,3.6-10.4c0-0.1,0.1-0.1,0.2-0.1c0.1,0,0.1,0.1,0.1,0.2c-1.2,3.4-2.4,7-3.6,10.4c-1.1,3.4-2.3,6.9-3.5,10.3
					C495.3,439.5,495.2,439.5,495.2,439.5z"/>
			</g>
			<g>
				<path d="M495.2,439.5C495.2,439.5,495.2,439.5,495.2,439.5l-2.1-0.2c-6.4-0.7-12.8-1.5-19.1-2.2c0,0-0.1,0-0.1,0
					c0,0-0.1,0-0.1,0c-0.1,0-0.1-0.1-0.1-0.1c0-0.1,0.1-0.1,0.1-0.1c0,0,0,0,0.1,0c0,0,0.1,0,0.1,0c6.4,0.7,12.7,1.5,19.1,2.2
					l2.1,0.2c0.1,0,0.1,0.1,0.1,0.1C495.3,439.5,495.3,439.5,495.2,439.5z"/>
			</g>
			<g>
				<path d="M497.6,458.2c-0.1,0-0.2,0-0.2-0.1c-5.3-3.7-10.3-7.7-15-11.8c-3.1-2.7-6.1-5.6-9-8.6c0,0,0,0-0.1-0.1
					c-0.1-0.1-0.2-0.4,0-0.5c0.1-0.1,0.4-0.2,0.5,0c0,0,0,0,0,0c0,0,0.1,0.1,0.1,0.1c2.9,3,5.9,5.9,9,8.5c4.7,4.1,9.7,8.1,14.9,11.8
					c0.2,0.1,0.2,0.4,0.1,0.5C497.9,458.1,497.8,458.2,497.6,458.2z"/>
			</g>
			<g>
				<path d="M514.6,445.3c-0.1,0-0.3-0.1-0.3-0.2l-9.7-20.7c-0.9-1.9-1.7-3.7-2.6-5.6c-0.1-0.2,0-0.4,0.2-0.5c0.2-0.1,0.4,0,0.5,0.2
					c0.9,1.9,1.8,3.7,2.6,5.6l9.7,20.7c0.1,0.2,0,0.4-0.2,0.5C514.7,445.3,514.6,445.3,514.6,445.3z"/>
			</g>
			<g>
				<path d="M497.6,458.2c-0.1,0-0.2-0.1-0.3-0.2c-0.1-0.2-0.1-0.4,0.1-0.5c6.6-4.1,12.1-8.2,16.9-12.8c0.2-0.1,0.4-0.1,0.5,0
					s0.1,0.4,0,0.5c-4.8,4.6-10.4,8.8-17,12.9C497.8,458.1,497.7,458.2,497.6,458.2z"/>
			</g>
			<g>
				<path d="M484.6,497.6c-0.1,0-0.1,0-0.2-0.1c-0.2-0.1-0.2-0.4-0.1-0.5c4.3-6.3,7.5-10.9,11.5-17.2c0.1-0.2,0.3-0.2,0.5-0.1
					c0.2,0.1,0.2,0.3,0.1,0.5c-4.1,6.3-7.2,10.9-11.6,17.2C484.8,497.5,484.7,497.6,484.6,497.6z"/>
			</g>
			<g>
				<path d="M498.3,499.9c-0.1,0-0.1,0-0.1-0.1c-1.1-6.6-1.8-13.2-2.1-19.8c0-0.1,0-0.1,0.1-0.1c0,0,0,0,0,0c0.1,0,0.1,0.1,0.1,0.1
					c0.3,6.6,1.1,13.2,2.1,19.8C498.4,499.8,498.3,499.9,498.3,499.9C498.3,499.9,498.3,499.9,498.3,499.9z"/>
			</g>
			<g>
				<path d="M498.3,499.9c0,0-0.1,0-0.1-0.1c0,0,0-0.1,0.1-0.2l0,0c0,0,0,0,0,0c0.2-0.1,0.5-0.4,1.3-0.9c3.1-2.1,10.3-7,14.6-10
					c0.1,0,0.1,0,0.2,0c0,0.1,0,0.1,0,0.2c-4.3,3.1-11.5,7.9-14.6,10C499,499.5,498.4,499.8,498.3,499.9
					C498.3,499.9,498.3,499.9,498.3,499.9C498.3,499.9,498.3,499.9,498.3,499.9z"/>
			</g>
			<g>
				<path d="M496.1,480.3c-0.2,0-0.4-0.2-0.4-0.4c0-0.2,0.1-0.4,0.3-0.4c0,0,0.1,0,0.1,0c6-1.2,12.2-1.6,18.3-1.2
					c0.2,0,0.4,0.2,0.4,0.4c0,0.2-0.2,0.4-0.4,0.4c-6.1-0.3-12.2,0.1-18.2,1.2C496.2,480.3,496.1,480.3,496.1,480.3z"/>
			</g>
			<g>
				<path d="M514.2,489.2C514.2,489.2,514.2,489.2,514.2,489.2c-0.2,0-0.4-0.2-0.4-0.4c0.2-2.1,0.2-5.5,0.2-8.5l0-1.6
					c0-0.2,0.2-0.4,0.4-0.4c0,0,0,0,0,0c0.2,0,0.4,0.2,0.4,0.4l0,1.6c0,3,0,6.4-0.2,8.6C514.6,489.1,514.4,489.2,514.2,489.2z"/>
			</g>
			<g>
				<path d="M495.1,509.3C495.1,509.3,495.1,509.3,495.1,509.3c-0.1,0-0.1-0.1-0.1-0.2c0.5-1.6,1.1-3.2,1.6-4.7
					c0.5-1.5,1.1-3.1,1.6-4.7c0-0.1,0.1-0.1,0.2-0.1c0.1,0,0.1,0.1,0.1,0.2c-0.5,1.6-1.1,3.2-1.6,4.7c-0.5,1.5-1.1,3.1-1.6,4.7
					C495.2,509.3,495.2,509.3,495.1,509.3z"/>
			</g>
			<g>
				<path d="M495.1,509.6c-0.1,0-0.3-0.1-0.3-0.2c-0.1-0.2,0-0.4,0.2-0.5c1.2-0.5,2.4-1,3.7-1.5c4.2-1.7,9-3.6,13.5-5.6
					c0.2-0.1,0.4,0,0.5,0.2c0.1,0.2,0,0.4-0.2,0.5c-4.5,2-9.3,3.9-13.5,5.6c-1.3,0.5-2.6,1-3.7,1.5
					C495.2,509.6,495.1,509.6,495.1,509.6z"/>
			</g>
			<g>
				<path d="M512.5,502.6c-0.2,0-0.4-0.2-0.4-0.4v0l1.8-13.4c0-0.2,0.2-0.3,0.4-0.3c0.2,0,0.4,0.2,0.3,0.4l-1.8,13.3
					C512.8,502.4,512.7,502.6,512.5,502.6z"/>
			</g>
			<g>
				<path d="M495.1,509.6c-0.1,0-0.2,0-0.2-0.1c-3-2.5-5.5-5.7-7.9-8.8c-0.9-1.1-1.8-2.2-2.6-3.3c-0.1-0.2-0.1-0.4,0-0.5
					s0.4-0.1,0.5,0c0.9,1.1,1.8,2.2,2.7,3.3c2.4,3,4.9,6.2,7.8,8.7c0.2,0.1,0.2,0.4,0,0.5C495.3,509.5,495.2,509.6,495.1,509.6z"/>
			</g>
			<g>
				<path d="M373,520l-0.7-0.1c1-6.1,3-13.6,4.6-19.6l0.1-0.3l0.7,0.2l-0.1,0.3C376,506.5,374,513.9,373,520z"/>
			</g>
			<g>
				<polygon points="377.5,500.3 377,499.8 377,499.8 393.9,480.3 394.4,480.8 				"/>
			</g>
			<g>
				<path d="M412.5,500.7c-3.8-5.3-8.4-9.8-13.2-14.5c-1.8-1.7-3.6-3.5-5.5-5.4l0.5-0.5c1.8,1.9,3.7,3.7,5.5,5.4
					c4.8,4.7,9.4,9.2,13.3,14.6L412.5,500.7z"/>
			</g>
			<g>
				<path d="M372.8,520.3l-0.3-0.7c13.5-6,25.7-12.1,40.2-19.4l0.3,0.7C398.5,508.2,386.3,514.3,372.8,520.3z"/>
			</g>
			<g>
				<path d="M411.6,500.6c-5.1,0-10.9-0.1-16.5-0.2c-6.1-0.1-12.3-0.2-17.8-0.2l0,0c-0.1,0-0.1-0.1-0.1-0.1c0-0.1,0.1-0.1,0.1-0.1
					c5.4,0,11.7,0.1,17.8,0.2c6.1,0.1,12.3,0.2,17.8,0.2l0,0c0.1,0,0.1,0.1,0.1,0.1c0,0.1-0.1,0.1-0.1,0.1
					C412.4,500.6,412,500.6,411.6,500.6z"/>
			</g>
			<g>
				<path d="M376.9,482.5c-0.5,0-1-0.2-1.4-0.6l-1.1-1.1c-2.2-2.2-4.4-4.4-6.6-6.6c-0.8-0.8-0.8-2,0-2.8
					c0.8-0.8,2-0.8,2.8,0c2.2,2.2,4.4,4.4,6.6,6.6l1.1,1.1c0.8,0.8,0.8,2,0,2.8C378,482.3,377.5,482.5,376.9,482.5z" style="fill:#CDE8E3;"/>
			</g>
			<g>
				<path d="M416.4,469.3c-0.7,0-1.3-0.3-1.7-1l-5-8.2c-0.6-0.9-0.3-2.2,0.7-2.7c0.9-0.6,2.2-0.3,2.7,0.7l5,8.2
					c0.6,0.9,0.3,2.2-0.7,2.7C417.2,469.2,416.8,469.3,416.4,469.3z" style="fill:#CDE8E3;"/>
			</g>
			<g>
				<path d="M432.8,509.3c-0.7,0-1.4-0.4-1.8-1.1c-0.5-1-0.1-2.2,0.9-2.7c3.3-1.7,7.1-2.7,10.8-2.8
					c1.1,0,2,0.8,2.1,1.9c0,1.1-0.8,2-1.9,2.1c-3.2,0.1-6.3,1-9.2,2.4C433.4,509.2,433.1,509.3,432.8,509.3z" style="fill:#CDE8E3;"/>
			</g>
			<g>
				<path d="M417.1,533.1c-0.7,0-1.3-0.3-1.7-0.9c-2.2-3.4-2.9-7.7-1.7-11.6c0.3-1.1,1.4-1.7,2.5-1.4
					c1.1,0.3,1.7,1.4,1.4,2.5c-0.8,2.8-0.3,5.9,1.2,8.3c0.6,0.9,0.3,2.2-0.6,2.8C417.8,533,417.5,533.1,417.1,533.1z" style="fill:#CDE8E3;"/>
			</g>
			<g>
				<path d="M467.6,539.8C467.6,539.8,467.6,539.8,467.6,539.8c-0.2,0-0.4-0.2-0.4-0.4c0.2-3.9,0.4-8.1,0.6-12.3l0.2-4.6
					c0.1-2.9,0.3-5.8,0.4-8.6c0-0.2,0.2-0.4,0.4-0.4c0.2,0,0.4,0.2,0.4,0.4c-0.1,2.8-0.3,5.7-0.4,8.6l-0.2,4.6
					c-0.2,4.2-0.4,8.3-0.6,12.3C468,539.6,467.8,539.8,467.6,539.8z"/>
			</g>
			<g>
				<path d="M468.9,514.2c-0.2,0-0.3-0.1-0.4-0.3c-0.1-0.2,0.1-0.4,0.3-0.5c3.9-1.1,9.5-1.2,13.5-1.2c0.2,0,0.4,0.2,0.4,0.4
					c0,0.2-0.2,0.4-0.4,0.4c0,0,0,0,0,0c-3.9-0.1-9.4,0.1-13.2,1.1C468.9,514.2,468.9,514.2,468.9,514.2z"/>
			</g>
			<g>
				<path d="M483.4,535.3c-0.2,0-0.4-0.2-0.4-0.4l-0.5-10.3c-0.2-4-0.4-7.9-0.6-11.9c0-0.2,0.1-0.4,0.4-0.4c0.2,0,0.4,0.1,0.4,0.4
					c0.2,4,0.4,7.9,0.6,11.9l0.5,10.3C483.8,535.1,483.6,535.3,483.4,535.3C483.4,535.3,483.4,535.3,483.4,535.3z"/>
			</g>
			<g>
				<path d="M467.6,539.8c-0.2,0-0.3-0.1-0.4-0.3c0-0.2,0.1-0.4,0.3-0.4c5.3-1.1,11.5-3,15.7-4.4c0.2-0.1,0.4,0,0.5,0.2
					s0,0.4-0.2,0.5C479.2,536.7,473,538.6,467.6,539.8C467.7,539.8,467.7,539.8,467.6,539.8z"/>
			</g>
			<g>
				<path d="M483.4,535.1c0,0-0.1,0-0.1-0.1c-2.6-4.7-7.6-11.5-11.1-16.4c-1.4-1.9-2.6-3.5-3.3-4.7c0-0.1,0-0.1,0-0.2
					c0.1,0,0.1,0,0.2,0c0.8,1.1,2,2.8,3.3,4.7c3.6,4.9,8.5,11.7,11.2,16.4C483.5,534.9,483.5,535,483.4,535.1
					C483.4,535.1,483.4,535.1,483.4,535.1z"/>
			</g>
			<g>
				<path d="M506.4,465.8C506.4,465.8,506.3,465.8,506.4,465.8c-0.2,0-0.3-0.1-0.2-0.3c0.3-3.4,1.4-6.8,3.1-9.7
					c0.1-0.1,0.2-0.2,0.3-0.1c0.1,0.1,0.2,0.2,0.1,0.3c-1.7,2.8-2.8,6.1-3.1,9.4C506.6,465.7,506.5,465.8,506.4,465.8z"/>
			</g>
			<g>
				<path d="M518,466.2c-0.1,0-0.1,0-0.2-0.1c-1.6-1.8-3.1-3.6-4.6-5.3c-1.3-1.5-2.6-3-3.9-4.6c-0.1-0.1-0.1-0.3,0-0.4
					c0.1-0.1,0.3-0.1,0.4,0c1.3,1.6,2.6,3.1,3.9,4.6c1.5,1.8,3,3.5,4.6,5.3c0.1,0.1,0.1,0.3,0,0.4C518.1,466.1,518,466.2,518,466.2z
					"/>
			</g>
			<g>
				<path d="M513.8,466.3c-2.5,0-4.8-0.2-7.5-0.5c-0.1,0-0.2-0.1-0.2-0.3c0-0.1,0.1-0.2,0.3-0.2c4.1,0.5,7.5,0.6,11.6,0.3
					c0.1,0,0.3,0.1,0.3,0.2c0,0.1-0.1,0.3-0.2,0.3C516.5,466.2,515.2,466.3,513.8,466.3z"/>
			</g>
			<g>
				<path d="M545.7,474.5c-0.1,0-0.3-0.1-0.3-0.2c-2.6-4.4-6.3-12.9-7.1-14.9c-0.1-0.2,0-0.4,0.2-0.5c0.2-0.1,0.4,0,0.5,0.2
					c0.8,2,4.5,10.5,7.1,14.8c0.1,0.2,0,0.4-0.1,0.5C545.9,474.5,545.8,474.5,545.7,474.5z"/>
			</g>
			<g>
				<path d="M538.6,459.7c-0.2,0-0.3-0.1-0.4-0.3c0-0.2,0.1-0.4,0.3-0.4c4.1-0.7,9.3-1.4,14.2-1c0.2,0,0.4,0.2,0.3,0.4
					s-0.2,0.4-0.4,0.3C547.9,458.3,542.7,459,538.6,459.7C538.7,459.7,538.6,459.7,538.6,459.7z"/>
			</g>
			<g>
				<path d="M545.7,474.3C545.7,474.3,545.7,474.3,545.7,474.3c-0.1,0-0.1-0.1-0.1-0.2c1.2-2.4,2.4-5.2,3.5-7.9
					c1.1-2.7,2.3-5.5,3.5-7.9c0-0.1,0.1-0.1,0.2-0.1c0.1,0,0.1,0.1,0.1,0.2c-1.2,2.4-2.4,5.2-3.5,7.9c-1.1,2.7-2.3,5.5-3.5,7.9
					C545.8,474.2,545.8,474.3,545.7,474.3z"/>
			</g>
			<g>
				<path d="M555,472.6c-0.2,0-0.4-0.1-0.4-0.3c-0.4-4.1-1.2-8.1-2-12l-0.4-1.9c0-0.2,0.1-0.4,0.3-0.4c0.2,0,0.4,0.1,0.4,0.3
					l0.4,1.9c0.7,3.9,1.5,7.9,2,12C555.4,472.3,555.3,472.5,555,472.6C555.1,472.6,555.1,472.6,555,472.6z"/>
			</g>
			<g>
				<path d="M545.7,474.5c-0.2,0-0.3-0.1-0.4-0.3c0-0.2,0.1-0.4,0.3-0.4c1.5-0.2,3.4-0.7,5.3-1.1c1.6-0.4,3-0.7,4-0.9
					c0.2,0,0.4,0.1,0.4,0.3s-0.1,0.4-0.3,0.4c-1,0.1-2.4,0.5-4,0.9C549.3,473.8,547.3,474.3,545.7,474.5
					C545.8,474.5,545.7,474.5,545.7,474.5z"/>
			</g>
			<g>
				<path d="M493.1,531.4c-3.4,0-6.7-0.4-9.9-1.1c-0.1,0-0.1-0.1-0.1-0.2s0.1-0.1,0.2-0.1c10.9,2.6,23.5,0.7,35.3-5.6
					c11.6-6.2,21.2-15.6,28.2-23.1c8.8-9.4,18.3-20.9,22.4-34.9c4.3-14.7,1.1-30-8.2-38.9c-6.2-5.9-15.1-9.2-24.7-9.2
					c-0.5,0-1,0-1.5,0c-10.5,0.4-20.6,3.7-28.3,9.3c-0.1,0-0.1,0-0.2,0s0-0.1,0-0.2c7.8-5.7,17.9-9,28.5-9.4
					c10.2-0.4,19.9,3,26.4,9.3c9.3,9,12.6,24.3,8.2,39.1c-4.1,14.1-13.7,25.6-22.5,35c-7,7.5-16.6,17-28.3,23.2
					C510.3,529.1,501.5,531.4,493.1,531.4z"/>
			</g>
			<g>
				<path d="M468.4,522.6C468.4,522.6,468.3,522.6,468.4,522.6c-5.5-4.6-9-10.3-10.4-16.6c-1.5-6.8-0.6-14.4,2.8-24.1
					c4.5-12.7,12-25.2,21.8-36.1c0,0,0,0,0,0c0,0,0.1,0,0.2,0c0,0,0,0.1,0,0.2l0,0c-9.7,10.9-17.2,23.3-21.7,36
					c-3.4,9.6-4.3,17.2-2.8,23.9c1.3,6.2,4.9,11.9,10.2,16.4C468.5,522.4,468.5,522.5,468.4,522.6
					C468.5,522.6,468.4,522.6,468.4,522.6z"/>
			</g>
			<g>
				<path d="M513.6,408.6c-0.1,0-0.3,0-0.4,0c-1.1-0.2-1.8-1.3-1.5-2.4c0.7-3.1,2.2-6,4.4-8.3c0.8-0.8,2-0.8,2.8-0.1
					c0.8,0.8,0.8,2,0.1,2.8c-1.7,1.7-2.9,4-3.3,6.3C515.4,407.9,514.6,408.6,513.6,408.6z" style="fill:#CDE8E3;"/>
			</g>
			<g>
				<path d="M388.2,43.2c-1.3,0-2.5-0.9-2.9-2.2l-6.6-23.4c-0.4-1.6,0.5-3.3,2.1-3.7c1.6-0.4,3.3,0.5,3.7,2.1l6.6,23.4
					c0.4,1.6-0.5,3.3-2.1,3.7C388.8,43.2,388.5,43.2,388.2,43.2z" style="fill:#CDE8E3;"/>
			</g>
			<g>
				<path d="M430.9,42.4c-0.1,0-0.3,0-0.4,0c-1.6-0.2-2.8-1.7-2.6-3.4l3.7-27.6c0.2-1.6,1.7-2.8,3.4-2.6
					c1.6,0.2,2.8,1.7,2.6,3.4l-3.7,27.6C433.6,41.3,432.4,42.4,430.9,42.4z" style="fill:#CDE8E3;"/>
			</g>
			<g>
				<path d="M469.2,53.3c-0.5,0-1-0.1-1.5-0.4c-1.4-0.8-1.9-2.7-1.1-4.1l16.5-28.4c0.8-1.4,2.7-1.9,4.1-1.1
					c1.4,0.8,1.9,2.7,1.1,4.1l-16.5,28.4C471.3,52.8,470.3,53.3,469.2,53.3z" style="fill:#CDE8E3;"/>
			</g>
			<g>
				<path d="M497.1,78c-0.9,0-1.8-0.4-2.4-1.2c-1-1.3-0.7-3.2,0.6-4.2l21-15.6c1.3-1,3.2-0.7,4.2,0.6
					c1,1.3,0.7,3.2-0.6,4.2l-21,15.6C498.3,77.8,497.7,78,497.1,78z" style="fill:#CDE8E3;"/>
			</g>
			<g>
				<path d="M502.6,110.6c-1.6,0-3-1.3-3-3c0-1.7,1.3-3,3-3l29.2-0.4c0,0,0,0,0,0c1.6,0,3,1.3,3,3c0,1.7-1.3,3-3,3
					L502.6,110.6C502.6,110.6,502.6,110.6,502.6,110.6z" style="fill:#CDE8E3;"/>
			</g>
			<g>
				<path d="M523.3,155.4c-0.3,0-0.6,0-0.9-0.1l-26.3-7.8c-1.6-0.5-2.5-2.1-2-3.7c0.5-1.6,2.1-2.5,3.7-2l26.3,7.8
					c1.6,0.5,2.5,2.1,2,3.7C525.8,154.5,524.6,155.4,523.3,155.4z" style="fill:#CDE8E3;"/>
			</g>
			<g>
				<path d="M470.2,186.2c-1.1,0-2.2-0.6-2.7-1.7l-9.5-20.1c-0.7-1.5-0.1-3.3,1.4-4c1.5-0.7,3.3-0.1,4,1.4l9.5,20.1
					c0.7,1.5,0.1,3.3-1.4,4C471.1,186.1,470.7,186.2,470.2,186.2z" style="fill:#CDE8E3;"/>
			</g>
			<g>
				<path d="M436.1,201c-1.4,0-2.6-1-2.9-2.4l-4.1-18.9c-0.4-1.6,0.7-3.2,2.3-3.6c1.6-0.4,3.2,0.7,3.6,2.3l4.1,18.9
					c0.4,1.6-0.7,3.2-2.3,3.6C436.5,201,436.3,201,436.1,201z" style="fill:#CDE8E3;"/>
			</g>
			<g>
				<path d="M399.4,206.8c-0.1,0-0.2,0-0.3,0c-1.6-0.2-2.8-1.6-2.7-3.3l1.6-15.6c0.2-1.6,1.7-2.8,3.3-2.7
					c1.6,0.2,2.8,1.6,2.7,3.3l-1.6,15.6C402.2,205.7,400.9,206.8,399.4,206.8z" style="fill:#CDE8E3;"/>
			</g>
			<g>
				<path d="M356.4,184.7c-0.9,0-1.8-0.4-2.4-1.2c-1-1.3-0.7-3.2,0.6-4.2l14.8-11.1c1.3-1,3.2-0.7,4.2,0.6
					c1,1.3,0.7,3.2-0.6,4.2l-14.8,11.1C357.7,184.5,357.1,184.7,356.4,184.7z" style="fill:#CDE8E3;"/>
			</g>
			<g>
				<path d="M333.7,152.1c-1.2,0-2.3-0.7-2.8-1.8c-0.6-1.5,0.1-3.3,1.6-3.9l24.7-10.3c1.5-0.6,3.3,0.1,3.9,1.6
					c0.6,1.5-0.1,3.3-1.6,3.9l-24.7,10.3C334.5,152,334.1,152.1,333.7,152.1z" style="fill:#CDE8E3;"/>
			</g>
			<g>
				<path d="M317.7,108c-1.6,0-3-1.3-3-2.9c0-1.7,1.3-3,2.9-3.1l30.4-0.8c1.6,0,3,1.3,3.1,2.9c0,1.7-1.3,3-2.9,3.1
					L317.7,108C317.7,108,317.7,108,317.7,108z" style="fill:#CDE8E3;"/>
			</g>
			<g>
				<path d="M100.9,458.9c-0.7,0-1.4-0.1-2.1-0.3c-2-0.5-3.7-1.6-5-3.1c-2-2.4-2.7-5.7-2-8.9c1-4.3,4.7-7.5,8.9-7.8
					c0.9-0.1,1.8,0,2.7,0.2c2.4,0.6,4.5,2.1,5.8,4.2c1.4,2.3,1.9,5.1,1.2,7.8c-0.6,2.6-2.2,4.8-4.4,6.3
					C104.5,458.4,102.7,458.9,100.9,458.9z M101.4,439.6c-0.2,0-0.4,0-0.6,0c0,0,0,0,0,0c-3.9,0.2-7.3,3.2-8.3,7.2
					c-0.7,2.9,0,6,1.8,8.2c1.2,1.5,2.8,2.5,4.6,2.9c2.3,0.5,4.7,0.1,6.7-1.2c2-1.3,3.5-3.4,4-5.8c0.6-2.5,0.2-5.1-1.1-7.2
					c-1.2-2-3.1-3.4-5.3-3.9C102.6,439.7,102,439.6,101.4,439.6z M100.7,439.2L100.7,439.2L100.7,439.2z"/>
			</g>
		</g>
	</g>
</g>
</svg>
