<?xml version="1.0" encoding="utf-8"?>
<!-- Generator: Adobe Illustrator 22.0.1, SVG Export Plug-In . SVG Version: 6.00 Build 0)  -->
<svg version="1.1" xmlns="http://www.w3.org/2000/svg" xmlns:xlink="http://www.w3.org/1999/xlink" x="0px" y="0px" viewBox="0 0 600 600" style="enable-background:new 0 0 600 600;" xml:space="preserve">

<g id="Layer_2_1_">
	<g id="Layer_3">
	</g>
	<g id="Layer_4">
	</g>
</g>
<g id="Layer_5">
	<g>
		<g id="XMLID_2_">
			<g>
				<path d="M183.4,568.9c-0.7-6-6.5-11.7-12.1-13.8c-5.6-2.1-11.5-3.6-17.5-3.6c-9.4,0-17.7,0.6-27.6,2.8
					c0.9-1.5,1.8-3.2,2.8-5c10.8-19.1,21.4-40.3,24.7-63.5c2.6,4.3,5.4,8.6,8.2,12.8c-4.1,16.7-13,33.4-22.6,47.6l0.4,0.2
					c10.9-3.9,23.2-3.3,33.7,1.6c4,1.9,7.9,4.5,10.1,8.3C185.7,560.2,186.1,565.4,183.4,568.9z" style="fill:#86AEBA;"/>
				<path d="M94,571.3c7.1,2.6,17.5-2.1,23.4-6.6c4.3-3.3,6.5-6.4,8.8-10.3c9.9-2.2,18.2-2.8,27.6-2.8
					c6,0,11.9,1.4,17.5,3.6c5.6,2.1,11.4,7.9,12.1,13.8c-3.5,3.8-51.1,5-76.5,5c-3.9,0-7.8-0.8-11.5-1.8c-0.6-0.2-1-0.3-1.5-0.6
					L94,571.3z" style="fill:#739390;"/>
				<path d="M91.5,560.6c7.2-56.3,11.7-112,18.8-168.3l0.1,0c-0.4,3.8,0.5,8.2,2.9,12.8c1.1,2.8,2.3,5.7,3.4,8.5
					c6.4,44.9,9.2,92.5,3,142.3c2.2-0.6,4.3-1.1,6.4-1.6c-2.3,3.9-4.5,7-8.8,10.3c-6,4.6-16.4,9.2-23.4,6.6l-0.1,0.2
					C90.6,569.8,90.8,565.9,91.5,560.6z" style="fill:#86AEBA;"/>
				<path d="M153.7,485.8c-3.3,23.1-13.8,44.4-24.7,63.5c-1,1.8-2,3.5-2.8,5c-2.1,0.5-4.2,1-6.4,1.6
					c6.2-49.8,3.4-97.4-3-142.3C127.2,438.6,139.5,462.8,153.7,485.8z" style="fill:#739390;"/>
				<path d="M182.5,142.7c0.5,0.7,1,1.5,1.5,2.2c10.6,14.9,28,24.6,47.7,24.6c0.7,0,1.3,0,2,0c0,0.1,0.1,0.2,0.1,0.3
					c0.6,1.9,1.1,3.8,1.5,5.8c0.4,2.4,0.7,4.8,0.7,7.3c0,22.1-17.9,40-40,40c-22.1,0-40-17.9-40-40c0-6,1.3-11.6,3.7-16.7l-0.1-0.2
					C169.5,160.8,177.5,152.6,182.5,142.7z M209,203.1c1.5-2.8,2.3-6,2.3-9.4c0-10.9-8.9-19.8-19.8-19.8c-10.9,0-19.8,8.9-19.8,19.8
					c0,9.2,6.2,16.9,14.7,19.1c2.2,3.6,6.1,6,10.6,6c6.8,0,12.4-5.6,12.4-12.4C209.5,205.3,209.3,204.2,209,203.1z" style="fill:#FF9B19;"/>
				<path d="M414.5,254.3c15.3,4.6,28.1,14.5,34.6,27.1c-2.9,6.3-9.1,10.3-14.8,14.4c-14.6,10.5-30.6,14.5-48.6,13.4
					c-18-1.1-35.5-7.6-48.7-19.8c11.1-25,31.7-36.2,54.1-37.8C399.2,251.1,407.1,252.1,414.5,254.3z M377.9,298.5
					c5.3,0.8,10.7,1,16.1,0.6c6.5-0.5,13-1.7,19.2-3.7c8.5-2.8,16.5-7.1,23.3-13l0-0.3c-6.2-6.8-14.2-12.1-22.9-15.4v0
					c-7-2.6-14.4-3.9-21.7-3.4c-6.1,0.4-12.4,1.8-18.2,4.2c-10,4.1-18.9,10.9-24.3,20.4C358,293.4,367.8,297,377.9,298.5z" style="fill:#FF564F;"/>
				<path d="M194.2,369.8c11.2-13.7,24.9-25.5,40.1-34.9c8.1,9.3,20,15.1,33.2,15.1c0.1,0,0.1,0,0.2,0
					c3.5,0,6.9-0.4,10.1-1.2l0,0c0,0,8.4,13.3,25.4,7.8c13-4.2,16.6-17.2,16.6-17.2l0.3-0.2c5.8,6.3,13.4,11.1,21.9,11.6
					c10.3,0.6,19.9-5,28.2-11c8.4-6,16.6-12.9,26.6-15.4c10-2.5,23.4,0.2,27.6,12.3c-13.9,3.1-26.6,11.2-36.6,21.5
					c-11.9,12.2-20.4,27.4-27.8,42.9c-6.9,14.5-13,29.3-18.2,44.4c-5.5,1.3-11.4,5.9-13.3,11.1c-0.4-5.4-4.8-10.2-10-11.9
					c-5.1-1.7-11.2-0.1-14.8,3.9c-3.1,3.4-4.2,8.5-3.1,12.9c-1.6-3.8-4.8-6.8-9.2-7.5c-4.3-0.7-9,0.5-11.2,3.9l-0.3-0.2
					c-1.4-5.7-5.6-9.4-10.6-11.1c-5.3-1.8-13-1-18.2,2c-5.4-12.8-11.6-25.2-18.6-37c-9.3-15.7-20.4-31-36.2-40.1
					c-0.7-0.4-1.6-0.9-2.4-1.3C194.1,370,194.1,369.9,194.2,369.8z M313.1,418.1c0-7.6-6.2-13.8-13.8-13.8
					c-7.6,0-13.8,6.2-13.8,13.8c0,7.6,6.2,13.8,13.8,13.8C306.9,431.9,313.1,425.7,313.1,418.1z M287.1,388.2
					c0-9.9-8-17.9-17.9-17.9s-17.9,8-17.9,17.9s8,17.9,17.9,17.9S287.1,398.1,287.1,388.2z" style="fill:#334A5A;"/>
				<path d="M184.4,144.5l-0.5,0.4c-0.5-0.7-1-1.4-1.5-2.2c3.5-7.1,5.5-15,5.5-23.5c0-11.7-3.9-22.5-10.3-31.2
					c8.9-21,29.7-35.8,54-35.8c32.4,0,58.6,26.2,58.6,58.6c0,31.7-25.2,57.6-56.6,58.6c-5.5-15.5-20.3-26.6-37.7-26.6
					C192,142.8,188.1,143.4,184.4,144.5z M283,97.9c0-11.4-9.3-20.7-20.7-20.7c-11.4,0-20.7,9.3-20.7,20.7s9.3,20.7,20.7,20.7
					C273.8,118.6,283,109.3,283,97.9z" style="fill:#FFD249;"/>
				<path d="M386.2,414.4c-1.4,10.7-0.9,21.7,1.9,32.1c1.6,6.1,4.1,12,7.5,17.4c4.8,7.7,11.6,14.3,19.5,18.8
					c7,4,14.8,6.3,22.9,6.2c2.1,0,4.2-0.2,6.3-0.5v0c10.9-1.7,21.1-7.5,28.9-15.7c2.9-3,5.4-6.3,7.6-9.8c3.6-5.8,6.2-12.1,8.1-18.7
					c2.9-10.3,3.8-21.2,3-31.8c-5.8,0.1-11.6,0.2-17.4,0.3c-9.9,0.2-19.7,0.4-29.6,0.6c-10.5,0.2-20.9,0.4-31.3,0.6
					C404.3,414.1,395.3,414.3,386.2,414.4z M391.1,251.7c-22.4,1.6-43,12.8-54.1,37.8c13.2,12.2,30.8,18.7,48.7,19.8
					c18,1.1,34-2.9,48.6-13.4c5.7-4,12-8,14.8-14.4c-6.6-12.7-19.3-22.6-34.6-27.1C407.1,252.1,399.2,251.1,391.1,251.7z
					 M303.2,310.4c-5.8-14.4-11.6-28.8-17.5-43.1l-0.2-0.4c0.3-0.2,0.6-0.3,0.9-0.5c7.9-4.5,16-8.9,24-13.2
					c-4.6-7.3-8.1-15.3-10.2-23.7c-0.8-3.2-0.8-7.4,1-9.5c2.2-2.7,6.6-3.6,10.9,1.2c2.3,2.6,7.7,12,10.2,15.6
					c-3.8-6.1-6.1-13-6.9-20.1c-0.4-3.4,0.3-7.4,3.4-8.7c3-1.3,5.5,0.2,7.4,2c5,4.6,11.1,17,11.7,18.2c-0.5-1.2-5.7-14.1-6-21.3
					c-0.1-2.8,0.4-6,2.8-7.3c3-1.7,6.5,0.8,8.9,3.2c6.7,6.9,11.5,15.2,16.5,25.1c7.6-3.8,14.2-7.1,21.9-10.9
					c-1.9-4.6-6.4-13-8.9-19.4c-4-10.1,0.1-12.8,2.7-13.1c2.4-0.3,4.5,1.5,6.1,3.2c4.4,4.6,8.1,9.9,10.8,15.6
					c-2.1-5.5-3.5-11.4-4-17.3c-0.2-2.4-0.2-5.1,1.7-6.5c2.5-1.9,5.2-0.9,9.2,4c3.9,4.8,8.5,10.7,13.4,18.6c2.8-1.3,5.1-2.7,8-4
					c7-2.8,16.4-0.6,22.2,4.1c5.9,4.7,9.3,13.1,12.9,19.7c33.8,61.5,54.7,129.8,56.5,199.9c0,15.5-0.5,36.5-5.4,59.2l-0.2,0
					c-5.7,18.4-13.8,33-26,44c-11.6,10.5-22.1,16.9-37.7,16.7c-15.1-0.3-29.1-8.7-39.4-19.8c-10.1-10.9-18.5-26.2-25.5-39.5
					c-2.2-6-4.6-12-7.5-17.7c-2.9-5.6-6.4-11.1-11.5-15c-5.1-3.8-9.8-5.7-17-4.8c-0.2,0-0.5,0.1-0.7,0.1
					c5.2-15.1,11.3-29.9,18.2-44.4c7.3-15.5,15.8-30.6,27.8-42.9c10-10.3,22.7-18.4,36.6-21.5c-4.1-12.1-17.6-14.9-27.6-12.3
					c-10,2.6-18.2,9.4-26.6,15.4c-8.4,6-17.9,11.6-28.2,11c-8.5-0.5-16.2-5.3-21.9-11.6c-0.7-0.8-1.4-1.6-2-2.4
					c-3.5-4.4-6.7-9.4-9.4-14.7c-2-3.7-3.7-7.5-5.2-11.1C303.4,310.9,303.3,310.6,303.2,310.4z M494.5,385.9c-0.7,2.4-3.6,4.6-6,5.2
					c-2.4,0.6-5.1-0.3-6.8-2.1c-2-2.2-2.4-5.3-3.9-7.9c-1.8-3.1-5.2-5.2-8.8-5.3c-3.6-0.1-6.8,1.9-9.2,4.7c-2.5,2.9-3.3,6.4-2,10.4
					c1.2,4,4.4,7.1,8.1,9c5.5,2.7,12.2,2.8,17.7,0.1C489.2,397.2,493.3,391.9,494.5,385.9z M411.8,399.7c4-2.8,6.7-7.5,6.5-12.4
					s-2.1-9.6-8.6-10.7c-4.2-0.7-8.7,1.4-10.9,5.1c-1.3,2.2-1.9,5-3.5,7c-1.8,2.2-4.9,3.3-7.7,2.8c-2.8-0.6-5.2-2.8-5.9-5.6
					c-0.3,4.4,1.1,8.8,4.3,11.8c3.2,3.1,7.6,4.8,12,5.2C402.7,403.5,407.8,402.5,411.8,399.7z" style="fill:#86AEBA;"/>
				<path d="M494.8,519.2c-1.4,3.1-3,6.2-4.7,9.4c-0.3,0.5-0.6,1.1-0.9,1.6c-8.5,15.4-20.4,30.9-37.7,34.5
					c-2.9,0.6-5.8,0.8-8.8,0.7c-12.4-0.4-24.6-6.9-33.3-16C399.3,538.8,393,525,388.1,511c-0.3-0.7-0.5-1.5-0.8-2.2
					c-3-8.7-5.6-17.5-8.7-26.1c6.9,13.2,15.4,28.6,25.5,39.5c10.3,11.1,24.3,19.5,39.4,19.8c15.6,0.3,26.1-6.2,37.7-16.7
					c12.2-11,20.3-25.6,26-44l0.2,0C504.7,493.6,500.7,506.4,494.8,519.2z" style="fill:#739390;"/>
				<path d="M503.5,570.3c0.1,1.4-0.7,2.5-2.1,3.2l-0.5-0.5c-13.2-13.2-10.4-44.3-10.4-44.3l-0.3-0.1
					c1.7-3.1,3.2-6.2,4.7-9.4C495,520.1,502.9,563.8,503.5,570.3z" style="fill:#86AEBA;"/>
				<path d="M500.9,573l0.5,0.5c-5.1,2.7-18.7,1.6-29.4,1.7c-13.7,0.2-27.1-0.5-29.3-2.6c-2.2-2,0.2-6.4,0.2-6.4l0-0.8
					c2.9,0.1,5.9-0.1,8.8-0.7c17.2-3.6,29.1-19.1,37.7-34.5c0.3-0.5,0.6-1.1,0.9-1.6l0.3,0.1C490.4,528.7,487.7,559.9,500.9,573z" style="fill:#739390;"/>
				<path d="M488.6,391.1c2.4-0.6,5.3-2.8,6-5.2c-1.2,6-5.3,11.3-10.8,14c-5.5,2.7-12.2,2.6-17.7-0.1c-3.7-1.9-6.9-5-8.1-9
					c-1.2-4-0.5-7.4,2-10.4c2.4-2.8,5.6-4.8,9.2-4.7c3.6,0.1,7,2.2,8.8,5.3c1.5,2.5,1.9,5.7,3.9,7.9
					C483.5,390.8,486.1,391.6,488.6,391.1z"/>
				<path d="M491.7,412.4c0.8,10.6-0.1,21.5-3,31.8l-0.2-0.1c-5,0.1-10.1,0.2-15.2,0.3c0.3-10.5,0.7-21,1-31.5v-0.2
					C480.1,412.6,485.9,412.5,491.7,412.4z" style="fill:#FED3D5;"/>
				<path d="M488.5,444.1l0.2,0.1c-1.9,6.6-4.5,12.9-8.1,18.7c-2.1,3.5-4.7,6.8-7.6,9.8l-0.7-0.6
					c0.3-9.2,0.6-18.4,0.9-27.6C478.4,444.3,483.5,444.2,488.5,444.1z" style="fill:#FFE6E7;"/>
				<path d="M474.3,412.8v0.2c-0.3,10.5-0.7,21-1,31.5c-9.5,0.2-19.2,0.4-28.8,0.7c0.1-10.6,0.2-21.2,0.2-31.8
					C454.6,413.1,464.5,413,474.3,412.8z" style="fill:#FFE6E7;"/>
				<path d="M473.3,444.5c-0.3,9.2-0.6,18.4-0.9,27.6l0.7,0.6c-7.8,8.1-17.9,14-28.9,15.7c0.1-14.4,0.2-28.9,0.3-43.3
					C454.1,444.9,463.8,444.7,473.3,444.5z" style="fill:#FED3D5;"/>
				<path d="M444.8,413.3c-0.1,10.6-0.2,21.2-0.2,31.8c-10.1,0.2-20.2,0.5-30.3,0.7c-0.2-10.7-0.5-21.3-0.8-31.8v-0.1
					C423.9,413.7,434.3,413.5,444.8,413.3z" style="fill:#FED3D5;"/>
				<path d="M444.5,445.1c-0.1,14.4-0.2,28.9-0.3,43.3v0c-2.1,0.3-4.2,0.5-6.3,0.5c-8.1,0-15.9-2.2-22.9-6.2l0.1-0.3
					c-0.4-12.1-0.6-24.4-0.9-36.6C424.3,445.6,434.4,445.4,444.5,445.1z" style="fill:#FFE6E7;"/>
				<path d="M436.5,282.1l0,0.3c-6.8,5.9-14.8,10.2-23.3,13l-0.1-0.1c3.1-4.1,4.9-9.1,4.9-14.6c0-5.2-1.6-10-4.5-14
					C422.3,269.9,430.3,275.3,436.5,282.1z" style="fill:#FFE6E7;"/>
				<path d="M418.3,387.4c0.2,4.9-2.5,9.6-6.5,12.4c-4,2.8-9,3.8-13.9,3.3c-4.4-0.5-8.8-2.2-12-5.2c-3.2-3-4.6-7.4-4.3-11.8
					c0.8,2.8,3.1,5,5.9,5.6c2.8,0.6,5.9-0.5,7.7-2.8c1.6-2.1,2.2-4.8,3.5-7c2.2-3.7,6.7-5.7,10.9-5.1
					C416.1,377.8,418.1,382.5,418.3,387.4z"/>
				<path d="M413.6,266.7c2.8,3.9,4.5,8.8,4.5,14c0,5.5-1.8,10.6-4.9,14.6l0.1,0.1c-6.2,2-12.7,3.2-19.2,3.7
					c-5.4,0.4-10.8,0.2-16.1-0.6c-4.9-4.4-8-10.8-8-17.9c0-4.8,1.4-9.2,3.8-12.9l-0.1-0.2c5.9-2.4,12.1-3.8,18.2-4.2
					C399.2,262.8,406.6,264.1,413.6,266.7L413.6,266.7z M408.8,281.1c0-8.3-6.7-15-15-15c-8.3,0-15,6.7-15,15c0,8.3,6.7,15,15,15
					C402.1,296.1,408.8,289.4,408.8,281.1z" style="fill:#008211;"/>
				<path d="M415.1,482.5l-0.1,0.3c-7.9-4.5-14.7-11-19.5-18.8c-3.4-5.4-5.8-11.3-7.5-17.4l0.5-0.1
					c8.5-0.2,17.1-0.4,25.7-0.6C414.5,458.1,414.8,470.4,415.1,482.5z" style="fill:#FED3D5;"/>
				<path d="M413.4,414c0.3,10.5,0.6,21.2,0.8,31.8c-8.6,0.2-17.2,0.4-25.7,0.6l-0.5,0.1c-2.8-10.4-3.2-21.4-1.9-32.1
					C395.3,414.3,404.3,414.1,413.4,414L413.4,414z" style="fill:#FFE6E7;"/>
				<path d="M393.8,266.1c8.3,0,15,6.7,15,15c0,8.3-6.7,15-15,15c-8.3,0-15-6.7-15-15
					C378.8,272.8,385.5,266.1,393.8,266.1z M400.7,280.9c0-4-3.2-7.2-7.2-7.2c-4,0-7.2,3.2-7.2,7.2c0,3.9,3.2,7.2,7.2,7.2
					C397.5,288.1,400.7,284.9,400.7,280.9z" style="fill:#62B57F;"/>
				<path d="M393.6,273.7c4,0,7.2,3.2,7.2,7.2c0,3.9-3.2,7.2-7.2,7.2c-4,0-7.2-3.2-7.2-7.2C386.4,277,389.6,273.7,393.6,273.7z
					 M396.9,280.9c0-1.8-1.5-3.3-3.3-3.3c-1.8,0-3.3,1.5-3.3,3.3c0,1.8,1.5,3.3,3.3,3.3C395.4,284.2,396.9,282.7,396.9,280.9z"/>
				<circle cx="393.6" cy="280.9" r="3.3" style="fill:#FF9B19;"/>
				<path d="M391.9,560.4c6.5,6.3,6.6,14.8-1.9,16.7c-6,1.3-16,2.3-26.6,2.7v-0.1c5.4-0.2,18.1-1.9,18.6-13
					c0.6-14.1-16.4-14.3-16.4-14.3l0-0.1C374.8,550.9,384.1,552.9,391.9,560.4z" style="fill:#86AEBA;"/>
				<path d="M323.9,523.5c1.1-10.5,2.8-20.9,5-31.2c3.3-15.8,7.7-31.4,13-46.8c0.2,0,0.5-0.1,0.7-0.1
					c7.2-0.9,12,1,17,4.8c5.1,3.8,8.6,9.3,11.5,15c2.9,5.7,5.4,11.6,7.5,17.7c3.1,8.6,5.7,17.4,8.7,26.1c0.3,0.7,0.5,1.5,0.8,2.2
					l-0.3,0.1c-13.7,10.1-24.9,26.2-33,44.6c3.5-1.6,7.2-2.8,10.9-3.4l0,0.1c0,0,17,0.2,16.4,14.3c-0.5,11.1-13.2,12.8-18.6,13v0.1
					c-19.6,0.7-40.8-0.6-40.9-5.7c-0.1-1.8-0.2-3.6-0.3-5.4C321.6,553.6,322.2,538.5,323.9,523.5z" style="fill:#739390;"/>
				<path d="M373.7,267.5l0.1,0.2c-2.4,3.7-3.8,8.2-3.8,12.9c0,7.1,3.1,13.5,8,17.9c-10.1-1.5-20-5.1-28.6-10.6
					C354.8,278.5,363.7,271.6,373.7,267.5z" style="fill:#FFE6E7;"/>
				<path d="M280.3,457.7c2.2-3.4,6.9-4.6,11.2-3.9c4.4,0.8,7.6,3.7,9.2,7.5c0.2,0.8,0.4,1.5,0.8,2.2
					c-0.2-0.8-0.5-1.5-0.8-2.2c-1.1-4.5,0-9.5,3.1-12.9c3.6-4,9.7-5.6,14.8-3.9c5.1,1.7,9.5,6.6,10,11.9c1.9-5.2,7.8-9.8,13.3-11.1
					c-5.3,15.4-9.7,31-13,46.8l-0.2,0c-2.8-1.9-6.2-3-9.8-3c-9.7,0-17.5,7.8-17.5,17.5c0,9.7,7.8,17.5,17.5,17.5
					c1.7,0,3.4-0.2,5-0.7c-1.7,15-2.2,30.1-1.6,45.2l-1,0c0-2.2-0.8-4.5-1.9-6.4c-4.2-6.9-10-11.3-18-12.8
					c-5.8-1.1-13.2-0.5-19.3,1.8c-2.3,0.9-4.4,2-6.2,3.4c-1.6-27.2-6.7-54.4-15.2-80.5l0.4-0.1c5.1-1,9-5.5,9-10.9
					c0-6.2-5-11.2-11.2-11.2c-2,0-3.8,0.5-5.5,1.4l-0.2,0.1c-0.7-1.6-1.3-3.3-2-4.9c0,0,0,0,0,0c5.2-3,12.9-3.8,18.2-2
					c5,1.7,9.2,5.4,10.6,11.1L280.3,457.7z" style="fill:#FF9B19;"/>
				<path d="M328.7,492.2l0.2,0c-2.2,10.4-3.8,20.8-5,31.2c-1.6,0.5-3.2,0.7-5,0.7c-9.7,0-17.5-7.8-17.5-17.5
					c0-9.7,7.8-17.5,17.5-17.5C322.5,489.2,325.9,490.3,328.7,492.2z" style="fill:#F6B855;"/>
				<path d="M292.2,342.4c4.9-3.3,9.1-7.6,12.3-12.6c1.5-2.4,2.8-4.9,3.9-7.5l0.3-0.2c2.8,5.2,6,10.3,9.4,14.7
					c0.6,0.8,1.3,1.6,2,2.4l-0.3,0.2c0,0-3.7,13-16.6,17.2c-17,5.5-25.4-7.8-25.4-7.8l0,0C283.1,347.5,287.9,345.4,292.2,342.4z" style="fill:#F6B855;"/>
				<path d="M319.4,562.3c1.1,1.9,1.9,4.1,1.9,6.4c0,4.4-3.2,8.7-13.2,9.7c-4.3,0.5-8.7,0.9-13.2,1.2
					c2.8-0.4,9.9-2.2,9.4-12.2c-1-17.4-22.2-16.1-22.2-16.1l0-0.1c6.1-2.3,13.5-2.8,19.3-1.8C309.3,551,315.2,555.4,319.4,562.3z" style="fill:#86AEBA;"/>
				<path d="M299.3,404.3c7.6,0,13.8,6.2,13.8,13.8c0,7.6-6.2,13.8-13.8,13.8c-7.6,0-13.8-6.2-13.8-13.8
					C285.5,410.5,291.7,404.3,299.3,404.3z M304.4,419.8c0-3.4-2.8-6.2-6.2-6.2c-3.5,0-6.2,2.8-6.2,6.2c0,3.5,2.8,6.2,6.2,6.2
					C301.6,426.1,304.4,423.3,304.4,419.8z" style="fill:#FF9B19;"/>
				<path d="M308.7,322.2l-0.3,0.2c-1,2.6-2.4,5.1-3.9,7.5c0-1.9-0.1-3.8-0.6-5.8c-1.2-5.7-4.2-10.2-7.7-12.6
					c2.3-0.4,4.7-0.7,7-1c0.1,0.2,0.2,0.4,0.3,0.6C305,314.7,306.8,318.5,308.7,322.2z" style="fill:#FF9B19;"/>
				<path d="M303.9,324c0.4,2,0.6,4,0.6,5.8c-3.2,5-7.4,9.3-12.3,12.6c-4.4-1.7-8.3-6.9-9.8-13.7
					c-1.2-5.7-0.5-11.1,1.7-14.7l0-0.1c4-1,8-1.8,12.1-2.5C299.7,313.8,302.7,318.3,303.9,324z" style="fill:#FFD249;"/>
				<path d="M304.3,567.5c0.5,9.9-6.6,11.8-9.4,12.2c-16.4,1.1-32.9,0.6-44.5-0.2c-11-0.7-21.2-4.1-30.1-10.6
					c-4.4-3.2-8.4-6.8-12.1-10.7l0.4-0.4c0,0-4.7-31.1,7.6-54.7c12.3-23.6,27-29.1,27-29.1c-5.2-16.5,8.1-25.5,8.1-25.5h0
					c0.7,1.6,1.4,3.2,2,4.9c2.7,6.8,5.2,13.7,7.5,20.8c8.5,26.1,13.6,53.4,15.2,80.5c1.8-1.4,3.9-2.5,6.2-3.4l0,0.1
					C282.1,551.4,303.4,550,304.3,567.5z" style="fill:#739390;"/>
				<path d="M296.2,311.4c-4.1,0.7-8.1,1.5-12.1,2.5c-1,0.2-1.9,0.5-2.9,0.7c-7.8,2.1-15.4,4.7-22.9,7.8
					c-0.5,0.2-1,0.4-1.5,0.6c-7.8,3.4-15.4,7.3-22.6,11.8c-6.7-7.7-10.8-17.9-10.8-28.9c0-0.6,0-1.3,0-1.9c20.4-13,41-25.4,62-37.2
					l0.2,0.4c5.8,14.4,11.6,28.8,17.5,43.1C300.9,310.7,298.6,311,296.2,311.4z" style="fill:#1E5C9A;"/>
				<path d="M298.2,413.6c3.4,0,6.2,2.8,6.2,6.2c0,3.5-2.8,6.2-6.2,6.2c-3.5,0-6.2-2.8-6.2-6.2
					C291.9,416.4,294.7,413.6,298.2,413.6z" style="fill:#FFD249;"/>
				<path d="M239.3,19.7c43.1,0,77.9,34.9,77.9,77.9c0,43-34.9,77.9-77.9,77.9c-1.3,0-2.6,0-3.9-0.1l-0.1,0
					c-0.4-2-0.9-3.9-1.5-5.8c0-0.1-0.1-0.2-0.1-0.3c31.5-1,56.6-26.9,56.6-58.6c0-32.4-26.2-58.6-58.6-58.6
					c-24.3,0-45.1,14.8-54,35.8c-3.7-4.9-8.2-9.2-13.4-12.6l0.5-0.7C174.6,42.8,204.2,19.7,239.3,19.7z" style="fill:#FF9B19;"/>
				<path d="M282.4,328.7c1.5,6.8,5.5,12,9.8,13.7c-4.3,2.9-9.2,5.1-14.4,6.4c-3.2,0.8-6.6,1.2-10.1,1.2
					c-0.6-0.6-1.1-1.2-1.7-1.8c-5.5-6.3-9-15-9-24.7l-0.2-0.5c0.5-0.2,1-0.4,1.5-0.6l0.2,0.6c2.6,2,5.9,3.1,9.5,2.9
					c6.5-0.3,11.8-5,13.3-11l-0.1-0.3c1-0.2,1.9-0.5,2.9-0.7l0,0.1C282,317.6,281.2,323,282.4,328.7z" style="fill:#FF9B19;"/>
				<path d="M286.3,266.2l0.1,0.2c-0.3,0.2-0.6,0.3-0.9,0.5c-21.1,11.9-41.7,24.2-62,37.2c1-23.4,20.3-42.1,44-42.1
					C274.2,262,280.6,263.5,286.3,266.2z" style="fill:#FF9B19;"/>
				<path d="M269.2,370.4c9.9,0,17.9,8,17.9,17.9s-8,17.9-17.9,17.9s-17.9-8-17.9-17.9S259.4,370.4,269.2,370.4z
					 M281.3,390.1c0-8-6.5-14.5-14.5-14.5c-8,0-14.5,6.5-14.5,14.5c0,8,6.5,14.5,14.5,14.5C274.8,404.5,281.3,398,281.3,390.1z" style="fill:#F6B855;"/>
				<path d="M281.2,314.6l0.1,0.3c-1.5,6-6.7,10.7-13.3,11c-3.5,0.2-6.9-0.9-9.5-2.9l-0.2-0.6
					C265.8,319.3,273.5,316.7,281.2,314.6z" style="fill:#FF564F;"/>
				<circle cx="262.3" cy="97.9" r="20.7" style="fill:#FF564F;"/>
				<path d="M266.8,375.6c8,0,14.5,6.5,14.5,14.5c0,8-6.5,14.5-14.5,14.5c-8,0-14.5-6.5-14.5-14.5
					C252.4,382.1,258.8,375.6,266.8,375.6z M271.7,392.6c0-3.1-2.5-5.7-5.7-5.7c-3.1,0-5.7,2.5-5.7,5.7c0,3.1,2.6,5.7,5.7,5.7
					C269.2,398.3,271.7,395.8,271.7,392.6z" style="fill:#FF9B19;"/>
				<circle cx="266" cy="392.6" r="5.7" style="fill:#FFD249;"/>
				<path d="M270.1,463.1c0,5.4-3.9,9.9-9,10.9l-0.4,0.1c-2.3-7-4.8-13.9-7.5-20.8l0.2-0.1c1.6-0.9,3.5-1.4,5.5-1.4
					C265,451.9,270.1,456.9,270.1,463.1z" style="fill:#FFD249;"/>
				<path d="M267.7,350c-0.1,0-0.2,0-0.2,0c-13.2,0-25.1-5.9-33.2-15.1c7.2-4.5,14.8-8.5,22.6-11.8l0.2,0.5
					c0,9.6,3.4,18.4,9,24.7C266.6,348.9,267.1,349.5,267.7,350z" style="fill:#F6B855;"/>
				<path d="M251.2,448.5C251.2,448.5,251.2,448.5,251.2,448.5L251.2,448.5c0,0-13.3,9-8.1,25.5c0,0-14.7,5.5-27,29.1
					c-12.3,23.6-7.6,54.7-7.6,54.7l-0.4,0.4c-4-4-7.7-8.3-11.3-12.6c-4.5-5.3-8.8-10.7-13-16.2l0.1-0.1
					c-12.7-23.8-19.7-55.6-17.8-82.6c1.9-26.9,12.1-54.9,28-76.7c0.7,0.4,1.7,0.9,2.4,1.3c15.8,9.1,26.9,24.4,36.2,40.1
					C239.6,423.3,245.8,435.7,251.2,448.5z" style="fill:#86AEBA;"/>
				<path d="M233.7,169.4c-0.7,0-1.3,0-2,0c-19.7,0-37.1-9.7-47.7-24.6l0.5-0.4c3.7-1.1,7.6-1.7,11.6-1.7
					C213.4,142.8,228.2,153.9,233.7,169.4z" style="fill:#FF564F;"/>
				<path d="M223.5,304.1c0,0.6,0,1.3,0,1.9c0,11.1,4.1,21.2,10.8,28.9c-15.2,9.4-28.9,21.2-40.1,34.9
					c-0.1,0.1-0.1,0.2-0.2,0.2c0,0,0,0,0,0c-12.1-6.2-26.4-8.5-39.9-6.3c-11.9,2-19.3,4-29.5,11.4
					C157.4,348.9,190.1,325.5,223.5,304.1z" style="fill:#86AEBA;"/>
				<path d="M211.4,193.8c0,3.4-0.8,6.6-2.3,9.4c-1.5-5.2-6.3-9-11.9-9c-6.9,0-12.4,5.5-12.4,12.4
					c0,2.3,0.7,4.5,1.8,6.4c-8.4-2.3-14.7-10-14.7-19.1c0-10.9,8.9-19.8,19.8-19.8C202.5,174,211.4,182.9,211.4,193.8z" style="fill:#FFD249;"/>
				<path d="M209,203.1c0.3,1.1,0.5,2.2,0.5,3.4c0,6.9-5.6,12.4-12.4,12.4c-4.5,0-8.4-2.4-10.6-6
					c1.6,0.4,3.4,0.7,5.1,0.7C199.1,213.6,205.7,209.4,209,203.1z" style="fill:#FFD249;"/>
				<path d="M197.1,194.1c5.7,0,10.5,3.8,11.9,9c-3.4,6.2-9.9,10.4-17.4,10.4c-1.8,0-3.5-0.2-5.1-0.7
					c-1.1-1.9-1.8-4.1-1.8-6.4C184.7,199.6,190.2,194.1,197.1,194.1z" style="fill:#FF9B19;"/>
				<path d="M153.7,485.8c-14.2-23-26.6-47.2-36.9-72.2c-1.2-2.8-2.3-5.7-3.4-8.5c-2.4-4.6-3.4-9-2.9-12.8
					c0.4-4.1,2.5-7.7,5.9-10.5c2.8-2.2,5.5-4.5,8.2-6.7c10.2-7.4,17.6-9.4,29.5-11.4c13.4-2.2,27.8,0.1,39.9,6.3c0,0,0,0,0,0
					c-15.8,21.8-26.1,49.8-28,76.7c-1.9,26.9,5.1,58.7,17.8,82.6l-0.1,0.1c-7.7-10-15-20.2-21.9-30.8
					C159.1,494.4,156.4,490.1,153.7,485.8z" style="fill:#86AEBA;"/>
				<path d="M188,119.2c0,8.4-2,16.4-5.5,23.5c-6-9.2-9.4-20.1-9.4-31.9c0-8.1,1.6-15.8,4.6-22.8
					C184.2,96.7,188,107.5,188,119.2z" style="fill:#F6B855;"/>
				<path d="M162.7,250.7c14.5,0,26.2,11.8,26.2,26.2c0,13-9.4,23.8-21.8,25.9l0-0.2c1-2.4,1.5-4.9,1.6-7.3
					c5.1-2.8,8.5-8.1,8.5-14.3c0-9-7.3-16.3-16.3-16.3c-9,0-16.3,7.3-16.3,16.3c0,1.4,0.2,2.8,0.5,4c-1.8,1.8-3.2,4.1-4.3,6.7
					c-2.9-4.2-4.5-9.3-4.5-14.7C136.4,262.5,148.2,250.7,162.7,250.7z" style="fill:#FF9B19;"/>
				<path d="M164.3,75.4c5.2,3.4,9.7,7.7,13.4,12.6c-3,7-4.6,14.7-4.6,22.8c0,11.8,3.5,22.7,9.4,31.9
					c-5,9.9-13,18.1-22.9,23.1c-7.2,3.7-15.3,5.8-23.9,5.8c-28.9,0-52.4-23.4-52.4-52.4s23.4-52.4,52.4-52.4
					C146.2,66.9,156.1,70,164.3,75.4z M142.7,118.5c0-13.4-10.9-24.3-24.4-24.3s-24.4,10.9-24.4,24.3s10.9,24.4,24.4,24.4
					S142.7,132,142.7,118.5z" style="fill:#FF9B19;"/>
				<path d="M161,264.7c9,0,16.3,7.3,16.3,16.3c0,6.2-3.4,11.6-8.5,14.3c0.3-6.7-2.6-12.6-7.9-14.8
					c-5.2-2.1-11.2-0.1-15.6,4.5c-0.3-1.3-0.5-2.6-0.5-4C144.8,272,152,264.7,161,264.7z" style="fill:#F6B855;"/>
				<path d="M160.8,280.6c5.3,2.2,8.3,8.1,7.9,14.8c-2.3,1.2-4.9,2-7.7,2c-7.6,0-14-5.2-15.8-12.2
					C149.7,280.4,155.7,278.5,160.8,280.6z" style="fill:#FFD249;"/>
				<path d="M168.8,295.3c-0.1,2.4-0.6,4.9-1.6,7.3l0,0.2c-1.4,0.2-2.9,0.4-4.5,0.4c-9,0-17-4.6-21.7-11.5
					c1.1-2.6,2.6-4.8,4.3-6.7c1.8,7,8.2,12.2,15.8,12.2C163.8,297.3,166.5,296.6,168.8,295.3z" style="fill:#F6B855;"/>
				<path d="M118.3,94.2c13.4,0,24.4,10.9,24.4,24.3s-10.9,24.4-24.4,24.4S93.9,132,93.9,118.5S104.9,94.2,118.3,94.2z" style="fill:#FFD249;"/>
				<path d="M111.2,182.1c9.8,0,17.8,7.9,17.8,17.8c0,9.8-8,17.8-17.8,17.8s-17.8-7.9-17.8-17.8
					C93.4,190,101.4,182.1,111.2,182.1z" style="fill:#FF9B19;"/>
			</g>
			<g>
				<path d="M413,202.2c2.8-1.3,5.1-2.7,8-4" style="fill:none;stroke:#000000;stroke-width:1.5;stroke-linecap:round;stroke-linejoin:round;stroke-miterlimit:10;"/>
				<path d="M360.2,227.9c7.6-3.8,14.2-7.1,21.9-10.9" style="fill:none;stroke:#000000;stroke-width:1.5;stroke-linecap:round;stroke-linejoin:round;stroke-miterlimit:10;"/>
				<path d="M116.4,381.8c2.8-2.2,5.5-4.5,8.2-6.7c32.8-26.2,65.5-49.6,98.9-71c20.4-13,41-25.4,62-37.2
					c0.3-0.2,0.6-0.3,0.9-0.5c7.9-4.5,16-8.9,24-13.2" style="fill:none;stroke:#000000;stroke-width:1.5;stroke-linecap:round;stroke-linejoin:round;stroke-miterlimit:10;"/>
				<path d="M338.1,228.2C338.1,228.2,338.1,228.2,338.1,228.2C338.1,228.2,338,228.2,338.1,228.2
					c-0.5-1.3-5.8-14.2-6-21.4c-0.1-2.8,0.4-6,2.8-7.3c3-1.7,6.5,0.8,8.9,3.2c6.7,6.9,11.5,15.2,16.5,25.1" style="fill:none;stroke:#000000;stroke-width:1.5;stroke-linecap:round;stroke-linejoin:round;stroke-miterlimit:10;"/>
				<path d="M310.4,253.2c-4.6-7.3-8.1-15.3-10.2-23.7c-0.8-3.2-0.8-7.4,1-9.5c2.2-2.7,6.6-3.6,10.9,1.2
					c2.3,2.6,7.7,12,10.2,15.6c-3.8-6.1-6.1-13-6.9-20.1c-0.4-3.4,0.3-7.4,3.4-8.7c3-1.3,5.5,0.2,7.4,2c5,4.6,11.1,17,11.7,18.2" style="fill:none;stroke:#000000;stroke-width:1.5;stroke-linecap:round;stroke-linejoin:round;stroke-miterlimit:10;"/>
				<path d="M382,217c-1.9-4.6-6.4-13-8.9-19.4c-4-10.1,0.1-12.8,2.7-13.1c2.4-0.3,4.5,1.5,6.1,3.2
					c4.4,4.6,8.1,9.9,10.8,15.6c-2.1-5.5-3.5-11.4-4-17.3c-0.2-2.4-0.2-5.1,1.7-6.5c2.5-1.9,5.2-0.9,9.2,4
					c3.9,4.8,8.5,10.7,13.4,18.6" style="fill:none;stroke:#000000;stroke-width:1.5;stroke-linecap:round;stroke-linejoin:round;stroke-miterlimit:10;"/>
				<path d="M413.6,266.7c8.7,3.3,16.7,8.6,22.9,15.4" style="fill:none;stroke:#000000;stroke-width:2.5;stroke-linecap:round;stroke-linejoin:round;stroke-miterlimit:10;"/>
				<path d="M349.3,287.9c5.5-9.4,14.4-16.3,24.3-20.4c5.9-2.4,12.1-3.8,18.2-4.2c7.3-0.5,14.8,0.8,21.7,3.4" style="fill:none;stroke:#000000;stroke-width:2.5;stroke-linecap:round;stroke-linejoin:round;stroke-miterlimit:10;"/>
				<path d="M349.3,287.9c8.6,5.5,18.5,9.1,28.6,10.6c5.3,0.8,10.7,1,16.1,0.6c6.5-0.5,13-1.7,19.2-3.7
					c8.5-2.8,16.5-7.1,23.3-13" style="fill:none;stroke:#000000;stroke-width:2.5;stroke-linecap:round;stroke-linejoin:round;stroke-miterlimit:10;"/>
				<path d="M337,289.5c11.1-25,31.7-36.2,54.1-37.8c8.1-0.6,16.1,0.4,23.4,2.6c15.3,4.6,28.1,14.5,34.6,27.1" style="fill:none;stroke:#000000;stroke-width:2;stroke-linecap:round;stroke-linejoin:round;stroke-miterlimit:10;"/>
				<path d="M336.3,256.3c4.2,4.7,8.3,9.5,12.5,14.2" style="fill:none;stroke:#000000;stroke-width:2;stroke-linecap:round;stroke-linejoin:round;stroke-miterlimit:10;"/>
				<path d="M363,240c2.4,5.3,4.9,10.6,7.3,15.9" style="fill:none;stroke:#000000;stroke-width:2;stroke-linecap:round;stroke-linejoin:round;stroke-miterlimit:10;"/>
				<path d="M391.2,232.6c0.4,6.3,0.8,12.5,1.2,18.8" style="fill:none;stroke:#000000;stroke-width:2;stroke-linecap:round;stroke-linejoin:round;stroke-miterlimit:10;"/>
				<path d="M420.7,236.5c-2.1,5.9-4.2,11.8-6.2,17.8c0,0,0,0,0,0" style="fill:none;stroke:#000000;stroke-width:2;stroke-linecap:round;stroke-linejoin:round;stroke-miterlimit:10;"/>
				<path d="M445.8,250.9c-3.4,4.8-6.7,9.6-10.1,14.4" style="fill:none;stroke:#000000;stroke-width:2;stroke-linecap:round;stroke-linejoin:round;stroke-miterlimit:10;"/>
				<path d="M421,198.2c7-2.8,16.4-0.6,22.2,4.1c5.9,4.7,9.3,13.1,12.9,19.7c33.8,61.5,54.7,129.8,56.5,199.9
					c0,15.5-0.5,36.5-5.4,59.2c-2.7,12.3-6.6,25.2-12.5,37.9c-1.4,3.1-3,6.2-4.7,9.4c-0.3,0.5-0.6,1.1-0.9,1.6
					c-8.5,15.4-20.4,30.9-37.7,34.5c-2.9,0.6-5.8,0.8-8.8,0.7c-12.4-0.4-24.6-6.9-33.3-16C399.3,538.8,393,525,388.1,511
					c-0.3-0.7-0.5-1.5-0.8-2.2c-3-8.7-5.6-17.5-8.7-26.1c-2.2-6-4.6-12-7.5-17.7c-2.9-5.6-6.4-11.1-11.5-15c-5.1-3.8-9.8-5.7-17-4.8
					" style="fill:none;stroke:#000000;stroke-width:1.5;stroke-linecap:round;stroke-linejoin:round;stroke-miterlimit:10;"/>
				<path d="M354.8,555.7c8.1-18.4,19.3-34.5,33-44.6" style="fill:none;stroke:#000000;stroke-width:1.5;stroke-linecap:round;stroke-linejoin:round;stroke-miterlimit:10;"/>
				<path d="M354.8,555.7c3.5-1.6,7.2-2.8,10.9-3.4c9.1-1.4,18.4,0.6,26.2,8.1c6.5,6.3,6.6,14.8-1.9,16.7
					c-6,1.3-16,2.3-26.6,2.7c-19.6,0.7-40.8-0.6-40.9-5.7" style="fill:none;stroke:#000000;stroke-width:1.5;stroke-linecap:round;stroke-linejoin:round;stroke-miterlimit:10;"/>
				<path d="M476.3,356.8c-8.6-14.8-26.7-22.5-43.8-21.3c-2.7,0.2-5.5,0.6-8.1,1.2c-13.9,3.1-26.6,11.2-36.6,21.5
					c-11.9,12.2-20.4,27.4-27.8,42.9c-6.9,14.5-13,29.3-18.2,44.4c-5.3,15.4-9.7,31-13,46.8c-2.2,10.4-3.8,20.8-5,31.2
					c-1.7,15-2.2,30.1-1.6,45.2c0.1,1.8,0.2,3.6,0.3,5.4" style="fill:none;stroke:#000000;stroke-width:1.5;stroke-linecap:round;stroke-linejoin:round;stroke-miterlimit:10;"/>
				<path d="M386.1,414.4C386.1,414.4,386.2,414.4,386.1,414.4c9.1-0.2,18.2-0.4,27.3-0.5c10.4-0.2,20.9-0.4,31.3-0.6
					c9.8-0.2,19.7-0.4,29.6-0.6c5.8-0.1,11.6-0.2,17.4-0.3" style="fill:none;stroke:#000000;stroke-width:0.75;stroke-linecap:round;stroke-linejoin:round;stroke-miterlimit:10;"/>
				<path d="M444.2,488.4c10.9-1.7,21.1-7.5,28.9-15.7c2.9-3,5.4-6.3,7.6-9.8c3.6-5.8,6.2-12.1,8.1-18.7
					c2.9-10.3,3.8-21.2,3-31.8" style="fill:none;stroke:#000000;stroke-width:0.75;stroke-linecap:round;stroke-linejoin:round;stroke-miterlimit:10;"/>
				<path d="M386.2,414.4C386.2,414.4,386.2,414.4,386.2,414.4c-1.4,10.7-0.9,21.8,1.9,32.1c1.6,6.1,4.1,12,7.5,17.4
					c4.8,7.7,11.6,14.3,19.5,18.8c7,4,14.8,6.3,22.9,6.2c2.1,0,4.2-0.2,6.3-0.5" style="fill:none;stroke:#000000;stroke-width:0.75;stroke-linecap:round;stroke-linejoin:round;stroke-miterlimit:10;"/>
				<path d="M183.9,529.3c-12.7-23.8-19.7-55.6-17.8-82.6c1.9-26.9,12.1-54.9,28-76.7c0.1-0.1,0.1-0.2,0.2-0.2" style="fill:none;stroke:#000000;stroke-width:0.25;stroke-linecap:round;stroke-linejoin:round;stroke-miterlimit:10;"/>
				<path d="M194.2,369.8c11.2-13.7,24.9-25.5,40.1-34.9c7.2-4.5,14.8-8.5,22.6-11.8c0.5-0.2,1-0.4,1.5-0.6
					c7.5-3.1,15.1-5.8,22.9-7.8c1-0.2,1.9-0.5,2.9-0.7c4-1,8-1.8,12.1-2.5c2.3-0.4,4.7-0.7,7-1c0.1,0,0.1,0,0.1,0" style="fill:none;stroke:#000000;stroke-width:1.5;stroke-linecap:round;stroke-linejoin:round;stroke-miterlimit:10;"/>
				<path d="M303.5,311.1c1.5,3.6,3.2,7.4,5.2,11.1c2.8,5.2,6,10.3,9.4,14.7c0.6,0.8,1.3,1.6,2,2.4
					c5.8,6.3,13.4,11.1,21.9,11.6c10.3,0.6,19.9-5,28.2-11c8.4-6,16.6-12.9,26.6-15.4c10-2.5,23.4,0.2,27.6,12.3c0,0,0,0.1,0,0.1" style="fill:none;stroke:#000000;stroke-width:1.5;stroke-linecap:round;stroke-linejoin:round;stroke-miterlimit:10;"/>
				<path d="M424.5,336.8c7.5,25.5,10.1,46.4,10.5,76.6" style="fill:none;stroke:#000000;stroke-width:0.25;stroke-linecap:round;stroke-linejoin:round;stroke-miterlimit:10;"/>
				<path d="M378.2,482c0.1,0.2,0.2,0.4,0.3,0.6c6.9,13.2,15.4,28.6,25.5,39.5c10.3,11.1,24.3,19.5,39.4,19.8
					c15.6,0.3,26.1-6.2,37.7-16.7c12.2-11,20.3-25.6,26-44" style="fill:none;stroke:#000000;stroke-width:0.25;stroke-linecap:round;stroke-linejoin:round;stroke-miterlimit:10;"/>
				<path d="M328.5,456.5c1.9-5.2,7.8-9.8,13.3-11.1c0.2,0,0.5-0.1,0.7-0.1" style="fill:none;stroke:#000000;stroke-linecap:round;stroke-linejoin:round;stroke-miterlimit:10;"/>
				<path d="M328.5,456.5c-0.4-5.4-4.8-10.2-10-11.9c-5.1-1.7-11.2-0.1-14.8,3.9c-3.1,3.4-4.2,8.5-3.1,12.9
					c0.2,0.8,0.4,1.5,0.8,2.2" style="fill:none;stroke:#000000;stroke-linecap:round;stroke-linejoin:round;stroke-miterlimit:10;"/>
				<path d="M301.5,463.6c-0.2-0.8-0.5-1.5-0.8-2.2c-1.6-3.8-4.8-6.8-9.2-7.5c-4.3-0.7-9,0.5-11.2,3.9
					c-0.5,0.7-0.8,1.5-1,2.4" style="fill:none;stroke:#000000;stroke-linecap:round;stroke-linejoin:round;stroke-miterlimit:10;"/>
				<line x1="251.2" y1="448.5" x2="251.2" y2="448.5" style="fill:none;stroke:#000000;stroke-linecap:round;stroke-linejoin:round;stroke-miterlimit:10;"/>
				<path d="M280,457.5c-1.4-5.7-5.6-9.4-10.6-11.1c-5.3-1.8-13-1-18.2,2" style="fill:none;stroke:#000000;stroke-linecap:round;stroke-linejoin:round;stroke-miterlimit:10;"/>
				<path d="M113.4,405.1c-2.4-4.6-3.4-9-2.9-12.8c0.4-4.1,2.5-7.7,5.9-10.5" style="fill:none;stroke:#000000;stroke-width:1.5;stroke-linecap:round;stroke-linejoin:round;stroke-miterlimit:10;"/>
				<path d="M253.2,453.4c2.7,6.8,5.2,13.7,7.5,20.8c8.5,26.1,13.6,53.4,15.2,80.5" style="fill:none;stroke:#000000;stroke-width:1.5;stroke-linecap:round;stroke-linejoin:round;stroke-miterlimit:10;"/>
				<path d="M251.2,448.5C251.2,448.5,251.2,448.5,251.2,448.5c0.7,1.6,1.4,3.3,2,4.9" style="fill:none;stroke:#000000;stroke-linecap:round;stroke-linejoin:round;stroke-miterlimit:10;"/>
				<path d="M194,370.1C194,370.1,194,370.1,194,370.1c0.8,0.4,1.7,0.9,2.4,1.3c15.8,9.1,26.9,24.4,36.2,40.1
					c7,11.8,13.2,24.2,18.6,37" style="fill:none;stroke:#000000;stroke-width:1.5;stroke-linecap:round;stroke-linejoin:round;stroke-miterlimit:10;"/>
				<path d="M117.8,380.5c2.4-2,4.7-3.8,6.8-5.3c10.2-7.4,17.6-9.4,29.5-11.4c13.4-2.2,27.8,0.1,39.9,6.3" style="fill:none;stroke:#000000;stroke-width:0.25;stroke-linecap:round;stroke-linejoin:round;stroke-miterlimit:10;"/>
				<path d="M275.9,554.7c1.8-1.4,3.9-2.5,6.2-3.4c6.1-2.3,13.5-2.8,19.3-1.8c7.9,1.5,13.8,5.9,18,12.8
					c1.1,1.9,1.9,4.1,1.9,6.4c0,4.4-3.2,8.7-13.2,9.7" style="fill:none;stroke:#000000;stroke-width:1.5;stroke-linecap:round;stroke-linejoin:round;stroke-miterlimit:10;"/>
				<path d="M113.4,405.1c1.1,2.8,2.3,5.7,3.4,8.5c10.3,25,22.7,49.2,36.9,72.2c2.6,4.3,5.4,8.6,8.2,12.8
					c6.9,10.5,14.2,20.8,21.9,30.8c4.2,5.5,8.6,10.9,13,16.2c3.6,4.3,7.3,8.6,11.3,12.6c3.8,3.9,7.8,7.5,12.1,10.7
					c8.9,6.5,19.1,9.9,30.1,10.6c11.7,0.7,28.2,1.2,44.5,0.2c4.4-0.3,8.9-0.7,13.2-1.2" style="fill:none;stroke:#000000;stroke-width:1.5;stroke-linecap:round;stroke-linejoin:round;stroke-miterlimit:10;"/>
				<path d="M139.2,546.5c0.1-0.1,0.1-0.1,0.2-0.2c9.5-14.2,18.4-30.9,22.6-47.6c0,0,0,0,0,0" style="fill:none;stroke:#000000;stroke-linecap:round;stroke-linejoin:round;stroke-miterlimit:10;"/>
				<path d="M139.7,546.5c10.9-3.9,23.2-3.3,33.7,1.6c4,1.9,7.9,4.5,10.1,8.3c2.3,3.8,2.6,9-0.1,12.5" style="fill:none;stroke:#000000;stroke-linecap:round;stroke-linejoin:round;stroke-miterlimit:10;"/>
				<path d="M110.3,392.3c-7.2,56.3-11.7,112-18.8,168.3" style="fill:none;stroke:#000000;stroke-linecap:round;stroke-linejoin:round;stroke-miterlimit:10;"/>
				<path d="M91.5,560.6c-0.7,5.3-0.9,9.3,2.4,11c0.4,0.2,0.9,0.4,1.5,0.6c3.7,1,7.6,1.8,11.5,1.8
					c25.5,0,73.1-1.2,76.5-5" style="fill:none;stroke:#000000;stroke-linecap:round;stroke-linejoin:round;stroke-miterlimit:10;"/>
				<path d="M94,571.3c7.1,2.6,17.5-2.1,23.4-6.6c4.3-3.3,6.5-6.4,8.8-10.3c0.9-1.5,1.8-3.2,2.8-5
					c10.8-19.1,21.4-40.3,24.7-63.5c0-0.1,0-0.1,0-0.2" style="fill:none;stroke:#000000;stroke-width:0.25;stroke-linecap:round;stroke-linejoin:round;stroke-miterlimit:10;"/>
				<path d="M388.5,446.4c8.5-0.2,17.1-0.4,25.7-0.6c10.1-0.2,20.2-0.5,30.3-0.7c9.6-0.2,19.2-0.4,28.8-0.7
					c5.1-0.1,10.2-0.2,15.2-0.3" style="fill:none;stroke:#000000;stroke-width:0.5;stroke-linecap:round;stroke-linejoin:round;stroke-miterlimit:10;"/>
				<path d="M413.4,414c0.3,10.5,0.6,21.2,0.8,31.8c0.3,12.3,0.5,24.5,0.9,36.6" style="fill:none;stroke:#000000;stroke-width:0.5;stroke-linecap:round;stroke-linejoin:round;stroke-miterlimit:10;"/>
				<line x1="444.2" y1="488.4" x2="444.2" y2="488.4" style="fill:none;stroke:#000000;stroke-width:0.75;stroke-linecap:round;stroke-linejoin:round;stroke-miterlimit:10;"/>
				<path d="M444.8,413.1c0,0.1,0,0.1,0,0.2c-0.1,10.6-0.2,21.2-0.2,31.8c-0.1,14.4-0.2,28.9-0.3,43.3" style="fill:none;stroke:#000000;stroke-width:0.5;stroke-linecap:round;stroke-linejoin:round;stroke-miterlimit:10;"/>
				<path d="M474.3,412.9c-0.3,10.5-0.7,21-1,31.5c-0.3,9.2-0.6,18.4-0.9,27.6" style="fill:none;stroke:#000000;stroke-width:0.5;stroke-linecap:round;stroke-linejoin:round;stroke-miterlimit:10;"/>
				<path d="M282.1,551.4c0,0,21.3-1.3,22.2,16.1c0.5,9.9-6.6,11.8-9.4,12.2c-0.7,0.1-1.1,0.1-1.1,0.1" style="fill:none;stroke:#000000;stroke-width:0.25;stroke-linecap:round;stroke-linejoin:round;stroke-miterlimit:10;"/>
				<path d="M365.7,552.4c0,0,17,0.2,16.4,14.3c-0.5,11.1-13.2,12.8-18.6,13c-1.4,0.1-2.4,0-2.4,0" style="fill:none;stroke:#000000;stroke-width:0.25;stroke-linecap:round;stroke-linejoin:round;stroke-miterlimit:10;"/>
				<path d="M442.8,566.3c0,0-2.4,4.4-0.2,6.4c2.2,2,15.6,2.8,29.3,2.6c10.7-0.1,24.3,1,29.4-1.7
					c1.4-0.7,2.2-1.8,2.1-3.2c-0.5-6.5-8.5-50.2-8.6-51.1c0,0,0,0,0,0" style="fill:none;stroke:#000000;stroke-linecap:round;stroke-linejoin:round;stroke-miterlimit:10;"/>
				<path d="M490.4,528.7c0,0-2.7,31.1,10.4,44.3" style="fill:none;stroke:#000000;stroke-width:0.25;stroke-linecap:round;stroke-linejoin:round;stroke-miterlimit:10;"/>
				<path d="M164.8,74.7c9.8-31.8,39.4-55,74.5-55c43.1,0,77.9,34.9,77.9,77.9c0,43-34.9,77.9-77.9,77.9
					c-1.3,0-2.6,0-3.9-0.1" style="fill:none;stroke:#000000;stroke-width:2;stroke-linecap:round;stroke-linejoin:round;stroke-miterlimit:10;"/>
				<path d="M177.7,88c6.5,8.7,10.3,19.5,10.3,31.2c0,8.4-2,16.4-5.5,23.5c-5,9.9-13,18.1-22.9,23.1
					c-7.2,3.7-15.3,5.8-23.9,5.8c-28.9,0-52.4-23.4-52.4-52.4s23.4-52.4,52.4-52.4c10.6,0,20.4,3.1,28.6,8.5
					C169.5,78.8,174,83,177.7,88z" style="fill:none;stroke:#000000;stroke-width:1.5;stroke-miterlimit:10;"/>
				<path d="M177.7,88c8.9-21,29.7-35.8,54-35.8c32.4,0,58.6,26.2,58.6,58.6c0,31.7-25.2,57.6-56.6,58.6
					c-0.7,0-1.3,0-2,0c-19.7,0-37.1-9.7-47.7-24.6c-0.5-0.7-1-1.4-1.5-2.2c-6-9.2-9.4-20.1-9.4-31.9C173.1,102.7,174.7,95,177.7,88z
					" style="fill:none;stroke:#000000;stroke-width:0.5;stroke-linecap:round;stroke-linejoin:round;stroke-miterlimit:10;"/>
				<path d="M159.7,166.1c-2.3,5.1-3.7,10.8-3.7,16.7c0,22.1,17.9,40,40,40c22.1,0,40-17.9,40-40
					c0-2.5-0.2-4.9-0.7-7.3c-0.4-2-0.9-3.9-1.5-5.8c0-0.1-0.1-0.2-0.1-0.3c-5.5-15.5-20.3-26.6-37.7-26.6c-4,0-7.9,0.6-11.6,1.7" style="fill:none;stroke:#000000;stroke-width:1.5;stroke-linecap:round;stroke-linejoin:round;stroke-miterlimit:10;"/>
				<path d="M209,203.1c0.3,1.1,0.5,2.2,0.5,3.4c0,6.9-5.6,12.4-12.4,12.4c-4.5,0-8.4-2.4-10.6-6
					c-1.1-1.9-1.8-4.1-1.8-6.4c0-6.9,5.6-12.4,12.4-12.4C202.8,194.1,207.6,197.9,209,203.1z" style="fill:none;stroke:#000000;stroke-width:0.5;stroke-linecap:round;stroke-linejoin:round;stroke-miterlimit:10;"/>
				<path d="M141,291.7c-2.9-4.2-4.5-9.3-4.5-14.7c0-14.5,11.8-26.2,26.2-26.2s26.2,11.8,26.2,26.2
					c0,13-9.4,23.8-21.8,25.9c-1.4,0.2-2.9,0.4-4.5,0.4C153.6,303.2,145.7,298.6,141,291.7z" style="fill:none;stroke:#000000;stroke-width:1.5;stroke-linecap:round;stroke-linejoin:round;stroke-miterlimit:10;"/>
				<path d="M145.3,285c-0.3-1.3-0.5-2.6-0.5-4c0-9,7.3-16.3,16.3-16.3c9,0,16.3,7.3,16.3,16.3
					c0,6.2-3.4,11.6-8.5,14.3c-2.3,1.2-4.9,2-7.7,2C153.4,297.3,147.1,292.1,145.3,285z" style="fill:none;stroke:#000000;stroke-width:0.25;stroke-linecap:round;stroke-linejoin:round;stroke-miterlimit:10;"/>
				<path d="M167.1,302.6c1-2.4,1.5-4.9,1.6-7.3c0.3-6.7-2.6-12.6-7.9-14.8c-5.2-2.1-11.2-0.1-15.6,4.5
					c-1.8,1.8-3.2,4.1-4.3,6.7c0,0.1-0.1,0.1-0.1,0.2" style="fill:none;stroke:#000000;stroke-width:0.25;stroke-linecap:round;stroke-linejoin:round;stroke-miterlimit:10;"/>
				<path d="M308.4,322.3c-1,2.6-2.4,5.1-3.9,7.5c-3.2,5-7.4,9.3-12.3,12.6c-4.3,2.9-9.2,5.1-14.4,6.4
					c-3.2,0.8-6.6,1.2-10.1,1.2c-0.1,0-0.2,0-0.2,0c-13.2,0-25.1-5.9-33.2-15.1c-6.7-7.7-10.8-17.9-10.8-28.9c0-0.6,0-1.3,0-1.9
					c1-23.4,20.3-42.1,44-42.1c6.7,0,13.1,1.5,18.8,4.2" style="fill:none;stroke:#000000;stroke-width:2;stroke-linecap:round;stroke-linejoin:round;stroke-miterlimit:10;"/>
				<path d="M287.1,388.2c0,9.9-8,17.9-17.9,17.9s-17.9-8-17.9-17.9s8-17.9,17.9-17.9S287.1,378.4,287.1,388.2z" style="fill:none;stroke:#000000;stroke-width:1.5;stroke-linecap:round;stroke-linejoin:round;stroke-miterlimit:10;"/>
				<path d="M313.1,418.1c0,7.6-6.2,13.8-13.8,13.8c-7.6,0-13.8-6.2-13.8-13.8c0-7.6,6.2-13.8,13.8-13.8
					C306.9,404.3,313.1,410.5,313.1,418.1z" style="fill:none;stroke:#000000;stroke-width:1.5;stroke-linecap:round;stroke-linejoin:round;stroke-miterlimit:10;"/>
				<circle cx="266" cy="392.6" r="5.7" style="fill:none;stroke:#000000;stroke-width:0.25;stroke-linecap:round;stroke-linejoin:round;stroke-miterlimit:10;"/>
				<path d="M304.4,419.8c0,3.5-2.8,6.2-6.2,6.2c-3.5,0-6.2-2.8-6.2-6.2c0-3.4,2.8-6.2,6.2-6.2
					C301.6,413.6,304.4,416.4,304.4,419.8z" style="fill:none;stroke:#000000;stroke-width:0.25;stroke-linecap:round;stroke-linejoin:round;stroke-miterlimit:10;"/>
				<circle cx="266.8" cy="390.1" r="14.5" style="fill:none;stroke:#000000;stroke-width:0.25;stroke-linecap:round;stroke-linejoin:round;stroke-miterlimit:10;"/>
				<circle cx="393.8" cy="281.1" r="15" style="fill:none;stroke:#000000;stroke-width:0.5;stroke-linecap:round;stroke-linejoin:round;stroke-miterlimit:10;"/>
				<path d="M324.1,523.4c-0.1,0-0.1,0-0.2,0.1c-1.6,0.5-3.2,0.7-5,0.7c-9.7,0-17.5-7.8-17.5-17.5
					c0-9.7,7.8-17.5,17.5-17.5c3.6,0,7,1.1,9.8,3" style="fill:none;stroke:#000000;stroke-width:0.25;stroke-linecap:round;stroke-linejoin:round;stroke-miterlimit:10;"/>
				<path d="M253.4,453.3c1.6-0.9,3.5-1.4,5.5-1.4c6.2,0,11.2,5,11.2,11.2c0,5.4-3.9,9.9-9,10.9" style="fill:none;stroke:#000000;stroke-width:0.25;stroke-linecap:round;stroke-linejoin:round;stroke-miterlimit:10;"/>
				<path d="M281.3,315c-1.5,6-6.7,10.7-13.3,11c-3.5,0.2-6.9-0.9-9.5-2.9" style="fill:none;stroke:#000000;stroke-width:0.25;stroke-linecap:round;stroke-linejoin:round;stroke-miterlimit:10;"/>
				<line x1="413.6" y1="266.7" x2="413.6" y2="266.7" style="fill:none;stroke:#000000;stroke-width:2.5;stroke-linecap:round;stroke-linejoin:round;stroke-miterlimit:10;"/>
				<path d="M277.8,348.8c0,0,8.4,13.3,25.4,7.8c13-4.2,16.6-17.2,16.6-17.2" style="fill:none;stroke:#000000;stroke-width:0.25;stroke-linecap:round;stroke-linejoin:round;stroke-miterlimit:10;"/>
			</g>
		</g>
	</g>
</g>
</svg>
