<?xml version="1.0" encoding="utf-8"?>
<!-- Generator: Adobe Illustrator 20.1.0, SVG Export Plug-In . SVG Version: 6.00 Build 0)  -->
<svg version="1.1" id="Capa_1" xmlns="http://www.w3.org/2000/svg" xmlns:xlink="http://www.w3.org/1999/xlink" x="0px" y="0px" width="800px" height="600px" viewBox="0 0 800 600" style="enable-background:new 0 0 800 600;" xml:space="preserve">

<g>
	<g>
		<path d="M376.3,258.3c-8.1-13.2-17.6-25.7-28.2-37c-19.8-21.1-47.3-45-78.5-40.4c-13.2,1.9-25.2,9.2-31.6,21.2
			c-6.6,12.5-7,27.1-6.6,40.9c1.2,42.6,3,85.3,4.5,127.9c0,0.8,0.2,1.5,0.5,2.2c-0.2,2.6,1.2,5.1,4.6,5.8
			c33.9,6.2,68.8,2.8,100.7-10.4c3.5-1.4,5-4,4.4-7.8c-2.1-14-4.2-28-6.3-42c9.1,4.8,19,8,29.6,5.6c13.2-2.9,21.5-14.2,21.4-27.5
			C390.7,282.8,383.4,269.8,376.3,258.3z" style="fill:#F4BFAB;"/>
		<path d="M356.1,189.2c-5-7.6-16.7-10.8-25-12.4c-6.7-1.2-13.4-1.6-20.2-1.6c1.5-1.4,2.7-3.1,3.5-5.1
			c2.3-5.4,1.4-12.4-3.8-15.8c-6.6-4.3-17.7-2.2-24.7-0.3c-6.6,1.8-12.6,4.8-18.1,8.7c-1.3-5.5-3.4-10.9-6.5-15.7
			c-2.4-3.7-6-9.4-11.2-8.2c-4.4,1-5.4,5.9-5.9,9.6c-0.7,5.3-0.6,10.6,0,15.8c-4-2.9-8.2-5.4-12.9-6.9c-5.2-1.7-14.6-3.4-18.4,1.8
			c-3.8,5.2,0.9,12.3,4.2,16.4c2.7,3.4,6,6.1,9.7,8.2c-14.3,5.8-26,17.7-30.8,32.6c-2,6.3-2.7,15.5,4.6,18.6
			c5.6,2.4,13,0.9,19.6-1.4c-3.1,6.5-5.3,13.5-5,20.7c0.3,6.2,3.1,15.3,11,14c7.8-1.3,16.2-11.1,21-16.8c3.2-3.7,6-7.7,8.5-11.8
			c1.8,8.9,6.2,19.6,14.8,18.8c5.1-0.5,7.2-5.4,7.8-11.3c5.5,7.4,13.1,13.2,21.7,13.1c13.7-0.2,12.3-19.2,9.7-32.2
			c6.3,3.9,13.2,7,20.4,9.1c6.3,1.8,16.4,4.3,21.4-1.9c5-6.2-1.1-13.8-5.5-18.3c-3.2-3.3-6.8-6-10.6-8.5c6,0,11.9-0.7,16.6-3
			C358.7,202.8,360,195.1,356.1,189.2z" style="fill:#4A3B2A;"/>
		<path d="M535.1,182.5c-12.3-3.1-26.4-0.9-38.9,0.8c-22.1,2.9-46.6,10.2-56.6,32.2c-5.7,12.5-5.5,26.7-4.5,40.1
			c1.2,16.5,2.9,32.9,4.4,49.4c1.5,16.6,3.1,33.2,4.4,49.9c0.6,7.5,0.8,15.8-4.1,22c-4.2,5.2-10.7,7.9-16.9,10.1
			c-30.3,10.5-62,17.7-93.6,22.9c-8.6,1.4-17.2,2.6-25.8,3.6c-2.6,0.3-3.1,3.8-1.4,4.8c-0.5,7.3,1.2,14.2,5.2,20.4
			c0.6,1,1.7,1.4,2.8,1.1c3.2-0.7,6.4-1.5,9.6-2.2c28.8-1.7,57.5-5.5,85.8-11.4c25.5-5.3,54.7-10.6,66.3-37.1
			c9.8-22.6,5.5-48.3-0.7-71.1c-4.2-15.6-9.3-31.2-10.7-47.4c-0.7-7.9-0.5-15.9,1.3-23.7c1.9-8.4,6.1-13.7,14.3-16.5
			c15-5.1,30.8-8.6,46.3-11.7c8.1-1.6,16.3-3.1,24.5-4.3c2.9-0.4,4.5-0.3,5.9-2.9c1.1-2,1.6-4.5,1.6-6.7
			C554.6,193.6,545.3,185.1,535.1,182.5z" style="fill:#4A3B2A;"/>
		<path d="M603.2,169.7c-0.5-3.6-0.2-10.1-3.1-12.8c-2.5-2.4-8.3-2-11.4-2.4c-1.9-0.2-3.7-0.4-5.6-0.6
			c-13.6-1.9-27.3-2.7-41.1-2.3c-8.3,0.2-16.5,0.9-24.7,2c-2.9,0.4-8.6,0.2-11.3,2.7c-1.1,0.4-2.1,1.5-1.9,3c1.7,12,3.4,24,5.1,36
			c1.7,12,2.9,24.1,5.1,36c0.7,3.6,2.1,5.8,5.7,6.7c5.2,1.4,11.5,0.9,16.8,1c12.2,0.2,24.4-0.7,36.5-1.9c5.6-0.6,11.2-1.2,16.7-1.9
			c3.4-0.4,9.4,0,12.1-2.8c2.5-2.6,2.1-7.5,2.4-10.7c0.5-6,0.8-12,0.8-18.1C605.5,192.2,604.7,180.9,603.2,169.7z" style="fill:#ED7354;"/>
		<path d="M585.4,209c-5.3-4.8-10.6-9.6-15.9-14.3c2.3-2.7,4.6-5.5,7-8.2c2.3-2.7,7.2-6.6,6.7-10.7
			c-0.3-3.1-4.6-6.7-7.1-8.1c-3.2-1.8-5.2,0.4-7.3,2.6c-3.4,3.4-6.7,7-9.8,10.7c-0.8,0.8-1.5,1.5-2.3,2.3c-1.9-1.7-3.8-3.4-5.8-5
			c-4.2-3.7-9.1-9.6-14.5-11.6c-4.6-1.7-8.5,1.3-11.3,4.7c-1.9,0.3-3.3,2.6-1.4,4.1c1.7,1.3,3.4,2.6,5.1,4
			c5.3,5.7,10.9,11.1,16.8,16.3c-5.8,7.1-11.1,14.7-15.8,22.7c-1.1,1.8,0.4,3.5,2,3.7c0,0.1,0,0.1,0.1,0.2c5.3,9.3,14.3,0,18.4-4.9
			L559,207c5.6,4.3,11.4,8.4,17.3,12.2c0.7,0.4,1.8,0.5,2.5,0c2.7-2,4.9-4.3,6.9-7.1C586.3,211.2,586.1,209.7,585.4,209z" style="fill:#FFFFFF;"/>
		<path d="M371.1,427.1c-6.4-25.9-13.9-51.5-20.8-77.3c-0.6-2.1-2.4-2.7-4-2.4c-0.8-0.8-1.9-1.2-3.3-0.9
			c-35.6,9.4-72.1,14.8-109,16.4c-0.9,0-1.6,0.3-2.1,0.8c-1.8,0-3.5,1.1-3.4,3.4c1,22,3.2,44,6.8,65.7c0.9,5.4,1.9,10.7,2.9,16
			c0.6,3.3,0.9,7.5,3.3,10c2,2,4.6,2.1,7.3,2.2c5.7,0.2,11.5,0,17.2-0.2c21.9-0.9,43.7-4,64.9-9.4c10.7-2.7,21.2-6,31.5-9.8
			C370,438.8,373.2,435.6,371.1,427.1z" style="fill:#ED7354;"/>
		<path d="M355.5,270.2c-1.4-1.9-2.8-3.8-4.2-5.6c-0.8-1.1-2.2-1.6-3.4-0.9c-1.1,0.6-1.7,2.3-0.9,3.4
			c1.4,1.9,2.8,3.8,4.2,5.6c0.8,1.1,2.2,1.6,3.4,0.9C355.6,273,356.3,271.3,355.5,270.2z" style="fill:#4A3B2A;"/>
		<path d="M374.4,275.9l-5-9c-1.6-2.8-5.9-0.3-4.3,2.5c1.7,3,3.3,6,5,9C371.6,281.3,375.9,278.7,374.4,275.9z" style="fill:#4A3B2A;"/>
		<path d="M376.7,299c-1.1-1.9-2.2-3.8-3.3-5.7c-1.6-2.8-5.9-0.3-4.3,2.5c1.1,1.9,2.2,3.8,3.3,5.7
			C374,304.3,378.3,301.8,376.7,299z" style="fill:#4A3B2A;"/>
		<path d="M295,280.5c-0.3-3.2-5.3-3.2-5,0c0.3,3.3,1,10.8-4.1,11c-4.7,0.1-5.6-6.1-5.6-9.4c0-3.2-5-3.2-5,0
			c0,6.4,2.9,14.4,10.6,14.4C294.3,296.5,295.5,286.9,295,280.5z" style="fill:#4A3B2A;"/>
		<path d="M252,314.2c-0.1,1.3-2.1,1.6-3.1,1.3c-1.4-0.5-2.1-2.3-2.4-3.6c-0.5-2.1,0.4-8.7,3.9-6.1
			c2.6,1.9,5.1-2.4,2.5-4.3c-3.1-2.4-7.5-1.2-9.7,1.9c-2.3,3.2-2.4,7.8-1.1,11.3c1.3,3.4,4.2,6.1,8.1,6c3.7-0.2,6.5-2.8,6.8-6.4
			C257.2,311,252.2,311,252,314.2z" style="fill:#4A3B2A;"/>
		<path d="M346.8,319.8c-7.5-7.9-14.6-16.1-21.2-24.8c-1.9-2.5-6.3,0-4.3,2.5c6.9,9,14.2,17.6,22,25.8
			C345.5,325.7,349,322.1,346.8,319.8z" style="fill:#4A3B2A;"/>
		<path d="M348.9,358.7c-3,0.9-6.1,1.8-9.1,2.6c0.1-3.6-0.5-7.1-1.9-10.6c-1.2-2.9-6-1.7-4.8,1.3c1.4,3.4,2,7,1.7,10.6
			c-4.7,1.3-9.3,2.5-14,3.7c-0.9-4-1.7-8-2.6-12c-0.7-3.1-5.5-1.8-4.8,1.3c0.9,4,1.7,8,2.6,11.9c-6.2,1.5-12.4,3-18.6,4.3
			c-0.2-4.3-1.1-8.4-2.8-12.3c-1.2-2.9-6.1-1.6-4.8,1.3c1.6,3.7,2.5,7.6,2.6,11.7c0,0.1,0,0.3,0.1,0.4c-4,0.8-8.1,1.7-12.1,2.4
			c0-0.2,0-0.5-0.1-0.8c-1.3-5.3-2.1-10.7-2.3-16.1c-0.1-3.2-5.1-3.2-5,0c0.3,5.9,1.1,11.7,2.5,17.5c0,0.1,0.1,0.2,0.1,0.4
			c-4.9,0.9-9.8,1.8-14.7,2.6c0-0.2,0-0.5,0-0.8c-0.8-5.6-1.6-11.2-2.4-16.8c-0.5-3.2-5.3-1.8-4.8,1.3c0.8,5.6,1.6,11.2,2.4,16.8
			c0,0.1,0,0.1,0,0.2c-3.4,0.5-6.9,1.1-10.3,1.5c0-0.1,0-0.2,0-0.3c-1.3-5.3-2.3-10.7-3-16.2c-0.4-3.1-5.4-3.2-5,0
			c0.8,5.8,1.8,11.5,3.1,17.2c-3.7,0.5-7.4,1-11.1,1.4c-3.2,0.4-3.2,5.4,0,5c36.5-4.2,72.5-11.3,107.8-21.1c0.3,0,0.5-0.1,0.7-0.2
			c4-1.1,7.9-2.2,11.8-3.4C353.3,362.6,352,357.8,348.9,358.7z" style="fill:#FFFFFF;"/>
		<path d="M265.8,414.2c-1-3.1-5.8-1.8-4.8,1.3c1,3.3,1.7,6.6,2.1,10c0.3,3.2,5.3,3.2,5,0
			C267.7,421.6,267,417.9,265.8,414.2z" style="fill:#FFFFFF;"/>
		<path d="M256.7,439.8c-0.9-3.2-1.8-6.4-2.7-9.7c-0.9-3.1-5.7-1.8-4.8,1.3c0.9,3.2,1.8,6.4,2.7,9.7
			C252.8,444.2,257.6,442.9,256.7,439.8z" style="fill:#FFFFFF;"/>
		<path d="M273.4,444.9c-0.2-1.3-1-2.5-2.5-2.5c-1.2,0-2.7,1.2-2.5,2.5c0.3,2.3,0.6,4.7,0.9,7c0.2,1.3,1,2.5,2.5,2.5
			c1.2,0,2.7-1.2,2.5-2.5C274,449.6,273.7,447.2,273.4,444.9z" style="fill:#FFFFFF;"/>
	</g>
	<path d="M246.6,191.5c-1.1-0.6-2.8-0.3-3.4,0.9c-0.9,1.7-1.7,3.4-2.6,5.1c-0.6,1.2-0.3,2.7,0.9,3.4
		c1.1,0.6,2.8,0.3,3.4-0.9c0.9-1.7,1.7-3.4,2.6-5.1C248.1,193.8,247.8,192.3,246.6,191.5z" style="fill:#FFFFFF;"/>
	<path d="M229.2,202.9c-1-0.9-2.6-1-3.5,0c-0.8,0.9-1.7,1.7-2.5,2.6c-0.9,0.9-1,2.6,0,3.5c1,0.9,2.6,1,3.5,0
		c0.8-0.9,1.7-1.7,2.5-2.6C230.2,205.5,230.2,203.9,229.2,202.9z" style="fill:#FFFFFF;"/>
	<path d="M246.6,222.1c-1.3-0.7-2.6-0.2-3.4,0.9c-0.8,1.1-1.7,2.3-2.5,3.4c-0.8,1.1-0.2,2.8,0.9,3.4
		c1.3,0.7,2.6,0.2,3.4-0.9l2.5-3.4C248.3,224.5,247.7,222.7,246.6,222.1z" style="fill:#FFFFFF;"/>
	<path d="M260.7,197.1v5.9c0,3.2,5,3.2,5,0v-5.9C265.7,193.9,260.7,193.9,260.7,197.1z" style="fill:#FFFFFF;"/>
</g>
</svg>
