<?xml version="1.0" encoding="utf-8"?>
<!-- Generator: Adobe Illustrator 20.1.0, SVG Export Plug-In . SVG Version: 6.00 Build 0)  -->
<svg version="1.1" id="Capa_1" xmlns="http://www.w3.org/2000/svg" xmlns:xlink="http://www.w3.org/1999/xlink" x="0px" y="0px" viewBox="0 0 800 600" style="enable-background:new 0 0 800 600;" xml:space="preserve">

<g>
	<path d="M493.3,421c0-5.2-0.2-10.4-0.5-15.5c-0.3-4.5-0.1-9.6-1.7-13.9c-3.2-8.8-13.4-6.3-20.8-6
		c-26.5,1.3-53,2.7-79.5,4.2c-1.9,0.1-2.6,1.9-2.3,3.3c-0.3,0.4-0.4,0.9-0.3,1.5c1.5,11.8,3,23.6,4.5,35.5
		c0.9,7.5,0.8,17.4,5.9,23.5c5.6,6.7,14.9,3.7,22.3,2.6c11.5-1.7,23-3.4,34.6-5.2c5.6-0.8,11.2-1.7,16.8-2.5
		c2.6-0.4,5.3-0.8,7.9-1.2c2.8-0.4,6.6-0.4,9.3-1.5c3.4-1.4,3.5-4.2,3.7-7.5C493.4,432.6,493.4,426.8,493.3,421z" style="fill:#4A3B2A;"/>
	<path d="M522.1,179.1c-7.9-23.2-35-29.3-56.5-25.4c-15,2.7-29.7,8.8-43.4,15.3c-14.3,6.8-28,14.9-40.9,24.2
		c-0.6,0.4-1,0.9-1.2,1.5c-34.3,12.1-64.1,35.7-83.6,66.5c-23.1,36.4-29,80.3-27.2,122.7c1.1,25.1,4.8,49.9,9.1,74.6
		c0.2,1.1,1.4,2.2,2.4,2.4c12.1,3,24.3,3.4,36.6,1.5c1.9-0.3,2.9-2.6,2.4-4.3c-2.1-8-10.2-6.8-15.4-11.4c-3.9-3.4-0.1-13.4,0.7-17.9
		c1.2-6.5,2.5-13,3.7-19.5c3.1-16.3,6.2-32.5,9.3-48.8c4.3,35.6,9.6,71.1,15.8,106.5c0.3,1.6,1.9,2.4,3.4,2.6
		c12.2,1.2,24.4,0.3,36.4-2.7c1.7-0.4,3.1-2.6,2.4-4.3c-1.5-4.2-4.6-6.3-8.7-7.8c-5.2-1.8-11.3-1.8-11.9-8.6
		c-1.3-17.1-0.8-34.5-1.2-51.6c-0.4-16.4-1.1-32.8-1.1-49.2c0-11.2,1-23.7,8.7-32.2c1.7,10.4,3.9,20.8,6.5,31.1
		c5.8,22.5,12.7,47.4,29.3,64.6c1.7,1.8,5.3,1.1,5.8-1.5c0.2-1.2,0.4-2.4,0.5-3.6c2,2.4,6,1,6.2-2.2c0.1-1.2,0.1-2.5,0.1-3.7
		c0.5,0.6,0.9,1.2,1.4,1.7c2.5,2.9,6.3-0.3,5.8-3.4c-0.2-1.5-0.5-2.9-0.7-4.4c1.8,1.2,3.7,2.3,5.8,3.1c2.9,1.2,5.4-2.7,4-5.1
		c-17.6-28.8-27.6-61.5-29.2-95.1c5.6-1.4,11.3-2.8,16.9-4.1c6.7,33.8,16.9,66.8,30.4,98.5c1.3,3.1,5.5,1.6,6.4-0.8
		c0-0.1,0.1-0.2,0.1-0.3c0.6,1.1,1.3,2.3,1.9,3.4c1.4,2.5,5.5,2,6.4-0.5c0.4,0.4,0.8,0.8,1.2,1.2c2.3,2.3,5.6,0.4,6-2.5
		c0-0.1,0-0.3,0-0.4c2.7,2.8,5.9,4.5,9.3,3.6c4.1-1,5.1-5.4,3.9-8.9c-1.8-5.5-5.7-10.8-8.2-16c-11.2-23.2-18.4-48.4-21.4-74.1
		c2,0.4,4,0.5,6,0.3c11.3-1.2,19.3-10.7,24.4-20.1c3.1-5.6,5.5-11.6,7.4-17.7c1.9-6.4,2.1-13.9,5.3-19.9c2.7-5.2,8.2-8.3,12.5-12
		c4.4-3.9,8.3-8.5,11.3-13.6C523.1,201.5,525.7,189.8,522.1,179.1z" style="fill:#F4BFAB;"/>
	<path d="M531.7,175.7c5.2-4.7,8.3-12.5,4.8-19c-3.9-7.3-12.9-4.4-19.6-0.6c1.5-7.7,1.1-17.6-6.4-20.2
		c-5.2-1.7-8.9,1.9-11.4,7c-0.3-1.8-0.7-3.6-1.2-5.4c-1.3-4.8-3.9-11.7-10.1-10.9c-5.2,0.7-8.8,6.4-10.2,11c-0.9,2.9-1,5.8-0.6,8.7
		c-4.2-0.7-9-1.2-12.4,1.4c-3.4,2.6-3.1,7.1-0.5,10.1c1.5,1.7,3.3,3.1,5.2,4.1c-3.1,1.1-6.2,2.4-9.2,3.9c-3.6,1.8-9.1,4.5-7.6,9.5
		c1.4,4.6,7.5,4.9,11.4,5.1c4.2,0.3,8.4-0.1,12.5-1c-4.1,5.9-7.4,13.6-3.2,18.5c4.5,5.2,10.8,1.3,15.9-3.6c-1.1,4-2.2,8.1-3.2,12.1
		c-0.9,3.6-1.6,8.8,1.9,11.4c5.1,3.7,9.8-2,13.2-8.6c0.6,7.2,2.7,14.4,8.9,16.9c4.7,1.9,7.1-2.2,8.2-6c0.4-1.4,0.7-2.7,0.9-4.1
		c3,3.9,6.7,6.5,10.4,4.1c3.7-2.4,3.1-8,2.6-11.6c-0.5-3.5-1.6-6.8-3.2-9.9c5.9,0.6,12.2-0.7,13.5-7.6
		C543.8,183.1,537.9,178.5,531.7,175.7z" style="fill:#4A3B2A;"/>
	<path d="M363,311.2c-18.2-20.9-37.6-40.8-58.2-59.5c-1-0.9-2.1-0.8-3-0.3c-0.6,0-1.2,0.2-1.8,0.8
		c-22.2,27-36.8,59.8-41.6,94.5c-0.9,6.5-2.9,15.2,2.9,20c5.6,4.6,15.7,4.2,22.5,5.1c5.3,0.7,10.5,1.4,15.8,2.1
		c4.9,0.7,10.3,2,15.3,2c3.6,0,5.6-2.4,6.8-5.4c1.2,1.2,2.6,2.1,4.1,2.8c4.2,1.7,9,1.1,13.3,0.1c5.3-1.2,11.2-2.4,16.3-4.4
		c8.6-3.5,4.2-14.8,2.9-21.6c-2.1-11-3.8-23.8,4.6-32.7C363.9,313.7,363.9,312.2,363,311.2z" style="fill:#4A3B2A;"/>
	<path d="M454.2,198.3c-2.4,2.3-6.9,5.2-8.4,0.2c-1.1-3.8,3.1-6.2,6.2-6.7c3.2-0.5,1.8-5.3-1.3-4.8
		c-6.5,1-12.2,7.5-9.2,14.1c1.2,2.8,3.9,5.1,7,5.3c3.7,0.3,6.7-2.2,9.2-4.6C460.1,199.6,456.6,196,454.2,198.3z" style="fill:#4A3B2A;"/>
	<path d="M427.3,183.4c-4.1-3.9-11.4-5.2-15.6-0.6c-3.4,3.9-2.9,10.7,1.8,13.2c2.8,1.5,5.4-2.8,2.5-4.3
		c-2-1.1-2.1-4.2-0.5-5.7c2.3-2.2,6.1-0.9,8.1,0.9C426.1,189.1,429.6,185.6,427.3,183.4z" style="fill:#4A3B2A;"/>
	<path d="M449.5,242.3c-0.7,2.6-0.9,5.3-0.6,8c0.2,1.3,1,2.5,2.5,2.5c1.2,0,2.7-1.2,2.5-2.5c-0.3-2.3-0.2-4.5,0.4-6.7
		C455.1,240.5,450.3,239.2,449.5,242.3z" style="fill:#4A3B2A;"/>
	<path d="M466,244.2c-0.1-1.3-1-2.5-2.5-2.5c-1.2,0-2.6,1.1-2.5,2.5c0.3,2.5,0.2,4.9-0.3,7.3c-0.7,3.1,4.1,4.5,4.8,1.3
		C466.1,250,466.3,247.1,466,244.2z" style="fill:#4A3B2A;"/>
	<path d="M478.9,236.9c-0.2-1.3-1-2.5-2.5-2.5c-1.2,0-2.7,1.2-2.5,2.5c0.4,2.8,0,5.3-1.1,7.9c-0.5,1.3,0.6,2.7,1.7,3.1
		c1.4,0.4,2.6-0.5,3.1-1.7C478.8,243.2,479.3,240,478.9,236.9z" style="fill:#4A3B2A;"/>
	<path d="M468.3,262.7c-1-0.6-2.9-0.4-3.4,0.9c-1.1,2.5-2.1,5-3.2,7.5c-0.5,1.2-0.4,2.7,0.9,3.4c1,0.6,2.9,0.4,3.4-0.9
		c1.1-2.5,2.1-5,3.2-7.5C469.7,264.9,469.6,263.5,468.3,262.7z" style="fill:#4A3B2A;"/>
	<path d="M448.8,269.3v4.9c0,3.2,5,3.2,5,0v-4.9C453.8,266,448.8,266,448.8,269.3z" style="fill:#4A3B2A;"/>
	<path d="M467.7,340c-3.7-13.7-7.5-27.4-11.5-41.1c-0.2-0.6-0.5-1-0.9-1.3c-0.5-1.5-1.6-2.8-2.9-3.5
		c-0.1,0-0.2-0.1-0.3-0.1c-0.2-0.2-0.5-0.3-0.9-0.4c-1.7-0.4-3.3-1-4.8-1.6c-5.6-3.3-10.9-7.3-13.6-13.3c-0.8-1.7-1.4-3.6-2-5.4
		c-1.3-4.9-1.9-9.9-1.8-15c0-3.7,1.2-7.4-1.3-10.5c-2.9-3.6-6.9-6.8-10.5-10c-11.5-16.4-19.6-34.6-23.6-54.4
		c-0.3-1.2-1.9-2.2-3.1-1.7c-39.7,15.1-69.9,45.7-98.9,75.5c-1.5,1.6-0.3,3.8,1.3,4.2c16.3,18.7,35.2,35,56.3,48.1
		c2.4,1.5,4.9,2.9,7.4,4.4c0.5,0.3,0.9,0.6,1.3,0.8c3.3,23.4,10.2,46,20.5,67.3c0.5,1,1.8,1.5,2.8,1.1c2.4-0.7,4.8-1.6,7.2-2.4
		c6.6-1,12.8-3.7,18.8-7c2.8-1.5,6.8-3.1,8.6-5.9c1.9-3,0.8-6.5,0.1-9.7c-4.4-20.1-8.8-40.2-13.2-60.2c4.2-0.8,8.4-1.5,12.7-2.3
		c1.5,9.8,3.2,19.6,5,29.4c1.9,10,3.3,20.5,6.5,30.2c2.2,6.8,7.1,11.3,14.2,12.4c7.5,1.2,14.6-1.8,21.2-5.1
		C474.3,362.8,469.5,346.7,467.7,340z" style="fill:#ED7354;"/>
	<path d="M306.3,442c0.4-1.6-0.7-3.1-2.4-3.2c-9-0.4-18-0.3-27,0.3c-1.4,0.1-2.4,1.1-2.5,2.5c-0.4,5.5-0.3,11,0.5,16.5
		c0.1,1.1,0.8,1.7,1.6,2.1c0.3,0.5,0.6,1,1.1,1.4c1,0.9,2.2,1.4,3.5,1.5c7.8,2.8,17.6,2.1,25.6,1.2c4.3-0.5,9.2-0.7,13.3-2
		c1.9-0.6,3.5-1.3,3.9-3.5C325.2,449.4,304.4,450.6,306.3,442z" style="fill:#ED7354;"/>
	<path d="M375.9,455.6c-2-1.5-4.4-2.6-6.8-3.5c-1.6-0.6-3.3-1.1-4.9-1.8c-1.9-0.9-2.7-2.1-3.5-3.9c-2-4.4-4.1-4-9-3.5
		c-7.2,0.8-14.3,2-21.3,3.7c-1.1,0.3-1.8,1.3-1.8,2.4c0,5.5-0.3,14.8,3,19.5c0.1,0.1,0.2,0.2,0.3,0.3c0.3,0.6,0.6,1.2,0.9,1.8
		c2.5,3.7,9.6,2.9,13.5,3c6.6,0.2,13.3-0.4,19.8-1.6c4.2-0.8,10.8-1.4,13.1-5.8C381.3,462.2,379,458,375.9,455.6z" style="fill:#ED7354;"/>
	<path d="M495.2,319c4.6,7.4,10.5,13.5,17.7,18.4c0.9,0.6,2.3,0.6,3.1-0.2l21.7-21.2c1.3-1.2,1.1-3.6-0.8-4.3
		c-3.2-1-6.5-1.7-9.8-2.1c0.5-8.2,0.4-16.4-0.3-24.6c-0.2-3-0.1-6.5-2.9-8.2c-2.2-1.3-5.6-0.9-8.1-0.7c-5.5,0.5-10.6,2.9-11.7,8.8
		c-0.8,4.1,0.1,8.9,0.3,13.1c0.2,4.5,0.4,9.1,0.6,13.6c-2.8,1.3-5.7,2.6-8.5,3.8C495.2,316.2,494.4,317.9,495.2,319z" style="fill:#ED7354;"/>
	<path d="M409.8,312.7c-4-11.6-7.2-23.4-9.6-35.4c-0.6-3.2-5.4-1.8-4.8,1.3c2.3,12,5.5,23.8,9.6,35.4
		C406,317,410.8,315.7,409.8,312.7z" style="fill:#FFFFFF;"/>
	<path d="M367.2,340c-5-16.6-8.5-33.6-10.3-50.8c-0.3-3.2-5.3-3.2-5,0c1.8,17.7,5.3,35.1,10.4,52.2
		C363.3,344.4,368.2,343.1,367.2,340z" style="fill:#FFFFFF;"/>
	<path d="M470.3,343.5c-13.1,6.2-27.3,9.3-41.8,9.3c-3.2,0-3.2,5,0,5c15.4,0,30.4-3.4,44.4-10
		C475.7,346.5,473.2,342.2,470.3,343.5z" style="fill:#FFFFFF;"/>
	<path d="M412.6,355.8c-11.9,7.1-24.9,11.7-38.6,13.7c-3.2,0.5-1.8,5.3,1.3,4.8c14.1-2.1,27.5-6.9,39.8-14.2
		C417.9,358.5,415.4,354.2,412.6,355.8z" style="fill:#FFFFFF;"/>
	<path d="M424.8,253.4c-20.9-18.1-35.5-42.3-41.8-69.3c-0.7-3.1-5.6-1.8-4.8,1.3c6.5,27.7,21.6,52.9,43.1,71.5
		C423.7,259,427.3,255.5,424.8,253.4z" style="fill:#FFFFFF;"/>
	<path d="M493.9,173.9c-1.3-0.7-2.6-0.3-3.4,0.9c-0.5,0.8-1.1,1.6-1.6,2.4c-0.7,1.1-0.2,2.8,0.9,3.4
		c1.3,0.7,2.6,0.3,3.4-0.9l1.6-2.4C495.6,176.2,495.1,174.5,493.9,173.9z" style="fill:#FFFFFF;"/>
	<path d="M487.7,159.3c-1.1-0.3-2.1-0.5-3.2-0.8c-1.3-0.3-2.8,0.4-3.1,1.7c-0.3,1.3,0.4,2.7,1.7,3.1
		c1.1,0.3,2.1,0.5,3.2,0.8c1.3,0.3,2.8-0.4,3.1-1.7C489.7,161.1,489,159.6,487.7,159.3z" style="fill:#FFFFFF;"/>
	<path d="M478,169.7c-1.6-0.3-3.2-0.6-4.8-0.8c-1.3-0.2-2.7,0.4-3.1,1.7c-0.3,1.2,0.4,2.8,1.7,3.1
		c1.6,0.3,3.2,0.6,4.8,0.8c1.3,0.2,2.7-0.4,3.1-1.7C480.1,171.6,479.4,170,478,169.7z" style="fill:#FFFFFF;"/>
	<path d="M318.8,338.9c-0.8,11.8-1.6,23.5-2.4,35.3c-0.2,3.2,4.8,3.2,5,0c0.8-11.8,1.6-23.5,2.4-35.3
		C324,335.7,319,335.7,318.8,338.9z" style="fill:#FFFFFF;"/>
	<path d="M307,441.3c-0.7-1-2.3-1.7-3.4-0.9c-1.1,0.8-2.1,1.6-3.2,2.4c-1,0.8-1.7,2.2-0.9,3.4c0.7,1,2.3,1.7,3.4,0.9
		c1.1-0.8,2.1-1.6,3.2-2.4C307.1,443.9,307.8,442.5,307,441.3z" style="fill:#4A3B2A;"/>
	<path d="M313.3,445.1c-1.2-0.7-2.7-0.3-3.4,0.9c-0.5,0.8-0.7,1.1-1.3,1.8c-0.5,0.6-1.2,1.2-1.6,1.5
		c-1.1,0.8-1.6,2.2-0.9,3.4c0.6,1.1,2.3,1.7,3.4,0.9c1.9-1.4,3.5-3.1,4.8-5.1C314.9,447.4,314.4,445.8,313.3,445.1z" style="fill:#4A3B2A;"/>
	<path d="M362.2,443.5c-1.3-0.7-2.6-0.2-3.4,0.9c-0.1,0.1-0.1,0.1-0.1,0.1c0,0,0,0,0,0c-0.1,0.1-0.2,0.3-0.3,0.4
		c-0.3,0.3-0.6,0.6-0.9,0.9c0,0,0,0-0.1,0.1c0,0,0,0,0,0c-0.2,0.1-0.3,0.2-0.5,0.3c-0.4,0.2-0.7,0.4-1.1,0.6
		c-1.2,0.6-1.6,2.4-0.9,3.4c0.8,1.2,2.2,1.5,3.4,0.9c2-0.9,3.6-2.4,4.8-4.2C363.9,445.9,363.4,444.1,362.2,443.5z" style="fill:#4A3B2A;"/>
	<path d="M368.4,448c-0.9-0.9-2.6-1-3.5,0c-1.3,1.4-2.6,2.7-3.9,4.1c-0.9,1-1,2.6,0,3.5c0.9,0.9,2.6,1,3.5,0
		c1.3-1.4,2.6-2.7,3.9-4.1C369.3,450.5,369.4,449,368.4,448z" style="fill:#4A3B2A;"/>
	<path d="M284,445.6c-1.4,0.1-2.5,1.1-2.5,2.5v3.2c0,1.3,1.1,2.6,2.5,2.5c1.4-0.1,2.5-1.1,2.5-2.5v-3.2
		C286.5,446.8,285.3,445.6,284,445.6z" style="fill:#FFFFFF;"/>
	<path d="M343.3,452.1c-1.4,0.1-2.5,1.1-2.5,2.5v3.2c0,1.3,1.1,2.6,2.5,2.5c1.4-0.1,2.5-1.1,2.5-2.5v-3.2
		C345.8,453.2,344.7,452,343.3,452.1z" style="fill:#FFFFFF;"/>
	<path d="M278.2,339c-1.4-0.4-2.6,0.5-3.1,1.7c-0.6,1.8-1.2,3.7-1.8,5.5c-0.4,1.3,0.5,2.7,1.7,3.1
		c1.4,0.4,2.6-0.5,3.1-1.7c0.6-1.8,1.2-3.7,1.8-5.5C280.4,340.8,279.5,339.3,278.2,339z" style="fill:#FFFFFF;"/>
	<path d="M279.3,314.4c-1.1,1.9-2.2,3.7-3.2,5.6c-1.6,2.8,2.7,5.3,4.3,2.5c1.1-1.9,2.2-3.7,3.2-5.6
		C285.3,314.1,281,311.6,279.3,314.4z" style="fill:#FFFFFF;"/>
	<path d="M289.7,319.1c-1.6,2.4-2.7,5.1-3.2,7.9c-0.2,1.3,0.4,2.7,1.7,3.1c1.2,0.3,2.8-0.4,3.1-1.7
		c0.4-2.5,1.3-4.7,2.7-6.7C295.8,319,291.5,316.5,289.7,319.1z" style="fill:#FFFFFF;"/>
	<path d="M316.7,255.3c-1.9,1.9-3.8,3.7-5.7,5.6c-2.3,2.3,1.2,5.8,3.5,3.5c1.9-1.9,3.8-3.7,5.7-5.6
		C322.5,256.6,319,253,316.7,255.3z" style="fill:#FFFFFF;"/>
	<path d="M340.7,230.9c-0.7-1.2-2.3-1.6-3.4-0.9c-1.3,0.8-2.7,1.6-4,2.4c-1.2,0.7-1.6,2.2-0.9,3.4
		c0.7,1.2,2.3,1.6,3.4,0.9c1.3-0.8,2.7-1.6,4-2.4C340.9,233.6,341.4,232.1,340.7,230.9z" style="fill:#FFFFFF;"/>
	<path d="M345.6,241c-1.4-0.3-2.6,0.4-3.1,1.7c0,0.1,0,0.1-0.1,0.2c0,0,0,0.1-0.1,0.1c-0.1,0.1-0.2,0.3-0.2,0.4
		c0,0-0.2,0.3-0.3,0.4c-0.1,0.1-0.2,0.2-0.3,0.4c-0.1,0.1-0.3,0.3-0.4,0.4c-0.1,0-0.1,0.1-0.1,0.1c0,0,0,0-0.1,0
		c-0.4,0.2-0.8,0.5-1.2,0.6c-1.2,0.5-1.5,2.3-0.9,3.4c0.7,1.3,2.2,1.4,3.4,0.9c2.4-1.1,4.1-3.2,5.1-5.6
		C347.8,242.9,346.8,241.3,345.6,241z" style="fill:#FFFFFF;"/>
	<path d="M324.9,240.4c-0.3-1.2-1.8-2.2-3.1-1.7c-1.6,0.6-3.2,1.2-4.8,1.8c-1.3,0.5-2.1,1.7-1.7,3.1
		c0.3,1.2,1.8,2.2,3.1,1.7c1.6-0.6,3.2-1.2,4.8-1.8C324.4,243,325.3,241.8,324.9,240.4z" style="fill:#FFFFFF;"/>
	<path d="M484.7,390.1c-17.3,4.6-35.1,6.4-53.1,5.3c-3.2-0.2-3.2,4.8,0,5c2.4,0.1,4.7,0.2,7.1,0.3
		c1.9,15.6,3.9,31.1,5.8,46.7c0.4,3.2,5.4,3.2,5,0c-1.9-15.6-3.9-31.1-5.8-46.7c14.3-0.1,28.4-2.1,42.3-5.8
		C489.1,394.1,487.8,389.2,484.7,390.1z" style="fill:#FFFFFF;"/>
</g>
</svg>
