<?xml version="1.0" encoding="utf-8"?>
<!-- Generator: Adobe Illustrator 20.1.0, SVG Export Plug-In . SVG Version: 6.00 Build 0)  -->
<svg version="1.1" id="Capa_1" xmlns="http://www.w3.org/2000/svg" xmlns:xlink="http://www.w3.org/1999/xlink" x="0px" y="0px" viewBox="0 0 800 600" style="enable-background:new 0 0 800 600;" xml:space="preserve">

<g>
	<path d="M495.7,363c-6.7-13.3-23.7-11.6-34.7-11.7c-35-0.2-70.1,5.8-104.5,12.6c-13.5,2.7-28.2,7.9-34.3,24.2
		c-7,18.7,0,38.9,6.5,56.2c0.3,0.8,0.7,1.2,1.2,1.4c0.2,0.4,0.5,0.8,0.8,1.1c12.5,10,28.8,9.5,43.3,10.6c17.9,1.3,35.7,1.9,53.6,2
		c16,0,32.5,0.6,48.1-4c5.7-1.7,13.8-3.9,17.2-10.3c3.8-7.1,3.8-18.6,4.5-26.8c1-10.4,1.4-20.9,1.3-31.4
		C498.9,379.2,499.2,370,495.7,363z" style="fill:#4A3B2A;"/>
	<path d="M478.2,238.3c-0.8-10-11.5-13.4-18.6-8.8c-2.5-20.1-5-40.3-7.5-60.4c-0.2-1.4-1-2.5-2.5-2.5l-39.3-0.4
		c-12.2-0.1-24.5-0.9-36.6,0.2c-16.1,1.5-34.5,9.8-37.6,26.8c-1.2,0.1-2.3,0.8-2.1,2.4c1.2,12.3,1.6,24.6,1.3,36.9
		c-5.7-3-13.4-2-17.1,3.9c-4.9,7.8,1.9,18,10.4,18.8c3.6,33,8.2,65.9,13.8,98.7c1.4,8.4,3,16.8,4.5,25.2c0.8,4.2,1.6,8.4,2.4,12.6
		c0.6,3,0.9,6.4,2.6,9c3.7,5.3,12.1,3.4,17.5,3.2c8.6-0.3,17.2-0.7,25.8-1c17.2-0.7,34.4-1.4,51.6-2.1c4.3-0.2,8.6-0.3,12.9-0.5
		c2.8-0.1,5.9,0.1,8.5-1.2c5.6-2.6,5.1-10.3,5.3-15.5c0.9-16.9-0.6-33.8-1.7-50.6c-1.1-17.4-2.3-34.9-3.4-52.3
		c-0.3-4.6-0.6-9.2-0.9-13.8c-0.3-5.3-1.8-11.1,2.4-15.1C474.2,247.7,478.7,245.2,478.2,238.3z" style="fill:#F4BFAB;"/>
	<path d="M477,182c4.3-0.5,6.9-4.2,6.3-8.4c-0.9-5.4-5.9-10-9.6-13.7c-3.1-3-6.4-5.7-9.9-8.2c3-0.5,5.8-1.7,7.9-4.2
		c3.2-3.8,3.1-9-0.5-12.4c-4.2-4-11.4-5.9-16.9-7c-3.8-0.7-7.6-1-11.4-0.8c1.6-4.4,0.5-10-3.3-13.2c-8.2-6.8-20.8-4.1-30.2,0.6
		c1.9-8.5,1.6-19.7-8.7-18.3c-8.8,1.2-16.8,7.8-21.9,15.4c-1.7-7.6-5.4-14.8-14.5-10.1c-7,3.6-9.9,11.7-10.2,19.3
		c-7.1-4.3-16.4-7.4-22.7-0.2c-5.1,5.9-2.4,12.8,1.7,18.5c-8-1.4-16.6-0.8-21.2,6.8c-2.5,4.1-2,9.4,0.7,13
		c-8.3,1.7-16.4,5.7-16.2,15.5c0.2,8.8,9.3,12.5,17.9,13.6c-6.4,4.3-12.6,10.4-9.5,17.1c2.7,5.9,7.7,6.9,12.8,5.9
		c-1.1,1.9-1.8,4-1.9,6.3c-0.2,5,3.2,10.9,8.4,11.9c6.3,1.2,10.5-5,13.8-9.4c1.1-1.5,2.2-3.1,3.2-4.7c1.1,2.8,2.9,5.3,5.2,7.6
		c1.2,1.1,3.1,0.9,3.9-0.5c2.3-3.8,4.1-7.8,5.5-11.9c1.7,4,4.5,8.8,8.4,9.9c5.2,1.4,7.7-4.3,9.5-8.1c1.1-2.3,2-4.7,2.6-7.1
		c3.1,6.7,8.5,12.7,15.7,13.3c5.2,0.4,8.4-3.6,11.2-7.4c2.1-2.9,3.8-6,5.2-9.3c0.7,1.9,1.5,3.7,2.6,5.5c2.1,3.5,6.1,9.2,10.7,9.5
		c5,0.3,7.6-5.8,9.4-9.5c1.1-2.3,1.9-4.7,2.6-7.1c3.6,7.6,9.6,14.9,17.1,17.2c8.3,2.5,8.6-7.1,7.5-15.5c1.2,1,2.5,1.9,3.9,2.6
		c3.9,2,10.4,4,14.3,1.1c4.5-3.4,1.5-10.3-0.1-14.4c-1.3-3.2-2.7-6.4-4.4-9.4C473.5,181.9,475.1,182.2,477,182z" style="fill:#4A3B2A;"/>
	<path d="M503.5,493.5c-13.1-49.4-20.9-99.9-23.3-150.8c-0.1-1.7-1.6-2.7-3.4-2.4c-42.2,7-85.2,9.6-128,7.7
		c-6-0.3-15.6-2.3-17.3,5.1c-0.9,3.9-0.1,8.4,0,12.3c0.1,3.3,0.3,6.6,0.5,9.8c-1.7,33.5-1.7,67,0,100.5c0.2,4.3,0.5,8.5,0.7,12.8
		c0.2,3-0.1,6.3,0.9,9.2c1.9,5.5,7.9,5.7,13.4,5.9c6.7,0.3,13.4,0,20.1-0.7c45,2.1,90.1-0.1,134.6-6.4
		C503.1,496.4,503.8,494.7,503.5,493.5z" style="fill:#ED7354;"/>
	<path d="M371,446.7c-5.2-1.6-10.4-2.9-15.6-3.9c3-1.6,5.9-3.2,8.7-5c2.8-1.9,4.3-3.9,3.7-7.3c-0.2-1-1.4-1.9-2.4-1.8
		c-6,0.6-12,1.2-18,1.9c2.5-2.6,5-5.2,7.5-7.8c2.2-2.3,5-5,4.5-8.4c-1.4-9.4-12.4-2.3-16.2,0.4c-13.1,9.4-27.1,24.7-18.5,41.9
		c0.2,0.4,0.4,0.7,0.7,0.9c0.9,2.1,2.3,3.9,4.2,5.3c3.2,2.4,7.3,2.9,11.1,3.6c4.6,0.9,9.2,1.8,13.9,2.4c4.6,0.6,15.1,1,16.5-5.3
		c0.5-2.3-0.8-3.7-2.6-4.8c-2-1.2-4.1-2.1-6.4-3c3.3-0.9,6.5-2.3,9.4-4.5C373.2,450,373.2,447.4,371,446.7z" style="fill:#F4BFAB;"/>
	<path d="M454,451.3c2.9,2.2,6.1,3.6,9.4,4.5c-2.2,0.9-4.4,1.9-6.4,3c-1.8,1.1-3.1,2.5-2.6,4.8
		c1.4,6.3,11.9,5.9,16.5,5.3s9.3-1.5,13.9-2.4c3.8-0.8,7.9-1.3,11.1-3.6c1.9-1.4,3.3-3.3,4.2-5.3c0.3-0.2,0.5-0.5,0.7-0.9
		c8.5-17.1-5.4-32.4-18.5-41.9c-3.8-2.8-14.8-9.9-16.2-0.4c-0.5,3.4,2.4,6.2,4.5,8.4c2.5,2.6,5,5.2,7.5,7.8c-6-0.6-12-1.2-18-1.9
		c-1-0.1-2.2,0.9-2.4,1.8c-0.6,3.4,0.9,5.4,3.7,7.3c2.8,1.8,5.7,3.4,8.7,5c-5.3,1-10.5,2.3-15.6,3.9
		C452.4,447.4,452.4,450,454,451.3z" style="fill:#F4BFAB;"/>
	<path d="M441.2,298.9c-2.4-22-8-43.7-15.7-64.5c-1.1-3-6-1.7-4.8,1.3c5.7,15.3,10.2,31,13.1,47
		c2.8,15.3,6.3,33.6-2.3,47.7c-8.4,13.8-26.1,15.1-38.7,6.2c-13-9.2-18.7-25.8-19.9-41.1c-1.3-18,2.7-35.8,6.7-53.2
		c0.7-3.1-4.1-4.5-4.8-1.3c-7.2,31.1-15.8,74,12.6,97.7c11.1,9.3,28.2,12.4,40.4,3.3C441.1,332.1,442.8,314.3,441.2,298.9z" style="fill:#4A3B2A;"/>
	<path d="M472.5,238.8c0.9-1,1-2.6,0-3.5c-0.9-0.9-2.6-1-3.5,0l-2.4,2.5c-1.3-2-5.1-0.7-4.5,2.2
		c0.5,2.2,0.9,4.3,1.4,6.5c0.7,3.1,5.5,1.8,4.8-1.3c-0.1-0.5-0.2-1-0.3-1.5c0.1-0.1,0.2-0.1,0.2-0.2
		C469.6,241.8,471,240.3,472.5,238.8z" style="fill:#4A3B2A;"/>
	<path d="M330.4,239.7c-0.2,0.8-0.5,1.6-0.8,2.3c-1-0.7-2.1-1.3-3.1-2c-1.1-0.7-2.8-0.2-3.4,0.9
		c-0.7,1.2-0.2,2.7,0.9,3.4l2.9,1.8c-1.5,2.3,1.7,5.4,3.8,3.1c2.2-2.3,3.8-5.2,4.6-8.3C336.1,237.9,331.2,236.6,330.4,239.7z" style="fill:#4A3B2A;"/>
	<path d="M355.8,247.5c-0.1,2.3-0.3,8.4-4,8.1c-3.2-0.2-2.9-7.2-2.5-9.3c0.5-3.1-4.3-4.5-4.8-1.3
		c-0.8,5.2-0.4,15,6.7,15.6c7.4,0.6,9.4-7.3,9.7-13.1C360.9,244.3,355.9,244.3,355.8,247.5z" style="fill:#4A3B2A;"/>
	<path d="M452.8,242.7c-0.1-3.2-5.1-3.2-5,0c0,1.8-0.2,6.3-2.5,6.7c-2.5,0.4-3.6-3.8-4.1-5.5c-0.9-3.1-5.8-1.8-4.8,1.3
		c1.4,4.5,4,9.7,9.6,9.1C451.3,253.8,452.9,247.1,452.8,242.7z" style="fill:#4A3B2A;"/>
	<path d="M390.8,299.9c-0.5-3.4-1-6.8-1.5-10.2c-0.2-1.3-1.9-2.1-3.1-1.7c-1.4,0.4-1.9,1.7-1.7,3.1
		c0.5,3.4,1,6.8,1.5,10.2c0.2,1.3,1.9,2.1,3.1,1.7C390.5,302.6,391,301.2,390.8,299.9z" style="fill:#4A3B2A;"/>
	<path d="M389.3,316.8c-1.3-2.9-2.5-5.8-3.8-8.8c-0.5-1.2-2.3-1.5-3.4-0.9c-1.3,0.7-1.4,2.2-0.9,3.4
		c1.3,2.9,2.5,5.8,3.8,8.8c0.5,1.2,2.3,1.5,3.4,0.9C389.6,319.5,389.8,318.1,389.3,316.8z" style="fill:#4A3B2A;"/>
	<path d="M408,315.3c-1.8-2.2-3.6-4.4-5.5-6.6c-0.9-1-2.6-0.9-3.5,0c-1,1-0.9,2.5,0,3.5c1.8,2.2,3.6,4.4,5.5,6.6
		c0.9,1,2.6,0.9,3.5,0C409,317.8,408.9,316.3,408,315.3z" style="fill:#4A3B2A;"/>
	<path d="M407.2,328.5c-2.1-0.8-4.2-1.9-5.9-3.3c-1.1-0.8-2.5-1-3.5,0c-0.9,0.9-1.1,2.7,0,3.5c2.5,2,5.1,3.5,8.1,4.6
		c1.3,0.5,2.7-0.5,3.1-1.7C409.4,330.2,408.5,328.9,407.2,328.5z" style="fill:#4A3B2A;"/>
	<path d="M474.2,320.1c-6.3,1.4-12.6,1.7-19.1,1c-3.2-0.3-3.2,4.7,0,5c6.9,0.7,13.6,0.3,20.4-1.2
		C478.7,324.2,477.3,319.4,474.2,320.1z" style="fill:#4A3B2A;"/>
	<path d="M350.2,310.8c-0.6-3.2-5.4-1.8-4.8,1.3c0.5,3,0.8,6.1,0.9,9.2c0.1,3.2,5.1,3.2,5,0
		C351.2,317.8,350.9,314.3,350.2,310.8z" style="fill:#FFFFFF;"/>
	<path d="M340.9,330.7v5.6c0,3.2,5,3.2,5,0v-5.6C345.9,327.4,340.9,327.4,340.9,330.7z" style="fill:#FFFFFF;"/>
	<path d="M358.5,337c-0.7-1.7-1.2-3.5-1.4-5.4c-0.2-1.3-1-2.5-2.5-2.5c-1.2,0-2.7,1.2-2.5,2.5c0.3,2.3,0.8,4.5,1.6,6.7
		c0.5,1.3,1.7,2.1,3.1,1.7C358,339.7,359,338.3,358.5,337z" style="fill:#FFFFFF;"/>
	<path d="M370.9,369.2c-6.2,6-12.4,12-18.6,17.9c-2.3,2.2,1.2,5.8,3.5,3.5l18.6-17.9C376.8,370.5,373.2,367,370.9,369.2
		z" style="fill:#FFFFFF;"/>
	<path d="M407.7,366.5c-16,12.7-30.9,26.7-44.4,42.1c-2.1,2.4,1.4,6,3.5,3.5c13.5-15.3,28.4-29.4,44.4-42.1
		C413.7,368,410.2,364.5,407.7,366.5z" style="fill:#FFFFFF;"/>
	<path d="M448.6,186.2c-1-1.2-2-2.5-3-3.7c-0.8-1-2.7-0.9-3.5,0c-1,1.1-0.9,2.5,0,3.5c1,1.2,2,2.5,3,3.7
		c0.8,1,2.7,0.9,3.5,0C449.6,188.7,449.5,187.3,448.6,186.2z" style="fill:#FFFFFF;"/>
	<path d="M451.3,163.9c-1.8-0.1-3.3-0.8-4.7-1.8c-1.1-0.8-2.8-0.2-3.4,0.9c-0.7,1.3-0.2,2.6,0.9,3.4
		c2.1,1.5,4.6,2.3,7.2,2.5c1.3,0.1,2.5-1.2,2.5-2.5C453.8,165,452.7,164,451.3,163.9z" style="fill:#FFFFFF;"/>
	<path d="M436.6,146.4c-0.4-1.4-1.7-1.9-3.1-1.7c-2.2,0.3-4.4,0.6-6.7,0.9c-1.3,0.2-2.1,1.9-1.7,3.1
		c0.4,1.4,1.7,1.9,3.1,1.7c2.2-0.3,4.4-0.6,6.7-0.9C436.2,149.3,436.9,147.6,436.6,146.4z" style="fill:#FFFFFF;"/>
	<path d="M430.2,165.1c-1.5-0.7-3-1.5-4.5-2.2c-1.2-0.6-2.7-0.3-3.4,0.9c-0.6,1.1-0.3,2.8,0.9,3.4
		c1.5,0.7,3,1.5,4.5,2.2c1.2,0.6,2.7,0.3,3.4-0.9C431.8,167.4,431.5,165.7,430.2,165.1z" style="fill:#FFFFFF;"/>
	<g>
		<path d="M408.8,156.4C409,156.6,408.9,156.5,408.8,156.4L408.8,156.4z" style="fill:#FFFFFF;"/>
		<path d="M412.2,152.8c-1.5-1.3-3.4-1.8-5.4-1.3c-1.3,0.3-2.2,1.8-1.7,3.1c0.4,1.3,1.7,2.1,3.1,1.7h0.1h0.1l0,0l0,0
			c0.1,0,0.2,0,0.3,0.1l0,0c0,0,0.1,0,0.1,0.1c0,0,0,0-0.1-0.1l0,0c1,0.8,2.6,1,3.5,0S413.3,153.7,412.2,152.8z" style="fill:#FFFFFF;"/>
	</g>
	<path d="M422.3,175.9L422.3,175.9c-0.1,0-0.1,0-0.2,0H422l0,0c-0.1,0-0.1-0.1-0.2-0.1c-0.1-0.1-0.1-0.1-0.2-0.2
		c-0.7-1.1-2.2-1.6-3.4-0.9c-1.1,0.7-1.7,2.3-0.9,3.4c1.2,1.7,2.9,2.8,5,2.8c1.3,0,2.6-1.2,2.5-2.5C424.8,177,423.7,176,422.3,175.9
		z" style="fill:#FFFFFF;"/>
</g>
</svg>
