<?xml version="1.0" encoding="utf-8"?>
<!-- Generator: Adobe Illustrator 20.1.0, SVG Export Plug-In . SVG Version: 6.00 Build 0)  -->
<svg version="1.1" id="Capa_1" xmlns="http://www.w3.org/2000/svg" xmlns:xlink="http://www.w3.org/1999/xlink" x="0px" y="0px" viewBox="0 0 800 600" style="enable-background:new 0 0 800 600;" xml:space="preserve">

<g>
	<g>
		<g>
			<path d="M512.9,433.3c-3.5-10.5-7.2-20.9-10.9-31.3c-7.5-21.3-14.7-42.6-19.7-64.6c-5.2-22.7-8.4-45.8-10.5-68.9
				c-2-22.7-3.1-45.5-4-68.3c-0.9-20.7-1.7-41.7-7.4-61.8c-4.5-15.8-12.3-35.6-31.1-37.3c-18.6-1.7-35,13.1-47.4,25
				c-8.6,8.3-16.7,17.2-24.1,26.7c-5.7,7.3-13.3,16.4-11.8,26.5c1.2,7.9,8.1,12.9,15.7,13.7c7.5,0.8,14.2-2.3,20.3-6.4
				c1.2,8.7,2.3,17.4,3.2,26.1c-1,0.6-2,1.2-3,1.8c0.5-1.8,0.8-3.7,0.9-5.6c0.2-2.3-2.6-3.5-4.4-2.5c-9.5,5.2-16.3,14-22.4,23
				c-9.2-7.6-16.4-17.8-20.7-28.8c-10.7-27.8-4-58.8,6-85.7c0.9-2.5-2.2-4.5-4.3-3.3c-3,1.7-5.5,3.9-7.6,6.4c-0.3-1.7-0.6-3.4-1-5.2
				c-0.7-2.6-4-2.7-5.4-0.7c-1.8,2.6-3.4,5.4-5,8.1c0-0.7-0.1-1.4-0.1-2.1c-0.1-2.8-4-4.1-5.5-1.5s-2.8,5.3-3.9,8.1
				c-0.8-1.3-1.8-2.5-3-3.6c-1.5-1.3-4.5-1-4.9,1.3c-6.2,37.3-8.8,77.3,5.7,113.2c6.5,16.2,16.4,31.1,29,42.8
				c-0.2,23.7,19.1,44.1,42.2,47.1c4.4,30.5-15.4,58.3-30.3,83.1c-8.2,13.5-16.3,27-24.5,40.6c-4.2,6.9-8.2,13.9-12.5,20.8
				c-3.4,5.4-10.2,15.1-17.8,11.8c-2.3-1-4.9,0.6-4.3,3.3c2.9,12,17.2,16.3,27.9,12.4c7-2.6,12.7-7.7,17.7-13.1
				c6.8-7.3,13.2-15,19.8-22.6l79.1-90.4c12.8,21.6,25.5,43.1,38.3,64.7c3.2,5.3,6.3,10.7,9.5,16c2.9,4.9,8.5,11.4,9.3,17.1
				c1.2,8.1-9.5,12.6-5.4,21.4c0.5,1.1,2.2,1.7,3.3,1.3c7.8-2.5,16.1-5.2,22-11.3c5.3-5.6,7.6-13.1,7.7-20.7
				C518.1,450.6,515.7,441.8,512.9,433.3z" style="fill:#F4BFAB;"/>
			<path d="M523.6,465.8c-0.4-4.2-4.1-6.5-5.2-10.3c-0.4-1.4-2.1-2.6-3.6-2c-8.7,3-17,6.9-24.7,11.9
				c-1.7,1.1-1.6,3-0.8,4.3c-2.2,4.3-4.3,8.7-6.2,13.1c-1.2,2.8-3.8,6.7-3.4,9.8c1.1,8.3,13.1,1.5,16.6-0.7
				c8-5.1,17.4-10.9,23.9-17.7C522.3,471.8,523.9,469,523.6,465.8z" style="fill:#ED7354;"/>
			<path d="M329.3,480.3c-7.3-3.6-15.3-6.1-23-8.6c-1.8-0.6-3.1,0.6-3.5,2c-3.5-0.1-7-0.1-10.4-0.2
				c-3.6-0.1-7.9-0.7-11.4-0.1c-3.7,0.6-5.5,3.6-4.4,7.2c1.5,4.8,7.1,8.3,11.2,10.6c6.2,3.5,12.9,6.1,19.5,8.6
				c4.6,1.8,11.1,5.4,16,2.8c4.2-2.3,7.6-8.7,9.5-12.9C334.9,485.3,333.6,482.4,329.3,480.3z" style="fill:#ED7354;"/>
			<path d="M451.4,114.5c-7.3-9.3-18.4-18.1-30.9-18c-12.7,0.1-26.5,8.6-35.4,17.2c-2.6,2.5-6.9,7.2-3.5,10.8
				c3.2,3.4,10.2,3,15.1,2.4c-1.8,4.9-3,10-3.5,15.3c-0.2,2.1,2.7,3.9,4.4,2.5c4.2-3.2,8.1-6.7,12-10.3c0,4.5,0.7,8.9,2.2,13.3
				c0.8,2.5,3.9,2.8,5.4,0.7c3.2-4.6,6-9.4,8.7-14.3c1.7,4.9,4.1,9.5,7.1,13.8c1.1,1.6,4.1,2.2,5.1,0c1.7-3.8,2.9-7.6,3.8-11.5
				c4.4,7,10,13,18.5,15.1c1.8,0.4,3.8-0.9,3.7-2.8C463.5,136.2,459.2,124.3,451.4,114.5z" style="fill:#4A3B2A;"/>
			<path d="M518.1,443.9c-7.5-19.2-14.6-38.6-21.1-58.2c-7.4-22.5-14-45.2-19.9-68c-0.2-0.9-1.1-1.8-2-2
				c-15.9-3.3-32.3-3.5-48.3-0.6c-8.4,1.5-16.5,3.9-24.4,7.1c-3.3,1.3-6.5,2.8-9.6,4.4c-1.4,0.7-6,4.1-8.7,5.4
				c-0.9-0.7-2.4-1.2-3.4-0.4c-0.5,0.4-0.9,0.7-1.3,1.1c-0.7,0.3-1.2,0.9-1.3,1.9c-7.9,47-41.6,82.4-66.1,121.4
				c-3.4,5.3-13.9,17.1-6.1,22.6c3.5,2.4,8.6,3.3,12.6,4.7c4.6,1.6,9.8,4.4,14.6,2.4c4.1-1.6,7.1-5.8,10.1-8.8
				c4.2-4.3,8.3-8.5,12.4-12.8c8.8-9.1,17.4-18.4,26-27.7c17.9-19.5,35.3-39.4,52.3-59.7c8.5,16.8,17.6,33.3,27.2,49.4
				c5.3,8.9,10.8,17.7,16.4,26.5c3.3,5.2,7.9,16.7,15.2,17.2c3.4,0.2,6.7-1.6,9.7-2.8c4.4-1.9,9.1-3.6,13.2-6.1
				C522.3,456.7,520.5,450.2,518.1,443.9z" style="fill:#4A3B2A;"/>
			<path d="M471.8,236.1c-0.2-1.1-1.7-2.3-2.8-2.2c-24.7,3-49.3,6-74,9c-0.4,0.1-0.8,0.2-1.1,0.4
				c-0.3-0.2-0.6-0.3-0.9-0.4c-12.7-2.8-26.5-6.1-37.3-13.7c-15.3-17.1-20.8-43-23.2-65.4c-0.2-1.4-1-2.4-2.5-2.5
				c-1.3-0.1-2.7-0.1-4-0.2c-1.1-0.1-1.9,0.6-2.2,1.4c-8.7,0.6-17.4,1.2-26.1,1.8l0,0c-1.3-0.7-3.1-0.4-3.4,1.5
				c-3.2,21.9-0.1,44.2,8.5,64.3c1.7,4.9,3.8,9.7,6.3,14.2c5.8,13.9,14.3,26.5,26.3,36.6c-2,6.8,0.8,17.2,2.8,22.1
				c1.5,3.9,3.7,7.4,6.4,10.3c-5,5.6-10.6,14.9-2.3,18.7c3.2,1.5,7.1,1,9.9-1.2s4.1-5.5,5-8.9c5.4,2.9,11.3,5,17.2,6.1
				c-0.4,6.3-2,13.6,5.8,14.8c10.8,1.6,22.3,1.5,33.2,2c22.5,1,45,1.1,67.4-1.2c1.5-0.2,3.1-1.2,2.9-2.9
				C480.5,305.7,476.5,270.8,471.8,236.1z" style="fill:#ED7354;"/>
			<path d="M500.5,250c-8.4-13.9-25.6-21.5-40.8-14.6c-18-13-41.4-27-63.3-15.6c-0.2,0.1-0.4,0.2-0.7,0.3
				c-0.1-0.8-0.4-1.5-1.2-1.9c-1.1-0.6-2.9-0.3-3.4,0.9c-1,2.2-1.6,4.4-1.7,6.8c-0.1,2.2,2.8,3.2,4.3,1.8c0.4-0.4,0.8-0.7,1.3-1
				c0.6,0.1,1.3,0,2-0.4s1.4-0.8,2.1-1.2c0.6,0,1.1,0.6,1.5,1.7c1.3,0.9,1.5,1.8,0.4,2.7c-0.8,1-0.8,2-0.5,3
				c-1.4,2.8-3.2,5.3-5.5,7.6c-2.3,2.2,1.2,5.8,3.5,3.5c2.2-2.1,3.9-4.4,5.4-7h0.1c9.4-1.6,18.9-3,28.3-0.5
				c8.1,2.1,15.8,5.8,23.2,9.5c0.2,0.1,0.3,0.1,0.5,0.2c-0.3,10,0.1,20,1.1,30c0.7,6.8,1.3,14.3,3.1,21.2c-12,2-23.9-0.9-33.8-8.1
				c-0.2-0.2-0.4-0.3-0.7-0.4c-1.2-1.3-3.6-1.7-4.8,0.3c-1.7,2.8-3.4,5.6-5.1,8.4c-1.3,0.7-2,2.4-1.4,3.9c0.3,1.1,1.3,1.9,2.4,2.1
				c14.7,9,32.4,11.4,49.1,6.7c4.1,5.3,10.3,8.9,17.2,7.9c8.4-1.2,14.8-8.2,18.7-15.4C510.4,286.8,509.7,265.2,500.5,250z" style="fill:#4A3B2A;"/>
		</g>
		<path d="M407.6,165c-0.4,2-1.5,7.1-4.6,6.1c-3.8-1.3-2.8-7.1-2.4-10c0.4-3.2-4.6-3.1-5,0c-0.8,5.7-0.2,13.5,6.7,15
			c6,1.3,9.2-4.9,10.1-9.7C413,163.2,408.2,161.9,407.6,165z" style="fill:#4A3B2A;"/>
		<path d="M447.9,176.2c-3.8-6.6-13.8-5.2-15.8,2.1c-0.8,3.1,4,4.4,4.8,1.3c1-3.5,5.7-3.7,6.9-0.3
			c1.3,3.5-2.2,5.9-5.4,5.5c-3.2-0.4-3.2,4.6,0,5C445.9,190.8,451.7,182.9,447.9,176.2z" style="fill:#4A3B2A;"/>
		<path d="M406.8,241.8c-4.1,4.2-8,8.6-11.8,13c2-4,3.9-7.9,5.8-12c1.3-2.9-3-5.4-4.3-2.5c-2.1,4.5-4.2,8.9-6.5,13.3
			c-6.7-1.9-13.3-3.8-20-5.9c-6.1-1.9-15-3.4-19.9-7.9c2.1-3.9,4.4-7.7,7-11.3c1.8-2.7-2.5-5.2-4.3-2.5
			c-11.3,16.3-18.6,34.9-21.6,54.5c-0.5,3.1,4.3,4.5,4.8,1.3c2-13.1,5.9-25.7,11.8-37.4c4.8,3.8,11.7,5.1,17.3,7
			c7.5,2.4,15,4.7,22.6,6.8c-5.6,10.6-11.7,20.9-18.3,30.9c-1.8,2.7,2.6,5.2,4.3,2.5c10.7-16.6,23-32,36.6-46.2
			C412.5,243,409,239.5,406.8,241.8z" style="fill:#FFFFFF;"/>
		<path d="M428.4,275.7c-6.3,10.2-13.7,19.6-22.1,28.1c-8,8.1-18.8,19.5-30.6,21c-3.1,0.4-3.2,5.4,0,5
			c12.5-1.6,23-11.7,31.7-20.1c9.8-9.4,18.2-20,25.3-31.5C434.4,275.4,430,272.9,428.4,275.7z" style="fill:#FFFFFF;"/>
		<path d="M504.7,265.6c-12.1,6.4-26,1.1-31.3-11.3c-1.3-2.9-5.6-0.4-4.3,2.5c6.4,15,23.9,20.7,38.1,13.1
			C510,268.4,507.5,264.1,504.7,265.6z" style="fill:#FFFFFF;"/>
		<path d="M509.3,272.3c-0.2-2.1-0.3-4.6-1.3-6.5s-3.3-2.5-5.2-1.5c-2.2,1.1-3.2,3.4-3.3,5.8c-0.8,3.4-0.4,7.2,3.5,8.6
			c1.6,0.6,3.4,0.4,4.7-0.7C509.4,276.5,509.5,274.3,509.3,272.3z" style="fill:#ED7354;"/>
		<path d="M360.5,167.4c-1.2-0.7-2.7-0.3-3.4,0.9c-0.9,1.5-1.5,3.1-1.8,4.8c-0.2,1.3,0.3,2.8,1.7,3.1
			c1.2,0.3,2.8-0.4,3.1-1.7c0.2-1.4,0.6-2.4,1.3-3.6C362.1,169.7,361.7,168.1,360.5,167.4z" style="fill:#4A3B2A;"/>
		<path d="M374.5,151.9c-0.2-0.6-0.6-1.2-1.1-1.5c-0.6-0.3-1.3-0.5-1.9-0.3c-0.7,0.2-1.1,0.6-1.5,1.1s-0.8,1-1.1,1.5
			c-0.4,0.5-0.4,1.4-0.3,1.9c0.2,0.6,0.6,1.2,1.1,1.5c0.6,0.3,1.3,0.5,1.9,0.3c0.7-0.2,1.1-0.6,1.5-1.1s0.8-1,1.1-1.5
			C374.6,153.3,374.7,152.4,374.5,151.9z" style="fill:#4A3B2A;"/>
		<path d="M373.9,165.5c-1.1-1-2.5-0.9-3.5,0c-0.9,0.8-1.8,1.5-2.7,2.3c-1,0.9-0.9,2.7,0,3.5c1.1,1,2.5,0.9,3.5,0
			c0.9-0.8,1.8-1.5,2.7-2.3C374.9,168.2,374.8,166.4,373.9,165.5z" style="fill:#4A3B2A;"/>
		<path d="M327.8,170.7c-10.8,3.4-21.9,4.6-33.2,3.7c-3.2-0.3-3.2,4.7,0,5c11.7,1,23.3-0.3,34.6-3.8
			C332.2,174.5,330.9,169.7,327.8,170.7z" style="fill:#FFFFFF;"/>
		<path d="M339.7,471.7c-9.5-4.1-18.9-8.2-28.4-12.3c-2.9-1.3-5.5,3-2.5,4.3c9.5,4.1,18.9,8.2,28.4,12.3
			C340.1,477.3,342.6,473,339.7,471.7z" style="fill:#FFFFFF;"/>
		<path d="M511.1,440.7c-8.9,6.1-18.4,11.2-28.6,15c-3,1.1-1.7,6,1.3,4.8c10.5-4,20.5-9.2,29.8-15.5
			C516.3,443.2,513.8,438.8,511.1,440.7z" style="fill:#FFFFFF;"/>
		<path d="M439.7,378.8c-4.1-4.9-7.2-10.5-9.4-16.5c-1.1-3-5.9-1.7-4.8,1.3c2.5,6.9,6,13.1,10.7,18.7
			C438.2,384.9,441.8,381.3,439.7,378.8z" style="fill:#FFFFFF;"/>
	</g>
	<path d="M495.7,471c-2.1-0.4-4-1.2-5.8-2.3c-2.8-1.7-5.3,2.6-2.5,4.3c2.1,1.3,4.5,2.3,7,2.8c1.3,0.3,2.7-0.4,3.1-1.7
		C497.8,472.9,497.1,471.3,495.7,471z" style="fill:#FFFFFF;"/>
	<path d="M490.8,480c-1.9-0.7-3.7-1.6-5.3-2.8c-1.1-0.8-2.8-0.2-3.4,0.9c-0.7,1.2-0.2,2.7,0.9,3.4
		c2,1.4,4.2,2.5,6.5,3.3c1.3,0.5,2.7-0.5,3.1-1.7C493,481.7,492.1,480.4,490.8,480z" style="fill:#FFFFFF;"/>
	<path d="M299.4,471.3c-0.6,3.4-0.8,6.7-0.6,10.1c0.2,3.2,5.2,3.2,5,0c-0.2-3-0.1-5.9,0.4-8.8
		C304.8,469.5,300,468.2,299.4,471.3z" style="fill:#FFFFFF;"/>
	<path d="M291.5,471.7c-0.3,3-1,5.9-1.9,8.8c-0.9,3.1,3.9,4.4,4.8,1.3c1-3.3,1.6-6.7,2-10.1
		C296.9,468.5,291.9,468.5,291.5,471.7z" style="fill:#FFFFFF;"/>
</g>
</svg>
