<?xml version="1.0" encoding="utf-8"?>
<!-- Generator: Adobe Illustrator 20.1.0, SVG Export Plug-In . SVG Version: 6.00 Build 0)  -->
<svg version="1.1" id="Capa_1" xmlns="http://www.w3.org/2000/svg" xmlns:xlink="http://www.w3.org/1999/xlink" x="0px" y="0px" viewBox="0 0 800 600" style="enable-background:new 0 0 800 600;" xml:space="preserve">

<g>
	<g>
		<path d="M178.1,470.6c0.1,1.8,2.1,2.3,3.5,2c76.9-21.9,154.1-43.9,227.8-75.2c2.8-1.2,1.1-5.5-1.6-4.7
			c-1.1-19.6-2.2-39.2-3.3-58.8c-3.8-68.2-7.6-136.3-11.4-204.5c-0.1-1.3-1.6-2.4-2.8-2.1c-38.3,7.5-76.5,15.6-114.5,24.3
			c-16.8,3.9-33.5,7.8-50.2,12c-8.3,2.1-16.7,4.1-25,6.3c-7.4,1.9-15.4,3.2-22.5,6c-13.4,5.4-9.4,22.8-9,34.2
			c0.6,17.3,1.2,34.6,1.8,51.9C173.3,331.4,175.7,401,178.1,470.6z" style="fill:#4A3B2A;"/>
		<path d="M331.4,405.6c-33,4.7-64.6,16.7-96.6,25.5c-11.3,3.1-23.3,5.1-35,7.7c-3.8-27-3.4-54.6-3.6-81.8
			c-0.3-32.9-0.5-65.9-0.6-98.8c-0.1-19.1-0.2-38.2-0.2-57.4c-0.8-1.2-0.6-2.9,1.1-3.4c55.8-16.7,113-28.7,170.8-35.7
			c1.9-0.2,2.9,1.4,2.8,2.8c0.3,0.3,0.5,0.8,0.6,1.4c5.6,57.5,11.1,115,16.7,172.5c0.7,6.9,1.3,13.8,2,20.7
			c0.6,6.1,1.7,12.5,1.5,18.6c-0.4,11.1-8.2,15.3-17.9,17.9C360.7,399,333.4,405.3,331.4,405.6z" style="fill:#ED7354;"/>
		<path d="M327.4,194.9c10.1,8.5,18.9,18.3,26.1,29.3c1.8,2.7-2.2,5.8-3.9,3.1c-7-10.7-15.4-20.2-25.2-28.4
			C321.9,196.8,324.9,192.8,327.4,194.9z" style="fill:#FFFFFF;"/>
		<path d="M300.2,195.7c20.8,18.5,40.8,37.8,60.1,57.8c2.2,2.3-1.7,5.4-3.9,3.1c-19-19.7-38.7-38.7-59.2-56.9
			C294.8,197.5,297.8,193.5,300.2,195.7z" style="fill:#FFFFFF;"/>
		<path d="M261.9,361.4c3.5,12.2,17.8,20.5,27.5,27.3c24.5,17.1,51.8,30.4,80.1,41.2c-1.5,2.3-2.3,4.9-2.1,7.7
			c0.3,3.8,2.6,7.4,6.2,8.7c3.9,1.5,8.4-0.1,11.1-3.2c1.7-1.9,2.6-4.2,3.1-6.6c17.1,5.9,34.5,11,51.6,15.7c16,4.3,32.2,7.6,48.5,9.1
			c21.6,3.2,43.4,4.6,65.3,4.1c13.9-0.4,27.8-1.5,41.6-3.4c6.5-0.9,20.7-1.3,22.3-9.6c0.2-0.3,0.4-0.6,0.5-1
			c13.4-47.1,11.9-96.7,4.2-144.7c-3.5-21.9-8.3-43.6-13.5-65.1c-2.6-10.8-5.3-21.7-8.1-32.5c-2.2-8.7-4.8-17.6-10.3-24.8
			c-10.1-13-27-17.1-42.6-19.1c-8.9-1.1-18.9-2.7-27.3,1.2c-8.3,3.8-14.3,12-20.4,18.5c-13.5,14.6-26.7,29.5-38.5,45.5
			c-11.1,15.4-22.3,32.3-28.6,50.4c-5,14.3-5.4,33.3,10.6,40.6c14.1,6.5,28.5-0.1,39.6-9.4c-2.8,27.4-8,54.4-15.5,80.9
			c-34.1-0.1-67.9-7.9-98.6-22.6c-15.3-7.3-29.9-16.3-43.3-26.8c-6.8-5.3-13.2-11-19.3-17.1c-5.1-5.1-10.4-12-18.4-11.1
			c-1,0.1-2.2,0.7-2.4,1.8c-0.4,3-0.4,5.9,0.1,8.7c-0.9-0.6-1.8-1.2-2.7-1.8c-1.6-1-3.8,0.3-3.8,2.2c0,3.9,0.7,7.5,1.9,11
			c-2.8-1.4-5.6-2.5-8.7-3.4c-1.6-0.5-3.1,0.8-3.2,2.4c-0.3,4.4,0.7,8.5,2.7,12.2c-1.8-0.2-3.6,0-5.3,0.7
			C261.2,351.2,260.5,356.8,261.9,361.4z" style="fill:#F4BFAB;"/>
		<path d="M410.4,447c54.6,22.4,115.1,28.7,173.1,18.5c12.3-0.5,24.6-1.9,36.8-4.3c0.7-0.1,1.3-0.7,1.6-1.4
			c0.4-0.3,0.8-0.8,0.9-1.5c2.9-20.6,4.9-41.3,6-62c0.5-9.1,0.7-18.3,0.8-27.4c0-4.9,0-9.8,0-14.7c0-2.6,0.5-6-1.3-8.2
			c-1.3-1.6-3.1-1.8-5.1-1.9c-4.2-0.2-8.7,0.4-12.9,0.7c-8.6,0.6-17.3,1.5-25.9,2.3c-34.8,3.5-70.6,7.4-104.6-3.5
			c-1.3-0.4-2.7,0.5-3.1,1.7c-3.6,12.9-7.3,25.7-10.9,38.6c-0.4-0.2-0.9-0.3-1.4-0.2c-12.8,1.9-25.6,2.5-38.5,2.1
			c-1.1,0-2.1,0.8-2.4,1.8c-4.9,18.7-9.9,37.5-14.8,56.2C408.3,445.4,409.2,446.5,410.4,447z" style="fill:#ED7354;"/>
		<path d="M561.5,270.3c0.9,5.7,7.6,0.3,9.3-2.1c1.8-2.5,3-5.7,2.8-8.8c-0.4-5.4-7.3-9.9-11.4-5
			c-2.1,2.5-5.6-1.1-3.5-3.5c3.3-3.9,8.8-4.4,13.2-2.2c5.1,2.5,7.3,7.9,6.7,13.4c-0.7,5.9-4.7,12.3-10.2,14.8
			c-4.6,2.1-10.8,0.2-11.6-5.3C556.2,268.5,561.1,267.1,561.5,270.3z" style="fill:#4A3B2A;"/>
		<path d="M513.9,240.7c2.4-2.2,5.9,1.3,3.5,3.5c-3.7,3.4-2.5,9.3,2.4,10.8c5.1,1.6,9.4-2.8,9.5-7.7
			c0.1-3.2,5.1-3.2,5,0c-0.3,8.6-8.2,15.5-16.8,12.2C509.8,256.5,507.8,246.4,513.9,240.7z" style="fill:#4A3B2A;"/>
		<path d="M468.5,267.8c2-1.4,3.6-3.4,4.5-5.6c0.5-1.3,1.7-2.1,3.1-1.7c1.2,0.3,2.2,1.8,1.7,3.1
			c-1.4,3.6-3.6,6.4-6.8,8.6C468.3,274,465.8,269.6,468.5,267.8z" style="fill:#4A3B2A;"/>
		<path d="M462.8,254.1c1.3-2.4,2.5-4.8,3.8-7.2c1.5-2.8,5.8-0.3,4.3,2.5c-1.3,2.4-2.5,4.8-3.8,7.2
			C465.6,259.5,461.3,256.9,462.8,254.1z" style="fill:#4A3B2A;"/>
		<path d="M454.2,268c1.7-2.7,6.1-0.2,4.3,2.5c-1.5,2.3-2.4,4.9-2.7,7.7c-0.3,3.2-5.3,3.2-5,0
			C451.2,274.5,452.2,271.1,454.2,268z" style="fill:#4A3B2A;"/>
		<path d="M608.3,319.1c0.4,3.6,0.8,7.2,1.1,10.9c0.3,3.2-4.7,3.2-5,0c-0.4-3.6-0.8-7.2-1.1-10.9
			C603,315.9,608,315.9,608.3,319.1z" style="fill:#4A3B2A;"/>
		<path d="M605.7,288.2v7.3c0,3.2-5,3.2-5,0v-7.3C600.7,285,605.7,285,605.7,288.2z" style="fill:#4A3B2A;"/>
		<path d="M591.5,299.3c1-3,5.9-1.7,4.8,1.3c-1,3-0.9,5.8,0.3,8.7c1.2,3-3.6,4.3-4.8,1.3
			C590.4,307,590.3,303,591.5,299.3z" style="fill:#4A3B2A;"/>
		<path d="M475.3,357.2c2.1,0.5,4.2,1.1,6.2,1.6c1.1-3.7,2.3-7.3,3.4-11c1-3.1,5.8-1.8,4.8,1.3
			c-1.1,3.6-2.2,7.2-3.4,10.8c3,0.7,6,1.3,9,1.9c0.5-4.6,1.4-9.1,2.9-13.5c1-3,5.8-1.7,4.8,1.3c-1.3,4-2.2,8-2.7,12.2
			c0,0.3-0.1,0.6-0.2,0.8c3.1,0.6,6.2,1.1,9.4,1.5c1.1-4.5,2.2-9,3.4-13.6c0.8-3.1,5.6-1.8,4.8,1.3c-1.1,4.3-2.1,8.6-3.2,12.9
			c2.8,0.4,5.7,0.7,8.5,1c1.2-5.1,2.3-10.2,3.5-15.2c0.7-3.1,5.5-1.8,4.8,1.3c-1.1,4.8-2.2,9.6-3.3,14.4c4,0.4,8.1,0.7,12.2,0.9
			c0.2-5.3,0.5-10.7,0.7-16c0.1-3.2,5.1-3.2,5,0c-0.3,5.4-0.5,10.8-0.8,16.2c3.2,0.1,6.4,0.2,9.6,0.2c0-4,0-8.1,0-12.1
			c0-2.6-0.8-6.5,1-8.6c0.7-0.8,2.2-1,3-0.4c0.1,0.1,0.2,0.1,0.3,0.2c1.1,0.8,1.7,2.2,0.9,3.4c0,0.1-0.1,0.1-0.1,0.2
			c0,0,0,0-0.1,0.1c0,0.2,0,0.3,0,0.5c0,1,0,2,0,3.1c0,1.5,0,3.1,0,4.6c0,3,0,6,0,9c4.4,0,8.8-0.2,13.3-0.4c0.8-5.3,1.1-10.7,1-16
			c0-3.2,5-3.2,5,0c0.1,5.3-0.3,10.5-1,15.7c3.2-0.2,6.4-0.5,9.6-0.8c-0.7-6.2-1.4-12.3-2-18.5c-0.4-3.2,4.6-3.2,5,0
			c0.7,6,1.3,12,2,17.9c4.2-0.5,8.3-1,12.4-1.6c-0.2-3.1-0.4-6.2-0.7-9.3c-0.2-1.9-0.4-3.8-0.7-5.8c-0.1-0.8-0.2-1.6-0.4-2.4
			c-0.1-0.4-0.2-0.7-0.3-1c-0.7-0.8-1-2-0.4-3c0.1-0.1,0.1-0.2,0.2-0.3c0.7-1,2.3-1.7,3.4-0.9c2.6,1.8,2.2,6,2.6,8.9
			c0.6,4.3,0.9,8.6,1.2,12.9c3.2-0.5,6.5-1.1,9.7-1.8c-0.5-5-1.1-10-1.9-14.9c-0.5-3.1,4.3-4.5,4.8-1.3c0.8,5.1,1.4,10.2,2,15.3
			c1.4-0.3,2.8-0.6,4.1-0.9c3.1-0.7,4.5,4.1,1.3,4.8c-51.4,11.8-105.1,11-156.1-2.5C470.8,361.3,472.2,356.4,475.3,357.2z" style="fill:#FFFFFF;"/>
		<path d="M409.8,438.3c0.7-1.2,2.2-1.5,3.4-0.9c1.9,0.9,3.8,1.8,5.7,2.7c0.9-3.2,1.8-6.5,2.8-9.7c-3,0.1-6-0.6-8.6-2.2
			c-2.8-1.6-0.3-5.9,2.5-4.3c2.2,1.2,4.4,1.7,6.9,1.4c0.2,0,0.4,0,0.6,0c0.9-3.2,1.7-6.4,2.6-9.6c-2.8-0.2-5.4-0.9-8-2.1
			c-2.9-1.4-0.4-5.7,2.5-4.3c2.2,1,4.4,1.5,6.8,1.5c0.7-2.8,1.5-5.5,2.2-8.3c-2.8-0.6-5.5-1.6-8-2.9c-2.9-1.5-0.3-5.8,2.5-4.3
			c2.2,1.1,4.4,1.9,6.8,2.4c1.2-4.4,2.3-8.8,3.5-13.1c0.8-3.1,5.6-1.8,4.8,1.3c-5.4,20.9-11.1,41.7-17,62.4
			c-0.9,3.1-5.7,1.8-4.8-1.3c0.2-0.7,0.4-1.4,0.6-2.2c-0.3,0-0.7-0.1-1-0.3c-2-0.9-3.9-1.9-5.9-2.8
			C409.5,441.1,409.1,439.3,409.8,438.3z" style="fill:#FFFFFF;"/>
		<path d="M618.6,209.6c-2.3-12.1-11.3-21.6-19.5-28.8c-8.6-7.5-18.2-13.1-28.5-16.8c2.1-7.5,3.6-15.1,4.5-23
			c0.3-2.7-2.8-3.5-4.3-2.1c-3.3,3.3-6.1,7.2-8.3,11.4c-0.5-5-1.5-9.7-4.1-13.1c-1.2-1.6-3.9-0.8-4.2,1.3
			c-1.1,6.9-1.5,13.8-1.4,20.8c-13.4-1.6-26.9-2.6-39.9,2.4c-0.3,0.1-0.6,0.3-0.8,0.5c-7.1,2-13.7,5.7-19.5,10.8
			c-4.4,3.9-13.3,11.9-11.9,19.5c1.6,8.2,11.7,5.3,16.5,3.9c6.6-2,12.8-5.4,18.8-9.2c-2.5,6-4.6,12.2-5.8,18.6
			c-1.2,6.3-1.4,16.3,4.8,19.4c6.7,3.3,10.8-7.3,13.6-12.3c3.9-7.1,7.9-14.2,11.8-21.4c0.4,6.4,1.4,12.7,3.3,18.7
			c2.2,7.2,6,16.6,11.8,20.8c5.6,4.1,9.5-1,10.2-7.4c0.7-7.3,1.2-14.5,2.1-21.6c1.5,5.3,3.5,10.4,5.9,15.2
			c3.6,7.1,8.4,15.9,15.1,19.4c9.4,5,10.5-4.9,9.1-16c2.9,4.6,6.4,8.4,10.6,10.1C618.4,234.9,620,216.9,618.6,209.6z" style="fill:#4A3B2A;"/>
	</g>
	<path d="M323.4,387.9c-3.3-2.1-6.7-4.2-10-6.3c-2.7-1.7-5.2,2.6-2.5,4.3c3.3,2.1,6.7,4.2,10,6.3
		C323.6,393.9,326.1,389.6,323.4,387.9z" style="fill:#4A3B2A;"/>
	<path d="M343.7,384.8c-3.4-3.1-7.3-5.3-11.7-6.5c-3.1-0.9-4.4,3.9-1.3,4.8c3.6,1,6.7,2.7,9.5,5.2
		C342.6,390.5,346.1,387,343.7,384.8z" style="fill:#4A3B2A;"/>
	<path d="M355.5,399.7c-3.3-1.4-6.7-2.7-10-4.1c-3-1.2-4.3,3.6-1.3,4.8c3.3,1.4,6.7,2.7,10,4.1
		C357.1,405.7,358.4,400.9,355.5,399.7z" style="fill:#4A3B2A;"/>
</g>
</svg>
