<?xml version="1.0" encoding="utf-8"?>
<!-- Generator: Adobe Illustrator 20.1.0, SVG Export Plug-In . SVG Version: 6.00 Build 0)  -->
<svg version="1.1" id="Capa_1" xmlns="http://www.w3.org/2000/svg" xmlns:xlink="http://www.w3.org/1999/xlink" x="0px" y="0px" viewBox="0 0 800 600" style="enable-background:new 0 0 800 600;" xml:space="preserve">

<g>
	<path d="M617.4,347.7c-2.4-21.1-14.1-40.8-25.5-58.3c-13.4-20.5-29.4-39.1-47.5-55.5c-1.7-1.6-4-0.4-4.3,1.8
		c-0.5,4.3-0.3,8.4,0.5,12.4l-7.4-6.4c-1.9-1.7-4.7-0.1-4.2,2.4c0.7,3.7,1.8,7.3,3.1,10.8c-3.4-1.8-7.1-3.2-11-4
		c-1.8-0.4-3.7,1.2-3.1,3.1c0.5,1.6,1,3.2,1.7,4.7c-2-1.7-4.1-3.5-6.1-5.2c-1.8-1.6-4.8-0.1-4.2,2.4c3.5,13.3,13,23.1,22.3,32.7
		c11.2,11.5,20.8,24.1,27.8,38.6c3.6,7.4,7,16.3,5.2,24.6c-1.7,7.9-8.1,13.2-15.5,15.6c-14.5,4.7-30.4-1.4-42-10.1
		c-14.8-11.2-24.4-27.7-33.6-43.4c-0.1-0.1-0.1-0.2-0.2-0.2c-3.6-8.9-6.2-18.1-7.8-27.5c-1.6-9.4-3.2-18.5-6-27.6
		c-0.1-0.6-0.2-1.1-0.2-1.7c6.9-0.2,13.4-2,18-7c10.6-11.4,2-31.4-4.2-42.8c-7.9-14.5-17.5-28.8-28.8-40.9
		c-19.9-21.5-50.9-36.7-80.1-25c-30.5,12.2-34.2,47.4-36.2,76c-0.2,2.8-0.4,5.6-0.6,8.4c-7.5-7-20.3,0.1-19.8,10.9
		c0.4,10.3,10.1,15.8,18.7,13.3c-0.8,29.4,0.3,58.9,4.1,88.1c-0.5,0.1-1,0.3-1.4,0.8c-22,25.1-45.9,52.3-78.2,63.9
		c-3.5,1.2-7.1,2.5-10.7,3.1c-7.6,1.4-10.8-4.6-11-11.3c-0.3-9.5,5.1-18.2,10.3-25.8c10.4-15.3,22.1-29.1,37.5-39.6
		c15-10.2,31.5-18.6,43.6-32.5c1.4-1.6,0.5-4.3-1.8-4.3c-2.4,0-4.8,0.3-7.1,0.8c1-1.6,1.8-3.3,2.5-5.1c0.4-1-0.2-2.4-1.1-2.8
		c-1.9-0.9-3.9-1.4-5.9-1.5c1.7-2.3,3.3-4.7,4.7-7.3c1-1.7-0.3-3.6-2.2-3.8c-2.5-0.2-4.8,0-7.1,0.5c1.7-2.3,3.5-4.7,5.2-7
		c1.1-1.4-0.2-3.2-1.5-3.7c-5.2-2-10.1,0-14.8,2.4c-5.6,3-11,6.4-16.3,9.9c-9.4,6.4-18.2,13.5-26.5,21.3c-16.8,16.1-31,35-41.4,55.8
		c-10.8,21.6-17.9,46.7-10.6,70.6c6.8,22,24.7,36.4,47.4,39.5c26.8,3.7,51.8-7.7,75.1-19.7c0.7,12.4,1.3,24.9,2,37.3
		c0.1,2.1,2.3,2.8,3.7,2.2c0.2,0.7,0.7,1.4,1.7,1.6c58.1,10.5,116.6-2,173.3-14.5c1.4-0.3,2-1.8,1.7-3.1
		c-2.1-10.4-4.3-20.7-6.4-31.1c17.3,6.2,36.8,3.1,54.1-2c19.2-5.7,37.6-15.8,50.5-31.4C612.3,386.3,619.6,367.1,617.4,347.7z" style="fill:#F4BFAB;"/>
	<path d="M453.4,143.3c-4.4-0.9-8.9-1.4-13.4-1.6c0.3-0.4,0.6-0.9,0.9-1.4c1.9-3.8,0.5-8.2-3.3-10.2
		c-4.3-2.3-9.7-1.2-14.2-0.4c-3.7,0.7-7.3,1.6-10.9,2.6c1.9-2.2,3.5-4.6,4.3-7c1.7-5.1-3.5-7.2-7.6-7.8c-12.5-1.6-23.9,4.7-34,11.6
		c0-3.3-0.7-6.5-2.1-9.6c-1.6-3.5-4.6-8.6-8.8-9.2c-4.7-0.7-7.5,4.3-9.2,7.8c-2.1,4.4-3.3,9.1-3.7,13.9c-4.5-2.5-9.4-4.2-14.6-4.9
		c-4.7-0.6-11.9-1.1-16,1.8c-6.9,4.9-0.8,10.4,6.3,14.3c-2.4,0.3-4.7,0.7-7.1,1.4c-5.4,1.6-13.3,4.5-16.4,9.6
		c-3.4,5.6,2.8,8.8,7.3,10.2c5,1.5,10.1,1.8,15.1,1.1c-5.2,6-9.3,12.9-12.3,20.6c-0.4,1,0.3,2.3,1.1,2.8c6.1,3.7,12.3-0.5,17.5-4
		c5.1-3.4,9.9-7.1,14.5-11c-0.3,10,1.2,26.3,11.1,25.2c5.1-0.6,6.7-6.3,8.1-10.4c1.9-5.5,3.8-11,5.7-16.5c3,8.8,8.8,16.3,16.5,21.8
		c1.3,0.9,3.3,0,3.7-1.5c1.7-7.2,2.2-14.4,1.4-21.6c6.7,5.6,14.4,9.8,22.9,12.4c2,0.6,3.3-1.3,3.1-3.1c-0.7-4.6-1.4-9.1-2.1-13.7
		c9.9,6.2,21.4,8.9,33.2,7.3c1.7-0.2,3.4-2,2.2-3.8c-2.3-3.4-4.9-6.4-7.8-9.2c2.3,0.1,4.5-0.1,6.8-0.6c4.5-0.9,11.9-3.3,12.6-8.6
		C465,145.7,457.8,144.2,453.4,143.3z" style="fill:#4A3B2A;"/>
	<path d="M371.7,210.9c-0.8-3.1-5.7-1.8-4.8,1.3c1,3.8,1.1,13.9-5.5,10.8c-4.8-2.2-4.5-8.7-4.4-13.1
		c0.1-3.2-4.9-3.2-5,0c-0.1,7.5,1.3,17.3,10.4,18.5C372,229.8,373.5,217.8,371.7,210.9z" style="fill:#4A3B2A;"/>
	<path d="M329.3,236.7c-2.8-1.2-5.6-2.3-8.4-3.5c-1.3-0.5-2.7,0.6-3.1,1.7c-0.4,1.4,0.5,2.6,1.7,3.1
		c2.8,1.2,5.6,2.3,8.4,3.5c1.3,0.5,2.7-0.6,3.1-1.7C331.5,238.3,330.5,237.2,329.3,236.7z" style="fill:#4A3B2A;"/>
	<path d="M442.9,208c-2.8-1.5-5.1-3.6-6.9-6.2c-1.8-2.7-6.1-0.2-4.3,2.5c2.2,3.4,5.1,6.1,8.7,8
		C443.2,213.9,445.7,209.6,442.9,208z" style="fill:#4A3B2A;"/>
	<path d="M445.9,191c-1.3-1.3-2.6-2.6-3.9-3.9c-0.9-0.9-2.6-1-3.5,0c-0.9,1-1,2.6,0,3.5c1.3,1.3,2.6,2.6,3.9,3.9
		c0.9,0.9,2.6,1,3.5,0C446.9,193.5,446.9,192,445.9,191z" style="fill:#4A3B2A;"/>
	<path d="M465.5,217.5c-1.9-2.5-3.6-5.2-5.1-8c-1.5-2.8-5.8-0.3-4.3,2.5c1.5,2.8,3.2,5.5,5.1,8c0.8,1.1,2.2,1.6,3.4,0.9
		C465.7,220.3,466.3,218.6,465.5,217.5z" style="fill:#4A3B2A;"/>
	<path d="M463.1,229.2c-0.8-1.1-2.7-0.9-3.5,0c-1.1,1.1-0.8,2.5,0,3.5c1,1.3,1.4,3,1.5,4.6c0,3.2,5,3.2,5,0
		C466,234.3,465,231.6,463.1,229.2z" style="fill:#4A3B2A;"/>
	<path d="M621.8,382.2c10.9-17.4,6.9-43.4-0.3-61.4c-5.7-14.1-14-26.9-23.7-38.6c-5-6-10.3-11.6-15.8-17.1
		c-2.9-2.8-5.8-5.5-8.8-8.2c-2.5-2.2-5.2-5.3-8.3-6.8c-2.9-1.4-5.5-0.4-7.9,1.3c-3.9,2.7-7.4,6-11,9.1c-8,6.9-15.7,14-23.3,21.4
		c-1,1-0.9,2.5,0,3.5c10.8,11.7,20.5,24.3,28.9,37.8c6.1,9.7,19.2,30.2,5.3,39.3c-12.9,8.4-30.3-2-40.9-9.5
		c-12.8-9.1-24.2-20-34.1-32.1c-0.7-0.8-2.2-1-3-0.4c-1.6,1.1-3.3,2.2-4.9,3.3c-0.4,0.1-0.8,0.2-1.2,0.6
		c-18.5,15.2-42.5,20.5-65.9,21.3c-12.4,0.4-24.8-0.3-37.2-1.1c-12-0.8-24.1-1.5-35.4-5.8c-0.4-0.3-0.9-0.5-1.4-0.5
		c-1.1-0.3-1.9,0.1-2.4,0.8c-16,8.1-29.5,18.8-42.6,31c-12.9,12-28,25.9-46.8,26c-6.4,0-10.4-2.6-10-9.3c0.2-4.1,2.1-7.9,4.2-11.3
		c4.5-7.4,11.2-13.1,17.7-18.7c15.1-13.2,30.8-25.8,46.8-37.8c1.3-1,1.7-2.7,0.5-3.9c-11.8-11.8-24-23.1-36.9-33.7
		c-0.3-0.3-0.7-0.4-1-0.5c0.1-1.9-1.7-3.8-3.6-2.4c-40.8,29.3-68,74.9-74.7,124.6c-8.3,2-15.6,9.6-11.3,18.6
		c2.9,6.1,10.6,7.2,15.2,3.6c8,20.9,28,35.5,49.8,40.2c27.6,6,55.9-3.7,79.5-18c0.8,7.1,1.5,14.3,2.3,21.4
		c0.6,5.4,0.6,11.6,5.5,15.1c4.6,3.3,11.2,3,16.6,3.3c7.8,0.5,15.6,1,23.5,1.4c31.1,1.7,62.5,2,93.3-2.7
		c17.4-2.7,34.4-7.1,50.7-13.7c1.4-0.6,2-1.6,1.7-3.1c-1.5-10-4.3-19.7-8.3-28.9c23.5,8.1,50.6,3.6,70.5-11.4c2.5-1.9,4.8-3.9,7.1-6
		c2.5-2.5,4.1-6.1,8.1-4.8c5.2,1.7,9.4,4.9,15.3,3.5c4.4-1,7.7-4.8,7.9-9.3c0.2-4.9-2.8-9.4-6.1-13
		C612.5,395.6,618.4,389.6,621.8,382.2z" style="fill:#ED7354;"/>
	<path d="M442.1,312.3c-6.5-6.6-13.2-13-20-19.3c3.2-2.3,6.3-4.5,9.5-6.8c2.8-2,6.1-4,8.5-6.6c4.3-4.8,2.7-9.7-1.6-13.7
		c-4.5-4.2-11-8.6-17.2-5c-3.1,1.8-5.5,4.9-8,7.5c-2.9,3-5.9,6-8.8,9c0,0-0.1-0.1-0.1-0.1l-25.1-24.8c-0.7-0.7-2.2-1.1-3-0.4
		c-4.4,3.3-11.9,10-8.6,16.2c1.9,3.5,5.9,6.2,8.7,8.8c3.2,3.1,6.5,6.1,9.7,9.2c-3.8,3.9-7.6,7.9-11.4,11.8c-3,3.1-6.9,6.3-8.7,10.3
		c-3.8,8.7,4.1,15.5,10.6,19.7c1.2,0.8,2.7,0.1,3.4-0.9c6.7-9.2,14.4-17.5,22.9-25c6.9,8.7,14.8,16.6,23.5,23.5
		c2,1.6,4.2,3.4,6.8,1.7c1.5-1,2.7-3.2,3.7-4.6c1.8-2.5,3.6-5,5.5-7.5C443.2,314.4,442.9,313,442.1,312.3z" style="fill:#FFFFFF;"/>
	<path d="M488.9,336.3c-4.4,9.5-7.3,19.3-8.9,29.5c-10.7-2.4-21.3-5.1-31.9-8.1c-10.2-2.9-20.9-5.8-29.1-13
		c-2.4-2.1-5.9,1.4-3.5,3.5c0.4,0.3,0.7,0.6,1.1,0.9c-17.9,13.1-36.7,24.7-56.4,34.8c-13.4-11.8-25.8-24.5-37.3-38.1
		c-2.1-2.5-5.6,1.1-3.5,3.5c11.9,14.1,24.8,27.3,38.7,39.4c0.9,0.8,2,0.9,3,0.4c20.1-10.2,39.3-22,57.5-35.3c0,0.1,0,0.1,0,0.2
		c7.5,43.4,12.2,87.3,14.1,131.3c0.1,3.2,5.1,3.2,5,0c-2-44.1-6.7-87.9-14.1-131.4c6.1,3.4,12.7,5.6,19.5,7.6
		c12.6,3.7,25.4,6.9,38.3,9.8c1.7,0.4,3-0.8,3.2-2.4c1.3-10.4,4.3-20.5,8.7-30C494.6,336,490.2,333.4,488.9,336.3z" style="fill:#FFFFFF;"/>
	<path d="M279.9,326.1c-13-10.6-24.8-22.6-35.2-35.8c-2-2.5-5.5,1-3.5,3.5c10.4,13.2,22.2,25.2,35.2,35.8
		C278.8,331.6,282.4,328.1,279.9,326.1z" style="fill:#FFFFFF;"/>
	<path d="M583.1,266.6c-0.2-0.1-0.4-0.3-0.5-0.4c-2-1.4-4,0.8-3.6,2.8c-1.3,1.9-5.3,4.1-6.6,5c-1.5,1.1-3,2.2-4.5,3.3
		c-3.3,2.4-6.6,4.7-9.9,7c-7,4.7-14.1,9.2-21.3,13.5c-2.8,1.6-0.3,6,2.5,4.3c8.9-5.2,17.5-10.7,25.9-16.7c4.1-2.9,8.1-5.8,12.1-8.8
		c2.5-1.9,6.5-3.9,7.1-7.3C584.5,268.2,584.1,267.3,583.1,266.6z" style="fill:#FFFFFF;"/>
	<path d="M598.1,332.6c-0.9-2.7-1.9-5.4-2.8-8.1c-1.1-3-5.9-1.7-4.8,1.3c0.9,2.7,1.9,5.4,2.8,8.1
		C594.3,337,599.1,335.7,598.1,332.6z" style="fill:#FFFFFF;"/>
	<path d="M615,337.3c-0.3-3.2-5.3-3.2-5,0c0.2,2.4-0.5,4.5-2.3,6.2c-2.3,2.2,1.2,5.8,3.5,3.5
		C613.9,344.6,615.3,341,615,337.3z" style="fill:#FFFFFF;"/>
	<path d="M597.8,361c-1.8-2.7-6.1-0.2-4.3,2.5c0.7,1.1,0.8,2.8-0.3,3.7c-1.1,0.8-1.6,2.2-0.9,3.4
		c0.6,1.1,2.3,1.7,3.4,0.9C599,369,600.2,364.5,597.8,361z" style="fill:#FFFFFF;"/>
	<path d="M215.8,430c-2.3-3.9-3.9-7.9-5.1-12.3c-0.8-3.1-5.6-1.8-4.8,1.3c1.2,4.7,3.1,9.3,5.6,13.5
		C213.1,435.3,217.4,432.8,215.8,430z" style="fill:#FFFFFF;"/>
	<path d="M216.9,392.7c-0.2-1.3-1.9-2.1-3.1-1.7c-1.4,0.4-2,1.7-1.7,3.1c0.4,2.6,0,5.2-0.8,7.7c-1.1,3,3.8,4.4,4.8,1.3
		C217.2,399.7,217.4,396.2,216.9,392.7z" style="fill:#FFFFFF;"/>
	<path d="M206,376.6c-1,3.4-2.5,6.6-4.6,9.5c-1.9,2.6,2.5,5.1,4.3,2.5c2.3-3.3,4-6.9,5.1-10.7
		C211.7,374.9,206.9,373.6,206,376.6z" style="fill:#FFFFFF;"/>
	<path d="M439.3,381.4c-2.4-1.7-4.9,0.3-5.8,2.7c-0.7,1.8-0.6,3.8,0.1,5.5c0.6,2.4,2.1,4.4,4.6,4c0.4-0.1,0.7-0.2,1-0.3
		c0.6-0.1,1.2-0.5,1.5-1.1c0.1-0.2,0.2-0.4,0.2-0.6c0.6-1.1,0.9-2.4,1-3.5C442.1,385.7,441.2,382.8,439.3,381.4z" style="fill:#4A3B2A;"/>
	<path d="M445.5,417.6c-0.9-0.6-2.3-0.4-3,0.4c-2.7,3.3-3.3,7.8-1,11.5c0.3,0.5,0.7,0.8,1.1,1c0.1,0.1,0.2,0.3,0.4,0.4
		c1,1.1,2.5,0.8,3.5,0C451,427.3,450.1,420.6,445.5,417.6z" style="fill:#4A3B2A;"/>
	<path d="M453.3,457.7c-1-1.5-3.4-1.7-4.3,0c-0.2,0.4-0.4,0.7-0.5,1.1c-0.5,0.3-0.9,0.7-1.1,1.3
		c-0.8,2.2-0.9,4.7-0.1,6.9c0,0,0,0,0,0.1c0,0.3,0.1,0.7,0.1,1c0.1,0.8,0.9,1.5,1.7,1.7c0.9,0.7,2,1,3.3,0.2
		c1.9-1.1,2.5-3.9,2.7-5.9C455.2,461.9,454.5,459.6,453.3,457.7z" style="fill:#4A3B2A;"/>
	<path d="M399.7,153.1c-1.8-2.9-4.4-4.9-7.5-6.2c-1.2-0.5-2.8,0.6-3.1,1.7c-0.4,1.4,0.5,2.5,1.7,3.1
		c1.8,0.8,3.4,2.2,4.5,3.9C397.1,158.3,401.4,155.8,399.7,153.1z" style="fill:#FFFFFF;"/>
	<path d="M377.8,165l-3.1-6c-1.5-2.9-5.8-0.3-4.3,2.5c1,2,2.1,4,3.1,6C374.9,170.4,379.3,167.9,377.8,165z" style="fill:#FFFFFF;"/>
	<path d="M375.5,142.9c-0.1,0-0.8,0-0.8,0c-0.2,0-0.3-0.1-0.5-0.1c-0.2-0.1-0.3-0.1-0.3-0.1c-0.1-0.1-0.3-0.1-0.4-0.2
		c-0.2-0.2-0.3-0.2-0.2-0.1c-0.1-0.1-0.6-0.6-0.5-0.5c-0.8-1.1-2.2-1.6-3.4-0.9c-1.1,0.6-1.7,2.3-0.9,3.4c1.6,2.2,4.1,3.7,6.9,3.5
		c1.3-0.1,2.5-1.1,2.5-2.5C378,144.1,376.9,142.8,375.5,142.9z" style="fill:#FFFFFF;"/>
	<path d="M419.9,146.1c-2-1.4-4.6-1.8-7-1c-3.1,0.9-1.8,5.8,1.3,4.8c1.1-0.3,2.1-0.2,3.1,0.5c1.1,0.8,2.8,0.2,3.4-0.9
		C421.5,148.2,421,146.8,419.9,146.1z" style="fill:#FFFFFF;"/>
	<path d="M460.8,257.7c-19.5-7.8-29.9-27-39.2-44.6c-1.5-2.8-5.8-0.3-4.3,2.5c10,18.9,21.3,38.5,42.2,46.9
		C462.5,263.7,463.8,258.9,460.8,257.7z" style="fill:#4A3B2A;"/>
</g>
</svg>
