<?xml version="1.0" encoding="utf-8"?>
<!-- Generator: Adobe Illustrator 20.1.0, SVG Export Plug-In . SVG Version: 6.00 Build 0)  -->
<svg version="1.1" id="Capa_1" xmlns="http://www.w3.org/2000/svg" xmlns:xlink="http://www.w3.org/1999/xlink" x="0px" y="0px" viewBox="0 0 800 600" style="enable-background:new 0 0 800 600;" xml:space="preserve">

<g>
	<g>
		<g>
			<path d="M583.4,316.3c-1.8-6.5-3.5-13.1-5.3-19.6c-0.4-1.6-2.3-2.3-3.7-1.5c-13.7,7.9-27.9,16-43.9,17.9
				c-15.2,1.7-30.7-0.8-45.6,3.7c-1.4,0.4-2,1.7-1.7,3.1c2,11.4,4.1,22.9,6.1,34.3c0.3,1.9,2.2,2.2,3.5,1.4c0.2,0.1,0.4,0.2,0.6,0.3
				c11.3,3.2,23,5.2,34.8,3.6c11.2-1.5,21.7-6.1,31.3-11.9c4.9-3,9.7-6.2,14.3-9.6c3.4-2.5,8.3-5,10.7-8.5
				C587.1,325.5,584.5,320.3,583.4,316.3z" style="fill:#4A3B2A;"/>
			<path d="M515.3,355.1c-1.6-3.5-4.5-3.1-7.8-3.1c-2.8,0-5.5-0.1-8.3-0.4l4.8-4.5c2.7-2.5-0.2-6.6-3.4-5.8
				c-2.1,0.5-4.1,0.9-6.2,1.4l2.7-2.8c1.9-2,0.7-6.3-2.5-6c-2.2,0.2-4.4,0.6-6.5,1.1c2.3-3.3,4.3-6.8,5.9-10.6
				c1.2-2.9-1.5-6.9-4.8-4.8c-24.4,15.9-48.8,31.8-73.2,47.7c-8.3-16.2-16.1-33-25.7-48.4c-7.4-11.9-17.5-23-32.4-23.8
				c0,0-0.1,0-0.1,0c-2.7-12.6-6-25.2-9.8-37.5c6.4,4.2,13.7,6.8,21.4,7.6c9,1,29.1-0.1,28-13.2c-0.5-6.4-3.1-13.2-5.2-19.2
				c-2.3-6.3-5-12.5-8.1-18.5c-6.3-12.1-14.4-23.4-23.9-33.3c-18.7-19.5-44.8-35.6-72.8-30.3c-12.3,2.3-23.5,9-30.6,19.4
				c-7.2,10.4-9.5,23.4-9.9,35.8c-0.4,11.6,0.6,23.3,1.7,34.9c-2.3-1.5-4.8-2.2-7.6-1.3c-6,2-7.2,10-6.5,15.4
				c0.7,5.6,3.9,11.1,9.7,12.6c2.2,0.6,4.7,0.5,6.9-0.1l2.6,30.7c-34.3,33.7-38.1,84.4-31,129.5c1.5,9.4,3,19.8,9.3,27.4
				c6,7.3,15.3,9.8,24.5,8.7c10.6-1.2,20.3-6.2,29.4-11.6c5.4-3.2,10.6-6.7,15.7-10.4c20.9,2.1,41.9-2.1,60.4-12.4
				c14.5,7.5,31.2,4.2,45.9-1.5c17.3-6.8,33.8-16,49.8-25.4c16.6-9.8,32.6-20.5,47.9-32.2C509.3,367.2,518.4,361.8,515.3,355.1z" style="fill:#F4BFAB;"/>
			<path d="M382,184.9c-2.1-5.7-11-9.8-16.3-12.3c-5.1-2.5-10.5-4.4-16-5.9c5.1-3.1,8.9-7.7,10.9-13.4
				c0.4-1.2-0.5-2.8-1.9-3.1c-10.4-1.8-20.8-0.4-30,3.9c3.8-7.1,6.7-14.5,8.5-22.3c0.4-1.9-1.3-3.6-3.3-3.1
				c-11.3,2.7-21.4,8.1-29.6,15.7c-1.7-7.2-5.4-13.7-10.9-19.2c-1.4-1.4-3.8-0.6-4.5,1.1c-1.9,5.5-2.8,11-2.6,16.6
				c-4.5-4.6-9.6-8.7-15.2-12.3c-1.6-1-4.2,0.3-4,2.2c0.5,5.9,2.2,11.4,5.1,16.4c-11.5-3.4-23.8-3.3-35.5,0.4
				c-1.5,0.5-2.6,2.3-1.6,3.7c3.2,4.4,7,8,11.4,10.9c-5.3,0.2-10.6,0.7-15.8,1.7c-4.7,0.9-14.3,2-16.2,7.2c-2,5.5,5.1,9,9.5,10.7
				c3.5,1.3,7,2.1,10.6,2.4c-6.5,4.6-12.1,11-10.8,18.7c1.3,7.5,7.5,6.5,13.6,3.4c-0.8,1.8-1.4,3.8-1.7,5.7
				c-0.8,4.3-0.7,10.2,3.8,12.8c5.3,3.1,9.7-2.5,12.8-5.9c3.9-4.3,7.4-8.8,10.7-13.5c0,7.1,2.2,13.8,7,19.7c1,1.2,2.9,1.8,4.2,0.5
				c3.1-3.3,5.5-6.9,7.2-10.7c1.4,3.5,3.4,8.7,8,8.7c5,0,6.9-6.1,8.5-9.5c1.7-3.7,3.1-7.4,4.5-11.2c2.8,7.8,7.6,16.6,15.6,15.3
				c11-1.7,9.4-13.1,9.7-21.7c5.7,6.4,13.8,11.1,22.9,7.9c6.5-2.2,10-8.7,8.4-14.4c5.1,1.6,9.9,4.3,15.6,2.9
				C379.6,193.8,383.7,189.9,382,184.9z" style="fill:#4A3B2A;"/>
			<path d="M300,234.8c-1.5-2.9-5.8-0.3-4.3,2.5c1.7,3.3,0.9,8.2-2.5,10.1c-3.2,1.8-8.7-1.1-8.1-5.1
				c0.5-3.1-4.4-4.5-4.8-1.3c-1,7.3,6.2,13.8,13.5,11.6C301.1,250.3,303.2,241.1,300,234.8z" style="fill:#4A3B2A;"/>
			<path d="M254.5,254.3c-2.7-2-5.7-3.4-9-4.2c-3.1-0.8-4.5,4-1.3,4.8c2.9,0.7,5.4,1.9,7.8,3.7c1.1,0.8,2.8,0.2,3.4-0.9
				C256.1,256.4,255.6,255.1,254.5,254.3z" style="fill:#4A3B2A;"/>
			<path d="M363.2,230l-4.9-5.8c-0.9-1-2.6-0.9-3.5,0c-1,1-0.9,2.5,0,3.5c1.6,1.9,3.3,3.9,4.9,5.8c0.9,1,2.6,0.9,3.5,0
				C364.2,232.5,364.1,231,363.2,230z" style="fill:#4A3B2A;"/>
			<path d="M371.2,217.2c-2-2.9-3.7-5.9-5-9.2c-1.2-3-6-1.7-4.8,1.3c1.4,3.7,3.2,7.2,5.5,10.4
				C368.7,222.3,373,219.8,371.2,217.2z" style="fill:#4A3B2A;"/>
			<path d="M382.1,240.2c-1.4-3-2.9-6-4.3-9c-1.4-2.9-5.7-0.4-4.3,2.5c1.4,3,2.9,6,4.3,9
				C379.2,245.7,383.5,243.1,382.1,240.2z" style="fill:#4A3B2A;"/>
			<path d="M375,249.6c-1.3-2.8-2.7-5.6-4-8.3c-1.4-2.9-5.7-0.4-4.3,2.5l4,8.3C372,255,376.4,252.5,375,249.6z" style="fill:#4A3B2A;"/>
			<path d="M495.8,380.9c-0.3-3.3-2.7-6.4-4.3-9.2c-2.4-4.2-5-8.4-7.6-12.5c-4.9-7.7-10.2-15.1-15.8-22.4
				c-0.9-1.2-2.2-1.5-3.4-0.9c-0.6-0.3-1.3-0.3-2.1,0.2c-15.9,9.1-31.7,18.2-47.6,27.3c-3.3-6.2-6.6-12.4-9.9-18.6
				c-3.6-8-7.5-15.8-12.2-23.2c-0.6-1-1.3-2-1.9-2.9c-0.8-1.4-1.5-2.8-2.3-4.1c-7.1-12.9-17.5-25.9-33.7-25.7
				c-0.5,0-0.8,0.1-1.2,0.3c-5.6,0.3-11.1,2.9-16.5,4.7c-9.4,3-19.1,5-28.9,5.9c-19.4,1.7-38.8-0.8-57.1-7.1c-1.8-0.6-3,0.8-3,2.4
				c-20.9,27.5-32.6,61.3-33.5,95.9c-0.5,17.5,1.9,35.4,7.3,52.1c2.2,6.7,5.1,13.4,10.3,18.2c-1.8,6-2.4,14.4,4.3,14.2
				c3.6-0.1,6.4-3.5,7.9-6.4c0.3-0.5,0.5-1.1,0.7-1.6c4,0.7,8.1,0.8,12.1,0.4c18.8-1.8,36.3-11.5,48.2-26.2
				c19.1,4.7,39.4,1.5,56-9.2c0,0,0.1,0.1,0.1,0.1c8.5,4.2,17.1,5.7,25.7,5.3c1.3,6.5,5,14.7,11.8,11.5c5.4-2.5,6.8-9,6.1-14.9
				c18.2-5.7,35.7-17.2,51-25.9c8.1-4.7,16.3-9.4,24.4-14.1C485.5,391.6,496.5,387.9,495.8,380.9z" style="fill:#ED7354;"/>
			<path d="M382.8,350.9c-0.5-4.8-3.6-9.6-8.6-9.4c-0.8-11.7-3.4-24.4-17.1-26c-9.4-1.1-19.7,1.2-29.1,2.1
				c-7.5,0.7-16.1,0.6-22.9,4.4c-7,3.9-8.9,11.2-9.1,18.7c-0.2,11.6,0.5,23.4,0.7,35c0,1.7,1.5,2.5,2.8,2.4c0.3,0.6,0.8,1,1.6,1.2
				c17.8,3.5,37.9,6.5,55.9,3.6c6.3-1,12.7-3.7,15.8-9.7c1.9-3.6,2.4-7.9,2.3-12.2c1.9-1,4.3,0,6.1-1.9
				C383.4,357.1,383.1,353.5,382.8,350.9z" style="fill:#4A3B2A;"/>
			<path d="M357.4,346.7c-0.9-0.2-1.9-0.2-2.8,0c-0.5-0.1-1.2-0.1-1.8,0.4c-1.1,0.7-1.8,1.7-2.2,2.8
				c-0.3,0.6-0.5,1.4-0.6,2.1c0,0.4,0.1,0.9,0.3,1.2c0.2,1,0.7,2,1.4,2.9c2.5,2.9,6.9,2,8.8-1.1
				C362.5,351.8,361.2,347.5,357.4,346.7z" style="fill:#ED7354;"/>
			<path d="M349.5,272.5l-9.9,3.6c-3,1.1-1.7,5.9,1.3,4.8c3.3-1.2,6.6-2.4,9.9-3.6C353.8,276.2,352.5,271.4,349.5,272.5
				z" style="fill:#4A3B2A;"/>
			<path d="M276,274.3c-0.3-2-0.5-4-0.8-6c-0.2-1.3-1.9-2.1-3.1-1.7c-1.4,0.4-1.9,1.7-1.7,3.1c0.3,2,0.5,4,0.8,6
				c0.2,1.3,1.9,2.1,3.1,1.7C275.7,277,276.2,275.6,276,274.3z" style="fill:#4A3B2A;"/>
			<path d="M268.6,287c-0.2-1.1-0.4-2.2-0.7-3.3c-0.3-1.3-1.9-2.1-3.1-1.7c-1.4,0.4-2,1.7-1.7,3.1
				c0.2,1.1,0.4,2.2,0.7,3.3c0.3,1.3,1.9,2.1,3.1,1.7C268.2,289.6,268.9,288.4,268.6,287z" style="fill:#4A3B2A;"/>
			<path d="M282,290.7C282,290.7,282,290.7,282,290.7C282.3,291,282.1,290.8,282,290.7c0-0.1,0-0.1-0.1-0.2c0,0,0,0,0,0
				c0,0,0,0,0-0.1c0,0,0,0,0-0.1c0.3-1.3-0.4-2.8-1.7-3.1c-1.3-0.3-2.7,0.4-3.1,1.7c-0.5,1.9,0,3.7,1.3,5.1c0.9,1,2.7,0.9,3.5,0
				C282.9,293.1,282.8,291.7,282,290.7z" style="fill:#4A3B2A;"/>
			<path d="M336.5,362c-2.4-1.9-5-1.1-7.5,1c0.3-2,0.4-4.1,0.5-6.2c0-2.3-2.7-3.1-4.3-1.8c-2,1.6-3.8,3.4-5.5,5.3
				c0.3-2.9,0.3-5.8,0-8.8c-0.2-1.9-2.8-3.7-4.3-1.8c-2.9,3.7-5.6,7.5-8.3,11.3c0.4-4.3,0.3-8.7-0.4-13.2c-0.2-1.4-1.9-2-3.1-1.7
				c-4.7,0.9-6.7,5-8.2,9.2c-2.5,6.9-5.1,13-10,18.6c-0.4,0.5-0.6,1-0.6,1.5c-0.9,0.7-1.3,1.8-0.5,3.1c5.5,8.2,13.5,14.4,23,17.2
				c4,1.2,9.4,2.5,13.4,0.8c4.1-1.7,6.9-6.6,9.3-10c2.9-4.1,5.5-8.6,6.9-13.4C337.9,370,339.5,364.4,336.5,362z" style="fill:#F4BFAB;"/>
			<path d="M309.6,409.3c-13.3-4.7-25-12.3-34.9-22.4c-0.5-0.6-1.2-0.8-1.8-0.7c3.1-3.3,6.2-6.6,9.3-9.9
				c2.2-2.3-1.3-5.9-3.5-3.5l-13.3,14.2c-1.2-12.8-1.2-25.7-0.2-38.6c0.3-3.2-4.7-3.2-5,0c-1.2,14.4-1,28.9,0.7,43.2
				c0,0.1,0,0.1,0,0.2c-6.6,7-13.1,14-19.7,21c-2.2,2.3,1.3,5.9,3.5,3.5l25.7-27.4c0,0.6,0.2,1.1,0.7,1.6
				c10.4,10.7,23,18.7,37.1,23.6C311.3,415.2,312.6,410.3,309.6,409.3z" style="fill:#FFFFFF;"/>
			<path d="M315.4,407.3c-3.3,11.3-8,22-14,32.2c-1.6,2.8,2.7,5.3,4.3,2.5c6.2-10.5,11-21.6,14.5-33.3
				C321.1,405.5,316.3,404.2,315.4,407.3z" style="fill:#FFFFFF;"/>
			<path d="M368.3,391.4c0.2-3.2-4.8-3.2-5,0c-0.8,12.9-0.9,25.9-0.1,38.8c0.2,3.2,5.2,3.2,5,0
				C367.4,417.3,367.5,404.3,368.3,391.4z" style="fill:#FFFFFF;"/>
			<path d="M482.9,382l-9.9-13.7c-6.4-8.9-12.8-17.7-19.1-26.6c-1.9-2.6-6.2-0.1-4.3,2.5c5.8,8.1,11.6,16.1,17.4,24.2
				c2.7,3.8,5.4,7.5,8.1,11.3c1.5,2.1,3.1,4.3,4.6,6.4c0.5,0.7,2.1,2.4,2.9,3.8c-0.4,0.9-0.3,2.1,0.5,2.8c1,0.9,1.8,1.2,3.2,0.9
				c1.2-0.2,1.7-1.3,1.8-2.4C488.6,387.9,484.7,384.5,482.9,382z" style="fill:#FFFFFF;"/>
			<path d="M573.5,316.2c-1.7-4-3.4-9.6-8.5-10.4c-2.5-0.4-4.7,0.8-6.8,1.9c-3.4,1.8-6.8,3.6-10.4,5.1
				c-14.5,6.4-30.2,9.9-46.1,8.5c-3.2-0.3-3.2,4.7,0,5c8.1,0.7,16.2,0.2,24.2-1.3c-0.2,0.4-0.3,0.8-0.3,1.4
				c0.7,7.8,2.4,16.2,10,19.7c-5,2.2-10.6,4.1-15.9,2.9c-3.1-0.7-4.5,4.1-1.3,4.8c7.1,1.6,13.6-0.9,20.1-3.6c6-2.5,11.7-5.5,17.2-9
				c5.9-3.8,11.6-8,16.7-12.8C577,324.1,575.7,321.5,573.5,316.2z M570.3,323.6c-0.3,0.8-1.9,1.7-2.5,2.3
				c-4.3,3.8-8.9,7.3-13.7,10.4c-4.3,2.8-8.8,5.3-13.4,7.5c1.8-4.3,2.1-9.1,0.5-13.6c-0.9-2.5-2.6-5.9-5-7.8
				c4.3-1.3,8.5-2.9,12.6-4.6c2.5-1.1,4.9-2.2,7.3-3.4c3.1-1.6,7.3-5.4,10.5-1.8c1.3,1.5,1.9,4.2,2.7,6
				C569.8,320.2,570.9,322.1,570.3,323.6z" style="fill:#FFFFFF;"/>
			<path d="M519.3,333.5c-3.2,0-3.2,5,0,5C522.5,338.5,522.5,333.5,519.3,333.5z" style="fill:#FFFFFF;"/>
			<path d="M551,323.8c-3.2,0-3.2,5,0,5C554.2,328.8,554.2,323.8,551,323.8z" style="fill:#FFFFFF;"/>
			<path d="M234.3,372.1l-1.1,9.7c-0.4,3.2,4.6,3.2,5,0l1.1-9.7C239.7,368.9,234.7,368.9,234.3,372.1z" style="fill:#FFFFFF;"/>
			<path d="M223.7,394.1v8.8c0,3.2,5,3.2,5,0v-8.8C228.7,390.9,223.7,390.9,223.7,394.1z" style="fill:#FFFFFF;"/>
			<path d="M238.9,434.9c-1.2-3.8-2.3-7.6-3.5-11.5c-0.9-3.1-5.8-1.8-4.8,1.3c1.2,3.8,2.3,7.6,3.5,11.5
				C235,439.3,239.9,438,238.9,434.9z" style="fill:#FFFFFF;"/>
			<path d="M368.7,291c-17.5,12.2-38.4,16.6-59.4,17.8c-10.1,0.5-20.3,0.4-30.5,0c-11.3-0.4-23.7,0-34.2-4.8
				c-2.9-1.3-5.4,3-2.5,4.3c10.3,4.7,21.6,4.8,32.7,5.3c11.5,0.5,23,0.8,34.5,0.2c21.8-1.2,43.7-5.8,61.9-18.4
				C373.9,293.5,371.4,289.2,368.7,291z" style="fill:#FFFFFF;"/>
		</g>
		<path d="M256.4,193.6c-1.2,2-2.3,3.9-3.5,5.9c-1.7,2.8,2.7,5.3,4.3,2.5c1.2-2,2.3-3.9,3.5-5.9
			C262.3,193.4,258,190.9,256.4,193.6z" style="fill:#FFFFFF;"/>
		<path d="M275.7,187.3c-1.4-0.4-2.6,0.5-3.1,1.7c-0.8,2.2-1.2,4.7-0.9,7c0.1,1.3,1.1,2.5,2.5,2.5
			c1.3,0,2.6-1.1,2.5-2.5c-0.2-2,0.1-3.8,0.8-5.7C277.9,189.2,276.9,187.7,275.7,187.3z" style="fill:#FFFFFF;"/>
		<path d="M259.1,174.2c-1.4-0.4-2.6,0.5-3.1,1.7c-0.4,0.9-1.2,2.4-1.9,3.2c-0.9,1-1,2.5,0,3.5c0.9,0.9,2.7,1,3.5,0
			c1.4-1.6,2.4-3.4,3.1-5.4C261.4,176,260.3,174.5,259.1,174.2z" style="fill:#FFFFFF;"/>
	</g>
	<path d="M345.6,343.1c1.8-2.6,4.2-2.8,7.3-2.8c6.2-0.1,12.3,1,18.2,2.6c3.1,0.9,4.4-4,1.3-4.8c-7.4-2-16.4-4-24.1-2.4
		c-7.6,1.5-9.1,7.8-9.7,14.7c-0.7,7.1-0.5,12.6,6.9,15.2c8,2.9,16.7,2.1,25,1.2c3.2-0.3,3.2-5.4,0-5c-4.8,0.5-9.6,1-14.4,0.8
		c-2.8-0.1-5.7-0.6-8.4-1.5c-4.2-1.4-4.3-4.9-4.1-8.8C343.7,349.2,343.8,345.7,345.6,343.1z" style="fill:#FFFFFF;"/>
</g>
</svg>
