<svg xmlns="http://www.w3.org/2000/svg" viewBox="0 0 1069.39 734.67"><title>listIsEmpty</title><g id="Layer_2" data-name="Layer 2"><g id="Layer_1-2" data-name="Layer 1"><path d="M880.4,696.25a37.66,37.66,0,0,0-.25-5.29c-.12-1-.27-2-.47-3.06-.1-.52-.21-1-.33-1.56l-.2-.79-.21-.72-.85-2.86-1-2.79a92.05,92.05,0,0,0-4.8-10.52c-3.55-6.68-7.45-12.63-10.87-18.29a74.29,74.29,0,0,1-4.07-7.69c-.29-.64-.53-1.28-.79-1.92l-.38-1-.39-1-1.54-4.23c-2.05-5.63-4.07-11.26-6.11-17.3-3.57-10.63-9.14-21.72-13-32.56s-6.7-19.87-10.2-26l2.64-16.41a145,145,0,0,0,1.88-14.92,28.78,28.78,0,0,1,.23-3.07c.11-1,.24-1.88.38-2.76a36.43,36.43,0,0,1,1.33-4.86,38,38,0,0,1,2.16-4.54c.93-1.54,2-3.07,3.28-4.91,5.32-7.39,8.63-19.23,8.29-33.44,2.57-4.75,4.91-11,5.39-20.82.71-14.86-.33-30.33-3.93-44.1-.75-3-1.59-5.87-2.35-8.7s-1.6-5.57-2.46-8.31c-1.65-5.5-3.39-11-5.38-16.82a169.62,169.62,0,0,0-20-40.11l-2.53-3.7c-.84-1.22-1.72-2.41-2.55-3.6-1.64-2.41-3.43-4.63-5.09-6.94-3.5-4.49-7-9-11-13.74a110.83,110.83,0,0,0-12.6-12.62c-4.63-4-9.49-7.83-14.21-11.51-10-7.81-19.26-13.25-26.39-14.76a84.15,84.15,0,0,0-16.72-15.18A89.41,89.41,0,0,0,705.88,243c-4.11-5.9-10-11.8-15.9-17s-11.91-9.68-16.85-12.2c-.79-1.89-1.56-3.88-2.67-6a36.71,36.71,0,0,0-4.61-7.15c-13.24-16.5-24.76-35.15-39.12-50.21a21.45,21.45,0,0,1-3.41-4.78c-2-3.44-3.76-6.32-5.47-8.83a67.83,67.83,0,0,0-5-6.66,58.26,58.26,0,0,0-5.52-5.66c-2-1.84-4.3-3.74-7.05-5.79a76.46,76.46,0,0,0-4.35-7.76c-.88-1.35-1.85-2.75-3-4.23s-2.45-3-3.94-4.56A304.68,304.68,0,0,0,555.9,71.69a54.59,54.59,0,0,0-12.12-7.53,18.87,18.87,0,0,1-7.42-5c-9.13-9-19.1-14.71-29.73-17.36-3.77-.91-4.82-1.66-7-3.76A39.75,39.75,0,0,0,493,33a98.08,98.08,0,0,0-9.26-4.83,57.81,57.81,0,0,0-7.07-2.58c-2.29-.65-4.49-1.08-6.46-1.48-3.93-.81-7-1.15-8.5-2-7.19-4-13.25-7.37-23.56-10.22-12.63-3.42-26.09-7-38.29-8.06C387,2.75,375.88,1.43,363.78.15a36.53,36.53,0,0,0-6.51,0,45.46,45.46,0,0,0-5.55.79,33.53,33.53,0,0,1-9.51,1c-3.79-.33-7.32-.83-11-.95-1.86-.08-3.77-.13-5.79-.12s-4.13.2-6.41.41c-3.27.28-6.53.72-9.78,1.14s-6.5.94-9.74,1.49S293,4.95,289.74,5.53l-9.63,2.1a48.43,48.43,0,0,0-12.06,3.93c-3.71,1.93-6.41,2.17-11,3.35-21.53,5-42.49,14.93-61,27.74a26.78,26.78,0,0,0-4.93,4.79,10.64,10.64,0,0,1-2.46,2.38,24.9,24.9,0,0,1-3.58,1.74c-5.66,2.46-10.67,5-15,8.61A72.22,72.22,0,0,0,163.61,66c-2.06,2.24-4.12,4.68-6.23,7.39a24.05,24.05,0,0,1-2.13,2.53,18,18,0,0,1-3,2.48c-3.2,2.22-6,4.22-8.42,6.26a75.43,75.43,0,0,0-6.37,6.3c-1,1.09-1.92,2.17-2.79,3.37s-1.71,2.46-2.56,3.78-1.69,2.72-2.56,4.21-1.76,3.05-2.59,4.82a83,83,0,0,0-6.68,5.87q-.87.86-1.76,1.8c-.58.64-1.15,1.33-1.74,2.06-1.18,1.45-2.4,3-3.68,4.85a45.57,45.57,0,0,0-3.24,5.13c-.86,1.65-1.6,3.2-2.28,4.69l-2,4.33c-.33.7-.67,1.4-1,2.09s-.69,1.41-1.07,2.12a48.9,48.9,0,0,1-5.65,7.75c-1.13,1.32-2.21,2.79-3.35,4.4s-2.28,3.38-3.4,5.38c-.6,1.07-1.13,2.11-1.61,3.12s-.83,2-1.18,3c-.7,1.95-1.25,3.79-1.77,5.53s-1,3.37-1.63,4.93a21.67,21.67,0,0,1-2.12,4.47,115.63,115.63,0,0,0-11.27,22.07c-3.44,9.08-6.6,18.28-9.56,27.5-.92,2.93-1.77,5.77-2.52,8.5s-1.23,5.35-1.66,7.81a58.83,58.83,0,0,0-.79,6.85,26.2,26.2,0,0,0,.39,5.69c-8,13.83-10.57,27.14-8.87,43.7-6.43,15.05-7.78,26.05-4.82,44.84a42,42,0,0,0-2.35,6.27,41,41,0,0,0-1.21,8.74c-.07,2.65-.25,5.31-.29,8l-.17,8c0,2.68-.19,5.36-.12,8s.08,5.35.11,8c0,5.34.46,10.65.94,15.89A130.84,130.84,0,0,0,42.94,424a16.35,16.35,0,0,1,.49,5c-.76,14.17,1.75,26.26,6.5,36.25a58.08,58.08,0,0,0-.36,8.6,64.46,64.46,0,0,0,1.5,10.62l1.15,5.5,1.28,5.5c.87,3.67,1.69,7.36,2.62,11a211.85,211.85,0,0,0,6.53,21c1.16,3,2.16,6,3.23,8.85S68,542,69,544.83l1.45,4.24c.47,1.42,1,2.82,1.52,4.25,1,2.85,2,5.76,3,8.77a203.7,203.7,0,0,0,18,38.36c6.89,11.21,12.9,20.84,20.14,31.95.94,1.42,1.89,2.87,2.89,4.32l3.21,4.26c1.1,1.42,2.18,2.88,3.35,4.27l3.61,4.13,1.83,2c.6.69,1.23,1.35,1.89,2l3.89,3.81a102.78,102.78,0,0,0,8,6.93c2.57,2.2,5.27,4.07,7.8,6l1.9,1.47c.62.5,1.25,1,1.91,1.42l3.86,2.73,3.83,2.76,4,2.59,4,2.66c1.37.87,2.81,1.65,4.25,2.51A118.16,118.16,0,0,0,212.5,701.1c1.69.31,3.34.61,5,.87s3.29.55,4.92.79l4.85.76,4.79.66c1.59.25,3.19.43,4.79.63s3.2.43,4.82.61c3.23.34,6.51.78,9.89,1.08,12.94,1.37,26.92.53,40.31-.27,8-.49,14.78-1.66,19.24-3.64,3-1.31,4.34-1.33,7.87-.83A73.18,73.18,0,0,0,355,697.2c3.67-1.47,4.93-1.45,7.89-.95,4.68.81,11,.47,18.44-.44,10.24-1.25,17.63-5.56,21.89-5.57,7.87,0,14.1.66,24.14-.73,12.75-1.77,26-2.89,38.18-4.87,12.5-2,24.15-3.52,36.35-3.48.33,0,.73-.06,1.09-.08,8.18-.58,13-3.27,18.47-3.47,6.27-.24,11.2,1.6,19.85,1.23,14.62-.62,29.69-.06,43.7-.29a196.08,196.08,0,0,1,33.7,2.24c13.76,2.07,29.15,4.28,43.07,6.25,3,.39,6,.8,8.83,1.23l2.13.33.94.16,1,.19,4.25.83c2.84.56,5.61,1.19,8.43,1.87s5.68,1.42,8.63,2.23c13.26,3.64,28.18,7.42,41.52,9.94a358.65,358.65,0,0,1,36.33,9.08c6.15,1.81,12.7,3.55,19.27,5.1,3.29.75,6.58,1.49,9.84,2.12l4.84.91,4.56.8c6.65,1.29,13.16,3.23,19.68,5,3.26.91,6.58,1.76,10,2.56A76.21,76.21,0,0,0,853,731.19a34.53,34.53,0,0,0,5.51,0c1-.13,2-.22,3-.42l1.61-.43a9.75,9.75,0,0,0,1.58-.54,18,18,0,0,0,3-1.51l1.41-.91c.43-.34.85-.7,1.27-1.05a23.69,23.69,0,0,0,4.18-4.77A34.52,34.52,0,0,0,879,710.93a53.53,53.53,0,0,0,1.52-10.77C880.62,698.79,880.43,697.53,880.4,696.25Z" style="fill:#f1c517;"/><path d="M839.32,175.81a5,5,0,0,0-1.29-2.25c-.82-.83-.89-1.25-.54-2.55a11.81,11.81,0,0,0,.13-6.4,13.18,13.18,0,0,0-.47-1.49,12.56,12.56,0,0,0-.76-1.45,21.21,21.21,0,0,0-2.12-2.91,3.07,3.07,0,0,1-1.1-2.34,20.79,20.79,0,0,0-.56-3.88,13.26,13.26,0,0,0-1.29-3,12.32,12.32,0,0,0-.9-1.31,10.79,10.79,0,0,0-1.19-1.2,26.45,26.45,0,0,0-3.13-2.35,14,14,0,0,0-.84-3.26,11.29,11.29,0,0,0-2.12-3.53,12.54,12.54,0,0,0-3.2-2.6,16.77,16.77,0,0,1-3-1.78,12,12,0,0,1-2.06-2.83,13.62,13.62,0,0,0-2.71-3.45,11.8,11.8,0,0,0-4.2-1.93c-1.31-.38-2.51-.61-3.33-1.56-.51-.57-1-1.12-1.55-1.64a22.06,22.06,0,0,0-1.71-1.39c-.6-.44-1.22-.86-1.88-1.27-.33-.2-.67-.41-1-.6l-1.13-.5a81.72,81.72,0,0,0-10.09-3.57,19.27,19.27,0,0,0-6.15-.86,11.27,11.27,0,0,0-2.58.41,7.2,7.2,0,0,0-1.1.42,5.94,5.94,0,0,0-1,.66,17.48,17.48,0,0,0-4-2.07,11.65,11.65,0,0,0-4-.51c-2.69,0-5.31,1.26-7.91,3.17-6.08-2-10.31-1-15.43,4.15a10.48,10.48,0,0,0-2.63-.63,7.24,7.24,0,0,0-3.13.51c-7,2.76-14.33,5-20,9.64a2.65,2.65,0,0,1-1.55.76,14.9,14.9,0,0,0-11.17,6,12,12,0,0,0-6.74.52c-1.17.46-2.37.81-3.57,1.16s-2.41.72-3.61,1-2.39.59-3.55.93c-.58.16-1.15.37-1.73.52s-1.14.31-1.69.48a27.91,27.91,0,0,1-11.89,1.31c-4.45-.37-9.27-.75-13.72-1a29,29,0,0,1-11.79-3.23c-3.94-2-8.36-4.16-12.36-6a30.89,30.89,0,0,1-9.93-7.39,137.29,137.29,0,0,0-9.84-9.66,55.28,55.28,0,0,1-9-9.91c-2.64-3.63-6.22-7-9.59-10.32a18.4,18.4,0,0,0-3.06-2.48,7.79,7.79,0,0,0-3.06-1.14c-1.32-.16-1.61-.55-2.15-1.83A12.11,12.11,0,0,0,578.71,82c-1.57-.05-1.88-.38-2.46-1.47a8.37,8.37,0,0,0-2.08-2.34,18.25,18.25,0,0,0-3.26-2,10.77,10.77,0,0,0-5-.82c-1.49,0-2.67.17-3.34-.23s-1.2-.79-1.78-1.19-1.18-.75-1.81-1.1a13.31,13.31,0,0,0-4.55-1.6c-4.72-.75-9.76-1.43-14.38-.66s-9,1.84-13.57,2.5a3.11,3.11,0,0,0-.39.13c-3,1-4,3.37-5.85,4.12a12.93,12.93,0,0,1-3.35.76A9.7,9.7,0,0,0,513,79.55c-4.58,3.1-9.25,6.74-12.19,11.33-2.44,3.89-4.31,7.19-6.47,11.3a25.87,25.87,0,0,0-2.63,8.21,29,29,0,0,0,.08,8.54,101.75,101.75,0,0,0,3,13.21,26.74,26.74,0,0,0,3.78,7.62,20.18,20.18,0,0,0,6.49,5.92,45,45,0,0,0,14.21,4.8,49.67,49.67,0,0,0,14.12.15c4.67-.54,8.81.07,12.1,2.19a34.72,34.72,0,0,1,4.4,3.32,39.2,39.2,0,0,1,4.33,4.35c.25.3.57.51.83.79l3.15-2.46h0l-3.15,2.46a15.22,15.22,0,0,0,.82,1.3c2.7,3.8,4.75,8.28,7.19,12.26A40.54,40.54,0,0,1,568,186.27c1,3.75,3,7.62,4.52,11.52s3.55,7.07,6.5,8.24c-.28,4.51,1.4,9.17,4.53,11.12,2.88,1.95,3.9,3.13,4.75,6.5a8.69,8.69,0,0,0,3.06,4.46A17.41,17.41,0,0,0,594,230a31.43,31.43,0,0,0,3.44,1.55,11.07,11.07,0,0,0,1,3.36,13.46,13.46,0,0,0,2.73,3.41l1.42,1.34c.48.44,1,.86,1.46,1.3l2.94,2.58a53.25,53.25,0,0,0,6.19,4.5c1.89,1.07,3.6,2.12,5.25,3.27s3.31,2.25,5,3.6a59.38,59.38,0,0,0,6.59,4.31,63,63,0,0,0,7.13,3.3c2,.73,3.84,1.46,5.62,2.3a43,43,0,0,1,5.38,2.81,37.9,37.9,0,0,0,5.62,2.56c2,.77,4,1.38,6,2.18,4.13,1.63,7.89,2.33,10.76,1.06,4.29,4.72,9.2,6.06,15,4.06,4,4.41,11.32,5.28,15.39,2.83a8.34,8.34,0,0,0,5,2.84c7.53.92,15.45,2.38,22.78.29a3.57,3.57,0,0,1,2.09,0,17.6,17.6,0,0,0,6.68.43,15,15,0,0,0,5.72-2.5,15.86,15.86,0,0,0,3.23.88,11.6,11.6,0,0,0,4-.06A141.93,141.93,0,0,0,766,278.42a11.26,11.26,0,0,0,4.45-2.55,3.2,3.2,0,0,1,2.93-1.22,14.11,14.11,0,0,0,6.36-1.33,12.27,12.27,0,0,0,4.59-4c.86-1.24,1.28-1.4,2.52-1.28a8.35,8.35,0,0,0,3.07-.37,20.29,20.29,0,0,0,3.39-1.56,11.19,11.19,0,0,0,3.63-3.6c.43-.61.8-1.17,1.13-1.6a2.15,2.15,0,0,1,.9-.84c1.44-.45,2.81-.84,4.19-1.41a17.87,17.87,0,0,0,4.16-2.67c3.46-3.14,7.45-6.21,9.87-9.94a100.43,100.43,0,0,1,8-10.26,8.05,8.05,0,0,0,1.6-4.08c.24-1.29.32-2.47,1.08-3.29.94-1,1.92-1.92,2.76-3a18.22,18.22,0,0,0,2.29-3.75,102.22,102.22,0,0,0,4.6-13.36A19.86,19.86,0,0,0,838,206a7,7,0,0,0-.09-2.16c-.37-1.57.16-2.43.7-4C841.26,192.21,841.18,183.7,839.32,175.81Z" style="fill:#382d15;"/><path d="M712.62,418.17c.47-7.18-.05-15.17-.1-22.78s-.67-14.14-2.83-18.41c2.21-7.08,2.87-15.44,1.29-21.4-1.53-5.72-1.62-8.66-.42-14.38s.19-12.85-2.27-21.57a35.47,35.47,0,0,0,1.94-13.4l-.14-7.09-.16-3.6-.26-3.6a76.91,76.91,0,0,0-2.42-14c-1.11-3.9-2.27-7.5-3.6-11.06A88.74,88.74,0,0,0,698.87,256a45.55,45.55,0,0,0-9.28-12.17,45,45,0,0,0-12.79-8.42,85.06,85.06,0,0,0-11-3.84c-3.61-1.05-7.25-1.86-11.21-2.69A61.37,61.37,0,0,0,643,227.83c-3.9,0-7.81.08-11.57,0-4-.08-7.6-.12-10.78.06a32.92,32.92,0,0,0-8.16,1.2c-4.63-2.33-8.66-4.18-12.56-5.77s-7.78-2.95-12.19-4.84c-1-2-1.88-4-2.71-6.14s-1.58-4.27-2.29-6.47c-1.43-4.38-2.66-8.92-4.23-12.17a30.68,30.68,0,0,0,2.41-9.28c.26-3.32.72-6.67,1.26-10l.85-5.08.22-1.28c.07-.42.13-.93.2-1.39.13-.94.25-1.88.3-2.82a41,41,0,0,0-4-21.42,15.44,15.44,0,0,1-.85-1.95c-.2-.58-.32-1.16-.55-1.84A27.66,27.66,0,0,0,572,127.16a16.76,16.76,0,0,0-2.08-1.88,15.22,15.22,0,0,0-2.32-1.57c-.82-.48-1.67-.95-2.58-1.42s-2-.81-3-1.21a18.93,18.93,0,0,0-2-2.09c-.37-.34-.75-.68-1.15-1a9.69,9.69,0,0,0-1.29-1,32.92,32.92,0,0,0-3.08-1.85,33.85,33.85,0,0,0-3.94-1.5,42.26,42.26,0,0,0-15.65-1.42,42.91,42.91,0,0,0-15.08,4.36,24.71,24.71,0,0,0-4.56,2.93q-.94.84-1.73,1.66c-.26.27-.52.54-.75.81s-.43.57-.62.85a17.52,17.52,0,0,1-1.79,2.22,16.7,16.7,0,0,1-2.56,2.16,23.34,23.34,0,0,0-7.63,10.06A20.64,20.64,0,0,0,499,148.83a14.66,14.66,0,0,1,.41,2.95,5.77,5.77,0,0,1-.16,1.17c-.09.41-.16.84-.29,1.35a18.86,18.86,0,0,0-.43,2.63,29.38,29.38,0,0,0,.12,3.08,19.74,19.74,0,0,0,.63,3.42c.15.59.29,1.21.48,1.81l.69,1.82a18.54,18.54,0,0,0,1.11,2.44c.44.75.91,1.46,1.37,2.13a23.66,23.66,0,0,0,2.91,3.45l1.33,1.37,1.25,1.14a11.59,11.59,0,0,1,1.63,1.73,28.77,28.77,0,0,0,5.26,6.43,24.82,24.82,0,0,0,8.34,5A41.61,41.61,0,0,0,533.82,193a34.42,34.42,0,0,0,5.94,0c.4,3.48.71,6.72.79,9.89a50.6,50.6,0,0,1-.77,10.73,50.68,50.68,0,0,0-.62,6.88c-.13,2-.46,3.79-1.64,5.07a16.7,16.7,0,0,1-4.74,3.5,40.8,40.8,0,0,1-6,2.36,50.52,50.52,0,0,1-11.36,1.87l-12.41.86a34.12,34.12,0,0,0-8,1.24c-2.55.87-4.28.73-7.31.75a101.66,101.66,0,0,0-21.5,2.44c-.9.19-1.78.43-2.68.65-.46.12-.86.21-1.36.35s-1.09.32-1.69.56a11.07,11.07,0,0,0-1.9.95,8.09,8.09,0,0,0-2.08,1.81,8,8,0,0,0-.9,1.49,7.49,7.49,0,0,0-.49,1.74,7.92,7.92,0,0,0,0,1.63,10.78,10.78,0,0,0,.26,1.36,12.42,12.42,0,0,0,1.76,3.52,29,29,0,0,0,1.9,2.4c1.26,1.45,2.51,2.74,3.72,4a16.06,16.06,0,0,0,3.38,2.58c1.47.88,2,1.54,2.51,3.54a26,26,0,0,1,.82,4.71,12.9,12.9,0,0,1-.22,3.54,35.22,35.22,0,0,0-.18,12.07,9.61,9.61,0,0,1-.13,4.67c-2.23,10-1.69,14.94.68,24.46A59.51,59.51,0,0,0,467.25,327c-.5,5.55.5,9,.23,13.09-.27,3.9-2.4,7.46-3.42,13.09-1.11,6,.27,10.19-1.38,14.12-2,4.76-3.74,9-5.6,14.35-2,5.72-4.27,11.41-6.73,17-3.12,7.11-5.46,13.46-5.11,18-6.94,7.67-10.38,15.7-10.87,26.61a40.7,40.7,0,0,0-3.87,6.37c-.52,1.05-1,2.1-1.41,3.17a26.19,26.19,0,0,0-1,3.28c-.27,1.12-.5,2.26-.68,3.44a25.88,25.88,0,0,0-.37,3.68,63,63,0,0,0,.25,8.42,24.63,24.63,0,0,0-2,3.89,22.33,22.33,0,0,0-.86,2.54,21.28,21.28,0,0,0-.52,3c-1.5,13.68-2.9,27.79-1,40.91a9,9,0,0,1,.05,3.21A47.77,47.77,0,0,0,424,548.78a36.5,36.5,0,0,0-2.1,12.1c-.14,4.7-.4,9.49-.77,14.2l-.12,1.76-.06.88,0,.26-.11.18c-.24.37-.53.78-.86,1.24-.65.9-1.36,1.86-2.08,3a20.38,20.38,0,0,0-1.08,1.85c-.18.32-.37.78-.54,1.19-.09.26-.18.54-.26.8l-.06.2,0,.14-.05.28a31,31,0,0,0-.31,7c.09,2.05.23,4,.22,5.7l0,1.36,0,1.43-.12,2.88c-.1,1.93-.22,3.89-.36,5.92a233,233,0,0,0-.36,27A211.29,211.29,0,0,1,415,662a190.9,190.9,0,0,0,.55,26.94c.18,1.91.33,3.76.45,5.57l.27,4.26,4-.67c6.17-1,12-1.68,18.39-2.15,4.24-.33,8.67-.77,13.07-1.28s8.78-1.16,12.9-1.87,8.25-1.32,12.27-1.73,8.05-.72,12.32-.85c4.09-.15,8.31-.54,12.58-.91s8.57-.85,12.82-1.1c5-.34,9.38-1,12.28-2.3,1.93-.87,2.82-.8,5.05-.27a44.45,44.45,0,0,0,11.67,1.17,45.1,45.1,0,0,0,11.59-1.93c2.45-.77,3.25-.65,5.09,0,2.89,1,6.94,1.46,11.72,1.56,6.6.23,11.76-2.06,14.46-1.56,2.49.51,4.69,1.11,7.08,1.61a59.74,59.74,0,0,0,8.21,1.1c2.06.13,4.13.3,6.2.47s4.15.35,6.21.59c4.12.46,8.21.8,12.16,1A114.44,114.44,0,0,1,649.53,693c.2.05.46.08.69.12,5.2.9,8.7-.25,12.14.46,3.75.78,6.45,2.76,11.47,3.87l4.89,1.08.06-5.11c0-.23,0-.48,0-.74,0-9.5.48-19.3,0-28.42a176.85,176.85,0,0,1,.13-22,247.07,247.07,0,0,0,.16-28.31,188.82,188.82,0,0,1,.1-22.68,234.56,234.56,0,0,0,.17-27.59c-.26-4.26-.34-8.22-.29-12.15l.06-2.95.08-3.06c0-2,0-4.05,0-6.16.05-4,.14-8.14,1-11.42l.36-1.15c.16-.33.27-.71.43-1a3.43,3.43,0,0,1,.81-1.22,12,12,0,0,1,1.86-1.35l2.59-1.54a25.17,25.17,0,0,0,3.38-2.35l.45-.39.32-.31.61-.61,1.22-1.2c1.61-1.62,3.18-3.24,4.68-4.94a60.85,60.85,0,0,0,8.2-11.35,44.68,44.68,0,0,0,4.46-12.57,96.9,96.9,0,0,0,1.59-13c.05-.81,0-1.57,0-2.34l-4-.23h0l4,.23c.11-1,.19-2,.26-3.06.6-9.29,1.24-18.91.93-27.83-.16-4.1-.26-7.93-.21-11.76S712.34,422.26,712.62,418.17ZM424.24,578.79h-.18l-.17,0Z" style="fill:#4e73b8;"/><path d="M469.64,105.38c-.12-.12-.16-.41-.45-.18s-.4.2-.36-.2-.22-.14-.31-.26-.34.12-1,1.31c.61-1.48.74-2.08.23-1.28s-.54.75-.22-.11,0-.44-.83.85c.32-.79.54-1.4.44-1.44s-.19-.37-.47-.14-.35.15-.35-.16-.17-.44-.46-.18-.38.24-.34-.17-.22-.15-.31-.27-.33.1-1,1.32c.73-2.07.57-2.11-.44-.22.77-2.14.42-1.92-.46-.16a6.08,6.08,0,0,0,.42-1.4c-.21-.12-.16-.88-.85.19-.08.13-.06,0,0-.08.19-.92.08-.83-.63.5.19-.62.37-1.23.28-1.26s-.31-.12-.46-.18-.2.18-.4.57-.21.4-.12,0q.45-1.69-.46.13c-.21.43-.21.38-.07-.06.21-.67.24-.95.18-1s-.76,1.37-.69,1.11c.15-.64.32-1.3.19-1.3s-.18-.37-.44-.06-.35.19-.35-.19-.63,1.23-.56.85.21-1,.11-1a1.53,1.53,0,0,1-.42-.12s-.12,0-.27.36-.15.2-.14,0c.07-.92-.24-.81-.65-.38a4.09,4.09,0,0,0-.28.6c-.17.4-.18.39-.09,0,.32-1.36.23-1.44-.3-.32-.1.22-.15.33-.09,0,.26-1.33.15-1.27-.5.18.15-.65.25-1.18.17-1.22s-.42.8-.53.9.17-1,.1-1.08-.59,1.28-.52.81.11-.93,0-.95a.52.52,0,0,1-.31-.1c-.11-.1-.31.15-.78,1.48.48-2.16.33-2.22-.43-.26.42-2,.3-2.08-.48-.12a5,5,0,0,0,.23-1.41c-.23,0-.27-.81-.81.3,0,.1-.08.16-.06,0,.16-1.17-.09-.79-.57.55.15-.77.22-1.29.14-1.32s-.25-.38-.5-.06-.33.2-.39-.12-.23-.39-.46-.09-.34.26-.4-.12-.22-.44-.46-.1-.33.22-.41-.09-.23-.41-.44-.12-.34.25-.42-.1-.28-.11-.42-.15-.22.22-.42,1c-.14.49-.14.42-.09,0,.17-1.45,0-1.48-.4-.06-.14.47-.14.38-.08-.06.09-.7.07-1,0-1s-.5,1.48-.49,1.19c0-.53.1-1.31,0-1.3s-.25-.28-.44,0-.36.42-.4-.12c0,0,0,0,0,0s-.35,1.09-.4,1,.08-1.12,0-1.11-.29-.31-.5,0-.29.26-.38-.07-.27-.41-.48-.09-.3.27-.39,0-.26-.45-.47-.09-.31.23-.41-.08-.25-.38-.44,0-.33.24-.45-.08-.27-.12-.42-.12,0,.08-.05.09v.11l-.2,0a32,32,0,0,0-6.14,0,13.17,13.17,0,0,1-5.19,0,31.32,31.32,0,0,0-5-.09c-1.7-.06-3.13.26-4.09,1.63-1.56-1.59-3.4-2.19-4.73-1.25s-1.93.91-3.19,0-2.85-.37-4.79,1.12a3.69,3.69,0,0,0-3-1.49,38.49,38.49,0,0,0-6.14.08,14.18,14.18,0,0,1-4.92,0,19.29,19.29,0,0,0-6.28,0,11.72,11.72,0,0,1-4.86,0c-1.57-.35-3.35,0-5-.12s-3.29.23-4.26,1.6c-2.23-2.18-4.2-2.17-6.3,0a4,4,0,0,0-6.34,0c-.56-.65-1.17-1.44-2.13-1.45-3,0-6.18-.75-9.12.51a.9.9,0,0,1-.84-.06c-2.25-.93-3.14-.8-5,.7a4.18,4.18,0,0,0-2.8-1.28h-6.32a3.11,3.11,0,0,0-2,.68.86.86,0,0,1-1.27.07,3.6,3.6,0,0,0-4.86.29c-.53.48-.71.43-1.13,0a3.57,3.57,0,0,0-2.61-1c-1.47-.08-2.73,1.55-3.2,1.28a6.43,6.43,0,0,0-3.6-1.28c-1.84.05-3.79-.29-5.5.1a11.34,11.34,0,0,1-5.1-.06c-1.33-.28-2.17,1.37-3,1a7.28,7.28,0,0,0-3.26-1c-1.84,0-3.69,0-5.53,0a2.9,2.9,0,0,0-1.78.43c-.58.44-1,.24-1.61.05a21,21,0,0,0-9.42-.15,1.86,1.86,0,0,0-.95.66c-.37.43-.55.42-1,0-1.7-1.4-3.08-1.43-5-.21-.37.24-.53.36-1,.06-2.17-1.35-3.26-1.26-5.41.32a4.16,4.16,0,0,0-2.81-1.21c-1.25,0-2,.89-2.91,1s-1.72-1-3-1.05-2.24,1.4-3.18.93a7.21,7.21,0,0,0-3.49-.91c-1.37,0-2.74,0-4.11,0-1.73-.07-3.23.23-4.11,1.64-2.18-2.21-4-2.22-6.34-.12-2.25-2.08-3.78-2.08-6.41,0A2.83,2.83,0,0,0,229.7,97c-3,0-6.08-.71-9,.51a.7.7,0,0,1-.71,0,4,4,0,0,0-5.22.68,3.54,3.54,0,0,0-2.7-1.31,34.85,34.85,0,0,0-6.29.07,15.35,15.35,0,0,1-5.26,0,15.87,15.87,0,0,0-3.06-.1,13.57,13.57,0,0,0-3,.46,15.58,15.58,0,0,1-2.68.49,15.79,15.79,0,0,1-2.74.1,15.15,15.15,0,0,0-1.53,0c-.52,0-1,.12-1.56.22a12.43,12.43,0,0,0-3,.89,13.75,13.75,0,0,1-2.65.92c-.88.2-1.76.43-2.73.58-.49.08-1,.18-1.5.3a14.49,14.49,0,0,0-1.48.5,13,13,0,0,0-2.74,1.39,17.25,17.25,0,0,1-2.5,1.52c-.85.42-1.68.89-2.63,1.26a11.91,11.91,0,0,0-1.34.65c-.42.27-.82.58-1.23.9-.79.65-1.62,1.25-2.38,1.93a3.63,3.63,0,0,0-1.49,2.71c0,.67-.18.75-.83.83a3.65,3.65,0,0,0-3.5,4.09c0,.75-.13.83-.75.91a2.8,2.8,0,0,0-1.33.53,5.51,5.51,0,0,0-1,1.16c-.89,1.31-.15,3.1-.64,3.52-1,.76-2.09,1.23-2.75,2.61L148.24,128a10.35,10.35,0,0,0-.91,2.7,14.58,14.58,0,0,1-1.69,5.17.68.68,0,0,0,0,.16c-.35,1.18.55,2.18.34,2.94s-1.44,1.34-1.69,2.61c-.24,1.06-.43,2.14-.65,3.21a12.94,12.94,0,0,0-.33,3.19,16,16,0,0,1-.58,5,16.94,16.94,0,0,0-.48,6.37,15,15,0,0,1-.18,5.09,16.79,16.79,0,0,0-.11,6.17,14.74,14.74,0,0,1,0,5.37,16.37,16.37,0,0,0,0,5.65,15.39,15.39,0,0,1,0,5.77,37.91,37.91,0,0,0-.15,5.46,5.19,5.19,0,0,0,.07.89l1,0c.08,1.18.17,2.43.29,3.82a93.7,93.7,0,0,0-.67,11.6c0,8.72.13,17.44.26,26.15.05,3.22.22,6,.48,8.26a24.36,24.36,0,0,1,.13,5.23,109,109,0,0,0,.48,20.1,15.11,15.11,0,0,1,0,4.67,99,99,0,0,0-.42,10.78c0,6.09.77,11.3.63,13.23-.36,4.75-.68,8.69-.68,14.91,0,7.61-.21,15.65-.06,22.75.15,7.48,0,14-.21,21.08-.2,5.49.59,9,.36,12.56-.29,4.42-.62,8.16-.68,13.48q-.15,11.43-.29,22.86c0,2.71,0,5.39.11,7.35a47.12,47.12,0,0,1-.07,6.66c-.62,12.79-.71,25.94-.6,39a34.58,34.58,0,0,0,.28,3.92,14.65,14.65,0,0,1,0,4.26,105,105,0,0,0-.31,20.61,21.41,21.41,0,0,1,0,4.19,118.27,118.27,0,0,0,.06,22.35c-.37,3.18-.67,6.5-.81,11.61s.19,8.26.06,12c-.06,1.8-.3,3.56-.52,5.57a47.42,47.42,0,0,0-.39,7,27.84,27.84,0,0,0,1.25,7.39c.66,2.07,1.42,3.83,2.08,5.72a35.12,35.12,0,0,0,7.95,12.47,39.1,39.1,0,0,0,14.85,9.18,45.89,45.89,0,0,0,9.77,2.31,33.37,33.37,0,0,0,7.28.21,71.65,71.65,0,0,0,12.93,1.47c4.26.12,8.54-.06,13.29-.36,9.27,1.45,15.59,1.68,26.52.91a51.24,51.24,0,0,0,8.88.91c12.42.22,25.18.66,37.18,0a22.69,22.69,0,0,1,2.94,0,109.69,109.69,0,0,0,21.6-.62,80.11,80.11,0,0,0,11.19.41c8.72-.22,17.77-.35,26-.78,7.56-.4,14-.55,21.45-.63,8-.08,16.76-.34,24.66-.74,3.82-.19,7.36-.36,10.91-.39l11-.1c7.88-.12,17.06-.93,24.66-3.7a33.78,33.78,0,0,0,10.1-5.53,21.32,21.32,0,0,0,3.88-4.19c.28-.39.59-.75.85-1.16l.75-1.23c.25-.42.51-.83.75-1.25l.65-1.32a44.5,44.5,0,0,0,3.65-11.84,87.55,87.55,0,0,0,1.15-12.08c.13-4,.18-7.7.32-11.4s.48-7.37.77-11.31c.58-7.51.73-15.63.9-23.48a83.34,83.34,0,0,0-.34-11.43,15.58,15.58,0,0,1,0-4.66,101.14,101.14,0,0,0,0-21.42,15.87,15.87,0,0,1,0-4.68,91.23,91.23,0,0,0,.44-10.82c0-6.11-.89-10.79-.77-13.28.21-4.61.54-8.22.44-14.22-.14-7.62-.12-15.5-.38-22.79-.26-7.5-.43-14.45-.23-21.66,0-.19,0-.43,0-.65,0-4.87-.62-7.86-.61-11.09,0-3.69.54-6.57.55-11.72,0-8.69.27-17.67.14-26-.09-7.08-.06-13.05.15-20.16.25-8.3.31-17.61.19-26-.1-7.27-.06-13.53.14-20.79.23-8.15.32-17.28.19-25.3-.13-7.81,0-14.51.17-22.11.1-3.77.17-7.76.2-11.74s0-7.88.1-11.58c.15-8.32.65-15.79.85-24,.1-3.71,0-7.54-.17-11.4s-.63-7.75-1.19-11.57c-.23-1.32-.46-2.53-.69-3.7h0l-.24-1.18a58.78,58.78,0,0,0-4-12.5A32.92,32.92,0,0,0,448,111.39a31.37,31.37,0,0,0-9.4-6,43.67,43.67,0,0,0-10.73-2.62c-2.13-.28-4.35-.5-6.61-.68a16.61,16.61,0,0,1,3.53.24,16.42,16.42,0,0,0,5.65,0,16,16,0,0,1,5.8,0,33.71,33.71,0,0,0,5.52.06c.18,0,.34-.08.5-.1V102a.53.53,0,0,1,.09.24c.07.34.24.06.35.14s.26-.22.53-1.57c-.12,1.59-.08,2.2.16,1.28s.28-.87.23,0,.15.4.53-1.05c-.08.85-.12,1.49,0,1.5s.26.3.46,0,.28-.25.36.06.25.38.46.06.29-.33.35.07.23.08.34.18.28-.18.61-1.51c-.25,2.17-.12,2.19.46.12-.3,2.25,0,2,.47.07a6.62,6.62,0,0,0-.14,1.45c.21.08.28.82.76-.36.06-.14.05,0,0,.08,0,.94,0,.83.52-.6a3.57,3.57,0,0,0-.08,1.29c.15,0,.3.06.45.1s.16-.21.3-.62.15-.43.11,0c-.14,1.16,0,1.09.42-.21.15-.46.15-.4.07.05-.12.7-.12,1-.06,1s.57-1.45.54-1.18c-.08.66-.17,1.33-.06,1.31s.2.35.42,0,.32-.24.35.15.51-1.29.47-.9-.13,1.05,0,1.05a1.33,1.33,0,0,1,.4.08s.11,0,.24-.38.13-.21.13,0c0,.92.25.78.63.33a4.51,4.51,0,0,0,.25-.61c.15-.4.16-.39.08,0-.27,1.38-.19,1.44.29.31.09-.22.14-.34.09,0-.23,1.34-.14,1.27.48-.19a3.09,3.09,0,0,0-.16,1.22c.08,0,.4-.81.51-.91s-.17,1-.1,1.07.58-1.29.5-.81-.13.93,0,.94a.46.46,0,0,1,.28.1c.1.1.3-.15.8-1.46-.54,2.15-.42,2.19.41.26-.5,2-.41,2.05.46.13a5.45,5.45,0,0,0-.31,1.39c.21.06.18.82.79-.26.05-.09.09-.16.06,0-.25,1.15,0,.78.6-.52-.21.75-.34,1.26-.26,1.29s.19.4.45.1.33-.17.35.15.16.4.42.13.36-.22.36.15.14.46.41.16.35-.17.36.14.14.43.39.17.37-.2.37.16.24.15.36.22.24-.18.59-.86c.23-.46.22-.38.08,0-.46,1.38-.34,1.44.36.14.23-.43.21-.35.06.07-.24.66-.28.93-.23,1s.8-1.35.73-1.07c-.14.52-.39,1.25-.28,1.26s.16.32.4.09.43-.32.33.2c0,0,0,0,0,0s.6-1,.63-.9-.36,1.06-.27,1.08.18.36.46.11.34-.18.32.17.12.46.41.21.35-.18.34.15.1.49.4.21.35-.13.34.2.1.43.38.17.38-.12.37.21.2.2.33.23.06,0,.1-.05l2.49-4.72A.12.12,0,0,0,469.64,105.38ZM172.36,108a10.82,10.82,0,0,0,.57-1.11,9.49,9.49,0,0,0,1.13.23C173.49,107.36,172.92,107.66,172.36,108Zm10.92-4.15a.8.8,0,0,1,1.13-.32l.12,0Zm5.27-.94a6,6,0,0,0,.47-.51c.44-.54.64-.51,1.1-.11a2.58,2.58,0,0,0,.62.4Q189.63,102.74,188.55,102.87Zm6.39-.43-.86,0c.77-.51,1.36-1.21,1.68-1.06l1.07.53C196.15,102.09,195.52,102.26,194.94,102.44ZM271,101.36a3.31,3.31,0,0,0,.48-.59,8.56,8.56,0,0,0,.69.62Zm6,.16a9,9,0,0,0,.78-.64,10,10,0,0,0,.83.69Zm6,.19a11.33,11.33,0,0,0,1.22-.85,5.07,5.07,0,0,0,.83.9Zm12,.18.36-.12a.7.7,0,0,1,.71,0l.3.15Zm5.2,0a5.87,5.87,0,0,0,1.09-.82,4.85,4.85,0,0,0,1,.81Zm37.29.9c-1.37-.19-2.88-.36-4.65-.49a14.59,14.59,0,0,1,5.19,0,20.58,20.58,0,0,0,2.31.21Zm7.31-.59a14.69,14.69,0,0,1,1.93-.11Zm12.51-.11-.51,0a2.65,2.65,0,0,0,1-.68c.44-.51.63-.44,1.13,0a4.37,4.37,0,0,0,1.57.91C359.49,102.22,358.46,102.16,357.3,102.07Zm5,.25a4.29,4.29,0,0,0,1.77-1c.55-.49.72-.4,1.13,0a2.93,2.93,0,0,0,1.43.82C365.11,102.31,363.74,102.34,362.29,102.32Zm8.19-.46-1.23.13c.77-.44,1.38-1,1.76-.85s.74.39,1.1.59Zm16.36,0a2.18,2.18,0,0,1,1.2-.54,5.29,5.29,0,0,1,1.71.81C388.8,102,387.83,101.9,386.84,101.82Z" style="fill:#382d15;"/><path d="M486.06,136.15c-3.23-16.47-11.17-29.83-29.43-31.9-17.84-2-36.09-1.66-54-1.26-33.08.74-66.23.57-99.31.57-22,0-44,1-65.94,1.48-34,.77-60.17,3.47-63.72,43.27-4.43,49.7-.73,103.42-1.25,153.38,0,60.3-1.26,120.63-1.89,180.93-.19,18.2.09,36.5-.71,54.68-.54,12.36-2,20.8,4.35,31.71,13.29,22.79,38.38,20,61.54,21.07,39.7,1.84,79.47,1.83,119.19.64l68.78-2.05c14.75-.44,42.11,1,52.64-11.87,9.7-11.86,8.16-31.7,9.15-46.16,1.43-20.83,1.5-41.88,1.54-62.75.07-42.75-1.49-85.5-1-128.25q.86-72.57,1-145.14C487.07,179.84,489.91,155.78,486.06,136.15Z" style="fill:#fff;"/><path d="M590.84,222.35a4.66,4.66,0,0,0-.56-1c-.47-.61-1-1.06-1-1.6a6.41,6.41,0,0,1,.26-2,4.86,4.86,0,0,0,.05-1.18,2.62,2.62,0,0,0-.42-1.15c-.82-1.21-1.62-2.28-2.32-3.13a11.42,11.42,0,0,0-2.11-2.1,3.65,3.65,0,0,1-1.82-3.21,14.47,14.47,0,0,0-1.5-5.6,6.78,6.78,0,0,1-.73-2.28,6.94,6.94,0,0,1,.06-2.41,12.92,12.92,0,0,0-.21-5.87,7.77,7.77,0,0,1-.29-2.64,12.15,12.15,0,0,1,.55-2.58,11.75,11.75,0,0,0,.52-5.58,10.43,10.43,0,0,1,.81-5.77,24.08,24.08,0,0,0,.92-5.55,3.79,3.79,0,0,0,0-.93l-4-.6h0l4,.61c0-.1.06-.2.08-.31.38-2.26,1-4.63.43-6.83-.11-.5-.2-1-.27-1.46a11.65,11.65,0,0,1-.17-1.4,14,14,0,0,1,.19-2.88,7.06,7.06,0,0,0-.12-2.75c-.19-.93-.4-1.86-.57-2.77a3.94,3.94,0,0,0-3.41-3.73c1.84-2.23,2-4.61.1-5.44s-2.07-1.36-1.42-3.23a2.06,2.06,0,0,0-.66-2.34,6.65,6.65,0,0,0-3.38-1.39,3.54,3.54,0,0,0-.06-4c-.68-1-1.45-1.88-2.19-2.81a11.44,11.44,0,0,0-2.67-2.28,12.48,12.48,0,0,1-2.3-1.5,11.51,11.51,0,0,1-1-.92c-.32-.32-.66-.64-1-1a13.3,13.3,0,0,0-2.7-2.28,15.47,15.47,0,0,0-3.27-1.39,17.56,17.56,0,0,1-2.62-.82,14.47,14.47,0,0,1-2.37-1.4,8.55,8.55,0,0,0-2.57-1.14c-.94-.24-1.92-.36-2.83-.66a6.41,6.41,0,0,0-1.42-.3,4.67,4.67,0,0,0-1.35.15,3.86,3.86,0,0,0-2.26,1.7c-1-1.76-2.18-2.6-3.36-2.68s-2.36.85-3.39,2.48a3.54,3.54,0,0,0-6.72,1,9.14,9.14,0,0,0-1.32-1.19,1.82,1.82,0,0,0-1.5-.31c-.82.25-1.69.39-2.53.63s-1.68.49-2.5.8a8.61,8.61,0,0,0-2.26,1.27,6.05,6.05,0,0,0-1.77,2c-.22.4-.47.38-.84.4a8.14,8.14,0,0,0-1.8.24,2.66,2.66,0,0,0-1.14.7,4.75,4.75,0,0,0-1,3.09c-1.25-.2-2.56-.33-3.61.61l-2.5,2.59-2.27,2.8a3,3,0,0,0-.43,2.45c.18.71.14,1-.68,1.23a3.85,3.85,0,0,0-2.42,1.94,3.57,3.57,0,0,0,.41,3.07c.43.81.29.95-.54,1.13a3.36,3.36,0,0,0-2.37,2.31,3,3,0,0,0,.49,2.44c.4.73.8,1.28.56,1.49a8.93,8.93,0,0,0-1.62,1.63,4,4,0,0,0-.81,2.14c0,2.1-.58,4.39.25,6.3a12.65,12.65,0,0,1,.84,5.74c0,1.59,2.67,1.78,2.38,2.83l-.27,1a8.92,8.92,0,0,0-.16,1,3.8,3.8,0,0,0,.27,2l.61,1.43.71,1.37,1.42,2.74a2.57,2.57,0,0,0,1.59,1.32c.89.18.86.68,1,1.44a8.31,8.31,0,0,0,.95,2.57,10.05,10.05,0,0,0,1.6,2.24,11.94,11.94,0,0,0,2.06,1.83A14.55,14.55,0,0,0,513,184a2,2,0,0,0,1.43-.1c.73-.27.87-.16,1,.63a5.91,5.91,0,0,0,.45,1.78,2.82,2.82,0,0,0,.92,1.08,2.88,2.88,0,0,0,1.35.47,6.24,6.24,0,0,0,1.83-.2c.53-.13.75-.22,1,.43,1.34,2.81,2.81,3.25,5.73,1.64a3.78,3.78,0,0,0,2.63,2.52c1.41.34,2.47-.94,3.47-1s1.79,1.61,3.3,1.81,2.5-2.11,3.57-1.54l.12.06a3.89,3.89,0,0,0,1.83,1.36c-3.24,2.41-3.1,4.46.19,6.56-2.95,2.54-2.83,4,.41,6.49-1,.56-2.1,1.23-2.08,2.16a34.92,34.92,0,0,1-.44,4.27,8,8,0,0,0,.49,4.23c.11.26.18.47-.09.66-2.09,1.42-1.88,2.74-.48,4.91-1.36.16-2.34.41-2.83,1.25-.91,1.56-2.43,2.73-3.27,4.44a7.6,7.6,0,0,1-.63,1,1.49,1.49,0,0,1-.48.48,5.4,5.4,0,0,1-.9.41A7.94,7.94,0,0,0,529.5,231a6.45,6.45,0,0,0-1.27,1.36,7.52,7.52,0,0,0-.78,1.48,6,6,0,0,0-.23.67c-.06.21-.13.45-.17.63a7.73,7.73,0,0,0,1.35,6.32c.86,1.13,1.67,2,2.47,2.85s1.56,1.72,2.65,2.7a9.45,9.45,0,0,0,7.54,2.3,21,21,0,0,1,6.21-.1,12.4,12.4,0,0,0,6.14-.77,13.26,13.26,0,0,1,5.79-1.07c2,0,4-.9,6-1.5a3.07,3.07,0,0,0,2.34-2.43c.17-.89.4-.85,1.13-.44,2.45,1.37,4.54.4,5.06-2.4.17-.93.39-.9,1.11-.54A3.24,3.24,0,0,0,578,240c1.46-.79,1.08-3.51,1.83-3.54,1.43-.07,2.95.22,4.19-1,1.54-1.48,3.46-3,4.31-5.17.44-1.1.78-2.2,1.19-3.27a30.76,30.76,0,0,1,1.4-3.25.91.91,0,0,0,0-.22A2.09,2.09,0,0,0,590.84,222.35Zm-47.39-35.81Z" style="fill:#ea472c;"/><path d="M606,222.51c-11-1.49-19.57-6.38-24.81-16-7.76-14.3-12.38-34.09-23-47.64a43.07,43.07,0,0,0-7.26-7.38c-13.9-11-34.73,2.42-47.59-12.74-7.58-8.93-9.66-23.21-5.69-34.13,5.94-16.33,22.38-27.64,39.63-29.69s34.86,4.32,48.51,15.06c13.44,10.58,23.41,25.1,36,36.55" style="fill:#382d15;"/><path d="M622.76,125.51q-.19-.22-.42-.44c-1.35-1.27-2.63-2.69-4-3.82a19.33,19.33,0,0,1-3.26-3.38c-.87-1.15-2.07-2.23-3.08-3.38a5.89,5.89,0,0,0-3.1-2.21,5.38,5.38,0,0,0-2.42-3.63,3.31,3.31,0,0,1-1.95-2.17c-.43-1.14-1.61-2.06-3.37-2.86a4.56,4.56,0,0,0-1.31-2.49,47,47,0,0,0-4-4A30.27,30.27,0,0,1,592.59,94a21.2,21.2,0,0,0-2.08-2,20.3,20.3,0,0,0-2.3-1.78,27.53,27.53,0,0,1-3.55-2.78,32.17,32.17,0,0,0-3.81-2.71c-1.38-.92-2.65-1.54-3.78-1.37A5.28,5.28,0,0,0,572,80.58a5.54,5.54,0,0,0-2.49-2,5.06,5.06,0,0,0-2.87-.3A3.23,3.23,0,0,0,565,76.94c-2.65-1-5.41-2.08-8.21-2.08a1.47,1.47,0,0,1-.75-.18,8.23,8.23,0,0,0-2.37-.74,6.75,6.75,0,0,0-2.28.32,4.91,4.91,0,0,0-2.52-.91c-1-.08-2-.17-2.94-.17s-2-.09-3,0a4.67,4.67,0,0,0-1.85.39,1.43,1.43,0,0,1-1.17.1,6.46,6.46,0,0,0-2.39-.19,4.79,4.79,0,0,0-2.08.84.86.86,0,0,1-1,.14,4.54,4.54,0,0,0-2.48,0c-1.38.23-2.28,1.38-2.73,1.36s-1.08,0-1.62,0a6.46,6.46,0,0,0-1.77.42,27.84,27.84,0,0,0-4.75,2,29.75,29.75,0,0,1-4.22,2.22c-1.15.51-1.39,1.61-2.14,1.91a9.16,9.16,0,0,0-2.78,1.33l-2,1.61L508,87a3.64,3.64,0,0,0-1,1.31c-.22.54-.53.72-1,1.1a11.32,11.32,0,0,0-1.64,1.47c-.51.53-1,1.08-1.47,1.66a24.57,24.57,0,0,0-2.34,3.79,2.13,2.13,0,0,0-.18.93c0,.41-.08.54-.49.83a5.33,5.33,0,0,0-1.52,1.76,5.63,5.63,0,0,0-.43,1.07,7.21,7.21,0,0,0-.18,1.3,1.14,1.14,0,0,1-.33.89,8.44,8.44,0,0,0-.86,1.14,5.39,5.39,0,0,0-.46,1.11,5.86,5.86,0,0,0-.07,2.62,5.08,5.08,0,0,0-1.11,2.48,14.8,14.8,0,0,0,.18,2.77c0,.81-.6,1.58-.64,2.81s.72,2.09.56,3a9,9,0,0,0-.1,3.31c.23,1.27.46,2.55.78,3.8.09.4.19.78.31,1.14a8.42,8.42,0,0,0,.44,1,3,3,0,0,0,1.17,1.31,5.24,5.24,0,0,0,.37,3,5.18,5.18,0,0,0,.81,1.25,7.89,7.89,0,0,0,1.27,1.07,5.52,5.52,0,0,0,.91,2.86,5.82,5.82,0,0,0,1.07,1.05,6.59,6.59,0,0,0,1.55.91,2.87,2.87,0,0,0,.94,2,23.58,23.58,0,0,0,3.45,2.73,10.48,10.48,0,0,0,4,1.51,1.29,1.29,0,0,1,.64.22,5.36,5.36,0,0,0,4.87.77,4.35,4.35,0,0,0,2.44.93,32.67,32.67,0,0,0,5.85.16,24.54,24.54,0,0,1,4.74,0,43.18,43.18,0,0,0,5.37,0,13.86,13.86,0,0,1,4.65.47l5,1.34a9.67,9.67,0,0,1,4,2.16c1.22,1,2.58,2.29,3.86,3.3a15.44,15.44,0,0,1,3.27,3.61c.46.67.94,1.35,1.45,2s1.06,1.34,1.5,2.06a4.78,4.78,0,0,0,1.78,1.8c.42.21.48.38.52.87a5.47,5.47,0,0,0,.7,2.28,5.28,5.28,0,0,0,1.59,1.79c.45.32.49.48.45.92a5,5,0,0,0,.59,2.34c.55,1.21,1.7,1.81,1.81,2.36a11.15,11.15,0,0,0,.68,3.1c.7,1.52,1.22,3.17,2,4.59a17.82,17.82,0,0,1,1.76,4.43,1.08,1.08,0,0,0,.05.13c.38,1,1.17,1.4,1.41,2.07s0,1.56.46,2.61c.75,1.78,1.36,3.68,2.25,5.32a25.37,25.37,0,0,1,1.81,4.11c.31.88.7,1.78,1.12,2.67s1,1.74,1.46,2.53.9,1.33,1.29,2,.81,1.32,1.25,2a15.82,15.82,0,0,0,3.87,4.36c1.47,1.07,2.63,2.06,4,3.14a15.27,15.27,0,0,0,4.75,2.52c1.83.58,3.42,1.16,5.18,1.79a25.61,25.61,0,0,0,5.08,1.06c.16,0,.32,0,.47,0l.36-2.66-.25-.05c-1.8-.28-3.61-.78-5.32-1.07a12.81,12.81,0,0,1-4.3-1.5c-1.22-.67-2.64-1.26-3.89-2a11.44,11.44,0,0,0-1.76-1,3.67,3.67,0,0,0-1.65-.41,7.63,7.63,0,0,0-1.11-2,4.08,4.08,0,0,0-1.5-1.31,2.77,2.77,0,0,1-1.77-2.16c-.3-1.13-1.26-2.11-2.77-3.27a4.77,4.77,0,0,0-.58-2.71c-.83-1.65-1.53-3.43-2.39-5a20.54,20.54,0,0,1-1.76-4.1,33.94,33.94,0,0,0-2.16-5.29,19.28,19.28,0,0,1-1.64-4.12,45.81,45.81,0,0,0-1.68-4.29,6,6,0,0,0-2.26-3.28,5.38,5.38,0,0,0-2.38-5.26,5.54,5.54,0,0,0-.66-3.11,5,5,0,0,0-2-2.06,3.23,3.23,0,0,0-.35-2.07c-1.37-2.46-2.78-5.09-4.92-6.9a1.51,1.51,0,0,1-.46-.63,5.52,5.52,0,0,0-3.37-3.27,5.12,5.12,0,0,0-1.45-2.27c-.75-.66-1.49-1.3-2.31-1.91-.42-.3-.82-.62-1.26-.89l-1.32-.8a4.3,4.3,0,0,0-1.89-.54,1.38,1.38,0,0,1-1.13-.43,4.92,4.92,0,0,0-4.47-1.06.91.91,0,0,1-1-.19,4.65,4.65,0,0,0-2.37-.8c-1.39-.15-2.59.62-3,.47a8.73,8.73,0,0,0-3.32-.68,48.36,48.36,0,0,0-5,.11,15.43,15.43,0,0,1-4.58-.08c-1.17-.2-2,.57-2.73.3a15,15,0,0,0-2.78-.91,22.68,22.68,0,0,1-4.58-1.29,4.16,4.16,0,0,0-1.48-.43,2.07,2.07,0,0,1-1.23-.64,63.36,63.36,0,0,1-5.91-5.53,2.48,2.48,0,0,0-.76-.47c-.36-.15-.45-.29-.52-.75a7.18,7.18,0,0,0-.64-2.09,5.29,5.29,0,0,0-.61-.89,8.09,8.09,0,0,0-.81-.92,1,1,0,0,1-.41-.8,6.91,6.91,0,0,0-.44-2.4,7.65,7.65,0,0,0-1.31-2.08,6.19,6.19,0,0,0,0-2.57c-.2-1.07-.78-1.65-.93-2.45s.29-1.57.26-2.71-.75-2-.54-2.8a14.38,14.38,0,0,0,.63-3.05c.07-.6.11-1.2.21-1.79l.33-1.77a10.44,10.44,0,0,0,.36-2.05,3.36,3.36,0,0,0-.19-1.67,6.88,6.88,0,0,0,1.79-2.29,8,8,0,0,0,.51-2.91,8.05,8.05,0,0,0,1.15-1,4.63,4.63,0,0,0,.85-1,9.91,9.91,0,0,0,1-2.93A3.07,3.07,0,0,0,505,94.21c1.69-2.07,3.73-3.85,5.28-6a1.06,1.06,0,0,1,.46-.43,7.85,7.85,0,0,0,2.11-1.33,7.19,7.19,0,0,0,1.34-1.84,4.48,4.48,0,0,0,2.36-.82c.79-.5,1.64-.93,2.45-1.41s1.66-.86,2.4-1.36A11,11,0,0,1,523.45,80a16.27,16.27,0,0,1,2.17-.77c.83-.21,1.69-.48,2.53-.79s1.71-.54,2.5-.86a13.1,13.1,0,0,1,2.26-.67,11.7,11.7,0,0,1,2.34-.32c.85,0,1.74-.15,2.64-.24A23.29,23.29,0,0,0,540.5,76a16.41,16.41,0,0,1,4.76-.07c1.68.15,3.5.36,5.17.36a17.37,17.37,0,0,1,4.84.78c.78.21,1.6.41,2.43.61s1.68.34,2.49.6a4.68,4.68,0,0,0,2.52.22c.45-.11.61,0,1,.33a5.4,5.4,0,0,0,2,1.29,5.25,5.25,0,0,0,2.36.36c.55,0,.69.05.93.41a4.93,4.93,0,0,0,1.92,1.44c1.18.59,2.44.36,2.86.73a12.12,12.12,0,0,0,2.4,2c.73.39,1.43.86,2.12,1.31s1.41.86,2.09,1.26,1.39.79,2,1.23a12.32,12.32,0,0,1,1.76,1.53l.11.09c.84.63,1.7.61,2.23,1.07s.77,1.32,1.61,2.06c1.45,1.22,2.79,2.66,4.23,3.78a18.75,18.75,0,0,1,3.12,3.11,35.48,35.48,0,0,0,3.92,4.12,21.53,21.53,0,0,1,3.09,3.37,29.29,29.29,0,0,0,3.72,4.15,24.27,24.27,0,0,1,3.26,3.64,25.06,25.06,0,0,0,3.53,3.79,31.93,31.93,0,0,1,3.7,3.83,39.18,39.18,0,0,0,3.65,3.54c.22.2.43.37.64.53Z" style="fill:#382d15;"/><path d="M645.66,281.78q0,.6,0,1.26c0,3.82,0,7.78.25,11.42.27,3.36.43,6.27.41,9.63,0,3,.32,6.22.47,9.34a22.29,22.29,0,0,0,1.27,7.52,21.84,21.84,0,0,0-.13,8.78,12.46,12.46,0,0,1,.22,5.89,24.8,24.8,0,0,0,.74,8.86,17.66,17.66,0,0,0-.7,5.5c0,3.8-.1,7.73.08,11.39.16,3.19.17,5.94.07,9.14a109.85,109.85,0,0,0,.3,11.67,85.35,85.35,0,0,1,.34,9c-.06,2.92.24,6.21.33,9.32.1,3.3.36,6.09,1.11,7.86a22.06,22.06,0,0,0,.32,11.67,23.23,23.23,0,0,0,.09,11.75,12.85,12.85,0,0,0-.79,3.94c-.12,5.64-.78,11.37-.65,16.81a5.71,5.71,0,0,1-.18,1.53,44.54,44.54,0,0,0-.83,4.82,18.93,18.93,0,0,0-.06,2.06c0,.71,0,1.44,0,2.33a47.65,47.65,0,0,0-1.94,4.67,35.93,35.93,0,0,1-5.64,9.7c-.44.54-.84,1.06-1.18,1.57a15,15,0,0,0-.95,1.36,4.27,4.27,0,0,1-1.58,1.67,38.37,38.37,0,0,0-3.71,2.78,26.12,26.12,0,0,0-3,3.07,2.92,2.92,0,0,1-1.68,1.22,21.78,21.78,0,0,0-4.23,2.34c-2.26,1.5-3.77,3.45-4.56,3.82a34,34,0,0,0-5.93,3.18c-2.84,2-5.85,3.86-8.38,5.8a64.37,64.37,0,0,1-7.91,5.12c-2.14,1.2-3,2.74-4.49,3.4a47.92,47.92,0,0,0-5.41,2.71q-4.36,2.66-8.8,5.22a19.29,19.29,0,0,0-2.74,1.83,9.5,9.5,0,0,1-2.58,1.51,158.78,158.78,0,0,0-15.26,8.49,7.27,7.27,0,0,0-1.38,1.14,3,3,0,0,1-1.66.94,21.87,21.87,0,0,0-8.13,4.39,4.32,4.32,0,0,1-1.63.94,22.93,22.93,0,0,0-8.68,5,21.32,21.32,0,0,0-4.85,2c-2,1.13-3,2.22-4.43,3.12s-3,1.16-5.11,2.35-3.24,2.72-4.86,3.39a54.22,54.22,0,0,0-5.82,2.79c-2.21,1.22-4.44,2.43-6.69,3.57-2.86,1.45-5.26,2.83-6.4,4.19a21.89,21.89,0,0,0-10.54,5.2c-4.2,1-6.75,2.23-10.59,5.44a10.76,10.76,0,0,0-3.86,1.27c-2.45,1.31-5,2.74-7.37,4a39.84,39.84,0,0,0-7.2,4.27,6.26,6.26,0,0,1-1.13.78,11,11,0,0,0-4.22,3.59,7.88,7.88,0,0,0-1.43,4.76,9.21,9.21,0,0,0-.69,5.31,27.42,27.42,0,0,0,1.56,6,21.29,21.29,0,0,0,6.49,9.09,11.36,11.36,0,0,0,4.85,2.31,16.36,16.36,0,0,0,6,0,32.25,32.25,0,0,0,5.52-1.5c3.28-1.2,6-2.34,9.29-3.38,1.63-.52,3.45-1.06,5.24-1.7s3.54-1.33,5.15-2c3.2-1.41,6-2.46,9.26-3.57s6.88-2.51,10-3.87a93.37,93.37,0,0,1,9.56-3.5c3.22-1,6.58-2.4,9.88-3.63a18.5,18.5,0,0,0,4.61-2.29,3.17,3.17,0,0,1,1.95-.75,20.89,20.89,0,0,0,9-3.49,3.2,3.2,0,0,1,2-.75,19.22,19.22,0,0,0,4.69-1.33c2.56-1,4.2-2.53,5.29-2.82a37.84,37.84,0,0,0,6.14-1.83c3.15-1.32,6.47-2.57,9.42-4a80.5,80.5,0,0,1,8.95-3.82l.27-.11c2-.86,3-1.94,4.34-2.49,1.53-.64,2.92-.69,5-1.64,3.56-1.61,7.3-3.14,10.63-4.86,2.83-1.45,5.26-2.59,8.21-3.8a112.32,112.32,0,0,0,10.53-5c2.88-1.55,5.4-2.79,8.39-4.11a93.34,93.34,0,0,0,10.12-5.2c3-1.81,5.67-3.23,8.73-4.78a79.53,79.53,0,0,0,9-5.42c3.08-2.16,5.92-4,9-6a102.6,102.6,0,0,0,8.3-6.11c.26-.2.47-.42.71-.62l-1.67-2.1-.42.31c-3,2.32-6.2,4.53-9.07,6.74a63.24,63.24,0,0,1-8,5.25c-2.56,1.42-5.27,3.23-8,4.75a24.17,24.17,0,0,0-6.19,4.41,22.28,22.28,0,0,0-8,3.55,12.62,12.62,0,0,1-5.26,2.67,24.51,24.51,0,0,0-7.72,4.42,17.79,17.79,0,0,0-5.27,1.7c-3.43,1.64-7,3.18-10.28,4.88a90.28,90.28,0,0,1-8.29,3.8c-3.48,1.4-7.26,3.09-10.61,4.76a75.5,75.5,0,0,1-8.26,3.59c-2.75,1-5.71,2.43-8.59,3.6-3.05,1.25-5.58,2.46-7,3.78a21.86,21.86,0,0,0-10.82,4.4,22.47,22.47,0,0,0-10.93,4.34,11.94,11.94,0,0,0-4,.75c-5.28,2-10.83,3.71-15.72,6.19a5.64,5.64,0,0,1-1.46.5,23.39,23.39,0,0,0-8.65,3.53,20.39,20.39,0,0,0-5.1,1.25l-10.92,4.26a18.29,18.29,0,0,0-3.33,1.64,4.88,4.88,0,0,1-2.18.86,23,23,0,0,0-8.43,3.17,3.32,3.32,0,0,1-2,.72,20.09,20.09,0,0,0-4.69,1.23c-2.54.9-4.49,2.33-5.36,2.43-2.11.21-3.85.3-6.41.44a8.79,8.79,0,0,1-4.38-.85,14.58,14.58,0,0,1-3.46-2.74,17.44,17.44,0,0,1-4.14-7.83c-.16-.56-.32-1.07-.48-1.53s-.37-.88-.51-1.29-.31-.79-.41-1.18a4.66,4.66,0,0,1-.12-1.15,14.65,14.65,0,0,1,.42-2.65,14.45,14.45,0,0,1,.92-2.59c1.28-2.69,4-4.68,6.81-6.3a22.79,22.79,0,0,0,2.75-1.71,9.51,9.51,0,0,1,2.66-1.37c2.74-1.15,5.22-2.58,7.79-3.95s5.09-2.84,7.62-4.29a7.28,7.28,0,0,0,1.41-1.09,3,3,0,0,1,1.69-.88,22.13,22.13,0,0,0,8.3-4,4.33,4.33,0,0,1,1.67-.87,22.5,22.5,0,0,0,8.88-4.68,20.5,20.5,0,0,0,4.92-1.89c2-1.09,3.07-2.16,4.5-3s3-1.15,5.13-2.34,3.22-2.71,4.85-3.39a47.41,47.41,0,0,0,5.82-2.84c2.19-1.28,4.4-2.53,6.62-3.75,2.82-1.55,5.16-3,6.25-4.44a21.87,21.87,0,0,0,10.31-5.65c4.16-1.12,6.64-2.48,10.39-5.78a11.05,11.05,0,0,0,3.83-1.33c4.85-2.74,10-5.24,14.35-8.5a4.52,4.52,0,0,1,1.13-.68,23,23,0,0,0,8.15-5.27,17.32,17.32,0,0,0,4.62-2.08c3.32-2.08,6.84-4.13,9.83-6.36,2.76-2,5.14-3.66,8-5.42s6.28-4,9.15-6.15,5.23-3.71,8.14-5.61a47.79,47.79,0,0,0,8.58-7.25,90.44,90.44,0,0,0,6.42-7.91,30.11,30.11,0,0,0,4.38-10.26c.64-3.67,1-6.75,1.51-10.27.23-1.68.43-3.43.54-5.21l.31-5.34a18.61,18.61,0,0,0-.29-5.16,3.22,3.22,0,0,1,0-2.09,20.3,20.3,0,0,0,.1-9.62,3.2,3.2,0,0,1,0-2.1,18.7,18.7,0,0,0,.45-4.86c0-2.75-.88-4.83-.78-6a38,38,0,0,0,.43-6.4c-.14-3.42-.15-7-.44-10.22a73.74,73.74,0,0,1-.38-9.71c0-.09,0-.19,0-.29-.07-2.18-.7-3.5-.72-4.95,0-1.66.46-3,.38-5.27-.13-3.89,0-7.91-.25-11.65a85.5,85.5,0,0,1,0-9,116,116,0,0,0-.06-11.65c-.19-3.26-.24-6.07-.18-9.34a89.21,89.21,0,0,0-.49-11.37,97.18,97.18,0,0,1-.58-9.9c-.05-3.39-.25-7.14-.59-10.45a91.9,91.9,0,0,1-.45-10.72c0-3.3-.14-6.79-.17-10.19,0-.59,0-1.13-.05-1.65Z" style="fill:#e7d9c7;"/><path d="M463.16,609.76a1.74,1.74,0,0,0-.14-.34l-1.29.35h0l1.31-.35v-.11a10.55,10.55,0,0,0-.58-2.27,3.94,3.94,0,0,1-.44-2,8.92,8.92,0,0,0-.4-1.93,1.52,1.52,0,0,0-1.18-1.36c.62-.79.69-1.61.07-2s-.67-.58-.41-1.22-.24-1.17-1.24-1.58a1.26,1.26,0,0,0,.1-1.43,6.3,6.3,0,0,0-1.64-2.19,13.55,13.55,0,0,1-1.72-1.39,4.68,4.68,0,0,0-.54-.45c-.2-.12-.41-.23-.63-.33s-.44-.19-.66-.27a6.4,6.4,0,0,0-.67-.12,6.12,6.12,0,0,1-2-.52A7.1,7.1,0,0,0,449,590a1.55,1.55,0,0,0-1.75.73c-.88-1.11-1.71-1.06-2.48,0a1.36,1.36,0,0,0-2.47.17c-.24-.31-.5-.69-.87-.67-1.19.07-2.37-.22-3.46.43-.14.08-.21,0-.32,0-.88-.46-1.22-.4-1.94.35a1.52,1.52,0,0,0-1.1-.64h-2.45a1,1,0,0,0-.77.34c-.17.18-.26.22-.49,0a1.18,1.18,0,0,0-1.88.15c-.2.24-.28.21-.44,0a1.25,1.25,0,0,0-1-.51c-.57,0-1.06.78-1.24.64a2.18,2.18,0,0,0-1.4-.64,9,9,0,0,0-2.13.06,3.39,3.39,0,0,1-2,0c-.48-.15-.83.67-1.15.46a2.42,2.42,0,0,0-1.21-.58c-.7,0-1.41-.09-2.13-.15a1,1,0,0,0-.71.16c-.24.2-.38.09-.64,0a4.74,4.74,0,0,0-1.87-.38l-.48,0-.42,0-.89.13a.75.75,0,0,0-.38.31c-.15.21-.22.2-.4,0a1.23,1.23,0,0,0-2-.16c-.15.12-.21.18-.41,0-.9-.64-1.49-.55-2.24.42a1.34,1.34,0,0,0-2,.45,2.86,2.86,0,0,1-.35.64c-.24.33-1,.32-1.37,1a1.27,1.27,0,0,0,0,1c.09.29.22.51.1.74a2.2,2.2,0,0,0-.15,1.76,9.91,9.91,0,0,0,.84,1.75,1.51,1.51,0,0,0,1.78.89c0,1.48.56,1.88,1.92,1.64.05,1.36.54,1.76,2,1.51,0,.4,0,.85.27,1.07,1,.7,1.77,1.67,3.07,1.78.11,0,.2,0,.24.14a1.32,1.32,0,0,0,1.92.8,1.3,1.3,0,0,0,.58,1.1,8.57,8.57,0,0,0,2.17,1.2,4.43,4.43,0,0,1,1.8,1,5.19,5.19,0,0,0,2.12,1,4.76,4.76,0,0,1,1.89.89,5,5,0,0,0,2.16.92,5.11,5.11,0,0,1,2,.77,5.32,5.32,0,0,0,2.15.8,4.75,4.75,0,0,1,2.06.68,8.41,8.41,0,0,0,2.13.68,1.19,1.19,0,0,0,1.18-.2c.23-.2.3-.14.43.12a1.2,1.2,0,0,0,2,.49c.27-.19.32-.13.43.12a1.28,1.28,0,0,0,.89.73c.56.18,1.17-.54,1.37-.35.38.34.64.79,1.2.88a9.19,9.19,0,0,0,2.15.34,3.49,3.49,0,0,1,2,.32h.06c.46.08.81-.46,1.11-.4s.56.62,1.05.65a11.13,11.13,0,0,0,2.48.18,4.12,4.12,0,0,1,1.92.11,5,5,0,0,0,2.48.08,4.39,4.39,0,0,1,2,0,4.53,4.53,0,0,0,2.58-.2c.79-.34,1.49-.48,2.38-.78a3.62,3.62,0,0,0,1.27-.8A3.22,3.22,0,0,0,463,615a19.44,19.44,0,0,0,.55-2.85A6.3,6.3,0,0,0,463.16,609.76Z" style="fill:#ea472c;"/><path d="M164.82,158.61l-1.74-5.08,0,0c-.12,0-.3-.21-.29.15s0,.4-.26.08-.17,0-.28,0-.07.3.34,1.6c-.61-1.47-.91-2-.65-1.09s.21.89-.16.06-.27-.3.15,1.14a5,5,0,0,0-.66-1.34c-.1,0-.29-.16-.27.19s-.06.33-.24.09-.32-.23-.3.14,0,.41-.24.08-.18,0-.29,0-.08.27.37,1.57c-.9-2-1-1.94-.31.1-.93-2.07-.95-1.7-.29.15a8.94,8.94,0,0,0-.64-1.31c-.16,0-.58-.57-.25.65,0,.15,0,.06-.06,0-.46-.81-.46-.68,0,.75a4.74,4.74,0,0,0-.62-1.12,3.17,3.17,0,0,1-.3.13s0,.25.16.66.14.43,0,.09q-.8-1.55-.12.37c.16.45.13.41-.07,0-.31-.64-.45-.86-.53-.89s.48,1.48.35,1.24c-.31-.58-.62-1.18-.68-1.11s-.3-.18-.22.21,0,.35-.27.05.45,1.3.25,1-.52-.92-.57-.87a.69.69,0,0,1-.25.14s0,.09.09.43.05.24-.05.08c-.51-.75-.58-.49-.51.07a6.06,6.06,0,0,0,.23.62c.16.4.15.4,0,.05l-.3-.54a3.07,3.07,0,0,0-.42-1.43c-.08-.14,0-.21,0-.33.41-.91.32-1.28-.5-2a1.49,1.49,0,0,0,.52-1.18q-.13-1.08-.33-2.17c.38.47.4.23.29-.26,0-.06-.14-.36-.26-.61s-.17-.39,0,0c.7,1.21.77,1.22.3.08-.09-.22-.14-.33,0-.07.69,1.16.69,1.06.08-.4a4.85,4.85,0,0,0,.65,1c.06,0-.31-.84-.33-1s.5.85.59.89-.52-1.3-.28-.9.49.79.54.75.09-.09.17-.07,0-.27-.54-1.56c1,2,1.11,1.92.31,0,1,1.83,1,1.81.26-.14a8.78,8.78,0,0,0,.69,1.24c.12-.07.55.53.15-.63,0-.1-.06-.17,0,0,.57,1,.46.6-.07-.72a5.07,5.07,0,0,0,.65,1.14c.09,0,.3.21.23-.17s0-.31.22-.08.29.22.23-.13,0-.37.22-.08.32.28.24-.11,0-.33.22-.1.3.25.24-.09,0-.36.23-.09.17,0,.26,0,0-.27-.28-1c-.18-.48-.14-.42,0,0,.63,1.31.7,1.28.21-.11-.16-.46-.12-.38.06,0a3,3,0,0,0,.5.9c.09,0-.48-1.48-.35-1.23a6,6,0,0,0,.62,1.12c.06-.07.24.15.2-.17s0-.5.23,0c0,0,0,0,0,0s-.34-1.09-.29-1.05.48,1,.52,1,.27.16.23-.19,0-.34.21-.07.31.27.27-.09,0-.35.21-.1.32.31.26-.09.05-.31.23-.06.28.26.23-.1.06-.32.25-.07.18,0,.25,0a1,1,0,0,0,0-.1l-1.82-5.06,0,0c-.11,0-.29-.21-.26.14s0,.4-.24.08-.16,0-.26,0-.05.29.39,1.59c-.63-1.47-.92-2-.65-1.09s.24.88-.14.05-.26-.3.19,1.13a5.42,5.42,0,0,0-.66-1.34c-.09,0-.28-.16-.25.18s0,.32-.22.09-.31-.23-.27.13,0,.4-.22.08-.16,0-.27,0-.06.27.41,1.56c-.92-2-1-1.93-.28.09-.95-2.06-1-1.69-.26.14a9.64,9.64,0,0,0-.65-1.3c-.15,0-.57-.58-.21.63,0,.15,0,.06-.06,0-.46-.81-.45-.68.05.74a5.15,5.15,0,0,0-.62-1.12,2.6,2.6,0,0,1-.28.13s0,.25.18.66.15.42,0,.09q-.81-1.54-.09.36c.17.45.14.4-.06,0-.31-.63-.46-.86-.53-.89s.5,1.47.38,1.23c-.31-.58-.63-1.17-.68-1.1s-.28-.19-.2.2,0,.35-.25,0,.47,1.29.28,1-.52-.91-.57-.87a.59.59,0,0,1-.23.13s0,.09.1.43.06.24,0,.08c-.51-.75-.56-.49-.47.06,0,.06.13.36.24.61s.16.39,0,0c-.67-1.23-.75-1.23-.3-.08.09.22.13.34,0,.08-.67-1.17-.68-1.07-.09.4a4.46,4.46,0,0,0-.65-1,9.47,9.47,0,0,0,.32,1c0,.13-.5-.85-.59-.89s.52,1.31.27.9-.5-.78-.55-.74-.1.1-.18.08,0,.28.55,1.56c-.25-.44-.44-.77-.58-1a2,2,0,0,0-.12-.43c-.27-.61-1.27-.64-1.26-.86a2.06,2.06,0,0,0-.57-1.65,9.49,9.49,0,0,0-1-.84l-.55-.84c1.42,1.77,1.31,1.43.23-.2a10.48,10.48,0,0,0,.93,1.12c.13-.06.66.45,0-.66-.07-.13,0-.06.07,0,.62.7.57.58-.21-.71a5.56,5.56,0,0,0,.83,1,2.48,2.48,0,0,1,.24-.17s-.08-.24-.3-.61-.22-.39,0-.09c.71.92.71.8,0-.37-.24-.41-.21-.37.06,0,.41.57.59.77.66.79s-.74-1.36-.57-1.15c.4.52.8,1.06.84,1s.3.15.16-.22,0-.34.23-.08-.64-1.22-.4-.92.63.85.67.8a.53.53,0,0,1,.2-.15s0-.09-.15-.41-.09-.23,0-.08c.58.69.59.44.45-.1,0-.06-.16-.35-.29-.59s-.19-.38,0-.05c.77,1.17.84,1.17.31.06-.1-.22-.16-.33,0-.08.75,1.12.75,1,.06-.41a4.76,4.76,0,0,0,.71,1c.06,0-.35-.82-.38-1s.54.82.63.86-.58-1.28-.31-.89.53.76.57.72.09-.1.17-.08,0-.27-.59-1.54c1.12,1.91,1.18,1.88.32,0,1,1.8,1.09,1.77.26-.16a8.72,8.72,0,0,0,.73,1.22c.12-.07.56.52.15-.64,0-.1-.06-.17,0,0,.59,1,.47.59-.08-.73a5.05,5.05,0,0,0,.67,1.12c.09,0,.31.2.23-.18s0-.32.22-.08.3.21.24-.14,0-.37.23-.08.32.28.25-.11,0-.33.22-.1.3.25.25-.09,0-.36.23-.09.18,0,.26,0,0-.27-.26-1c-.17-.48-.13-.42,0,0,.6,1.32.68,1.29.22-.11-.15-.46-.11-.39.07,0a3,3,0,0,0,.48.91c.09,0-.44-1.5-.31-1.24a6,6,0,0,0,.59,1.13c.06-.07.24.16.21-.16s0-.5.24,0c0,0,0,0,0,0s-.3-1.1-.25-1.06.44,1,.48,1,.26.17.24-.18,0-.33.22-.06.3.28.28-.08,0-.35.21-.09.3.32.27-.08.08-.31.24,0,.27.28.24-.09.09-.32.26-.05.18,0,.26,0a1,1,0,0,0,0-.1L161,130.81l0,0c-.12,0-.29-.22-.3.13s-.07.4-.26.07-.18,0-.28,0-.08.29.27,1.62c-.54-1.5-.82-2-.6-1.12s.18.9-.16.05-.26-.31.11,1.15a5,5,0,0,0-.61-1.37c-.1,0-.29-.17-.28.18s-.07.32-.24.09-.32-.23-.3.13,0,.41-.24.08-.18,0-.29,0-.09.27.35,1.57c-.87-2-1-1.95-.31.09-.9-2.08-.93-1.71-.29.15a8.85,8.85,0,0,0-.63-1.31c-.16,0-.58-.58-.25.64,0,.15,0,.06-.06,0-.46-.81-.46-.67,0,.75a4.7,4.7,0,0,0-.62-1.12,3.16,3.16,0,0,1-.3.13s0,.25.17.66.15.43,0,.09c-.54-1-.59-.9-.11.37.17.45.14.4-.07,0-.31-.63-.47-.86-.54-.88s.5,1.47.37,1.24c-.32-.57-.65-1.17-.7-1.09s-.3-.18-.22.21,0,.35-.27.06.48,1.29.28,1-.54-.9-.59-.85a.7.7,0,0,1-.25.15s0,.09.11.43.06.24-.05.08c-.54-.73-.6-.47-.5.09a6.11,6.11,0,0,0,.25.61c.18.39.17.39,0,.05-.71-1.2-.8-1.2-.32-.06.09.22.14.33,0,.08-.72-1.14-.74-1-.1.42a4.08,4.08,0,0,0-.7-1,8.45,8.45,0,0,0,.35,1c0,.13-.54-.82-.64-.86s.57,1.29.3.89-.54-.75-.6-.71-.1.11-.19.1,0,.29.62,1.53c-1.18-1.87-1.28-1.82-.34.05-1.14-1.74-1.22-1.7-.27.18a7.33,7.33,0,0,0-.81-1.16c-.13.09-.64-.44-.14.68,0,.1.07.17,0,0-.69-.94-.55-.53.13.72a4.34,4.34,0,0,0-.8-1c-.09.06-.36-.14-.24.23s0,.33-.24.13-.35-.15-.25.19,0,.38-.24.13-.39-.2-.26.18,0,.34-.23.16-.37-.17-.26.16,0,.37-.24.16-.19.08-.28.12.06.27.48.92c.28.43.23.38,0,0-.91-1.13-1-1.07-.2.17.26.41.21.35-.07,0-.44-.55-.63-.73-.71-.74s.81,1.33.62,1.12c-.36-.39-.86-1-.9-.91s-.29-.06-.18.24.14.49-.25.13c0,0,0,0,0,0s.62,1,.55.94-.75-.83-.78-.77-.33-.06-.2.27.06.34-.21.15-.4-.14-.26.2.07.35-.19.18-.43-.17-.26.19,0,.33-.23.16-.37-.12-.21.21,0,.34-.25.18-.2.06-.26.15,0,.05,0,.1l1,1.18h-.09a2.2,2.2,0,0,0-1.48-.25,11,11,0,0,0-2.32.91,1.1,1.1,0,0,0-.57.6c-.1.31-.27.33-.56.44a4.85,4.85,0,0,0-2.74,3,.74.74,0,0,0,.06.51c.11.24.07.3-.2.37a1.25,1.25,0,0,0-1,1.76c0,.19.08.27-.14.39-1,.54-1.09,1-.63,2.07a1.49,1.49,0,0,0-.93.86c-.17.47.19.89.14,1.25s-.67.51-.84,1,.44,1,.13,1.34a2.29,2.29,0,0,0-.76,1.25l-.33,1.6a1.47,1.47,0,0,0,.53,1.74c-1.23.67-1.33,1.45-.39,2.46-1.13.76-1.19,1.4-.22,2.51-.36.18-.74.42-.76.8-.07,1.18-.45,2.41.15,3.56.05.1.09.18,0,.28a1.34,1.34,0,0,0,.38,2,1.28,1.28,0,0,0-.61,1.08,12.09,12.09,0,0,0,.12,2.43,4.59,4.59,0,0,1,.08,2,5.38,5.38,0,0,0,.16,2.34,4.41,4.41,0,0,1,.16,2.07,4.77,4.77,0,0,0,.23,2.32,4.62,4.62,0,0,1,.24,2.08,5.37,5.37,0,0,0,.29,2.26,4.92,4.92,0,0,1,.32,2.14,10,10,0,0,0,.35,2.21,1.19,1.19,0,0,0,.71,1c.29.12.26.2.09.43a1.21,1.21,0,0,0,.45,2c.29.15.26.23.08.44a1.26,1.26,0,0,0-.24,1.13c.12.58,1,.79,1,1.05-.13.49-.4.94-.21,1.48a9.83,9.83,0,0,0,.75,2.07,4.17,4.17,0,0,1,.77,2,.22.22,0,0,0,0,.06c.19.46.85.47,1,.76s-.17.86.19,1.35a8.12,8.12,0,0,0,.54.65,4.86,4.86,0,0,0,.38.35,2.86,2.86,0,0,0,.58.33,2.09,2.09,0,0,0,1.76-.09,2.57,2.57,0,0,0,.56-.45,3.45,3.45,0,0,0,.31-.45c.41-.93.54-1.49.9-2.17a5,5,0,0,0,.49-2.55,5.33,5.33,0,0,1,.2-2,5.07,5.07,0,0,0,.14-2.42,4.28,4.28,0,0,1,.09-2.07,5.77,5.77,0,0,0,.17-1.08,4.77,4.77,0,0,0,0-.54l0-.35c0-.1,0-.2-.06-.29a4.51,4.51,0,0,1,0-2.22,5.64,5.64,0,0,0,.11-1c0-.22,0-.47,0-.63a6.17,6.17,0,0,0,1.66-1.6,6.11,6.11,0,0,1,1.41-1.61,7.07,7.07,0,0,0,1.25-1.64,1.51,1.51,0,0,0,.18-1.83c1-.12,1.62-.67,1.45-1.36s-.05-.88.56-1.15.67-1,.24-2a1.39,1.39,0,0,0,1.12-.84,10,10,0,0,0,.73-2.35,4.65,4.65,0,0,1,.28-1.26c.09,0,.22.12.15-.19a1,1,0,0,1,0-.14l.05-.13a.75.75,0,0,1,.22.22c.08.11,0-.17-.13-.45l.06-.14c.18.29.33.53.36.5a.6.6,0,0,1,.23-.14s0-.09-.1-.43-.06-.24,0-.08c.51.75.56.49.48-.06,0-.06-.13-.37-.23-.62s-.15-.4,0,0c.65,1.24.72,1.25.31.09-.08-.23-.12-.34,0-.08.64,1.19.65,1.09.12-.4a4.47,4.47,0,0,0,.61,1.06,10.06,10.06,0,0,0-.27-1c0-.13.47.87.55.91s-.45-1.33-.22-.91.46.81.51.77.11-.09.19-.07.06-.28-.44-1.59c.95,2,1,2,.34,0,.89,1.88.95,1.85.29-.14a8.1,8.1,0,0,0,.63,1.27c.13-.07.54.55.22-.63,0-.1,0-.18,0,0,.51,1,.43.62,0-.73a4.73,4.73,0,0,0,.59,1.17c.1,0,.31.22.26-.17s.06-.32.24-.07.29.23.26-.13,0-.38.25-.07.31.29.27-.1.07-.33.25-.09.3.26.27-.08.06-.36.25-.08.19,0,.28,0,0-.27-.2-1c-.14-.49-.11-.43.05,0,.54,1.35.62,1.33.24-.1-.13-.47-.09-.39.07,0a2.77,2.77,0,0,0,.44.93c.09.05-.36-1.52-.24-1.26a5.56,5.56,0,0,0,.55,1.16c.07-.07.24.16.23-.16s0-.5.26,0c0,0,0,0,0,0s-.25-1.12-.19-1.08.4,1,.45,1,.27.18.27-.18.06-.34.23-.06.3.29.3-.08.07-.35.23-.08.3.33.29-.07.09-.31.26,0,.27.28.26-.09.11-.32.28-.05.19,0,.27,0a.87.87,0,0,0,0-.1l-1.35-5.2,0,0c-.12,0-.29-.23-.3.13s-.08.4-.27.06-.18,0-.28,0-.09.29.23,1.62c-.5-1.51-.76-2.06-.58-1.13s.15.9-.16,0-.25-.32.07,1.15a4.93,4.93,0,0,0-.56-1.39c-.1,0-.28-.18-.29.17s-.08.32-.25.08-.31-.25-.31.12,0,.41-.25.07-.18,0-.29,0-.1.27.27,1.59c-.78-2-.88-2-.32.08-.8-2.12-.85-1.75-.3.13a8.82,8.82,0,0,0-.56-1.34c-.16,0-.55-.61-.3.63,0,.15,0,.06-.06,0-.41-.84-.42-.7,0,.75a4.69,4.69,0,0,0-.56-1.16,3.17,3.17,0,0,1-.31.12s0,.25.13.67.12.43,0,.09c-.48-1.06-.53-.94-.14.36.14.46.11.41-.07,0-.27-.65-.41-.88-.48-.92s.4,1.5.28,1.26c-.28-.59-.56-1.21-.62-1.14s-.29-.2-.24.2-.06.35-.27,0,.38,1.32.2,1-.47-.94-.53-.89a.72.72,0,0,1-.26.13s0,.09.07.43,0,.24-.06.08c-.48-.77-.56-.51-.52,0a5.87,5.87,0,0,0,.2.63c.14.41.13.4,0,0a9.32,9.32,0,0,0-.46-.88c0-.13,0-.25,0-.37a1.59,1.59,0,0,0-.67-1.75c1-.69,1.1-1.41.48-2.1,0,0,0-.13-.12-.41l-.06-.15,0,0,.07.09c.53.73.58.47.48-.08a4.4,4.4,0,0,0-.18-.45l0-.08c.62,1.08.68,1.05.24,0-.09-.22-.14-.34,0-.08.69,1.17.69,1.06.1-.41a4.41,4.41,0,0,0,.65,1,9.79,9.79,0,0,0-.31-1c0-.13.5.85.59.89s-.5-1.31-.26-.91.49.79.54.75.1-.1.19-.08,0-.28-.51-1.57c1,2,1.11,1.93.34,0,1,1.84,1,1.81.28-.15a8,8,0,0,0,.68,1.25c.13-.07.56.53.2-.65,0-.1-.05-.17,0,0,.56,1,.47.6,0-.73a4.66,4.66,0,0,0,.65,1.14c.1,0,.32.2.26-.18s0-.32.24-.08.31.21.26-.14,0-.38.25-.09.33.27.27-.11,0-.33.24-.1.31.25.27-.1,0-.37.25-.1.19,0,.28,0,0-.28-.26-1c-.17-.48-.13-.42.05,0,.62,1.32.7,1.29.23-.11-.15-.46-.11-.39.07,0,.29.64.42.87.49.9s-.45-1.49-.32-1.24a5.49,5.49,0,0,0,.62,1.12c.07-.07.25.15.22-.17s0-.5.26,0c0,0,0,0,0,0s-.32-1.1-.26-1.06.47,1,.52,1,.28.16.26-.2,0-.34.23-.07.32.27.29-.1,0-.35.23-.1.33.31.29-.09.07-.31.26-.06.29.26.26-.11.09-.33.28-.07.2,0,.27,0A1,1,0,0,0,164.82,158.61Zm-11.74-12.1-.17-.31,0,0Zm0-.64a1,1,0,0,0,0-.11l.26.59Zm-3.4-4.56-.1-.06-.27-.39Zm5.24,26.9v-.06l.08.23Zm.25-.32c.07.23.11.35,0,.08l-.16-.3,0-.32C155,167.48,155.07,167.65,155.15,167.88Zm.12-10.22v-.08C155.32,157.72,155.33,157.77,155.27,157.66Z" style="fill:#ea472c;"/><path d="M453.79,592.23c-.33,0-.4,0-.08-.26s0-.17,0-.27-.3-.07-1.6.36c1.47-.62,2-.92,1.09-.66s-.89.22-.06-.16.3-.27-1.14.16a5,5,0,0,0,1.34-.67c0-.1.16-.29-.19-.27s-.33-.05-.1-.24.22-.33-.14-.3-.41,0-.09-.24,0-.18,0-.29-.28-.08-1.56.4c2-.94,1.92-1-.1-.31,2-1,1.67-1-.16-.29a8.66,8.66,0,0,0,1.29-.68c0-.16.55-.61-.66-.24-.15,0-.06,0,0-.07.8-.49.66-.49-.75,0a4.6,4.6,0,0,0,1.1-.67c-.06-.1-.1-.21-.15-.31s-.25,0-.66.19-.42.16-.09,0c1-.59.88-.63-.38-.1-.44.19-.4.15,0-.07.62-.34.83-.5.86-.58s-1.45.56-1.22.42c.56-.35,1.14-.7,1.06-.75s.16-.32-.23-.22-.36,0-.08-.27-1.27.55-.95.32.87-.59.81-.65a.78.78,0,0,1-.17-.26s-.1,0-.42.13-.24.08-.09,0c.69-.59.42-.65-.14-.52a5.55,5.55,0,0,0-.59.29c-.38.2-.38.19-.06,0,1.15-.8,1.13-.89,0-.34-.21.11-.32.17-.08,0,1.09-.81,1-.84-.44-.08.53-.4,1-.73.92-.81s-.81.39-.94.43.75-.64.77-.75-1.22.7-.87.39.67-.65.61-.7-.14-.11-.15-.21-.31,0-1.44.82c1.65-1.47,1.56-1.59-.13-.34,1.51-1.43,1.43-1.53-.24-.25a6.36,6.36,0,0,0,1-1c-.13-.12.28-.76-.73,0-.09.06-.15.11,0,0,.77-.88.38-.67-.69.27.53-.57.87-1,.82-1s0-.4-.3-.21-.33.07-.2-.22,0-.39-.26-.21-.37.12-.2-.21.08-.44-.24-.22-.33.09-.22-.19.07-.4-.23-.21-.35.12-.21-.19-.12-.16-.19-.24-.25.13-.77.69c-.35.38-.31.31,0,0,.87-1.16.8-1.23-.21-.15-.33.36-.29.28,0-.07.43-.56.56-.79.55-.86s-1.1,1.11-.94.87c.3-.44.76-1.06.69-1.08s0-.29-.26-.11-.43.25-.16-.2c0,0,0,0,0,0s-.81.81-.8.74.67-.9.61-.91,0-.32-.28-.12-.31.13-.16-.16.1-.4-.21-.2-.32.13-.18-.14.14-.42-.19-.19-.3.09-.15-.18.12-.36-.19-.16-.31.08-.16-.19,0-.17-.12-.21l-.09.05-3.94,3.66s0,0,0,0,0,.38.28.22.39-.12.2.22.12.15.14.26.31-.06,1.3-1c-1,1.2-1.38,1.72-.68,1.08s.7-.59.13.12-.14.39,1-.65a4.69,4.69,0,0,0-.88,1.21c.09.07,0,.34.3.16s.32-.1.2.17,0,.4.27.2.37-.18.19.17.11.15.12.26.28-.06,1.2-1.08c-1.32,1.74-1.23,1.8.23.22-1.38,1.8-1.06,1.63.26.18a9.56,9.56,0,0,0-.85,1.18c.1.12-.25.77.67-.1.11-.1.06,0,0,.07-.52.78-.41.7.64-.37a5.53,5.53,0,0,0-.73,1.05,2.39,2.39,0,0,1,.22.19s.21-.14.52-.45.32-.31.09,0c-.7.92-.6.89.37-.07.34-.34.31-.29,0,.06-.45.54-.6.77-.6.84s1.14-1.05,1-.84c-.4.52-.83,1-.76,1.05s-.08.32.24.09.32-.12.12.19,1-.91.79-.6-.69.8-.63.82a.45.45,0,0,1,.18.15s.09,0,.36-.24.21-.13.08,0c-.57.7-.34.64.16.39.06,0,.31-.23.52-.4s.34-.26.05,0c-1,1-1,1,0,.3.2-.14.3-.21.07,0-1,.92-.9.88.4,0a5.93,5.93,0,0,0-.89.83s.76-.47.89-.52-.75.64-.78.72,1.2-.74.83-.43-.71.6-.67.63.1.06.08.13.26,0,1.48-.74c-1.82,1.26-1.79,1.32.06.32-1.72,1.17-1.69,1.21.18.25a9,9,0,0,0-1.17.8c.08.11-.48.58.64.1.1,0,.17-.07,0,0-1,.65-.57.5.72-.12a5.15,5.15,0,0,0-1.09.73c0,.09-.19.32.19.22s.32,0,.09.22-.2.31.15.23.37,0,.09.22-.26.33.12.25.33,0,.11.22-.24.31.1.25.36,0,.1.23,0,.18.05.27.27,0,1-.29c.48-.19.41-.15,0,0-1.3.65-1.27.73.11.22.46-.17.38-.12,0,.07a2.89,2.89,0,0,0-.89.51c0,.09,1.48-.49,1.23-.35a5.79,5.79,0,0,0-1.11.64c.07.06-.14.25.17.21s.5,0,.05.25c0,0,0,0,0,0s1.09-.34,1.06-.28-1,.48-1,.53-.16.28.2.25.34,0,.07.22-.27.32.1.28.35,0,.1.22-.31.33.09.28.31.07.06.25-.26.29.11.25.33.08.07.27,0,.2,0,.27,0,0,.1,0l5-1.76s.05,0,.05-.06S454.15,592.21,453.79,592.23Z" style="fill:#ea472c;"/><path d="M1067.39,495.47a6.38,6.38,0,0,0-1,.66c-5.34-1.76-9.88-1.38-15.13,1.18a23.23,23.23,0,0,0-3.9-.82,16.51,16.51,0,0,0-3.57.08,25.39,25.39,0,0,0-7.76,2.6,10.08,10.08,0,0,0-5.31-.73l-2.69.34-2.69.41c-1.8.27-3.6.53-5.38.83a59.25,59.25,0,0,0-10.4,2.53,3.81,3.81,0,0,1-1.66.39,20.2,20.2,0,0,0-12.08,3.33,14.8,14.8,0,0,0-3-.31,13.09,13.09,0,0,0-3.61.49c-4.89,1.27-10.06,2.29-14.61,3.85-2.09.68-4,1.41-5.94,2s-3.89,1.06-6,1.54-4.61,1.14-6.94,1.84-4.57,1.64-6.69,2.53a87.75,87.75,0,0,1-12,4.11,91.36,91.36,0,0,0-13.36,5.07c-2,.94-3.94,1.86-5.88,2.64s-3.89,1.51-6,2.22-4.37,1.56-6.55,2.48-4.27,2-6.23,3.08-3.94,2.07-5.91,3c-1,.44-2,.87-3,1.28s-2,.87-3.08,1.3c-4,1.64-8.15,3.95-12.23,5.94a15.88,15.88,0,0,0-5.38,4,2.73,2.73,0,0,1-2.38,1.26,18,18,0,0,0-6,1.93,17,17,0,0,0-4.89,4,2.77,2.77,0,0,1-2.38,1.29,16.75,16.75,0,0,0-6,2.18c-3.13,1.67-4.6,4.52-6,5s-2.71.85-4.08,1.37c.19-.26.38-.52.55-.78a15,15,0,0,0,1.78-3.64,14.82,14.82,0,0,0,5.19-3.58c3-3.25,6.09-6.44,9.07-9.7a78.34,78.34,0,0,0,7.84-10.44,7,7,0,0,1,1.6-1.8,40.07,40.07,0,0,0,5.34-5.5,28.64,28.64,0,0,0,3.25-6.2,26,26,0,0,0,6-5.6c1.84-2.42,3.77-4.77,5.55-7.24l5.33-7.4a21.72,21.72,0,0,0,2.82-5.07,6,6,0,0,1,2.08-3,25.79,25.79,0,0,0,7.56-11.8,3.9,3.9,0,0,1,1.83-2.69,20.27,20.27,0,0,0,4.93-5.77c2.3-3.59,2.83-7.53,3.76-8.53,2.28-2.49,4.39-4.44,6.45-8.25,2.57-4.65,5.69-9.35,7.75-13.86a93.58,93.58,0,0,1,6.9-13,12.11,12.11,0,0,0,1.14-2.38c.25-.78.43-1.52.58-2.22a10.21,10.21,0,0,1,1.28-3.69,52.64,52.64,0,0,0,5-8c2.22-4.83,4.32-9.73,6.51-14.58a18.34,18.34,0,0,0,1.6-4.89,11.59,11.59,0,0,1,1.7-4.33q1.57-3,3-6.07c.95-2.06,1.73-4.19,2.53-6.32,1.56-4.28,3.06-8.6,4.21-13a9.14,9.14,0,0,0,.25-2.8,3.7,3.7,0,0,1,.92-2.82,22.67,22.67,0,0,0,3.19-6.3,31.66,31.66,0,0,0,1.33-7.35,5.28,5.28,0,0,1,.8-2.81,32.85,32.85,0,0,0,3-7.3,28.88,28.88,0,0,0,.76-7.84,26.61,26.61,0,0,0,3.13-7.6c.79-3.52.37-5.84.81-8.42s1.95-4.67,2.74-8.33c.87-3.9-.25-6.63.69-9.22a47.36,47.36,0,0,0,2.4-9.85l.7-5.92.64-5.93c.42-4.26.46-8-.4-10.72l-1.09-3.37-1.51,1.88a8.33,8.33,0,0,0-.81,1.18c-.37.08-.72.19-1.08.29l0,0s0,0,0,0A26.56,26.56,0,0,0,962.86,277a31.63,31.63,0,0,0-4.49,1.48,23.71,23.71,0,0,0-3.73,2.12,36.07,36.07,0,0,0-7,6.81,14,14,0,0,0-5.91,2.39c-.88.63-1.8,1.22-2.68,1.86l-2.64,1.93c-1.77,1.28-3.54,2.57-5.28,3.88a85.48,85.48,0,0,0-9.79,8.34,5.47,5.47,0,0,1-1.56,1.33,29,29,0,0,0-11.15,10.13,20.44,20.44,0,0,0-3.25,1.47c-.56.32-1.14.67-1.73,1.09s-1.18.93-1.81,1.49c-4.52,4.06-9.44,8-13.48,12.18-1.88,1.86-3.52,3.68-5.3,5.34s-3.56,3.3-5.52,5-4.26,3.8-6.36,5.83-4,4.26-5.79,6.37a130,130,0,0,1-10.55,11,132.06,132.06,0,0,0-11.47,12.8c-1.69,2.12-3.22,4.13-4.85,6s-3.3,3.77-5.11,5.71-3.76,4.12-5.59,6.29-3.46,4.5-5,6.71S819.7,409,818.1,411c-.8,1-1.62,2-2.47,3s-1.66,2.06-2.54,3.11c-3.36,4-6.51,8.73-9.77,13.11a22.62,22.62,0,0,0-3.71,7.11,3.88,3.88,0,0,1-1.85,2.66,25.57,25.57,0,0,0-5.16,5.5,24,24,0,0,0-3.21,6.84,3.92,3.92,0,0,1-1.83,2.7,23.85,23.85,0,0,0-5,5.74c-2.41,3.52-2.68,7.2-3.86,8.51-2.14,2.45-4.12,4.17-6.3,7.74-2.73,4.56-5.69,9.19-8,13.72l-1.78,3.43c-.58,1.13-1.16,2.24-1.76,3.33a68.83,68.83,0,0,1-3.93,6.37c-.08.11-.15.26-.22.39-1.67,3-1.7,5.32-2.78,7.29-1.26,2.24-3.12,3.52-4.78,6.71-1.38,2.7-2.93,5.37-4.31,8.09q-.89,1.74-1.74,3.46a8.81,8.81,0,0,0-.6-3.29c-.36-.93-.27-1.22.28-1.85a7.65,7.65,0,0,0,1.52-4.18c.31-2.44-1.1-4.67-.76-5.41.82-1.84,1.7-3.35,1.79-5.85.13-3.06.69-6.27.45-9.13a31.08,31.08,0,0,1,.3-8.47c.37-2.21-1.37-3.62-1-5a18.13,18.13,0,0,0,1-5.42l-.34-9.19a6.72,6.72,0,0,0-.6-2.92,3.91,3.91,0,0,1-.24-2.67,35.59,35.59,0,0,0,0-7.82,57.14,57.14,0,0,0-1.32-7.77,3.58,3.58,0,0,0-.85-1.48c-.51-.56-.54-.85-.25-1.69,1.05-3,.66-5.28-1-8.2a1.82,1.82,0,0,1-.33-1.65c.64-3.77.28-5.59-2-8.74a9.54,9.54,0,0,0,.19-4.83c-.48-2-1.65-3-2.14-4.46s.23-3-.26-5.12-2.38-3.2-2.36-4.84a17.1,17.1,0,0,0-.89-5.82l-2.31-6.48c-.84-2.33-1.86-4.27-3.36-5.31l-3-2.05,0,1.86a4.23,4.23,0,0,0,.09.95c-3.75,1.87-5.41,4.57-5.6,8.87a13.11,13.11,0,0,0-2.37,1.65,8.08,8.08,0,0,0-1.53,2,12.93,12.93,0,0,0-1.33,5.63,5.5,5.5,0,0,0-3,2.44c-.62,1.08-1.23,2.18-1.82,3.29s-1.21,2.2-1.79,3.32A28.57,28.57,0,0,0,705,427a1.84,1.84,0,0,1-.46,1.09,10,10,0,0,0-2.93,8.17,7.33,7.33,0,0,0-3,3.59c-1.31,3.24-3,6.5-3.85,9.72a43.44,43.44,0,0,1-3,8.08c-.69,1.45-1.33,3-1.9,4.59a43.27,43.27,0,0,0-1.27,4.79,40.66,40.66,0,0,1-2.66,8.37,43.81,43.81,0,0,0-2.68,9.51,44.72,44.72,0,0,1-2.17,8.59c-.51,1.48-1,3.06-1.39,4.64a43,43,0,0,0-.78,4.75,41.23,41.23,0,0,1-.71,4.52c-.33,1.45-.71,2.89-1.14,4.41-.85,2.9-1.17,6.15-1.75,9.24a8,8,0,0,0,.31,4.68c.4.8.27,1.1-.28,1.84a9.08,9.08,0,0,0-1.73,4.08,8.75,8.75,0,0,0,.54,4.4,1.42,1.42,0,0,1-.28,1.85,8.45,8.45,0,0,0-1.55,4.17c-.39,2.42,1.09,4.47.7,5.43-.71,1.78-1.62,3.14-1.83,5.54-.24,3-.71,6.18-.64,9.12a33.38,33.38,0,0,1-.56,8.67,1.76,1.76,0,0,0,0,.26c-.12,2,1,3.2.87,4.48-.11,1.47-1.2,2.59-1.23,4.66a89.57,89.57,0,0,0-.09,10.43,41,41,0,0,1,0,8.08,44.44,44.44,0,0,0,.22,10.4,42,42,0,0,1,.37,8.32,43.26,43.26,0,0,0,.63,10.12,42.77,42.77,0,0,1,.74,8.83,40.57,40.57,0,0,0,1,9.32,49.72,49.72,0,0,1,1.25,9.54,67.6,67.6,0,0,0,1.46,9.09,2.49,2.49,0,0,0,.12.4,2.33,2.33,0,0,1,.11.26c0,.36,0,.73,0,1.11a84.85,84.85,0,0,0,.8,10,35.46,35.46,0,0,1,.65,7.91l-.23,6.8,4.26-4.65-3,6.32,6.7-3,.86-.39c3.14-1.41,6.36-3.27,9.59-5.05a74.1,74.1,0,0,1-8.43,7.34l-5.27,3.9-3.27.63,6.43,3.64.57.32c2.76,1.58,6.1,2.72,9.14,4.13s5.81,2.28,8.11,1.8a15,15,0,0,0,5,4.06l.08,0,.18.06a8.92,8.92,0,0,0,3.22.52,7.82,7.82,0,0,1,6.1,1.87c2.1,1.58,5.35,2,9.49,1.74a10.3,10.3,0,0,0,5.31,3c4,1.05,8,2.4,11.91,3.1.85.15,1.66.32,2.46.49s1.59.31,2.37.48c1.56.35,3.11.78,4.76,1.3a70.33,70.33,0,0,0,12.28,2.72,46.75,46.75,0,0,1,9.57,1.81,40.28,40.28,0,0,0,4.85,1.08l2.53.42c.85.11,1.69.24,2.52.38,3.52.61,6.57.75,8.67-.32a14.42,14.42,0,0,0,6.1,2.56,13.6,13.6,0,0,0,6.37-.91,13.06,13.06,0,0,0,6.49,2.3,10.73,10.73,0,0,0,6.12-1,7.86,7.86,0,0,0,4.14,1.76c3,.24,6.12.65,9.19.9a39.1,39.1,0,0,0,9.08-.38,3.41,3.41,0,0,1,1.67.12,19.53,19.53,0,0,0,5.29.75,14.89,14.89,0,0,0,4.79-1.25,13.15,13.15,0,0,0,5.61,1.27c2.11,0,4.23,0,6.34-.05l6.33-.24a10.74,10.74,0,0,0,4-.83,3,3,0,0,1,2.53-.16,12.78,12.78,0,0,0,9.69-1,2,2,0,0,1,2.25-.13,10.62,10.62,0,0,0,5.3.55c3-.25,5.28-2.13,6.24-2,2.36.38,4.35.91,7.33.4,3.65-.59,7.57-.79,10.91-1.7a45.28,45.28,0,0,1,10.08-1.75c2.69-.17,4-2.23,5.77-2.19a26,26,0,0,0,6.61-.37l10.77-2.67a9.48,9.48,0,0,0,3.33-1.34,5.65,5.65,0,0,1,3.1-.93c1.55-.21,3.1-.48,4.64-.82s3-.8,4.56-1.27a78.49,78.49,0,0,0,8.89-3.39,4.83,4.83,0,0,0,1.58-1.25,1.87,1.87,0,0,1,1.94-.71c3.71.23,6.3-.81,9.43-3.29a2.6,2.6,0,0,1,1.87-.78,16.25,16.25,0,0,0,5.39-1.22,15.21,15.21,0,0,0,4.47-3.28,13.42,13.42,0,0,0,5.66-1.19c2.27-1.06,3.25-2.53,4.83-3.44s3.53-.66,5.89-1.77c2.52-1.17,3.33-3.35,5.22-3.81a24.2,24.2,0,0,0,6.57-2.65c2.37-1.42,4.72-2.88,7.08-4.33,2.53-1.58,4.59-3.23,5.55-5.09l1.64-3.2-2.07.23a5.15,5.15,0,0,0-1.05.23c-3.31-3.54-6.89-4.84-11.89-4.41a17.42,17.42,0,0,0-2.61-2.17,11.6,11.6,0,0,0-2.72-1.25,18.17,18.17,0,0,0-6.88-.49,7.43,7.43,0,0,0-3.71-2.63l-2.16-.68L1009,667c-1.45-.43-2.91-.87-4.37-1.27a41.54,41.54,0,0,0-8.81-1.6,2.67,2.67,0,0,1-1.4-.28,14.28,14.28,0,0,0-10.35-1.58,10.07,10.07,0,0,0-5-2.39c-4.16-.75-8.43-1.83-12.44-2.17a64.92,64.92,0,0,1-10.29-1.52c-1.89-.42-3.89-.79-5.9-1.07s-4-.34-6-.37a60.2,60.2,0,0,1-10.56-1.08,63.86,63.86,0,0,0-11.91-.82,67.06,67.06,0,0,1-10.7-.44c-1.88-.21-3.86-.38-5.83-.45s-3.94,0-5.81.2-3.72.23-5.52.22c-.9,0-1.8,0-2.71-.08s-1.84-.06-2.79-.12c-1.49-.09-3-.07-4.58,0a21.38,21.38,0,0,0,4.42-3.37,18.32,18.32,0,0,0,6.63-1.66c2.28-1.08,4.61-2.08,6.86-3.23l6.77-3.42a15.18,15.18,0,0,0,4-2.77,4.22,4.22,0,0,1,2.67-1.43,18,18,0,0,0,10.07-5.87,2.75,2.75,0,0,1,2.38-1.28,14.58,14.58,0,0,0,5.93-2.23c3.08-1.76,4.83-4.7,5.93-5,2.69-.88,5.05-1.41,8-3.44,3.67-2.46,7.8-4.69,11-7.29a64.74,64.74,0,0,1,10.07-7,9.44,9.44,0,0,0,3-2.81,7.15,7.15,0,0,1,2.31-2.3A36.72,36.72,0,0,0,981,595.2c3.49-2.72,6.91-5.54,10.38-8.28a13.13,13.13,0,0,0,3-3.06,8,8,0,0,1,2.91-2.55c1.56-1,3.08-2.13,4.58-3.28s2.89-2.42,4.3-3.68a105.82,105.82,0,0,0,8-8.06,6.58,6.58,0,0,0,1.18-2.05c.35-.93.66-1.22,1.76-1.74,4-1.8,6.24-4.22,8.58-8.32a3.68,3.68,0,0,1,1.65-1.78,23,23,0,0,0,5.11-4.14,20.84,20.84,0,0,0,3.4-5.64,18.74,18.74,0,0,0,5.37-4.28c1.93-2.29,2.39-4.27,3.68-6s3.35-2.6,5.35-5,2.17-5.13,3.91-6.64a33.7,33.7,0,0,0,5.66-6.27c1.86-2.73,3.7-5.48,5.52-8.24,2-3,3.4-5.78,3.66-8.18l.38-3.55Z" style="fill:#ea472c;"/><path d="M320,534.64a6.93,6.93,0,0,0,1.44-4.14c0-1.65-.09-3.3-.08-5,0-1.91-.46-3.56-2.2-4.56l-3.76-2.16.05.64a4.64,4.64,0,0,0,.1.66c-4-1-5.81.52-5.83,4.63a9.28,9.28,0,0,0-2.58-.13,3.09,3.09,0,0,0-1.68.75c-.87.8-1.26,2.22-1.34,4.42-1.15-.35-2.48-.62-3.32.16-2.58,2.43-5.9,4.32-7,8-.1.32-.17.58-.54.64-2.86.51-3.8,2.47-3.43,5.21-1.44-.14-2.71,0-3.6,1.05-1.62,1.89-3.67,3.57-4.77,5.73a14.11,14.11,0,0,1-3.86,4.78,17.2,17.2,0,0,0-2.47,2.56,15.2,15.2,0,0,0-1.79,3.07,13.3,13.3,0,0,1-3.71,5,15,15,0,0,0-4,5.82,14.41,14.41,0,0,1-3.42,5.31A19.17,19.17,0,0,0,260,579.9a14.67,14.67,0,0,0-1.45,3.12,15.17,15.17,0,0,1-3.28,5.61c-1.45,1.65-2.22,3.87-3.32,5.82a4.4,4.4,0,0,0-.55,1.75c-.07-.24-.14-.48-.22-.72a1.21,1.21,0,0,1,.2-1.17c1.66-3.06,1.61-4.37-.53-7.17a5.73,5.73,0,0,0,2.11-3.87l.2-4.49.06-4.49a4.24,4.24,0,0,0-1-2.85c-.53-.63-.66-1-.08-1.79,1.74-2.53,1.5-4.81-.57-6.88-.74-.73-.66-1,0-1.6a4.71,4.71,0,0,0,1.41-3.76c0-2.11-2.54-3.75-2.18-4.43.86-1.68,1.87-3.11,1.58-5.24-.32-2.6-.07-5.41-.88-7.78a15.36,15.36,0,0,1-.83-7.21c.2-1.94-2.49-2.76-2.1-4,.47-1.6,1.11-3,.78-4.82l-1.51-7.73a3.7,3.7,0,0,0-1.15-2.34c-.82-.66-.66-1.24-.59-2.22a19.69,19.69,0,0,0-.67-6.71,32.54,32.54,0,0,0-2.42-6.33,2.65,2.65,0,0,0-1.32-1c-.77-.33-.83-.57-.45-1.39,1.35-2.92.75-4.84-1.82-6.84-.5-.39-.75-.54-.53-1.34.88-3.55.25-5-3-7.05a5.75,5.75,0,0,0,.25-4.4c-.65-1.66-2.33-2.13-3-3.24s.39-2.83-.27-4.57-3.25-2-3.17-3.54a9.4,9.4,0,0,0-1-5.08c-.93-1.74-1.9-3.46-2.82-5.22-1.06-2-2.4-3.55-4.52-3.81l-4.46-.55.46.91a4.58,4.58,0,0,0,.37.6c-4.22,1.49-5.29,4-3.62,8.18a10.65,10.65,0,0,0-2.49,1.42,4.23,4.23,0,0,0-1.27,1.77c-.48,1.33-.26,3,.57,5.28-1.22.33-2.59.86-3.05,2.15l-1.17,3c-.4,1-.8,2-1.14,3a14.44,14.44,0,0,0-.92,6.34c0,.39.08.69-.23,1-2.42,2.22-2.47,4.79-1,7.4a4.8,4.8,0,0,0-2.88,3.21c-.68,2.91-1.84,5.85-1.93,8.74a20.51,20.51,0,0,1-1.47,7.22,24.59,24.59,0,0,0-1.15,4.11,21.41,21.41,0,0,0-.29,4.25,19.19,19.19,0,0,1-1.16,7.43,21.52,21.52,0,0,0-1,8.4,21,21,0,0,1-.7,7.55,27.37,27.37,0,0,0-.72,4.1,21,21,0,0,0,.11,4.13,22.1,22.1,0,0,1-.39,7.79c-.54,2.56-.21,5.35-.3,8a4.67,4.67,0,0,0,1.54,3.91c.77.62.66.89,0,1.59a6,6,0,0,0-1.42,2.42v0a20.47,20.47,0,0,0-4-6.8,1.75,1.75,0,0,1-.47-1.37,10.1,10.1,0,0,0-1-4.56,9.11,9.11,0,0,0-3.44-3,7.68,7.68,0,0,0-.3-5.2c-.79-1.64-1.52-3.32-2.34-4.95l-2.48-4.88a5.89,5.89,0,0,0-2.47-2.62,1.63,1.63,0,0,1-1.08-1.9c.08-3.52-1.42-5.87-4.44-7.14-1.07-.45-1.15-.76-.9-1.73a6.31,6.31,0,0,0-.92-4.68c-1.23-2.25-4.43-2.86-4.5-3.75-.2-2.2-.14-4.18-1.65-6.32-1.81-2.63-3.21-5.75-5.35-7.9a22.68,22.68,0,0,1-5-7.29c-1-2.15-3.9-1.81-4.31-3.35-.53-1.9-.8-3.68-2.17-5.44l-6-7.47a5.26,5.26,0,0,0-2.47-2c-1.15-.34-1.35-1-1.88-2.07a27.9,27.9,0,0,0-4.69-6.71,45.67,45.67,0,0,0-6.1-5.54,3.26,3.26,0,0,0-1.85-.5c-.91,0-1.12-.24-1.27-1.25-.53-3.61-2.28-5.3-5.9-6.29-.71-.19-1-.24-1.32-1.16-1.39-4-2.87-5.28-7.23-5.94a7.76,7.76,0,0,0-2.48-4.59c-1.66-1.41-3.53-1.2-4.86-2s-1.4-3-3.11-4.5-4.38-.69-5.25-2.25a13.31,13.31,0,0,0-4.14-4.66c-2-1.34-4-2.65-6-4-2.16-1.46-4.28-2.37-6.42-2l-5.23,1,1.45,1.44a5,5,0,0,0,.92.72c-3,4-2.7,7.28.78,10.89a12.36,12.36,0,0,0-1.49,2.91A6.09,6.09,0,0,0,70,448.3c.23,1.71,1.25,3.4,3.1,5.44a5,5,0,0,0-1.61,4l.48,3.89c.16,1.3.31,2.61.52,3.9a21.08,21.08,0,0,0,2.38,7.4,1.38,1.38,0,0,1,.31,1.19,7.68,7.68,0,0,0,2.94,8.58,6.24,6.24,0,0,0-.85,5c.92,3.53,1.43,7.32,2.85,10.52a30.44,30.44,0,0,1,2.53,8.62,36.43,36.43,0,0,0,1.16,5.06,32.27,32.27,0,0,0,2,4.76,28.9,28.9,0,0,1,3,8.67,31.85,31.85,0,0,0,3.68,9.63A31.29,31.29,0,0,1,96,543.49a39.5,39.5,0,0,0,1.62,4.79,31.32,31.32,0,0,0,2.39,4.42,30,30,0,0,1,2.32,4.17c.63,1.42,1.17,2.88,1.69,4.45,1,3,2.83,5.88,4.26,8.83a6.4,6.4,0,0,0,3.59,3.5c1,.31,1.09.66.91,1.71a7.3,7.3,0,0,0,.65,4.72,7.13,7.13,0,0,0,3.63,3.1c1.1.46,1.14.79.9,1.73a6.77,6.77,0,0,0,.89,4.69c1.15,2.29,4.31,2.7,4.46,3.81.06.43.1.85.14,1.27a4.86,4.86,0,0,0-5.24-2.72c-1.05.12-1.21-.1-1.28-1a5,5,0,0,0-2.12-3.47c-1.66-1.36-4.54-.46-4.85-1.18-.8-1.74-1.37-3.35-3.21-4.52-1.13-.72-2.2-1.58-3.29-2.38a14.45,14.45,0,0,0-3.46-1.88,17.29,17.29,0,0,1-6.24-4c-1.45-1.34-3.76.19-4.54-.94-1-1.4-1.68-2.82-3.35-3.67-2.39-1.21-4.71-2.55-7.1-3.75a4.09,4.09,0,0,0-2.6-.58c-1,.21-1.39-.29-2.12-1a20.73,20.73,0,0,0-5.77-3.73,32.49,32.49,0,0,0-6.57-2.12,2.67,2.67,0,0,0-1.64.37c-.74.39-1,.28-1.39-.54-1.5-2.85-3.38-3.63-6.6-2.91-.63.16-.91.25-1.41-.41-2.27-2.95-3.85-3.41-7.54-2.1a5.79,5.79,0,0,0-3.34-3c-1.74-.54-3.17.45-4.48.27s-2-2.07-3.81-2.68-3.68,1.25-4.83.23a9.66,9.66,0,0,0-4.66-2.44c-2-.38-3.95-.73-5.92-1.13-2.49-.54-4.77-.39-6.3,1.55a6.76,6.76,0,0,0-3.59-2.78L0,540.57l2.38,7.76C2.9,550.06,4.44,551.24,7,552c-1.07,4.34,0,6.4,4.71,7.94-.49,1.17-.9,2.57-.15,3.75,1.19,1.82,2.08,3.88,3.3,5.7a15.06,15.06,0,0,0,4.54,4.71c.34.21.59.38.62.82.17,3.4,2.27,5,5.28,5.47a5,5,0,0,0,.79,4.3c.46.61.9,1.24,1.34,1.88l1.38,1.86a20.4,20.4,0,0,0,3.06,3.32,18.12,18.12,0,0,1,2.66,2.7,29.22,29.22,0,0,1,2.17,3.06A24.2,24.2,0,0,0,42.52,604a19.31,19.31,0,0,1,5.26,5.58c.38.59.79,1.18,1.24,1.76s1,1.1,1.49,1.62a21,21,0,0,0,3.37,2.72,17.53,17.53,0,0,1,3,2.45A27.65,27.65,0,0,1,59.48,621a23.26,23.26,0,0,0,6.21,5.67,21.18,21.18,0,0,1,6,5.2c1.72,2,4.19,3.5,6.3,5.25a4.61,4.61,0,0,0,4.07,1.27c1-.22,1.13,0,1.29,1,.55,3.15,2.72,4.87,5.95,4.49,1.07-.13,1.2.13,1.28,1a5.08,5.08,0,0,0,2.16,3.45c1.66,1.36,4.4.3,4.87,1.13.87,1.55,1.25,3.23,3,4.37,2.21,1.48,4.32,3.29,6.71,4.3a24.7,24.7,0,0,1,3.44,1.71,11.81,11.81,0,0,1,2.92,2.4.92.92,0,0,0,.19.12c1.43.94,3.23,0,4.14.65s1.11,2.6,2.68,3.49c1.33.74,2.61,1.61,3.91,2.42a22.2,22.2,0,0,0,4,2,19.89,19.89,0,0,1,6.16,3.4,23.7,23.7,0,0,0,3.8,2.5,25.7,25.7,0,0,0,4.22,1.71,20.83,20.83,0,0,1,6.51,3.2,22.79,22.79,0,0,0,8,3.78,20.8,20.8,0,0,1,7,3.16,21.61,21.61,0,0,0,7.55,3.13,24,24,0,0,1,7.82,3.06,39.06,39.06,0,0,0,7.58,2.74,1.31,1.31,0,0,0,.37.05.89.89,0,0,1,.22,0,6.27,6.27,0,0,0,.85.47c2.65,1.21,5.28,2.72,8,3.33a17.64,17.64,0,0,1,6.75,2.88,17.24,17.24,0,0,0,4,1.89l4.94,1.84-2.31,3.67,2.19-.7-.1,2.18,2.13-2.3,1.78,2.86.64-4.11,5,1.86-2.21-2.8,1.32-.42.63-.2c1.84-.54,3.36-2,5.08-2.93s2.92-2.22,2.8-4.56c2,.78,3.71.83,4.76.08l.59-.42,0,0a2.53,2.53,0,0,0,.66-1.51c.2-2,.75-2.54,2.77-2.54s2.87-1.87,3-5a4,4,0,0,0,4-.81c1.72-1.71,3.77-3.2,5.07-5.19a14.81,14.81,0,0,1,4-4.2,17.7,17.7,0,0,0,5-5.44,11,11,0,0,1,3.78-4.32c1.6-1.07,2.68-2.92,4-4.4s2.18-3.26,1.29-5.42c2.1,0,3.52-.46,4.29-1.41s.82-2.44.28-4.39c4.08.19,5.79-2.87,4.38-6,1.17,0,2.55.12,3.21-.82,1-1.47,2.31-2.82,3.37-4.29a9.91,9.91,0,0,0,2-5.1c0-.48.27-.58.61-.78,2.6-1.5,3-2.51,2.21-5.6,1.3-.29,2.59-.62,3.32-1.89l1.87-3.24,1.77-3.3a3.2,3.2,0,0,0,.22-2.56c-.23-.71-.22-1,.61-1.36,2.52-1.07,3.19-2.86,2.15-5.33-.37-.88-.21-1,.63-1.17a3.67,3.67,0,0,0,2.71-2.13c.82-1.56-.79-3.91-.21-4.24,1.43-.84,2.88-1.45,3.47-3.14.75-2.05,2.09-4,2.31-6.11a10.74,10.74,0,0,1,2.16-5.65c1-1.34-1.11-3.11-.24-3.88,1.07-1,2.23-1.73,2.67-3.19l1.85-6.3a2.73,2.73,0,0,0-.06-2.2c-.46-.83-.07-1.18.4-1.87,2.25-3.2,2.79-7,2.75-10.83a2.28,2.28,0,0,0-.75-1.29c-.55-.56-.5-.76.19-1.2,2.47-1.58,2.77-3.23,1.33-5.74-.28-.49-.44-.7.11-1.2,2.35-2.24,2.43-3.6.37-6.39a4.5,4.5,0,0,0,2.18-3.12c.16-1.48-1.12-2.49-1.23-3.57s1.62-1.93,1.82-3.47S319.24,535.72,320,534.64Zm-68.16,63.42c.3.54.3.79,0,1,0-.37,0-.74-.09-1.1Zm-58.21-17.58-.35-1.07C193.73,579.89,193.82,580.17,193.62,580.48Z" style="fill:#4e73b8;"/><path d="M449.45,339.78c0-1-.08-2-.14-2.95l-.25-2.93a17.4,17.4,0,0,0-.47-3.17,7.53,7.53,0,0,0-1.11-2.35,2,2,0,0,1-.29-2.28,12.08,12.08,0,0,0-2-10.37,2.06,2.06,0,0,1-.48-2.26,12.14,12.14,0,0,0-.47-5.43c-.83-2.94-3.17-4.58-3.27-5.84-.35-2.28-.22-4.27-1.45-7-.82-1.71-1.5-3.52-2.35-5.23a44.39,44.39,0,0,0-2.71-4.91c-1.07-1.54-2.05-3-3-4.56a35.32,35.32,0,0,1-2.59-4.67,1.62,1.62,0,0,0-.18-.27c-1.38-2-3.19-2.53-4.07-3.85-1.06-1.47-1.12-3.24-2.73-5.24-1.44-1.62-2.8-3.35-4.25-5a46.52,46.52,0,0,0-4.58-4.49c-1.38-1.1-2.58-2.19-3.79-3.27s-2.4-2.18-3.64-3.46a57.86,57.86,0,0,0-4.9-4.2,54.22,54.22,0,0,0-5.45-3.49c-1.61-.84-3.05-1.7-4.48-2.57s-2.87-1.73-4.36-2.76c-1.71-1.1-3.59-2.16-5.5-3.14a51.68,51.68,0,0,0-5.83-2.31c-1.88-.53-3.57-1.14-5.23-1.8s-3.33-1.25-5.08-2-3.65-1.29-5.55-1.84a50.93,50.93,0,0,0-5.7-1.07c-2.07-.23-4-.46-5.93-.83s-3.84-.63-5.83-1.05a67,67,0,0,0-11.32-.74c-.65,0-1.26,0-1.84,0v0h-.59c-2.11,0-4.26,0-6.38.07a49.24,49.24,0,0,0-6.21.69c-1.83.39-3.54.69-5.25.93a51.3,51.3,0,0,1-5.29.68,64.34,64.34,0,0,0-10.07,2.4c-.84.23-1.65.45-2.4.73a19.64,19.64,0,0,0-2.07,1,8.32,8.32,0,0,0-3,2.44,15.88,15.88,0,0,0-5.23.37,9.74,9.74,0,0,0-4.15,2.2,15,15,0,0,1-1.39,1.19,7.25,7.25,0,0,1-1.27.84,9.69,9.69,0,0,1-3.2.88,8.58,8.58,0,0,0-4,1.85,17.71,17.71,0,0,0-2,1.75,29.83,29.83,0,0,0-1.9,2.33,10.37,10.37,0,0,0-2.72.48,12.41,12.41,0,0,0-3.13,1.69c-.85.62-1.75,1.2-2.6,1.85l-2.54,1.93a40.92,40.92,0,0,0-4.68,4.15c-1.26,1.24-2.36,2.47-3.56,3.59-.59.57-1.21,1.11-1.83,1.68s-1.23,1.16-1.89,1.75-1.57,1.42-2.33,2.19-1.47,1.61-2.19,2.44a43.81,43.81,0,0,0-3.87,5.18c-1,1.45-1.81,2.85-2.75,4.17-.46.66-.95,1.31-1.46,2s-1,1.34-1.55,2c-2.09,2.51-3.64,5.85-5.35,8.85a25.52,25.52,0,0,0-2,4.58,8.88,8.88,0,0,0-.31,4q-.72.61-1.35,1.24a14.48,14.48,0,0,0-1.08,1.33,13.21,13.21,0,0,0-1.56,2.85,12.91,12.91,0,0,0-.56,6.52,12.75,12.75,0,0,0-3.39,6.15,11.61,11.61,0,0,0,.21,6.33,8.08,8.08,0,0,0-2.2,4c-1,6.16-2.3,12.6-1.07,18.66a4.27,4.27,0,0,1-.06,1.71,20,20,0,0,0-.42,5.45,16,16,0,0,0,1.63,4.77,12.2,12.2,0,0,0-.6,5.84c.12,1.08.3,2.15.5,3.21l.57,3.2c.39,2.13.94,4.23,1.41,6.35a10.5,10.5,0,0,0,1.75,3.77,3.18,3.18,0,0,1,.78,2.47,15.48,15.48,0,0,0,.91,5.18,11.86,11.86,0,0,0,2.74,4.05,2.14,2.14,0,0,1,.85,2.14,12,12,0,0,0,1.28,5.29c1.34,2.74,3.89,4.3,4.16,5.22.62,2.33.93,4.43,2.68,7,.52.79,1,1.6,1.54,2.42s1.07,1.6,1.61,2.4a28.79,28.79,0,0,0,3.45,4.36,78.84,78.84,0,0,1,6.73,8c1.7,2.17,4,2.3,5.05,3.76,1.25,1.84,2.17,3.59,4.22,5.28l2.16,1.85c.72.62,1.49,1.18,2.23,1.77,1.49,1.17,3,2.36,4.53,3.43a10.94,10.94,0,0,0,3.22,1.76,5.9,5.9,0,0,1,2.81,1.74,50.83,50.83,0,0,0,17,9.15,4.43,4.43,0,0,0,2,.13,1.93,1.93,0,0,1,2,.74,15.22,15.22,0,0,0,2.06,1.66,12.15,12.15,0,0,0,2.21,1.06,13.58,13.58,0,0,0,5.28.76,2.7,2.7,0,0,1,2,.51,14.16,14.16,0,0,0,5.17,2.25,11.87,11.87,0,0,0,2.58.22,26.05,26.05,0,0,0,3.07-.37,15.46,15.46,0,0,0,2.34,1.28,12.78,12.78,0,0,0,3.17.79,11.89,11.89,0,0,0,3.27,0,15.43,15.43,0,0,1,2.75-.36c1.77,0,3.44,1.28,6.11,1.38a10.6,10.6,0,0,0,3.61-.53,5.58,5.58,0,0,1,2.91-.39,25.78,25.78,0,0,0,3.49.57,26.06,26.06,0,0,0,3.71,0l2.1-.18,2.1-.27,4.19-.52a27,27,0,0,0,4.76-1.12,7.16,7.16,0,0,0,3.17-2.1,16.55,16.55,0,0,0,3.45.48,12.65,12.65,0,0,0,3.16-.45,11.81,11.81,0,0,0,3-1.26,18.64,18.64,0,0,0,2.82-2.2c5,.46,8.08-.8,12-4.93a7.15,7.15,0,0,0,4.56-.71c5.43-2.87,11.31-5.59,15.36-10.15a3.1,3.1,0,0,1,1.16-.88,15.49,15.49,0,0,0,4.87-3,14.37,14.37,0,0,0,2.91-4.25,10.75,10.75,0,0,0,4.91-2.85c1.54-1.52,3.09-3.1,4.63-4.65a50.11,50.11,0,0,0,4-5c1-1.59,2.05-3,3.12-4.36s2.08-2.75,3.28-4.18,2.4-3.29,3.52-5,2-3.65,2.82-5.45,1.45-3.37,2.26-4.95,1.54-3.18,2.49-4.85a55.21,55.21,0,0,0,2.53-5.6,56.42,56.42,0,0,0,1.71-5.89,54.74,54.74,0,0,1,1.27-5.37c.46-1.73.92-3.45,1.49-5.25a53.61,53.61,0,0,0,1.34-5.85,44.87,44.87,0,0,0,.58-5.93c.06-3.94.35-7.38.73-11.27a26.49,26.49,0,0,0,.18-2.85C449.52,341.73,449.49,340.76,449.45,339.78Zm-39.61,22.65c.3.87.16,1.1-.41,1.56a6.5,6.5,0,0,0-2,3.27c-.69,1.94.31,4-.23,4.71-1.09,1.29-2.21,2.16-3,4-.53,1.18-1.08,2.37-1.69,3.52A34.26,34.26,0,0,0,400.9,383a29.63,29.63,0,0,1-1.61,3.37,16.59,16.59,0,0,1-2.25,2.89s-.08.12-.13.18c-1,1.32-.62,2.84-1.31,3.72s-2.28,1.09-3.33,2.48c-1,1.13-2,2.24-3,3.32s-2,2.16-2.93,3.25a24,24,0,0,1-2.34,2.51,26,26,0,0,1-2.75,2.07,40.79,40.79,0,0,0-3.63,2.5c-1.23.85-2.36,1.83-3.45,2.74a25.83,25.83,0,0,1-2.86,2.1,28.72,28.72,0,0,1-3.17,1.57c-1.3.5-2.65,1.07-4,1.72a33.6,33.6,0,0,0-3.79,2A23.05,23.05,0,0,1,357,421a37,37,0,0,1-3.62.94,39.19,39.19,0,0,0-3.89.87,31,31,0,0,0-3.78,1.15,23,23,0,0,1-4,1,33.57,33.57,0,0,1-4.06.26c-2.52,0-5.14.36-7.73.41a10.28,10.28,0,0,0-1.26.13v0l-.4,0c-1.44-.08-2.9-.15-4.35-.26a40.08,40.08,0,0,0-4.26-.18A30,30,0,0,1,316,425a24,24,0,0,1-3.54-.9c-2.11-.79-4.59-1-6.83-1.78a17.28,17.28,0,0,0-3.19-.71,5.5,5.5,0,0,0-2.82.46,9.34,9.34,0,0,0-2.65-2.74,5.13,5.13,0,0,0-3.06-1,3.82,3.82,0,0,1-3.91-1.84,11.66,11.66,0,0,0,1.42-2.78c1.66.09,3.55-1.1,4.73-3.32s1.75-2.76,3.11-3.07,2.85-2.38,4.49-5.73c.84.14,1.81-.08,3.13-1.39,2-2,4.12-3.78,6-6a31.41,31.41,0,0,1,4.81-4.76,42,42,0,0,0,6.12-6.09,25,25,0,0,1,4.75-4.69,63.74,63.74,0,0,0,4.95-4.75,10.91,10.91,0,0,0,3.62-5.62c2.89-.09,4.86-2,6.11-6.06,2.73.22,5.47-2.91,6.13-6.15a3,3,0,0,0,2.66-.73c3-2.92,6.37-5.32,8.66-9.28a1.61,1.61,0,0,1,.84-.75c2.61-1.35,3.44-2.34,4.56-5.49a5.42,5.42,0,0,0,3.35-1.6l6.16-6.13a6.37,6.37,0,0,0,1.59-2.51c.24-.73.42-1,1.19-1.28a6.6,6.6,0,0,0,4.56-5c.25-.91.45-1,1.11-1.06a5.22,5.22,0,0,0,3.12-1.68c1.48-1.37,1.76-3.91,2.37-4.14a10,10,0,0,0,4.26-2.46c1.76-1.83,3.86-3.45,5.29-5.42a20.13,20.13,0,0,1,3-3.27c.42.68.83,1.36,1.18,2.05a26.84,26.84,0,0,1,1.3,3.5,36.44,36.44,0,0,0,1.29,4,31.33,31.33,0,0,0,1.61,3.85,24.24,24.24,0,0,1,1.27,3.56,30.41,30.41,0,0,1,.62,3.69c.16,1.32.27,2.71.52,4.06s.43,2.72.77,4a21.88,21.88,0,0,1,.49,7.7c-.1,1.28-.15,2.6-.16,3.94,0,.67,0,1.34,0,2s-.07,1.34-.13,2a9.68,9.68,0,0,0,0,2.2,4.21,4.21,0,0,0,.58,1.78c.43.68.32,1-.2,1.59A7.17,7.17,0,0,0,409.85,362.43Zm-160.93-42.3a1.55,1.55,0,0,1,.43-1.74,7.73,7.73,0,0,0,1.9-3.13,6.85,6.85,0,0,0,.17-3.45c-.16-.88,0-1.12.64-1.47a6.4,6.4,0,0,0,2.46-2.92c1-1.78.36-4.16,1-4.6a13.68,13.68,0,0,0,3.72-3.72,33.51,33.51,0,0,1,2.25-3.22,34.93,34.93,0,0,0,2.12-3.15,17.5,17.5,0,0,1,4.67-5.42c1.49-1.14,1.1-3.2,2.29-3.76a16.67,16.67,0,0,0,4.08-2.36c1-.86,1.93-1.72,3-2.5s2-1.61,3.1-2.34a5.52,5.52,0,0,0,1.79-1.8c.44-.8,1-.93,1.88-1.27a82,82,0,0,0,11.8-6.08,3.13,3.13,0,0,0,1-1.11c.33-.59.57-.68,1.35-.57a9.48,9.48,0,0,0,1.9.11,6,6,0,0,0,1.68-.26,9.53,9.53,0,0,0,3.18-1.94,1.35,1.35,0,0,1,1.36-.45,9.88,9.88,0,0,0,3.94,0,6.72,6.72,0,0,0,1.64-.73A15.21,15.21,0,0,0,314,261a9,9,0,0,0,1.86.53,7.56,7.56,0,0,0,2.26.07,6.09,6.09,0,0,0,2.15-.73,7.58,7.58,0,0,1,1.82-.7c1.23-.22,2.5.77,4.3.83a5.84,5.84,0,0,0,2.46-.67,2.75,2.75,0,0,1,2-.26,20.8,20.8,0,0,0,2.36.75,12.4,12.4,0,0,0,2.51.42l1.44.1,1.43.17c1,.12,1.91.23,2.85.4a12.72,12.72,0,0,0,3.33.32,5,5,0,0,0,2.69-.81,10.42,10.42,0,0,0,1.9,1.72,6.26,6.26,0,0,0,2,1,7.1,7.1,0,0,0,2.22.25,11.29,11.29,0,0,0,2.59-.37c2.36,3,4.18,3.77,8.48,3.44a4.61,4.61,0,0,0,2.09,2.64c2,1,3.86,2.33,5.76,3.52l0,.07c-3.64.7-5.1,2.17-6.16,6.19a4.12,4.12,0,0,0-3.07,1.07c-2.88,2.9-6.36,5.35-8.29,9a1.26,1.26,0,0,1-.66.7,6.93,6.93,0,0,0-4.54,5.51,5.62,5.62,0,0,0-3.52,1.68c-2,2-4.35,3.91-6,6.1a26.06,26.06,0,0,1-5,5,33.57,33.57,0,0,0-5.72,5.76,25.45,25.45,0,0,1-5.11,5.08,29.53,29.53,0,0,0-5.73,5.73,26.71,26.71,0,0,1-5.14,5.14,33.5,33.5,0,0,0-5.6,5.58,28,28,0,0,1-5.3,5.29,66.88,66.88,0,0,0-5.5,5.41,5.65,5.65,0,0,0-1.93,3.38c-.06.78-.3.92-1.08,1.09a6.21,6.21,0,0,0-5,5c-.18.87-.42,1-1.12,1.06a6,6,0,0,0-3.24,1.8c-1.48,1.36-1.41,3.61-2.2,4-1.44.7-2.83,1-4.2,2.41a70.8,70.8,0,0,0-5.25,5.36,20.42,20.42,0,0,1-5.07,5,1.18,1.18,0,0,0-.15.15c-1.16,1.11-1,2.64-1.81,3.35s-2.32.74-3.5,2c-1.42,1.46-3,2.84-4.38,4.29-.78-1.3-1.63-2.62-2.31-4a14.14,14.14,0,0,0-1.77-2.94,5.31,5.31,0,0,0-2.29-1.8c.71-3.79-.18-6.22-3.16-8.43a7.53,7.53,0,0,0,.21-5,6.84,6.84,0,0,0-2.5-3.78,4.8,4.8,0,0,0,.9-3.24c-.63-4.27-.31-8.63-1.58-12.75a1.55,1.55,0,0,1,.06-1.18,9.92,9.92,0,0,0,.66-3.72,8.69,8.69,0,0,0-1-3.45,7.9,7.9,0,0,0,1.73-3.79c.15-1.47.49-2.91.72-4.37s.65-2.88,1-4.33A5.93,5.93,0,0,0,248.92,320.12Z" style="fill:#ea472c;"/><path d="M515,61.08c-.67.05-.86-.1-.3-.65s-.16-.44-.15-.7-.65-.16-3.17.93c2.76-1.6,3.72-2.35,1.95-1.69s-1.75.56-.19-.4.5-.68-2.31.4c1.48-.84,2.58-1.52,2.49-1.68s.2-.74-.52-.69-.71-.14-.31-.61.33-.82-.43-.75-.86-.06-.28-.61-.13-.45-.09-.73-.61-.21-3.13.88c3.78-2.2,3.63-2.43-.34-.8,3.95-2.25,3.17-2.3-.44-.76a13.84,13.84,0,0,0,2.48-1.55c-.13-.4,1-1.43-1.47-.68-.29.09-.14,0,.06-.16,1.53-1.1,1.24-1.09-1.56,0,1.12-.67,2.21-1.33,2.12-1.47s-.27-.52-.39-.78c0-.1-.52,0-1.33.35s-.85.31-.2-.1q3-1.87-.82-.34c-.89.36-.81.29,0-.17,1.23-.7,1.65-1,1.68-1.23s-2.94,1-2.49.73c1.1-.72,2.26-1.43,2.09-1.58s.28-.72-.52-.59-.76-.15-.21-.68-2.6.94-2,.5c.79-.55,1.76-1.17,1.64-1.31a2.37,2.37,0,0,1-.38-.66c0-.08-.21-.1-.88.16s-.49.1-.19-.15c1.41-1.17.84-1.38-.31-1.29a9.39,9.39,0,0,0-1.24.46c-.79.33-.79.31-.12-.1,2.4-1.44,2.39-1.65.07-.8-.45.17-.68.25-.17-.07,2.29-1.46,2.06-1.51-.91-.38,1.14-.68,2.05-1.25,2-1.42s-1.72.54-2,.54,1.66-1.08,1.71-1.3-2.65,1-1.86.43c1-.65,1.52-1.09,1.42-1.23a.81.81,0,0,1-.24-.51c0-.27-.62-.19-3.19.94,3.83-2.22,3.73-2.46-.17-.89,3.59-2.11,3.5-2.3-.43-.78a11.43,11.43,0,0,0,2.41-1.52c-.21-.36.9-1.38-1.46-.66-.21.06-.35.1-.09-.06,2-1.27,1.1-1.11-1.55,0,1.35-.78,2.25-1.34,2.18-1.49s.3-.81-.5-.72-.7-.18-.28-.66.32-.78-.41-.72-.81-.13-.29-.67.43-.84-.37-.73-.73-.18-.33-.66.38-.8-.33-.73-.8-.16-.32-.69-.15-.51-.23-.76-.59,0-2,.56c-.94.4-.83.31-.08-.14,2.5-1.48,2.39-1.72-.35-.62-.91.36-.76.26,0-.18,1.22-.7,1.63-1,1.67-1.22s-2.94,1-2.47.72c.88-.6,2.22-1.4,2.07-1.55s.18-.67-.48-.61-1.06,0-.24-.69c0,0,0,0,0,0,0-.17-2.16.77-2.11.63s1.91-1.18,1.78-1.31.19-.75-.55-.7-.74-.12-.28-.61.39-.85-.37-.78-.76-.13-.33-.61.46-.87-.35-.77-.7-.19-.28-.68.37-.78-.38-.68-.74-.23-.31-.74-.07-.53-.23-.73c0,0-.11,0-.23,0l-9.58,4.71c-.05.06-.08.11-.08.14,0,.3-.27.78.45.72s.86.1.3.65.16.44.15.7.65.16,3.17-.93c-2.76,1.6-3.72,2.35-1.95,1.69s1.75-.56.19.4-.5.68,2.31-.4c-1.48.84-2.58,1.52-2.49,1.68s-.2.74.52.69.71.14.31.61-.33.82.43.75.86.06.28.61.13.45.09.73.61.21,3.13-.88c-3.78,2.2-3.63,2.43.34.8-3.95,2.25-3.17,2.3.44.76a13.89,13.89,0,0,0-2.48,1.55c.13.4-1,1.43,1.47.68.29-.09.14,0-.06.16-1.53,1.1-1.24,1.09,1.56,0-1.12.67-2.21,1.33-2.12,1.47s.27.52.39.78c0,.1.52,0,1.33-.35s.85-.31.2.1q-3,1.87.82.34c.89-.36.81-.29,0,.17-1.23.7-1.65,1-1.68,1.23s2.94-1,2.49-.73c-1.1.72-2.26,1.43-2.09,1.58s-.28.72.52.59.76.15.21.68,2.6-.94,2-.5c-.79.55-1.76,1.17-1.64,1.31a2.38,2.38,0,0,1,.38.66c0,.08.21.1.88-.16s.49-.1.19.15c-1.41,1.17-.84,1.38.31,1.29a9.35,9.35,0,0,0,1.24-.46c.79-.33.79-.31.12.1-2.4,1.44-2.39,1.65-.07.8.45-.17.68-.25.17.07-2.29,1.46-2.06,1.51.91.38-1.14.68-2.05,1.25-2,1.42s1.72-.54,2-.54-1.66,1.08-1.71,1.3,2.65-1,1.86-.43c-1,.65-1.52,1.09-1.42,1.23a.81.81,0,0,1,.24.51c0,.27.61.19,3.19-.94-3.83,2.22-3.73,2.46.17.89-3.59,2.11-3.5,2.3.43.78a11.45,11.45,0,0,0-2.41,1.52c.21.36-.9,1.38,1.46.66.21-.06.35-.1.09.06-2,1.27-1.1,1.11,1.55,0-1.35.78-2.25,1.34-2.18,1.49s-.3.81.5.72.7.18.28.66-.32.78.41.72.81.13.29.67-.43.84.37.74.73.18.33.66-.38.8.33.73.8.16.32.69.15.51.23.76.59,0,2-.56c.94-.4.83-.31.08.14-2.5,1.48-2.39,1.72.35.63.91-.36.76-.26,0,.18-1.22.7-1.63,1-1.67,1.22s2.94-1,2.47-.72c-.88.6-2.22,1.4-2.07,1.55s-.18.67.48.61,1.06,0,.24.69c0,0,0,0,0,0,0,.17,2.16-.77,2.11-.63s-1.91,1.18-1.78,1.31-.19.75.55.7.74.12.28.61-.39.85.37.78.76.13.33.61-.46.87.35.77.7.19.28.68-.37.78.38.68.74.23.31.74.07.53.23.73c0,0,.17,0,.21,0l9.64-4.75s0,0,0-.06C515.41,61.5,515.71,61,515,61.08Z" style="fill:#ea472c;"/><path d="M544,54.77c-.64-.2-.76-.41,0-.72s0-.46.12-.71-.55-.39-3.29-.32c3.16-.45,4.33-.8,2.44-.84s-1.83-.13,0-.44.72-.45-2.29-.49c1.69-.23,3-.45,2.94-.63s.46-.61-.22-.83-.61-.4-.06-.68.61-.63-.11-.86-.78-.38,0-.67,0-.47.19-.71-.49-.42-3.23-.35c4.33-.64,4.28-.9,0-.87,4.5-.61,3.8-1-.13-.87a13.88,13.88,0,0,0,2.88-.51c0-.42,1.43-1-1.11-1.18-.31,0-.12-.07.12-.12,1.83-.45,1.56-.55-1.45-.59a7.48,7.48,0,0,0,2.52-.58c0-.29-.05-.58-.08-.87,0-.11-.49-.16-1.37-.17-.72,0-.9,0-.15-.16,2.29-.42,2.08-.62-.64-.62-1,0-.86,0,.06-.16,1.4-.19,1.92-.36,2-.51s-3.11-.14-2.59-.25c1.29-.26,2.63-.49,2.52-.69s.53-.56-.26-.74-.65-.42.06-.71c.55-.23-2.76-.09-2-.27.94-.22,2.07-.43,2-.6a2.38,2.38,0,0,1-.11-.76c0-.09-.15-.17-.88-.18-.88,0-.49-.09-.12-.21,1.74-.56,1.3-1,.19-1.32a9.41,9.41,0,0,0-1.32,0c-.86,0-.85,0-.07-.14,2.77-.44,2.83-.64.36-.72-.48,0-.73,0-.13-.13,2.67-.5,2.47-.64-.7-.69a6.47,6.47,0,0,0,2.39-.57c0-.17-1.79-.14-2.06-.25s1.94-.38,2.07-.57-2.82-.1-1.88-.3c1.14-.24,1.82-.44,1.77-.62a.81.81,0,0,1,0-.57c.11-.25-.5-.41-3.31-.32,4.38-.63,4.38-.89.17-.89,4.12-.62,4.1-.83-.11-.88a11.44,11.44,0,0,0,2.8-.51c-.06-.41,1.35-.94-1.11-1.16-.22,0-.36,0-.06-.09,2.3-.45,1.43-.62-1.42-.62,1.54-.22,2.59-.41,2.57-.57s.58-.64-.2-.86-.59-.42,0-.72.59-.6-.11-.82-.71-.42,0-.73.71-.62-.07-.82-.61-.44-.06-.73.65-.6,0-.8-.68-.45,0-.76.05-.53.06-.79-.53-.25-2.07-.23c-1,0-.88,0,0-.15,2.88-.44,2.86-.7-.09-.71-1,0-.81,0,.08-.16,1.39-.19,1.9-.36,2-.51s-3.12-.12-2.56-.25c1-.23,2.58-.47,2.49-.66s.42-.55-.22-.75-1-.41,0-.73c0,0,0,0,0,0,.05-.17-2.29-.09-2.19-.21S541,12.19,541,12s.46-.63-.25-.85-.64-.39,0-.67.67-.64,0-.86-.66-.4-.08-.69.75-.64,0-.84-.58-.44,0-.74.64-.58-.1-.77-.6-.48,0-.8.13-.52.06-.77c0,0-.09-.08-.2-.11l-10.65.8c-.07,0-.12.07-.13.1-.09.29-.54.62.15.84s.76.41,0,.72,0,.46-.12.71.55.39,3.29.32c-3.16.45-4.33.8-2.44.84s1.83.13,0,.44-.72.45,2.29.49c-1.69.23-3,.45-2.94.63s-.46.61.22.83.61.4.06.68-.61.63.11.86.78.38,0,.67,0,.47-.19.71.49.42,3.23.35c-4.33.64-4.28.9,0,.87-4.5.61-3.8,1,.13.87a13.86,13.86,0,0,0-2.87.51c0,.42-1.43,1,1.11,1.18.31,0,.12.07-.12.12-1.83.45-1.56.55,1.45.59a7.47,7.47,0,0,0-2.52.58c0,.29.05.58.08.87,0,.11.49.17,1.37.17.72,0,.9,0,.15.16-2.29.42-2.08.62.64.62,1,0,.86,0-.06.16-1.4.19-1.92.36-2,.51s3.11.14,2.59.25c-1.29.26-2.63.49-2.52.69s-.53.56.26.74.65.42-.06.71c-.55.23,2.76.09,2,.27-.94.22-2.07.43-2,.6a2.39,2.39,0,0,1,.11.76c0,.09.15.17.88.18.88,0,.49.09.12.21-1.74.56-1.3,1-.19,1.32a9.41,9.41,0,0,0,1.32,0c.86,0,.85,0,.07.14-2.77.44-2.83.64-.36.72.48,0,.73,0,.13.13-2.67.5-2.47.64.7.69a6.47,6.47,0,0,0-2.39.57c0,.17,1.79.14,2.06.25s-1.94.38-2.07.57,2.82.1,1.88.3c-1.14.25-1.82.44-1.77.62a.81.81,0,0,1,0,.57c-.11.25.5.41,3.31.32-4.38.63-4.38.89-.17.89-4.12.62-4.1.83.11.88a11.42,11.42,0,0,0-2.8.51c.06.41-1.35.94,1.11,1.16.22,0,.36,0,.06.09-2.3.45-1.43.62,1.42.61-1.54.22-2.59.41-2.58.57s-.58.64.2.86.59.42,0,.72-.59.6.11.82.71.42,0,.73-.71.62.07.82.61.44.06.73-.65.6,0,.8.68.45,0,.76-.05.53-.06.79.53.25,2.07.23c1,0,.88,0,0,.15-2.88.44-2.86.7.09.71,1,0,.81,0-.08.16-1.39.19-1.9.36-2,.51s3.12.13,2.56.25c-1,.23-2.58.47-2.49.66s-.42.55.22.75,1,.41,0,.73c0,0,0,0,0,0-.05.17,2.29.09,2.19.21s-2.21.39-2.14.55-.46.63.25.85.64.39,0,.67-.67.64,0,.86.66.4.08.69-.75.64,0,.84.58.44,0,.74-.64.58.1.77.6.48,0,.8-.13.52-.06.77c0,0,.17,0,.21.05l10.72-.81s0,0,.05,0C544.28,55.31,544.74,55,544,54.77Z" style="fill:#ea472c;"/><path d="M590.49,16.65c.6,0,.34-.41.38-.67,0,0,0-.11-.13-.18l-10-3.84a.24.24,0,0,0-.16,0c-.2.23-.76.33-.22.82s.51.7-.28.66-.22.41-.41.59.33.59,2.83,1.7c-3-.94-4.25-1.14-2.56-.29s1.6.9-.16.41-.84.1,1.86,1.43c-1.63-.52-2.86-.87-2.92-.69s-.68.36-.16.85.38.62-.24.64-.82.31-.26.83.54.67-.26.62-.24.4-.47.56.26.59,2.77,1.7c-4.19-1.28-4.25-1-.36.79-4.33-1.38-3.84-.76-.26.84a13.83,13.83,0,0,0-2.82-.77c-.21.37-1.71.26.5,1.54.27.15.08.11-.16.06-1.84-.38-1.65-.17,1.06,1.15a7.48,7.48,0,0,0-2.52-.56c-.08.28-.2.55-.3.82,0,.1.37.36,1.16.74s.8.41.07.21c-2.25-.6-2.15-.33.31.84.87.41.76.4-.12.12-1.35-.42-1.89-.5-2-.4s2.75,1.46,2.23,1.33c-1.28-.32-2.58-.68-2.58-.46s-.72.28-.08.78.4.66-.36.62c-.59,0,2.46,1.27,1.7,1.1-.95-.21-2.06-.5-2.08-.32a2.38,2.38,0,0,1-.23.73c0,.08.07.22.71.54s.41.3,0,.25c-1.82-.24-1.59.32-.74,1.11a9.37,9.37,0,0,0,1.18.59c.78.36.76.38,0,.15-2.69-.78-2.83-.64-.63.49.43.22.65.33.06.17-2.62-.69-2.51-.48.33.93a6.48,6.48,0,0,0-2.4-.51c-.09.15,1.56.9,1.76,1.11s-1.92-.48-2.12-.37,2.5,1.3,1.57,1.08c-1.14-.27-1.83-.38-1.87-.2a.81.81,0,0,1-.22.52c-.21.18.27.58,2.85,1.71-4.23-1.31-4.34-1.07-.54.73-4-1.2-4.06-1-.28.84a11.41,11.41,0,0,0-2.75-.74c-.12.4-1.63.27.5,1.52.19.11.31.19,0,.11-2.27-.58-1.56-.05,1,1.16-1.49-.47-2.51-.74-2.57-.59s-.79.33-.19.86.35.64-.29.65-.79.29-.25.79.46.69-.29.67-.91.25-.29.77.36.66-.26.69-.84.26-.31.74.42.69-.28.7-.27.45-.4.69.37.45,1.77,1.09c.93.42.79.4,0,.15-2.79-.83-2.89-.59-.22.68.88.42.71.38-.14.11-1.34-.42-1.87-.49-2-.4s2.77,1.45,2.21,1.32c-1-.23-2.53-.68-2.54-.47s-.61.32-.12.77.71.79-.34.64c0,0,0,0,0,0s2,1.06,1.89,1.13-2.16-.6-2.17-.42-.68.37-.14.88.41.63-.26.62-.88.29-.33.8.42.65-.22.66-1,.25-.32.78.33.65-.31.67-.82.25-.25.74.33.69-.33.73-.34.41-.38.67c0,0,.14.1.16.14l10,3.86.07,0c.2-.23.76-.33.22-.82s-.51-.7.28-.66.22-.41.41-.58-.33-.59-2.83-1.7c3,.94,4.25,1.14,2.56.29s-1.6-.9.16-.41.84-.1-1.86-1.43c1.63.52,2.86.87,2.92.69s.68-.35.16-.85-.38-.62.24-.64.82-.31.27-.83-.54-.67.26-.62.24-.4.47-.56-.26-.59-2.77-1.7c4.19,1.28,4.25,1,.36-.79,4.33,1.38,3.84.76.26-.84a13.86,13.86,0,0,0,2.82.77c.21-.37,1.71-.26-.5-1.54-.27-.15-.08-.11.16-.06,1.84.38,1.65.17-1.06-1.15a7.48,7.48,0,0,0,2.52.56c.08-.28.2-.55.3-.82,0-.1-.37-.36-1.16-.74s-.8-.41-.07-.21c2.25.6,2.15.33-.31-.84-.87-.41-.76-.4.12-.12,1.35.42,1.89.5,2,.4s-2.75-1.46-2.23-1.33c1.28.32,2.58.69,2.58.46s.72-.28.08-.78-.4-.66.36-.62c.59,0-2.46-1.27-1.7-1.1.95.21,2.06.5,2.08.32a2.38,2.38,0,0,1,.23-.73c0-.08-.07-.22-.71-.54s-.41-.3,0-.25c1.82.24,1.59-.32.74-1.11a9.37,9.37,0,0,0-1.18-.59c-.78-.36-.76-.38,0-.16,2.69.78,2.83.64.63-.49-.43-.22-.65-.33-.06-.17,2.62.69,2.51.48-.33-.93a6.47,6.47,0,0,0,2.4.51c.09-.15-1.56-.9-1.76-1.11s1.92.48,2.12.37-2.5-1.3-1.57-1.08c1.14.27,1.83.38,1.87.2a.81.81,0,0,1,.22-.52c.21-.18-.27-.58-2.85-1.71,4.23,1.31,4.34,1.07.54-.73,4,1.2,4.06,1,.28-.84a11.46,11.46,0,0,0,2.75.74c.12-.4,1.63-.27-.5-1.52-.19-.11-.31-.19,0-.11,2.27.58,1.56.05-1-1.16,1.49.46,2.51.74,2.57.59s.79-.33.19-.86-.35-.63.29-.65.79-.29.25-.79-.46-.69.29-.67.91-.25.29-.77-.36-.66.26-.69.84-.26.31-.74-.42-.69.28-.7.27-.45.4-.69-.37-.45-1.77-1.09c-.93-.42-.79-.4,0-.15,2.79.83,2.89.59.22-.68-.88-.42-.71-.38.14-.11,1.34.42,1.87.49,2,.4s-2.77-1.45-2.21-1.32c1,.23,2.53.68,2.54.47s.61-.32.12-.77-.71-.79.34-.64c0,0,0,0,0,0s-2-1.06-1.89-1.12,2.16.6,2.17.42.68-.37.14-.88-.41-.63.26-.62.88-.29.33-.8-.42-.65.22-.66,1-.25.32-.78-.33-.65.31-.67.82-.25.25-.74S589.83,16.69,590.49,16.65Z" style="fill:#ea472c;"/><path d="M371.63,641.48l-.1-.59-.49.35c-11.11,8-26.86,37.13-33.19,49.44,8-28.15-1.83-78.44-1.94-79l-.16-.82-.5.67c-18.9,25.08-29.64,53.39-34.9,70.41,4.3-40.48-12.43-95.44-12.61-96l-.21-.69-.44.57c-21.36,27.35-32.18,78.33-36.24,102,2.79-56.6-27.8-98.8-28.13-99.25l-.41-.55-.24.64c-22.68,59.58-4.49,113.54-3.54,116.25l-.4,1.92.35.08,1.41.31.69.14a219.44,219.44,0,0,0,45.32,4.22c17.05,0,38.74-1.37,67.72-5,12.4-1.57,25-3.29,35.92-4.78l.26,0,.06-.26c.52-2.39,1.11-4.64,1.77-6.71C377.39,676.7,371.69,641.83,371.63,641.48Z" style="fill:#ea472c;"/><path d="M520.9,680.6c0-1.14-.14-2.28-.27-3.41a30,30,0,0,0-1.42-6.5,91.85,91.85,0,0,1-3.32-10.81,18.56,18.56,0,0,0-.89-2.69,25.76,25.76,0,0,0-1.35-2.78l-2.55-4.56-3.75,3.21-2.11,1.8c-.71.59-1.35,1.28-2,1.88-2.87,2.64-4.52,5.85-3.81,8.69a9.65,9.65,0,0,0-.86.45,23.14,23.14,0,0,0-1.65-2.11,8.67,8.67,0,0,0,.75-6.56c-1.06-4.19-1.93-8.6-3.67-12.41a52.59,52.59,0,0,1-3.43-9.79q-.31-1.21-.69-2.45l-2.7-8.72-5.05,8.31a38.87,38.87,0,0,0-4.29,10,54.13,54.13,0,0,1-3.42,9.83c-1.46,3.09-1.93,6.92-2.72,10.43a17.35,17.35,0,0,0-.47,5.22,7.58,7.58,0,0,0-2.7-1.51,6.59,6.59,0,0,0-.41-5l-2.5-4.22c-.84-1.41-1.75-2.78-2.67-4.14a38.34,38.34,0,0,0-3.1-3.77,22.87,22.87,0,0,0-3.74-3.08,2.6,2.6,0,0,1-1.1-1.39c-2.13-4.49-3.73-5.77-8.14-6.92a10,10,0,0,0-3.14-5.39c-3.14-2.7-6.46-5.18-9.83-7.57l-6.79-4.81.3,8.37,0,1.06a8.08,8.08,0,0,0,1.16,4.09,2.24,2.24,0,0,1,.2,2.61c-1.61,3.74-1.34,7,.8,10,.76,1.07.69,1.45,0,2.33a9,9,0,0,0-1.35,5.44c0,3,2.52,5.56,2.15,6.53a20.5,20.5,0,0,0-1.63,5.81,1.88,1.88,0,0,1-.36-.77c-.56-2.28-.83-4.38-2.37-6.64-2.21-3.23-4.47-6.42-6.87-9.5a7.93,7.93,0,0,0-2.83-2.55c-1.29-.51-1.57-1.3-2.25-2.55-3.23-5.84-8.24-10.56-13.71-14.41a4.17,4.17,0,0,0-2.14-.59c-1,0-1.26-.31-1.66-1.39a10.23,10.23,0,0,0-2.89-4.51,11.8,11.8,0,0,0-5.11-2.26,2,2,0,0,1-1.78-1.17c-1.85-3.22-3.57-4.64-6.32-5.41L372.22,612l2.53,5.74a20.67,20.67,0,0,0,1.68,3,10.14,10.14,0,0,0-1.17,6.06c.31,2.6,1.87,4,2.34,5.82s-.92,3.79-.53,6.49c.38,2.89,2.94,4.22,2.63,6.29a18.37,18.37,0,0,0,.28,7.43l1.64,6.33A11.25,11.25,0,0,0,378,657.3a9.58,9.58,0,0,0-.45-2.84,8.89,8.89,0,0,0-1.63-2.78c-2.83-3.41-5.61-7.13-8.92-9.8a51.86,51.86,0,0,1-7.74-7.7,42.68,42.68,0,0,0-9.43-8.29,50.35,50.35,0,0,1-8.75-6.91c-.38-.37-.77-.75-1.19-1.13l-7-6.43.36,10.33a48.45,48.45,0,0,0,.52,5.51,42,42,0,0,0,1.31,5.3,39.89,39.89,0,0,1,1.48,5.49c.38,1.8.69,3.6.92,5.54a53.7,53.7,0,0,0,1.26,6,42.36,42.36,0,0,0,2.15,5.75,51.48,51.48,0,0,1,2.26,5.37c.68,1.77,1.2,3.6,1.73,5.54,1,3.73,3.06,7.38,4.8,11,1.05,2.14,2.31,3.82,4,4.48,1.11.45,1.21.85,1.13,2.07a9.35,9.35,0,0,0,5.54,9.33c1.23.58,1.3,1,1.21,2a9.33,9.33,0,0,0,1.82,5.42c1.28,1.91,3.44,2.69,4.64,3.45l-.29-.5.27.3,1.48,1.81,1-.43a1.4,1.4,0,0,1,.83-.15c2.39.46,4.33,1.37,7.28.91,3.76-.59,7.71-.73,11.25-1.69a31.31,31.31,0,0,1,10.72-1.43,1.86,1.86,0,0,0,.32,0c2.42-.29,3.66-2.24,5.26-2.38,1.84-.16,3.48,1.21,6,.81,4.29-.67,8.79-.85,12.85-1.91a36.53,36.53,0,0,1,10-1.31,53,53,0,0,0,12.83-1.63A38.59,38.59,0,0,1,458,695.16a50.44,50.44,0,0,0,12.51-1.42,38.83,38.83,0,0,1,10.94-1.13h.31l.62.56-.26-.56A47.11,47.11,0,0,0,493,691.47a43.38,43.38,0,0,1,11.88-1,46.07,46.07,0,0,0,5.62-.22l1.79-.17c.72-.08,1.44-.19,2.16-.32a40.31,40.31,0,0,0,4.15-1c.5-.15.87-.37,1.29-.52a12.56,12.56,0,0,0,.83-2.59,15,15,0,0,0,.28-3.3Z" style="fill:#fff;"/><path d="M680.75,655a28.25,28.25,0,0,0-2-9.65,27.52,27.52,0,0,0-1.06-9l-.58-1.88-1.49,1.06a22.44,22.44,0,0,0-1.94,1.54,37.26,37.26,0,0,1-6,4.91,29.09,29.09,0,0,0-7.56,8.72,24.18,24.18,0,0,0-5.12,5c-2.39,3-4.8,6-7,9.12.32-1,.65-1.92,1-2.87.59-1.81,1.09-3.64,1.77-5.59a91.7,91.7,0,0,0,2.56-11.84,43.93,43.93,0,0,0,.68-5.82,16.46,16.46,0,0,0-.22-4.42,28.93,28.93,0,0,0,.62-15.05,30,30,0,0,0-.39-13.6l-.48-1.66-1,1c-.42.43-.8.85-1.11,1.24a18,18,0,0,0-4.57,2.47A84,84,0,0,0,631.32,624a9.62,9.62,0,0,1-1.34,1.49c-1,.93-1.78,1.76-2.46,2.54s-1.27,1.47-1.81,2.18a31.23,31.23,0,0,0-3,4.9,28.75,28.75,0,0,0-4.47,5c-1.48,2-2.85,4.17-4.27,6.25-1,1.56-2,3.11-3,4.67a3.37,3.37,0,0,1,.21-.51,50.14,50.14,0,0,0,3.74-7.79l2.27-6.3a62.27,62.27,0,0,0,2-6.15c.55-2.1,1.11-4,1.72-5.95l.94-2.84.91-2.88c1-3,.71-5.19,1.44-7.13a57.82,57.82,0,0,0,2.34-7.45c1.07-4.28,1.83-8.63,2.75-12.94a27.58,27.58,0,0,0,.52-4.23,15.82,15.82,0,0,1,.63-3.8,130.37,130.37,0,0,0,2.79-22.37,11.25,11.25,0,0,0-.17-2.29,5,5,0,0,1,.15-2.46,28.84,28.84,0,0,0,.54-10.69l-.33-2.63-1.54,1.82-.82,1a7.18,7.18,0,0,1-1.77,1.67c-1.07.76-2,1.44-2.83,2.1s-1.51,1.37-2.19,2.07a33.54,33.54,0,0,0-4,5.07,31.28,31.28,0,0,0-5,4.58c-1.95,2.27-2.79,3.91-4.13,5.62s-3,2.89-4.94,5.28c-2,2.59-2.71,4.69-4.26,6.33a70.3,70.3,0,0,0-5.29,6.47c-1.85,2.7-3.76,5.37-5.58,8.08-1.17,1.71-2.21,3.34-3,4.79a17.48,17.48,0,0,0-1.67,3.86,32,32,0,0,0-4.7,5.86,35.45,35.45,0,0,0-3.34,6.95,33.62,33.62,0,0,0-4.4,5.89,43,43,0,0,0-3.3,7.32,18,18,0,0,0-1.72,1.94,33.71,33.71,0,0,0,1.83-5.55q.36-1.52.58-3t.23-2.84a23.85,23.85,0,0,0,2.06-6.17l.79-3.73.7-3.76c.49-2.5.81-5,1.07-7.37.22-2.18.4-4.21.66-6.21s.47-4,.7-6.15a93.72,93.72,0,0,0,.57-14.31l-.09-1.82-.17-3.37-2.06,2.57c-2.32,2.89-4.5,5.45-7.08,8.26a100.64,100.64,0,0,0-8.83,11.19c-2.65,3.63-4.79,6.89-7.42,10.42a103.15,103.15,0,0,0-7.5,11.72l-1.66,2.9L541.7,615c-1,1.89-2.11,3.75-3.27,5.71a32.1,32.1,0,0,0-1.57,2.93l-1.49,3.06-1.48,3.11-.74,1.55-.67,1.58a30.51,30.51,0,0,0-2.12,6.28,6.1,6.1,0,0,1-1,2.5,34.34,34.34,0,0,0-2.66,5.63,20.1,20.1,0,0,0-.88,3c-.23,1-.4,2-.53,3a5.27,5.27,0,0,1-.84,2.58,30.38,30.38,0,0,0-2.12,5.92,23.55,23.55,0,0,0-.7,4.61,18.92,18.92,0,0,1-.36,3.05,44.4,44.4,0,0,0-1.91,8.06c-.29,2.51-.55,5.06-.59,7.66l0,1.51,1.54-.09c1.91-.11,3.78-.23,5.6-.4a107.33,107.33,0,0,1,12.45-.57h.37c2.8-.1,4.5-.72,6.36-.76,2.13,0,3.8.46,6.76.37,5-.13,10.17,0,15-.18,4.07-.13,7.51-.09,11.59.15,4.77.3,10.11.47,14.91.54,4.18.05,7.77.27,11.93.71,4.66.52,9.88,1,14.48,1.27a118.39,118.39,0,0,1,12.62,1.46c4.28.7,9.06,1.4,13.3,1.87,2.38.26,4.62.59,6.94,1s4.58.88,7,1.37c4.36.88,9,1.54,13.4,2.25l1.2.15-.61-1.19h0l.61,1.19c.28-.5.57-1,.86-1.63.65-1.28,1.27-2.65,1.81-4l1.15-3.62c.18-.6.38-1.2.54-1.8l.4-1.82c.25-1.21.52-2.4.7-3.57.55-4.35,1-8.12,1.33-12.47A80.19,80.19,0,0,0,680.75,655Z" style="fill:#f1c517;"/></g></g></svg>